<?xml version="1.0" encoding="UTF-8" standalone="no"?><svg xmlns:svg="http://www.w3.org/2000/svg" xmlns="http://www.w3.org/2000/svg" version="1.1" viewBox="0 0 47.5 47.5" style="enable-background:new 0 0 47.5 47.5;" id="svg2" xml:space="preserve"><defs id="defs6"><clipPath id="clipPath18"><path d="M 0,38 38,38 38,0 0,0 0,38 z" id="path20"/></clipPath></defs><g transform="matrix(1.25,0,0,-1.25,0,47.5)" id="g12"><g id="g14"><g clip-path="url(#clipPath18)" id="g16"><g transform="translate(33,5)" id="g22"><path d="m 0,0 c 0,-2.209 -1.791,-4 -4,-4 l -20,0 c -2.209,0 -4,1.791 -4,4 l 0,28 c 0,2.209 1.791,4 4,4 l 20,0 c 2.209,0 4,-1.791 4,-4 L 0,0 z" id="path24" style="fill:#e6e7e8;fill-opacity:1;fill-rule:nonzero;stroke:none"/></g><g transform="translate(12,30)" id="g26"><path d="M 0,0 C -2.519,0 -4.583,-1.87 -4.929,-4.293 -4.198,-3.503 -3.161,-3 -2,-3 0.209,-3 2,-4.791 2,-7 2,-9 3.497,-9.198 2.707,-9.929 5.13,-9.583 5,-7.519 5,-5 5,-2.239 2.761,0 0,0" id="path28" style="fill:#dd2e44;fill-opacity:1;fill-rule:nonzero;stroke:none"/></g><g transform="translate(24,23)" id="g30"><path d="M 0,0 C 0,2.209 1.791,4 4,4 5.161,4 6.198,3.497 6.929,2.707 6.583,5.13 4.52,7 2,7 -0.762,7 -3,4.761 -3,2 -3,-0.519 -3.131,-2.583 -0.707,-2.929 -1.497,-2.198 0,-2 0,0" id="path32" style="fill:#55acee;fill-opacity:1;fill-rule:nonzero;stroke:none"/></g><g transform="translate(15,25)" id="g34"><path d="M 0,0 C 0,4.971 4,9 4,9 4,9 8,4.971 8,0 8,-4.971 6.209,-9 4,-9 1.791,-9 0,-4.971 0,0" id="path36" style="fill:#ffac33;fill-opacity:1;fill-rule:nonzero;stroke:none"/></g><g transform="translate(12.7065,15.9287)" id="g38"><path d="m 0,0 c 0.791,-0.73 1.293,-1.768 1.293,-2.929 0,-2.209 -1.791,-4 -4,-4 -1.161,0 -2.198,0.503 -2.928,1.293 0.345,-2.424 2.409,-4.293 4.928,-4.293 2.762,0 5,2.239 5,5 C 4.293,-2.409 2.424,-0.346 0,0" id="path40" style="fill:#553788;fill-opacity:1;fill-rule:nonzero;stroke:none"/></g><g transform="translate(28,9)" id="g42"><path d="m 0,0 c -2.209,0 -4,1.791 -4,4 0,1.161 0.503,2.198 1.293,2.929 C -5.131,6.583 -7,4.52 -7,2 c 0,-2.762 2.238,-5 5,-5 2.52,0 4.583,1.869 4.929,4.293 C 2.198,0.503 1.161,0 0,0" id="path44" style="fill:#553788;fill-opacity:1;fill-rule:nonzero;stroke:none"/></g><g transform="translate(15,13)" id="g46"><path d="M 0,0 C 0,-4.971 3,-9 4,-9 5,-9 8,-4.971 8,0 8,4.971 6.209,9 4,9 1.791,9 0,4.971 0,0" id="path48" style="fill:#9266cc;fill-opacity:1;fill-rule:nonzero;stroke:none"/></g><g transform="translate(14,20)" id="g50"><path d="M 0,0 C 0,3.866 3,4 5,4 7,4 10,3.866 10,0 10,-3.865 7.762,-7 5,-7 2.239,-7 0,-3.865 0,0" id="path52" style="fill:#edbb9f;fill-opacity:1;fill-rule:nonzero;stroke:none"/></g><g transform="translate(18.0005,20)" id="g54"><path d="m 0,0 c 0,-0.552 -0.448,-1 -1,-1 -0.552,0 -1,0.448 -1,1 0,0.552 0.448,1 1,1 0.552,0 1,-0.448 1,-1" id="path56" style="fill:#662113;fill-opacity:1;fill-rule:nonzero;stroke:none"/></g><g transform="translate(22,20)" id="g58"><path d="m 0,0 c 0,-0.552 -0.447,-1 -1,-1 -0.552,0 -1,0.448 -1,1 0,0.552 0.448,1 1,1 0.553,0 1,-0.448 1,-1" id="path60" style="fill:#662113;fill-opacity:1;fill-rule:nonzero;stroke:none"/></g><g transform="translate(19,15)" id="g62"><path d="M 0,0 C 1.104,0 2,0.896 2,2 L -2,2 C -2,0.896 -1.104,0 0,0" id="path64" style="fill:#662113;fill-opacity:1;fill-rule:nonzero;stroke:none"/></g><g transform="translate(8,26)" id="g66"><path d="m 0,0 c 0,-0.552 -0.448,-1 -1,-1 -0.552,0 -1,0.448 -1,1 0,0.552 0.448,1 1,1 0.552,0 1,-0.448 1,-1" id="path68" style="fill:#a0041e;fill-opacity:1;fill-rule:nonzero;stroke:none"/></g><g transform="translate(30,26)" id="g70"><path d="M 0,0 C 0,-0.552 0.447,-1 1,-1 1.553,-1 2,-0.552 2,0 2,0.552 1.553,1 1,1 0.447,1 0,0.552 0,0" id="path72" style="fill:#226699;fill-opacity:1;fill-rule:nonzero;stroke:none"/></g><g transform="translate(18,34)" id="g74"><path d="M 0,0 C 0,0.552 0.448,1 1,1 1.552,1 2,0.552 2,0 2,-0.552 1.552,-1 1,-1 0.448,-1 0,-0.552 0,0" id="path76" style="fill:#dd2e44;fill-opacity:1;fill-rule:nonzero;stroke:none"/></g></g></g></g></svg>
