<svg xmlns="http://www.w3.org/2000/svg" viewBox="0 0 47.5 47.5" enable-background="new 0 0 47.5 47.5"><defs><clipPath id="a"><path d="M0 38h38V0H0v38z"/></clipPath></defs><g><g><g clip-path="url(#a)" transform="matrix(1.25 0 0 -1.25 0 47.5)"><g><path fill="#e6e7e8" d="M33 5c0-2.2-1.8-4-4-4H9C6.8 1 5 2.8 5 5v28c0 2.2 1.8 4 4 4h20c2.2 0 4-1.8 4-4V5z"/></g><g><path fill="#dd2e44" d="M12 30c-2.52 0-4.58-1.87-4.93-4.3.73.8 1.77 1.3 2.93 1.3 2.2 0 4-1.8 4-4 0-2 1.5-2.2.7-2.93 2.43.35 2.3 2.4 2.3 4.93 0 2.76-2.24 5-5 5"/></g><g><path fill="#55acee" d="M24 23c0 2.2 1.8 4 4 4 1.16 0 2.2-.5 2.93-1.3-.35 2.43-2.4 4.3-4.93 4.3-2.76 0-5-2.24-5-5 0-2.52-.13-4.58 2.3-4.93-.8.73.7.93.7 2.93"/></g><g><path fill="#ffac33" d="M15 25c0 4.97 4 9 4 9s4-4.03 4-9-1.8-9-4-9-4 4.03-4 9"/></g><g><path fill="#553788" d="M12.7 15.93c.8-.73 1.3-1.77 1.3-2.93 0-2.2-1.8-4-4-4-1.16 0-2.2.5-2.93 1.3C7.42 7.86 9.47 6 12 6c2.76 0 5 2.24 5 5 0 2.52-1.87 4.58-4.3 4.93"/></g><g><path fill="#553788" d="M28 9c-2.2 0-4 1.8-4 4 0 1.16.5 2.2 1.3 2.93-2.43-.35-4.3-2.4-4.3-4.93 0-2.76 2.24-5 5-5 2.52 0 4.58 1.87 4.93 4.3C30.2 9.5 29.16 9 28 9"/></g><g><path fill="#9266cc" d="M15 13c0-4.97 3-9 4-9s4 4.03 4 9-1.8 9-4 9-4-4.03-4-9"/></g><g><path fill="#edbb9f" d="M14 20c0 3.87 3 4 5 4s5-.13 5-4-2.24-7-5-7-5 3.13-5 7"/></g><g><path fill="#662113" d="M18 20c0-.55-.45-1-1-1s-1 .45-1 1 .45 1 1 1 1-.45 1-1"/></g><g><path fill="#662113" d="M22 20c0-.55-.45-1-1-1s-1 .45-1 1 .45 1 1 1 1-.45 1-1"/></g><g><path fill="#662113" d="M19 15c1.1 0 2 .9 2 2h-4c0-1.1.9-2 2-2"/></g><g><path fill="#a0041e" d="M8 26c0-.55-.45-1-1-1s-1 .45-1 1 .45 1 1 1 1-.45 1-1"/></g><g><path fill="#269" d="M30 26c0-.55.45-1 1-1s1 .45 1 1-.45 1-1 1-1-.45-1-1"/></g><g><path fill="#dd2e44" d="M18 34c0 .55.45 1 1 1s1-.45 1-1-.45-1-1-1-1 .45-1 1"/></g></g></g></g></svg>