<svg xmlns="http://www.w3.org/2000/svg" viewBox="0 0 47.5 47.5" enable-background="new 0 0 47.5 47.5"><defs><clipPath id="a"><path d="M0 38h38V0H0v38z"/></clipPath></defs><g><g><g clip-path="url(#a)" transform="matrix(1.25 0 0 -1.25 0 47.5)"><g><path fill="#269" d="M37 5c0-2.2-1.8-4-4-4H5C2.8 1 1 2.8 1 5v28c0 2.2 1.8 4 4 4h28c2.2 0 4-1.8 4-4V5z"/></g><g><path fill="#fff" d="M17 19h3.06c2.02 0 3.3 1.47 3.3 3.38 0 1.92-1.28 3.4-3.3 3.4H17V19zm-5 8.5c0 1.5.9 2.5 2.5 2.5h5.66c4.7 0 8.2-2.94 8.2-7.52 0-4.67-3.63-7.48-8-7.48H17V9.52c0-1.6-1.02-2.5-2.4-2.5s-2.6.9-2.6 2.5V27.5z"/></g></g></g></g></svg>