<?xml version="1.0" encoding="UTF-8" standalone="no"?><svg xmlns:svg="http://www.w3.org/2000/svg" xmlns="http://www.w3.org/2000/svg" version="1.1" viewBox="0 0 47.5 47.5" style="enable-background:new 0 0 47.5 47.5;" id="svg2" xml:space="preserve"><defs id="defs6"><clipPath id="clipPath18"><path d="M 0,38 38,38 38,0 0,0 0,38 z" id="path20"/></clipPath></defs><g transform="matrix(1.25,0,0,-1.25,0,47.5)" id="g12"><g id="g14"><g clip-path="url(#clipPath18)" id="g16"><g transform="translate(37,5)" id="g22"><path d="m 0,0 c 0,-2.209 -1.791,-4 -4,-4 l -28,0 c -2.209,0 -4,1.791 -4,4 l 0,28 c 0,2.209 1.791,4 4,4 l 28,0 c 2.209,0 4,-1.791 4,-4 L 0,0 z" id="path24" style="fill:#dd2e44;fill-opacity:1;fill-rule:nonzero;stroke:none"/></g><g transform="translate(16.0874,16.6191)" id="g26"><path d="M 0,0 5.891,0 3.008,8.992 2.946,8.992 0,0 z m -0.341,11.256 c 0.528,1.426 1.737,2.573 3.318,2.573 1.643,0 2.791,-1.085 3.317,-2.573 l 6.078,-16.867 c 0.185,-0.496 0.248,-0.931 0.248,-1.148 0,-1.209 -0.993,-2.046 -2.139,-2.046 -1.303,0 -1.954,0.682 -2.264,1.612 l -0.93,2.915 -8.62,0 -0.93,-2.884 c -0.31,-0.961 -0.962,-1.643 -2.233,-1.643 -1.24,0 -2.294,0.93 -2.294,2.17 0,0.496 0.155,0.868 0.217,1.024 l 6.232,16.867 z" id="path28" style="fill:#ffffff;fill-opacity:1;fill-rule:nonzero;stroke:none"/></g></g></g></g></svg>
