<?xml version="1.0" encoding="UTF-8" standalone="no"?>
<!-- Created with Inkscape (http://www.inkscape.org/) -->

<svg
   xmlns:svg="http://www.w3.org/2000/svg"
   xmlns="http://www.w3.org/2000/svg"
   version="1.1"
   width="47.5"
   height="47.5"
   id="svg2"
   xml:space="preserve"><defs
     id="defs6"><clipPath
       id="clipPath18"><path
         d="M 0,38 38,38 38,0 0,0 0,38 z"
         id="path20" /></clipPath></defs><g
     transform="matrix(1.25,0,0,-1.25,0,47.5)"
     id="g12"><g
       id="g14"><g
         clip-path="url(#clipPath18)"
         id="g16"><g
           transform="translate(37,5)"
           id="g22"><path
             d="m 0,0 c 0,-2.209 -1.791,-4 -4,-4 l -28,0 c -2.209,0 -4,1.791 -4,4 l 0,28 c 0,2.209 1.791,4 4,4 l 28,0 c 2.209,0 4,-1.791 4,-4 L 0,0 z"
             id="path24"
             style="fill:#226699;fill-opacity:1;fill-rule:nonzero;stroke:none" /></g><g
           transform="translate(17,19)"
           id="g26"><path
             d="m 0,0 3.063,0 c 2.017,0 3.296,1.465 3.296,3.385 0,1.92 -1.279,3.391 -3.296,3.391 L 0,6.776 0,0 z M -5,8.504 C -5,10.008 -4.104,11 -2.504,11 l 5.664,0 c 4.703,0 8.192,-2.944 8.192,-7.52 0,-4.67 -3.618,-7.48 -8,-7.48 L 0,-4 0,-9.479 c 0,-1.599 -1.024,-2.496 -2.4,-2.496 -1.376,0 -2.6,0.897 -2.6,2.496 l 0,17.983 z"
             id="path28"
             style="fill:#ffffff;fill-opacity:1;fill-rule:nonzero;stroke:none" /></g></g></g></g></svg>