<svg xmlns="http://www.w3.org/2000/svg" viewBox="0 0 47.5 47.5" enable-background="new 0 0 47.5 47.5"><defs><clipPath id="a"><path d="M0 38h38V0H0v38z"/></clipPath></defs><g><g><g clip-path="url(#a)" transform="matrix(1.25 0 0 -1.25 0 47.5)"><g><path fill="#be1931" d="M37 5c0-2.2-1.8-4-4-4H5C2.8 1 1 2.8 1 5v28c0 2.2 1.8 4 4 4h28c2.2 0 4-1.8 4-4V5z"/></g><g><path fill="#fff" d="M8.46 16.76h5.32l-2.6 8.12h-.06l-2.66-8.12zm-.3 10.17c.47 1.3 1.56 2.32 3 2.32 1.47 0 2.5-.98 2.98-2.32l5.5-15.23c.16-.45.2-.84.2-1.04 0-1.1-.88-1.85-1.92-1.85-1.17 0-1.76.63-2.04 1.47L15 13H7.28l-.87-2.7c-.27-.87-.85-1.5-2-1.5-1.12 0-2.07.85-2.07 1.97 0 .45.14.8.2.93l5.62 15.23z"/></g><g><path fill="#fff" d="M25.2 13h3.3c1.52 0 2.64.73 2.64 2.3 0 1.3-1 2.1-2.97 2.1H25.2V13zm0 8h2.18c1.38 0 2.27.8 2.27 2.22 0 1.3-1.03 2.08-2.27 2.08H25.2V21zM21 26.9c0 1.34.92 2.1 2.2 2.1h5.4c2.9 0 5.25-1.96 5.25-4.93 0-1.96-.8-3.27-2.6-4.1v-.07c2.38-.34 4.25-2.42 4.25-4.86C35.5 11.1 32.87 9 29 9h-5.76c-1.3 0-2.24.88-2.24 2.2v15.7z"/></g></g></g></g></svg>