<svg xmlns="http://www.w3.org/2000/svg" viewBox="0 0 47.5 47.5" enable-background="new 0 0 47.5 47.5"><defs><clipPath id="a"><path d="M0 38h38V0H0v38z"/></clipPath></defs><g><g><g clip-path="url(#a)" transform="matrix(1.25 0 0 -1.25 0 47.5)"><g><path fill="#3b88c3" d="M37 5c0-2.2-1.8-4-4-4H5C2.8 1 1 2.8 1 5v28c0 2.2 1.8 4 4 4h28c2.2 0 4-1.8 4-4V5z"/></g><g><path fill="#fff" d="M2.53 23.88c0 .85.54 1.32 1.27 1.32.33 0 .85-.25 1.07-.56l5.4-7.2h.03v6.44c0 .85.54 1.32 1.27 1.32s1.28-.47 1.28-1.32v-9.66c0-.85-.55-1.32-1.28-1.32-.32 0-.83.25-1.07.56l-5.4 7.1H5.1v-6.34c0-.85-.55-1.32-1.28-1.32s-1.27.47-1.27 1.32v9.66z"/></g><g><path fill="#fff" d="M13.6 23.62c0 .85.42 1.48 1.32 1.48h4.22c.8 0 1.2-.58 1.2-1.17 0-.58-.4-1.17-1.2-1.17h-3v-2.5h2.8c.82 0 1.23-.56 1.23-1.16 0-.58-.42-1.17-1.24-1.17h-2.8v-2.58h3.16c.8 0 1.2-.58 1.2-1.18 0-.57-.4-1.17-1.2-1.17h-4.4c-.74 0-1.3.5-1.3 1.27v9.35z"/></g><g><path fill="#fff" d="M20.9 23.5c-.05.23-.06.34-.06.58 0 .55.46 1.12 1.2 1.12.82 0 1.2-.47 1.36-1.22l1.45-7.22h.03l2.2 7.44c.2.6.7 1 1.34 1 .63 0 1.14-.4 1.32-1l2.2-7.44H32l1.43 7.22c.15.75.55 1.22 1.36 1.22.74 0 1.2-.57 1.2-1.12 0-.24-.02-.35-.07-.58l-2.16-9.28c-.17-.7-.73-1.32-1.68-1.32-.84 0-1.5.54-1.7 1.24l-1.97 6.56h-.03l-1.97-6.56c-.2-.7-.85-1.24-1.68-1.24-.96 0-1.52.6-1.7 1.32L20.9 23.5z"/></g></g></g></g></svg>