<svg xmlns="http://www.w3.org/2000/svg" viewBox="0 0 47.5 47.5" enable-background="new 0 0 47.5 47.5"><defs><clipPath id="a"><path d="M0 38h38V0H0v38z"/></clipPath></defs><g><g><g clip-path="url(#a)" transform="matrix(1.25 0 0 -1.25 0 47.5)"><g><path fill="#3b88c3" d="M37 5c0-2.2-1.8-4-4-4H5C2.8 1 1 2.8 1 5v28c0 2.2 1.8 4 4 4h28c2.2 0 4-1.8 4-4V5z"/></g><g><path fill="#fff" d="M2.84 24.42c0 .73.5 1.4 1.4 1.4h4.6c.8 0 1.22-.6 1.22-1.24 0-.6-.4-1.25-1.2-1.25H5.53V20.7h2.8c.85 0 1.28-.6 1.28-1.22 0-.63-.43-1.26-1.3-1.26H5.55V14.3c0-.9-.58-1.4-1.35-1.4-.8 0-1.36.5-1.36 1.4v10.12z"/></g><g><path fill="#fff" d="M13.53 20.15h1.85c1 0 1.68.6 1.68 1.6 0 1.03-.7 1.6-1.68 1.6h-1.85v-3.2zm-2.7 4.27c0 .86.48 1.4 1.4 1.4h3.15c2.78 0 4.5-1.24 4.5-4.07 0-1.98-1.5-3.1-3.34-3.4l3.06-3.28c.25-.27.36-.54.36-.8 0-.7-.56-1.38-1.35-1.38-.32 0-.75.12-1.04.46l-4 4.84h-.03v-3.9c0-.9-.58-1.4-1.35-1.4-.78 0-1.35.5-1.35 1.4v10.12z"/></g><g><path fill="#fff" d="M20.48 24.25c0 .9.45 1.57 1.4 1.57h4.47c.86 0 1.27-.6 1.27-1.24 0-.6-.43-1.24-1.27-1.24h-3.17V20.7h2.95c.88 0 1.3-.6 1.3-1.24 0-.6-.44-1.24-1.3-1.24h-2.95v-2.74h3.33c.87 0 1.3-.6 1.3-1.24 0-.6-.45-1.24-1.3-1.24h-4.64c-.8 0-1.38.54-1.38 1.35v9.9z"/></g><g><path fill="#fff" d="M28.45 24.25c0 .9.45 1.57 1.4 1.57h4.47c.86 0 1.28-.6 1.28-1.24 0-.6-.43-1.24-1.28-1.24h-3.17V20.7h2.95c.9 0 1.32-.6 1.32-1.24 0-.6-.45-1.24-1.32-1.24h-2.95v-2.74h3.33c.87 0 1.28-.6 1.28-1.24 0-.6-.43-1.24-1.28-1.24h-4.64c-.8 0-1.4.54-1.4 1.35v9.9z"/></g></g></g></g></svg>