<svg xmlns="http://www.w3.org/2000/svg" viewBox="0 0 47.5 47.5" enable-background="new 0 0 47.5 47.5"><defs><clipPath id="a"><path d="M0 38h38V0H0v38z"/></clipPath></defs><g><g><g clip-path="url(#a)" transform="matrix(1.25 0 0 -1.25 0 47.5)"><g><path fill="#3b88c3" d="M37 5c0-2.2-1.8-4-4-4H5C2.8 1 1 2.8 1 5v28c0 2.2 1.8 4 4 4h28c2.2 0 4-1.8 4-4V5z"/></g><g><path fill="#fff" d="M3.28 25.44c0 1.05.67 1.64 1.58 1.64.9 0 1.57-.6 1.57-1.64V18.1c0-1.92 1.24-3.45 3.23-3.45 1.9 0 3.22 1.6 3.22 3.46v7.34c0 1.05.67 1.64 1.57 1.64s1.58-.6 1.58-1.64v-7.5c0-3.53-2.9-6.2-6.37-6.2-3.5 0-6.38 2.63-6.38 6.2v7.5z"/></g><g><path fill="#fff" d="M20.94 19.73h2.14c1.33 0 2.17.96 2.17 2.22 0 1.26-.84 2.23-2.17 2.23h-2.14v-4.45zM17.8 25.3c0 1 .58 1.65 1.63 1.65h3.72c3.08 0 5.37-2.02 5.37-5.02 0-3.06-2.37-4.97-5.25-4.97h-2.33V13.5c0-1.04-.67-1.63-1.57-1.63s-1.58.6-1.58 1.64v11.8z"/></g><g><path fill="#fff" d="M30.52 25.77c0 .9.65 1.43 1.5 1.43s1.52-.57 1.52-1.43V17.7c0-.87-.67-1.44-1.5-1.44-.87 0-1.52.55-1.52 1.43v8.07zM30.4 13.4c0 .9.73 1.62 1.63 1.62.9 0 1.64-.73 1.64-1.63 0-.92-.74-1.65-1.64-1.65-.9 0-1.64.73-1.64 1.64"/></g></g></g></g></svg>