<?xml version="1.0" encoding="UTF-8" standalone="no"?><svg xmlns:svg="http://www.w3.org/2000/svg" xmlns="http://www.w3.org/2000/svg" version="1.1" viewBox="0 0 47.5 47.5" style="enable-background:new 0 0 47.5 47.5;" id="svg2" xml:space="preserve"><defs id="defs6"><clipPath id="clipPath18"><path d="M 0,38 38,38 38,0 0,0 0,38 z" id="path20"/></clipPath></defs><g transform="matrix(1.25,0,0,-1.25,0,47.5)" id="g12"><g id="g14"><g clip-path="url(#clipPath18)" id="g16"><g transform="translate(37,5)" id="g22"><path d="m 0,0 c 0,-2.209 -1.791,-4 -4,-4 l -28,0 c -2.209,0 -4,1.791 -4,4 l 0,28 c 0,2.209 1.791,4 4,4 l 28,0 c 2.209,0 4,-1.791 4,-4 L 0,0 z" id="path24" style="fill:#3b88c3;fill-opacity:1;fill-rule:nonzero;stroke:none"/></g><g transform="translate(3.2812,25.4375)" id="g26"><path d="M 0,0 C 0,1.05 0.672,1.638 1.575,1.638 2.478,1.638 3.149,1.05 3.149,0 l 0,-7.328 c 0,-1.932 1.239,-3.464 3.234,-3.464 1.91,0 3.212,1.616 3.212,3.464 l 0,7.328 c 0,1.05 0.672,1.638 1.575,1.638 0.903,0 1.575,-0.588 1.575,-1.638 l 0,-7.496 c 0,-3.527 -2.898,-6.193 -6.362,-6.193 C 2.876,-13.689 0,-11.064 0,-7.496 L 0,0 z" id="path28" style="fill:#ffffff;fill-opacity:1;fill-rule:nonzero;stroke:none"/></g><g transform="translate(20.9414,19.7266)" id="g30"><path d="m 0,0 2.142,0 c 1.323,0 2.163,0.966 2.163,2.226 0,1.259 -0.84,2.225 -2.163,2.225 L 0,4.451 0,0 z m -3.149,5.585 c 0,0.987 0.587,1.638 1.637,1.638 l 3.717,0 c 3.086,0 5.375,-2.016 5.375,-5.018 0,-3.066 -2.373,-4.976 -5.25,-4.976 l -2.33,0 0,-3.444 c 0,-1.05 -0.672,-1.638 -1.575,-1.638 -0.903,0 -1.574,0.588 -1.574,1.638 l 0,11.8 z" id="path32" style="fill:#ffffff;fill-opacity:1;fill-rule:nonzero;stroke:none"/></g><g transform="translate(30.5176,25.7734)" id="g34"><path d="M 0,0 C 0,0.882 0.65,1.428 1.512,1.428 2.352,1.428 3.023,0.861 3.023,0 l 0,-8.084 c 0,-0.86 -0.671,-1.428 -1.511,-1.428 C 0.65,-9.512 0,-8.965 0,-8.084 L 0,0 z m -0.127,-12.388 c 0,0.904 0.736,1.638 1.639,1.638 0.902,0 1.636,-0.734 1.636,-1.638 0,-0.903 -0.734,-1.637 -1.636,-1.637 -0.903,0 -1.639,0.734 -1.639,1.637" id="path36" style="fill:#ffffff;fill-opacity:1;fill-rule:nonzero;stroke:none"/></g></g></g></g></svg>
