<svg xmlns="http://www.w3.org/2000/svg" viewBox="0 0 47.5 47.5" enable-background="new 0 0 47.5 47.5"><defs><clipPath id="a"><path d="M0 38h38V0H0v38z"/></clipPath></defs><g><g><g clip-path="url(#a)" transform="matrix(1.25 0 0 -1.25 0 47.5)"><g><path fill="#3b88c3" d="M37 5c0-2.2-1.8-4-4-4H5C2.8 1 1 2.8 1 5v28c0 2.2 1.8 4 4 4h28c2.2 0 4-1.8 4-4V5z"/></g><g><path fill="#fff" d="M15.7 19.54c0 2.9-1.5 5.53-4.5 5.53s-4.52-2.62-4.52-5.53c0-2.92 1.46-5.52 4.5-5.52 3.06 0 4.52 2.6 4.52 5.52m-12.77 0c0 5 3.36 8.84 8.26 8.84 4.8 0 8.25-3.96 8.25-8.84 0-4.96-3.34-8.83-8.26-8.83-4.88 0-8.27 3.88-8.27 8.84"/></g><g><path fill="#fff" d="M20.93 26.46c0 .98.72 1.77 1.8 1.77 1.03 0 1.8-.67 1.8-1.77v-5.2l5.9 6.3c.27.3.73.67 1.4.67.9 0 1.78-.7 1.78-1.72 0-.62-.38-1.12-1.17-1.92l-4.54-4.46 5.54-5.78c.57-.58 1-1.1 1-1.83 0-1.12-.88-1.64-1.87-1.64-.7 0-1.15.4-1.82 1.12l-6.22 6.73V12.6c0-.93-.72-1.72-1.8-1.72-1.03 0-1.8.67-1.8 1.72v13.88z"/></g></g></g></g></svg>