<svg xmlns="http://www.w3.org/2000/svg" viewBox="0 0 47.5 47.5" enable-background="new 0 0 47.5 47.5"><defs><clipPath id="a"><path d="M0 38h38V0H0v38z"/></clipPath></defs><g><g><g clip-path="url(#a)" transform="matrix(1.25 0 0 -1.25 0 47.5)"><g><path fill="#3b88c3" d="M37 5c0-2.2-1.8-4-4-4H5C2.8 1 1 2.8 1 5v28c0 2.2 1.8 4 4 4h28c2.2 0 4-1.8 4-4V5z"/></g><g><path fill="#fff" d="M6.97 24.14c1.02 0 3-.33 3-1.57 0-.5-.34-.94-.86-.94-.56 0-.95.5-2.13.5-1.74 0-2.63-1.48-2.63-3.2 0-1.65.9-3.08 2.63-3.08 1.18 0 1.65.6 2.23.6.63 0 .92-.64.92-.97 0-1.34-2.1-1.65-3.15-1.65-2.84 0-4.82 2.26-4.82 5.16 0 2.9 1.96 5.14 4.82 5.14"/></g><g><path fill="#fff" d="M17.32 19c0 1.68-.9 3.2-2.64 3.2-1.75 0-2.63-1.52-2.63-3.2 0-1.72.85-3.24 2.63-3.24 1.78 0 2.64 1.52 2.64 3.23m-7.46 0c0 2.9 1.97 5.14 4.82 5.14 2.82 0 4.82-2.3 4.82-5.15 0-2.9-1.95-5.17-4.82-5.17-2.84 0-4.82 2.26-4.82 5.16"/></g><g><path fill="#fff" d="M27.43 19c0 1.68-.9 3.2-2.64 3.2-1.76 0-2.64-1.52-2.64-3.2 0-1.72.85-3.24 2.63-3.24 1.77 0 2.63 1.52 2.63 3.23m-7.46 0c0 2.9 1.96 5.14 4.82 5.14 2.8 0 4.8-2.3 4.8-5.15 0-2.9-1.94-5.17-4.8-5.17-2.85 0-4.83 2.26-4.83 5.16"/></g><g><path fill="#fff" d="M30.2 22.96c0 .7.44 1.1 1.04 1.1.6 0 1.06-.4 1.06-1.1v-7.03h2.5c.7 0 1-.53 1-1-.03-.47-.4-.93-1-.93h-3.5c-.7 0-1.1.45-1.1 1.15v7.8z"/></g></g></g></g></svg>