<?xml version="1.0" encoding="UTF-8" standalone="no"?><svg xmlns:svg="http://www.w3.org/2000/svg" xmlns="http://www.w3.org/2000/svg" version="1.1" viewBox="0 0 47.5 47.5" style="enable-background:new 0 0 47.5 47.5;" id="svg2" xml:space="preserve"><defs id="defs6"><clipPath id="clipPath18"><path d="M 0,38 38,38 38,0 0,0 0,38 z" id="path20"/></clipPath></defs><g transform="matrix(1.25,0,0,-1.25,0,47.5)" id="g12"><g id="g14"><g clip-path="url(#clipPath18)" id="g16"><g transform="translate(37,5)" id="g22"><path d="m 0,0 c 0,-2.209 -1.791,-4 -4,-4 l -28,0 c -2.209,0 -4,1.791 -4,4 l 0,28 c 0,2.209 1.791,4 4,4 l 28,0 c 2.209,0 4,-1.791 4,-4 L 0,0 z" id="path24" style="fill:#3b88c3;fill-opacity:1;fill-rule:nonzero;stroke:none"/></g><g transform="translate(6.9697,24.1416)" id="g26"><path d="m 0,0 c 1.022,0 3.012,-0.336 3.012,-1.569 0,-0.504 -0.35,-0.939 -0.869,-0.939 -0.574,0 -0.966,0.49 -2.143,0.49 -1.737,0 -2.633,-1.47 -2.633,-3.179 0,-1.667 0.91,-3.096 2.633,-3.096 1.177,0 1.653,0.589 2.227,0.589 0.63,0 0.925,-0.631 0.925,-0.953 0,-1.345 -2.115,-1.653 -3.152,-1.653 -2.843,0 -4.818,2.255 -4.818,5.155 C -4.818,-2.241 -2.857,0 0,0" id="path28" style="fill:#ffffff;fill-opacity:1;fill-rule:nonzero;stroke:none"/></g><g transform="translate(17.3169,18.9863)" id="g30"><path d="m 0,0 c 0,1.695 -0.882,3.222 -2.633,3.222 -1.751,0 -2.634,-1.527 -2.634,-3.222 0,-1.709 0.855,-3.222 2.634,-3.222 C -0.854,-3.222 0,-1.709 0,0 m -7.452,0 c 0,2.914 1.961,5.155 4.819,5.155 2.815,0 4.819,-2.311 4.819,-5.155 0,-2.899 -1.948,-5.154 -4.819,-5.154 -2.844,0 -4.819,2.255 -4.819,5.154" id="path32" style="fill:#ffffff;fill-opacity:1;fill-rule:nonzero;stroke:none"/></g><g transform="translate(27.4258,18.9863)" id="g34"><path d="m 0,0 c 0,1.695 -0.883,3.222 -2.635,3.222 -1.75,0 -2.633,-1.527 -2.633,-3.222 0,-1.709 0.855,-3.222 2.633,-3.222 C -0.855,-3.222 0,-1.709 0,0 m -7.453,0 c 0,2.914 1.961,5.155 4.818,5.155 2.817,0 4.819,-2.311 4.819,-5.155 0,-2.899 -1.946,-5.154 -4.819,-5.154 -2.843,0 -4.818,2.255 -4.818,5.154" id="path36" style="fill:#ffffff;fill-opacity:1;fill-rule:nonzero;stroke:none"/></g><g transform="translate(30.1934,22.9648)" id="g38"><path d="M 0,0 C 0,0.7 0.447,1.093 1.051,1.093 1.652,1.093 2.102,0.7 2.102,0 l 0,-7.032 2.492,0 c 0.715,0 1.023,-0.532 1.01,-1.008 -0.03,-0.463 -0.393,-0.925 -1.01,-0.925 l -3.502,0 C 0.406,-8.965 0,-8.517 0,-7.816 L 0,0 z" id="path40" style="fill:#ffffff;fill-opacity:1;fill-rule:nonzero;stroke:none"/></g></g></g></g></svg>
