<?xml version="1.0" encoding="UTF-8" standalone="no"?>
<!-- Created with Inkscape (http://www.inkscape.org/) -->

<svg
   xmlns:svg="http://www.w3.org/2000/svg"
   xmlns="http://www.w3.org/2000/svg"
   version="1.1"
   width="47.5"
   height="47.5"
   id="svg2"
   xml:space="preserve"><defs
     id="defs6"><clipPath
       id="clipPath18"><path
         d="M 0,38 38,38 38,0 0,0 0,38 z"
         id="path20" /></clipPath></defs><g
     transform="matrix(1.25,0,0,-1.25,0,47.5)"
     id="g12"><g
       id="g14"><g
         clip-path="url(#clipPath18)"
         id="g16"><g
           transform="translate(37,5)"
           id="g22"><path
             d="m 0,0 c 0,-4 -4,-4 -4,-4 l -28,0 c -4,0 -4,4 -4,4 l 0,28 c 0,4 4,4 4,4 l 28,0 c 0,0 4,0 4,-4 L 0,0 z"
             id="path24"
             style="fill:#f4900c;fill-opacity:1;fill-rule:nonzero;stroke:none" /></g><g
           transform="translate(2.5005,26.5898)"
           id="g26"><path
             d="m 0,0 c -0.15,0.39 -0.21,0.69 -0.21,1.11 0,1.26 1.109,2.16 2.311,2.16 C 3.12,3.27 3.75,2.61 4.14,1.8 L 8.79,-10.679 13.439,1.8 c 0.391,0.81 1.021,1.47 2.04,1.47 1.201,0 2.31,-0.9 2.31,-2.16 C 17.789,0.69 17.73,0.39 17.58,0 l -6.57,-16.71 c -0.39,-0.959 -0.9,-1.738 -2.22,-1.738 -1.32,0 -1.83,0.779 -2.221,1.738 L 0,0 z"
             id="path28"
             style="fill:#ffffff;fill-opacity:1;fill-rule:nonzero;stroke:none" /></g><g
           transform="translate(34.1504,27.04)"
           id="g30"><path
             d="m 0,0 c 0,-1.17 -0.781,-2.22 -2.01,-2.22 -1.23,0 -2.191,0.9 -3.99,0.9 -1.291,0 -2.461,-0.69 -2.461,-1.95 0,-3.089 10.02,-1.11 10.02,-8.849 0,-4.291 -3.539,-6.961 -7.68,-6.961 -2.309,0 -7.289,0.541 -7.289,3.361 0,1.17 0.779,2.129 2.01,2.129 1.41,0 3.089,-1.17 5.041,-1.17 1.978,0 3.058,1.11 3.058,2.58 0,3.541 -10.019,1.41 -10.019,8.369 C -13.32,0.391 -9.871,3 -5.881,3 -4.201,3 0,2.37 0,0"
             id="path32"
             style="fill:#ffffff;fill-opacity:1;fill-rule:nonzero;stroke:none" /></g></g></g></g></svg>