<?xml version="1.0" encoding="UTF-8" standalone="no"?><svg xmlns:dc="http://purl.org/dc/elements/1.1/" xmlns:cc="http://creativecommons.org/ns#" xmlns:rdf="http://www.w3.org/1999/02/22-rdf-syntax-ns#" xmlns:svg="http://www.w3.org/2000/svg" xmlns="http://www.w3.org/2000/svg" viewBox="0 0 47.5 47.5" style="enable-background:new 0 0 47.5 47.5;" xml:space="preserve" version="1.1" id="svg2"><metadata id="metadata8"><rdf:RDF><cc:Work rdf:about=""><dc:format>image/svg+xml</dc:format><dc:type rdf:resource="http://purl.org/dc/dcmitype/StillImage"/></cc:Work></rdf:RDF></metadata><defs id="defs6"><clipPath id="clipPath16" clipPathUnits="userSpaceOnUse"><path id="path18" d="M 0,38 38,38 38,0 0,0 0,38 Z"/></clipPath></defs><g transform="matrix(1.25,0,0,-1.25,0,47.5)" id="g10"><g id="g12"><g clip-path="url(#clipPath16)" id="g14"><g transform="translate(37,5)" id="g20"><path id="path22" style="fill:#3b88c3;fill-opacity:1;fill-rule:nonzero;stroke:none" d="m 0,0 c 0,-2.209 -1.791,-4 -4,-4 l -28,0 c -2.209,0 -4,1.791 -4,4 l 0,28 c 0,2.209 1.791,4 4,4 l 28,0 c 2.209,0 4,-1.791 4,-4 L 0,0 Z"/></g><g transform="translate(2.8364,24.4155)" id="g24"><path id="path26" style="fill:#ffffff;fill-opacity:1;fill-rule:nonzero;stroke:none" d="m 0,0 c 0,0.738 0.504,1.404 1.405,1.404 l 4.609,0 c 0.792,0 1.206,-0.612 1.206,-1.242 0,-0.612 -0.396,-1.243 -1.206,-1.243 l -3.313,0 0,-2.628 2.791,0 c 0.864,0 1.296,-0.613 1.296,-1.224 0,-0.631 -0.432,-1.261 -1.296,-1.261 l -2.791,0 0,-3.925 c 0,-0.9 -0.576,-1.405 -1.35,-1.405 -0.775,0 -1.351,0.505 -1.351,1.405 L 0,0 Z"/></g><g transform="translate(13.5293,20.1484)" id="g28"><path id="path30" style="fill:#ffffff;fill-opacity:1;fill-rule:nonzero;stroke:none" d="m 0,0 1.854,0 c 0.991,0 1.675,0.594 1.675,1.603 0,1.025 -0.684,1.584 -1.675,1.584 L 0,3.187 0,0 Z m -2.701,4.267 c 0,0.864 0.486,1.404 1.387,1.404 l 3.168,0 c 2.773,0 4.484,-1.242 4.484,-4.068 0,-1.982 -1.495,-3.116 -3.331,-3.404 l 3.061,-3.277 c 0.252,-0.27 0.36,-0.54 0.36,-0.792 0,-0.702 -0.558,-1.387 -1.351,-1.387 -0.324,0 -0.756,0.126 -1.044,0.469 l -3.997,4.843 -0.036,0 0,-3.907 c 0,-0.9 -0.576,-1.405 -1.351,-1.405 -0.774,0 -1.35,0.505 -1.35,1.405 l 0,10.119 z"/></g><g transform="translate(20.4766,24.2534)" id="g32"><path id="path34" style="fill:#ffffff;fill-opacity:1;fill-rule:nonzero;stroke:none" d="m 0,0 c 0,0.9 0.449,1.566 1.404,1.566 l 4.465,0 c 0.865,0 1.279,-0.612 1.279,-1.242 0,-0.612 -0.433,-1.242 -1.279,-1.242 l -3.168,0 0,-2.629 2.952,0 c 0.882,0 1.314,-0.613 1.314,-1.243 0,-0.612 -0.449,-1.242 -1.314,-1.242 l -2.952,0 0,-2.737 3.33,0 c 0.865,0 1.28,-0.611 1.28,-1.242 0,-0.613 -0.434,-1.242 -1.28,-1.242 l -4.644,0 C 0.594,-11.253 0,-10.713 0,-9.903 L 0,0 Z"/></g><g transform="translate(28.4512,24.2534)" id="g36"><path id="path38" style="fill:#ffffff;fill-opacity:1;fill-rule:nonzero;stroke:none" d="m 0,0 c 0,0.9 0.449,1.566 1.404,1.566 l 4.465,0 c 0.863,0 1.277,-0.612 1.277,-1.242 0,-0.612 -0.431,-1.242 -1.277,-1.242 l -3.17,0 0,-2.629 2.953,0 c 0.883,0 1.315,-0.613 1.315,-1.243 0,-0.612 -0.449,-1.242 -1.315,-1.242 l -2.953,0 0,-2.737 3.332,0 c 0.864,0 1.278,-0.611 1.278,-1.242 0,-0.613 -0.432,-1.242 -1.278,-1.242 l -4.646,0 C 0.594,-11.253 0,-10.713 0,-9.903 L 0,0 Z"/></g></g></g></g></svg>
