<?xml version="1.0" encoding="UTF-8" standalone="no"?><svg xmlns:svg="http://www.w3.org/2000/svg" xmlns="http://www.w3.org/2000/svg" version="1.1" viewBox="0 0 47.5 47.5" style="enable-background:new 0 0 47.5 47.5;" id="svg2" xml:space="preserve"><defs id="defs6"><clipPath id="clipPath18"><path d="M 0,38 38,38 38,0 0,0 0,38 z" id="path20"/></clipPath></defs><g transform="matrix(1.25,0,0,-1.25,0,47.5)" id="g12"><g id="g14"><g clip-path="url(#clipPath18)" id="g16"><g transform="translate(37,5)" id="g22"><path d="m 0,0 c 0,-2.209 -1.791,-4 -4,-4 l -28,0 c -2.209,0 -4,1.791 -4,4 l 0,28 c 0,2.209 1.791,4 4,4 l 28,0 c 2.209,0 4,-1.791 4,-4 L 0,0 z" id="path24" style="fill:#3b88c3;fill-opacity:1;fill-rule:nonzero;stroke:none"/></g><g transform="translate(3.5083,26.3613)" id="g26"><path d="m 0,0 c 0,1.2 0.768,1.872 1.8,1.872 0.456,0 1.2,-0.36 1.513,-0.792 l 7.608,-10.153 0.048,0 0,9.073 c 0,1.2 0.768,1.872 1.8,1.872 1.032,0 1.8,-0.672 1.8,-1.872 l 0,-13.633 c 0,-1.2 -0.768,-1.872 -1.8,-1.872 -0.456,0 -1.176,0.359 -1.512,0.792 l -7.609,10.033 -0.047,0 0,-8.953 c 0,-1.2 -0.768,-1.872 -1.801,-1.872 -1.032,0 -1.8,0.672 -1.8,1.872 L 0,0 z" id="path28" style="fill:#ffffff;fill-opacity:1;fill-rule:nonzero;stroke:none"/></g><g transform="translate(32.9102,21.1289)" id="g30"><path d="m 0,0 c 1.512,0 2.111,-0.768 2.111,-2.305 0,-4.632 -3.023,-8.112 -7.824,-8.112 -4.873,0 -8.257,3.864 -8.257,8.833 0,4.992 3.361,8.833 8.257,8.833 3.623,0 6.6,-1.705 6.6,-3.385 0,-1.032 -0.647,-1.68 -1.489,-1.68 -1.63,0 -1.966,1.753 -5.111,1.753 -3,0 -4.513,-2.617 -4.513,-5.521 0,-2.929 1.464,-5.52 4.513,-5.52 1.897,0 4.08,1.055 4.08,3.791 l -2.447,0 c -0.984,0 -1.682,0.697 -1.682,1.681 0,1.008 0.77,1.632 1.682,1.632 L 0,0 z" id="path32" style="fill:#ffffff;fill-opacity:1;fill-rule:nonzero;stroke:none"/></g></g></g></g></svg>
