<svg xmlns="http://www.w3.org/2000/svg" viewBox="0 0 47.5 47.5" enable-background="new 0 0 47.5 47.5"><defs><clipPath id="a"><path d="M0 38h38V0H0v38z"/></clipPath></defs><g><g><g clip-path="url(#a)" transform="matrix(1.25 0 0 -1.25 0 47.5)"><g><path fill="#3b88c3" d="M37 5c0-2.2-1.8-4-4-4H5C2.8 1 1 2.8 1 5v28c0 2.2 1.8 4 4 4h28c2.2 0 4-1.8 4-4V5z"/></g><g><path fill="#fff" d="M16.1 16.62h5.88l-2.88 9h-.07l-2.94-9zm-.35 11.26c.52 1.42 1.73 2.57 3.3 2.57 1.66 0 2.8-1.1 3.33-2.57L28.46 11c.18-.5.25-.92.25-1.14 0-1.2-1-2.05-2.13-2.05-1.3 0-1.96.7-2.27 1.63l-.93 2.9h-8.62l-.93-2.87c-.3-.96-.96-1.65-2.23-1.65-1.25 0-2.3.94-2.3 2.18 0 .5.15.87.2 1.03l6.25 16.88z"/></g></g></g></g></svg>