<svg xmlns="http://www.w3.org/2000/svg" viewBox="0 0 47.5 47.5" enable-background="new 0 0 47.5 47.5"><defs><clipPath id="a"><path d="M0 38h38V0H0v38z"/></clipPath></defs><g><g><g clip-path="url(#a)" transform="matrix(1.25 0 0 -1.25 0 47.5)"><g><path fill="#3b88c3" d="M37 5c0-2.2-1.8-4-4-4H5C2.8 1 1 2.8 1 5v28c0 2.2 1.8 4 4 4h28c2.2 0 4-1.8 4-4V5z"/></g><g><path fill="#fff" d="M24.1 14.2c0-5.2-3.32-6.57-6.14-6.57-2.14 0-5.7.84-5.7 3.53 0 .84.7 1.9 1.73 1.9 1.23 0 2.32-1.15 3.7-1.15 1.75 0 1.75 1.62 1.75 2.6v13.34c0 1.55 1 2.42 2.33 2.42s2.32-.87 2.32-2.42V14.2z"/></g></g></g></g></svg>