<svg xmlns="http://www.w3.org/2000/svg" viewBox="0 0 47.5 47.5" enable-background="new 0 0 47.5 47.5"><defs><clipPath id="a"><path d="M0 38h38V0H0v38z"/></clipPath></defs><g><g><g clip-path="url(#a)" transform="matrix(1.25 0 0 -1.25 0 47.5)"><g><path fill="#dd2e44" d="M37 10c0-2.2-1.8-4-4-4H5c-2.2 0-4 1.8-4 4v18c0 2.2 1.8 4 4 4h28c2.2 0 4-1.8 4-4V10z"/></g><g><path fill="#ffd983" d="M8 26.05l.93-2.67 2.83-.06-2.26-1.7.82-2.7L8 20.5l-2.32-1.6.82 2.7-2.25 1.7 2.82.06.93 2.67z"/></g><g><path fill="#ffd983" d="M14 29.47l.34-.7.76-.1-.55-.53.13-.76-.68.36-.68-.36.13.76-.55.53.76.1.34.7z"/></g><g><path fill="#ffd983" d="M16 25.47l.34-.7.76-.1-.55-.53.13-.76-.68.36-.68-.36.13.76-.55.53.76.1.34.7z"/></g><g><path fill="#ffd983" d="M16 21.47l.34-.7.76-.1-.55-.53.13-.76-.68.36-.68-.36.13.76-.55.53.76.1.34.7z"/></g><g><path fill="#ffd983" d="M14 17.47l.34-.7.76-.1-.55-.53.13-.76-.68.36-.68-.36.13.76-.55.53.76.1.34.7z"/></g></g></g></g></svg>