<?xml version="1.0" encoding="UTF-8" standalone="no"?><svg xmlns:dc="http://purl.org/dc/elements/1.1/" xmlns:cc="http://creativecommons.org/ns#" xmlns:rdf="http://www.w3.org/1999/02/22-rdf-syntax-ns#" xmlns:svg="http://www.w3.org/2000/svg" xmlns="http://www.w3.org/2000/svg" viewBox="0 0 47.5 47.5" style="enable-background:new 0 0 47.5 47.5;" xml:space="preserve" version="1.1" id="svg2"><metadata id="metadata8"><rdf:RDF><cc:Work rdf:about=""><dc:format>image/svg+xml</dc:format><dc:type rdf:resource="http://purl.org/dc/dcmitype/StillImage"/></cc:Work></rdf:RDF></metadata><defs id="defs6"><clipPath id="clipPath16" clipPathUnits="userSpaceOnUse"><path id="path18" d="M 0,38 38,38 38,0 0,0 0,38 Z"/></clipPath></defs><g transform="matrix(1.25,0,0,-1.25,0,47.5)" id="g10"><g id="g12"><g clip-path="url(#clipPath16)" id="g14"><g transform="translate(37,10)" id="g20"><path id="path22" style="fill:#dd2e44;fill-opacity:1;fill-rule:nonzero;stroke:none" d="m 0,0 c 0,-2.209 -1.791,-4 -4,-4 l -28,0 c -2.209,0 -4,1.791 -4,4 l 0,18 c 0,2.209 1.791,4 4,4 l 28,0 c 2.209,0 4,-1.791 4,-4 L 0,0 Z"/></g><path id="path24" style="fill:#ffcc4d;fill-opacity:1;fill-rule:nonzero;stroke:none" d="M 37,13 1,13 1,25 37,25 37,13 Z"/><g transform="translate(10,20)" id="g26"><path id="path28" style="fill:#ea596e;fill-opacity:1;fill-rule:nonzero;stroke:none" d="m 0,0 0,-3 c 0,-1.657 1.343,-3 3,-3 1.657,0 3,1.343 3,3 L 6,0 0,0 Z"/></g><path id="path30" style="fill:#f4a2b2;fill-opacity:1;fill-rule:nonzero;stroke:none" d="m 13,18 3,0 0,3 -3,0 0,-3 z"/><path id="path32" style="fill:#dd2e44;fill-opacity:1;fill-rule:nonzero;stroke:none" d="m 13,18 -3,0 0,3 3,0 0,-3 z"/><g transform="translate(16,22.5)" id="g34"><path id="path36" style="fill:#ea596e;fill-opacity:1;fill-rule:nonzero;stroke:none" d="m 0,0 c 0,-0.829 -1.343,-1.5 -3,-1.5 -1.657,0 -3,0.671 -3,1.5 0,0.829 1.343,1.5 3,1.5 1.657,0 3,-0.671 3,-1.5"/></g><g transform="translate(16,23.25)" id="g38"><path id="path40" style="fill:#ffac33;fill-opacity:1;fill-rule:nonzero;stroke:none" d="m 0,0 c 0,0.414 -1.343,0.75 -3,0.75 -1.657,0 -3,-0.336 -3,-0.75 0,-0.414 1.343,-0.75 3,-0.75 1.657,0 3,0.336 3,0.75"/></g><path id="path42" style="fill:#99aab5;fill-opacity:1;fill-rule:nonzero;stroke:none" d="m 8,14 1,0 0,7 -1,0 0,-7 z"/><path id="path44" style="fill:#99aab5;fill-opacity:1;fill-rule:nonzero;stroke:none" d="m 18,14 -1,0 0,7 1,0 0,-7 z"/><path id="path46" style="fill:#66757f;fill-opacity:1;fill-rule:nonzero;stroke:none" d="m 10,14 -3,0 0,1 3,0 0,-1 z"/><path id="path48" style="fill:#66757f;fill-opacity:1;fill-rule:nonzero;stroke:none" d="m 19,14 -3,0 0,1 3,0 0,-1 z"/><path id="path50" style="fill:#66757f;fill-opacity:1;fill-rule:nonzero;stroke:none" d="m 9,21 -1,0 0,1 1,0 0,-1 z"/><path id="path52" style="fill:#66757f;fill-opacity:1;fill-rule:nonzero;stroke:none" d="m 18,21 -1,0 0,1 1,0 0,-1 z"/></g></g></g></svg>
