<?xml version="1.0" encoding="UTF-8" standalone="no"?><svg xmlns:svg="http://www.w3.org/2000/svg" xmlns="http://www.w3.org/2000/svg" version="1.1" viewBox="0 0 47.5 47.5" style="enable-background:new 0 0 47.5 47.5;" id="svg2" xml:space="preserve"><defs id="defs6"><clipPath id="clipPath18"><path d="M 0,38 38,38 38,0 0,0 0,38 z" id="path20"/></clipPath></defs><g transform="matrix(1.25,0,0,-1.25,0,47.5)" id="g12"><g id="g14"><g clip-path="url(#clipPath18)" id="g16"><g transform="translate(37,5)" id="g22"><path d="m 0,0 c 0,-2.209 -1.791,-4 -4,-4 l -28,0 c -2.209,0 -4,1.791 -4,4 l 0,28 c 0,2.209 1.791,4 4,4 l 28,0 c 2.209,0 4,-1.791 4,-4 L 0,0 z" id="path24" style="fill:#3b88c3;fill-opacity:1;fill-rule:nonzero;stroke:none"/></g><g transform="translate(26.6602,21.0845)" id="g26"><path d="m 0,0 c 1.953,0 2.729,-0.992 2.729,-2.977 0,-5.983 -3.907,-10.48 -10.108,-10.48 -6.294,0 -10.666,4.993 -10.666,11.411 0,6.449 4.34,11.41 10.666,11.41 4.682,0 8.525,-2.201 8.525,-4.372 0,-1.333 -0.835,-2.17 -1.921,-2.17 -2.108,0 -2.542,2.263 -6.604,2.263 -3.876,0 -5.829,-3.379 -5.829,-7.131 0,-3.783 1.891,-7.132 5.829,-7.132 2.449,0 5.272,1.365 5.272,4.899 l -3.164,0 c -1.271,0 -2.17,0.9 -2.17,2.171 0,1.302 0.992,2.108 2.17,2.108 L 0,0 z" id="path28" style="fill:#ffffff;fill-opacity:1;fill-rule:nonzero;stroke:none"/></g></g></g></g></svg>
