<svg xmlns="http://www.w3.org/2000/svg" viewBox="0 0 47.5 47.5" enable-background="new 0 0 47.5 47.5"><defs><clipPath id="a"><path d="M0 38h38V0H0v38z"/></clipPath></defs><g><g><g clip-path="url(#a)" transform="matrix(1.25 0 0 -1.25 0 47.5)"><g><path fill="#3b88c3" d="M37 5c0-2.2-1.8-4-4-4H5C2.8 1 1 2.8 1 5v28c0 2.2 1.8 4 4 4h28c2.2 0 4-1.8 4-4V5z"/></g><g><path fill="#fff" d="M13.5 27.66c0 1.27.88 2.42 2.43 2.42h7.94c1.36 0 2.08-1.06 2.08-2.14 0-1.06-.7-2.14-2.08-2.14h-5.7v-4.53h4.8c1.5 0 2.23-1.05 2.23-2.1 0-1.1-.74-2.18-2.23-2.18h-4.8v-6.77c0-1.55-1-2.42-2.33-2.42s-2.33.88-2.33 2.43v17.43z"/></g></g></g></g></svg>