<svg xmlns="http://www.w3.org/2000/svg" viewBox="0 0 47.5 47.5" enable-background="new 0 0 47.5 47.5"><defs><clipPath id="a"><path d="M0 38h38V0H0v38z"/></clipPath></defs><g><g><g clip-path="url(#a)" transform="matrix(1.25 0 0 -1.25 0 47.5)"><g><path fill="#3b88c3" d="M37 5c0-2.2-1.8-4-4-4H5C2.8 1 1 2.8 1 5v28c0 2.2 1.8 4 4 4h28c2.2 0 4-1.8 4-4V5z"/></g><g><path fill="#fff" d="M26.5 30c-1.38 0-2.5-1.12-2.5-2.5V22H14v5.5c0 1.38-1.12 2.5-2.5 2.5S9 28.88 9 27.5v-17C9 9.12 10.12 8 11.5 8S14 9.12 14 10.5V17h10v-6.5C24 9.12 25.12 8 26.5 8S29 9.12 29 10.5v17c0 1.38-1.12 2.5-2.5 2.5"/></g></g></g></g></svg>