<?xml version="1.0" encoding="UTF-8" standalone="no"?><svg xmlns:svg="http://www.w3.org/2000/svg" xmlns="http://www.w3.org/2000/svg" version="1.1" viewBox="0 0 47.5 47.5" style="enable-background:new 0 0 47.5 47.5;" id="svg2" xml:space="preserve"><defs id="defs6"><clipPath id="clipPath18"><path d="M 0,38 38,38 38,0 0,0 0,38 z" id="path20"/></clipPath></defs><g transform="matrix(1.25,0,0,-1.25,0,47.5)" id="g12"><g id="g14"><g clip-path="url(#clipPath18)" id="g16"><g transform="translate(37,5)" id="g22"><path d="m 0,0 c 0,-2.209 -1.791,-4 -4,-4 l -28,0 c -2.209,0 -4,1.791 -4,4 l 0,28 c 0,2.209 1.791,4 4,4 l 28,0 c 2.209,0 4,-1.791 4,-4 L 0,0 z" id="path24" style="fill:#3b88c3;fill-opacity:1;fill-rule:nonzero;stroke:none"/></g><g transform="translate(13.5132,27.6577)" id="g26"><path d="m 0,0 c 0,1.271 0.868,2.418 2.419,2.418 l 7.937,0 c 1.365,0 2.078,-1.054 2.078,-2.139 0,-1.054 -0.683,-2.139 -2.078,-2.139 l -5.705,0 0,-4.527 4.807,0 c 1.488,0 2.232,-1.054 2.232,-2.109 0,-1.085 -0.744,-2.17 -2.232,-2.17 l -4.807,0 0,-6.759 c 0,-1.551 -0.992,-2.418 -2.325,-2.418 -1.334,0 -2.326,0.867 -2.326,2.418 L 0,0 z" id="path28" style="fill:#ffffff;fill-opacity:1;fill-rule:nonzero;stroke:none"/></g></g></g></g></svg>
