<?xml version="1.0" encoding="UTF-8" standalone="no"?><svg xmlns:dc="http://purl.org/dc/elements/1.1/" xmlns:cc="http://creativecommons.org/ns#" xmlns:rdf="http://www.w3.org/1999/02/22-rdf-syntax-ns#" xmlns:svg="http://www.w3.org/2000/svg" xmlns="http://www.w3.org/2000/svg" viewBox="0 0 47.5 47.5" style="enable-background:new 0 0 47.5 47.5;" xml:space="preserve" version="1.1" id="svg2"><metadata id="metadata8"><rdf:RDF><cc:Work rdf:about=""><dc:format>image/svg+xml</dc:format><dc:type rdf:resource="http://purl.org/dc/dcmitype/StillImage"/></cc:Work></rdf:RDF></metadata><defs id="defs6"><clipPath id="clipPath16" clipPathUnits="userSpaceOnUse"><path id="path18" d="M 0,38 38,38 38,0 0,0 0,38 Z"/></clipPath></defs><g transform="matrix(1.25,0,0,-1.25,0,47.5)" id="g10"><g id="g12"><g clip-path="url(#clipPath16)" id="g14"><g transform="translate(37,10)" id="g20"><path id="path22" style="fill:#dd2e44;fill-opacity:1;fill-rule:nonzero;stroke:none" d="m 0,0 c 0,-2.209 -1.791,-4 -4,-4 l -28,0 c -2.209,0 -4,1.791 -4,4 l 0,18 c 0,2.209 1.791,4 4,4 l 28,0 c 2.209,0 4,-1.791 4,-4 L 0,0 Z"/></g><g transform="translate(8,26.0488)" id="g24"><path id="path26" style="fill:#ffd983;fill-opacity:1;fill-rule:nonzero;stroke:none" d="M 0,0 0.929,-2.67 3.755,-2.729 1.502,-4.437 2.321,-7.143 0,-5.528 -2.321,-7.143 -1.502,-4.437 -3.755,-2.729 -0.929,-2.67 0,0 Z"/></g><g transform="translate(14,29.4722)" id="g28"><path id="path30" style="fill:#ffd983;fill-opacity:1;fill-rule:nonzero;stroke:none" d="M 0,0 0.34,-0.688 1.099,-0.798 0.55,-1.334 0.679,-2.09 0,-1.733 -0.679,-2.09 l 0.13,0.756 -0.55,0.536 0.76,0.11 L 0,0 Z"/></g><g transform="translate(16,25.4722)" id="g32"><path id="path34" style="fill:#ffd983;fill-opacity:1;fill-rule:nonzero;stroke:none" d="M 0,0 0.34,-0.688 1.099,-0.798 0.55,-1.334 0.679,-2.09 0,-1.733 -0.679,-2.09 l 0.13,0.756 -0.55,0.536 0.76,0.11 L 0,0 Z"/></g><g transform="translate(16,21.4722)" id="g36"><path id="path38" style="fill:#ffd983;fill-opacity:1;fill-rule:nonzero;stroke:none" d="M 0,0 0.34,-0.688 1.099,-0.798 0.55,-1.334 0.679,-2.09 0,-1.733 -0.679,-2.09 l 0.13,0.756 -0.55,0.536 0.76,0.11 L 0,0 Z"/></g><g transform="translate(14,17.4727)" id="g40"><path id="path42" style="fill:#ffd983;fill-opacity:1;fill-rule:nonzero;stroke:none" d="M 0,0 0.34,-0.688 1.099,-0.799 0.55,-1.334 0.679,-2.091 0,-1.734 l -0.679,-0.357 0.13,0.757 -0.55,0.535 0.76,0.111 L 0,0 Z"/></g></g></g></g></svg>
