<?xml version="1.0" encoding="UTF-8" standalone="no"?><svg xmlns:svg="http://www.w3.org/2000/svg" xmlns="http://www.w3.org/2000/svg" version="1.1" viewBox="0 0 47.5 47.5" style="enable-background:new 0 0 47.5 47.5;" id="svg2" xml:space="preserve"><defs id="defs6"><clipPath id="clipPath18"><path d="M 0,38 38,38 38,0 0,0 0,38 z" id="path20"/></clipPath></defs><g transform="matrix(1.25,0,0,-1.25,0,47.5)" id="g12"><g id="g14"><g clip-path="url(#clipPath18)" id="g16"><g transform="translate(37,10)" id="g22"><path d="m 0,0 c 0,-2.209 -1.791,-4 -4,-4 l -28,0 c -2.209,0 -4,1.791 -4,4 l 0,18 c 0,2.209 1.791,4 4,4 l 28,0 c 2.209,0 4,-1.791 4,-4 L 0,0 z" id="path24" style="fill:#dd2e44;fill-opacity:1;fill-rule:nonzero;stroke:none"/></g><path d="M 37,13 1,13 1,25 37,25 37,13 z" id="path26" style="fill:#ffcc4d;fill-opacity:1;fill-rule:nonzero;stroke:none"/><g transform="translate(10,20)" id="g28"><path d="m 0,0 0,-3 c 0,-1.657 1.343,-3 3,-3 1.657,0 3,1.343 3,3 L 6,0 0,0 z" id="path30" style="fill:#ea596e;fill-opacity:1;fill-rule:nonzero;stroke:none"/></g><path d="m 13,18 3,0 0,3 -3,0 0,-3 z" id="path32" style="fill:#f4a2b2;fill-opacity:1;fill-rule:nonzero;stroke:none"/><path d="m 13,18 -3,0 0,3 3,0 0,-3 z" id="path34" style="fill:#dd2e44;fill-opacity:1;fill-rule:nonzero;stroke:none"/><g transform="translate(16,22.5)" id="g36"><path d="m 0,0 c 0,-0.829 -1.343,-1.5 -3,-1.5 -1.657,0 -3,0.671 -3,1.5 0,0.829 1.343,1.5 3,1.5 1.657,0 3,-0.671 3,-1.5" id="path38" style="fill:#ea596e;fill-opacity:1;fill-rule:nonzero;stroke:none"/></g><g transform="translate(16,23.25)" id="g40"><path d="m 0,0 c 0,0.414 -1.343,0.75 -3,0.75 -1.657,0 -3,-0.336 -3,-0.75 0,-0.414 1.343,-0.75 3,-0.75 1.657,0 3,0.336 3,0.75" id="path42" style="fill:#ffac33;fill-opacity:1;fill-rule:nonzero;stroke:none"/></g><path d="m 8,14 1,0 0,7 -1,0 0,-7 z" id="path44" style="fill:#99aab5;fill-opacity:1;fill-rule:nonzero;stroke:none"/><path d="m 18,14 -1,0 0,7 1,0 0,-7 z" id="path46" style="fill:#99aab5;fill-opacity:1;fill-rule:nonzero;stroke:none"/><path d="m 10,14 -3,0 0,1 3,0 0,-1 z" id="path48" style="fill:#66757f;fill-opacity:1;fill-rule:nonzero;stroke:none"/><path d="m 19,14 -3,0 0,1 3,0 0,-1 z" id="path50" style="fill:#66757f;fill-opacity:1;fill-rule:nonzero;stroke:none"/><path d="m 9,21 -1,0 0,1 1,0 0,-1 z" id="path52" style="fill:#66757f;fill-opacity:1;fill-rule:nonzero;stroke:none"/><path d="m 18,21 -1,0 0,1 1,0 0,-1 z" id="path54" style="fill:#66757f;fill-opacity:1;fill-rule:nonzero;stroke:none"/></g></g></g></svg>
