<?xml version="1.0" encoding="UTF-8" standalone="no"?><svg xmlns:dc="http://purl.org/dc/elements/1.1/" xmlns:cc="http://creativecommons.org/ns#" xmlns:rdf="http://www.w3.org/1999/02/22-rdf-syntax-ns#" xmlns:svg="http://www.w3.org/2000/svg" xmlns="http://www.w3.org/2000/svg" viewBox="0 0 47.5 47.5" style="enable-background:new 0 0 47.5 47.5;" xml:space="preserve" version="1.1" id="svg2"><metadata id="metadata8"><rdf:RDF><cc:Work rdf:about=""><dc:format>image/svg+xml</dc:format><dc:type rdf:resource="http://purl.org/dc/dcmitype/StillImage"/></cc:Work></rdf:RDF></metadata><defs id="defs6"><clipPath id="clipPath16" clipPathUnits="userSpaceOnUse"><path id="path18" d="M 0,38 38,38 38,0 0,0 0,38 Z"/></clipPath></defs><g transform="matrix(1.25,0,0,-1.25,0,47.5)" id="g10"><g id="g12"><g clip-path="url(#clipPath16)" id="g14"><g transform="translate(37,10)" id="g20"><path id="path22" style="fill:#eeeeee;fill-opacity:1;fill-rule:nonzero;stroke:none" d="m 0,0 c 0,-2.209 -1.791,-4 -4,-4 l -28,0 c -2.209,0 -4,1.791 -4,4 l 0,18 c 0,2.209 1.791,4 4,4 l 28,0 c 2.209,0 4,-1.791 4,-4 L 0,0 Z"/></g><g transform="translate(19,19)" id="g24"><path id="path26" style="fill:#003478;fill-opacity:1;fill-rule:nonzero;stroke:none" d="M 0,0 Z"/></g><g transform="translate(22.4414,23.915)" id="g28"><path id="path30" style="fill:#c60c30;fill-opacity:1;fill-rule:nonzero;stroke:none" d="m 0,0 c -2.714,1.9 -6.455,1.24 -8.356,-1.474 -0.95,-1.356 -0.621,-3.227 0.737,-4.178 1.357,-0.95 3.227,-0.619 4.178,0.737 0.95,1.356 2.822,1.686 4.177,0.736 C 2.094,-5.129 2.424,-7 1.474,-8.356 3.375,-5.643 2.715,-1.902 0,0"/></g><g transform="translate(23.1777,19.7363)" id="g32"><path id="path34" style="fill:#003478;fill-opacity:1;fill-rule:nonzero;stroke:none" d="m 0,0 c -1.355,0.95 -3.228,0.62 -4.178,-0.736 -0.95,-1.357 -2.821,-1.687 -4.177,-0.738 -1.358,0.952 -1.687,2.823 -0.737,4.179 -1.902,-2.716 -1.241,-6.456 1.473,-8.356 2.715,-1.902 6.455,-1.242 8.356,1.473 C 1.687,-2.821 1.357,-0.95 0,0"/></g><g transform="translate(27.2637,13.7246)" id="g36"><path id="path38" style="fill:#292f33;fill-opacity:1;fill-rule:nonzero;stroke:none" d="M 0,0 -1.929,-2.299 -1.163,-2.941 0.766,-0.643 0,0 Z"/></g><g transform="translate(27.9063,14.4902)" id="g40"><path id="path42" style="fill:#292f33;fill-opacity:1;fill-rule:nonzero;stroke:none" d="M 0,0 0.766,-0.643 2.693,1.654 1.928,2.298 0,0 Z"/></g><g transform="translate(28.7949,12.4385)" id="g44"><path id="path46" style="fill:#292f33;fill-opacity:1;fill-rule:nonzero;stroke:none" d="M 0,0 -1.928,-2.298 -1.162,-2.941 0.766,-0.644 0,0 Z"/></g><g transform="translate(29.4375,13.2051)" id="g48"><path id="path50" style="fill:#292f33;fill-opacity:1;fill-rule:nonzero;stroke:none" d="M 0,0 0.766,-0.644 2.695,1.654 1.929,2.297 0,0 Z"/></g><g transform="translate(30.3271,11.1523)" id="g52"><path id="path54" style="fill:#292f33;fill-opacity:1;fill-rule:nonzero;stroke:none" d="M 0,0 -1.929,-2.298 -1.162,-2.94 0.767,-0.643 0,0 Z"/></g><g transform="translate(30.9697,11.9189)" id="g56"><path id="path58" style="fill:#292f33;fill-opacity:1;fill-rule:nonzero;stroke:none" d="M 0,0 0.767,-0.643 2.694,1.655 1.929,2.298 0,0 Z"/></g><g transform="translate(31.7363,26.7246)" id="g60"><path id="path62" style="fill:#292f33;fill-opacity:1;fill-rule:nonzero;stroke:none" d="M 0,0 -0.766,-0.643 1.163,-2.941 1.93,-2.299 0,0 Z"/></g><g transform="translate(31.0938,27.4902)" id="g64"><path id="path66" style="fill:#292f33;fill-opacity:1;fill-rule:nonzero;stroke:none" d="M 0,0 -1.928,2.299 -2.693,1.656 -0.766,-0.643 0,0 Z"/></g><g transform="translate(31.3672,22.498)" id="g68"><path id="path70" style="fill:#292f33;fill-opacity:1;fill-rule:nonzero;stroke:none" d="M 0,0 -4.5,5.362 -3.733,6.005 0.766,0.643 0,0 Z"/></g><g transform="translate(28.0293,24.9199)" id="g72"><path id="path74" style="fill:#292f33;fill-opacity:1;fill-rule:nonzero;stroke:none" d="M 0,0 -1.928,2.298 -2.693,1.654 -0.766,-0.644 0,0 Z"/></g><g transform="translate(28.6719,24.1533)" id="g76"><path id="path78" style="fill:#292f33;fill-opacity:1;fill-rule:nonzero;stroke:none" d="M 0,0 -0.766,-0.644 1.163,-2.94 1.93,-2.298 0,0 Z"/></g><g transform="translate(11.8994,10.7822)" id="g80"><path id="path82" style="fill:#292f33;fill-opacity:1;fill-rule:nonzero;stroke:none" d="M 0,0 -4.499,5.363 -3.734,6.006 0.766,0.644 0,0 Z"/></g><g transform="translate(8.562,13.2041)" id="g84"><path id="path86" style="fill:#292f33;fill-opacity:1;fill-rule:nonzero;stroke:none" d="M 0,0 -1.928,2.299 -2.694,1.655 -0.766,-0.643 0,0 Z"/></g><g transform="translate(9.2046,12.4385)" id="g88"><path id="path90" style="fill:#292f33;fill-opacity:1;fill-rule:nonzero;stroke:none" d="M 0,0 -0.766,-0.644 1.163,-2.941 1.929,-2.299 0,0 Z"/></g><g transform="translate(8.835,8.2119)" id="g92"><path id="path94" style="fill:#292f33;fill-opacity:1;fill-rule:nonzero;stroke:none" d="M 0,0 -4.5,5.362 -3.733,6.005 0.766,0.643 0,0 Z"/></g><g transform="translate(9.5996,29.146)" id="g96"><path id="path98" style="fill:#292f33;fill-opacity:1;fill-rule:nonzero;stroke:none" d="m 0,0 -4.499,-5.362 -0.767,0.642 4.5,5.363 L 0,0 Z"/></g><g transform="translate(11.1328,27.8604)" id="g100"><path id="path102" style="fill:#292f33;fill-opacity:1;fill-rule:nonzero;stroke:none" d="M 0,0 -4.5,-5.362 -5.266,-4.72 -0.767,0.643 0,0 Z"/></g><g transform="translate(12.6641,26.5747)" id="g104"><path id="path106" style="fill:#292f33;fill-opacity:1;fill-rule:nonzero;stroke:none" d="m 0,0 -4.499,-5.362 -0.767,0.643 4.5,5.362 L 0,0 Z"/></g></g></g></g></svg>
