<svg xmlns="http://www.w3.org/2000/svg" viewBox="0 0 47.5 47.5" enable-background="new 0 0 47.5 47.5"><defs><clipPath id="a"><path d="M0 38h38V0H0v38z"/></clipPath></defs><g><g><g clip-path="url(#a)" transform="matrix(1.25 0 0 -1.25 0 47.5)"><g><path fill="#3b88c3" d="M37 5c0-2.2-1.8-4-4-4H5C2.8 1 1 2.8 1 5v28c0 2.2 1.8 4 4 4h28c2.2 0 4-1.8 4-4V5z"/></g><g><path fill="#fff" d="M27.62 28c0 1.24-.93 2.26-2.23 2.26-.82 0-1.53-.34-1.93-.93L19 22.85l-4.46 6.48c-.4.6-1.12.93-1.93.93-1.3 0-2.22-1.02-2.22-2.26 0-.5.16-1 .44-1.4L16 19.3v-8.4C16 9.3 17.3 8 18.9 8h.2c1.6 0 2.9 1.3 2.9 2.9v8.4l5.2 7.3c.27.4.42.9.42 1.4"/></g></g></g></g></svg>