<svg xmlns="http://www.w3.org/2000/svg" viewBox="0 0 47.5 47.5" enable-background="new 0 0 47.5 47.5"><defs><clipPath id="a"><path d="M0 38h38V0H0v38z"/></clipPath></defs><g><g><g clip-path="url(#a)" transform="matrix(1.25 0 0 -1.25 0 47.5)"><g><path fill="#3b88c3" d="M37 5c0-2.2-1.8-4-4-4H5C2.8 1 1 2.8 1 5v28c0 2.2 1.8 4 4 4h28c2.2 0 4-1.8 4-4V5z"/></g><g><path fill="#fff" d="M16.68 25.8H13.3c-1.5 0-2.1 1.08-2.1 2.14 0 1.08.76 2.14 2.1 2.14h11.4c1.34 0 2.1-1.06 2.1-2.14 0-1.06-.6-2.14-2.1-2.14h-3.37V10.23c0-1.55-1-2.42-2.33-2.42s-2.32.88-2.32 2.43V25.8z"/></g></g></g></g></svg>