<svg xmlns="http://www.w3.org/2000/svg" viewBox="0 0 47.5 47.5" enable-background="new 0 0 47.5 47.5"><defs><clipPath id="a"><path d="M0 38h38V0H0v38z"/></clipPath></defs><g><g><g clip-path="url(#a)" transform="matrix(1.25 0 0 -1.25 0 47.5)"><g><path fill="#3b88c3" d="M37 5c0-2.2-1.8-4-4-4H5C2.8 1 1 2.8 1 5v28c0 2.2 1.8 4 4 4h28c2.2 0 4-1.8 4-4V5z"/></g><g><path fill="#fff" d="M13.8 27.84c0 1.55.98 2.42 2.32 2.42 1.33 0 2.32-.87 2.32-2.42V12.28h5.52c1.58 0 2.27-1.18 2.24-2.23C26.13 9.02 25.33 8 23.96 8H16.2c-1.5 0-2.4 1-2.4 2.54v17.3z"/></g></g></g></g></svg>