<svg xmlns="http://www.w3.org/2000/svg" viewBox="0 0 47.5 47.5" enable-background="new 0 0 47.5 47.5"><defs><clipPath id="a"><path d="M0 38h38V0H0v38z"/></clipPath></defs><g><g><g clip-path="url(#a)" transform="matrix(1.25 0 0 -1.25 0 47.5)"><g><path fill="#3b88c3" d="M37 5c0-2.2-1.8-4-4-4H5C2.8 1 1 2.8 1 5v28c0 2.2 1.8 4 4 4h28c2.2 0 4-1.8 4-4V5z"/></g><g><path fill="#fff" d="M25.28 12.1c1.3 0 2.23-.72 2.23-2.05C27.5 8.87 26.4 8 25.3 8H13.1c-1.65 0-2.6.93-2.6 2.23 0 .62.2 1.24.6 1.8l10 13.95h-8.16c-1.24 0-2.17.72-2.17 2 0 1.17 1 2.1 2.17 2.1H24.3c1.8 0 2.6-1.15 2.6-2.24 0-.68-.3-1.45-.7-1.98L16.3 12.1h8.98z"/></g></g></g></g></svg>