<?xml version="1.0" encoding="UTF-8" standalone="no"?>
<!-- Created with Inkscape (http://www.inkscape.org/) -->

<svg
   xmlns:svg="http://www.w3.org/2000/svg"
   xmlns="http://www.w3.org/2000/svg"
   version="1.1"
   width="47.5"
   height="47.5"
   id="svg2"
   xml:space="preserve"><defs
     id="defs6"><clipPath
       id="clipPath18"><path
         d="M 0,38 38,38 38,0 0,0 0,38 z"
         id="path20" /></clipPath></defs><g
     transform="matrix(1.25,0,0,-1.25,0,47.5)"
     id="g12"><g
       id="g14"><g
         clip-path="url(#clipPath18)"
         id="g16"><g
           transform="translate(37,5)"
           id="g22"><path
             d="m 0,0 c 0,-2.209 -1.791,-4 -4,-4 l -28,0 c -2.209,0 -4,1.791 -4,4 l 0,28 c 0,2.209 1.791,4 4,4 l 28,0 c 2.209,0 4,-1.791 4,-4 L 0,0 z"
             id="path24"
             style="fill:#3b88c3;fill-opacity:1;fill-rule:nonzero;stroke:none" /></g><g
           transform="translate(9.9175,26.8828)"
           id="g26"><path
             d="m 0,0 c -0.155,0.403 -0.217,0.713 -0.217,1.147 0,1.302 1.147,2.232 2.387,2.232 1.055,0 1.705,-0.682 2.108,-1.519 L 9.084,-11.038 13.891,1.86 c 0.402,0.837 1.053,1.519 2.108,1.519 1.24,0 2.386,-0.93 2.386,-2.232 0,-0.434 -0.06,-0.744 -0.217,-1.147 l -6.789,-17.271 c -0.404,-0.992 -0.93,-1.797 -2.295,-1.797 -1.364,0 -1.891,0.805 -2.294,1.797 L 0,0 z"
             id="path28"
             style="fill:#ffffff;fill-opacity:1;fill-rule:nonzero;stroke:none" /></g></g></g></g></svg>