<?xml version="1.0" encoding="UTF-8" standalone="no"?><svg xmlns:svg="http://www.w3.org/2000/svg" xmlns="http://www.w3.org/2000/svg" version="1.1" viewBox="0 0 47.5 47.5" style="enable-background:new 0 0 47.5 47.5;" id="svg2" xml:space="preserve"><defs id="defs6"><clipPath id="clipPath18"><path d="M 0,38 38,38 38,0 0,0 0,38 z" id="path20"/></clipPath></defs><g transform="matrix(1.25,0,0,-1.25,0,47.5)" id="g12"><g id="g14"><g clip-path="url(#clipPath18)" id="g16"><g transform="translate(37,5)" id="g22"><path d="m 0,0 c 0,-2.209 -1.791,-4 -4,-4 l -28,0 c -2.209,0 -4,1.791 -4,4 l 0,28 c 0,2.209 1.791,4 4,4 l 28,0 c 2.209,0 4,-1.791 4,-4 L 0,0 z" id="path24" style="fill:#3b88c3;fill-opacity:1;fill-rule:nonzero;stroke:none"/></g><g transform="translate(24.832,19.0381)" id="g26"><path d="m 0,0 c 0,3.752 -1.954,7.131 -5.83,7.131 -3.876,0 -5.829,-3.379 -5.829,-7.131 0,-3.782 1.891,-7.132 5.829,-7.132 3.937,0 5.83,3.35 5.83,7.132 m -16.496,0 c 0,6.449 4.341,11.41 10.666,11.41 6.232,0 10.666,-5.116 10.666,-11.41 0,-6.418 -4.31,-11.41 -10.666,-11.41 -6.294,0 -10.666,4.992 -10.666,11.41" id="path28" style="fill:#ffffff;fill-opacity:1;fill-rule:nonzero;stroke:none"/></g></g></g></g></svg>
