<svg xmlns="http://www.w3.org/2000/svg" viewBox="0 0 47.5 47.5" enable-background="new 0 0 47.5 47.5"><defs><clipPath id="a"><path d="M0 38h38V0H0v38z"/></clipPath></defs><g><g><g clip-path="url(#a)" transform="matrix(1.25 0 0 -1.25 0 47.5)"><g><path fill="#3b88c3" d="M37 5c0-2.2-1.8-4-4-4H5C2.8 1 1 2.8 1 5v28c0 2.2 1.8 4 4 4h28c2.2 0 4-1.8 4-4V5z"/></g><g><path fill="#fff" d="M9.92 26.88c-.16.4-.22.72-.22 1.15 0 1.3 1.15 2.23 2.4 2.23 1.04 0 1.7-.68 2.1-1.52l4.8-12.9 4.8 12.9c.4.84 1.06 1.52 2.12 1.52 1.24 0 2.38-.93 2.38-2.23 0-.43-.06-.74-.2-1.15L21.3 9.6c-.4-.98-.93-1.8-2.3-1.8-1.36 0-1.9.82-2.3 1.8L9.93 26.9z"/></g></g></g></g></svg>