<svg xmlns="http://www.w3.org/2000/svg" viewBox="0 0 47.5 47.5" enable-background="new 0 0 47.5 47.5"><defs><clipPath id="a"><path d="M0 38h38V0H0v38z"/></clipPath></defs><g><g><g clip-path="url(#a)" transform="matrix(1.25 0 0 -1.25 0 47.5)"><g><path fill="#dd2e44" d="M37 10c0-2.2-1.8-4-4-4H5c-2.2 0-4 1.8-4 4v18c0 2.2 1.8 4 4 4h28c2.2 0 4-1.8 4-4V10z"/></g><g><path fill="#eee" d="M1.55 8h34.9c.34.6.55 1.27.55 2H1c0-.73.2-1.4.55-2"/></g><path fill="#eee" d="M37 12H1v2h36v-2z"/><path fill="#eee" d="M37 16H1v2h36v-2z"/><path fill="#eee" d="M37 20H1v2h36v-2z"/><path fill="#eee" d="M37 24H1v2h36v-2z"/><g><path fill="#eee" d="M1.55 30C1.2 29.4 1 28.73 1 28h36c0 .73-.2 1.4-.55 2H1.55z"/></g><g><path fill="#3b88c3" d="M19 32H5c-2.2 0-4-1.8-4-4V18h18v14z"/></g><path fill="#bbddf5" d="M15 28h2v2h-2v-2z"/><path fill="#bbddf5" d="M13 26h2v2h-2v-2z"/><path fill="#bbddf5" d="M17 24h-2v2h2v-2z"/><path fill="#bbddf5" d="M13 22h2v2h-2v-2z"/><path fill="#bbddf5" d="M13 28h-2v2h2v-2z"/><path fill="#bbddf5" d="M13 24h-2v2h2v-2z"/><path fill="#bbddf5" d="M9 22h2v2H9v-2z"/><path fill="#bbddf5" d="M11 26H9v2h2v-2z"/><path fill="#bbddf5" d="M7 28h2v2H7v-2z"/><path fill="#bbddf5" d="M5 26h2v2H5v-2z"/><path fill="#bbddf5" d="M7 24h2v2H7v-2z"/><path fill="#bbddf5" d="M5 22h2v2H5v-2z"/><path fill="#bbddf5" d="M3 30h2v-2H3v2z"/><path fill="#bbddf5" d="M3 24h2v2H3v-2z"/><path fill="#bbddf5" d="M17 20h-2v2h2v-2z"/><path fill="#bbddf5" d="M13 20h-2v2h2v-2z"/><path fill="#bbddf5" d="M7 20h2v2H7v-2z"/><path fill="#bbddf5" d="M3 20h2v2H3v-2z"/></g></g></g></svg>