<?xml version="1.0" encoding="UTF-8" standalone="no"?><svg xmlns:svg="http://www.w3.org/2000/svg" xmlns="http://www.w3.org/2000/svg" version="1.1" viewBox="0 0 47.5 47.5" style="enable-background:new 0 0 47.5 47.5;" id="svg2" xml:space="preserve"><defs id="defs6"><clipPath id="clipPath18"><path d="M 0,38 38,38 38,0 0,0 0,38 z" id="path20"/></clipPath></defs><g transform="matrix(1.25,0,0,-1.25,0,47.5)" id="g12"><g id="g14"><g clip-path="url(#clipPath18)" id="g16"><g transform="translate(37,10)" id="g22"><path d="m 0,0 c 0,-2.209 -1.791,-4 -4,-4 l -28,0 c -2.209,0 -4,1.791 -4,4 l 0,18 c 0,2.209 1.791,4 4,4 l 28,0 c 2.209,0 4,-1.791 4,-4 L 0,0 z" id="path24" style="fill:#dd2e44;fill-opacity:1;fill-rule:nonzero;stroke:none"/></g><g transform="translate(1.5547,8)" id="g26"><path d="m 0,0 34.891,0 c 0.343,0.591 0.554,1.268 0.554,2 l -36,0 C -0.555,1.268 -0.343,0.591 0,0" id="path28" style="fill:#eeeeee;fill-opacity:1;fill-rule:nonzero;stroke:none"/></g><path d="m 37,12 -36,0 0,2 36,0 0,-2 z" id="path30" style="fill:#eeeeee;fill-opacity:1;fill-rule:nonzero;stroke:none"/><path d="m 37,16 -36,0 0,2 36,0 0,-2 z" id="path32" style="fill:#eeeeee;fill-opacity:1;fill-rule:nonzero;stroke:none"/><path d="m 37,20 -36,0 0,2 36,0 0,-2 z" id="path34" style="fill:#eeeeee;fill-opacity:1;fill-rule:nonzero;stroke:none"/><path d="m 37,24 -36,0 0,2 36,0 0,-2 z" id="path36" style="fill:#eeeeee;fill-opacity:1;fill-rule:nonzero;stroke:none"/><g transform="translate(1.5547,30)" id="g38"><path d="m 0,0 c -0.343,-0.59 -0.555,-1.268 -0.555,-2 l 36,0 c 0,0.732 -0.211,1.41 -0.554,2 L 0,0 z" id="path40" style="fill:#eeeeee;fill-opacity:1;fill-rule:nonzero;stroke:none"/></g><g transform="translate(19,32)" id="g42"><path d="m 0,0 -14,0 c -2.209,0 -4,-1.791 -4,-4 l 0,-10 18,0 0,14 z" id="path44" style="fill:#3b88c3;fill-opacity:1;fill-rule:nonzero;stroke:none"/></g><path d="m 15,28 2,0 0,2 -2,0 0,-2 z" id="path46" style="fill:#bbddf5;fill-opacity:1;fill-rule:nonzero;stroke:none"/><path d="m 13,26 2,0 0,2 -2,0 0,-2 z" id="path48" style="fill:#bbddf5;fill-opacity:1;fill-rule:nonzero;stroke:none"/><path d="m 17,24 -2,0 0,2 2,0 0,-2 z" id="path50" style="fill:#bbddf5;fill-opacity:1;fill-rule:nonzero;stroke:none"/><path d="m 13,22 2,0 0,2 -2,0 0,-2 z" id="path52" style="fill:#bbddf5;fill-opacity:1;fill-rule:nonzero;stroke:none"/><path d="m 13,28 -2,0 0,2 2,0 0,-2 z" id="path54" style="fill:#bbddf5;fill-opacity:1;fill-rule:nonzero;stroke:none"/><path d="m 13,24 -2,0 0,2 2,0 0,-2 z" id="path56" style="fill:#bbddf5;fill-opacity:1;fill-rule:nonzero;stroke:none"/><path d="m 9,22 2,0 0,2 -2,0 0,-2 z" id="path58" style="fill:#bbddf5;fill-opacity:1;fill-rule:nonzero;stroke:none"/><path d="m 11,26 -2,0 0,2 2,0 0,-2 z" id="path60" style="fill:#bbddf5;fill-opacity:1;fill-rule:nonzero;stroke:none"/><path d="m 7,28 2,0 0,2 -2,0 0,-2 z" id="path62" style="fill:#bbddf5;fill-opacity:1;fill-rule:nonzero;stroke:none"/><path d="m 5,26 2,0 0,2 -2,0 0,-2 z" id="path64" style="fill:#bbddf5;fill-opacity:1;fill-rule:nonzero;stroke:none"/><path d="m 7,24 2,0 0,2 -2,0 0,-2 z" id="path66" style="fill:#bbddf5;fill-opacity:1;fill-rule:nonzero;stroke:none"/><path d="m 5,22 2,0 0,2 -2,0 0,-2 z" id="path68" style="fill:#bbddf5;fill-opacity:1;fill-rule:nonzero;stroke:none"/><path d="m 3,30 2,0 0,-2 -2,0 0,2 z" id="path70" style="fill:#bbddf5;fill-opacity:1;fill-rule:nonzero;stroke:none"/><path d="m 3,24 2,0 0,2 -2,0 0,-2 z" id="path72" style="fill:#bbddf5;fill-opacity:1;fill-rule:nonzero;stroke:none"/><path d="m 17,20 -2,0 0,2 2,0 0,-2 z" id="path74" style="fill:#bbddf5;fill-opacity:1;fill-rule:nonzero;stroke:none"/><path d="m 13,20 -2,0 0,2 2,0 0,-2 z" id="path76" style="fill:#bbddf5;fill-opacity:1;fill-rule:nonzero;stroke:none"/><path d="m 7,20 2,0 0,2 -2,0 0,-2 z" id="path78" style="fill:#bbddf5;fill-opacity:1;fill-rule:nonzero;stroke:none"/><path d="m 3,20 2,0 0,2 -2,0 0,-2 z" id="path80" style="fill:#bbddf5;fill-opacity:1;fill-rule:nonzero;stroke:none"/></g></g></g></svg>
