<svg xmlns="http://www.w3.org/2000/svg" viewBox="0 0 47.5 47.5" enable-background="new 0 0 47.5 47.5"><defs><clipPath id="a"><path d="M0 38h38V0H0v38z"/></clipPath></defs><g><g><g clip-path="url(#a)" transform="matrix(1.25 0 0 -1.25 0 47.5)"><g><path fill="#3b88c3" d="M37 5c0-2.2-1.8-4-4-4H5C2.8 1 1 2.8 1 5v28c0 2.2 1.8 4 4 4h28c2.2 0 4-1.8 4-4V5z"/></g><g><path fill="#fff" d="M5.3 27.16c-.1.4-.13.62-.13 1.06 0 1 .84 2.04 2.2 2.04 1.5 0 2.2-.87 2.5-2.23l2.62-13.18h.05l4.03 13.58c.35 1.12 1.28 1.83 2.42 1.83 1.15 0 2.08-.7 2.42-1.83l4.03-13.58h.06l2.65 13.18c.28 1.36 1 2.23 2.48 2.23 1.36 0 2.2-1.05 2.2-2.04 0-.44-.03-.66-.12-1.06l-3.93-16.93c-.3-1.3-1.33-2.42-3.07-2.42-1.52 0-2.7 1-3.07 2.28l-3.6 11.97h-.06l-3.6-11.97C15 8.8 13.83 7.8 12.32 7.8c-1.73 0-2.75 1.13-3.06 2.43L5.3 27.16z"/></g></g></g></g></svg>