<svg xmlns="http://www.w3.org/2000/svg" viewBox="0 0 47.5 47.5" enable-background="new 0 0 47.5 47.5"><defs><clipPath id="a"><path d="M0 38h38V0H0v38z"/></clipPath></defs><g><g><g clip-path="url(#a)" transform="matrix(1.25 0 0 -1.25 0 47.5)"><g><path fill="#3b88c3" d="M37 5c0-2.2-1.8-4-4-4H5C2.8 1 1 2.8 1 5v28c0 2.2 1.8 4 4 4h28c2.2 0 4-1.8 4-4V5z"/></g><g><path fill="#fff" d="M24.83 19.04c0 3.75-1.95 7.13-5.83 7.13-3.87 0-5.83-3.38-5.83-7.13 0-3.78 1.9-7.13 5.83-7.13 3.94 0 5.83 3.36 5.83 7.14m-16.5 0c0 6.45 4.35 11.4 10.67 11.4 6.23 0 10.67-5.1 10.67-11.4 0-6.42-4.3-11.4-10.67-11.4-6.3 0-10.66 4.98-10.66 11.4"/></g></g></g></g></svg>