<?xml version="1.0" encoding="UTF-8" standalone="no"?><svg xmlns:dc="http://purl.org/dc/elements/1.1/" xmlns:cc="http://creativecommons.org/ns#" xmlns:rdf="http://www.w3.org/1999/02/22-rdf-syntax-ns#" xmlns:svg="http://www.w3.org/2000/svg" xmlns="http://www.w3.org/2000/svg" viewBox="0 0 47.5 47.5" style="enable-background:new 0 0 47.5 47.5;" xml:space="preserve" version="1.1" id="svg2"><metadata id="metadata8"><rdf:RDF><cc:Work rdf:about=""><dc:format>image/svg+xml</dc:format><dc:type rdf:resource="http://purl.org/dc/dcmitype/StillImage"/></cc:Work></rdf:RDF></metadata><defs id="defs6"><clipPath id="clipPath16" clipPathUnits="userSpaceOnUse"><path id="path18" d="M 0,38 38,38 38,0 0,0 0,38 Z"/></clipPath></defs><g transform="matrix(1.25,0,0,-1.25,0,47.5)" id="g10"><g id="g12"><g clip-path="url(#clipPath16)" id="g14"><g transform="translate(37,10)" id="g20"><path id="path22" style="fill:#dd2e44;fill-opacity:1;fill-rule:nonzero;stroke:none" d="m 0,0 c 0,-2.209 -1.791,-4 -4,-4 l -28,0 c -2.209,0 -4,1.791 -4,4 l 0,18 c 0,2.209 1.791,4 4,4 l 28,0 c 2.209,0 4,-1.791 4,-4 L 0,0 Z"/></g><g transform="translate(1.5547,8)" id="g24"><path id="path26" style="fill:#eeeeee;fill-opacity:1;fill-rule:nonzero;stroke:none" d="m 0,0 34.891,0 c 0.343,0.591 0.554,1.268 0.554,2 l -36,0 C -0.555,1.268 -0.343,0.591 0,0"/></g><path id="path28" style="fill:#eeeeee;fill-opacity:1;fill-rule:nonzero;stroke:none" d="m 37,12 -36,0 0,2 36,0 0,-2 z"/><path id="path30" style="fill:#eeeeee;fill-opacity:1;fill-rule:nonzero;stroke:none" d="m 37,16 -36,0 0,2 36,0 0,-2 z"/><path id="path32" style="fill:#eeeeee;fill-opacity:1;fill-rule:nonzero;stroke:none" d="m 37,20 -36,0 0,2 36,0 0,-2 z"/><path id="path34" style="fill:#eeeeee;fill-opacity:1;fill-rule:nonzero;stroke:none" d="m 37,24 -36,0 0,2 36,0 0,-2 z"/><g transform="translate(1.5547,30)" id="g36"><path id="path38" style="fill:#eeeeee;fill-opacity:1;fill-rule:nonzero;stroke:none" d="m 0,0 c -0.343,-0.59 -0.555,-1.268 -0.555,-2 l 36,0 c 0,0.732 -0.211,1.41 -0.554,2 L 0,0 Z"/></g><g transform="translate(19,32)" id="g40"><path id="path42" style="fill:#3b88c3;fill-opacity:1;fill-rule:nonzero;stroke:none" d="m 0,0 -14,0 c -2.209,0 -4,-1.791 -4,-4 l 0,-10 18,0 0,14 z"/></g><path id="path44" style="fill:#bbddf5;fill-opacity:1;fill-rule:nonzero;stroke:none" d="m 15,28 2,0 0,2 -2,0 0,-2 z"/><path id="path46" style="fill:#bbddf5;fill-opacity:1;fill-rule:nonzero;stroke:none" d="m 13,26 2,0 0,2 -2,0 0,-2 z"/><path id="path48" style="fill:#bbddf5;fill-opacity:1;fill-rule:nonzero;stroke:none" d="m 17,24 -2,0 0,2 2,0 0,-2 z"/><path id="path50" style="fill:#bbddf5;fill-opacity:1;fill-rule:nonzero;stroke:none" d="m 13,22 2,0 0,2 -2,0 0,-2 z"/><path id="path52" style="fill:#bbddf5;fill-opacity:1;fill-rule:nonzero;stroke:none" d="m 13,28 -2,0 0,2 2,0 0,-2 z"/><path id="path54" style="fill:#bbddf5;fill-opacity:1;fill-rule:nonzero;stroke:none" d="m 13,24 -2,0 0,2 2,0 0,-2 z"/><path id="path56" style="fill:#bbddf5;fill-opacity:1;fill-rule:nonzero;stroke:none" d="m 9,22 2,0 0,2 -2,0 0,-2 z"/><path id="path58" style="fill:#bbddf5;fill-opacity:1;fill-rule:nonzero;stroke:none" d="m 11,26 -2,0 0,2 2,0 0,-2 z"/><path id="path60" style="fill:#bbddf5;fill-opacity:1;fill-rule:nonzero;stroke:none" d="m 7,28 2,0 0,2 -2,0 0,-2 z"/><path id="path62" style="fill:#bbddf5;fill-opacity:1;fill-rule:nonzero;stroke:none" d="m 5,26 2,0 0,2 -2,0 0,-2 z"/><path id="path64" style="fill:#bbddf5;fill-opacity:1;fill-rule:nonzero;stroke:none" d="m 7,24 2,0 0,2 -2,0 0,-2 z"/><path id="path66" style="fill:#bbddf5;fill-opacity:1;fill-rule:nonzero;stroke:none" d="m 5,22 2,0 0,2 -2,0 0,-2 z"/><path id="path68" style="fill:#bbddf5;fill-opacity:1;fill-rule:nonzero;stroke:none" d="m 3,30 2,0 0,-2 -2,0 0,2 z"/><path id="path70" style="fill:#bbddf5;fill-opacity:1;fill-rule:nonzero;stroke:none" d="m 3,24 2,0 0,2 -2,0 0,-2 z"/><path id="path72" style="fill:#bbddf5;fill-opacity:1;fill-rule:nonzero;stroke:none" d="m 17,20 -2,0 0,2 2,0 0,-2 z"/><path id="path74" style="fill:#bbddf5;fill-opacity:1;fill-rule:nonzero;stroke:none" d="m 13,20 -2,0 0,2 2,0 0,-2 z"/><path id="path76" style="fill:#bbddf5;fill-opacity:1;fill-rule:nonzero;stroke:none" d="m 7,20 2,0 0,2 -2,0 0,-2 z"/><path id="path78" style="fill:#bbddf5;fill-opacity:1;fill-rule:nonzero;stroke:none" d="m 3,20 2,0 0,2 -2,0 0,-2 z"/></g></g></g></svg>
