<svg xmlns="http://www.w3.org/2000/svg" viewBox="0 0 47.5 47.5" enable-background="new 0 0 47.5 47.5"><defs><clipPath id="a"><path d="M0 38h38V0H0v38z"/></clipPath></defs><g><g><g clip-path="url(#a)" transform="matrix(1.25 0 0 -1.25 0 47.5)"><g><path fill="#3b88c3" d="M37 5c0-2.2-1.8-4-4-4H5C2.8 1 1 2.8 1 5v28c0 2.2 1.8 4 4 4h28c2.2 0 4-1.8 4-4V5z"/></g><g><path fill="#fff" d="M25.13 27.35c0-1.2-.8-2.3-2.08-2.3-1.27 0-2.27.93-4.13.93-1.33 0-2.54-.7-2.54-2 0-3.2 10.36-1.16 10.36-9.16 0-4.43-3.66-7.2-7.94-7.2-2.4 0-7.53.57-7.53 3.48 0 1.2.8 2.2 2.07 2.2 1.46 0 3.2-1.2 5.2-1.2 2.06 0 3.18 1.14 3.18 2.66 0 3.66-10.36 1.46-10.36 8.65 0 4.35 3.56 7.05 7.7 7.05 1.73 0 6.07-.65 6.07-3.1"/></g></g></g></g></svg>