<?xml version="1.0" encoding="UTF-8" standalone="no"?><svg xmlns:svg="http://www.w3.org/2000/svg" xmlns="http://www.w3.org/2000/svg" version="1.1" viewBox="0 0 47.5 47.5" style="enable-background:new 0 0 47.5 47.5;" id="svg2" xml:space="preserve"><defs id="defs6"><clipPath id="clipPath18"><path d="M 0,38 38,38 38,0 0,0 0,38 z" id="path20"/></clipPath></defs><g transform="matrix(1.25,0,0,-1.25,0,47.5)" id="g12"><g id="g14"><g clip-path="url(#clipPath18)" id="g16"><g transform="translate(37,10)" id="g22"><path d="m 0,0 c 0,-2.209 -1.791,-4 -4,-4 l -28,0 c -2.209,0 -4,1.791 -4,4 l 0,18 c 0,2.209 1.791,4 4,4 l 28,0 c 2.209,0 4,-1.791 4,-4 L 0,0 z" id="path24" style="fill:#eeeeee;fill-opacity:1;fill-rule:nonzero;stroke:none"/></g><g transform="translate(19,19)" id="g26"><path d="M 0,0 z" id="path28" style="fill:#003478;fill-opacity:1;fill-rule:nonzero;stroke:none"/></g><g transform="translate(22.4414,23.915)" id="g30"><path d="m 0,0 c -2.714,1.9 -6.455,1.24 -8.356,-1.474 -0.95,-1.356 -0.621,-3.227 0.737,-4.178 1.357,-0.95 3.227,-0.619 4.178,0.737 0.95,1.356 2.822,1.686 4.177,0.736 C 2.094,-5.129 2.424,-7 1.474,-8.356 3.375,-5.643 2.715,-1.902 0,0" id="path32" style="fill:#c60c30;fill-opacity:1;fill-rule:nonzero;stroke:none"/></g><g transform="translate(23.1777,19.7363)" id="g34"><path d="m 0,0 c -1.355,0.95 -3.228,0.62 -4.178,-0.736 -0.95,-1.357 -2.821,-1.687 -4.177,-0.738 -1.358,0.952 -1.687,2.823 -0.737,4.179 -1.902,-2.716 -1.241,-6.456 1.473,-8.356 2.715,-1.902 6.455,-1.242 8.356,1.473 C 1.687,-2.821 1.357,-0.95 0,0" id="path36" style="fill:#003478;fill-opacity:1;fill-rule:nonzero;stroke:none"/></g><g transform="translate(27.2637,13.7246)" id="g38"><path d="M 0,0 -1.929,-2.299 -1.163,-2.941 0.766,-0.643 0,0 z" id="path40" style="fill:#292f33;fill-opacity:1;fill-rule:nonzero;stroke:none"/></g><g transform="translate(27.9063,14.4902)" id="g42"><path d="M 0,0 0.766,-0.643 2.693,1.654 1.928,2.298 0,0 z" id="path44" style="fill:#292f33;fill-opacity:1;fill-rule:nonzero;stroke:none"/></g><g transform="translate(28.7949,12.4385)" id="g46"><path d="M 0,0 -1.928,-2.298 -1.162,-2.941 0.766,-0.644 0,0 z" id="path48" style="fill:#292f33;fill-opacity:1;fill-rule:nonzero;stroke:none"/></g><g transform="translate(29.4375,13.2051)" id="g50"><path d="M 0,0 0.766,-0.644 2.695,1.654 1.929,2.297 0,0 z" id="path52" style="fill:#292f33;fill-opacity:1;fill-rule:nonzero;stroke:none"/></g><g transform="translate(30.3271,11.1523)" id="g54"><path d="M 0,0 -1.929,-2.298 -1.162,-2.94 0.767,-0.643 0,0 z" id="path56" style="fill:#292f33;fill-opacity:1;fill-rule:nonzero;stroke:none"/></g><g transform="translate(30.9697,11.9189)" id="g58"><path d="M 0,0 0.767,-0.643 2.694,1.655 1.929,2.298 0,0 z" id="path60" style="fill:#292f33;fill-opacity:1;fill-rule:nonzero;stroke:none"/></g><g transform="translate(31.7363,26.7246)" id="g62"><path d="M 0,0 -0.766,-0.643 1.163,-2.941 1.93,-2.299 0,0 z" id="path64" style="fill:#292f33;fill-opacity:1;fill-rule:nonzero;stroke:none"/></g><g transform="translate(31.0938,27.4902)" id="g66"><path d="M 0,0 -1.928,2.299 -2.693,1.656 -0.766,-0.643 0,0 z" id="path68" style="fill:#292f33;fill-opacity:1;fill-rule:nonzero;stroke:none"/></g><g transform="translate(31.3672,22.498)" id="g70"><path d="M 0,0 -4.5,5.362 -3.733,6.005 0.766,0.643 0,0 z" id="path72" style="fill:#292f33;fill-opacity:1;fill-rule:nonzero;stroke:none"/></g><g transform="translate(28.0293,24.9199)" id="g74"><path d="M 0,0 -1.928,2.298 -2.693,1.654 -0.766,-0.644 0,0 z" id="path76" style="fill:#292f33;fill-opacity:1;fill-rule:nonzero;stroke:none"/></g><g transform="translate(28.6719,24.1533)" id="g78"><path d="M 0,0 -0.766,-0.644 1.163,-2.94 1.93,-2.298 0,0 z" id="path80" style="fill:#292f33;fill-opacity:1;fill-rule:nonzero;stroke:none"/></g><g transform="translate(11.8994,10.7822)" id="g82"><path d="M 0,0 -4.499,5.363 -3.734,6.006 0.766,0.644 0,0 z" id="path84" style="fill:#292f33;fill-opacity:1;fill-rule:nonzero;stroke:none"/></g><g transform="translate(8.562,13.2041)" id="g86"><path d="M 0,0 -1.928,2.299 -2.694,1.655 -0.766,-0.643 0,0 z" id="path88" style="fill:#292f33;fill-opacity:1;fill-rule:nonzero;stroke:none"/></g><g transform="translate(9.2046,12.4385)" id="g90"><path d="M 0,0 -0.766,-0.644 1.163,-2.941 1.929,-2.299 0,0 z" id="path92" style="fill:#292f33;fill-opacity:1;fill-rule:nonzero;stroke:none"/></g><g transform="translate(8.835,8.2119)" id="g94"><path d="M 0,0 -4.5,5.362 -3.733,6.005 0.766,0.643 0,0 z" id="path96" style="fill:#292f33;fill-opacity:1;fill-rule:nonzero;stroke:none"/></g><g transform="translate(9.5996,29.146)" id="g98"><path d="m 0,0 -4.499,-5.362 -0.767,0.642 4.5,5.363 L 0,0 z" id="path100" style="fill:#292f33;fill-opacity:1;fill-rule:nonzero;stroke:none"/></g><g transform="translate(11.1328,27.8604)" id="g102"><path d="M 0,0 -4.5,-5.362 -5.266,-4.72 -0.767,0.643 0,0 z" id="path104" style="fill:#292f33;fill-opacity:1;fill-rule:nonzero;stroke:none"/></g><g transform="translate(12.6641,26.5747)" id="g106"><path d="m 0,0 -4.499,-5.362 -0.767,0.643 4.5,5.362 L 0,0 z" id="path108" style="fill:#292f33;fill-opacity:1;fill-rule:nonzero;stroke:none"/></g></g></g></g></svg>
