<?xml version="1.0" encoding="UTF-8" standalone="no"?><svg xmlns:svg="http://www.w3.org/2000/svg" xmlns="http://www.w3.org/2000/svg" version="1.1" viewBox="0 0 47.5 47.5" style="enable-background:new 0 0 47.5 47.5;" id="svg2" xml:space="preserve"><defs id="defs6"><clipPath id="clipPath18"><path d="M 0,38 38,38 38,0 0,0 0,38 z" id="path20"/></clipPath></defs><g transform="matrix(1.25,0,0,-1.25,0,47.5)" id="g12"><g id="g14"><g clip-path="url(#clipPath18)" id="g16"><g transform="translate(37,5)" id="g22"><path d="m 0,0 c 0,-2.209 -1.791,-4 -4,-4 l -28,0 c -2.209,0 -4,1.791 -4,4 l 0,28 c 0,2.209 1.791,4 4,4 l 28,0 c 2.209,0 4,-1.791 4,-4 L 0,0 z" id="path24" style="fill:#3b88c3;fill-opacity:1;fill-rule:nonzero;stroke:none"/></g><g transform="translate(9,27.8438)" id="g26"><path d="M 0,0 C 0,1.55 1.167,2.418 2.5,2.418 3.833,2.418 5,1.55 5,0 l 0,-10.821 c 0,-2.853 2.055,-4.923 5,-4.923 2.822,0 5,2.194 5,4.923 L 15,0 c 0,1.55 1.168,2.418 2.5,2.418 1.334,0 2.467,-0.868 2.467,-2.418 l 0,-11.069 c 0,-5.209 -4.852,-9.147 -9.967,-9.147 -5.178,0 -10,3.876 -10,9.147 L 0,0 z" id="path28" style="fill:#ffffff;fill-opacity:1;fill-rule:nonzero;stroke:none"/></g></g></g></g></svg>
