<svg xmlns="http://www.w3.org/2000/svg" viewBox="0 0 47.5 47.5" enable-background="new 0 0 47.5 47.5"><defs><clipPath id="a"><path d="M0 38h38V0H0v38z"/></clipPath></defs><g><g><g clip-path="url(#a)" transform="matrix(1.25 0 0 -1.25 0 47.5)"><g><path fill="#3b88c3" d="M37 5c0-2.2-1.8-4-4-4H5C2.8 1 1 2.8 1 5v28c0 2.2 1.8 4 4 4h28c2.2 0 4-1.8 4-4V5z"/></g><g><path fill="#fff" d="M12.28 29.68c0 .64.43 1.02 1.13 1.02.68 0 1.2-.38 1.2-1.02v-4.3h8.82v4.3c0 .64.4 1.02 1.1 1.02.7 0 1.2-.38 1.2-1.02v-4.3h4.13c.73 0 1.02-.45 1.02-1.05 0-.6-.3-1.08-1-1.08h-4.15v-2.9c0-3.25-.68-5.82-1.97-7.7-1.68-2.43-4.67-4.2-8-4.76-.13-.03-.24-.03-.34-.03-.6 0-.94.3-1.05.83-.02.1-.02.2-.02.3 0 .54.35.9.97 1 2.64.46 5.24 2.05 6.53 3.94 1.08 1.57 1.6 3.7 1.6 6.88v2.43H14.6V16.6c0-.66-.52-1-1.2-1-.7 0-1.12.34-1.12 1v6.65H8.12c-.7 0-1 .5-1 1.08 0 .6.3 1.03 1.03 1.03h4.13v4.32z"/></g></g></g></g></svg>