<?xml version="1.0" encoding="UTF-8" standalone="no"?><svg xmlns:dc="http://purl.org/dc/elements/1.1/" xmlns:cc="http://creativecommons.org/ns#" xmlns:rdf="http://www.w3.org/1999/02/22-rdf-syntax-ns#" xmlns:svg="http://www.w3.org/2000/svg" xmlns="http://www.w3.org/2000/svg" viewBox="0 0 47.5 47.5" style="enable-background:new 0 0 47.5 47.5;" xml:space="preserve" version="1.1" id="svg2"><metadata id="metadata8"><rdf:RDF><cc:Work rdf:about=""><dc:format>image/svg+xml</dc:format><dc:type rdf:resource="http://purl.org/dc/dcmitype/StillImage"/></cc:Work></rdf:RDF></metadata><defs id="defs6"><clipPath id="clipPath16" clipPathUnits="userSpaceOnUse"><path id="path18" d="M 0,38 38,38 38,0 0,0 0,38 Z"/></clipPath></defs><g transform="matrix(1.25,0,0,-1.25,0,47.5)" id="g10"><g id="g12"><g clip-path="url(#clipPath16)" id="g14"><g transform="translate(37,5)" id="g20"><path id="path22" style="fill:#3b88c3;fill-opacity:1;fill-rule:nonzero;stroke:none" d="m 0,0 c 0,-2.209 -1.791,-4 -4,-4 l -28,0 c -2.209,0 -4,1.791 -4,4 l 0,28 c 0,2.209 1.791,4 4,4 l 28,0 c 2.209,0 4,-1.791 4,-4 L 0,0 Z"/></g><g transform="translate(12.2754,29.6763)" id="g24"><path id="path26" style="fill:#ffffff;fill-opacity:1;fill-rule:nonzero;stroke:none" d="M 0,0 C 0,0.648 0.432,1.026 1.134,1.026 1.809,1.026 2.321,0.648 2.321,0 l 0,-4.292 8.827,0 0,4.292 c 0,0.648 0.405,1.026 1.107,1.026 0.675,0 1.187,-0.378 1.187,-1.026 l 0,-4.292 4.13,0 c 0.729,0 1.027,-0.458 1.027,-1.052 0,-0.594 -0.298,-1.08 -0.999,-1.08 l -4.158,0 0,-2.889 c 0,-3.266 -0.674,-5.83 -1.969,-7.72 -1.674,-2.428 -4.671,-4.183 -7.991,-4.75 -0.135,-0.027 -0.243,-0.027 -0.351,-0.027 -0.593,0 -0.944,0.297 -1.052,0.837 -0.027,0.108 -0.027,0.188 -0.027,0.297 0,0.54 0.35,0.89 0.971,0.999 2.645,0.459 5.237,2.051 6.533,3.94 1.079,1.567 1.592,3.698 1.592,6.883 l 0,2.43 -8.827,0 0,-6.641 c 0,-0.674 -0.512,-1.025 -1.187,-1.025 -0.702,0 -1.134,0.351 -1.134,1.025 l 0,6.641 -4.157,0 c -0.701,0 -0.998,0.486 -0.998,1.08 0,0.594 0.297,1.025 1.025,1.025 L 0,-4.319 0,0 Z"/></g></g></g></g></svg>
