<svg xmlns="http://www.w3.org/2000/svg" viewBox="0 0 47.5 47.5" enable-background="new 0 0 47.5 47.5"><defs><clipPath id="a"><path d="M0 38h38V0H0v38z"/></clipPath></defs><g><g><g clip-path="url(#a)" transform="matrix(1.25 0 0 -1.25 0 47.5)"><g><path fill="#5c913b" d="M37 5c0-2.2-1.8-4-4-4H5C2.8 1 1 2.8 1 5v28c0 2.2 1.8 4 4 4h28c2.2 0 4-1.8 4-4V5z"/></g><g><path fill="#fff" d="M18.8 12.6V9.8c0-.5.23-.64.72-.64h7.18c.5 0 .75.13.75.65v2.8H18.8zm8.65 4.2c0 .52-.26.65-.75.65h-7.18c-.5 0-.73-.13-.73-.65v-2.55h8.65v2.55zm-8.58 7.38c0-.96.42-1.1 4.78-1.1 3.7 0 4.3.22 4.63.77.18.28.34.85.42 1.58.05.47.34.7.83.7h.16c.53-.05.87-.36.87-.8v-.1c-.1-1.18-.34-2.14-.88-2.8-.66-.85-1.55-1.18-6.07-1.18-5.8 0-6.7.28-6.7 2.47v6.42c0 .47.35.73.95.73.57 0 1-.26 1-.73v-2.58c3.16.42 6.83 1.36 9.2 2.37.18.08.33.1.5.1.35 0 .64-.23.8-.62.07-.17.1-.33.1-.46 0-.36-.2-.62-.6-.78-2.86-1.12-6.55-1.95-10-2.3v-1.68zm8.4-5c1.4 0 2.1-.6 2.1-2.07V9.45c0-1.43-.7-2.05-2.1-2.05h-8.3c-1.37 0-2.1.6-2.1 2.04v7.67c0 1.47.73 2.07 2.1 2.07h8.3zm-12.17 6.7c.5 0 .75-.37.75-.9 0-.54-.26-.93-.75-.93h-2.3V18.9c.74.27 1.47.53 2.07.8.15.04.26.06.4.06.3 0 .5-.18.64-.57.08-.16.1-.32.1-.45 0-.3-.15-.52-.5-.68-.8-.36-1.73-.75-2.7-1.1V9.5c0-1.88-.74-2.45-2.6-2.45-.92 0-1.55.05-2.12.2-.44.1-.68.45-.68.92 0 .08 0 .15.03.26.08.44.36.73.78.73.1 0 .2 0 .27-.03.42-.1 1-.18 1.38-.18.83 0 1 .15 1 .9v6.48c-.95-.28-1.86-.54-2.67-.75-.1-.03-.18-.03-.26-.03-.44 0-.75.26-.85.78-.03.13-.06.24-.06.37 0 .4.25.67.66.72.97.24 2.08.52 3.2.86v5.77h-3c-.46 0-.72.4-.72.9 0 .56.26.92.73.92h3v4.4c0 .52.33.78.93.78.62 0 1-.26 1-.78v-4.4h2.3z"/></g></g></g></g></svg>