<svg xmlns="http://www.w3.org/2000/svg" viewBox="0 0 47.5 47.5" enable-background="new 0 0 47.5 47.5"><defs><clipPath id="a"><path d="M0 38h38V0H0v38z"/></clipPath></defs><g><g><g clip-path="url(#a)" transform="matrix(1.25 0 0 -1.25 0 47.5)"><g><path fill="#9266cc" d="M37 5c0-2.2-1.8-4-4-4H5C2.8 1 1 2.8 1 5v28c0 2.2 1.8 4 4 4h28c2.2 0 4-1.8 4-4V5z"/></g><g><path fill="#fff" d="M27.9 27.75c1.52 0 2.27-.68 2.27-2.16v-1.62c0-.5-.36-.73-.96-.73s-.98.23-.98.73v1.2c0 .57-.3.75-.83.75h-5.3v-4.5c0-.83.14-.94 2.64-.94 2.08 0 2.34.15 2.65.46.17.18.23.63.25 1.17.05.42.34.6.78.6.08 0 .16 0 .26-.03.6-.05.9-.36.9-.83v-.13c-.08-.9-.28-1.74-.62-2.1-.47-.52-1.15-.9-3.88-.9h-.54c-1.6 0-2.7.1-3.4.35-.7.25-1 .74-1 1.65v5.18h-3.04c-.2-4.53-2.8-7.1-7.93-8.43-.14-.05-.24-.05-.35-.05-.44 0-.75.26-.86.73-.03.1-.06.23-.06.34 0 .4.3.7.76.8 4.3 1.07 6.32 3.12 6.5 6.6h-4.53c-.54 0-.83-.17-.83-.75V23c0-.53-.4-.8-1-.8s-.98.27-.98.8v2.6c0 1.47.76 2.15 2.3 2.15h7.72v2.3c0 .48.36.7.98.7.63 0 1-.22 1-.7v-2.3h8.03zM10.46 14.28c-.47 0-.76.34-.76.88 0 .58.3.94.77.94h17.1c.47 0 .76-.36.76-.9 0-.56-.3-.92-.76-.92H19.9v-4.9h9.96c.5 0 .76-.35.76-.9 0-.54-.26-.93-.76-.93H8.16c-.48 0-.76.4-.76.93 0 .57.28.9.75.9h9.7v4.9h-7.38z"/></g></g></g></g></svg>