<?xml version="1.0" encoding="UTF-8" standalone="no"?>
<!-- Created with Inkscape (http://www.inkscape.org/) -->

<svg
   xmlns:svg="http://www.w3.org/2000/svg"
   xmlns="http://www.w3.org/2000/svg"
   version="1.1"
   width="47.5"
   height="47.5"
   id="svg2"
   xml:space="preserve"><defs
     id="defs6"><clipPath
       id="clipPath18"><path
         d="M 0,38 38,38 38,0 0,0 0,38 z"
         id="path20" /></clipPath></defs><g
     transform="matrix(1.25,0,0,-1.25,0,47.5)"
     id="g12"><g
       id="g14"><g
         clip-path="url(#clipPath18)"
         id="g16"><g
           transform="translate(37,5)"
           id="g22"><path
             d="m 0,0 c 0,-2.209 -1.791,-4 -4,-4 l -28,0 c -2.209,0 -4,1.791 -4,4 l 0,28 c 0,2.209 1.791,4 4,4 l 28,0 c 2.209,0 4,-1.791 4,-4 L 0,0 z"
             id="path24"
             style="fill:#f4900c;fill-opacity:1;fill-rule:nonzero;stroke:none" /></g><g
           transform="translate(25.6572,27.2788)"
           id="g26"><path
             d="m 0,0 c 0,0.52 -0.261,0.676 -0.806,0.676 l -10.634,0 c -0.52,0 -0.832,-0.156 -0.832,-0.676 l 0,-3.432 L 0,-3.432 0,0 z m -12.272,-5.382 c -0.027,-1.456 -0.027,-2.938 -0.183,-4.395 l 12.455,0 0,4.395 -12.272,0 z m -0.416,-6.344 c -0.469,-3.276 -1.457,-5.877 -3.329,-8.035 -0.234,-0.26 -0.545,-0.39 -0.858,-0.39 -0.26,0 -0.52,0.078 -0.754,0.26 -0.286,0.208 -0.416,0.52 -0.416,0.807 0,0.233 0.104,0.493 0.286,0.702 2.861,3.119 3.432,7.227 3.432,14.534 l 0,4.238 c 0,1.586 0.78,2.236 2.341,2.236 l 11.7,0 c 1.534,0 2.314,-0.65 2.314,-2.236 l 0,-17.889 c 0,-1.69 -0.702,-2.444 -3.354,-2.444 -1.015,0 -2.002,0.104 -2.834,0.286 -0.494,0.104 -0.806,0.416 -0.806,0.936 0,0.078 0,0.182 0.026,0.286 0.129,0.546 0.468,0.78 0.832,0.78 0.078,0 0.156,0 0.234,-0.026 0.676,-0.182 1.482,-0.285 2.288,-0.285 1.352,0 1.586,0.207 1.586,1.039 l 0,5.201 -12.688,0 z"
             id="path28"
             style="fill:#ffffff;fill-opacity:1;fill-rule:nonzero;stroke:none" /></g></g></g></g></svg>