<svg xmlns="http://www.w3.org/2000/svg" viewBox="0 0 47.5 47.5" enable-background="new 0 0 47.5 47.5"><defs><clipPath id="a"><path d="M0 38h38V0H0v38z"/></clipPath></defs><g><g><g clip-path="url(#a)" transform="matrix(1.25 0 0 -1.25 0 47.5)"><g><path fill="#f4900c" d="M37 5c0-2.2-1.8-4-4-4H5C2.8 1 1 2.8 1 5v28c0 2.2 1.8 4 4 4h28c2.2 0 4-1.8 4-4V5z"/></g><path fill="#fff" d="M14.25 14.5H25.7l.02 2.6H14.24v-2.6zm11.46 6.23c.02.52-.24.7-.76.7h-9.9c-.53 0-.8-.18-.8-.7v-1.87h11.47l.02 1.87zm-13.45-3.3c0 .57.02 1.55.2 2.28-1.22-1.3-2.54-2.5-3.87-3.44-.26-.2-.52-.3-.75-.3-.3 0-.55.14-.76.45-.13.2-.2.4-.2.6 0 .3.12.56.46.8 3.1 2 5.72 5 7.44 8.18h-6.7c-.48 0-.74.44-.74.96 0 .55.26.94.73.94h7.64c.37.86.68 1.74.9 2.6.12.47.4.67.87.67.1 0 .2 0 .3-.02.56-.1.77-.42.77-.76 0-.1-.03-.2-.05-.3-.22-.74-.48-1.46-.77-2.2H30.2c.5 0 .77-.38.77-.93 0-.52-.26-.96-.76-.96H16.86c-.55-1-1.12-2-1.77-2.96.5.13 1.46.18 2.18.18h8.1c1.58 0 2.3-.65 2.3-2.2V9.66c0-1.82-.93-2.5-3.14-2.5-1.07 0-2.06.1-2.8.3-.45.1-.74.4-.74.87 0 .08 0 .2.03.3.1.43.42.72.8.72.1 0 .17 0 .27-.05.6-.17 1.46-.32 2.16-.32 1.22 0 1.48.2 1.48 1.1v2.67H14.26V7.68c0-.47-.42-.78-1-.78-.6 0-1 .3-1 .78v9.75z"/></g></g></g></svg>