<svg xmlns="http://www.w3.org/2000/svg" viewBox="0 0 47.5 47.5" enable-background="new 0 0 47.5 47.5"><defs><clipPath id="a"><path d="M0 38h38V0H0v38z"/></clipPath></defs><g><g><g clip-path="url(#a)" transform="matrix(1.25 0 0 -1.25 0 47.5)"><g><path fill="#f4900c" d="M37 5c0-2.2-1.8-4-4-4H5C2.8 1 1 2.8 1 5v28c0 2.2 1.8 4 4 4h28c2.2 0 4-1.8 4-4V5z"/></g><g><path fill="#fff" d="M23.76 18.75c.52 0 .75.13.75.65v1.95c0 .5-.22.62-.74.62h-9.6c-.54 0-.75-.13-.75-.62V19.4c0-.52.22-.65.76-.65h9.6zm2.03-9.57c.56 0 .8.13.8.65v2.63c0 .52-.24.65-.8.65H12.15c-.57 0-.8-.12-.8-.64V9.83c0-.52.23-.65.8-.65H25.8zm.58 5.64c1.46 0 2.2-.6 2.2-2.02V9.44c0-1.43-.74-2.03-2.2-2.03H11.56c-1.45 0-2.18.6-2.18 2.04v3.36c0 1.43.73 2.02 2.18 2.02h4.66c.4.73.78 1.54 1.12 2.32h-3.62c-1.6 0-2.23.52-2.23 1.92v2.65c0 1.44.6 1.94 2.22 1.94H24.2c1.6 0 2.24-.5 2.24-1.93v-2.64c0-1.4-.63-1.92-2.24-1.92h-4.8c-.32-.8-.7-1.6-1.15-2.32h8.13zm1.5 12.5c1.55 0 2.25-.6 2.25-2v-3.55c0-.5-.37-.78-1-.78-.56 0-.98.27-.98.77v3.14c0 .58-.26.7-.83.7H10.58c-.52 0-.78-.12-.78-.7v-3.13c0-.5-.4-.78-1-.78s-.98.27-.98.77v3.56c0 1.4.68 2 2.24 2h2.62c-.44.75-1.04 1.64-1.4 2.13-.1.16-.16.3-.16.42 0 .3.24.57.57.7.18.08.36.13.5.13.33 0 .6-.12.8-.4.54-.8 1.27-1.98 1.76-2.97h3.64c-.34.78-.83 1.74-1.27 2.47-.08.13-.1.26-.1.37 0 .3.2.6.6.7.15.05.3.07.43.07.34 0 .6-.13.8-.46.5-.78 1.08-2.03 1.54-3.15h2.84c.7 1 1.32 2.05 1.7 2.9.22.43.5.58.87.58.17 0 .32 0 .48-.06.44-.13.65-.4.65-.7 0-.16-.05-.32-.13-.47-.34-.68-.83-1.46-1.38-2.24h2.47z"/></g></g></g></g></svg>