<?xml version="1.0" encoding="UTF-8" standalone="no"?>
<!-- Created with Inkscape (http://www.inkscape.org/) -->

<svg
   xmlns:svg="http://www.w3.org/2000/svg"
   xmlns="http://www.w3.org/2000/svg"
   version="1.1"
   width="47.5"
   height="47.5"
   id="svg2"
   xml:space="preserve"><defs
     id="defs6"><clipPath
       id="clipPath18"><path
         d="M 0,38 38,38 38,0 0,0 0,38 z"
         id="path20" /></clipPath></defs><g
     transform="matrix(1.25,0,0,-1.25,0,47.5)"
     id="g12"><g
       id="g14"><g
         clip-path="url(#clipPath18)"
         id="g16"><g
           transform="translate(37,5)"
           id="g22"><path
             d="m 0,0 c 0,-2.209 -1.791,-4 -4,-4 l -28,0 c -2.209,0 -4,1.791 -4,4 l 0,28 c 0,2.209 1.791,4 4,4 l 28,0 c 2.209,0 4,-1.791 4,-4 L 0,0 z"
             id="path24"
             style="fill:#dd2e44;fill-opacity:1;fill-rule:nonzero;stroke:none" /></g><g
           transform="translate(30.2461,9.6182)"
           id="g26"><path
             d="m 0,0 c 0,-1.689 -0.858,-2.47 -2.887,-2.47 -0.832,0 -2.002,0.078 -2.73,0.234 -0.363,0.078 -0.623,0.416 -0.623,0.858 0,0.105 0,0.183 0.025,0.286 0.104,0.52 0.416,0.78 0.807,0.78 0.052,0 0.129,0 0.181,-0.026 0.598,-0.13 1.508,-0.234 2.081,-0.234 0.988,0 1.169,0.182 1.169,1.041 l 0,19.813 c 0,0.493 0.39,0.78 0.989,0.78 0.597,0 0.988,-0.287 0.988,-0.78 L 0,0 z m -4.889,4.03 c 0,-0.494 -0.416,-0.727 -0.988,-0.727 -0.546,0 -0.988,0.26 -0.988,0.727 l 0,14.951 c 0,0.495 0.442,0.728 0.988,0.728 0.572,0 0.988,-0.259 0.988,-0.728 l 0,-14.951 z m -7.67,-4.602 c 0.494,0 0.728,0.131 0.728,0.625 l 0,2.912 c 0,0.519 -0.234,0.649 -0.728,0.649 l -6.032,0 c -0.494,0 -0.728,-0.13 -0.728,-0.649 l 0,-2.912 c 0,-0.494 0.234,-0.625 0.728,-0.625 l 6.032,0 z m 0.598,5.772 c 1.456,0 2.08,-0.546 2.08,-1.975 l 0,-3.433 c 0,-1.43 -0.624,-1.976 -2.08,-1.976 l -7.202,0 c -1.456,0 -2.107,0.546 -2.107,1.976 l 0,3.433 c 0,1.429 0.651,1.975 2.107,1.975 l 7.202,0 z m 1.638,14.015 c 1.378,0 2.028,-0.571 2.028,-1.976 l 0,-1.69 c 0,-0.572 -0.363,-0.78 -0.91,-0.78 -0.546,0 -0.884,0.234 -0.884,0.702 l 0,1.456 c 0,0.52 -0.26,0.651 -0.728,0.651 l -9.308,0 c -0.494,0 -0.729,-0.131 -0.729,-0.651 l 0,-1.742 c 0,-0.468 -0.416,-0.727 -0.935,-0.727 -0.521,0 -0.91,0.233 -0.91,0.805 l 0,1.976 c 0,1.405 0.65,1.976 2.028,1.976 l 4.238,0 0,1.405 c 0,0.467 0.39,0.728 0.988,0.728 0.624,0 1.014,-0.261 1.014,-0.728 l 0,-1.405 4.108,0 z m -10.4,-8.918 c -0.416,0 -0.65,0.364 -0.65,0.78 0,0.416 0.234,0.78 0.65,0.78 l 4.394,0 0,1.794 -3.484,0 c -0.468,0 -0.65,0.338 -0.65,0.78 0,0.416 0.234,0.754 0.65,0.754 l 3.484,0 0,1.222 c 0,0.468 0.338,0.702 0.858,0.702 0.546,0 0.858,-0.234 0.858,-0.702 l 0,-1.222 3.588,0 c 0.416,0 0.65,-0.338 0.65,-0.754 0,-0.442 -0.182,-0.78 -0.65,-0.78 l -3.588,0 0,-1.794 4.264,0 c 0.39,0 0.65,-0.364 0.65,-0.78 0,-0.416 -0.26,-0.78 -0.65,-0.78 l -4.264,0 0,-1.846 5.616,0 c 0.39,0 0.624,-0.339 0.624,-0.806 0,-0.416 -0.234,-0.781 -0.624,-0.781 l -13.313,0 c -0.416,0 -0.624,0.365 -0.624,0.781 0,0.467 0.208,0.806 0.624,0.806 l 5.981,0 0,1.846 -4.394,0 z"
             id="path28"
             style="fill:#ffffff;fill-opacity:1;fill-rule:nonzero;stroke:none" /></g></g></g></g></svg>