<svg xmlns="http://www.w3.org/2000/svg" viewBox="0 0 47.5 47.5" enable-background="new 0 0 47.5 47.5"><defs><clipPath id="a"><path d="M0 38h38V0H0v38z"/></clipPath></defs><g><g><g clip-path="url(#a)" transform="matrix(1.25 0 0 -1.25 0 47.5)"><g><path fill="#dd2e44" d="M19 3C10.16 3 3 10.16 3 19s7.16 16 16 16 16-7.16 16-16S27.84 3 19 3m0 34C9.06 37 1 28.94 1 19S9.06 1 19 1s18 8.06 18 18-8.06 18-18 18"/></g><g><path fill="#dd2e44" d="M18.38 23.7c0-.5.23-.62.7-.62h7.98c.47 0 .7.13.7.62v1.43h-9.38V23.7zm9.38 2.97v1.38c0 .46-.23.6-.7.6h-7.98c-.47 0-.7-.14-.7-.6v-1.38h9.38zm-9.23-12.72c.26 0 .52-.1.68-.26.92-.9 1.8-1.88 2.45-2.76.1-.16.16-.34.16-.52 0-.3-.12-.57-.4-.8-.24-.22-.5-.3-.74-.3-.26 0-.52.1-.65.32-.64.93-1.55 2.05-2.3 2.83-.16.16-.23.37-.23.55 0 .26.13.5.36.7.2.16.47.23.7.23m8.92 16.25c1.48 0 2.13-.57 2.13-1.95v-4.78c0-1.38-.65-1.95-2.13-1.95H18.7c-1.5 0-2.14.57-2.14 1.95v4.78c0 1.38.65 1.95 2.15 1.95h8.75zm.4-13.98h2.82c.47 0 .7-.32.7-.84 0-.5-.23-.83-.7-.83h-2.83V9.6c0-1.8-.94-2.4-2.9-2.4-.92 0-1.8.05-2.48.2-.37.08-.68.42-.68.9 0 .06 0 .14.03.22.1.52.48.78.8.78.07 0 .1 0 .14-.03.68-.18 1.5-.23 1.98-.23 1 0 1.22.18 1.22 1v4.5H14.7c-.46 0-.7.32-.7.82 0 .54.24.86.7.86h11.24v2H15.07c-.46 0-.7.36-.7.83 0 .5.24.83.7.83H30.5c.43 0 .67-.34.67-.83 0-.47-.24-.83-.68-.83h-2.66v-2zM14.7 30.08c0-.16-.04-.34-.15-.5-1.22-1.98-3.14-4-5.1-5.46-.2-.18-.43-.26-.64-.26-.25 0-.5.13-.72.42-.16.18-.23.4-.23.6 0 .28.15.54.4.75 1.86 1.27 3.52 3.1 4.6 4.94.22.26.5.4.8.4.2 0 .38-.06.57-.17.3-.18.5-.44.5-.72m-4-14.62c0 1.07.06 2.2.27 3.4-.66-.8-1.36-1.5-2.1-2.05-.14-.12-.3-.17-.5-.17-.27 0-.55.13-.8.4-.12.2-.17.4-.17.62 0 .28.1.54.34.72 2.23 1.75 3.92 3.9 5.2 6.22.18.3.44.46.73.46.18 0 .36-.06.52-.16.36-.18.52-.44.52-.75 0-.16-.06-.32-.13-.47-.5-.9-1.2-1.95-1.92-2.9V7.6c0-.5-.4-.75-1-.75-.56 0-.97.26-.97.75v7.88z"/></g></g></g></g></svg>