<?xml version="1.0" encoding="UTF-8" standalone="no"?><svg xmlns:svg="http://www.w3.org/2000/svg" xmlns="http://www.w3.org/2000/svg" version="1.1" viewBox="0 0 47.5 47.5" style="enable-background:new 0 0 47.5 47.5;" id="svg2" xml:space="preserve"><defs id="defs6"><clipPath id="clipPath18"><path d="M 0,38 38,38 38,0 0,0 0,38 z" id="path20"/></clipPath></defs><g transform="matrix(1.25,0,0,-1.25,0,47.5)" id="g12"><g id="g14"><g clip-path="url(#clipPath18)" id="g16"><g transform="translate(37,18.9995)" id="g22"><path d="m 0,0 c 0,-9.941 -8.059,-18 -18,-18 -9.941,0 -18,8.059 -18,18 0,9.941 8.059,18 18,18 C -8.059,18 0,9.941 0,0" id="path24" style="fill:#f4900c;fill-opacity:1;fill-rule:nonzero;stroke:none"/></g><g transform="translate(18.2588,14.4785)" id="g26"><path d="m 0,0 c 0.546,0 0.806,0.156 0.806,0.729 l 0,6.37 C 0.806,7.671 0.546,7.827 0,7.827 l -5.304,0 c -0.52,0 -0.78,-0.156 -0.78,-0.728 l 0,-6.37 C -6.084,0.156 -5.824,0 -5.304,0 L 0,0 z m 2.808,0.443 c 0,-1.664 -0.728,-2.314 -2.366,-2.314 l -6.136,0 c -1.664,0 -2.392,0.65 -2.392,2.314 l 0,6.942 c 0,1.664 0.728,2.314 2.392,2.314 l 6.136,0 c 1.638,0 2.366,-0.65 2.366,-2.314 l 0,-6.942 z m -13.079,12.532 c -0.494,0 -0.779,0.39 -0.779,0.962 0,0.546 0.285,0.936 0.779,0.936 l 22.049,0 c 0.468,0 0.754,-0.39 0.754,-0.936 0,-0.546 -0.286,-0.962 -0.754,-0.962 l -2.599,0 0,-17.914 c 0,-1.899 -0.859,-2.653 -3.277,-2.653 -1.092,0 -2.391,0.131 -3.406,0.365 -0.494,0.104 -0.78,0.467 -0.78,0.936 0,0.078 0,0.182 0.026,0.285 0.105,0.522 0.416,0.807 0.859,0.807 0.078,0 0.181,0 0.259,-0.026 0.884,-0.234 2.028,-0.39 2.834,-0.39 1.092,0 1.405,0.234 1.405,1.248 l 0,17.342 -17.37,0 z" id="path28" style="fill:#ffffff;fill-opacity:1;fill-rule:nonzero;stroke:none"/></g></g></g></g></svg>
