<?xml version="1.0" encoding="UTF-8" standalone="no"?><svg xmlns:svg="http://www.w3.org/2000/svg" xmlns="http://www.w3.org/2000/svg" version="1.1" viewBox="0 0 47.5 47.5" style="enable-background:new 0 0 47.5 47.5;" id="svg2" xml:space="preserve"><defs id="defs6"><clipPath id="clipPath18"><path d="M 0,38 38,38 38,0 0,0 0,38 z" id="path20"/></clipPath><clipPath id="clipPath30"><path d="M 5,37 C 5,37 1,37 1,33 L 1,33 1,5 C 1,1 5,1 5,1 l 0,0 28,0 c 4,0 4,4 4,4 l 0,0 0,28 c 0,0 0,4 -4,4 l 0,0 -28,0 z" id="path32"/></clipPath><clipPath id="clipPath42"><path d="M 15,24 C 13,20 1,11 1,11 L 1,11 1,5 C 1,1 5,1 5,1 l 0,0 28,0 c 4,0 4,4 4,4 l 0,0 0,6 c 0,0 -9,5 -14,13 l 0,0 c -0.75,1.199 -2,-2 -4,-2 l 0,0 c -1.6,0 -2.56,2.56 -3.392,2.56 l 0,0 C 15.4,24.56 15.2,24.4 15,24" id="path44"/></clipPath><clipPath id="clipPath54"><path d="M 0,38 38,38 38,0 0,0 0,38 z" id="path56"/></clipPath></defs><g transform="matrix(1.25,0,0,-1.25,0,47.5)" id="g12"><g id="g14"><g clip-path="url(#clipPath18)" id="g16"><g transform="translate(37,5)" id="g22"><path d="m 0,0 c 0,0 0,-4 -4,-4 l -28,0 c 0,0 -4,0 -4,4 l 0,28 c 0,4 4,4 4,4 l 28,0 c 4,0 4,-4 4,-4 L 0,0 z" id="path24" style="fill:#c1694f;fill-opacity:1;fill-rule:nonzero;stroke:none"/></g></g></g><g id="g26"><g clip-path="url(#clipPath30)" id="g28"><g transform="translate(1,11)" id="g34"><path d="m 0,0 c 0,0 12,9 14,13 1,2 2,-2 4,-2 2,0 3.25,3.199 4,2 C 27,5 36,0 36,0 l 0,-10 -36,0 0,10 z" id="path36" style="fill:#662213;fill-opacity:1;fill-rule:nonzero;stroke:none"/></g></g></g><g id="g38"><g clip-path="url(#clipPath42)" id="g40"><g transform="translate(15,24)" id="g46"><path d="m 0,0 -10,-10 c 0,0 7.105,7.789 8,6 0.558,-1.116 -2.11,-3.881 -4.437,-4.938 -2.282,-1.035 -2.67,-2.838 -1.344,-3.281 0.829,-0.276 2.983,0.175 4.027,2.456 1.321,2.887 4.276,5.989 4.965,5.538 1.532,-1 -2.367,-7.244 -5.149,-10.494 -1.283,-1.499 -0.204,-3.072 0.938,-3.281 1.875,-0.344 3.5,1.469 3.807,4.14 0.442,3.847 1.62,7.502 3.349,7.423 2.904,-0.133 0.719,-8.032 4.719,-7.032 1.411,0.353 1.766,2.231 0.281,3.469 -1.477,1.232 -2.423,3.733 -0.802,5.354 0.353,0.353 2,-0.691 2.802,-2.198 1.515,-2.844 3.208,0.951 1.911,1.987 C 12.286,-4.234 18,-8 18,-8 L 7,1 0,0 z" id="path48" style="fill:#be1931;fill-opacity:1;fill-rule:nonzero;stroke:none"/></g></g></g><g id="g50"><g clip-path="url(#clipPath54)" id="g52"><g transform="translate(23,24)" id="g58"><path d="m 0,0 c 0,-1.104 -1.791,-2 -4,-2 -2.209,0 -4,0.896 -4,2 0,1.104 1.791,2 4,2 2.209,0 4,-0.896 4,-2" id="path60" style="fill:#ffcc4d;fill-opacity:1;fill-rule:nonzero;stroke:none"/></g><g transform="translate(19,24)" id="g62"><path d="M 0,0 C -1.562,0 -1.5,2.031 -5,4 -7.756,5.55 -10.5,4.531 -12.438,1.937 -14.592,-0.947 -18.002,2.003 -14,5 -7.531,9.844 -3.313,3.406 -1.687,4.125 -0.876,4.484 -2.496,7.178 -5.007,8.317 -7.206,9.315 -8.439,11 -6.937,11.5 c 2.999,1 5.125,-2.719 6.125,-4.719 0.999,-2 2.124,-1.156 3.843,1.5 1,1.545 2.65,3.141 4.063,3.386 C 9.188,12.031 11.719,9.625 8.969,9.5 6.658,9.395 4,8 3,6 2,4 4.386,4.99 6.312,6.125 10.344,8.5 16,8 15,5 14,2 11.714,8.022 3.688,3.469 1.228,2.073 1.562,0 0,0" id="path64" style="fill:#ffac33;fill-opacity:1;fill-rule:nonzero;stroke:none"/></g></g></g></g></svg>
