<svg xmlns="http://www.w3.org/2000/svg" viewBox="0 0 47.5 47.5" enable-background="new 0 0 47.5 47.5"><defs><clipPath id="a"><path d="M0 38h38V0H0v38z"/></clipPath><clipPath id="b"><path d="M5 37s-4 0-4-4V5c0-4 4-4 4-4h28c4 0 4 4 4 4v28s0 4-4 4H5z"/></clipPath><clipPath id="c"><path d="M15 24C13 20 1 11 1 11V5c0-4 4-4 4-4h28c4 0 4 4 4 4v6s-9 5-14 13c-.75 1.2-2-2-4-2-1.6 0-2.56 2.56-3.4 2.56-.2 0-.4-.16-.6-.56"/></clipPath><clipPath id="d"><path d="M0 38h38V0H0v38z"/></clipPath></defs><g><g><g clip-path="url(#a)" transform="matrix(1.25 0 0 -1.25 0 47.5)"><g><path fill="#c1694f" d="M37 5s0-4-4-4H5S1 1 1 5v28c0 4 4 4 4 4h28c4 0 4-4 4-4V5z"/></g></g></g><g><g clip-path="url(#b)" transform="matrix(1.25 0 0 -1.25 0 47.5)"><g><path fill="#662213" d="M1 11s12 9 14 13c1 2 2-2 4-2s3.25 3.2 4 2c5-8 14-13 14-13V1H1v10z"/></g></g></g><g><g clip-path="url(#c)" transform="matrix(1.25 0 0 -1.25 0 47.5)"><g><path fill="#be1931" d="M15 24L5 14s7.1 7.8 8 6c.56-1.12-2.1-3.88-4.44-4.94-2.28-1.03-2.67-2.84-1.34-3.28.83-.27 2.98.18 4.03 2.46 1.32 2.88 4.27 6 4.96 5.54 1.54-1-2.36-7.25-5.14-10.5-1.28-1.5-.2-3.07.94-3.28 1.87-.34 3.5 1.47 3.8 4.14.45 3.85 1.63 7.5 3.36 7.42 2.9-.13.7-8.03 4.7-7.03 1.43.35 1.78 2.23.3 3.47-1.48 1.23-2.43 3.73-.8 5.35.35.36 2-.7 2.8-2.2 1.5-2.84 3.2.96 1.9 2C27.3 19.76 33 16 33 16l-11 9-7-1z"/></g></g></g><g><g clip-path="url(#d)" transform="matrix(1.25 0 0 -1.25 0 47.5)"><g><path fill="#ffcc4d" d="M23 24c0-1.1-1.8-2-4-2s-4 .9-4 2 1.8 2 4 2 4-.9 4-2"/></g><g><path fill="#ffac33" d="M19 24c-1.56 0-1.5 2.03-5 4-2.76 1.55-5.5.53-7.44-2.06C4.4 23.04 1 26 5 29c6.47 4.84 10.7-1.6 12.3-.88.82.36-.8 3.06-3.3 4.2-2.2 1-3.44 2.68-1.94 3.18 3 1 5.13-2.72 6.13-4.72 1-2 2.1-1.16 3.83 1.5 1 1.55 2.65 3.14 4.06 3.4 2.1.35 4.62-2.05 1.87-2.18C25.67 33.4 23 32 22 30s1.4-1 3.3.13C29.35 32.5 35 32 34 29s-3.3 3.02-11.3-1.53C20.22 26.07 20.55 24 19 24"/></g></g></g></g></svg>