<svg xmlns="http://www.w3.org/2000/svg" viewBox="0 0 47.5 47.5" enable-background="new 0 0 47.5 47.5"><defs><clipPath id="a"><path d="M5 37c-2.2 0-4-1.8-4-4V5c0-2.2 1.8-4 4-4h28c2.2 0 4 1.8 4 4v28c0 2.2-1.8 4-4 4H5z"/></clipPath></defs><g><g><g clip-path="url(#a)" transform="matrix(1.25 0 0 -1.25 0 47.5)"><path fill="#ffcc4d" d="M38 0H0v38h38V0z"/><g><path fill="#f4900c" d="M33.1 18.26c1.6.45 1.6 1.15.02 1.6l-.56.16-.56.16-2.94.9L31.38 23l.48.32.5.36c1.3 1.02 1 1.7-.63 1.5l-.64-.1-.64-.08-2.98-.34 1.77 3.18.3.56c.8 1.44.3 1.96-1.15 1.16l-.56-.28-.55-.28-2.64-1.5.34 2.96.08.63.08.63c.2 1.63-.5 1.92-1.52.62l-.4-.5L21 29l-.83 2.9-.35 1.2c-.45 1.6-1.2 1.6-1.64 0l-.17-.6-.17-.6L17 29l-1.85 2.35-.4.5-.4.5c-1.02 1.3-1.7 1-1.5-.62l.06-.64.1-.64.33-2.98-3.17 1.77-.56.3c-1.44.8-1.96.3-1.16-1.15l.3-.56 1.78-3.17-2.98.34-.63.1-.63.06c-1.63.2-1.92-.5-.63-1.52l.5-.4.5-.4L9 21l-2.9-.83-.6-.18-.6-.18c-1.6-.45-1.6-1.2 0-1.64l1.2-.35L9 17l-2.85-2.25-.5-.4c-1.3-1.02-1-1.7.62-1.5l.64.07.64.08 2.95.34L9 10.7l-.28-.54-.3-.56c-.8-1.44-.27-1.96 1.17-1.16l.55.3 3.2 1.78L13 7.54l-.08-.63-.08-.63c-.2-1.64.5-1.92 1.52-.63l.4.5.4.5L17 9l.83-2.9.18-.6.18-.62c.45-1.58 1.1-1.58 1.56 0L20 6.12l.9 2.9 1.9-2.36.43-.5.4-.5c1.03-1.3 1.7-1 1.53.63l-.08.64-.08.64-.34 2.95L27.28 9l.56-.28.56-.3c1.44-.8 1.96-.27 1.16 1.17l-.28.55-.28.56-1.5 2.64 2.96-.34.63-.08.63-.08c1.64-.2 1.92.5.63 1.52l-.5.4-.5.4L29 17.08l2.9.9 1.2.26z"/></g><g><path fill="#ffe8b6" d="M28.63 19c0-5.32-4.3-9.63-9.63-9.63-5.32 0-9.63 4.3-9.63 9.63 0 5.32 4.3 9.63 9.63 9.63 5.32 0 9.63-4.3 9.63-9.63"/></g><path fill="#269" d="M38 15H0V-3h38v18z"/><g><path fill="#3b88c3" d="M23 9c-1.98 0-3.25.75-4 1.44-.75-.7-2.02-1.44-4-1.44-3.58 0-4.84 2.45-4.9 2.55-.24.5-.04 1.1.45 1.35.5.24 1.1.04 1.34-.44.03-.08.82-1.46 3.1-1.46 2.3 0 3.08 1.4 3.1 1.46.2.33.52.52.9.53.4 0 .73-.22.9-.55.02-.05.8-1.45 3.1-1.45s3.08 1.4 3.1 1.46c.27.48.87.67 1.36.42.48-.25.68-.84.43-1.33C27.84 11.45 26.57 9 23 9"/></g><g><path fill="#3b88c3" d="M27 3c-1.98 0-3.25.75-4 1.44-.75-.7-2.02-1.44-4-1.44s-3.25.75-4 1.44C14.25 3.74 12.98 3 11 3 7.42 3 6.16 5.45 6.1 5.55c-.24.5-.04 1.1.45 1.35.5.24 1.1.04 1.34-.44C7.92 6.38 8.7 5 11 5c2.3 0 3.08 1.4 3.1 1.46.2.33.54.53.9.53.4 0 .73-.22.9-.55C15.92 6.4 16.7 5 19 5s3.08 1.4 3.1 1.46c.2.33.54.54.9.53.4 0 .73-.22.9-.55C23.91 6.4 24.7 5 27 5s3.08 1.4 3.1 1.46c.27.48.87.67 1.36.42.48-.25.68-.84.43-1.33C31.84 5.45 30.57 3 27 3"/></g></g></g></g></svg>