<svg xmlns="http://www.w3.org/2000/svg" viewBox="0 0 47.5 47.5" enable-background="new 0 0 47.5 47.5"><defs><clipPath id="a"><path d="M5 37c-2.2 0-4-1.8-4-4V5c0-2.2 1.8-4 4-4h28c2.2 0 4 1.8 4 4v28c0 2.2-1.8 4-4 4H5z"/></clipPath></defs><g><g><g clip-path="url(#a)" transform="matrix(1.25 0 0 -1.25 0 47.5)"><path fill="#88c9f9" d="M38 0H0v38h38V0z"/><g><path fill="#66757f" d="M11 1v29l4 4h2l4-4V1H11z"/></g><g><path fill="#66757f" d="M34 26c0 1-1.3 1-1.3 1h-6.4S25 27 25 26V1h9v25z"/></g><g><path fill="#292f33" d="M29 20c0 1-1 1-1 1h-8c-1 0-1-1-1-1V1h10v19z"/></g><g><path fill="#292f33" d="M7 23s0 1-1 1H1V1h6v22z"/></g><g><path fill="#292f33" d="M13 17s0 1-1 1H6s-1 0-1-1V1h8v16z"/></g><path fill="#ffcc4d" d="M11 6H9v2h2V6z"/><path fill="#ffcc4d" d="M11 14H9v2h2v-2z"/><path fill="#ffcc4d" d="M9 10H7v2h2v-2z"/><path fill="#ffcc4d" d="M19 26h-2v2h2v-2z"/><path fill="#ffcc4d" d="M19 22h-2v2h2v-2z"/><path fill="#ffcc4d" d="M17 18h-2v2h2v-2z"/><path fill="#ffcc4d" d="M27 17h-2v2h2v-2z"/><path fill="#ffcc4d" d="M25 13h-2v2h2v-2z"/><path fill="#ffcc4d" d="M23 7h-2v2h2V7z"/><path fill="#ffcc4d" d="M32 23h-2v2h2v-2z"/><path fill="#ffcc4d" d="M32 19h-2v2h2v-2z"/><g><path fill="#e1e8ed" d="M35 17c-2.13 0-3.93-1.33-4.65-3.2-.8 1.3-2.2 2.2-3.85 2.2-.76 0-1.47-.2-2.1-.54-.63.93-1.7 1.54-2.9 1.54-1.52 0-2.8-.98-3.3-2.34-.52.22-1.1.34-1.7.34-1.76 0-3.26-1.02-4-2.5-.6.3-1.28.5-2 .5-1.18 0-2.25-.47-3.05-1.2-.77.95-1.94 1.57-3.26 1.57C1.86 13.38 0 11.5 0 9.2 0 6.86 1.88 5 4.2 5c.98 0 1.88.36 2.6.94C7.62 4.77 8.97 4 10.5 4c.56 0 1.1.1 1.6.3.42-.2.9-.3 1.4-.3 1.4 0 2.6.83 3.16 2.02 1.13.04 2.15.5 2.92 1.22C20.13 6.5 21 6 22 6c1.1 0 2.04.6 2.56 1.46.6-.3 1.24-.46 1.94-.46 1.83 0 3.4 1.1 4.1 2.67C31.44 8.1 33.1 7 35 7c2.76 0 5 2.24 5 5s-2.24 5-5 5"/></g><g><path fill="#ccd6dd" d="M31 13.3c-2.93 0-5.43-1.8-6.47-4.35-.18.02-.35.05-.53.05-.7 0-1.37-.15-1.98-.4-.73.85-1.8 1.4-3.02 1.4-2.2 0-4-1.8-4-4 0-.05 0-.1 0-.15-.3.1-.65.15-1 .15-.88 0-1.68-.3-2.34-.77-.6.48-1.34.77-2.16.77-.2 0-.4-.03-.58-.06C8.3 7.72 6.6 9 4.6 9 2.06 9 0 6.94 0 4.4 0 1.84 2.06-.2 4.6-.2c.8 0 1.5.2 2.16.55C7.4-.47 8.38-1 9.5-1c.55 0 1.06.14 1.52.36C11.75-1.47 12.82-2 14-2c1.73 0 3.2 1.1 3.75 2.64.54-.4 1.2-.64 1.94-.64.37 0 .74.08 1.08.2.88-.74 2-1.2 3.22-1.2 1.3 0 2.47.5 3.36 1.32C28.42-.33 29.66-.7 31-.7c3.87 0 7 3.12 7 7 0 3.86-3.13 7-7 7"/></g></g></g></g></svg>