<?xml version="1.0" encoding="UTF-8" standalone="no"?>
<!-- Created with Inkscape (http://www.inkscape.org/) -->

<svg
   xmlns:svg="http://www.w3.org/2000/svg"
   xmlns="http://www.w3.org/2000/svg"
   version="1.1"
   width="47.5"
   height="47.5"
   id="svg2"
   xml:space="preserve"><defs
     id="defs6"><clipPath
       id="clipPath18"><path
         d="M 5,37 C 2.791,37 1,35.209 1,33 L 1,33 1,5 C 1,2.791 2.791,1 5,1 l 0,0 28,0 c 2.209,0 4,1.791 4,4 l 0,0 0,28 c 0,2.209 -1.791,4 -4,4 l 0,0 -28,0 z"
         id="path20" /></clipPath></defs><g
     transform="matrix(1.25,0,0,-1.25,0,47.5)"
     id="g12"><g
       id="g14"><g
         clip-path="url(#clipPath18)"
         id="g16"><path
           d="m 37,-1 -38,0 0,38 38,0 0,-38 z"
           id="path22"
           style="fill:#004a77;fill-opacity:1;fill-rule:nonzero;stroke:none" /><g
           transform="translate(-1,10)"
           id="g24"><path
             d="m 0,0 0,2 c 0.117,0.049 11.263,4.451 18,16 l 2,-1 C 12.911,4.847 0.503,0.206 0,0"
             id="path26"
             style="fill:#fe5011;fill-opacity:1;fill-rule:nonzero;stroke:none" /></g><g
           transform="translate(21,28)"
           id="g28"><path
             d="M 0,0 C 0,0 0,2 -2,2 -4,2 -4,0 -4,0 l 0,-28 4,0 0,28 z"
             id="path30"
             style="fill:#fe5011;fill-opacity:1;fill-rule:nonzero;stroke:none" /></g><path
           d="M 37,6 1,6 1,10 37,10 37,6 z"
           id="path32"
           style="fill:#fe5011;fill-opacity:1;fill-rule:nonzero;stroke:none" /><g
           transform="translate(39,10)"
           id="g34"><path
             d="m 0,0 0,2 c -0.117,0.049 -11.264,4.451 -18,16 l -2,-1 C -12.91,4.847 -0.503,0.206 0,0"
             id="path36"
             style="fill:#fe5011;fill-opacity:1;fill-rule:nonzero;stroke:none" /></g><path
           d="m 11,9 2,0 0,11 -2,0 0,-11 z"
           id="path38"
           style="fill:#fe5011;fill-opacity:1;fill-rule:nonzero;stroke:none" /><path
           d="m 27,9 -2,0 0,11 2,0 0,-11 z"
           id="path40"
           style="fill:#fe5011;fill-opacity:1;fill-rule:nonzero;stroke:none" /><path
           d="M 5,9 7,9 7,15 5,15 5,9 z"
           id="path42"
           style="fill:#fe5011;fill-opacity:1;fill-rule:nonzero;stroke:none" /><path
           d="m 33,8 -2,0 0,7 2,0 0,-7 z"
           id="path44"
           style="fill:#fe5011;fill-opacity:1;fill-rule:nonzero;stroke:none" /><g
           transform="translate(7.5,30)"
           id="g46"><path
             d="m 0,0 c -1.381,0 -2.5,1.119 -2.5,2.5 0,1.13 0.755,2.074 1.784,2.383 C -0.967,4.952 -1.227,5 -1.5,5 c -1.657,0 -3,-1.343 -3,-3 0,-1.657 1.343,-3 3,-3 0.959,0 1.803,0.458 2.353,1.159 C 0.585,0.062 0.301,0 0,0"
             id="path48"
             style="fill:#ffffff;fill-opacity:1;fill-rule:nonzero;stroke:none" /></g><g
           transform="translate(12,34.5)"
           id="g50"><path
             d="M 0,0 C 0,-0.276 -0.224,-0.5 -0.5,-0.5 -0.776,-0.5 -1,-0.276 -1,0 -1,0.276 -0.776,0.5 -0.5,0.5 -0.224,0.5 0,0.276 0,0"
             id="path52"
             style="fill:#ffffff;fill-opacity:1;fill-rule:nonzero;stroke:none" /></g><g
           transform="translate(28,25.5)"
           id="g54"><path
             d="M 0,0 C 0,-0.276 -0.224,-0.5 -0.5,-0.5 -0.776,-0.5 -1,-0.276 -1,0 -1,0.276 -0.776,0.5 -0.5,0.5 -0.224,0.5 0,0.276 0,0"
             id="path56"
             style="fill:#ffffff;fill-opacity:1;fill-rule:nonzero;stroke:none" /></g><g
           transform="translate(9,25.5)"
           id="g58"><path
             d="M 0,0 C 0,-0.276 -0.224,-0.5 -0.5,-0.5 -0.776,-0.5 -1,-0.276 -1,0 -1,0.276 -0.776,0.5 -0.5,0.5 -0.224,0.5 0,0.276 0,0"
             id="path60"
             style="fill:#ffffff;fill-opacity:1;fill-rule:nonzero;stroke:none" /></g><g
           transform="translate(24,32)"
           id="g62"><path
             d="m 0,0 c 0,-0.552 -0.447,-1 -1,-1 -0.553,0 -1,0.448 -1,1 0,0.552 0.447,1 1,1 0.553,0 1,-0.448 1,-1"
             id="path64"
             style="fill:#ffffff;fill-opacity:1;fill-rule:nonzero;stroke:none" /></g><g
           transform="translate(6,20)"
           id="g66"><path
             d="m 0,0 c 0,-0.552 -0.447,-1 -1,-1 -0.553,0 -1,0.448 -1,1 0,0.552 0.447,1 1,1 0.553,0 1,-0.448 1,-1"
             id="path68"
             style="fill:#ffffff;fill-opacity:1;fill-rule:nonzero;stroke:none" /></g><g
           transform="translate(14,30)"
           id="g70"><path
             d="m 0,0 c 0,-0.552 -0.447,-1 -1,-1 -0.553,0 -1,0.448 -1,1 0,0.552 0.447,1 1,1 0.553,0 1,-0.448 1,-1"
             id="path72"
             style="fill:#ffffff;fill-opacity:1;fill-rule:nonzero;stroke:none" /></g><g
           transform="translate(34,20)"
           id="g74"><path
             d="m 0,0 c 0,-0.552 -0.447,-1 -1,-1 -0.553,0 -1,0.448 -1,1 0,0.552 0.447,1 1,1 0.553,0 1,-0.448 1,-1"
             id="path76"
             style="fill:#ffffff;fill-opacity:1;fill-rule:nonzero;stroke:none" /></g><g
           transform="translate(28,31.5)"
           id="g78"><path
             d="M 0,0 C 0,-0.276 -0.224,-0.5 -0.5,-0.5 -0.776,-0.5 -1,-0.276 -1,0 -1,0.276 -0.776,0.5 -0.5,0.5 -0.224,0.5 0,0.276 0,0"
             id="path80"
             style="fill:#ffffff;fill-opacity:1;fill-rule:nonzero;stroke:none" /></g><g
           transform="translate(33,34)"
           id="g82"><path
             d="m 0,0 c 0,-0.552 -0.447,-1 -1,-1 -0.553,0 -1,0.448 -1,1 0,0.552 0.447,1 1,1 0.553,0 1,-0.448 1,-1"
             id="path84"
             style="fill:#ffffff;fill-opacity:1;fill-rule:nonzero;stroke:none" /></g><g
           transform="translate(33,29.5)"
           id="g86"><path
             d="M 0,0 C 0,-0.276 -0.224,-0.5 -0.5,-0.5 -0.776,-0.5 -1,-0.276 -1,0 -1,0.276 -0.776,0.5 -0.5,0.5 -0.224,0.5 0,0.276 0,0"
             id="path88"
             style="fill:#ffffff;fill-opacity:1;fill-rule:nonzero;stroke:none" /></g></g></g></g></svg>