<svg xmlns="http://www.w3.org/2000/svg" viewBox="0 0 47.5 47.5" enable-background="new 0 0 47.5 47.5"><defs><clipPath id="a"><path d="M0 38h38V0H0v38z"/></clipPath></defs><g><g><g clip-path="url(#a)" transform="matrix(1.25 0 0 -1.25 0 47.5)"><g><path fill="#553788" d="M37 5c0-2.2-1.8-4-4-4H5C2.8 1 1 2.8 1 5v28c0 2.2 1.8 4 4 4h28c2.2 0 4-1.8 4-4V5z"/></g><g><path fill="#744eaa" d="M33 37H20.24c-4.68-1.66.8-9-3.5-8.47-7.16.88-7.68-6.1-10.74-4.97-1.2.44-3.26 2.5-5 1V5c0-2.2 1.8-4 4-4h1.62c1.47 1.28.93 5.62 1.7 6.75 2.85 4.08 3.7 7.48 7.9 7.2 7.14-.5 8.47 4.84 10.72 7.17 2.25 2.34 6.06-1.54 10.06.2V33c0 2.2-1.8 4-4 4"/></g><g><path fill="#292f33" d="M37 5v2.97c-.77.84-1.92 1.78-2.58 1.7-1.28-.17-2.04-1.17-2.92-1.86-.88-.67-2.98-.26-4.67.87-1.68 1.12-4 .1-5.12-.47-1.87-.95-2.5 1.88-4.37 3.13s-4.7-2.83-5.83-3.58S9.04 8.93 8.22 9.5c-.8.56-1.9.48-3.4-.83C3.56 7.54 3.05 7.77 1 7.12V5c0-2.2 1.8-4 4-4h28c2.2 0 4 1.8 4 4"/></g><g><path fill="#aa8dd8" d="M8.33 21.33c0-.64-.52-1.16-1.16-1.16-.65 0-1.17.52-1.17 1.16 0 .65.52 1.17 1.17 1.17.64 0 1.16-.52 1.16-1.17"/></g><g><path fill="#aa8dd8" d="M16.94 25.97c0-.6-.5-1.1-1.1-1.1-.6 0-1.1.5-1.1 1.1 0 .6.5 1.1 1.1 1.1.6 0 1.1-.5 1.1-1.1"/></g><g><path fill="#aa8dd8" d="M24.3 31.7c0-.74-.58-1.32-1.3-1.32-.72 0-1.3.58-1.3 1.3 0 .73.58 1.32 1.3 1.32.72 0 1.3-.6 1.3-1.3"/></g><g><path fill="#aa8dd8" d="M26.2 28.28c0-.43-.36-.78-.8-.78-.43 0-.77.35-.77.78 0 .43.34.78.78.78s.8-.35.8-.78"/></g><g><path fill="#aa8dd8" d="M20.75 17.25c0-.55-.45-1-1-1s-1 .45-1 1 .45 1 1 1 1-.45 1-1"/></g><g><path fill="#aa8dd8" d="M32.94 16.58c0-.52-.42-.94-.94-.94s-.94.42-.94.94.42.94.94.94.94-.42.94-.94"/></g><g><path fill="#aa8dd8" d="M33.7 26.1c0-.65-.53-1.16-1.17-1.16-.64 0-1.16.5-1.16 1.15 0 .63.52 1.15 1.16 1.15.64 0 1.16-.52 1.16-1.16"/></g><g><path fill="#cbb7ea" d="M23.28 13.27c0-.36-.3-.65-.65-.65-.37 0-.66.3-.66.65 0 .36.3.66.66.66.36 0 .65-.3.65-.66"/></g><g><path fill="#cbb7ea" d="M13.56 34.44c0-.45-.36-.8-.8-.8-.46 0-.82.35-.82.8 0 .45.36.8.8.8.46 0 .82-.35.82-.8"/></g><g><path fill="#cbb7ea" d="M6.6 31.06c0-.37-.3-.67-.67-.67-.37 0-.67.3-.67.66 0 .37.3.67.67.67.38 0 .68-.3.68-.67"/></g><g><path fill="#cbb7ea" d="M29.72 11c0-.46-.36-.82-.8-.82-.46 0-.83.36-.83.8 0 .46.36.82.8.82.46 0 .82-.36.82-.8"/></g><g><path fill="#cbb7ea" d="M7.87 11.5c0-.5-.42-.93-.94-.93-.5 0-.93.42-.93.93 0 .52.42.94.93.94.52 0 .94-.42.94-.94"/></g><g><path fill="#cbb7ea" d="M12 18.22c0-.8-.66-1.47-1.47-1.47-.8 0-1.47.66-1.47 1.47 0 .8.66 1.47 1.47 1.47.8 0 1.47-.67 1.47-1.48"/></g><g><path fill="#cbb7ea" d="M21.35 22.2c0-.93-.75-1.68-1.68-1.68-.92 0-1.67.75-1.67 1.68 0 .92.75 1.67 1.67 1.67.93 0 1.68-.75 1.68-1.67"/></g><g><path fill="#cbb7ea" d="M29.7 32.53c0-.4-.33-.72-.73-.72-.4 0-.72.33-.72.73 0 .4.32.72.72.72.4 0 .72-.32.72-.72"/></g><g><path fill="#cbb7ea" d="M35.3 34c0-.55-.43-1-1-1-.54 0-1 .45-1 1s.46 1 1 1c.57 0 1-.45 1-1"/></g><g><path fill="#f5f8fa" d="M12.33 29.44c0-.5-.4-.9-.9-.9s-.9.4-.9.9.4.9.9.9.9-.4.9-.9"/></g><g><path fill="#f5f8fa" d="M35.3 21.34c0-.43-.34-.78-.77-.78s-.78.35-.78.78c0 .44.35.78.78.78.43 0 .78-.34.78-.78"/></g><g><path fill="#f5f8fa" d="M26.7 23.47c0-.38-.32-.7-.7-.7-.38 0-.7.32-.7.7 0 .38.32.7.7.7.38 0 .7-.32.7-.7"/></g><g><path fill="#f5f8fa" d="M13.53 22.28c0-.33-.26-.6-.6-.6-.32 0-.6.27-.6.6 0 .33.28.6.6.6.34 0 .6-.27.6-.6"/></g><g><path fill="#f5f8fa" d="M23.75 25.76c0-.64-.52-1.16-1.16-1.16-.65 0-1.16.52-1.16 1.16 0 .64.5 1.16 1.15 1.16.63 0 1.15-.52 1.15-1.16"/></g><g><path fill="#f5f8fa" d="M29.88 28.84c0-.53-.44-.97-.97-.97s-.96.44-.96.97c0 .54.43.97.97.97s.98-.42.98-.96"/></g><g><path fill="#f5f8fa" d="M17.23 18.9c0-.72-.6-1.32-1.33-1.32-.74 0-1.34.6-1.34 1.33 0 .75.6 1.35 1.34 1.35.74 0 1.33-.6 1.33-1.34"/></g><g><path fill="#f5f8fa" d="M3.63 12.87c0-.48-.4-.88-.88-.88s-.88.4-.88.87c0 .5.4.88.88.88.5 0 .88-.4.88-.88"/></g><g><path fill="#f5f8fa" d="M7 15.92c0-.36-.3-.65-.65-.65-.36 0-.65.3-.65.65 0 .36.3.65.65.65.36 0 .65-.3.65-.65"/></g><g><path fill="#f5f8fa" d="M33.16 31.25c0-.45-.37-.8-.82-.8-.45 0-.8.35-.8.8 0 .45.35.8.8.8.45 0 .82-.35.82-.8"/></g></g></g></g></svg>