<svg xmlns="http://www.w3.org/2000/svg" viewBox="0 0 47.5 47.5" enable-background="new 0 0 47.5 47.5"><defs><clipPath id="a"><path d="M5 37c-2.2 0-4-1.8-4-4V5c0-2.2 1.8-4 4-4h28c2.2 0 4 1.8 4 4v28c0 2.2-1.8 4-4 4H5z"/></clipPath></defs><g><g><g clip-path="url(#a)" transform="matrix(1.25 0 0 -1.25 0 47.5)"><path fill="#f4900c" d="M38 0H0v38h38V0z"/><g><path fill="#485359" d="M11 1v29l4 4h2l4-4V1H11z"/></g><g><path fill="#485359" d="M34 26c0 1-1 1-1 1h-7s-1 0-1-1V1h9v25z"/></g><g><path fill="#292f33" d="M29 20c0 1-1 1-1 1h-8c-1 0-1-1-1-1V1h10v19z"/></g><g><path fill="#292f33" d="M7 23s0 1-1 1H1V1h6v22z"/></g><g><path fill="#292f33" d="M13 17s0 1-1 1H6s-1 0-1-1V1h8v16z"/></g><g><path fill="#292f33" d="M32 11s0 1 1 1h4V1h-5v10z"/></g><path fill="#ffcc4d" d="M11 6H9v2h2V6z"/><path fill="#ffcc4d" d="M11 14H9v2h2v-2z"/><path fill="#ffcc4d" d="M9 10H7v2h2v-2z"/><path fill="#ffcc4d" d="M19 26h-2v2h2v-2z"/><path fill="#ffcc4d" d="M19 22h-2v2h2v-2z"/><path fill="#ffcc4d" d="M17 18h-2v2h2v-2z"/><path fill="#ffcc4d" d="M27 17h-2v2h2v-2z"/><path fill="#ffcc4d" d="M25 13h-2v2h2v-2z"/><path fill="#ffcc4d" d="M23 7h-2v2h2V7z"/><path fill="#ffcc4d" d="M32 23h-2v2h2v-2z"/><path fill="#ffcc4d" d="M32 19h-2v2h2v-2z"/></g></g></g></svg>