<?xml version="1.0" encoding="UTF-8" standalone="no"?><svg xmlns:svg="http://www.w3.org/2000/svg" xmlns="http://www.w3.org/2000/svg" version="1.1" viewBox="0 0 47.5 47.5" style="enable-background:new 0 0 47.5 47.5;" id="svg2" xml:space="preserve"><defs id="defs6"><clipPath id="clipPath18"><path d="M 5,37 C 2.791,37 1,35.209 1,33 L 1,33 1,5 C 1,2.791 2.791,1 5,1 l 0,0 28,0 c 2.209,0 4,1.791 4,4 l 0,0 0,28 c 0,2.209 -1.791,4 -4,4 l 0,0 -28,0 z" id="path20"/></clipPath></defs><g transform="matrix(1.25,0,0,-1.25,0,47.5)" id="g12"><g id="g14"><g clip-path="url(#clipPath18)" id="g16"><path d="M 38,0 0,0 0,38 38,38 38,0 z" id="path22" style="fill:#ffcc4d;fill-opacity:1;fill-rule:nonzero;stroke:none"/><g transform="translate(33.1143,20.2637)" id="g24"><path d="m 0,0 c 1.587,0.451 1.587,1.147 0.001,1.599 l -0.559,0.153 -0.556,0.164 0,-0.005 -2.941,0.891 2.324,1.934 -0.014,0 0.493,0.322 0.497,0.359 C 0.536,6.44 0.253,7.104 -1.384,6.915 l -0.636,-0.09 -0.632,-0.089 -0.002,0 -2.979,-0.339 1.77,3.18 0.309,0.558 c 0.802,1.44 0.282,1.963 -1.158,1.162 l -0.559,-0.28 -0.555,-0.281 -0.002,0 -2.626,-1.489 0.34,2.947 0,0.003 0.08,0.633 0.077,0.637 c 0.188,1.634 -0.492,1.915 -1.516,0.623 l -0.394,-0.499 -2.257,-2.85 -0.819,2.881 c -0.001,10e-4 -0.001,0.002 -0.002,0.004 l -0.348,1.225 c -0.452,1.587 -1.19,1.587 -1.642,0 l -0.174,-0.613 -0.174,-0.612 -0.821,-2.885 -1.861,2.35 -0.002,0.001 -0.395,0.499 -0.397,0.502 c -1.023,1.289 -1.704,1.007 -1.515,-0.629 l 0.074,-0.634 0.073,-0.633 0,-10e-4 0.346,-2.979 -3.177,1.77 -0.556,0.31 c -1.442,0.803 -1.964,0.281 -1.161,-1.161 l 0.31,-0.556 1.77,-3.177 -2.979,0.346 -10e-4,0 -0.633,0.073 -0.634,0.074 c -1.636,0.189 -1.918,-0.492 -0.629,-1.515 l 0.502,-0.397 0.499,-0.395 10e-4,-0.002 2.35,-1.861 -2.885,-0.821 -0.612,-0.174 -0.613,-0.174 c -1.587,-0.452 -1.587,-1.19 0,-1.641 l 1.225,-0.349 c 0.002,-0.001 0.003,-0.001 0.004,-0.002 l 2.881,-0.819 -2.85,-2.258 -0.499,-0.395 c -1.292,-1.024 -1.011,-1.705 0.623,-1.517 l 0.637,0.08 0.633,0.08 0.003,0 2.947,0.34 -1.489,-2.626 0,-0.002 -0.281,-0.555 -0.296,-0.559 c -0.8,-1.439 -0.27,-1.96 1.17,-1.158 l 0.559,0.309 3.185,1.77 -0.337,-2.979 0,-0.002 -0.08,-0.631 -0.077,-0.635 c -0.189,-1.637 0.491,-1.918 1.515,-0.627 l 0.395,0.5 0.395,0.5 1.862,2.351 0.82,-2.884 0.001,-0.001 0.174,-0.613 0.174,-0.613 c 0.452,-1.586 1.106,-1.586 1.557,10e-4 l 0.264,1.225 0,0.004 0.905,2.881 1.905,-2.351 0.416,-0.5 0.408,-0.5 c 1.022,-1.29 1.709,-1.01 1.521,0.625 l -0.078,0.637 -0.077,0.632 0,0.003 -0.34,2.948 2.624,-1.49 0.002,0 0.557,-0.28 0.557,-0.295 c 1.441,-0.803 1.963,-0.272 1.16,1.167 l -0.28,0.561 -0.28,0.557 0,0.002 -1.49,2.628 2.948,-0.34 0.003,0 0.632,-0.08 0.637,-0.077 c 1.635,-0.188 1.915,0.492 0.625,1.515 l -0.5,0.395 -0.5,0.395 -2.351,1.947 2.881,0.905 0.004,0 L 0,0 z" id="path26" style="fill:#f4900c;fill-opacity:1;fill-rule:nonzero;stroke:none"/></g><g transform="translate(28.6299,20.9995)" id="g28"><path d="m 0,0 c 0,-5.319 -4.312,-9.629 -9.63,-9.629 -5.318,0 -9.629,4.31 -9.629,9.629 0,5.318 4.311,9.629 9.629,9.629 C -4.312,9.629 0,5.318 0,0" id="path30" style="fill:#ffe8b6;fill-opacity:1;fill-rule:nonzero;stroke:none"/></g><g transform="translate(11,-7)" id="g32"><path d="m 0,0 0,29 4,4 2,0 4,-4 L 10,0 0,0 z" id="path34" style="fill:#485359;fill-opacity:1;fill-rule:nonzero;stroke:none"/></g><g transform="translate(34,18)" id="g36"><path d="m 0,0 c 0,1 -1,1 -1,1 l -7,0 c 0,0 -1,0 -1,-1 l 0,-25 9,0 0,25 z" id="path38" style="fill:#485359;fill-opacity:1;fill-rule:nonzero;stroke:none"/></g><g transform="translate(29,12)" id="g40"><path d="m 0,0 c 0,1 -1,1 -1,1 l -8,0 c -1,0 -1,-1 -1,-1 l 0,-19 10,0 0,19 z" id="path42" style="fill:#292f33;fill-opacity:1;fill-rule:nonzero;stroke:none"/></g><g transform="translate(7,15)" id="g44"><path d="m 0,0 c 0,0 0,1 -1,1 l -5,0 0,-23 6,0 0,22 z" id="path46" style="fill:#292f33;fill-opacity:1;fill-rule:nonzero;stroke:none"/></g><g transform="translate(13,9)" id="g48"><path d="m 0,0 c 0,0 0,1 -1,1 l -6,0 c 0,0 -1,10e-4 -1,-1 l 0,-16 8,0 0,16 z" id="path50" style="fill:#292f33;fill-opacity:1;fill-rule:nonzero;stroke:none"/></g><g transform="translate(32,3)" id="g52"><path d="M 0,0 C 0,0 0,1 1,1 L 5,1 5,-10 0,-10 0,0 z" id="path54" style="fill:#292f33;fill-opacity:1;fill-rule:nonzero;stroke:none"/></g><path d="M 11,6 9,6 9,8 11,8 11,6 z" id="path56" style="fill:#ffcc4d;fill-opacity:1;fill-rule:nonzero;stroke:none"/><path d="M 9,2 7,2 7,4 9,4 9,2 z" id="path58" style="fill:#ffcc4d;fill-opacity:1;fill-rule:nonzero;stroke:none"/><path d="m 19,18 -2,0 0,2 2,0 0,-2 z" id="path60" style="fill:#ffcc4d;fill-opacity:1;fill-rule:nonzero;stroke:none"/><path d="m 19,14 -2,0 0,2 2,0 0,-2 z" id="path62" style="fill:#ffcc4d;fill-opacity:1;fill-rule:nonzero;stroke:none"/><path d="m 17,10 -2,0 0,2 2,0 0,-2 z" id="path64" style="fill:#ffcc4d;fill-opacity:1;fill-rule:nonzero;stroke:none"/><path d="m 27,9 -2,0 0,2 2,0 0,-2 z" id="path66" style="fill:#ffcc4d;fill-opacity:1;fill-rule:nonzero;stroke:none"/><path d="m 25,5 -2,0 0,2 2,0 0,-2 z" id="path68" style="fill:#ffcc4d;fill-opacity:1;fill-rule:nonzero;stroke:none"/><path d="m 32,15 -2,0 0,2 2,0 0,-2 z" id="path70" style="fill:#ffcc4d;fill-opacity:1;fill-rule:nonzero;stroke:none"/><path d="m 32,11 -2,0 0,2 2,0 0,-2 z" id="path72" style="fill:#ffcc4d;fill-opacity:1;fill-rule:nonzero;stroke:none"/></g></g></g></svg>
