<?xml version="1.0" encoding="UTF-8" standalone="no"?><svg xmlns:svg="http://www.w3.org/2000/svg" xmlns="http://www.w3.org/2000/svg" version="1.1" viewBox="0 0 47.5 47.5" style="enable-background:new 0 0 47.5 47.5;" id="svg2" xml:space="preserve"><defs id="defs6"><clipPath id="clipPath18"><path d="M 5,37 C 2.791,37 1,35.209 1,33 L 1,33 1,5 C 1,2.791 2.791,1 5,1 l 0,0 28,0 c 2.209,0 4,1.791 4,4 l 0,0 0,28 c 0,2.209 -1.791,4 -4,4 l 0,0 -28,0 z" id="path20"/></clipPath></defs><g transform="matrix(1.25,0,0,-1.25,0,47.5)" id="g12"><g id="g14"><g clip-path="url(#clipPath18)" id="g16"><path d="M 38,0 0,0 0,38 38,38 38,0 z" id="path22" style="fill:#f4900c;fill-opacity:1;fill-rule:nonzero;stroke:none"/><g transform="translate(11,1)" id="g24"><path d="m 0,0 0,29 4,4 2,0 4,-4 L 10,0 0,0 z" id="path26" style="fill:#485359;fill-opacity:1;fill-rule:nonzero;stroke:none"/></g><g transform="translate(34,26)" id="g28"><path d="m 0,0 c 0,1 -1,1 -1,1 l -7,0 c 0,0 -1,0 -1,-1 l 0,-25 9,0 0,25 z" id="path30" style="fill:#485359;fill-opacity:1;fill-rule:nonzero;stroke:none"/></g><g transform="translate(29,20)" id="g32"><path d="m 0,0 c 0,1 -1,1 -1,1 l -8,0 c -1,0 -1,-1 -1,-1 l 0,-19 10,0 0,19 z" id="path34" style="fill:#292f33;fill-opacity:1;fill-rule:nonzero;stroke:none"/></g><g transform="translate(7,23)" id="g36"><path d="m 0,0 c 0,0 0,1 -1,1 l -5,0 0,-23 6,0 0,22 z" id="path38" style="fill:#292f33;fill-opacity:1;fill-rule:nonzero;stroke:none"/></g><g transform="translate(13,17)" id="g40"><path d="m 0,0 c 0,0 0,1 -1,1 l -6,0 c 0,0 -1,10e-4 -1,-1 l 0,-16 8,0 0,16 z" id="path42" style="fill:#292f33;fill-opacity:1;fill-rule:nonzero;stroke:none"/></g><g transform="translate(32,11)" id="g44"><path d="M 0,0 C 0,0 0,1 1,1 L 5,1 5,-10 0,-10 0,0 z" id="path46" style="fill:#292f33;fill-opacity:1;fill-rule:nonzero;stroke:none"/></g><path d="M 11,6 9,6 9,8 11,8 11,6 z" id="path48" style="fill:#ffcc4d;fill-opacity:1;fill-rule:nonzero;stroke:none"/><path d="m 11,14 -2,0 0,2 2,0 0,-2 z" id="path50" style="fill:#ffcc4d;fill-opacity:1;fill-rule:nonzero;stroke:none"/><path d="m 9,10 -2,0 0,2 2,0 0,-2 z" id="path52" style="fill:#ffcc4d;fill-opacity:1;fill-rule:nonzero;stroke:none"/><path d="m 19,26 -2,0 0,2 2,0 0,-2 z" id="path54" style="fill:#ffcc4d;fill-opacity:1;fill-rule:nonzero;stroke:none"/><path d="m 19,22 -2,0 0,2 2,0 0,-2 z" id="path56" style="fill:#ffcc4d;fill-opacity:1;fill-rule:nonzero;stroke:none"/><path d="m 17,18 -2,0 0,2 2,0 0,-2 z" id="path58" style="fill:#ffcc4d;fill-opacity:1;fill-rule:nonzero;stroke:none"/><path d="m 27,17 -2,0 0,2 2,0 0,-2 z" id="path60" style="fill:#ffcc4d;fill-opacity:1;fill-rule:nonzero;stroke:none"/><path d="m 25,13 -2,0 0,2 2,0 0,-2 z" id="path62" style="fill:#ffcc4d;fill-opacity:1;fill-rule:nonzero;stroke:none"/><path d="m 23,7 -2,0 0,2 2,0 0,-2 z" id="path64" style="fill:#ffcc4d;fill-opacity:1;fill-rule:nonzero;stroke:none"/><path d="m 32,23 -2,0 0,2 2,0 0,-2 z" id="path66" style="fill:#ffcc4d;fill-opacity:1;fill-rule:nonzero;stroke:none"/><path d="m 32,19 -2,0 0,2 2,0 0,-2 z" id="path68" style="fill:#ffcc4d;fill-opacity:1;fill-rule:nonzero;stroke:none"/></g></g></g></svg>
