<svg xmlns="http://www.w3.org/2000/svg" viewBox="0 0 47.5 47.5" enable-background="new 0 0 47.5 47.5"><defs><clipPath id="a"><path d="M0 38h38V0H0v38z"/></clipPath><clipPath id="b"><path d="M1 19C1 9.06 9.06 1 19 1s18 8.06 18 18-8.06 18-18 18S1 28.94 1 19"/></clipPath></defs><g><g><g clip-path="url(#a)" transform="matrix(1.25 0 0 -1.25 0 47.5)"><g><path fill="#88c9f9" d="M37 19c0-9.94-8.06-18-18-18S1 9.06 1 19s8.06 18 18 18 18-8.06 18-18"/></g></g></g><g><g clip-path="url(#b)" transform="matrix(1.25 0 0 -1.25 0 47.5)"><g><path fill="#5c913b" d="M4.63 29.95c-.45 2.93 2.2 4.16 3.6 4.47 1.42.32 2.78.62 2.94 0 .15-.63.3-1.46 1.17-1.15.86.3 3.04.56 4.06 1.34 1.02.8 2.25.8 3.27.48 1.02-.3 3.87-.22 3.25-1.16-.63-.94-1.83-.83-2.45-1.93-.63-1.1.17-1.83 1.03-1.83.87 0 1.7-.14 2.26.72.55.86-.38 2.46.32 2.35.7-.1 1.48-.87 2.03-2.04.56-1.17 1.42-.46 1.74-1.17.3-.7 2.04-2.04 1.17-1.8-.85.23-1.7.4-1.95-.47-.23-.87.4-1.73-.23-1.65-.63.1-.86-.08-1.73 0-.87.1-1.34.64-2.05-.54-.7-1.17-1.25-1.96-1.56-2.5-.33-.56-.8-.87-.56-1.97.23-1.1-.63-.8-.63.15 0 .94-.54 1.1-1.24.94-.7-.17-1.8-.32-1.73-1.1.08-.8-.3-1.73.3-2.36.64-.63 1.34.08 1.74-.16.4-.23 1.52-.02 1.13-.4-.4-.4-1.76-.9-.98-1.52.8-.63 1.58-.83 1.9-.9.3-.1.06.76 1.08 1.16 1.02.4 2.6 1.3 3 .58.4-.7.34-.6 1.75-.75 1.4-.16 1.8-.58 2.42-1.92.62-1.33.44-1.2 1.46-1.58 1.02-.4 1.68-.22.74-1.08-.94-.86-1.65-.82-2.2-1.84-.55-1-.16-1.73-1.25-2.75C27.32 6.56 26.18 5.7 25 5c-.62-.37-2.16-2.07-3.08-2.67-.84-.54-1.1 0-1.1 0S21.1 4 21.8 4.7c.7.7 1.1 3.35.87 4.13-.24.8-1.36 1.02-1.75 1.34-.4.3-1.42 1.54-1.42 2.33 0 .78 1.7 2.8 1.7 2.8.23-1.08-1.03.34-1.62.53-.47.16-1.54 1.66-2.46 1.82-.9.16-1.36.7-2.06 1.25s-2.43 1.33-2.36 2.2c.08.85-1.72 1.56-2.03 1.56-.32 0-1.02 0-1.65 1.1-.63 1.1-1.73 2.2-1.4 2.98.3.78.38 1.72.22 2.6-.15.85-1.33 1.16-1.57.93-.23-.24-1.48-1.34-1.64-.32"/></g></g></g></g></svg>