<svg xmlns="http://www.w3.org/2000/svg" viewBox="0 0 47.5 47.5" enable-background="new 0 0 47.5 47.5"><defs><clipPath id="a"><path d="M5 37c-2.2 0-4-1.8-4-4V5c0-2.2 1.8-4 4-4h28c2.2 0 4 1.8 4 4v28c0 2.2-1.8 4-4 4H5z"/></clipPath></defs><g><g><g clip-path="url(#a)" transform="matrix(1.25 0 0 -1.25 0 47.5)"><path fill="#004a77" d="M37-1H-1v38h38V-1z"/><g><path fill="#fe5011" d="M-1 10v2c.12.05 11.26 4.45 18 16l2-1C11.9 14.85-.5 10.2-1 10"/></g><g><path fill="#fe5011" d="M21 28s0 2-2 2-2-2-2-2V0h4v28z"/></g><path fill="#fe5011" d="M37 6H1v4h36V6z"/><g><path fill="#fe5011" d="M39 10v2c-.12.05-11.26 4.45-18 16l-2-1c7.1-12.15 19.5-16.8 20-17"/></g><path fill="#fe5011" d="M11 9h2v11h-2V9z"/><path fill="#fe5011" d="M27 9h-2v11h2V9z"/><path fill="#fe5011" d="M5 9h2v6H5V9z"/><path fill="#fe5011" d="M33 8h-2v7h2V8z"/><g><path fill="#fff" d="M7.5 30C6.12 30 5 31.12 5 32.5c0 1.13.76 2.07 1.78 2.38-.25.07-.5.12-.78.12-1.66 0-3-1.34-3-3s1.34-3 3-3c.96 0 1.8.46 2.35 1.16-.27-.1-.55-.16-.85-.16"/></g><g><path fill="#fff" d="M12 34.5c0-.28-.22-.5-.5-.5s-.5.22-.5.5.22.5.5.5.5-.22.5-.5"/></g><g><path fill="#fff" d="M28 25.5c0-.28-.22-.5-.5-.5s-.5.22-.5.5.22.5.5.5.5-.22.5-.5"/></g><g><path fill="#fff" d="M9 25.5c0-.28-.22-.5-.5-.5s-.5.22-.5.5.22.5.5.5.5-.22.5-.5"/></g><g><path fill="#fff" d="M24 32c0-.55-.45-1-1-1s-1 .45-1 1 .45 1 1 1 1-.45 1-1"/></g><g><path fill="#fff" d="M6 20c0-.55-.45-1-1-1s-1 .45-1 1 .45 1 1 1 1-.45 1-1"/></g><g><path fill="#fff" d="M14 30c0-.55-.45-1-1-1s-1 .45-1 1 .45 1 1 1 1-.45 1-1"/></g><g><path fill="#fff" d="M34 20c0-.55-.45-1-1-1s-1 .45-1 1 .45 1 1 1 1-.45 1-1"/></g><g><path fill="#fff" d="M28 31.5c0-.28-.22-.5-.5-.5s-.5.22-.5.5.22.5.5.5.5-.22.5-.5"/></g><g><path fill="#fff" d="M33 34c0-.55-.45-1-1-1s-1 .45-1 1 .45 1 1 1 1-.45 1-1"/></g><g><path fill="#fff" d="M33 29.5c0-.28-.22-.5-.5-.5s-.5.22-.5.5.22.5.5.5.5-.22.5-.5"/></g></g></g></g></svg>