<?xml version="1.0" encoding="UTF-8" standalone="no"?>
<!-- Created with Inkscape (http://www.inkscape.org/) -->

<svg
   xmlns:svg="http://www.w3.org/2000/svg"
   xmlns="http://www.w3.org/2000/svg"
   version="1.1"
   width="47.5"
   height="47.5"
   id="svg2"
   xml:space="preserve"><defs
     id="defs6"><clipPath
       id="clipPath18"><path
         d="M 5,37 C 2.791,37 1,35.209 1,33 L 1,33 1,5 C 1,2.791 2.791,1 5,1 l 0,0 28,0 c 2.209,0 4,1.791 4,4 l 0,0 0,28 c 0,2.209 -1.791,4 -4,4 l 0,0 -28,0 z"
         id="path20" /></clipPath><clipPath
       id="clipPath74"><path
         d="M 0,38 38,38 38,0 0,0 0,38 z"
         id="path76" /></clipPath></defs><g
     transform="matrix(1.25,0,0,-1.25,0,47.5)"
     id="g12"><g
       id="g14"><g
         clip-path="url(#clipPath18)"
         id="g16"><path
           d="M 38,0 0,0 0,38 38,38 38,0 z"
           id="path22"
           style="fill:#226699;fill-opacity:1;fill-rule:nonzero;stroke:none" /><g
           transform="translate(11,1)"
           id="g24"><path
             d="m 0,0 0,29 4,4 2,0 4,-4 L 10,0 0,0 z"
             id="path26"
             style="fill:#3f484c;fill-opacity:1;fill-rule:nonzero;stroke:none" /></g><g
           transform="translate(34,26)"
           id="g28"><path
             d="M 0,0 C 0,1 -1.286,1 -1.286,1 L -7.714,1 C -7.714,1 -9,1.001 -9,0 l 0,-25 9,0 0,25 z"
             id="path30"
             style="fill:#3f484c;fill-opacity:1;fill-rule:nonzero;stroke:none" /></g><g
           transform="translate(29,18)"
           id="g32"><path
             d="m 0,0 c 0,1 -1,1 -1,1 l -8,0 c -1,0 -1,-1 -1,-1 l 0,-17 10,0 0,17 z"
             id="path34"
             style="fill:#292f33;fill-opacity:1;fill-rule:nonzero;stroke:none" /></g><g
           transform="translate(7,23)"
           id="g36"><path
             d="m 0,0 c 0,0 0,1 -1,1 l -5,0 0,-23 6,0 0,22 z"
             id="path38"
             style="fill:#292f33;fill-opacity:1;fill-rule:nonzero;stroke:none" /></g><g
           transform="translate(13,15)"
           id="g40"><path
             d="m 0,0 c 0,0 0,1 -1,1 l -6,0 c 0,0 -1,10e-4 -1,-1 l 0,-14 8,0 0,14 z"
             id="path42"
             style="fill:#292f33;fill-opacity:1;fill-rule:nonzero;stroke:none" /></g><g
           transform="translate(32,11)"
           id="g44"><path
             d="M 0,0 C 0,0 0,1 1,1 L 5,1 5,-10 0,-10 0,0 z"
             id="path46"
             style="fill:#292f33;fill-opacity:1;fill-rule:nonzero;stroke:none" /></g></g></g><path
       d="M 11,4 9,4 9,6 11,6 11,4 z"
       id="path48"
       style="fill:#ffcc4d;fill-opacity:1;fill-rule:nonzero;stroke:none" /><path
       d="m 11,12 -2,0 0,2 2,0 0,-2 z"
       id="path50"
       style="fill:#ffcc4d;fill-opacity:1;fill-rule:nonzero;stroke:none" /><path
       d="M 9,8 7,8 7,10 9,10 9,8 z"
       id="path52"
       style="fill:#ffcc4d;fill-opacity:1;fill-rule:nonzero;stroke:none" /><path
       d="m 19,26 -2,0 0,2 2,0 0,-2 z"
       id="path54"
       style="fill:#ffcc4d;fill-opacity:1;fill-rule:nonzero;stroke:none" /><path
       d="m 19,22 -2,0 0,2 2,0 0,-2 z"
       id="path56"
       style="fill:#ffcc4d;fill-opacity:1;fill-rule:nonzero;stroke:none" /><path
       d="m 17,18 -2,0 0,2 2,0 0,-2 z"
       id="path58"
       style="fill:#ffcc4d;fill-opacity:1;fill-rule:nonzero;stroke:none" /><path
       d="m 27,15 -2,0 0,2 2,0 0,-2 z"
       id="path60"
       style="fill:#ffcc4d;fill-opacity:1;fill-rule:nonzero;stroke:none" /><path
       d="m 25,11 -2,0 0,2 2,0 0,-2 z"
       id="path62"
       style="fill:#ffcc4d;fill-opacity:1;fill-rule:nonzero;stroke:none" /><path
       d="m 23,5 -2,0 0,2 2,0 0,-2 z"
       id="path64"
       style="fill:#ffcc4d;fill-opacity:1;fill-rule:nonzero;stroke:none" /><path
       d="m 32,23 -2,0 0,2 2,0 0,-2 z"
       id="path66"
       style="fill:#ffcc4d;fill-opacity:1;fill-rule:nonzero;stroke:none" /><path
       d="m 32,19 -2,0 0,2 2,0 0,-2 z"
       id="path68"
       style="fill:#ffcc4d;fill-opacity:1;fill-rule:nonzero;stroke:none" /><g
       id="g70"><g
         clip-path="url(#clipPath74)"
         id="g72"><g
           transform="translate(7.5,30)"
           id="g78"><path
             d="m 0,0 c -1.381,0 -2.5,1.119 -2.5,2.5 0,1.13 0.755,2.074 1.784,2.383 C -0.967,4.952 -1.227,5 -1.5,5 c -1.657,0 -3,-1.343 -3,-3 0,-1.657 1.343,-3 3,-3 0.959,0 1.803,0.458 2.353,1.159 C 0.585,0.062 0.301,0 0,0"
             id="path80"
             style="fill:#ffffff;fill-opacity:1;fill-rule:nonzero;stroke:none" /></g><g
           transform="translate(12,34.5)"
           id="g82"><path
             d="M 0,0 C 0,-0.276 -0.224,-0.5 -0.5,-0.5 -0.776,-0.5 -1,-0.276 -1,0 -1,0.276 -0.776,0.5 -0.5,0.5 -0.224,0.5 0,0.276 0,0"
             id="path84"
             style="fill:#ffffff;fill-opacity:1;fill-rule:nonzero;stroke:none" /></g><g
           transform="translate(9,25.5)"
           id="g86"><path
             d="M 0,0 C 0,-0.276 -0.224,-0.5 -0.5,-0.5 -0.776,-0.5 -1,-0.276 -1,0 -1,0.276 -0.776,0.5 -0.5,0.5 -0.224,0.5 0,0.276 0,0"
             id="path88"
             style="fill:#ffffff;fill-opacity:1;fill-rule:nonzero;stroke:none" /></g><g
           transform="translate(24,32)"
           id="g90"><path
             d="m 0,0 c 0,-0.552 -0.447,-1 -1,-1 -0.553,0 -1,0.448 -1,1 0,0.552 0.447,1 1,1 0.553,0 1,-0.448 1,-1"
             id="path92"
             style="fill:#ffffff;fill-opacity:1;fill-rule:nonzero;stroke:none" /></g><g
           transform="translate(28,31.5)"
           id="g94"><path
             d="M 0,0 C 0,-0.276 -0.224,-0.5 -0.5,-0.5 -0.776,-0.5 -1,-0.276 -1,0 -1,0.276 -0.776,0.5 -0.5,0.5 -0.224,0.5 0,0.276 0,0"
             id="path96"
             style="fill:#ffffff;fill-opacity:1;fill-rule:nonzero;stroke:none" /></g><g
           transform="translate(33,34)"
           id="g98"><path
             d="m 0,0 c 0,-0.552 -0.447,-1 -1,-1 -0.553,0 -1,0.448 -1,1 0,0.552 0.447,1 1,1 0.553,0 1,-0.448 1,-1"
             id="path100"
             style="fill:#ffffff;fill-opacity:1;fill-rule:nonzero;stroke:none" /></g><g
           transform="translate(33,29.5)"
           id="g102"><path
             d="M 0,0 C 0,-0.276 -0.224,-0.5 -0.5,-0.5 -0.776,-0.5 -1,-0.276 -1,0 -1,0.276 -0.776,0.5 -0.5,0.5 -0.224,0.5 0,0.276 0,0"
             id="path104"
             style="fill:#ffffff;fill-opacity:1;fill-rule:nonzero;stroke:none" /></g></g></g></g></svg>