<svg xmlns="http://www.w3.org/2000/svg" viewBox="0 0 47.5 47.5" enable-background="new 0 0 47.5 47.5"><defs><clipPath id="a"><path d="M5 37c-2.2 0-4-1.8-4-4V5c0-2.2 1.8-4 4-4h28c2.2 0 4 1.8 4 4v28c0 2.2-1.8 4-4 4H5z"/></clipPath><clipPath id="b"><path d="M0 38h38V0H0v38z"/></clipPath></defs><g><g><g clip-path="url(#a)" transform="matrix(1.25 0 0 -1.25 0 47.5)"><path fill="#269" d="M38 0H0v38h38V0z"/><g><path fill="#3f484c" d="M11 1v29l4 4h2l4-4V1H11z"/></g><g><path fill="#3f484c" d="M34 26c0 1-1.3 1-1.3 1h-6.4S25 27 25 26V1h9v25z"/></g><g><path fill="#292f33" d="M29 18c0 1-1 1-1 1h-8c-1 0-1-1-1-1V1h10v17z"/></g><g><path fill="#292f33" d="M7 23s0 1-1 1H1V1h6v22z"/></g><g><path fill="#292f33" d="M13 15s0 1-1 1H6s-1 0-1-1V1h8v14z"/></g><g><path fill="#292f33" d="M32 11s0 1 1 1h4V1h-5v10z"/></g></g></g><path fill="#ffcc4d" d="M13.75 42.5h-2.5V40h2.5v2.5z"/><path fill="#ffcc4d" d="M13.75 32.5h-2.5V30h2.5v2.5z"/><path fill="#ffcc4d" d="M11.25 37.5h-2.5V35h2.5v2.5z"/><path fill="#ffcc4d" d="M23.75 15h-2.5v-2.5h2.5V15z"/><path fill="#ffcc4d" d="M23.75 20h-2.5v-2.5h2.5V20z"/><path fill="#ffcc4d" d="M21.25 25h-2.5v-2.5h2.5V25z"/><path fill="#ffcc4d" d="M33.75 28.75h-2.5v-2.5h2.5v2.5z"/><path fill="#ffcc4d" d="M31.25 33.75h-2.5v-2.5h2.5v2.5z"/><path fill="#ffcc4d" d="M28.75 41.25h-2.5v-2.5h2.5v2.5z"/><path fill="#ffcc4d" d="M40 18.75h-2.5v-2.5H40v2.5z"/><path fill="#ffcc4d" d="M40 23.75h-2.5v-2.5H40v2.5z"/><g><g clip-path="url(#b)" transform="matrix(1.25 0 0 -1.25 0 47.5)"><g><path fill="#fff" d="M7.5 30C6.12 30 5 31.12 5 32.5c0 1.13.76 2.07 1.78 2.38-.25.07-.5.12-.78.12-1.66 0-3-1.34-3-3s1.34-3 3-3c.96 0 1.8.46 2.35 1.16-.27-.1-.55-.16-.85-.16"/></g><g><path fill="#fff" d="M12 34.5c0-.28-.22-.5-.5-.5s-.5.22-.5.5.22.5.5.5.5-.22.5-.5"/></g><g><path fill="#fff" d="M9 25.5c0-.28-.22-.5-.5-.5s-.5.22-.5.5.22.5.5.5.5-.22.5-.5"/></g><g><path fill="#fff" d="M24 32c0-.55-.45-1-1-1s-1 .45-1 1 .45 1 1 1 1-.45 1-1"/></g><g><path fill="#fff" d="M28 31.5c0-.28-.22-.5-.5-.5s-.5.22-.5.5.22.5.5.5.5-.22.5-.5"/></g><g><path fill="#fff" d="M33 34c0-.55-.45-1-1-1s-1 .45-1 1 .45 1 1 1 1-.45 1-1"/></g><g><path fill="#fff" d="M33 29.5c0-.28-.22-.5-.5-.5s-.5.22-.5.5.22.5.5.5.5-.22.5-.5"/></g></g></g></g></svg>