<?xml version="1.0" encoding="UTF-8" standalone="no"?><svg xmlns:svg="http://www.w3.org/2000/svg" xmlns="http://www.w3.org/2000/svg" version="1.1" viewBox="0 0 47.5 47.5" style="enable-background:new 0 0 47.5 47.5;" id="svg2" xml:space="preserve"><defs id="defs6"><clipPath id="clipPath18"><path d="M 0,38 38,38 38,0 0,0 0,38 z" id="path20"/></clipPath></defs><g transform="matrix(1.25,0,0,-1.25,0,47.5)" id="g12"><g id="g14"><g clip-path="url(#clipPath18)" id="g16"><g transform="translate(37,5)" id="g22"><path d="m 0,0 c 0,-2.209 -1.791,-4 -4,-4 l -28,0 c -2.209,0 -4,1.791 -4,4 l 0,28 c 0,2.209 1.791,4 4,4 l 28,0 c 2.209,0 4,-1.791 4,-4 L 0,0 z" id="path24" style="fill:#553788;fill-opacity:1;fill-rule:nonzero;stroke:none"/></g><g transform="translate(33,37)" id="g26"><path d="m 0,0 -12.756,0 c -4.687,-1.656 0.803,-8.995 -3.502,-8.469 -7.159,0.875 -7.679,-6.086 -10.742,-4.969 -1.192,0.436 -3.257,2.491 -5,0.991 L -32,-32 c 0,-2.209 1.791,-4 4,-4 l 1.624,0 c 1.469,1.279 0.927,5.622 1.709,6.75 2.834,4.084 3.695,7.482 7.901,7.188 7.125,-0.5 8.453,4.853 10.704,7.187 C -3.813,-12.541 0,-16.417 4,-14.667 L 4,-4 C 4,-1.791 2.209,0 0,0" id="path28" style="fill:#744eaa;fill-opacity:1;fill-rule:nonzero;stroke:none"/></g><g transform="translate(37,5)" id="g30"><path d="M 0,0 0,2.966 C -0.77,3.806 -1.917,4.75 -2.583,4.666 -3.859,4.505 -4.625,3.5 -5.5,2.813 -6.375,2.125 -8.479,2.541 -10.167,3.666 -11.854,4.791 -14.165,3.772 -15.294,3.2 -17.167,2.25 -17.792,5.083 -19.667,6.333 -21.542,7.583 -24.375,3.5 -25.5,2.75 -26.625,2 -27.963,3.93 -28.775,4.492 -29.588,5.055 -30.667,4.979 -32.167,3.666 -33.454,2.54 -33.962,2.771 -36,2.121 L -36,0 c 0,-2.209 1.791,-4 4,-4 l 28,0 c 2.209,0 4,1.791 4,4" id="path32" style="fill:#292f33;fill-opacity:1;fill-rule:nonzero;stroke:none"/></g><g transform="translate(8.3335,21.333)" id="g34"><path d="m 0,0 c 0,-0.644 -0.522,-1.167 -1.167,-1.167 -0.644,0 -1.166,0.523 -1.166,1.167 0,0.645 0.522,1.167 1.166,1.167 C -0.522,1.167 0,0.645 0,0" id="path36" style="fill:#aa8dd8;fill-opacity:1;fill-rule:nonzero;stroke:none"/></g><g transform="translate(16.9375,25.9688)" id="g38"><path d="m 0,0 c 0,-0.604 -0.49,-1.094 -1.094,-1.094 -0.604,0 -1.094,0.49 -1.094,1.094 0,0.604 0.49,1.094 1.094,1.094 C -0.49,1.094 0,0.604 0,0" id="path40" style="fill:#aa8dd8;fill-opacity:1;fill-rule:nonzero;stroke:none"/></g><g transform="translate(24.3125,31.6875)" id="g42"><path d="m 0,0 c 0,-0.725 -0.588,-1.312 -1.312,-1.312 -0.725,0 -1.313,0.587 -1.313,1.312 0,0.725 0.588,1.312 1.313,1.312 C -0.588,1.312 0,0.725 0,0" id="path44" style="fill:#aa8dd8;fill-opacity:1;fill-rule:nonzero;stroke:none"/></g><g transform="translate(26.1875,28.2813)" id="g46"><path d="m 0,0 c 0,-0.432 -0.35,-0.781 -0.781,-0.781 -0.432,0 -0.781,0.349 -0.781,0.781 0,0.432 0.349,0.781 0.781,0.781 C -0.35,0.781 0,0.432 0,0" id="path48" style="fill:#aa8dd8;fill-opacity:1;fill-rule:nonzero;stroke:none"/></g><g transform="translate(20.75,17.25)" id="g50"><path d="m 0,0 c 0,-0.553 -0.447,-1 -1,-1 -0.553,0 -1,0.447 -1,1 0,0.553 0.447,1 1,1 0.553,0 1,-0.447 1,-1" id="path52" style="fill:#aa8dd8;fill-opacity:1;fill-rule:nonzero;stroke:none"/></g><g transform="translate(32.9375,16.5781)" id="g54"><path d="m 0,0 c 0,-0.518 -0.42,-0.937 -0.937,-0.937 -0.518,0 -0.938,0.419 -0.938,0.937 0,0.518 0.42,0.937 0.938,0.937 C -0.42,0.937 0,0.518 0,0" id="path56" style="fill:#aa8dd8;fill-opacity:1;fill-rule:nonzero;stroke:none"/></g><g transform="translate(33.6875,26.0938)" id="g58"><path d="m 0,0 c 0,-0.639 -0.518,-1.156 -1.156,-1.156 -0.639,0 -1.157,0.517 -1.157,1.156 0,0.639 0.518,1.156 1.157,1.156 C -0.518,1.156 0,0.639 0,0" id="path60" style="fill:#aa8dd8;fill-opacity:1;fill-rule:nonzero;stroke:none"/></g><g transform="translate(23.2813,13.2725)" id="g62"><path d="m 0,0 c 0,-0.362 -0.293,-0.656 -0.655,-0.656 -0.364,0 -0.657,0.294 -0.657,0.656 0,0.362 0.293,0.656 0.657,0.656 C -0.293,0.656 0,0.362 0,0" id="path64" style="fill:#cbb7ea;fill-opacity:1;fill-rule:nonzero;stroke:none"/></g><g transform="translate(13.5625,34.4375)" id="g66"><path d="m 0,0 c 0,-0.449 -0.364,-0.812 -0.812,-0.812 -0.449,0 -0.813,0.363 -0.813,0.812 0,0.449 0.364,0.812 0.813,0.812 C -0.364,0.812 0,0.449 0,0" id="path68" style="fill:#cbb7ea;fill-opacity:1;fill-rule:nonzero;stroke:none"/></g><g transform="translate(6.606,31.062)" id="g70"><path d="m 0,0 c 0,-0.371 -0.301,-0.672 -0.672,-0.672 -0.371,0 -0.672,0.301 -0.672,0.672 0,0.371 0.301,0.672 0.672,0.672 C -0.301,0.672 0,0.371 0,0" id="path72" style="fill:#cbb7ea;fill-opacity:1;fill-rule:nonzero;stroke:none"/></g><g transform="translate(29.7188,10.9922)" id="g74"><path d="m 0,0 c 0,-0.449 -0.363,-0.812 -0.812,-0.812 -0.45,0 -0.813,0.363 -0.813,0.812 0,0.449 0.363,0.812 0.813,0.812 C -0.363,0.812 0,0.449 0,0" id="path76" style="fill:#cbb7ea;fill-opacity:1;fill-rule:nonzero;stroke:none"/></g><g transform="translate(7.8682,11.5029)" id="g78"><path d="m 0,0 c 0,-0.516 -0.418,-0.934 -0.934,-0.934 -0.516,0 -0.934,0.418 -0.934,0.934 0,0.517 0.418,0.935 0.934,0.935 C -0.418,0.935 0,0.517 0,0" id="path80" style="fill:#cbb7ea;fill-opacity:1;fill-rule:nonzero;stroke:none"/></g><g transform="translate(12,18.2188)" id="g82"><path d="m 0,0 c 0,-0.812 -0.658,-1.469 -1.469,-1.469 -0.811,0 -1.469,0.657 -1.469,1.469 0,0.811 0.658,1.469 1.469,1.469 C -0.658,1.469 0,0.811 0,0" id="path84" style="fill:#cbb7ea;fill-opacity:1;fill-rule:nonzero;stroke:none"/></g><g transform="translate(21.3506,22.1997)" id="g86"><path d="m 0,0 c 0,-0.925 -0.75,-1.675 -1.676,-1.675 -0.925,0 -1.675,0.75 -1.675,1.675 0,0.925 0.75,1.675 1.675,1.675 C -0.75,1.675 0,0.925 0,0" id="path88" style="fill:#cbb7ea;fill-opacity:1;fill-rule:nonzero;stroke:none"/></g><g transform="translate(29.6875,32.5313)" id="g90"><path d="m 0,0 c 0,-0.397 -0.322,-0.719 -0.719,-0.719 -0.397,0 -0.718,0.322 -0.718,0.719 0,0.397 0.321,0.719 0.718,0.719 C -0.322,0.719 0,0.397 0,0" id="path92" style="fill:#cbb7ea;fill-opacity:1;fill-rule:nonzero;stroke:none"/></g><g transform="translate(35.3125,34)" id="g94"><path d="m 0,0 c 0,-0.552 -0.447,-1 -1,-1 -0.553,0 -1,0.448 -1,1 0,0.552 0.447,1 1,1 0.553,0 1,-0.448 1,-1" id="path96" style="fill:#cbb7ea;fill-opacity:1;fill-rule:nonzero;stroke:none"/></g><g transform="translate(12.3335,29.438)" id="g98"><path d="m 0,0 c 0,-0.495 -0.401,-0.896 -0.896,-0.896 -0.495,0 -0.896,0.401 -0.896,0.896 0,0.495 0.401,0.896 0.896,0.896 C -0.401,0.896 0,0.495 0,0" id="path100" style="fill:#f5f8fa;fill-opacity:1;fill-rule:nonzero;stroke:none"/></g><g transform="translate(35.3125,21.3438)" id="g102"><path d="m 0,0 c 0,-0.432 -0.35,-0.781 -0.781,-0.781 -0.432,0 -0.781,0.349 -0.781,0.781 0,0.432 0.349,0.781 0.781,0.781 C -0.35,0.781 0,0.432 0,0" id="path104" style="fill:#f5f8fa;fill-opacity:1;fill-rule:nonzero;stroke:none"/></g><g transform="translate(26.6875,23.4688)" id="g106"><path d="m 0,0 c 0,-0.38 -0.308,-0.687 -0.687,-0.687 -0.38,0 -0.688,0.307 -0.688,0.687 0,0.38 0.308,0.687 0.688,0.687 C -0.308,0.687 0,0.38 0,0" id="path108" style="fill:#f5f8fa;fill-opacity:1;fill-rule:nonzero;stroke:none"/></g><g transform="translate(13.5312,22.2813)" id="g110"><path d="m 0,0 c 0,-0.328 -0.266,-0.594 -0.594,-0.594 -0.328,0 -0.593,0.266 -0.593,0.594 0,0.328 0.265,0.594 0.593,0.594 C -0.266,0.594 0,0.328 0,0" id="path112" style="fill:#f5f8fa;fill-opacity:1;fill-rule:nonzero;stroke:none"/></g><g transform="translate(23.75,25.7603)" id="g114"><path d="m 0,0 c 0,-0.639 -0.518,-1.156 -1.156,-1.156 -0.639,0 -1.157,0.517 -1.157,1.156 0,0.639 0.518,1.156 1.157,1.156 C -0.518,1.156 0,0.639 0,0" id="path116" style="fill:#f5f8fa;fill-opacity:1;fill-rule:nonzero;stroke:none"/></g><g transform="translate(29.875,28.8438)" id="g118"><path d="m 0,0 c 0,-0.535 -0.434,-0.969 -0.969,-0.969 -0.535,0 -0.968,0.434 -0.968,0.969 0,0.535 0.433,0.969 0.968,0.969 C -0.434,0.969 0,0.535 0,0" id="path120" style="fill:#f5f8fa;fill-opacity:1;fill-rule:nonzero;stroke:none"/></g><g transform="translate(17.2344,18.9141)" id="g122"><path d="m 0,0 c 0,-0.738 -0.598,-1.336 -1.336,-1.336 -0.738,0 -1.336,0.598 -1.336,1.336 0,0.738 0.598,1.336 1.336,1.336 C -0.598,1.336 0,0.738 0,0" id="path124" style="fill:#f5f8fa;fill-opacity:1;fill-rule:nonzero;stroke:none"/></g><g transform="translate(3.6328,12.8711)" id="g126"><path d="m 0,0 c 0,-0.485 -0.394,-0.879 -0.879,-0.879 -0.485,0 -0.879,0.394 -0.879,0.879 0,0.485 0.394,0.879 0.879,0.879 C -0.394,0.879 0,0.485 0,0" id="path128" style="fill:#f5f8fa;fill-opacity:1;fill-rule:nonzero;stroke:none"/></g><g transform="translate(7,15.9209)" id="g130"><path d="m 0,0 c 0,-0.358 -0.291,-0.648 -0.648,-0.648 -0.358,0 -0.649,0.29 -0.649,0.648 0,0.358 0.291,0.648 0.649,0.648 C -0.291,0.648 0,0.358 0,0" id="path132" style="fill:#f5f8fa;fill-opacity:1;fill-rule:nonzero;stroke:none"/></g><g transform="translate(33.1563,31.25)" id="g134"><path d="m 0,0 c 0,-0.449 -0.363,-0.812 -0.812,-0.812 -0.45,0 -0.813,0.363 -0.813,0.812 0,0.449 0.363,0.812 0.813,0.812 C -0.363,0.812 0,0.449 0,0" id="path136" style="fill:#f5f8fa;fill-opacity:1;fill-rule:nonzero;stroke:none"/></g></g></g></g></svg>
