<?xml version="1.0" encoding="UTF-8" standalone="no"?><svg xmlns:dc="http://purl.org/dc/elements/1.1/" xmlns:cc="http://creativecommons.org/ns#" xmlns:rdf="http://www.w3.org/1999/02/22-rdf-syntax-ns#" xmlns:svg="http://www.w3.org/2000/svg" xmlns="http://www.w3.org/2000/svg" viewBox="0 0 47.5 47.5" style="enable-background:new 0 0 47.5 47.5;" xml:space="preserve" version="1.1" id="svg2"><metadata id="metadata8"><rdf:RDF><cc:Work rdf:about=""><dc:format>image/svg+xml</dc:format><dc:type rdf:resource="http://purl.org/dc/dcmitype/StillImage"/></cc:Work></rdf:RDF></metadata><defs id="defs6"><clipPath id="clipPath16" clipPathUnits="userSpaceOnUse"><path id="path18" d="M 5,37 C 2.791,37 1,35.209 1,33 L 1,33 1,5 C 1,2.791 2.791,1 5,1 l 0,0 28,0 c 2.209,0 4,1.791 4,4 l 0,0 0,28 c 0,2.209 -1.791,4 -4,4 l 0,0 -28,0 z"/></clipPath></defs><g transform="matrix(1.25,0,0,-1.25,0,47.5)" id="g10"><g id="g12"><g clip-path="url(#clipPath16)" id="g14"><path id="path20" style="fill:#f4900c;fill-opacity:1;fill-rule:nonzero;stroke:none" d="M 38,0 0,0 0,38 38,38 38,0 Z"/><g transform="translate(11,1)" id="g22"><path id="path24" style="fill:#485359;fill-opacity:1;fill-rule:nonzero;stroke:none" d="m 0,0 0,29 4,4 2,0 4,-4 L 10,0 0,0 Z"/></g><g transform="translate(34,26)" id="g26"><path id="path28" style="fill:#485359;fill-opacity:1;fill-rule:nonzero;stroke:none" d="m 0,0 c 0,1 -1,1 -1,1 l -7,0 c 0,0 -1,0 -1,-1 l 0,-25 9,0 0,25 z"/></g><g transform="translate(29,20)" id="g30"><path id="path32" style="fill:#292f33;fill-opacity:1;fill-rule:nonzero;stroke:none" d="m 0,0 c 0,1 -1,1 -1,1 l -8,0 c -1,0 -1,-1 -1,-1 l 0,-19 10,0 0,19 z"/></g><g transform="translate(7,23)" id="g34"><path id="path36" style="fill:#292f33;fill-opacity:1;fill-rule:nonzero;stroke:none" d="m 0,0 c 0,0 0,1 -1,1 l -5,0 0,-23 6,0 0,22 z"/></g><g transform="translate(13,17)" id="g38"><path id="path40" style="fill:#292f33;fill-opacity:1;fill-rule:nonzero;stroke:none" d="m 0,0 c 0,0 0,1 -1,1 l -6,0 c 0,0 -1,10e-4 -1,-1 l 0,-16 8,0 0,16 z"/></g><g transform="translate(32,11)" id="g42"><path id="path44" style="fill:#292f33;fill-opacity:1;fill-rule:nonzero;stroke:none" d="M 0,0 C 0,0 0,1 1,1 L 5,1 5,-10 0,-10 0,0 Z"/></g><path id="path46" style="fill:#ffcc4d;fill-opacity:1;fill-rule:nonzero;stroke:none" d="M 11,6 9,6 9,8 11,8 11,6 Z"/><path id="path48" style="fill:#ffcc4d;fill-opacity:1;fill-rule:nonzero;stroke:none" d="m 11,14 -2,0 0,2 2,0 0,-2 z"/><path id="path50" style="fill:#ffcc4d;fill-opacity:1;fill-rule:nonzero;stroke:none" d="m 9,10 -2,0 0,2 2,0 0,-2 z"/><path id="path52" style="fill:#ffcc4d;fill-opacity:1;fill-rule:nonzero;stroke:none" d="m 19,26 -2,0 0,2 2,0 0,-2 z"/><path id="path54" style="fill:#ffcc4d;fill-opacity:1;fill-rule:nonzero;stroke:none" d="m 19,22 -2,0 0,2 2,0 0,-2 z"/><path id="path56" style="fill:#ffcc4d;fill-opacity:1;fill-rule:nonzero;stroke:none" d="m 17,18 -2,0 0,2 2,0 0,-2 z"/><path id="path58" style="fill:#ffcc4d;fill-opacity:1;fill-rule:nonzero;stroke:none" d="m 27,17 -2,0 0,2 2,0 0,-2 z"/><path id="path60" style="fill:#ffcc4d;fill-opacity:1;fill-rule:nonzero;stroke:none" d="m 25,13 -2,0 0,2 2,0 0,-2 z"/><path id="path62" style="fill:#ffcc4d;fill-opacity:1;fill-rule:nonzero;stroke:none" d="m 23,7 -2,0 0,2 2,0 0,-2 z"/><path id="path64" style="fill:#ffcc4d;fill-opacity:1;fill-rule:nonzero;stroke:none" d="m 32,23 -2,0 0,2 2,0 0,-2 z"/><path id="path66" style="fill:#ffcc4d;fill-opacity:1;fill-rule:nonzero;stroke:none" d="m 32,19 -2,0 0,2 2,0 0,-2 z"/></g></g></g></svg>
