<svg xmlns="http://www.w3.org/2000/svg" viewBox="0 0 47.5 47.5" enable-background="new 0 0 47.5 47.5"><defs><clipPath id="a"><path d="M0 38h38V0H0v38z"/></clipPath></defs><g><g><g clip-path="url(#a)" transform="matrix(1.25 0 0 -1.25 0 47.5)"><g><path fill="#269" d="M34.4 13.32c-7.56-4.87-20.06.44-18.38 8.06 1.48 6.7 9.42 4.77 11.23 3.87 1.8-.9.7 3.88-3.48 5.32-5.67 1.95-12.6 1.54-14.8-8.25-1.5-6.68 1.43-16.06 12.7-16.18C32.98 6 34.4 13.32 34.4 13.32"/></g><g><path fill="#55acee" d="M37 11.8c0 2.15-2.77 2.34-4 1.13-3-2.92-7.4-4.02-13.3-2.87-10.26 2-10.35 14.02-3.34 17.45 3.8 1.86 8.3-.34 10-1.65 1.48-1.14 4.33-2.66 4.18-.75-.32 4.06-8.28 12.76-18.94 7.26C.93 26.86 1 14.46 1 12.2V4.95C1 2.75 2.8 1 5.02 1h28C35.22 1 37 2.74 37 4.95c0 0 0 6.85 0 6.86"/></g></g></g></g></svg>