<?xml version="1.0" encoding="UTF-8" standalone="no"?><svg xmlns:dc="http://purl.org/dc/elements/1.1/" xmlns:cc="http://creativecommons.org/ns#" xmlns:rdf="http://www.w3.org/1999/02/22-rdf-syntax-ns#" xmlns:svg="http://www.w3.org/2000/svg" xmlns="http://www.w3.org/2000/svg" viewBox="0 0 47.5 47.5" style="enable-background:new 0 0 47.5 47.5;" xml:space="preserve" version="1.1" id="svg2"><metadata id="metadata8"><rdf:RDF><cc:Work rdf:about=""><dc:format>image/svg+xml</dc:format><dc:type rdf:resource="http://purl.org/dc/dcmitype/StillImage"/></cc:Work></rdf:RDF></metadata><defs id="defs6"><clipPath id="clipPath16" clipPathUnits="userSpaceOnUse"><path id="path18" d="M 5,37 C 2.791,37 1,35.209 1,33 L 1,33 1,5 C 1,2.791 2.791,1 5,1 l 0,0 28,0 c 2.209,0 4,1.791 4,4 l 0,0 0,28 c 0,2.209 -1.791,4 -4,4 l 0,0 -28,0 z"/></clipPath><clipPath id="clipPath72" clipPathUnits="userSpaceOnUse"><path id="path74" d="M 0,38 38,38 38,0 0,0 0,38 Z"/></clipPath></defs><g transform="matrix(1.25,0,0,-1.25,0,47.5)" id="g10"><g id="g12"><g clip-path="url(#clipPath16)" id="g14"><path id="path20" style="fill:#226699;fill-opacity:1;fill-rule:nonzero;stroke:none" d="M 38,0 0,0 0,38 38,38 38,0 Z"/><g transform="translate(11,1)" id="g22"><path id="path24" style="fill:#3f484c;fill-opacity:1;fill-rule:nonzero;stroke:none" d="m 0,0 0,29 4,4 2,0 4,-4 L 10,0 0,0 Z"/></g><g transform="translate(34,26)" id="g26"><path id="path28" style="fill:#3f484c;fill-opacity:1;fill-rule:nonzero;stroke:none" d="M 0,0 C 0,1 -1.286,1 -1.286,1 L -7.714,1 C -7.714,1 -9,1.001 -9,0 l 0,-25 9,0 0,25 z"/></g><g transform="translate(29,18)" id="g30"><path id="path32" style="fill:#292f33;fill-opacity:1;fill-rule:nonzero;stroke:none" d="m 0,0 c 0,1 -1,1 -1,1 l -8,0 c -1,0 -1,-1 -1,-1 l 0,-17 10,0 0,17 z"/></g><g transform="translate(7,23)" id="g34"><path id="path36" style="fill:#292f33;fill-opacity:1;fill-rule:nonzero;stroke:none" d="m 0,0 c 0,0 0,1 -1,1 l -5,0 0,-23 6,0 0,22 z"/></g><g transform="translate(13,15)" id="g38"><path id="path40" style="fill:#292f33;fill-opacity:1;fill-rule:nonzero;stroke:none" d="m 0,0 c 0,0 0,1 -1,1 l -6,0 c 0,0 -1,10e-4 -1,-1 l 0,-14 8,0 0,14 z"/></g><g transform="translate(32,11)" id="g42"><path id="path44" style="fill:#292f33;fill-opacity:1;fill-rule:nonzero;stroke:none" d="M 0,0 C 0,0 0,1 1,1 L 5,1 5,-10 0,-10 0,0 Z"/></g></g></g><path id="path46" style="fill:#ffcc4d;fill-opacity:1;fill-rule:nonzero;stroke:none" d="M 11,4 9,4 9,6 11,6 11,4 Z"/><path id="path48" style="fill:#ffcc4d;fill-opacity:1;fill-rule:nonzero;stroke:none" d="m 11,12 -2,0 0,2 2,0 0,-2 z"/><path id="path50" style="fill:#ffcc4d;fill-opacity:1;fill-rule:nonzero;stroke:none" d="M 9,8 7,8 7,10 9,10 9,8 Z"/><path id="path52" style="fill:#ffcc4d;fill-opacity:1;fill-rule:nonzero;stroke:none" d="m 19,26 -2,0 0,2 2,0 0,-2 z"/><path id="path54" style="fill:#ffcc4d;fill-opacity:1;fill-rule:nonzero;stroke:none" d="m 19,22 -2,0 0,2 2,0 0,-2 z"/><path id="path56" style="fill:#ffcc4d;fill-opacity:1;fill-rule:nonzero;stroke:none" d="m 17,18 -2,0 0,2 2,0 0,-2 z"/><path id="path58" style="fill:#ffcc4d;fill-opacity:1;fill-rule:nonzero;stroke:none" d="m 27,15 -2,0 0,2 2,0 0,-2 z"/><path id="path60" style="fill:#ffcc4d;fill-opacity:1;fill-rule:nonzero;stroke:none" d="m 25,11 -2,0 0,2 2,0 0,-2 z"/><path id="path62" style="fill:#ffcc4d;fill-opacity:1;fill-rule:nonzero;stroke:none" d="m 23,5 -2,0 0,2 2,0 0,-2 z"/><path id="path64" style="fill:#ffcc4d;fill-opacity:1;fill-rule:nonzero;stroke:none" d="m 32,23 -2,0 0,2 2,0 0,-2 z"/><path id="path66" style="fill:#ffcc4d;fill-opacity:1;fill-rule:nonzero;stroke:none" d="m 32,19 -2,0 0,2 2,0 0,-2 z"/><g id="g68"><g clip-path="url(#clipPath72)" id="g70"><g transform="translate(7.5,30)" id="g76"><path id="path78" style="fill:#ffffff;fill-opacity:1;fill-rule:nonzero;stroke:none" d="m 0,0 c -1.381,0 -2.5,1.119 -2.5,2.5 0,1.13 0.755,2.074 1.784,2.383 C -0.967,4.952 -1.227,5 -1.5,5 c -1.657,0 -3,-1.343 -3,-3 0,-1.657 1.343,-3 3,-3 0.959,0 1.803,0.458 2.353,1.159 C 0.585,0.062 0.301,0 0,0"/></g><g transform="translate(12,34.5)" id="g80"><path id="path82" style="fill:#ffffff;fill-opacity:1;fill-rule:nonzero;stroke:none" d="M 0,0 C 0,-0.276 -0.224,-0.5 -0.5,-0.5 -0.776,-0.5 -1,-0.276 -1,0 -1,0.276 -0.776,0.5 -0.5,0.5 -0.224,0.5 0,0.276 0,0"/></g><g transform="translate(9,25.5)" id="g84"><path id="path86" style="fill:#ffffff;fill-opacity:1;fill-rule:nonzero;stroke:none" d="M 0,0 C 0,-0.276 -0.224,-0.5 -0.5,-0.5 -0.776,-0.5 -1,-0.276 -1,0 -1,0.276 -0.776,0.5 -0.5,0.5 -0.224,0.5 0,0.276 0,0"/></g><g transform="translate(24,32)" id="g88"><path id="path90" style="fill:#ffffff;fill-opacity:1;fill-rule:nonzero;stroke:none" d="m 0,0 c 0,-0.552 -0.447,-1 -1,-1 -0.553,0 -1,0.448 -1,1 0,0.552 0.447,1 1,1 0.553,0 1,-0.448 1,-1"/></g><g transform="translate(28,31.5)" id="g92"><path id="path94" style="fill:#ffffff;fill-opacity:1;fill-rule:nonzero;stroke:none" d="M 0,0 C 0,-0.276 -0.224,-0.5 -0.5,-0.5 -0.776,-0.5 -1,-0.276 -1,0 -1,0.276 -0.776,0.5 -0.5,0.5 -0.224,0.5 0,0.276 0,0"/></g><g transform="translate(33,34)" id="g96"><path id="path98" style="fill:#ffffff;fill-opacity:1;fill-rule:nonzero;stroke:none" d="m 0,0 c 0,-0.552 -0.447,-1 -1,-1 -0.553,0 -1,0.448 -1,1 0,0.552 0.447,1 1,1 0.553,0 1,-0.448 1,-1"/></g><g transform="translate(33,29.5)" id="g100"><path id="path102" style="fill:#ffffff;fill-opacity:1;fill-rule:nonzero;stroke:none" d="M 0,0 C 0,-0.276 -0.224,-0.5 -0.5,-0.5 -0.776,-0.5 -1,-0.276 -1,0 -1,0.276 -0.776,0.5 -0.5,0.5 -0.224,0.5 0,0.276 0,0"/></g></g></g></g></svg>
