<svg xmlns="http://www.w3.org/2000/svg" viewBox="0 0 47.5 47.5" enable-background="new 0 0 47.5 47.5"><defs><clipPath id="a"><path d="M0 38h38V0H0v38z"/></clipPath><clipPath id="b"><path d="M15.2 29.9L3 5l1-1 1-1 24.9 12.2c.72.37 1.15 1.14 1.1 1.94-.06.8-.6 1.5-1.37 1.76l-1.63.54V21c0 .92-.63 1.72-1.5 1.94h-.02l-2.83.7-.7 2.85c-.23.88-1.03 1.5-1.95 1.5h-1.56l-.54 1.63c-.26.77-.95 1.3-1.76 1.37-.05 0-.1 0-.14 0-.75 0-1.45-.42-1.8-1.1"/></clipPath></defs><g><g><g clip-path="url(#a)" transform="matrix(1.25 0 0 -1.25 0 47.5)"><g><path fill="#66757f" d="M2 2C1 3 2 4 2 4l26 26s1.48 1.52 0 3-3 0-3 0-1-1-2 0 0 2 0 2 3.52 3.48 7 0c3.5-3.5 0-7 0-7L4 2S3 1 2 2"/></g><g><path fill="#9266cc" d="M4 4L3 5l12.2 24.9c.35.68 1.05 1.1 1.8 1.1.05 0 .1 0 .14 0 .8-.06 1.5-.6 1.76-1.37l.54-1.63H21c.92 0 1.72-.63 1.94-1.5l.7-2.85 2.85-.7c.88-.23 1.5-1.03 1.5-1.95v-1.56l1.63-.54c.77-.26 1.3-.95 1.37-1.76.05-.8-.38-1.57-1.1-1.93L5 3 4 4z"/></g></g></g><g><g clip-path="url(#b)" transform="matrix(1.25 0 0 -1.25 0 47.5)"><g><path fill="#744eaa" d="M22 32L3 4V3l21 21-2 8z"/></g><g><path fill="#744eaa" d="M30 21L4 3l2-1 29 13-5 6z"/></g></g></g></g></svg>