<svg xmlns="http://www.w3.org/2000/svg" viewBox="0 0 47.5 47.5" enable-background="new 0 0 47.5 47.5"><defs><clipPath id="a"><path d="M0 38h38V0H0v38z"/></clipPath><clipPath id="b"><path d="M5 37c-4 0-4-4-4-4V5c0-4 4-4 4-4h28c4 0 4 4 4 4v28c0 4-4 4-4 4H5z"/></clipPath></defs><g><g><g clip-path="url(#a)" transform="matrix(1.25 0 0 -1.25 0 47.5)"><g><path fill="#88c9f9" d="M1 33s0 4 4 4h28s4 0 4-4V5s0-4-4-4H5S1 1 1 5v28z"/></g></g></g><g><g clip-path="url(#b)" transform="matrix(1.25 0 0 -1.25 0 47.5)"><g><path fill="#ed1c24" d="M1 1c0 19.88 16.12 36 36 36S73 20.88 73 1 56.88-35 37-35 1-18.88 1 1"/></g><g><path fill="#f4900c" d="M4.04 1C4.04 19.2 18.8 33.96 37 33.96 55.2 33.96 69.96 19.2 69.96 1c0-18.2-14.76-32.96-32.96-32.96C18.8-31.96 4.04-17.2 4.04 1"/></g><g><path fill="#ffcc4d" d="M7.04 1c0 16.55 13.4 29.96 29.96 29.96 16.54 0 29.96-13.4 29.96-29.96 0-16.55-13.42-29.96-29.96-29.96C20.45-28.96 7.04-15.56 7.04 1"/></g><g><path fill="#5c913b" d="M10.04 1c0 14.9 12.07 26.96 26.96 26.96C51.9 27.96 63.96 15.9 63.96 1c0-14.9-12.07-26.96-26.96-26.96C22.1-25.96 10.04-13.9 10.04 1"/></g><g><path fill="#269" d="M13.04 1c0 13.23 10.73 23.96 23.96 23.96S60.96 14.23 60.96 1 50.23-22.96 37-22.96 13.04-12.23 13.04 1"/></g><g><path fill="#9266cc" d="M16.04 1c0 11.57 9.4 20.96 20.96 20.96 11.57 0 20.96-9.4 20.96-20.96 0-11.57-9.4-20.96-20.96-20.96-11.57 0-20.96 9.4-20.96 20.96"/></g><g><path fill="#88c9f9" d="M19.04 1c0 9.92 8.04 17.96 17.96 17.96 9.92 0 17.96-8.04 17.96-17.96 0-9.92-8.04-17.96-17.96-17.96-9.92 0-17.96 8.04-17.96 17.96"/></g></g></g></g></svg>