<svg xmlns="http://www.w3.org/2000/svg" viewBox="0 0 47.5 47.5" enable-background="new 0 0 47.5 47.5"><defs><clipPath id="a"><path d="M0 38h38V0H0v38z"/></clipPath></defs><g><g><g clip-path="url(#a)" transform="matrix(1.25 0 0 -1.25 0 47.5)"><g><path fill="#55acee" d="M17.78 23c.38.1.76.16 1.15.16 1.78 0 3.37-1.2 3.87-2.9.63-2.14-.6-4.4-2.74-5.02-.37-.1-.75-.16-1.14-.16-1.78 0-3.37 1.2-3.87 2.9-.63 2.14.6 4.4 2.73 5.02m19-10.52c-.13.44-.42.8-.82 1.02-.8.43-1.88.1-2.32-.68-1.8-3.3-4.77-5.7-8.37-6.76C21.7 5 17.84 5.42 14.57 7.2c-2.55 1.4-4.4 3.7-5.24 6.5-.74 2.5-.5 5 .56 7.03-.38-1.6-.33-3.3.15-4.9.74-2.52 2.4-4.58 4.7-5.83 2.73-1.5 6-1.84 8.98-.96 3.02.9 5.52 2.9 7.03 5.67 1.83 3.37 2.24 7.24 1.16 10.9-1.08 3.67-3.52 6.7-6.88 8.53-4.06 2.2-8.88 2.73-13.3 1.42-4.48-1.3-8.17-4.3-10.4-8.4-.46-.82-.15-1.86.67-2.3.82-.45 1.9-.13 2.33.67 1.8 3.3 4.77 5.7 8.37 6.76 3.57 1.05 7.44.63 10.7-1.15 2.56-1.4 4.42-3.7 5.24-6.5.74-2.5.5-5-.55-7.02.35 1.6.3 3.3-.17 4.92-.74 2.5-2.4 4.57-4.7 5.82-2.74 1.5-6 1.84-8.98.96-3.03-.9-5.52-2.9-7.03-5.67-1.83-3.36-2.25-7.23-1.16-10.9 1.08-3.67 3.52-6.7 6.88-8.53 2.57-1.4 5.45-2.14 8.34-2.14 1.67 0 3.34.24 4.96.72 4.47 1.32 8.17 4.3 10.4 8.4.22.4.27.86.14 1.3"/></g></g></g></g></svg>