<svg xmlns="http://www.w3.org/2000/svg" viewBox="0 0 47.5 47.5" enable-background="new 0 0 47.5 47.5"><defs><clipPath id="a"><path d="M0 38h38V0H0v38z"/></clipPath></defs><g><g><g clip-path="url(#a)" transform="matrix(1.25 0 0 -1.25 0 47.5)"><g><path fill="#ccd6dd" d="M37 19c0-9.94-8.06-18-18-18S1 9.06 1 19s8.06 18 18 18 18-8.06 18-18"/></g><g><path fill="#66757f" d="M1 19C1 9.06 9.06 1 19 1c.3 0 .58.03.87.04C25.77 3.6 30 10.67 30 19s-4.24 15.4-10.13 17.96c-.3 0-.57.04-.87.04-9.94 0-18-8.06-18-18"/></g><g><path fill="#5b6876" d="M15 28.5c0-1.93-1.57-3.5-3.5-3.5S8 26.57 8 28.5 9.57 32 11.5 32s3.5-1.57 3.5-3.5"/></g><g><path fill="#5b6876" d="M24 21c0-1.66-1.34-3-3-3s-3 1.34-3 3 1.34 3 3 3 3-1.34 3-3"/></g><g><path fill="#5b6876" d="M26 9.5C26 7.57 24.43 6 22.5 6S19 7.57 19 9.5s1.57 3.5 3.5 3.5S26 11.43 26 9.5"/></g><g><path fill="#5b6876" d="M24 31c0-1.1-.9-2-2-2s-2 .9-2 2 .9 2 2 2 2-.9 2-2"/></g><g><path fill="#5b6876" d="M3 19c0-.55.45-1 1-1s1 .45 1 1-.45 1-1 1-1-.45-1-1"/></g><g><path fill="#b8c5cd" d="M30 28c0-.55.45-1 1-1s1 .45 1 1-.45 1-1 1-1-.45-1-1"/></g><g><path fill="#5b6876" d="M15 6c0-.55.45-1 1-1s1 .45 1 1-.45 1-1 1-1-.45-1-1"/></g><g><path fill="#b8c5cd" d="M35 18c0-1.1-.9-2-2-2s-2 .9-2 2 .9 2 2 2 2-.9 2-2"/></g><g><path fill="#5b6876" d="M13 14c0-1.1-.9-2-2-2s-2 .9-2 2 .9 2 2 2 2-.9 2-2"/></g></g></g></g></svg>