<svg xmlns="http://www.w3.org/2000/svg" viewBox="0 0 47.5 47.5" enable-background="new 0 0 47.5 47.5"><defs><clipPath id="a"><path d="M0 38h38V0H0v38z"/></clipPath></defs><g><g><g clip-path="url(#a)" transform="matrix(1.25 0 0 -1.25 0 47.5)"><g><path fill="#ccd6dd" d="M31.3 36.22C33 18 21 5 1.8 6.7c8.2-7.73 21.1-7.6 29.1.42 8.02 8 8.15 20.9.43 29.1"/></g><g><path fill="#b8c5cd" d="M31.7 21.09c-.45-.47-.45-1.2 0-1.66.46-.45 1.2-.45 1.65 0 .45.46.45 1.2 0 1.65-.46.44-1.2.44-1.64-.02"/></g><g><path fill="#b8c5cd" d="M15.68 6.7c-.68-.68-.68-1.78 0-2.46.68-.68 1.8-.68 2.47 0 .68.68.68 1.78 0 2.47-.68.7-1.8.7-2.47 0"/></g><g><path fill="#b8c5cd" d="M29.65 8.85c-1.13-1.13-2.97-1.13-4.1 0-1.14 1.14-1.14 2.98 0 4.1 1.13 1.14 2.97 1.14 4.1 0 1.14-1.12 1.14-2.96 0-4.1"/></g></g></g></g></svg>