<?xml version="1.0" encoding="UTF-8" standalone="no"?>
<!-- Created with Inkscape (http://www.inkscape.org/) -->

<svg
   xmlns:svg="http://www.w3.org/2000/svg"
   xmlns="http://www.w3.org/2000/svg"
   version="1.1"
   width="47.5"
   height="47.5"
   id="svg2"
   xml:space="preserve"><defs
     id="defs6"><clipPath
       id="clipPath18"><path
         d="M 0,38 38,38 38,0 0,0 0,38 z"
         id="path20" /></clipPath></defs><g
     transform="matrix(1.25,0,0,-1.25,0,47.5)"
     id="g12"><g
       id="g14"><g
         clip-path="url(#clipPath18)"
         id="g16"><g
           transform="translate(37,19)"
           id="g22"><path
             d="m 0,0 c 0,-9.941 -8.059,-18 -18,-18 -9.941,0 -18,8.059 -18,18 0,9.941 8.059,18 18,18 C -8.059,18 0,9.941 0,0"
             id="path24"
             style="fill:#ccd6dd;fill-opacity:1;fill-rule:nonzero;stroke:none" /></g><g
           transform="translate(15,28.5)"
           id="g26"><path
             d="M 0,0 C 0,-1.933 -1.566,-3.5 -3.5,-3.5 -5.434,-3.5 -7,-1.933 -7,0 -7,1.933 -5.434,3.5 -3.5,3.5 -1.566,3.5 0,1.933 0,0"
             id="path28"
             style="fill:#b8c5cd;fill-opacity:1;fill-rule:nonzero;stroke:none" /></g><g
           transform="translate(24,20)"
           id="g30"><path
             d="m 0,0 c 0,-1.657 -1.343,-3 -3,-3 -1.657,0 -3,1.343 -3,3 0,1.657 1.343,3 3,3 1.657,0 3,-1.343 3,-3"
             id="path32"
             style="fill:#b8c5cd;fill-opacity:1;fill-rule:nonzero;stroke:none" /></g><g
           transform="translate(29,8.5)"
           id="g34"><path
             d="M 0,0 C 0,-1.934 -1.566,-3.5 -3.5,-3.5 -5.434,-3.5 -7,-1.934 -7,0 -7,1.934 -5.434,3.5 -3.5,3.5 -1.566,3.5 0,1.934 0,0"
             id="path36"
             style="fill:#b8c5cd;fill-opacity:1;fill-rule:nonzero;stroke:none" /></g><g
           transform="translate(25,32)"
           id="g38"><path
             d="m 0,0 c 0,-1.104 -0.896,-2 -2,-2 -1.104,0 -2,0.896 -2,2 0,1.104 0.896,2 2,2 1.104,0 2,-0.896 2,-2"
             id="path40"
             style="fill:#b8c5cd;fill-opacity:1;fill-rule:nonzero;stroke:none" /></g><g
           transform="translate(3,19)"
           id="g42"><path
             d="M 0,0 C 0,-0.553 0.448,-1 1,-1 1.552,-1 2,-0.553 2,0 2,0.552 1.552,1 1,1 0.448,1 0,0.552 0,0"
             id="path44"
             style="fill:#b8c5cd;fill-opacity:1;fill-rule:nonzero;stroke:none" /></g><g
           transform="translate(30,28)"
           id="g46"><path
             d="M 0,0 C 0,-0.553 0.447,-1 1,-1 1.553,-1 2,-0.553 2,0 2,0.552 1.553,1 1,1 0.447,1 0,0.552 0,0"
             id="path48"
             style="fill:#b8c5cd;fill-opacity:1;fill-rule:nonzero;stroke:none" /></g><g
           transform="translate(15,6)"
           id="g50"><path
             d="M 0,0 C 0,-0.553 0.447,-1 1,-1 1.553,-1 2,-0.553 2,0 2,0.553 1.553,1 1,1 0.447,1 0,0.553 0,0"
             id="path52"
             style="fill:#b8c5cd;fill-opacity:1;fill-rule:nonzero;stroke:none" /></g><g
           transform="translate(35,18)"
           id="g54"><path
             d="m 0,0 c 0,-1.104 -0.896,-2 -2,-2 -1.104,0 -2,0.896 -2,2 0,1.104 0.896,2 2,2 1.104,0 2,-0.896 2,-2"
             id="path56"
             style="fill:#b8c5cd;fill-opacity:1;fill-rule:nonzero;stroke:none" /></g><g
           transform="translate(13,14)"
           id="g58"><path
             d="m 0,0 c 0,-1.104 -0.896,-2 -2,-2 -1.104,0 -2,0.896 -2,2 0,1.104 0.896,2 2,2 1.104,0 2,-0.896 2,-2"
             id="path60"
             style="fill:#b8c5cd;fill-opacity:1;fill-rule:nonzero;stroke:none" /></g></g></g></g></svg>