<svg xmlns="http://www.w3.org/2000/svg" viewBox="0 0 47.5 47.5" enable-background="new 0 0 47.5 47.5"><defs><clipPath id="a"><path d="M0 38h38V0H0v38z"/></clipPath></defs><g><g><g clip-path="url(#a)" transform="matrix(1.25 0 0 -1.25 0 47.5)"><g><path fill="#ffcc4d" d="M29.84 19.36c-1-1.04-1.63-3.06-1.44-4.5l.9-6.43c.2-1.43-.7-2.1-2-1.47l-5.85 2.8c-1.3.62-3.4.6-4.7-.02L10.92 6.9c-1.3-.63-2.2.02-2 1.45l.84 6.45c.18 1.42-.48 3.44-1.47 4.48l-4.5 4.7c-1 1.02-.66 2.1.75 2.35l6.37 1.2c1.4.25 3.1 1.5 3.8 2.78l3.04 5.74c.68 1.28 1.8 1.28 2.48 0l3.1-5.7c.68-1.26 2.4-2.5 3.8-2.76l6.38-1.14c1.4-.25 1.76-1.3.78-2.36l-4.46-4.72z"/></g><g><path fill="#ffd983" d="M10.78 34.82c1.03-1.4 2.45-4.92 1.72-5.45-.73-.53-3.6 1.9-4.63 3.32-1.02 1.4-.94 2.66-.13 3.25.8.6 2.02.28 3.04-1.13"/></g><g><path fill="#ffd983" d="M30.13 32.7c-1.02-1.42-3.9-3.86-4.63-3.33-.73.53.7 4.04 1.72 5.45 1.02 1.4 2.24 1.72 3.04 1.13.8-.6.9-1.84-.13-3.26"/></g><g><path fill="#ffd983" d="M17.62 3.7c0 1.75.9 5.43 1.8 5.43s1.8-3.67 1.8-5.42c0-1.74-.8-2.7-1.8-2.7s-1.8.96-1.8 2.7"/></g><g><path fill="#ffd983" d="M33.8 12.97c-1.65.54-4.85 2.53-4.58 3.4.28.85 4.04.58 5.7.04 1.65-.53 2.32-1.6 2-2.55-.3-.95-1.46-1.42-3.12-.88"/></g><g><path fill="#ffd983" d="M3.08 16.4c1.66.55 5.42.82 5.7-.04.27-.85-2.93-2.85-4.58-3.4-1.66-.53-2.82-.06-3.13.9-.3.94.36 2 2 2.55"/></g></g></g></g></svg>