<?xml version="1.0" encoding="UTF-8" standalone="no"?>
<!-- Created with Inkscape (http://www.inkscape.org/) -->

<svg
   xmlns:svg="http://www.w3.org/2000/svg"
   xmlns="http://www.w3.org/2000/svg"
   version="1.1"
   width="47.5"
   height="47.5"
   id="svg2"
   xml:space="preserve"><defs
     id="defs6"><clipPath
       id="clipPath18"><path
         d="M 0,38 38,38 38,0 0,0 0,38 z"
         id="path20" /></clipPath></defs><g
     transform="matrix(1.25,0,0,-1.25,0,47.5)"
     id="g12"><g
       id="g14"><g
         clip-path="url(#clipPath18)"
         id="g16"><g
           transform="translate(31.3115,36.2236)"
           id="g22"><path
             d="m 0,0 c 1.688,-18.224 -10.312,-31.224 -29.535,-29.536 8.199,-7.717 21.091,-7.588 29.107,0.429 C 7.589,-21.091 7.719,-8.198 0,0"
             id="path24"
             style="fill:#ccd6dd;fill-opacity:1;fill-rule:nonzero;stroke:none" /></g><g
           transform="translate(31.7051,21.085)"
           id="g26"><path
             d="m 0,0 c -0.453,-0.454 -0.453,-1.189 0,-1.644 0.454,-0.453 1.189,-0.453 1.644,0 0.454,0.455 0.455,1.19 0,1.644 C 1.189,0.454 0.454,0.454 0,0"
             id="path28"
             style="fill:#b8c5cd;fill-opacity:1;fill-rule:nonzero;stroke:none" /></g><g
           transform="translate(15.6831,6.7051)"
           id="g30"><path
             d="m 0,0 c -0.682,-0.681 -0.682,-1.783 0,-2.465 0.68,-0.681 1.784,-0.681 2.464,0 0.681,0.682 0.681,1.784 0,2.465 C 1.784,0.682 0.68,0.682 0,0"
             id="path32"
             style="fill:#b8c5cd;fill-opacity:1;fill-rule:nonzero;stroke:none" /></g><g
           transform="translate(29.6514,8.8516)"
           id="g34"><path
             d="m 0,0 c -1.135,-1.135 -2.974,-1.135 -4.108,0 -1.135,1.135 -1.135,2.975 0,4.107 1.134,1.136 2.973,1.136 4.108,0 C 1.135,2.975 1.135,1.135 0,0"
             id="path36"
             style="fill:#b8c5cd;fill-opacity:1;fill-rule:nonzero;stroke:none" /></g></g></g></g></svg>