<?xml version="1.0" encoding="UTF-8" standalone="no"?><svg xmlns:svg="http://www.w3.org/2000/svg" xmlns="http://www.w3.org/2000/svg" version="1.1" viewBox="0 0 47.5 47.5" style="enable-background:new 0 0 47.5 47.5;" id="svg2" xml:space="preserve"><defs id="defs6"><clipPath id="clipPath18"><path d="M 0,38 38,38 38,0 0,0 0,38 z" id="path20"/></clipPath></defs><g transform="matrix(1.25,0,0,-1.25,0,47.5)" id="g12"><g id="g14"><g clip-path="url(#clipPath18)" id="g16"><g transform="translate(29.8398,19.3623)" id="g22"><path d="m 0,0 c -0.987,-1.044 -1.633,-3.067 -1.437,-4.493 l 0.891,-6.442 c 0.197,-1.426 -0.701,-2.086 -1.996,-1.468 l -5.851,2.796 c -1.295,0.62 -3.408,0.611 -4.699,-0.018 l -5.826,-2.842 c -1.291,-0.629 -2.194,0.027 -2.008,1.452 l 0.843,6.45 c 0.186,1.426 -0.475,3.444 -1.47,4.481 l -4.493,4.688 c -0.996,1.036 -0.656,2.101 0.754,2.365 l 6.371,1.187 c 1.41,0.263 3.116,1.519 3.793,2.789 l 3.05,5.737 c 0.676,1.271 1.789,1.274 2.474,0.009 L -6.51,10.979 C -5.824,9.713 -4.109,8.472 -2.695,8.22 L 3.683,7.08 C 5.095,6.827 5.443,5.766 4.457,4.72 L 0,0 z" id="path24" style="fill:#ffcc4d;fill-opacity:1;fill-rule:nonzero;stroke:none"/></g><g transform="translate(10.7827,34.8188)" id="g26"><path d="M 0,0 C 1.023,-1.413 2.446,-4.917 1.717,-5.447 0.989,-5.978 -1.89,-3.537 -2.913,-2.124 -3.935,-0.711 -3.848,0.544 -3.044,1.13 -2.24,1.717 -1.023,1.413 0,0" id="path28" style="fill:#ffd983;fill-opacity:1;fill-rule:nonzero;stroke:none"/></g><g transform="translate(30.1309,32.6948)" id="g30"><path d="m 0,0 c -1.022,-1.414 -3.901,-3.855 -4.631,-3.322 -0.728,0.53 0.695,4.033 1.719,5.445 1.023,1.414 2.238,1.719 3.043,1.131 C 0.935,2.668 1.021,1.413 0,0" id="path32" style="fill:#ffd983;fill-opacity:1;fill-rule:nonzero;stroke:none"/></g><g transform="translate(17.6245,3.709)" id="g34"><path d="m 0,0 c -0.001,1.746 0.898,5.421 1.801,5.421 0.898,0 1.798,-3.675 1.797,-5.42 0,-1.747 -0.804,-2.712 -1.8,-2.71 C 0.804,-2.711 0,-1.747 0,0" id="path36" style="fill:#ffd983;fill-opacity:1;fill-rule:nonzero;stroke:none"/></g><g transform="translate(33.8037,12.9707)" id="g38"><path d="M 0,0 C -1.655,0.539 -4.858,2.533 -4.579,3.395 -4.302,4.252 -0.542,3.976 1.11,3.436 2.766,2.896 3.432,1.83 3.123,0.88 2.816,-0.069 1.655,-0.54 0,0" id="path40" style="fill:#ffd983;fill-opacity:1;fill-rule:nonzero;stroke:none"/></g><g transform="translate(3.083,16.4063)" id="g42"><path d="M 0,0 C 1.655,0.54 5.414,0.817 5.694,-0.044 5.97,-0.901 2.766,-2.897 1.113,-3.436 -0.541,-3.976 -1.705,-3.506 -2.01,-2.556 -2.318,-1.606 -1.656,-0.541 0,0" id="path44" style="fill:#ffd983;fill-opacity:1;fill-rule:nonzero;stroke:none"/></g></g></g></g></svg>
