<svg xmlns="http://www.w3.org/2000/svg" viewBox="0 0 47.5 47.5" enable-background="new 0 0 47.5 47.5"><defs><clipPath id="a"><path d="M0 38h38V0H0v38z"/></clipPath></defs><g><g><g clip-path="url(#a)" transform="matrix(1.25 0 0 -1.25 0 47.5)"><g><path fill="#ccd6dd" d="M26 24c0 4.98-1.93 9.5-5.07 12.9C29.96 35.92 37 28.3 37 19c0-9.94-8.06-18-18-18-4.3 0-8.25 1.5-11.35 4.03 7.17.25 13.3 4.45 16.35 10.5.63 1.22-2.8 1.2-2.96 3.47-.15 2.13 4.96 2.74 4.96 5"/></g><g><path fill="#b8c5cd" d="M23 8.5C23 6.57 24.57 5 26.5 5S30 6.57 30 8.5 28.43 12 26.5 12 23 10.43 23 8.5"/></g><g><path fill="#b8c5cd" d="M29 30c0-.55-.45-1-1-1s-1 .45-1 1 .45 1 1 1 1-.45 1-1"/></g><g><path fill="#b8c5cd" d="M20 5c0-.55-.45-1-1-1s-1 .45-1 1 .45 1 1 1 1-.45 1-1"/></g><g><path fill="#b8c5cd" d="M32 17c0-1.1.9-2 2-2s2 .9 2 2-.9 2-2 2-2-.9-2-2"/></g><g><path fill="#99aab5" d="M20.8 10.98c.77.82 1.48 1.7 2.1 2.65 5.45-1.23 7.64.27 7.32-.8-.34-1.16-4.8-3.02-9.42-1.85"/></g><g><path fill="#99aab5" d="M27 22.5c0-1.38 1.12-2.5 2.5-2.5s2.5 1.12 2.5 2.5-1.12 2.5-2.5 2.5-2.5-1.12-2.5-2.5"/></g></g></g></g></svg>