<svg xmlns="http://www.w3.org/2000/svg" viewBox="0 0 47.5 47.5" enable-background="new 0 0 47.5 47.5"><defs><clipPath id="a"><path d="M0 38h38V0H0v38z"/></clipPath></defs><g><g><g clip-path="url(#a)" transform="matrix(1.25 0 0 -1.25 0 47.5)"><g><path fill="#ccd6dd" d="M19 37V1c9.94 0 18 8.06 18 18s-8.06 18-18 18"/></g><g><path fill="#66757f" d="M1 19C1 9.06 9.06 1 19 1v36C9.06 37 1 28.94 1 19"/></g><g><path fill="#b8c5cd" d="M23 28.5c0-1.93 1.57-3.5 3.5-3.5s3.5 1.57 3.5 3.5-1.57 3.5-3.5 3.5-3.5-1.57-3.5-3.5"/></g><g><path fill="#5b6876" d="M10 21c0-1.66 1.34-3 3-3s3 1.34 3 3-1.34 3-3 3-3-1.34-3-3"/></g><g><path fill="#5b6876" d="M11 9.5C11 7.57 12.57 6 14.5 6S18 7.57 18 9.5 16.43 13 14.5 13 11 11.43 11 9.5"/></g><g><path fill="#5b6876" d="M14 31c0-1.1.9-2 2-2s2 .9 2 2-.9 2-2 2-2-.9-2-2"/></g><g><path fill="#b8c5cd" d="M35 19c0-.55-.45-1-1-1s-1 .45-1 1 .45 1 1 1 1-.45 1-1"/></g><g><path fill="#5b6876" d="M8 28c0-.55-.45-1-1-1s-1 .45-1 1 .45 1 1 1 1-.45 1-1"/></g><g><path fill="#b8c5cd" d="M23 6c0-.55-.45-1-1-1s-1 .45-1 1 .45 1 1 1 1-.45 1-1"/></g><g><path fill="#5b6876" d="M3 18c0-1.1.9-2 2-2s2 .9 2 2-.9 2-2 2-2-.9-2-2"/></g><g><path fill="#b8c5cd" d="M25 14c0-1.1.9-2 2-2s2 .9 2 2-.9 2-2 2-2-.9-2-2"/></g></g></g></g></svg>