<svg xmlns="http://www.w3.org/2000/svg" viewBox="0 0 47.5 47.5" enable-background="new 0 0 47.5 47.5"><defs><clipPath id="a"><path d="M0 38h38V0H0v38z"/></clipPath></defs><g><g><g clip-path="url(#a)" transform="matrix(1.25 0 0 -1.25 0 47.5)"><g><path fill="#ccd6dd" d="M37 19c0-9.94-8.06-18-18-18S1 9.06 1 19s8.06 18 18 18 18-8.06 18-18"/></g><g><path fill="#b8c5cd" d="M14 29.5c0-1.93-1.57-3.5-3.5-3.5S7 27.57 7 29.5 8.57 33 10.5 33s3.5-1.57 3.5-3.5"/></g><g><path fill="#b8c5cd" d="M29 8.5C29 6.57 27.43 5 25.5 5S22 6.57 22 8.5s1.57 3.5 3.5 3.5S29 10.43 29 8.5"/></g><g><path fill="#b8c5cd" d="M25 32c0-1.1-.9-2-2-2s-2 .9-2 2 .9 2 2 2 2-.9 2-2"/></g><g><path fill="#b8c5cd" d="M3 19c0-.55.45-1 1-1s1 .45 1 1-.45 1-1 1-1-.45-1-1"/></g><g><path fill="#b8c5cd" d="M30 28c0-.55.45-1 1-1s1 .45 1 1-.45 1-1 1-1-.45-1-1"/></g><g><path fill="#b8c5cd" d="M16 6c0-.55.45-1 1-1s1 .45 1 1-.45 1-1 1-1-.45-1-1"/></g><g><path fill="#b8c5cd" d="M35 18c0-1.1-.9-2-2-2s-2 .9-2 2 .9 2 2 2 2-.9 2-2"/></g><g><path fill="#b8c5cd" d="M9 11c0-1.1-.9-2-2-2s-2 .9-2 2 .9 2 2 2 2-.9 2-2"/></g><g><path fill="#99aab5" d="M19 12.1c-7 0-9 2.6-9 1.38C10 12.24 14 9 19 9s9 3.24 9 4.48c0 1.23-2-1.38-9-1.38"/></g><g><path fill="#99aab5" d="M28 22c0-1.66-1.34-3-3-3s-3 1.34-3 3 1.34 3 3 3 3-1.34 3-3"/></g><g><path fill="#99aab5" d="M16 22c0-1.66-1.34-3-3-3s-3 1.34-3 3 1.34 3 3 3 3-1.34 3-3"/></g></g></g></g></svg>