<?xml version="1.0" encoding="UTF-8" standalone="no"?><svg xmlns:svg="http://www.w3.org/2000/svg" xmlns="http://www.w3.org/2000/svg" version="1.1" viewBox="0 0 47.5 47.5" style="enable-background:new 0 0 47.5 47.5;" id="svg2" xml:space="preserve"><defs id="defs6"><clipPath id="clipPath18"><path d="M 0,38 38,38 38,0 0,0 0,38 z" id="path20"/></clipPath></defs><g transform="matrix(1.25,0,0,-1.25,0,47.5)" id="g12"><g id="g14"><g clip-path="url(#clipPath18)" id="g16"><g transform="translate(23,4)" id="g22"><path d="m 0,0 c 0,-2.209 -1.791,-3 -4,-3 -2.209,0 -4,0.791 -4,3 l 1,9 c 0,2.209 0.791,2 3,2 2.209,0 3,0.209 3,-2 L 0,0 z" id="path24" style="fill:#662113;fill-opacity:1;fill-rule:nonzero;stroke:none"/></g><g transform="translate(35,20)" id="g26"><path d="m 0,0 c 0,-8.837 -7.163,-12 -16,-12 -8.836,0 -16,3.163 -16,12 0,8.836 9,17 16,17 C -9,17 0,8.836 0,0" id="path28" style="fill:#5c913b;fill-opacity:1;fill-rule:nonzero;stroke:none"/></g><g transform="translate(9,16)" id="g30"><path d="m 0,0 c 0,0.553 -0.896,1 -2,1 -1.104,0 -2,-0.447 -2,-1 0,-0.553 0.896,-1 2,-1 1.104,0 2,0.447 2,1" id="path32" style="fill:#3e721d;fill-opacity:1;fill-rule:nonzero;stroke:none"/></g><g transform="translate(33,16)" id="g34"><path d="m 0,0 c 0,0.553 -0.896,1 -2,1 -1.104,0 -2,-0.447 -2,-1 0,-0.553 0.896,-1 2,-1 1.104,0 2,0.447 2,1" id="path36" style="fill:#3e721d;fill-opacity:1;fill-rule:nonzero;stroke:none"/></g><g transform="translate(13,12)" id="g38"><path d="m 0,0 c 0,0.553 -0.896,1 -2,1 -1.104,0 -2,-0.447 -2,-1 0,-0.553 0.896,-1 2,-1 1.104,0 2,0.447 2,1" id="path40" style="fill:#3e721d;fill-opacity:1;fill-rule:nonzero;stroke:none"/></g><g transform="translate(17,15)" id="g42"><path d="m 0,0 c 0,0.553 -0.896,1 -2,1 -1.104,0 -2,-0.447 -2,-1 0,-0.553 0.896,-1 2,-1 1.104,0 2,0.447 2,1" id="path44" style="fill:#3e721d;fill-opacity:1;fill-rule:nonzero;stroke:none"/></g><g transform="translate(13,21)" id="g46"><path d="m 0,0 c 0,0.553 -0.896,1 -2,1 -1.104,0 -2,-0.447 -2,-1 0,-0.553 0.896,-1 2,-1 1.104,0 2,0.447 2,1" id="path48" style="fill:#3e721d;fill-opacity:1;fill-rule:nonzero;stroke:none"/></g><g transform="translate(10,25)" id="g50"><path d="m 0,0 c 0,0.553 -0.896,1 -2,1 -1.104,0 -2,-0.447 -2,-1 0,-0.553 0.896,-1 2,-1 1.104,0 2,0.447 2,1" id="path52" style="fill:#3e721d;fill-opacity:1;fill-rule:nonzero;stroke:none"/></g><g transform="translate(32,25)" id="g54"><path d="m 0,0 c 0,0.553 -0.896,1 -2,1 -1.104,0 -2,-0.447 -2,-1 0,-0.553 0.896,-1 2,-1 1.104,0 2,0.447 2,1" id="path56" style="fill:#3e721d;fill-opacity:1;fill-rule:nonzero;stroke:none"/></g><g transform="translate(17,27)" id="g58"><path d="m 0,0 c 0,0.553 -0.896,1 -2,1 -1.104,0 -2,-0.447 -2,-1 0,-0.553 0.896,-1 2,-1 1.104,0 2,0.447 2,1" id="path60" style="fill:#3e721d;fill-opacity:1;fill-rule:nonzero;stroke:none"/></g><g transform="translate(25,27)" id="g62"><path d="m 0,0 c 0,0.553 -0.896,1 -2,1 -1.104,0 -2,-0.447 -2,-1 0,-0.553 0.896,-1 2,-1 1.104,0 2,0.447 2,1" id="path64" style="fill:#3e721d;fill-opacity:1;fill-rule:nonzero;stroke:none"/></g><g transform="translate(29,21)" id="g66"><path d="m 0,0 c 0,0.553 -0.896,1 -2,1 -1.104,0 -2,-0.447 -2,-1 0,-0.553 0.896,-1 2,-1 1.104,0 2,0.447 2,1" id="path68" style="fill:#3e721d;fill-opacity:1;fill-rule:nonzero;stroke:none"/></g><g transform="translate(21,20)" id="g70"><path d="m 0,0 c 0,0.553 -0.896,1 -2,1 -1.104,0 -2,-0.447 -2,-1 0,-0.553 0.896,-1 2,-1 1.104,0 2,0.447 2,1" id="path72" style="fill:#3e721d;fill-opacity:1;fill-rule:nonzero;stroke:none"/></g><g transform="translate(25,15)" id="g74"><path d="m 0,0 c 0,0.553 -0.896,1 -2,1 -1.104,0 -2,-0.447 -2,-1 0,-0.553 0.896,-1 2,-1 1.104,0 2,0.447 2,1" id="path76" style="fill:#3e721d;fill-opacity:1;fill-rule:nonzero;stroke:none"/></g><g transform="translate(21,11)" id="g78"><path d="m 0,0 c 0,0.553 -0.896,1 -2,1 -1.104,0 -2,-0.447 -2,-1 0,-0.553 0.896,-1 2,-1 1.104,0 2,0.447 2,1" id="path80" style="fill:#3e721d;fill-opacity:1;fill-rule:nonzero;stroke:none"/></g><g transform="translate(29,12)" id="g82"><path d="m 0,0 c 0,0.553 -0.896,1 -2,1 -1.104,0 -2,-0.447 -2,-1 0,-0.553 0.896,-1 2,-1 1.104,0 2,0.447 2,1" id="path84" style="fill:#3e721d;fill-opacity:1;fill-rule:nonzero;stroke:none"/></g></g></g></g></svg>
