<?xml version="1.0" encoding="UTF-8" standalone="no"?><svg xmlns:dc="http://purl.org/dc/elements/1.1/" xmlns:cc="http://creativecommons.org/ns#" xmlns:rdf="http://www.w3.org/1999/02/22-rdf-syntax-ns#" xmlns:svg="http://www.w3.org/2000/svg" xmlns="http://www.w3.org/2000/svg" viewBox="0 0 47.5 47.5" style="enable-background:new 0 0 47.5 47.5;" xml:space="preserve" version="1.1" id="svg2"><metadata id="metadata8"><rdf:RDF><cc:Work rdf:about=""><dc:format>image/svg+xml</dc:format><dc:type rdf:resource="http://purl.org/dc/dcmitype/StillImage"/></cc:Work></rdf:RDF></metadata><defs id="defs6"><clipPath id="clipPath16" clipPathUnits="userSpaceOnUse"><path id="path18" d="M 0,38 38,38 38,0 0,0 0,38 Z"/></clipPath></defs><g transform="matrix(1.25,0,0,-1.25,0,47.5)" id="g10"><g id="g12"><g clip-path="url(#clipPath16)" id="g14"><g transform="translate(23,4)" id="g20"><path id="path22" style="fill:#662113;fill-opacity:1;fill-rule:nonzero;stroke:none" d="m 0,0 c 0,-2.209 -1.791,-3 -4,-3 -2.209,0 -4,0.791 -4,3 l 1,9 c 0,2.209 0.791,2 3,2 2.209,0 3,0.209 3,-2 L 0,0 Z"/></g><g transform="translate(35,20)" id="g24"><path id="path26" style="fill:#5c913b;fill-opacity:1;fill-rule:nonzero;stroke:none" d="m 0,0 c 0,-8.837 -7.163,-12 -16,-12 -8.836,0 -16,3.163 -16,12 0,8.836 9,17 16,17 C -9,17 0,8.836 0,0"/></g><g transform="translate(9,16)" id="g28"><path id="path30" style="fill:#3e721d;fill-opacity:1;fill-rule:nonzero;stroke:none" d="m 0,0 c 0,0.553 -0.896,1 -2,1 -1.104,0 -2,-0.447 -2,-1 0,-0.553 0.896,-1 2,-1 1.104,0 2,0.447 2,1"/></g><g transform="translate(33,16)" id="g32"><path id="path34" style="fill:#3e721d;fill-opacity:1;fill-rule:nonzero;stroke:none" d="m 0,0 c 0,0.553 -0.896,1 -2,1 -1.104,0 -2,-0.447 -2,-1 0,-0.553 0.896,-1 2,-1 1.104,0 2,0.447 2,1"/></g><g transform="translate(13,12)" id="g36"><path id="path38" style="fill:#3e721d;fill-opacity:1;fill-rule:nonzero;stroke:none" d="m 0,0 c 0,0.553 -0.896,1 -2,1 -1.104,0 -2,-0.447 -2,-1 0,-0.553 0.896,-1 2,-1 1.104,0 2,0.447 2,1"/></g><g transform="translate(17,15)" id="g40"><path id="path42" style="fill:#3e721d;fill-opacity:1;fill-rule:nonzero;stroke:none" d="m 0,0 c 0,0.553 -0.896,1 -2,1 -1.104,0 -2,-0.447 -2,-1 0,-0.553 0.896,-1 2,-1 1.104,0 2,0.447 2,1"/></g><g transform="translate(13,21)" id="g44"><path id="path46" style="fill:#3e721d;fill-opacity:1;fill-rule:nonzero;stroke:none" d="m 0,0 c 0,0.553 -0.896,1 -2,1 -1.104,0 -2,-0.447 -2,-1 0,-0.553 0.896,-1 2,-1 1.104,0 2,0.447 2,1"/></g><g transform="translate(10,25)" id="g48"><path id="path50" style="fill:#3e721d;fill-opacity:1;fill-rule:nonzero;stroke:none" d="m 0,0 c 0,0.553 -0.896,1 -2,1 -1.104,0 -2,-0.447 -2,-1 0,-0.553 0.896,-1 2,-1 1.104,0 2,0.447 2,1"/></g><g transform="translate(32,25)" id="g52"><path id="path54" style="fill:#3e721d;fill-opacity:1;fill-rule:nonzero;stroke:none" d="m 0,0 c 0,0.553 -0.896,1 -2,1 -1.104,0 -2,-0.447 -2,-1 0,-0.553 0.896,-1 2,-1 1.104,0 2,0.447 2,1"/></g><g transform="translate(17,27)" id="g56"><path id="path58" style="fill:#3e721d;fill-opacity:1;fill-rule:nonzero;stroke:none" d="m 0,0 c 0,0.553 -0.896,1 -2,1 -1.104,0 -2,-0.447 -2,-1 0,-0.553 0.896,-1 2,-1 1.104,0 2,0.447 2,1"/></g><g transform="translate(25,27)" id="g60"><path id="path62" style="fill:#3e721d;fill-opacity:1;fill-rule:nonzero;stroke:none" d="m 0,0 c 0,0.553 -0.896,1 -2,1 -1.104,0 -2,-0.447 -2,-1 0,-0.553 0.896,-1 2,-1 1.104,0 2,0.447 2,1"/></g><g transform="translate(29,21)" id="g64"><path id="path66" style="fill:#3e721d;fill-opacity:1;fill-rule:nonzero;stroke:none" d="m 0,0 c 0,0.553 -0.896,1 -2,1 -1.104,0 -2,-0.447 -2,-1 0,-0.553 0.896,-1 2,-1 1.104,0 2,0.447 2,1"/></g><g transform="translate(21,20)" id="g68"><path id="path70" style="fill:#3e721d;fill-opacity:1;fill-rule:nonzero;stroke:none" d="m 0,0 c 0,0.553 -0.896,1 -2,1 -1.104,0 -2,-0.447 -2,-1 0,-0.553 0.896,-1 2,-1 1.104,0 2,0.447 2,1"/></g><g transform="translate(25,15)" id="g72"><path id="path74" style="fill:#3e721d;fill-opacity:1;fill-rule:nonzero;stroke:none" d="m 0,0 c 0,0.553 -0.896,1 -2,1 -1.104,0 -2,-0.447 -2,-1 0,-0.553 0.896,-1 2,-1 1.104,0 2,0.447 2,1"/></g><g transform="translate(21,11)" id="g76"><path id="path78" style="fill:#3e721d;fill-opacity:1;fill-rule:nonzero;stroke:none" d="m 0,0 c 0,0.553 -0.896,1 -2,1 -1.104,0 -2,-0.447 -2,-1 0,-0.553 0.896,-1 2,-1 1.104,0 2,0.447 2,1"/></g><g transform="translate(29,12)" id="g80"><path id="path82" style="fill:#3e721d;fill-opacity:1;fill-rule:nonzero;stroke:none" d="m 0,0 c 0,0.553 -0.896,1 -2,1 -1.104,0 -2,-0.447 -2,-1 0,-0.553 0.896,-1 2,-1 1.104,0 2,0.447 2,1"/></g></g></g></g></svg>
