<svg xmlns="http://www.w3.org/2000/svg" viewBox="0 0 47.5 47.5" enable-background="new 0 0 47.5 47.5"><defs><clipPath id="a"><path d="M0 38h38V0H0v38z"/></clipPath></defs><g><g><g clip-path="url(#a)" transform="matrix(1.25 0 0 -1.25 0 47.5)"><g><path fill="#662113" d="M23 4c0-2.2-1.8-3-4-3s-4 .8-4 3l1 9c0 2.2.8 2 3 2s3 .2 3-2l1-9z"/></g><g><path fill="#5c913b" d="M35 20c0-8.84-7.16-12-16-12S3 11.16 3 20s9 17 16 17 16-8.16 16-17"/></g><g><path fill="#3e721d" d="M9 16c0 .55-.9 1-2 1s-2-.45-2-1 .9-1 2-1 2 .45 2 1"/></g><g><path fill="#3e721d" d="M33 16c0 .55-.9 1-2 1s-2-.45-2-1 .9-1 2-1 2 .45 2 1"/></g><g><path fill="#3e721d" d="M13 12c0 .55-.9 1-2 1s-2-.45-2-1 .9-1 2-1 2 .45 2 1"/></g><g><path fill="#3e721d" d="M17 15c0 .55-.9 1-2 1s-2-.45-2-1 .9-1 2-1 2 .45 2 1"/></g><g><path fill="#3e721d" d="M13 21c0 .55-.9 1-2 1s-2-.45-2-1 .9-1 2-1 2 .45 2 1"/></g><g><path fill="#3e721d" d="M10 25c0 .55-.9 1-2 1s-2-.45-2-1 .9-1 2-1 2 .45 2 1"/></g><g><path fill="#3e721d" d="M32 25c0 .55-.9 1-2 1s-2-.45-2-1 .9-1 2-1 2 .45 2 1"/></g><g><path fill="#3e721d" d="M17 27c0 .55-.9 1-2 1s-2-.45-2-1 .9-1 2-1 2 .45 2 1"/></g><g><path fill="#3e721d" d="M25 27c0 .55-.9 1-2 1s-2-.45-2-1 .9-1 2-1 2 .45 2 1"/></g><g><path fill="#3e721d" d="M29 21c0 .55-.9 1-2 1s-2-.45-2-1 .9-1 2-1 2 .45 2 1"/></g><g><path fill="#3e721d" d="M21 20c0 .55-.9 1-2 1s-2-.45-2-1 .9-1 2-1 2 .45 2 1"/></g><g><path fill="#3e721d" d="M25 15c0 .55-.9 1-2 1s-2-.45-2-1 .9-1 2-1 2 .45 2 1"/></g><g><path fill="#3e721d" d="M21 11c0 .55-.9 1-2 1s-2-.45-2-1 .9-1 2-1 2 .45 2 1"/></g><g><path fill="#3e721d" d="M29 12c0 .55-.9 1-2 1s-2-.45-2-1 .9-1 2-1 2 .45 2 1"/></g></g></g></g></svg>