<?xml version="1.0" encoding="UTF-8" standalone="no"?>
<!-- Created with Inkscape (http://www.inkscape.org/) -->

<svg
   xmlns:svg="http://www.w3.org/2000/svg"
   xmlns="http://www.w3.org/2000/svg"
   version="1.1"
   width="47.5"
   height="47.5"
   id="svg2"
   xml:space="preserve"><defs
     id="defs6"><clipPath
       id="clipPath18"><path
         d="M 0,38 38,38 38,0 0,0 0,38 z"
         id="path20" /></clipPath><clipPath
       id="clipPath34"><path
         d="M 12.575,35.343 11.126,31.96 7.854,30.678 C 6.504,30.138 5.813,28.621 6.353,27.271 l 0,0 1.365,-3.268 -1.362,-3.181 C 5.783,19.485 6.323,18.136 7.66,17.563 l 0,0 3.259,-1.395 1.265,-3.306 c 0.27,-0.675 0.759,-1.247 1.378,-1.512 l 0,0 c 0.619,-0.265 1.37,-0.225 2.046,0.047 l 0,0 3.266,1.364 3.307,-1.417 c 1.337,-0.573 2.686,-0.032 3.258,1.305 l 0,0 1.364,3.182 3.271,1.282 c 1.35,0.541 2.042,2.057 1.5,3.406 l 0,0 -1.365,3.267 1.451,3.384 c 0.571,1.338 0.032,2.686 -1.305,3.258 l 0,0 -3.308,1.417 -1.274,3.289 c -0.27,0.675 -0.766,1.23 -1.384,1.494 l 0,0 c -0.619,0.266 -1.356,0.26 -2.03,-0.011 l 0,0 -3.267,-1.365 -3.259,1.395 c -0.358,0.153 -0.716,0.227 -1.06,0.227 l 0,0 c -0.942,0 -1.778,-0.552 -2.198,-1.531"
         id="path36" /></clipPath><clipPath
       id="clipPath58"><path
         d="M 0,38 38,38 38,0 0,0 0,38 z"
         id="path60" /></clipPath></defs><g
     transform="matrix(1.25,0,0,-1.25,0,47.5)"
     id="g12"><g
       id="g14"><g
         clip-path="url(#clipPath18)"
         id="g16"><g
           transform="translate(29.9375,9.5586)"
           id="g22"><path
             d="m 0,0 c -2.554,0.89 -8.111,0.429 -9.938,-1.331 l 0,11.772 c 0,0.553 -0.447,1 -1,1 -0.552,0 -1,-0.447 -1,-1 l 0,-11.772 c -1.826,1.76 -7.383,2.221 -9.937,1.331 -0.741,-0.259 5.264,-8.749 9.507,-4.507 0.168,0.168 0.306,0.33 0.43,0.49 l 0,-3.542 c 0,-0.552 0.448,-1 1,-1 0.553,0 1,0.448 1,1 l 0,3.542 c 0.125,-0.16 0.263,-0.322 0.431,-0.49 C -5.264,-8.749 0.741,-0.259 0,0"
             id="path24"
             style="fill:#77b255;fill-opacity:1;fill-rule:nonzero;stroke:none" /></g><g
           transform="translate(13.562,11.3496)"
           id="g26"><path
             d="m 0,0 c -0.619,0.266 -1.107,0.837 -1.378,1.513 l -1.266,3.305 -3.258,1.395 c -1.336,0.574 -1.876,1.922 -1.304,3.259 l 1.362,3.181 -1.364,3.268 c -0.541,1.35 0.15,2.868 1.5,3.408 l 3.272,1.281 1.449,3.384 c 0.573,1.336 1.921,1.876 3.258,1.304 l 3.258,-1.396 3.267,1.366 c 0.675,0.271 1.412,0.276 2.031,0.011 0.619,-0.265 1.114,-0.82 1.384,-1.494 l 1.274,-3.29 3.308,-1.416 c 1.336,-0.573 1.875,-1.921 1.305,-3.258 L 16.647,12.437 18.012,9.17 c 0.541,-1.35 -0.15,-2.866 -1.5,-3.407 L 13.241,4.481 11.877,1.299 C 11.305,-0.037 9.956,-0.578 8.62,-0.006 L 5.312,1.411 2.045,0.047 C 1.37,-0.225 0.619,-0.265 0,0"
             id="path28"
             style="fill:#ccd6dd;fill-opacity:1;fill-rule:nonzero;stroke:none" /></g></g></g><g
       id="g30"><g
         clip-path="url(#clipPath34)"
         id="g32"><g
           transform="translate(19,36.7402)"
           id="g38"><path
             d="M 0,0 0,-8.82 -2.94,-9.8 -8.82,-3.92 -9.8,0 -4.165,0.98 0,0 z"
             id="path40"
             style="fill:#e1e8ed;fill-opacity:1;fill-rule:nonzero;stroke:none" /></g><g
           transform="translate(7.2397,24)"
           id="g42"><path
             d="m 0,0 7.84,0 0.98,-1.96 -7.105,-8.126 -4.982,3.512 c 0,0 0.082,5.635 0.246,5.553 C -2.858,-1.103 0,0 0,0"
             id="path44"
             style="fill:#e1e8ed;fill-opacity:1;fill-rule:nonzero;stroke:none" /></g><g
           transform="translate(19,19.1001)"
           id="g46"><path
             d="m 0,0 c 0,0 0.041,-7.84 0,-7.84 -0.041,0 4.818,-2.452 5.063,-2.41 0.246,0.042 4.41,3.185 4.574,3.308 0.163,0.122 0.694,1.47 0.694,1.47 L 0.898,2.736 0,0 z"
             id="path48"
             style="fill:#e1e8ed;fill-opacity:1;fill-rule:nonzero;stroke:none" /></g><g
           transform="translate(27.6973,32.6157)"
           id="g50"><path
             d="m 0,0 c -0.041,-0.123 -5.921,-4.982 -5.921,-4.982 0,0 0.165,-3.185 0.327,-3.266 0.162,-0.082 9.718,-0.94 9.718,-0.94 0,0 2.491,7.555 2.368,7.473 C 6.37,-1.797 1.674,-0.082 1.797,-0.082 1.919,-0.082 0,0 0,0"
             id="path52"
             style="fill:#e1e8ed;fill-opacity:1;fill-rule:nonzero;stroke:none" /></g></g></g><g
       id="g54"><g
         clip-path="url(#clipPath58)"
         id="g56"><g
           transform="translate(24,24)"
           id="g62"><path
             d="m 0,0 c 0,-2.761 -2.238,-5 -5,-5 -2.761,0 -5,2.239 -5,5 0,2.761 2.239,5 5,5 2.762,0 5,-2.239 5,-5"
             id="path64"
             style="fill:#f4900c;fill-opacity:1;fill-rule:nonzero;stroke:none" /></g></g></g></g></svg>