<svg xmlns="http://www.w3.org/2000/svg" viewBox="0 0 47.5 47.5" enable-background="new 0 0 47.5 47.5"><defs><clipPath id="a"><path d="M0 38h38V0H0v38z"/></clipPath><clipPath id="b"><path d="M6.4 14.35c-.6-2.97.08-4.67.82-5.7-.02-.05-.02-.1 0-.12.12-.13.27-.27.43-.42.15-.14.28-.3.4-.4.02-.03.07-.02.12 0 1.07-.8 2.85-1.6 5.86-1C30.67 10.05 33.3 29.03 33.3 30.7c0 0-.13 1.73-.77 2.26-.43.54-2 .54-2 .54h-.02c-1.65 0-20.78-2.5-24.1-19.13"/></clipPath><clipPath id="c"><path d="M0 38h38V0H0v38z"/></clipPath></defs><g><g><g clip-path="url(#a)" transform="matrix(1.25 0 0 -1.25 0 47.5)"><g><path fill="#5c913b" d="M16.37 35.98c-1.66-1.67-6.65-8.32-4.16-14.14 2.5-5.83 5.92-2.24 7.5 2.5.83 2.5.83 5.82-.83 10.8-.83 2.5-2.5.84-2.5.84"/></g><g><path fill="#5c913b" d="M35.68 16.67C34 15 27.36 10.02 21.53 12.5c-5.82 2.5-2.24 5.92 2.5 7.5 2.5.83 5.82.83 10.8-.83 2.5-.83.85-2.5.85-2.5"/></g><g><path fill="#f4900c" d="M33.3 30.68s-.13 1.73-.77 2.26c-.43.54-2 .54-2 .54-1.68 0-20.8-2.5-24.14-19.13-.6-2.97.08-4.67.82-5.7-.02-.06-.02-.1 0-.12.12-.12.27-.27.43-.42.15-.15.28-.3.4-.4.03-.03.07-.02.12 0 1.07-.8 2.85-1.6 5.86-1C30.67 10.05 33.3 29.03 33.3 30.7"/></g></g></g><g><g clip-path="url(#b)" transform="matrix(1.25 0 0 -1.25 0 47.5)"><g><path fill="#f7b82d" d="M25.77 26.57c-.45-.45-1.17-.45-1.62 0l-1.62 1.6c-.44.46-.44 1.18 0 1.63.45.45 1.18.45 1.62 0l1.62-1.62c.44-.44.44-1.17 0-1.6"/></g><g><path fill="#f7b82d" d="M17.68 26.57c-.44-.45-1.17-.45-1.62 0l-1.6 1.6c-.46.46-.46 1.18 0 1.63.43.45 1.16.45 1.6 0l1.62-1.62c.45-.44.45-1.17 0-1.6"/></g><g><path fill="#f7b82d" d="M20.1 29c-.44-.45-1.16-.45-1.6 0l-1.63 1.6c-.44.46-.44 1.18 0 1.63.45.44 1.17.44 1.62 0l1.6-1.62c.45-.44.45-1.16 0-1.6"/></g><g><path fill="#f7b82d" d="M15.26 24.14c-.45-.45-1.18-.45-1.62 0l-1.62 1.62c-.45.44-.45 1.17 0 1.6.45.46 1.17.46 1.62 0l1.62-1.6c.44-.45.44-1.17 0-1.62"/></g><g><path fill="#f7b82d" d="M28.2 29c-.45-.45-1.18-.45-1.62 0l-1.62 1.6c-.45.46-.45 1.18 0 1.63.45.44 1.17.44 1.62 0l1.6-1.62c.46-.44.46-1.16 0-1.6"/></g><g><path fill="#f7b82d" d="M30.62 31.38c-.45-.44-1.17-.44-1.62 0L27.38 33c-.44.45-.44 1.17 0 1.62.45.44 1.17.44 1.62 0L30.62 33c.44-.45.44-1.17 0-1.62"/></g><g><path fill="#f7b82d" d="M23.34 24.14c-.44-.45-1.17-.45-1.62 0l-1.6 1.62c-.46.44-.46 1.17 0 1.6.43.46 1.16.46 1.6 0l1.62-1.6c.45-.45.45-1.17 0-1.62"/></g><g><path fill="#f7b82d" d="M20.91 21.7c-.43-.43-1.15-.43-1.6 0l-1.62 1.63c-.45.45-.45 1.17 0 1.62.45.45 1.17.45 1.62 0l1.6-1.62c.46-.45.46-1.17.02-1.62"/></g><g><path fill="#f7b82d" d="M16.06 16.86c-.44-.44-1.17-.44-1.6 0l-1.63 1.62c-.45.44-.45 1.17 0 1.62.45.44 1.17.44 1.62 0l1.6-1.62c.46-.45.46-1.17 0-1.62"/></g><g><path fill="#f7b82d" d="M18.5 19.3c-.46-.46-1.18-.46-1.63 0l-1.6 1.6c-.46.45-.46 1.18 0 1.62.43.45 1.16.45 1.6 0l1.62-1.62c.44-.44.44-1.17 0-1.6"/></g></g></g><g><g clip-path="url(#c)" transform="matrix(1.25 0 0 -1.25 0 47.5)"><g><path fill="#77b255" d="M28.87 13.43c-7.13 2.37-15.1-.66-19.42-3.58 2.92 4.32 5.95 12.3 3.57 19.42-.93 2.8-5.6 5.6-8.4 2.8-.93-.94-1.86-1.87 0-1.87 1.87 0 4.67-2.8 3.74-5.6-.84-2.5-6.9-8.74-4.16-15.37-.27-.12-.52-.28-.74-.5L2.76 8c-.93-.9-.93-2.4-.02-3.32l.72-.7c.92-.93 2.4-.93 3.33 0l.7.7c.13.13.23.26.32.4 7-3.84 13.75 2.8 16.38 3.68 2.8.93 5.6-1.87 5.6-3.74 0-1.86.93-.93 1.87 0 2.8 2.8 0 7.47-2.8 8.4"/></g></g></g></g></svg>