<?xml version="1.0" encoding="UTF-8" standalone="no"?><svg xmlns:dc="http://purl.org/dc/elements/1.1/" xmlns:cc="http://creativecommons.org/ns#" xmlns:rdf="http://www.w3.org/1999/02/22-rdf-syntax-ns#" xmlns:svg="http://www.w3.org/2000/svg" xmlns="http://www.w3.org/2000/svg" viewBox="0 0 47.5 47.5" style="enable-background:new 0 0 47.5 47.5;" xml:space="preserve" version="1.1" id="svg2"><metadata id="metadata8"><rdf:RDF><cc:Work rdf:about=""><dc:format>image/svg+xml</dc:format><dc:type rdf:resource="http://purl.org/dc/dcmitype/StillImage"/></cc:Work></rdf:RDF></metadata><defs id="defs6"><clipPath id="clipPath16" clipPathUnits="userSpaceOnUse"><path id="path18" d="M 0,38 38,38 38,0 0,0 0,38 Z"/></clipPath></defs><g transform="matrix(1.25,0,0,-1.25,0,47.5)" id="g10"><g id="g12"><g clip-path="url(#clipPath16)" id="g14"><g transform="translate(31,33)" id="g20"><path id="path22" style="fill:#77b255;fill-opacity:1;fill-rule:nonzero;stroke:none" d="m 0,0 c -2.209,0 -4,-1.791 -4,-4 l 0,-9.125 c 0,-1.086 -0.887,-1.96 -2,-2.448 L -6,-2 c 0,3.313 -2.687,6 -6,6 -3.313,0 -6,-2.687 -6,-6 l 0,-17.629 c -1.122,0.475 -2,1.371 -2,2.504 l 0,5.125 c 0,2.209 -1.791,4 -4,4 -2.209,0 -4,-1.791 -4,-4 l 0,-7 c 0,-2.209 1.75,-3.875 3.375,-4.812 1.244,-0.718 4.73,-1.6 6.625,-1.652 L -18,-29 c 0,-3.313 12,-3.313 12,0 l 0,7.549 c 1.981,0.119 5.291,0.953 6.479,1.639 C 2.104,-18.875 4,-17.209 4,-15 L 4,-4 C 4,-1.791 2.209,0 0,0"/></g><g transform="translate(14,31)" id="g24"><path id="path26" style="fill:#3e721d;fill-opacity:1;fill-rule:nonzero;stroke:none" d="m 0,0 c 0,-0.552 -0.448,-1 -1,-1 -0.552,0 -1,0.448 -1,1 0,0.552 0.448,1 1,1 0.552,0 1,-0.448 1,-1"/></g><g transform="translate(25,34)" id="g28"><path id="path30" style="fill:#3e721d;fill-opacity:1;fill-rule:nonzero;stroke:none" d="m 0,0 c 0,-0.552 -0.447,-1 -1,-1 -0.553,0 -1,0.448 -1,1 0,0.552 0.447,1 1,1 0.553,0 1,-0.448 1,-1"/></g><g transform="translate(23,28)" id="g32"><path id="path34" style="fill:#3e721d;fill-opacity:1;fill-rule:nonzero;stroke:none" d="m 0,0 c 0,-0.552 -0.447,-1 -1,-1 -0.553,0 -1,0.448 -1,1 0,0.552 0.447,1 1,1 0.553,0 1,-0.448 1,-1"/></g><g transform="translate(16,21)" id="g36"><path id="path38" style="fill:#3e721d;fill-opacity:1;fill-rule:nonzero;stroke:none" d="m 0,0 c 0,-0.552 -0.447,-1 -1,-1 -0.553,0 -1,0.448 -1,1 0,0.552 0.447,1 1,1 0.553,0 1,-0.448 1,-1"/></g><g transform="translate(22,17)" id="g40"><path id="path42" style="fill:#3e721d;fill-opacity:1;fill-rule:nonzero;stroke:none" d="m 0,0 c 0,-0.553 -0.447,-1 -1,-1 -0.553,0 -1,0.447 -1,1 0,0.553 0.447,1 1,1 0.553,0 1,-0.447 1,-1"/></g><g transform="translate(15,11)" id="g44"><path id="path46" style="fill:#3e721d;fill-opacity:1;fill-rule:nonzero;stroke:none" d="m 0,0 c 0,-0.553 -0.447,-1 -1,-1 -0.553,0 -1,0.447 -1,1 0,0.553 0.447,1 1,1 0.553,0 1,-0.447 1,-1"/></g><g transform="translate(7,10)" id="g48"><path id="path50" style="fill:#3e721d;fill-opacity:1;fill-rule:nonzero;stroke:none" d="m 0,0 c 0,-0.553 -0.447,-1 -1,-1 -0.553,0 -1,0.447 -1,1 0,0.553 0.447,1 1,1 0.553,0 1,-0.447 1,-1"/></g><g transform="translate(11,17)" id="g52"><path id="path54" style="fill:#3e721d;fill-opacity:1;fill-rule:nonzero;stroke:none" d="m 0,0 c 0,-0.553 -0.447,-1 -1,-1 -0.553,0 -1,0.447 -1,1 0,0.553 0.447,1 1,1 0.553,0 1,-0.447 1,-1"/></g><g transform="translate(4,19)" id="g56"><path id="path58" style="fill:#3e721d;fill-opacity:1;fill-rule:nonzero;stroke:none" d="m 0,0 c 0,-0.553 -0.447,-1 -1,-1 -0.553,0 -1,0.447 -1,1 0,0.553 0.447,1 1,1 0.553,0 1,-0.447 1,-1"/></g><g transform="translate(36,29)" id="g60"><path id="path62" style="fill:#3e721d;fill-opacity:1;fill-rule:nonzero;stroke:none" d="m 0,0 c 0,-0.553 -0.447,-1 -1,-1 -0.553,0 -1,0.447 -1,1 0,0.553 0.447,1 1,1 0.553,0 1,-0.447 1,-1"/></g><g transform="translate(30,26)" id="g64"><path id="path66" style="fill:#3e721d;fill-opacity:1;fill-rule:nonzero;stroke:none" d="m 0,0 c 0,-0.553 -0.447,-1 -1,-1 -0.553,0 -1,0.447 -1,1 0,0.553 0.447,1 1,1 0.553,0 1,-0.447 1,-1"/></g><g transform="translate(34,21)" id="g68"><path id="path70" style="fill:#3e721d;fill-opacity:1;fill-rule:nonzero;stroke:none" d="m 0,0 c 0,-0.553 -0.447,-1 -1,-1 -0.553,0 -1,0.447 -1,1 0,0.553 0.447,1 1,1 0.553,0 1,-0.447 1,-1"/></g><g transform="translate(31,13)" id="g72"><path id="path74" style="fill:#3e721d;fill-opacity:1;fill-rule:nonzero;stroke:none" d="m 0,0 c 0,-0.553 -0.447,-1 -1,-1 -0.553,0 -1,0.447 -1,1 0,0.553 0.447,1 1,1 0.553,0 1,-0.447 1,-1"/></g><g transform="translate(24,7)" id="g76"><path id="path78" style="fill:#3e721d;fill-opacity:1;fill-rule:nonzero;stroke:none" d="m 0,0 c 0,-0.553 -0.447,-1 -1,-1 -0.553,0 -1,0.447 -1,1 0,0.553 0.447,1 1,1 0.553,0 1,-0.447 1,-1"/></g></g></g></g></svg>
