<svg xmlns="http://www.w3.org/2000/svg" viewBox="0 0 47.5 47.5" enable-background="new 0 0 47.5 47.5"><defs><clipPath id="a"><path d="M0 38h38V0H0v38z"/></clipPath></defs><g><g><g clip-path="url(#a)" transform="matrix(1.25 0 0 -1.25 0 47.5)"><g><path fill="#77b255" d="M31 33c-2.2 0-4-1.8-4-4v-9.13c0-1.08-.9-1.96-2-2.44V31c0 3.3-2.7 6-6 6s-6-2.7-6-6V13.37c-1.12.48-2 1.37-2 2.5V21c0 2.2-1.8 4-4 4s-4-1.8-4-4v-7c0-2.2 1.75-3.88 3.38-4.8C7.62 8.46 11.1 7.6 13 7.53V4C13 .7 25 .7 25 4v7.55c1.98.12 5.3.95 6.48 1.64C33.1 14.12 35 15.8 35 18v11c0 2.2-1.8 4-4 4"/></g><g><path fill="#3e721d" d="M14 31c0-.55-.45-1-1-1s-1 .45-1 1 .45 1 1 1 1-.45 1-1"/></g><g><path fill="#3e721d" d="M25 34c0-.55-.45-1-1-1s-1 .45-1 1 .45 1 1 1 1-.45 1-1"/></g><g><path fill="#3e721d" d="M23 28c0-.55-.45-1-1-1s-1 .45-1 1 .45 1 1 1 1-.45 1-1"/></g><g><path fill="#3e721d" d="M16 21c0-.55-.45-1-1-1s-1 .45-1 1 .45 1 1 1 1-.45 1-1"/></g><g><path fill="#3e721d" d="M22 17c0-.55-.45-1-1-1s-1 .45-1 1 .45 1 1 1 1-.45 1-1"/></g><g><path fill="#3e721d" d="M15 11c0-.55-.45-1-1-1s-1 .45-1 1 .45 1 1 1 1-.45 1-1"/></g><g><path fill="#3e721d" d="M7 10c0-.55-.45-1-1-1s-1 .45-1 1 .45 1 1 1 1-.45 1-1"/></g><g><path fill="#3e721d" d="M11 17c0-.55-.45-1-1-1s-1 .45-1 1 .45 1 1 1 1-.45 1-1"/></g><g><path fill="#3e721d" d="M4 19c0-.55-.45-1-1-1s-1 .45-1 1 .45 1 1 1 1-.45 1-1"/></g><g><path fill="#3e721d" d="M36 29c0-.55-.45-1-1-1s-1 .45-1 1 .45 1 1 1 1-.45 1-1"/></g><g><path fill="#3e721d" d="M30 26c0-.55-.45-1-1-1s-1 .45-1 1 .45 1 1 1 1-.45 1-1"/></g><g><path fill="#3e721d" d="M34 21c0-.55-.45-1-1-1s-1 .45-1 1 .45 1 1 1 1-.45 1-1"/></g><g><path fill="#3e721d" d="M31 13c0-.55-.45-1-1-1s-1 .45-1 1 .45 1 1 1 1-.45 1-1"/></g><g><path fill="#3e721d" d="M24 7c0-.55-.45-1-1-1s-1 .45-1 1 .45 1 1 1 1-.45 1-1"/></g></g></g></g></svg>