<?xml version="1.0" encoding="UTF-8" standalone="no"?>
<!-- Created with Inkscape (http://www.inkscape.org/) -->

<svg
   xmlns:svg="http://www.w3.org/2000/svg"
   xmlns="http://www.w3.org/2000/svg"
   version="1.1"
   width="47.5"
   height="47.5"
   id="svg2"
   xml:space="preserve"><defs
     id="defs6"><clipPath
       id="clipPath18"><path
         d="M 0,38 38,38 38,0 0,0 0,38 z"
         id="path20" /></clipPath></defs><g
     transform="matrix(1.25,0,0,-1.25,0,47.5)"
     id="g12"><g
       id="g14"><g
         clip-path="url(#clipPath18)"
         id="g16"><g
           transform="translate(35.751,15)"
           id="g22"><path
             d="m 0,0 c -3.382,0 -11.9,-3.549 -15.751,-7.158 l 0,12.158 c 0,0.553 -0.447,1 -1,1 -0.552,0 -1,-0.447 -1,-1 l 0,-12.341 C -21.504,-3.669 -30.26,0 -33.699,0 c -0.929,0 10.861,-13.992 15.948,-12.599 l 0,-0.401 c 0,-0.553 0.448,-1 1,-1 0.553,0 1,0.447 1,1 l 0,0.356 C -10.563,-13.638 0.917,0 0,0"
             id="path24"
             style="fill:#77b255;fill-opacity:1;fill-rule:nonzero;stroke:none" /></g><g
           transform="translate(26,23.5835)"
           id="g26"><path
             d="m 0,0 c 0,-6.351 -1.707,-9.583 -7,-9.583 -5.293,0 -7,3.232 -7,9.583 0,6.351 5,13.417 7,13.417 2,0 7,-7.066 7,-13.417"
             id="path28"
             style="fill:#ea596e;fill-opacity:1;fill-rule:nonzero;stroke:none" /></g><g
           transform="translate(23.7949,35)"
           id="g30"><path
             d="M 0,0 C -0.48,0 -4.106,-14.271 -4.803,-19.279 -5.549,-14.271 -9.314,0 -9.795,0 c -1,0 -6,-9 -6,-13 0,-4 5.707,-8 11,-8 C 0.498,-21 6,-17 6,-13 6,-9 1,0 0,0"
             id="path32"
             style="fill:#f4abba;fill-opacity:1;fill-rule:nonzero;stroke:none" /></g></g></g></g></svg>