<svg xmlns="http://www.w3.org/2000/svg" viewBox="0 0 47.5 47.5" enable-background="new 0 0 47.5 47.5"><defs><clipPath id="a"><path d="M0 38h38V0H0v38z"/></clipPath></defs><g><g><g clip-path="url(#a)" transform="matrix(1.25 0 0 -1.25 0 47.5)"><g><path fill="#77b255" d="M35.75 15c-3.38 0-11.9-3.55-15.75-7.16V20c0 .55-.45 1-1 1s-1-.45-1-1V7.66C14.25 11.33 5.5 15 2.05 15 1.12 15 12.9 1 18 2.4V2c0-.55.45-1 1-1s1 .45 1 1v.36C25.2 1.36 36.67 15 35.75 15"/></g><g><path fill="#ea596e" d="M26 23.58c0-6.35-1.7-9.58-7-9.58s-7 3.23-7 9.58S17 37 19 37s7-7.07 7-13.42"/></g><g><path fill="#f4abba" d="M23.8 35c-.5 0-4.1-14.27-4.8-19.28-.75 5-4.52 19.28-5 19.28-1 0-6-9-6-13s5.7-8 11-8 10.8 4 10.8 8-5 13-6 13"/></g></g></g></g></svg>