<?xml version="1.0" encoding="UTF-8" standalone="no"?><svg xmlns:svg="http://www.w3.org/2000/svg" xmlns="http://www.w3.org/2000/svg" version="1.1" viewBox="0 0 47.5 47.5" style="enable-background:new 0 0 47.5 47.5;" id="svg2" xml:space="preserve"><defs id="defs6"><clipPath id="clipPath18"><path d="M 0,38 38,38 38,0 0,0 0,38 z" id="path20"/></clipPath></defs><g transform="matrix(1.25,0,0,-1.25,0,47.5)" id="g12"><g id="g14"><g clip-path="url(#clipPath18)" id="g16"><g transform="translate(32.9238,26.0176)" id="g22"><path d="m 0,0 c 4.418,-7.652 1.99,-17.326 -5.424,-21.606 -7.414,-4.281 -16.505,-2.414 -20.924,5.241 -4.999,8.659 -2.49,18.191 4.924,22.471 C -14.01,10.387 -3.5,6.062 0,0" id="path24" style="fill:#a6d388;fill-opacity:1;fill-rule:nonzero;stroke:none"/></g><g transform="translate(25,31)" id="g26"><path d="M 0,0 C 3,-1 6,-4 8,-7 8.836,-8.254 8.729,-6.922 7.706,-4.652 4.02,1.232 -6.223,5.325 -13.5,1.124 -16.51,-0.614 -18.694,-3.225 -19.913,-6.284 -19.192,-5.471 -18.48,-5 -18,-5 c 1,0 -1.896,-3.279 1,-11 3,-8 3,-4 3,-4 0,0 -2,9 -1,12 1,3 2,5 3,4 1,-1 5,-9 7,-14 2.259,-5.647 2,1 -1,8 -2.841,6.628 -3,8 -2,8 1,0 3.465,-1.464 7,-5 2,-2 3,-5 4,-6 1,-1 1,1 0,4 -0.707,2.121 -3,6 -6,8 -2.496,1.664 0,2 3,1" id="path28" style="fill:#77b255;fill-opacity:1;fill-rule:nonzero;stroke:none"/></g><g transform="translate(12.9336,30.6421)" id="g30"><path d="m 0,0 c -0.479,-0.276 -1.091,-0.112 -1.367,0.366 -1.105,1.914 -1.26,4.303 -1.266,4.404 -0.033,0.55 0.387,1.022 0.937,1.058 0.551,0.033 1.025,-0.386 1.06,-0.936 C -0.635,4.871 -0.499,2.864 0.365,1.366 0.642,0.888 0.479,0.276 0,0" id="path32" style="fill:#5c913b;fill-opacity:1;fill-rule:nonzero;stroke:none"/></g><g transform="translate(12.9609,6.4668)" id="g34"><path d="M 0,0 C -0.961,0.533 -1.727,1.977 -2.409,3.226 -3.091,4.475 -2.132,4.502 -1.522,3.385 -0.841,2.136 -0.318,1.772 0.364,0.523 1.045,-0.726 0.557,-0.309 0,0" id="path36" style="fill:#77b255;fill-opacity:1;fill-rule:nonzero;stroke:none"/></g><g transform="translate(22.5039,6.0937)" id="g38"><path d="M 0,0 C -0.874,2.059 -0.812,3.057 -1.686,5.114 -2.56,7.173 -2.435,9.169 -1.562,7.111 -0.687,5.053 0.187,2.993 0.125,1.996 0.062,0.997 0,0 0,0" id="path40" style="fill:#77b255;fill-opacity:1;fill-rule:nonzero;stroke:none"/></g><g transform="translate(28,18)" id="g42"><path d="M 0,0 C 1,-3 0,-2 1,-5 2,-8 2,-10 2,-5 2,-1.838 1,1 0,2 -1.581,3.581 0,0 0,0" id="path44" style="fill:#77b255;fill-opacity:1;fill-rule:nonzero;stroke:none"/></g></g></g></g></svg>
