<svg xmlns="http://www.w3.org/2000/svg" viewBox="0 0 47.5 47.5" enable-background="new 0 0 47.5 47.5"><defs><clipPath id="a"><path d="M0 38h38V0H0v38z"/></clipPath></defs><g><g><g clip-path="url(#a)" transform="matrix(1.25 0 0 -1.25 0 47.5)"><g><path fill="#5c913b" d="M3.47 30.43C2.53 28.3 2 25.96 2 23.5 2 13.83 10.06 6 20 6c7.75 0 14.33 4.77 16.87 11.44l-33.4 13z"/></g><g><path fill="#ffe8b6" d="M5.33 29.7C4.48 27.8 4 25.7 4 23.5c0-8.6 7.16-15.56 16-15.56 6.9 0 12.77 4.26 15 10.22L5.34 29.7z"/></g><g><path fill="#dd2e44" d="M7.2 28.98C6.42 27.3 6 25.45 6 23.5c0-7.52 6.27-13.6 14-13.6 6.06 0 11.2 3.74 13.16 8.98L7.2 28.98z"/></g><g><path d="M10.92 22.72c-.3-.46-.74-.7-.97-.55-.23.15-.17.65.13 1.1.3.47.74.72.97.56.23-.15.17-.65-.13-1.1"/></g><g><path d="M16.92 21.72c-.3-.46-.75-.7-.98-.55-.22.15-.16.65.14 1.1.3.47.75.72.98.56.23-.15.16-.65-.14-1.1"/></g><g><path d="M22 17.04c.05-.55-.13-1-.4-1.04-.28-.02-.55.4-.6.95-.05.56.14 1.02.4 1.04.3.02.55-.4.6-.96"/></g><g><path d="M13 19.04c.05-.55-.13-1-.4-1.04-.28-.02-.55.4-.6.95-.05.56.14 1.02.4 1.04.3.02.55-.4.6-.96"/></g><g><path d="M16.9 13.7c-.33-.44-.78-.66-1-.5-.22.17-.13.66.2 1.1.34.44.78.66 1 .5.23-.17.13-.66-.2-1.1"/></g><g><path d="M24.94 13.25c.27-.5.3-.98.06-1.12-.25-.14-.66.14-.93.62-.28.48-.3.98-.06 1.12.25.14.66-.14.94-.62"/></g><g><path d="M17.92 18.27c.3-.46.36-.95.13-1.1-.23-.16-.66.1-.97.56-.3.46-.36.95-.13 1.1.23.16.66-.1.97-.56"/></g><g><path d="M26.9 16.7c-.33-.44-.78-.66-1-.5-.22.17-.13.66.2 1.1.34.44.78.66 1 .5.23-.17.13-.66-.2-1.1"/></g></g></g></g></svg>