<?xml version="1.0" encoding="UTF-8" standalone="no"?>
<!-- Created with Inkscape (http://www.inkscape.org/) -->

<svg
   xmlns:svg="http://www.w3.org/2000/svg"
   xmlns="http://www.w3.org/2000/svg"
   version="1.1"
   width="47.5"
   height="47.5"
   id="svg2"
   xml:space="preserve"><defs
     id="defs6"><clipPath
       id="clipPath18"><path
         d="M 0,38 38,38 38,0 0,0 0,38 z"
         id="path20" /></clipPath></defs><g
     transform="matrix(1.25,0,0,-1.25,0,47.5)"
     id="g12"><g
       id="g14"><g
         clip-path="url(#clipPath18)"
         id="g16"><g
           transform="translate(23.4941,31.6558)"
           id="g22"><path
             d="m 0,0 c -0.687,0 -1.352,-0.066 -1.991,-0.177 -0.82,0.105 -2.74,0.231 -3.592,0.231 -8.472,0 -15.886,-3.177 -15.886,-14.298 0,-9.036 7.049,-16.361 16.976,-16.361 9.927,0 17.973,7.325 17.973,16.361 C 13.48,-2.995 4.096,0 0,0"
             id="path24"
             style="fill:#dd2e44;fill-opacity:1;fill-rule:nonzero;stroke:none" /></g><g
           transform="translate(9.439,36.9087)"
           id="g26"><path
             d="m 0,0 c 1.637,-1.636 2.77,-2.266 3.274,-4.91 0.298,-1.564 2.266,-1.51 2.266,-1.51 0,0 -3.903,-1.764 -5.54,-3.4 0,0 4.91,1.636 6.547,1.636 0,0 3.273,-1.636 3.273,-3.273 0,0 0,3.273 -1.636,3.273 0,0 4.909,0 4.909,-3.273 0,0 0,4.911 -1.636,4.911 0,0 4.911,1.636 6.547,0 0,0 -1.685,1.72 -4.911,1.636 0,0 1.638,1.637 4.911,1.637 0,0 -5.288,1.511 -6.924,-1.763 0,0 -1.386,1.385 1.384,4.155 0,0 -4.28,-0.755 -4.28,-4.029 0,0 -1.552,0.039 -2.644,1.259 C 3.399,-1.259 0,0 0,0"
             id="path28"
             style="fill:#77b255;fill-opacity:1;fill-rule:nonzero;stroke:none" /></g></g></g></g></svg>