<svg xmlns="http://www.w3.org/2000/svg" viewBox="0 0 47.5 47.5" enable-background="new 0 0 47.5 47.5"><defs><clipPath id="a"><path d="M0 38h38V0H0v38z"/></clipPath></defs><g><g><g clip-path="url(#a)" transform="matrix(1.25 0 0 -1.25 0 47.5)"><g><path fill="#dd2e44" d="M37 16.08c0 .7-2.9.5-3.13 1-.22.5 3.2 4.6 2.7 5.5-.5.92-5.07-1.16-5.36-.7-.28.45.3 3.5-.2 3.87-.5.38-5.25-4.92-5.92-4.3-.66.63 1.55 10.5 1.1 10.7-.47.2-3.43-1.36-3.8-1.28C22 30.97 19.68 37 19 37c-.68 0-3-6.04-3.38-6.13-.37-.08-3.33 1.48-3.8 1.3-.45-.2 1.76-10.1 1.1-10.7-.67-.64-5.42 4.65-5.92 4.28-.5-.38.08-3.42-.2-3.88-.3-.45-4.88 1.63-5.38.7-.5-.9 2.93-5 2.7-5.5-.23-.5-3.12-.3-3.12-1 0-.67 8.44-5.22 9-5.76.56-.52-2.9-2.8-2.42-3.22.58-.5 3.84.83 10.42.96V2c0-.55.45-1 1-1s1 .45 1 1v6.04c6.58-.13 9.84-1.45 10.42-.96.5.43-2.98 2.7-2.42 3.23.56.55 9 5.1 9 5.78"/></g></g></g></g></svg>