<svg xmlns="http://www.w3.org/2000/svg" viewBox="0 0 47.5 47.5" enable-background="new 0 0 47.5 47.5"><defs><clipPath id="a"><path d="M0 38h38V0H0v38z"/></clipPath></defs><g><g><g clip-path="url(#a)" transform="matrix(1.25 0 0 -1.25 0 47.5)"><g><path fill="#77b255" d="M11 25c-.15 0-.3.03-.45.1-4.38 2.2-7.48 7.53-8.5 10.58-.17.53.1 1.1.63 1.27.53.17 1.1-.1 1.27-.63.88-2.64 3.7-7.52 7.5-9.43.5-.25.7-.85.45-1.35-.18-.35-.53-.55-.9-.55"/></g><g><path fill="#553788" d="M27 8c0-3.87-3.13-7-7-7s-7 3.13-7 7 3.13 7 7 7 7-3.13 7-7"/></g><g><path fill="#9266cc" d="M18 22c0-3.87-3.13-7-7-7s-7 3.13-7 7 3.13 7 7 7 7-3.13 7-7"/></g><g><path fill="#aa8dd8" d="M27 25c0-3.87-3.13-7-7-7s-7 3.13-7 7 3.13 7 7 7 7-3.13 7-7"/></g><g><path fill="#744eaa" d="M35 19c0-3.87-3.13-7-7-7s-7 3.13-7 7 3.13 7 7 7 7-3.13 7-7"/></g><g><path fill="#744eaa" d="M17 11c0-3.87-3.13-7-7-7s-7 3.13-7 7 3.13 7 7 7 7-3.13 7-7"/></g><g><path fill="#9266cc" d="M26 16c0-3.87-3.13-7-7-7s-7 3.13-7 7 3.13 7 7 7 7-3.13 7-7"/></g><g><path fill="#9266cc" d="M37 8c0-3.87-3.13-7-7-7s-7 3.13-7 7 3.13 7 7 7 7-3.13 7-7"/></g></g></g></g></svg>