<?xml version="1.0" encoding="UTF-8" standalone="no"?><svg xmlns:dc="http://purl.org/dc/elements/1.1/" xmlns:cc="http://creativecommons.org/ns#" xmlns:rdf="http://www.w3.org/1999/02/22-rdf-syntax-ns#" xmlns:svg="http://www.w3.org/2000/svg" xmlns="http://www.w3.org/2000/svg" viewBox="0 0 47.5 47.5" style="enable-background:new 0 0 47.5 47.5;" xml:space="preserve" version="1.1" id="svg2"><metadata id="metadata8"><rdf:RDF><cc:Work rdf:about=""><dc:format>image/svg+xml</dc:format><dc:type rdf:resource="http://purl.org/dc/dcmitype/StillImage"/></cc:Work></rdf:RDF></metadata><defs id="defs6"><clipPath id="clipPath16" clipPathUnits="userSpaceOnUse"><path id="path18" d="M 0,38 38,38 38,0 0,0 0,38 Z"/></clipPath></defs><g transform="matrix(1.25,0,0,-1.25,0,47.5)" id="g10"><g id="g12"><g clip-path="url(#clipPath16)" id="g14"><g transform="translate(10.999,25)" id="g20"><path id="path22" style="fill:#77b255;fill-opacity:1;fill-rule:nonzero;stroke:none" d="m 0,0 c -0.15,0 -0.303,0.034 -0.446,0.105 -4.381,2.191 -7.484,7.527 -8.502,10.579 -0.175,0.524 0.109,1.09 0.633,1.265 0.525,0.176 1.09,-0.11 1.265,-0.633 C -6.173,8.685 -3.362,3.799 0.448,1.895 0.942,1.647 1.143,1.047 0.896,0.553 0.72,0.202 0.367,0 0,0"/></g><g transform="translate(27,8)" id="g24"><path id="path26" style="fill:#553788;fill-opacity:1;fill-rule:nonzero;stroke:none" d="m 0,0 c 0,-3.865 -3.135,-7 -7,-7 -3.865,0 -7,3.135 -7,7 0,3.865 3.135,7 7,7 3.865,0 7,-3.135 7,-7"/></g><g transform="translate(18,22)" id="g28"><path id="path30" style="fill:#9266cc;fill-opacity:1;fill-rule:nonzero;stroke:none" d="m 0,0 c 0,-3.865 -3.135,-7 -7,-7 -3.865,0 -7,3.135 -7,7 0,3.865 3.135,7 7,7 3.865,0 7,-3.135 7,-7"/></g><g transform="translate(27,25)" id="g32"><path id="path34" style="fill:#aa8dd8;fill-opacity:1;fill-rule:nonzero;stroke:none" d="m 0,0 c 0,-3.865 -3.135,-7 -7,-7 -3.865,0 -7,3.135 -7,7 0,3.865 3.135,7 7,7 3.865,0 7,-3.135 7,-7"/></g><g transform="translate(35,19)" id="g36"><path id="path38" style="fill:#744eaa;fill-opacity:1;fill-rule:nonzero;stroke:none" d="m 0,0 c 0,-3.865 -3.135,-7 -7,-7 -3.865,0 -7,3.135 -7,7 0,3.865 3.135,7 7,7 3.865,0 7,-3.135 7,-7"/></g><g transform="translate(17,11)" id="g40"><path id="path42" style="fill:#744eaa;fill-opacity:1;fill-rule:nonzero;stroke:none" d="m 0,0 c 0,-3.865 -3.135,-7 -7,-7 -3.865,0 -7,3.135 -7,7 0,3.865 3.135,7 7,7 3.865,0 7,-3.135 7,-7"/></g><g transform="translate(26,16)" id="g44"><path id="path46" style="fill:#9266cc;fill-opacity:1;fill-rule:nonzero;stroke:none" d="m 0,0 c 0,-3.865 -3.135,-7 -7,-7 -3.865,0 -7,3.135 -7,7 0,3.865 3.135,7 7,7 3.865,0 7,-3.135 7,-7"/></g><g transform="translate(37,8)" id="g48"><path id="path50" style="fill:#9266cc;fill-opacity:1;fill-rule:nonzero;stroke:none" d="m 0,0 c 0,-3.865 -3.135,-7 -7,-7 -3.865,0 -7,3.135 -7,7 0,3.865 3.135,7 7,7 3.865,0 7,-3.135 7,-7"/></g></g></g></g></svg>
