<svg xmlns="http://www.w3.org/2000/svg" viewBox="0 0 47.5 47.5" enable-background="new 0 0 47.5 47.5"><defs><clipPath id="a"><path d="M0 38h38V0H0v38z"/></clipPath></defs><g><g><g clip-path="url(#a)" transform="matrix(1.25 0 0 -1.25 0 47.5)"><g><path fill="#dd2e44" d="M25 30c-3 0-3-1-6-1s-3 1-6 1c-4 0-9-2-9-9C4 10 10 1 14 1c3 0 3 1 5 1s2-1 5-1c4 0 10 9 10 20 0 7-5 9-9 9"/></g><g><path fill="#77b255" d="M20 30s3 4 8 4c4 0 6-2 6-2s-4-3-7-3-7 1-7 1"/></g><g><path fill="#662113" d="M19 27c-.55 0-1 .45-1 1 0 3.44 1.2 6.62 3.3 8.7.38.4 1.02.4 1.4 0 .4-.38.4-1.02 0-1.4C21 33.56 20 30.9 20 28c0-.55-.45-1-1-1"/></g></g></g></g></svg>