<svg xmlns="http://www.w3.org/2000/svg" viewBox="0 0 47.5 47.5" enable-background="new 0 0 47.5 47.5"><defs><clipPath id="a"><path d="M0 38h38V0H0v38z"/></clipPath></defs><g><g><g clip-path="url(#a)" transform="matrix(1.25 0 0 -1.25 0 47.5)"><g><path fill="#ffe8b6" d="M29 35c2.68 1.34 5-4 3-13-1.1-4.98-5-9-9-12s-11 1-7 5 8 7 10 13c1.3 3.9 1 6 3 7"/></g><g><path fill="#ffd983" d="M32 29c0-3-1-9-4-13s-7-5-4-1 5 7 6 11 2 7 2 3"/></g><g><path fill="#ffcc4d" d="M23 17c-.3-.6 1 3-1 5-.17-.17-.34-.37-.52-.6-.1.7-.6 1.16-1.48 1.6-2 1-10-1-4-1 3 0 4-2 2-4-.3-.3-.5-.6-.62-.9-.42-.36-.88-.72-1.38-1.1-2.26-1.7-5.84-4.23-10-7-3-2-4-3-4-4 0-3 9-3 14-1s10 7 10 7l4 4c-3 4-7 2-7 2"/></g><g><path fill="#ffe8b6" d="M23 17s1 5-3 7-8 1-11-1-2-4-3-5 1-2 3 0 8.3 4.9 11 4c3-1 2-3 3-5"/></g><g><path fill="#a6d388" d="M27 18c3 0 8-3 7-9s-5-7-7-7h-4c-2 0-3-1-4-1s-2 2 0 2 4 0 5 1 5 0 5 6c0 3-4 7-6 7 0 0 2 1 4 1"/></g><g><path fill="#3e721d" d="M20 2c0-.55-.45-1-1-1s-1 .45-1 1 .45 1 1 1 1-.45 1-1"/></g><g><path fill="#ffcc4d" d="M27 18c3 0 8-3 7-9s-5-7-7-7h-4c-2 0 0 1 1 2s5 0 5 6c0 3-4 7-6 7 0 0 2 1 4 1"/></g><g><path fill="#ffe8b6" d="M27 18c3 0 8-3 7-9s-5-7-7-7h-2c-2 0-1 1 0 2s4 0 4 6c0 3-4 7-6 7 0 0 2 1 4 1"/></g><g><path fill="#ffd983" d="M18 16c3 0 5-1 3-3-1.58-1.58-6-5-10-6S3 6 6 8s9.76 8 12 8"/></g><g><path fill="#c1694f" d="M3 6c1 0 1 0 1-.67C4 4.67 4 4 3 4S2 5.33 2 5.33 2 6 3 6"/></g></g></g></g></svg>