<?xml version="1.0" encoding="UTF-8" standalone="no"?><svg xmlns:svg="http://www.w3.org/2000/svg" xmlns="http://www.w3.org/2000/svg" version="1.1" viewBox="0 0 47.5 47.5" style="enable-background:new 0 0 47.5 47.5;" id="svg2" xml:space="preserve"><defs id="defs6"><clipPath id="clipPath18"><path d="M 0,38 38,38 38,0 0,0 0,38 z" id="path20"/></clipPath></defs><g transform="matrix(1.25,0,0,-1.25,0,47.5)" id="g12"><g id="g14"><g clip-path="url(#clipPath18)" id="g16"><g transform="translate(29,35.0005)" id="g22"><path d="m 0,0 c 2.684,1.342 5,-4 3,-13 -1.106,-4.977 -5,-9 -9,-12 -4,-3 -11,1 -7,5 4,4 8,7 10,13 1.304,3.912 1,6 3,7" id="path24" style="fill:#ffe8b6;fill-opacity:1;fill-rule:nonzero;stroke:none"/></g><g transform="translate(32,29.0005)" id="g26"><path d="m 0,0 c 0,-3 -1,-9 -4,-13 -3,-4 -7,-5 -4,-1 3,4 5,7 6,11 1,4 2,7 2,3" id="path28" style="fill:#ffd983;fill-opacity:1;fill-rule:nonzero;stroke:none"/></g><g transform="translate(23,17)" id="g30"><path d="M 0,0 C -0.296,-0.592 1,3 -1,5 -1.169,4.832 -1.338,4.632 -1.521,4.407 -1.621,5.112 -2.113,5.557 -3,6 -5,7 -13.001,5 -7,5 -4,5 -3,3.001 -5,1 -5.292,0.709 -5.489,0.397 -5.623,0.089 -6.039,-0.258 -6.495,-0.621 -7,-1 c -2.263,-1.697 -5.84,-4.227 -10,-7 -3,-2 -4,-3 -4,-4 0,-3 9,-3 14,-1 5,2 10,7 10,7 l 4,4 C 4,2 0,0 0,0" id="path32" style="fill:#ffcc4d;fill-opacity:1;fill-rule:nonzero;stroke:none"/></g><g transform="translate(23,17)" id="g34"><path d="m 0,0 c 0,0 1,5 -3,7 -4.001,2 -8,1 -11,-1 -3,-2 -2,-3.999 -3,-5 -1,-1 1,-2 3,0 2,2 8.315,4.895 11,4 3,-1 2,-2.999 3,-5" id="path36" style="fill:#ffe8b6;fill-opacity:1;fill-rule:nonzero;stroke:none"/></g><g transform="translate(27,18.0005)" id="g38"><path d="m 0,0 c 3,0 8,-3 7,-9 -1,-6 -5,-7 -7,-7 l -4,0 c -2,0 -3,-1 -4,-1 -1,0 -2,2 0,2 2,0 4,0 5,1 1,1 5,0 5,6 0,3 -4,7 -6,7 0,0 2,1 4,1" id="path40" style="fill:#a6d388;fill-opacity:1;fill-rule:nonzero;stroke:none"/></g><g transform="translate(19.9995,2)" id="g42"><path d="m 0,0 c 0,-0.553 -0.448,-1 -1,-1 -0.552,0 -1,0.447 -1,1 0,0.553 0.448,1 1,1 0.552,0 1,-0.447 1,-1" id="path44" style="fill:#3e721d;fill-opacity:1;fill-rule:nonzero;stroke:none"/></g><g transform="translate(27,18.0005)" id="g46"><path d="m 0,0 c 3,0 8,-3 7,-9 -1,-6 -5,-7 -7,-7 l -4,0 c -2,0 0,1 1,2 1,1 5,0 5,6 0,3 -4,7 -6,7 0,0 2,1 4,1" id="path48" style="fill:#ffcc4d;fill-opacity:1;fill-rule:nonzero;stroke:none"/></g><g transform="translate(27,18.0005)" id="g50"><path d="m 0,0 c 3,0 8,-3 7,-9 -1,-6 -5,-7 -7,-7 l -2,0 c -2,0 -1,1 0,2 1,1 4,0 4,6 0,3 -4,7 -6,7 0,0 2,1 4,1" id="path52" style="fill:#ffe8b6;fill-opacity:1;fill-rule:nonzero;stroke:none"/></g><g transform="translate(17.9995,16)" id="g54"><path d="m 0,0 c 3,0 5,-1 3,-3 -1.581,-1.581 -6,-5 -10,-6 -4,-1 -8,-1 -5,1 3,2 9.764,8 12,8" id="path56" style="fill:#ffd983;fill-opacity:1;fill-rule:nonzero;stroke:none"/></g><g transform="translate(2.9995,6)" id="g58"><path d="M 0,0 C 1,0 1,0 1,-0.667 1,-1.333 1,-2 0,-2 c -1,0 -1,1.333 -1,1.333 0,0 0,0.667 1,0.667" id="path60" style="fill:#c1694f;fill-opacity:1;fill-rule:nonzero;stroke:none"/></g></g></g></g></svg>
