<svg xmlns="http://www.w3.org/2000/svg" viewBox="0 0 47.5 47.5" enable-background="new 0 0 47.5 47.5"><defs><clipPath id="a"><path d="M0 38h38V0H0v38z"/></clipPath><clipPath id="b"><path d="M1 19c0-2.2 1.8-4 4-4h28c2.2 0 4 1.8 4 4 0 10-8.06 18-18 18S1 29 1 19"/></clipPath></defs><g><g><g clip-path="url(#a)" transform="matrix(1.25 0 0 -1.25 0 47.5)"><g><path fill="#99aab5" d="M28 4c0-2.2-1.8-3-4-3H14c-2.2 0-4 .8-4 3s3 7 3 13 12 6 12 0 3-10.8 3-13"/></g></g></g><g><g clip-path="url(#b)" transform="matrix(1.25 0 0 -1.25 0 47.5)"><g><path fill="#dd2e44" d="M19 37.6c-10.5 0-19-8.63-19-19.18C0 16.1 1.9 14 4.22 14h29.56C36.1 14 38 16.1 38 18.42c0 10.55-8.5 19.2-19 19.2"/></g><g><path fill="#f4abba" d="M8.7 20.54c-3.4 0-6.16 2.77-6.16 6.17S5.3 32.9 8.7 32.9s6.18-2.77 6.18-6.17-2.77-6.16-6.17-6.16"/></g><g><path fill="#f4abba" d="M8.7 33c-3.47 0-6.28-2.82-6.28-6.3 0-3.47 2.8-6.28 6.3-6.28 3.46 0 6.28 2.8 6.28 6.3C15 30.17 12.18 33 8.7 33m0-.25c3.34 0 6.05-2.7 6.05-6.04 0-3.32-2.7-6.03-6.04-6.03-3.32 0-6.03 2.7-6.03 6.04s2.7 6.05 6.04 6.05"/></g><g><path fill="#f4abba" d="M35.67 25.8c-.96 2.37-2.4 4.47-4.2 6.2-2.48-.03-4.47-2.03-4.47-4.5 0-2.5 2-4.5 4.5-4.5 1.9 0 3.5 1.16 4.17 2.8"/></g><g><path fill="#f4abba" d="M27 21c0-2.48-2.02-4.5-4.5-4.5-2.5 0-4.5 2.02-4.5 4.5s2 4.5 4.5 4.5c2.48 0 4.5-2.02 4.5-4.5"/></g><g><path fill="#f4abba" d="M24 32c0-1.66-1.34-3-3-3s-3 1.34-3 3 1.34 3 3 3 3-1.34 3-3"/></g></g></g></g></svg>