<svg xmlns="http://www.w3.org/2000/svg" viewBox="0 0 47.5 47.5" enable-background="new 0 0 47.5 47.5"><defs><clipPath id="a"><path d="M0 38h38V0H0v38z"/></clipPath></defs><g><g><g clip-path="url(#a)" transform="matrix(1.25 0 0 -1.25 0 47.5)"><g><path fill="#744eaa" d="M7 33c3 0 5-2 8-6s7.96-7.2 12-8c5-1 9-5 9-11 0-4.9-3.85-7-9-7-5 0-9 3-14 8S3 23 3 27s1 6 4 6"/></g><g><path fill="#77b255" d="M4.5 37c1.26 0 1.26-1.25 1.26-2.5 0-1.76 1.25-1.12 2.5-1.12C9.5 33.38 12 31 12 31H8.26C7 31 8.26 28.4 7 28.4c-1.24 0-1.24 1.17-2.5 1.17C3.28 29.57 3 26 3 26s-1.6 4.15.27 6.02C4.5 33.27 2.02 37 4.5 37"/></g></g></g></g></svg>