<svg xmlns="http://www.w3.org/2000/svg" viewBox="0 0 47.5 47.5" enable-background="new 0 0 47.5 47.5"><defs><clipPath id="a"><path d="M0 38h38V0H0v38z"/></clipPath></defs><g><g><g clip-path="url(#a)" transform="matrix(1.25 0 0 -1.25 0 47.5)"><g><path fill="#f4900c" d="M4 17.5C4 26.6 11.4 34 20.5 34S37 26.6 37 17.5 29.6 1 20.5 1 4 8.4 4 17.5"/></g><g><path fill="#662113" d="M12.4 29.4c-.25.28-.78.2-1.34-.1-3.3 2.73-8.65 3.65-8.9 3.7-.54.08-1.06-.3-1.15-.83-.08-.55.3-1.06.83-1.16.06 0 4.94-.84 7.83-3.15-.28-.52-.33-1-.07-1.26.38-.4 1.33-.1 2.1.7.8.77 1.1 1.72.7 2.1"/></g><g><path fill="#5c913b" d="M22 36s-3.1-4.32-7.02-5.27c-2.98-.73-6.94-.8-7.33.12-.4.92 1.57 3.94 4.96 5.4 3.4 1.45 9.4-.25 9.4-.25"/></g></g></g></g></svg>