<?xml version="1.0" encoding="UTF-8" standalone="no"?>
<!-- Created with Inkscape (http://www.inkscape.org/) -->

<svg
   xmlns:svg="http://www.w3.org/2000/svg"
   xmlns="http://www.w3.org/2000/svg"
   version="1.1"
   width="47.5"
   height="47.5"
   id="svg2"
   xml:space="preserve"><defs
     id="defs6"><clipPath
       id="clipPath18"><path
         d="M 0,38 38,38 38,0 0,0 0,38 z"
         id="path20" /></clipPath></defs><g
     transform="matrix(1.25,0,0,-1.25,0,47.5)"
     id="g12"><g
       id="g14"><g
         clip-path="url(#clipPath18)"
         id="g16"><g
           transform="translate(12.4053,33.6611)"
           id="g22"><path
             d="M 0,0 C 6.48,1.275 8.453,-1.265 11.655,-0.084 14.857,1.097 11.748,-2.904 10.91,-3.592 10.07,-4.281 2.77,-8.401 -0.396,-6.89 -3.563,-5.379 -3.58,-0.705 0,0"
             id="path24"
             style="fill:#5c913b;fill-opacity:1;fill-rule:nonzero;stroke:none" /></g><g
           transform="translate(16.001,21)"
           id="g26"><path
             d="m 0,0 c -0.304,0 -0.604,0.138 -0.801,0.4 -0.687,0.916 -1.308,1.955 -1.965,3.056 -2.268,3.795 -4.839,8.098 -11.452,9.568 -0.539,0.12 -0.879,0.654 -0.759,1.193 0.12,0.539 0.654,0.878 1.193,0.759 C -6.33,13.32 -3.402,8.419 -1.049,4.481 -0.419,3.427 0.175,2.432 0.799,1.6 1.13,1.158 1.041,0.531 0.599,0.2 0.419,0.065 0.208,0 0,0"
             id="path28"
             style="fill:#77b255;fill-opacity:1;fill-rule:nonzero;stroke:none" /></g><g
           transform="translate(35.2998,5.4658)"
           id="g30"><path
             d="m 0,0 c 0.002,0.017 -0.003,0.028 -0.003,0.043 2.774,5.335 2.648,15.113 -3.346,21.107 -5.8,5.8 -13.679,5.821 -18.767,4.067 -1.578,-0.614 -2.916,-0.066 -3.815,-0.965 -0.881,-0.881 -0.351,-2.719 -0.714,-3.819 -3.169,-5.202 -3.405,-13.025 2.687,-19.117 4.962,-4.962 10.438,-6.841 19.98,-4.852 0.002,0.002 0.005,10e-4 0.008,0.002 1.149,0.218 2.95,-0.524 3.567,0.094 C 0.683,-2.355 -0.094,-1.083 0,0"
             id="path32"
             style="fill:#ffcc4d;fill-opacity:1;fill-rule:nonzero;stroke:none" /></g><g
           transform="translate(9.208,30.4175)"
           id="g34"><path
             d="m 0,0 c 0,0 -4.27,0.59 -6.857,-4.599 -2.588,-5.188 0.582,-9.124 0.289,-12.652 -0.293,-3.531 1.566,-1.265 2.621,0.445 1.055,1.71 4.23,4.894 4.938,9.269 C 1.699,-3.163 0.922,-1.081 0,0"
             id="path36"
             style="fill:#77b255;fill-opacity:1;fill-rule:nonzero;stroke:none" /></g></g></g></g></svg>