<svg xmlns="http://www.w3.org/2000/svg" viewBox="0 0 47.5 47.5" enable-background="new 0 0 47.5 47.5"><defs><clipPath id="a"><path d="M0 38h38V0H0v38z"/></clipPath></defs><g><g><g clip-path="url(#a)" transform="matrix(1.25 0 0 -1.25 0 47.5)"><g><path fill="#dd2e44" d="M23.5 31.66c-.7 0-1.36-.07-2-.18-.82.1-2.74.23-3.6.23-8.46 0-15.87-3.17-15.87-14.3C2.03 8.4 9.07 1.06 19 1.06S36.97 8.38 36.97 17.4c0 11.26-9.38 14.26-13.48 14.26"/></g><g><path fill="#77b255" d="M9.44 36.9c1.64-1.63 2.77-2.26 3.27-4.9.3-1.57 2.28-1.5 2.28-1.5s-3.9-1.78-5.54-3.4c0 0 4.9 1.62 6.55 1.62 0 0 3.26-1.63 3.26-3.27 0 0 0 3.27-1.64 3.27 0 0 4.9 0 4.9-3.27 0 0 0 4.9-1.62 4.9 0 0 4.9 1.65 6.54 0 0 0-1.68 1.73-4.9 1.65 0 0 1.63 1.64 4.9 1.64 0 0-5.28 1.5-6.92-1.77 0 0-1.4 1.4 1.38 4.16 0 0-4.28-.76-4.28-4.03 0 0-1.55.04-2.64 1.26-2.14 2.4-5.54 3.65-5.54 3.65"/></g></g></g></g></svg>