<?xml version="1.0" encoding="UTF-8" standalone="no"?>
<!-- Created with Inkscape (http://www.inkscape.org/) -->

<svg
   xmlns:svg="http://www.w3.org/2000/svg"
   xmlns="http://www.w3.org/2000/svg"
   version="1.1"
   width="47.5"
   height="47.5"
   id="svg2"
   xml:space="preserve"><defs
     id="defs6"><clipPath
       id="clipPath18"><path
         d="M 0,38 38,38 38,0 0,0 0,38 z"
         id="path20" /></clipPath><clipPath
       id="clipPath30"><path
         d="m 1,19 c 0,-2.209 1.791,-4 4,-4 l 0,0 28,0 c 2.209,0 4,1.791 4,4 l 0,0 c 0,10 -8.059,18 -18,18 l 0,0 C 9.059,37 1,29 1,19"
         id="path32" /></clipPath></defs><g
     transform="matrix(1.25,0,0,-1.25,0,47.5)"
     id="g12"><g
       id="g14"><g
         clip-path="url(#clipPath18)"
         id="g16"><g
           transform="translate(28,4)"
           id="g22"><path
             d="m 0,0 c 0,-2.209 -1.791,-3 -4,-3 l -10,0 c -2.209,0 -4,0.791 -4,3 0,2.209 3,7 3,13 0,6 12,6 12,0 C -3,7 0,2.209 0,0"
             id="path24"
             style="fill:#99aab5;fill-opacity:1;fill-rule:nonzero;stroke:none" /></g></g></g><g
       id="g26"><g
         clip-path="url(#clipPath30)"
         id="g28"><g
           transform="translate(19,37.6113)"
           id="g34"><path
             d="m 0,0 c -10.494,0 -19,-8.639 -19,-19.194 0,-2.332 1.891,-4.417 4.222,-4.417 l 29.555,0 c 2.332,0 4.223,2.085 4.223,4.417 C 19,-8.639 10.494,0 0,0"
             id="path36"
             style="fill:#dd2e44;fill-opacity:1;fill-rule:nonzero;stroke:none" /></g><g
           transform="translate(8.7085,20.542)"
           id="g38"><path
             d="m 0,0 c -3.4,0 -6.167,2.766 -6.167,6.167 0,3.4 2.767,6.166 6.167,6.166 3.4,0 6.167,-2.766 6.167,-6.166 C 6.167,2.766 3.4,0 0,0"
             id="path40"
             style="fill:#f4abba;fill-opacity:1;fill-rule:nonzero;stroke:none" /></g><g
           transform="translate(8.7085,33)"
           id="g42"><path
             d="m 0,0 c -3.475,0 -6.292,-2.817 -6.292,-6.292 0,-3.474 2.817,-6.291 6.292,-6.291 3.475,0 6.292,2.817 6.292,6.291 C 6.292,-2.817 3.475,0 0,0 m 0,-0.25 c 3.331,0 6.042,-2.71 6.042,-6.042 0,-3.331 -2.711,-6.041 -6.042,-6.041 -3.331,0 -6.042,2.71 -6.042,6.041 0,3.332 2.711,6.042 6.042,6.042"
             id="path44"
             style="fill:#f4abba;fill-opacity:1;fill-rule:nonzero;stroke:none" /></g><g
           transform="translate(35.666,25.8115)"
           id="g46"><path
             d="M 0,0 C -0.96,2.357 -2.404,4.455 -4.209,6.184 -6.674,6.16 -8.666,4.159 -8.666,1.688 c 0,-2.485 2.015,-4.5 4.5,-4.5 1.887,0 3.497,1.165 4.166,2.812"
             id="path48"
             style="fill:#f4abba;fill-opacity:1;fill-rule:nonzero;stroke:none" /></g><g
           transform="translate(27,21)"
           id="g50"><path
             d="M 0,0 C 0,-2.485 -2.015,-4.5 -4.5,-4.5 -6.985,-4.5 -9,-2.485 -9,0 -9,2.485 -6.985,4.5 -4.5,4.5 -2.015,4.5 0,2.485 0,0"
             id="path52"
             style="fill:#f4abba;fill-opacity:1;fill-rule:nonzero;stroke:none" /></g><g
           transform="translate(24,32)"
           id="g54"><path
             d="m 0,0 c 0,-1.656 -1.343,-3 -3,-3 -1.657,0 -3,1.344 -3,3 0,1.657 1.343,3 3,3 1.657,0 3,-1.343 3,-3"
             id="path56"
             style="fill:#f4abba;fill-opacity:1;fill-rule:nonzero;stroke:none" /></g></g></g></g></svg>