<?xml version="1.0" encoding="UTF-8" standalone="no"?><svg xmlns:svg="http://www.w3.org/2000/svg" xmlns="http://www.w3.org/2000/svg" version="1.1" viewBox="0 0 47.5 47.5" style="enable-background:new 0 0 47.5 47.5;" id="svg2" xml:space="preserve"><defs id="defs6"><clipPath id="clipPath18"><path d="M 0,38 38,38 38,0 0,0 0,38 z" id="path20"/></clipPath></defs><g transform="matrix(1.25,0,0,-1.25,0,47.5)" id="g12"><g id="g14"><g clip-path="url(#clipPath18)" id="g16"><g transform="translate(15.0171,26.6323)" id="g22"><path d="m 0,0 -5.844,5.844 c 0.846,1.017 0.804,2.525 -0.15,3.479 -1.011,1.011 -2.65,1.011 -3.662,0 -0.621,-0.621 -0.856,-1.479 -0.715,-2.282 -0.804,0.141 -1.661,-0.095 -2.282,-0.716 -1.011,-1.011 -1.011,-2.651 0,-3.662 0.954,-0.954 2.462,-0.996 3.479,-0.149 L -3.33,-3.33 0,0 z" id="path24" style="fill:#ffd983;fill-opacity:1;fill-rule:nonzero;stroke:none"/></g><g transform="translate(33.9541,4.3643)" id="g26"><path d="m 0,0 c 1.665,1.665 5.874,8.81 0.046,14.636 -4.059,4.058 -7.328,3.826 -13.416,5.335 -2.497,0.832 -5.752,3.832 -6.584,4.665 -0.833,-0.833 -0.542,-3.874 -0.542,-3.874 0,0 -3.626,-0.294 -4.458,-1.126 0.832,-0.833 4.699,-4.49 5.375,-6.207 1.821,-5.775 1.613,-8.711 5.671,-12.77 C -7.248,-6 -1.664,-1.664 0,0" id="path28" style="fill:#c1694f;fill-opacity:1;fill-rule:nonzero;stroke:none"/></g></g></g></g></svg>
