<?xml version="1.0" encoding="UTF-8" standalone="no"?><svg xmlns:svg="http://www.w3.org/2000/svg" xmlns="http://www.w3.org/2000/svg" version="1.1" viewBox="0 0 47.5 47.5" style="enable-background:new 0 0 47.5 47.5;" id="svg2" xml:space="preserve"><defs id="defs6"><clipPath id="clipPath18"><path d="M 0,38 38,38 38,0 0,0 0,38 z" id="path20"/></clipPath></defs><g transform="matrix(1.25,0,0,-1.25,0,47.5)" id="g12"><g id="g14"><g clip-path="url(#clipPath18)" id="g16"><g transform="translate(26.999,13)" id="g22"><path d="m 0,0 c -0.198,0 -0.397,0.059 -0.572,0.181 -6.543,4.58 -12.166,12.366 -15.397,17.439 1.698,-10.529 0.997,-16.458 0.962,-16.744 -0.069,-0.548 -0.563,-0.93 -1.116,-0.868 -0.547,0.068 -0.937,0.567 -0.869,1.115 0.01,0.079 0.936,8.033 -1.986,21.668 -0.104,0.487 0.167,0.978 0.635,1.148 0.467,0.173 0.991,-0.027 1.226,-0.468 C -17.038,23.323 -9.11,8.599 0.574,1.819 1.027,1.503 1.137,0.879 0.82,0.427 0.626,0.148 0.315,0 0,0" id="path24" style="fill:#77b255;fill-opacity:1;fill-rule:nonzero;stroke:none"/></g><g transform="translate(27.5469,28.1816)" id="g26"><path d="m 0,0 c -3.476,-0.96 -5.051,-2.546 -10.75,-0.667 -4.72,1.557 -7.037,4.207 -6.345,6.305 0.692,2.097 3.18,3.163 7.901,1.606 C -4.445,5.678 -5.071,3.779 0,0" id="path28" style="fill:#5c913b;fill-opacity:1;fill-rule:nonzero;stroke:none"/></g><g transform="translate(35,9)" id="g30"><path d="m 0,0 c 0,-4.418 -3.582,-8 -8,-8 -4.418,0 -8,3.582 -8,8 0,4.418 3.582,8 8,8 4.418,0 8,-3.582 8,-8" id="path32" style="fill:#be1931;fill-opacity:1;fill-rule:nonzero;stroke:none"/></g><g transform="translate(20,9)" id="g34"><path d="m 0,0 c 0,-4.418 -3.582,-8 -8,-8 -4.418,0 -8,3.582 -8,8 0,4.418 3.582,8 8,8 4.418,0 8,-3.582 8,-8" id="path36" style="fill:#be1931;fill-opacity:1;fill-rule:nonzero;stroke:none"/></g></g></g></g></svg>
