<svg xmlns="http://www.w3.org/2000/svg" viewBox="0 0 47.5 47.5" enable-background="new 0 0 47.5 47.5"><defs><clipPath id="a"><path d="M0 38h38V0H0v38z"/></clipPath><clipPath id="b"><path d="M2 19C2 9.6 9.6 2 19 2s17 7.6 17 17-7.6 17-17 17S2 28.4 2 19"/></clipPath></defs><g><g><g clip-path="url(#a)" transform="matrix(1.25 0 0 -1.25 0 47.5)"><g><path fill="#c1694f" d="M36 19c0-9.4-7.6-17-17-17S2 9.6 2 19s7.6 17 17 17 17-7.6 17-17"/></g><g><path fill="#e29386" d="M28.26 9.36c-.46-.32-1.1-.2-1.4.26-.32.46-.2 1.1.25 1.4l1.68 1.15c.46.32 1.1.2 1.4-.26.32-.45.2-1.08-.25-1.4l-1.67-1.14z"/></g><g><path fill="#e29386" d="M30.7 16.45c-.52.2-.76.8-.55 1.3.2.52.8.76 1.3.56l1.85-.75c.5-.2.76-.8.55-1.3-.2-.5-.8-.76-1.3-.55l-1.85.75z"/></g><g><path fill="#e29386" d="M26.2 21.7c-.52.22-.77.8-.55 1.33.2.5.8.76 1.3.55l1.9-.76c.5-.2.75-.8.54-1.32-.22-.52-.8-.76-1.33-.55l-1.87.76z"/></g><g><path fill="#e29386" d="M5.2 14.7c-.52.22-.76.8-.55 1.33.2.5.8.76 1.32.55l1.87-.76c.52-.2.76-.8.55-1.32-.22-.52-.8-.77-1.32-.55l-1.88.76z"/></g><g><path fill="#e29386" d="M8.76 20.86c-.46-.32-1.1-.2-1.4.26-.32.46-.2 1.1.25 1.4l1.68 1.15c.46.32 1.1.2 1.4-.26.32-.45.2-1.08-.25-1.4l-1.67-1.14z"/></g><g><path fill="#e29386" d="M17.8 17.12c-.78.3-1.15 1.2-.84 1.96.32.76 1.2 1.13 1.96.82l2.78-1.13c.76-.32 1.13-1.2.82-1.96-.3-.76-1.2-1.12-1.96-.8L17.8 17.1z"/></g><g><path fill="#e29386" d="M11.6 11.07c.52.2 1.1-.06 1.3-.6.2-.5-.06-1.1-.58-1.3l-1.9-.7c-.5-.2-1.1.05-1.3.57-.2.53.07 1.1.6 1.3l1.88.73z"/></g></g></g><g><g clip-path="url(#b)" transform="matrix(1.25 0 0 -1.25 0 47.5)"><g><path fill="#292f33" d="M27 4c0-1.1-.9-2-2-2H13c-1.1 0-2 .9-2 2v12c0 1.1.9 2 2 2h12c1.1 0 2-.9 2-2V4z"/></g></g></g></g></svg>