<svg xmlns="http://www.w3.org/2000/svg" viewBox="0 0 47.5 47.5" enable-background="new 0 0 47.5 47.5"><defs><clipPath id="a"><path d="M0 38h38V0H0v38z"/></clipPath></defs><g><g><g clip-path="url(#a)" transform="matrix(1.25 0 0 -1.25 0 47.5)"><g><path fill="#939598" d="M37 14c0-5.52-8.06-10-18-10S1 8.48 1 14s8.06 10 18 10 18-4.48 18-10"/></g><g><path fill="#f1f2f2" d="M37 16c0-5.52-8.06-10-18-10S1 10.48 1 16s8.06 10 18 10 18-4.48 18-10"/></g><g><path fill="#f4900c" d="M33.8 16.4c0-4.2-6.63-7.62-14.8-7.62-8.17 0-14.8 3.4-14.8 7.6C4.2 20.6 10.83 24 19 24c8.17 0 14.8-3.4 14.8-7.6"/></g><g><path fill="#eee" d="M14 13c-3.75 0-10 2.06-10 5.5 0 4.13 3.83 8.94 10 8.94s10-5.5 10-8.94c0-3.44-5.63-5.5-10-5.5"/></g><g><path fill="#ccd6dd" d="M5.64 18.18c-.34.14-.5.53-.37.88.14.34.54.5.88.37l1.25-.5c.34-.15.5-.54.37-.9-.14-.33-.54-.5-.88-.36l-1.26.5z"/></g><g><path fill="#ccd6dd" d="M9.34 21.6c-.3-.2-.72-.12-.93.2-.2.3-.12.7.18.92l1.12.77c.3.2.72.12.93-.2.2-.3.13-.7-.17-.93l-1.12-.76z"/></g><g><path fill="#ccd6dd" d="M18.34 16.6c-.3-.2-.72-.12-.93.2-.2.3-.12.7.18.92l1.12.77c.3.2.72.12.93-.2.2-.3.13-.7-.17-.92l-1.12-.77z"/></g><g><path fill="#ccd6dd" d="M12.7 18.45c-.52.2-.76.8-.55 1.3.2.52.8.76 1.3.56l1.85-.75c.5-.2.76-.8.55-1.3-.2-.5-.8-.76-1.3-.55l-1.85.75z"/></g><g><path fill="#ccd6dd" d="M17.64 22.18c-.35.14-.5.53-.37.88.14.34.53.5.88.37l1.25-.5c.34-.15.5-.54.37-.9-.14-.33-.54-.5-.88-.36l-1.26.5z"/></g><g><path fill="#ccd6dd" d="M11.9 16.42c.35.13.74-.04.88-.4.13-.34-.05-.73-.4-.86l-1.26-.48c-.34-.13-.73.04-.86.4-.14.34.04.73.4.86l1.25.48z"/></g><g><path fill="#ffd983" d="M31 18c0-1.1-.9-2-2-2h-1c-1.1 0-2 .9-2 2s.9 2 2 2h1c1.1 0 2-.9 2-2"/></g><g><path fill="#ffd983" d="M28 13.5c0-.83-.67-1.5-1.5-1.5h-1c-.83 0-1.5.67-1.5 1.5s.67 1.5 1.5 1.5h1c.83 0 1.5-.67 1.5-1.5"/></g><g><path fill="#ffd983" d="M22 11c0-.55-.45-1-1-1h-1c-.55 0-1 .45-1 1s.45 1 1 1h1c.55 0 1-.45 1-1"/></g></g></g></g></svg>