<svg xmlns="http://www.w3.org/2000/svg" viewBox="0 0 47.5 47.5" enable-background="new 0 0 47.5 47.5"><defs><clipPath id="a"><path d="M0 38h38V0H0v38z"/></clipPath></defs><g><g><g clip-path="url(#a)" transform="matrix(1.25 0 0 -1.25 0 47.5)"><g><path fill="#ccd6dd" d="M19 1C4.04 1 2 15 2 19h34c0-2-1.96-18-17-18"/></g><g><path fill="#99aab5" d="M36 19.94c0-5.2-7.6-9.44-17-9.44S2 14.73 2 19.94c0 5.22 7.6 8.45 17 8.45s17-3.24 17-8.46"/></g><g><path fill="#ea596e" d="M20.5 4H18c-.28 0-.5.22-.5.5s.22.5.5.5h2v3h-4V7h3c.28 0 .5-.22.5-.5S19.28 6 19 6h-3.5c-.28 0-.5.22-.5.5v2c0 .28.22.5.5.5h5c.28 0 .5-.22.5-.5v-4c0-.28-.22-.5-.5-.5"/></g><g><path fill="#ea596e" d="M26 5c-.2 0-.4.12-.46.3-.1.27.02.56.27.66l2.2.88-.07 2.24L24 8.1v-.94c.73.2 1.96.55 2.86.82.26.08.54-.07.62-.34.08-.26-.07-.54-.34-.62-1.38-.4-3.5-1-3.5-1-.16-.04-.32 0-.44.08-.13.1-.2.24-.2.4v2c0 .23.16.43.38.48l4.9 1.22c.15.04.3 0 .43-.08.13-.1.2-.24.2-.4l.1-3.2c0-.22-.12-.4-.3-.48l-2.5-1C26.12 5 26.05 5 26 5"/></g><g><path fill="#ea596e" d="M30.57 7.7c-.1 0-.2.04-.28.1-.17.08-.3.3-.3.48v2.56c0 .2.1.36.27.44.6.32 1.28.73 1.83 1.07.4.23.72.42.9.53.16.08.34.08.5 0 .14-.1.24-.24.25-.4.03-.44-.1-1.55-.15-1.77-.02-.14-.1-.28-.24-.35l-1.2-.7c-.24-.12-.55-.04-.7.2-.12.23-.04.54.2.68l1 .56c0 .13.02.28.04.44-.03-.02-.06-.04-.08-.05-.5-.3-1.08-.66-1.62-.95V8.92c.17.1.4.23.72.43l.34-.38.2-.47c-.96-.6-1.4-.8-1.7-.8"/></g><g><path fill="#ea596e" d="M12.88 4.72c-.06 0-.1 0-.16.02L9.5 5.77c-.26.1-.4.37-.32.63.08.27.37.4.63.33l2.6-.83.06 2.35-2.86.84-.02-.75 1.58-.53c.26-.1.4-.37.3-.64-.07-.26-.36-.4-.62-.3l-1.94.65c-.2.07-.34.27-.34.5l.07 1.74c0 .15.08.3.2.4.13.08.3.1.44.06L13.1 9.1c.23-.06.38-.26.37-.5l-.1-3.4c0-.15-.08-.3-.2-.4-.1-.05-.2-.08-.3-.08"/></g><g><path fill="#ea596e" d="M6.84 7.5c-.1 0-.18.02-.26.07l-1.37.85c-.23.14-.3.45-.16.68.15.24.45.32.7.17l.6-.37v1.62L5 11.27v-.43l.74-.44c.24-.15.3-.45.17-.7-.13-.23-.44-.3-.67-.16l-1 .6c-.14.08-.23.25-.23.42v1.56c0 .18.1.35.25.44.15.1.34.1.5 0l2.32-1.3c.16-.1.26-.27.26-.45V8c0-.18-.08-.35-.24-.44-.1-.04-.17-.06-.26-.06"/></g><g><path fill="#ffac33" d="M34 19c0-3.87-6.72-7-15-7-8.28 0-15 3.13-15 7s6.72 7 15 7c8.28 0 15-3.13 15-7"/></g><g><path fill="#ffd983" d="M23 13c-1.18 0-2.12.2-2.8.58-.77.44-1.2 1.15-1.2 1.94 0 1.85 2.33 3.48 5 3.48.55 0 1-.45 1-1s-.45-1-1-1c-1.87 0-3-1.03-3-1.48 0-.08.14-.17.2-.2.2-.12.7-.32 1.8-.32 2.4 0 5 1.53 5 4 0 .72-.94 1.18-1.34 1.35-2.02.82-5.3.58-6.95-1.1-1.43-1.47-3.78-1.96-6.28-1.3-1.53.4-3.32 1.33-3.7 2.75-.2.73 0 1.44.57 2C12.6 25 16.86 25 20 25c.55 0 1-.45 1-1s-.45-1-1-1c-2.78 0-6.6 0-8.3-1.7-.04-.06-.06-.1-.06-.1.03-.15.57-.75 1.8-1.18 1.58-.54 3.7-.56 4.85.62 2.3 2.37 6.45 2.65 9.1 1.56 1.66-.67 2.6-1.84 2.6-3.2 0-3.7-3.63-6-7-6"/></g><g><path fill="#ffd983" d="M16 13c-7.6 0-10 5.46-10 7 0 .55.45 1 1 1s1-.45 1-1c.04-.66 1.7-5 8-5 .55 0 1-.45 1-1s-.45-1-1-1"/></g><g><path fill="#aa695b" d="M36.1 33.95l-23-.9c-.56-.04-1.05.37-1.1.92-.05.55.36 1.03.9 1.08l22.92 1.88c.55.05 1.04-.35 1.1-.9.04-.55-.28-2.03-.83-2.08"/></g><g><path fill="#aa695b" d="M36 29l-23 1c-.55 0-1 .45-1 1s.45 1 1 1h23c.55 0 1-.45 1-1s-.45-2-1-2"/></g><g><path fill="#ffd983" d="M15 22c-.55 0-1 .45-1 1v12c0 .55.45 1 1 1s1-.45 1-1V23c0-.55-.45-1-1-1"/></g><g><path fill="#ffd983" d="M19 20c-.55 0-1 .45-1 1v15c0 .55.45 1 1 1s1-.45 1-1V21c0-.55-.45-1-1-1"/></g></g></g></g></svg>