<?xml version="1.0" encoding="UTF-8" standalone="no"?><svg xmlns:dc="http://purl.org/dc/elements/1.1/" xmlns:cc="http://creativecommons.org/ns#" xmlns:rdf="http://www.w3.org/1999/02/22-rdf-syntax-ns#" xmlns:svg="http://www.w3.org/2000/svg" xmlns="http://www.w3.org/2000/svg" viewBox="0 0 47.5 47.5" style="enable-background:new 0 0 47.5 47.5;" xml:space="preserve" version="1.1" id="svg2"><metadata id="metadata8"><rdf:RDF><cc:Work rdf:about=""><dc:format>image/svg+xml</dc:format><dc:type rdf:resource="http://purl.org/dc/dcmitype/StillImage"/></cc:Work></rdf:RDF></metadata><defs id="defs6"><clipPath id="clipPath16" clipPathUnits="userSpaceOnUse"><path id="path18" d="M 0,38 38,38 38,0 0,0 0,38 Z"/></clipPath><clipPath id="clipPath56" clipPathUnits="userSpaceOnUse"><path id="path58" d="M 2,19 C 2,9.611 9.609,2 19,2 l 0,0 c 9.391,0 17,7.611 17,17 l 0,0 c 0,9.39 -7.609,17 -17,17 l 0,0 C 9.609,36 2,28.39 2,19"/></clipPath></defs><g transform="matrix(1.25,0,0,-1.25,0,47.5)" id="g10"><g id="g12"><g clip-path="url(#clipPath16)" id="g14"><g transform="translate(36,19)" id="g20"><path id="path22" style="fill:#c1694f;fill-opacity:1;fill-rule:nonzero;stroke:none" d="m 0,0 c 0,-9.389 -7.609,-17 -17,-17 -9.391,0 -17,7.611 -17,17 0,9.389 7.609,17 17,17 C -7.609,17 0,9.389 0,0"/></g><g transform="translate(28.2578,9.3584)" id="g24"><path id="path26" style="fill:#e29386;fill-opacity:1;fill-rule:nonzero;stroke:none" d="m 0,0 c -0.461,-0.316 -1.091,-0.199 -1.406,0.263 -0.316,0.46 -0.198,1.091 0.261,1.406 l 1.67,1.144 C 0.985,3.128 1.614,3.011 1.931,2.55 2.246,2.09 2.129,1.459 1.668,1.145 L 0,0 Z"/></g><g transform="translate(30.6963,16.4531)" id="g28"><path id="path30" style="fill:#e29386;fill-opacity:1;fill-rule:nonzero;stroke:none" d="M 0,0 C -0.512,0.207 -0.758,0.792 -0.549,1.303 -0.34,1.814 0.244,2.06 0.755,1.852 L 2.607,1.097 C 3.118,0.889 3.364,0.306 3.156,-0.206 2.948,-0.718 2.364,-0.964 1.853,-0.755 L 0,0 Z"/></g><g transform="translate(26.2021,21.709)" id="g32"><path id="path34" style="fill:#e29386;fill-opacity:1;fill-rule:nonzero;stroke:none" d="m 0,0 c -0.519,0.21 -0.768,0.801 -0.555,1.318 0.209,0.517 0.801,0.766 1.317,0.556 L 2.637,1.11 C 3.152,0.899 3.401,0.31 3.19,-0.208 2.979,-0.725 2.391,-0.974 1.872,-0.763 L 0,0 Z"/></g><g transform="translate(5.2012,14.709)" id="g36"><path id="path38" style="fill:#e29386;fill-opacity:1;fill-rule:nonzero;stroke:none" d="m 0,0 c -0.517,0.21 -0.766,0.801 -0.554,1.318 0.21,0.517 0.801,0.766 1.318,0.556 L 2.637,1.11 C 3.154,0.899 3.402,0.31 3.192,-0.208 2.981,-0.726 2.391,-0.975 1.874,-0.764 L 0,0 Z"/></g><g transform="translate(8.7578,20.8584)" id="g40"><path id="path42" style="fill:#e29386;fill-opacity:1;fill-rule:nonzero;stroke:none" d="m 0,0 c -0.461,-0.316 -1.091,-0.199 -1.406,0.264 -0.316,0.46 -0.198,1.09 0.261,1.405 l 1.67,1.144 C 0.985,3.128 1.614,3.011 1.931,2.55 2.246,2.09 2.129,1.459 1.668,1.144 L 0,0 Z"/></g><g transform="translate(17.7861,17.1191)" id="g44"><path id="path46" style="fill:#e29386;fill-opacity:1;fill-rule:nonzero;stroke:none" d="M 0,0 C -0.768,0.312 -1.137,1.188 -0.824,1.956 -0.51,2.722 0.365,3.091 1.132,2.779 L 3.91,1.646 C 4.677,1.334 5.046,0.46 4.734,-0.308 4.422,-1.075 3.546,-1.444 2.778,-1.132 L 0,0 Z"/></g><g transform="translate(11.6016,11.0674)" id="g48"><path id="path50" style="fill:#e29386;fill-opacity:1;fill-rule:nonzero;stroke:none" d="M 0,0 C 0.522,0.199 1.106,-0.062 1.306,-0.586 1.503,-1.105 1.239,-1.691 0.718,-1.889 l -1.892,-0.72 c -0.518,-0.2 -1.103,0.063 -1.302,0.586 -0.2,0.523 0.063,1.106 0.585,1.306 L 0,0 Z"/></g></g></g><g id="g52"><g clip-path="url(#clipPath56)" id="g54"><g transform="translate(27,4)" id="g60"><path id="path62" style="fill:#292f33;fill-opacity:1;fill-rule:nonzero;stroke:none" d="m 0,0 c 0,-1.104 -0.896,-2 -2,-2 l -12,0 c -1.104,0 -2,0.896 -2,2 l 0,12 c 0,1.104 0.896,2 2,2 l 12,0 c 1.104,0 2,-0.896 2,-2 L 0,0 Z"/></g></g></g></g></svg>
