<?xml version="1.0" encoding="UTF-8" standalone="no"?><svg xmlns:svg="http://www.w3.org/2000/svg" xmlns="http://www.w3.org/2000/svg" version="1.1" viewBox="0 0 47.5 47.5" style="enable-background:new 0 0 47.5 47.5;" id="svg2" xml:space="preserve"><defs id="defs6"><clipPath id="clipPath18"><path d="M 0,38 38,38 38,0 0,0 0,38 z" id="path20"/></clipPath></defs><g transform="matrix(1.25,0,0,-1.25,0,47.5)" id="g12"><g id="g14"><g clip-path="url(#clipPath18)" id="g16"><g transform="translate(35.9346,10.3232)" id="g22"><path d="m 0,0 c 0,6.651 -7.597,12.042 -16.967,12.042 -9.371,0 -16.968,-5.391 -16.968,-12.042 0,-6.649 7.597,-8.162 16.968,-8.162 C -7.597,-8.162 0,-6.649 0,0" id="path24" style="fill:#d99e82;fill-opacity:1;fill-rule:nonzero;stroke:none"/></g><g transform="translate(35.9346,16.1406)" id="g26"><path d="m 0,0 c 0,6.651 -7.597,12.042 -16.967,12.042 -9.371,0 -16.968,-5.391 -16.968,-12.042 0,-6.649 7.597,-8.162 16.968,-8.162 C -7.597,-8.162 0,-6.649 0,0" id="path28" style="fill:#662113;fill-opacity:1;fill-rule:nonzero;stroke:none"/></g><g transform="translate(20.167,10.5488)" id="g30"><path d="m 0,0 c -0.964,-0.531 -1.288,-0.529 -2.25,0.003 0,0 -7,3.615 -15.709,6.323 -1.166,0.583 -0.267,2.625 0.834,2.625 L 14.75,8.91 c 1.1,0 2.005,-2.311 1.125,-2.542 C 9.666,4.743 0,0 0,0" id="path32" style="fill:#ffcc4d;fill-opacity:1;fill-rule:nonzero;stroke:none"/></g><g transform="translate(35.9346,21.9585)" id="g34"><path d="m 0,0 c 0,6.651 -7.597,12.042 -16.967,12.042 -9.371,0 -16.968,-5.391 -16.968,-12.042 0,-6.65 7.597,-7.375 16.968,-7.375 C -7.597,-7.375 0,-6.65 0,0" id="path36" style="fill:#d99e82;fill-opacity:1;fill-rule:nonzero;stroke:none"/></g><g transform="translate(10.7417,28.9761)" id="g38"><path d="M 0,0 C -0.498,0.317 -0.644,0.979 -0.326,1.477 -0.007,1.975 0.654,2.121 1.152,1.802 1.65,1.484 2.396,0.439 2.079,-0.059 1.76,-0.557 0.498,-0.319 0,0" id="path40" style="fill:#ffe8b6;fill-opacity:1;fill-rule:nonzero;stroke:none"/></g><g transform="translate(21.627,31.813)" id="g42"><path d="M 0,0 C 0.561,0.183 1.164,-0.125 1.347,-0.686 1.529,-1.248 1.223,-1.852 0.66,-2.034 0.098,-2.217 -1.184,-2.13 -1.366,-1.568 -1.549,-1.006 -0.562,-0.182 0,0" id="path44" style="fill:#ffe8b6;fill-opacity:1;fill-rule:nonzero;stroke:none"/></g><g transform="translate(32.208,22.7251)" id="g46"><path d="m 0,0 c -0.38,-0.453 -1.055,-0.512 -1.507,-0.131 -0.452,0.38 -0.511,1.054 -0.131,1.507 0.381,0.452 1.514,1.058 1.966,0.677 C 0.781,1.673 0.381,0.453 0,0" id="path48" style="fill:#ffe8b6;fill-opacity:1;fill-rule:nonzero;stroke:none"/></g><g transform="translate(27.7422,27.9761)" id="g50"><path d="M 0,0 C -0.498,0.317 -0.645,0.979 -0.326,1.477 -0.008,1.975 0.653,2.121 1.151,1.802 1.649,1.484 2.396,0.439 2.078,-0.059 1.76,-0.557 0.498,-0.319 0,0" id="path52" style="fill:#ffe8b6;fill-opacity:1;fill-rule:nonzero;stroke:none"/></g><g transform="translate(12.7422,20.9766)" id="g54"><path d="M 0,0 C -0.498,0.317 -0.645,0.979 -0.326,1.476 -0.008,1.974 0.653,2.12 1.151,1.802 1.649,1.483 2.396,0.438 2.078,-0.059 1.76,-0.558 0.498,-0.319 0,0" id="path56" style="fill:#ffe8b6;fill-opacity:1;fill-rule:nonzero;stroke:none"/></g><g transform="translate(16.9395,27.5859)" id="g58"><path d="M 0,0 C 0.335,0.486 1.001,0.609 1.487,0.273 1.974,-0.063 2.096,-0.729 1.76,-1.215 1.424,-1.701 0.353,-2.411 -0.133,-2.075 -0.62,-1.739 -0.336,-0.486 0,0" id="path60" style="fill:#ffe8b6;fill-opacity:1;fill-rule:nonzero;stroke:none"/></g><g transform="translate(23.7422,20.9766)" id="g62"><path d="M 0,0 C -0.498,0.316 -0.645,0.979 -0.326,1.476 -0.008,1.974 0.653,2.12 1.151,1.802 1.649,1.483 2.396,0.438 2.078,-0.059 1.76,-0.558 0.498,-0.319 0,0" id="path64" style="fill:#ffe8b6;fill-opacity:1;fill-rule:nonzero;stroke:none"/></g><g transform="translate(6.0576,26.6646)" id="g66"><path d="M 0,0 C 0.394,0.44 1.07,0.478 1.51,0.084 1.95,-0.311 1.988,-0.986 1.593,-1.427 1.199,-1.867 0.047,-2.436 -0.392,-2.042 -0.833,-1.647 -0.395,-0.44 0,0" id="path68" style="fill:#ffe8b6;fill-opacity:1;fill-rule:nonzero;stroke:none"/></g></g></g></g></svg>
