<svg xmlns="http://www.w3.org/2000/svg" viewBox="0 0 47.5 47.5" enable-background="new 0 0 47.5 47.5"><defs><clipPath id="a"><path d="M0 38h38V0H0v38z"/></clipPath><clipPath id="b"><path d="M6.73 31.38c-.48-.23-.54-.84-.42-1.28C6.45 29.67 17 3 17 3s1-2 2-2c1.1 0 2 2 2 2l10.7 27.22s.22.84-.56 1.23C29.4 32.3 25.04 34 19 34c-6.2 0-10.62-1.8-12.27-2.62"/></clipPath></defs><g><g><g clip-path="url(#a)" transform="matrix(1.25 0 0 -1.25 0 47.5)"><g><path fill="#f4900c" d="M19 33c7.26 0 13-4 14.7-2 .2.32.3.66.3 1 0 2-6.72 5-15 5-8.28 0-15-3-15-5 0-.34.1-.68.3-1 1.7-2 7.44 2 14.7 2"/></g><g><path fill="#ffcc4d" d="M19 34c-6.2 0-10.62-1.8-12.27-2.62-.48-.23-.54-.84-.42-1.28C6.45 29.67 17 3 17 3s.9-2 2-2 2 2 2 2l10.7 27.22s.22.84-.56 1.23C29.4 32.3 25.04 34 19 34"/></g></g></g><g><g clip-path="url(#b)" transform="matrix(1.25 0 0 -1.25 0 47.5)"><g><path fill="#be1931" d="M19 6c0-2.2-1.8-4-4-4s-4 1.8-4 4 1.8 4 4 4 4-1.8 4-4"/></g><g><path fill="#be1931" d="M18 17c0-2.2-1.8-4-4-4s-4 1.8-4 4 1.8 4 4 4 4-1.8 4-4"/></g><g><path fill="#be1931" d="M21 29c0-2.2-1.8-4-4-4s-4 1.8-4 4 1.8 4 4 4 4-1.8 4-4"/></g><g><path fill="#be1931" d="M30 24c0-2.2-1.8-4-4-4s-4 1.8-4 4 1.8 4 4 4 4-1.8 4-4"/></g><g><path fill="#be1931" d="M28 12c0-2.2-1.8-4-4-4s-4 1.8-4 4 1.8 4 4 4 4-1.8 4-4"/></g><g><path fill="#be1931" d="M11 25c0-2.2-1.8-4-4-4s-4 1.8-4 4 1.8 4 4 4 4-1.8 4-4"/></g></g></g></g></svg>