<?xml version="1.0" encoding="UTF-8" standalone="no"?><svg xmlns:svg="http://www.w3.org/2000/svg" xmlns="http://www.w3.org/2000/svg" version="1.1" viewBox="0 0 47.5 47.5" style="enable-background:new 0 0 47.5 47.5;" id="svg2" xml:space="preserve"><defs id="defs6"><clipPath id="clipPath18"><path d="M 0,38 38,38 38,0 0,0 0,38 z" id="path20"/></clipPath><clipPath id="clipPath34"><path d="M 6.727,31.382 C 6.25,31.149 6.187,30.542 6.313,30.104 l 0,0 C 6.438,29.667 17,3 17,3 l 0,0 c 0,0 1,-2 2,-2 l 0,0 c 1.104,0 2,2 2,2 l 0,0 10.704,27.221 c 0,0 0.213,0.842 -0.569,1.229 l 0,0 C 29.391,32.311 25.047,34 19,34 l 0,0 C 12.787,34 8.384,32.19 6.727,31.382" id="path36"/></clipPath></defs><g transform="matrix(1.25,0,0,-1.25,0,47.5)" id="g12"><g id="g14"><g clip-path="url(#clipPath18)" id="g16"><g transform="translate(19,33)" id="g22"><path d="M 0,0 C 7.257,0 13,-4 14.699,-2 14.896,-1.677 15,-1.343 15,-1 15,1 8.284,4 0,4 -8.284,4 -15,1 -15,-1 c 0,-0.343 0.104,-0.677 0.301,-1 C -13,-4 -7.257,0 0,0" id="path24" style="fill:#f4900c;fill-opacity:1;fill-rule:nonzero;stroke:none"/></g><g transform="translate(19,34)" id="g26"><path d="m 0,0 c -6.213,0 -10.616,-1.81 -12.273,-2.618 -0.477,-0.233 -0.54,-0.84 -0.415,-1.278 C -12.563,-4.333 -2,-31 -2,-31 c 0,0 0.896,-2 2,-2 1.104,0 2,2 2,2 l 10.704,27.221 c 0,0 0.213,0.841 -0.569,1.228 C 10.392,-1.689 6.047,0 0,0" id="path28" style="fill:#ffcc4d;fill-opacity:1;fill-rule:nonzero;stroke:none"/></g></g></g><g id="g30"><g clip-path="url(#clipPath34)" id="g32"><g transform="translate(19,6)" id="g38"><path d="m 0,0 c 0,-2.208 -1.791,-4 -4,-4 -2.209,0 -4,1.792 -4,4 0,2.208 1.791,4 4,4 2.209,0 4,-1.792 4,-4" id="path40" style="fill:#be1931;fill-opacity:1;fill-rule:nonzero;stroke:none"/></g><g transform="translate(18,17)" id="g42"><path d="m 0,0 c 0,-2.208 -1.792,-4 -4,-4 -2.209,0 -4,1.792 -4,4 0,2.209 1.791,4 4,4 2.208,0 4,-1.791 4,-4" id="path44" style="fill:#be1931;fill-opacity:1;fill-rule:nonzero;stroke:none"/></g><g transform="translate(21,29)" id="g46"><path d="m 0,0 c 0,-2.209 -1.792,-4 -4,-4 -2.209,0 -4,1.791 -4,4 0,2.209 1.791,4 4,4 2.208,0 4,-1.791 4,-4" id="path48" style="fill:#be1931;fill-opacity:1;fill-rule:nonzero;stroke:none"/></g><g transform="translate(30,24)" id="g50"><path d="m 0,0 c 0,-2.209 -1.792,-4 -4,-4 -2.208,0 -4,1.791 -4,4 0,2.209 1.792,4 4,4 2.208,0 4,-1.791 4,-4" id="path52" style="fill:#be1931;fill-opacity:1;fill-rule:nonzero;stroke:none"/></g><g transform="translate(28,12)" id="g54"><path d="m 0,0 c 0,-2.208 -1.792,-4 -4,-4 -2.208,0 -4,1.792 -4,4 0,2.208 1.792,4 4,4 2.208,0 4,-1.792 4,-4" id="path56" style="fill:#be1931;fill-opacity:1;fill-rule:nonzero;stroke:none"/></g><g transform="translate(11,25)" id="g58"><path d="m 0,0 c 0,-2.209 -1.791,-4 -4,-4 -2.209,0 -4,1.791 -4,4 0,2.209 1.791,4 4,4 2.209,0 4,-1.791 4,-4" id="path60" style="fill:#be1931;fill-opacity:1;fill-rule:nonzero;stroke:none"/></g></g></g></g></svg>
