<svg xmlns="http://www.w3.org/2000/svg" viewBox="0 0 47.5 47.5" enable-background="new 0 0 47.5 47.5"><defs><clipPath id="a"><path d="M0 38h38V0H0v38z"/></clipPath></defs><g><g><g clip-path="url(#a)" transform="matrix(1.25 0 0 -1.25 0 47.5)"><g><path fill="#be1931" d="M23.6 2.16c3.48 1.15 6.13 3.03 6.13 9.37 0 4 4.27 8.47 4.27 12.55 0 3.92-4.62 10.38-15.1 9.28C8.12 32.24 4 29 4 21.93 4 17 9.3 13.55 12.13 8.4 14 5 19.55-1.2 23.6 2.17"/></g><g><path fill="#77b255" d="M27.25 33.43c-1.28 1.04-3.28 1.55-5.35 1.67.28.04.54.08.82.1.98.06 3.62 1.23 1.4 1.1-.97-.08-1.9-.27-2.83-.44.22.16.47.3.73.45-.03.7-4.03.7-6.05-1-.5.12-.98.7-3.98.7-2 0-4.68-.93-3-1 .92-.04 2 0 1.86-.36C10.2 34.57 7 34 7 33c0-.35 2.76.17 3 0-1.72-.64-3-2-3-3 0-.42 2.2.82 3 1-1-1-1.4-1.7-1.34-2.43.03-.47 2.38.1 2.63.17.8.27 3.7 1.26 4.6 2.73.1-.3 2.95-1.35 4.1-1.47.53-.06 2.62-.27 2.14.7C22 31 21 32 20.7 32.98c.44.02 8.3-.97 6.55.46"/></g><g><path fill="#f4abba" d="M10.34 19.7c-.14 1.45-2.54 3.25-2.33 1 .14-1.47 2.55-3.26 2.34-1"/></g><g><path fill="#f4abba" d="M17.8 19.14c-.07.62-.28 1.2-.7 1.67-.46.56-1.06.37-1.22-.3-.2-.8.08-1.76.6-2.38.02 0 .03-.03.04-.04-.2.52-.42 1.05-.64 1.57 0-.02 0-.03 0-.05.08-.64.4-1.73 1.14-1.9.76-.2.83 1 .78 1.44"/></g><g><path fill="#f4abba" d="M23.55 23.98c.47.96.17 3.96-.83 1.96-.48-.96-.17-3.97.83-1.96"/></g><g><path fill="#f4abba" d="M30.76 25.44c-.03.36-.07.78-.4 1-1.18.87-2.37-2.35-1.38-3.07.02 0 .04-.03.06-.04-.1.3-.22.6-.33.92 0-.02 0-.04 0-.05.06-.57.4-1.38 1.1-.95.66.4 1.02 1.44.96 2.2"/></g><g><path fill="#f4abba" d="M29.41 16.87c1.03 1.57-.53 3.45-1.76 1.54-1.02-1.55.54-3.44 1.77-1.53"/></g><g><path fill="#f4abba" d="M23.67 13.98c.17 1.93-2.3 2.75-2.5.5-.2-1.94 2.3-2.76 2.5-.5"/></g><g><path fill="#f4abba" d="M13.77 15.2c-.02 0-.03 0-.05 0 .46-.25.9-.5 1.36-.73 0 0 0 0 0 .02-.32.27-1.37 1.07-1.8.58-.44-.5.5-1.42.8-1.7.34-.32.93-.77 1.43-.73 1.45.1-.77 2.6-1.73 2.54"/></g><g><path fill="#f4abba" d="M27 9.28c.97 1.07.72 4.05-.8 2.38-.97-1.07-.72-4.05.8-2.38"/></g><g><path fill="#f4abba" d="M13.6 23.25c.1 0 .2 0 .28.02.7.04 1 1.45 1.04 1.95.04.57-.04 1.45-.78 1.4-.1 0-.2 0-.3 0-.7-.06-1-1.47-1.03-1.97-.03-.57.06-1.45.8-1.4"/></g><g><path fill="#f4abba" d="M21.45 8c.4-.77.25-1.63-.32-1.93-.58-.3-1.36.08-1.76.85-.4.76-.25 1.62.32 1.9.56.3 1.35-.07 1.75-.83"/></g></g></g></g></svg>