<?xml version="1.0" encoding="UTF-8" standalone="no"?><svg xmlns:svg="http://www.w3.org/2000/svg" xmlns="http://www.w3.org/2000/svg" version="1.1" viewBox="0 0 47.5 47.5" style="enable-background:new 0 0 47.5 47.5;" id="svg2" xml:space="preserve"><defs id="defs6"><clipPath id="clipPath18"><path d="M 0,38 38,38 38,0 0,0 0,38 z" id="path20"/></clipPath></defs><g transform="matrix(1.25,0,0,-1.25,0,47.5)" id="g12"><g id="g14"><g clip-path="url(#clipPath18)" id="g16"><g transform="translate(2.0625,31.875)" id="g22"><path d="m 0,0 c 0,0 4.875,5 10,5 6.125,0 7.937,-4.938 7.937,-4.938 0,0 0.625,4 5,4 4.375,0 6.938,-3.125 6.938,-3.125 0,0 -3.563,-2.124 -4.625,-2.562 C 22.449,-2.778 13.875,-5.187 9.875,-4.187 5.875,-3.188 0,0 0,0" id="path24" style="fill:#5c913b;fill-opacity:1;fill-rule:nonzero;stroke:none"/></g><g transform="translate(19,31)" id="g26"><path d="m 0,0 c 0,0 1.042,0.896 6,0.896 6.542,0 12,-4.813 12,-12.927 0,-11.531 -14.958,-17.881 -14.958,-17.881 0,0 -20.042,1.079 -20.042,17.935 C -17,-2.018 -10.25,1 -6,1 -1.042,1 0,0 0,0" id="path28" style="fill:#ff886c;fill-opacity:1;fill-rule:nonzero;stroke:none"/></g><g transform="translate(2.0625,31.875)" id="g30"><path d="m 0,0 c 0,0 4.875,5 10,5 6.125,0 7.937,-4.938 7.937,-4.938 0,0 -4.062,-5.249 -8.062,-4.249 C 5.875,-3.188 0,0 0,0" id="path32" style="fill:#77b255;fill-opacity:1;fill-rule:nonzero;stroke:none"/></g><g transform="translate(23.999,7)" id="g34"><path d="m 0,0 c -0.19,0 -0.383,0.055 -0.554,0.168 -0.46,0.307 -0.584,0.927 -0.277,1.387 0.015,0.022 1.832,2.907 1.832,9.445 0,6.445 -4.578,10.182 -4.625,10.219 -0.431,0.345 -0.501,0.974 -0.156,1.406 0.345,0.43 0.974,0.5 1.406,0.156 C -2.155,22.605 3.001,18.396 3.001,11 3.001,3.78 0.922,0.578 0.833,0.445 0.641,0.156 0.323,0 0,0" id="path36" style="fill:#dd2e44;fill-opacity:1;fill-rule:nonzero;stroke:none"/></g></g></g></g></svg>
