<?xml version="1.0" encoding="UTF-8" standalone="no"?>
<!-- Created with Inkscape (http://www.inkscape.org/) -->

<svg
   xmlns:svg="http://www.w3.org/2000/svg"
   xmlns="http://www.w3.org/2000/svg"
   version="1.1"
   width="47.5"
   height="47.5"
   id="svg2"
   xml:space="preserve"><defs
     id="defs6"><clipPath
       id="clipPath18"><path
         d="M 0,38 38,38 38,0 0,0 0,38 z"
         id="path20" /></clipPath></defs><g
     transform="matrix(1.25,0,0,-1.25,0,47.5)"
     id="g12"><g
       id="g14"><g
         clip-path="url(#clipPath18)"
         id="g16"><g
           transform="translate(8.6812,27.9033)"
           id="g22"><path
             d="m 0,0 c 1.587,3.151 7.698,1.916 11.958,-2.171 2.698,-2.586 8.056,-1.498 11.499,-4.804 3.493,-3.354 3.258,-9.361 -3.053,-15.767 -5.085,-5.161 -12.085,-5.161 -16.25,-1.545 -4.388,3.81 -2.475,8.61 -4.411,13.585 C -2.194,-5.726 -4.581,-0.278 0,0"
             id="path24"
             style="fill:#a6d388;fill-opacity:1;fill-rule:nonzero;stroke:none" /></g><g
           transform="translate(9.1782,27.4658)"
           id="g26"><path
             d="M 0,0 C -0.43,-0.448 -1.114,-0.489 -1.527,-0.093 -4.735,2.986 -5.445,7.452 -5.473,7.683 -5.547,8.27 -5.125,8.84 -4.535,8.961 -3.942,9.082 -3.403,8.705 -3.33,8.12 -3.324,8.07 -2.672,4.123 0.03,1.529 0.443,1.132 0.43,0.448 0,0"
             id="path28"
             style="fill:#662113;fill-opacity:1;fill-rule:nonzero;stroke:none" /></g></g></g></g></svg>