<svg xmlns="http://www.w3.org/2000/svg" viewBox="0 0 47.5 47.5" enable-background="new 0 0 47.5 47.5"><defs><clipPath id="a"><path d="M0 38h38V0H0v38z"/></clipPath></defs><g><g><g clip-path="url(#a)" transform="matrix(1.25 0 0 -1.25 0 47.5)"><g><path fill="#5c913b" d="M2.06 31.88s4.88 5 10 5c6.13 0 7.94-4.94 7.94-4.94s.62 4 5 4c4.37 0 6.94-3.13 6.94-3.13s-3.57-2.1-4.63-2.55c-2.8-1.15-11.36-3.56-15.36-2.56s-9.88 4.17-9.88 4.17"/></g><g><path fill="#ff886c" d="M19 31s1.04.9 6 .9c6.54 0 12-4.82 12-12.93C37 7.44 22.04 1.1 22.04 1.1S2 2.16 2 19C2 28.98 8.75 32 13 32c4.96 0 6-1 6-1"/></g><g><path fill="#77b255" d="M2.06 31.88s4.88 5 10 5c6.13 0 7.94-4.94 7.94-4.94s-4.06-5.25-8.06-4.25c-4 1-9.88 4.18-9.88 4.18"/></g><g><path fill="#dd2e44" d="M24 7c-.2 0-.38.06-.56.17-.46.3-.58.93-.27 1.4 0 0 1.83 2.9 1.83 9.43 0 6.45-4.58 10.18-4.63 10.22-.43.34-.5.97-.15 1.4.34.43.97.5 1.4.16C21.84 29.6 27 25.4 27 18c0-7.22-2.08-10.42-2.17-10.55-.2-.3-.5-.45-.83-.45"/></g></g></g></g></svg>