<svg xmlns="http://www.w3.org/2000/svg" viewBox="0 0 47.5 47.5" enable-background="new 0 0 47.5 47.5"><defs><clipPath id="a"><path d="M0 38h38V0H0v38z"/></clipPath></defs><g><g><g clip-path="url(#a)" transform="matrix(1.25 0 0 -1.25 0 47.5)"><g><path fill="#ffd983" d="M15.02 26.63l-5.85 5.85c.85 1 .8 2.52-.15 3.48-1 1-2.65 1-3.66 0-.62-.63-.85-1.48-.7-2.3-.82.15-1.67-.08-2.3-.7-1-1-1-2.65 0-3.66.96-.96 2.47-1 3.48-.15l5.85-5.85L15 26.63z"/></g><g><path fill="#c1694f" d="M33.95 4.36c1.67 1.67 5.88 8.8.05 14.64-4.06 4.06-7.33 3.83-13.42 5.34-2.5.83-5.75 3.83-6.58 4.66-.83-.83-.54-3.87-.54-3.87S9.83 24.83 9 24c.83-.83 4.7-4.5 5.38-6.2C16.2 12 15.98 9.07 20.05 5c6.66-6.66 12.24-2.32 13.9-.66"/></g></g></g></g></svg>