<svg xmlns="http://www.w3.org/2000/svg" viewBox="0 0 47.5 47.5" enable-background="new 0 0 47.5 47.5"><defs><clipPath id="a"><path d="M0 38h38V0H0v38z"/></clipPath></defs><g><g><g clip-path="url(#a)" transform="matrix(1.25 0 0 -1.25 0 47.5)"><g><path fill="#ffd983" d="M15.02 26.63l-5.85 5.85c.85 1 .8 2.52-.15 3.48-1 1-2.65 1-3.66 0-.62-.63-.85-1.48-.7-2.3-.82.15-1.67-.08-2.3-.7-1-1-1-2.65 0-3.66.96-.96 2.47-1 3.48-.15l5.85-5.85L15 26.63z"/></g><g><path fill="#ffd983" d="M26.94 14.7l5.84-5.83c1.02.84 2.52.8 3.48-.15 1-1 1-2.65 0-3.66-.62-.62-1.48-.86-2.28-.72.14-.8-.1-1.66-.72-2.28-1-1-2.65-1-3.66 0-.96.95-1 2.46-.15 3.48l-5.84 5.84 3.34 3.33z"/></g><g><path fill="#c1694f" d="M31.02 21.12c-1.63 1.63-4.1 1.54-6.23 3.67-2.13 2.1-2.05 4.6-3.68 6.22-3.5 3.52-7.02 1.47-11.3-2.83-4.3-4.3-6.36-7.8-2.84-11.32 1.63-1.63 4.1-1.54 6.23-3.67 2.14-2.1 2.05-4.6 3.68-6.22 3.5-3.5 7.02-1.47 11.3 2.83 4.3 4.3 6.36 7.8 2.84 11.32"/></g><g><path fill="#662113" d="M15 14c-.1 0-.2.02-.32.05-.52.18-.8.74-.63 1.27 1.1 3.32 5.3 7.52 8.63 8.63.53.17 1.1-.1 1.27-.63.17-.53-.1-1.1-.63-1.27-2.7-.9-6.48-4.68-7.37-7.37-.14-.42-.53-.68-.95-.68"/></g></g></g></g></svg>