<svg xmlns="http://www.w3.org/2000/svg" viewBox="0 0 47.5 47.5" enable-background="new 0 0 47.5 47.5"><defs><clipPath id="a"><path d="M0 38h38V0H0v38z"/></clipPath></defs><g><g><g clip-path="url(#a)" transform="matrix(1.25 0 0 -1.25 0 47.5)"><g><path fill="#939598" d="M37 13c0-5.52-8.06-10-18-10S1 7.48 1 13s8.06 10 18 10 18-4.48 18-10"/></g><g><path fill="#f1f2f2" d="M37 15c0-5.52-8.06-10-18-10S1 9.48 1 15s8.06 10 18 10 18-4.48 18-10"/></g><g><path fill="#ffcc4d" d="M33.8 15.4c0-4.2-6.63-7.62-14.8-7.62-8.17 0-14.8 3.4-14.8 7.6C4.2 19.6 10.83 23 19 23c8.17 0 14.8-3.4 14.8-7.6"/></g><g><path fill="#ffe8b6" d="M12 10c-.55 0-1 .45-1 1s.45 1 1 1c1.9 0 3.08 1.08 3.17 1.83.1.74-.96 1.1-1.4 1.2-.92.23-1.6-.03-2.37-.33-1.07-.42-2.53-.98-4.1.6-.7.68-.87 1.6-.5 2.5.73 1.77 3.45 3.2 5.2 3.2.55 0 1-.45 1-1s-.45-1-1-1c-1.1 0-3-1.1-3.35-1.96-.07-.18-.05-.23.06-.33.64-.62.94-.54 1.98-.14.86.33 2.04.8 3.56.4 2.4-.6 3.07-2.13 2.92-3.37-.22-1.77-2.2-3.6-5.16-3.6"/></g><g><path fill="#ffe8b6" d="M18 9c-.55 0-1 .45-1 1s.45 1 1 1c5.7 0 9.83 1.25 12.3 3.7.38.4 1.02.4 1.4 0 .4-.38.4-1.02 0-1.4C28.87 10.43 24.26 9 18 9"/></g><g><path fill="#ffe8b6" d="M22.35 12.84c-.54 0-1.07.06-1.6.2-.54.12-2.2.54-2.24 1.87-.03 1 .67 2.18 5.95 3.97C23.87 19.34 22.5 20 21 20c-2.5 0-3.8-.2-4.3-.7-.38-.4-1.02-.4-1.4 0-.4.38-.4 1.02 0 1.4.95.96 2.44 1.3 5.7 1.3 2.4 0 5.4-1.33 5.68-3.05.1-.67-.2-1.5-1.36-1.9-2.6-.86-3.92-1.55-4.5-1.96.1-.04.25-.1.42-.13 3.23-.8 7.32 2.37 7.77 3.18.08.48.5.85 1 .85.55 0 1-.45 1-1 0-.7-.63-1.56-1.9-2.54-1.73-1.36-4.28-2.62-6.75-2.62"/></g><g><path fill="#dd2e44" d="M28 16.5c0-2.48-2.03-5.5-7-5.5-4.97 0-4 2-12 5-3.38 1.27 5.03 5 10 5s9-2.02 9-4.5"/></g><g><path fill="#ea596e" d="M17 13c-.26 0-.5.1-.7.3-.4.38-.4 1.02 0 1.4.27.3.1.48 0 .6-.57.55-2.25.6-3.85-.2-.5-.24-1.1-.04-1.34.45-.24.5-.04 1.1.45 1.35 1.98.98 4.73 1.24 6.16-.2 1.26-1.24.7-2.72 0-3.4-.2-.2-.44-.3-.7-.3"/></g><g><path fill="#ea596e" d="M21 17c-2.4 0-3.7 1.27-4.7 2.3-.4.38-.4 1.02 0 1.4.38.4 1.02.4 1.4 0 .96-.95 1.7-1.7 3.3-1.7.77 0 2.6 0 3.3.7.38.4 1.02.4 1.4 0 .4-.38.4-1.02 0-1.4C24.4 17 22.1 17 21 17"/></g><g><path fill="#ea596e" d="M21 13c-.55 0-1 .45-1 1s.45 1 1 1c1.85 0 4.55.96 5.3 1.7.38.4 1.02.4 1.4 0 .4-.38.4-1.02 0-1.4C26.43 14 23.05 13 21 13"/></g><g><path fill="#ffac33" d="M18 17c-.37 0-.72.2-.9.55-1 2-3.07 6.16-4.1 14.33-.06.54.33 1.04.88 1.1.54.08 1.04-.3 1.1-.86 1-7.83 2.96-11.77 3.9-13.67.26-.5.06-1.1-.43-1.34-.15-.07-.3-.1-.45-.1"/></g><g><path fill="#99aab5" d="M36.13 25.96l-15.25 4.5c-3.35 5.3-7.56 4.46-9.88 4.54-.25 0-.82-.22-.83-.63-.02-.4 1.02-.33 1.18-.34 1.7-.06 3.95-.17 6.13-2.5-2.65.94-6.74 1.54-7.48 1.47-.46-.04-.5-.38.04-.63.45-.2 4.57-1.64 6.84-2.34-1.42-.5-3.28-.7-6.43.86-.5.24-1.2.6-1.45.1s.5-.75 1-1c2.16-1.08 3.43-2.33 4.82-2.33 1.66 0 2.86.5 3.8.9.33.14.63.26.9.34 0 0 .03 0 .04-.02l14.8-6.6c.5-.26 1.58.8 1.84 1.28.27.5.28 2.17-.07 2.4"/></g><g><path fill="#ffac33" d="M14 18c-.26 0-.5.1-.7.3-1.32 1.3-4.45 8.86-.08 14.32.34.44.97.5 1.4.16.44-.34.5-.97.16-1.4C11.13 26.8 14 20.4 14.7 19.7c.4-.38.4-1.02 0-1.4-.2-.2-.44-.3-.7-.3"/></g></g></g></g></svg>