<svg xmlns="http://www.w3.org/2000/svg" viewBox="0 0 47.5 47.5" enable-background="new 0 0 47.5 47.5"><defs><clipPath id="a"><path d="M0 38h38V0H0v38z"/></clipPath></defs><g><g><g clip-path="url(#a)" transform="matrix(1.25 0 0 -1.25 0 47.5)"><g><path fill="#d99e82" d="M37 23.5c0 4.56-4.43 8.27-10 8.48V32H11v-.02c-5.57-.2-10-3.92-10-8.48 0-1.86.75-3.58 2-4.98V6c0-2.2 1.8-4 4-4h24c2.2 0 4 1.8 4 4v12.52c1.25 1.4 2 3.12 2 4.98"/></g><g><path fill="#ffe8b6" d="M22 23.5c0 3.46-3.54 6.3-8 6.5-.17 0-2.33 0-2.5 0C6.8 30 3 27.1 3 23.5c0-1.6.75-3.05 2-4.18V7c0-1.66 1.34-3 3-3h9c1.66 0 3 1.34 3 3v12.32c1.24 1.13 2 2.6 2 4.18"/></g></g></g></g></svg>