<?xml version="1.0" encoding="UTF-8" standalone="no"?>
<!-- Created with Inkscape (http://www.inkscape.org/) -->

<svg
   xmlns:svg="http://www.w3.org/2000/svg"
   xmlns="http://www.w3.org/2000/svg"
   version="1.1"
   width="47.5"
   height="47.5"
   id="svg2"
   xml:space="preserve"><defs
     id="defs6"><clipPath
       id="clipPath18"><path
         d="M 0,38 38,38 38,0 0,0 0,38 z"
         id="path20" /></clipPath></defs><g
     transform="matrix(1.25,0,0,-1.25,0,47.5)"
     id="g12"><g
       id="g14"><g
         clip-path="url(#clipPath18)"
         id="g16"><g
           transform="translate(36,19)"
           id="g22"><path
             d="m 0,0 c 0,-9.389 -7.611,-17 -17,-17 -9.389,0 -17,7.611 -17,17 0,9.389 7.611,17 17,17 C -7.611,17 0,9.389 0,0"
             id="path24"
             style="fill:#d99e82;fill-opacity:1;fill-rule:nonzero;stroke:none" /></g><g
           transform="translate(23.6377,20.0532)"
           id="g26"><path
             d="M 0,0 C 1.177,0.385 2.444,-0.261 2.827,-1.44 3.211,-2.62 2.567,-3.887 1.386,-4.271 0.205,-4.655 -2.485,-4.472 -2.869,-3.293 -3.252,-2.112 -1.182,-0.382 0,0"
             id="path28"
             style="fill:#8a4b38;fill-opacity:1;fill-rule:nonzero;stroke:none" /></g><g
           transform="translate(32.208,20.7246)"
           id="g30"><path
             d="M 0,0 C -0.38,-0.452 -1.055,-0.512 -1.507,-0.131 -1.959,0.25 -2.018,0.924 -1.638,1.377 -1.257,1.828 -0.124,2.434 0.328,2.054 0.781,1.674 0.381,0.453 0,0"
             id="path32"
             style="fill:#8a4b38;fill-opacity:1;fill-rule:nonzero;stroke:none" /></g><g
           transform="translate(10.208,27.7246)"
           id="g34"><path
             d="M 0,0 C -0.38,-0.452 -1.055,-0.512 -1.507,-0.131 -1.959,0.25 -2.018,0.924 -1.638,1.377 -1.257,1.828 -0.124,2.434 0.328,2.054 0.781,1.674 0.381,0.453 0,0"
             id="path36"
             style="fill:#8a4b38;fill-opacity:1;fill-rule:nonzero;stroke:none" /></g><g
           transform="translate(22.3008,29.6187)"
           id="g38"><path
             d="M 0,0 C -0.748,0.478 -0.969,1.472 -0.49,2.22 -0.012,2.969 0.982,3.188 1.731,2.71 2.48,2.231 3.604,0.66 3.125,-0.088 2.646,-0.837 0.749,-0.479 0,0"
             id="path40"
             style="fill:#8a4b38;fill-opacity:1;fill-rule:nonzero;stroke:none" /></g><g
           transform="translate(14.3745,23.4019)"
           id="g42"><path
             d="M 0,0 C -0.515,1.066 -0.064,2.351 1.005,2.864 2.075,3.376 3.356,2.925 3.869,1.856 4.382,0.786 4.551,-1.787 3.482,-2.298 2.412,-2.812 0.512,-1.071 0,0"
             id="path44"
             style="fill:#8a4b38;fill-opacity:1;fill-rule:nonzero;stroke:none" /></g><g
           transform="translate(15.3994,9.3027)"
           id="g46"><path
             d="M 0,0 C 0.602,0.874 1.8,1.096 2.672,0.492 3.546,-0.113 3.766,-1.309 3.162,-2.183 2.559,-3.057 0.634,-4.33 -0.238,-3.727 -1.113,-3.123 -0.604,-0.873 0,0"
             id="path48"
             style="fill:#8a4b38;fill-opacity:1;fill-rule:nonzero;stroke:none" /></g><g
           transform="translate(25.4121,9.709)"
           id="g50"><path
             d="M 0,0 C -0.687,0.436 -0.889,1.348 -0.449,2.034 -0.011,2.72 0.899,2.92 1.586,2.481 2.271,2.043 3.301,0.604 2.862,-0.081 2.424,-0.769 0.686,-0.44 0,0"
             id="path52"
             style="fill:#8a4b38;fill-opacity:1;fill-rule:nonzero;stroke:none" /></g><g
           transform="translate(6.5356,18.5796)"
           id="g54"><path
             d="M 0,0 C 0.762,0.853 2.071,0.926 2.923,0.163 3.774,-0.601 3.847,-1.909 3.083,-2.759 2.321,-3.614 0.091,-4.714 -0.759,-3.951 -1.612,-3.187 -0.764,-0.851 0,0"
             id="path56"
             style="fill:#8a4b38;fill-opacity:1;fill-rule:nonzero;stroke:none" /></g></g></g></g></svg>