<?xml version="1.0" encoding="UTF-8" standalone="no"?><svg xmlns:dc="http://purl.org/dc/elements/1.1/" xmlns:cc="http://creativecommons.org/ns#" xmlns:rdf="http://www.w3.org/1999/02/22-rdf-syntax-ns#" xmlns:svg="http://www.w3.org/2000/svg" xmlns="http://www.w3.org/2000/svg" viewBox="0 0 47.5 47.5" style="enable-background:new 0 0 47.5 47.5;" xml:space="preserve" version="1.1" id="svg2"><metadata id="metadata8"><rdf:RDF><cc:Work rdf:about=""><dc:format>image/svg+xml</dc:format><dc:type rdf:resource="http://purl.org/dc/dcmitype/StillImage"/></cc:Work></rdf:RDF></metadata><defs id="defs6"><clipPath id="clipPath16" clipPathUnits="userSpaceOnUse"><path id="path18" d="M 0,38 38,38 38,0 0,0 0,38 Z"/></clipPath><clipPath id="clipPath32" clipPathUnits="userSpaceOnUse"><path id="path34" d="m 18.182,14 -7.364,0 c 0,0 1.353,-6.5 2.351,-9.752 l 0,0 C 14.168,0.995 17.773,1 18.591,1 l 0,0 c 1.636,0 4.425,-0.005 5.423,3.248 l 0,0 C 25.01,7.5 27.183,14 27.183,14 l 0,0 -9.001,0 z"/></clipPath><clipPath id="clipPath44" clipPathUnits="userSpaceOnUse"><path id="path46" d="M 0,38 38,38 38,0 0,0 0,38 Z"/></clipPath><clipPath id="clipPath80" clipPathUnits="userSpaceOnUse"><path id="path82" d="m 20.594,32.425 -7.874,-2.939 10e-4,-0.002 c -1.384,-0.517 -2.36,-1.768 -2.36,-3.229 l 0,0 c 0,-1.925 1.69,-3.486 3.774,-3.486 l 0,0 c 4.74,0 9.575,3.069 9.575,3.069 l 0,0 c 1.81,1.071 2.581,2.879 1.799,4.663 l 0,0 C 24.915,31.857 23.5,32.68 22.007,32.68 l 0,0 c -0.471,0 -0.95,-0.082 -1.413,-0.255"/></clipPath><clipPath id="clipPath92" clipPathUnits="userSpaceOnUse"><path id="path94" d="M 21.27,28.657 11.059,24.649 11.06,24.648 C 9.266,23.944 8,22.239 8,20.246 l 0,0 c 0,-2.623 2.192,-4.75 4.895,-4.75 l 0,0 c 6.145,0 12.417,4.182 12.417,4.182 l 0,0 c 2.345,1.46 3.345,3.924 2.331,6.356 l 0,0 c -0.77,1.849 -2.604,2.97 -4.54,2.97 l 0,0 c -0.611,0 -1.232,-0.111 -1.833,-0.347"/></clipPath><clipPath id="clipPath104" clipPathUnits="userSpaceOnUse"><path id="path106" d="m 14.143,33.015 0,-10e-4 C 13.334,32.687 12.764,31.895 12.764,30.97 l 0,0 c 0,-1.219 0.987,-2.206 2.206,-2.206 l 0,0 c 2.769,0 5.597,1.942 5.597,1.942 l 0,0 c 1.055,0.678 2.142,1.874 2.142,1.874 l 0,0 c 0,0 0.749,1.666 -1.625,1.666 l 0,0 c -3.562,0 -6.941,-1.231 -6.941,-1.231"/></clipPath></defs><g transform="matrix(1.25,0,0,-1.25,0,47.5)" id="g10"><g id="g12"><g clip-path="url(#clipPath16)" id="g14"><g transform="translate(28,17)" id="g20"><path id="path22" style="fill:#ffcc4d;fill-opacity:1;fill-rule:nonzero;stroke:none" d="m 0,0 c 0,-1.657 -4.03,-3 -9,-3 -4.97,0 -9,1.343 -9,3 0,1.657 4.03,3 9,3 4.97,0 9,-1.343 9,-3"/></g><g transform="translate(18.1816,14)" id="g24"><path id="path26" style="fill:#ffcc4d;fill-opacity:1;fill-rule:nonzero;stroke:none" d="m 0,0 -7.363,0 c 0,0 1.352,-6.5 2.35,-9.752 C -4.014,-13.006 -0.408,-13 0.41,-13 2.045,-13 4.834,-13.006 5.832,-9.752 6.828,-6.5 9.001,0 9.001,0 L 0,0 Z"/></g></g></g><g id="g28"><g clip-path="url(#clipPath32)" id="g30"><g transform="translate(27.1826,12.5)" id="g36"><path id="path38" style="fill:#ffac33;fill-opacity:1;fill-rule:nonzero;stroke:none" d="m 0,0 c 0,-1.657 -2.76,-3.5 -8.183,-3.5 -5.422,0 -8.181,1.843 -8.181,3.5 0,1.657 2.759,3 8.181,3 C -2.76,3 0,1.657 0,0"/></g></g></g><g id="g40"><g clip-path="url(#clipPath44)" id="g42"><g transform="translate(10,17)" id="g48"><path id="path50" style="fill:#ffcc4d;fill-opacity:1;fill-rule:nonzero;stroke:none" d="m 0,0 0,-3 c 0,-1.657 4.03,-3 9,-3 4.97,0 9,1.343 9,3 L 18,0 0,0 Z"/></g><g transform="translate(27.1826,16.5)" id="g52"><path id="path54" style="fill:#f4900c;fill-opacity:1;fill-rule:nonzero;stroke:none" d="m 0,0 c 0,-1.381 -3.664,-2.5 -8.183,-2.5 -4.519,0 -8.181,1.119 -8.181,2.5 0,1.381 3.662,2.5 8.181,2.5 C -3.664,2.5 0,1.381 0,0"/></g><g transform="translate(29.375,19.8501)" id="g56"><path id="path58" style="fill:#ffe8b6;fill-opacity:1;fill-rule:nonzero;stroke:none" d="m 0,0 c 0,2.405 -1.949,4.354 -4.354,4.354 -2.405,0 -14.188,-4.803 -14.188,-7.208 0,-2.404 8.084,-2.329 13.751,-1.371 C -2.42,-3.825 0,-2.405 0,0"/></g><g transform="translate(27.6436,26.0342)" id="g60"><path id="path62" style="fill:#ffe8b6;fill-opacity:1;fill-rule:nonzero;stroke:none" d="m 0,0 c -1.014,2.432 -3.868,3.606 -6.374,2.623 l -10.21,-4.008 0.001,-10e-4 c -1.794,-0.705 -3.061,-2.409 -3.061,-4.402 0,-2.623 2.192,-4.75 4.895,-4.75 6.145,0 12.417,4.183 12.417,4.183 C 0.014,-4.896 1.014,-2.432 0,0"/></g><g transform="translate(25.5088,30.501)" id="g64"><path id="path66" style="fill:#ffe8b6;fill-opacity:1;fill-rule:nonzero;stroke:none" d="m 0,0 c -0.781,1.784 -2.982,2.646 -4.915,1.924 l -7.874,-2.939 10e-4,-0.002 c -1.384,-0.517 -2.36,-1.767 -2.36,-3.23 0,-1.924 1.69,-3.484 3.774,-3.484 4.74,0 9.575,3.068 9.575,3.068 C 0.011,-3.592 0.782,-1.784 0,0"/></g><g transform="translate(21.6943,32.0791)" id="g68"><path id="path70" style="fill:#ffe8b6;fill-opacity:1;fill-rule:nonzero;stroke:none" d="m 0,0 c 0,0 0.593,1.781 -1.781,1.781 -3.562,0 -5.771,-0.845 -5.771,-0.845 l 0,-0.001 c -0.808,-0.327 -1.379,-1.119 -1.379,-2.044 0,-1.219 0.988,-2.206 2.206,-2.206 2.769,0 5.597,1.942 5.597,1.942 C -0.072,-0.695 0,0 0,0"/></g><g transform="translate(17.9824,36.8613)" id="g72"><path id="path74" style="fill:#ffe8b6;fill-opacity:1;fill-rule:nonzero;stroke:none" d="M 0,0 C 1.781,-2.375 4.156,-1.177 4.751,-2.959 5.313,-4.648 3.562,-5.333 3.562,-5.333 l -4.749,0 c 0,0 -1.782,3.552 1.187,5.333"/></g></g></g><g id="g76"><g clip-path="url(#clipPath80)" id="g78"><g transform="translate(10.167,24.6211)" id="g84"><path id="path86" style="fill:#ffd983;fill-opacity:1;fill-rule:nonzero;stroke:none" d="m 0,0 c 3.417,0 9.708,1.125 16.5,5.833 2.103,1.458 3.667,-0.875 2,-2.458 C 16.833,1.792 4.417,-4.042 0.167,-3.25 -4.083,-2.458 0,0 0,0"/></g></g></g><g id="g88"><g clip-path="url(#clipPath92)" id="g90"><g transform="translate(7.792,18.6626)" id="g96"><path id="path98" style="fill:#ffd983;fill-opacity:1;fill-rule:nonzero;stroke:none" d="M 0,0 C 1.542,-0.708 5.458,-0.583 7.958,0.125 10.458,0.833 19.208,3.667 20.5,6.792 21.792,9.917 23.333,7.375 22.958,5 22.583,2.625 11.792,-6.458 6.667,-5.375 1.542,-4.292 -1.667,-4.583 -2,-2.792 -2.333,-1 0,0 0,0"/></g></g></g><g id="g100"><g clip-path="url(#clipPath104)" id="g102"><g transform="translate(12.5,30.4546)" id="g108"><path id="path110" style="fill:#ffd983;fill-opacity:1;fill-rule:nonzero;stroke:none" d="M 0,0 C 2.417,-0.25 10.333,2.292 10.5,4.375 10.667,6.458 12.125,2.625 11.625,1.958 11.125,1.292 1.667,-3.75 -1.75,-1.542 -5.167,0.667 0,0 0,0"/></g></g></g></g></svg>
