<svg xmlns="http://www.w3.org/2000/svg" viewBox="0 0 47.5 47.5" enable-background="new 0 0 47.5 47.5"><defs><clipPath id="a"><path d="M0 38h38V0H0v38z"/></clipPath><clipPath id="b"><path d="M19.92 24H7c-1.18 0-3.74-.5-3.07-2.9C6.7 11.1 17 8.38 17 8.38V7.2s-4.63-2.44-5.6-3c-1.02-.6-.26-1.53.16-1.7.68-.27 2.38-1.15 7.1-1.15 4.86 0 7.5.96 8.1 1.15.22.08 1.2.98-.2 1.8C24.06 5.77 21 7.2 21 7.2v1.17s10.66 2.73 13.36 12.9c.4 1.5-1.52 2.73-3.87 2.73H19.9z"/></clipPath><clipPath id="c"><path d="M0 38h38V0H0v38z"/></clipPath></defs><g><g><g clip-path="url(#a)" transform="matrix(1.25 0 0 -1.25 0 47.5)"><g><path fill="#55acee" d="M21 8.38s10.66 2.72 13.36 12.9c.4 1.5-1.52 2.72-3.87 2.72H7c-1.18 0-3.74-.5-3.07-2.9C6.7 11.1 17 8.38 17 8.38V7.2s-4.63-2.44-5.6-3c-1.02-.6-.26-1.53.16-1.7.68-.27 2.38-1.15 7.1-1.15 4.86 0 7.5.96 8.1 1.15.22.08 1.2.98-.2 1.8C24.06 5.77 21 7.2 21 7.2v1.17z"/></g><g><path fill="#3b88c3" d="M34.3 21.75c0-1.7-6.84-3.06-15.28-3.06-8.43 0-15.27 1.36-15.27 3.05 0 1.7 6.84 3.07 15.27 3.07 8.44 0 15.27-1.38 15.27-3.07"/></g><g><path fill="#f4abba" d="M26.98 30.1c0-1.62-3.13-4.75-7.83-4.75-4.32 0-7.83 2.08-7.83 4.74 0 4.32 3.5 6.78 7.83 6.78s7.83-2.46 7.83-6.8"/></g><g><path fill="#ffe8b6" d="M34.3 22.78c0-1.6-3.14-4.22-7.84-4.22-4.33 0-7.83-1.4-7.83 4.22 0 4.33 3.5 7.83 7.83 7.83s7.83-3.5 7.83-7.82"/></g><g><path fill="#8a4b38" d="M19.67 22.78c0-5.18-3.13-4.3-7.83-4.3-4.32 0-7.83 1.65-7.83 4.3 0 4.33 3.52 7.83 7.84 7.83 4.33 0 7.83-3.5 7.83-7.82"/></g></g></g><g><g clip-path="url(#b)" transform="matrix(1.25 0 0 -1.25 0 47.5)"><g><path fill="#3b88c3" d="M3.75 19.78c1.92-.6 16.18-5.27 31.28.52.1-.83-.22-3.74-1.44-3.96-1.22-.22-14.24-4.5-28.77.2-.4.44-1.08 3.24-1.08 3.24"/></g></g></g><g><g clip-path="url(#c)" transform="matrix(1.25 0 0 -1.25 0 47.5)"><g><path fill="#55acee" d="M3.84 21.82c1.4-.6 15.48-5.04 30.5-.08 0-.66-.42-2.48-.66-3.18-.4-1.13-15.4-4.83-28.9-.26-.38.17-1.55 3.78-.94 3.52"/></g></g></g></g></svg>