<?xml version="1.0" encoding="UTF-8" standalone="no"?>
<!-- Created with Inkscape (http://www.inkscape.org/) -->

<svg
   xmlns:svg="http://www.w3.org/2000/svg"
   xmlns="http://www.w3.org/2000/svg"
   version="1.1"
   width="47.5"
   height="47.5"
   id="svg2"
   xml:space="preserve"><defs
     id="defs6"><clipPath
       id="clipPath18"><path
         d="M 0,38 38,38 38,0 0,0 0,38 z"
         id="path20" /></clipPath><clipPath
       id="clipPath34"><path
         d="m 23.795,8.428 0.399,-3.055 c 0.531,-4.074 5.628,-4.3 6.248,-2.126 l 0,0 0.933,4.042 4.041,0.932 c 2.173,0.621 1.949,5.718 -2.125,6.25 l 0,0 -3.055,0.398 c -0.324,0.042 -0.641,0.063 -0.949,0.063 l 0,0 c -3.564,0 -5.981,-2.755 -5.492,-6.504"
         id="path36" /></clipPath><clipPath
       id="clipPath46"><path
         d="M 8.051,35.588 7.116,31.547 3.075,30.613 C 0.901,29.993 1.127,24.897 5.201,24.365 l 0,0 3.055,-0.399 c 4.074,-0.531 6.973,2.367 6.441,6.441 l 0,0 -0.399,3.055 c -0.316,2.429 -2.256,3.49 -3.902,3.49 l 0,0 c -1.115,0 -2.095,-0.486 -2.345,-1.364"
         id="path48" /></clipPath><clipPath
       id="clipPath58"><path
         d="M 0,38 38,38 38,0 0,0 0,38 z"
         id="path60" /></clipPath><clipPath
       id="clipPath70"><path
         d="m 12.246,27.21 c -4.159,-4.161 -4.158,-10.905 0,-15.064 l 0,0 c 4.161,-4.159 10.905,-4.159 15.064,0 l 0,0 c 4.159,4.159 4.159,10.903 0,15.064 l 0,0 c -2.08,2.079 -4.806,3.119 -7.532,3.119 l 0,0 c -2.726,0 -5.452,-1.04 -7.532,-3.119"
         id="path72" /></clipPath></defs><g
     transform="matrix(1.25,0,0,-1.25,0,47.5)"
     id="g12"><g
       id="g14"><g
         clip-path="url(#clipPath18)"
         id="g16"><g
           transform="translate(14.2983,33.4624)"
           id="g22"><path
             d="m 0,0 c -0.531,4.075 -5.627,4.299 -6.248,2.125 l -0.934,-4.041 -4.041,-0.933 c -2.174,-0.621 -1.949,-5.717 2.126,-6.248 l 3.054,-0.399 c 4.074,-0.531 6.973,2.367 6.441,6.441 L 0,0 z"
             id="path24"
             style="fill:#dd2e44;fill-opacity:1;fill-rule:nonzero;stroke:none" /></g><g
           transform="translate(33.291,14.4707)"
           id="g26"><path
             d="m 0,0 c 4.074,-0.531 4.299,-5.629 2.125,-6.249 l -4.041,-0.933 -0.934,-4.042 c -0.62,-2.173 -5.716,-1.948 -6.248,2.126 l -0.398,3.055 c -0.531,4.074 2.367,6.973 6.441,6.441 L 0,0 z"
             id="path28"
             style="fill:#dd2e44;fill-opacity:1;fill-rule:nonzero;stroke:none" /></g></g></g><g
       id="g30"><g
         clip-path="url(#clipPath34)"
         id="g32"><g
           transform="translate(22.5537,16.9023)"
           id="g38"><path
             d="m 0,0 c -2.846,-2.846 -3.734,-6.572 -1.981,-8.324 1.75,-1.751 5.477,-0.864 8.323,1.982 2.846,2.846 3.733,6.573 1.982,8.324 C 6.572,3.734 2.846,2.846 0,0"
             id="path40"
             style="fill:#be1931;fill-opacity:1;fill-rule:nonzero;stroke:none" /></g></g></g><g
       id="g42"><g
         clip-path="url(#clipPath46)"
         id="g44"><g
           transform="translate(10.6616,28.7944)"
           id="g50"><path
             d="m 0,0 c -2.846,-2.846 -3.733,-6.573 -1.982,-8.324 1.752,-1.752 5.478,-0.864 8.324,1.982 2.847,2.846 3.734,6.572 1.982,8.324 C 6.573,3.733 2.846,2.846 0,0"
             id="path52"
             style="fill:#be1931;fill-opacity:1;fill-rule:nonzero;stroke:none" /></g></g></g><g
       id="g54"><g
         clip-path="url(#clipPath58)"
         id="g56"><g
           transform="translate(27.3096,12.1465)"
           id="g62"><path
             d="m 0,0 c -4.159,-4.16 -10.903,-4.16 -15.063,0 -4.159,4.159 -4.159,10.903 0,15.063 4.16,4.159 10.904,4.159 15.063,0 C 4.16,10.903 4.16,4.159 0,0"
             id="path64"
             style="fill:#dd2e44;fill-opacity:1;fill-rule:nonzero;stroke:none" /></g></g></g><g
       id="g66"><g
         clip-path="url(#clipPath70)"
         id="g68"><g
           transform="translate(19.7085,19.9585)"
           id="g74"><path
             d="m 0,0 c -4.184,-2.535 -11.269,-3.17 -12.486,1.679 -1.162,-2.766 -1.21,-5.46 0.246,-7.156 C -10.783,-7.174 -4.02,-6.988 0,0"
             id="path76"
             style="fill:#f5f8fa;fill-opacity:1;fill-rule:nonzero;stroke:none" /></g><g
           transform="translate(19.75,20)"
           id="g78"><path
             d="m 0,0 c 0.643,-4.85 -2.532,-12.044 -7.461,-11.212 2.066,-2.175 4.514,-3.3 6.652,-2.646 C 1.331,-13.205 4.787,-6.486 0,0"
             id="path80"
             style="fill:#f5f8fa;fill-opacity:1;fill-rule:nonzero;stroke:none" /></g><g
           transform="translate(19.75,20)"
           id="g82"><path
             d="m 0,0 c 4.65,-0.867 8.234,-5.483 6.392,-10.132 2.557,1.568 5.114,2.564 4.921,4.791 C 11.121,-3.114 7.344,3.328 0,0"
             id="path84"
             style="fill:#f5f8fa;fill-opacity:1;fill-rule:nonzero;stroke:none" /></g><g
           transform="translate(19.75,20)"
           id="g86"><path
             d="M 0,0 C 1.541,3.333 8.285,6.246 12.168,3.096 11.438,6.006 11.434,8.516 9.25,9 7.067,9.484 -0.976,8.003 0,0"
             id="path88"
             style="fill:#f5f8fa;fill-opacity:1;fill-rule:nonzero;stroke:none" /></g><g
           transform="translate(19.7915,19.9585)"
           id="g90"><path
             d="m 0,0 c -3.875,2.042 -5.792,8.042 -1.792,11.042 -3,0 -6,0 -7,-2 C -9.792,7.042 -8,1 0,0"
             id="path92"
             style="fill:#f5f8fa;fill-opacity:1;fill-rule:nonzero;stroke:none" /></g><g
           transform="translate(27.3096,12.1465)"
           id="g94"><path
             d="m 0,0 c -4.159,-4.16 -10.903,-4.16 -15.063,0 -4.159,4.159 -4.159,10.903 0,15.063 4.16,4.159 10.904,4.159 15.063,0 C 4.16,10.903 4.16,4.159 0,0 z"
             id="path96"
             style="fill:none;stroke:#dd2e44;stroke-width:3;stroke-linecap:butt;stroke-linejoin:miter;stroke-miterlimit:10;stroke-opacity:1;stroke-dasharray:none" /></g></g></g></g></svg>