<svg xmlns="http://www.w3.org/2000/svg" viewBox="0 0 47.5 47.5" enable-background="new 0 0 47.5 47.5"><defs><clipPath id="a"><path d="M0 38h38V0H0v38z"/></clipPath><clipPath id="b"><path d="M23.8 8.43l.4-3.06c.53-4.07 5.62-4.3 6.24-2.12l.94 4.04 4.04.92c2.17.62 1.95 5.72-2.13 6.25l-3.06.4c-.33.04-.64.06-.95.06-3.58 0-6-2.75-5.5-6.5"/></clipPath><clipPath id="c"><path d="M8.05 35.6l-.93-4.05-4.04-.94C.9 30 1.13 24.9 5.2 24.37l3.06-.4c4.07-.53 6.97 2.37 6.44 6.45l-.4 3.06c-.32 2.43-2.26 3.5-3.9 3.5-1.12 0-2.1-.5-2.35-1.37"/></clipPath><clipPath id="d"><path d="M0 38h38V0H0v38z"/></clipPath><clipPath id="e"><path d="M12.25 27.2c-4.16-4.15-4.16-10.9 0-15.05C16.4 8 23.15 8 27.3 12.15c4.17 4.16 4.17 10.9 0 15.06-2.07 2.1-4.8 3.13-7.52 3.13-2.73 0-5.45-1.04-7.53-3.12"/></clipPath></defs><g><g><g clip-path="url(#a)" transform="matrix(1.25 0 0 -1.25 0 47.5)"><g><path fill="#dd2e44" d="M14.3 33.46c-.53 4.08-5.63 4.3-6.25 2.13l-.93-4.05-4.04-.94C.9 30 1.13 24.9 5.2 24.38l3.06-.4c4.07-.53 6.97 2.36 6.44 6.44l-.4 3.06z"/></g><g><path fill="#dd2e44" d="M33.3 14.47c4.06-.53 4.3-5.63 2.12-6.25l-4.05-.93-.93-4.05c-.62-2.18-5.72-1.95-6.25 2.12l-.4 3.06c-.54 4.07 2.36 6.97 6.44 6.44l3.05-.4z"/></g></g></g><g><g clip-path="url(#b)" transform="matrix(1.25 0 0 -1.25 0 47.5)"><g><path fill="#be1931" d="M22.55 16.9c-2.84-2.84-3.73-6.57-1.98-8.32s5.48-.87 8.33 1.98c2.84 2.85 3.73 6.57 1.98 8.32-1.75 1.76-5.48.87-8.33-1.98"/></g></g></g><g><g clip-path="url(#c)" transform="matrix(1.25 0 0 -1.25 0 47.5)"><g><path fill="#be1931" d="M10.66 28.8c-2.84-2.85-3.73-6.58-1.98-8.33s5.48-.86 8.32 1.98c2.85 2.85 3.74 6.57 2 8.33-1.77 1.75-5.5.86-8.34-2"/></g></g></g><g><g clip-path="url(#d)" transform="matrix(1.25 0 0 -1.25 0 47.5)"><g><path fill="#dd2e44" d="M27.3 12.15C23.16 8 16.4 8 12.26 12.15c-4.16 4.16-4.16 10.9 0 15.06 4.16 4.17 10.9 4.17 15.06 0 4.17-4.15 4.17-10.9 0-15.05"/></g></g></g><g><g clip-path="url(#e)" transform="matrix(1.25 0 0 -1.25 0 47.5)"><g><path fill="#f5f8fa" d="M19.7 19.96c-4.18-2.54-11.26-3.17-12.48 1.68-1.16-2.77-1.2-5.46.25-7.16 1.46-1.7 8.22-1.5 12.24 5.48"/></g><g><path fill="#f5f8fa" d="M19.75 20c.64-4.85-2.53-12.04-7.46-11.2 2.05-2.2 4.5-3.3 6.64-2.66 2.14.66 5.6 7.37.8 13.86"/></g><g><path fill="#f5f8fa" d="M19.75 20c4.65-.87 8.23-5.48 6.4-10.13 2.55 1.57 5.1 2.56 4.9 4.8-.18 2.22-3.96 8.66-11.3 5.33"/></g><g><path fill="#f5f8fa" d="M19.75 20c1.54 3.33 8.29 6.25 12.17 3.1-.73 2.9-.74 5.42-2.92 5.9-2.18.48-10.23-1-9.25-9"/></g><g><path fill="#f5f8fa" d="M19.8 19.96C15.9 22 14 28 18 31c-3 0-6 0-7-2s.8-8.04 8.8-9.04"/></g><g><path fill="none" stroke="#dd2e44" stroke-width="3" stroke-miterlimit="10" d="M27.3 12.15C23.16 8 16.4 8 12.26 12.15c-4.16 4.16-4.16 10.9 0 15.06 4.16 4.17 10.9 4.17 15.06 0 4.17-4.15 4.17-10.9 0-15.05z"/></g></g></g></g></svg>