<?xml version="1.0" encoding="UTF-8" standalone="no"?>
<!-- Created with Inkscape (http://www.inkscape.org/) -->

<svg
   xmlns:svg="http://www.w3.org/2000/svg"
   xmlns="http://www.w3.org/2000/svg"
   version="1.1"
   width="47.5"
   height="47.5"
   id="svg2"
   xml:space="preserve"><defs
     id="defs6"><clipPath
       id="clipPath18"><path
         d="M 0,38 38,38 38,0 0,0 0,38 z"
         id="path20" /></clipPath></defs><g
     transform="matrix(1.25,0,0,-1.25,0,47.5)"
     id="g12"><g
       id="g14"><g
         clip-path="url(#clipPath18)"
         id="g16"><g
           transform="translate(10.4414,22.4053)"
           id="g22"><path
             d="m 0,0 c 0.458,1.372 7.41,7.525 13.286,10.22 1.528,0.701 5.188,2.066 6.936,2.503 3.604,0.902 7.747,2.319 5.327,-0.459 -3.525,-4.047 -3.943,-14.015 -8.03,-21.17 -2.68,-4.213 -4.233,-6.423 -10.365,-3.357 C 1.022,-9.198 -2.043,-6.132 0,0"
             id="path24"
             style="fill:#c1694f;fill-opacity:1;fill-rule:nonzero;stroke:none" /></g><g
           transform="translate(23.4912,22.2397)"
           id="g26"><path
             d="m 0,0 c 3.816,-3.768 4.498,-9.263 1.524,-12.276 -2.973,-3.014 -8.477,-2.4 -12.294,1.365 -3.815,3.768 -4.498,9.265 -1.524,12.276 C -9.32,4.378 -3.816,3.767 0,0"
             id="path28"
             style="fill:#f4900c;fill-opacity:1;fill-rule:nonzero;stroke:none" /></g><g
           transform="translate(27.96,30.6226)"
           id="g30"><path
             d="M 0,0 C 1.14,-0.57 2.703,-3.605 2.703,-4.506 2.703,-5.407 1.802,-3.605 0,-1.802 -1.803,0 -1.803,0.901 0,0"
             id="path32"
             style="fill:#8a4b38;fill-opacity:1;fill-rule:nonzero;stroke:none" /></g><g
           transform="translate(28.1406,22.5933)"
           id="g34"><path
             d="M 0,0 C 0.606,-0.578 1.009,-2.787 0.836,-3.354 0.663,-3.921 0.441,-2.615 -0.347,-1.134 -1.136,0.345 -0.962,0.913 0,0"
             id="path36"
             style="fill:#8a4b38;fill-opacity:1;fill-rule:nonzero;stroke:none" /></g><g
           transform="translate(22,5)"
           id="g38"><path
             d="m 0,0 c 0,-2.209 -4.477,-4 -10,-4 -5.523,0 -10,2 -10,4 0,0.371 -0.203,2.6 0.083,2.958 C -18.66,4.531 -14.498,4 -10,4 -5.092,4 -0.867,4.865 -0.021,3 0.086,2.767 0,0.246 0,0"
             id="path40"
             style="fill:#c1694f;fill-opacity:1;fill-rule:nonzero;stroke:none" /></g><g
           transform="translate(22,8)"
           id="g42"><path
             d="m 0,0 c 0,-2.209 -4.477,-4 -10,-4 -5.523,0 -10,1.791 -10,4 0,2.209 4.477,4 10,4 C -4.477,4 0,2.209 0,0"
             id="path44"
             style="fill:#fca43a;fill-opacity:1;fill-rule:nonzero;stroke:none" /></g></g></g></g></svg>