<svg xmlns="http://www.w3.org/2000/svg" viewBox="0 0 47.5 47.5" enable-background="new 0 0 47.5 47.5"><defs><clipPath id="a"><path d="M0 38h38V0H0v38z"/></clipPath></defs><g><g><g clip-path="url(#a)" transform="matrix(1.25 0 0 -1.25 0 47.5)"><g><path fill="#d99e82" d="M34.88 1.77c-.3 0-.63.12-.87.36L3.34 32.83c-.48.47-.48 1.24 0 1.72s1.26.48 1.74 0L35.75 3.87c.48-.48.48-1.26 0-1.74-.24-.24-.55-.36-.87-.36"/></g><g><path fill="#66757f" d="M7.73 33.95c-2.65.54-4.26-1.16-3.58-3.78L6 23.12c.68-2.62 2.8-3.2 4.7-1.28l6.12 6.1c1.9 1.9 1.3 3.9-1.35 4.45l-7.74 1.55z"/></g><g><path fill="#d99e82" d="M23.6 21.03c0-3.73-3-6.76-6.75-6.76-3.73 0-6.76 3.03-6.76 6.76 0 3.74 3.02 6.76 6.75 6.76 3.74 0 6.76-3.03 6.76-6.77"/></g><g><path fill="#ccd6dd" d="M23.05 6.3c-.96-.97-2.52-.97-3.48 0L16.1 9.76c-.96.96-.96 2.52 0 3.48l8.7 8.7c.95.95 2.5.95 3.47 0l3.47-3.5c.96-.95.96-2.5 0-3.47l-8.7-8.7z"/></g><g><path fill="#d99e82" d="M34.88 1.77c-.3 0-.63.12-.87.36l-9.1 9.12c-.48.48-.48 1.26 0 1.74.48.47 1.25.47 1.73 0l9.12-9.13c.48-.48.48-1.26 0-1.74-.24-.24-.55-.36-.87-.36"/></g></g></g></g></svg>