<svg xmlns="http://www.w3.org/2000/svg" viewBox="0 0 47.5 47.5" enable-background="new 0 0 47.5 47.5"><defs><clipPath id="a"><path d="M0 38h38V0H0v38z"/></clipPath></defs><g><g><g clip-path="url(#a)" transform="matrix(1.25 0 0 -1.25 0 47.5)"><g><path fill="#c1694f" d="M10.44 22.4c.46 1.38 7.4 7.53 13.3 10.23 1.52.7 5.18 2.06 6.92 2.5 3.6.9 7.75 2.32 5.33-.46-3.53-4.05-3.95-14.02-8.04-21.17-2.68-4.2-4.23-6.42-10.36-3.36-6.14 3.07-9.2 6.13-7.16 12.27"/></g><g><path fill="#f4900c" d="M23.5 22.24C27.3 18.47 28 12.98 25 9.96c-2.98-3-8.48-2.4-12.3 1.37-3.8 3.77-4.5 9.26-1.52 12.27 2.97 3.02 8.48 2.4 12.3-1.36"/></g><g><path fill="#8a4b38" d="M27.96 30.62c1.14-.57 2.7-3.6 2.7-4.5 0-.9-.9.9-2.7 2.7-1.8 1.8-1.8 2.7 0 1.8"/></g><g><path fill="#8a4b38" d="M28.14 22.6c.6-.58 1-2.8.84-3.36-.18-.57-.4.74-1.2 2.22-.78 1.48-.6 2.05.36 1.13"/></g><g><path fill="#c1694f" d="M22 5c0-2.2-4.48-4-10-4S2 3 2 5c0 .37-.2 2.6.08 2.96C3.34 9.53 7.5 9 12 9c4.9 0 9.13.87 9.98-1 .1-.23.02-2.75.02-3"/></g><g><path fill="#fca43a" d="M22 8c0-2.2-4.48-4-10-4S2 5.8 2 8s4.48 4 10 4 10-1.8 10-4"/></g></g></g></g></svg>