<svg xmlns="http://www.w3.org/2000/svg" viewBox="0 0 47.5 47.5" enable-background="new 0 0 47.5 47.5"><defs><clipPath id="a"><path d="M0 38h38V0H0v38z"/></clipPath></defs><g><g><g clip-path="url(#a)" transform="matrix(1.25 0 0 -1.25 0 47.5)"><g><path fill="#f4900c" d="M32 15C29 4 26.98 1 19 1 11 1 9 4 6 15c-2.04 7.46 2 14 13 14s15.03-6.54 13-14"/></g><g><path fill="#be1931" d="M30 26c2-4-3-8-11-8S6 22 8 26c1.48 2.96 4.37 6 11 6s9.52-3.04 11-6"/></g><g><path fill="#ffac33" d="M31 26c0-4-5.37-6-12-6S7 22 7 26c0 3.3 5.37 6 12 6s12-2.7 12-6"/></g><g><path fill="#ffe8b6" d="M28 27c1-1 2-2 2-3s-1-3-2-2c0 0 2.95-1.15 2-4-1-3-4-2-4 0s-1.55 3.34-2 2c-1-3-3-3-4-2s-1 2-1 2-3 0-2 2 0 2 0 2 0 1 1 1 7 1 8 2 2 0 2 0"/></g><g><path fill="#662113" d="M29 27.72c0-2.6-4.48-4.72-10-4.72S9 25.1 9 27.72C9 30.32 13.48 32 19 32s10-1.67 10-4.28"/></g><g><path fill="#f4900c" d="M19 23c4.55 0 8.38 1.44 9.6 3.4-.2.2-.4.4-.6.6 0 0-2 2-3 1s-6-1-7-1-2-1-2-1 1.6-2 1.4-2.93c.52-.04 1.05-.07 1.6-.07"/></g><g><path fill="#ffcc4d" d="M27 28.5c0-1.93-3.58-3.5-8-3.5s-8 1.57-8 3.5 3.58 5.5 8 5.5 8-3.57 8-5.5"/></g><g><path fill="#f4900c" d="M21 34.5c0-.83-.9-1.5-2-1.5s-2 .67-2 1.5.9 1.5 2 1.5 2-.67 2-1.5"/></g><g><path fill="#ffcc4d" d="M6.7 12.6c.7-2.47 1.4-4.45 2.2-6.02C12 4 17 4 19 4s7 0 10.1 2.58c.8 1.57 1.5 3.55 2.2 6C28.6 11.04 24.1 10 19 10c-5.1 0-9.6 1.03-12.3 2.6"/></g></g></g></g></svg>