<svg xmlns="http://www.w3.org/2000/svg" viewBox="0 0 47.5 47.5" enable-background="new 0 0 47.5 47.5"><defs><clipPath id="a"><path d="M0 38h38V0H0v38z"/></clipPath></defs><g><g><g clip-path="url(#a)" transform="matrix(1.25 0 0 -1.25 0 47.5)"><g><path fill="#d99e82" d="M34.88 1.77c-.32 0-.63.12-.87.36L3.38 32.77c-.48.48-.48 1.26 0 1.74.47.5 1.25.5 1.73 0L35.74 3.88c.48-.48.48-1.26 0-1.74-.24-.24-.55-.36-.87-.36"/></g><g><path fill="#fcb1e3" d="M16.25 28.37c0-3.73-3.02-6.75-6.75-6.75s-6.75 3.02-6.75 6.75 3.02 6.75 6.75 6.75 6.75-3.02 6.75-6.75"/></g><g><path fill="#ffd983" d="M23.62 21c0-3.72-3.02-6.75-6.75-6.75s-6.75 3.03-6.75 6.76c0 3.74 3.02 6.76 6.75 6.76s6.75-3.02 6.75-6.75"/></g><g><path fill="#a6d388" d="M31 13.64c0-3.73-3.04-6.75-6.77-6.75-3.72 0-6.75 3-6.75 6.74 0 3.73 3.03 6.75 6.75 6.75 3.73 0 6.76-3.03 6.76-6.76"/></g><g><path fill="#d99e82" d="M34.88 1.77c-.32 0-.63.12-.87.36l-7.5 7.52c-.5.48-.5 1.26 0 1.74.47.47 1.24.47 1.72 0l7.52-7.53c.48-.48.48-1.26 0-1.74-.24-.24-.55-.36-.87-.36"/></g></g></g></g></svg>