<?xml version="1.0" encoding="UTF-8" standalone="no"?><svg xmlns:svg="http://www.w3.org/2000/svg" xmlns="http://www.w3.org/2000/svg" version="1.1" viewBox="0 0 47.5 47.5" style="enable-background:new 0 0 47.5 47.5;" id="svg2" xml:space="preserve"><defs id="defs6"><clipPath id="clipPath18"><path d="M 0,38 38,38 38,0 0,0 0,38 z" id="path20"/></clipPath><clipPath id="clipPath30"><path d="M 11.075,35.324 2.59,26.839 c -1.561,-1.562 -1.561,-2.681 0,-4.243 l 0,0 19.092,-19.092 c 1.562,-1.562 4.094,-1.562 5.657,0 l 0,0 7.072,7.071 c 1.561,1.562 1.561,4.095 0,5.657 l 0,0 -19.093,19.092 c -0.781,0.781 -1.451,1.172 -2.122,1.172 l 0,0 c -0.67,0 -1.34,-0.391 -2.121,-1.172" id="path32"/></clipPath><clipPath id="clipPath42"><path d="M 0,38 38,38 38,0 0,0 0,38 z" id="path44"/></clipPath><clipPath id="clipPath54"><path d="m 20.268,26.132 -8.485,-8.486 c -1.563,-1.562 -1.563,-4.094 0,-5.657 l 0,0 9.899,-9.899 c 1.562,-1.562 4.094,-1.562 5.657,0 l 0,0 8.485,8.485 c 1.562,1.562 1.562,4.095 0,5.657 l 0,0 -9.9,9.9 c -0.781,0.781 -1.804,1.171 -2.828,1.171 l 0,0 c -1.023,0 -2.047,-0.39 -2.828,-1.171" id="path56"/></clipPath><clipPath id="clipPath66"><path d="M 0,38 38,38 38,0 0,0 0,38 z" id="path68"/></clipPath></defs><g transform="matrix(1.25,0,0,-1.25,0,47.5)" id="g12"><g id="g14"><g clip-path="url(#clipPath18)" id="g16"><g transform="translate(27.3389,3.5039)" id="g22"><path d="m 0,0 c -1.562,-1.562 -4.095,-1.562 -5.657,0 l -19.092,19.092 c -1.562,1.562 -1.562,2.681 0,4.243 l 8.485,8.485 c 1.562,1.562 2.681,1.562 4.243,0 L 7.071,12.729 c 1.562,-1.563 1.562,-4.095 0,-5.658 L 0,0 z" id="path24" style="fill:#c1694f;fill-opacity:1;fill-rule:nonzero;stroke:none"/></g></g></g><g id="g26"><g clip-path="url(#clipPath30)" id="g28"><g transform="translate(32.9961,6.333)" id="g34"><path d="m 0,0 -20.299,20.299 5.863,5.864 -1.414,1.414 -5.863,-5.864 -4.451,4.45 -1.414,-1.414 4.451,-4.45 -7.572,-7.571 1.414,-1.415 7.572,7.572 L -1.414,-1.414 0,0 z" id="path36" style="fill:#8a4b38;fill-opacity:1;fill-rule:nonzero;stroke:none"/></g></g></g><g id="g38"><g clip-path="url(#clipPath42)" id="g40"><g transform="translate(27.3389,2.0898)" id="g46"><path d="m 0,0 c -1.562,-1.562 -4.095,-1.562 -5.657,0 l -9.899,9.899 c -1.562,1.563 -1.562,4.095 0,5.658 l 8.485,8.485 c 1.562,1.562 4.094,1.562 5.657,0 l 9.899,-9.899 c 1.562,-1.563 1.562,-4.095 0,-5.658 L 0,0 z" id="path48" style="fill:#dd2e44;fill-opacity:1;fill-rule:nonzero;stroke:none"/></g></g></g><g id="g50"><g clip-path="url(#clipPath54)" id="g52"><g transform="translate(27,27)" id="g58"><path d="m 0,0 -9,-23 -6,3 13,21 2,-1 z" id="path60" style="fill:#be1931;fill-opacity:1;fill-rule:nonzero;stroke:none"/></g></g></g><g id="g62"><g clip-path="url(#clipPath66)" id="g64"><g transform="translate(23.8037,28.2529)" id="g70"><path d="m 0,0 2.121,-2.121 c -0.707,-2.122 -8.485,-15.557 -9.9,-18.385 0,0 -0.707,-2.121 -2.474,-0.353 -1.242,1.241 -3.703,3.702 -5.304,5.303 -0.679,0.679 -0.685,2.143 0,2.828 C -11.982,-9.154 -3.422,-0.593 -2.829,0 -1.415,1.415 0,0 0,0" id="path72" style="fill:#ccd6dd;fill-opacity:1;fill-rule:nonzero;stroke:none"/></g></g></g></g></svg>
