<svg xmlns="http://www.w3.org/2000/svg" viewBox="0 0 47.5 47.5" enable-background="new 0 0 47.5 47.5"><defs><clipPath id="a"><path d="M0 38h38V0H0v38z"/></clipPath><clipPath id="b"><path d="M3.44 21.98c-.18-.07-.33-.18-.44-.33C1.75 20 .38 13.53 4 10c3.56-3.47 6.82-4.3 8.78-4.5.03 0 .1 0 .14 0 2.46 0 18.33 10.76 19.52 13.23 1.37 2.85 1.28 8.4-1.98 10.3-.4.23-.9.34-1.63.34-5.58 0-24.58-7.1-25.4-7.4"/></clipPath><clipPath id="c"><path d="M0 38h38V0H0v38z"/></clipPath></defs><g><g><g clip-path="url(#a)" transform="matrix(1.25 0 0 -1.25 0 47.5)"><g><path fill="#eee" d="M12.92 5.5c-.04 0-.1 0-.14 0C10.82 5.7 6.75 6.88 4 11c-2 3-2.25 9-1 10.65.1.15.26.26.44.33.8.3 19.8 7.4 25.4 7.4.7 0 1.23-.12 1.62-.35 3.26-1.9 3.35-7.45 1.98-10.3C31.24 16.26 15.38 5.5 12.92 5.5"/></g></g></g><g><g clip-path="url(#b)" transform="matrix(1.25 0 0 -1.25 0 47.5)"><g><path fill="#ccd6dd" d="M14 18c-1-3-3-14 2-16s24 11.92 22 17.46C36 25 31 30 27 27c-4-3-13-9-13-9"/></g></g></g><g><g clip-path="url(#c)" transform="matrix(1.25 0 0 -1.25 0 47.5)"><g><path fill="#a0041e" d="M33.02 30.48c-.23.2-.54.3-.85.26L2.8 25.9c-.5-.08-.85-.5-.84-1 .03-1.02.02-1.76 0-2.58 0-.46 0-.95 0-1.53 0-.3.13-.6.36-.78 2.03-1.68 8.7-6.15 10.23-6.9.14-.08.3-.12.45-.12.22 0 .43.07.6.2 2.57 1.97 16.5 9.94 18.67 10.88.34.15.57.47.6.83.13 1.38.46 4.75.46 4.75.03.3-.08.62-.3.83"/></g><g><path fill="#dd2e44" d="M33.09 30.4c-2.04 2.3-9.64 5.58-10.93 5.64-.08 0-.16 0-.24-.02-10.1-2-16.72-7.8-19.2-9.98l-.42-.37c-.23-.2-.35-.5-.34-.8 0-.3.17-.6.42-.77.33-.24 8.3-5.96 10.25-7.05.16-.1.33-.13.5-.13.23 0 .47.08.66.25 3.9 3.5 17.1 10.96 18.9 11.64.3.13.53.4.6.7.08.33 0 .66-.22.9"/></g><g><path fill="none" stroke="#ea596e" stroke-width="2" stroke-miterlimit="10" d="M8.42 28.42c.87-2.67 1.33-5.42 1.75-7.84" stroke-linecap="round" stroke-linejoin="round"/></g><g><path fill="none" stroke="#ea596e" stroke-width="2" stroke-miterlimit="10" d="M13.96 31.83c1.04-2.83 2.17-9.33 2.25-11" stroke-linecap="round" stroke-linejoin="round"/></g><g><path fill="none" stroke="#ea596e" stroke-width="2" stroke-miterlimit="10" d="M20 34c1-3 1.6-7.76 1.83-9.38" stroke-linecap="round" stroke-linejoin="round"/></g><g><path fill="none" stroke="#ea596e" stroke-width="2" stroke-miterlimit="10" d="M26.46 32.96c.5-1.42.83-2.83 1.04-4.92" stroke-linecap="round" stroke-linejoin="round"/></g><g><path fill="#292f33" d="M33.14 14c-1.72 1.24-4.06 2-6.64 2s-4.92-.77-6.64-2H17V9c0-3.86 4.26-7 9.5-7S36 5.14 36 9v5h-2.86z"/></g><g><path fill="#292f33" d="M26.5 21c-5.24 0-9.5-3.14-9.5-7s4.26-7 9.5-7 9.5 3.14 9.5 7-4.26 7-9.5 7"/></g><g><path fill="#e1e8ed" d="M33.58 14c0-2.76-3.17-5-7.08-5-3.9 0-7.08 2.24-7.08 5s3.17 5 7.08 5c3.9 0 7.08-2.24 7.08-5"/></g><g><path fill="none" stroke="#e1e8ed" stroke-width="1.667" stroke-miterlimit="10" d="M33.58 14c0-2.76-3.17-5-7.08-5-3.9 0-7.08 2.24-7.08 5s3.17 5 7.08 5c3.9 0 7.08-2.24 7.08-5z" stroke-linecap="round" stroke-linejoin="round"/></g><g><path fill="#77b255" d="M22.2 14.46c0 .42 1.82.33 4.3.33 2.48 0 4.2.54 4.2.12 0-1.78-1.7-3.55-4.2-3.55s-4.3 1.3-4.3 3.1"/></g><g><path fill="none" stroke="#77b255" stroke-miterlimit="10" d="M22.2 14.46c0 .42 1.82.33 4.3.33 2.48 0 4.2.54 4.2.12 0-1.78-1.7-3.55-4.2-3.55s-4.3 1.3-4.3 3.1z"/></g><g><path fill="#f4900c" d="M31 15s-2 1-5 0c-2.36-.8-4-2.56-4-.79 0 1.8 2 3.23 4.5 3.23C28.98 17.43 31 16 31 15"/></g><g><path fill="none" stroke="#f4900c" stroke-miterlimit="10" d="M31 15s-2 1-5 0c-2.36-.8-4-2.56-4-.79 0 1.8 2 3.23 4.5 3.23C28.98 17.43 31 16 31 15z" stroke-linecap="round" stroke-linejoin="round"/></g></g></g></g></svg>