<svg xmlns="http://www.w3.org/2000/svg" viewBox="0 0 47.5 47.5" enable-background="new 0 0 47.5 47.5"><defs><clipPath id="a"><path d="M0 38h38V0H0v38z"/></clipPath></defs><g><g><g clip-path="url(#a)" transform="matrix(1.25 0 0 -1.25 0 47.5)"><g><path fill="#ffac33" d="M34 29.78c0 1.4.72.7 1.42 1.4 1.42 1.43 2.13 3.55.72 4.96-1.42 1.42-3.54.7-4.95-.72-.72-.7 0-1.42-1.42-1.42h-5.66l.7-.7s3.54-4.94 4.25-4.23c-.7-.7 4.23-4.24 4.23-4.24l.7-.7v5.65z"/></g><g><path fill="#ccd6dd" d="M31.9 22l-4.95 4.95L22 31.9c-.7-.7-4.24 0-5.66-1.4l-.7-.72-2.13-2.12-10.88-10.9c-1.57-1.57-1.57-4.1 0-5.66l8.48-8.5c1.56-1.55 4.1-1.55 5.66 0l9.9 9.9 3.12 3.14c.22.2.44.44.7.7 1.42 1.42.7 4.95 1.42 5.66"/></g><g><path fill="#55acee" d="M33.67 22.35c-.98-.97-1.86-1.68-2.83-.7l-9.2 9.2c-.97.97-.26 1.84.7 2.82 1 .97 2.57.97 3.55 0l7.77-7.78c.97-1 .97-2.57 0-3.55"/></g><g><path fill="#99aab5" d="M14 5c-.26 0-.5.1-.7.3-.4.38-.4 1.02 0 1.4l12 12c.38.4 1.02.4 1.4 0 .4-.38.4-1.02 0-1.4l-12-12c-.2-.2-.44-.3-.7-.3"/></g><g><path fill="#99aab5" d="M10 9c-.26 0-.5.1-.7.3-.4.38-.4 1.02 0 1.4l12 12c.38.4 1.02.4 1.4 0 .4-.38.4-1.02 0-1.4l-12-12c-.2-.2-.44-.3-.7-.3"/></g><g><path fill="#99aab5" d="M6 13c-.26 0-.5.1-.7.3-.4.38-.4 1.02 0 1.4l12 12c.38.4 1.02.4 1.4 0 .4-.38.4-1.02 0-1.4l-12-12c-.2-.2-.44-.3-.7-.3"/></g></g></g></g></svg>