<svg xmlns="http://www.w3.org/2000/svg" viewBox="0 0 47.5 47.5" enable-background="new 0 0 47.5 47.5"><defs><clipPath id="a"><path d="M0 38h38V0H0v38z"/></clipPath></defs><g><g><g clip-path="url(#a)" transform="matrix(1.25 0 0 -1.25 0 47.5)"><g><path fill="#292f33" d="M32 37H6c-2.2 0-4-1.8-4-4V5c0-2.2 1.8-4 4-4h26c2.2 0 4 1.8 4 4v28c0 2.2-1.8 4-4 4"/></g><g><path fill="#292f33" d="M15 26c0-2.2-1.8-4-4-4h-1c-2.2 0-4 1.8-4 4v2c0 2.2 1.8 4 4 4h1c2.2 0 4-1.8 4-4v-2z"/></g><g><path fill="#be1931" d="M23 10c0-1.1-.9-2-2-2H6c-1.1 0-2 .9-2 2v8c0 1.1.9 2 2 2h15c1.1 0 2-.9 2-2v-8z"/></g><g><path fill="#be1931" d="M34 18c0 1.1-.9 2-2 2h-5c-1.1 0-2-.9-2-2v-8c0-1.1.9-2 2-2h5c1.1 0 2 .9 2 2v8z"/></g><g><path fill="#be1931" d="M17 33c0 1.1.9 2 2 2h13c1.1 0 2-.9 2-2v-9c0-1.1-.9-2-2-2H19c-1.1 0-2 .9-2 2v9z"/></g><g><path fill="#be1931" d="M15 24c0-1.1-.9-2-2-2H6c-1.1 0-2 .9-2 2v9c0 1.1.9 2 2 2h7c1.1 0 2-.9 2-2v-9z"/></g><g><path fill="#dd2e44" d="M15 24c0-1.1-.9-2-2-2H6c-1.1 0-2 .9-2 2v6c0 1.1.9 2 2 2h7c1.1 0 2-.9 2-2v-6z"/></g><g><path fill="#dd2e44" d="M34 24c0-1.1-.9-2-2-2H19c-1.1 0-2 .9-2 2v6c0 1.1.9 2 2 2h13c1.1 0 2-.9 2-2v-6z"/></g><g><path fill="#e1e8ed" d="M23 10c0-1.1-.9-2-2-2H6c-1.1 0-2 .9-2 2v5c0 1.1.9 2 2 2h15c1.1 0 2-.9 2-2v-5z"/></g><g><path fill="#dd2e44" d="M34 10c0-1.1-.9-2-2-2h-5c-1.1 0-2 .9-2 2v5c0 1.1.9 2 2 2h5c1.1 0 2-.9 2-2v-5z"/></g><g><path fill="#ffac33" d="M28 27.76c1.33-1.48 1.92-3.1 1.34-3.62l-1.06-.94c-.6-.52-2.13.25-3.44 1.73l-3.57 4.02c-1.32 1.47-1.9 3.1-1.32 3.62l1.05.94c.6.53 2.13-.25 3.44-1.73l3.57-4z"/></g><g><path fill="#ffd983" d="M23.28 25.92c-.6-1.54-1.48-2.63-1.96-2.44l-.88.34c-.48.2-.4 1.6.2 3.13l1.63 4.17c.6 1.54 1.48 2.64 1.96 2.45l.88-.34c.5-.2.4-1.6-.2-3.13l-1.62-4.18z"/></g><g><path fill="#ffd983" d="M24.1 25.46c-1.55-.53-2.95-.56-3.12-.07l-.3.88c-.17.5.96 1.32 2.52 1.86l4.24 1.45c1.56.52 2.96.55 3.13.06l.3-.9c.18-.48-.95-1.3-2.52-1.85l-4.24-1.44z"/></g><g><path fill="#5c913b" d="M7.44 29.13c.38 4.1 4.9.96 7.14-1.05-1.34-1.5-7.6-3.93-7.14 1.05"/></g><g><path fill="#5c913b" d="M7.58 29.22c3.74 1.73 3.3-3.77 2.68-6.7-1.96.4-7.2 4.6-2.68 6.7"/></g><g><path fill="#77b255" d="M6 29c-1.2 1.6 1 5 6 5 1-1-3-9-6-5"/></g><g><path fill="#b2c2cc" d="M7 10c-.26 0-.5.1-.7.3-.4.38-.4 1.02 0 1.4l1 1c.38.4 1.02.4 1.4 0 .4-.38.4-1.02 0-1.4l-1-1c-.2-.2-.44-.3-.7-.3"/></g><g><path fill="#b2c2cc" d="M19.42 9.5c-.26 0-.52.1-.7.3l-1 1c-.4.38-.4 1.02 0 1.4.38.4 1 .4 1.4 0l1-1c.4-.38.4-1.02 0-1.4-.2-.2-.45-.3-.7-.3"/></g><g><path fill="#b2c2cc" d="M13.25 13.8c-.25 0-.5.1-.7.28l-.47.46c-.4.4-.4 1.03 0 1.42.4.4 1.03.4 1.42 0l.46-.46c.4-.4.4-1.02 0-1.4-.2-.2-.45-.3-.7-.3"/></g><g><path fill="#b26304" d="M33.15 13.6c.7-.86.6-2.12-.26-2.83l-2.3-1.92c-.86-.7-2.12-.6-2.83.26l-1.92 2.3c-.7.86-.6 2.12.26 2.83l2.3 1.92c.86.7 2.12.6 2.83-.26l1.92-2.3z"/></g><g><path fill="#f4900c" d="M33.15 15.6c.7-.86.6-2.12-.26-2.83l-2.3-1.92c-.86-.7-2.12-.6-2.83.26l-1.92 2.3c-.7.86-.6 2.12.26 2.83l2.3 1.92c.86.7 2.12.6 2.83-.26l1.92-2.3z"/></g><g><path fill="#ccd6dd" d="M14 11c0-.55-.45-1-1-1s-1 .45-1 1 .45 1 1 1 1-.45 1-1"/></g><g><path fill="#ccd6dd" d="M22 15c0-.55-.45-1-1-1s-1 .45-1 1 .45 1 1 1 1-.45 1-1"/></g></g></g></g></svg>