<svg xmlns="http://www.w3.org/2000/svg" viewBox="0 0 47.5 47.5" enable-background="new 0 0 47.5 47.5"><defs><clipPath id="a"><path d="M0 38h38V0H0v38z"/></clipPath><clipPath id="b"><path d="M0 38h38V0H0v38z"/></clipPath></defs><g><g><g clip-path="url(#a)" transform="matrix(1.25 0 0 -1.25 0 47.5)"><g><path fill="#8899a6" d="M20 16.75s11.46 11.04 12.58 12c1.13.96-.7 2.25-2.95 2.25H7.13c-1.13 0-4.48-.73-2.8-2.42C5.53 27.38 17 16.75 17 16.75V6.62s-4.58-2.34-5.5-2.88c-.98-.56-.33-1.46.06-1.62.66-.26 2.26-1.1 6.8-1.1 4.63 0 6.2.9 6.75 1.1.23.07 1.36.93.02 1.73C22.74 5.25 20 6.62 20 6.62v10.13z"/></g><g><path fill="#ccd6dd" d="M33 29.56c0-1.62-6.55-2.94-14.62-2.94-8.08 0-14.63 1.32-14.63 2.94 0 1.62 6.55 2.93 14.63 2.93 8.07 0 14.62-1.32 14.62-2.94"/></g><g><path fill="#ccd6dd" d="M5.46 29.42c1.26-1.24 8.54-7.24 11.7-9.84.9-.74 2.13-.62 2.8-.12.67.5 11.17 9.58 11.17 9.58l-25.67.38z"/></g></g></g><g><g clip-path="url(#b)" transform="matrix(1.25 0 0 -1.25 0 47.5)"><g><path fill="#662113" d="M17.87 20.47c-.24.12-.05.8.25 1.33l7.44 14.5c.3.54.97.73 1.5.43s.72-.97.42-1.5L18.8 21.35c-.14-.27-.66-1.02-.93-.88"/></g><g><path fill="#5c913b" d="M22.75 29.14c1.13-.63 2-2.63 1.2-4.04-.8-1.4-2.96-1.7-4.1-1.06-1.12.64-2.06 2.5-1.2 4.05.87 1.52 2.96 1.68 4.1 1.04"/></g><g><path fill="#fff" d="M17.8 26.24c-3.78 0-7.36.5-10.74 1.47l-.13.05c-.53.15-.84.7-.68 1.24.15.52.7.82 1.24.67l.12-.04c6.53-1.9 13.94-1.85 22.02.13.54.13 1.07-.2 1.2-.73.14-.54-.2-1.08-.73-1.2-4.27-1.06-8.4-1.6-12.3-1.6"/></g></g></g></g></svg>