<svg xmlns="http://www.w3.org/2000/svg" viewBox="0 0 47.5 47.5" enable-background="new 0 0 47.5 47.5"><defs><clipPath id="a"><path d="M0 38h38V0H0v38z"/></clipPath></defs><g><g><g clip-path="url(#a)" transform="matrix(1.25 0 0 -1.25 0 47.5)"><g><path fill="#8899a6" d="M20 16.75s10.04 2.2 10.04 16c0 1.48-1.16 2.25-3.4 2.25H10.12C9 35 6.8 35.26 6.8 32.88 6.8 19.18 17 16.75 17 16.75V6.62s-4.58-2.34-5.5-2.88c-.98-.56-.33-1.46.06-1.62.66-.26 2.26-1.1 6.8-1.1 4.63 0 6.2.9 6.75 1.1.23.07 1.36.93.02 1.73C22.74 5.25 20 6.62 20 6.62v10.13z"/></g><g><path fill="#ccd6dd" d="M30 33.56c0-1.62-3.55-2.94-11.62-2.94-8.08 0-11.63 1.32-11.63 2.94 0 1.62 3.55 2.93 11.63 2.93 8.07 0 11.62-1.32 11.62-2.94"/></g><g><path fill="#ccd6dd" d="M8.46 33.42c2.04-9.5 5.46-12.8 8.7-13.84 1.1-.36 2.02-.43 2.8-.12 3.5 1.37 7.54 5.66 8.17 13.58.16 2.04-19.67.38-19.67.38"/></g><g><path fill="#a0041e" d="M10 27.5c0-3.5 3.33-8.5 8.33-8.5S27 24.46 27 27.46c-6 0-17 .04-17 .04"/></g><g><path fill="#dd2e44" d="M27 27.5c0-.83-3.8-1.5-8.5-1.5s-8.5.67-8.5 1.5 3.8 1.5 8.5 1.5 8.5-.67 8.5-1.5"/></g><g><path fill="#fff" d="M18.17 30.34c-5.03 0-8.8 1.1-9.8 1.6-.5.22-.72.82-.48 1.32.22.5.82.7 1.32.48 1.23-.58 9.45-2.9 18.6.13.5.17 1.08-.12 1.25-.64.18-.52-.1-1.1-.63-1.26-3.68-1.22-7.2-1.63-10.27-1.63"/></g></g></g></g></svg>