<?xml version="1.0" encoding="UTF-8" standalone="no"?><svg xmlns:dc="http://purl.org/dc/elements/1.1/" xmlns:cc="http://creativecommons.org/ns#" xmlns:rdf="http://www.w3.org/1999/02/22-rdf-syntax-ns#" xmlns:svg="http://www.w3.org/2000/svg" xmlns="http://www.w3.org/2000/svg" viewBox="0 0 47.5 47.5" style="enable-background:new 0 0 47.5 47.5;" xml:space="preserve" version="1.1" id="svg2"><metadata id="metadata8"><rdf:RDF><cc:Work rdf:about=""><dc:format>image/svg+xml</dc:format><dc:type rdf:resource="http://purl.org/dc/dcmitype/StillImage"/></cc:Work></rdf:RDF></metadata><defs id="defs6"><clipPath id="clipPath16" clipPathUnits="userSpaceOnUse"><path id="path18" d="M 0,38 38,38 38,0 0,0 0,38 Z"/></clipPath><clipPath id="clipPath28" clipPathUnits="userSpaceOnUse"><path id="path30" d="M 4.523,33 C 3.682,33 3,32.318 3,31.477 l 0,0 L 3,9 C 3,8.159 4.159,7 5,7 L 5,7 18.478,7 C 19.318,7 20,7.682 20,8.522 l 0,0 0,22.955 C 20,32.318 19.318,33 18.478,33 l 0,0 -13.955,0 z"/></clipPath><clipPath id="clipPath40" clipPathUnits="userSpaceOnUse"><path id="path42" d="M 0,38 38,38 38,0 0,0 0,38 Z"/></clipPath><clipPath id="clipPath68" clipPathUnits="userSpaceOnUse"><path id="path70" d="M 15.522,27 C 14.682,27 14,26.319 14,25.477 l 0,0 0,-22.954 C 14,1.681 14.682,1 15.522,1 l 0,0 13.956,0 C 30.318,1 31,1.681 31,2.523 l 0,0 0,22.954 C 31,26.319 30.318,27 29.478,27 l 0,0 -13.956,0 z"/></clipPath><clipPath id="clipPath80" clipPathUnits="userSpaceOnUse"><path id="path82" d="M 0,38 38,38 38,0 0,0 0,38 Z"/></clipPath></defs><g transform="matrix(1.25,0,0,-1.25,0,47.5)" id="g10"><g id="g12"><g clip-path="url(#clipPath16)" id="g14"><g transform="translate(20,8.5225)" id="g20"><path id="path22" style="fill:#ffcc4d;fill-opacity:1;fill-rule:nonzero;stroke:none" d="m 0,0 c 0,-0.841 -0.682,-1.522 -1.522,-1.522 l -13.478,0 c -1,0 -2,0.681 -2,1.855 l 0,22.955 c 0,0.508 0.682,1.19 1.522,1.19 l 13.956,0 C -0.682,24.478 0,23.796 0,22.955 L 0,0 Z"/></g></g></g><g id="g24"><g clip-path="url(#clipPath28)" id="g26"><g transform="translate(18.5117,30.4316)" id="g32"><path id="path34" style="fill:#ffac33;fill-opacity:1;fill-rule:nonzero;stroke:none" d="m 0,0 c -1.021,0 -1.875,-0.673 -2.168,-1.597 -0.158,0.044 -0.324,0.075 -0.497,0.075 -0.446,0 -0.853,-0.161 -1.177,-0.418 -0.173,1.518 -1.446,2.702 -3.011,2.702 -1.502,0 -2.745,-1.092 -2.993,-2.524 -0.236,0.15 -0.513,0.24 -0.814,0.24 -0.379,0 -0.722,-0.145 -0.989,-0.374 -0.454,1.111 -1.542,1.896 -2.817,1.896 -1.682,0 -3.046,3.807 -3.046,-3.045 0,-1.682 1.364,-3.046 3.046,-3.046 1.275,0 2.363,0.785 2.817,1.897 0.267,-0.23 0.61,-0.374 0.989,-0.374 0.515,0 0.97,0.257 1.245,0.65 0.541,-0.847 1.483,-1.412 2.562,-1.412 0.991,0 1.863,0.481 2.418,1.213 0.278,-0.708 0.963,-1.213 1.77,-1.213 0.723,0 1.343,0.408 1.666,1.001 0.303,-0.149 0.639,-0.239 0.999,-0.239 1.262,0 2.284,1.023 2.284,2.284 C 2.284,1.523 1.262,0 0,0"/></g></g></g><g id="g36"><g clip-path="url(#clipPath40)" id="g38"><g transform="translate(12,10)" id="g44"><path id="path46" style="fill:#ffac33;fill-opacity:1;fill-rule:nonzero;stroke:none" d="m 0,0 c -0.552,0 -1,0.447 -1,1 l 0,11 c 0,0.552 0.448,1 1,1 0.552,0 1,-0.448 1,-1 L 1,1 C 1,0.447 0.552,0 0,0"/></g><g transform="translate(7,10)" id="g48"><path id="path50" style="fill:#ffac33;fill-opacity:1;fill-rule:nonzero;stroke:none" d="m 0,0 c -0.552,0 -1,0.447 -1,1 l 0,11 c 0,0.552 0.448,1 1,1 0.552,0 1,-0.448 1,-1 L 1,1 C 1,0.447 0.552,0 0,0"/></g><g transform="translate(21,32)" id="g52"><path id="path54" style="fill:#ccd6dd;fill-opacity:1;fill-rule:nonzero;stroke:none" d="m 0,0 c 0,2 -1,3 -3,3 l -14,0 c -2,0 -3,-1 -3,-3 l 0,-1.568 c 0,-0.073 0.012,-0.143 0.021,-0.213 -0.013,-0.387 -0.021,-0.818 -0.021,-1.31 0,-1.682 1.364,-3.045 3.045,-3.045 1.275,0 2.364,0.785 2.818,1.896 0.266,-0.23 0.61,-0.374 0.989,-0.374 0.515,0 0.969,0.258 1.245,0.65 0.541,-0.846 1.483,-1.411 2.562,-1.411 0.99,0 1.862,0.48 2.418,1.213 0.277,-0.709 0.963,-1.213 1.77,-1.213 0.722,0 1.342,0.407 1.666,1 0.302,-0.148 0.638,-0.239 0.999,-0.239 1.261,0 2.488,1.353 2.488,2.614 0,0.235 0.01,-0.196 0,0 0.004,0.039 0,0.392 0,0.432 L 0,0 Z"/></g><g transform="translate(28,21)" id="g56"><path id="path58" style="fill:#ffac33;fill-opacity:1;fill-rule:nonzero;stroke:none" d="m 0,0 0,-12 4.557,0 c 0,0 1.443,0.204 1.443,1.727 L 6,-2 C 6,-1 6,0 4,0 L 0,0 Z M 9,-11.955 C 9,-13.637 7.637,-15 5.954,-15 l -5.908,0 C -1.637,-15 -3,-13.637 -3,-11.955 l 0,11.91 C -3,1.637 -1.637,3 0.046,3 L 5.954,3 C 7.637,3 9,1.637 9,-0.045 l 0,-11.91 z"/></g><g transform="translate(31,3)" id="g60"><path id="path62" style="fill:#ffcc4d;fill-opacity:1;fill-rule:nonzero;stroke:none" d="m 0,0 c 0,-1 -1,-2 -2,-2 l -13,0 c -1,0 -2,1 -2,2 l 0,22.478 c 0,0.84 0.682,1.522 1.522,1.522 l 13.956,0 C -0.682,24 0,23.318 0,22.478 L 0,0 Z"/></g></g></g><g id="g64"><g clip-path="url(#clipPath68)" id="g66"><g transform="translate(29.5117,24.4316)" id="g72"><path id="path74" style="fill:#ffac33;fill-opacity:1;fill-rule:nonzero;stroke:none" d="m 0,0 c -1.021,0 -1.875,-0.673 -2.168,-1.597 -0.158,0.044 -0.324,0.075 -0.497,0.075 -0.446,0 -0.853,-0.161 -1.177,-0.418 -0.173,1.518 -1.446,2.702 -3.011,2.702 -1.502,0 -2.745,-1.092 -2.993,-2.524 -0.236,0.15 -0.513,0.24 -0.814,0.24 -0.379,0 -0.722,-0.145 -0.989,-0.374 -0.454,1.111 -1.542,1.896 -2.817,1.896 -1.682,0 -3.046,3.807 -3.046,-3.045 0,-1.682 1.364,-3.046 3.046,-3.046 1.275,0 2.363,0.785 2.817,1.897 0.267,-0.23 0.61,-0.374 0.989,-0.374 0.515,0 0.97,0.257 1.245,0.65 0.541,-0.847 1.483,-1.412 2.562,-1.412 0.991,0 1.863,0.481 2.418,1.213 0.278,-0.708 0.963,-1.213 1.77,-1.213 0.723,0 1.343,0.408 1.666,1.001 0.303,-0.149 0.639,-0.239 0.999,-0.239 1.262,0 2.284,1.023 2.284,2.284 C 2.284,1.523 1.262,0 0,0"/></g></g></g><g id="g76"><g clip-path="url(#clipPath80)" id="g78"><g transform="translate(32,26)" id="g84"><path id="path86" style="fill:#e1e8ed;fill-opacity:1;fill-rule:nonzero;stroke:none" d="m 0,0 c 0,2 -1,3 -3,3 l -14,0 c -2,0 -3,-1 -3,-3 l 0,-1.568 c 0,-0.073 0.012,-0.143 0.021,-0.213 -0.013,-0.387 -0.021,-0.818 -0.021,-1.31 0,-1.682 1.364,-3.045 3.045,-3.045 1.275,0 2.364,0.785 2.818,1.896 0.266,-0.23 0.61,-0.374 0.989,-0.374 0.515,0 0.969,0.258 1.245,0.65 0.541,-0.846 1.483,-1.411 2.562,-1.411 0.99,0 1.862,0.48 2.418,1.213 0.277,-0.709 0.963,-1.213 1.77,-1.213 0.722,0 1.342,0.407 1.666,1 0.302,-0.148 0.638,-0.239 0.999,-0.239 1.261,0 2.488,1.353 2.488,2.614 0,0.235 0.01,-0.196 0,0 0.004,0.039 0,0.392 0,0.432 L 0,0 Z"/></g><g transform="translate(17,4)" id="g88"><path id="path90" style="fill:#ffac33;fill-opacity:1;fill-rule:nonzero;stroke:none" d="m 0,0 c -0.552,0 -1,0.447 -1,1 l 0,11 c 0,0.553 0.448,1 1,1 0.552,0 1,-0.447 1,-1 L 1,1 C 1,0.447 0.552,0 0,0"/></g><g transform="translate(27,4)" id="g92"><path id="path94" style="fill:#ffac33;fill-opacity:1;fill-rule:nonzero;stroke:none" d="m 0,0 c -0.553,0 -1,0.447 -1,1 l 0,11 c 0,0.553 0.447,1 1,1 0.553,0 1,-0.447 1,-1 L 1,1 C 1,0.447 0.553,0 0,0"/></g><g transform="translate(22,4)" id="g96"><path id="path98" style="fill:#ffac33;fill-opacity:1;fill-rule:nonzero;stroke:none" d="m 0,0 c -0.553,0 -1,0.447 -1,1 l 0,11 c 0,0.553 0.447,1 1,1 0.553,0 1,-0.447 1,-1 L 1,1 C 1,0.447 0.553,0 0,0"/></g><g transform="translate(23,31)" id="g100"><path id="path102" style="fill:#f4900c;fill-opacity:1;fill-rule:nonzero;stroke:none" d="m 0,0 c -0.553,0 -1,0.448 -1,1 l 0,3 C -1,4.552 -0.553,5 0,5 0.553,5 1,4.552 1,4 L 1,1 C 1,0.448 0.553,0 0,0"/></g><g transform="translate(26,30)" id="g104"><path id="path106" style="fill:#f4900c;fill-opacity:1;fill-rule:nonzero;stroke:none" d="m 0,0 c -0.256,0 -0.512,0.098 -0.707,0.293 -0.391,0.391 -0.391,1.023 0,1.414 l 4,4 c 0.391,0.391 1.023,0.391 1.414,0 0.391,-0.391 0.391,-1.023 0,-1.414 l -4,-4 C 0.512,0.098 0.256,0 0,0"/></g></g></g></g></svg>
