<?xml version="1.0" encoding="UTF-8" standalone="no"?><svg xmlns:dc="http://purl.org/dc/elements/1.1/" xmlns:cc="http://creativecommons.org/ns#" xmlns:rdf="http://www.w3.org/1999/02/22-rdf-syntax-ns#" xmlns:svg="http://www.w3.org/2000/svg" xmlns="http://www.w3.org/2000/svg" viewBox="0 0 47.5 47.5" style="enable-background:new 0 0 47.5 47.5;" xml:space="preserve" version="1.1" id="svg2"><metadata id="metadata8"><rdf:RDF><cc:Work rdf:about=""><dc:format>image/svg+xml</dc:format><dc:type rdf:resource="http://purl.org/dc/dcmitype/StillImage"/></cc:Work></rdf:RDF></metadata><defs id="defs6"><clipPath id="clipPath16" clipPathUnits="userSpaceOnUse"><path id="path18" d="M 0,38 38,38 38,0 0,0 0,38 Z"/></clipPath><clipPath id="clipPath40" clipPathUnits="userSpaceOnUse"><path id="path42" d="M 0,38 38,38 38,0 0,0 0,38 Z"/></clipPath></defs><g transform="matrix(1.25,0,0,-1.25,0,47.5)" id="g10"><g id="g12"><g clip-path="url(#clipPath16)" id="g14"><g transform="translate(37,11)" id="g20"><path id="path22" style="fill:#292f33;fill-opacity:1;fill-rule:nonzero;stroke:none" d="m 0,0 c 0,-5.522 -8.059,-10 -18,-10 -9.941,0 -18,4.478 -18,10 0,5.522 8.059,10 18,10 C -8.059,10 0,5.522 0,0"/></g><g transform="translate(37,13)" id="g24"><path id="path26" style="fill:#66757f;fill-opacity:1;fill-rule:nonzero;stroke:none" d="m 0,0 c 0,-5.522 -8.059,-10 -18,-10 -9.941,0 -18,4.478 -18,10 0,5.522 8.059,10 18,10 C -8.059,10 0,5.522 0,0"/></g><g transform="translate(19,6)" id="g28"><path id="path30" style="fill:#e1e8ed;fill-opacity:1;fill-rule:nonzero;stroke:none" d="m 0,0 c -14.958,0 -17,15 -17,19 l 34,0 C 17,17 15.042,0 0,0"/></g><g transform="translate(36,24.9443)" id="g32"><path id="path34" style="fill:#77b255;fill-opacity:1;fill-rule:nonzero;stroke:none" d="m 0,0 c 0,-5.216 -7.611,-9.444 -17,-9.444 -9.389,0 -17,4.228 -17,9.444 0,5.216 7.611,8.444 17,8.444 C -7.611,8.444 0,5.216 0,0"/></g></g></g><g id="g36"><g clip-path="url(#clipPath40)" id="g38"><g transform="translate(34,24)" id="g44"><path id="path46" style="fill:#a6d388;fill-opacity:1;fill-rule:nonzero;stroke:none" d="m 0,0 c 0,-3.866 -6.716,-7 -15,-7 -8.284,0 -15,3.134 -15,7 0,3.866 6.716,7 15,7 C -6.716,7 0,3.866 0,0"/></g></g></g></g></svg>
