<svg xmlns="http://www.w3.org/2000/svg" viewBox="0 0 47.5 47.5" enable-background="new 0 0 47.5 47.5"><defs><clipPath id="a"><path d="M0 38h38V0H0v38z"/></clipPath><clipPath id="b"><path d="M4.52 33C3.68 33 3 32.32 3 31.48V9c0-.84 1.16-2 2-2h13.48c.84 0 1.52.68 1.52 1.52v22.96c0 .84-.68 1.52-1.52 1.52H4.52z"/></clipPath><clipPath id="c"><path d="M0 38h38V0H0v38z"/></clipPath><clipPath id="d"><path d="M15.52 27c-.84 0-1.52-.68-1.52-1.52V2.52c0-.84.68-1.52 1.52-1.52h13.96c.84 0 1.52.68 1.52 1.52v22.96c0 .84-.68 1.52-1.52 1.52H15.52z"/></clipPath><clipPath id="e"><path d="M0 38h38V0H0v38z"/></clipPath></defs><g><g><g clip-path="url(#a)" transform="matrix(1.25 0 0 -1.25 0 47.5)"><g><path fill="#ffcc4d" d="M20 8.52C20 7.68 19.32 7 18.48 7H5c-1 0-2 .68-2 1.86V31.8c0 .52.68 1.2 1.52 1.2h13.96c.84 0 1.52-.68 1.52-1.52V8.52z"/></g></g></g><g><g clip-path="url(#b)" transform="matrix(1.25 0 0 -1.25 0 47.5)"><g><path fill="#ffac33" d="M18.5 30.43c-1 0-1.86-.67-2.16-1.6-.15.05-.32.08-.5.08-.44 0-.85-.15-1.17-.4-.17 1.5-1.45 2.7-3 2.7-1.5 0-2.76-1.1-3-2.53-.24.15-.52.24-.82.24-.38 0-.72-.14-1-.36-.44 1.1-1.53 1.9-2.8 1.9-1.7 0-3.05 3.8-3.05-3.05 0-1.7 1.36-3.06 3.05-3.06 1.27 0 2.36.8 2.8 1.9.28-.23.62-.38 1-.38.52 0 .97.26 1.25.65.54-.83 1.48-1.4 2.56-1.4 1 0 1.86.48 2.42 1.2.27-.7.96-1.2 1.77-1.2.72 0 1.34.4 1.66 1 .32-.15.65-.24 1-.24 1.27 0 2.3 1.03 2.3 2.3 0 3.8-1.03 2.27-2.3 2.27"/></g></g></g><g><g clip-path="url(#c)" transform="matrix(1.25 0 0 -1.25 0 47.5)"><g><path fill="#ffac33" d="M12 10c-.55 0-1 .45-1 1v11c0 .55.45 1 1 1s1-.45 1-1V11c0-.55-.45-1-1-1"/></g><g><path fill="#ffac33" d="M7 10c-.55 0-1 .45-1 1v11c0 .55.45 1 1 1s1-.45 1-1V11c0-.55-.45-1-1-1"/></g><g><path fill="#ccd6dd" d="M21 32c0 2-1 3-3 3H4c-2 0-3-1-3-3v-1.57c0-.07 0-.14.02-.2 0-.4-.02-.83-.02-1.32 0-1.67 1.36-3.04 3.04-3.04 1.28 0 2.37.8 2.82 1.9.27-.23.6-.37 1-.37.5 0 .96.24 1.24.64.54-.85 1.48-1.42 2.56-1.42 1 0 1.86.48 2.42 1.22.27-.7.96-1.22 1.77-1.22.72 0 1.34.4 1.66 1 .3-.14.65-.23 1-.23 1.27 0 2.5 1.34 2.5 2.6 0 .23 0-.2 0 0 0 .04 0 .4 0 .43V32z"/></g><g><path fill="#ffac33" d="M28 21V9h4.56S34 9.2 34 10.73V19c0 1 0 2-2 2h-4zm9-11.96C37 7.37 35.64 6 33.95 6h-5.9C26.35 6 25 7.36 25 9.04v11.92c0 1.68 1.36 3.04 3.05 3.04h5.9c1.7 0 3.05-1.36 3.05-3.04V9.03z"/></g><g><path fill="#ffcc4d" d="M31 3c0-1-1-2-2-2H16c-1 0-2 1-2 2v22.48c0 .84.68 1.52 1.52 1.52h13.96c.84 0 1.52-.68 1.52-1.52V3z"/></g></g></g><g><g clip-path="url(#d)" transform="matrix(1.25 0 0 -1.25 0 47.5)"><g><path fill="#ffac33" d="M29.5 24.43c-1 0-1.86-.67-2.16-1.6-.15.05-.32.08-.5.08-.44 0-.85-.15-1.17-.4-.17 1.5-1.45 2.7-3 2.7-1.5 0-2.76-1.1-3-2.53-.24.15-.52.24-.82.24-.38 0-.72-.14-1-.36-.44 1.1-1.53 1.9-2.8 1.9-1.7 0-3.05 3.8-3.05-3.05 0-1.7 1.36-3.06 3.05-3.06 1.27 0 2.36.8 2.8 1.9.28-.23.62-.38 1-.38.52 0 .97.26 1.25.65.54-.83 1.48-1.4 2.56-1.4 1 0 1.86.48 2.42 1.2.27-.7.96-1.2 1.77-1.2.72 0 1.34.4 1.66 1 .32-.15.65-.24 1-.24 1.27 0 2.3 1.03 2.3 2.3 0 3.8-1.03 2.27-2.3 2.27"/></g></g></g><g><g clip-path="url(#e)" transform="matrix(1.25 0 0 -1.25 0 47.5)"><g><path fill="#e1e8ed" d="M32 26c0 2-1 3-3 3H15c-2 0-3-1-3-3v-1.57c0-.07 0-.14.02-.2 0-.4-.02-.83-.02-1.32 0-1.67 1.36-3.04 3.04-3.04 1.28 0 2.37.8 2.82 1.9.27-.23.6-.37 1-.37.5 0 .96.24 1.24.64.54-.85 1.48-1.42 2.56-1.42 1 0 1.86.48 2.42 1.22.27-.7.96-1.22 1.77-1.22.72 0 1.34.4 1.66 1 .32-.14.65-.23 1-.23 1.27 0 2.5 1.34 2.5 2.6 0 .23 0-.2 0 0 0 .04 0 .4 0 .43V26z"/></g><g><path fill="#ffac33" d="M17 4c-.55 0-1 .45-1 1v11c0 .55.45 1 1 1s1-.45 1-1V5c0-.55-.45-1-1-1"/></g><g><path fill="#ffac33" d="M27 4c-.55 0-1 .45-1 1v11c0 .55.45 1 1 1s1-.45 1-1V5c0-.55-.45-1-1-1"/></g><g><path fill="#ffac33" d="M22 4c-.55 0-1 .45-1 1v11c0 .55.45 1 1 1s1-.45 1-1V5c0-.55-.45-1-1-1"/></g><g><path fill="#f4900c" d="M23 31c-.55 0-1 .45-1 1v3c0 .55.45 1 1 1s1-.45 1-1v-3c0-.55-.45-1-1-1"/></g><g><path fill="#f4900c" d="M26 30c-.26 0-.5.1-.7.3-.4.38-.4 1.02 0 1.4l4 4c.38.4 1.02.4 1.4 0 .4-.38.4-1.02 0-1.4l-4-4c-.2-.2-.44-.3-.7-.3"/></g></g></g></g></svg>