<svg xmlns="http://www.w3.org/2000/svg" viewBox="0 0 47.5 47.5" enable-background="new 0 0 47.5 47.5"><defs><clipPath id="a"><path d="M0 38h38V0H0v38z"/></clipPath></defs><g><g><g clip-path="url(#a)" transform="matrix(1.25 0 0 -1.25 0 47.5)"><g><path fill="#292f33" d="M35.24 9.07c-.7.7-3.86 2.66-6.94 4.36C30 15.86 31 18.8 31 22c0 8.28-6.72 15-15 15-8.28 0-15-6.72-15-15C1 13.72 7.72 7 16 7c3.16 0 6.1.98 8.5 2.65 1.7-3.08 3.67-6.24 4.37-6.94C30.3 1.3 32 1 33 1c1.18 0 4.05 2.88 4 4-.05 1-.35 2.66-1.76 4.07"/></g><g><path fill="#66757f" d="M28 22c0-6.63-5.37-12-12-12S4 15.37 4 22s5.37 12 12 12 12-5.37 12-12"/></g><g><path fill="#f5f8fa" d="M17 12c4.86 1.53 4 5 4 9s4 6.7.33 9.75c-2.17 1.8-6.75 2.42-8.87 1.63-1.95-.73-4.46-2.2-4.46-5.2s-.06-2.94-1.7-5.64C3.66 17.24 10.12 9.84 17 12"/></g><g><path fill="#ffac33" d="M18 19c0-2.2-1.8-4-4-4s-4 1.8-4 4 1.8 4 4 4 4-1.8 4-4"/></g></g></g></g></svg>