<?xml version="1.0" encoding="UTF-8" standalone="no"?><svg xmlns:svg="http://www.w3.org/2000/svg" xmlns="http://www.w3.org/2000/svg" version="1.1" viewBox="0 0 47.5 47.5" style="enable-background:new 0 0 47.5 47.5;" id="svg2" xml:space="preserve"><defs id="defs6"><clipPath id="clipPath18"><path d="M 0,38 38,38 38,0 0,0 0,38 z" id="path20"/></clipPath></defs><g transform="matrix(1.25,0,0,-1.25,0,47.5)" id="g12"><g id="g14"><g clip-path="url(#clipPath18)" id="g16"><g transform="translate(32,37)" id="g22"><path d="m 0,0 -26,0 c -2.209,0 -4,-1.791 -4,-4 l 0,-6 0,-16 0,-6 c 0,-2.209 1.791,-4 4,-4 l 26,0 c 2.209,0 4,1.791 4,4 l 0,6 0,16 0,6 C 4,-1.791 2.209,0 0,0" id="path24" style="fill:#292f33;fill-opacity:1;fill-rule:nonzero;stroke:none"/></g><g transform="translate(15,26)" id="g26"><path d="m 0,0 c 0,-2.209 -1.791,-4 -4,-4 l -1,0 c -2.209,0 -4,1.791 -4,4 l 0,2 c 0,2.209 1.791,4 4,4 l 1,0 C -1.791,6 0,4.209 0,2 L 0,0 z" id="path28" style="fill:#292f33;fill-opacity:1;fill-rule:nonzero;stroke:none"/></g><g transform="translate(23,10)" id="g30"><path d="m 0,0 c 0,-1.104 -0.896,-2 -2,-2 l -15,0 c -1.104,0 -2,0.896 -2,2 l 0,8 c 0,1.104 0.896,2 2,2 l 15,0 C -0.896,10 0,9.104 0,8 L 0,0 z" id="path32" style="fill:#be1931;fill-opacity:1;fill-rule:nonzero;stroke:none"/></g><g transform="translate(34,18)" id="g34"><path d="M 0,0 C 0,1.104 -0.896,2 -2,2 L -7,2 C -8.104,2 -9,1.104 -9,0 l 0,-8 c 0,-1.104 0.896,-2 2,-2 l 5,0 c 1.104,0 2,0.896 2,2 l 0,8 z" id="path36" style="fill:#be1931;fill-opacity:1;fill-rule:nonzero;stroke:none"/></g><g transform="translate(17,33)" id="g38"><path d="m 0,0 c 0,1.104 0.896,2 2,2 l 13,0 c 1.104,0 2,-0.896 2,-2 l 0,-9 c 0,-1.104 -0.896,-2 -2,-2 l -13,0 c -1.104,0 -2,0.896 -2,2 l 0,9 z" id="path40" style="fill:#be1931;fill-opacity:1;fill-rule:nonzero;stroke:none"/></g><g transform="translate(15,24)" id="g42"><path d="m 0,0 c 0,-1.104 -0.896,-2 -2,-2 l -7,0 c -1.104,0 -2,0.896 -2,2 l 0,9 c 0,1.104 0.896,2 2,2 l 7,0 c 1.104,0 2,-0.896 2,-2 L 0,0 z" id="path44" style="fill:#be1931;fill-opacity:1;fill-rule:nonzero;stroke:none"/></g><g transform="translate(15,24)" id="g46"><path d="m 0,0 c 0,-1.104 -0.896,-2 -2,-2 l -7,0 c -1.104,0 -2,0.896 -2,2 l 0,6 c 0,1.104 0.896,2 2,2 l 7,0 C -0.896,8 0,7.104 0,6 L 0,0 z" id="path48" style="fill:#dd2e44;fill-opacity:1;fill-rule:nonzero;stroke:none"/></g><g transform="translate(34,24)" id="g50"><path d="m 0,0 c 0,-1.104 -0.896,-2 -2,-2 l -13,0 c -1.104,0 -2,0.896 -2,2 l 0,6 c 0,1.104 0.896,2 2,2 L -2,8 C -0.896,8 0,7.104 0,6 L 0,0 z" id="path52" style="fill:#dd2e44;fill-opacity:1;fill-rule:nonzero;stroke:none"/></g><g transform="translate(23,10)" id="g54"><path d="m 0,0 c 0,-1.104 -0.896,-2 -2,-2 l -15,0 c -1.104,0 -2,0.896 -2,2 l 0,5 c 0,1.104 0.896,2 2,2 L -2,7 C -0.896,7 0,6.104 0,5 L 0,0 z" id="path56" style="fill:#e1e8ed;fill-opacity:1;fill-rule:nonzero;stroke:none"/></g><g transform="translate(34,10)" id="g58"><path d="m 0,0 c 0,-1.104 -0.896,-2 -2,-2 l -5,0 c -1.104,0 -2,0.896 -2,2 l 0,5 c 0,1.104 0.896,2 2,2 l 5,0 C -0.896,7 0,6.104 0,5 L 0,0 z" id="path60" style="fill:#dd2e44;fill-opacity:1;fill-rule:nonzero;stroke:none"/></g><g transform="translate(28.0146,27.7598)" id="g62"><path d="M 0,0 C 1.315,-1.478 1.908,-3.098 1.322,-3.619 L 0.264,-4.56 c -0.585,-0.522 -2.126,0.255 -3.441,1.733 l -3.571,4.013 c -1.314,1.479 -1.907,3.099 -1.321,3.62 l 1.059,0.941 c 0.586,0.521 2.124,-0.255 3.439,-1.733 L 0,0 z" id="path64" style="fill:#ffac33;fill-opacity:1;fill-rule:nonzero;stroke:none"/></g><g transform="translate(23.2803,25.9238)" id="g66"><path d="m 0,0 c -0.598,-1.539 -1.477,-2.633 -1.961,-2.444 l -0.877,0.341 c -0.485,0.188 -0.392,1.589 0.205,3.126 l 1.625,4.178 c 0.599,1.538 1.477,2.632 1.962,2.444 L 1.83,7.304 C 2.315,7.115 2.224,5.715 1.625,4.177 L 0,0 z" id="path68" style="fill:#ffd983;fill-opacity:1;fill-rule:nonzero;stroke:none"/></g><g transform="translate(24.1133,25.4639)" id="g70"><path d="m 0,0 c -1.562,-0.535 -2.965,-0.568 -3.133,-0.076 l -0.305,0.891 c -0.168,0.492 0.962,1.324 2.523,1.858 l 4.242,1.45 C 4.889,4.656 6.291,4.69 6.46,4.197 L 6.764,3.308 C 6.933,2.815 5.803,1.983 4.241,1.45 L 0,0 z" id="path72" style="fill:#ffd983;fill-opacity:1;fill-rule:nonzero;stroke:none"/></g><g transform="translate(7.4424,29.127)" id="g74"><path d="M 0,0 C 0.373,4.106 4.907,0.961 7.135,-1.049 5.795,-2.534 -0.452,-4.979 0,0" id="path76" style="fill:#5c913b;fill-opacity:1;fill-rule:nonzero;stroke:none"/></g><g transform="translate(7.5845,29.2158)" id="g78"><path d="M 0,0 C 3.739,1.737 3.293,-3.763 2.672,-6.698 0.716,-6.284 -4.534,-2.108 0,0" id="path80" style="fill:#5c913b;fill-opacity:1;fill-rule:nonzero;stroke:none"/></g><g transform="translate(6,29)" id="g82"><path d="M 0,0 C -1.2,1.6 1,5 6,5 7,4 3,-4 0,0" id="path84" style="fill:#77b255;fill-opacity:1;fill-rule:nonzero;stroke:none"/></g><g transform="translate(7,10)" id="g86"><path d="m 0,0 c -0.256,0 -0.512,0.098 -0.707,0.293 -0.391,0.391 -0.391,1.023 0,1.414 l 1,1 c 0.391,0.391 1.023,0.391 1.414,0 0.391,-0.391 0.391,-1.023 0,-1.414 l -1,-1 C 0.512,0.098 0.256,0 0,0" id="path88" style="fill:#b2c2cc;fill-opacity:1;fill-rule:nonzero;stroke:none"/></g><g transform="translate(19.417,9.501)" id="g90"><path d="m 0,0 c -0.256,0 -0.512,0.098 -0.707,0.293 l -1.001,1 c -0.39,0.391 -0.39,1.023 0,1.414 0.391,0.391 1.024,0.391 1.415,0 l 1,-1 C 1.098,1.316 1.098,0.684 0.707,0.293 0.512,0.098 0.256,0 0,0" id="path92" style="fill:#b2c2cc;fill-opacity:1;fill-rule:nonzero;stroke:none"/></g><g transform="translate(13.2505,13.792)" id="g94"><path d="M 0,0 C -0.255,0 -0.511,0.098 -0.707,0.292 L -1.166,0.75 c -0.39,0.391 -0.391,1.023 -0.001,1.414 0.389,0.392 1.023,0.392 1.415,0.002 L 0.707,1.708 C 1.097,1.317 1.098,0.685 0.708,0.294 0.513,0.098 0.256,0 0,0" id="path96" style="fill:#b2c2cc;fill-opacity:1;fill-rule:nonzero;stroke:none"/></g><g transform="translate(33.1494,13.5879)" id="g98"><path d="m 0,0 c 0.707,-0.848 0.592,-2.109 -0.257,-2.816 l -2.305,-1.921 c -0.847,-0.707 -2.109,-0.592 -2.816,0.257 l -1.921,2.304 c -0.707,0.848 -0.592,2.11 0.257,2.817 l 2.305,1.921 c 0.847,0.707 2.109,0.591 2.816,-0.257 L 0,0 z" id="path100" style="fill:#b26304;fill-opacity:1;fill-rule:nonzero;stroke:none"/></g><g transform="translate(33.1494,15.5879)" id="g102"><path d="m 0,0 c 0.707,-0.848 0.592,-2.109 -0.257,-2.816 l -2.305,-1.921 c -0.847,-0.707 -2.109,-0.592 -2.816,0.257 l -1.921,2.304 c -0.707,0.848 -0.592,2.11 0.257,2.817 l 2.305,1.921 c 0.847,0.707 2.109,0.591 2.816,-0.257 L 0,0 z" id="path104" style="fill:#f4900c;fill-opacity:1;fill-rule:nonzero;stroke:none"/></g><g transform="translate(14,11)" id="g106"><path d="m 0,0 c 0,-0.553 -0.448,-1 -1,-1 -0.552,0 -1,0.447 -1,1 0,0.553 0.448,1 1,1 0.552,0 1,-0.447 1,-1" id="path108" style="fill:#ccd6dd;fill-opacity:1;fill-rule:nonzero;stroke:none"/></g><g transform="translate(22,15)" id="g110"><path d="m 0,0 c 0,-0.553 -0.447,-1 -1,-1 -0.553,0 -1,0.447 -1,1 0,0.553 0.447,1 1,1 0.553,0 1,-0.447 1,-1" id="path112" style="fill:#ccd6dd;fill-opacity:1;fill-rule:nonzero;stroke:none"/></g></g></g></g></svg>
