<?xml version="1.0" encoding="UTF-8" standalone="no"?>
<!-- Created with Inkscape (http://www.inkscape.org/) -->

<svg
   xmlns:svg="http://www.w3.org/2000/svg"
   xmlns="http://www.w3.org/2000/svg"
   version="1.1"
   width="47.5"
   height="47.5"
   id="svg2"
   xml:space="preserve"><defs
     id="defs6"><clipPath
       id="clipPath18"><path
         d="M 0,38 38,38 38,0 0,0 0,38 z"
         id="path20" /></clipPath><clipPath
       id="clipPath38"><path
         d="M 0,38 38,38 38,0 0,0 0,38 z"
         id="path40" /></clipPath></defs><g
     transform="matrix(1.25,0,0,-1.25,0,47.5)"
     id="g12"><g
       id="g14"><g
         clip-path="url(#clipPath18)"
         id="g16"><g
           transform="translate(20,16.7451)"
           id="g22"><path
             d="m 0,0 c 0,0 11.458,11.041 12.583,12.005 1.125,0.964 -0.708,2.25 -2.957,2.25 l -10.124,0 -1.125,0 -1.125,0 -10.123,0 c -1.125,0 -4.483,-0.73 -2.796,-2.417 C -14.463,10.635 -3,0 -3,0 l 0,-10.123 c 0,0 -4.584,-2.34 -5.498,-2.883 -0.984,-0.562 -0.33,-1.462 0.063,-1.617 0.657,-0.258 2.254,-1.102 6.781,-1.102 4.64,0 6.202,0.914 6.764,1.102 0.217,0.072 1.347,0.932 0.011,1.723 C 2.743,-11.492 0,-10.123 0,-10.123 L 0,0 z"
             id="path24"
             style="fill:#8899a6;fill-opacity:1;fill-rule:nonzero;stroke:none" /></g><g
           transform="translate(33,29.5576)"
           id="g26"><path
             d="m 0,0 c 0,-1.621 -6.547,-2.935 -14.623,-2.935 -8.076,0 -14.623,1.314 -14.623,2.935 0,1.622 6.547,2.935 14.623,2.935 C -6.547,2.935 0,1.622 0,0"
             id="path28"
             style="fill:#ccd6dd;fill-opacity:1;fill-rule:nonzero;stroke:none" /></g><g
           transform="translate(5.4585,29.4165)"
           id="g30"><path
             d="m 0,0 c 1.265,-1.232 8.537,-7.235 11.699,-9.835 0.9,-0.742 2.134,-0.623 2.801,-0.123 0.667,0.5 11.167,9.583 11.167,9.583 L 0,0 z"
             id="path32"
             style="fill:#ccd6dd;fill-opacity:1;fill-rule:nonzero;stroke:none" /></g></g></g><g
       id="g34"><g
         clip-path="url(#clipPath38)"
         id="g36"><g
           transform="translate(17.8677,20.4678)"
           id="g42"><path
             d="m 0,0 c -0.237,0.125 -0.05,0.8 0.249,1.328 l 7.448,14.518 c 0.3,0.529 0.97,0.715 1.498,0.416 0.529,-0.299 0.714,-0.969 0.416,-1.498 L 0.943,0.879 C 0.793,0.615 0.27,-0.141 0,0"
             id="path44"
             style="fill:#662113;fill-opacity:1;fill-rule:nonzero;stroke:none" /></g><g
           transform="translate(22.7451,29.1445)"
           id="g46"><path
             d="M 0,0 C 1.133,-0.639 1.996,-2.636 1.2,-4.046 0.403,-5.457 -1.754,-5.745 -2.887,-5.104 -4.019,-4.465 -4.952,-2.59 -4.086,-1.059 -3.221,0.473 -1.133,0.64 0,0"
             id="path48"
             style="fill:#5c913b;fill-opacity:1;fill-rule:nonzero;stroke:none" /></g><g
           transform="translate(17.7969,26.2388)"
           id="g50"><path
             d="m 0,0 c -3.775,0 -7.361,0.49 -10.737,1.471 l -0.129,0.037 c -0.53,0.154 -0.836,0.708 -0.683,1.239 0.153,0.53 0.705,0.836 1.238,0.683 l 0.132,-0.038 C -3.646,1.493 3.764,1.537 11.839,3.524 12.382,3.654 12.918,3.328 13.049,2.792 13.181,2.255 12.854,1.713 12.317,1.582 8.029,0.527 3.914,0 0,0"
             id="path52"
             style="fill:#ffffff;fill-opacity:1;fill-rule:nonzero;stroke:none" /></g></g></g></g></svg>