<?xml version="1.0" encoding="UTF-8" standalone="no"?><svg xmlns:svg="http://www.w3.org/2000/svg" xmlns="http://www.w3.org/2000/svg" version="1.1" viewBox="0 0 47.5 47.5" style="enable-background:new 0 0 47.5 47.5;" id="svg2" xml:space="preserve"><defs id="defs6"><clipPath id="clipPath18"><path d="M 0,38 38,38 38,0 0,0 0,38 z" id="path20"/></clipPath><clipPath id="clipPath46"><path d="M 7,35 C 5.896,35 5,34.105 5,33 L 5,33 5,3 C 5,1.895 5.896,1 7,1 l 0,0 18,0 c 1.105,0 2,0.895 2,2 l 0,0 0,30 c 0,1.105 -0.895,2 -2,2 l 0,0 -18,0 z" id="path48"/></clipPath><clipPath id="clipPath58"><path d="M 0,38 38,38 38,0 0,0 0,38 z" id="path60"/></clipPath></defs><g transform="matrix(1.25,0,0,-1.25,0,47.5)" id="g12"><g id="g14"><g clip-path="url(#clipPath18)" id="g16"><g transform="translate(24,27)" id="g22"><path d="m 0,0 0,-16 6,0 c 0,0 2,0 2,2 L 8,-2 C 8,0 6,0 6,0 L 0,0 z m 8,-20 -8,0 c -2.205,0 -4,1.794 -4,4 l 0,16 c 0,2.206 1.795,4 4,4 l 8,0 c 2.206,0 4,-1.794 4,-4 l 0,-16 c 0,-2.206 -1.794,-4 -4,-4" id="path24" style="fill:#ffac33;fill-opacity:1;fill-rule:nonzero;stroke:none"/></g><g transform="translate(27,29)" id="g26"><path d="m 0,0 c 0,2.209 -1.791,4 -4,4 l -14,0 c -2.209,0 -4,-1.791 -4,-4 l 0,-24 c 0,-2.209 1.791,-4 4,-4 l 14,0 c 2.209,0 4,1.791 4,4 L 0,0 z" id="path28" style="fill:#ffcc4d;fill-opacity:1;fill-rule:nonzero;stroke:none"/></g><g transform="translate(10,4)" id="g30"><path d="m 0,0 c -0.552,0 -1,0.447 -1,1 l 0,16 c 0,0.552 0.448,1 1,1 0.552,0 1,-0.448 1,-1 L 1,1 C 1,0.447 0.552,0 0,0" id="path32" style="fill:#f4900c;fill-opacity:1;fill-rule:nonzero;stroke:none"/></g><g transform="translate(16,4)" id="g34"><path d="m 0,0 c -0.552,0 -1,0.447 -1,1 l 0,16 c 0,0.552 0.448,1 1,1 0.552,0 1,-0.448 1,-1 L 1,1 C 1,0.447 0.552,0 0,0" id="path36" style="fill:#f4900c;fill-opacity:1;fill-rule:nonzero;stroke:none"/></g><g transform="translate(22,4)" id="g38"><path d="m 0,0 c -0.553,0 -1,0.447 -1,1 l 0,16 c 0,0.552 0.447,1 1,1 0.553,0 1,-0.448 1,-1 L 1,1 C 1,0.447 0.553,0 0,0" id="path40" style="fill:#f4900c;fill-opacity:1;fill-rule:nonzero;stroke:none"/></g></g></g><g id="g42"><g clip-path="url(#clipPath46)" id="g44"><g transform="translate(26,31)" id="g50"><path d="M 0,0 C -1.34,0 -2.462,-0.885 -2.847,-2.097 -3.056,-2.04 -3.272,-2 -3.5,-2 -4.087,-2 -4.619,-2.21 -5.046,-2.549 -5.272,-0.555 -6.945,1 -9,1 -10.974,1 -12.604,-0.434 -12.931,-2.315 -13.241,-2.118 -13.606,-2 -14,-2 -14.499,-2 -14.949,-2.189 -15.299,-2.491 -15.896,-1.031 -17.326,0 -19,0 c -2.209,0 -4,5 -4,-4 0,-2.209 1.791,-4 4,-4 1.674,0 3.104,1.031 3.701,2.491 0.35,-0.302 0.8,-0.491 1.299,-0.491 0.677,0 1.273,0.338 1.635,0.853 C -11.655,-6.258 -10.417,-7 -9,-7 c 1.301,0 2.445,0.631 3.176,1.593 C -5.46,-6.338 -4.56,-7 -3.5,-7 c 0.949,0 1.765,0.535 2.188,1.314 C -0.914,-5.881 -0.473,-6 0,-6 1.657,-6 3,-4.657 3,-3 3,2 1.657,0 0,0" id="path52" style="fill:#ffac33;fill-opacity:1;fill-rule:nonzero;stroke:none"/></g></g></g><g id="g54"><g clip-path="url(#clipPath58)" id="g56"><g transform="translate(29,33)" id="g62"><path d="m 0,0 c 0,2 -2,4 -4,4 l -18,0 c -2,0 -4,-2 -4,-4 l 0,-2 c 0,-0.096 0.015,-0.188 0.028,-0.279 C -25.99,-2.788 -26,-3.354 -26,-4 c 0,-2.209 1.791,-4 4,-4 1.674,0 3.104,1.031 3.701,2.491 0.35,-0.302 0.8,-0.491 1.299,-0.491 0.677,0 1.273,0.338 1.635,0.853 C -14.655,-6.258 -13.417,-7 -12,-7 c 1.301,0 2.445,0.631 3.176,1.593 C -8.46,-6.338 -7.56,-7 -6.5,-7 c 0.949,0 1.765,0.535 2.188,1.314 C -3.914,-5.881 -3.473,-6 -3,-6 c 1.657,0 3,1.343 3,3 0,0.309 -0.005,0.59 -0.016,0.848 C -0.012,-2.101 0,-2.052 0,-2 l 0,2 z" id="path64" style="fill:#e1e8ed;fill-opacity:1;fill-rule:nonzero;stroke:none"/></g></g></g></g></svg>
