<?xml version="1.0" encoding="UTF-8" standalone="no"?>
<!-- Created with Inkscape (http://www.inkscape.org/) -->

<svg
   xmlns:svg="http://www.w3.org/2000/svg"
   xmlns="http://www.w3.org/2000/svg"
   version="1.1"
   width="47.5"
   height="47.5"
   id="svg2"
   xml:space="preserve"><defs
     id="defs6"><clipPath
       id="clipPath18"><path
         d="M 0,38 38,38 38,0 0,0 0,38 z"
         id="path20" /></clipPath></defs><g
     transform="matrix(1.25,0,0,-1.25,0,47.5)"
     id="g12"><g
       id="g14"><g
         clip-path="url(#clipPath18)"
         id="g16"><g
           transform="translate(34,29.7783)"
           id="g22"><path
             d="M 0,0 C 0,1.414 0.717,0.707 1.424,1.414 2.84,2.828 3.552,4.95 2.138,6.364 0.723,7.778 -1.396,7.061 -2.811,5.646 -3.518,4.939 -2.808,4.222 -4.222,4.222 l -5.657,0 0.707,-0.698 c 0,0 3.536,-4.944 4.243,-4.236 -0.707,-0.708 4.232,-4.24 4.232,-4.24 L 0,-5.657 0,0 z"
             id="path24"
             style="fill:#ffac33;fill-opacity:1;fill-rule:nonzero;stroke:none" /></g><g
           transform="translate(31.8994,22)"
           id="g26"><path
             d="m 0,0 -4.949,4.95 -4.95,4.949 c -0.707,-0.707 -4.243,0 -5.657,-1.414 L -16.263,7.778 -18.385,5.657 -29.284,-5.242 c -1.562,-1.563 -1.562,-4.096 0,-5.657 l 8.485,-8.486 c 1.562,-1.561 4.095,-1.561 5.657,0 l 9.9,9.9 3.121,3.121 c 0.217,0.217 0.446,0.447 0.707,0.707 C 0,-4.242 -0.707,-0.707 0,0"
             id="path28"
             style="fill:#ccd6dd;fill-opacity:1;fill-rule:nonzero;stroke:none" /></g><g
           transform="translate(33.667,22.3535)"
           id="g30"><path
             d="m 0,0 c -0.977,-0.977 -1.852,-1.684 -2.828,-0.707 l -9.193,9.192 c -0.976,0.977 -0.269,1.852 0.708,2.829 0.976,0.976 2.558,0.976 3.535,0 L 0,3.536 C 0.977,2.559 0.977,0.977 0,0"
             id="path32"
             style="fill:#55acee;fill-opacity:1;fill-rule:nonzero;stroke:none" /></g><g
           transform="translate(14,5)"
           id="g34"><path
             d="m 0,0 c -0.256,0 -0.512,0.098 -0.707,0.293 -0.391,0.391 -0.391,1.023 0,1.414 l 12,12.001 c 0.391,0.39 1.023,0.39 1.414,0 0.391,-0.391 0.391,-1.024 0,-1.415 l -12,-12 C 0.512,0.098 0.256,0 0,0"
             id="path36"
             style="fill:#99aab5;fill-opacity:1;fill-rule:nonzero;stroke:none" /></g><g
           transform="translate(10,9)"
           id="g38"><path
             d="m 0,0 c -0.256,0 -0.512,0.098 -0.707,0.293 -0.391,0.391 -0.391,1.023 0,1.414 l 12,12.001 c 0.391,0.39 1.023,0.39 1.414,0 0.391,-0.391 0.391,-1.024 0,-1.415 l -12,-12 C 0.512,0.098 0.256,0 0,0"
             id="path40"
             style="fill:#99aab5;fill-opacity:1;fill-rule:nonzero;stroke:none" /></g><g
           transform="translate(6,13)"
           id="g42"><path
             d="m 0,0 c -0.256,0 -0.512,0.098 -0.707,0.293 -0.391,0.391 -0.391,1.023 0,1.414 l 12,12.001 c 0.391,0.39 1.023,0.39 1.414,0 0.391,-0.391 0.391,-1.024 0,-1.415 l -12,-12 C 0.512,0.098 0.256,0 0,0"
             id="path44"
             style="fill:#99aab5;fill-opacity:1;fill-rule:nonzero;stroke:none" /></g></g></g></g></svg>