<svg xmlns="http://www.w3.org/2000/svg" viewBox="0 0 47.5 47.5" enable-background="new 0 0 47.5 47.5"><defs><clipPath id="a"><path d="M0 38h38V0H0v38z"/></clipPath><clipPath id="b"><path d="M7 35c-1.1 0-2-.9-2-2V3c0-1.1.9-2 2-2h18c1.1 0 2 .9 2 2v30c0 1.1-.9 2-2 2H7z"/></clipPath><clipPath id="c"><path d="M0 38h38V0H0v38z"/></clipPath></defs><g><g><g clip-path="url(#a)" transform="matrix(1.25 0 0 -1.25 0 47.5)"><g><path fill="#ffac33" d="M24 27V11h6s2 0 2 2v12c0 2-2 2-2 2h-6zm8-20h-8c-2.2 0-4 1.8-4 4v16c0 2.2 1.8 4 4 4h8c2.2 0 4-1.8 4-4V11c0-2.2-1.8-4-4-4"/></g><g><path fill="#ffcc4d" d="M27 29c0 2.2-1.8 4-4 4H9c-2.2 0-4-1.8-4-4V5c0-2.2 1.8-4 4-4h14c2.2 0 4 1.8 4 4v24z"/></g><g><path fill="#f4900c" d="M10 4c-.55 0-1 .45-1 1v16c0 .55.45 1 1 1s1-.45 1-1V5c0-.55-.45-1-1-1"/></g><g><path fill="#f4900c" d="M16 4c-.55 0-1 .45-1 1v16c0 .55.45 1 1 1s1-.45 1-1V5c0-.55-.45-1-1-1"/></g><g><path fill="#f4900c" d="M22 4c-.55 0-1 .45-1 1v16c0 .55.45 1 1 1s1-.45 1-1V5c0-.55-.45-1-1-1"/></g></g></g><g><g clip-path="url(#b)" transform="matrix(1.25 0 0 -1.25 0 47.5)"><g><path fill="#ffac33" d="M26 31c-1.34 0-2.46-.89-2.85-2.1-.2.06-.42.1-.65.1-.6 0-1.12-.2-1.55-.55-.22 2-1.9 3.55-3.95 3.55-1.97 0-3.6-1.43-3.93-3.31-.3.18-.68.3-1.07.3-.5 0-.95-.2-1.3-.5C10.1 29.98 8.67 31 7 31c-2.2 0-4 5-4-4 0-2.2 1.8-4 4-4 1.67 0 3.1 1.03 3.7 2.5.35-.3.8-.5 1.3-.5.68 0 1.27.34 1.64.85.7-1.1 1.94-1.85 3.36-1.85 1.3 0 2.44.63 3.18 1.6.36-.94 1.26-1.6 2.32-1.6.95 0 1.76.54 2.2 1.3.4-.18.83-.3 1.3-.3 1.66 0 3 1.34 3 3 0 5-1.34 3-3 3"/></g></g></g><g><g clip-path="url(#c)" transform="matrix(1.25 0 0 -1.25 0 47.5)"><g><path fill="#e1e8ed" d="M29 33c0 2-2 4-4 4H7c-2 0-4-2-4-4v-2c0-.1 0-.2.03-.28C3 30.22 3 29.65 3 29c0-2.2 1.8-4 4-4 1.67 0 3.1 1.03 3.7 2.5.35-.3.8-.5 1.3-.5.68 0 1.27.34 1.64.85.7-1.1 1.94-1.85 3.36-1.85 1.3 0 2.44.63 3.18 1.6.36-.94 1.26-1.6 2.32-1.6.95 0 1.76.54 2.2 1.3.4-.18.83-.3 1.3-.3 1.66 0 3 1.34 3 3 0 .3 0 .6-.02.85 0 .05.02.1.02.15v2z"/></g></g></g></g></svg>