<?xml version="1.0" encoding="UTF-8" standalone="no"?><svg xmlns:dc="http://purl.org/dc/elements/1.1/" xmlns:cc="http://creativecommons.org/ns#" xmlns:rdf="http://www.w3.org/1999/02/22-rdf-syntax-ns#" xmlns:svg="http://www.w3.org/2000/svg" xmlns="http://www.w3.org/2000/svg" viewBox="0 0 47.5 47.5" style="enable-background:new 0 0 47.5 47.5;" xml:space="preserve" version="1.1" id="svg2"><metadata id="metadata8"><rdf:RDF><cc:Work rdf:about=""><dc:format>image/svg+xml</dc:format><dc:type rdf:resource="http://purl.org/dc/dcmitype/StillImage"/></cc:Work></rdf:RDF></metadata><defs id="defs6"><clipPath id="clipPath16" clipPathUnits="userSpaceOnUse"><path id="path18" d="M 0,38 38,38 38,0 0,0 0,38 Z"/></clipPath></defs><g transform="matrix(1.25,0,0,-1.25,0,47.5)" id="g10"><g id="g12"><g clip-path="url(#clipPath16)" id="g14"><g transform="translate(37,12)" id="g20"><path id="path22" style="fill:#939598;fill-opacity:1;fill-rule:nonzero;stroke:none" d="m 0,0 c 0,-5.522 -8.059,-10 -18,-10 -9.941,0 -18,4.478 -18,10 0,5.522 8.059,10 18,10 C -8.059,10 0,5.522 0,0"/></g><g transform="translate(37,14)" id="g24"><path id="path26" style="fill:#f1f2f2;fill-opacity:1;fill-rule:nonzero;stroke:none" d="m 0,0 c 0,-5.522 -8.059,-10 -18,-10 -9.941,0 -18,4.478 -18,10 0,5.522 8.059,10 18,10 C -8.059,10 0,5.522 0,0"/></g><g transform="translate(33.7998,14.3887)" id="g28"><path id="path30" style="fill:#ffffff;fill-opacity:1;fill-rule:nonzero;stroke:none" d="m 0,0 c 0,-4.202 -6.626,-7.611 -14.8,-7.611 -8.174,0 -14.8,3.409 -14.8,7.611 0,4.203 6.626,7.611 14.8,7.611 C -6.626,7.611 0,4.203 0,0"/></g><g transform="translate(9,9)" id="g32"><path id="path34" style="fill:#e1e8ed;fill-opacity:1;fill-rule:nonzero;stroke:none" d="m 0,0 c 0,3.044 0.417,7.208 0.042,13.875 0.6,1.376 6.146,2.472 6.625,3.792 C 7.954,21.213 5.458,23.583 8,26 c 2.05,1.949 5,2 6,-1 2,2 6,1 6,-2 4,1 6,-3 3,-6 C 23,16 22,8 22,6 22,4 21.792,4.208 16.792,3.208 11.792,2.208 0,0 0,0"/></g><g transform="translate(9,10)" id="g36"><path id="path38" style="fill:#ffac33;fill-opacity:1;fill-rule:nonzero;stroke:none" d="m 0,0 0,12 c 0,0 21,7 21,2.458 L 21,4 0,0 Z"/></g><g transform="translate(9,11)" id="g40"><path id="path42" style="fill:#ffd983;fill-opacity:1;fill-rule:nonzero;stroke:none" d="m 0,0 0,10 c 0,0 12.375,4.208 20,4 L 20,4 0,0 Z"/></g><g transform="translate(9,16)" id="g44"><path id="path46" style="fill:#ffac33;fill-opacity:1;fill-rule:nonzero;stroke:none" d="M 0,0 0,1 21,5 21,4 0,0 Z"/></g><g transform="translate(9,23)" id="g48"><path id="path50" style="fill:#e1e8ed;fill-opacity:1;fill-rule:nonzero;stroke:none" d="M 0,0 9,9 C 11,9 17,8 20,4 10.128,2.025 10.128,2.025 0,0"/></g><g transform="translate(31,27)" id="g52"><path id="path54" style="fill:#ffffff;fill-opacity:1;fill-rule:nonzero;stroke:none" d="m 0,0 c 1,1 1,5 -3,4 0,1 -2,4 -5,2 0,1 -5,2 -6,0 C -4,3 0,0 0,0"/></g><g transform="translate(18.9585,26.5415)" id="g56"><path id="path58" style="fill:#dd2e44;fill-opacity:1;fill-rule:nonzero;stroke:none" d="m 0,0 c -1.833,0.208 -4.417,1.083 -3.917,3.5 0.5,2.417 2.474,4.881 3.75,5.542 C 0.958,9.625 2.159,9.199 3.042,5.792 3.625,3.542 5.792,0.667 1.375,0.042 0.917,0.042 0,0 0,0"/></g><g transform="translate(19.3755,31.9585)" id="g60"><path id="path62" style="fill:#f4abba;fill-opacity:1;fill-rule:nonzero;stroke:none" d="m 0,0 c -0.152,0 -0.302,0.069 -0.4,0.2 l -0.5,0.667 c -0.166,0.22 -0.121,0.534 0.099,0.699 0.221,0.167 0.534,0.122 0.7,-0.1 L 0.399,0.8 C 0.565,0.579 0.521,0.266 0.3,0.1 0.209,0.033 0.104,0 0,0"/></g><g transform="translate(16.959,28.4585)" id="g64"><path id="path66" style="fill:#f4abba;fill-opacity:1;fill-rule:nonzero;stroke:none" d="m 0,0 c -0.042,0 -0.084,0.005 -0.127,0.016 -0.267,0.07 -0.427,0.343 -0.357,0.61 l 0.25,0.958 C -0.165,1.852 0.11,2.011 0.376,1.942 0.643,1.872 0.803,1.599 0.733,1.332 L 0.483,0.374 C 0.425,0.149 0.222,0 0,0"/></g><g transform="translate(21.333,28.375)" id="g68"><path id="path70" style="fill:#f4abba;fill-opacity:1;fill-rule:nonzero;stroke:none" d="m 0,0 c -0.089,0 -0.18,0.023 -0.261,0.073 l -0.75,0.458 c -0.235,0.144 -0.309,0.452 -0.166,0.688 0.146,0.236 0.453,0.309 0.688,0.166 L 0.261,0.927 C 0.496,0.783 0.57,0.475 0.427,0.239 0.332,0.085 0.168,0 0,0"/></g></g></g></g></svg>
