<svg xmlns="http://www.w3.org/2000/svg" viewBox="0 0 47.5 47.5" enable-background="new 0 0 47.5 47.5"><defs><clipPath id="a"><path d="M0 38h38V0H0v38z"/></clipPath></defs><g><g><g clip-path="url(#a)" transform="matrix(1.25 0 0 -1.25 0 47.5)"><g><path fill="#99aab5" d="M20 35.5c0 .83-.67 1.5-1.5 1.5s-1.5-.67-1.5-1.5V26c0-.55-.45-1-1-1s-1 .45-1 1v9.5c0 .83-.67 1.5-1.5 1.5s-1.5-.67-1.5-1.5V26c0-.55-.45-1-1-1s-1 .45-1 1v9.5c0 .83-.67 1.5-1.5 1.5S7 36.33 7 35.5v-9c0-.13.02-.25.05-.37-.03-.2-.05-.4-.05-.63 0-2.32 1.75-5.96 4-6.44V3.5C11 2.12 12.12 1 13.5 1S16 2.12 16 3.5v15.56c2.25.48 4 4.12 4 6.44 0 .22-.02.43-.05.63.03.12.05.24.05.37v9z"/></g><g><path fill="#99aab5" d="M28.5 37c-.1 0-.2-.02-.3-.03-.07 0-.13.03-.2.03-2.2 0-5-5.48-5-11 0-4.66 1.27-8.56 3-9.67V3.5C26 2.12 27.12 1 28.5 1S31 2.12 31 3.5v31c0 1.38-1.12 2.5-2.5 2.5"/></g></g></g></g></svg>