<svg xmlns="http://www.w3.org/2000/svg" viewBox="0 0 47.5 47.5" enable-background="new 0 0 47.5 47.5"><defs><clipPath id="a"><path d="M0 38h38V0H0v38z"/></clipPath><clipPath id="b"><path d="M25 18c-2.2 0-4-5.8-4-8V5c0-2.2 1.8-3 4-3h7c2.2 0 4 .8 4 3v5c0 2.2-1.8 8-4 8h-7z"/></clipPath><clipPath id="c"><path d="M0 38h38V0H0v38z"/></clipPath><clipPath id="d"><path d="M6 18c-2.2 0-4-5.8-4-8V5c0-2.2 1.8-3 4-3h7c2.2 0 4 .8 4 3v5c0 2.2-1.8 8-4 8H6z"/></clipPath><clipPath id="e"><path d="M0 38h38V0H0v38z"/></clipPath></defs><g><g><g clip-path="url(#a)" transform="matrix(1.25 0 0 -1.25 0 47.5)"><g><path fill="#aa8dd8" d="M36 5c0-2.2-1.8-3-4-3h-7c-2.2 0-4 .8-4 3v5c0 2.2 1.8 8 4 8h7c2.2 0 4-5.8 4-8V5z"/></g></g></g><g><g clip-path="url(#b)" transform="matrix(1.25 0 0 -1.25 0 47.5)"><g><path fill="#744eaa" d="M29 8v4c3 1 3 3 3 5h-7c0-2 0-4 3-5V8c0-1-1-3-3-3 0-11.85 2.15-7.22 3.42-5.52C29.65-2.98 32-12.72 32 5c-2 0-3 2-3 3"/></g></g></g><g><g clip-path="url(#c)" transform="matrix(1.25 0 0 -1.25 0 47.5)"><g><path fill="#292f33" d="M37 25v-6c0-3-6.6 0-8.5 0-2.1 0-8.5-3-8.5 0v6c0 4.42 3.8 8 8.5 8s8.5-3.58 8.5-8"/></g><g><path fill="#e1e8ed" d="M35 22c0-3-1-7-6.5-7S22 18 22 22h13z"/></g><g><path fill="#a0041e" d="M30 17.5c0-.28-.67-.5-1.5-.5s-1.5.22-1.5.5.67.5 1.5.5 1.5-.22 1.5-.5"/></g><g><path fill="#292f33" d="M23.13 20.64c.9.14 2.46.47 3.32-.32.36-.26.1-1-.57-.68-.67.3-2.18.4-2.8.43-.6.04-.6.46.05.57"/></g><g><path fill="#292f33" d="M34.12 20.64c-.9.14-2.46.47-3.32-.32-.36-.26-.1-1 .57-.68.67.3 2.2.4 2.8.43.6.04.6.46-.05.57"/></g><g><path fill="#292f33" d="M33 33c0-1.66-2.02-3-4.5-3-2.5 0-4.5 1.34-4.5 3s2 3 4.5 3c2.48 0 4.5-1.34 4.5-3"/></g><g><path fill="#aa8dd8" d="M31.7 32.95l-2.96-2.02-3.2 2.02C23.73 34.18 22 33.4 22 31.2v-.3c0-2.2 1.77-3.07 3.64-1.92 0 0 1.88 1 3.1 1.66 1.2-.65 2.87-1.66 2.87-1.66 1.88-1.15 3.4-.28 3.4 1.92v.3c0 2.2-1.47 2.98-3.3 1.75"/></g><g><path fill="#cbb7ea" d="M24 7c0-.55-.45-1-1-1s-1 .45-1 1 .45 1 1 1 1-.45 1-1"/></g><g><path fill="#cbb7ea" d="M27 11c0-.55-.45-1-1-1s-1 .45-1 1 .45 1 1 1 1-.45 1-1"/></g><g><path fill="#cbb7ea" d="M33 8c0-.55-.45-1-1-1s-1 .45-1 1 .45 1 1 1 1-.45 1-1"/></g><g><path fill="#cbb7ea" d="M34 12c0-.55-.45-1-1-1s-1 .45-1 1 .45 1 1 1 1-.45 1-1"/></g><g><path fill="#dd2e44" d="M17 5c0-2.2-1.8-3-4-3H6c-2.2 0-4 .8-4 3v5c0 2.2 1.8 8 4 8h7c2.2 0 4-5.8 4-8V5z"/></g></g></g><g><g clip-path="url(#d)" transform="matrix(1.25 0 0 -1.25 0 47.5)"><g><path fill="#a0041e" d="M10 8v4c3 1 3 3 3 5H6c0-2 0-4 3-5V8c0-1-1-3-3-3C6-6.85 8.15-2.22 9.42-.52 10.65-2.98 13-12.72 13 5c-2 0-3 2-3 3"/></g></g></g><g><g clip-path="url(#e)" transform="matrix(1.25 0 0 -1.25 0 47.5)"><g><path fill="#292f33" d="M18 25v-8c0-3-2 2-8.5 2S1 14 1 17c0 3.1 0 5.56 0 8 0 4.42 3.8 8 8.5 8s8.5-3.58 8.5-8"/></g><g><path fill="#e1e8ed" d="M16 22c0-3-1-7-6.5-7S3 18 3 22h13z"/></g><g><path fill="#292f33" d="M12 33.5c0-1.93-1.12-3.5-2.5-3.5S7 31.57 7 33.5 8.12 37 9.5 37s2.5-1.57 2.5-3.5"/></g><g><path fill="#a0041e" d="M11 17.5c0-.28-.67-.5-1.5-.5s-1.5.22-1.5.5.67.5 1.5.5 1.5-.22 1.5-.5"/></g><g><path fill="#f4abba" d="M6 12c0-.55-.45-1-1-1s-1 .45-1 1 .45 1 1 1 1-.45 1-1"/></g><g><path fill="#f4abba" d="M16 7c0-.55-.45-1-1-1s-1 .45-1 1 .45 1 1 1 1-.45 1-1"/></g><g><path fill="#f4abba" d="M13 11c0-.55-.45-1-1-1s-1 .45-1 1 .45 1 1 1 1-.45 1-1"/></g><g><path fill="#f4abba" d="M8 8c0-.55-.45-1-1-1s-1 .45-1 1 .45 1 1 1 1-.45 1-1"/></g><g><path fill="#292f33" d="M4.13 20.64c.9.14 2.46.47 3.32-.32.36-.26.1-1-.57-.68-.67.3-2.18.4-2.8.43-.6.04-.6.46.05.57"/></g><g><path fill="#292f33" d="M15.12 20.64c-.9.14-2.46.47-3.32-.32-.36-.26-.1-1 .57-.68.67.3 2.2.4 2.8.43.6.04.6.46-.05.57"/></g></g></g></g></svg>