<?xml version="1.0" encoding="UTF-8" standalone="no"?>
<!-- Created with Inkscape (http://www.inkscape.org/) -->

<svg
   xmlns:svg="http://www.w3.org/2000/svg"
   xmlns="http://www.w3.org/2000/svg"
   version="1.1"
   width="47.5"
   height="47.5"
   id="svg2"
   xml:space="preserve"><defs
     id="defs6"><clipPath
       id="clipPath18"><path
         d="M 0,38 38,38 38,0 0,0 0,38 z"
         id="path20" /></clipPath><clipPath
       id="clipPath38"><path
         d="M 3,33.308 3,19.81 c 0,-4.499 11.375,0.9 14.974,4.499 l 0,0 c 3.6,3.6 -0.063,5.399 -0.063,6.299 l 0,0 c 0,0.646 -7.692,5.47 -12.027,5.471 l 0,0 C 4.183,36.079 3,35.337 3,33.308"
         id="path40" /></clipPath><clipPath
       id="clipPath50"><path
         d="M 0,38 38,38 38,0 0,0 0,38 z"
         id="path52" /></clipPath><clipPath
       id="clipPath62"><path
         d="m 20.257,30.608 c 0,-0.9 -3.495,-2.699 0.105,-6.299 l 0,0 C 23.961,20.71 35,15.311 35,19.81 l 0,0 0,13.498 c 0,2.029 -1.17,2.771 -2.852,2.771 l 0,0 C 27.862,36.078 20.257,31.254 20.257,30.608"
         id="path64" /></clipPath><clipPath
       id="clipPath74"><path
         d="M 0,38 38,38 38,0 0,0 0,38 z"
         id="path76" /></clipPath></defs><g
     transform="matrix(1.25,0,0,-1.25,0,47.5)"
     id="g12"><g
       id="g14"><g
         clip-path="url(#clipPath18)"
         id="g16"><g
           transform="translate(24,1)"
           id="g22"><path
             d="M 0,0 C -0.263,0 -0.519,0.104 -0.707,0.293 -3.05,2.635 -7,20.104 -7,22 c 0,0.282 0.101,1.687 2.094,1.687 2.113,0 5.878,-1.587 6.3,-1.768 C 1.762,21.762 2,21.4 2,21 2,19.511 6.406,10.267 9.857,4.515 10.086,4.133 10.036,3.646 9.733,3.32 9.432,2.994 8.95,2.907 8.553,3.105 L 3.295,5.734 C 2.854,5.009 2.364,3.866 1.919,2.828 1.586,2.05 1.241,1.246 0.895,0.553 0.751,0.266 0.478,0.064 0.16,0.013 0.106,0.004 0.053,0 0,0"
             id="path24"
             style="fill:#dd2e44;fill-opacity:1;fill-rule:nonzero;stroke:none" /></g><g
           transform="translate(13,1)"
           id="g26"><path
             d="M 0,0 C -0.053,0 -0.107,0.004 -0.16,0.013 -0.478,0.064 -0.75,0.266 -0.895,0.553 -1.241,1.246 -1.586,2.05 -1.919,2.828 -2.364,3.866 -2.854,5.009 -3.295,5.734 L -8.553,3.105 C -8.951,2.905 -9.431,2.995 -9.734,3.32 -10.036,3.646 -10.086,4.133 -9.857,4.515 -6.406,10.267 -2,19.511 -2,21 c 0,0.4 0.238,0.762 0.606,0.919 0.422,0.181 4.187,1.768 6.3,1.768 C 6.899,23.687 7,22.282 7,22 7,20.104 3.049,2.635 0.707,0.293 0.518,0.104 0.263,0 0,0"
             id="path28"
             style="fill:#dd2e44;fill-opacity:1;fill-rule:nonzero;stroke:none" /></g><g
           transform="translate(3,33.3081)"
           id="g30"><path
             d="m 0,0 0,-13.499 c 0,-4.499 11.375,0.9 14.974,4.5 3.6,3.6 -0.063,5.399 -0.063,6.299 C 14.911,-1.8 0,7.199 0,0"
             id="path32"
             style="fill:#dd2e44;fill-opacity:1;fill-rule:nonzero;stroke:none" /></g></g></g><g
       id="g34"><g
         clip-path="url(#clipPath38)"
         id="g36"><g
           transform="translate(19.8999,25.209)"
           id="g42"><path
             d="m 0,0 c -13.499,0 -17.098,-5.399 -17.098,-7.199 0,-1.8 9.899,-5.4 12.598,-2.699 C -1.8,-7.199 0,0 0,0"
             id="path44"
             style="fill:#a0041e;fill-opacity:1;fill-rule:nonzero;stroke:none" /></g></g></g><g
       id="g46"><g
         clip-path="url(#clipPath50)"
         id="g48"><g
           transform="translate(35,33.3081)"
           id="g54"><path
             d="m 0,0 0,-13.499 c 0,-4.499 -10.99,0.9 -14.59,4.5 -3.599,3.6 -0.129,5.399 -0.129,6.299 C -14.719,-1.8 0,7.199 0,0"
             id="path56"
             style="fill:#dd2e44;fill-opacity:1;fill-rule:nonzero;stroke:none" /></g></g></g><g
       id="g58"><g
         clip-path="url(#clipPath62)"
         id="g60"><g
           transform="translate(18.7705,25.209)"
           id="g66"><path
             d="m 0,0 c 13.499,0 17.099,-5.399 17.099,-7.199 0,-1.8 -9.9,-5.4 -12.599,-2.699 C 1.8,-7.199 0,0 0,0"
             id="path68"
             style="fill:#a0041e;fill-opacity:1;fill-rule:nonzero;stroke:none" /></g></g></g><g
       id="g70"><g
         clip-path="url(#clipPath74)"
         id="g72"><g
           transform="translate(23,25.5996)"
           id="g78"><path
             d="m 0,0 c 0,-1.988 -1.611,-3.6 -3.599,-3.6 l -1.802,0 C -7.389,-3.6 -9,-1.988 -9,0 l 0,3.801 C -9,5.789 -7.389,7.4 -5.401,7.4 l 1.802,0 C -1.611,7.4 0,5.789 0,3.801 L 0,0 z"
             id="path80"
             style="fill:#ea596e;fill-opacity:1;fill-rule:nonzero;stroke:none" /></g></g></g></g></svg>