<svg xmlns="http://www.w3.org/2000/svg" viewBox="0 0 47.5 47.5" enable-background="new 0 0 47.5 47.5"><defs><clipPath id="a"><path d="M0 38h38V0H0v38z"/></clipPath></defs><g><g><g clip-path="url(#a)" transform="matrix(1.25 0 0 -1.25 0 47.5)"><g><path fill="#eee" d="M34.83 19.27c-.5-1.98-1.38-2.5-3.36-2.02l-11.65 2.9c-1.98.48-.5 1.8 0 3.8l1.55 6.27c.5 1.98-.2 3.86 1.78 3.37l11.66-2.9c2-.5 2.52-1.38 2.03-3.36l-2-8.07z"/></g><g><path fill="#99aab5" d="M15.2 3.08c-.07 0-.15 0-.22.02-.5.12-.8.63-.68 1.12l7.6 30.92c.13.5.63.8 1.13.68.5-.13.8-.63.67-1.12L16.1 3.78c-.1-.42-.5-.7-.9-.7"/></g><g><path fill="#be1931" d="M31.35 24.42c-.43-1.74-2.2-2.8-3.92-2.36-1.73.43-2.8 2.18-2.36 3.9.43 1.75 2.18 2.8 3.92 2.37 1.72-.43 2.78-2.18 2.35-3.9"/></g><g><path fill="#eee" d="M3.37 19.27c.5-1.98 1.37-2.5 3.36-2.02l11.65 2.9c1.98.48.5 1.8 0 3.8l-1.55 6.27c-.5 1.98.2 3.86-1.78 3.37L3.4 30.7c-2-.5-2.52-1.38-2.03-3.36l2-8.07z"/></g><g><path fill="#99aab5" d="M23 3.08c-.42 0-.8.28-.9.7L14.5 34.7c-.13.5.18 1 .67 1.12.5.12 1-.2 1.12-.68l7.6-30.92c.12-.5-.18-1-.68-1.12-.07 0-.15-.02-.22-.02"/></g><g><path fill="#be1931" d="M6.85 24.42c.43-1.74 2.18-2.8 3.92-2.36 1.73.43 2.8 2.18 2.36 3.9-.43 1.75-2.2 2.8-3.92 2.37-1.72-.43-2.78-2.18-2.35-3.9"/></g></g></g></g></svg>