<svg xmlns="http://www.w3.org/2000/svg" viewBox="0 0 47.5 47.5" enable-background="new 0 0 47.5 47.5"><defs><clipPath id="a"><path d="M0 38h38V0H0v38z"/></clipPath></defs><g><g><g clip-path="url(#a)" transform="matrix(1.25 0 0 -1.25 0 47.5)"><g><path fill="#269" d="M37 5c0-2.2-1.8-4-4-4H5C2.8 1 1 2.8 1 5v28c0 2.2 1.8 4 4 4h28c2.2 0 4-1.8 4-4V5z"/></g><g><path fill="#55acee" d="M19 34.75L22.75 31H28v-5.25L31.75 22 28 18.25V13h-5.25L19 9.25 15.25 13H10v5.25L6.25 22 10 25.75V31h5.25L19 34.75z"/></g><g><path fill="#ffd983" d="M16 22z"/></g><g><path fill="#ffd983" d="M19 32.4l2.23-5.06 4.86 1.4-1.43-4.84 6.48-2.23-6.48-2.24 1.42-4.85L21.22 16 19 3.85 16.77 16l-4.85-1.42 1.4 4.85-6.47 2.24 6.48 2.23-1.4 4.85 4.84-1.4L19 32.4z"/></g><g><path fill="#f5f8fa" d="M22 22c0-1.66-1.34-3-3-3s-3 1.34-3 3 1.34 3 3 3 3-1.34 3-3"/></g><g><path fill="#ffcc4d" d="M11 24c-.2 0-.38.05-.55.17l-6 4c-.46.3-.6.92-.28 1.38.3.46.93.6 1.4.28l5.98-4c.46-.3.6-.92.28-1.38-.2-.3-.5-.45-.83-.45"/></g><g><path fill="#ffcc4d" d="M27 24c-.32 0-.64.16-.83.45-.3.46-.18 1.08.28 1.38l6 4c.46.3 1.08.2 1.38-.27.3-.46.2-1.1-.27-1.4l-6-4c-.18-.1-.37-.16-.56-.16"/></g><g><path fill="#ffcc4d" d="M5 13c-.32 0-.64.16-.83.45-.3.46-.18 1.08.28 1.38l6 4c.46.3 1.08.2 1.38-.27.3-.46.18-1.08-.27-1.4l-6-4c-.18-.1-.37-.16-.56-.16"/></g><g><path fill="#ffcc4d" d="M34 13c-.17 0-.34.04-.5.13l-7 4c-.48.28-.64.9-.37 1.37.28.48.9.64 1.37.37l7-4c.48-.28.64-.9.37-1.37-.2-.32-.52-.5-.87-.5"/></g><g><path fill="#ffcc4d" d="M11 3c-.14 0-.27.03-.4.1-.5.2-.74.8-.5 1.3l4 9c.2.5.8.74 1.3.5.5-.2.74-.8.5-1.3l-4-9c-.15-.38-.52-.6-.9-.6"/></g><g><path fill="#ffcc4d" d="M27 3c-.38 0-.75.22-.9.6l-4 9c-.24.5 0 1.1.5 1.3.5.24 1.1 0 1.3-.5l4-9c.24-.5 0-1.1-.5-1.3-.13-.07-.26-.1-.4-.1"/></g><g><path fill="#ffcc4d" d="M16 29c-.37 0-.72.2-.9.55l-2 4c-.24.5-.04 1.1.45 1.35.5.24 1.1.04 1.35-.45l2-4c.24-.5.04-1.1-.45-1.35-.15-.07-.3-.1-.45-.1"/></g><g><path fill="#ffcc4d" d="M22 29c-.15 0-.3.03-.45.1-.5.25-.7.85-.45 1.35l2 4c.25.5.85.7 1.35.44.5-.25.7-.85.44-1.35l-2-4c-.18-.35-.53-.55-.9-.55"/></g></g></g></g></svg>