<?xml version="1.0" encoding="UTF-8" standalone="no"?><svg xmlns:svg="http://www.w3.org/2000/svg" xmlns="http://www.w3.org/2000/svg" version="1.1" viewBox="0 0 47.5 47.5" style="enable-background:new 0 0 47.5 47.5;" id="svg2" xml:space="preserve"><defs id="defs6"><clipPath id="clipPath18"><path d="M 0,38 38,38 38,0 0,0 0,38 z" id="path20"/></clipPath></defs><g transform="matrix(1.25,0,0,-1.25,0,47.5)" id="g12"><g id="g14"><g clip-path="url(#clipPath18)" id="g16"><g transform="translate(27,28.0005)" id="g22"><path d="M 0,0 C -3.591,0 -6.27,1.648 -7.989,4.905 -9.615,1.685 -12.007,0 -15,0 c -0.552,0 -1,0.448 -1,1 0,0.552 0.448,1 1,1 2.729,0 4.765,1.957 6.051,5.816 C -8.813,8.224 -8.431,8.5 -8,8.5 -7.569,8.5 -7.187,8.224 -7.051,7.816 -5.729,3.848 -3.488,2 0,2 0.553,2 1,1.552 1,1 1,0.448 0.553,0 0,0" id="path24" style="fill:#292f33;fill-opacity:1;fill-rule:nonzero;stroke:none"/></g><g transform="translate(15.604,27.3462)" id="g26"><path d="m 0,0 c 3.364,-3.366 0.498,-5.954 -2.868,-9.319 -3.365,-3.365 -5.953,-6.232 -9.319,-2.868 -3.366,3.366 -3.366,8.822 0,12.187 C -8.821,3.366 -3.366,3.366 0,0" id="path28" style="fill:#ffac33;fill-opacity:1;fill-rule:nonzero;stroke:none"/></g><g transform="translate(16.4351,26.0278)" id="g30"><path d="m 0,0 c 1.584,-1.585 0.249,-5.486 -2.983,-8.717 -3.231,-3.232 -7.132,-4.569 -8.717,-2.983 -1.584,1.584 -0.248,5.486 2.982,8.717 C -5.486,0.248 -1.584,1.584 0,0" id="path32" style="fill:#be1931;fill-opacity:1;fill-rule:nonzero;stroke:none"/></g><g transform="translate(22.2988,27.3462)" id="g34"><path d="m 0,0 c -3.363,-3.366 -0.498,-5.954 2.868,-9.319 3.365,-3.365 5.954,-6.232 9.32,-2.868 3.365,3.366 3.365,8.822 0,12.187 C 8.822,3.366 3.367,3.366 0,0" id="path36" style="fill:#ffac33;fill-opacity:1;fill-rule:nonzero;stroke:none"/></g><g transform="translate(21.4688,26.0278)" id="g38"><path d="m 0,0 c -1.585,-1.585 -0.249,-5.486 2.982,-8.717 3.231,-3.232 7.133,-4.569 8.717,-2.983 1.584,1.584 0.248,5.486 -2.982,8.717 C 5.486,0.248 1.584,1.584 0,0" id="path40" style="fill:#be1931;fill-opacity:1;fill-rule:nonzero;stroke:none"/></g><g transform="translate(23.4102,18.7793)" id="g42"><path d="M 0,0 C 0.199,0.16 0.459,0.244 0.734,0.215 1.602,0.121 2.332,-0.181 2.844,-0.658 3.385,-1.163 3.65,-1.841 3.578,-2.521 3.449,-3.712 2.254,-4.806 0.215,-4.586 c -0.793,0.085 -1.147,-0.17 -1.158,-0.291 -0.014,-0.121 0.277,-0.446 1.07,-0.532 0.867,-0.094 1.598,-0.396 2.109,-0.873 0.541,-0.505 0.809,-1.183 0.735,-1.863 -0.129,-1.192 -1.325,-2.285 -3.362,-2.065 -0.578,0.063 -0.882,-0.057 -1.011,-0.134 -0.104,-0.063 -0.145,-0.124 -0.149,-0.158 -0.011,-0.12 0.276,-0.445 1.071,-0.531 0.548,-0.06 0.947,-0.553 0.886,-1.102 -0.058,-0.549 -0.551,-0.946 -1.101,-0.886 -2.037,0.218 -2.973,1.542 -2.844,2.735 0.129,1.192 1.324,2.285 3.363,2.065 0.578,-0.063 0.881,0.057 1.01,0.134 0.103,0.063 0.145,0.123 0.148,0.157 0.014,0.121 -0.275,0.447 -1.07,0.533 -2.037,0.219 -2.973,1.542 -2.844,2.735 0.129,1.192 1.325,2.286 3.362,2.064 0.578,-0.061 0.882,0.058 1.011,0.135 0.104,0.063 0.145,0.123 0.149,0.157 0.012,0.121 -0.278,0.447 -1.07,0.533 -0.549,0.059 -0.948,0.552 -0.887,1.101 C -0.338,-0.397 -0.199,-0.161 0,0" id="path44" style="fill:#aa8dd8;fill-opacity:1;fill-rule:nonzero;stroke:none"/></g><g transform="translate(16.2661,1.0146)" id="g46"><path d="m 0,0 c -1.973,-0.557 -3.334,0.322 -3.658,1.477 -0.324,1.154 0.378,2.615 2.349,3.169 0.77,0.216 1.001,0.584 0.97,0.702 -0.034,0.119 -0.425,0.312 -1.193,0.095 -1.972,-0.555 -3.333,0.325 -3.657,1.48 -0.327,1.155 0.377,2.614 2.35,3.169 0.769,0.217 1.001,0.586 0.967,0.703 -0.033,0.116 -0.423,0.31 -1.192,0.095 -0.531,-0.15 -1.084,0.159 -1.234,0.69 -0.148,0.533 0.161,1.084 0.694,1.234 1.97,0.555 3.333,-0.322 3.659,-1.478 C 0.379,10.182 -0.324,8.723 -2.298,8.166 -3.067,7.95 -3.299,7.582 -3.265,7.465 -3.232,7.348 -2.843,7.152 -2.074,7.369 -0.101,7.925 1.26,7.047 1.585,5.89 1.91,4.736 1.207,3.277 -0.767,2.721 -1.534,2.506 -1.766,2.135 -1.733,2.02 -1.699,1.901 -1.311,1.707 -0.541,1.923 -0.009,2.074 0.542,1.764 0.692,1.232 0.842,0.701 0.532,0.148 0,0" id="path48" style="fill:#77b255;fill-opacity:1;fill-rule:nonzero;stroke:none"/></g><g transform="translate(2,9.5)" id="g50"><path d="M 0,0 C 0,0.828 0.672,1.5 1.5,1.5 2.328,1.5 3,0.828 3,0 3,-0.828 2.328,-1.5 1.5,-1.5 0.672,-1.5 0,-0.828 0,0" id="path52" style="fill:#5c913b;fill-opacity:1;fill-rule:nonzero;stroke:none"/></g><g transform="translate(6,6)" id="g54"><path d="M 0,0 C 0,1.104 0.896,2 2,2 3.104,2 4,1.104 4,0 4,-1.104 3.104,-2 2,-2 0.896,-2 0,-1.104 0,0" id="path56" style="fill:#9266cc;fill-opacity:1;fill-rule:nonzero;stroke:none"/></g><g transform="translate(29,10)" id="g58"><path d="M 0,0 C 0,1.104 0.896,2 2,2 3.104,2 4,1.104 4,0 4,-1.104 3.104,-2 2,-2 0.896,-2 0,-1.104 0,0" id="path60" style="fill:#9266cc;fill-opacity:1;fill-rule:nonzero;stroke:none"/></g><g transform="translate(25,5.5)" id="g62"><path d="M 0,0 C 0,0.828 0.672,1.5 1.5,1.5 2.328,1.5 3,0.828 3,0 3,-0.828 2.328,-1.5 1.5,-1.5 0.672,-1.5 0,-0.828 0,0" id="path64" style="fill:#5c913b;fill-opacity:1;fill-rule:nonzero;stroke:none"/></g><g transform="translate(17,17.5)" id="g66"><path d="M 0,0 C 0,0.828 0.672,1.5 1.5,1.5 2.328,1.5 3,0.828 3,0 3,-0.828 2.328,-1.5 1.5,-1.5 0.672,-1.5 0,-0.828 0,0" id="path68" style="fill:#5c913b;fill-opacity:1;fill-rule:nonzero;stroke:none"/></g><g transform="translate(6,14)" id="g70"><path d="M 0,0 C 0,1.104 0.896,2 2,2 3.104,2 4,1.104 4,0 4,-1.104 3.104,-2 2,-2 0.896,-2 0,-1.104 0,0" id="path72" style="fill:#ffcc4d;fill-opacity:1;fill-rule:nonzero;stroke:none"/></g><g transform="translate(27,20.5)" id="g74"><path d="M 0,0 C 0,0.828 0.672,1.5 1.5,1.5 2.328,1.5 3,0.828 3,0 3,-0.828 2.328,-1.5 1.5,-1.5 0.672,-1.5 0,-0.828 0,0" id="path76" style="fill:#ffcc4d;fill-opacity:1;fill-rule:nonzero;stroke:none"/></g><g transform="translate(12,22.5)" id="g78"><path d="M 0,0 C 0,0.828 0.672,1.5 1.5,1.5 2.328,1.5 3,0.828 3,0 3,-0.828 2.328,-1.5 1.5,-1.5 0.672,-1.5 0,-0.828 0,0" id="path80" style="fill:#ffcc4d;fill-opacity:1;fill-rule:nonzero;stroke:none"/></g></g></g></g></svg>
