<svg xmlns="http://www.w3.org/2000/svg" viewBox="0 0 47.5 47.5" enable-background="new 0 0 47.5 47.5"><defs><clipPath id="a"><path d="M0 38h38V0H0v38z"/></clipPath></defs><g><g><g clip-path="url(#a)" transform="matrix(1.25 0 0 -1.25 0 47.5)"><g><path fill="#fdd888" d="M34 6c0-2.2-1.8-4-4-4H8C5.8 2 4 3.8 4 6v17c0 2.2 1.8 4 4 4h22c2.2 0 4-1.8 4-4V6z"/></g><g><path fill="#fdd888" d="M37 26c0-2.2-1.8-4-4-4H5c-2.2 0-4 1.8-4 4s1.8 4 4 4h28c2.2 0 4-1.8 4-4"/></g><path fill="#fcab40" d="M34 20H4v2h30v-2z"/><g><path fill="#da2f47" d="M20 34h-2c-1.66 0-3-1.34-3-3V2h8v29c0 1.66-1.34 3-3 3"/></g><g><path fill="#da2f47" d="M17 30c1.1 0 1.26.52.36 1.15l-6.72 4.7c-.9.63-2.1.37-2.63-.6l-2-3.5C5.44 30.77 5.9 30 7 30h10z"/></g><g><path fill="#da2f47" d="M21 30c-1.1 0-1.26.52-.36 1.15l6.72 4.7c.9.63 2.1.37 2.63-.6l2-3.5c.55-.97.1-1.75-1-1.75H21z"/></g></g></g></g></svg>