<?xml version="1.0" encoding="UTF-8" standalone="no"?>
<!-- Created with Inkscape (http://www.inkscape.org/) -->

<svg
   xmlns:svg="http://www.w3.org/2000/svg"
   xmlns="http://www.w3.org/2000/svg"
   version="1.1"
   width="47.5"
   height="47.5"
   id="svg2"
   xml:space="preserve"><defs
     id="defs6"><clipPath
       id="clipPath20"><path
         d="M 0,38 38,38 38,0 0,0 0,38 z"
         id="path22" /></clipPath><clipPath
       id="clipPath52"><path
         d="M 11,16 C 8.791,16 8,14.209 8,12 L 8,12 8,8 C 8,5.791 8.791,4 11,4 l 0,0 25,0 c 2.209,0 -4,3.791 -4,6 l 0,0 c 0,2.209 6.209,6 4,6 l 0,0 -25,0 z"
         id="path54" /></clipPath><clipPath
       id="clipPath64"><path
         d="M 0,38 38,38 38,0 0,0 0,38 z"
         id="path66" /></clipPath><clipPath
       id="clipPath92"><path
         d="M 11,32 C 8.791,32 8,30.209 8,28 l 0,0 0,-4 c 0,-2.209 0.791,-4 3,-4 l 0,0 25,0 c 2.209,0 -4,3.791 -4,6 l 0,0 c 0,2.209 6.209,6 4,6 l 0,0 -25,0 z"
         id="path94" /></clipPath></defs><g
     transform="matrix(1.25,0,0,-1.25,0,47.5)"
     id="g12"><path
       d="M 6,1 4,1 4,34 6,34 6,1 z"
       id="path14"
       style="fill:#ccd6dd;fill-opacity:1;fill-rule:nonzero;stroke:none" /><g
       id="g16"><g
         clip-path="url(#clipPath20)"
         id="g18"><g
           transform="translate(8,34)"
           id="g24"><path
             d="m 0,0 c 0,-1.657 -1.343,-3 -3,-3 -1.657,0 -3,1.343 -3,3 0,1.657 1.343,3 3,3 1.657,0 3,-1.343 3,-3"
             id="path26"
             style="fill:#f4900c;fill-opacity:1;fill-rule:nonzero;stroke:none" /></g><g
           transform="translate(10,9)"
           id="g28"><path
             d="m 0,0 -5,0 c -0.552,0 -1,0.447 -1,1 0,0.553 0.448,1 1,1 L 0,2 C 0.552,2 1,1.553 1,1 1,0.447 0.552,0 0,0"
             id="path30"
             style="fill:#66757f;fill-opacity:1;fill-rule:nonzero;stroke:none" /></g><g
           transform="translate(28,15)"
           id="g32"><path
             d="m 0,0 c 0,-1.656 -2.463,-3 -5.5,-3 -3.038,0 -5.5,1.344 -5.5,3 0,1.656 0.462,4 3.5,4 C -4.463,4 0,1.656 0,0"
             id="path34"
             style="fill:#dd2e44;fill-opacity:1;fill-rule:nonzero;stroke:none" /></g><g
           transform="translate(32,10)"
           id="g36"><path
             d="m 0,0 c 0,-2.209 6.209,-6 4,-6 l -25,0 c -2.209,0 -3,1.791 -3,4 l 0,4 c 0,2.209 0.791,4 3,4 L 4,6 C 6.209,6 0,2.209 0,0"
             id="path38"
             style="fill:#dd2e44;fill-opacity:1;fill-rule:nonzero;stroke:none" /></g><g
           transform="translate(16,12)"
           id="g40"><path
             d="m 0,0 c 0,-1.656 -1.343,-3 -3,-3 -1.657,0 -3,1.344 -3,3 0,1.656 1.343,3 3,3 1.657,0 3,-1.344 3,-3"
             id="path42"
             style="fill:#ffffff;fill-opacity:1;fill-rule:nonzero;stroke:none" /></g><g
           transform="translate(14,12.5)"
           id="g44"><path
             d="M 0,0 C 0,-0.828 -0.671,-1.5 -1.5,-1.5 -2.329,-1.5 -3,-0.828 -3,0 -3,0.828 -2.329,1.5 -1.5,1.5 -0.671,1.5 0,0.828 0,0"
             id="path46"
             style="fill:#000000;fill-opacity:1;fill-rule:nonzero;stroke:none" /></g></g></g><g
       id="g48"><g
         clip-path="url(#clipPath52)"
         id="g50"><g
           transform="translate(16,17)"
           id="g56"><path
             d="m 0,0 c 2,-2 7,-7 0,-14 4,-1 10,-1.458 16,-1 6,0.458 6,4.75 6,7.209 C 22,-5.334 28,0 21,1 14,2 0,0 0,0"
             id="path58"
             style="fill:#f4abba;fill-opacity:1;fill-rule:nonzero;stroke:none" /></g></g></g><g
       id="g60"><g
         clip-path="url(#clipPath64)"
         id="g62"><g
           transform="translate(10,25)"
           id="g68"><path
             d="m 0,0 -5,0 c -0.552,0 -1,0.448 -1,1 0,0.552 0.448,1 1,1 L 0,2 C 0.552,2 1,1.552 1,1 1,0.448 0.552,0 0,0"
             id="path70"
             style="fill:#66757f;fill-opacity:1;fill-rule:nonzero;stroke:none" /></g><g
           transform="translate(28,31)"
           id="g72"><path
             d="m 0,0 c 0,-1.657 -2.463,-3 -5.5,-3 -3.038,0 -5.5,1.343 -5.5,3 0,1.657 0.462,4 3.5,4 C -4.463,4 0,1.657 0,0"
             id="path74"
             style="fill:#55acee;fill-opacity:1;fill-rule:nonzero;stroke:none" /></g><g
           transform="translate(32,26)"
           id="g76"><path
             d="m 0,0 c 0,-2.209 6.209,-6 4,-6 l -25,0 c -2.209,0 -3,1.791 -3,4 l 0,4 c 0,2.209 0.791,4 3,4 L 4,6 C 6.209,6 0,2.209 0,0"
             id="path78"
             style="fill:#55acee;fill-opacity:1;fill-rule:nonzero;stroke:none" /></g><g
           transform="translate(16,28)"
           id="g80"><path
             d="m 0,0 c 0,-1.657 -1.343,-3 -3,-3 -1.657,0 -3,1.343 -3,3 0,1.657 1.343,3 3,3 1.657,0 3,-1.343 3,-3"
             id="path82"
             style="fill:#ffffff;fill-opacity:1;fill-rule:nonzero;stroke:none" /></g><g
           transform="translate(14,28.5)"
           id="g84"><path
             d="M 0,0 C 0,-0.829 -0.671,-1.5 -1.5,-1.5 -2.329,-1.5 -3,-0.829 -3,0 -3,0.829 -2.329,1.5 -1.5,1.5 -0.671,1.5 0,0.829 0,0"
             id="path86"
             style="fill:#000000;fill-opacity:1;fill-rule:nonzero;stroke:none" /></g></g></g><g
       id="g88"><g
         clip-path="url(#clipPath92)"
         id="g90"><g
           transform="translate(16,33)"
           id="g96"><path
             d="m 0,0 c 2,-2 7,-7 0,-14 4,-1 10,-1.458 16,-1 6,0.458 6,4.75 6,7.208 C 22,-5.333 28,0 21,1 14,2 0,0 0,0"
             id="path98"
             style="fill:#bbddf5;fill-opacity:1;fill-rule:nonzero;stroke:none" /></g></g></g></g></svg>