<svg xmlns="http://www.w3.org/2000/svg" viewBox="0 0 47.5 47.5" enable-background="new 0 0 47.5 47.5"><defs><clipPath id="a"><path d="M0 38h38V0H0v38z"/></clipPath></defs><g><g><g clip-path="url(#a)" transform="matrix(1.25 0 0 -1.25 0 47.5)"><g><path fill="#77b255" d="M33 6.47C33 4 30.97 2 28.5 2S24 4 24 6.47V18.4c0 2.48 2.03 5.6 4.5 5.6s4.5-3.12 4.5-5.6V6.48z"/></g><g><path fill="#ffe8b6" d="M22.46 31.4c0-2.2-1.34-3.97-3-3.97-1.64 0-2.97 1.78-2.97 3.98s1.32 4 2.97 4c1.65 0 3-1.8 3-4"/></g><g><path fill="#77b255" d="M24 6.47C24 4 21.97 2 19.5 2S15 4 15 6.47V31.4c0 2.48 2.03 5.6 4.5 5.6s4.5-3.12 4.5-5.6V6.48z"/></g><g><path fill="#ffe8b6" d="M22.46 31.4c0-2.2-1.34-3.97-3-3.97-1.64 0-2.97 1.78-2.97 3.98s1.32 4 2.97 4c1.65 0 3-1.8 3-4"/></g><g><path fill="#ffe8b6" d="M31.46 18.4c0-2.2-1.34-3.97-3-3.97-1.64 0-2.97 1.78-2.97 3.98s1.32 4 2.97 4c1.65 0 3-1.8 3-4"/></g><g><path fill="#77b255" d="M15 6.47C15 4 12.97 2 10.5 2S6 4 6 6.47V25.4C6 27.9 8.03 31 10.5 31s4.5-3.12 4.5-5.6V6.48z"/></g><g><path fill="#ffe8b6" d="M13.46 25.4c0-2.2-1.34-3.97-3-3.97-1.64 0-2.97 1.78-2.97 3.98s1.32 4 2.97 4c1.65 0 3-1.8 3-4"/></g><g><path fill="#5c913b" d="M25 15c0-.55-.45-1-1-1h-9c-.55 0-1 .45-1 1s.45 1 1 1h9c.55 0 1-.45 1-1"/></g><g><path fill="#5c913b" d="M25 23c0-.55-.45-1-1-1h-9c-.55 0-1 .45-1 1s.45 1 1 1h9c.55 0 1-.45 1-1"/></g><g><path fill="#5c913b" d="M16 19c0-.55-.45-1-1-1H6c-.55 0-1 .45-1 1s.45 1 1 1h9c.55 0 1-.45 1-1"/></g><g><path fill="#d99e82" d="M36 4.5C36 3.12 34.88 2 33.5 2h-28C4.12 2 3 3.12 3 4.5S4.12 7 5.5 7h28C34.88 7 36 5.88 36 4.5"/></g><g><path fill="#5c913b" d="M32 10s-1.23.56-3.27 1.18c-.65-1.43-1.3-2.8-1.56-3.43-.52-1.27-1.13-.88-.93.17.1.53.46 2.6.74 3.73-2 .48-4.45.9-7.16 1-.15-1.73-.4-3.23-.5-4.15-.1-1.42-1.5-1.33-1.6-.04-.08.7-.18 2.68-.27 4.17-2.03-.1-4.15-.4-6.3-1.02.1-1 .3-2.87.4-3.52.18-1.47-.56-1.08-.84-.3-.17.52-.8 2.23-1.26 3.27-.8-.3-1.63-.64-2.44-1.05-2-1-4-3-4-4V5h33v1c0 1-2 3-4 4"/></g></g></g></g></svg>