<?xml version="1.0" encoding="UTF-8" standalone="no"?>
<!-- Created with Inkscape (http://www.inkscape.org/) -->

<svg
   xmlns:svg="http://www.w3.org/2000/svg"
   xmlns="http://www.w3.org/2000/svg"
   version="1.1"
   width="47.5"
   height="47.5"
   id="svg2"
   xml:space="preserve"><defs
     id="defs6"><clipPath
       id="clipPath18"><path
         d="M 0,38 38,38 38,0 0,0 0,38 z"
         id="path20" /></clipPath></defs><g
     transform="matrix(1.25,0,0,-1.25,0,47.5)"
     id="g12"><g
       id="g14"><g
         clip-path="url(#clipPath18)"
         id="g16"><g
           transform="translate(34.8291,19.2725)"
           id="g22"><path
             d="m 0,0 c -0.491,-1.981 -1.376,-2.514 -3.356,-2.022 l -11.655,2.887 c -1.98,0.491 -0.499,1.827 -0.008,3.808 l 1.555,6.276 c 0.491,1.98 -0.195,3.855 1.785,3.364 L -0.023,11.425 C 1.956,10.934 2.491,10.049 2,8.068 L 0,0 z"
             id="path24"
             style="fill:#eeeeee;fill-opacity:1;fill-rule:nonzero;stroke:none" /></g><g
           transform="translate(15.1987,3.0762)"
           id="g26"><path
             d="m 0,0 c -0.073,0 -0.147,0.009 -0.221,0.027 -0.495,0.121 -0.798,0.622 -0.676,1.118 l 7.608,30.918 c 0.122,0.496 0.622,0.798 1.118,0.676 0.495,-0.122 0.797,-0.622 0.675,-1.117 L 0.896,0.703 C 0.793,0.282 0.416,0 0,0"
             id="path28"
             style="fill:#99aab5;fill-opacity:1;fill-rule:nonzero;stroke:none" /></g><g
           transform="translate(31.3467,24.4175)"
           id="g30"><path
             d="m 0,0 c -0.43,-1.733 -2.183,-2.79 -3.915,-2.36 -1.733,0.429 -2.791,2.182 -2.361,3.915 0.429,1.733 2.183,2.79 3.916,2.36 C -0.628,3.486 0.429,1.733 0,0"
             id="path32"
             style="fill:#be1931;fill-opacity:1;fill-rule:nonzero;stroke:none" /></g><g
           transform="translate(3.3691,19.2725)"
           id="g34"><path
             d="m 0,0 c 0.491,-1.981 1.375,-2.514 3.356,-2.022 l 11.655,2.887 c 1.98,0.491 0.499,1.827 0.008,3.808 l -1.556,6.276 c -0.49,1.98 0.196,3.855 -1.785,3.364 L 0.023,11.425 C -1.957,10.934 -2.491,10.049 -2,8.068 L 0,0 z"
             id="path36"
             style="fill:#eeeeee;fill-opacity:1;fill-rule:nonzero;stroke:none" /></g><g
           transform="translate(22.999,3.0762)"
           id="g38"><path
             d="m 0,0 c -0.415,0 -0.792,0.282 -0.896,0.703 l -7.608,30.919 c -0.121,0.495 0.181,0.995 0.676,1.117 0.499,0.121 0.996,-0.181 1.118,-0.676 L 0.897,1.145 C 1.02,0.649 0.717,0.148 0.222,0.027 0.147,0.009 0.073,0 0,0"
             id="path40"
             style="fill:#99aab5;fill-opacity:1;fill-rule:nonzero;stroke:none" /></g><g
           transform="translate(6.8516,24.4175)"
           id="g42"><path
             d="m 0,0 c 0.43,-1.733 2.183,-2.79 3.916,-2.36 1.732,0.429 2.79,2.182 2.36,3.915 C 5.847,3.288 4.093,4.345 2.361,3.915 0.628,3.486 -0.429,1.733 0,0"
             id="path44"
             style="fill:#be1931;fill-opacity:1;fill-rule:nonzero;stroke:none" /></g></g></g></g></svg>