<?xml version="1.0" encoding="UTF-8" standalone="no"?><svg xmlns:dc="http://purl.org/dc/elements/1.1/" xmlns:cc="http://creativecommons.org/ns#" xmlns:rdf="http://www.w3.org/1999/02/22-rdf-syntax-ns#" xmlns:svg="http://www.w3.org/2000/svg" xmlns="http://www.w3.org/2000/svg" viewBox="0 0 47.5 47.5" style="enable-background:new 0 0 47.5 47.5;" xml:space="preserve" version="1.1" id="svg2"><metadata id="metadata8"><rdf:RDF><cc:Work rdf:about=""><dc:format>image/svg+xml</dc:format><dc:type rdf:resource="http://purl.org/dc/dcmitype/StillImage"/></cc:Work></rdf:RDF></metadata><defs id="defs6"><clipPath id="clipPath16" clipPathUnits="userSpaceOnUse"><path id="path18" d="M 0,38 38,38 38,0 0,0 0,38 Z"/></clipPath><clipPath id="clipPath28" clipPathUnits="userSpaceOnUse"><path id="path30" d="m 25,18 c -2.209,0 -4,-5.791 -4,-8 l 0,0 0,-5 c 0,-2.209 1.791,-3 4,-3 l 0,0 7,0 c 2.209,0 4,0.791 4,3 l 0,0 0,5 c 0,2.209 -1.791,8 -4,8 l 0,0 -7,0 z"/></clipPath><clipPath id="clipPath40" clipPathUnits="userSpaceOnUse"><path id="path42" d="M 0,38 38,38 38,0 0,0 0,38 Z"/></clipPath><clipPath id="clipPath96" clipPathUnits="userSpaceOnUse"><path id="path98" d="M 6,18 C 3.791,18 2,12.209 2,10 L 2,10 2,5 C 2,2.791 3.791,2 6,2 l 0,0 7,0 c 2.209,0 4,0.791 4,3 l 0,0 0,5 c 0,2.209 -1.791,8 -4,8 l 0,0 -7,0 z"/></clipPath><clipPath id="clipPath108" clipPathUnits="userSpaceOnUse"><path id="path110" d="M 0,38 38,38 38,0 0,0 0,38 Z"/></clipPath></defs><g transform="matrix(1.25,0,0,-1.25,0,47.5)" id="g10"><g id="g12"><g clip-path="url(#clipPath16)" id="g14"><g transform="translate(36,5)" id="g20"><path id="path22" style="fill:#aa8dd8;fill-opacity:1;fill-rule:nonzero;stroke:none" d="m 0,0 c 0,-2.209 -1.791,-3 -4,-3 l -7,0 c -2.209,0 -4,0.791 -4,3 l 0,5 c 0,2.209 1.791,8 4,8 l 7,0 C -1.791,13 0,7.209 0,5 L 0,0 Z"/></g></g></g><g id="g24"><g clip-path="url(#clipPath28)" id="g26"><g transform="translate(29,8)" id="g32"><path id="path34" style="fill:#744eaa;fill-opacity:1;fill-rule:nonzero;stroke:none" d="M 0,0 0,4 C 3,5 3,7 3,9 L 0,9 -1,9 -4,9 c 0,-2 0,-4 3,-5 l 0,-4 c 0,-1 -1,-3 -3,-3 0,-11.851 2.149,-7.223 3.416,-5.521 C 0.648,-10.983 3,-20.709 3,-3 1,-3 0,-1 0,0"/></g></g></g><g id="g36"><g clip-path="url(#clipPath40)" id="g38"><g transform="translate(37,25)" id="g44"><path id="path46" style="fill:#292f33;fill-opacity:1;fill-rule:nonzero;stroke:none" d="m 0,0 0,-6 c 0,-3 -6.595,0 -8.5,0 -2.1,0 -8.5,-3 -8.5,0 l 0,6 c 0,4.418 3.806,8 8.5,8 C -3.806,8 0,4.418 0,0"/></g><g transform="translate(35,22)" id="g48"><path id="path50" style="fill:#e1e8ed;fill-opacity:1;fill-rule:nonzero;stroke:none" d="M 0,0 C 0,-3 -1,-7 -6.5,-7 -12,-7 -13,-4 -13,0 l 6,0 7,0 z"/></g><g transform="translate(30,17.5)" id="g52"><path id="path54" style="fill:#a0041e;fill-opacity:1;fill-rule:nonzero;stroke:none" d="M 0,0 C 0,-0.276 -0.672,-0.5 -1.5,-0.5 -2.328,-0.5 -3,-0.276 -3,0 -3,0.276 -2.328,0.5 -1.5,0.5 -0.672,0.5 0,0.276 0,0"/></g><g transform="translate(23.1338,20.6387)" id="g56"><path id="path58" style="fill:#292f33;fill-opacity:1;fill-rule:nonzero;stroke:none" d="M 0,0 C 0.905,0.146 2.457,0.47 3.318,-0.318 3.677,-0.579 3.417,-1.321 2.747,-1.002 2.077,-0.684 0.562,-0.599 -0.044,-0.565 -0.649,-0.531 -0.659,-0.106 0,0"/></g><g transform="translate(34.1172,20.6387)" id="g60"><path id="path62" style="fill:#292f33;fill-opacity:1;fill-rule:nonzero;stroke:none" d="m 0,0 c -0.906,0.146 -2.457,0.47 -3.318,-0.318 -0.358,-0.261 -0.098,-1.003 0.572,-0.684 0.669,0.318 2.184,0.403 2.789,0.437 C 0.649,-0.531 0.659,-0.106 0,0"/></g><g transform="translate(33,33)" id="g64"><path id="path66" style="fill:#292f33;fill-opacity:1;fill-rule:nonzero;stroke:none" d="M 0,0 C 0,-1.657 -2.015,-3 -4.5,-3 -6.985,-3 -9,-1.657 -9,0 -9,1.657 -6.985,3 -4.5,3 -2.015,3 0,1.657 0,0"/></g><g transform="translate(31.7051,32.9487)" id="g68"><path id="path70" style="fill:#aa8dd8;fill-opacity:1;fill-rule:nonzero;stroke:none" d="M 0,0 -2.965,-2.015 -6.16,0 c -1.824,1.231 -3.545,0.438 -3.545,-1.762 l 0,-0.291 c 0,-2.2 1.766,-3.063 3.644,-1.919 0,0 1.872,1.018 3.103,1.661 1.204,-0.643 2.858,-1.661 2.858,-1.661 1.879,-1.144 3.395,-0.281 3.395,1.919 l 0,0.291 C 3.295,0.438 1.824,1.231 0,0"/></g><g transform="translate(24,7)" id="g72"><path id="path74" style="fill:#cbb7ea;fill-opacity:1;fill-rule:nonzero;stroke:none" d="m 0,0 c 0,-0.553 -0.447,-1 -1,-1 -0.553,0 -1,0.447 -1,1 0,0.553 0.447,1 1,1 0.553,0 1,-0.447 1,-1"/></g><g transform="translate(27,11)" id="g76"><path id="path78" style="fill:#cbb7ea;fill-opacity:1;fill-rule:nonzero;stroke:none" d="m 0,0 c 0,-0.553 -0.447,-1 -1,-1 -0.553,0 -1,0.447 -1,1 0,0.553 0.447,1 1,1 0.553,0 1,-0.447 1,-1"/></g><g transform="translate(33,8)" id="g80"><path id="path82" style="fill:#cbb7ea;fill-opacity:1;fill-rule:nonzero;stroke:none" d="m 0,0 c 0,-0.553 -0.447,-1 -1,-1 -0.553,0 -1,0.447 -1,1 0,0.553 0.447,1 1,1 0.553,0 1,-0.447 1,-1"/></g><g transform="translate(34,12)" id="g84"><path id="path86" style="fill:#cbb7ea;fill-opacity:1;fill-rule:nonzero;stroke:none" d="m 0,0 c 0,-0.553 -0.447,-1 -1,-1 -0.553,0 -1,0.447 -1,1 0,0.553 0.447,1 1,1 0.553,0 1,-0.447 1,-1"/></g><g transform="translate(17,5)" id="g88"><path id="path90" style="fill:#dd2e44;fill-opacity:1;fill-rule:nonzero;stroke:none" d="m 0,0 c 0,-2.209 -1.791,-3 -4,-3 l -7,0 c -2.209,0 -4,0.791 -4,3 l 0,5 c 0,2.209 1.791,8 4,8 l 7,0 C -1.791,13 0,7.209 0,5 L 0,0 Z"/></g></g></g><g id="g92"><g clip-path="url(#clipPath96)" id="g94"><g transform="translate(10,8)" id="g100"><path id="path102" style="fill:#a0041e;fill-opacity:1;fill-rule:nonzero;stroke:none" d="M 0,0 0,4 C 3,5 3,7 3,9 L 0,9 -1,9 -4,9 c 0,-2 0,-4 3,-5 l 0,-4 c 0,-1 -1,-3 -3,-3 0,-11.851 2.149,-7.223 3.416,-5.521 C 0.649,-10.983 3,-20.709 3,-3 1,-3 0,-1 0,0"/></g></g></g><g id="g104"><g clip-path="url(#clipPath108)" id="g106"><g transform="translate(18,25)" id="g112"><path id="path114" style="fill:#292f33;fill-opacity:1;fill-rule:nonzero;stroke:none" d="m 0,0 0,-8 c 0,-3 -1.999,2 -8.499,2 -6.5,0 -8.501,-5 -8.501,-2 0,3.096 0.002,5.558 0.002,8 0,4.418 3.805,8 8.499,8 C -3.805,8 0,4.418 0,0"/></g><g transform="translate(16,22)" id="g116"><path id="path118" style="fill:#e1e8ed;fill-opacity:1;fill-rule:nonzero;stroke:none" d="M 0,0 C 0,-3 -1,-7 -6.5,-7 -12,-7 -13,-4 -13,0 l 6,0 7,0 z"/></g><g transform="translate(12,33.5)" id="g120"><path id="path122" style="fill:#292f33;fill-opacity:1;fill-rule:nonzero;stroke:none" d="M 0,0 C 0,-1.933 -1.119,-3.5 -2.5,-3.5 -3.88,-3.5 -5,-1.933 -5,0 -5,1.933 -3.88,3.5 -2.5,3.5 -1.119,3.5 0,1.933 0,0"/></g><g transform="translate(11,17.5)" id="g124"><path id="path126" style="fill:#a0041e;fill-opacity:1;fill-rule:nonzero;stroke:none" d="M 0,0 C 0,-0.276 -0.671,-0.5 -1.5,-0.5 -2.329,-0.5 -3,-0.276 -3,0 -3,0.276 -2.329,0.5 -1.5,0.5 -0.671,0.5 0,0.276 0,0"/></g><g transform="translate(6,12)" id="g128"><path id="path130" style="fill:#f4abba;fill-opacity:1;fill-rule:nonzero;stroke:none" d="m 0,0 c 0,-0.553 -0.448,-1 -1,-1 -0.552,0 -1,0.447 -1,1 0,0.553 0.448,1 1,1 0.552,0 1,-0.447 1,-1"/></g><g transform="translate(16,7)" id="g132"><path id="path134" style="fill:#f4abba;fill-opacity:1;fill-rule:nonzero;stroke:none" d="m 0,0 c 0,-0.553 -0.448,-1 -1,-1 -0.552,0 -1,0.447 -1,1 0,0.553 0.448,1 1,1 0.552,0 1,-0.447 1,-1"/></g><g transform="translate(13,11)" id="g136"><path id="path138" style="fill:#f4abba;fill-opacity:1;fill-rule:nonzero;stroke:none" d="m 0,0 c 0,-0.553 -0.448,-1 -1,-1 -0.552,0 -1,0.447 -1,1 0,0.553 0.448,1 1,1 0.552,0 1,-0.447 1,-1"/></g><g transform="translate(8,8)" id="g140"><path id="path142" style="fill:#f4abba;fill-opacity:1;fill-rule:nonzero;stroke:none" d="m 0,0 c 0,-0.553 -0.448,-1 -1,-1 -0.552,0 -1,0.447 -1,1 0,0.553 0.448,1 1,1 0.552,0 1,-0.447 1,-1"/></g><g transform="translate(4.1338,20.6387)" id="g144"><path id="path146" style="fill:#292f33;fill-opacity:1;fill-rule:nonzero;stroke:none" d="M 0,0 C 0.906,0.146 2.457,0.47 3.318,-0.318 3.676,-0.579 3.417,-1.321 2.747,-1.002 2.077,-0.684 0.562,-0.599 -0.043,-0.565 -0.649,-0.531 -0.659,-0.106 0,0"/></g><g transform="translate(15.1172,20.6387)" id="g148"><path id="path150" style="fill:#292f33;fill-opacity:1;fill-rule:nonzero;stroke:none" d="m 0,0 c -0.906,0.146 -2.457,0.47 -3.318,-0.318 -0.358,-0.261 -0.099,-1.003 0.571,-0.684 0.67,0.318 2.185,0.403 2.79,0.437 C 0.649,-0.531 0.659,-0.106 0,0"/></g></g></g></g></svg>
