<svg xmlns="http://www.w3.org/2000/svg" viewBox="0 0 47.5 47.5" enable-background="new 0 0 47.5 47.5"><defs><clipPath id="a"><path d="M0 38h38V0H0v38z"/></clipPath><clipPath id="b"><path d="M11 16c-2.2 0-3-1.8-3-4V8c0-2.2.8-4 3-4h25c2.2 0-4 3.8-4 6s6.2 6 4 6H11z"/></clipPath><clipPath id="c"><path d="M0 38h38V0H0v38z"/></clipPath><clipPath id="d"><path d="M11 32c-2.2 0-3-1.8-3-4v-4c0-2.2.8-4 3-4h25c2.2 0-4 3.8-4 6s6.2 6 4 6H11z"/></clipPath></defs><g><path fill="#ccd6dd" d="M7.5 46.25H5V5h2.5v41.25z"/><g><g clip-path="url(#a)" transform="matrix(1.25 0 0 -1.25 0 47.5)"><g><path fill="#f4900c" d="M8 34c0-1.66-1.34-3-3-3s-3 1.34-3 3 1.34 3 3 3 3-1.34 3-3"/></g><g><path fill="#66757f" d="M10 9H5c-.55 0-1 .45-1 1s.45 1 1 1h5c.55 0 1-.45 1-1s-.45-1-1-1"/></g><g><path fill="#dd2e44" d="M28 15c0-1.66-2.46-3-5.5-3S17 13.34 17 15s.46 4 3.5 4 7.5-2.34 7.5-4"/></g><g><path fill="#dd2e44" d="M32 10c0-2.2 6.2-6 4-6H11C8.8 4 8 5.8 8 8v4c0 2.2.8 4 3 4h25c2.2 0-4-3.8-4-6"/></g><g><path fill="#fff" d="M16 12c0-1.66-1.34-3-3-3s-3 1.34-3 3 1.34 3 3 3 3-1.34 3-3"/></g><g><path d="M14 12.5c0-.83-.67-1.5-1.5-1.5s-1.5.67-1.5 1.5.67 1.5 1.5 1.5 1.5-.67 1.5-1.5"/></g></g></g><g><g clip-path="url(#b)" transform="matrix(1.25 0 0 -1.25 0 47.5)"><g><path fill="#f4abba" d="M16 17c2-2 7-7 0-14 4-1 10-1.46 16-1 6 .46 6 4.75 6 7.2 0 2.47 6 7.8-1 8.8-7 1-21-1-21-1"/></g></g></g><g><g clip-path="url(#c)" transform="matrix(1.25 0 0 -1.25 0 47.5)"><g><path fill="#66757f" d="M10 25H5c-.55 0-1 .45-1 1s.45 1 1 1h5c.55 0 1-.45 1-1s-.45-1-1-1"/></g><g><path fill="#55acee" d="M28 31c0-1.66-2.46-3-5.5-3S17 29.34 17 31s.46 4 3.5 4 7.5-2.34 7.5-4"/></g><g><path fill="#55acee" d="M32 26c0-2.2 6.2-6 4-6H11c-2.2 0-3 1.8-3 4v4c0 2.2.8 4 3 4h25c2.2 0-4-3.8-4-6"/></g><g><path fill="#fff" d="M16 28c0-1.66-1.34-3-3-3s-3 1.34-3 3 1.34 3 3 3 3-1.34 3-3"/></g><g><path d="M14 28.5c0-.83-.67-1.5-1.5-1.5s-1.5.67-1.5 1.5.67 1.5 1.5 1.5 1.5-.67 1.5-1.5"/></g></g></g><g><g clip-path="url(#d)" transform="matrix(1.25 0 0 -1.25 0 47.5)"><g><path fill="#bbddf5" d="M16 33c2-2 7-7 0-14 4-1 10-1.46 16-1 6 .46 6 4.75 6 7.2 0 2.47 6 7.8-1 8.8-7 1-21-1-21-1"/></g></g></g></g></svg>