<?xml version="1.0" encoding="UTF-8" standalone="no"?><svg xmlns:svg="http://www.w3.org/2000/svg" xmlns="http://www.w3.org/2000/svg" version="1.1" viewBox="0 0 47.5 47.5" style="enable-background:new 0 0 47.5 47.5;" id="svg2" xml:space="preserve"><defs id="defs6"><clipPath id="clipPath18"><path d="M 0,38 38,38 38,0 0,0 0,38 z" id="path20"/></clipPath><clipPath id="clipPath34"><path d="m 19.456,19.727 c 0,0 3.078,-12.977 9.304,-16.719 l 0,0 c 1.041,-0.625 2.135,-0.98 2.169,-0.035 l 0,0 c 0.028,0.769 -0.034,3.007 -0.243,3.742 l 0,0 c 0.7,-0.316 2.412,-0.63 3.601,-0.49 l 0,0 c 1.189,0.14 2.554,1.574 1.085,1.644 l 0,0 C 29.041,7.554 26.663,21.336 26.138,23.015 l 0,0 c -1.295,-0.594 -5.807,-2.763 -6.682,-3.288" id="path36"/></clipPath><clipPath id="clipPath46"><path d="M 0,38 38,38 38,0 0,0 0,38 z" id="path48"/></clipPath></defs><g transform="matrix(1.25,0,0,-1.25,0,47.5)" id="g12"><g id="g14"><g clip-path="url(#clipPath18)" id="g16"><g transform="translate(22.293,21.542)" id="g22"><path d="M 0,0 C -0.353,0 -0.694,0.187 -0.877,0.518 -1.88,2.338 -2.258,4.288 -2.562,5.854 -2.644,6.281 -2.723,6.688 -2.81,7.069 -2.933,7.607 -2.596,8.144 -2.058,8.267 -1.515,8.39 -0.982,8.053 -0.86,7.514 -0.769,7.113 -0.686,6.684 -0.598,6.235 -0.307,4.731 0.023,3.028 0.875,1.482 1.142,0.999 0.965,0.391 0.481,0.124 0.328,0.04 0.163,0 0,0" id="path24" style="fill:#000000;fill-opacity:1;fill-rule:nonzero;stroke:none"/></g><g transform="translate(19.4561,19.7275)" id="g26"><path d="m 0,0 c 0.875,0.524 5.387,2.693 6.682,3.288 0.524,-1.679 2.903,-15.462 9.234,-15.146 1.469,-0.07 0.105,-1.504 -1.085,-1.644 -1.188,-0.141 -2.901,0.174 -3.602,0.489 0.21,-0.734 0.272,-2.972 0.245,-3.742 -0.035,-0.945 -1.129,-0.59 -2.169,0.035 C 3.078,-12.978 0,0 0,0" id="path28" style="fill:#be1931;fill-opacity:1;fill-rule:nonzero;stroke:none"/></g></g></g><g id="g30"><g clip-path="url(#clipPath34)" id="g32"><g transform="translate(19.2119,17.7686)" id="g38"><path d="M 0,0 C 0.244,0.14 8.43,3.813 8.43,3.813 L 7.171,6.086 c 0,0 -8.15,-3.393 -8.046,-3.393 C -0.77,2.693 0,0 0,0" id="path40" style="fill:#a0041e;fill-opacity:1;fill-rule:nonzero;stroke:none"/></g></g></g><g id="g42"><g clip-path="url(#clipPath46)" id="g44"><g transform="translate(19.2119,19.5522)" id="g50"><path d="M 0,0 C 1.135,0.454 6.191,2.764 7.205,3.253 8.22,3.743 7.905,5.597 6.716,5.177 5.526,4.757 0.664,2.414 -0.49,1.924 -1.644,1.435 -0.875,-0.35 0,0" id="path52" style="fill:#ffac33;fill-opacity:1;fill-rule:nonzero;stroke:none"/></g><g transform="translate(7.1948,22.9556)" id="g54"><path d="M 0,0 C -1.895,1.62 4.242,5.004 7.798,6.138 7.547,5.066 2.734,-2.336 0,0" id="path56" style="fill:#a6d388;fill-opacity:1;fill-rule:nonzero;stroke:none"/></g><g transform="translate(26.5391,32.6143)" id="g58"><path d="M 0,0 C 0.964,2.299 6.061,-2.512 8.226,-5.55 7.129,-5.639 -1.39,-3.317 0,0" id="path60" style="fill:#a6d388;fill-opacity:1;fill-rule:nonzero;stroke:none"/></g><g transform="translate(4.0835,1.375)" id="g62"><path d="m 0,0 c -0.829,0 -1.5,0.672 -1.5,1.5 0,0.192 -0.005,0.438 -0.011,0.734 -0.087,4.165 -0.059,16.531 8.428,30.808 0.423,0.712 1.055,1.254 1.766,0.831 C 9.395,33.45 9.006,32.504 8.583,31.792 0.534,18.253 1.406,6.249 1.488,2.297 1.495,1.975 1.5,1.708 1.5,1.5 1.5,0.672 0.829,0 0,0" id="path64" style="fill:#5c913b;fill-opacity:1;fill-rule:nonzero;stroke:none"/></g><g transform="translate(3.082,3.959)" id="g66"><path d="m 0,0 c -0.787,0 -1.448,0.613 -1.496,1.41 -0.049,0.827 0.58,1.537 1.408,1.587 L 1.995,3.122 C 2.82,3.183 3.532,2.542 3.582,1.715 3.631,0.888 3.001,0.178 2.174,0.128 L 0.091,0.003 C 0.061,0.001 0.03,0 0,0" id="path68" style="fill:#3e721d;fill-opacity:1;fill-rule:nonzero;stroke:none"/></g><g transform="translate(8.71,1.417)" id="g70"><path d="m 0,0 c -0.095,0 -0.19,0.009 -0.287,0.027 -0.814,0.159 -1.345,0.946 -1.187,1.759 0.035,0.18 0.078,0.448 0.132,0.793 3.4,21.295 13.516,28.269 21.799,30.838 0.799,0.244 2.104,0.359 2.349,-0.431 0.245,-0.792 -0.6,-1.282 -1.391,-1.528 C 13.943,29.142 4.777,21.879 1.621,2.106 1.559,1.719 1.51,1.417 1.471,1.214 1.332,0.497 0.704,0 0,0" id="path72" style="fill:#5c913b;fill-opacity:1;fill-rule:nonzero;stroke:none"/></g><g transform="translate(10.916,28.375)" id="g74"><path d="M 0,0 C -0.199,0 -0.4,0.04 -0.594,0.123 L -2.719,1.04 c -0.76,0.328 -1.111,1.21 -0.783,1.971 0.328,0.762 1.211,1.112 1.972,0.783 L 0.595,2.878 C 1.355,2.55 1.706,1.667 1.378,0.906 1.133,0.339 0.581,0 0,0" id="path76" style="fill:#3e721d;fill-opacity:1;fill-rule:nonzero;stroke:none"/></g><g transform="translate(6.4595,16.084)" id="g78"><path d="m 0,0 c -0.125,0 -0.251,0.016 -0.377,0.048 l -2.25,0.583 c -0.802,0.208 -1.284,1.026 -1.076,1.828 0.208,0.802 1.025,1.285 1.828,1.076 L 0.375,2.952 C 1.177,2.744 1.659,1.926 1.451,1.124 1.276,0.448 0.667,0 0,0" id="path80" style="fill:#3e721d;fill-opacity:1;fill-rule:nonzero;stroke:none"/></g><g transform="translate(23.668,28.2505)" id="g82"><path d="M 0,0 C -0.481,0 -0.955,0.232 -1.245,0.662 L -2.537,2.578 C -3,3.265 -2.818,4.197 -2.132,4.66 -1.445,5.122 -0.513,4.942 -0.049,4.255 L 1.243,2.338 C 1.706,1.651 1.524,0.719 0.838,0.256 0.58,0.083 0.289,0 0,0" id="path84" style="fill:#3e721d;fill-opacity:1;fill-rule:nonzero;stroke:none"/></g><g transform="translate(15.665,18.708)" id="g86"><path d="m 0,0 c -0.235,0 -0.473,0.056 -0.695,0.172 l -2.542,1.334 c -0.734,0.385 -1.016,1.291 -0.631,2.025 0.385,0.733 1.292,1.016 2.025,0.631 L 0.698,2.829 C 1.432,2.444 1.715,1.537 1.33,0.804 1.062,0.292 0.54,0 0,0" id="path88" style="fill:#3e721d;fill-opacity:1;fill-rule:nonzero;stroke:none"/></g><g transform="translate(10.9175,7.042)" id="g90"><path d="m 0,0 c -0.127,0 -0.255,0.016 -0.384,0.05 l -2.208,0.583 c -0.801,0.211 -1.279,1.032 -1.067,1.833 0.212,0.801 1.035,1.279 1.833,1.067 L 0.382,2.95 C 1.183,2.739 1.661,1.918 1.449,1.117 1.271,0.444 0.665,0 0,0" id="path92" style="fill:#3e721d;fill-opacity:1;fill-rule:nonzero;stroke:none"/></g><g transform="translate(5.9585,21.792)" id="g94"><path d="M 0,0 C -2.252,-1.068 -2.834,5.917 -2.417,9.625 -1.542,8.958 3.25,1.542 0,0" id="path96" style="fill:#a6d388;fill-opacity:1;fill-rule:nonzero;stroke:none"/></g></g></g></g></svg>
