<svg xmlns="http://www.w3.org/2000/svg" viewBox="0 0 47.5 47.5" enable-background="new 0 0 47.5 47.5"><defs><clipPath id="a"><path d="M0 38h38V0H0v38z"/></clipPath></defs><g><g><g clip-path="url(#a)" transform="matrix(1.25 0 0 -1.25 0 47.5)"><g><path fill="#269" d="M37 33c0 2.2-1.8 4-4 4H5c-2.2 0-4-1.8-4-4V5c0-2.2 1.8-4 4-4h28c2.2 0 4 1.8 4 4v28z"/></g><g><path fill="#ffd983" d="M18 16z"/></g><g><path fill="#ffcc4d" d="M19 17c-.42 0-.8-.26-.95-.68l-3-9c-.17-.53.1-1.1.63-1.27.53-.18 1.1.1 1.27.63l3 9c.17.53-.1 1.1-.63 1.27-.1.03-.22.05-.32.05"/></g><g><path fill="#ffcc4d" d="M19 17c-.1 0-.17 0-.26-.04-.54-.14-.85-.7-.7-1.22l3.22-11.86c.15-.53.7-.84 1.23-.7.52.14.84.7.7 1.23l-3.24 11.86c-.12.45-.52.74-.96.74"/></g><g><path fill="#ffcc4d" d="M19 17c-.22 0-.44-.07-.62-.22L5.13 6.28c-.43-.34-.5-.97-.16-1.4.34-.43.97-.5 1.4-.16l13.25 10.5c.43.34.5.97.16 1.4-.2.25-.5.38-.78.38"/></g><g><path fill="#ffcc4d" d="M19 17c-.04 0-.08 0-.1 0L6.54 15.57c-.55-.07-.94-.56-.88-1.1.07-.56.57-.96 1.1-.9l12.34 1.43c.56.07.96.57.9 1.1-.06.52-.5.9-1 .9"/></g><g><path fill="#ffcc4d" d="M4.5 23.92c-.37 0-.73-.2-.9-.57-.24-.5-.03-1.1.47-1.33l14.5-6.92c.5-.24 1.1-.03 1.33.47.24.5.03 1.1-.47 1.33l-14.5 6.92c-.14.07-.28.1-.43.1"/></g><g><path fill="#ffcc4d" d="M8.33 32.17c-.2 0-.4-.06-.57-.2-.45-.3-.56-.93-.24-1.38L18.18 15.4c.32-.45.94-.56 1.4-.24.45.32.56.94.24 1.4L9.15 31.73c-.2.28-.5.43-.82.43"/></g><g><path fill="#ffcc4d" d="M19 17c-.28 0-.55-.1-.75-.34-.36-.4-.33-1.04.1-1.4l11.7-10.38c.4-.37 1.04-.33 1.4.08.37.42.33 1.05-.08 1.4l-11.7 10.4c-.2.16-.43.24-.67.24"/></g><g><path fill="#ffcc4d" d="M19 17c-.42 0-.8-.27-.95-.7-.17-.5.1-1.08.64-1.25L31 10.97c.53-.18 1.1.1 1.26.63.18.53-.1 1.1-.63 1.27L19.3 16.95c-.1.03-.2.05-.3.05"/></g><g><path fill="#ffcc4d" d="M32.84 18.5c-.04 0-.08 0-.1 0L18.88 17c-.56-.07-.95-.56-.9-1.1.07-.56.56-.95 1.1-.9l13.84 1.5c.55.07.95.56.9 1.1-.07.52-.5.9-1 .9"/></g><g><path fill="none" stroke="#ffcc4d" stroke-width="2" stroke-miterlimit="10" d="M19 16l8.92 6.5" stroke-linecap="round"/></g><g><path fill="none" stroke="#ffcc4d" stroke-width="2" stroke-miterlimit="10" d="M19 16l7.83 13" stroke-linecap="round"/></g><g><path fill="#55acee" d="M21 37h-4V18c0-1.1.9-2 2-2s2 .9 2 2v19z"/></g><g><path fill="#f5f8fa" d="M22 16c0 1.66-1.34 3-3 3s-3-1.34-3-3 1.34-3 3-3 3 1.34 3 3"/></g><g><path fill="#f5f8fa" d="M7.96 5.3c0 1.3-1.05 2.36-2.36 2.36-1.3 0-2.36-1.05-2.36-2.35S4.3 2.96 5.6 2.96C6.9 2.95 7.96 4 7.96 5.3"/></g><g><path fill="#f5f8fa" d="M33.67 5.63c0 1.63-1.33 2.95-2.96 2.95s-2.95-1.32-2.95-2.96c0-1.63 1.32-2.95 2.96-2.95S33.68 4 33.68 5.63"/></g><g><path fill="#f5f8fa" d="M23.83 4.14c0 .9-.72 1.6-1.6 1.6-.9 0-1.6-.7-1.6-1.6 0-.88.7-1.6 1.6-1.6.88 0 1.6.72 1.6 1.6"/></g><g><path fill="#f5f8fa" d="M5.83 23.08c0 .97-.8 1.75-1.75 1.75-.97 0-1.75-.78-1.75-1.75 0-.96.78-1.75 1.75-1.75.96 0 1.75.8 1.75 1.75"/></g><g><path fill="#f5f8fa" d="M10.75 31.83c0 1.57-1.27 2.84-2.83 2.84-1.57 0-2.84-1.27-2.84-2.84 0-1.56 1.27-2.83 2.84-2.83 1.56 0 2.83 1.27 2.83 2.83"/></g><g><path fill="#f5f8fa" d="M35.33 17.58c0 1.22-.98 2.2-2.2 2.2-1.22 0-2.2-.98-2.2-2.2 0-1.22.98-2.2 2.2-2.2 1.2 0 2.2.98 2.2 2.2"/></g><g><path fill="#f5f8fa" d="M28.67 29c0 .97-.8 1.75-1.75 1.75-.97 0-1.75-.78-1.75-1.75s.78-1.75 1.75-1.75c.96 0 1.75.78 1.75 1.75"/></g></g></g></g></svg>