<svg xmlns="http://www.w3.org/2000/svg" viewBox="0 0 47.5 47.5" enable-background="new 0 0 47.5 47.5"><defs><clipPath id="a"><path d="M0 38h38V0H0v38z"/></clipPath></defs><g><g><g clip-path="url(#a)" transform="matrix(1.25 0 0 -1.25 0 47.5)"><g><path fill="#939598" d="M37 12c0-5.52-8.06-10-18-10S1 6.48 1 12s8.06 10 18 10 18-4.48 18-10"/></g><g><path fill="#f1f2f2" d="M37 14c0-5.52-8.06-10-18-10S1 8.48 1 14s8.06 10 18 10 18-4.48 18-10"/></g><g><path fill="#ccd6dd" d="M33.8 15c0-4.54-6.63-8.22-14.8-8.22-8.17 0-14.8 3.68-14.8 8.22 0 4.54 6.63 8.22 14.8 8.22 8.17 0 14.8-3.68 14.8-8.22"/></g><g><path fill="#8a4b38" d="M30 15c0-3.07-4.93-5.56-11-5.56-6.08 0-11 2.5-11 5.56 0 3.07 4.92 5.56 11 5.56 6.07 0 11-2.5 11-5.56"/></g><g><path fill="#ad5540" d="M32.4 14.96c0-3.9-6-7.05-13.4-7.05S5.6 11.08 5.6 14.97c0 3.9 6 7.04 13.4 7.04s13.4-3.15 13.4-7.04"/></g><g><path fill="#662113" d="M32 16c0-9-26-9-26 0v8h26v-8z"/></g><g><path fill="#ad5540" d="M32.4 24.96c0-3.9-6-7.05-13.4-7.05S5.6 21.08 5.6 24.97c0 3.9 6 7.04 13.4 7.04s13.4-3.15 13.4-7.04"/></g><g><path fill="#88c9f9" d="M12 24c-.55 0-1 .45-1 1v7c0 .55.45 1 1 1s1-.45 1-1v-7c0-.55-.45-1-1-1"/></g><g><path fill="#88c9f9" d="M19 21c-.55 0-1 .45-1 1v7c0 .55.45 1 1 1s1-.45 1-1v-7c0-.55-.45-1-1-1"/></g><g><path fill="#88c9f9" d="M26 24c-.55 0-1 .45-1 1v7c0 .55.45 1 1 1s1-.45 1-1v-7c0-.55-.45-1-1-1"/></g><g><path fill="#ffac33" d="M26 30.5c-1.06 0-1.9.5-2.23 1.3-.3.7-.44 2.24 1.88 4.55.2.2.5.2.7 0 2.32-2.3 2.17-3.85 1.88-4.55-.33-.8-1.17-1.3-2.23-1.3"/></g><g><path fill="#ffac33" d="M19 27.5c-1.06 0-1.9.5-2.23 1.3-.3.7-.44 2.24 1.88 4.55.2.2.5.2.7 0 2.32-2.3 2.17-3.85 1.88-4.55-.33-.8-1.17-1.3-2.23-1.3"/></g><g><path fill="#ffac33" d="M12 30.5c-1.06 0-1.9.5-2.23 1.3-.3.7-.44 2.24 1.88 4.55.2.2.5.2.7 0 2.32-2.3 2.18-3.85 1.88-4.55-.33-.8-1.17-1.3-2.23-1.3"/></g></g></g></g></svg>