<svg xmlns="http://www.w3.org/2000/svg" viewBox="0 0 47.5 47.5" enable-background="new 0 0 47.5 47.5"><defs><clipPath id="a"><path d="M0 38h38V0H0v38z"/></clipPath></defs><g><g><g clip-path="url(#a)" transform="matrix(1.25 0 0 -1.25 0 47.5)"><g><path fill="#292f33" d="M27 28c-3.6 0-6.27 1.65-8 4.9-1.62-3.2-4-4.9-7-4.9-.55 0-1 .45-1 1s.45 1 1 1c2.73 0 4.76 1.96 6.05 5.82.14.4.52.68.95.68.43 0 .8-.28.95-.68C21.27 31.85 23.5 30 27 30c.55 0 1-.45 1-1s-.45-1-1-1"/></g><g><path fill="#ffac33" d="M15.6 27.35c3.37-3.37.5-5.96-2.86-9.32-3.37-3.37-5.96-6.23-9.32-2.87-3.37 3.37-3.37 8.82 0 12.2 3.36 3.35 8.82 3.35 12.18 0"/></g><g><path fill="#be1931" d="M16.44 26.03c1.58-1.6.24-5.5-3-8.72-3.22-3.22-7.12-4.56-8.7-2.97-1.6 1.58-.25 5.48 2.98 8.7 3.23 3.25 7.13 4.58 8.72 3"/></g><g><path fill="#ffac33" d="M22.3 27.35c-3.36-3.37-.5-5.96 2.87-9.32 3.36-3.37 5.95-6.23 9.32-2.87 3.35 3.37 3.35 8.82 0 12.2-3.38 3.35-8.83 3.35-12.2 0"/></g><g><path fill="#be1931" d="M21.47 26.03c-1.6-1.6-.25-5.5 2.98-8.72 3.23-3.22 7.13-4.56 8.72-2.97 1.58 1.58.25 5.48-2.98 8.7-3.25 3.25-7.15 4.58-8.73 3"/></g><g><path fill="#aa8dd8" d="M23.4 18.78c.2.16.47.24.74.2.87-.08 1.6-.38 2.1-.86.56-.5.82-1.18.75-1.86-.14-1.2-1.34-2.3-3.37-2.07-.8.08-1.15-.18-1.16-.3-.02-.12.27-.44 1.07-.53.86-.1 1.6-.4 2.1-.87.55-.5.82-1.2.74-1.87-.13-1.2-1.32-2.28-3.36-2.06-.58.06-.88-.06-1-.13s-.16-.13-.16-.16c0-.12.28-.45 1.07-.53.55-.06.95-.56.9-1.1-.07-.55-.56-.95-1.1-.9-2.05.23-3 1.55-2.86 2.74.13 1.2 1.33 2.28 3.36 2.06.58-.06.9.06 1 .13.12.06.16.12.16.15 0 .12-.28.45-1.08.53-2.03.22-2.97 1.54-2.84 2.74.13 1.2 1.32 2.28 3.36 2.06.58-.06.88.06 1 .14.12.06.16.12.16.15 0 .12-.28.45-1.07.54-.55.07-.95.56-.9 1.1.04.28.18.52.38.68"/></g><g><path fill="#77b255" d="M16.27 1c-1.98-.54-3.34.34-3.66 1.5-.32 1.15.4 2.6 2.36 3.16.77.22 1 .58.97.7-.04.12-.43.3-1.2.1-1.97-.56-3.33.32-3.65 1.48-.33 1.15.37 2.6 2.35 3.17.77.22 1 .6.96.7-.04.13-.43.32-1.2.1-.53-.15-1.08.16-1.23.7-.15.53.16 1.08.7 1.23 1.96.55 3.33-.32 3.65-1.48.33-1.15-.38-2.6-2.35-3.17-.77-.22-1-.58-.97-.7.03-.12.42-.3 1.2-.1 1.97.56 3.33-.32 3.65-1.48.33-1.15-.38-2.6-2.35-3.16-.77-.22-1-.6-.97-.7.04-.12.43-.32 1.2-.1.53.15 1.08-.16 1.23-.7.15-.52-.16-1.08-.7-1.23"/></g><g><path fill="#5c913b" d="M2 9.5c0 .83.67 1.5 1.5 1.5S5 10.33 5 9.5 4.33 8 3.5 8 2 8.67 2 9.5"/></g><g><path fill="#9266cc" d="M6 6c0 1.1.9 2 2 2s2-.9 2-2-.9-2-2-2-2 .9-2 2"/></g><g><path fill="#9266cc" d="M29 10c0 1.1.9 2 2 2s2-.9 2-2-.9-2-2-2-2 .9-2 2"/></g><g><path fill="#5c913b" d="M25 5.5c0 .83.67 1.5 1.5 1.5S28 6.33 28 5.5 27.33 4 26.5 4 25 4.67 25 5.5"/></g><g><path fill="#5c913b" d="M17 17.5c0 .83.67 1.5 1.5 1.5s1.5-.67 1.5-1.5-.67-1.5-1.5-1.5-1.5.67-1.5 1.5"/></g><g><path fill="#ffcc4d" d="M6 14c0 1.1.9 2 2 2s2-.9 2-2-.9-2-2-2-2 .9-2 2"/></g><g><path fill="#ffcc4d" d="M27 20.5c0 .83.67 1.5 1.5 1.5s1.5-.67 1.5-1.5-.67-1.5-1.5-1.5-1.5.67-1.5 1.5"/></g><g><path fill="#ffcc4d" d="M12 22.5c0 .83.67 1.5 1.5 1.5s1.5-.67 1.5-1.5-.67-1.5-1.5-1.5-1.5.67-1.5 1.5"/></g></g></g></g></svg>