<?xml version="1.0" encoding="UTF-8" standalone="no"?>
<!-- Created with Inkscape (http://www.inkscape.org/) -->

<svg
   xmlns:svg="http://www.w3.org/2000/svg"
   xmlns="http://www.w3.org/2000/svg"
   version="1.1"
   width="47.5"
   height="47.5"
   id="svg2"
   xml:space="preserve"><defs
     id="defs6"><clipPath
       id="clipPath18"><path
         d="M 0,38 38,38 38,0 0,0 0,38 z"
         id="path20" /></clipPath></defs><g
     transform="matrix(1.25,0,0,-1.25,0,47.5)"
     id="g12"><g
       id="g14"><g
         clip-path="url(#clipPath18)"
         id="g16"><g
           transform="translate(37,33)"
           id="g22"><path
             d="m 0,0 c 0,2.209 -1.791,4 -4,4 l -28,0 c -2.209,0 -4,-1.791 -4,-4 l 0,-28 c 0,-2.209 1.791,-4 4,-4 l 28,0 c 2.209,0 4,1.791 4,4 L 0,0 z"
             id="path24"
             style="fill:#226699;fill-opacity:1;fill-rule:nonzero;stroke:none" /></g><g
           transform="translate(18,16)"
           id="g26"><path
             d="M 0,0 z"
             id="path28"
             style="fill:#ffd983;fill-opacity:1;fill-rule:nonzero;stroke:none" /></g><g
           transform="translate(19,17.0005)"
           id="g30"><path
             d="m 0,0 c -0.419,0 -0.809,-0.265 -0.949,-0.684 l -3,-9 c -0.175,-0.524 0.109,-1.09 0.633,-1.265 0.525,-0.177 1.09,0.109 1.265,0.632 l 3,9 C 1.123,-0.793 0.84,-0.227 0.316,-0.052 0.211,-0.017 0.105,0 0,0"
             id="path32"
             style="fill:#ffcc4d;fill-opacity:1;fill-rule:nonzero;stroke:none" /></g><g
           transform="translate(19.0005,17.0005)"
           id="g34"><path
             d="M 0,0 C -0.087,0 -0.175,-0.012 -0.263,-0.036 -0.796,-0.181 -1.11,-0.73 -0.965,-1.263 L 2.261,-13.12 c 0.146,-0.532 0.697,-0.845 1.228,-0.702 0.533,0.145 0.847,0.695 0.702,1.228 L 0.964,-0.738 C 0.843,-0.293 0.44,0 0,0"
             id="path36"
             style="fill:#ffcc4d;fill-opacity:1;fill-rule:nonzero;stroke:none" /></g><g
           transform="translate(18.9995,17)"
           id="g38"><path
             d="m 0,0 c -0.218,0 -0.437,-0.071 -0.621,-0.216 l -13.25,-10.5 c -0.432,-0.343 -0.505,-0.972 -0.162,-1.405 0.343,-0.433 0.972,-0.504 1.405,-0.163 l 13.25,10.5 c 0.432,0.343 0.506,0.972 0.162,1.405 C 0.587,-0.13 0.295,0 0,0"
             id="path40"
             style="fill:#ffcc4d;fill-opacity:1;fill-rule:nonzero;stroke:none" /></g><g
           transform="translate(19.0015,17)"
           id="g42"><path
             d="m 0,0 c -0.039,0 -0.077,-0.002 -0.116,-0.006 l -12.333,-1.417 c -0.548,-0.063 -0.942,-0.559 -0.879,-1.108 0.063,-0.549 0.565,-0.944 1.108,-0.879 l 12.333,1.416 c 0.548,0.063 0.942,0.559 0.879,1.108 C 0.934,-0.376 0.501,0 0,0"
             id="path44"
             style="fill:#ffcc4d;fill-opacity:1;fill-rule:nonzero;stroke:none" /></g><g
           transform="translate(4.5005,23.917)"
           id="g46"><path
             d="m 0,0 c -0.373,0 -0.731,-0.21 -0.903,-0.569 -0.238,-0.499 -0.027,-1.096 0.472,-1.333 l 14.5,-6.917 c 0.497,-0.24 1.095,-0.027 1.333,0.471 0.238,0.499 0.027,1.096 -0.472,1.333 L 0.43,-0.098 C 0.291,-0.031 0.145,0 0,0"
             id="path48"
             style="fill:#ffcc4d;fill-opacity:1;fill-rule:nonzero;stroke:none" /></g><g
           transform="translate(8.3325,32.167)"
           id="g50"><path
             d="M 0,0 C -0.199,0 -0.399,-0.059 -0.574,-0.182 -1.026,-0.5 -1.135,-1.123 -0.817,-1.575 L 9.85,-16.742 c 0.317,-0.452 0.941,-0.561 1.393,-0.243 0.452,0.317 0.56,0.941 0.242,1.393 L 0.819,-0.425 C 0.625,-0.148 0.314,0 0,0"
             id="path52"
             style="fill:#ffcc4d;fill-opacity:1;fill-rule:nonzero;stroke:none" /></g><g
           transform="translate(19.0005,17)"
           id="g54"><path
             d="m 0,0 c -0.276,0 -0.551,-0.114 -0.749,-0.337 -0.366,-0.413 -0.328,-1.045 0.085,-1.412 l 11.708,-10.375 c 0.414,-0.365 1.045,-0.328 1.412,0.086 0.366,0.413 0.328,1.045 -0.085,1.412 L 0.663,-0.251 C 0.472,-0.083 0.236,0 0,0"
             id="path56"
             style="fill:#ffcc4d;fill-opacity:1;fill-rule:nonzero;stroke:none" /></g><g
           transform="translate(19,17.0005)"
           id="g58"><path
             d="m 0,0 c -0.419,0 -0.81,-0.266 -0.949,-0.686 -0.174,-0.525 0.111,-1.09 0.635,-1.264 l 12.333,-4.083 c 0.528,-0.175 1.09,0.112 1.263,0.635 0.174,0.524 -0.11,1.09 -0.634,1.264 L 0.314,-0.051 C 0.21,-0.017 0.104,0 0,0"
             id="path60"
             style="fill:#ffcc4d;fill-opacity:1;fill-rule:nonzero;stroke:none" /></g><g
           transform="translate(32.835,18.5)"
           id="g62"><path
             d="m 0,0 c -0.036,0 -0.072,-0.002 -0.108,-0.006 l -13.835,-1.5 c -0.549,-0.059 -0.946,-0.553 -0.886,-1.102 0.06,-0.549 0.558,-0.944 1.102,-0.886 l 13.833,1.5 c 0.55,0.059 0.947,0.553 0.887,1.102 C 0.937,-0.38 0.504,0 0,0"
             id="path64"
             style="fill:#ffcc4d;fill-opacity:1;fill-rule:nonzero;stroke:none" /></g><g
           transform="translate(19,16)"
           id="g66"><path
             d="M 0,0 8.917,6.5"
             id="path68"
             style="fill:none;stroke:#ffcc4d;stroke-width:2;stroke-linecap:round;stroke-linejoin:miter;stroke-miterlimit:10;stroke-opacity:1;stroke-dasharray:none" /></g><g
           transform="translate(19,16)"
           id="g70"><path
             d="M 0,0 7.834,13"
             id="path72"
             style="fill:none;stroke:#ffcc4d;stroke-width:2;stroke-linecap:round;stroke-linejoin:miter;stroke-miterlimit:10;stroke-opacity:1;stroke-dasharray:none" /></g><g
           transform="translate(21,37)"
           id="g74"><path
             d="m 0,0 -4,0 0,-19 c 0,-1.104 0.896,-2 2,-2 1.105,0 2,0.896 2,2 L 0,0 z"
             id="path76"
             style="fill:#55acee;fill-opacity:1;fill-rule:nonzero;stroke:none" /></g><g
           transform="translate(22,16)"
           id="g78"><path
             d="m 0,0 c 0,1.657 -1.343,3 -3,3 -1.657,0 -3,-1.343 -3,-3 0,-1.657 1.343,-3 3,-3 1.657,0 3,1.343 3,3"
             id="path80"
             style="fill:#f5f8fa;fill-opacity:1;fill-rule:nonzero;stroke:none" /></g><g
           transform="translate(7.9629,5.3057)"
           id="g82"><path
             d="m 0,0 c 0,1.303 -1.057,2.359 -2.359,2.359 -1.304,0 -2.36,-1.056 -2.36,-2.359 0,-1.303 1.056,-2.359 2.36,-2.359 C -1.057,-2.359 0,-1.303 0,0"
             id="path84"
             style="fill:#f5f8fa;fill-opacity:1;fill-rule:nonzero;stroke:none" /></g><g
           transform="translate(33.666,5.625)"
           id="g86"><path
             d="m 0,0 c 0,1.634 -1.324,2.958 -2.958,2.958 -1.634,0 -2.958,-1.324 -2.958,-2.958 0,-1.634 1.324,-2.958 2.958,-2.958 C -1.324,-2.958 0,-1.634 0,0"
             id="path88"
             style="fill:#f5f8fa;fill-opacity:1;fill-rule:nonzero;stroke:none" /></g><g
           transform="translate(23.833,4.144)"
           id="g90"><path
             d="m 0,0 c 0,0.887 -0.719,1.606 -1.606,1.606 -0.887,0 -1.606,-0.719 -1.606,-1.606 0,-0.887 0.719,-1.606 1.606,-1.606 C -0.719,-1.606 0,-0.887 0,0"
             id="path92"
             style="fill:#f5f8fa;fill-opacity:1;fill-rule:nonzero;stroke:none" /></g><g
           transform="translate(5.8271,23.083)"
           id="g94"><path
             d="M 0,0 C 0,0.967 -0.784,1.75 -1.75,1.75 -2.716,1.75 -3.5,0.967 -3.5,0 c 0,-0.967 0.784,-1.75 1.75,-1.75 C -0.784,-1.75 0,-0.967 0,0"
             id="path96"
             style="fill:#f5f8fa;fill-opacity:1;fill-rule:nonzero;stroke:none" /></g><g
           transform="translate(10.75,31.833)"
           id="g98"><path
             d="m 0,0 c 0,1.565 -1.269,2.833 -2.833,2.833 -1.565,0 -2.834,-1.268 -2.834,-2.833 0,-1.564 1.269,-2.833 2.834,-2.833 C -1.269,-2.833 0,-1.564 0,0"
             id="path100"
             style="fill:#f5f8fa;fill-opacity:1;fill-rule:nonzero;stroke:none" /></g><g
           transform="translate(35.334,17.5835)"
           id="g102"><path
             d="M 0,0 C 0,1.22 -0.989,2.209 -2.209,2.209 -3.428,2.209 -4.417,1.22 -4.417,0 c 0,-1.22 0.989,-2.208 2.208,-2.208 C -0.989,-2.208 0,-1.22 0,0"
             id="path104"
             style="fill:#f5f8fa;fill-opacity:1;fill-rule:nonzero;stroke:none" /></g><g
           transform="translate(28.667,29)"
           id="g106"><path
             d="M 0,0 C 0,0.967 -0.783,1.75 -1.75,1.75 -2.717,1.75 -3.5,0.967 -3.5,0 c 0,-0.967 0.783,-1.75 1.75,-1.75 C -0.783,-1.75 0,-0.967 0,0"
             id="path108"
             style="fill:#f5f8fa;fill-opacity:1;fill-rule:nonzero;stroke:none" /></g></g></g></g></svg>