<svg xmlns="http://www.w3.org/2000/svg" viewBox="0 0 47.5 47.5" enable-background="new 0 0 47.5 47.5"><defs><clipPath id="a"><path d="M0 38h38V0H0v38z"/></clipPath></defs><g><g><g clip-path="url(#a)" transform="matrix(1.25 0 0 -1.25 0 47.5)"><g><path fill="#d79e84" d="M6 16c0-2.2-1.12-4-2.5-4S1 13.8 1 16s1.12 4 2.5 4S6 18.2 6 16"/></g><g><path fill="#d79e84" d="M4 18.44c0 8.52 5.37 15.44 12 15.44s12-6.92 12-15.44C28 9.9 22.63 3 16 3S4 9.9 4 18.44"/></g><g><path fill="#dd2e44" d="M21 37c-.25 0-.48 0-.7 0-.1 0-.2 0-.3 0-10 0-17-4.58-17-9s6.37-4 13-4c4.44 0 7.65 0 9.97.1 0-.04.02-.07.03-.1l6-15h2s.34 3.06 1 7c1 6 .53 21-14 21"/></g><g><path fill="#d79e84" d="M31 16c0-2.2-1.12-4-2.5-4S26 13.8 26 16s1.12 4 2.5 4 2.5-1.8 2.5-4"/></g><g><path fill="#662113" d="M11 16c-.55 0-1 .45-1 1v2c0 .55.45 1 1 1s1-.45 1-1v-2c0-.55-.45-1-1-1"/></g><g><path fill="#662113" d="M21 16c-.55 0-1 .45-1 1v2c0 .55.45 1 1 1s1-.45 1-1v-2c0-.55-.45-1-1-1"/></g><g><path fill="#b7755e" d="M17 11h-2c-.55 0-1 .45-1 1s.45 1 1 1h2c.55 0 1-.45 1-1s-.45-1-1-1"/></g><g><path fill="#e6e7e8" d="M28 12c0 2-2.3.7-3 0-1-1-3-3-5-2-2.83 1.4-4 1-4 1s-1.17.4-4-1c-2-1-4 1-5 2-.7.7-3 2-3 0s1-2 1-2C4 8 6 7 6 7c0-3 3-3 3-3 0-3 4-2 4-2 1-1 3-1 3-1s2 0 3 1c0 0 4-1 4 2 0 0 3 0 3 3 0 0 2 1 1 3 0 0 1 0 1 2"/></g><g><path fill="#d99e82" d="M16 9c7 0 4-2 0-2s-7 2 0 2"/></g><g><path fill="#d1d3d4" d="M2 23c0 2.2.9 4 2 4s2-1.8 2-4-.9-4-2-4-2 1.8-2 4"/></g><g><path fill="#d1d3d4" d="M25 23c0 2.2.9 4 2 4s2-1.8 2-4-.9-4-2-4-2 1.8-2 4"/></g><g><path fill="#f1f2f2" d="M29 8c0-2.2 1.8-4 4-4s4 1.8 4 4-1.8 4-4 4-4-1.8-4-4"/></g><g><path fill="#f1f2f2" d="M30 25c0-1.1-.9-2-2-2H3c-1.1 0-2 .9-2 2v1c0 1.1.9 2 2 2h25c1.1 0 2-.9 2-2v-1z"/></g></g></g></g></svg>