<svg xmlns="http://www.w3.org/2000/svg" viewBox="0 0 47.5 47.5" enable-background="new 0 0 47.5 47.5"><defs><clipPath id="a"><path d="M0 38h38V0H0v38z"/></clipPath><clipPath id="b"><path d="M3 33.3V19.8c0-4.5 11.38.9 14.97 4.5 3.6 3.6-.06 5.4-.06 6.3 0 .65-7.68 5.48-12.02 5.48-1.7 0-2.88-.74-2.88-2.77"/></clipPath><clipPath id="c"><path d="M0 38h38V0H0v38z"/></clipPath><clipPath id="d"><path d="M20.26 30.6c0-.9-3.5-2.7.1-6.3 3.6-3.6 14.64-9 14.64-4.5v13.5c0 2.04-1.17 2.78-2.85 2.78-4.3 0-11.9-4.83-11.9-5.47"/></clipPath><clipPath id="e"><path d="M0 38h38V0H0v38z"/></clipPath></defs><g><g><g clip-path="url(#a)" transform="matrix(1.25 0 0 -1.25 0 47.5)"><g><path fill="#dd2e44" d="M24 1c-.26 0-.52.1-.7.3C20.94 3.62 17 21.1 17 23c0 .28.1 1.7 2.1 1.7 2.1 0 5.87-1.6 6.3-1.78.36-.16.6-.52.6-.92 0-1.5 4.4-10.73 7.86-16.48.23-.4.18-.87-.13-1.2-.3-.33-.78-.4-1.18-.2L27.3 6.7c-.45-.7-.94-1.85-1.38-2.9-.33-.77-.68-1.57-1.03-2.27-.15-.28-.42-.5-.74-.54-.05 0-.1 0-.16 0"/></g><g><path fill="#dd2e44" d="M13 1c-.05 0-.1 0-.16 0-.32.06-.6.27-.73.55-.34.7-.7 1.5-1.02 2.28-.44 1.04-.93 2.18-1.38 2.9L4.46 4.1c-.4-.2-.88-.1-1.18.22-.3.33-.36.8-.13 1.2C6.6 11.27 11 20.52 11 22c0 .4.24.76.6.92.43.18 4.2 1.77 6.3 1.77 2 0 2.1-1.42 2.1-1.7 0-1.9-3.95-19.37-6.3-21.7-.18-.2-.44-.3-.7-.3"/></g><g><path fill="#dd2e44" d="M3 33.3V19.8c0-4.5 11.38.9 14.97 4.5 3.6 3.6-.06 5.4-.06 6.3 0 .9-14.9 9.9-14.9 2.7"/></g></g></g><g><g clip-path="url(#b)" transform="matrix(1.25 0 0 -1.25 0 47.5)"><g><path fill="#a0041e" d="M19.9 25.2C6.4 25.2 2.8 19.8 2.8 18c0-1.8 9.9-5.4 12.6-2.7 2.7 2.7 4.5 9.9 4.5 9.9"/></g></g></g><g><g clip-path="url(#c)" transform="matrix(1.25 0 0 -1.25 0 47.5)"><g><path fill="#dd2e44" d="M35 33.3V19.8c0-4.5-11 .9-14.6 4.5-3.6 3.6-.12 5.4-.12 6.3 0 .9 14.72 9.9 14.72 2.7"/></g></g></g><g><g clip-path="url(#d)" transform="matrix(1.25 0 0 -1.25 0 47.5)"><g><path fill="#a0041e" d="M18.77 25.2c13.5 0 17.1-5.4 17.1-7.2 0-1.8-9.9-5.4-12.6-2.7-2.7 2.7-4.5 9.9-4.5 9.9"/></g></g></g><g><g clip-path="url(#e)" transform="matrix(1.25 0 0 -1.25 0 47.5)"><g><path fill="#ea596e" d="M23 25.6c0-2-1.6-3.6-3.6-3.6h-1.8c-2 0-3.6 1.6-3.6 3.6v3.8c0 2 1.6 3.6 3.6 3.6h1.8c2 0 3.6-1.6 3.6-3.6v-3.8z"/></g></g></g></g></svg>