<svg xmlns="http://www.w3.org/2000/svg" viewBox="0 0 47.5 47.5" enable-background="new 0 0 47.5 47.5"><defs><clipPath id="a"><path d="M0 38h38V0H0v38z"/></clipPath><clipPath id="b"><path d="M5 37c-2.2 0-4-1.8-4-4V5c0-2.2 1.8-4 4-4h28c2.2 0 4 1.8 4 4v28c0 2.2-1.8 4-4 4H5z"/></clipPath></defs><g><g><g clip-path="url(#a)" transform="matrix(1.25 0 0 -1.25 0 47.5)"><g><path fill="#269" d="M37 5c0-2.2-1.8-4-4-4H5C2.8 1 1 2.8 1 5v28c0 2.2 1.8 4 4 4h28c2.2 0 4-1.8 4-4V5z"/></g></g></g><g><g clip-path="url(#b)" transform="matrix(1.25 0 0 -1.25 0 47.5)"><g><path fill="#ffcc4d" d="M10 21c-.03 0-.06 0-.1 0-.34.04-.64.24-.8.55-1 2.02-2.25 4.52.07 8 1.98 2.98 4.37 4.83 6.22 4.83 1.25 0 2.6-.9 2.6-3.38 0-.27-.1-.52-.3-.7-.7-.7-4.5-5.7-6.9-8.9-.2-.25-.5-.4-.8-.4"/></g><g><path fill="#ffcc4d" d="M13 13c-.04 0-.08 0-.1 0-.35.05-.64.25-.8.55-1.36 2.74-1.02 5.22 1.1 8.05 2 2.65 3.36 3.78 4.57 3.78C20 25.38 20 22.08 20 21c0-.26-.1-.52-.3-.7-.76-.77-4.2-4.88-5.93-6.94-.2-.23-.47-.36-.77-.36"/></g><g><path fill="#77b255" d="M5 0c-.55 0-1 .45-1 1 0 11.88 5.08 23.5 14.3 32.7.38.4 1.02.4 1.4 0 .4-.38.4-1.02 0-1.4C10.88 23.44 6 12.33 6 1c0-.55-.45-1-1-1"/></g><g><path fill="#77b255" d="M6 0h-.03C5.43 0 5 .45 5 1c0 2.4 8.3 17.75 17.5 22.87.5.27 1.1.1 1.37-.4.27-.47.1-1.08-.38-1.34C14.8 17.3 7.1 2.82 7 .98 6.97.45 6.53 0 6 0"/></g><g><path fill="#77b255" d="M4 0c-.48 0-.9.34-.98.82L3 .92C2.1 5.86.42 18.18 4.1 26.43c.2.5.8.72 1.3.5.5-.23.74-.82.5-1.33C2.5 17.85 4.1 6 4.97 1.3l.02-.12C5.08.64 4.72.1 4.18.02 4.12.02 4.06 0 4 0"/></g><g><path fill="#77b255" d="M2 13c-.37 0-.72.2-.9.55-.15.3-.33.7-.52 1.15-.42.95-1.53 3.45-2.16 3.65 0-.03-.2-.17-.52-.8-.25-.5-.85-.7-1.35-.44-.5.25-.7.68-.44 1.17.63 1.26 1.42 1.73 2.33 1.73h.04C.3 20 1.4 17.6 2.4 15.34c.2-.4.35-.7.5-.98.24-.5.04-1.05-.45-1.3C2.3 13 2.15 13 2 13"/></g><g><path fill="#77b255" d="M19 10c-.55 0-1 .45-1 1 0 2.02-.5 2.47-.64 2.56-.6.36-2.17-.5-3.1-1.02-.3-.16-.57-.3-.8-.43-.5-.24-1.1-.04-1.35.45-.24.5-.04 1.1.45 1.35.23.1.47.24.74.4 1.46.8 3.5 1.92 5.08.98C19.48 14.64 20 13.24 20 11c0-.55-.45-1-1-1"/></g><g><path fill="#e1e8ed" d="M24 29.5c0-3.04 2.46-5.5 5.5-5.5s5.5 2.46 5.5 5.5-2.46 5.5-5.5 5.5-5.5-2.46-5.5-5.5"/></g><g><path fill="#e1e8ed" d="M24 6.5C24 5.12 25.12 4 26.5 4S29 5.12 29 6.5 27.88 9 26.5 9 24 7.88 24 6.5"/></g><g><path fill="#e1e8ed" d="M20 6.5C20 5.12 21.12 4 22.5 4S25 5.12 25 6.5 23.88 9 22.5 9 20 7.88 20 6.5"/></g><g><path fill="#e1e8ed" d="M28 6.5C28 5.12 29.12 4 30.5 4S33 5.12 33 6.5 31.88 9 30.5 9 28 7.88 28 6.5"/></g><g><path fill="#e1e8ed" d="M26 10.5C26 9.12 27.12 8 28.5 8S31 9.12 31 10.5 29.88 13 28.5 13 26 11.88 26 10.5"/></g><g><path fill="#e1e8ed" d="M22 10.5C22 9.12 23.12 8 24.5 8S27 9.12 27 10.5 25.88 13 24.5 13 22 11.88 22 10.5"/></g><g><path fill="#e1e8ed" d="M24 14.5c0-1.38 1.12-2.5 2.5-2.5s2.5 1.12 2.5 2.5-1.12 2.5-2.5 2.5-2.5-1.12-2.5-2.5"/></g><path fill="#c1694f" d="M19 5h15V1H19v4z"/></g></g></g></svg>