<svg xmlns="http://www.w3.org/2000/svg" viewBox="0 0 47.5 47.5" enable-background="new 0 0 47.5 47.5"><defs><clipPath id="a"><path d="M0 38h38V0H0v38z"/></clipPath><clipPath id="b"><path d="M1.96 36.25h34.08V9.65H1.96v26.6z"/></clipPath></defs><g><g><g clip-path="url(#a)" transform="matrix(1.25 0 0 -1.25 0 47.5)"><g><path fill="#292f33" d="M25 23H13s-5-6-5-10S19 2 19 2s11 7 11 11-5 10-5 10"/></g><g><path fill="#292f33" d="M20.64 35.72c-.9.7-2.38.7-3.28 0L2.64 24.22c-.9-.7-.9-1.85 0-2.56l14.72-11.5c.9-.7 2.38-.7 3.28 0l14.72 11.5c.9.7.9 1.86 0 2.56l-14.72 11.5z"/></g><g><g><g clip-path="url(#b)" opacity=".25"><g><path fill="#67757f" d="M20.64 35.72c-.9.7-2.38.7-3.28 0L2.64 24.22c-.9-.7-.9-1.85 0-2.56l14.72-11.5c.9-.7 2.38-.7 3.28 0l14.72 11.5c.9.7.9 1.86 0 2.56l-14.72 11.5z"/></g></g></g></g><g><path fill="#fcab40" d="M9 12s-2-2-2-3V3s0-2 2-2 2 2 2 2v6c0 1-2 3-2 3"/></g><g><path fill="#fdd888" d="M12 11c0-1.66-1.34-3-3-3s-3 1.34-3 3 1.34 3 3 3 3-1.34 3-3"/></g><g><path fill="#fcab40" d="M9 10c-.55 0-1 .45-1 1v3.96c-.04.63.2 2.03 1.32 2.88l9.02 7.9c.42.38 1.05.34 1.4-.08.38-.42.33-1.05-.08-1.4l-9.08-7.97C9.98 15.82 10 15 10 15v-4c0-.55-.45-1-1-1"/></g><g><path fill="#292f33" d="M22 24c0-1.66-1.34-3-3-3s-3 1.34-3 3 1.34 3 3 3 3-1.34 3-3"/></g></g></g></g></svg>