<?xml version="1.0" encoding="UTF-8" standalone="no"?><svg xmlns:svg="http://www.w3.org/2000/svg" xmlns="http://www.w3.org/2000/svg" version="1.1" viewBox="0 0 47.5 47.5" style="enable-background:new 0 0 47.5 47.5;" id="svg2" xml:space="preserve"><defs id="defs6"><clipPath id="clipPath18"><path d="M 0,38 38,38 38,0 0,0 0,38 z" id="path20"/></clipPath><clipPath id="clipPath34"><path d="m 1.96289,36.248 34.07421,0 0,-26.60738 -34.07421,0 0,26.60738 z" id="path36"/></clipPath></defs><g transform="matrix(1.25,0,0,-1.25,0,47.5)" id="g12"><g id="g14"><g clip-path="url(#clipPath18)" id="g16"><g transform="translate(25,23.0005)" id="g22"><path d="m 0,0 -5,0 -2,0 -5,0 c 0,0 -5,-6 -5,-10 0,-4 11,-11 11,-11 0,0 11,7 11,11 C 5,-6 0,0 0,0" id="path24" style="fill:#292f33;fill-opacity:1;fill-rule:nonzero;stroke:none"/></g><g transform="translate(20.6396,35.7202)" id="g26"><path d="M 0,0 C -0.901,0.704 -2.377,0.704 -3.278,0 L -18,-11.497 c -0.902,-0.703 -0.902,-1.856 0,-2.559 l 14.721,-11.495 c 0.902,-0.704 2.377,-0.704 3.278,0 l 14.723,11.495 c 0.901,0.703 0.901,1.856 0,2.559 L 0,0 z" id="path28" style="fill:#292f33;fill-opacity:1;fill-rule:nonzero;stroke:none"/></g><g id="g30"><g id="g32"/><g id="g38"><g clip-path="url(#clipPath34)" id="g40" style="opacity:0.25"><g transform="translate(20.6396,35.7202)" id="g42"><path d="M 0,0 C -0.901,0.704 -2.377,0.704 -3.278,0 L -18,-11.497 c -0.902,-0.703 -0.902,-1.856 0,-2.559 l 14.721,-11.495 c 0.902,-0.704 2.377,-0.704 3.278,0 l 14.723,11.495 c 0.901,0.703 0.901,1.856 0,2.559 L 0,0 z" id="path44" style="fill:#67757f;fill-opacity:1;fill-rule:nonzero;stroke:none"/></g></g></g></g><g transform="translate(9,12)" id="g46"><path d="m 0,0 c 0,0 -2,-2 -2,-3 l 0,-6 c 0,0 0,-2 2,-2 2,0 2,2 2,2 l 0,6 C 2,-2 0,0 0,0" id="path48" style="fill:#fcab40;fill-opacity:1;fill-rule:nonzero;stroke:none"/></g><g transform="translate(12.0005,11)" id="g50"><path d="m 0,0 c 0,-1.658 -1.343,-3 -3,-3 -1.657,0 -3,1.342 -3,3 0,1.658 1.343,3 3,3 1.657,0 3,-1.342 3,-3" id="path52" style="fill:#fdd888;fill-opacity:1;fill-rule:nonzero;stroke:none"/></g><g transform="translate(9.0015,10)" id="g54"><path d="m 0,0 c -0.552,0 -1,0.447 -1,1 l 0,3.958 c -0.042,0.634 0.187,2.036 1.317,2.884 l 9.022,7.91 c 0.416,0.365 1.048,0.323 1.411,-0.093 0.365,-0.415 0.323,-1.047 -0.092,-1.411 L 1.576,6.29 C 0.973,5.834 0.999,5.018 0.999,5.01 L 1,1 C 1,0.447 0.552,0 0,0" id="path56" style="fill:#fcab40;fill-opacity:1;fill-rule:nonzero;stroke:none"/></g><g transform="translate(22,24)" id="g58"><path d="m 0,0 c 0,-1.657 -1.343,-3 -3,-3 -1.657,0 -3,1.343 -3,3 0,1.657 1.343,3 3,3 1.657,0 3,-1.343 3,-3" id="path60" style="fill:#292f33;fill-opacity:1;fill-rule:nonzero;stroke:none"/></g></g></g></g></svg>
