<svg xmlns="http://www.w3.org/2000/svg" viewBox="0 0 47.5 47.5" enable-background="new 0 0 47.5 47.5"><defs><clipPath id="a"><path d="M0 38h38V0H0v38z"/></clipPath></defs><g><g><g clip-path="url(#a)" transform="matrix(1.25 0 0 -1.25 0 47.5)"><g><path fill="#99aab5" d="M18 1c-1.32 0-9.24.83-10.7 2.3-.22.2-.33.5-.3.8.04.32.2.6.47.75 4.56 2.85 6.83 7.97 6.54 14.8 0 .16 0 .28 0 .35 0 .55.45 1 1 1h9c.52 0 .96-.4 1-.92.84-10.93-2.47-15.8-3.93-17.36C20.04 1.62 18.95 1 18 1"/></g><g><path fill="#3e721d" d="M19 19c-.55 0-1 .45-1 1v3c0 .55.45 1 1 1s1-.45 1-1v-3c0-.55-.45-1-1-1"/></g><g><path fill="#77b255" d="M27 27c0-4.42-3.58-5-8-5s-8 .58-8 5 3.58 8 8 8 8-3.58 8-8"/></g><g><path fill="#3e721d" d="M19 33c-.55 0-1 .45-1 1v2c0 .55.45 1 1 1s1-.45 1-1v-2c0-.55-.45-1-1-1"/></g><g><path fill="#fff" d="M21 16c0-1.1-.9-2-2-2s-2 .9-2 2 .9 2 2 2 2-.9 2-2"/></g><g><path fill="#fff" d="M20 10c0-1.1-.9-2-2-2s-2 .9-2 2 .9 2 2 2 2-.9 2-2"/></g><g><path fill="#fff" d="M17 4.5c0-.83-.9-1.5-2-1.5s-2 .67-2 1.5.9 1.5 2 1.5 2-.67 2-1.5"/></g></g></g></g></svg>