<svg xmlns="http://www.w3.org/2000/svg" viewBox="0 0 47.5 47.5" enable-background="new 0 0 47.5 47.5"><defs><clipPath id="a"><path d="M0 38h38V0H0v38z"/></clipPath></defs><g><g><g clip-path="url(#a)" transform="matrix(1.25 0 0 -1.25 0 47.5)"><g><path fill="#ccd6dd" d="M9 21c-.55 0-1 .45-1 1v11c0 .55.45 1 1 1s1-.45 1-1V22c0-.55-.45-1-1-1"/></g><g><path fill="#3b88c3" d="M3 4c0 2.24 4 6 7 6V5C9 5 6 4 5 3S3 3 3 4"/></g><g><path fill="#3b88c3" d="M17 4c0 2.24-4 6-7 6V5c1 0 4-1 5-2s2 0 2 1"/></g><g><path fill="#3b88c3" d="M16 23c2 0 4-1 4-2 0-3-3.17-11.54-8.17-12.54S16 23 16 23"/></g><g><path fill="#3b88c3" d="M4 17c-1-1-2-3-2-5s2.75 2.04 4 1c1.72-1.43-2 4-2 4"/></g><g><path d="M6.58 24.75c1.5-.5 2.6-.13 3.67.75 1.08.88 1.25-2.54-.25-3.67-1.5-1.12-4.12-3.75-4.08-1.4.04 2.32.66 4.32.66 4.32"/></g><g><path fill="#55acee" d="M10.02 26c-.57-.63-1.85-2.33-2.48-4.42-.87-.5-.83 1.2-.7 1.75.22.98.5.98.34 1.53-.2.55-.8.36-1.12.15C4.36 24.04 3 22.2 3 19c0-5.52 5-13 7-13s7 7.48 7 13c0 5.5-3.98 7-6.98 7"/></g><g><path d="M14 21.5c0-.83-.67-1.5-1.5-1.5s-1.5.67-1.5 1.5.67 1.5 1.5 1.5 1.5-.67 1.5-1.5"/></g><g><path fill="#269" d="M9.95 14.17c-1.5 0-2.82.54-4 1.15-.5.26-.67.86-.42 1.35.26.5.86.68 1.35.43 1.9-1 3.6-1.4 5.74-.1.47.27 1.08.1 1.37-.36.27-.48.1-1.1-.36-1.38-1.34-.8-2.56-1.1-3.7-1.1"/></g><g><path fill="#662113" d="M30.83 1.75c-.5.25-1.04.96-.72 1.7 1.34 3.14 4.28 16.9 1.6 24.76-.5 1.48-2.1 3.67-4.07 4.87-6.34 3.9-15.8 1.76-17.13 1.1-.5-.25-2.04-.75-2.3-.25-.24.5.6 1 1.1 1.25 1.75.87 11.26 3.87 19.66-.8 1.5-.83 3.6-2.37 4.7-5.3 3.26-8.57 1.05-23.4-.78-26.82-.6-1.08-1.9-.57-2.05-.5"/></g><g><path fill="#99aab5" d="M33 12c0-2.2-1.8-4-4-4s-4 1.8-4 4 1.8 4 4 4 4-1.8 4-4"/></g><g><path fill="#66757f" d="M31 12c0-1.1-.9-2-2-2s-2 .9-2 2 .9 2 2 2 2-.9 2-2"/></g></g></g></g></svg>