<?xml version="1.0" encoding="UTF-8" standalone="no"?><svg xmlns:svg="http://www.w3.org/2000/svg" xmlns="http://www.w3.org/2000/svg" version="1.1" viewBox="0 0 47.5 47.5" style="enable-background:new 0 0 47.5 47.5;" id="svg2" xml:space="preserve"><defs id="defs6"><clipPath id="clipPath18"><path d="M 0,38 38,38 38,0 0,0 0,38 z" id="path20"/></clipPath></defs><g transform="matrix(1.25,0,0,-1.25,0,47.5)" id="g12"><g id="g14"><g clip-path="url(#clipPath18)" id="g16"><g transform="translate(37,5)" id="g22"><path d="m 0,0 c 0,-2.209 -1.791,-4 -4,-4 l -28,0 c -2.209,0 -4,1.791 -4,4 l 0,28 c 0,2.209 1.791,4 4,4 l 28,0 c 2.209,0 4,-1.791 4,-4 L 0,0 z" id="path24" style="fill:#88c9f9;fill-opacity:1;fill-rule:nonzero;stroke:none"/></g><g transform="translate(19,10)" id="g26"><path d="m 0,0 c -6.076,0 -11,4.925 -11,11 0,6.075 4.924,11 11,11 C 6.075,22 11,17.075 11,11 11,4.925 6.075,0 0,0 M 0,24 C -7.18,24 -13,18.18 -13,11 -13,3.82 -7.18,-2 0,-2 7.18,-2 13,3.82 13,11 13,18.18 7.18,24 0,24" id="path28" style="fill:#ffe8b6;fill-opacity:1;fill-rule:nonzero;stroke:none"/></g><g transform="translate(22,30.5)" id="g30"><path d="m 0,0 c 0,-1.381 -1.119,-2.5 -2.5,-2.5 l -1,0 c -1.381,0 -2.5,1.119 -2.5,2.5 0,1.381 1.119,2.5 2.5,2.5 l 1,0 C -1.119,2.5 0,1.381 0,0" id="path32" style="fill:#ea596e;fill-opacity:1;fill-rule:nonzero;stroke:none"/></g><g transform="translate(13,27.5)" id="g34"><path d="m 0,0 c 0,-1.381 -1.119,-2.5 -2.5,-2.5 l -1,0 c -1.381,0 -2.5,1.119 -2.5,2.5 0,1.381 1.119,2.5 2.5,2.5 l 1,0 C -1.119,2.5 0,1.381 0,0" id="path36" style="fill:#ea596e;fill-opacity:1;fill-rule:nonzero;stroke:none"/></g><g transform="translate(31,27.5)" id="g38"><path d="m 0,0 c 0,-1.381 -1.119,-2.5 -2.5,-2.5 l -1,0 c -1.381,0 -2.5,1.119 -2.5,2.5 0,1.381 1.119,2.5 2.5,2.5 l 1,0 C -1.119,2.5 0,1.381 0,0" id="path40" style="fill:#ea596e;fill-opacity:1;fill-rule:nonzero;stroke:none"/></g><g transform="translate(34,18.5)" id="g42"><path d="m 0,0 c 0,-1.381 -1.119,-2.5 -2.5,-2.5 l -1,0 c -1.381,0 -2.5,1.119 -2.5,2.5 0,1.381 1.119,2.5 2.5,2.5 l 1,0 C -1.119,2.5 0,1.381 0,0" id="path44" style="fill:#ea596e;fill-opacity:1;fill-rule:nonzero;stroke:none"/></g><g transform="translate(10,18.5)" id="g46"><path d="m 0,0 c 0,-1.381 -1.119,-2.5 -2.5,-2.5 l -1,0 c -1.381,0 -2.5,1.119 -2.5,2.5 0,1.381 1.119,2.5 2.5,2.5 l 1,0 C -1.119,2.5 0,1.381 0,0" id="path48" style="fill:#ea596e;fill-opacity:1;fill-rule:nonzero;stroke:none"/></g><g transform="translate(13,10.5)" id="g50"><path d="m 0,0 c 0,-1.381 -1.119,-2.5 -2.5,-2.5 l -1,0 c -1.381,0 -2.5,1.119 -2.5,2.5 0,1.381 1.119,2.5 2.5,2.5 l 1,0 C -1.119,2.5 0,1.381 0,0" id="path52" style="fill:#ea596e;fill-opacity:1;fill-rule:nonzero;stroke:none"/></g><g transform="translate(31,10.5)" id="g54"><path d="m 0,0 c 0,-1.381 -1.119,-2.5 -2.5,-2.5 l -1,0 c -1.381,0 -2.5,1.119 -2.5,2.5 0,1.381 1.119,2.5 2.5,2.5 l 1,0 C -1.119,2.5 0,1.381 0,0" id="path56" style="fill:#ea596e;fill-opacity:1;fill-rule:nonzero;stroke:none"/></g><g transform="translate(22,6.5)" id="g58"><path d="m 0,0 c 0,-1.381 -1.119,-2.5 -2.5,-2.5 l -1,0 c -1.381,0 -2.5,1.119 -2.5,2.5 0,1.381 1.119,2.5 2.5,2.5 l 1,0 C -1.119,2.5 0,1.381 0,0" id="path60" style="fill:#ea596e;fill-opacity:1;fill-rule:nonzero;stroke:none"/></g><g transform="translate(21.9492,7)" id="g62"><path d="m 0,0 c -0.231,1.142 -1.239,2 -2.449,2 l -1,0 C -4.659,2 -5.667,1.142 -5.899,0 L 0,0 z" id="path64" style="fill:#ffffff;fill-opacity:1;fill-rule:nonzero;stroke:none"/></g><g transform="translate(12.9492,11)" id="g66"><path d="m 0,0 c -0.231,1.142 -1.239,2 -2.449,2 l -1,0 C -4.659,2 -5.667,1.142 -5.899,0 L 0,0 z" id="path68" style="fill:#ffffff;fill-opacity:1;fill-rule:nonzero;stroke:none"/></g><g transform="translate(9.9492,19)" id="g70"><path d="m 0,0 c -0.231,1.142 -1.239,2 -2.449,2 l -1,0 C -4.659,2 -5.667,1.142 -5.899,0 L 0,0 z" id="path72" style="fill:#ffffff;fill-opacity:1;fill-rule:nonzero;stroke:none"/></g><g transform="translate(33.9492,19)" id="g74"><path d="m 0,0 c -0.231,1.142 -1.239,2 -2.449,2 l -1,0 C -4.658,2 -5.667,1.142 -5.898,0 L 0,0 z" id="path76" style="fill:#ffffff;fill-opacity:1;fill-rule:nonzero;stroke:none"/></g><g transform="translate(30.9492,11)" id="g78"><path d="m 0,0 c -0.231,1.142 -1.239,2 -2.449,2 l -1,0 C -4.658,2 -5.667,1.142 -5.898,0 L 0,0 z" id="path80" style="fill:#ffffff;fill-opacity:1;fill-rule:nonzero;stroke:none"/></g><g transform="translate(30.9492,28)" id="g82"><path d="m 0,0 c -0.231,1.142 -1.239,2 -2.449,2 l -1,0 C -4.658,2 -5.667,1.142 -5.898,0 L 0,0 z" id="path84" style="fill:#ffffff;fill-opacity:1;fill-rule:nonzero;stroke:none"/></g><g transform="translate(21.9492,31)" id="g86"><path d="m 0,0 c -0.231,1.142 -1.239,2 -2.449,2 l -1,0 C -4.659,2 -5.667,1.142 -5.899,0 L 0,0 z" id="path88" style="fill:#ffffff;fill-opacity:1;fill-rule:nonzero;stroke:none"/></g><g transform="translate(12.9492,28)" id="g90"><path d="m 0,0 c -0.231,1.142 -1.239,2 -2.449,2 l -1,0 C -4.659,2 -5.667,1.142 -5.899,0 L 0,0 z" id="path92" style="fill:#ffffff;fill-opacity:1;fill-rule:nonzero;stroke:none"/></g><g transform="translate(27.001,3)" id="g94"><path d="M 0,0 C -0.376,0 -0.735,0.212 -0.906,0.574 L -8.001,15.651 -15.097,0.574 c -0.236,-0.5 -0.831,-0.713 -1.33,-0.479 -0.5,0.235 -0.715,0.831 -0.479,1.331 l 8,17 c 0.165,0.35 0.518,0.574 0.905,0.574 0.387,0 0.74,-0.224 0.905,-0.574 l 8,-17 C 1.139,0.926 0.925,0.33 0.425,0.095 0.287,0.03 0.143,0 0,0" id="path96" style="fill:#414042;fill-opacity:1;fill-rule:nonzero;stroke:none"/></g><g transform="translate(15.9995,21)" id="g98"><path d="M 0,0 C 0,1.657 1.343,3 3,3 4.657,3 6,1.657 6,0 6,-1.657 4.657,-3 3,-3 1.343,-3 0,-1.657 0,0" id="path100" style="fill:#414042;fill-opacity:1;fill-rule:nonzero;stroke:none"/></g></g></g></g></svg>
