<svg xmlns="http://www.w3.org/2000/svg" viewBox="0 0 47.5 47.5" enable-background="new 0 0 47.5 47.5"><defs><clipPath id="a"><path d="M0 38h38V0H0v38z"/></clipPath></defs><g><g><g clip-path="url(#a)" transform="matrix(1.25 0 0 -1.25 0 47.5)"><g><path fill="#a6d388" d="M23 32.4c0-6.06-3.67-18.32-11-18.32S1 26.34 1 32.4c0 7.2 8.25 3.68 11 3.68 2.7 0 11 3.55 11-3.67"/></g><g><path fill="#5c913b" d="M6.5 25.08c4.58-2.75 7.33-2.75 11 0 2.75 1.83-1.83-6.42-5.5-6.42s-8.25 8.25-5.5 6.42"/></g><g><path fill="#5c913b" d="M4.67 28.75c-.14 0-.28.03-.4.1-.47.22-.65.77-.42 1.22.63 1.28 1.93 2.15 3.3 2.24.84.05 2.46-.15 3.78-2.13.28-.42.17-1-.25-1.27-.43-.28-1-.17-1.28.25-.6.92-1.35 1.38-2.14 1.33-.73-.05-1.42-.53-1.77-1.23-.17-.32-.5-.5-.83-.5"/></g><g><path fill="#5c913b" d="M19.33 28.75c-.33 0-.66.18-.82.5-.34.7-1.03 1.18-1.76 1.23-.78.04-1.53-.4-2.14-1.33-.3-.42-.85-.53-1.27-.25-.43.28-.54.85-.26 1.27 1.32 1.98 2.93 2.2 3.78 2.14 1.37-.08 2.67-.95 3.3-2.23.23-.45.05-1-.4-1.23-.14-.06-.28-.1-.42-.1"/></g><g><path fill="#cbb7ea" d="M37 19.33C37 13.26 33.33 1 26 1S15 13.26 15 19.33C15 26.5 23.25 23 26 23c2.7 0 11 3.55 11-3.67"/></g><g><path fill="#9266cc" d="M30.5 6.85C27 9 25 9 21.5 6.85c-2.75-1.83.83 4.42 4.5 4.42s7.25-6.25 4.5-4.42"/></g><g><path fill="#9266cc" d="M18 15.08c-.14 0-.28.03-.4.1-.46.23-.65.78-.42 1.23.7 1.4 2.4 2.5 4.05 2.6 1.5.1 2.82-.58 3.7-1.9.28-.43.17-1-.25-1.28-.43-.28-1-.17-1.28.25-.52.8-1.2 1.15-2.05 1.1-1.13-.07-2.17-.86-2.53-1.58-.16-.33-.48-.52-.82-.52"/></g><g><path fill="#9266cc" d="M34 15.08c-.34 0-.66.2-.82.5-.36.73-1.4 1.52-2.53 1.6-.84.04-1.53-.32-2.05-1.1-.3-.43-.86-.54-1.28-.26-.42.28-.53.85-.25 1.27.88 1.32 2.2 2 3.7 1.9 1.65-.1 3.35-1.2 4.05-2.6.23-.44.04-1-.4-1.22-.14-.07-.28-.1-.42-.1"/></g></g></g></g></svg>