<svg xmlns="http://www.w3.org/2000/svg" viewBox="0 0 47.5 47.5" enable-background="new 0 0 47.5 47.5"><defs><clipPath id="a"><path d="M0 38h38V0H0v38z"/></clipPath></defs><g><g><g clip-path="url(#a)" transform="matrix(1.25 0 0 -1.25 0 47.5)"><g><path fill="#3f7123" d="M36 5c0-2.2-1.8-4-4-4H6C3.8 1 2 2.8 2 5v13c0 2.2 1.8 4 4 4h26c2.2 0 4-1.8 4-4V5z"/></g><path fill="#3f7123" d="M36 16H2v6h34v-6z"/><path fill="#ccd6dd" d="M36 15H2v7h34v-7z"/><g><path fill="#292f33" d="M27 22l-4-7h7l4 7h-7zm-14 0l-4-7h7l4 7h-7zM2 22h4l-4-7v7z"/></g><g><path fill="#ccd6dd" d="M35 30.2L2 22 .3 28.8l33 8.2 1.7-6.8z"/></g><g><path fill="#292f33" d="M33.05 29.72l-5.57 5.83-6.8-1.7 5.58-5.8 6.8 1.67zm-13.58-3.37l-5.57 5.82-6.8-1.7 5.57-5.8 6.8 1.68zM.3 28.8l5.58-5.83L2 22 .3 28.8z"/></g></g></g></g></svg>