<svg xmlns="http://www.w3.org/2000/svg" viewBox="0 0 47.5 47.5" enable-background="new 0 0 47.5 47.5"><defs><clipPath id="a"><path d="M0 38h38V0H0v38z"/></clipPath></defs><g><g><g clip-path="url(#a)" transform="matrix(1.25 0 0 -1.25 0 47.5)"><g><path fill="#66757f" d="M19 37c-8.28 0-15-6.72-15-15v-9h3v9c0 7 5.27 12.2 12 12.2S31 29 31 22V12l3 1v9c0 8.28-6.72 15-15 15"/></g><g><path fill="#292f33" d="M7 10c0-1.1-.9-2-2-2H3c-1.1 0-2 .9-2 2v9c0 1.1.9 2 2 2h2c1.1 0 2-.9 2-2v-9z"/></g><g><path fill="#292f33" d="M37 10c0-1.1-.9-2-2-2h-2c-1.1 0-2 .9-2 2v9c0 1.1.9 2 2 2h2c1.1 0 2-.9 2-2v-9z"/></g><g><path fill="#55acee" d="M20.18 26.98l-6.36-1.3c-.45-.1-.82-.55-.82-1V8.47c-.64.23-1.34.36-2.1.36-2.77 0-5.03-1.75-5.03-3.92 0-2.16 2.26-3.83 5.04-3.83C13.66 1.1 15.93 3 16 5v15.6l4.2.88c.45.1.8.55.8 1v3.84c0 .46-.37.76-.82.66"/></g><g><path fill="#55acee" d="M28.18 23.83l-4.3-.86c-.45-.1-.88-.55-.88-1V10.55c0 .15-.88.24-1.4.24-2.02 0-3.63-1.28-3.63-2.85 0-1.58 1.65-2.85 3.68-2.85 2.02 0 3.68 1.27 3.68 2.85 0 .42-.12.8-.33 1.17v10.06l3.18.65c.45.1.82.55.82 1v2.34c0 .45-.37.75-.82.66"/></g></g></g></g></svg>