<?xml version="1.0" encoding="UTF-8" standalone="no"?>
<!-- Created with Inkscape (http://www.inkscape.org/) -->

<svg
   xmlns:svg="http://www.w3.org/2000/svg"
   xmlns="http://www.w3.org/2000/svg"
   version="1.1"
   width="47.5"
   height="47.5"
   id="svg2"
   xml:space="preserve"><defs
     id="defs6"><clipPath
       id="clipPath18"><path
         d="M 0,38 38,38 38,0 0,0 0,38 z"
         id="path20" /></clipPath></defs><g
     transform="matrix(1.25,0,0,-1.25,0,47.5)"
     id="g12"><g
       id="g14"><g
         clip-path="url(#clipPath18)"
         id="g16"><g
           transform="translate(36.999,25.0825)"
           id="g22"><path
             d="m 0,0 c 0,-3.803 -3.082,-6.885 -6.885,-6.885 -3.802,0 -6.884,3.082 -6.884,6.885 0,3.802 3.082,6.884 6.884,6.884 C -3.082,6.884 0,3.802 0,0"
             id="path24"
             style="fill:#939598;fill-opacity:1;fill-rule:nonzero;stroke:none" /></g><g
           transform="translate(33.8096,18.4316)"
           id="g26"><path
             d="m 0,0 c -0.336,-0.336 -0.881,-0.336 -1.217,0 l -9.127,9.128 c -0.336,0.336 -0.336,0.881 0,1.217 l 1.217,1.217 c 0.336,0.336 0.881,0.336 1.217,0 L 1.217,2.434 c 0.336,-0.336 0.336,-0.881 0,-1.217 L 0,0 z"
             id="path28"
             style="fill:#58595b;fill-opacity:1;fill-rule:nonzero;stroke:none" /></g><g
           transform="translate(27.7393,18.2959)"
           id="g30"><path
             d="M 0,0 -4.325,4.327 C -5.104,5.105 -6.32,5.06 -7.044,4.226 l -9.158,-10.575 c -1.219,-1.408 -1.462,-3.353 -0.711,-4.73 l -4.911,-4.912 1.409,-1.409 4.877,4.877 c 1.382,-0.84 3.411,-0.61 4.863,0.648 l 10.574,9.157 C 0.732,-1.994 0.779,-0.777 0,0"
             id="path32"
             style="fill:#414042;fill-opacity:1;fill-rule:nonzero;stroke:none" /></g><g
           transform="translate(5,31)"
           id="g34"><path
             d="M 0,0 0,-8.122 C -0.314,-8.047 -0.648,-8 -1,-8 c -1.657,0 -3,-0.895 -3,-2 0,-1.104 1.343,-2 3,-2 1.656,0 2.999,0.896 3,2 l 0,0 0,6.111 5,-2.222 0,-5.011 C 6.686,-11.047 6.352,-11 6,-11 c -1.657,0 -3,-0.895 -3,-2 0,-1.104 1.343,-2 3,-2 1.656,0 2.999,0.896 3,2 l 0,0 0,9 0,0 -9,4 z"
             id="path36"
             style="fill:#55acee;fill-opacity:1;fill-rule:nonzero;stroke:none" /></g><g
           transform="translate(19,36)"
           id="g38"><path
             d="M 0,0 0,-8.123 C -0.314,-8.048 -0.647,-8 -1,-8 c -1.657,0 -3,-0.895 -3,-2 0,-1.104 1.343,-2 3,-2 1.656,0 3,0.896 3,2 L 2,0 0,0 z"
             id="path40"
             style="fill:#55acee;fill-opacity:1;fill-rule:nonzero;stroke:none" /></g></g></g></g></svg>