<?xml version="1.0" encoding="UTF-8" standalone="no"?><svg xmlns:dc="http://purl.org/dc/elements/1.1/" xmlns:cc="http://creativecommons.org/ns#" xmlns:rdf="http://www.w3.org/1999/02/22-rdf-syntax-ns#" xmlns:svg="http://www.w3.org/2000/svg" xmlns="http://www.w3.org/2000/svg" viewBox="0 0 47.5 47.5" style="enable-background:new 0 0 47.5 47.5;" xml:space="preserve" version="1.1" id="svg2"><metadata id="metadata8"><rdf:RDF><cc:Work rdf:about=""><dc:format>image/svg+xml</dc:format><dc:type rdf:resource="http://purl.org/dc/dcmitype/StillImage"/></cc:Work></rdf:RDF></metadata><defs id="defs6"><clipPath id="clipPath16" clipPathUnits="userSpaceOnUse"><path id="path18" d="M 0,38 38,38 38,0 0,0 0,38 Z"/></clipPath></defs><g transform="matrix(1.25,0,0,-1.25,0,47.5)" id="g10"><g id="g12"><g clip-path="url(#clipPath16)" id="g14"><g transform="translate(19,37)" id="g20"><path id="path22" style="fill:#66757f;fill-opacity:1;fill-rule:nonzero;stroke:none" d="m 0,0 c -8.284,0 -15,-6.716 -15,-15 l 0,-9 3,0 0,9 c 0,7 5.269,12.187 12,12.187 C 6.73,-2.813 12,-8 12,-15 l 0,-10 3,1 0,9 C 15,-6.716 8.284,0 0,0"/></g><g transform="translate(7,10)" id="g24"><path id="path26" style="fill:#292f33;fill-opacity:1;fill-rule:nonzero;stroke:none" d="m 0,0 c 0,-1.104 -0.896,-2 -2,-2 l -2,0 c -1.104,0 -2,0.896 -2,2 l 0,9 c 0,1.104 0.896,2 2,2 l 2,0 c 1.104,0 2,-0.896 2,-2 L 0,0 Z"/></g><g transform="translate(37,10)" id="g28"><path id="path30" style="fill:#292f33;fill-opacity:1;fill-rule:nonzero;stroke:none" d="m 0,0 c 0,-1.104 -0.896,-2 -2,-2 l -2,0 c -1.104,0 -2,0.896 -2,2 l 0,9 c 0,1.104 0.896,2 2,2 l 2,0 c 1.104,0 2,-0.896 2,-2 L 0,0 Z"/></g><g transform="translate(20.1816,26.9839)" id="g32"><path id="path34" style="fill:#55acee;fill-opacity:1;fill-rule:nonzero;stroke:none" d="m 0,0 -6.364,-1.313 c -0.449,-0.093 -0.818,-0.544 -0.818,-1.003 l 0,-1.702 0,-2.131 0,-12.351 c -0.637,0.226 -1.34,0.36 -2.087,0.36 -2.785,0 -5.043,-1.755 -5.043,-3.922 0,-2.165 2.258,-3.827 5.043,-3.827 2.737,0 5.01,1.905 5.087,3.905 l 0,15.61 4.204,0.872 c 0.45,0.093 0.796,0.545 0.796,1.004 l 0,3.831 C 0.818,-0.208 0.45,0.093 0,0"/></g><g transform="translate(28.1816,23.8325)" id="g36"><path id="path38" style="fill:#55acee;fill-opacity:1;fill-rule:nonzero;stroke:none" d="m 0,0 -4.297,-0.865 c -0.45,-0.093 -0.885,-0.544 -0.885,-1.003 l 0,-0.897 0,-1.433 0,-9.075 c 0,0.152 -0.878,0.24 -1.4,0.24 -2.024,0 -3.633,-1.276 -3.633,-2.851 0,-1.574 1.658,-2.852 3.683,-2.852 2.025,0 3.677,1.278 3.677,2.852 0,0.421 -0.117,0.816 -0.327,1.176 l 0,10.057 L 0,-4 c 0.45,0.092 0.818,0.543 0.818,1.002 l 0,2.331 C 0.818,-0.208 0.45,0.092 0,0"/></g></g></g></g></svg>
