<?xml version="1.0" encoding="UTF-8" standalone="no"?>
<!-- Created with Inkscape (http://www.inkscape.org/) -->

<svg
   xmlns:svg="http://www.w3.org/2000/svg"
   xmlns="http://www.w3.org/2000/svg"
   version="1.1"
   width="47.5"
   height="47.5"
   id="svg2"
   xml:space="preserve"><defs
     id="defs6"><clipPath
       id="clipPath18"><path
         d="M 0,38 38,38 38,0 0,0 0,38 z"
         id="path20" /></clipPath></defs><g
     transform="matrix(1.25,0,0,-1.25,0,47.5)"
     id="g12"><g
       id="g14"><g
         clip-path="url(#clipPath18)"
         id="g16"><g
           transform="translate(21.8486,9.4102)"
           id="g22"><path
             d="m 0,0 c -0.395,-1.346 -2.46,-1.924 -4.613,-1.291 -2.153,0.632 -3.578,2.234 -3.183,3.581 0.395,1.346 2.461,1.924 4.613,1.29 C -1.029,2.949 0.396,1.347 0,0 m -2.849,24.447 c -9.941,0 -18,-6.908 -18,-15.428 0,-1.067 0.127,-2.108 0.367,-3.113 1.779,-3.06 3.01,-1.128 8.633,1.684 5.727,2.864 0,-4 -2,-8 -0.615,-1.231 -0.281,-2.272 0.56,-3.124 2.946,-1.804 6.544,-2.876 10.44,-2.876 9.942,0 18,6.907 18,15.429 0,8.52 -8.058,15.428 -18,15.428"
             id="path24"
             style="fill:#d99e82;fill-opacity:1;fill-rule:nonzero;stroke:none" /></g><g
           transform="translate(14,26)"
           id="g26"><path
             d="m 0,0 c 0,-1.657 -1.343,-3 -3,-3 -1.657,0 -3,1.343 -3,3 0,1.657 1.343,3 3,3 1.657,0 3,-1.343 3,-3"
             id="path28"
             style="fill:#5c913b;fill-opacity:1;fill-rule:nonzero;stroke:none" /></g><g
           transform="translate(24,28)"
           id="g30"><path
             d="m 0,0 c 0,-1.657 -1.344,-3 -3,-3 -1.657,0 -3,1.343 -3,3 0,1.657 1.343,3 3,3 1.656,0 3,-1.343 3,-3"
             id="path32"
             style="fill:#226699;fill-opacity:1;fill-rule:nonzero;stroke:none" /></g><g
           transform="translate(33,22)"
           id="g34"><path
             d="m 0,0 c 0,-1.657 -1.344,-3 -3,-3 -1.656,0 -3,1.343 -3,3 0,1.657 1.344,3 3,3 1.656,0 3,-1.343 3,-3"
             id="path36"
             style="fill:#dd2e44;fill-opacity:1;fill-rule:nonzero;stroke:none" /></g><g
           transform="translate(32,13)"
           id="g38"><path
             d="m 0,0 c 0,-1.656 -1.344,-3 -3,-3 -1.656,0 -3,1.344 -3,3 0,1.656 1.344,3 3,3 1.656,0 3,-1.344 3,-3"
             id="path40"
             style="fill:#ffcc4d;fill-opacity:1;fill-rule:nonzero;stroke:none" /></g></g></g></g></svg>