<?xml version="1.0" encoding="UTF-8" standalone="no"?><svg xmlns:dc="http://purl.org/dc/elements/1.1/" xmlns:cc="http://creativecommons.org/ns#" xmlns:rdf="http://www.w3.org/1999/02/22-rdf-syntax-ns#" xmlns:svg="http://www.w3.org/2000/svg" xmlns="http://www.w3.org/2000/svg" viewBox="0 0 47.5 47.5" style="enable-background:new 0 0 47.5 47.5;" xml:space="preserve" version="1.1" id="svg2"><metadata id="metadata8"><rdf:RDF><cc:Work rdf:about=""><dc:format>image/svg+xml</dc:format><dc:type rdf:resource="http://purl.org/dc/dcmitype/StillImage"/></cc:Work></rdf:RDF></metadata><defs id="defs6"><clipPath id="clipPath16" clipPathUnits="userSpaceOnUse"><path id="path18" d="M 0,38 38,38 38,0 0,0 0,38 Z"/></clipPath></defs><g transform="matrix(1.25,0,0,-1.25,0,47.5)" id="g10"><g id="g12"><g clip-path="url(#clipPath16)" id="g14"><g transform="translate(25,26.0005)" id="g20"><path id="path22" style="fill:#58595b;fill-opacity:1;fill-rule:nonzero;stroke:none" d="m 0,0 c 0,-3.866 -3.135,-7 -7,-7 -3.867,0 -7,3.134 -7,7 0,3.866 3.133,7 7,7 3.865,0 7,-3.134 7,-7"/></g><g transform="translate(34.999,23.0005)" id="g24"><path id="path26" style="fill:#58595b;fill-opacity:1;fill-rule:nonzero;stroke:none" d="m 0,0 c 0,-3.313 -2.687,-6 -6,-6 -3.313,0 -6,2.687 -6,6 0,3.313 2.687,6 6,6 3.313,0 6,-2.687 6,-6"/></g><g transform="translate(23,26.0005)" id="g28"><path id="path30" style="fill:#939598;fill-opacity:1;fill-rule:nonzero;stroke:none" d="m 0,0 c 0,-2.761 -2.239,-5 -5,-5 -2.762,0 -5,2.239 -5,5 0,2.761 2.238,5 5,5 2.761,0 5,-2.239 5,-5"/></g><g transform="translate(20,26.0005)" id="g32"><path id="path34" style="fill:#bcbec0;fill-opacity:1;fill-rule:nonzero;stroke:none" d="m 0,0 c 0,-1.104 -1,-2 -2,-2 -1,0 -2,0.896 -2,2 0,1.104 0.896,2 2,2 1.104,0 2,-0.896 2,-2"/></g><g transform="translate(31,8)" id="g36"><path id="path38" style="fill:#58595b;fill-opacity:1;fill-rule:nonzero;stroke:none" d="m 0,0 c 0,-2.209 -1.791,-4 -4,-4 l -13,0 c -2.209,0 -4,1.791 -4,4 l 0,8 c 0,2.209 1.791,4 4,4 l 13,0 c 2.209,0 4,-1.791 4,-4 L 0,0 Z"/></g><path id="path40" style="fill:#58595b;fill-opacity:1;fill-rule:nonzero;stroke:none" d="m 24,19 -3,0 0,3 3,0 0,-3 z"/><g transform="translate(32.999,23.0005)" id="g42"><path id="path44" style="fill:#939598;fill-opacity:1;fill-rule:nonzero;stroke:none" d="m 0,0 c 0,-2.209 -1.791,-4 -4,-4 -2.209,0 -4,1.791 -4,4 0,2.209 1.791,4 4,4 2.209,0 4,-1.791 4,-4"/></g><g transform="translate(30.999,23.0005)" id="g46"><path id="path48" style="fill:#bcbec0;fill-opacity:1;fill-rule:nonzero;stroke:none" d="m 0,0 c 0,-1.104 -0.896,-2 -2,-2 -1.104,0 -2,0.896 -2,2 0,1.104 0.896,2 2,2 1.104,0 2,-0.896 2,-2"/></g><g transform="translate(10.9995,16)" id="g50"><path id="path52" style="fill:#58595b;fill-opacity:1;fill-rule:nonzero;stroke:none" d="M 0,0 -1.999,0 -2,0 l -6,4 -1,0 0,-14 1,0 6,4 10e-4,0 L 0,-6 c 1.657,0 3,1.343 3,3 0,1.657 -1.343,3 -3,3"/></g><g transform="translate(33,16)" id="g54"><path id="path56" style="fill:#58595b;fill-opacity:1;fill-rule:nonzero;stroke:none" d="m 0,0 0,-1 -5,0 c -1.104,0 -2,-0.896 -2,-2 0,-1.104 0.896,-2 2,-2 l 5,0 0,-1 3,0 0,6 -3,0 z"/></g><path id="path58" style="fill:#808285;fill-opacity:1;fill-rule:nonzero;stroke:none" d="M 28,7 18,7 18,17 28,17 28,7 Z"/><path id="path60" style="fill:#58595b;fill-opacity:1;fill-rule:nonzero;stroke:none" d="m 26,9 -6,0 0,6 6,0 0,-6 z"/><g transform="translate(15.999,9)" id="g62"><path id="path64" style="fill:#808285;fill-opacity:1;fill-rule:nonzero;stroke:none" d="m 0,0 c 0,-1.104 -0.896,-2 -2,-2 -1.104,0 -2,0.896 -2,2 0,1.104 0.896,2 2,2 1.104,0 2,-0.896 2,-2"/></g></g></g></g></svg>
