<?xml version="1.0" encoding="UTF-8" standalone="no"?>
<!-- Created with Inkscape (http://www.inkscape.org/) -->

<svg
   xmlns:svg="http://www.w3.org/2000/svg"
   xmlns="http://www.w3.org/2000/svg"
   version="1.1"
   width="47.5"
   height="47.5"
   id="svg2"
   xml:space="preserve"><defs
     id="defs6"><clipPath
       id="clipPath18"><path
         d="M 0,38 38,38 38,0 0,0 0,38 z"
         id="path20" /></clipPath></defs><g
     transform="matrix(1.25,0,0,-1.25,0,47.5)"
     id="g12"><g
       id="g14"><g
         clip-path="url(#clipPath18)"
         id="g16"><g
           transform="translate(37,5)"
           id="g22"><path
             d="m 0,0 c 0,-2.209 -1.791,-4 -4,-4 l -28,0 c -2.209,0 -4,1.791 -4,4 l 0,28 c 0,2.209 1.791,4 4,4 l 28,0 c 2.209,0 4,-1.791 4,-4 L 0,0 z"
             id="path24"
             style="fill:#88c9f9;fill-opacity:1;fill-rule:nonzero;stroke:none" /></g><path
           d="m 17,3 -2,0 0,11 2,0 0,-11 z"
           id="path26"
           style="fill:#a0041e;fill-opacity:1;fill-rule:nonzero;stroke:none" /><path
           d="M 9,3 11,3 11,15 9,15 9,3 z"
           id="path28"
           style="fill:#a0041e;fill-opacity:1;fill-rule:nonzero;stroke:none" /><path
           d="m 23,16 -2,0 0,-13 2,0 0,13 z"
           id="path30"
           style="fill:#a0041e;fill-opacity:1;fill-rule:nonzero;stroke:none" /><path
           d="m 29,21 -2,0 0,-18 2,0 0,18 z"
           id="path32"
           style="fill:#a0041e;fill-opacity:1;fill-rule:nonzero;stroke:none" /><path
           d="m 35,26 -2,0 0,-23 2,0 0,23 z"
           id="path34"
           style="fill:#a0041e;fill-opacity:1;fill-rule:nonzero;stroke:none" /><path
           d="M 5,3 3,3 3,16 5,16 5,3 z"
           id="path36"
           style="fill:#a0041e;fill-opacity:1;fill-rule:nonzero;stroke:none" /><g
           transform="translate(35,28.7778)"
           id="g38"><path
             d="m 0,0 c -4.107,-4.63 -13.207,-13.778 -21,-13.778 -4.636,0 -8.6,1.417 -11,2.528 l 0,-2.201 c 2.615,-1.117 6.483,-2.327 11,-2.327 7.763,0 16.237,7.691 21,12.785 L 0,0 z"
             id="path40"
             style="fill:#dd2e44;fill-opacity:1;fill-rule:nonzero;stroke:none" /></g><g
           transform="translate(27,23)"
           id="g42"><path
             d="m 0,0 c 0,-1.104 -0.447,-2 -1,-2 -0.553,0 -1,0.896 -1,2 0,1.104 0.447,2 1,2 0.553,0 1,-0.896 1,-2"
             id="path44"
             style="fill:#66757f;fill-opacity:1;fill-rule:nonzero;stroke:none" /></g><g
           transform="translate(27,26)"
           id="g46"><path
             d="m 0,0 c 0,-0.552 -0.447,-1 -1,-1 -0.553,0 -1,0.448 -1,1 0,0.552 0.447,1 1,1 0.553,0 1,-0.448 1,-1"
             id="path48"
             style="fill:#66757f;fill-opacity:1;fill-rule:nonzero;stroke:none" /></g><g
           transform="translate(32,27)"
           id="g50"><path
             d="m 0,0 c 0,-1.104 -0.447,-2 -1,-2 -0.553,0 -1,0.896 -1,2 0,1.104 0.447,2 1,2 0.553,0 1,-0.896 1,-2"
             id="path52"
             style="fill:#66757f;fill-opacity:1;fill-rule:nonzero;stroke:none" /></g><g
           transform="translate(31.667,29.6665)"
           id="g54"><path
             d="m 0,0 0.333,-2.667 -1,-1 -1.505,1.505 C -3.124,-3.09 -3.95,-3.836 -4.667,-4.44 l 0,-2.227 -1,-1 -1.391,1.391 c -1.382,-0.96 -2.069,-1.309 -2.609,-2.391 -1,-2 -2,-6 1,-4 5.582,3.721 12,10 12,10 l 0,6 C 2.468,2.467 1.175,1.175 0,0"
             id="path56"
             style="fill:#ffcc4d;fill-opacity:1;fill-rule:nonzero;stroke:none" /></g><g
           transform="translate(32,30)"
           id="g58"><path
             d="m 0,0 c 0,-0.552 -0.447,-1 -1,-1 -0.553,0 -1,0.448 -1,1 0,0.552 0.447,1 1,1 0.553,0 1,-0.448 1,-1"
             id="path60"
             style="fill:#66757f;fill-opacity:1;fill-rule:nonzero;stroke:none" /></g></g></g></g></svg>