<?xml version="1.0" encoding="UTF-8" standalone="no"?><svg xmlns:dc="http://purl.org/dc/elements/1.1/" xmlns:cc="http://creativecommons.org/ns#" xmlns:rdf="http://www.w3.org/1999/02/22-rdf-syntax-ns#" xmlns:svg="http://www.w3.org/2000/svg" xmlns="http://www.w3.org/2000/svg" viewBox="0 0 47.5 47.5" style="enable-background:new 0 0 47.5 47.5;" xml:space="preserve" version="1.1" id="svg2"><metadata id="metadata8"><rdf:RDF><cc:Work rdf:about=""><dc:format>image/svg+xml</dc:format><dc:type rdf:resource="http://purl.org/dc/dcmitype/StillImage"/></cc:Work></rdf:RDF></metadata><defs id="defs6"><clipPath id="clipPath16" clipPathUnits="userSpaceOnUse"><path id="path18" d="M 0,38 38,38 38,0 0,0 0,38 Z"/></clipPath></defs><g transform="matrix(1.25,0,0,-1.25,0,47.5)" id="g10"><g id="g12"><g clip-path="url(#clipPath16)" id="g14"><g transform="translate(29,11)" id="g20"><path id="path22" style="fill:#292f33;fill-opacity:1;fill-rule:nonzero;stroke:none" d="m 0,0 c 0,-2.762 -2.238,-5 -5,-5 -2.762,0 -5,2.238 -5,5 0,2.762 2.238,5 5,5 2.762,0 5,-2.238 5,-5"/></g><g transform="translate(19,11)" id="g24"><path id="path26" style="fill:#292f33;fill-opacity:1;fill-rule:nonzero;stroke:none" d="m 0,0 c 0,-2.762 -2.239,-5 -5,-5 -2.761,0 -5,2.238 -5,5 0,2.762 2.239,5 5,5 2.761,0 5,-2.238 5,-5"/></g><path id="path28" style="fill:#292f33;fill-opacity:1;fill-rule:nonzero;stroke:none" d="m 27,10 -16,0 0,16 16,0 0,-16 z"/><g transform="translate(19,18)" id="g30"><path id="path32" style="fill:#292f33;fill-opacity:1;fill-rule:nonzero;stroke:none" d="m 0,0 c 0,4.418 -3.582,8 -8,8 -4.111,0 -7.494,-3.103 -7.945,-7.093 l -0.004,0.002 -2,-12.36 0.004,-0.003 C -17.978,-11.632 -18,-11.813 -18,-12 c 0,-1.657 1.343,-3 3,-3 0.68,0 1.3,0.234 1.803,0.616 l 0.009,-0.006 10.157,8.127 c 0.059,0.047 0.119,0.093 0.177,0.142 l 0.072,0.058 -0.006,0.002 C -1.083,-4.594 0,-2.425 0,0"/></g><g transform="translate(19,18)" id="g34"><path id="path36" style="fill:#292f33;fill-opacity:1;fill-rule:nonzero;stroke:none" d="m 0,0 c 0,4.418 3.582,8 8,8 4.111,0 7.494,-3.103 7.945,-7.093 l 0.004,0.002 2,-12.36 -0.004,-0.003 C 17.978,-11.632 18,-11.813 18,-12 c 0,-1.657 -1.343,-3 -3,-3 -0.68,0 -1.3,0.234 -1.803,0.616 L 13.188,-14.39 3.031,-6.263 C 2.972,-6.216 2.912,-6.17 2.854,-6.121 l -0.072,0.058 0.005,0.002 C 1.084,-4.594 0,-2.425 0,0"/></g><g transform="translate(23,19)" id="g38"><path id="path40" style="fill:#f18f26;fill-opacity:1;fill-rule:nonzero;stroke:none" d="m 0,0 c 0,-2.761 2.24,-5 5,-5 2.762,0 5,2.239 5,5 C 10,2.761 7.762,5 5,5 2.24,5 0,2.761 0,0"/></g><g transform="translate(27,11)" id="g42"><path id="path44" style="fill:#67757f;fill-opacity:1;fill-rule:nonzero;stroke:none" d="m 0,0 c 0,-1.657 -1.343,-3 -3,-3 -1.657,0 -3,1.343 -3,3 0,1.657 1.343,3 3,3 1.657,0 3,-1.343 3,-3"/></g><g transform="translate(17,11)" id="g46"><path id="path48" style="fill:#67757f;fill-opacity:1;fill-rule:nonzero;stroke:none" d="m 0,0 c 0,-1.657 -1.343,-3 -3,-3 -1.657,0 -3,1.343 -3,3 0,1.657 1.343,3 3,3 1.657,0 3,-1.343 3,-3"/></g><g transform="translate(5,19)" id="g50"><path id="path52" style="fill:#67757f;fill-opacity:1;fill-rule:nonzero;stroke:none" d="m 0,0 c 0,-2.761 2.24,-5 5,-5 2.762,0 5,2.239 5,5 C 10,2.761 7.762,5 5,5 2.24,5 0,2.761 0,0"/></g><g transform="translate(29,21.5)" id="g54"><path id="path56" style="fill:#f18f26;fill-opacity:1;fill-rule:nonzero;stroke:none" d="M 0,0 C 0,-0.829 -0.672,-1.5 -1.5,-1.5 -2.328,-1.5 -3,-0.829 -3,0 -3,0.829 -2.328,1.5 -1.5,1.5 -0.672,1.5 0,0.829 0,0"/></g><g transform="translate(32,18.5)" id="g58"><path id="path60" style="fill:#f18f26;fill-opacity:1;fill-rule:nonzero;stroke:none" d="M 0,0 C 0,-0.828 -0.672,-1.5 -1.5,-1.5 -2.328,-1.5 -3,-0.828 -3,0 -3,0.828 -2.328,1.5 -1.5,1.5 -0.672,1.5 0,0.828 0,0"/></g><g transform="translate(19.0005,25.9995)" id="g62"><path id="path64" style="fill:#292f33;fill-opacity:1;fill-rule:nonzero;stroke:none" d="M 0,0 C -0.552,0 -1,0.448 -1,1 -1,3.025 -1.545,3.795 -2.071,4.54 -2.506,5.155 -3,5.853 -3,7 c 0,2.588 2.448,3.843 2.552,3.895 0.493,0.249 1.093,0.047 1.342,-0.447 C 1.141,9.954 0.941,9.354 0.447,9.106 0.438,9.102 -1,8.342 -1,7 -1,6.509 -0.828,6.245 -0.438,5.694 0.168,4.836 1,3.661 1,1 1,0.448 0.552,0 0,0"/></g><g transform="translate(25,26)" id="g66"><path id="path68" style="fill:#292f33;fill-opacity:1;fill-rule:nonzero;stroke:none" d="m 0,0 c 0,-1.104 -0.896,-2 -2,-2 l -8,0 c -1.104,0 -2,0.896 -2,2 0,1.104 0.896,2 2,2 l 8,0 C -0.896,2 0,1.104 0,0"/></g></g></g></g></svg>
