<svg xmlns="http://www.w3.org/2000/svg" viewBox="0 0 47.5 47.5" enable-background="new 0 0 47.5 47.5"><defs><clipPath id="a"><path d="M0 38h38V0H0v38z"/></clipPath></defs><g><g><g clip-path="url(#a)" transform="matrix(1.25 0 0 -1.25 0 47.5)"><g><path fill="#ccd6dd" d="M25 15c-1.1 0-2 .9-2 2s.9 2 2 2 2-.9 2-2-.9-2-2-2m-4 4c-1.1 0-2 .9-2 2s.9 2 2 2 2-.9 2-2-.9-2-2-2m-4 4c-1.1 0-2 .9-2 2s.9 2 2 2 2-.9 2-2-.9-2-2-2m18.77 3.2l-2.74 2.72c-1.55 1.56-3.05 3.06-4.1 4.1l-2.74 2.75c-1.53 1.5-3.98 1.5-5.45.04l-5.9-5.9c.08-.3.15-.6.15-.9 0-1.1-.9-2-2-2-.3 0-.6.07-.86.2l-9.9-9.9c-1.52-1.52-1.52-3.97 0-5.5L4.96 9.1c1.05-1.06 3.05-3.06 4.1-4.1l2.74-2.75c1.53-1.5 3.98-1.5 5.5 0l9.9 9.9c-.13.27-.2.56-.2.87 0 1.1.9 2 2 2 .3 0 .6-.08.86-.2l5.9 5.9c1.52 1.52 1.52 3.97 0 5.5"/></g><g><path fill="#99aab5" d="M12 7c-.26 0-.5.1-.7.3-.4.38-.4 1.02 0 1.4l4 4c.38.4 1.02.4 1.4 0 .4-.38.4-1.02 0-1.4l-4-4c-.2-.2-.44-.3-.7-.3"/></g><g><path fill="#99aab5" d="M9 10c-.26 0-.5.1-.7.3-.4.38-.4 1.02 0 1.4l7 7c.38.4 1.02.4 1.4 0 .4-.38.4-1.02 0-1.4l-7-7c-.2-.2-.44-.3-.7-.3"/></g><g><path fill="#99aab5" d="M6 13c-.26 0-.5.1-.7.3-.4.38-.4 1.02 0 1.4l7 7c.38.4 1.02.4 1.4 0 .4-.38.4-1.02 0-1.4l-7-7c-.2-.2-.44-.3-.7-.3"/></g><g><path fill="#99aab5" d="M24.57 27.23l1.6 1.6-3.24 1.68 1.64-3.27zm-3.17 3c-.25.52-.23 1.17.2 1.6.45.45 1.06.46 1.6.2l6.3-2.95c.17-.08.3-.2.37-.25.33-.33.3-.83-.03-1.14-.35-.37-.72-.36-1.06-.2l-1.05.55-2.35-2.35.53-1.05c.2-.34.2-.7-.15-1.06-.34-.35-.88-.38-1.22-.04-.14.13-.2.28-.22.34l-2.9 6.32z"/></g></g></g></g></svg>