<?xml version="1.0" encoding="UTF-8" standalone="no"?><svg xmlns:svg="http://www.w3.org/2000/svg" xmlns="http://www.w3.org/2000/svg" version="1.1" viewBox="0 0 47.5 47.5" style="enable-background:new 0 0 47.5 47.5;" id="svg2" xml:space="preserve"><defs id="defs6"><clipPath id="clipPath18"><path d="M 0,38 38,38 38,0 0,0 0,38 z" id="path20"/></clipPath></defs><g transform="matrix(1.25,0,0,-1.25,0,47.5)" id="g12"><g id="g14"><g clip-path="url(#clipPath18)" id="g16"><g transform="translate(25,15)" id="g22"><path d="M 0,0 C -1.104,0 -2,0.896 -2,2 -2,3.104 -1.104,4 0,4 1.104,4 2,3.104 2,2 2,0.896 1.104,0 0,0 m -4,4 c -1.104,0 -2,0.896 -2,2 0,1.104 0.896,2 2,2 1.104,0 2,-0.896 2,-2 0,-1.104 -0.896,-2 -2,-2 m -4,4 c -1.104,0 -2,0.896 -2,2 0,1.104 0.896,2 2,2 1.104,0 2,-0.896 2,-2 0,-1.104 -0.896,-2 -2,-2 m 18.768,3.187 -2.737,2.737 C 6.478,15.478 4.977,16.977 3.924,18.03 l -2.738,2.738 c -1.512,1.511 -3.963,1.511 -5.434,0.041 l -5.91,-5.911 C -10.075,14.596 -10,14.308 -10,14 c 0,-1.104 -0.896,-2 -2,-2 -0.308,0 -0.596,0.075 -0.857,0.2 l -9.91,-9.911 c -1.512,-1.513 -1.512,-3.963 0,-5.476 l 2.738,-2.737 c 1.052,-1.053 3.052,-3.053 4.106,-4.106 l 2.737,-2.738 c 1.512,-1.511 3.964,-1.511 5.476,0 L 2.2,-2.857 C 2.075,-2.597 2,-2.308 2,-2 2,-0.896 2.896,0 4,0 4.308,0 4.597,-0.075 4.857,-0.2 l 5.911,5.911 c 1.511,1.512 1.511,3.964 0,5.476" id="path24" style="fill:#ccd6dd;fill-opacity:1;fill-rule:nonzero;stroke:none"/></g><g transform="translate(12,7)" id="g26"><path d="m 0,0 c -0.256,0 -0.512,0.098 -0.707,0.293 -0.391,0.391 -0.391,1.023 0,1.414 l 4,4 c 0.391,0.391 1.023,0.391 1.414,0 0.391,-0.391 0.391,-1.023 0,-1.414 l -4,-4 C 0.512,0.098 0.256,0 0,0" id="path28" style="fill:#99aab5;fill-opacity:1;fill-rule:nonzero;stroke:none"/></g><g transform="translate(9,10)" id="g30"><path d="m 0,0 c -0.256,0 -0.512,0.098 -0.707,0.293 -0.391,0.391 -0.391,1.023 0,1.414 l 7,7 c 0.391,0.391 1.023,0.391 1.414,0 0.391,-0.391 0.391,-1.023 0,-1.414 l -7,-7 C 0.512,0.098 0.256,0 0,0" id="path32" style="fill:#99aab5;fill-opacity:1;fill-rule:nonzero;stroke:none"/></g><g transform="translate(6,13)" id="g34"><path d="m 0,0 c -0.256,0 -0.512,0.098 -0.707,0.293 -0.391,0.391 -0.391,1.023 0,1.414 l 7,7 c 0.391,0.391 1.023,0.391 1.414,0 0.391,-0.391 0.391,-1.023 0,-1.414 l -7,-7 C 0.512,0.098 0.256,0 0,0" id="path36" style="fill:#99aab5;fill-opacity:1;fill-rule:nonzero;stroke:none"/></g><g transform="translate(24.5693,27.2319)" id="g38"><path d="M 0,0 1.611,1.611 -1.637,3.282 -1.653,3.265 0,0 z m -3.172,2.985 c -0.245,0.534 -0.228,1.179 0.204,1.611 0.45,0.45 1.06,0.467 1.611,0.204 L 4.92,1.849 C 5.105,1.764 5.242,1.662 5.301,1.603 5.632,1.272 5.59,0.771 5.275,0.458 4.92,0.102 4.555,0.11 4.215,0.279 L 3.164,0.822 0.807,-1.535 1.341,-2.579 C 1.52,-2.926 1.527,-3.291 1.18,-3.638 0.84,-3.978 0.297,-4.011 -0.042,-3.672 c -0.136,0.135 -0.194,0.279 -0.22,0.339 l -2.91,6.318 z" id="path40" style="fill:#99aab5;fill-opacity:1;fill-rule:nonzero;stroke:none"/></g></g></g></g></svg>
