<?xml version="1.0" encoding="UTF-8" standalone="no"?><svg xmlns:svg="http://www.w3.org/2000/svg" xmlns="http://www.w3.org/2000/svg" version="1.1" viewBox="0 0 47.5 47.5" style="enable-background:new 0 0 47.5 47.5;" id="svg2" xml:space="preserve"><defs id="defs6"><clipPath id="clipPath18"><path d="M 0,38 38,38 38,0 0,0 0,38 z" id="path20"/></clipPath></defs><g transform="matrix(1.25,0,0,-1.25,0,47.5)" id="g12"><g id="g14"><g clip-path="url(#clipPath18)" id="g16"><g transform="translate(37,19)" id="g22"><path d="m 0,0 c 0,-9.941 -8.059,-18 -18,-18 -9.941,0 -18,8.059 -18,18 0,9.941 8.059,18 18,18 C -8.059,18 0,9.941 0,0" id="path24" style="fill:#ccd6dd;fill-opacity:1;fill-rule:nonzero;stroke:none"/></g><g transform="translate(33,19)" id="g26"><path d="m 0,0 c 0,-7.732 -6.268,-14 -14,-14 -7.732,0 -14,6.268 -14,14 0,7.732 6.268,14 14,14 C -6.268,14 0,7.732 0,0" id="path28" style="fill:#3b88c3;fill-opacity:1;fill-rule:nonzero;stroke:none"/></g><g transform="translate(29,19)" id="g30"><path d="m 0,0 c 0,-5.522 -4.478,-10 -10,-10 -5.523,0 -10,4.478 -10,10 0,5.523 4.477,10 10,10 C -4.478,10 0,5.523 0,0" id="path32" style="fill:#dd2e44;fill-opacity:1;fill-rule:nonzero;stroke:none"/></g><g transform="translate(25,19)" id="g34"><path d="m 0,0 c 0,-3.313 -2.687,-6 -6,-6 -3.314,0 -6,2.687 -6,6 0,3.314 2.686,6 6,6 3.313,0 6,-2.686 6,-6" id="path36" style="fill:#ffac33;fill-opacity:1;fill-rule:nonzero;stroke:none"/></g><g transform="translate(35.8643,7.8008)" id="g38"><path d="m 0,0 c -0.42,-0.306 -1.257,-0.592 -1.934,-0.592 -1.964,0 -4.654,0.717 -6.334,2.386 l -2.954,3.872 c -0.274,0.275 -0.357,0.575 -0.21,0.932 0.148,0.359 -0.73,0.601 -0.342,0.601 l 5.057,0 c 1.867,0 4.308,-1.256 5.925,-3.017 L -0.421,3.831 C 0.352,2.988 0.762,2.202 0.761,1.445 0.762,0.823 0.49,0.357 0,0" id="path40" style="fill:#000000;fill-opacity:1;fill-rule:nonzero;stroke:none"/></g><g transform="translate(29.3047,1.7959)" id="g42"><path d="m 0,0 0,0 c -0.771,0 -1.632,0.417 -2.49,1.204 l -0.489,0.378 c -1.793,1.646 -3.326,4.131 -3.326,6.032 l 0,5.164 c 0,0.396 0.5,-0.513 0.866,-0.363 0.363,0.15 0.915,0.066 1.195,-0.214 L -1.078,9.077 C 0.621,7.366 1.983,4.458 1.983,2.457 1.983,1.768 1.841,1.202 1.531,0.775 1.166,0.276 0.634,0 0,0" id="path44" style="fill:#000000;fill-opacity:1;fill-rule:nonzero;stroke:none"/></g><g transform="translate(32.3447,5.0361)" id="g46"><path d="m 0,0 c -0.256,0 -0.487,0.122 -0.683,0.317 l -14,14 c -0.39,0.391 -0.391,1.023 0,1.414 0.391,0.391 1.024,0.391 1.414,0 l 14,-14 C 1.122,1.341 1.109,0.695 0.719,0.305 0.524,0.11 0.257,0 0,0" id="path48" style="fill:#c1694f;fill-opacity:1;fill-rule:nonzero;stroke:none"/></g></g></g></g></svg>
