<svg xmlns="http://www.w3.org/2000/svg" viewBox="0 0 47.5 47.5" enable-background="new 0 0 47.5 47.5"><defs><clipPath id="a"><path d="M0 38h38V0H0v38z"/></clipPath></defs><g><g><g clip-path="url(#a)" transform="matrix(1.25 0 0 -1.25 0 47.5)"><g><path fill="#88c9f9" d="M37 5c0-2.2-1.8-4-4-4H5C2.8 1 1 2.8 1 5v28c0 2.2 1.8 4 4 4h28c2.2 0 4-1.8 4-4V5z"/></g><path fill="#a0041e" d="M17 3h-2v11h2V3z"/><path fill="#a0041e" d="M9 3h2v12H9V3z"/><path fill="#a0041e" d="M23 16h-2V3h2v13z"/><path fill="#a0041e" d="M29 21h-2V3h2v18z"/><path fill="#a0041e" d="M35 26h-2V3h2v23z"/><path fill="#a0041e" d="M5 3H3v13h2V3z"/><g><path fill="#dd2e44" d="M35 28.78C30.9 24.15 21.8 15 14 15c-4.64 0-8.6 1.42-11 2.53v-2.2C5.62 14.2 9.48 13 14 13c7.76 0 16.24 7.7 21 12.78v3z"/></g><g><path fill="#66757f" d="M27 23c0-1.1-.45-2-1-2s-1 .9-1 2 .45 2 1 2 1-.9 1-2"/></g><g><path fill="#66757f" d="M27 26c0-.55-.45-1-1-1s-1 .45-1 1 .45 1 1 1 1-.45 1-1"/></g><g><path fill="#66757f" d="M32 27c0-1.1-.45-2-1-2s-1 .9-1 2 .45 2 1 2 1-.9 1-2"/></g><g><path fill="#ffcc4d" d="M31.67 29.67L32 27l-1-1-1.5 1.5c-.96-.92-1.78-1.67-2.5-2.27V23l-1-1-1.4 1.4c-1.37-.97-2.06-1.32-2.6-2.4-1-2-2-6 1-4 5.58 3.72 12 10 12 10v6c-.87-.87-2.16-2.16-3.33-3.33"/></g><g><path fill="#66757f" d="M32 30c0-.55-.45-1-1-1s-1 .45-1 1 .45 1 1 1 1-.45 1-1"/></g></g></g></g></svg>