<?xml version="1.0" encoding="UTF-8" standalone="no"?><svg xmlns:svg="http://www.w3.org/2000/svg" xmlns="http://www.w3.org/2000/svg" version="1.1" viewBox="0 0 47.5 47.5" style="enable-background:new 0 0 47.5 47.5;" id="svg2" xml:space="preserve"><defs id="defs6"><clipPath id="clipPath18"><path d="M 0,38 38,38 38,0 0,0 0,38 z" id="path20"/></clipPath><clipPath id="clipPath42"><path d="M 7,18 C 5.896,18 5,17.105 5,16 L 5,16 4,4 C 4,2.895 4.895,2 6,2 l 0,0 26,0 c 1.105,0 2,0.895 2,2 l 0,0 -1,12 c 0,-1.562 -0.895,2 -2,2 l 0,0 -24,0 z" id="path44"/></clipPath><clipPath id="clipPath86"><path d="m 4,18 c 0,-4.782 0,-3 2,-3 l 0,0 13,0 13,0 c 2,0 2,-1.063 2,3 l 0,0 c 0,4 -8,2 -15,13 l 0,0 C 12,20 4,22 4,18" id="path88"/></clipPath><clipPath id="clipPath110"><path d="M 0,38 38,38 38,0 0,0 0,38 z" id="path112"/></clipPath></defs><g transform="matrix(1.25,0,0,-1.25,0,47.5)" id="g12"><g id="g14"><g clip-path="url(#clipPath18)" id="g16"><g transform="translate(34,4)" id="g22"><path d="m 0,0 c 0,-1.104 -0.896,-2 -2,-2 l -26,0 c -1.104,0 -2,0.896 -2,2 l 1,12 c 0,1.104 0.896,2 2,2 l 24,0 c 1.104,0 2,-3.562 2,-2 L 0,0 z" id="path24" style="fill:#dd2e44;fill-opacity:1;fill-rule:nonzero;stroke:none"/></g><g transform="translate(20,28)" id="g26"><path d="m 0,0 c 0,-0.552 -0.448,-1 -1,-1 -0.552,0 -1,0.448 -1,1 l 0,7 c 0,0.552 0.448,1 1,1 L -1,7.958 C -0.448,7.958 0,7.552 0,7 L 0,0 z" id="path28" style="fill:#000000;fill-opacity:1;fill-rule:nonzero;stroke:none"/></g><g transform="translate(19.8379,36.7939)" id="g30"><path d="m 0,0 c -1.171,0.165 -1.838,-0.112 -1.838,-1.212 l 0,-1 c 0,-1.101 0.865,-1.753 1.923,-1.451 l 5.154,0.901 c 1.715,0.343 1.548,1.593 0.085,1.885 L 0,0 z" id="path32" style="fill:#55acee;fill-opacity:1;fill-rule:nonzero;stroke:none"/></g><g transform="translate(19,31)" id="g34"><path d="m 0,0 c -7,-11 -15,-9 -15,-13 0,-2 0,-3 2,-3 l 13,0 13,0 c 2,0 2,1 2,3 0,4 -8,2 -15,13" id="path36" style="fill:#f5f8fa;fill-opacity:1;fill-rule:nonzero;stroke:none"/></g></g></g><g id="g38"><g clip-path="url(#clipPath42)" id="g40"><g transform="translate(14,2)" id="g46"><path d="m 0,0 c -0.792,1.875 -1.75,3.291 -3.417,4.666 1.75,1.459 4.542,5.5 5.25,8.292 C 2.542,15.75 4.583,4.833 3.875,2.333 3.167,-0.167 0,0 0,0" id="path48" style="fill:#ea596e;fill-opacity:1;fill-rule:nonzero;stroke:none"/></g><g transform="translate(24.3027,2)" id="g50"><path d="m 0,0 c 0.791,1.875 1.75,3.291 3.416,4.666 -1.75,1.459 -4.541,5.5 -5.25,8.292 C -2.541,15.75 -4.583,4.833 -3.874,2.333 -3.166,-0.167 0,0 0,0" id="path52" style="fill:#ea596e;fill-opacity:1;fill-rule:nonzero;stroke:none"/></g><g transform="translate(9,14.5)" id="g54"><path d="M 0,0 C 0,-1.381 -1.119,-2.5 -2.5,-2.5 -3.881,-2.5 -5,-1.381 -5,0 -5,1.381 -3.881,2.5 -2.5,2.5 -1.119,2.5 0,1.381 0,0" id="path56" style="fill:#be1931;fill-opacity:1;fill-rule:nonzero;stroke:none"/></g><g transform="translate(34,14.5)" id="g58"><path d="M 0,0 C 0,-1.381 -1.119,-2.5 -2.5,-2.5 -3.881,-2.5 -5,-1.381 -5,0 -5,1.381 -3.881,2.5 -2.5,2.5 -1.119,2.5 0,1.381 0,0" id="path60" style="fill:#be1931;fill-opacity:1;fill-rule:nonzero;stroke:none"/></g><g transform="translate(17,14)" id="g62"><path d="m 0,0 c 0,-1.104 -0.896,-2 -2,-2 -1.104,0 -2,0.896 -2,2 0,1.104 0.896,2 2,2 1.104,0 2,-0.896 2,-2" id="path64" style="fill:#be1931;fill-opacity:1;fill-rule:nonzero;stroke:none"/></g><g transform="translate(25,14)" id="g66"><path d="m 0,0 c 0,-1.104 -0.896,-2 -2,-2 -1.104,0 -2,0.896 -2,2 0,1.104 0.896,2 2,2 1.104,0 2,-0.896 2,-2" id="path68" style="fill:#be1931;fill-opacity:1;fill-rule:nonzero;stroke:none"/></g><g transform="translate(13,14)" id="g70"><path d="m 0,0 c 0,-1.104 -0.896,-2 -2,-2 -1.104,0 -2,0.896 -2,2 0,1.104 0.896,2 2,2 1.104,0 2,-0.896 2,-2" id="path72" style="fill:#be1931;fill-opacity:1;fill-rule:nonzero;stroke:none"/></g><g transform="translate(29,14)" id="g74"><path d="m 0,0 c 0,-1.104 -0.896,-2 -2,-2 -1.104,0 -2,0.896 -2,2 0,1.104 0.896,2 2,2 1.104,0 2,-0.896 2,-2" id="path76" style="fill:#be1931;fill-opacity:1;fill-rule:nonzero;stroke:none"/></g><g transform="translate(24,2)" id="g78"><path d="m 0,0 -10,0 c 0,0 2,6 2,13 l 6,0 C -2,6 0,0 0,0" id="path80" style="fill:#000000;fill-opacity:1;fill-rule:nonzero;stroke:none"/></g></g></g><g id="g82"><g clip-path="url(#clipPath86)" id="g84"><g transform="translate(9,19)" id="g90"><path d="M 0,0 C 3,2 10,7 10,13 10,19 -1,14 -4,12 -7,10 -9,4 -8,1 -7,-2 -5,-5 0,-5 L 0,0 z" id="path92" style="fill:#ccd6dd;fill-opacity:1;fill-rule:nonzero;stroke:none"/></g><g transform="translate(29,19)" id="g94"><path d="m 0,0 c -3,2 -10.13,7 -10.13,13 0,6 10.935,1 13.935,-1 3,-2 5.097,-8 4.097,-11 C 6.902,-2 5,-5 0,-5 l 0,5 z" id="path96" style="fill:#ccd6dd;fill-opacity:1;fill-rule:nonzero;stroke:none"/></g><g transform="translate(19,31)" id="g98"><path d="m 0,0 c 0,2 0,-10 -2,-12 l 0,-5 c 0,-1 -4,-2 -4,0 l 0,5 c 1,1 6,7 6,12" id="path100" style="fill:#ccd6dd;fill-opacity:1;fill-rule:nonzero;stroke:none"/></g><g transform="translate(19,31)" id="g102"><path d="m 0,0 c 0,2 0,-10 2,-12 l 0,-5 c 0,-1 4,-2 4,0 l 0,5 C 5,-11 0,-5 0,0" id="path104" style="fill:#ccd6dd;fill-opacity:1;fill-rule:nonzero;stroke:none"/></g></g></g><g id="g106"><g clip-path="url(#clipPath110)" id="g108"><g transform="translate(9,15.5)" id="g114"><path d="M 0,0 C 0,-1.381 -1.119,-2.5 -2.5,-2.5 -3.881,-2.5 -5,-1.381 -5,0 -5,1.381 -3.881,2.5 -2.5,2.5 -1.119,2.5 0,1.381 0,0" id="path116" style="fill:#ccd6dd;fill-opacity:1;fill-rule:nonzero;stroke:none"/></g><g transform="translate(34,15.5)" id="g118"><path d="M 0,0 C 0,-1.381 -1.119,-2.5 -2.5,-2.5 -3.881,-2.5 -5,-1.381 -5,0 -5,1.381 -3.881,2.5 -2.5,2.5 -1.119,2.5 0,1.381 0,0" id="path120" style="fill:#ccd6dd;fill-opacity:1;fill-rule:nonzero;stroke:none"/></g><g transform="translate(17,15)" id="g122"><path d="m 0,0 c 0,-1.104 -0.896,-2 -2,-2 -1.104,0 -2,0.896 -2,2 0,1.104 0.896,2 2,2 1.104,0 2,-0.896 2,-2" id="path124" style="fill:#ccd6dd;fill-opacity:1;fill-rule:nonzero;stroke:none"/></g><g transform="translate(25,15)" id="g126"><path d="m 0,0 c 0,-1.104 -0.896,-2 -2,-2 -1.104,0 -2,0.896 -2,2 0,1.104 0.896,2 2,2 1.104,0 2,-0.896 2,-2" id="path128" style="fill:#ccd6dd;fill-opacity:1;fill-rule:nonzero;stroke:none"/></g><g transform="translate(21,15)" id="g130"><path d="m 0,0 c 0,-1.104 -0.896,-2 -2,-2 -1.104,0 -2,0.896 -2,2 0,1.104 0.896,2 2,2 1.104,0 2,-0.896 2,-2" id="path132" style="fill:#f5f8fa;fill-opacity:1;fill-rule:nonzero;stroke:none"/></g><g transform="translate(13,15)" id="g134"><path d="m 0,0 c 0,-1.104 -0.896,-2 -2,-2 -1.104,0 -2,0.896 -2,2 0,1.104 0.896,2 2,2 1.104,0 2,-0.896 2,-2" id="path136" style="fill:#f5f8fa;fill-opacity:1;fill-rule:nonzero;stroke:none"/></g><g transform="translate(29,15)" id="g138"><path d="m 0,0 c 0,-1.104 -0.896,-2 -2,-2 -1.104,0 -2,0.896 -2,2 0,1.104 0.896,2 2,2 1.104,0 2,-0.896 2,-2" id="path140" style="fill:#f5f8fa;fill-opacity:1;fill-rule:nonzero;stroke:none"/></g></g></g></g></svg>
