<svg xmlns="http://www.w3.org/2000/svg" viewBox="0 0 47.5 47.5" enable-background="new 0 0 47.5 47.5"><defs><clipPath id="a"><path d="M0 38h38V0H0v38z"/></clipPath><clipPath id="b"><path d="M7 18c-1.1 0-2-.9-2-2L4 4c0-1.1.9-2 2-2h26c1.1 0 2 .9 2 2l-1 12c0-1.56-.9 2-2 2H7z"/></clipPath><clipPath id="c"><path d="M4 18c0-4.78 0-3 2-3h26c2 0 2-1.06 2 3 0 4-8 2-15 13-7-11-15-9-15-13"/></clipPath><clipPath id="d"><path d="M0 38h38V0H0v38z"/></clipPath></defs><g><g><g clip-path="url(#a)" transform="matrix(1.25 0 0 -1.25 0 47.5)"><g><path fill="#dd2e44" d="M34 4c0-1.1-.9-2-2-2H6c-1.1 0-2 .9-2 2l1 12c0 1.1.9 2 2 2h24c1.1 0 2-3.56 2-2l1-12z"/></g><g><path d="M20 28c0-.55-.45-1-1-1s-1 .45-1 1v7c0 .55.45 1 1 1v-.04c.55 0 1-.4 1-.96v-7z"/></g><g><path fill="#55acee" d="M19.84 36.8c-1.17.16-1.84-.12-1.84-1.22v-1c0-1.1.86-1.75 1.92-1.45l5.16.9c1.7.34 1.54 1.6.08 1.9l-5.32.86z"/></g><g><path fill="#f5f8fa" d="M19 31C12 20 4 22 4 18c0-2 0-3 2-3h26c2 0 2 1 2 3 0 4-8 2-15 13"/></g></g></g><g><g clip-path="url(#b)" transform="matrix(1.25 0 0 -1.25 0 47.5)"><g><path fill="#ea596e" d="M14 2c-.8 1.88-1.75 3.3-3.42 4.67 1.75 1.46 4.54 5.5 5.25 8.3.7 2.78 2.75-8.14 2.04-10.64C17.18 1.83 14 2 14 2"/></g><g><path fill="#ea596e" d="M24.3 2c.8 1.88 1.75 3.3 3.42 4.67-1.75 1.46-4.54 5.5-5.25 8.3-.7 2.78-2.75-8.14-2.04-10.64C21.13 1.83 24.3 2 24.3 2"/></g><g><path fill="#be1931" d="M9 14.5C9 13.12 7.88 12 6.5 12S4 13.12 4 14.5 5.12 17 6.5 17 9 15.88 9 14.5"/></g><g><path fill="#be1931" d="M34 14.5c0-1.38-1.12-2.5-2.5-2.5S29 13.12 29 14.5s1.12 2.5 2.5 2.5 2.5-1.12 2.5-2.5"/></g><g><path fill="#be1931" d="M17 14c0-1.1-.9-2-2-2s-2 .9-2 2 .9 2 2 2 2-.9 2-2"/></g><g><path fill="#be1931" d="M25 14c0-1.1-.9-2-2-2s-2 .9-2 2 .9 2 2 2 2-.9 2-2"/></g><g><path fill="#be1931" d="M13 14c0-1.1-.9-2-2-2s-2 .9-2 2 .9 2 2 2 2-.9 2-2"/></g><g><path fill="#be1931" d="M29 14c0-1.1-.9-2-2-2s-2 .9-2 2 .9 2 2 2 2-.9 2-2"/></g><g><path d="M24 2H14s2 6 2 13h6c0-7 2-13 2-13"/></g></g></g><g><g clip-path="url(#c)" transform="matrix(1.25 0 0 -1.25 0 47.5)"><g><path fill="#ccd6dd" d="M9 19c3 2 10 7 10 13S8 33 5 31s-5-8-4-11 3-6 8-6v5z"/></g><g><path fill="#ccd6dd" d="M29 19c-3 2-10.13 7-10.13 13s10.93 1 13.93-1 5.1-8 4.1-11-2.9-6-7.9-6v5z"/></g><g><path fill="#ccd6dd" d="M19 31c0 2 0-10-2-12v-5c0-1-4-2-4 0v5c1 1 6 7 6 12"/></g><g><path fill="#ccd6dd" d="M19 31c0 2 0-10 2-12v-5c0-1 4-2 4 0v5c-1 1-6 7-6 12"/></g></g></g><g><g clip-path="url(#d)" transform="matrix(1.25 0 0 -1.25 0 47.5)"><g><path fill="#ccd6dd" d="M9 15.5C9 14.12 7.88 13 6.5 13S4 14.12 4 15.5 5.12 18 6.5 18 9 16.88 9 15.5"/></g><g><path fill="#ccd6dd" d="M34 15.5c0-1.38-1.12-2.5-2.5-2.5S29 14.12 29 15.5s1.12 2.5 2.5 2.5 2.5-1.12 2.5-2.5"/></g><g><path fill="#ccd6dd" d="M17 15c0-1.1-.9-2-2-2s-2 .9-2 2 .9 2 2 2 2-.9 2-2"/></g><g><path fill="#ccd6dd" d="M25 15c0-1.1-.9-2-2-2s-2 .9-2 2 .9 2 2 2 2-.9 2-2"/></g><g><path fill="#f5f8fa" d="M21 15c0-1.1-.9-2-2-2s-2 .9-2 2 .9 2 2 2 2-.9 2-2"/></g><g><path fill="#f5f8fa" d="M13 15c0-1.1-.9-2-2-2s-2 .9-2 2 .9 2 2 2 2-.9 2-2"/></g><g><path fill="#f5f8fa" d="M29 15c0-1.1-.9-2-2-2s-2 .9-2 2 .9 2 2 2 2-.9 2-2"/></g></g></g></g></svg>