<?xml version="1.0" encoding="UTF-8" standalone="no"?>
<!-- Created with Inkscape (http://www.inkscape.org/) -->

<svg
   xmlns:svg="http://www.w3.org/2000/svg"
   xmlns="http://www.w3.org/2000/svg"
   version="1.1"
   width="47.5"
   height="47.5"
   id="svg2"
   xml:space="preserve"><defs
     id="defs6"><clipPath
       id="clipPath18"><path
         d="M 0,38 38,38 38,0 0,0 0,38 z"
         id="path20" /></clipPath></defs><g
     transform="matrix(1.25,0,0,-1.25,0,47.5)"
     id="g12"><g
       id="g14"><g
         clip-path="url(#clipPath18)"
         id="g16"><g
           transform="translate(25,26.0005)"
           id="g22"><path
             d="m 0,0 c 0,-3.866 -3.135,-7 -7,-7 -3.867,0 -7,3.134 -7,7 0,3.866 3.133,7 7,7 3.865,0 7,-3.134 7,-7"
             id="path24"
             style="fill:#58595b;fill-opacity:1;fill-rule:nonzero;stroke:none" /></g><g
           transform="translate(34.999,23.0005)"
           id="g26"><path
             d="m 0,0 c 0,-3.313 -2.687,-6 -6,-6 -3.313,0 -6,2.687 -6,6 0,3.313 2.687,6 6,6 3.313,0 6,-2.687 6,-6"
             id="path28"
             style="fill:#58595b;fill-opacity:1;fill-rule:nonzero;stroke:none" /></g><g
           transform="translate(23,26.0005)"
           id="g30"><path
             d="m 0,0 c 0,-2.761 -2.239,-5 -5,-5 -2.762,0 -5,2.239 -5,5 0,2.761 2.238,5 5,5 2.761,0 5,-2.239 5,-5"
             id="path32"
             style="fill:#939598;fill-opacity:1;fill-rule:nonzero;stroke:none" /></g><g
           transform="translate(20,26.0005)"
           id="g34"><path
             d="m 0,0 c 0,-1.104 -1,-2 -2,-2 -1,0 -2,0.896 -2,2 0,1.104 0.896,2 2,2 1.104,0 2,-0.896 2,-2"
             id="path36"
             style="fill:#bcbec0;fill-opacity:1;fill-rule:nonzero;stroke:none" /></g><g
           transform="translate(31,8)"
           id="g38"><path
             d="m 0,0 c 0,-2.209 -1.791,-4 -4,-4 l -13,0 c -2.209,0 -4,1.791 -4,4 l 0,8 c 0,2.209 1.791,4 4,4 l 13,0 c 2.209,0 4,-1.791 4,-4 L 0,0 z"
             id="path40"
             style="fill:#58595b;fill-opacity:1;fill-rule:nonzero;stroke:none" /></g><path
           d="m 24,19 -3,0 0,3 3,0 0,-3 z"
           id="path42"
           style="fill:#58595b;fill-opacity:1;fill-rule:nonzero;stroke:none" /><g
           transform="translate(32.999,23.0005)"
           id="g44"><path
             d="m 0,0 c 0,-2.209 -1.791,-4 -4,-4 -2.209,0 -4,1.791 -4,4 0,2.209 1.791,4 4,4 2.209,0 4,-1.791 4,-4"
             id="path46"
             style="fill:#939598;fill-opacity:1;fill-rule:nonzero;stroke:none" /></g><g
           transform="translate(30.999,23.0005)"
           id="g48"><path
             d="m 0,0 c 0,-1.104 -0.896,-2 -2,-2 -1.104,0 -2,0.896 -2,2 0,1.104 0.896,2 2,2 1.104,0 2,-0.896 2,-2"
             id="path50"
             style="fill:#bcbec0;fill-opacity:1;fill-rule:nonzero;stroke:none" /></g><g
           transform="translate(10.9995,16)"
           id="g52"><path
             d="M 0,0 -1.999,0 -2,0 l -6,4 -1,0 0,-14 1,0 6,4 10e-4,0 L 0,-6 c 1.657,0 3,1.343 3,3 0,1.657 -1.343,3 -3,3"
             id="path54"
             style="fill:#58595b;fill-opacity:1;fill-rule:nonzero;stroke:none" /></g><g
           transform="translate(33,16)"
           id="g56"><path
             d="m 0,0 0,-1 -5,0 c -1.104,0 -2,-0.896 -2,-2 0,-1.104 0.896,-2 2,-2 l 5,0 0,-1 3,0 0,6 -3,0 z"
             id="path58"
             style="fill:#58595b;fill-opacity:1;fill-rule:nonzero;stroke:none" /></g><path
           d="M 28,7 18,7 18,17 28,17 28,7 z"
           id="path60"
           style="fill:#808285;fill-opacity:1;fill-rule:nonzero;stroke:none" /><path
           d="m 26,9 -6,0 0,6 6,0 0,-6 z"
           id="path62"
           style="fill:#58595b;fill-opacity:1;fill-rule:nonzero;stroke:none" /><g
           transform="translate(15.999,9)"
           id="g64"><path
             d="m 0,0 c 0,-1.104 -0.896,-2 -2,-2 -1.104,0 -2,0.896 -2,2 0,1.104 0.896,2 2,2 1.104,0 2,-0.896 2,-2"
             id="path66"
             style="fill:#808285;fill-opacity:1;fill-rule:nonzero;stroke:none" /></g></g></g></g></svg>