<svg xmlns="http://www.w3.org/2000/svg" viewBox="0 0 47.5 47.5" enable-background="new 0 0 47.5 47.5"><defs><clipPath id="a"><path d="M0 38h38V0H0v38z"/></clipPath></defs><g><g><g clip-path="url(#a)" transform="matrix(1.25 0 0 -1.25 0 47.5)"><g><path fill="#292f33" d="M3 1S1 1 1 3v32s0 2 2 2h32.03C37 37 37 35 37 35V3s0-2-2-2H3z"/></g><g><path fill="#e1e8ed" d="M20 4s0-1 1-1h5c1 0 1 1 1 1v28h-7V4z"/></g><g><path fill="#e1e8ed" d="M29 32V4s0-1 1-1h4c1 0 1 1 1 1v28h-6z"/></g><g><path fill="#e1e8ed" d="M11 4s0-1 1-1h5c1 0 1 1 1 1v28h-7V4z"/></g><g><path fill="#e1e8ed" d="M3 4s0-1 1-1h4c1 0 1 1 1 1v28H3V4z"/></g><g><path fill="#292f33" d="M31 14s0-1-1-1h-4c-1 0-1 1-1 1v20h6V14z"/></g><g><path fill="#292f33" d="M22 14s0-1-1-1h-4c-1 0-1 1-1 1v20h6V14z"/></g><g><path fill="#292f33" d="M13 14s0-1-1-1H8c-1 0-1 1-1 1v20h6V14z"/></g></g></g></g></svg>