<?xml version="1.0" encoding="UTF-8" standalone="no"?><svg xmlns:svg="http://www.w3.org/2000/svg" xmlns="http://www.w3.org/2000/svg" version="1.1" viewBox="0 0 47.5 47.5" style="enable-background:new 0 0 47.5 47.5;" id="svg2" xml:space="preserve"><defs id="defs6"><clipPath id="clipPath18"><path d="M 0,38 38,38 38,0 0,0 0,38 z" id="path20"/></clipPath><clipPath id="clipPath30"><path d="M 1,19 C 1,9.059 9.059,1 19,1 l 0,0 c 9.94,0 18,8.059 18,18 l 0,0 c 0,9.941 -8.059,18 -18,18 l 0,0 C 9.059,37 1,28.941 1,19" id="path32"/></clipPath></defs><g transform="matrix(1.25,0,0,-1.25,0,47.5)" id="g12"><g id="g14"><g clip-path="url(#clipPath18)" id="g16"><g transform="translate(19,1)" id="g22"><path d="m 0,0 c -9.941,0 -18,8.059 -18,18 0,9.941 8.059,18 18,18 C 9.941,36 18,27.941 18,18 18,8.059 9.94,0 0,0" id="path24" style="fill:#77b255;fill-opacity:1;fill-rule:nonzero;stroke:none"/></g></g></g><g id="g26"><g clip-path="url(#clipPath30)" id="g28"><g transform="translate(35,33)" id="g34"><path d="m 0,0 c 4.352,0 9,-3.678 9,-14 0,-10.322 -4.648,-14 -9,-14 -4.352,0 -9,3.678 -9,14 0,10.322 4.648,14 9,14" id="path36" style="fill:#a6d388;fill-opacity:1;fill-rule:nonzero;stroke:none"/></g><g transform="translate(35,7)" id="g38"><path d="M 0,0 C 4.318,0 7,4.598 7,12 7,19.402 4.318,24 0,24 -4.318,24 -7,19.402 -7,12 -7,4.598 -4.318,0 0,0 M 0,26 C 4.352,26 9,22.322 9,12 9,1.678 4.352,-2 0,-2 c -4.352,0 -9,3.678 -9,14 0,10.322 4.648,14 9,14" id="path40" style="fill:#ffffff;fill-opacity:1;fill-rule:nonzero;stroke:none"/></g><g transform="translate(3,33)" id="g42"><path d="m 0,0 c 4.351,0 9,-3.678 9,-14 0,-10.322 -4.649,-14 -9,-14 -4.351,0 -9,3.678 -9,14 0,10.322 4.649,14 9,14" id="path44" style="fill:#a6d388;fill-opacity:1;fill-rule:nonzero;stroke:none"/></g><g transform="translate(3,7)" id="g46"><path d="M 0,0 C 4.317,0 7,4.598 7,12 7,19.402 4.317,24 0,24 -4.317,24 -7,19.402 -7,12 -7,4.599 -4.317,0 0,0 M 0,26 C 4.351,26 9,22.322 9,12 9,1.678 4.351,-2 0,-2 c -4.351,0 -9,3.678 -9,14 0,10.322 4.649,14 9,14" id="path48" style="fill:#ffffff;fill-opacity:1;fill-rule:nonzero;stroke:none"/></g></g></g></g></svg>
