<?xml version="1.0" encoding="UTF-8" standalone="no"?><svg xmlns:dc="http://purl.org/dc/elements/1.1/" xmlns:cc="http://creativecommons.org/ns#" xmlns:rdf="http://www.w3.org/1999/02/22-rdf-syntax-ns#" xmlns:svg="http://www.w3.org/2000/svg" xmlns="http://www.w3.org/2000/svg" viewBox="0 0 47.5 47.5" style="enable-background:new 0 0 47.5 47.5;" xml:space="preserve" version="1.1" id="svg2"><metadata id="metadata8"><rdf:RDF><cc:Work rdf:about=""><dc:format>image/svg+xml</dc:format><dc:type rdf:resource="http://purl.org/dc/dcmitype/StillImage"/></cc:Work></rdf:RDF></metadata><defs id="defs6"><clipPath id="clipPath16" clipPathUnits="userSpaceOnUse"><path id="path18" d="M 0,38 38,38 38,0 0,0 0,38 Z"/></clipPath><clipPath id="clipPath28" clipPathUnits="userSpaceOnUse"><path id="path30" d="m 19,36 c -1,-1 -1,-2 -1,-4 l 0,0 c 0,-2 1,-4 1,-5 l 0,0 c 0,-3 -4,-5 -4,-9.084 l 0,0 C 15,14.583 17,8 18,6 l 0,0 3,0 3,0 c 1,2 3,8.583 3,11.916 l 0,0 C 27,22 23,24 23,27 l 0,0 c 0,1 1,3 1,5 l 0,0 c 0,2 0,3 -1,4 l 0,0 c -1,1 -2,1 -2,1 l 0,0 c 0,0 -1,0 -2,-1"/></clipPath><clipPath id="clipPath40" clipPathUnits="userSpaceOnUse"><path id="path42" d="M 0,38 38,38 38,0 0,0 0,38 Z"/></clipPath><clipPath id="clipPath52" clipPathUnits="userSpaceOnUse"><path id="path54" d="m 29,33 c -1,-1 -1,-2 -1,-4 l 0,0 c 0,-2 1,-4 1,-5 l 0,0 c 0,-3 -4,-5 -4,-9.084 l 0,0 C 25,11.583 27,5 28,3 l 0,0 3,0 3,0 c 1,2 3,8.583 3,11.916 l 0,0 C 37,19 33,21 33,24 l 0,0 c 0,1 1,3 1,5 l 0,0 c 0,2 0,3 -1,4 l 0,0 c -1,1 -2,1 -2,1 l 0,0 c 0,0 -1,0 -2,-1"/></clipPath><clipPath id="clipPath64" clipPathUnits="userSpaceOnUse"><path id="path66" d="M 0,38 38,38 38,0 0,0 0,38 Z"/></clipPath></defs><g transform="matrix(1.25,0,0,-1.25,0,47.5)" id="g10"><g id="g12"><g clip-path="url(#clipPath16)" id="g14"><g transform="translate(23,27)" id="g20"><path id="path22" style="fill:#ccd6dd;fill-opacity:1;fill-rule:nonzero;stroke:none" d="m 0,0 c 0,1 1,3 1,5 0,2 0,3 -1,4 -1,1 -2,1 -2,1 0,0 -1,0 -2,-1 C -5,8 -5,7 -5,5 -5,3 -4,1 -4,0 -4,-3 -8,-5 -8,-9.084 -8,-12.417 -6,-19 -5,-21 l 3,0 3,0 c 1,2 3,8.583 3,11.916 C 4,-5 0,-3 0,0"/></g></g></g><g id="g24"><g clip-path="url(#clipPath28)" id="g26"><path id="path32" style="fill:#be1931;fill-opacity:1;fill-rule:nonzero;stroke:none" d="m 24,27 -6,0 0,2 6,0 0,-2 z"/><path id="path34" style="fill:#be1931;fill-opacity:1;fill-rule:nonzero;stroke:none" d="m 25,23 -8,0 0,2 8,0 0,-2 z"/></g></g><g id="g36"><g clip-path="url(#clipPath40)" id="g38"><g transform="translate(33,24)" id="g44"><path id="path46" style="fill:#ccd6dd;fill-opacity:1;fill-rule:nonzero;stroke:none" d="m 0,0 c 0,1 1,3 1,5 0,2 0,3 -1,4 -1,1 -2,1 -2,1 0,0 -1,0 -2,-1 C -5,8 -5,7 -5,5 -5,3 -4,1 -4,0 -4,-3 -8,-5 -8,-9.084 -8,-12.417 -6,-19 -5,-21 l 3,0 3,0 c 1,2 3,8.583 3,11.916 C 4,-5 0,-3 0,0"/></g></g></g><g id="g48"><g clip-path="url(#clipPath52)" id="g50"><path id="path56" style="fill:#be1931;fill-opacity:1;fill-rule:nonzero;stroke:none" d="m 34,24 -6,0 0,2 6,0 0,-2 z"/><path id="path58" style="fill:#be1931;fill-opacity:1;fill-rule:nonzero;stroke:none" d="m 35,20 -8,0 0,2 8,0 0,-2 z"/></g></g><g id="g60"><g clip-path="url(#clipPath64)" id="g62"><g transform="translate(13.562,1)" id="g68"><path id="path70" style="fill:#3a4449;fill-opacity:1;fill-rule:nonzero;stroke:none" d="m 0,0 c -6.938,0 -12.562,5.624 -12.562,12.563 0,6.937 5.624,12.562 12.562,12.562 6.938,0 12.563,-5.625 12.563,-12.562 C 12.563,5.624 6.938,0 0,0"/></g><g transform="translate(16.2305,18.21)" id="g72"><path id="path74" style="fill:#000000;fill-opacity:1;fill-rule:nonzero;stroke:none" d="m 0,0 c 0,-1.279 -1.037,-2.316 -2.315,-2.316 -1.28,0 -2.316,1.037 -2.316,2.316 0,1.279 1.036,2.315 2.316,2.315 C -1.037,2.315 0,1.279 0,0"/></g><g transform="translate(9.8203,16.0625)" id="g76"><path id="path78" style="fill:#000000;fill-opacity:1;fill-rule:nonzero;stroke:none" d="m 0,0 c 0,-1.279 -1.037,-2.316 -2.316,-2.316 -1.279,0 -2.315,1.037 -2.315,2.316 0,1.279 1.036,2.315 2.315,2.315 C -1.037,2.315 0,1.279 0,0"/></g><g transform="translate(14.7466,8.9473)" id="g80"><path id="path82" style="fill:#000000;fill-opacity:1;fill-rule:nonzero;stroke:none" d="m 0,0 c 0,-1.279 -1.037,-2.316 -2.316,-2.316 -1.279,0 -2.315,1.037 -2.315,2.316 0,1.278 1.036,2.315 2.315,2.315 C -1.037,2.315 0,1.278 0,0"/></g></g></g></g></svg>
