<svg xmlns="http://www.w3.org/2000/svg" viewBox="0 0 47.5 47.5" enable-background="new 0 0 47.5 47.5"><defs><clipPath id="a"><path d="M0 38h38V0H0v38z"/></clipPath></defs><g><g><g clip-path="url(#a)" transform="matrix(1.25 0 0 -1.25 0 47.5)"><g><path fill="#f18f26" d="M25.92 18.75c-2.4-.8-3.18 3.2-3.18 3.2s1.08 1.08.26 2.05c1.28 1.28.53 1.92.53 1.92-2.2 2.2-5.77 2.2-7.97 0-.28-.27-.47-.52-.63-.76-.06-.1-.13-.2-.2-.3 0 0 0-.02 0-.03-.32-.53-.56-1.1-.68-1.7-.18-.36-.43-.74-.88-1.2-1.6-1.6-5.58.8-8.77-2.38-.04-.04-.06-.08-.08-.12-.1-.1-.22-.18-.32-.28C.25 15.4.6 8.98 4.8 4.8 8.77.8 14.76.3 18.56 3.47c.07.03.13.06.2.12.07.08.13.16.2.24.07.05.13.1.2.16 1.9 1.9 2.63 4.2 2.34 6.55-.08 1.12-.2 2 .44 2.62.8.8 3.2 0 4.78 1.6 2.4 2.38.72 4.48-.8 3.98"/></g><g><path fill="#642116" d="M33.05 30.93L20.9 18.8l-2.1 2.1 12.13 12.15 2.12-2.12z"/></g><g><path fill="#f18f26" d="M36.2 33.8c.44-.42.44-1.14 0-1.58l-3.18-3.18c-.44-.44-1.16-.44-1.6 0l-2.4 2.4c-.42.42-.42 1.14.02 1.58l3.18 3.18c.44.44 1.16.44 1.6 0l2.38-2.4z"/></g><g><path fill="#ccd6dd" d="M21 17.46l-1.4-1.4-3.55 3.53 1.4 1.4L21 17.46z"/></g><g><path fill="#ccd6dd" d="M17.46 13.93l-1.4-1.42-3.55 3.55 1.43 1.4 3.53-3.52z"/></g><g><path fill="#642116" d="M13.93 11.8c.4-.38.4-1.02 0-1.4-.4-.4-1.03-.4-1.42 0l-2.1 2.1c-.4.4-.4 1.04 0 1.43.38.4 1.02.4 1.4 0l2.13-2.12z"/></g></g></g></g></svg>