<svg xmlns="http://www.w3.org/2000/svg" viewBox="0 0 47.5 47.5" enable-background="new 0 0 47.5 47.5"><defs><clipPath id="a"><path d="M0 38h38V0H0v38z"/></clipPath></defs><g><g><g clip-path="url(#a)" transform="matrix(1.25 0 0 -1.25 0 47.5)"><g><path fill="#5dadec" d="M35.2 36.8l-22.4-2.6c-1-.1-1.8-1-1.8-2V13.42c-.9.37-1.92.58-3 .58-3.86 0-7-2.7-7-6s3.14-6 7-6c3.87 0 7 2.7 7 6v18.46l18 2.08V15.42c-.9.37-1.93.58-3 .58-3.87 0-7-2.7-7-6s3.13-6 7-6 7 2.7 7 6V35.2c0 1-.8 1.7-1.8 1.6"/></g></g></g></g></svg>