<svg xmlns="http://www.w3.org/2000/svg" viewBox="0 0 47.5 47.5" enable-background="new 0 0 47.5 47.5"><defs><clipPath id="a"><path d="M0 38h38V0H0v38z"/></clipPath></defs><g><g><g clip-path="url(#a)" transform="matrix(1.25 0 0 -1.25 0 47.5)"><g><path fill="#fcab40" d="M6.62 3.95L3.95 6.62l20.4 20.4c3.33 3.34 1.32 8 2 8.68.66.67 1.33 0 1.33 0l8.02-8.02c.67-.67 0-1.33 0-1.33-.67-.67-5.78.9-8.7-2L6.63 3.94z"/></g><g><path fill="#ccd6dd" d="M6.46 3.1c.92.93.92 2.43 0 3.36-.93.92-2.43.92-3.35 0l.1-.1c-.38.35-.94.34-1.3-.02-.37-.36-.37-.96 0-1.33L5 1.9c.38-.37.98-.37 1.34 0 .36.36.36.92.04 1.3l.08-.1z"/></g><g><path fill="#fcab40" d="M25 21.55c-.5 0-.97-.2-1.33-.55l-10.7-10.7c-.35-.36-.55-.83-.55-1.34 0-.5.2-.98.55-1.33.36-.36.83-.56 1.34-.56.52 0 1 .2 1.35.56l10.7 10.7c.73.73.73 1.93 0 2.67-.36.35-.84.55-1.34.55M14.3 3.3c-1.5 0-2.93.58-4 1.65-1.07 1.07-1.66 2.5-1.66 4 0 1.53.6 2.95 1.66 4.02L21 23.67c1.07 1.07 2.5 1.66 4 1.66 1.52 0 2.95-.6 4.02-1.66 2.2-2.2 2.2-5.8 0-8.02l-10.7-10.7c-1.07-1.07-2.5-1.66-4-1.66"/></g><g><path fill="#fcab40" d="M26.34 12.97c.74-.73 1.94-.73 2.68 0 .74.74.74 1.94 0 2.68L21 23.67c-.74.74-1.94.74-2.68 0-.74-.74-.74-1.94 0-2.67l8.02-8.03z"/></g><g><path fill="#fcab40" d="M22.33 8.96c.74-.74 1.94-.74 2.68 0 .74.74.74 1.94 0 2.68L17 19.66c-.73.74-1.93.74-2.67 0-.73-.74-.73-1.94 0-2.68l8.03-8.02z"/></g><g><path fill="#fcab40" d="M18.32 4.95c.74-.74 1.94-.74 2.67 0s.73 1.94 0 2.68l-8.03 8.02c-.74.74-1.93.74-2.67 0s-.74-1.94 0-2.68l8.02-8.02z"/></g><g><path fill="#ccd6dd" d="M15.65 23.67c.37-.37.97-.37 1.33 0L18.32 25c.37.38.37.97 0 1.34-.37.37-.97.37-1.34 0L15.65 25c-.37-.36-.37-.96 0-1.33"/></g><g><path fill="#ccd6dd" d="M11.64 19.66c.37-.37.96-.37 1.33 0L14.3 21c.38.37.38.96 0 1.33-.36.37-.96.37-1.33 0L11.64 21c-.37-.37-.37-.97 0-1.34"/></g><g><path fill="#ccd6dd" d="M7.63 15.65c.37-.37.96-.37 1.33 0L10.3 17c.37.35.37.95 0 1.32-.37.37-.97.37-1.34 0l-1.33-1.34c-.37-.36-.37-.96 0-1.33"/></g></g></g></g></svg>