<?xml version="1.0" encoding="UTF-8" standalone="no"?><svg xmlns:dc="http://purl.org/dc/elements/1.1/" xmlns:cc="http://creativecommons.org/ns#" xmlns:rdf="http://www.w3.org/1999/02/22-rdf-syntax-ns#" xmlns:svg="http://www.w3.org/2000/svg" xmlns="http://www.w3.org/2000/svg" viewBox="0 0 47.5 47.5" style="enable-background:new 0 0 47.5 47.5;" xml:space="preserve" version="1.1" id="svg2"><metadata id="metadata8"><rdf:RDF><cc:Work rdf:about=""><dc:format>image/svg+xml</dc:format><dc:type rdf:resource="http://purl.org/dc/dcmitype/StillImage"/></cc:Work></rdf:RDF></metadata><defs id="defs6"><clipPath id="clipPath16" clipPathUnits="userSpaceOnUse"><path id="path18" d="M 0,38 38,38 38,0 0,0 0,38 Z"/></clipPath></defs><g transform="matrix(1.25,0,0,-1.25,0,47.5)" id="g10"><g id="g12"><g clip-path="url(#clipPath16)" id="g14"><g transform="translate(5,26)" id="g20"><path id="path22" style="fill:#a0041e;fill-opacity:1;fill-rule:nonzero;stroke:none" d="m 0,0 0,-12.375 c 0,-2.042 1.093,-2.484 1.093,-2.484 0,0 9.752,-7.667 11.574,-9.099 1.821,-1.432 1.333,1.583 1.333,1.583 L 14,-11 0,0 Z"/></g><g transform="translate(33,26)" id="g24"><path id="path26" style="fill:#dd2e44;fill-opacity:1;fill-rule:nonzero;stroke:none" d="m 0,0 0,-12.375 c 0,-2.042 -1.063,-2.484 -1.063,-2.484 0,0 -9.767,-7.667 -11.588,-9.099 -1.823,-1.432 -1.349,1.583 -1.349,1.583 L -14,-11 0,0 Z"/></g><g transform="translate(20.2891,36.5)" id="g28"><path id="path30" style="fill:#ea596e;fill-opacity:1;fill-rule:nonzero;stroke:none" d="m 0,0 c -0.753,0.61 -1.988,0.61 -2.742,0 l -11.982,-9.529 c -0.754,-0.61 -0.754,-1.607 0,-2.216 l 12.023,-9.647 c 0.755,-0.609 1.989,-0.609 2.743,0 l 12.104,9.731 c 0.753,0.609 0.753,1.606 0,2.216 L 0,0 Z"/></g><g transform="translate(22.416,26)" id="g32"><path id="path34" style="fill:#ffffff;fill-opacity:1;fill-rule:nonzero;stroke:none" d="m 0,0 c 0,-1.289 -1.306,-2.333 -2.916,-2.333 -1.611,0 -2.916,1.044 -2.916,2.333 0,1.289 1.305,2.333 2.916,2.333 C -1.306,2.333 0,1.289 0,0"/></g><g transform="translate(29.5439,16.4668)" id="g36"><path id="path38" style="fill:#ffffff;fill-opacity:1;fill-rule:nonzero;stroke:none" d="M 0,0 C -0.872,0 -1.375,0.902 -1.123,2.017 -0.872,3.13 0.039,4.033 0.911,4.033 1.784,4.033 2.287,3.13 2.035,2.017 1.784,0.902 0.872,0 0,0"/></g><g transform="translate(26.4541,11.2578)" id="g40"><path id="path42" style="fill:#ffffff;fill-opacity:1;fill-rule:nonzero;stroke:none" d="m 0,0 c -0.883,0 -1.392,0.949 -1.138,2.121 0.255,1.172 1.179,2.121 2.062,2.121 0.884,0 1.392,-0.949 1.138,-2.121 C 1.808,0.949 0.884,0 0,0"/></g><g transform="translate(23.0195,6.0508)" id="g44"><path id="path46" style="fill:#ffffff;fill-opacity:1;fill-rule:nonzero;stroke:none" d="m 0,0 c -0.838,0 -1.322,0.921 -1.08,2.058 0.242,1.136 1.118,2.057 1.957,2.057 0.839,0 1.322,-0.921 1.081,-2.057 C 1.716,0.921 0.839,0 0,0"/></g><g transform="translate(8.188,18.999)" id="g48"><path id="path50" style="fill:#e1e8ed;fill-opacity:1;fill-rule:nonzero;stroke:none" d="m 0,0 c -0.994,0 -1.567,-1.007 -1.28,-2.249 0.286,-1.243 1.325,-2.25 2.319,-2.25 0.994,0 1.567,1.007 1.28,2.25 C 2.033,-1.007 0.994,0 0,0"/></g><g transform="translate(13.7715,11.5)" id="g52"><path id="path54" style="fill:#e1e8ed;fill-opacity:1;fill-rule:nonzero;stroke:none" d="m 0,0 c -0.994,0 -1.567,-1.007 -1.281,-2.25 0.287,-1.242 1.326,-2.25 2.32,-2.25 0.994,0 1.567,1.008 1.28,2.25 C 2.033,-1.007 0.994,0 0,0"/></g><g transform="translate(19,1.25)" id="g56"><path id="path58" style="fill:#ea596e;fill-opacity:1;fill-rule:nonzero;stroke:none" d="m 0,0 c -0.552,0 -1,0.482 -1,1.078 l 0,12.927 c 0,0.596 0.448,1.078 1,1.078 0.553,0 1,-0.482 1,-1.078 L 1,1.078 C 1,0.482 0.553,0 0,0"/></g></g></g></g></svg>
