<?xml version="1.0" encoding="UTF-8" standalone="no"?>
<!-- Created with Inkscape (http://www.inkscape.org/) -->

<svg
   xmlns:svg="http://www.w3.org/2000/svg"
   xmlns="http://www.w3.org/2000/svg"
   version="1.1"
   width="47.5"
   height="47.5"
   id="svg2"
   xml:space="preserve"><defs
     id="defs6"><clipPath
       id="clipPath18"><path
         d="M 0,38 38,38 38,0 0,0 0,38 z"
         id="path20" /></clipPath></defs><g
     transform="matrix(1.25,0,0,-1.25,0,47.5)"
     id="g12"><g
       id="g14"><g
         clip-path="url(#clipPath18)"
         id="g16"><g
           transform="translate(25.9248,18.7485)"
           id="g22"><path
             d="m 0,0 c -2.392,-0.797 -3.189,3.189 -3.189,3.189 0,0 1.088,1.092 0.264,2.062 1.283,1.283 0.533,1.925 0.533,1.925 -2.203,2.202 -5.772,2.202 -7.974,0 -0.278,-0.278 -0.466,-0.527 -0.624,-0.764 -0.068,-0.098 -0.13,-0.196 -0.191,-0.296 -0.006,-0.011 -0.01,-0.021 -0.016,-0.031 -0.322,-0.535 -0.553,-1.107 -0.682,-1.701 -0.176,-0.359 -0.427,-0.743 -0.879,-1.195 -1.595,-1.594 -5.581,0.797 -8.771,-2.392 -0.033,-0.032 -0.051,-0.078 -0.077,-0.116 -0.107,-0.095 -0.218,-0.179 -0.321,-0.282 -3.743,-3.743 -3.386,-10.169 0.798,-14.353 3.974,-3.974 9.968,-4.487 13.767,-1.319 0.066,0.035 0.132,0.069 0.185,0.123 0.081,0.081 0.142,0.158 0.218,0.237 0.06,0.056 0.123,0.105 0.181,0.162 1.909,1.91 2.641,4.206 2.352,6.552 -0.076,1.116 -0.186,1.991 0.44,2.617 0.797,0.797 3.188,0 4.783,1.595 C 3.188,-1.595 1.513,0.503 0,0"
             id="path24"
             style="fill:#f18f26;fill-opacity:1;fill-rule:nonzero;stroke:none" /></g><g
           transform="translate(33.0488,30.9287)"
           id="g26"><path
             d="m 0,0 -12.141,-12.142 -2.122,2.121 L -2.121,2.122 0,0 z"
             id="path28"
             style="fill:#642116;fill-opacity:1;fill-rule:nonzero;stroke:none" /></g><g
           transform="translate(36.2041,33.8145)"
           id="g30"><path
             d="m 0,0 c 0.437,-0.438 0.437,-1.155 -0.001,-1.593 l -3.187,-3.185 c -0.438,-0.438 -1.155,-0.438 -1.592,0 l -2.39,2.389 c -0.437,0.438 -0.437,1.155 0.001,1.593 l 3.187,3.185 c 0.438,0.438 1.155,0.438 1.592,0 L 0,0 z"
             id="path32"
             style="fill:#f18f26;fill-opacity:1;fill-rule:nonzero;stroke:none" /></g><g
           transform="translate(21,17.4648)"
           id="g34"><path
             d="M 0,0 -1.414,-1.415 -4.95,2.121 -3.536,3.535 0,0 z"
             id="path36"
             style="fill:#ccd6dd;fill-opacity:1;fill-rule:nonzero;stroke:none" /></g><g
           transform="translate(17.4639,13.9287)"
           id="g38"><path
             d="M 0,0 -1.414,-1.414 -4.95,2.121 -3.536,3.536 0,0 z"
             id="path40"
             style="fill:#ccd6dd;fill-opacity:1;fill-rule:nonzero;stroke:none" /></g><g
           transform="translate(13.9282,11.8076)"
           id="g42"><path
             d="m 0,0 c 0.389,-0.389 0.389,-1.025 0,-1.414 -0.389,-0.389 -1.025,-0.389 -1.414,0 l -2.122,2.121 c -0.388,0.389 -0.388,1.025 0,1.414 l 10e-4,0 c 0.389,0.389 1.025,0.389 1.414,0 L 0,0 z"
             id="path44"
             style="fill:#642116;fill-opacity:1;fill-rule:nonzero;stroke:none" /></g></g></g></g></svg>