<svg xmlns="http://www.w3.org/2000/svg" viewBox="0 0 47.5 47.5" enable-background="new 0 0 47.5 47.5"><defs><clipPath id="a"><path d="M0 38h38V0H0v38z"/></clipPath></defs><g><g><g clip-path="url(#a)" transform="matrix(1.25 0 0 -1.25 0 47.5)"><g><path fill="#292f33" d="M19 1C9.06 1 1 9.06 1 19s8.06 18 18 18 18-8.06 18-18S28.94 1 19 1"/></g><g><path fill="#e1e8ed" d="M28 19c0-4.97-4.03-9-9-9s-9 4.03-9 9 4.03 9 9 9 9-4.03 9-9"/></g><g><path fill="#292f33" d="M17.78 22.07c0-.8.46-1.34 1.27-1.34.8 0 1.28.55 1.28 1.34 0 .76-.46 1.34-1.28 1.34-.83 0-1.27-.57-1.27-1.33m-.33-5.1c0-.9.52-1.75 1.6-1.75 1 0 1.6.86 1.6 1.75 0 1.1-.64 1.76-1.6 1.76-1.02 0-1.6-.77-1.6-1.76m-2.75-.17c0 1.4.78 2.44 1.88 3.04-.82.6-1.33 1.4-1.33 2.5 0 2.07 1.7 3.4 3.8 3.4 2.03 0 3.8-1.3 3.8-3.4 0-.97-.48-1.96-1.34-2.5 1.2-.6 1.9-1.7 1.9-3.04 0-2.45-2-4-4.35-4-2.43 0-4.35 1.64-4.35 4"/></g></g></g></g></svg>