<?xml version="1.0" encoding="UTF-8" standalone="no"?><svg xmlns:svg="http://www.w3.org/2000/svg" xmlns="http://www.w3.org/2000/svg" version="1.1" viewBox="0 0 47.5 47.5" style="enable-background:new 0 0 47.5 47.5;" id="svg2" xml:space="preserve"><defs id="defs6"><clipPath id="clipPath18"><path d="M 0,38 38,38 38,0 0,0 0,38 z" id="path20"/></clipPath></defs><g transform="matrix(1.25,0,0,-1.25,0,47.5)" id="g12"><g id="g14"><g clip-path="url(#clipPath18)" id="g16"><g transform="translate(3,1)" id="g22"><path d="m 0,0 c 0,0 -2,0 -2,2 l 0,32 c 0,0 0,2 2,2 l 32.031,0 C 34,36 34,34 34,34 L 34,2 C 34,2 34,0 32,0 L 0,0 z" id="path24" style="fill:#292f33;fill-opacity:1;fill-rule:nonzero;stroke:none"/></g><g transform="translate(20,4)" id="g26"><path d="m 0,0 c 0,0 0,-1 1,-1 l 5,0 c 1,0 1,1 1,1 L 7,28 0,28 0,0 z" id="path28" style="fill:#e1e8ed;fill-opacity:1;fill-rule:nonzero;stroke:none"/></g><g transform="translate(29,32)" id="g30"><path d="m 0,0 0,-28 c 0,0 0,-1 1,-1 l 4,0 c 1,0 1,1 1,1 L 6,0 0,0 z" id="path32" style="fill:#e1e8ed;fill-opacity:1;fill-rule:nonzero;stroke:none"/></g><g transform="translate(11,4)" id="g34"><path d="m 0,0 c 0,0 0,-1 1,-1 l 5,0 c 1,0 1,1 1,1 L 7,28 0,28 0,0 z" id="path36" style="fill:#e1e8ed;fill-opacity:1;fill-rule:nonzero;stroke:none"/></g><g transform="translate(3,4)" id="g38"><path d="m 0,0 c 0,0 0,-1 1,-1 l 4,0 c 1,0 1,1 1,1 L 6,28 0,28 0,0 z" id="path40" style="fill:#e1e8ed;fill-opacity:1;fill-rule:nonzero;stroke:none"/></g><g transform="translate(31,14)" id="g42"><path d="m 0,0 c 0,0 0,-1 -1,-1 l -4,0 c -1,0 -1,1 -1,1 l 0,20 6,0 0,-20 z" id="path44" style="fill:#292f33;fill-opacity:1;fill-rule:nonzero;stroke:none"/></g><g transform="translate(22,14)" id="g46"><path d="m 0,0 c 0,0 0,-1 -1,-1 l -4,0 c -1,0 -1,1 -1,1 l 0,20 6,0 0,-20 z" id="path48" style="fill:#292f33;fill-opacity:1;fill-rule:nonzero;stroke:none"/></g><g transform="translate(13,14)" id="g50"><path d="m 0,0 c 0,0 0,-1 -1,-1 l -4,0 c -1,0 -1,1 -1,1 l 0,20 6,0 0,-20 z" id="path52" style="fill:#292f33;fill-opacity:1;fill-rule:nonzero;stroke:none"/></g></g></g></g></svg>
