<svg xmlns="http://www.w3.org/2000/svg" viewBox="0 0 47.5 47.5" enable-background="new 0 0 47.5 47.5"><defs><clipPath id="a"><path d="M0 38h38V0H0v38z"/></clipPath></defs><g><g><g clip-path="url(#a)" transform="matrix(1.25 0 0 -1.25 0 47.5)"><g><path fill="#a0041e" d="M5 26V13.62c0-2.04 1.1-2.48 1.1-2.48s9.75-7.67 11.57-9.1C19.5.6 19 3.62 19 3.62V15L5 26z"/></g><g><path fill="#dd2e44" d="M33 26V13.62c0-2.04-1.06-2.48-1.06-2.48s-9.77-7.67-11.6-9.1C18.55.6 19 3.62 19 3.62V15l14 11z"/></g><g><path fill="#ea596e" d="M20.3 36.5c-.76.6-2 .6-2.75 0L5.57 26.97c-.76-.6-.76-1.6 0-2.2L17.6 15.1c.74-.6 1.98-.6 2.73 0l12.1 9.74c.76.6.76 1.6 0 2.2L20.3 36.52z"/></g><g><path fill="#fff" d="M22.42 26c0-1.3-1.3-2.33-2.92-2.33-1.6 0-2.92 1.04-2.92 2.33 0 1.3 1.3 2.33 2.92 2.33 1.6 0 2.92-1.04 2.92-2.33"/></g><g><path fill="#fff" d="M29.54 16.47c-.87 0-1.37.9-1.12 2 .25 1.13 1.16 2.03 2.03 2.03.88 0 1.38-.9 1.13-2.02-.25-1.1-1.16-2-2.04-2"/></g><g><path fill="#fff" d="M26.45 11.26c-.88 0-1.4.95-1.13 2.12.25 1.17 1.18 2.12 2.06 2.12.88 0 1.4-.95 1.14-2.12-.26-1.17-1.18-2.12-2.07-2.12"/></g><g><path fill="#fff" d="M23.02 6.05c-.84 0-1.32.92-1.08 2.06.24 1.14 1.12 2.07 1.96 2.07.84 0 1.32-.93 1.08-2.06s-1.12-2.05-1.96-2.05"/></g><g><path fill="#e1e8ed" d="M8.2 19c-1 0-1.58-1-1.3-2.25.3-1.24 1.33-2.25 2.33-2.25s1.56 1 1.28 2.25C10.23 18 9.2 19 8.2 19"/></g><g><path fill="#e1e8ed" d="M13.77 11.5c-1 0-1.57-1-1.28-2.25C12.77 8 13.8 7 14.8 7c1 0 1.58 1 1.3 2.25-.3 1.24-1.33 2.25-2.33 2.25"/></g><g><path fill="#ea596e" d="M19 1.25c-.55 0-1 .48-1 1.08v12.93c0 .6.45 1.07 1 1.07s1-.48 1-1.07V2.32c0-.6-.45-1.08-1-1.08"/></g></g></g></g></svg>