<svg xmlns="http://www.w3.org/2000/svg" viewBox="0 0 47.5 47.5" enable-background="new 0 0 47.5 47.5"><defs><clipPath id="a"><path d="M0 38h38V0H0v38z"/></clipPath></defs><g><g><g clip-path="url(#a)" transform="matrix(1.25 0 0 -1.25 0 47.5)"><g><path fill="#292f33" d="M37 10c0-2.2-1.8-4-4-4H5c-2.2 0-4 1.8-4 4v18c0 2.2 1.8 4 4 4h28c2.2 0 4-1.8 4-4V10z"/></g><g><path fill="#ccd6dd" d="M12 13c0-2.2-.8-3-3-3H5c-2.2 0-3 .8-3 3v12c0 2.2.8 3 3 3h4c2.2 0 3-.8 3-3V13z"/></g><g><path fill="#ccd6dd" d="M24 13c0-2.2-.8-3-3-3h-4c-2.2 0-3 .8-3 3v12c0 2.2.8 3 3 3h4c2.2 0 3-.8 3-3V13z"/></g><g><path fill="#ccd6dd" d="M36 13c0-2.2-.8-3-3-3h-4c-2.2 0-3 .8-3 3v12c0 2.2.8 3 3 3h4c2.2 0 3-.8 3-3V13z"/></g><path fill="#e1e8ed" d="M12 14H2v10h10V14z"/><path fill="#e1e8ed" d="M24 14H14v10h10V14z"/><path fill="#e1e8ed" d="M36 14H26v10h10V14z"/><g><path fill="#be1931" d="M31.8 21.3h-2.82c-.6 0-.82.4-.82.77 0 .4.2.76.82.76h3.98c.56 0 .8-.5.8-.8 0-.2-.13-.44-.26-.72l-2.73-5.53c-.3-.62-.43-.84-.92-.84-.6 0-.9.47-.9.78 0 .15.02.25.1.4l2.74 5.2z"/></g><g><path fill="#be1931" d="M19.8 21.3h-2.82c-.6 0-.8.4-.8.77 0 .4.2.76.8.76h3.98c.56 0 .8-.5.8-.8 0-.2-.13-.44-.26-.72l-2.73-5.53c-.3-.62-.43-.84-.92-.84-.6 0-.9.47-.9.78 0 .15.02.25.1.4l2.75 5.2z"/></g><g><path fill="#be1931" d="M7.8 21.3H4.98c-.6 0-.8.4-.8.77 0 .4.2.76.8.76h3.98c.56 0 .8-.5.8-.8 0-.2-.13-.44-.26-.72l-2.73-5.53c-.3-.62-.43-.84-.92-.84-.6 0-.9.47-.9.78 0 .15.02.25.1.4l2.75 5.2z"/></g><g><path fill="#9266cc" d="M4.06 28c-.04-.16-.06-.33-.06-.5C4 26.12 5.34 25 7 25s3 1.12 3 2.5c0 .17-.02.34-.06.5H4.06z"/></g><g><path fill="#9266cc" d="M16.06 28c-.04-.16-.06-.33-.06-.5 0-1.38 1.34-2.5 3-2.5s3 1.12 3 2.5c0 .17-.02.34-.06.5h-5.88z"/></g><g><path fill="#9266cc" d="M28.06 28c-.04-.16-.06-.33-.06-.5 0-1.38 1.34-2.5 3-2.5s3 1.12 3 2.5c0 .17-.02.34-.06.5h-5.88z"/></g><g><path fill="#f4900c" d="M9.82 10c.1.16.18.32.18.5 0 .83-1.34 1.5-3 1.5s-3-.67-3-1.5c0-.18.07-.34.18-.5h5.64z"/></g><g><path fill="#f4900c" d="M21.82 10c.1.16.18.32.18.5 0 .83-1.34 1.5-3 1.5s-3-.67-3-1.5c0-.18.07-.34.18-.5h5.64z"/></g><g><path fill="#f4900c" d="M33.82 10c.1.16.18.32.18.5 0 .83-1.34 1.5-3 1.5s-3-.67-3-1.5c0-.18.07-.34.18-.5h5.64z"/></g></g></g></g></svg>