<?xml version="1.0" encoding="UTF-8" standalone="no"?>
<!-- Created with Inkscape (http://www.inkscape.org/) -->

<svg
   xmlns:svg="http://www.w3.org/2000/svg"
   xmlns="http://www.w3.org/2000/svg"
   version="1.1"
   width="47.5"
   height="47.5"
   id="svg2"
   xml:space="preserve"><defs
     id="defs6"><clipPath
       id="clipPath18"><path
         d="M 0,38 38,38 38,0 0,0 0,38 z"
         id="path20" /></clipPath></defs><g
     transform="matrix(1.25,0,0,-1.25,0,47.5)"
     id="g12"><g
       id="g14"><g
         clip-path="url(#clipPath18)"
         id="g16"><g
           transform="translate(15,21)"
           id="g22"><path
             d="m 0,0 -5,-10 c 0,0 -1,-2 1,-2 1,0 2,2 2,2 L 12,9 c 0,0 2,4 8,1 L 20,8 C 17,9 16,7 16,7 L 1,-17 c 0,0 -2,-3 -7,-3 -6,0 -7,5 -7,8 0,2 1,4 2,6 1,2 -2,6 -2,6 L 0,0 z"
             id="path24"
             style="fill:#fcab40;fill-opacity:1;fill-rule:evenodd;stroke:none" /></g><g
           transform="translate(8.5,17)"
           id="g26"><path
             d="M 0,0 C -3.46,0 -7.5,1.048 -7.5,4 -7.5,6.953 -3.46,8 0,8 3.46,8 7.5,6.953 7.5,4 7.5,1.048 3.46,0 0,0"
             id="path28"
             style="fill:#fdcb58;fill-opacity:1;fill-rule:nonzero;stroke:none" /></g><g
           transform="translate(22,20)"
           id="g30"><path
             d="m 0,0 c 0,-1.104 -0.896,-2 -2,-2 -1.104,0 -2,0.896 -2,2 0,1.104 0.896,2 2,2 1.104,0 2,-0.896 2,-2"
             id="path32"
             style="fill:#ccd6dd;fill-opacity:1;fill-rule:nonzero;stroke:none" /></g><g
           transform="translate(25,24)"
           id="g34"><path
             d="m 0,0 c 0,-1.104 -0.896,-2 -2,-2 -1.104,0 -2,0.896 -2,2 0,1.104 0.896,2 2,2 1.104,0 2,-0.896 2,-2"
             id="path36"
             style="fill:#ccd6dd;fill-opacity:1;fill-rule:nonzero;stroke:none" /></g><g
           transform="translate(28,28)"
           id="g38"><path
             d="m 0,0 c 0,-1.104 -0.896,-2 -2,-2 -1.104,0 -2,0.896 -2,2 0,1.104 0.896,2 2,2 1.104,0 2,-0.896 2,-2"
             id="path40"
             style="fill:#ccd6dd;fill-opacity:1;fill-rule:nonzero;stroke:none" /></g><g
           transform="translate(34.998,26.9995)"
           id="g42"><path
             d="m 0,0 c -0.3,0 -0.605,0.068 -0.893,0.211 l -2,1 c -0.988,0.495 -1.388,1.696 -0.894,2.684 0.493,0.986 1.693,1.39 2.683,0.895 l 2,-1 C 1.885,3.295 2.285,2.094 1.791,1.106 1.44,0.405 0.734,0 0,0"
             id="path44"
             style="fill:#9aaab4;fill-opacity:1;fill-rule:nonzero;stroke:none" /></g><g
           transform="translate(17.2651,11.7754)"
           id="g46"><path
             d="M 0,0 -1.268,-1.548 -7.458,3.52 -6.192,5.067 0,0 z"
             id="path48"
             style="fill:#fcab40;fill-opacity:1;fill-rule:evenodd;stroke:none" /></g></g></g></g></svg>