<svg xmlns="http://www.w3.org/2000/svg" viewBox="0 0 47.5 47.5" enable-background="new 0 0 47.5 47.5"><defs><clipPath id="a"><path d="M0 38h38V0H0v38z"/></clipPath></defs><g><g><g clip-path="url(#a)" transform="matrix(1.25 0 0 -1.25 0 47.5)"><g><path fill="#fcab40" fill-rule="evenodd" d="M15 21l-5-10s-1-2 1-2c1 0 2 2 2 2l14 19s2 4 8 1v-2c-3 1-4-1-4-1L16 4s-2-3-7-3C3 1 2 6 2 9c0 2 1 4 2 6s-2 6-2 6h13z"/></g><g><path fill="#fdcb58" d="M8.5 17C5.04 17 1 18.05 1 21s4.04 4 7.5 4 7.5-1.05 7.5-4-4.04-4-7.5-4"/></g><g><path fill="#ccd6dd" d="M22 20c0-1.1-.9-2-2-2s-2 .9-2 2 .9 2 2 2 2-.9 2-2"/></g><g><path fill="#ccd6dd" d="M25 24c0-1.1-.9-2-2-2s-2 .9-2 2 .9 2 2 2 2-.9 2-2"/></g><g><path fill="#ccd6dd" d="M28 28c0-1.1-.9-2-2-2s-2 .9-2 2 .9 2 2 2 2-.9 2-2"/></g><g><path fill="#9aaab4" d="M35 27c-.3 0-.6.07-.9.2l-2 1c-.98.5-1.38 1.7-.9 2.7.5.98 1.7 1.38 2.7.9l2-1c.98-.5 1.38-1.7.9-2.7-.36-.7-1.07-1.1-1.8-1.1"/></g><g><path fill="#fcab40" fill-rule="evenodd" d="M17.27 11.78L16 10.23 9.8 15.3l1.27 1.54 6.2-5.06z"/></g></g></g></g></svg>