<svg xmlns="http://www.w3.org/2000/svg" viewBox="0 0 47.5 47.5" enable-background="new 0 0 47.5 47.5"><defs><clipPath id="a"><path d="M0 38h38V0H0v38z"/></clipPath><clipPath id="b"><path d="M24 10.1C24 7.68 21.43 5 19 5h-.7l4.95-2.13c2-.9 4.34.04 5.23 2.04l8.06 18.12c.9 2 0 4.36-2 5.25L24 32.97V10.1z"/></clipPath><clipPath id="c"><path d="M0 38h38V0H0v38z"/></clipPath><clipPath id="d"><path d="M5.23 37C2.9 37 1 35.1 1 32.77V11.23C1 8.9 2.9 7 5.23 7h12.54C20.1 7 22 8.9 22 11.23v21.54C22 35.1 20.1 37 17.77 37H5.23z"/></clipPath><clipPath id="e"><path d="M0 38h38V0H0v38z"/></clipPath></defs><g><g><g clip-path="url(#a)" transform="matrix(1.25 0 0 -1.25 0 47.5)"><g><path fill="#dd2e44" d="M34.55 28.27L24 32.97V10.1C24 7.68 21.43 5 19 5h-.7l4.95-2.13c2-.9 4.34.05 5.23 2.04l8.06 18.12c.9 2 0 4.36-2 5.25"/></g></g></g><g><g clip-path="url(#b)" transform="matrix(1.25 0 0 -1.25 0 47.5)"><g><path d="M30.88 10.1c-1 1.98-3.95 4.95-12.87 4.95-8.9 0-2.96-5.94-1.97-8.9 1-2.98 4.25-5.95 7.64-5.95 3.38 0 6.22 0 7.2 2.97 1 2.97 0 6.93 0 6.93"/></g></g></g><g><g clip-path="url(#c)" transform="matrix(1.25 0 0 -1.25 0 47.5)"><g><path fill="#dd2e44" d="M22 11.23C22 8.9 20.1 7 17.77 7H5.23C2.9 7 1 8.9 1 11.23v21.54C1 35.1 2.9 37 5.23 37h12.54C20.1 37 22 35.1 22 32.77V11.23z"/></g></g></g><g><g clip-path="url(#d)" transform="matrix(1.25 0 0 -1.25 0 47.5)"><g><path d="M1 14c3 2 16 7 21 1 6.92-8.3 5-3 2-6S12 4 8 5s-8-.7-8 1.92S1 14 1 14"/></g></g></g><g><g clip-path="url(#e)" transform="matrix(1.25 0 0 -1.25 0 47.5)"><g><path fill="#fff" d="M16.8 26.6c0 3.48-2.83 6.3-6.32 6.3-3.5 0-6.3-2.82-6.3-6.3 0-3.5 2.8-6.33 6.3-6.33s6.32 2.83 6.32 6.32"/></g><g><path fill="#fff" d="M24 28.85V18.33c2.7.26 4.8 2.5 4.8 5.26 0 2.75-2.1 5-4.8 5.25"/></g></g></g></g></svg>