<svg xmlns="http://www.w3.org/2000/svg" viewBox="0 0 47.5 47.5" enable-background="new 0 0 47.5 47.5"><defs><clipPath id="a"><path d="M0 38h38V0H0v38z"/></clipPath><clipPath id="b"><path d="M19 36c-1-1-1-2-1-4s1-4 1-5c0-3-4-5-4-9.08C15 14.58 17 8 18 6h6c1 2 3 8.58 3 11.92C27 22 23 24 23 27c0 1 1 3 1 5s0 3-1 4-2 1-2 1-1 0-2-1"/></clipPath><clipPath id="c"><path d="M0 38h38V0H0v38z"/></clipPath><clipPath id="d"><path d="M29 33c-1-1-1-2-1-4s1-4 1-5c0-3-4-5-4-9.08C25 11.58 27 5 28 3h6c1 2 3 8.58 3 11.92C37 19 33 21 33 24c0 1 1 3 1 5s0 3-1 4-2 1-2 1-1 0-2-1"/></clipPath><clipPath id="e"><path d="M0 38h38V0H0v38z"/></clipPath></defs><g><g><g clip-path="url(#a)" transform="matrix(1.25 0 0 -1.25 0 47.5)"><g><path fill="#ccd6dd" d="M23 27c0 1 1 3 1 5s0 3-1 4-2 1-2 1-1 0-2-1-1-2-1-4 1-4 1-5c0-3-4-5-4-9.08C15 14.58 17 8 18 6h6c1 2 3 8.58 3 11.92C27 22 23 24 23 27"/></g></g></g><g><g fill="#be1931" clip-path="url(#b)" transform="matrix(1.25 0 0 -1.25 0 47.5)"><path d="M24 27h-6v2h6v-2z"/><path d="M25 23h-8v2h8v-2z"/></g></g><g><g clip-path="url(#c)" transform="matrix(1.25 0 0 -1.25 0 47.5)"><g><path fill="#ccd6dd" d="M33 24c0 1 1 3 1 5s0 3-1 4-2 1-2 1-1 0-2-1-1-2-1-4 1-4 1-5c0-3-4-5-4-9.08C25 11.58 27 5 28 3h6c1 2 3 8.58 3 11.92C37 19 33 21 33 24"/></g></g></g><g><g fill="#be1931" clip-path="url(#d)" transform="matrix(1.25 0 0 -1.25 0 47.5)"><path d="M34 24h-6v2h6v-2z"/><path d="M35 20h-8v2h8v-2z"/></g></g><g><g clip-path="url(#e)" transform="matrix(1.25 0 0 -1.25 0 47.5)"><g><path fill="#3a4449" d="M13.56 1C6.62 1 1 6.62 1 13.56s5.62 12.56 12.56 12.56 12.56-5.62 12.56-12.56S20.5 1 13.56 1"/></g><g><path d="M16.23 18.2c0-1.27-1.04-2.3-2.3-2.3-1.3 0-2.33 1.03-2.33 2.3 0 1.3 1.04 2.33 2.32 2.33 1.27 0 2.3-1.04 2.3-2.32"/></g><g><path d="M9.82 16.06c0-1.28-1.04-2.3-2.32-2.3-1.27 0-2.3 1.02-2.3 2.3 0 1.28 1.03 2.32 2.3 2.32 1.28 0 2.32-1.04 2.32-2.32"/></g><g><path d="M14.75 8.95c0-1.28-1.04-2.32-2.32-2.32-1.28 0-2.3 1.04-2.3 2.32 0 1.28 1.02 2.3 2.3 2.3 1.28 0 2.32-1.02 2.32-2.3"/></g></g></g></g></svg>