<?xml version="1.0" encoding="UTF-8" standalone="no"?>
<!-- Created with Inkscape (http://www.inkscape.org/) -->

<svg
   xmlns:svg="http://www.w3.org/2000/svg"
   xmlns="http://www.w3.org/2000/svg"
   version="1.1"
   width="47.5"
   height="47.5"
   id="svg2"
   xml:space="preserve"><defs
     id="defs6"><clipPath
       id="clipPath18"><path
         d="M 0,38 38,38 38,0 0,0 0,38 z"
         id="path20" /></clipPath><clipPath
       id="clipPath30"><path
         d="M 8.754,29.246 C 1.923,22.415 -0.639,11.316 3.631,3.631 l 0,0 c 7.685,-4.27 18.784,-1.708 25.615,5.123 l 0,0 c 6.831,6.831 9.393,17.931 5.123,25.615 l 0,0 c -2.562,1.424 -5.502,2.088 -8.538,2.087 l 0,0 c -6.071,0 -12.524,-2.656 -17.077,-7.21"
         id="path32" /></clipPath></defs><g
     transform="matrix(1.25,0,0,-1.25,0,47.5)"
     id="g12"><g
       id="g14"><g
         clip-path="url(#clipPath18)"
         id="g16"><g
           transform="translate(29.2461,8.7539)"
           id="g22"><path
             d="m 0,0 c -6.831,-6.831 -17.931,-9.393 -25.615,-5.123 -4.27,7.685 -1.708,18.785 5.123,25.615 6.83,6.831 17.93,9.393 25.615,5.123 C 9.393,17.931 6.831,6.831 0,0"
             id="path24"
             style="fill:#662113;fill-opacity:1;fill-rule:nonzero;stroke:none" /></g></g></g><g
       id="g26"><g
         clip-path="url(#clipPath30)"
         id="g28"><g
           transform="translate(27.6572,27.6567)"
           id="g34"><path
             d="m 0,0 c -0.391,0.391 -1.024,0.391 -1.415,0 l -15.899,-15.899 c -0.391,-0.392 -0.391,-1.024 0,-1.415 0.391,-0.391 1.023,-0.391 1.414,0 L 0,-1.414 C 0.39,-1.023 0.39,-0.391 0,0"
             id="path36"
             style="fill:#e1e8ed;fill-opacity:1;fill-rule:nonzero;stroke:none" /></g><g
           transform="translate(14.8789,10.6357)"
           id="g38"><path
             d="m 0,0 c -0.391,-0.391 -1.023,-0.391 -1.415,0 l -2.828,2.829 c -0.39,0.39 -0.391,1.024 0,1.414 0.391,0.391 1.024,0.391 1.414,0 L 0,1.414 C 0.391,1.023 0.391,0.392 0,0"
             id="path40"
             style="fill:#e1e8ed;fill-opacity:1;fill-rule:nonzero;stroke:none" /></g><g
           transform="translate(18.707,14.4648)"
           id="g42"><path
             d="m 0,0 c -0.391,-0.392 -1.023,-0.392 -1.414,0 l -2.829,2.828 c -0.39,0.391 -0.39,1.024 0,1.414 0.391,0.391 1.024,0.391 1.415,0 L 0,1.414 C 0.391,1.023 0.391,0.391 0,0"
             id="path44"
             style="fill:#e1e8ed;fill-opacity:1;fill-rule:nonzero;stroke:none" /></g><g
           transform="translate(23.5352,19.293)"
           id="g46"><path
             d="m 0,0 c -0.39,-0.391 -1.023,-0.391 -1.414,0 l -2.828,2.828 c -0.391,0.391 -0.391,1.024 0,1.415 0.39,0.39 1.023,0.39 1.414,0 L 0,1.414 C 0.392,1.023 0.391,0.391 0,0"
             id="path48"
             style="fill:#e1e8ed;fill-opacity:1;fill-rule:nonzero;stroke:none" /></g><g
           transform="translate(27.3643,23.1211)"
           id="g50"><path
             d="m 0,0 c -0.391,-0.39 -1.023,-0.391 -1.414,0 l -2.829,2.829 c -0.391,0.39 -0.391,1.024 0,1.414 0.39,0.39 1.024,0.39 1.414,0 L 0,1.415 C 0.391,1.023 0.391,0.391 0,0"
             id="path52"
             style="fill:#e1e8ed;fill-opacity:1;fill-rule:nonzero;stroke:none" /></g><g
           transform="translate(16.439,-2.3467)"
           id="g54"><path
             d="m 0,0 -18.785,18.785 1.707,1.708 L 1.708,1.708 0,0 z"
             id="path56"
             style="fill:#e1e8ed;fill-opacity:1;fill-rule:nonzero;stroke:none" /></g><g
           transform="translate(38.6387,19.8535)"
           id="g58"><path
             d="m 0,0 -18.785,18.785 1.708,1.708 L 1.708,1.708 0,0 z"
             id="path60"
             style="fill:#e1e8ed;fill-opacity:1;fill-rule:nonzero;stroke:none" /></g></g></g></g></svg>