<?xml version="1.0" encoding="UTF-8" standalone="no"?>
<!-- Created with Inkscape (http://www.inkscape.org/) -->

<svg
   xmlns:svg="http://www.w3.org/2000/svg"
   xmlns="http://www.w3.org/2000/svg"
   version="1.1"
   width="47.5"
   height="47.5"
   id="svg2"
   xml:space="preserve"><defs
     id="defs6"><clipPath
       id="clipPath18"><path
         d="M 0,38 38,38 38,0 0,0 0,38 z"
         id="path20" /></clipPath></defs><g
     transform="matrix(1.25,0,0,-1.25,0,47.5)"
     id="g12"><g
       id="g14"><g
         clip-path="url(#clipPath18)"
         id="g16"><g
           transform="translate(37,14)"
           id="g22"><path
             d="m 0,0 c 0,-1.104 -0.896,-2 -2,-2 l -30,0 c -1.104,0 -2,0.896 -2,2 l 0,20 c 0,1.104 0.896,2 2,2 l 30,0 c 1.104,0 2,-0.896 2,-2 L 0,0 z"
             id="path24"
             style="fill:#292f33;fill-opacity:1;fill-rule:nonzero;stroke:none" /></g><path
           d="m 13,28 -9,0 0,8 9,0 0,-8 z"
           id="path26"
           style="fill:#e1e8ed;fill-opacity:1;fill-rule:nonzero;stroke:none" /><path
           d="m 21,20 -8,0 0,8 8,0 0,-8 z"
           id="path28"
           style="fill:#e1e8ed;fill-opacity:1;fill-rule:nonzero;stroke:none" /><path
           d="m 29,28 -8,0 0,8 8,0 0,-8 z"
           id="path30"
           style="fill:#e1e8ed;fill-opacity:1;fill-rule:nonzero;stroke:none" /><path
           d="m 13,12 -8,0 0,8 8,0 0,-8 z"
           id="path32"
           style="fill:#e1e8ed;fill-opacity:1;fill-rule:nonzero;stroke:none" /><path
           d="m 29,12 -8,0 0,8 8,0 0,-8 z"
           id="path34"
           style="fill:#e1e8ed;fill-opacity:1;fill-rule:nonzero;stroke:none" /><path
           d="m 37,20 -8,0 0,8 8,0 0,-8 z"
           id="path36"
           style="fill:#e1e8ed;fill-opacity:1;fill-rule:nonzero;stroke:none" /><g
           transform="translate(5,3)"
           id="g38"><path
             d="m 0,0 c 0,-1.104 -0.896,-2 -2,-2 -1.104,0 -2,0.896 -2,2 l 0,32 c 0,1.104 0.896,2 2,2 1.104,0 2,-0.896 2,-2 L 0,0 z"
             id="path40"
             style="fill:#553788;fill-opacity:1;fill-rule:nonzero;stroke:none" /></g></g></g></g></svg>