<svg xmlns="http://www.w3.org/2000/svg" viewBox="0 0 47.5 47.5" enable-background="new 0 0 47.5 47.5"><defs><clipPath id="a"><path d="M0 38h38V0H0v38z"/></clipPath></defs><g><g><g clip-path="url(#a)" transform="matrix(1.25 0 0 -1.25 0 47.5)"><g><path fill="#d99e82" d="M15.32 32.74c-1.2-.27 0-2.14-.37-3.35-.26-.85 1.47-.95 1.47-.95s1.2.27 1-1.68c-.2-1.94 2.47-2.6 2.68-.67.2 1.94-1.4 3-.5 4.5 2.08 3.62-4.28 2.14-4.28 2.14"/></g><g><path fill="#d99e82" d="M28 19c-.37 0-.72.2-.9.55-1.78 3.58-7.36 5.48-7.42 5.5-.52.18-.8.74-.63 1.27.18.52.74.8 1.27.63.26-.1 6.4-2.18 8.57-6.5.24-.5.04-1.1-.45-1.34-.15-.07-.3-.1-.45-.1"/></g><g><path fill="#2a6797" d="M13 3c-.18 0-.37.02-.55.08-1.06.3-1.68 1.4-1.37 2.47l2 7c.12.43.4.8.76 1.08l7 5c.9.64 2.15.43 2.8-.47.63-.9.42-2.14-.48-2.8l-6.43-4.58-1.8-6.33C14.66 3.57 13.86 3 13 3"/></g><g><path fill="#4289c1" d="M28 6c-.3 0-.6.07-.9.2l-6 3c-.67.35-1.1 1.04-1.1 1.8v5c0 1.1.9 2 2 2s2-.9 2-2v-3.76l4.9-2.45c.98-.5 1.38-1.7.9-2.7C29.43 6.4 28.72 6 28 6"/></g><g><path fill="#292f33" d="M10.64 3l3.4-1.15c.56 2.98-.97 2.44-2.96 3.1-1.98.67-3.9.26-4.23-.7.78-.25 1.5-.5 2.85-.94.3-.1.6-.2.94-.3"/></g><g><path fill="#292f33" d="M29.9 6.08l.67 3.52c-3.02.16-2.3-1.3-2.68-3.34-.4-2.06.25-3.92 1.23-4.1.16.8.3 1.56.57 2.94.06.3.12.62.2.98"/></g><g><path fill="#a0041e" d="M25 18s0-2-2-2-4 1-4 1c-2 6-4 9-.15 10.9C21.83 29.4 24 23 25 18"/></g><g><path fill="#b39155" d="M15.32 32.18C14 32 14.24 33.38 15 34c1.07.88 3.52.83 4.6-.05 1.06-.9 1.06-2.66 0-3.54-.77-.62-1.08-1.76-1.08 0 0 1.78-1.07 0-1.07.9 0 .88-2.13.88-2.13.88"/></g><g><path fill="#d99e82" d="M21 32c0-2.2-1.8-4-4-4s-4 1.8-4 4 1.8 4 4 4 4-1.8 4-4"/></g><g><path fill="#fdcb58" d="M12 32s0 4 5 4c4 0 4-4 4-4s0 2-3 2c-2 0-2-3-6-2"/></g><g><path fill="#d99e82" d="M17.14 24.5c-.02-.03-2.82-4.62-7.34-5.52v-.02c-.45-.1-.8-.48-.8-.96 0-.55.45-1 1-1 .07 0 .13.03.2.04v-.02c5.37 1.07 8.53 6.25 8.66 6.47l-1.72 1z"/></g></g></g></g></svg>