<svg xmlns="http://www.w3.org/2000/svg" viewBox="0 0 47.5 47.5" enable-background="new 0 0 47.5 47.5"><defs><clipPath id="a"><path d="M0 38h38V0H0v38z"/></clipPath></defs><g><g><g clip-path="url(#a)" transform="matrix(1.25 0 0 -1.25 0 47.5)"><g><path fill="#ffac33" d="M6 32h6c1.1 0 2 .1 2-1v2c0 1.1-.9 2-2 2H4c-2 0-3.58-2.13-3-5 0 0 1.8-9.38 1.92-9.96C3.25 18.5 5.04 17 6.96 17h6.96c1.1 0 .08 1.9.08 3v2c0-1.1-.9-2-2-2H8c-1.1 0-1.83 1.04-2 2-.17.96-1.58 7.33-1.58 7.33C4.08 31.25 4.9 32 6 32"/></g><g><path fill="#ffac33" d="M31.8 32h-6c-1.1 0-2.8.1-2.8-1v2c0 1.1 1.7 2 2.8 2h8c2 0 3.6-2.13 3-5 0 0-1.62-9.42-1.76-10-.35-1.5-2.04-3-4-3H23.9c-1.1 0-.9 1.9-.9 3v2c0-1.1 1.7-2 2.8-2h4c1.12 0 1.85 1.04 2 2 .18.96 1.6 7.33 1.6 7.33.33 1.92-.48 2.67-1.6 2.67"/></g><g><path fill="#ffac33" d="M21.7 15c0 6.96-2.7 0-2.7 0s-3 6.96-3 0-3.3-10-3.3-10H25s-3.3 3.04-3.3 10"/></g><g><path fill="#ffcc4d" d="M30 30.42c0-6.77-6.77-18.2-11-18.2S8 23.66 8 30.43c0 5.2 1 6.32 3 6.32 1.37 0 6.03.03 8 .03 1.4 0 5.9 0 7 0 2.92 0 4-.68 4-6.35"/></g><g><path fill="#c1694f" d="M28 4c0-1.1.1-2-1-2H11c-1.1 0-1 .9-1 2v1c0 1.1 1.04 2 2.08 2H26c1.04 0 2-.9 2-2V4z"/></g><g><path fill="#c1694f" d="M30 2.38C30 1.6 30.04 1 28.62 1H9.38C8.07 1 8 1.6 8 2.38v.25C8 3.38 8.62 4 9.38 4H28.6C29.4 4 30 3.4 30 2.62v-.25z"/></g></g></g></g></svg>