<?xml version="1.0" encoding="UTF-8" standalone="no"?>
<!-- Created with Inkscape (http://www.inkscape.org/) -->

<svg
   xmlns:svg="http://www.w3.org/2000/svg"
   xmlns="http://www.w3.org/2000/svg"
   version="1.1"
   width="47.5"
   height="47.5"
   id="svg2"
   xml:space="preserve"><defs
     id="defs6"><clipPath
       id="clipPath18"><path
         d="M 0,38 38,38 38,0 0,0 0,38 z"
         id="path20" /></clipPath><clipPath
       id="clipPath34"><path
         d="M 1,19 C 1,9.059 9.059,1 19,1 l 0,0 c 9.941,0 18,8.059 18,18 l 0,0 c 0,9.941 -8.059,18 -18,18 l 0,0 C 9.059,37 1,28.941 1,19"
         id="path36" /></clipPath></defs><g
     transform="matrix(1.25,0,0,-1.25,0,47.5)"
     id="g12"><g
       id="g14"><g
         clip-path="url(#clipPath18)"
         id="g16"><g
           transform="translate(37,19)"
           id="g22"><path
             d="m 0,0 c 0,-9.941 -8.059,-18 -18,-18 -9.941,0 -18,8.059 -18,18 0,9.941 8.059,18 18,18 C -8.059,18 0,9.941 0,0"
             id="path24"
             style="fill:#f4900c;fill-opacity:1;fill-rule:nonzero;stroke:none" /></g><path
           d="m 20,1 -2,0 0,36 2,0 0,-36 z"
           id="path26"
           style="fill:#231f20;fill-opacity:1;fill-rule:nonzero;stroke:none" /><path
           d="m 1,20 36,0 0,-2 -36,0 0,2 z"
           id="path28"
           style="fill:#231f20;fill-opacity:1;fill-rule:nonzero;stroke:none" /></g></g><g
       id="g30"><g
         clip-path="url(#clipPath34)"
         id="g32"><g
           transform="translate(3,31)"
           id="g38"><path
             d="m 0,0 c -4.318,0 -7,-4.598 -7,-12 0,-7.402 2.682,-12 7,-12 4.318,0 7,4.598 7,12 C 7,-4.598 4.318,0 0,0 m 0,-26 c -4.351,0 -9,3.678 -9,14 0,10.322 4.649,14 9,14 4.351,0 9,-3.678 9,-14 0,-10.322 -4.649,-14 -9,-14"
             id="path40"
             style="fill:#231f20;fill-opacity:1;fill-rule:nonzero;stroke:none" /></g><g
           transform="translate(35,31)"
           id="g42"><path
             d="m 0,0 c -4.317,0 -7,-4.598 -7,-12 0,-7.402 2.683,-12 7,-12 4.317,0 7,4.598 7,12 C 7,-4.598 4.317,0 0,0 m 0,-26 c -4.351,0 -9,3.678 -9,14 0,10.322 4.649,14 9,14 4.351,0 9,-3.678 9,-14 0,-10.322 -4.649,-14 -9,-14"
             id="path44"
             style="fill:#231f20;fill-opacity:1;fill-rule:nonzero;stroke:none" /></g></g></g></g></svg>