<?xml version="1.0" encoding="UTF-8" standalone="no"?><svg xmlns:dc="http://purl.org/dc/elements/1.1/" xmlns:cc="http://creativecommons.org/ns#" xmlns:rdf="http://www.w3.org/1999/02/22-rdf-syntax-ns#" xmlns:svg="http://www.w3.org/2000/svg" xmlns="http://www.w3.org/2000/svg" viewBox="0 0 47.5 47.5" style="enable-background:new 0 0 47.5 47.5;" xml:space="preserve" version="1.1" id="svg2"><metadata id="metadata8"><rdf:RDF><cc:Work rdf:about=""><dc:format>image/svg+xml</dc:format><dc:type rdf:resource="http://purl.org/dc/dcmitype/StillImage"/></cc:Work></rdf:RDF></metadata><defs id="defs6"><clipPath id="clipPath16" clipPathUnits="userSpaceOnUse"><path id="path18" d="M 0,38 38,38 38,0 0,0 0,38 Z"/></clipPath></defs><g transform="matrix(1.25,0,0,-1.25,0,47.5)" id="g10"><g id="g12"><g clip-path="url(#clipPath16)" id="g14"><g transform="translate(37,14)" id="g20"><path id="path22" style="fill:#292f33;fill-opacity:1;fill-rule:nonzero;stroke:none" d="m 0,0 c 0,-1.104 -0.896,-2 -2,-2 l -30,0 c -1.104,0 -2,0.896 -2,2 l 0,20 c 0,1.104 0.896,2 2,2 l 30,0 c 1.104,0 2,-0.896 2,-2 L 0,0 Z"/></g><path id="path24" style="fill:#e1e8ed;fill-opacity:1;fill-rule:nonzero;stroke:none" d="m 13,28 -9,0 0,8 9,0 0,-8 z"/><path id="path26" style="fill:#e1e8ed;fill-opacity:1;fill-rule:nonzero;stroke:none" d="m 21,20 -8,0 0,8 8,0 0,-8 z"/><path id="path28" style="fill:#e1e8ed;fill-opacity:1;fill-rule:nonzero;stroke:none" d="m 29,28 -8,0 0,8 8,0 0,-8 z"/><path id="path30" style="fill:#e1e8ed;fill-opacity:1;fill-rule:nonzero;stroke:none" d="m 13,12 -8,0 0,8 8,0 0,-8 z"/><path id="path32" style="fill:#e1e8ed;fill-opacity:1;fill-rule:nonzero;stroke:none" d="m 29,12 -8,0 0,8 8,0 0,-8 z"/><path id="path34" style="fill:#e1e8ed;fill-opacity:1;fill-rule:nonzero;stroke:none" d="m 37,20 -8,0 0,8 8,0 0,-8 z"/><g transform="translate(5,3)" id="g36"><path id="path38" style="fill:#553788;fill-opacity:1;fill-rule:nonzero;stroke:none" d="m 0,0 c 0,-1.104 -0.896,-2 -2,-2 -1.104,0 -2,0.896 -2,2 l 0,32 c 0,1.104 0.896,2 2,2 1.104,0 2,-0.896 2,-2 L 0,0 Z"/></g></g></g></g></svg>
