<svg xmlns="http://www.w3.org/2000/svg" viewBox="0 0 47.5 47.5" enable-background="new 0 0 47.5 47.5"><defs><clipPath id="a"><path d="M0 38h38V0H0v38z"/></clipPath><clipPath id="b"><path d="M9.25 28.75C2.1 21.58-.93 9.55 3.93 3.93 9.56-.93 21.58 2.1 28.75 9.25c7.16 7.17 11.23 17.1 5.32 24.82-1.9 1.63-4.5 2.37-7.4 2.37-5.74 0-12.65-2.93-17.42-7.7"/></clipPath></defs><g><g><g clip-path="url(#a)" transform="matrix(1.25 0 0 -1.25 0 47.5)"><g><path fill="#3b88c3" d="M28.75 9.25C21.58 2.1 9.55-.93 3.93 3.93-.93 9.56 2.1 21.58 9.25 28.75c7.17 7.16 19.2 10.18 24.82 5.32 5.9-7.73 1.84-17.65-5.32-24.82"/></g></g></g><g><g clip-path="url(#b)" transform="matrix(1.25 0 0 -1.25 0 47.5)"><g><path fill="#ccd6dd" d="M36.83 29.67c-.33-4.42-9.33-19.17-24.4-24.75-1.18-.5-1.1-2 .82-2.17 1.92-.17 13.5.17 17.5 2.42s10.75 18.9 9 20.25c-1.75 1.33 4.42 7.75 3 6.4-1.42-1.32-5.92-2.15-5.92-2.15"/></g><g><path fill="#e1e8ed" d="M9.08 9.17c7.84 1.9 26.67 10.4 25.25 24.58-.4 1.17-8.15 6.12-21.33-4.75-7.58-6.25-8.78-14.2-8.25-18.92.2-1.8 2.42-1.38 4.33-.9"/></g></g></g></g></svg>