<?xml version="1.0" encoding="UTF-8" standalone="no"?><svg xmlns:dc="http://purl.org/dc/elements/1.1/" xmlns:cc="http://creativecommons.org/ns#" xmlns:rdf="http://www.w3.org/1999/02/22-rdf-syntax-ns#" xmlns:svg="http://www.w3.org/2000/svg" xmlns="http://www.w3.org/2000/svg" viewBox="0 0 47.5 47.5" style="enable-background:new 0 0 47.5 47.5;" xml:space="preserve" version="1.1" id="svg2"><metadata id="metadata8"><rdf:RDF><cc:Work rdf:about=""><dc:format>image/svg+xml</dc:format><dc:type rdf:resource="http://purl.org/dc/dcmitype/StillImage"/></cc:Work></rdf:RDF></metadata><defs id="defs6"><clipPath id="clipPath16" clipPathUnits="userSpaceOnUse"><path id="path18" d="M 0,38 38,38 38,0 0,0 0,38 Z"/></clipPath><clipPath id="clipPath28" clipPathUnits="userSpaceOnUse"><path id="path30" d="M 8.754,29.246 C 1.923,22.415 -0.639,11.316 3.631,3.631 l 0,0 c 7.685,-4.27 18.784,-1.708 25.615,5.123 l 0,0 c 6.831,6.831 9.393,17.931 5.123,25.615 l 0,0 c -2.562,1.424 -5.502,2.088 -8.538,2.087 l 0,0 c -6.071,0 -12.524,-2.656 -17.077,-7.21"/></clipPath></defs><g transform="matrix(1.25,0,0,-1.25,0,47.5)" id="g10"><g id="g12"><g clip-path="url(#clipPath16)" id="g14"><g transform="translate(29.2461,8.7539)" id="g20"><path id="path22" style="fill:#662113;fill-opacity:1;fill-rule:nonzero;stroke:none" d="m 0,0 c -6.831,-6.831 -17.931,-9.393 -25.615,-5.123 -4.27,7.685 -1.708,18.785 5.123,25.615 6.83,6.831 17.93,9.393 25.615,5.123 C 9.393,17.931 6.831,6.831 0,0"/></g></g></g><g id="g24"><g clip-path="url(#clipPath28)" id="g26"><g transform="translate(27.6572,27.6567)" id="g32"><path id="path34" style="fill:#e1e8ed;fill-opacity:1;fill-rule:nonzero;stroke:none" d="m 0,0 c -0.391,0.391 -1.024,0.391 -1.415,0 l -15.899,-15.899 c -0.391,-0.392 -0.391,-1.024 0,-1.415 0.391,-0.391 1.023,-0.391 1.414,0 L 0,-1.414 C 0.39,-1.023 0.39,-0.391 0,0"/></g><g transform="translate(14.8789,10.6357)" id="g36"><path id="path38" style="fill:#e1e8ed;fill-opacity:1;fill-rule:nonzero;stroke:none" d="m 0,0 c -0.391,-0.391 -1.023,-0.391 -1.415,0 l -2.828,2.829 c -0.39,0.39 -0.391,1.024 0,1.414 0.391,0.391 1.024,0.391 1.414,0 L 0,1.414 C 0.391,1.023 0.391,0.392 0,0"/></g><g transform="translate(18.707,14.4648)" id="g40"><path id="path42" style="fill:#e1e8ed;fill-opacity:1;fill-rule:nonzero;stroke:none" d="m 0,0 c -0.391,-0.392 -1.023,-0.392 -1.414,0 l -2.829,2.828 c -0.39,0.391 -0.39,1.024 0,1.414 0.391,0.391 1.024,0.391 1.415,0 L 0,1.414 C 0.391,1.023 0.391,0.391 0,0"/></g><g transform="translate(23.5352,19.293)" id="g44"><path id="path46" style="fill:#e1e8ed;fill-opacity:1;fill-rule:nonzero;stroke:none" d="m 0,0 c -0.39,-0.391 -1.023,-0.391 -1.414,0 l -2.828,2.828 c -0.391,0.391 -0.391,1.024 0,1.415 0.39,0.39 1.023,0.39 1.414,0 L 0,1.414 C 0.392,1.023 0.391,0.391 0,0"/></g><g transform="translate(27.3643,23.1211)" id="g48"><path id="path50" style="fill:#e1e8ed;fill-opacity:1;fill-rule:nonzero;stroke:none" d="m 0,0 c -0.391,-0.39 -1.023,-0.391 -1.414,0 l -2.829,2.829 c -0.391,0.39 -0.391,1.024 0,1.414 0.39,0.39 1.024,0.39 1.414,0 L 0,1.415 C 0.391,1.023 0.391,0.391 0,0"/></g><g transform="translate(16.439,-2.3467)" id="g52"><path id="path54" style="fill:#e1e8ed;fill-opacity:1;fill-rule:nonzero;stroke:none" d="m 0,0 -18.785,18.785 1.707,1.708 L 1.708,1.708 0,0 Z"/></g><g transform="translate(38.6387,19.8535)" id="g56"><path id="path58" style="fill:#e1e8ed;fill-opacity:1;fill-rule:nonzero;stroke:none" d="m 0,0 -18.785,18.785 1.708,1.708 L 1.708,1.708 0,0 Z"/></g></g></g></g></svg>
