<?xml version="1.0" encoding="UTF-8" standalone="no"?><svg xmlns:dc="http://purl.org/dc/elements/1.1/" xmlns:cc="http://creativecommons.org/ns#" xmlns:rdf="http://www.w3.org/1999/02/22-rdf-syntax-ns#" xmlns:svg="http://www.w3.org/2000/svg" xmlns="http://www.w3.org/2000/svg" viewBox="0 0 47.5 47.5" style="enable-background:new 0 0 47.5 47.5;" xml:space="preserve" version="1.1" id="svg2"><metadata id="metadata8"><rdf:RDF><cc:Work rdf:about=""><dc:format>image/svg+xml</dc:format><dc:type rdf:resource="http://purl.org/dc/dcmitype/StillImage"/></cc:Work></rdf:RDF></metadata><defs id="defs6"><clipPath id="clipPath16" clipPathUnits="userSpaceOnUse"><path id="path18" d="M 0,38 38,38 38,0 0,0 0,38 Z"/></clipPath></defs><g transform="matrix(1.25,0,0,-1.25,0,47.5)" id="g10"><g id="g12"><g clip-path="url(#clipPath16)" id="g14"><g transform="translate(37,21)" id="g20"><path id="path22" style="fill:#e1e8ed;fill-opacity:1;fill-rule:nonzero;stroke:none" d="m 0,0 0,-16 c 0,0 0,-4 -4,-4 l -28,0 c -4,0 -4,4 -4,4 l 0,2 c 0,0 17,10 36,14"/></g><g transform="translate(33.8164,16.0195)" id="g24"><path id="path26" style="fill:#aa8ed6;fill-opacity:1;fill-rule:nonzero;stroke:none" d="M 0,0 C 0.462,-1.003 0.023,-2.19 -0.98,-2.653 L -24.596,-13.53 c -1.003,-0.462 -2.19,-0.024 -2.652,0.979 l -0.837,1.818 c -0.462,1.003 -0.023,2.191 0.98,2.653 L -3.49,2.797 c 1.004,0.462 2.191,0.022 2.654,-0.98 L 0,0 Z"/></g><g transform="translate(26.4063,11)" id="g28"><path id="path30" style="fill:#67757f;fill-opacity:1;fill-rule:nonzero;stroke:none" d="m 0,0 c -0.3,0 -0.605,0.067 -0.893,0.211 l -2,1 c -0.438,0.22 -0.78,0.592 -0.962,1.046 l -1.682,4.204 -4.204,1.682 c -1.026,0.41 -1.525,1.574 -1.114,2.6 0.409,1.026 1.575,1.525 2.599,1.114 l 5.001,-2 c 0.508,-0.203 0.91,-0.606 1.114,-1.114 l 1.717,-4.294 1.32,-0.66 C 1.885,3.295 2.285,2.094 1.791,1.105 1.44,0.404 0.734,0 0,0"/></g><g transform="translate(17.4092,7)" id="g32"><path id="path34" style="fill:#67757f;fill-opacity:1;fill-rule:nonzero;stroke:none" d="m 0,0 c -0.733,-0.001 -1.44,0.404 -1.791,1.105 l -1,2 C -2.989,3.503 -3.05,3.956 -2.962,4.393 l 0.848,4.241 -2.602,4.337 c -0.569,0.947 -0.262,2.175 0.686,2.744 0.946,0.569 2.175,0.261 2.743,-0.686 l 3,-5 C 1.97,9.603 2.057,9.096 1.959,8.607 L 1.094,4.28 1.788,2.895 C 2.281,1.906 1.881,0.705 0.893,0.211 0.606,0.067 0.301,0 0,0"/></g><g transform="translate(25.4082,21)" id="g36"><path id="path38" style="fill:#ccd6dd;fill-opacity:1;fill-rule:nonzero;stroke:none" d="m 0,0 c -3.888,0 -7.231,4.309 -7.6,4.8 -0.663,0.884 -0.483,2.137 0.4,2.8 0.883,0.662 2.135,0.484 2.798,-0.397 C -3.396,5.873 -1.365,4 0,4 1.104,4 2,3.104 2,2 2,0.896 1.104,0 0,0"/></g><g transform="translate(8.4077,16.999)" id="g40"><path id="path42" style="fill:#ccd6dd;fill-opacity:1;fill-rule:nonzero;stroke:none" d="m 0,0 c -0.837,0 -1.618,0.53 -1.897,1.368 -1.058,3.175 -0.442,6.121 1.733,8.297 1.539,1.54 3.332,2.167 3.532,2.233 1.046,0.349 2.181,-0.216 2.53,-1.265 C 6.246,9.589 5.685,8.461 4.644,8.107 3.681,7.77 0.648,6.381 1.898,2.633 2.247,1.585 1.681,0.453 0.633,0.104 0.423,0.033 0.21,0 0,0"/></g><g transform="translate(19.4082,21.5)" id="g44"><path id="path46" style="fill:#67757f;fill-opacity:1;fill-rule:nonzero;stroke:none" d="M 0,0 C 0,-1.933 -1.567,-3.5 -3.5,-3.5 -5.433,-3.5 -7,-1.933 -7,0 l 0,4 c 0,1.933 1.567,3.5 3.5,3.5 C -1.567,7.5 0,5.933 0,4 L 0,0 Z"/></g><g transform="translate(21.4082,27)" id="g48"><path id="path50" style="fill:#ccd6dd;fill-opacity:1;fill-rule:nonzero;stroke:none" d="m 0,0 c 0,-1.104 -0.896,-2 -2,-2 l -7,0 c -1.104,0 -2,0.896 -2,2 0,1.104 0.896,2 2,2 l 7,0 C -0.896,2 0,1.104 0,0"/></g><g transform="translate(12,18.5)" id="g52"><path id="path54" style="fill:#ccd6dd;fill-opacity:1;fill-rule:nonzero;stroke:none" d="M 0,0 C -0.101,0 -0.2,0.03 -0.285,0.089 -0.419,0.183 -0.5,0.336 -0.5,0.5 l 0,7 C -0.5,10 2.208,10 4,10 5.792,10 8.5,10 8.5,7.5 l 0,-4 C 8.5,3.292 8.371,3.105 8.176,3.032 l -8,-3 C 0.119,0.01 0.059,0 0,0"/></g><g transform="translate(32.4746,33.1582)" id="g56"><path id="path58" style="fill:#bb1a34;fill-opacity:1;fill-rule:nonzero;stroke:none" d="m 0,0 -1,3 c -0.068,0.204 -0.26,0.342 -0.475,0.342 -0.129,0 -3.213,-0.035 -7.299,-3.1 -3.868,-2.901 -4.756,-2.901 -6.701,-2.901 l -3,10e-4 c -0.132,0 -0.259,-0.053 -0.353,-0.147 -0.527,-0.527 -0.666,-1.268 -0.371,-1.982 0.375,-0.904 1.55,-1.871 3.724,-1.871 1.439,0 3.533,1.156 5.957,2.493 2.979,1.644 6.355,3.507 9.043,3.507 0.162,0 0.312,0.077 0.406,0.207 C 0.025,-0.32 0.051,-0.152 0,0"/></g><g transform="translate(19.4082,33)" id="g60"><path id="path62" style="fill:#d99e82;fill-opacity:1;fill-rule:nonzero;stroke:none" d="m 0,0 c 0,-2.209 -1.791,-4 -4,-4 -2.209,0 -4,1.791 -4,4 0,2.209 1.791,3 4,3 2.209,0 4,-0.791 4,-3"/></g><g transform="translate(13,33)" id="g64"><path id="path66" style="fill:#9aaab4;fill-opacity:1;fill-rule:nonzero;stroke:none" d="M 0,0 C 2,0 4,1 4,0 4,-1 4,-3 6,-3 8,-3 9,4 3,4 -3,4 -3,0 0,0"/></g><g transform="translate(14,32.5)" id="g68"><path id="path70" style="fill:#bdddf4;fill-opacity:1;fill-rule:nonzero;stroke:none" d="M 0,0 C 0,-0.829 -0.671,-1.5 -1.5,-1.5 -2.329,-1.5 -3,-0.829 -3,0 -3,0.829 -2.329,1.5 -1.5,1.5 -0.671,1.5 0,0.829 0,0"/></g><g transform="translate(12.5,33.5)" id="g72"><path id="path74" style="fill:#67757f;fill-opacity:1;fill-rule:nonzero;stroke:none" d="m 0,0 c -0.551,0 -1,-0.449 -1,-1 0,-0.551 0.449,-1 1,-1 0.551,0 1,0.449 1,1 0,0.551 -0.449,1 -1,1 m 0,-3 c -1.103,0 -2,0.897 -2,2 0,1.103 0.897,2 2,2 C 1.103,1 2,0.103 2,-1 2,-2.103 1.103,-3 0,-3"/></g><g transform="translate(17,32.5)" id="g76"><path id="path78" style="fill:#bdddf4;fill-opacity:1;fill-rule:nonzero;stroke:none" d="M 0,0 C 0,-0.829 -0.671,-1.5 -1.5,-1.5 -2.329,-1.5 -3,-0.829 -3,0 -3,0.829 -2.329,1.5 -1.5,1.5 -0.671,1.5 0,0.829 0,0"/></g><g transform="translate(15.5,33.5)" id="g80"><path id="path82" style="fill:#67757f;fill-opacity:1;fill-rule:nonzero;stroke:none" d="m 0,0 c -0.551,0 -1,-0.449 -1,-1 0,-0.551 0.449,-1 1,-1 0.551,0 1,0.449 1,1 0,0.551 -0.449,1 -1,1 m 0,-3 c -1.103,0 -2,0.897 -2,2 0,1.103 0.897,2 2,2 C 1.103,1 2,0.103 2,-1 2,-2.103 1.103,-3 0,-3"/></g></g></g></g></svg>
