<svg xmlns="http://www.w3.org/2000/svg" viewBox="0 0 47.5 47.5" enable-background="new 0 0 47.5 47.5"><defs><clipPath id="a"><path d="M0 38h38V0H0v38z"/></clipPath></defs><g><g><g clip-path="url(#a)" transform="matrix(1.25 0 0 -1.25 0 47.5)"><g><path fill="#4289c1" d="M37 32V5s0-4-4-4H5C1 1 1 5 1 5v5s25 2 36 22"/></g><g><path fill="#a7d28b" d="M31.6 16.57s2.32 2.13 1.9 3.05c-.4.9-11.66-.83-17.14-3.28C8.14 12.67 4.3 6.57 5.1 4.74c.82-1.82 7.93-3.03 16.15.64 5.48 2.45 14.3 9.67 13.9 10.58-.4.92-3.56.6-3.56.6"/></g><g><path fill="#f5f8fa" d="M35.14 15.96c-.4.92-3.55.6-3.55.6s2.2 2.03 1.93 2.98L5.6 7.34c-.56-1.13-.73-2.05-.5-2.6.22-.46.86-.9 1.82-1.2l28.2 12.34c0 .02.03.06.02.08"/></g><g><path fill="#d99e82" d="M25.4 22c-3.4 0-6.45 3.95-6.8 4.4-.32.44-.23 1.07.2 1.4.45.33 1.07.24 1.4-.2.76-1 3.17-3.6 5.2-3.6.56 0 1-.45 1-1s-.44-1-1-1"/></g><g><path fill="#d99e82" d="M8.4 18c-.4 0-.8.27-.94.68-1.2 3.6.15 5.94 1.5 7.28 1.4 1.4 3.06 1.96 3.13 2 .52.17 1.08-.12 1.26-.64.17-.53-.1-1.1-.63-1.27-.52-.17-5-1.86-3.37-6.73.17-.53-.1-1.1-.64-1.27-.1-.03-.2-.05-.3-.05"/></g><g><path fill="#67757f" d="M19.4 21.5c0-1.93-1.56-3.5-3.5-3.5-1.92 0-3.5 1.57-3.5 3.5v4c0 1.93 1.58 3.5 3.5 3.5 1.94 0 3.5-1.57 3.5-3.5v-4z"/></g><g><path fill="#67757f" d="M21.4 27c0-1.1-.9-2-2-2h-7c-1.1 0-2 .9-2 2s.9 2 2 2h7c1.1 0 2-.9 2-2"/></g><g><path fill="#d99e82" d="M19.4 33c0-2.2-1.78-4-4-4-2.2 0-4 1.8-4 4s1.8 4 4 4c2.22 0 4-1.8 4-4"/></g><g><path fill="#fdcb58" d="M10.4 33s0 4 5 4c4 0 4-4 4-4s0 2-3 2c-2 0-2-3-6-2"/></g><g><path fill="#67757f" d="M26.4 11c-.3 0-.6.07-.9.2l-2 1c-.42.23-.77.6-.95 1.06l-1.68 4.2-4.2 1.68c-1.03.4-1.53 1.58-1.12 2.6.4 1.03 1.58 1.53 2.6 1.12l5-2c.5-.2.9-.6 1.12-1.12l1.7-4.3 1.33-.65c1-.5 1.4-1.7.9-2.7-.35-.7-1.06-1.1-1.8-1.1"/></g><g><path fill="#67757f" d="M17.4 7c-.72 0-1.43.4-1.78 1.1l-1 2c-.2.4-.26.86-.17 1.3l.85 4.23-2.6 4.34c-.58.95-.27 2.18.68 2.75.95.56 2.17.26 2.74-.7l3-5c.26-.42.35-.92.25-1.4l-.87-4.34.7-1.38c.5-1 .1-2.2-.9-2.7-.28-.13-.6-.2-.9-.2"/></g></g></g></g></svg>