<?xml version="1.0" encoding="UTF-8" standalone="no"?><svg xmlns:dc="http://purl.org/dc/elements/1.1/" xmlns:cc="http://creativecommons.org/ns#" xmlns:rdf="http://www.w3.org/1999/02/22-rdf-syntax-ns#" xmlns:svg="http://www.w3.org/2000/svg" xmlns="http://www.w3.org/2000/svg" viewBox="0 0 47.5 47.5" style="enable-background:new 0 0 47.5 47.5;" xml:space="preserve" version="1.1" id="svg2"><metadata id="metadata8"><rdf:RDF><cc:Work rdf:about=""><dc:format>image/svg+xml</dc:format><dc:type rdf:resource="http://purl.org/dc/dcmitype/StillImage"/></cc:Work></rdf:RDF></metadata><defs id="defs6"><clipPath id="clipPath16" clipPathUnits="userSpaceOnUse"><path id="path18" d="M 0,38 38,38 38,0 0,0 0,38 Z"/></clipPath><clipPath id="clipPath32" clipPathUnits="userSpaceOnUse"><path id="path34" d="M 1,19 C 1,9.059 9.059,1 19,1 l 0,0 c 9.941,0 18,8.059 18,18 l 0,0 c 0,9.941 -8.059,18 -18,18 l 0,0 C 9.059,37 1,28.941 1,19"/></clipPath></defs><g transform="matrix(1.25,0,0,-1.25,0,47.5)" id="g10"><g id="g12"><g clip-path="url(#clipPath16)" id="g14"><g transform="translate(37,19)" id="g20"><path id="path22" style="fill:#f4900c;fill-opacity:1;fill-rule:nonzero;stroke:none" d="m 0,0 c 0,-9.941 -8.059,-18 -18,-18 -9.941,0 -18,8.059 -18,18 0,9.941 8.059,18 18,18 C -8.059,18 0,9.941 0,0"/></g><path id="path24" style="fill:#231f20;fill-opacity:1;fill-rule:nonzero;stroke:none" d="m 20,1 -2,0 0,36 2,0 0,-36 z"/><path id="path26" style="fill:#231f20;fill-opacity:1;fill-rule:nonzero;stroke:none" d="m 1,20 36,0 0,-2 -36,0 0,2 z"/></g></g><g id="g28"><g clip-path="url(#clipPath32)" id="g30"><g transform="translate(3,31)" id="g36"><path id="path38" style="fill:#231f20;fill-opacity:1;fill-rule:nonzero;stroke:none" d="m 0,0 c -4.318,0 -7,-4.598 -7,-12 0,-7.402 2.682,-12 7,-12 4.318,0 7,4.598 7,12 C 7,-4.598 4.318,0 0,0 m 0,-26 c -4.351,0 -9,3.678 -9,14 0,10.322 4.649,14 9,14 4.351,0 9,-3.678 9,-14 0,-10.322 -4.649,-14 -9,-14"/></g><g transform="translate(35,31)" id="g40"><path id="path42" style="fill:#231f20;fill-opacity:1;fill-rule:nonzero;stroke:none" d="m 0,0 c -4.317,0 -7,-4.598 -7,-12 0,-7.402 2.683,-12 7,-12 4.317,0 7,4.598 7,12 C 7,-4.598 4.317,0 0,0 m 0,-26 c -4.351,0 -9,3.678 -9,14 0,10.322 4.649,14 9,14 4.351,0 9,-3.678 9,-14 0,-10.322 -4.649,-14 -9,-14"/></g></g></g></g></svg>
