<svg xmlns="http://www.w3.org/2000/svg" viewBox="0 0 47.5 47.5" enable-background="new 0 0 47.5 47.5"><defs><clipPath id="a"><path d="M0 38h38V0H0v38z"/></clipPath></defs><g><g><g clip-path="url(#a)" transform="matrix(1.25 0 0 -1.25 0 47.5)"><g><path fill="#292f33" d="M30 3c0-1.1-.9-2-2-2H10c-1.1 0-2 .9-2 2v32c0 1.1.9 2 2 2h18c1.1 0 2-.9 2-2V3z"/></g><g><path fill="#be1931" d="M7.7 5h22.6c4.08 3.3 5.7 8.34 5.7 14s-1.62 10.7-5.7 14H7.7C3.62 29.7 2 24.66 2 19S3.62 8.3 7.7 5"/></g><g><path fill="#dd2e44" d="M2.3 15c.1-.68.25-1.35.42-2h32.56c.17.65.3 1.32.42 2H2.3z"/></g><g><path fill="#dd2e44" d="M2.07 17h33.86c.05.66.07 1.32.07 2H2c0-.68.02-1.34.07-2"/></g><g><path fill="#dd2e44" d="M33.68 9c.36.64.68 1.3.95 2H3.37c.27-.7.6-1.36.95-2h29.36z"/></g><g><path fill="#dd2e44" d="M3.37 27c-.26-.65-.47-1.3-.65-2h32.56c-.18.7-.4 1.35-.65 2H3.37z"/></g><g><path fill="#dd2e44" d="M2.3 23c-.1-.65-.18-1.32-.23-2h33.86c-.05.68-.13 1.35-.23 2H2.3z"/></g><g><path fill="#dd2e44" d="M32.3 7H5.7c.58-.72 1.24-1.4 2-2h22.6c.75.6 1.42 1.28 2 2"/></g><g><path fill="#dd2e44" d="M5.68 31c-.5-.63-.96-1.3-1.36-2h29.36c-.4.7-.85 1.37-1.36 2H5.68z"/></g></g></g></g></svg>