<?xml version="1.0" encoding="UTF-8" standalone="no"?>
<!-- Created with Inkscape (http://www.inkscape.org/) -->

<svg
   xmlns:svg="http://www.w3.org/2000/svg"
   xmlns="http://www.w3.org/2000/svg"
   version="1.1"
   width="47.5"
   height="47.5"
   id="svg2"
   xml:space="preserve"><defs
     id="defs6"><clipPath
       id="clipPath26"><path
         d="M 0,38 38,38 38,0 0,0 0,38 z"
         id="path28" /></clipPath></defs><g
     transform="matrix(1.25,0,0,-1.25,0,47.5)"
     id="g12"><g
       transform="translate(6,19)"
       id="g14"><path
         d="M 0,0 13,13 26,0 26,-16 0,-16 0,0 z"
         id="path16"
         style="fill:#ffe8b6;fill-opacity:1;fill-rule:nonzero;stroke:none" /></g><path
       d="M 6,3 7,3 7,19 6,19 6,3 z"
       id="path18"
       style="fill:#ffcc4d;fill-opacity:1;fill-rule:nonzero;stroke:none" /><path
       d="m 31,3 1.001,0 0,16 L 31,19 31,3 z"
       id="path20"
       style="fill:#ffcc4d;fill-opacity:1;fill-rule:nonzero;stroke:none" /><g
       id="g22"><g
         clip-path="url(#clipPath26)"
         id="g24"><g
           transform="translate(32,18)"
           id="g30"><path
             d="M 0,0 C -0.256,0 -0.512,0.098 -0.707,0.293 L -13,12.586 -25.293,0.293 c -0.391,-0.391 -1.023,-0.391 -1.414,0 -0.391,0.391 -0.391,1.023 0,1.414 l 13,13 c 0.391,0.391 1.023,0.391 1.414,0 l 13,-13 C 1.098,1.316 1.098,0.684 0.707,0.293 0.512,0.098 0.256,0 0,0"
             id="path32"
             style="fill:#66757f;fill-opacity:1;fill-rule:nonzero;stroke:none" /></g><path
           d="m 21,3 -4,0 0,8 4,0 0,-8 z"
           id="path34"
           style="fill:#c1694f;fill-opacity:1;fill-rule:nonzero;stroke:none" /><path
           d="m 14,15 -4,0 0,4 4,0 0,-4 z"
           id="path36"
           style="fill:#55acee;fill-opacity:1;fill-rule:nonzero;stroke:none" /><path
           d="m 28,15 -4,0 0,4 4,0 0,-4 z"
           id="path38"
           style="fill:#55acee;fill-opacity:1;fill-rule:nonzero;stroke:none" /><path
           d="m 21,15 -4,0 0,4 4,0 0,-4 z"
           id="path40"
           style="fill:#55acee;fill-opacity:1;fill-rule:nonzero;stroke:none" /><path
           d="m 14,7 -4,0 0,4 4,0 0,-4 z"
           id="path42"
           style="fill:#55acee;fill-opacity:1;fill-rule:nonzero;stroke:none" /><path
           d="m 28,7 -4,0 0,4 4,0 0,-4 z"
           id="path44"
           style="fill:#55acee;fill-opacity:1;fill-rule:nonzero;stroke:none" /><g
           transform="translate(34,2)"
           id="g46"><path
             d="m 0,0 c 0,-0.553 -0.447,-1 -1,-1 l -28,0 c -0.552,0 -1,0.447 -1,1 0,0.553 0.448,1 1,1 L -1,1 C -0.447,1 0,0.553 0,0"
             id="path48"
             style="fill:#bcbec0;fill-opacity:1;fill-rule:nonzero;stroke:none" /></g></g></g></g></svg>