<?xml version="1.0" encoding="UTF-8" standalone="no"?><svg xmlns:dc="http://purl.org/dc/elements/1.1/" xmlns:cc="http://creativecommons.org/ns#" xmlns:rdf="http://www.w3.org/1999/02/22-rdf-syntax-ns#" xmlns:svg="http://www.w3.org/2000/svg" xmlns="http://www.w3.org/2000/svg" viewBox="0 0 47.5 47.5" style="enable-background:new 0 0 47.5 47.5;" xml:space="preserve" version="1.1" id="svg2"><metadata id="metadata8"><rdf:RDF><cc:Work rdf:about=""><dc:format>image/svg+xml</dc:format><dc:type rdf:resource="http://purl.org/dc/dcmitype/StillImage"/></cc:Work></rdf:RDF></metadata><defs id="defs6"><clipPath id="clipPath16" clipPathUnits="userSpaceOnUse"><path id="path18" d="M 0,38 38,38 38,0 0,0 0,38 Z"/></clipPath></defs><g transform="matrix(1.25,0,0,-1.25,0,47.5)" id="g10"><g id="g12"><g clip-path="url(#clipPath16)" id="g14"><g transform="translate(37,3)" id="g20"><path id="path22" style="fill:#bcbec0;fill-opacity:1;fill-rule:nonzero;stroke:none" d="m 0,0 c 0,-1.104 -0.896,-2 -2,-2 l -32,0 c -1.104,0 -2,0.896 -2,2 l 0,20 c 0,1.104 0.896,2 2,2 l 32,0 c 1.104,0 2,-0.896 2,-2 L 0,0 Z"/></g><g transform="translate(27,37)" id="g24"><path id="path26" style="fill:#d1d3d4;fill-opacity:1;fill-rule:nonzero;stroke:none" d="m 0,0 -16,0 c -1.104,0 -2,-0.896 -2,-2 l 0,-34 20,0 0,34 C 2,-0.896 1.104,0 0,0"/></g><path id="path28" style="fill:#55acee;fill-opacity:1;fill-rule:nonzero;stroke:none" d="m 27,31 -16,0 0,4 16,0 0,-4 z"/><path id="path30" style="fill:#55acee;fill-opacity:1;fill-rule:nonzero;stroke:none" d="M 27,1 11,1 11,5 27,5 27,1 Z"/><path id="path32" style="fill:#3b88c3;fill-opacity:1;fill-rule:nonzero;stroke:none" d="m 21,1 -4,0 0,4 4,0 0,-4 z"/><path id="path34" style="fill:#55acee;fill-opacity:1;fill-rule:nonzero;stroke:none" d="m 15,25 -4,0 0,4 4,0 0,-4 z"/><path id="path36" style="fill:#55acee;fill-opacity:1;fill-rule:nonzero;stroke:none" d="m 15,19 -4,0 0,4 4,0 0,-4 z"/><path id="path38" style="fill:#55acee;fill-opacity:1;fill-rule:nonzero;stroke:none" d="m 15,13 -4,0 0,4 4,0 0,-4 z"/><path id="path40" style="fill:#55acee;fill-opacity:1;fill-rule:nonzero;stroke:none" d="m 15,7 -4,0 0,4 4,0 0,-4 z"/><path id="path42" style="fill:#55acee;fill-opacity:1;fill-rule:nonzero;stroke:none" d="m 21,7 -4,0 0,4 4,0 0,-4 z"/><path id="path44" style="fill:#55acee;fill-opacity:1;fill-rule:nonzero;stroke:none" d="m 27,7 -4,0 0,4 4,0 0,-4 z"/><path id="path46" style="fill:#55acee;fill-opacity:1;fill-rule:nonzero;stroke:none" d="m 27,13 -4,0 0,4 4,0 0,-4 z"/><path id="path48" style="fill:#55acee;fill-opacity:1;fill-rule:nonzero;stroke:none" d="m 27,19 -4,0 0,4 4,0 0,-4 z"/><path id="path50" style="fill:#55acee;fill-opacity:1;fill-rule:nonzero;stroke:none" d="m 27,25 -4,0 0,4 4,0 0,-4 z"/><path id="path52" style="fill:#55acee;fill-opacity:1;fill-rule:nonzero;stroke:none" d="m 21,13 -4,0 0,4 4,0 0,-4 z"/><path id="path54" style="fill:#55acee;fill-opacity:1;fill-rule:nonzero;stroke:none" d="m 21,19 -4,0 0,4 4,0 0,-4 z"/><path id="path56" style="fill:#55acee;fill-opacity:1;fill-rule:nonzero;stroke:none" d="m 21,25 -4,0 0,4 4,0 0,-4 z"/><path id="path58" style="fill:#55acee;fill-opacity:1;fill-rule:nonzero;stroke:none" d="m 7,19 -4,0 0,4 4,0 0,-4 z"/><path id="path60" style="fill:#55acee;fill-opacity:1;fill-rule:nonzero;stroke:none" d="m 7,13 -4,0 0,4 4,0 0,-4 z"/><path id="path62" style="fill:#55acee;fill-opacity:1;fill-rule:nonzero;stroke:none" d="M 7,7 3,7 3,11 7,11 7,7 Z"/><path id="path64" style="fill:#55acee;fill-opacity:1;fill-rule:nonzero;stroke:none" d="m 35,7 -4,0 0,4 4,0 0,-4 z"/><path id="path66" style="fill:#55acee;fill-opacity:1;fill-rule:nonzero;stroke:none" d="m 35,13 -4,0 0,4 4,0 0,-4 z"/><path id="path68" style="fill:#55acee;fill-opacity:1;fill-rule:nonzero;stroke:none" d="m 35,19 -4,0 0,4 4,0 0,-4 z"/></g></g></g></svg>
