<?xml version="1.0" encoding="UTF-8" standalone="no"?>
<!-- Created with Inkscape (http://www.inkscape.org/) -->

<svg
   xmlns:svg="http://www.w3.org/2000/svg"
   xmlns="http://www.w3.org/2000/svg"
   version="1.1"
   width="47.5"
   height="47.5"
   id="svg2"
   xml:space="preserve"><defs
     id="defs6"><clipPath
       id="clipPath18"><path
         d="M 0,38 38,38 38,0 0,0 0,38 z"
         id="path20" /></clipPath></defs><g
     transform="matrix(1.25,0,0,-1.25,0,47.5)"
     id="g12"><g
       id="g14"><g
         clip-path="url(#clipPath18)"
         id="g16"><g
           transform="translate(25,27)"
           id="g22"><path
             d="m 0,0 c 0,-1.104 -0.896,-2 -2,-2 l -8,0 c -1.104,0 -2,0.896 -2,2 l 0,8 c 0,1.104 0.896,2 2,2 l 8,0 C -0.896,10 0,9.104 0,8 L 0,0 z"
             id="path24"
             style="fill:#d1d3d4;fill-opacity:1;fill-rule:nonzero;stroke:none" /></g><g
           transform="translate(1,23)"
           id="g26"><path
             d="m 0,0 0,-20 c 0,-1.104 0.896,-2 2,-2 l 32,0 c 1.104,0 2,0.896 2,2 L 36,0 0,0 z"
             id="path28"
             style="fill:#d1d3d4;fill-opacity:1;fill-rule:nonzero;stroke:none" /></g><g
           transform="translate(19,25)"
           id="g30"><path
             d="m 0,0 -16,0 c -1.104,0 -2,-0.896 -2,-2 L 2,-2 C 2,-0.896 1.104,0 0,0"
             id="path32"
             style="fill:#808285;fill-opacity:1;fill-rule:nonzero;stroke:none" /></g><g
           transform="translate(35,25)"
           id="g34"><path
             d="m 0,0 -16,0 c -1.104,0 -2,-0.896 -2,-2 L 2,-2 C 2,-0.896 1.104,0 0,0"
             id="path36"
             style="fill:#808285;fill-opacity:1;fill-rule:nonzero;stroke:none" /></g><path
           d="m 35,11 -32,0 0,4 32,0 0,-4 z"
           id="path38"
           style="fill:#55acee;fill-opacity:1;fill-rule:nonzero;stroke:none" /><path
           d="m 35,17 -32,0 0,4 32,0 0,-4 z"
           id="path40"
           style="fill:#55acee;fill-opacity:1;fill-rule:nonzero;stroke:none" /><path
           d="M 35,5 3,5 3,9 35,9 35,5 z"
           id="path42"
           style="fill:#55acee;fill-opacity:1;fill-rule:nonzero;stroke:none" /><path
           d="M 29,1 9,1 9,25 29,25 29,1 z"
           id="path44"
           style="fill:#e6e7e8;fill-opacity:1;fill-rule:nonzero;stroke:none" /><path
           d="m 27,13 -16,0 0,4 16,0 0,-4 z"
           id="path46"
           style="fill:#55acee;fill-opacity:1;fill-rule:nonzero;stroke:none" /><path
           d="m 27,19 -16,0 0,4 16,0 0,-4 z"
           id="path48"
           style="fill:#55acee;fill-opacity:1;fill-rule:nonzero;stroke:none" /><path
           d="m 27,7 -16,0 0,4 16,0 0,-4 z"
           id="path50"
           style="fill:#55acee;fill-opacity:1;fill-rule:nonzero;stroke:none" /><path
           d="M 24,1 14,1 14,5 24,5 24,1 z"
           id="path52"
           style="fill:#3b88c3;fill-opacity:1;fill-rule:nonzero;stroke:none" /><g
           transform="translate(23,33)"
           id="g54"><path
             d="m 0,0 -3,0 0,3 -2,0 0,-3 -3,0 0,-2 3,0 0,-3 2,0 0,3 3,0 0,2 z"
             id="path56"
             style="fill:#dd2e44;fill-opacity:1;fill-rule:nonzero;stroke:none" /></g><g
           transform="translate(27,27)"
           id="g58"><path
             d="m 0,0 -16,0 c -1.104,0 -2,-0.896 -2,-2 L 2,-2 C 2,-0.896 1.104,0 0,0"
             id="path60"
             style="fill:#808285;fill-opacity:1;fill-rule:nonzero;stroke:none" /></g></g></g></g></svg>