<?xml version="1.0" encoding="UTF-8" standalone="no"?>
<!-- Created with Inkscape (http://www.inkscape.org/) -->

<svg
   xmlns:svg="http://www.w3.org/2000/svg"
   xmlns="http://www.w3.org/2000/svg"
   version="1.1"
   width="47.5"
   height="47.5"
   id="svg2"
   xml:space="preserve"><defs
     id="defs6"><clipPath
       id="clipPath18"><path
         d="M 0,38 38,38 38,0 0,0 0,38 z"
         id="path20" /></clipPath></defs><g
     transform="matrix(1.25,0,0,-1.25,0,47.5)"
     id="g12"><g
       id="g14"><g
         clip-path="url(#clipPath18)"
         id="g16"><g
           transform="translate(22,22)"
           id="g22"><path
             d="m 0,0 c 0,-2.209 -1.791,-4 -4,-4 l -13,0 c -2.209,0 -4,1.791 -4,4 l 0,3 c 0,2.209 1.791,4 4,4 L -4,7 C -1.791,7 0,5.209 0,3 L 0,0 z"
             id="path24"
             style="fill:#be1931;fill-opacity:1;fill-rule:nonzero;stroke:none" /></g><g
           transform="translate(37,31)"
           id="g26"><path
             d="m 0,0 c 0,-2.209 -1.791,-4 -4,-4 l -12,0 c -2.209,0 -4,1.791 -4,4 l 0,1 c 0,2.209 1.791,4 4,4 L -4,5 C -1.791,5 0,3.209 0,1 L 0,0 z"
             id="path28"
             style="fill:#be1931;fill-opacity:1;fill-rule:nonzero;stroke:none" /></g><g
           transform="translate(1,25)"
           id="g30"><path
             d="m 0,0 0,-22 c 0,-1.104 0.896,-2 2,-2 l 31,0 0,24 -33,0 z"
             id="path32"
             style="fill:#f4abba;fill-opacity:1;fill-rule:nonzero;stroke:none" /></g><path
           d="M 15,1 3,1 3,5 15,5 15,1 z"
           id="path34"
           style="fill:#3b88c3;fill-opacity:1;fill-rule:nonzero;stroke:none" /><path
           d="M 19,7 3,7 3,11 19,11 19,7 z"
           id="path36"
           style="fill:#3b88c3;fill-opacity:1;fill-rule:nonzero;stroke:none" /><g
           transform="translate(17,32)"
           id="g38"><path
             d="m 0,0 0,-31 18,0 c 1.104,0 2,0.896 2,2 L 20,0 0,0 z"
             id="path40"
             style="fill:#ffd4de;fill-opacity:1;fill-rule:nonzero;stroke:none" /></g><path
           d="m 35,13 -16,0 0,4 16,0 0,-4 z"
           id="path42"
           style="fill:#55acee;fill-opacity:1;fill-rule:nonzero;stroke:none" /><path
           d="m 35,19 -16,0 0,4 16,0 0,-4 z"
           id="path44"
           style="fill:#55acee;fill-opacity:1;fill-rule:nonzero;stroke:none" /><path
           d="m 35,25 -16,0 0,4 16,0 0,-4 z"
           id="path46"
           style="fill:#55acee;fill-opacity:1;fill-rule:nonzero;stroke:none" /><path
           d="m 35,7 -16,0 0,4 16,0 0,-4 z"
           id="path48"
           style="fill:#55acee;fill-opacity:1;fill-rule:nonzero;stroke:none" /><path
           d="m 25,6 -2,0 0,24 2,0 0,-24 z"
           id="path50"
           style="fill:#ffd4de;fill-opacity:1;fill-rule:nonzero;stroke:none" /><path
           d="m 31,6 -2,0 0,24 2,0 0,-24 z"
           id="path52"
           style="fill:#ffd4de;fill-opacity:1;fill-rule:nonzero;stroke:none" /><path
           d="m 31,1 -8,0 0,4 8,0 0,-4 z"
           id="path54"
           style="fill:#3b88c3;fill-opacity:1;fill-rule:nonzero;stroke:none" /><g
           transform="translate(11,23)"
           id="g56"><path
             d="m 0,0 0,-4 -4,0 0,4 -2,0 0,-10 2,0 0,4 4,0 0,-4 2,0 0,10 -2,0 z"
             id="path58"
             style="fill:#dd2e44;fill-opacity:1;fill-rule:nonzero;stroke:none" /></g><path
           d="m 10,6 -2,0 0,6 2,0 0,-6 z"
           id="path60"
           style="fill:#f4abba;fill-opacity:1;fill-rule:nonzero;stroke:none" /><path
           d="m 17,6 -2,0 0,6 2,0 0,-6 z"
           id="path62"
           style="fill:#f4abba;fill-opacity:1;fill-rule:nonzero;stroke:none" /><g
           transform="translate(4,34)"
           id="g64"><path
             d="m 0,0 c 0,2.761 3.963,4 5,0 1.122,4 5,2.761 5,0 0,-3 -5,-6 -5,-6 0,0 -5,3 -5,6"
             id="path66"
             style="fill:#ea596e;fill-opacity:1;fill-rule:nonzero;stroke:none" /></g></g></g></g></svg>