<svg xmlns="http://www.w3.org/2000/svg" viewBox="0 0 47.5 47.5" enable-background="new 0 0 47.5 47.5"><defs><clipPath id="a"><path d="M0 38h38V0H0v38z"/></clipPath></defs><g><g><g clip-path="url(#a)" transform="matrix(1.25 0 0 -1.25 0 47.5)"><g><path fill="#d1d3d4" d="M25 27c0-1.1-.9-2-2-2h-8c-1.1 0-2 .9-2 2v8c0 1.1.9 2 2 2h8c1.1 0 2-.9 2-2v-8z"/></g><g><path fill="#d1d3d4" d="M1 23V3c0-1.1.9-2 2-2h32c1.1 0 2 .9 2 2v20H1z"/></g><g><path fill="#808285" d="M19 25H3c-1.1 0-2-.9-2-2h20c0 1.1-.9 2-2 2"/></g><g><path fill="#808285" d="M35 25H19c-1.1 0-2-.9-2-2h20c0 1.1-.9 2-2 2"/></g><path fill="#55acee" d="M35 11H3v4h32v-4z"/><path fill="#55acee" d="M35 17H3v4h32v-4z"/><path fill="#55acee" d="M35 5H3v4h32V5z"/><path fill="#e6e7e8" d="M29 1H9v24h20V1z"/><path fill="#55acee" d="M27 13H11v4h16v-4z"/><path fill="#55acee" d="M27 19H11v4h16v-4z"/><path fill="#55acee" d="M27 7H11v4h16V7z"/><path fill="#3b88c3" d="M24 1H14v4h10V1z"/><g><path fill="#dd2e44" d="M23 33h-3v3h-2v-3h-3v-2h3v-3h2v3h3v2z"/></g><g><path fill="#808285" d="M27 27H11c-1.1 0-2-.9-2-2h20c0 1.1-.9 2-2 2"/></g></g></g></g></svg>