<svg xmlns="http://www.w3.org/2000/svg" viewBox="0 0 47.5 47.5" enable-background="new 0 0 47.5 47.5"><defs><clipPath id="a"><path d="M0 38h38V0H0v38z"/></clipPath></defs><g><g><g clip-path="url(#a)" transform="matrix(1.25 0 0 -1.25 0 47.5)"><g><path fill="#bcbec0" d="M18 3c0-1.1.9-2 2-2h14c1.1 0 2 .9 2 2v16c0 1.1-.9 2-2 2H20c-1.1 0-2-.9-2-2V3z"/></g><g><path fill="#414042" d="M34 21H24v-2h12c0 1.1-.9 2-2 2"/></g><path fill="#3b88c3" d="M34 3H4v4h30V3z"/><g><path fill="#d1d3d4" d="M4 21c-1.1 0-2-.9-2-2V3c0-1.1.9-2 2-2h20v20H4z"/></g><g><path fill="#66757f" d="M4 21c-1.1 0-2-.9-2-2h22v2H4z"/></g><path fill="#55acee" d="M4 13h4v4H4v-4z"/><path fill="#55acee" d="M18 13h4v4h-4v-4z"/><path fill="#55acee" d="M11 13h4v4h-4v-4z"/><path fill="#3b88c3" d="M34 13h-4v4h4v-4z"/><path fill="#3b88c3" d="M28 13h-4v4h4v-4z"/><path fill="#55acee" d="M22 1H4v6h18V1z"/><path fill="#3b88c3" d="M18 1H8v6h10V1z"/><path fill="#dd2e44" d="M24 11H2V7h22v4z"/><path fill="#f4abba" d="M18 8H8v2h10V8z"/><path fill="#fff" d="M16 8h-6v2h6V8z"/><path fill="#a0041e" d="M36 7H24v4h12V7z"/><path fill="#414042" d="M8 21H6v2h2v-2z"/><path fill="#414042" d="M18 21h2v2h-2v-2z"/><g><path fill="#dd2e44" d="M22 25c0-1.1-.9-2-2-2H6c-1.1 0-2 .9-2 2v10c0 1.1.9 2 2 2h14c1.1 0 2-.9 2-2V25z"/></g><g><path fill="#fff" d="M11.56 26.85c.62 0 1.1-.28 1.1-.93 0-.64-.48-.92-1-.92h-4.7c-.6 0-1.1.28-1.1.92 0 .3.2.55.34.72 1.16 1.4 2.42 2.65 3.48 4.2.26.35.5.8.5 1.3 0 .56-.44 1.07-1 1.07-1.62 0-.85-2.26-2.2-2.26-.67 0-1.02.48-1.02 1.02 0 1.77 1.57 3.18 3.3 3.18 1.7 0 3.1-1.13 3.1-2.9 0-1.96-2.17-3.9-3.36-5.4h2.56z"/></g><g><path fill="#fff" d="M17.3 32.96h-.03l-1.9-3.9h1.93v3.9zm-3.38-5.76c-.68 0-.98.46-.98.83 0 .3.12.47.2.6l3.14 5.7c.3.56.7.8 1.43.8.82 0 1.62-.5 1.62-1.78v-4.3h.24c.54 0 .98-.37.98-.93s-.44-.92-.98-.92h-.24V26c0-.73-.3-1.08-1-1.08-.73 0-1.02.35-1.02 1.1v1.18h-3.38z"/></g></g></g></g></svg>