<?xml version="1.0" encoding="UTF-8" standalone="no"?>
<!-- Created with Inkscape (http://www.inkscape.org/) -->

<svg
   xmlns:svg="http://www.w3.org/2000/svg"
   xmlns="http://www.w3.org/2000/svg"
   version="1.1"
   width="47.5"
   height="47.5"
   id="svg2"
   xml:space="preserve"><defs
     id="defs6"><clipPath
       id="clipPath18"><path
         d="M 0,38 38,38 38,0 0,0 0,38 z"
         id="path20" /></clipPath></defs><g
     transform="matrix(1.25,0,0,-1.25,0,47.5)"
     id="g12"><g
       id="g14"><g
         clip-path="url(#clipPath18)"
         id="g16"><g
           transform="translate(6.9424,4)"
           id="g22"><path
             d="M 0,0 C -0.138,4.657 -0.507,8 -0.942,8 -1.377,8 -1.746,4.657 -1.884,0 L 0,0 z"
             id="path24"
             style="fill:#ffcc4d;fill-opacity:1;fill-rule:nonzero;stroke:none" /></g><g
           transform="translate(17,16.5771)"
           id="g26"><path
             d="m 0,0 c 0,-5.045 -2.238,-6.577 -5,-6.577 -2.761,0 -5,1.532 -5,6.577 0,5.044 4,12.423 5,12.423 1,0 5,-7.379 5,-12.423"
             id="path28"
             style="fill:#a6d388;fill-opacity:1;fill-rule:nonzero;stroke:none" /></g><g
           transform="translate(11,17.2686)"
           id="g30"><path
             d="m 0,0 c 0,-5.574 -2.238,-7.269 -5,-7.269 -2.761,0 -5,1.695 -5,7.269 0,5.577 4,13.731 5,13.731 1,0 5,-8.154 5,-13.731"
             id="path32"
             style="fill:#77b255;fill-opacity:1;fill-rule:nonzero;stroke:none" /></g><g
           transform="translate(9,21)"
           id="g34"><path
             d="M 0,0 13,13 26,0 26,-16 0,-16 0,0 z"
             id="path36"
             style="fill:#ffe8b6;fill-opacity:1;fill-rule:nonzero;stroke:none" /></g><path
           d="m 23,5 -1,0 0,16 1,0 0,-16 z"
           id="path38"
           style="fill:#ffffff;fill-opacity:1;fill-rule:nonzero;stroke:none" /><path
           d="M 10,5 9,5 9,21 10,21 10,5 z"
           id="path40"
           style="fill:#ffcc4d;fill-opacity:1;fill-rule:nonzero;stroke:none" /><path
           d="m 34,5 1,0 0,16 -1,0 0,-16 z"
           id="path42"
           style="fill:#ffcc4d;fill-opacity:1;fill-rule:nonzero;stroke:none" /><g
           transform="translate(35,20)"
           id="g44"><path
             d="M 0,0 C -0.256,0 -0.512,0.098 -0.707,0.293 L -13,12.586 -25.293,0.293 c -0.391,-0.391 -1.023,-0.391 -1.414,0 -0.391,0.391 -0.391,1.023 0,1.414 l 13,13 c 0.391,0.391 1.023,0.391 1.414,0 l 13,-13 C 1.098,1.316 1.098,0.684 0.707,0.293 0.512,0.098 0.256,0 0,0"
             id="path46"
             style="fill:#66757f;fill-opacity:1;fill-rule:nonzero;stroke:none" /></g><g
           transform="translate(22,20)"
           id="g48"><path
             d="m 0,0 c -0.256,0 -0.512,0.098 -0.707,0.293 -0.391,0.391 -0.391,1.023 0,1.414 l 6.5,6.5 c 0.391,0.391 1.023,0.391 1.414,0 0.391,-0.391 0.391,-1.023 0,-1.414 l -6.5,-6.5 C 0.512,0.098 0.256,0 0,0"
             id="path50"
             style="fill:#66757f;fill-opacity:1;fill-rule:nonzero;stroke:none" /></g><path
           d="m 18,5 -4,0 0,6 4,0 0,-6 z"
           id="path52"
           style="fill:#c1694f;fill-opacity:1;fill-rule:nonzero;stroke:none" /><path
           d="m 30,7 -3,0 0,4 3,0 0,-4 z"
           id="path54"
           style="fill:#55acee;fill-opacity:1;fill-rule:nonzero;stroke:none" /><path
           d="m 26,7 2,0 0,4 -2,0 0,-4 z"
           id="path56"
           style="fill:#55acee;fill-opacity:1;fill-rule:nonzero;stroke:none" /><path
           d="m 31,7 -2,0 0,4 2,0 0,-4 z"
           id="path58"
           style="fill:#55acee;fill-opacity:1;fill-rule:nonzero;stroke:none" /><path
           d="m 18,16 -4,0 0,4 4,0 0,-4 z"
           id="path60"
           style="fill:#55acee;fill-opacity:1;fill-rule:nonzero;stroke:none" /><path
           d="m 31,16 -5,0 0,4 5,0 0,-4 z"
           id="path62"
           style="fill:#55acee;fill-opacity:1;fill-rule:nonzero;stroke:none" /><g
           transform="translate(37,3)"
           id="g64"><path
             d="m 0,0 c 0,-1.104 -0.896,-2 -2,-2 l -32,0 c -1.104,0 -2,0.896 -2,2 0,1.104 0.896,2 2,2 L -2,2 C -0.896,2 0,1.104 0,0"
             id="path66"
             style="fill:#5c913b;fill-opacity:1;fill-rule:nonzero;stroke:none" /></g><path
           d="m 18,1 -4,0 0,4 4,0 0,-4 z"
           id="path68"
           style="fill:#ffffff;fill-opacity:1;fill-rule:nonzero;stroke:none" /></g></g></g></svg>