<?xml version="1.0" encoding="UTF-8" standalone="no"?><svg xmlns:dc="http://purl.org/dc/elements/1.1/" xmlns:cc="http://creativecommons.org/ns#" xmlns:rdf="http://www.w3.org/1999/02/22-rdf-syntax-ns#" xmlns:svg="http://www.w3.org/2000/svg" xmlns="http://www.w3.org/2000/svg" viewBox="0 0 47.5 47.5" style="enable-background:new 0 0 47.5 47.5;" xml:space="preserve" version="1.1" id="svg2"><metadata id="metadata8"><rdf:RDF><cc:Work rdf:about=""><dc:format>image/svg+xml</dc:format><dc:type rdf:resource="http://purl.org/dc/dcmitype/StillImage"/></cc:Work></rdf:RDF></metadata><defs id="defs6"><clipPath id="clipPath16" clipPathUnits="userSpaceOnUse"><path id="path18" d="M 0,38 38,38 38,0 0,0 0,38 Z"/></clipPath></defs><g transform="matrix(1.25,0,0,-1.25,0,47.5)" id="g10"><g id="g12"><g clip-path="url(#clipPath16)" id="g14"><g transform="translate(1,19)" id="g20"><path id="path22" style="fill:#bcbec0;fill-opacity:1;fill-rule:nonzero;stroke:none" d="m 0,0 0,-16 c 0,-1.104 0.896,-2 2,-2 l 32,0 c 1.104,0 2,0.896 2,2 L 36,0 0,0 Z"/></g><g transform="translate(1,19)" id="g24"><path id="path26" style="fill:#66757f;fill-opacity:1;fill-rule:nonzero;stroke:none" d="M 0,0 18,6.353 36,0 0,0 Z"/></g><path id="path28" style="fill:#55acee;fill-opacity:1;fill-rule:nonzero;stroke:none" d="m 35,13 -32,0 0,4 32,0 0,-4 z"/><path id="path30" style="fill:#55acee;fill-opacity:1;fill-rule:nonzero;stroke:none" d="M 35,7 3,7 3,11 35,11 35,7 Z"/><path id="path32" style="fill:#bcbec0;fill-opacity:1;fill-rule:nonzero;stroke:none" d="M 31,2 7,2 7,18 31,18 31,2 Z"/><path id="path34" style="fill:#d1d3d4;fill-opacity:1;fill-rule:nonzero;stroke:none" d="M 29,1 9,1 9,32 29,32 29,1 Z"/><path id="path36" style="fill:#55acee;fill-opacity:1;fill-rule:nonzero;stroke:none" d="m 27,13 -16,0 0,4 16,0 0,-4 z"/><path id="path38" style="fill:#55acee;fill-opacity:1;fill-rule:nonzero;stroke:none" d="m 27,7 -16,0 0,4 16,0 0,-4 z"/><path id="path40" style="fill:#d1d3d4;fill-opacity:1;fill-rule:nonzero;stroke:none" d="m 17,6 -2,0 0,18 2,0 0,-18 z"/><path id="path42" style="fill:#d1d3d4;fill-opacity:1;fill-rule:nonzero;stroke:none" d="m 23,6 -2,0 0,18 2,0 0,-18 z"/><path id="path44" style="fill:#3b88c3;fill-opacity:1;fill-rule:nonzero;stroke:none" d="m 21,1 -4,0 0,4 4,0 0,-4 z"/><path id="path46" style="fill:#dd2e44;fill-opacity:1;fill-rule:nonzero;stroke:none" d="m 24,28 -10,0 0,2 10,0 0,-2 z"/><g transform="translate(14,26)" id="g48"><path id="path50" style="fill:#dd2e44;fill-opacity:1;fill-rule:nonzero;stroke:none" d="m 0,0 0,-2 4,0 0,-4 2,0 0,4 4,0 0,2 -10,0 z"/></g><g transform="translate(9,32)" id="g52"><path id="path54" style="fill:#66757f;fill-opacity:1;fill-rule:nonzero;stroke:none" d="M 0,0 10,5 20,0 0,0 Z"/></g></g></g></g></svg>
