<?xml version="1.0" encoding="UTF-8" standalone="no"?><svg xmlns:dc="http://purl.org/dc/elements/1.1/" xmlns:cc="http://creativecommons.org/ns#" xmlns:rdf="http://www.w3.org/1999/02/22-rdf-syntax-ns#" xmlns:svg="http://www.w3.org/2000/svg" xmlns="http://www.w3.org/2000/svg" viewBox="0 0 47.5 47.5" style="enable-background:new 0 0 47.5 47.5;" xml:space="preserve" version="1.1" id="svg2"><metadata id="metadata8"><rdf:RDF><cc:Work rdf:about=""><dc:format>image/svg+xml</dc:format><dc:type rdf:resource="http://purl.org/dc/dcmitype/StillImage"/></cc:Work></rdf:RDF></metadata><defs id="defs6"><clipPath id="clipPath18" clipPathUnits="userSpaceOnUse"><path id="path20" d="M 0,38 38,38 38,0 0,0 0,38 Z"/></clipPath></defs><g transform="matrix(1.25,0,0,-1.25,0,47.5)" id="g10"><path id="path12" style="fill:#58595b;fill-opacity:1;fill-rule:nonzero;stroke:none" d="M 34,21 4,21 4,3 34,3 34,21 Z"/><g id="g14"><g clip-path="url(#clipPath18)" id="g16"><g transform="translate(3,3)" id="g22"><path id="path24" style="fill:#bcbec0;fill-opacity:1;fill-rule:nonzero;stroke:none" d="m 0,0 32,0 c 1.104,0 2,-0.896 2,-2 l -36,0 c 0,1.104 0.896,2 2,2"/></g><g transform="translate(19,14)" id="g26"><path id="path28" style="fill:#231f20;fill-opacity:1;fill-rule:nonzero;stroke:none" d="m 0,0 c -1.657,0 -3,-1.343 -3,-3 l 0,-6 6,0 0,6 C 3,-1.343 1.657,0 0,0"/></g><path id="path30" style="fill:#d1d3d4;fill-opacity:1;fill-rule:nonzero;stroke:none" d="M 8,16 4,16 4,5 8,5 8,16 Z"/><path id="path32" style="fill:#d1d3d4;fill-opacity:1;fill-rule:nonzero;stroke:none" d="m 14,16 -4,0 0,-11 4,0 0,11 z"/><path id="path34" style="fill:#d1d3d4;fill-opacity:1;fill-rule:nonzero;stroke:none" d="m 34,16 -4,0 0,-11 4,0 0,11 z"/><path id="path36" style="fill:#d1d3d4;fill-opacity:1;fill-rule:nonzero;stroke:none" d="m 28,16 -4,0 0,-11 4,0 0,11 z"/><path id="path38" style="fill:#a7a9ac;fill-opacity:1;fill-rule:nonzero;stroke:none" d="M 35,3 3,3 3,5 35,5 35,3 Z"/><g transform="translate(37,26)" id="g40"><path id="path42" style="fill:#58595b;fill-opacity:1;fill-rule:nonzero;stroke:none" d="M 0,0 -18,11 -36,0 0,0 Z"/></g><g transform="translate(19,34.5996)" id="g44"><path id="path46" style="fill:#d1d3d4;fill-opacity:1;fill-rule:nonzero;stroke:none" d="m 0,0 -16,-9.6 0,-4 32,0 0,4 L 0,0 Z"/></g><path id="path48" style="fill:#808285;fill-opacity:1;fill-rule:nonzero;stroke:none" d="m 8,16 -4,0 0,2 4,0 0,-2 z"/><path id="path50" style="fill:#808285;fill-opacity:1;fill-rule:nonzero;stroke:none" d="m 14,16 -4,0 0,2 4,0 0,-2 z"/><path id="path52" style="fill:#808285;fill-opacity:1;fill-rule:nonzero;stroke:none" d="m 28,16 -4,0 0,2 4,0 0,-2 z"/><path id="path54" style="fill:#808285;fill-opacity:1;fill-rule:nonzero;stroke:none" d="m 34,16 -4,0 0,2 4,0 0,-2 z"/><path id="path56" style="fill:#d1d3d4;fill-opacity:1;fill-rule:nonzero;stroke:none" d="m 36,20 -34,0 0,5 34,0 0,-5 z"/><g transform="translate(37,25)" id="g58"><path id="path60" style="fill:#a7a9ac;fill-opacity:1;fill-rule:nonzero;stroke:none" d="m 0,0 c 0,-0.552 -0.447,-1 -1,-1 l -34,0 c -0.552,0 -1,0.448 -1,1 l 0,1 c 0,0.552 0.448,1 1,1 L -1,2 C -0.447,2 0,1.552 0,1 L 0,0 Z"/></g><g transform="translate(37,19)" id="g62"><path id="path64" style="fill:#a7a9ac;fill-opacity:1;fill-rule:nonzero;stroke:none" d="m 0,0 c 0,-0.552 -0.447,-1 -1,-1 l -34,0 c -0.552,0 -1,0.448 -1,1 l 0,1 c 0,0.552 0.448,1 1,1 L -1,2 C -0.447,2 0,1.552 0,1 L 0,0 Z"/></g><path id="path66" style="fill:#e6e7e8;fill-opacity:1;fill-rule:nonzero;stroke:none" d="M 24,3 14,3 14,5 24,5 24,3 Z"/><path id="path68" style="fill:#f1f2f2;fill-opacity:1;fill-rule:nonzero;stroke:none" d="M 26,1 12,1 12,3 26,3 26,1 Z"/></g></g></g></svg>
