<?xml version="1.0" encoding="UTF-8" standalone="no"?>
<!-- Created with Inkscape (http://www.inkscape.org/) -->

<svg
   xmlns:svg="http://www.w3.org/2000/svg"
   xmlns="http://www.w3.org/2000/svg"
   version="1.1"
   width="47.5"
   height="47.5"
   id="svg2"
   xml:space="preserve"><defs
     id="defs6"><clipPath
       id="clipPath18"><path
         d="M 0,38 38,38 38,0 0,0 0,38 z"
         id="path20" /></clipPath></defs><g
     transform="matrix(1.25,0,0,-1.25,0,47.5)"
     id="g12"><g
       id="g14"><g
         clip-path="url(#clipPath18)"
         id="g16"><g
           transform="translate(1,19)"
           id="g22"><path
             d="m 0,0 0,-16 c 0,-1.104 0.896,-2 2,-2 l 32,0 c 1.104,0 2,0.896 2,2 L 36,0 0,0 z"
             id="path24"
             style="fill:#bcbec0;fill-opacity:1;fill-rule:nonzero;stroke:none" /></g><g
           transform="translate(1,19)"
           id="g26"><path
             d="M 0,0 18,6.353 36,0 0,0 z"
             id="path28"
             style="fill:#66757f;fill-opacity:1;fill-rule:nonzero;stroke:none" /></g><path
           d="m 35,13 -32,0 0,4 32,0 0,-4 z"
           id="path30"
           style="fill:#55acee;fill-opacity:1;fill-rule:nonzero;stroke:none" /><path
           d="M 35,7 3,7 3,11 35,11 35,7 z"
           id="path32"
           style="fill:#55acee;fill-opacity:1;fill-rule:nonzero;stroke:none" /><path
           d="M 31,2 7,2 7,18 31,18 31,2 z"
           id="path34"
           style="fill:#bcbec0;fill-opacity:1;fill-rule:nonzero;stroke:none" /><path
           d="M 29,1 9,1 9,32 29,32 29,1 z"
           id="path36"
           style="fill:#d1d3d4;fill-opacity:1;fill-rule:nonzero;stroke:none" /><path
           d="m 27,13 -16,0 0,4 16,0 0,-4 z"
           id="path38"
           style="fill:#55acee;fill-opacity:1;fill-rule:nonzero;stroke:none" /><path
           d="m 27,7 -16,0 0,4 16,0 0,-4 z"
           id="path40"
           style="fill:#55acee;fill-opacity:1;fill-rule:nonzero;stroke:none" /><path
           d="m 17,6 -2,0 0,18 2,0 0,-18 z"
           id="path42"
           style="fill:#d1d3d4;fill-opacity:1;fill-rule:nonzero;stroke:none" /><path
           d="m 23,6 -2,0 0,18 2,0 0,-18 z"
           id="path44"
           style="fill:#d1d3d4;fill-opacity:1;fill-rule:nonzero;stroke:none" /><path
           d="m 21,1 -4,0 0,4 4,0 0,-4 z"
           id="path46"
           style="fill:#3b88c3;fill-opacity:1;fill-rule:nonzero;stroke:none" /><path
           d="m 24,28 -10,0 0,2 10,0 0,-2 z"
           id="path48"
           style="fill:#dd2e44;fill-opacity:1;fill-rule:nonzero;stroke:none" /><g
           transform="translate(14,26)"
           id="g50"><path
             d="m 0,0 0,-2 4,0 0,-4 2,0 0,4 4,0 0,2 -10,0 z"
             id="path52"
             style="fill:#dd2e44;fill-opacity:1;fill-rule:nonzero;stroke:none" /></g><g
           transform="translate(9,32)"
           id="g54"><path
             d="M 0,0 10,5 20,0 0,0 z"
             id="path56"
             style="fill:#66757f;fill-opacity:1;fill-rule:nonzero;stroke:none" /></g></g></g></g></svg>