<svg xmlns="http://www.w3.org/2000/svg" viewBox="0 0 47.5 47.5" enable-background="new 0 0 47.5 47.5"><defs><clipPath id="a"><path d="M0 38h38V0H0v38z"/></clipPath></defs><g><g><path fill="#ffe8b6" d="M7.5 23.75L23.75 7.5 40 23.75v20H7.5v-20z"/></g><path fill="#ffcc4d" d="M7.5 43.75h1.25v-20H7.5v20z"/><path fill="#ffcc4d" d="M38.75 43.75H40v-20h-1.25v20z"/><g><g clip-path="url(#a)" transform="matrix(1.25 0 0 -1.25 0 47.5)"><g><path fill="#66757f" d="M32 18c-.26 0-.5.1-.7.3L19 30.6 6.7 18.3c-.38-.4-1.02-.4-1.4 0-.4.38-.4 1.02 0 1.4l13 13c.38.4 1.02.4 1.4 0l13-13c.4-.38.4-1.02 0-1.4-.2-.2-.44-.3-.7-.3"/></g><path fill="#c1694f" d="M21 3h-4v8h4V3z"/><path fill="#55acee" d="M14 15h-4v4h4v-4z"/><path fill="#55acee" d="M28 15h-4v4h4v-4z"/><path fill="#55acee" d="M21 15h-4v4h4v-4z"/><path fill="#55acee" d="M14 7h-4v4h4V7z"/><path fill="#55acee" d="M28 7h-4v4h4V7z"/><g><path fill="#bcbec0" d="M34 2c0-.55-.45-1-1-1H5c-.55 0-1 .45-1 1s.45 1 1 1h28c.55 0 1-.45 1-1"/></g></g></g></g></svg>