<svg xmlns="http://www.w3.org/2000/svg" viewBox="0 0 47.5 47.5" enable-background="new 0 0 47.5 47.5"><defs><clipPath id="a"><path d="M0 38h38V0H0v38z"/></clipPath></defs><g><g><g clip-path="url(#a)" transform="matrix(1.25 0 0 -1.25 0 47.5)"><g><path fill="#bcbec0" d="M37 3c0-1.1-.9-2-2-2H3c-1.1 0-2 .9-2 2v20c0 1.1.9 2 2 2h32c1.1 0 2-.9 2-2V3z"/></g><g><path fill="#d1d3d4" d="M27 37H11c-1.1 0-2-.9-2-2V1h20v34c0 1.1-.9 2-2 2"/></g><path fill="#55acee" d="M27 31H11v4h16v-4z"/><path fill="#55acee" d="M27 1H11v4h16V1z"/><path fill="#3b88c3" d="M21 1h-4v4h4V1z"/><path fill="#55acee" d="M15 25h-4v4h4v-4z"/><path fill="#55acee" d="M15 19h-4v4h4v-4z"/><path fill="#55acee" d="M15 13h-4v4h4v-4z"/><path fill="#55acee" d="M15 7h-4v4h4V7z"/><path fill="#55acee" d="M21 7h-4v4h4V7z"/><path fill="#55acee" d="M27 7h-4v4h4V7z"/><path fill="#55acee" d="M27 13h-4v4h4v-4z"/><path fill="#55acee" d="M27 19h-4v4h4v-4z"/><path fill="#55acee" d="M27 25h-4v4h4v-4z"/><path fill="#55acee" d="M21 13h-4v4h4v-4z"/><path fill="#55acee" d="M21 19h-4v4h4v-4z"/><path fill="#55acee" d="M21 25h-4v4h4v-4z"/><path fill="#55acee" d="M7 19H3v4h4v-4z"/><path fill="#55acee" d="M7 13H3v4h4v-4z"/><path fill="#55acee" d="M7 7H3v4h4V7z"/><path fill="#55acee" d="M35 7h-4v4h4V7z"/><path fill="#55acee" d="M35 13h-4v4h4v-4z"/><path fill="#55acee" d="M35 19h-4v4h4v-4z"/></g></g></g></svg>