<svg xmlns="http://www.w3.org/2000/svg" viewBox="0 0 47.5 47.5" enable-background="new 0 0 47.5 47.5"><g><path fill="#d1d3d4" d="M40 30H7.5v8.75H40V30z"/><g><path fill="#d99e82" d="M1.25 46.25h45l-5-8.75h-35l-5 8.75z"/></g><g><path fill="#66757f" d="M38.75 26.25h-30l-6.25 5H45l-6.25-5z"/></g><g><path fill="#66757f" d="M38.75 18.75h-30l-5 3.75h40l-5-3.75z"/></g><path fill="#d1d3d4" d="M38.75 22.5h-30v3.75h30V22.5z"/><g><path fill="#66757f" d="M37.5 12.5H10l-1.25 6.25h30L37.5 12.5z"/></g><g><path fill="#d1d3d4" d="M31.25 12.5v-5h-15v5h-2.5V15h20v-2.5h-2.5z"/></g><g><path fill="#66757f" d="M16.25 3.75h15v2.5l2.5 2.5h-20l2.5-2.5v-2.5z"/></g><g><path fill="#99aab5" d="M30 1.25V2.5H17.5V1.25h-1.25v2.5h15v-2.5H30z"/></g><g><path fill="#d1d3d4" d="M10.96 20l12.8-6.4L36.54 20h-25.6z"/></g><g><path fill="#66757f" d="M16.25 18.75l7.5-3.75 7.5 3.75h-15zm22.5.96l-6.38-3.2-7.5-3.74-1.12-.56-1.12.56-7.5 3.75-6.38 3.2v1.55h30V19.7z"/></g><path fill="#6d6e71" d="M40 37.5H7.5V35H40v2.5z"/></g></svg>