<svg xmlns="http://www.w3.org/2000/svg" viewBox="0 0 47.5 47.5" enable-background="new 0 0 47.5 47.5"><defs><clipPath id="a"><path d="M0 38h38V0H0v38z"/></clipPath></defs><g><path fill="#edbb9f" d="M32.5 32.5H15V13.75h17.5V32.5z"/><g><g clip-path="url(#a)" transform="matrix(1.25 0 0 -1.25 0 47.5)"><g><path fill="#be1931" d="M2 19V3c0-1.1.9-2 2-2h30c1.1 0 2 .9 2 2v16H2z"/></g><path fill="#ffe8b6" d="M36 20H2v3h34v-3z"/><path fill="#c1694f" d="M36 19H2v2h34v-2z"/><g><path fill="#d1d3d4" d="M19 10c-1.66 0-3-1.34-3-3V1h6v6c0 1.66-1.34 3-3 3"/></g><g><path fill="#a7a9ac" d="M29 10c-1.66 0-3-1.34-3-3V3h6v4c0 1.66-1.34 3-3 3"/></g><g><path fill="#a7a9ac" d="M9 10c-1.66 0-3-1.34-3-3V3h6v4c0 1.66-1.34 3-3 3"/></g><path fill="#a7a9ac" d="M11 13H7v4h4v-4z"/><path fill="#a7a9ac" d="M21 13h-4v4h4v-4z"/><path fill="#a7a9ac" d="M31 13h-4v4h4v-4z"/><g><path fill="#d99e82" d="M23 33c0-2.2-1.8-4-4-4s-4 1.8-4 4 1.8 4 4 4 4-1.8 4-4"/></g><path fill="#edbb9f" d="M23 29h-8v4h8v-4z"/><g><path fill="#d99e82" d="M34 25H4c-1.1 0-2-.9-2-2h34c0 1.1-.9 2-2 2"/></g><g><path fill="#d99e82" d="M24 29H14c-1.1 0-2-.9-2-2h14c0 1.1-.9 2-2 2"/></g></g></g></g></svg>