<?xml version="1.0" encoding="UTF-8" standalone="no"?><svg xmlns:svg="http://www.w3.org/2000/svg" xmlns="http://www.w3.org/2000/svg" version="1.1" viewBox="0 0 47.5 47.5" style="enable-background:new 0 0 47.5 47.5;" id="svg2" xml:space="preserve"><defs id="defs6"><clipPath id="clipPath18"><path d="M 0,38 38,38 38,0 0,0 0,38 z" id="path20"/></clipPath></defs><g transform="matrix(1.25,0,0,-1.25,0,47.5)" id="g12"><g id="g14"><g clip-path="url(#clipPath18)" id="g16"><g transform="translate(37,3)" id="g22"><path d="m 0,0 c 0,-1.104 -0.896,-2 -2,-2 l -32,0 c -1.104,0 -2,0.896 -2,2 l 0,20 c 0,1.104 0.896,2 2,2 l 32,0 c 1.104,0 2,-0.896 2,-2 L 0,0 z" id="path24" style="fill:#bcbec0;fill-opacity:1;fill-rule:nonzero;stroke:none"/></g><g transform="translate(27,37)" id="g26"><path d="m 0,0 -16,0 c -1.104,0 -2,-0.896 -2,-2 l 0,-34 20,0 0,34 C 2,-0.896 1.104,0 0,0" id="path28" style="fill:#d1d3d4;fill-opacity:1;fill-rule:nonzero;stroke:none"/></g><path d="m 27,31 -16,0 0,4 16,0 0,-4 z" id="path30" style="fill:#55acee;fill-opacity:1;fill-rule:nonzero;stroke:none"/><path d="M 27,1 11,1 11,5 27,5 27,1 z" id="path32" style="fill:#55acee;fill-opacity:1;fill-rule:nonzero;stroke:none"/><path d="m 21,1 -4,0 0,4 4,0 0,-4 z" id="path34" style="fill:#3b88c3;fill-opacity:1;fill-rule:nonzero;stroke:none"/><path d="m 15,25 -4,0 0,4 4,0 0,-4 z" id="path36" style="fill:#55acee;fill-opacity:1;fill-rule:nonzero;stroke:none"/><path d="m 15,19 -4,0 0,4 4,0 0,-4 z" id="path38" style="fill:#55acee;fill-opacity:1;fill-rule:nonzero;stroke:none"/><path d="m 15,13 -4,0 0,4 4,0 0,-4 z" id="path40" style="fill:#55acee;fill-opacity:1;fill-rule:nonzero;stroke:none"/><path d="m 15,7 -4,0 0,4 4,0 0,-4 z" id="path42" style="fill:#55acee;fill-opacity:1;fill-rule:nonzero;stroke:none"/><path d="m 21,7 -4,0 0,4 4,0 0,-4 z" id="path44" style="fill:#55acee;fill-opacity:1;fill-rule:nonzero;stroke:none"/><path d="m 27,7 -4,0 0,4 4,0 0,-4 z" id="path46" style="fill:#55acee;fill-opacity:1;fill-rule:nonzero;stroke:none"/><path d="m 27,13 -4,0 0,4 4,0 0,-4 z" id="path48" style="fill:#55acee;fill-opacity:1;fill-rule:nonzero;stroke:none"/><path d="m 27,19 -4,0 0,4 4,0 0,-4 z" id="path50" style="fill:#55acee;fill-opacity:1;fill-rule:nonzero;stroke:none"/><path d="m 27,25 -4,0 0,4 4,0 0,-4 z" id="path52" style="fill:#55acee;fill-opacity:1;fill-rule:nonzero;stroke:none"/><path d="m 21,13 -4,0 0,4 4,0 0,-4 z" id="path54" style="fill:#55acee;fill-opacity:1;fill-rule:nonzero;stroke:none"/><path d="m 21,19 -4,0 0,4 4,0 0,-4 z" id="path56" style="fill:#55acee;fill-opacity:1;fill-rule:nonzero;stroke:none"/><path d="m 21,25 -4,0 0,4 4,0 0,-4 z" id="path58" style="fill:#55acee;fill-opacity:1;fill-rule:nonzero;stroke:none"/><path d="m 7,19 -4,0 0,4 4,0 0,-4 z" id="path60" style="fill:#55acee;fill-opacity:1;fill-rule:nonzero;stroke:none"/><path d="m 7,13 -4,0 0,4 4,0 0,-4 z" id="path62" style="fill:#55acee;fill-opacity:1;fill-rule:nonzero;stroke:none"/><path d="M 7,7 3,7 3,11 7,11 7,7 z" id="path64" style="fill:#55acee;fill-opacity:1;fill-rule:nonzero;stroke:none"/><path d="m 35,7 -4,0 0,4 4,0 0,-4 z" id="path66" style="fill:#55acee;fill-opacity:1;fill-rule:nonzero;stroke:none"/><path d="m 35,13 -4,0 0,4 4,0 0,-4 z" id="path68" style="fill:#55acee;fill-opacity:1;fill-rule:nonzero;stroke:none"/><path d="m 35,19 -4,0 0,4 4,0 0,-4 z" id="path70" style="fill:#55acee;fill-opacity:1;fill-rule:nonzero;stroke:none"/></g></g></g></svg>
