<?xml version="1.0" encoding="UTF-8" standalone="no"?><svg xmlns:dc="http://purl.org/dc/elements/1.1/" xmlns:cc="http://creativecommons.org/ns#" xmlns:rdf="http://www.w3.org/1999/02/22-rdf-syntax-ns#" xmlns:svg="http://www.w3.org/2000/svg" xmlns="http://www.w3.org/2000/svg" viewBox="0 0 47.5 47.5" style="enable-background:new 0 0 47.5 47.5;" xml:space="preserve" version="1.1" id="svg2"><metadata id="metadata8"><rdf:RDF><cc:Work rdf:about=""><dc:format>image/svg+xml</dc:format><dc:type rdf:resource="http://purl.org/dc/dcmitype/StillImage"/></cc:Work></rdf:RDF></metadata><defs id="defs6"><clipPath id="clipPath16" clipPathUnits="userSpaceOnUse"><path id="path18" d="M 0,38 38,38 38,0 0,0 0,38 Z"/></clipPath></defs><g transform="matrix(1.25,0,0,-1.25,0,47.5)" id="g10"><g id="g12"><g clip-path="url(#clipPath16)" id="g14"><g transform="translate(6.9424,4)" id="g20"><path id="path22" style="fill:#ffcc4d;fill-opacity:1;fill-rule:nonzero;stroke:none" d="M 0,0 C -0.138,4.657 -0.507,8 -0.942,8 -1.377,8 -1.746,4.657 -1.884,0 L 0,0 Z"/></g><g transform="translate(17,16.5771)" id="g24"><path id="path26" style="fill:#a6d388;fill-opacity:1;fill-rule:nonzero;stroke:none" d="m 0,0 c 0,-5.045 -2.238,-6.577 -5,-6.577 -2.761,0 -5,1.532 -5,6.577 0,5.044 4,12.423 5,12.423 1,0 5,-7.379 5,-12.423"/></g><g transform="translate(11,17.2686)" id="g28"><path id="path30" style="fill:#77b255;fill-opacity:1;fill-rule:nonzero;stroke:none" d="m 0,0 c 0,-5.574 -2.238,-7.269 -5,-7.269 -2.761,0 -5,1.695 -5,7.269 0,5.577 4,13.731 5,13.731 1,0 5,-8.154 5,-13.731"/></g><g transform="translate(9,21)" id="g32"><path id="path34" style="fill:#ffe8b6;fill-opacity:1;fill-rule:nonzero;stroke:none" d="M 0,0 13,13 26,0 26,-16 0,-16 0,0 Z"/></g><path id="path36" style="fill:#ffffff;fill-opacity:1;fill-rule:nonzero;stroke:none" d="m 23,5 -1,0 0,16 1,0 0,-16 z"/><path id="path38" style="fill:#ffcc4d;fill-opacity:1;fill-rule:nonzero;stroke:none" d="M 10,5 9,5 9,21 10,21 10,5 Z"/><path id="path40" style="fill:#ffcc4d;fill-opacity:1;fill-rule:nonzero;stroke:none" d="m 34,5 1,0 0,16 -1,0 0,-16 z"/><g transform="translate(35,20)" id="g42"><path id="path44" style="fill:#66757f;fill-opacity:1;fill-rule:nonzero;stroke:none" d="M 0,0 C -0.256,0 -0.512,0.098 -0.707,0.293 L -13,12.586 -25.293,0.293 c -0.391,-0.391 -1.023,-0.391 -1.414,0 -0.391,0.391 -0.391,1.023 0,1.414 l 13,13 c 0.391,0.391 1.023,0.391 1.414,0 l 13,-13 C 1.098,1.316 1.098,0.684 0.707,0.293 0.512,0.098 0.256,0 0,0"/></g><g transform="translate(22,20)" id="g46"><path id="path48" style="fill:#66757f;fill-opacity:1;fill-rule:nonzero;stroke:none" d="m 0,0 c -0.256,0 -0.512,0.098 -0.707,0.293 -0.391,0.391 -0.391,1.023 0,1.414 l 6.5,6.5 c 0.391,0.391 1.023,0.391 1.414,0 0.391,-0.391 0.391,-1.023 0,-1.414 l -6.5,-6.5 C 0.512,0.098 0.256,0 0,0"/></g><path id="path50" style="fill:#c1694f;fill-opacity:1;fill-rule:nonzero;stroke:none" d="m 18,5 -4,0 0,6 4,0 0,-6 z"/><path id="path52" style="fill:#55acee;fill-opacity:1;fill-rule:nonzero;stroke:none" d="m 30,7 -3,0 0,4 3,0 0,-4 z"/><path id="path54" style="fill:#55acee;fill-opacity:1;fill-rule:nonzero;stroke:none" d="m 26,7 2,0 0,4 -2,0 0,-4 z"/><path id="path56" style="fill:#55acee;fill-opacity:1;fill-rule:nonzero;stroke:none" d="m 31,7 -2,0 0,4 2,0 0,-4 z"/><path id="path58" style="fill:#55acee;fill-opacity:1;fill-rule:nonzero;stroke:none" d="m 18,16 -4,0 0,4 4,0 0,-4 z"/><path id="path60" style="fill:#55acee;fill-opacity:1;fill-rule:nonzero;stroke:none" d="m 31,16 -5,0 0,4 5,0 0,-4 z"/><g transform="translate(37,3)" id="g62"><path id="path64" style="fill:#5c913b;fill-opacity:1;fill-rule:nonzero;stroke:none" d="m 0,0 c 0,-1.104 -0.896,-2 -2,-2 l -32,0 c -1.104,0 -2,0.896 -2,2 0,1.104 0.896,2 2,2 L -2,2 C -0.896,2 0,1.104 0,0"/></g><path id="path66" style="fill:#ffffff;fill-opacity:1;fill-rule:nonzero;stroke:none" d="m 18,1 -4,0 0,4 4,0 0,-4 z"/></g></g></g></svg>
