<svg xmlns="http://www.w3.org/2000/svg" viewBox="0 0 47.5 47.5" enable-background="new 0 0 47.5 47.5"><defs><clipPath id="a"><path d="M0 38h38V0H0v38z"/></clipPath></defs><g><g><g clip-path="url(#a)" transform="matrix(1.25 0 0 -1.25 0 47.5)"><g><path fill="#ffcc4d" d="M37 3c0-1.1-.9-2-2-2H3c-1.1 0-2 .9-2 2v19c0 1.1.9 2 2 2h32c1.1 0 2-.9 2-2V3z"/></g><g><path fill="#6d6e71" d="M35 24H3c-1.1 0-2-.9-2-2h36c0 1.1-.9 2-2 2"/></g><path fill="#3b88c3" d="M35 9H3v4h32V9z"/><path fill="#3b88c3" d="M35 15H3v4h32v-4z"/><path fill="#3b88c3" d="M35 3H3v4h32V3z"/><path fill="#ffcc4d" d="M31 2h-2v18h2V2z"/><g><path fill="#ffe8b6" d="M23 37H7c-1.1 0-2-.9-2-2V1h20v34c0 1.1-.9 2-2 2"/></g><g><path fill="#808285" d="M23 37H7c-1.1 0-2-.9-2-2h20c0 1.1-.9 2-2 2"/></g><path fill="#55acee" d="M23 15H7v4h16v-4z"/><path fill="#55acee" d="M23 9H7v4h16V9z"/><path fill="#55acee" d="M23 3H7v4h16V3z"/><path fill="#ffe8b6" d="M13 1h-2v29h2V1z"/><path fill="#ffe8b6" d="M19 1h-2v29h2V1z"/><path fill="#269" d="M17 1h-4v6h4V1z"/><g><path fill="#a7a9ac" d="M21 28c0-3.3-2.7-6-6-6s-6 2.7-6 6 2.7 6 6 6 6-2.7 6-6"/></g><g><path fill="#e6e7e8" d="M19 28c0-2.2-1.8-4-4-4s-4 1.8-4 4 1.8 4 4 4 4-1.8 4-4"/></g><g><path fill="#a0041e" d="M18 27h-3c-.55 0-1 .45-1 1v5c0 .55.45 1 1 1s1-.45 1-1v-4h2c.55 0 1-.45 1-1s-.45-1-1-1"/></g></g></g></g></svg>