<?xml version="1.0" encoding="UTF-8" standalone="no"?>
<!-- Created with Inkscape (http://www.inkscape.org/) -->

<svg
   xmlns:svg="http://www.w3.org/2000/svg"
   xmlns="http://www.w3.org/2000/svg"
   version="1.1"
   width="47.5"
   height="47.5"
   id="svg2"
   xml:space="preserve"><defs
     id="defs6"><clipPath
       id="clipPath18"><path
         d="M 0,38 38,38 38,0 0,0 0,38 z"
         id="path20" /></clipPath></defs><g
     transform="matrix(1.25,0,0,-1.25,0,47.5)"
     id="g12"><g
       id="g14"><g
         clip-path="url(#clipPath18)"
         id="g16"><g
           transform="translate(15,3)"
           id="g22"><path
             d="m 0,0 c 0,-1.104 0.896,-2 2,-2 l 18,0 c 1.104,0 2,0.896 2,2 l 0,20 c 0,1.104 -0.896,2 -2,2 L 2,22 C 0.896,22 0,21.104 0,20 L 0,0 z"
             id="path24"
             style="fill:#ffcc4d;fill-opacity:1;fill-rule:nonzero;stroke:none" /></g><g
           transform="translate(35,25)"
           id="g26"><path
             d="m 0,0 -14,0 0,-2 16,0 C 2,-0.896 1.104,0 0,0"
             id="path28"
             style="fill:#bcbec0;fill-opacity:1;fill-rule:nonzero;stroke:none" /></g><path
           d="M 21,1 35,1 35,21 21,21 21,1 z"
           id="path30"
           style="fill:#55acee;fill-opacity:1;fill-rule:nonzero;stroke:none" /><g
           transform="translate(19,37)"
           id="g32"><path
             d="m 0,0 -16,0 c -1.104,0 -2,-0.896 -2,-2 l 0,-32 c 0,-1.104 0.896,-2 2,-2 l 18,0 0,34 C 2,-0.896 1.104,0 0,0"
             id="path34"
             style="fill:#ffe8b6;fill-opacity:1;fill-rule:nonzero;stroke:none" /></g><g
           transform="translate(19,37)"
           id="g36"><path
             d="m 0,0 -16,0 c -1.104,0 -2,-0.896 -2,-2 L 2,-2 C 2,-0.896 1.104,0 0,0"
             id="path38"
             style="fill:#bcbec0;fill-opacity:1;fill-rule:nonzero;stroke:none" /></g><path
           d="m 3,11 16,0 0,4 -16,0 0,-4 z"
           id="path40"
           style="fill:#55acee;fill-opacity:1;fill-rule:nonzero;stroke:none" /><path
           d="m 3,17 16,0 0,4 -16,0 0,-4 z"
           id="path42"
           style="fill:#55acee;fill-opacity:1;fill-rule:nonzero;stroke:none" /><path
           d="m 3,23 16,0 0,4 -16,0 0,-4 z"
           id="path44"
           style="fill:#55acee;fill-opacity:1;fill-rule:nonzero;stroke:none" /><path
           d="m 3,29 16,0 0,4 -16,0 0,-4 z"
           id="path46"
           style="fill:#55acee;fill-opacity:1;fill-rule:nonzero;stroke:none" /><path
           d="M 3,1 19,1 19,9 3,9 3,1 z"
           id="path48"
           style="fill:#55acee;fill-opacity:1;fill-rule:nonzero;stroke:none" /><path
           d="M 7,1 15,1 15,5 7,5 7,1 z"
           id="path50"
           style="fill:#3b88c3;fill-opacity:1;fill-rule:nonzero;stroke:none" /><path
           d="m 24,1 8,0 0,4 -8,0 0,-4 z"
           id="path52"
           style="fill:#3b88c3;fill-opacity:1;fill-rule:nonzero;stroke:none" /><path
           d="m 36,9 -15,0 0,2 15,0 0,-2 z"
           id="path54"
           style="fill:#ffcc4d;fill-opacity:1;fill-rule:nonzero;stroke:none" /><path
           d="m 36,15 -15,0 0,2 15,0 0,-2 z"
           id="path56"
           style="fill:#ffcc4d;fill-opacity:1;fill-rule:nonzero;stroke:none" /><g
           transform="translate(37,30)"
           id="g58"><path
             d="m 0,0 c 0,-1.104 -0.896,-2 -2,-2 l -10,0 c -1.104,0 -2,0.896 -2,2 l 0,2 c 0,1.104 0.896,2 2,2 L -2,4 C -0.896,4 0,3.104 0,2 L 0,0 z"
             id="path60"
             style="fill:#dd2e44;fill-opacity:1;fill-rule:nonzero;stroke:none" /></g><path
           d="m 29,25 -2,0 0,3 2,0 0,-3 z"
           id="path62"
           style="fill:#58595b;fill-opacity:1;fill-rule:nonzero;stroke:none" /><path
           d="m 33,25 -2,0 0,3 2,0 0,-3 z"
           id="path64"
           style="fill:#58595b;fill-opacity:1;fill-rule:nonzero;stroke:none" /><path
           d="m 27,30 -2,0 0,2 2,0 0,-2 z"
           id="path66"
           style="fill:#f4abba;fill-opacity:1;fill-rule:nonzero;stroke:none" /><path
           d="m 29,30 -2,0 0,2 2,0 0,-2 z"
           id="path68"
           style="fill:#ffffff;fill-opacity:1;fill-rule:nonzero;stroke:none" /><path
           d="m 31,30 -2,0 0,2 2,0 0,-2 z"
           id="path70"
           style="fill:#f4abba;fill-opacity:1;fill-rule:nonzero;stroke:none" /><path
           d="m 33,30 -2,0 0,2 2,0 0,-2 z"
           id="path72"
           style="fill:#ffffff;fill-opacity:1;fill-rule:nonzero;stroke:none" /><path
           d="m 35,30 -2,0 0,2 2,0 0,-2 z"
           id="path74"
           style="fill:#f4abba;fill-opacity:1;fill-rule:nonzero;stroke:none" /></g></g></g></svg>