<?xml version="1.0" encoding="UTF-8" standalone="no"?><svg xmlns:svg="http://www.w3.org/2000/svg" xmlns="http://www.w3.org/2000/svg" version="1.1" viewBox="0 0 47.5 47.5" style="enable-background:new 0 0 47.5 47.5;" id="svg2" xml:space="preserve"><defs id="defs6"><clipPath id="clipPath66"><path d="M 0,38 38,38 38,0 0,0 0,38 z" id="path68"/></clipPath></defs><g transform="matrix(1.25,0,0,-1.25,0,47.5)" id="g12"><g transform="translate(12,19)" id="g14"><path d="m 0,0 -6,0 1,13 4,0 1,-13 z" id="path16" style="fill:#be1931;fill-opacity:1;fill-rule:nonzero;stroke:none"/></g><g transform="translate(22,19)" id="g18"><path d="m 0,0 -6,0 1,13 4,0 1,-13 z" id="path20" style="fill:#be1931;fill-opacity:1;fill-rule:nonzero;stroke:none"/></g><g transform="translate(32,19)" id="g22"><path d="m 0,0 -6,0 1,13 4,0 1,-13 z" id="path24" style="fill:#be1931;fill-opacity:1;fill-rule:nonzero;stroke:none"/></g><g transform="translate(6.5386,26)" id="g26"><path d="M 0,0 -0.154,-2 5.077,-2 4.923,0 0,0 z" id="path28" style="fill:#e6e7e8;fill-opacity:1;fill-rule:nonzero;stroke:none"/></g><g transform="translate(6.8462,30)" id="g30"><path d="M 0,0 -0.154,-2 4.461,-2 4.308,0 0,0 z" id="path32" style="fill:#e6e7e8;fill-opacity:1;fill-rule:nonzero;stroke:none"/></g><g transform="translate(11.9229,20)" id="g34"><path d="M 0,0 -0.154,2 -5.692,2 -5.846,0 0,0 z" id="path36" style="fill:#e6e7e8;fill-opacity:1;fill-rule:nonzero;stroke:none"/></g><g transform="translate(16.5386,26)" id="g38"><path d="M 0,0 -0.154,-2 5.077,-2 4.923,0 0,0 z" id="path40" style="fill:#e6e7e8;fill-opacity:1;fill-rule:nonzero;stroke:none"/></g><g transform="translate(16.8462,30)" id="g42"><path d="M 0,0 -0.154,-2 4.461,-2 4.308,0 0,0 z" id="path44" style="fill:#e6e7e8;fill-opacity:1;fill-rule:nonzero;stroke:none"/></g><g transform="translate(21.9229,20)" id="g46"><path d="M 0,0 -0.153,2 -5.692,2 -5.846,0 0,0 z" id="path48" style="fill:#e6e7e8;fill-opacity:1;fill-rule:nonzero;stroke:none"/></g><g transform="translate(26.5381,26)" id="g50"><path d="M 0,0 -0.153,-2 5.077,-2 4.924,0 0,0 z" id="path52" style="fill:#e6e7e8;fill-opacity:1;fill-rule:nonzero;stroke:none"/></g><g transform="translate(31.9229,20)" id="g54"><path d="M 0,0 -0.153,2 -5.692,2 -5.846,0 0,0 z" id="path56" style="fill:#e6e7e8;fill-opacity:1;fill-rule:nonzero;stroke:none"/></g><g transform="translate(26.8457,30)" id="g58"><path d="M 0,0 -0.153,-2 4.462,-2 4.309,0 0,0 z" id="path60" style="fill:#e6e7e8;fill-opacity:1;fill-rule:nonzero;stroke:none"/></g><g id="g62"><g clip-path="url(#clipPath66)" id="g64"><g transform="translate(36,3)" id="g70"><path d="m 0,0 c 0,-1.104 -0.896,-2 -2,-2 l -30,0 c -1.104,0 -2,0.896 -2,2 l 0,14 c 0,1.104 0.896,2 2,2 l 30,0 c 1.104,0 2,-0.896 2,-2 L 0,0 z" id="path72" style="fill:#a0041e;fill-opacity:1;fill-rule:nonzero;stroke:none"/></g><path d="m 36,15 -34,0 0,2 34,0 0,-2 z" id="path74" style="fill:#c1694f;fill-opacity:1;fill-rule:nonzero;stroke:none"/><path d="m 11,9 -4,0 0,4 4,0 0,-4 z" id="path76" style="fill:#a7a9ac;fill-opacity:1;fill-rule:nonzero;stroke:none"/><path d="m 21,9 -4,0 0,4 4,0 0,-4 z" id="path78" style="fill:#a7a9ac;fill-opacity:1;fill-rule:nonzero;stroke:none"/><path d="m 31,9 -4,0 0,4 4,0 0,-4 z" id="path80" style="fill:#a7a9ac;fill-opacity:1;fill-rule:nonzero;stroke:none"/><path d="M 11,3 7,3 7,7 11,7 11,3 z" id="path82" style="fill:#a7a9ac;fill-opacity:1;fill-rule:nonzero;stroke:none"/><path d="m 21,3 -4,0 0,4 4,0 0,-4 z" id="path84" style="fill:#a7a9ac;fill-opacity:1;fill-rule:nonzero;stroke:none"/><path d="m 31,3 -4,0 0,4 4,0 0,-4 z" id="path86" style="fill:#a7a9ac;fill-opacity:1;fill-rule:nonzero;stroke:none"/><g transform="translate(10,37)" id="g88"><path d="m 0,0 c -1.104,0 -2,-0.896 -2,-2 0,-0.457 0.159,-0.873 0.417,-1.209 C -1.83,-3.392 -2,-3.67 -2,-4 c 0,-0.552 0.448,-1 1,-1 0.552,0 1,0.448 1,1 1.104,0 2,0.896 2,2 0,1.104 -0.896,2 -2,2" id="path90" style="fill:#d1d3d4;fill-opacity:1;fill-rule:nonzero;stroke:none"/></g><g transform="translate(20,37)" id="g92"><path d="m 0,0 c -1.104,0 -2,-0.896 -2,-2 0,-0.457 0.159,-0.873 0.417,-1.209 C -1.83,-3.392 -2,-3.67 -2,-4 c 0,-0.552 0.448,-1 1,-1 0.552,0 1,0.448 1,1 1.104,0 2,0.896 2,2 0,1.104 -0.896,2 -2,2" id="path94" style="fill:#d1d3d4;fill-opacity:1;fill-rule:nonzero;stroke:none"/></g><g transform="translate(30,37)" id="g96"><path d="m 0,0 c -1.104,0 -2,-0.896 -2,-2 0,-0.457 0.159,-0.873 0.417,-1.209 C -1.83,-3.392 -2,-3.67 -2,-4 c 0,-0.552 0.447,-1 1,-1 0.553,0 1,0.448 1,1 1.104,0 2,0.896 2,2 0,1.104 -0.896,2 -2,2" id="path98" style="fill:#d1d3d4;fill-opacity:1;fill-rule:nonzero;stroke:none"/></g></g></g></g></svg>
