<svg xmlns="http://www.w3.org/2000/svg" viewBox="0 0 47.5 47.5" enable-background="new 0 0 47.5 47.5"><defs><clipPath id="a"><path d="M0 38h38V0H0v38z"/></clipPath></defs><g><g><g clip-path="url(#a)" transform="matrix(1.25 0 0 -1.25 0 47.5)"><g><path fill="#bcbec0" d="M1 19V3c0-1.1.9-2 2-2h32c1.1 0 2 .9 2 2v16H1z"/></g><g><path fill="#66757f" d="M1 19l18 6.35L37 19H1z"/></g><path fill="#55acee" d="M35 13H3v4h32v-4z"/><path fill="#55acee" d="M35 7H3v4h32V7z"/><path fill="#bcbec0" d="M31 2H7v16h24V2z"/><path fill="#d1d3d4" d="M29 1H9v31h20V1z"/><path fill="#55acee" d="M27 13H11v4h16v-4z"/><path fill="#55acee" d="M27 7H11v4h16V7z"/><path fill="#d1d3d4" d="M17 6h-2v18h2V6z"/><path fill="#d1d3d4" d="M23 6h-2v18h2V6z"/><path fill="#3b88c3" d="M21 1h-4v4h4V1z"/><path fill="#dd2e44" d="M24 28H14v2h10v-2z"/><g><path fill="#dd2e44" d="M14 26v-2h4v-4h2v4h4v2H14z"/></g><g><path fill="#66757f" d="M9 32l10 5 10-5H9z"/></g></g></g></g></svg>