<?xml version="1.0" encoding="UTF-8" standalone="no"?><svg xmlns:dc="http://purl.org/dc/elements/1.1/" xmlns:cc="http://creativecommons.org/ns#" xmlns:rdf="http://www.w3.org/1999/02/22-rdf-syntax-ns#" xmlns:svg="http://www.w3.org/2000/svg" xmlns="http://www.w3.org/2000/svg" viewBox="0 0 47.5 47.5" style="enable-background:new 0 0 47.5 47.5;" xml:space="preserve" version="1.1" id="svg2"><metadata id="metadata8"><rdf:RDF><cc:Work rdf:about=""><dc:format>image/svg+xml</dc:format><dc:type rdf:resource="http://purl.org/dc/dcmitype/StillImage"/></cc:Work></rdf:RDF></metadata><defs id="defs6"><clipPath id="clipPath18" clipPathUnits="userSpaceOnUse"><path id="path20" d="M 0,38 38,38 38,0 0,0 0,38 Z"/></clipPath></defs><g transform="matrix(1.25,0,0,-1.25,0,47.5)" id="g10"><path id="path12" style="fill:#edbb9f;fill-opacity:1;fill-rule:nonzero;stroke:none" d="m 26,12 -14,0 0,15 14,0 0,-15 z"/><g id="g14"><g clip-path="url(#clipPath18)" id="g16"><g transform="translate(2,19)" id="g22"><path id="path24" style="fill:#be1931;fill-opacity:1;fill-rule:nonzero;stroke:none" d="m 0,0 0,-16 c 0,-1.104 0.896,-2 2,-2 l 30,0 c 1.104,0 2,0.896 2,2 L 34,0 0,0 Z"/></g><path id="path26" style="fill:#ffe8b6;fill-opacity:1;fill-rule:nonzero;stroke:none" d="m 36,20 -34,0 0,3 34,0 0,-3 z"/><path id="path28" style="fill:#c1694f;fill-opacity:1;fill-rule:nonzero;stroke:none" d="m 36,19 -34,0 0,2 34,0 0,-2 z"/><g transform="translate(19,10)" id="g30"><path id="path32" style="fill:#d1d3d4;fill-opacity:1;fill-rule:nonzero;stroke:none" d="m 0,0 c -1.657,0 -3,-1.343 -3,-3 l 0,-6 6,0 0,6 C 3,-1.343 1.657,0 0,0"/></g><g transform="translate(29,10)" id="g34"><path id="path36" style="fill:#a7a9ac;fill-opacity:1;fill-rule:nonzero;stroke:none" d="m 0,0 c -1.656,0 -3,-1.343 -3,-3 l 0,-4 6,0 0,4 C 3,-1.343 1.657,0 0,0"/></g><g transform="translate(9,10)" id="g38"><path id="path40" style="fill:#a7a9ac;fill-opacity:1;fill-rule:nonzero;stroke:none" d="m 0,0 c -1.657,0 -3,-1.343 -3,-3 l 0,-4 6,0 0,4 C 3,-1.343 1.657,0 0,0"/></g><path id="path42" style="fill:#a7a9ac;fill-opacity:1;fill-rule:nonzero;stroke:none" d="m 11,13 -4,0 0,4 4,0 0,-4 z"/><path id="path44" style="fill:#a7a9ac;fill-opacity:1;fill-rule:nonzero;stroke:none" d="m 21,13 -4,0 0,4 4,0 0,-4 z"/><path id="path46" style="fill:#a7a9ac;fill-opacity:1;fill-rule:nonzero;stroke:none" d="m 31,13 -4,0 0,4 4,0 0,-4 z"/><g transform="translate(23,33)" id="g48"><path id="path50" style="fill:#d99e82;fill-opacity:1;fill-rule:nonzero;stroke:none" d="m 0,0 c 0,-2.209 -1.792,-4 -4,-4 -2.209,0 -4,1.791 -4,4 0,2.209 1.791,4 4,4 2.208,0 4,-1.791 4,-4"/></g><path id="path52" style="fill:#edbb9f;fill-opacity:1;fill-rule:nonzero;stroke:none" d="m 23,29 -8,0 0,4 8,0 0,-4 z"/><g transform="translate(34,25)" id="g54"><path id="path56" style="fill:#d99e82;fill-opacity:1;fill-rule:nonzero;stroke:none" d="m 0,0 -30,0 c -1.104,0 -2,-0.896 -2,-2 L 2,-2 C 2,-0.896 1.104,0 0,0"/></g><g transform="translate(24,29)" id="g58"><path id="path60" style="fill:#d99e82;fill-opacity:1;fill-rule:nonzero;stroke:none" d="m 0,0 -10,0 c -1.104,0 -2,-0.896 -2,-2 L 2,-2 C 2,-0.896 1.104,0 0,0"/></g></g></g></g></svg>
