<svg xmlns="http://www.w3.org/2000/svg" viewBox="0 0 47.5 47.5" enable-background="new 0 0 47.5 47.5"><defs><clipPath id="a"><path d="M0 38h38V0H0v38z"/></clipPath></defs><g><g><g clip-path="url(#a)" transform="matrix(1.25 0 0 -1.25 0 47.5)"><g><path fill="#be1931" d="M22 22c0-2.2-1.8-4-4-4H5c-2.2 0-4 1.8-4 4v3c0 2.2 1.8 4 4 4h13c2.2 0 4-1.8 4-4v-3z"/></g><g><path fill="#be1931" d="M37 31c0-2.2-1.8-4-4-4H21c-2.2 0-4 1.8-4 4v1c0 2.2 1.8 4 4 4h12c2.2 0 4-1.8 4-4v-1z"/></g><g><path fill="#f4abba" d="M1 25V3c0-1.1.9-2 2-2h31v24H1z"/></g><path fill="#3b88c3" d="M15 1H3v4h12V1z"/><path fill="#3b88c3" d="M19 7H3v4h16V7z"/><g><path fill="#ffd4de" d="M17 32V1h18c1.1 0 2 .9 2 2v29H17z"/></g><path fill="#55acee" d="M35 13H19v4h16v-4z"/><path fill="#55acee" d="M35 19H19v4h16v-4z"/><path fill="#55acee" d="M35 25H19v4h16v-4z"/><path fill="#55acee" d="M35 7H19v4h16V7z"/><path fill="#ffd4de" d="M25 6h-2v24h2V6z"/><path fill="#ffd4de" d="M31 6h-2v24h2V6z"/><path fill="#3b88c3" d="M31 1h-8v4h8V1z"/><g><path fill="#dd2e44" d="M11 23v-4H7v4H5V13h2v4h4v-4h2v10h-2z"/></g><path fill="#f4abba" d="M10 6H8v6h2V6z"/><path fill="#f4abba" d="M17 6h-2v6h2V6z"/><g><path fill="#ea596e" d="M4 34c0 2.76 3.96 4 5 0 1.12 4 5 2.76 5 0 0-3-5-6-5-6s-5 3-5 6"/></g></g></g></g></svg>