<svg xmlns="http://www.w3.org/2000/svg" viewBox="0 0 47.5 47.5" enable-background="new 0 0 47.5 47.5"><defs><clipPath id="a"><path d="M0 38h38V0H0v38z"/></clipPath></defs><g><g><g clip-path="url(#a)" transform="matrix(1.25 0 0 -1.25 0 47.5)"><g><path fill="#ffcc4d" d="M6.94 4c-.14 4.66-.5 8-.94 8-.43 0-.8-3.34-.94-8h1.88z"/></g><g><path fill="#a6d388" d="M17 16.58c0-5.05-2.24-6.58-5-6.58s-5 1.53-5 6.58C7 21.62 11 29 12 29s5-7.38 5-12.42"/></g><g><path fill="#77b255" d="M11 17.27C11 11.7 8.76 10 6 10s-5 1.7-5 7.27C1 22.85 5 31 6 31s5-8.15 5-13.73"/></g><g><path fill="#ffe8b6" d="M9 21l13 13 13-13V5H9v16z"/></g><path fill="#fff" d="M23 5h-1v16h1V5z"/><path fill="#ffcc4d" d="M10 5H9v16h1V5z"/><path fill="#ffcc4d" d="M34 5h1v16h-1V5z"/><g><path fill="#66757f" d="M35 20c-.26 0-.5.1-.7.3L22 32.6 9.7 20.3c-.38-.4-1.02-.4-1.4 0-.4.38-.4 1.02 0 1.4l13 13c.38.4 1.02.4 1.4 0l13-13c.4-.38.4-1.02 0-1.4-.2-.2-.44-.3-.7-.3"/></g><g><path fill="#66757f" d="M22 20c-.26 0-.5.1-.7.3-.4.38-.4 1.02 0 1.4l6.5 6.5c.38.4 1.02.4 1.4 0 .4-.38.4-1.02 0-1.4l-6.5-6.5c-.2-.2-.44-.3-.7-.3"/></g><path fill="#c1694f" d="M18 5h-4v6h4V5z"/><path fill="#55acee" d="M30 7h-3v4h3V7z"/><path fill="#55acee" d="M26 7h2v4h-2V7z"/><path fill="#55acee" d="M31 7h-2v4h2V7z"/><path fill="#55acee" d="M18 16h-4v4h4v-4z"/><path fill="#55acee" d="M31 16h-5v4h5v-4z"/><g><path fill="#5c913b" d="M37 3c0-1.1-.9-2-2-2H3c-1.1 0-2 .9-2 2s.9 2 2 2h32c1.1 0 2-.9 2-2"/></g><path fill="#fff" d="M18 1h-4v4h4V1z"/></g></g></g></svg>