<?xml version="1.0" encoding="UTF-8" standalone="no"?><svg xmlns:dc="http://purl.org/dc/elements/1.1/" xmlns:cc="http://creativecommons.org/ns#" xmlns:rdf="http://www.w3.org/1999/02/22-rdf-syntax-ns#" xmlns:svg="http://www.w3.org/2000/svg" xmlns="http://www.w3.org/2000/svg" viewBox="0 0 47.5 47.5" style="enable-background:new 0 0 47.5 47.5;" xml:space="preserve" version="1.1" id="svg2"><metadata id="metadata8"><rdf:RDF><cc:Work rdf:about=""><dc:format>image/svg+xml</dc:format><dc:type rdf:resource="http://purl.org/dc/dcmitype/StillImage"/></cc:Work></rdf:RDF></metadata><defs id="defs6"/><g transform="matrix(1.25,0,0,-1.25,0,47.5)" id="g10"><path id="path12" style="fill:#d1d3d4;fill-opacity:1;fill-rule:nonzero;stroke:none" d="M 32,14 6,14 6,7 32,7 32,14 Z"/><g transform="translate(1,1)" id="g14"><path id="path16" style="fill:#d99e82;fill-opacity:1;fill-rule:nonzero;stroke:none" d="M 0,0 36,0 32,7 4,7 0,0 Z"/></g><g transform="translate(31,17)" id="g18"><path id="path20" style="fill:#66757f;fill-opacity:1;fill-rule:nonzero;stroke:none" d="M 0,0 -24,0 -29,-4 5,-4 0,0 Z"/></g><g transform="translate(31,23)" id="g22"><path id="path24" style="fill:#66757f;fill-opacity:1;fill-rule:nonzero;stroke:none" d="M 0,0 -24,0 -28,-3 4,-3 0,0 Z"/></g><path id="path26" style="fill:#d1d3d4;fill-opacity:1;fill-rule:nonzero;stroke:none" d="m 31,20 -24,0 0,-3 24,0 0,3 z"/><g transform="translate(30,28)" id="g28"><path id="path30" style="fill:#66757f;fill-opacity:1;fill-rule:nonzero;stroke:none" d="M 0,0 -22,0 -23,-5 1,-5 0,0 Z"/></g><g transform="translate(25,28)" id="g32"><path id="path34" style="fill:#d1d3d4;fill-opacity:1;fill-rule:nonzero;stroke:none" d="m 0,0 0,4 -12,0 0,-4 -2,0 0,-2 16,0 0,2 -2,0 z"/></g><g transform="translate(13,35)" id="g36"><path id="path38" style="fill:#66757f;fill-opacity:1;fill-rule:nonzero;stroke:none" d="m 0,0 12,0 0,-2 2,-2 -16,0 2,2 0,2 z"/></g><g transform="translate(24,37)" id="g40"><path id="path42" style="fill:#99aab5;fill-opacity:1;fill-rule:nonzero;stroke:none" d="m 0,0 0,-1 -10,0 0,1 -1,0 0,-1 0,-1 1,0 10,0 1,0 0,1 0,1 -1,0 z"/></g><g transform="translate(8.7642,22)" id="g44"><path id="path46" style="fill:#d1d3d4;fill-opacity:1;fill-rule:nonzero;stroke:none" d="M 0,0 10.236,5.118 20.472,0 0,0 Z"/></g><g transform="translate(13,23)" id="g48"><path id="path50" style="fill:#66757f;fill-opacity:1;fill-rule:nonzero;stroke:none" d="M 0,0 6,3 12,0 0,0 Z m 18,-0.764 -5.105,2.553 -6,3 L 6,5.236 5.105,4.789 l -6,-3 L -6,-0.764 -6,-2 l 6,0 12,0 6,0 0,1.236 z"/></g><path id="path52" style="fill:#6d6e71;fill-opacity:1;fill-rule:nonzero;stroke:none" d="M 32,8 6,8 6,10 32,10 32,8 Z"/></g></svg>
