<?xml version="1.0" encoding="UTF-8" standalone="no"?><svg xmlns:svg="http://www.w3.org/2000/svg" xmlns="http://www.w3.org/2000/svg" version="1.1" viewBox="0 0 47.5 47.5" style="enable-background:new 0 0 47.5 47.5;" id="svg2" xml:space="preserve"><defs id="defs6"><clipPath id="clipPath22"><path d="M 0,38 38,38 38,0 0,0 0,38 z" id="path24"/></clipPath></defs><g transform="matrix(1.25,0,0,-1.25,0,47.5)" id="g12"><path d="M 33,1 5,1 5,20 33,20 33,1 z" id="path14" style="fill:#d1d3d4;fill-opacity:1;fill-rule:nonzero;stroke:none"/><path d="m 30,19 -23,0 0,5 23,0 0,-5 z" id="path16" style="fill:#226699;fill-opacity:1;fill-rule:nonzero;stroke:none"/><g id="g18"><g clip-path="url(#clipPath22)" id="g20"><g transform="translate(2,25)" id="g26"><path d="m 0,0 0,-22 c 0,-1.104 0.896,-2 2,-2 l 4,0 0,24 -6,0 z" id="path28" style="fill:#a7a9ac;fill-opacity:1;fill-rule:nonzero;stroke:none"/></g><g transform="translate(30,25)" id="g30"><path d="m 0,0 0,-24 4,0 c 1.104,0 2,0.896 2,2 L 6,0 0,0 z" id="path32" style="fill:#a7a9ac;fill-opacity:1;fill-rule:nonzero;stroke:none"/></g><path d="m 23,4 -8,0 0,11 8,0 0,-11 z" id="path34" style="fill:#f1f2f2;fill-opacity:1;fill-rule:nonzero;stroke:none"/><g transform="translate(23,18)" id="g36"><path d="m 0,0 c -0.295,0 -0.558,-0.391 -0.74,-1 l -6.52,0 c -0.182,0.609 -0.445,1 -0.74,1 -0.552,0 -1,-1.344 -1,-3 0,-1.657 0.448,-3 1,-3 0.552,0 1,1.343 1,3 l 6,0 c 0,-1.657 0.447,-3 1,-3 0.553,0 1,1.343 1,3 0,1.656 -0.447,3 -1,3" id="path38" style="fill:#226699;fill-opacity:1;fill-rule:nonzero;stroke:none"/></g><path d="m 6,18 -2,0 0,2 2,0 0,-2 z" id="path40" style="fill:#58595b;fill-opacity:1;fill-rule:nonzero;stroke:none"/><path d="m 12,15 -2,0 0,2 2,0 0,-2 z" id="path42" style="fill:#58595b;fill-opacity:1;fill-rule:nonzero;stroke:none"/><path d="m 28,15 -2,0 0,2 2,0 0,-2 z" id="path44" style="fill:#58595b;fill-opacity:1;fill-rule:nonzero;stroke:none"/><path d="m 12,11 -2,0 0,2 2,0 0,-2 z" id="path46" style="fill:#58595b;fill-opacity:1;fill-rule:nonzero;stroke:none"/><path d="m 28,11 -2,0 0,2 2,0 0,-2 z" id="path48" style="fill:#58595b;fill-opacity:1;fill-rule:nonzero;stroke:none"/><path d="m 6,14 -2,0 0,2 2,0 0,-2 z" id="path50" style="fill:#58595b;fill-opacity:1;fill-rule:nonzero;stroke:none"/><path d="m 34,18 -2,0 0,2 2,0 0,-2 z" id="path52" style="fill:#58595b;fill-opacity:1;fill-rule:nonzero;stroke:none"/><path d="m 34,14 -2,0 0,2 2,0 0,-2 z" id="path54" style="fill:#58595b;fill-opacity:1;fill-rule:nonzero;stroke:none"/><path d="m 24,11 -10,0 0,4 10,0 0,-4 z" id="path56" style="fill:#ffffff;fill-opacity:1;fill-rule:nonzero;stroke:none"/><g transform="translate(19,11)" id="g58"><path d="m 0,0 c -1.104,0 -2,-0.896 -2,-2 l 0,-5 4,0 0,5 C 2,-0.896 1.104,0 0,0" id="path60" style="fill:#58595b;fill-opacity:1;fill-rule:nonzero;stroke:none"/></g><path d="M 25,1 13,1 13,4 25,4 25,1 z" id="path62" style="fill:#939598;fill-opacity:1;fill-rule:nonzero;stroke:none"/><g transform="translate(2,25)" id="g64"><path d="M 0,0 6,0 C 6,0 4,8 3,8 2,8 0,0 0,0" id="path66" style="fill:#226699;fill-opacity:1;fill-rule:nonzero;stroke:none"/></g><g transform="translate(30,25)" id="g68"><path d="M 0,0 6,0 C 6,0 4,8 3,8 2,8 0,0 0,0" id="path70" style="fill:#226699;fill-opacity:1;fill-rule:nonzero;stroke:none"/></g><g transform="translate(9,23)" id="g72"><path d="m 0,0 c 0,-0.552 -0.448,-1 -1,-1 l -6,0 c -0.552,0 -1,0.448 -1,1 0,0.552 0.448,1 1,1 l 6,0 C -0.448,1 0,0.552 0,0" id="path74" style="fill:#d1d3d4;fill-opacity:1;fill-rule:nonzero;stroke:none"/></g><g transform="translate(37,23)" id="g76"><path d="m 0,0 c 0,-0.552 -0.447,-1 -1,-1 l -6,0 c -0.553,0 -1,0.448 -1,1 0,0.552 0.447,1 1,1 l 6,0 C -0.447,1 0,0.552 0,0" id="path78" style="fill:#d1d3d4;fill-opacity:1;fill-rule:nonzero;stroke:none"/></g></g></g></g></svg>
