<svg xmlns="http://www.w3.org/2000/svg" viewBox="0 0 47.5 47.5" enable-background="new 0 0 47.5 47.5"><defs><clipPath id="a"><path d="M0 38h38V0H0v38z"/></clipPath></defs><g><path fill="#d1d3d4" d="M41.25 46.25h-35V22.5h35v23.75z"/><path fill="#269" d="M37.5 23.75H8.75V17.5H37.5v6.25z"/><g><g clip-path="url(#a)" transform="matrix(1.25 0 0 -1.25 0 47.5)"><g><path fill="#a7a9ac" d="M2 25V3c0-1.1.9-2 2-2h4v24H2z"/></g><g><path fill="#a7a9ac" d="M30 25V1h4c1.1 0 2 .9 2 2v22h-6z"/></g><path fill="#f1f2f2" d="M23 4h-8v11h8V4z"/><g><path fill="#269" d="M23 18c-.3 0-.56-.4-.74-1h-6.52c-.18.6-.44 1-.74 1-.55 0-1-1.34-1-3s.45-3 1-3 1 1.34 1 3h6c0-1.66.45-3 1-3s1 1.34 1 3-.45 3-1 3"/></g><path fill="#58595b" d="M6 18H4v2h2v-2z"/><path fill="#58595b" d="M12 15h-2v2h2v-2z"/><path fill="#58595b" d="M28 15h-2v2h2v-2z"/><path fill="#58595b" d="M12 11h-2v2h2v-2z"/><path fill="#58595b" d="M28 11h-2v2h2v-2z"/><path fill="#58595b" d="M6 14H4v2h2v-2z"/><path fill="#58595b" d="M34 18h-2v2h2v-2z"/><path fill="#58595b" d="M34 14h-2v2h2v-2z"/><path fill="#fff" d="M24 11H14v4h10v-4z"/><g><path fill="#58595b" d="M19 11c-1.1 0-2-.9-2-2V4h4v5c0 1.1-.9 2-2 2"/></g><path fill="#939598" d="M25 1H13v3h12V1z"/><g><path fill="#269" d="M2 25h6s-2 8-3 8-3-8-3-8"/></g><g><path fill="#269" d="M30 25h6s-2 8-3 8-3-8-3-8"/></g><g><path fill="#d1d3d4" d="M9 23c0-.55-.45-1-1-1H2c-.55 0-1 .45-1 1s.45 1 1 1h6c.55 0 1-.45 1-1"/></g><g><path fill="#d1d3d4" d="M37 23c0-.55-.45-1-1-1h-6c-.55 0-1 .45-1 1s.45 1 1 1h6c.55 0 1-.45 1-1"/></g></g></g></g></svg>