<svg xmlns="http://www.w3.org/2000/svg" viewBox="0 0 47.5 47.5" enable-background="new 0 0 47.5 47.5"><defs><clipPath id="a"><path d="M0 38h38V0H0v38z"/></clipPath></defs><g><g><g clip-path="url(#a)" transform="matrix(1.25 0 0 -1.25 0 47.5)"><g><path fill="#ea596e" d="M31 1H18c-.55 0-1 .45-1 1s.45 1 1 1h13c2.54 0 4 1.37 4 3.75C35 8.3 33.36 10 31 10h-7c-.55 0-1 .45-1 1s.45 1 1 1h7c3.6 0 6-2.7 6-5.25C37 3.25 34.65 1 31 1"/></g><g><path fill="#ccd6dd" d="M13 10.28c0 2.85 3 7.04 0 7.04-4 0-10.14-6.57-10.14-8.44C2.86 7 9.3 7 12.16 7c2.84 0 .84.43.84 3.28"/></g><g><path fill="#ccd6dd" d="M34 13.1c0 7.97-6.55 9.75-11.38 8.78C13.24 20 11.5 15.44 11.5 11.68 11.5 6.8 20.63 7 25.55 7S34 8.17 34 13.1"/></g><g><path fill="#ccd6dd" d="M26 14.5L8.9 12.63 12.42 7H26v7.5z"/></g><g><path fill="#ccd6dd" d="M17.92 19.86c0 2.68-2 4.85-4.46 4.85S9 22.55 9 19.87c0-2.7 2-4.86 4.46-4.86s4.46 2.17 4.46 4.86"/></g><g><path fill="#f4abba" d="M15.37 19.32c0-1.8-1.14-3.24-2.55-3.24-1.4 0-2.55 1.45-2.55 3.24 0 1.8 1.14 3.24 2.55 3.24 1.4 0 2.55-1.45 2.55-3.24"/></g><g><path fill="#dd2e44" d="M11 12.5c0-.83-.67-1.5-1.5-1.5S8 11.67 8 12.5 8.67 14 9.5 14s1.5-.67 1.5-1.5"/></g></g></g></g></svg>