<svg xmlns="http://www.w3.org/2000/svg" viewBox="0 0 47.5 47.5" enable-background="new 0 0 47.5 47.5"><defs><clipPath id="a"><path d="M0 38h38V0H0v38z"/></clipPath></defs><g><g><g clip-path="url(#a)" transform="matrix(1.25 0 0 -1.25 0 47.5)"><g><path fill="#292f33" d="M26 2c-2.75 0-2 6-2 6 0 1.1 2.65 2 3.75 2S31 10.1 31 9c0 0-2.25-7-5-7"/></g><g><path fill="#66757f" d="M29 1c-2.75 0-2 6-2 6 0 1.1 2.65 2 3.75 2S34 9.1 34 8c0 0-2.25-7-5-7"/></g><g><path fill="#292f33" d="M15 2c-2.75 0-4 6-4 6 0 1.1 2.65 2 3.75 2S18 10.1 18 9c0 0-.25-7-3-7"/></g><g><path fill="#66757f" d="M18 1c-2.75 0-4 6-4 6 0 1.1 2.65 2 3.75 2S21 9.1 21 8c0 0-.25-7-3-7"/></g><g><path fill="#e1e8ed" d="M36.75 15.62c0-7.8-4.5-11.4-14.52-11.4S8.75 7.8 8.75 15.6c0 7.78 3.46 11.4 13.48 11.4 10.03 0 14.52-3.62 14.52-11.4"/></g><g><path fill="#99aab5" d="M18 19.33C18 10 13.34 8 9.04 8 4.74 8 2 14.64 2 19.33 2 24.03 4.74 25 9.04 25S18 24.03 18 19.33"/></g><g><path fill="#292f33" d="M7 16.5c0-.83-.67-1.5-1.5-1.5S4 15.67 4 16.5 4.67 18 5.5 18 7 17.33 7 16.5"/></g><g><path fill="#e1e8ed" d="M16.75 24.25c-1.75-3.25-2.13-2.6-7.13-4.6C6.55 18.4 1 18.74 1 23.5 1 25.43 4.7 26 8 26s10.4 1.33 8.75-1.75"/></g><g><path fill="#ffcc4d" d="M17 23.3c3.35-2.42 5.43-6.13 3.72-11.08-1.36-3.97-6.8-3.12-9.6-1.13-2.8 1.98-2.65 4.78-1.75 6.28.9 1.5 4.16 1.23 6.03-.1.93-.66.3-1.56-.72-1.07-2.3 1.13-3.04-1.43-1.25-2.87 1.27-1 3.28-1.05 3.66 1 .66 3.64-3.52 6.3-7.48 5.3C12 21 14.16 25.37 17 23.3"/></g></g></g></g></svg>