<?xml version="1.0" encoding="UTF-8" standalone="no"?>
<!-- Created with Inkscape (http://www.inkscape.org/) -->

<svg
   xmlns:svg="http://www.w3.org/2000/svg"
   xmlns="http://www.w3.org/2000/svg"
   version="1.1"
   width="47.5"
   height="47.5"
   id="svg2"
   xml:space="preserve"><defs
     id="defs6"><clipPath
       id="clipPath18"><path
         d="M 0,38 38,38 38,0 0,0 0,38 z"
         id="path20" /></clipPath></defs><g
     transform="matrix(1.25,0,0,-1.25,0,47.5)"
     id="g12"><g
       id="g14"><g
         clip-path="url(#clipPath18)"
         id="g16"><g
           transform="translate(28.0762,23.3354)"
           id="g22"><path
             d="M 0,0 C 0,0 4.687,-1.807 6.761,-0.601 8.835,0.604 9.27,2.246 8.063,4.319 6.855,6.391 3.576,7.26 3.407,9.937 3.407,9.937 3.143,5.618 5.384,4.15 8.556,2.07 4.939,-0.237 1.177,0.235 -2.588,0.707 0,0 0,0"
             id="path24"
             style="fill:#292f33;fill-opacity:1;fill-rule:nonzero;stroke:none" /></g><g
           transform="translate(3.688,14.2871)"
           id="g26"><path
             d="M 0,0 C -0.736,-2.285 -0.349,-6.011 0.794,-6.378 1.935,-6.745 3.671,-4.769 2.691,-3.385 0.794,-0.708 1.913,1.161 4.195,0.426 6.479,-0.309 12.881,1.572 14.389,2.348 15.897,3.12 9.829,3.138 7.178,2.731 4.527,2.324 3.062,2.693 1.876,1.916 0.872,1.258 0,0 0,0"
             id="path28"
             style="fill:#d99e82;fill-opacity:1;fill-rule:nonzero;stroke:none" /></g><g
           transform="translate(18.792,6.8555)"
           id="g30"><path
             d="M 0,0 C 1.38,0.986 0.593,3.799 2.96,3.408 5.326,3.013 6.73,1.901 6.903,5.183 6.925,5.564 7.423,5.17 8.22,5.797 16.438,12.259 9.27,12.085 9.27,12.085 6.508,10.111 3.572,6.971 4.537,5.576 5.044,4.845 1.975,4.786 0.792,4.984 -0.391,5.181 -1.97,3.01 -2.167,1.827 -2.363,0.646 -1.379,-0.985 0,0"
             id="path32"
             style="fill:#d99e82;fill-opacity:1;fill-rule:nonzero;stroke:none" /></g><g
           transform="translate(31.8291,20.249)"
           id="g34"><path
             d="m 0,0 c 0.006,1.129 -1.757,4.602 -5.294,4.602 -3.6,0 -5.998,-1.199 -8.397,-1.199 -2.399,0 -3.939,-1.449 -5.139,3.348 -0.919,3.68 -3.401,5.201 -7,4 0,0 -3.455,2.248 -2.255,1.048 0.494,-0.494 0.706,-0.994 0.762,-1.459 -2.103,-1.257 -1.131,-3.416 -2.253,-4.539 -0.848,-0.847 -1.199,-1.199 -1.199,-2.398 0,-0.991 1.629,-1.15 2.875,-0.505 0.723,1.704 0.353,1.057 1.473,1.707 1.029,0.017 1.94,0.151 1.94,1.196 0,0 1.2,0 1.2,-2.398 0,-1.144 -1.083,-2.292 0.893,-5.513 0,0 1.19,-1.911 0.836,-2.581 -1.254,-2.371 -1.533,-5.044 -2.507,-5.743 -0.977,-0.698 0.419,-2.648 0.419,-2.648 1.395,-1.952 4.742,-2.508 5.718,-1.812 0.976,0.699 0.278,1.675 -1.395,1.955 -1.673,0.275 -5.021,0.833 -3.07,2.227 1.952,1.397 3.287,1.79 3.563,3.463 0.079,0.469 2,1 2,1 0,0 2,-1 4.337,0.055 2.043,0.922 4.481,2.09 6.722,0.414 l 0.069,0.039 c -0.713,-1.535 -0.968,-2.893 -0.275,-3.477 0.683,-0.573 -2.265,-1.434 -3.46,-1.553 -1.193,-0.123 -2.147,-2.628 -2.027,-3.821 0.121,-1.193 1.748,-2.7 2.82,-1.387 1.074,1.314 -2.107,3.162 1.714,4.254 2.307,0.66 4.034,-0.466 3.341,2.746 -0.081,0.374 0.068,0.786 0.693,1.586 C 0.388,-3.177 -0.008,-1.13 0,0"
             id="path36"
             style="fill:#c1694f;fill-opacity:1;fill-rule:nonzero;stroke:none" /></g><g
           transform="translate(5.2695,30.6709)"
           id="g38"><path
             d="M 0,0 C 2.399,2.399 4.428,1.897 6.323,0 8.723,-2.398 7.657,-4.922 10.47,-6.82 11.73,-7.67 7.73,-7.67 6.871,-3.221 6.362,-0.588 3.488,0.677 0,0"
             id="path40"
             style="fill:#292f33;fill-opacity:1;fill-rule:nonzero;stroke:none" /></g></g></g></g></svg>