<?xml version="1.0" encoding="UTF-8" standalone="no"?>
<!-- Created with Inkscape (http://www.inkscape.org/) -->

<svg
   xmlns:svg="http://www.w3.org/2000/svg"
   xmlns="http://www.w3.org/2000/svg"
   version="1.1"
   width="47.5"
   height="47.5"
   id="svg2"
   xml:space="preserve"><defs
     id="defs6"><clipPath
       id="clipPath18"><path
         d="M 0,38 38,38 38,0 0,0 0,38 z"
         id="path20" /></clipPath></defs><g
     transform="matrix(1.25,0,0,-1.25,0,47.5)"
     id="g12"><g
       id="g14"><g
         clip-path="url(#clipPath18)"
         id="g16"><g
           transform="translate(33.8555,20.5156)"
           id="g22"><path
             d="m 0,0 c -0.26,0.171 -0.544,0.329 -0.855,0.484 -2,1 -5,0 -9,0 -2,0 -4.902,3 -10,3 -0.802,0 -2.256,-0.634 -4.341,-0.89 -0.039,1.053 -0.615,1.89 -1.326,1.89 -0.737,0 -1.333,-0.895 -1.333,-2 0,-0.051 0.007,-0.099 0.01,-0.15 -2.82,-0.766 -6.01,-4.438 -6.01,-6.225 0,-2 2,-3.625 2,-3.625 0,0 0.999,0 3,2 1.581,1.581 5,1 5,1 l 1,-12 c 0,0 -1,-1 -2,-1 -1,0 -1,-2 -1,-2 l 6,0 1,9 3,0 c 2,0 7,1 7,1 2,-3 4,-4 4,-4 l 0,-3 -2,-1 c -2,-1 -1,-2 -1,-2 l 6,0 c 0,0 1,8 2,13 l 0,-5 c 0,-0.552 0.447,-1 1,-1 0.552,0 1,0.448 1,1 l 0,7 C 3.145,-1.85 1.787,-0.587 0,0"
             id="path24"
             style="fill:#ffcc4d;fill-opacity:1;fill-rule:nonzero;stroke:none" /></g><g
           transform="translate(6,20)"
           id="g26"><path
             d="m 0,0 c 0,-0.553 -0.448,-1 -1,-1 -0.552,0 -1,0.447 -1,1 0,0.552 0.448,1 1,1 0.552,0 1,-0.448 1,-1"
             id="path28"
             style="fill:#292f33;fill-opacity:1;fill-rule:nonzero;stroke:none" /></g><g
           transform="translate(1,17)"
           id="g30"><path
             d="M 0,0 C 0,0 0,-2 1,-2 1,0 2,0 2,0 2,0 1,1 0,0"
             id="path32"
             style="fill:#292f33;fill-opacity:1;fill-rule:nonzero;stroke:none" /></g><g
           transform="translate(13,20.5)"
           id="g34"><path
             d="M 0,0 C 0,-0.828 -0.672,-1.5 -1.5,-1.5 -2.329,-1.5 -3,-0.828 -3,0 -3,0.829 -2.329,1.5 -1.5,1.5 -0.672,1.5 0,0.829 0,0"
             id="path36"
             style="fill:#ffac33;fill-opacity:1;fill-rule:nonzero;stroke:none" /></g><g
           transform="translate(11.5,21.5)"
           id="g38"><path
             d="m 0,0 c -0.551,0 -1,-0.449 -1,-1 0,-0.551 0.449,-1 1,-1 0.551,0 1,0.449 1,1 0,0.551 -0.449,1 -1,1 m 0,-3 c -1.103,0 -2,0.897 -2,2 0,1.103 0.897,2 2,2 C 1.103,1 2,0.103 2,-1 2,-2.103 1.103,-3 0,-3"
             id="path40"
             style="fill:#f4900c;fill-opacity:1;fill-rule:nonzero;stroke:none" /></g><g
           transform="translate(20,20.5)"
           id="g42"><path
             d="M 0,0 C 0,-0.828 -0.672,-1.5 -1.5,-1.5 -2.329,-1.5 -3,-0.828 -3,0 -3,0.829 -2.329,1.5 -1.5,1.5 -0.672,1.5 0,0.829 0,0"
             id="path44"
             style="fill:#ffac33;fill-opacity:1;fill-rule:nonzero;stroke:none" /></g><g
           transform="translate(18.5,21.5)"
           id="g46"><path
             d="m 0,0 c -0.551,0 -1,-0.449 -1,-1 0,-0.551 0.449,-1 1,-1 0.552,0 1,0.449 1,1 0,0.551 -0.448,1 -1,1 m 0,-3 c -1.103,0 -2,0.897 -2,2 0,1.103 0.897,2 2,2 C 1.103,1 2,0.103 2,-1 2,-2.103 1.103,-3 0,-3"
             id="path48"
             style="fill:#f4900c;fill-opacity:1;fill-rule:nonzero;stroke:none" /></g><g
           transform="translate(17,15.5)"
           id="g50"><path
             d="M 0,0 C 0,-0.828 -0.672,-1.5 -1.5,-1.5 -2.329,-1.5 -3,-0.828 -3,0 -3,0.828 -2.329,1.5 -1.5,1.5 -0.672,1.5 0,0.828 0,0"
             id="path52"
             style="fill:#ffac33;fill-opacity:1;fill-rule:nonzero;stroke:none" /></g><g
           transform="translate(15.5,16.5)"
           id="g54"><path
             d="m 0,0 c -0.551,0 -1,-0.448 -1,-1 0,-0.552 0.449,-1 1,-1 0.551,0 1,0.448 1,1 0,0.552 -0.449,1 -1,1 m 0,-3 c -1.103,0 -2,0.897 -2,2 0,1.103 0.897,2 2,2 C 1.103,1 2,0.103 2,-1 2,-2.103 1.103,-3 0,-3"
             id="path56"
             style="fill:#f4900c;fill-opacity:1;fill-rule:nonzero;stroke:none" /></g><g
           transform="translate(24,13.5)"
           id="g58"><path
             d="M 0,0 C 0,-0.828 -0.672,-1.5 -1.5,-1.5 -2.328,-1.5 -3,-0.828 -3,0 -3,0.828 -2.328,1.5 -1.5,1.5 -0.672,1.5 0,0.828 0,0"
             id="path60"
             style="fill:#ffac33;fill-opacity:1;fill-rule:nonzero;stroke:none" /></g><g
           transform="translate(22.5,14.5)"
           id="g62"><path
             d="m 0,0 c -0.552,0 -1,-0.448 -1,-1 0,-0.552 0.448,-1 1,-1 0.552,0 1,0.448 1,1 0,0.552 -0.448,1 -1,1 m 0,-3 c -1.103,0 -2,0.897 -2,2 0,1.103 0.897,2 2,2 C 1.103,1 2,0.103 2,-1 2,-2.103 1.103,-3 0,-3"
             id="path64"
             style="fill:#f4900c;fill-opacity:1;fill-rule:nonzero;stroke:none" /></g><g
           transform="translate(27,18.5)"
           id="g66"><path
             d="M 0,0 C 0,-0.828 -0.672,-1.5 -1.5,-1.5 -2.328,-1.5 -3,-0.828 -3,0 -3,0.828 -2.328,1.5 -1.5,1.5 -0.672,1.5 0,0.828 0,0"
             id="path68"
             style="fill:#ffac33;fill-opacity:1;fill-rule:nonzero;stroke:none" /></g><g
           transform="translate(25.5,19.5)"
           id="g70"><path
             d="m 0,0 c -0.552,0 -1,-0.449 -1,-1 0,-0.552 0.448,-1 1,-1 0.552,0 1,0.448 1,1 0,0.551 -0.448,1 -1,1 m 0,-3 c -1.103,0 -2,0.897 -2,2 0,1.103 0.897,2 2,2 C 1.103,1 2,0.103 2,-1 2,-2.103 1.103,-3 0,-3"
             id="path72"
             style="fill:#f4900c;fill-opacity:1;fill-rule:nonzero;stroke:none" /></g><g
           transform="translate(31,13.5)"
           id="g74"><path
             d="M 0,0 C 0,-0.829 -0.671,-1.5 -1.5,-1.5 -2.329,-1.5 -3,-0.829 -3,0 -3,0.829 -2.329,1.5 -1.5,1.5 -0.671,1.5 0,0.829 0,0"
             id="path76"
             style="fill:#ffac33;fill-opacity:1;fill-rule:nonzero;stroke:none" /></g><g
           transform="translate(29.5,14.5)"
           id="g78"><path
             d="m 0,0 c -0.552,0 -1,-0.448 -1,-1 0,-0.552 0.448,-1 1,-1 0.552,0 1,0.448 1,1 0,0.552 -0.448,1 -1,1 m 0,-3 c -1.103,0 -2,0.897 -2,2 0,1.103 0.897,2 2,2 C 1.103,1 2,0.103 2,-1 2,-2.103 1.103,-3 0,-3"
             id="path80"
             style="fill:#f4900c;fill-opacity:1;fill-rule:nonzero;stroke:none" /></g><g
           transform="translate(34,18.5)"
           id="g82"><path
             d="M 0,0 C 0,-0.828 -0.672,-1.5 -1.5,-1.5 -2.328,-1.5 -3,-0.828 -3,0 -3,0.828 -2.328,1.5 -1.5,1.5 -0.672,1.5 0,0.828 0,0"
             id="path84"
             style="fill:#ffac33;fill-opacity:1;fill-rule:nonzero;stroke:none" /></g><g
           transform="translate(32.5,19.5)"
           id="g86"><path
             d="m 0,0 c -0.552,0 -1,-0.449 -1,-1 0,-0.552 0.448,-1 1,-1 0.552,0 1,0.448 1,1 0,0.551 -0.448,1 -1,1 m 0,-3 c -1.103,0 -2,0.897 -2,2 0,1.103 0.897,2 2,2 C 1.103,1 2,0.103 2,-1 2,-2.103 1.103,-3 0,-3"
             id="path88"
             style="fill:#f4900c;fill-opacity:1;fill-rule:nonzero;stroke:none" /></g></g></g></g></svg>