<svg xmlns="http://www.w3.org/2000/svg" viewBox="0 0 47.5 47.5" enable-background="new 0 0 47.5 47.5"><defs><clipPath id="a"><path d="M0 38h38V0H0v38z"/></clipPath></defs><g><g><g clip-path="url(#a)" transform="matrix(1.25 0 0 -1.25 0 47.5)"><g><path fill="#99aab5" d="M10 26c0 4.14-2 11-1 11s7-4 5-11c-1.14-3.98-.9-4-2-4s-2-.14-2 4"/></g><g><path fill="#f4abba" d="M10.55 25.3c0 3.4-1.3 9.06-.65 9.06s4.54-3.3 3.24-9.06c-.74-3.3-.58-3.3-1.3-3.3-.7 0-1.3-.12-1.3 3.3"/></g><g><path fill="#99aab5" d="M5.8 24.63C4.72 28.63 1.02 34.73 2 35c.97.26 7.8-2.07 7.65-9.35-.07-4.14.17-4.1-.9-4.38-1.07-.28-1.9-.65-2.96 3.35"/></g><g><path fill="#f4abba" d="M6.5 24.1c-.88 3.28-3.58 8.4-2.95 8.58.62.17 5.23-2.02 5.46-7.93.14-3.36.3-3.33-.4-3.52-.7-.18-1.22-.44-2.1 2.86"/></g><g><path fill="#ccd6dd" d="M37 8.5C37 6.57 35.43 5 33.5 5S30 6.57 30 8.5s1.57 3.5 3.5 3.5S37 10.43 37 8.5"/></g><g><path fill="#99aab5" d="M31.73 5.26C33.23 6.66 34 8.78 34 12c0 7.18-6.82 11-14 11-2.06 0-3.83-.16-5.32-.54C13.58 23.6 11.82 24 9.4 24 5.14 24 1 19.93 1 15.67c0-4.13 3.88-4.64 8-4.67 3-5 1-10 3-10 1.6 0 1.9 2.22 1.98 4.37 1.07-.66 2.26-1.2 3.53-1.57-.87-.53-1.5-1.07-1.5-1.3C16 1.12 18 1 21 1c5.52 0 13 0 11 4-.05.1-.15.2-.27.26"/></g><g><path fill="#292f33" d="M8 19c0-.55-.45-1-1-1s-1 .45-1 1 .45 1 1 1 1-.45 1-1"/></g><g><path fill="#f4abba" d="M3 16c0-1.1-.5-2-1-2s-1 .9-1 2 .45 1 1 1 1 .1 1-1"/></g></g></g></g></svg>