<svg xmlns="http://www.w3.org/2000/svg" viewBox="0 0 47.5 47.5" enable-background="new 0 0 47.5 47.5"><defs><clipPath id="a"><path d="M0 38h38V0H0v38z"/></clipPath></defs><g><g><g clip-path="url(#a)" transform="matrix(1.25 0 0 -1.25 0 47.5)"><g><path fill="#c1694f" d="M37 25c0 4.25-3.14 7-8 7-.55 0-1-.45-1-1s.45-1 1-1c1.8 0 6-.5 6-5 0-2.88-1.85-4.17-4.05-4.7-.17.08-.33.15-.5.2-3.5.88-4.45-.5-10.45-.5-4.17 0-5.44 4.4-6.83 7.1C12.8 29.16 11.8 33 11 33c-.6 0-1.4-2.03-1.93-4.06C8.4 30.47 7.55 32 7 32c-.7 0-1.42-2.53-1.77-4.7C3.36 26 2 24.16 2 22c0-3 7-5 7-5 2.12-1.1 2.74-2.77 3.3-4.28C14.38 6.34 14.13 1 15.5 1 16.88 1 18 4.36 18 8.5c0 .2 0 .42 0 .63 3.14.1 6.74 1.07 9.78.3C29.14 4.92 29.48 1 30.5 1c.96 0 1.8 3.78 2.2 7.48.04.14.06.3.06.5v.1c.05.32.07.64.1.95l.52 5.6c0 1.1-.26 2.2-.76 3.1C35.45 19.78 37 21.93 37 25"/></g><g><path fill="#292f33" d="M9 24c0-.55-.45-1-1-1s-1 .45-1 1 .45 1 1 1 1-.45 1-1"/></g><g><path fill="#292f33" d="M4 23.63C3 23 3 21 2.5 21S1 22.18 1 23.63s4.23.76 3 0"/></g><g><path fill="#662113" d="M4 20.5c-.18 0-.36.1-.45.28-.12.24-.02.54.23.67 2.14 1.07 6.17.08 6.34.03.27-.06.43-.33.36-.6-.06-.27-.33-.43-.6-.37-.04.02-3.85.96-5.66.05-.07-.03-.14-.05-.22-.05"/></g><g><path fill="#662113" d="M9 18.5c-.1 0-.2.03-.28.08-.03.02-2.9 1.92-4.72 1.92-.28 0-.5.22-.5.5s.22.5.5.5c2.13 0 5.15-2 5.28-2.08.23-.16.3-.47.14-.7-.1-.14-.26-.22-.42-.22"/></g></g></g></g></svg>