<svg xmlns="http://www.w3.org/2000/svg" viewBox="0 0 47.5 47.5" enable-background="new 0 0 47.5 47.5"><defs><clipPath id="a"><path d="M0 38h38V0H0v38z"/></clipPath></defs><g><g><g clip-path="url(#a)" transform="matrix(1.25 0 0 -1.25 0 47.5)"><g><path fill="#ffcc4d" d="M33.86 20.52c-.26.17-.55.32-.86.48-2 1-5 0-9 0-2 0-4.9 3-10 3-.8 0-2.26-.63-4.34-.9-.04 1.06-.62 1.9-1.33 1.9C7.6 25 7 24.1 7 23c0-.05 0-.1 0-.15-2.8-.77-6-4.44-6-6.23 0-2 2-3.62 2-3.62s1 0 3 2c1.58 1.58 5 1 5 1l1-12s-1-1-2-1-1-2-1-2h6l1 9h3c2 0 7 1 7 1 2-3 4-4 4-4V4l-2-1c-2-1-1-2-1-2h6s1 8 2 13V9c0-.55.45-1 1-1s1 .45 1 1v7c0 2.67-1.36 3.93-3.14 4.52"/></g><g><path fill="#292f33" d="M6 20c0-.55-.45-1-1-1s-1 .45-1 1 .45 1 1 1 1-.45 1-1"/></g><g><path fill="#292f33" d="M1 17s0-2 1-2c0 2 1 2 1 2s-1 1-2 0"/></g><g><path fill="#ffac33" d="M13 20.5c0-.83-.67-1.5-1.5-1.5s-1.5.67-1.5 1.5.67 1.5 1.5 1.5 1.5-.67 1.5-1.5"/></g><g><path fill="#f4900c" d="M11.5 21.5c-.55 0-1-.45-1-1s.45-1 1-1 1 .45 1 1-.45 1-1 1m0-3c-1.1 0-2 .9-2 2s.9 2 2 2 2-.9 2-2-.9-2-2-2"/></g><g><path fill="#ffac33" d="M20 20.5c0-.83-.67-1.5-1.5-1.5s-1.5.67-1.5 1.5.67 1.5 1.5 1.5 1.5-.67 1.5-1.5"/></g><g><path fill="#f4900c" d="M18.5 21.5c-.55 0-1-.45-1-1s.45-1 1-1 1 .45 1 1-.45 1-1 1m0-3c-1.1 0-2 .9-2 2s.9 2 2 2 2-.9 2-2-.9-2-2-2"/></g><g><path fill="#ffac33" d="M17 15.5c0-.83-.67-1.5-1.5-1.5s-1.5.67-1.5 1.5.67 1.5 1.5 1.5 1.5-.67 1.5-1.5"/></g><g><path fill="#f4900c" d="M15.5 16.5c-.55 0-1-.45-1-1s.45-1 1-1 1 .45 1 1-.45 1-1 1m0-3c-1.1 0-2 .9-2 2s.9 2 2 2 2-.9 2-2-.9-2-2-2"/></g><g><path fill="#ffac33" d="M24 13.5c0-.83-.67-1.5-1.5-1.5s-1.5.67-1.5 1.5.67 1.5 1.5 1.5 1.5-.67 1.5-1.5"/></g><g><path fill="#f4900c" d="M22.5 14.5c-.55 0-1-.45-1-1s.45-1 1-1 1 .45 1 1-.45 1-1 1m0-3c-1.1 0-2 .9-2 2s.9 2 2 2 2-.9 2-2-.9-2-2-2"/></g><g><path fill="#ffac33" d="M27 18.5c0-.83-.67-1.5-1.5-1.5s-1.5.67-1.5 1.5.67 1.5 1.5 1.5 1.5-.67 1.5-1.5"/></g><g><path fill="#f4900c" d="M25.5 19.5c-.55 0-1-.45-1-1s.45-1 1-1 1 .45 1 1-.45 1-1 1m0-3c-1.1 0-2 .9-2 2s.9 2 2 2 2-.9 2-2-.9-2-2-2"/></g><g><path fill="#ffac33" d="M31 13.5c0-.83-.67-1.5-1.5-1.5s-1.5.67-1.5 1.5.67 1.5 1.5 1.5 1.5-.67 1.5-1.5"/></g><g><path fill="#f4900c" d="M29.5 14.5c-.55 0-1-.45-1-1s.45-1 1-1 1 .45 1 1-.45 1-1 1m0-3c-1.1 0-2 .9-2 2s.9 2 2 2 2-.9 2-2-.9-2-2-2"/></g><g><path fill="#ffac33" d="M34 18.5c0-.83-.67-1.5-1.5-1.5s-1.5.67-1.5 1.5.67 1.5 1.5 1.5 1.5-.67 1.5-1.5"/></g><g><path fill="#f4900c" d="M32.5 19.5c-.55 0-1-.45-1-1s.45-1 1-1 1 .45 1 1-.45 1-1 1m0-3c-1.1 0-2 .9-2 2s.9 2 2 2 2-.9 2-2-.9-2-2-2"/></g></g></g></g></svg>