<svg xmlns="http://www.w3.org/2000/svg" viewBox="0 0 47.5 47.5" enable-background="new 0 0 47.5 47.5"><defs><clipPath id="a"><path d="M0 38h38V0H0v38z"/></clipPath></defs><g><g><g clip-path="url(#a)" transform="matrix(1.25 0 0 -1.25 0 47.5)"><g><path fill="#c1694f" d="M34.9 22.63C34.6 24.4 33 26 31 26H10c-1 0-5.32-.04-6-2l-2.3-6.3c-.68-1.97.3-4.8 2.33-4.8 1.15 0 2.6.04 4 .06C11.02 8.96 13.9 1 15 1c.85 0 1.57 3.4 1.86 6H28.1c.25-2.53.86-6 1.9-6 .95 0 2.98 4.3 4.14 10.92.43 1.9.72 4.4.82 7.64.02-.17.04-.35.04-.56v-9c0-.55.45-1 1-1s1 .45 1 1v9c0 1.8-.75 3.05-2.1 3.63"/></g><g><path fill="#ccd6dd" d="M11 25c-2-2-4.8 1-7 1s-3 .43-3 .97c0 .53 1.8.97 4 .97S13 27 11 25"/></g><g><path fill="#292f33" d="M8 21c0-.55-.45-1-1-1s-1 .45-1 1 .45 1 1 1 1-.45 1-1"/></g></g></g></g></svg>