<?xml version="1.0" encoding="UTF-8" standalone="no"?>
<!-- Created with Inkscape (http://www.inkscape.org/) -->

<svg
   xmlns:svg="http://www.w3.org/2000/svg"
   xmlns="http://www.w3.org/2000/svg"
   version="1.1"
   width="47.5"
   height="47.5"
   id="svg2"
   xml:space="preserve"><defs
     id="defs6"><clipPath
       id="clipPath18"><path
         d="M 0,38 38,38 38,0 0,0 0,38 z"
         id="path20" /></clipPath></defs><g
     transform="matrix(1.25,0,0,-1.25,0,47.5)"
     id="g12"><g
       id="g14"><g
         clip-path="url(#clipPath18)"
         id="g16"><g
           transform="translate(34.9121,22.6299)"
           id="g22"><path
             d="m 0,0 c -0.324,1.768 -1.937,3.37 -3.912,3.37 l -19,0 c -0.239,0 -0.522,-0.135 -0.83,-0.365 -0.507,0.226 -1.041,0.365 -1.605,0.365 -1,0 -4.732,-0.375 -5.565,-2 l -2.309,-4.305 c -0.675,-1.964 0.309,-4.782 2.336,-4.782 0.57,0 1.535,0.007 2.665,0.017 1.65,-0.286 3.602,-1.504 5.436,-2.848 2.12,-4.407 2.92,-11.082 3.872,-11.082 0.964,0 2.529,4.409 2.912,7 l 9.124,0 c 0.147,-2.479 0.772,-7 1.964,-7 1.016,0 3.24,4.883 4.347,12.238 0.315,1.625 0.532,3.698 0.615,6.32 0.023,-0.171 0.038,-0.353 0.038,-0.558 l 0,-12 c 0,-0.553 0.447,-1 1,-1 0.553,0 1,0.447 1,1 l 0,12 C 2.088,-1.823 1.339,-0.577 0,0"
             id="path24"
             style="fill:#292f33;fill-opacity:1;fill-rule:nonzero;stroke:none" /></g><g
           transform="translate(8,21)"
           id="g26"><path
             d="m 0,0 c 0,-0.552 -0.448,-1 -1,-1 -0.552,0 -1,0.448 -1,1 0,0.552 0.448,1 1,1 0.552,0 1,-0.448 1,-1"
             id="path28"
             style="fill:#ffffff;fill-opacity:1;fill-rule:nonzero;stroke:none" /></g><g
           transform="translate(11,22)"
           id="g30"><path
             d="m 0,0 c 3,0 6.708,1.625 6.708,5.625 0,2 -1.552,4.101 -4.458,4.167 C -1.872,9.884 -3.625,7 -3,6.625 -2.472,6.308 -1,8.5 1.5,8 3.361,7.628 3.554,6.433 3.167,5.667 2.716,4.774 1,4 -1,4 -3,4 -2,0 0,0"
             id="path32"
             style="fill:#99aab5;fill-opacity:1;fill-rule:nonzero;stroke:none" /></g></g></g></g></svg>