<?xml version="1.0" encoding="UTF-8" standalone="no"?><svg xmlns:svg="http://www.w3.org/2000/svg" xmlns="http://www.w3.org/2000/svg" version="1.1" viewBox="0 0 47.5 47.5" style="enable-background:new 0 0 47.5 47.5;" id="svg2" xml:space="preserve"><defs id="defs6"><clipPath id="clipPath18"><path d="M 0,38 38,38 38,0 0,0 0,38 z" id="path20"/></clipPath></defs><g transform="matrix(1.25,0,0,-1.25,0,47.5)" id="g12"><g id="g14"><g clip-path="url(#clipPath18)" id="g16"><g transform="translate(10,26)" id="g22"><path d="M 0,0 C 0,4.142 -2,11 -1,11 0,11 6,7 4,0 2.862,-3.983 3.104,-4 2,-4 0.896,-4 0,-4.142 0,0" id="path24" style="fill:#99aab5;fill-opacity:1;fill-rule:nonzero;stroke:none"/></g><g transform="translate(10.5498,25.2964)" id="g26"><path d="M 0,0 C 0,3.414 -1.297,9.065 -0.648,9.065 0,9.065 3.89,5.769 2.593,0 1.855,-3.282 2.013,-3.296 1.296,-3.296 0.58,-3.296 0,-3.414 0,0" id="path28" style="fill:#f4abba;fill-opacity:1;fill-rule:nonzero;stroke:none"/></g><g transform="translate(5.7886,24.625)" id="g30"><path d="M 0,0 C -1.062,4.003 -4.755,10.119 -3.789,10.375 -2.822,10.632 4.003,8.305 3.866,1.026 3.789,-3.115 4.027,-3.07 2.959,-3.353 1.892,-3.636 1.062,-4.003 0,0" id="path32" style="fill:#99aab5;fill-opacity:1;fill-rule:nonzero;stroke:none"/></g><g transform="translate(6.5005,24.0859)" id="g34"><path d="M 0,0 C -0.876,3.299 -3.579,8.429 -2.953,8.595 -2.326,8.762 2.279,6.573 2.506,0.665 2.635,-2.696 2.791,-2.67 2.099,-2.854 1.406,-3.037 0.876,-3.299 0,0" id="path36" style="fill:#f4abba;fill-opacity:1;fill-rule:nonzero;stroke:none"/></g><g transform="translate(37,8.5)" id="g38"><path d="M 0,0 C 0,-1.933 -1.567,-3.5 -3.5,-3.5 -5.433,-3.5 -7,-1.933 -7,0 -7,1.933 -5.433,3.5 -3.5,3.5 -1.567,3.5 0,1.933 0,0" id="path40" style="fill:#ccd6dd;fill-opacity:1;fill-rule:nonzero;stroke:none"/></g><g transform="translate(31.7334,5.2637)" id="g42"><path d="m 0,0 c 1.493,1.383 2.267,3.519 2.267,6.736 0,7.18 -6.821,11 -14,11 -2.058,0 -3.829,-0.157 -5.324,-0.539 -1.085,1.13 -2.859,1.539 -5.276,1.539 -4.265,0 -8.4,-4.069 -8.4,-8.333 0,-4.13 3.88,-4.636 7.998,-4.664 l 0.002,-0.003 c 3,-5 1,-10 3,-10 1.588,0 1.914,2.217 1.981,4.375 1.068,-0.663 2.258,-1.191 3.531,-1.577 -0.878,-0.523 -1.512,-1.068 -1.512,-1.298 0,-1.381 2,-1.5 5,-1.5 5.522,0 13,0 11,4 C 0.213,-0.156 0.115,-0.073 0,0" id="path44" style="fill:#99aab5;fill-opacity:1;fill-rule:nonzero;stroke:none"/></g><g transform="translate(8,19)" id="g46"><path d="m 0,0 c 0,-0.553 -0.448,-1 -1,-1 -0.552,0 -1,0.447 -1,1 0,0.552 0.448,1 1,1 0.552,0 1,-0.448 1,-1" id="path48" style="fill:#292f33;fill-opacity:1;fill-rule:nonzero;stroke:none"/></g><g transform="translate(3,16)" id="g50"><path d="m 0,0 c 0,-1.104 -0.5,-2 -1,-2 -0.5,0 -1,0.896 -1,2 0,1.104 0.448,1 1,1 0.552,0 1,0.104 1,-1" id="path52" style="fill:#f4abba;fill-opacity:1;fill-rule:nonzero;stroke:none"/></g></g></g></g></svg>
