<?xml version="1.0" encoding="UTF-8" standalone="no"?>
<!-- Created with Inkscape (http://www.inkscape.org/) -->

<svg
   xmlns:svg="http://www.w3.org/2000/svg"
   xmlns="http://www.w3.org/2000/svg"
   version="1.1"
   width="47.5"
   height="47.5"
   id="svg2"
   xml:space="preserve"><defs
     id="defs6"><clipPath
       id="clipPath18"><path
         d="M 0,38 38,38 38,0 0,0 0,38 z"
         id="path20" /></clipPath></defs><g
     transform="matrix(1.25,0,0,-1.25,0,47.5)"
     id="g12"><g
       id="g14"><g
         clip-path="url(#clipPath18)"
         id="g16"><g
           transform="translate(31,1)"
           id="g22"><path
             d="m 0,0 -13,0 c -0.552,0 -1,0.447 -1,1 0,0.553 0.448,1 1,1 L 0,2 C 2.542,2 4,3.367 4,5.75 4,7.287 2.357,9 0,9 l -7,0 c -0.553,0 -1,0.447 -1,1 0,0.553 0.447,1 1,1 l 7,0 C 3.589,11 6,8.285 6,5.75 6,2.257 3.645,0 0,0"
             id="path24"
             style="fill:#ea596e;fill-opacity:1;fill-rule:nonzero;stroke:none" /></g><g
           transform="translate(13,10.2832)"
           id="g26"><path
             d="m 0,0 c 0,2.85 3,7.035 0,7.035 -4,0 -10.137,-6.566 -10.137,-8.442 0,-1.876 6.441,-1.876 9.29,-1.876 C 2.002,-3.283 0,-2.85 0,0"
             id="path28"
             style="fill:#ccd6dd;fill-opacity:1;fill-rule:nonzero;stroke:none" /></g><g
           transform="translate(34,13.0977)"
           id="g30"><path
             d="m 0,0 c 0,7.973 -6.554,9.752 -11.381,8.787 -9.38,-1.876 -11.132,-6.442 -11.132,-10.194 0,-4.922 9.149,-4.691 14.071,-4.691 C -3.521,-6.098 0,-4.923 0,0"
             id="path32"
             style="fill:#ccd6dd;fill-opacity:1;fill-rule:nonzero;stroke:none" /></g><g
           transform="translate(26,14.5039)"
           id="g34"><path
             d="M 0,0 -17.106,-1.875 -13.575,-7.504 0,-7.504 0,0 z"
             id="path36"
             style="fill:#ccd6dd;fill-opacity:1;fill-rule:nonzero;stroke:none" /></g><g
           transform="translate(17.918,19.8569)"
           id="g38"><path
             d="m 0,0 c 0,2.683 -1.997,4.857 -4.458,4.857 -2.463,0 -4.46,-2.174 -4.46,-4.857 0,-2.683 1.997,-4.857 4.46,-4.857 C -1.997,-4.857 0,-2.683 0,0"
             id="path40"
             style="fill:#ccd6dd;fill-opacity:1;fill-rule:nonzero;stroke:none" /></g><g
           transform="translate(15.3701,19.3174)"
           id="g42"><path
             d="m 0,0 c 0,-1.788 -1.141,-3.239 -2.548,-3.239 -1.408,0 -2.548,1.451 -2.548,3.239 0,1.788 1.14,3.238 2.548,3.238 C -1.141,3.238 0,1.788 0,0"
             id="path44"
             style="fill:#f4abba;fill-opacity:1;fill-rule:nonzero;stroke:none" /></g><g
           transform="translate(11,12.5)"
           id="g46"><path
             d="M 0,0 C 0,-0.829 -0.672,-1.5 -1.5,-1.5 -2.328,-1.5 -3,-0.829 -3,0 -3,0.828 -2.328,1.5 -1.5,1.5 -0.672,1.5 0,0.828 0,0"
             id="path48"
             style="fill:#dd2e44;fill-opacity:1;fill-rule:nonzero;stroke:none" /></g></g></g></g></svg>