<svg xmlns="http://www.w3.org/2000/svg" viewBox="0 0 47.5 47.5" enable-background="new 0 0 47.5 47.5"><defs><clipPath id="a"><path d="M0 38h38V0H0v38z"/></clipPath></defs><g><g><g clip-path="url(#a)" transform="matrix(1.25 0 0 -1.25 0 47.5)"><g><path fill="#ea596e" d="M31 1H7c-.55 0-1 .45-1 1s.45 1 1 1h24c2.54 0 4 1.37 4 3.75C35 8.3 33.36 10 31 10h-7c-.55 0-1 .45-1 1s.45 1 1 1h7c3.6 0 6-2.7 6-5.25C37 3.25 34.65 1 31 1"/></g><g><path fill="#66757f" d="M13 12.5c0 3.04 3.6 5.94 1 7.5-3.4 2.04-6.88-4.3-9-5-3-1-4-3.4-4-5 0-1.84 2-1.73 5-2 1.9-.17 5.6-.13 9-1 2.94-.76-2 2.46-2 5.5"/></g><g><path fill="#66757f" d="M34 13.5C34 22 30.25 26 25 26c-10 0-14-7-14-14 0-5.25 6.75-6 12-6s11 2.25 11 7.5"/></g><g><path fill="#66757f" d="M10.78 19.16c0 2.6-2.37 3.22-1.2 5.03.72 1.07 2.6.62 3.07.57-.04-1.33 1.6-1.88 2.05-1.05.38-.37.7-.83.96-1.36.92-1.92-.46-4.5-1.96-5.2-1.5-.7-2.92-.13-2.92 2"/></g><g><path fill="#e6aaaa" d="M14.63 20.86c.1-1.28-.48-2.67-1.4-2.9-.9-.26-1.27.7-1.6 1.95-.33 1.24-.95 2.7-.04 2.94.9.24 2.92-.32 3.03-1.98"/></g><g><path fill="#292f33" d="M10 14c0-.55-.45-1-1-1s-1 .45-1 1 .45 1 1 1 1-.45 1-1"/></g><g><path fill="#66757f" d="M11.6 18.7c-1.27 1.7-2.84 1.96-4.5 1.97-.73 0-.68-.48-.1-.55 1.08-.1 1.96-.4 2.08-.66.07-.18-.7.04-1.43.04-1.17 0-1.05-.3-.17-.52 1.87-.48 1.83-1.22 2.9-1.2 1.06.04 1.2.9 1.2.9"/></g><g><path fill="#66757f" d="M27.44 25.68c-1.65.6-3.94 2.24-6.2 2-.74-.1-.45-.53 0-.64.62-.14 1.45-.7 1.74-.93.28-.2-2.3.57-4.06-.1-.88-.33-.52-.56.03-.5.8.1 1.6-.17 2.64-.8 1.02-.62 6.92.57 5.84.98"/></g></g></g></g></svg>