<svg xmlns="http://www.w3.org/2000/svg" viewBox="0 0 47.5 47.5" enable-background="new 0 0 47.5 47.5"><defs><clipPath id="a"><path d="M0 38h38V0H0v38z"/></clipPath></defs><g><g><g clip-path="url(#a)" transform="matrix(1.25 0 0 -1.25 0 47.5)"><g><path fill="#292f33" d="M28.08 23.34s4.68-1.8 6.76-.6c2.07 1.2 2.5 2.84 1.3 4.9-1.2 2.1-4.5 2.96-4.66 5.63 0 0-.26-4.32 1.98-5.78 3.17-2.1-.44-4.4-4.2-3.93-3.77.47-1.18-.23-1.18-.23"/></g><g><path fill="#d99e82" d="M3.7 14.3c-.75-2.3-.36-6.02.78-6.4 1.14-.36 2.88 1.62 1.9 3-1.9 2.68-.78 4.55 1.5 3.8 2.3-.72 8.7 1.16 10.2 1.94 1.5.77-4.56.8-7.2.38-2.67-.4-4.13-.04-5.32-.82-1-.65-1.87-1.9-1.87-1.9"/></g><g><path fill="#d99e82" d="M18.8 6.86c1.37.98.6 3.8 2.95 3.4 2.37-.4 3.77-1.5 3.95 1.78.02.38.52 0 1.3.6 8.23 6.47 1.06 6.3 1.06 6.3-2.76-1.97-5.7-5.1-4.73-6.5.5-.74-2.56-.8-3.75-.6-1.18.2-2.76-1.97-2.96-3.16-.2-1.18.8-2.8 2.17-1.82"/></g><g><path fill="#c1694f" d="M31.83 20.25c0 1.13-1.76 4.6-5.3 4.6-3.6 0-6-1.2-8.4-1.2-2.4 0-3.93-1.45-5.13 3.35-.92 3.68-3.4 5.2-7 4 0 0-3.46 2.25-2.26 1.05.5-.5.7-1 .77-1.46-2.1-1.27-1.12-3.43-2.25-4.55-.84-.85-1.2-1.2-1.2-2.4 0-1 1.63-1.15 2.88-.5.72 1.7.35 1.05 1.47 1.7 1.03.02 1.94.15 1.94 1.2 0 0 1.2 0 1.2-2.4 0-1.14-1.08-2.3.9-5.5 0 0 1.2-1.92.83-2.6-1.25-2.36-1.53-5.04-2.5-5.73-.98-.7.4-2.65.4-2.65 1.4-1.95 4.76-2.5 5.73-1.8.98.68.28 1.66-1.4 1.94-1.67.3-5 .84-3.06 2.24 1.95 1.4 3.28 1.8 3.56 3.46.08.47 2 1 2 1s2-1 4.34.06c2.04.92 4.48 2.1 6.72.4l.07.05c-.72-1.53-.97-2.88-.28-3.47.7-.57-2.26-1.43-3.46-1.55-1.2-.12-2.15-2.63-2.03-3.82.12-1.2 1.74-2.7 2.82-1.4 1.06 1.32-2.12 3.17 1.7 4.26 2.3.66 4.03-.46 3.34 2.75-.08.37.07.8.7 1.6 3.28 4.2 2.88 6.25 2.9 7.38"/></g><g><path fill="#292f33" d="M5.27 30.67c2.4 2.4 4.43 1.9 6.32 0 2.4-2.4 1.33-4.92 4.14-6.82C17 23 13 23 12.14 27.45c-.5 2.63-3.38 3.9-6.87 3.22"/></g></g></g></g></svg>