<?xml version="1.0" encoding="UTF-8" standalone="no"?>
<!-- Created with Inkscape (http://www.inkscape.org/) -->

<svg
   xmlns:svg="http://www.w3.org/2000/svg"
   xmlns="http://www.w3.org/2000/svg"
   version="1.1"
   width="47.5"
   height="47.5"
   id="svg2"
   xml:space="preserve"><defs
     id="defs6"><clipPath
       id="clipPath18"><path
         d="M 0,38 38,38 38,0 0,0 0,38 z"
         id="path20" /></clipPath></defs><g
     transform="matrix(1.25,0,0,-1.25,0,47.5)"
     id="g12"><g
       id="g14"><g
         clip-path="url(#clipPath18)"
         id="g16"><g
           transform="translate(31,1)"
           id="g22"><path
             d="m 0,0 -24,0 c -0.552,0 -1,0.447 -1,1 0,0.553 0.448,1 1,1 L 0,2 C 2.542,2 4,3.367 4,5.75 4,7.287 2.357,9 0,9 l -7,0 c -0.553,0 -1,0.447 -1,1 0,0.553 0.447,1 1,1 l 7,0 C 3.589,11 6,8.285 6,5.75 6,2.257 3.645,0 0,0"
             id="path24"
             style="fill:#ea596e;fill-opacity:1;fill-rule:nonzero;stroke:none" /></g><g
           transform="translate(13,12.5)"
           id="g26"><path
             d="m 0,0 c 0,3.037 3.604,5.937 1,7.5 -3.407,2.044 -6.879,-4.293 -9,-5 -3,-1 -4,-3.407 -4,-5 0,-1.838 1.986,-1.725 5,-2 1.906,-0.175 5.594,-0.125 9,-1 C 4.942,-6.256 0,-3.038 0,0"
             id="path28"
             style="fill:#66757f;fill-opacity:1;fill-rule:nonzero;stroke:none" /></g><g
           transform="translate(34,13.5)"
           id="g30"><path
             d="m 0,0 c 0,8.5 -3.753,12.5 -9,12.5 -10,0 -14,-7 -14,-14 0,-5.247 6.753,-6 12,-6 5.247,0 11,2.253 11,7.5"
             id="path32"
             style="fill:#66757f;fill-opacity:1;fill-rule:nonzero;stroke:none" /></g><g
           transform="translate(10.7812,19.1563)"
           id="g34"><path
             d="M 0,0 C 0,2.594 -2.375,3.219 -1.187,5.031 -0.481,6.109 1.4,5.666 1.864,5.613 1.827,4.281 3.469,3.737 3.918,4.563 4.296,4.192 4.628,3.733 4.88,3.203 5.794,1.279 4.419,-1.287 2.922,-1.998 1.426,-2.709 0,-2.13 0,0"
             id="path36"
             style="fill:#66757f;fill-opacity:1;fill-rule:nonzero;stroke:none" /></g><g
           transform="translate(14.6333,20.8604)"
           id="g38"><path
             d="M 0,0 C 0.084,-1.279 -0.481,-2.67 -1.396,-2.915 -2.31,-3.161 -2.673,-2.188 -3.004,-0.954 -3.335,0.28 -3.954,1.732 -3.04,1.978 -2.125,2.224 -0.109,1.661 0,0"
             id="path40"
             style="fill:#e6aaaa;fill-opacity:1;fill-rule:nonzero;stroke:none" /></g><g
           transform="translate(10,14)"
           id="g42"><path
             d="m 0,0 c 0,-0.553 -0.448,-1 -1,-1 -0.552,0 -1,0.447 -1,1 0,0.553 0.448,1 1,1 0.552,0 1,-0.447 1,-1"
             id="path44"
             style="fill:#292f33;fill-opacity:1;fill-rule:nonzero;stroke:none" /></g><g
           transform="translate(11.5937,18.6875)"
           id="g46"><path
             d="M 0,0 C -1.26,1.717 -2.833,1.977 -4.49,1.979 -5.219,1.98 -5.177,1.5 -4.594,1.437 -3.518,1.322 -2.631,1.032 -2.517,0.771 -2.441,0.596 -3.219,0.812 -3.948,0.812 -5.115,0.812 -4.989,0.515 -4.115,0.291 -2.24,-0.187 -2.281,-0.928 -1.219,-0.896 -0.156,-0.863 0,0 0,0"
             id="path48"
             style="fill:#66757f;fill-opacity:1;fill-rule:nonzero;stroke:none" /></g><g
           transform="translate(27.4424,25.6753)"
           id="g50"><path
             d="m 0,0 c -1.65,0.616 -3.942,2.241 -6.192,1.991 -0.751,-0.083 -0.462,-0.518 0,-0.625 0.609,-0.14 1.437,-0.704 1.731,-0.932 0.281,-0.219 -2.314,0.557 -4.065,-0.109 -0.872,-0.332 -0.514,-0.563 0.031,-0.5 0.816,0.093 1.609,-0.172 2.641,-0.797 C -4.823,-1.597 1.077,-0.402 0,0"
             id="path52"
             style="fill:#66757f;fill-opacity:1;fill-rule:nonzero;stroke:none" /></g></g></g></g></svg>