<svg xmlns="http://www.w3.org/2000/svg" viewBox="0 0 47.5 47.5" enable-background="new 0 0 47.5 47.5"><defs><clipPath id="a"><path d="M0 38h38V0H0v38z"/></clipPath></defs><g><g><g clip-path="url(#a)" transform="matrix(1.25 0 0 -1.25 0 47.5)"><g><path fill="#3e721d" d="M13.43 7.17c.63 6.7-4.4 7.54-6.4 6.08-1.1-.8-1.37-2.32-.5-1.52 1.55 1.4 2.1.37.92-.38-1.16-.75-1.37-2.14-.08-1.18 1.3.95 1.65.33.65-.9-.6-.74.04-1.44 1.16.06.94 1.25 3.2 1.3 2.67-3-.23-1.74 1.45-.6 1.58.84"/></g><g><path fill="#3e721d" d="M21.38 28.2c-.6 3.5-1.13 5.24-4.63 5.82-3.5.58-6.42-1.75-6.42-1.75s.6 3.5 2.34 4.67c.68.46 1.16-1.75 1.75-1.75.58 0 1.16 1.74 2.9 1.74.6 0 .6-1.75 1.18-1.75s2.24.56 2.33 0c.13-.82-.16-1.74.3-2.12.45-.37 1.55.15 1.9-.5.34-.62-.6-1.54-.53-1.95.08-.42.72-.6.53-1.38-.2-.8-.65-.83-.7-1.42-.04-.58.9-1.08.7-1.68-.2-.6-.66-.7-.86-1.46-.2-.78.54-.66.33-1.45-.2-.8-.96-1-1.2-1.77-.26-.77.66-.94.2-1.7-.46-.74-1.3-.86-1.33-1.32-.05-.46.2-.82.04-1.56-.16-.73-1.12-.36-1.2-.94-.08-.58.2-.88.2-1.58 0-.7-.7-.84-.62-1.55.1-.7.75-.16 1.17-1 .42-.83-.25-1.58.2-2.08.47-.5 1.1.67 1.72.25.62-.42.67-1.25 1.36-1.37.68-.13.9 1.3 1.4 1.25.5-.05 1.6-.7 2.2-.42.58.3.54 1.46 1 1.96.45.5 1.04.04 1.45.58.42.54-.14 1.17-.06 1.97.08.8.85 1.24.8 1.86-.03.63-.65.63-.9 1.3-.25.66.45 1.25.2 1.87-.25.63-1.33.83-1.3 1.46.05.62.47 1.33.26 2.04-.2.7-1.08 1.17-1.04 1.7.04.55.5 1.26.58 1.65.1.4-.74.82-.66 1.48.08.67.62.62.83 1.23.2.6-.76.9-.26 1.67.5.77.75.27 1.17.7.42.4 0 1.32.42 1.53.42.2 1.25.04 1.67.33.4.28.4.7.87.87.45.16 1.04-.54 1.4-.54.4 0 1.05.7 1.55.54.5-.17 1.6-1.34.92-1.7-.67-.34-5.75-.6-5.8-2.93-.03-2.33 2.8-12.92 1.97-15.58-.83-2.67-4.28-8.34-8.24-7.25-3.96 1.1-8.67 3.5-7.54 7.22 1.12 3.7 4.75 11.3 5.45 14.77"/></g><g><path fill="#77b255" d="M22 29.1c0-3.98-2.38-8.14-5.83-7.56-5.33.9-5.6 2.58-6.42 1.54-2.92-3.74-4.64.5-5.3 1.2C4.27 24.44 1 25.4 1 27.25c0 1.2 1.75 2.4 2.92 1.23 1.72.03 8.16 6.14 12.25 6.14 4.08 0 5.83-3.07 5.83-5.54"/></g><g><path fill="#292f33" d="M15.58 29.94c0-.65-.52-1.17-1.16-1.17-.65 0-1.17.52-1.17 1.17 0 .64.52 1.16 1.17 1.16.64 0 1.16-.52 1.16-1.16"/></g><g><path fill="#3e721d" d="M3.92 26.73c0-.48-.4-.3-.88-.3s-.87-.18-.87.3.4.87.87.87c.48 0 .88-.4.88-.87"/></g><g><path fill="#fff" d="M12.08 25.86c0-.65-.4-.6-.87-.6s-.87-.05-.87.6c0 .64.4 2.33.88 2.33.5 0 .88-1.7.88-2.34"/></g><g><path fill="#fff" d="M9.75 25.27c0-.64-.4-.58-.88-.58s-.87-.07-.87.57c0 .65.4 2.34.88 2.34s.87-1.68.87-2.33"/></g><g><path fill="#3e721d" d="M12 25.85c-3.1-.44-6.2-1.23-7.56-1.58.17-.18.4-.58.7-1.02 1.48.38 4.26 1.05 7.03 1.44.32.04.54.34.5.65-.06.32-.35.55-.67.5"/></g><g><path fill="#77b255" d="M21.95 28.06c0-4.37-1.72-8.2-2.95-11.17-1.33-3.22-1-9 4-9s6.5 3.18 7 5c1.36 5-2 8-2 13 0 9 8 7 8 6s-6.93-1.38-3-9C36.93 15.26 37 1 23 1S9 9.9 11 13.9c1.42 2.83 4 7.1.5 9.04-2.28 1.26 10.45 5.12 10.45 5.12"/></g><g><path fill="#3e721d" d="M12.34 29.23c-.26 0-.52.1-.7.3-.4.38-.4 1 0 1.4.07.1 2.07 2.05 5.36 2.05.55 0 1-.45 1-1s-.45-1-1-1c-2.43 0-3.94-1.44-3.96-1.46-.2-.2-.45-.3-.7-.3"/></g><g><path fill="#5c913b" d="M11.7 11.67c.63 6.7-5.4 7.54-7.4 6.08-1.1-.8-1.36-2.32-.5-1.52 1.55 1.4 2.1.37.93-.38s-1.38-2.14-.08-1.18c1.3.95 1.64.33.64-.9-.6-.74.03-1.44 1.16.06.94 1.25 4.2 1.3 3.66-3-.22-1.74 1.45-.6 1.6.84"/></g></g></g></g></svg>