<?xml version="1.0" encoding="UTF-8" standalone="no"?>
<!-- Created with Inkscape (http://www.inkscape.org/) -->

<svg
   xmlns:svg="http://www.w3.org/2000/svg"
   xmlns="http://www.w3.org/2000/svg"
   version="1.1"
   width="47.5"
   height="47.5"
   id="svg2"
   xml:space="preserve"><defs
     id="defs6"><clipPath
       id="clipPath18"><path
         d="M 0,38 38,38 38,0 0,0 0,38 z"
         id="path20" /></clipPath></defs><g
     transform="matrix(1.25,0,0,-1.25,0,47.5)"
     id="g12"><g
       id="g14"><g
         clip-path="url(#clipPath18)"
         id="g16"><g
           transform="translate(37,29.999)"
           id="g22"><path
             d="m 0,0 c -2,-3 -2,1 -5,-2 -3,2 -3,-3 -6,0 0.899,-2.699 3.419,-4.574 6.1,-4.926 -0.277,-1.789 0.202,-3.946 -2.1,-6.073 -2.008,-1.857 -3.023,-0.312 -8,2.999 -3,1.996 -5,4 -10,3 -5.883,-1.177 -11,-5.999 -11,-7.999 0,-2 3,-13.969 21,-13.969 2,0 5.243,0.664 8,2.969 5.955,4.978 5.882,15.349 4.58,19.456 C -0.64,-5.416 0,-2.393 0,0"
             id="path24"
             style="fill:#3b88c3;fill-opacity:1;fill-rule:nonzero;stroke:none" /></g><g
           transform="translate(31.2139,5.1875)"
           id="g26"><path
             d="m 0,0 c 0.149,0.165 0.289,0.338 0.429,0.511 1.879,2.35 2.902,5.348 3.355,8.29 -1.999,-4.996 -3.006,-9.988 -13.998,-9.988 -11,0 -15,13 -20,11 0,-2.001 3,-13.969 21,-13.969 2,0 5.243,0.664 8,2.969 0.318,0.265 0.612,0.553 0.9,0.848 C -0.208,-0.228 -0.103,-0.115 0,0"
             id="path28"
             style="fill:#55acee;fill-opacity:1;fill-rule:nonzero;stroke:none" /></g><g
           transform="translate(9,15.5)"
           id="g30"><path
             d="M 0,0 C 0,-0.828 -0.671,-1.5 -1.5,-1.5 -2.329,-1.5 -3,-0.828 -3,0 -3,0.828 -2.329,1.5 -1.5,1.5 -0.671,1.5 0,0.828 0,0"
             id="path32"
             style="fill:#292f33;fill-opacity:1;fill-rule:nonzero;stroke:none" /></g></g></g></g></svg>