<?xml version="1.0" encoding="UTF-8" standalone="no"?>
<!-- Created with Inkscape (http://www.inkscape.org/) -->

<svg
   xmlns:svg="http://www.w3.org/2000/svg"
   xmlns="http://www.w3.org/2000/svg"
   version="1.1"
   width="47.5"
   height="47.5"
   id="svg2"
   xml:space="preserve"><defs
     id="defs6"><clipPath
       id="clipPath18"><path
         d="M 0,38 38,38 38,0 0,0 0,38 z"
         id="path20" /></clipPath></defs><g
     transform="matrix(1.25,0,0,-1.25,0,47.5)"
     id="g12"><g
       id="g14"><g
         clip-path="url(#clipPath18)"
         id="g16"><g
           transform="translate(35,22)"
           id="g22"><path
             d="m 0,0 c 0,2 -2.127,4.702 -4,4 -8,-3 -19,2 -19,2 -2.209,0 -6.857,-9.257 -5,-10 0.277,-0.111 0.541,-0.227 0.799,-0.343 C -29.352,-5.087 -29.717,-6.809 -28,-7 c 9,-1 6.896,-14 8,-14 1.344,0 2.685,2.614 3.422,5 l 9.8,0 c 0.288,-2.354 0.866,-5 1.778,-5 0.866,0 2.611,3.542 3.794,9.142 C -0.472,-9.232 0,-5.326 0,0"
             id="path24"
             style="fill:#ccd6dd;fill-opacity:1;fill-rule:nonzero;stroke:none" /></g><g
           transform="translate(11,15)"
           id="g26"><path
             d="M 0,0 C -2,0 -4.946,-0.087 -6.973,-0.087 -9,-0.087 -10.617,3.391 -9.309,4.695 -8,6 -4,7 -5,11 -5.542,13.169 -1,14 1,13 5.816,10.592 6,3 -1,3 -1,3 2,0 0,0"
             id="path28"
             style="fill:#292f33;fill-opacity:1;fill-rule:nonzero;stroke:none" /></g><g
           transform="translate(31,26)"
           id="g30"><path
             d="M 0,0 C -2.586,-0.97 -5.485,-1.101 -8.226,-0.838 -9.331,-2.231 -10,-4.031 -10,-6 c 0,-4.418 3.357,-8 7.5,-8 2.587,0 4.866,1.396 6.215,3.521 C 3.896,-8.607 4,-6.462 4,-4 4,-2 1.873,0.702 0,0"
             id="path32"
             style="fill:#292f33;fill-opacity:1;fill-rule:nonzero;stroke:none" /></g><g
           transform="translate(22,12.5)"
           id="g34"><path
             d="M 0,0 C 0,-1.933 -1.567,-3.5 -3.5,-3.5 -5.433,-3.5 -7,-1.933 -7,0 -7,1.934 -5.433,3.5 -3.5,3.5 -1.567,3.5 0,1.934 0,0"
             id="path36"
             style="fill:#292f33;fill-opacity:1;fill-rule:nonzero;stroke:none" /></g><g
           transform="translate(33,9)"
           id="g38"><path
             d="m 0,0 c 0,-1.104 -0.896,-2 -2,-2 -1.104,0 -2,0.896 -2,2 0,1.104 0.896,2 2,2 1.104,0 2,-0.896 2,-2"
             id="path40"
             style="fill:#292f33;fill-opacity:1;fill-rule:nonzero;stroke:none" /></g><g
           transform="translate(12,28)"
           id="g42"><path
             d="M 0,0 C 0,-0.552 -0.671,-1 -1.5,-1 -2.329,-1 -6,1.448 -6,2 -6,2.552 -3.77,2.308 -3,2 -0.5,1 0,0.552 0,0"
             id="path44"
             style="fill:#ccd6dd;fill-opacity:1;fill-rule:nonzero;stroke:none" /></g><g
           transform="translate(10,24)"
           id="g46"><path
             d="m 0,0 c 0,-0.552 -0.448,-1 -1,-1 -0.552,0 -1,0.448 -1,1 0,0.552 0.448,1 1,1 0.552,0 1,-0.448 1,-1"
             id="path48"
             style="fill:#ccd6dd;fill-opacity:1;fill-rule:nonzero;stroke:none" /></g><g
           transform="translate(36,13)"
           id="g50"><path
             d="m 0,0 c -0.553,0 -1,0.447 -1,1 l 0,5 c 0,1.439 -0.561,2 -2,2 -0.553,0 -1,0.448 -1,1 0,0.552 0.447,1 1,1 2.542,0 4,-1.458 4,-4 L 1,1 C 1,0.447 0.553,0 0,0"
             id="path52"
             style="fill:#292f33;fill-opacity:1;fill-rule:nonzero;stroke:none" /></g></g></g></g></svg>