<svg xmlns="http://www.w3.org/2000/svg" viewBox="0 0 47.5 47.5" enable-background="new 0 0 47.5 47.5"><defs><clipPath id="a"><path d="M0 38h38V0H0v38z"/></clipPath></defs><g><g><g clip-path="url(#a)" transform="matrix(1.25 0 0 -1.25 0 47.5)"><g><path fill="#3e721d" d="M20 5c0-1-1.72-3-3.33-3C15.07 2 15 3.34 15 5s1.3 3 2.92 3C19.52 8 20 6.66 20 5"/></g><g><path fill="#3e721d" d="M31 5c0-1-1.72-3-3.33-3C26.07 2 26 3.34 26 5s1.3 3 2.92 3C30.52 8 31 6.66 31 5"/></g><g><path fill="#5c913b" d="M37 12c0 6-3.17 9.17-6 12-1 1-1.4-.32-1-1 .5-.86 3-8-2-8h-2c-5 0-6.17 1.17-9 4-4.5 4.5-7 0-9 0-6 0-7 1.8-7-2 0-3 3-4 6-4s3-1 5-4c1.07-1.6 2.84-3.2 5.02-4.16.24-1.1 2.78-3.84 4.3-3.84C22.95 1 23 2.34 23 4h5c.03 0 .07 0 .1 0 .3 0 .6 0 .9 0 0-1 1.72-3 3.33-3C33.93 1 34 2.34 34 4c0 .3-.06.6-.14.86C35.6 5.8 37 7.8 37 12"/></g><g><path fill="#292f33" d="M11 18.88c0-.83.67-1.5 1.5-1.5s1.5.67 1.5 1.5-.67 0-1.5 0-1.5.83-1.5 0"/></g><g><path fill="#77b255" d="M27 13c0-.55.67-1 1.5-1s1.5.45 1.5 1-.67 1-1.5 1-1.5-.45-1.5-1"/></g><g><path fill="#77b255" d="M23 13c0-.55.67-1 1.5-1s1.5.45 1.5 1-.67 1-1.5 1-1.5-.45-1.5-1"/></g><g><path fill="#77b255" d="M19 13c0-.55.67-1 1.5-1s1.5.45 1.5 1-.67 1-1.5 1-1.5-.45-1.5-1"/></g><g><path fill="#77b255" d="M21 11c0-.55.67-1 1.5-1s1.5.45 1.5 1-.67 1-1.5 1-1.5-.45-1.5-1"/></g><g><path fill="#77b255" d="M25 11c0-.55.67-1 1.5-1s1.5.45 1.5 1-.67 1-1.5 1-1.5-.45-1.5-1"/></g><g><path fill="#fff" d="M7 15c-.4 0-1 1-1 1h2s-.6-1-1-1"/></g><g><path fill="#fff" d="M5 14.53c-.4 0-1 1.47-1 1.47h2s-.6-1.47-1-1.47"/></g><g><path fill="#fff" d="M3 14c-.4 0-1 2-1 2h2s-.6-2-1-2"/></g></g></g></g></svg>