<?xml version="1.0" encoding="UTF-8" standalone="no"?><svg xmlns:svg="http://www.w3.org/2000/svg" xmlns="http://www.w3.org/2000/svg" version="1.1" viewBox="0 0 47.5 47.5" style="enable-background:new 0 0 47.5 47.5;" id="svg2" xml:space="preserve"><defs id="defs6"><clipPath id="clipPath18"><path d="M 0,38 38,38 38,0 0,0 0,38 z" id="path20"/></clipPath><clipPath id="clipPath38"><path d="M 8,23 C 4.999,23 1,18.625 1,16.625 l 0,0 C 1,14.625 3,13 3,13 l 0,0 c 0,0 2.171,1 5,1 l 0,0 3,0 1,-10 C 12,4 11,3 10,3 l 0,0 C 9,3 9,1 9,1 l 0,0 6,0 1,8 3,0 c 2,0 6,1 6,1 l 0,0 C 27,7 29,6 29,6 L 29,6 29,4 27,3 C 25,2 26,1 26,1 l 0,0 6,0 c 0,0 1,8 2,13 l 0,0 c 1,5 0,6 -2,7 l 0,0 c -2,1 -5,0 -9,0 l 0,0 c -2,0 -3.901,3 -9,3 l 0,0 c -1,0 -3,-1 -6,-1" id="path40"/></clipPath></defs><g transform="matrix(1.25,0,0,-1.25,0,47.5)" id="g12"><g id="g14"><g clip-path="url(#clipPath18)" id="g16"><g transform="translate(33.3379,20.1479)" id="g22"><path d="m 0,0 c -0.367,0.33 -0.818,0.592 -1.338,0.852 -2,1 -5,0 -9,0 -2,0 -3.901,3 -9,3 -0.801,0 -2.256,-0.635 -4.341,-0.89 -0.039,1.053 -0.614,1.89 -1.326,1.89 -0.736,0 -1.333,-0.895 -1.333,-2 0,-0.051 0.007,-0.1 0.01,-0.15 -2.819,-0.766 -6.01,-4.439 -6.01,-6.225 0,-2 2,-3.625 2,-3.625 0,0 2.171,1 5,1 l 3,0 1,-10 c 0,0 -1,-1 -2,-1 -1,0 -1,-2 -1,-2 l 6,0 1,8 3,0 c 2,0 6,1 6,1 2,-3 4,-4 4,-4 l 0,-2 -2,-1 c -2,-1 -1,-2 -1,-2 l 6,0 c 0,0 1,8 2,13 0.233,1.162 0.353,2.101 0.382,2.881 0.396,-0.549 0.618,-1.183 0.618,-1.881 0,-2.93 0,-5.697 -1.832,-8.445 -0.307,-0.46 -0.183,-1.08 0.277,-1.387 0.171,-0.113 0.364,-0.168 0.554,-0.168 0.323,0 0.641,0.156 0.833,0.445 2.168,3.252 2.168,6.456 2.168,9.555 C 3.662,-2.851 2.267,-1.011 0,0" id="path24" style="fill:#ffac33;fill-opacity:1;fill-rule:nonzero;stroke:none"/></g><g transform="translate(7,20)" id="g26"><path d="m 0,0 c 0,-0.552 -0.448,-1 -1,-1 -0.552,0 -1,0.448 -1,1 0,0.552 0.448,1 1,1 0.552,0 1,-0.448 1,-1" id="path28" style="fill:#292f33;fill-opacity:1;fill-rule:nonzero;stroke:none"/></g><g transform="translate(1,17)" id="g30"><path d="M 0,0 C 0,0 0,-2 1,-2 1,0 2,0 2,0 2,0 1,1 0,0" id="path32" style="fill:#292f33;fill-opacity:1;fill-rule:nonzero;stroke:none"/></g></g></g><g id="g34"><g clip-path="url(#clipPath38)" id="g36"><g transform="translate(17,24)" id="g42"><path d="M 0,0 C 0,0 2,-6 0,-12 3,-8 3,0 3,0 3,0 1,1 0,0" id="path44" style="fill:#292f33;fill-opacity:1;fill-rule:nonzero;stroke:none"/></g><g transform="translate(20,23)" id="g46"><path d="M 0,0 C 0,0 2,-4 1,-9 3,-6 3,0 3,0 3,0 1,1 0,0" id="path48" style="fill:#292f33;fill-opacity:1;fill-rule:nonzero;stroke:none"/></g><g transform="translate(23,24)" id="g50"><path d="M 0,0 C 0,0 2,-4 1,-9 3,-6 3,0 3,0 3,0 1,1 0,0" id="path52" style="fill:#292f33;fill-opacity:1;fill-rule:nonzero;stroke:none"/></g><g transform="translate(26,25)" id="g54"><path d="M 0,0 C 0,0 2,-4 1,-9 3,-6 3,0 3,0 3,0 1,1 0,0" id="path56" style="fill:#292f33;fill-opacity:1;fill-rule:nonzero;stroke:none"/></g><g transform="translate(29,22.5557)" id="g58"><path d="M 0,0 C 0,0 2,-4 1,-9 3,-6 3,0 3,0 3,0 1,1 0,0" id="path60" style="fill:#292f33;fill-opacity:1;fill-rule:nonzero;stroke:none"/></g><g transform="translate(13,25)" id="g62"><path d="M 0,0 C 0,0 2,-4 1,-9 3,-6 3,0 3,0 3,0 1,1 0,0" id="path64" style="fill:#292f33;fill-opacity:1;fill-rule:nonzero;stroke:none"/></g></g></g></g></svg>
