<?xml version="1.0" encoding="UTF-8" standalone="no"?>
<!-- Created with Inkscape (http://www.inkscape.org/) -->

<svg
   xmlns:svg="http://www.w3.org/2000/svg"
   xmlns="http://www.w3.org/2000/svg"
   version="1.1"
   width="47.5"
   height="47.5"
   id="svg2"
   xml:space="preserve"><defs
     id="defs6"><clipPath
       id="clipPath18"><path
         d="M 0,38 38,38 38,0 0,0 0,38 z"
         id="path20" /></clipPath></defs><g
     transform="matrix(1.25,0,0,-1.25,0,47.5)"
     id="g12"><g
       id="g14"><g
         clip-path="url(#clipPath18)"
         id="g16"><g
           transform="translate(21.1426,4.7852)"
           id="g22"><path
             d="m 0,0 c 0,-1.183 -0.959,-2.143 -2.143,-2.143 -1.183,0 -2.143,0.96 -2.143,2.143 0,1.184 0.96,2.144 2.143,2.144 C -0.959,2.144 0,1.184 0,0"
             id="path24"
             style="fill:#e1e8ed;fill-opacity:1;fill-rule:nonzero;stroke:none" /></g><g
           transform="translate(28.6426,21.3569)"
           id="g26"><path
             d="m 0,0 c 0,5.326 -4.318,9.643 -9.643,9.643 -5.325,0 -9.643,-4.317 -9.643,-9.643 0,-5.357 -1.071,-16.572 -1.071,-16.572 0,-1.182 0.96,-2.142 2.143,-2.142 1.183,0 2.143,0.96 2.143,2.142 0,-1.182 0.959,-2.142 2.143,-2.142 1.183,0 2.142,0.96 2.142,2.142 l 4.286,0 c 0,-1.182 0.96,-2.142 2.144,-2.142 1.182,0 2.142,0.96 2.142,2.142 0,-1.182 0.959,-2.142 2.143,-2.142 1.183,0 2.142,0.96 2.142,2.142 C 1.071,-16.572 0,-5.357 0,0"
             id="path28"
             style="fill:#e1e8ed;fill-opacity:1;fill-rule:nonzero;stroke:none" /></g><g
           transform="translate(21,34)"
           id="g30"><path
             d="m 0,0 c 0,-2.209 -1.447,-6 -2,-6 -0.552,0 -2,3.791 -2,6 0,2.209 1.448,3 2,3 0.553,0 2,-0.791 2,-3"
             id="path32"
             style="fill:#dd2e44;fill-opacity:1;fill-rule:nonzero;stroke:none" /></g><g
           transform="translate(16.6348,4)"
           id="g34"><path
             d="M 0,0 C 0,2.612 1.711,8 2.365,8 3.019,8 4.73,2.612 4.73,0 4.73,-2.612 3.018,-3 2.365,-3 1.711,-3 0,-2.612 0,0"
             id="path36"
             style="fill:#dd2e44;fill-opacity:1;fill-rule:nonzero;stroke:none" /></g><g
           transform="translate(26,14.5)"
           id="g38"><path
             d="m 0,0 c 0,-1.5 -4.791,-4.5 -7,-4.5 -2.209,0 -7,3 -7,4.5 0,1.5 4.791,4.5 7,4.5 2.209,0 7,-3 7,-4.5"
             id="path40"
             style="fill:#f4900c;fill-opacity:1;fill-rule:nonzero;stroke:none" /></g><g
           transform="translate(26,14.5)"
           id="g42"><path
             d="m 0,0 c 0,-1.5 -14,-1.5 -14,0 0,1.5 4.791,4.5 7,4.5 2.209,0 7,-3 7,-4.5"
             id="path44"
             style="fill:#ffac33;fill-opacity:1;fill-rule:nonzero;stroke:none" /></g><g
           transform="translate(14,18.5)"
           id="g46"><path
             d="M 0,0 C 0,-0.828 -0.671,-1.5 -1.5,-1.5 -2.329,-1.5 -3,-0.828 -3,0 -3,0.829 -2.329,1.5 -1.5,1.5 -0.671,1.5 0,0.829 0,0"
             id="path48"
             style="fill:#292f33;fill-opacity:1;fill-rule:nonzero;stroke:none" /></g><g
           transform="translate(27,18.5)"
           id="g50"><path
             d="M 0,0 C 0,-0.828 -0.672,-1.5 -1.5,-1.5 -2.328,-1.5 -3,-0.828 -3,0 -3,0.829 -2.328,1.5 -1.5,1.5 -0.672,1.5 0,0.829 0,0"
             id="path52"
             style="fill:#292f33;fill-opacity:1;fill-rule:nonzero;stroke:none" /></g></g></g></g></svg>