<svg xmlns="http://www.w3.org/2000/svg" viewBox="0 0 47.5 47.5" enable-background="new 0 0 47.5 47.5"><defs><clipPath id="a"><path d="M0 38h38V0H0v38z"/></clipPath></defs><g><g><g clip-path="url(#a)" transform="matrix(1.25 0 0 -1.25 0 47.5)"><g><path fill="#553788" d="M11 25c3-5 0-10.7-3-9.7s-4-2-1-3 9.46.47 13 4c1 1 2 1 2 1L11 25z"/></g><g><path fill="#553788" d="M27 25c-3-5 0-10.7 3-9.7s4-2 1-3-9.46.47-13 4c-1 1-2 1-2 1L27 25z"/></g><g><path fill="#744eaa" d="M31.2 21c-3-5 0-10.7 3-9.7s4-2 1-3-9.48.47-13 4c-1 1-2 1-2 1l11 7.7z"/></g><g><path fill="#744eaa" d="M6.8 21c3-5 0-10.7-3-9.7s-4-2-1-3 9.48.47 13 4c1 1 2 1 2 1L6.8 21z"/></g><g><path fill="#9266cc" d="M34.2 5.63c-2.74-.9-6.44 5.62-4.82 10.57C31.02 19.45 32 23.06 32 26c0 7.18-5.82 11-13 11S6 33.18 6 26c0-2.94.98-6.55 2.62-9.8 1.62-4.95-2.08-11.48-4.8-10.57-3 1-4-3-1-4s8.3.62 12 4c2.18 2 4.18 2 4.18 2s2 0 4.2-2c3.68-3.38 9-5 12-4s2 5-1 4"/></g><g><path fill="#292f33" d="M17 16c0-1.1-.9-2-2-2s-2 .9-2 2 .9 2 2 2 2-.9 2-2"/></g><g><path fill="#292f33" d="M25 16c0-1.1-.9-2-2-2s-2 .9-2 2 .9 2 2 2 2-.9 2-2"/></g></g></g></g></svg>