<svg xmlns="http://www.w3.org/2000/svg" viewBox="0 0 47.5 47.5" enable-background="new 0 0 47.5 47.5"><defs><clipPath id="a"><path d="M0 38h38V0H0v38z"/></clipPath><clipPath id="b"><path d="M25.83 31.53l-10.5-1.33c-2.9-.37-4.95-3.6-4.58-7.24L12.08 9.8c.36-3.63 3.73-6.18 5.9-5.9 3.4.42 14.2 17.46 13.76 21.72-.4 3.92-2.63 5.95-5.25 5.95-.23 0-.45 0-.67-.04"/></clipPath><clipPath id="c"><path d="M0 38h38V0H0v38z"/></clipPath><clipPath id="d"><path d="M17.67 35.23l-7.8-1c-2.14-.26-3.66-2.67-3.4-5.36l1-9.76c.27-2.7 2.77-4.58 4.38-4.38 2.52.32 10.52 12.97 10.2 16.12-.3 2.9-1.95 4.42-3.9 4.42-.15 0-.32 0-.48-.03"/></clipPath><clipPath id="e"><path d="M0 38h38V0H0v38z"/></clipPath></defs><g><g><g clip-path="url(#a)" transform="matrix(1.25 0 0 -1.25 0 47.5)"><g><path fill="#ccd6dd" d="M30.05 29.97c4.42-4.43 5.7-21.37 1.3-25.8-4.44-4.4-12.2-3.77-16.62.65-2.98 2.98-3.83 10.95.6 15.38 4.4 4.42 10.3 14.2 14.72 9.77"/></g><g><path fill="#ccd6dd" d="M18 3.9c-2.2-.28-5.56 2.27-5.92 5.9l-1.33 13.16c-.37 3.63 1.68 6.87 4.58 7.24l10.5 1.33c2.9.36 5.48-1.67 5.9-5.9C32.18 21.35 21.4 4.32 18 3.88"/></g></g></g><g><g clip-path="url(#b)" transform="matrix(1.25 0 0 -1.25 0 47.5)"><g><path fill="#99aab5" d="M11.35 10.53c-2.17-.27-5.55 2.28-5.92 5.92L4.1 29.6c-.36 3.63 1.7 6.88 4.6 7.24l10.5 1.33c2.9.37 5.47-1.66 5.9-5.9.43-4.26-10.36-21.3-13.75-21.74"/></g></g></g><g><g clip-path="url(#c)" transform="matrix(1.25 0 0 -1.25 0 47.5)"><g><path fill="#ccd6dd" d="M11.85 14.72c-1.6-.2-4.1 1.7-4.4 4.4l-.97 9.75c-.27 2.7 1.25 5.1 3.4 5.37l7.8 1c2.14.26 4.06-1.25 4.37-4.4.32-3.15-7.68-15.8-10.2-16.12"/></g></g></g><g><g clip-path="url(#d)" transform="matrix(1.25 0 0 -1.25 0 47.5)"><g><path fill="#99aab5" d="M6.35 20.22c-1.6-.2-4.1 1.7-4.4 4.4L1 34.36c-.27 2.7 1.25 5.1 3.4 5.37l7.8.98c2.14.28 4.06-1.23 4.38-4.38.3-3.16-7.7-15.8-10.2-16.12"/></g></g></g><g><g clip-path="url(#e)" transform="matrix(1.25 0 0 -1.25 0 47.5)"><g><path fill="#ccd6dd" d="M7.25 24.2c-1-.13-2.54 1.04-2.7 2.7l-.6 6c-.18 1.66.76 3.14 2.08 3.3l4.8.62c1.32.16 2.5-.76 2.7-2.7.2-1.95-4.73-9.73-6.28-9.93"/></g><g><path fill="#66757f" d="M31.6 22.6c.8-2.37 1.55-11.57-1.52-15.54-3.08-3.97-8.05 1.4-5.3 6.2C27.5 18.1 30.8 25 31.6 22.6"/></g></g></g></g></svg>