<?xml version="1.0" encoding="UTF-8" standalone="no"?>
<!-- Created with Inkscape (http://www.inkscape.org/) -->

<svg
   xmlns:svg="http://www.w3.org/2000/svg"
   xmlns="http://www.w3.org/2000/svg"
   version="1.1"
   width="47.5"
   height="47.5"
   id="svg2"
   xml:space="preserve"><defs
     id="defs6"><clipPath
       id="clipPath18"><path
         d="M 0,38 38,38 38,0 0,0 0,38 z"
         id="path20" /></clipPath></defs><g
     transform="matrix(1.25,0,0,-1.25,0,47.5)"
     id="g12"><g
       id="g14"><g
         clip-path="url(#clipPath18)"
         id="g16"><g
           transform="translate(12.9829,33.438)"
           id="g22"><path
             d="m 0,0 c 4.543,0.262 7.824,-1.597 8.089,-6.826 0.215,-4.19 -5.183,-6.79 -8.046,-6.879 -2.462,-0.077 -1.353,1.853 0.61,2.335 1.576,0.387 4.123,2.412 3.602,4.44 -0.597,2.32 -4.315,2.684 -6.351,-0.292 -0.798,-1.167 -3.553,-0.872 -4.095,0.434 C -7.149,-4.48 -4.981,-0.287 0,0"
             id="path24"
             style="fill:#ffac33;fill-opacity:1;fill-rule:nonzero;stroke:none" /></g><g
           transform="translate(36.75,15.6162)"
           id="g26"><path
             d="m 0,0 c 0,7.783 -4.495,11.407 -14.519,11.407 -1.086,0 -2.083,-0.051 -3.018,-0.137 -1.36,2.423 -4.845,2.828 -8.213,2.828 -4.304,0 -10,-6.145 -10,-10.839 0,-4.609 3.606,-4.866 7.811,-4.874 0.233,-3.245 1.226,-5.647 3.249,-7.26 0.277,-1.15 1.534,-5.741 3.94,-5.741 1.353,0 2.099,1.695 2.51,3.417 1.128,-0.136 2.359,-0.209 3.721,-0.209 1.733,0 3.289,0.116 4.696,0.335 0.09,-1.657 0.531,-3.543 2.073,-3.543 2.317,0 4.273,4.956 4.834,6.52 C -0.947,-6.226 0,-3.55 0,0"
             id="path28"
             style="fill:#e1e8ed;fill-opacity:1;fill-rule:nonzero;stroke:none" /></g><g
           transform="translate(7,21.2139)"
           id="g30"><path
             d="M 0,0 C 0,-0.828 -0.671,-1.5 -1.5,-1.5 -2.329,-1.5 -3,-0.828 -3,0 -3,0.829 -2.329,1.5 -1.5,1.5 -0.671,1.5 0,0.829 0,0"
             id="path32"
             style="fill:#292f33;fill-opacity:1;fill-rule:nonzero;stroke:none" /></g><g
           transform="translate(18.5625,32.6611)"
           id="g34"><path
             d="M 0,0 C 4.312,-1.455 5.74,-4.148 4.034,-9.099 2.667,-13.065 -3.311,-13.46 -6,-12.474 c -2.313,0.849 -0.562,2.224 1.438,1.938 1.606,-0.23 4.727,0.698 4.999,2.773 0.313,2.375 -3,4.102 -5.999,2.102 -1.177,-0.785 -5.775,-0.43 -5.501,0.958 C -10.425,-1.478 -4.728,1.595 0,0"
             id="path36"
             style="fill:#ffcc4d;fill-opacity:1;fill-rule:nonzero;stroke:none" /></g></g></g></g></svg>