<?xml version="1.0" encoding="UTF-8" standalone="no"?><svg xmlns:dc="http://purl.org/dc/elements/1.1/" xmlns:cc="http://creativecommons.org/ns#" xmlns:rdf="http://www.w3.org/1999/02/22-rdf-syntax-ns#" xmlns:svg="http://www.w3.org/2000/svg" xmlns="http://www.w3.org/2000/svg" viewBox="0 0 47.5 47.5" style="enable-background:new 0 0 47.5 47.5;" xml:space="preserve" version="1.1" id="svg2"><metadata id="metadata8"><rdf:RDF><cc:Work rdf:about=""><dc:format>image/svg+xml</dc:format><dc:type rdf:resource="http://purl.org/dc/dcmitype/StillImage"/></cc:Work></rdf:RDF></metadata><defs id="defs6"><clipPath id="clipPath16" clipPathUnits="userSpaceOnUse"><path id="path18" d="M 0,38 38,38 38,0 0,0 0,38 Z"/></clipPath></defs><g transform="matrix(1.25,0,0,-1.25,0,47.5)" id="g10"><g id="g12"><g clip-path="url(#clipPath16)" id="g14"><g transform="translate(21.1426,4.7852)" id="g20"><path id="path22" style="fill:#e1e8ed;fill-opacity:1;fill-rule:nonzero;stroke:none" d="m 0,0 c 0,-1.183 -0.959,-2.143 -2.143,-2.143 -1.183,0 -2.143,0.96 -2.143,2.143 0,1.184 0.96,2.144 2.143,2.144 C -0.959,2.144 0,1.184 0,0"/></g><g transform="translate(28.6426,21.3569)" id="g24"><path id="path26" style="fill:#e1e8ed;fill-opacity:1;fill-rule:nonzero;stroke:none" d="m 0,0 c 0,5.326 -4.318,9.643 -9.643,9.643 -5.325,0 -9.643,-4.317 -9.643,-9.643 0,-5.357 -1.071,-16.572 -1.071,-16.572 0,-1.182 0.96,-2.142 2.143,-2.142 1.183,0 2.143,0.96 2.143,2.142 0,-1.182 0.959,-2.142 2.143,-2.142 1.183,0 2.142,0.96 2.142,2.142 l 4.286,0 c 0,-1.182 0.96,-2.142 2.144,-2.142 1.182,0 2.142,0.96 2.142,2.142 0,-1.182 0.959,-2.142 2.143,-2.142 1.183,0 2.142,0.96 2.142,2.142 C 1.071,-16.572 0,-5.357 0,0"/></g><g transform="translate(21,34)" id="g28"><path id="path30" style="fill:#dd2e44;fill-opacity:1;fill-rule:nonzero;stroke:none" d="m 0,0 c 0,-2.209 -1.447,-6 -2,-6 -0.552,0 -2,3.791 -2,6 0,2.209 1.448,3 2,3 0.553,0 2,-0.791 2,-3"/></g><g transform="translate(16.6348,4)" id="g32"><path id="path34" style="fill:#dd2e44;fill-opacity:1;fill-rule:nonzero;stroke:none" d="M 0,0 C 0,2.612 1.711,8 2.365,8 3.019,8 4.73,2.612 4.73,0 4.73,-2.612 3.018,-3 2.365,-3 1.711,-3 0,-2.612 0,0"/></g><g transform="translate(26,14.5)" id="g36"><path id="path38" style="fill:#f4900c;fill-opacity:1;fill-rule:nonzero;stroke:none" d="m 0,0 c 0,-1.5 -4.791,-4.5 -7,-4.5 -2.209,0 -7,3 -7,4.5 0,1.5 4.791,4.5 7,4.5 2.209,0 7,-3 7,-4.5"/></g><g transform="translate(26,14.5)" id="g40"><path id="path42" style="fill:#ffac33;fill-opacity:1;fill-rule:nonzero;stroke:none" d="m 0,0 c 0,-1.5 -14,-1.5 -14,0 0,1.5 4.791,4.5 7,4.5 2.209,0 7,-3 7,-4.5"/></g><g transform="translate(14,18.5)" id="g44"><path id="path46" style="fill:#292f33;fill-opacity:1;fill-rule:nonzero;stroke:none" d="M 0,0 C 0,-0.828 -0.671,-1.5 -1.5,-1.5 -2.329,-1.5 -3,-0.828 -3,0 -3,0.829 -2.329,1.5 -1.5,1.5 -0.671,1.5 0,0.829 0,0"/></g><g transform="translate(27,18.5)" id="g48"><path id="path50" style="fill:#292f33;fill-opacity:1;fill-rule:nonzero;stroke:none" d="M 0,0 C 0,-0.828 -0.672,-1.5 -1.5,-1.5 -2.328,-1.5 -3,-0.828 -3,0 -3,0.829 -2.328,1.5 -1.5,1.5 -0.672,1.5 0,0.829 0,0"/></g></g></g></g></svg>
