<svg xmlns="http://www.w3.org/2000/svg" viewBox="0 0 47.5 47.5" enable-background="new 0 0 47.5 47.5"><defs><clipPath id="a"><path d="M0 38h38V0H0v38z"/></clipPath></defs><g><g><g clip-path="url(#a)" transform="matrix(1.25 0 0 -1.25 0 47.5)"><g><path fill="#662113" d="M30 21.1s6 0 4 6c-1 3 1 1 2-1s2-8-5-7-1 2-1 2"/></g><g><path fill="#d99e82" d="M33.96 17.16c.02.3.04.6.04.84 0 .66-.06 1-.17 1.12-.9 2.95-5.52 2.9-10.85 2.88-3 .03-4.98 4.1-4.98 5 0 5-4.85 6.18-7.5 3C8 27 3 30.04 3 27c0-5 3.36-8 7.5-8 .65 0 1.74.15 3 .38.95-1.65 1.4-3.88 1.5-4.38.02-.12.05-.23.07-.35C15.5 10.03 17.77 1 19 1c1.07 0 1.68 2.48 1.9 5.4.9-.26 1.9-.4 3.1-.4 1.1 0 2.14.25 3.08.66C27.28 3.63 27.9 1 29 1c1.3 0 4.54 11.5 4.96 16.14 0 0 0 0 0 .02"/></g><g><path fill="#662113" d="M5 26.5c0-.83-1.17-1.5-2-1.5-.83 0-1.5 1.17-1.5 2 0 .83.67 1 1.5 1 2 0 2-.67 2-1.5"/></g><g><path fill="#662113" d="M19 25c0-3.04-1.34-3.5-3-3.5s-3 .46-3 3.5.34 7 2 7 4-3.96 4-7"/></g><g><path fill="#292f33" d="M12 28c0-.55-.45-1-1-1s-1 .45-1 1 .45 1 1 1 1-.45 1-1"/></g><g><path fill="#c1694f" d="M32 17.5c0-1.38-1.34-2.5-3-2.5s-3 1.12-3 2.5 1.34 2.5 3 2.5 3-1.12 3-2.5"/></g><g><path fill="#c1694f" d="M25 18.5c0-.83-.67-1.5-1.5-1.5s-1.5.67-1.5 1.5.67 1.5 1.5 1.5 1.5-.67 1.5-1.5"/></g><g><path fill="#c1694f" d="M27 13.5c0-.83-.67-1.5-1.5-1.5s-1.5.67-1.5 1.5.67 1.5 1.5 1.5 1.5-.67 1.5-1.5"/></g></g></g></g></svg>