<?xml version="1.0" encoding="UTF-8" standalone="no"?><svg xmlns:dc="http://purl.org/dc/elements/1.1/" xmlns:cc="http://creativecommons.org/ns#" xmlns:rdf="http://www.w3.org/1999/02/22-rdf-syntax-ns#" xmlns:svg="http://www.w3.org/2000/svg" xmlns="http://www.w3.org/2000/svg" viewBox="0 0 47.5 47.5" style="enable-background:new 0 0 47.5 47.5;" xml:space="preserve" version="1.1" id="svg2"><metadata id="metadata8"><rdf:RDF><cc:Work rdf:about=""><dc:format>image/svg+xml</dc:format><dc:type rdf:resource="http://purl.org/dc/dcmitype/StillImage"/></cc:Work></rdf:RDF></metadata><defs id="defs6"><clipPath id="clipPath16" clipPathUnits="userSpaceOnUse"><path id="path18" d="M 0,38 38,38 38,0 0,0 0,38 Z"/></clipPath></defs><g transform="matrix(1.25,0,0,-1.25,0,47.5)" id="g10"><g id="g12"><g clip-path="url(#clipPath16)" id="g14"><g transform="translate(11,25)" id="g20"><path id="path22" style="fill:#553788;fill-opacity:1;fill-rule:nonzero;stroke:none" d="m 0,0 c 3,-5 0,-10.692 -3,-9.692 -3,1 -4,-2 -1,-3 3,-1 9.465,0.464 13,4 1,1 2,1 2,1 L 0,0 Z"/></g><g transform="translate(27,25)" id="g24"><path id="path26" style="fill:#553788;fill-opacity:1;fill-rule:nonzero;stroke:none" d="m 0,0 c -3,-5 0,-10.692 3,-9.692 3,1 4,-2 1,-3 -3,-1 -9.465,0.464 -13,4 -1,1 -2,1 -2,1 L 0,0 Z"/></g><g transform="translate(31.1885,21)" id="g28"><path id="path30" style="fill:#744eaa;fill-opacity:1;fill-rule:nonzero;stroke:none" d="m 0,0 c -3,-5 0,-10.692 3,-9.692 3,1 4,-2 1,-3 -3,-1 -9.465,0.464 -13,4 -1,1 -2,1 -2,1 L 0,0 Z"/></g><g transform="translate(6.8115,21)" id="g32"><path id="path34" style="fill:#744eaa;fill-opacity:1;fill-rule:nonzero;stroke:none" d="m 0,0 c 3,-5 0,-10.692 -3,-9.692 -3,1 -4,-2 -1,-3 3,-1 9.465,0.464 13,4 1,1 2,1 2,1 L 0,0 Z"/></g><g transform="translate(34.1885,5.625)" id="g36"><path id="path38" style="fill:#9266cc;fill-opacity:1;fill-rule:nonzero;stroke:none" d="m 0,0 c -2.729,-0.91 -6.425,5.626 -4.812,10.578 1.646,3.243 2.624,6.857 2.624,9.797 0,7.18 -5.821,11 -13,11 -7.18,0 -13,-3.82 -13,-11 0,-2.94 0.977,-6.554 2.623,-9.797 C -23.952,5.626 -27.647,-0.91 -30.377,0 c -3,1 -4,-3 -1,-4 3,-1 8.31,0.627 12,4 2.189,2 4.189,2 4.189,2 0,0 2,0 4.188,-2 3.69,-3.373 9,-5 12,-4 3,1 2,5 -1,4"/></g><g transform="translate(17,16)" id="g40"><path id="path42" style="fill:#292f33;fill-opacity:1;fill-rule:nonzero;stroke:none" d="m 0,0 c 0,-1.104 -0.896,-2 -2,-2 -1.104,0 -2,0.896 -2,2 0,1.104 0.896,2 2,2 1.104,0 2,-0.896 2,-2"/></g><g transform="translate(25,16)" id="g44"><path id="path46" style="fill:#292f33;fill-opacity:1;fill-rule:nonzero;stroke:none" d="m 0,0 c 0,-1.104 -0.896,-2 -2,-2 -1.104,0 -2,0.896 -2,2 0,1.104 0.896,2 2,2 1.104,0 2,-0.896 2,-2"/></g></g></g></g></svg>
