<svg xmlns="http://www.w3.org/2000/svg" viewBox="0 0 47.5 47.5" enable-background="new 0 0 47.5 47.5"><defs><clipPath id="a"><path d="M0 38h38V0H0v38z"/></clipPath></defs><g><g><g clip-path="url(#a)" transform="matrix(1.25 0 0 -1.25 0 47.5)"><g><path fill="#aa8dd8" d="M8.4 33c1 1 .26 4-1.42 4-1.7 0-1.57-2-.57-2s1-2 1-3 1 1 1 1"/></g><g><path fill="#aa8dd8" d="M4.23 31.28c1 1 .25 4-1.43 4-1.7 0-1.57-2-.57-2s1-2 1-3 1 1 1 1"/></g><g><path fill="#744eaa" d="M30.6 4.14c.2-.8 1.23-2.28 2.04-2.1.8.2 1.08 1.98.9 2.8-.2.8-1 1.3-1.82 1.1-.8-.18-1.3-1-1.1-1.8"/></g><g><path fill="#744eaa" d="M25.17 3.5c0-.83.68-2.5 1.5-2.5.84 0 1.5 1.68 1.5 2.5 0 .84-.67 1.5-1.5 1.5s-1.5-.68-1.5-1.5"/></g><g><path fill="#744eaa" d="M19.9 5.94c-.32-.76-.36-2.56.4-2.9.76-.3 2.04.96 2.36 1.72.33.76-.03 1.64-.8 1.97-.75.33-1.63-.03-1.96-.8"/></g><g><path fill="#744eaa" d="M14.87 16.98c-.8-.17-2.3-1.17-2.14-1.98.18-.8 1.95-1.13 2.76-.96.8.18 1.32.97 1.15 1.78-.17.8-.97 1.33-1.78 1.16"/></g><g><path fill="#744eaa" d="M12.83 21.98c-.8-.17-2.3-1.17-2.14-1.98.17-.8 1.94-1.13 2.75-.96.8.18 1.33.97 1.16 1.78-.16.8-.95 1.33-1.77 1.16"/></g><g><path fill="#9266cc" d="M28.24 3c2.84 0 4.93.88 5.27 1.03 2.28 1 3.3 3.67 2.3 5.94-1 2.25-3.62 3.27-5.88 2.3-.13-.04-1.8-.64-3.34.08-1.85.87-3 3.3-3.63 5.2-.14.44-.38 1.3-.68 2.33-1.87 6.47-2.84 8.28-4 9.82-3.7 4.95-9.58 5.3-12.47 4.7-2.44-.47-4.02-2.84-3.53-5.28.5-2.44 2.86-4.02 5.3-3.53.16 0 2.2.3 3.42-1.18.63-1.3 2.07-5.13 2.62-7.03.34-1.2.63-2.2.8-2.68C16.17 9.4 19.07 5.82 23 4.1c1.85-.83 3.65-1.1 5.22-1.1"/></g><g><path fill="#fff" d="M6.68 32c0-.55.45-1 1-1s1 .45 1 1-.45 1-1 1-1-.45-1-1"/></g><g><path fill="#744eaa" d="M31.92 4.04c-.1 0-.18 0-.27.03-.53.15-.84.7-.7 1.23.76 2.73-.76 4.55-.78 4.56-.36.42-.3 1.05.1 1.4.43.37 1.06.33 1.42-.1.08-.1 2.22-2.65 1.2-6.4-.14-.43-.54-.72-.98-.72"/></g><g><path fill="#744eaa" d="M24.72 4.6c-.24 0-.5.1-.68.27-.4.38-.42 1-.05 1.4 1.48 1.6 1.45 4.2 1.45 4.23-.02.55.4 1 .97 1.03.54 0 1-.42 1.03-.97 0-.14.07-3.44-2-5.65-.2-.2-.46-.3-.73-.3"/></g><g><path fill="#744eaa" d="M16.18 13.3c-.48 0-.9.34-.98.83-.1.55.27 1.06.82 1.15 3.07.5 4.77 2.38 4.8 2.4.36.4 1 .45 1.4.08.4-.36.45-1 .1-1.4-.1-.1-2.17-2.42-5.97-3.05-.06 0-.1 0-.17 0"/></g><g><path fill="#744eaa" d="M19.1 8.44c-.42 0-.82.27-.95.7-.17.52.12 1.1.65 1.25 2.7.84 3.88 2.82 3.9 2.84.27.48.88.64 1.36.36.48-.28.64-.9.36-1.37-.07-.1-1.6-2.66-5.02-3.74-.1-.05-.2-.06-.3-.06"/></g><g><path fill="#744eaa" d="M14.48 19.1c-.5 0-.92.38-1 .88-.06.55.33 1.05.88 1.12 2.7.34 4.66 1.97 4.68 2 .42.34 1.05.3 1.4-.13.36-.42.3-1.05-.1-1.4-.1-.1-2.43-2.04-5.73-2.45-.03 0-.07 0-.12 0"/></g><g><path fill="#744eaa" d="M12.66 23.87c-.42 0-.82.28-.95.7-.16.53.14 1.1.66 1.26 3.13.98 4.26 2.7 4.3 2.76.3.46.9.6 1.38.3.46-.3.6-.9.32-1.36-.06-.1-1.5-2.4-5.4-3.62-.1-.03-.2-.05-.3-.05"/></g></g></g></g></svg>