<svg xmlns="http://www.w3.org/2000/svg" viewBox="0 0 47.5 47.5" enable-background="new 0 0 47.5 47.5"><defs><clipPath id="a"><path d="M0 38h38V0H0v38z"/></clipPath></defs><g><g><g clip-path="url(#a)" transform="matrix(1.25 0 0 -1.25 0 47.5)"><g><path fill="#d99e82" d="M12.12 31.05c1.7-2.85.74-6.53-2.12-8.22-2.85-1.68-4.32-2.68-6 .17-1.68 2.85-2.48 12.24-1.62 12.75.86.5 8.06-1.85 9.74-4.7"/></g><g><path fill="#c1694f" d="M12 27.22c1.7-2.86 1.18-6.28-1.15-7.65C8.53 18.2 6.68 19.4 5 22.25 3.32 25.1 2.53 32.07 3.23 32.5c.7.4 7.1-2.43 8.78-5.28"/></g><g><path fill="#d99e82" d="M25.88 31.05c-1.7-2.85-.74-6.53 2.12-8.22 2.85-1.68 4.32-2.68 6 .17 1.7 2.85 2.48 12.24 1.62 12.75-.86.5-8.06-1.85-9.74-4.7"/></g><g><path fill="#c1694f" d="M25.62 27.6c-1.68-2.84-1.17-6.27 1.16-7.64 2.32-1.37 4.54-.17 6.22 2.7 1.7 2.84 2.1 9.8 1.4 10.22-.7.4-7.1-2.4-8.78-5.27"/></g><g><path fill="#d99e82" d="M36 15.52C36 5.52 35 1 19 1S2 5.53 2 15.52C2 25.52 9 35 19 35s17-9.5 17-19.48"/></g><g><path fill="#e1e8ed" d="M8.65 8S5 11 4 19.5c-.22 2 1.7 1.98 2 0C7 13 12.37 9 15 7c2.25-1.7-6.35 1-6.35 1"/></g><g><path fill="#e1e8ed" d="M29.35 8S33 11 34 19.5c.22 2-1.7 1.98-2 0C31 13 25.63 9 23 7c-2.25-1.7 6.35 1 6.35 1"/></g><g><path fill="#662113" d="M30 8c0-1.1-3.82-3-11-3S8 6.9 8 8s3.82-1 11-1 11 2.1 11 1"/></g><g><path fill="#c1694f" d="M29 13.88c0-4.5-3.1-9.38-10-9.38S9 9.4 9 13.88s3.1 5.62 10 5.62 10-1.14 10-5.63"/></g><g><path fill="#662113" d="M16 12.4c0-1.86-.34-2.4-1.5-2.4s-1.5.54-1.5 2.4c0 1.86.34 2.4 1.5 2.4s1.5-.54 1.5-2.4"/></g><g><path fill="#662113" d="M25 12.4c0-1.86-.34-2.4-1.5-2.4s-1.5.54-1.5 2.4c0 1.86.34 2.4 1.5 2.4s1.5-.54 1.5-2.4"/></g><g><path fill="#292f33" d="M14 22c0-1.1-.9-2-2-2s-2 .9-2 2 .9 2 2 2 2-.9 2-2"/></g><g><path fill="#292f33" d="M28 22c0-1.1-.9-2-2-2s-2 .9-2 2 .9 2 2 2 2-.9 2-2"/></g></g></g></g></svg>