<?xml version="1.0" encoding="UTF-8" standalone="no"?><svg xmlns:svg="http://www.w3.org/2000/svg" xmlns="http://www.w3.org/2000/svg" version="1.1" viewBox="0 0 47.5 47.5" style="enable-background:new 0 0 47.5 47.5;" id="svg2" xml:space="preserve"><defs id="defs6"><clipPath id="clipPath18"><path d="M 0,38 38,38 38,0 0,0 0,38 z" id="path20"/></clipPath></defs><g transform="matrix(1.25,0,0,-1.25,0,47.5)" id="g12"><g id="g14"><g clip-path="url(#clipPath18)" id="g16"><g transform="translate(25.8799,3.9033)" id="g22"><path d="m 0,0 c -0.098,0.18 -0.25,0.302 -0.418,0.391 -1.597,1.706 -0.462,3.707 -0.462,3.707 0,0.552 1,2 0,2 l -1,-1 c -1,-1 -1,-4 -1,-4 l -2,0 c -0.553,0 -1,-0.448 -1,-1 0,-0.553 0.447,-1 1,-1 l 1.108,0 -0.222,-0.12 c -0.486,-0.263 -0.667,-0.87 -0.404,-1.356 0.262,-0.486 0.869,-0.667 1.355,-0.404 l 2.639,1.427 C 0.082,-1.093 0.263,-0.486 0,0" id="path24" style="fill:#ffac33;fill-opacity:1;fill-rule:nonzero;stroke:none"/></g><g transform="translate(18.8799,3.9033)" id="g26"><path d="m 0,0 c -0.097,0.18 -0.25,0.302 -0.417,0.391 -1.597,1.706 -0.463,3.707 -0.463,3.707 0,0.552 1,2 0,2 l -1,-1 c -1,-1 -1,-4 -1,-4 l -2,0 c -0.553,0 -1,-0.448 -1,-1 0,-0.553 0.447,-1 1,-1 l 1.108,0 -0.222,-0.12 c -0.486,-0.263 -0.667,-0.87 -0.404,-1.356 0.262,-0.486 0.869,-0.667 1.355,-0.404 l 2.639,1.427 C 0.082,-1.093 0.263,-0.486 0,0" id="path28" style="fill:#ffac33;fill-opacity:1;fill-rule:nonzero;stroke:none"/></g><g transform="translate(8.5156,27)" id="g30"><path d="M 0,0 C 0,-1.104 -1.119,-2 -2.5,-2 -3.881,-2 -6,-1 -6,0 -6,1 -3.881,2 -2.5,2 -1.119,2 0,1.104 0,0" id="path32" style="fill:#ffac33;fill-opacity:1;fill-rule:nonzero;stroke:none"/></g><g transform="translate(14.5156,35)" id="g34"><path d="m 0,0 c -2,1 -3,-1 -3,-1 0,0 0,3 -3,3 -3,0 -3,-3 -3,-3 0,0 -3,0.938 -3,-2 0,-1.482 1.101,-2.411 2.484,-2.387 l 0,-4.613 c 0,-1 0.264,-3 -0.736,-4 -1,-1 -2.485,-4 0.515,-4 3,0 3,4 3,7 1,-1 4,-1 4,4 0,0.867 -0.213,1.512 -0.55,2 L -2,-5 c 4,0 4,4 2,5" id="path36" style="fill:#dd2e44;fill-opacity:1;fill-rule:nonzero;stroke:none"/></g><g transform="translate(33.5156,28)" id="g38"><path d="m 0,0 c 4,-10 0,-22 -13,-22 -7.732,0 -13,6 -14,11 -1.177,5.883 -1,8 -1,12 0,2.738 2.118,4.824 5,4 7,-2 5,-10 12,-10 10,0 8.23,11.923 11,5" id="path40" style="fill:#e1e8ed;fill-opacity:1;fill-rule:nonzero;stroke:none"/></g><g transform="translate(9.5156,29)" id="g42"><path d="m 0,0 c 0,-0.552 -0.447,-1 -1,-1 -0.553,0 -1,0.448 -1,1 0,0.552 0.447,1 1,1 0.553,0 1,-0.448 1,-1" id="path44" style="fill:#292f33;fill-opacity:1;fill-rule:nonzero;stroke:none"/></g></g></g></g></svg>
