<svg xmlns="http://www.w3.org/2000/svg" viewBox="0 0 47.5 47.5" enable-background="new 0 0 47.5 47.5"><defs><clipPath id="a"><path d="M0 38h38V0H0v38z"/></clipPath></defs><g><g><g clip-path="url(#a)" transform="matrix(1.25 0 0 -1.25 0 47.5)"><g><path fill="#ffac33" d="M25.88 3.9c-.1.18-.25.3-.42.4C23.86 6 25 8 25 8c0 .55 1 2 0 2l-1-1c-1-1-1-4-1-4h-2c-.55 0-1-.45-1-1s.45-1 1-1h1.1l-.2-.12c-.5-.26-.68-.87-.42-1.35.26-.5.87-.67 1.36-.4l2.64 1.42c.48.26.66.87.4 1.35"/></g><g><path fill="#ffac33" d="M18.88 3.9c-.1.18-.25.3-.42.4C16.86 6 18 8 18 8c0 .55 1 2 0 2l-1-1c-1-1-1-4-1-4h-2c-.55 0-1-.45-1-1s.45-1 1-1h1.1l-.2-.12c-.5-.26-.68-.87-.42-1.35.26-.5.87-.67 1.36-.4l2.64 1.42c.48.26.66.87.4 1.35"/></g><g><path fill="#ffac33" d="M8.52 27c0-1.1-1.12-2-2.5-2-1.4 0-3.5 1-3.5 2s2.1 2 3.5 2c1.38 0 2.5-.9 2.5-2"/></g><g><path fill="#dd2e44" d="M14.52 35c-2 1-3-1-3-1s0 3-3 3-3-3-3-3-3 .94-3-2c0-1.48 1.1-2.4 2.48-2.4V25c0-1 .26-3-.74-4s-2.48-4 .52-4 3 4 3 7c1-1 4-1 4 4 0 .87-.2 1.5-.55 2h1.3c4 0 4 4 2 5"/></g><g><path fill="#e1e8ed" d="M33.52 28c4-10 0-22-13-22-7.74 0-13 6-14 11-1.18 5.88-1 8-1 12 0 2.74 2.1 4.82 5 4 7-2 5-10 12-10 10 0 8.23 11.92 11 5"/></g><g><path fill="#292f33" d="M9.52 29c0-.55-.45-1-1-1-.56 0-1 .45-1 1s.44 1 1 1c.55 0 1-.45 1-1"/></g></g></g></g></svg>