<?xml version="1.0" encoding="UTF-8" standalone="no"?>
<!-- Created with Inkscape (http://www.inkscape.org/) -->

<svg
   xmlns:svg="http://www.w3.org/2000/svg"
   xmlns="http://www.w3.org/2000/svg"
   version="1.1"
   width="47.5"
   height="47.5"
   id="svg2"
   xml:space="preserve"><defs
     id="defs6"><clipPath
       id="clipPath18"><path
         d="M 0,38 38,38 38,0 0,0 0,38 z"
         id="path20" /></clipPath></defs><g
     transform="matrix(1.25,0,0,-1.25,0,47.5)"
     id="g12"><g
       id="g14"><g
         clip-path="url(#clipPath18)"
         id="g16"><g
           transform="translate(33.1533,13)"
           id="g22"><path
             d="m 0,0 c 0,1 1.523,6.212 3.047,7.735 1.522,1.524 0,3.166 -1.524,3.166 C -1.882,10.901 -7.615,4 -7.615,0 c 0,-5 5.733,-10.424 9.138,-10.424 1.524,0 3.046,1.404 1.524,2.928 C 1.523,-5.974 0,-2 0,0"
             id="path24"
             style="fill:#3b88c3;fill-opacity:1;fill-rule:nonzero;stroke:none" /></g><g
           transform="translate(10.0215,22.6162)"
           id="g26"><path
             d="M 0,0 C 0,3.046 1.497,6.093 3.02,6.093 7.589,6.093 16.342,1.27 17.865,-6.347 19.389,-13.962 0,0 0,0"
             id="path28"
             style="fill:#3b88c3;fill-opacity:1;fill-rule:nonzero;stroke:none" /></g><g
           transform="translate(14.8755,4.3379)"
           id="g30"><path
             d="m 0,0 c 1.523,-1.523 4.57,-3.047 7.617,-3.047 3.046,0 -3.111,4.19 -1.524,6.092 C 8.274,5.662 0,0 0,0"
             id="path32"
             style="fill:#3b88c3;fill-opacity:1;fill-rule:nonzero;stroke:none" /></g><g
           transform="translate(3.0713,8.2734)"
           id="g34"><path
             d="M 0,0 C 0.761,2.285 0.19,3.935 -1.143,5.584 -2.476,7.235 2.729,7.488 4.442,5.203 6.156,2.918 10.155,-1.078 6.601,-1.017 3.046,-0.952 0,0 0,0"
             id="path36"
             style="fill:#000000;fill-opacity:1;fill-rule:nonzero;stroke:none" /></g><g
           transform="translate(1.1685,13.5117)"
           id="g38"><path
             d="M 0,0 C 0.959,-0.874 7.223,-4.309 7.165,-5.137 7.107,-5.965 4.886,-5.049 4.06,-4.857 2.575,-4.516 2.155,-4.26 1.743,-4.331 0.903,-4.652 1.189,-5.532 1.501,-6.035 c 1.498,-2.611 7.286,-4.662 12.16,-4.662 8.412,0 16.802,7.615 16.802,10.662 0,3.046 -9.344,10.663 -17.756,10.663 C 4.314,10.628 0.011,4.566 0,0"
             id="path40"
             style="fill:#55acee;fill-opacity:1;fill-rule:nonzero;stroke:none" /></g><g
           transform="translate(8,20)"
           id="g42"><path
             d="m 0,0 c 1.104,0 2,-0.894 2,-2 0,-1.104 -0.896,-2 -2,-2 -1.105,0 -2,0.896 -2,2 0,1.106 0.895,2 2,2"
             id="path44"
             style="fill:#000000;fill-opacity:1;fill-rule:nonzero;stroke:none" /></g><g
           transform="translate(16.0796,7.0195)"
           id="g46"><path
             d="m 0,0 c -0.156,0 -0.314,0.036 -0.462,0.113 -0.49,0.256 -0.679,0.861 -0.423,1.35 1.585,3.034 2.218,5.767 0.154,9.243 -0.282,0.475 -0.125,1.088 0.349,1.371 0.475,0.282 1.089,0.124 1.371,-0.349 C 3.682,7.192 2.449,3.525 0.887,0.537 0.709,0.195 0.361,0 0,0"
             id="path48"
             style="fill:#226699;fill-opacity:1;fill-rule:nonzero;stroke:none" /></g></g></g></g></svg>