<?xml version="1.0" encoding="UTF-8" standalone="no"?><svg xmlns:svg="http://www.w3.org/2000/svg" xmlns="http://www.w3.org/2000/svg" version="1.1" viewBox="0 0 47.5 47.5" style="enable-background:new 0 0 47.5 47.5;" id="svg2" xml:space="preserve"><defs id="defs6"><clipPath id="clipPath18"><path d="M 0,38 38,38 38,0 0,0 0,38 z" id="path20"/></clipPath></defs><g transform="matrix(1.25,0,0,-1.25,0,47.5)" id="g12"><g id="g14"><g clip-path="url(#clipPath18)" id="g16"><g transform="translate(30,21.1113)" id="g22"><path d="M 0,0 C 0,0 6,0 4,6 3,9 5,7 6,5 7,3 8,-3 1,-2 -6,-1 0,0 0,0" id="path24" style="fill:#662113;fill-opacity:1;fill-rule:nonzero;stroke:none"/></g><g transform="translate(33.958,17.1592)" id="g26"><path d="m 0,0 c 0.027,0.313 0.042,0.597 0.042,0.841 0,0.658 -0.063,1 -0.171,1.123 -0.896,2.946 -5.522,2.896 -10.853,2.879 -2.987,0.023 -4.976,4.1 -4.976,4.998 0,5 -4.848,6.182 -7.5,3 -2.5,-3 -7.5,0.037 -7.5,-3 0,-5 3.358,-8 7.5,-8 0.648,0 1.736,0.149 3.01,0.381 0.941,-1.647 1.39,-3.881 1.49,-4.381 0.024,-0.119 0.05,-0.235 0.075,-0.353 0.435,-4.62 2.681,-13.647 3.925,-13.647 1.07,0 1.681,2.484 1.902,5.4 0.886,-0.26 1.91,-0.4 3.098,-0.4 1.112,0 2.137,0.247 3.078,0.659 0.205,-3.027 0.82,-5.659 1.922,-5.659 1.292,0 4.544,11.5 4.956,16.144 C -0.001,-0.009 -0.001,-0.005 0,0" id="path28" style="fill:#d99e82;fill-opacity:1;fill-rule:nonzero;stroke:none"/></g><g transform="translate(5,26.5)" id="g30"><path d="m 0,0 c 0,-0.829 -1.171,-1.5 -2,-1.5 -0.829,0 -1.5,1.171 -1.5,2 0,0.829 0.671,1 1.5,1 2,0 2,-0.671 2,-1.5" id="path32" style="fill:#662113;fill-opacity:1;fill-rule:nonzero;stroke:none"/></g><g transform="translate(19,25)" id="g34"><path d="m 0,0 c 0,-3.038 -1.344,-3.5 -3,-3.5 -1.657,0 -3,0.462 -3,3.5 0,3.038 0.343,7 2,7 1.657,0 4,-3.962 4,-7" id="path36" style="fill:#662113;fill-opacity:1;fill-rule:nonzero;stroke:none"/></g><g transform="translate(12,28)" id="g38"><path d="m 0,0 c 0,-0.552 -0.448,-1 -1,-1 -0.552,0 -1,0.448 -1,1 0,0.552 0.448,1 1,1 0.552,0 1,-0.448 1,-1" id="path40" style="fill:#292f33;fill-opacity:1;fill-rule:nonzero;stroke:none"/></g><g transform="translate(32,17.5)" id="g42"><path d="m 0,0 c 0,-1.38 -1.343,-2.5 -3,-2.5 -1.657,0 -3,1.12 -3,2.5 0,1.381 1.343,2.5 3,2.5 1.657,0 3,-1.119 3,-2.5" id="path44" style="fill:#c1694f;fill-opacity:1;fill-rule:nonzero;stroke:none"/></g><g transform="translate(25,18.5)" id="g46"><path d="M 0,0 C 0,-0.828 -0.672,-1.5 -1.5,-1.5 -2.328,-1.5 -3,-0.828 -3,0 -3,0.828 -2.328,1.5 -1.5,1.5 -0.672,1.5 0,0.828 0,0" id="path48" style="fill:#c1694f;fill-opacity:1;fill-rule:nonzero;stroke:none"/></g><g transform="translate(27,13.5)" id="g50"><path d="M 0,0 C 0,-0.828 -0.672,-1.5 -1.5,-1.5 -2.328,-1.5 -3,-0.828 -3,0 -3,0.828 -2.328,1.5 -1.5,1.5 -0.672,1.5 0,0.828 0,0" id="path52" style="fill:#c1694f;fill-opacity:1;fill-rule:nonzero;stroke:none"/></g></g></g></g></svg>
