<svg xmlns="http://www.w3.org/2000/svg" viewBox="0 0 47.5 47.5" enable-background="new 0 0 47.5 47.5"><defs><clipPath id="a"><path d="M0 38h38V0H0v38z"/></clipPath><clipPath id="b"><path d="M8.72 17c0-6.13 4.6-13 10.28-13s10.28 6.87 10.28 13-4.6 8.92-10.28 8.92S8.72 23.12 8.72 17"/></clipPath><clipPath id="c"><path d="M0 38h38V0H0v38z"/></clipPath></defs><g><g><g clip-path="url(#a)" transform="matrix(1.25 0 0 -1.25 0 47.5)"><g><path fill="#292f33" d="M20 4c0-1.66-.45-3-1-3s-1 1.34-1 3 .45 3 1 3 1-1.34 1-3"/></g><g><path fill="#292f33" d="M26.75 35.75c-.58.6-1.7.43-2.47-.35-.6-.6-1.95-2.53-2.22-3.62-.9.2-1.93.22-3.06.22-1.13 0-2.17-.03-3.06-.22-.27 1.1-1.6 3-2.22 3.62-.78.78-1.9.94-2.47.35-.6-.58-.43-1.7.35-2.47.5-.5 1.94-1.53 3.03-2-.82-.55-1.32-1.46-1.32-3.05 0-3.58 2.56-7.3 5.7-7.3s5.7 3.72 5.7 7.3c0 1.6-.5 2.5-1.33 3.04 1.1.48 2.52 1.5 3.03 2 .78.8.94 1.9.35 2.48"/></g><g><path fill="#292f33" d="M29.28 17c0-6.13-4.6-13-10.28-13S8.72 10.87 8.72 17s4.6 8.92 10.28 8.92 10.28-2.8 10.28-8.92"/></g></g></g><g><g clip-path="url(#b)" transform="matrix(1.25 0 0 -1.25 0 47.5)"><path fill="#ffcc4d" d="M30 18H8v4h22v-4z"/><path fill="#ffcc4d" d="M30 10H8v4h22v-4z"/><path fill="#ffcc4d" d="M30 2H8v4h22V2z"/><g><path fill="#292f33" d="M19 23c0-2.65-7.86-10-12-10s-6 5.35-6 8c0 2.65 1.86 1.58 6 1.58s12 3.06 12 .42"/></g><g><path fill="#292f33" d="M19 23c0-2.65 7.86-10 12-10s6 5.35 6 8c0 2.65-1.86 1.58-6 1.58S19 25.64 19 23"/></g></g></g><g><g clip-path="url(#c)" transform="matrix(1.25 0 0 -1.25 0 47.5)"><g><path fill="#ccd6dd" d="M19 23.5c0-2.65-7.86-8.6-12-8.6S1 17.36 1 20c0 2.65 1.86 4.5 6 4.5s12 1.64 12-1"/></g><g><path fill="#ccd6dd" d="M19 23.5c0-2.65 7.86-8.6 12-8.6s6 2.45 6 5.1c0 2.65-1.86 4.5-6 4.5s-12 1.64-12-1"/></g><g><path fill="#99aab5" d="M3 18c-.55 0-1 .45-1 1s.45 1 1 1c.05 0 4.95.07 13.6 3.9.5.24 1.1 0 1.3-.5.24-.5 0-1.1-.5-1.3C8.33 18.04 3.2 18 3 18"/></g><g><path fill="#99aab5" d="M35 18c-.2 0-5.32.05-14.4 4.1-.5.2-.74.8-.5 1.3.2.5.8.74 1.3.5C30.06 20.08 34.96 20 35 20c.55 0 1-.45 1-1s-.45-1-1-1"/></g></g></g></g></svg>