<svg xmlns="http://www.w3.org/2000/svg" viewBox="0 0 47.5 47.5" enable-background="new 0 0 47.5 47.5"><defs><clipPath id="a"><path d="M0 38h38V0H0v38z"/></clipPath></defs><g><g><g clip-path="url(#a)" transform="matrix(1.25 0 0 -1.25 0 47.5)"><g><path fill="#bf6952" d="M30 36c-4.14 0-6-3.5-6-6 0-2.57 2.43-5 5-5 1.92 0 3.47 1.28 3.77 3.1.23 1.44-.44 3.18-2.45 3.85-.53.17-1.1-.1-1.27-.63-.17-.53.1-1.1.63-1.27 1.18-.4 1.17-1.26 1.1-1.62-.1-.7-.7-1.43-1.78-1.43-1.46 0-3 1.54-3 3 0 1.3.98 4 4 4 2.9 0 5-2.52 5-6V13c0-3.58-1.35-5.68-4.3-6.54.13 1 .2 2.22.26 3.65.6 3.17.1 7.14-1.78 10.9-1.87 3.73-5.93 5.94-10.03 5.7-.23 5.1-3.03 9.3-8.74 9.3-5.96 0-6.22-7-9.22-11.4-1.35-1.98 5.43-7.06 9.23-7.06.02 0 .04 0 .05 0 .35-.02.8 0 1.36.13.58.1 1.16.27 1.73.5 2.73.83 4.38.88 5.32.44-.7-3.36-3.82-6.22-5.85-9.6-3-5 1-8 3-8 3 0 3 3 2 3-2 0-2.63 3.1-2 5 .66 1.97 2.6 3.52 3.87 6.05-.26-1.68-.87-3.6-.87-5.05 0-4.57 1.17-6 6-6 .2 0 .36.03.54.05C25.36 4.02 25.2 4 25 4c-4.7 0-5.5-.9-5.5-2 0-.8.5-1 1.5-1h7c.65 0 1.73 0 2.4 3.32C34.78 5.24 37 8.15 37 13v15c0 4.56-3 8-7 8"/></g><g><path fill="#d79e84" d="M12.18 29.2c0 2.1-1.7 3.8-3.8 3.8-2.1 0-3.8-1.7-3.8-3.8 0-.27.03-.54.1-.8-1.05-.38-2-1.15-2.67-2.4-.24-.5-.52-.96-.82-1.4-.7-1.04.83-2.94 3-4.5 1.96-1.42 6-.53 6 4.9 0 .3-.04.56-.1.82 1.24.63 2.1 1.9 2.1 3.38"/></g><g><path fill="#d79e84" d="M14.82 30.5c0-1.93-.25-3.5 1.68-3.5s3.5 1.57 3.5 3.5-1.57 3.5-3.5 3.5-1.68-1.57-1.68-3.5"/></g><g><path fill="#292f33" d="M8.44 28.63c0-.9-.5-1.63-1.1-1.63-.6 0-1.08.73-1.08 1.63 0 .9.5 1.63 1.1 1.63.6 0 1.08-.73 1.08-1.63"/></g><g><path fill="#642116" d="M5 25c0-.55-2.17-2-3.08-2C1 23 1 23.45 1 24h.92C3 24 5 25.55 5 25"/></g></g></g></g></svg>