<?xml version="1.0" encoding="UTF-8" standalone="no"?><svg xmlns:svg="http://www.w3.org/2000/svg" xmlns="http://www.w3.org/2000/svg" version="1.1" viewBox="0 0 47.5 47.5" style="enable-background:new 0 0 47.5 47.5;" id="svg2" xml:space="preserve"><defs id="defs6"><clipPath id="clipPath18"><path d="M 0,38 38,38 38,0 0,0 0,38 z" id="path20"/></clipPath><clipPath id="clipPath34"><path d="M 25.83,31.529 15.333,30.2 c -2.898,-0.366 -4.951,-3.61 -4.585,-7.239 l 0,0 1.329,-13.157 C 12.443,6.172 15.815,3.618 17.99,3.892 l 0,0 c 3.393,0.427 14.178,17.472 13.752,21.724 l 0,0 c -0.396,3.922 -2.632,5.955 -5.254,5.955 l 0,0 c -0.217,0 -0.437,-0.014 -0.658,-0.042" id="path36"/></clipPath><clipPath id="clipPath46"><path d="M 0,38 38,38 38,0 0,0 0,38 z" id="path48"/></clipPath><clipPath id="clipPath58"><path d="M 17.668,35.227 9.879,34.242 C 7.729,33.969 6.206,31.562 6.477,28.869 l 0,0 0.986,-9.758 c 0.272,-2.696 2.775,-4.591 4.387,-4.39 l 0,0 c 2.518,0.32 10.522,12.965 10.204,16.119 l 0,0 c -0.294,2.911 -1.951,4.418 -3.896,4.418 l 0,0 c -0.162,0 -0.325,-0.01 -0.49,-0.031" id="path60"/></clipPath><clipPath id="clipPath70"><path d="M 0,38 38,38 38,0 0,0 0,38 z" id="path72"/></clipPath></defs><g transform="matrix(1.25,0,0,-1.25,0,47.5)" id="g12"><g id="g14"><g clip-path="url(#clipPath18)" id="g16"><g transform="translate(30.0488,29.9673)" id="g22"><path d="m 0,0 c 4.423,-4.424 5.71,-21.367 1.289,-25.788 -4.425,-4.424 -12.185,-3.783 -16.607,0.64 -2.979,2.979 -3.834,10.952 0.589,15.377 C -10.305,-5.35 -4.423,4.423 0,0" id="path24" style="fill:#ccd6dd;fill-opacity:1;fill-rule:nonzero;stroke:none"/></g><g transform="translate(17.9897,3.8916)" id="g26"><path d="m 0,0 c -2.175,-0.273 -5.546,2.28 -5.913,5.912 l -1.329,13.157 c -0.366,3.63 1.687,6.873 4.586,7.24 L 7.84,27.637 c 2.898,0.365 5.483,-1.666 5.912,-5.912 C 14.178,17.473 3.393,0.428 0,0" id="path28" style="fill:#ccd6dd;fill-opacity:1;fill-rule:nonzero;stroke:none"/></g></g></g><g id="g30"><g clip-path="url(#clipPath34)" id="g32"><g transform="translate(11.3491,10.5322)" id="g38"><path d="m 0,0 c -2.174,-0.274 -5.548,2.282 -5.915,5.914 l -1.327,13.154 c -0.367,3.632 1.686,6.875 4.584,7.243 L 7.84,27.638 c 2.898,0.366 5.483,-1.665 5.912,-5.911 C 14.18,17.473 3.393,0.428 0,0" id="path40" style="fill:#99aab5;fill-opacity:1;fill-rule:nonzero;stroke:none"/></g></g></g><g id="g42"><g clip-path="url(#clipPath46)" id="g44"><g transform="translate(11.8501,14.7217)" id="g50"><path d="m 0,0 c -1.613,-0.202 -4.115,1.693 -4.388,4.389 l -0.985,9.758 c -0.272,2.694 1.252,5.1 3.402,5.374 l 7.788,0.984 C 7.968,20.777 9.886,19.271 10.204,16.119 10.522,12.964 2.518,0.319 0,0" id="path52" style="fill:#ccd6dd;fill-opacity:1;fill-rule:nonzero;stroke:none"/></g></g></g><g id="g54"><g clip-path="url(#clipPath58)" id="g56"><g transform="translate(6.3511,20.2207)" id="g62"><path d="m 0,0 c -1.612,-0.204 -4.114,1.693 -4.387,4.387 l -0.985,9.759 c -0.272,2.695 1.251,5.101 3.401,5.375 l 7.788,0.983 C 7.968,20.777 9.886,19.272 10.205,16.118 10.522,12.962 2.518,0.318 0,0" id="path64" style="fill:#99aab5;fill-opacity:1;fill-rule:nonzero;stroke:none"/></g></g></g><g id="g66"><g clip-path="url(#clipPath70)" id="g68"><g transform="translate(7.2471,24.1943)" id="g74"><path d="m 0,0 c -0.993,-0.125 -2.533,1.043 -2.701,2.702 l -0.606,6.006 c -0.167,1.659 0.77,3.14 2.093,3.308 l 4.795,0.606 C 4.905,12.79 6.084,11.863 6.28,9.923 6.477,7.98 1.548,0.198 0,0" id="path76" style="fill:#ccd6dd;fill-opacity:1;fill-rule:nonzero;stroke:none"/></g><g transform="translate(31.6094,22.6035)" id="g78"><path d="m 0,0 c 0.801,-2.371 1.545,-11.57 -1.532,-15.543 -3.079,-3.972 -8.043,1.389 -5.312,6.205 C -4.114,-4.523 -0.809,2.396 0,0" id="path80" style="fill:#66757f;fill-opacity:1;fill-rule:nonzero;stroke:none"/></g></g></g></g></svg>
