<?xml version="1.0" encoding="UTF-8" standalone="no"?>
<!-- Created with Inkscape (http://www.inkscape.org/) -->

<svg
   xmlns:svg="http://www.w3.org/2000/svg"
   xmlns="http://www.w3.org/2000/svg"
   version="1.1"
   width="47.5"
   height="47.5"
   id="svg2"
   xml:space="preserve"><defs
     id="defs6"><clipPath
       id="clipPath18"><path
         d="M 0,38 38,38 38,0 0,0 0,38 z"
         id="path20" /></clipPath></defs><g
     transform="matrix(1.25,0,0,-1.25,0,47.5)"
     id="g12"><g
       id="g14"><g
         clip-path="url(#clipPath18)"
         id="g16"><g
           transform="translate(8.4399,29.4971)"
           id="g22"><path
             d="M 0,0 C -1,4 3.688,6 8,4 8.907,3.579 8.948,2.684 8,3 5,4 2,2 4,-1 5.109,-2.664 0.767,-3.068 0,0"
             id="path24"
             style="fill:#ffac33;fill-opacity:1;fill-rule:nonzero;stroke:none" /></g><g
           transform="translate(7.1362,31.2153)"
           id="g26"><path
             d="M 0,0 C -1,4 3.688,6 8,4 8.907,3.579 8.949,2.684 8,3 5,4 2,2 4,-1 5.109,-2.664 0.767,-3.068 0,0"
             id="path28"
             style="fill:#ffcc4d;fill-opacity:1;fill-rule:nonzero;stroke:none" /></g><g
           transform="translate(6,22.2153)"
           id="g30"><path
             d="m 0,0 c 0,-4 -2,-4.827 -2,-4 0,2 -1,0 -1,1 l 0,3 c 0,1.657 0.671,3 1.5,3 C -0.671,3 0,1.657 0,0"
             id="path32"
             style="fill:#e1e8ed;fill-opacity:1;fill-rule:nonzero;stroke:none" /></g><g
           transform="translate(36.1592,26.5098)"
           id="g34"><path
             d="m 0,0 c -0.681,1.644 -2.313,2.706 -4.159,2.706 -0.553,0 -1,-0.448 -1,-1 0,-0.553 0.447,-1 1,-1 1.034,0 1.941,-0.578 2.311,-1.471 0.341,-0.824 0.168,-1.758 -0.455,-2.647 -0.984,1.506 -2.602,2.618 -4.856,2.618 -2.391,0 -7.279,-0.714 -10.828,-1.289 -0.052,0.094 -0.105,0.188 -0.172,0.289 -2,3 -4,8.157 -7,8.157 -4,0 -10,-4.986 -10,-9.157 0,-2.545 5.738,-2.93 7.486,-2.989 0.697,-1.43 1.414,-2.934 2.232,-4.329 0.066,-0.205 0.155,-0.429 0.282,-0.683 3,-6 3.119,-14.5 4.5,-14.5 1.381,0 2.5,4.858 2.5,9 0,0.151 -0.005,0.299 -0.008,0.447 3.127,-0.649 6.607,-0.322 9.678,0.611 1.448,-5.045 1.769,-10.058 2.83,-10.058 1.342,0 2.432,8.818 2.494,13.12 1.322,1.44 2.006,3.155 2.006,4.881 0,0.605 -0.086,1.23 -0.248,1.843 C 0.207,-3.808 0.735,-1.775 0,0"
             id="path36"
             style="fill:#ccd6dd;fill-opacity:1;fill-rule:nonzero;stroke:none" /></g><g
           transform="translate(9,27.7153)"
           id="g38"><path
             d="m 0,0 c 0,-0.552 -0.448,-1 -1,-1 -0.552,0 -1,0.448 -1,1 0,0.552 0.448,1 1,1 0.552,0 1,-0.448 1,-1"
             id="path40"
             style="fill:#292f33;fill-opacity:1;fill-rule:nonzero;stroke:none" /></g></g></g></g></svg>