<?xml version="1.0" encoding="UTF-8" standalone="no"?><svg xmlns:dc="http://purl.org/dc/elements/1.1/" xmlns:cc="http://creativecommons.org/ns#" xmlns:rdf="http://www.w3.org/1999/02/22-rdf-syntax-ns#" xmlns:svg="http://www.w3.org/2000/svg" xmlns="http://www.w3.org/2000/svg" viewBox="0 0 47.5 47.5" style="enable-background:new 0 0 47.5 47.5;" xml:space="preserve" version="1.1" id="svg2"><metadata id="metadata8"><rdf:RDF><cc:Work rdf:about=""><dc:format>image/svg+xml</dc:format><dc:type rdf:resource="http://purl.org/dc/dcmitype/StillImage"/></cc:Work></rdf:RDF></metadata><defs id="defs6"><clipPath id="clipPath16" clipPathUnits="userSpaceOnUse"><path id="path18" d="M 0,38 38,38 38,0 0,0 0,38 Z"/></clipPath><clipPath id="clipPath40" clipPathUnits="userSpaceOnUse"><path id="path42" d="M 3.262,17.966 C 2.633,16.875 -0.829,16.932 2.273,14.863 l 0,0 C -0.829,12.795 2.723,12.62 3.496,11.76 l 0,0 C 6.121,8.841 12.492,5.556 17.787,5.556 l 0,0 c 6.853,0 13.445,5.556 13.445,12.41 l 0,0 c 0,6.854 -5.172,14.479 -13.445,14.479 l 0,0 C 9.513,32.445 5.726,22.228 3.262,17.966"/></clipPath><clipPath id="clipPath60" clipPathUnits="userSpaceOnUse"><path id="path62" d="M 0,38 38,38 38,0 0,0 0,38 Z"/></clipPath></defs><g transform="matrix(1.25,0,0,-1.25,0,47.5)" id="g10"><g id="g12"><g clip-path="url(#clipPath16)" id="g14"><g transform="translate(9.2314,27)" id="g20"><path id="path22" style="fill:#ffac33;fill-opacity:1;fill-rule:nonzero;stroke:none" d="M 0,0 C 6,8 14,10 18,10 19,10 19,9 18,9 17,9 12,7 11,0 10,-7 0,0 0,0"/></g><g transform="translate(8.2314,9)" id="g24"><path id="path26" style="fill:#ffac33;fill-opacity:1;fill-rule:nonzero;stroke:none" d="m 0,0 c 4,-3 13,-8 18,-8 3,0 2,1 1,1 C 18,-7 10,-4 9,0 8,4 0,0 0,0"/></g><g transform="translate(30,18)" id="g28"><path id="path30" style="fill:#ffcc4d;fill-opacity:1;fill-rule:nonzero;stroke:none" d="M 0,0 C 0,-4.418 3.791,-10 6,-10 8.209,-10 4,-4.418 4,0 4,4.418 8.209,10 6,10 3.791,10 0,4.418 0,0"/></g><g transform="translate(31.2314,17.9658)" id="g32"><path id="path34" style="fill:#ffcc4d;fill-opacity:1;fill-rule:nonzero;stroke:none" d="m 0,0 c 0,-6.854 -6.591,-12.41 -13.445,-12.41 -5.294,0 -11.666,3.285 -14.291,6.205 -0.773,0.859 -4.325,1.034 -1.222,3.102 -3.103,2.069 0.359,2.012 0.989,3.103 2.463,4.263 6.251,14.479 14.524,14.479 C -5.171,14.479 0,6.854 0,0"/></g></g></g><g id="g36"><g clip-path="url(#clipPath40)" id="g38"><g transform="translate(20.001,18)" id="g44"><path id="path46" style="fill:#f4900c;fill-opacity:1;fill-rule:nonzero;stroke:none" d="M 0,0 C -0.012,0 -0.022,0 -0.034,0.001 -0.586,0.019 -1.019,0.481 -1,1.033 -0.751,8.573 6.294,11.781 6.594,11.914 7.1,12.141 7.689,11.91 7.913,11.405 8.137,10.901 7.91,10.311 7.406,10.086 7.153,9.973 1.206,7.236 0.998,0.967 0.98,0.426 0.536,0 0,0"/></g><g transform="translate(25.001,20)" id="g48"><path id="path50" style="fill:#f4900c;fill-opacity:1;fill-rule:nonzero;stroke:none" d="M 0,0 C -0.065,0 -0.131,0.006 -0.197,0.02 -0.738,0.128 -1.09,0.655 -0.981,1.196 -0.063,5.787 3.986,7 5.999,7 c 0.553,0 1,-0.448 1,-1 C 6.999,5.449 6.554,5.002 6.003,5 5.83,4.999 1.802,4.915 0.979,0.804 0.885,0.329 0.467,0 0,0"/></g><g transform="translate(15,16)" id="g52"><path id="path54" style="fill:#f4900c;fill-opacity:1;fill-rule:nonzero;stroke:none" d="m 0,0 c -0.552,0 -1,0.447 -1,1 0,12.598 10.605,15.926 10.713,15.958 0.529,0.158 1.086,-0.142 1.245,-0.671 0.158,-0.529 -0.142,-1.086 -0.67,-1.245 C 9.881,14.917 1,12.06 1,1 1,0.447 0.552,0 0,0"/></g></g></g><g id="g56"><g clip-path="url(#clipPath60)" id="g58"><g transform="translate(12,21.5)" id="g64"><path id="path66" style="fill:#292f33;fill-opacity:1;fill-rule:nonzero;stroke:none" d="M 0,0 C 0,-0.829 -0.671,-1.5 -1.5,-1.5 -2.329,-1.5 -3,-0.829 -3,0 -3,0.829 -2.329,1.5 -1.5,1.5 -0.671,1.5 0,0.829 0,0"/></g></g></g></g></svg>
