<?xml version="1.0" encoding="UTF-8" standalone="no"?><svg xmlns:svg="http://www.w3.org/2000/svg" xmlns="http://www.w3.org/2000/svg" version="1.1" viewBox="0 0 47.5 47.5" style="enable-background:new 0 0 47.5 47.5;" id="svg2" xml:space="preserve"><defs id="defs6"><clipPath id="clipPath18"><path d="M 0,38 38,38 38,0 0,0 0,38 z" id="path20"/></clipPath></defs><g transform="matrix(1.25,0,0,-1.25,0,47.5)" id="g12"><g id="g14"><g clip-path="url(#clipPath18)" id="g16"><g transform="translate(9.5117,21)" id="g22"><path d="m 0,0 c 0,-1.656 1.974,-3 -0.512,-3 -2.485,0 -7.988,2 -7.988,3 0,1 3.515,3 6,3 C -0.015,3 0,1.657 0,0" id="path24" style="fill:#ffac33;fill-opacity:1;fill-rule:nonzero;stroke:none"/></g><g transform="translate(28.8799,3.9023)" id="g26"><path d="m 0,0 c -0.098,0.18 -0.25,0.302 -0.418,0.391 -1.597,1.706 -0.462,3.707 -0.462,3.707 0,0.552 1,2 0,2 l -1,-1 c -1,-1 -1,-4 -1,-4 l -2,0 c -0.553,0 -1,-0.448 -1,-1 0,-0.553 0.447,-1 1,-1 l 1.108,0 -0.222,-0.12 c -0.486,-0.263 -0.667,-0.87 -0.404,-1.356 0.262,-0.486 0.869,-0.667 1.355,-0.404 l 2.639,1.427 C 0.082,-1.093 0.263,-0.486 0,0" id="path28" style="fill:#ffac33;fill-opacity:1;fill-rule:nonzero;stroke:none"/></g><g transform="translate(21.8799,3.9023)" id="g30"><path d="m 0,0 c -0.098,0.18 -0.25,0.302 -0.418,0.391 -1.597,1.706 -0.462,3.707 -0.462,3.707 0,0.552 1,2 0,2 l -1,-1 c -1,-1 -1,-4 -1,-4 l -2,0 c -0.553,0 -1,-0.448 -1,-1 0,-0.553 0.447,-1 1,-1 l 1.108,0 -0.222,-0.12 c -0.486,-0.263 -0.667,-0.87 -0.404,-1.356 0.262,-0.486 0.869,-0.667 1.355,-0.404 l 2.639,1.427 C 0.082,-1.093 0.263,-0.486 0,0" id="path32" style="fill:#ffac33;fill-opacity:1;fill-rule:nonzero;stroke:none"/></g><g transform="translate(36.2168,19.625)" id="g34"><path d="m 0,0 c -1.342,0 -7.904,-4.613 -11.553,5.375 -0.005,0.014 -0.011,0.024 -0.017,0.038 -0.996,3.595 -4.047,6.327 -7.813,6.858 -2.696,2.416 -6.834,2.544 -6.834,1.104 0,-0.958 1.15,-1.227 2.564,-1.468 -3.808,-1.237 -6.564,-4.811 -6.564,-9.032 0,-4.479 3.103,-8.223 7.274,-9.227 1.003,-4.17 4.748,-7.273 9.226,-7.273 3.953,0 6.934,1.678 8.99,3.999 0.555,0.626 0.112,-0.603 0.842,-0.235 C 0.355,-7.729 1.283,0 0,0" id="path36" style="fill:#dd2e44;fill-opacity:1;fill-rule:nonzero;stroke:none"/></g><g transform="translate(13,25)" id="g38"><path d="m 0,0 c 0,-1.104 -0.896,-2 -2,-2 -1.104,0 -2,0.896 -2,2 0,1.104 0.896,2 2,2 1.104,0 2,-0.896 2,-2" id="path40" style="fill:#292f33;fill-opacity:1;fill-rule:nonzero;stroke:none"/></g><g transform="translate(22.8105,21)" id="g42"><path d="m 0,0 c 0,0 -2,-10 10,-10 1,0 0,-2 -4,-2 -4,0 -9.999,5 -7,11 0.633,1.265 1,1 1,1" id="path44" style="fill:#a0041e;fill-opacity:1;fill-rule:nonzero;stroke:none"/></g></g></g></g></svg>
