<svg xmlns="http://www.w3.org/2000/svg" viewBox="0 0 47.5 47.5" enable-background="new 0 0 47.5 47.5"><defs><clipPath id="a"><path d="M0 38h38V0H0v38z"/></clipPath></defs><g><g><g clip-path="url(#a)" transform="matrix(1.25 0 0 -1.25 0 47.5)"><g><path fill="#3b88c3" d="M35.56 19c0 3.92-1.52 7.47-3.98 10.15.27 1.72 1.03 3.9 2.98 5.85.7.7.25 2-1 2 0 0-6.06 0-9.9-3.33-1 .2-2.04.33-3.1.33-8 0-12-4-14-12-.45-1.78-.87-1.4-3-3-1.2-.9-2.12-3 1-3 3 0 5-1 9-1 1.83 0 3.42.35 4.85.72.07-1.6.5-3.6 2.16-4.72 2.35-1.57 2.37-1.9 3 0 .8 2.44.3 3.57-1 5.53.7 0 1.37-.15 2-.53 2.7-1.62 2.2-4.1.68-6.37-2.9-3.4-5.94-.55-8.68.37-3 1-1-1 0-2s1.3-4 0-6 3 0 5 3c0 .02.02.03.03.04 7.8.46 13.96 6.02 13.96 13.96"/></g><g><path fill="#292f33" d="M16.12 23c0-1.1-.9-2-2-2s-2 .9-2 2 .9 2 2 2 2-.9 2-2"/></g></g></g></g></svg>