<svg xmlns="http://www.w3.org/2000/svg" viewBox="0 0 47.5 47.5" enable-background="new 0 0 47.5 47.5"><defs><clipPath id="a"><path d="M0 38h38V0H0v38z"/></clipPath></defs><g><g><g clip-path="url(#a)" transform="matrix(1.25 0 0 -1.25 0 47.5)"><g><path fill="#99aab5" d="M37 23.47c0 4.66-3.13 6.53-7 6.53-1.62 0-3.3-.35-4.68-1.03-1.8 1.23-3.92 1.97-6.32 1.97-2.4 0-4.52-.74-6.32-1.97C11.28 29.65 9.62 30 8 30c-3.87 0-7-1.87-7-6.53 0-3.85 2.13-6.42 5.04-7.2-.04-.55-.07-1.08-.07-1.62 0-5.73 4.52-7.68 8.58-8.33C15.65 5.52 17.23 5 19 5s3.35.5 4.45 1.32c4.06.65 8.58 2.6 8.58 8.33 0 .54-.03 1.07-.07 1.6 2.9.8 5.04 3.37 5.04 7.22"/></g><g><path fill="#66757f" d="M10.55 27.15c-.3.03-.63.05-.95.05-3.1 0-5.6-1.5-5.6-5.23 0-2.15.84-3.8 2.14-4.82.47 3.8 2 7.42 4.4 10"/></g><g><path fill="#66757f" d="M28.4 27.2c-.32 0-.64-.02-.95-.05 2.4-2.58 3.94-6.2 4.4-10 1.3 1.02 2.15 2.67 2.15 4.82 0 3.74-2.5 5.23-5.6 5.23"/></g><g><path fill="#292f33" d="M22.73 12.2C22.73 8.84 21 8 19 8s-3.73.85-3.73 4.2c0 3.34 1.73 6.05 3.73 6.05s3.73-2.7 3.73-6.06"/></g><g><path fill="#292f33" d="M15 17.13c0-.83-.67-1.5-1.5-1.5s-1.5.67-1.5 1.5c0 .82.67 1.5 1.5 1.5s1.5-.68 1.5-1.5"/></g><g><path fill="#292f33" d="M26 17.13c0-.83-.67-1.5-1.5-1.5s-1.5.67-1.5 1.5c0 .82.67 1.5 1.5 1.5s1.5-.68 1.5-1.5"/></g></g></g></g></svg>