<?xml version="1.0" encoding="UTF-8" standalone="no"?>
<!-- Created with Inkscape (http://www.inkscape.org/) -->

<svg
   xmlns:svg="http://www.w3.org/2000/svg"
   xmlns="http://www.w3.org/2000/svg"
   version="1.1"
   width="47.5"
   height="47.5"
   id="svg2"
   xml:space="preserve"><defs
     id="defs6"><clipPath
       id="clipPath18"><path
         d="M 0,38 38,38 38,0 0,0 0,38 z"
         id="path20" /></clipPath></defs><g
     transform="matrix(1.25,0,0,-1.25,0,47.5)"
     id="g12"><g
       id="g14"><g
         clip-path="url(#clipPath18)"
         id="g16"><g
           transform="translate(18.3799,3.9023)"
           id="g22"><path
             d="m 0,0 c -0.097,0.18 -0.25,0.302 -0.417,0.391 -1.597,1.706 -0.463,3.707 -0.463,3.707 0,0.552 1,2 0,2 l -1,-1 c -1,-1 -1,-4 -1,-4 l -2,0 c -0.553,0 -1,-0.448 -1,-1 0,-0.553 0.447,-1 1,-1 l 1.108,0 -0.222,-0.12 c -0.486,-0.263 -0.667,-0.87 -0.404,-1.356 0.262,-0.486 0.869,-0.667 1.355,-0.404 l 2.639,1.427 C 0.082,-1.093 0.263,-0.486 0,0"
             id="path24"
             style="fill:#ffac33;fill-opacity:1;fill-rule:nonzero;stroke:none" /></g><g
           transform="translate(24.5,5)"
           id="g26"><path
             d="m 0,0 -2,0 c 0,0 0,3 -1,4 l -1,1 c -1,0 0,-1.447 0,-2 0,0 1.135,-2.001 -0.462,-3.707 -0.168,-0.089 -0.32,-0.211 -0.418,-0.391 -0.263,-0.486 -0.082,-1.092 0.404,-1.355 l 2.639,-1.427 c 0.486,-0.263 1.093,-0.082 1.356,0.404 0.262,0.487 0.082,1.093 -0.405,1.356 L -1.107,-2 0,-2 c 0.553,0 1,0.447 1,1 0,0.553 -0.447,1 -1,1"
             id="path28"
             style="fill:#ffac33;fill-opacity:1;fill-rule:nonzero;stroke:none" /></g><g
           transform="translate(35,13)"
           id="g30"><path
             d="m 0,0 c -1,2 -3,5 -4,10 l -0.008,0 c 0.001,0.052 0.008,0.102 0.008,0.154 0,5.944 -4.324,10.865 -9.996,11.82 1.189,0.259 2.031,0.508 0.996,1.026 -1.115,0.558 -2.23,-0.129 -2.999,-0.846 l -10e-4,0 -0.001,0 C -16.77,22.871 -17.884,23.558 -19,23 -20.035,22.482 -19.193,22.233 -18.004,21.974 -23.675,21.019 -28,16.098 -28,10.154 -28,10.102 -27.993,10.052 -27.992,10 L -28,10 c -1,-5 -3,-8 -4,-10 -0.447,-0.895 0,-3 2,-2 1.191,0.596 2.377,1.912 3.357,3.715 C -25.098,-2.939 -21.934,-7 -16,-7 c 5.934,0 9.098,4.061 10.643,8.715 C -4.377,-0.088 -3.191,-1.404 -2,-2 0,-3 0.447,-0.895 0,0"
             id="path32"
             style="fill:#ffcc4d;fill-opacity:1;fill-rule:nonzero;stroke:none" /></g><g
           transform="translate(22,23)"
           id="g34"><path
             d="m 0,0 c 0,-1.657 -1.343,-2 -3,-2 -1.657,0 -3,0.343 -3,2 0,1.657 1.343,3 3,3 1.657,0 3,-1.343 3,-3"
             id="path36"
             style="fill:#f4900c;fill-opacity:1;fill-rule:nonzero;stroke:none" /></g><g
           transform="translate(14,25.5)"
           id="g38"><path
             d="M 0,0 C 0,-0.829 -0.671,-1.5 -1.5,-1.5 -2.329,-1.5 -3,-0.829 -3,0 -3,0.829 -2.329,1.5 -1.5,1.5 -0.671,1.5 0,0.829 0,0"
             id="path40"
             style="fill:#662113;fill-opacity:1;fill-rule:nonzero;stroke:none" /></g><g
           transform="translate(27,25.5)"
           id="g42"><path
             d="M 0,0 C 0,-0.829 -0.672,-1.5 -1.5,-1.5 -2.328,-1.5 -3,-0.829 -3,0 -3,0.829 -2.328,1.5 -1.5,1.5 -0.672,1.5 0,0.829 0,0"
             id="path44"
             style="fill:#662113;fill-opacity:1;fill-rule:nonzero;stroke:none" /></g></g></g></g></svg>