<svg xmlns="http://www.w3.org/2000/svg" viewBox="0 0 47.5 47.5" enable-background="new 0 0 47.5 47.5"><defs><clipPath id="a"><path d="M0 38h38V0H0v38z"/></clipPath></defs><g><g><path fill="#99aab5" d="M4.7 25.42l2.8-4.17L11.25 25l5-2.5L20 26.25l5-7.5 5 3.75 3.75-1.25 2.5 3.75L40 21.25l2.5 5L40 35l-13.75 6.25-13.75-2.5-7.5-7.5-.3-5.83z"/></g><g><g clip-path="url(#a)" transform="matrix(1.25 0 0 -1.25 0 47.5)"><g><path fill="#ffcc4d" d="M30.96 22.3c.02.28.04.56.04.85 0 5.95-4.32 10.87-10 11.82 1.2.26 2.04.5 1 1.03-1.1.56-2.23-.13-3-.85-.77.72-1.88 1.4-3 .85-1.03-.52-.2-.77 1-1.03-5.67-.95-10-5.87-10-11.82 0-.3.02-.57.04-.86C6.56 15.7.74 6 19 6s12.44 9.7 11.96 16.3"/></g><g><path fill="#f4900c" d="M22 23c0-1.66-1.34-2-3-2s-3 .34-3 2 1.34 3 3 3 3-1.34 3-3"/></g><g><path fill="#662113" d="M14 25.5c0-.83-.67-1.5-1.5-1.5s-1.5.67-1.5 1.5.67 1.5 1.5 1.5 1.5-.67 1.5-1.5"/></g><g><path fill="#662113" d="M27 25.5c0-.83-.67-1.5-1.5-1.5s-1.5.67-1.5 1.5.67 1.5 1.5 1.5 1.5-.67 1.5-1.5"/></g><g><path fill="#e1e8ed" d="M32 12l-3 1-4-6-3 5-2-2-4 2-3-4-3 6-3-2-3.3 7.76c-.45-1.34-.7-2.78-.7-4.26C3 7.5 10.16 1 19 1s16 6.5 16 14.5c0 1.24-.2 2.44-.52 3.6L32 12z"/></g></g></g></g></svg>