<svg xmlns="http://www.w3.org/2000/svg" viewBox="0 0 47.5 47.5" enable-background="new 0 0 47.5 47.5"><defs><clipPath id="a"><path d="M0 38h38V0H0v38z"/></clipPath></defs><g><g><g clip-path="url(#a)" transform="matrix(1.25 0 0 -1.25 0 47.5)"><g><path fill="#c1694f" d="M32.6 22c-1.76 3.62-5.94 9.05-9.54 9.05-4.07 0-8.22-7.26-10.07-10.38-.18-.3-.33-.58-.47-.86C9.16 21 12 26.45 12 30.28c0 .96-.15 1.64-.45 2.12.5.6.6 1.34.2 1.7-.42.36-1.2.16-1.75-.46-.08-.1-.13-.2-.2-.28-.4.06-.9.1-1.46.1-.57 0-2.92-.27-4.23-.8C1 31.43 2 28 3 28h4c1 0 .75-2.3 0-4.73-.84-2.65-1.45-5.14-1-6.6.8-2.7 3.7-3.6 6.16-3.86 1.06-2.65 1.5-6.45 1.47-7.95-.06-2 1.94-2.06 2-.06.03 1.2-.1 3.67.14 5.77.66-2.83.94-6.1.9-7.32-.06-2 1.94-2.05 2-.05.05 1.6-.18 6.36.56 8.98.5-.02 1.04-.03 1.62-.04 1.77-.1 3.72-.08 5.5.02 1.05-1.6 2-3 2-3.44-.04-1-1.13-3.97-1.16-4.97-.04-1 .93-2.03 2-.05.64 1.2 1.3 3.4 1.52 5.42.18-.37.28-.66.27-.85-.04-1-.98-3.93-1-4.93-.04-1 .93-2.02 2-.05 1.05 1.96 2 4.88 1.05 6.9-.8 1.73.43 4.18.82 7.93 1.1-1.67 1.12-3.35 1.12-3.46 0-.55.44-1 1-1 .55 0 1 .45 1 1 0 .2-.07 4.85-4.4 7.32"/></g><g><path fill="#292f33" d="M9.28 31.43c-.02-.55-.48-1-1.03-.97-.55.02-1 .48-.97 1.03.02.54.48.97 1.03.96.56-.02 1-.48.98-1.03"/></g></g></g></g></svg>