<?xml version="1.0" encoding="UTF-8" standalone="no"?>
<!-- Created with Inkscape (http://www.inkscape.org/) -->

<svg
   xmlns:svg="http://www.w3.org/2000/svg"
   xmlns="http://www.w3.org/2000/svg"
   version="1.1"
   width="47.5"
   height="47.5"
   id="svg2"
   xml:space="preserve"><defs
     id="defs6"><clipPath
       id="clipPath18"><path
         d="M 0,38 38,38 38,0 0,0 0,38 z"
         id="path20" /></clipPath></defs><g
     transform="matrix(1.25,0,0,-1.25,0,47.5)"
     id="g12"><g
       id="g14"><g
         clip-path="url(#clipPath18)"
         id="g16"><g
           transform="translate(5,29)"
           id="g22"><path
             d="m 0,0 c 0,0 -4,-2 -4,-11 0,0 6,1 7,3 0,0 2,12.25 -3,8"
             id="path24"
             style="fill:#99aab5;fill-opacity:1;fill-rule:nonzero;stroke:none" /></g><g
           transform="translate(32.9951,28.9565)"
           id="g26"><path
             d="m 0,0 c 0,0 4,-2 4,-11 0,0 -6,1 -7,3 0,0 -2,12.25 3,8"
             id="path28"
             style="fill:#99aab5;fill-opacity:1;fill-rule:nonzero;stroke:none" /></g><g
           transform="translate(2,36)"
           id="g30"><path
             d="m 0,0 c -1.01,-0.99 1,-8 5,-9 4,-1 4,5 3,5 -4,0 -5.958,6 -8,4"
             id="path32"
             style="fill:#ffe8b6;fill-opacity:1;fill-rule:nonzero;stroke:none" /></g><g
           transform="translate(36.2969,36)"
           id="g34"><path
             d="m 0,0 c 1.011,-0.99 -1,-8 -5,-9 -4,-1 -4,5 -3,5 4,0 5.959,6 8,4"
             id="path36"
             style="fill:#ffe8b6;fill-opacity:1;fill-rule:nonzero;stroke:none" /></g><g
           transform="translate(22.9756,6)"
           id="g38"><path
             d="m 0,0 -7.951,0 c -5.536,0 -10.025,4.488 -10.025,10.024 l 0,8.951 c 0,5.537 4.489,10.025 10.025,10.025 L 0,29 c 5.536,0 10.024,-4.488 10.024,-10.025 l 0,-8.951 C 10.024,4.488 5.536,0 0,0"
             id="path40"
             style="fill:#ccd6dd;fill-opacity:1;fill-rule:nonzero;stroke:none" /></g><g
           transform="translate(36,9)"
           id="g42"><path
             d="m 0,0 c 0,-5.522 -4.478,-8 -10,-8 l -14,0 c -5.523,0 -10,2.478 -10,8 0,5.522 4.477,10 10,10 l 14,0 C -4.478,10 0,5.522 0,0"
             id="path44"
             style="fill:#e6aaaa;fill-opacity:1;fill-rule:nonzero;stroke:none" /></g><g
           transform="translate(12,11)"
           id="g46"><path
             d="M 0,0 C 0,-1.657 -0.671,-3 -1.5,-3 -2.329,-3 -3,-1.657 -3,0 -3,1.657 -2.329,3 -1.5,3 -0.671,3 0,1.657 0,0"
             id="path48"
             style="fill:#c1694f;fill-opacity:1;fill-rule:nonzero;stroke:none" /></g><g
           transform="translate(29,11)"
           id="g50"><path
             d="M 0,0 C 0,-1.657 -0.672,-3 -1.5,-3 -2.328,-3 -3,-1.657 -3,0 -3,1.657 -2.328,3 -1.5,3 -0.672,3 0,1.657 0,0"
             id="path52"
             style="fill:#c1694f;fill-opacity:1;fill-rule:nonzero;stroke:none" /></g><g
           transform="translate(12,25)"
           id="g54"><path
             d="M 0,0 C 0,0 0,2 2,2 4,2 4,0 4,0 l 0,-2 c 0,0 0,-2 -2,-2 -2,0 -2,2 -2,2 l 0,2 z"
             id="path56"
             style="fill:#272b2b;fill-opacity:1;fill-rule:nonzero;stroke:none" /></g><g
           transform="translate(22,25)"
           id="g58"><path
             d="M 0,0 C 0,0 0,2 2,2 4,2 4,0 4,0 l 0,-2 c 0,0 0,-2 -2,-2 -2,0 -2,2 -2,2 l 0,2 z"
             id="path60"
             style="fill:#272b2b;fill-opacity:1;fill-rule:nonzero;stroke:none" /></g></g></g></g></svg>