<svg xmlns="http://www.w3.org/2000/svg" viewBox="0 0 47.5 47.5" enable-background="new 0 0 47.5 47.5"><defs><clipPath id="a"><path d="M0 38h38V0H0v38z"/></clipPath></defs><g><g><g clip-path="url(#a)" transform="matrix(1.25 0 0 -1.25 0 47.5)"><g><path fill="#ffac33" d="M9.5 21c0-1.66 2-3-.5-3s-8 2-8 3 3.53 3 6 3c2.5 0 2.5-1.34 2.5-3"/></g><g><path fill="#ffac33" d="M28.88 3.9c-.1.18-.25.3-.42.4C26.86 6 28 8 28 8c0 .55 1 2 0 2l-1-1c-1-1-1-4-1-4h-2c-.55 0-1-.45-1-1s.45-1 1-1h1.1l-.2-.12c-.5-.26-.68-.87-.42-1.36.26-.48.87-.66 1.36-.4l2.64 1.43c.48.26.66.87.4 1.35"/></g><g><path fill="#ffac33" d="M21.88 3.9c-.1.18-.25.3-.42.4C19.86 6 21 8 21 8c0 .55 1 2 0 2l-1-1c-1-1-1-4-1-4h-2c-.55 0-1-.45-1-1s.45-1 1-1h1.1l-.2-.12c-.5-.26-.68-.87-.42-1.36.26-.48.87-.66 1.36-.4l2.64 1.43c.48.26.66.87.4 1.35"/></g><g><path fill="#dd2e44" d="M36.22 19.63c-1.35 0-7.9-4.62-11.56 5.37 0 0 0 .02 0 .04-1 3.6-4.06 6.33-7.83 6.86C14.13 34.3 10 34.44 10 33c0-.96 1.15-1.23 2.56-1.47C8.76 30.3 6 26.73 6 22.5c0-4.48 3.1-8.22 7.27-9.23C14.27 9.1 18.02 6 22.5 6c3.95 0 6.93 1.68 9 4 .54.63.1-.6.83-.24 4.24 2.14 5.17 9.87 3.9 9.87"/></g><g><path fill="#292f33" d="M13 25c0-1.1-.9-2-2-2s-2 .9-2 2 .9 2 2 2 2-.9 2-2"/></g><g><path fill="#a0041e" d="M22.8 21s-2-10 10-10c1 0 0-2-4-2s-10 5-7 11c.64 1.26 1 1 1 1"/></g></g></g></g></svg>