<svg xmlns="http://www.w3.org/2000/svg" viewBox="0 0 47.5 47.5" enable-background="new 0 0 47.5 47.5"><defs><clipPath id="a"><path d="M0 38h38V0H0v38z"/></clipPath></defs><g><g><g clip-path="url(#a)" transform="matrix(1.25 0 0 -1.25 0 47.5)"><g><path fill="#d99e82" d="M34 20c.46-.18.9-3-1-3-6 0-11-11-20-11S2 18.5 2 21s4.82 10 12 10 15-9 20-11"/></g><g><path fill="#d99e82" d="M4 18c0-.55-.67-1-1.5-1S1 17.45 1 18s0 2 1.5 1c.7-.46 1.5-.45 1.5-1"/></g><g><path fill="#c1694f" d="M34 20c.46-.18.88-.7-1-1-6-1-10.04.9-19 0-10-1-12-1-12 2 0 2.5 4.82 10 12 10s15-9 20-11"/></g><g><path fill="#d99e82" d="M31 19.5c0-2.48 3.34-4.5 5-4.5 1.66 0 0 2.02 0 4.5s1.66 4.5 0 4.5-5-2.02-5-4.5"/></g><g><path fill="#292f33" d="M9 24c0-.55-.45-1-1-1s-1 .45-1 1 .45 1 1 1 1-.45 1-1"/></g><g><path fill="#d99e82" d="M20.16 12S23 8 25 8s0 5 0 5h-2.84c-3 0-2-1-2-1"/></g><g><path fill="#c1694f" d="M22.35 28.08S25.2 30.88 27 30c4.07-2.04-2-4-2-4l-1.6.1c-3 .2-1.05 1.98-1.05 1.98"/></g><g><path fill="#c1694f" d="M19 12c0-1.1-.9-2-2-2s-2 .9-2 2 .9 2 2 2 2-.9 2-2"/></g><g><path fill="#c1694f" d="M22 16c0-.55-.45-1-1-1s-1 .45-1 1 .45 1 1 1 1-.45 1-1"/></g><g><path fill="#c1694f" d="M27 16.5c0-.83-.67-1.5-1.5-1.5s-1.5.67-1.5 1.5.67 1.5 1.5 1.5 1.5-.67 1.5-1.5"/></g><g><path fill="#662113" d="M19 22.5c0-.83-.67-1.5-1.5-1.5s-1.5.67-1.5 1.5.67 1.5 1.5 1.5 1.5-.67 1.5-1.5"/></g><g><path fill="#662113" d="M26 21.5c0-.83-.67-1.5-1.5-1.5s-1.5.67-1.5 1.5.67 1.5 1.5 1.5 1.5-.67 1.5-1.5"/></g><g><path fill="#662113" d="M22 26c0-.55-.45-1-1-1s-1 .45-1 1 .45 1 1 1 1-.45 1-1"/></g><g><path fill="#c1694f" d="M4 20c0-.55 1-2-1.5-1-.77.3-1.5.45-1.5 1s.67 1 1.5 1S4 20.55 4 20"/></g></g></g></g></svg>