<?xml version="1.0" encoding="UTF-8" standalone="no"?><svg xmlns:svg="http://www.w3.org/2000/svg" xmlns="http://www.w3.org/2000/svg" version="1.1" viewBox="0 0 47.5 47.5" style="enable-background:new 0 0 47.5 47.5;" id="svg2" xml:space="preserve"><defs id="defs6"><clipPath id="clipPath18"><path d="M 0,38 38,38 38,0 0,0 0,38 z" id="path20"/></clipPath></defs><g transform="matrix(1.25,0,0,-1.25,0,47.5)" id="g12"><g id="g14"><g clip-path="url(#clipPath18)" id="g16"><g transform="translate(34,20)" id="g22"><path d="m 0,0 c 0.461,-0.184 0.902,-3 -1,-3 -6,0 -11,-11 -20,-11 -9,0 -11,12.5 -11,15 0,2.5 4.82,10 12,10 7.18,0 15,-9 20,-11" id="path24" style="fill:#d99e82;fill-opacity:1;fill-rule:nonzero;stroke:none"/></g><g transform="translate(4,18)" id="g26"><path d="M 0,0 C 0,-0.553 -0.671,-1 -1.5,-1 -2.329,-1 -3,-0.553 -3,0 -3,0.553 -3,2 -1.5,1 -0.811,0.54 0,0.553 0,0" id="path28" style="fill:#d99e82;fill-opacity:1;fill-rule:nonzero;stroke:none"/></g><g transform="translate(34,20)" id="g30"><path d="m 0,0 c 0.461,-0.184 0.876,-0.687 -1,-1 -6,-1 -10.045,0.896 -19,0 -10,-1 -12,-1 -12,2 0,2.5 4.82,10 12,10 7.18,0 15,-9 20,-11" id="path32" style="fill:#c1694f;fill-opacity:1;fill-rule:nonzero;stroke:none"/></g><g transform="translate(31,19.5)" id="g34"><path d="M 0,0 C 0,-2.485 3.343,-4.5 5,-4.5 6.657,-4.5 5,-2.485 5,0 5,2.485 6.657,4.5 5,4.5 3.343,4.5 0,2.485 0,0" id="path36" style="fill:#d99e82;fill-opacity:1;fill-rule:nonzero;stroke:none"/></g><g transform="translate(9,24)" id="g38"><path d="m 0,0 c 0,-0.552 -0.448,-1 -1,-1 -0.552,0 -1,0.448 -1,1 0,0.552 0.448,1 1,1 0.552,0 1,-0.448 1,-1" id="path40" style="fill:#292f33;fill-opacity:1;fill-rule:nonzero;stroke:none"/></g><g transform="translate(20.1602,12)" id="g42"><path d="m 0,0 c 0,0 2.84,-4 4.84,-4 2,0 0,5 0,5 L 2,1 C -1,1 0,0 0,0" id="path44" style="fill:#d99e82;fill-opacity:1;fill-rule:nonzero;stroke:none"/></g><g transform="translate(22.3506,28.0771)" id="g46"><path d="m 0,0 c 0,0 2.86,2.817 4.649,1.923 4.075,-2.036 -2,-4 -2,-4 L 1.057,-1.971 C -1.937,-1.771 0,0 0,0" id="path48" style="fill:#c1694f;fill-opacity:1;fill-rule:nonzero;stroke:none"/></g><g transform="translate(19,12)" id="g50"><path d="m 0,0 c 0,-1.104 -0.896,-2 -2,-2 -1.104,0 -2,0.896 -2,2 0,1.104 0.896,2 2,2 1.104,0 2,-0.896 2,-2" id="path52" style="fill:#c1694f;fill-opacity:1;fill-rule:nonzero;stroke:none"/></g><g transform="translate(22,16)" id="g54"><path d="m 0,0 c 0,-0.553 -0.447,-1 -1,-1 -0.553,0 -1,0.447 -1,1 0,0.553 0.447,1 1,1 0.553,0 1,-0.447 1,-1" id="path56" style="fill:#c1694f;fill-opacity:1;fill-rule:nonzero;stroke:none"/></g><g transform="translate(27,16.5)" id="g58"><path d="M 0,0 C 0,-0.828 -0.672,-1.5 -1.5,-1.5 -2.328,-1.5 -3,-0.828 -3,0 -3,0.828 -2.328,1.5 -1.5,1.5 -0.672,1.5 0,0.828 0,0" id="path60" style="fill:#c1694f;fill-opacity:1;fill-rule:nonzero;stroke:none"/></g><g transform="translate(19,22.5)" id="g62"><path d="M 0,0 C 0,-0.829 -0.671,-1.5 -1.5,-1.5 -2.329,-1.5 -3,-0.829 -3,0 -3,0.829 -2.329,1.5 -1.5,1.5 -0.671,1.5 0,0.829 0,0" id="path64" style="fill:#662113;fill-opacity:1;fill-rule:nonzero;stroke:none"/></g><g transform="translate(26,21.5)" id="g66"><path d="M 0,0 C 0,-0.829 -0.672,-1.5 -1.5,-1.5 -2.328,-1.5 -3,-0.829 -3,0 -3,0.829 -2.328,1.5 -1.5,1.5 -0.672,1.5 0,0.829 0,0" id="path68" style="fill:#662113;fill-opacity:1;fill-rule:nonzero;stroke:none"/></g><g transform="translate(22,26)" id="g70"><path d="m 0,0 c 0,-0.552 -0.447,-1 -1,-1 -0.553,0 -1,0.448 -1,1 0,0.552 0.447,1 1,1 0.553,0 1,-0.448 1,-1" id="path72" style="fill:#662113;fill-opacity:1;fill-rule:nonzero;stroke:none"/></g><g transform="translate(4,20)" id="g74"><path d="M 0,0 C 0,-0.552 1,-2 -1.5,-1 -2.27,-0.692 -3,-0.552 -3,0 -3,0.552 -2.329,1 -1.5,1 -0.671,1 0,0.552 0,0" id="path76" style="fill:#c1694f;fill-opacity:1;fill-rule:nonzero;stroke:none"/></g></g></g></g></svg>
