<?xml version="1.0" encoding="UTF-8" standalone="no"?><svg xmlns:svg="http://www.w3.org/2000/svg" xmlns="http://www.w3.org/2000/svg" version="1.1" viewBox="0 0 47.5 47.5" style="enable-background:new 0 0 47.5 47.5;" id="svg2" xml:space="preserve"><defs id="defs6"><clipPath id="clipPath18"><path d="M 0,38 38,38 38,0 0,0 0,38 z" id="path20"/></clipPath></defs><g transform="matrix(1.25,0,0,-1.25,0,47.5)" id="g12"><g id="g14"><g clip-path="url(#clipPath18)" id="g16"><g transform="translate(35.5586,19)" id="g22"><path d="m 0,0 c 0,3.918 -1.515,7.474 -3.975,10.146 0.271,1.728 1.029,3.908 2.975,5.854 0.704,0.704 0.25,2 -1,2 0,0 -6.061,-0.007 -9.893,-3.327 C -12.896,14.885 -13.934,15 -15,15 c -8,0 -12,-4 -14,-12 -0.444,-1.778 -0.865,-1.399 -3,-3 -1.195,-0.896 -2.117,-3 1,-3 3,0 5,-1 9,-1 1.827,0 3.424,0.352 4.849,0.717 0.058,-1.588 0.491,-3.611 2.151,-4.717 2.354,-1.569 2.367,-1.897 3,0 0.814,2.443 0.288,3.574 -1.01,5.525 0.71,-0.004 1.377,-0.145 2.01,-0.525 2.697,-1.618 2.191,-4.108 0.685,-6.374 C -13.22,-12.77 -16.254,-9.915 -19,-9 c -3,1 -1,-1 0,-2 1,-1 1.313,-4 0,-6 -1.312,-2 3,0 5,3 0.011,0.017 0.021,0.028 0.032,0.045 C -6.167,-13.5 0,-7.936 0,0" id="path24" style="fill:#3b88c3;fill-opacity:1;fill-rule:nonzero;stroke:none"/></g><g transform="translate(16.1172,23)" id="g26"><path d="m 0,0 c 0,-1.104 -0.896,-2 -2,-2 -1.104,0 -2,0.896 -2,2 0,1.104 0.896,2 2,2 1.104,0 2,-0.896 2,-2" id="path28" style="fill:#292f33;fill-opacity:1;fill-rule:nonzero;stroke:none"/></g></g></g></g></svg>
