<svg xmlns="http://www.w3.org/2000/svg" viewBox="0 0 47.5 47.5" enable-background="new 0 0 47.5 47.5"><defs><clipPath id="a"><path d="M0 38h38V0H0v38z"/></clipPath></defs><g><g><g clip-path="url(#a)" transform="matrix(1.25 0 0 -1.25 0 47.5)"><g><path fill="#ffcc4d" d="M14 31c0-3.3-2.7-6-6-6s-6 2.7-6 6 2.7 6 6 6 6-2.7 6-6"/></g><g><path fill="#ffcc4d" d="M25 7c0-3.3-2.7-6-6-6s-6 2.7-6 6 2.7 6 6 6 6-2.7 6-6"/></g><g><path fill="#dd2e44" d="M23 7c0-2.2-1.8-4-4-4s-4 1.8-4 4 1.8 4 4 4 4-1.8 4-4"/></g><g><path fill="#ffcc4d" d="M36 31c0-3.3-2.7-6-6-6s-6 2.7-6 6 2.7 6 6 6 6-2.7 6-6"/></g><g><path fill="#e6aaaa" d="M12 31c0-2.2-1.8-4-4-4s-4 1.8-4 4 1.8 4 4 4 4-1.8 4-4"/></g><g><path fill="#e6aaaa" d="M34 31c0-2.2-1.8-4-4-4s-4 1.8-4 4 1.8 4 4 4 4-1.8 4-4"/></g><g><path fill="#ffcc4d" d="M35 15c0-7-4.92-7-4.92-7H7.92S3 8 3 15c0 0 1.23 22 16 22s16-22 16-22"/></g><g><path fill="#272b2b" d="M12 20s0 2 2 2 2-2 2-2v-2s0-2-2-2-2 2-2 2v2z"/></g><g><path fill="#272b2b" d="M22 20s0 2 2 2 2-2 2-2v-2s0-2-2-2-2 2-2 2v2z"/></g><g><path fill="#fff" d="M24.68 14c-2.4 0-4.5-.95-5.68-2.38-1.18 1.43-3.28 2.38-5.68 2.38C3 14 3.04 13.58 3 10.82 2.9 5.22 9.63 3.92 13.32 4c2.4.05 4.5 1 5.68 2.4C20.18 5 22.28 4.05 24.68 4c3.7-.08 10.4 1.2 10.32 6.82-.04 2.76 0 3.18-10.32 3.18"/></g><g><path fill="#272b2b" d="M34.66 11.76c.2-.28.33-.6.34-.94.03-1.9-.75-3.3-1.92-4.33L28 6l6.66 5.76z"/></g><g><path fill="#272b2b" d="M16 12c-1-1 2-4 3-4s4 3 3 4-5 1-6 0"/></g><g><path fill="#272b2b" d="M11 34c2.67-2 8-4 8-4s5.33 2 8 4l-8-1-8 1z"/></g><g><path fill="#272b2b" d="M19 35s1.65.62 3.58 1.5c-1.1.32-2.28.5-3.58.5-1.3 0-2.48-.18-3.58-.5C17.35 35.63 19 35 19 35"/></g><g><path fill="#272b2b" d="M12 28c3-2 7-4 7-4s4 2 7 4l-7-1-7 1z"/></g><g><path fill="#272b2b" d="M32.64 25.72L28 22l6-.75c-.33 1.4-.77 2.93-1.36 4.47"/></g><g><path fill="#272b2b" d="M34.56 18.56L29 13h5.83c.1.6.17 1.25.17 2 0 0-.08 1.43-.44 3.56"/></g><g><path fill="#272b2b" d="M3.44 18.56C3.08 16.43 3 15 3 15c0-.75.06-1.4.17-2H9l-5.56 5.56z"/></g><g><path fill="#272b2b" d="M3.34 11.76c-.2-.28-.33-.6-.34-.94-.03-1.9.74-3.3 1.92-4.33L10 6l-6.66 5.76z"/></g><g><path fill="#272b2b" d="M10 22l-4.64 3.7c-.6-1.52-1.03-3.05-1.37-4.45l6 .75z"/></g></g></g></g></svg>