<?xml version="1.0" encoding="UTF-8" standalone="no"?><svg xmlns:svg="http://www.w3.org/2000/svg" xmlns="http://www.w3.org/2000/svg" version="1.1" viewBox="0 0 47.5 47.5" style="enable-background:new 0 0 47.5 47.5;" id="svg2" xml:space="preserve"><defs id="defs6"><clipPath id="clipPath22"><path d="M 0,38 38,38 38,0 0,0 0,38 z" id="path24"/></clipPath></defs><g transform="matrix(1.25,0,0,-1.25,0,47.5)" id="g12"><g transform="translate(3.75,17.667)" id="g14"><path d="m 0,0 2.25,3.333 3,-3 4,2 3,-3 4,6 4,-3 3,1 2,-3 3,3 2,-4 -2,-7 -11,-5 -11,2 -6,6 L 0,0 z" id="path16" style="fill:#99aab5;fill-opacity:1;fill-rule:nonzero;stroke:none"/></g><g id="g18"><g clip-path="url(#clipPath22)" id="g20"><g transform="translate(30.9561,22.2876)" id="g26"><path d="m 0,0 c 0.021,0.288 0.044,0.574 0.044,0.867 0,5.943 -4.324,10.864 -9.996,11.819 1.189,0.259 2.031,0.509 0.996,1.026 -1.115,0.558 -2.231,-0.129 -2.999,-0.845 l -10e-4,0 -0.001,0 c -0.769,0.716 -1.883,1.403 -2.999,0.845 -1.035,-0.517 -0.193,-0.767 0.996,-1.026 -5.671,-0.955 -9.996,-5.876 -9.996,-11.819 0,-0.293 0.023,-0.579 0.044,-0.867 -0.483,-6.601 -6.303,-16.288 11.956,-16.288 C 6.303,-16.288 0.482,-6.601 0,0" id="path28" style="fill:#ffcc4d;fill-opacity:1;fill-rule:nonzero;stroke:none"/></g><g transform="translate(22,23)" id="g30"><path d="m 0,0 c 0,-1.657 -1.343,-2 -3,-2 -1.657,0 -3,0.343 -3,2 0,1.657 1.343,3 3,3 1.657,0 3,-1.343 3,-3" id="path32" style="fill:#f4900c;fill-opacity:1;fill-rule:nonzero;stroke:none"/></g><g transform="translate(14,25.5)" id="g34"><path d="M 0,0 C 0,-0.829 -0.671,-1.5 -1.5,-1.5 -2.329,-1.5 -3,-0.829 -3,0 -3,0.829 -2.329,1.5 -1.5,1.5 -0.671,1.5 0,0.829 0,0" id="path36" style="fill:#662113;fill-opacity:1;fill-rule:nonzero;stroke:none"/></g><g transform="translate(27,25.5)" id="g38"><path d="M 0,0 C 0,-0.829 -0.672,-1.5 -1.5,-1.5 -2.328,-1.5 -3,-0.829 -3,0 -3,0.829 -2.328,1.5 -1.5,1.5 -0.672,1.5 0,0.829 0,0" id="path40" style="fill:#662113;fill-opacity:1;fill-rule:nonzero;stroke:none"/></g><g transform="translate(32,12)" id="g42"><path d="m 0,0 -3,1 -4,-6 -3,5 -2,-2 -4,2 -3,-4 -3,6 -3,-2 -3.294,7.765 C -28.751,6.416 -29,4.984 -29,3.5 -29,-4.509 -21.836,-11 -13,-11 -4.164,-11 3,-4.509 3,3.5 3,4.744 2.809,5.944 2.483,7.097 L 0,0 z" id="path44" style="fill:#e1e8ed;fill-opacity:1;fill-rule:nonzero;stroke:none"/></g></g></g></g></svg>
