<svg xmlns="http://www.w3.org/2000/svg" viewBox="0 0 47.5 47.5" enable-background="new 0 0 47.5 47.5"><defs><clipPath id="a"><path d="M0 38h38V0H0v38z"/></clipPath></defs><g><g><g clip-path="url(#a)" transform="matrix(1.25 0 0 -1.25 0 47.5)"><g><path fill="#77b255" d="M10.84 17.08C10.84 7.24 17.42 7.4 16 7c-7-2-8.8 7.62-9.46 7.62-2.38 0-5.54.42-5.54 2.46S3.46 22 7.15 22c2.38 0 3.7-2.88 3.7-4.92"/></g><g><path fill="#77b255" d="M37 8.36c0-1.1-3.52.74-5 0-2-1-2 .9-2 2s1.34 1 3 1 4-1.9 4-3"/></g><g><path fill="#77b255" d="M17.7 3.86C17.7 1.1 16.45 1 14.87 1 13.28 1 12 1.1 12 3.86c0 .5.08 1.03.23 1.58C12.93 8.04 15 11 16.3 11c1.56 0 1.4-4.38 1.4-7.14"/></g><g><path fill="#77b255" d="M26.3 3.86C26.3 1.1 27.55 1 29.13 1 30.72 1 32 1.1 32 3.86c0 .5-.08 1.03-.23 1.58C31.07 8.04 29 11 27.7 11c-1.56 0-1.4-4.38-1.4-7.14"/></g><g><path fill="#3e721d" d="M33 10c0-4-5.15-4-11.5-4S10 6 10 10c0 6.63 5.15 12 11.5 12S33 16.63 33 10"/></g><g><path fill="#292f33" d="M7 19c0-.55-.45-1-1-1s-1 .45-1 1 .45 1 1 1 1-.45 1-1"/></g><g><path fill="#5c913b" d="M24.67 11.9c0-3.6-1.42-3.9-3.17-3.9s-3.17.3-3.17 3.9S19.75 20 21.5 20s3.17-4.5 3.17-8.1"/></g><g><path fill="#5c913b" d="M31 13c.87-3.48-.78-4-2.53-4-1.75 0-2.54-.7-2.54 2.9 0 3.6-1.1 6.5.64 6.5C28.3 18.4 30 17 31 13"/></g><g><path fill="#5c913b" d="M17.07 11.9c0-3.6-.8-2.9-2.54-2.9-1.75 0-3.4.52-2.53 4 1 4 3.25 5.4 5 5.4s.07-2.9.07-6.5"/></g></g></g></g></svg>