<?xml version="1.0" encoding="UTF-8" standalone="no"?><svg xmlns:dc="http://purl.org/dc/elements/1.1/" xmlns:cc="http://creativecommons.org/ns#" xmlns:rdf="http://www.w3.org/1999/02/22-rdf-syntax-ns#" xmlns:svg="http://www.w3.org/2000/svg" xmlns="http://www.w3.org/2000/svg" viewBox="0 0 47.5 47.5" style="enable-background:new 0 0 47.5 47.5;" xml:space="preserve" version="1.1" id="svg2"><metadata id="metadata8"><rdf:RDF><cc:Work rdf:about=""><dc:format>image/svg+xml</dc:format><dc:type rdf:resource="http://purl.org/dc/dcmitype/StillImage"/></cc:Work></rdf:RDF></metadata><defs id="defs6"><clipPath id="clipPath16" clipPathUnits="userSpaceOnUse"><path id="path18" d="M 0,38 38,38 38,0 0,0 0,38 Z"/></clipPath></defs><g transform="matrix(1.25,0,0,-1.25,0,47.5)" id="g10"><g id="g12"><g clip-path="url(#clipPath16)" id="g14"><g transform="translate(10.8423,17.0781)" id="g20"><path id="path22" style="fill:#77b255;fill-opacity:1;fill-rule:nonzero;stroke:none" d="m 0,0 c 0,-9.842 6.575,-9.673 5.158,-10.078 -7,-2 -8.804,7.618 -9.464,7.618 -2.378,0 -5.536,0.423 -5.536,2.46 0,2.039 2.46,4.922 6.151,4.922 C -1.312,4.922 0,2.039 0,0"/></g><g transform="translate(37,8.3623)" id="g24"><path id="path26" style="fill:#77b255;fill-opacity:1;fill-rule:nonzero;stroke:none" d="m 0,0 c 0,-1.104 -3.518,0.741 -5,0 -2,-1 -2,0.896 -2,2 0,1.104 1.343,1 3,1 1.657,0 4,-1.896 4,-3"/></g><g transform="translate(17.7148,3.8574)" id="g28"><path id="path30" style="fill:#77b255;fill-opacity:1;fill-rule:nonzero;stroke:none" d="m 0,0 c 0,-2.761 -1.279,-2.857 -2.857,-2.857 -1.579,0 -2.858,0.096 -2.858,2.857 0,0.489 0.085,1.029 0.234,1.587 0.69,2.59 2.754,5.556 4.052,5.556 C 0.149,7.143 0,2.761 0,0"/></g><g transform="translate(26.2861,3.8574)" id="g32"><path id="path34" style="fill:#77b255;fill-opacity:1;fill-rule:nonzero;stroke:none" d="m 0,0 c 0,-2.761 1.278,-2.857 2.856,-2.857 1.579,0 2.858,0.096 2.858,2.857 0,0.489 -0.085,1.029 -0.235,1.587 C 4.789,4.177 2.726,7.143 1.428,7.143 -0.15,7.143 0,2.761 0,0"/></g><g transform="translate(33,10)" id="g36"><path id="path38" style="fill:#3e721d;fill-opacity:1;fill-rule:nonzero;stroke:none" d="m 0,0 c 0,-4 -5.149,-4 -11.5,-4 -6.351,0 -11.5,0 -11.5,4 0,6.627 5.149,12 11.5,12 C -5.149,12 0,6.627 0,0"/></g><g transform="translate(7,19)" id="g40"><path id="path42" style="fill:#292f33;fill-opacity:1;fill-rule:nonzero;stroke:none" d="m 0,0 c 0,-0.553 -0.448,-1 -1,-1 -0.552,0 -1,0.447 -1,1 0,0.553 0.448,1 1,1 0.552,0 1,-0.447 1,-1"/></g><g transform="translate(24.667,11.9004)" id="g44"><path id="path46" style="fill:#5c913b;fill-opacity:1;fill-rule:nonzero;stroke:none" d="m 0,0 c 0,-3.591 -1.418,-3.9 -3.167,-3.9 -1.749,0 -3.166,0.309 -3.166,3.9 0,3.59 1.417,8.1 3.166,8.1 C -1.418,8.1 0,3.59 0,0"/></g><g transform="translate(31,13)" id="g48"><path id="path50" style="fill:#5c913b;fill-opacity:1;fill-rule:nonzero;stroke:none" d="m 0,0 c 0.871,-3.482 -0.784,-4 -2.533,-4 -1.749,0 -2.533,-0.69 -2.533,2.9 0,3.59 -1.117,6.5 0.632,6.5 C -2.685,5.4 -1,4 0,0"/></g><g transform="translate(17.0669,11.9004)" id="g52"><path id="path54" style="fill:#5c913b;fill-opacity:1;fill-rule:nonzero;stroke:none" d="m 0,0 c 0,-3.591 -0.785,-2.9 -2.534,-2.9 -1.749,0 -3.403,0.517 -2.533,4 1,4 3.251,5.4 5,5.4 C 1.683,6.5 0,3.59 0,0"/></g></g></g></g></svg>
