<svg xmlns="http://www.w3.org/2000/svg" viewBox="0 0 47.5 47.5" enable-background="new 0 0 47.5 47.5"><defs><clipPath id="a"><path d="M0 38h38V0H0v38z"/></clipPath></defs><g><g><g clip-path="url(#a)" transform="matrix(1.25 0 0 -1.25 0 47.5)"><g><path fill="#3e721d" d="M36.13 23.66c0 1 .77 2.32.77 2.63 0 .65-1.56.4-1.63 1.04-.2 1.8 1.9 3.32-1.75 3.3-1.35 0-.27 1.78-.27 2.74 0 .95-2.6.14-3.55.14-.96 0-.96 2.87-1.9 2.87-2.9 0-3.84-2.88-4.8-2.88s-1.74 3.62-2.87 2.87c-2.87-1.92-3.82-7.66-3.82-7.66s4.8 3.82 10.53 2.87c5.34-.88 4.8-10.8 5.64-16.88L25.6 1h3.37c.34 1.5 1.94.53 2.37 1.7.38 1-.67 1.95-.1 2.96.6 1 1 .75 2.1 1.37 1.2.66 0 2.2 0 3.16 0 .94 2.32 1.56 2.32 2.52 0 .63-1.07 1.3-.82 2.36.26 1.06 1.6 1.18 1.75 2.18.13.85-.93 1.45-.8 2.4.12.93 1.17 1.37 1.17 2.1 0 .7-.85 1-.85 1.9"/></g><g><path fill="#77b255" d="M35.44 23.54c0 4.04-2.87 9.1-9.57 9.1S8.6 22.6 5.77 22.53C3.88 24.47 1 22.47 1 20.5c0-3 5.37-4.6 5.65-4.88 1.08-1.15 3.92-8.1 8.7-1.95.8 1.03 1.3.42 3.48-.54C26.07 9.27 17 1 17 1h9.57c4.78 4.78 8.87 13.84 8.87 22 0 0-.02 0-.02 0 0 .17.02.36.02.54"/></g><g><path fill="#292f33" d="M24.91 24.9c.02-1.05-.84-1.9-1.9-1.9s-1.9.85-1.9 1.9c0 1.07.84 1.92 1.9 1.92s1.9-.85 1.9-1.9"/></g><g><path fill="#3e721d" d="M5.78 19.65c0-.8-.64-.48-1.43-.48-.8 0-1.44-.3-1.44.48 0 .8.66 1.43 1.45 1.43.8 0 1.43-.64 1.43-1.43"/></g><g><path fill="#fff" d="M19.18 18.22c0-1.06-.65-.96-1.44-.96-.8 0-1.43-.1-1.43.96 0 1.05.65 3.82 1.44 3.82.8 0 1.44-2.77 1.44-3.82"/></g><g><path fill="#fff" d="M15.35 17.26c0-1.06-.64-.96-1.44-.96-.78 0-1.42-.1-1.42.96s.64 3.83 1.43 3.83c.8 0 1.45-2.78 1.45-3.84"/></g><g><path fill="#3e721d" d="M19.04 18.2c-5.08-.72-10.2-2-12.4-2.58.28-.3.67-.95 1.17-1.68 2.42.63 6.98 1.73 11.5 2.37.53.1.9.57.82 1.1-.07.52-.56.88-1.08.8"/></g><g><path fill="#3e721d" d="M19.6 24.4c-.27 0-.53.1-.72.3-.4.38-.4 1 0 1.4.13.12 3.22 3.16 8.36 3.16.55 0 1-.45 1-1s-.45-1-1-1c-4.28 0-6.92-2.56-6.95-2.58-.2-.2-.46-.3-.7-.3"/></g></g></g></g></svg>