<svg xmlns="http://www.w3.org/2000/svg" viewBox="0 0 47.5 47.5" enable-background="new 0 0 47.5 47.5"><defs><clipPath id="a"><path d="M0 38h38V0H0v38z"/></clipPath></defs><g><g><g clip-path="url(#a)" transform="matrix(1.25 0 0 -1.25 0 47.5)"><g><path fill="#dd2e44" d="M16 7V4s0-3 3-3 3 3 3 3v3h-6z"/></g><g><path fill="#272b2b" d="M15 35c.04 3-14 2-14-8 0-4 0-14 3-14 4 0 10.95 18 11 22"/></g><g><path fill="#272b2b" d="M23 35c-.04 3 14 2 14-8 0-4 0-14-3-14-4 0-10.95 18-11 22"/></g><g><path fill="#ccd6dd" d="M32 15c0-7-4-7-4-7H10s-4 0-4 7c0 0 1 22 13 22s13-22 13-22"/></g><g><path fill="#8899a6" d="M24 14.97V15H14v-.03c-2.8-.25-5-2.6-5-5.47C9 6.46 11.46 4 14.5 4c1.86 0 3.5.93 4.5 2.34C20 4.94 21.64 4 23.5 4 26.54 4 29 6.46 29 9.5c0 2.87-2.2 5.22-5 5.47"/></g><g><path fill="#272b2b" d="M12 21s0 2 2 2 2-2 2-2v-2s0-2-2-2-2 2-2 2v2z"/></g><g><path fill="#272b2b" d="M22 21s0 2 2 2 2-2 2-2v-2s0-2-2-2-2 2-2 2v2z"/></g><g><path fill="#272b2b" d="M16 13c-1-1 2-4 3-4s4 3 3 4-5 1-6 0"/></g></g></g></g></svg>