<?xml version="1.0" encoding="UTF-8" standalone="no"?><svg xmlns:svg="http://www.w3.org/2000/svg" xmlns="http://www.w3.org/2000/svg" version="1.1" viewBox="0 0 47.5 47.5" style="enable-background:new 0 0 47.5 47.5;" id="svg2" xml:space="preserve"><defs id="defs6"><clipPath id="clipPath18"><path d="M 0,38 38,38 38,0 0,0 0,38 z" id="path20"/></clipPath></defs><g transform="matrix(1.25,0,0,-1.25,0,47.5)" id="g12"><g id="g14"><g clip-path="url(#clipPath18)" id="g16"><g transform="translate(35.1934,23.6709)" id="g22"><path d="m 0,0 c 0.387,0.371 0.733,0.795 1.02,1.28 1.685,2.853 0.269,10.292 -0.592,10.8 -0.696,0.411 -5.53,-1.05 -8.246,-3.132 -2.499,1.497 -5.344,2.381 -8.375,2.381 -3.022,0 -5.856,-0.879 -8.349,-2.367 -2.721,2.075 -7.533,3.528 -8.227,3.118 -0.861,-0.508 -2.276,-7.947 -0.592,-10.8 0.278,-0.471 0.615,-0.884 0.989,-1.249 -1.156,-2.552 -1.821,-5.342 -1.821,-8.18 0,-9.99 8.01,-12.522 18,-12.522 9.989,0 18,2.532 18,12.522 C 1.807,-5.322 1.146,-2.543 0,0" id="path24" style="fill:#f4abba;fill-opacity:1;fill-rule:nonzero;stroke:none"/></g><g transform="translate(8.3979,31.0352)" id="g26"><path d="M 0,0 C -2.166,1.268 -4.402,2.08 -4.8,1.845 -5.37,1.509 -5.883,-3.153 -5.151,-6.419 -3.879,-3.938 -2.112,-1.738 0,0" id="path28" style="fill:#ea596e;fill-opacity:1;fill-rule:nonzero;stroke:none"/></g><g transform="translate(34.7529,24.6157)" id="g30"><path d="M 0,0 C 0.732,3.267 0.219,7.928 -0.351,8.265 -0.749,8.5 -2.985,7.687 -5.151,6.419 -3.038,4.682 -1.271,2.482 0,0" id="path32" style="fill:#ea596e;fill-opacity:1;fill-rule:nonzero;stroke:none"/></g><g transform="translate(29,13.875)" id="g34"><path d="m 0,0 c 0,-4.487 -3.097,-9.375 -10,-9.375 -6.904,0 -10,4.888 -10,9.375 0,4.487 3.096,5.625 10,5.625 C -3.097,5.625 0,4.487 0,0" id="path36" style="fill:#ea596e;fill-opacity:1;fill-rule:nonzero;stroke:none"/></g><g transform="translate(16,12.4004)" id="g38"><path d="M 0,0 C 0,-1.857 -0.34,-2.4 -1.5,-2.4 -2.66,-2.4 -3,-1.857 -3,0 -3,1.856 -2.66,2.399 -1.5,2.399 -0.34,2.399 0,1.856 0,0" id="path40" style="fill:#662113;fill-opacity:1;fill-rule:nonzero;stroke:none"/></g><g transform="translate(25,12.4004)" id="g42"><path d="M 0,0 C 0,-1.857 -0.34,-2.4 -1.5,-2.4 -2.66,-2.4 -3,-1.857 -3,0 -3,1.856 -2.66,2.399 -1.5,2.399 -0.34,2.399 0,1.856 0,0" id="path44" style="fill:#662113;fill-opacity:1;fill-rule:nonzero;stroke:none"/></g><g transform="translate(10,20)" id="g46"><path d="m 0,0 c 0,-1.104 -0.896,-2 -2,-2 -1.104,0 -2,0.896 -2,2 0,1.104 0.896,2 2,2 1.104,0 2,-0.896 2,-2" id="path48" style="fill:#292f33;fill-opacity:1;fill-rule:nonzero;stroke:none"/></g><g transform="translate(32,20)" id="g50"><path d="m 0,0 c 0,-1.104 -0.896,-2 -2,-2 -1.104,0 -2,0.896 -2,2 0,1.104 0.896,2 2,2 1.104,0 2,-0.896 2,-2" id="path52" style="fill:#292f33;fill-opacity:1;fill-rule:nonzero;stroke:none"/></g></g></g></g></svg>
