<svg xmlns="http://www.w3.org/2000/svg" viewBox="0 0 47.5 47.5" enable-background="new 0 0 47.5 47.5"><defs><clipPath id="a"><path d="M0 38h38V0H0v38z"/></clipPath><clipPath id="b"><path d="M8 25c0-3.52.68-6.42 2-10 2.42-6.54 0-14 9-14s6.58 7.46 9 14c1.32 3.58 2 6.5 2 10 0 6-4.37 10-11 10S8 31 8 25"/></clipPath><clipPath id="c"><path d="M0 38h38V0H0v38z"/></clipPath></defs><g><g><g clip-path="url(#a)" transform="matrix(1.25 0 0 -1.25 0 47.5)"><g><path fill="#c1694f" d="M13 32c0-3.04-.62-8-2-8s-3-.04-3 3-1.5 10-1 10 6-1.96 6-5"/></g><g><path fill="#c1694f" d="M25 32c0-3.04.62-8 2-8s3-.04 3 3 1.5 10 1 10-6-1.96-6-5"/></g><g><path fill="#662113" d="M11 31c0-1.66-.45-3-1-3s-1 1.34-1 3-.55 3 0 3 2-1.34 2-3"/></g><g><path fill="#662113" d="M27 31c0-1.66.45-3 1-3s1 1.34 1 3 .55 3 0 3-2-1.34-2-3"/></g><g><path fill="#c1694f" d="M30 25c0-3.52-.68-6.42-2-10-2.42-6.54 0-14-9-14s-6.58 7.46-9 14c-1.32 3.58-2 6.48-2 10 0 6 4.37 10 11 10s11-4 11-10"/></g></g></g><g><g clip-path="url(#b)" transform="matrix(1.25 0 0 -1.25 0 47.5)"><g><path fill="#ccd6dd" d="M27 9.5C31.16 3.26 24.52 1 19 1S6.02 3.9 11 9.5c4 4.5 6-.5 8-.5s5 5 8 .5"/></g></g></g><g><g clip-path="url(#c)" transform="matrix(1.25 0 0 -1.25 0 47.5)"><g><path fill="#d99e82" d="M23 31c0-9.94-1.45-22-4-22s-4 12.06-4 22c0 2 1.45 4 4 4s4-2 4-4"/></g><g><path fill="#66757f" d="M16 8c0-1.1-.67-2-1.5-2S13 6.9 13 8s.67 2 1.5 2S16 9.1 16 8"/></g><g><path fill="#66757f" d="M25 8c0-1.1-.67-2-1.5-2S22 6.9 22 8s.67 2 1.5 2S25 9.1 25 8"/></g><g><path fill="#292f33" d="M12 22.5c0-.83-.67-1.5-1.5-1.5S9 21.67 9 22.5v2c0 .83.67 1.5 1.5 1.5s1.5-.67 1.5-1.5v-2z"/></g><g><path fill="#292f33" d="M29 22.5c0-.83-.67-1.5-1.5-1.5s-1.5.67-1.5 1.5v2c0 .83.67 1.5 1.5 1.5s1.5-.67 1.5-1.5v-2z"/></g><g><path fill="#662113" d="M24 34c1-2 0-6-4-8-.54-.27 3 3 1 4-.84.42-2.17-3.04-2-2 1 6-5 4-4 7 .52 1.57 2.34 2 4 2 2.75 0 4.26-1.52 5-3"/></g></g></g></g></svg>