<svg xmlns="http://www.w3.org/2000/svg" viewBox="0 0 47.5 47.5" enable-background="new 0 0 47.5 47.5"><defs><clipPath id="a"><path d="M0 38h38V0H0v38z"/></clipPath></defs><g><g><g clip-path="url(#a)" transform="matrix(1.25 0 0 -1.25 0 47.5)"><g><path fill="#c6e5b3" d="M37 15c0-7.46-8.06-12-18-12S1 7.54 1 15s8.06 15 18 15 18-7.54 18-15"/></g><g><path fill="#77b255" d="M32.75 24.32C34.12 25.42 35 27.12 35 29c0 3.3-2.7 6-6 6-2.86 0-5.25-2-5.85-4.68-1.3.48-2.68.75-4.15.75-1.47 0-2.86-.27-4.15-.75C14.25 33 11.85 35 9 35c-3.3 0-6-2.7-6-6 0-1.9.88-3.58 2.24-4.68C2.6 21.64 1 18.32 1 15c0-7.46 8.06-1 18-1s18-6.46 18 1c0 3.32-1.6 6.64-4.25 9.32"/></g><g><path fill="#fff" d="M12 29.5c0-1.93-1.57-3.5-3.5-3.5S5 27.57 5 29.5 6.57 33 8.5 33s3.5-1.57 3.5-3.5"/></g><g><path fill="#292f33" d="M10 29.5c0-.83-.67-1.5-1.5-1.5S7 28.67 7 29.5 7.67 31 8.5 31s1.5-.67 1.5-1.5"/></g><g><path fill="#fff" d="M33 29.5c0-1.93-1.57-3.5-3.5-3.5S26 27.57 26 29.5s1.57 3.5 3.5 3.5 3.5-1.57 3.5-3.5"/></g><g><path fill="#292f33" d="M31 29.5c0-.83-.67-1.5-1.5-1.5s-1.5.67-1.5 1.5.67 1.5 1.5 1.5 1.5-.67 1.5-1.5"/></g><g><path fill="#5c913b" d="M16 17c0-.55-.45-1-1-1s-1 .45-1 1 .45 1 1 1 1-.45 1-1"/></g><g><path fill="#5c913b" d="M24 17c0-.55-.45-1-1-1s-1 .45-1 1 .45 1 1 1 1-.45 1-1"/></g></g></g></g></svg>