<svg xmlns="http://www.w3.org/2000/svg" viewBox="0 0 47.5 47.5" enable-background="new 0 0 47.5 47.5"><defs><clipPath id="a"><path d="M0 38h38V0H0v38z"/></clipPath></defs><g><g><g clip-path="url(#a)" transform="matrix(1.25 0 0 -1.25 0 47.5)"><g><path fill="#f4abba" d="M35.2 23.67c.38.37.73.8 1 1.28 1.7 2.85.28 10.3-.58 10.8-.7.4-5.53-1.05-8.24-3.13C24.88 34.12 22.03 35 19 35c-3.02 0-5.86-.88-8.35-2.37-2.72 2.08-7.53 3.53-8.23 3.12-.86-.5-2.27-7.95-.6-10.8.3-.47.63-.88 1-1.25C1.67 21.15 1 18.36 1 15.52 1 5.52 9 3 19 3s18 2.53 18 12.52c0 2.83-.66 5.6-1.8 8.15"/></g><g><path fill="#ea596e" d="M8.4 31.04C6.23 32.3 4 33.12 3.6 32.88c-.57-.34-1.1-5-.35-8.26C4.52 27.1 6.3 29.3 8.4 31.04"/></g><g><path fill="#ea596e" d="M34.75 24.62c.73 3.26.22 7.92-.35 8.26-.4.24-2.63-.58-4.8-1.85 2.1-1.73 3.88-3.93 5.15-6.4"/></g><g><path fill="#ea596e" d="M29 13.88c0-4.5-3.1-9.38-10-9.38S9 9.4 9 13.88s3.1 5.62 10 5.62 10-1.14 10-5.63"/></g><g><path fill="#662113" d="M16 12.4c0-1.86-.34-2.4-1.5-2.4s-1.5.54-1.5 2.4c0 1.86.34 2.4 1.5 2.4s1.5-.54 1.5-2.4"/></g><g><path fill="#662113" d="M25 12.4c0-1.86-.34-2.4-1.5-2.4s-1.5.54-1.5 2.4c0 1.86.34 2.4 1.5 2.4s1.5-.54 1.5-2.4"/></g><g><path fill="#292f33" d="M10 20c0-1.1-.9-2-2-2s-2 .9-2 2 .9 2 2 2 2-.9 2-2"/></g><g><path fill="#292f33" d="M32 20c0-1.1-.9-2-2-2s-2 .9-2 2 .9 2 2 2 2-.9 2-2"/></g></g></g></g></svg>