<?xml version="1.0" encoding="UTF-8" standalone="no"?><svg xmlns:svg="http://www.w3.org/2000/svg" xmlns="http://www.w3.org/2000/svg" version="1.1" viewBox="0 0 47.5 47.5" style="enable-background:new 0 0 47.5 47.5;" id="svg2" xml:space="preserve"><defs id="defs6"><clipPath id="clipPath18"><path d="M 0,0 38,0 38,38 0,38 0,0 z" id="path20"/></clipPath><clipPath id="clipPath54"><path d="M 0,38 38,38 38,0 0,0 0,38 z" id="path56"/></clipPath></defs><g transform="matrix(1.25,0,0,-1.25,0,47.5)" id="g12"><g id="g14"><g clip-path="url(#clipPath18)" id="g16"><g transform="translate(37,30)" id="g22"><path d="M 0,0 C 0,4.939 -6.772,4.457 -9.169,4.132 -11.602,5.921 -14.556,7 -18,7 -21.438,7 -24.388,5.919 -26.818,4.131 -29.203,4.456 -36,4.948 -36,0 c 0,-2.891 1.563,-4.732 2.433,-5.533 C -34.514,-8.26 -35,-11.175 -35,-14 c 0,-9.941 10,-13 17,-13 7,0 17,3 17,13 0,2.835 -0.483,5.75 -1.426,8.473 C -1.555,-4.722 0,-2.883 0,0" id="path24" style="fill:#bf6952;fill-opacity:1;fill-rule:nonzero;stroke:none"/></g><g transform="translate(19,18)" id="g26"><path d="M 0,0 C -0.038,0 -0.074,-0.005 -0.111,-0.006 -0.074,0.031 -0.037,0.067 0,0.105 0.037,0.067 0.074,0.031 0.111,-0.006 0.074,-0.005 0.038,0 0,0 M 12,5 C 12,8.866 8.866,12 5,12 3.04,12 1.271,11.192 0,9.895 -1.271,11.192 -3.04,12 -5,12 -8.866,12 -12,8.866 -12,5 -12,1.223 -9.007,-1.846 -5.265,-1.986 -6.938,-3.453 -8,-5.6 -8,-8 c 0,-4.419 3.582,-8 8,-8 4.419,0 8,3.581 8,8 0,2.4 -1.062,4.547 -2.734,6.014 C 9.008,-1.846 12,1.223 12,5" id="path28" style="fill:#d79e84;fill-opacity:1;fill-rule:nonzero;stroke:none"/></g><g transform="translate(19,3.5)" id="g30"><path d="M 0,0 C -3.271,0 -5.36,4.102 -5.447,4.276 -5.525,4.432 -5.517,4.615 -5.425,4.763 -5.334,4.91 -5.173,5 -5,5 L 5,5 C 5.173,5 5.334,4.91 5.426,4.763 5.517,4.615 5.524,4.432 5.447,4.276 5.36,4.102 3.271,0 0,0" id="path32" style="fill:#642116;fill-opacity:1;fill-rule:nonzero;stroke:none"/></g><g transform="translate(18,11.5)" id="g34"><path d="m 0,0 c -0.276,0 -0.5,0.224 -0.5,0.5 l 0,2 C -0.5,2.776 -0.276,3 0,3 0.276,3 0.5,2.776 0.5,2.5 l 0,-2 C 0.5,0.224 0.276,0 0,0" id="path36" style="fill:#642116;fill-opacity:1;fill-rule:nonzero;stroke:none"/></g><g transform="translate(20,11.5)" id="g38"><path d="m 0,0 c -0.276,0 -0.5,0.224 -0.5,0.5 l 0,2 C -0.5,2.776 -0.276,3 0,3 0.276,3 0.5,2.776 0.5,2.5 l 0,-2 C 0.5,0.224 0.276,0 0,0" id="path40" style="fill:#642116;fill-opacity:1;fill-rule:nonzero;stroke:none"/></g><g transform="translate(16,21)" id="g42"><path d="m 0,0 c 0,-1.656 -0.896,-3 -2,-3 -1.104,0 -2,1.344 -2,3 0,1.657 0.896,3 2,3 1.104,0 2,-1.343 2,-3" id="path44" style="fill:#292f33;fill-opacity:1;fill-rule:nonzero;stroke:none"/></g><g transform="translate(26,21)" id="g46"><path d="m 0,0 c 0,-1.656 -0.896,-3 -2,-3 -1.104,0 -2,1.344 -2,3 0,1.657 0.896,3 2,3 1.104,0 2,-1.343 2,-3" id="path48" style="fill:#292f33;fill-opacity:1;fill-rule:nonzero;stroke:none"/></g></g></g><g id="g50"><g clip-path="url(#clipPath54)" id="g52"><g transform="translate(20,18)" id="g58"><path d="m 0,0 c 0,-0.553 -0.447,-1 -1,-1 -0.552,0 -1,0.447 -1,1 0,0.553 0.448,1 1,1 0.553,0 1,-0.447 1,-1" id="path60" style="fill:#d79e84;fill-opacity:1;fill-rule:nonzero;stroke:none"/></g></g></g></g></svg>
