<?xml version="1.0" encoding="UTF-8" standalone="no"?><svg xmlns:svg="http://www.w3.org/2000/svg" xmlns="http://www.w3.org/2000/svg" version="1.1" viewBox="0 0 47.5 47.5" style="enable-background:new 0 0 47.5 47.5;" id="svg2" xml:space="preserve"><defs id="defs6"><clipPath id="clipPath18"><path d="M 0,38 38,38 38,0 0,0 0,38 z" id="path20"/></clipPath></defs><g transform="matrix(1.25,0,0,-1.25,0,47.5)" id="g12"><g id="g14"><g clip-path="url(#clipPath18)" id="g16"><g transform="translate(33,25)" id="g22"><path d="m 0,0 c 2.122,2.122 5,-14.313 -3,-21 -2.757,-2.305 -6,-2.969 -8,-2.969 -2.371,0 -10.029,-0.031 -13,-0.031 -7.18,0 -8,4.925 -8,11 0,6.075 0.82,11 8,11 6,0 10,-2 13,-3.996 4.977,-3.312 5.992,-3.861 8,-2.004 3.213,2.97 1,6 3,8" id="path24" style="fill:#744eaa;fill-opacity:1;fill-rule:nonzero;stroke:none"/></g><g transform="translate(35.0029,14)" id="g26"><path d="m 0,0 c -0.465,-3.727 -2.041,-7.523 -5.003,-10 -2.757,-2.305 -6,-2.969 -8,-2.969 -2.371,0 -10.029,-0.031 -13,-0.031 -4.035,0 -6.061,1.555 -7.062,3.996 -0.781,1.902 3.062,-0.996 14.062,-0.996 14,0 17,5 19.003,10" id="path28" style="fill:#aa8dd8;fill-opacity:1;fill-rule:nonzero;stroke:none"/></g><g transform="translate(33,23)" id="g30"><path d="M 0,0 C 4.123,0 4,5 4,7 4,9 2,6 -1,5 -4,4 -8,7 -7,5 -6,3 -4,0 0,0" id="path32" style="fill:#744eaa;fill-opacity:1;fill-rule:nonzero;stroke:none"/></g><g transform="translate(11,30)" id="g34"><path d="m 0,0 c 0,-2.209 -0.896,-6 -2,-6 -1.104,0 -2,3.791 -2,6 0,2.209 0.896,2 2,2 1.104,0 2,0.209 2,-2" id="path36" style="fill:#55acee;fill-opacity:1;fill-rule:nonzero;stroke:none"/></g><g transform="translate(9,32)" id="g38"><path d="m 0,0 c 0,3 -6,2 -6,0 0,-2 3,-1 4,-3 1,-2 2,3 2,3" id="path40" style="fill:#55acee;fill-opacity:1;fill-rule:nonzero;stroke:none"/></g><g transform="translate(9,32)" id="g42"><path d="M 0,0 C 0,3 6,2 6,0 6,-2 3,-1 2,-3 1,-5 0,0 0,0" id="path44" style="fill:#55acee;fill-opacity:1;fill-rule:nonzero;stroke:none"/></g><g transform="translate(9,11.5)" id="g46"><path d="M 0,0 C 0,-0.828 -0.671,-1.5 -1.5,-1.5 -2.329,-1.5 -3,-0.828 -3,0 -3,0.828 -2.329,1.5 -1.5,1.5 -0.671,1.5 0,0.828 0,0" id="path48" style="fill:#292f33;fill-opacity:1;fill-rule:nonzero;stroke:none"/></g></g></g></g></svg>
