<?xml version="1.0" encoding="UTF-8" standalone="no"?><svg xmlns:svg="http://www.w3.org/2000/svg" xmlns="http://www.w3.org/2000/svg" version="1.1" viewBox="0 0 47.5 47.5" style="enable-background:new 0 0 47.5 47.5;" id="svg2" xml:space="preserve"><defs id="defs6"><clipPath id="clipPath18"><path d="M 0,38 38,38 38,0 0,0 0,38 z" id="path20"/></clipPath><clipPath id="clipPath46"><path d="m 8,25 c 0,-3.515 0.677,-6.419 2,-10 l 0,0 C 12.418,8.458 10,1 19,1 l 0,0 c 9,0 6.581,7.458 9,14 l 0,0 c 1.323,3.581 2,6.485 2,10 l 0,0 c 0,6 -4.373,10 -11,10 l 0,0 C 12.372,35 8,31 8,25" id="path48"/></clipPath><clipPath id="clipPath58"><path d="M 0,38 38,38 38,0 0,0 0,38 z" id="path60"/></clipPath></defs><g transform="matrix(1.25,0,0,-1.25,0,47.5)" id="g12"><g id="g14"><g clip-path="url(#clipPath18)" id="g16"><g transform="translate(13,32)" id="g22"><path d="m 0,0 c 0,-3.038 -0.619,-8 -2,-8 -1.381,0 -3,-0.038 -3,3 0,3.038 -1.5,10 -1,10 0.5,0 6,-1.962 6,-5" id="path24" style="fill:#c1694f;fill-opacity:1;fill-rule:nonzero;stroke:none"/></g><g transform="translate(25,32)" id="g26"><path d="M 0,0 C 0,-3.038 0.619,-8 2,-8 3.381,-8 5,-8.038 5,-5 5,-1.962 6.5,5 6,5 5.5,5 0,3.038 0,0" id="path28" style="fill:#c1694f;fill-opacity:1;fill-rule:nonzero;stroke:none"/></g><g transform="translate(11,31)" id="g30"><path d="m 0,0 c 0,-1.657 -0.448,-3 -1,-3 -0.552,0 -1,1.343 -1,3 0,1.657 -0.552,3 0,3 0.552,0 2,-1.343 2,-3" id="path32" style="fill:#662113;fill-opacity:1;fill-rule:nonzero;stroke:none"/></g><g transform="translate(27,31)" id="g34"><path d="M 0,0 C 0,-1.657 0.447,-3 1,-3 1.553,-3 2,-1.657 2,0 2,1.657 2.553,3 2,3 1.447,3 0,1.657 0,0" id="path36" style="fill:#662113;fill-opacity:1;fill-rule:nonzero;stroke:none"/></g><g transform="translate(30,25)" id="g38"><path d="m 0,0 c 0,-3.516 -0.677,-6.42 -2,-10 -2.419,-6.542 0,-14 -9,-14 -9,0 -6.582,7.458 -9,14 -1.323,3.58 -2,6.484 -2,10 0,6 4.373,10 11,10 C -4.373,10 0,6 0,0" id="path40" style="fill:#c1694f;fill-opacity:1;fill-rule:nonzero;stroke:none"/></g></g></g><g id="g42"><g clip-path="url(#clipPath46)" id="g44"><g transform="translate(27,9.5)" id="g50"><path d="m 0,0 c 4.16,-6.24 -2.478,-8.5 -8,-8.5 -5.523,0 -12.983,2.895 -8,8.5 4,4.5 6,-0.5 8,-0.5 2,0 5,5 8,0.5" id="path52" style="fill:#ccd6dd;fill-opacity:1;fill-rule:nonzero;stroke:none"/></g></g></g><g id="g54"><g clip-path="url(#clipPath58)" id="g56"><g transform="translate(23,31)" id="g62"><path d="m 0,0 c 0,-9.941 -1.451,-22 -4,-22 -2.549,0 -4,12.059 -4,22 0,2 1.451,4 4,4 2.549,0 4,-2 4,-4" id="path64" style="fill:#d99e82;fill-opacity:1;fill-rule:nonzero;stroke:none"/></g><g transform="translate(16,8)" id="g66"><path d="M 0,0 C 0,-1.104 -0.671,-2 -1.5,-2 -2.329,-2 -3,-1.104 -3,0 -3,1.104 -2.329,2 -1.5,2 -0.671,2 0,1.104 0,0" id="path68" style="fill:#66757f;fill-opacity:1;fill-rule:nonzero;stroke:none"/></g><g transform="translate(25,8)" id="g70"><path d="M 0,0 C 0,-1.104 -0.672,-2 -1.5,-2 -2.328,-2 -3,-1.104 -3,0 -3,1.104 -2.328,2 -1.5,2 -0.672,2 0,1.104 0,0" id="path72" style="fill:#66757f;fill-opacity:1;fill-rule:nonzero;stroke:none"/></g><g transform="translate(12,22.5)" id="g74"><path d="M 0,0 C 0,-0.829 -0.671,-1.5 -1.5,-1.5 -2.329,-1.5 -3,-0.829 -3,0 l 0,2 c 0,0.829 0.671,1.5 1.5,1.5 C -0.671,3.5 0,2.829 0,2 L 0,0 z" id="path76" style="fill:#292f33;fill-opacity:1;fill-rule:nonzero;stroke:none"/></g><g transform="translate(29,22.5)" id="g78"><path d="M 0,0 C 0,-0.829 -0.672,-1.5 -1.5,-1.5 -2.328,-1.5 -3,-0.829 -3,0 l 0,2 c 0,0.829 0.672,1.5 1.5,1.5 C -0.672,3.5 0,2.829 0,2 L 0,0 z" id="path80" style="fill:#292f33;fill-opacity:1;fill-rule:nonzero;stroke:none"/></g><g transform="translate(24,34)" id="g82"><path d="m 0,0 c 1,-2 0,-6 -4,-8 -0.544,-0.272 3,3 1,4 -0.842,0.421 -2.174,-3.042 -2,-2 1,6 -5,4 -4,7 0.524,1.572 2.343,2 4,2 2.75,0 4.259,-1.518 5,-3" id="path84" style="fill:#662113;fill-opacity:1;fill-rule:nonzero;stroke:none"/></g></g></g></g></svg>
