<svg xmlns="http://www.w3.org/2000/svg" viewBox="0 0 47.5 47.5" enable-background="new 0 0 47.5 47.5"><defs><clipPath id="a"><path d="M0 38h38V0H0v38z"/></clipPath></defs><g><g><g clip-path="url(#a)" transform="matrix(1.25 0 0 -1.25 0 47.5)"><g><path fill="#99aab5" d="M34.8 37c-.47.17-8-3.98-9.97-9.14-1.17-3.05-1.7-6.05-1.65-8.1C21.7 20.53 20.26 21 19 21c-1.26 0-2.7-.46-4.18-1.25.04 2.06-.48 5.06-1.65 8.1-1.97 5.17-9.5 9.32-9.97 9.14-.45-.18 4.27-16.05 7.03-20.84C7.8 13.6 6 10.34 6 7.16c0-3.22 1.63-5.13 4-5.93 2.53-.86 5 .94 9 .94s6.47-1.8 9-.94c2.36.8 4 2.7 4 5.94 0 3.17-1.8 6.42-4.22 9 2.75 4.78 7.47 20.65 7.02 20.82"/></g><g><path fill="#f4abba" d="M13.7 19.08c-.2 1.54-.7 3.55-1.47 5.58-1.53 4.02-5.68 7.25-6.04 7.1-.33-.1 2.6-10.13 4.77-14.85.86.83 1.78 1.57 2.72 2.18"/></g><g><path fill="#f4abba" d="M27.03 16.9c2.16 4.73 5.1 14.75 4.78 14.87-.35.14-4.5-3.1-6.04-7.1-.77-2.04-1.27-4.05-1.45-5.6.94-.6 1.86-1.34 2.73-2.16"/></g><g><path fill="#ccd6dd" d="M26 7c0-2.76-3.06-5-6.83-5-3.78 0-6.84 2.24-6.84 5s3.06 5 6.84 5C22.94 12 26 9.76 26 7"/></g><g><path fill="#fff" d="M22 6.42c0-2.76-.24-3-3-3s-3 .24-3 3c0 1 6 1 6 0"/></g><g><path fill="#292f33" d="M15 12.67c0-.83-.67-1.5-1.5-1.5s-1.5.67-1.5 1.5.67 1.5 1.5 1.5 1.5-.67 1.5-1.5"/></g><g><path fill="#292f33" d="M26 12.67c0-.83-.67-1.5-1.5-1.5s-1.5.67-1.5 1.5.67 1.5 1.5 1.5 1.5-.67 1.5-1.5"/></g><g><path fill="#f4abba" d="M22 11.17c0-1.66-2-3-3-3s-3 1.34-3 3 6 1.66 6 0"/></g></g></g></g></svg>