<?xml version="1.0" encoding="UTF-8" standalone="no"?><svg xmlns:svg="http://www.w3.org/2000/svg" xmlns="http://www.w3.org/2000/svg" version="1.1" viewBox="0 0 47.5 47.5" style="enable-background:new 0 0 47.5 47.5;" id="svg2" xml:space="preserve"><defs id="defs6"><clipPath id="clipPath18"><path d="M 0,38 38,38 38,0 0,0 0,38 z" id="path20"/></clipPath></defs><g transform="matrix(1.25,0,0,-1.25,0,47.5)" id="g12"><g id="g14"><g clip-path="url(#clipPath18)" id="g16"><g transform="translate(17.7056,20.8867)" id="g22"><path d="m 0,0 c 0,-4.483 -2.554,-2.038 -5.706,-2.038 -3.151,0 -5.705,-2.445 -5.705,2.038 0,2.926 2.554,6.113 5.705,6.113 C -2.554,6.113 0,2.926 0,0" id="path24" style="fill:#662113;fill-opacity:1;fill-rule:nonzero;stroke:none"/></g><g transform="translate(6.0742,28.9634)" id="g26"><path d="m 0,0 c 0.393,-1.335 0.007,-2.625 -0.862,-2.881 -0.87,-0.256 -1.893,0.619 -2.286,1.954 -0.394,1.335 -0.008,2.625 0.862,2.882 C -1.417,2.21 -0.393,1.335 0,0" id="path28" style="fill:#662113;fill-opacity:1;fill-rule:nonzero;stroke:none"/></g><g transform="translate(21.0742,28.0186)" id="g30"><path d="m 0,0 c -0.407,-1.332 -1.442,-2.196 -2.312,-1.93 -0.869,0.265 -1.244,1.561 -0.836,2.893 0.407,1.331 1.441,2.196 2.311,1.93 C 0.032,2.627 0.407,1.332 0,0" id="path32" style="fill:#662113;fill-opacity:1;fill-rule:nonzero;stroke:none"/></g><g transform="translate(10.9639,32.8779)" id="g34"><path d="M 0,0 C 0.366,-1.898 -0.217,-3.606 -1.302,-3.815 -2.387,-4.023 -3.563,-2.654 -3.928,-0.756 -4.293,1.142 -3.71,2.85 -2.625,3.059 -1.541,3.268 -0.365,1.898 0,0" id="path36" style="fill:#662113;fill-opacity:1;fill-rule:nonzero;stroke:none"/></g><g transform="translate(16.9595,32.0996)" id="g38"><path d="m 0,0 c -0.387,-1.894 -1.578,-3.25 -2.66,-3.029 -1.082,0.221 -1.646,1.936 -1.259,3.83 0.387,1.893 1.578,3.25 2.66,3.029 C -0.177,3.608 0.387,1.894 0,0" id="path40" style="fill:#662113;fill-opacity:1;fill-rule:nonzero;stroke:none"/></g><g transform="translate(31.7061,4.8867)" id="g42"><path d="m 0,0 c 0,-4.483 -2.555,-2.038 -5.706,-2.038 -3.151,0 -5.706,-2.445 -5.706,2.038 0,2.926 2.555,6.113 5.706,6.113 C -2.555,6.113 0,2.926 0,0" id="path44" style="fill:#662113;fill-opacity:1;fill-rule:nonzero;stroke:none"/></g><g transform="translate(20.0742,12.9639)" id="g46"><path d="m 0,0 c 0.394,-1.336 0.007,-2.626 -0.862,-2.882 -0.87,-0.256 -1.893,0.619 -2.286,1.954 -0.394,1.336 -0.008,2.626 0.862,2.882 C -1.417,2.21 -0.393,1.335 0,0" id="path48" style="fill:#662113;fill-opacity:1;fill-rule:nonzero;stroke:none"/></g><g transform="translate(35.0742,12.0186)" id="g50"><path d="m 0,0 c -0.407,-1.332 -1.442,-2.196 -2.312,-1.93 -0.869,0.266 -1.244,1.561 -0.836,2.893 0.407,1.332 1.442,2.196 2.311,1.93 C 0.032,2.627 0.407,1.332 0,0" id="path52" style="fill:#662113;fill-opacity:1;fill-rule:nonzero;stroke:none"/></g><g transform="translate(24.9639,16.8779)" id="g54"><path d="m 0,0 c 0.365,-1.897 -0.218,-3.606 -1.302,-3.814 -1.085,-0.209 -2.261,1.16 -2.626,3.058 C -4.293,1.142 -3.71,2.85 -2.626,3.059 -1.541,3.268 -0.365,1.898 0,0" id="path56" style="fill:#662113;fill-opacity:1;fill-rule:nonzero;stroke:none"/></g><g transform="translate(30.96,16.0996)" id="g58"><path d="m 0,0 c -0.388,-1.894 -1.578,-3.25 -2.66,-3.029 -1.082,0.221 -1.647,1.936 -1.26,3.83 0.388,1.894 1.578,3.25 2.66,3.029 C -0.178,3.608 0.387,1.894 0,0" id="path60" style="fill:#662113;fill-opacity:1;fill-rule:nonzero;stroke:none"/></g></g></g></g></svg>
