<svg xmlns="http://www.w3.org/2000/svg" viewBox="0 0 47.5 47.5" enable-background="new 0 0 47.5 47.5"><defs><clipPath id="a"><path d="M0 38h38V0H0v38z"/></clipPath></defs><g><g><g clip-path="url(#a)" transform="matrix(1.25 0 0 -1.25 0 47.5)"><g><path fill="#ffcc4d" d="M18 27.5c0-4.7-3.8-8.5-8.5-8.5S1 22.8 1 27.5 4.8 36 9.5 36s8.5-3.8 8.5-8.5"/></g><g><path fill="#ffcc4d" d="M37 27.5c0-4.7-3.8-8.5-8.5-8.5S20 22.8 20 27.5s3.8 8.5 8.5 8.5 8.5-3.8 8.5-8.5"/></g><g><path fill="#ea596e" d="M14.9 31.15c-1.25 1.62-3.22 2.66-5.43 2.66-3.8 0-6.9-3.08-6.9-6.9 0-2.77 1.63-5.15 4-6.25.7 4.2 3.97 8.67 8.34 10.5"/></g><g><path fill="#ea596e" d="M28.53 33.8c-2.2 0-4.18-1.03-5.44-2.65 4.36-1.83 7.63-6.3 8.34-10.5 2.36 1.1 4 3.48 4 6.26 0 3.82-3.1 6.9-6.9 6.9"/></g><g><path fill="#ffe8b6" d="M35 14.4c-2 10.05-11.33 6.5-16 6.5S5 24.46 3 14.4C1.7 7.9 6.8 4.54 12.03 3.03 13.68 1.8 16.2 1 19 1c2.8 0 5.32.8 6.97 2.02C31.2 4.52 36.3 7.9 35 14.42"/></g><g><path fill="#ffcc4d" d="M31.6 19c0-11-5.64-6-12.6-6S6.4 8 6.4 19c0 5.8 5.64 13 12.6 13s12.6-7.2 12.6-13"/></g><g><path fill="#ea596e" d="M21.9 9.04c0-1.6-2-3.35-2.9-3.35-.9 0-2.9 1.74-2.9 3.34 0 1.6 1.78 1.96 2.9 1.96 1.12 0 2.9-.35 2.9-1.96"/></g><g><path fill="#c1694f" d="M36.5 6.7c-5.23 3.14-12.34 2.17-12.64 2.13-.02 0-.03 0-.04 0-.08-.03-.15-.06-.23-.1-.05 0-.1-.03-.14-.05-.06-.04-.1-.1-.16-.15-.04-.04-.08-.07-.12-.12-.03-.04-.05-.1-.08-.16-.02-.06-.06-.12-.07-.2 0 0 0-.02-.02-.04 0-.05.02-.1.02-.16 0-.04-.02-.1 0-.14 0-.02 0-.03 0-.04.02-.07.05-.13.07-.2.02-.06.04-.12.07-.17.03-.05.07-.08.1-.12.06-.06.1-.12.17-.16.04-.03.08-.04.13-.06.07-.04.14-.07.22-.1 0 0 .02 0 .04 0 .05-.02 5.63-.98 8.36-4.62.2-.26.5-.4.8-.4.2 0 .42.07.6.2.44.33.53.96.2 1.4C32.7 4.92 31.23 6 29.77 6.8c1.88-.23 3.95-.76 5.72-1.82.15-.1.32-.14.5-.14.34 0 .67.17.86.5.28.46.13 1.07-.35 1.36"/></g><g><path fill="#c1694f" d="M14.83 7.3c.03.05.05.1.08.16.03.07.06.13.07.2 0 0 .02.02.02.04 0 .05-.02.1-.02.15 0 .05.02.1 0 .16 0 .02 0 .03 0 .05-.03.07-.06.13-.08.2-.03.05-.05.1-.08.16-.04.05-.08.1-.12.13-.05.05-.1.1-.16.15-.04.02-.1.04-.13.06-.07.03-.14.06-.22.08 0 0-.02 0-.04 0-.3.05-7.4 1.02-12.65-2.12-.5-.3-.64-.9-.36-1.38.2-.3.52-.48.86-.48.18 0 .35.05.52.14 1.76 1.06 3.83 1.58 5.7 1.83C6.77 6 5.32 4.93 4.2 3.45c-.33-.44-.24-1.07.2-1.4.18-.14.4-.2.6-.2.3 0 .6.14.8.4 2.72 3.62 8.3 4.6 8.37 4.6 0 .02.02.02.04.03.08 0 .15.05.22.08.05.02.1.04.14.07.06.04.1.1.15.14.05.05.1.08.13.13"/></g><g><path fill="#272b2b" d="M11 17s0 2 2 2 2-2 2-2v-2s0-2-2-2-2 2-2 2v2z"/></g><g><path fill="#272b2b" d="M23 17s0 2 2 2 2-2 2-2v-2s0-2-2-2-2 2-2 2v2z"/></g></g></g></g></svg>