<svg xmlns="http://www.w3.org/2000/svg" viewBox="0 0 47.5 47.5" enable-background="new 0 0 47.5 47.5"><defs><clipPath id="a"><path d="M0 38h38V0H0v38z"/></clipPath></defs><g><g><g clip-path="url(#a)" transform="matrix(1.25 0 0 -1.25 0 47.5)"><g><path fill="#744eaa" d="M33 25c2.12 2.12 5-14.3-3-21-2.76-2.3-6-2.97-8-2.97C19.63 1.03 11.97 1 9 1 1.82 1 1 5.92 1 12s.82 11 8 11c6 0 10-2 13-4 4.98-3.3 6-3.86 8-2 3.2 2.97 1 6 3 8"/></g><g><path fill="#aa8dd8" d="M35 14c-.46-3.73-2.04-7.52-5-10-2.76-2.3-6-2.97-8-2.97C19.63 1.03 11.97 1 9 1 4.96 1 2.94 2.56 1.94 5 1.16 6.9 5 4 16 4c14 0 17 5 19 10"/></g><g><path fill="#744eaa" d="M33 23c4.12 0 4 5 4 7s-2-1-5-2-7 2-6 0 3-5 7-5"/></g><g><path fill="#55acee" d="M11 30c0-2.2-.9-6-2-6s-2 3.8-2 6 .9 2 2 2 2 .2 2-2"/></g><g><path fill="#55acee" d="M9 32c0 3-6 2-6 0s3-1 4-3 2 3 2 3"/></g><g><path fill="#55acee" d="M9 32c0 3 6 2 6 0s-3-1-4-3-2 3-2 3"/></g><g><path fill="#292f33" d="M9 11.5c0-.83-.67-1.5-1.5-1.5S6 10.67 6 11.5 6.67 13 7.5 13 9 12.33 9 11.5"/></g></g></g></g></svg>