<?xml version="1.0" encoding="UTF-8" standalone="no"?><svg xmlns:svg="http://www.w3.org/2000/svg" xmlns="http://www.w3.org/2000/svg" version="1.1" viewBox="0 0 47.5 47.5" style="enable-background:new 0 0 47.5 47.5;" id="svg2" xml:space="preserve"><defs id="defs6"><clipPath id="clipPath18"><path d="M 0,38 38,38 38,0 0,0 0,38 z" id="path20"/></clipPath></defs><g transform="matrix(1.25,0,0,-1.25,0,47.5)" id="g12"><g id="g14"><g clip-path="url(#clipPath18)" id="g16"><g transform="translate(14,31)" id="g22"><path d="m 0,0 c 0,-3.313 -2.687,-6 -6,-6 -3.313,0 -6,2.687 -6,6 0,3.313 2.687,6 6,6 3.313,0 6,-2.687 6,-6" id="path24" style="fill:#272b2b;fill-opacity:1;fill-rule:nonzero;stroke:none"/></g><g transform="translate(36,31)" id="g26"><path d="m 0,0 c 0,-3.313 -2.687,-6 -6,-6 -3.313,0 -6,2.687 -6,6 0,3.313 2.687,6 6,6 3.313,0 6,-2.687 6,-6" id="path28" style="fill:#272b2b;fill-opacity:1;fill-rule:nonzero;stroke:none"/></g><g transform="translate(12,31)" id="g30"><path d="m 0,0 c 0,-2.209 -1.791,-4 -4,-4 -2.209,0 -4,1.791 -4,4 0,2.209 1.791,4 4,4 2.209,0 4,-1.791 4,-4" id="path32" style="fill:#66757f;fill-opacity:1;fill-rule:nonzero;stroke:none"/></g><g transform="translate(34,31)" id="g34"><path d="m 0,0 c 0,-2.209 -1.791,-4 -4,-4 -2.209,0 -4,1.791 -4,4 0,2.209 1.791,4 4,4 2.209,0 4,-1.791 4,-4" id="path36" style="fill:#66757f;fill-opacity:1;fill-rule:nonzero;stroke:none"/></g><g transform="translate(36,15)" id="g38"><path d="m 0,0 c 0,-7 -6.375,-12 -17,-12 -10.625,0 -17,5 -17,12 0,0 1.308,22 17,22 C -1.308,22 0,0 0,0" id="path40" style="fill:#eeeeee;fill-opacity:1;fill-rule:nonzero;stroke:none"/></g><g transform="translate(25,7)" id="g42"><path d="m 0,0 c 0,-3.313 -2.687,-6 -6,-6 -3.313,0 -6,2.687 -6,6 0,3.313 2.687,6 6,6 3.313,0 6,-2.687 6,-6" id="path44" style="fill:#ccd6dd;fill-opacity:1;fill-rule:nonzero;stroke:none"/></g><g transform="translate(23,7)" id="g46"><path d="m 0,0 c 0,-2.209 -1.791,-4 -4,-4 -2.209,0 -4,1.791 -4,4 0,2.209 1.791,4 4,4 2.209,0 4,-1.791 4,-4" id="path48" style="fill:#dd2e44;fill-opacity:1;fill-rule:nonzero;stroke:none"/></g><g transform="translate(21.709,24.3457)" id="g50"><path d="m 0,0 c 4.454,2.776 11.291,-4.346 6.243,-10.016 -3.489,-3.921 -6.952,-2.33 -6.952,-2.33 0,0 -2.636,10.261 0.709,12.346" id="path52" style="fill:#272b2b;fill-opacity:1;fill-rule:nonzero;stroke:none"/></g><g transform="translate(16.2666,24.3354)" id="g54"><path d="m 0,0 c -4.454,2.776 -11.291,-4.346 -6.244,-10.016 3.49,-3.92 6.953,-2.329 6.953,-2.329 0,0 2.636,10.26 -0.709,12.345" id="path56" style="fill:#272b2b;fill-opacity:1;fill-rule:nonzero;stroke:none"/></g><g transform="translate(12,20)" id="g58"><path d="M 0,0 C 0,0 0,2 2,2 4,2 4,0 4,0 l 0,-2 c 0,0 0,-2 -2,-2 -2,0 -2,2 -2,2 l 0,2 z" id="path60" style="fill:#66757f;fill-opacity:1;fill-rule:nonzero;stroke:none"/></g><g transform="translate(19,17)" id="g62"><path d="m 0,0 c 0,0 -11,-3.687 -11,-7 0,-3.313 2.687,-6 6,-6 2.088,0 3.925,1.067 5,2.686 C 1.074,-11.933 2.912,-13 5,-13 c 3.313,0 6,2.687 6,6 0,3.313 -11,7 -11,7" id="path64" style="fill:#ffffff;fill-opacity:1;fill-rule:nonzero;stroke:none"/></g><g transform="translate(22,20)" id="g66"><path d="M 0,0 C 0,0 0,2 2,2 4,2 4,0 4,0 l 0,-2 c 0,0 0,-2 -2,-2 -2,0 -2,2 -2,2 l 0,2 z" id="path68" style="fill:#66757f;fill-opacity:1;fill-rule:nonzero;stroke:none"/></g><g transform="translate(14.1255,12)" id="g70"><path d="M 0,0 C -1.625,-1 3.25,-4 4.875,-4 6.5,-4 11.374,-1 9.749,0 8.124,1 1.625,1 0,0" id="path72" style="fill:#272b2b;fill-opacity:1;fill-rule:nonzero;stroke:none"/></g></g></g></g></svg>
