<?xml version="1.0" encoding="UTF-8" standalone="no"?><svg xmlns:svg="http://www.w3.org/2000/svg" xmlns="http://www.w3.org/2000/svg" version="1.1" viewBox="0 0 47.5 47.5" style="enable-background:new 0 0 47.5 47.5;" id="svg2" xml:space="preserve"><defs id="defs6"><clipPath id="clipPath26"><path d="M 0,38 38,38 38,0 0,0 0,38 z" id="path28"/></clipPath></defs><g transform="matrix(1.25,0,0,-1.25,0,47.5)" id="g12"><g transform="translate(7,14)" id="g14"><path d="m 0,0 -5,3 2,-6 -1,-2 6,-5 7,-2 3,11 -12,1 z" id="path16" style="fill:#ccd6dd;fill-opacity:1;fill-rule:nonzero;stroke:none"/></g><g transform="translate(32,14)" id="g18"><path d="m 0,0 5,3 -2,-6 1,-2 -6,-5 -7,-2 -3,11 12,1 z" id="path20" style="fill:#ccd6dd;fill-opacity:1;fill-rule:nonzero;stroke:none"/></g><g id="g22"><g clip-path="url(#clipPath26)" id="g24"><g transform="translate(12,30)" id="g30"><path d="M 0,0 C 0,-3.866 -3.032,-7 -6.771,-7 -10.51,-7 -7.899,7 -7.899,7 -7.899,7 0,3.866 0,0" id="path32" style="fill:#66757f;fill-opacity:1;fill-rule:nonzero;stroke:none"/></g><g transform="translate(25,7)" id="g34"><path d="m 0,0 c 0,-3.313 -2.687,-6 -6,-6 -3.313,0 -6,2.687 -6,6 0,3.313 2.687,6 6,6 3.313,0 6,-2.687 6,-6" id="path36" style="fill:#66757f;fill-opacity:1;fill-rule:nonzero;stroke:none"/></g><g transform="translate(23,7)" id="g38"><path d="m 0,0 c 0,-2.209 -1.791,-4 -4,-4 -2.209,0 -4,1.791 -4,4 0,2.209 1.791,4 4,4 2.209,0 4,-1.791 4,-4" id="path40" style="fill:#dd2e44;fill-opacity:1;fill-rule:nonzero;stroke:none"/></g><g transform="translate(32.7705,23)" id="g42"><path d="m 0,0 c -3.739,0 -6.771,3.134 -6.771,7 0,3.866 7.9,7 7.9,7 C 1.129,14 3.739,0 0,0" id="path44" style="fill:#66757f;fill-opacity:1;fill-rule:nonzero;stroke:none"/></g><g transform="translate(10,29)" id="g46"><path d="m 0,0 c 0,-2.209 -1.791,-4 -4,-4 -2.209,0 0,8 0,8 0,0 4,-1.791 4,-4" id="path48" style="fill:#e6aaaa;fill-opacity:1;fill-rule:nonzero;stroke:none"/></g><g transform="translate(32,25)" id="g50"><path d="M 0,0 C -2.209,0 -4,1.791 -4,4 -4,6.209 0,8 0,8 0,8 2.209,0 0,0" id="path52" style="fill:#e6aaaa;fill-opacity:1;fill-rule:nonzero;stroke:none"/></g><g transform="translate(35,15)" id="g54"><path d="m 0,0 c 0,-7 -6.923,-7 -6.923,-7 l -18.154,0 c 0,0 -6.923,0 -6.923,7 0,0 1.231,19 16,19 C -1.23,19 0,0 0,0" id="path56" style="fill:#66757f;fill-opacity:1;fill-rule:nonzero;stroke:none"/></g><g transform="translate(12,20)" id="g58"><path d="M 0,0 C 0,0 0,2 2,2 4,2 4,0 4,0 l 0,-2 c 0,0 0,-2 -2,-2 -2,0 -2,2 -2,2 l 0,2 z" id="path60" style="fill:#272b2b;fill-opacity:1;fill-rule:nonzero;stroke:none"/></g><g transform="translate(22,20)" id="g62"><path d="M 0,0 C 0,0 0,2 2,2 4,2 4,0 4,0 l 0,-2 c 0,0 0,-2 -2,-2 -2,0 -2,2 -2,2 l 0,2 z" id="path64" style="fill:#272b2b;fill-opacity:1;fill-rule:nonzero;stroke:none"/></g><g transform="translate(33.7148,12.8379)" id="g66"><path d="M 0,0 1.229,3.162 -1.399,0.496 c -0.388,0.1 -0.823,0.191 -1.316,0.27 l 0,4.396 -2.518,-4.121 c -1.101,0.076 -2.351,0.121 -3.804,0.121 -3.483,0 -1.003,-4.451 -5.762,-4.949 -4.759,0.498 -2.28,4.949 -5.762,4.949 -1.38,0 -2.582,-0.04 -3.643,-0.108 l -2.511,4.108 0,-4.366 c -0.509,-0.077 -0.947,-0.169 -1.348,-0.267 l -2.596,2.633 1.203,-3.093 c -1.689,-0.778 -1.502,-1.864 -0.427,-2.907 5.999,-5.818 9,-6 9.322,-6 2.46,0 4.603,0.998 5.762,2.481 1.159,-1.483 3.303,-2.481 5.762,-2.481 0.322,0 3.323,0.182 9.322,6 C 1.329,-1.825 1.532,-0.772 0,0" id="path68" style="fill:#ccd6dd;fill-opacity:1;fill-rule:nonzero;stroke:none"/></g><g transform="translate(16,12)" id="g70"><path d="M 0,0 C -1,-1 0,-4 3,-4 6,-4 7,-1 6,0 5,1 1,1 0,0" id="path72" style="fill:#272b2b;fill-opacity:1;fill-rule:nonzero;stroke:none"/></g></g></g></g></svg>
