<svg xmlns="http://www.w3.org/2000/svg" viewBox="0 0 47.5 47.5" enable-background="new 0 0 47.5 47.5"><defs><clipPath id="a"><path d="M0 38h38V0H0v38z"/></clipPath></defs><g><g><g clip-path="url(#a)" transform="matrix(1.25 0 0 -1.25 0 47.5)"><g><path fill="#272b2b" d="M14 31c0-3.3-2.7-6-6-6s-6 2.7-6 6 2.7 6 6 6 6-2.7 6-6"/></g><g><path fill="#272b2b" d="M36 31c0-3.3-2.7-6-6-6s-6 2.7-6 6 2.7 6 6 6 6-2.7 6-6"/></g><g><path fill="#66757f" d="M12 31c0-2.2-1.8-4-4-4s-4 1.8-4 4 1.8 4 4 4 4-1.8 4-4"/></g><g><path fill="#66757f" d="M34 31c0-2.2-1.8-4-4-4s-4 1.8-4 4 1.8 4 4 4 4-1.8 4-4"/></g><g><path fill="#eee" d="M36 15c0-7-6.38-12-17-12C8.37 3 2 8 2 15c0 0 1.3 22 17 22s17-22 17-22"/></g><g><path fill="#ccd6dd" d="M25 7c0-3.3-2.7-6-6-6s-6 2.7-6 6 2.7 6 6 6 6-2.7 6-6"/></g><g><path fill="#dd2e44" d="M23 7c0-2.2-1.8-4-4-4s-4 1.8-4 4 1.8 4 4 4 4-1.8 4-4"/></g><g><path fill="#272b2b" d="M21.7 24.35C26.17 27.12 33 20 27.96 14.33 24.45 10.4 21 12 21 12s-2.64 10.26.7 12.35"/></g><g><path fill="#272b2b" d="M16.27 24.34C11.8 27.1 4.97 20 10.02 14.32c3.5-3.92 6.96-2.33 6.96-2.33s2.63 10.25-.7 12.34"/></g><g><path fill="#66757f" d="M12 20s0 2 2 2 2-2 2-2v-2s0-2-2-2-2 2-2 2v2z"/></g><g><path fill="#fff" d="M19 17S8 13.3 8 10s2.7-6 6-6c2.1 0 3.92 1.07 5 2.7C20.07 5.06 21.9 4 24 4c3.3 0 6 2.7 6 6s-11 7-11 7"/></g><g><path fill="#66757f" d="M22 20s0 2 2 2 2-2 2-2v-2s0-2-2-2-2 2-2 2v2z"/></g><g><path fill="#272b2b" d="M14.13 12C12.5 11 17.38 8 19 8c1.63 0 6.5 3 4.87 4-1.62 1-8.12 1-9.74 0"/></g></g></g></g></svg>