<svg xmlns="http://www.w3.org/2000/svg" viewBox="0 0 47.5 47.5" enable-background="new 0 0 47.5 47.5"><defs><clipPath id="a"><path d="M0 38h38V0H0v38z"/></clipPath></defs><g><g><g clip-path="url(#a)" transform="matrix(1.25 0 0 -1.25 0 47.5)"><g><path fill="#ffcb4e" d="M34 20c1.07 6.08 1.26 15.05 0 15.86-1.26.82-10.07-2.2-11.9-6.26-1.02.27-3.1.4-3.1.4s-2-.13-3.02-.4C14.14 33.65 5.26 36.68 4 35.86c-1.26-.8-1.07-9.78 0-15.86 0 0-.97-1.98-.97-8.95l16 3.97v.83l16-4.83c0 7-1.03 8.98-1.03 8.98"/></g><g><path fill="#ffd882" d="M24.95 17.72c-2.1 0-4.28-.48-5.92-1.28-1.64.8-3.82 1.28-5.9 1.28-9.94 0-10.1-5.1-10.1-6.67C3.03 9.5 5 1.02 19 1.02s16.03 8.44 16.03 10c0 1.56-.15 6.7-10.08 6.7"/></g><g><path fill="#f28f20" d="M24.4 28.95c2.18 2.38 6.7 4.17 7.6 3.94.77-.2.65-6.4.05-9.95-2.57 4.25-7.64 6-7.64 6"/></g><g><path fill="#f28f20" d="M13.66 28.95c-2.17 2.38-6.68 4.17-7.6 3.94-.76-.2-.64-6.4-.04-9.95 2.57 4.25 7.64 6 7.64 6"/></g><g><path fill="#faaa35" d="M23.04 17c0 4.7-1.8 13-4.04 13-2.23 0-4.04-8.3-4.04-13 0-4.7 1.8-2 4.04-2 2.23 0 4.04-2.7 4.04 2"/></g><g><path fill="#2a2f33" d="M16.02 20c0-1.1-.9-2-2.02-2s-2.02.9-2.02 2 .9 2 2.02 2 2.02-.9 2.02-2"/></g><g><path fill="#2a2f33" d="M26.04 20c0-1.1-.9-2-2.02-2S22 18.9 22 20s.9 2 2.02 2 2.02-.9 2.02-2"/></g><g><path fill="#f28f20" d="M19.02 8.13c-.55 0-1 .44-1 1V12c0 .55.45 1 1 1s1-.45 1-1V9.12c0-.55-.45-1-1-1"/></g><g><path fill="#f28f20" d="M23.07 5.92c-4 0-4.96 2.76-5 2.9-.17.52.1 1.08.64 1.25.53.18 1.1-.1 1.27-.62.04-.12.87-2.14 4.83-1.34.55.12 1.07-.24 1.18-.78.1-.54-.24-1.07-.78-1.18-.8-.15-1.5-.22-2.13-.22"/></g><g><path fill="#f28f20" d="M14.93 5.92c-.63 0-1.34.07-2.13.23-.54.1-.9.63-.78 1.17.1.54.63.9 1.18.8 4-.8 4.84 1.26 4.88 1.35.2.5.77.77 1.28.6.5-.2.78-.75.6-1.27-.04-.13-1.03-2.88-5.03-2.88"/></g><g><path fill="#292f33" d="M23.02 15.4c0-1.75-3.22-3.97-4.02-3.97-.8 0-4.02 2.22-4.02 3.98 0 1.77 2.24 1.6 4.02 1.6 1.78 0 4.02.17 4.02-1.6"/></g><g><path fill="#f39120" d="M35.02 5.07c-.28 0-.55.1-.75.33-.03.04-3.18 3.5-10.4 4.63-.56.08-.93.6-.84 1.14.08.55.6.92 1.14.83.36-.05.72-.1 1.07-.18 7.24-1.4 10.4-4.94 10.54-5.1.36-.4.3-1.05-.1-1.4-.2-.17-.43-.25-.66-.25"/></g><g><path fill="#f39120" d="M24 10.02c-.4 0-.78.25-.92.65-.2.52.07 1.1.6 1.28 5.46 2.03 12.15.2 12.44.1.53-.14.84-.7.7-1.22-.15-.53-.7-.84-1.24-.7-.06.02-6.36 1.74-11.22-.05-.1-.04-.23-.06-.35-.06"/></g><g><path fill="#f39120" d="M3 5.07c.27 0 .54.1.74.33.03.04 3.18 3.5 10.4 4.63.56.08.93.6.84 1.14-.08.55-.6.92-1.14.83-.36-.05-.72-.1-1.07-.18-7.24-1.4-10.4-4.94-10.54-5.1-.36-.4-.3-1.05.1-1.4.2-.17.43-.25.66-.25"/></g><g><path fill="#f39120" d="M14 10.02c.4 0 .8.25.93.65.2.52-.07 1.1-.6 1.28-5.46 2.03-12.15.2-12.44.1-.54-.14-.85-.7-.7-1.22.14-.53.7-.84 1.23-.7.06.02 6.36 1.74 11.22-.05.1-.04.23-.06.35-.06"/></g></g></g></g></svg>