<?xml version="1.0" encoding="UTF-8" standalone="no"?><svg xmlns:svg="http://www.w3.org/2000/svg" xmlns="http://www.w3.org/2000/svg" version="1.1" viewBox="0 0 47.5 47.5" style="enable-background:new 0 0 47.5 47.5;" id="svg2" xml:space="preserve"><defs id="defs6"><clipPath id="clipPath18"><path d="M 0,38 38,38 38,0 0,0 0,38 z" id="path20"/></clipPath></defs><g transform="matrix(1.25,0,0,-1.25,0,47.5)" id="g12"><g id="g14"><g clip-path="url(#clipPath18)" id="g16"><g transform="translate(16,7)" id="g22"><path d="m 0,0 0,-3 c 0,0 0,-3 3,-3 3,0 3,3 3,3 L 6,0 0,0 z" id="path24" style="fill:#dd2e44;fill-opacity:1;fill-rule:nonzero;stroke:none"/></g><g transform="translate(15,35)" id="g26"><path d="m 0,0 c 0.041,3 -14,2 -14,-8 0,-4 0,-14 3,-14 4,0 10.945,18 11,22" id="path28" style="fill:#272b2b;fill-opacity:1;fill-rule:nonzero;stroke:none"/></g><g transform="translate(23,35)" id="g30"><path d="m 0,0 c -0.041,3 14,2 14,-8 0,-4 0,-14 -3,-14 C 7,-22 0.055,-4 0,0" id="path32" style="fill:#272b2b;fill-opacity:1;fill-rule:nonzero;stroke:none"/></g><g transform="translate(32,15)" id="g34"><path d="m 0,0 c 0,-7 -4,-7 -4,-7 l -18,0 c 0,0 -4,0 -4,7 0,0 1,22 13,22 C -1,22 0,0 0,0" id="path36" style="fill:#ccd6dd;fill-opacity:1;fill-rule:nonzero;stroke:none"/></g><g transform="translate(24,14.9746)" id="g38"><path d="m 0,0 0,0.025 -10,0 L -10,0 c -2.803,-0.253 -5,-2.606 -5,-5.475 0,-3.037 2.462,-5.5 5.5,-5.5 1.862,0 3.505,0.928 4.5,2.344 0.995,-1.416 2.638,-2.344 4.5,-2.344 3.038,0 5.5,2.463 5.5,5.5 C 5,-2.606 2.804,-0.253 0,0" id="path40" style="fill:#8899a6;fill-opacity:1;fill-rule:nonzero;stroke:none"/></g><g transform="translate(12,21)" id="g42"><path d="M 0,0 C 0,0 0,2 2,2 4,2 4,0 4,0 l 0,-2 c 0,0 0,-2 -2,-2 -2,0 -2,2 -2,2 l 0,2 z" id="path44" style="fill:#272b2b;fill-opacity:1;fill-rule:nonzero;stroke:none"/></g><g transform="translate(22,21)" id="g46"><path d="M 0,0 C 0,0 0,2 2,2 4,2 4,0 4,0 l 0,-2 c 0,0 0,-2 -2,-2 -2,0 -2,2 -2,2 l 0,2 z" id="path48" style="fill:#272b2b;fill-opacity:1;fill-rule:nonzero;stroke:none"/></g><g transform="translate(16,13)" id="g50"><path d="M 0,0 C -1,-1 2,-4 3,-4 4,-4 7,-1 6,0 5,1 1,1 0,0" id="path52" style="fill:#272b2b;fill-opacity:1;fill-rule:nonzero;stroke:none"/></g></g></g></g></svg>
