<svg xmlns="http://www.w3.org/2000/svg" viewBox="0 0 47.5 47.5" enable-background="new 0 0 47.5 47.5"><defs><clipPath id="a"><path d="M0 38h38V0H0v38z"/></clipPath></defs><g><g><g clip-path="url(#a)" transform="matrix(1.25 0 0 -1.25 0 47.5)"><g><path fill="#e6aaaa" d="M36 19c0-6.08-4.92-11-11-11H13C6.92 8 2 12.92 2 19s4.92 11 11 11h12c6.08 0 11-4.92 11-11"/></g><g><path fill="#662113" d="M15 19c0-3.3-1.8-6-4-6s-4 2.7-4 6 1.8 6 4 6 4-2.7 4-6"/></g><g><path fill="#662113" d="M31 19c0-3.3-1.8-6-4-6s-4 2.7-4 6 1.8 6 4 6 4-2.7 4-6"/></g></g></g></g></svg>