<?xml version="1.0" encoding="UTF-8" standalone="no"?><svg xmlns:dc="http://purl.org/dc/elements/1.1/" xmlns:cc="http://creativecommons.org/ns#" xmlns:rdf="http://www.w3.org/1999/02/22-rdf-syntax-ns#" xmlns:svg="http://www.w3.org/2000/svg" xmlns="http://www.w3.org/2000/svg" viewBox="0 0 47.5 47.5" style="enable-background:new 0 0 47.5 47.5;" xml:space="preserve" version="1.1" id="svg2"><metadata id="metadata8"><rdf:RDF><cc:Work rdf:about=""><dc:format>image/svg+xml</dc:format><dc:type rdf:resource="http://purl.org/dc/dcmitype/StillImage"/></cc:Work></rdf:RDF></metadata><defs id="defs6"><clipPath id="clipPath16" clipPathUnits="userSpaceOnUse"><path id="path18" d="M 0,38 38,38 38,0 0,0 0,38 Z"/></clipPath></defs><g transform="matrix(1.25,0,0,-1.25,0,47.5)" id="g10"><g id="g12"><g clip-path="url(#clipPath16)" id="g14"><g transform="translate(14,31)" id="g20"><path id="path22" style="fill:#272b2b;fill-opacity:1;fill-rule:nonzero;stroke:none" d="m 0,0 c 0,-3.313 -2.687,-6 -6,-6 -3.313,0 -6,2.687 -6,6 0,3.313 2.687,6 6,6 3.313,0 6,-2.687 6,-6"/></g><g transform="translate(36,31)" id="g24"><path id="path26" style="fill:#272b2b;fill-opacity:1;fill-rule:nonzero;stroke:none" d="m 0,0 c 0,-3.313 -2.687,-6 -6,-6 -3.313,0 -6,2.687 -6,6 0,3.313 2.687,6 6,6 3.313,0 6,-2.687 6,-6"/></g><g transform="translate(12,31)" id="g28"><path id="path30" style="fill:#66757f;fill-opacity:1;fill-rule:nonzero;stroke:none" d="m 0,0 c 0,-2.209 -1.791,-4 -4,-4 -2.209,0 -4,1.791 -4,4 0,2.209 1.791,4 4,4 2.209,0 4,-1.791 4,-4"/></g><g transform="translate(34,31)" id="g32"><path id="path34" style="fill:#66757f;fill-opacity:1;fill-rule:nonzero;stroke:none" d="m 0,0 c 0,-2.209 -1.791,-4 -4,-4 -2.209,0 -4,1.791 -4,4 0,2.209 1.791,4 4,4 2.209,0 4,-1.791 4,-4"/></g><g transform="translate(36,15)" id="g36"><path id="path38" style="fill:#eeeeee;fill-opacity:1;fill-rule:nonzero;stroke:none" d="m 0,0 c 0,-7 -6.375,-12 -17,-12 -10.625,0 -17,5 -17,12 0,0 1.308,22 17,22 C -1.308,22 0,0 0,0"/></g><g transform="translate(25,7)" id="g40"><path id="path42" style="fill:#ccd6dd;fill-opacity:1;fill-rule:nonzero;stroke:none" d="m 0,0 c 0,-3.313 -2.687,-6 -6,-6 -3.313,0 -6,2.687 -6,6 0,3.313 2.687,6 6,6 3.313,0 6,-2.687 6,-6"/></g><g transform="translate(23,7)" id="g44"><path id="path46" style="fill:#dd2e44;fill-opacity:1;fill-rule:nonzero;stroke:none" d="m 0,0 c 0,-2.209 -1.791,-4 -4,-4 -2.209,0 -4,1.791 -4,4 0,2.209 1.791,4 4,4 2.209,0 4,-1.791 4,-4"/></g><g transform="translate(21.709,24.3457)" id="g48"><path id="path50" style="fill:#272b2b;fill-opacity:1;fill-rule:nonzero;stroke:none" d="m 0,0 c 4.454,2.776 11.291,-4.346 6.243,-10.016 -3.489,-3.921 -6.952,-2.33 -6.952,-2.33 0,0 -2.636,10.261 0.709,12.346"/></g><g transform="translate(16.2666,24.3354)" id="g52"><path id="path54" style="fill:#272b2b;fill-opacity:1;fill-rule:nonzero;stroke:none" d="m 0,0 c -4.454,2.776 -11.291,-4.346 -6.244,-10.016 3.49,-3.92 6.953,-2.329 6.953,-2.329 0,0 2.636,10.26 -0.709,12.345"/></g><g transform="translate(12,20)" id="g56"><path id="path58" style="fill:#66757f;fill-opacity:1;fill-rule:nonzero;stroke:none" d="M 0,0 C 0,0 0,2 2,2 4,2 4,0 4,0 l 0,-2 c 0,0 0,-2 -2,-2 -2,0 -2,2 -2,2 l 0,2 z"/></g><g transform="translate(19,17)" id="g60"><path id="path62" style="fill:#ffffff;fill-opacity:1;fill-rule:nonzero;stroke:none" d="m 0,0 c 0,0 -11,-3.687 -11,-7 0,-3.313 2.687,-6 6,-6 2.088,0 3.925,1.067 5,2.686 C 1.074,-11.933 2.912,-13 5,-13 c 3.313,0 6,2.687 6,6 0,3.313 -11,7 -11,7"/></g><g transform="translate(22,20)" id="g64"><path id="path66" style="fill:#66757f;fill-opacity:1;fill-rule:nonzero;stroke:none" d="M 0,0 C 0,0 0,2 2,2 4,2 4,0 4,0 l 0,-2 c 0,0 0,-2 -2,-2 -2,0 -2,2 -2,2 l 0,2 z"/></g><g transform="translate(14.1255,12)" id="g68"><path id="path70" style="fill:#272b2b;fill-opacity:1;fill-rule:nonzero;stroke:none" d="M 0,0 C -1.625,-1 3.25,-4 4.875,-4 6.5,-4 11.374,-1 9.749,0 8.124,1 1.625,1 0,0"/></g></g></g></g></svg>
