<svg xmlns="http://www.w3.org/2000/svg" viewBox="0 0 47.5 47.5" enable-background="new 0 0 47.5 47.5"><defs><clipPath id="a"><path d="M0 38h38V0H0v38z"/></clipPath></defs><g><g><path fill="#ccd6dd" d="M8.75 30L2.5 26.25l2.5 7.5-1.25 2.5 7.5 6.25L20 45l3.75-13.75-15-1.25z"/></g><g><path fill="#ccd6dd" d="M40 30l6.25-3.75-2.5 7.5 1.25 2.5-7.5 6.25-8.75 2.5L25 31.25 40 30z"/></g><g><g clip-path="url(#a)" transform="matrix(1.25 0 0 -1.25 0 47.5)"><g><path fill="#66757f" d="M12 30c0-3.87-3.03-7-6.77-7C1.5 23 4.1 37 4.1 37s7.9-3.13 7.9-7"/></g><g><path fill="#66757f" d="M25 7c0-3.3-2.7-6-6-6s-6 2.7-6 6 2.7 6 6 6 6-2.7 6-6"/></g><g><path fill="#dd2e44" d="M23 7c0-2.2-1.8-4-4-4s-4 1.8-4 4 1.8 4 4 4 4-1.8 4-4"/></g><g><path fill="#66757f" d="M32.77 23C29.03 23 26 26.13 26 30s7.9 7 7.9 7 2.6-14-1.13-14"/></g><g><path fill="#e6aaaa" d="M10 29c0-2.2-1.8-4-4-4s0 8 0 8 4-1.8 4-4"/></g><g><path fill="#e6aaaa" d="M32 25c-2.2 0-4 1.8-4 4s4 4 4 4 2.2-8 0-8"/></g><g><path fill="#66757f" d="M35 15c0-7-6.92-7-6.92-7H9.92S3 8 3 15c0 0 1.23 19 16 19s16-19 16-19"/></g><g><path fill="#272b2b" d="M12 20s0 2 2 2 2-2 2-2v-2s0-2-2-2-2 2-2 2v2z"/></g><g><path fill="#272b2b" d="M22 20s0 2 2 2 2-2 2-2v-2s0-2-2-2-2 2-2 2v2z"/></g><g><path fill="#ccd6dd" d="M33.7 12.84L34.95 16l-2.62-2.67c-.4.1-.83.2-1.32.27V18l-2.52-4.12c-1.1.07-2.35.12-3.8.12-3.5 0-1-4.45-5.76-4.95-4.76.5-2.28 4.95-5.77 4.95-1.38 0-2.58-.04-3.64-.1L7 18v-4.37c-.5-.07-.95-.17-1.35-.26L3.05 16l1.2-3.1c-1.68-.77-1.5-1.86-.42-2.9 6-5.82 9-6 9.32-6 2.46 0 4.6 1 5.77 2.48C20.07 5 22.22 4 24.68 4 25 4 28 4.18 34 10c1.04 1 1.25 2.07-.3 2.84"/></g><g><path fill="#272b2b" d="M16 12c-1-1 0-4 3-4s4 3 3 4-5 1-6 0"/></g></g></g></g></svg>