<?xml version="1.0" encoding="UTF-8" standalone="no"?>
<!-- Created with Inkscape (http://www.inkscape.org/) -->

<svg
   xmlns:svg="http://www.w3.org/2000/svg"
   xmlns="http://www.w3.org/2000/svg"
   version="1.1"
   width="47.5"
   height="47.5"
   id="svg2"
   xml:space="preserve"><defs
     id="defs6"><clipPath
       id="clipPath18"><path
         d="M 0,38 38,38 38,0 0,0 0,38 z"
         id="path20" /></clipPath></defs><g
     transform="matrix(1.25,0,0,-1.25,0,47.5)"
     id="g12"><g
       id="g14"><g
         clip-path="url(#clipPath18)"
         id="g16"><g
           transform="translate(37,29.5)"
           id="g22"><path
             d="m 0,0 c 0,-4.5 -8.059,-11.5 -18,-11.5 -9.941,0 -18,7 -18,11.5 0,1.5 3,-1.5 18,-1.5 15,0 18,3 18,1.5"
             id="path24"
             style="fill:#662113;fill-opacity:1;fill-rule:nonzero;stroke:none" /></g><g
           transform="translate(19,26)"
           id="g26"><path
             d="m 0,0 c -6,0 -11,1 -11,1 l 0,-12 c 0,-6.075 4.925,-11 11,-11 6.075,0 11,4.925 11,11 L 11,1 C 11,1 6,0 0,0"
             id="path28"
             style="fill:#ea596e;fill-opacity:1;fill-rule:nonzero;stroke:none" /></g><g
           transform="translate(20,8)"
           id="g30"><path
             d="m 0,0 c 0,-0.553 -0.448,-1 -1,-1 -0.552,0 -1,0.447 -1,1 l 0,16 c 0,0.552 0.448,1 1,1 0.552,0 1,-0.448 1,-1 L 0,0 z"
             id="path32"
             style="fill:#dd2e44;fill-opacity:1;fill-rule:nonzero;stroke:none" /></g></g></g></g></svg>