<svg xmlns="http://www.w3.org/2000/svg" viewBox="0 0 47.5 47.5" enable-background="new 0 0 47.5 47.5"><defs><clipPath id="a"><path d="M0 38h38V0H0v38z"/></clipPath></defs><g><g><g clip-path="url(#a)" transform="matrix(1.25 0 0 -1.25 0 47.5)"><g><path fill="#c1694f" d="M2.73 14.7s-1.4 1.3-.1 2.7c1.28 1.38 2.68.1 2.68.1l6.48-6c-.1.1.45.87.37.95l-8.98 8.32s-1.4 1.3-.1 2.68c1.3 1.4 2.68.1 2.68.1l8.45-7.82c-.02.02.6.73.6.74L5 25.54s-1.4 1.3-.1 2.7c1.3 1.38 2.68.1 2.68.1l9.8-9.08s.68.66.7.64l-9.15 8.48s-1.4 1.3-.1 2.7c1.28 1.38 2.68.1 2.68.1s6.82-6.32 9.7-8.97c2.85-2.65 3.5-1.95 3.5-1.95l-2.6 2.4-2.98 2.76s-1.4 1.3-.1 2.7c1.3 1.4 2.7.1 2.7.1l7.65-7.1C34 16.82 34.27 9.6 30 5 25.7.36 18.5.1 13.87 4.36c-.25.23-.68.66-.67.7L13.2 5 2.73 14.7z"/></g><g><path fill="#d99e82" d="M5.63 16.65s-1.4 1.3-.1 2.7c1.28 1.38 2.68.1 2.68.1l6.48-6c-.1.1.45.87.37.95l-8.98 8.32s-1.4 1.3-.1 2.68c1.3 1.4 2.68.1 2.68.1l8.45-7.82c-.02.02.6.73.6.74L7.9 27.5s-1.4 1.28-.1 2.68c1.3 1.4 2.68.1 2.68.1l9.8-9.07s.68.67.7.65l-9.15 8.48s-1.4 1.3-.1 2.7c1.28 1.38 2.68.1 2.68.1s6.82-6.32 9.7-8.98c2.85-2.65 3.5-1.95 3.5-1.95L25 24.6l-2.98 2.76s-1.4 1.3-.1 2.7c1.3 1.38 2.7.1 2.7.1l7.65-7.1c4.62-4.3 4.9-11.5.62-16.12-4.3-4.62-11.5-4.9-16.12-.62-.25.23-.68.66-.66.68l-.04-.03-10.45 9.68z"/></g><g><path fill="#ffac33" d="M25.54 30.54c-.2 0-.43.07-.6.2-.45.35-.53.98-.2 1.4l3 3.87c.33.44.95.53 1.4.2.43-.35.5-.98.17-1.4l-2.97-3.87c-.2-.25-.5-.4-.8-.4"/></g><g><path fill="#ffac33" d="M20 30c-.55 0-1 .45-1 1v5c0 .55.45 1 1 1s1-.45 1-1v-5c0-.55-.45-1-1-1"/></g><g><path fill="#ffac33" d="M29.42 27.33c-.4 0-.8.26-.94.66-.2.5.08 1.08.6 1.27l4.58 1.67c.52.2 1.1-.08 1.28-.6.2-.52-.08-1.1-.6-1.28l-4.58-1.67c-.1-.05-.23-.07-.34-.07"/></g></g></g></g></svg>