<svg xmlns="http://www.w3.org/2000/svg" viewBox="0 0 47.5 47.5" enable-background="new 0 0 47.5 47.5"><defs><clipPath id="a"><path d="M0 38h38V0H0v38z"/></clipPath></defs><g><g><g clip-path="url(#a)" transform="matrix(1.25 0 0 -1.25 0 47.5)"><g><path fill="#d99e82" d="M5 21.1s-.1-2.36 1.8-3.06c1.66-.63 2.3.62 2.3.62s-.06-1.9 1.94-2.62c1.9-.67 2.75.96 2.75.96s.3-1.87 2.28-2.42c1.68-.46 2.92 1.17 2.92 1.17V3.55c0-.97.54-2.6 2.54-2.6S24 2.63 24 3.56v20.5c0 1 1 1 1 0v-2.68c0-3.8 2.04-6.14 2.75-6.8.7-.64 1.67-.97 2.82-.72 1.96.4 1.53 1.92.98 3.2C30.2 20.1 29.3 24.5 29 26.57c-.78 5.86-5.8 10.38-11.87 10.38C10.5 36.96 5 31.66 5 25.04V21.1z"/></g></g></g></g></svg>