<?xml version="1.0" encoding="UTF-8" standalone="no"?>
<!-- Created with Inkscape (http://www.inkscape.org/) -->

<svg
   xmlns:svg="http://www.w3.org/2000/svg"
   xmlns="http://www.w3.org/2000/svg"
   version="1.1"
   width="47.5"
   height="47.5"
   id="svg2"
   xml:space="preserve"><defs
     id="defs6"><clipPath
       id="clipPath18"><path
         d="M 0,38 38,38 38,0 0,0 0,38 z"
         id="path20" /></clipPath></defs><g
     transform="matrix(1.25,0,0,-1.25,0,47.5)"
     id="g12"><g
       id="g14"><g
         clip-path="url(#clipPath18)"
         id="g16"><g
           transform="translate(32,23)"
           id="g22"><path
             d="m 0,0 c -1,-6 -5,-8 -6,-13 -1.606,-8.034 -6.267,-9 -11,-9 -7.75,0 -3.856,7.568 -7,17 -3,9 -2.716,15.899 7,18 C -7.75,15 1.634,9.806 0,0"
             id="path24"
             style="fill:#d99e82;fill-opacity:1;fill-rule:nonzero;stroke:none" /></g><g
           transform="translate(24.999,15)"
           id="g26"><path
             d="m 0,0 c -0.19,0 -0.383,0.055 -0.554,0.168 -0.46,0.307 -0.584,0.927 -0.277,1.387 0.491,0.737 0.968,1.34 1.429,1.923 1.395,1.766 2.403,3.042 2.403,6.522 0,2.21 -0.782,3.975 -2.323,5.246 -2.194,1.806 -5.827,2.485 -9.486,1.773 -1.861,-0.363 -3.193,-1.215 -4.074,-2.604 -2.061,-3.254 -0.827,-8.244 -0.814,-8.294 0.135,-0.535 -0.188,-1.079 -0.723,-1.215 -0.538,-0.139 -1.08,0.188 -1.216,0.723 -0.06,0.238 -1.453,5.883 1.064,9.856 1.174,1.853 2.984,3.029 5.381,3.496 4.227,0.826 8.496,-0.014 11.139,-2.192 C 3.945,15.145 5.001,12.797 5.001,10 5.001,5.825 3.624,4.083 2.166,2.237 1.73,1.686 1.279,1.115 0.833,0.445 0.641,0.156 0.323,0 0,0"
             id="path28"
             style="fill:#c1694f;fill-opacity:1;fill-rule:nonzero;stroke:none" /></g><g
           transform="translate(12.5845,10.083)"
           id="g30"><path
             d="m 0,0 c -0.367,0 -0.72,0.202 -0.896,0.553 -0.551,1.102 -0.367,1.995 -0.115,2.549 0.545,1.202 1.916,1.935 2.924,2.199 1.997,0.668 2.975,3.34 2.442,5.181 -0.571,1.974 -2.651,2.673 -5.7,1.922 -0.53,-0.134 -1.078,0.195 -1.21,0.732 -0.133,0.536 0.195,1.078 0.731,1.21 4.914,1.214 7.407,-0.914 8.1,-3.308 C 7.074,8.283 5.712,4.461 2.482,3.385 1.894,3.229 1.048,2.8 0.81,2.275 0.742,2.126 0.678,1.879 0.894,1.447 1.141,0.953 0.94,0.353 0.446,0.105 0.303,0.034 0.15,0 0,0"
             id="path32"
             style="fill:#c1694f;fill-opacity:1;fill-rule:nonzero;stroke:none" /></g></g></g></g></svg>