<svg xmlns="http://www.w3.org/2000/svg" viewBox="0 0 47.5 47.5" enable-background="new 0 0 47.5 47.5"><defs><clipPath id="a"><path d="M0 38h38V0H0v38z"/></clipPath></defs><g><g><g clip-path="url(#a)" transform="matrix(1.25 0 0 -1.25 0 47.5)"><g><path fill="#d99e82" d="M16.86 6s2.4.2 3.06 1.8c.7 1.63-.62 2.3-.62 2.3s1.92-.06 2.62 1.94c.67 1.9-.95 2.75-.95 2.75s1.87.3 2.4 2.28c.47 1.68-1.15 2.92-1.15 2.92h12.2c.96 0 2.58.54 2.58 2.54S35.34 25 34.42 25h-20.5c-1 0-1 1 0 1h2.67c3.78 0 6.13 2.04 6.78 2.75.65.7.98 1.67.74 2.82-.42 1.96-1.92 1.53-3.2.98-3.08-1.34-7.46-2.26-9.54-2.54C5.52 29.23 1 24.2 1 18.14 1 11.5 6.3 6 12.92 6h3.94z"/></g></g></g></g></svg>