<svg xmlns="http://www.w3.org/2000/svg" viewBox="0 0 47.5 47.5" enable-background="new 0 0 47.5 47.5"><defs><clipPath id="a"><path d="M0 38h38V0H0v38z"/></clipPath></defs><g><g><g clip-path="url(#a)" transform="matrix(1.25 0 0 -1.25 0 47.5)"><g><path fill="#d99e82" d="M33.94 25.76c-.04.6-.28 1.18-.67 1.64l-.36 2.06c-.36 2-2.22 3.38-4.25 3.17L5.25 28.9c-1.87-.2-3.34-1.73-3.48-3.62l1.76-11.15c.3-2.17 2.16-3.8 4.35-3.8.67-.02 1.23-.03 1.46-.04l9.48-.47C18.46 9.35 18 8.75 18 8.1v-.04C18 6.48 19.77 5 21.35 5h7.28c.76 0 1.5.4 2.03.94l4.42 4.47c.6.6.9 1.42.84 2.25l-1.98 13.1z"/></g><g><path fill="#c1694f" d="M9.22 10.38c-.48 0-.9.33-1 .82L6.18 22.53c-.1.54.27 1.06.8 1.16.56.1 1.07-.27 1.17-.8l2.06-11.34c.1-.55-.26-1.07-.8-1.17-.06-.02-.12-.02-.18-.02"/></g><g><path fill="#c1694f" d="M15.4 10.38c-.52 0-.96.4-1 .92l-1.03 13.4c-.04.54.37 1.02.92 1.07.54.04 1.02-.37 1.07-.92l1.03-13.4c.04-.55-.37-1.03-.92-1.07-.03 0-.06 0-.08 0"/></g><g><path fill="#c1694f" d="M22.6 9.27c-.5 0-.75 0-.95 1.06h-.04c0 .06.02.1.03.17-.18 1.07-.3 3.07-.56 6.8-.24 3.5-.5 7.57-.5 8.5 0 .55.46 1 1 1 .56 0 1-.45 1-1 0-1.53.8-13.32 1-15.15.02-.1.04-.2.04-.3 0-.27-.1-.56-.28-.75-.2-.18-.45-.33-.7-.33"/></g><g><path fill="#c1694f" d="M26.18 8.32h-6.66c-.55 0-1 .44-1 1 0 .55.45 1 1 1h6.66c1.46 0 2.64 1.18 2.64 2.64V25.8c0 .55.45 1 1 1s1-.45 1-1V12.96c0-2.56-2.08-4.64-4.64-4.64"/></g></g></g></g></svg>