<svg xmlns="http://www.w3.org/2000/svg" viewBox="0 0 47.5 47.5" enable-background="new 0 0 47.5 47.5"><defs><clipPath id="a"><path d="M0 38h38V0H0v38z"/></clipPath></defs><g><g><g clip-path="url(#a)" transform="matrix(1.25 0 0 -1.25 0 47.5)"><g><path fill="#d99e82" d="M31 16.86s.1 2.36-1.8 3.06c-1.66.63-2.3-.62-2.3-.62s.06 1.92-1.94 2.62c-1.9.67-2.75-.95-2.75-.95s-.3 1.87-2.28 2.4c-1.67.47-2.92-1.15-2.92-1.15v12.2c0 .96-.54 2.58-2.54 2.58S12 35.34 12 34.42v-20.5c0-1-1-1-1 0v2.67c0 3.78-2.04 6.13-2.75 6.78-.7.65-1.67.98-2.82.74-1.96-.42-1.53-1.92-.97-3.2C5.8 17.84 6.7 13.46 7 11.38 7.77 5.52 12.8 1 18.86 1 25.5 1 31 6.3 31 12.92v3.94z"/></g></g></g></g></svg>