<svg xmlns="http://www.w3.org/2000/svg" viewBox="0 0 47.5 47.5" enable-background="new 0 0 47.5 47.5"><defs><clipPath id="a"><path d="M0 38h38V0H0v38z"/></clipPath></defs><g><g><g clip-path="url(#a)" transform="matrix(1.25 0 0 -1.25 0 47.5)"><g><path fill="#d99e82" d="M32 23c-1-6-5-8-6-13-1.6-8.03-6.27-9-11-9-7.75 0-3.86 7.57-7 17-3 9-2.72 15.9 7 18 9.25 2 18.63-3.2 17-13"/></g><g><path fill="#c1694f" d="M25 15c-.2 0-.38.06-.56.17-.46.3-.58.92-.27 1.38.5.74.97 1.34 1.43 1.93C27 20.24 28 21.52 28 25c0 2.2-.78 3.98-2.32 5.25-2.2 1.8-5.83 2.48-9.5 1.77-1.85-.36-3.18-1.22-4.06-2.6-2.06-3.26-.83-8.25-.82-8.3.14-.53-.2-1.08-.72-1.2-.54-.15-1.08.17-1.22.7-.06.25-1.45 5.9 1.07 9.87 1.17 1.84 2.98 3 5.38 3.48 4.24.83 8.5 0 11.15-2.2C28.95 30.16 30 27.8 30 25c0-4.17-1.38-5.92-2.84-7.76-.43-.55-.88-1.12-1.33-1.8-.2-.28-.5-.44-.83-.44"/></g><g><path fill="#c1694f" d="M12.58 10.08c-.36 0-.72.2-.9.56-.54 1.1-.36 2-.1 2.55.54 1.2 1.9 1.92 2.92 2.18 2 .67 2.97 3.34 2.44 5.18-.57 1.98-2.65 2.68-5.7 1.93-.53-.15-1.08.18-1.2.72-.14.54.18 1.08.72 1.2 4.9 1.22 7.4-.9 8.1-3.3.8-2.75-.56-6.58-3.8-7.65-.58-.16-1.43-.6-1.67-1.1-.07-.16-.14-.4.08-.84.25-.5.04-1.1-.45-1.34-.14-.08-.3-.12-.45-.12"/></g></g></g></g></svg>