<svg xmlns="http://www.w3.org/2000/svg" viewBox="0 0 47.5 47.5" enable-background="new 0 0 47.5 47.5"><defs><clipPath id="a"><path d="M0 38h38V0H0v38z"/></clipPath></defs><g><g><g clip-path="url(#a)" transform="matrix(1.25 0 0 -1.25 0 47.5)"><g><path fill="#662113" d="M37 29.5C37 25 28.94 18 19 18S1 25 1 29.5C1 31 4 28 19 28s18 3 18 1.5"/></g><g><path fill="#ea596e" d="M19 26c-6 0-11 1-11 1V15C8 8.92 12.92 4 19 4s11 4.92 11 11v12s-5-1-11-1"/></g><g><path fill="#dd2e44" d="M20 8c0-.55-.45-1-1-1s-1 .45-1 1v16c0 .55.45 1 1 1s1-.45 1-1V8z"/></g></g></g></g></svg>