<?xml version="1.0" encoding="UTF-8" standalone="no"?><svg xmlns:dc="http://purl.org/dc/elements/1.1/" xmlns:cc="http://creativecommons.org/ns#" xmlns:rdf="http://www.w3.org/1999/02/22-rdf-syntax-ns#" xmlns:svg="http://www.w3.org/2000/svg" xmlns="http://www.w3.org/2000/svg" viewBox="0 0 47.5 47.5" style="enable-background:new 0 0 47.5 47.5;" xml:space="preserve" version="1.1" id="svg2"><metadata id="metadata8"><rdf:RDF><cc:Work rdf:about=""><dc:format>image/svg+xml</dc:format><dc:type rdf:resource="http://purl.org/dc/dcmitype/StillImage"/></cc:Work></rdf:RDF></metadata><defs id="defs6"><clipPath id="clipPath16" clipPathUnits="userSpaceOnUse"><path id="path18" d="M 0,38 38,38 38,0 0,0 0,38 Z"/></clipPath><clipPath id="clipPath36" clipPathUnits="userSpaceOnUse"><path id="path38" d="M 11.088,13.996 C 11.059,13.996 11.029,14 11,14 l 0,0 C 7.133,14 4,9.986 4,7.5 l 0,0 C 4,5.174 9.257,4.135 13.21,2.372 l 0,0 C 14.472,1.276 16.342,1 19,1 l 0,0 c 2.253,0 3.941,0.266 5.173,1.081 l 0,0 C 28.17,4.027 34,5.05 34,7.5 l 0,0 C 34,9.986 30.866,14 27,14 l 0,0 c -0.019,0 -0.04,-0.003 -0.059,-0.003 l 0,0 C 26.441,23.251 22.721,37 19,37 l 0,0 C 15.343,37 11.689,23.308 11.088,13.996"/></clipPath></defs><g transform="matrix(1.25,0,0,-1.25,0,47.5)" id="g10"><g id="g12"><g clip-path="url(#clipPath16)" id="g14"><g transform="translate(34,7.5)" id="g20"><path id="path22" style="fill:#d99e82;fill-opacity:1;fill-rule:nonzero;stroke:none" d="M 0,0 C 0,2.485 -3.134,6.5 -7,6.5 -7.019,6.5 -7.04,6.497 -7.059,6.497 -7.559,15.751 -11.278,29.5 -15,29.5 c -3.657,0 -7.311,-13.691 -7.912,-23.004 -0.028,0 -0.06,0.004 -0.088,0.004 -3.866,0 -7,-4.015 -7,-6.5 0,-2.326 5.257,-3.364 9.21,-5.128 1.262,-1.096 3.132,-1.372 5.79,-1.372 2.253,0 3.941,0.267 5.173,1.081 C -5.83,-3.474 0,-2.45 0,0"/></g><g transform="translate(27,7)" id="g24"><path id="path26" style="fill:#c1694f;fill-opacity:1;fill-rule:nonzero;stroke:none" d="M 0,0 C -0.544,-0.098 0.137,1 0.137,3.722 0.137,5 0,6 0,7 1,7 2.104,7 2.104,4.077 2.104,2.421 0.544,0.099 0,0"/></g><g transform="translate(10.8936,7)" id="g28"><path id="path30" style="fill:#c1694f;fill-opacity:1;fill-rule:nonzero;stroke:none" d="M 0,0 C 0.544,-0.098 -0.137,1 -0.137,3.722 -0.137,5 0,6 0,7 -1,7 -2.104,7 -2.104,4.077 -2.104,2.421 -0.544,0.099 0,0"/></g></g></g><g id="g32"><g clip-path="url(#clipPath36)" id="g34"><g transform="translate(12.8857,2.5127)" id="g40"><path id="path42" style="fill:#292f33;fill-opacity:1;fill-rule:nonzero;stroke:none" d="M 0,0 C -0.337,-1.155 -2.171,-1.637 -4.098,-1.076 -6.025,-0.514 -7.313,0.88 -6.976,2.035 -6.639,3.19 -4.804,3.671 -2.878,3.11 -0.951,2.549 0.337,1.155 0,0"/></g><g transform="translate(25.1143,2.5127)" id="g44"><path id="path46" style="fill:#292f33;fill-opacity:1;fill-rule:nonzero;stroke:none" d="M 0,0 C 0.337,-1.155 2.171,-1.637 4.099,-1.076 6.024,-0.514 7.313,0.88 6.976,2.035 6.639,3.19 4.804,3.671 2.878,3.11 0.951,2.549 -0.337,1.155 0,0"/></g></g></g></g></svg>
