<svg xmlns="http://www.w3.org/2000/svg" viewBox="0 0 47.5 47.5" enable-background="new 0 0 47.5 47.5"><defs><clipPath id="a"><path d="M0 38h38V0H0v38z"/></clipPath></defs><g><g><g clip-path="url(#a)" transform="matrix(1.25 0 0 -1.25 0 47.5)"><g><path fill="#d99e82" d="M21.14 6s-2.43.17-3.06 1.8c-.65 1.65.62 2.3.62 2.3s-1.92-.06-2.62 1.94c-.67 1.9.95 2.75.95 2.75s-1.87.3-2.4 2.28c-.47 1.68 1.15 2.92 1.15 2.92H3.58C2.62 20 1 20.54 1 22.54S2.66 25 3.58 25h20.5c1 0 1 1 0 1H21.4c-3.78 0-6.13 2.04-6.78 2.75-.65.7-.98 1.67-.74 2.82.42 1.96 1.92 1.53 3.2.98 3.08-1.34 7.46-2.26 9.54-2.54C32.48 29.23 37 24.2 37 18.14 37 11.5 31.7 6 25.08 6h-3.94z"/></g></g></g></g></svg>