<?xml version="1.0" encoding="UTF-8" standalone="no"?><svg xmlns:svg="http://www.w3.org/2000/svg" xmlns="http://www.w3.org/2000/svg" version="1.1" viewBox="0 0 47.5 47.5" style="enable-background:new 0 0 47.5 47.5;" id="svg2" xml:space="preserve"><defs id="defs6"><clipPath id="clipPath18"><path d="M 0,38 38,38 38,0 0,0 0,38 z" id="path20"/></clipPath></defs><g transform="matrix(1.25,0,0,-1.25,0,47.5)" id="g12"><g id="g14"><g clip-path="url(#clipPath18)" id="g16"><g transform="translate(34.3047,19.6636)" id="g22"><path d="M 0,0 C 0,0 1.132,1.65 -0.519,2.781 -2.168,3.912 -3.299,2.262 -3.299,2.262 L -8.55,-5.396 c -0.18,0.302 -0.379,0.6 -0.599,0.894 l 7.288,10.629 c 0,0 1.131,1.649 -0.519,2.78 -1.649,1.132 -2.78,-0.518 -2.78,-0.518 l -6.856,-9.997 c -0.255,0.209 -0.515,0.417 -0.785,0.622 l 7.947,11.59 c 0,0 1.131,1.649 -0.518,2.78 -1.649,1.132 -2.78,-0.518 -2.78,-0.518 L -16.1,1.277 c -0.292,0.18 -0.581,0.335 -0.87,0.498 l 7.427,10.832 c 0,0 1.131,1.649 -0.519,2.78 -1.649,1.132 -2.78,-0.518 -2.78,-0.518 L -20.696,3.416 -21.325,2.498 -21.89,1.673 c 4.948,-3.393 5.419,-9.779 2.592,-13.902 -0.566,-0.825 -1.39,-0.26 -1.39,-0.26 3.393,4.949 2.356,10.51 -2.593,13.903 l 1.462,7.302 c 0,0 0.545,1.925 -1.379,2.47 -1.924,0.545 -2.469,-1.379 -2.469,-1.379 l -1.685,-5.004 c -0.668,-1.984 -1.379,-3.961 -2.32,-5.83 -2.657,-5.28 -1.07,-11.843 3.941,-15.279 5.465,-3.747 12.935,-2.355 16.683,3.11 0.198,0.29 0.364,0.573 0.522,0.856 L -8.482,-12.371 0,0 z" id="path24" style="fill:#d99e82;fill-opacity:1;fill-rule:nonzero;stroke:none"/></g><g transform="translate(3.0415,30)" id="g26"><path d="m 0,0 -2,0 c 0,3.837 3.122,6.958 6.958,6.958 l 0,-2 C 2.225,4.958 0,2.734 0,0" id="path28" style="fill:#77b255;fill-opacity:1;fill-rule:nonzero;stroke:none"/></g><g transform="translate(5,25)" id="g30"><path d="M 0,0 -2,0 C -2,5.514 2.486,10 8,10 L 8,8 C 3.589,8 0,4.411 0,0" id="path32" style="fill:#77b255;fill-opacity:1;fill-rule:nonzero;stroke:none"/></g><g transform="translate(30,1)" id="g34"><path d="M 0,0 0,2 C 3,2 5,4 5,7 L 7,7 C 7,3 4,0 0,0" id="path36" style="fill:#77b255;fill-opacity:1;fill-rule:nonzero;stroke:none"/></g><g transform="translate(25,2.958)" id="g38"><path d="m 0,0 0,2 c 4,0 8.042,4.042 8.042,8.042 l 2,0 C 10.042,4.042 6,0 0,0" id="path40" style="fill:#77b255;fill-opacity:1;fill-rule:nonzero;stroke:none"/></g></g></g></g></svg>
