<?xml version="1.0" encoding="UTF-8" standalone="no"?>
<!-- Created with Inkscape (http://www.inkscape.org/) -->

<svg
   xmlns:svg="http://www.w3.org/2000/svg"
   xmlns="http://www.w3.org/2000/svg"
   version="1.1"
   width="47.5"
   height="47.5"
   id="svg2"
   xml:space="preserve"><defs
     id="defs6"><clipPath
       id="clipPath18"><path
         d="M 0,38 38,38 38,0 0,0 0,38 z"
         id="path20" /></clipPath></defs><g
     transform="matrix(1.25,0,0,-1.25,0,47.5)"
     id="g12"><g
       id="g14"><g
         clip-path="url(#clipPath18)"
         id="g16"><g
           transform="translate(16.8555,6)"
           id="g22"><path
             d="m 0,0 c 0,0 2.395,0.208 3.068,1.792 0.698,1.639 -0.622,2.309 -0.622,2.309 0,0 1.914,-0.059 2.622,1.941 0.668,1.885 -0.958,2.75 -0.958,2.75 0,0 1.871,0.307 2.417,2.292 C 6.986,12.755 5.36,14 5.36,14 l 12.208,0 c 0.959,0 2.576,0.542 2.577,2.543 0.001,2 -1.66,2.457 -2.577,2.457 l -16.5,0 -4,0 c -1,0 -1,1 0,1 l 2.666,0 c 3.792,0 6.143,2.038 6.792,2.751 0.651,0.713 0.98,1.667 0.735,2.82 -0.415,1.956 -1.92,1.53 -3.198,0.975 C 0.985,25.209 -3.4,24.292 -5.475,24.013 -11.332,23.222 -15.85,18.204 -15.855,12.129 -15.859,5.503 -10.558,0.005 -3.932,0 L 0,0 z"
             id="path24"
             style="fill:#d99e82;fill-opacity:1;fill-rule:nonzero;stroke:none" /></g></g></g></g></svg>