<?xml version="1.0" encoding="UTF-8" standalone="no"?><svg xmlns:svg="http://www.w3.org/2000/svg" xmlns="http://www.w3.org/2000/svg" version="1.1" viewBox="0 0 47.5 47.5" style="enable-background:new 0 0 47.5 47.5;" id="svg2" xml:space="preserve"><defs id="defs6"><clipPath id="clipPath32"><path d="M 0,38 38,38 38,0 0,0 0,38 z" id="path34"/></clipPath></defs><g transform="matrix(1.25,0,0,-1.25,0,47.5)" id="g12"><g transform="translate(23,37)" id="g14"><path d="M 0,0 3,0 8,-2.808 13,-26.115 4,-27 -2,-10.577" id="path16" style="fill:#3b88c3;fill-opacity:1;fill-rule:nonzero;stroke:none"/></g><g transform="translate(15,37)" id="g18"><path d="M 0,0 -3,0 -8,-2.808 -13,-26.115 -4,-27 2,-10.577" id="path20" style="fill:#3b88c3;fill-opacity:1;fill-rule:nonzero;stroke:none"/></g><path d="M 12,1 26,1 26,32 12,32 12,1 z" id="path22" style="fill:#3b88c3;fill-opacity:1;fill-rule:nonzero;stroke:none"/><g transform="translate(18.9849,28.2388)" id="g24"><path d="m 0,0 -6.985,-5.239 2,0 5.094,5.094 L 0,0 z" id="path26" style="fill:#226699;fill-opacity:1;fill-rule:nonzero;stroke:none"/></g><g id="g28"><g clip-path="url(#clipPath32)" id="g30"><g transform="translate(26,17)" id="g36"><path d="m 0,0 c 0,0 -1.167,-1 -7,-1 -5.833,0 -7,1 -7,1 l 0,6 14,0 0,-6 z" id="path38" style="fill:#88c9f9;fill-opacity:1;fill-rule:nonzero;stroke:none"/></g><g transform="translate(26,19)" id="g40"><path d="m 0,0 c 0,0 -1.167,-1 -7,-1 -5.833,0 -7,1 -7,1 l 0,2 7,0 7,0 0,-2 z" id="path42" style="fill:#ffffff;fill-opacity:1;fill-rule:nonzero;stroke:none"/></g><g transform="translate(26,37)" id="g44"><path d="M 0,0 -7,-9 -14,0 0,0 z" id="path46" style="fill:#ffffff;fill-opacity:1;fill-rule:nonzero;stroke:none"/></g><g transform="translate(21.333,37)" id="g48"><path d="M 0,0 -2.333,-3 -4.666,0 0,0 z" id="path50" style="fill:#99aab5;fill-opacity:1;fill-rule:nonzero;stroke:none"/></g><g transform="translate(26,12)" id="g52"><path d="M 0,0 0,21 2,-2 0,0 z" id="path54" style="fill:#226699;fill-opacity:1;fill-rule:nonzero;stroke:none"/></g><g transform="translate(12,12)" id="g56"><path d="M 0,0 0,21 -2,-2 0,0 z" id="path58" style="fill:#226699;fill-opacity:1;fill-rule:nonzero;stroke:none"/></g></g></g></g></svg>
