<?xml version="1.0" encoding="UTF-8" standalone="no"?>
<!-- Created with Inkscape (http://www.inkscape.org/) -->

<svg
   xmlns:svg="http://www.w3.org/2000/svg"
   xmlns="http://www.w3.org/2000/svg"
   version="1.1"
   width="47.5"
   height="47.5"
   id="svg2"
   xml:space="preserve"><defs
     id="defs6"><clipPath
       id="clipPath18"><path
         d="M 0,38 38,38 38,0 0,0 0,38 z"
         id="path20" /></clipPath></defs><g
     transform="matrix(1.25,0,0,-1.25,0,47.5)"
     id="g12"><g
       id="g14"><g
         clip-path="url(#clipPath18)"
         id="g16"><g
           transform="translate(12,35)"
           id="g22"><path
             d="m 0,0 c -3,0 -11,-2 -11,-4 0,-2 1,-7 2,-9 1,-2 8,0 9,1 1,1 2,12 0,12"
             id="path24"
             style="fill:#3b88c3;fill-opacity:1;fill-rule:nonzero;stroke:none" /></g><g
           transform="translate(2,32.2832)"
           id="g26"><path
             d="m 0,0 c -0.648,-0.371 -1,-0.849 -1,-1.283 0,-2 1,-7 2,-9 0.281,-0.563 1.039,-0.778 2,-0.85 C 2,-8.283 1,-4.283 0,0"
             id="path28"
             style="fill:#55acee;fill-opacity:1;fill-rule:nonzero;stroke:none" /></g><g
           transform="translate(26,35)"
           id="g30"><path
             d="m 0,0 c 3,0 11,-2 11,-4 0,-2 -1,-7 -2,-9 -1,-2 -8,0 -9,1 -1,1 -2,12 0,12"
             id="path32"
             style="fill:#3b88c3;fill-opacity:1;fill-rule:nonzero;stroke:none" /></g><g
           transform="translate(36,32.2832)"
           id="g34"><path
             d="m 0,0 c 0.648,-0.371 1,-0.849 1,-1.283 0,-2 -1,-7 -2,-9 -0.281,-0.563 -1.039,-0.778 -2,-0.85 1,2.85 2,6.85 3,11.133"
             id="path36"
             style="fill:#55acee;fill-opacity:1;fill-rule:nonzero;stroke:none" /></g><g
           transform="translate(26,35)"
           id="g38"><path
             d="M 0,0 -1.068,0 C -1.485,-1.695 -3.979,-3 -7,-3 c -3.021,0 -5.515,1.305 -5.932,3 L -14,0 c -2.209,0 -5,-1.791 -5,-4 0,0 0,-20 -1,-24 -1,-4 1.791,-4 4,-4 l 18,0 c 2.209,0 5,0 4,4 -1,4 -1,24 -1,24 0,2.209 -2.791,4 -5,4"
             id="path40"
             style="fill:#3b88c3;fill-opacity:1;fill-rule:nonzero;stroke:none" /></g><g
           transform="translate(19,30)"
           id="g42"><path
             d="M 0,0 C 3.866,0 7,2.239 7,5 L 5.932,5 C 5.515,3.305 3.021,2 0,2 -3.021,2 -5.515,3.305 -5.932,5 L -7,5 C -7,2.239 -3.866,0 0,0"
             id="path44"
             style="fill:#55acee;fill-opacity:1;fill-rule:nonzero;stroke:none" /></g></g></g></g></svg>