<?xml version="1.0" encoding="UTF-8" standalone="no"?>
<!-- Created with Inkscape (http://www.inkscape.org/) -->

<svg
   xmlns:svg="http://www.w3.org/2000/svg"
   xmlns="http://www.w3.org/2000/svg"
   version="1.1"
   width="47.5"
   height="47.5"
   id="svg2"
   xml:space="preserve"><defs
     id="defs6"><clipPath
       id="clipPath18"><path
         d="M 0,38 38,38 38,0 0,0 0,38 z"
         id="path20" /></clipPath></defs><g
     transform="matrix(1.25,0,0,-1.25,0,47.5)"
     id="g12"><g
       id="g14"><g
         clip-path="url(#clipPath18)"
         id="g16"><g
           transform="translate(3.7896,16.957)"
           id="g22"><path
             d="m 0,0 c 0,0 -0.513,-0.062 -1.032,-2.126 -0.518,-2.059 -0.953,-6.518 -0.954,-9.071 -0.001,-0.662 1.03,-1.064 1.03,-1.064 l 33.015,-0.023 c 0,0 1.031,0.437 1.032,1.064 10e-4,1.333 -0.249,2.565 -0.249,3.287 0,1.064 -1.747,2.855 -2.778,2.855 -1.032,0.001 -7.162,-1.038 -10.382,1.314 -1.189,0.868 -5.156,5.321 -7.216,6.387 C 10.402,3.688 10.316,-1.07 6.189,-1.068 2.063,-1.064 2.063,-0.002 0,0"
             id="path24"
             style="fill:#66757f;fill-opacity:1;fill-rule:nonzero;stroke:none" /></g><g
           transform="translate(36.8789,3.0781)"
           id="g26"><path
             d="m 0,0 c -0.002,-0.88 0.106,-1.595 -1.032,-1.594 0,0 -7.328,-0.265 -13.518,-0.26 -6.192,0.003 -5.574,1.867 -7.117,1.867 -1.031,0.001 -1.031,-1.592 -1.031,-1.594 l -11.348,0.007 c -0.77,0 -1.032,0.715 -1.032,1.595 0,0.882 -0.107,1.597 1.033,1.597 L -1.03,1.595 C 0.107,1.598 0.001,0.881 0,0"
             id="path28"
             style="fill:#292f33;fill-opacity:1;fill-rule:nonzero;stroke:none" /></g><g
           transform="translate(14.4893,13.3828)"
           id="g30"><path
             d="m 0,0 -0.603,1.758 c 2.655,0.911 3.562,2.649 3.6,2.723 L 4.664,3.662 C 4.615,3.562 3.422,1.175 0,0"
             id="path32"
             style="fill:#292f33;fill-opacity:1;fill-rule:nonzero;stroke:none" /></g><g
           transform="translate(17.5825,10.1895)"
           id="g34"><path
             d="M 0,0 -0.604,1.758 C 2.051,2.669 2.958,4.406 2.995,4.479 L 4.662,3.66 C 4.613,3.56 3.42,1.176 0,0"
             id="path36"
             style="fill:#292f33;fill-opacity:1;fill-rule:nonzero;stroke:none" /></g></g></g></g></svg>