<svg xmlns="http://www.w3.org/2000/svg" viewBox="0 0 47.5 47.5" enable-background="new 0 0 47.5 47.5"><defs><clipPath id="a"><path d="M0 38h38V0H0v38z"/></clipPath></defs><g><g><g clip-path="url(#a)" transform="matrix(1.25 0 0 -1.25 0 47.5)"><g><path fill="#88c9f9" d="M37 5c0-2.2-1.8-4-4-4H5C2.8 1 1 2.8 1 5v28c0 2.2 1.8 4 4 4h28c2.2 0 4-1.8 4-4V5z"/></g><g><path fill="#dd2e44" d="M20.34 1.54c-.74-.72-1.94-.72-2.68 0l-6.63 6.53c-.74.73-.94 2.04-.44 2.9l7.5 18.45c.5.88 1.3.88 1.8 0l7.5-18.44c.5-.87.3-2.18-.43-2.9l-6.63-6.54z"/></g><g><path fill="#a0041e" d="M19 22.33c.95 0 2 .95 2.9 2.2l-2 4.9c-.5.87-1.3.87-1.8 0l-2-4.9c.9-1.25 1.95-2.2 2.9-2.2"/></g><g><path fill="#dd2e44" d="M24 31.22c0-1.96-2.8-7.1-5-7.1s-5 5.14-5 7.1c0 1.8 2.8 2.78 5 2.78s5-1 5-2.78"/></g><g><path fill="#4ca0d3" d="M1 33v-2.25C3.07 27.98 7.78 23 9 23c2.2 0 11 10.8 11 13 0 1-1 1-2 1H5c-2.2 0-4-1.8-4-4"/></g><g><path fill="#4ca0d3" d="M18 36c0-2.2 8.8-13 11-13 1.22 0 5.93 4.98 8 7.75V33c0 2.2-1.8 4-4 4H20c-1 0-2 0-2-1"/></g><g><path fill="#269" d="M5 37c-.27 0-.53-.03-.78-.08C5.4 35.26 11.56 34 19 34c7.44 0 13.6 1.26 14.78 2.92-.25.05-.5.08-.78.08H5z"/></g></g></g></g></svg>