<?xml version="1.0" encoding="UTF-8" standalone="no"?><svg xmlns:svg="http://www.w3.org/2000/svg" xmlns="http://www.w3.org/2000/svg" version="1.1" viewBox="0 0 47.5 47.5" style="enable-background:new 0 0 47.5 47.5;" id="svg2" xml:space="preserve"><defs id="defs6"><clipPath id="clipPath18"><path d="M 0,38 38,38 38,0 0,0 0,38 z" id="path20"/></clipPath></defs><g transform="matrix(1.25,0,0,-1.25,0,47.5)" id="g12"><g id="g14"><g clip-path="url(#clipPath18)" id="g16"><g transform="translate(37,2.5)" id="g22"><path d="m 0,0 c 0,-0.828 -0.672,-1.5 -1.5,-1.5 l -33,0 c -0.829,0 -1.5,0.672 -1.5,1.5 0,0.828 0.671,1.5 1.5,1.5 l 33,0 C -0.672,1.5 0,0.828 0,0" id="path24" style="fill:#ccd6dd;fill-opacity:1;fill-rule:nonzero;stroke:none"/></g><g transform="translate(2.4521,13.6133)" id="g26"><path d="m 0,0 c 0,0 -0.522,-0.063 -1.05,-2.158 -0.526,-2.089 -0.342,-4.063 -0.344,-6.656 -0.001,-0.671 1.045,-1.082 1.045,-1.082 L 33.17,-9.937 c 0,0 1.048,0.443 1.048,1.079 0.003,1.354 -0.67,5.237 -5.071,5.237 -1.047,0 -5.27,-0.049 -8.537,2.341 -1.208,0.882 -5.86,2.852 -7.953,3.934 C 10.563,3.738 10.473,-1.094 6.283,-1.088 2.094,-1.082 2.095,-0.004 0,0" id="path28" style="fill:#55acee;fill-opacity:1;fill-rule:nonzero;stroke:none"/></g><g transform="translate(13.312,9.9795)" id="g30"><path d="M 0,0 -0.61,1.783 C 2.086,2.706 3.007,4.471 3.045,4.545 L 4.736,3.714 C 4.686,3.611 3.475,1.189 0,0" id="path32" style="fill:#226699;fill-opacity:1;fill-rule:nonzero;stroke:none"/></g><g transform="translate(18.0425,7.6973)" id="g34"><path d="M 0,0 -0.611,1.783 C 2.086,2.707 3.031,4.52 3.04,4.537 L 4.735,3.713 C 4.684,3.61 3.473,1.19 0,0" id="path36" style="fill:#226699;fill-opacity:1;fill-rule:nonzero;stroke:none"/></g><g transform="translate(36,3)" id="g38"><path d="m 0,0 -34,0 c -0.552,0 -1,0.447 -1,1 0,0.553 0.448,1 1,1 L 0,2 C 0.553,2 1,1.553 1,1 1,0.447 0.553,0 0,0" id="path40" style="fill:#3b88c3;fill-opacity:1;fill-rule:nonzero;stroke:none"/></g></g></g></g></svg>
