<svg xmlns="http://www.w3.org/2000/svg" viewBox="0 0 47.5 47.5" enable-background="new 0 0 47.5 47.5"><defs><clipPath id="a"><path d="M0 38h38V0H0v38z"/></clipPath></defs><g><g><g clip-path="url(#a)" transform="matrix(1.25 0 0 -1.25 0 47.5)"><g><path fill="#f4900c" d="M19.93 11.5c-.5-.77-1.35-.77-1.86 0l-4.68 5.1c-.53.77-.53 2.03 0 2.8l4.67 9.1c.5.77 1.35.77 1.86 0l4.68-9.1c.53-.77.53-2.03 0-2.8l-4.67-5.1z"/></g><g><path fill="#f4900c" d="M29.43 9.5c-.5-.77-1.35-.77-1.86 0l-4.68 5.1c-.53.77-.53 2.03 0 2.8l6.67 9.1c.5.77 1.35.77 1.86 0l2.68-9.1c.53-.77.53-2.03 0-2.8l-4.67-5.1z"/></g><g><path fill="#f4900c" d="M10.44 9.5c-.52-.77-1.36-.77-1.88 0L3.9 14.6c-.53.77-.53 2.03 0 2.8l2.66 9.1c.52.77 1.36.77 1.88 0l6.67-9.1c.53-.77.53-2.03 0-2.8l-4.66-5.1z"/></g><g><path fill="#ffcc4d" d="M34 26c-.45-.45-2.12-2.12-4-4.37l-4.57 8.86c-.5.77-1.35.77-1.87-.02L19 21.63l-4.57 8.86c-.5.77-1.35.77-1.87-.02L8 21.63C6.12 23.88 4.45 25.55 4 26c-1 1-2.5.94-2-1 1-4 1-7 1-12v-2c0-2.2 1.8-4 4-4h24c2.2 0 4 1.8 4 4v2c0 5 0 8 1 12 .48 1.94-1 2-2 1"/></g><g><path fill="#5c913b" d="M22 15c0-1.66-1.34-3-3-3s-3 1.34-3 3 1.34 3 3 3 3-1.34 3-3"/></g><g><path fill="#5c913b" d="M29 15c0-1.1-.9-2-2-2s-2 .9-2 2 .9 2 2 2 2-.9 2-2"/></g><g><path fill="#5c913b" d="M36 15c0-1.1-.9-2-2-2s-2 .9-2 2 .9 2 2 2 2-.9 2-2"/></g><g><path fill="#5c913b" d="M13 15c0-1.1-.9-2-2-2s-2 .9-2 2 .9 2 2 2 2-.9 2-2"/></g><g><path fill="#5c913b" d="M6 15c0-1.1-.9-2-2-2s-2 .9-2 2 .9 2 2 2 2-.9 2-2"/></g><g><path fill="#ffac33" d="M35 11c0-2.2-1.8-4-4-4H7c-2.2 0-4 1.8-4 4h32z"/></g></g></g></g></svg>