<?xml version="1.0" encoding="UTF-8" standalone="no"?>
<!-- Created with Inkscape (http://www.inkscape.org/) -->

<svg
   xmlns:svg="http://www.w3.org/2000/svg"
   xmlns="http://www.w3.org/2000/svg"
   version="1.1"
   width="47.5"
   height="47.5"
   id="svg2"
   xml:space="preserve"><defs
     id="defs6"><clipPath
       id="clipPath18"><path
         d="M 0,38 38,38 38,0 0,0 0,38 z"
         id="path20" /></clipPath></defs><g
     transform="matrix(1.25,0,0,-1.25,0,47.5)"
     id="g12"><g
       id="g14"><g
         clip-path="url(#clipPath18)"
         id="g16"><g
           transform="translate(19.1626,35.1382)"
           id="g22"><path
             d="m 0,0 c 0.003,-0.998 -0.811,-1.821 -1.818,-1.814 -1.008,0.006 -1.791,0.839 -1.75,1.836 0.04,0.975 0.853,1.742 1.817,1.735 C -0.787,1.751 -0.003,0.974 0,0"
             id="path24"
             style="fill:#939598;fill-opacity:1;fill-rule:nonzero;stroke:none" /></g><g
           transform="translate(34.8379,22.4829)"
           id="g26"><path
             d="m 0,0 c 2.792,-16.195 3.02,-17.58 -14.316,-17.469 l -3.355,0.021 c -15.099,0.096 -17.337,0.165 -14.301,17.651 1.296,7.463 7.682,11.266 14.752,11.221 l 2.477,-0.015 C -7.673,11.364 -1.29,7.479 0,0"
             id="path28"
             style="fill:#d1d3d4;fill-opacity:1;fill-rule:nonzero;stroke:none" /></g><g
           transform="translate(21.3037,35.1245)"
           id="g30"><path
             d="m 0,0 c 0.03,-0.999 -0.763,-1.821 -1.77,-1.814 -1.008,0.006 -1.813,0.838 -1.798,1.837 0.014,0.974 0.806,1.741 1.77,1.735 C -0.834,1.752 -0.029,0.974 0,0"
             id="path32"
             style="fill:#d1d3d4;fill-opacity:1;fill-rule:nonzero;stroke:none" /></g><g
           transform="translate(35.3643,19.7808)"
           id="g34"><path
             d="m 0,0 c 2.995,-17.382 3.239,-18.865 -14.778,-18.75 l -3.488,0.022 c -15.692,0.1 -18.021,0.162 -14.762,18.938 1.379,7.942 7.97,11.972 15.244,11.925 l 2.55,-0.016 C -7.959,12.073 -1.372,7.96 0,0"
             id="path36"
             style="fill:#ea596e;fill-opacity:1;fill-rule:nonzero;stroke:none" /></g><g
           transform="translate(17.1401,31.021)"
           id="g38"><path
             d="M 0,0 C 0,0 -6.717,-7.718 -4.981,-9.651 -3.172,-11.668 0,0 0,0"
             id="path40"
             style="fill:#dd2e44;fill-opacity:1;fill-rule:nonzero;stroke:none" /></g><g
           transform="translate(19.4043,31.0068)"
           id="g42"><path
             d="M 0,0 C 0,0 6.603,-7.803 4.839,-9.714 3.001,-11.707 0,0 0,0"
             id="path44"
             style="fill:#dd2e44;fill-opacity:1;fill-rule:nonzero;stroke:none" /></g></g></g></g></svg>