<svg xmlns="http://www.w3.org/2000/svg" viewBox="0 0 47.5 47.5" enable-background="new 0 0 47.5 47.5"><defs><clipPath id="a"><path d="M0 38h38V0H0v38z"/></clipPath></defs><g><g><path fill="#3b88c3" d="M28.75 1.25h3.75l6.25 3.5L45 33.9 33.75 35l-7.5-20.53"/></g><g><path fill="#3b88c3" d="M18.75 1.25H15l-6.25 3.5L2.5 33.9 13.75 35l7.5-20.53"/></g><path fill="#3b88c3" d="M15 46.25h17.5V7.5H15v38.75z"/><g><path fill="#269" d="M23.73 12.2L15 18.75h2.5l6.37-6.37-.14-.18z"/></g><g><g clip-path="url(#a)" transform="matrix(1.25 0 0 -1.25 0 47.5)"><g><path fill="#88c9f9" d="M26 17s-1.17-1-7-1-7 1-7 1v6h14v-6z"/></g><g><path fill="#fff" d="M26 19s-1.17-1-7-1-7 1-7 1v2h14v-2z"/></g><g><path fill="#fff" d="M26 37l-7-9-7 9h14z"/></g><g><path fill="#99aab5" d="M21.33 37L19 34l-2.33 3h4.66z"/></g><g><path fill="#269" d="M26 12v21l2-23-2 2z"/></g><g><path fill="#269" d="M12 12v21l-2-23 2 2z"/></g></g></g></g></svg>