<svg xmlns="http://www.w3.org/2000/svg" viewBox="0 0 47.5 47.5" enable-background="new 0 0 47.5 47.5"><defs><clipPath id="a"><path d="M0 38h38V0H0v38z"/></clipPath></defs><g><g><g clip-path="url(#a)" transform="matrix(1.25 0 0 -1.25 0 47.5)"><g><path fill="#3b88c3" d="M12 35c-3 0-11-2-11-4s1-7 2-9 8 0 9 1 2 12 0 12"/></g><g><path fill="#55acee" d="M2 32.28c-.65-.37-1-.85-1-1.28 0-2 1-7 2-9 .28-.56 1.04-.78 2-.85C4 24 3 28 2 32.28"/></g><g><path fill="#3b88c3" d="M26 35c3 0 11-2 11-4s-1-7-2-9-8 0-9 1-2 12 0 12"/></g><g><path fill="#55acee" d="M36 32.28c.65-.37 1-.85 1-1.28 0-2-1-7-2-9-.28-.56-1.04-.78-2-.85C34 24 35 28 36 32.28"/></g><g><path fill="#3b88c3" d="M26 35h-1.07c-.42-1.7-2.9-3-5.93-3-3.02 0-5.5 1.3-5.93 3H12c-2.2 0-5-1.8-5-4 0 0 0-20-1-24s1.8-4 4-4h18c2.2 0 5 0 4 4s-1 24-1 24c0 2.2-2.8 4-5 4"/></g><g><path fill="#55acee" d="M19 30c3.87 0 7 2.24 7 5h-1.07c-.4-1.7-2.9-3-5.93-3-3.02 0-5.5 1.3-5.93 3H12c0-2.76 3.13-5 7-5"/></g></g></g></g></svg>