<svg xmlns="http://www.w3.org/2000/svg" viewBox="0 0 47.5 47.5" enable-background="new 0 0 47.5 47.5"><defs><clipPath id="a"><path d="M0 38h38V0H0v38z"/></clipPath></defs><g><g><g clip-path="url(#a)" transform="matrix(1.25 0 0 -1.25 0 47.5)"><g><path fill="#ffac33" d="M29 15c-.55 0-1 .45-1 1v6c0 6.07-4.04 11-9 11s-9-4.93-9-11v-6c0-.55-.45-1-1-1s-1 .45-1 1v6c0 7.17 4.93 13 11 13 6.06 0 11-5.83 11-13v-6c0-.55-.45-1-1-1"/></g><g><path fill="#9266cc" d="M34.4 24.03C34.12 26.2 32.1 28 29.9 28H8.1c-2.2 0-4.23-1.8-4.5-3.97L1.48 5.97C1.2 3.8 2.8 2 5 2h28c2.2 0 3.8 1.8 3.53 3.97L34.4 24.03z"/></g><g><path fill="#ffd983" d="M29 17c-.55 0-1 .45-1 1v6c0 6.07-4.04 11-9 11s-9-4.93-9-11v-6c0-.55-.45-1-1-1s-1 .45-1 1v6c0 7.17 4.93 13 11 13 6.06 0 11-5.83 11-13v-6c0-.55-.45-1-1-1"/></g></g></g></g></svg>