<?xml version="1.0" encoding="UTF-8" standalone="no"?><svg xmlns:svg="http://www.w3.org/2000/svg" xmlns="http://www.w3.org/2000/svg" version="1.1" viewBox="0 0 47.5 47.5" style="enable-background:new 0 0 47.5 47.5;" id="svg2" xml:space="preserve"><defs id="defs6"><clipPath id="clipPath18"><path d="M 0,38 38,38 38,0 0,0 0,38 z" id="path20"/></clipPath></defs><g transform="matrix(1.25,0,0,-1.25,0,47.5)" id="g12"><g id="g14"><g clip-path="url(#clipPath18)" id="g16"><g transform="translate(11,26)" id="g22"><path d="m 0,0 c 0,0 -10,-2 -10,-7 0,-2.043 1.069,-2.964 2.507,-2.964 C -4.531,-9.964 0,-6.059 0,0 m -2.402,-2.736 c -0.993,-3.26 -3.588,-5.228 -5.091,-5.228 -0.261,0 -0.507,0 -0.507,0.964 0,1.699 2.78,3.284 5.598,4.264" id="path24" style="fill:#c1694f;fill-opacity:1;fill-rule:nonzero;stroke:none"/></g><g transform="translate(34.752,22.0308)" id="g26"><path d="m 0,0 c -0.272,2.183 -2.295,3.969 -4.495,3.969 l -18.514,0 c -2.2,0 -4.222,-1.786 -4.495,-3.969 l -1.753,-14.061 c -0.272,-2.184 1.305,-3.97 3.505,-3.97 l 24,0 c 2.2,0 3.777,1.786 3.505,3.97 L 0,0 z" id="path28" style="fill:#a6d388;fill-opacity:1;fill-rule:nonzero;stroke:none"/></g><g transform="translate(9,24)" id="g30"><path d="M 0,0 C 0,0 2.5,-8.5 4,-7 5.5,-5.5 0,0 0,0" id="path32" style="fill:#77b255;fill-opacity:1;fill-rule:nonzero;stroke:none"/></g><g transform="translate(32.2578,24)" id="g34"><path d="m 0,0 c 0,0 -2.5,-8.5 -4,-7 -1.5,1.5 4,7 4,7" id="path36" style="fill:#77b255;fill-opacity:1;fill-rule:nonzero;stroke:none"/></g></g></g></g></svg>
