<svg xmlns="http://www.w3.org/2000/svg" viewBox="0 0 47.5 47.5" enable-background="new 0 0 47.5 47.5"><defs><clipPath id="a"><path d="M0 38h38V0H0v38z"/></clipPath></defs><g><g><g clip-path="url(#a)" transform="matrix(1.25 0 0 -1.25 0 47.5)"><g><path fill="#ffd983" d="M37 14c0-2.07-8.06-5-18-5S1 11.93 1 14s8.06 5 18 5 18-2.93 18-5"/></g><g><path fill="#ffd983" d="M30 20c0-1.57-4.92-6-11-6S8.04 18.43 8.04 20C8.04 27 15 30 19 30c4 0 11-3 11-10"/></g><g><path fill="#9266cc" d="M30 16c-5-3-17-3-22 0 0 .5.04 3.54.04 4C14 17 24 17 30 20c0-.46 0-3.5 0-4"/></g><g><path fill="#fff" d="M20 13c0-1.1-.45-2-1-2s-1 .9-1 2 .45 2 1 2 1-.9 1-2"/></g><g><path fill="#fff" d="M20 19c0-1.1-.45-2-1-2s-1 .9-1 2 .45 2 1 2 1-.9 1-2"/></g><g><path fill="#fff" d="M17.6 13.17c-.8-.78-1.75-1.1-2.14-.7-.4.4-.07 1.33.7 2.12.8.77 1.74 1.08 2.13.7.38-.4.07-1.35-.7-2.13"/></g><g><path fill="#fff" d="M21.83 17.4c-.78-.77-1.73-1.08-2.12-.7-.38.4-.07 1.35.7 2.13.8.78 1.74 1.1 2.14.7.4-.38.07-1.33-.7-2.12"/></g><g><path fill="#fff" d="M16 15c-1.1 0-2 .45-2 1s.9 1 2 1 2-.45 2-1-.9-1-2-1"/></g><g><path fill="#fff" d="M22 15c-1.1 0-2 .45-2 1s.9 1 2 1 2-.45 2-1-.9-1-2-1"/></g><g><path fill="#fff" d="M16.17 17.4c-.78.8-1.1 1.75-.7 2.14.38.4 1.33.07 2.12-.7.77-.8 1.08-1.74.7-2.13-.4-.38-1.35-.07-2.13.7"/></g><g><path fill="#fff" d="M20.4 13.17c-.77.78-1.08 1.73-.7 2.12.4.38 1.35.07 2.13-.72.78-.78 1.1-1.73.7-2.12-.38-.4-1.33-.07-2.12.7"/></g><g><path fill="#ffac33" d="M21 16c0-1.1-.9-2-2-2s-2 .9-2 2 .9 2 2 2 2-.9 2-2"/></g></g></g></g></svg>