<svg xmlns="http://www.w3.org/2000/svg" viewBox="0 0 47.5 47.5" enable-background="new 0 0 47.5 47.5"><defs><clipPath id="a"><path d="M0 38h38V0H0v38z"/></clipPath></defs><g><g><g clip-path="url(#a)" transform="matrix(1.25 0 0 -1.25 0 47.5)"><g><path fill="#939598" d="M19.16 35.14c0-1-.8-1.82-1.82-1.82-1 0-1.8.84-1.75 1.84.03.98.85 1.74 1.8 1.74.98 0 1.76-.8 1.76-1.76"/></g><g><path fill="#d1d3d4" d="M34.84 22.48C37.64 6.28 37.86 4.9 20.52 5l-3.35.03c-15.1.1-17.34.17-14.3 17.66 1.3 7.45 7.68 11.25 14.75 11.2h2.47c7.06-.05 13.45-3.94 14.74-11.42"/></g><g><path fill="#d1d3d4" d="M21.3 35.12c.03-1-.76-1.82-1.77-1.8-1 0-1.8.83-1.8 1.83.02.97.8 1.74 1.78 1.73.97 0 1.77-.78 1.8-1.76"/></g><g><path fill="#ea596e" d="M35.36 19.78C38.36 2.4 38.6.92 20.6 1.03l-3.5.02C1.4 1.15-.92 1.2 2.34 20c1.38 7.93 7.97 11.96 15.24 11.92l2.55-.02c7.28-.05 13.86-4.16 15.23-12.12"/></g><g><path fill="#dd2e44" d="M17.14 31.02s-6.72-7.72-4.98-9.65c1.8-2.02 4.98 9.65 4.98 9.65"/></g><g><path fill="#dd2e44" d="M19.4 31s6.6-7.8 4.84-9.7c-1.83-2-4.84 9.7-4.84 9.7"/></g></g></g></g></svg>