<?xml version="1.0" encoding="UTF-8" standalone="no"?><svg xmlns:dc="http://purl.org/dc/elements/1.1/" xmlns:cc="http://creativecommons.org/ns#" xmlns:rdf="http://www.w3.org/1999/02/22-rdf-syntax-ns#" xmlns:svg="http://www.w3.org/2000/svg" xmlns="http://www.w3.org/2000/svg" viewBox="0 0 47.5 47.5" style="enable-background:new 0 0 47.5 47.5;" xml:space="preserve" version="1.1" id="svg2"><metadata id="metadata8"><rdf:RDF><cc:Work rdf:about=""><dc:format>image/svg+xml</dc:format><dc:type rdf:resource="http://purl.org/dc/dcmitype/StillImage"/></cc:Work></rdf:RDF></metadata><defs id="defs6"><clipPath id="clipPath16" clipPathUnits="userSpaceOnUse"><path id="path18" d="M 0,38 38,38 38,0 0,0 0,38 Z"/></clipPath></defs><g transform="matrix(1.25,0,0,-1.25,0,47.5)" id="g10"><g id="g12"><g clip-path="url(#clipPath16)" id="g14"><g transform="translate(36.8086,21.3276)" id="g20"><path id="path22" style="fill:#d99e82;fill-opacity:1;fill-rule:nonzero;stroke:none" d="M 0,0 C 0,0 0.653,1.043 -0.454,1.558 -1.561,2.072 -1.937,0.9 -1.937,0.9 l -2.389,-5.142 c -0.141,0.164 -0.705,0.516 -0.866,0.671 l 3.315,7.136 c 0,0 0.653,1.044 -0.455,1.559 -1.106,0.514 -1.483,-0.658 -1.483,-0.658 l -3.119,-6.711 c -0.174,0.099 -0.629,0.327 -0.812,0.424 l 3.616,7.78 c 0,0 0.652,1.044 -0.455,1.558 C -5.691,8.032 -6.067,6.86 -6.067,6.86 l -3.619,-7.779 c -0.193,0.078 -0.796,0.334 -0.988,0.403 l 3.38,7.273 c 0,0 0.651,1.043 -0.455,1.557 -1.107,0.515 -1.483,-0.656 -1.483,-0.656 l -3.575,-7.689 -0.286,-0.617 -0.128,-0.276 c 3.324,-1.544 4.487,-5.617 3.2,-8.384 -0.257,-0.554 -1.176,-0.3 -1.176,-0.3 1.544,3.321 0.358,6.566 -2.964,8.109 l 0.143,4.546 c 0,0 0.134,1.213 -1.079,1.348 -1.215,0.134 -1.348,-1.08 -1.348,-1.08 l -0.509,-3.183 c -0.203,-1.262 -0.431,-2.525 -0.81,-3.746 -1.066,-3.447 0.552,-7.238 3.915,-8.803 3.669,-1.705 8.028,-0.112 9.733,3.556 0.09,0.195 0.257,0.556 0.257,0.556 L 0,0 Z"/></g><g transform="translate(1.1919,21.3276)" id="g24"><path id="path26" style="fill:#d99e82;fill-opacity:1;fill-rule:nonzero;stroke:none" d="M 0,0 C 0,0 -0.654,1.043 0.453,1.558 1.561,2.072 1.936,0.9 1.936,0.9 l 2.39,-5.142 c 0.14,0.164 0.705,0.516 0.866,0.671 L 1.877,3.565 c 0,0 -0.654,1.044 0.455,1.559 1.106,0.514 1.482,-0.658 1.482,-0.658 l 3.119,-6.711 c 0.175,0.099 0.63,0.327 0.813,0.424 l -3.617,7.78 c 0,0 -0.652,1.044 0.455,1.558 C 5.691,8.032 6.067,6.86 6.067,6.86 l 3.618,-7.779 c 0.193,0.078 0.797,0.334 0.988,0.403 l -3.38,7.273 c 0,0 -0.651,1.043 0.456,1.557 1.107,0.515 1.483,-0.656 1.483,-0.656 l 3.574,-7.689 0.286,-0.617 0.128,-0.276 c -3.323,-1.544 -4.486,-5.617 -3.2,-8.384 0.258,-0.554 1.177,-0.3 1.177,-0.3 -1.544,3.321 -0.359,6.566 2.963,8.109 l -0.142,4.546 c 0,0 -0.135,1.213 1.078,1.348 1.215,0.134 1.349,-1.08 1.349,-1.08 l 0.508,-3.183 c 0.203,-1.262 0.432,-2.525 0.811,-3.746 1.067,-3.447 -0.552,-7.238 -3.916,-8.803 -3.669,-1.705 -8.027,-0.112 -9.732,3.556 -0.09,0.195 -0.257,0.556 -0.257,0.556 L 0,0 Z"/></g></g></g></g></svg>
