<svg xmlns="http://www.w3.org/2000/svg" viewBox="0 0 47.5 47.5" enable-background="new 0 0 47.5 47.5"><defs><clipPath id="a"><path d="M0 38h38V0H0v38z"/></clipPath></defs><g><g><g clip-path="url(#a)" transform="matrix(1.25 0 0 -1.25 0 47.5)"><g><path fill="#ccd6dd" d="M37 2.5c0-.83-.67-1.5-1.5-1.5h-33C1.67 1 1 1.67 1 2.5S1.67 4 2.5 4h33c.83 0 1.5-.67 1.5-1.5"/></g><g><path fill="#55acee" d="M2.45 13.6s-.52-.05-1.05-2.14c-.52-2.1-.34-4.07-.34-6.66 0-.67 1.04-1.08 1.04-1.08l33.52-.04s1.05.44 1.05 1.08C36.67 6.1 36 10 31.6 10c-1.05 0-5.27-.06-8.54 2.33-1.2.9-5.86 2.86-7.95 3.94-2.08 1.08-2.17-3.75-6.36-3.74-4.2 0-4.2 1.08-6.3 1.08"/></g><g><path fill="#269" d="M13.3 9.98l-.6 1.78c2.7.93 3.62 2.7 3.66 2.76l1.7-.83c-.06-.1-1.27-2.53-4.75-3.72"/></g><g><path fill="#269" d="M18.04 7.7l-.6 1.78c2.7.92 3.63 2.74 3.64 2.75l1.7-.82c-.05-.1-1.26-2.5-4.74-3.7"/></g><g><path fill="#3b88c3" d="M36 3H2c-.55 0-1 .45-1 1s.45 1 1 1h34c.55 0 1-.45 1-1s-.45-1-1-1"/></g></g></g></g></svg>