<?xml version="1.0" encoding="UTF-8" standalone="no"?><svg xmlns:dc="http://purl.org/dc/elements/1.1/" xmlns:cc="http://creativecommons.org/ns#" xmlns:rdf="http://www.w3.org/1999/02/22-rdf-syntax-ns#" xmlns:svg="http://www.w3.org/2000/svg" xmlns="http://www.w3.org/2000/svg" viewBox="0 0 47.5 47.5" style="enable-background:new 0 0 47.5 47.5;" xml:space="preserve" version="1.1" id="svg2"><metadata id="metadata8"><rdf:RDF><cc:Work rdf:about=""><dc:format>image/svg+xml</dc:format><dc:type rdf:resource="http://purl.org/dc/dcmitype/StillImage"/></cc:Work></rdf:RDF></metadata><defs id="defs6"><clipPath id="clipPath30" clipPathUnits="userSpaceOnUse"><path id="path32" d="M 0,38 38,38 38,0 0,0 0,38 Z"/></clipPath></defs><g transform="matrix(1.25,0,0,-1.25,0,47.5)" id="g10"><g transform="translate(23,37)" id="g12"><path id="path14" style="fill:#3b88c3;fill-opacity:1;fill-rule:nonzero;stroke:none" d="M 0,0 3,0 8,-2.808 13,-26.115 4,-27 -2,-10.577"/></g><g transform="translate(15,37)" id="g16"><path id="path18" style="fill:#3b88c3;fill-opacity:1;fill-rule:nonzero;stroke:none" d="M 0,0 -3,0 -8,-2.808 -13,-26.115 -4,-27 2,-10.577"/></g><path id="path20" style="fill:#3b88c3;fill-opacity:1;fill-rule:nonzero;stroke:none" d="M 12,1 26,1 26,32 12,32 12,1 Z"/><g transform="translate(18.9849,28.2388)" id="g22"><path id="path24" style="fill:#226699;fill-opacity:1;fill-rule:nonzero;stroke:none" d="m 0,0 -6.985,-5.239 2,0 5.094,5.094 L 0,0 Z"/></g><g id="g26"><g clip-path="url(#clipPath30)" id="g28"><g transform="translate(26,17)" id="g34"><path id="path36" style="fill:#88c9f9;fill-opacity:1;fill-rule:nonzero;stroke:none" d="m 0,0 c 0,0 -1.167,-1 -7,-1 -5.833,0 -7,1 -7,1 l 0,6 14,0 0,-6 z"/></g><g transform="translate(26,19)" id="g38"><path id="path40" style="fill:#ffffff;fill-opacity:1;fill-rule:nonzero;stroke:none" d="m 0,0 c 0,0 -1.167,-1 -7,-1 -5.833,0 -7,1 -7,1 l 0,2 7,0 7,0 0,-2 z"/></g><g transform="translate(26,37)" id="g42"><path id="path44" style="fill:#ffffff;fill-opacity:1;fill-rule:nonzero;stroke:none" d="M 0,0 -7,-9 -14,0 0,0 Z"/></g><g transform="translate(21.333,37)" id="g46"><path id="path48" style="fill:#99aab5;fill-opacity:1;fill-rule:nonzero;stroke:none" d="M 0,0 -2.333,-3 -4.666,0 0,0 Z"/></g><g transform="translate(26,12)" id="g50"><path id="path52" style="fill:#226699;fill-opacity:1;fill-rule:nonzero;stroke:none" d="M 0,0 0,21 2,-2 0,0 Z"/></g><g transform="translate(12,12)" id="g54"><path id="path56" style="fill:#226699;fill-opacity:1;fill-rule:nonzero;stroke:none" d="M 0,0 0,21 -2,-2 0,0 Z"/></g></g></g></g></svg>
