<svg xmlns="http://www.w3.org/2000/svg" viewBox="0 0 47.5 47.5" enable-background="new 0 0 47.5 47.5"><defs><clipPath id="a"><path d="M0 38h38V0H0v38z"/></clipPath></defs><g><g><g clip-path="url(#a)" transform="matrix(1.25 0 0 -1.25 0 47.5)"><g><path fill="#66757f" d="M3.8 16.96s-.52-.07-1.04-2.13S1.8 8.3 1.8 5.76c0-.66 1.03-1.06 1.03-1.06l33.02-.03s1.03.44 1.03 1.07c0 1.33-.25 2.56-.25 3.28 0 1.07-1.75 2.86-2.78 2.86-1.03 0-7.16-1.04-10.38 1.3-1.2.88-5.15 5.33-7.2 6.4-2.08 1.07-2.16-3.7-6.3-3.7-4.12 0-4.12 1.08-6.18 1.08"/></g><g><path fill="#292f33" d="M36.88 3.08c0-.88.1-1.6-1.03-1.6 0 0-7.33-.26-13.52-.26-6.2 0-5.58 1.87-7.12 1.87-1.02 0-1.02-1.6-1.02-1.6H2.83c-.77 0-1.03.72-1.03 1.6 0 .88-.1 1.6 1.03 1.6l33.02-.03c1.14 0 1.03-.7 1.03-1.6"/></g><g><path fill="#292f33" d="M14.5 13.38l-.6 1.76c2.64.9 3.55 2.65 3.6 2.72l1.65-.82c-.05-.1-1.24-2.48-4.66-3.66"/></g><g><path fill="#292f33" d="M17.58 10.2l-.6 1.75c2.65.9 3.56 2.65 3.6 2.72l1.66-.82c-.04-.1-1.24-2.48-4.66-3.66"/></g></g></g></g></svg>