<svg xmlns="http://www.w3.org/2000/svg" viewBox="0 0 47.5 47.5" enable-background="new 0 0 47.5 47.5"><defs><clipPath id="a"><path d="M0 38h38V0H0v38z"/></clipPath></defs><g><g><g clip-path="url(#a)" transform="matrix(1.25 0 0 -1.25 0 47.5)"><g><path fill="#292f33" d="M35.54 5.5s1.18-.2 1.18-1.24C36.72 3.2 35.68 3 34.64 3H16.92c-2.1 0-2.1 3.34-5.22 9.6-3.12 6.25-6.25 2-6.25 2L4.4 2H2v13.94c0 2.08-.88 4.28-.88 5.2 0 2.1.67 4.4.67 4.4l6.74-2.3 27-17.73z"/></g><g><path fill="#9266cc" d="M2.67 23.72C5.7 23 12.97 19.84 16.64 6.34c0 0 0-1.34 2.36-1.34h16.54s1.18.26 1.18 2.42c0 1.1-5.9 3.38-8.27 4.47C26.1 12.96 24 16.2 24 16.2s-4.17-1.63-11.25 5.96C5.65 29.74 8.37 32.6 6 32.6c-.48 0-3.73-3.3-4.54-7.04-.1-.54.34-1.63 1.2-1.84"/></g></g></g></g></svg>