<?xml version="1.0" encoding="UTF-8" standalone="no"?>
<!-- Created with Inkscape (http://www.inkscape.org/) -->

<svg
   xmlns:svg="http://www.w3.org/2000/svg"
   xmlns="http://www.w3.org/2000/svg"
   version="1.1"
   width="47.5"
   height="47.5"
   id="svg2"
   xml:space="preserve"><defs
     id="defs6"><clipPath
       id="clipPath18"><path
         d="M 0,38 38,38 38,0 0,0 0,38 z"
         id="path20" /></clipPath></defs><g
     transform="matrix(1.25,0,0,-1.25,0,47.5)"
     id="g12"><g
       id="g14"><g
         clip-path="url(#clipPath18)"
         id="g16"><g
           transform="translate(11.9995,37)"
           id="g22"><path
             d="M 0,0 C -1.264,0 -2.435,-0.393 -3.402,-1.061 -3.598,-1.031 -3.795,-1 -4,-1 -6.208,-1 -8,-2.791 -8,-5 l 0,-6 c 0,-3.866 3.134,-7 7,-7 3.867,0 7,3.134 7,7 l 0,4.999 C 6,-2.687 3.314,0 0,0"
             id="path24"
             style="fill:#642116;fill-opacity:1;fill-rule:nonzero;stroke:none" /></g><path
           d="m 10,2 -3,0 0,8 3,0 0,-8 z"
           id="path26"
           style="fill:#d79e84;fill-opacity:1;fill-rule:nonzero;stroke:none" /><path
           d="m 15,2 -3,0 0,8 3,0 0,-8 z"
           id="path28"
           style="fill:#d79e84;fill-opacity:1;fill-rule:nonzero;stroke:none" /><g
           transform="translate(6,1)"
           id="g30"><path
             d="M 0,0 0,1 C 0,1 0,2 2,2 4,2 4,1 4,1 L 4,0 0,0 z"
             id="path32"
             style="fill:#292f33;fill-opacity:1;fill-rule:nonzero;stroke:none" /></g><g
           transform="translate(12,1)"
           id="g34"><path
             d="M 0,0 0,1 C 0,1 0,2 2,2 4,2 4,1 4,1 L 4,0 0,0 z"
             id="path36"
             style="fill:#292f33;fill-opacity:1;fill-rule:nonzero;stroke:none" /></g><g
           transform="translate(1.999,11)"
           id="g38"><path
             d="m 0,0 c -0.164,0 -0.331,0.04 -0.485,0.126 -0.482,0.269 -0.657,0.877 -0.388,1.359 l 5,9.001 c 0.268,0.482 0.876,0.657 1.36,0.388 0.482,-0.268 0.657,-0.877 0.388,-1.36 l -5,-8.999 C 0.692,0.186 0.352,0 0,0"
             id="path40"
             style="fill:#d79e84;fill-opacity:1;fill-rule:nonzero;stroke:none" /></g><g
           transform="translate(20.001,11)"
           id="g42"><path
             d="m 0,0 c -0.352,0 -0.692,0.186 -0.875,0.515 l -5,8.999 c -0.269,0.483 -0.094,1.092 0.388,1.36 0.484,0.269 1.092,0.094 1.36,-0.388 l 5,-9.001 C 1.142,1.003 0.968,0.395 0.484,0.126 0.331,0.04 0.164,0 0,0"
             id="path44"
             style="fill:#d79e84;fill-opacity:1;fill-rule:nonzero;stroke:none" /></g><g
           transform="translate(5.0005,10)"
           id="g46"><path
             d="m 0,0 12,0 -2,6 0,4 2,0 0,1 c 0,1.104 -0.896,2 -2,2 L 8,13 4,13 2,13 C 0.895,13 0,12.104 0,11 L 0,10 2,10 2,6 0,0 z"
             id="path48"
             style="fill:#e75a70;fill-opacity:1;fill-rule:nonzero;stroke:none" /></g><path
           d="m 15,16 -8,0 0,2 8,0 0,-2 z"
           id="path50"
           style="fill:#da2f47;fill-opacity:1;fill-rule:nonzero;stroke:none" /><g
           transform="translate(9,26)"
           id="g52"><path
             d="m 0,0 0,-4 c 0,-1.104 0.896,-2 2,-2 1.104,0 2,0.896 2,2 L 4,0 0,0 z"
             id="path54"
             style="fill:#d79e84;fill-opacity:1;fill-rule:nonzero;stroke:none" /></g><g
           transform="translate(13,26)"
           id="g56"><path
             d="M 0,0 -4,-0.019 -4,-4 c 0,0 2,-1 4,0 l 0,4 z"
             id="path58"
             style="fill:#bf6952;fill-opacity:1;fill-rule:nonzero;stroke:none" /></g><g
           transform="translate(16,34)"
           id="g60"><path
             d="m 0,0 -10,0 0,-6 0,0 c 0,-2.763 2.238,-5 5,-5 2.761,0 5,2.237 5,5 l 0,0 0,6 z"
             id="path62"
             style="fill:#d79e84;fill-opacity:1;fill-rule:nonzero;stroke:none" /></g><g
           transform="translate(9,34)"
           id="g64"><path
             d="M 0,0 C 0,0 0,-4 8,-4 L 8,0 0,0 z"
             id="path66"
             style="fill:#642116;fill-opacity:1;fill-rule:nonzero;stroke:none" /></g><g
           transform="translate(9,34)"
           id="g68"><path
             d="m 0,0 c 0,0 0,-4 -4,-4 l 0,4 4,0 z"
             id="path70"
             style="fill:#642116;fill-opacity:1;fill-rule:nonzero;stroke:none" /></g><g
           transform="translate(13,25)"
           id="g72"><path
             d="m 0,0 -2,0 -2,0 c 0,0 0,-1 2,-1 2,0 2,1 2,1"
             id="path74"
             style="fill:#c1694f;fill-opacity:1;fill-rule:nonzero;stroke:none" /></g><g
           transform="translate(9,28.5)"
           id="g76"><path
             d="M 0,0 C 0,-0.276 -0.224,-0.5 -0.5,-0.5 -0.776,-0.5 -1,-0.276 -1,0 -1,0.276 -0.776,0.5 -0.5,0.5 -0.224,0.5 0,0.276 0,0"
             id="path78"
             style="fill:#664500;fill-opacity:1;fill-rule:nonzero;stroke:none" /></g><g
           transform="translate(14,28.5)"
           id="g80"><path
             d="M 0,0 C 0,-0.276 -0.224,-0.5 -0.5,-0.5 -0.776,-0.5 -1,-0.276 -1,0 -1,0.276 -0.776,0.5 -0.5,0.5 -0.224,0.5 0,0.276 0,0"
             id="path82"
             style="fill:#664500;fill-opacity:1;fill-rule:nonzero;stroke:none" /></g><g
           transform="translate(10,27)"
           id="g84"><path
             d="M 0,0 1,0 2,0 C 2,0 2,-1 1,-1 0,-1 0,0 0,0"
             id="path86"
             style="fill:#c1694f;fill-opacity:1;fill-rule:nonzero;stroke:none" /></g><g
           transform="translate(34,30.999)"
           id="g88"><path
             d="m 0,0 c 0,3.314 -2.687,6.001 -6,6.001 -1.264,0 -2.436,-0.393 -3.402,-1.061 -0.197,0.03 -0.393,0.061 -0.598,0.061 -2.209,0 -4,-1.791 -4,-4 l 0,-6 4.686,0 c 0.949,-0.631 2.087,-1 3.314,-1 1.226,0 2.364,0.369 3.314,1 L 0,-4.999 0,0 z"
             id="path90"
             style="fill:#642116;fill-opacity:1;fill-rule:nonzero;stroke:none" /></g><path
           d="m 26,2 -3,0 0,8 3,0 0,-8 z"
           id="path92"
           style="fill:#d79e84;fill-opacity:1;fill-rule:nonzero;stroke:none" /><path
           d="m 31,2 -3,0 0,8 3,0 0,-8 z"
           id="path94"
           style="fill:#d79e84;fill-opacity:1;fill-rule:nonzero;stroke:none" /><g
           transform="translate(22,1)"
           id="g96"><path
             d="M 0,0 0,1 C 0,1 0,2 2,2 4,2 4,1 4,1 L 4,0 0,0 z"
             id="path98"
             style="fill:#292f33;fill-opacity:1;fill-rule:nonzero;stroke:none" /></g><g
           transform="translate(28,1)"
           id="g100"><path
             d="M 0,0 0,1 C 0,1 0,2 2,2 4,2 4,1 4,1 L 4,0 0,0 z"
             id="path102"
             style="fill:#292f33;fill-opacity:1;fill-rule:nonzero;stroke:none" /></g><g
           transform="translate(17.999,11)"
           id="g104"><path
             d="m 0,0 c -0.164,0 -0.331,0.04 -0.485,0.126 -0.482,0.269 -0.657,0.877 -0.388,1.359 l 5,9.001 c 0.268,0.482 0.878,0.657 1.359,0.388 0.484,-0.268 0.658,-0.877 0.389,-1.36 l -5,-8.999 C 0.692,0.186 0.352,0 0,0"
             id="path106"
             style="fill:#d79e84;fill-opacity:1;fill-rule:nonzero;stroke:none" /></g><g
           transform="translate(36.001,11)"
           id="g108"><path
             d="m 0,0 c -0.352,0 -0.692,0.186 -0.875,0.515 l -5,8.999 c -0.269,0.483 -0.095,1.092 0.389,1.36 0.482,0.269 1.091,0.094 1.359,-0.388 l 5,-9.001 C 1.142,1.003 0.968,0.395 0.484,0.126 0.331,0.04 0.164,0 0,0"
             id="path110"
             style="fill:#d79e84;fill-opacity:1;fill-rule:nonzero;stroke:none" /></g><g
           transform="translate(33,20)"
           id="g112"><path
             d="m 0,0 0,1 c 0,1.104 -0.896,2 -2,2 l -2,0 -4,0 -2,0 c -1.104,0 -2,-0.896 -2,-2 l 0,-1 2,0 0,-4 -2,-6 12,0 -2,6 0,4 2,0 z"
             id="path114"
             style="fill:#9268ca;fill-opacity:1;fill-rule:nonzero;stroke:none" /></g><path
           d="m 31,16 -8,0 0,2 8,0 0,-2 z"
           id="path116"
           style="fill:#aa8ed6;fill-opacity:1;fill-rule:nonzero;stroke:none" /><g
           transform="translate(25,26)"
           id="g118"><path
             d="m 0,0 0,-4 c 0,-1.104 0.896,-2 2,-2 1.104,0 2,0.896 2,2 L 4,0 0,0 z"
             id="path120"
             style="fill:#d79e84;fill-opacity:1;fill-rule:nonzero;stroke:none" /></g><g
           transform="translate(29,26)"
           id="g122"><path
             d="M 0,0 -4,-0.019 -4,-4 c 0,0 2,-1 4,0 l 0,4 z"
             id="path124"
             style="fill:#bf6952;fill-opacity:1;fill-rule:nonzero;stroke:none" /></g><g
           transform="translate(32,34)"
           id="g126"><path
             d="m 0,0 -10,0 0,-6 0,0 c 0,-2.763 2.238,-5 5,-5 2.762,0 5,2.237 5,5 l 0,0 0,6 z"
             id="path128"
             style="fill:#d79e84;fill-opacity:1;fill-rule:nonzero;stroke:none" /></g><g
           transform="translate(25,34)"
           id="g130"><path
             d="M 0,0 C 0,0 0,-4 8,-4 L 8,0 0,0 z"
             id="path132"
             style="fill:#642116;fill-opacity:1;fill-rule:nonzero;stroke:none" /></g><g
           transform="translate(25,34)"
           id="g134"><path
             d="m 0,0 c 0,0 0,-4 -4,-4 l 0,4 4,0 z"
             id="path136"
             style="fill:#642116;fill-opacity:1;fill-rule:nonzero;stroke:none" /></g><g
           transform="translate(29,25)"
           id="g138"><path
             d="m 0,0 -2,0 -2,0 c 0,0 0,-1 2,-1 2,0 2,1 2,1"
             id="path140"
             style="fill:#c1694f;fill-opacity:1;fill-rule:nonzero;stroke:none" /></g><g
           transform="translate(25,28.5)"
           id="g142"><path
             d="M 0,0 C 0,-0.276 -0.224,-0.5 -0.5,-0.5 -0.776,-0.5 -1,-0.276 -1,0 -1,0.276 -0.776,0.5 -0.5,0.5 -0.224,0.5 0,0.276 0,0"
             id="path144"
             style="fill:#664500;fill-opacity:1;fill-rule:nonzero;stroke:none" /></g><g
           transform="translate(30,28.5)"
           id="g146"><path
             d="M 0,0 C 0,-0.276 -0.224,-0.5 -0.5,-0.5 -0.776,-0.5 -1,-0.276 -1,0 -1,0.276 -0.776,0.5 -0.5,0.5 -0.224,0.5 0,0.276 0,0"
             id="path148"
             style="fill:#664500;fill-opacity:1;fill-rule:nonzero;stroke:none" /></g><g
           transform="translate(26,27)"
           id="g150"><path
             d="M 0,0 1,0 2,0 C 2,0 2,-1 1,-1 0,-1 0,0 0,0"
             id="path152"
             style="fill:#c1694f;fill-opacity:1;fill-rule:nonzero;stroke:none" /></g></g></g></g></svg>