<?xml version="1.0" encoding="UTF-8" standalone="no"?><svg xmlns:dc="http://purl.org/dc/elements/1.1/" xmlns:cc="http://creativecommons.org/ns#" xmlns:rdf="http://www.w3.org/1999/02/22-rdf-syntax-ns#" xmlns:svg="http://www.w3.org/2000/svg" xmlns="http://www.w3.org/2000/svg" viewBox="0 0 47.5 47.5" style="enable-background:new 0 0 47.5 47.5;" xml:space="preserve" version="1.1" id="svg2"><metadata id="metadata8"><rdf:RDF><cc:Work rdf:about=""><dc:format>image/svg+xml</dc:format><dc:type rdf:resource="http://purl.org/dc/dcmitype/StillImage"/></cc:Work></rdf:RDF></metadata><defs id="defs6"><clipPath id="clipPath16" clipPathUnits="userSpaceOnUse"><path id="path18" d="M 0,38 38,38 38,0 0,0 0,38 Z"/></clipPath></defs><g transform="matrix(1.25,0,0,-1.25,0,47.5)" id="g10"><g id="g12"><g clip-path="url(#clipPath16)" id="g14"><g transform="translate(11.9995,37)" id="g20"><path id="path22" style="fill:#662113;fill-opacity:1;fill-rule:nonzero;stroke:none" d="M 0,0 C -1.264,0 -2.435,-0.393 -3.402,-1.061 -3.598,-1.031 -3.795,-1 -4,-1 -6.208,-1 -8,-2.791 -8,-5 l 0,-6 c 0,-3.866 3.134,-7 7,-7 3.867,0 7,3.134 7,7 l 0,4.999 C 6,-2.687 3.314,0 0,0"/></g><path id="path24" style="fill:#d79e84;fill-opacity:1;fill-rule:nonzero;stroke:none" d="m 10,2 -3,0 0,8 3,0 0,-8 z"/><path id="path26" style="fill:#d79e84;fill-opacity:1;fill-rule:nonzero;stroke:none" d="m 15,2 -3,0 0,8 3,0 0,-8 z"/><path id="path28" style="fill:#bf6952;fill-opacity:1;fill-rule:nonzero;stroke:none" d="m 10,9 -3,0 0,1 3,0 0,-1 z"/><path id="path30" style="fill:#bf6952;fill-opacity:1;fill-rule:nonzero;stroke:none" d="m 15,9 -3,0 0,1 3,0 0,-1 z"/><g transform="translate(6,1)" id="g32"><path id="path34" style="fill:#292f33;fill-opacity:1;fill-rule:nonzero;stroke:none" d="M 0,0 0,1 C 0,1 0,2 2,2 4,2 4,1 4,1 L 4,0 0,0 Z"/></g><g transform="translate(12,1)" id="g36"><path id="path38" style="fill:#292f33;fill-opacity:1;fill-rule:nonzero;stroke:none" d="M 0,0 0,1 C 0,1 0,2 2,2 4,2 4,1 4,1 L 4,0 0,0 Z"/></g><g transform="translate(1.999,11)" id="g40"><path id="path42" style="fill:#d79e84;fill-opacity:1;fill-rule:nonzero;stroke:none" d="m 0,0 c -0.164,0 -0.331,0.04 -0.485,0.126 -0.482,0.269 -0.657,0.877 -0.388,1.359 l 5,9.001 c 0.268,0.482 0.876,0.657 1.36,0.388 0.482,-0.268 0.657,-0.877 0.388,-1.36 l -5,-8.999 C 0.692,0.186 0.352,0 0,0"/></g><g transform="translate(20.001,11)" id="g44"><path id="path46" style="fill:#d79e84;fill-opacity:1;fill-rule:nonzero;stroke:none" d="m 0,0 c -0.352,0 -0.692,0.186 -0.875,0.515 l -5,8.999 c -0.269,0.483 -0.094,1.092 0.388,1.36 0.484,0.269 1.092,0.094 1.36,-0.388 l 5,-9.001 C 1.142,1.003 0.968,0.395 0.484,0.126 0.331,0.04 0.164,0 0,0"/></g><g transform="translate(5.0005,10)" id="g48"><path id="path50" style="fill:#e75a70;fill-opacity:1;fill-rule:nonzero;stroke:none" d="m 0,0 12,0 -2,6 0,4 2,0 0,1 c 0,1.104 -0.896,2 -2,2 L 8,13 4,13 2,13 C 0.895,13 0,12.104 0,11 L 0,10 2,10 2,6 0,0 Z"/></g><path id="path52" style="fill:#da2f47;fill-opacity:1;fill-rule:nonzero;stroke:none" d="m 15,16 -8,0 0,2 8,0 0,-2 z"/><g transform="translate(9,26)" id="g54"><path id="path56" style="fill:#d79e84;fill-opacity:1;fill-rule:nonzero;stroke:none" d="m 0,0 0,-4 c 0,-1.104 0.896,-2 2,-2 1.104,0 2,0.896 2,2 L 4,0 0,0 Z"/></g><g transform="translate(13,26)" id="g58"><path id="path60" style="fill:#bf6952;fill-opacity:1;fill-rule:nonzero;stroke:none" d="M 0,0 -4,-0.019 -4,-4 c 0,0 2,-1 4,0 l 0,4 z"/></g><g transform="translate(16,34)" id="g62"><path id="path64" style="fill:#d79e84;fill-opacity:1;fill-rule:nonzero;stroke:none" d="m 0,0 -10,0 0,-6 0,0 c 0,-2.763 2.238,-5 5,-5 2.761,0 5,2.237 5,5 l 0,0 0,6 z"/></g><g transform="translate(9,34)" id="g66"><path id="path68" style="fill:#662113;fill-opacity:1;fill-rule:nonzero;stroke:none" d="M 0,0 C 0,0 0,-4 8,-4 L 8,0 0,0 Z"/></g><g transform="translate(9,34)" id="g70"><path id="path72" style="fill:#662113;fill-opacity:1;fill-rule:nonzero;stroke:none" d="m 0,0 c 0,0 0,-4 -4,-4 l 0,4 4,0 z"/></g><g transform="translate(13,25)" id="g74"><path id="path76" style="fill:#c1694f;fill-opacity:1;fill-rule:nonzero;stroke:none" d="m 0,0 -2,0 -2,0 c 0,0 0,-1 2,-1 2,0 2,1 2,1"/></g><g transform="translate(9,28.5)" id="g78"><path id="path80" style="fill:#664500;fill-opacity:1;fill-rule:nonzero;stroke:none" d="M 0,0 C 0,-0.276 -0.224,-0.5 -0.5,-0.5 -0.776,-0.5 -1,-0.276 -1,0 -1,0.276 -0.776,0.5 -0.5,0.5 -0.224,0.5 0,0.276 0,0"/></g><g transform="translate(14,28.5)" id="g82"><path id="path84" style="fill:#664500;fill-opacity:1;fill-rule:nonzero;stroke:none" d="M 0,0 C 0,-0.276 -0.224,-0.5 -0.5,-0.5 -0.776,-0.5 -1,-0.276 -1,0 -1,0.276 -0.776,0.5 -0.5,0.5 -0.224,0.5 0,0.276 0,0"/></g><g transform="translate(10,27)" id="g86"><path id="path88" style="fill:#c1694f;fill-opacity:1;fill-rule:nonzero;stroke:none" d="M 0,0 1,0 2,0 C 2,0 2,-1 1,-1 0,-1 0,0 0,0"/></g><g transform="translate(27.5,37)" id="g90"><path id="path92" style="fill:#292f33;fill-opacity:1;fill-rule:nonzero;stroke:none" d="M 0,0 C -1.187,0 -2.282,-0.379 -3.181,-1.018 -5.027,-1.114 -6.5,-2.629 -6.5,-4.5 c 0,-1.542 0.007,-3.484 2.038,-4.208 C -3.464,-10.094 -1.84,-11 0,-11 3.037,-11 5.5,-8.538 5.5,-5.501 5.5,-2.463 3.037,0 0,0"/></g><g transform="translate(28,14)" id="g94"><path id="path96" style="fill:#664500;fill-opacity:1;fill-rule:nonzero;stroke:none" d="m 0,0 -2,0 -3,0 0,-12 3,0 0,8 2,0 0,-8 3,0 0,12 -3,0 z"/></g><g transform="translate(22,1)" id="g98"><path id="path100" style="fill:#292f33;fill-opacity:1;fill-rule:nonzero;stroke:none" d="M 0,0 0,1 C 0,1 0,2 2,2 4,2 4,1 4,1 L 4,0 0,0 Z"/></g><g transform="translate(28,1)" id="g102"><path id="path104" style="fill:#292f33;fill-opacity:1;fill-rule:nonzero;stroke:none" d="M 0,0 0,1 C 0,1 0,2 2,2 4,2 4,1 4,1 L 4,0 0,0 Z"/></g><g transform="translate(17.999,11)" id="g106"><path id="path108" style="fill:#d79e84;fill-opacity:1;fill-rule:nonzero;stroke:none" d="m 0,0 c -0.164,0 -0.331,0.04 -0.485,0.126 -0.482,0.269 -0.657,0.877 -0.388,1.359 l 5,9.001 c 0.268,0.482 0.878,0.657 1.359,0.388 0.484,-0.268 0.658,-0.877 0.389,-1.36 l -5,-8.999 C 0.692,0.186 0.352,0 0,0"/></g><g transform="translate(36.001,11)" id="g110"><path id="path112" style="fill:#d79e84;fill-opacity:1;fill-rule:nonzero;stroke:none" d="m 0,0 c -0.352,0 -0.692,0.186 -0.875,0.515 l -5,8.999 c -0.269,0.483 -0.095,1.092 0.389,1.36 0.482,0.269 1.091,0.094 1.359,-0.388 l 5,-9.001 C 1.142,1.003 0.968,0.395 0.484,0.126 0.331,0.04 0.164,0 0,0"/></g><g transform="translate(33,21)" id="g114"><path id="path116" style="fill:#4289c1;fill-opacity:1;fill-rule:nonzero;stroke:none" d="m 0,0 c 0,1.104 -0.896,2 -2,2 l -2,0 -4,0 -2,0 c -1.104,0 -2,-0.896 -2,-2 l 0,-1 2,0 0,-7 8,0 0,7 2,0 0,1 z"/></g><g transform="translate(25,26)" id="g118"><path id="path120" style="fill:#d79e84;fill-opacity:1;fill-rule:nonzero;stroke:none" d="m 0,0 0,-4 c 0,-1.104 0.896,-2 2,-2 1.104,0 2,0.896 2,2 L 4,0 0,0 Z"/></g><g transform="translate(29,26)" id="g122"><path id="path124" style="fill:#bf6952;fill-opacity:1;fill-rule:nonzero;stroke:none" d="M 0,0 -4,-0.019 -4,-4 c 0,0 2,-1 4,0 l 0,4 z"/></g><g transform="translate(32,34)" id="g126"><path id="path128" style="fill:#d79e84;fill-opacity:1;fill-rule:nonzero;stroke:none" d="m 0,0 -10,0 0,-6 0,0 c 0,-2.763 2.238,-5 5,-5 2.762,0 5,2.237 5,5 l 0,0 0,6 z"/></g><g transform="translate(25,34)" id="g130"><path id="path132" style="fill:#292f33;fill-opacity:1;fill-rule:nonzero;stroke:none" d="m 0,0 -3,0 0,-4 c 2.333,0 2.85,2.412 2.965,3.488 C 0.004,-1.588 0.779,-4 7,-4 L 7,0 0,0 Z"/></g><g transform="translate(29,25)" id="g134"><path id="path136" style="fill:#c1694f;fill-opacity:1;fill-rule:nonzero;stroke:none" d="m 0,0 -2,0 -2,0 c 0,0 0,-1 2,-1 2,0 2,1 2,1"/></g><g transform="translate(25,28.5)" id="g138"><path id="path140" style="fill:#664500;fill-opacity:1;fill-rule:nonzero;stroke:none" d="M 0,0 C 0,-0.276 -0.224,-0.5 -0.5,-0.5 -0.776,-0.5 -1,-0.276 -1,0 -1,0.276 -0.776,0.5 -0.5,0.5 -0.224,0.5 0,0.276 0,0"/></g><g transform="translate(30,28.5)" id="g142"><path id="path144" style="fill:#664500;fill-opacity:1;fill-rule:nonzero;stroke:none" d="M 0,0 C 0,-0.276 -0.224,-0.5 -0.5,-0.5 -0.776,-0.5 -1,-0.276 -1,0 -1,0.276 -0.776,0.5 -0.5,0.5 -0.224,0.5 0,0.276 0,0"/></g><g transform="translate(26,27)" id="g146"><path id="path148" style="fill:#c1694f;fill-opacity:1;fill-rule:nonzero;stroke:none" d="M 0,0 1,0 2,0 C 2,0 2,-1 1,-1 0,-1 0,0 0,0"/></g></g></g></g></svg>
