<svg xmlns="http://www.w3.org/2000/svg" viewBox="0 0 47.5 47.5" enable-background="new 0 0 47.5 47.5"><defs><clipPath id="a"><path d="M0 38h38V0H0v38z"/></clipPath></defs><g><g><g clip-path="url(#a)" transform="matrix(1.25 0 0 -1.25 0 47.5)"><g><path fill="#662113" d="M35.54 3.5s1.18-.2 1.18-1.24C36.72 1.2 35.68 1 34.64 1H16.92C14.82 1 11 5 9 5l-.6-4H2v2.94c0 2.08-.88 2.28-.88 3.2 0 2.1.67 4.4.67 4.4l6.74-.3L18 4l17.54-.5z"/></g><g><path fill="#c1694f" d="M2.67 9.72C5.7 9 9 8 16.64 4.34c0 0 2-1.34 4.36-1.34h14.54s1.18.26 1.18 2.42c0 1.1-7.9 3.38-10.27 4.47C24.1 10.96 20 16.2 20 16.2s-.17-13.63-7.25-6.04C5.65 17.74 8.37 16.6 6 16.6c-.48 0-3.73-1.3-4.54-5.04-.1-.54.34-1.63 1.2-1.84"/></g><g><path fill="#c1694f" d="M3 15s1 2 1 4-1 17-1 17 4.92 1 10 1 7-1 7-1-6-15 2-23c2.55-2.55-2-7-2-7s-1-2-4 0-13 9-13 9"/></g><path fill="#d99e82" d="M11 17H9v20h2V17z"/></g></g></g></svg>