<?xml version="1.0" encoding="UTF-8" standalone="no"?><svg xmlns:svg="http://www.w3.org/2000/svg" xmlns="http://www.w3.org/2000/svg" version="1.1" viewBox="0 0 47.5 47.5" style="enable-background:new 0 0 47.5 47.5;" id="svg2" xml:space="preserve"><defs id="defs6"><clipPath id="clipPath18"><path d="M 0,38 38,38 38,0 0,0 0,38 z" id="path20"/></clipPath></defs><g transform="matrix(1.25,0,0,-1.25,0,47.5)" id="g12"><g id="g14"><g clip-path="url(#clipPath18)" id="g16"><g transform="translate(5,17)" id="g22"><path d="m 0,0 c -3,0 -3.601,-1.546 -4,-3 0,-1 0,-1 1,-1 0.72,0 9.828,-1.42 9.828,-1.42 L 19.567,-10.516 25,-11 c 0,0 3.844,-1.063 5.844,0.937 1,1 3.189,3.216 -3.594,4.603 C 25,-5 23.779,-5.362 21.163,-4.704 18.545,-4.045 19.083,-5.165 17,-4 14.915,-2.835 13.061,-1.678 5.407,-0.401 3,0 1,0 0,0" id="path24" style="fill:#d99e82;fill-opacity:1;fill-rule:nonzero;stroke:none"/></g><g transform="translate(36,4)" id="g26"><path d="m 0,0 -8,0 c -5.632,0 -15.397,6.031 -17,6 -0.692,-0.013 -1,-0.098 -1,-4 0,-2 -1,-2 -1,-2 l -7,0 c -1.064,0.26 -1,2 -1,2 0.051,0.999 0,8 0,8 0,0 4.087,0.993 9.941,-0.687 C -19.205,7.634 -11,4 -11,4 L 0.969,4 C 0.969,3 1.184,0.023 0,0" id="path28" style="fill:#c1694f;fill-opacity:1;fill-rule:nonzero;stroke:none"/></g><g transform="translate(20.207,8.333)" id="g30"><path d="m 0,0 c 0.251,1.334 2.29,10.428 2.626,11.667 0.334,1.24 7.959,-0.042 7.875,-2 C 10.21,8.042 8.634,-1.065 8.631,-1.417 8.668,-2.916 -0.251,-1.334 0,0" id="path32" style="fill:#be1931;fill-opacity:1;fill-rule:nonzero;stroke:none"/></g></g></g></g></svg>
