<?xml version="1.0" encoding="UTF-8" standalone="no"?><svg xmlns:dc="http://purl.org/dc/elements/1.1/" xmlns:cc="http://creativecommons.org/ns#" xmlns:rdf="http://www.w3.org/1999/02/22-rdf-syntax-ns#" xmlns:svg="http://www.w3.org/2000/svg" xmlns="http://www.w3.org/2000/svg" viewBox="0 0 47.5 47.5" style="enable-background:new 0 0 47.5 47.5;" xml:space="preserve" version="1.1" id="svg2"><metadata id="metadata8"><rdf:RDF><cc:Work rdf:about=""><dc:format>image/svg+xml</dc:format><dc:type rdf:resource="http://purl.org/dc/dcmitype/StillImage"/></cc:Work></rdf:RDF></metadata><defs id="defs6"><clipPath id="clipPath16" clipPathUnits="userSpaceOnUse"><path id="path18" d="M 0,38 38,38 38,0 0,0 0,38 Z"/></clipPath><clipPath id="clipPath48" clipPathUnits="userSpaceOnUse"><path id="path50" d="M 0,38 38,38 38,0 0,0 0,38 Z"/></clipPath></defs><g transform="matrix(1.25,0,0,-1.25,0,47.5)" id="g10"><g id="g12"><g clip-path="url(#clipPath16)" id="g14"><g transform="translate(26.7764,32.2915)" id="g20"><path id="path22" style="fill:#662113;fill-opacity:1;fill-rule:nonzero;stroke:none" d="m 0,0 c 1.333,0 6.833,-1.333 6.833,-7.75 0,-6.417 -6.261,-15.73 -8.625,-15.958 -2.583,-0.25 -4.208,1.375 -4.208,4 0,2.625 4.083,4.333 2.208,8.291 C -5.667,-7.458 -6.125,0 0,0"/></g><g transform="translate(33.8574,30.0596)" id="g24"><path id="path26" style="fill:#662113;fill-opacity:1;fill-rule:nonzero;stroke:none" d="M 0,0 C -0.432,-0.733 -0.323,-1.598 0.242,-1.93 0.808,-2.263 1.616,-1.937 2.047,-1.203 2.479,-0.469 2.37,0.396 1.805,0.728 1.239,1.061 0.431,0.734 0,0"/></g><g transform="translate(30.9551,32.9224)" id="g28"><path id="path30" style="fill:#662113;fill-opacity:1;fill-rule:nonzero;stroke:none" d="M 0,0 C -0.117,-0.843 0.342,-1.604 1.025,-1.699 1.709,-1.794 2.359,-1.188 2.477,-0.345 2.594,0.499 2.135,1.259 1.451,1.354 0.768,1.45 0.117,0.844 0,0"/></g><g transform="translate(27.7344,34.292)" id="g32"><path id="path34" style="fill:#662113;fill-opacity:1;fill-rule:nonzero;stroke:none" d="M 0,0 C 0,-0.921 0.598,-1.667 1.334,-1.667 2.07,-1.667 2.667,-0.921 2.667,0 2.667,0.92 2.07,1.667 1.334,1.667 0.598,1.667 0,0.92 0,0"/></g><g transform="translate(23.9434,34.9795)" id="g36"><path id="path38" style="fill:#662113;fill-opacity:1;fill-rule:nonzero;stroke:none" d="m 0,0 c 0,-1.024 0.635,-1.854 1.416,-1.854 0.783,0 1.417,0.83 1.417,1.854 0,1.024 -0.634,1.854 -1.417,1.854 C 0.635,1.854 0,1.024 0,0"/></g><g transform="translate(18.6357,32.8228)" id="g40"><path id="path42" style="fill:#662113;fill-opacity:1;fill-rule:nonzero;stroke:none" d="M 0,0 C 0.378,-1.459 1.604,-2.405 2.741,-2.111 3.878,-1.817 4.492,-0.396 4.114,1.063 3.737,2.522 2.511,3.468 1.374,3.174 0.237,2.88 -0.377,1.458 0,0"/></g></g></g><g id="g44"><g clip-path="url(#clipPath48)" id="g46"><g transform="translate(10.917,25.2915)" id="g52"><path id="path54" style="fill:#662113;fill-opacity:1;fill-rule:nonzero;stroke:none" d="m 0,0 c -1.333,0 -6.833,-1.333 -6.833,-7.75 0,-6.417 6.261,-15.73 8.625,-15.958 2.583,-0.25 4.208,1.375 4.208,4 0,2.625 -4.083,4.333 -2.208,8.291 C 5.667,-7.458 6.125,0 0,0"/></g><g transform="translate(3.8364,23.0596)" id="g56"><path id="path58" style="fill:#662113;fill-opacity:1;fill-rule:nonzero;stroke:none" d="m 0,0 c 0.432,-0.733 0.323,-1.598 -0.242,-1.93 -0.566,-0.333 -1.375,-0.007 -1.805,0.727 -0.432,0.734 -0.324,1.599 0.241,1.931 C -1.24,1.061 -0.431,0.734 0,0"/></g><g transform="translate(6.7383,25.9224)" id="g60"><path id="path62" style="fill:#662113;fill-opacity:1;fill-rule:nonzero;stroke:none" d="m 0,0 c 0.117,-0.843 -0.342,-1.604 -1.025,-1.699 -0.684,-0.095 -1.334,0.511 -1.452,1.354 -0.117,0.844 0.342,1.604 1.026,1.699 C -0.767,1.45 -0.118,0.844 0,0"/></g><g transform="translate(9.9585,27.292)" id="g64"><path id="path66" style="fill:#662113;fill-opacity:1;fill-rule:nonzero;stroke:none" d="m 0,0 c 0,-0.921 -0.597,-1.667 -1.333,-1.667 -0.737,0 -1.334,0.746 -1.334,1.667 0,0.92 0.597,1.667 1.334,1.667 C -0.597,1.667 0,0.92 0,0"/></g><g transform="translate(13.75,27.9795)" id="g68"><path id="path70" style="fill:#662113;fill-opacity:1;fill-rule:nonzero;stroke:none" d="m 0,0 c 0,-1.024 -0.634,-1.854 -1.417,-1.854 -0.782,0 -1.416,0.83 -1.416,1.854 0,1.024 0.634,1.854 1.416,1.854 C -0.634,1.854 0,1.024 0,0"/></g><g transform="translate(19.0576,25.8228)" id="g72"><path id="path74" style="fill:#662113;fill-opacity:1;fill-rule:nonzero;stroke:none" d="m 0,0 c -0.377,-1.459 -1.604,-2.405 -2.741,-2.111 -1.136,0.294 -1.751,1.715 -1.374,3.174 0.377,1.459 1.604,2.405 2.74,2.111 C -0.238,2.88 0.377,1.458 0,0"/></g></g></g></g></svg>
