<?xml version="1.0" encoding="UTF-8" standalone="no"?><svg xmlns:dc="http://purl.org/dc/elements/1.1/" xmlns:cc="http://creativecommons.org/ns#" xmlns:rdf="http://www.w3.org/1999/02/22-rdf-syntax-ns#" xmlns:svg="http://www.w3.org/2000/svg" xmlns="http://www.w3.org/2000/svg" viewBox="0 0 47.5 47.5" style="enable-background:new 0 0 47.5 47.5;" xml:space="preserve" version="1.1" id="svg2"><metadata id="metadata8"><rdf:RDF><cc:Work rdf:about=""><dc:format>image/svg+xml</dc:format><dc:type rdf:resource="http://purl.org/dc/dcmitype/StillImage"/></cc:Work></rdf:RDF></metadata><defs id="defs6"><clipPath id="clipPath16" clipPathUnits="userSpaceOnUse"><path id="path18" d="M 0,38 38,38 38,0 0,0 0,38 Z"/></clipPath></defs><g transform="matrix(1.25,0,0,-1.25,0,47.5)" id="g10"><g id="g12"><g clip-path="url(#clipPath16)" id="g14"><g transform="translate(11.9995,37)" id="g20"><path id="path22" style="fill:#642116;fill-opacity:1;fill-rule:nonzero;stroke:none" d="M 0,0 C -1.264,0 -2.435,-0.393 -3.402,-1.061 -3.598,-1.031 -3.795,-1 -4,-1 -6.208,-1 -8,-2.791 -8,-5 l 0,-6 c 0,-3.866 3.134,-7 7,-7 3.867,0 7,3.134 7,7 l 0,4.999 C 6,-2.687 3.314,0 0,0"/></g><path id="path24" style="fill:#d79e84;fill-opacity:1;fill-rule:nonzero;stroke:none" d="m 10,2 -3,0 0,8 3,0 0,-8 z"/><path id="path26" style="fill:#d79e84;fill-opacity:1;fill-rule:nonzero;stroke:none" d="m 15,2 -3,0 0,8 3,0 0,-8 z"/><g transform="translate(6,1)" id="g28"><path id="path30" style="fill:#292f33;fill-opacity:1;fill-rule:nonzero;stroke:none" d="M 0,0 0,1 C 0,1 0,2 2,2 4,2 4,1 4,1 L 4,0 0,0 Z"/></g><g transform="translate(12,1)" id="g32"><path id="path34" style="fill:#292f33;fill-opacity:1;fill-rule:nonzero;stroke:none" d="M 0,0 0,1 C 0,1 0,2 2,2 4,2 4,1 4,1 L 4,0 0,0 Z"/></g><g transform="translate(1.999,11)" id="g36"><path id="path38" style="fill:#d79e84;fill-opacity:1;fill-rule:nonzero;stroke:none" d="m 0,0 c -0.164,0 -0.331,0.04 -0.485,0.126 -0.482,0.269 -0.657,0.877 -0.388,1.359 l 5,9.001 c 0.268,0.482 0.876,0.657 1.36,0.388 0.482,-0.268 0.657,-0.877 0.388,-1.36 l -5,-8.999 C 0.692,0.186 0.352,0 0,0"/></g><g transform="translate(20.001,11)" id="g40"><path id="path42" style="fill:#d79e84;fill-opacity:1;fill-rule:nonzero;stroke:none" d="m 0,0 c -0.352,0 -0.692,0.186 -0.875,0.515 l -5,8.999 c -0.269,0.483 -0.094,1.092 0.388,1.36 0.484,0.269 1.092,0.094 1.36,-0.388 l 5,-9.001 C 1.142,1.003 0.968,0.395 0.484,0.126 0.331,0.04 0.164,0 0,0"/></g><g transform="translate(5.0005,10)" id="g44"><path id="path46" style="fill:#e75a70;fill-opacity:1;fill-rule:nonzero;stroke:none" d="m 0,0 12,0 -2,6 0,4 2,0 0,1 c 0,1.104 -0.896,2 -2,2 L 8,13 4,13 2,13 C 0.895,13 0,12.104 0,11 L 0,10 2,10 2,6 0,0 Z"/></g><path id="path48" style="fill:#da2f47;fill-opacity:1;fill-rule:nonzero;stroke:none" d="m 15,16 -8,0 0,2 8,0 0,-2 z"/><g transform="translate(9,26)" id="g50"><path id="path52" style="fill:#d79e84;fill-opacity:1;fill-rule:nonzero;stroke:none" d="m 0,0 0,-4 c 0,-1.104 0.896,-2 2,-2 1.104,0 2,0.896 2,2 L 4,0 0,0 Z"/></g><g transform="translate(13,26)" id="g54"><path id="path56" style="fill:#bf6952;fill-opacity:1;fill-rule:nonzero;stroke:none" d="M 0,0 -4,-0.019 -4,-4 c 0,0 2,-1 4,0 l 0,4 z"/></g><g transform="translate(16,34)" id="g58"><path id="path60" style="fill:#d79e84;fill-opacity:1;fill-rule:nonzero;stroke:none" d="m 0,0 -10,0 0,-6 0,0 c 0,-2.763 2.238,-5 5,-5 2.761,0 5,2.237 5,5 l 0,0 0,6 z"/></g><g transform="translate(9,34)" id="g62"><path id="path64" style="fill:#642116;fill-opacity:1;fill-rule:nonzero;stroke:none" d="M 0,0 C 0,0 0,-4 8,-4 L 8,0 0,0 Z"/></g><g transform="translate(9,34)" id="g66"><path id="path68" style="fill:#642116;fill-opacity:1;fill-rule:nonzero;stroke:none" d="m 0,0 c 0,0 0,-4 -4,-4 l 0,4 4,0 z"/></g><g transform="translate(13,25)" id="g70"><path id="path72" style="fill:#c1694f;fill-opacity:1;fill-rule:nonzero;stroke:none" d="m 0,0 -2,0 -2,0 c 0,0 0,-1 2,-1 2,0 2,1 2,1"/></g><g transform="translate(9,28.5)" id="g74"><path id="path76" style="fill:#664500;fill-opacity:1;fill-rule:nonzero;stroke:none" d="M 0,0 C 0,-0.276 -0.224,-0.5 -0.5,-0.5 -0.776,-0.5 -1,-0.276 -1,0 -1,0.276 -0.776,0.5 -0.5,0.5 -0.224,0.5 0,0.276 0,0"/></g><g transform="translate(14,28.5)" id="g78"><path id="path80" style="fill:#664500;fill-opacity:1;fill-rule:nonzero;stroke:none" d="M 0,0 C 0,-0.276 -0.224,-0.5 -0.5,-0.5 -0.776,-0.5 -1,-0.276 -1,0 -1,0.276 -0.776,0.5 -0.5,0.5 -0.224,0.5 0,0.276 0,0"/></g><g transform="translate(10,27)" id="g82"><path id="path84" style="fill:#c1694f;fill-opacity:1;fill-rule:nonzero;stroke:none" d="M 0,0 1,0 2,0 C 2,0 2,-1 1,-1 0,-1 0,0 0,0"/></g><g transform="translate(34,30.999)" id="g86"><path id="path88" style="fill:#642116;fill-opacity:1;fill-rule:nonzero;stroke:none" d="m 0,0 c 0,3.314 -2.687,6.001 -6,6.001 -1.264,0 -2.436,-0.393 -3.402,-1.061 -0.197,0.03 -0.393,0.061 -0.598,0.061 -2.209,0 -4,-1.791 -4,-4 l 0,-6 4.686,0 c 0.949,-0.631 2.087,-1 3.314,-1 1.226,0 2.364,0.369 3.314,1 L 0,-4.999 0,0 Z"/></g><path id="path90" style="fill:#d79e84;fill-opacity:1;fill-rule:nonzero;stroke:none" d="m 26,2 -3,0 0,8 3,0 0,-8 z"/><path id="path92" style="fill:#d79e84;fill-opacity:1;fill-rule:nonzero;stroke:none" d="m 31,2 -3,0 0,8 3,0 0,-8 z"/><g transform="translate(22,1)" id="g94"><path id="path96" style="fill:#292f33;fill-opacity:1;fill-rule:nonzero;stroke:none" d="M 0,0 0,1 C 0,1 0,2 2,2 4,2 4,1 4,1 L 4,0 0,0 Z"/></g><g transform="translate(28,1)" id="g98"><path id="path100" style="fill:#292f33;fill-opacity:1;fill-rule:nonzero;stroke:none" d="M 0,0 0,1 C 0,1 0,2 2,2 4,2 4,1 4,1 L 4,0 0,0 Z"/></g><g transform="translate(17.999,11)" id="g102"><path id="path104" style="fill:#d79e84;fill-opacity:1;fill-rule:nonzero;stroke:none" d="m 0,0 c -0.164,0 -0.331,0.04 -0.485,0.126 -0.482,0.269 -0.657,0.877 -0.388,1.359 l 5,9.001 c 0.268,0.482 0.878,0.657 1.359,0.388 0.484,-0.268 0.658,-0.877 0.389,-1.36 l -5,-8.999 C 0.692,0.186 0.352,0 0,0"/></g><g transform="translate(36.001,11)" id="g106"><path id="path108" style="fill:#d79e84;fill-opacity:1;fill-rule:nonzero;stroke:none" d="m 0,0 c -0.352,0 -0.692,0.186 -0.875,0.515 l -5,8.999 c -0.269,0.483 -0.095,1.092 0.389,1.36 0.482,0.269 1.091,0.094 1.359,-0.388 l 5,-9.001 C 1.142,1.003 0.968,0.395 0.484,0.126 0.331,0.04 0.164,0 0,0"/></g><g transform="translate(33,20)" id="g110"><path id="path112" style="fill:#9268ca;fill-opacity:1;fill-rule:nonzero;stroke:none" d="m 0,0 0,1 c 0,1.104 -0.896,2 -2,2 l -2,0 -4,0 -2,0 c -1.104,0 -2,-0.896 -2,-2 l 0,-1 2,0 0,-4 -2,-6 12,0 -2,6 0,4 2,0 z"/></g><path id="path114" style="fill:#aa8ed6;fill-opacity:1;fill-rule:nonzero;stroke:none" d="m 31,16 -8,0 0,2 8,0 0,-2 z"/><g transform="translate(25,26)" id="g116"><path id="path118" style="fill:#d79e84;fill-opacity:1;fill-rule:nonzero;stroke:none" d="m 0,0 0,-4 c 0,-1.104 0.896,-2 2,-2 1.104,0 2,0.896 2,2 L 4,0 0,0 Z"/></g><g transform="translate(29,26)" id="g120"><path id="path122" style="fill:#bf6952;fill-opacity:1;fill-rule:nonzero;stroke:none" d="M 0,0 -4,-0.019 -4,-4 c 0,0 2,-1 4,0 l 0,4 z"/></g><g transform="translate(32,34)" id="g124"><path id="path126" style="fill:#d79e84;fill-opacity:1;fill-rule:nonzero;stroke:none" d="m 0,0 -10,0 0,-6 0,0 c 0,-2.763 2.238,-5 5,-5 2.762,0 5,2.237 5,5 l 0,0 0,6 z"/></g><g transform="translate(25,34)" id="g128"><path id="path130" style="fill:#642116;fill-opacity:1;fill-rule:nonzero;stroke:none" d="M 0,0 C 0,0 0,-4 8,-4 L 8,0 0,0 Z"/></g><g transform="translate(25,34)" id="g132"><path id="path134" style="fill:#642116;fill-opacity:1;fill-rule:nonzero;stroke:none" d="m 0,0 c 0,0 0,-4 -4,-4 l 0,4 4,0 z"/></g><g transform="translate(29,25)" id="g136"><path id="path138" style="fill:#c1694f;fill-opacity:1;fill-rule:nonzero;stroke:none" d="m 0,0 -2,0 -2,0 c 0,0 0,-1 2,-1 2,0 2,1 2,1"/></g><g transform="translate(25,28.5)" id="g140"><path id="path142" style="fill:#664500;fill-opacity:1;fill-rule:nonzero;stroke:none" d="M 0,0 C 0,-0.276 -0.224,-0.5 -0.5,-0.5 -0.776,-0.5 -1,-0.276 -1,0 -1,0.276 -0.776,0.5 -0.5,0.5 -0.224,0.5 0,0.276 0,0"/></g><g transform="translate(30,28.5)" id="g144"><path id="path146" style="fill:#664500;fill-opacity:1;fill-rule:nonzero;stroke:none" d="M 0,0 C 0,-0.276 -0.224,-0.5 -0.5,-0.5 -0.776,-0.5 -1,-0.276 -1,0 -1,0.276 -0.776,0.5 -0.5,0.5 -0.224,0.5 0,0.276 0,0"/></g><g transform="translate(26,27)" id="g148"><path id="path150" style="fill:#c1694f;fill-opacity:1;fill-rule:nonzero;stroke:none" d="M 0,0 1,0 2,0 C 2,0 2,-1 1,-1 0,-1 0,0 0,0"/></g></g></g></g></svg>
