<?xml version="1.0" encoding="UTF-8" standalone="no"?>
<!-- Created with Inkscape (http://www.inkscape.org/) -->

<svg
   xmlns:svg="http://www.w3.org/2000/svg"
   xmlns="http://www.w3.org/2000/svg"
   version="1.1"
   width="47.5"
   height="47.5"
   id="svg2"
   xml:space="preserve"><defs
     id="defs6"><clipPath
       id="clipPath18"><path
         d="M 0,38 38,38 38,0 0,0 0,38 z"
         id="path20" /></clipPath></defs><g
     transform="matrix(1.25,0,0,-1.25,0,47.5)"
     id="g12"><g
       id="g14"><g
         clip-path="url(#clipPath18)"
         id="g16"><g
           transform="translate(9,18)"
           id="g22"><path
             d="M 0,0 C 0,-2.209 -1.119,-4 -2.5,-4 -3.881,-4 -5,-2.209 -5,0 -5,2.209 -3.881,4 -2.5,4 -1.119,4 0,2.209 0,0"
             id="path24"
             style="fill:#d99e82;fill-opacity:1;fill-rule:nonzero;stroke:none" /></g><g
           transform="translate(34,18)"
           id="g26"><path
             d="M 0,0 C 0,-2.209 -1.119,-4 -2.5,-4 -3.881,-4 -5,-2.209 -5,0 -5,2.209 -3.881,4 -2.5,4 -1.119,4 0,2.209 0,0"
             id="path28"
             style="fill:#d99e82;fill-opacity:1;fill-rule:nonzero;stroke:none" /></g><g
           transform="translate(6,16.4375)"
           id="g30"><path
             d="M 0,0 C 0,8.526 5.82,15.438 13,15.438 20.18,15.438 26,8.526 26,0 26,-8.525 20.18,-15.438 13,-15.438 5.82,-15.438 0,-8.525 0,0"
             id="path32"
             style="fill:#d99e82;fill-opacity:1;fill-rule:nonzero;stroke:none" /></g><g
           transform="translate(14,17)"
           id="g34"><path
             d="m 0,0 c -0.552,0 -1,0.447 -1,1 l 0,2 C -1,3.552 -0.552,4 0,4 0.552,4 1,3.552 1,3 L 1,1 C 1,0.447 0.552,0 0,0"
             id="path36"
             style="fill:#662113;fill-opacity:1;fill-rule:nonzero;stroke:none" /></g><g
           transform="translate(24,17)"
           id="g38"><path
             d="m 0,0 c -0.553,0 -1,0.447 -1,1 l 0,2 C -1,3.552 -0.553,4 0,4 0.553,4 1,3.552 1,3 L 1,1 C 1,0.447 0.553,0 0,0"
             id="path40"
             style="fill:#662113;fill-opacity:1;fill-rule:nonzero;stroke:none" /></g><g
           transform="translate(20,13)"
           id="g42"><path
             d="m 0,0 -2,0 c -0.552,0 -1,0.447 -1,1 0,0.553 0.448,1 1,1 L 0,2 C 0.553,2 1,1.553 1,1 1,0.447 0.553,0 0,0"
             id="path44"
             style="fill:#c1694f;fill-opacity:1;fill-rule:nonzero;stroke:none" /></g><g
           transform="translate(26.2744,9.9619)"
           id="g46"><path
             d="m 0,0 -3.294,0.941 c 0.003,0.034 0.02,0.063 0.02,0.097 0,0.553 -0.448,1 -1,1 l -6,0 c -0.553,0 -1,-0.447 -1,-1 0,-0.034 0.016,-0.063 0.019,-0.097 L -14.549,0 c -0.531,-0.152 -0.839,-0.706 -0.687,-1.236 0.126,-0.44 0.526,-0.726 0.961,-0.726 0.091,0 0.184,0.013 0.275,0.038 l 1.931,0.552 c -0.216,-0.293 -0.274,-0.689 -0.1,-1.037 0.175,-0.351 0.528,-0.553 0.896,-0.553 0.149,0 0.302,0.034 0.446,0.106 l 1.577,0.788 c 0.036,-0.327 0.213,-0.631 0.528,-0.788 0.144,-0.072 0.297,-0.106 0.447,-0.106 0.367,0 0.72,0.202 0.895,0.553 l 0.106,0.211 0.105,-0.211 c 0.175,-0.351 0.528,-0.553 0.896,-0.553 0.15,0 0.302,0.034 0.446,0.106 0.315,0.157 0.493,0.461 0.529,0.788 l 1.576,-0.788 c 0.144,-0.072 0.296,-0.106 0.447,-0.106 0.367,0 0.719,0.202 0.895,0.553 0.174,0.348 0.116,0.744 -0.099,1.037 l 1.93,-0.552 c 0.092,-0.025 0.184,-0.038 0.276,-0.038 0.434,0 0.835,0.286 0.96,0.726 C 0.839,-0.706 0.531,-0.152 0,0"
             id="path48"
             style="fill:#414042;fill-opacity:1;fill-rule:nonzero;stroke:none" /></g><g
           transform="translate(19,37.0005)"
           id="g50"><path
             d="m 0,0 c 8.615,0 14,-6.358 14,-11.656 0,-5.298 -1.077,-7.418 -2.154,-5.298 -1.076,2.119 -2.154,4.238 -2.154,4.238 0,0 -6.462,0 -8.615,2.12 0,0 3.231,-6.358 -3.231,0 0,0 1.077,-4.239 -5.385,1.059 0,0 -3.23,-2.119 -4.307,-7.417 -0.299,-1.47 -2.154,0 -2.154,5.298 C -14,-6.358 -9.692,0 0,0"
             id="path52"
             style="fill:#414042;fill-opacity:1;fill-rule:nonzero;stroke:none" /></g></g></g></g></svg>