<svg xmlns="http://www.w3.org/2000/svg" viewBox="0 0 47.5 47.5" enable-background="new 0 0 47.5 47.5"><defs><clipPath id="a"><path d="M0 38h38V0H0v38z"/></clipPath><clipPath id="b"><path d="M0 38h38V0H0v38z"/></clipPath></defs><g><g><g clip-path="url(#a)" transform="matrix(1.25 0 0 -1.25 0 47.5)"><g><path fill="#662113" d="M26.78 32.3c1.33 0 6.83-1.34 6.83-7.76S27.36 8.8 25 8.58c-2.58-.25-4.2 1.38-4.2 4 0 2.63 4.08 4.34 2.2 8.3-1.87 3.95-2.33 11.4 3.8 11.4"/></g><g><path fill="#662113" d="M33.86 30.06c-.43-.73-.33-1.6.24-1.93.57-.33 1.37 0 1.8.73.44.73.33 1.6-.24 1.93-.56.32-1.37 0-1.8-.74"/></g><g><path fill="#662113" d="M30.96 32.92c-.12-.84.34-1.6 1.02-1.7.68-.1 1.33.5 1.45 1.36.12.84-.34 1.6-1.02 1.7-.68.1-1.33-.5-1.44-1.36"/></g><g><path fill="#662113" d="M27.73 34.3c0-.93.6-1.67 1.34-1.67.73 0 1.33.74 1.33 1.66 0 .9-.6 1.66-1.33 1.66-.74 0-1.34-.75-1.34-1.67"/></g><g><path fill="#662113" d="M23.94 34.98c0-1.02.64-1.85 1.42-1.85.78 0 1.42.83 1.42 1.85s-.64 1.85-1.42 1.85c-.78 0-1.42-.83-1.42-1.85"/></g><g><path fill="#662113" d="M18.64 32.82c.37-1.46 1.6-2.4 2.74-2.1 1.13.3 1.75 1.7 1.37 3.17-.38 1.44-1.6 2.4-2.74 2.1-1.13-.3-1.74-1.72-1.36-3.18"/></g></g></g><g><g clip-path="url(#b)" transform="matrix(1.25 0 0 -1.25 0 47.5)"><g><path fill="#662113" d="M10.92 25.3c-1.34 0-6.84-1.34-6.84-7.76S10.34 1.8 12.7 1.58c2.6-.25 4.22 1.38 4.22 4 0 2.63-4.1 4.34-2.2 8.3 1.86 3.95 2.32 11.4-3.8 11.4"/></g><g><path fill="#662113" d="M3.84 23.06c.43-.73.32-1.6-.25-1.93-.57-.33-1.38 0-1.8.73-.44.73-.33 1.6.23 1.93.57.32 1.38 0 1.8-.74"/></g><g><path fill="#662113" d="M6.74 25.92c.12-.84-.34-1.6-1.03-1.7-.67-.1-1.32.5-1.44 1.36-.12.84.34 1.6 1.03 1.7.67.1 1.32-.5 1.44-1.36"/></g><g><path fill="#662113" d="M9.96 27.3c0-.93-.6-1.67-1.33-1.67-.74 0-1.34.74-1.34 1.66 0 .9.6 1.66 1.33 1.66.73 0 1.33-.75 1.33-1.67"/></g><g><path fill="#662113" d="M13.75 27.98c0-1.02-.63-1.85-1.42-1.85-.78 0-1.4.83-1.4 1.85s.62 1.85 1.4 1.85c.8 0 1.42-.83 1.42-1.85"/></g><g><path fill="#662113" d="M19.06 25.82c-.38-1.46-1.6-2.4-2.74-2.1-1.14.3-1.75 1.7-1.38 3.17.38 1.44 1.6 2.4 2.74 2.1 1.14-.3 1.75-1.72 1.38-3.18"/></g></g></g></g></svg>