<svg xmlns="http://www.w3.org/2000/svg" viewBox="0 0 47.5 47.5" enable-background="new 0 0 47.5 47.5"><defs><clipPath id="a"><path d="M0 38h38V0H0v38z"/></clipPath></defs><g><g><g clip-path="url(#a)" transform="matrix(1.25 0 0 -1.25 0 47.5)"><g><path fill="#d99e82" d="M9 18c0-2.2-1.12-4-2.5-4S4 15.8 4 18s1.12 4 2.5 4S9 20.2 9 18"/></g><g><path fill="#d99e82" d="M34 18c0-2.2-1.12-4-2.5-4S29 15.8 29 18s1.12 4 2.5 4 2.5-1.8 2.5-4"/></g><g><path fill="#d99e82" d="M6 16.44c0 8.52 5.82 15.44 13 15.44s13-6.92 13-15.44C32 7.9 26.18 1 19 1S6 7.9 6 16.44"/></g><g><path fill="#662113" d="M14 17c-.55 0-1 .45-1 1v2c0 .55.45 1 1 1s1-.45 1-1v-2c0-.55-.45-1-1-1"/></g><g><path fill="#662113" d="M24 17c-.55 0-1 .45-1 1v2c0 .55.45 1 1 1s1-.45 1-1v-2c0-.55-.45-1-1-1"/></g><g><path fill="#c1694f" d="M20 13h-2c-.55 0-1 .45-1 1s.45 1 1 1h2c.55 0 1-.45 1-1s-.45-1-1-1"/></g><g><path fill="#414042" d="M26.27 9.96l-3.3.94c0 .04.03.07.03.1 0 .55-.45 1-1 1h-6c-.55 0-1-.45-1-1 0-.03.02-.06.02-.1l-3.3-.94c-.53-.15-.83-.7-.68-1.23.12-.44.52-.73.96-.73.1 0 .18 0 .27.04l1.94.55c-.2-.3-.27-.7-.1-1.05.18-.35.53-.55.9-.55.15 0 .3.03.45.1l1.57.8c.04-.33.22-.64.53-.8.15-.07.3-.1.45-.1.37 0 .72.2.9.55l.1.2.1-.2c.18-.35.53-.55.9-.55.15 0 .3.03.45.1.3.16.5.47.53.8l1.57-.8c.15-.07.3-.1.45-.1.37 0 .72.2.9.55.17.35.1.75-.1 1.04l1.93-.56C25.83 8 25.9 8 26 8c.44 0 .84.3.96.73.15.53-.15 1.08-.7 1.23"/></g><g><path fill="#414042" d="M19 37c8.62 0 14-6.36 14-11.66s-1.08-7.4-2.15-5.3c-1.08 2.13-2.16 4.24-2.16 4.24s-6.47 0-8.62 2.12c0 0 3.23-6.35-3.23 0 0 0 1.07-4.23-5.4 1.06 0 0-3.22-2.12-4.3-7.4-.3-1.48-2.15 0-2.15 5.28C5 30.64 9.3 37 19 37"/></g></g></g></g></svg>