<svg xmlns="http://www.w3.org/2000/svg" viewBox="0 0 47.5 47.5" enable-background="new 0 0 47.5 47.5"><defs><clipPath id="a"><path d="M0 38h38V0H0v38z"/></clipPath></defs><g><g><path fill="#664500" d="M15 30H8.75v15h3.75V35H15v10h3.75V30H15z"/></g><g><g clip-path="url(#a)" transform="matrix(1.25 0 0 -1.25 0 47.5)"><g><path fill="#292f33" d="M6 1v1s0 1 2 1 2-1 2-1V1H6z"/></g><g><path fill="#292f33" d="M12 1v1s0 1 2 1 2-1 2-1V1h-4z"/></g><g><path fill="#292f33" d="M11.5 37c-1.2 0-2.28-.38-3.18-1.02C6.47 35.88 5 34.38 5 32.5c0-1.54 0-3.48 2.04-4.2 1-1.4 2.62-2.3 4.46-2.3 3.04 0 5.5 2.46 5.5 5.5S14.54 37 11.5 37"/></g><g><path fill="#d79e84" d="M2 11c-.16 0-.33.04-.5.13-.47.26-.64.87-.37 1.35l5 9c.26.5.87.66 1.36.4.47-.27.64-.88.37-1.37l-5-9c-.18-.3-.52-.5-.87-.5"/></g><g><path fill="#d79e84" d="M20 11c-.35 0-.7.2-.87.52l-5 9c-.27.48-.1 1.1.38 1.35.5.27 1.1.1 1.37-.38l5-9c.27-.5.1-1.1-.38-1.37-.17-.1-.33-.13-.5-.13"/></g><g><path fill="#4289c1" d="M17 21c0 1.1-.9 2-2 2H7c-1.1 0-2-.9-2-2v-1h2v-7h8v7h2v1z"/></g><g><path fill="#d79e84" d="M9 26v-4c0-1.1.9-2 2-2s2 .9 2 2v4H9z"/></g><g><path fill="#bf6952" d="M13 26l-4-.02V22s2-1 4 0v4z"/></g><g><path fill="#d79e84" d="M16 34H6v-6c0-2.76 2.24-5 5-5s5 2.24 5 5v6z"/></g><g><path fill="#292f33" d="M9 34H6v-4c2.33 0 2.85 2.4 2.96 3.5C9 32.4 9.79 30 16 30v4H9z"/></g><g><path fill="#c1694f" d="M13 25H9s0-1 2-1 2 1 2 1"/></g><g><path fill="#664500" d="M9 28.5c0-.28-.22-.5-.5-.5s-.5.22-.5.5.22.5.5.5.5-.22.5-.5"/></g><g><path fill="#664500" d="M14 28.5c0-.28-.22-.5-.5-.5s-.5.22-.5.5.22.5.5.5.5-.22.5-.5"/></g><g><path fill="#c1694f" d="M10 27h2s0-1-1-1-1 1-1 1"/></g><g><path fill="#67757f" d="M28 14h-5V2h3v8h2V2h3v12h-3z"/></g><g><path fill="#292f33" d="M22 1v1s0 1 2 1 2-1 2-1V1h-4z"/></g><g><path fill="#292f33" d="M28 1v1s0 1 2 1 2-1 2-1V1h-4z"/></g><g><path fill="#642116" d="M33 32.5c0 1.87-1.47 3.4-3.32 3.48-.9.64-2 1.02-3.18 1.02-3.04 0-5.5-2.46-5.5-5.5s2.46-5.5 5.5-5.5c1.84 0 3.46.9 4.46 2.3C33 29 33 30.95 33 32.5"/></g><g><path fill="#d79e84" d="M18 11c-.17 0-.33.04-.5.13-.47.26-.64.87-.37 1.35l5 9c.26.5.87.66 1.35.4.5-.27.66-.88.4-1.37l-5-9c-.2-.3-.53-.5-.88-.5"/></g><g><path fill="#d79e84" d="M36 11c-.35 0-.7.2-.87.52l-5 9c-.27.48-.1 1.1.38 1.35.5.27 1.1.1 1.37-.38l5-9c.27-.5.1-1.1-.4-1.37-.14-.1-.3-.13-.47-.13"/></g><g><path fill="#fdcb58" d="M33 21c0 1.1-.9 2-2 2h-8c-1.1 0-2-.9-2-2v-1h2v-7h8v7h2v1z"/></g><g><path fill="#d79e84" d="M25 26v-4c0-1.1.9-2 2-2s2 .9 2 2v4h-4z"/></g><g><path fill="#bf6952" d="M29 26l-4-.02V22s2-1 4 0v4z"/></g><g><path fill="#d79e84" d="M32 34H22v-6c0-2.76 2.24-5 5-5s5 2.24 5 5v6z"/></g><g><path fill="#642116" d="M29 34h-7v-4c6.22 0 7 2.4 7.04 3.5.1-1.1.63-3.5 2.96-3.5v4h-3z"/></g><g><path fill="#c1694f" d="M29 25h-4s0-1 2-1 2 1 2 1"/></g><g><path fill="#664500" d="M25 28.5c0-.28-.22-.5-.5-.5s-.5.22-.5.5.22.5.5.5.5-.22.5-.5"/></g><g><path fill="#664500" d="M30 28.5c0-.28-.22-.5-.5-.5s-.5.22-.5.5.22.5.5.5.5-.22.5-.5"/></g><g><path fill="#c1694f" d="M26 27h2s0-1-1-1-1 1-1 1"/></g></g></g></g></svg>