<?xml version="1.0" encoding="UTF-8" standalone="no"?>
<!-- Created with Inkscape (http://www.inkscape.org/) -->

<svg
   xmlns:svg="http://www.w3.org/2000/svg"
   xmlns="http://www.w3.org/2000/svg"
   version="1.1"
   width="47.5"
   height="47.5"
   id="svg2"
   xml:space="preserve"><defs
     id="defs6"><clipPath
       id="clipPath18"><path
         d="M 1,1 37,1 37,37 1,37 1,1 z"
         id="path20" /></clipPath><clipPath
       id="clipPath114"><path
         d="M 0,1 36,1 36,37 0,37 0,1 z"
         id="path116" /></clipPath></defs><g
     transform="matrix(1.25,0,0,-1.25,0,47.5)"
     id="g12"><g
       id="g14"><g
         clip-path="url(#clipPath18)"
         id="g16"><g
           transform="translate(33.5381,36.1924)"
           id="g22"><path
             d="m 0,0 c -0.333,0 -0.657,-0.034 -0.974,-0.09 -1.172,0.569 -2.482,0.898 -3.872,0.898 -4.907,0 -8.884,-3.978 -8.884,-8.885 l 0,-7.269 0.013,0 c 0.149,-5.223 4.42,-9.415 9.679,-9.415 5.259,0 9.53,4.192 9.679,9.415 l 0.013,0 0,9.692 C 5.654,-2.531 3.123,0 0,0"
             id="path24"
             style="fill:#642116;fill-opacity:1;fill-rule:nonzero;stroke:none" /></g><g
           transform="translate(22.2305,15.1924)"
           id="g26"><path
             d="m 0,0 0.808,0 12.923,0 0.808,0 c 1.784,0 3.231,-1.446 3.231,-3.23 l 0,-10.962 -4.039,0 -12.923,0 -4.038,0 0,10.962 C -3.23,-1.446 -1.784,0 0,0"
             id="path28"
             style="fill:#9268ca;fill-opacity:1;fill-rule:nonzero;stroke:none" /></g><path
           d="m 22,1 1,0 0,10 -1,0 0,-10 z"
           id="path30"
           style="fill:#7450a8;fill-opacity:1;fill-rule:nonzero;stroke:none" /><g
           transform="translate(27.0771,14.3848)"
           id="g32"><path
             d="m 0,0 c 0,-1.339 1.084,-2.423 2.423,-2.423 1.338,0 2.423,1.084 2.423,2.423 0,1.338 -1.085,2.423 -2.423,2.423 C 1.084,2.423 0,1.338 0,0"
             id="path34"
             style="fill:#d79e84;fill-opacity:1;fill-rule:nonzero;stroke:none" /></g><g
           transform="translate(27.0771,19.231)"
           id="g36"><path
             d="m 0,0 4.846,0 0,-5.295 c 0,0 -2.423,-0.808 -4.846,0 L 0,0 z"
             id="path38"
             style="fill:#d79e84;fill-opacity:1;fill-rule:nonzero;stroke:none" /></g><g
           transform="translate(22,33)"
           id="g40"><path
             d="m 0,0 0,-10 0.024,0 c 0.253,-3.89 3.497,-6.969 7.476,-6.969 3.979,0 7.223,3.079 7.476,6.969 L 15,-10 15,0 0,0 z"
             id="path42"
             style="fill:#d79e84;fill-opacity:1;fill-rule:nonzero;stroke:none" /></g><g
           transform="translate(33.6348,33.3271)"
           id="g44"><path
             d="m 0,0 c 0.25,0.412 0.365,0.673 0.365,0.673 l -12,-1 -0.577,-5.693 c 5.692,0 9.024,2.305 10.815,4.21 0.415,-1.474 1.563,-3.517 4.762,-3.517 l 0,6 L 0,0 z"
             id="path46"
             style="fill:#642116;fill-opacity:1;fill-rule:nonzero;stroke:none" /></g><g
           transform="translate(26.2695,19.231)"
           id="g48"><path
             d="M 0,0 3.23,0 6.461,0 C 6.461,0 5.653,-1.616 3.23,-1.616 0.808,-1.616 0,0 0,0"
             id="path50"
             style="fill:#da2f47;fill-opacity:1;fill-rule:nonzero;stroke:none" /></g><g
           transform="translate(30,21.5)"
           id="g52"><path
             d="M 0,0 -1,0 C -1.276,0 -1.5,0.224 -1.5,0.5 -1.5,0.776 -1.276,1 -1,1 L 0,1 C 0.276,1 0.5,0.776 0.5,0.5 0.5,0.224 0.276,0 0,0"
             id="path54"
             style="fill:#bf6952;fill-opacity:1;fill-rule:nonzero;stroke:none" /></g><g
           transform="translate(26,24)"
           id="g56"><path
             d="m 0,0 c -0.553,0 -1,0.448 -1,1 l 0,1 C -1,2.552 -0.553,3 0,3 0.553,3 1,2.552 1,2 L 1,1 C 1,0.448 0.553,0 0,0"
             id="path58"
             style="fill:#2a3033;fill-opacity:1;fill-rule:nonzero;stroke:none" /></g><g
           transform="translate(33,24)"
           id="g60"><path
             d="m 0,0 c -0.553,0 -1,0.448 -1,1 l 0,1 C -1,2.552 -0.553,3 0,3 0.553,3 1,2.552 1,2 L 1,1 C 1,0.448 0.553,0 0,0"
             id="path62"
             style="fill:#2a3033;fill-opacity:1;fill-rule:nonzero;stroke:none" /></g><g
           transform="translate(9.3335,37)"
           id="g64"><path
             d="m 0,0 c -1.338,0 -2.602,-0.305 -3.739,-0.836 -0.197,0.017 -0.394,0.03 -0.594,0.03 -3.944,0 -7.14,-3.195 -7.14,-7.139 0,-3.123 2.01,-5.772 4.805,-6.74 1.625,-1.858 4.006,-3.038 6.668,-3.038 4.894,0 8.861,3.968 8.861,8.862 C 8.861,-3.967 4.894,0 0,0"
             id="path66"
             style="fill:#292f33;fill-opacity:1;fill-rule:nonzero;stroke:none" /></g><g
           transform="translate(10.9448,15)"
           id="g68"><path
             d="m 0,0 0,4.277 -4.834,0 0,-4.277 -2.111,0 0,-6 9,0 0,6 L 0,0 z"
             id="path70"
             style="fill:#d79e84;fill-opacity:1;fill-rule:nonzero;stroke:none" /></g><g
           transform="translate(11,19)"
           id="g72"><path
             d="m 0,0 -5,0 0,-5.021 c 0,0 2.5,-0.766 5,0 L 0,0 z"
             id="path74"
             style="fill:#d79e84;fill-opacity:1;fill-rule:nonzero;stroke:none" /></g><g
           transform="translate(1,33)"
           id="g76"><path
             d="m 0,0 0,-10 0.024,0 c 0.253,-3.89 3.498,-6.969 7.476,-6.969 3.978,0 7.223,3.079 7.476,6.969 L 15,-10 15,0 0,0 z"
             id="path78"
             style="fill:#d79e84;fill-opacity:1;fill-rule:nonzero;stroke:none" /></g><g
           transform="translate(17,27)"
           id="g80"><path
             d="M 0,0 -1,6 -3.566,6 C -3.176,6.6 -3,7 -3,7 l -13,0 0,-7 C -9.93,0 -6.451,2.576 -4.644,4.603 -4.079,2.83 -2.747,0 0,0"
             id="path82"
             style="fill:#292f33;fill-opacity:1;fill-rule:nonzero;stroke:none" /></g><g
           transform="translate(16,15)"
           id="g84"><path
             d="M 0,0 -5,0 -7.472,-3.778 -10,0 -16,-0.062 c -1.779,0 -1.945,-1.131 -1.945,-2.911 l 0,-11.027 4.028,0 12.889,0 L 3,-14 3,-2.973 C 3,-1 2,0 0,0"
             id="path86"
             style="fill:#4289c1;fill-opacity:1;fill-rule:nonzero;stroke:none" /></g><path
           d="m 16,1 -1.028,0 0,10 L 16,11 16,1 z"
           id="path88"
           style="fill:#2a6797;fill-opacity:1;fill-rule:nonzero;stroke:none" /><g
           transform="translate(11.7495,19.2773)"
           id="g90"><path
             d="m 0,0 -3.222,0 -3.222,0 c 0,0 0.805,-1.61 3.222,-1.61 C -0.805,-1.61 0,0 0,0"
             id="path92"
             style="fill:#bf6952;fill-opacity:1;fill-rule:nonzero;stroke:none" /></g><g
           transform="translate(5,24)"
           id="g94"><path
             d="m 0,0 c -0.552,0 -1,0.448 -1,1 l 0,1 C -1,2.552 -0.552,3 0,3 0.552,3 1,2.552 1,2 L 1,1 C 1,0.448 0.552,0 0,0"
             id="path96"
             style="fill:#2a3033;fill-opacity:1;fill-rule:nonzero;stroke:none" /></g><g
           transform="translate(12,24)"
           id="g98"><path
             d="m 0,0 c -0.552,0 -1,0.448 -1,1 l 0,1 C -1,2.552 -0.552,3 0,3 0.552,3 1,2.552 1,2 L 1,1 C 1,0.448 0.552,0 0,0"
             id="path100"
             style="fill:#2a3033;fill-opacity:1;fill-rule:nonzero;stroke:none" /></g><g
           transform="translate(13,19)"
           id="g102"><path
             d="M 0,0 C 0,0 -0.841,1.662 -4.027,1.952 -4.011,1.98 -4,2 -4,2 -4.175,2 -4.336,1.992 -4.5,1.984 -4.664,1.992 -4.825,2 -5,2 -5,2 -4.989,1.98 -4.973,1.952 -8.159,1.662 -9,0 -9,0 -6.46,0 -5.133,0.805 -4.5,1.394 -3.867,0.805 -2.54,0 0,0"
             id="path104"
             style="fill:#292f33;fill-opacity:1;fill-rule:nonzero;stroke:none" /></g><g
           transform="translate(9,21.5)"
           id="g106"><path
             d="M 0,0 -1,0 C -1.276,0 -1.5,0.224 -1.5,0.5 -1.5,0.776 -1.276,1 -1,1 L 0,1 C 0.276,1 0.5,0.776 0.5,0.5 0.5,0.224 0.276,0 0,0"
             id="path108"
             style="fill:#bf6952;fill-opacity:1;fill-rule:nonzero;stroke:none" /></g></g></g><g
       id="g110"><g
         clip-path="url(#clipPath114)"
         id="g112"><g
           transform="translate(19.4727,22)"
           id="g118"><path
             d="m 0,0 c -1.245,0 -2.417,-0.297 -3.464,-0.812 -3.33,-0.07 -6.009,-2.787 -6.009,-6.133 0,-2.194 1.155,-4.114 2.886,-5.2 1.402,-2.152 3.826,-3.578 6.587,-3.578 4.342,0 7.861,3.52 7.861,7.862 C 7.861,-3.52 4.342,0 0,0"
             id="path120"
             style="fill:#bf6952;fill-opacity:1;fill-rule:nonzero;stroke:none" /></g><g
           transform="translate(21,2)"
           id="g122"><path
             d="m 0,0 0,4 -4,0 0,-4 -1,0 0,-1 6,0 0,1 -1,0 z"
             id="path124"
             style="fill:#d79e84;fill-opacity:1;fill-rule:nonzero;stroke:none" /></g><g
           transform="translate(21,6)"
           id="g126"><path
             d="m 0,0 -4,0 0,-3 c 0,0 2,-1 4,0 l 0,3 z"
             id="path128"
             style="fill:#d79e84;fill-opacity:1;fill-rule:nonzero;stroke:none" /></g><g
           transform="translate(26,17)"
           id="g130"><path
             d="M 0,0 -3.557,0 C -4.574,0.574 -5.749,0.906 -7.003,0.906 -8.257,0.906 -9.431,0.574 -10.449,0 L -14,0 l 0,-6 0.002,0 c 0,-0.016 -0.002,-0.031 -0.002,-0.047 0,-3.84 3.133,-6.953 6.997,-6.953 3.864,0 6.997,3.113 6.997,6.953 0,0.016 -0.002,0.031 -0.002,0.047 L 0,-6 0,0 z"
             id="path132"
             style="fill:#d79e84;fill-opacity:1;fill-rule:nonzero;stroke:none" /></g><g
           transform="translate(27,14)"
           id="g134"><path
             d="M 0,0 -1,4 -4.729,4.622 C -4.181,5.42 -4,6 -4,6 L -15,5 -15.861,0 c 5.41,0 8.425,1.755 10.065,3.367 C -4.56,1.908 -2.472,0 0,0"
             id="path136"
             style="fill:#bf6952;fill-opacity:1;fill-rule:nonzero;stroke:none" /></g><g
           transform="translate(24,3)"
           id="g138"><path
             d="m 0,0 -3,0 -2,-4 -2,4 -2,0 c -3,0 -5,-2 -5,-4 l 0,-1 2,0 14,0 2,0 0,1 C 4,-2.027 2,0 0,0"
             id="path140"
             style="fill:#e1e8ed;fill-opacity:1;fill-rule:nonzero;stroke:none" /></g><g
           transform="translate(22,7)"
           id="g142"><path
             d="m 0,0 -3,0 -3,0 c 0,0 0.583,-2 3,-2 2.417,0 3,2 3,2"
             id="path144"
             style="fill:#bf6952;fill-opacity:1;fill-rule:nonzero;stroke:none" /></g><g
           transform="translate(19,7.5)"
           id="g146"><path
             d="m 0,0 c -0.13,0 -0.26,0.05 -0.35,0.15 -0.1,0.09 -0.15,0.22 -0.15,0.35 0,0.13 0.05,0.26 0.15,0.36 C -0.18,1.03 0.17,1.04 0.36,0.851 0.45,0.76 0.5,0.63 0.5,0.5 0.5,0.37 0.45,0.24 0.35,0.15 0.26,0.05 0.13,0 0,0"
             id="path148"
             style="fill:#bf6952;fill-opacity:1;fill-rule:nonzero;stroke:none" /></g><g
           transform="translate(16,9)"
           id="g150"><path
             d="m 0,0 c -0.552,0 -1,0.447 -1,1 l 0,1 C -1,2.553 -0.552,3 0,3 0.552,3 1,2.553 1,2 L 1,1 C 1,0.447 0.552,0 0,0"
             id="path152"
             style="fill:#2a3033;fill-opacity:1;fill-rule:nonzero;stroke:none" /></g><g
           transform="translate(22,9)"
           id="g154"><path
             d="m 0,0 c -0.553,0 -1,0.447 -1,1 l 0,1 C -1,2.553 -0.553,3 0,3 0.553,3 1,2.553 1,2 L 1,1 C 1,0.447 0.553,0 0,0"
             id="path156"
             style="fill:#000000;fill-opacity:1;fill-rule:nonzero;stroke:none" /></g></g></g></g></svg>