<?xml version="1.0" encoding="UTF-8" standalone="no"?>
<!-- Created with Inkscape (http://www.inkscape.org/) -->

<svg
   xmlns:svg="http://www.w3.org/2000/svg"
   xmlns="http://www.w3.org/2000/svg"
   version="1.1"
   width="47.5"
   height="47.5"
   id="svg2"
   xml:space="preserve"><defs
     id="defs6"><clipPath
       id="clipPath22"><path
         d="M 0,38 38,38 38,0 0,0 0,38 z"
         id="path24" /></clipPath></defs><g
     transform="matrix(1.25,0,0,-1.25,0,47.5)"
     id="g12"><g
       transform="translate(12,14)"
       id="g14"><path
         d="m 0,0 -2,0 -3,0 0,-12 3,0 0,8 2,0 0,-8 3,0 0,12 -3,0 z"
         id="path16"
         style="fill:#664500;fill-opacity:1;fill-rule:nonzero;stroke:none" /></g><g
       id="g18"><g
         clip-path="url(#clipPath22)"
         id="g20"><g
           transform="translate(6,1)"
           id="g26"><path
             d="M 0,0 0,1 C 0,1 0,2 2,2 4,2 4,1 4,1 L 4,0 0,0 z"
             id="path28"
             style="fill:#292f33;fill-opacity:1;fill-rule:nonzero;stroke:none" /></g><g
           transform="translate(12,1)"
           id="g30"><path
             d="M 0,0 0,1 C 0,1 0,2 2,2 4,2 4,1 4,1 L 4,0 0,0 z"
             id="path32"
             style="fill:#292f33;fill-opacity:1;fill-rule:nonzero;stroke:none" /></g><g
           transform="translate(11.5,37)"
           id="g34"><path
             d="M 0,0 C -1.187,0 -2.282,-0.379 -3.181,-1.018 -5.027,-1.114 -6.5,-2.629 -6.5,-4.5 c 0,-1.542 0.007,-3.484 2.038,-4.208 C -3.464,-10.094 -1.839,-11 0,-11 3.037,-11 5.5,-8.538 5.5,-5.501 5.5,-2.463 3.037,0 0,0"
             id="path36"
             style="fill:#292f33;fill-opacity:1;fill-rule:nonzero;stroke:none" /></g><g
           transform="translate(1.999,11)"
           id="g38"><path
             d="m 0,0 c -0.164,0 -0.331,0.04 -0.485,0.126 -0.482,0.269 -0.657,0.877 -0.388,1.359 l 5,9.001 c 0.268,0.482 0.876,0.657 1.36,0.388 0.482,-0.268 0.657,-0.877 0.388,-1.36 l -5,-8.999 C 0.692,0.186 0.352,0 0,0"
             id="path40"
             style="fill:#d79e84;fill-opacity:1;fill-rule:nonzero;stroke:none" /></g><g
           transform="translate(20.001,11)"
           id="g42"><path
             d="m 0,0 c -0.352,0 -0.692,0.186 -0.875,0.515 l -5,8.999 c -0.269,0.483 -0.094,1.092 0.388,1.36 0.484,0.269 1.092,0.094 1.36,-0.388 l 5,-9.001 C 1.142,1.003 0.968,0.395 0.484,0.126 0.331,0.04 0.164,0 0,0"
             id="path44"
             style="fill:#d79e84;fill-opacity:1;fill-rule:nonzero;stroke:none" /></g><g
           transform="translate(17,21)"
           id="g46"><path
             d="m 0,0 c 0,1.104 -0.896,2 -2,2 l -2,0 -4,0 -2,0 c -1.104,0 -2,-0.896 -2,-2 l 0,-1 2,0 0,-7 8,0 0,7 2,0 0,1 z"
             id="path48"
             style="fill:#4289c1;fill-opacity:1;fill-rule:nonzero;stroke:none" /></g><g
           transform="translate(9,26)"
           id="g50"><path
             d="m 0,0 0,-4 c 0,-1.104 0.896,-2 2,-2 1.104,0 2,0.896 2,2 L 4,0 0,0 z"
             id="path52"
             style="fill:#d79e84;fill-opacity:1;fill-rule:nonzero;stroke:none" /></g><g
           transform="translate(13,26)"
           id="g54"><path
             d="M 0,0 -4,-0.019 -4,-4 c 0,0 2,-1 4,0 l 0,4 z"
             id="path56"
             style="fill:#bf6952;fill-opacity:1;fill-rule:nonzero;stroke:none" /></g><g
           transform="translate(16,34)"
           id="g58"><path
             d="m 0,0 -10,0 0,-6 0,0 c 0,-2.763 2.238,-5 5,-5 2.762,0 5,2.237 5,5 l 0,0 0,6 z"
             id="path60"
             style="fill:#d79e84;fill-opacity:1;fill-rule:nonzero;stroke:none" /></g><g
           transform="translate(9,34)"
           id="g62"><path
             d="m 0,0 -3,0 0,-4 c 2.333,0 2.85,2.412 2.965,3.488 C 0.004,-1.588 0.779,-4 7,-4 L 7,0 0,0 z"
             id="path64"
             style="fill:#292f33;fill-opacity:1;fill-rule:nonzero;stroke:none" /></g><g
           transform="translate(13,25)"
           id="g66"><path
             d="m 0,0 -2,0 -2,0 c 0,0 0,-1 2,-1 2,0 2,1 2,1"
             id="path68"
             style="fill:#c1694f;fill-opacity:1;fill-rule:nonzero;stroke:none" /></g><g
           transform="translate(9,28.5)"
           id="g70"><path
             d="M 0,0 C 0,-0.276 -0.224,-0.5 -0.5,-0.5 -0.776,-0.5 -1,-0.276 -1,0 -1,0.276 -0.776,0.5 -0.5,0.5 -0.224,0.5 0,0.276 0,0"
             id="path72"
             style="fill:#664500;fill-opacity:1;fill-rule:nonzero;stroke:none" /></g><g
           transform="translate(14,28.5)"
           id="g74"><path
             d="M 0,0 C 0,-0.276 -0.224,-0.5 -0.5,-0.5 -0.776,-0.5 -1,-0.276 -1,0 -1,0.276 -0.776,0.5 -0.5,0.5 -0.224,0.5 0,0.276 0,0"
             id="path76"
             style="fill:#664500;fill-opacity:1;fill-rule:nonzero;stroke:none" /></g><g
           transform="translate(10,27)"
           id="g78"><path
             d="M 0,0 1,0 2,0 C 2,0 2,-1 1,-1 0,-1 0,0 0,0"
             id="path80"
             style="fill:#c1694f;fill-opacity:1;fill-rule:nonzero;stroke:none" /></g><g
           transform="translate(28,14)"
           id="g82"><path
             d="m 0,0 -2,0 -3,0 0,-12 3,0 0,8 2,0 0,-8 3,0 0,12 -3,0 z"
             id="path84"
             style="fill:#67757f;fill-opacity:1;fill-rule:nonzero;stroke:none" /></g><g
           transform="translate(22,1)"
           id="g86"><path
             d="M 0,0 0,1 C 0,1 0,2 2,2 4,2 4,1 4,1 L 4,0 0,0 z"
             id="path88"
             style="fill:#292f33;fill-opacity:1;fill-rule:nonzero;stroke:none" /></g><g
           transform="translate(28,1)"
           id="g90"><path
             d="M 0,0 0,1 C 0,1 0,2 2,2 4,2 4,1 4,1 L 4,0 0,0 z"
             id="path92"
             style="fill:#292f33;fill-opacity:1;fill-rule:nonzero;stroke:none" /></g><g
           transform="translate(33,32.5)"
           id="g94"><path
             d="M 0,0 C 0,1.871 -1.473,3.386 -3.319,3.482 -4.218,4.121 -5.313,4.5 -6.5,4.5 -9.537,4.5 -12,2.037 -12,-1.001 c 0,-3.037 2.463,-5.499 5.5,-5.499 1.84,0 3.464,0.906 4.462,2.292 C -0.007,-3.484 0,-1.542 0,0"
             id="path96"
             style="fill:#642116;fill-opacity:1;fill-rule:nonzero;stroke:none" /></g><g
           transform="translate(17.999,11)"
           id="g98"><path
             d="m 0,0 c -0.164,0 -0.331,0.04 -0.485,0.126 -0.482,0.269 -0.657,0.877 -0.388,1.359 l 5,9.001 c 0.268,0.482 0.878,0.657 1.359,0.388 0.484,-0.268 0.658,-0.877 0.389,-1.36 l -5,-8.999 C 0.692,0.186 0.352,0 0,0"
             id="path100"
             style="fill:#d79e84;fill-opacity:1;fill-rule:nonzero;stroke:none" /></g><g
           transform="translate(36.001,11)"
           id="g102"><path
             d="m 0,0 c -0.352,0 -0.692,0.186 -0.875,0.515 l -5,8.999 c -0.269,0.483 -0.095,1.092 0.389,1.36 0.482,0.269 1.091,0.094 1.359,-0.388 l 5,-9.001 C 1.142,1.003 0.968,0.395 0.484,0.126 0.331,0.04 0.164,0 0,0"
             id="path104"
             style="fill:#d79e84;fill-opacity:1;fill-rule:nonzero;stroke:none" /></g><g
           transform="translate(33,21)"
           id="g106"><path
             d="m 0,0 c 0,1.104 -0.896,2 -2,2 l -2,0 -4,0 -2,0 c -1.104,0 -2,-0.896 -2,-2 l 0,-1 2,0 0,-7 8,0 0,7 2,0 0,1 z"
             id="path108"
             style="fill:#fdcb58;fill-opacity:1;fill-rule:nonzero;stroke:none" /></g><g
           transform="translate(25,26)"
           id="g110"><path
             d="m 0,0 0,-4 c 0,-1.104 0.896,-2 2,-2 1.104,0 2,0.896 2,2 L 4,0 0,0 z"
             id="path112"
             style="fill:#d79e84;fill-opacity:1;fill-rule:nonzero;stroke:none" /></g><g
           transform="translate(29,26)"
           id="g114"><path
             d="M 0,0 -4,-0.019 -4,-4 c 0,0 2,-1 4,0 l 0,4 z"
             id="path116"
             style="fill:#bf6952;fill-opacity:1;fill-rule:nonzero;stroke:none" /></g><g
           transform="translate(32,34)"
           id="g118"><path
             d="m 0,0 -10,0 0,-6 0,0 c 0,-2.763 2.238,-5 5,-5 2.762,0 5,2.237 5,5 l 0,0 0,6 z"
             id="path120"
             style="fill:#d79e84;fill-opacity:1;fill-rule:nonzero;stroke:none" /></g><g
           transform="translate(29,34)"
           id="g122"><path
             d="m 0,0 -7,0 0,-4 c 6.221,0 6.996,2.412 7.035,3.488 C 0.15,-1.588 0.667,-4 3,-4 L 3,0 0,0 z"
             id="path124"
             style="fill:#642116;fill-opacity:1;fill-rule:nonzero;stroke:none" /></g><g
           transform="translate(29,25)"
           id="g126"><path
             d="m 0,0 -2,0 -2,0 c 0,0 0,-1 2,-1 2,0 2,1 2,1"
             id="path128"
             style="fill:#c1694f;fill-opacity:1;fill-rule:nonzero;stroke:none" /></g><g
           transform="translate(25,28.5)"
           id="g130"><path
             d="M 0,0 C 0,-0.276 -0.224,-0.5 -0.5,-0.5 -0.776,-0.5 -1,-0.276 -1,0 -1,0.276 -0.776,0.5 -0.5,0.5 -0.224,0.5 0,0.276 0,0"
             id="path132"
             style="fill:#664500;fill-opacity:1;fill-rule:nonzero;stroke:none" /></g><g
           transform="translate(30,28.5)"
           id="g134"><path
             d="M 0,0 C 0,-0.276 -0.224,-0.5 -0.5,-0.5 -0.776,-0.5 -1,-0.276 -1,0 -1,0.276 -0.776,0.5 -0.5,0.5 -0.224,0.5 0,0.276 0,0"
             id="path136"
             style="fill:#664500;fill-opacity:1;fill-rule:nonzero;stroke:none" /></g><g
           transform="translate(26,27)"
           id="g138"><path
             d="M 0,0 1,0 2,0 C 2,0 2,-1 1,-1 0,-1 0,0 0,0"
             id="path140"
             style="fill:#c1694f;fill-opacity:1;fill-rule:nonzero;stroke:none" /></g></g></g></g></svg>