<?xml version="1.0" encoding="UTF-8" standalone="no"?><svg xmlns:svg="http://www.w3.org/2000/svg" xmlns="http://www.w3.org/2000/svg" version="1.1" viewBox="0 0 47.5 47.5" style="enable-background:new 0 0 47.5 47.5;" id="svg2" xml:space="preserve"><defs id="defs6"><clipPath id="clipPath18"><path d="M 0,38 38,38 38,0 0,0 0,38 z" id="path20"/></clipPath></defs><g transform="matrix(1.25,0,0,-1.25,0,47.5)" id="g12"><g id="g14"><g clip-path="url(#clipPath18)" id="g16"><g transform="translate(35,27)" id="g22"><path d="m 0,0 c 0,-5.523 -7.163,-10 -16,-10 -8.836,0 -16,4.477 -16,10 0,5.523 7.164,10 16,10 C -7.163,10 0,5.523 0,0" id="path24" style="fill:#2a6797;fill-opacity:1;fill-rule:nonzero;stroke:none"/></g><g transform="translate(31,22)" id="g26"><path d="m 0,0 0,4 -24,0 0,-4 c -1.657,0 -3,-1.791 -3,-4 0,-2.209 1.343,-4 3,-4 0,-6.629 5.373,-12 12,-12 6.628,0 12,5.371 12,12 1.656,0 3,1.791 3,4 0,2.209 -1.344,4 -3,4" id="path28" style="fill:#c28b6e;fill-opacity:1;fill-rule:nonzero;stroke:none"/></g><g transform="translate(25.4404,8.2363)" id="g30"><path d="m 0,0 c -0.087,0.162 -0.256,0.264 -0.44,0.264 l -12,0 c -0.185,0 -0.354,-0.102 -0.441,-0.264 -0.087,-0.163 -0.077,-0.36 0.025,-0.514 0.087,-0.132 2.196,-3.222 6.416,-3.222 4.218,0 6.328,3.09 6.416,3.222 C 0.078,-0.36 0.088,-0.163 0,0" id="path32" style="fill:#805723;fill-opacity:1;fill-rule:nonzero;stroke:none"/></g><g transform="translate(16,13)" id="g34"><path d="M 0,0 C 0,0 1,-2 3,-2 5,-2 6,0 6,0 6,0 6,-3 3,-3 0,-3 0,0 0,0" id="path36" style="fill:#664500;fill-opacity:1;fill-rule:nonzero;stroke:none"/></g><g transform="translate(28,16)" id="g38"><path d="M 0,0 C 0,-1.104 -1.567,-2 -3.5,-2 -5.433,-2 -7,-1.104 -7,0 -7,1.104 -5.433,2 -3.5,2 -1.567,2 0,1.104 0,0" id="path40" style="fill:#f5f8fa;fill-opacity:1;fill-rule:nonzero;stroke:none"/></g><g transform="translate(17,16)" id="g42"><path d="M 0,0 C 0,-1.104 -1.567,-2 -3.5,-2 -5.433,-2 -7,-1.104 -7,0 -7,1.104 -5.433,2 -3.5,2 -1.567,2 0,1.104 0,0" id="path44" style="fill:#f5f8fa;fill-opacity:1;fill-rule:nonzero;stroke:none"/></g><g transform="translate(26,16.5)" id="g46"><path d="M 0,0 C 0,-0.828 -0.672,-1.5 -1.5,-1.5 -2.328,-1.5 -3,-0.828 -3,0 -3,0.828 -2.328,1.5 -1.5,1.5 -0.672,1.5 0,0.828 0,0" id="path48" style="fill:#292f33;fill-opacity:1;fill-rule:nonzero;stroke:none"/></g><g transform="translate(15,16.5)" id="g50"><path d="M 0,0 C 0,-0.828 -0.672,-1.5 -1.5,-1.5 -2.328,-1.5 -3,-0.828 -3,0 -3,0.828 -2.328,1.5 -1.5,1.5 -0.672,1.5 0,0.828 0,0" id="path52" style="fill:#292f33;fill-opacity:1;fill-rule:nonzero;stroke:none"/></g><g transform="translate(31,25)" id="g54"><path d="m 0,0 -24,0 0,4 c 0,0 5,3 12,3 C -5,7 0,4 0,4 L 0,0 z" id="path56" style="fill:#4289c1;fill-opacity:1;fill-rule:nonzero;stroke:none"/></g><g transform="translate(31,25)" id="g58"><path d="M 0,0 C 0,0 -5,1 -12,1 -19,1 -24,0 -24,0 l 0,-7 c 0,0 1.336,3.341 1.824,5.654 C -20.275,-2.508 -16.888,-4 -12,-4 c 4.889,0 8.275,1.492 10.177,2.654 C -1.336,-3.659 0,-7 0,-7 l 0,7 z" id="path60" style="fill:#292f33;fill-opacity:1;fill-rule:nonzero;stroke:none"/></g><g transform="translate(22,35)" id="g62"><path d="m 0,0 c -0.001,0 -0.002,0 -0.003,0 l 0,0 -0.001,-0.001 C -0.315,-0.002 -0.581,-0.153 -0.764,-0.377 -1.14,-0.469 -1.653,-0.489 -2.308,-0.283 -2.488,-0.109 -2.73,0 -3,0 -3.27,0 -3.512,-0.109 -3.692,-0.283 -4.347,-0.489 -4.861,-0.469 -5.236,-0.377 -5.419,-0.153 -5.686,-0.001 -5.997,0 l -0.001,0 c 0,0 0,0 0,0 0,0 -10e-4,0 -0.002,0 -0.552,0 -1,-0.448 -1,-1 0,-0.552 0.448,-1 1,-1 0.001,0 0.001,0 0.001,0 l 10e-4,0 c 0,-4 1.998,-5 2.998,-5 1,0 2.997,1 2.997,5 l 0,0 c 0.001,0 0.002,0 0.003,0 0.553,0 1,0.448 1,1 0,0.552 -0.447,1 -1,1" id="path64" style="fill:#fdcb58;fill-opacity:1;fill-rule:nonzero;stroke:none"/></g><g transform="translate(22,7)" id="g66"><path d="M 0,0 -6,0 C -6.276,0 -6.5,0.224 -6.5,0.5 -6.5,0.776 -6.276,1 -6,1 L 0,1 C 0.276,1 0.5,0.776 0.5,0.5 0.5,0.224 0.276,0 0,0" id="path68" style="fill:#ffffff;fill-opacity:1;fill-rule:nonzero;stroke:none"/></g></g></g></g></svg>
