<svg xmlns="http://www.w3.org/2000/svg" viewBox="0 0 47.5 47.5" enable-background="new 0 0 47.5 47.5"><defs><clipPath id="a"><path d="M1 1h36v36H1V1z"/></clipPath><clipPath id="b"><path d="M0 1h36v36H0V1z"/></clipPath></defs><g><g><g clip-path="url(#a)" transform="matrix(1.25 0 0 -1.25 0 47.5)"><g><path fill="#642116" d="M33.54 36.2c-.33 0-.66-.04-.98-.1-1.17.57-2.48.9-3.87.9-4.9 0-8.9-3.98-8.9-8.88v-7.27h.02c.15-5.23 4.42-9.42 9.68-9.42s9.53 4.2 9.68 9.42v9.7c0 3.1-2.52 5.64-5.64 5.64"/></g><g><path fill="#9268ca" d="M22.23 15.2H36.76c1.8 0 3.24-1.45 3.24-3.24V1H19v10.96c0 1.8 1.45 3.23 3.23 3.23"/></g><path fill="#7450a8" d="M22 1h1v10h-1V1z"/><g><path fill="#d79e84" d="M27.08 14.38c0-1.33 1.08-2.42 2.42-2.42 1.34 0 2.42 1.1 2.42 2.42 0 1.34-1.08 2.43-2.42 2.43-1.34 0-2.42-1.08-2.42-2.42"/></g><g><path fill="#d79e84" d="M27.08 19.23h4.84v-5.3s-2.42-.8-4.84 0v5.3z"/></g><g><path fill="#d79e84" d="M22 33V23h.02c.26-3.9 3.5-6.97 7.48-6.97 3.98 0 7.22 3.08 7.48 6.97H37v10H22z"/></g><g><path fill="#642116" d="M33.63 33.33c.25.4.37.67.37.67l-12-1-.58-5.7c5.7 0 9.03 2.3 10.82 4.22C32.64 30.04 33.8 28 37 28v6l-3.37-.67z"/></g><g><path fill="#da2f47" d="M26.27 19.23h6.46s-.8-1.6-3.23-1.6c-2.42 0-3.23 1.6-3.23 1.6"/></g><g><path fill="#bf6952" d="M30 21.5h-1c-.28 0-.5.22-.5.5s.22.5.5.5h1c.28 0 .5-.22.5-.5s-.22-.5-.5-.5"/></g><g><path fill="#2a3033" d="M26 24c-.55 0-1 .45-1 1v1c0 .55.45 1 1 1s1-.45 1-1v-1c0-.55-.45-1-1-1"/></g><g><path fill="#2a3033" d="M33 24c-.55 0-1 .45-1 1v1c0 .55.45 1 1 1s1-.45 1-1v-1c0-.55-.45-1-1-1"/></g><g><path fill="#292f33" d="M9.33 37c-1.33 0-2.6-.3-3.74-.84-.2.02-.4.03-.6.03-3.94 0-7.14-3.2-7.14-7.15 0-3.12 2-5.77 4.8-6.73 1.63-1.86 4-3.04 6.67-3.04 4.9 0 8.86 3.97 8.86 8.86 0 4.9-3.97 8.86-8.87 8.86"/></g><g><path fill="#d79e84" d="M10.94 15v4.28H6.1V15H4V9h9v6h-2.06z"/></g><g><path fill="#d79e84" d="M11 19H6v-5.02s2.5-.77 5 0V19z"/></g><g><path fill="#d79e84" d="M1 33V23h.02c.26-3.9 3.5-6.97 7.48-6.97 3.98 0 7.22 3.08 7.48 6.97H16v10H1z"/></g><g><path fill="#292f33" d="M17 27l-1 6h-2.57c.4.6.57 1 .57 1H1v-7c6.07 0 9.55 2.58 11.36 4.6.56-1.77 1.9-4.6 4.64-4.6"/></g><g><path fill="#4289c1" d="M16 15h-5l-2.47-3.78L6 15l-6-.06c-1.78 0-1.95-1.13-1.95-2.9V1H19v11.03C19 14 18 15 16 15"/></g><path fill="#2a6797" d="M16 1h-1.03v10H16V1z"/><g><path fill="#bf6952" d="M11.75 19.28H5.3s.8-1.6 3.23-1.6c2.4 0 3.22 1.6 3.22 1.6"/></g><g><path fill="#2a3033" d="M5 24c-.55 0-1 .45-1 1v1c0 .55.45 1 1 1s1-.45 1-1v-1c0-.55-.45-1-1-1"/></g><g><path fill="#2a3033" d="M12 24c-.55 0-1 .45-1 1v1c0 .55.45 1 1 1s1-.45 1-1v-1c0-.55-.45-1-1-1"/></g><g><path fill="#292f33" d="M13 19s-.84 1.66-4.03 1.95C9 20.98 9 21 9 21c-.17 0-.34 0-.5-.02-.16 0-.33.02-.5.02 0 0 0-.02.03-.05C4.83 20.65 4 19 4 19c2.54 0 3.87.8 4.5 1.4.63-.6 1.96-1.4 4.5-1.4"/></g><g><path fill="#bf6952" d="M9 21.5H8c-.28 0-.5.22-.5.5s.22.5.5.5h1c.28 0 .5-.22.5-.5s-.22-.5-.5-.5"/></g></g></g><g><g clip-path="url(#b)" transform="matrix(1.25 0 0 -1.25 0 47.5)"><g><path fill="#bf6952" d="M19.47 22c-1.24 0-2.4-.3-3.46-.8-3.32-.08-6-2.8-6-6.15 0-2.2 1.15-4.1 2.9-5.2 1.4-2.15 3.8-3.57 6.57-3.57 4.34 0 7.86 3.52 7.86 7.86S23.8 22 19.47 22"/></g><g><path fill="#d79e84" d="M21 2v4h-4V2h-1V1h6v1h-1z"/></g><g><path fill="#d79e84" d="M21 6h-4V3s2-1 4 0v3z"/></g><g><path fill="#d79e84" d="M26 17h-3.56c-1 .57-2.2.9-3.44.9-1.26 0-2.43-.33-3.45-.9H12v-6c0-.02 0-.03 0-.05C12 7.1 15.13 4 19 4c3.86 0 7 3.1 7 6.95 0 .02 0 .03 0 .05v6z"/></g><g><path fill="#bf6952" d="M27 14l-1 4-3.73.62c.55.8.73 1.38.73 1.38l-11-1-.86-5c5.4 0 8.42 1.75 10.06 3.37C22.44 15.9 24.53 14 27 14"/></g><g><path fill="#e1e8ed" d="M24 3h-3l-2-4-2 4h-2c-3 0-5-2-5-4v-1h18v1c0 1.97-2 4-4 4"/></g><g><path fill="#bf6952" d="M22 7h-6s.58-2 3-2 3 2 3 2"/></g><g><path fill="#bf6952" d="M19 7.5c-.13 0-.26.05-.35.15-.1.1-.15.22-.15.35 0 .13.05.26.15.36.17.17.52.18.7 0 .1-.1.15-.23.15-.36 0-.13-.05-.26-.15-.35-.1-.1-.22-.15-.35-.15"/></g><g><path fill="#2a3033" d="M16 9c-.55 0-1 .45-1 1v1c0 .55.45 1 1 1s1-.45 1-1v-1c0-.55-.45-1-1-1"/></g><g><path d="M22 9c-.55 0-1 .45-1 1v1c0 .55.45 1 1 1s1-.45 1-1v-1c0-.55-.45-1-1-1"/></g></g></g></g></svg>