<?xml version="1.0" encoding="UTF-8" standalone="no"?><svg xmlns:dc="http://purl.org/dc/elements/1.1/" xmlns:cc="http://creativecommons.org/ns#" xmlns:rdf="http://www.w3.org/1999/02/22-rdf-syntax-ns#" xmlns:svg="http://www.w3.org/2000/svg" xmlns="http://www.w3.org/2000/svg" viewBox="0 0 47.5 47.5" style="enable-background:new 0 0 47.5 47.5;" xml:space="preserve" version="1.1" id="svg2"><metadata id="metadata8"><rdf:RDF><cc:Work rdf:about=""><dc:format>image/svg+xml</dc:format><dc:type rdf:resource="http://purl.org/dc/dcmitype/StillImage"/></cc:Work></rdf:RDF></metadata><defs id="defs6"><clipPath id="clipPath20" clipPathUnits="userSpaceOnUse"><path id="path22" d="M 0,38 38,38 38,0 0,0 0,38 Z"/></clipPath></defs><g transform="matrix(1.25,0,0,-1.25,0,47.5)" id="g10"><g transform="translate(8,2)" id="g12"><path id="path14" style="fill:#d79e84;fill-opacity:1;fill-rule:nonzero;stroke:none" d="m 0,0 -3,0 1,9.712 3,0 L 0,0 Z"/></g><g id="g16"><g clip-path="url(#clipPath20)" id="g18"><g transform="translate(13.8755,3.208)" id="g24"><path id="path26" style="fill:#d79e84;fill-opacity:1;fill-rule:nonzero;stroke:none" d="m 0,0 -1.833,1.333 c 0,0 3.166,3.012 2.531,3.994 -0.636,0.982 -3.782,1.688 -3.782,1.688 l 1.918,2.306 c 0,0 3.958,-1.904 4.77,-3.333 C 4.43,4.537 0,0 0,0"/></g><g transform="translate(4,1)" id="g28"><path id="path30" style="fill:#292f33;fill-opacity:1;fill-rule:nonzero;stroke:none" d="M 0,0 0,1 C 0,1 0,2 2,2 4,2 4,1 4,1 L 4,0 0,0 Z"/></g><g transform="translate(14.5532,1.5166)" id="g32"><path id="path34" style="fill:#292f33;fill-opacity:1;fill-rule:nonzero;stroke:none" d="m 0,0 0.421,0.908 c 0,0 0.419,0.907 -1.396,1.747 C -2.788,3.496 -3.208,2.589 -3.208,2.589 L -3.628,1.682 0,0 Z"/></g><g transform="translate(5,10.7119)" id="g36"><path id="path38" style="fill:#d79e84;fill-opacity:1;fill-rule:nonzero;stroke:none" d="m 0,0 c -0.256,0 -0.512,0.098 -0.707,0.293 l -3,3 c -0.36,0.36 -0.392,0.934 -0.074,1.332 l 4,3.288 C 0.564,8.345 1.194,8.414 1.625,8.069 2.056,7.724 2.126,7.095 1.781,6.663 L -1.66,4.074 0.707,1.707 C 1.098,1.316 1.098,0.684 0.707,0.293 0.512,0.098 0.256,0 0,0"/></g><g transform="translate(15,10.7119)" id="g40"><path id="path42" style="fill:#d79e84;fill-opacity:1;fill-rule:nonzero;stroke:none" d="m 0,0 c -0.256,0 -0.512,0.098 -0.707,0.293 -0.391,0.391 -0.391,1.023 0,1.414 L 1.66,4.074 -1.781,6.663 c -0.345,0.432 -0.275,1.061 0.156,1.406 0.431,0.345 1.061,0.276 1.406,-0.156 l 4,-3.288 C 4.1,4.227 4.067,3.653 3.707,3.293 l -3,-3 C 0.512,0.098 0.256,0 0,0"/></g><g transform="translate(16,18)" id="g44"><path id="path46" style="fill:#292f33;fill-opacity:1;fill-rule:nonzero;stroke:none" d="m 0,0 c 0,1.104 -0.896,2 -2,2 l -2,0 -4,0 -2,0 c -1.104,0 -2,-0.896 -2,-2 l 0,-1 2,0 0,-1.288 0,-1 0,-3 3,-2 2,0 3,2 0,3 0,1 0,1.288 2,0 0,1 z"/></g><g transform="translate(17,27.999)" id="g48"><path id="path50" style="fill:#ffd983;fill-opacity:1;fill-rule:nonzero;stroke:none" d="m 0,0 c 0,3.314 -2.687,6.001 -6,6.001 -1.264,0 -2.435,-0.393 -3.402,-1.061 -0.197,0.03 -0.393,0.061 -0.598,0.061 -2.209,0 -4,-1.791 -4,-4 l 0,-6 4.686,0 c 0.949,-0.631 2.088,-1 3.314,-1 1.226,0 2.364,0.369 3.314,1 L 0,-4.999 0,0 Z"/></g><g transform="translate(12,20)" id="g52"><path id="path54" style="fill:#d79e84;fill-opacity:1;fill-rule:nonzero;stroke:none" d="m 0,0 0,3 -4,0 0,-3 -1,0 0,-1 c 0,0 0,-3 3,-3 3,0 3,3 3,3 L 1,0 0,0 Z"/></g><g transform="translate(12,23)" id="g56"><path id="path58" style="fill:#bf6952;fill-opacity:1;fill-rule:nonzero;stroke:none" d="M 0,0 -4,-0.019 -4,-4 c 0,0 2,-1 4,0 l 0,4 z"/></g><g transform="translate(15,31)" id="g60"><path id="path62" style="fill:#d79e84;fill-opacity:1;fill-rule:nonzero;stroke:none" d="m 0,0 -10,0 0,-6 0,0 c 0,-2.763 2.238,-5 5,-5 2.761,0 5,2.237 5,5 l 0,0 0,6 z"/></g><g transform="translate(8,31)" id="g64"><path id="path66" style="fill:#ffd983;fill-opacity:1;fill-rule:nonzero;stroke:none" d="M 0,0 C 0,0 0,-4 8,-4 L 8,0 0,0 Z"/></g><g transform="translate(8,31)" id="g68"><path id="path70" style="fill:#ffd983;fill-opacity:1;fill-rule:nonzero;stroke:none" d="m 0,0 c 0,0 0,-4 -4,-4 l 0,4 4,0 z"/></g><g transform="translate(12,22)" id="g72"><path id="path74" style="fill:#c1694f;fill-opacity:1;fill-rule:nonzero;stroke:none" d="m 0,0 -2,0 -2,0 c 0,0 0,-1 2,-1 2,0 2,1 2,1"/></g><g transform="translate(8,25.5)" id="g76"><path id="path78" style="fill:#664500;fill-opacity:1;fill-rule:nonzero;stroke:none" d="M 0,0 C 0,-0.276 -0.224,-0.5 -0.5,-0.5 -0.776,-0.5 -1,-0.276 -1,0 -1,0.276 -0.776,0.5 -0.5,0.5 -0.224,0.5 0,0.276 0,0"/></g><g transform="translate(13,25.5)" id="g80"><path id="path82" style="fill:#664500;fill-opacity:1;fill-rule:nonzero;stroke:none" d="M 0,0 C 0,-0.276 -0.224,-0.5 -0.5,-0.5 -0.776,-0.5 -1,-0.276 -1,0 -1,0.276 -0.776,0.5 -0.5,0.5 -0.224,0.5 0,0.276 0,0"/></g><g transform="translate(9,24)" id="g84"><path id="path86" style="fill:#c1694f;fill-opacity:1;fill-rule:nonzero;stroke:none" d="M 0,0 1,0 2,0 C 2,0 2,-1 1,-1 0,-1 0,0 0,0"/></g><g transform="translate(4.6875,35.875)" id="g88"><path id="path90" style="fill:#292f33;fill-opacity:1;fill-rule:nonzero;stroke:none" d="M 0,0 C 2.625,0.219 3.75,-2.875 3,-4.25 1.031,-4.25 -0.937,-2.438 0,0"/></g><g transform="translate(14.6748,35.8125)" id="g92"><path id="path94" style="fill:#292f33;fill-opacity:1;fill-rule:nonzero;stroke:none" d="m 0,0 c -2.625,0.219 -3.75,-2.875 -3,-4.25 1.969,0 3.937,1.812 3,4.25"/></g><g transform="translate(7.3125,32.75)" id="g96"><path id="path98" style="fill:#292f33;fill-opacity:1;fill-rule:nonzero;stroke:none" d="M 0,0 C 1.812,1.437 4.344,1.062 5.156,-0.156 5.187,-0.469 4.786,-1.334 4.469,-1.187 3.656,-0.812 2.281,-0.25 0.406,-1.125 0.312,-1.062 -0.035,-0.027 0,0"/></g><g transform="translate(24,2)" id="g100"><path id="path102" style="fill:#d79e84;fill-opacity:1;fill-rule:nonzero;stroke:none" d="m 0,0 -3,0 1,9.712 3,0 L 0,0 Z"/></g><g transform="translate(29.875,3.208)" id="g104"><path id="path106" style="fill:#d79e84;fill-opacity:1;fill-rule:nonzero;stroke:none" d="m 0,0 -1.833,1.333 c 0,0 3.167,3.012 2.531,3.994 -0.636,0.982 -3.782,1.688 -3.782,1.688 l 1.918,2.306 c 0,0 3.958,-1.904 4.77,-3.333 C 4.43,4.537 0,0 0,0"/></g><g transform="translate(30.5527,1.5166)" id="g108"><path id="path110" style="fill:#292f33;fill-opacity:1;fill-rule:nonzero;stroke:none" d="m 0,0 0.422,0.908 c 0,0 0.418,0.907 -1.397,1.747 C -2.787,3.496 -3.207,2.589 -3.207,2.589 L -3.627,1.682 0,0 Z"/></g><g transform="translate(20,1)" id="g112"><path id="path114" style="fill:#292f33;fill-opacity:1;fill-rule:nonzero;stroke:none" d="M 0,0 0,1 C 0,1 0,2 2,2 4,2 4,1 4,1 L 4,0 0,0 Z"/></g><g transform="translate(21,10.7119)" id="g116"><path id="path118" style="fill:#d79e84;fill-opacity:1;fill-rule:nonzero;stroke:none" d="m 0,0 c -0.256,0 -0.512,0.098 -0.707,0.293 l -3,3 c -0.36,0.36 -0.392,0.934 -0.074,1.332 l 4,3.288 C 0.564,8.345 1.194,8.414 1.625,8.069 2.057,7.724 2.126,7.095 1.781,6.663 L -1.66,4.074 0.707,1.707 C 1.098,1.316 1.098,0.684 0.707,0.293 0.512,0.098 0.256,0 0,0"/></g><g transform="translate(31,10.7119)" id="g120"><path id="path122" style="fill:#d79e84;fill-opacity:1;fill-rule:nonzero;stroke:none" d="m 0,0 c -0.256,0 -0.512,0.098 -0.707,0.293 -0.391,0.391 -0.391,1.023 0,1.414 L 1.66,4.074 -1.781,6.663 c -0.345,0.432 -0.276,1.061 0.156,1.406 0.431,0.345 1.061,0.276 1.406,-0.156 l 4,-3.288 C 4.1,4.227 4.067,3.653 3.707,3.293 l -3,-3 C 0.512,0.098 0.256,0 0,0"/></g><g transform="translate(32,18)" id="g124"><path id="path126" style="fill:#292f33;fill-opacity:1;fill-rule:nonzero;stroke:none" d="m 0,0 c 0,1.104 -0.896,2 -2,2 l -2,0 -4,0 -2,0 c -1.104,0 -2,-0.896 -2,-2 l 0,-1 2,0 0,-1.288 0,-1 0,-3 3,-2 2,0 3,2 0,3 0,1 0,1.288 2,0 0,1 z"/></g><g transform="translate(33,27.999)" id="g128"><path id="path130" style="fill:#ffd983;fill-opacity:1;fill-rule:nonzero;stroke:none" d="m 0,0 c 0,3.314 -2.687,6.001 -6,6.001 -1.264,0 -2.436,-0.393 -3.402,-1.061 -0.197,0.03 -0.393,0.061 -0.598,0.061 -2.209,0 -4,-1.791 -4,-4 l 0,-6 4.686,0 c 0.949,-0.631 2.087,-1 3.314,-1 1.226,0 2.364,0.369 3.314,1 L 0,-4.999 0,0 Z"/></g><g transform="translate(28,20)" id="g132"><path id="path134" style="fill:#d79e84;fill-opacity:1;fill-rule:nonzero;stroke:none" d="m 0,0 0,3 -4,0 0,-3 -1,0 0,-1 c 0,0 0,-3 3,-3 3,0 3,3 3,3 L 1,0 0,0 Z"/></g><g transform="translate(28,23)" id="g136"><path id="path138" style="fill:#bf6952;fill-opacity:1;fill-rule:nonzero;stroke:none" d="M 0,0 -4,-0.019 -4,-4 c 0,0 2,-1 4,0 l 0,4 z"/></g><g transform="translate(31,31)" id="g140"><path id="path142" style="fill:#d79e84;fill-opacity:1;fill-rule:nonzero;stroke:none" d="m 0,0 -10,0 0,-6 0,0 c 0,-2.763 2.238,-5 5,-5 2.762,0 5,2.237 5,5 l 0,0 0,6 z"/></g><g transform="translate(24,31)" id="g144"><path id="path146" style="fill:#ffd983;fill-opacity:1;fill-rule:nonzero;stroke:none" d="M 0,0 C 0,0 0,-4 8,-4 L 8,0 0,0 Z"/></g><g transform="translate(24,31)" id="g148"><path id="path150" style="fill:#ffd983;fill-opacity:1;fill-rule:nonzero;stroke:none" d="m 0,0 c 0,0 0,-4 -4,-4 l 0,4 4,0 z"/></g><g transform="translate(28,22)" id="g152"><path id="path154" style="fill:#c1694f;fill-opacity:1;fill-rule:nonzero;stroke:none" d="m 0,0 -2,0 -2,0 c 0,0 0,-1 2,-1 2,0 2,1 2,1"/></g><g transform="translate(24,25.5)" id="g156"><path id="path158" style="fill:#664500;fill-opacity:1;fill-rule:nonzero;stroke:none" d="M 0,0 C 0,-0.276 -0.224,-0.5 -0.5,-0.5 -0.776,-0.5 -1,-0.276 -1,0 -1,0.276 -0.776,0.5 -0.5,0.5 -0.224,0.5 0,0.276 0,0"/></g><g transform="translate(29,25.5)" id="g160"><path id="path162" style="fill:#664500;fill-opacity:1;fill-rule:nonzero;stroke:none" d="M 0,0 C 0,-0.276 -0.224,-0.5 -0.5,-0.5 -0.776,-0.5 -1,-0.276 -1,0 -1,0.276 -0.776,0.5 -0.5,0.5 -0.224,0.5 0,0.276 0,0"/></g><g transform="translate(25,24)" id="g164"><path id="path166" style="fill:#c1694f;fill-opacity:1;fill-rule:nonzero;stroke:none" d="M 0,0 1,0 2,0 C 2,0 2,-1 1,-1 0,-1 0,0 0,0"/></g><g transform="translate(20.7813,35.875)" id="g168"><path id="path170" style="fill:#292f33;fill-opacity:1;fill-rule:nonzero;stroke:none" d="M 0,0 C 2.625,0.219 3.75,-2.875 3,-4.25 1.031,-4.25 -0.937,-2.438 0,0"/></g><g transform="translate(30.7686,35.8125)" id="g172"><path id="path174" style="fill:#292f33;fill-opacity:1;fill-rule:nonzero;stroke:none" d="m 0,0 c -2.625,0.219 -3.75,-2.875 -3,-4.25 1.969,0 3.937,1.812 3,4.25"/></g><g transform="translate(23.4063,32.75)" id="g176"><path id="path178" style="fill:#292f33;fill-opacity:1;fill-rule:nonzero;stroke:none" d="M 0,0 C 1.812,1.437 4.344,1.062 5.156,-0.156 5.187,-0.469 4.786,-1.334 4.469,-1.187 3.656,-0.812 2.281,-0.25 0.406,-1.125 0.312,-1.062 -0.035,-0.027 0,0"/></g></g></g></g></svg>
