<?xml version="1.0" encoding="UTF-8" standalone="no"?>
<!-- Created with Inkscape (http://www.inkscape.org/) -->

<svg
   xmlns:svg="http://www.w3.org/2000/svg"
   xmlns="http://www.w3.org/2000/svg"
   version="1.1"
   width="47.5"
   height="47.5"
   id="svg2"
   xml:space="preserve"><defs
     id="defs6"><clipPath
       id="clipPath18"><path
         d="M 0,38 38,38 38,0 0,0 0,38 z"
         id="path20" /></clipPath></defs><g
     transform="matrix(1.25,0,0,-1.25,0,47.5)"
     id="g12"><g
       id="g14"><g
         clip-path="url(#clipPath18)"
         id="g16"><g
           transform="translate(30,16.2715)"
           id="g22"><path
             d="m 0,0 0,1.963 c 1,1.03 2.914,2.89 3.391,5.273 0.141,-0.079 0.054,-0.13 0.213,-0.13 0.757,0 1.255,0.984 1.255,2.198 0,1.194 -0.656,2.161 -1.398,2.191 0.143,0.515 0.212,1.206 0.212,2.091 0,2.956 -2.549,6.505 -8.253,6.505 -5.068,0 -8.244,-3.549 -8.244,-6.505 0,-0.858 0.051,-1.562 0.142,-2.107 -0.697,-0.105 -1.247,-1.033 -1.247,-2.175 0,-1.214 0.615,-2.198 1.373,-2.198 0.158,0 -0.069,0.051 0.072,0.13 C -12.007,4.853 -10,2.993 -9,1.963 l 0,-1.847 c -4,-0.492 -7,-2.628 -7,-4.764 l 0,-0.644 0,-0.167 c 0,-0.812 0.823,-0.812 1.634,-0.812 l 8.554,0 1.624,0 8.552,0 c 0.813,0 1.636,0 1.636,0.812 l 0,0.167 0,0.644 c 0,2 -3,3.996 -6,4.648"
             id="path24"
             style="fill:#66757f;fill-opacity:1;fill-rule:nonzero;stroke:none" /></g><g
           transform="translate(18,8.2715)"
           id="g26"><path
             d="m 0,0 0,1.963 c 1,1.03 2.914,2.89 3.391,5.273 0.141,-0.079 0.054,-0.13 0.213,-0.13 0.757,0 1.255,0.984 1.255,2.198 0,1.194 -0.656,2.161 -1.398,2.191 0.143,0.515 0.212,1.206 0.212,2.091 0,2.956 -2.549,6.505 -8.253,6.505 -5.069,0 -8.244,-3.549 -8.244,-6.505 0,-0.858 0.051,-1.562 0.142,-2.107 -0.697,-0.105 -1.247,-1.033 -1.247,-2.175 0,-1.214 0.615,-2.198 1.373,-2.198 0.158,0 -0.069,0.051 0.072,0.13 C -12.007,4.853 -10,2.993 -9,1.963 l 0,-1.847 c -4,-0.492 -7,-2.628 -7,-4.764 l 0,-0.644 0,-0.167 c 0,-0.812 0.823,-0.812 1.634,-0.812 l 8.554,0 1.624,0 8.552,0 c 0.813,0 1.636,0 1.636,0.812 l 0,0.167 0,0.644 c 0,2 -3,3.996 -6,4.648"
             id="path28"
             style="fill:#292f33;fill-opacity:1;fill-rule:nonzero;stroke:none" /></g></g></g></g></svg>