<?xml version="1.0" encoding="UTF-8" standalone="no"?><svg xmlns:dc="http://purl.org/dc/elements/1.1/" xmlns:cc="http://creativecommons.org/ns#" xmlns:rdf="http://www.w3.org/1999/02/22-rdf-syntax-ns#" xmlns:svg="http://www.w3.org/2000/svg" xmlns="http://www.w3.org/2000/svg" viewBox="0 0 47.5 47.5" style="enable-background:new 0 0 47.5 47.5;" xml:space="preserve" version="1.1" id="svg2"><metadata id="metadata8"><rdf:RDF><cc:Work rdf:about=""><dc:format>image/svg+xml</dc:format><dc:type rdf:resource="http://purl.org/dc/dcmitype/StillImage"/></cc:Work></rdf:RDF></metadata><defs id="defs6"><clipPath id="clipPath16" clipPathUnits="userSpaceOnUse"><path id="path18" d="M 0,38 38,38 38,0 0,0 0,38 Z"/></clipPath></defs><g transform="matrix(1.25,0,0,-1.25,0,47.5)" id="g10"><g id="g12"><g clip-path="url(#clipPath16)" id="g14"><g transform="translate(33.7334,26.3667)" id="g20"><path id="path22" style="fill:#d1d3d4;fill-opacity:1;fill-rule:nonzero;stroke:none" d="m 0,0 c 0,-4.068 -6.597,-7.367 -14.733,-7.367 -8.138,0 -14.734,3.299 -14.734,7.367 0,4.069 1.134,8.634 14.734,8.634 C -1.134,8.634 0,4.069 0,0"/></g><g transform="translate(33.167,23.5337)" id="g24"><path id="path26" style="fill:#d99e82;fill-opacity:1;fill-rule:nonzero;stroke:none" d="m 0,0 c -0.318,0 -0.619,-0.103 -0.904,-0.258 -1.36,7.616 -6.777,12.725 -13.263,12.725 -6.487,0 -11.903,-5.109 -13.263,-12.724 -0.285,0.154 -0.586,0.257 -0.903,0.257 -1.565,0 -2.834,-2.03 -2.834,-4.534 0,-2.504 1.269,-4.533 2.834,-4.533 0.38,0 0.743,0.124 1.074,0.342 1.595,-7.383 6.845,-12.809 13.092,-12.809 6.247,0 11.497,5.426 13.091,12.81 0.332,-0.219 0.695,-0.343 1.076,-0.343 1.564,0 2.833,2.029 2.833,4.533 C 2.833,-2.03 1.564,0 0,0"/></g><g transform="translate(12.2012,18)" id="g28"><path id="path30" style="fill:#662113;fill-opacity:1;fill-rule:nonzero;stroke:none" d="m 0,0 c -0.367,0 -0.72,0.203 -0.896,0.553 -0.247,0.494 -0.046,1.094 0.448,1.342 L 1.818,3.027 C 2.313,3.274 2.913,3.073 3.16,2.58 3.407,2.086 3.207,1.485 2.713,1.238 L 0.446,0.105 C 0.303,0.034 0.15,0 0,0"/></g><g transform="translate(25.7988,18)" id="g32"><path id="path34" style="fill:#662113;fill-opacity:1;fill-rule:nonzero;stroke:none" d="m 0,0 c -0.15,0 -0.303,0.034 -0.446,0.105 l -2.267,1.133 c -0.494,0.247 -0.694,0.848 -0.447,1.342 0.246,0.493 0.848,0.695 1.342,0.447 L 0.448,1.895 C 0.942,1.647 1.143,1.047 0.896,0.553 0.721,0.203 0.367,0 0,0"/></g><g transform="translate(27,23)" id="g36"><path id="path38" style="fill:#d1d3d4;fill-opacity:1;fill-rule:nonzero;stroke:none" d="m 0,0 -3,0 c -0.553,0 -1,0.448 -1,1 0,0.552 0.447,1 1,1 L 0,2 C 0.553,2 1,1.552 1,1 1,0.448 0.553,0 0,0"/></g><g transform="translate(14,23)" id="g40"><path id="path42" style="fill:#d1d3d4;fill-opacity:1;fill-rule:nonzero;stroke:none" d="m 0,0 -3,0 c -0.552,0 -1,0.448 -1,1 0,0.552 0.448,1 1,1 L 0,2 C 0.552,2 1,1.552 1,1 1,0.448 0.552,0 0,0"/></g><g transform="translate(19,6.667)" id="g44"><path id="path46" style="fill:#c1694f;fill-opacity:1;fill-rule:nonzero;stroke:none" d="m 0,0 c -2.474,0 -4.879,1.187 -4.98,1.238 -0.494,0.247 -0.694,0.846 -0.448,1.34 0.246,0.495 0.848,0.693 1.341,0.45 C -4.066,3.018 -1.994,2 0,2 2.008,2 4.065,3.017 4.086,3.027 4.579,3.271 5.182,3.074 5.428,2.58 5.675,2.086 5.475,1.485 4.98,1.238 4.879,1.187 2.475,0 0,0"/></g><g transform="translate(20,12)" id="g48"><path id="path50" style="fill:#c1694f;fill-opacity:1;fill-rule:nonzero;stroke:none" d="m 0,0 -2,0 c -0.552,0 -1,0.447 -1,1 0,0.553 0.448,1 1,1 L 0,2 C 0.553,2 1,1.553 1,1 1,0.447 0.553,0 0,0"/></g></g></g></g></svg>
