<?xml version="1.0" encoding="UTF-8" standalone="no"?><svg xmlns:svg="http://www.w3.org/2000/svg" xmlns="http://www.w3.org/2000/svg" version="1.1" viewBox="0 0 47.5 47.5" style="enable-background:new 0 0 47.5 47.5;" id="svg2" xml:space="preserve"><defs id="defs6"><clipPath id="clipPath18"><path d="M 0,38 38,38 38,0 0,0 0,38 z" id="path20"/></clipPath></defs><g transform="matrix(1.25,0,0,-1.25,0,47.5)" id="g12"><g id="g14"><g clip-path="url(#clipPath18)" id="g16"><g transform="translate(37,19)" id="g22"><path d="m 0,0 c 0,-9.941 -8.059,-18 -18,-18 -9.941,0 -18,8.059 -18,18 0,9.941 8.059,18 18,18 C -8.059,18 0,9.941 0,0" id="path24" style="fill:#aa8ed6;fill-opacity:1;fill-rule:nonzero;stroke:none"/></g><g transform="translate(11,33)" id="g26"><path d="M 0,0 C -2.58,0 -5.631,2.466 -6.586,3.414 -7.157,3.986 -8.019,4.158 -8.765,3.848 -9.513,3.538 -10,2.809 -10,2 c 0,-3.459 1.672,-10 8,-10 0.757,0 1.45,0.428 1.789,1.105 l 2,4 c 0.31,0.621 0.277,1.357 -0.088,1.946 C 1.337,-0.359 0.693,0 0,0" id="path28" style="fill:#aa8ed6;fill-opacity:1;fill-rule:nonzero;stroke:none"/></g><g transform="translate(35.7656,36.8477)" id="g30"><path d="m 0,0 c -0.75,0.311 -1.607,0.139 -2.18,-0.434 -0.885,-0.885 -3.997,-3.414 -6.586,-3.414 -0.693,0 -1.337,-0.359 -1.701,-0.948 -0.364,-0.59 -0.397,-1.326 -0.088,-1.946 l 2,-4 c 0.339,-0.677 1.032,-1.106 1.789,-1.106 6.329,0 8,6.541 8,10 C 1.234,-1.039 0.747,-0.31 0,0" id="path32" style="fill:#aa8ed6;fill-opacity:1;fill-rule:nonzero;stroke:none"/></g><g transform="translate(15.9985,18.9995)" id="g34"><path d="m 0,0 c -0.301,0 -0.606,0.068 -0.893,0.211 l -6,3 c -0.988,0.495 -1.388,1.696 -0.895,2.684 0.495,0.988 1.696,1.389 2.684,0.895 l 6,-3 C 1.884,3.295 2.284,2.094 1.791,1.106 1.44,0.405 0.733,0 0,0" id="path36" style="fill:#553986;fill-opacity:1;fill-rule:nonzero;stroke:none"/></g><g transform="translate(22,7)" id="g38"><path d="m 0,0 -6,0 c -1.104,0 -2,0.896 -2,2 0,1.104 0.896,2 2,2 L 0,4 C 1.104,4 2,3.104 2,2 2,0.896 1.104,0 0,0" id="path40" style="fill:#553986;fill-opacity:1;fill-rule:nonzero;stroke:none"/></g><g transform="translate(22.002,18.9995)" id="g42"><path d="m 0,0 c -0.734,0 -1.44,0.405 -1.791,1.106 -0.494,0.988 -0.094,2.189 0.895,2.684 l 6,3 C 6.093,7.286 7.294,6.881 7.787,5.895 8.281,4.907 7.881,3.706 6.893,3.211 l -6,-3 C 0.605,0.068 0.3,0 0,0" id="path44" style="fill:#553986;fill-opacity:1;fill-rule:nonzero;stroke:none"/></g><g transform="translate(21,19)" id="g46"><path d="M 0,0 C 0,0 0,2 2,2 4,2 4,0 4,0 l 0,-2 c 0,0 0,-2 -2,-2 -2,0 -2,2 -2,2 l 0,2 z" id="path48" style="fill:#553986;fill-opacity:1;fill-rule:nonzero;stroke:none"/></g><g transform="translate(13,19)" id="g50"><path d="M 0,0 C 0,0 0,2 2,2 4,2 4,0 4,0 l 0,-2 c 0,0 0,-2 -2,-2 -2,0 -2,2 -2,2 l 0,2 z" id="path52" style="fill:#553986;fill-opacity:1;fill-rule:nonzero;stroke:none"/></g></g></g></g></svg>
