<svg xmlns="http://www.w3.org/2000/svg" viewBox="0 0 47.5 47.5" enable-background="new 0 0 47.5 47.5"><defs><clipPath id="a"><path d="M0 38h38V0H0v38z"/></clipPath></defs><g><g><g clip-path="url(#a)" transform="matrix(1.25 0 0 -1.25 0 47.5)"><g><path fill="#d99e82" d="M33 17c0 2.2-1.12 4-2.5 4 0 0-.02 0-.03 0C28.95 27.3 24.4 31.88 19 31.88c-5.4 0-9.96-4.58-11.47-10.88 0 0-.02 0-.03 0C6.12 21 5 19.2 5 17c0-2.1 1.02-3.81 2.3-3.97C8.55 6.38 13.3 2 19 2c5.7 0 10.46 4.38 11.7 11.03C31.97 13.2 33 14.9 33 17"/></g><g><path fill="#3b88c3" d="M14 16c-.55 0-1 .45-1 1v2c0 .55.45 1 1 1s1-.45 1-1v-2c0-.55-.45-1-1-1"/></g><g><path fill="#3b88c3" d="M24 16c-.55 0-1 .45-1 1v2c0 .55.45 1 1 1s1-.45 1-1v-2c0-.55-.45-1-1-1"/></g><g><path fill="#c1694f" d="M19 6c-4.2 0-5.5 1.08-5.7 1.3-.4.38-.4 1.02 0 1.4.37.4.98.4 1.37.04C14.75 8.7 15.77 8 19 8c3.35 0 4.33.74 4.34.75.4.4 1 .37 1.4-.02.38-.4.36-1.05-.03-1.44C24.5 7.07 23.2 6 19 6"/></g><g><path fill="#c1694f" d="M20 11h-2c-.55 0-1 .45-1 1s.45 1 1 1h2c.55 0 1-.45 1-1s-.45-1-1-1"/></g><g><path fill="#ffd983" d="M19 36c8 0 13-6 13-11s-1-7-2-5l-2 4s-6 0-8 2c0 0 3-6-3 0 0 0 1-4-5 1 0 0-3-2-4-7-.28-1.4-2 0-2 5s4 11 13 11"/></g></g></g></g></svg>