<?xml version="1.0" encoding="UTF-8" standalone="no"?>
<!-- Created with Inkscape (http://www.inkscape.org/) -->

<svg
   xmlns:svg="http://www.w3.org/2000/svg"
   xmlns="http://www.w3.org/2000/svg"
   version="1.1"
   width="47.5"
   height="47.5"
   id="svg2"
   xml:space="preserve"><defs
     id="defs6"><clipPath
       id="clipPath18"><path
         d="M 0,38 38,38 38,0 0,0 0,38 z"
         id="path20" /></clipPath></defs><g
     transform="matrix(1.25,0,0,-1.25,0,47.5)"
     id="g12"><g
       id="g14"><g
         clip-path="url(#clipPath18)"
         id="g16"><g
           transform="translate(37,26)"
           id="g22"><path
             d="M 0,0 C 0,1.104 -0.896,2 -2,2 -3.104,2 -4,1.104 -4,0 -4,0 -4.011,-3.285 -7,-3.894 L -7,-1 c 0,6.075 -4.925,11 -11,11 -6.075,0 -11,-4.925 -11,-11 l 0,-3.237 c -5.222,-1.569 -7,-7.994 -7,-11.763 0,-1.104 0.896,-2 2,-2 1.104,0 2,0.896 2,2 0,0 0.002,3.54 3.336,3.958 C -28.162,-16.883 -27.046,-22 -25,-22 l 1,0 c 4,0 3,-2 7,-2 4,0 3,2 6,2 3,0 2.395,-2 6,-2 1.657,0 3,1.343 3,3 0,0.675 -2.274,4.994 -3.755,9.268 C -0.019,-10.348 0,-3.58 0,0"
             id="path24"
             style="fill:#e1e8ed;fill-opacity:1;fill-rule:nonzero;stroke:none" /></g><g
           transform="translate(16,25)"
           id="g26"><path
             d="m 0,0 c 0,-1.104 -0.896,-2 -2,-2 -1.104,0 -2,0.896 -2,2 0,1.104 0.896,2 2,2 1.104,0 2,-0.896 2,-2"
             id="path28"
             style="fill:#292f33;fill-opacity:1;fill-rule:nonzero;stroke:none" /></g><g
           transform="translate(28,25)"
           id="g30"><path
             d="m 0,0 c 0,-2.209 -1.791,-4 -4,-4 -2.209,0 -4,1.791 -4,4 0,2.209 1.791,4 4,4 2.209,0 4,-1.791 4,-4"
             id="path32"
             style="fill:#292f33;fill-opacity:1;fill-rule:nonzero;stroke:none" /></g><g
           transform="translate(26,24)"
           id="g34"><path
             d="m 0,0 c 0,-1.104 -0.896,-2 -2,-2 -1.104,0 -2,0.896 -2,2 0,1.104 0.896,2 2,2 1.104,0 2,-0.896 2,-2"
             id="path36"
             style="fill:#9aaab4;fill-opacity:1;fill-rule:nonzero;stroke:none" /></g><g
           transform="translate(23.1924,17.5088)"
           id="g38"><path
             d="m 0,0 c 2.65,-1.987 3.591,-5.211 2.1,-7.199 -1.492,-1.989 -4.849,-1.989 -7.5,0 -2.651,1.987 -3.591,5.211 -2.1,7.199 1.491,1.989 4.849,1.988 7.5,0"
             id="path40"
             style="fill:#292f33;fill-opacity:1;fill-rule:nonzero;stroke:none" /></g></g></g></g></svg>