<?xml version="1.0" encoding="UTF-8" standalone="no"?>
<!-- Created with Inkscape (http://www.inkscape.org/) -->

<svg
   xmlns:svg="http://www.w3.org/2000/svg"
   xmlns="http://www.w3.org/2000/svg"
   version="1.1"
   width="47.5"
   height="47.5"
   id="svg2"
   xml:space="preserve"><defs
     id="defs6"><clipPath
       id="clipPath18"><path
         d="M 0,38 38,38 38,0 0,0 0,38 z"
         id="path20" /></clipPath></defs><g
     transform="matrix(1.25,0,0,-1.25,0,47.5)"
     id="g12"><g
       id="g14"><g
         clip-path="url(#clipPath18)"
         id="g16"><g
           transform="translate(36,20)"
           id="g22"><path
             d="m 0,0 c 0,-9.389 -13.223,-19 -17,-19 -3.778,0 -17,9.611 -17,19 0,9.389 7.611,17 17,17 C -7.611,17 0,9.389 0,0"
             id="path24"
             style="fill:#ccd6dd;fill-opacity:1;fill-rule:nonzero;stroke:none" /></g><g
           transform="translate(14.5029,22.1548)"
           id="g26"><path
             d="m 0,0 c 3.124,-3.124 4.39,-6.923 2.828,-8.485 -1.561,-1.562 -5.361,-0.297 -8.485,2.828 -3.125,3.124 -4.391,6.923 -2.828,8.485 C -6.923,4.39 -3.124,3.125 0,0"
             id="path28"
             style="fill:#292f33;fill-opacity:1;fill-rule:nonzero;stroke:none" /></g><g
           transform="translate(23.4971,22.1553)"
           id="g30"><path
             d="m 0,0 c -3.124,-3.124 -4.39,-6.923 -2.828,-8.485 1.561,-1.563 5.361,-0.297 8.485,2.828 3.125,3.125 4.391,6.923 2.828,8.485 C 6.923,4.39 3.124,3.125 0,0"
             id="path32"
             style="fill:#292f33;fill-opacity:1;fill-rule:nonzero;stroke:none" /></g><g
           transform="translate(19,6)"
           id="g34"><path
             d="m 0,0 c -2.347,0 -3.575,1.16 -3.707,1.293 -0.391,0.391 -0.391,1.023 0,1.414 0.387,0.387 1.013,0.391 1.404,0.01 C -2.251,2.67 -1.497,2 0,2 1.519,2 2.273,2.689 2.305,2.719 2.703,3.093 3.332,3.082 3.713,2.689 4.092,2.297 4.093,1.679 3.707,1.293 3.575,1.16 2.347,0 0,0"
             id="path36"
             style="fill:#292f33;fill-opacity:1;fill-rule:nonzero;stroke:none" /></g></g></g></g></svg>