<svg xmlns="http://www.w3.org/2000/svg" viewBox="0 0 47.5 47.5" enable-background="new 0 0 47.5 47.5"><defs><clipPath id="a"><path d="M0 38h38V0H0v38z"/></clipPath></defs><g><g><g clip-path="url(#a)" transform="matrix(1.25 0 0 -1.25 0 47.5)"><g><path fill="#d99e82" d="M37 18.5c0 1.64-.97 3-2.27 3.38C33.37 29.34 26.85 35 19 35c-7.85 0-14.37-5.66-15.73-13.12C1.97 21.5 1 20.14 1 18.5c0-1.74 1.1-3.17 2.5-3.44C5.28 8.13 11.54 3 19 3c7.47 0 13.73 5.13 15.5 12.06 1.4.27 2.5 1.7 2.5 3.44"/></g><g><path fill="#662214" d="M19 12c-3 0-4 1-4-1s2-4 4-4 4 2 4 4-1 1-4 1"/></g><g><path fill="#662214" d="M26 18.5c0-1.38-1.12-2.5-2.5-2.5S21 17.12 21 18.5s1.12 2.5 2.5 2.5 2.5-1.12 2.5-2.5"/></g><g><path fill="#662214" d="M17 18.5c0-1.38-1.12-2.5-2.5-2.5S12 17.12 12 18.5s1.12 2.5 2.5 2.5 2.5-1.12 2.5-2.5"/></g><g><path fill="#fff" d="M19 11h2v-1s0-1-1-1-1 1-1 1v1z"/></g><g><path fill="#662214" d="M18.98 26h-.03c-1.2 0-2.3.46-3.13 1.3-.75.76-1.14 1.8-1.08 2.85.03.55.5.96 1.06.94.55-.05.97-.52.94-1.07-.03-.5.15-1 .5-1.34.46-.48 1.07-.73 1.72-.74.66.04 1.27.25 1.74.7 1.3 1.3 1.3 3.38.03 4.68-1.7 1.72-4.48 1.74-6.2.04-.4-.38-1.03-.38-1.4 0-.4.4-.4 1.04 0 1.43 2.5 2.48 6.55 2.45 9.03-.05 2.05-2.1 2.03-5.43-.06-7.5-.83-.8-1.94-1.25-3.12-1.25"/></g></g></g></g></svg>