<svg xmlns="http://www.w3.org/2000/svg" viewBox="0 0 47.5 47.5" enable-background="new 0 0 47.5 47.5"><defs><clipPath id="a"><path d="M0 38h38V0H0v38z"/></clipPath></defs><g><g><g clip-path="url(#a)" transform="matrix(1.25 0 0 -1.25 0 47.5)"><g><path fill="#d99e82" d="M30.67 21.97c-1.24 6.82-6 11.9-11.67 11.9-5.68 0-10.43-5.08-11.67-11.9C6.03 21.83 5 20.12 5 18c0-2.2 1.12-4 2.5-4C9 7.64 13.58 3 19 3s10 5 11.5 11c1.38 0 2.5 1.8 2.5 4 0 2.12-1.03 3.83-2.33 3.97"/></g><g><path fill="#662113" d="M14 16c-.55 0-1 .45-1 1v2c0 .55.45 1 1 1s1-.45 1-1v-2c0-.55-.45-1-1-1"/></g><g><path fill="#662113" d="M24 16c-.55 0-1 .45-1 1v2c0 .55.45 1 1 1s1-.45 1-1v-2c0-.55-.45-1-1-1"/></g><g><path fill="#c1694f" d="M19 7c-2.2 0-4.36 1.06-4.45 1.1-.5.25-.7.85-.44 1.35.25.5.85.7 1.35.45 0 0 1.82-.9 3.55-.9 1.73 0 3.54.9 3.55.9.5.24 1.1.04 1.34-.45.24-.5.04-1.1-.45-1.34C23.35 8.07 21.2 7 19 7"/></g><g><path fill="#c1694f" d="M20 12h-2c-.55 0-1 .45-1 1s.45 1 1 1h2c.55 0 1-.45 1-1s-.45-1-1-1"/></g><g><path fill="#e6e7e8" d="M19 26.05s10.33-2.7 11.9-7.52c.7 1.48 1.1 4.9 1.1 6.72C32 30.8 26.58 35 20.62 35h-3.25C11.43 35 6 30.8 6 25.25c0-1.83.4-5.4 1.1-6.86C8.66 23.2 19 26.04 19 26.04"/></g><g><path fill="#d1d3d4" d="M31.97 24.25c-2.02 1.62-4.4 2.94-6.65 3.7-.53.18-1.1-.1-1.27-.63-.17-.53.1-1.1.63-1.27 2.4-.8 5.04-2.4 7.04-4.22.12.84.2 1.68.25 2.42"/></g><g><path fill="#d1d3d4" d="M6.17 22.62c2.9 2.07 12.52 8.3 23.6 8.37-.62.7-1.36 1.36-2.18 1.9-9.7-.7-17.98-5.54-21.6-7.97.02-.65.07-1.46.17-2.3"/></g><g><path fill="#d1d3d4" d="M31.12 28.98c-.04 0-.08.02-.12.02-4.1 0-8.24-1.03-12.32-3.04.2.06.32.1.32.1s1.18-.32 2.8-.9C24.87 26.35 27.95 27 31 27c.3 0 .55.13.73.33-.14.57-.35 1.12-.6 1.65"/></g><g><path fill="#d1d3d4" d="M6.27 27.35c3.58 2.3 10.4 5.8 17.96 7.12-1.15.34-2.37.53-3.6.53h-2.55c-3.94-1.24-7.45-2.87-10.15-4.36-.77-.98-1.35-2.1-1.66-3.3"/></g></g></g></g></svg>