<?xml version="1.0" encoding="UTF-8" standalone="no"?><svg xmlns:svg="http://www.w3.org/2000/svg" xmlns="http://www.w3.org/2000/svg" version="1.1" viewBox="0 0 47.5 47.5" style="enable-background:new 0 0 47.5 47.5;" id="svg2" xml:space="preserve"><defs id="defs6"><clipPath id="clipPath18"><path d="M 0,38 38,38 38,0 0,0 0,38 z" id="path20"/></clipPath></defs><g transform="matrix(1.25,0,0,-1.25,0,47.5)" id="g12"><g id="g14"><g clip-path="url(#clipPath18)" id="g16"><g transform="translate(20,33.0005)" id="g22"><path d="m 0,0 c 6,0 16,-3 16,-16 0,-13 0,-16 -3,-16 -3,0 -7,3 -13,3 -6,0 -9.915,-3 -13,-3 -3.343,0 -3,12 -3,16 0,13 10,16 16,16" id="path24" style="fill:#ffd983;fill-opacity:1;fill-rule:nonzero;stroke:none"/></g><g transform="translate(8,17.4375)" id="g26"><path d="M 0,0 C 0,8.526 5.373,15.438 12,15.438 18.627,15.438 24,8.526 24,0 24,-8.525 18.627,-15.438 12,-15.438 5.373,-15.438 0,-8.525 0,0" id="path28" style="fill:#d99e82;fill-opacity:1;fill-rule:nonzero;stroke:none"/></g><g transform="translate(20,6)" id="g30"><path d="m 0,0 c -2.347,0 -3.575,1.16 -3.707,1.293 -0.391,0.391 -0.391,1.023 0,1.414 0.387,0.388 1.013,0.39 1.404,0.01 C -2.251,2.67 -1.497,2 0,2 1.519,2 2.273,2.689 2.305,2.719 2.704,3.093 3.332,3.082 3.713,2.689 4.092,2.297 4.093,1.679 3.707,1.293 3.575,1.16 2.347,0 0,0" id="path32" style="fill:#dd2e44;fill-opacity:1;fill-rule:nonzero;stroke:none"/></g><g transform="translate(21,11)" id="g34"><path d="m 0,0 -2,0 c -0.552,0 -1,0.447 -1,1 0,0.553 0.448,1 1,1 L 0,2 C 0.553,2 1,1.553 1,1 1,0.447 0.553,0 0,0" id="path36" style="fill:#c1694f;fill-opacity:1;fill-rule:nonzero;stroke:none"/></g><g transform="translate(5.0645,12)" id="g38"><path d="m 0,0 c -0.03,0.325 -0.064,0.647 -0.064,1 0,5 3,-0.563 3,3 0,3.563 2,4 4,6 l 3,3 c 0,0 5,-3 9,-3 4,0 8,-2 8,-6 0,-4 3,2 3,-3 0,-0.355 -0.034,-0.673 -0.058,-1 l 1.049,0 c 0.009,1.477 0.009,3.132 0.009,5 0,13 -10,18 -16,18 -6,0 -16,-5 -16,-18 0,-1.158 -0.029,-2.986 0.012,-5 L 0,0 z" id="path40" style="fill:#ffd983;fill-opacity:1;fill-rule:nonzero;stroke:none"/></g><g transform="translate(10,31)" id="g42"><path d="M 0,0 20,0 20,1 17,2 15,5 12,4 10,6 8,4 5,5 3,2 0,1 0,0 z" id="path44" style="fill:#a7a9ac;fill-opacity:1;fill-rule:nonzero;stroke:none"/></g><g transform="translate(19,33.5005)" id="g46"><path d="M 0,0 C 0,0.829 0.448,1.5 1,1.5 1.553,1.5 2,0.829 2,0 2,-0.829 1.553,-1.5 1,-1.5 0.448,-1.5 0,-0.829 0,0" id="path48" style="fill:#f1f2f2;fill-opacity:1;fill-rule:nonzero;stroke:none"/></g><g transform="translate(15,33.0005)" id="g50"><path d="M 0,0 C 0,0.552 0.448,1 1,1 1.552,1 2,0.552 2,0 2,-0.552 1.552,-1 1,-1 0.448,-1 0,-0.552 0,0" id="path52" style="fill:#f1f2f2;fill-opacity:1;fill-rule:nonzero;stroke:none"/></g><g transform="translate(23,33.0005)" id="g54"><path d="M 0,0 C 0,0.552 0.447,1 1,1 1.553,1 2,0.552 2,0 2,-0.552 1.553,-1 1,-1 0.447,-1 0,-0.552 0,0" id="path56" style="fill:#f1f2f2;fill-opacity:1;fill-rule:nonzero;stroke:none"/></g><g transform="translate(15,14)" id="g58"><path d="m 0,0 c -0.552,0 -1,0.447 -1,1 l 0,2 C -1,3.553 -0.552,4 0,4 0.552,4 1,3.553 1,3 L 1,1 C 1,0.447 0.552,0 0,0" id="path60" style="fill:#3b88c3;fill-opacity:1;fill-rule:nonzero;stroke:none"/></g><g transform="translate(25,14)" id="g62"><path d="m 0,0 c -0.553,0 -1,0.447 -1,1 l 0,2 C -1,3.553 -0.553,4 0,4 0.553,4 1,3.553 1,3 L 1,1 C 1,0.447 0.553,0 0,0" id="path64" style="fill:#3b88c3;fill-opacity:1;fill-rule:nonzero;stroke:none"/></g></g></g></g></svg>
