<svg xmlns="http://www.w3.org/2000/svg" viewBox="0 0 47.5 47.5" enable-background="new 0 0 47.5 47.5"><defs><clipPath id="a"><path d="M0 38h38V0H0v38z"/></clipPath></defs><g><g><g clip-path="url(#a)" transform="matrix(1.25 0 0 -1.25 0 47.5)"><g><path fill="#da2f47" d="M29 16c0-2.2-3-15-9-15h-8C6 1 3 13.8 3 16v17c0 2.2 1.8 4 4 4h18c2.2 0 4-1.8 4-4V16z"/></g><g><path fill="#f5f8fa" d="M15.44 27.83c2.14-2.34 2.72-5.5 1.3-7.07-1.43-1.56-4.32-.93-6.46 1.4-2.13 2.35-2.7 5.52-1.3 7.08 1.44 1.56 4.33.93 6.46-1.4"/></g><g><path fill="#292f33" d="M16.93 24.3c.6-.8.6-2.05 0-2.84-.6-.78-1.6-.78-2.2 0-.6.8-.6 2.05 0 2.83.6.77 1.6.77 2.2 0"/></g><g><path fill="#f5f8fa" d="M22.73 27.73c-1.83-2.34-2.32-5.5-1.1-7.07 1.2-1.56 3.68-.93 5.5 1.4 1.83 2.36 2.32 5.52 1.1 7.08-1.2 1.57-3.68.93-5.5-1.4"/></g><g><path fill="#292f33" d="M22.18 24.2c-.6-.8-.6-2.05 0-2.83.6-.8 1.6-.8 2.2 0 .6.78.6 2.04 0 2.82-.6.77-1.6.77-2.2 0"/></g><g><path fill="#292f33" d="M21.9 26c-.44 0-.87.14-1.24.42-.87.68-1.02 1.94-.35 2.8l4.68 6c.68.88 1.94 1.04 2.8.36.88-.68 1.04-1.94.36-2.8l-4.67-6c-.4-.52-.98-.78-1.58-.78"/></g><g><path fill="#292f33" d="M17.22 26c-.6 0-1.18.27-1.58.77l-4.67 6c-.68.87-.52 2.13.35 2.8.87.7 2.13.53 2.8-.34l4.68-6c.68-.87.52-2.13-.35-2.8-.37-.3-.8-.43-1.23-.43"/></g><g><path fill="#fdd888" d="M25 6c-.8 0-1.57.5-1.87 1.3-.1.26-1.17 2.7-4.13 2.7s-4.02-2.44-4.13-2.72c-.4-1.02-1.57-1.53-2.6-1.13-1 .4-1.53 1.53-1.14 2.55.08.22 2.05 5.3 7.87 5.3s7.8-5.08 7.87-5.3c.4-1.03-.13-2.18-1.17-2.57-.23-.1-.47-.13-.7-.13"/></g><g><path fill="#292f33" d="M19.55 15s4.5.55 7.05-4c2.82-5 2.82 5 2.12 6-.7 1-1.45-1.4-2.82-.9-2.82 1-6.35-1.1-6.35-1.1"/></g><g><path fill="#292f33" d="M19.55 15s-5.88.55-9.26-4c-3.7-5-3.7 5-2.8 6 .94 1 1.92-1.73 3.72-1.24 3.7 1 8.33-.76 8.33-.76"/></g><g><path fill="#e75a70" d="M33.26 22c-.1 0-.17-.02-.26-.03V22H19.15c-1.5 0-2.73-1.34-2.73-3s1.22-3 2.73-3H33v.03c.1 0 .17-.03.26-.03 1.5 0 2.74 1.34 2.74 3s-1.23 3-2.74 3"/></g></g></g></g></svg>