<svg xmlns="http://www.w3.org/2000/svg" viewBox="0 0 47.5 47.5" enable-background="new 0 0 47.5 47.5"><defs><clipPath id="a"><path d="M0 38h38V0H0v38z"/></clipPath></defs><g><g><g clip-path="url(#a)" transform="matrix(1.25 0 0 -1.25 0 47.5)"><g><path fill="#ccd6dd" d="M36 20c0-9.4-13.22-19-17-19-3.78 0-17 9.6-17 19s7.6 17 17 17 17-7.6 17-17"/></g><g><path fill="#292f33" d="M14.5 22.15c3.13-3.12 4.4-6.92 2.83-8.48-1.56-1.56-5.36-.3-8.48 2.83-3.13 3.12-4.4 6.92-2.83 8.48 1.56 1.56 5.36.3 8.48-2.83"/></g><g><path fill="#292f33" d="M23.5 22.16c-3.13-3.13-4.4-6.93-2.83-8.5 1.56-1.55 5.36-.3 8.48 2.84 3.13 3.12 4.4 6.92 2.83 8.48-1.56 1.57-5.36.3-8.48-2.82"/></g><g><path fill="#292f33" d="M19 6c-2.35 0-3.58 1.16-3.7 1.3-.4.38-.4 1.02 0 1.4.38.4 1 .4 1.4.02.05-.05.8-.72 2.3-.72 1.52 0 2.27.7 2.3.72.4.37 1.03.36 1.4-.03.4-.4.4-1.02 0-1.4C22.6 7.15 21.36 6 19 6"/></g></g></g></g></svg>