<?xml version="1.0" encoding="UTF-8" standalone="no"?>
<!-- Created with Inkscape (http://www.inkscape.org/) -->

<svg
   xmlns:svg="http://www.w3.org/2000/svg"
   xmlns="http://www.w3.org/2000/svg"
   version="1.1"
   width="47.5"
   height="47.5"
   id="svg2"
   xml:space="preserve"><defs
     id="defs6"><clipPath
       id="clipPath18"><path
         d="M 0,38 38,38 38,0 0,0 0,38 z"
         id="path20" /></clipPath></defs><g
     transform="matrix(1.25,0,0,-1.25,0,47.5)"
     id="g12"><g
       id="g14"><g
         clip-path="url(#clipPath18)"
         id="g16"><g
           transform="translate(19,33)"
           id="g22"><path
             d="m 0,0 0,-27 c 0,0 -19,-8 -12,1 -3,0 -6,-1 -6,2 0,3 4,5 4,5 0,0 -7,0 -1,8 0,0 -6,2 2,7 0,0 -6,6.072 7,3 0,0 0,5 2,5 2,0 4,-4 4,-4"
             id="path24"
             style="fill:#000000;fill-opacity:1;fill-rule:nonzero;stroke:none" /></g><g
           transform="translate(19,33)"
           id="g26"><path
             d="m 0,0 0,-27 c 0,0 19,-8 12,1 3,0 6,-1 6,2 0,3 -4,5 -4,5 0,0 7,0 1,8 0,0 6,2 -2,7 0,0 6,6.018 -7,3 C 6,-1 6,4 4,4 2,4 0,0 0,0"
             id="path28"
             style="fill:#000000;fill-opacity:1;fill-rule:nonzero;stroke:none" /></g><g
           transform="translate(7,16.4375)"
           id="g30"><path
             d="M 0,0 C 0,12.563 5.373,15.438 12,15.438 18.627,15.438 24,12.563 24,0 24,-8.525 19.969,-15.438 12,-15.438 4.004,-15.438 0,-8.525 0,0"
             id="path32"
             style="fill:#dd2e44;fill-opacity:1;fill-rule:nonzero;stroke:none" /></g><g
           transform="translate(21,11)"
           id="g34"><path
             d="m 0,0 -1,0 c -0.553,0 -1,0.447 -1,1 0,0.553 0.447,1 1,1 L 0,2 C 0.553,2 1,1.553 1,1 1,0.447 0.553,0 0,0"
             id="path36"
             style="fill:#a0041e;fill-opacity:1;fill-rule:nonzero;stroke:none" /></g><g
           transform="translate(18,11)"
           id="g38"><path
             d="m 0,0 -1,0 c -0.552,0 -1,0.447 -1,1 0,0.553 0.448,1 1,1 L 0,2 C 0.552,2 1,1.553 1,1 1,0.447 0.552,0 0,0"
             id="path40"
             style="fill:#a0041e;fill-opacity:1;fill-rule:nonzero;stroke:none" /></g><g
           transform="translate(14.8599,27.5112)"
           id="g42"><path
             d="M 0,0 C 0.028,0.049 0.051,0.101 0.071,0.156 0.254,0.668 0.024,1.236 -0.483,1.431 -0.51,1.441 -2.86,2.524 -5.86,8.879 l 0,0.002 0,0.002 c 0,0.058 -0.109,0.1 -0.143,0.151 C -6.04,9.089 -6.087,9.151 -6.134,9.198 -6.224,9.287 -6.34,9.357 -6.455,9.407 -6.486,9.42 -6.53,9.42 -6.563,9.43 c -0.089,0.028 -0.181,0.053 -0.275,0.055 -0.007,0 -0.014,0.004 -0.02,0.004 -0.049,0 -0.091,-0.021 -0.138,-0.028 C -7.062,9.453 -7.129,9.455 -7.194,9.432 -7.204,9.428 -7.211,9.42 -7.221,9.417 -7.279,9.394 -7.327,9.356 -7.379,9.323 -7.436,9.288 -7.495,9.258 -7.542,9.213 -7.583,9.175 -7.61,9.127 -7.644,9.083 -7.686,9.027 -7.73,8.974 -7.76,8.91 -7.783,8.862 -7.791,8.809 -7.806,8.756 -7.826,8.685 -7.846,8.615 -7.85,8.54 -7.851,8.522 -7.86,8.507 -7.86,8.489 c 0,-0.268 0.063,-6.603 5.485,-9.857 0.162,-0.097 0.339,-0.143 0.514,-0.143 0.176,0 0.349,0.049 0.501,0.136 0.018,-0.009 0.035,-0.021 0.053,-0.03 0.143,-0.072 0.296,-0.106 0.446,-0.106 0.367,0 0.72,0.202 0.896,0.553 C 0.192,-0.642 0.167,-0.283 0,0"
             id="path44"
             style="fill:#ffac33;fill-opacity:1;fill-rule:nonzero;stroke:none" /></g><g
           transform="translate(30.9902,36.0503)"
           id="g46"><path
             d="M 0,0 C -0.004,0.075 -0.023,0.145 -0.044,0.216 -0.059,0.269 -0.067,0.323 -0.09,0.372 -0.119,0.434 -0.162,0.484 -0.203,0.539 -0.237,0.585 -0.266,0.635 -0.308,0.674 -0.354,0.717 -0.41,0.746 -0.464,0.78 -0.519,0.814 -0.568,0.854 -0.629,0.877 -0.639,0.881 -0.646,0.889 -0.655,0.893 -0.721,0.916 -0.786,0.913 -0.853,0.922 -0.898,0.929 -0.939,0.95 -0.987,0.95 l -0.003,0 C -0.997,0.95 -1.002,0.946 -1.009,0.946 -1.111,0.944 -1.209,0.918 -1.306,0.886 -1.33,0.877 -1.358,0.878 -1.383,0.868 -1.611,0.771 -1.805,0.589 -1.909,0.344 -4.635,-6.015 -7.301,-7.098 -7.307,-7.101 -7.83,-7.276 -8.113,-7.842 -7.938,-8.366 c 0.021,-0.065 0.048,-0.127 0.082,-0.184 -0.163,-0.281 -0.185,-0.635 -0.029,-0.947 0.176,-0.351 0.529,-0.553 0.896,-0.553 0.15,0 0.302,0.034 0.446,0.106 0.019,0.009 0.034,0.021 0.053,0.03 0.152,-0.087 0.325,-0.136 0.501,-0.136 0.175,0 0.352,0.047 0.513,0.143 5.423,3.254 5.486,9.59 5.486,9.858 C 0.01,-0.032 0.001,-0.017 0,0"
             id="path48"
             style="fill:#ffac33;fill-opacity:1;fill-rule:nonzero;stroke:none" /></g><g
           transform="translate(19,4)"
           id="g50"><path
             d="m 0,0 c -3.171,0 -7.194,1.368 -7.194,2.905 0,0.408 0.229,0.778 0.597,0.963 C -6.42,3.957 -6.226,4 -6,4 L 6.238,4 6.597,3.868 7.146,3.591 7.193,2.905 C 7.193,1.368 3.171,0 0,0"
             id="path52"
             style="fill:#000000;fill-opacity:1;fill-rule:nonzero;stroke:none" /></g><g
           transform="translate(14,6)"
           id="g54"><path
             d="M 0,0 C -0.552,0 -1,0.447 -1,1 -1,1.553 -0.552,2 0,2 0.552,2 1,1.553 1,1 1,0.447 0.552,0 0,0"
             id="path56"
             style="fill:#ffac33;fill-opacity:1;fill-rule:nonzero;stroke:none" /></g><g
           transform="translate(24,6)"
           id="g58"><path
             d="M 0,0 C -0.553,0 -1,0.447 -1,1 -1,1.553 -0.553,2 0,2 0.553,2 1,1.553 1,1 1,0.447 0.553,0 0,0"
             id="path60"
             style="fill:#ffac33;fill-opacity:1;fill-rule:nonzero;stroke:none" /></g><g
           transform="translate(21,5)"
           id="g62"><path
             d="m 0,0 c -0.553,0 -1,0.447 -1,1 l 0,1 C -1,2.553 -0.553,3 0,3 0.553,3 1,2.553 1,2 L 1,1 C 1,0.447 0.553,0 0,0"
             id="path64"
             style="fill:#ffac33;fill-opacity:1;fill-rule:nonzero;stroke:none" /></g><g
           transform="translate(17,5)"
           id="g66"><path
             d="m 0,0 c -0.552,0 -1,0.447 -1,1 l 0,1 C -1,2.553 -0.552,3 0,3 0.552,3 1,2.553 1,2 L 1,1 C 1,0.447 0.552,0 0,0"
             id="path68"
             style="fill:#ffac33;fill-opacity:1;fill-rule:nonzero;stroke:none" /></g><g
           transform="translate(15,15)"
           id="g70"><path
             d="m 0,0 c -1.104,0 -2,0.896 -2,2 l 0,3 C -2,6.104 -1.104,7 0,7 1.104,7 2,6.104 2,5 L 2,2 C 2,0.896 1.104,0 0,0"
             id="path72"
             style="fill:#000000;fill-opacity:1;fill-rule:nonzero;stroke:none" /></g><g
           transform="translate(23,15)"
           id="g74"><path
             d="m 0,0 c -1.104,0 -2,0.896 -2,2 l 0,3 C -2,6.104 -1.104,7 0,7 1.104,7 2,6.104 2,5 L 2,2 C 2,0.896 1.104,0 0,0"
             id="path76"
             style="fill:#000000;fill-opacity:1;fill-rule:nonzero;stroke:none" /></g></g></g></g></svg>