<svg xmlns="http://www.w3.org/2000/svg" viewBox="0 0 47.5 47.5" enable-background="new 0 0 47.5 47.5"><defs><clipPath id="a"><path d="M0 38h38V0H0v38z"/></clipPath></defs><g><g><g clip-path="url(#a)" transform="matrix(1.25 0 0 -1.25 0 47.5)"><g><path fill="#e6e7e8" d="M36 19c0 7-2 13-7 16s-10 .78-10 .78v-.03.03S14 38 9 35s-7-9-7-16S1 1 1 1h36s-1 11-1 18"/></g><g><path fill="#662113" d="M19 34.2c4.87 0 13-2.45 13-13 0-10.57 0-13-2.44-13-2.43 0-5.68 2.43-10.56 2.43-4.88 0-8.06-2.44-10.56-2.44C5.72 8.2 6 17.93 6 21.2c0 10.55 8.12 13 13 13"/></g><g><path fill="#fff" d="M33 1v1c0 3.3-2.7 6-6 6H11C7.7 8 5 5.3 5 2V1h28z"/></g><g><path fill="#d79e84" d="M28.75 21.55c0 6.92-4.37 12.54-9.75 12.54-5.4 0-9.75-5.63-9.75-12.55 0-5.6 2.83-10.3 6.75-11.94V8h-3V3h12v5h-3v1.6c3.92 1.64 6.75 6.37 6.75 11.95"/></g><g><path fill="#be1931" d="M19 12.06c-1.98 0-3.03 1-3.15 1.1-.4.4-.4 1.03 0 1.42.4.4 1 .4 1.4.02.05-.04.62-.54 1.75-.54 1.15 0 1.72.52 1.74.54.4.37 1.03.35 1.4-.04.4-.4.4-1 0-1.4-.1-.1-1.16-1.1-3.14-1.1"/></g><g><path fill="#c1694f" d="M20 16h-2c-.55 0-1 .45-1 1s.45 1 1 1h2c.55 0 1-.45 1-1s-.45-1-1-1"/></g><g><path fill="#662113" d="M6.86 17c-.02 0-.05.6-.05.88 0 4.06 2.45-.43 2.45 2.47 0 2.9 1.62 3.26 3.25 4.9.8.8 2.44 2.43 2.44 2.43s4.06-2.43 7.3-2.43c3.26 0 6.5-1.62 6.5-4.87s2.45 1.56 2.45-2.5c0-.3-.04-.88-.06-.88H32c0 1 0 2.6 0 4.13 0 10.56-8.12 14.65-13 14.65-4.88 0-13-4.1-13-14.67 0-.93-.02-2.1 0-4.1h.86z"/></g><g><path fill="#662113" d="M15 19c-.55 0-1 .45-1 1v1c0 .55.45 1 1 1s1-.45 1-1v-1c0-.55-.45-1-1-1"/></g><g><path fill="#662113" d="M23 19c-.55 0-1 .45-1 1v1c0 .55.45 1 1 1s1-.45 1-1v-1c0-.55-.45-1-1-1"/></g><g><path fill="#fff" d="M28.65 31.04c-.48.56-.98 1.08-1.52 1.53C25.7 32.24 22.6 32 19 32c-3.6 0-6.68.23-8.13.57-.53-.45-1.04-.97-1.5-1.53C11.22 30.42 14.83 30 19 30c4.16 0 7.78.42 9.65 1.04"/></g></g></g></g></svg>