<?xml version="1.0" encoding="UTF-8" standalone="no"?><svg xmlns:dc="http://purl.org/dc/elements/1.1/" xmlns:cc="http://creativecommons.org/ns#" xmlns:rdf="http://www.w3.org/1999/02/22-rdf-syntax-ns#" xmlns:svg="http://www.w3.org/2000/svg" xmlns="http://www.w3.org/2000/svg" viewBox="0 0 47.5 47.5" style="enable-background:new 0 0 47.5 47.5;" xml:space="preserve" version="1.1" id="svg2"><metadata id="metadata8"><rdf:RDF><cc:Work rdf:about=""><dc:format>image/svg+xml</dc:format><dc:type rdf:resource="http://purl.org/dc/dcmitype/StillImage"/></cc:Work></rdf:RDF></metadata><defs id="defs6"><clipPath id="clipPath16" clipPathUnits="userSpaceOnUse"><path id="path18" d="M 0,38 38,38 38,0 0,0 0,38 Z"/></clipPath></defs><g transform="matrix(1.25,0,0,-1.25,0,47.5)" id="g10"><g id="g12"><g clip-path="url(#clipPath16)" id="g14"><g transform="translate(36,19.0005)" id="g20"><path id="path22" style="fill:#e6e7e8;fill-opacity:1;fill-rule:nonzero;stroke:none" d="m 0,0 c 0,7.002 -2,13 -7,16 -5,3 -10,0.784 -10,0.784 l 0,-0.034 -0.001,0.034 c 0,0 -4.999,2.216 -9.999,-0.784 -5,-3 -7,-8.998 -7,-16 0,-7.002 -1,-18 -1,-18 l 18,0 18,0 C 1,-18 0,-7.002 0,0"/></g><g transform="translate(18.999,34.1909)" id="g24"><path id="path26" style="fill:#662113;fill-opacity:1;fill-rule:nonzero;stroke:none" d="m 0,0 c 4.876,0 13.001,-2.438 13.001,-13.001 0,-10.564 0,-13.001 -2.438,-13.001 -2.437,0 -5.687,2.437 -10.563,2.437 -4.875,0 -8.056,-2.437 -10.563,-2.437 -2.716,0 -2.438,9.751 -2.438,13.001 C -13.001,-2.438 -4.875,0 0,0"/></g><g transform="translate(33,1)" id="g28"><path id="path30" style="fill:#ffffff;fill-opacity:1;fill-rule:nonzero;stroke:none" d="m 0,0 0,1 c 0,3.313 -2.687,6 -6,6 l -16,0 c -3.313,0 -6,-2.687 -6,-6 l 0,-1 28,0 z"/></g><g transform="translate(28.75,21.5454)" id="g32"><path id="path34" style="fill:#d79e84;fill-opacity:1;fill-rule:nonzero;stroke:none" d="m 0,0 c 0,6.928 -4.366,12.544 -9.751,12.544 -5.385,0 -9.75,-5.616 -9.75,-12.544 0,-5.581 2.834,-10.305 6.751,-11.934 l 0,-1.611 -3,0 0,-5 12,0 0,5 -3,0 0,1.613 C -2.834,-10.303 0,-5.58 0,0"/></g><g transform="translate(18.999,12.0645)" id="g36"><path id="path38" style="fill:#be1931;fill-opacity:1;fill-rule:nonzero;stroke:none" d="m 0,0 c -1.982,0 -3.032,0.992 -3.145,1.105 -0.391,0.39 -0.391,1.024 -10e-4,1.415 0.387,0.386 1.011,0.39 1.402,0.012 C -1.7,2.493 -1.129,2 0,2 1.15,2 1.721,2.512 1.745,2.533 2.145,2.903 2.774,2.89 3.151,2.497 3.527,2.104 3.529,1.49 3.145,1.105 3.031,0.992 1.982,0 0,0"/></g><g transform="translate(20,16)" id="g40"><path id="path42" style="fill:#c1694f;fill-opacity:1;fill-rule:nonzero;stroke:none" d="m 0,0 -2,0 c -0.552,0 -1,0.447 -1,1 0,0.553 0.448,1 1,1 L 0,2 C 0.553,2 1,1.553 1,1 1,0.447 0.553,0 0,0"/></g><g transform="translate(6.8633,17)" id="g44"><path id="path46" style="fill:#662113;fill-opacity:1;fill-rule:nonzero;stroke:none" d="m 0,0 c -0.025,0 -0.052,0.59 -0.052,0.876 0,4.063 2.437,-0.425 2.437,2.47 0,2.895 1.625,3.266 3.25,4.891 0.813,0.812 2.438,2.446 2.438,2.446 0,0 4.063,-2.434 7.314,-2.434 3.25,0 6.5,-1.624 6.5,-4.874 0,-3.25 2.437,1.563 2.437,-2.5 C 24.324,0.586 24.297,0 24.277,0 l 0.853,0 c 0.007,1 0.007,2.608 0.007,4.126 0,10.563 -8.125,14.658 -13.001,14.658 C 7.26,18.784 -0.865,14.674 -0.865,4.11 -0.865,3.169 -0.888,2 -0.855,0 L 0,0 Z"/></g><g transform="translate(15,19)" id="g48"><path id="path50" style="fill:#662113;fill-opacity:1;fill-rule:nonzero;stroke:none" d="m 0,0 c -0.552,0 -1,0.448 -1,1 l 0,1 C -1,2.552 -0.552,3 0,3 0.552,3 1,2.552 1,2 L 1,1 C 1,0.448 0.552,0 0,0"/></g><g transform="translate(23,19)" id="g52"><path id="path54" style="fill:#662113;fill-opacity:1;fill-rule:nonzero;stroke:none" d="m 0,0 c -0.553,0 -1,0.448 -1,1 l 0,1 C -1,2.552 -0.553,3 0,3 0.553,3 1,2.552 1,2 L 1,1 C 1,0.448 0.553,0 0,0"/></g><g transform="translate(28.6475,31.0396)" id="g56"><path id="path58" style="fill:#ffffff;fill-opacity:1;fill-rule:nonzero;stroke:none" d="M 0,0 C -0.477,0.564 -0.981,1.079 -1.516,1.535 -2.957,1.196 -6.052,0.961 -9.647,0.961 c -3.592,0 -6.683,0.234 -8.126,0.572 -0.535,-0.456 -1.04,-0.971 -1.517,-1.534 1.871,-0.619 5.487,-1.038 9.643,-1.038 4.159,0 7.777,0.42 9.647,1.039"/></g></g></g></g></svg>
