<?xml version="1.0" encoding="UTF-8" standalone="no"?>
<!-- Created with Inkscape (http://www.inkscape.org/) -->

<svg
   xmlns:svg="http://www.w3.org/2000/svg"
   xmlns="http://www.w3.org/2000/svg"
   version="1.1"
   width="47.5"
   height="47.5"
   id="svg2"
   xml:space="preserve"><defs
     id="defs6"><clipPath
       id="clipPath18"><path
         d="M 0,38 38,38 38,0 0,0 0,38 z"
         id="path20" /></clipPath></defs><g
     transform="matrix(1.25,0,0,-1.25,0,47.5)"
     id="g12"><g
       id="g14"><g
         clip-path="url(#clipPath18)"
         id="g16"><g
           transform="translate(33,17)"
           id="g22"><path
             d="M 0,0 C 0,2.209 -1.119,4 -2.5,4 -2.512,4 -2.521,3.996 -2.533,3.995 -4.045,10.296 -8.606,14.875 -14,14.875 c -5.394,0 -9.956,-4.579 -11.467,-10.88 C -25.479,3.996 -25.489,4 -25.5,4 -26.881,4 -28,2.209 -28,0 c 0,-2.107 1.021,-3.815 2.314,-3.97 1.223,-6.649 5.985,-11.03 11.686,-11.03 5.7,0 10.463,4.381 11.686,11.03 C -1.021,-3.815 0,-2.107 0,0"
             id="path24"
             style="fill:#d99e82;fill-opacity:1;fill-rule:nonzero;stroke:none" /></g><g
           transform="translate(14,16)"
           id="g26"><path
             d="m 0,0 c -0.552,0 -1,0.447 -1,1 l 0,2 C -1,3.552 -0.552,4 0,4 0.552,4 1,3.552 1,3 L 1,1 C 1,0.447 0.552,0 0,0"
             id="path28"
             style="fill:#3b88c3;fill-opacity:1;fill-rule:nonzero;stroke:none" /></g><g
           transform="translate(24,16)"
           id="g30"><path
             d="m 0,0 c -0.553,0 -1,0.447 -1,1 l 0,2 C -1,3.552 -0.553,4 0,4 0.553,4 1,3.552 1,3 L 1,1 C 1,0.447 0.553,0 0,0"
             id="path32"
             style="fill:#3b88c3;fill-opacity:1;fill-rule:nonzero;stroke:none" /></g><g
           transform="translate(19,6)"
           id="g34"><path
             d="m 0,0 c -4.201,0 -5.491,1.077 -5.707,1.293 -0.391,0.391 -0.391,1.023 0,1.414 0.378,0.379 0.984,0.39 1.376,0.036 C -4.251,2.686 -3.231,2 0,2 3.355,2 4.326,2.739 4.336,2.747 4.726,3.136 5.337,3.117 5.729,2.727 6.119,2.336 6.098,1.684 5.707,1.293 5.491,1.077 4.201,0 0,0"
             id="path36"
             style="fill:#c1694f;fill-opacity:1;fill-rule:nonzero;stroke:none" /></g><g
           transform="translate(20,11)"
           id="g38"><path
             d="m 0,0 -2,0 c -0.552,0 -1,0.447 -1,1 0,0.553 0.448,1 1,1 L 0,2 C 0.553,2 1,1.553 1,1 1,0.447 0.553,0 0,0"
             id="path40"
             style="fill:#c1694f;fill-opacity:1;fill-rule:nonzero;stroke:none" /></g><g
           transform="translate(19,36.0005)"
           id="g42"><path
             d="m 0,0 c 8,0 13,-6 13,-11 0,-5 -1,-7 -2,-5 l -2,4 c 0,0 -6,0 -8,2 0,0 3,-6 -3,0 0,0 1,-4 -5,1 0,0 -3,-2 -4,-7 -0.277,-1.387 -2,0 -2,5 0,5 4,11 13,11"
             id="path44"
             style="fill:#ffd983;fill-opacity:1;fill-rule:nonzero;stroke:none" /></g></g></g></g></svg>