<svg xmlns="http://www.w3.org/2000/svg" viewBox="0 0 47.5 47.5" enable-background="new 0 0 47.5 47.5"><defs><clipPath id="a"><path d="M0 38h38V0H0v38z"/></clipPath></defs><g><g><g clip-path="url(#a)" transform="matrix(1.25 0 0 -1.25 0 47.5)"><g><path fill="#ffd983" d="M20 33c6 0 16-3 16-16s0-16-3-16-7 3-13 3-9.9-3-13-3C3.66 1 4 13 4 17c0 13 10 16 16 16"/></g><g><path fill="#d99e82" d="M8 17.44c0 8.52 5.37 15.44 12 15.44s12-6.92 12-15.44C32 8.9 26.63 2 20 2S8 8.9 8 17.44"/></g><g><path fill="#dd2e44" d="M20 6c-2.35 0-3.58 1.16-3.7 1.3-.4.38-.4 1.02 0 1.4.38.4 1 .4 1.4.02.05-.05.8-.72 2.3-.72 1.52 0 2.27.7 2.3.72.4.37 1.03.36 1.4-.03.4-.4.4-1.02 0-1.4C23.6 7.15 22.36 6 20 6"/></g><g><path fill="#c1694f" d="M21 11h-2c-.55 0-1 .45-1 1s.45 1 1 1h2c.55 0 1-.45 1-1s-.45-1-1-1"/></g><g><path fill="#ffd983" d="M5.06 12c-.03.33-.06.65-.06 1 0 5 3-.56 3 3s2 4 4 6l3 3s5-3 9-3 8-2 8-6 3 2 3-3c0-.35-.03-.67-.06-1H36c0 1.48 0 3.13 0 5 0 13-10 18-16 18S4 30 4 17c0-1.16-.03-3 0-5h1.06z"/></g><g><path fill="#a7a9ac" d="M10 31h20v1l-3 1-2 3-3-1-2 2-2-2-3 1-2-3-3-1v-1z"/></g><g><path fill="#f1f2f2" d="M19 33.5c0 .83.45 1.5 1 1.5s1-.67 1-1.5-.45-1.5-1-1.5-1 .67-1 1.5"/></g><g><path fill="#f1f2f2" d="M15 33c0 .55.45 1 1 1s1-.45 1-1-.45-1-1-1-1 .45-1 1"/></g><g><path fill="#f1f2f2" d="M23 33c0 .55.45 1 1 1s1-.45 1-1-.45-1-1-1-1 .45-1 1"/></g><g><path fill="#3b88c3" d="M15 14c-.55 0-1 .45-1 1v2c0 .55.45 1 1 1s1-.45 1-1v-2c0-.55-.45-1-1-1"/></g><g><path fill="#3b88c3" d="M25 14c-.55 0-1 .45-1 1v2c0 .55.45 1 1 1s1-.45 1-1v-2c0-.55-.45-1-1-1"/></g></g></g></g></svg>