<?xml version="1.0" encoding="UTF-8" standalone="no"?><svg xmlns:dc="http://purl.org/dc/elements/1.1/" xmlns:cc="http://creativecommons.org/ns#" xmlns:rdf="http://www.w3.org/1999/02/22-rdf-syntax-ns#" xmlns:svg="http://www.w3.org/2000/svg" xmlns="http://www.w3.org/2000/svg" viewBox="0 0 47.5 47.5" style="enable-background:new 0 0 47.5 47.5;" xml:space="preserve" version="1.1" id="svg2"><metadata id="metadata8"><rdf:RDF><cc:Work rdf:about=""><dc:format>image/svg+xml</dc:format><dc:type rdf:resource="http://purl.org/dc/dcmitype/StillImage"/></cc:Work></rdf:RDF></metadata><defs id="defs6"/><g transform="matrix(1.25,0,0,-1.25,0,47.5)" id="g10"><path id="path12" style="fill:#553986;fill-opacity:1;fill-rule:nonzero;stroke:none" d="m 31,6 -4,0 0,-4 4,0 0,4 z"/><path id="path14" style="fill:#553986;fill-opacity:1;fill-rule:nonzero;stroke:none" d="M 7,2 11,2 11,6 7,6 7,2 Z"/><path id="path16" style="fill:#553986;fill-opacity:1;fill-rule:nonzero;stroke:none" d="m 21,24 4,0 0,-8 -4,0 0,8 z m -4,-8 -4,0 0,8 4,0 0,-8 z m 14,11 -2,0 0,2 -2,0 0,2 -3,0 0,4 -2,0 0,-4 -6,0 0,4 -2,0 0,-4 -3,0 0,-2 -2,0 0,-2 -2,0 0,-7 -4,0 0,-2 4,0 0,-7 4,0 0,-5 5,0 0,5 6,0 0,-5 5,0 0,5 4,0 0,7 4,0 0,2 -4,0 0,7 z"/><path id="path18" style="fill:#553986;fill-opacity:1;fill-rule:nonzero;stroke:none" d="m 35,20 2,0 0,11 -2,0 0,-11 z"/><path id="path20" style="fill:#553986;fill-opacity:1;fill-rule:nonzero;stroke:none" d="M 1,20 3,20 3,31 1,31 1,20 Z"/></g></svg>
