<svg xmlns="http://www.w3.org/2000/svg" viewBox="0 0 47.5 47.5" enable-background="new 0 0 47.5 47.5"><defs><clipPath id="a"><path d="M0 38h38V0H0v38z"/></clipPath></defs><g><g><g clip-path="url(#a)" transform="matrix(1.25 0 0 -1.25 0 47.5)"><g><path d="M19 33V6S0-2 7 7C4 7 1 6 1 9s4 5 4 5-7 0-1 8c0 0-6 2 2 7 0 0-6 6.07 7 3 0 0 0 5 2 5s4-4 4-4"/></g><g><path d="M19 33V6s19-8 12 1c3 0 6-1 6 2s-4 5-4 5 7 0 1 8c0 0 6 2-2 7 0 0 6 6.02-7 3 0 0 0 5-2 5s-4-4-4-4"/></g><g><path fill="#dd2e44" d="M7 16.44C7 29 12.37 31.88 19 31.88S31 29 31 16.44C31 7.9 26.97 1 19 1 11 1 7 7.9 7 16.44"/></g><g><path fill="#a0041e" d="M21 11h-1c-.55 0-1 .45-1 1s.45 1 1 1h1c.55 0 1-.45 1-1s-.45-1-1-1"/></g><g><path fill="#a0041e" d="M18 11h-1c-.55 0-1 .45-1 1s.45 1 1 1h1c.55 0 1-.45 1-1s-.45-1-1-1"/></g><g><path fill="#ffac33" d="M14.86 27.5c.03.06.05.1.07.17.18.5-.05 1.08-.55 1.27-.03 0-2.38 1.1-5.38 7.45 0 .05-.1.1-.14.15-.04.05-.1.1-.13.16-.1.1-.2.17-.33.22-.03 0-.07 0-.1.02-.1.03-.18.05-.28.06 0 0 0 0-.02 0-.05 0-.1-.02-.14-.03-.06 0-.13 0-.2-.03 0 0 0 0-.02 0-.06-.03-.1-.07-.16-.1-.06-.04-.12-.07-.16-.12-.04-.03-.07-.08-.1-.13-.05-.06-.1-.1-.12-.18-.02-.05-.03-.1-.05-.15-.02-.07-.04-.14-.04-.22 0-.02 0-.03 0-.05 0-.27.06-6.6 5.48-9.86.17-.1.34-.14.52-.14.17 0 .35.05.5.14.02 0 .03-.02.05-.03.15-.07.3-.1.45-.1.37 0 .72.2.9.55.15.32.13.68-.04.96"/></g><g><path fill="#ffac33" d="M31 36.05c0 .08-.03.15-.05.22-.02.05-.03.1-.05.15-.03.06-.07.1-.1.17-.05.04-.08.1-.12.12-.04.05-.1.08-.15.1-.06.04-.1.08-.17.1 0 0-.02.02-.02.02-.07.03-.14.02-.2.03-.05 0-.1.03-.14.03 0 0 0 0-.02 0-.1 0-.2-.03-.3-.06-.02 0-.05 0-.07-.02-.22-.1-.4-.28-.52-.53-2.72-6.36-5.4-7.45-5.4-7.45-.52-.18-.8-.74-.63-1.27.02-.06.05-.12.08-.18-.16-.28-.18-.63-.02-.95.18-.35.53-.55.9-.55.15 0 .3.03.45.1.02.02.03.03.05.04.15-.1.33-.14.5-.14.18 0 .35.05.5.14C30.95 29.4 31 35.74 31 36c0 .02 0 .03 0 .05"/></g><g><path d="M19 4c-3.17 0-7.2 1.37-7.2 2.9 0 .4.24.78.6.97.18.1.37.13.6.13h12.24l.36-.13.55-.28.04-.7C26.2 5.38 22.16 4 19 4"/></g><g><path fill="#ffac33" d="M14 6c-.55 0-1 .45-1 1s.45 1 1 1 1-.45 1-1-.45-1-1-1"/></g><g><path fill="#ffac33" d="M24 6c-.55 0-1 .45-1 1s.45 1 1 1 1-.45 1-1-.45-1-1-1"/></g><g><path fill="#ffac33" d="M21 5c-.55 0-1 .45-1 1v1c0 .55.45 1 1 1s1-.45 1-1V6c0-.55-.45-1-1-1"/></g><g><path fill="#ffac33" d="M17 5c-.55 0-1 .45-1 1v1c0 .55.45 1 1 1s1-.45 1-1V6c0-.55-.45-1-1-1"/></g><g><path d="M15 15c-1.1 0-2 .9-2 2v3c0 1.1.9 2 2 2s2-.9 2-2v-3c0-1.1-.9-2-2-2"/></g><g><path d="M23 15c-1.1 0-2 .9-2 2v3c0 1.1.9 2 2 2s2-.9 2-2v-3c0-1.1-.9-2-2-2"/></g></g></g></g></svg>