<?xml version="1.0" encoding="UTF-8" standalone="no"?><svg xmlns:dc="http://purl.org/dc/elements/1.1/" xmlns:cc="http://creativecommons.org/ns#" xmlns:rdf="http://www.w3.org/1999/02/22-rdf-syntax-ns#" xmlns:svg="http://www.w3.org/2000/svg" xmlns="http://www.w3.org/2000/svg" viewBox="0 0 47.5 47.5" style="enable-background:new 0 0 47.5 47.5;" xml:space="preserve" version="1.1" id="svg2"><metadata id="metadata8"><rdf:RDF><cc:Work rdf:about=""><dc:format>image/svg+xml</dc:format><dc:type rdf:resource="http://purl.org/dc/dcmitype/StillImage"/></cc:Work></rdf:RDF></metadata><defs id="defs6"><clipPath id="clipPath16" clipPathUnits="userSpaceOnUse"><path id="path18" d="M 0,38 38,38 38,0 0,0 0,38 Z"/></clipPath></defs><g transform="matrix(1.25,0,0,-1.25,0,47.5)" id="g10"><g id="g12"><g clip-path="url(#clipPath16)" id="g14"><g transform="translate(29,16)" id="g20"><path id="path22" style="fill:#da2f47;fill-opacity:1;fill-rule:nonzero;stroke:none" d="m 0,0 c 0,-2.209 -3,-15 -9,-15 l -8,0 c -6,0 -9,12.791 -9,15 l 0,17 c 0,2.209 1.791,4 4,4 l 18,0 c 2.209,0 4,-1.791 4,-4 L 0,0 Z"/></g><g transform="translate(15.4409,27.8286)" id="g24"><path id="path26" style="fill:#f5f8fa;fill-opacity:1;fill-rule:nonzero;stroke:none" d="M 0,0 C 2.138,-2.343 2.715,-5.509 1.29,-7.071 -0.133,-8.633 -3.022,-8 -5.159,-5.657 -7.295,-3.314 -7.874,-0.147 -6.448,1.414 -5.024,2.976 -2.135,2.343 0,0"/></g><g transform="translate(16.9336,24.2935)" id="g28"><path id="path30" style="fill:#292f33;fill-opacity:1;fill-rule:nonzero;stroke:none" d="m 0,0 c 0.609,-0.781 0.609,-2.048 0,-2.829 -0.606,-0.781 -1.593,-0.781 -2.201,0 -0.609,0.781 -0.609,2.048 0,2.829 0.608,0.781 1.595,0.781 2.201,0"/></g><g transform="translate(22.7266,27.729)" id="g32"><path id="path34" style="fill:#f5f8fa;fill-opacity:1;fill-rule:nonzero;stroke:none" d="M 0,0 C -1.826,-2.342 -2.318,-5.509 -1.1,-7.071 0.115,-8.633 2.58,-8 4.404,-5.657 c 1.825,2.343 2.317,5.51 1.1,7.071 C 4.289,2.976 1.824,2.343 0,0"/></g><g transform="translate(22.1758,24.1934)" id="g36"><path id="path38" style="fill:#292f33;fill-opacity:1;fill-rule:nonzero;stroke:none" d="m 0,0 c -0.609,-0.781 -0.609,-2.047 0,-2.828 0.607,-0.781 1.596,-0.781 2.201,0 0.612,0.781 0.612,2.047 0,2.828 C 1.596,0.781 0.607,0.781 0,0"/></g><g transform="translate(21.8916,26)" id="g40"><path id="path42" style="fill:#292f33;fill-opacity:1;fill-rule:nonzero;stroke:none" d="M 0,0 C -0.43,0 -0.862,0.138 -1.228,0.422 -2.099,1.1 -2.256,2.357 -1.577,3.229 l 4.67,6 C 3.771,10.101 5.026,10.257 5.899,9.578 6.771,8.9 6.928,7.643 6.249,6.771 l -4.67,-6 C 1.185,0.265 0.596,0 0,0"/></g><g transform="translate(17.2212,26)" id="g44"><path id="path46" style="fill:#292f33;fill-opacity:1;fill-rule:nonzero;stroke:none" d="m 0,0 c -0.596,0 -1.185,0.265 -1.58,0.771 l -4.672,6 c -0.679,0.872 -0.522,2.128 0.349,2.807 0.872,0.679 2.129,0.523 2.807,-0.349 l 4.673,-6 C 2.255,2.357 2.099,1.101 1.228,0.422 0.862,0.138 0.429,0 0,0"/></g><g transform="translate(25,5.999)" id="g48"><path id="path50" style="fill:#fdd888;fill-opacity:1;fill-rule:nonzero;stroke:none" d="M 0,0 C -0.81,0 -1.571,0.496 -1.873,1.299 -1.977,1.558 -3.04,4.001 -6,4.001 c -2.96,0 -4.023,-2.443 -4.135,-2.722 -0.407,-1.017 -1.563,-1.527 -2.583,-1.133 -1.023,0.397 -1.539,1.531 -1.155,2.557 0.081,0.217 2.054,5.298 7.873,5.298 5.819,0 7.792,-5.081 7.873,-5.298 C 2.261,1.669 1.736,0.517 0.702,0.128 0.471,0.042 0.233,0 0,0"/></g><g transform="translate(19.5547,15)" id="g52"><path id="path54" style="fill:#292f33;fill-opacity:1;fill-rule:nonzero;stroke:none" d="M 0,0 C 0,0 4.482,0.553 7.05,-4 9.869,-9 9.869,1 9.164,2 8.46,3 7.713,0.614 6.344,1.1 3.523,2.1 0,0 0,0"/></g><g transform="translate(19.5547,15)" id="g56"><path id="path58" style="fill:#292f33;fill-opacity:1;fill-rule:nonzero;stroke:none" d="m 0,0 c 0,0 -5.888,0.553 -9.263,-4 -3.703,-5 -3.703,5 -2.778,6 0.927,1 1.908,-1.725 3.706,-1.239 C -4.63,1.761 0,0 0,0"/></g><g transform="translate(33.2617,22)" id="g60"><path id="path62" style="fill:#e75a70;fill-opacity:1;fill-rule:nonzero;stroke:none" d="m 0,0 c -0.09,0 -0.174,-0.02 -0.262,-0.029 l 0,0.029 -13.845,0 c -1.511,0 -2.735,-1.343 -2.735,-3 0,-1.657 1.224,-3 2.735,-3 l 13.845,0 0,0.029 C -0.174,-5.98 -0.09,-6 0,-6 c 1.513,0 2.738,1.343 2.738,3 0,1.656 -1.225,3 -2.738,3"/></g></g></g></g></svg>
