<?xml version="1.0" encoding="UTF-8" standalone="no"?><svg xmlns:dc="http://purl.org/dc/elements/1.1/" xmlns:cc="http://creativecommons.org/ns#" xmlns:rdf="http://www.w3.org/1999/02/22-rdf-syntax-ns#" xmlns:svg="http://www.w3.org/2000/svg" xmlns="http://www.w3.org/2000/svg" viewBox="0 0 47.5 47.5" style="enable-background:new 0 0 47.5 47.5;" xml:space="preserve" version="1.1" id="svg2"><metadata id="metadata8"><rdf:RDF><cc:Work rdf:about=""><dc:format>image/svg+xml</dc:format><dc:type rdf:resource="http://purl.org/dc/dcmitype/StillImage"/></cc:Work></rdf:RDF></metadata><defs id="defs6"><clipPath id="clipPath16" clipPathUnits="userSpaceOnUse"><path id="path18" d="M 0,38 38,38 38,0 0,0 0,38 Z"/></clipPath></defs><g transform="matrix(1.25,0,0,-1.25,0,47.5)" id="g10"><g id="g12"><g clip-path="url(#clipPath16)" id="g14"><g transform="translate(37,18.5)" id="g20"><path id="path22" style="fill:#d99e82;fill-opacity:1;fill-rule:nonzero;stroke:none" d="M 0,0 C 0,1.639 -0.97,3.004 -2.273,3.385 -3.633,10.842 -10.15,16.5 -18,16.5 -25.85,16.5 -32.367,10.842 -33.727,3.385 -35.03,3.004 -36,1.639 -36,0 c 0,-1.736 1.087,-3.168 2.51,-3.442 1.759,-6.926 8.017,-12.058 15.49,-12.058 7.473,0 13.731,5.132 15.49,12.058 C -1.088,-3.168 0,-1.736 0,0"/></g><g transform="translate(19,12)" id="g24"><path id="path26" style="fill:#662214;fill-opacity:1;fill-rule:nonzero;stroke:none" d="m 0,0 c -3,0 -4,1 -4,-1 0,-2 2,-4 4,-4 2,0 4,2 4,4 0,2 -1,1 -4,1"/></g><g transform="translate(26,18.5)" id="g28"><path id="path30" style="fill:#662214;fill-opacity:1;fill-rule:nonzero;stroke:none" d="M 0,0 C 0,-1.381 -1.12,-2.5 -2.5,-2.5 -3.88,-2.5 -5,-1.381 -5,0 -5,1.381 -3.88,2.5 -2.5,2.5 -1.12,2.5 0,1.381 0,0"/></g><g transform="translate(17,18.5)" id="g32"><path id="path34" style="fill:#662214;fill-opacity:1;fill-rule:nonzero;stroke:none" d="M 0,0 C 0,-1.381 -1.12,-2.5 -2.5,-2.5 -3.88,-2.5 -5,-1.381 -5,0 -5,1.381 -3.88,2.5 -2.5,2.5 -1.12,2.5 0,1.381 0,0"/></g><g transform="translate(19,11)" id="g36"><path id="path38" style="fill:#ffffff;fill-opacity:1;fill-rule:nonzero;stroke:none" d="M 0,0 2,0 2,-1 C 2,-1 2,-2 1,-2 0,-2 0,-1 0,-1 L 0,0 Z"/></g><g transform="translate(18.9819,26)" id="g40"><path id="path42" style="fill:#662214;fill-opacity:1;fill-rule:nonzero;stroke:none" d="M 0,0 -0.031,0 C -1.219,0 -2.332,0.458 -3.166,1.304 -3.912,2.06 -4.304,3.091 -4.242,4.151 -4.21,4.703 -3.751,5.112 -3.185,5.086 -2.634,5.054 -2.213,4.579 -2.246,4.027 -2.274,3.532 -2.091,3.044 -1.742,2.69 -1.283,2.225 -0.671,1.966 -0.017,1.961 0.636,1.997 1.252,2.208 1.718,2.667 3.016,3.947 3.031,6.044 1.75,7.343 0.052,9.064 -2.729,9.083 -4.452,7.385 -4.846,6.997 -5.479,7.002 -5.866,7.395 -6.253,7.788 -6.249,8.421 -5.856,8.809 -3.35,11.281 0.701,11.253 3.174,8.748 5.229,6.664 5.206,3.316 3.123,1.262 2.285,0.435 1.176,0 0,0"/></g></g></g></g></svg>
