<svg xmlns="http://www.w3.org/2000/svg" viewBox="0 0 47.5 47.5" enable-background="new 0 0 47.5 47.5"><defs><clipPath id="a"><path d="M0 38h38V0H0v38z"/></clipPath></defs><g><g><g clip-path="url(#a)" transform="matrix(1.25 0 0 -1.25 0 47.5)"><g><path fill="#e1e8ed" d="M1 6.9s0-.02 0-.03c0-.1.02-.22.03-.33 0-.07 0-.15.02-.22s.03-.14.05-.2C1.72 3.22 5.43 1 9.94 1c4.5 0 8.22 2.23 8.84 5.12.02.07.03.13.04.2.02.07.02.15.03.23 0 .1.03.2.03.32 0 0 0 .02 0 .04 0 .03 0 .04 0 .06-.06 1.65-1.37 2.98-2.98 2.98-1.62 0-2.92-1.33-2.97-2.98h-.02c0 .03.02.06.02.1 0 1.7-1.34 3.07-2.98 3.07-1.65 0-2.98-1.38-2.98-3.08 0-.03 0-.06 0-.1-.06 1.66-1.36 3-2.98 3-1.62 0-2.92-1.34-2.97-3 0 0 0-.02 0-.04"/></g><g><path fill="#e1e8ed" d="M19.1 6.78c-.02 0-.02-.02-.02-.04 0-.1.02-.2.03-.32.02-.07.02-.15.04-.23 0-.07.03-.14.04-.2C19.8 3.1 23.5.87 28.02.87c4.5 0 8.23 2.22 8.84 5.1.02.08.04.15.05.2.02.1.02.17.03.24 0 .1.03.2.03.32 0 .02 0 .03 0 .04v.06C36.9 8.5 35.6 9.8 33.97 9.8c-1.6 0-2.92-1.3-2.97-2.96 0 .03 0 .06 0 .1C31 8.6 29.67 10 28.02 10c-1.64 0-2.98-1.37-2.98-3.07 0-.03 0-.06 0-.1-.06 1.66-1.36 2.98-2.98 2.98-1.6 0-2.92-1.3-2.97-2.96h-.02c0-.02 0-.04 0-.06"/></g><g><path fill="#d99e82" d="M31 16c0-6.63-5.37-12-12-12S7 9.37 7 16s5.37 12 12 12 12-5.37 12-12"/></g><g><path fill="#c1694f" d="M19 31.8c-7.44 0-13.5-6.06-13.5-13.5 0-1.9.4-3.76 1.18-5.5.1-.2.3-.32.52-.3.22.04.4.2.43.43.4 2.75 2.58 4.7 4.5 6.43 1.8 1.6 3.5 3.12 3.46 5.04 6.5-1.17 14-6.02 14.77-11.47.03-.22.2-.4.43-.43.02 0 .04 0 .06 0 .2 0 .38.1.46.3.78 1.74 1.18 3.6 1.18 5.5 0 7.44-6.06 13.5-13.5 13.5"/></g><g><path fill="#642116" d="M15 10h8s-1-2-4-2-4 2-4 2"/></g><g><path fill="#3b88c3" d="M17 15c0-.55-.45-1-1-1s-1 .45-1 1v2c0 .55.45 1 1 1s1-.45 1-1v-2z"/></g><g><path fill="#3b88c3" d="M23 15c0-.55-.45-1-1-1s-1 .45-1 1v2c0 .55.45 1 1 1s1-.45 1-1v-2z"/></g><g><path fill="#8ccaf7" d="M19 28c-4.97 0-9 1.57-9 3.5s4.03 3.5 9 3.5 9-1.57 9-3.5-4.03-3.5-9-3.5m0 9c-6.63 0-12-2.7-12-6s5.37-6 12-6 12 2.7 12 6-5.37 6-12 6"/></g></g></g></g></svg>