<svg xmlns="http://www.w3.org/2000/svg" viewBox="0 0 47.5 47.5" enable-background="new 0 0 47.5 47.5"><defs><clipPath id="a"><path d="M0 38h38V0H0v38z"/></clipPath></defs><g><g><g clip-path="url(#a)" transform="matrix(1.25 0 0 -1.25 0 47.5)"><g><path fill="#66757f" d="M26.07 26.07c-.25 0-.5.1-.7.3-.4.4-.4 1.02 0 1.4l7.77 7.8c.4.38 1.03.38 1.42 0 .4-.4.4-1.04 0-1.43l-7.78-7.78c-.2-.2-.45-.3-.7-.3"/></g><g><path fill="#ccd6dd" d="M7.7 4.44c-.8-.78-2.06-.78-2.84 0L3.44 5.86c-.78.78-.78 2.05 0 2.83l4.95 4.94c.77.78 2.04.78 2.82 0l1.42-1.42c.78-.78.78-2.05 0-2.83L7.7 4.43z"/></g><g><path fill="#99aab5" d="M27.84 24.6c-.6-.6-1.54-.6-2.12 0l-2.12 2.12c-.6.58-.6 1.53 0 2.12.58.6 1.53.6 2.12 0l2.12-2.12c.58-.6.58-1.54 0-2.12"/></g><g><path fill="#e1e8ed" d="M15.46 9.4c-.78-.8-2.04-.8-2.82 0L8.4 13.63c-.8.78-.8 2.04 0 2.82l12 12.03c.8.77 2.06.77 2.84 0l4.25-4.26c.77-.78.77-2.04 0-2.83l-12.04-12z"/></g><g><path fill="#dd2e44" d="M19.7 13.64c-.77-.78-1.33-.08-2.1.7l-4.26 4.25c-.78.77-1.48 1.33-.7 2.1l7.77 7.8c.8.77 2.06.77 2.84 0l4.25-4.26c.77-.78.77-2.04 0-2.83l-7.8-7.76z"/></g><g><path fill="#99aab5" d="M15.82 6.92c-.6-.6-1.54-.6-2.12 0L5.92 14.7c-.6.58-.6 1.53 0 2.12.58.58 1.53.58 2.12 0l7.78-7.78c.58-.6.58-1.54 0-2.12"/></g><g><path fill="#99aab5" d="M8.75 2.68c-.6-.6-1.54-.6-2.12 0L1.68 7.63c-.6.58-.6 1.53 0 2.12.58.58 1.53.58 2.12 0L8.75 4.8c.58-.6.58-1.54 0-2.12"/></g><g><path fill="#dd2e44" d="M34.88 20.5c-.37.58-.88 1.38-1.53 2.67-.13.27-.57.27-.7 0-.65-1.3-1.16-2.1-1.53-2.67-.53-.82-.84-1.3-.84-2.17 0-1.5 1.22-2.72 2.72-2.72 1.5 0 2.72 1.23 2.72 2.73 0 .86-.3 1.35-.84 2.17"/></g><g><path fill="#dd2e44" d="M30.88 11.5c-.37.58-.88 1.38-1.53 2.67-.13.27-.57.27-.7 0-.65-1.3-1.16-2.1-1.53-2.67-.53-.82-.84-1.3-.84-2.17 0-1.5 1.22-2.72 2.72-2.72 1.5 0 2.72 1.23 2.72 2.73 0 .86-.3 1.35-.84 2.17"/></g></g></g></g></svg>