<?xml version="1.0" encoding="UTF-8" standalone="no"?><svg xmlns:svg="http://www.w3.org/2000/svg" xmlns="http://www.w3.org/2000/svg" version="1.1" viewBox="0 0 47.5 47.5" style="enable-background:new 0 0 47.5 47.5;" id="svg2" xml:space="preserve"><defs id="defs6"><clipPath id="clipPath18"><path d="M 0,38 38,38 38,0 0,0 0,38 z" id="path20"/></clipPath></defs><g transform="matrix(1.25,0,0,-1.25,0,47.5)" id="g12"><g id="g14"><g clip-path="url(#clipPath18)" id="g16"><g transform="translate(31,17.3438)" id="g22"><path d="m 0,0 c 0,-6.627 -5.373,-12 -12,-12 -6.627,0 -12,5.373 -12,12 0,6.628 5.373,12 12,12 C -5.373,12 0,6.628 0,0" id="path24" style="fill:#642116;fill-opacity:1;fill-rule:nonzero;stroke:none"/></g><g transform="translate(21,29)" id="g26"><path d="m 0,0 c 0,-3.866 -3.134,-7 -7,-7 -3.866,0 -7,3.134 -7,7 0,3.866 3.134,7 7,7 3.866,0 7,-3.134 7,-7" id="path28" style="fill:#642116;fill-opacity:1;fill-rule:nonzero;stroke:none"/></g><g transform="translate(9,26)" id="g30"><path d="m 0,0 c 0,-6.075 4.925,-11 11,-11 6.075,0 11,4.925 11,11 C 22,6.075 17.075,11 11,11 4.925,11 0,6.075 0,0" id="path32" style="fill:#642116;fill-opacity:1;fill-rule:nonzero;stroke:none"/></g><g transform="translate(31,17)" id="g34"><path d="M 0,0 -24,0 -24,12 0,9 0,0 z" id="path36" style="fill:#642116;fill-opacity:1;fill-rule:nonzero;stroke:none"/></g><g transform="translate(28,10)" id="g38"><path d="m 0,0 -1,0 -16,0 -1,0 c -2.209,0 -4,-1.791 -4,-4 l 0,-5 5,0 16,0 5,0 0,5 C 4,-1.791 2.209,0 0,0" id="path40" style="fill:#9268ca;fill-opacity:1;fill-rule:nonzero;stroke:none"/></g><path d="m 28,1 -1,0 0,4 1,0 0,-4 z" id="path42" style="fill:#7450a8;fill-opacity:1;fill-rule:nonzero;stroke:none"/><path d="m 11,1 -1,0 0,4 1,0 0,-4 z" id="path44" style="fill:#7450a8;fill-opacity:1;fill-rule:nonzero;stroke:none"/><g transform="translate(16,15)" id="g46"><path d="m 0,0 0,-6 c 0,-1.657 1.343,-3 3,-3 1.657,0 3,1.343 3,3 L 6,0 0,0 z" id="path48" style="fill:#d79e84;fill-opacity:1;fill-rule:nonzero;stroke:none"/></g><g transform="translate(15,32)" id="g50"><path d="M 0,0 C 0,0 -0.003,-5.308 -5,-5.936 L -5,-12 c 0,-4.971 4.029,-9 9,-9 4.971,0 9,4.029 9,9 l 0,5.019 C 1.89,-6.605 0,0 0,0" id="path52" style="fill:#d79e84;fill-opacity:1;fill-rule:nonzero;stroke:none"/></g><g transform="translate(21,15)" id="g54"><path d="m 0,0 c 0,-0.553 -0.896,-1 -2,-1 -1.104,0 -2,0.447 -2,1 0,0.553 0.896,1 2,1 1.104,0 2,-0.447 2,-1" id="path56" style="fill:#bb1a34;fill-opacity:1;fill-rule:nonzero;stroke:none"/></g><g transform="translate(16.0054,32.8467)" id="g58"><path d="m 0,0 -3.005,0.693 0,3.46 -4,0 -0.6,-2.4 -2.232,-2.232 -1.168,-2.368 0,-8 c 0,0 0,-1 1,-1 1,0 1,1 1,1 l 0.775,6.385 c 0.6,0.194 1.175,0.515 1.518,0.858 l 2.046,2.046 4.09,-0.942 c 0.69,-0.159 1.379,0.271 1.537,0.961 C 1.121,-0.849 0.689,-0.161 0,0" id="path60" style="fill:#d79e84;fill-opacity:1;fill-rule:nonzero;stroke:none"/></g><g transform="translate(31.832,32.3677)" id="g62"><path d="m 0,0 -2.232,2.232 -0.6,2.4 -4,0 0,-3.46 -3.006,-0.693 c -0.689,-0.161 -1.12,-0.849 -0.961,-1.539 0.158,-0.69 0.848,-1.12 1.537,-0.961 l 4.091,0.942 2.046,-2.046 c 0.343,-0.343 0.917,-0.664 1.519,-0.858 l 0.774,-6.385 c 0,0 0,-1 1,-1 1,0 1,1 1,1 l 0,8 L 0,0 z" id="path64" style="fill:#d79e84;fill-opacity:1;fill-rule:nonzero;stroke:none"/></g><g transform="translate(20,17.5)" id="g66"><path d="M 0,0 -2,0 C -2.276,0 -2.5,0.224 -2.5,0.5 -2.5,0.776 -2.276,1 -2,1 L 0,1 C 0.276,1 0.5,0.776 0.5,0.5 0.5,0.224 0.276,0 0,0" id="path68" style="fill:#bf6952;fill-opacity:1;fill-rule:nonzero;stroke:none"/></g><g transform="translate(15.9995,20.0161)" id="g70"><path d="m 0,0 -2,0 c -0.552,0 -1,0.448 -1,1 0,0.552 0.448,1 1,1 L 0,2 C 0.552,2 1,1.552 1,1 1,0.448 0.552,0 0,0" id="path72" style="fill:#292f33;fill-opacity:1;fill-rule:nonzero;stroke:none"/></g><g transform="translate(23.999,20.0161)" id="g74"><path d="m 0,0 -1.999,0 c -0.553,0 -1,0.448 -1,1 0,0.552 0.447,1 1,1 L 0,2 C 0.553,2 1,1.552 1,1 1,0.448 0.553,0 0,0" id="path76" style="fill:#292f33;fill-opacity:1;fill-rule:nonzero;stroke:none"/></g></g></g></g></svg>
