<svg xmlns="http://www.w3.org/2000/svg" viewBox="0 0 47.5 47.5" enable-background="new 0 0 47.5 47.5"><defs><clipPath id="a"><path d="M0 38h38V0H0v38z"/></clipPath><clipPath id="b"><path d="M12 4h14v21H12V4z"/></clipPath><clipPath id="c"><path d="M0 38h38V0H0v38z"/></clipPath></defs><g><g><g clip-path="url(#a)" transform="matrix(1.25 0 0 -1.25 0 47.5)"><g><path fill="#ccd6dd" d="M25 31c0-3.3-2.7-6-6-6s-6 2.7-6 6 2.7 6 6 6 6-2.7 6-6"/></g><path fill="#ccd6dd" d="M26 4H12v21h14V4z"/></g></g><g><g clip-path="url(#b)" transform="matrix(1.25 0 0 -1.25 0 47.5)"><g><path fill="#dd2e44" d="M34.2 15.5L10.8 26.9l1.76 3.6 23.37-11.4-1.76-3.6z"/></g><g><path fill="#dd2e44" d="M27.18 1.1L3.8 12.5l1.76 3.6L28.93 4.7l-1.75-3.6z"/></g><g><path fill="#fff" d="M32.44 11.9L9.07 23.3l1.75 3.6L34.2 15.5l-1.76-3.6z"/></g><g><path fill="#fff" d="M28.93 4.7L5.56 16.1l1.76 3.6L30.68 8.3l-1.75-3.6z"/></g><g><path fill="#fff" d="M25.42-2.5L2.05 8.9l1.76 3.6L27.2 1.1l-1.76-3.6z"/></g><g><path fill="#55acee" d="M30.68 8.3L7.32 19.7l1.75 3.6 23.37-11.4-1.76-3.6z"/></g></g></g><g><g clip-path="url(#c)" transform="matrix(1.25 0 0 -1.25 0 47.5)"><g><path fill="#99aab5" d="M28 26c0-1.1-.9-2-2-2H12c-1.1 0-2 .9-2 2s.9 2 2 2h14c1.1 0 2-.9 2-2"/></g><g><path fill="#99aab5" d="M28 3c0-1.1-.9-2-2-2H12c-1.1 0-2 .9-2 2s.9 2 2 2h14c1.1 0 2-.9 2-2"/></g></g></g></g></svg>