<svg xmlns="http://www.w3.org/2000/svg" viewBox="0 0 47.5 47.5" enable-background="new 0 0 47.5 47.5"><defs><clipPath id="a"><path d="M1 1h36v36H1V1z"/></clipPath><clipPath id="b"><path d="M0 38h38V0H0v38z"/></clipPath></defs><g><g><g clip-path="url(#a)" transform="matrix(1.25 0 0 -1.25 0 47.5)"><g><path fill="#9aaab4" d="M31.17 28.85L16.32 14s-.7 2.12.7 3.54c1.42 1.4 12.73 12.72 12.73 12.72l1.42-1.4z"/></g><g><path fill="#67757f" d="M31.17 28.85c1.17 1.17 2.44 1.8 2.83 1.4.4-.38-.25-1.64-1.42-2.8-1.17-1.2-2.43-1.82-2.83-1.43-.4.4.25 1.66 1.42 2.83m-1.42 1.4c-1.95-1.94-2.58-4.47-1.4-5.64 1.16-1.16 3.7-.53 5.65 1.42 1.95 1.95 2.58 4.5 1.4 5.66-1.16 1.17-3.7.54-5.65-1.42"/></g><g><path fill="#642116" d="M21 26c0 6.08-4.92 11-11 11-1.72 0-3.34-.4-4.8-1.1-.4.06-.8.1-1.2.1-3.87 0-7-3.13-7-7V17h.02C-2.8 10.53 2.5 5.34 9 5.34c3.36 0 6.38 1.4 8.56 3.62C23.43 8.5 30 1 30 1l7 9c-15 6-16 16-16 16"/></g><g><path fill="#9268ca" d="M18 10H0c-2.2 0-4-1.8-4-4V1h26v5c0 2.2-1.8 4-4 4"/></g><path fill="#7450a8" d="M18 1h-1v4h1V1z"/><path fill="#7450a8" d="M1 1H0v4h1V1z"/><g><path fill="#d79e84" d="M12 9v4H6V9c0-1.66 1.34-3 3-3s3 1.34 3 3"/></g><g><path fill="#d79e84" d="M5 32s0-5.3-5-5.94V20c0-4.97 4.03-9 9-9s9 4.03 9 9v5.02C6.9 25.4 5 32 5 32"/></g><g><path fill="#bb1a34" d="M13 16H5s1-2 4-2 4 2 4 2"/></g><g><path fill="#9aaab4" d="M25 31V10s2 1 2 3v18h-2z"/></g><g><path fill="#67757f" d="M24 28c-.55 0-1 1.34-1 3s.45 3 1 3 1-1.34 1-3-.45-3-1-3m0 8c-1.66 0-3-2.24-3-5s1.34-5 3-5 3 2.24 3 5-1.34 5-3 5"/></g></g></g><g><g clip-path="url(#b)" transform="matrix(1.25 0 0 -1.25 0 47.5)"><g><path fill="#67757f" d="M27 25c0-.55-.45-1-1-1s-1 .45-1 1 .45 1 1 1 1-.45 1-1"/></g><g><path fill="#bf6952" d="M10 17.5H8c-.28 0-.5.22-.5.5s.22.5.5.5h2c.28 0 .5-.22.5-.5s-.22-.5-.5-.5"/></g><g><path fill="#292f33" d="M5 21c-.55 0-1 .45-1 1v1c0 .55.45 1 1 1s1-.45 1-1v-1c0-.55-.45-1-1-1"/></g><g><path fill="#292f33" d="M13 21c-.55 0-1 .45-1 1v1c0 .55.45 1 1 1s1-.45 1-1v-1c0-.55-.45-1-1-1"/></g></g></g></g></svg>