<svg xmlns="http://www.w3.org/2000/svg" viewBox="0 0 47.5 47.5" enable-background="new 0 0 47.5 47.5"><defs><clipPath id="a"><path d="M0 38h38V0H0v38z"/></clipPath></defs><g><g><g clip-path="url(#a)" transform="matrix(1.25 0 0 -1.25 0 47.5)"><g><path fill="#bcbec0" d="M35 21c0 10-7.16 16-16 16S3 31 3 21c0-5.57 0-10.4 6-12.64V4c0-1.66 1.34-3 3-3s3 1.34 3 3v3.15c.32-.02.66-.05 1-.07V4c0-1.66 1.34-3 3-3s3 1.34 3 3v3.08c.34.02.68.05 1 .07V4c0-1.66 1.34-3 3-3s3 1.34 3 3v4.36c6 2.25 6 7.07 6 12.64"/></g><g><path fill="#414042" d="M17 23c0-2.76 0-5-5-5s-5 2.24-5 5 2.24 5 5 5 5-2.24 5-5"/></g><g><path fill="#414042" d="M31 23c0-2.76 0-5-5-5s-5 2.24-5 5 2.24 5 5 5 5-2.24 5-5"/></g><g><path fill="#6d6e71" d="M20.9 13.94c-.25.6-1 1.06-1.9 1.06-.9 0-1.65-.45-1.9-1.06-.63-.18-1.1-.75-1.1-1.44 0-.83.67-1.5 1.5-1.5.65 0 1.2.42 1.4 1 .04 0 .07 0 .1 0s.06 0 .1 0c.2-.58.75-1 1.4-1 .83 0 1.5.67 1.5 1.5 0 .7-.47 1.26-1.1 1.44"/></g></g></g></g></svg>