<svg xmlns="http://www.w3.org/2000/svg" viewBox="0 0 47.5 47.5" enable-background="new 0 0 47.5 47.5"><defs><clipPath id="a"><path d="M1 1h36v36H1V1z"/></clipPath><clipPath id="b"><path d="M0 38h38V0H0v38z"/></clipPath></defs><g><g><g clip-path="url(#a)" transform="matrix(1.25 0 0 -1.25 0 47.5)"><g><path fill="#bf6952" d="M20 19.5H-6c-.28 0-.5-.22-.5-.5V0c0-.28.22-.5.5-.5h26c.28 0 .5.22.5.5v19c0 .28-.22.5-.5.5"/></g><g><path fill="#d99e82" d="M18 16C18 9.93 13.07 5 7 5 .92 5-4 9.93-4 16-4 22.08.92 27 7 27c6.07 0 11-4.92 11-11"/></g><g><path fill="#bf6952" d="M7 31.8c-7.44 0-13.5-6.06-13.5-13.5 0-1.9.4-3.76 1.18-5.5.1-.2.3-.32.52-.3.22.04.4.2.43.43.4 2.75 2.58 4.7 4.5 6.43 1.8 1.6 3.5 3.12 3.46 5.04 6.5-1.17 14-6.02 14.77-11.47.03-.22.2-.4.43-.43.02 0 .04 0 .06 0 .2 0 .38.1.46.3.78 1.74 1.18 3.6 1.18 5.5 0 7.44-6.06 13.5-13.5 13.5"/></g><g><path fill="#642116" d="M12 14.5c-.28 0-.5.22-.5.5s.22.5.5.5c1.4 0 1.5 1.25 1.5 1.5 0 .28.23.5.5.5.26.04.5-.22.5-.5 0-.86-.52-2.5-2.5-2.5"/></g><g><path fill="#642116" d="M7 14.5c-.28 0-.5.22-.5.5s.22.5.5.5c1.4 0 1.5 1.25 1.5 1.5 0 .28.23.5.5.5.3.04.5-.22.5-.5 0-.86-.52-2.5-2.5-2.5"/></g><g><path fill="#642116" d="M12 7.5c-.28 0-.5.22-.5.5s.22.5.5.5c.23 0 .5.1.5.5s-.27.5-.5.5c-.28 0-.5.23-.5.5s.22.5.5.5c.22 0 .5.1.5.5s-.28.5-.5.5c-.28 0-.5.23-.5.5 0 .28.23.5.5.5.6 0 1.5-.4 1.5-1.5 0-.44-.14-.77-.35-1 .2-.23.35-.56.35-1 0-1.1-.9-1.5-1.5-1.5"/></g><g><path fill="#d99e82" d="M42 16c0-6.07-4.93-11-11-11S20 9.93 20 16c0 6.08 4.93 11 11 11s11-4.92 11-11"/></g><g><path fill="#292f33" d="M31 31.8c-7.44 0-13.5-6.06-13.5-13.5 0-1.9.4-3.76 1.18-5.5.1-.2.3-.32.52-.3.23.04.4.2.43.43.4 2.75 2.58 4.7 4.5 6.43 1.8 1.6 3.5 3.12 3.46 5.04 6.5-1.17 14-6.02 14.77-11.47.03-.22.2-.4.43-.43.02 0 .04 0 .07 0 .2 0 .37.1.45.3.78 1.74 1.18 3.6 1.18 5.5 0 7.44-6.06 13.5-13.5 13.5"/></g><g><path fill="#642116" d="M27 14.5c-1.98 0-2.5 1.64-2.5 2.5 0 .28.22.5.5.5.27 0 .5-.22.5-.5 0-.25.1-1.5 1.5-1.5.28 0 .5-.22.5-.5s-.22-.5-.5-.5"/></g><g><path fill="#642116" d="M32 14.5c-1.98 0-2.5 1.64-2.5 2.5 0 .28.22.5.5.5.27 0 .5-.22.5-.5 0-.25.1-1.5 1.5-1.5.28 0 .5-.22.5-.5s-.22-.5-.5-.5"/></g><g><path fill="#642116" d="M27 7.5c-.6 0-1.5.4-1.5 1.5 0 .44.14.77.35 1-.2.23-.35.56-.35 1 0 1.1.9 1.5 1.5 1.5.28 0 .5-.22.5-.5 0-.27-.22-.5-.5-.5-.23 0-.5-.1-.5-.5s.27-.5.5-.5c.28 0 .5-.23.5-.5s-.22-.5-.5-.5c-.23 0-.5-.1-.5-.5s.27-.5.5-.5c.28 0 .5-.23.5-.5 0-.28-.23-.5-.5-.5"/></g></g></g><g><g clip-path="url(#b)" transform="matrix(1.25 0 0 -1.25 0 47.5)"><g><path fill="#f2abba" d="M27.08 32.3c0 2.6-2.1 4.7-4.7 4.7-1.6 0-3-.78-3.84-1.97-.86 1.2-2.25 1.97-3.83 1.97-2.6 0-4.7-2.1-4.7-4.7 0-.38.05-.74.13-1.08.65-4.07 5.17-8.35 8.4-9.53 3.25 1.17 7.77 5.45 8.42 9.52.08.34.13.7.13 1.07"/></g></g></g></g></svg>