<?xml version="1.0" encoding="UTF-8" standalone="no"?><svg xmlns:dc="http://purl.org/dc/elements/1.1/" xmlns:cc="http://creativecommons.org/ns#" xmlns:rdf="http://www.w3.org/1999/02/22-rdf-syntax-ns#" xmlns:svg="http://www.w3.org/2000/svg" xmlns="http://www.w3.org/2000/svg" viewBox="0 0 47.5 47.5" style="enable-background:new 0 0 47.5 47.5;" xml:space="preserve" version="1.1" id="svg2"><metadata id="metadata8"><rdf:RDF><cc:Work rdf:about=""><dc:format>image/svg+xml</dc:format><dc:type rdf:resource="http://purl.org/dc/dcmitype/StillImage"/></cc:Work></rdf:RDF></metadata><defs id="defs6"><clipPath id="clipPath16" clipPathUnits="userSpaceOnUse"><path id="path18" d="M 1,1 37,1 37,37 1,37 1,1 Z"/></clipPath><clipPath id="clipPath68" clipPathUnits="userSpaceOnUse"><path id="path70" d="M 0,38 38,38 38,0 0,0 0,38 Z"/></clipPath></defs><g transform="matrix(1.25,0,0,-1.25,0,47.5)" id="g10"><g id="g12"><g clip-path="url(#clipPath16)" id="g14"><g transform="translate(20,19.5)" id="g20"><path id="path22" style="fill:#bf6952;fill-opacity:1;fill-rule:nonzero;stroke:none" d="m 0,0 -26,0 c -0.276,0 -0.5,-0.224 -0.5,-0.5 l 0,-19 c 0,-0.276 0.224,-0.5 0.5,-0.5 l 26,0 c 0.276,0 0.5,0.224 0.5,0.5 l 0,19 C 0.5,-0.224 0.276,0 0,0"/></g><g transform="translate(18,16)" id="g24"><path id="path26" style="fill:#d99e82;fill-opacity:1;fill-rule:nonzero;stroke:none" d="m 0,0 c 0,-6.074 -4.926,-11 -11,-11 -6.075,0 -11,4.926 -11,11 0,6.075 4.925,11 11,11 C -4.926,11 0,6.075 0,0"/></g><g transform="translate(7,31.7949)" id="g28"><path id="path30" style="fill:#bf6952;fill-opacity:1;fill-rule:nonzero;stroke:none" d="m 0,0 c -7.444,0 -13.5,-6.056 -13.5,-13.5 0,-1.9 0.396,-3.751 1.178,-5.499 0.092,-0.202 0.301,-0.317 0.526,-0.291 0.221,0.031 0.394,0.204 0.426,0.425 0.393,2.755 2.581,4.706 4.512,6.428 1.793,1.599 3.497,3.119 3.444,5.041 6.515,-1.171 14.006,-6.017 14.784,-11.469 0.032,-0.221 0.205,-0.394 0.426,-0.425 0.023,-0.003 0.046,-0.005 0.069,-0.005 0.196,0 0.375,0.114 0.457,0.296 0.782,1.748 1.178,3.599 1.178,5.499 C 13.5,-6.056 7.444,0 0,0"/></g><g transform="translate(12,14.5)" id="g32"><path id="path34" style="fill:#642116;fill-opacity:1;fill-rule:nonzero;stroke:none" d="M 0,0 C -0.276,0 -0.5,0.224 -0.5,0.5 -0.5,0.776 -0.276,1 0,1 1.412,1 1.497,2.252 1.5,2.503 1.503,2.776 1.726,2.998 2,2.998 2.258,3.035 2.5,2.776 2.5,2.5 2.5,1.636 1.978,0 0,0"/></g><g transform="translate(7,14.5)" id="g36"><path id="path38" style="fill:#642116;fill-opacity:1;fill-rule:nonzero;stroke:none" d="M 0,0 C -0.276,0 -0.5,0.224 -0.5,0.5 -0.5,0.776 -0.276,1 0,1 1.412,1 1.497,2.252 1.5,2.503 1.503,2.776 1.726,2.998 2,2.998 2.292,3.035 2.5,2.776 2.5,2.5 2.5,1.636 1.978,0 0,0"/></g><g transform="translate(12,7.5)" id="g40"><path id="path42" style="fill:#642116;fill-opacity:1;fill-rule:nonzero;stroke:none" d="M 0,0 C -0.276,0 -0.5,0.224 -0.5,0.5 -0.5,0.776 -0.276,1 0,1 0.225,1.006 0.5,1.098 0.5,1.5 0.5,1.902 0.226,1.994 -0.005,2 -0.279,2.003 -0.5,2.226 -0.5,2.5 c 0,0.272 0.218,0.494 0.489,0.5 l 10e-4,0 0.001,0 10e-4,0 0.002,0 0,0 0.001,0 0.001,0 0.001,0 0.001,0 L 0,3 C 0.225,3.006 0.5,3.098 0.5,3.5 0.5,3.902 0.225,3.994 -0.006,4 -0.279,4.007 -0.5,4.232 -0.497,4.506 -0.493,4.78 -0.273,5 0,5 0.603,5 1.5,4.601 1.5,3.5 1.5,3.062 1.358,2.735 1.149,2.5 1.358,2.265 1.5,1.938 1.5,1.5 1.5,0.399 0.603,0 0,0"/></g><g transform="translate(42,16)" id="g44"><path id="path46" style="fill:#d99e82;fill-opacity:1;fill-rule:nonzero;stroke:none" d="m 0,0 c 0,-6.074 -4.926,-11 -11,-11 -6.074,0 -11,4.926 -11,11 0,6.075 4.926,11 11,11 C -4.926,11 0,6.075 0,0"/></g><g transform="translate(31,31.7949)" id="g48"><path id="path50" style="fill:#292f33;fill-opacity:1;fill-rule:nonzero;stroke:none" d="m 0,0 c -7.444,0 -13.5,-6.056 -13.5,-13.5 0,-1.9 0.396,-3.751 1.178,-5.499 0.092,-0.202 0.3,-0.317 0.526,-0.291 0.221,0.031 0.395,0.204 0.426,0.425 0.392,2.755 2.581,4.706 4.512,6.428 1.793,1.599 3.497,3.119 3.444,5.041 6.516,-1.171 14.006,-6.017 14.784,-11.469 0.031,-0.221 0.205,-0.394 0.426,-0.425 0.023,-0.003 0.047,-0.005 0.069,-0.005 0.196,0 0.375,0.114 0.456,0.296 0.783,1.748 1.179,3.599 1.179,5.499 C 13.5,-6.056 7.444,0 0,0"/></g><g transform="translate(27,14.5)" id="g52"><path id="path54" style="fill:#642116;fill-opacity:1;fill-rule:nonzero;stroke:none" d="M 0,0 C -1.978,0 -2.5,1.636 -2.5,2.5 -2.5,2.776 -2.276,3 -2,3 -1.725,3 -1.501,2.777 -1.5,2.503 -1.497,2.251 -1.411,1 0,1 0.276,1 0.5,0.776 0.5,0.5 0.5,0.224 0.276,0 0,0"/></g><g transform="translate(32,14.5)" id="g56"><path id="path58" style="fill:#642116;fill-opacity:1;fill-rule:nonzero;stroke:none" d="M 0,0 C -1.978,0 -2.5,1.636 -2.5,2.5 -2.5,2.776 -2.276,3 -2,3 -1.725,3 -1.501,2.777 -1.5,2.503 -1.497,2.251 -1.411,1 0,1 0.276,1 0.5,0.776 0.5,0.5 0.5,0.224 0.276,0 0,0"/></g><g transform="translate(27,7.5)" id="g60"><path id="path62" style="fill:#642116;fill-opacity:1;fill-rule:nonzero;stroke:none" d="m 0,0 c -0.603,0 -1.5,0.399 -1.5,1.5 0,0.438 0.143,0.765 0.352,1 C -1.357,2.735 -1.5,3.062 -1.5,3.5 -1.5,4.601 -0.603,5 0,5 0.276,5 0.5,4.776 0.5,4.5 0.5,4.226 0.278,4.003 0.005,4 -0.226,3.994 -0.5,3.902 -0.5,3.5 -0.5,3.098 -0.226,3.006 0.005,3 0.278,2.997 0.5,2.774 0.5,2.5 0.5,2.228 0.282,2.006 0.011,2 L 0.01,2 0.008,2 0.007,2 0.006,2 0.005,2 0.003,2 0.002,2 0,2 C -0.225,1.994 -0.5,1.902 -0.5,1.5 -0.5,1.098 -0.225,1.006 0.006,1 0.279,0.993 0.5,0.768 0.496,0.494 0.493,0.22 0.273,0 0,0"/></g></g></g><g id="g64"><g clip-path="url(#clipPath68)" id="g66"><g transform="translate(27.0771,32.2891)" id="g72"><path id="path74" style="fill:#f2abba;fill-opacity:1;fill-rule:nonzero;stroke:none" d="m 0,0 c 0,2.602 -2.109,4.711 -4.711,4.711 -1.579,0 -2.973,-0.78 -3.828,-1.972 -0.856,1.192 -2.249,1.972 -3.827,1.972 -2.602,0 -4.711,-2.109 -4.711,-4.711 0,-0.369 0.047,-0.727 0.127,-1.07 0.654,-4.065 5.173,-8.353 8.411,-9.53 3.238,1.177 7.758,5.465 8.412,9.529 C -0.047,-0.727 0,-0.369 0,0"/></g></g></g></g></svg>
