<svg xmlns="http://www.w3.org/2000/svg" viewBox="0 0 47.5 47.5" enable-background="new 0 0 47.5 47.5"><defs><clipPath id="a"><path d="M0 38h38V0H0v38z"/></clipPath></defs><g><g><g clip-path="url(#a)" transform="matrix(1.25 0 0 -1.25 0 47.5)"><g><path fill="#642116" d="M31 17.34c0-6.62-5.37-12-12-12s-12 5.38-12 12c0 6.63 5.37 12 12 12s12-5.37 12-12"/></g><g><path fill="#642116" d="M21 29c0-3.87-3.13-7-7-7s-7 3.13-7 7 3.13 7 7 7 7-3.13 7-7"/></g><g><path fill="#642116" d="M9 26c0-6.08 4.92-11 11-11s11 4.92 11 11-4.93 11-11 11c-6.08 0-11-4.92-11-11"/></g><g><path fill="#642116" d="M31 17H7v12l24-3v-9z"/></g><g><path fill="#9268ca" d="M28 10H10c-2.2 0-4-1.8-4-4V1h26v5c0 2.2-1.8 4-4 4"/></g><path fill="#7450a8" d="M28 1h-1v4h1V1z"/><path fill="#7450a8" d="M11 1h-1v4h1V1z"/><g><path fill="#d79e84" d="M16 15V9c0-1.66 1.34-3 3-3s3 1.34 3 3v6h-6z"/></g><g><path fill="#d79e84" d="M15 32s0-5.3-5-5.94V20c0-4.97 4.03-9 9-9s9 4.03 9 9v5.02C16.9 25.4 15 32 15 32"/></g><g><path fill="#bb1a34" d="M21 15c0-.55-.9-1-2-1s-2 .45-2 1 .9 1 2 1 2-.45 2-1"/></g><g><path fill="#d79e84" d="M16 32.85l-3 .7V37H9l-.6-2.4-2.23-2.23L5 30v-8s0-1 1-1 1 1 1 1l.78 6.38c.6.2 1.17.52 1.5.86l2.06 2.05 4.1-.95c.68-.16 1.37.27 1.53.96.16.7-.28 1.4-.96 1.55"/></g><g><path fill="#d79e84" d="M31.83 32.37L29.6 34.6 29 37h-4v-3.46l-3-.7c-.7-.15-1.13-.84-.97-1.53.16-.68.85-1.1 1.54-.95l4.1.94 2.04-2.06c.35-.34.92-.66 1.53-.86L31 22s0-1 1-1 1 1 1 1v8l-1.17 2.37z"/></g><g><path fill="#bf6952" d="M20 17.5h-2c-.28 0-.5.22-.5.5s.22.5.5.5h2c.28 0 .5-.22.5-.5s-.22-.5-.5-.5"/></g><g><path fill="#292f33" d="M16 20.02h-2c-.55 0-1 .44-1 1 0 .55.45 1 1 1h2c.55 0 1-.45 1-1 0-.56-.45-1-1-1"/></g><g><path fill="#292f33" d="M24 20.02h-2c-.55 0-1 .44-1 1 0 .55.45 1 1 1h2c.55 0 1-.45 1-1 0-.56-.45-1-1-1"/></g></g></g></g></svg>