<?xml version="1.0" encoding="UTF-8" standalone="no"?>
<!-- Created with Inkscape (http://www.inkscape.org/) -->

<svg
   xmlns:svg="http://www.w3.org/2000/svg"
   xmlns="http://www.w3.org/2000/svg"
   version="1.1"
   width="47.5"
   height="47.5"
   id="svg2"
   xml:space="preserve"><defs
     id="defs6"><clipPath
       id="clipPath18"><path
         d="M 0,38 38,38 38,0 0,0 0,38 z"
         id="path20" /></clipPath></defs><g
     transform="matrix(1.25,0,0,-1.25,0,47.5)"
     id="g12"><g
       id="g14"><g
         clip-path="url(#clipPath18)"
         id="g16"><g
           transform="translate(35,21)"
           id="g22"><path
             d="m 0,0 c 0,10 -7.163,16 -16,16 -8.836,0 -16,-6 -16,-16 0,-5.574 0.002,-10.388 6,-12.64 l 0,-4.36 c 0,-1.657 1.343,-3 3,-3 1.657,0 3,1.343 3,3 l 0,3.155 c 0.324,-0.027 0.659,-0.05 1,-0.07 L -19,-17 c 0,-1.657 1.343,-3 3,-3 1.657,0 3,1.343 3,3 l 0,3.085 c 0.342,0.02 0.676,0.043 1,0.07 L -12,-17 c 0,-1.657 1.344,-3 3,-3 1.657,0 3,1.343 3,3 l 0,4.36 c 5.998,2.252 6,7.066 6,12.64"
             id="path24"
             style="fill:#bcbec0;fill-opacity:1;fill-rule:nonzero;stroke:none" /></g><g
           transform="translate(17,23.0005)"
           id="g26"><path
             d="m 0,0 c 0,-2.761 0,-5 -5,-5 -5,0 -5,2.239 -5,5 0,2.761 2.239,5 5,5 2.761,0 5,-2.239 5,-5"
             id="path28"
             style="fill:#414042;fill-opacity:1;fill-rule:nonzero;stroke:none" /></g><g
           transform="translate(31,23.0005)"
           id="g30"><path
             d="m 0,0 c 0,-2.761 0,-5 -5,-5 -5,0 -5,2.239 -5,5 0,2.761 2.238,5 5,5 2.762,0 5,-2.239 5,-5"
             id="path32"
             style="fill:#414042;fill-opacity:1;fill-rule:nonzero;stroke:none" /></g><g
           transform="translate(20.9033,13.9385)"
           id="g34"><path
             d="m 0,0 c -0.252,0.612 -1.003,1.062 -1.903,1.062 -0.9,0 -1.652,-0.45 -1.904,-1.062 -0.631,-0.177 -1.096,-0.751 -1.096,-1.438 0,-0.829 0.671,-1.5 1.5,-1.5 0.654,0 1.205,0.421 1.41,1.006 0.03,-0.001 0.059,-0.006 0.09,-0.006 0.03,0 0.059,0.005 0.09,0.006 0.205,-0.585 0.755,-1.006 1.41,-1.006 0.828,0 1.5,0.671 1.5,1.5 C 1.097,-0.751 0.631,-0.178 0,0"
             id="path36"
             style="fill:#6d6e71;fill-opacity:1;fill-rule:nonzero;stroke:none" /></g></g></g></g></svg>