<?xml version="1.0" encoding="UTF-8" standalone="no"?><svg xmlns:svg="http://www.w3.org/2000/svg" xmlns="http://www.w3.org/2000/svg" version="1.1" viewBox="0 0 47.5 47.5" style="enable-background:new 0 0 47.5 47.5;" id="svg2" xml:space="preserve"><defs id="defs6"><clipPath id="clipPath18"><path d="M 0,38 38,38 38,0 0,0 0,38 z" id="path20"/></clipPath></defs><g transform="matrix(1.25,0,0,-1.25,0,47.5)" id="g12"><g id="g14"><g clip-path="url(#clipPath18)" id="g16"><g transform="translate(17,36)" id="g22"><path d="M 0,0 C 0.203,0.378 0.538,0.985 1.806,0.602 3.722,0.022 2,-1 2,-1 c 0,0 2,-1 2,-4 0,-3 -1,-1.838 -1,-5 0,-2 -2,0 -2,0 l -3,-3 c -4,-4 -6,1 -5,3 1,2 0,2 0,4 0,2 2,2 2,4 0,2 2,3 3,3 1,0 2,-1 2,-1" id="path24" style="fill:#662113;fill-opacity:1;fill-rule:nonzero;stroke:none"/></g><g transform="translate(13,32)" id="g26"><path d="M 0,0 C 0,-1.657 1.176,-3 2.625,-3 4.075,-3 5.25,-1.657 5.25,0 5.25,1.657 4.075,3 2.625,3 1.176,3 0,1.657 0,0" id="path28" style="fill:#d99e82;fill-opacity:1;fill-rule:nonzero;stroke:none"/></g><g transform="translate(15.5,36)" id="g30"><path d="M 0,0 C -0.927,0 -1.727,-0.306 -2.158,-0.755 -3.261,-0.548 -2.636,-2.272 -3.5,-4 c -1,-2 1,-4 1,-3 0,1 0,4 2,4 L 0,-3 c 1.381,0 2.5,0.671 2.5,1.5 C 2.5,-0.671 1.381,0 0,0" id="path32" style="fill:#662113;fill-opacity:1;fill-rule:nonzero;stroke:none"/></g><g transform="translate(23.707,26.707)" id="g34"><path d="M 0,0 C -0.373,0.373 -1.806,1.217 -7.027,1.286 L -7.459,5.169 C -7.52,5.719 -8.021,6.117 -8.563,6.053 -9.112,5.992 -9.508,5.498 -9.447,4.949 l 0.406,-3.656 -4.584,0 -5.917,0.986 c -0.55,0.091 -1.061,-0.278 -1.151,-0.821 -0.091,-0.545 0.277,-1.061 0.821,-1.151 l 6,-1 c 0.055,-0.01 0.11,-0.014 0.165,-0.014 l 2.749,0 c 0.009,-0.262 0.086,-0.588 0.251,-1 1,-2.5 3,-8 3,-8 2.209,0 3,5.015 3,7.5 0,0.603 -0.048,1.06 -0.15,1.407 1.206,-0.088 2.027,-0.223 2.567,-0.351 l -2.217,-2.956 c -0.331,-0.442 -0.242,-1.069 0.2,-1.4 0.18,-0.135 0.39,-0.2 0.599,-0.2 0.305,0 0.604,0.138 0.801,0.4 l 3,4 C 0.392,-0.909 0.352,-0.352 0,0" id="path36" style="fill:#d99e82;fill-opacity:1;fill-rule:nonzero;stroke:none"/></g><g transform="translate(16.9985,4)" id="g38"><path d="m 0,0 c -0.489,0 -0.917,0.359 -0.988,0.858 l -1,7 c -0.078,0.547 0.301,1.054 0.848,1.132 0.548,0.073 1.054,-0.302 1.131,-0.848 l 1,-7 C 1.069,0.595 0.689,0.088 0.143,0.01 0.095,0.003 0.047,0 0,0" id="path40" style="fill:#d99e82;fill-opacity:1;fill-rule:nonzero;stroke:none"/></g><g transform="translate(16.999,16)" id="g42"><path d="m 0,0 c -0.472,0 -0.892,0.335 -0.982,0.815 -0.101,0.543 0.256,1.066 0.799,1.167 L 15.816,4.983 C 16.368,5.085 16.883,4.727 16.983,4.184 17.086,3.642 16.729,3.119 16.186,3.017 L 0.185,0.018 C 0.123,0.006 0.061,0 0,0" id="path44" style="fill:#d99e82;fill-opacity:1;fill-rule:nonzero;stroke:none"/></g><g transform="translate(13,24)" id="g46"><path d="m 0,0 c 0,0 1,-1 1,-3 0,-2 0,-3 -2,-6 -2,-3 -4,-3 -5,-5 -1,-2 0,-2 2,-1 2,1 1,-4 4,-4 3,0 2,3 4,3 2,0 3,-3 5,-3 2,0 2.581,2.419 1,4 -1,1 2,3 3,2 1.581,-1.581 3.236,0.764 1,3 -1,1 -1.789,2.105 0,3 2,1 2.5,5 0,4 -3.344,-1.338 -8,-3.161 -8,0 L 6,1 C 6,1 4,1 4,4 4,4 2.75,0 0.75,4 0.75,4 2,1 0,0" id="path48" style="fill:#dd2e44;fill-opacity:1;fill-rule:nonzero;stroke:none"/></g><g transform="translate(17,1)" id="g50"><path d="m 0,0 c -0.552,0 -1,0.447 -1,1 l 0,3 C -1,4.553 -0.552,5 0,5 0.552,5 1,4.553 1,4 L 1,1 C 1,0.447 0.552,0 0,0" id="path52" style="fill:#dd2e44;fill-opacity:1;fill-rule:nonzero;stroke:none"/></g><g transform="translate(33.4287,18.3696)" id="g54"><path d="M 0,0 C -0.22,0 -0.441,0.072 -0.626,0.221 -1.057,0.568 -1.124,1.197 -0.777,1.627 L 1.004,3.839 C 1.35,4.267 1.979,4.337 2.409,3.99 2.84,3.644 2.907,3.014 2.561,2.584 L 0.779,0.373 C 0.582,0.127 0.293,0 0,0" id="path56" style="fill:#dd2e44;fill-opacity:1;fill-rule:nonzero;stroke:none"/></g></g></g></g></svg>
