<svg xmlns="http://www.w3.org/2000/svg" viewBox="0 0 47.5 47.5" enable-background="new 0 0 47.5 47.5"><defs><clipPath id="a"><path d="M0 38h38V0H0v38z"/></clipPath></defs><g><g><g clip-path="url(#a)" transform="matrix(1.25 0 0 -1.25 0 47.5)"><g><path fill="#642116" d="M15 37c-1.72 0-3.34-.4-4.8-1.1-.4.06-.8.1-1.2.1-3.87 0-7-3.13-7-7V17h.02C2.2 10.53 7.5 5.34 14 5.34c6.5 0 11.8 5.2 11.98 11.66H26v9c0 6.08-4.92 11-11 11"/></g><g><path fill="#9268ca" d="M23 10H5c-2.2 0-4-1.8-4-4V1h26v5c0 2.2-1.8 4-4 4"/></g><path fill="#7450a8" d="M23 1h-1v4h1V1z"/><path fill="#7450a8" d="M6 1H5v4h1V1z"/><g><path fill="#d79e84" d="M11 15V9c0-1.66 1.34-3 3-3s3 1.34 3 3v6h-6z"/></g><g><path fill="#d79e84" d="M10 32s0-5.3-5-5.94V20c0-4.97 4.03-9 9-9s9 4.03 9 9v5.02C11.9 25.4 10 32 10 32"/></g><g><path fill="#bb1a34" d="M18 15h-8s1-2 4-2 4 2 4 2"/></g><g><path fill="#9268ca" d="M30 1h-7l1 17h6V1z"/></g><g><path fill="#bf6952" d="M32.54 21.56c-.14.7-.82 1.14-1.52 1L28.35 22H26c-1.1 0-2-.9-2-2v-2h5c1.08 0 1.95.86 2 1.93l.35.07H32c0 .07-.03.14-.05.22.45.27.7.8.6 1.34"/></g><g><path fill="#d79e84" d="M37 21c0 .55-.45 1-1 1l-6-1h-5c-.55 0-1-.45-1-1v-2h6l6 2s1 .45 1 1"/></g><g><path fill="#bf6952" d="M15 17.5h-2c-.28 0-.5.22-.5.5s.22.5.5.5h2c.28 0 .5-.22.5-.5s-.22-.5-.5-.5"/></g><g><path fill="#292f33" d="M10 21c-.55 0-1 .45-1 1v1c0 .55.45 1 1 1s1-.45 1-1v-1c0-.55-.45-1-1-1"/></g><g><path fill="#292f33" d="M18 21c-.55 0-1 .45-1 1v1c0 .55.45 1 1 1s1-.45 1-1v-1c0-.55-.45-1-1-1"/></g></g></g></g></svg>