<svg xmlns="http://www.w3.org/2000/svg" viewBox="0 0 47.5 47.5" enable-background="new 0 0 47.5 47.5"><defs><clipPath id="a"><path d="M0 38h38V0H0v38z"/></clipPath></defs><g><g><g clip-path="url(#a)" transform="matrix(1.25 0 0 -1.25 0 47.5)"><g><path fill="#9aaab4" d="M19 5c-4.42 0-8 3.58-8 8s3.58 8 8 8 8-3.58 8-8-3.58-8-8-8m0 20c-6.63 0-12-5.37-12-12S12.37 1 19 1s12 5.37 12 12-5.37 12-12 12"/></g><g><path fill="#5dadec" d="M30 32l-4 5H12l-4-5 11-9 11 9z"/></g><g><path fill="#8ccaf7" d="M30 32l-4 5H12l-4-5h22z"/></g><g><path fill="#5dadec" d="M30 32l-4 5h-7v-5h11z"/></g><g><path fill="#8ccaf7" d="M19 32h11l-11-9v9z"/></g><g><path fill="#9aaab4" d="M26 24c0-1.66-1.34-3-3-3h-8c-1.66 0-3 1.34-3 3s1.34 3 3 3h8c1.66 0 3-1.34 3-3"/></g></g></g></g></svg>