<?xml version="1.0" encoding="UTF-8" standalone="no"?>
<!-- Created with Inkscape (http://www.inkscape.org/) -->

<svg
   xmlns:svg="http://www.w3.org/2000/svg"
   xmlns="http://www.w3.org/2000/svg"
   version="1.1"
   width="47.5"
   height="47.5"
   id="svg2"
   xml:space="preserve"><defs
     id="defs6"><clipPath
       id="clipPath18"><path
         d="M 0,38 38,38 38,0 0,0 0,38 z"
         id="path20" /></clipPath></defs><g
     transform="matrix(1.25,0,0,-1.25,0,47.5)"
     id="g12"><g
       id="g14"><g
         clip-path="url(#clipPath18)"
         id="g16"><g
           transform="translate(34.207,17.2266)"
           id="g22"><path
             d="m 0,0 -8.868,8.855 -13.234,-13.622 8.684,-8.684 10e-4,0.001 c 1.719,-1.716 4.091,-2.777 6.71,-2.777 5.246,0 9.5,4.254 9.5,9.5 C 2.793,-4.099 1.725,-1.72 0,0"
             id="path24"
             style="fill:#bb1a34;fill-opacity:1;fill-rule:nonzero;stroke:none" /></g><g
           transform="translate(16.9214,34.4868)"
           id="g26"><path
             d="m 0,0 c -1.692,1.556 -3.942,2.513 -6.421,2.513 -5.247,0 -9.5,-4.253 -9.5,-9.5 0,-2.479 0.958,-4.73 2.513,-6.421 l -0.013,-0.014 8.605,-8.605 L 8.417,-8.405 0,0 z"
             id="path28"
             style="fill:#fdcb58;fill-opacity:1;fill-rule:nonzero;stroke:none" /></g></g></g></g></svg>