<?xml version="1.0" encoding="UTF-8" standalone="no"?><svg xmlns:dc="http://purl.org/dc/elements/1.1/" xmlns:cc="http://creativecommons.org/ns#" xmlns:rdf="http://www.w3.org/1999/02/22-rdf-syntax-ns#" xmlns:svg="http://www.w3.org/2000/svg" xmlns="http://www.w3.org/2000/svg" viewBox="0 0 47.5 47.5" style="enable-background:new 0 0 47.5 47.5;" xml:space="preserve" version="1.1" id="svg2"><metadata id="metadata8"><rdf:RDF><cc:Work rdf:about=""><dc:format>image/svg+xml</dc:format><dc:type rdf:resource="http://purl.org/dc/dcmitype/StillImage"/></cc:Work></rdf:RDF></metadata><defs id="defs6"><clipPath id="clipPath16" clipPathUnits="userSpaceOnUse"><path id="path18" d="M 0,38 38,38 38,0 0,0 0,38 Z"/></clipPath><clipPath id="clipPath30" clipPathUnits="userSpaceOnUse"><path id="path32" d="m 12,4 14,0 0,21.001 -14,0 L 12,4 Z"/></clipPath><clipPath id="clipPath62" clipPathUnits="userSpaceOnUse"><path id="path64" d="M 0,38 38,38 38,0 0,0 0,38 Z"/></clipPath></defs><g transform="matrix(1.25,0,0,-1.25,0,47.5)" id="g10"><g id="g12"><g clip-path="url(#clipPath16)" id="g14"><g transform="translate(25,31)" id="g20"><path id="path22" style="fill:#ccd6dd;fill-opacity:1;fill-rule:nonzero;stroke:none" d="m 0,0 c 0,-3.313 -2.687,-6 -6,-6 -3.313,0 -6,2.687 -6,6 0,3.313 2.687,6 6,6 3.313,0 6,-2.687 6,-6"/></g><path id="path24" style="fill:#ccd6dd;fill-opacity:1;fill-rule:nonzero;stroke:none" d="M 26,4 12,4 12,25 26,25 26,4 Z"/></g></g><g id="g26"><g clip-path="url(#clipPath30)" id="g28"><g transform="translate(34.1914,15.4902)" id="g34"><path id="path36" style="fill:#dd2e44;fill-opacity:1;fill-rule:nonzero;stroke:none" d="m 0,0 -23.368,11.399 1.755,3.596 L 1.754,3.595 0,0 Z"/></g><g transform="translate(27.1758,1.1094)" id="g38"><path id="path40" style="fill:#dd2e44;fill-opacity:1;fill-rule:nonzero;stroke:none" d="m 0,0 -23.367,11.4 1.753,3.595 L 1.754,3.596 0,0 Z"/></g><g transform="translate(32.4375,11.8945)" id="g42"><path id="path44" style="fill:#ffffff;fill-opacity:1;fill-rule:nonzero;stroke:none" d="m 0,0 -23.367,11.401 1.753,3.594 L 1.754,3.596 0,0 Z"/></g><g transform="translate(28.9297,4.7051)" id="g46"><path id="path48" style="fill:#ffffff;fill-opacity:1;fill-rule:nonzero;stroke:none" d="m 0,0 -23.368,11.399 1.755,3.596 L 1.754,3.595 0,0 Z"/></g><g transform="translate(25.4219,-2.4854)" id="g50"><path id="path52" style="fill:#ffffff;fill-opacity:1;fill-rule:nonzero;stroke:none" d="m 0,0 -23.367,11.4 1.754,3.595 L 1.754,3.595 0,0 Z"/></g><g transform="translate(30.6836,8.2998)" id="g54"><path id="path56" style="fill:#55acee;fill-opacity:1;fill-rule:nonzero;stroke:none" d="m 0,0 -23.367,11.4 1.754,3.596 L 1.754,3.595 0,0 Z"/></g></g></g><g id="g58"><g clip-path="url(#clipPath62)" id="g60"><g transform="translate(28,26)" id="g66"><path id="path68" style="fill:#99aab5;fill-opacity:1;fill-rule:nonzero;stroke:none" d="m 0,0 c 0,-1.104 -0.896,-2 -2,-2 l -14,0 c -1.104,0 -2,0.896 -2,2 0,1.104 0.896,2 2,2 L -2,2 C -0.896,2 0,1.104 0,0"/></g><g transform="translate(28,3)" id="g70"><path id="path72" style="fill:#99aab5;fill-opacity:1;fill-rule:nonzero;stroke:none" d="m 0,0 c 0,-1.104 -0.896,-2 -2,-2 l -14,0 c -1.104,0 -2,0.896 -2,2 0,1.104 0.896,2 2,2 L -2,2 C -0.896,2 0,1.104 0,0"/></g></g></g></g></svg>
