<?xml version="1.0" encoding="UTF-8" standalone="no"?>
<!-- Created with Inkscape (http://www.inkscape.org/) -->

<svg
   xmlns:svg="http://www.w3.org/2000/svg"
   xmlns="http://www.w3.org/2000/svg"
   version="1.1"
   width="47.5"
   height="47.5"
   id="svg2"
   xml:space="preserve"><defs
     id="defs6"><clipPath
       id="clipPath18"><path
         d="M 1,1 37,1 37,37 1,37 1,1 z"
         id="path20" /></clipPath><clipPath
       id="clipPath66"><path
         d="M 0,38 38,38 38,0 0,0 0,38 z"
         id="path68" /></clipPath></defs><g
     transform="matrix(1.25,0,0,-1.25,0,47.5)"
     id="g12"><g
       id="g14"><g
         clip-path="url(#clipPath18)"
         id="g16"><g
           transform="translate(31.1689,28.8496)"
           id="g22"><path
             d="m 0,0 -14.849,-14.85 c 0,0 -0.707,2.121 0.707,3.536 1.415,1.415 12.728,12.728 12.728,12.728 L 0,0 z"
             id="path24"
             style="fill:#9aaab4;fill-opacity:1;fill-rule:nonzero;stroke:none" /></g><g
           transform="translate(31.1689,28.8496)"
           id="g26"><path
             d="M 0,0 C 1.172,1.172 2.438,1.805 2.829,1.414 3.221,1.023 2.586,-0.242 1.414,-1.414 0.243,-2.586 -1.022,-3.219 -1.414,-2.828 -1.805,-2.438 -1.171,-1.172 0,0 M -1.414,1.414 C -3.366,-0.539 -4,-3.07 -2.828,-4.242 -1.656,-5.414 0.877,-4.781 2.829,-2.828 4.781,-0.876 5.415,1.656 4.243,2.828 3.071,4 0.539,3.367 -1.414,1.414"
             id="path28"
             style="fill:#67757f;fill-opacity:1;fill-rule:nonzero;stroke:none" /></g><g
           transform="translate(21,26)"
           id="g30"><path
             d="m 0,0 c 0,6.075 -4.925,11 -11,11 -1.721,0 -3.343,-0.406 -4.793,-1.111 C -16.186,9.958 -16.588,10 -17,10 c -3.866,0 -7,-3.134 -7,-7 l 0,-12 0.018,0 c 0.183,-6.467 5.471,-11.656 11.982,-11.656 3.358,0 6.384,1.387 8.559,3.612 C 2.426,-17.507 9,-25 9,-25 l 7,9 C 1,-10 0,0 0,0"
             id="path32"
             style="fill:#642116;fill-opacity:1;fill-rule:nonzero;stroke:none" /></g><g
           transform="translate(18,10)"
           id="g34"><path
             d="m 0,0 -1,0 -16,0 -1,0 c -2.209,0 -4,-1.791 -4,-4 l 0,-5 5,0 16,0 5,0 0,5 C 4,-1.791 2.209,0 0,0"
             id="path36"
             style="fill:#9268ca;fill-opacity:1;fill-rule:nonzero;stroke:none" /></g><path
           d="m 18,1 -1,0 0,4 1,0 0,-4 z"
           id="path38"
           style="fill:#7450a8;fill-opacity:1;fill-rule:nonzero;stroke:none" /><path
           d="M 1,1 0,1 0,5 1,5 1,1 z"
           id="path40"
           style="fill:#7450a8;fill-opacity:1;fill-rule:nonzero;stroke:none" /><g
           transform="translate(11.9995,9.0049)"
           id="g42"><path
             d="m 0,0 0,3.995 -6,0 0,-4 0,0 c 0,-1.657 1.344,-3 3,-3 1.658,0 3,1.343 3,3 0,0.002 0,0.003 0,0.005"
             id="path44"
             style="fill:#d79e84;fill-opacity:1;fill-rule:nonzero;stroke:none" /></g><g
           transform="translate(5,32)"
           id="g46"><path
             d="M 0,0 C 0,0 -0.003,-5.308 -5,-5.936 L -5,-12 c 0,-4.971 4.029,-9 9,-9 4.971,0 9,4.029 9,9 l 0,5.019 C 1.89,-6.605 0,0 0,0"
             id="path48"
             style="fill:#d79e84;fill-opacity:1;fill-rule:nonzero;stroke:none" /></g><g
           transform="translate(13,16)"
           id="g50"><path
             d="m 0,0 -4,0 -4,0 c 0,0 1,-2 4,-2 3,0 4,2 4,2"
             id="path52"
             style="fill:#bb1a34;fill-opacity:1;fill-rule:nonzero;stroke:none" /></g><g
           transform="translate(25,31)"
           id="g54"><path
             d="m 0,0 0,-21 c 0,0 2,1 2,3 L 2,0 0,0 z"
             id="path56"
             style="fill:#9aaab4;fill-opacity:1;fill-rule:nonzero;stroke:none" /></g><g
           transform="translate(24,28)"
           id="g58"><path
             d="M 0,0 C -0.553,0 -1,1.343 -1,3 -1,4.657 -0.553,6 0,6 0.553,6 1,4.657 1,3 1,1.343 0.553,0 0,0 M 0,8 C -1.657,8 -3,5.761 -3,3 -3,0.239 -1.657,-2 0,-2 1.657,-2 3,0.239 3,3 3,5.761 1.657,8 0,8"
             id="path60"
             style="fill:#67757f;fill-opacity:1;fill-rule:nonzero;stroke:none" /></g></g></g><g
       id="g62"><g
         clip-path="url(#clipPath66)"
         id="g64"><g
           transform="translate(27,25)"
           id="g70"><path
             d="m 0,0 c 0,-0.552 -0.447,-1 -1,-1 -0.553,0 -1,0.448 -1,1 0,0.552 0.447,1 1,1 0.553,0 1,-0.448 1,-1"
             id="path72"
             style="fill:#67757f;fill-opacity:1;fill-rule:nonzero;stroke:none" /></g><g
           transform="translate(10,17.5)"
           id="g74"><path
             d="M 0,0 -2,0 C -2.276,0 -2.5,0.224 -2.5,0.5 -2.5,0.776 -2.276,1 -2,1 L 0,1 C 0.276,1 0.5,0.776 0.5,0.5 0.5,0.224 0.276,0 0,0"
             id="path76"
             style="fill:#bf6952;fill-opacity:1;fill-rule:nonzero;stroke:none" /></g><g
           transform="translate(5,21)"
           id="g78"><path
             d="m 0,0 c -0.552,0 -1,0.448 -1,1 l 0,1 C -1,2.552 -0.552,3 0,3 0.552,3 1,2.552 1,2 L 1,1 C 1,0.448 0.552,0 0,0"
             id="path80"
             style="fill:#292f33;fill-opacity:1;fill-rule:nonzero;stroke:none" /></g><g
           transform="translate(13,21)"
           id="g82"><path
             d="m 0,0 c -0.552,0 -1,0.448 -1,1 l 0,1 C -1,2.552 -0.552,3 0,3 0.552,3 1,2.552 1,2 L 1,1 C 1,0.448 0.552,0 0,0"
             id="path84"
             style="fill:#292f33;fill-opacity:1;fill-rule:nonzero;stroke:none" /></g></g></g></g></svg>