<?xml version="1.0" encoding="UTF-8" standalone="no"?><svg xmlns:dc="http://purl.org/dc/elements/1.1/" xmlns:cc="http://creativecommons.org/ns#" xmlns:rdf="http://www.w3.org/1999/02/22-rdf-syntax-ns#" xmlns:svg="http://www.w3.org/2000/svg" xmlns="http://www.w3.org/2000/svg" viewBox="0 0 47.5 47.5" style="enable-background:new 0 0 47.5 47.5;" xml:space="preserve" version="1.1" id="svg2"><metadata id="metadata8"><rdf:RDF><cc:Work rdf:about=""><dc:format>image/svg+xml</dc:format><dc:type rdf:resource="http://purl.org/dc/dcmitype/StillImage"/></cc:Work></rdf:RDF></metadata><defs id="defs6"><clipPath id="clipPath16" clipPathUnits="userSpaceOnUse"><path id="path18" d="M 0,38 38,38 38,0 0,0 0,38 Z"/></clipPath></defs><g transform="matrix(1.25,0,0,-1.25,0,47.5)" id="g10"><g id="g12"><g clip-path="url(#clipPath16)" id="g14"><g transform="translate(28,1)" id="g20"><path id="path22" style="fill:#d99e82;fill-opacity:1;fill-rule:nonzero;stroke:none" d="M 0,0 0,4 C 0,4 0,8 4,8 8,8 8,4 8,4 L 8,0 0,0 Z"/></g><g transform="translate(19,1)" id="g24"><path id="path26" style="fill:#d99e82;fill-opacity:1;fill-rule:nonzero;stroke:none" d="m 0,0 0,9 c 0,0 0,4 4,4 4,0 4,-4 4,-4 L 8,0 0,0 Z"/></g><g transform="translate(10,1)" id="g28"><path id="path30" style="fill:#d99e82;fill-opacity:1;fill-rule:nonzero;stroke:none" d="m 0,0 0,12 c 0,0 0,4 4,4 4,0 4,-4 4,-4 L 8,0 0,0 Z"/></g><g transform="translate(1,1)" id="g32"><path id="path34" style="fill:#d99e82;fill-opacity:1;fill-rule:nonzero;stroke:none" d="m 0,0 0,9 c 0,0 0,4 4,4 4,0 4,-4 4,-4 L 8,0 0,0 Z"/></g><g transform="translate(17.0005,13)" id="g36"><path id="path38" style="fill:#dd2e44;fill-opacity:1;fill-rule:nonzero;stroke:none" d="m 0,0 c 0,1.657 0,8 -3,8 -3,0 -3,-6.343 -3,-8 0,-1.657 1.343,-3 3,-3 1.657,0 3,1.343 3,3"/></g><g transform="translate(8.0005,10)" id="g40"><path id="path42" style="fill:#dd2e44;fill-opacity:1;fill-rule:nonzero;stroke:none" d="m 0,0 c 0,1.657 0,8 -3,8 -3,0 -3,-6.343 -3,-8 0,-1.657 1.343,-3 3,-3 1.657,0 3,1.343 3,3"/></g><g transform="translate(26,10)" id="g44"><path id="path46" style="fill:#dd2e44;fill-opacity:1;fill-rule:nonzero;stroke:none" d="m 0,0 c 0,1.657 0,8 -3,8 -3,0 -3,-6.343 -3,-8 0,-1.657 1.344,-3 3,-3 1.657,0 3,1.343 3,3"/></g><g transform="translate(35,5)" id="g48"><path id="path50" style="fill:#dd2e44;fill-opacity:1;fill-rule:nonzero;stroke:none" d="m 0,0 c 0,1.657 0,8 -3,8 -3,0 -3,-6.343 -3,-8 0,-1.657 1.344,-3 3,-3 1.657,0 3,1.343 3,3"/></g><g transform="translate(14,21)" id="g52"><path id="path54" style="fill:#dd2e44;fill-opacity:1;fill-rule:nonzero;stroke:none" d="m 0,0 0,-4 2,0 c 0,0 2,0 6,4 L 6,2 C 6,2 4,0 0,0"/></g><g transform="translate(20,23)" id="g56"><path id="path58" style="fill:#8899a6;fill-opacity:1;fill-rule:nonzero;stroke:none" d="M 0,0 8,8 10,6 2,-2 0,0 Z"/></g><g transform="translate(28,31)" id="g60"><path id="path62" style="fill:#8899a6;fill-opacity:1;fill-rule:nonzero;stroke:none" d="M 0,0 C 0,0 -2,2 0,4 L 2,6 9,6 9,1 6,-2 C 4,-4 2,-2 2,-2 L 0,0 Z"/></g></g></g></g></svg>
