<?xml version="1.0" encoding="UTF-8" standalone="no"?><svg xmlns:svg="http://www.w3.org/2000/svg" xmlns="http://www.w3.org/2000/svg" version="1.1" viewBox="0 0 47.5 47.5" style="enable-background:new 0 0 47.5 47.5;" id="svg2" xml:space="preserve"><defs id="defs6"><clipPath id="clipPath18"><path d="M 0,38 38,38 38,0 0,0 0,38 z" id="path20"/></clipPath></defs><g transform="matrix(1.25,0,0,-1.25,0,47.5)" id="g12"><g id="g14"><g clip-path="url(#clipPath18)" id="g16"><g transform="translate(33.2012,29.209)" id="g22"><path d="m 0,0 c -2.223,0.36 -7.568,3.963 -11.411,2.762 -3.843,-1.201 -3.543,-2.162 -5.464,-2.763 -1.922,-0.601 -2.222,0.36 -6.065,-0.841 -3.843,-1.201 -6.185,-7.206 -7.806,-8.768 0,0 -1.603,-1.62 -1.021,-3.483 0.582,-1.861 2.523,-1.32 2.523,-1.32 6.725,2.102 9.007,4.925 9.007,4.925 0,0 3.482,-1.021 6.364,-0.12 2.883,0.9 5.164,3.723 5.164,3.723 0,0 3.484,-1.021 10.209,1.081 0,0 1.902,0.661 1.32,2.523 C 2.238,-0.419 0,0 0,0" id="path24" style="fill:#e75a70;fill-opacity:1;fill-rule:nonzero;stroke:none"/></g><g transform="translate(32.1191,22.5435)" id="g26"><path d="m 0,0 c -5.764,-1.801 -4.562,-5.644 -11.288,-7.747 -6.726,-2.101 -7.927,1.741 -13.691,-0.06 -1.921,-0.602 -2.583,-1.861 -2.282,-2.824 0.901,-2.881 8.407,-10.026 18.976,-6.723 C 2.283,-14.051 4.385,-3.902 3.483,-1.021 3.184,-0.06 1.921,0.601 0,0" id="path28" style="fill:#e75a70;fill-opacity:1;fill-rule:nonzero;stroke:none"/></g></g></g></g></svg>
