<svg xmlns="http://www.w3.org/2000/svg" viewBox="0 0 47.5 47.5" enable-background="new 0 0 47.5 47.5"><defs><clipPath id="a"><path d="M0 38h38V0H0v38z"/></clipPath></defs><g><g><g clip-path="url(#a)" transform="matrix(1.25 0 0 -1.25 0 47.5)"><g><path fill="#ea596e" d="M17.52 36.77c2.25 0 4.83-1.38 6.7-3.25 1.88-1.88 3.78-3.93 3.78-6v-17.2l-15.97-.03V27.4c-.1 1.5 1.07 9.35 5.5 9.35"/></g><g><path fill="#dd2e44" d="M20 25.62V9c0-1.1.9 0 2 0V7c1.1 0 2 .9 2 2v15.67c-1.26.1-2.65.26-4 .95"/></g><g><path fill="#f4abba" d="M23.07 33.55c2.67-2.4 4.28-5.24 2.96-6.7-1.3-1.47-5.06-1-7.72 1.4-2.65 2.4-3.74 5.5-2.43 6.97 1.32 1.47 4.54.72 7.2-1.67"/></g><g><path fill="#ffcc4d" d="M31 3c0-1.1-.9-2-2-2H11c-1.1 0-2 .9-2 2v6c0 1.1.9 2 2 2h18c1.1 0 2-.9 2-2V3z"/></g><g><path fill="#ffac33" d="M32 3c0-1.1-.9-2-2-2H10c-1.1 0-2 .9-2 2v1c0 1.1.9 2 2 2h20c1.1 0 2-.9 2-2V3z"/></g></g></g></g></svg>