<?xml version="1.0" encoding="UTF-8" standalone="no"?>
<!-- Created with Inkscape (http://www.inkscape.org/) -->

<svg
   xmlns:svg="http://www.w3.org/2000/svg"
   xmlns="http://www.w3.org/2000/svg"
   version="1.1"
   width="47.5"
   height="47.5"
   id="svg2"
   xml:space="preserve"><defs
     id="defs6"><clipPath
       id="clipPath18"><path
         d="M 0,38 38,38 38,0 0,0 0,38 z"
         id="path20" /></clipPath></defs><g
     transform="matrix(1.25,0,0,-1.25,0,47.5)"
     id="g12"><g
       id="g14"><g
         clip-path="url(#clipPath18)"
         id="g16"><g
           transform="translate(37,10)"
           id="g22"><path
             d="m 0,0 c 0,-2.209 -1.791,-4 -4,-4 l -28,0 c -2.209,0 -4,1.791 -4,4 l 0,18 c 0,2.209 1.791,4 4,4 l 28,0 c 2.209,0 4,-1.791 4,-4 L 0,0 z"
             id="path24"
             style="fill:#ccd6dd;fill-opacity:1;fill-rule:nonzero;stroke:none" /></g><g
           transform="translate(12.9492,19.3643)"
           id="g26"><path
             d="m 0,0 -11.313,-11.313 c -0.026,-0.028 -0.037,-0.063 -0.06,-0.091 0.34,-0.571 0.814,-1.043 1.385,-1.384 0.029,0.023 0.063,0.033 0.09,0.059 L 1.416,-1.414 c 0.39,0.391 0.39,1.022 0,1.414 C 1.023,0.391 0.392,0.391 0,0"
             id="path28"
             style="fill:#99aab5;fill-opacity:1;fill-rule:nonzero;stroke:none" /></g><g
           transform="translate(36.4229,7.96)"
           id="g30"><path
             d="m 0,0 c -0.021,0.028 -0.033,0.063 -0.06,0.09 l -11.312,11.314 c -0.392,0.391 -1.024,0.391 -1.415,0 -0.391,-0.391 -0.391,-1.023 0,-1.414 L -1.474,-1.324 c 0.027,-0.027 0.062,-0.037 0.09,-0.06 C -0.813,-1.044 -0.34,-0.57 0,0"
             id="path32"
             style="fill:#99aab5;fill-opacity:1;fill-rule:nonzero;stroke:none" /></g><g
           transform="translate(33,32)"
           id="g34"><path
             d="m 0,0 -28,0 c -2.209,0 -4,-1.791 -4,-4 l 0,-1.03 14.527,-14.495 c 1.895,-1.894 4.989,-1.894 6.885,0 L 4,-5.009 4,-4 C 4,-1.791 2.209,0 0,0"
             id="path36"
             style="fill:#99aab5;fill-opacity:1;fill-rule:nonzero;stroke:none" /></g><g
           transform="translate(33,32)"
           id="g38"><path
             d="m 0,0 -28,0 c -1.588,0 -2.949,-0.934 -3.595,-2.275 l 14.766,-14.767 c 1.561,-1.562 4.096,-1.562 5.657,0 L 3.595,-2.275 C 2.949,-0.934 1.589,0 0,0"
             id="path40"
             style="fill:#e1e8ed;fill-opacity:1;fill-rule:nonzero;stroke:none" /></g><g
           transform="translate(28,20.2202)"
           id="g42"><path
             d="m 0,0 c 0,2.754 -2.232,4.987 -4.986,4.987 -1.672,0 -3.148,-0.826 -4.053,-2.087 -0.906,1.261 -2.381,2.087 -4.051,2.087 -2.754,0 -4.987,-2.233 -4.987,-4.987 0,-0.391 0.05,-0.769 0.134,-1.133 0.693,-4.302 5.476,-8.841 8.904,-10.087 3.428,1.246 8.212,5.785 8.904,10.086 C -0.05,-0.769 0,-0.391 0,0"
             id="path44"
             style="fill:#e75a70;fill-opacity:1;fill-rule:nonzero;stroke:none" /></g></g></g></g></svg>