<?xml version="1.0" encoding="UTF-8" standalone="no"?>
<!-- Created with Inkscape (http://www.inkscape.org/) -->

<svg
   xmlns:svg="http://www.w3.org/2000/svg"
   xmlns="http://www.w3.org/2000/svg"
   version="1.1"
   width="47.5"
   height="47.5"
   id="svg2"
   xml:space="preserve"><defs
     id="defs6"><clipPath
       id="clipPath18"><path
         d="M 0,38 38,38 38,0 0,0 0,38 z"
         id="path20" /></clipPath></defs><g
     transform="matrix(1.25,0,0,-1.25,0,47.5)"
     id="g12"><g
       id="g14"><g
         clip-path="url(#clipPath18)"
         id="g16"><g
           transform="translate(26.0713,26.0713)"
           id="g22"><path
             d="m 0,0 c -0.256,0 -0.512,0.098 -0.707,0.293 -0.391,0.391 -0.391,1.023 0,1.414 l 7.778,7.778 c 0.391,0.39 1.024,0.39 1.414,0 0.391,-0.391 0.391,-1.024 0,-1.414 L 0.707,0.293 C 0.512,0.098 0.256,0 0,0"
             id="path24"
             style="fill:#66757f;fill-opacity:1;fill-rule:nonzero;stroke:none" /></g><g
           transform="translate(7.6865,4.4434)"
           id="g26"><path
             d="m 0,0 c -0.781,-0.78 -2.048,-0.78 -2.829,0 l -1.414,1.414 c -0.781,0.781 -0.781,2.048 0,2.829 l 4.95,4.949 c 0.781,0.782 2.047,0.782 2.828,0 L 4.95,7.778 C 5.73,6.997 5.73,5.731 4.95,4.95 L 0,0 z"
             id="path28"
             style="fill:#ccd6dd;fill-opacity:1;fill-rule:nonzero;stroke:none" /></g><g
           transform="translate(27.8389,24.5962)"
           id="g30"><path
             d="m 0,0 c -0.586,-0.586 -1.536,-0.585 -2.121,0 l -2.121,2.121 c -0.586,0.586 -0.586,1.536 0,2.122 0.585,0.586 1.535,0.586 2.121,0 L 0,2.121 C 0.586,1.536 0.586,0.586 0,0"
             id="path32"
             style="fill:#99aab5;fill-opacity:1;fill-rule:nonzero;stroke:none" /></g><g
           transform="translate(15.4644,9.3936)"
           id="g34"><path
             d="m 0,0 c -0.781,-0.781 -2.047,-0.781 -2.828,0 l -4.243,4.242 c -0.781,0.781 -0.781,2.048 0,2.829 L 4.95,19.092 c 0.781,0.781 2.048,0.781 2.828,0 l 4.243,-4.243 c 0.781,-0.781 0.781,-2.047 0,-2.828 L 0,0 z"
             id="path36"
             style="fill:#e1e8ed;fill-opacity:1;fill-rule:nonzero;stroke:none" /></g><g
           transform="translate(19.707,13.6357)"
           id="g38"><path
             d="M 0,0 C -0.781,-0.78 -1.34,-0.073 -2.121,0.707 L -6.364,4.95 c -0.781,0.781 -1.488,1.341 -0.707,2.121 l 7.778,7.779 c 0.781,0.78 2.048,0.78 2.828,0 L 7.778,10.607 C 8.56,9.826 8.56,8.56 7.778,7.778 L 0,0 z"
             id="path40"
             style="fill:#dd2e44;fill-opacity:1;fill-rule:nonzero;stroke:none" /></g><g
           transform="translate(15.8179,6.9189)"
           id="g42"><path
             d="m 0,0 c -0.585,-0.586 -1.536,-0.586 -2.121,0 l -7.778,7.777 c -0.586,0.586 -0.586,1.536 0,2.122 0.585,0.586 1.535,0.586 2.121,0 L 0,2.121 C 0.586,1.535 0.586,0.585 0,0"
             id="path44"
             style="fill:#99aab5;fill-opacity:1;fill-rule:nonzero;stroke:none" /></g><g
           transform="translate(8.7471,2.6758)"
           id="g46"><path
             d="m 0,0 c -0.585,-0.586 -1.536,-0.586 -2.122,0 l -4.949,4.95 c -0.586,0.586 -0.586,1.535 0,2.121 0.585,0.586 1.535,0.586 2.121,0 L 0,2.121 C 0.585,1.536 0.585,0.586 0,0"
             id="path48"
             style="fill:#99aab5;fill-opacity:1;fill-rule:nonzero;stroke:none" /></g><g
           transform="translate(34.8828,20.498)"
           id="g50"><path
             d="M 0,0 C -0.374,0.582 -0.887,1.38 -1.535,2.676 -1.666,2.939 -2.1,2.939 -2.23,2.676 -2.879,1.38 -3.392,0.582 -3.766,0 c -0.523,-0.814 -0.838,-1.306 -0.838,-2.165 0,-1.501 1.22,-2.722 2.721,-2.722 1.501,0 2.722,1.221 2.722,2.722 C 0.839,-1.306 0.523,-0.814 0,0"
             id="path52"
             style="fill:#dd2e44;fill-opacity:1;fill-rule:nonzero;stroke:none" /></g><g
           transform="translate(30.8828,11.498)"
           id="g54"><path
             d="M 0,0 C -0.374,0.582 -0.887,1.38 -1.535,2.676 -1.666,2.939 -2.1,2.939 -2.23,2.676 -2.879,1.38 -3.392,0.582 -3.766,0 c -0.523,-0.814 -0.838,-1.307 -0.838,-2.164 0,-1.501 1.22,-2.723 2.721,-2.723 1.501,0 2.722,1.222 2.722,2.723 C 0.839,-1.307 0.523,-0.814 0,0"
             id="path56"
             style="fill:#dd2e44;fill-opacity:1;fill-rule:nonzero;stroke:none" /></g></g></g></g></svg>