<?xml version="1.0" encoding="UTF-8" standalone="no"?><svg xmlns:dc="http://purl.org/dc/elements/1.1/" xmlns:cc="http://creativecommons.org/ns#" xmlns:rdf="http://www.w3.org/1999/02/22-rdf-syntax-ns#" xmlns:svg="http://www.w3.org/2000/svg" xmlns="http://www.w3.org/2000/svg" viewBox="0 0 47.5 47.5" style="enable-background:new 0 0 47.5 47.5;" xml:space="preserve" version="1.1" id="svg2"><metadata id="metadata8"><rdf:RDF><cc:Work rdf:about=""><dc:format>image/svg+xml</dc:format><dc:type rdf:resource="http://purl.org/dc/dcmitype/StillImage"/></cc:Work></rdf:RDF></metadata><defs id="defs6"/><g transform="matrix(1.25,0,0,-1.25,0,47.5)" id="g10"><g transform="translate(14,34)" id="g12"><path id="path14" style="fill:#bdddf4;fill-opacity:1;fill-rule:nonzero;stroke:none" d="m 0,0 -6,0 -7,-9 10,0 3,9 z"/></g><g transform="translate(37,25)" id="g16"><path id="path18" style="fill:#5dadec;fill-opacity:1;fill-rule:nonzero;stroke:none" d="m 0,0 -7,9 -6,0 3,-9 10,0 z"/></g><g transform="translate(27,25)" id="g20"><path id="path22" style="fill:#4289c1;fill-opacity:1;fill-rule:nonzero;stroke:none" d="M 0,0 10,0 -8,-21 0,0 Z"/></g><g transform="translate(11,25)" id="g24"><path id="path26" style="fill:#8ccaf7;fill-opacity:1;fill-rule:nonzero;stroke:none" d="M 0,0 -10,0 8,-21 0,0 Z"/></g><g transform="translate(14,34)" id="g28"><path id="path30" style="fill:#8ccaf7;fill-opacity:1;fill-rule:nonzero;stroke:none" d="M 0,0 -3,-9 13,-9 10,0 0,0 Z"/></g><g transform="translate(19,4)" id="g32"><path id="path34" style="fill:#5dadec;fill-opacity:1;fill-rule:nonzero;stroke:none" d="M 0,0 -8,21 8,21 0,0 Z"/></g></g></svg>
