<svg xmlns="http://www.w3.org/2000/svg" viewBox="0 0 47.5 47.5" enable-background="new 0 0 47.5 47.5"><defs><clipPath id="a"><path d="M0 38h38V0H0v38z"/></clipPath></defs><g><g><g clip-path="url(#a)" transform="matrix(1.25 0 0 -1.25 0 47.5)"><g><path fill="#bb1a34" d="M34.2 17.23l-8.86 8.85L12.1 12.46l8.7-8.68C22.5 2.06 24.87 1 27.5 1c5.25 0 9.5 4.25 9.5 9.5 0 2.63-1.07 5-2.8 6.73"/></g><g><path fill="#fdcb58" d="M16.92 34.5c-1.7 1.54-3.94 2.5-6.42 2.5C5.25 37 1 32.75 1 27.5c0-2.48.96-4.73 2.5-6.42v-.02l8.6-8.6 13.24 13.62-8.42 8.4z"/></g></g></g></g></svg>