<?xml version="1.0" encoding="UTF-8" standalone="no"?><svg xmlns:dc="http://purl.org/dc/elements/1.1/" xmlns:cc="http://creativecommons.org/ns#" xmlns:rdf="http://www.w3.org/1999/02/22-rdf-syntax-ns#" xmlns:svg="http://www.w3.org/2000/svg" xmlns="http://www.w3.org/2000/svg" viewBox="0 0 47.5 47.5" style="enable-background:new 0 0 47.5 47.5;" xml:space="preserve" version="1.1" id="svg2"><metadata id="metadata8"><rdf:RDF><cc:Work rdf:about=""><dc:format>image/svg+xml</dc:format><dc:type rdf:resource="http://purl.org/dc/dcmitype/StillImage"/></cc:Work></rdf:RDF></metadata><defs id="defs6"><clipPath id="clipPath16" clipPathUnits="userSpaceOnUse"><path id="path18" d="M 0,38 38,38 38,0 0,0 0,38 Z"/></clipPath></defs><g transform="matrix(1.25,0,0,-1.25,0,47.5)" id="g10"><g id="g12"><g clip-path="url(#clipPath16)" id="g14"><g transform="translate(15,37)" id="g20"><path id="path22" style="fill:#642116;fill-opacity:1;fill-rule:nonzero;stroke:none" d="M 0,0 C -1.721,0 -3.343,-0.406 -4.793,-1.111 -5.186,-1.042 -5.588,-1 -6,-1 c -3.866,0 -7,-3.134 -7,-7 l 0,-12 0.018,0 c 0.183,-6.467 5.471,-11.656 11.982,-11.656 6.511,0 11.799,5.189 11.982,11.656 l 0.018,0 0,9 C 11,-4.925 6.075,0 0,0"/></g><g transform="translate(23,10)" id="g24"><path id="path26" style="fill:#9268ca;fill-opacity:1;fill-rule:nonzero;stroke:none" d="m 0,0 -1,0 -16,0 -1,0 c -2.209,0 -4,-1.791 -4,-4 l 0,-5 5,0 16,0 5,0 0,5 C 4,-1.791 2.209,0 0,0"/></g><path id="path28" style="fill:#7450a8;fill-opacity:1;fill-rule:nonzero;stroke:none" d="m 23,1 -1,0 0,4 1,0 0,-4 z"/><path id="path30" style="fill:#7450a8;fill-opacity:1;fill-rule:nonzero;stroke:none" d="M 6,1 5,1 5,5 6,5 6,1 Z"/><g transform="translate(11,15)" id="g32"><path id="path34" style="fill:#d79e84;fill-opacity:1;fill-rule:nonzero;stroke:none" d="m 0,0 0,-6 c 0,-1.657 1.343,-3 3,-3 1.657,0 3,1.343 3,3 L 6,0 0,0 Z"/></g><g transform="translate(10,32)" id="g36"><path id="path38" style="fill:#d79e84;fill-opacity:1;fill-rule:nonzero;stroke:none" d="M 0,0 C 0,0 -0.003,-5.308 -5,-5.936 L -5,-12 c 0,-4.971 4.029,-9 9,-9 4.971,0 9,4.029 9,9 l 0,5.019 C 1.89,-6.605 0,0 0,0"/></g><g transform="translate(18,15)" id="g40"><path id="path42" style="fill:#bb1a34;fill-opacity:1;fill-rule:nonzero;stroke:none" d="m 0,0 -4,0 -4,0 c 0,0 1,-2 4,-2 3,0 4,2 4,2"/></g><g transform="translate(30,1)" id="g44"><path id="path46" style="fill:#9268ca;fill-opacity:1;fill-rule:nonzero;stroke:none" d="M 0,0 -7,0 -6,17 0,17 0,0 Z"/></g><g transform="translate(32.541,21.5566)" id="g48"><path id="path50" style="fill:#bf6952;fill-opacity:1;fill-rule:nonzero;stroke:none" d="m 0,0 c -0.144,0.693 -0.822,1.139 -1.517,0.997 l -2.674,-0.554 -2.35,0 c -1.105,0 -2,-0.895 -2,-2 l 0,-1 0,-1 5,0 c 1.079,0 1.953,0.857 1.992,1.927 l 0.355,0.073 0.653,0 c 0,0.075 -0.028,0.144 -0.045,0.217 C -0.142,-1.065 0.112,-0.542 0,0"/></g><g transform="translate(37,21)" id="g52"><path id="path54" style="fill:#d79e84;fill-opacity:1;fill-rule:nonzero;stroke:none" d="m 0,0 c 0,0.552 -0.447,1 -1,1 l -6,-1 -5,0 c -0.553,0 -1,-0.448 -1,-1 l 0,-2 2,0 4,0 6,2 c 0,0 1,0.447 1,1"/></g><g transform="translate(15,17.5)" id="g56"><path id="path58" style="fill:#bf6952;fill-opacity:1;fill-rule:nonzero;stroke:none" d="M 0,0 -2,0 C -2.276,0 -2.5,0.224 -2.5,0.5 -2.5,0.776 -2.276,1 -2,1 L 0,1 C 0.276,1 0.5,0.776 0.5,0.5 0.5,0.224 0.276,0 0,0"/></g><g transform="translate(10,21)" id="g60"><path id="path62" style="fill:#292f33;fill-opacity:1;fill-rule:nonzero;stroke:none" d="m 0,0 c -0.552,0 -1,0.448 -1,1 l 0,1 C -1,2.552 -0.552,3 0,3 0.552,3 1,2.552 1,2 L 1,1 C 1,0.448 0.552,0 0,0"/></g><g transform="translate(18,21)" id="g64"><path id="path66" style="fill:#292f33;fill-opacity:1;fill-rule:nonzero;stroke:none" d="m 0,0 c -0.552,0 -1,0.448 -1,1 l 0,1 C -1,2.552 -0.552,3 0,3 0.552,3 1,2.552 1,2 L 1,1 C 1,0.448 0.552,0 0,0"/></g></g></g></g></svg>
