<svg xmlns="http://www.w3.org/2000/svg" viewBox="0 0 47.5 47.5" enable-background="new 0 0 47.5 47.5"><defs><clipPath id="a"><path d="M0 38h38V0H0v38z"/></clipPath></defs><g><g><g clip-path="url(#a)" transform="matrix(1.25 0 0 -1.25 0 47.5)"><g><path fill="#e75a70" d="M14.6 10.48c-.3.5-.3 1.12.02 1.6l4.4 6.64-6 5.14c-.55.48-.68 1.28-.3 1.9l4.3 7.18c-1.67 1.3-3.76 2.1-6.04 2.1-5.45 0-9.87-4.42-9.87-9.87 0-.78.1-1.52.28-2.24C2.75 14.4 12.22 5.43 19 2.97c.03 0 .05.02.08.03l-4.5 7.48z"/></g><g><path fill="#e75a70" d="M27.02 35.03c-2.77 0-5.25-1.15-7.04-2.98l-4.04-6.74 6.04-5.16c.57-.5.7-1.34.27-1.97l-4.6-6.96L21.8 4.3c6.35 3.53 13.63 11.26 14.82 18.65.17.72.26 1.46.26 2.24 0 5.45-4.4 9.86-9.86 9.86"/></g></g></g></g></svg>