<svg xmlns="http://www.w3.org/2000/svg" viewBox="0 0 47.5 47.5" enable-background="new 0 0 47.5 47.5"><defs><clipPath id="a"><path d="M1 1h36v36H1V1z"/></clipPath><clipPath id="b"><path d="M0 38h38V0H0v38z"/></clipPath><clipPath id="c"><path d="M1 1h36v36H1V1z"/></clipPath><clipPath id="d"><path d="M0 38h38V0H0v38z"/></clipPath><clipPath id="e"><path d="M0 38h38V0H0v38z"/></clipPath></defs><g><g><g clip-path="url(#a)" transform="matrix(1.25 0 0 -1.25 0 47.5)"><g><path fill="#642116" d="M4 37c-1.72 0-3.34-.4-4.8-1.1-.4.06-.8.1-1.2.1-3.87 0-7-3.13-7-7V17h.02C-8.8 10.53-3.5 5.34 3 5.34c6.5 0 11.8 5.2 11.98 11.66H15v9c0 6.08-4.92 11-11 11"/></g><g><path fill="#9268ca" d="M12 10H-6c-2.2 0-4-1.8-4-4V1h26v5c0 2.2-1.8 4-4 4"/></g><path fill="#7450a8" d="M12 1h-1v4h1V1z"/><g><path fill="#d79e84" d="M6 9v5H0V9c0-1.66 1.34-3 3-3s3 1.34 3 3"/></g><g><path fill="#d79e84" d="M-1 32h-5V20c0-4.97 4.03-9 9-9s9 4.03 9 9v5.02C.9 25.4-1 32-1 32"/></g><g><path fill="#bb1a34" d="M7 15h-8s1-2 4-2 4 2 4 2"/></g></g></g><g><g clip-path="url(#b)" transform="matrix(1.25 0 0 -1.25 0 47.5)"><g><path fill="#292f33" d="M7 21c-.55 0-1 .45-1 1v1c0 .55.45 1 1 1s1-.45 1-1v-1c0-.55-.45-1-1-1"/></g><g><path fill="#bf6952" d="M4 17.5H2c-.28 0-.5.22-.5.5s.22.5.5.5h2c.28 0 .5-.22.5-.5s-.22-.5-.5-.5"/></g></g></g><g><g clip-path="url(#c)" transform="matrix(1.25 0 0 -1.25 0 47.5)"><g><path fill="#292f33" d="M45 26c0-6.08-4.92-11-11-11s-11 4.92-11 11 4.92 11 11 11 11-4.92 11-11"/></g><g><path fill="#d79e84" d="M38 10v5h-6v-5h-2V2h10v8h-2z"/></g><g><path fill="#d79e84" d="M43 32v-7c-8.45 0-11.94 3.47-13.27 5.52-.42-1.8-1.43-4.7-3.73-5.36V20c0-4.97 4.03-9 9-9s9 4.03 9 9v12h-1z"/></g><g><path fill="#4289c1" d="M26 10h6l3-5 3 5.1 6-.1c2.2 0 4-1.8 4-4V1H22v5c0 2.2 1.8 4 4 4"/></g><path fill="#2a6797" d="M26 1h1v4h-1V1z"/><g><path fill="#bf6952" d="M31 15h8s-1-2-4-2-4 2-4 2"/></g></g></g><g><g clip-path="url(#d)" transform="matrix(1.25 0 0 -1.25 0 47.5)"><g><path fill="#2a6797" d="M31 21c-.55 0-1 .45-1 1v1c0 .55.45 1 1 1s1-.45 1-1v-1c0-.55-.45-1-1-1"/></g><g><path fill="#bf6952" d="M36 17.5h-2c-.28 0-.5.22-.5.5s.22.5.5.5h2c.28 0 .5-.22.5-.5s-.22-.5-.5-.5"/></g></g></g><g><g clip-path="url(#e)" transform="matrix(1.25 0 0 -1.25 0 47.5)"><g><path fill="#e75a70" d="M27.08 32.3c0 2.6-2.1 4.7-4.7 4.7-1.6 0-3-.78-3.84-1.97-.86 1.2-2.25 1.97-3.83 1.97-2.6 0-4.7-2.1-4.7-4.7 0-.38.05-.74.13-1.08.65-4.07 5.17-8.35 8.4-9.53 3.25 1.17 7.77 5.45 8.42 9.52.08.34.13.7.13 1.07"/></g></g></g></g></svg>