<?xml version="1.0" encoding="UTF-8" standalone="no"?><svg xmlns:svg="http://www.w3.org/2000/svg" xmlns="http://www.w3.org/2000/svg" version="1.1" viewBox="0 0 47.5 47.5" style="enable-background:new 0 0 47.5 47.5;" id="svg2" xml:space="preserve"><defs id="defs6"><clipPath id="clipPath18"><path d="M 0,38 38,38 38,0 0,0 0,38 z" id="path20"/></clipPath></defs><g transform="matrix(1.25,0,0,-1.25,0,47.5)" id="g12"><g id="g14"><g clip-path="url(#clipPath18)" id="g16"><g transform="translate(34.8848,21.2358)" id="g22"><path d="m 0,0 c 0,4.841 -3.924,8.764 -8.764,8.764 -2.937,0 -5.53,-1.45 -7.121,-3.667 -1.59,2.217 -4.183,3.667 -7.12,3.667 -4.841,0 -8.765,-3.923 -8.765,-8.764 0,-0.686 0.087,-1.35 0.236,-1.99 1.218,-7.561 9.624,-15.538 15.649,-17.728 6.025,2.19 14.432,10.167 15.648,17.727 C -0.087,-1.35 0,-0.686 0,0" id="path24" style="fill:#e75a70;fill-opacity:1;fill-rule:nonzero;stroke:none"/></g><g transform="translate(2.499,25.9585)" id="g26"><path d="M 0,0 C -0.15,0 -0.303,0.034 -0.446,0.105 -0.94,0.353 -1.141,0.953 -0.894,1.447 0.122,3.478 2.899,6.643 6.389,7.035 6.938,7.096 7.432,6.703 7.495,6.153 7.557,5.604 7.162,5.109 6.613,5.048 3.934,4.746 1.685,2.131 0.896,0.553 0.72,0.202 0.367,0 0,0" id="path28" style="fill:#fdcb58;fill-opacity:1;fill-rule:nonzero;stroke:none"/></g><g transform="translate(2.0405,31.375)" id="g30"><path d="M 0,0 C -0.193,0 -0.388,0.056 -0.56,0.172 -1.017,0.482 -1.137,1.104 -0.827,1.561 0.108,2.942 2.067,4.47 3.855,4.582 4.408,4.625 4.881,4.197 4.916,3.646 4.95,3.095 4.531,2.62 3.98,2.585 3.02,2.525 1.576,1.542 0.829,0.439 0.636,0.154 0.321,0 0,0" id="path32" style="fill:#fdcb58;fill-opacity:1;fill-rule:nonzero;stroke:none"/></g><g transform="translate(35.792,25.9585)" id="g34"><path d="m 0,0 c -0.367,0 -0.72,0.202 -0.896,0.553 -0.789,1.578 -3.039,4.193 -5.717,4.495 -0.549,0.061 -0.944,0.556 -0.882,1.105 0.061,0.549 0.549,0.946 1.106,0.882 C -2.899,6.643 -0.122,3.478 0.894,1.447 1.141,0.953 0.94,0.353 0.446,0.105 0.303,0.034 0.15,0 0,0" id="path36" style="fill:#fdcb58;fill-opacity:1;fill-rule:nonzero;stroke:none"/></g><g transform="translate(36.251,31.375)" id="g38"><path d="M 0,0 C -0.32,0 -0.636,0.154 -0.829,0.439 -1.576,1.542 -3.02,2.525 -3.98,2.585 -4.531,2.62 -4.95,3.095 -4.916,3.646 -4.882,4.198 -4.406,4.627 -3.855,4.582 -2.067,4.47 -0.108,2.941 0.827,1.561 1.137,1.104 1.018,0.482 0.56,0.172 0.388,0.056 0.193,0 0,0" id="path40" style="fill:#fdcb58;fill-opacity:1;fill-rule:nonzero;stroke:none"/></g></g></g></g></svg>
