<svg xmlns="http://www.w3.org/2000/svg" viewBox="0 0 47.5 47.5" enable-background="new 0 0 47.5 47.5"><defs><clipPath id="a"><path d="M0 38h38V0H0v38z"/></clipPath></defs><g><g><g clip-path="url(#a)" transform="matrix(1.25 0 0 -1.25 0 47.5)"><g><path fill="#f2abba" d="M36.88 25.17c0 5.45-4.4 9.86-9.86 9.86-3.3 0-6.23-1.63-8.02-4.12-1.8 2.5-4.7 4.13-8.02 4.13-5.45 0-9.87-4.4-9.87-9.86 0-.78.1-1.52.28-2.24C2.75 14.4 12.22 5.43 19 2.97c6.78 2.46 16.25 11.44 17.62 19.96.17.72.26 1.46.26 2.24"/></g><g><path fill="#e75a70" d="M32.42 23.63c0 4.1-3.3 7.4-7.4 7.4-2.5 0-4.68-1.22-6.02-3.1-1.34 1.88-3.54 3.1-6.02 3.1-4.1 0-7.4-3.3-7.4-7.4 0-.58.07-1.14.2-1.68C6.8 15.55 13.9 8.82 19 6.97c5.1 1.85 12.2 8.6 13.22 14.98.13.54.2 1.1.2 1.68"/></g><g><path fill="#bb1a34" d="M28.2 22.17c0 2.8-2.28 5.07-5.08 5.07-1.7 0-3.2-.84-4.12-2.12-.92 1.28-2.42 2.12-4.12 2.12-2.8 0-5.07-2.27-5.07-5.07 0-.4.06-.78.14-1.15.7-4.38 5.57-9 9.06-10.26 3.5 1.27 8.35 5.88 9.05 10.26.1.37.14.75.14 1.15"/></g></g></g></g></svg>