<?xml version="1.0" encoding="UTF-8" standalone="no"?><svg xmlns:svg="http://www.w3.org/2000/svg" xmlns="http://www.w3.org/2000/svg" version="1.1" viewBox="0 0 47.5 47.5" style="enable-background:new 0 0 47.5 47.5;" id="svg2" xml:space="preserve"><defs id="defs6"><clipPath id="clipPath18"><path d="M 0,38 38,38 38,0 0,0 0,38 z" id="path20"/></clipPath></defs><g transform="matrix(1.25,0,0,-1.25,0,47.5)" id="g12"><g id="g14"><g clip-path="url(#clipPath18)" id="g16"><g transform="translate(36.0098,6.0332)" id="g22"><path d="m 0,0 c -1.385,2.226 -3.34,5.001 -5.265,7.888 -5.14,8.772 -1.512,18.411 -2.892,21.51 -0.56,1.26 -3.879,-0.966 -5.555,-4.563 -0.356,0.106 -0.747,0.157 -1.17,0.148 0.155,2.398 0.293,4.31 -0.193,5.404 -0.71,1.598 -5.867,-2.419 -6.464,-7.73 -1.847,-1.006 -3.222,-1.956 -3.222,-1.956 0,0 -0.95,-1.376 -1.954,-3.223 -5.312,-0.594 -9.331,-5.753 -7.732,-6.464 1.096,-0.489 3.014,-0.349 5.421,-0.193 -0.006,-0.42 0.046,-0.806 0.153,-1.159 -3.609,-1.674 -5.848,-5.006 -4.586,-5.567 3.282,-1.46 13.9,2.701 23.053,-3.893 0.288,-0.207 0.478,-0.322 0.6,-0.371 2.118,-1.433 4.114,-2.801 5.791,-3.846 2.875,-1.79 3.962,0.007 3.962,0.007 0,0 1.844,1.132 0.053,4.008" id="path24" style="fill:#3e721d;fill-opacity:1;fill-rule:nonzero;stroke:none"/></g><g transform="translate(36.0293,2.1719)" id="g26"><path d="m 0,0 c 0.369,0.545 0.338,1.278 -0.144,1.761 0,0 -11.86,15.812 -13.835,23.719 -1.977,7.906 -4.397,5.737 -3.689,-0.474 0.325,-2.848 1.817,-6.139 3.806,-9.385 l -8.942,8.941 c -0.546,0.546 -1.431,0.546 -1.977,0 -0.545,-0.546 -0.546,-1.431 0,-1.977 l 8.94,-8.94 c -3.245,1.987 -6.536,3.48 -9.383,3.804 -6.212,0.709 -8.381,-1.712 -0.475,-3.688 7.907,-1.976 23.72,-13.836 23.72,-13.836 0.481,-0.483 1.214,-0.513 1.757,-0.146 0.035,-0.007 0.065,-0.009 0.078,0.004 0.026,0.026 0.035,0.06 0.058,0.086 0.025,0.023 0.059,0.031 0.083,0.056 C 0.011,-0.062 0.007,-0.031 0,0" id="path28" style="fill:#77b255;fill-opacity:1;fill-rule:nonzero;stroke:none"/></g><g transform="translate(14.7715,30.1289)" id="g30"><path d="m 0,0 c 1.807,-1.806 1.721,-4.819 -0.188,-6.729 -1.911,-1.91 -3.771,-0.842 -5.578,0.964 -1.805,1.806 -2.873,3.666 -0.963,5.577 C -4.819,1.721 -1.806,1.806 0,0" id="path32" style="fill:#dd2e44;fill-opacity:1;fill-rule:nonzero;stroke:none"/></g><g transform="translate(13.6182,28.9756)" id="g34"><path d="m 0,0 c 1.807,-1.807 2.875,-3.666 0.965,-5.576 -1.91,-1.91 -4.923,-1.995 -6.73,-0.189 -1.806,1.806 -0.964,5.577 -0.902,7.82 C -6.592,4.683 -2.18,2.181 0,0" id="path36" style="fill:#ea596e;fill-opacity:1;fill-rule:nonzero;stroke:none"/></g><g transform="translate(23.665,21.2344)" id="g38"><path d="m 0,0 c 1.808,-1.807 1.722,-4.819 -0.187,-6.729 -1.911,-1.911 -3.77,-0.842 -5.577,0.963 -1.805,1.806 -2.874,3.667 -0.964,5.577 C -4.818,1.721 -1.804,1.806 0,0" id="path40" style="fill:#dd2e44;fill-opacity:1;fill-rule:nonzero;stroke:none"/></g><g transform="translate(22.5137,20.0811)" id="g42"><path d="m 0,0 c 1.806,-1.807 2.873,-3.666 0.964,-5.576 -1.91,-1.91 -4.923,-1.995 -6.729,-0.188 -1.806,1.806 -0.964,5.576 -0.902,7.819 C -6.592,4.683 -2.181,2.18 0,0" id="path44" style="fill:#ea596e;fill-opacity:1;fill-rule:nonzero;stroke:none"/></g><g transform="translate(12.2026,20.8896)" id="g46"><path d="M 0,0 C 2.369,-1.052 3.327,-3.876 2.139,-6.308 0.952,-8.741 -1.215,-8.393 -3.583,-7.341 -5.953,-6.289 -7.628,-4.934 -6.44,-2.5 -5.253,-0.067 -2.37,1.052 0,0" id="path48" style="fill:#f4900c;fill-opacity:1;fill-rule:nonzero;stroke:none"/></g><g transform="translate(11.4863,19.4219)" id="g50"><path d="m 0,0 c 2.368,-1.052 4.043,-2.408 2.855,-4.84 -1.187,-2.433 -4.071,-3.553 -6.439,-2.501 -2.37,1.051 -2.857,4.84 -3.57,6.944 C -7.991,2.065 -2.86,1.268 0,0" id="path52" style="fill:#ffcc4d;fill-opacity:1;fill-rule:nonzero;stroke:none"/></g><g transform="translate(25.9297,29.9883)" id="g54"><path d="M 0,0 C 1.143,-2.447 0.082,-5.359 -2.365,-6.5 -4.812,-7.64 -6.246,-5.893 -7.388,-3.444 -8.53,-0.996 -8.948,1.227 -6.5,2.368 -4.053,3.509 -1.143,2.45 0,0" id="path56" style="fill:#f4900c;fill-opacity:1;fill-rule:nonzero;stroke:none"/></g><g transform="translate(24.4531,29.2998)" id="g58"><path d="m 0,0 c 1.141,-2.449 1.559,-4.671 -0.889,-5.812 -2.446,-1.14 -5.359,-0.081 -6.5,2.368 C -8.53,-0.996 -6.5,2.368 -5.713,4.534 -4.789,7.073 -1.38,2.956 0,0" id="path60" style="fill:#ffcc4d;fill-opacity:1;fill-rule:nonzero;stroke:none"/></g></g></g></g></svg>
