<svg xmlns="http://www.w3.org/2000/svg" viewBox="0 0 47.5 47.5" enable-background="new 0 0 47.5 47.5"><defs><clipPath id="a"><path d="M0 38h38V0H0v38z"/></clipPath></defs><g><g><g clip-path="url(#a)" transform="matrix(1.25 0 0 -1.25 0 47.5)"><g><path fill="#e75a70" d="M34.88 21.24c0 4.84-3.92 8.76-8.76 8.76-2.94 0-5.53-1.45-7.12-3.67-1.6 2.22-4.18 3.67-7.12 3.67-4.84 0-8.77-3.92-8.77-8.76 0-.7.1-1.35.25-2C4.57 11.7 12.97 3.72 19 1.53c6.02 2.2 14.43 10.16 15.65 17.72.15.65.23 1.3.23 2"/></g><g><path fill="#fdcb58" d="M2.5 25.96c-.15 0-.3.03-.45.1-.5.25-.7.85-.44 1.35 1.02 2.04 3.8 5.2 7.3 5.6.54.05 1.03-.34 1.1-.9.06-.54-.34-1.03-.9-1.1-2.67-.3-4.92-2.9-5.7-4.5-.18-.34-.53-.54-.9-.54"/></g><g><path fill="#fdcb58" d="M2.04 31.38c-.2 0-.4.05-.56.17-.46.3-.58.93-.27 1.4.95 1.37 2.9 2.9 4.7 3 .55.05 1.02-.38 1.06-.93.03-.55-.4-1.03-.94-1.06-.96-.06-2.4-1.04-3.15-2.15-.2-.27-.5-.43-.83-.43"/></g><g><path fill="#fdcb58" d="M35.8 25.96c-.37 0-.73.2-.9.55-.8 1.6-3.04 4.2-5.72 4.5-.55.07-.94.56-.88 1.1.06.56.55.96 1.1.9 3.5-.4 6.27-3.56 7.3-5.6.23-.5.03-1.1-.46-1.34-.15-.07-.3-.1-.45-.1"/></g><g><path fill="#fdcb58" d="M36.25 31.38c-.32 0-.64.15-.83.43-.75 1.12-2.2 2.1-3.15 2.16-.55.04-.97.5-.94 1.06.04.55.52.98 1.07.94 1.78-.12 3.74-1.64 4.68-3.02.3-.46.2-1.08-.27-1.4-.16-.1-.36-.16-.55-.16"/></g></g></g></g></svg>