<svg xmlns="http://www.w3.org/2000/svg" viewBox="0 0 47.5 47.5" enable-background="new 0 0 47.5 47.5"><defs><clipPath id="a"><path d="M0 38h38V0H0v38z"/></clipPath></defs><g><g><g clip-path="url(#a)" transform="matrix(1.25 0 0 -1.25 0 47.5)"><g><path fill="#4289c1" d="M19.4 18.18c0-.25-.13-.48-.33-.68l-14-14c-.4-.4-1.02-.4-1.4 0-.4.4-.4 1.03 0 1.42l14 14c.38.4 1.02.37 1.4-.02.2-.2.32-.46.32-.72"/></g><g><path fill="#e75a70" d="M33.88 22.9c0 4.83-3.92 8.75-8.76 8.75-2.94 0-5.53-1.45-7.12-3.67-1.6 2.22-4.18 3.67-7.12 3.67-4.84 0-8.77-3.92-8.77-8.76 0-.7.1-1.36.25-2C3.57 13.33 11.97 5.36 18 3.17c6.02 2.2 14.43 10.16 15.65 17.73.15.64.23 1.3.23 2"/></g><g><path fill="#5dadec" d="M30.62 35.7c.3-.4.6-1.25.6-1.93 0-1.96-.72-4.65-2.4-6.33l-3.86-2.96c-.28-.27-.8-.35-1.15-.2-.35.14-.8-.74-.8-.35V29c0 1.86 3.7 6.28 3.7 6.28.83.78 1.67 1.2 2.43 1.2.62 0 1.14-.28 1.5-.77"/></g><g><path fill="#5dadec" d="M36.63 29.15c0-.78-.42-1.84-1.2-2.7 0 0-4.5-4.45-6.42-4.45h-5.15c-.4 0 .5.92.36 1.3-.14.35-.05 1.1.23 1.4l3.12 3.26c1.7 1.7 4.62 3.12 6.62 3.12.7 0 1.26-.12 1.68-.43.5-.36.78-.87.78-1.5"/></g><g><path fill="#2a6797" d="M33.4 32.2c0-.27-.13-.5-.33-.7l-15-15c-.4-.4-1.02-.4-1.4 0-.4.4-.4 1.03 0 1.42l15 15c.38.4 1.02.37 1.4-.02.2-.2.32-.46.32-.7"/></g><g><path fill="#2a6797" d="M2.75 1.53c-.26 0-.5.1-.7.3-.25.24-.36.6-.27.95L3.4 9.32c.12.45.53.73 1 .76.46 0 .86-.34.95-.8.04-.14.84-3.63 4.06-4 .48-.06.85-.44.9-.92.02-.48-.3-.92-.75-1.04L3 1.57c-.08-.02-.16-.04-.25-.04"/></g><g><path fill="#da2f47" d="M18.37 12.47c-.48 0-.9.36-.98.86-.5 3.24-2.37 3.6-4.2 3.95l-.4.1c-.54.1-.9.63-.78 1.17.1.54.64.88 1.18.78l.4-.08c1.9-.37 5.08-1 5.76-5.63.08-.55-.3-1.06-.84-1.14-.05 0-.1 0-.15 0"/></g></g></g></g></svg>