<?xml version="1.0" encoding="UTF-8" standalone="no"?><svg xmlns:svg="http://www.w3.org/2000/svg" xmlns="http://www.w3.org/2000/svg" version="1.1" viewBox="0 0 47.5 47.5" style="enable-background:new 0 0 47.5 47.5;" id="svg2" xml:space="preserve"><defs id="defs6"><clipPath id="clipPath18"><path d="M 1,1 37,1 37,37 1,37 1,1 z" id="path20"/></clipPath><clipPath id="clipPath48"><path d="M 0,38 38,38 38,0 0,0 0,38 z" id="path50"/></clipPath><clipPath id="clipPath64"><path d="M 1,1 37,1 37,37 1,37 1,1 z" id="path66"/></clipPath><clipPath id="clipPath94"><path d="M 0,38 38,38 38,0 0,0 0,38 z" id="path96"/></clipPath><clipPath id="clipPath110"><path d="M 0,38 38,38 38,0 0,0 0,38 z" id="path112"/></clipPath></defs><g transform="matrix(1.25,0,0,-1.25,0,47.5)" id="g12"><g id="g14"><g clip-path="url(#clipPath18)" id="g16"><g transform="translate(4,37)" id="g22"><path d="M 0,0 C -1.721,0 -3.343,-0.406 -4.793,-1.111 -5.186,-1.042 -5.588,-1 -6,-1 c -3.866,0 -7,-3.134 -7,-7 l 0,-12 0.018,0 c 0.183,-6.467 5.471,-11.656 11.982,-11.656 6.511,0 11.799,5.189 11.982,11.656 l 0.018,0 0,9 C 11,-4.925 6.075,0 0,0" id="path24" style="fill:#642116;fill-opacity:1;fill-rule:nonzero;stroke:none"/></g><g transform="translate(12,10)" id="g26"><path d="m 0,0 -1,0 -16,0 -1,0 c -2.209,0 -4,-1.791 -4,-4 l 0,-5 5,0 16,0 5,0 0,5 C 4,-1.791 2.209,0 0,0" id="path28" style="fill:#9268ca;fill-opacity:1;fill-rule:nonzero;stroke:none"/></g><path d="m 12,1 -1,0 0,4 1,0 0,-4 z" id="path30" style="fill:#7450a8;fill-opacity:1;fill-rule:nonzero;stroke:none"/><g transform="translate(5.9995,9.0049)" id="g32"><path d="m 0,0 0,4.995 -6,0 0,-5 0,0 c 0,-1.657 1.344,-3 3,-3 1.658,0 3,1.343 3,3 0,0.002 0,0.003 0,0.005" id="path34" style="fill:#d79e84;fill-opacity:1;fill-rule:nonzero;stroke:none"/></g><g transform="translate(-1,32)" id="g36"><path d="m 0,0 -5,0 0,-12 c 0,-4.971 4.029,-9 9,-9 4.971,0 9,4.029 9,9 l 0,5.019 C 1.89,-6.605 0,0 0,0" id="path38" style="fill:#d79e84;fill-opacity:1;fill-rule:nonzero;stroke:none"/></g><g transform="translate(7,15)" id="g40"><path d="m 0,0 -4,0 -4,0 c 0,0 1,-2 4,-2 3,0 4,2 4,2" id="path42" style="fill:#bb1a34;fill-opacity:1;fill-rule:nonzero;stroke:none"/></g></g></g><g id="g44"><g clip-path="url(#clipPath48)" id="g46"><g transform="translate(7,21)" id="g52"><path d="m 0,0 c -0.552,0 -1,0.448 -1,1 l 0,1 C -1,2.552 -0.552,3 0,3 0.552,3 1,2.552 1,2 L 1,1 C 1,0.448 0.552,0 0,0" id="path54" style="fill:#292f33;fill-opacity:1;fill-rule:nonzero;stroke:none"/></g><g transform="translate(4,17.5)" id="g56"><path d="M 0,0 -2,0 C -2.276,0 -2.5,0.224 -2.5,0.5 -2.5,0.776 -2.276,1 -2,1 L 0,1 C 0.276,1 0.5,0.776 0.5,0.5 0.5,0.224 0.276,0 0,0" id="path58" style="fill:#bf6952;fill-opacity:1;fill-rule:nonzero;stroke:none"/></g></g></g><g id="g60"><g clip-path="url(#clipPath64)" id="g62"><g transform="translate(45,26)" id="g68"><path d="m 0,0 c 0,-6.075 -4.925,-11 -11,-11 -6.075,0 -11,4.925 -11,11 0,6.075 4.925,11 11,11 C -4.925,11 0,6.075 0,0" id="path70" style="fill:#292f33;fill-opacity:1;fill-rule:nonzero;stroke:none"/></g><g transform="translate(38,10)" id="g72"><path d="M 0,0 0,5 -6,5 -6,0 -8,0 -8,-8 2,-8 2,0 0,0 z" id="path74" style="fill:#d79e84;fill-opacity:1;fill-rule:nonzero;stroke:none"/></g><g transform="translate(43,32)" id="g76"><path d="m 0,0 0,-7 c -8.453,0 -11.94,3.471 -13.266,5.524 -0.42,-1.803 -1.437,-4.699 -3.734,-5.368 L -17,-12 c 0,-4.971 4.029,-9 9,-9 4.971,0 9,4.029 9,9 L 1,0 0,0 z" id="path78" style="fill:#d79e84;fill-opacity:1;fill-rule:nonzero;stroke:none"/></g><g transform="translate(26,10)" id="g80"><path d="M 0,0 6,0 9,-5 12,0.094 18,0 c 2.209,0 4,-1.791 4,-4 l 0,-5 -5,0 -16,0 -5,0 0,5 c 0,2.209 1.791,4 4,4" id="path82" style="fill:#4289c1;fill-opacity:1;fill-rule:nonzero;stroke:none"/></g><path d="m 26,1 1,0 0,4 -1,0 0,-4 z" id="path84" style="fill:#2a6797;fill-opacity:1;fill-rule:nonzero;stroke:none"/><g transform="translate(31,15)" id="g86"><path d="M 0,0 4,0 8,0 C 8,0 7,-2 4,-2 1,-2 0,0 0,0" id="path88" style="fill:#bf6952;fill-opacity:1;fill-rule:nonzero;stroke:none"/></g></g></g><g id="g90"><g clip-path="url(#clipPath94)" id="g92"><g transform="translate(31,21)" id="g98"><path d="m 0,0 c -0.553,0 -1,0.448 -1,1 l 0,1 C -1,2.552 -0.553,3 0,3 0.553,3 1,2.552 1,2 L 1,1 C 1,0.448 0.553,0 0,0" id="path100" style="fill:#2a6797;fill-opacity:1;fill-rule:nonzero;stroke:none"/></g><g transform="translate(36,17.5)" id="g102"><path d="M 0,0 -2,0 C -2.276,0 -2.5,0.224 -2.5,0.5 -2.5,0.776 -2.276,1 -2,1 L 0,1 C 0.276,1 0.5,0.776 0.5,0.5 0.5,0.224 0.276,0 0,0" id="path104" style="fill:#bf6952;fill-opacity:1;fill-rule:nonzero;stroke:none"/></g></g></g><g id="g106"><g clip-path="url(#clipPath110)" id="g108"><g transform="translate(27.0771,32.2891)" id="g114"><path d="m 0,0 c 0,2.602 -2.109,4.711 -4.711,4.711 -1.579,0 -2.973,-0.78 -3.828,-1.972 -0.856,1.192 -2.249,1.972 -3.827,1.972 -2.602,0 -4.711,-2.109 -4.711,-4.711 0,-0.369 0.047,-0.727 0.127,-1.07 0.654,-4.065 5.173,-8.353 8.411,-9.53 3.238,1.177 7.758,5.465 8.412,9.529 C -0.047,-0.727 0,-0.369 0,0" id="path116" style="fill:#e75a70;fill-opacity:1;fill-rule:nonzero;stroke:none"/></g></g></g></g></svg>
