<?xml version="1.0" encoding="UTF-8" standalone="no"?>
<!-- Created with Inkscape (http://www.inkscape.org/) -->

<svg
   xmlns:svg="http://www.w3.org/2000/svg"
   xmlns="http://www.w3.org/2000/svg"
   version="1.1"
   width="47.5"
   height="47.5"
   id="svg2"
   xml:space="preserve"><defs
     id="defs6"><clipPath
       id="clipPath18"><path
         d="M 0,38 38,38 38,0 0,0 0,38 z"
         id="path20" /></clipPath></defs><g
     transform="matrix(1.25,0,0,-1.25,0,47.5)"
     id="g12"><g
       id="g14"><g
         clip-path="url(#clipPath18)"
         id="g16"><g
           transform="translate(36.8848,25.1665)"
           id="g22"><path
             d="m 0,0 c 0,5.45 -4.418,9.868 -9.867,9.868 -3.308,0 -6.227,-1.633 -8.018,-4.129 -1.79,2.496 -4.71,4.129 -8.017,4.129 -5.45,0 -9.868,-4.418 -9.868,-9.868 0,-0.772 0.098,-1.52 0.266,-2.241 1.371,-8.512 10.835,-17.494 17.619,-19.96 6.783,2.466 16.249,11.448 17.617,19.96 C -0.098,-1.52 0,-0.772 0,0"
             id="path24"
             style="fill:#e75a70;fill-opacity:1;fill-rule:nonzero;stroke:none" /></g><g
           transform="translate(35.3467,13.1064)"
           id="g26"><path
             d="M 0,0 -3.824,1.416 -5.24,5.24 c -0.145,0.393 -0.52,0.654 -0.938,0.654 -0.418,0 -0.793,-0.261 -0.937,-0.654 L -8.531,1.416 -12.355,0 c -0.393,-0.145 -0.654,-0.52 -0.654,-0.937 0,-0.418 0.261,-0.793 0.654,-0.938 l 3.824,-1.416 1.416,-3.824 c 0.144,-0.393 0.519,-0.654 0.937,-0.654 0.418,0 0.793,0.261 0.938,0.654 L -3.824,-3.291 0,-1.875 c 0.393,0.145 0.653,0.52 0.653,0.938 C 0.653,-0.52 0.393,-0.145 0,0"
             id="path28"
             style="fill:#fdcb58;fill-opacity:1;fill-rule:nonzero;stroke:none" /></g><g
           transform="translate(12.3472,29.1069)"
           id="g30"><path
             d="M 0,0 -2.365,0.875 -3.24,3.24 c -0.146,0.393 -0.52,0.653 -0.938,0.653 -0.419,0 -0.793,-0.26 -0.938,-0.653 L -5.992,0.875 -8.356,0 c -0.393,-0.146 -0.653,-0.52 -0.653,-0.938 0,-0.418 0.26,-0.792 0.653,-0.938 l 2.364,-0.875 0.876,-2.365 c 0.145,-0.393 0.519,-0.653 0.938,-0.653 0.418,0 0.792,0.26 0.938,0.653 L -2.365,-2.751 0,-1.876 c 0.393,0.146 0.653,0.52 0.653,0.938 C 0.653,-0.52 0.393,-0.146 0,0"
             id="path32"
             style="fill:#fdcb58;fill-opacity:1;fill-rule:nonzero;stroke:none" /></g></g></g></g></svg>