<?xml version="1.0" encoding="UTF-8" standalone="no"?><svg xmlns:svg="http://www.w3.org/2000/svg" xmlns="http://www.w3.org/2000/svg" version="1.1" viewBox="0 0 47.5 47.5" style="enable-background:new 0 0 47.5 47.5;" id="svg2" xml:space="preserve"><defs id="defs6"><clipPath id="clipPath18"><path d="M 0,38 38,38 38,0 0,0 0,38 z" id="path20"/></clipPath></defs><g transform="matrix(1.25,0,0,-1.25,0,47.5)" id="g12"><g id="g14"><g clip-path="url(#clipPath18)" id="g16"><g transform="translate(36.9766,20.3281)" id="g22"><path d="m 0,0 c -0.25,-4.574 -8.193,-8.248 -17.977,-8.248 -3.284,0 -6.351,0.422 -9,1.144 l 0,-3.587 c 2.65,-1.024 5.718,-1.62 9,-1.62 9.942,0 18,5.373 18,12 C 0.023,-0.206 0.004,-0.104 0,0" id="path24" style="fill:#f2abba;fill-opacity:1;fill-rule:nonzero;stroke:none"/></g><g transform="translate(28,30.4004)" id="g26"><path d="m 0,0 c -2.646,1.024 -5.717,1.617 -9,1.617 -9.018,0 -16.465,-4.426 -17.774,-10.194 1.309,4.07 8.756,7.194 17.774,7.194 3.283,0 6.354,-0.418 9,-1.141 L 0,0 z" id="path28" style="fill:#f2abba;fill-opacity:1;fill-rule:nonzero;stroke:none"/></g><g transform="translate(25.7695,17.2852)" id="g30"><path d="m 0,0 c 0,3.757 -3.045,6.801 -6.801,6.801 -2.28,0 -4.292,-1.125 -5.526,-2.845 -1.235,1.72 -3.247,2.845 -5.526,2.845 -3.756,0 -6.801,-3.044 -6.801,-6.801 0,-0.531 0.067,-1.049 0.183,-1.545 0.945,-5.867 7.468,-12.059 12.144,-13.758 4.675,1.699 11.2,7.891 12.141,13.756 C -0.067,-1.049 0,-0.531 0,0" id="path32" style="fill:#e75a70;fill-opacity:1;fill-rule:nonzero;stroke:none"/></g><g transform="translate(36.8848,31.3066)" id="g34"><path d="m 0,0 c 0,2.602 -2.109,4.711 -4.711,4.711 -1.579,0 -2.973,-0.78 -3.828,-1.972 -0.856,1.192 -2.249,1.972 -3.827,1.972 -2.602,0 -4.711,-2.109 -4.711,-4.711 0,-0.369 0.047,-0.727 0.127,-1.07 0.654,-4.065 5.173,-8.353 8.411,-9.53 3.238,1.177 7.758,5.465 8.412,9.529 C -0.047,-0.727 0,-0.369 0,0" id="path36" style="fill:#e75a70;fill-opacity:1;fill-rule:nonzero;stroke:none"/></g></g></g></g></svg>
