<?xml version="1.0" encoding="UTF-8" standalone="no"?><svg xmlns:svg="http://www.w3.org/2000/svg" xmlns="http://www.w3.org/2000/svg" version="1.1" viewBox="0 0 47.5 47.5" style="enable-background:new 0 0 47.5 47.5;" id="svg2" xml:space="preserve"><defs id="defs6"><clipPath id="clipPath18"><path d="M 0,38 38,38 38,0 0,0 0,38 z" id="path20"/></clipPath></defs><g transform="matrix(1.25,0,0,-1.25,0,47.5)" id="g12"><g id="g14"><g clip-path="url(#clipPath18)" id="g16"><g transform="translate(21,35)" id="g22"><path d="m 0,0 -1,0 0,1 C -1,1.552 -1.447,2 -2,2 -2.553,2 -3,1.552 -3,1 l 0,-1 -1,0 c -0.553,0 -1,-0.448 -1,-1 0,-0.552 0.447,-1 1,-1 l 1,0 0,-6 c 0,-0.552 0.447,-1 1,-1 0.553,0 1,0.448 1,1 l 0,6 1,0 c 0.553,0 1,0.448 1,1 0,0.552 -0.447,1 -1,1" id="path24" style="fill:#bcbec0;fill-opacity:1;fill-rule:nonzero;stroke:none"/></g><g transform="translate(19,28)" id="g26"><path d="m 0,0 -5.143,-4 0.143,0 0,-9 10,0 0,9 0.143,0 L 0,0 z" id="path28" style="fill:#f4abba;fill-opacity:1;fill-rule:nonzero;stroke:none"/></g><g transform="translate(20.999,22)" id="g30"><path d="m 0,0 c 0,1.104 -0.896,2 -1.999,2 -1.105,0 -2,-0.896 -2,-2 l 0,-0.01 0,-6.99 4,0 0,7 L 0,0 z" id="path32" style="fill:#662113;fill-opacity:1;fill-rule:nonzero;stroke:none"/></g><g transform="translate(18.999,19.0005)" id="g34"><path d="m 0,0 -13.999,-8 0,-1 0,-1 0,-7 c 0,-0.553 0.448,-1 1,-1 l 26,0 c 0.553,0 1,0.447 1,1 l 0,7 0,1 0,1 L 0,0 z" id="path36" style="fill:#f4abba;fill-opacity:1;fill-rule:nonzero;stroke:none"/></g><g transform="translate(32.998,10)" id="g38"><path d="M 0,0 C -0.168,0 -0.339,0.042 -0.495,0.132 L -13.999,7.849 -27.503,0.132 c -0.478,-0.277 -1.09,-0.108 -1.364,0.372 -0.274,0.479 -0.108,1.09 0.372,1.364 l 14,8 c 0.307,0.176 0.684,0.176 0.992,0 l 14,-8 C 0.977,1.594 1.144,0.983 0.869,0.504 0.685,0.181 0.348,0 0,0" id="path40" style="fill:#dd2e44;fill-opacity:1;fill-rule:nonzero;stroke:none"/></g><g transform="translate(23.999,23.0005)" id="g42"><path d="M 0,0 C -0.219,0 -0.439,0.072 -0.624,0.219 L -5,3.719 -9.374,0.219 c -0.432,-0.343 -1.062,-0.275 -1.406,0.156 -0.345,0.432 -0.275,1.061 0.156,1.406 l 4.999,4 c 0.365,0.292 0.884,0.292 1.25,0 l 5.001,-4 C 1.057,1.436 1.127,0.807 0.782,0.375 0.584,0.128 0.294,0 0,0" id="path44" style="fill:#dd2e44;fill-opacity:1;fill-rule:nonzero;stroke:none"/></g><g transform="translate(13.999,6)" id="g46"><path d="m 0,0 c 0,1.104 -0.896,2 -1.999,2 -1.105,0 -2,-0.896 -2,-2 l 0,-0.01 0,-4.99 4,0 0,5 L 0,0 z" id="path48" style="fill:#662113;fill-opacity:1;fill-rule:nonzero;stroke:none"/></g><g transform="translate(20.999,8)" id="g50"><path d="m 0,0 c 0,1.104 -0.896,2 -1.999,2 -1.105,0 -2,-0.896 -2,-2 l 0,-0.01 0,-6.99 4,0 0,7 L 0,0 z" id="path52" style="fill:#662113;fill-opacity:1;fill-rule:nonzero;stroke:none"/></g><g transform="translate(27.999,6)" id="g54"><path d="m 0,0 c 0,1.104 -0.896,2 -1.999,2 -1.105,0 -2,-0.896 -2,-2 l 0,-0.01 0,-4.99 4,0 0,5 L 0,0 z" id="path56" style="fill:#662113;fill-opacity:1;fill-rule:nonzero;stroke:none"/></g><g transform="translate(2,31)" id="g58"><path d="m 0,0 c 0,2.761 3.963,4 5,0 1.121,4 5,2.761 5,0 0,-3 -5,-6 -5,-6 0,0 -5,3 -5,6" id="path60" style="fill:#ea596e;fill-opacity:1;fill-rule:nonzero;stroke:none"/></g><g transform="translate(26,31)" id="g62"><path d="m 0,0 c 0,2.761 3.963,4 5,0 1.121,4 5,2.761 5,0 0,-3 -5,-6 -5,-6 0,0 -5,3 -5,6" id="path64" style="fill:#ea596e;fill-opacity:1;fill-rule:nonzero;stroke:none"/></g></g></g></g></svg>
