<svg xmlns="http://www.w3.org/2000/svg" viewBox="0 0 47.5 47.5" enable-background="new 0 0 47.5 47.5"><defs><clipPath id="a"><path d="M0 38h38V0H0v38z"/></clipPath></defs><g><g><g clip-path="url(#a)" transform="matrix(1.25 0 0 -1.25 0 47.5)"><g><path fill="#bf6952" d="M34.54 13.8c.36 1.58.24 3.27-.46 4.95-.67 1.62-1.84 2.9-3.27 3.77.33 1.2.25 2.48-.3 3.75-.85 1.92-2.67 3.2-4.72 3.56.24.58.32 1.3.03 2.17-1 3-5 1-8 5-2.43-1.46-2.96-3.64-2.87-5.5-2.42-.4-3.8-.92-3.8-.92-1.36-.56-2.32-1.9-2.32-3.45 0-.88.33-1.67.84-2.3l-.7-.27c-2.32-.87-3.97-2.98-3.97-5.44 0-1.05.3-2.03.82-2.88C2.96 14.97 1 12.22 1 9c0-4.42 3.7-8 8.24-8 3.27 0 6.56.7 9.53 1.66C21.02 1.62 24.47 1 29.67 1 33.72 1 37 4.28 37 8.33c0 2.18-.95 4.13-2.46 5.47"/></g><g><path fill="#f5f8fa" d="M18 21.5c0-2.48-1.57-4.5-3.5-4.5S11 19.02 11 21.5s1.57 4.5 3.5 4.5 3.5-2.02 3.5-4.5"/></g><g><path fill="#f5f8fa" d="M28 21.5c0-2.48-1.57-4.5-3.5-4.5S21 19.02 21 21.5s1.57 4.5 3.5 4.5 3.5-2.02 3.5-4.5"/></g><g><path fill="#292f33" d="M17 21.5c0-1.38-.9-2.5-2-2.5s-2 1.12-2 2.5.9 2.5 2 2.5 2-1.12 2-2.5"/></g><g><path fill="#292f33" d="M26 21.5c0-1.38-.9-2.5-2-2.5s-2 1.12-2 2.5.9 2.5 2 2.5 2-1.12 2-2.5"/></g><g><path fill="#292f33" d="M10.45 12.1c-.25.5 0 .9.55.9h18c.55 0 .8-.4.55-.9C29.55 12.1 27 7 20 7c-7 0-9.55 5.1-9.55 5.1"/></g><g><path fill="#f2abba" d="M20 11c-2.77 0-5.16-.92-6.3-2.26C15.2 7.8 17.26 7 20 7s4.8.8 6.3 1.74C25.15 10.08 22.76 11 20 11"/></g></g></g></g></svg>