<?xml version="1.0" encoding="UTF-8" standalone="no"?>
<!-- Created with Inkscape (http://www.inkscape.org/) -->

<svg
   xmlns:svg="http://www.w3.org/2000/svg"
   xmlns="http://www.w3.org/2000/svg"
   version="1.1"
   width="47.5"
   height="47.5"
   id="svg2"
   xml:space="preserve"><defs
     id="defs6"><clipPath
       id="clipPath18"><path
         d="M 0,38 38,38 38,0 0,0 0,38 z"
         id="path20" /></clipPath></defs><g
     transform="matrix(1.25,0,0,-1.25,0,47.5)"
     id="g12"><g
       id="g14"><g
         clip-path="url(#clipPath18)"
         id="g16"><g
           transform="translate(3.6377,13.1787)"
           id="g22"><path
             d="m 0,0 -1.625,3.1 1.55,0.812 c 2.393,1.255 4.982,2.778 5.413,4.982 0.335,1.714 -0.611,3.903 -2.812,6.505 l -1.13,1.336 2.672,2.261 1.131,-1.337 C 8.16,14.157 9.33,11.07 8.773,8.222 7.984,4.186 3.798,1.991 1.55,0.812 L 0,0 z"
             id="path24"
             style="fill:#be1931;fill-opacity:1;fill-rule:nonzero;stroke:none" /></g><g
           transform="translate(21.9297,2.0527)"
           id="g26"><path
             d="M 0,0 -0.812,1.55 C -2.067,3.943 -3.59,6.532 -5.794,6.963 -7.507,7.299 -9.697,6.352 -12.3,4.151 l -1.336,-1.13 -2.26,2.672 1.336,1.13 c 3.502,2.962 6.585,4.134 9.437,3.574 4.037,-0.788 6.231,-4.973 7.41,-7.222 L 3.1,1.625 0,0 z"
             id="path28"
             style="fill:#be1931;fill-opacity:1;fill-rule:nonzero;stroke:none" /></g><g
           transform="translate(30.4609,6.0752)"
           id="g30"><path
             d="m 0,0 -1.13,1.336 c -2.962,3.502 -4.131,6.589 -3.574,9.437 0.788,4.037 4.974,6.231 7.223,7.41 L 4.068,18.995 5.693,15.896 4.144,15.083 C 1.75,13.828 -0.839,12.305 -1.27,10.102 -1.604,8.387 -0.658,6.198 1.542,3.596 L 2.672,2.26 0,0 z"
             id="path32"
             style="fill:#be1931;fill-opacity:1;fill-rule:nonzero;stroke:none" /></g><g
           transform="translate(22.7529,25.6631)"
           id="g34"><path
             d="m 0,0 c -0.471,0 -0.935,0.045 -1.393,0.134 -4.036,0.789 -6.231,4.975 -7.41,7.223 l -0.812,1.55 3.099,1.625 0.813,-1.55 C -4.448,6.589 -2.925,4 -0.722,3.569 0.989,3.235 3.181,4.18 5.784,6.381 L 7.12,7.511 9.38,4.839 8.044,3.708 C 5.105,1.223 2.458,0 0,0"
             id="path36"
             style="fill:#be1931;fill-opacity:1;fill-rule:nonzero;stroke:none" /></g></g></g></g></svg>