<?xml version="1.0" encoding="UTF-8" standalone="no"?><svg xmlns:dc="http://purl.org/dc/elements/1.1/" xmlns:cc="http://creativecommons.org/ns#" xmlns:rdf="http://www.w3.org/1999/02/22-rdf-syntax-ns#" xmlns:svg="http://www.w3.org/2000/svg" xmlns="http://www.w3.org/2000/svg" viewBox="0 0 47.5 47.5" style="enable-background:new 0 0 47.5 47.5;" xml:space="preserve" version="1.1" id="svg2"><metadata id="metadata8"><rdf:RDF><cc:Work rdf:about=""><dc:format>image/svg+xml</dc:format><dc:type rdf:resource="http://purl.org/dc/dcmitype/StillImage"/></cc:Work></rdf:RDF></metadata><defs id="defs6"><clipPath id="clipPath16" clipPathUnits="userSpaceOnUse"><path id="path18" d="M 0,38 38,38 38,0 0,0 0,38 Z"/></clipPath><clipPath id="clipPath40" clipPathUnits="userSpaceOnUse"><path id="path42" d="M 8.237,26.364 2.006,20.132 c -0.626,-0.625 -0.626,-1.639 0,-2.265 l 0,0 6.231,-6.231 c 0.626,-0.625 1.64,-0.625 2.266,0 l 0,0 6.231,6.231 c 0.626,0.626 0.626,1.64 0,2.265 l 0,0 -6.231,6.232 C 10.19,26.677 9.78,26.833 9.37,26.833 l 0,0 c -0.41,0 -0.82,-0.156 -1.133,-0.469"/></clipPath><clipPath id="clipPath52" clipPathUnits="userSpaceOnUse"><path id="path54" d="m 17.867,16.735 -6.231,-6.232 c -0.626,-0.625 -0.626,-1.642 0,-2.265 l 0,0 6.231,-6.232 c 0.625,-0.625 1.641,-0.625 2.266,0 l 0,0 6.232,6.232 c 0.624,0.623 0.624,1.64 0,2.265 l 0,0 -6.232,6.232 C 19.82,17.046 19.41,17.202 19,17.202 l 0,0 c -0.41,0 -0.82,-0.156 -1.133,-0.467"/></clipPath><clipPath id="clipPath64" clipPathUnits="userSpaceOnUse"><path id="path66" d="m 27.497,26.364 -6.232,-6.232 c -0.624,-0.625 -0.624,-1.639 0,-2.265 l 0,0 6.232,-6.231 c 0.625,-0.625 1.641,-0.625 2.266,0 l 0,0 6.231,6.231 c 0.625,0.626 0.625,1.64 0,2.265 l 0,0 -6.231,6.232 c -0.312,0.313 -0.722,0.469 -1.133,0.469 l 0,0 c -0.41,0 -0.82,-0.156 -1.133,-0.469"/></clipPath><clipPath id="clipPath76" clipPathUnits="userSpaceOnUse"><path id="path78" d="m 17.867,35.994 -6.231,-6.231 c -0.626,-0.626 -0.626,-1.64 0,-2.266 l 0,0 6.231,-6.232 c 0.625,-0.625 1.641,-0.625 2.266,0 l 0,0 6.232,6.232 c 0.624,0.626 0.624,1.64 0,2.266 l 0,0 -6.232,6.231 C 19.82,36.307 19.41,36.464 19,36.464 l 0,0 c -0.41,0 -0.82,-0.157 -1.133,-0.47"/></clipPath><clipPath id="clipPath88" clipPathUnits="userSpaceOnUse"><path id="path90" d="M 0,38 38,38 38,0 0,0 0,38 Z"/></clipPath></defs><g transform="matrix(1.25,0,0,-1.25,0,47.5)" id="g10"><g id="g12"><g clip-path="url(#clipPath16)" id="g14"><g transform="translate(17.8672,21.2656)" id="g20"><path id="path22" style="fill:#55acee;fill-opacity:1;fill-rule:nonzero;stroke:none" d="m 0,0 c 0.625,-0.626 1.64,-0.626 2.266,0 l 6.231,6.231 c 0.625,0.626 0.625,1.64 0,2.266 L 2.266,14.729 C 1.64,15.354 0.625,15.354 0,14.729 L -6.231,8.497 c -0.626,-0.626 -0.626,-1.64 0,-2.266 L 0,0 Z"/></g><g transform="translate(35.9941,20.1323)" id="g24"><path id="path26" style="fill:#55acee;fill-opacity:1;fill-rule:nonzero;stroke:none" d="m 0,0 -6.231,6.231 c -0.624,0.626 -1.641,0.626 -2.266,0 L -14.729,0 c -0.625,-0.626 -0.625,-1.639 0,-2.265 l 6.232,-6.232 c 0.625,-0.625 1.642,-0.625 2.266,0 L 0,-2.265 C 0.625,-1.639 0.625,-0.626 0,0"/></g><g transform="translate(20.1328,16.7344)" id="g28"><path id="path30" style="fill:#55acee;fill-opacity:1;fill-rule:nonzero;stroke:none" d="m 0,0 c -0.625,0.624 -1.64,0.624 -2.266,0 l -6.231,-6.231 c -0.626,-0.625 -0.626,-1.642 0,-2.266 l 6.231,-6.232 c 0.626,-0.625 1.641,-0.625 2.266,0 l 6.231,6.232 c 0.625,0.624 0.625,1.641 0,2.266 L 0,0 Z"/></g><g transform="translate(16.7339,20.1323)" id="g32"><path id="path34" style="fill:#55acee;fill-opacity:1;fill-rule:nonzero;stroke:none" d="m 0,0 -6.231,6.231 c -0.626,0.626 -1.64,0.626 -2.266,0 L -14.728,0 c -0.626,-0.626 -0.626,-1.639 0,-2.265 l 6.231,-6.232 c 0.626,-0.625 1.64,-0.625 2.266,0 L 0,-2.265 C 0.626,-1.639 0.626,-0.626 0,0"/></g></g></g><g id="g36"><g clip-path="url(#clipPath40)" id="g38"><g transform="translate(26,19)" id="g44"><path id="path46" style="fill:#3b88c3;fill-opacity:1;fill-rule:nonzero;stroke:none" d="m 0,0 c 0,-3.866 -3.134,-7 -7,-7 -3.866,0 -7,3.134 -7,7 0,3.866 3.134,7 7,7 3.866,0 7,-3.134 7,-7"/></g></g></g><g id="g48"><g clip-path="url(#clipPath52)" id="g50"><g transform="translate(26,19)" id="g56"><path id="path58" style="fill:#3b88c3;fill-opacity:1;fill-rule:nonzero;stroke:none" d="m 0,0 c 0,-3.866 -3.134,-7 -7,-7 -3.866,0 -7,3.134 -7,7 0,3.866 3.134,7 7,7 3.866,0 7,-3.134 7,-7"/></g></g></g><g id="g60"><g clip-path="url(#clipPath64)" id="g62"><g transform="translate(26,19)" id="g68"><path id="path70" style="fill:#3b88c3;fill-opacity:1;fill-rule:nonzero;stroke:none" d="m 0,0 c 0,-3.866 -3.134,-7 -7,-7 -3.866,0 -7,3.134 -7,7 0,3.866 3.134,7 7,7 3.866,0 7,-3.134 7,-7"/></g></g></g><g id="g72"><g clip-path="url(#clipPath76)" id="g74"><g transform="translate(26,19)" id="g80"><path id="path82" style="fill:#3b88c3;fill-opacity:1;fill-rule:nonzero;stroke:none" d="m 0,0 c 0,-3.866 -3.134,-7 -7,-7 -3.866,0 -7,3.134 -7,7 0,3.866 3.134,7 7,7 3.866,0 7,-3.134 7,-7"/></g></g></g><g id="g84"><g clip-path="url(#clipPath88)" id="g86"><g transform="translate(24,19)" id="g92"><path id="path94" style="fill:#bbddf5;fill-opacity:1;fill-rule:nonzero;stroke:none" d="m 0,0 c 0,-2.762 -2.238,-5 -5,-5 -2.761,0 -5,2.238 -5,5 0,2.761 2.239,5 5,5 2.762,0 5,-2.239 5,-5"/></g></g></g></g></svg>
