<?xml version="1.0" encoding="UTF-8" standalone="no"?><svg xmlns:svg="http://www.w3.org/2000/svg" xmlns="http://www.w3.org/2000/svg" version="1.1" viewBox="0 0 47.5 47.5" style="enable-background:new 0 0 47.5 47.5;" id="svg2" xml:space="preserve"><defs id="defs6"><clipPath id="clipPath18"><path d="M 0,38 38,38 38,0 0,0 0,38 z" id="path20"/></clipPath></defs><g transform="matrix(1.25,0,0,-1.25,0,47.5)" id="g12"><g id="g14"><g clip-path="url(#clipPath18)" id="g16"><g transform="translate(19,36)" id="g22"><path d="m 0,0 c -9.941,0 -18,-6.268 -18,-14 0,-4.368 2.574,-8.268 6.604,-10.835 -0.524,-2.309 -1.745,-5.734 -4.604,-9.165 5.758,0.96 9.439,3.761 11.716,6.416 C -2.908,-27.846 -1.479,-28 0,-28 c 9.941,0 18,6.268 18,14 C 18,-6.268 9.941,0 0,0" id="path24" style="fill:#bdddf4;fill-opacity:1;fill-rule:nonzero;stroke:none"/></g><g transform="translate(21,22)" id="g26"><path d="m 0,0 c 0,-1.104 -0.896,-2 -2,-2 -1.104,0 -2,0.896 -2,2 0,1.104 0.896,2 2,2 1.104,0 2,-0.896 2,-2" id="path28" style="fill:#2a6797;fill-opacity:1;fill-rule:nonzero;stroke:none"/></g><g transform="translate(29,22)" id="g30"><path d="m 0,0 c 0,-1.104 -0.896,-2 -2,-2 -1.104,0 -2,0.896 -2,2 0,1.104 0.896,2 2,2 1.104,0 2,-0.896 2,-2" id="path32" style="fill:#2a6797;fill-opacity:1;fill-rule:nonzero;stroke:none"/></g><g transform="translate(13,22)" id="g34"><path d="m 0,0 c 0,-1.104 -0.896,-2 -2,-2 -1.104,0 -2,0.896 -2,2 0,1.104 0.896,2 2,2 1.104,0 2,-0.896 2,-2" id="path36" style="fill:#2a6797;fill-opacity:1;fill-rule:nonzero;stroke:none"/></g></g></g></g></svg>
