<?xml version="1.0" encoding="UTF-8" standalone="no"?>
<!-- Created with Inkscape (http://www.inkscape.org/) -->

<svg
   xmlns:svg="http://www.w3.org/2000/svg"
   xmlns="http://www.w3.org/2000/svg"
   version="1.1"
   width="47.5"
   height="47.5"
   id="svg2"
   xml:space="preserve"><defs
     id="defs6" /><g
     transform="matrix(1.25,0,0,-1.25,0,47.5)"
     id="g12"><g
       transform="translate(23,37)"
       id="g14"><path
         d="m 0,0 -4,-8.028 -5,5.018 0,-7.025 -10,2.007 8,-8.028 -11,-6.02 12,0 -6,-12.042 12,8.028 11,-10.035 -3,14.049 10,0 -8,6.02 8,9.032 L 2,-10.035 0,0 z"
         id="path16"
         style="fill:#bb1a34;fill-opacity:1;fill-rule:nonzero;stroke:none" /></g><g
       transform="translate(23.9141,24.0762)"
       id="g18"><path
         d="m 0,0 1.86,0.467 5.226,1.311 -3.381,-3.816 -1.319,-1.49 1.59,-1.195 2.924,-2.202 -3.656,0 -2.261,0 0.473,-2.219 1.551,-7.259 -5.845,5.332 -1.057,0.964 -1.187,-0.795 -5.24,-3.506 2.405,4.828 1.323,2.655 -2.958,0 -3.799,0 3.76,2.059 2.145,1.172 -1.727,1.735 -3.044,3.053 3.221,-0.646 2.186,-0.439 0,2.238 0,1.991 1.45,-1.455 1.794,-1.8 1.133,2.277 1.273,2.556"
         id="path20"
         style="fill:#fcab40;fill-opacity:1;fill-rule:nonzero;stroke:none" /></g><g
       transform="translate(22.5117,22.6992)"
       id="g22"><path
         d="M 0,0 0.768,0.192 2.925,0.733 1.529,-0.842 0.984,-1.457 1.641,-1.95 l 1.208,-0.909 -1.51,0 -0.934,0 0.196,-0.916 0.64,-2.997 -2.413,2.201 -0.436,0.398 -0.491,-0.328 -2.163,-1.448 0.993,1.993 0.546,1.097 -1.22,0 -1.569,0 1.553,0.849 0.885,0.485 -0.713,0.716 -1.256,1.261 1.328,-0.267 0.903,-0.182 0,0.924 0,0.822 0.599,-0.6 0.74,-0.743 0.468,0.939 0.526,1.055"
         id="path24"
         style="fill:#f5f8fa;fill-opacity:1;fill-rule:nonzero;stroke:none" /></g></g></svg>