<?xml version="1.0" encoding="UTF-8" standalone="no"?><svg xmlns:svg="http://www.w3.org/2000/svg" xmlns="http://www.w3.org/2000/svg" version="1.1" viewBox="0 0 47.5 47.5" style="enable-background:new 0 0 47.5 47.5;" id="svg2" xml:space="preserve"><defs id="defs6"><clipPath id="clipPath22"><path d="M 0,38 38,38 38,0 0,0 0,38 z" id="path24"/></clipPath></defs><g transform="matrix(1.25,0,0,-1.25,0,47.5)" id="g12"><g transform="translate(27.3438,25.186)" id="g14"><path d="M 0,0 -2.156,2.157 3.5,7.814 5.656,5.657 0,0 z" id="path16" style="fill:#ccd6dd;fill-opacity:1;fill-rule:nonzero;stroke:none"/></g><g id="g18"><g clip-path="url(#clipPath22)" id="g20"><g transform="translate(29,15)" id="g26"><path d="m 0,0 c 0,-7.731 -6.269,-14 -14,-14 -7.732,0 -14,6.269 -14,14 0,7.732 6.268,14 14,14 C -6.269,14 0,7.732 0,0" id="path28" style="fill:#292f33;fill-opacity:1;fill-rule:nonzero;stroke:none"/></g><g transform="translate(25.6563,20)" id="g30"><path d="M 0,0 -5.656,5.657 0,11.314 5.656,5.657 0,0 z" id="path32" style="fill:#292f33;fill-opacity:1;fill-rule:nonzero;stroke:none"/></g><g transform="translate(37,33)" id="g34"><path d="m 0,0 c 0,-2.209 -1.791,-4 -4,-4 -2.209,0 -4,1.791 -4,4 0,2.209 1.791,4 4,4 2.209,0 4,-1.791 4,-4" id="path36" style="fill:#f18f26;fill-opacity:1;fill-rule:nonzero;stroke:none"/></g><g transform="translate(35,33)" id="g38"><path d="m 0,0 c 0,-1.104 -0.896,-2 -2,-2 -1.104,0 -2,0.896 -2,2 0,1.104 0.896,2 2,2 1.104,0 2,-0.896 2,-2" id="path40" style="fill:#fdcb58;fill-opacity:1;fill-rule:nonzero;stroke:none"/></g></g></g></g></svg>
