<svg xmlns="http://www.w3.org/2000/svg" viewBox="0 0 47.5 47.5" enable-background="new 0 0 47.5 47.5"><defs><clipPath id="a"><path d="M0 38h38V0H0v38z"/></clipPath></defs><g><g><g clip-path="url(#a)" transform="matrix(1.25 0 0 -1.25 0 47.5)"><g><path fill="#be1931" d="M3.64 13.18L2 16.28l1.56.8c2.4 1.27 4.98 2.8 5.42 5 .33 1.7-.62 3.9-2.82 6.5L5.03 29.9l2.68 2.27 1.14-1.33c2.96-3.5 4.13-6.6 3.57-9.44-.78-4.04-4.96-6.23-7.2-7.4l-1.56-.82z"/></g><g><path fill="#be1931" d="M21.93 2.05l-.8 1.55c-1.27 2.4-2.8 4.98-5 5.42-1.7.33-3.9-.62-6.5-2.82L8.3 5.07 6.02 7.75l1.34 1.13c3.5 2.96 6.58 4.13 9.44 3.57 4.04-.8 6.24-4.97 7.42-7.22l.8-1.55-3.1-1.63z"/></g><g><path fill="#be1931" d="M30.46 6.08L29.33 7.4c-2.96 3.5-4.13 6.6-3.57 9.45.78 4.04 4.97 6.23 7.22 7.4l1.55.82 1.62-3.1-1.55-.8c-2.4-1.27-4.98-2.8-5.4-5-.34-1.7.6-3.9 2.8-6.5l1.13-1.33-2.67-2.26z"/></g><g><path fill="#be1931" d="M22.75 25.66c-.47 0-.93.05-1.4.14-4.03.8-6.22 4.97-7.4 7.22l-.8 1.55 3.1 1.63.8-1.55c1.25-2.4 2.78-5 4.98-5.42 1.7-.33 3.9.6 6.5 2.8l1.34 1.14 2.26-2.67-1.33-1.13c-2.94-2.48-5.6-3.7-8.05-3.7"/></g></g></g></g></svg>