<svg xmlns="http://www.w3.org/2000/svg" viewBox="0 0 47.5 47.5" enable-background="new 0 0 47.5 47.5"><defs><clipPath id="a"><path d="M0 38h38V0H0v38z"/></clipPath></defs><g><g><g clip-path="url(#a)" transform="matrix(1.25 0 0 -1.25 0 47.5)"><g><path fill="#bdddf4" d="M37 22c0 4.16-3.17 7.57-7.22 7.96C28.88 34 25.3 37 21 37c-4.97 0-9-3.56-9-8.53 0-1.16.25-2.9 1.12-3.8-3.26-.17-8.03-.27-12.12.3 0 .02 4.82-3.8 15.36-3.97-.15-.3-.26-1.43-.3-1.8-.26 0-.6 0-1.06 0-8 0-14 .8-14 .8s3-3.23 15.4-4.1C16 15.76 16 14 16 14c-8 0-15 1-15 1 3.36-2.8 6.72-4.03 9.03-4.57 0-.15-.03-.28-.03-.43 0-3.3 2.7-5 6-5 .5 0 .96.06 1.4.17C19 2.67 21.8 1 25 1c4.97 0 9 4.03 9 9 0 1.8-.53 3.45-1.43 4.85C35.2 16.15 37 18.87 37 22"/></g></g></g></g></svg>