<svg xmlns="http://www.w3.org/2000/svg" viewBox="0 0 47.5 47.5" enable-background="new 0 0 47.5 47.5"><defs><clipPath id="a"><path d="M0 38h38V0H0v38z"/></clipPath></defs><g><g><path fill="#ccd6dd" d="M34.18 16.02l-2.7-2.7 7.07-7.07 2.7 2.7-7.07 7.07z"/></g><g><g clip-path="url(#a)" transform="matrix(1.25 0 0 -1.25 0 47.5)"><g><path fill="#292f33" d="M29 15c0-7.73-6.27-14-14-14S1 7.27 1 15s6.27 14 14 14 14-6.27 14-14"/></g><g><path fill="#292f33" d="M25.66 20L20 25.66l5.66 5.65 5.65-5.64L25.67 20z"/></g><g><path fill="#f18f26" d="M37 33c0-2.2-1.8-4-4-4s-4 1.8-4 4 1.8 4 4 4 4-1.8 4-4"/></g><g><path fill="#fdcb58" d="M35 33c0-1.1-.9-2-2-2s-2 .9-2 2 .9 2 2 2 2-.9 2-2"/></g></g></g></g></svg>