<svg xmlns="http://www.w3.org/2000/svg" viewBox="0 0 47.5 47.5" enable-background="new 0 0 47.5 47.5"><defs><clipPath id="a"><path d="M0 38h38V0H0v38z"/></clipPath><clipPath id="b"><path d="M8.24 26.36L2 20.13c-.62-.62-.62-1.64 0-2.26l6.24-6.23c.62-.63 1.64-.63 2.26 0l6.23 6.23c.63.62.63 1.64 0 2.26l-6.23 6.23c-.3.32-.72.47-1.13.47-.4 0-.82-.15-1.13-.47"/></clipPath><clipPath id="c"><path d="M17.87 16.73l-6.23-6.23c-.63-.62-.63-1.64 0-2.26L17.87 2c.62-.62 1.64-.62 2.26 0l6.24 6.24c.62.62.62 1.64 0 2.26l-6.24 6.24c-.3.3-.72.46-1.13.46-.4 0-.82-.15-1.13-.46"/></clipPath><clipPath id="d"><path d="M27.5 26.36l-6.24-6.23c-.62-.62-.62-1.64 0-2.26l6.24-6.23c.62-.63 1.64-.63 2.26 0L36 17.87c.62.62.62 1.64 0 2.26l-6.24 6.23c-.3.32-.72.47-1.13.47-.4 0-.82-.15-1.13-.47"/></clipPath><clipPath id="e"><path d="M17.87 36l-6.23-6.24c-.63-.62-.63-1.64 0-2.26l6.23-6.24c.62-.62 1.64-.62 2.26 0l6.24 6.24c.62.62.62 1.64 0 2.26L20.13 36c-.3.3-.72.46-1.13.46-.4 0-.82-.15-1.13-.47"/></clipPath><clipPath id="f"><path d="M0 38h38V0H0v38z"/></clipPath></defs><g><g><g clip-path="url(#a)" transform="matrix(1.25 0 0 -1.25 0 47.5)"><g><path fill="#55acee" d="M17.87 21.27c.62-.63 1.64-.63 2.26 0l6.23 6.23c.63.62.63 1.64 0 2.26L20.13 36c-.62.62-1.64.62-2.26 0l-6.23-6.24c-.63-.62-.63-1.64 0-2.26l6.23-6.23z"/></g><g><path fill="#55acee" d="M36 20.13l-6.24 6.23c-.62.63-1.64.63-2.26 0l-6.23-6.23c-.63-.62-.63-1.64 0-2.26l6.23-6.23c.62-.63 1.64-.63 2.26 0L36 17.87c.62.62.62 1.64 0 2.26"/></g><g><path fill="#55acee" d="M20.13 16.73c-.62.63-1.64.63-2.26 0l-6.23-6.23c-.63-.62-.63-1.64 0-2.26L17.87 2c.62-.62 1.64-.62 2.26 0l6.23 6.24c.63.62.63 1.64 0 2.26l-6.23 6.23z"/></g><g><path fill="#55acee" d="M16.73 20.13l-6.23 6.23c-.62.63-1.64.63-2.26 0L2 20.13c-.62-.62-.62-1.64 0-2.26l6.24-6.23c.62-.63 1.64-.63 2.26 0l6.23 6.23c.63.62.63 1.64 0 2.26"/></g></g></g><g><g clip-path="url(#b)" transform="matrix(1.25 0 0 -1.25 0 47.5)"><g><path fill="#3b88c3" d="M26 19c0-3.87-3.13-7-7-7s-7 3.13-7 7 3.13 7 7 7 7-3.13 7-7"/></g></g></g><g><g clip-path="url(#c)" transform="matrix(1.25 0 0 -1.25 0 47.5)"><g><path fill="#3b88c3" d="M26 19c0-3.87-3.13-7-7-7s-7 3.13-7 7 3.13 7 7 7 7-3.13 7-7"/></g></g></g><g><g clip-path="url(#d)" transform="matrix(1.25 0 0 -1.25 0 47.5)"><g><path fill="#3b88c3" d="M26 19c0-3.87-3.13-7-7-7s-7 3.13-7 7 3.13 7 7 7 7-3.13 7-7"/></g></g></g><g><g clip-path="url(#e)" transform="matrix(1.25 0 0 -1.25 0 47.5)"><g><path fill="#3b88c3" d="M26 19c0-3.87-3.13-7-7-7s-7 3.13-7 7 3.13 7 7 7 7-3.13 7-7"/></g></g></g><g><g clip-path="url(#f)" transform="matrix(1.25 0 0 -1.25 0 47.5)"><g><path fill="#bbddf5" d="M24 19c0-2.76-2.24-5-5-5s-5 2.24-5 5 2.24 5 5 5 5-2.24 5-5"/></g></g></g></g></svg>