<svg xmlns="http://www.w3.org/2000/svg" viewBox="0 0 47.5 47.5" enable-background="new 0 0 47.5 47.5"><defs><clipPath id="a"><path d="M0 38h38V0H0v38z"/></clipPath></defs><g><g><g clip-path="url(#a)" transform="matrix(1.25 0 0 -1.25 0 47.5)"><g><path fill="#5dadec" d="M23.86 36.24L8.88 29.98l12.53-9.74c2.64-2.22 6.4-2.93 9.78-1.5 4.83 2 7.1 7.56 5.07 12.4-2.02 4.84-7.57 7.12-12.4 5.1"/></g><g><path fill="#5dadec" d="M13.9 18.32l-10.85 8.4-1.9-13.25c-.55-2.85.5-5.9 2.95-7.8 3.5-2.7 8.5-2.07 11.22 1.42 2.7 3.5 2.07 8.5-1.43 11.22"/></g><g><path fill="#5dadec" d="M29.23 11.3L21.08 16l-.04-9.23c-.08-2 .9-3.98 2.75-5.04 2.62-1.5 5.97-.6 7.47 2.05 1.5 2.64.6 6-2.04 7.52"/></g></g></g></g></svg>