<svg xmlns="http://www.w3.org/2000/svg" viewBox="0 0 47.5 47.5" enable-background="new 0 0 47.5 47.5"><g><g><path fill="#bb1a34" d="M28.75 1.25l-5 10.04L17.5 5v8.8L5 11.27l10 10.04-13.75 7.52h15L8.75 43.9l15-10.04L37.5 46.4l-3.75-17.55h12.5l-10-7.53 10-11.3-15 3.77-2.5-12.55z"/></g><g><path fill="#fcab40" d="M29.9 17.4l2.32-.58 6.53-1.64-4.23 4.77-1.64 1.87 1.98 1.5 3.66 2.74h-7.4l.6 2.78 1.93 9.07-7.3-6.66-1.33-1.2-1.48 1L17 35.4l3-6.02 1.65-3.32H13.2l4.7-2.57L20.6 22l-2.17-2.17-3.8-3.8 4.02.8 2.73.54v-5.3l1.8 1.83 2.26 2.25 1.4-2.85 1.6-3.2"/></g><g><path fill="#f5f8fa" d="M28.14 19.13l.96-.24 2.7-.7-1.75 1.98-.68.77.82.6 1.5 1.15h-3.05l.24 1.14.8 3.75-3.02-2.76-.55-.5-.6.4-2.72 1.82 1.25-2.5.7-1.36h-3.49l1.94-1.06 1.1-.6-.9-.9-1.56-1.58 1.66.33 1.13.22V16.94l.74.75.93.92.58-1.18.66-1.3"/></g></g></svg>