<svg xmlns="http://www.w3.org/2000/svg" viewBox="0 0 47.5 47.5" enable-background="new 0 0 47.5 47.5"><defs><clipPath id="a"><path d="M0 38h38V0H0v38z"/></clipPath></defs><g><g><g clip-path="url(#a)" transform="matrix(1.25 0 0 -1.25 0 47.5)"><g><path fill="#bdddf4" d="M19 36C9.06 36 1 29.73 1 22c0-4.37 2.57-8.27 6.6-10.84C7.08 8.86 5.86 5.43 3 2c5.76.96 9.44 3.76 11.72 6.42C16.1 8.15 17.52 8 19 8c9.94 0 18 6.27 18 14s-8.06 14-18 14"/></g><g><path fill="#2a6797" d="M21 22c0-1.1-.9-2-2-2s-2 .9-2 2 .9 2 2 2 2-.9 2-2"/></g><g><path fill="#2a6797" d="M29 22c0-1.1-.9-2-2-2s-2 .9-2 2 .9 2 2 2 2-.9 2-2"/></g><g><path fill="#2a6797" d="M13 22c0-1.1-.9-2-2-2s-2 .9-2 2 .9 2 2 2 2-.9 2-2"/></g></g></g></g></svg>