<?xml version="1.0" encoding="UTF-8" standalone="no"?>
<!-- Created with Inkscape (http://www.inkscape.org/) -->

<svg
   xmlns:svg="http://www.w3.org/2000/svg"
   xmlns="http://www.w3.org/2000/svg"
   version="1.1"
   width="47.5"
   height="47.5"
   id="svg2"
   xml:space="preserve"><defs
     id="defs6"><clipPath
       id="clipPath18"><path
         d="M 0,38 38,38 38,0 0,0 0,38 z"
         id="path20" /></clipPath></defs><g
     transform="matrix(1.25,0,0,-1.25,0,47.5)"
     id="g12"><g
       id="g14"><g
         clip-path="url(#clipPath18)"
         id="g16"><g
           transform="translate(3,32)"
           id="g22"><path
             d="m 0,0 c -2,0 -2,-2 -2,-2 l 0,-20 c 0,0 0,-2 2,-2 l 32,0 c 2,0 2,2 2,2 l 0,20 c 0,0 0,2 -2,2 L 0,0 z"
             id="path24"
             style="fill:#cbb8e9;fill-opacity:1;fill-rule:nonzero;stroke:none" /></g><path
           d="m 24,7.937 -10,0 0,24.062 10,0 0,-24.062 z"
           id="path26"
           style="fill:#9aaab4;fill-opacity:1;fill-rule:nonzero;stroke:none" /><g
           transform="translate(9.02,24.9907)"
           id="g28"><path
             d="M 0,0 C 0.439,0 0.755,-0.228 0.755,-0.72 0.755,-1.212 0.439,-1.44 0,-1.44 l -1.915,0 c 0.053,-0.299 0.123,-0.632 0.123,-1.16 0,-0.825 -0.544,-2.089 -1.51,-2.95 l 5.919,0 c 0.44,0 0.756,-0.228 0.756,-0.72 0,-0.492 -0.316,-0.721 -0.756,-0.721 l -7.026,0 c -0.491,0 -0.93,0.123 -0.93,0.739 0,0.753 2.002,1.579 2.002,3.67 0,0.316 -0.018,0.755 -0.123,1.142 l -1.774,0 c -0.439,0 -0.755,0.228 -0.755,0.72 0,0.492 0.316,0.72 0.755,0.72 l 1.352,0 c -0.421,0.755 -0.86,1.581 -0.86,2.511 0,1.845 1.809,3.11 3.793,3.11 2.091,0 4.022,-1.722 4.022,-3.11 C 3.073,2.037 2.775,1.756 2.336,1.756 1.16,1.756 1.774,4.18 -0.931,4.18 -2.073,4.18 -3.197,3.565 -3.197,2.406 -3.197,1.475 -2.67,0.773 -2.266,0 L 0,0 z"
             id="path30"
             style="fill:#67757f;fill-opacity:1;fill-rule:nonzero;stroke:none" /></g></g></g></g></svg>