<svg xmlns="http://www.w3.org/2000/svg" viewBox="0 0 47.5 47.5" enable-background="new 0 0 47.5 47.5"><defs><clipPath id="a"><path d="M0 38h38V0H0v38z"/></clipPath></defs><g><g><g clip-path="url(#a)" transform="matrix(1.25 0 0 -1.25 0 47.5)"><g><path fill="#fdd888" d="M3 32c-2 0-2-2-2-2V10s0-2 2-2h32c2 0 2 2 2 2v20s0 2-2 2H3z"/></g><path fill="#9aaab4" d="M24 7.94H14V32h10V7.94z"/><g><path fill="#67757f" d="M6.74 19.86H4.37c-.4 0-.7.2-.7.57 0 .38.3.57.7.57h1.66l-2.77 4.28c-.17.26-.26.45-.26.7 0 .32.33.57.6.57.3 0 .56-.13.8-.5l3.1-4.65 3.1 4.66c.25.36.53.5.8.5.28 0 .6-.26.6-.6 0-.23-.08-.42-.25-.68L8.98 21h1.66c.4 0 .7-.2.7-.57 0-.38-.3-.57-.7-.57H8.27v-1.23h2.37c.4 0 .7-.2.7-.58 0-.38-.3-.57-.7-.57H8.27v-2.66c0-.5-.3-.82-.76-.82-.44 0-.76.3-.76.82v2.66H4.37c-.4 0-.7.2-.7.57 0 .4.3.58.7.58h2.37v1.23z"/></g></g></g></g></svg>