<svg xmlns="http://www.w3.org/2000/svg" viewBox="0 0 47.5 47.5" enable-background="new 0 0 47.5 47.5"><defs><clipPath id="a"><path d="M0 38h38V0H0v38z"/></clipPath></defs><g><g><g clip-path="url(#a)" transform="matrix(1.25 0 0 -1.25 0 47.5)"><g><path fill="#9a4e1c" d="M13 31c0 1.1.9 2 2 2h8c1.1 0 2-.9 2-2v-2H13v2zm20-2h-6v4c0 2.2-1.8 4-4 4h-8c-2.2 0-4-1.8-4-4v-4H5c-2.2 0-4-1.8-4-4V5c0-2.2 1.8-4 4-4h28c2.2 0 4 1.8 4 4v20c0 2.2-1.8 4-4 4"/></g><g><path fill="#662113" d="M37 17c0-2.2-1.8-4-4-4H5c-2.2 0-4 1.8-4 4v8c0 2.2 1.8 4 4 4h28c2.2 0 4-1.8 4-4v-8z"/></g><g><path fill="#9a4e1c" d="M37 19c0-2.2-1.8-4-4-4H5c-2.2 0-4 1.8-4 4v6c0 2.2 1.8 4 4 4h28c2.2 0 4-1.8 4-4v-6z"/></g><g><path fill="#ccd6dd" d="M23 19c0-1.1-.9-2-2-2h-4c-1.1 0-2 .9-2 2s.9 2 2 2h4c1.1 0 2-.9 2-2"/></g></g></g></g></svg>