<?xml version="1.0" encoding="UTF-8" standalone="no"?>
<!-- Created with Inkscape (http://www.inkscape.org/) -->

<svg
   xmlns:svg="http://www.w3.org/2000/svg"
   xmlns="http://www.w3.org/2000/svg"
   version="1.1"
   width="47.5"
   height="47.5"
   id="svg2"
   xml:space="preserve"><defs
     id="defs6"><clipPath
       id="clipPath18"><path
         d="M 0,38 38,38 38,0 0,0 0,38 z"
         id="path20" /></clipPath></defs><g
     transform="matrix(1.25,0,0,-1.25,0,47.5)"
     id="g12"><g
       id="g14"><g
         clip-path="url(#clipPath18)"
         id="g16"><g
           transform="translate(3,32)"
           id="g22"><path
             d="m 0,0 c -2,0 -2,-2 -2,-2 l 0,-20 c 0,0 0,-2 2,-2 l 32,0 c 2,0 2,2 2,2 l 0,20 c 0,0 0,2 -2,2 L 0,0 z"
             id="path24"
             style="fill:#a7d28b;fill-opacity:1;fill-rule:nonzero;stroke:none" /></g><path
           d="m 24,7.938 -10,0 0,24.063 10,0 0,-24.063 z"
           id="path26"
           style="fill:#9aaab4;fill-opacity:1;fill-rule:nonzero;stroke:none" /><g
           transform="translate(12,17.9688)"
           id="g28"><path
             d="m 0,0 c 0,2.979 -5.493,2.785 -5.493,4.584 0,0.871 0.833,1.296 1.8,1.296 1.624,0 1.914,-1.045 2.65,-1.045 0.521,0 0.772,0.329 0.772,0.696 0,0.856 -1.296,1.502 -2.539,1.726 l 0,0.825 c 0,0.515 -0.417,0.932 -0.932,0.932 -0.515,0 -0.932,-0.417 -0.932,-0.932 l 0,-0.853 c -1.354,-0.31 -2.52,-1.25 -2.52,-2.781 0,-2.862 5.492,-2.746 5.492,-4.758 0,-0.695 -0.754,-1.39 -1.991,-1.39 -1.857,0 -2.476,1.257 -3.23,1.257 -0.368,0 -0.696,-0.309 -0.696,-0.776 0,-0.741 1.24,-1.631 2.947,-1.881 0,-10e-4 -0.002,-0.004 -0.002,-0.004 l 0,-0.933 c 0,-0.514 0.418,-0.932 0.933,-0.932 0.514,0 0.932,0.418 0.932,0.932 l 0,0.933 c 0,0.01 -0.005,0.019 -0.006,0.029 C -1.281,-2.788 0,-1.789 0,0"
             id="path30"
             style="fill:#67757f;fill-opacity:1;fill-rule:nonzero;stroke:none" /></g></g></g></g></svg>