<?xml version="1.0" encoding="UTF-8" standalone="no"?><svg xmlns:svg="http://www.w3.org/2000/svg" xmlns="http://www.w3.org/2000/svg" version="1.1" viewBox="0 0 47.5 47.5" style="enable-background:new 0 0 47.5 47.5;" id="svg2" xml:space="preserve"><defs id="defs6"><clipPath id="clipPath18"><path d="M 0,38 38,38 38,0 0,0 0,38 z" id="path20"/></clipPath></defs><g transform="matrix(1.25,0,0,-1.25,0,47.5)" id="g12"><g id="g14"><g clip-path="url(#clipPath18)" id="g16"><g transform="translate(5,33)" id="g22"><path d="m 0,0 c -2.209,0 -4,-1.791 -4,-4 l 0,-18 c 0,-2.209 1.791,-4 4,-4 l 28,0 c 2.209,0 4,1.791 4,4 l 0,18 c 0,0 0,4 -4,4 L 0,0 z" id="path24" style="fill:#ccd6dd;fill-opacity:1;fill-rule:nonzero;stroke:none"/></g><path d="m 37,21.937 -36,0 0,6.062 36,0 0,-6.062 z" id="path26" style="fill:#67757f;fill-opacity:1;fill-rule:nonzero;stroke:none"/><path d="m 33,12 -28,0 0,8 28,0 0,-8 z" id="path28" style="fill:#f5f8fa;fill-opacity:1;fill-rule:nonzero;stroke:none"/><g transform="translate(6.999,13)" id="g30"><path d="M 0,0 C -0.15,0 -0.303,0.034 -0.446,0.105 -0.94,0.353 -1.141,0.953 -0.894,1.447 -0.8,1.633 1.424,6 5.001,6 5.816,6 6.257,5.644 6.483,5.345 7.069,4.573 6.782,3.55 6.529,2.646 6.481,2.475 6.415,2.239 6.369,2.034 7.185,2.166 8.041,2.668 8.809,3.118 9.651,3.61 10.315,4 11.001,4 c 1.456,0 1.809,-1.204 1.96,-1.719 0.024,-0.084 0.058,-0.196 0.087,-0.277 0.756,0.033 1.614,0.507 2.522,1.008 2.19,1.207 5.189,2.861 9.056,-0.231 C 25.057,2.436 25.127,1.807 24.782,1.375 24.437,0.945 23.81,0.873 23.376,1.219 20.554,3.479 18.692,2.449 16.536,1.261 15.413,0.641 14.252,0 13.001,0 11.545,0 11.192,1.204 11.042,1.719 11.018,1.798 10.988,1.901 10.959,1.98 10.697,1.906 10.197,1.612 9.82,1.392 8.761,0.771 7.444,0 6.001,0 5.26,0 4.852,0.333 4.64,0.612 4.086,1.343 4.349,2.28 4.603,3.187 4.666,3.41 4.757,3.734 4.802,3.979 2.547,3.738 0.912,0.586 0.896,0.553 0.72,0.202 0.367,0 0,0" id="path32" style="fill:#9aaab4;fill-opacity:1;fill-rule:nonzero;stroke:none"/></g></g></g></g></svg>
