<?xml version="1.0" encoding="UTF-8" standalone="no"?><svg xmlns:svg="http://www.w3.org/2000/svg" xmlns="http://www.w3.org/2000/svg" version="1.1" viewBox="0 0 47.5 47.5" style="enable-background:new 0 0 47.5 47.5;" id="svg2" xml:space="preserve"><defs id="defs6"><clipPath id="clipPath18"><path d="M 0,38 38,38 38,0 0,0 0,38 z" id="path20"/></clipPath></defs><g transform="matrix(1.25,0,0,-1.25,0,47.5)" id="g12"><g id="g14"><g clip-path="url(#clipPath18)" id="g16"><g transform="translate(12,10)" id="g22"><path d="m 0,0 c 0,-1.104 -0.896,-2 -2,-2 -1.104,0 -2,0.896 -2,2 l 0,11 c 0,1.104 0.896,2 2,2 1.104,0 2,-0.896 2,-2 L 0,0 z" id="path24" style="fill:#9aaab4;fill-opacity:1;fill-rule:nonzero;stroke:none"/></g><g transform="translate(32,10)" id="g26"><path d="m 0,0 c 0,-1.104 -0.896,-2 -2,-2 -1.104,0 -2,0.896 -2,2 l 0,11 c 0,1.104 0.896,2 2,2 1.104,0 2,-0.896 2,-2 L 0,0 z" id="path28" style="fill:#9aaab4;fill-opacity:1;fill-rule:nonzero;stroke:none"/></g><g transform="translate(30,3)" id="g30"><path d="m 0,0 c 0,-1.104 -0.896,-2 -2,-2 -1.104,0 -2,0.896 -2,2 l 0,6 c 0,1.104 0.896,2 2,2 1.104,0 2,-0.896 2,-2 L 0,0 z" id="path32" style="fill:#67757f;fill-opacity:1;fill-rule:nonzero;stroke:none"/></g><g transform="translate(14,3)" id="g34"><path d="m 0,0 c 0,-1.104 -0.896,-2 -2,-2 -1.104,0 -2,0.896 -2,2 l 0,6 c 0,1.104 0.896,2 2,2 1.104,0 2,-0.896 2,-2 L 0,0 z" id="path36" style="fill:#67757f;fill-opacity:1;fill-rule:nonzero;stroke:none"/></g><g transform="translate(30,19)" id="g38"><path d="m 0,0 c 0,-2.209 -1.791,-4 -4,-4 l -12,0 c -2.209,0 -4,1.791 -4,4 l 0,14 c 0,2.209 1.791,4 4,4 l 12,0 c 2.209,0 4,-1.791 4,-4 L 0,0 z" id="path40" style="fill:#4289c1;fill-opacity:1;fill-rule:nonzero;stroke:none"/></g><path d="m 24,29 -8,0 0,8 8,0 0,-8 z" id="path42" style="fill:#e1e8ed;fill-opacity:1;fill-rule:nonzero;stroke:none"/><g transform="translate(12,22)" id="g44"><path d="m 0,0 c 0,-1.104 -0.896,-2 -2,-2 l -2,0 c -1.104,0 -2,0.896 -2,2 0,1.104 0.896,2 2,2 l 2,0 C -0.896,2 0,1.104 0,0" id="path46" style="fill:#ccd6dd;fill-opacity:1;fill-rule:nonzero;stroke:none"/></g><g transform="translate(34,22)" id="g48"><path d="m 0,0 c 0,-1.104 -0.896,-2 -2,-2 l -2,0 c -1.104,0 -2,0.896 -2,2 0,1.104 0.896,2 2,2 l 2,0 C -0.896,2 0,1.104 0,0" id="path50" style="fill:#ccd6dd;fill-opacity:1;fill-rule:nonzero;stroke:none"/></g><g transform="translate(30,14)" id="g52"><path d="m 0,0 c 0,-1.657 -1.343,-3 -3,-3 l -14,0 c -1.657,0 -3,1.343 -3,3 0,1.657 1.343,3 3,3 L -3,3 C -1.343,3 0,1.657 0,0" id="path54" style="fill:#5dadec;fill-opacity:1;fill-rule:nonzero;stroke:none"/></g><path d="m 30,8 -20,0 0,6 20,0 0,-6 z" id="path56" style="fill:#2a6797;fill-opacity:1;fill-rule:nonzero;stroke:none"/></g></g></g></svg>
