<svg xmlns="http://www.w3.org/2000/svg" viewBox="0 0 47.5 47.5" enable-background="new 0 0 47.5 47.5"><defs><clipPath id="a"><path d="M0 38h38V0H0v38z"/></clipPath></defs><g><g><g clip-path="url(#a)" transform="matrix(1.25 0 0 -1.25 0 47.5)"><g><path fill="#ccd6dd" d="M5 33c-2.2 0-4-1.8-4-4V11c0-2.2 1.8-4 4-4h28c2.2 0 4 1.8 4 4v18s0 4-4 4H5z"/></g><path fill="#67757f" d="M37 21.94H1V28h36v-6.06z"/><path fill="#f5f8fa" d="M33 12H5v8h28v-8z"/><g><path fill="#9aaab4" d="M7 13c-.15 0-.3.03-.45.1-.5.25-.7.85-.44 1.35.1.18 2.32 4.55 5.9 4.55.8 0 1.26-.36 1.48-.66.6-.77.3-1.8.05-2.7-.05-.17-.12-.4-.16-.6.8.13 1.67.63 2.44 1.08.85.5 1.5.88 2.2.88 1.46 0 1.8-1.2 1.96-1.72.02-.08.06-.2.1-.28.74.04 1.6.5 2.5 1 2.2 1.22 5.2 2.87 9.06-.22.44-.34.5-.97.16-1.4-.34-.44-.97-.5-1.4-.16-2.83 2.26-4.7 1.23-6.84.04C22.4 13.64 21.24 13 20 13c-1.46 0-1.8 1.2-1.96 1.72-.02.08-.05.18-.08.26-.26-.07-.76-.37-1.14-.6C15.76 13.8 14.44 13 13 13c-.74 0-1.15.33-1.36.6-.56.74-.3 1.68-.04 2.6.07.2.16.53.2.78-2.25-.24-3.9-3.4-3.9-3.43-.18-.35-.53-.55-.9-.55"/></g></g></g></g></svg>