<?xml version="1.0" encoding="UTF-8" standalone="no"?>
<!-- Created with Inkscape (http://www.inkscape.org/) -->

<svg
   xmlns:svg="http://www.w3.org/2000/svg"
   xmlns="http://www.w3.org/2000/svg"
   version="1.1"
   width="47.5"
   height="47.5"
   id="svg2"
   xml:space="preserve"><defs
     id="defs6"><clipPath
       id="clipPath18"><path
         d="M 0,38 38,38 38,0 0,0 0,38 z"
         id="path20" /></clipPath></defs><g
     transform="matrix(1.25,0,0,-1.25,0,47.5)"
     id="g12"><g
       id="g14"><g
         clip-path="url(#clipPath18)"
         id="g16"><g
           transform="translate(3,32)"
           id="g22"><path
             d="m 0,0 c -2,0 -2,-2 -2,-2 l 0,-20 c 0,0 0,-2 2,-2 l 32,0 c 2,0 2,2 2,2 l 0,20 c 0,0 0,2 -2,2 L 0,0 z"
             id="path24"
             style="fill:#fdd888;fill-opacity:1;fill-rule:nonzero;stroke:none" /></g><path
           d="m 24,7.938 -10,0 0,24.063 10,0 0,-24.063 z"
           id="path26"
           style="fill:#9aaab4;fill-opacity:1;fill-rule:nonzero;stroke:none" /><g
           transform="translate(6.7432,19.8574)"
           id="g28"><path
             d="m 0,0 -2.375,0 c -0.397,0 -0.709,0.189 -0.709,0.57 0,0.383 0.312,0.574 0.709,0.574 l 1.664,0 -2.772,4.28 c -0.173,0.259 -0.26,0.449 -0.26,0.691 0,0.33 0.33,0.573 0.607,0.573 0.278,0 0.554,-0.122 0.797,-0.485 L 0.762,1.541 3.864,6.203 c 0.243,0.363 0.52,0.485 0.798,0.485 0.276,0 0.605,-0.243 0.605,-0.573 0,-0.242 -0.086,-0.432 -0.26,-0.691 l -2.772,-4.28 1.663,0 C 4.297,1.144 4.609,0.953 4.609,0.57 4.609,0.189 4.297,0 3.898,0 l -2.373,0 0,-1.229 2.373,0 c 0.399,0 0.711,-0.193 0.711,-0.574 0,-0.381 -0.312,-0.571 -0.711,-0.571 l -2.373,0 0,-2.668 C 1.525,-5.544 1.213,-5.857 0.762,-5.857 0.312,-5.857 0,-5.544 0,-5.042 l 0,2.668 -2.375,0 c -0.397,0 -0.709,0.19 -0.709,0.571 0,0.381 0.312,0.574 0.709,0.574 L 0,-1.229 0,0 z"
             id="path30"
             style="fill:#67757f;fill-opacity:1;fill-rule:nonzero;stroke:none" /></g></g></g></g></svg>