<?xml version="1.0" encoding="UTF-8" standalone="no"?>
<!-- Created with Inkscape (http://www.inkscape.org/) -->

<svg
   xmlns:svg="http://www.w3.org/2000/svg"
   xmlns="http://www.w3.org/2000/svg"
   version="1.1"
   width="47.5"
   height="47.5"
   id="svg2"
   xml:space="preserve"><defs
     id="defs6"><clipPath
       id="clipPath18"><path
         d="M 0,38 38,38 38,0 0,0 0,38 z"
         id="path20" /></clipPath><clipPath
       id="clipPath34"><path
         d="M 4.777,19 C 4.777,11.146 11.145,4.777 19,4.777 l 0,0 c 7.853,0 14.223,6.369 14.223,14.223 l 0,0 c 0,7.855 -6.37,14.223 -14.223,14.223 l 0,0 C 11.145,33.223 4.777,26.855 4.777,19 m 9.987,0 c 0,2.34 1.896,4.235 4.236,4.235 l 0,0 c 2.338,0 4.236,-1.895 4.236,-4.235 l 0,0 c 0,-2.338 -1.898,-4.236 -4.236,-4.236 l 0,0 c -2.34,0 -4.236,1.898 -4.236,4.236"
         id="path36" /></clipPath><clipPath
       id="clipPath58"><path
         d="M 0,38 38,38 38,0 0,0 0,38 z"
         id="path60" /></clipPath></defs><g
     transform="matrix(1.25,0,0,-1.25,0,47.5)"
     id="g12"><g
       id="g14"><g
         clip-path="url(#clipPath18)"
         id="g16"><g
           transform="translate(37,5)"
           id="g22"><path
             d="m 0,0 c 0,-2.209 -1.791,-4 -4,-4 l -28,0 c -2.209,0 -4,1.791 -4,4 l 0,28 c 0,2.209 1.791,4 4,4 l 28,0 c 2.209,0 4,-1.791 4,-4 L 0,0 z"
             id="path24"
             style="fill:#292f33;fill-opacity:1;fill-rule:nonzero;stroke:none" /></g><g
           transform="translate(19,21.667)"
           id="g26"><path
             d="m 0,0 c -1.473,0 -2.667,-1.194 -2.667,-2.667 0,-1.474 1.194,-2.666 2.667,-2.666 1.474,0 2.666,1.192 2.666,2.666 C 2.666,-1.194 1.474,0 0,0 m 16,-2.667 c 0,-8.836 -7.164,-16 -16,-16 -8.836,0 -16,7.164 -16,16 0,8.836 7.164,16 16,16 8.836,0 16,-7.164 16,-16"
             id="path28"
             style="fill:#ffd983;fill-opacity:1;fill-rule:nonzero;stroke:none" /></g></g></g><g
       id="g30"><g
         clip-path="url(#clipPath34)"
         id="g32"><g
           transform="translate(19,19)"
           id="g38"><path
             d="M 0,0 -16,1.777 -16,16 -1.777,16 0,0 z"
             id="path40"
             style="fill:#ffac33;fill-opacity:1;fill-rule:nonzero;stroke:none" /></g><g
           transform="translate(19,19)"
           id="g42"><path
             d="M 0,0 16,-1.777 16,-16 1.777,-16 0,0 z"
             id="path44"
             style="fill:#ffac33;fill-opacity:1;fill-rule:nonzero;stroke:none" /></g><g
           transform="translate(19.0005,18.9995)"
           id="g46"><path
             d="M 0,0 1.888,-16.888 16,-16 0,0 z"
             id="path48"
             style="fill:#ffe8b6;fill-opacity:1;fill-rule:nonzero;stroke:none" /></g><g
           transform="translate(19.0005,18.9995)"
           id="g50"><path
             d="M 0,0 -16,16 -1.778,16.889 0,0 z"
             id="path52"
             style="fill:#ffe8b6;fill-opacity:1;fill-rule:nonzero;stroke:none" /></g></g></g><g
       id="g54"><g
         clip-path="url(#clipPath58)"
         id="g56"><g
           transform="translate(37,16)"
           id="g62"><path
             d="m 0,0 c 0,-1.104 -0.896,-2 -2,-2 l -11,0 c -1.104,0 -2,0.896 -2,2 l 0,6 c 0,1.104 0.896,2 2,2 L -2,8 C -0.896,8 0,7.104 0,6 L 0,0 z"
             id="path64"
             style="fill:#f5f8fa;fill-opacity:1;fill-rule:nonzero;stroke:none" /></g></g></g></g></svg>