<?xml version="1.0" encoding="UTF-8" standalone="no"?><svg xmlns:svg="http://www.w3.org/2000/svg" xmlns="http://www.w3.org/2000/svg" version="1.1" viewBox="0 0 47.5 47.5" style="enable-background:new 0 0 47.5 47.5;" id="svg2" xml:space="preserve"><defs id="defs6"><clipPath id="clipPath18"><path d="M 0,38 38,38 38,0 0,0 0,38 z" id="path20"/></clipPath></defs><g transform="matrix(1.25,0,0,-1.25,0,47.5)" id="g12"><g id="g14"><g clip-path="url(#clipPath18)" id="g16"><g transform="translate(13,31)" id="g22"><path d="m 0,0 c 0,1.104 0.896,2 2,2 l 8,0 c 1.104,0 2,-0.896 2,-2 l 0,-2 -12,0 0,2 z m 20,-2 -6,0 0,4 c 0,2.209 -1.791,4 -4,4 L 2,6 C -0.209,6 -2,4.209 -2,2 l 0,-4 -6,0 c -2.209,0 -4,-1.791 -4,-4 l 0,-20 c 0,-2.209 1.791,-4 4,-4 l 28,0 c 2.209,0 4,1.791 4,4 l 0,20 c 0,2.209 -1.791,4 -4,4" id="path24" style="fill:#9a4e1c;fill-opacity:1;fill-rule:nonzero;stroke:none"/></g><g transform="translate(37,17)" id="g26"><path d="m 0,0 c 0,-2.209 -1.791,-4 -4,-4 l -28,0 c -2.209,0 -4,1.791 -4,4 l 0,8 c 0,2.209 1.791,4 4,4 l 28,0 c 2.209,0 4,-1.791 4,-4 L 0,0 z" id="path28" style="fill:#662113;fill-opacity:1;fill-rule:nonzero;stroke:none"/></g><g transform="translate(37,19)" id="g30"><path d="m 0,0 c 0,-2.209 -1.791,-4 -4,-4 l -28,0 c -2.209,0 -4,1.791 -4,4 l 0,6 c 0,2.209 1.791,4 4,4 l 28,0 C -1.791,10 0,8.209 0,6 L 0,0 z" id="path32" style="fill:#9a4e1c;fill-opacity:1;fill-rule:nonzero;stroke:none"/></g><g transform="translate(23,19)" id="g34"><path d="m 0,0 c 0,-1.104 -0.896,-2 -2,-2 l -4,0 c -1.104,0 -2,0.896 -2,2 0,1.104 0.896,2 2,2 l 4,0 C -0.896,2 0,1.104 0,0" id="path36" style="fill:#ccd6dd;fill-opacity:1;fill-rule:nonzero;stroke:none"/></g></g></g></g></svg>
