<?xml version="1.0" encoding="UTF-8" standalone="no"?><svg xmlns:dc="http://purl.org/dc/elements/1.1/" xmlns:cc="http://creativecommons.org/ns#" xmlns:rdf="http://www.w3.org/1999/02/22-rdf-syntax-ns#" xmlns:svg="http://www.w3.org/2000/svg" xmlns="http://www.w3.org/2000/svg" viewBox="0 0 47.5 47.5" style="enable-background:new 0 0 47.5 47.5;" xml:space="preserve" version="1.1" id="svg2"><metadata id="metadata8"><rdf:RDF><cc:Work rdf:about=""><dc:format>image/svg+xml</dc:format><dc:type rdf:resource="http://purl.org/dc/dcmitype/StillImage"/></cc:Work></rdf:RDF></metadata><defs id="defs6"><clipPath id="clipPath16" clipPathUnits="userSpaceOnUse"><path id="path18" d="M 0,38 38,38 38,0 0,0 0,38 Z"/></clipPath></defs><g transform="matrix(1.25,0,0,-1.25,0,47.5)" id="g10"><g id="g12"><g clip-path="url(#clipPath16)" id="g14"><g transform="translate(12,10)" id="g20"><path id="path22" style="fill:#9aaab4;fill-opacity:1;fill-rule:nonzero;stroke:none" d="m 0,0 c 0,-1.104 -0.896,-2 -2,-2 -1.104,0 -2,0.896 -2,2 l 0,11 c 0,1.104 0.896,2 2,2 1.104,0 2,-0.896 2,-2 L 0,0 Z"/></g><g transform="translate(32,10)" id="g24"><path id="path26" style="fill:#9aaab4;fill-opacity:1;fill-rule:nonzero;stroke:none" d="m 0,0 c 0,-1.104 -0.896,-2 -2,-2 -1.104,0 -2,0.896 -2,2 l 0,11 c 0,1.104 0.896,2 2,2 1.104,0 2,-0.896 2,-2 L 0,0 Z"/></g><g transform="translate(30,3)" id="g28"><path id="path30" style="fill:#67757f;fill-opacity:1;fill-rule:nonzero;stroke:none" d="m 0,0 c 0,-1.104 -0.896,-2 -2,-2 -1.104,0 -2,0.896 -2,2 l 0,6 c 0,1.104 0.896,2 2,2 1.104,0 2,-0.896 2,-2 L 0,0 Z"/></g><g transform="translate(14,3)" id="g32"><path id="path34" style="fill:#67757f;fill-opacity:1;fill-rule:nonzero;stroke:none" d="m 0,0 c 0,-1.104 -0.896,-2 -2,-2 -1.104,0 -2,0.896 -2,2 l 0,6 c 0,1.104 0.896,2 2,2 1.104,0 2,-0.896 2,-2 L 0,0 Z"/></g><g transform="translate(30,19)" id="g36"><path id="path38" style="fill:#4289c1;fill-opacity:1;fill-rule:nonzero;stroke:none" d="m 0,0 c 0,-2.209 -1.791,-4 -4,-4 l -12,0 c -2.209,0 -4,1.791 -4,4 l 0,14 c 0,2.209 1.791,4 4,4 l 12,0 c 2.209,0 4,-1.791 4,-4 L 0,0 Z"/></g><path id="path40" style="fill:#e1e8ed;fill-opacity:1;fill-rule:nonzero;stroke:none" d="m 24,29 -8,0 0,8 8,0 0,-8 z"/><g transform="translate(12,22)" id="g42"><path id="path44" style="fill:#ccd6dd;fill-opacity:1;fill-rule:nonzero;stroke:none" d="m 0,0 c 0,-1.104 -0.896,-2 -2,-2 l -2,0 c -1.104,0 -2,0.896 -2,2 0,1.104 0.896,2 2,2 l 2,0 C -0.896,2 0,1.104 0,0"/></g><g transform="translate(34,22)" id="g46"><path id="path48" style="fill:#ccd6dd;fill-opacity:1;fill-rule:nonzero;stroke:none" d="m 0,0 c 0,-1.104 -0.896,-2 -2,-2 l -2,0 c -1.104,0 -2,0.896 -2,2 0,1.104 0.896,2 2,2 l 2,0 C -0.896,2 0,1.104 0,0"/></g><g transform="translate(30,14)" id="g50"><path id="path52" style="fill:#5dadec;fill-opacity:1;fill-rule:nonzero;stroke:none" d="m 0,0 c 0,-1.657 -1.343,-3 -3,-3 l -14,0 c -1.657,0 -3,1.343 -3,3 0,1.657 1.343,3 3,3 L -3,3 C -1.343,3 0,1.657 0,0"/></g><path id="path54" style="fill:#2a6797;fill-opacity:1;fill-rule:nonzero;stroke:none" d="m 30,8 -20,0 0,6 20,0 0,-6 z"/></g></g></g></svg>
