<?xml version="1.0" encoding="UTF-8" standalone="no"?><svg xmlns:dc="http://purl.org/dc/elements/1.1/" xmlns:cc="http://creativecommons.org/ns#" xmlns:rdf="http://www.w3.org/1999/02/22-rdf-syntax-ns#" xmlns:svg="http://www.w3.org/2000/svg" xmlns="http://www.w3.org/2000/svg" viewBox="0 0 47.5 47.5" style="enable-background:new 0 0 47.5 47.5;" xml:space="preserve" version="1.1" id="svg2"><metadata id="metadata8"><rdf:RDF><cc:Work rdf:about=""><dc:format>image/svg+xml</dc:format><dc:type rdf:resource="http://purl.org/dc/dcmitype/StillImage"/></cc:Work></rdf:RDF></metadata><defs id="defs6"><clipPath id="clipPath16" clipPathUnits="userSpaceOnUse"><path id="path18" d="M 0,38 38,38 38,0 0,0 0,38 Z"/></clipPath></defs><g transform="matrix(1.25,0,0,-1.25,0,47.5)" id="g10"><g id="g12"><g clip-path="url(#clipPath16)" id="g14"><g transform="translate(37.042,5)" id="g20"><path id="path22" style="fill:#78b159;fill-opacity:1;fill-rule:nonzero;stroke:none" d="m 0,0 c 0,-2.209 -1.791,-4 -4,-4 l -28,0 c -2.209,0 -4,1.791 -4,4 l 0,28 c 0,2.209 1.791,4 4,4 l 28,0 c 2.209,0 4,-1.791 4,-4 L 0,0 Z"/></g><g transform="translate(10.8965,22.125)" id="g24"><path id="path26" style="fill:#f5f8fa;fill-opacity:1;fill-rule:nonzero;stroke:none" d="m 0,0 -4.104,0 c -0.688,0 -1.227,0.327 -1.227,0.985 0,0.661 0.539,0.991 1.227,0.991 l 2.875,0 -4.792,7.399 c -0.297,0.448 -0.449,0.775 -0.449,1.194 0,0.571 0.571,0.991 1.049,0.991 0.481,0 0.958,-0.21 1.378,-0.839 l 5.36,-8.058 5.363,8.058 c 0.419,0.629 0.897,0.839 1.378,0.839 0.477,0 1.046,-0.42 1.046,-0.991 0,-0.419 -0.149,-0.746 -0.449,-1.194 l -4.792,-7.399 2.875,0 c 0.69,0 1.229,-0.33 1.229,-0.991 C 7.967,0.327 7.428,0 6.738,0 l -4.101,0 0,-2.126 4.101,0 c 0.69,0 1.229,-0.332 1.229,-0.99 0,-0.658 -0.539,-0.988 -1.229,-0.988 l -4.101,0 0,-4.611 c 0,-0.868 -0.539,-1.41 -1.32,-1.41 -0.778,0 -1.317,0.542 -1.317,1.41 l 0,4.611 -4.104,0 c -0.688,0 -1.227,0.33 -1.227,0.988 0,0.658 0.539,0.99 1.227,0.99 L 0,-2.126 0,0 Z"/></g><g transform="translate(5.002,3)" id="g28"><path id="path30" style="fill:#f5f8fa;fill-opacity:1;fill-rule:nonzero;stroke:none" d="m 0,0 c -0.68,0 -1.342,0.346 -1.717,0.971 -0.568,0.947 -0.261,2.175 0.686,2.744 l 5,3 c 0.501,0.3 1.109,0.366 1.661,0.182 l 4.678,-1.559 3.129,3.911 c 0.549,0.689 1.483,0.933 2.304,0.608 l 3.03,-1.212 2.33,6.987 c 0.098,0.295 0.263,0.563 0.483,0.782 l 5,5 c 0.781,0.781 2.047,0.781 2.828,0 0.781,-0.781 0.781,-2.047 0,-2.828 L 24.746,13.92 21.896,5.367 C 21.722,4.845 21.339,4.417 20.84,4.186 20.341,3.955 19.768,3.939 19.255,4.143 L 15.633,5.592 12.56,1.751 C 12.036,1.097 11.16,0.839 10.366,1.103 L 5.238,2.812 1.027,0.285 C 0.705,0.092 0.35,0 0,0"/></g></g></g></g></svg>
