<?xml version="1.0" encoding="UTF-8" standalone="no"?><svg xmlns:svg="http://www.w3.org/2000/svg" xmlns="http://www.w3.org/2000/svg" version="1.1" viewBox="0 0 47.5 47.5" style="enable-background:new 0 0 47.5 47.5;" id="svg2" xml:space="preserve"><defs id="defs6"><clipPath id="clipPath18"><path d="M 0,38 38,38 38,0 0,0 0,38 z" id="path20"/></clipPath></defs><g transform="matrix(1.25,0,0,-1.25,0,47.5)" id="g12"><g id="g14"><g clip-path="url(#clipPath18)" id="g16"><g transform="translate(29.8096,13.791)" id="g22"><path d="m 0,0 c 0,7.672 -14.144,7.171 -14.144,11.803 0,2.242 2.145,3.338 4.633,3.338 4.184,0 4.929,-2.689 6.824,-2.689 1.342,0 1.989,0.845 1.989,1.792 0,2.201 -3.337,3.867 -6.537,4.444 l 0,2.124 c 0,1.325 -1.073,2.4 -2.399,2.4 -1.326,0 -2.4,-1.075 -2.4,-2.4 l 0,-2.199 c -3.489,-0.795 -6.49,-3.215 -6.49,-7.159 0,-7.369 14.142,-7.071 14.142,-12.248 0,-1.793 -1.941,-3.586 -5.129,-3.586 -4.781,0 -6.374,3.236 -8.316,3.236 -0.946,0 -1.792,-0.795 -1.792,-1.996 0,-1.906 3.195,-4.2 7.588,-4.84 0,-0.004 -0.003,-0.01 -0.003,-0.015 l 0,-2.398 c 0,-1.326 1.075,-2.401 2.401,-2.401 1.325,0 2.4,1.075 2.4,2.401 l 0,2.398 c 0,0.028 -0.014,0.05 -0.016,0.075 C -3.297,-7.182 0,-4.605 0,0" id="path24" style="fill:#67757f;fill-opacity:1;fill-rule:nonzero;stroke:none"/></g></g></g></g></svg>
