<svg xmlns="http://www.w3.org/2000/svg" viewBox="0 0 47.5 47.5" enable-background="new 0 0 47.5 47.5"><defs><clipPath id="a"><path d="M0 38h38V0H0v38z"/></clipPath></defs><g><g><g clip-path="url(#a)" transform="matrix(1.25 0 0 -1.25 0 47.5)"><g><path fill="#ccd6dd" d="M37 15c0-2.2-1.8-4-4-4H5c-2.2 0-4 1.8-4 4v18c0 2.2 1.8 4 4 4h28c2.2 0 4-1.8 4-4V15z"/></g><path fill="#5dadec" d="M33 15H5v18h28V15z"/><path fill="#ccd6dd" d="M24 5H14v6h10V5z"/><path fill="#9aaab4" d="M24 9H14v2h10V9z"/><g><path fill="#e1e8ed" d="M37 4c0 1.66-1.34 3-3 3H4C2.34 7 1 5.66 1 4s1.34-3 3-3h30c1.66 0 3 1.34 3 3"/></g><path fill="#f5f8fa" d="M6 3H4v2h2V3z"/><path fill="#f5f8fa" d="M10 3H8v2h2V3z"/><path fill="#f5f8fa" d="M14 3h-2v2h2V3z"/><path fill="#f5f8fa" d="M18 3h-2v2h2V3z"/><path fill="#f5f8fa" d="M22 3h-2v2h2V3z"/><path fill="#f5f8fa" d="M26 3h-2v2h2V3z"/><path fill="#f5f8fa" d="M30 3h-2v2h2V3z"/><path fill="#f5f8fa" d="M34 3h-2v2h2V3z"/></g></g></g></svg>