<?xml version="1.0" encoding="UTF-8" standalone="no"?>
<!-- Created with Inkscape (http://www.inkscape.org/) -->

<svg
   xmlns:svg="http://www.w3.org/2000/svg"
   xmlns="http://www.w3.org/2000/svg"
   version="1.1"
   width="47.5"
   height="47.5"
   id="svg2"
   xml:space="preserve"><defs
     id="defs6"><clipPath
       id="clipPath18"><path
         d="M 0,38 38,38 38,0 0,0 0,38 z"
         id="path20" /></clipPath></defs><g
     transform="matrix(1.25,0,0,-1.25,0,47.5)"
     id="g12"><g
       id="g14"><g
         clip-path="url(#clipPath18)"
         id="g16"><g
           transform="translate(5,1)"
           id="g22"><path
             d="m 0,0 c 0,0 -4,0 -4,4 l 0,28 c 0,0 0,4 4,4 l 26,0 c 1,0 2,-1 2,-1 l 3,-3 c 0,0 1,-1 1,-2 L 32,4 C 32,4 32,0 28,0 L 0,0 z"
             id="path24"
             style="fill:#292f33;fill-opacity:1;fill-rule:nonzero;stroke:none" /></g><g
           transform="translate(6,18)"
           id="g26"><path
             d="m 0,0 0,1 c 0,0 0,2 2,2 l 21,0 c 2,0 2,-2 2,-2 L 25,0 0,0 z"
             id="path28"
             style="fill:#55acee;fill-opacity:1;fill-rule:nonzero;stroke:none" /></g><g
           transform="translate(6,4.9785)"
           id="g30"><path
             d="m 0,0 0,13.021 25,0 0,-13 c 0,0 0,-2 -2,-2 l -21,0 C 0,-1.979 0,0 0,0"
             id="path32"
             style="fill:#e1e8ed;fill-opacity:1;fill-rule:nonzero;stroke:none" /></g><path
           d="m 23,24 5,0 0,10 -5,0 0,-10 z M 11,34 c 0,0 0,1 1,1 l 18,0 c 1.048,0 1,-1 1,-1 l 0,-10 c 0,0 0,-1 -1,-1 l -18,0 c 0,0 -1,0 -1,1 l 0,10 z"
           id="path34"
           style="fill:#e1e8ed;fill-opacity:1;fill-rule:nonzero;stroke:none" /></g></g></g></svg>