<?xml version="1.0" encoding="UTF-8" standalone="no"?><svg xmlns:svg="http://www.w3.org/2000/svg" xmlns="http://www.w3.org/2000/svg" version="1.1" viewBox="0 0 47.5 47.5" style="enable-background:new 0 0 47.5 47.5;" id="svg2" xml:space="preserve"><defs id="defs6"><clipPath id="clipPath18"><path d="M 0,38 38,38 38,0 0,0 0,38 z" id="path20"/></clipPath></defs><g transform="matrix(1.25,0,0,-1.25,0,47.5)" id="g12"><g id="g14"><g clip-path="url(#clipPath18)" id="g16"><g transform="translate(37,15)" id="g22"><path d="m 0,0 c 0,-2.209 -1.791,-4 -4,-4 l -28,0 c -2.209,0 -4,1.791 -4,4 l 0,18 c 0,2.209 1.791,4 4,4 l 28,0 c 2.209,0 4,-1.791 4,-4 L 0,0 z" id="path24" style="fill:#ccd6dd;fill-opacity:1;fill-rule:nonzero;stroke:none"/></g><path d="M 33,15 5,15 5,33 33,33 33,15 z" id="path26" style="fill:#5dadec;fill-opacity:1;fill-rule:nonzero;stroke:none"/><path d="m 24,5 -10,0 0,6 10,0 0,-6 z" id="path28" style="fill:#ccd6dd;fill-opacity:1;fill-rule:nonzero;stroke:none"/><path d="m 24,9 -10,0 0,2 10,0 0,-2 z" id="path30" style="fill:#9aaab4;fill-opacity:1;fill-rule:nonzero;stroke:none"/><g transform="translate(37,4)" id="g32"><path d="m 0,0 c 0,1.657 -1.343,3 -3,3 l -30,0 c -1.657,0 -3,-1.343 -3,-3 0,-1.657 1.343,-3 3,-3 l 30,0 c 1.657,0 3,1.343 3,3" id="path34" style="fill:#e1e8ed;fill-opacity:1;fill-rule:nonzero;stroke:none"/></g><path d="M 6,3 4,3 4,5 6,5 6,3 z" id="path36" style="fill:#f5f8fa;fill-opacity:1;fill-rule:nonzero;stroke:none"/><path d="M 10,3 8,3 8,5 10,5 10,3 z" id="path38" style="fill:#f5f8fa;fill-opacity:1;fill-rule:nonzero;stroke:none"/><path d="m 14,3 -2,0 0,2 2,0 0,-2 z" id="path40" style="fill:#f5f8fa;fill-opacity:1;fill-rule:nonzero;stroke:none"/><path d="m 18,3 -2,0 0,2 2,0 0,-2 z" id="path42" style="fill:#f5f8fa;fill-opacity:1;fill-rule:nonzero;stroke:none"/><path d="m 22,3 -2,0 0,2 2,0 0,-2 z" id="path44" style="fill:#f5f8fa;fill-opacity:1;fill-rule:nonzero;stroke:none"/><path d="m 26,3 -2,0 0,2 2,0 0,-2 z" id="path46" style="fill:#f5f8fa;fill-opacity:1;fill-rule:nonzero;stroke:none"/><path d="m 30,3 -2,0 0,2 2,0 0,-2 z" id="path48" style="fill:#f5f8fa;fill-opacity:1;fill-rule:nonzero;stroke:none"/><path d="m 34,3 -2,0 0,2 2,0 0,-2 z" id="path50" style="fill:#f5f8fa;fill-opacity:1;fill-rule:nonzero;stroke:none"/></g></g></g></svg>
