<svg xmlns="http://www.w3.org/2000/svg" viewBox="0 0 47.5 47.5" enable-background="new 0 0 47.5 47.5"><defs><clipPath id="a"><path d="M0 38h38V0H0v38z"/></clipPath></defs><g><g><g clip-path="url(#a)" transform="matrix(1.25 0 0 -1.25 0 47.5)"><g><path fill="#fdd888" d="M32.9 13.06C32.3 19.68 29 23 29 23l-6 8h-8l-6-8s-1.42-1.43-2.57-4.28C4.43 18.06 3 16.22 3 14c0-1.45.63-2.74 1.6-3.66C4.24 9.64 4 8.84 4 8c0-1.96 1.14-3.64 2.78-4.46C8.06 1.62 9.78 1 11 1h16c1.38 0 3.37.78 4.68 3.3C33.6 5 35 6.84 35 9c0 1.68-.83 3.15-2.1 4.06"/></g><g><path fill="#fdd888" d="M19 31c.55 0 1.06.16 1.5.42.44-.26.95-.42 1.5-.42 1.66 0 4 2.34 4 4 0 0 0 2-2 2-.8 0-1-1-2-1s-1 1-3 1-2-1-3-1-1.2 1-2 1c-2 0-2-2-2-2 0-1.66 2.34-4 4-4 .55 0 1.06.16 1.5.42.44-.26.95-.42 1.5-.42"/></g><g><path fill="#bf6952" d="M25 31c0-.55-.45-1-1-1H14c-.55 0-1 .45-1 1s.45 1 1 1h10c.55 0 1-.45 1-1"/></g><g><path fill="#67757f" d="M24.9 12.46c0 4.47-8.58 4.18-8.58 6.88 0 1.3 1.3 1.95 2.8 1.95 2.55 0 3-1.58 4.15-1.58.82 0 1.2.5 1.2 1.05 0 1.28-2.02 2.25-3.96 2.6v1.23c0 .77-.64 1.4-1.44 1.4-.8 0-1.46-.63-1.46-1.4v-1.28c-2.12-.47-3.94-1.88-3.94-4.18 0-4.3 8.58-4.12 8.58-7.14 0-1.05-1.17-2.1-3.1-2.1-2.9 0-3.87 1.9-5.05 1.9-.6 0-1.1-.47-1.1-1.17 0-1.12 1.94-2.45 4.6-2.83V6.4c0-.78.65-1.4 1.46-1.4.8 0 1.45.62 1.45 1.4v1.4s0 .02 0 .04c2.4.43 4.4 1.93 4.4 4.62"/></g></g></g></g></svg>