<?xml version="1.0" encoding="UTF-8" standalone="no"?><svg xmlns:dc="http://purl.org/dc/elements/1.1/" xmlns:cc="http://creativecommons.org/ns#" xmlns:rdf="http://www.w3.org/1999/02/22-rdf-syntax-ns#" xmlns:svg="http://www.w3.org/2000/svg" xmlns="http://www.w3.org/2000/svg" viewBox="0 0 47.5 47.5" style="enable-background:new 0 0 47.5 47.5;" xml:space="preserve" version="1.1" id="svg2"><metadata id="metadata8"><rdf:RDF><cc:Work rdf:about=""><dc:format>image/svg+xml</dc:format><dc:type rdf:resource="http://purl.org/dc/dcmitype/StillImage"/></cc:Work></rdf:RDF></metadata><defs id="defs6"><clipPath id="clipPath16" clipPathUnits="userSpaceOnUse"><path id="path18" d="M 0,38 38,38 38,0 0,0 0,38 Z"/></clipPath><clipPath id="clipPath28" clipPathUnits="userSpaceOnUse"><path id="path30" d="M 3,19 C 3,10.164 10.164,3 19,3 l 0,0 c 8.836,0 16,7.164 16,16 l 0,0 c 0,8.836 -7.164,16 -16,16 l 0,0 C 10.164,35 3,27.836 3,19 m 11.235,0 c 0,2.632 2.133,4.764 4.765,4.764 l 0,0 c 2.631,0 4.765,-2.132 4.765,-4.764 l 0,0 c 0,-2.631 -2.134,-4.766 -4.765,-4.766 l 0,0 c -2.632,0 -4.765,2.135 -4.765,4.766"/></clipPath></defs><g transform="matrix(1.25,0,0,-1.25,0,47.5)" id="g10"><g id="g12"><g clip-path="url(#clipPath16)" id="g14"><g transform="translate(19,22)" id="g20"><path id="path22" style="fill:#8899a6;fill-opacity:1;fill-rule:nonzero;stroke:none" d="m 0,0 c -1.657,0 -3,-1.343 -3,-3 0,-1.657 1.343,-3 3,-3 1.657,0 3,1.343 3,3 0,1.657 -1.343,3 -3,3 m 18,-3 c 0,-9.941 -8.059,-18 -18,-18 -9.941,0 -18,8.059 -18,18 0,9.941 8.059,18 18,18 9.941,0 18,-8.059 18,-18"/></g></g></g><g id="g24"><g clip-path="url(#clipPath28)" id="g26"><g transform="translate(19,19)" id="g32"><path id="path34" style="fill:#ccd6dd;fill-opacity:1;fill-rule:nonzero;stroke:none" d="m 0,0 -18,2 0,16 16,0 2,-18 z"/></g><g transform="translate(19,19)" id="g36"><path id="path38" style="fill:#ccd6dd;fill-opacity:1;fill-rule:nonzero;stroke:none" d="M 0,0 18,-2 18,-18 2,-18 0,0 Z"/></g><g transform="translate(19.0005,18.9995)" id="g40"><path id="path42" style="fill:#f5f8fa;fill-opacity:1;fill-rule:nonzero;stroke:none" d="M 0,0 2.125,-19 18,-18 0,0 Z"/></g><g transform="translate(19.0005,18.9995)" id="g44"><path id="path46" style="fill:#f5f8fa;fill-opacity:1;fill-rule:nonzero;stroke:none" d="M 0,0 -18,18 -2,19 0,0 Z"/></g></g></g></g></svg>
