<svg xmlns="http://www.w3.org/2000/svg" viewBox="0 0 47.5 47.5" enable-background="new 0 0 47.5 47.5"><defs><clipPath id="a"><path d="M0 38h38V0H0v38z"/></clipPath></defs><g><g><g clip-path="url(#a)" transform="matrix(1.25 0 0 -1.25 0 47.5)"><g><path fill="#9aaab4" d="M12 10c0-1.1-.9-2-2-2s-2 .9-2 2v11c0 1.1.9 2 2 2s2-.9 2-2V10z"/></g><g><path fill="#9aaab4" d="M32 10c0-1.1-.9-2-2-2s-2 .9-2 2v11c0 1.1.9 2 2 2s2-.9 2-2V10z"/></g><g><path fill="#67757f" d="M30 3c0-1.1-.9-2-2-2s-2 .9-2 2v6c0 1.1.9 2 2 2s2-.9 2-2V3z"/></g><g><path fill="#67757f" d="M14 3c0-1.1-.9-2-2-2s-2 .9-2 2v6c0 1.1.9 2 2 2s2-.9 2-2V3z"/></g><g><path fill="#4289c1" d="M30 19c0-2.2-1.8-4-4-4H14c-2.2 0-4 1.8-4 4v14c0 2.2 1.8 4 4 4h12c2.2 0 4-1.8 4-4V19z"/></g><path fill="#e1e8ed" d="M24 29h-8v8h8v-8z"/><g><path fill="#ccd6dd" d="M12 22c0-1.1-.9-2-2-2H8c-1.1 0-2 .9-2 2s.9 2 2 2h2c1.1 0 2-.9 2-2"/></g><g><path fill="#ccd6dd" d="M34 22c0-1.1-.9-2-2-2h-2c-1.1 0-2 .9-2 2s.9 2 2 2h2c1.1 0 2-.9 2-2"/></g><g><path fill="#5dadec" d="M30 14c0-1.66-1.34-3-3-3H13c-1.66 0-3 1.34-3 3s1.34 3 3 3h14c1.66 0 3-1.34 3-3"/></g><path fill="#2a6797" d="M30 8H10v6h20V8z"/></g></g></g></svg>