<svg xmlns="http://www.w3.org/2000/svg" viewBox="0 0 47.5 47.5" enable-background="new 0 0 47.5 47.5"><defs><clipPath id="a"><path d="M0 38h38V0H0v38z"/></clipPath></defs><g><g><g clip-path="url(#a)" transform="matrix(1.25 0 0 -1.25 0 47.5)"><g><path fill="#a7d28b" d="M3 32c-2 0-2-2-2-2V10s0-2 2-2h32c2 0 2 2 2 2v20s0 2-2 2H3z"/></g><path fill="#9aaab4" d="M24 7.94H14V32h10V7.94z"/><g><path fill="#67757f" d="M12 17.97c0 2.98-5.5 2.78-5.5 4.58 0 .87.84 1.3 1.8 1.3 1.63 0 1.92-1.05 2.66-1.05.52 0 .77.33.77.7 0 .86-1.3 1.5-2.54 1.73v.82c0 .52-.43.93-.94.93-.52 0-.93-.4-.93-.93v-.85c-1.36-.3-2.52-1.25-2.52-2.78 0-2.87 5.5-2.75 5.5-4.76 0-.7-.76-1.4-2-1.4-1.85 0-2.47 1.27-3.22 1.27-.37 0-.7-.3-.7-.78 0-.74 1.24-1.63 2.95-1.88v-.94c0-.5.4-.93.93-.93.5 0 .93.42.93.93v.93s0 .02 0 .03c1.52.28 2.8 1.28 2.8 3.07"/></g></g></g></g></svg>