<?xml version="1.0" encoding="UTF-8" standalone="no"?><svg xmlns:dc="http://purl.org/dc/elements/1.1/" xmlns:cc="http://creativecommons.org/ns#" xmlns:rdf="http://www.w3.org/1999/02/22-rdf-syntax-ns#" xmlns:svg="http://www.w3.org/2000/svg" xmlns="http://www.w3.org/2000/svg" viewBox="0 0 47.5 47.5" style="enable-background:new 0 0 47.5 47.5;" xml:space="preserve" version="1.1" id="svg2"><metadata id="metadata8"><rdf:RDF><cc:Work rdf:about=""><dc:format>image/svg+xml</dc:format><dc:type rdf:resource="http://purl.org/dc/dcmitype/StillImage"/></cc:Work></rdf:RDF></metadata><defs id="defs6"><clipPath id="clipPath16" clipPathUnits="userSpaceOnUse"><path id="path18" d="M 0,38 38,38 38,0 0,0 0,38 Z"/></clipPath><clipPath id="clipPath32" clipPathUnits="userSpaceOnUse"><path id="path34" d="M 4.777,19 C 4.777,11.146 11.145,4.777 19,4.777 l 0,0 c 7.853,0 14.223,6.369 14.223,14.223 l 0,0 c 0,7.855 -6.37,14.223 -14.223,14.223 l 0,0 C 11.145,33.223 4.777,26.855 4.777,19 m 9.987,0 c 0,2.34 1.896,4.235 4.236,4.235 l 0,0 c 2.338,0 4.236,-1.895 4.236,-4.235 l 0,0 c 0,-2.338 -1.898,-4.236 -4.236,-4.236 l 0,0 c -2.34,0 -4.236,1.898 -4.236,4.236"/></clipPath><clipPath id="clipPath56" clipPathUnits="userSpaceOnUse"><path id="path58" d="M 0,38 38,38 38,0 0,0 0,38 Z"/></clipPath></defs><g transform="matrix(1.25,0,0,-1.25,0,47.5)" id="g10"><g id="g12"><g clip-path="url(#clipPath16)" id="g14"><g transform="translate(37,5)" id="g20"><path id="path22" style="fill:#292f33;fill-opacity:1;fill-rule:nonzero;stroke:none" d="m 0,0 c 0,-2.209 -1.791,-4 -4,-4 l -28,0 c -2.209,0 -4,1.791 -4,4 l 0,28 c 0,2.209 1.791,4 4,4 l 28,0 c 2.209,0 4,-1.791 4,-4 L 0,0 Z"/></g><g transform="translate(19,21.667)" id="g24"><path id="path26" style="fill:#ffd983;fill-opacity:1;fill-rule:nonzero;stroke:none" d="m 0,0 c -1.473,0 -2.667,-1.194 -2.667,-2.667 0,-1.474 1.194,-2.666 2.667,-2.666 1.474,0 2.666,1.192 2.666,2.666 C 2.666,-1.194 1.474,0 0,0 m 16,-2.667 c 0,-8.836 -7.164,-16 -16,-16 -8.836,0 -16,7.164 -16,16 0,8.836 7.164,16 16,16 8.836,0 16,-7.164 16,-16"/></g></g></g><g id="g28"><g clip-path="url(#clipPath32)" id="g30"><g transform="translate(19,19)" id="g36"><path id="path38" style="fill:#ffac33;fill-opacity:1;fill-rule:nonzero;stroke:none" d="M 0,0 -16,1.777 -16,16 -1.777,16 0,0 Z"/></g><g transform="translate(19,19)" id="g40"><path id="path42" style="fill:#ffac33;fill-opacity:1;fill-rule:nonzero;stroke:none" d="M 0,0 16,-1.777 16,-16 1.777,-16 0,0 Z"/></g><g transform="translate(19.0005,18.9995)" id="g44"><path id="path46" style="fill:#ffe8b6;fill-opacity:1;fill-rule:nonzero;stroke:none" d="M 0,0 1.888,-16.888 16,-16 0,0 Z"/></g><g transform="translate(19.0005,18.9995)" id="g48"><path id="path50" style="fill:#ffe8b6;fill-opacity:1;fill-rule:nonzero;stroke:none" d="M 0,0 -16,16 -1.778,16.889 0,0 Z"/></g></g></g><g id="g52"><g clip-path="url(#clipPath56)" id="g54"><g transform="translate(37,16)" id="g60"><path id="path62" style="fill:#f5f8fa;fill-opacity:1;fill-rule:nonzero;stroke:none" d="m 0,0 c 0,-1.104 -0.896,-2 -2,-2 l -11,0 c -1.104,0 -2,0.896 -2,2 l 0,6 c 0,1.104 0.896,2 2,2 L -2,8 C -0.896,8 0,7.104 0,6 L 0,0 Z"/></g></g></g></g></svg>
