<svg xmlns="http://www.w3.org/2000/svg" viewBox="0 0 47.5 47.5" enable-background="new 0 0 47.5 47.5"><defs><clipPath id="a"><path d="M0 38h38V0H0v38z"/></clipPath></defs><g><g><g clip-path="url(#a)" transform="matrix(1.25 0 0 -1.25 0 47.5)"><g><path fill="#78b159" d="M37.04 5c0-2.2-1.8-4-4-4h-28c-2.2 0-4 1.8-4 4v28c0 2.2 1.8 4 4 4h28c2.2 0 4-1.8 4-4V5z"/></g><g><path fill="#f5f8fa" d="M10.9 22.13H6.8c-.7 0-1.23.32-1.23.98 0 .67.53 1 1.22 1h2.87l-4.8 7.4c-.3.45-.44.78-.44 1.2 0 .56.57.98 1.05.98.48 0 .95-.2 1.37-.83l5.36-8.06 5.38 8.05c.42.63.9.84 1.37.84.48-.02 1.05-.44 1.05-1 0-.43-.15-.75-.45-1.2l-4.8-7.4h2.88c.7 0 1.23-.33 1.23-1 0-.65-.54-.97-1.23-.97h-4.1V20h4.1c.7 0 1.23-.33 1.23-1 0-.65-.54-.98-1.23-.98h-4.1v-4.6c0-.88-.54-1.42-1.32-1.42-.76 0-1.3.54-1.3 1.4v4.62H6.8c-.7 0-1.23.33-1.23 1 0 .65.53.98 1.22.98h4.1v2.13z"/></g><g><path fill="#f5f8fa" d="M5 3c-.68 0-1.34.35-1.72.97-.56.95-.26 2.18.7 2.75l5 3c.5.3 1.1.36 1.65.18l4.68-1.56 3.14 3.9c.55.7 1.48.94 2.3.62l3.03-1.2 2.33 6.97c.1.3.27.57.5.78l5 5c.77.8 2.03.8 2.8 0 .8-.77.8-2.03 0-2.8l-4.65-4.68-2.85-8.55c-.18-.52-.56-.95-1.06-1.18-.5-.24-1.07-.26-1.58-.06L20.63 8.6l-3.07-3.85c-.52-.65-1.4-.9-2.2-.65l-5.12 1.7-4.2-2.5C5.7 3.1 5.33 3 5 3"/></g></g></g></g></svg>