<?xml version="1.0" encoding="UTF-8" standalone="no"?><svg xmlns:svg="http://www.w3.org/2000/svg" xmlns="http://www.w3.org/2000/svg" version="1.1" viewBox="0 0 47.5 47.5" style="enable-background:new 0 0 47.5 47.5;" id="svg2" xml:space="preserve"><defs id="defs6"><clipPath id="clipPath18"><path d="M 0,38 38,38 38,0 0,0 0,38 z" id="path20"/></clipPath></defs><g transform="matrix(1.25,0,0,-1.25,0,47.5)" id="g12"><g id="g14"><g clip-path="url(#clipPath18)" id="g16"><g transform="translate(33,24)" id="g22"><path d="m 0,0 -28,0 c -2.209,0 -4,-1.791 -4,-4 l 0,-2 c 0,-2.209 1.791,-4 4,-4 l 0,-9 c 0,-2.209 1.791,-4 4,-4 l 20,0 c 2.209,0 4,1.791 4,4 l 0,9 c 2.209,0 4,1.791 4,4 l 0,2 C 4,-1.791 2.209,0 0,0" id="path24" style="fill:#292f33;fill-opacity:1;fill-rule:nonzero;stroke:none"/></g><g transform="translate(31,22)" id="g26"><path d="m 0,0 c 0,-1.104 -0.896,-2 -2,-2 l -20,0 c -1.104,0 -2,0.896 -2,2 l 0,13 c 0,1.104 0.896,2 2,2 l 20,0 c 1.104,0 2,-0.896 2,-2 L 0,0 z" id="path28" style="fill:#ccd6dd;fill-opacity:1;fill-rule:nonzero;stroke:none"/></g><g transform="translate(19,24)" id="g30"><path d="m 0,0 c 0,-0.552 -0.447,-1 -1,-1 l -8,0 c -0.552,0 -1,0.448 -1,1 l 0,10 c 0,0.552 0.448,1 1,1 l 8,0 c 0.553,0 1,-0.448 1,-1 L 0,0 z" id="path32" style="fill:#55acee;fill-opacity:1;fill-rule:nonzero;stroke:none"/></g><g transform="translate(31,5)" id="g34"><path d="m 0,0 c 0,-1.104 -0.896,-2 -2,-2 l -20,0 c -1.104,0 -2,0.896 -2,2 l 0,11 c 0,1.104 0.896,2 2,2 l 20,0 c 1.104,0 2,-0.896 2,-2 L 0,0 z" id="path36" style="fill:#ccd6dd;fill-opacity:1;fill-rule:nonzero;stroke:none"/></g><g transform="translate(29,33)" id="g38"><path d="m 0,0 c 0,-0.552 -0.447,-1 -1,-1 l -6,0 c -0.553,0 -1,0.448 -1,1 0,0.552 0.447,1 1,1 l 6,0 C -0.447,1 0,0.552 0,0" id="path40" style="fill:#66757f;fill-opacity:1;fill-rule:nonzero;stroke:none"/></g><g transform="translate(29,29)" id="g42"><path d="m 0,0 c 0,-0.552 -0.447,-1 -1,-1 l -6,0 c -0.553,0 -1,0.448 -1,1 0,0.552 0.447,1 1,1 l 6,0 C -0.447,1 0,0.552 0,0" id="path44" style="fill:#66757f;fill-opacity:1;fill-rule:nonzero;stroke:none"/></g><g transform="translate(29,25)" id="g46"><path d="m 0,0 c 0,-0.552 -0.447,-1 -1,-1 l -6,0 c -0.553,0 -1,0.448 -1,1 0,0.552 0.447,1 1,1 l 6,0 C -0.447,1 0,0.552 0,0" id="path48" style="fill:#66757f;fill-opacity:1;fill-rule:nonzero;stroke:none"/></g><g transform="translate(15,17)" id="g50"><path d="m 0,0 c 0,-0.553 -0.448,-1 -1,-1 -0.552,0 -1,0.447 -1,1 l 0,4 c 0,0.553 0.448,1 1,1 0.552,0 1,-0.447 1,-1 L 0,0 z" id="path52" style="fill:#99aab5;fill-opacity:1;fill-rule:nonzero;stroke:none"/></g><g transform="translate(25,17)" id="g54"><path d="m 0,0 c 0,-0.553 -0.447,-1 -1,-1 -0.553,0 -1,0.447 -1,1 l 0,4 c 0,0.553 0.447,1 1,1 0.553,0 1,-0.447 1,-1 L 0,0 z" id="path56" style="fill:#99aab5;fill-opacity:1;fill-rule:nonzero;stroke:none"/></g></g></g></g></svg>
