<svg xmlns="http://www.w3.org/2000/svg" viewBox="0 0 47.5 47.5" enable-background="new 0 0 47.5 47.5"><defs><clipPath id="a"><path d="M0 38h38V0H0v38z"/></clipPath></defs><g><g><g clip-path="url(#a)" transform="matrix(1.25 0 0 -1.25 0 47.5)"><g><path fill="#269" d="M1 8c0-2.2 1.8-4 4-4h24c2.2 0 4 1.8 4 4v17c0 2.2-1.8 4-4 4h-9c-3.56 0-3 5-8.44 5H5c-2.2 0-4-1.8-4-4V8z"/></g><g><path fill="#55acee" d="M31 27h-6.56C19 27 19.56 22 16 22H7c-2.2 0-4-1.8-4-4V8c0-.55-.45-1-1-1s-1 .45-1 1c0-2.2 1.8-4 4-4h26c2.2 0 4 1.8 4 4v15c0 2.2-1.8 4-4 4"/></g></g></g></g></svg>