<svg xmlns="http://www.w3.org/2000/svg" viewBox="0 0 47.5 47.5" enable-background="new 0 0 47.5 47.5"><defs><clipPath id="a"><path d="M0 38h38V0H0v38z"/></clipPath><clipPath id="b"><path d="M3 19c0-8.84 7.16-16 16-16s16 7.16 16 16-7.16 16-16 16S3 27.84 3 19m11.23 0c0 2.63 2.14 4.76 4.77 4.76 2.63 0 4.76-2.13 4.76-4.76s-2.13-4.77-4.76-4.77-4.76 2.14-4.76 4.77"/></clipPath></defs><g><g><g clip-path="url(#a)" transform="matrix(1.25 0 0 -1.25 0 47.5)"><g><path fill="#ffd983" d="M19 22c-1.66 0-3-1.34-3-3s1.34-3 3-3 3 1.34 3 3-1.34 3-3 3m18-3c0-9.94-8.06-18-18-18S1 9.06 1 19s8.06 18 18 18 18-8.06 18-18"/></g></g></g><g><g clip-path="url(#b)" transform="matrix(1.25 0 0 -1.25 0 47.5)"><g><path fill="#ffac33" d="M19 19L1 21v16h16l2-18z"/></g><g><path fill="#ffac33" d="M19 19l18-2V1H21l-2 18z"/></g><g><path fill="#ffe8b6" d="M19 19l2.13-19L37 1 19 19z"/></g><g><path fill="#ffe8b6" d="M19 19L1 37l16 1 2-19z"/></g></g></g></g></svg>