<svg xmlns="http://www.w3.org/2000/svg" viewBox="0 0 47.5 47.5" enable-background="new 0 0 47.5 47.5"><defs><clipPath id="a"><path d="M0 38h38V0H0v38z"/></clipPath></defs><g><g><g clip-path="url(#a)" transform="matrix(1.25 0 0 -1.25 0 47.5)"><g><path fill="#ccd6dd" d="M36 5c0-2.2-1.8-4-4-4H6C3.8 1 2 2.8 2 5v28c0 2.2 1.8 4 4 4h26c2.2 0 4-1.8 4-4V5z"/></g><path fill="#e1e8ed" d="M27 11h5V6h-5v5zm-7 0h5V6h-5v5zm-7 0h5V6h-5v5zm-7 0h5V6H6v5zm5 16H6v5h5v-5zm7 0h-5v5h5v-5zm7 0h-5v5h5v-5zm2 5h5v-5h-5v5zm0-7h5v-5h-5v5zm0-7h5v-5h-5v5zm-7 0h5v-5h-5v5zm-7 0h5v-5h-5v5zm-2-5H6v5h5v-5zm0 7H6v5h5v-5zm9 5h5v-5h-5v5zm-2-5h-5v5h5v-5zm15 14H5c-.55 0-1-.45-1-1V5c0-.55.45-1 1-1h28c.55 0 1 .45 1 1v28c0 .55-.45 1-1 1"/><g><path fill="#5c913b" d="M15 6c0-1.1-.9-2-2-2h-2c-1.1 0-2 .9-2 2v15c0 1.1.9 2 2 2h2c1.1 0 2-.9 2-2V6z"/></g><g><path fill="#9266cc" d="M29 6c0-1.1-.9-2-2-2h-2c-1.1 0-2 .9-2 2v22c0 1.1.9 2 2 2h2c1.1 0 2-.9 2-2V6z"/></g><g><path fill="#dd2e44" d="M22 6c0-1.1-.9-2-2-2h-2c-1.1 0-2 .9-2 2v8c0 1.1.9 2 2 2h2c1.1 0 2-.9 2-2V6z"/></g></g></g></g></svg>