<?xml version="1.0" encoding="UTF-8" standalone="no"?>
<!-- Created with Inkscape (http://www.inkscape.org/) -->

<svg
   xmlns:svg="http://www.w3.org/2000/svg"
   xmlns="http://www.w3.org/2000/svg"
   version="1.1"
   width="47.5"
   height="47.5"
   id="svg2"
   xml:space="preserve"><defs
     id="defs6"><clipPath
       id="clipPath18"><path
         d="M 0,38 38,38 38,0 0,0 0,38 z"
         id="path20" /></clipPath></defs><g
     transform="matrix(1.25,0,0,-1.25,0,47.5)"
     id="g12"><g
       id="g14"><g
         clip-path="url(#clipPath18)"
         id="g16"><g
           transform="translate(36,5)"
           id="g22"><path
             d="m 0,0 c 0,-2.209 -1.791,-4 -4,-4 l -26,0 c -2.209,0 -4,1.791 -4,4 l 0,28 c 0,2.209 1.791,4 4,4 l 26,0 c 2.209,0 4,-1.791 4,-4 L 0,0 z"
             id="path24"
             style="fill:#ccd6dd;fill-opacity:1;fill-rule:nonzero;stroke:none" /></g><path
           d="m 27,11 5,0 0,-5 -5,0 0,5 z m -7,0 5,0 0,-5 -5,0 0,5 z m -7,0 5,0 0,-5 -5,0 0,5 z m -7,0 5,0 0,-5 -5,0 0,5 z m 5,16 -5,0 0,5 5,0 0,-5 z m 7,0 -5,0 0,5 5,0 0,-5 z m 7,0 -5,0 0,5 5,0 0,-5 z m 2,5 5,0 0,-5 -5,0 0,5 z m 0,-7 5,0 0,-5 -5,0 0,5 z m 0,-7 5,0 0,-5 -5,0 0,5 z m -7,0 5,0 0,-5 -5,0 0,5 z m -7,0 5,0 0,-5 -5,0 0,5 z m -2,-5 -5,0 0,5 5,0 0,-5 z m 0,7 -5,0 0,5 5,0 0,-5 z m 9,5 5,0 0,-5 -5,0 0,5 z m -2,-5 -5,0 0,5 5,0 0,-5 z M 33,34 5,34 C 4.447,34 4,33.552 4,33 L 4,5 C 4,4.447 4.447,4 5,4 l 28,0 c 0.553,0 1,0.447 1,1 l 0,28 c 0,0.552 -0.447,1 -1,1"
           id="path26"
           style="fill:#e1e8ed;fill-opacity:1;fill-rule:nonzero;stroke:none" /><g
           transform="translate(15,6)"
           id="g28"><path
             d="m 0,0 c 0,-1.104 -0.896,-2 -2,-2 l -2,0 c -1.104,0 -2,0.896 -2,2 l 0,15 c 0,1.104 0.896,2 2,2 l 2,0 c 1.104,0 2,-0.896 2,-2 L 0,0 z"
             id="path30"
             style="fill:#5c913b;fill-opacity:1;fill-rule:nonzero;stroke:none" /></g><g
           transform="translate(29,6)"
           id="g32"><path
             d="m 0,0 c 0,-1.104 -0.896,-2 -2,-2 l -2,0 c -1.104,0 -2,0.896 -2,2 l 0,22 c 0,1.104 0.896,2 2,2 l 2,0 c 1.104,0 2,-0.896 2,-2 L 0,0 z"
             id="path34"
             style="fill:#9266cc;fill-opacity:1;fill-rule:nonzero;stroke:none" /></g><g
           transform="translate(22,6)"
           id="g36"><path
             d="m 0,0 c 0,-1.104 -0.896,-2 -2,-2 l -2,0 c -1.104,0 -2,0.896 -2,2 l 0,8 c 0,1.104 0.896,2 2,2 l 2,0 C -0.896,10 0,9.104 0,8 L 0,0 z"
             id="path38"
             style="fill:#dd2e44;fill-opacity:1;fill-rule:nonzero;stroke:none" /></g></g></g></g></svg>