<svg xmlns="http://www.w3.org/2000/svg" viewBox="0 0 47.5 47.5" enable-background="new 0 0 47.5 47.5"><defs><clipPath id="a"><path d="M0 38h38V0H0v38z"/></clipPath></defs><g><g><g clip-path="url(#a)" transform="matrix(1.25 0 0 -1.25 0 47.5)"><g><path fill="#e1e8ed" d="M37 5c0-2.2-1.8-4-4-4H5C2.8 1 1 2.8 1 5v23c0 2.2 1.8 4 4 4h28c2.2 0 4-1.8 4-4V5z"/></g><g><path fill="#dd2e44" d="M35 37h-3.28c.18-.3.28-.63.28-1 0-1.1-.9-2-2-2s-2 .9-2 2c0 .37.1.7.28 1H9.72c.18-.3.28-.63.28-1 0-1.1-.9-2-2-2s-2 .9-2 2c0 .37.1.7.28 1H3c-1.1 0-2-.9-2-2V24h36v11c0 1.1-.9 2-2 2"/></g><g><path fill="#66757f" d="M13 18h-1.7c-1.08 0-1.53.73-1.53 1.5 0 .8.56 1.5 1.53 1.5h3.2c1 0 1.53-.7 1.53-1.6V6.53c0-1.13-.56-1.76-1.53-1.76S13 5.4 13 6.53V18z"/></g><g><path fill="#f5f8fa" d="M6.5 28c0-1.68-1.08-2.12-2-2.12-.68 0-1.83.27-1.83 1.14 0 .27.23.6.56.6.4 0 .75-.36 1.2-.36.56 0 .56.52.56.84v4.3c0 .5.3.78.74.78.43 0 .75-.28.75-.78V28z"/></g><g><path fill="#f5f8fa" d="M7.27 32.4c0 .5.32.78.75.78s.75-.28.75-.78v-3.5c0-.9.6-1.64 1.54-1.64.92 0 1.54.77 1.54 1.65v3.5c0 .5.32.78.75.78.42 0 .74-.28.74-.78v-3.57c0-1.68-1.38-2.95-3.03-2.95-1.66 0-3.03 1.25-3.03 2.95v3.57z"/></g><g><path fill="#f5f8fa" d="M14.18 32.4c0 .5.32.78.75.78s.75-.28.75-.78v-5.02h1.78c.5 0 .73-.38.72-.72-.02-.33-.28-.66-.72-.66h-2.5c-.5 0-.78.32-.78.82v5.58z"/></g><g><path fill="#f4abba" d="M33 27c0-.55.45-1 1-1s1 .45 1 1-.45 1-1 1-1-.45-1-1"/></g><g><path fill="#f4abba" d="M33 30c0-.55.45-1 1-1s1 .45 1 1-.45 1-1 1-1-.45-1-1"/></g><g><path fill="#f4abba" d="M30 27c0-.55.45-1 1-1s1 .45 1 1-.45 1-1 1-1-.45-1-1"/></g><g><path fill="#f4abba" d="M30 30c0-.55.45-1 1-1s1 .45 1 1-.45 1-1 1-1-.45-1-1"/></g><g><path fill="#f4abba" d="M27 27c0-.55.45-1 1-1s1 .45 1 1-.45 1-1 1-1-.45-1-1"/></g><g><path fill="#f4abba" d="M27 30c0-.55.45-1 1-1s1 .45 1 1-.45 1-1 1-1-.45-1-1"/></g><g><path fill="#f4abba" d="M24 30c0-.55.45-1 1-1s1 .45 1 1-.45 1-1 1-1-.45-1-1"/></g><g><path fill="#f4abba" d="M24 27c0-.55.45-1 1-1s1 .45 1 1-.45 1-1 1-1-.45-1-1"/></g><g><path fill="#66757f" d="M22.58 15.5c.54.1 1.13.22 1.7.22 2.72 0 4.66-2.16 4.66-4.8 0-3.77-2.08-6.25-5.98-6.25C21.36 4.67 18 5.7 18 7.7c0 .83.7 1.53 1.53 1.53.9 0 2-1.45 3.5-1.45 1.58 0 2.4 1.54 2.4 2.96 0 1.35-.78 2.28-2.17 2.28-1.3 0-1.52-.75-2.67-.75-.9 0-1.34.68-1.34 1.06 0 .3.05.52.07.77l.56 4.76c.24 1.76.67 2.14 1.75 2.14h5.44c1.03 0 1.64-.6 1.64-1.42 0-1.56-1.18-1.58-1.58-1.58h-4.24l-.34-2.5z"/></g></g></g></g></svg>