<?xml version="1.0" encoding="UTF-8" standalone="no"?><svg xmlns:dc="http://purl.org/dc/elements/1.1/" xmlns:cc="http://creativecommons.org/ns#" xmlns:rdf="http://www.w3.org/1999/02/22-rdf-syntax-ns#" xmlns:svg="http://www.w3.org/2000/svg" xmlns="http://www.w3.org/2000/svg" viewBox="0 0 47.5 47.5" style="enable-background:new 0 0 47.5 47.5;" xml:space="preserve" version="1.1" id="svg2"><metadata id="metadata8"><rdf:RDF><cc:Work rdf:about=""><dc:format>image/svg+xml</dc:format><dc:type rdf:resource="http://purl.org/dc/dcmitype/StillImage"/></cc:Work></rdf:RDF></metadata><defs id="defs6"><clipPath id="clipPath16" clipPathUnits="userSpaceOnUse"><path id="path18" d="M 0,38 38,38 38,0 0,0 0,38 Z"/></clipPath></defs><g transform="matrix(1.25,0,0,-1.25,0,47.5)" id="g10"><g id="g12"><g clip-path="url(#clipPath16)" id="g14"><g transform="translate(36,5)" id="g20"><path id="path22" style="fill:#ccd6dd;fill-opacity:1;fill-rule:nonzero;stroke:none" d="m 0,0 c 0,-2.209 -1.791,-4 -4,-4 l -26,0 c -2.209,0 -4,1.791 -4,4 l 0,28 c 0,2.209 1.791,4 4,4 l 26,0 c 2.209,0 4,-1.791 4,-4 L 0,0 Z"/></g><path id="path24" style="fill:#e1e8ed;fill-opacity:1;fill-rule:nonzero;stroke:none" d="m 27,11 5,0 0,-5 -5,0 0,5 z m -7,0 5,0 0,-5 -5,0 0,5 z m -7,0 5,0 0,-5 -5,0 0,5 z m -7,0 5,0 0,-5 -5,0 0,5 z m 5,16 -5,0 0,5 5,0 0,-5 z m 7,0 -5,0 0,5 5,0 0,-5 z m 7,0 -5,0 0,5 5,0 0,-5 z m 2,5 5,0 0,-5 -5,0 0,5 z m 0,-7 5,0 0,-5 -5,0 0,5 z m 0,-7 5,0 0,-5 -5,0 0,5 z m -7,0 5,0 0,-5 -5,0 0,5 z m -7,0 5,0 0,-5 -5,0 0,5 z m -2,-5 -5,0 0,5 5,0 0,-5 z m 0,7 -5,0 0,5 5,0 0,-5 z m 9,5 5,0 0,-5 -5,0 0,5 z m -2,-5 -5,0 0,5 5,0 0,-5 z M 33,34 5,34 C 4.447,34 4,33.552 4,33 L 4,5 C 4,4.447 4.447,4 5,4 l 28,0 c 0.553,0 1,0.447 1,1 l 0,28 c 0,0.552 -0.447,1 -1,1"/><g transform="translate(32.002,4)" id="g26"><path id="path28" style="fill:#dd2e44;fill-opacity:1;fill-rule:nonzero;stroke:none" d="m 0,0 c -0.721,0 -1.416,0.39 -1.773,1.072 l -9.739,18.59 -6.076,-6.076 c -0.446,-0.447 -1.076,-0.66 -1.704,-0.565 -0.626,0.092 -1.171,0.474 -1.471,1.031 l -7,13 c -0.524,0.972 -0.16,2.185 0.813,2.709 0.974,0.523 2.186,0.159 2.709,-0.813 l 5.725,-10.633 6.1,6.099 c 0.45,0.45 1.089,0.659 1.716,0.563 0.629,-0.096 1.175,-0.485 1.47,-1.049 l 11,-21 C 2.282,1.949 1.904,0.741 0.926,0.229 0.63,0.073 0.312,0 0,0"/></g></g></g></g></svg>
