<svg xmlns="http://www.w3.org/2000/svg" viewBox="0 0 47.5 47.5" enable-background="new 0 0 47.5 47.5"><defs><clipPath id="a"><path d="M0 38h38V0H0v38z"/></clipPath></defs><g><g><g clip-path="url(#a)" transform="matrix(1.25 0 0 -1.25 0 47.5)"><g><path fill="#ccd6dd" d="M29 5c0-2.2-1.8-4-4-4H5C2.8 1 1 2.88 1 9v24c0 2.2 1.8 4 4 4h20c2.2 0 4-1.8 4-4V5z"/></g><g><path fill="#e1e8ed" d="M32 1H5c4 0 4 8 4 8 0 2.2 1.8 4 4 4h20c2.2 0 4-2 4-4 0 0 .25-8-5-8"/></g><g><path fill="#99aab5" d="M25 30c0-.55-.45-1-1-1H6c-.55 0-1 .45-1 1s.45 1 1 1h18c.55 0 1-.45 1-1"/></g><g><path fill="#99aab5" d="M25 26c0-.55-.45-1-1-1H6c-.55 0-1 .45-1 1s.45 1 1 1h18c.55 0 1-.45 1-1"/></g><g><path fill="#99aab5" d="M25 22c0-.55-.45-1-1-1H6c-.55 0-1 .45-1 1s.45 1 1 1h18c.55 0 1-.45 1-1"/></g><g><path fill="#99aab5" d="M25 18c0-.55-.45-1-1-1H6c-.55 0-1 .45-1 1s.45 1 1 1h18c.55 0 1-.45 1-1"/></g></g></g></g></svg>