<svg xmlns="http://www.w3.org/2000/svg" viewBox="0 0 47.5 47.5" enable-background="new 0 0 47.5 47.5"><defs><clipPath id="a"><path d="M0 38h38V0H0v38z"/></clipPath></defs><g><g><g clip-path="url(#a)" transform="matrix(1.25 0 0 -1.25 0 47.5)"><g><path fill="#ccd6dd" d="M36 5c0-2.2-1.8-4-4-4H6C3.8 1 2 2.8 2 5v28c0 2.2 1.8 4 4 4h26c2.2 0 4-1.8 4-4V5z"/></g><path fill="#e1e8ed" d="M27 11h5V6h-5v5zm-7 0h5V6h-5v5zm-7 0h5V6h-5v5zm-7 0h5V6H6v5zm5 16H6v5h5v-5zm7 0h-5v5h5v-5zm7 0h-5v5h5v-5zm2 5h5v-5h-5v5zm0-7h5v-5h-5v5zm0-7h5v-5h-5v5zm-7 0h5v-5h-5v5zm-7 0h5v-5h-5v5zm-2-5H6v5h5v-5zm0 7H6v5h5v-5zm9 5h5v-5h-5v5zm-2-5h-5v5h5v-5zm15 14H5c-.55 0-1-.45-1-1V5c0-.55.45-1 1-1h28c.55 0 1 .45 1 1v28c0 .55-.45 1-1 1"/><g><path fill="#dd2e44" d="M32 4c-.72 0-1.4.4-1.77 1.07l-9.74 18.6-6.1-6.08c-.43-.46-1.06-.67-1.7-.58-.62.1-1.16.47-1.46 1.03l-7 13c-.52.97-.16 2.2.8 2.7 1 .53 2.2.17 2.72-.8L13.5 22.3l6.1 6.1c.44.46 1.07.67 1.7.58.63-.1 1.18-.5 1.47-1.05l11-21c.5-.98.14-2.2-.84-2.7-.3-.16-.62-.23-.93-.23"/></g></g></g></g></svg>