<?xml version="1.0" encoding="UTF-8" standalone="no"?>
<!-- Created with Inkscape (http://www.inkscape.org/) -->

<svg
   xmlns:svg="http://www.w3.org/2000/svg"
   xmlns="http://www.w3.org/2000/svg"
   version="1.1"
   width="47.5"
   height="47.5"
   id="svg2"
   xml:space="preserve"><defs
     id="defs6"><clipPath
       id="clipPath18"><path
         d="M 0,38 38,38 38,0 0,0 0,38 z"
         id="path20" /></clipPath></defs><g
     transform="matrix(1.25,0,0,-1.25,0,47.5)"
     id="g12"><g
       id="g14"><g
         clip-path="url(#clipPath18)"
         id="g16"><g
           transform="translate(36,5)"
           id="g22"><path
             d="m 0,0 c 0,-2.209 -1.791,-4 -4,-4 l -26,0 c -2.209,0 -4,1.791 -4,4 l 0,28 c 0,2.209 1.791,4 4,4 l 26,0 c 2.209,0 4,-1.791 4,-4 L 0,0 z"
             id="path24"
             style="fill:#ccd6dd;fill-opacity:1;fill-rule:nonzero;stroke:none" /></g><path
           d="m 27,11 5,0 0,-5 -5,0 0,5 z m -7,0 5,0 0,-5 -5,0 0,5 z m -7,0 5,0 0,-5 -5,0 0,5 z m -7,0 5,0 0,-5 -5,0 0,5 z m 5,16 -5,0 0,5 5,0 0,-5 z m 7,0 -5,0 0,5 5,0 0,-5 z m 7,0 -5,0 0,5 5,0 0,-5 z m 2,5 5,0 0,-5 -5,0 0,5 z m 0,-7 5,0 0,-5 -5,0 0,5 z m 0,-7 5,0 0,-5 -5,0 0,5 z m -7,0 5,0 0,-5 -5,0 0,5 z m -7,0 5,0 0,-5 -5,0 0,5 z m -2,-5 -5,0 0,5 5,0 0,-5 z m 0,7 -5,0 0,5 5,0 0,-5 z m 9,5 5,0 0,-5 -5,0 0,5 z m -2,-5 -5,0 0,5 5,0 0,-5 z M 33,34 5,34 C 4.447,34 4,33.552 4,33 L 4,5 C 4,4.447 4.447,4 5,4 l 28,0 c 0.553,0 1,0.447 1,1 l 0,28 c 0,0.552 -0.447,1 -1,1"
           id="path26"
           style="fill:#e1e8ed;fill-opacity:1;fill-rule:nonzero;stroke:none" /><g
           transform="translate(5.998,4)"
           id="g28"><path
             d="m 0,0 c -0.32,0 -0.645,0.076 -0.946,0.239 -0.973,0.524 -1.337,1.737 -0.813,2.709 l 7,13 c 0.3,0.557 0.845,0.939 1.47,1.031 0.627,0.092 1.259,-0.118 1.705,-0.565 l 6.076,-6.076 9.738,18.59 c 0.512,0.978 1.721,1.357 2.7,0.843 0.978,-0.512 1.356,-1.721 0.843,-2.699 l -11,-21 C 16.479,5.509 15.933,5.119 15.304,5.022 14.677,4.932 14.038,5.136 13.588,5.586 L 7.488,11.685 1.763,1.052 C 1.402,0.381 0.712,0 0,0"
             id="path30"
             style="fill:#3e721d;fill-opacity:1;fill-rule:nonzero;stroke:none" /></g></g></g></g></svg>