<?xml version="1.0" encoding="UTF-8" standalone="no"?><svg xmlns:dc="http://purl.org/dc/elements/1.1/" xmlns:cc="http://creativecommons.org/ns#" xmlns:rdf="http://www.w3.org/1999/02/22-rdf-syntax-ns#" xmlns:svg="http://www.w3.org/2000/svg" xmlns="http://www.w3.org/2000/svg" viewBox="0 0 47.5 47.5" style="enable-background:new 0 0 47.5 47.5;" xml:space="preserve" version="1.1" id="svg2"><metadata id="metadata8"><rdf:RDF><cc:Work rdf:about=""><dc:format>image/svg+xml</dc:format><dc:type rdf:resource="http://purl.org/dc/dcmitype/StillImage"/></cc:Work></rdf:RDF></metadata><defs id="defs6"><clipPath id="clipPath16" clipPathUnits="userSpaceOnUse"><path id="path18" d="M 0,38 38,38 38,0 0,0 0,38 Z"/></clipPath></defs><g transform="matrix(1.25,0,0,-1.25,0,47.5)" id="g10"><g id="g12"><g clip-path="url(#clipPath16)" id="g14"><g transform="translate(36,5)" id="g20"><path id="path22" style="fill:#292f33;fill-opacity:1;fill-rule:nonzero;stroke:none" d="m 0,0 c 0,-2.209 -1.791,-4 -4,-4 l -26,0 c -2.209,0 -4,1.791 -4,4 l 0,24 c 0,2.209 1.791,4 4,4 l 26,0 c 2.209,0 4,-1.791 4,-4 L 0,0 Z"/></g><g transform="translate(34,5)" id="g24"><path id="path26" style="fill:#e1e8ed;fill-opacity:1;fill-rule:nonzero;stroke:none" d="m 0,0 c 0,-1.104 -0.896,-2 -2,-2 l -26,0 c -1.104,0 -2,0.896 -2,2 l 0,20 c 0,1.104 0.896,2 2,2 l 26,0 c 1.104,0 2,-0.896 2,-2 L 0,0 Z"/></g><g transform="translate(34,21)" id="g28"><path id="path30" style="fill:#dd2e44;fill-opacity:1;fill-rule:nonzero;stroke:none" d="m 0,0 -30,0 0,8 c 0,1.104 0.896,2 2,2 l 26,0 C -0.896,10 0,9.104 0,8 L 0,0 Z"/></g><g transform="translate(12.6094,16)" id="g32"><path id="path34" style="fill:#66757f;fill-opacity:1;fill-rule:nonzero;stroke:none" d="m 0,0 -0.695,0 c -1.086,0 -1.537,0.731 -1.537,1.5 0,0.792 0.564,1.5 1.537,1.5 L 1.516,3 C 2.486,3 3.029,2.299 3.029,1.395 l 0,-10.865 c 0,-1.13 -0.556,-1.762 -1.529,-1.762 -0.973,0 -1.5,0.632 -1.5,1.762 L 0,0 Z"/></g><g transform="translate(9.0645,23.999)" id="g36"><path id="path38" style="fill:#f5f8fa;fill-opacity:1;fill-rule:nonzero;stroke:none" d="m 0,0 c 0,-1.679 -1,-2.119 -1.851,-2.119 -0.645,0 -1.721,0.27 -1.721,1.14 0,0.269 0.216,0.609 0.524,0.609 0.374,0 0.702,-0.37 1.122,-0.37 0.524,0 0.524,0.52 0.524,0.84 l 0,3.297 c 0,0.5 0.298,0.78 0.7,0.78 C -0.299,4.177 0,3.897 0,3.397 L 0,0 Z"/></g><g transform="translate(9.7954,27.3965)" id="g40"><path id="path42" style="fill:#f5f8fa;fill-opacity:1;fill-rule:nonzero;stroke:none" d="M 0,0 C 0,0.5 0.299,0.78 0.702,0.78 1.104,0.78 1.403,0.5 1.403,0 l 0,-2.488 c 0,-0.92 0.552,-1.649 1.44,-1.649 0.85,0 1.43,0.769 1.43,1.649 l 0,2.488 c 0,0.5 0.299,0.78 0.702,0.78 C 5.377,0.78 5.676,0.5 5.676,0 l 0,-2.568 C 5.676,-4.247 4.385,-5.517 2.843,-5.517 1.282,-5.517 0,-4.267 0,-2.568 L 0,0 Z"/></g><g transform="translate(16.2598,27.3965)" id="g44"><path id="path46" style="fill:#f5f8fa;fill-opacity:1;fill-rule:nonzero;stroke:none" d="M 0,0 C 0,0.5 0.3,0.78 0.702,0.78 1.104,0.78 1.403,0.5 1.403,0 l 0,-4.017 1.665,0 c 0.477,0 0.682,-0.38 0.672,-0.72 -0.018,-0.33 -0.261,-0.659 -0.672,-0.659 l -2.338,0 C 0.272,-5.396 0,-5.077 0,-4.577 L 0,0 Z"/></g><g transform="translate(31,23)" id="g48"><path id="path50" style="fill:#f4abba;fill-opacity:1;fill-rule:nonzero;stroke:none" d="M 0,0 C 0,-0.552 0.447,-1 1,-1 1.553,-1 2,-0.552 2,0 2,0.552 1.553,1 1,1 0.447,1 0,0.552 0,0"/></g><g transform="translate(28,23)" id="g52"><path id="path54" style="fill:#f4abba;fill-opacity:1;fill-rule:nonzero;stroke:none" d="M 0,0 C 0,-0.552 0.447,-1 1,-1 1.553,-1 2,-0.552 2,0 2,0.552 1.553,1 1,1 0.447,1 0,0.552 0,0"/></g><g transform="translate(25,23)" id="g56"><path id="path58" style="fill:#f4abba;fill-opacity:1;fill-rule:nonzero;stroke:none" d="M 0,0 C 0,-0.552 0.447,-1 1,-1 1.553,-1 2,-0.552 2,0 2,0.552 1.553,1 1,1 0.447,1 0,0.552 0,0"/></g><g transform="translate(25,26)" id="g60"><path id="path62" style="fill:#f4abba;fill-opacity:1;fill-rule:nonzero;stroke:none" d="M 0,0 C 0,-0.552 0.447,-1 1,-1 1.553,-1 2,-0.552 2,0 2,0.552 1.553,1 1,1 0.447,1 0,0.552 0,0"/></g><g transform="translate(28,26)" id="g64"><path id="path66" style="fill:#f4abba;fill-opacity:1;fill-rule:nonzero;stroke:none" d="M 0,0 C 0,-0.552 0.447,-1 1,-1 1.553,-1 2,-0.552 2,0 2,0.552 1.553,1 1,1 0.447,1 0,0.552 0,0"/></g><g transform="translate(31,26)" id="g68"><path id="path70" style="fill:#f4abba;fill-opacity:1;fill-rule:nonzero;stroke:none" d="M 0,0 C 0,-0.552 0.447,-1 1,-1 1.553,-1 2,-0.552 2,0 2,0.552 1.553,1 1,1 0.447,1 0,0.552 0,0"/></g><g transform="translate(12,30)" id="g72"><path id="path74" style="fill:#99aab5;fill-opacity:1;fill-rule:nonzero;stroke:none" d="m 0,0 c 0,-0.552 -0.448,-1 -1,-1 -0.552,0 -1,0.448 -1,1 l 0,6 c 0,0.552 0.448,1 1,1 0.552,0 1,-0.448 1,-1 L 0,0 Z"/></g><g transform="translate(28,30)" id="g76"><path id="path78" style="fill:#99aab5;fill-opacity:1;fill-rule:nonzero;stroke:none" d="m 0,0 c 0,-0.552 -0.447,-1 -1,-1 -0.553,0 -1,0.448 -1,1 l 0,6 c 0,0.552 0.447,1 1,1 0.553,0 1,-0.448 1,-1 L 0,0 Z"/></g><g transform="translate(21.3076,14.4971)" id="g80"><path id="path82" style="fill:#66757f;fill-opacity:1;fill-rule:nonzero;stroke:none" d="m 0,0 c 0.541,0.112 0.924,0.126 1.443,0.126 2.515,0 4.302,-1.995 4.302,-4.427 0,-3.471 -1.912,-5.757 -5.507,-5.757 -1.475,0 -4.572,0.955 -4.572,2.785 0,0.769 0.644,1.414 1.412,1.414 0.831,0 1.83,-1.33 3.222,-1.33 1.455,0 2.203,1.413 2.203,2.721 0,1.248 -0.706,2.1 -1.994,2.1 -1.207,0 -1.393,-0.686 -2.453,-0.686 -0.811,0 -1.364,0.536 -1.303,1.656 l 0.563,3.758 c 0.248,1.759 0.677,2.143 1.759,2.143 l 5.436,0 c 1.037,0 1.646,-0.609 1.646,-1.421 0,-1.557 -1.173,-1.579 -1.579,-1.579 l -4.24,0 L 0,0 Z"/></g></g></g></g></svg>
