<svg xmlns="http://www.w3.org/2000/svg" viewBox="0 0 47.5 47.5" enable-background="new 0 0 47.5 47.5"><defs><clipPath id="a"><path d="M0 38h38V0H0v38z"/></clipPath></defs><g><g><g clip-path="url(#a)" transform="matrix(1.25 0 0 -1.25 0 47.5)"><g><path fill="#e1e8ed" d="M33.41 27.4h.02l-9 9c-.37.38-.87.6-1.42.6-1.1 0-2-.9-2-2 0-.55.22-1.05.6-1.4l-3.87-3.87 9-9 3.86 3.86c.35-.38.85-.6 1.4-.6 1.1 0 2 .9 2 2 0 .55-.22 1.05-.6 1.4"/></g><g><path fill="#ccd6dd" d="M23 37H8c-2.2 0-4-1.8-4-4V5c0-2.2 1.8-4 4-4h22c2.2 0 4 1.8 4 4v21h-9c-1 0-2 1-2 2v9z"/></g><g><path fill="#99aab5" d="M23 37h-2v-9c0-2.2 1.8-4 4-4h9v2h-9c-1 0-2 1-2 2v9z"/></g><g><path fill="#99aab5" d="M18 29c0-.55-.45-1-1-1H9c-.55 0-1 .45-1 1s.45 1 1 1h8c.55 0 1-.45 1-1"/></g><g><path fill="#99aab5" d="M18 25c0-.55-.45-1-1-1H9c-.55 0-1 .45-1 1s.45 1 1 1h8c.55 0 1-.45 1-1"/></g><g><path fill="#99aab5" d="M30 21c0-.55-.45-1-1-1H9c-.55 0-1 .45-1 1s.45 1 1 1h20c.55 0 1-.45 1-1"/></g><g><path fill="#99aab5" d="M30 17c0-.55-.45-1-1-1H9c-.55 0-1 .45-1 1s.45 1 1 1h20c.55 0 1-.45 1-1"/></g><g><path fill="#99aab5" d="M30 13c0-.55-.45-1-1-1H9c-.55 0-1 .45-1 1s.45 1 1 1h20c.55 0 1-.45 1-1"/></g><g><path fill="#99aab5" d="M30 9c0-.55-.45-1-1-1H9c-.55 0-1 .45-1 1s.45 1 1 1h20c.55 0 1-.45 1-1"/></g></g></g></g></svg>