<?xml version="1.0" encoding="UTF-8" standalone="no"?><svg xmlns:svg="http://www.w3.org/2000/svg" xmlns="http://www.w3.org/2000/svg" version="1.1" viewBox="0 0 47.5 47.5" style="enable-background:new 0 0 47.5 47.5;" id="svg2" xml:space="preserve"><defs id="defs6"><clipPath id="clipPath18"><path d="M 0,38 38,38 38,0 0,0 0,38 z" id="path20"/></clipPath></defs><g transform="matrix(1.25,0,0,-1.25,0,47.5)" id="g12"><g id="g14"><g clip-path="url(#clipPath18)" id="g16"><g transform="translate(1,8)" id="g22"><path d="m 0,0 c 0,-2.209 1.791,-4 4,-4 l 24,0 c 2.209,0 4,1.791 4,4 l 0,17 c 0,2.209 -1.791,4 -4,4 l -9,0 c -3.562,0 -3,5 -8.437,5 L 4,26 C 1.791,26 0,24.209 0,22 L 0,0 z" id="path24" style="fill:#226699;fill-opacity:1;fill-rule:nonzero;stroke:none"/></g><g transform="translate(31,27)" id="g26"><path d="M 0,0 -6.562,0 C -12,0 -11.438,-5 -15,-5 l -9,0 c -2.209,0 -4,-1.791 -4,-4 l 0,-10 c 0,-0.553 -0.448,-1 -1,-1 -0.552,0 -1,0.447 -1,1 0,-2.209 1.791,-4 4,-4 l 26,0 c 2.209,0 4,1.791 4,4 L 4,-4 C 4,-1.791 2.209,0 0,0" id="path28" style="fill:#55acee;fill-opacity:1;fill-rule:nonzero;stroke:none"/></g></g></g></g></svg>
