<?xml version="1.0" encoding="UTF-8" standalone="no"?><svg xmlns:dc="http://purl.org/dc/elements/1.1/" xmlns:cc="http://creativecommons.org/ns#" xmlns:rdf="http://www.w3.org/1999/02/22-rdf-syntax-ns#" xmlns:svg="http://www.w3.org/2000/svg" xmlns="http://www.w3.org/2000/svg" viewBox="0 0 47.5 47.5" style="enable-background:new 0 0 47.5 47.5;" xml:space="preserve" version="1.1" id="svg2"><metadata id="metadata8"><rdf:RDF><cc:Work rdf:about=""><dc:format>image/svg+xml</dc:format><dc:type rdf:resource="http://purl.org/dc/dcmitype/StillImage"/></cc:Work></rdf:RDF></metadata><defs id="defs6"><clipPath id="clipPath16" clipPathUnits="userSpaceOnUse"><path id="path18" d="M 0,38 38,38 38,0 0,0 0,38 Z"/></clipPath></defs><g transform="matrix(1.25,0,0,-1.25,0,47.5)" id="g10"><g id="g12"><g clip-path="url(#clipPath16)" id="g14"><g transform="translate(37,5)" id="g20"><path id="path22" style="fill:#e1e8ed;fill-opacity:1;fill-rule:nonzero;stroke:none" d="m 0,0 c 0,-2.209 -1.791,-4 -4,-4 l -28,0 c -2.209,0 -4,1.791 -4,4 l 0,23 c 0,2.209 1.791,4 4,4 l 28,0 c 2.209,0 4,-1.791 4,-4 L 0,0 Z"/></g><g transform="translate(35,37)" id="g24"><path id="path26" style="fill:#dd2e44;fill-opacity:1;fill-rule:nonzero;stroke:none" d="M 0,0 -3.277,0 C -3.105,-0.295 -3,-0.634 -3,-1 c 0,-1.104 -0.896,-2 -2,-2 -1.104,0 -2,0.896 -2,2 0,0.366 0.105,0.705 0.277,1 l -18.554,0 c 0.172,-0.295 0.277,-0.634 0.277,-1 0,-1.104 -0.896,-2 -2,-2 -1.104,0 -2,0.896 -2,2 0,0.366 0.105,0.705 0.277,1 L -32,0 c -1.104,0 -2,-0.896 -2,-2 l 0,-11 36,0 0,11 C 2,-0.896 1.104,0 0,0"/></g><g transform="translate(13,18)" id="g28"><path id="path30" style="fill:#66757f;fill-opacity:1;fill-rule:nonzero;stroke:none" d="m 0,0 -1.695,0 c -1.086,0 -1.538,0.731 -1.538,1.5 0,0.792 0.566,1.5 1.538,1.5 l 3.21,0 C 2.487,3 3.03,2.299 3.03,1.395 l 0,-12.865 c 0,-1.13 -0.558,-1.762 -1.53,-1.762 -0.972,0 -1.5,0.632 -1.5,1.762 L 0,0 Z"/></g><g transform="translate(6.4902,27.999)" id="g32"><path id="path34" style="fill:#f5f8fa;fill-opacity:1;fill-rule:nonzero;stroke:none" d="m 0,0 c 0,-1.679 -1.069,-2.119 -1.979,-2.119 -0.689,0 -1.839,0.27 -1.839,1.14 0,0.269 0.23,0.609 0.56,0.609 0.4,0 0.75,-0.37 1.199,-0.37 0.56,0 0.56,0.52 0.56,0.84 l 0,4.297 c 0,0.5 0.32,0.78 0.749,0.78 0.431,0 0.75,-0.28 0.75,-0.78 L 0,0 Z"/></g><g transform="translate(7.272,32.3965)" id="g36"><path id="path38" style="fill:#f5f8fa;fill-opacity:1;fill-rule:nonzero;stroke:none" d="M 0,0 C 0,0.5 0.32,0.78 0.75,0.78 1.18,0.78 1.5,0.5 1.5,0 l 0,-3.488 c 0,-0.92 0.589,-1.649 1.539,-1.649 0.909,0 1.529,0.769 1.529,1.649 l 0,3.488 c 0,0.5 0.319,0.78 0.749,0.78 0.43,0 0.75,-0.28 0.75,-0.78 l 0,-3.568 c 0,-1.679 -1.38,-2.949 -3.028,-2.949 C 1.37,-6.517 0,-5.267 0,-3.568 L 0,0 Z"/></g><g transform="translate(14.1821,32.3965)" id="g40"><path id="path42" style="fill:#f5f8fa;fill-opacity:1;fill-rule:nonzero;stroke:none" d="M 0,0 C 0,0.5 0.32,0.78 0.75,0.78 1.179,0.78 1.499,0.5 1.499,0 l 0,-5.017 1.779,0 c 0.51,0 0.73,-0.38 0.72,-0.72 -0.02,-0.33 -0.28,-0.659 -0.72,-0.659 l -2.498,0 C 0.29,-6.396 0,-6.077 0,-5.577 L 0,0 Z"/></g><g transform="translate(33,27)" id="g44"><path id="path46" style="fill:#f4abba;fill-opacity:1;fill-rule:nonzero;stroke:none" d="M 0,0 C 0,-0.552 0.447,-1 1,-1 1.553,-1 2,-0.552 2,0 2,0.552 1.553,1 1,1 0.447,1 0,0.552 0,0"/></g><g transform="translate(33,30)" id="g48"><path id="path50" style="fill:#f4abba;fill-opacity:1;fill-rule:nonzero;stroke:none" d="M 0,0 C 0,-0.552 0.447,-1 1,-1 1.553,-1 2,-0.552 2,0 2,0.552 1.553,1 1,1 0.447,1 0,0.552 0,0"/></g><g transform="translate(30,27)" id="g52"><path id="path54" style="fill:#f4abba;fill-opacity:1;fill-rule:nonzero;stroke:none" d="M 0,0 C 0,-0.552 0.447,-1 1,-1 1.553,-1 2,-0.552 2,0 2,0.552 1.553,1 1,1 0.447,1 0,0.552 0,0"/></g><g transform="translate(30,30)" id="g56"><path id="path58" style="fill:#f4abba;fill-opacity:1;fill-rule:nonzero;stroke:none" d="M 0,0 C 0,-0.552 0.447,-1 1,-1 1.553,-1 2,-0.552 2,0 2,0.552 1.553,1 1,1 0.447,1 0,0.552 0,0"/></g><g transform="translate(27,27)" id="g60"><path id="path62" style="fill:#f4abba;fill-opacity:1;fill-rule:nonzero;stroke:none" d="M 0,0 C 0,-0.552 0.447,-1 1,-1 1.553,-1 2,-0.552 2,0 2,0.552 1.553,1 1,1 0.447,1 0,0.552 0,0"/></g><g transform="translate(27,30)" id="g64"><path id="path66" style="fill:#f4abba;fill-opacity:1;fill-rule:nonzero;stroke:none" d="M 0,0 C 0,-0.552 0.447,-1 1,-1 1.553,-1 2,-0.552 2,0 2,0.552 1.553,1 1,1 0.447,1 0,0.552 0,0"/></g><g transform="translate(24,30)" id="g68"><path id="path70" style="fill:#f4abba;fill-opacity:1;fill-rule:nonzero;stroke:none" d="M 0,0 C 0,-0.552 0.447,-1 1,-1 1.553,-1 2,-0.552 2,0 2,0.552 1.553,1 1,1 0.447,1 0,0.552 0,0"/></g><g transform="translate(24,27)" id="g72"><path id="path74" style="fill:#f4abba;fill-opacity:1;fill-rule:nonzero;stroke:none" d="M 0,0 C 0,-0.552 0.447,-1 1,-1 1.553,-1 2,-0.552 2,0 2,0.552 1.553,1 1,1 0.447,1 0,0.552 0,0"/></g><g transform="translate(22.5781,15.4971)" id="g76"><path id="path78" style="fill:#66757f;fill-opacity:1;fill-rule:nonzero;stroke:none" d="m 0,0 c 0.541,0.112 1.128,0.226 1.691,0.226 2.729,0 4.668,-2.165 4.668,-4.804 0,-3.767 -2.074,-6.247 -5.975,-6.247 -1.602,0 -4.962,1.037 -4.962,3.021 0,0.835 0.699,1.534 1.533,1.534 0.902,0 1.985,-1.443 3.496,-1.443 1.578,0 2.391,1.533 2.391,2.954 0,1.354 -0.767,2.279 -2.165,2.279 -1.309,0 -1.511,-0.746 -2.661,-0.746 -0.88,0 -1.331,0.677 -1.331,1.061 0,0.293 0.044,0.519 0.068,0.767 l 0.563,4.758 c 0.248,1.759 0.677,2.143 1.759,2.143 l 5.436,0 c 1.037,0 1.646,-0.609 1.646,-1.421 0,-1.557 -1.173,-1.579 -1.579,-1.579 l -4.24,0 L 0,0 Z"/></g></g></g></g></svg>
