<?xml version="1.0" encoding="UTF-8" standalone="no"?>
<!-- Created with Inkscape (http://www.inkscape.org/) -->

<svg
   xmlns:svg="http://www.w3.org/2000/svg"
   xmlns="http://www.w3.org/2000/svg"
   version="1.1"
   width="47.5"
   height="47.5"
   id="svg2"
   xml:space="preserve"><defs
     id="defs6"><clipPath
       id="clipPath18"><path
         d="M 0,38 38,38 38,0 0,0 0,38 z"
         id="path20" /></clipPath></defs><g
     transform="matrix(1.25,0,0,-1.25,0,47.5)"
     id="g12"><g
       id="g14"><g
         clip-path="url(#clipPath18)"
         id="g16"><g
           transform="translate(29,5)"
           id="g22"><path
             d="m 0,0 c 0,-2.209 -1.791,-4 -4,-4 l -20,0 c -2.209,0 -4,1.875 -4,8 l 0,24 c 0,2.209 1.791,4 4,4 l 20,0 c 2.209,0 4,-1.791 4,-4 L 0,0 z"
             id="path24"
             style="fill:#ccd6dd;fill-opacity:1;fill-rule:nonzero;stroke:none" /></g><g
           transform="translate(32,1)"
           id="g26"><path
             d="m 0,0 -27,0 c 4,0 4,8 4,8 0,2.209 1.791,4 4,4 L 1,12 C 3.209,12 5,10 5,8 5,8 5.25,0 0,0"
             id="path28"
             style="fill:#e1e8ed;fill-opacity:1;fill-rule:nonzero;stroke:none" /></g><g
           transform="translate(25,30)"
           id="g30"><path
             d="m 0,0 c 0,-0.552 -0.447,-1 -1,-1 l -18,0 c -0.552,0 -1,0.448 -1,1 0,0.552 0.448,1 1,1 L -1,1 C -0.447,1 0,0.552 0,0"
             id="path32"
             style="fill:#99aab5;fill-opacity:1;fill-rule:nonzero;stroke:none" /></g><g
           transform="translate(25,26)"
           id="g34"><path
             d="m 0,0 c 0,-0.552 -0.447,-1 -1,-1 l -18,0 c -0.552,0 -1,0.448 -1,1 0,0.552 0.448,1 1,1 L -1,1 C -0.447,1 0,0.552 0,0"
             id="path36"
             style="fill:#99aab5;fill-opacity:1;fill-rule:nonzero;stroke:none" /></g><g
           transform="translate(25,22)"
           id="g38"><path
             d="m 0,0 c 0,-0.552 -0.447,-1 -1,-1 l -18,0 c -0.552,0 -1,0.448 -1,1 0,0.552 0.448,1 1,1 L -1,1 C -0.447,1 0,0.552 0,0"
             id="path40"
             style="fill:#99aab5;fill-opacity:1;fill-rule:nonzero;stroke:none" /></g><g
           transform="translate(25,18)"
           id="g42"><path
             d="m 0,0 c 0,-0.553 -0.447,-1 -1,-1 l -18,0 c -0.552,0 -1,0.447 -1,1 0,0.553 0.448,1 1,1 L -1,1 C -0.447,1 0,0.553 0,0"
             id="path44"
             style="fill:#99aab5;fill-opacity:1;fill-rule:nonzero;stroke:none" /></g></g></g></g></svg>