<svg xmlns="http://www.w3.org/2000/svg" viewBox="0 0 47.5 47.5" enable-background="new 0 0 47.5 47.5"><defs><clipPath id="a"><path d="M0 38h38V0H0v38z"/></clipPath></defs><g><g><g clip-path="url(#a)" transform="matrix(1.25 0 0 -1.25 0 47.5)"><g><path fill="#292f33" d="M36 5c0-2.2-1.8-4-4-4H6C3.8 1 2 2.8 2 5v24c0 2.2 1.8 4 4 4h26c2.2 0 4-1.8 4-4V5z"/></g><g><path fill="#e1e8ed" d="M34 5c0-1.1-.9-2-2-2H6c-1.1 0-2 .9-2 2v20c0 1.1.9 2 2 2h26c1.1 0 2-.9 2-2V5z"/></g><g><path fill="#dd2e44" d="M34 21H4v8c0 1.1.9 2 2 2h26c1.1 0 2-.9 2-2v-8z"/></g><g><path fill="#66757f" d="M12.6 16h-.7c-1.07 0-1.52.73-1.52 1.5 0 .8.56 1.5 1.53 1.5h2.23c.97 0 1.5-.7 1.5-1.6V6.53c0-1.13-.55-1.76-1.52-1.76-.96 0-1.5.63-1.5 1.76V16z"/></g><g><path fill="#f5f8fa" d="M9.06 24c0-1.68-1-2.12-1.85-2.12-.63 0-1.7.27-1.7 1.14 0 .27.2.6.52.6.37 0 .7-.36 1.12-.36.52 0 .52.52.52.84v3.3c0 .5.3.78.7.78.4 0 .7-.28.7-.78V24z"/></g><g><path fill="#f5f8fa" d="M9.8 27.4c0 .5.3.78.7.78.4 0 .7-.28.7-.78v-2.5c0-.9.55-1.64 1.44-1.64.85 0 1.43.77 1.43 1.65v2.5c0 .5.3.78.7.78.4 0 .7-.28.7-.78v-2.57c0-1.68-1.3-2.95-2.83-2.95-1.56 0-2.84 1.25-2.84 2.95v2.57z"/></g><g><path fill="#f5f8fa" d="M16.26 27.4c0 .5.3.78.7.78.4 0 .7-.28.7-.78v-4.02h1.67c.47 0 .68-.38.67-.72-.02-.33-.26-.66-.67-.66H17c-.47 0-.74.32-.74.82v4.58z"/></g><g><path fill="#f4abba" d="M31 23c0-.55.45-1 1-1s1 .45 1 1-.45 1-1 1-1-.45-1-1"/></g><g><path fill="#f4abba" d="M28 23c0-.55.45-1 1-1s1 .45 1 1-.45 1-1 1-1-.45-1-1"/></g><g><path fill="#f4abba" d="M25 23c0-.55.45-1 1-1s1 .45 1 1-.45 1-1 1-1-.45-1-1"/></g><g><path fill="#f4abba" d="M25 26c0-.55.45-1 1-1s1 .45 1 1-.45 1-1 1-1-.45-1-1"/></g><g><path fill="#f4abba" d="M28 26c0-.55.45-1 1-1s1 .45 1 1-.45 1-1 1-1-.45-1-1"/></g><g><path fill="#f4abba" d="M31 26c0-.55.45-1 1-1s1 .45 1 1-.45 1-1 1-1-.45-1-1"/></g><g><path fill="#99aab5" d="M12 30c0-.55-.45-1-1-1s-1 .45-1 1v6c0 .55.45 1 1 1s1-.45 1-1v-6z"/></g><g><path fill="#99aab5" d="M28 30c0-.55-.45-1-1-1s-1 .45-1 1v6c0 .55.45 1 1 1s1-.45 1-1v-6z"/></g><g><path fill="#66757f" d="M21.3 14.5c.55.1.93.12 1.45.12 2.52 0 4.3-2 4.3-4.42 0-3.47-1.9-5.76-5.5-5.76-1.48 0-4.58.95-4.58 2.78 0 .77.65 1.42 1.42 1.42.82 0 1.82-1.33 3.2-1.33 1.46 0 2.2 1.42 2.2 2.73 0 1.25-.7 2.1-1.98 2.1-1.2 0-1.4-.7-2.46-.7-.8 0-1.36.55-1.3 1.67l.56 3.76c.25 1.76.68 2.14 1.76 2.14h5.44c1.04 0 1.64-.6 1.64-1.42 0-1.56-1.17-1.58-1.57-1.58h-4.25l-.34-1.5z"/></g></g></g></g></svg>