<?xml version="1.0" encoding="UTF-8" standalone="no"?><svg xmlns:svg="http://www.w3.org/2000/svg" xmlns="http://www.w3.org/2000/svg" version="1.1" viewBox="0 0 47.5 47.5" style="enable-background:new 0 0 47.5 47.5;" id="svg2" xml:space="preserve"><defs id="defs6"><clipPath id="clipPath18"><path d="M 0,38 38,38 38,0 0,0 0,38 z" id="path20"/></clipPath></defs><g transform="matrix(1.25,0,0,-1.25,0,47.5)" id="g12"><g id="g14"><g clip-path="url(#clipPath18)" id="g16"><g transform="translate(33,3)" id="g22"><path d="m 0,0 c 0,-1.104 -0.896,-2 -2,-2 l -24,0 c -1.104,0 -2,0.896 -2,2 l 0,27 c 0,1.104 0.896,2 2,2 l 24,0 c 1.104,0 2,-0.896 2,-2 L 0,0 z" id="path24" style="fill:#c1694f;fill-opacity:1;fill-rule:nonzero;stroke:none"/></g><g transform="translate(30,5)" id="g26"><path d="m 0,0 c 0,-0.553 -0.447,-1 -1,-1 l -20,0 c -0.552,0 -1,0.447 -1,1 l 0,23 c 0,0.552 0.448,1 1,1 l 20,0 c 0.553,0 1,-0.448 1,-1 L 0,0 z" id="path28" style="fill:#ffffff;fill-opacity:1;fill-rule:nonzero;stroke:none"/></g><g transform="translate(26,34)" id="g30"><path d="m 0,0 -4,0 c 0,1.657 -1.343,3 -3,3 -1.657,0 -3,-1.343 -3,-3 l -4,0 c -1.104,0 -2,-0.896 -2,-2 l 0,-5 18,0 0,5 C 2,-0.896 1.104,0 0,0" id="path32" style="fill:#ccd6dd;fill-opacity:1;fill-rule:nonzero;stroke:none"/></g><g transform="translate(21,34)" id="g34"><path d="m 0,0 c 0,-1.104 -0.896,-2 -2,-2 -1.104,0 -2,0.896 -2,2 0,1.104 0.896,2 2,2 1.104,0 2,-0.896 2,-2" id="path36" style="fill:#292f33;fill-opacity:1;fill-rule:nonzero;stroke:none"/></g><g transform="translate(21,23)" id="g38"><path d="m 0,0 c 0,-0.552 -0.447,-1 -1,-1 l -9,0 c -0.552,0 -1,0.448 -1,1 0,0.552 0.448,1 1,1 l 9,0 C -0.447,1 0,0.552 0,0" id="path40" style="fill:#99aab5;fill-opacity:1;fill-rule:nonzero;stroke:none"/></g><g transform="translate(28,19)" id="g42"><path d="m 0,0 c 0,-0.552 -0.447,-1 -1,-1 l -16,0 c -0.552,0 -1,0.448 -1,1 0,0.552 0.448,1 1,1 L -1,1 C -0.447,1 0,0.552 0,0" id="path44" style="fill:#99aab5;fill-opacity:1;fill-rule:nonzero;stroke:none"/></g><g transform="translate(28,15)" id="g46"><path d="m 0,0 c 0,-0.553 -0.447,-1 -1,-1 l -16,0 c -0.552,0 -1,0.447 -1,1 0,0.553 0.448,1 1,1 L -1,1 C -0.447,1 0,0.553 0,0" id="path48" style="fill:#99aab5;fill-opacity:1;fill-rule:nonzero;stroke:none"/></g><g transform="translate(28,11)" id="g50"><path d="m 0,0 c 0,-0.553 -0.447,-1 -1,-1 l -16,0 c -0.552,0 -1,0.447 -1,1 0,0.553 0.448,1 1,1 L -1,1 C -0.447,1 0,0.553 0,0" id="path52" style="fill:#99aab5;fill-opacity:1;fill-rule:nonzero;stroke:none"/></g><g transform="translate(28,7)" id="g54"><path d="m 0,0 c 0,-0.553 -0.447,-1 -1,-1 l -9,0 c -0.552,0 -1,0.447 -1,1 0,0.553 0.448,1 1,1 l 9,0 C -0.447,1 0,0.553 0,0" id="path56" style="fill:#99aab5;fill-opacity:1;fill-rule:nonzero;stroke:none"/></g></g></g></g></svg>
