<svg xmlns="http://www.w3.org/2000/svg" viewBox="0 0 47.5 47.5" enable-background="new 0 0 47.5 47.5"><defs><clipPath id="a"><path d="M0 38h38V0H0v38z"/></clipPath></defs><g><g><g clip-path="url(#a)" transform="matrix(1.25 0 0 -1.25 0 47.5)"><g><path fill="#c1694f" d="M33 3c0-1.1-.9-2-2-2H7c-1.1 0-2 .9-2 2v27c0 1.1.9 2 2 2h24c1.1 0 2-.9 2-2V3z"/></g><g><path fill="#fff" d="M30 5c0-.55-.45-1-1-1H9c-.55 0-1 .45-1 1v23c0 .55.45 1 1 1h20c.55 0 1-.45 1-1V5z"/></g><g><path fill="#ccd6dd" d="M26 34h-4c0 1.66-1.34 3-3 3s-3-1.34-3-3h-4c-1.1 0-2-.9-2-2v-5h18v5c0 1.1-.9 2-2 2"/></g><g><path fill="#292f33" d="M21 34c0-1.1-.9-2-2-2s-2 .9-2 2 .9 2 2 2 2-.9 2-2"/></g><g><path fill="#99aab5" d="M21 23c0-.55-.45-1-1-1h-9c-.55 0-1 .45-1 1s.45 1 1 1h9c.55 0 1-.45 1-1"/></g><g><path fill="#99aab5" d="M28 19c0-.55-.45-1-1-1H11c-.55 0-1 .45-1 1s.45 1 1 1h16c.55 0 1-.45 1-1"/></g><g><path fill="#99aab5" d="M28 15c0-.55-.45-1-1-1H11c-.55 0-1 .45-1 1s.45 1 1 1h16c.55 0 1-.45 1-1"/></g><g><path fill="#99aab5" d="M28 11c0-.55-.45-1-1-1H11c-.55 0-1 .45-1 1s.45 1 1 1h16c.55 0 1-.45 1-1"/></g><g><path fill="#99aab5" d="M28 7c0-.55-.45-1-1-1h-9c-.55 0-1 .45-1 1s.45 1 1 1h9c.55 0 1-.45 1-1"/></g></g></g></g></svg>