<svg xmlns="http://www.w3.org/2000/svg" viewBox="0 0 47.5 47.5" enable-background="new 0 0 47.5 47.5"><defs><clipPath id="a"><path d="M0 38h38V0H0v38z"/></clipPath></defs><g><g><g clip-path="url(#a)" transform="matrix(1.25 0 0 -1.25 0 47.5)"><g><path fill="#292f33" d="M23 2.5c0-.83-1.8-1.5-4-1.5s-4 .67-4 1.5S16.8 4 19 4s4-.67 4-1.5"/></g><g><path fill="#99aab5" d="M19 25.5s-3.66 11.84-3.66.78S17.9 2 19 2c1.1 0 3.66 13.22 3.66 24.28S19 25.5 19 25.5"/></g><g><path fill="#dd2e44" d="M27 29c0-4.42-3.58-8-8-8s-8 3.58-8 8 3.58 8 8 8 8-3.58 8-8"/></g></g></g></g></svg>