<?xml version="1.0" encoding="UTF-8" standalone="no"?><svg xmlns:svg="http://www.w3.org/2000/svg" xmlns="http://www.w3.org/2000/svg" version="1.1" viewBox="0 0 47.5 47.5" style="enable-background:new 0 0 47.5 47.5;" id="svg2" xml:space="preserve"><defs id="defs6"><clipPath id="clipPath18"><path d="M 0,38 38,38 38,0 0,0 0,38 z" id="path20"/></clipPath></defs><g transform="matrix(1.25,0,0,-1.25,0,47.5)" id="g12"><g id="g14"><g clip-path="url(#clipPath18)" id="g16"><g transform="translate(31.0205,2.7363)" id="g22"><path d="m 0,0 c -1.563,-1.563 -4.095,-1.562 -5.656,0 l -22.628,22.627 c -1.562,1.562 -1.563,4.094 0,5.658 l 4.242,4.242 c 1.563,1.562 4.096,1.562 5.658,0 L 4.242,9.899 C 5.805,8.337 5.805,5.804 4.243,4.243 L 0,0 z" id="path24" style="fill:#ffcc4d;fill-opacity:1;fill-rule:nonzero;stroke:none"/></g><g transform="translate(10.5146,30.3135)" id="g26"><path d="m 0,0 c -0.391,-0.39 -1.023,-0.39 -1.414,0 -0.39,0.391 -0.39,1.024 0,1.415 L 2.122,4.95 C 2.607,4.464 3.049,4.022 3.536,3.536 L 0,0 z" id="path28" style="fill:#292f33;fill-opacity:1;fill-rule:nonzero;stroke:none"/></g><g transform="translate(16.1714,28.8994)" id="g30"><path d="m 0,0 c -0.39,-0.391 -1.023,-0.391 -1.414,0 -0.391,0.391 -0.391,1.024 0,1.414 L 0,2.829 C 0.486,2.342 0.928,1.9 1.415,1.414 L 0,0 z" id="path32" style="fill:#292f33;fill-opacity:1;fill-rule:nonzero;stroke:none"/></g><g transform="translate(17.5859,23.2427)" id="g34"><path d="m 0,0 c -0.391,-0.391 -1.024,-0.391 -1.415,0 -0.39,0.391 -0.39,1.024 0,1.414 L 2.121,4.95 C 2.607,4.463 3.05,4.021 3.535,3.535 L 0,0 z" id="path36" style="fill:#292f33;fill-opacity:1;fill-rule:nonzero;stroke:none"/></g><g transform="translate(23.2422,21.8286)" id="g38"><path d="m 0,0 c -0.39,-0.391 -1.022,-0.391 -1.413,0 -0.392,0.391 -0.391,1.024 0,1.414 L 0.001,2.829 C 0.486,2.342 0.929,1.9 1.415,1.414 L 0,0 z" id="path40" style="fill:#292f33;fill-opacity:1;fill-rule:nonzero;stroke:none"/></g><g transform="translate(24.6572,16.1719)" id="g42"><path d="M 0,0 C -0.391,-0.391 -1.023,-0.392 -1.414,0 -1.805,0.391 -1.805,1.023 -1.415,1.414 L 2.121,4.949 C 2.607,4.463 3.05,4.021 3.535,3.535 L 0,0 z" id="path44" style="fill:#292f33;fill-opacity:1;fill-rule:nonzero;stroke:none"/></g><g transform="translate(31.7275,9.1006)" id="g46"><path d="M 0,0 C -0.39,-0.391 -1.023,-0.391 -1.413,0 -1.805,0.391 -1.805,1.023 -1.414,1.414 L 2.122,4.949 3.536,3.535 0,0 z" id="path48" style="fill:#292f33;fill-opacity:1;fill-rule:nonzero;stroke:none"/></g><g transform="translate(30.3135,14.7578)" id="g50"><path d="m 0,0 c -0.391,-0.391 -1.022,-0.391 -1.414,-0.001 -0.391,0.391 -0.39,1.023 0,1.414 L 0.001,2.827 1.414,1.414 0,0 z" id="path52" style="fill:#292f33;fill-opacity:1;fill-rule:nonzero;stroke:none"/></g></g></g></g></svg>
