<svg xmlns="http://www.w3.org/2000/svg" viewBox="0 0 47.5 47.5" enable-background="new 0 0 47.5 47.5"><defs><clipPath id="a"><path d="M0 38h38V0H0v38z"/></clipPath></defs><g><g><path fill="#be1931" d="M30.8 30.37l-13.67-13.7 11.73-9.76L40.6 18.65l-9.8 11.73z"/></g><g><g clip-path="url(#a)" transform="matrix(1.25 0 0 -1.25 0 47.5)"><g><path fill="#dd2e44" d="M35.6 23.1c-1.73-1.74-4.53-1.74-6.26 0l-6.25 6.24c-1.74 1.73-1.74 4.53 0 6.26 1.7 1.73 4.52 1.73 6.24 0l6.26-6.26c1.73-1.72 1.73-4.52 0-6.25"/></g><g><path fill="#99aab5" d="M16.05 16.05S21.82 27 14 19.18C6.18 11.36.4 1.98 1.2 1.18 1.96.4 11.35 6.2 19.17 14s-3.13 2.05-3.13 2.05"/></g><g><path fill="#dd2e44" d="M26.2 9c-1.7-1.72-4.5-1.72-6.24 0L9 19.97C7.3 21.7 7.3 24.5 9 26.22c1.74 1.72 4.54 1.72 6.27 0L26.2 15.27c1.74-1.73 1.74-4.53 0-6.26"/></g></g></g></g></svg>