<svg xmlns="http://www.w3.org/2000/svg" viewBox="0 0 47.5 47.5" enable-background="new 0 0 47.5 47.5"><defs><clipPath id="a"><path d="M0 38h38V0H0v38z"/></clipPath></defs><g><g><g clip-path="url(#a)" transform="matrix(1.25 0 0 -1.25 0 47.5)"><g><path fill="#292f33" d="M33 24H5c-2.2 0-4-1.8-4-4v-2c0-2.2 1.8-4 4-4V5c0-2.2 1.8-4 4-4h20c2.2 0 4 1.8 4 4v9c2.2 0 4 1.8 4 4v2c0 2.2-1.8 4-4 4"/></g><g><path fill="#ccd6dd" d="M31 22c0-1.1-.9-2-2-2H9c-1.1 0-2 .9-2 2v13c0 1.1.9 2 2 2h20c1.1 0 2-.9 2-2V22z"/></g><g><path fill="#55acee" d="M19 24c0-.55-.45-1-1-1h-8c-.55 0-1 .45-1 1v10c0 .55.45 1 1 1h8c.55 0 1-.45 1-1V24z"/></g><g><path fill="#ccd6dd" d="M31 5c0-1.1-.9-2-2-2H9c-1.1 0-2 .9-2 2v11c0 1.1.9 2 2 2h20c1.1 0 2-.9 2-2V5z"/></g><g><path fill="#66757f" d="M29 33c0-.55-.45-1-1-1h-6c-.55 0-1 .45-1 1s.45 1 1 1h6c.55 0 1-.45 1-1"/></g><g><path fill="#66757f" d="M29 29c0-.55-.45-1-1-1h-6c-.55 0-1 .45-1 1s.45 1 1 1h6c.55 0 1-.45 1-1"/></g><g><path fill="#66757f" d="M29 25c0-.55-.45-1-1-1h-6c-.55 0-1 .45-1 1s.45 1 1 1h6c.55 0 1-.45 1-1"/></g><g><path fill="#99aab5" d="M15 17c0-.55-.45-1-1-1s-1 .45-1 1v4c0 .55.45 1 1 1s1-.45 1-1v-4z"/></g><g><path fill="#99aab5" d="M25 17c0-.55-.45-1-1-1s-1 .45-1 1v4c0 .55.45 1 1 1s1-.45 1-1v-4z"/></g></g></g></g></svg>