<?xml version="1.0" encoding="UTF-8" standalone="no"?>
<!-- Created with Inkscape (http://www.inkscape.org/) -->

<svg
   xmlns:svg="http://www.w3.org/2000/svg"
   xmlns="http://www.w3.org/2000/svg"
   version="1.1"
   width="47.5"
   height="47.5"
   id="svg2"
   xml:space="preserve"><defs
     id="defs6"><clipPath
       id="clipPath18"><path
         d="M 0,38 38,38 38,0 0,0 0,38 z"
         id="path20" /></clipPath></defs><g
     transform="matrix(1.25,0,0,-1.25,0,47.5)"
     id="g12"><g
       id="g14"><g
         clip-path="url(#clipPath18)"
         id="g16"><g
           transform="translate(33,30)"
           id="g22"><path
             d="m 0,0 -28,0 c -2.209,0 -4,-1.791 -4,-4 l 0,-15 c 0,-2.209 1.791,-4 4,-4 l 11.416,0 c 0.52,-0.596 1.477,-1 2.584,-1 1.107,0 2.064,0.404 2.584,1 L 0,-23 c 2.209,0 4,1.791 4,4 L 4,-4 C 4,-1.791 2.209,0 0,0"
             id="path24"
             style="fill:#226699;fill-opacity:1;fill-rule:nonzero;stroke:none" /></g><g
           transform="translate(21,10)"
           id="g26"><path
             d="m 0,0 c 0,-1.104 -0.896,-2 -2,-2 -1.104,0 -2,0.896 -2,2 l 0,18 c 0,1.104 0.896,2 2,2 1.104,0 2,-0.896 2,-2 L 0,0 z"
             id="path28"
             style="fill:#292f33;fill-opacity:1;fill-rule:nonzero;stroke:none" /></g><g
           transform="translate(19,11)"
           id="g30"><path
             d="m 0,0 c 0,-1.104 -0.896,-2 -2,-2 l -12,0 c -1.104,0 -2,0.896 -2,2 l 0,18 c 0,1.104 0.896,2 2,2 l 12,0 c 1.104,0 2,-0.896 2,-2 L 0,0 z"
             id="path32"
             style="fill:#99aab5;fill-opacity:1;fill-rule:nonzero;stroke:none" /></g><g
           transform="translate(19,11)"
           id="g34"><path
             d="m 0,0 c -0.999,1.998 -3.657,2 -4,2 -2,0 -5,-2 -8,-2 -1,0 -2,0.896 -2,2 l 0,16 c 0,1.104 1,2 2,2 3.255,0 6,2 8,2 3,0 4,-1.896 4,-3 L 0,0 z"
             id="path36"
             style="fill:#e1e8ed;fill-opacity:1;fill-rule:nonzero;stroke:none" /></g><g
           transform="translate(35,11)"
           id="g38"><path
             d="m 0,0 c 0,-1.104 -0.896,-2 -2,-2 l -12,0 c -1.104,0 -2,0.896 -2,2 l 0,18 c 0,1.104 0.896,2 2,2 l 12,0 c 1.104,0 2,-0.896 2,-2 L 0,0 z"
             id="path40"
             style="fill:#99aab5;fill-opacity:1;fill-rule:nonzero;stroke:none" /></g><g
           transform="translate(19,11)"
           id="g42"><path
             d="m 0,0 c 0.999,1.998 3.657,2 4,2 2,0 5,-2 8,-2 1,0 2,0.896 2,2 l 0,16 c 0,1.104 -1,2 -2,2 C 8.744,20 6,22 4,22 1,22 0,20.104 0,19 L 0,0 z"
             id="path44"
             style="fill:#ccd6dd;fill-opacity:1;fill-rule:nonzero;stroke:none" /></g></g></g></g></svg>