<svg xmlns="http://www.w3.org/2000/svg" viewBox="0 0 47.5 47.5" enable-background="new 0 0 47.5 47.5"><defs><clipPath id="a"><path d="M0 38h38V0H0v38z"/></clipPath></defs><g><g><g clip-path="url(#a)" transform="matrix(1.25 0 0 -1.25 0 47.5)"><g><path fill="#dd2e44" d="M29.3 34.42c-.45.32-1.02.18-1.26-.32l-2.6-5.2c-.24-.5-.7-.53-1-.07l-4.88 7.3c-.3.47-.8.47-1.12 0l-4.88-7.3c-.3-.46-.76-.43-1 .06l-2.6 5.2c-.24.5-.8.64-1.26.32C8.7 34.42 1 29 1 17 1 9.27 9.06 1 19 1s18 8.27 18 16c0 12-7.7 17.42-7.7 17.42"/></g><g><path fill="#f5f8fa" d="M33 14c0-1.1-.9-2-2-2H7c-1.1 0-2 .9-2 2v7c0 1.1.9 2 2 2h24c1.1 0 2-.9 2-2v-7z"/></g></g></g></g></svg>