<?xml version="1.0" encoding="UTF-8" standalone="no"?><svg xmlns:svg="http://www.w3.org/2000/svg" xmlns="http://www.w3.org/2000/svg" version="1.1" viewBox="0 0 47.5 47.5" style="enable-background:new 0 0 47.5 47.5;" id="svg2" xml:space="preserve"><defs id="defs6"><clipPath id="clipPath18"><path d="M 0,38 38,38 38,0 0,0 0,38 z" id="path20"/></clipPath></defs><g transform="matrix(1.25,0,0,-1.25,0,47.5)" id="g12"><g id="g14"><g clip-path="url(#clipPath18)" id="g16"><g transform="translate(37,11)" id="g22"><path d="m 0,0 c 0,-2.209 -1.791,-4 -4,-4 l -24,0 c -2.209,0 -4,1.791 -4,4 l 0,19.687 c 0,2.209 5.791,6.313 8,6.313 l 18.625,0 C -2.281,26 0,23.687 0,20.625 L 0,0 z" id="path24" style="fill:#f4900c;fill-opacity:1;fill-rule:nonzero;stroke:none"/></g><g transform="translate(35,7)" id="g26"><path d="m 0,0 c 0,-2.209 -1.791,-4 -4,-4 l -20,0 c -2.209,0 -4,1.791 -4,4 l 0,24 c 0,4.119 -0.021,4 5,4 l 19,0 c 2.209,0 4,-1.791 4,-4 L 0,0 z" id="path28" style="fill:#ccd6dd;fill-opacity:1;fill-rule:nonzero;stroke:none"/></g><g transform="translate(33,6)" id="g30"><path d="m 0,0 c 0,-1.657 -1.343,-3 -3,-3 l -22,0 c -1.657,0 -3,1.343 -3,3 l 0,24 c 0,1.657 1.343,3 3,3 l 22,0 c 1.657,0 3,-1.343 3,-3 L 0,0 z" id="path32" style="fill:#e1e8ed;fill-opacity:1;fill-rule:nonzero;stroke:none"/></g><g transform="translate(33,5)" id="g34"><path d="m 0,0 c 0,-2.209 -1.791,-4 -4,-4 l -19,0 c -2.209,0 -4,1.791 -4,4 l 0,22 c 0,2.209 1.791,4 4,4 l 19,0 c 2.209,0 4,-1.791 4,-4 L 0,0 z" id="path36" style="fill:#ffac33;fill-opacity:1;fill-rule:nonzero;stroke:none"/></g><g transform="translate(31,5)" id="g38"><path d="m 0,0 c 0,-2.209 -1.791,-4 -4,-4 l -17,0 c -2.209,0 -4,1.791 -4,4 l 0,20 c 0,2.209 1.791,4 4,4 l 17.335,0 C -1.456,24 0,22.544 0,20.335 L 0,0 z" id="path40" style="fill:#ffcc4d;fill-opacity:1;fill-rule:nonzero;stroke:none"/></g><g transform="translate(10,31)" id="g42"><path d="M 0,0 C -1.687,0 -1.731,1.922 -1,2.75 -0.168,3.691 1.125,4 3.438,4 L 5,4 5,6 2.281,6 C -1.687,6 -5,3.5 -5,0.625 L -5,-26 c 0,-2.209 1.791,-4 4,-4 l 2,0 0,30 -1,0 z" id="path44" style="fill:#f4900c;fill-opacity:1;fill-rule:nonzero;stroke:none"/></g><g transform="translate(9.5415,4.0215)" id="g46"><path d="m 0,0 c 0,-0.702 -0.667,-1.271 -1.49,-1.271 -0.822,0 -1.489,0.569 -1.489,1.271 0,0.701 0.667,1.271 1.489,1.271 C -0.667,1.271 0,0.701 0,0" id="path48" style="fill:#662113;fill-opacity:1;fill-rule:nonzero;stroke:none"/></g><g transform="translate(7.8936,4.7285)" id="g50"><path d="m 0,0 c -0.479,-0.055 -0.792,-0.374 -1.016,-0.729 -0.307,-0.485 -1.008,-1 -1.878,-1 -1.104,0 -2,0.671 -2,1.5 0,0.83 0.896,1.5 2,1.5 l 0,1.997 C -5.06,3.247 -6.81,1.692 -6.81,-0.229 c 0,-1.933 1.772,-3.5 3.958,-3.5 1.854,0 3.347,1.045 3.901,2.57 C 1.325,-0.4 0.58,0.064 0,0" id="path52" style="fill:#66757f;fill-opacity:1;fill-rule:nonzero;stroke:none"/></g><g transform="translate(9.5415,12.0215)" id="g54"><path d="m 0,0 c 0,-0.702 -0.667,-1.271 -1.49,-1.271 -0.822,0 -1.489,0.569 -1.489,1.271 0,0.701 0.667,1.271 1.489,1.271 C -0.667,1.271 0,0.701 0,0" id="path56" style="fill:#662113;fill-opacity:1;fill-rule:nonzero;stroke:none"/></g><g transform="translate(7.8936,12.7285)" id="g58"><path d="m 0,0 c -0.479,-0.055 -0.792,-0.374 -1.016,-0.729 -0.307,-0.485 -1.008,-1 -1.878,-1 -1.104,0 -2,0.671 -2,1.5 0,0.83 0.896,1.5 2,1.5 l 0,1.997 C -5.06,3.247 -6.81,1.692 -6.81,-0.229 c 0,-1.933 1.772,-3.5 3.958,-3.5 1.854,0 3.347,1.045 3.901,2.57 C 1.325,-0.4 0.58,0.064 0,0" id="path60" style="fill:#66757f;fill-opacity:1;fill-rule:nonzero;stroke:none"/></g><g transform="translate(9.5415,20.0215)" id="g62"><path d="m 0,0 c 0,-0.702 -0.667,-1.271 -1.49,-1.271 -0.822,0 -1.489,0.569 -1.489,1.271 0,0.701 0.667,1.271 1.489,1.271 C -0.667,1.271 0,0.701 0,0" id="path64" style="fill:#662113;fill-opacity:1;fill-rule:nonzero;stroke:none"/></g><g transform="translate(7.8936,20.7285)" id="g66"><path d="m 0,0 c -0.479,-0.055 -0.792,-0.374 -1.016,-0.729 -0.307,-0.485 -1.008,-1 -1.878,-1 -1.104,0 -2,0.671 -2,1.5 0,0.83 0.896,1.5 2,1.5 l 0,1.997 C -5.06,3.247 -6.81,1.692 -6.81,-0.229 c 0,-1.933 1.772,-3.5 3.958,-3.5 1.854,0 3.347,1.045 3.901,2.57 C 1.325,-0.4 0.58,0.064 0,0" id="path68" style="fill:#66757f;fill-opacity:1;fill-rule:nonzero;stroke:none"/></g><g transform="translate(9.5415,28.0215)" id="g70"><path d="m 0,0 c 0,-0.702 -0.667,-1.271 -1.49,-1.271 -0.822,0 -1.489,0.569 -1.489,1.271 0,0.701 0.667,1.271 1.489,1.271 C -0.667,1.271 0,0.701 0,0" id="path72" style="fill:#662113;fill-opacity:1;fill-rule:nonzero;stroke:none"/></g><g transform="translate(7.8936,28.7285)" id="g74"><path d="m 0,0 c -0.479,-0.055 -0.792,-0.374 -1.016,-0.729 -0.307,-0.485 -1.008,-1 -1.878,-1 -1.104,0 -2,0.671 -2,1.5 0,0.83 0.896,1.5 2,1.5 l 0,1.997 C -5.06,3.247 -6.81,1.692 -6.81,-0.229 c 0,-1.933 1.772,-3.5 3.958,-3.5 1.854,0 3.347,1.045 3.901,2.57 C 1.325,-0.4 0.58,0.064 0,0" id="path76" style="fill:#66757f;fill-opacity:1;fill-rule:nonzero;stroke:none"/></g></g></g></g></svg>
