<?xml version="1.0" encoding="UTF-8" standalone="no"?><svg xmlns:svg="http://www.w3.org/2000/svg" xmlns="http://www.w3.org/2000/svg" version="1.1" viewBox="0 0 47.5 47.5" style="enable-background:new 0 0 47.5 47.5;" id="svg2" xml:space="preserve"><defs id="defs6"><clipPath id="clipPath18"><path d="M 0,38 38,38 38,0 0,0 0,38 z" id="path20"/></clipPath></defs><g transform="matrix(1.25,0,0,-1.25,0,47.5)" id="g12"><g id="g14"><g clip-path="url(#clipPath18)" id="g16"><g transform="translate(16,6)" id="g22"><path d="m 0,0 c 0,-2.209 -0.791,-4 -3,-4 l -7,0 c -4,0 -4,14 0,14 l 7,0 C -0.791,10 0,8.209 0,6 L 0,0 z" id="path24" style="fill:#553788;fill-opacity:1;fill-rule:nonzero;stroke:none"/></g><g transform="translate(35,4)" id="g26"><path d="m 0,0 -1,0 0,10 1,0 c 0.553,0 1,0.447 1,1 0,0.553 -0.447,1 -1,1 l -24,0 c -4,0 -4,-14 0,-14 l 24,0 c 0.553,0 1,0.447 1,1 0,0.553 -0.447,1 -1,1" id="path28" style="fill:#9266cc;fill-opacity:1;fill-rule:nonzero;stroke:none"/></g><g transform="translate(35.1719,4)" id="g30"><path d="m 0,0 -23.172,0 c -2,0 -2,10 0,10 L 0,10 C 1.104,10 1.104,0 0,0" id="path32" style="fill:#ccd6dd;fill-opacity:1;fill-rule:nonzero;stroke:none"/></g><g transform="translate(12.5,12)" id="g34"><path d="M 0,0 23.35,0 C 23.215,1.175 22.989,2 22.672,2 L -0.5,2 C -2.151,2 -2.438,-4.808 -1.363,-7.187 -1.755,-4.229 -1.301,0 0,0" id="path36" style="fill:#99aab5;fill-opacity:1;fill-rule:nonzero;stroke:none"/></g><g transform="translate(13,29)" id="g38"><path d="m 0,0 c 0,-2.209 -1.791,-4 -4,-4 l -4,0 c -4,0 -4,11 0,11 l 4,0 C -1.791,7 0,5.209 0,3 L 0,0 z" id="path40" style="fill:#226699;fill-opacity:1;fill-rule:nonzero;stroke:none"/></g><g transform="translate(32,27)" id="g42"><path d="m 0,0 -1,0 0,7 1,0 C 0.553,7 1,7.447 1,8 1,8.553 0.553,9 0,9 l -24,0 c -4,0 -4,-11 0,-11 l 24,0 c 0.553,0 1,0.447 1,1 0,0.553 -0.447,1 -1,1" id="path44" style="fill:#55acee;fill-opacity:1;fill-rule:nonzero;stroke:none"/></g><g transform="translate(32.1719,27)" id="g46"><path d="m 0,0 -23.172,0 c -2,0 -2,7 0,7 L 0,7 C 1.104,7 1.104,0 0,0" id="path48" style="fill:#ccd6dd;fill-opacity:1;fill-rule:nonzero;stroke:none"/></g><g transform="translate(9,32)" id="g50"><path d="M 0,0 23.925,0 C 23.811,1.125 23.561,2 23.172,2 L 0,2 C -1.193,2 -1.669,-0.489 -1.438,-2.5 -1.282,-1.142 -0.807,0 0,0" id="path52" style="fill:#99aab5;fill-opacity:1;fill-rule:nonzero;stroke:none"/></g><g transform="translate(21,20)" id="g54"><path d="m 0,0 c 0,-2.209 -1.791,-4 -4,-4 l -10,0 c -4,0 -4,9 0,9 L -4,5 C -1.791,5 0,3.209 0,1 L 0,0 z" id="path56" style="fill:#f4900c;fill-opacity:1;fill-rule:nonzero;stroke:none"/></g><g transform="translate(36,18)" id="g58"><path d="m 0,0 -1,0 0,5 1,0 C 0.553,5 1,5.447 1,6 1,6.553 0.553,7 0,7 l -20,0 c -4,0 -4,-9 0,-9 l 20,0 c 0.553,0 1,0.447 1,1 0,0.553 -0.447,1 -1,1" id="path60" style="fill:#ffac33;fill-opacity:1;fill-rule:nonzero;stroke:none"/></g><g transform="translate(36.1719,18)" id="g62"><path d="m 0,0 -19.172,0 c -2,0 -2,5 0,5 L 0,5 C 1.104,5 1.104,0 0,0" id="path64" style="fill:#ccd6dd;fill-opacity:1;fill-rule:nonzero;stroke:none"/></g><g transform="translate(17,21)" id="g66"><path d="M 0,0 19.984,0 C 19.92,1.062 19.65,2 19.172,2 L 0,2 C -1.274,2 -1.733,-0.027 -1.383,-1.5 -1.185,-0.661 -0.726,0 0,0" id="path68" style="fill:#99aab5;fill-opacity:1;fill-rule:nonzero;stroke:none"/></g></g></g></g></svg>
