<?xml version="1.0" encoding="UTF-8" standalone="no"?><svg xmlns:svg="http://www.w3.org/2000/svg" xmlns="http://www.w3.org/2000/svg" version="1.1" viewBox="0 0 47.5 47.5" style="enable-background:new 0 0 47.5 47.5;" id="svg2" xml:space="preserve"><defs id="defs6"><clipPath id="clipPath18"><path d="M 0,38 38,38 38,0 0,0 0,38 z" id="path20"/></clipPath></defs><g transform="matrix(1.25,0,0,-1.25,0,47.5)" id="g12"><g id="g14"><g clip-path="url(#clipPath18)" id="g16"><g transform="translate(33,37)" id="g22"><path d="m 0,0 -22,0 c -2.209,0 -4,-1.791 -4,-4 l 0,-24 -2,0 c -2.209,0 -4,-1.791 -4,-4 0,-2.209 1.791,-4 4,-4 l 24,0 c 2.209,0 4,1.791 4,4 l 0,24 c 2.209,0 4,1.791 4,4 0,2.209 -1.791,4 -4,4" id="path24" style="fill:#ffd983;fill-opacity:1;fill-rule:nonzero;stroke:none"/></g><g transform="translate(9,27)" id="g26"><path d="M 0,0 24,0 24,2 2,2 0,3 0,0 z" id="path28" style="fill:#e39f3d;fill-opacity:1;fill-rule:nonzero;stroke:none"/></g><g transform="translate(11,37)" id="g30"><path d="m 0,0 c -2.209,0 -4,-1.791 -4,-4 l 0,-24.555 c -0.59,0.344 -1.268,0.555 -2,0.555 -2.209,0 -4,-1.791 -4,-4 0,-2.209 1.791,-4 4,-4 2.209,0 4,1.791 4,4 l 0,24.555 C -1.41,-7.789 -0.732,-8 0,-8 c 2.209,0 4,1.791 4,4 0,2.209 -1.791,4 -4,4" id="path32" style="fill:#ffe8b6;fill-opacity:1;fill-rule:nonzero;stroke:none"/></g><g transform="translate(13,33)" id="g34"><path d="m 0,0 c 0,-1.104 -0.896,-2 -2,-2 -1.104,0 -2,0.896 -2,2 0,1.104 0.896,2 2,2 1.104,0 2,-0.896 2,-2" id="path36" style="fill:#c1694f;fill-opacity:1;fill-rule:nonzero;stroke:none"/></g><g transform="translate(7,5)" id="g38"><path d="m 0,0 c 0,-1.104 -0.896,-2 -2,-2 -1.104,0 -2,0.896 -2,2 0,1.104 0.896,2 2,2 1.104,0 2,-0.896 2,-2" id="path40" style="fill:#c1694f;fill-opacity:1;fill-rule:nonzero;stroke:none"/></g><g transform="translate(31,22)" id="g42"><path d="m 0,0 c 0,-0.552 -0.447,-1 -1,-1 l -18,0 c -0.552,0 -1,0.448 -1,1 0,0.552 0.448,1 1,1 L -1,1 C -0.447,1 0,0.552 0,0" id="path44" style="fill:#c1694f;fill-opacity:1;fill-rule:nonzero;stroke:none"/></g><g transform="translate(31,18)" id="g46"><path d="m 0,0 c 0,-0.553 -0.447,-1 -1,-1 l -18,0 c -0.552,0 -1,0.447 -1,1 0,0.553 0.448,1 1,1 L -1,1 C -0.447,1 0,0.553 0,0" id="path48" style="fill:#c1694f;fill-opacity:1;fill-rule:nonzero;stroke:none"/></g><g transform="translate(31,14)" id="g50"><path d="m 0,0 c 0,-0.553 -0.447,-1 -1,-1 l -18,0 c -0.552,0 -1,0.447 -1,1 0,0.553 0.448,1 1,1 L -1,1 C -0.447,1 0,0.553 0,0" id="path52" style="fill:#c1694f;fill-opacity:1;fill-rule:nonzero;stroke:none"/></g><g transform="translate(31,10)" id="g54"><path d="m 0,0 c 0,-0.553 -0.447,-1 -1,-1 l -18,0 c -0.552,0 -1,0.447 -1,1 0,0.553 0.448,1 1,1 L -1,1 C -0.447,1 0,0.553 0,0" id="path56" style="fill:#c1694f;fill-opacity:1;fill-rule:nonzero;stroke:none"/></g></g></g></g></svg>
