<svg xmlns="http://www.w3.org/2000/svg" viewBox="0 0 47.5 47.5" enable-background="new 0 0 47.5 47.5"><defs><clipPath id="a"><path d="M0 38h38V0H0v38z"/></clipPath><clipPath id="b"><path d="M8 29V1h18c2.2 0 4 1.8 4 4v20.34c0 2.2-1.46 3.66-3.66 3.66H8z"/></clipPath></defs><g><g><g clip-path="url(#a)" transform="matrix(1.25 0 0 -1.25 0 47.5)"><g><path fill="#292f33" d="M36 11c0-2.2-1.8-4-4-4H6c-2.2 0-4 1.8-4 4v19.7c0 2.2 5.8 6.3 8 6.3h20.63c3.1 0 5.37-2.3 5.37-5.38V11z"/></g><g><path fill="#ccd6dd" d="M34 7c0-2.2-1.8-4-4-4H8C5.8 3 4 4.8 4 7v24c0 4.12-.02 4 5 4h21c2.2 0 4-1.8 4-4V7z"/></g><g><path fill="#e1e8ed" d="M32 6c0-1.66-1.34-3-3-3H5C3.34 3 2 4.34 2 6v24c0 1.66 1.34 3 3 3h24c1.66 0 3-1.34 3-3V6z"/></g><g><path fill="#292f33" d="M32 5c0-2.2-1.8-4-4-4H7C4.8 1 3 2.8 3 5v22c0 2.2 1.8 4 4 4h21c2.2 0 4-1.8 4-4V5z"/></g><g><path fill="#66757f" d="M30 5c0-2.2-1.8-4-4-4H7C4.8 1 3 2.8 3 5v20c0 2.2 1.8 4 4 4h19.34c2.2 0 3.66-1.46 3.66-3.66V5z"/></g><g><path fill="#292f33" d="M7 31c-1.7 0-1.73 1.92-1 2.75.83.94 2.13 1.25 4.44 1.25H12v2H9.28C5.3 37 2 34.5 2 31.62V5c0-2.2 1.8-4 4-4h2v30H7z"/></g></g></g><g><g fill="#ccd6dd" clip-path="url(#b)" transform="matrix(1.25 0 0 -1.25 0 47.5)"><path d="M11 25H7v4h4v-4z"/><path d="M19 25h-4v4h4v-4z"/><path d="M27 25h-4v4h4v-4z"/><path d="M23 21h-4v4h4v-4z"/><path d="M31 21h-4v4h4v-4z"/><path d="M15 21h-4v4h4v-4z"/><path d="M11 17H7v4h4v-4z"/><path d="M19 17h-4v4h4v-4z"/><path d="M27 17h-4v4h4v-4z"/><path d="M23 13h-4v4h4v-4z"/><path d="M31 13h-4v4h4v-4z"/><path d="M15 13h-4v4h4v-4z"/><path d="M11 9H7v4h4V9z"/><path d="M19 9h-4v4h4V9z"/><path d="M27 9h-4v4h4V9z"/><path d="M11 1H7v4h4V1z"/><path d="M19 1h-4v4h4V1z"/><path d="M27 1h-4v4h4V1z"/><path d="M23 5h-4v4h4V5z"/><path d="M31 5h-4v4h4V5z"/><path d="M15 5h-4v4h4V5z"/></g></g></g></svg>