<svg xmlns="http://www.w3.org/2000/svg" viewBox="0 0 47.5 47.5" enable-background="new 0 0 47.5 47.5"><defs><clipPath id="a"><path d="M0 38h38V0H0v38z"/></clipPath></defs><g><g><g clip-path="url(#a)" transform="matrix(1.25 0 0 -1.25 0 47.5)"><g><path fill="#553788" d="M16 6c0-2.2-.8-4-3-4H6C2 2 2 16 6 16h7c2.2 0 3-1.8 3-4V6z"/></g><g><path fill="#9266cc" d="M35 4h-1v10h1c.55 0 1 .45 1 1s-.45 1-1 1H11C7 16 7 2 11 2h24c.55 0 1 .45 1 1s-.45 1-1 1"/></g><g><path fill="#ccd6dd" d="M35.17 4H12c-2 0-2 10 0 10h23.17c1.1 0 1.1-10 0-10"/></g><g><path fill="#99aab5" d="M12.5 12h23.35c-.14 1.18-.36 2-.68 2H12c-1.65 0-1.94-6.8-.86-9.2-.4 2.97.06 7.2 1.36 7.2"/></g><g><path fill="#269" d="M13 29c0-2.2-1.8-4-4-4H5c-4 0-4 11 0 11h4c2.2 0 4-1.8 4-4v-3z"/></g><g><path fill="#55acee" d="M32 27h-1v7h1c.55 0 1 .45 1 1s-.45 1-1 1H8c-4 0-4-11 0-11h24c.55 0 1 .45 1 1s-.45 1-1 1"/></g><g><path fill="#ccd6dd" d="M32.17 27H9c-2 0-2 7 0 7h23.17c1.1 0 1.1-7 0-7"/></g><g><path fill="#99aab5" d="M9 32h23.93c-.12 1.13-.37 2-.76 2H9c-1.2 0-1.67-2.5-1.44-4.5C7.72 30.86 8.2 32 9 32"/></g><g><path fill="#f4900c" d="M21 20c0-2.2-1.8-4-4-4H7c-4 0-4 9 0 9h10c2.2 0 4-1.8 4-4v-1z"/></g><g><path fill="#ffac33" d="M36 18h-1v5h1c.55 0 1 .45 1 1s-.45 1-1 1H16c-4 0-4-9 0-9h20c.55 0 1 .45 1 1s-.45 1-1 1"/></g><g><path fill="#ccd6dd" d="M36.17 18H17c-2 0-2 5 0 5h19.17c1.1 0 1.1-5 0-5"/></g><g><path fill="#99aab5" d="M17 21h19.98c-.06 1.06-.33 2-.8 2H17c-1.27 0-1.73-2.03-1.38-3.5.2.84.65 1.5 1.38 1.5"/></g></g></g></g></svg>