<?xml version="1.0" encoding="UTF-8" standalone="no"?>
<!-- Created with Inkscape (http://www.inkscape.org/) -->

<svg
   xmlns:svg="http://www.w3.org/2000/svg"
   xmlns="http://www.w3.org/2000/svg"
   version="1.1"
   width="47.5"
   height="47.5"
   id="svg2"
   xml:space="preserve"><defs
     id="defs6"><clipPath
       id="clipPath18"><path
         d="M 0,38 38,38 38,0 0,0 0,38 z"
         id="path20" /></clipPath></defs><g
     transform="matrix(1.25,0,0,-1.25,0,47.5)"
     id="g12"><g
       id="g14"><g
         clip-path="url(#clipPath18)"
         id="g16"><g
           transform="translate(32,5)"
           id="g22"><path
             d="m 0,0 c 0,-2.209 -1.791,-4 -4,-4 l -22,0 c -2.209,0 -4,1.791 -4,4 l 0,28 c 0,2.209 1.791,4 4,4 l 22,0 c 2.209,0 4,-1.791 4,-4 L 0,0 z"
             id="path24"
             style="fill:#ccd6dd;fill-opacity:1;fill-rule:nonzero;stroke:none" /></g><g
           transform="translate(28,13)"
           id="g26"><path
             d="m 0,0 c 0,-0.553 -0.447,-1 -1,-1 l -20,0 c -0.552,0 -1,0.447 -1,1 0,0.553 0.448,1 1,1 L -1,1 C -0.447,1 0,0.553 0,0"
             id="path28"
             style="fill:#99aab5;fill-opacity:1;fill-rule:nonzero;stroke:none" /></g><g
           transform="translate(12,9)"
           id="g30"><path
             d="m 0,0 c 0,-0.553 -0.448,-1 -1,-1 l -4,0 c -0.552,0 -1,0.447 -1,1 0,0.553 0.448,1 1,1 l 4,0 C -0.448,1 0,0.553 0,0"
             id="path32"
             style="fill:#99aab5;fill-opacity:1;fill-rule:nonzero;stroke:none" /></g><g
           transform="translate(28,29)"
           id="g34"><path
             d="m 0,0 c 0,-0.552 -0.447,-1 -1,-1 l -20,0 c -0.552,0 -1,0.448 -1,1 0,0.552 0.448,1 1,1 L -1,1 C -0.447,1 0,0.552 0,0"
             id="path36"
             style="fill:#99aab5;fill-opacity:1;fill-rule:nonzero;stroke:none" /></g><g
           transform="translate(28,25)"
           id="g38"><path
             d="m 0,0 c 0,-0.553 -0.447,-1 -1,-1 l -20,0 c -0.552,0 -1,0.447 -1,1 0,0.553 0.448,1 1,1 L -1,1 C -0.447,1 0,0.553 0,0"
             id="path40"
             style="fill:#99aab5;fill-opacity:1;fill-rule:nonzero;stroke:none" /></g><g
           transform="translate(28,21)"
           id="g42"><path
             d="m 0,0 c 0,-0.553 -0.447,-1 -1,-1 l -20,0 c -0.552,0 -1,0.447 -1,1 0,0.553 0.448,1 1,1 L -1,1 C -0.447,1 0,0.553 0,0"
             id="path44"
             style="fill:#99aab5;fill-opacity:1;fill-rule:nonzero;stroke:none" /></g><g
           transform="translate(28,17)"
           id="g46"><path
             d="m 0,0 c 0,-0.553 -0.447,-1 -1,-1 l -20,0 c -0.552,0 -1,0.447 -1,1 0,0.553 0.448,1 1,1 L -1,1 C -0.447,1 0,0.553 0,0"
             id="path48"
             style="fill:#99aab5;fill-opacity:1;fill-rule:nonzero;stroke:none" /></g><g
           transform="translate(32,30.728)"
           id="g50"><path
             d="m 0,0 c -0.827,0.535 -1.837,0.579 -2.521,0.022 l -0.792,-0.645 -1.484,-1.211 -0.099,-0.08 -2.376,-1.938 -11.879,-9.686 c -0.437,-0.357 -0.793,-1.218 -1.173,-2.074 -0.379,-0.849 -0.969,-2.851 -1.443,-4.39 -0.149,-0.25 -1.065,-1.846 -0.551,-2.454 0.519,-0.615 2.326,-0.009 2.568,0.077 1.626,0.173 3.731,0.373 4.648,0.58 0.925,0.211 1.854,0.394 2.291,0.752 0.008,0.005 0.01,0.017 0.018,0.023 l 11.857,9.666 0.792,0.646 L 0,-10.595 0,0 z"
             id="path52"
             style="fill:#66757f;fill-opacity:1;fill-rule:nonzero;stroke:none" /></g><g
           transform="translate(19.1445,14.4736)"
           id="g54"><path
             d="m 0,0 c 0,0 -1.274,1.881 -2.117,2.553 -0.672,0.843 -2.55,2.116 -2.55,2.116 -0.448,0.446 -1.191,0.48 -1.628,0.043 C -6.732,4.274 -7.088,3.346 -7.469,2.421 -7.94,1.275 -8.745,-1.733 -9.237,-3.331 c -0.083,-0.273 0.517,0.45 0.504,0.21 -0.01,-0.187 0.026,-0.394 0.073,-0.581 -0.085,-0.093 -0.145,-0.158 -0.145,-0.158 0.056,-0.019 0.128,-0.042 0.209,-0.068 0.025,-0.082 0.05,-0.154 0.068,-0.21 0,0 0.066,0.061 0.159,0.146 0.187,-0.047 0.394,-0.084 0.581,-0.074 0.24,0.013 -0.483,-0.587 -0.211,-0.503 1.598,0.493 4.608,1.296 5.753,1.767 0.924,0.381 1.854,0.737 2.291,1.174 C 0.482,-1.191 0.449,-0.448 0,0"
             id="path56"
             style="fill:#d99e82;fill-opacity:1;fill-rule:nonzero;stroke:none" /></g><g
           transform="translate(26.3125,32.6489)"
           id="g58"><path
             d="m 0,0 c -0.876,-0.875 -0.876,-2.293 0,-3.168 l 3.167,-3.168 c 0.876,-0.874 2.294,-0.874 3.168,0 l 3.169,3.168 c 0.874,0.875 0.874,2.293 0,3.168 L 6.335,3.167 c -0.874,0.875 -2.292,0.875 -3.168,0 L 0,0 z"
             id="path60"
             style="fill:#ea596e;fill-opacity:1;fill-rule:nonzero;stroke:none" /></g><g
           transform="translate(12.8491,19.1855)"
           id="g62"><path
             d="M 0,0 C 0,0 0.795,-0.795 3.17,-3.17 5.544,-5.544 6.334,-6.336 6.334,-6.336 L 18.215,5.543 11.878,11.879 0,0 z"
             id="path64"
             style="fill:#ffcc4d;fill-opacity:1;fill-rule:nonzero;stroke:none" /></g><g
           transform="translate(12.2979,10.2578)"
           id="g66"><path
             d="m 0,0 c 0,0 -2.06,-1.133 -2.616,-0.576 -0.557,0.557 0.581,2.611 0.581,2.611 0,0 1.952,-0.036 2.035,-2.035"
             id="path68"
             style="fill:#292f33;fill-opacity:1;fill-rule:nonzero;stroke:none" /></g><g
           transform="translate(28.6875,35.0249)"
           id="g70"><path
             d="M 0,0 6.336,-6.336 2.377,-10.296 -3.96,-3.96 0,0 z"
             id="path72"
             style="fill:#ccd6dd;fill-opacity:1;fill-rule:nonzero;stroke:none" /></g><g
           transform="translate(27.1035,33.4409)"
           id="g74"><path
             d="M 0,0 6.336,-6.335 7.129,-5.544 0.793,0.792 0,0 z"
             id="path76"
             style="fill:#99aab5;fill-opacity:1;fill-rule:nonzero;stroke:none" /></g><g
           transform="translate(25.5205,31.8569)"
           id="g78"><path
             d="M 0,0 6.336,-6.336 7.127,-5.544 0.792,0.792 0,0 z"
             id="path80"
             style="fill:#99aab5;fill-opacity:1;fill-rule:nonzero;stroke:none" /></g></g></g></g></svg>