<svg xmlns="http://www.w3.org/2000/svg" viewBox="0 0 47.5 47.5" enable-background="new 0 0 47.5 47.5"><defs><clipPath id="a"><path d="M0 38h38V0H0v38z"/></clipPath></defs><g><g><g clip-path="url(#a)" transform="matrix(1.25 0 0 -1.25 0 47.5)"><g><path fill="#292f33" d="M37 10c0-2.2-1.8-4-4-4H5c-2.2 0-4 1.8-4 4v18c0 2.2 1.8 4 4 4h28c2.2 0 4-1.8 4-4V10z"/></g><g><path fill="#c6e5b3" d="M35 16c0-1.1-.9-2-2-2H5c-1.1 0-2 .9-2 2v12c0 1.1.9 2 2 2h28c1.1 0 2-.9 2-2V16z"/></g><g><path fill="#66757f" d="M15 10c0-1.1-.9-2-2-2H5c-1.1 0-2 .9-2 2s.9 2 2 2h8c1.1 0 2-.9 2-2"/></g><g><path fill="#66757f" d="M29 10c0-1.1-.9-2-2-2h-8c-1.1 0-2 .9-2 2s.9 2 2 2h8c1.1 0 2-.9 2-2"/></g><g><path fill="#dd2e44" d="M31 10c0-1.1.9-2 2-2s2 .9 2 2-.9 2-2 2-2-.9-2-2"/></g><g><path fill="#77b255" d="M7.2 22.8c.13.04.3.07.44.07.72 0 1.24-.58 1.24-1.28 0-1-.55-1.67-1.6-1.67-.42 0-1.3.27-1.3.8 0 .22.18.4.4.4.24 0 .53-.37.93-.37.43 0 .64.4.64.78 0 .36-.2.6-.57.6-.35 0-.4-.2-.7-.2-.24 0-.36.2-.36.3 0 .07.02.13.03.2l.15 1.26c.06.47.17.57.46.57H8.4c.26 0 .43-.16.43-.38 0-.42-.32-.46-.42-.46H7.3l-.1-.63z"/></g><g><path fill="#77b255" d="M10.63 22.8c.15.04.3.07.45.07.73 0 1.24-.58 1.24-1.28 0-1-.55-1.67-1.6-1.67-.4 0-1.3.27-1.3.8 0 .22.18.4.4.4.24 0 .53-.37.93-.37.42 0 .64.4.64.78 0 .36-.22.6-.6.6-.34 0-.4-.2-.7-.2-.23 0-.35.2-.35.3 0 .07 0 .13.02.2l.15 1.26c.07.47.18.57.47.57h1.43c.28 0 .44-.16.44-.38 0-.42-.3-.46-.42-.46h-1.13l-.1-.63z"/></g><g><path fill="#77b255" d="M14.08 22.8c.14.04.3.07.45.07.72 0 1.24-.58 1.24-1.28 0-1-.55-1.67-1.6-1.67-.42 0-1.3.27-1.3.8 0 .22.18.4.4.4.24 0 .52-.37.93-.37.42 0 .63.4.63.78 0 .36-.2.6-.57.6-.35 0-.4-.2-.7-.2-.25 0-.36.2-.36.3 0 .07 0 .13 0 .2l.16 1.26c.07.47.18.57.47.57h1.45c.27 0 .43-.16.43-.38 0-.42-.3-.46-.4-.46h-1.13l-.1-.63z"/></g><g><path fill="#77b255" d="M17.92 22.12c.22-.02.34-.17.34-.4 0-.2-.12-.34-.34-.36h-1.28c-.22.02-.34.17-.34.37 0 .22.12.37.34.4h1.28z"/></g><g><path fill="#77b255" d="M19.85 22.8c.15.04.3.07.45.07.73 0 1.24-.58 1.24-1.28 0-1-.55-1.67-1.58-1.67-.43 0-1.32.27-1.32.8 0 .22.18.4.4.4.24 0 .53-.37.93-.37.42 0 .64.4.64.78 0 .36-.2.6-.57.6-.34 0-.4-.2-.7-.2-.24 0-.36.2-.36.3 0 .07 0 .13.02.2l.14 1.26c.07.47.18.57.47.57h1.45c.28 0 .44-.16.44-.38 0-.42-.32-.46-.43-.46h-1.13l-.1-.63z"/></g><g><path fill="#77b255" d="M23.3 22.8c.14.04.3.07.45.07.72 0 1.24-.58 1.24-1.28 0-1-.56-1.67-1.6-1.67-.43 0-1.32.27-1.32.8 0 .22.2.4.4.4.25 0 .54-.37.94-.37.42 0 .63.4.63.78 0 .36-.2.6-.57.6-.35 0-.4-.2-.7-.2-.24 0-.36.2-.36.3 0 .07 0 .13 0 .2l.16 1.26c.07.47.18.57.47.57h1.45c.27 0 .43-.16.43-.38 0-.42-.3-.46-.4-.46h-1.14l-.1-.63z"/></g><g><path fill="#77b255" d="M26.74 22.8c.15.04.3.07.45.07.72 0 1.23-.58 1.23-1.28 0-1-.55-1.67-1.6-1.67-.4 0-1.3.27-1.3.8 0 .22.18.4.4.4.24 0 .53-.37.93-.37.42 0 .64.4.64.78 0 .36-.2.6-.58.6-.35 0-.4-.2-.7-.2-.24 0-.36.2-.36.3 0 .07 0 .13.02.2l.15 1.26c.07.47.18.57.47.57h1.44c.28 0 .44-.16.44-.38 0-.42-.3-.46-.42-.46h-1.13l-.1-.63z"/></g><g><path fill="#77b255" d="M30.2 22.8c.13.04.3.07.44.07.72 0 1.24-.58 1.24-1.28 0-1-.55-1.67-1.6-1.67-.42 0-1.3.27-1.3.8 0 .22.18.4.4.4.24 0 .52-.37.93-.37.43 0 .64.4.64.78 0 .36-.2.6-.57.6-.35 0-.4-.2-.7-.2-.25 0-.37.2-.37.3 0 .07.02.13.02.2l.15 1.26c.07.47.18.57.47.57h1.45c.26 0 .42-.16.42-.38 0-.42-.3-.46-.42-.46h-1.12l-.1-.63z"/></g></g></g></g></svg>