<svg xmlns="http://www.w3.org/2000/svg" viewBox="0 0 47.5 47.5" enable-background="new 0 0 47.5 47.5"><defs><clipPath id="a"><path d="M0 38h38V0H0v38z"/></clipPath></defs><g><g><g clip-path="url(#a)" transform="matrix(1.25 0 0 -1.25 0 47.5)"><g><path fill="#ffd983" d="M33 37H11c-2.2 0-4-1.8-4-4V9H5C2.8 9 1 7.2 1 5s1.8-4 4-4h24c2.2 0 4 1.8 4 4v24c2.2 0 4 1.8 4 4s-1.8 4-4 4"/></g><g><path fill="#e39f3d" d="M9 27h24v2H11l-2 1v-3z"/></g><g><path fill="#ffe8b6" d="M11 37c-2.2 0-4-1.8-4-4V8.45C6.4 8.79 5.73 9 5 9 2.8 9 1 7.2 1 5s1.8-4 4-4 4 1.8 4 4v24.55c.6-.34 1.27-.55 2-.55 2.2 0 4 1.8 4 4s-1.8 4-4 4"/></g><g><path fill="#c1694f" d="M13 33c0-1.1-.9-2-2-2s-2 .9-2 2 .9 2 2 2 2-.9 2-2"/></g><g><path fill="#c1694f" d="M7 5c0-1.1-.9-2-2-2s-2 .9-2 2 .9 2 2 2 2-.9 2-2"/></g><g><path fill="#c1694f" d="M31 22c0-.55-.45-1-1-1H12c-.55 0-1 .45-1 1s.45 1 1 1h18c.55 0 1-.45 1-1"/></g><g><path fill="#c1694f" d="M31 18c0-.55-.45-1-1-1H12c-.55 0-1 .45-1 1s.45 1 1 1h18c.55 0 1-.45 1-1"/></g><g><path fill="#c1694f" d="M31 14c0-.55-.45-1-1-1H12c-.55 0-1 .45-1 1s.45 1 1 1h18c.55 0 1-.45 1-1"/></g><g><path fill="#c1694f" d="M31 10c0-.55-.45-1-1-1H12c-.55 0-1 .45-1 1s.45 1 1 1h18c.55 0 1-.45 1-1"/></g></g></g></g></svg>