<svg xmlns="http://www.w3.org/2000/svg" viewBox="0 0 47.5 47.5" enable-background="new 0 0 47.5 47.5"><defs><clipPath id="a"><path d="M0 38h38V0H0v38z"/></clipPath></defs><g><g><g clip-path="url(#a)" transform="matrix(1.25 0 0 -1.25 0 47.5)"><g><path fill="#269" d="M33 30H5c-2.2 0-4-1.8-4-4V11c0-2.2 1.8-4 4-4h11.42c.52-.6 1.47-1 2.58-1 1.1 0 2.06.4 2.58 1H33c2.2 0 4 1.8 4 4v15c0 2.2-1.8 4-4 4"/></g><g><path fill="#292f33" d="M21 10c0-1.1-.9-2-2-2s-2 .9-2 2v18c0 1.1.9 2 2 2s2-.9 2-2V10z"/></g><g><path fill="#99aab5" d="M19 11c0-1.1-.9-2-2-2H5c-1.1 0-2 .9-2 2v18c0 1.1.9 2 2 2h12c1.1 0 2-.9 2-2V11z"/></g><g><path fill="#e1e8ed" d="M19 11c-1 2-3.66 2-4 2-2 0-5-2-8-2-1 0-2 .9-2 2v16c0 1.1 1 2 2 2 3.25 0 6 2 8 2 3 0 4-1.9 4-3V11z"/></g><g><path fill="#99aab5" d="M35 11c0-1.1-.9-2-2-2H21c-1.1 0-2 .9-2 2v18c0 1.1.9 2 2 2h12c1.1 0 2-.9 2-2V11z"/></g><g><path fill="#ccd6dd" d="M19 11c1 2 3.66 2 4 2 2 0 5-2 8-2 1 0 2 .9 2 2v16c0 1.1-1 2-2 2-3.26 0-6 2-8 2-3 0-4-1.9-4-3V11z"/></g></g></g></g></svg>