<svg xmlns="http://www.w3.org/2000/svg" viewBox="0 0 47.5 47.5" enable-background="new 0 0 47.5 47.5"><defs><clipPath id="a"><path d="M0 38h38V0H0v38z"/></clipPath></defs><g><g><g clip-path="url(#a)" transform="matrix(1.25 0 0 -1.25 0 47.5)"><g><path fill="#f4900c" d="M37 11c0-2.2-1.8-4-4-4H9c-2.2 0-4 1.8-4 4v19.7c0 2.2 5.8 6.3 8 6.3h18.63c3.1 0 5.37-2.3 5.37-5.38V11z"/></g><g><path fill="#ccd6dd" d="M35 7c0-2.2-1.8-4-4-4H11C8.8 3 7 4.8 7 7v24c0 4.12-.02 4 5 4h19c2.2 0 4-1.8 4-4V7z"/></g><g><path fill="#e1e8ed" d="M33 6c0-1.66-1.34-3-3-3H8C6.34 3 5 4.34 5 6v24c0 1.66 1.34 3 3 3h22c1.66 0 3-1.34 3-3V6z"/></g><g><path fill="#ffac33" d="M33 5c0-2.2-1.8-4-4-4H10C7.8 1 6 2.8 6 5v22c0 2.2 1.8 4 4 4h19c2.2 0 4-1.8 4-4V5z"/></g><g><path fill="#ffcc4d" d="M31 5c0-2.2-1.8-4-4-4H10C7.8 1 6 2.8 6 5v20c0 2.2 1.8 4 4 4h17.34c2.2 0 3.66-1.46 3.66-3.66V5z"/></g><g><path fill="#f4900c" d="M10 31c-1.7 0-1.73 1.92-1 2.75.83.94 2.13 1.25 4.44 1.25H15v2h-2.72C8.3 37 5 34.5 5 31.62V5c0-2.2 1.8-4 4-4h2v30h-1z"/></g><g><path fill="#662113" d="M9.54 4.02c0-.7-.67-1.27-1.5-1.27-.8 0-1.48.57-1.48 1.27 0 .7.67 1.27 1.5 1.27.8 0 1.48-.58 1.48-1.28"/></g><g><path fill="#66757f" d="M7.9 4.73c-.5-.06-.8-.38-1.02-.73-.3-.5-1-1-1.88-1-1.1 0-2 .67-2 1.5S3.9 6 5 6v2c-2.17-.02-3.92-1.58-3.92-3.5C1.08 2.57 2.86 1 5.04 1 6.9 1 8.4 2.04 8.94 3.57c.28.76-.47 1.22-1.05 1.16"/></g><g><path fill="#662113" d="M9.54 12.02c0-.7-.67-1.27-1.5-1.27-.8 0-1.48.57-1.48 1.27 0 .7.67 1.27 1.5 1.27.8 0 1.48-.58 1.48-1.28"/></g><g><path fill="#66757f" d="M7.9 12.73c-.5-.06-.8-.38-1.02-.73-.3-.5-1-1-1.88-1-1.1 0-2 .67-2 1.5S3.9 14 5 14v2c-2.17-.02-3.92-1.58-3.92-3.5 0-1.93 1.78-3.5 3.96-3.5 1.86 0 3.35 1.04 3.9 2.57.28.76-.47 1.22-1.05 1.16"/></g><g><path fill="#662113" d="M9.54 20.02c0-.7-.67-1.27-1.5-1.27-.8 0-1.48.57-1.48 1.27 0 .7.67 1.27 1.5 1.27.8 0 1.48-.58 1.48-1.28"/></g><g><path fill="#66757f" d="M7.9 20.73c-.5-.06-.8-.38-1.02-.73-.3-.5-1-1-1.88-1-1.1 0-2 .67-2 1.5S3.9 22 5 22v2c-2.17-.02-3.92-1.58-3.92-3.5 0-1.93 1.78-3.5 3.96-3.5 1.86 0 3.35 1.04 3.9 2.57.28.76-.47 1.22-1.05 1.16"/></g><g><path fill="#662113" d="M9.54 28.02c0-.7-.67-1.27-1.5-1.27-.8 0-1.48.57-1.48 1.27 0 .7.67 1.27 1.5 1.27.8 0 1.48-.58 1.48-1.28"/></g><g><path fill="#66757f" d="M7.9 28.73c-.5-.06-.8-.38-1.02-.73-.3-.5-1-1-1.88-1-1.1 0-2 .67-2 1.5S3.9 30 5 30v2c-2.17-.02-3.92-1.58-3.92-3.5 0-1.93 1.78-3.5 3.96-3.5 1.86 0 3.35 1.04 3.9 2.57.28.76-.47 1.22-1.05 1.16"/></g></g></g></g></svg>