<?xml version="1.0" encoding="UTF-8" standalone="no"?><svg xmlns:dc="http://purl.org/dc/elements/1.1/" xmlns:cc="http://creativecommons.org/ns#" xmlns:rdf="http://www.w3.org/1999/02/22-rdf-syntax-ns#" xmlns:svg="http://www.w3.org/2000/svg" xmlns="http://www.w3.org/2000/svg" viewBox="0 0 47.5 47.5" style="enable-background:new 0 0 47.5 47.5;" xml:space="preserve" version="1.1" id="svg2"><metadata id="metadata8"><rdf:RDF><cc:Work rdf:about=""><dc:format>image/svg+xml</dc:format><dc:type rdf:resource="http://purl.org/dc/dcmitype/StillImage"/></cc:Work></rdf:RDF></metadata><defs id="defs6"><clipPath id="clipPath16" clipPathUnits="userSpaceOnUse"><path id="path18" d="M 0,38 38,38 38,0 0,0 0,38 Z"/></clipPath><clipPath id="clipPath48" clipPathUnits="userSpaceOnUse"><path id="path50" d="M 8,29 8,1 26,1 c 2.209,0 4,1.791 4,4 l 0,0 0,20.335 C 30,27.544 28.544,29 26.335,29 l 0,0 L 8,29 Z"/></clipPath></defs><g transform="matrix(1.25,0,0,-1.25,0,47.5)" id="g10"><g id="g12"><g clip-path="url(#clipPath16)" id="g14"><g transform="translate(36,11)" id="g20"><path id="path22" style="fill:#292f33;fill-opacity:1;fill-rule:nonzero;stroke:none" d="m 0,0 c 0,-2.209 -1.791,-4 -4,-4 l -26,0 c -2.209,0 -4,1.791 -4,4 l 0,19.687 c 0,2.209 5.791,6.313 8,6.313 l 20.625,0 C -2.281,26 0,23.687 0,20.625 L 0,0 Z"/></g><g transform="translate(34,7)" id="g24"><path id="path26" style="fill:#ccd6dd;fill-opacity:1;fill-rule:nonzero;stroke:none" d="m 0,0 c 0,-2.209 -1.791,-4 -4,-4 l -22,0 c -2.209,0 -4,1.791 -4,4 l 0,24 c 0,4.119 -0.021,4 5,4 l 21,0 c 2.209,0 4,-1.791 4,-4 L 0,0 Z"/></g><g transform="translate(32,6)" id="g28"><path id="path30" style="fill:#e1e8ed;fill-opacity:1;fill-rule:nonzero;stroke:none" d="m 0,0 c 0,-1.657 -1.343,-3 -3,-3 l -24,0 c -1.657,0 -3,1.343 -3,3 l 0,24 c 0,1.657 1.343,3 3,3 l 24,0 c 1.657,0 3,-1.343 3,-3 L 0,0 Z"/></g><g transform="translate(32,5)" id="g32"><path id="path34" style="fill:#292f33;fill-opacity:1;fill-rule:nonzero;stroke:none" d="m 0,0 c 0,-2.209 -1.791,-4 -4,-4 l -21,0 c -2.209,0 -4,1.791 -4,4 l 0,22 c 0,2.209 1.791,4 4,4 l 21,0 c 2.209,0 4,-1.791 4,-4 L 0,0 Z"/></g><g transform="translate(30,5)" id="g36"><path id="path38" style="fill:#66757f;fill-opacity:1;fill-rule:nonzero;stroke:none" d="m 0,0 c 0,-2.209 -1.791,-4 -4,-4 l -19,0 c -2.209,0 -4,1.791 -4,4 l 0,20 c 0,2.209 1.791,4 4,4 l 19.335,0 C -1.456,24 0,22.544 0,20.335 L 0,0 Z"/></g><g transform="translate(7,31)" id="g40"><path id="path42" style="fill:#292f33;fill-opacity:1;fill-rule:nonzero;stroke:none" d="M 0,0 C -1.687,0 -1.731,1.922 -1,2.75 -0.168,3.691 1.125,4 3.438,4 L 5,4 5,6 2.281,6 C -1.687,6 -5,3.5 -5,0.625 L -5,-26 c 0,-2.209 1.791,-4 4,-4 l 2,0 0,30 -1,0 z"/></g></g></g><g id="g44"><g clip-path="url(#clipPath48)" id="g46"><path id="path52" style="fill:#ccd6dd;fill-opacity:1;fill-rule:nonzero;stroke:none" d="m 11,25 -4,0 0,4 4,0 0,-4 z"/><path id="path54" style="fill:#ccd6dd;fill-opacity:1;fill-rule:nonzero;stroke:none" d="m 19,25 -4,0 0,4 4,0 0,-4 z"/><path id="path56" style="fill:#ccd6dd;fill-opacity:1;fill-rule:nonzero;stroke:none" d="m 27,25 -4,0 0,4 4,0 0,-4 z"/><path id="path58" style="fill:#ccd6dd;fill-opacity:1;fill-rule:nonzero;stroke:none" d="m 23,21 -4,0 0,4 4,0 0,-4 z"/><path id="path60" style="fill:#ccd6dd;fill-opacity:1;fill-rule:nonzero;stroke:none" d="m 31,21 -4,0 0,4 4,0 0,-4 z"/><path id="path62" style="fill:#ccd6dd;fill-opacity:1;fill-rule:nonzero;stroke:none" d="m 15,21 -4,0 0,4 4,0 0,-4 z"/><path id="path64" style="fill:#ccd6dd;fill-opacity:1;fill-rule:nonzero;stroke:none" d="m 11,17 -4,0 0,4 4,0 0,-4 z"/><path id="path66" style="fill:#ccd6dd;fill-opacity:1;fill-rule:nonzero;stroke:none" d="m 19,17 -4,0 0,4 4,0 0,-4 z"/><path id="path68" style="fill:#ccd6dd;fill-opacity:1;fill-rule:nonzero;stroke:none" d="m 27,17 -4,0 0,4 4,0 0,-4 z"/><path id="path70" style="fill:#ccd6dd;fill-opacity:1;fill-rule:nonzero;stroke:none" d="m 23,13 -4,0 0,4 4,0 0,-4 z"/><path id="path72" style="fill:#ccd6dd;fill-opacity:1;fill-rule:nonzero;stroke:none" d="m 31,13 -4,0 0,4 4,0 0,-4 z"/><path id="path74" style="fill:#ccd6dd;fill-opacity:1;fill-rule:nonzero;stroke:none" d="m 15,13 -4,0 0,4 4,0 0,-4 z"/><path id="path76" style="fill:#ccd6dd;fill-opacity:1;fill-rule:nonzero;stroke:none" d="m 11,9 -4,0 0,4 4,0 0,-4 z"/><path id="path78" style="fill:#ccd6dd;fill-opacity:1;fill-rule:nonzero;stroke:none" d="m 19,9 -4,0 0,4 4,0 0,-4 z"/><path id="path80" style="fill:#ccd6dd;fill-opacity:1;fill-rule:nonzero;stroke:none" d="m 27,9 -4,0 0,4 4,0 0,-4 z"/><path id="path82" style="fill:#ccd6dd;fill-opacity:1;fill-rule:nonzero;stroke:none" d="M 11,1 7,1 7,5 11,5 11,1 Z"/><path id="path84" style="fill:#ccd6dd;fill-opacity:1;fill-rule:nonzero;stroke:none" d="m 19,1 -4,0 0,4 4,0 0,-4 z"/><path id="path86" style="fill:#ccd6dd;fill-opacity:1;fill-rule:nonzero;stroke:none" d="m 27,1 -4,0 0,4 4,0 0,-4 z"/><path id="path88" style="fill:#ccd6dd;fill-opacity:1;fill-rule:nonzero;stroke:none" d="m 23,5 -4,0 0,4 4,0 0,-4 z"/><path id="path90" style="fill:#ccd6dd;fill-opacity:1;fill-rule:nonzero;stroke:none" d="m 31,5 -4,0 0,4 4,0 0,-4 z"/><path id="path92" style="fill:#ccd6dd;fill-opacity:1;fill-rule:nonzero;stroke:none" d="m 15,5 -4,0 0,4 4,0 0,-4 z"/></g></g></g></svg>
