<?xml version="1.0" encoding="UTF-8" standalone="no"?><svg xmlns:svg="http://www.w3.org/2000/svg" xmlns="http://www.w3.org/2000/svg" version="1.1" viewBox="0 0 47.5 47.5" style="enable-background:new 0 0 47.5 47.5;" id="svg2" xml:space="preserve"><defs id="defs6"><clipPath id="clipPath18"><path d="M 0,38 38,38 38,0 0,0 0,38 z" id="path20"/></clipPath></defs><g transform="matrix(1.25,0,0,-1.25,0,47.5)" id="g12"><g id="g14"><g clip-path="url(#clipPath18)" id="g16"><g transform="translate(17.9673,9)" id="g22"><path d="m 0,0 -6.967,0 c -1.1,0 -2,0.9 -2,2 l 0,6.968 c 0,1.099 0.636,1.363 1.414,0.586 L 0.586,1.414 C 1.363,0.637 1.099,0 0,0 m 18.139,-5.172 -32.278,32.278 c -1.555,1.556 -2.828,1.029 -2.828,-1.171 l 0,-29.935 c 0,-2.2 1.8,-4 4,-4 l 29.934,0 c 2.2,0 2.728,1.272 1.172,2.828" id="path24" style="fill:#ffcc4d;fill-opacity:1;fill-rule:nonzero;stroke:none"/></g></g></g></g></svg>
