<?xml version="1.0" encoding="UTF-8" standalone="no"?><svg xmlns:dc="http://purl.org/dc/elements/1.1/" xmlns:cc="http://creativecommons.org/ns#" xmlns:rdf="http://www.w3.org/1999/02/22-rdf-syntax-ns#" xmlns:svg="http://www.w3.org/2000/svg" xmlns="http://www.w3.org/2000/svg" viewBox="0 0 47.5 47.5" style="enable-background:new 0 0 47.5 47.5;" xml:space="preserve" version="1.1" id="svg2"><metadata id="metadata8"><rdf:RDF><cc:Work rdf:about=""><dc:format>image/svg+xml</dc:format><dc:type rdf:resource="http://purl.org/dc/dcmitype/StillImage"/></cc:Work></rdf:RDF></metadata><defs id="defs6"><clipPath id="clipPath16" clipPathUnits="userSpaceOnUse"><path id="path18" d="M 0,38 38,38 38,0 0,0 0,38 Z"/></clipPath></defs><g transform="matrix(1.25,0,0,-1.25,0,47.5)" id="g10"><g id="g12"><g clip-path="url(#clipPath16)" id="g14"><g transform="translate(37,10)" id="g20"><path id="path22" style="fill:#292f33;fill-opacity:1;fill-rule:nonzero;stroke:none" d="m 0,0 c 0,-2.209 -1.791,-4 -4,-4 l -28,0 c -2.209,0 -4,1.791 -4,4 l 0,18 c 0,2.209 1.791,4 4,4 l 28,0 c 2.209,0 4,-1.791 4,-4 L 0,0 Z"/></g><g transform="translate(35,16)" id="g24"><path id="path26" style="fill:#c6e5b3;fill-opacity:1;fill-rule:nonzero;stroke:none" d="m 0,0 c 0,-1.104 -0.896,-2 -2,-2 l -28,0 c -1.104,0 -2,0.896 -2,2 l 0,12 c 0,1.104 0.896,2 2,2 l 28,0 c 1.104,0 2,-0.896 2,-2 L 0,0 Z"/></g><g transform="translate(15,10)" id="g28"><path id="path30" style="fill:#66757f;fill-opacity:1;fill-rule:nonzero;stroke:none" d="m 0,0 c 0,-1.104 -0.896,-2 -2,-2 l -8,0 c -1.104,0 -2,0.896 -2,2 0,1.104 0.896,2 2,2 l 8,0 C -0.896,2 0,1.104 0,0"/></g><g transform="translate(29,10)" id="g32"><path id="path34" style="fill:#66757f;fill-opacity:1;fill-rule:nonzero;stroke:none" d="m 0,0 c 0,-1.104 -0.896,-2 -2,-2 l -8,0 c -1.104,0 -2,0.896 -2,2 0,1.104 0.896,2 2,2 l 8,0 C -0.896,2 0,1.104 0,0"/></g><g transform="translate(31,10)" id="g36"><path id="path38" style="fill:#dd2e44;fill-opacity:1;fill-rule:nonzero;stroke:none" d="M 0,0 C 0,-1.104 0.896,-2 2,-2 3.104,-2 4,-1.104 4,0 4,1.104 3.104,2 2,2 0.896,2 0,1.104 0,0"/></g><g transform="translate(7.1885,22.8066)" id="g40"><path id="path42" style="fill:#77b255;fill-opacity:1;fill-rule:nonzero;stroke:none" d="m 0,0 c 0.144,0.03 0.3,0.06 0.45,0.06 0.725,0 1.241,-0.576 1.241,-1.277 0,-1.002 -0.551,-1.661 -1.589,-1.661 -0.426,0 -1.319,0.275 -1.319,0.803 0,0.222 0.186,0.408 0.407,0.408 0.24,0 0.528,-0.384 0.93,-0.384 0.42,0 0.636,0.408 0.636,0.785 0,0.36 -0.204,0.606 -0.576,0.606 -0.348,0 -0.402,-0.198 -0.708,-0.198 -0.234,0 -0.353,0.18 -0.353,0.282 0,0.078 0.011,0.138 0.018,0.204 l 0.15,1.266 c 0.066,0.467 0.179,0.569 0.467,0.569 l 1.445,0 c 0.276,0 0.438,-0.162 0.438,-0.378 0,-0.414 -0.312,-0.45 -0.42,-0.45 L 0.09,0.635 0,0 Z"/></g><g transform="translate(10.6323,22.8066)" id="g44"><path id="path46" style="fill:#77b255;fill-opacity:1;fill-rule:nonzero;stroke:none" d="m 0,0 c 0.144,0.03 0.3,0.06 0.45,0.06 0.725,0 1.241,-0.576 1.241,-1.277 0,-1.002 -0.551,-1.661 -1.589,-1.661 -0.426,0 -1.319,0.275 -1.319,0.803 0,0.222 0.186,0.408 0.407,0.408 0.24,0 0.528,-0.384 0.93,-0.384 0.42,0 0.636,0.408 0.636,0.785 0,0.36 -0.204,0.606 -0.576,0.606 -0.348,0 -0.402,-0.198 -0.708,-0.198 -0.234,0 -0.353,0.18 -0.353,0.282 0,0.078 0.011,0.138 0.018,0.204 l 0.15,1.266 c 0.066,0.467 0.179,0.569 0.467,0.569 l 1.445,0 c 0.276,0 0.438,-0.162 0.438,-0.378 0,-0.414 -0.312,-0.45 -0.42,-0.45 L 0.09,0.635 0,0 Z"/></g><g transform="translate(14.0762,22.8066)" id="g48"><path id="path50" style="fill:#77b255;fill-opacity:1;fill-rule:nonzero;stroke:none" d="m 0,0 c 0.144,0.03 0.3,0.06 0.45,0.06 0.725,0 1.241,-0.576 1.241,-1.277 0,-1.002 -0.551,-1.661 -1.589,-1.661 -0.426,0 -1.319,0.275 -1.319,0.803 0,0.222 0.186,0.408 0.407,0.408 0.24,0 0.528,-0.384 0.93,-0.384 0.42,0 0.636,0.408 0.636,0.785 0,0.36 -0.204,0.606 -0.576,0.606 -0.348,0 -0.402,-0.198 -0.708,-0.198 -0.234,0 -0.353,0.18 -0.353,0.282 0,0.078 0.011,0.138 0.018,0.204 l 0.15,1.266 c 0.066,0.467 0.179,0.569 0.467,0.569 l 1.445,0 c 0.276,0 0.438,-0.162 0.438,-0.378 0,-0.414 -0.312,-0.45 -0.42,-0.45 L 0.09,0.635 0,0 Z"/></g><g transform="translate(17.916,22.1167)" id="g52"><path id="path54" style="fill:#77b255;fill-opacity:1;fill-rule:nonzero;stroke:none" d="M 0,0 C 0.222,-0.018 0.342,-0.168 0.342,-0.384 0.342,-0.587 0.222,-0.737 0,-0.755 l -1.277,0 c -0.223,0.018 -0.342,0.168 -0.342,0.371 0,0.216 0.119,0.366 0.342,0.384 L 0,0 Z"/></g><g transform="translate(19.8545,22.8066)" id="g56"><path id="path58" style="fill:#77b255;fill-opacity:1;fill-rule:nonzero;stroke:none" d="m 0,0 c 0.144,0.03 0.3,0.06 0.449,0.06 0.726,0 1.241,-0.576 1.241,-1.277 0,-1.002 -0.551,-1.661 -1.588,-1.661 -0.426,0 -1.32,0.275 -1.32,0.803 0,0.222 0.186,0.408 0.408,0.408 0.24,0 0.528,-0.384 0.929,-0.384 0.42,0 0.636,0.408 0.636,0.785 0,0.36 -0.204,0.606 -0.575,0.606 -0.348,0 -0.403,-0.198 -0.708,-0.198 -0.234,0 -0.354,0.18 -0.354,0.282 0,0.078 0.012,0.138 0.018,0.204 l 0.15,1.266 c 0.066,0.467 0.18,0.569 0.468,0.569 l 1.445,0 c 0.276,0 0.438,-0.162 0.438,-0.378 0,-0.414 -0.312,-0.45 -0.42,-0.45 L 0.09,0.635 0,0 Z"/></g><g transform="translate(23.2979,22.8066)" id="g60"><path id="path62" style="fill:#77b255;fill-opacity:1;fill-rule:nonzero;stroke:none" d="m 0,0 c 0.144,0.03 0.3,0.06 0.45,0.06 0.726,0 1.241,-0.576 1.241,-1.277 0,-1.002 -0.551,-1.661 -1.589,-1.661 -0.426,0 -1.32,0.275 -1.32,0.803 0,0.222 0.187,0.408 0.408,0.408 0.241,0 0.528,-0.384 0.93,-0.384 0.42,0 0.636,0.408 0.636,0.785 0,0.36 -0.204,0.606 -0.576,0.606 -0.348,0 -0.402,-0.198 -0.707,-0.198 -0.235,0 -0.355,0.18 -0.355,0.282 0,0.078 0.013,0.138 0.019,0.204 l 0.149,1.266 c 0.067,0.467 0.181,0.569 0.468,0.569 l 1.445,0 c 0.277,0 0.438,-0.162 0.438,-0.378 0,-0.414 -0.312,-0.45 -0.419,-0.45 L 0.09,0.635 0,0 Z"/></g><g transform="translate(26.7422,22.8066)" id="g64"><path id="path66" style="fill:#77b255;fill-opacity:1;fill-rule:nonzero;stroke:none" d="m 0,0 c 0.144,0.03 0.3,0.06 0.45,0.06 0.726,0 1.241,-0.576 1.241,-1.277 0,-1.002 -0.551,-1.661 -1.589,-1.661 -0.426,0 -1.319,0.275 -1.319,0.803 0,0.222 0.186,0.408 0.407,0.408 0.241,0 0.528,-0.384 0.93,-0.384 0.42,0 0.636,0.408 0.636,0.785 0,0.36 -0.204,0.606 -0.576,0.606 -0.348,0 -0.402,-0.198 -0.707,-0.198 -0.235,0 -0.355,0.18 -0.355,0.282 0,0.078 0.013,0.138 0.019,0.204 l 0.149,1.266 c 0.067,0.467 0.181,0.569 0.468,0.569 l 1.445,0 c 0.277,0 0.438,-0.162 0.438,-0.378 0,-0.414 -0.312,-0.45 -0.419,-0.45 L 0.09,0.635 0,0 Z"/></g><g transform="translate(30.1865,22.8066)" id="g68"><path id="path70" style="fill:#77b255;fill-opacity:1;fill-rule:nonzero;stroke:none" d="m 0,0 c 0.144,0.03 0.3,0.06 0.45,0.06 0.726,0 1.241,-0.576 1.241,-1.277 0,-1.002 -0.551,-1.661 -1.589,-1.661 -0.426,0 -1.32,0.275 -1.32,0.803 0,0.222 0.187,0.408 0.408,0.408 0.241,0 0.528,-0.384 0.93,-0.384 0.42,0 0.636,0.408 0.636,0.785 0,0.36 -0.204,0.606 -0.576,0.606 -0.348,0 -0.402,-0.198 -0.707,-0.198 -0.235,0 -0.355,0.18 -0.355,0.282 0,0.078 0.013,0.138 0.019,0.204 l 0.149,1.266 c 0.067,0.467 0.181,0.569 0.468,0.569 l 1.445,0 c 0.277,0 0.438,-0.162 0.438,-0.378 0,-0.414 -0.312,-0.45 -0.419,-0.45 L 0.09,0.635 0,0 Z"/></g></g></g></g></svg>
