<?xml version="1.0" encoding="UTF-8" standalone="no"?>
<!-- Created with Inkscape (http://www.inkscape.org/) -->

<svg
   xmlns:svg="http://www.w3.org/2000/svg"
   xmlns="http://www.w3.org/2000/svg"
   version="1.1"
   width="47.5"
   height="47.5"
   id="svg2"
   xml:space="preserve"><defs
     id="defs6"><clipPath
       id="clipPath18"><path
         d="M 0,38 38,38 38,0 0,0 0,38 z"
         id="path20" /></clipPath></defs><g
     transform="matrix(1.25,0,0,-1.25,0,47.5)"
     id="g12"><g
       id="g14"><g
         clip-path="url(#clipPath18)"
         id="g16"><g
           transform="translate(23,4)"
           id="g22"><path
             d="m 0,0 c 0,-2.209 -8,-2.209 -8,0 l 0,10 c 0,2.209 1.791,4 4,4 2.209,0 4,-1.791 4,-4 L 0,0 z"
             id="path24"
             style="fill:#c1694f;fill-opacity:1;fill-rule:nonzero;stroke:none" /></g><g
           transform="translate(11,34)"
           id="g26"><path
             d="m 0,0 c -4.418,0 -8,-3.582 -8,-8 l 0,-12 16,0 0,12 C 8,-3.582 4.418,0 0,0"
             id="path28"
             style="fill:#292f33;fill-opacity:1;fill-rule:nonzero;stroke:none" /></g><g
           transform="translate(21,18.2393)"
           id="g30"><path
             d="m 0,0 c 0,-1.236 -1.065,-2.239 -2.293,-2.239 l -15.414,0 C -18.936,-2.239 -20,-1.236 -20,0 l 0,10.521 c 0,1.237 1.064,2.24 2.293,2.24 l 15.414,0 C -1.065,12.761 0,11.758 0,10.521 L 0,0 z"
             id="path32"
             style="fill:#ccd6dd;fill-opacity:1;fill-rule:nonzero;stroke:none" /></g><g
           transform="translate(7.6367,24.2041)"
           id="g34"><path
             d="m 0,0 -6.538,-6.572 c 0.113,-0.376 0.316,-0.716 0.596,-0.984 l 6.729,6.764 C 1.003,-0.573 1.003,-0.219 0.787,0 0.568,0.219 0.217,0.219 0,0"
             id="path36"
             style="fill:#99aab5;fill-opacity:1;fill-rule:nonzero;stroke:none" /></g><g
           transform="translate(14.3638,24.2041)"
           id="g38"><path
             d="m 0,0 c -0.218,0.219 -0.569,0.219 -0.787,0 -0.217,-0.219 -0.217,-0.573 0,-0.792 l 6.728,-6.764 c 0.28,0.268 0.483,0.608 0.596,0.984 L 0,0 z"
             id="path40"
             style="fill:#99aab5;fill-opacity:1;fill-rule:nonzero;stroke:none" /></g><g
           transform="translate(18.707,31)"
           id="g42"><path
             d="m 0,0 -15.414,0 c -1.229,0 -2.293,-1.003 -2.293,-2.239 l 0,-1.419 8.073,-8.114 c 1.052,-1.061 2.768,-1.061 3.822,0 l 8.105,8.126 0,1.407 C 2.293,-1.003 1.228,0 0,0"
             id="path44"
             style="fill:#99aab5;fill-opacity:1;fill-rule:nonzero;stroke:none" /></g><g
           transform="translate(18.707,31)"
           id="g46"><path
             d="m 0,0 -15.414,0 c -1.166,0 -2.172,-0.906 -2.273,-2.055 l 8.407,-8.396 c 0.869,-0.874 2.277,-0.84 3.145,0.035 l 8.41,8.346 C 2.182,-0.914 1.17,0 0,0"
             id="path48"
             style="fill:#e1e8ed;fill-opacity:1;fill-rule:nonzero;stroke:none" /></g><g
           transform="translate(27,34)"
           id="g50"><path
             d="m 0,0 -16,0 c 4.418,0 8,-3.582 8,-8 l 0,-12 8,0 8,0 0,12 C 8,-3.582 4.418,0 0,0"
             id="path52"
             style="fill:#99aab5;fill-opacity:1;fill-rule:nonzero;stroke:none" /></g><g
           transform="translate(27,36)"
           id="g54"><path
             d="m 0,0 -4,0 c -1.104,0 -2,-0.896 -2,-2 l 0,-2 0,-10 c 0,-1.104 0.896,-2 2,-2 1.104,0 2,0.896 2,2 l 0,8 2,0 c 1.104,0 2,0.896 2,2 l 0,2 C 2,-0.896 1.104,0 0,0"
             id="path56"
             style="fill:#dd2e44;fill-opacity:1;fill-rule:nonzero;stroke:none" /></g></g></g></g></svg>