<?xml version="1.0" encoding="UTF-8" standalone="no"?>
<!-- Created with Inkscape (http://www.inkscape.org/) -->

<svg
   xmlns:svg="http://www.w3.org/2000/svg"
   xmlns="http://www.w3.org/2000/svg"
   version="1.1"
   width="47.5"
   height="47.5"
   id="svg2"
   xml:space="preserve"><defs
     id="defs6"><clipPath
       id="clipPath18"><path
         d="M 0,38 38,38 38,0 0,0 0,38 z"
         id="path20" /></clipPath></defs><g
     transform="matrix(1.25,0,0,-1.25,0,47.5)"
     id="g12"><g
       id="g14"><g
         clip-path="url(#clipPath18)"
         id="g16"><g
           transform="translate(23,4)"
           id="g22"><path
             d="m 0,0 c 0,-2.209 -8,-2.209 -8,0 l 0,10 c 0,2.209 1.791,4 4,4 2.209,0 4,-1.791 4,-4 L 0,0 z"
             id="path24"
             style="fill:#c1694f;fill-opacity:1;fill-rule:nonzero;stroke:none" /></g><g
           transform="translate(27,34)"
           id="g26"><path
             d="m 0,0 -16,0 0,-20 8,0 8,0 8,0 0,12 C 8,-3.582 4.418,0 0,0"
             id="path28"
             style="fill:#99aab5;fill-opacity:1;fill-rule:nonzero;stroke:none" /></g><g
           transform="translate(11,34)"
           id="g30"><path
             d="m 0,0 c -4.418,0 -8,-3.582 -8,-8 l 0,-12 16,0 0,12 C 8,-3.582 4.418,0 0,0"
             id="path32"
             style="fill:#292f33;fill-opacity:1;fill-rule:nonzero;stroke:none" /></g><g
           transform="translate(10,34)"
           id="g34"><path
             d="m 0,0 c -3.866,0 -7,-3.582 -7,-8 l 0,-12 14,0 0,12 C 7,-3.582 3.866,0 0,0"
             id="path36"
             style="fill:#99aab5;fill-opacity:1;fill-rule:nonzero;stroke:none" /></g><g
           transform="translate(27,36)"
           id="g38"><path
             d="m 0,0 -4,0 c -1.104,0 -2,-0.896 -2,-2 l 0,-2 0,-10 c 0,-1.104 0.896,-2 2,-2 1.104,0 2,0.896 2,2 l 0,8 2,0 c 1.104,0 2,0.896 2,2 l 0,2 C 2,-0.896 1.104,0 0,0"
             id="path40"
             style="fill:#dd2e44;fill-opacity:1;fill-rule:nonzero;stroke:none" /></g></g></g></g></svg>