<svg xmlns="http://www.w3.org/2000/svg" viewBox="0 0 47.5 47.5" enable-background="new 0 0 47.5 47.5"><defs><clipPath id="a"><path d="M0 38h38V0H0v38z"/></clipPath></defs><g><g><g clip-path="url(#a)" transform="matrix(1.25 0 0 -1.25 0 47.5)"><g><path fill="#292f33" d="M9 20H1V5c0-2.2 1.8-4 4-4s4 1.8 4 4c0-2.2 1.8-4 4-4h20c2.2 0 4 1.8 4 4v15H9z"/></g><g><path fill="#66757f" d="M33 27H13c-2.2 0-4-1.8-4-4 0 2.2-1.8 4-4 4s-4-1.8-4-4V8c0-2.2 1.8-4 4-4s4 1.8 4 4c0-2.2 1.8-4 4-4h20c2.2 0 4 1.8 4 4v15c0 2.2-1.8 4-4 4"/></g><g><path fill="#c6e5b3" d="M22 21c0-1.1-.9-2-2-2h-7c-1.1 0-2 .9-2 2v2c0 1.1.9 2 2 2h7c1.1 0 2-.9 2-2v-2z"/></g><g><path fill="#ccd6dd" d="M14 15.5c0-.83-.67-1.5-1.5-1.5s-1.5.67-1.5 1.5.67 1.5 1.5 1.5 1.5-.67 1.5-1.5"/></g><g><path fill="#ccd6dd" d="M18 15.5c0-.83-.67-1.5-1.5-1.5s-1.5.67-1.5 1.5.67 1.5 1.5 1.5 1.5-.67 1.5-1.5"/></g><g><path fill="#ccd6dd" d="M22 15.5c0-.83-.67-1.5-1.5-1.5s-1.5.67-1.5 1.5.67 1.5 1.5 1.5 1.5-.67 1.5-1.5"/></g><g><path fill="#ccd6dd" d="M14 11.5c0-.83-.67-1.5-1.5-1.5s-1.5.67-1.5 1.5.67 1.5 1.5 1.5 1.5-.67 1.5-1.5"/></g><g><path fill="#ccd6dd" d="M18 11.5c0-.83-.67-1.5-1.5-1.5s-1.5.67-1.5 1.5.67 1.5 1.5 1.5 1.5-.67 1.5-1.5"/></g><g><path fill="#ccd6dd" d="M22 11.5c0-.83-.67-1.5-1.5-1.5s-1.5.67-1.5 1.5.67 1.5 1.5 1.5 1.5-.67 1.5-1.5"/></g><g><path fill="#ccd6dd" d="M14 7.5c0-.83-.67-1.5-1.5-1.5S11 6.67 11 7.5 11.67 9 12.5 9 14 8.33 14 7.5"/></g><g><path fill="#ccd6dd" d="M18 7.5c0-.83-.67-1.5-1.5-1.5S15 6.67 15 7.5 15.67 9 16.5 9 18 8.33 18 7.5"/></g><g><path fill="#ccd6dd" d="M22 7.5c0-.83-.67-1.5-1.5-1.5S19 6.67 19 7.5 19.67 9 20.5 9 22 8.33 22 7.5"/></g><g><path fill="#99aab5" d="M35 16c0-.55-.45-1-1-1h-9c-.55 0-1 .45-1 1s.45 1 1 1h9c.55 0 1-.45 1-1"/></g><g><path fill="#99aab5" d="M35 13c0-.55-.45-1-1-1h-9c-.55 0-1 .45-1 1s.45 1 1 1h9c.55 0 1-.45 1-1"/></g><g><path fill="#99aab5" d="M35 10c0-.55-.45-1-1-1h-9c-.55 0-1 .45-1 1s.45 1 1 1h9c.55 0 1-.45 1-1"/></g><g><path fill="#99aab5" d="M35 7c0-.55-.45-1-1-1h-9c-.55 0-1 .45-1 1s.45 1 1 1h9c.55 0 1-.45 1-1"/></g><g><path fill="#ccd6dd" d="M28 22c0-1.1-.9-2-2-2s-2 .9-2 2 .9 2 2 2 2-.9 2-2"/></g><g><path fill="#ccd6dd" d="M35 22c0-1.1-.9-2-2-2s-2 .9-2 2 .9 2 2 2 2-.9 2-2"/></g><g><path fill="#ccd6dd" d="M33 27H13v6c0 2.2 1.8 4 4 4h12c2.2 0 4-1.8 4-4v-6z"/></g><g><path fill="#99aab5" d="M31 33c0-.55-.45-1-1-1H16c-.55 0-1 .45-1 1s.45 1 1 1h14c.55 0 1-.45 1-1"/></g><g><path fill="#99aab5" d="M23 30c0-.55-.45-1-1-1h-6c-.55 0-1 .45-1 1s.45 1 1 1h6c.55 0 1-.45 1-1"/></g></g></g></g></svg>