<svg xmlns="http://www.w3.org/2000/svg" viewBox="0 0 47.5 47.5" enable-background="new 0 0 47.5 47.5"><defs><clipPath id="a"><path d="M0 38h38V0H0v38z"/></clipPath></defs><g><g><g clip-path="url(#a)" transform="matrix(1.25 0 0 -1.25 0 47.5)"><g><path fill="#662113" d="M5 26V13.62c0-2.04 1.1-2.48 1.1-2.48s9.75-7.67 11.57-9.1C19.5.6 19 3.62 19 3.62V15L5 26z"/></g><g><path fill="#c1694f" d="M33 26V13.62c0-2.04-1.06-2.48-1.06-2.48s-9.77-7.67-11.6-9.1C18.55.6 19 3.62 19 3.62V15l14 11z"/></g><g><path fill="#d99e82" d="M20.3 36.5c-.76.6-2 .6-2.75 0L5.57 26.97c-.76-.6-.76-1.6 0-2.2L17.6 15.1c.74-.6 1.98-.6 2.73 0l12.1 9.74c.76.6.76 1.6 0 2.2L20.3 36.52z"/></g><g><path fill="#d99e82" d="M19 1.25c-.55 0-1 .48-1 1.08v12.93c0 .6.45 1.07 1 1.07s1-.48 1-1.07V2.32c0-.6-.45-1.08-1-1.08"/></g><g><path fill="#99aab5" d="M29 18.16c0-1.1.1-1.64-1-2.44l-2.47-1.88c-1.1-.8-1.53-.1-1.53 1v2.96c0 .2-.03.4-.28.6-2.58 2.13-12.6 10.08-14.4 11.55l4.62 3.68c1.26-.93 10.75-8.25 14.72-11.38.2-.16.34-.33.34-.52v-3.57z"/></g><g><path fill="#ccd6dd" d="M28.66 22.25C24.7 25.38 15.2 32.7 13.93 33.63l-1.72-1.37-2.9-2.3c1.83-1.48 11.84-9.43 14.42-11.55.15-.12.22-.24.25-.37L28.9 22c-.06.1-.14.17-.24.25"/></g><g><path fill="#ccd6dd" d="M29 18.16v3.57c0 .2-.15.36-.34.52C24.7 25.38 15.2 32.7 13.93 33.63l-2.07-1.65c3.4-2.67 12.48-9.68 14.86-11.57.26-.2.28-.4.28-.6v-4.84l1 .76c1.1.8 1 1.34 1 2.44"/></g><g><path fill="#e1e8ed" d="M28.66 22.25C24.7 25.38 15.2 32.7 13.93 33.63l-2.07-1.65c3.4-2.67 12.48-9.68 14.86-11.57.04-.02.06-.05.1-.08L28.9 22c-.06.1-.14.17-.24.25"/></g></g></g></g></svg>