<?xml version="1.0" encoding="UTF-8" standalone="no"?><svg xmlns:svg="http://www.w3.org/2000/svg" xmlns="http://www.w3.org/2000/svg" version="1.1" viewBox="0 0 47.5 47.5" style="enable-background:new 0 0 47.5 47.5;" id="svg2" xml:space="preserve"><defs id="defs6"><clipPath id="clipPath18"><path d="M 0,38 38,38 38,0 0,0 0,38 z" id="path20"/></clipPath></defs><g transform="matrix(1.25,0,0,-1.25,0,47.5)" id="g12"><g id="g14"><g clip-path="url(#clipPath18)" id="g16"><g transform="translate(5,26)" id="g22"><path d="m 0,0 0,-12.375 c 0,-2.042 1.093,-2.484 1.093,-2.484 0,0 9.752,-7.667 11.574,-9.099 1.821,-1.432 1.333,1.583 1.333,1.583 L 14,-11 0,0 z" id="path24" style="fill:#662113;fill-opacity:1;fill-rule:nonzero;stroke:none"/></g><g transform="translate(33,26)" id="g26"><path d="m 0,0 0,-12.375 c 0,-2.042 -1.063,-2.484 -1.063,-2.484 0,0 -9.767,-7.667 -11.588,-9.099 -1.823,-1.432 -1.349,1.583 -1.349,1.583 L -14,-11 0,0 z" id="path28" style="fill:#c1694f;fill-opacity:1;fill-rule:nonzero;stroke:none"/></g><g transform="translate(20.2891,36.5)" id="g30"><path d="m 0,0 c -0.753,0.61 -1.988,0.61 -2.742,0 l -11.982,-9.529 c -0.754,-0.61 -0.754,-1.607 0,-2.216 l 12.023,-9.647 c 0.755,-0.609 1.989,-0.609 2.743,0 l 12.104,9.731 c 0.753,0.609 0.753,1.606 0,2.216 L 0,0 z" id="path32" style="fill:#d99e82;fill-opacity:1;fill-rule:nonzero;stroke:none"/></g><g transform="translate(19,1.25)" id="g34"><path d="m 0,0 c -0.552,0 -1,0.482 -1,1.078 l 0,12.927 c 0,0.596 0.448,1.078 1,1.078 0.553,0 1,-0.482 1,-1.078 L 1,1.078 C 1,0.482 0.553,0 0,0" id="path36" style="fill:#d99e82;fill-opacity:1;fill-rule:nonzero;stroke:none"/></g><g transform="translate(29,18.1641)" id="g38"><path d="M 0,0 C 0,-1.104 0.104,-1.646 -1,-2.442 L -3.469,-4.32 C -4.573,-5.117 -5,-4.433 -5,-3.328 l 0,2.961 c 0,0.193 -0.026,0.4 -0.278,0.608 -2.578,2.125 -12.588,10.076 -14.412,11.544 l 4.625,3.678 C -13.799,14.537 -4.312,7.211 -0.344,4.086 -0.146,3.93 0,3.758 0,3.57 L 0,0 z" id="path40" style="fill:#99aab5;fill-opacity:1;fill-rule:nonzero;stroke:none"/></g><g transform="translate(28.6563,22.25)" id="g42"><path d="m 0,0 c -3.969,3.125 -13.456,10.451 -14.722,11.377 l -1.72,-1.368 -2.905,-2.31 c 1.825,-1.468 11.834,-9.419 14.412,-11.544 0.152,-0.125 0.217,-0.25 0.248,-0.371 L 0.247,-0.25 C 0.187,-0.163 0.101,-0.079 0,0" id="path44" style="fill:#ccd6dd;fill-opacity:1;fill-rule:nonzero;stroke:none"/></g><g transform="translate(29,18.1641)" id="g46"><path d="m 0,0 0,3.57 c 0,0.188 -0.146,0.36 -0.344,0.516 -3.968,3.125 -13.455,10.451 -14.721,11.377 l -2.074,-1.649 C -13.746,11.145 -4.657,4.133 -2.278,2.241 -2.022,2.037 -2,1.826 -2,1.633 l 0,-4.836 1,0.761 C 0.104,-1.646 0,-1.104 0,0" id="path48" style="fill:#ccd6dd;fill-opacity:1;fill-rule:nonzero;stroke:none"/></g><g transform="translate(28.6563,22.25)" id="g50"><path d="m 0,0 c -3.969,3.125 -13.456,10.451 -14.722,11.377 l -2.073,-1.649 c 3.393,-2.669 12.482,-9.681 14.86,-11.573 0.038,-0.03 0.06,-0.059 0.087,-0.089 L 0.247,-0.25 C 0.187,-0.163 0.101,-0.079 0,0" id="path52" style="fill:#e1e8ed;fill-opacity:1;fill-rule:nonzero;stroke:none"/></g></g></g></g></svg>
