<?xml version="1.0" encoding="UTF-8" standalone="no"?><svg xmlns:svg="http://www.w3.org/2000/svg" xmlns="http://www.w3.org/2000/svg" version="1.1" viewBox="0 0 47.5 47.5" style="enable-background:new 0 0 47.5 47.5;" id="svg2" xml:space="preserve"><defs id="defs6"><clipPath id="clipPath18"><path d="M 0,38 38,38 38,0 0,0 0,38 z" id="path20"/></clipPath></defs><g transform="matrix(1.25,0,0,-1.25,0,47.5)" id="g12"><g id="g14"><g clip-path="url(#clipPath18)" id="g16"><g transform="translate(11.7456,15.4795)" id="g22"><path d="M 0,0 C 1.668,0 7.43,-4.345 7.427,-9.701 7.43,-15.06 -7.426,-15.06 -7.427,-9.7 -7.426,-4.345 -1.668,0 0,0" id="path24" style="fill:#99aab5;fill-opacity:1;fill-rule:nonzero;stroke:none"/></g><g transform="translate(9.5405,11.8184)" id="g26"><path d="M 0,0 C 8.839,-8.84 17.337,-5.163 20.033,-2.469 22.728,0.228 19.875,7.447 13.662,13.66 7.447,19.874 0.227,22.727 -2.468,20.032 -5.164,17.337 -8.84,8.838 0,0" id="path28" style="fill:#ccd6dd;fill-opacity:1;fill-rule:nonzero;stroke:none"/></g><g transform="translate(13.4434,15.7217)" id="g30"><path d="M 0,0 C 6.214,-6.214 13.435,-9.066 16.13,-6.372 18.825,-3.676 15.972,3.544 9.759,9.757 3.544,15.97 -3.676,18.824 -6.371,16.128 -9.066,13.434 -6.213,6.212 0,0" id="path32" style="fill:#66757f;fill-opacity:1;fill-rule:nonzero;stroke:none"/></g><g transform="translate(23.2021,25.4785)" id="g34"><path d="m 0,0 c 0.443,-0.444 0.443,-1.163 0,-1.607 l -7.233,-7.231 c -0.444,-0.444 -1.163,-0.444 -1.607,0 -0.445,0.443 -0.445,1.163 0,1.607 L -1.608,0 C -1.163,0.445 -0.445,0.445 0,0" id="path36" style="fill:#ccd6dd;fill-opacity:1;fill-rule:nonzero;stroke:none"/></g><g transform="translate(24.8086,27.0854)" id="g38"><path d="m 0,0 c 0.887,-0.887 0.887,-2.327 0,-3.214 -0.888,-0.888 -2.327,-0.888 -3.215,0 -0.887,0.887 -0.887,2.327 0,3.214 0.888,0.888 2.327,0.888 3.215,0" id="path40" style="fill:#ccd6dd;fill-opacity:1;fill-rule:nonzero;stroke:none"/></g><g transform="translate(29.2871,23.9224)" id="g42"><path d="M 0,0 C -0.017,0 -0.034,0 -0.051,0.001 -0.603,0.029 -1.027,0.499 -1,1.05 -0.999,1.066 -0.937,3.207 -2.58,4.85 -4.218,6.487 -6.353,6.429 -6.381,6.43 -6.931,6.397 -7.401,6.828 -7.43,7.378 -7.457,7.93 -7.032,8.4 -6.48,8.427 -6.358,8.439 -3.452,8.55 -1.166,6.264 1.121,3.977 1.004,1.073 0.998,0.95 0.971,0.416 0.529,0 0,0" id="path44" style="fill:#ffac33;fill-opacity:1;fill-rule:nonzero;stroke:none"/></g><g transform="translate(32.8457,24.478)" id="g46"><path d="m 0,0 c -0.109,0 -0.221,0.019 -0.33,0.057 -0.522,0.182 -0.796,0.753 -0.613,1.274 0.034,0.107 0.892,2.877 -2.196,5.963 -3.126,3.127 -6.126,2.415 -6.252,2.383 -0.529,-0.137 -1.077,0.184 -1.215,0.715 -0.14,0.531 0.171,1.074 0.701,1.217 0.17,0.046 4.205,1.078 8.18,-2.901 C 2.291,4.695 1.001,0.833 0.943,0.67 0.8,0.258 0.413,0 0,0" id="path48" style="fill:#ffac33;fill-opacity:1;fill-rule:nonzero;stroke:none"/></g><g transform="translate(11.9136,4.4795)" id="g50"><path d="M 0,0 C -2.9,0 -5.543,0.658 -7.566,1.737 -7.574,1.591 -7.595,1.447 -7.595,1.3 -7.594,-4.06 7.262,-4.06 7.259,1.299 7.259,1.389 7.245,1.476 7.242,1.564 5.264,0.588 2.746,0 0,0" id="path52" style="fill:#66757f;fill-opacity:1;fill-rule:nonzero;stroke:none"/></g></g></g></g></svg>
