<?xml version="1.0" encoding="UTF-8" standalone="no"?><svg xmlns:dc="http://purl.org/dc/elements/1.1/" xmlns:cc="http://creativecommons.org/ns#" xmlns:rdf="http://www.w3.org/1999/02/22-rdf-syntax-ns#" xmlns:svg="http://www.w3.org/2000/svg" xmlns="http://www.w3.org/2000/svg" viewBox="0 0 47.5 47.5" style="enable-background:new 0 0 47.5 47.5;" xml:space="preserve" version="1.1" id="svg2"><metadata id="metadata8"><rdf:RDF><cc:Work rdf:about=""><dc:format>image/svg+xml</dc:format><dc:type rdf:resource="http://purl.org/dc/dcmitype/StillImage"/></cc:Work></rdf:RDF></metadata><defs id="defs6"><clipPath id="clipPath16" clipPathUnits="userSpaceOnUse"><path id="path18" d="M 0,38 38,38 38,0 0,0 0,38 Z"/></clipPath></defs><g transform="matrix(1.25,0,0,-1.25,0,47.5)" id="g10"><g id="g12"><g clip-path="url(#clipPath16)" id="g14"><g transform="translate(35.7236,7.2051)" id="g20"><path id="path22" style="fill:#ffac33;fill-opacity:1;fill-rule:nonzero;stroke:none" d="m 0,0 c -1.239,0.01 -1.241,-1.205 -1.241,-1.205 l -5.396,0 -9.087,0 0,0.025 c -0.166,-0.008 -0.331,-0.025 -0.5,-0.025 -5.246,0 -9.5,4.254 -9.5,9.5 0,5.246 4.254,9.5 9.5,9.5 5.246,0 9.5,-4.254 9.5,-9.5 0,-3.063 -1.466,-5.765 -3.718,-7.5 l 5.434,0 c 1.44,2.145 2.284,4.723 2.284,7.5 0,7.455 -6.045,13.5 -13.5,13.5 -7.455,0 -13.5,-6.045 -13.5,-13.5 0,-7.455 6.045,-13.5 13.5,-13.5 0.169,0 0.333,0.019 0.5,0.025 l 0,-0.025 14.483,0 c 0,0 -0.003,-1.127 1.241,-1.139 1.238,-0.011 1.228,1.245 1.228,1.245 l 0.013,3.822 c 0,0 10e-4,1.266 -1.241,1.277"/></g><g transform="translate(6,22.7397)" id="g24"><path id="path26" style="fill:#ffac33;fill-opacity:1;fill-rule:nonzero;stroke:none" d="M 0,0 C 1.014,1.831 2.378,3.438 4,4.739 L 4,5.26 c 0,5 5,7 5,8 0,1 -1,1 -1,1 l -12,0 c -1,0 -1,-1 -1,-1 0,-1 5,-3.333 5,-7.69 L 0,0 Z"/></g></g></g></g></svg>
