<?xml version="1.0" encoding="UTF-8" standalone="no"?><svg xmlns:svg="http://www.w3.org/2000/svg" xmlns="http://www.w3.org/2000/svg" version="1.1" viewBox="0 0 47.5 47.5" style="enable-background:new 0 0 47.5 47.5;" id="svg2" xml:space="preserve"><defs id="defs6"><clipPath id="clipPath18"><path d="M 0,38 38,38 38,0 0,0 0,38 z" id="path20"/></clipPath></defs><g transform="matrix(1.25,0,0,-1.25,0,47.5)" id="g12"><g id="g14"><g clip-path="url(#clipPath18)" id="g16"><g transform="translate(15,8)" id="g22"><path d="M 0,0 C -2.209,0 -4,1.791 -4,4 -4,6.209 -2.209,8 0,8 2.209,8 4,6.209 4,4 4,1.791 2.209,0 0,0 m 0,10 c -3.313,0 -6,-2.687 -6,-6 0,-3.313 2.687,-6 6,-6 3.313,0 6,2.687 6,6 0,3.313 -2.687,6 -6,6" id="path24" style="fill:#3b88c3;fill-opacity:1;fill-rule:nonzero;stroke:none"/></g><g transform="translate(2.7832,22.9766)" id="g26"><path d="m 0,0 0,-0.021 c -1.001,-0.218 -1.783,-1.895 -1.783,-3.956 0,-2.06 0.782,-3.737 1.783,-3.956 l 0,-0.02 28.701,-7.972 0,23.884 L 0,0 z" id="path28" style="fill:#55acee;fill-opacity:1;fill-rule:nonzero;stroke:none"/></g><g transform="translate(37,19)" id="g30"><path d="m 0,0 c 0,-6.627 -2.238,-12 -5,-12 -2.762,0 -5,5.373 -5,12 0,6.627 2.238,12 5,12 2.762,0 5,-5.373 5,-12" id="path32" style="fill:#226699;fill-opacity:1;fill-rule:nonzero;stroke:none"/></g></g></g></g></svg>
