<?xml version="1.0" encoding="UTF-8" standalone="no"?>
<!-- Created with Inkscape (http://www.inkscape.org/) -->

<svg
   xmlns:svg="http://www.w3.org/2000/svg"
   xmlns="http://www.w3.org/2000/svg"
   version="1.1"
   width="47.5"
   height="47.5"
   id="svg2"
   xml:space="preserve"><defs
     id="defs6"><clipPath
       id="clipPath18"><path
         d="M 0,38 38,38 38,0 0,0 0,38 z"
         id="path20" /></clipPath><clipPath
       id="clipPath42"><path
         d="m 12,30 0,-14 c 0,0 0,-2 2,-2 l 0,0 10,0 c 0,0 2,0 2,2 l 0,0 0,14 -14,0 z"
         id="path44" /></clipPath><clipPath
       id="clipPath58"><path
         d="M 0,38 38,38 38,0 0,0 0,38 z"
         id="path60" /></clipPath></defs><g
     transform="matrix(1.25,0,0,-1.25,0,47.5)"
     id="g12"><g
       id="g14"><g
         clip-path="url(#clipPath18)"
         id="g16"><g
           transform="translate(32,12)"
           id="g22"><path
             d="m 0,0 c 0,-2.209 -1.791,-4 -4,-4 l -18,0 c -2.209,0 -4,1.791 -4,4 l 0,21 c 0,2.209 1.791,4 4,4 l 18,0 c 2.209,0 4,-1.791 4,-4 L 0,0 z"
             id="path24"
             style="fill:#dd2e44;fill-opacity:1;fill-rule:nonzero;stroke:none" /></g><g
           transform="translate(8,27)"
           id="g26"><path
             d="m 0,0 0,4 c 0,0 0,2 2,2 l 18,0 c 0,0 2,0 2,-2 L 22,0 0,0 z"
             id="path28"
             style="fill:#a0041e;fill-opacity:1;fill-rule:nonzero;stroke:none" /></g><g
           transform="translate(28,25)"
           id="g30"><path
             d="m 0,0 -18,0 c 0,0 -2,0 -2,2 L -20,5 2,5 2,2 C 2,0 0,0 0,0"
             id="path32"
             style="fill:#292f33;fill-opacity:1;fill-rule:nonzero;stroke:none" /></g><g
           transform="translate(12,30)"
           id="g34"><path
             d="m 0,0 0,-14 c 0,0 0,-2 2,-2 l 10,0 c 0,0 2,0 2,2 L 14,0 0,0 z"
             id="path36"
             style="fill:#e1e8ed;fill-opacity:1;fill-rule:nonzero;stroke:none" /></g></g></g><g
       id="g38"><g
         clip-path="url(#clipPath42)"
         id="g40"><g
           transform="translate(25,13)"
           id="g46"><path
             d="m 0,0 -9,11 6,6 -11,0 0,-17 14,0 z"
             id="path48"
             style="fill:#ccd6dd;fill-opacity:1;fill-rule:nonzero;stroke:none" /></g><g
           transform="translate(24,13)"
           id="g50"><path
             d="m 0,0 c 0,0 -7,9 -8,10 -1,1 0,2 0,2 l 6,6 1,-1 L -7,11 1,1 0,0 z"
             id="path52"
             style="fill:#66757f;fill-opacity:1;fill-rule:nonzero;stroke:none" /></g></g></g><g
       id="g54"><g
         clip-path="url(#clipPath58)"
         id="g56"><path
           d="m 24,8 -9,0 0,-7 9,0 0,7 z"
           id="path62"
           style="fill:#66757f;fill-opacity:1;fill-rule:nonzero;stroke:none" /></g></g></g></svg>