<svg xmlns="http://www.w3.org/2000/svg" viewBox="0 0 47.5 47.5" enable-background="new 0 0 47.5 47.5"><defs><clipPath id="a"><path d="M0 38h38V0H0v38z"/></clipPath></defs><g><g><g clip-path="url(#a)" transform="matrix(1.25 0 0 -1.25 0 47.5)"><g><path fill="#d99e82" d="M37 5c0-2.2-1.8-4-4-4H5C2.8 1 1 2.8 1 5v9c0 2.2.8 3 3 3h30c2.2 0 3-.8 3-3V5z"/></g><g><path fill="#662113" d="M26 17c0-3.87-3.13-7-7-7s-7 3.13-7 7h14z"/></g><g><path fill="#c1694f" d="M5 1h28c2.2 0 4 1.8 4 4H1c0-2.2 1.8-4 4-4"/></g><g><path fill="#dd2e44" d="M28.44 28.5l-7.87 7.85c-.86.87-2.28.87-3.14 0L9.56 28.5C8.7 27.6 9 27 10.22 27H15v-6c0-1.1.9-2 2-2h4c1.1 0 2 .9 2 2v6h4.78c1.23 0 1.52.62.66 1.5"/></g></g></g></g></svg>