<svg xmlns="http://www.w3.org/2000/svg" viewBox="0 0 47.5 47.5" enable-background="new 0 0 47.5 47.5"><defs><clipPath id="a"><path d="M0 38h38V0H0v38z"/></clipPath></defs><g><g><g clip-path="url(#a)" transform="matrix(1.25 0 0 -1.25 0 47.5)"><g><path fill="#ffac33" d="M35.72 7.2c-1.24.02-1.24-1.2-1.24-1.2H20v.03c-.17 0-.33-.03-.5-.03-5.25 0-9.5 4.25-9.5 9.5s4.25 9.5 9.5 9.5 9.5-4.25 9.5-9.5c0-3.06-1.47-5.76-3.72-7.5h5.44c1.44 2.15 2.28 4.72 2.28 7.5C33 22.96 26.95 29 19.5 29 12.04 29 6 22.96 6 15.5 6 8.05 12.04 2 19.5 2c.17 0 .33.02.5.03V2h14.48s0-1.13 1.24-1.14c1.24 0 1.23 1.25 1.23 1.25v3.83s.02 1.26-1.23 1.28"/></g><g><path fill="#ffac33" d="M6 22.74c1 1.83 2.38 3.44 4 4.74V28c0 5 5 7 5 8s-1 1-1 1H2c-1 0-1-1-1-1 0-1 5-3.33 5-7.7v-5.56z"/></g></g></g></g></svg>