<svg xmlns="http://www.w3.org/2000/svg" viewBox="0 0 47.5 47.5" enable-background="new 0 0 47.5 47.5"><defs><clipPath id="a"><path d="M0 38h38V0H0v38z"/></clipPath></defs><g><g><g clip-path="url(#a)" transform="matrix(1.25 0 0 -1.25 0 47.5)"><g><path fill="#be1931" d="M13.9 6.25c-.27-2.2-2.28-3-4.5-3-2.2 0-3.77 1.8-3.5 4l1 9c.28 2.2 2.3 4 4.5 4 2.22 0 6.48 0 3.5-4-2.96-4-1-10-1-10"/></g><g><path fill="#ccd6dd" d="M36.83 22.25c0-6.9-1.55-12.5-3.45-12.5-1.9 0-20.45 5.6-20.45 12.5s18.54 12.5 20.45 12.5c1.9 0 3.45-5.6 3.45-12.5"/></g><g><path fill="#66757f" d="M36.83 22.25c0-6.9-1.55-12.5-3.45-12.5-1.9 0-3.45 5.6-3.45 12.5s1.54 12.5 3.45 12.5c1.9 0 3.45-5.6 3.45-12.5"/></g><g><path fill="#dd2e44" d="M18.92 15.25l-14 1c-5 0-5 12 0 12l14 1c-3-3-3-11 0-14"/></g><g><path fill="#99aab5" d="M33.83 22.25c0-2.4-.68-4.35-1.5-4.35-.83 0-1.5 1.95-1.5 4.35 0 2.4.67 4.35 1.5 4.35.82 0 1.5-1.95 1.5-4.35"/></g></g></g></g></svg>