<?xml version="1.0" encoding="UTF-8" standalone="no"?>
<!-- Created with Inkscape (http://www.inkscape.org/) -->

<svg
   xmlns:svg="http://www.w3.org/2000/svg"
   xmlns="http://www.w3.org/2000/svg"
   version="1.1"
   width="47.5"
   height="47.5"
   id="svg2"
   xml:space="preserve"><defs
     id="defs6"><clipPath
       id="clipPath18"><path
         d="M 0,38 38,38 38,0 0,0 0,38 z"
         id="path20" /></clipPath></defs><g
     transform="matrix(1.25,0,0,-1.25,0,47.5)"
     id="g12"><g
       id="g14"><g
         clip-path="url(#clipPath18)"
         id="g16"><g
           transform="translate(36,6)"
           id="g22"><path
             d="m 0,0 c 0,0 0,-4 -4,-4 l -26,0 c -4,0 -4,4 -4,4 l 0,19 c 0,4 4,4 4,4 l 26,0 c 0,0 4,0 4,-4 L 0,0 z"
             id="path24"
             style="fill:#414042;fill-opacity:1;fill-rule:nonzero;stroke:none" /></g><g
           transform="translate(22.3027,26.6108)"
           id="g26"><path
             d="m 0,0 c 0.391,-0.391 0.391,-1.023 0,-1.414 -0.391,-0.391 -1.023,-0.391 -1.414,0 l -9.192,9.192 c -0.391,0.391 -0.391,1.024 0,1.414 0.391,0.391 1.023,0.391 1.414,0 L 0,0 z"
             id="path28"
             style="fill:#414042;fill-opacity:1;fill-rule:nonzero;stroke:none" /></g><g
           transform="translate(15.6968,26.6108)"
           id="g30"><path
             d="m 0,0 c -0.391,-0.391 -0.391,-1.023 0,-1.414 0.391,-0.391 1.023,-0.391 1.414,0 l 9.192,9.192 c 0.391,0.391 0.391,1.024 0,1.414 -0.391,0.391 -1.023,0.391 -1.414,0 L 0,0 z"
             id="path32"
             style="fill:#414042;fill-opacity:1;fill-rule:nonzero;stroke:none" /></g><g
           transform="translate(19,26)"
           id="g34"><path
             d="m 0,0 c 8,0 10,-1 11,-2 1,-1 2,-3 2,-8 0,-5 -1,-7 -2,-8 -1,-1 -3,-2 -11,-2 -8,0 -10,1 -11,2 -1,1 -2,3 -2,8 0,5 1,7 2,8 1,1 3,2 11,2"
             id="path36"
             style="fill:#55acee;fill-opacity:1;fill-rule:nonzero;stroke:none" /></g><g
           transform="translate(31,5.5)"
           id="g38"><path
             d="M 0,0 C 0,0.829 0.671,1.5 1.5,1.5 2.329,1.5 3,0.829 3,0 3,-0.829 2.329,-1.5 1.5,-1.5 0.671,-1.5 0,-0.829 0,0"
             id="path40"
             style="fill:#66757f;fill-opacity:1;fill-rule:nonzero;stroke:none" /></g><g
           transform="translate(4,5.5)"
           id="g42"><path
             d="M 0,0 C 0,0.829 0.671,1.5 1.5,1.5 2.329,1.5 3,0.829 3,0 3,-0.829 2.329,-1.5 1.5,-1.5 0.671,-1.5 0,-0.829 0,0"
             id="path44"
             style="fill:#66757f;fill-opacity:1;fill-rule:nonzero;stroke:none" /></g></g></g></g></svg>