<?xml version="1.0" encoding="UTF-8" standalone="no"?><svg xmlns:dc="http://purl.org/dc/elements/1.1/" xmlns:cc="http://creativecommons.org/ns#" xmlns:rdf="http://www.w3.org/1999/02/22-rdf-syntax-ns#" xmlns:svg="http://www.w3.org/2000/svg" xmlns="http://www.w3.org/2000/svg" viewBox="0 0 47.5 47.5" style="enable-background:new 0 0 47.5 47.5;" xml:space="preserve" version="1.1" id="svg2"><metadata id="metadata8"><rdf:RDF><cc:Work rdf:about=""><dc:format>image/svg+xml</dc:format><dc:type rdf:resource="http://purl.org/dc/dcmitype/StillImage"/></cc:Work></rdf:RDF></metadata><defs id="defs6"><clipPath id="clipPath16" clipPathUnits="userSpaceOnUse"><path id="path18" d="M 0,38 38,38 38,0 0,0 0,38 Z"/></clipPath></defs><g transform="matrix(1.25,0,0,-1.25,0,47.5)" id="g10"><g id="g12"><g clip-path="url(#clipPath16)" id="g14"><g transform="translate(19,1)" id="g20"><path id="path22" style="fill:#292f33;fill-opacity:1;fill-rule:nonzero;stroke:none" d="m 0,0 c 0,0 -4,0 -4,4 l 0,28 c 0,0 0,4 4,4 l 14,0 c 0,0 4,0 4,-4 L 18,4 C 18,4 18,0 14,0 L 0,0 Z"/></g><path id="path24" style="fill:#55acee;fill-opacity:1;fill-rule:nonzero;stroke:none" d="M 17,6 35,6 35,32 17,32 17,6 Z"/><g transform="translate(14,21)" id="g26"><path id="path28" style="fill:#55acee;fill-opacity:1;fill-rule:nonzero;stroke:none" d="M 0,0 C 0,0 1,-1 1,-2 1,-3 0,-4 0,-4 l -5,-5 c -1,-1 -3,-1 -3,1 l 0,3 -3,0 c 0,0 -2,0 -2,2 l 0,2 c 0,2 2,2 2,2 l 3,0 0,3 c 0,2 2,2 3,1 L 0,0 Z"/></g></g></g></g></svg>
