<?xml version="1.0" encoding="UTF-8" standalone="no"?>
<!-- Created with Inkscape (http://www.inkscape.org/) -->

<svg
   xmlns:svg="http://www.w3.org/2000/svg"
   xmlns="http://www.w3.org/2000/svg"
   version="1.1"
   width="47.5"
   height="47.5"
   id="svg2"
   xml:space="preserve"><defs
     id="defs6"><clipPath
       id="clipPath18"><path
         d="M 0,38 38,38 38,0 0,0 0,38 z"
         id="path20" /></clipPath></defs><g
     transform="matrix(1.25,0,0,-1.25,0,47.5)"
     id="g12"><g
       id="g14"><g
         clip-path="url(#clipPath18)"
         id="g16"><g
           transform="translate(34,1)"
           id="g22"><path
             d="m 0,0 -29,0 c 4,0 3,9 3,9 0,2.209 1.791,15 4,15 l 21,0 c 0,0 4,0 4,-4 L 3,3 C 3,3 3,0 0,0"
             id="path24"
             style="fill:#99aab5;fill-opacity:1;fill-rule:nonzero;stroke:none" /></g><g
           transform="translate(31,4)"
           id="g26"><path
             d="m 0,0 c 0,-3 3,-3 3,-3 l -30,0 c 0,0 -3,0 -3,4 l 0,28 c 0,2.209 1.791,4 4,4 l 22,0 c 2.209,0 4,-1.791 4,-4 L 0,0 z"
             id="path28"
             style="fill:#ccd6dd;fill-opacity:1;fill-rule:nonzero;stroke:none" /></g><g
           transform="translate(28,17)"
           id="g30"><path
             d="m 0,0 c 0,-0.553 -0.447,-1 -1,-1 l -8,0 c -0.552,0 -1,0.447 -1,1 0,0.553 0.448,1 1,1 l 8,0 C -0.447,1 0,0.553 0,0"
             id="path32"
             style="fill:#99aab5;fill-opacity:1;fill-rule:nonzero;stroke:none" /></g><g
           transform="translate(28,21)"
           id="g34"><path
             d="m 0,0 c 0,-0.553 -0.447,-1 -1,-1 l -8,0 c -0.552,0 -1,0.447 -1,1 0,0.553 0.448,1 1,1 l 8,0 C -0.447,1 0,0.553 0,0"
             id="path36"
             style="fill:#99aab5;fill-opacity:1;fill-rule:nonzero;stroke:none" /></g><g
           transform="translate(28,25)"
           id="g38"><path
             d="m 0,0 c 0,-0.553 -0.447,-1 -1,-1 l -8,0 c -0.552,0 -1,0.447 -1,1 0,0.553 0.448,1 1,1 l 8,0 C -0.447,1 0,0.553 0,0"
             id="path40"
             style="fill:#99aab5;fill-opacity:1;fill-rule:nonzero;stroke:none" /></g><g
           transform="translate(28,13)"
           id="g42"><path
             d="m 0,0 c 0,-0.553 -0.447,-1 -1,-1 l -22,0 c -0.552,0 -1,0.447 -1,1 0,0.553 0.448,1 1,1 L -1,1 C -0.447,1 0,0.553 0,0"
             id="path44"
             style="fill:#99aab5;fill-opacity:1;fill-rule:nonzero;stroke:none" /></g><g
           transform="translate(28,9)"
           id="g46"><path
             d="m 0,0 c 0,-0.553 -0.447,-1 -1,-1 l -22,0 c -0.552,0 -1,0.447 -1,1 0,0.553 0.448,1 1,1 L -1,1 C -0.447,1 0,0.553 0,0"
             id="path48"
             style="fill:#99aab5;fill-opacity:1;fill-rule:nonzero;stroke:none" /></g><g
           transform="translate(28,5)"
           id="g50"><path
             d="m 0,0 c 0,-0.553 -0.447,-1 -1,-1 l -22,0 c -0.552,0 -1,0.447 -1,1 0,0.553 0.448,1 1,1 L -1,1 C -0.447,1 0,0.553 0,0"
             id="path52"
             style="fill:#99aab5;fill-opacity:1;fill-rule:nonzero;stroke:none" /></g><g
           transform="translate(26,28)"
           id="g54"><path
             d="M 0,0 C 0,0 2,0 2,2 L 2,4 C 2,4 2,6 0,6 l -20,0 c 0,0 -2,0 -2,-2 l 0,-2 c 0,0 0,-2 2,-2 L 0,0 z"
             id="path56"
             style="fill:#99aab5;fill-opacity:1;fill-rule:nonzero;stroke:none" /></g><g
           transform="translate(14,16)"
           id="g58"><path
             d="m 0,0 c 0,0 2,0 2,2 l 0,6 c 0,0 0,2 -2,2 l -8,0 c 0,0 -2,0 -2,-2 l 0,-6 c 0,0 0,-2 2,-2 l 8,0 z"
             id="path60"
             style="fill:#55acee;fill-opacity:1;fill-rule:nonzero;stroke:none" /></g></g></g></g></svg>