<?xml version="1.0" encoding="UTF-8" standalone="no"?><svg xmlns:svg="http://www.w3.org/2000/svg" xmlns="http://www.w3.org/2000/svg" version="1.1" viewBox="0 0 47.5 47.5" style="enable-background:new 0 0 47.5 47.5;" id="svg2" xml:space="preserve"><defs id="defs6"><clipPath id="clipPath18"><path d="M 0,38 38,38 38,0 0,0 0,38 z" id="path20"/></clipPath></defs><g transform="matrix(1.25,0,0,-1.25,0,47.5)" id="g12"><g id="g14"><g clip-path="url(#clipPath18)" id="g16"><g transform="translate(30,19)" id="g22"><path d="m 0,0 -13,0 c -3.668,0 -5,2.99 -5,5 l 0,2 -4,0 c -3,0 -3,-3 -3,-3 0,0 -2,1 -3,1 -1,0 -1,-1 -1,-1 l 0,-10 c 0,0 0,-1 1,-1 1,0 3,1 3,1 l 0,-7 c 0,-4 4,-4 4,-4 l 18,0 c 4,0 4,4 4,4 L 1,0.106 C 0.653,0.037 0.314,0 0,0" id="path24" style="fill:#292f33;fill-opacity:1;fill-rule:nonzero;stroke:none"/></g><g transform="translate(36,31)" id="g26"><path d="M 0,0 C -0.559,0 -2.05,-0.934 -3.26,-1.76 -3.587,-0.934 -4.326,0 -6,0 l -11,0 c 0,0 -5,0 -5,-5 l 0,-2 c 0,0 0,-3 3,-3 l 13,0 c 0,0 2.075,0.006 2.771,1.739 C -2.024,-9.082 -0.554,-10 0,-10 c 1,0 1,1 1,1 l 0,8 c 0,0 0,1 -1,1" id="path28" style="fill:#66757f;fill-opacity:1;fill-rule:nonzero;stroke:none"/></g><g transform="translate(10,2)" id="g30"><path d="m 0,0 0,9 c 0,0 0,3 2.75,3 L 13,12 c 0,0 3,0 3,-3 l 0,-9 -2,0 0,9 c 0,0 0,1 -1,1 L 3,10 C 3,10 2,10 2,9 L 2,0 0,0 z" id="path32" style="fill:#66757f;fill-opacity:1;fill-rule:nonzero;stroke:none"/></g></g></g></g></svg>
