<?xml version="1.0" encoding="UTF-8" standalone="no"?>
<!-- Created with Inkscape (http://www.inkscape.org/) -->

<svg
   xmlns:svg="http://www.w3.org/2000/svg"
   xmlns="http://www.w3.org/2000/svg"
   version="1.1"
   width="47.5"
   height="47.5"
   id="svg2"
   xml:space="preserve"><defs
     id="defs6"><clipPath
       id="clipPath18"><path
         d="M 0,38 38,38 38,0 0,0 0,38 z"
         id="path20" /></clipPath></defs><g
     transform="matrix(1.25,0,0,-1.25,0,47.5)"
     id="g12"><g
       id="g14"><g
         clip-path="url(#clipPath18)"
         id="g16"><g
           transform="translate(19,1)"
           id="g22"><path
             d="m 0,0 c 0,0 -4,0 -4,4 l 0,28 c 0,0 0,4 4,4 l 14,0 c 0,0 4,0 4,-4 L 18,4 C 18,4 18,0 14,0 L 0,0 z"
             id="path24"
             style="fill:#292f33;fill-opacity:1;fill-rule:nonzero;stroke:none" /></g><path
           d="M 17,6 35,6 35,32 17,32 17,6 z"
           id="path26"
           style="fill:#55acee;fill-opacity:1;fill-rule:nonzero;stroke:none" /><g
           transform="translate(14,21)"
           id="g28"><path
             d="M 0,0 C 0,0 1,-1 1,-2 1,-3 0,-4 0,-4 l -5,-5 c -1,-1 -3,-1 -3,1 l 0,3 -3,0 c 0,0 -2,0 -2,2 l 0,2 c 0,2 2,2 2,2 l 3,0 0,3 c 0,2 2,2 3,1 L 0,0 z"
             id="path30"
             style="fill:#55acee;fill-opacity:1;fill-rule:nonzero;stroke:none" /></g></g></g></g></svg>