<svg xmlns="http://www.w3.org/2000/svg" viewBox="0 0 47.5 47.5" enable-background="new 0 0 47.5 47.5"><defs><clipPath id="a"><path d="M0 38h38V0H0v38z"/></clipPath></defs><g><g><g clip-path="url(#a)" transform="matrix(1.25 0 0 -1.25 0 47.5)"><g><path d="M36 19c0 9.4-7.6 17-17 17S2 28.4 2 19 9.6 2 19 2s17 7.6 17 17"/></g><g><path fill="#fff" d="M14 6s-3 0-3 3c0 2 0 20 0 20s0 3 3 3h10s3 0 3-3V9s0-3-3-3H14z"/></g><path d="M13 10h12v18H13V10z"/><g><path fill="#dd2e44" d="M30.68 8.1L8.08 30.67C10.96 33.35 14.8 35 19 35c8.84 0 16-7.16 16-16 0-4.22-1.65-8.05-4.32-10.9M19 3C10.16 3 3 10.16 3 19c0 3.7 1.28 7.12 3.4 9.83L28.83 6.4C26.13 4.27 22.7 3 19 3m0 34C9.06 37 1 28.94 1 19S9.06 1 19 1s18 8.06 18 18-8.06 18-18 18"/></g></g></g></g></svg>