<svg xmlns="http://www.w3.org/2000/svg" viewBox="0 0 47.5 47.5" enable-background="new 0 0 47.5 47.5"><defs><clipPath id="a"><path d="M0 38h38V0H0v38z"/></clipPath></defs><g><g><g clip-path="url(#a)" transform="matrix(1.25 0 0 -1.25 0 47.5)"><g><path fill="#292f33" d="M1 27s0 4 4 4h28s4 0 4-4V9s0-4-4-4H5S1 5 1 9v18z"/></g><g><path fill="#ccd6dd" d="M12 18c0-5.52 4.48-10 10-10s10 4.48 10 10-4.48 10-10 10-10-4.48-10-10"/></g><g><path fill="#292f33" d="M30 18c0-4.42-3.58-8-8-8s-8 3.58-8 8 3.58 8 8 8 8-3.58 8-8"/></g><g><path fill="#3b88c3" d="M27 18c0-2.76-2.24-5-5-5s-5 2.24-5 5 2.24 5 5 5 5-2.24 5-5"/></g><g><path fill="#fff" d="M35 27.5c0-.83-.67-1.5-1.5-1.5s-1.5.67-1.5 1.5.67 1.5 1.5 1.5 1.5-.67 1.5-1.5"/></g><g><path fill="#f5f8fa" d="M13 27.5c0-.83-.67-1.5-1.5-1.5h-5c-.83 0-1.5.67-1.5 1.5S5.67 29 6.5 29h5c.83 0 1.5-.67 1.5-1.5"/></g><g><path fill="#66757f" d="M5 32s0 1 1 1h6s1 0 1-1v-1H5v1z"/></g></g></g></g></svg>