<svg xmlns="http://www.w3.org/2000/svg" viewBox="0 0 47.5 47.5" enable-background="new 0 0 47.5 47.5"><defs><clipPath id="a"><path d="M0 38h38V0H0v38z"/></clipPath></defs><g><g><g clip-path="url(#a)" transform="matrix(1.25 0 0 -1.25 0 47.5)"><g><path fill="#292f33" d="M30 19H17c-3.67 0-5 3-5 5v2H8c-3 0-3-3-3-3s-2 1-3 1-1-1-1-1V13s0-1 1-1 3 1 3 1V6c0-4 4-4 4-4h18c4 0 4 4 4 4v13.1c-.35-.06-.7-.1-1-.1"/></g><g><path fill="#66757f" d="M36 31c-.56 0-2.05-.93-3.26-1.76C32.4 30.07 31.67 31 30 31H19s-5 0-5-5v-2s0-3 3-3h13s2.08 0 2.77 1.74C33.97 21.92 35.45 21 36 21c1 0 1 1 1 1v8s0 1-1 1"/></g><g><path fill="#66757f" d="M10 2v9s0 3 2.75 3H23s3 0 3-3V2h-2v9s0 1-1 1H13s-1 0-1-1V2h-2z"/></g></g></g></g></svg>