<?xml version="1.0" encoding="UTF-8" standalone="no"?><svg xmlns:dc="http://purl.org/dc/elements/1.1/" xmlns:cc="http://creativecommons.org/ns#" xmlns:rdf="http://www.w3.org/1999/02/22-rdf-syntax-ns#" xmlns:svg="http://www.w3.org/2000/svg" xmlns="http://www.w3.org/2000/svg" viewBox="0 0 47.5 47.5" style="enable-background:new 0 0 47.5 47.5;" xml:space="preserve" version="1.1" id="svg2"><metadata id="metadata8"><rdf:RDF><cc:Work rdf:about=""><dc:format>image/svg+xml</dc:format><dc:type rdf:resource="http://purl.org/dc/dcmitype/StillImage"/></cc:Work></rdf:RDF></metadata><defs id="defs6"><clipPath id="clipPath16" clipPathUnits="userSpaceOnUse"><path id="path18" d="M 0,38 38,38 38,0 0,0 0,38 Z"/></clipPath></defs><g transform="matrix(1.25,0,0,-1.25,0,47.5)" id="g10"><g id="g12"><g clip-path="url(#clipPath16)" id="g14"><g transform="translate(36,19)" id="g20"><path id="path22" style="fill:#000000;fill-opacity:1;fill-rule:nonzero;stroke:none" d="m 0,0 c 0,9.389 -7.611,17 -17,17 -9.388,0 -16.999,-7.611 -16.999,-17 0,-9.389 7.611,-17 16.999,-17 9.389,0 17,7.611 17,17"/></g><g transform="translate(14.0005,6)" id="g24"><path id="path26" style="fill:#ffffff;fill-opacity:1;fill-rule:nonzero;stroke:none" d="m 0,0 c 0,0 -3,0 -3,3 -10e-4,2 0,20 0,20 0,0 0,3 3,3 l 10,0 c 0,0 3,0 3,-3 L 13,3 C 13,3 13,0 10,0 L 0,0 Z"/></g><path id="path28" style="fill:#000000;fill-opacity:1;fill-rule:nonzero;stroke:none" d="m 13,10 12,0 0,18 -12,0 0,-18 z"/><g transform="translate(30.6797,8.0879)" id="g30"><path id="path32" style="fill:#dd2e44;fill-opacity:1;fill-rule:nonzero;stroke:none" d="m 0,0 -22.591,22.591 c 2.86,2.673 6.689,4.321 10.911,4.321 8.837,0 16,-7.163 16,-16 C 4.32,6.689 2.672,2.859 0,0 m -11.68,-5.088 c -8.836,0 -15.999,7.163 -15.999,16 0,3.713 1.276,7.121 3.397,9.835 L -1.845,-1.69 C -4.56,-3.813 -7.967,-5.088 -11.68,-5.088 m 10e-4,34 c -9.941,0 -18,-8.059 -18,-18 0,-9.941 8.059,-18 18,-18 9.941,0 17.999,8.059 17.999,18 0,9.941 -8.058,18 -17.999,18"/></g></g></g></g></svg>
