<?xml version="1.0" encoding="UTF-8" standalone="no"?><svg xmlns:dc="http://purl.org/dc/elements/1.1/" xmlns:cc="http://creativecommons.org/ns#" xmlns:rdf="http://www.w3.org/1999/02/22-rdf-syntax-ns#" xmlns:svg="http://www.w3.org/2000/svg" xmlns="http://www.w3.org/2000/svg" viewBox="0 0 47.5 47.5" style="enable-background:new 0 0 47.5 47.5;" xml:space="preserve" version="1.1" id="svg2"><metadata id="metadata8"><rdf:RDF><cc:Work rdf:about=""><dc:format>image/svg+xml</dc:format><dc:type rdf:resource="http://purl.org/dc/dcmitype/StillImage"/></cc:Work></rdf:RDF></metadata><defs id="defs6"><clipPath id="clipPath16" clipPathUnits="userSpaceOnUse"><path id="path18" d="M 0,38 38,38 38,0 0,0 0,38 Z"/></clipPath><clipPath id="clipPath32" clipPathUnits="userSpaceOnUse"><path id="path34" d="M 5,25 C 4,25 3,23 3,20 l 0,0 c 0,-3 1,-5 2,-5 l 0,0 6,0 c 1,0 1,1 1,1 l 0,0 0,8 c 0,1 -1,1 -1,1 l 0,0 -6,0 z"/></clipPath><clipPath id="clipPath48" clipPathUnits="userSpaceOnUse"><path id="path50" d="M 0,38 38,38 38,0 0,0 0,38 Z"/></clipPath><clipPath id="clipPath60" clipPathUnits="userSpaceOnUse"><path id="path62" d="m 27,25 c 0,0 -1,0 -1,-1 l 0,0 0,-8 c 0,0 0,-1 1,-1 l 0,0 6,0 c 1,0 2,2 2,5 l 0,0 c 0,3 -1,5 -2,5 l 0,0 -6,0 z"/></clipPath><clipPath id="clipPath76" clipPathUnits="userSpaceOnUse"><path id="path78" d="M 0,38 38,38 38,0 0,0 0,38 Z"/></clipPath></defs><g transform="matrix(1.25,0,0,-1.25,0,47.5)" id="g10"><g id="g12"><g clip-path="url(#clipPath16)" id="g14"><g transform="translate(37,12)" id="g20"><path id="path22" style="fill:#292f33;fill-opacity:1;fill-rule:nonzero;stroke:none" d="m 0,0 c 0,0 0,-4 -4,-4 l -28,0 c 0,0 -4,0 -4,4 l 0,15 c 0,4 4,4 4,4 l 28,0 c 0,0 4,0 4,-4 L 0,0 Z"/></g><g transform="translate(5,25)" id="g24"><path id="path26" style="fill:#ccd6dd;fill-opacity:1;fill-rule:nonzero;stroke:none" d="m 0,0 6,0 c 0,0 1,0 1,-1 l 0,-8 c 0,0 0,-1 -1,-1 l -6,0 c -1,0 -2,2 -2,5 0,3 1,5 2,5"/></g></g></g><g id="g28"><g clip-path="url(#clipPath32)" id="g30"><g transform="translate(19,20)" id="g36"><path id="path38" style="fill:#000000;fill-opacity:1;fill-rule:nonzero;stroke:none" d="m 0,0 c 0,-3.865 -3.134,-7 -7,-7 -3.866,0 -7,3.135 -7,7 0,3.866 3.134,7 7,7 3.866,0 7,-3.134 7,-7"/></g><g transform="translate(15,20)" id="g40"><path id="path42" style="fill:#66757f;fill-opacity:1;fill-rule:nonzero;stroke:none" d="m 0,0 c 0,-1.657 -1.343,-3 -3,-3 -1.657,0 -3,1.343 -3,3 0,1.657 1.343,3 3,3 1.657,0 3,-1.343 3,-3"/></g></g></g><g id="g44"><g clip-path="url(#clipPath48)" id="g46"><g transform="translate(33,25)" id="g52"><path id="path54" style="fill:#ccd6dd;fill-opacity:1;fill-rule:nonzero;stroke:none" d="m 0,0 -6,0 c 0,0 -1,0 -1,-1 l 0,-8 c 0,0 0,-1 1,-1 l 6,0 c 1,0 2,2 2,5 0,3 -1,5 -2,5"/></g></g></g><g id="g56"><g clip-path="url(#clipPath60)" id="g58"><g transform="translate(33,20)" id="g64"><path id="path66" style="fill:#000000;fill-opacity:1;fill-rule:nonzero;stroke:none" d="m 0,0 c 0,-3.867 -3.133,-7 -7,-7 -3.867,0 -7,3.133 -7,7 0,3.865 3.133,7 7,7 3.867,0 7,-3.135 7,-7"/></g><g transform="translate(29,20)" id="g68"><path id="path70" style="fill:#66757f;fill-opacity:1;fill-rule:nonzero;stroke:none" d="m 0,0 c 0,-1.657 -1.344,-3 -3,-3 -1.656,0 -3,1.343 -3,3 0,1.657 1.344,3 3,3 1.656,0 3,-1.343 3,-3"/></g></g></g><g id="g72"><g clip-path="url(#clipPath76)" id="g74"><g transform="translate(14,23)" id="g80"><path id="path82" style="fill:#88c9f9;fill-opacity:1;fill-rule:nonzero;stroke:none" d="m 0,0 c 0,0 0,1 1,1 l 8,0 c 0,0 1,0 1,-1 l 0,-6 c 0,0 0,-1 -1,-1 l -8,0 c 0,0 -1,0 -1,1 l 0,6 z"/></g><g transform="translate(35,11)" id="g84"><path id="path86" style="fill:#000000;fill-opacity:1;fill-rule:nonzero;stroke:none" d="m 0,0 c 0,-0.553 -0.447,-1 -1,-1 l -30,0 c -0.552,0 -1,0.447 -1,1 0,0.553 0.448,1 1,1 L -1,1 C -0.447,1 0,0.553 0,0"/></g></g></g></g></svg>
