<svg xmlns="http://www.w3.org/2000/svg" viewBox="0 0 47.5 47.5" enable-background="new 0 0 47.5 47.5"><defs><clipPath id="a"><path d="M0 38h38V0H0v38z"/></clipPath></defs><g><g><g clip-path="url(#a)" transform="matrix(1.25 0 0 -1.25 0 47.5)"><g><path fill="#99aab5" d="M34 1H5c4 0 3 9 3 9 0 2.2 1.8 15 4 15h21s4 0 4-4V4s0-3-3-3"/></g><g><path fill="#ccd6dd" d="M31 4c0-3 3-3 3-3H4S1 1 1 5v28c0 2.2 1.8 4 4 4h22c2.2 0 4-1.8 4-4V4z"/></g><g><path fill="#99aab5" d="M28 17c0-.55-.45-1-1-1h-8c-.55 0-1 .45-1 1s.45 1 1 1h8c.55 0 1-.45 1-1"/></g><g><path fill="#99aab5" d="M28 21c0-.55-.45-1-1-1h-8c-.55 0-1 .45-1 1s.45 1 1 1h8c.55 0 1-.45 1-1"/></g><g><path fill="#99aab5" d="M28 25c0-.55-.45-1-1-1h-8c-.55 0-1 .45-1 1s.45 1 1 1h8c.55 0 1-.45 1-1"/></g><g><path fill="#99aab5" d="M28 13c0-.55-.45-1-1-1H5c-.55 0-1 .45-1 1s.45 1 1 1h22c.55 0 1-.45 1-1"/></g><g><path fill="#99aab5" d="M28 9c0-.55-.45-1-1-1H5c-.55 0-1 .45-1 1s.45 1 1 1h22c.55 0 1-.45 1-1"/></g><g><path fill="#99aab5" d="M28 5c0-.55-.45-1-1-1H5c-.55 0-1 .45-1 1s.45 1 1 1h22c.55 0 1-.45 1-1"/></g><g><path fill="#99aab5" d="M26 28s2 0 2 2v2s0 2-2 2H6s-2 0-2-2v-2s0-2 2-2h20z"/></g><g><path fill="#55acee" d="M14 16s2 0 2 2v6s0 2-2 2H6s-2 0-2-2v-6s0-2 2-2h8z"/></g></g></g></g></svg>