<svg xmlns="http://www.w3.org/2000/svg" viewBox="0 0 47.5 47.5" enable-background="new 0 0 47.5 47.5"><defs><clipPath id="a"><path d="M0 38h38V0H0v38z"/></clipPath></defs><g><g><g clip-path="url(#a)" transform="matrix(1.25 0 0 -1.25 0 47.5)"><g><path fill="#3b88c3" d="M1 33c0 4 4 4 4 4h28s4 0 4-4V5s0-4-4-4H5S1 1 1 5v28z"/></g><path fill="#fff" d="M33 29h-4V9h4v20z"/><path fill="#fff" d="M27 25h-4V9h4v16z"/><path fill="#fff" d="M21 21h-4V9h4v12z"/><path fill="#fff" d="M15 17h-4V9h4v8z"/><path fill="#fff" d="M9 13H5V9h4v4z"/></g></g></g></svg>