<svg xmlns="http://www.w3.org/2000/svg" viewBox="0 0 47.5 47.5" enable-background="new 0 0 47.5 47.5"><defs><clipPath id="a"><path d="M0 38h38V0H0v38z"/></clipPath></defs><g><g><g clip-path="url(#a)" transform="matrix(1.25 0 0 -1.25 0 47.5)"><g><path fill="#f4900c" d="M37 5c0-4-4-4-4-4H5C1 1 1 5 1 5v28c0 4 4 4 4 4h28s4 0 4-4V5z"/></g><g><path fill="#fff" d="M20 13V9H6v20h14V13h2v18c0 3-3 3-3 3H7c-3 0-3-3-3-3V7c0-3 3-3 3-3h12c3 0 3 3 3 3v6h-2z"/></g><g><path fill="#f4900c" d="M24 23s1 2 4 2c5 0 5-5 5-5 0-6-9-11-9-11s-9 5-9 11c0 0 0 5 5 5 3 0 4-2 4-2"/></g><g><path fill="#fff" d="M20 24c-3.96 0-4-3.84-4-4 0-4.58 6.2-8.73 8-9.84 1.8 1.1 8 5.26 8 9.84 0 .4-.15 4-4 4-2.3 0-3.08-1.4-3.1-1.46-.2-.33-.54-.54-.9-.53-.4 0-.73.22-.9.55-.02.05-.8 1.45-3.1 1.45m4-16c-.17 0-.34.04-.48.13C23.12 8.33 14 13.5 14 20c0 2.07 1.25 6 6 6 1.98 0 3.25-.75 4-1.44.75.7 2.02 1.44 4 1.44 4.75 0 6-3.93 6-6 0-6.5-9.13-11.66-9.52-11.87-.15-.1-.3-.13-.48-.13"/></g></g></g></g></svg>