<svg xmlns="http://www.w3.org/2000/svg" viewBox="0 0 47.5 47.5" enable-background="new 0 0 47.5 47.5"><defs><clipPath id="a"><path d="M0 38h38V0H0v38z"/></clipPath><clipPath id="b"><path d="M5 25c-1 0-2-2-2-5s1-5 2-5h6c1 0 1 1 1 1v8c0 1-1 1-1 1H5z"/></clipPath><clipPath id="c"><path d="M0 38h38V0H0v38z"/></clipPath><clipPath id="d"><path d="M27 25s-1 0-1-1v-8s0-1 1-1h6c1 0 2 2 2 5s-1 5-2 5h-6z"/></clipPath><clipPath id="e"><path d="M0 38h38V0H0v38z"/></clipPath></defs><g><g><g clip-path="url(#a)" transform="matrix(1.25 0 0 -1.25 0 47.5)"><g><path fill="#292f33" d="M37 12s0-4-4-4H5s-4 0-4 4v15c0 4 4 4 4 4h28s4 0 4-4V12z"/></g><g><path fill="#ccd6dd" d="M5 25h6s1 0 1-1v-8s0-1-1-1H5c-1 0-2 2-2 5s1 5 2 5"/></g></g></g><g><g clip-path="url(#b)" transform="matrix(1.25 0 0 -1.25 0 47.5)"><g><path d="M19 20c0-3.87-3.13-7-7-7s-7 3.13-7 7 3.13 7 7 7 7-3.13 7-7"/></g><g><path fill="#66757f" d="M15 20c0-1.66-1.34-3-3-3s-3 1.34-3 3 1.34 3 3 3 3-1.34 3-3"/></g></g></g><g><g clip-path="url(#c)" transform="matrix(1.25 0 0 -1.25 0 47.5)"><g><path fill="#ccd6dd" d="M33 25h-6s-1 0-1-1v-8s0-1 1-1h6c1 0 2 2 2 5s-1 5-2 5"/></g></g></g><g><g clip-path="url(#d)" transform="matrix(1.25 0 0 -1.25 0 47.5)"><g><path d="M33 20c0-3.87-3.13-7-7-7s-7 3.13-7 7 3.13 7 7 7 7-3.13 7-7"/></g><g><path fill="#66757f" d="M29 20c0-1.66-1.34-3-3-3s-3 1.34-3 3 1.34 3 3 3 3-1.34 3-3"/></g></g></g><g><g clip-path="url(#e)" transform="matrix(1.25 0 0 -1.25 0 47.5)"><g><path fill="#88c9f9" d="M14 23s0 1 1 1h8s1 0 1-1v-6s0-1-1-1h-8s-1 0-1 1v6z"/></g><g><path d="M35 11c0-.55-.45-1-1-1H4c-.55 0-1 .45-1 1s.45 1 1 1h30c.55 0 1-.45 1-1"/></g></g></g></g></svg>