<?xml version="1.0" encoding="UTF-8" standalone="no"?><svg xmlns:svg="http://www.w3.org/2000/svg" xmlns="http://www.w3.org/2000/svg" version="1.1" viewBox="0 0 47.5 47.5" style="enable-background:new 0 0 47.5 47.5;" id="svg2" xml:space="preserve"><defs id="defs6"><clipPath id="clipPath18"><path d="M 0,38 38,38 38,0 0,0 0,38 z" id="path20"/></clipPath></defs><g transform="matrix(1.25,0,0,-1.25,0,47.5)" id="g12"><g id="g14"><g clip-path="url(#clipPath18)" id="g16"><g transform="translate(36,19)" id="g22"><path d="m 0,0 c 0,9.389 -7.611,17 -17,17 -9.388,0 -16.999,-7.611 -16.999,-17 0,-9.389 7.611,-17 16.999,-17 9.389,0 17,7.611 17,17" id="path24" style="fill:#000000;fill-opacity:1;fill-rule:nonzero;stroke:none"/></g><g transform="translate(14.0005,6)" id="g26"><path d="m 0,0 c 0,0 -3,0 -3,3 -10e-4,2 0,20 0,20 0,0 0,3 3,3 l 10,0 c 0,0 3,0 3,-3 L 13,3 C 13,3 13,0 10,0 L 0,0 z" id="path28" style="fill:#ffffff;fill-opacity:1;fill-rule:nonzero;stroke:none"/></g><path d="m 13,10 12,0 0,18 -12,0 0,-18 z" id="path30" style="fill:#000000;fill-opacity:1;fill-rule:nonzero;stroke:none"/><g transform="translate(30.6797,8.0879)" id="g32"><path d="m 0,0 -22.591,22.591 c 2.86,2.673 6.689,4.321 10.911,4.321 8.837,0 16,-7.163 16,-16 C 4.32,6.689 2.672,2.859 0,0 m -11.68,-5.088 c -8.836,0 -15.999,7.163 -15.999,16 0,3.713 1.276,7.121 3.397,9.835 L -1.845,-1.69 C -4.56,-3.813 -7.967,-5.088 -11.68,-5.088 m 10e-4,34 c -9.941,0 -18,-8.059 -18,-18 0,-9.941 8.059,-18 18,-18 9.941,0 17.999,8.059 17.999,18 0,9.941 -8.058,18 -17.999,18" id="path34" style="fill:#dd2e44;fill-opacity:1;fill-rule:nonzero;stroke:none"/></g></g></g></g></svg>
