<svg xmlns="http://www.w3.org/2000/svg" viewBox="0 0 47.5 47.5" enable-background="new 0 0 47.5 47.5"><defs><clipPath id="a"><path d="M0 38h38V0H0v38z"/></clipPath></defs><g><g><g clip-path="url(#a)" transform="matrix(1.25 0 0 -1.25 0 47.5)"><g><path fill="#3b88c3" d="M5 1C2.8 1 1 2.8 1 5v28c0 2.2 1.8 4 4 4h28c2.2 0 4-1.8 4-4V5c0-2.2-1.8-4-4-4H5z"/></g><g><path fill="#fff" d="M27 6.8l6 7.2h-4v8c0 5.52-4.48 10-10 10-1.4 0-2.76-.3-3.98-.83l2.75-3.3c.4.1.8.13 1.23.13 3.3 0 6-2.7 6-6v-8h-4l6-7.2z"/></g><g><path fill="#fff" d="M22.98 6.83l-2.75 3.3c-.4-.1-.8-.13-1.23-.13-3.3 0-6 2.7-6 6v8h4l-6 7.2L5 24h4v-8c0-5.52 4.48-10 10-10 1.4 0 2.76.3 3.98.83"/></g></g></g></g></svg>