<?xml version="1.0" encoding="UTF-8" standalone="no"?><svg xmlns:svg="http://www.w3.org/2000/svg" xmlns="http://www.w3.org/2000/svg" version="1.1" viewBox="0 0 47.5 47.5" style="enable-background:new 0 0 47.5 47.5;" id="svg2" xml:space="preserve"><defs id="defs6"><clipPath id="clipPath18"><path d="M 0,38 38,38 38,0 0,0 0,38 z" id="path20"/></clipPath></defs><g transform="matrix(1.25,0,0,-1.25,0,47.5)" id="g12"><g id="g14"><g clip-path="url(#clipPath18)" id="g16"><g transform="translate(19,13)" id="g22"><path d="m 0,0 c -3.313,0 -6,2.686 -6,6 0,3.313 2.687,6 6,6 C 3.313,12 6,9.313 6,6 6,2.686 3.313,0 0,0 M 0,16 C -5.523,16 -10,11.522 -10,6 -10,0.477 -5.523,-4 0,-4 5.523,-4 10,0.477 10,6 10,11.522 5.523,16 0,16" id="path24" style="fill:#ffac33;fill-opacity:1;fill-rule:nonzero;stroke:none"/></g><g transform="translate(21,31.9995)" id="g26"><path d="m 0,0 c 0,1.104 -0.896,2 -2,2 -1.104,0 -2,-0.896 -2,-2 0,-1.104 0.896,-2 2,-2 1.104,0 2,0.896 2,2" id="path28" style="fill:#ffac33;fill-opacity:1;fill-rule:nonzero;stroke:none"/></g><g transform="translate(21,6)" id="g30"><path d="m 0,0 c 0,-1.104 -0.896,-2 -2,-2 -1.104,0 -2,0.896 -2,2 0,1.104 0.896,2 2,2 1.104,0 2,-0.896 2,-2" id="path32" style="fill:#ffac33;fill-opacity:1;fill-rule:nonzero;stroke:none"/></g><g transform="translate(11.2217,29.606)" id="g34"><path d="m 0,0 c -0.781,0.781 -2.047,0.781 -2.828,0 -0.781,-0.781 -0.781,-2.047 0,-2.828 0.781,-0.781 2.047,-0.781 2.828,0 0.781,0.781 0.781,2.047 0,2.828" id="path36" style="fill:#ffac33;fill-opacity:1;fill-rule:nonzero;stroke:none"/></g><g transform="translate(29.6064,11.2217)" id="g38"><path d="m 0,0 c 0.781,-0.78 0.781,-2.048 0,-2.828 -0.781,-0.781 -2.047,-0.78 -2.828,0 -0.781,0.781 -0.781,2.047 0,2.828 0.781,0.78 2.047,0.781 2.828,0" id="path40" style="fill:#ffac33;fill-opacity:1;fill-rule:nonzero;stroke:none"/></g><g transform="translate(6.0005,21)" id="g42"><path d="m 0,0 c -1.104,0 -2,-0.896 -2,-2 0,-1.104 0.896,-2 2,-2 1.104,0 2,0.896 2,2 0,1.104 -0.896,2 -2,2" id="path44" style="fill:#ffac33;fill-opacity:1;fill-rule:nonzero;stroke:none"/></g><g transform="translate(32,21)" id="g46"><path d="m 0,0 c 1.104,0 2,-0.896 2,-2 0,-1.104 -0.896,-2 -2,-2 -1.104,0 -2,0.896 -2,2 0,1.104 0.896,2 2,2" id="path48" style="fill:#ffac33;fill-opacity:1;fill-rule:nonzero;stroke:none"/></g><g transform="translate(29.6055,26.7783)" id="g50"><path d="m 0,0 c 0.781,0.781 0.781,2.047 0.001,2.828 -0.781,0.781 -2.048,0.781 -2.829,0 C -3.608,2.047 -3.609,0.781 -2.828,0 -2.047,-0.781 -0.78,-0.781 0,0" id="path52" style="fill:#ffac33;fill-opacity:1;fill-rule:nonzero;stroke:none"/></g><g transform="translate(11.2217,8.3936)" id="g54"><path d="m 0,0 c -0.781,-0.781 -2.047,-0.781 -2.828,0 -0.781,0.781 -0.781,2.047 0,2.828 0.781,0.781 2.047,0.781 2.828,0 C 0.781,2.047 0.781,0.781 0,0" id="path56" style="fill:#ffac33;fill-opacity:1;fill-rule:nonzero;stroke:none"/></g></g></g></g></svg>
