<?xml version="1.0" encoding="UTF-8" standalone="no"?><svg xmlns:svg="http://www.w3.org/2000/svg" xmlns="http://www.w3.org/2000/svg" version="1.1" viewBox="0 0 47.5 47.5" style="enable-background:new 0 0 47.5 47.5;" id="svg2" xml:space="preserve"><defs id="defs6"><clipPath id="clipPath18"><path d="M 0,38 38,38 38,0 0,0 0,38 z" id="path20"/></clipPath></defs><g transform="matrix(1.25,0,0,-1.25,0,47.5)" id="g12"><g id="g14"><g clip-path="url(#clipPath18)" id="g16"><g transform="translate(11.4141,14.3438)" id="g22"><path d="m 0,0 3.711,3.711 c -1.396,1.962 -2.226,4.354 -2.226,6.945 0,6.628 5.373,12 12,12 6.628,0 12,-5.372 12,-12 0,-6.627 -5.372,-12 -12,-12 -2.59,0 -4.984,0.83 -6.945,2.227 L 2.828,-2.828 0,0 z" id="path24" style="fill:#9aaab4;fill-opacity:1;fill-rule:nonzero;stroke:none"/></g><g transform="translate(16.8994,25)" id="g26"><path d="m 0,0 c 0,-4.418 3.581,-8 8,-8 4.419,0 8,3.582 8,8 C 16,4.418 12.419,8 8,8 3.581,8 0,4.418 0,0" id="path28" style="fill:#bdddf4;fill-opacity:1;fill-rule:nonzero;stroke:none"/></g><g transform="translate(2.1719,7.8281)" id="g30"><path d="m 0,0 8.485,8.484 c 0.782,0.782 2.047,0.782 2.828,0 l 2.829,-2.828 c 0.781,-0.781 0.781,-2.047 0,-2.828 L 11.313,0 5.657,-5.656 c -1.562,-1.563 -4.095,-1.563 -5.658,0 C -1.563,-4.096 -1.562,-1.563 0,0" id="path32" style="fill:#67757f;fill-opacity:1;fill-rule:nonzero;stroke:none"/></g></g></g></g></svg>
