<?xml version="1.0" encoding="UTF-8" standalone="no"?>
<!-- Created with Inkscape (http://www.inkscape.org/) -->

<svg
   xmlns:svg="http://www.w3.org/2000/svg"
   xmlns="http://www.w3.org/2000/svg"
   version="1.1"
   width="47.5"
   height="47.5"
   id="svg2"
   xml:space="preserve"><defs
     id="defs6"><clipPath
       id="clipPath18"><path
         d="M 0,38 38,38 38,0 0,0 0,38 z"
         id="path20" /></clipPath></defs><g
     transform="matrix(1.25,0,0,-1.25,0,47.5)"
     id="g12"><g
       id="g14"><g
         clip-path="url(#clipPath18)"
         id="g16"><g
           transform="translate(21,31)"
           id="g22"><path
             d="m 0,0 c 0,-1.104 -0.896,-2 -2,-2 -1.104,0 -2,0.896 -2,2 l 0,4 c 0,1.104 0.896,2 2,2 1.104,0 2,-0.896 2,-2 L 0,0 z"
             id="path24"
             style="fill:#ffac33;fill-opacity:1;fill-rule:nonzero;stroke:none" /></g><g
           transform="translate(21,3)"
           id="g26"><path
             d="m 0,0 c 0,-1.104 -0.896,-2 -2,-2 -1.104,0 -2,0.896 -2,2 l 0,4 c 0,1.104 0.896,2 2,2 1.104,0 2,-0.896 2,-2 L 0,0 z"
             id="path28"
             style="fill:#ffac33;fill-opacity:1;fill-rule:nonzero;stroke:none" /></g><g
           transform="translate(7,21)"
           id="g30"><path
             d="M 0,0 C 1.104,0 2,-0.896 2,-2 2,-3.104 1.104,-4 0,-4 l -4,0 c -1.104,0 -2,0.896 -2,2 0,1.104 0.896,2 2,2 l 4,0 z"
             id="path32"
             style="fill:#ffac33;fill-opacity:1;fill-rule:nonzero;stroke:none" /></g><g
           transform="translate(35,21)"
           id="g34"><path
             d="M 0,0 C 1.104,0 2,-0.896 2,-2 2,-3.104 1.104,-4 0,-4 l -4,0 c -1.104,0 -2,0.896 -2,2 0,1.104 0.896,2 2,2 l 4,0 z"
             id="path36"
             style="fill:#ffac33;fill-opacity:1;fill-rule:nonzero;stroke:none" /></g><g
           transform="translate(9.1006,11.9287)"
           id="g38"><path
             d="m 0,0 c 0.781,0.78 2.047,0.781 2.828,0 0.781,-0.78 0.781,-2.048 0,-2.828 L 0,-5.657 c -0.781,-0.78 -2.048,-0.78 -2.828,0 -0.781,0.781 -0.781,2.048 0,2.828 L 0,0 z"
             id="path40"
             style="fill:#ffac33;fill-opacity:1;fill-rule:nonzero;stroke:none" /></g><g
           transform="translate(28.8994,31.7275)"
           id="g42"><path
             d="m 0,0 c 0.781,0.781 2.047,0.782 2.828,0 0.781,-0.78 0.781,-2.047 0,-2.828 L 0,-5.656 c -0.781,-0.781 -2.048,-0.781 -2.828,-0.001 -0.781,0.782 -0.781,2.048 0,2.829 L 0,0 z"
             id="path44"
             style="fill:#ffac33;fill-opacity:1;fill-rule:nonzero;stroke:none" /></g><g
           transform="translate(26.0713,9.1006)"
           id="g46"><path
             d="m 0,0 c -0.78,0.781 -0.781,2.047 0,2.828 0.78,0.781 2.048,0.781 2.828,0 L 5.657,0 c 0.78,-0.781 0.78,-2.048 0,-2.828 -0.781,-0.781 -2.048,-0.781 -2.828,0 L 0,0 z"
             id="path48"
             style="fill:#ffac33;fill-opacity:1;fill-rule:nonzero;stroke:none" /></g><g
           transform="translate(19,14)"
           id="g50"><path
             d="m 0,0 c -2.761,0 -5,2.238 -5,5 0,2.761 2.239,5 5,5 C 2.762,10 5,7.761 5,5 5,2.238 2.762,0 0,0 m 0,14 c -4.971,0 -9,-4.03 -9,-9 0,-4.971 4.029,-9 9,-9 4.971,0 9,4.029 9,9 0,4.97 -4.029,9 -9,9"
             id="path52"
             style="fill:#ffac33;fill-opacity:1;fill-rule:nonzero;stroke:none" /></g><g
           transform="translate(6.2725,28.8994)"
           id="g54"><path
             d="m 0,0 c -0.781,0.781 -0.782,2.047 0,2.828 0.78,0.781 2.047,0.781 2.828,0 L 5.656,0 c 0.781,-0.781 0.781,-2.048 0.001,-2.828 -0.782,-0.781 -2.048,-0.781 -2.829,0 L 0,0 z"
             id="path56"
             style="fill:#ffac33;fill-opacity:1;fill-rule:nonzero;stroke:none" /></g></g></g></g></svg>