<svg xmlns="http://www.w3.org/2000/svg" viewBox="0 0 47.5 47.5" enable-background="new 0 0 47.5 47.5"><defs><clipPath id="a"><path d="M0 38h38V0H0v38z"/></clipPath></defs><g><g><g clip-path="url(#a)" transform="matrix(1.25 0 0 -1.25 0 47.5)"><g><path fill="#ccd6dd" d="M14 37c-4.97 0-9-4.03-9-9V17h4v11c0 2.76 2.24 5 5 5s5-2.24 5-5V17h4v11c0 4.97-4.03 9-9 9"/></g><g><path fill="#fdcb58" d="M27 5c0-2.2-1.8-4-4-4H5C2.8 1 1 2.8 1 5v12c0 2.2 1.8 4 4 4h18c2.2 0 4-1.8 4-4V5z"/></g><g><path fill="#9aaab4" d="M33 15l-16 4-11-7h12.18c.42 1.16 1.5 2 2.82 2 1.66 0 3-1.34 3-3s-1.34-3-3-3c-1.3 0-2.4.84-2.82 2H6l11-7 16 4-1 4 1 4z"/></g><g><path fill="#292f33" d="M37 19h-3c-.55 0-1.2-.4-1.45-.9l-3.1-6.2c-.25-.5-.25-1.3 0-1.8l3.1-6.2c.25-.5.9-.9 1.45-.9h3v16z"/></g></g></g></g></svg>