<svg xmlns="http://www.w3.org/2000/svg" viewBox="0 0 47.5 47.5" enable-background="new 0 0 47.5 47.5"><defs><clipPath id="a"><path d="M0 38h38V0H0v38z"/></clipPath></defs><g><g><g clip-path="url(#a)" transform="matrix(1.25 0 0 -1.25 0 47.5)"><g><path fill="#9aaab4" d="M11.4 14.34l3.73 3.7c-1.4 1.98-2.23 4.37-2.23 6.96 0 6.63 5.37 12 12 12s12-5.37 12-12-5.37-12-12-12c-2.6 0-4.98.83-6.95 2.23l-3.7-3.7-2.84 2.8z"/></g><g><path fill="#bdddf4" d="M16.9 25c0-4.42 3.58-8 8-8s8 3.58 8 8-3.58 8-8 8-8-3.58-8-8"/></g><g><path fill="#67757f" d="M2.17 7.83l8.5 8.48c.77.8 2.03.8 2.8 0l2.84-2.82c.8-.78.8-2.04 0-2.82L13.5 7.83 7.83 2.17C6.27.6 3.73.6 2.17 2.17.6 3.73.6 6.27 2.17 7.83"/></g></g></g></g></svg>