<?xml version="1.0" encoding="UTF-8" standalone="no"?><svg xmlns:dc="http://purl.org/dc/elements/1.1/" xmlns:cc="http://creativecommons.org/ns#" xmlns:rdf="http://www.w3.org/1999/02/22-rdf-syntax-ns#" xmlns:svg="http://www.w3.org/2000/svg" xmlns="http://www.w3.org/2000/svg" viewBox="0 0 47.5 47.5" style="enable-background:new 0 0 47.5 47.5;" xml:space="preserve" version="1.1" id="svg2"><metadata id="metadata8"><rdf:RDF><cc:Work rdf:about=""><dc:format>image/svg+xml</dc:format><dc:type rdf:resource="http://purl.org/dc/dcmitype/StillImage"/></cc:Work></rdf:RDF></metadata><defs id="defs6"><clipPath id="clipPath16" clipPathUnits="userSpaceOnUse"><path id="path18" d="M 0,38 38,38 38,0 0,0 0,38 Z"/></clipPath></defs><g transform="matrix(1.25,0,0,-1.25,0,47.5)" id="g10"><g id="g12"><g clip-path="url(#clipPath16)" id="g14"><g transform="translate(14,37)" id="g20"><path id="path22" style="fill:#ccd6dd;fill-opacity:1;fill-rule:nonzero;stroke:none" d="m 0,0 c -4.971,0 -9,-4.029 -9,-9 l 0,-11 4,0 0,11 c 0,2.761 2.239,5 5,5 2.761,0 5,-2.239 5,-5 l 0,-11 4,0 0,11 C 9,-4.029 4.971,0 0,0"/></g><g transform="translate(27,5)" id="g24"><path id="path26" style="fill:#fdcb58;fill-opacity:1;fill-rule:nonzero;stroke:none" d="m 0,0 c 0,-2.209 -1.791,-4 -4,-4 l -18,0 c -2.209,0 -4,1.791 -4,4 l 0,12 c 0,2.209 1.791,4 4,4 l 18,0 c 2.209,0 4,-1.791 4,-4 L 0,0 Z"/></g><g transform="translate(33,15)" id="g28"><path id="path30" style="fill:#9aaab4;fill-opacity:1;fill-rule:nonzero;stroke:none" d="m 0,0 -16,4 -11,-7 12.184,0 c 0.413,1.163 1.511,2 2.816,2 1.656,0 3,-1.343 3,-3 0,-1.657 -1.344,-3 -3,-3 -1.305,0 -2.403,0.837 -2.816,2 L -27,-5 l 11,-7 16,4 -1,4 1,4 z"/></g><g transform="translate(37,18.9995)" id="g32"><path id="path34" style="fill:#292f33;fill-opacity:1;fill-rule:nonzero;stroke:none" d="m 0,0 -3,0 c -0.55,0 -1.201,-0.402 -1.447,-0.894 l -3.106,-6.211 c -0.246,-0.492 -0.246,-1.297 0,-1.789 l 3.106,-6.211 C -4.201,-15.597 -3.55,-16 -3,-16 l 3,0 0,16 z"/></g></g></g></g></svg>
