<?xml version="1.0" encoding="UTF-8" standalone="no"?>
<!-- Created with Inkscape (http://www.inkscape.org/) -->

<svg
   xmlns:svg="http://www.w3.org/2000/svg"
   xmlns="http://www.w3.org/2000/svg"
   version="1.1"
   width="47.5"
   height="47.5"
   id="svg2"
   xml:space="preserve"><defs
     id="defs6"><clipPath
       id="clipPath18"><path
         d="M 0,38 38,38 38,0 0,0 0,38 z"
         id="path20" /></clipPath></defs><g
     transform="matrix(1.25,0,0,-1.25,0,47.5)"
     id="g12"><g
       id="g14"><g
         clip-path="url(#clipPath18)"
         id="g16"><g
           transform="translate(37,5)"
           id="g22"><path
             d="m 0,0 c 0,-2.209 -1.791,-4 -4,-4 l -28,0 c -2.209,0 -4,1.791 -4,4 l 0,28 c 0,2.209 1.791,4 4,4 l 28,0 c 2.209,0 4,-1.791 4,-4 L 0,0 z"
             id="path24"
             style="fill:#3b88c3;fill-opacity:1;fill-rule:nonzero;stroke:none" /></g><g
           transform="translate(31.2002,27)"
           id="g26"><path
             d="m 0,0 -7.2,6 0,-4 -8,0 c -5.523,0 -10,-4.477 -10,-10 0,-1.414 0.297,-2.758 0.827,-3.978 l 3.3,2.75 c -0.083,0.396 -0.127,0.807 -0.127,1.228 0,3.314 2.686,6 6,6 l 8,0 0,-4 7.2,6 z"
             id="path28"
             style="fill:#ffffff;fill-opacity:1;fill-rule:nonzero;stroke:none" /></g><g
           transform="translate(31.1738,22.9771)"
           id="g30"><path
             d="m 0,0 -3.301,-2.75 c 0.083,-0.396 0.127,-0.806 0.127,-1.227 0,-3.314 -2.686,-6 -6,-6 l -8,0 0,4 -7.2,-6 7.2,-6 0,4 8,0 c 5.523,0 10,4.477 10,10 C 0.826,-2.563 0.529,-1.219 0,0"
             id="path32"
             style="fill:#ffffff;fill-opacity:1;fill-rule:nonzero;stroke:none" /></g></g></g></g></svg>