<?xml version="1.0" encoding="UTF-8" standalone="no"?><svg xmlns:dc="http://purl.org/dc/elements/1.1/" xmlns:cc="http://creativecommons.org/ns#" xmlns:rdf="http://www.w3.org/1999/02/22-rdf-syntax-ns#" xmlns:svg="http://www.w3.org/2000/svg" xmlns="http://www.w3.org/2000/svg" viewBox="0 0 47.5 47.5" style="enable-background:new 0 0 47.5 47.5;" xml:space="preserve" version="1.1" id="svg2"><metadata id="metadata8"><rdf:RDF><cc:Work rdf:about=""><dc:format>image/svg+xml</dc:format><dc:type rdf:resource="http://purl.org/dc/dcmitype/StillImage"/></cc:Work></rdf:RDF></metadata><defs id="defs6"><clipPath id="clipPath16" clipPathUnits="userSpaceOnUse"><path id="path18" d="M 0,38 38,38 38,0 0,0 0,38 Z"/></clipPath></defs><g transform="matrix(1.25,0,0,-1.25,0,47.5)" id="g10"><g id="g12"><g clip-path="url(#clipPath16)" id="g14"><g transform="translate(21,31)" id="g20"><path id="path22" style="fill:#ffac33;fill-opacity:1;fill-rule:nonzero;stroke:none" d="m 0,0 c 0,-1.104 -0.896,-2 -2,-2 -1.104,0 -2,0.896 -2,2 l 0,4 c 0,1.104 0.896,2 2,2 1.104,0 2,-0.896 2,-2 L 0,0 Z"/></g><g transform="translate(21,3)" id="g24"><path id="path26" style="fill:#ffac33;fill-opacity:1;fill-rule:nonzero;stroke:none" d="m 0,0 c 0,-1.104 -0.896,-2 -2,-2 -1.104,0 -2,0.896 -2,2 l 0,4 c 0,1.104 0.896,2 2,2 1.104,0 2,-0.896 2,-2 L 0,0 Z"/></g><g transform="translate(7,21)" id="g28"><path id="path30" style="fill:#ffac33;fill-opacity:1;fill-rule:nonzero;stroke:none" d="M 0,0 C 1.104,0 2,-0.896 2,-2 2,-3.104 1.104,-4 0,-4 l -4,0 c -1.104,0 -2,0.896 -2,2 0,1.104 0.896,2 2,2 l 4,0 z"/></g><g transform="translate(35,21)" id="g32"><path id="path34" style="fill:#ffac33;fill-opacity:1;fill-rule:nonzero;stroke:none" d="M 0,0 C 1.104,0 2,-0.896 2,-2 2,-3.104 1.104,-4 0,-4 l -4,0 c -1.104,0 -2,0.896 -2,2 0,1.104 0.896,2 2,2 l 4,0 z"/></g><g transform="translate(9.1006,11.9287)" id="g36"><path id="path38" style="fill:#ffac33;fill-opacity:1;fill-rule:nonzero;stroke:none" d="m 0,0 c 0.781,0.78 2.047,0.781 2.828,0 0.781,-0.78 0.781,-2.048 0,-2.828 L 0,-5.657 c -0.781,-0.78 -2.048,-0.78 -2.828,0 -0.781,0.781 -0.781,2.048 0,2.828 L 0,0 Z"/></g><g transform="translate(28.8994,31.7275)" id="g40"><path id="path42" style="fill:#ffac33;fill-opacity:1;fill-rule:nonzero;stroke:none" d="m 0,0 c 0.781,0.781 2.047,0.782 2.828,0 0.781,-0.78 0.781,-2.047 0,-2.828 L 0,-5.656 c -0.781,-0.781 -2.048,-0.781 -2.828,-0.001 -0.781,0.782 -0.781,2.048 0,2.829 L 0,0 Z"/></g><g transform="translate(26.0713,9.1006)" id="g44"><path id="path46" style="fill:#ffac33;fill-opacity:1;fill-rule:nonzero;stroke:none" d="m 0,0 c -0.78,0.781 -0.781,2.047 0,2.828 0.78,0.781 2.048,0.781 2.828,0 L 5.657,0 c 0.78,-0.781 0.78,-2.048 0,-2.828 -0.781,-0.781 -2.048,-0.781 -2.828,0 L 0,0 Z"/></g><g transform="translate(19,14)" id="g48"><path id="path50" style="fill:#ffac33;fill-opacity:1;fill-rule:nonzero;stroke:none" d="m 0,0 c -2.761,0 -5,2.238 -5,5 0,2.761 2.239,5 5,5 C 2.762,10 5,7.761 5,5 5,2.238 2.762,0 0,0 m 0,14 c -4.971,0 -9,-4.03 -9,-9 0,-4.971 4.029,-9 9,-9 4.971,0 9,4.029 9,9 0,4.97 -4.029,9 -9,9"/></g><g transform="translate(6.2725,28.8994)" id="g52"><path id="path54" style="fill:#ffac33;fill-opacity:1;fill-rule:nonzero;stroke:none" d="m 0,0 c -0.781,0.781 -0.782,2.047 0,2.828 0.78,0.781 2.047,0.781 2.828,0 L 5.656,0 c 0.781,-0.781 0.781,-2.048 0.001,-2.828 -0.782,-0.781 -2.048,-0.781 -2.829,0 L 0,0 Z"/></g></g></g></g></svg>
