<svg xmlns="http://www.w3.org/2000/svg" viewBox="0 0 47.5 47.5" enable-background="new 0 0 47.5 47.5"><defs><clipPath id="a"><path d="M0 38h38V0H0v38z"/></clipPath><clipPath id="b"><path d="M0 38h38V0H0v38z"/></clipPath></defs><g><g><g clip-path="url(#a)" transform="matrix(1.25 0 0 -1.25 0 47.5)"><g><path d="M36 19c0 9.4-7.6 17-17 17S2 28.4 2 19 9.6 2 19 2s17 7.6 17 17"/></g><g><path fill="#fff" d="M10 25s-2 0-2-2v-8c0-2 2-2 2-2h5l6-6s1-1 2-1h1s1 0 1 1v24s0 1-1 1h-1c-1 0-2-1-2-1l-6-6h-5z"/></g></g></g><g><g clip-path="url(#b)" transform="matrix(1.25 0 0 -1.25 0 47.5)"><g><path fill="#dd2e44" d="M19 35c-8.84 0-16-7.16-16-16S10.16 3 19 3s16 7.16 16 16-7.16 16-16 16m18-16c0-9.94-8.06-18-18-18S1 9.06 1 19s8.06 18 18 18 18-8.06 18-18"/></g><g><path fill="#dd2e44" d="M29.62 5.62l-24.5 24.5 1.76 1.76 24.5-24.5-1.76-1.76z"/></g></g></g></g></svg>