<svg xmlns="http://www.w3.org/2000/svg" viewBox="0 0 47.5 47.5" enable-background="new 0 0 47.5 47.5"><defs><clipPath id="a"><path d="M0 38h38V0H0v38z"/></clipPath></defs><g><g><g clip-path="url(#a)" transform="matrix(1.25 0 0 -1.25 0 47.5)"><g><path fill="#8899a6" d="M3 27s-2 0-2-2V13c0-2 2-2 2-2h6l8-8s1-1 2-1h1s1 0 1 1v32s0 1-1 1h-1c-1 0-2-1-2-1l-8-8H3z"/></g><g><path fill="#ccd6dd" d="M9 11l8-8s1-1 2-1h1s1 0 1 1v32s0 1-1 1h-1c-1 0-2-1-2-1l-8-8V11z"/></g><g><path fill="#8899a6" d="M24.7 11.04c-.28 0-.57.13-.76.37-.36.43-.3 1.06.13 1.4C25.93 14.35 27 16.6 27 19c0 2.44-1.1 4.7-3 6.24-.42.34-.5.97-.14 1.4.35.43.98.5 1.4.15C27.65 24.87 29 22.03 29 19c0-3-1.33-5.82-3.66-7.73-.18-.15-.4-.23-.63-.23"/></g></g></g></g></svg>