<?xml version="1.0" encoding="UTF-8" standalone="no"?><svg xmlns:svg="http://www.w3.org/2000/svg" xmlns="http://www.w3.org/2000/svg" version="1.1" viewBox="0 0 47.5 47.5" style="enable-background:new 0 0 47.5 47.5;" id="svg2" xml:space="preserve"><defs id="defs6"><clipPath id="clipPath18"><path d="M 0,38 38,38 38,0 0,0 0,38 z" id="path20"/></clipPath></defs><g transform="matrix(1.25,0,0,-1.25,0,47.5)" id="g12"><g id="g14"><g clip-path="url(#clipPath18)" id="g16"><g transform="translate(3,27)" id="g22"><path d="m 0,0 c 0,0 -2,0 -2,-2 l 0,-12 c 0,-2 2,-2 2,-2 l 6,0 8,-8 c 0,0 1,-1 2,-1 l 1,0 c 0,0 1,0 1,1 l 0,32 c 0,0 0,1 -1,1 L 16,9 C 15,9 14,8 14,8 L 6,0 0,0 z" id="path24" style="fill:#8899a6;fill-opacity:1;fill-rule:nonzero;stroke:none"/></g><g transform="translate(9,11)" id="g26"><path d="m 0,0 8,-8 c 0,0 1,-1 2,-1 l 1,0 c 0,0 1,0 1,1 l 0,32 c 0,0 0,1 -1,1 l -1,0 C 9,25 8,24 8,24 L 0,16 0,0 z" id="path28" style="fill:#ccd6dd;fill-opacity:1;fill-rule:nonzero;stroke:none"/></g><g transform="translate(24.709,11.041)" id="g30"><path d="m 0,0 c -0.289,0 -0.576,0.124 -0.773,0.365 -0.351,0.427 -0.289,1.057 0.137,1.407 1.861,1.529 2.927,3.784 2.927,6.187 0,2.435 -1.089,4.708 -2.988,6.236 -0.431,0.347 -0.498,0.976 -0.153,1.406 0.348,0.429 0.977,0.499 1.407,0.152 C 2.93,13.843 4.291,11.002 4.291,7.959 4.291,4.955 2.958,2.137 0.634,0.228 0.448,0.074 0.223,0 0,0" id="path32" style="fill:#8899a6;fill-opacity:1;fill-rule:nonzero;stroke:none"/></g></g></g></g></svg>
