<svg xmlns="http://www.w3.org/2000/svg" viewBox="0 0 47.5 47.5" enable-background="new 0 0 47.5 47.5"><defs><clipPath id="a"><path d="M0 38h38V0H0v38z"/></clipPath></defs><g><g><g clip-path="url(#a)" transform="matrix(1.25 0 0 -1.25 0 47.5)"><g><path fill="#9aaab4" d="M12.86 20.74c.4-.4.4-1.03 0-1.42-.4-.4-1.03-.4-1.42 0l-8.48 8.5c-.4.38-.4 1 0 1.4.4.4 1.02.4 1.4 0l8.5-8.48z"/></g><g><path fill="#9aaab4" d="M19.93 27.8c.4-.38.4-1.02 0-1.4-.4-.4-1.03-.4-1.4 0l-8.5 8.48c-.4.4-.4 1.02 0 1.4.4.4 1.02.4 1.4 0l8.5-8.47z"/></g><g><path fill="#292f33" d="M35 1c0 4.97-2.56 8.58-4.56 10.65.9 1.53.7 3.53-.6 4.84l-1.1 1.1c.34 1.32 0 2.8-1.03 3.84l-4.94 4.95c.78.77.78 2.04 0 2.82-.78.78-2.05.78-2.83 0L17.1 26.4l-4.24-4.25-2.83-2.83c-.78-.78-.78-2.05 0-2.83.78-.8 2.05-.8 2.83 0l4.95-4.96c1.05-1.04 2.53-1.37 3.86-1.02l1.1-1.1c1.32-1.32 3.32-1.5 4.85-.6 1.5-1.55 3.4-4.22 3.4-7.82h4z"/></g></g></g></g></svg>