<?xml version="1.0" encoding="UTF-8" standalone="no"?><svg xmlns:svg="http://www.w3.org/2000/svg" xmlns="http://www.w3.org/2000/svg" version="1.1" viewBox="0 0 47.5 47.5" style="enable-background:new 0 0 47.5 47.5;" id="svg2" xml:space="preserve"><defs id="defs6"><clipPath id="clipPath18"><path d="M 0,38 38,38 38,0 0,0 0,38 z" id="path20"/></clipPath></defs><g transform="matrix(1.25,0,0,-1.25,0,47.5)" id="g12"><g id="g14"><g clip-path="url(#clipPath18)" id="g16"><g transform="translate(12.8584,20.7363)" id="g22"><path d="m 0,0 c 0.389,-0.389 0.389,-1.025 0,-1.414 -0.389,-0.389 -1.025,-0.389 -1.414,0 l -8.485,8.486 c -0.389,0.388 -0.389,1.025 0,1.414 0.388,0.389 1.025,0.389 1.414,0 L 0,0 z" id="path24" style="fill:#9aaab4;fill-opacity:1;fill-rule:nonzero;stroke:none"/></g><g transform="translate(19.9297,27.8071)" id="g26"><path d="m 0,0 c 0.389,-0.389 0.389,-1.025 0,-1.414 -0.389,-0.389 -1.025,-0.389 -1.414,0 L -9.9,7.072 c -0.389,0.388 -0.389,1.025 0,1.414 0.388,0.389 1.025,0.389 1.414,0 L 0,0 z" id="path28" style="fill:#9aaab4;fill-opacity:1;fill-rule:nonzero;stroke:none"/></g><g transform="translate(35,1)" id="g30"><path d="m 0,0 c 0,4.966 -2.56,8.581 -4.562,10.65 0.899,1.533 0.705,3.53 -0.61,4.844 l -1.099,1.099 c 0.352,1.332 0.022,2.806 -1.022,3.85 l -4.949,4.95 c 0.78,0.781 0.78,2.047 0,2.828 -0.781,0.781 -2.049,0.781 -2.829,0.001 l -2.826,-2.826 c -0.001,-0.001 -0.002,-0.002 -0.003,-0.003 l -4.243,-4.243 -2.828,-2.828 c -0.781,-0.781 -0.781,-2.047 0,-2.828 0.782,-0.781 2.047,-0.781 2.828,0 l 4.951,-4.95 c 1.044,-1.044 2.518,-1.373 3.849,-1.022 l 1.101,-1.1 C -10.924,7.104 -8.919,6.912 -7.385,7.82 -5.901,6.274 -4,3.596 -4,0 l 4,0 z" id="path32" style="fill:#292f33;fill-opacity:1;fill-rule:nonzero;stroke:none"/></g></g></g></g></svg>
