<svg xmlns="http://www.w3.org/2000/svg" viewBox="0 0 47.5 47.5" enable-background="new 0 0 47.5 47.5"><defs><clipPath id="a"><path d="M0 38h38V0H0v38z"/></clipPath></defs><g><g><g clip-path="url(#a)" transform="matrix(1.25 0 0 -1.25 0 47.5)"><g><path fill="#ccd6dd" d="M25 33c0-2.2-1.8-4-4-4h-4c-2.2 0-4 1.8-4 4s1.8 4 4 4h4c2.2 0 4-1.8 4-4"/></g><g><path fill="#e1e8ed" d="M31 5c0-2.2-1.8-4-4-4H11C8.8 1 7 2.8 7 5v24c0 2.2 1.8 4 4 4h16c2.2 0 4-1.8 4-4V5z"/></g><path fill="#78b159" d="M31 5H7v24h24V5z"/><g><path fill="#f5f8fa" d="M24 23h-3v3c0 .55-.45 1-1 1h-2c-.55 0-1-.45-1-1v-3h-3c-.55 0-1-.45-1-1v-2c0-.55.45-1 1-1h3v-3c0-.55.45-1 1-1h2c.55 0 1 .45 1 1v3h3c.55 0 1 .45 1 1v2c0 .55-.45 1-1 1"/></g><g><path fill="#f5f8fa" d="M14 7c-.55 0-1 .45-1 1v2c0 .55.45 1 1 1h10c.55 0 1-.45 1-1V8c0-.55-.45-1-1-1H14z"/></g></g></g></g></svg>