<svg xmlns="http://www.w3.org/2000/svg" viewBox="0 0 47.5 47.5" enable-background="new 0 0 47.5 47.5"><defs><clipPath id="a"><path d="M0 38h38V0H0v38z"/></clipPath></defs><g><g><g clip-path="url(#a)" transform="matrix(1.25 0 0 -1.25 0 47.5)"><g><path fill="#9aaab4" d="M26.5 14.34l-3.73 3.7C24.17 20.03 25 22.42 25 25c0 6.63-5.37 12-12 12S1 31.63 1 25s5.37-12 12-12c2.6 0 4.98.83 6.95 2.23l3.7-3.7 2.84 2.8z"/></g><g><path fill="#bdddf4" d="M21 25c0-4.42-3.58-8-8-8s-8 3.58-8 8 3.58 8 8 8 8-3.58 8-8"/></g><g><path fill="#67757f" d="M35.73 7.83l-8.5 8.48c-.77.8-2.03.8-2.82 0l-2.8-2.82c-.8-.78-.8-2.04 0-2.82l2.8-2.83 5.67-5.66c1.56-1.56 4.1-1.56 5.66 0 1.56 1.56 1.56 4.1 0 5.66"/></g></g></g></g></svg>