<?xml version="1.0" encoding="UTF-8" standalone="no"?><svg xmlns:svg="http://www.w3.org/2000/svg" xmlns="http://www.w3.org/2000/svg" version="1.1" viewBox="0 0 47.5 47.5" style="enable-background:new 0 0 47.5 47.5;" id="svg2" xml:space="preserve"><defs id="defs6"><clipPath id="clipPath18"><path d="M 0,38 38,38 38,0 0,0 0,38 z" id="path20"/></clipPath></defs><g transform="matrix(1.25,0,0,-1.25,0,47.5)" id="g12"><g id="g14"><g clip-path="url(#clipPath18)" id="g16"><g transform="translate(37,5)" id="g22"><path d="m 0,0 c 0,-2.209 -1.791,-4 -4,-4 l -28,0 c -2.209,0 -4,1.791 -4,4 l 0,28 c 0,2.209 1.791,4 4,4 l 28,0 c 2.209,0 4,-1.791 4,-4 L 0,0 z" id="path24" style="fill:#3b88c3;fill-opacity:1;fill-rule:nonzero;stroke:none"/></g><g transform="translate(13.9526,21.2827)" id="g26"><path d="M 0,0 C 0.549,1.394 1.234,2.861 2.175,4.142 0.997,5.653 -0.602,6.717 -2.953,6.717 l -3,0 0,-4 3,0 C -1.646,2.717 -0.834,1.821 0,0" id="path28" style="fill:#ffffff;fill-opacity:1;fill-rule:nonzero;stroke:none"/></g><g transform="translate(20.4805,15.8594)" id="g30"><path d="m 0,0 c -0.479,-1.314 -1.059,-2.777 -1.852,-4.132 1.089,-1.046 2.489,-1.727 4.372,-1.727 l 3,0 0,4 -3,0 C 1.437,-1.859 0.697,-1.239 0,0" id="path32" style="fill:#ffffff;fill-opacity:1;fill-rule:nonzero;stroke:none"/></g><g transform="translate(11,10)" id="g34"><path d="m 0,0 -3,0 0,4 3,0 C 1.884,4 2.739,5.816 4.117,9.673 5.441,13.383 7.09,18 12,18 l 3,0 0,-4 -3,0 C 10.115,14 9.261,12.183 7.883,8.327 6.559,4.617 4.91,0 0,0" id="path36" style="fill:#ffffff;fill-opacity:1;fill-rule:nonzero;stroke:none"/></g><g transform="translate(31.2002,26)" id="g38"><path d="M 0,0 -7.2,6 -7.2,-6 0,0 z" id="path40" style="fill:#ffffff;fill-opacity:1;fill-rule:nonzero;stroke:none"/></g><g transform="translate(31.2002,12)" id="g42"><path d="M 0,0 -7.2,6 -7.2,-6 0,0 z" id="path44" style="fill:#ffffff;fill-opacity:1;fill-rule:nonzero;stroke:none"/></g></g></g></g></svg>
