<?xml version="1.0" encoding="UTF-8" standalone="no"?><svg xmlns:dc="http://purl.org/dc/elements/1.1/" xmlns:cc="http://creativecommons.org/ns#" xmlns:rdf="http://www.w3.org/1999/02/22-rdf-syntax-ns#" xmlns:svg="http://www.w3.org/2000/svg" xmlns="http://www.w3.org/2000/svg" viewBox="0 0 47.5 47.5" style="enable-background:new 0 0 47.5 47.5;" xml:space="preserve" version="1.1" id="svg2"><metadata id="metadata8"><rdf:RDF><cc:Work rdf:about=""><dc:format>image/svg+xml</dc:format><dc:type rdf:resource="http://purl.org/dc/dcmitype/StillImage"/></cc:Work></rdf:RDF></metadata><defs id="defs6"><clipPath id="clipPath16" clipPathUnits="userSpaceOnUse"><path id="path18" d="M 0,38 38,38 38,0 0,0 0,38 Z"/></clipPath></defs><g transform="matrix(1.25,0,0,-1.25,0,47.5)" id="g10"><g id="g12"><g clip-path="url(#clipPath16)" id="g14"><g transform="translate(19,13)" id="g20"><path id="path22" style="fill:#ffac33;fill-opacity:1;fill-rule:nonzero;stroke:none" d="m 0,0 c -3.313,0 -6,2.686 -6,6 0,3.313 2.687,6 6,6 C 3.313,12 6,9.313 6,6 6,2.686 3.313,0 0,0 M 0,16 C -5.523,16 -10,11.522 -10,6 -10,0.477 -5.523,-4 0,-4 5.523,-4 10,0.477 10,6 10,11.522 5.523,16 0,16"/></g><g transform="translate(21,31.9995)" id="g24"><path id="path26" style="fill:#ffac33;fill-opacity:1;fill-rule:nonzero;stroke:none" d="m 0,0 c 0,1.104 -0.896,2 -2,2 -1.104,0 -2,-0.896 -2,-2 0,-1.104 0.896,-2 2,-2 1.104,0 2,0.896 2,2"/></g><g transform="translate(21,6)" id="g28"><path id="path30" style="fill:#ffac33;fill-opacity:1;fill-rule:nonzero;stroke:none" d="m 0,0 c 0,-1.104 -0.896,-2 -2,-2 -1.104,0 -2,0.896 -2,2 0,1.104 0.896,2 2,2 1.104,0 2,-0.896 2,-2"/></g><g transform="translate(11.2217,29.606)" id="g32"><path id="path34" style="fill:#ffac33;fill-opacity:1;fill-rule:nonzero;stroke:none" d="m 0,0 c -0.781,0.781 -2.047,0.781 -2.828,0 -0.781,-0.781 -0.781,-2.047 0,-2.828 0.781,-0.781 2.047,-0.781 2.828,0 0.781,0.781 0.781,2.047 0,2.828"/></g><g transform="translate(29.6064,11.2217)" id="g36"><path id="path38" style="fill:#ffac33;fill-opacity:1;fill-rule:nonzero;stroke:none" d="m 0,0 c 0.781,-0.78 0.781,-2.048 0,-2.828 -0.781,-0.781 -2.047,-0.78 -2.828,0 -0.781,0.781 -0.781,2.047 0,2.828 0.781,0.78 2.047,0.781 2.828,0"/></g><g transform="translate(6.0005,21)" id="g40"><path id="path42" style="fill:#ffac33;fill-opacity:1;fill-rule:nonzero;stroke:none" d="m 0,0 c -1.104,0 -2,-0.896 -2,-2 0,-1.104 0.896,-2 2,-2 1.104,0 2,0.896 2,2 0,1.104 -0.896,2 -2,2"/></g><g transform="translate(32,21)" id="g44"><path id="path46" style="fill:#ffac33;fill-opacity:1;fill-rule:nonzero;stroke:none" d="m 0,0 c 1.104,0 2,-0.896 2,-2 0,-1.104 -0.896,-2 -2,-2 -1.104,0 -2,0.896 -2,2 0,1.104 0.896,2 2,2"/></g><g transform="translate(29.6055,26.7783)" id="g48"><path id="path50" style="fill:#ffac33;fill-opacity:1;fill-rule:nonzero;stroke:none" d="m 0,0 c 0.781,0.781 0.781,2.047 0.001,2.828 -0.781,0.781 -2.048,0.781 -2.829,0 C -3.608,2.047 -3.609,0.781 -2.828,0 -2.047,-0.781 -0.78,-0.781 0,0"/></g><g transform="translate(11.2217,8.3936)" id="g52"><path id="path54" style="fill:#ffac33;fill-opacity:1;fill-rule:nonzero;stroke:none" d="m 0,0 c -0.781,-0.781 -2.047,-0.781 -2.828,0 -0.781,0.781 -0.781,2.047 0,2.828 0.781,0.781 2.047,0.781 2.828,0 C 0.781,2.047 0.781,0.781 0,0"/></g></g></g></g></svg>
