<svg xmlns="http://www.w3.org/2000/svg" viewBox="0 0 47.5 47.5" enable-background="new 0 0 47.5 47.5"><defs><clipPath id="a"><path d="M0 38h38V0H0v38z"/></clipPath></defs><g><g><g clip-path="url(#a)" transform="matrix(1.25 0 0 -1.25 0 47.5)"><g><path fill="#3b88c3" d="M37 5c0-2.2-1.8-4-4-4H5C2.8 1 1 2.8 1 5v28c0 2.2 1.8 4 4 4h28c2.2 0 4-1.8 4-4V5z"/></g><g><path fill="#fff" d="M23.24 14.76l2.83-2.83c-3.9-3.9-10.24-3.9-14.14 0-2.25 2.25-3.2 5.3-2.86 8.22l-4.03-.36c-.22-3.85 1.13-7.77 4.06-10.7 5.47-5.47 14.33-5.47 19.8 0l2.83-2.83.85 9.34-9.34-.84z"/></g><g><path fill="#fff" d="M28.9 28.9c-5.47 5.47-14.33 5.47-19.8 0l-2.83 2.83-.85-9.34 9.34.84-2.83 2.83c3.9 3.9 10.24 3.9 14.14 0 2.25-2.25 3.2-5.3 2.86-8.22l4.03.36c.22 3.85-1.13 7.76-4.06 10.7"/></g></g></g></g></svg>