<svg xmlns="http://www.w3.org/2000/svg" viewBox="0 0 47.5 47.5" enable-background="new 0 0 47.5 47.5"><defs><clipPath id="a"><path d="M0 38h38V0H0v38z"/></clipPath></defs><g><g><g clip-path="url(#a)" transform="matrix(1.25 0 0 -1.25 0 47.5)"><g><path fill="#ffac33" d="M19 13c-3.3 0-6 2.7-6 6s2.7 6 6 6 6-2.7 6-6-2.7-6-6-6m0 16c-5.52 0-10-4.48-10-10S13.48 9 19 9s10 4.48 10 10-4.48 10-10 10"/></g><g><path fill="#ffac33" d="M21 32c0 1.1-.9 2-2 2s-2-.9-2-2 .9-2 2-2 2 .9 2 2"/></g><g><path fill="#ffac33" d="M21 6c0-1.1-.9-2-2-2s-2 .9-2 2 .9 2 2 2 2-.9 2-2"/></g><g><path fill="#ffac33" d="M11.22 29.6c-.78.8-2.05.8-2.83 0-.8-.77-.8-2.04 0-2.82.77-.78 2.04-.78 2.82 0 .78.78.78 2.05 0 2.83"/></g><g><path fill="#ffac33" d="M29.6 11.22c.8-.78.8-2.05 0-2.83-.77-.8-2.04-.8-2.82 0-.78.77-.78 2.04 0 2.82.78.78 2.05.78 2.83 0"/></g><g><path fill="#ffac33" d="M6 21c-1.1 0-2-.9-2-2s.9-2 2-2 2 .9 2 2-.9 2-2 2"/></g><g><path fill="#ffac33" d="M32 21c1.1 0 2-.9 2-2s-.9-2-2-2-2 .9-2 2 .9 2 2 2"/></g><g><path fill="#ffac33" d="M29.6 26.78c.8.78.8 2.05 0 2.83-.77.8-2.04.8-2.82 0-.78-.77-.78-2.04 0-2.82.78-.78 2.05-.78 2.83 0"/></g><g><path fill="#ffac33" d="M11.22 8.4c-.78-.8-2.05-.8-2.83 0-.8.77-.8 2.04 0 2.82.77.78 2.04.78 2.82 0 .78-.78.78-2.05 0-2.83"/></g></g></g></g></svg>