<?xml version="1.0" encoding="UTF-8" standalone="no"?><svg xmlns:svg="http://www.w3.org/2000/svg" xmlns="http://www.w3.org/2000/svg" version="1.1" viewBox="0 0 47.5 47.5" style="enable-background:new 0 0 47.5 47.5;" id="svg2" xml:space="preserve"><defs id="defs6"><clipPath id="clipPath18"><path d="M 0,38 38,38 38,0 0,0 0,38 z" id="path20"/></clipPath></defs><g transform="matrix(1.25,0,0,-1.25,0,47.5)" id="g12"><g id="g14"><g clip-path="url(#clipPath18)" id="g16"><g transform="translate(35,33.9995)" id="g22"><path d="m 0,0 -21.525,0 0,1.873 c 0,1.045 -0.741,1.434 -1.645,0.865 l -10.14,-6.389 c -0.905,-0.57 -0.922,-1.527 -0.038,-2.128 l 10.216,-6.931 c 0.883,-0.602 1.607,-0.235 1.607,0.811 l 0,1.899 L 0,-10 c 1.104,0 2,0.896 2,2 l 0,6 C 2,-0.896 1.104,0 0,0" id="path24" style="fill:#67757f;fill-opacity:1;fill-rule:nonzero;stroke:none"/></g><g transform="translate(1.0884,14.085)" id="g26"><path d="m 0,0 c 0,1.03 0.515,1.791 1.606,1.791 l 5.109,0 c 0.989,0 1.462,-0.7 1.462,-1.421 0,-0.7 -0.494,-1.421 -1.462,-1.421 l -3.625,0 0,-3.008 3.378,0 c 1.009,0 1.503,-0.699 1.503,-1.42 0,-0.7 -0.515,-1.42 -1.503,-1.42 l -3.378,0 0,-3.131 3.81,0 c 0.989,0 1.463,-0.701 1.463,-1.421 0,-0.701 -0.495,-1.422 -1.463,-1.422 l -5.314,0 C 0.68,-12.873 0,-12.256 0,-11.329 L 0,0 z" id="path28" style="fill:#67757f;fill-opacity:1;fill-rule:nonzero;stroke:none"/></g><g transform="translate(10.5068,14.3936)" id="g30"><path d="m 0,0 c 0,1.029 0.659,1.606 1.544,1.606 0.392,0 1.03,-0.309 1.298,-0.679 l 6.529,-8.712 0.041,0 0,7.785 c 0,1.029 0.659,1.606 1.545,1.606 0.886,0 1.545,-0.577 1.545,-1.606 l 0,-11.699 c 0,-1.03 -0.659,-1.607 -1.545,-1.607 -0.391,0 -1.009,0.309 -1.297,0.681 l -6.53,8.608 -0.041,0 0,-7.682 c 0,-1.03 -0.659,-1.607 -1.545,-1.607 -0.885,0 -1.544,0.577 -1.544,1.607 L 0,0 z" id="path32" style="fill:#67757f;fill-opacity:1;fill-rule:nonzero;stroke:none"/></g><g transform="translate(27.8359,4.0547)" id="g34"><path d="m 0,0 2.08,0 c 2.656,0 3.872,1.957 3.872,4.429 0,2.636 -1.235,4.55 -4.078,4.55 L 0,8.979 0,0 z m -3.09,10.235 c 0,0.949 0.659,1.586 1.586,1.586 l 3.419,0 c 4.612,0 7.249,-2.965 7.249,-7.537 0,-4.326 -2.801,-7.127 -7.043,-7.127 l -3.584,0 c -0.68,0 -1.627,0.37 -1.627,1.544 l 0,11.534 z" id="path36" style="fill:#67757f;fill-opacity:1;fill-rule:nonzero;stroke:none"/></g></g></g></g></svg>
