<?xml version="1.0" encoding="UTF-8" standalone="no"?><svg xmlns:dc="http://purl.org/dc/elements/1.1/" xmlns:cc="http://creativecommons.org/ns#" xmlns:rdf="http://www.w3.org/1999/02/22-rdf-syntax-ns#" xmlns:svg="http://www.w3.org/2000/svg" xmlns="http://www.w3.org/2000/svg" viewBox="0 0 47.5 47.5" style="enable-background:new 0 0 47.5 47.5;" xml:space="preserve" version="1.1" id="svg2"><metadata id="metadata8"><rdf:RDF><cc:Work rdf:about=""><dc:format>image/svg+xml</dc:format><dc:type rdf:resource="http://purl.org/dc/dcmitype/StillImage"/></cc:Work></rdf:RDF></metadata><defs id="defs6"><clipPath id="clipPath16" clipPathUnits="userSpaceOnUse"><path id="path18" d="M 0,38 38,38 38,0 0,0 0,38 Z"/></clipPath></defs><g transform="matrix(1.25,0,0,-1.25,0,47.5)" id="g10"><g id="g12"><g clip-path="url(#clipPath16)" id="g14"><g transform="translate(11.9995,1.5)" id="g20"><path id="path22" style="fill:#55acee;fill-opacity:1;fill-rule:nonzero;stroke:none" d="m 0,0 c -0.193,0 -0.638,0.037 -0.824,0.114 -0.56,0.233 -1.175,0.78 -1.175,1.386 l 0,7 -7,0 c -0.607,0 -1.154,0.615 -1.386,1.176 -0.233,0.56 -0.104,1.331 0.325,1.76 L 13.001,34.5 c 1,1 3,1 4,0 l 7,-7 c 1,-1 1,-3 0,-4 L 1.144,0.646 C 0.774,0.15 0.391,0 0,0"/></g></g></g></g></svg>
