<svg xmlns="http://www.w3.org/2000/svg" viewBox="0 0 47.5 47.5" enable-background="new 0 0 47.5 47.5"><defs><clipPath id="a"><path d="M0 38h38V0H0v38z"/></clipPath></defs><g><g><g clip-path="url(#a)" transform="matrix(1.25 0 0 -1.25 0 47.5)"><g><path fill="#67757f" d="M26.7 26.13L19.8 36.35c-.6.88-1.56.86-2.13-.04l-6.4-10.13c-.56-.9-.17-1.64.88-1.64H14V21c0-1.1.9-2 2-2h6c1.1 0 2 .9 2 2v3.53h1.9c1.04 0 1.4.72.8 1.6"/></g><g><path fill="#67757f" d="M4.65 13.42h-2.2c-1 0-1.4.72-1.4 1.4 0 .72.52 1.4 1.4 1.4H9.9c.88 0 1.4-.68 1.4-1.4 0-.68-.42-1.4-1.4-1.4H7.7V3.24c0-1.02-.65-1.6-1.53-1.6-.87 0-1.52.58-1.52 1.6v10.18z"/></g><g><path fill="#67757f" d="M22.2 9c0 2.46-1.28 4.67-3.82 4.67s-3.82-2.2-3.82-4.67c0-2.48 1.24-4.67 3.82-4.67s3.8 2.2 3.8 4.67M11.4 9c0 4.22 2.84 7.47 6.98 7.47 4.08 0 6.98-3.35 6.98-7.47 0-4.2-2.82-7.47-6.98-7.47-4.12 0-6.98 3.27-6.98 7.47"/></g><g><path fill="#67757f" d="M29.67 9.24h2.07c1.28 0 2.1.94 2.1 2.16 0 1.2-.82 2.15-2.1 2.15h-2.07v-4.3zm-3.04 5.4c0 .96.57 1.6 1.58 1.6h3.6c3 0 5.2-1.96 5.2-4.86 0-2.97-2.3-4.82-5.07-4.82h-2.26V3.24c0-1.02-.65-1.6-1.52-1.6s-1.52.58-1.52 1.6v11.4z"/></g></g></g></g></svg>