<?xml version="1.0" encoding="UTF-8" standalone="no"?><svg xmlns:dc="http://purl.org/dc/elements/1.1/" xmlns:cc="http://creativecommons.org/ns#" xmlns:rdf="http://www.w3.org/1999/02/22-rdf-syntax-ns#" xmlns:svg="http://www.w3.org/2000/svg" xmlns="http://www.w3.org/2000/svg" viewBox="0 0 47.5 47.5" style="enable-background:new 0 0 47.5 47.5;" xml:space="preserve" version="1.1" id="svg2"><metadata id="metadata8"><rdf:RDF><cc:Work rdf:about=""><dc:format>image/svg+xml</dc:format><dc:type rdf:resource="http://purl.org/dc/dcmitype/StillImage"/></cc:Work></rdf:RDF></metadata><defs id="defs6"><clipPath id="clipPath16" clipPathUnits="userSpaceOnUse"><path id="path18" d="M 0,38 38,38 38,0 0,0 0,38 Z"/></clipPath><clipPath id="clipPath40" clipPathUnits="userSpaceOnUse"><path id="path42" d="M 0,38 38,38 38,0 0,0 0,38 Z"/></clipPath></defs><g transform="matrix(1.25,0,0,-1.25,0,47.5)" id="g10"><g id="g12"><g clip-path="url(#clipPath16)" id="g14"><g transform="translate(36,19)" id="g20"><path id="path22" style="fill:#000000;fill-opacity:1;fill-rule:nonzero;stroke:none" d="m 0,0 c 0,9.389 -7.611,17 -17,17 -9.388,0 -16.999,-7.611 -16.999,-17 0,-9.389 7.611,-17 16.999,-17 9.389,0 17,7.611 17,17"/></g><g transform="translate(26.334,23.2495)" id="g24"><path id="path26" style="fill:#ffffff;fill-opacity:1;fill-rule:nonzero;stroke:none" d="m 0,0 c 0,-8.067 3.666,-7.225 3.666,-10.89 0,0 0,-1.36 -1.468,-1.36 l -19.066,0 c -1.466,0 -1.466,1.36 -1.466,1.36 0,3.665 3.667,2.879 3.667,10.945 0,4.049 3.283,7.306 7.333,7.306 C -3.284,7.361 0,4.05 0,0"/></g><g transform="translate(21.2012,30.5835)" id="g28"><path id="path30" style="fill:#ffffff;fill-opacity:1;fill-rule:nonzero;stroke:none" d="m 0,0 c 0,1.215 -0.987,2.2 -2.201,2.2 -1.216,0 -2.2,-0.985 -2.2,-2.2 0,-1.215 0.984,-2.2 2.2,-2.2 C -0.987,-2.2 0,-1.215 0,0"/></g><g transform="translate(19,6.0674)" id="g32"><path id="path34" style="fill:#ffffff;fill-opacity:1;fill-rule:nonzero;stroke:none" d="m 0,0 c 1.621,0 2.933,0.933 2.933,2.933 l -5.867,0 C -2.934,0.933 -1.62,0 0,0"/></g></g></g><g id="g36"><g clip-path="url(#clipPath40)" id="g38"><g transform="translate(19,35)" id="g44"><path id="path46" style="fill:#dd2e44;fill-opacity:1;fill-rule:nonzero;stroke:none" d="m 0,0 c -8.836,0 -16,-7.163 -16,-16 0,-8.837 7.164,-16 16,-16 8.837,0 16,7.163 16,16 C 16,-7.163 8.837,0 0,0 m 18,-16 c 0,-9.941 -8.059,-18 -18,-18 -9.94,0 -18,8.059 -18,18 0,9.941 8.06,18 18,18 9.941,0 18,-8.059 18,-18"/></g><g transform="translate(29.6162,5.6162)" id="g48"><path id="path50" style="fill:#dd2e44;fill-opacity:1;fill-rule:nonzero;stroke:none" d="m 0,0 -24.5,24.5 1.768,1.768 24.5,-24.5 L 0,0 Z"/></g></g></g></g></svg>
