<?xml version="1.0" encoding="UTF-8" standalone="no"?><svg xmlns:dc="http://purl.org/dc/elements/1.1/" xmlns:cc="http://creativecommons.org/ns#" xmlns:rdf="http://www.w3.org/1999/02/22-rdf-syntax-ns#" xmlns:svg="http://www.w3.org/2000/svg" xmlns="http://www.w3.org/2000/svg" viewBox="0 0 47.5 47.5" style="enable-background:new 0 0 47.5 47.5;" xml:space="preserve" version="1.1" id="svg2"><metadata id="metadata8"><rdf:RDF><cc:Work rdf:about=""><dc:format>image/svg+xml</dc:format><dc:type rdf:resource="http://purl.org/dc/dcmitype/StillImage"/></cc:Work></rdf:RDF></metadata><defs id="defs6"><clipPath id="clipPath16" clipPathUnits="userSpaceOnUse"><path id="path18" d="M 0,38 38,38 38,0 0,0 0,38 Z"/></clipPath></defs><g transform="matrix(1.25,0,0,-1.25,0,47.5)" id="g10"><g id="g12"><g clip-path="url(#clipPath16)" id="g14"><g transform="translate(14,32.9995)" id="g20"><path id="path22" style="fill:#bcbec0;fill-opacity:1;fill-rule:nonzero;stroke:none" d="m 0,0 c -5.523,0 -10,-4.477 -10,-10 l 0,-10 4,0 0,10 c 0,3.313 2.687,6 6,6 3.313,0 6,-2.687 6,-6 l 0,-10 4,0 0,10 C 10,-4.477 5.523,0 0,0"/></g><g transform="translate(26,5)" id="g24"><path id="path26" style="fill:#ffac33;fill-opacity:1;fill-rule:nonzero;stroke:none" d="m 0,0 c 0,-2.209 -1.791,-4 -4,-4 l -16,0 c -2.209,0 -4,1.791 -4,4 l 0,10 c 0,2.209 1.791,4 4,4 l 16,0 c 2.209,0 4,-1.791 4,-4 L 0,0 Z"/></g><g transform="translate(27,30.9995)" id="g28"><path id="path30" style="fill:#c1694f;fill-opacity:1;fill-rule:nonzero;stroke:none" d="M 0,0 C -1.104,0 -2,0.896 -2,2 -2,3.104 -1.104,4 0,4 1.104,4 2,3.104 2,2 2,0.896 1.104,0 0,0 m 0,6 c -4.971,0 -9,-4.029 -9,-9 0,-4.971 4.029,-9 9,-9 4.971,0 9,4.029 9,9 0,4.971 -4.029,9 -9,9"/></g><g transform="translate(30,15)" id="g32"><path id="path34" style="fill:#c1694f;fill-opacity:1;fill-rule:nonzero;stroke:none" d="M 0,0 0,7 C 0,8.104 -0.896,9 -2,9 -2.748,9 -3.393,8.584 -3.735,7.976 -5.004,7.856 -6,6.8 -6,5.5 l 0,-17 c 0,-1.381 1.119,-2.5 2.5,-2.5 1.213,0 2.223,0.864 2.45,2.01 0.018,-10e-4 0.032,-0.01 0.05,-0.01 0.553,0 1,0.447 1,1 l 0,1 c 0,0.553 -0.447,1 -1,1 l 0,1 c 0.553,0 1,0.447 1,1 l 0,2 c 0,0.553 -0.447,1 -1,1 l 0,2.277 C -0.404,-1.376 0,-0.738 0,0"/></g></g></g></g></svg>
