<?xml version="1.0" encoding="UTF-8" standalone="no"?><svg xmlns:svg="http://www.w3.org/2000/svg" xmlns="http://www.w3.org/2000/svg" version="1.1" viewBox="0 0 47.5 47.5" style="enable-background:new 0 0 47.5 47.5;" id="svg2" xml:space="preserve"><defs id="defs6"><clipPath id="clipPath18"><path d="M 0,38 38,38 38,0 0,0 0,38 z" id="path20"/></clipPath><clipPath id="clipPath42"><path d="M 0,38 38,38 38,0 0,0 0,38 z" id="path44"/></clipPath></defs><g transform="matrix(1.25,0,0,-1.25,0,47.5)" id="g12"><g id="g14"><g clip-path="url(#clipPath18)" id="g16"><g transform="translate(36,19)" id="g22"><path d="m 0,0 c 0,9.389 -7.611,17 -17,17 -9.388,0 -16.999,-7.611 -16.999,-17 0,-9.389 7.611,-17 16.999,-17 9.389,0 17,7.611 17,17" id="path24" style="fill:#000000;fill-opacity:1;fill-rule:nonzero;stroke:none"/></g><g transform="translate(26.334,23.2495)" id="g26"><path d="m 0,0 c 0,-8.067 3.666,-7.225 3.666,-10.89 0,0 0,-1.36 -1.468,-1.36 l -19.066,0 c -1.466,0 -1.466,1.36 -1.466,1.36 0,3.665 3.667,2.879 3.667,10.945 0,4.049 3.283,7.306 7.333,7.306 C -3.284,7.361 0,4.05 0,0" id="path28" style="fill:#ffffff;fill-opacity:1;fill-rule:nonzero;stroke:none"/></g><g transform="translate(21.2012,30.5835)" id="g30"><path d="m 0,0 c 0,1.215 -0.987,2.2 -2.201,2.2 -1.216,0 -2.2,-0.985 -2.2,-2.2 0,-1.215 0.984,-2.2 2.2,-2.2 C -0.987,-2.2 0,-1.215 0,0" id="path32" style="fill:#ffffff;fill-opacity:1;fill-rule:nonzero;stroke:none"/></g><g transform="translate(19,6.0674)" id="g34"><path d="m 0,0 c 1.621,0 2.933,0.933 2.933,2.933 l -5.867,0 C -2.934,0.933 -1.62,0 0,0" id="path36" style="fill:#ffffff;fill-opacity:1;fill-rule:nonzero;stroke:none"/></g></g></g><g id="g38"><g clip-path="url(#clipPath42)" id="g40"><g transform="translate(19,35)" id="g46"><path d="m 0,0 c -8.836,0 -16,-7.163 -16,-16 0,-8.837 7.164,-16 16,-16 8.837,0 16,7.163 16,16 C 16,-7.163 8.837,0 0,0 m 18,-16 c 0,-9.941 -8.059,-18 -18,-18 -9.94,0 -18,8.059 -18,18 0,9.941 8.06,18 18,18 9.941,0 18,-8.059 18,-18" id="path48" style="fill:#dd2e44;fill-opacity:1;fill-rule:nonzero;stroke:none"/></g><g transform="translate(29.6162,5.6162)" id="g50"><path d="m 0,0 -24.5,24.5 1.768,1.768 24.5,-24.5 L 0,0 z" id="path52" style="fill:#dd2e44;fill-opacity:1;fill-rule:nonzero;stroke:none"/></g></g></g></g></svg>
