<svg xmlns="http://www.w3.org/2000/svg" viewBox="0 0 47.5 47.5" enable-background="new 0 0 47.5 47.5"><defs><clipPath id="a"><path d="M0 38h38V0H0v38z"/></clipPath></defs><g><g><g clip-path="url(#a)" transform="matrix(1.25 0 0 -1.25 0 47.5)"><g><path fill="#67757f" d="M1.65 28.22c-.88.6-.87 1.56.04 2.13l10.13 6.4c.9.56 1.64.17 1.64-.88V22.1c0-1.05-.72-1.4-1.6-.8L1.65 28.2z"/></g><g><path fill="#67757f" d="M37 26c0-1.1-.9-2-2-2H11c-1.1 0-2 .9-2 2v6c0 1.1.9 2 2 2h24c1.1 0 2-.9 2-2v-6z"/></g><g><path fill="#67757f" d="M3.3 3.17h1.8c.8 0 1.4.47 1.4 1.3 0 .73-.54 1.2-1.6 1.2H3.3v-2.5zm0 4.5h1.18c.74 0 1.23.45 1.23 1.2 0 .72-.55 1.08-1.22 1.08H3.3V7.68zm-2.28 3.15c0 .72.5 1.13 1.2 1.13h2.9C6.73 11.95 8 10.9 8 9.3c0-1.07-.44-1.8-1.4-2.24v-.03c1.28-.18 2.3-1.26 2.3-2.58 0-2.13-1.43-3.3-3.52-3.3H2.24c-.7 0-1.22.45-1.22 1.17v8.5z"/></g><g><path fill="#67757f" d="M12.68 5.38h2.88l-1.4 4.4h-.04l-1.44-4.4zm-.17 5.5c.27.7.86 1.25 1.63 1.25.8 0 1.37-.53 1.63-1.25l2.97-8.25c.1-.24.12-.45.12-.56 0-.6-.5-1-1.05-1-.63 0-.95.34-1.1.8l-.46 1.42h-4.2l-.47-1.42c-.15-.47-.46-.8-1.1-.8-.6 0-1.1.45-1.1 1.05 0 .25.07.43.1.5l3.04 8.25z"/></g><g><path fill="#67757f" d="M24.06 12.13c1.1 0 3.26-.36 3.26-1.7 0-.54-.38-1-.94-1-.62 0-1.05.52-2.32.52-1.88 0-2.85-1.6-2.85-3.44 0-1.8 1-3.34 2.86-3.34 1.27 0 1.8.64 2.4.64.7 0 1-.68 1-1.03 0-1.45-2.28-1.8-3.4-1.8-3.08 0-5.2 2.45-5.2 5.6 0 3.14 2.1 5.56 5.2 5.56"/></g><g><path fill="#67757f" d="M28.53 10.92c0 .62.46 1.12 1.14 1.12.65 0 1.13-.42 1.13-1.12V7.65l3.73 3.97c.17.18.46.42.88.42.6 0 1.13-.44 1.13-1.1 0-.38-.24-.7-.74-1.2l-2.87-2.82 3.5-3.65c.36-.36.63-.7.63-1.15 0-.7-.56-1.05-1.18-1.05-.44 0-.73.26-1.15.72L30.8 6.02V2.16c0-.6-.45-1.1-1.13-1.1-.65 0-1.14.44-1.14 1.1v8.76z"/></g></g></g></g></svg>