<?xml version="1.0" encoding="UTF-8" standalone="no"?>
<!-- Created with Inkscape (http://www.inkscape.org/) -->

<svg
   xmlns:svg="http://www.w3.org/2000/svg"
   xmlns="http://www.w3.org/2000/svg"
   version="1.1"
   width="47.5"
   height="47.5"
   id="svg2"
   xml:space="preserve"><defs
     id="defs6"><clipPath
       id="clipPath18"><path
         d="M 0,38 38,38 38,0 0,0 0,38 z"
         id="path20" /></clipPath><clipPath
       id="clipPath38"><path
         d="M 0,38 38,38 38,0 0,0 0,38 z"
         id="path40" /></clipPath></defs><g
     transform="matrix(1.25,0,0,-1.25,0,47.5)"
     id="g12"><g
       id="g14"><g
         clip-path="url(#clipPath18)"
         id="g16"><g
           transform="translate(29,24)"
           id="g22"><path
             d="m 0,0 c 0,-11 5,-10 5,-15 0,0 0,-2 -2,-2 l -26,0 c -2,0 -2,2 -2,2 0,5 5,4 5,15 0,5.522 4.478,10 10,10 C -4.478,10 0,5.522 0,0"
             id="path24"
             style="fill:#ffac33;fill-opacity:1;fill-rule:nonzero;stroke:none" /></g><g
           transform="translate(22,34)"
           id="g26"><path
             d="m 0,0 c 0,1.657 -1.344,3 -3,3 -1.657,0 -3,-1.343 -3,-3 0,-1.657 1.343,-3 3,-3 1.656,0 3,1.343 3,3"
             id="path28"
             style="fill:#ffac33;fill-opacity:1;fill-rule:nonzero;stroke:none" /></g><g
           transform="translate(19,1)"
           id="g30"><path
             d="M 0,0 C 2.209,0 4,1.791 4,4 L -4,4 C -4,1.791 -2.209,0 0,0"
             id="path32"
             style="fill:#ffac33;fill-opacity:1;fill-rule:nonzero;stroke:none" /></g></g></g><g
       id="g34"><g
         clip-path="url(#clipPath38)"
         id="g36"><g
           transform="translate(11.9995,1.5)"
           id="g42"><path
             d="M 0,0 C -0.193,0 -0.638,0.037 -0.824,0.114 -1.384,0.347 -2,0.894 -2,1.5 l 0,7 -7,0 c -0.606,0 -1.153,0.615 -1.385,1.176 -0.233,0.56 -0.104,1.331 0.325,1.76 L 13,34.5 c 1,1 3,1 4,0 l 7,-7 c 1,-1 1,-3 0,-4 L 1.144,0.646 C 0.774,0.15 0.391,0 0,0"
             id="path44"
             style="fill:#55acee;fill-opacity:1;fill-rule:nonzero;stroke:none" /></g></g></g></g></svg>