<?xml version="1.0" encoding="UTF-8" standalone="no"?>
<!-- Created with Inkscape (http://www.inkscape.org/) -->

<svg
   xmlns:svg="http://www.w3.org/2000/svg"
   xmlns="http://www.w3.org/2000/svg"
   version="1.1"
   width="47.5"
   height="47.5"
   id="svg2"
   xml:space="preserve"><defs
     id="defs6"><clipPath
       id="clipPath18"><path
         d="M 0,38 38,38 38,0 0,0 0,38 z"
         id="path20" /></clipPath></defs><g
     transform="matrix(1.25,0,0,-1.25,0,47.5)"
     id="g12"><g
       id="g14"><g
         clip-path="url(#clipPath18)"
         id="g16"><g
           transform="translate(16,28)"
           id="g22"><path
             d="m 0,0 6,6 c 0,0 6,6 12,0 6,-6 0,-12 0,-12 l -8,-8 c 0,0 -6,-6 -12,0 -1.125,1.125 -1.822,2.62 -1.822,2.62 l 3.353,3.348 c 0,0 -0.135,-1.364 1.469,-2.968 0,0 3,-3 6,0 l 8,8 c 0,0 3,3 0,6 C 12,6 9,3 9,3 L 5.271,-0.729 c 0,0 -1.854,1.521 -5.646,0.354 L 0,0 z"
             id="path24"
             style="fill:#8899a6;fill-opacity:1;fill-rule:nonzero;stroke:none" /></g><g
           transform="translate(21.8447,10)"
           id="g26"><path
             d="m 0,0 -6,-6 c 0,0 -6,-6 -12,0 -6,6 0,12 0,12 l 8,8 c 0,0 6,6 12,0 1.125,-1.125 1.822,-2.62 1.822,-2.62 L 0.469,8.031 c 0,0 0.135,1.365 -1.469,2.969 0,0 -3,3 -6,0 l -8,-8 c 0,0 -3,-3 0,-6 3,-3 6,0 6,0 l 3.729,3.729 c 0,0 1.854,-1.52 5.646,-0.354 L 0,0 z"
             id="path28"
             style="fill:#8899a6;fill-opacity:1;fill-rule:nonzero;stroke:none" /></g></g></g></g></svg>