<svg xmlns="http://www.w3.org/2000/svg" viewBox="0 0 47.5 47.5" enable-background="new 0 0 47.5 47.5"><defs><clipPath id="a"><path d="M0 38h38V0H0v38z"/></clipPath></defs><g><g><g clip-path="url(#a)" transform="matrix(1.25 0 0 -1.25 0 47.5)"><g><path fill="#bcbec0" d="M14 33C8.48 33 4 28.52 4 23V13h4v10c0 3.3 2.7 6 6 6s6-2.7 6-6V13h4v10c0 5.52-4.48 10-10 10"/></g><g><path fill="#ffac33" d="M26 5c0-2.2-1.8-4-4-4H6C3.8 1 2 2.8 2 5v10c0 2.2 1.8 4 4 4h16c2.2 0 4-1.8 4-4V5z"/></g><g><path fill="#c1694f" d="M27 31c-1.1 0-2 .9-2 2s.9 2 2 2 2-.9 2-2-.9-2-2-2m0 6c-4.97 0-9-4.03-9-9s4.03-9 9-9 9 4.03 9 9-4.03 9-9 9"/></g><g><path fill="#c1694f" d="M30 15v7c0 1.1-.9 2-2 2-.75 0-1.4-.42-1.73-1.02C25 22.86 24 21.8 24 20.5v-17C24 2.12 25.12 1 26.5 1c1.2 0 2.22.86 2.45 2 .02 0 .03 0 .05 0 .55 0 1 .45 1 1v1c0 .55-.45 1-1 1v1c.55 0 1 .45 1 1v2c0 .55-.45 1-1 1v2.28c.6.34 1 .98 1 1.72"/></g></g></g></g></svg>