<svg xmlns="http://www.w3.org/2000/svg" viewBox="0 0 47.5 47.5" enable-background="new 0 0 47.5 47.5"><defs><clipPath id="a"><path d="M0 38h38V0H0v38z"/></clipPath></defs><g><g><g clip-path="url(#a)" transform="matrix(1.25 0 0 -1.25 0 47.5)"><g><path d="M36 19c0-9.4-7.6-17-17-17S2 9.6 2 19s7.6 17 17 17 17-7.6 17-17"/></g><g><path fill="#f5f8fa" d="M10.52 24.76H8.85c-1.36 0-1.92 1-1.92 1.95 0 1 .7 1.96 1.92 1.96h4.02c1.22 0 1.9-.88 1.9-2v-16.1c0-1.43-.9-2.22-2.13-2.22-1.2 0-2.12.8-2.12 2.2v14.22z"/></g><g><path fill="#f5f8fa" d="M22.78 23.1c0-1.26.74-2.14 2.04-2.14s2.06.88 2.06 2.15c0 1.23-.73 2.16-2.06 2.16s-2.04-.93-2.04-2.15m-.54-8.2c0-1.44.85-2.82 2.58-2.82 1.6 0 2.57 1.38 2.57 2.83 0 1.8-1.03 2.84-2.58 2.84-1.64 0-2.58-1.25-2.58-2.83m-4.4-.28c0 2.27 1.23 3.94 3 4.9-1.32.96-2.14 2.26-2.14 4.05 0 3.3 2.75 5.43 6.12 5.43 3.28 0 6.14-2.1 6.14-5.43 0-1.6-.8-3.17-2.18-4.05 1.92-.96 3.03-2.72 3.03-4.9 0-3.93-3.2-6.45-6.98-6.45-3.9 0-7 2.66-7 6.45"/></g><g><path fill="#dd2e44" d="M3 19c0 3.97 1.45 7.6 3.84 10.4L29.4 6.83C26.6 4.44 22.96 3 19 3 10.16 3 3 10.16 3 19m32 0c0-3.97-1.45-7.6-3.85-10.4L8.62 31.16C11.4 33.55 15.04 35 19 35c8.84 0 16-7.16 16-16M19 37C9.06 37 1 28.94 1 19S9.06 1 19 1s18 8.06 18 18-8.06 18-18 18"/></g></g></g></g></svg>