<?xml version="1.0" encoding="UTF-8" standalone="no"?><svg xmlns:svg="http://www.w3.org/2000/svg" xmlns="http://www.w3.org/2000/svg" version="1.1" viewBox="0 0 47.5 47.5" style="enable-background:new 0 0 47.5 47.5;" id="svg2" xml:space="preserve"><defs id="defs6"><clipPath id="clipPath18"><path d="M 0,38 38,38 38,0 0,0 0,38 z" id="path20"/></clipPath></defs><g transform="matrix(1.25,0,0,-1.25,0,47.5)" id="g12"><g id="g14"><g clip-path="url(#clipPath18)" id="g16"><g transform="translate(26.7109,26.1328)" id="g22"><path d="M 0,0 -6.932,10.215 C -7.533,11.1 -8.49,11.082 -9.059,10.178 l -6.39,-10.141 c -0.569,-0.904 -0.18,-1.644 0.866,-1.644 l 1.872,0 0,-3.526 c 0,-1.104 0.896,-2 2,-2 l 6,0 c 1.106,0 2,0.896 2,2 l 0,3.526 1.899,0 C 0.234,-1.607 0.602,-0.885 0,0" id="path24" style="fill:#67757f;fill-opacity:1;fill-rule:nonzero;stroke:none"/></g><g transform="translate(4.6514,13.4248)" id="g26"><path d="m 0,0 -2.213,0 c -0.975,0 -1.381,0.712 -1.381,1.401 0,0.71 0.508,1.4 1.381,1.4 l 7.469,0 c 0.874,0 1.382,-0.69 1.382,-1.4 C 6.638,0.712 6.232,0 5.256,0 l -2.212,0 0,-10.189 c 0,-1.016 -0.649,-1.584 -1.522,-1.584 -0.873,0 -1.522,0.568 -1.522,1.584 L 0,0 z" id="path28" style="fill:#67757f;fill-opacity:1;fill-rule:nonzero;stroke:none"/></g><g transform="translate(22.1943,9)" id="g30"><path d="m 0,0 c 0,2.456 -1.279,4.67 -3.816,4.67 -2.538,0 -3.817,-2.214 -3.817,-4.67 0,-2.476 1.239,-4.668 3.817,-4.668 C -1.238,-4.668 0,-2.476 0,0 m -10.799,0 c 0,4.222 2.841,7.471 6.983,7.471 4.079,0 6.982,-3.351 6.982,-7.471 0,-4.201 -2.821,-7.471 -6.982,-7.471 -4.121,0 -6.983,3.27 -6.983,7.471" id="path32" style="fill:#67757f;fill-opacity:1;fill-rule:nonzero;stroke:none"/></g><g transform="translate(29.6729,9.2441)" id="g34"><path d="M 0,0 2.071,0 C 3.349,0 4.16,0.934 4.16,2.151 4.16,3.37 3.349,4.304 2.071,4.304 L 0,4.304 0,0 z m -3.046,5.399 c 0,0.955 0.569,1.582 1.585,1.582 l 3.591,0 c 2.985,0 5.197,-1.947 5.197,-4.85 0,-2.963 -2.293,-4.811 -5.074,-4.811 L 0,-2.68 0,-6.009 c 0,-1.015 -0.649,-1.584 -1.521,-1.584 -0.875,0 -1.525,0.569 -1.525,1.584 l 0,11.408 z" id="path36" style="fill:#67757f;fill-opacity:1;fill-rule:nonzero;stroke:none"/></g></g></g></g></svg>
