<svg xmlns="http://www.w3.org/2000/svg" viewBox="0 0 47.5 47.5" enable-background="new 0 0 47.5 47.5"><defs><clipPath id="a"><path d="M0 38h38V0H0v38z"/></clipPath></defs><g><g><g clip-path="url(#a)" transform="matrix(1.25 0 0 -1.25 0 47.5)"><g><path fill="#67757f" d="M36.3 30.35l-10.13 6.4c-.9.56-1.64.17-1.64-.88V34H3c-1.1 0-2-.9-2-2v-6c0-1.1.9-2 2-2h21.53v-1.9c0-1.05.72-1.4 1.6-.8l10.22 6.92c.88.6.86 1.56-.04 2.13"/></g><g><path fill="#67757f" d="M7.3 9.74c0-.54-.35-1.02-.92-1.02-.56 0-1 .4-1.82.4-.6 0-1.13-.3-1.13-.88 0-1.4 4.6-.5 4.6-4.05C8.02 2.2 6.4 1 4.5 1c-1.06 0-3.34.25-3.34 1.54 0 .53.36.97.92.97.65 0 1.42-.52 2.3-.52.92 0 1.4.5 1.4 1.18C5.8 5.78 1.2 4.8 1.2 8c0 1.92 1.58 3.1 3.4 3.1.78 0 2.7-.28 2.7-1.36"/></g><g><path fill="#67757f" d="M15.82 6.06c0 1.66-.86 3.15-2.58 3.15-1.72 0-2.58-1.48-2.58-3.14 0-1.68.84-3.16 2.58-3.16 1.75 0 2.58 1.48 2.58 3.16m-7.3 0c0 2.85 1.92 5.05 4.72 5.05 2.76 0 4.73-2.26 4.73-5.04 0-2.85-1.9-5.06-4.73-5.06-2.8 0-4.72 2.2-4.72 5.06"/></g><g><path fill="#67757f" d="M25.74 6.06c0 1.66-.86 3.15-2.58 3.15-1.7 0-2.58-1.48-2.58-3.14 0-1.68.84-3.16 2.58-3.16 1.75 0 2.58 1.48 2.58 3.16m-7.3 0c0 2.85 1.92 5.05 4.72 5.05 2.76 0 4.73-2.26 4.73-5.04C27.9 3.2 25.97 1 23.15 1c-2.8 0-4.72 2.2-4.72 5.06"/></g><g><path fill="#67757f" d="M28.66 9.96c0 .68.44 1.07 1.03 1.07.25 0 .68-.2.86-.46l4.35-5.8h.04v5.2c0 .67.44 1.06 1.03 1.06.6 0 1.03-.4 1.03-1.07v-7.8c0-.7-.44-1.08-1.03-1.08-.26 0-.67.2-.87.46l-4.35 5.74h-.03V2.15c0-.68-.44-1.07-1.03-1.07-.6 0-1.04.4-1.04 1.07v7.8z"/></g></g></g></g></svg>