<svg xmlns="http://www.w3.org/2000/svg" viewBox="0 0 47.5 47.5" enable-background="new 0 0 47.5 47.5"><defs><clipPath id="a"><path d="M0 38h38V0H0v38z"/></clipPath></defs><g><g><g clip-path="url(#a)" transform="matrix(1.25 0 0 -1.25 0 47.5)"><g><path fill="#ffac33" d="M29 24c0-11 5-10 5-15 0 0 0-2-2-2H6C4 7 4 9 4 9c0 5 5 4 5 15 0 5.52 4.48 10 10 10s10-4.48 10-10"/></g><g><path fill="#ffac33" d="M22 34c0 1.66-1.34 3-3 3s-3-1.34-3-3 1.34-3 3-3 3 1.34 3 3"/></g><g><path fill="#ffac33" d="M19 1c2.2 0 4 1.8 4 4h-8c0-2.2 1.8-4 4-4"/></g></g></g></g></svg>