<svg xmlns="http://www.w3.org/2000/svg" viewBox="0 0 47.5 47.5" enable-background="new 0 0 47.5 47.5"><defs><clipPath id="a"><path d="M0 38h38V0H0v38z"/></clipPath></defs><g><g><g clip-path="url(#a)" transform="matrix(1.25 0 0 -1.25 0 47.5)"><g><path fill="#bcbec0" d="M19 33c-5.52 0-10-4.48-10-10V13h4v10c0 3.3 2.7 6 6 6s6-2.7 6-6V13h4v10c0 5.52-4.48 10-10 10"/></g><g><path fill="#ffac33" d="M31 5c0-2.2-1.8-4-4-4H11C8.8 1 7 2.8 7 5v10c0 2.2 1.8 4 4 4h16c2.2 0 4-1.8 4-4V5z"/></g></g></g></g></svg>