<?xml version="1.0" encoding="UTF-8" standalone="no"?><svg xmlns:dc="http://purl.org/dc/elements/1.1/" xmlns:cc="http://creativecommons.org/ns#" xmlns:rdf="http://www.w3.org/1999/02/22-rdf-syntax-ns#" xmlns:svg="http://www.w3.org/2000/svg" xmlns="http://www.w3.org/2000/svg" viewBox="0 0 47.5 47.5" style="enable-background:new 0 0 47.5 47.5;" xml:space="preserve" version="1.1" id="svg2"><metadata id="metadata8"><rdf:RDF><cc:Work rdf:about=""><dc:format>image/svg+xml</dc:format><dc:type rdf:resource="http://purl.org/dc/dcmitype/StillImage"/></cc:Work></rdf:RDF></metadata><defs id="defs6"><clipPath id="clipPath16" clipPathUnits="userSpaceOnUse"><path id="path18" d="M 0,38 38,38 38,0 0,0 0,38 Z"/></clipPath></defs><g transform="matrix(1.25,0,0,-1.25,0,47.5)" id="g10"><g id="g12"><g clip-path="url(#clipPath16)" id="g14"><g transform="translate(16,28)" id="g20"><path id="path22" style="fill:#8899a6;fill-opacity:1;fill-rule:nonzero;stroke:none" d="m 0,0 6,6 c 0,0 6,6 12,0 6,-6 0,-12 0,-12 l -8,-8 c 0,0 -6,-6 -12,0 -1.125,1.125 -1.822,2.62 -1.822,2.62 l 3.353,3.348 c 0,0 -0.135,-1.364 1.469,-2.968 0,0 3,-3 6,0 l 8,8 c 0,0 3,3 0,6 C 12,6 9,3 9,3 L 5.271,-0.729 c 0,0 -1.854,1.521 -5.646,0.354 L 0,0 Z"/></g><g transform="translate(21.8447,10)" id="g24"><path id="path26" style="fill:#8899a6;fill-opacity:1;fill-rule:nonzero;stroke:none" d="m 0,0 -6,-6 c 0,0 -6,-6 -12,0 -6,6 0,12 0,12 l 8,8 c 0,0 6,6 12,0 1.125,-1.125 1.822,-2.62 1.822,-2.62 L 0.469,8.031 c 0,0 0.135,1.365 -1.469,2.969 0,0 -3,3 -6,0 l -8,-8 c 0,0 -3,-3 0,-6 3,-3 6,0 6,0 l 3.729,3.729 c 0,0 1.854,-1.52 5.646,-0.354 L 0,0 Z"/></g></g></g></g></svg>
