<svg xmlns="http://www.w3.org/2000/svg" viewBox="0 0 47.5 47.5" enable-background="new 0 0 47.5 47.5"><defs><clipPath id="a"><path d="M0 38h38V0H0v38z"/></clipPath></defs><g><g><g clip-path="url(#a)" transform="matrix(1.25 0 0 -1.25 0 47.5)"><g><path fill="#c1694f" d="M31.88 28.4c-.95-.97-2.5-.97-3.46 0-.96.95-.96 2.5 0 3.45.95.96 2.5.96 3.46 0 .96-.95.96-2.5 0-3.46m1.73 5.2c-4.3 4.3-11.27 4.3-15.57 0-3.4-3.4-4.1-8.45-2.15-12.55l-3.9-3.9c-.65-.66-.85-1.56-.64-2.37L9.37 12.8c-.48.5-1.25.5-1.73 0L5.9 11.07c-.47-.48-.47-1.25 0-1.73l-.86-.86c-.48.47-1.25.47-1.73 0l-.86-.87c-.48-.47-.48-1.24 0-1.72.02-.02.04-.02.05-.04-.8-1.18-.67-2.8.38-3.86C4.08.78 6 .78 7.2 1.98l13.88 13.88c4.1-1.96 9.14-1.25 12.53 2.14 4.32 4.3 4.32 11.28 0 15.6"/></g></g></g></g></svg>