<svg xmlns="http://www.w3.org/2000/svg" viewBox="0 0 47.5 47.5" enable-background="new 0 0 47.5 47.5"><defs><clipPath id="a"><path d="M0 38h38V0H0v38z"/></clipPath><clipPath id="b"><path d="M0 38h38V0H0v38z"/></clipPath></defs><g><g><g clip-path="url(#a)" transform="matrix(1.25 0 0 -1.25 0 47.5)"><g><path d="M36 19c0 9.4-7.6 17-17 17S2 28.4 2 19 9.6 2 19 2s17 7.6 17 17"/></g><g><path fill="#fff" d="M26.33 23.25c0-8.07 3.67-7.23 3.67-10.9 0 0 0-1.35-1.47-1.35H9.47C8 11 8 12.36 8 12.36c0 3.66 3.67 2.88 3.67 10.94 0 4.05 3.28 7.3 7.33 7.3 4.05 0 7.33-3.3 7.33-7.35"/></g><g><path fill="#fff" d="M21.2 30.58c0 1.22-1 2.2-2.2 2.2-1.22 0-2.2-.98-2.2-2.2 0-1.2.98-2.2 2.2-2.2 1.2 0 2.2 1 2.2 2.2"/></g><g><path fill="#fff" d="M19 6.07c1.62 0 2.93.93 2.93 2.93h-5.86c0-2 1.3-2.93 2.93-2.93"/></g></g></g><g><g clip-path="url(#b)" transform="matrix(1.25 0 0 -1.25 0 47.5)"><g><path fill="#dd2e44" d="M19 35c-8.84 0-16-7.16-16-16S10.16 3 19 3s16 7.16 16 16-7.16 16-16 16m18-16c0-9.94-8.06-18-18-18S1 9.06 1 19s8.06 18 18 18 18-8.06 18-18"/></g><g><path fill="#dd2e44" d="M29.62 5.62l-24.5 24.5 1.76 1.76 24.5-24.5-1.76-1.76z"/></g></g></g></g></svg>