<svg xmlns="http://www.w3.org/2000/svg" viewBox="0 0 47.5 47.5" enable-background="new 0 0 47.5 47.5"><defs><clipPath id="a"><path d="M0 38h38V0H0v38z"/></clipPath></defs><g><g><g clip-path="url(#a)" transform="matrix(1.25 0 0 -1.25 0 47.5)"><g><path fill="#67757f" d="M36.3 30.35l-10.13 6.4c-.9.56-1.64.17-1.64-.88V34H13.47v1.87c0 1.05-.74 1.44-1.64.87L1.7 30.34c-.9-.56-.93-1.52-.05-2.12l10.22-6.93c.88-.6 1.6-.24 1.6.8V24h11.06v-1.9c0-1.05.72-1.4 1.6-.8l10.22 6.92c.88.6.86 1.56-.04 2.13"/></g><g><path fill="#67757f" d="M12.8 9c0 2.65-1.38 5.02-4.1 5.02-2.73 0-4.1-2.37-4.1-5 0-2.66 1.33-5 4.1-5 2.76 0 4.1 2.34 4.1 5M1.2 9c0 4.52 3.05 8 7.5 8 4.37 0 7.5-3.6 7.5-8C16.2 4.5 13.15 1 8.7 1 4.26 1 1.2 4.5 1.2 9"/></g><g><path fill="#67757f" d="M17.4 15.2c0 1.1.7 1.7 1.65 1.7.4 0 1.1-.33 1.37-.72l6.9-9.2h.05v8.22c0 1.1.7 1.7 1.63 1.7.93 0 1.63-.6 1.63-1.7V2.83c0-1.1-.7-1.7-1.63-1.7-.42 0-1.07.33-1.37.72l-6.9 9.1h-.05V2.83c0-1.1-.7-1.7-1.63-1.7-.94 0-1.64.6-1.64 1.7V15.2z"/></g><g><path fill="#67757f" d="M33.56 15.55c0 .9.67 1.48 1.56 1.48.87 0 1.57-.6 1.57-1.48v-8.4c0-.88-.7-1.47-1.58-1.47-.9 0-1.56.57-1.56 1.48v8.4zM33.43 2.7c0 .93.76 1.7 1.7 1.7.93 0 1.7-.77 1.7-1.7 0-.94-.77-1.7-1.7-1.7-.94 0-1.7.76-1.7 1.7"/></g></g></g></g></svg>