<?xml version="1.0" encoding="UTF-8" standalone="no"?>
<!-- Created with Inkscape (http://www.inkscape.org/) -->

<svg
   xmlns:svg="http://www.w3.org/2000/svg"
   xmlns="http://www.w3.org/2000/svg"
   version="1.1"
   width="47.5"
   height="47.5"
   id="svg2"
   xml:space="preserve"><defs
     id="defs6"><clipPath
       id="clipPath18"><path
         d="M 0,38 38,38 38,0 0,0 0,38 z"
         id="path20" /></clipPath></defs><g
     transform="matrix(1.25,0,0,-1.25,0,47.5)"
     id="g12"><g
       id="g14"><g
         clip-path="url(#clipPath18)"
         id="g16"><g
           transform="translate(34,21.9375)"
           id="g22"><path
             d="m 0,0 c 0,-8.318 -6.744,-15.063 -15.063,-15.063 -8.318,0 -15.062,6.745 -15.062,15.063 0,8.318 6.744,15.063 15.062,15.063 C -6.744,15.063 0,8.318 0,0"
             id="path24"
             style="fill:#8ccaf7;fill-opacity:1;fill-rule:nonzero;stroke:none" /></g><g
           transform="translate(31,5)"
           id="g26"><path
             d="m 0,0 c 0,-1.104 -0.896,-2 -2,-2 l -20,0 c -1.104,0 -2,0.896 -2,2 l 0,4 c 0,1.104 0.896,2 2,2 L -2,6 C -0.896,6 0,5.104 0,4 L 0,0 z"
             id="path28"
             style="fill:#bf6952;fill-opacity:1;fill-rule:nonzero;stroke:none" /></g><g
           transform="translate(28,24)"
           id="g30"><path
             d="m 0,0 c 0,-2.209 -1.791,-4 -4,-4 -2.209,0 -4,1.791 -4,4 0,2.209 1.791,4 4,4 2.209,0 4,-1.791 4,-4"
             id="path32"
             style="fill:#5dadec;fill-opacity:1;fill-rule:nonzero;stroke:none" /></g><g
           transform="translate(19,18)"
           id="g34"><path
             d="m 0,0 c 0,-1.657 -1.343,-3 -3,-3 -1.657,0 -3,1.343 -3,3 0,1.657 1.343,3 3,3 1.657,0 3,-1.343 3,-3"
             id="path36"
             style="fill:#5dadec;fill-opacity:1;fill-rule:nonzero;stroke:none" /></g><g
           transform="translate(19,31)"
           id="g38"><path
             d="m 0,0 c 0,-1.105 -0.895,-2 -2,-2 -1.105,0 -2,0.895 -2,2 0,1.105 0.895,2 2,2 1.105,0 2,-0.895 2,-2"
             id="path40"
             style="fill:#5dadec;fill-opacity:1;fill-rule:nonzero;stroke:none" /></g></g></g></g></svg>