<svg xmlns="http://www.w3.org/2000/svg" viewBox="0 0 47.5 47.5" enable-background="new 0 0 47.5 47.5"><defs><clipPath id="a"><path d="M0 38h38V0H0v38z"/></clipPath></defs><g><g><g clip-path="url(#a)" transform="matrix(1.25 0 0 -1.25 0 47.5)"><g><path fill="#3b88c3" d="M37 5c0-2.2-1.8-4-4-4H5C2.8 1 1 2.8 1 5v28c0 2.2 1.8 4 4 4h28c2.2 0 4-1.8 4-4V5z"/></g><g><path fill="#fff" d="M10.6 30.9H9.5c-.92 0-1.3.67-1.3 1.32 0 .66.47 1.3 1.3 1.3h2.7c.8 0 1.26-.58 1.26-1.34v-10.8c0-.96-.6-1.5-1.42-1.5s-1.43.54-1.43 1.5v9.52z"/></g><g><path fill="#fff" d="M15.74 14.28c0-1.2-.5-2.24-1.56-2.9 1.37-.64 2.32-1.9 2.32-3.4 0-2.3-2.1-4.2-4.8-4.2-2.8 0-4.55 2.06-4.55 3.56 0 .74.78 1.28 1.47 1.28 1.3 0 1-2.23 3.13-2.23 1 0 1.8.75 1.8 1.76 0 2.66-3.24.7-3.24 2.94 0 2 2.7.65 2.7 2.76 0 .72-.5 1.27-1.36 1.27-1.8 0-1.56-1.86-2.85-1.86-.8 0-1.25.7-1.25 1.4 0 1.5 2.04 3.08 4.15 3.08 2.73 0 4.04-2 4.04-3.47"/></g><g><path fill="#fff" d="M29.12 22.5c.83 0 1.48-.37 1.48-1.25 0-.87-.65-1.25-1.37-1.25h-6.35c-.83 0-1.48.38-1.48 1.25 0 .4.25.74.44.97 1.58 1.88 3.3 3.6 4.73 5.68.34.5.66 1.1.66 1.77 0 .78-.6 1.46-1.36 1.46-2.2 0-1.14-3.08-2.97-3.08-.9 0-1.38.65-1.38 1.4 0 2.4 2.12 4.3 4.46 4.3s4.22-1.53 4.22-3.95c0-2.64-2.95-5.26-4.56-7.3h3.48z"/></g><g><path fill="#fff" d="M26.76 14.8h-.04l-2.56-5.3h2.6v5.3zm-4.58-7.82c-.93 0-1.33.63-1.33 1.12 0 .42.15.65.27.84l4.25 7.7c.42.77.95 1.1 1.94 1.1 1.1 0 2.2-.7 2.2-2.42V9.5h.32c.74 0 1.33-.5 1.33-1.26s-.6-1.26-1.33-1.26h-.33v-1.6c0-1.02-.4-1.5-1.37-1.5-.97 0-1.37.48-1.37 1.5v1.6h-4.58z"/></g></g></g></g></svg>