<svg xmlns="http://www.w3.org/2000/svg" viewBox="0 0 47.5 47.5" enable-background="new 0 0 47.5 47.5"><defs><clipPath id="a"><path d="M0 38h38V0H0v38z"/></clipPath><clipPath id="b"><path d="M24 24L14 14c-1-1 0-2 0-2l3-3c1-1 2 0 2 0l10 10c1 1 0 2 0 2l-3 3c-.33.33-.67.45-.96.45-.6 0-1.04-.45-1.04-.45"/></clipPath><clipPath id="c"><path d="M0 38h38V0H0v38z"/></clipPath><clipPath id="d"><path d="M12 36L2 26c-1-1 0-2 0-2l3-3c1-1 2 0 2 0l10 10c1 1 0 2 0 2l-3 3c-.33.33-.67.44-.96.44-.6 0-1.04-.44-1.04-.44"/></clipPath></defs><g><g><g clip-path="url(#a)" transform="matrix(1.25 0 0 -1.25 0 47.5)"><g><path fill="#8899a6" d="M36.35 6.35L11 31.7 6.3 27 31.64 1.65c.06-.06.6-.6 1.4-.6.46 0 .92.2 1.3.6l2 2c.55.54 1 1.7 0 2.7"/></g><g><path fill="#66757f" d="M31 2c-.1 0-.2.02-.32.05-.52.18-.8.74-.63 1.27l2 6c.18.52.74.8 1.27.63.52-.18.8-.74.63-1.27l-2-6C31.8 2.28 31.42 2 31 2"/></g><g><path fill="#66757f" d="M28 5c-.1 0-.2.02-.32.05-.52.18-.8.74-.63 1.27l2 6c.18.52.74.8 1.27.63.52-.18.8-.74.63-1.27l-2-6C28.8 5.28 28.42 5 28 5"/></g><g><path fill="#66757f" d="M25 8c-.1 0-.2.02-.32.05-.52.18-.8.74-.63 1.27l2 6c.18.52.74.8 1.27.63.52-.18.8-.74.63-1.27l-2-6C25.8 8.28 25.42 8 25 8"/></g><g><path fill="#66757f" d="M22 11c-.1 0-.2.02-.32.05-.52.18-.8.74-.63 1.27l2 6c.18.52.74.8 1.27.63.52-.18.8-.74.63-1.27l-2-6c-.14-.42-.53-.68-.95-.68"/></g><g><path fill="#66757f" d="M17 16c-.1 0-.2.02-.32.05-.52.18-.8.74-.63 1.27l2 6c.18.52.74.8 1.27.63.52-.18.8-.74.63-1.27l-2-6c-.14-.42-.53-.68-.95-.68"/></g><g><path fill="#66757f" d="M14 19c-.1 0-.2.02-.32.05-.52.18-.8.74-.63 1.27l2 6c.18.52.74.8 1.27.63.52-.18.8-.74.63-1.27l-2-6c-.14-.42-.53-.68-.95-.68"/></g><g><path fill="#66757f" d="M11 22c-.1 0-.2.02-.32.05-.52.18-.8.74-.63 1.27l2 6c.18.52.74.8 1.27.63.52-.18.8-.74.63-1.27l-2-6c-.14-.42-.53-.68-.95-.68"/></g><g><path fill="#ccd6dd" d="M14 12s-1 1 0 2l10 10s1 1 2 0l3-3s1-1 0-2L19 9s-1-1-2 0l-3 3z"/></g></g></g><g><g clip-path="url(#b)" transform="matrix(1.25 0 0 -1.25 0 47.5)"><g><path fill="#8899a6" d="M15 17l7.5-7.5L19 6l-7.3 7.3L15 17z"/></g><g><path fill="#e1e8ed" d="M21 23l7-7 3.5 3.5-6.48 6.48L21 23z"/></g></g></g><g><g clip-path="url(#c)" transform="matrix(1.25 0 0 -1.25 0 47.5)"><g><path fill="#ccd6dd" d="M2 24s-1 1 0 2l10 10s1 1 2 0l3-3s1-1 0-2L7 21s-1-1-2 0l-3 3z"/></g></g></g><g><g clip-path="url(#d)" transform="matrix(1.25 0 0 -1.25 0 47.5)"><g><path fill="#8899a6" d="M3 29l7.5-7.5L7 18l-7.3 7.3L3 29z"/></g><g><path fill="#e1e8ed" d="M9 35l7-7 3.5 3.5-6.48 6.48L9 35z"/></g></g></g></g></svg>