<svg xmlns="http://www.w3.org/2000/svg" viewBox="0 0 47.5 47.5" enable-background="new 0 0 47.5 47.5"><defs><clipPath id="a"><path d="M0 38h38V0H0v38z"/></clipPath></defs><g><g><g clip-path="url(#a)" transform="matrix(1.25 0 0 -1.25 0 47.5)"><g><path fill="#8ccaf7" d="M34 21.94c0-8.32-6.74-15.07-15.06-15.07S3.87 13.62 3.87 21.94 10.62 37 18.95 37 34 30.26 34 21.94"/></g><g><path fill="#bf6952" d="M31 5c0-1.1-.9-2-2-2H9c-1.1 0-2 .9-2 2v4c0 1.1.9 2 2 2h20c1.1 0 2-.9 2-2V5z"/></g><g><path fill="#5dadec" d="M28 24c0-2.2-1.8-4-4-4s-4 1.8-4 4 1.8 4 4 4 4-1.8 4-4"/></g><g><path fill="#5dadec" d="M19 18c0-1.66-1.34-3-3-3s-3 1.34-3 3 1.34 3 3 3 3-1.34 3-3"/></g><g><path fill="#5dadec" d="M19 31c0-1.1-.9-2-2-2s-2 .9-2 2 .9 2 2 2 2-.9 2-2"/></g></g></g></g></svg>