<svg xmlns="http://www.w3.org/2000/svg" viewBox="0 0 47.5 47.5" enable-background="new 0 0 47.5 47.5"><defs><clipPath id="a"><path d="M0 38h38V0H0v38z"/></clipPath></defs><g><g><g clip-path="url(#a)" transform="matrix(1.25 0 0 -1.25 0 47.5)"><g><path fill="#f4900c" d="M30.88 3.12C32.04 1.96 33.9 1.9 35 3s1.04 2.96-.12 4.12L13.12 28.88C11.95 30.05 10.1 30.1 9 29s-1.05-2.95.12-4.12L30.88 3.12z"/></g><g><path fill="#66757f" d="M23 34s-6 3-11-2l-7-7s-1 1-2 0l-1-1s-1-1 0-2l4-4s1-1 2 0l1 1s1 1 0 2l-.08.08c.77.74 1.93 1.5 3.08.92l4 4s-1 3 1 5 3 2 5 2 1 1 1 1"/></g></g></g></g></svg>