<?xml version="1.0" encoding="UTF-8" standalone="no"?>
<!-- Created with Inkscape (http://www.inkscape.org/) -->

<svg
   xmlns:svg="http://www.w3.org/2000/svg"
   xmlns="http://www.w3.org/2000/svg"
   version="1.1"
   width="47.5"
   height="47.5"
   id="svg2"
   xml:space="preserve"><defs
     id="defs6"><clipPath
       id="clipPath18"><path
         d="M 0,38 38,38 38,0 0,0 0,38 z"
         id="path20" /></clipPath></defs><g
     transform="matrix(1.25,0,0,-1.25,0,47.5)"
     id="g12"><g
       id="g14"><g
         clip-path="url(#clipPath18)"
         id="g16"><g
           transform="translate(20,15)"
           id="g22"><path
             d="M 0,0 C -6,0 -5.127,6.449 -5,7 L 5,5 C 4.817,2.609 2.438,0 0,0 m 6,18 -11,0 c -1.104,0 -2,-0.896 -2,-2 l -6,0 c 0,1.104 -0.896,2 -2,2 l -1,0 c -1.104,0 -2,-0.896 -2,-2 l -1,0 0,-3 0,-2 c 0,-1.104 0.896,-2 2,-2 l 10,0 0,-1 0,-3 c 0,-3.865 3.134,-7 7,-7 3.581,0 6.585,2.53 7,6 l 1,0 c 1.104,0 2,0.896 2,2 l 0,8 c -2.209,0 -4,1.791 -4,4"
             id="path24"
             style="fill:#9aaab4;fill-opacity:1;fill-rule:nonzero;stroke:none" /></g><g
           transform="translate(27,19)"
           id="g26"><path
             d="m 0,0 3,5 c 0,0 5,0 6,-9 l 1,-6 c 0,0 0,-4 -4,-4 l -2,0 c -4,0 -4,4 -4,4 L 0,0 z"
             id="path28"
             style="fill:#bf6952;fill-opacity:1;fill-rule:nonzero;stroke:none" /></g><g
           transform="translate(28,23)"
           id="g30"><path
             d="M 0,0 C -1.104,0 -2,0.896 -2,2 -2,4.814 -0.136,9 5,9 6.104,9 7,8.104 7,7 7,5.896 6.104,5 5,5 2.145,5 2,2.501 2,2 2,0.896 1.104,0 0,0"
             id="path32"
             style="fill:#9aaab4;fill-opacity:1;fill-rule:nonzero;stroke:none" /></g><g
           transform="translate(20,22)"
           id="g34"><path
             d="m 0,0 c 0,-1 0,-3 -1,-4 -1,-1 2,-1 3,1 1,2 1,2 1,3 0,1 -3,0 -3,0"
             id="path36"
             style="fill:#9aaab4;fill-opacity:1;fill-rule:nonzero;stroke:none" /></g><g
           transform="translate(26,27)"
           id="g38"><path
             d="m 0,0 c 0,-2.209 -1.791,-4 -4,-4 l -5.995,0 c -2.209,0 -2,1.791 -2,4 L -12,0 c 0,2.209 -0.204,4 2.005,4 L -4,4 C -1.791,4 0,2.209 0,0"
             id="path40"
             style="fill:#67757f;fill-opacity:1;fill-rule:nonzero;stroke:none" /></g><g
           transform="translate(21,28)"
           id="g42"><path
             d="m 0,0 -5,0 c -0.552,0 -1,0.448 -1,1 0,0.552 0.448,1 1,1 L 0,2 C 0.553,2 1,1.552 1,1 1,0.448 0.553,0 0,0"
             id="path44"
             style="fill:#ccd6dd;fill-opacity:1;fill-rule:nonzero;stroke:none" /></g><g
           transform="translate(21,24)"
           id="g46"><path
             d="m 0,0 -5,0 c -0.552,0 -1,0.448 -1,1 0,0.552 0.448,1 1,1 L 0,2 C 0.553,2 1,1.552 1,1 1,0.448 0.553,0 0,0"
             id="path48"
             style="fill:#ccd6dd;fill-opacity:1;fill-rule:nonzero;stroke:none" /></g></g></g></g></svg>