<svg xmlns="http://www.w3.org/2000/svg" viewBox="0 0 47.5 47.5" enable-background="new 0 0 47.5 47.5"><defs><clipPath id="a"><path d="M0 38h38V0H0v38z"/></clipPath></defs><g><g><g clip-path="url(#a)" transform="matrix(1.25 0 0 -1.25 0 47.5)"><g><path fill="#8899a6" d="M29.1 16.92c-.62 0-1.22-.08-1.8-.22L16.9 27.1c.15.57.23 1.17.23 1.8 0 4.43-3.6 8.02-8.03 8.02C8.2 36.92 7 36 8 35l3-3s1-2-1-4-4-1-4-1l-3 3c-1 1-1.92-.2-1.92-1.1 0-4.43 3.6-8.02 8.02-8.02.63 0 1.23.07 1.8.2L21.3 10.7c-.14-.58-.22-1.18-.22-1.8 0-4.43 3.6-8.03 8.02-8.03.9 0 2.1.92 1.1 1.92l-3 3s-1 2 1 4 4 1 4 1l3-3c1-1 1.93.2 1.93 1.1 0 4.43-3.6 8.02-8.03 8.02"/></g></g></g></g></svg>