<svg xmlns="http://www.w3.org/2000/svg" viewBox="0 0 47.5 47.5" enable-background="new 0 0 47.5 47.5"><defs><clipPath id="a"><path d="M0 38h38V0H0v38z"/></clipPath></defs><g><g><g clip-path="url(#a)" transform="matrix(1.25 0 0 -1.25 0 47.5)"><g><path fill="#fcab40" d="M37 5c0-2.2-1.8-4-4-4H5C2.8 1 1 2.8 1 5v28c0 2.2 1.8 4 4 4h28c2.2 0 4-1.8 4-4V5z"/></g><g><path fill="#f5f8fa" d="M7.52 26.13L19.02 6.1 31.36 26.1H7.52zM19 2.83c-1 0-1.93.6-2.52 1.63L4.8 24.83c-.6 1.05-.65 2.15-.15 3.02.47.8 1.36 1.28 2.44 1.28h24.8c1.1 0 2-.47 2.45-1.3.48-.87.4-1.96-.24-3L21.48 4.38c-.6-.97-1.5-1.53-2.47-1.53"/></g><g><path fill="#f5f8fa" d="M7.53 12.5h23.85L19 32.54 7.54 12.5zm24.38-3H7.1c-1.1 0-1.97.47-2.45 1.28-.5.87-.44 1.97.16 3.02L16.5 34.17c.6 1.03 1.5 1.62 2.52 1.62.98 0 1.88-.57 2.48-1.54L34.1 13.8c.64-1.04.73-2.13.25-3-.46-.83-1.35-1.3-2.44-1.3"/></g><g><path fill="#f5f8fa" d="M23 19c0-2.2-1.8-4-4-4s-4 1.8-4 4 1.8 4 4 4 4-1.8 4-4"/></g></g></g></g></svg>