<svg xmlns="http://www.w3.org/2000/svg" viewBox="0 0 47.5 47.5" enable-background="new 0 0 47.5 47.5"><defs><clipPath id="a"><path d="M0 38h38V0H0v38z"/></clipPath></defs><g><g><g clip-path="url(#a)" transform="matrix(1.25 0 0 -1.25 0 47.5)"><g><path fill="#9aaab4" d="M20 15c-6 0-5.13 6.45-5 7l10-2c-.18-2.4-2.56-5-5-5m6 18H15c-1.1 0-2-.9-2-2H7c0 1.1-.9 2-2 2H4c-1.1 0-2-.9-2-2H1v-5c0-1.1.9-2 2-2h10v-4c0-3.87 3.13-7 7-7 3.58 0 6.6 2.53 7 6h1c1.1 0 2 .9 2 2v8c-2.2 0-4 1.8-4 4"/></g><g><path fill="#bf6952" d="M27 19l3 5s5 0 6-9l1-6s0-4-4-4h-2c-4 0-4 4-4 4v10z"/></g><g><path fill="#9aaab4" d="M28 23c-1.1 0-2 .9-2 2 0 2.8 1.86 7 7 7 1.1 0 2-.9 2-2s-.9-2-2-2c-2.85 0-3-2.5-3-3 0-1.1-.9-2-2-2"/></g><g><path fill="#9aaab4" d="M20 22c0-1 0-3-1-4s2-1 3 1 1 2 1 3-3 0-3 0"/></g><g><path fill="#67757f" d="M26 27c0-2.2-1.8-4-4-4h-6c-2.2 0-2 1.8-2 4s-.2 4 2 4h6c2.2 0 4-1.8 4-4"/></g><g><path fill="#ccd6dd" d="M21 28h-5c-.55 0-1 .45-1 1s.45 1 1 1h5c.55 0 1-.45 1-1s-.45-1-1-1"/></g><g><path fill="#ccd6dd" d="M21 24h-5c-.55 0-1 .45-1 1s.45 1 1 1h5c.55 0 1-.45 1-1s-.45-1-1-1"/></g></g></g></g></svg>