<?xml version="1.0" encoding="UTF-8" standalone="no"?><svg xmlns:svg="http://www.w3.org/2000/svg" xmlns="http://www.w3.org/2000/svg" version="1.1" viewBox="0 0 47.5 47.5" style="enable-background:new 0 0 47.5 47.5;" id="svg2" xml:space="preserve"><defs id="defs6"><clipPath id="clipPath18"><path d="M 0,38 38,38 38,0 0,0 0,38 z" id="path20"/></clipPath></defs><g transform="matrix(1.25,0,0,-1.25,0,47.5)" id="g12"><g id="g14"><g clip-path="url(#clipPath18)" id="g16"><g transform="translate(30.8789,3.1211)" id="g22"><path d="M 0,0 C 1.166,-1.166 3.021,-1.221 4.121,-0.121 5.221,0.979 5.166,2.834 4,4 l -21.758,21.758 c -1.166,1.166 -3.021,1.221 -4.121,0.121 -1.1,-1.1 -1.045,-2.955 0.121,-4.121 L 0,0 z" id="path24" style="fill:#f4900c;fill-opacity:1;fill-rule:nonzero;stroke:none"/></g><g transform="translate(23,34)" id="g26"><path d="m 0,0 c 0,0 -6,3 -11,-2 l -7,-7 c 0,0 -1,1 -2,0 l -1,-1 c 0,0 -1,-1 0,-2 l 4,-4 c 0,0 1,-1 2,0 l 1,1 c 0,0 1,1 0,2 l -0.078,0.078 c 0.77,0.743 1.923,1.5 3.078,0.922 l 4,4 c 0,0 -1,3 1,5 2,2 3,2 5,2 2,0 1,1 1,1" id="path28" style="fill:#66757f;fill-opacity:1;fill-rule:nonzero;stroke:none"/></g></g></g></g></svg>
