<svg xmlns="http://www.w3.org/2000/svg" viewBox="0 0 47.5 47.5" enable-background="new 0 0 47.5 47.5"><defs><clipPath id="a"><path d="M0 38h38V0H0v38z"/></clipPath></defs><g><g><g clip-path="url(#a)" transform="matrix(1.25 0 0 -1.25 0 47.5)"><g><path fill="#66757f" d="M24 20l1 1s1 1 2 0l2-2s1-1 0-2l-1-1-4 4z"/></g><g><path fill="#8899a6" d="M35.88 9.12c1.16-1.16 1.16-3.07 0-4.24l-2.76-2.76c-1.17-1.16-3.08-1.16-4.24 0L10.12 20.88c-1.17 1.17-1.17 3.07 0 4.24l2.76 2.76c1.17 1.17 3.07 1.17 4.24 0L35.88 9.12z"/></g><g><path fill="#66757f" d="M21.88 26.12c1.16-1.17 1.16-3.07 0-4.24l-5.76-5.76c-1.17-1.16-3.07-1.16-4.24 0L7 21s-1 1 0 2l8 8c1 1 2 0 2 0l4.88-4.88z"/></g><g><path fill="#8899a6" d="M8 20l10 10 2-2-10-10-2 2z"/></g><g><path fill="#ffcc4d" d="M12 31c-.37 0-.72.2-.9.55l-2 4c-.24.5-.04 1.1.45 1.35.5.24 1.1.04 1.34-.45l2-4c.24-.5.04-1.1-.45-1.35-.15-.07-.3-.1-.45-.1"/></g><g><path fill="#ffcc4d" d="M6 25c-.15 0-.3.03-.45.1l-4 2c-.5.25-.7.85-.45 1.35.25.5.85.7 1.35.44l4-2c.5-.25.7-.85.44-1.35-.18-.35-.53-.55-.9-.55"/></g><g><path fill="#ffcc4d" d="M9 28c-.26 0-.5.1-.7.3l-4 4c-.4.38-.4 1.02 0 1.4.38.4 1.02.4 1.4 0l4-4c.4-.38.4-1.02 0-1.4-.2-.2-.44-.3-.7-.3"/></g></g></g></g></svg>