<?xml version="1.0" encoding="UTF-8" standalone="no"?>
<!-- Created with Inkscape (http://www.inkscape.org/) -->

<svg
   xmlns:svg="http://www.w3.org/2000/svg"
   xmlns="http://www.w3.org/2000/svg"
   version="1.1"
   width="47.5"
   height="47.5"
   id="svg2"
   xml:space="preserve"><defs
     id="defs6"><clipPath
       id="clipPath18"><path
         d="M 0,38 38,38 38,0 0,0 0,38 z"
         id="path20" /></clipPath></defs><g
     transform="matrix(1.25,0,0,-1.25,0,47.5)"
     id="g12"><g
       id="g14"><g
         clip-path="url(#clipPath18)"
         id="g16"><g
           transform="translate(31,5)"
           id="g22"><path
             d="M 0,0 -2,0 C -2,3.314 -4.63,6 -7.875,6 -11.119,6 -13.75,3.314 -13.75,0 L -20,0 c 0,1.104 -0.896,2 -2,2 -1.104,0 -2,-0.896 -2,-2 -1.104,0 -2,-0.896 -2,-2 0,-1.104 0.896,-2 2,-2 l 24,0 c 1.104,0 2,0.896 2,2 0,1.104 -0.896,2 -2,2"
             id="path24"
             style="fill:#f18f26;fill-opacity:1;fill-rule:nonzero;stroke:none" /></g><g
           transform="translate(21,27)"
           id="g26"><path
             d="m 0,0 0,-4 c 3.866,0 7,-3.134 7,-7 0,-3.866 -3.134,-7 -7,-7 l -8.485,0 c 2.017,-2.443 5.069,-4 8.485,-4 6.075,0 11,4.925 11,11 C 11,-4.925 6.075,0 0,0"
             id="path28"
             style="fill:#f18f26;fill-opacity:1;fill-rule:nonzero;stroke:none" /></g><g
           transform="translate(29.041,27.9287)"
           id="g30"><path
             d="m 0,0 c -0.781,-0.781 -2.047,-0.78 -2.828,0 -0.781,0.781 -0.781,2.047 0,2.828 l 2.121,2.121 C 0.074,5.73 1.342,5.731 2.123,4.95 2.902,4.17 2.902,2.902 2.121,2.121 L 0,0 z"
             id="path32"
             style="fill:#f18f26;fill-opacity:1;fill-rule:nonzero;stroke:none" /></g><g
           transform="translate(34.6992,29.3428)"
           id="g34"><path
             d="m 0,0 c -0.781,-0.781 -2.049,-0.781 -2.83,0 l -4.242,4.243 c -0.782,0.78 -0.782,2.048 0,2.829 0.781,0.781 2.049,0.781 2.828,0 L 0,2.829 C 0.781,2.048 0.781,0.781 0,0"
             id="path36"
             style="fill:#fdcb58;fill-opacity:1;fill-rule:nonzero;stroke:none" /></g><g
           transform="translate(17.7275,13.7871)"
           id="g38"><path
             d="m 0,0 c -0.389,-0.389 -1.025,-0.39 -1.414,0 l -4.243,4.243 c -0.388,0.389 -0.388,1.026 0,1.414 L 6.364,17.678 c 0.389,0.388 1.026,0.388 1.414,0 l 4.243,-4.243 c 0.39,-0.389 0.388,-1.026 0,-1.414 L 0,0 z"
             id="path40"
             style="fill:#fdcb58;fill-opacity:1;fill-rule:nonzero;stroke:none" /></g><g
           transform="translate(19.1416,15.2012)"
           id="g42"><path
             d="M 0,0 -5.657,5.657 -4.242,7.071 1.415,1.415 0,0 z"
             id="path44"
             style="fill:#f18f26;fill-opacity:1;fill-rule:nonzero;stroke:none" /></g><g
           transform="translate(17.4141,6.5859)"
           id="g46"><path
             d="m 0,0 c -0.781,-0.781 -2.047,-0.781 -2.828,0 l -9.9,9.9 c -0.781,0.782 -0.781,2.047 0,2.829 0.781,0.781 2.047,0.781 2.829,0 L 0,2.828 C 0.781,2.047 0.781,0.781 0,0"
             id="path48"
             style="fill:#67757f;fill-opacity:1;fill-rule:nonzero;stroke:none" /></g><g
           transform="translate(9.9497,7.4648)"
           id="g50"><path
             d="m 0,0 c 0.391,-0.391 0.391,-1.023 0,-1.414 -0.391,-0.391 -1.024,-0.391 -1.414,0 l -4.243,4.242 c -0.391,0.391 -0.39,1.024 0,1.414 0.39,0.391 1.024,0.391 1.415,0 L 0,0 z"
             id="path52"
             style="fill:#67757f;fill-opacity:1;fill-rule:nonzero;stroke:none" /></g></g></g></g></svg>