<svg xmlns="http://www.w3.org/2000/svg" viewBox="0 0 47.5 47.5" enable-background="new 0 0 47.5 47.5"><defs><clipPath id="a"><path d="M0 38h38V0H0v38z"/></clipPath></defs><g><g><g clip-path="url(#a)" transform="matrix(1.25 0 0 -1.25 0 47.5)"><g><path fill="#9aaab4" d="M21 17c0-1.66-1.34-3-3-3s-3 1.34-3 3 1.34 3 3 3 3-1.34 3-3"/></g><g><path fill="#da2f47" d="M20.24 19.94c-.26-.48-.87-.67-1.36-.4L6.53 26.1c-.5.26-.67.86-.4 1.35l2.8 5.3c.27.48.88.67 1.36.4l12.35-6.58c.48-.27.67-.88.4-1.36l-2.8-5.3z"/></g><g><path fill="#da2f47" d="M32.18 14.7c-.26-.48-.87-.66-1.36-.4l-9.7 5.17c-.5.26-.67.87-.4 1.35l1.87 3.53c.25.5.86.67 1.34.42l9.7-5.18c.5-.27.68-.88.42-1.37l-1.88-3.52z"/></g><g><path fill="#bb1a34" d="M22 19l-1.76.94 2.82 5.3 1.76-.94L22 19z"/></g><g><path fill="#9d0522" d="M33.47 12.88l-3.53 1.88 2.82 5.3 3.53-1.88-2.83-5.3z"/></g><g><path fill="#292f33" d="M9.3 29.18l1.88 3.53-.88.48-4.42 2.35c-.48.26-1.1.07-1.35-.4l-2.82-5.3c-.25-.5-.07-1.1.42-1.36l3.53-1.88 1.76-.95.48.88 1.4 2.65z"/></g><g><path fill="#292f33" d="M24 12c0-1.1-.9-2-2-2h-8c-1.1 0-2 .9-2 2s.9 2 2 2h8c1.1 0 2-.9 2-2"/></g><g><path fill="#9aaab4" d="M10.47 1l3.34 7.15c.48 1 .05 2.2-.95 2.66-1 .48-2.2.05-2.66-.95L6.04 1h4.42z"/></g><g><path fill="#9aaab4" d="M25.53 1h4.42L25.8 9.85c-.45 1-1.65 1.43-2.65.96-1-.46-1.43-1.65-.96-2.65L25.52 1z"/></g><g><path fill="#9aaab4" d="M20 1v8c0 1.1-.9 2-2 2s-2-.9-2-2V1h4z"/></g></g></g></g></svg>