<svg xmlns="http://www.w3.org/2000/svg" viewBox="0 0 47.5 47.5" enable-background="new 0 0 47.5 47.5"><defs><clipPath id="a"><path d="M0 38h38V0H0v38z"/></clipPath></defs><g><g><g clip-path="url(#a)" transform="matrix(1.25 0 0 -1.25 0 47.5)"><g><path fill="#66757f" d="M18 1c-.5 0-1.02.2-1.4.6l-11 11c-.4.36-.6.87-.6 1.4v21c0 .8.5 1.54 1.23 1.85.75.3 1.6.14 2.18-.44l9.6-9.57 9.6 9.58c.56.6 1.42.76 2.17.45C30.5 36.55 31 35.8 31 35V14c0-.53-.2-1.04-.6-1.4l-11-11c-.38-.4-.9-.6-1.4-.6"/></g><g><path fill="#47ded4" d="M18 24l11 11V14L18 3v21z"/></g><g><path fill="#ffff87" d="M7 35l11-11V3L7 14v21z"/></g></g></g></g></svg>