<svg xmlns="http://www.w3.org/2000/svg" viewBox="0 0 47.5 47.5" enable-background="new 0 0 47.5 47.5"><defs><clipPath id="a"><path d="M0 38h38V0H0v38z"/></clipPath></defs><g><g><g clip-path="url(#a)" transform="matrix(1.25 0 0 -1.25 0 47.5)"><g><path fill="#9aaab4" d="M37 5c0-2.2-1.8-4-4-4H5C2.8 1 1 2.8 1 5v28c0 2.2 1.8 4 4 4h28c2.2 0 4-1.8 4-4V5z"/></g><g><path fill="#f5f8fa" d="M20.15 29.36c-.63.9-1.64.9-2.24-.04L7.1 12.68C6.5 11.76 6.9 11 8 11h23c1.1 0 1.48.74.85 1.64l-11.7 16.72z"/></g></g></g></g></svg>