<?xml version="1.0" encoding="UTF-8" standalone="no"?><svg xmlns:svg="http://www.w3.org/2000/svg" xmlns="http://www.w3.org/2000/svg" version="1.1" viewBox="0 0 47.5 47.5" style="enable-background:new 0 0 47.5 47.5;" id="svg2" xml:space="preserve"><defs id="defs6"><clipPath id="clipPath18"><path d="M 0,38 38,38 38,0 0,0 0,38 z" id="path20"/></clipPath></defs><g transform="matrix(1.25,0,0,-1.25,0,47.5)" id="g12"><g id="g14"><g clip-path="url(#clipPath18)" id="g16"><g transform="translate(18,1)" id="g22"><path d="m 0,0 c -0.512,0 -1.024,0.195 -1.414,0.586 l -11,11 C -12.789,11.961 -13,12.47 -13,13 l 0,21 c 0,0.809 0.487,1.538 1.235,1.848 0.747,0.31 1.608,0.138 2.179,-0.434 L 0,25.829 9.586,35.414 c 0.572,0.573 1.431,0.744 2.18,0.434 C 12.513,35.538 13,34.809 13,34 l 0,-21 c 0,-0.53 -0.211,-1.039 -0.586,-1.414 l -11,-11 C 1.024,0.195 0.512,0 0,0" id="path24" style="fill:#66757f;fill-opacity:1;fill-rule:nonzero;stroke:none"/></g><g transform="translate(18,24)" id="g26"><path d="M 0,0 11,11 11,-10 0,-21 0,0 z" id="path28" style="fill:#47ded4;fill-opacity:1;fill-rule:nonzero;stroke:none"/></g><g transform="translate(7,35)" id="g30"><path d="M 0,0 11,-11 11,-32 0,-21 0,0 z" id="path32" style="fill:#ffff87;fill-opacity:1;fill-rule:nonzero;stroke:none"/></g></g></g></g></svg>
