<?xml version="1.0" encoding="UTF-8" standalone="no"?>
<!-- Created with Inkscape (http://www.inkscape.org/) -->

<svg
   xmlns:svg="http://www.w3.org/2000/svg"
   xmlns="http://www.w3.org/2000/svg"
   version="1.1"
   width="47.5"
   height="47.5"
   id="svg2"
   xml:space="preserve"><defs
     id="defs6"><clipPath
       id="clipPath18"><path
         d="M 0,38 38,38 38,0 0,0 0,38 z"
         id="path20" /></clipPath></defs><g
     transform="matrix(1.25,0,0,-1.25,0,47.5)"
     id="g12"><g
       id="g14"><g
         clip-path="url(#clipPath18)"
         id="g16"><g
           transform="translate(8,14.7344)"
           id="g22"><path
             d="M 0,0 C 0,0 -0.008,-0.001 -0.01,-0.001 L 0,-0.004 0,0 z"
             id="path24"
             style="fill:#ffcc4d;fill-opacity:1;fill-rule:nonzero;stroke:none" /></g><g
           transform="translate(30.0625,14.7305)"
           id="g26"><path
             d="M 0,0 C 0.004,0.001 0.007,0.002 0.01,0.003 0.008,0.003 0,0.004 0,0.004 L 0,0 z"
             id="path28"
             style="fill:#ffcc4d;fill-opacity:1;fill-rule:nonzero;stroke:none" /></g><g
           transform="translate(36.9053,17.3867)"
           id="g30"><path
             d="m 0,0 c -1.774,-1.072 -3.839,-1.978 -6.833,-2.653 0.018,-0.002 0.082,-0.009 0.046,-0.02 -0.268,-0.068 -0.411,-0.135 -0.687,-0.197 -1.046,-0.204 -2.587,-0.296 -2.08,1.095 l 2.131,2.906 0.518,-0.518 4.5,4.5 -4.5,4.5 -4.5,-4.5 2.551,-2.551 -2.221,-3.029 -0.002,0.002 c -1.672,-2 -4.781,-1.328 -4.781,1.078 l -0.047,0 0,6 5.5,5.5 -7.5,7.5 -7.5,-7.5 5.5,-5.5 0,-6.19 c -0.164,-2.246 -3.14,-2.832 -4.766,-0.888 l -0.002,-0.002 -2.247,3.065 2.515,2.515 -4.5,4.5 -4.5,-4.5 4.5,-4.5 0.553,0.554 2.158,-2.942 c 0.507,-1.391 -1.035,-1.299 -2.081,-1.095 -0.274,0.062 -0.418,0.129 -0.686,0.197 -0.036,0.011 0.028,0.018 0.045,0.02 -2.994,0.675 -5.058,1.581 -6.832,2.653 -0.008,-0.151 -0.095,-0.301 -0.095,-0.455 0,-3.482 6.245,-10.923 14.623,-12.586 l 3.315,-3.33 3.345,3.33 C -6.181,-11.378 0.095,-3.937 0.095,-0.455 0.095,-0.301 0.008,-0.151 0,0"
             id="path32"
             style="fill:#ffcc4d;fill-opacity:1;fill-rule:nonzero;stroke:none" /></g></g></g></g></svg>