<svg xmlns="http://www.w3.org/2000/svg" viewBox="0 0 47.5 47.5" enable-background="new 0 0 47.5 47.5"><defs><clipPath id="a"><path d="M0 38h38V0H0v38z"/></clipPath></defs><g><g><g clip-path="url(#a)" transform="matrix(1.25 0 0 -1.25 0 47.5)"><g><path fill="#99aab5" d="M1 19C1 9.06 9.06 1 19 1s18 8.06 18 18-8.06 18-18 18S1 28.94 1 19"/></g><g><path fill="#e1e8ed" d="M5 19c0-7.73 6.27-14 14-14s14 6.27 14 14-6.27 14-14 14S5 26.73 5 19"/></g><g><path fill="#66757f" d="M18 19c0-.55.45-1 1-1s1 .45 1 1v11c0 .55-.45 1-1 1s-1-.45-1-1V19z"/></g><g><path fill="#66757f" d="M14 10.34c.48-.28 1.1-.1 1.37.36l4.5 7.8c.27.48.1 1.1-.37 1.36-.48.28-1.1.12-1.37-.36l-4.5-7.8c-.27-.47-.1-1.1.37-1.36"/></g></g></g></g></svg>