<svg xmlns="http://www.w3.org/2000/svg" viewBox="0 0 47.5 47.5" enable-background="new 0 0 47.5 47.5"><defs><clipPath id="a"><path d="M0 38h38V0H0v38z"/></clipPath></defs><g><g><g clip-path="url(#a)" transform="matrix(1.25 0 0 -1.25 0 47.5)"><g><path fill="#9aaab4" d="M37 18.94C37 9.04 28.97 1 19.06 1 9.16 1 1.13 9.03 1.13 18.94c0 9.9 8.03 17.93 17.93 17.93S37 28.84 37 18.94"/></g><g><path fill="#e1e8ed" d="M33 19c0-7.73-6.27-14-14-14S5 11.27 5 19s6.27 14 14 14 14-6.27 14-14"/></g><g><path fill="#67757f" d="M19 6c-.55 0-1 .45-1 1v12c0 .55.45 1 1 1s1-.45 1-1V7c0-.55-.45-1-1-1"/></g><g><path fill="#67757f" d="M19 18c-.15 0-.3.03-.45.1-.5.25-.7.85-.45 1.35l4 8c.25.5.85.7 1.35.45.5-.25.7-.85.44-1.35l-4-8c-.18-.35-.53-.55-.9-.55"/></g></g></g></g></svg>