<svg xmlns="http://www.w3.org/2000/svg" viewBox="0 0 47.5 47.5" enable-background="new 0 0 47.5 47.5"><defs><clipPath id="a"><path d="M0 38h38V0H0v38z"/></clipPath></defs><g><g><g clip-path="url(#a)" transform="matrix(1.25 0 0 -1.25 0 47.5)"><g><path fill="#99aab5" d="M37 19c0-9.94-8.06-18-18-18S1 9.06 1 19s8.06 18 18 18 18-8.06 18-18"/></g><g><path fill="#e1e8ed" d="M33 19c0-7.73-6.27-14-14-14S5 11.27 5 19s6.27 14 14 14 14-6.27 14-14"/></g><g><path fill="#66757f" d="M20 19c0-.55-.45-1-1-1s-1 .45-1 1v11c0 .55.45 1 1 1s1-.45 1-1V19z"/></g><g><path fill="#66757f" d="M27.66 14c-.27-.48-.9-.64-1.36-.37l-7.8 4.5c-.48.28-.64.9-.37 1.37.28.48.9.64 1.37.37l7.8-4.5c.47-.28.64-.9.36-1.37"/></g></g></g></g></svg>