<?xml version="1.0" encoding="UTF-8" standalone="no"?>
<!-- Created with Inkscape (http://www.inkscape.org/) -->

<svg
   xmlns:svg="http://www.w3.org/2000/svg"
   xmlns="http://www.w3.org/2000/svg"
   version="1.1"
   width="47.5"
   height="47.5"
   id="svg2"
   xml:space="preserve"><defs
     id="defs6"><clipPath
       id="clipPath18"><path
         d="M 0,38 38,38 38,0 0,0 0,38 z"
         id="path20" /></clipPath></defs><g
     transform="matrix(1.25,0,0,-1.25,0,47.5)"
     id="g12"><g
       id="g14"><g
         clip-path="url(#clipPath18)"
         id="g16"><g
           transform="translate(37,18.9375)"
           id="g22"><path
             d="m 0,0 c 0,-9.906 -8.031,-17.937 -17.937,-17.937 -9.907,0 -17.938,8.031 -17.938,17.937 0,9.907 8.031,17.937 17.938,17.937 C -8.031,17.937 0,9.907 0,0"
             id="path24"
             style="fill:#9aaab4;fill-opacity:1;fill-rule:nonzero;stroke:none" /></g><g
           transform="translate(33,19)"
           id="g26"><path
             d="m 0,0 c 0,-7.732 -6.268,-14 -14,-14 -7.732,0 -14,6.268 -14,14 0,7.732 6.268,14 14,14 C -6.268,14 0,7.732 0,0"
             id="path28"
             style="fill:#e1e8ed;fill-opacity:1;fill-rule:nonzero;stroke:none" /></g><g
           transform="translate(19,18)"
           id="g30"><path
             d="m 0,0 c -0.552,0 -1,0.447 -1,1 l 0,12 c 0,0.552 0.448,1 1,1 0.553,0 1,-0.448 1,-1 L 1,1 C 1,0.447 0.553,0 0,0"
             id="path32"
             style="fill:#67757f;fill-opacity:1;fill-rule:nonzero;stroke:none" /></g><g
           transform="translate(19.001,18)"
           id="g34"><path
             d="m 0,0 c -0.367,0 -0.72,0.202 -0.896,0.553 l -4,8 c -0.247,0.494 -0.046,1.094 0.448,1.342 0.495,0.248 1.095,0.046 1.342,-0.448 l 4,-8 C 1.141,0.953 0.94,0.353 0.446,0.105 0.303,0.034 0.15,0 0,0"
             id="path36"
             style="fill:#67757f;fill-opacity:1;fill-rule:nonzero;stroke:none" /></g></g></g></g></svg>