<svg xmlns="http://www.w3.org/2000/svg" viewBox="0 0 47.5 47.5" enable-background="new 0 0 47.5 47.5"><defs><clipPath id="a"><path d="M0 38h38V0H0v38z"/></clipPath></defs><g><g><g clip-path="url(#a)" transform="matrix(1.25 0 0 -1.25 0 47.5)"><g><path fill="#99aab5" d="M37 19c0-9.94-8.06-18-18-18S1 9.06 1 19s8.06 18 18 18 18-8.06 18-18"/></g><g><path fill="#e1e8ed" d="M33 19c0-7.73-6.27-14-14-14S5 11.27 5 19s6.27 14 14 14 14-6.27 14-14"/></g><g><path fill="#66757f" d="M20 19c0-.55-.45-1-1-1s-1 .45-1 1v11c0 .55.45 1 1 1s1-.45 1-1V19z"/></g><g><path fill="#66757f" d="M24.25 27.76c.48-.27.64-.9.37-1.36l-4.5-7.8c-.28-.48-.9-.64-1.37-.36-.48.27-.64.88-.36 1.36l4.5 7.8c.26.47.87.64 1.35.36"/></g></g></g></g></svg>