<svg xmlns="http://www.w3.org/2000/svg" viewBox="0 0 47.5 47.5" enable-background="new 0 0 47.5 47.5"><defs><clipPath id="a"><path d="M0 38h38V0H0v38z"/></clipPath><clipPath id="b"><path d="M5 37s-4 0-4-4V5c0-4 4-4 4-4h28c4 0 4 4 4 4v28s0 4-4 4H5z"/></clipPath><clipPath id="c"><path d="M17 23C5 13 1 11 1 11V5c0-4 4-4 4-4h28c4 0 4 4 4 4v6s-5 2-16 12h-4z"/></clipPath></defs><g><g><g clip-path="url(#a)" transform="matrix(1.25 0 0 -1.25 0 47.5)"><g><path fill="#88c9f9" d="M37 5s0-4-4-4H5S1 1 1 5v28c0 4 4 4 4 4h28c4 0 4-4 4-4V5z"/></g></g></g><g><g clip-path="url(#b)" transform="matrix(1.25 0 0 -1.25 0 47.5)"><g><path fill="#292f33" d="M1 11s4 2 16 12h4c11-10 16-12 16-12V1H1v10z"/></g></g></g><g><g clip-path="url(#c)" transform="matrix(1.25 0 0 -1.25 0 47.5)"><g><path fill="#fff" d="M16 24L4 14s2 1 4 1 2-3 3-3 2 2 4 2c1.38 0 1.37-1 3-1 1 0 2 1 3 1s2-1 3-1 2 2 4 2h5c1 0 0 1 0 1l-12 8h-5z"/></g></g></g></g></svg>