<svg xmlns="http://www.w3.org/2000/svg" viewBox="0 0 47.5 47.5" enable-background="new 0 0 47.5 47.5"><defs><clipPath id="a"><path d="M0 38h38V0H0v38z"/></clipPath><clipPath id="b"><path d="M18 30l-1-10h4l-1 10h-2z"/></clipPath><clipPath id="c"><path d="M0 38h38V0H0v38z"/></clipPath></defs><g><g><g clip-path="url(#a)" transform="matrix(1.25 0 0 -1.25 0 47.5)"><g><path fill="#88c9f9" d="M37 5s0-4-4-4H5S1 1 1 5v28c0 4 4 4 4 4h28c4 0 4-4 4-4V5z"/></g><g><path fill="#fff" d="M19 32h-1v-3h2v3h-1z"/></g><g><path fill="#dd2e44" d="M20 34s0 1-1 1-1-1-1-1v-2h2v2z"/></g><g><path fill="#dd2e44" d="M18 30l-1-10h4l-1 10h-2z"/></g></g></g><g><g clip-path="url(#b)" transform="matrix(1.25 0 0 -1.25 0 47.5)"><path fill="#fff" d="M16 24h6v3h-6v-3z"/></g></g><g><g clip-path="url(#c)" transform="matrix(1.25 0 0 -1.25 0 47.5)"><path fill="#fff" d="M15 17h8v4h-8v-4z"/><path fill="#dd2e44" d="M16 13h6v4h-6v-4z"/><g><path fill="#dd2e44" d="M16 17S16 6 6 1h3s7 3 9 16h-2z"/></g><g><path fill="#dd2e44" d="M22 17S22 6 32 1h-3s-7 3-9 16h2z"/></g><path fill="#dd2e44" d="M20 1h-2v13h2V1z"/><g><path fill="#dd2e44" d="M9 1s5 3 10 3 10-3 10-3v1.88S24 6 19 6 9 2.88 9 2.88V1z"/></g></g></g></g></svg>