<?xml version="1.0" encoding="UTF-8" standalone="no"?><svg xmlns:svg="http://www.w3.org/2000/svg" xmlns="http://www.w3.org/2000/svg" version="1.1" viewBox="0 0 47.5 47.5" style="enable-background:new 0 0 47.5 47.5;" id="svg2" xml:space="preserve"><defs id="defs6"><clipPath id="clipPath18"><path d="M 0,38 38,38 38,0 0,0 0,38 z" id="path20"/></clipPath><clipPath id="clipPath30"><path d="M 5,37 C 5,37 1,37 1,33 L 1,33 1,5 C 1,1 5,1 5,1 l 0,0 28,0 c 4,0 4,4 4,4 l 0,0 0,28 c 0,0 0,4 -4,4 l 0,0 -28,0 z" id="path32"/></clipPath></defs><g transform="matrix(1.25,0,0,-1.25,0,47.5)" id="g12"><g id="g14"><g clip-path="url(#clipPath18)" id="g16"><g transform="translate(37,5)" id="g22"><path d="m 0,0 c 0,0 0,-4 -4,-4 l -28,0 c 0,0 -4,0 -4,4 l 0,28 c 0,4 4,4 4,4 l 28,0 c 4,0 4,-4 4,-4 L 0,0 z" id="path24" style="fill:#88c9f9;fill-opacity:1;fill-rule:nonzero;stroke:none"/></g></g></g><g id="g26"><g clip-path="url(#clipPath30)" id="g28"><g transform="translate(25,35)" id="g34"><path d="m 0,0 c 1,0 2,-3 3,-3 1,0 3,0 3,-1 0,-1 -3,-1 -3,-2 0,-1 -1,-1 -2,-1 -1,0 -3,0 -3,1 0,1 2,0 2,1 0,1 -1,5 0,5" id="path36" style="fill:#3e721d;fill-opacity:1;fill-rule:nonzero;stroke:none"/></g><g transform="translate(22,27)" id="g38"><path d="M 0,0 C 0,1 2,1 2,1 2,1 3,-1 2,-1 1,-1 0,0 0,0" id="path40" style="fill:#3e721d;fill-opacity:1;fill-rule:nonzero;stroke:none"/></g><g transform="translate(24,25)" id="g42"><path d="m 0,0 c -1,0 -1,-2 -1,-3 0,-1 0,-3 -1,-3 -1,0 -2,-1 -2,-2 0,-1 -1,-2 -2,-2 -1,0 -2,-2 -2,-2 0,0 -4,-1 -5,-1 -1,0 -3,0 -3,-1 0,-1 -3,-2 -1,-2 2,0 2,1 3,1 l 2,0 c 0,0 3,1 3,0 0,-1 0,-2 1,-2 1,0 2,1 2,2 0,1 1,1 2,1 1,0 2,0 2,1 0,1 1,2 2,2 1,0 1,2 1,3 0,1 0,3 1,3 1,0 2,3 1,3 -1,0 -2,0 -2,1 0,1 -1,1 -1,1" id="path44" style="fill:#3e721d;fill-opacity:1;fill-rule:nonzero;stroke:none"/></g><g transform="translate(9,7)" id="g46"><path d="M 0,0 C 0,1 0,2 1,2 L 4,2 C 5,2 5,2 4,1 3,0 3,1 2,1 1,1 2,-1 1,-1 0,-1 0,0 0,0" id="path48" style="fill:#3e721d;fill-opacity:1;fill-rule:nonzero;stroke:none"/></g><g transform="translate(5,4)" id="g50"><path d="M 0,0 C 0,1 1,1 1,2 1,3 0,2 0,3 0,4 1,4 2,4 3,4 3,3 3,2 3,1 2,1 2,0 2,-1 1,-1 1,-1 1,-1 0,-1 0,0" id="path52" style="fill:#3e721d;fill-opacity:1;fill-rule:nonzero;stroke:none"/></g></g></g></g></svg>
