<svg xmlns="http://www.w3.org/2000/svg" viewBox="0 0 47.5 47.5" enable-background="new 0 0 47.5 47.5"><defs><clipPath id="a"><path d="M0 38h38V0H0v38z"/></clipPath><clipPath id="b"><path d="M5 37s-4 0-4-4V5c0-4 4-4 4-4h28c4 0 4 4 4 4v28s0 4-4 4H5z"/></clipPath></defs><g><g><g clip-path="url(#a)" transform="matrix(1.25 0 0 -1.25 0 47.5)"><g><path fill="#88c9f9" d="M37 5s0-4-4-4H5S1 1 1 5v28c0 4 4 4 4 4h28c4 0 4-4 4-4V5z"/></g></g></g><g><g clip-path="url(#b)" transform="matrix(1.25 0 0 -1.25 0 47.5)"><g><path fill="#3e721d" d="M25 35c1 0 2-3 3-3s3 0 3-1-3-1-3-2-1-1-2-1-3 0-3 1 2 0 2 1-1 5 0 5"/></g><g><path fill="#3e721d" d="M22 27c0 1 2 1 2 1s1-2 0-2-2 1-2 1"/></g><g><path fill="#3e721d" d="M24 25c-1 0-1-2-1-3s0-3-1-3-2-1-2-2-1-2-2-2-2-2-2-2-4-1-5-1-3 0-3-1-3-2-1-2 2 1 3 1h2s3 1 3 0 0-2 1-2 2 1 2 2 1 1 2 1 2 0 2 1 1 2 2 2 1 2 1 3 0 3 1 3 2 3 1 3-2 0-2 1-1 1-1 1"/></g><g><path fill="#3e721d" d="M9 7c0 1 0 2 1 2h3c1 0 1 0 0-1s-1 0-2 0 0-2-1-2-1 1-1 1"/></g><g><path fill="#3e721d" d="M5 4c0 1 1 1 1 2S5 6 5 7s1 1 2 1 1-1 1-2-1-1-1-2-1-1-1-1-1 0-1 1"/></g></g></g></g></svg>