<?xml version="1.0" encoding="UTF-8" standalone="no"?><svg xmlns:svg="http://www.w3.org/2000/svg" xmlns="http://www.w3.org/2000/svg" version="1.1" viewBox="0 0 47.5 47.5" style="enable-background:new 0 0 47.5 47.5;" id="svg2" xml:space="preserve"><defs id="defs6"><clipPath id="clipPath18"><path d="M 0,38 38,38 38,0 0,0 0,38 z" id="path20"/></clipPath><clipPath id="clipPath42"><path d="m 18,30 -1,-10 4,0 -1,10 -2,0 z" id="path44"/></clipPath><clipPath id="clipPath52"><path d="M 0,38 38,38 38,0 0,0 0,38 z" id="path54"/></clipPath></defs><g transform="matrix(1.25,0,0,-1.25,0,47.5)" id="g12"><g id="g14"><g clip-path="url(#clipPath18)" id="g16"><g transform="translate(37,5)" id="g22"><path d="m 0,0 c 0,0 0,-4 -4,-4 l -28,0 c 0,0 -4,0 -4,4 l 0,28 c 0,4 4,4 4,4 l 28,0 c 4,0 4,-4 4,-4 L 0,0 z" id="path24" style="fill:#88c9f9;fill-opacity:1;fill-rule:nonzero;stroke:none"/></g><g transform="translate(19,32)" id="g26"><path d="m 0,0 -1,0 0,-3 2,0 0,3 -1,0 z" id="path28" style="fill:#ffffff;fill-opacity:1;fill-rule:nonzero;stroke:none"/></g><g transform="translate(20,34)" id="g30"><path d="M 0,0 C 0,0 0,1 -1,1 -2,1 -2,0 -2,0 l 0,-2 2,0 0,2 z" id="path32" style="fill:#dd2e44;fill-opacity:1;fill-rule:nonzero;stroke:none"/></g><g transform="translate(18,30)" id="g34"><path d="M 0,0 -1,-10 3,-10 2,0 0,0 z" id="path36" style="fill:#dd2e44;fill-opacity:1;fill-rule:nonzero;stroke:none"/></g></g></g><g id="g38"><g clip-path="url(#clipPath42)" id="g40"><path d="m 16,24 6,0 0,3 -6,0 0,-3 z" id="path46" style="fill:#ffffff;fill-opacity:1;fill-rule:nonzero;stroke:none"/></g></g><g id="g48"><g clip-path="url(#clipPath52)" id="g50"><path d="m 15,17 8,0 0,4 -8,0 0,-4 z" id="path56" style="fill:#ffffff;fill-opacity:1;fill-rule:nonzero;stroke:none"/><path d="m 16,13 6,0 0,4 -6,0 0,-4 z" id="path58" style="fill:#dd2e44;fill-opacity:1;fill-rule:nonzero;stroke:none"/><g transform="translate(16,17)" id="g60"><path d="m 0,0 c 0,0 0,-11 -10,-16 l 3,0 c 0,0 7,3 9,16 L 0,0 z" id="path62" style="fill:#dd2e44;fill-opacity:1;fill-rule:nonzero;stroke:none"/></g><g transform="translate(22,17)" id="g64"><path d="m 0,0 c 0,0 0,-11 10,-16 l -3,0 c 0,0 -7,3 -9,16 l 2,0 z" id="path66" style="fill:#dd2e44;fill-opacity:1;fill-rule:nonzero;stroke:none"/></g><path d="m 20,1 -2,0 0,13 2,0 0,-13 z" id="path68" style="fill:#dd2e44;fill-opacity:1;fill-rule:nonzero;stroke:none"/><g transform="translate(9,1)" id="g70"><path d="M 0,0 C 0,0 5,3 10,3 15,3 20,0 20,0 l 0,1.884 C 20,1.884 15,5 10,5 5,5 0,1.884 0,1.884 L 0,0 z" id="path72" style="fill:#dd2e44;fill-opacity:1;fill-rule:nonzero;stroke:none"/></g></g></g></g></svg>
