<svg xmlns="http://www.w3.org/2000/svg" viewBox="0 0 47.5 47.5" enable-background="new 0 0 47.5 47.5"><defs><clipPath id="a"><path d="M0 38h38V0H0v38z"/></clipPath></defs><g><g><g clip-path="url(#a)" transform="matrix(1.25 0 0 -1.25 0 47.5)"><g><path fill="#66757f" d="M9 10S7 6 7 4s4-3 12-3 12 1 12 3-2 6-2 6H9z"/></g><g><path fill="#66757f" d="M10 31c-3 0-3-1-4-10-1-8.95 0-10 4-10 2 0 2 20 0 20"/></g><g><path fill="#66757f" d="M28 31c3 0 3-1 4-10 1-8.95 0-10-4-10-2 0-2 20 0 20"/></g><g><path fill="#ccd6dd" d="M9 34s1 3 10 3 10-3 10-3 1-6 1-14-1-14-1-14-1-2-10-2S9 6 9 6 8 9 8 20s1 14 1 14"/></g><g><path fill="#66757f" d="M29 29c0 1-3 4-10 4S9 30 9 29c0-.8 4.55-1.6 6.3-1.9.7-2.65.7-8.1.7-8.1.8 3.22.32 7.08.1 8.47.2.6.84 1.53 2.9 1.53 3 0 3-2 3-2-.23-1.66-.56-5.1.16-8 0 0 0 5.5.7 8.13 1.87.3 6.14 1.1 6.14 1.87"/></g><g><path fill="#66757f" d="M15 17c0 1 2 3 4 3s4-2 4-3-1-1-4-1-4 0-4 1"/></g><g><path fill="#66757f" d="M13 13s2 2 6 2 6-2 6-2-2 1-6 1-6-1-6-1"/></g><g><path fill="#66757f" d="M13 11c0 1 2 2 6 2s6-1 6-2-1-1-6-1-6 0-6 1"/></g></g></g></g></svg>