<svg xmlns="http://www.w3.org/2000/svg" viewBox="0 0 47.5 47.5" enable-background="new 0 0 47.5 47.5"><defs><clipPath id="a"><path d="M0 38h38V0H0v38z"/></clipPath><clipPath id="b"><path d="M5 37s-4 0-4-4V5c0-4 4-4 4-4h28c4 0 4 4 4 4v28s0 4-4 4H5z"/></clipPath></defs><g><g><g clip-path="url(#a)" transform="matrix(1.25 0 0 -1.25 0 47.5)"><g><path fill="#88c9f9" d="M37 5s0-4-4-4H5S1 1 1 5v28c0 4 4 4 4 4h28c4 0 4-4 4-4V5z"/></g></g></g><g><g clip-path="url(#b)" transform="matrix(1.25 0 0 -1.25 0 47.5)"><g><path fill="#157569" d="M4.1 15h1.5c-.28-1.18-.6-2-.6-2s-.37.75-.9 2M37 27l-7.18-1.8c-.65.98-1.44 1.86-2.32 2.63L33 37h-2l-6.38-7.3c-1.16.57-2.42.96-3.74 1.15L20 37h-2l-.88-6.15c-1.3-.2-2.53-.57-3.68-1.1L8 37H6l4.56-9.12c-.9-.78-1.7-1.68-2.38-2.68L1 27v-2l5.82-2.5C6.3 21.1 6 19.6 6 18c0-.1 0-.2-.02-.3l-2.74-.38c-.08.22-.16.44-.24.68-1 3-2 5-2 5L0-2l33 3s-.47 1.04 0 2c.18.37 1.45.66 1 2-.7 2.13-1.42 6.77-1.77 10H37v2l-5 .7c0 .1 0 .22 0 .3 0 1.6-.3 3.1-.82 4.5L37 25v2z"/></g><g><path fill="#3fc9b9" d="M8 19s.42 3.32 4 6c4 3 6 2 6 1s-3-1-6-3-4-4-4-4"/></g><g><path fill="#3fc9b9" d="M30 19s-.42 3.32-4 6c-4 3-6 2-6 1s3-1 6-3 4-4 4-4"/></g><g><path fill="#3fc9b9" d="M19 23c-6 0-8-4-8-4s2 2 4 2 2-2 2-2v-2c0-1 2-1 2-1s2 0 2 1v2s0 2 2 2 4-2 4-2-2 4-8 4"/></g><g><path fill="#3fc9b9" d="M24 17c-2 0-2 1-2 1s-.08-2.81-1-4h-4c-.92 1.2-1 4-1 4s0-1-2-1-4 1-4 1 0-9 2-10c1.26-.63 4 1 7 1s5.74-1.63 7-1c2 1 2 10 2 10s-2-1-4-1"/></g><g><path fill="#157569" d="M16 12h6s-1 1-3 1-3-1-3-1"/></g><g><path fill="#3fc9b9" d="M3 14s3-7 6-9 9.58-3 10.3-5C19.3 0 10 5 8 2 6.53-.2 6 3 6 4s0 4-2 1c-.78-1.18-2 4-1 9"/></g></g></g></g></svg>