<svg xmlns="http://www.w3.org/2000/svg" viewBox="0 0 47.5 47.5" enable-background="new 0 0 47.5 47.5"><defs><clipPath id="a"><path d="M0 38h38V0H0v38z"/></clipPath></defs><g><g><g clip-path="url(#a)" transform="matrix(1.25 0 0 -1.25 0 47.5)"><g><path fill="#aa8ed6" d="M37 35c0 .8-.5 1.54-1.23 1.85-.75.3-1.6.14-2.18-.44-.9-.87-4-3.4-6.6-3.4-2.4 1.27-5.1 2-8 2-2.9 0-5.6-.73-8-2-2.58 0-5.63 2.47-6.6 3.4-.56.6-1.42.76-2.17.45C1.5 36.55 1 35.8 1 35c0-2.38.8-6.23 3.36-8.4C2.86 24.1 2 21.16 2 18 2 8.6 9.6 1 19 1s17 7.6 17 17c0 3.15-.87 6.08-2.36 8.6C36.2 28.78 37 32.63 37 35"/></g><g><path fill="#553986" d="M28.34 11.37c-.18.16-.45.17-.64.03-.04-.03-3.92-2.9-8.7-2.9-4.77 0-8.66 2.87-8.7 2.9-.2.14-.46.13-.64-.03-.17-.16-.2-.42-.1-.63.14-.2 3.23-5.24 9.44-5.24 6.2 0 9.3 5.03 9.43 5.24.12.2.08.47-.1.63"/></g><g><path fill="#553986" d="M16.7 18.7C13.46 21.97 8.23 22 8 22c-.55 0-1-.45-1-1s.45-1 1-1c.03 0 1.92-.02 3.98-.74-.6-.64-.98-1.63-.98-2.76 0-1.93 1.12-3.5 2.5-3.5s2.5 1.57 2.5 3.5c0 .17-.02.34-.04.5.02 0 .03 0 .04 0 .26 0 .5.1.7.3.4.38.4 1.02 0 1.4"/></g><g><path fill="#553986" d="M30 22c-.22 0-5.45-.04-8.7-3.3-.4-.38-.4-1.02 0-1.4.2-.2.44-.3.7-.3 0 0 .02 0 .04 0-.02-.16-.04-.33-.04-.5 0-1.93 1.12-3.5 2.5-3.5s2.5 1.57 2.5 3.5c0 1.13-.4 2.12-.98 2.76 2.06.72 3.95.74 3.98.74.55 0 1 .45 1 1s-.45 1-1 1"/></g></g></g></g></svg>