<svg xmlns="http://www.w3.org/2000/svg" viewBox="0 0 47.5 47.5" enable-background="new 0 0 47.5 47.5"><defs><clipPath id="a"><path d="M0 38h38V0H0v38z"/></clipPath></defs><g><g><g clip-path="url(#a)" transform="matrix(1.25 0 0 -1.25 0 47.5)"><g><path fill="#ffcc4d" d="M36 19c0-9.4-7.6-17-17-17S2 9.6 2 19s7.6 17 17 17 17-7.6 17-17"/></g><g><path fill="#292f33" fill-rule="evenodd" d="M2.24 25.98c.24-.24 1.44-.96 1.68-1.67.24-.7.72-4.78 2.16-5.97 1.48-1.24 7.07-.78 8.14-.24 2.4 1.18 2.7 4.52 3.12 6.2.24.96 1.68.96 1.68.96s1.44 0 1.67-.95c.42-1.68.7-5.02 3.1-6.2 1.08-.55 6.68-1 8.16.23 1.44 1.2 1.92 5.26 2.16 5.98.23.73 1.43 1.44 1.67 1.68.23.24.23 1.2 0 1.44-.5.48-6.14.9-12.23.24-1.2-.14-1.68-.48-4.55-.48-2.88 0-3.34.34-4.56.48-6.08.66-11.74.24-12.22-.24-.24-.24-.24-1.2 0-1.44"/></g><g><path fill="#664500" d="M28.34 13.37c-.18.16-.45.17-.64.03-.04-.03-3.92-2.9-8.7-2.9-4.77 0-8.66 2.87-8.7 2.9-.2.14-.46.13-.64-.03-.17-.16-.2-.42-.1-.63.14-.2 3.23-5.24 9.44-5.24 6.2 0 9.3 5.03 9.43 5.24.12.2.08.47-.1.63"/></g></g></g></g></svg>