<?xml version="1.0" encoding="UTF-8" standalone="no"?><svg xmlns:svg="http://www.w3.org/2000/svg" xmlns="http://www.w3.org/2000/svg" version="1.1" viewBox="0 0 47.5 47.5" style="enable-background:new 0 0 47.5 47.5;" id="svg2" xml:space="preserve"><defs id="defs6"><clipPath id="clipPath18"><path d="M 0,38 38,38 38,0 0,0 0,38 z" id="path20"/></clipPath></defs><g transform="matrix(1.25,0,0,-1.25,0,47.5)" id="g12"><g id="g14"><g clip-path="url(#clipPath18)" id="g16"><g transform="translate(37,19)" id="g22"><path d="m 0,0 c 0,-9.941 -8.059,-18 -18,-18 -9.941,0 -18,8.059 -18,18 0,9.941 8.059,18 18,18 C -8.059,18 0,9.941 0,0" id="path24" style="fill:#ffcc4d;fill-opacity:1;fill-rule:nonzero;stroke:none"/></g><g transform="translate(22,8)" id="g26"><path d="m 0,0 5,-5 c 1.728,-1.728 5,-2 7,0 2,2 1.903,4.962 0.175,6.691 L 8,6 C 5,1 0,0 0,0" id="path28" style="fill:#e75a70;fill-opacity:1;fill-rule:nonzero;stroke:none"/></g><g transform="translate(19,6)" id="g30"><path d="m 0,0 c -6.461,0 -8.738,3.305 -8.832,3.445 -0.306,0.46 -0.182,1.08 0.277,1.387 0.457,0.305 1.073,0.184 1.382,-0.269 C -7.088,4.441 -5.294,2 0,2 8.081,2 9.955,8.949 10.03,9.245 10.168,9.779 10.709,10.104 11.245,9.968 11.779,9.833 12.104,9.292 11.97,8.758 11.948,8.67 9.669,0 0,0" id="path32" style="fill:#664500;fill-opacity:1;fill-rule:nonzero;stroke:none"/></g><g transform="translate(7.999,20)" id="g34"><path d="M 0,0 C -0.15,0 -0.303,0.034 -0.446,0.105 -0.94,0.353 -1.141,0.954 -0.894,1.447 -0.841,1.552 0.425,4 4.001,4 7.579,4 8.843,1.551 8.896,1.447 9.143,0.953 8.942,0.353 8.448,0.105 7.957,-0.141 7.363,0.057 7.112,0.542 7.068,0.622 6.281,2 4.001,2 1.684,2 0.902,0.567 0.896,0.553 0.72,0.202 0.367,0 0,0" id="path36" style="fill:#664500;fill-opacity:1;fill-rule:nonzero;stroke:none"/></g><g transform="translate(23,19.9995)" id="g38"><path d="m 0,0 c -0.404,0 -0.786,0.248 -0.937,0.649 -0.193,0.518 0.069,1.094 0.585,1.288 l 8,3 C 8.166,5.127 8.743,4.869 8.937,4.352 9.13,3.834 8.868,3.258 8.352,3.064 l -8,-3 C 0.235,0.021 0.117,0 0,0" id="path40" style="fill:#664500;fill-opacity:1;fill-rule:nonzero;stroke:none"/></g></g></g></g></svg>
