<?xml version="1.0" encoding="UTF-8" standalone="no"?><svg xmlns:svg="http://www.w3.org/2000/svg" xmlns="http://www.w3.org/2000/svg" version="1.1" viewBox="0 0 47.5 47.5" style="enable-background:new 0 0 47.5 47.5;" id="svg2" xml:space="preserve"><defs id="defs6"><clipPath id="clipPath18"><path d="M 0,38 38,38 38,0 0,0 0,38 z" id="path20"/></clipPath></defs><g transform="matrix(1.25,0,0,-1.25,0,47.5)" id="g12"><g id="g14"><g clip-path="url(#clipPath18)" id="g16"><g transform="translate(36,18)" id="g22"><path d="m 0,0 c 0,-9.389 -7.611,-17 -17,-17 -9.388,0 -17,7.611 -17,17 0,9.388 7.612,17 17,17 C -7.611,17 0,9.388 0,0" id="path24" style="fill:#ffcc4d;fill-opacity:1;fill-rule:nonzero;stroke:none"/></g><g transform="translate(28.335,13.3711)" id="g26"><path d="m 0,0 c -0.178,0.161 -0.444,0.171 -0.635,0.029 -0.039,-0.029 -3.922,-2.9 -8.7,-2.9 -4.766,0 -8.662,2.871 -8.7,2.9 -0.191,0.142 -0.457,0.13 -0.635,-0.029 -0.177,-0.16 -0.217,-0.424 -0.094,-0.628 0.129,-0.215 3.217,-5.243 9.429,-5.243 6.212,0 9.301,5.028 9.429,5.243 C 0.217,-0.423 0.178,-0.16 0,0" id="path28" style="fill:#664500;fill-opacity:1;fill-rule:nonzero;stroke:none"/></g><g transform="translate(19,29)" id="g30"><path d="M 0,0 C -6.627,0 -12,0.567 -12,2.5 -12,4.433 -6.627,5 0,5 6.627,5 12,4.433 12,2.5 12,0.567 6.627,0 0,0 m 0,7 c -8.836,0 -16,-1.687 -16,-5 0,-3.313 7.164,-5 16,-5 8.836,0 16,1.687 16,5 0,3.313 -7.164,5 -16,5" id="path32" style="fill:#5dadec;fill-opacity:1;fill-rule:nonzero;stroke:none"/></g><g transform="translate(11.375,29.9375)" id="g34"><path d="m 0,0 c -3.397,1.324 -2.5,1.991 -0.062,3.229 2.308,1.173 4.92,1.833 7.687,1.833 2.893,0 5.616,-0.722 8.001,-1.997 0.695,-0.372 1.432,-0.885 2.124,-1.346" id="path36" style="fill:#ffcc4d;fill-opacity:1;fill-rule:nonzero;stroke:none"/></g><g transform="translate(27,17)" id="g38"><path d="M 0,0 C -0.419,0 -0.809,0.265 -0.948,0.684 -1.151,1.283 -1.967,3 -3,3 -4.062,3 -4.889,1.173 -5.052,0.684 -5.227,0.16 -5.788,-0.124 -6.316,0.052 -6.84,0.226 -7.123,0.792 -6.948,1.316 -6.823,1.693 -5.645,5 -3,5 -0.355,5 0.823,1.693 0.948,1.316 1.123,0.792 0.84,0.226 0.316,0.052 0.211,0.017 0.104,0 0,0" id="path40" style="fill:#664500;fill-opacity:1;fill-rule:nonzero;stroke:none"/></g><g transform="translate(17,17)" id="g42"><path d="M 0,0 C -0.419,0 -0.809,0.265 -0.949,0.684 -1.152,1.283 -1.966,3 -3,3 -4.062,3 -4.888,1.173 -5.051,0.684 -5.226,0.16 -5.79,-0.124 -6.316,0.052 -6.84,0.226 -7.124,0.792 -6.949,1.316 -6.823,1.693 -5.645,5 -3,5 -0.355,5 0.823,1.693 0.949,1.316 1.124,0.792 0.84,0.226 0.316,0.052 0.211,0.017 0.104,0 0,0" id="path44" style="fill:#664500;fill-opacity:1;fill-rule:nonzero;stroke:none"/></g></g></g></g></svg>
