<svg xmlns="http://www.w3.org/2000/svg" viewBox="0 0 47.5 47.5" enable-background="new 0 0 47.5 47.5"><defs><clipPath id="a"><path d="M0 38h38V0H0v38z"/></clipPath></defs><g><g><g clip-path="url(#a)" transform="matrix(1.25 0 0 -1.25 0 47.5)"><g><path fill="#ffcc4d" d="M36 19c0-9.4-7.6-17-17-17S2 9.6 2 19s7.6 17 17 17 17-7.6 17-17"/></g><g><path fill="#664500" d="M28.34 14.37c-.18.16-.45.17-.64.03-.04-.03-3.92-2.9-8.7-2.9-4.77 0-8.66 2.87-8.7 2.9-.2.14-.46.13-.64-.03-.17-.16-.2-.42-.1-.63.14-.2 3.23-5.24 9.44-5.24 6.2 0 9.3 5.03 9.43 5.24.12.2.08.47-.1.63"/></g><g><path fill="#5dadec" d="M19 30c-6.63 0-12 .57-12 2.5 0 1.93 5.37 2.5 12 2.5s12-.57 12-2.5c0-1.93-5.37-2.5-12-2.5m0 7c-8.84 0-16-1.7-16-5s7.16-5 16-5 16 1.7 16 5-7.16 5-16 5"/></g><g><path fill="#ffcc4d" d="M11.38 30.94c-3.4 1.32-2.5 2-.07 3.23C13.63 35.34 16.24 36 19 36c2.9 0 5.62-.72 8-2 .7-.37 1.43-.88 2.12-1.34"/></g><g><path fill="#664500" d="M27 18c-.42 0-.8.27-.95.68-.2.6-1.02 2.32-2.05 2.32-1.06 0-1.9-1.83-2.05-2.32-.18-.52-.74-.8-1.27-.63-.52.18-.8.74-.63 1.27.13.37 1.3 3.68 3.95 3.68 2.65 0 3.82-3.3 3.95-3.68.17-.53-.1-1.1-.63-1.27-.1-.03-.22-.05-.32-.05"/></g><g><path fill="#664500" d="M17 18c-.42 0-.8.27-.95.68-.2.6-1.02 2.32-2.05 2.32-1.06 0-1.9-1.83-2.05-2.32-.18-.52-.74-.8-1.27-.63-.52.18-.8.74-.63 1.27.13.37 1.3 3.68 3.95 3.68 2.64 0 3.82-3.3 3.95-3.68.17-.53-.1-1.1-.63-1.27-.1-.03-.22-.05-.32-.05"/></g></g></g></g></svg>