<?xml version="1.0" encoding="UTF-8" standalone="no"?><svg xmlns:svg="http://www.w3.org/2000/svg" xmlns="http://www.w3.org/2000/svg" version="1.1" viewBox="0 0 47.5 47.5" style="enable-background:new 0 0 47.5 47.5;" id="svg2" xml:space="preserve"><defs id="defs6"><clipPath id="clipPath18"><path d="M 0,38 38,38 38,0 0,0 0,38 z" id="path20"/></clipPath></defs><g transform="matrix(1.25,0,0,-1.25,0,47.5)" id="g12"><g id="g14"><g clip-path="url(#clipPath18)" id="g16"><g transform="translate(36,20)" id="g22"><path d="m 0,0 c 0,-9.389 -7.611,-17 -17,-17 -9.388,0 -17,7.611 -17,17 0,9.388 7.612,17 17,17 C -7.611,17 0,9.388 0,0" id="path24" style="fill:#ffcc4d;fill-opacity:1;fill-rule:nonzero;stroke:none"/></g><g transform="translate(29.457,20.2031)" id="g26"><path d="m 0,0 c -0.06,0.135 -1.499,3.297 -4.457,3.297 -2.957,0 -4.397,-3.162 -4.457,-3.297 -0.092,-0.207 -0.032,-0.449 0.144,-0.591 0.175,-0.142 0.426,-0.147 0.611,-0.014 0.012,0.009 1.262,0.902 3.702,0.902 2.426,0 3.674,-0.881 3.702,-0.901 0.088,-0.066 0.193,-0.099 0.298,-0.099 0.11,0 0.221,0.036 0.311,0.109 C 0.032,-0.452 0.093,-0.208 0,0" id="path28" style="fill:#664500;fill-opacity:1;fill-rule:nonzero;stroke:none"/></g><g transform="translate(17.457,20.2031)" id="g30"><path d="m 0,0 c -0.06,0.135 -1.499,3.297 -4.457,3.297 -2.957,0 -4.397,-3.162 -4.457,-3.297 -0.092,-0.207 -0.032,-0.449 0.144,-0.591 0.176,-0.142 0.427,-0.147 0.61,-0.014 0.013,0.009 1.262,0.902 3.703,0.902 2.426,0 3.674,-0.881 3.702,-0.901 0.088,-0.066 0.193,-0.099 0.298,-0.099 0.11,0 0.221,0.036 0.311,0.109 C 0.033,-0.452 0.092,-0.208 0,0" id="path32" style="fill:#664500;fill-opacity:1;fill-rule:nonzero;stroke:none"/></g><g transform="translate(32,21.9995)" id="g34"><path d="M 0,0 C -0.396,0 -0.772,0.238 -0.929,0.629 -2.707,5.074 -7.151,6.01 -7.196,6.02 -7.737,6.128 -8.089,6.655 -7.98,7.196 -7.872,7.738 -7.346,8.087 -6.804,7.98 -6.578,7.936 -1.248,6.812 0.929,1.372 1.134,0.859 0.884,0.277 0.371,0.072 0.25,0.023 0.124,0 0,0" id="path36" style="fill:#664500;fill-opacity:1;fill-rule:nonzero;stroke:none"/></g><g transform="translate(5.9995,21.9995)" id="g38"><path d="M 0,0 C -0.124,0 -0.249,0.023 -0.371,0.072 -0.884,0.277 -1.133,0.859 -0.928,1.372 1.248,6.812 6.579,7.936 6.804,7.98 7.348,8.087 7.873,7.738 7.981,7.196 8.089,6.656 7.739,6.13 7.2,6.02 7.015,5.982 2.693,5.04 0.929,0.629 0.772,0.238 0.397,0 0,0" id="path40" style="fill:#664500;fill-opacity:1;fill-rule:nonzero;stroke:none"/></g><g transform="translate(19,16)" id="g42"><path d="m 0,0 c -3.623,0 -6.027,0.422 -9,1 -0.679,0.131 -2,0 -2,-2 0,-4 4.595,-9 11,-9 6.404,0 11,5 11,9 C 11,1 9.679,1.132 9,1 6.027,0.422 3.623,0 0,0" id="path44" style="fill:#664500;fill-opacity:1;fill-rule:nonzero;stroke:none"/></g><g transform="translate(10,15)" id="g46"><path d="m 0,0 c 0,0 3,-1 9,-1 6,0 9,1 9,1 0,0 -2,-4 -9,-4 -7,0 -9,4 -9,4" id="path48" style="fill:#ffffff;fill-opacity:1;fill-rule:nonzero;stroke:none"/></g><g transform="translate(11.8472,9.7705)" id="g50"><path d="m 0,0 c -0.68,-2.677 -3.4,-4.295 -6.077,-3.615 -2.676,0.678 -4.295,3.399 -3.615,6.076 0.679,2.677 6.337,8.708 7.307,8.462 C -1.417,10.677 0.679,2.677 0,0" id="path52" style="fill:#5dadec;fill-opacity:1;fill-rule:nonzero;stroke:none"/></g><g transform="translate(26.1328,9.7705)" id="g54"><path d="m 0,0 c 0.68,-2.677 3.4,-4.295 6.077,-3.615 2.677,0.678 4.296,3.399 3.616,6.076 C 9.014,5.138 3.355,11.169 2.386,10.923 1.417,10.677 -0.679,2.677 0,0" id="path56" style="fill:#5dadec;fill-opacity:1;fill-rule:nonzero;stroke:none"/></g></g></g></g></svg>
