<svg xmlns="http://www.w3.org/2000/svg" viewBox="0 0 47.5 47.5" enable-background="new 0 0 47.5 47.5"><defs><clipPath id="a"><path d="M0 38h38V0H0v38z"/></clipPath></defs><g><g><g clip-path="url(#a)" transform="matrix(1.25 0 0 -1.25 0 47.5)"><g><path fill="#ffcc4d" d="M36 19c0-9.4-7.6-17-17-17S2 9.6 2 19s7.6 17 17 17 17-7.6 17-17"/></g><g><path fill="#664500" d="M29.46 19.2c-.06.14-1.5 3.3-4.46 3.3s-4.4-3.16-4.46-3.3c-.1-.2-.03-.45.15-.6.16-.13.4-.13.6 0 0 0 1.26.9 3.7.9 2.43 0 3.67-.88 3.7-.9.1-.07.2-.1.3-.1.1 0 .22.04.3.1.2.15.25.4.16.6"/></g><g><path fill="#664500" d="M17.46 19.2c-.06.14-1.5 3.3-4.46 3.3s-4.4-3.16-4.46-3.3c-.1-.2-.03-.45.15-.6.16-.13.4-.13.6 0 0 0 1.26.9 3.7.9 2.43 0 3.67-.88 3.7-.9.1-.07.2-.1.3-.1.1 0 .22.04.3.1.2.15.25.4.16.6"/></g><g><path fill="#664500" d="M32 21c-.4 0-.77.24-.93.63-1.78 4.44-6.22 5.38-6.27 5.4-.54.1-.9.62-.78 1.17.1.54.63.9 1.18.78.22-.04 5.55-1.17 7.73-6.6.2-.52-.05-1.1-.56-1.3-.12-.06-.25-.08-.37-.08"/></g><g><path fill="#664500" d="M6 21c-.12 0-.25.02-.37.07-.5.2-.76.8-.56 1.3 2.18 5.44 7.5 6.57 7.73 6.6.55.12 1.07-.23 1.18-.77.1-.54-.24-1.07-.78-1.18-.2-.04-4.5-.98-6.27-5.4C6.77 21.25 6.4 21 6 21"/></g><g><path fill="#664500" d="M19 15c-3.62 0-6.03.42-9 1-.68.13-2 0-2-2 0-4 4.6-9 11-9s11 5 11 9c0 2-1.32 2.13-2 2-2.97-.58-5.38-1-9-1"/></g><g><path fill="#fff" d="M10 14s3-1 9-1 9 1 9 1-2-4-9-4-9 4-9 4"/></g><g><path fill="#5dadec" d="M11.85 8.77c-.68-2.68-3.4-4.3-6.08-3.6-2.68.66-4.3 3.38-3.6 6.06.66 2.68 6.32 8.7 7.3 8.46.96-.25 3.06-8.25 2.38-10.93"/></g><g><path fill="#5dadec" d="M26.13 8.77c.68-2.68 3.4-4.3 6.08-3.6 2.7.66 4.3 3.38 3.63 6.06-.68 2.68-6.34 8.7-7.3 8.46-.98-.25-3.08-8.25-2.4-10.93"/></g></g></g></g></svg>