<?xml version="1.0" encoding="UTF-8" standalone="no"?><svg xmlns:dc="http://purl.org/dc/elements/1.1/" xmlns:cc="http://creativecommons.org/ns#" xmlns:rdf="http://www.w3.org/1999/02/22-rdf-syntax-ns#" xmlns:svg="http://www.w3.org/2000/svg" xmlns="http://www.w3.org/2000/svg" viewBox="0 0 47.5 47.5" style="enable-background:new 0 0 47.5 47.5;" xml:space="preserve" version="1.1" id="svg2"><metadata id="metadata8"><rdf:RDF><cc:Work rdf:about=""><dc:format>image/svg+xml</dc:format><dc:type rdf:resource="http://purl.org/dc/dcmitype/StillImage"/></cc:Work></rdf:RDF></metadata><defs id="defs6"><clipPath id="clipPath16" clipPathUnits="userSpaceOnUse"><path id="path18" d="M 0,38 38,38 38,0 0,0 0,38 Z"/></clipPath></defs><g transform="matrix(1.25,0,0,-1.25,0,47.5)" id="g10"><g id="g12"><g clip-path="url(#clipPath16)" id="g14"><g transform="translate(37,35)" id="g20"><path id="path22" style="fill:#aa8ed6;fill-opacity:1;fill-rule:nonzero;stroke:none" d="M 0,0 C 0,0.809 -0.487,1.538 -1.234,1.848 -1.984,2.158 -2.842,1.987 -3.414,1.414 -4.3,0.528 -7.411,-2 -10,-2 c -10e-4,0 -0.002,0 -0.004,0 -2.384,1.273 -5.104,2 -7.996,2 -2.892,0 -5.612,-0.727 -7.996,-2 -0.002,0 -0.003,0 -0.004,0 -2.58,0 -5.631,2.466 -6.586,3.414 -0.571,0.572 -1.433,0.744 -2.179,0.434 C -35.513,1.538 -36,0.809 -36,0 c 0,-2.384 0.795,-6.229 3.359,-8.391 C -34.13,-10.918 -35,-13.854 -35,-17 c 0,-9.389 7.612,-17 17,-17 9.389,0 17,7.611 17,17 0,3.146 -0.87,6.082 -2.359,8.609 C -0.795,-6.229 0,-2.384 0,0"/></g><g transform="translate(28.335,11.3711)" id="g24"><path id="path26" style="fill:#553986;fill-opacity:1;fill-rule:nonzero;stroke:none" d="m 0,0 c -0.178,0.161 -0.444,0.171 -0.635,0.029 -0.039,-0.029 -3.922,-2.9 -8.7,-2.9 -4.766,0 -8.662,2.871 -8.7,2.9 -0.191,0.142 -0.457,0.13 -0.635,-0.029 -0.177,-0.16 -0.217,-0.424 -0.094,-0.628 0.129,-0.215 3.217,-5.243 9.429,-5.243 6.212,0 9.301,5.028 9.429,5.243 C 0.217,-0.423 0.178,-0.16 0,0"/></g><g transform="translate(16.707,18.707)" id="g28"><path id="path30" style="fill:#553986;fill-opacity:1;fill-rule:nonzero;stroke:none" d="m 0,0 c -3.255,3.255 -8.486,3.293 -8.707,3.293 -0.552,0 -0.999,-0.447 -0.999,-0.999 -0.001,-0.551 0.446,-1 0.998,-1.001 0.029,0 1.925,-0.022 3.983,-0.737 -0.593,-0.64 -0.982,-1.634 -0.982,-2.763 0,-1.934 1.119,-3.5 2.5,-3.5 1.381,0 2.5,1.566 2.5,3.5 0,0.174 -0.019,0.34 -0.037,0.507 0.013,0 0.025,-0.007 0.037,-0.007 0.256,0 0.512,0.098 0.707,0.293 0.391,0.391 0.391,1.023 0,1.414"/></g><g transform="translate(30,22)" id="g32"><path id="path34" style="fill:#553986;fill-opacity:1;fill-rule:nonzero;stroke:none" d="m 0,0 c -0.221,0 -5.451,-0.038 -8.707,-3.293 -0.391,-0.391 -0.391,-1.023 0,-1.414 C -8.512,-4.902 -8.256,-5 -8,-5 c 0.013,0 0.024,0.007 0.036,0.007 C -7.98,-5.16 -8,-5.326 -8,-5.5 -8,-7.434 -6.881,-9 -5.5,-9 c 1.381,0 2.5,1.566 2.5,3.5 0,1.129 -0.389,2.123 -0.982,2.763 C -1.924,-2.022 -0.028,-2 0.002,-2 0.553,-1.999 1,-1.55 0.999,-0.999 0.998,-0.447 0.552,0 0,0"/></g></g></g></g></svg>
