<svg xmlns="http://www.w3.org/2000/svg" viewBox="0 0 47.5 47.5" enable-background="new 0 0 47.5 47.5"><defs><clipPath id="a"><path d="M0 38h38V0H0v38z"/></clipPath></defs><g><g><g clip-path="url(#a)" transform="matrix(1.25 0 0 -1.25 0 47.5)"><g><path fill="#ffcc4d" d="M36 19c0-9.4-7.6-17-17-17S2 9.6 2 19s7.6 17 17 17 17-7.6 17-17"/></g><g><path fill="#ff7892" d="M13 19c0-2.76-2.24-5-5-5s-5 2.24-5 5 2.24 5 5 5 5-2.24 5-5"/></g><g><path fill="#ff7892" d="M35 19c0-2.76-2.24-5-5-5s-5 2.24-5 5 2.24 5 5 5 5-2.24 5-5"/></g><g><path fill="#664500" d="M28.34 15.37c-.18.16-.45.17-.64.03-.04-.03-3.92-2.9-8.7-2.9-4.77 0-8.66 2.87-8.7 2.9-.2.14-.46.13-.64-.03-.17-.16-.2-.42-.1-.63.14-.2 3.23-5.24 9.44-5.24 6.2 0 9.3 5.03 9.43 5.24.12.2.08.47-.1.63"/></g><g><path fill="#664500" d="M9 22c-.15 0-.3.03-.45.1-.5.25-.7.85-.44 1.35.06.1 1.32 2.55 4.9 2.55s4.84-2.45 4.9-2.55c.24-.5.04-1.1-.45-1.35-.5-.24-1.1-.04-1.34.44-.03.08-.82 1.46-3.1 1.46-2.32 0-3.1-1.43-3.1-1.45C9.7 22.2 9.36 22 9 22"/></g><g><path fill="#664500" d="M29 22c-.37 0-.72.2-.9.55-.02.05-.8 1.45-3.1 1.45s-3.08-1.4-3.1-1.46c-.27-.48-.87-.67-1.36-.42-.48.25-.68.84-.44 1.33.06.1 1.32 2.55 4.9 2.55s4.84-2.45 4.9-2.55c.24-.5.04-1.1-.45-1.35-.15-.07-.3-.1-.45-.1"/></g></g></g></g></svg>