<?xml version="1.0" encoding="UTF-8" standalone="no"?>
<!-- Created with Inkscape (http://www.inkscape.org/) -->

<svg
   xmlns:svg="http://www.w3.org/2000/svg"
   xmlns="http://www.w3.org/2000/svg"
   version="1.1"
   width="47.5"
   height="47.5"
   id="svg2"
   xml:space="preserve"><defs
     id="defs6"><clipPath
       id="clipPath18"><path
         d="M 0,38 38,38 38,0 0,0 0,38 z"
         id="path20" /></clipPath></defs><g
     transform="matrix(1.25,0,0,-1.25,0,47.5)"
     id="g12"><g
       id="g14"><g
         clip-path="url(#clipPath18)"
         id="g16"><g
           transform="translate(37,19)"
           id="g22"><path
             d="m 0,0 c 0,-9.941 -8.059,-18 -18,-18 -9.941,0 -18,8.059 -18,18 0,9.941 8.059,18 18,18 C -8.059,18 0,9.941 0,0"
             id="path24"
             style="fill:#ffcc4d;fill-opacity:1;fill-rule:nonzero;stroke:none" /></g><g
           transform="translate(13,19)"
           id="g26"><path
             d="m 0,0 c 0,-2.762 -2.239,-5 -5,-5 -2.761,0 -5,2.238 -5,5 0,2.761 2.239,5 5,5 2.761,0 5,-2.239 5,-5"
             id="path28"
             style="fill:#ff7892;fill-opacity:1;fill-rule:nonzero;stroke:none" /></g><g
           transform="translate(35,19)"
           id="g30"><path
             d="m 0,0 c 0,-2.762 -2.238,-5 -5,-5 -2.762,0 -5,2.238 -5,5 0,2.761 2.238,5 5,5 2.762,0 5,-2.239 5,-5"
             id="path32"
             style="fill:#ff7892;fill-opacity:1;fill-rule:nonzero;stroke:none" /></g><g
           transform="translate(28.335,15.3711)"
           id="g34"><path
             d="m 0,0 c -0.178,0.161 -0.444,0.171 -0.635,0.029 -0.039,-0.029 -3.922,-2.9 -8.7,-2.9 -4.766,0 -8.662,2.871 -8.7,2.9 -0.191,0.142 -0.457,0.13 -0.635,-0.029 -0.177,-0.16 -0.217,-0.424 -0.094,-0.628 0.129,-0.215 3.217,-5.243 9.429,-5.243 6.212,0 9.301,5.028 9.429,5.243 C 0.217,-0.423 0.178,-0.16 0,0"
             id="path36"
             style="fill:#664500;fill-opacity:1;fill-rule:nonzero;stroke:none" /></g><g
           transform="translate(8.999,22)"
           id="g38"><path
             d="M 0,0 C -0.15,0 -0.303,0.034 -0.446,0.105 -0.94,0.353 -1.141,0.954 -0.894,1.447 -0.841,1.552 0.425,4 4.001,4 7.578,4 8.843,1.551 8.896,1.447 9.143,0.953 8.942,0.353 8.448,0.105 7.957,-0.139 7.363,0.057 7.112,0.542 7.069,0.621 6.282,2 4.001,2 1.684,2 0.902,0.567 0.896,0.553 0.72,0.202 0.367,0 0,0"
             id="path40"
             style="fill:#664500;fill-opacity:1;fill-rule:nonzero;stroke:none" /></g><g
           transform="translate(29.001,22)"
           id="g42"><path
             d="M 0,0 C -0.367,0 -0.72,0.202 -0.896,0.553 -0.921,0.599 -1.702,2 -4.001,2 -6.3,2 -7.081,0.599 -7.113,0.54 -7.373,0.059 -7.973,-0.13 -8.458,0.12 -8.943,0.372 -9.14,0.958 -8.896,1.447 -8.844,1.551 -7.578,4 -4.001,4 -0.424,4 0.842,1.551 0.894,1.447 1.141,0.953 0.94,0.353 0.446,0.105 0.303,0.034 0.15,0 0,0"
             id="path44"
             style="fill:#664500;fill-opacity:1;fill-rule:nonzero;stroke:none" /></g></g></g></g></svg>