<svg xmlns="http://www.w3.org/2000/svg" viewBox="0 0 47.5 47.5" enable-background="new 0 0 47.5 47.5"><defs><clipPath id="a"><path d="M0 38h38V0H0v38z"/></clipPath></defs><g><g><g clip-path="url(#a)" transform="matrix(1.25 0 0 -1.25 0 47.5)"><g><path fill="#ffcc4d" d="M36 19c0-9.4-7.6-17-17-17S2 9.6 2 19s7.6 17 17 17 17-7.6 17-17"/></g><g><path fill="#664500" d="M29.46 19.2c-.06.14-1.5 3.3-4.46 3.3s-4.4-3.16-4.46-3.3c-.1-.2-.03-.45.15-.6.16-.13.4-.13.6 0 0 0 1.26.9 3.7.9 2.43 0 3.67-.88 3.7-.9.1-.07.2-.1.3-.1.1 0 .22.04.3.1.2.15.25.4.16.6"/></g><g><path fill="#664500" d="M17.46 19.2c-.06.14-1.5 3.3-4.46 3.3s-4.4-3.16-4.46-3.3c-.1-.2-.03-.45.15-.6.16-.13.4-.13.6 0 0 0 1.26.9 3.7.9 2.43 0 3.67-.88 3.7-.9.1-.07.2-.1.3-.1.1 0 .22.04.3.1.2.15.25.4.16.6"/></g><g><path fill="#664500" d="M19 15c-3.62 0-6.03.42-9 1-.68.13-2 0-2-2 0-4 4.6-9 11-9s11 5 11 9c0 2-1.32 2.13-2 2-2.97-.58-5.38-1-9-1"/></g><g><path fill="#fff" d="M10 14s3-1 9-1 9 1 9 1-2-4-9-4-9 4-9 4"/></g></g></g></g></svg>