<svg xmlns="http://www.w3.org/2000/svg" viewBox="0 0 47.5 47.5" enable-background="new 0 0 47.5 47.5"><defs><clipPath id="a"><path d="M0 38h38V0H0v38z"/></clipPath></defs><g><g><g clip-path="url(#a)" transform="matrix(1.25 0 0 -1.25 0 47.5)"><g><path fill="#ffcc4d" d="M36 19c0-9.4-7.6-17-17-17S2 9.6 2 19s7.6 17 17 17 17-7.6 17-17"/></g><g><path fill="#e75a70" d="M22 8l5-5c1.73-1.73 5-2 7 0s1.9 4.96.17 6.7L30 14c-3-5-8-6-8-6"/></g><g><path fill="#664500" d="M19 6c-6.46 0-8.74 3.3-8.83 3.44-.3.47-.18 1.1.27 1.4.46.3 1.08.18 1.4-.28C11.9 10.44 13.7 8 19 8c8.08 0 9.96 6.95 10.03 7.24.14.54.68.86 1.2.73.55-.14.87-.68.74-1.2C30.95 14.66 28.67 6 19 6"/></g><g><path fill="#664500" d="M8 20c-.15 0-.3.03-.45.1-.5.25-.7.85-.44 1.35.06.1 1.32 2.55 4.9 2.55s4.84-2.45 4.9-2.55c.24-.5.04-1.1-.45-1.35-.5-.24-1.1-.04-1.34.44-.03.08-.82 1.46-3.1 1.46-2.32 0-3.1-1.43-3.1-1.45-.18-.35-.53-.55-.9-.55"/></g><g><path fill="#664500" d="M23 20c-.4 0-.8.25-.94.65-.2.52.07 1.1.6 1.3l8 3c.5.18 1.08-.08 1.28-.6.2-.52-.07-1.1-.6-1.3l-8-3c-.1-.03-.22-.05-.34-.05"/></g></g></g></g></svg>