<?xml version="1.0" encoding="UTF-8" standalone="no"?>
<!-- Created with Inkscape (http://www.inkscape.org/) -->

<svg
   xmlns:svg="http://www.w3.org/2000/svg"
   xmlns="http://www.w3.org/2000/svg"
   version="1.1"
   width="47.5"
   height="47.5"
   id="svg2"
   xml:space="preserve"><defs
     id="defs6"><clipPath
       id="clipPath18"><path
         d="M 0,38 38,38 38,0 0,0 0,38 z"
         id="path20" /></clipPath></defs><g
     transform="matrix(1.25,0,0,-1.25,0,47.5)"
     id="g12"><g
       id="g14"><g
         clip-path="url(#clipPath18)"
         id="g16"><g
           transform="translate(36,20)"
           id="g22"><path
             d="m 0,0 c 0,-9.389 -7.611,-17 -17,-17 -9.388,0 -17,7.611 -17,17 0,9.388 7.612,17 17,17 C -7.611,17 0,9.388 0,0"
             id="path24"
             style="fill:#ffcc4d;fill-opacity:1;fill-rule:nonzero;stroke:none" /></g><g
           transform="translate(29.457,20.2031)"
           id="g26"><path
             d="m 0,0 c -0.06,0.135 -1.499,3.297 -4.457,3.297 -2.957,0 -4.397,-3.162 -4.457,-3.297 -0.092,-0.207 -0.032,-0.449 0.144,-0.591 0.175,-0.142 0.426,-0.147 0.611,-0.014 0.012,0.009 1.262,0.902 3.702,0.902 2.426,0 3.674,-0.881 3.702,-0.901 0.088,-0.066 0.193,-0.099 0.298,-0.099 0.11,0 0.221,0.036 0.311,0.109 C 0.032,-0.452 0.093,-0.208 0,0"
             id="path28"
             style="fill:#664500;fill-opacity:1;fill-rule:nonzero;stroke:none" /></g><g
           transform="translate(17.457,20.2031)"
           id="g30"><path
             d="m 0,0 c -0.06,0.135 -1.499,3.297 -4.457,3.297 -2.957,0 -4.397,-3.162 -4.457,-3.297 -0.092,-0.207 -0.032,-0.449 0.144,-0.591 0.176,-0.142 0.427,-0.147 0.61,-0.014 0.013,0.009 1.262,0.902 3.703,0.902 2.426,0 3.674,-0.881 3.702,-0.901 0.088,-0.066 0.193,-0.099 0.298,-0.099 0.11,0 0.221,0.036 0.311,0.109 C 0.033,-0.452 0.092,-0.208 0,0"
             id="path32"
             style="fill:#664500;fill-opacity:1;fill-rule:nonzero;stroke:none" /></g><g
           transform="translate(19,16)"
           id="g34"><path
             d="m 0,0 c -3.623,0 -6.027,0.422 -9,1 -0.679,0.131 -2,0 -2,-2 0,-4 4.595,-9 11,-9 6.404,0 11,5 11,9 C 11,1 9.679,1.132 9,1 6.027,0.422 3.623,0 0,0"
             id="path36"
             style="fill:#664500;fill-opacity:1;fill-rule:nonzero;stroke:none" /></g><g
           transform="translate(10,15)"
           id="g38"><path
             d="m 0,0 c 0,0 3,-1 9,-1 6,0 9,1 9,1 0,0 -2,-4 -9,-4 -7,0 -9,4 -9,4"
             id="path40"
             style="fill:#ffffff;fill-opacity:1;fill-rule:nonzero;stroke:none" /></g><g
           transform="translate(36,27)"
           id="g42"><path
             d="m 0,0 c 0,-2.762 -2.238,-5 -5,-5 -2.762,0 -5,2.238 -5,5 0,2.762 4,10 5,10 1,0 5,-7.238 5,-10"
             id="path44"
             style="fill:#5dadec;fill-opacity:1;fill-rule:nonzero;stroke:none" /></g></g></g></g></svg>