<svg xmlns="http://www.w3.org/2000/svg" viewBox="0 0 47.5 47.5" enable-background="new 0 0 47.5 47.5"><defs><clipPath id="a"><path d="M0 38h38V0H0v38z"/></clipPath></defs><g><g><g clip-path="url(#a)" transform="matrix(1.25 0 0 -1.25 0 47.5)"><g><path fill="#ffcc4d" d="M36 19c0-9.4-7.6-17-17-17S2 9.6 2 19s7.6 17 17 17 17-7.6 17-17"/></g><g><path fill="#664500" d="M25.33 13.38c-.16.13-.37.16-.55.07l-4-2c-1.87-.94-6.73-.95-6.78-.95-.28 0-.5-.22-.5-.5 0-.18.1-.35.25-.43.07-.05.16-.07.24-.07h7c2.66 0 4.1 2.2 4.47 3.34.07.2 0 .4-.14.54"/></g><g><path fill="#664500" d="M32 21c-.3 0-.6.14-.8.4-2.64 3.52-6.06 3.6-6.2 3.6-.56 0-1 .46-1 1 0 .56.45 1 1 1 .18 0 4.54-.05 7.8-4.4.33-.44.24-1.07-.2-1.4-.18-.13-.4-.2-.6-.2"/></g><g><path fill="#664500" d="M6 21c-.2 0-.42.07-.6.2-.44.33-.53.96-.2 1.4C8.46 26.95 12.82 27 13 27c.55 0 1-.45 1-1s-.44-1-1-1c-.15 0-3.56-.1-6.2-3.6-.2-.26-.5-.4-.8-.4"/></g><g><path fill="#664500" d="M16.9 19.6c.02.06.06.1.07.16.13.53-.2 1.08-.73 1.2-.18.06-4.46 1.1-7.8-1.13-.45-.3-.58-.93-.27-1.38.2-.3.5-.45.83-.45.2 0 .38.05.55.17 1.1.73 2.37 1 3.47 1.06 0-.08-.02-.15-.02-.23 0-1.1.9-2 2-2s2 .9 2 2c0 .2-.04.4-.1.6"/></g><g><path fill="#664500" d="M28.9 19.6c.02.06.06.1.07.16.13.53-.2 1.08-.73 1.2-.18.06-4.46 1.1-7.8-1.13-.45-.3-.58-.92-.27-1.38.2-.3.5-.45.83-.45.2 0 .38.06.55.17 1.1.73 2.37 1 3.47 1.06 0-.08-.02-.15-.02-.23 0-1.1.9-2 2-2s2 .9 2 2c0 .2-.04.4-.1.6"/></g></g></g></g></svg>