<?xml version="1.0" encoding="UTF-8" standalone="no"?><svg xmlns:svg="http://www.w3.org/2000/svg" xmlns="http://www.w3.org/2000/svg" version="1.1" viewBox="0 0 47.5 47.5" style="enable-background:new 0 0 47.5 47.5;" id="svg2" xml:space="preserve"><defs id="defs6"><clipPath id="clipPath18"><path d="M 0,38 38,38 38,0 0,0 0,38 z" id="path20"/></clipPath></defs><g transform="matrix(1.25,0,0,-1.25,0,47.5)" id="g12"><g id="g14"><g clip-path="url(#clipPath18)" id="g16"><g transform="translate(37,19)" id="g22"><path d="m 0,0 c 0,-9.941 -8.059,-18 -18,-18 -9.941,0 -18,8.059 -18,18 0,9.941 8.059,18 18,18 C -8.059,18 0,9.941 0,0" id="path24" style="fill:#ffcc4d;fill-opacity:1;fill-rule:nonzero;stroke:none"/></g><g transform="translate(25.3271,13.3779)" id="g26"><path d="m 0,0 c -0.153,0.132 -0.368,0.159 -0.551,0.069 l -4,-2 c -1.871,-0.935 -6.727,-0.947 -6.776,-0.947 l -10e-4,0 c -0.276,0 -0.499,-0.224 -0.499,-0.5 0,-0.185 0.1,-0.347 0.25,-0.433 l 0,-10e-4 10e-4,0 0,0 c 0.001,-0.001 0.001,-0.001 0.001,-0.001 0.071,-0.04 0.153,-0.063 0.24,-0.065 l 0.008,0 7,0 c 2.658,0 4.089,2.186 4.474,3.342 C 0.211,-0.344 0.153,-0.133 0,0" id="path28" style="fill:#664500;fill-opacity:1;fill-rule:nonzero;stroke:none"/></g><g transform="translate(32.001,21)" id="g30"><path d="M 0,0 C -0.305,0 -0.604,0.138 -0.801,0.4 -3.441,3.921 -6.862,3.999 -7.007,4 -7.557,4.006 -8.001,4.456 -7.998,5.005 -7.995,5.556 -7.551,6 -7.001,6 -6.817,6 -2.464,5.95 0.799,1.6 1.131,1.158 1.041,0.531 0.599,0.2 0.419,0.065 0.209,0 0,0" id="path32" style="fill:#664500;fill-opacity:1;fill-rule:nonzero;stroke:none"/></g><g transform="translate(5.999,21)" id="g34"><path d="m 0,0 c -0.208,0 -0.419,0.065 -0.599,0.2 -0.442,0.331 -0.531,0.958 -0.2,1.4 3.262,4.35 7.616,4.4 7.8,4.4 0.552,0 1,-0.448 1,-1 C 8.001,4.449 7.556,4.002 7.005,4 6.85,3.998 3.437,3.914 0.801,0.4 0.604,0.138 0.304,0 0,0" id="path36" style="fill:#664500;fill-opacity:1;fill-rule:nonzero;stroke:none"/></g><g transform="translate(16.897,19.6035)" id="g38"><path d="m 0,0 c 0.023,0.052 0.059,0.096 0.073,0.154 0.134,0.536 -0.192,1.079 -0.727,1.213 -0.18,0.045 -4.468,1.08 -7.798,-1.138 -0.459,-0.307 -0.583,-0.928 -0.277,-1.387 0.193,-0.289 0.51,-0.446 0.833,-0.446 0.19,0 0.383,0.055 0.554,0.168 1.092,0.729 2.362,0.995 3.468,1.061 -0.009,-0.076 -0.023,-0.15 -0.023,-0.229 0,-1.104 0.896,-2 2,-2 1.105,0 2,0.896 2,2 C 0.103,-0.392 0.061,-0.191 0,0" id="path40" style="fill:#664500;fill-opacity:1;fill-rule:nonzero;stroke:none"/></g><g transform="translate(28.8965,19.605)" id="g42"><path d="M 0,0 C 0.023,0.052 0.059,0.095 0.073,0.152 0.208,0.688 -0.118,1.231 -0.654,1.365 -0.834,1.41 -5.12,2.445 -8.451,0.227 -8.911,-0.079 -9.035,-0.7 -8.729,-1.16 c 0.193,-0.289 0.51,-0.445 0.833,-0.445 0.191,0 0.383,0.055 0.554,0.168 1.092,0.729 2.362,0.994 3.469,1.06 -0.009,-0.076 -0.023,-0.15 -0.023,-0.228 0,-1.104 0.895,-2 2,-2 1.104,0 2,0.896 2,2 C 0.104,-0.393 0.062,-0.192 0,0" id="path44" style="fill:#664500;fill-opacity:1;fill-rule:nonzero;stroke:none"/></g></g></g></g></svg>
