<svg xmlns="http://www.w3.org/2000/svg" viewBox="0 0 47.5 47.5" enable-background="new 0 0 47.5 47.5"><defs><clipPath id="a"><path d="M0 38h38V0H0v38z"/></clipPath></defs><g><g><g clip-path="url(#a)" transform="matrix(1.25 0 0 -1.25 0 47.5)"><g><path fill="#ffcc4d" d="M36 19c0-9.4-7.6-17-17-17S2 9.6 2 19s7.6 17 17 17 17-7.6 17-17"/></g><g><path fill="#664500" d="M19 15.15c-2.97 0-4.93.35-7.37.82-.56.1-1.64 0-1.64-1.64 0-3.27 3.76-7.37 9-7.37s9 4.1 9 7.37c0 1.64-1.08 1.75-1.63 1.64-2.43-.47-4.4-.82-7.37-.82"/></g><g><path fill="#e75a70" d="M17.65 33.72c-.86 2.43-3.52 3.7-5.96 2.85-1.48-.52-2.53-1.7-2.93-3.1-1.2.82-2.76 1.1-4.23.58C2.1 33.2.84 30.52 1.7 28.1c.1-.36.28-.67.46-.97 1.95-3.58 7.6-6.1 11-6.13 2.64 2.17 5.45 7.66 4.72 11.68-.04.35-.1.7-.23 1.04"/></g><g><path fill="#e75a70" d="M20.35 33.72c.86 2.43 3.52 3.7 5.96 2.85 1.48-.52 2.53-1.7 2.93-3.1 1.2.82 2.76 1.1 4.23.58 2.43-.86 3.7-3.53 2.85-5.96-.1-.36-.28-.67-.46-.97-1.96-3.58-7.6-6.1-11-6.13-2.64 2.17-5.45 7.66-4.72 11.68.04.35.1.7.23 1.04"/></g></g></g></g></svg>