<svg xmlns="http://www.w3.org/2000/svg" viewBox="0 0 47.5 47.5" enable-background="new 0 0 47.5 47.5"><defs><clipPath id="a"><path d="M0 38h38V0H0v38z"/></clipPath></defs><g><g><g clip-path="url(#a)" transform="matrix(1.25 0 0 -1.25 0 47.5)"><g><path fill="#ffcc4d" d="M36 19c0-9.4-7.6-17-17-17S2 9.6 2 19s7.6 17 17 17 17-7.6 17-17"/></g><g><path fill="#664500" d="M16 21.5c0-1.93-1.12-3.5-2.5-3.5S11 19.57 11 21.5s1.12 3.5 2.5 3.5 2.5-1.57 2.5-3.5"/></g><g><path fill="#664500" d="M27 21.5c0-1.93-1.12-3.5-2.5-3.5S22 19.57 22 21.5s1.12 3.5 2.5 3.5 2.5-1.57 2.5-3.5"/></g><g><path fill="#664500" d="M21.87 9c1.34.4 2.63 1.16 2.63 2.5 0 2.62-4.9 2.97-5.47 3-.28.03-.5-.2-.53-.47-.02-.27.2-.5.47-.53.03 0 3.53-.3 3.53-2s-3.5-2-3.53-2c-.02 0-.03 0-.04 0-.05-.02-.1-.03-.15-.05-.06-.04-.1-.07-.14-.1-.02-.02-.02-.04-.04-.06-.02-.04-.04-.07-.06-.1 0-.04 0-.07-.02-.1 0-.02-.02-.04-.02-.07 0 0 0-.02 0-.03 0 0 0-.02 0-.03 0-.03 0-.05.02-.07 0-.03 0-.06.02-.1.02-.02.03-.05.05-.07 0-.03.02-.05.04-.08.03-.02.05-.04.08-.06.03-.02.05-.04.08-.05.03-.02.06-.02.1-.03.02 0 .04-.02.07-.02.03 0 3.53-.3 3.53-2s-3.5-2-3.53-2c-.28-.02-.5-.26-.47-.53.02-.27.24-.47.5-.47 0 0 .02 0 .03 0 .56.03 5.47.38 5.47 3 0 1.34-1.3 2.1-2.63 2.5"/></g></g></g></g></svg>