<svg xmlns="http://www.w3.org/2000/svg" viewBox="0 0 47.5 47.5" enable-background="new 0 0 47.5 47.5"><defs><clipPath id="a"><path d="M0 38h38V0H0v38z"/></clipPath></defs><g><g><g clip-path="url(#a)" transform="matrix(1.25 0 0 -1.25 0 47.5)"><g><path fill="#fdcb58" d="M36 19c0-9.4-7.6-17-17-17S2 9.6 2 19s7.6 17 17 17 17-7.6 17-17"/></g><g><path fill="#664500" d="M26.5 9.12c-.06.18-1.18 4.38-7.5 4.38s-7.44-4.2-7.48-4.38c-.06-.22.04-.44.23-.55.2-.1.44-.08.6.07.02.02 1.96 1.86 6.65 1.86 4.7 0 6.63-1.84 6.65-1.86.1-.1.22-.14.35-.14.08 0 .17.02.25.06.2.12.3.34.24.56"/></g><g><path fill="#664500" d="M30 23c-.3 0-.6.14-.8.4-2.43 3.24-6.5.85-6.68.74-.48-.28-1.1-.13-1.38.34-.28.48-.13 1.1.35 1.38 1.98 1.2 6.5 2.47 9.3-1.26.33-.44.24-1.07-.2-1.4-.18-.14-.4-.2-.6-.2"/></g><g><path fill="#664500" d="M8 23c-.2 0-.42.07-.6.2-.44.33-.53.96-.2 1.4 2.8 3.73 7.32 2.46 9.3 1.26.5-.3.64-.9.36-1.38-.3-.47-.9-.62-1.37-.34-.2.1-4.3 2.48-6.7-.74-.2-.26-.5-.4-.8-.4"/></g><g><path fill="#664500" d="M30 21c0 .55-.45 1-1 1h-7c-.55 0-1-.45-1-1s.45-1 1-1h5.1c.2-.58.75-1 1.4-1 .83 0 1.5.67 1.5 1.5 0 .1 0 .22-.04.32.02.06.04.12.04.18"/></g><g><path fill="#664500" d="M17 21c0 .55-.45 1-1 1H9c-.55 0-1-.45-1-1s.45-1 1-1h5.1c.2-.58.75-1 1.4-1 .83 0 1.5.67 1.5 1.5 0 .1 0 .22-.04.32 0 .06.04.12.04.18"/></g></g></g></g></svg>