<?xml version="1.0" encoding="UTF-8" standalone="no"?><svg xmlns:svg="http://www.w3.org/2000/svg" xmlns="http://www.w3.org/2000/svg" version="1.1" viewBox="0 0 47.5 47.5" style="enable-background:new 0 0 47.5 47.5;" id="svg2" xml:space="preserve"><defs id="defs6"><clipPath id="clipPath18"><path d="M 0,38 38,38 38,0 0,0 0,38 z" id="path20"/></clipPath></defs><g transform="matrix(1.25,0,0,-1.25,0,47.5)" id="g12"><g id="g14"><g clip-path="url(#clipPath18)" id="g16"><g transform="translate(36,19)" id="g22"><path d="m 0,0 c 0,-9.389 -7.611,-17 -17,-17 -9.388,0 -17,7.611 -17,17 0,9.388 7.612,17 17,17 C -7.611,17 0,9.388 0,0" id="path24" style="fill:#fdcb58;fill-opacity:1;fill-rule:nonzero;stroke:none"/></g><g transform="translate(26.4854,9.1211)" id="g26"><path d="m 0,0 c -0.045,0.179 -1.168,4.379 -7.485,4.379 -6.318,0 -7.441,-4.2 -7.485,-4.379 -0.055,-0.217 0.043,-0.442 0.237,-0.554 0.195,-0.111 0.439,-0.078 0.599,0.077 0.019,0.019 1.954,1.856 6.649,1.856 4.694,0 6.63,-1.837 6.648,-1.856 0.096,-0.094 0.224,-0.144 0.352,-0.144 0.084,0 0.169,0.021 0.246,0.064 C -0.043,-0.445 0.055,-0.218 0,0" id="path28" style="fill:#664500;fill-opacity:1;fill-rule:nonzero;stroke:none"/></g><g transform="translate(30.001,23)" id="g30"><path d="M 0,0 C -0.305,0 -0.604,0.138 -0.801,0.4 -3.232,3.644 -7.314,1.246 -7.486,1.143 -7.961,0.858 -8.575,1.013 -8.858,1.485 -9.143,1.959 -8.989,2.573 -8.516,2.857 -6.518,4.056 -2.002,5.334 0.799,1.6 1.131,1.158 1.041,0.531 0.599,0.2 0.419,0.065 0.209,0 0,0" id="path32" style="fill:#664500;fill-opacity:1;fill-rule:nonzero;stroke:none"/></g><g transform="translate(7.999,23)" id="g34"><path d="M 0,0 C -0.208,0 -0.419,0.065 -0.599,0.2 -1.041,0.531 -1.13,1.158 -0.799,1.6 2.002,5.334 6.519,4.056 8.516,2.857 8.989,2.573 9.143,1.959 8.858,1.485 8.575,1.012 7.962,0.857 7.488,1.142 7.31,1.248 3.214,3.617 0.801,0.4 0.604,0.138 0.304,0 0,0" id="path36" style="fill:#664500;fill-opacity:1;fill-rule:nonzero;stroke:none"/></g><g transform="translate(30,21)" id="g38"><path d="m 0,0 c 0,0.552 -0.447,1 -1,1 l -7,0 c -0.553,0 -1,-0.448 -1,-1 0,-0.552 0.447,-1 1,-1 l 5.092,0 c 0.207,-0.581 0.756,-1 1.408,-1 0.828,0 1.5,0.671 1.5,1.5 0,0.11 -0.014,0.217 -0.036,0.321 C -0.024,-0.119 0,-0.063 0,0" id="path40" style="fill:#664500;fill-opacity:1;fill-rule:nonzero;stroke:none"/></g><g transform="translate(17,21)" id="g42"><path d="m 0,0 c 0,0.552 -0.448,1 -1,1 l -7,0 c -0.552,0 -1,-0.448 -1,-1 0,-0.552 0.448,-1 1,-1 l 5.092,0 c 0.207,-0.581 0.756,-1 1.408,-1 0.828,0 1.5,0.671 1.5,1.5 0,0.11 -0.014,0.217 -0.036,0.321 C -0.025,-0.119 0,-0.063 0,0" id="path44" style="fill:#664500;fill-opacity:1;fill-rule:nonzero;stroke:none"/></g></g></g></g></svg>
