<?xml version="1.0" encoding="UTF-8" standalone="no"?>
<!-- Created with Inkscape (http://www.inkscape.org/) -->

<svg
   xmlns:svg="http://www.w3.org/2000/svg"
   xmlns="http://www.w3.org/2000/svg"
   version="1.1"
   width="47.5"
   height="47.5"
   id="svg2"
   xml:space="preserve"><defs
     id="defs6"><clipPath
       id="clipPath18"><path
         d="M 0,38 38,38 38,0 0,0 0,38 z"
         id="path20" /></clipPath></defs><g
     transform="matrix(1.25,0,0,-1.25,0,47.5)"
     id="g12"><g
       id="g14"><g
         clip-path="url(#clipPath18)"
         id="g16"><g
           transform="translate(36,18)"
           id="g22"><path
             d="m 0,0 c 0,-9.389 -7.611,-17 -17,-17 -9.388,0 -17,7.611 -17,17 0,9.388 7.612,17 17,17 C -7.611,17 0,9.388 0,0"
             id="path24"
             style="fill:#ffcc4d;fill-opacity:1;fill-rule:nonzero;stroke:none" /></g><g
           transform="translate(21.8711,8)"
           id="g26"><path
             d="m 0,0 c 1.335,0.412 2.629,1.156 2.629,2.5 0,2.619 -4.912,2.968 -5.472,2.999 C -3.117,5.526 -3.353,5.306 -3.37,5.031 -3.387,4.758 -3.18,4.521 -2.906,4.501 -2.871,4.499 0.629,4.202 0.629,2.5 0.629,0.798 -2.871,0.501 -2.906,0.499 -2.919,0.498 -2.93,0.491 -2.942,0.489 -2.996,0.483 -3.045,0.472 -3.091,0.448 -3.097,0.445 -3.101,0.441 -3.106,0.439 -3.154,0.412 -3.197,0.381 -3.233,0.34 -3.247,0.325 -3.256,0.309 -3.268,0.293 -3.292,0.261 -3.313,0.229 -3.328,0.19 -3.34,0.161 -3.346,0.13 -3.353,0.099 -3.357,0.075 -3.369,0.055 -3.37,0.031 -3.371,0.021 -3.366,0.011 -3.366,0 c 0,-0.011 -0.005,-0.021 -0.004,-0.031 10e-4,-0.025 0.013,-0.045 0.018,-0.069 0.006,-0.031 0.011,-0.06 0.023,-0.089 0.013,-0.031 0.031,-0.057 0.049,-0.084 0.017,-0.025 0.032,-0.05 0.052,-0.072 0.023,-0.023 0.051,-0.041 0.078,-0.06 0.025,-0.017 0.046,-0.034 0.074,-0.047 0.032,-0.015 0.066,-0.021 0.1,-0.027 0.024,-0.006 0.045,-0.018 0.07,-0.02 0.035,-0.002 3.535,-0.299 3.535,-2.001 0,-1.702 -3.5,-1.999 -3.535,-2.001 -0.274,-0.02 -0.481,-0.257 -0.464,-0.53 0.017,-0.265 0.237,-0.469 0.498,-0.469 0.01,0 0.019,0 0.029,0.001 0.56,0.031 5.472,0.38 5.472,2.999 0,1.344 -1.294,2.088 -2.629,2.5"
             id="path28"
             style="fill:#664500;fill-opacity:1;fill-rule:nonzero;stroke:none" /></g><g
           transform="translate(17,17)"
           id="g30"><path
             d="M 0,0 C -0.419,0 -0.809,0.265 -0.949,0.684 -1.152,1.283 -1.966,3 -3,3 -4.062,3 -4.888,1.173 -5.051,0.684 -5.226,0.16 -5.79,-0.124 -6.316,0.052 -6.84,0.226 -7.124,0.792 -6.949,1.316 -6.823,1.693 -5.645,5 -3,5 -0.355,5 0.823,1.693 0.949,1.316 1.124,0.792 0.84,0.226 0.316,0.052 0.211,0.017 0.104,0 0,0"
             id="path32"
             style="fill:#664500;fill-opacity:1;fill-rule:nonzero;stroke:none" /></g><g
           transform="translate(27,17)"
           id="g34"><path
             d="M 0,0 C -0.419,0 -0.809,0.265 -0.948,0.684 -1.151,1.283 -1.967,3 -3,3 -4.062,3 -4.889,1.173 -5.052,0.684 -5.227,0.16 -5.788,-0.124 -6.316,0.052 -6.84,0.226 -7.123,0.792 -6.948,1.316 -6.823,1.693 -5.645,5 -3,5 -0.355,5 0.823,1.693 0.948,1.316 1.123,0.792 0.84,0.226 0.316,0.052 0.211,0.017 0.104,0 0,0"
             id="path36"
             style="fill:#664500;fill-opacity:1;fill-rule:nonzero;stroke:none" /></g></g></g></g></svg>