<?xml version="1.0" encoding="UTF-8" standalone="no"?>
<!-- Created with Inkscape (http://www.inkscape.org/) -->

<svg
   xmlns:svg="http://www.w3.org/2000/svg"
   xmlns="http://www.w3.org/2000/svg"
   version="1.1"
   width="47.5"
   height="47.5"
   id="svg2"
   xml:space="preserve"><defs
     id="defs6"><clipPath
       id="clipPath18"><path
         d="M 0,38 38,38 38,0 0,0 0,38 z"
         id="path20" /></clipPath></defs><g
     transform="matrix(1.25,0,0,-1.25,0,47.5)"
     id="g12"><g
       id="g14"><g
         clip-path="url(#clipPath18)"
         id="g16"><g
           transform="translate(37,19)"
           id="g22"><path
             d="m 0,0 c 0,-9.941 -8.059,-18 -18,-18 -9.941,0 -18,8.059 -18,18 0,9.941 8.059,18 18,18 C -8.059,18 0,9.941 0,0"
             id="path24"
             style="fill:#ffcc4d;fill-opacity:1;fill-rule:nonzero;stroke:none" /></g><g
           transform="translate(24.4854,8.1211)"
           id="g26"><path
             d="m 0,0 c -0.012,0.044 -1.146,4.379 -5.485,4.379 -4.341,0 -5.474,-4.335 -5.485,-4.379 -0.053,-0.213 0.043,-0.431 0.231,-0.544 0.188,-0.112 0.433,-0.086 0.596,0.06 0.01,0.007 1.014,0.863 4.658,0.863 3.589,0 4.617,-0.83 4.656,-0.863 0.095,-0.09 0.219,-0.137 0.344,-0.137 0.084,0 0.169,0.021 0.246,0.064 C -0.043,-0.445 0.055,-0.218 0,0"
             id="path28"
             style="fill:#664500;fill-opacity:1;fill-rule:nonzero;stroke:none" /></g><g
           transform="translate(26.7803,21.3594)"
           id="g30"><path
             d="m 0,0 c -0.341,0.093 -0.692,0.14 -1.043,0.14 -2.345,0 -4.053,-2.06 -4.125,-2.147 -0.143,-0.176 -0.148,-0.426 -0.017,-0.609 0.134,-0.184 0.374,-0.253 0.586,-0.174 0.005,0.002 0.573,0.215 1.565,0.215 0.714,0 1.469,-0.108 2.244,-0.32 2.342,-0.637 3.313,-1.818 3.334,-1.843 0.098,-0.124 0.243,-0.192 0.394,-0.192 0.066,0 0.133,0.014 0.197,0.041 0.209,0.09 0.331,0.31 0.297,0.535 C 3.409,-4.208 2.854,-0.778 0,0"
             id="path32"
             style="fill:#664500;fill-opacity:1;fill-rule:nonzero;stroke:none" /></g><g
           transform="translate(12.2261,21.4878)"
           id="g34"><path
             d="m 0,0 c -0.317,0 -0.636,-0.039 -0.947,-0.116 -2.87,-0.707 -3.513,-4.121 -3.539,-4.266 -0.04,-0.223 0.076,-0.444 0.281,-0.54 0.068,-0.032 0.14,-0.047 0.211,-0.047 0.145,0 0.287,0.063 0.385,0.179 0.01,0.012 1.01,1.178 3.38,1.761 0.714,0.176 1.412,0.265 2.072,0.265 1.104,0 1.732,-0.253 1.735,-0.254 0.067,-0.028 0.131,-0.04 0.207,-0.04 0.272,-0.012 0.509,0.221 0.509,0.5 0,0.165 -0.08,0.311 -0.203,0.402 C 3.724,-1.721 2.138,0 0,0"
             id="path36"
             style="fill:#664500;fill-opacity:1;fill-rule:nonzero;stroke:none" /></g></g></g></g></svg>