<svg xmlns="http://www.w3.org/2000/svg" viewBox="0 0 47.5 47.5" enable-background="new 0 0 47.5 47.5"><defs><clipPath id="a"><path d="M0 38h38V0H0v38z"/></clipPath></defs><g><g><g clip-path="url(#a)" transform="matrix(1.25 0 0 -1.25 0 47.5)"><g><path fill="#ffcc4d" d="M36 19c0-9.4-7.6-17-17-17S2 9.6 2 19s7.6 17 17 17 17-7.6 17-17"/></g><g><path fill="#ff7892" d="M13 16c0-2.76-2.24-5-5-5s-5 2.24-5 5 2.24 5 5 5 5-2.24 5-5"/></g><g><path fill="#ff7892" d="M35 16c0-2.76-2.24-5-5-5s-5 2.24-5 5 2.24 5 5 5 5-2.24 5-5"/></g><g><path fill="#664500" d="M29.42 19.28c-.07.1-1.52 2.22-4.42 2.22s-4.36-2.13-4.42-2.22c-.13-.2-.1-.47.08-.64.17-.17.44-.18.64-.04 0 0 1.26.9 3.7.9 2.43 0 3.67-.88 3.7-.9.1-.07.2-.1.3-.1.12 0 .25.05.34.14.18.16.2.43.08.64"/></g><g><path fill="#664500" d="M13 21.5c-2.9 0-4.36-2.13-4.42-2.22-.13-.2-.1-.47.08-.64.17-.17.44-.2.64-.04 0 0 1.26.9 3.7.9 2.43 0 3.67-.88 3.7-.9.1-.07.2-.1.3-.1.12 0 .25.05.34.14.18.16.2.43.08.64-.07.1-1.52 2.22-4.42 2.22"/></g><g><path fill="#664500" d="M22.87 10c1.34.4 2.63 1.16 2.63 2.5 0 2.62-4.9 2.97-5.47 3-.28.04-.5-.2-.53-.47-.02-.27.2-.5.47-.53.03 0 3.53-.3 3.53-2s-3.5-2-3.53-2c0 0-.02 0-.03 0-.13-.02-.23-.07-.3-.17-.02 0-.02 0-.03-.02 0-.03-.04-.07-.06-.1 0-.04 0-.07-.02-.1 0-.02-.02-.04-.02-.07 0 0 0-.02 0-.03 0 0 0-.02 0-.03 0-.03 0-.05.02-.07 0-.03 0-.06.02-.1.02-.02.03-.05.05-.08 0-.02.02-.04.04-.06.03-.03.05-.05.08-.07.03-.02.05-.04.08-.05.03-.02.06-.02.1-.03.02 0 .04-.02.07-.02.03 0 3.53-.3 3.53-2s-3.5-2-3.53-2c-.28-.02-.5-.26-.47-.53.02-.27.24-.47.5-.47 0 0 .02 0 .03 0 .56.03 5.47.38 5.47 3 0 1.34-1.3 2.1-2.63 2.5"/></g><g><path fill="#664500" d="M32 21c-.3 0-.6.14-.8.4-2.64 3.52-6.06 3.6-6.2 3.6-.56 0-1 .46-1 1 0 .56.45 1 1 1 .18 0 4.54-.05 7.8-4.4.33-.44.24-1.07-.2-1.4-.18-.13-.4-.2-.6-.2"/></g><g><path fill="#664500" d="M6 21c-.2 0-.42.07-.6.2-.44.33-.53.96-.2 1.4C8.46 26.95 12.82 27 13 27c.55 0 1-.45 1-1s-.44-1-1-1c-.15 0-3.56-.1-6.2-3.6-.2-.26-.5-.4-.8-.4"/></g></g></g></g></svg>