<svg xmlns="http://www.w3.org/2000/svg" viewBox="0 0 47.5 47.5" enable-background="new 0 0 47.5 47.5"><defs><clipPath id="a"><path d="M0 38h38V0H0v38z"/></clipPath></defs><g><g><g clip-path="url(#a)" transform="matrix(1.25 0 0 -1.25 0 47.5)"><g><path fill="#ffcc4d" d="M36 19c0-9.4-7.6-17-17-17S2 9.6 2 19s7.6 17 17 17 17-7.6 17-17"/></g><g><path fill="#664500" d="M15 20.5c0-1.93-1.12-3.5-2.5-3.5S10 18.57 10 20.5s1.12 3.5 2.5 3.5 2.5-1.57 2.5-3.5"/></g><g><path fill="#664500" d="M28 20.5c0-1.93-1.12-3.5-2.5-3.5S23 18.57 23 20.5s1.12 3.5 2.5 3.5 2.5-1.57 2.5-3.5"/></g><g><path fill="#664500" d="M13 9c2 5 13 5 13 3 0-1-8 1-13-3"/></g></g></g></g></svg>