<svg xmlns="http://www.w3.org/2000/svg" viewBox="0 0 47.5 47.5" enable-background="new 0 0 47.5 47.5"><defs><clipPath id="a"><path d="M0 38h38V0H0v38z"/></clipPath></defs><g><g><g clip-path="url(#a)" transform="matrix(1.25 0 0 -1.25 0 47.5)"><g><path fill="#ffcc4d" d="M36 19c0-9.4-7.6-17-17-17S2 9.6 2 19s7.6 17 17 17 17-7.6 17-17"/></g><g><path fill="#664500" d="M15 20.46c0-1.93-1.12-3.5-2.5-3.5s-2.5 1.57-2.5 3.5c0 1.94 1.12 3.5 2.5 3.5s2.5-1.56 2.5-3.5"/></g><g><path fill="#664500" d="M28 20.46c0-1.93-1.12-3.5-2.5-3.5s-2.5 1.57-2.5 3.5c0 1.94 1.12 3.5 2.5 3.5s2.5-1.56 2.5-3.5"/></g><g><path fill="#664500" d="M8 13.96c0-3.96 4.6-9 11-9s11 5 11 9c0 0-10.33-2.75-22 0"/></g><g><path fill="#e75a70" d="M13 12.08V6c0-3 2-6 6-6s6 3 6 6v6.04c-6.3-1.3-12 .04-12 .04"/></g></g></g></g></svg>