<svg xmlns="http://www.w3.org/2000/svg" viewBox="0 0 47.5 47.5" enable-background="new 0 0 47.5 47.5"><defs><clipPath id="a"><path d="M0 38h38V0H0v38z"/></clipPath></defs><g><g><g clip-path="url(#a)" transform="matrix(1.25 0 0 -1.25 0 47.5)"><g><path fill="#ffcc4d" d="M36 19c0-9.4-7.6-17-17-17S2 9.6 2 19s7.6 17 17 17 17-7.6 17-17"/></g><g><path fill="#664500" d="M16.46 20.18c-.06.14-1.5 3.3-4.46 3.3s-4.4-3.16-4.46-3.3c-.1-.2-.03-.44.15-.6.16-.13.4-.13.6 0 0 0 1.26.9 3.7.9 2.43 0 3.67-.88 3.7-.9.1-.06.2-.1.3-.1.1 0 .22.04.3.1.2.15.25.4.16.6"/></g><g><path fill="#f5f8fa" d="M32 22.48c0-3.6-2.9-6.5-6.5-6.5s-6.5 2.9-6.5 6.5 2.9 6.5 6.5 6.5 6.5-2.9 6.5-6.5"/></g><g><path fill="#292f33" d="M28 22.48c0-1.38-1.12-2.5-2.5-2.5S23 21.1 23 22.48s1.12 2.5 2.5 2.5 2.5-1.12 2.5-2.5"/></g><g><path fill="#664500" d="M8 13.98c0-3.96 4.6-9 11-9s11 5 11 9c0 0-10.33-2.75-22 0"/></g><g><path fill="#e75a70" d="M13 12.1V6.02c0-3 2-6 6-6s6 3 6 6v6.04c-6.3-1.3-12 .04-12 .04"/></g></g></g></g></svg>