<svg xmlns="http://www.w3.org/2000/svg" viewBox="0 0 47.5 47.5" enable-background="new 0 0 47.5 47.5"><defs><clipPath id="a"><path d="M0 38h38V0H0v38z"/></clipPath></defs><g><g><g clip-path="url(#a)" transform="matrix(1.25 0 0 -1.25 0 47.5)"><g><path fill="#ffcc4d" d="M36 19c0-9.4-7.6-17-17-17S2 9.6 2 19s7.6 17 17 17 17-7.6 17-17"/></g><g><path fill="#664500" d="M18.3 19.4c-.16.13-.4.14-.6 0 0 0-1.26-.9-3.7-.9-2.44 0-3.7.9-3.7.9-.18.14-.43.13-.6 0-.2-.15-.25-.4-.16-.6.06-.14 1.5-3.3 4.46-3.3s4.4 3.16 4.46 3.3c.1.2.03.45-.15.6"/></g><g><path fill="#664500" d="M28.3 19.4c-.16.13-.4.14-.6 0 0 0-1.26-.9-3.7-.9-2.44 0-3.7.9-3.7.9-.18.14-.43.13-.6 0-.2-.15-.25-.4-.16-.6.06-.14 1.5-3.3 4.46-3.3s4.4 3.16 4.46 3.3c.1.2.03.45-.15.6"/></g><g><path fill="#664500" d="M23 9h-8c-.55 0-1 .45-1 1s.45 1 1 1h8c.55 0 1-.45 1-1s-.45-1-1-1"/></g><g><path fill="#664500" d="M7 23c-.55 0-1 .45-1 1s.45 1 1 1c.15 0 3.56.1 6.2 3.6.33.44.96.53 1.4.2.44-.33.53-.96.2-1.4C11.54 23.05 7.18 23 7 23"/></g><g><path fill="#664500" d="M31 23c-.18 0-4.54.05-7.8 4.4-.33.44-.24 1.07.2 1.4.44.33 1.07.24 1.4-.2 2.64-3.52 6.06-3.6 6.2-3.6.56 0 1-.46 1-1 0-.56-.45-1-1-1"/></g></g></g></g></svg>