<svg xmlns="http://www.w3.org/2000/svg" viewBox="0 0 47.5 47.5" enable-background="new 0 0 47.5 47.5"><defs><clipPath id="a"><path d="M0 38h38V0H0v38z"/></clipPath></defs><g><g><g clip-path="url(#a)" transform="matrix(1.25 0 0 -1.25 0 47.5)"><g><path fill="#ffcc4d" d="M36 19c0-9.4-7.6-17-17-17S2 9.6 2 19s7.6 17 17 17 17-7.6 17-17"/></g><g><path fill="#664500" d="M16 20c0-1.66-.9-3-2-3s-2 1.34-2 3 .9 3 2 3 2-1.34 2-3"/></g><g><path fill="#664500" d="M26 20c0-1.66-.9-3-2-3s-2 1.34-2 3 .9 3 2 3 2-1.34 2-3"/></g><g><path fill="#664500" d="M24.5 8.12c-.03.05-1.16 4.38-5.5 4.38s-5.47-4.33-5.48-4.38c-.06-.2.04-.43.23-.54.18-.1.43-.1.6.06 0 0 1 .86 4.65.86 3.6 0 4.62-.83 4.66-.86.1-.1.22-.14.34-.14.08 0 .17.02.25.06.2.12.3.34.24.56"/></g><g><path fill="#664500" d="M30 25c-5.55 0-7.8 4.37-7.9 4.55-.24.5-.04 1.1.45 1.35.5.24 1.1.04 1.34-.45.07-.14 1.8-3.45 6.1-3.45.55 0 1-.45 1-1s-.45-1-1-1"/></g><g><path fill="#664500" d="M8 25c-.55 0-1 .45-1 1s.45 1 1 1c5.08 0 6 3.12 6.03 3.25.15.53.7.85 1.22.7.53-.13.85-.66.72-1.2C15.92 29.56 14.7 25 8 25"/></g></g></g></g></svg>