<svg xmlns="http://www.w3.org/2000/svg" viewBox="0 0 47.5 47.5" enable-background="new 0 0 47.5 47.5"><defs><clipPath id="a"><path d="M0 38h38V0H0v38z"/></clipPath></defs><g><g><g clip-path="url(#a)" transform="matrix(1.25 0 0 -1.25 0 47.5)"><g><path fill="#ffcc4d" d="M36 19c0-9.4-7.6-17-17-17S2 9.6 2 19s7.6 17 17 17 17-7.6 17-17"/></g><g><path fill="#664500" d="M22 11.5C22 9.57 20.66 8 19 8s-3 1.57-3 3.5 1.34 3.5 3 3.5 3-1.57 3-3.5"/></g><g><path fill="#664500" d="M31.5 25.5c-.3 0-.6.14-.8.4-2.64 3.52-6.06 3.6-6.2 3.6-.56 0-1 .46-1 1 0 .56.45 1 1 1 .18 0 4.54-.05 7.8-4.4.33-.44.24-1.07-.2-1.4-.18-.13-.4-.2-.6-.2"/></g><g><path fill="#664500" d="M6.5 25.5c-.2 0-.42.07-.6.2-.44.33-.53.96-.2 1.4 3.26 4.35 7.62 4.4 7.8 4.4.55 0 1-.45 1-1s-.44-1-1-1c-.15 0-3.56-.1-6.2-3.6-.2-.26-.5-.4-.8-.4"/></g><g><path fill="#664500" d="M15 22c0-1.66-.96-3-2.14-3-1.2 0-2.15 1.34-2.15 3s.97 3 2.16 3c1.18 0 2.14-1.34 2.14-3"/></g><g><path fill="#664500" d="M27 22.2c0-1.55-.9-2.8-2-2.8s-2 1.25-2 2.8c0 1.55.9 2.8 2 2.8s2-1.25 2-2.8"/></g></g></g></g></svg>