<svg xmlns="http://www.w3.org/2000/svg" viewBox="0 0 47.5 47.5" enable-background="new 0 0 47.5 47.5"><defs><clipPath id="a"><path d="M0 38h38V0H0v38z"/></clipPath></defs><g><g><g clip-path="url(#a)" transform="matrix(1.25 0 0 -1.25 0 47.5)"><g><path fill="#ffcc4d" d="M36 19c0-9.4-7.6-17-17-17S2 9.6 2 19s7.6 17 17 17 17-7.6 17-17"/></g><g><path fill="#664500" d="M17.66 26.46c-.2.1-.45.03-.6-.15 0 0-.97-1.2-3.32-1.83-.78-.22-1.53-.32-2.25-.32-1 0-1.57.2-1.57.2-.2.1-.45.02-.6-.16-.12-.2-.1-.45.03-.62.07-.1 1.78-2.15 4.12-2.15.36 0 .7.05 1.05.14 2.85.78 3.4 4.2 3.43 4.35.03.23-.1.45-.3.54"/></g><g><path fill="#664500" d="M28.64 24.3c-.14.18-.38.25-.6.16 0 0-.62-.25-1.73-.25-.65 0-1.35.1-2.06.27-2.37.58-3.37 1.75-3.38 1.76-.14.18-.4.23-.6.14-.2-.1-.32-.32-.28-.55.03-.14.67-3.56 3.54-4.26.3-.08.63-.12.95-.12 2.4 0 4.1 2.16 4.17 2.25.14.17.14.42 0 .6"/></g><g><path fill="#664500" d="M11 27c-.45 0-.86.3-.97.76-.13.53.2 1.07.72 1.2.04.02 3.6.97 5.36 4.5.25.48.85.68 1.35.44.5-.25.7-.85.44-1.35-2.2-4.36-6.48-5.47-6.66-5.52-.08-.02-.16-.03-.24-.03"/></g><g><path fill="#664500" d="M27 27c-.08 0-.16 0-.24.03-.18.04-4.47 1.16-6.66 5.52-.24.5-.04 1.1.45 1.35.5.24 1.1.04 1.35-.45 1.75-3.52 5.3-4.47 5.35-4.48.53-.14.85-.68.72-1.22-.12-.45-.52-.75-.97-.75"/></g><g><path fill="#664500" d="M19 8.04c-3.62 0-6.03-.43-9-1-.68-.14-2 0-2 2 0 4 4.6 9 11 9s11-5 11-9c0-2-1.32-2.14-2-2-2.97.57-5.38 1-9 1"/></g><g><path fill="#fff" d="M11 12s3 1 8 1 8-1 8-1-2 4-8 4-8-4-8-4"/></g></g></g></g></svg>