<svg xmlns="http://www.w3.org/2000/svg" viewBox="0 0 47.5 47.5" enable-background="new 0 0 47.5 47.5"><defs><clipPath id="a"><path d="M0 38h38V0H0v38z"/></clipPath></defs><g><g><g clip-path="url(#a)" transform="matrix(1.25 0 0 -1.25 0 47.5)"><g><path fill="#ffcc4d" d="M36 19c0-9.4-7.6-17-17-17S2 9.6 2 19s7.6 17 17 17 17-7.6 17-17"/></g><g><path fill="#664500" d="M30 27c-5.55 0-7.8 4.37-7.9 4.55-.24.5-.04 1.1.45 1.35.5.24 1.1.04 1.34-.45.07-.14 1.8-3.45 6.1-3.45.55 0 1-.45 1-1s-.45-1-1-1"/></g><g><path fill="#664500" d="M8 27c-.55 0-1 .45-1 1s.45 1 1 1c5.08 0 6 3.12 6.03 3.25.15.53.7.85 1.22.7.53-.13.85-.66.72-1.2C15.92 31.56 14.7 27 8 27"/></g><g><path fill="#664500" d="M7 14c-.3 0-.6.14-.8.4-.33.44-.24 1.07.2 1.4.14.1 2.95 2.18 6.86 2.93C10.78 19.97 8.03 20 8 20c-.55 0-1 .45-1 1s.45 1 1 1c.22 0 5.45-.04 8.7-3.3.3-.28.38-.7.22-1.08-.15-.38-.52-.62-.92-.62-4.6 0-8.36-2.77-8.4-2.8-.18-.14-.4-.2-.6-.2"/></g><g><path fill="#664500" d="M31 14c-.2 0-.42.06-.6.2-.04.03-3.8 2.8-8.4 2.8-.4 0-.77.24-.92.62-.16.37-.07.8.2 1.1C24.56 21.95 29.8 22 30 22c.55 0 1-.45 1-1s-.45-1-1-1c-.03 0-2.78-.03-5.26-1.27 3.9-.75 6.72-2.82 6.86-2.93.44-.33.53-.96.2-1.4-.2-.26-.5-.4-.8-.4"/></g><g><path fill="#664500" d="M26.45 6.2c-.1.27-2.93 6.3-7.2 6.3-4.25 0-7.55-6-7.7-6.26-.1-.2-.05-.47.13-.62.1-.08.2-.12.32-.12.1 0 .22.04.3.1.04.03 3.17 2.5 6.94 2.5 3.75 0 6.4-2.44 6.42-2.46.17-.17.44-.18.63-.04.2.13.25.4.15.6"/></g></g></g></g></svg>