<svg xmlns="http://www.w3.org/2000/svg" viewBox="0 0 47.5 47.5" enable-background="new 0 0 47.5 47.5"><defs><clipPath id="a"><path d="M0 38h38V0H0v38z"/></clipPath></defs><g><g><g clip-path="url(#a)" transform="matrix(1.25 0 0 -1.25 0 47.5)"><g><path fill="#ffcc4d" d="M36 19c0-9.4-7.6-17-17-17S2 9.6 2 19s7.6 17 17 17 17-7.6 17-17"/></g><g><path fill="#664500" d="M23 10c0-2.76-1.8-3-4-3s-4 .24-4 3 1.8 6 4 6 4-3.24 4-6"/></g><g><path fill="#664500" d="M31 22c-.12 0-.25.02-.37.07-5.23 2.1-7.37 5.24-7.46 5.38-.3.45-.2 1.08.27 1.38.46.3 1.08.2 1.4-.27 0-.03 1.92-2.8 6.53-4.63.5-.2.76-.8.56-1.3-.16-.4-.53-.63-.93-.63"/></g><g><path fill="#664500" d="M7 22c-.4 0-.77.24-.93.63-.2.5.05 1.1.56 1.3 4.6 1.84 6.52 4.6 6.54 4.63.3.45.93.58 1.4.27.44-.3.57-.93.26-1.38-.1-.14-2.23-3.3-7.46-5.38-.12-.05-.25-.07-.37-.07"/></g><g><path fill="#5dadec" d="M9 2l4 .05V21H9V2zm16 19h4V2l-4 .05V21z"/></g><g><path fill="#664500" d="M16 19c-.15 0-.3.03-.45.1-3.5 1.76-7.07.02-7.1 0-.5-.24-1.1-.04-1.34.45-.24.5-.04 1.1.45 1.35.2.08 4.5 2.2 8.9 0 .5-.25.7-.85.45-1.35-.18-.35-.53-.55-.9-.55"/></g><g><path fill="#664500" d="M30 19c-.15 0-.3.03-.45.1-3.5 1.76-7.07.02-7.1 0-.5-.24-1.1-.04-1.35.45-.24.5-.04 1.1.45 1.35.18.08 4.5 2.2 8.9 0 .5-.25.7-.85.44-1.35-.18-.35-.53-.55-.9-.55"/></g><g><path fill="#5dadec" d="M37 3c0-1.1-8.06-2-18-2S1 1.9 1 3s8.06 2 18 2 18-.9 18-2"/></g><g><path fill="#e75a70" d="M22 10c0-1.66-1.34-2-3-2s-3 .34-3 2 1.34 2 3 2 3-.34 3-2"/></g></g></g></g></svg>