<svg xmlns="http://www.w3.org/2000/svg" viewBox="0 0 47.5 47.5" enable-background="new 0 0 47.5 47.5"><defs><clipPath id="a"><path d="M0 38h38V0H0v38z"/></clipPath></defs><g><g><g clip-path="url(#a)" transform="matrix(1.25 0 0 -1.25 0 47.5)"><g><path fill="#ffcc4d" d="M36 19c0-9.4-7.6-17-17-17S2 9.6 2 19s7.6 17 17 17 17-7.6 17-17"/></g><g><path fill="#664500" d="M15 23c0-1.66-.96-3-2.14-3-1.2 0-2.15 1.34-2.15 3s.97 3 2.16 3c1.18 0 2.14-1.34 2.14-3"/></g><g><path fill="#664500" d="M27 23.2c0-1.55-.9-2.8-2-2.8s-2 1.25-2 2.8c0 1.55.9 2.8 2 2.8s2-1.25 2-2.8"/></g><g><path fill="#664500" d="M23 12c0-2.76-1.8-5-4-5s-4 2.24-4 5 1.8 5 4 5 4-2.24 4-5"/></g></g></g></g></svg>