<?xml version="1.0" encoding="UTF-8" standalone="no"?><svg xmlns:dc="http://purl.org/dc/elements/1.1/" xmlns:cc="http://creativecommons.org/ns#" xmlns:rdf="http://www.w3.org/1999/02/22-rdf-syntax-ns#" xmlns:svg="http://www.w3.org/2000/svg" xmlns="http://www.w3.org/2000/svg" viewBox="0 0 47.5 47.5" style="enable-background:new 0 0 47.5 47.5;" xml:space="preserve" version="1.1" id="svg2"><metadata id="metadata8"><rdf:RDF><cc:Work rdf:about=""><dc:format>image/svg+xml</dc:format><dc:type rdf:resource="http://purl.org/dc/dcmitype/StillImage"/></cc:Work></rdf:RDF></metadata><defs id="defs6"><clipPath id="clipPath16" clipPathUnits="userSpaceOnUse"><path id="path18" d="M 0,38 38,38 38,0 0,0 0,38 Z"/></clipPath></defs><g transform="matrix(1.25,0,0,-1.25,0,47.5)" id="g10"><g id="g12"><g clip-path="url(#clipPath16)" id="g14"><g transform="translate(36,19)" id="g20"><path id="path22" style="fill:#ffcc4d;fill-opacity:1;fill-rule:nonzero;stroke:none" d="m 0,0 c 0,-9.389 -7.611,-17 -17,-17 -9.388,0 -17,7.611 -17,17 0,9.388 7.612,17 17,17 C -7.611,17 0,9.388 0,0"/></g><g transform="translate(28,17)" id="g24"><path id="path26" style="fill:#664500;fill-opacity:1;fill-rule:nonzero;stroke:none" d="m 0,0 -18,0 c -2.209,0 -4,-1.791 -4,-4 0,-2.209 1.791,-4 4,-4 l 18,0 c 2.21,0 4,1.791 4,4 0,2.209 -1.79,4 -4,4"/></g><path id="path28" style="fill:#f5f8fa;fill-opacity:1;fill-rule:nonzero;stroke:none" d="m 25,15 -5,0 0,-4 5,0 0,4 z"/><g transform="translate(28,15)" id="g30"><path id="path32" style="fill:#f5f8fa;fill-opacity:1;fill-rule:nonzero;stroke:none" d="m 0,0 -1,0 0,-4 1,0 c 1.105,0 2,0.896 2,2 0,1.105 -0.895,2 -2,2"/></g><g transform="translate(10,15)" id="g34"><path id="path36" style="fill:#f5f8fa;fill-opacity:1;fill-rule:nonzero;stroke:none" d="m 0,0 c -1.104,0 -2,-0.895 -2,-2 0,-1.104 0.896,-2 2,-2 l 1,0 0,4 -1,0 z"/></g><path id="path38" style="fill:#f5f8fa;fill-opacity:1;fill-rule:nonzero;stroke:none" d="m 13,11 5,0 0,4 -5,0 0,-4 z"/><g transform="translate(15,23)" id="g40"><path id="path42" style="fill:#664500;fill-opacity:1;fill-rule:nonzero;stroke:none" d="m 0,0 c 0,-1.657 -0.96,-3 -2.143,-3 -1.184,0 -2.143,1.343 -2.143,3 0,1.657 0.959,3 2.143,3 C -0.96,3 0,1.657 0,0"/></g><g transform="translate(27,23.2002)" id="g44"><path id="path46" style="fill:#664500;fill-opacity:1;fill-rule:nonzero;stroke:none" d="m 0,0 c 0,-1.547 -0.895,-2.8 -2,-2.8 -1.104,0 -2,1.253 -2,2.8 0,1.546 0.896,2.8 2,2.8 1.105,0 2,-1.254 2,-2.8"/></g></g></g></g></svg>
