<?xml version="1.0" encoding="UTF-8" standalone="no"?>
<!-- Created with Inkscape (http://www.inkscape.org/) -->

<svg
   xmlns:svg="http://www.w3.org/2000/svg"
   xmlns="http://www.w3.org/2000/svg"
   version="1.1"
   width="47.5"
   height="47.5"
   id="svg2"
   xml:space="preserve"><defs
     id="defs6"><clipPath
       id="clipPath18"><path
         d="M 0,38 38,38 38,0 0,0 0,38 z"
         id="path20" /></clipPath></defs><g
     transform="matrix(1.25,0,0,-1.25,0,47.5)"
     id="g12"><g
       id="g14"><g
         clip-path="url(#clipPath18)"
         id="g16"><g
           transform="translate(37,19)"
           id="g22"><path
             d="m 0,0 c 0,-9.941 -8.059,-18 -18,-18 -9.941,0 -18,8.059 -18,18 0,9.941 8.059,18 18,18 C -8.059,18 0,9.941 0,0"
             id="path24"
             style="fill:#ffcc4d;fill-opacity:1;fill-rule:nonzero;stroke:none" /></g><g
           transform="translate(15,23)"
           id="g26"><path
             d="m 0,0 c 0,-1.657 -0.959,-3 -2.143,-3 -1.184,0 -2.143,1.343 -2.143,3 0,1.657 0.959,3 2.143,3 C -0.959,3 0,1.657 0,0"
             id="path28"
             style="fill:#664500;fill-opacity:1;fill-rule:nonzero;stroke:none" /></g><g
           transform="translate(27,23.2002)"
           id="g30"><path
             d="m 0,0 c 0,-1.547 -0.896,-2.8 -2,-2.8 -1.104,0 -2,1.253 -2,2.8 0,1.546 0.896,2.8 2,2.8 1.104,0 2,-1.254 2,-2.8"
             id="path32"
             style="fill:#664500;fill-opacity:1;fill-rule:nonzero;stroke:none" /></g><g
           transform="translate(23,12)"
           id="g34"><path
             d="m 0,0 c 0,-2.763 -1.792,-5 -4,-5 -2.209,0 -4,2.237 -4,5 0,2.761 1.791,5 4,5 2.208,0 4,-2.239 4,-5"
             id="path36"
             style="fill:#664500;fill-opacity:1;fill-rule:nonzero;stroke:none" /></g></g></g></g></svg>