<?xml version="1.0" encoding="UTF-8" standalone="no"?><svg xmlns:svg="http://www.w3.org/2000/svg" xmlns="http://www.w3.org/2000/svg" version="1.1" viewBox="0 0 47.5 47.5" style="enable-background:new 0 0 47.5 47.5;" id="svg2" xml:space="preserve"><defs id="defs6"><clipPath id="clipPath18"><path d="M 0,38 38,38 38,0 0,0 0,38 z" id="path20"/></clipPath></defs><g transform="matrix(1.25,0,0,-1.25,0,47.5)" id="g12"><g id="g14"><g clip-path="url(#clipPath18)" id="g16"><g transform="translate(37,19)" id="g22"><path d="m 0,0 c 0,-9.941 -8.059,-18 -18,-18 -9.941,0 -18,8.059 -18,18 0,9.941 8.059,18 18,18 C -8.059,18 0,9.941 0,0" id="path24" style="fill:#ffcc4d;fill-opacity:1;fill-rule:nonzero;stroke:none"/></g><g transform="translate(21.001,24)" id="g26"><path d="M 0,0 C -0.055,0 -0.109,0.004 -0.165,0.014 -0.71,0.104 -1.078,0.62 -0.987,1.165 -0.594,3.529 1.583,8 6.999,8 c 0.553,0 1,-0.448 1,-1 0,-0.552 -0.447,-1 -1,-1 C 1.904,6 1.021,1.046 0.985,0.835 0.904,0.347 0.48,0 0,0" id="path28" style="fill:#664500;fill-opacity:1;fill-rule:nonzero;stroke:none"/></g><g transform="translate(16.999,24)" id="g30"><path d="M 0,0 C -0.479,0 -0.902,0.345 -0.985,0.833 -1.021,1.043 -1.94,6 -6.999,6 c -0.552,0 -1,0.448 -1,1 0,0.552 0.448,1 1,1 C -1.583,8 0.593,3.529 0.987,1.165 1.078,0.62 0.71,0.104 0.166,0.014 0.11,0.004 0.054,0 0,0" id="path32" style="fill:#664500;fill-opacity:1;fill-rule:nonzero;stroke:none"/></g><g transform="translate(12.4097,19.1079)" id="g34"><path d="m 0,0 c -2.334,0 -3.87,0.997 -3.964,1.06 -0.46,0.306 -0.584,0.927 -0.278,1.387 0.306,0.46 0.927,0.585 1.387,0.277 C -2.756,2.66 -0.253,1.088 3.143,2.787 3.638,3.034 4.238,2.833 4.485,2.339 4.732,1.845 4.532,1.245 4.038,0.998 2.544,0.251 1.171,0 0,0" id="path36" style="fill:#664500;fill-opacity:1;fill-rule:nonzero;stroke:none"/></g><g transform="translate(25.5908,19.1079)" id="g38"><path d="m 0,0 c -1.172,0 -2.545,0.251 -4.038,0.998 -0.494,0.247 -0.694,0.847 -0.447,1.341 0.248,0.494 0.847,0.695 1.341,0.448 C 0.257,1.087 2.756,2.661 2.86,2.728 3.32,3.026 3.941,2.898 4.242,2.439 4.544,1.979 4.421,1.365 3.964,1.06 3.869,0.997 2.334,0 0,0" id="path40" style="fill:#664500;fill-opacity:1;fill-rule:nonzero;stroke:none"/></g><g transform="translate(27.001,10)" id="g42"><path d="m 0,0 c -0.305,0 -0.604,0.138 -0.801,0.4 -0.025,0.034 -2.782,3.6 -7.2,3.6 -4.417,0 -7.174,-3.566 -7.202,-3.603 -0.333,-0.437 -0.961,-0.525 -1.4,-0.194 -0.439,0.332 -0.529,0.956 -0.198,1.397 0.135,0.179 3.363,4.4 8.8,4.4 5.438,0 8.665,-4.221 8.8,-4.4 C 1.131,1.158 1.041,0.531 0.599,0.2 0.419,0.065 0.209,0 0,0" id="path44" style="fill:#664500;fill-opacity:1;fill-rule:nonzero;stroke:none"/></g><g transform="translate(16.3911,16.9199)" id="g46"><path d="m 0,0 c -0.453,0.195 -0.979,0.027 -1.239,-0.39 l -5,-8 c -0.193,-0.308 -0.203,-0.697 -0.027,-1.014 0.177,-0.319 0.511,-0.516 0.875,-0.516 l 3,0 c 0.459,0 0.859,0.313 0.97,0.758 l 2,8 C 0.698,-0.686 0.453,-0.192 0,0" id="path48" style="fill:#f5f8fa;fill-opacity:1;fill-rule:nonzero;stroke:none"/></g><g transform="translate(27.8477,8.5303)" id="g50"><path d="M 0,0 -5,8 C -5.262,8.418 -5.787,8.584 -6.238,8.39 -6.691,8.197 -6.937,7.704 -6.817,7.228 l 2,-8 c 0.111,-0.446 0.51,-0.758 0.969,-0.758 l 3,0 c 0.364,0 0.699,0.197 0.875,0.515 C 0.203,-0.697 0.193,-0.309 0,0" id="path52" style="fill:#f5f8fa;fill-opacity:1;fill-rule:nonzero;stroke:none"/></g><g transform="translate(32.9824,6.8223)" id="g54"><path d="m 0,0 c 0.003,0.06 0.018,0.117 0.018,0.178 0,1.656 -1.344,3 -3,3 -1.028,0 -1.932,-0.518 -2.473,-1.305 -0.471,0.194 -0.986,0.305 -1.527,0.305 -2.209,0 -4,-1.791 -4,-4 0,-2.209 1.791,-4 4,-4 1.365,0 2.568,0.686 3.29,1.731 0.479,-1.02 1.507,-1.731 2.71,-1.731 1.657,0 3,1.343 3,3 C 2.018,-1.511 1.172,-0.408 0,0" id="path56" style="fill:#e1e8ed;fill-opacity:1;fill-rule:nonzero;stroke:none"/></g><g transform="translate(12,9)" id="g58"><path d="M 0,0 C -0.542,0 -1.056,-0.11 -1.527,-0.305 -2.068,0.482 -2.973,1 -4,1 -5.656,1 -7,-0.344 -7,-2 -7,-2.061 -6.986,-2.118 -6.982,-2.178 -8.154,-2.586 -9,-3.688 -9,-5 c 0,-1.657 1.343,-3 3,-3 1.202,0 2.231,0.711 2.709,1.731 C -2.568,-7.313 -1.366,-8 0,-8 c 2.209,0 4,1.791 4,4 0,2.209 -1.791,4 -4,4" id="path60" style="fill:#e1e8ed;fill-opacity:1;fill-rule:nonzero;stroke:none"/></g></g></g></g></svg>
