<svg xmlns="http://www.w3.org/2000/svg" viewBox="0 0 47.5 47.5" enable-background="new 0 0 47.5 47.5"><defs><clipPath id="a"><path d="M0 38h38V0H0v38z"/></clipPath></defs><g><g><g clip-path="url(#a)" transform="matrix(1.25 0 0 -1.25 0 47.5)"><g><path fill="#ffcc4d" d="M36 19c0-9.4-7.6-17-17-17S2 9.6 2 19s7.6 17 17 17 17-7.6 17-17"/></g><g><path fill="#664500" d="M15 20.5c0-1.93-1.12-3.5-2.5-3.5S10 18.57 10 20.5s1.12 3.5 2.5 3.5 2.5-1.57 2.5-3.5"/></g><g><path fill="#664500" d="M28 20.5c0-1.93-1.12-3.5-2.5-3.5S23 18.57 23 20.5s1.12 3.5 2.5 3.5 2.5-1.57 2.5-3.5"/></g><g><path fill="#bdddf4" d="M19 36C9.6 36 2 28.4 2 19c0-.54.03-1.07.08-1.6C4.58 22.4 11.2 26 19 26c7.8 0 14.42-3.6 16.92-8.6.05.53.08 1.06.08 1.6 0 9.4-7.6 17-17 17"/></g><g><path fill="#664500" d="M7 25c-.2 0-.42.07-.6.2-.44.33-.53.96-.2 1.4C9.46 30.95 13.82 31 14 31c.55 0 1-.45 1-1s-.44-1-1-1c-.15 0-3.56-.1-6.2-3.6-.2-.26-.5-.4-.8-.4"/></g><g><path fill="#664500" d="M31 25c-.3 0-.6.14-.8.4-2.64 3.52-6.06 3.6-6.2 3.6-.56 0-1 .46-1 1 0 .56.45 1 1 1 .18 0 4.54-.05 7.8-4.4.33-.44.24-1.07-.2-1.4-.18-.13-.4-.2-.6-.2"/></g><g><path fill="#664500" d="M24.5 9.12c-.03.05-1.16 4.38-5.5 4.38s-5.47-4.33-5.48-4.38c-.06-.2.04-.43.23-.54.18-.1.43-.1.6.06 0 0 1 .86 4.65.86 3.6 0 4.62-.83 4.66-.86.1-.1.22-.14.34-.14.08 0 .17.02.25.06.2.12.3.34.24.56"/></g></g></g></g></svg>