<svg xmlns="http://www.w3.org/2000/svg" viewBox="0 0 47.5 47.5" enable-background="new 0 0 47.5 47.5"><defs><clipPath id="a"><path d="M0 38h38V0H0v38z"/></clipPath></defs><g><g><g clip-path="url(#a)" transform="matrix(1.25 0 0 -1.25 0 47.5)"><g><path fill="#fdcb58" d="M36 19c0-9.4-7.6-17-17-17S2 9.6 2 19s7.6 17 17 17 17-7.6 17-17"/></g><g><path fill="#664500" d="M26.5 7.12c-.06.18-1.18 4.38-7.5 4.38s-7.44-4.2-7.48-4.38c-.06-.22.04-.44.23-.55.2-.1.44-.08.6.07.02.02 1.96 1.86 6.65 1.86 4.7 0 6.63-1.84 6.65-1.86.1-.1.22-.14.35-.14.08 0 .17.02.25.06.2.12.3.34.24.56"/></g><g><path fill="#664500" d="M16.7 19.7C13.46 22.97 8.23 23 8 23c-.55 0-1-.45-1-1s.45-1 1-1c.03 0 1.92-.02 3.98-.74-.6-.64-.98-1.63-.98-2.76 0-1.93 1.12-3.5 2.5-3.5s2.5 1.57 2.5 3.5c0 .17-.02.34-.04.5.02 0 .03 0 .04 0 .26 0 .5.1.7.3.4.38.4 1.02 0 1.4"/></g><g><path fill="#664500" d="M30 23c-.22 0-5.45-.04-8.7-3.3-.4-.38-.4-1.02 0-1.4.2-.2.44-.3.7-.3 0 0 .02 0 .04 0-.02-.16-.04-.33-.04-.5 0-1.93 1.12-3.5 2.5-3.5s2.5 1.57 2.5 3.5c0 1.13-.4 2.12-.98 2.76 2.06.72 3.95.74 3.98.74.55 0 1 .45 1 1s-.45 1-1 1"/></g></g></g></g></svg>