<?xml version="1.0" encoding="UTF-8" standalone="no"?>
<!-- Created with Inkscape (http://www.inkscape.org/) -->

<svg
   xmlns:svg="http://www.w3.org/2000/svg"
   xmlns="http://www.w3.org/2000/svg"
   version="1.1"
   width="47.5"
   height="47.5"
   id="svg2"
   xml:space="preserve"><defs
     id="defs6"><clipPath
       id="clipPath18"><path
         d="M 0,38 38,38 38,0 0,0 0,38 z"
         id="path20" /></clipPath></defs><g
     transform="matrix(1.25,0,0,-1.25,0,47.5)"
     id="g12"><g
       id="g14"><g
         clip-path="url(#clipPath18)"
         id="g16"><g
           transform="translate(37,19)"
           id="g22"><path
             d="m 0,0 c 0,-9.941 -8.059,-18 -18,-18 -9.941,0 -18,8.059 -18,18 0,9.941 8.059,18 18,18 C -8.059,18 0,9.941 0,0"
             id="path24"
             style="fill:#ffcc4d;fill-opacity:1;fill-rule:nonzero;stroke:none" /></g><g
           transform="translate(30,27)"
           id="g26"><path
             d="m 0,0 c -5.554,0 -7.802,4.367 -7.895,4.553 -0.247,0.494 -0.046,1.094 0.448,1.342 0.493,0.245 1.092,0.047 1.34,-0.444 C -6.033,5.306 -4.287,2 0,2 0.553,2 1,1.552 1,1 1,0.448 0.553,0 0,0"
             id="path28"
             style="fill:#664500;fill-opacity:1;fill-rule:nonzero;stroke:none" /></g><g
           transform="translate(8,27)"
           id="g30"><path
             d="M 0,0 C -0.552,0 -1,0.448 -1,1 -1,1.552 -0.552,2 0,2 5.083,2 5.996,5.12 6.033,5.253 6.178,5.781 6.725,6.101 7.252,5.962 7.782,5.823 8.103,5.289 7.97,4.757 7.921,4.563 6.704,0 0,0"
             id="path32"
             style="fill:#664500;fill-opacity:1;fill-rule:nonzero;stroke:none" /></g><g
           transform="translate(7.001,14)"
           id="g34"><path
             d="m 0,0 c -0.304,0 -0.604,0.138 -0.801,0.4 -0.331,0.442 -0.242,1.069 0.2,1.4 C -0.458,1.907 2.35,3.982 6.255,4.732 3.78,5.973 1.033,6 0.998,6 0.446,6.001 -0.001,6.45 0,7.001 0,7.553 0.447,8 0.999,8 1.22,8 6.451,7.962 9.706,4.707 9.992,4.421 10.078,3.991 9.923,3.617 9.768,3.243 9.403,3 8.999,3 4.386,3 0.636,0.228 0.599,0.2 0.419,0.065 0.208,0 0,0"
             id="path36"
             style="fill:#664500;fill-opacity:1;fill-rule:nonzero;stroke:none" /></g><g
           transform="translate(30.999,14.001)"
           id="g38"><path
             d="m 0,0 c -0.208,0 -0.418,0.064 -0.598,0.198 -0.038,0.029 -3.811,2.801 -8.401,2.801 -0.404,0 -0.77,0.243 -0.924,0.617 -0.155,0.374 -0.069,0.804 0.217,1.09 3.256,3.255 8.486,3.293 8.707,3.293 C -0.447,7.999 -0.001,7.552 0,7 0.001,6.449 -0.446,6 -0.997,5.999 -1.033,5.999 -3.78,5.972 -6.255,4.731 -2.35,3.981 0.458,1.906 0.601,1.799 1.042,1.468 1.132,0.843 0.802,0.4 0.605,0.139 0.305,0 0,0"
             id="path40"
             style="fill:#664500;fill-opacity:1;fill-rule:nonzero;stroke:none" /></g><g
           transform="translate(26.4541,6.209)"
           id="g42"><path
             d="m 0,0 c -0.118,0.257 -2.938,6.291 -7.21,6.291 -4.249,0 -7.546,-6.007 -7.684,-6.262 -0.113,-0.209 -0.063,-0.468 0.119,-0.621 0.093,-0.078 0.207,-0.117 0.321,-0.117 0.11,0 0.22,0.036 0.311,0.109 0.032,0.025 3.164,2.48 6.933,2.48 3.743,0 6.388,-2.43 6.414,-2.454 0.175,-0.162 0.442,-0.18 0.634,-0.04 C 0.032,-0.475 0.1,-0.218 0,0"
             id="path44"
             style="fill:#664500;fill-opacity:1;fill-rule:nonzero;stroke:none" /></g></g></g></g></svg>