<?xml version="1.0" encoding="UTF-8" standalone="no"?><svg xmlns:dc="http://purl.org/dc/elements/1.1/" xmlns:cc="http://creativecommons.org/ns#" xmlns:rdf="http://www.w3.org/1999/02/22-rdf-syntax-ns#" xmlns:svg="http://www.w3.org/2000/svg" xmlns="http://www.w3.org/2000/svg" viewBox="0 0 47.5 47.5" style="enable-background:new 0 0 47.5 47.5;" xml:space="preserve" version="1.1" id="svg2"><metadata id="metadata8"><rdf:RDF><cc:Work rdf:about=""><dc:format>image/svg+xml</dc:format><dc:type rdf:resource="http://purl.org/dc/dcmitype/StillImage"/></cc:Work></rdf:RDF></metadata><defs id="defs6"><clipPath id="clipPath16" clipPathUnits="userSpaceOnUse"><path id="path18" d="M 0,38 38,38 38,0 0,0 0,38 Z"/></clipPath></defs><g transform="matrix(1.25,0,0,-1.25,0,47.5)" id="g10"><g id="g12"><g clip-path="url(#clipPath16)" id="g14"><g transform="translate(36,19)" id="g20"><path id="path22" style="fill:#ffcc4d;fill-opacity:1;fill-rule:nonzero;stroke:none" d="m 0,0 c 0,-9.389 -7.611,-17 -17,-17 -9.389,0 -17,7.611 -17,17 0,9.389 7.611,17 17,17 C -7.611,17 0,9.389 0,0"/></g><g transform="translate(22,11.5)" id="g24"><path id="path26" style="fill:#664500;fill-opacity:1;fill-rule:nonzero;stroke:none" d="m 0,0 c 0,-1.934 -1.345,-3.5 -3,-3.5 -1.657,0 -3,1.566 -3,3.5 0,1.932 1.343,3.5 3,3.5 1.655,0 3,-1.568 3,-3.5"/></g><g transform="translate(31.4995,25.5)" id="g28"><path id="path30" style="fill:#664500;fill-opacity:1;fill-rule:nonzero;stroke:none" d="M 0,0 C -0.305,0 -0.605,0.138 -0.801,0.4 -3.441,3.921 -6.862,3.999 -7.007,4 -7.557,4.006 -8.001,4.456 -7.998,5.005 -7.995,5.556 -7.551,6 -7.001,6 -6.817,6 -2.464,5.95 0.799,1.6 1.131,1.158 1.041,0.531 0.599,0.2 0.419,0.065 0.209,0 0,0"/></g><g transform="translate(6.4991,25.5)" id="g32"><path id="path34" style="fill:#664500;fill-opacity:1;fill-rule:nonzero;stroke:none" d="m 0,0 c -0.208,0 -0.419,0.065 -0.599,0.2 -0.442,0.331 -0.531,0.958 -0.2,1.4 3.262,4.35 7.616,4.4 7.8,4.4 0.552,0 1,-0.448 1,-1 C 8.001,4.449 7.556,4.002 7.005,4 6.85,3.998 3.437,3.914 0.801,0.4 0.604,0.138 0.304,0 0,0"/></g><g transform="translate(15,22)" id="g36"><path id="path38" style="fill:#664500;fill-opacity:1;fill-rule:nonzero;stroke:none" d="m 0,0 c 0,-1.657 -0.96,-3 -2.143,-3 -1.184,0 -2.143,1.343 -2.143,3 0,1.657 0.959,3 2.143,3 C -0.96,3 0,1.657 0,0"/></g><g transform="translate(27,22.2002)" id="g40"><path id="path42" style="fill:#664500;fill-opacity:1;fill-rule:nonzero;stroke:none" d="m 0,0 c 0,-1.547 -0.895,-2.8 -2,-2.8 -1.104,0 -2,1.253 -2,2.8 0,1.546 0.896,2.8 2,2.8 1.105,0 2,-1.254 2,-2.8"/></g></g></g></g></svg>
