<svg xmlns="http://www.w3.org/2000/svg" viewBox="0 0 47.5 47.5" enable-background="new 0 0 47.5 47.5"><defs><clipPath id="a"><path d="M0 38h38V0H0v38z"/></clipPath></defs><g><g><g clip-path="url(#a)" transform="matrix(1.25 0 0 -1.25 0 47.5)"><g><path fill="#ffcc4d" d="M36 19c0-9.4-7.6-17-17-17S2 9.6 2 19s7.6 17 17 17 17-7.6 17-17"/></g><g><path fill="#664500" d="M28 17H10c-2.2 0-4-1.8-4-4s1.8-4 4-4h18c2.2 0 4 1.8 4 4s-1.8 4-4 4"/></g><path fill="#f5f8fa" d="M25 15h-5v-4h5v4z"/><g><path fill="#f5f8fa" d="M28 15h-1v-4h1c1.1 0 2 .9 2 2s-.9 2-2 2"/></g><g><path fill="#f5f8fa" d="M10 15c-1.1 0-2-.9-2-2s.9-2 2-2h1v4h-1z"/></g><path fill="#f5f8fa" d="M13 11h5v4h-5v-4z"/><g><path fill="#664500" d="M15 23c0-1.66-.96-3-2.14-3-1.2 0-2.15 1.34-2.15 3s.97 3 2.16 3c1.18 0 2.14-1.34 2.14-3"/></g><g><path fill="#664500" d="M27 23.2c0-1.55-.9-2.8-2-2.8s-2 1.25-2 2.8c0 1.55.9 2.8 2 2.8s2-1.25 2-2.8"/></g></g></g></g></svg>