<?xml version="1.0" encoding="UTF-8" standalone="no"?>
<!-- Created with Inkscape (http://www.inkscape.org/) -->

<svg
   xmlns:svg="http://www.w3.org/2000/svg"
   xmlns="http://www.w3.org/2000/svg"
   version="1.1"
   width="47.5"
   height="47.5"
   id="svg2"
   xml:space="preserve"><defs
     id="defs6"><clipPath
       id="clipPath18"><path
         d="M 0,38 38,38 38,0 0,0 0,38 z"
         id="path20" /></clipPath></defs><g
     transform="matrix(1.25,0,0,-1.25,0,47.5)"
     id="g12"><g
       id="g14"><g
         clip-path="url(#clipPath18)"
         id="g16"><g
           transform="translate(37,19)"
           id="g22"><path
             d="m 0,0 c 0,-9.941 -8.059,-18 -18,-18 -9.94,0 -18,8.059 -18,18 0,9.94 8.06,18 18,18 C -8.059,18 0,9.94 0,0"
             id="path24"
             style="fill:#ffcc4d;fill-opacity:1;fill-rule:nonzero;stroke:none" /></g><g
           transform="translate(15,20.5)"
           id="g26"><path
             d="M 0,0 C 0,-1.934 -1.119,-3.5 -2.5,-3.5 -3.881,-3.5 -5,-1.934 -5,0 -5,1.933 -3.881,3.5 -2.5,3.5 -1.119,3.5 0,1.933 0,0"
             id="path28"
             style="fill:#664500;fill-opacity:1;fill-rule:nonzero;stroke:none" /></g><g
           transform="translate(28,20.5)"
           id="g30"><path
             d="M 0,0 C 0,-1.934 -1.119,-3.5 -2.5,-3.5 -3.881,-3.5 -5,-1.934 -5,0 -5,1.933 -3.881,3.5 -2.5,3.5 -1.119,3.5 0,1.933 0,0"
             id="path32"
             style="fill:#664500;fill-opacity:1;fill-rule:nonzero;stroke:none" /></g><g
           transform="translate(24.4854,9.1211)"
           id="g34"><path
             d="m 0,0 c -0.012,0.044 -1.146,4.379 -5.485,4.379 -4.341,0 -5.474,-4.335 -5.485,-4.379 -0.053,-0.213 0.043,-0.431 0.231,-0.544 0.188,-0.112 0.433,-0.086 0.596,0.06 0.01,0.007 1.014,0.863 4.658,0.863 3.589,0 4.617,-0.83 4.656,-0.863 0.095,-0.09 0.219,-0.137 0.344,-0.137 0.084,0 0.169,0.021 0.246,0.064 C -0.043,-0.445 0.055,-0.218 0,0"
             id="path36"
             style="fill:#664500;fill-opacity:1;fill-rule:nonzero;stroke:none" /></g></g></g></g></svg>