<?xml version="1.0" encoding="UTF-8" standalone="no"?>
<!-- Created with Inkscape (http://www.inkscape.org/) -->

<svg
   xmlns:svg="http://www.w3.org/2000/svg"
   xmlns="http://www.w3.org/2000/svg"
   version="1.1"
   width="47.5"
   height="47.5"
   id="svg2"
   xml:space="preserve"><defs
     id="defs6"><clipPath
       id="clipPath18"><path
         d="M 0,38 38,38 38,0 0,0 0,38 z"
         id="path20" /></clipPath></defs><g
     transform="matrix(1.25,0,0,-1.25,0,47.5)"
     id="g12"><g
       id="g14"><g
         clip-path="url(#clipPath18)"
         id="g16"><g
           transform="translate(37,17)"
           id="g22"><path
             d="m 0,0 c 0,-10 -11,-16 -18,-16 -7,0 -18,6.059 -18,16 0,9.941 4,20 18,20 C -4,20 0,10 0,0"
             id="path24"
             style="fill:#ffcc4d;fill-opacity:1;fill-rule:nonzero;stroke:none" /></g><g
           transform="translate(36,36)"
           id="g26"><path
             d="m 0,0 c 1,-1 0,-11 0,-11 l -8,10 c 0,0 7,2 8,1"
             id="path28"
             style="fill:#ffcc4d;fill-opacity:1;fill-rule:nonzero;stroke:none" /></g><g
           transform="translate(2,36)"
           id="g30"><path
             d="M 0,0 C -1,-1 0,-11 0,-11 L 8,-1 C 8,-1 1,1 0,0"
             id="path32"
             style="fill:#ffcc4d;fill-opacity:1;fill-rule:nonzero;stroke:none" /></g><g
           transform="translate(15,22.5)"
           id="g34"><path
             d="m 0,0 c 0,-1.933 -0.896,-3.5 -2,-3.5 -1.104,0 -2,1.567 -2,3.5 0,1.933 0.896,3.5 2,3.5 1.104,0 2,-1.567 2,-3.5"
             id="path36"
             style="fill:#292f33;fill-opacity:1;fill-rule:nonzero;stroke:none" /></g><g
           transform="translate(27,22.5)"
           id="g38"><path
             d="m 0,0 c 0,-1.933 -0.896,-3.5 -2,-3.5 -1.104,0 -2,1.567 -2,3.5 0,1.933 0.896,3.5 2,3.5 1.104,0 2,-1.567 2,-3.5"
             id="path40"
             style="fill:#292f33;fill-opacity:1;fill-rule:nonzero;stroke:none" /></g><g
           transform="translate(18.9995,17.5)"
           id="g42"><path
             d="m 0,0 c 3,0 3,-0.5 3,-1.5 0,-1 -1.5,-3 -3,-3 -1.5,0 -3,2 -3,3 0,1 0,1.5 3,1.5"
             id="path44"
             style="fill:#67757f;fill-opacity:1;fill-rule:nonzero;stroke:none" /></g><g
           transform="translate(27,16.5)"
           id="g46"><path
             d="m 0,0 c -0.209,0 -0.404,0.133 -0.475,0.342 -0.087,0.262 0.055,0.545 0.317,0.633 l 9,2.999 C 9.105,4.062 9.387,3.92 9.475,3.658 9.562,3.396 9.42,3.113 9.158,3.026 l -9,-3.001 C 0.105,0.008 0.053,0 0,0"
             id="path48"
             style="fill:#9aaab4;fill-opacity:1;fill-rule:nonzero;stroke:none" /></g><g
           transform="translate(25.999,14.5)"
           id="g50"><path
             d="m 0,0 c -0.233,0 -0.441,0.164 -0.489,0.402 -0.055,0.271 0.121,0.535 0.392,0.588 l 10,2 C 10.163,3.044 10.437,2.87 10.491,2.598 10.546,2.327 10.37,2.063 10.099,2.01 l -10,-2 C 0.066,0.003 0.033,0 0,0"
             id="path52"
             style="fill:#9aaab4;fill-opacity:1;fill-rule:nonzero;stroke:none" /></g><g
           transform="translate(11,16.5)"
           id="g54"><path
             d="m 0,0 c -0.052,0 -0.105,0.008 -0.158,0.025 l -9,3.001 c -0.262,0.087 -0.404,0.37 -0.316,0.632 0.087,0.262 0.368,0.404 0.632,0.316 l 9,-2.999 C 0.42,0.887 0.562,0.604 0.474,0.342 0.404,0.133 0.209,0 0,0"
             id="path56"
             style="fill:#9aaab4;fill-opacity:1;fill-rule:nonzero;stroke:none" /></g><g
           transform="translate(12.0005,14.5)"
           id="g58"><path
             d="m 0,0 c -0.032,0 -0.065,0.003 -0.099,0.01 l -10,2 c -0.27,0.053 -0.446,0.317 -0.392,0.588 0.054,0.271 0.313,0.449 0.589,0.392 l 10,-2 C 0.368,0.937 0.544,0.673 0.49,0.402 0.442,0.164 0.233,0 0,0"
             id="path60"
             style="fill:#9aaab4;fill-opacity:1;fill-rule:nonzero;stroke:none" /></g><g
           transform="translate(26.3271,11.3779)"
           id="g62"><path
             d="m 0,0 c -0.152,0.132 -0.369,0.159 -0.551,0.069 l -4,-2 c -1.871,-0.935 -6.727,-0.947 -6.776,-0.947 l -10e-4,0 c -0.276,0 -0.499,-0.224 -0.499,-0.5 0,-0.185 0.1,-0.347 0.25,-0.433 l 0,-10e-4 10e-4,0 0,0 c 0.001,-0.001 0.001,-0.001 0.001,-0.001 0.071,-0.04 0.153,-0.063 0.24,-0.065 l 0.008,0 7,0 c 2.658,0 4.089,2.186 4.474,3.342 C 0.211,-0.344 0.153,-0.133 0,0"
             id="path64"
             style="fill:#292f33;fill-opacity:1;fill-rule:nonzero;stroke:none" /></g><g
           transform="translate(22,25)"
           id="g66"><path
             d="m 0,0 c -0.256,0 -0.512,0.098 -0.707,0.293 -0.391,0.391 -0.391,1.023 0,1.414 C 3.537,5.951 7.819,6 8,6 8.553,6 9,5.552 9,5 9,4.449 8.555,4.002 8.005,4 7.939,3.999 4.318,3.904 0.707,0.293 0.512,0.098 0.256,0 0,0"
             id="path68"
             style="fill:#292f33;fill-opacity:1;fill-rule:nonzero;stroke:none" /></g><g
           transform="translate(16,25)"
           id="g70"><path
             d="M 0,0 C -0.256,0 -0.512,0.098 -0.707,0.293 -4.333,3.918 -7.969,4 -8.005,4 -8.556,4.006 -9,4.455 -8.997,5.005 -8.994,5.556 -8.55,6 -8,6 -7.82,6 -3.537,5.951 0.707,1.707 1.098,1.316 1.098,0.684 0.707,0.293 0.512,0.098 0.256,0 0,0"
             id="path72"
             style="fill:#292f33;fill-opacity:1;fill-rule:nonzero;stroke:none" /></g></g></g></g></svg>