<svg xmlns="http://www.w3.org/2000/svg" viewBox="0 0 47.5 47.5" enable-background="new 0 0 47.5 47.5"><defs><clipPath id="a"><path d="M0 38h38V0H0v38z"/></clipPath></defs><g><g><g clip-path="url(#a)" transform="matrix(1.25 0 0 -1.25 0 47.5)"><g><path fill="#ffcc4d" d="M37 17C37 7 26 1 19 1S1 7.06 1 17c0 9.94 4 20 18 20s18-10 18-20"/></g><g><path fill="#ffcc4d" d="M36 36c1-1 0-11 0-11l-8 10s7 2 8 1"/></g><g><path fill="#ffcc4d" d="M2 36c-1-1 0-11 0-11l8 10s-7 2-8 1"/></g><g><path fill="#292f33" d="M15 22.5c0-1.93-.9-3.5-2-3.5s-2 1.57-2 3.5.9 3.5 2 3.5 2-1.57 2-3.5"/></g><g><path fill="#292f33" d="M27 22.5c0-1.93-.9-3.5-2-3.5s-2 1.57-2 3.5.9 3.5 2 3.5 2-1.57 2-3.5"/></g><g><path fill="#67757f" d="M19 17.5c3 0 3-.5 3-1.5s-1.5-3-3-3-3 2-3 3 0 1.5 3 1.5"/></g><g><path fill="#9aaab4" d="M27 16.5c-.2 0-.4.13-.47.34-.1.26.05.55.3.63l9 3c.28.1.56-.05.64-.3.1-.27-.05-.56-.3-.64l-9-3c-.07-.02-.12-.03-.17-.03"/></g><g><path fill="#9aaab4" d="M26 14.5c-.23 0-.44.16-.5.4-.05.27.13.54.4.6l10 2c.26.04.54-.13.6-.4.05-.27-.13-.54-.4-.6l-10-2c-.04 0-.07 0-.1 0"/></g><g><path fill="#9aaab4" d="M11 16.5c-.05 0-.1 0-.16.03l-9 3c-.26.08-.4.37-.3.63.07.26.35.4.62.3l9-3c.26-.07.4-.36.3-.62-.06-.2-.25-.34-.46-.34"/></g><g><path fill="#9aaab4" d="M12 14.5c-.03 0-.06 0-.1 0l-10 2c-.27.06-.44.33-.4.6.06.27.32.45.6.4l10-2c.27-.06.44-.33.4-.6-.06-.24-.27-.4-.5-.4"/></g><g><path fill="#292f33" d="M26.33 11.38c-.15.13-.37.16-.55.07l-4-2C19.9 8.5 15.05 8.5 15 8.5c-.28 0-.5-.22-.5-.5 0-.2.1-.35.25-.43.07-.05.16-.07.24-.07h7c2.66 0 4.1 2.2 4.47 3.34.07.2 0 .4-.14.54"/></g><g><path fill="#292f33" d="M22 25c-.26 0-.5.1-.7.3-.4.38-.4 1.02 0 1.4C25.53 30.96 29.8 31 30 31c.55 0 1-.45 1-1s-.45-1-1-1c-.06 0-3.68-.1-7.3-3.7-.2-.2-.44-.3-.7-.3"/></g><g><path fill="#292f33" d="M16 25c-.26 0-.5.1-.7.3C11.66 28.9 8.02 29 8 29c-.56 0-1 .46-1 1 0 .56.45 1 1 1 .18 0 4.46-.05 8.7-4.3.4-.38.4-1.02 0-1.4-.2-.2-.44-.3-.7-.3"/></g></g></g></g></svg>