<svg xmlns="http://www.w3.org/2000/svg" viewBox="0 0 47.5 47.5" enable-background="new 0 0 47.5 47.5"><defs><clipPath id="a"><path d="M0 38h38V0H0v38z"/></clipPath></defs><g><g><g clip-path="url(#a)" transform="matrix(1.25 0 0 -1.25 0 47.5)"><g><path fill="#ffcc4d" d="M36 19c0-9.4-7.6-17-17-17S2 9.6 2 19s7.6 17 17 17 17-7.6 17-17"/></g><g><path fill="#664500" d="M22 11c0-1.66-1.34-3-3-3s-3 1.34-3 3 1.34 3 3 3 3-1.34 3-3"/></g><g><path fill="#664500" d="M18.3 20.4c-.16.13-.4.14-.6 0 0 0-1.26-.9-3.7-.9-2.44 0-3.7.9-3.7.9-.18.14-.43.13-.6 0-.2-.15-.25-.4-.16-.6.06-.14 1.5-3.3 4.46-3.3s4.4 3.16 4.46 3.3c.1.2.03.45-.15.6"/></g><g><path fill="#664500" d="M28.3 20.4c-.16.13-.4.14-.6 0 0 0-1.26-.9-3.7-.9-2.44 0-3.7.9-3.7.9-.18.14-.43.13-.6 0-.2-.15-.25-.4-.16-.6.06-.14 1.5-3.3 4.46-3.3s4.4 3.16 4.46 3.3c.1.2.03.45-.15.6"/></g><g><path fill="#2a6797" d="M17 31.87h-2c-.44 0-.78.28-.78.76 0 .47.34.75.78.75h3.92c.15 0 .56-.07.56-.54 0-.23-.05-.33-.18-.5l-2.72-3.83h2.28c.43 0 .78-.26.78-.74s-.35-.76-.78-.76h-4.02c-.38 0-.7.2-.7.6 0 .18.1.36.15.46l2.7 3.8z"/></g><g><path fill="#2a6797" d="M24.5 34.7h-2.34c-.5 0-.9.3-.9.87 0 .56.4.88.9.88h4.58c.2 0 .66-.08.66-.63 0-.26-.05-.4-.2-.6L24 30.76h2.67c.5 0 .9-.32.9-.88s-.4-.88-.9-.88h-4.7c-.44 0-.82.22-.82.7 0 .2.12.42.2.53l3.15 4.46z"/></g><g><path fill="#2a6797" d="M32.5 31.3h-3c-.65 0-1.18.42-1.18 1.14s.53 1.14 1.17 1.14h5.88c.24 0 .85-.1.85-.8 0-.35-.07-.52-.27-.8l-4.1-5.7h3.43c.64 0 1.16-.43 1.16-1.15S35.94 24 35.3 24h-6.04c-.58 0-1.06.3-1.06.88 0 .3.14.56.23.7l4.07 5.73z"/></g></g></g></g></svg>