<svg xmlns="http://www.w3.org/2000/svg" viewBox="0 0 47.5 47.5" enable-background="new 0 0 47.5 47.5"><defs><clipPath id="a"><path d="M0 38h38V0H0v38z"/></clipPath></defs><g><g><g clip-path="url(#a)" transform="matrix(1.25 0 0 -1.25 0 47.5)"><g><path fill="#ffcc4d" d="M19 36C9.6 36 2 28.4 2 19 2 13.3 4.83 8.24 9.15 5.16c.1 6.08-2.1 12.9-5.82 12.9-.44 0-.8-.07-1.1-.18.3.72.9 1.12 2.07 1.12 4.04 0 6.3-8.03 5.76-14.44C12.66 2.96 15.7 2 19 2c3.3 0 6.34.95 8.94 2.56C27.4 11 29.66 19 33.7 19c1.16 0 1.78-.4 2.07-1.12-.3.1-.66.18-1.1.18-3.7 0-5.93-6.8-5.82-12.9C33.17 8.24 36 13.3 36 19c0 9.4-7.6 17-17 17"/></g><g><path fill="#bdddf4" d="M19 36C9.6 36 2 28.4 2 19c0-1.13.12-2.23.33-3.3.22.83.56 1.6 1 2.36-.44 0-.8-.07-1.1-.18.26.63.78 1 1.68 1.08C6.74 22.9 12.43 25.6 19 25.6s12.27-2.7 15.1-6.64c.9-.1 1.42-.45 1.67-1.08-.3.1-.65.18-1.1.18.44-.75.78-1.53 1-2.35.22 1.08.33 2.17.33 3.3 0 9.4-7.6 17-17 17"/></g><g><path fill="#f5f8fa" d="M8.35 25.1c-.95-3.2.1-6.3 2.35-6.97 2.25-.67 4.83 1.36 5.78 4.54.95 3.17-.1 6.3-2.35 6.96-2.25.67-4.84-1.37-5.78-4.54"/></g><g><path fill="#f5f8fa" d="M29.65 25.1c.95-3.2-.1-6.3-2.35-6.97-2.25-.67-4.83 1.36-5.78 4.54-.95 3.17.1 6.3 2.35 6.96 2.25.67 4.84-1.37 5.78-4.54"/></g><g><path fill="#664500" d="M19 19c-2.76 0-5-2.24-5-5V8c0-2.76 2.24-5 5-5s5 2.24 5 5v6c0 2.76-2.24 5-5 5"/></g><g><path fill="#fcab40" d="M3.33 18.06c-.44 0-.8-.07-1.1-.18.08.17.16.32.27.45C.74 16.17 4.7 9.05 2.77 2h6.1C10 8.57 7.7 18.06 3.33 18.06"/></g><g><path fill="#fcab40" d="M35.77 17.88c-.3.1-.66.18-1.1.18C30.3 18.06 28 8.6 29.13 2h6.1c-1.8 6.65 1.56 13.3.54 15.88"/></g></g></g></g></svg>