<svg xmlns="http://www.w3.org/2000/svg" viewBox="0 0 47.5 47.5" enable-background="new 0 0 47.5 47.5"><defs><clipPath id="a"><path d="M0 38h38V0H0v38z"/></clipPath></defs><g><g><g clip-path="url(#a)" transform="matrix(1.25 0 0 -1.25 0 47.5)"><g><path fill="#ffcc4d" d="M36 19c0-9.4-7.6-17-17-17S2 9.6 2 19s7.6 17 17 17 17-7.6 17-17"/></g><g><path fill="#ff7892" d="M34 15c0-2.76-2.24-5-5-5s-5 2.24-5 5 2.24 5 5 5 5-2.24 5-5"/></g><g><path fill="#ff7892" d="M14 15c0-2.76-2.24-5-5-5s-5 2.24-5 5 2.24 5 5 5 5-2.24 5-5"/></g><g><path fill="#f5f8fa" d="M31 20.5c0-3.04-2.46-5.5-5.5-5.5S20 17.46 20 20.5s2.46 5.5 5.5 5.5 5.5-2.46 5.5-5.5"/></g><g><path fill="#f5f8fa" d="M18 20.5c0-3.04-2.46-5.5-5.5-5.5S7 17.46 7 20.5 9.46 26 12.5 26s5.5-2.46 5.5-5.5"/></g><g><path fill="#664500" d="M15 20.5c0-1.38-1.12-2.5-2.5-2.5S10 19.12 10 20.5s1.12 2.5 2.5 2.5 2.5-1.12 2.5-2.5"/></g><g><path fill="#664500" d="M28 20.5c0-1.38-1.12-2.5-2.5-2.5S23 19.12 23 20.5s1.12 2.5 2.5 2.5 2.5-1.12 2.5-2.5"/></g><g><path fill="#664500" d="M23 7h-8c-.55 0-1 .45-1 1s.45 1 1 1h8c.55 0 1-.45 1-1s-.45-1-1-1"/></g><g><path fill="#664500" d="M31 26c-.3 0-.6.14-.8.4-2.64 3.52-6.06 3.6-6.2 3.6-.56 0-1 .46-1 1 0 .56.45 1 1 1 .18 0 4.54-.05 7.8-4.4.33-.44.24-1.07-.2-1.4-.18-.13-.4-.2-.6-.2"/></g><g><path fill="#664500" d="M7 26c-.2 0-.42.07-.6.2-.44.33-.53.96-.2 1.4C9.46 31.95 13.82 32 14 32c.55 0 1-.45 1-1s-.44-1-1-1c-.15 0-3.56-.1-6.2-3.6-.2-.26-.5-.4-.8-.4"/></g></g></g></g></svg>