<?xml version="1.0" encoding="UTF-8" standalone="no"?><svg xmlns:dc="http://purl.org/dc/elements/1.1/" xmlns:cc="http://creativecommons.org/ns#" xmlns:rdf="http://www.w3.org/1999/02/22-rdf-syntax-ns#" xmlns:svg="http://www.w3.org/2000/svg" xmlns="http://www.w3.org/2000/svg" viewBox="0 0 47.5 47.5" style="enable-background:new 0 0 47.5 47.5;" xml:space="preserve" version="1.1" id="svg2"><metadata id="metadata8"><rdf:RDF><cc:Work rdf:about=""><dc:format>image/svg+xml</dc:format><dc:type rdf:resource="http://purl.org/dc/dcmitype/StillImage"/></cc:Work></rdf:RDF></metadata><defs id="defs6"><clipPath id="clipPath16" clipPathUnits="userSpaceOnUse"><path id="path18" d="M 0,38 38,38 38,0 0,0 0,38 Z"/></clipPath></defs><g transform="matrix(1.25,0,0,-1.25,0,47.5)" id="g10"><g id="g12"><g clip-path="url(#clipPath16)" id="g14"><g transform="translate(36,19)" id="g20"><path id="path22" style="fill:#ffcc4d;fill-opacity:1;fill-rule:nonzero;stroke:none" d="m 0,0 c 0,-9.389 -7.611,-17 -17,-17 -9.388,0 -17,7.611 -17,17 0,9.388 7.612,17 17,17 C -7.611,17 0,9.388 0,0"/></g><g transform="translate(15,20.5)" id="g24"><path id="path26" style="fill:#664500;fill-opacity:1;fill-rule:nonzero;stroke:none" d="M 0,0 C 0,-1.934 -1.119,-3.5 -2.5,-3.5 -3.881,-3.5 -5,-1.934 -5,0 -5,1.933 -3.881,3.5 -2.5,3.5 -1.119,3.5 0,1.933 0,0"/></g><g transform="translate(28,20.5)" id="g28"><path id="path30" style="fill:#664500;fill-opacity:1;fill-rule:nonzero;stroke:none" d="M 0,0 C 0,-1.934 -1.119,-3.5 -2.5,-3.5 -3.881,-3.5 -5,-1.934 -5,0 -5,1.933 -3.881,3.5 -2.5,3.5 -1.119,3.5 0,1.933 0,0"/></g><g transform="translate(24.4854,9.1211)" id="g32"><path id="path34" style="fill:#664500;fill-opacity:1;fill-rule:nonzero;stroke:none" d="m 0,0 c -0.012,0.044 -1.146,4.379 -5.485,4.379 -4.34,0 -5.474,-4.335 -5.485,-4.379 -0.053,-0.213 0.044,-0.431 0.232,-0.544 0.187,-0.112 0.433,-0.086 0.596,0.06 0.01,0.007 1.014,0.863 4.657,0.863 3.589,0 4.617,-0.83 4.656,-0.863 0.095,-0.09 0.219,-0.137 0.344,-0.137 0.084,0 0.169,0.021 0.246,0.064 C -0.043,-0.445 0.055,-0.218 0,0"/></g><g transform="translate(11,8)" id="g36"><path id="path38" style="fill:#5dadec;fill-opacity:1;fill-rule:nonzero;stroke:none" d="m 0,0 c 0,-2.762 -2.238,-5 -5,-5 -2.762,0 -5,2.238 -5,5 0,2.762 4,10 5,10 1,0 5,-7.238 5,-10"/></g><g transform="translate(19,36)" id="g40"><path id="path42" style="fill:#bdddf4;fill-opacity:1;fill-rule:nonzero;stroke:none" d="m 0,0 c -9.388,0 -17,-7.612 -17,-17 0,-0.539 0.03,-1.07 0.08,-1.596 2.5,5.01 9.123,8.596 16.92,8.596 7.798,0 14.42,-3.586 16.92,-8.596 C 16.97,-18.07 17,-17.539 17,-17 17,-7.612 9.389,0 0,0"/></g><g transform="translate(31,25)" id="g44"><path id="path46" style="fill:#664500;fill-opacity:1;fill-rule:nonzero;stroke:none" d="m 0,0 c -5.554,0 -7.802,4.367 -7.895,4.553 -0.247,0.494 -0.046,1.095 0.448,1.342 0.492,0.246 1.092,0.047 1.34,-0.444 C -6.033,5.306 -4.287,2 0,2 0.553,2 1,1.552 1,1 1,0.448 0.553,0 0,0"/></g><g transform="translate(7,25)" id="g48"><path id="path50" style="fill:#664500;fill-opacity:1;fill-rule:nonzero;stroke:none" d="m 0,0 c -0.552,0 -1,0.448 -1,1 0,0.552 0.448,1 1,1 5.083,0 5.996,3.12 6.033,3.253 0.145,0.528 0.69,0.848 1.219,0.709 C 7.782,5.823 8.103,5.289 7.97,4.757 7.921,4.563 6.704,0 0,0"/></g></g></g></g></svg>
