<?xml version="1.0" encoding="UTF-8" standalone="no"?><svg xmlns:svg="http://www.w3.org/2000/svg" xmlns="http://www.w3.org/2000/svg" version="1.1" viewBox="0 0 47.5 47.5" style="enable-background:new 0 0 47.5 47.5;" id="svg2" xml:space="preserve"><defs id="defs6"><clipPath id="clipPath18"><path d="M 0,38 38,38 38,0 0,0 0,38 z" id="path20"/></clipPath></defs><g transform="matrix(1.25,0,0,-1.25,0,47.5)" id="g12"><g id="g14"><g clip-path="url(#clipPath18)" id="g16"><g transform="translate(37,19)" id="g22"><path d="m 0,0 c 0,-9.941 -8.059,-18 -18,-18 -9.94,0 -18,8.059 -18,18 0,9.94 8.06,18 18,18 C -8.059,18 0,9.94 0,0" id="path24" style="fill:#ffcc4d;fill-opacity:1;fill-rule:nonzero;stroke:none"/></g><g transform="translate(22,11)" id="g26"><path d="m 0,0 c 0,-1.657 -1.343,-3 -3,-3 -1.657,0 -3,1.343 -3,3 0,1.656 1.343,3 3,3 1.657,0 3,-1.344 3,-3" id="path28" style="fill:#664500;fill-opacity:1;fill-rule:nonzero;stroke:none"/></g><g transform="translate(18.3125,20.3882)" id="g30"><path d="m 0,0 c -0.176,0.143 -0.427,0.147 -0.61,0.014 -0.013,-0.01 -1.261,-0.902 -3.702,-0.902 -2.441,0 -3.69,0.892 -3.701,0.9 -0.182,0.136 -0.434,0.133 -0.611,-0.009 -0.178,-0.142 -0.238,-0.386 -0.146,-0.594 0.061,-0.135 1.5,-3.297 4.458,-3.297 2.958,0 4.396,3.162 4.457,3.297 C 0.236,-0.384 0.176,-0.142 0,0" id="path32" style="fill:#664500;fill-opacity:1;fill-rule:nonzero;stroke:none"/></g><g transform="translate(28.3125,20.3882)" id="g34"><path d="m 0,0 c -0.176,0.143 -0.426,0.148 -0.61,0.014 -0.012,-0.01 -1.261,-0.902 -3.702,-0.902 -2.441,0 -3.691,0.892 -3.701,0.9 -0.182,0.136 -0.433,0.133 -0.611,-0.009 -0.178,-0.142 -0.238,-0.386 -0.146,-0.594 0.06,-0.135 1.5,-3.297 4.458,-3.297 2.958,0 4.397,3.162 4.457,3.297 C 0.236,-0.384 0.177,-0.142 0,0" id="path36" style="fill:#664500;fill-opacity:1;fill-rule:nonzero;stroke:none"/></g><g transform="translate(16.9985,31.8691)" id="g38"><path d="m 0,0 -2.003,0 c -0.432,0 -0.78,0.276 -0.78,0.756 0,0.479 0.348,0.755 0.78,0.755 l 3.922,0 c 0.156,0 0.563,-0.072 0.563,-0.539 0,-0.228 -0.047,-0.336 -0.179,-0.516 l -2.723,-3.814 2.279,0 c 0.432,0 0.779,-0.276 0.779,-0.756 0,-0.479 -0.347,-0.755 -0.779,-0.755 l -4.018,0 c -0.384,0 -0.708,0.192 -0.708,0.588 0,0.192 0.096,0.371 0.156,0.468 L 0,0 z" id="path40" style="fill:#2a6797;fill-opacity:1;fill-rule:nonzero;stroke:none"/></g><g transform="translate(24.502,34.687)" id="g42"><path d="m 0,0 -2.34,0 c -0.504,0 -0.91,0.322 -0.91,0.882 0,0.561 0.406,0.883 0.91,0.883 l 4.58,0 C 2.424,1.765 2.9,1.681 2.9,1.135 2.9,0.869 2.844,0.743 2.689,0.532 l -3.179,-4.454 2.662,0 c 0.504,0 0.91,-0.322 0.91,-0.883 0,-0.56 -0.406,-0.882 -0.91,-0.882 l -4.693,0 c -0.449,0 -0.827,0.224 -0.827,0.687 0,0.224 0.112,0.434 0.182,0.545 L 0,0 z" id="path44" style="fill:#2a6797;fill-opacity:1;fill-rule:nonzero;stroke:none"/></g><g transform="translate(32.502,31.3101)" id="g46"><path d="m 0,0 -3.008,0 c -0.648,0 -1.17,0.414 -1.17,1.134 0,0.72 0.522,1.135 1.17,1.135 l 5.889,0 c 0.234,0 0.846,-0.108 0.846,-0.811 0,-0.341 -0.073,-0.503 -0.27,-0.774 l -4.088,-5.726 3.422,0 c 0.647,0 1.17,-0.414 1.17,-1.134 0,-0.72 -0.523,-1.134 -1.17,-1.134 l -6.033,0 c -0.576,0 -1.062,0.288 -1.062,0.882 0,0.288 0.144,0.558 0.234,0.702 L 0,0 z" id="path48" style="fill:#2a6797;fill-opacity:1;fill-rule:nonzero;stroke:none"/></g></g></g></g></svg>
