<?xml version="1.0" encoding="UTF-8" standalone="no"?><svg xmlns:svg="http://www.w3.org/2000/svg" xmlns="http://www.w3.org/2000/svg" version="1.1" viewBox="0 0 47.5 47.5" style="enable-background:new 0 0 47.5 47.5;" id="svg2" xml:space="preserve"><defs id="defs6"><clipPath id="clipPath18"><path d="M 0,38 38,38 38,0 0,0 0,38 z" id="path20"/></clipPath></defs><g transform="matrix(1.25,0,0,-1.25,0,47.5)" id="g12"><g id="g14"><g clip-path="url(#clipPath18)" id="g16"><g transform="translate(19,37)" id="g22"><path d="m 0,0 c -9.94,0 -18,-8.06 -18,-18 0,-6.051 2.996,-11.392 7.574,-14.655 0.104,6.438 -2.237,13.655 -6.17,13.655 -0.464,0 -0.84,-0.066 -1.153,-0.183 0.303,0.757 0.96,1.183 2.189,1.183 4.27,0 6.666,-8.507 6.093,-15.288 C -6.714,-34.997 -3.478,-36 0,-36 c 3.479,0 6.716,1.004 9.47,2.713 -0.577,6.807 1.818,15.287 6.091,15.287 1.233,0 1.891,-0.426 2.192,-1.183 -0.314,0.117 -0.691,0.183 -1.157,0.183 -3.938,0 -6.279,-7.199 -6.17,-13.655 C 15.005,-29.392 18,-24.051 18,-18 18,-8.06 9.941,0 0,0" id="path24" style="fill:#ffcc4d;fill-opacity:1;fill-rule:nonzero;stroke:none"/></g><g transform="translate(19,37)" id="g26"><path d="m 0,0 c -9.94,0 -18,-8.06 -18,-18 0,-1.192 0.123,-2.356 0.344,-3.484 0.234,0.863 0.6,1.691 1.058,2.484 -0.463,0 -0.838,-0.066 -1.151,-0.183 0.264,0.66 0.823,1.048 1.769,1.142 2.992,4.179 9.017,7.041 15.98,7.041 6.964,0 12.988,-2.861 15.98,-7.04 0.951,-0.094 1.51,-0.482 1.773,-1.143 -0.313,0.117 -0.69,0.183 -1.154,0.183 0.458,-0.793 0.823,-1.621 1.057,-2.484 C 17.878,-20.356 18,-19.192 18,-18 18,-8.06 9.941,0 0,0" id="path28" style="fill:#bdddf4;fill-opacity:1;fill-rule:nonzero;stroke:none"/></g><g transform="translate(8.3472,25.0898)" id="g30"><path d="M 0,0 C -0.946,-3.176 0.107,-6.293 2.353,-6.962 4.599,-7.632 7.187,-5.6 8.132,-2.424 9.078,0.751 8.025,3.869 5.781,4.538 3.535,5.207 0.947,3.175 0,0" id="path32" style="fill:#f5f8fa;fill-opacity:1;fill-rule:nonzero;stroke:none"/></g><g transform="translate(29.6523,25.0898)" id="g34"><path d="m 0,0 c 0.946,-3.176 -0.107,-6.293 -2.353,-6.962 -2.246,-0.67 -4.834,1.362 -5.779,4.538 -0.946,3.175 0.107,6.293 2.351,6.962 C -3.535,5.207 -0.947,3.175 0,0" id="path36" style="fill:#f5f8fa;fill-opacity:1;fill-rule:nonzero;stroke:none"/></g><g transform="translate(19,19)" id="g38"><path d="m 0,0 c -2.757,0 -5,-2.243 -5,-5 l 0,-6 c 0,-2.757 2.243,-5 5,-5 2.757,0 5,2.243 5,5 l 0,6 C 5,-2.243 2.757,0 0,0" id="path40" style="fill:#664500;fill-opacity:1;fill-rule:nonzero;stroke:none"/></g><g transform="translate(2.4043,18)" id="g42"><path d="m 0,0 c -0.464,0 -0.84,-0.066 -1.153,-0.183 0.072,0.179 0.167,0.336 0.281,0.477 C -2.734,-1.998 1.444,-9.54 -0.586,-17 l 6.461,0 C 7.063,-10.04 4.639,0 0,0" id="path44" style="fill:#fcab40;fill-opacity:1;fill-rule:nonzero;stroke:none"/></g><g transform="translate(36.7529,17.8174)" id="g46"><path d="m 0,0 c -0.313,0.116 -0.69,0.183 -1.157,0.183 -4.641,0 -7.066,-10.002 -5.873,-17 l 6.46,0 C -2.476,-9.772 1.086,-2.729 0,0" id="path48" style="fill:#fcab40;fill-opacity:1;fill-rule:nonzero;stroke:none"/></g></g></g></g></svg>
