<svg xmlns="http://www.w3.org/2000/svg" viewBox="0 0 47.5 47.5" enable-background="new 0 0 47.5 47.5"><defs><clipPath id="a"><path d="M0 38h38V0H0v38z"/></clipPath></defs><g><g><g clip-path="url(#a)" transform="matrix(1.25 0 0 -1.25 0 47.5)"><g><path fill="#ffcc4d" d="M35.96 25.04L36 25s1 10 0 11c-.9.9-6.77-.66-7.82-.95C25.75 36.28 22.73 37 19 37c-3.73 0-6.74-.72-9.17-1.95C8.8 35.33 2.9 36.9 2 36c-1-1 0-11 0-11l.05.06C1.3 22.5 1 19.76 1 17 1 7.06 12 1 19 1s18 6 18 16c0 2.75-.3 5.5-1.04 8.04"/></g><g><path fill="#292f33" d="M32.4 13.3c-.12.16-.33.24-.54.18-.07-.02-7-1.98-12.86-1.98-5.86 0-12.8 1.96-12.86 1.98-.2.06-.43-.02-.55-.2-.13-.18-.13-.42 0-.6.3-.36 7.23-9.18 13.4-9.18 7.18 0 13.17 8.85 13.42 9.22.1.18.1.4-.02.57"/></g><g><path fill="#f5f8fa" d="M9 12s5-2 10-2 10 2 10 2 0-3-1-3-2 1-2 1-4-2-7-2-7 2-7 2-1-1-2-1-1 3-1 3"/></g><g><path fill="#67757f" d="M19 17.5c3 0 3-.5 3-1.5s-1.5-3-3-3-3 2-3 3 0 1.5 3 1.5"/></g><g><path fill="#9aaab4" d="M27 16.5c-.2 0-.4.13-.47.34-.1.26.05.55.3.63l9 3c.28.1.56-.05.64-.3.1-.27-.05-.56-.3-.64l-9-3c-.07-.02-.12-.03-.17-.03"/></g><g><path fill="#9aaab4" d="M26 14.5c-.23 0-.44.16-.5.4-.05.27.13.54.4.6l10 2c.26.04.54-.13.6-.4.05-.27-.13-.54-.4-.6l-10-2c-.04 0-.07 0-.1 0"/></g><g><path fill="#9aaab4" d="M11 16.5c-.05 0-.1 0-.16.03l-9 3c-.26.08-.4.37-.3.63.07.26.35.4.62.3l9-3c.26-.07.4-.36.3-.62-.06-.2-.25-.34-.46-.34"/></g><g><path fill="#9aaab4" d="M12 14.5c-.03 0-.06 0-.1 0l-10 2c-.27.06-.44.33-.4.6.06.27.32.45.6.4l10-2c.27-.06.44-.33.4-.6-.06-.24-.27-.4-.5-.4"/></g><g><path fill="#292f33" d="M29.42 19.28c-.07.1-1.52 2.22-4.42 2.22s-4.36-2.13-4.42-2.22c-.13-.2-.1-.47.08-.64.17-.17.44-.18.64-.04 0 0 1.26.9 3.7.9 2.43 0 3.67-.88 3.7-.9.1-.07.2-.1.3-.1.12 0 .25.05.34.14.18.16.2.43.08.64"/></g><g><path fill="#292f33" d="M17.42 19.28c-.07.1-1.52 2.22-4.42 2.22s-4.36-2.13-4.42-2.22c-.13-.2-.1-.47.07-.64.18-.17.45-.18.65-.04 0 0 1.26.9 3.7.9 2.43 0 3.67-.88 3.7-.9.1-.07.2-.1.3-.1.12 0 .25.05.34.14.18.16.2.43.08.64"/></g><g><path fill="#292f33" d="M32 21c-.3 0-.6.14-.8.4-2.64 3.52-6.06 3.6-6.2 3.6-.56 0-1 .46-1 1 0 .56.45 1 1 1 .18 0 4.54-.05 7.8-4.4.33-.44.24-1.07-.2-1.4-.18-.13-.4-.2-.6-.2"/></g><g><path fill="#292f33" d="M6 21c-.2 0-.42.07-.6.2-.44.33-.53.96-.2 1.4C8.46 26.95 12.82 27 13 27c.55 0 1-.45 1-1s-.44-1-1-1c-.15 0-3.56-.1-6.2-3.6-.2-.26-.5-.4-.8-.4"/></g></g></g></g></svg>