<?xml version="1.0" encoding="UTF-8" standalone="no"?><svg xmlns:svg="http://www.w3.org/2000/svg" xmlns="http://www.w3.org/2000/svg" version="1.1" viewBox="0 0 47.5 47.5" style="enable-background:new 0 0 47.5 47.5;" id="svg2" xml:space="preserve"><defs id="defs6"><clipPath id="clipPath18"><path d="M 0,38 38,38 38,0 0,0 0,38 z" id="path20"/></clipPath></defs><g transform="matrix(1.25,0,0,-1.25,0,47.5)" id="g12"><g id="g14"><g clip-path="url(#clipPath18)" id="g16"><g transform="translate(37,19)" id="g22"><path d="m 0,0 c 0,-9.941 -8.059,-18 -18,-18 -9.94,0 -18,8.059 -18,18 0,9.94 8.06,18 18,18 C -8.059,18 0,9.94 0,0" id="path24" style="fill:#ffcc4d;fill-opacity:1;fill-rule:nonzero;stroke:none"/></g><g transform="translate(8.001,22)" id="g26"><path d="M 0,0 C -0.323,0 -0.64,0.156 -0.833,0.445 -1.139,0.905 -1.015,1.526 -0.556,1.832 -0.423,1.92 2.745,4 6.999,4 c 0.552,0 1,-0.448 1,-1 0,-0.552 -0.448,-1 -1,-1 C 3.344,2 0.581,0.186 0.554,0.168 0.383,0.054 0.19,0 0,0" id="path28" style="fill:#664500;fill-opacity:1;fill-rule:nonzero;stroke:none"/></g><g transform="translate(29.999,22)" id="g30"><path d="M 0,0 C -0.189,0 -0.382,0.054 -0.552,0.167 -0.58,0.185 -3.371,2 -6.999,2 c -0.553,0 -1,0.448 -1,1 0,0.552 0.447,1 1,1 C -2.745,4 0.423,1.92 0.556,1.832 1.016,1.526 1.14,0.905 0.833,0.445 0.641,0.156 0.323,0 0,0" id="path32" style="fill:#664500;fill-opacity:1;fill-rule:nonzero;stroke:none"/></g><g transform="translate(28,14.9092)" id="g34"><path d="M 0,0 9,4.091 C 9,4.75 8.959,5.4 8.891,6.041 L 0,2 0,3.091 c 0,1.104 -0.896,2 -2,2 l -14,0 c -1.104,0 -2,-0.896 -2,-2 L -18,2 -26.89,6.041 C -26.959,5.4 -27,4.75 -27,4.091 L -18,0 l 0,-4.546 -7.453,1.356 c 0.341,-0.77 0.741,-1.507 1.182,-2.215 l 6.271,-1.141 0,-1.363 c 0,-1.105 0.896,-2 2,-2 l 14,0 c 1.104,0 2,0.895 2,2 l 0,1.363 6.271,1.141 c 0.442,0.708 0.841,1.445 1.182,2.215 L 0,-4.546 0,0 z" id="path36" style="fill:#f5f8fa;fill-opacity:1;fill-rule:nonzero;stroke:none"/></g></g></g></g></svg>
