<svg xmlns="http://www.w3.org/2000/svg" viewBox="0 0 47.5 47.5" enable-background="new 0 0 47.5 47.5"><defs><clipPath id="a"><path d="M0 38h38V0H0v38z"/></clipPath></defs><g><g><g clip-path="url(#a)" transform="matrix(1.25 0 0 -1.25 0 47.5)"><g><path fill="#2a6797" d="M31 15c-3 0-7-8-7-10 0-3 2-4 2-4h11v10s-4 4-6 4"/></g><g><path fill="#2a6797" d="M7 15c3 0 7-8 7-10 0-3-2-4-2-4H1v10s4 4 6 4"/></g><g><path fill="#c1694f" d="M26 26c0 1.1-.9 2-2 2s-2-.9-2-2v7.28c.6.34 1 .98 1 1.72 0 1.1-.9 2-2 2s-2-.9-2-2c0 1.1-.9 2-2 2s-2-.9-2-2c0-.74.4-1.38 1-1.72V26c0 1.1-.9 2-2 2s-2-.9-2-2l-1-11.53V10h5V9h6v1h5v4.47L26 26z"/></g><g><path fill="#d79e84" d="M25 21l-1 12c0 1.1-.9 2-2 2s-2-.9-2-2V13c0-6 6-9 6-9s6 4 6 9l-7 8z"/></g><g><path fill="#d79e84" d="M16 35c-1.1 0-2-.9-2-2l-1-12-7-8c0-5 6-9 6-9s6 3 6 9v20c0 1.1-.9 2-2 2"/></g><g><path fill="#fdcb58" d="M12 30l-6 3-1-2 6-2 1 1z"/></g><g><path fill="#fdcb58" d="M26 30l6 3 1-2-6-2-1 1z"/></g><g><path fill="#fdcb58" d="M10 26l-6 1-1-2h7v1z"/></g><g><path fill="#fdcb58" d="M28 26l6 1 1-2h-7v1z"/></g></g></g></g></svg>