<?xml version="1.0" encoding="UTF-8" standalone="no"?><svg xmlns:svg="http://www.w3.org/2000/svg" xmlns="http://www.w3.org/2000/svg" version="1.1" viewBox="0 0 47.5 47.5" style="enable-background:new 0 0 47.5 47.5;" id="svg2" xml:space="preserve"><defs id="defs6"><clipPath id="clipPath18"><path d="M 0,38 38,38 38,0 0,0 0,38 z" id="path20"/></clipPath></defs><g transform="matrix(1.25,0,0,-1.25,0,47.5)" id="g12"><g id="g14"><g clip-path="url(#clipPath18)" id="g16"><g transform="translate(20,33)" id="g22"><path d="M 0,0 C -1.656,0 -3.221,-0.376 -4.629,-1.032 -9.305,-1.356 -13,-5.242 -13,-10 c 0,-3.218 1.694,-6.032 4.233,-7.624 C -6.759,-20.277 -3.584,-22 0,-22 c 6.075,0 11,4.925 11,11 C 11,-4.925 6.075,0 0,0" id="path24" style="fill:#292f33;fill-opacity:1;fill-rule:nonzero;stroke:none"/></g><g transform="translate(28,15)" id="g26"><path d="m 0,0 -1,0 -16,0 -1,0 c 0,0 -9,0 -9,-7 0,-3.156 4,-7 4,-7 l 1,0 1,0 4,0 16,0 4,0 1,0 1,0 c 0,0 4,3.844 4,7 0,7 -9,7 -9,7" id="path28" style="fill:#4289c1;fill-opacity:1;fill-rule:nonzero;stroke:none"/></g><g transform="translate(22,9)" id="g30"><path d="m 0,0 c 0,-1.657 -1.343,-3 -3,-3 -1.657,0 -3,1.343 -3,3 0,1.657 1.343,3 3,3 1.657,0 3,-1.343 3,-3" id="path32" style="fill:#bf6952;fill-opacity:1;fill-rule:nonzero;stroke:none"/></g><g transform="translate(15,26)" id="g34"><path d="M 0,0 C 0,0 -0.003,-5.308 -5,-5.936 L -5,-10 c 0,-4.971 4.029,-9 9,-9 4.971,0 9,4.029 9,9 l 0,3.019 C 1.89,-6.605 0,0 0,0" id="path36" style="fill:#d79e84;fill-opacity:1;fill-rule:nonzero;stroke:none"/></g><g transform="translate(18,3)" id="g38"><path d="m 0,0 -5,1 -2,1 -3,0 -1,-4 5,0 6,0 c 1,0 1,1 1,1 0,0.553 -1,1 -1,1" id="path40" style="fill:#d79e84;fill-opacity:1;fill-rule:nonzero;stroke:none"/></g><g transform="translate(27,5)" id="g42"><path d="m 0,0 -2,-1 -5,-1 c 0,0 -1,-0.447 -1,-1 0,0 0,-1 1,-1 l 6,0 5,0 -1,4 -3,0 z" id="path44" style="fill:#d79e84;fill-opacity:1;fill-rule:nonzero;stroke:none"/></g><g transform="translate(23,15)" id="g46"><path d="m 0,0 c -0.553,0 -1,0.447 -1,1 l 0,1 C -1,2.553 -0.553,3 0,3 0.553,3 1,2.553 1,2 L 1,1 C 1,0.447 0.553,0 0,0" id="path48" style="fill:#292f33;fill-opacity:1;fill-rule:nonzero;stroke:none"/></g><g transform="translate(15,15)" id="g50"><path d="m 0,0 c -0.552,0 -1,0.447 -1,1 l 0,1 C -1,2.553 -0.552,3 0,3 0.552,3 1,2.553 1,2 L 1,1 C 1,0.447 0.552,0 0,0" id="path52" style="fill:#292f33;fill-opacity:1;fill-rule:nonzero;stroke:none"/></g><g transform="translate(20,10.5)" id="g54"><path d="M 0,0 -2,0 C -2.276,0 -2.5,0.224 -2.5,0.5 -2.5,0.776 -2.276,1 -2,1 L 0,1 C 0.276,1 0.5,0.776 0.5,0.5 0.5,0.224 0.276,0 0,0" id="path56" style="fill:#bf6952;fill-opacity:1;fill-rule:nonzero;stroke:none"/></g><g transform="translate(6.999,29)" id="g58"><path d="m 0,0 c -0.208,0 -0.419,0.065 -0.599,0.2 l -4,3 c -0.442,0.331 -0.531,0.958 -0.2,1.4 0.332,0.442 0.958,0.531 1.4,0.2 l 4,-3 C 1.043,1.469 1.132,0.842 0.801,0.4 0.604,0.138 0.304,0 0,0" id="path60" style="fill:#5dadec;fill-opacity:1;fill-rule:nonzero;stroke:none"/></g><g transform="translate(10.001,32)" id="g62"><path d="m 0,0 c -0.323,0 -0.64,0.156 -0.833,0.445 l -2,3 c -0.306,0.46 -0.182,1.081 0.277,1.387 0.46,0.307 1.08,0.182 1.387,-0.277 l 2,-3 C 1.137,1.095 1.013,0.474 0.554,0.168 0.383,0.054 0.19,0 0,0" id="path64" style="fill:#5dadec;fill-opacity:1;fill-rule:nonzero;stroke:none"/></g><g transform="translate(32.001,29)" id="g66"><path d="m 0,0 c -0.305,0 -0.604,0.138 -0.801,0.4 -0.332,0.442 -0.242,1.069 0.2,1.4 l 4,3 C 3.84,5.133 4.468,5.042 4.799,4.6 5.131,4.158 5.041,3.531 4.599,3.2 l -4,-3 C 0.419,0.065 0.209,0 0,0" id="path68" style="fill:#5dadec;fill-opacity:1;fill-rule:nonzero;stroke:none"/></g><g transform="translate(28.999,32)" id="g70"><path d="m 0,0 c -0.19,0 -0.383,0.054 -0.554,0.168 -0.46,0.306 -0.584,0.927 -0.277,1.387 l 2,3 C 1.475,5.014 2.094,5.139 2.556,4.832 3.016,4.526 3.14,3.905 2.833,3.445 l -2,-3 C 0.641,0.156 0.323,0 0,0" id="path72" style="fill:#5dadec;fill-opacity:1;fill-rule:nonzero;stroke:none"/></g></g></g></g></svg>
