<?xml version="1.0" encoding="UTF-8" standalone="no"?><svg xmlns:dc="http://purl.org/dc/elements/1.1/" xmlns:cc="http://creativecommons.org/ns#" xmlns:rdf="http://www.w3.org/1999/02/22-rdf-syntax-ns#" xmlns:svg="http://www.w3.org/2000/svg" xmlns="http://www.w3.org/2000/svg" viewBox="0 0 47.5 47.5" style="enable-background:new 0 0 47.5 47.5;" xml:space="preserve" version="1.1" id="svg2"><metadata id="metadata8"><rdf:RDF><cc:Work rdf:about=""><dc:format>image/svg+xml</dc:format><dc:type rdf:resource="http://purl.org/dc/dcmitype/StillImage"/></cc:Work></rdf:RDF></metadata><defs id="defs6"><clipPath id="clipPath16" clipPathUnits="userSpaceOnUse"><path id="path18" d="M 0,38 38,38 38,0 0,0 0,38 Z"/></clipPath><clipPath id="clipPath56" clipPathUnits="userSpaceOnUse"><path id="path58" d="M 5,16 14,9 10,1 28,1 c 0,0 4,9 0,9 l 0,0 -23,12 0,-6 z"/></clipPath><clipPath id="clipPath68" clipPathUnits="userSpaceOnUse"><path id="path70" d="M 0,38 38,38 38,0 0,0 0,38 Z"/></clipPath></defs><g transform="matrix(1.25,0,0,-1.25,0,47.5)" id="g10"><g id="g12"><g clip-path="url(#clipPath16)" id="g14"><g transform="translate(20,37)" id="g20"><path id="path22" style="fill:#642116;fill-opacity:1;fill-rule:nonzero;stroke:none" d="M 0,0 C -1.721,0 -3.343,-0.406 -4.793,-1.111 -5.186,-1.042 -5.588,-1 -6,-1 c -3.866,0 -7,-3.134 -7,-7 l 0,-12 0.018,0 c 0.183,-6.467 5.471,-11.656 11.982,-11.656 6.511,0 11.799,5.189 11.982,11.656 l 0.018,0 0,9 C 11,-4.925 6.075,0 0,0"/></g><g transform="translate(28,10)" id="g24"><path id="path26" style="fill:#9268ca;fill-opacity:1;fill-rule:nonzero;stroke:none" d="m 0,0 -1,0 -16,0 -1,0 c -2.209,0 -4,-1.791 -4,-4 l 0,-5 5,0 16,0 5,0 0,5 C 4,-1.791 2.209,0 0,0"/></g><g transform="translate(15,32)" id="g28"><path id="path30" style="fill:#d79e84;fill-opacity:1;fill-rule:nonzero;stroke:none" d="M 0,0 C 0,0 -0.003,-5.308 -5,-5.936 L -5,-12 c 0,-4.971 4.029,-9 9,-9 4.971,0 9,4.029 9,9 l 0,5.019 C 1.89,-6.605 0,0 0,0"/></g><g transform="translate(20,15)" id="g32"><path id="path34" style="fill:#bb1a34;fill-opacity:1;fill-rule:nonzero;stroke:none" d="m 0,0 c 0,-0.553 -0.447,-1 -1,-1 -0.553,0 -1,0.447 -1,1 0,0.553 0.447,1 1,1 0.553,0 1,-0.447 1,-1"/></g><g transform="translate(28,1)" id="g36"><path id="path38" style="fill:#7450a8;fill-opacity:1;fill-rule:nonzero;stroke:none" d="M 0,0 -15,9 -17,8 -3,0 0,0 Z"/></g><g transform="translate(3.6553,22.9839)" id="g40"><path id="path42" style="fill:#bf6952;fill-opacity:1;fill-rule:nonzero;stroke:none" d="m 0,0 -0.075,0.363 0,0.653 C -0.149,1.016 -0.219,0.987 -0.292,0.971 -0.567,1.416 -1.09,1.669 -1.632,1.557 -2.325,1.414 -2.771,0.735 -2.629,0.041 l 0.554,-2.675 0,-2.35 c 0,-1.104 0.895,-2 2,-2 l 1,0 1,0 0,5 c 0,0 -0.856,1.895 -1.925,1.984"/></g><g transform="translate(2.5801,29)" id="g44"><path id="path46" style="fill:#d79e84;fill-opacity:1;fill-rule:nonzero;stroke:none" d="m 0,0 c -0.552,0 -1,-0.447 -1,-1 l 1,-6 0,-5 c 0,-0.553 0.448,-1 1,-1 l 2,0 0,2 L 2.42,-7 1,-1 C 1,-1 0.553,0 0,0"/></g><g transform="translate(28,10)" id="g48"><path id="path50" style="fill:#9268ca;fill-opacity:1;fill-rule:nonzero;stroke:none" d="M 0,0 C 4,0 0,-9 0,-9 L -23,6 -23,12 0,0 Z"/></g></g></g><g id="g52"><g clip-path="url(#clipPath56)" id="g54"><g transform="translate(23,13)" id="g60"><path id="path62" style="fill:#7450a8;fill-opacity:1;fill-rule:nonzero;stroke:none" d="m 0,0 -4,3 -8,-4 3,-2 9,3 z m 6,-2 -16,-10 -3,0 17,11 2,-1 z"/></g></g></g><g id="g64"><g clip-path="url(#clipPath68)" id="g66"><g transform="translate(35.9766,24.541)" id="g72"><path id="path74" style="fill:#bf6952;fill-opacity:1;fill-rule:nonzero;stroke:none" d="m 0,0 c -0.541,0.112 -1.064,-0.142 -1.341,-0.586 -0.071,0.016 -0.141,0.045 -0.216,0.045 l 0,-0.653 -0.075,-0.363 c -1.069,-0.089 -1.925,-1.984 -1.925,-1.984 l 0,-5 1,0 1,0 c 1.105,0 2,0.895 2,2 l 0,2.35 0.554,2.674 C 1.139,-0.822 0.693,-0.144 0,0"/></g><g transform="translate(35.4199,29)" id="g76"><path id="path78" style="fill:#d79e84;fill-opacity:1;fill-rule:nonzero;stroke:none" d="m 0,0 c 0.552,0 1,-0.447 1,-1 l -1,-6 0,-5 c 0,-0.553 -0.448,-1 -1,-1 l -2,0 0,2 0.58,4 1.42,6 c 0,0 0.447,1 1,1"/></g><g transform="translate(10,10)" id="g80"><path id="path82" style="fill:#9268ca;fill-opacity:1;fill-rule:nonzero;stroke:none" d="M 0,0 0,-9 23,6 23,12 0,0 Z"/></g><g transform="translate(20,17.5)" id="g84"><path id="path86" style="fill:#bf6952;fill-opacity:1;fill-rule:nonzero;stroke:none" d="M 0,0 -2,0 C -2.276,0 -2.5,0.224 -2.5,0.5 -2.5,0.776 -2.276,1 -2,1 L 0,1 C 0.276,1 0.5,0.776 0.5,0.5 0.5,0.224 0.276,0 0,0"/></g><g transform="translate(15,21)" id="g88"><path id="path90" style="fill:#292f33;fill-opacity:1;fill-rule:nonzero;stroke:none" d="m 0,0 c -0.552,0 -1,0.448 -1,1 l 0,1 C -1,2.552 -0.552,3 0,3 0.552,3 1,2.552 1,2 L 1,1 C 1,0.448 0.552,0 0,0"/></g><g transform="translate(23,21)" id="g92"><path id="path94" style="fill:#292f33;fill-opacity:1;fill-rule:nonzero;stroke:none" d="m 0,0 c -0.553,0 -1,0.448 -1,1 l 0,1 C -1,2.552 -0.553,3 0,3 0.553,3 1,2.552 1,2 L 1,1 C 1,0.448 0.553,0 0,0"/></g></g></g></g></svg>
