<svg xmlns="http://www.w3.org/2000/svg" viewBox="0 0 47.5 47.5" enable-background="new 0 0 47.5 47.5"><defs><clipPath id="a"><path d="M0 38h38V0H0v38z"/></clipPath></defs><g><g><g clip-path="url(#a)" transform="matrix(1.25 0 0 -1.25 0 47.5)"><g><path fill="#642116" d="M20 37c-1.72 0-3.34-.4-4.8-1.1-.4.06-.8.1-1.2.1-3.87 0-7-3.13-7-7V17h.02C7.2 10.53 12.5 5.34 19 5.34c6.5 0 11.8 5.2 11.98 11.66H31v9c0 6.08-4.92 11-11 11"/></g><g><path fill="#9268ca" d="M28 10H10c-2.2 0-4-1.8-4-4V1h26v5c0 2.2-1.8 4-4 4"/></g><g><path fill="#d79e84" d="M16 15V9c0-1.66 1.34-3 3-3s3 1.34 3 3v6h-6z"/></g><g><path fill="#d79e84" d="M10 32V20c0-4.97 4.03-9 9-9s9 4.03 9 9v12H10z"/></g><g><path fill="#642116" d="M29 32l-2 1H9v-7c6 0 6 6 6 6s2-7 14-7v7z"/></g><path fill="#7450a8" d="M11 1h-1v4h1V1z"/><path fill="#7450a8" d="M28 1h-1v4h1V1z"/><g><path fill="#bb1a34" d="M20 14c0-.55-.45-1-1-1s-1 .45-1 1 .45 1 1 1 1-.45 1-1"/></g><g><path fill="#292f33" d="M15 21c-.55 0-1 .45-1 1v1c0 .55.45 1 1 1s1-.45 1-1v-1c0-.55-.45-1-1-1"/></g><g><path fill="#292f33" d="M23 21c-.55 0-1 .45-1 1v1c0 .55.45 1 1 1s1-.45 1-1v-1c0-.55-.45-1-1-1"/></g><g><path fill="#bf6952" d="M20 17.5h-2c-.28 0-.5.22-.5.5s.22.5.5.5h2c.28 0 .5-.22.5-.5s-.22-.5-.5-.5"/></g></g></g></g></svg>