<svg xmlns="http://www.w3.org/2000/svg" viewBox="0 0 47.5 47.5" enable-background="new 0 0 47.5 47.5"><defs><clipPath id="a"><path d="M0 38h38V0H0v38z"/></clipPath></defs><g><g><g clip-path="url(#a)" transform="matrix(1.25 0 0 -1.25 0 47.5)"><g><path fill="#ffcc4d" d="M36 19c0-9.4-7.6-17-17-17S2 9.6 2 19s7.6 17 17 17 17-7.6 17-17"/></g><g><path fill="#664500" d="M11 24s0 2 2 2 2-2 2-2v-2s0-2-2-2-2 2-2 2v2z"/></g><g><path fill="#664500" d="M23 24s0 2 2 2 2-2 2-2v-2s0-2-2-2-2 2-2 2v2z"/></g><g><path fill="#664500" d="M9.67 8.63c.17-.16.44-.17.63-.03.04.03 3.92 2.9 8.7 2.9 4.77 0 8.66-2.87 8.7-2.9.2-.14.46-.13.64.03.17.16.2.42.1.63-.14.2-3.23 5.24-9.44 5.24-6.2 0-9.3-5.03-9.43-5.24-.12-.2-.08-.47.1-.63"/></g></g></g></g></svg>