<svg xmlns="http://www.w3.org/2000/svg" viewBox="0 0 47.5 47.5" enable-background="new 0 0 47.5 47.5"><defs><clipPath id="a"><path d="M0 38h38V0H0v38z"/></clipPath></defs><g><g><g clip-path="url(#a)" transform="matrix(1.25 0 0 -1.25 0 47.5)"><g><path fill="#642116" d="M20 37c-1.72 0-3.34-.4-4.8-1.1-.4.06-.8.1-1.2.1-3.87 0-7-3.13-7-7V17h.02C7.2 10.53 12.5 5.34 19 5.34c6.5 0 11.8 5.2 11.98 11.66H31v9c0 6.08-4.92 11-11 11"/></g><g><path fill="#9268ca" d="M28 10H10c-2.2 0-4-1.8-4-4V1h26v5c0 2.2-1.8 4-4 4"/></g><path fill="#7450a8" d="M28 1h-1v4h1V1z"/><path fill="#7450a8" d="M11 1h-1v4h1V1z"/><g><path fill="#d79e84" d="M16 13V9c0-1.66 1.34-3 3-3s3 1.34 3 3v4h-6z"/></g><g><path fill="#d79e84" d="M15 32s0-5.3-5-5.94V20c0-4.97 4.03-9 9-9s9 4.03 9 9v5.02C16.9 25.4 15 32 15 32"/></g><g><path fill="#bb1a34" d="M23 16h-8s1-2 4-2 4 2 4 2"/></g><g><path fill="#9268ca" d="M6 1l4 9-3 10 3 12H5s-4-8-4-12S6 1 6 1"/></g><g><path fill="#9268ca" d="M32 1l-4 9 3 10-3 12h5s4-8 4-12-5-19-5-19"/></g><g><path fill="#bf6952" d="M13.54 35.98c-.14.7-.82 1.14-1.52 1l-2.67-.56H7c-1.1 0-2-.9-2-2V32h5s1.9 1.26 2 2.34l.35.08H13c0 .07-.03.14-.04.22.44.27.7.8.58 1.34"/></g><g><path fill="#d79e84" d="M18 35.42c0 .55-.45 1-1 1l-6-1H6c-.55 0-1-.45-1-1V32h5l2 1 5 1.42s1 .45 1 1"/></g><g><path fill="#bf6952" d="M31 36.42h-2.35l-2.67.55c-.7.14-1.38-.3-1.52-1-.1-.54.14-1.06.58-1.33 0-.08-.04-.15-.04-.22h.65l.37-.08c.08-1.06 1.98-1.92 1.98-1.92h5v2c0 1.1-.9 2-2 2"/></g><g><path fill="#d79e84" d="M20 35.42c0 .55.45 1 1 1l6-1h5c.55 0 1-.45 1-1V32h-5l-2 1-5 1.42s-1 .45-1 1"/></g><g><path fill="#bf6952" d="M20 17.5h-2c-.28 0-.5.22-.5.5s.22.5.5.5h2c.28 0 .5-.22.5-.5s-.22-.5-.5-.5"/></g><g><path fill="#292f33" d="M15 21c-.55 0-1 .45-1 1v1c0 .55.45 1 1 1s1-.45 1-1v-1c0-.55-.45-1-1-1"/></g><g><path fill="#292f33" d="M23 21c-.55 0-1 .45-1 1v1c0 .55.45 1 1 1s1-.45 1-1v-1c0-.55-.45-1-1-1"/></g></g></g></g></svg>