<svg xmlns="http://www.w3.org/2000/svg" viewBox="0 0 47.5 47.5" enable-background="new 0 0 47.5 47.5"><defs><clipPath id="a"><path d="M0 38h38V0H0v38z"/></clipPath></defs><g><g><g clip-path="url(#a)" transform="matrix(1.25 0 0 -1.25 0 47.5)"><g><path fill="#642116" d="M20 37c-1.72 0-3.34-.4-4.8-1.1-.4.06-.8.1-1.2.1-3.87 0-7-3.13-7-7V17h.02C7.2 10.53 12.5 5.34 19 5.34c6.5 0 11.8 5.2 11.98 11.66H31v9c0 6.08-4.92 11-11 11"/></g><g><path fill="#9268ca" d="M28 10H11V1h21v5c0 2.2-1.8 4-4 4"/></g><g><path fill="#d79e84" d="M16 15V9c0-1.66 1.34-3 3-3s3 1.34 3 3v6h-6z"/></g><g><path fill="#d79e84" d="M10 32V20c0-4.97 4.03-9 9-9s9 4.03 9 9v12H10z"/></g><g><path fill="#642116" d="M28 32v1H9v-7c6 0 6 6 6 6s2-7 14-7v7h-1z"/></g><path fill="#7450a8" d="M28 1h-1v4h1V1z"/><g><path fill="#bb1a34" d="M23 15h-8s1-2 4-2 4 2 4 2"/></g><g><path fill="#d79e84" d="M13.42 34.06c-.6.4-1.4.23-1.77-.36l-.65-.98V35c0 1.1-.9 2-2 2H5c-1.1 0-2-.9-2-2v-8s0-1 1-1h6l1 1v1.04l2.8 4.25c.38.58.2 1.38-.38 1.76"/></g><path fill="#c1694f" d="M6 32H5v5h1v-5z"/><path fill="#c1694f" d="M9 32H8v5h1v-5z"/><g><path fill="#9268ca" d="M10 10h1V1c-8 0-8 9-8 9v17h8l-1-17z"/></g><g><path fill="#bf6952" d="M20 17.5h-2c-.28 0-.5.22-.5.5s.22.5.5.5h2c.28 0 .5-.22.5-.5s-.22-.5-.5-.5"/></g><g><path fill="#292f33" d="M15 21c-.55 0-1 .45-1 1v1c0 .55.45 1 1 1s1-.45 1-1v-1c0-.55-.45-1-1-1"/></g><g><path fill="#292f33" d="M23 21c-.55 0-1 .45-1 1v1c0 .55.45 1 1 1s1-.45 1-1v-1c0-.55-.45-1-1-1"/></g></g></g></g></svg>