<?xml version="1.0" encoding="UTF-8" standalone="no"?>
<!-- Created with Inkscape (http://www.inkscape.org/) -->

<svg
   xmlns:svg="http://www.w3.org/2000/svg"
   xmlns="http://www.w3.org/2000/svg"
   version="1.1"
   width="47.5"
   height="47.5"
   id="svg2"
   xml:space="preserve"><defs
     id="defs6"><clipPath
       id="clipPath18"><path
         d="M 0,38 38,38 38,0 0,0 0,38 z"
         id="path20" /></clipPath></defs><g
     transform="matrix(1.25,0,0,-1.25,0,47.5)"
     id="g12"><g
       id="g14"><g
         clip-path="url(#clipPath18)"
         id="g16"><g
           transform="translate(31,15)"
           id="g22"><path
             d="m 0,0 c -3,0 -7,-8 -7,-10 0,-3 2,-4 2,-4 l 11,0 0,10 C 6,-4 2,0 0,0"
             id="path24"
             style="fill:#2a6797;fill-opacity:1;fill-rule:nonzero;stroke:none" /></g><g
           transform="translate(7,15)"
           id="g26"><path
             d="m 0,0 c 3,0 7,-8 7,-10 0,-3 -2,-4 -2,-4 l -11,0 0,10 c 0,0 4,4 6,4"
             id="path28"
             style="fill:#2a6797;fill-opacity:1;fill-rule:nonzero;stroke:none" /></g><g
           transform="translate(26,26)"
           id="g30"><path
             d="M 0,0 C 0,1.104 -0.896,2 -2,2 -3.104,2 -4,1.104 -4,0 l 0,7.277 c 0.596,0.347 1,0.985 1,1.723 0,1.104 -0.896,2 -2,2 -1.104,0 -2,-0.896 -2,-2 0,1.104 -0.896,2 -2,2 -1.104,0 -2,-0.896 -2,-2 0,-0.738 0.405,-1.376 1,-1.723 L -10,0 c 0,1.104 -0.896,2 -2,2 -1.104,0 -2,-0.896 -2,-2 l -1,-11.526 0,-4.474 5,0 0,-1 6,0 0,1 5,0 0,4.474 L 0,0 z"
             id="path32"
             style="fill:#c1694f;fill-opacity:1;fill-rule:nonzero;stroke:none" /></g><g
           transform="translate(25,21)"
           id="g34"><path
             d="m 0,0 -1,12 c 0,1.104 -0.896,2 -2,2 -1.104,0 -2,-0.896 -2,-2 l 0,-20 c 0,-6 6,-9 6,-9 0,0 6,4 6,9 L 0,0 z"
             id="path36"
             style="fill:#d79e84;fill-opacity:1;fill-rule:nonzero;stroke:none" /></g><g
           transform="translate(16,35)"
           id="g38"><path
             d="m 0,0 c -1.104,0 -2,-0.896 -2,-2 l -1,-12 -7,-8 c 0,-5 6,-9 6,-9 0,0 6,3 6,9 L 2,-2 C 2,-0.896 1.104,0 0,0"
             id="path40"
             style="fill:#d79e84;fill-opacity:1;fill-rule:nonzero;stroke:none" /></g><g
           transform="translate(12,30)"
           id="g42"><path
             d="M 0,0 -6,3 -7,1 -1,-1 0,0 z"
             id="path44"
             style="fill:#fdcb58;fill-opacity:1;fill-rule:nonzero;stroke:none" /></g><g
           transform="translate(26,30)"
           id="g46"><path
             d="M 0,0 6,3 7,1 1,-1 0,0 z"
             id="path48"
             style="fill:#fdcb58;fill-opacity:1;fill-rule:nonzero;stroke:none" /></g><g
           transform="translate(10,26)"
           id="g50"><path
             d="m 0,0 -6,1 -1,-2 7,0 0,1 z"
             id="path52"
             style="fill:#fdcb58;fill-opacity:1;fill-rule:nonzero;stroke:none" /></g><g
           transform="translate(28,26)"
           id="g54"><path
             d="M 0,0 6,1 7,-1 0,-1 0,0 z"
             id="path56"
             style="fill:#fdcb58;fill-opacity:1;fill-rule:nonzero;stroke:none" /></g></g></g></g></svg>