<?xml version="1.0" encoding="UTF-8" standalone="no"?>
<!-- Created with Inkscape (http://www.inkscape.org/) -->

<svg
   xmlns:svg="http://www.w3.org/2000/svg"
   xmlns="http://www.w3.org/2000/svg"
   version="1.1"
   width="47.5"
   height="47.5"
   id="svg2"
   xml:space="preserve"><defs
     id="defs6"><clipPath
       id="clipPath18"><path
         d="M 0,0 38,0 38,38 0,38 0,0 z"
         id="path20" /></clipPath></defs><g
     transform="matrix(1.25,0,0,-1.25,0,47.5)"
     id="g12"><g
       id="g14"><g
         clip-path="url(#clipPath18)"
         id="g16"><g
           transform="translate(37,30)"
           id="g22"><path
             d="M 0,0 C 0,4.939 -6.772,4.457 -9.169,4.132 -11.602,5.921 -14.556,7 -18,7 -21.438,7 -24.388,5.919 -26.818,4.131 -29.203,4.456 -36,4.948 -36,0 c 0,-2.891 1.563,-4.732 2.433,-5.533 C -34.514,-8.26 -35,-11.175 -35,-14 c 0,-9.941 10,-13 17,-13 7,0 17,3 17,13 0,2.835 -0.483,5.75 -1.426,8.473 C -1.555,-4.722 0,-2.883 0,0"
             id="path24"
             style="fill:#bf6952;fill-opacity:1;fill-rule:nonzero;stroke:none" /></g><g
           transform="translate(31,23)"
           id="g26"><path
             d="M 0,0 C 0,3.866 -3.134,7 -7,7 -8.96,7 -10.729,6.192 -12,4.895 -13.271,6.192 -15.04,7 -17,7 c -3.866,0 -7,-3.134 -7,-7 0,-3.777 2.993,-6.846 6.735,-6.986 C -18.938,-8.453 -20,-10.6 -20,-13 c 0,-4.419 3.582,-8 8,-8 4.419,0 8,3.581 8,8 0,2.4 -1.062,4.547 -2.734,6.014 C -2.992,-6.846 0,-3.777 0,0"
             id="path28"
             style="fill:#d79e84;fill-opacity:1;fill-rule:nonzero;stroke:none" /></g><g
           transform="translate(24.4258,8.2627)"
           id="g30"><path
             d="m 0,0 c -0.092,0.147 -0.253,0.237 -0.426,0.237 l -10,0 c -0.173,0 -0.334,-0.09 -0.425,-0.237 -0.091,-0.147 -0.1,-0.331 -0.022,-0.486 0.087,-0.175 2.176,-4.277 5.447,-4.277 3.272,0 5.361,4.102 5.447,4.277 C 0.099,-0.331 0.091,-0.147 0,0"
             id="path32"
             style="fill:#642116;fill-opacity:1;fill-rule:nonzero;stroke:none" /></g><g
           transform="translate(20,11.5)"
           id="g34"><path
             d="m 0,0 c -0.276,0 -0.5,0.224 -0.5,0.5 l 0,2 C -0.5,2.776 -0.276,3 0,3 0.276,3 0.5,2.776 0.5,2.5 l 0,-2 C 0.5,0.224 0.276,0 0,0"
             id="path36"
             style="fill:#642116;fill-opacity:1;fill-rule:nonzero;stroke:none" /></g><g
           transform="translate(18,11.5)"
           id="g38"><path
             d="m 0,0 c -0.276,0 -0.5,0.224 -0.5,0.5 l 0,2 C -0.5,2.776 -0.276,3 0,3 0.276,3 0.5,2.776 0.5,2.5 l 0,-2 C 0.5,0.224 0.276,0 0,0"
             id="path40"
             style="fill:#642116;fill-opacity:1;fill-rule:nonzero;stroke:none" /></g><g
           transform="translate(16,21)"
           id="g42"><path
             d="m 0,0 c 0,-1.657 -0.896,-3 -2,-3 -1.104,0 -2,1.343 -2,3 0,1.657 0.896,3 2,3 1.104,0 2,-1.343 2,-3"
             id="path44"
             style="fill:#292f33;fill-opacity:1;fill-rule:nonzero;stroke:none" /></g><g
           transform="translate(26,21)"
           id="g46"><path
             d="m 0,0 c 0,-1.657 -0.896,-3 -2,-3 -1.104,0 -2,1.343 -2,3 0,1.657 0.896,3 2,3 1.104,0 2,-1.343 2,-3"
             id="path48"
             style="fill:#292f33;fill-opacity:1;fill-rule:nonzero;stroke:none" /></g><g
           transform="translate(31,21)"
           id="g50"><path
             d="M 0,0 -2,-20 6,-20 5,0 0,0 z"
             id="path52"
             style="fill:#bf6952;fill-opacity:1;fill-rule:nonzero;stroke:none" /></g><g
           transform="translate(33,36)"
           id="g54"><path
             d="m 0,0 c -0.905,0 -1.718,-0.368 -2.348,-1.064 -2.278,-2.518 -1.743,-9.038 -1.652,-9.989 0.004,-0.295 0.04,-1.732 0.405,-3.19 C -2.818,-17.348 -1.212,-18 0,-18 c 3.123,0 3.978,1.912 4,2.959 0.021,0.322 0.187,2.878 0.071,5.778 C 3.899,-4.955 3.225,-2.225 2.007,-0.917 1.448,-0.317 0.754,0 0,0"
             id="path56"
             style="fill:#bf6952;fill-opacity:1;fill-rule:nonzero;stroke:none" /></g><g
           transform="translate(33,35)"
           id="g58"><path
             d="m 0,0 c 4,0 3,-14 3,-14 0,0 0,-2 -3,-2 -3,0 -3,6 -3,6 0,0 -1,10 3,10"
             id="path60"
             style="fill:#d79e84;fill-opacity:1;fill-rule:nonzero;stroke:none" /></g><g
           transform="translate(33.999,29.5)"
           id="g62"><path
             d="M 0,0 C -0.233,0 -0.442,0.166 -0.489,0.404 -0.695,1.451 -1.318,3 -1.999,3 l -2,0 c -0.276,0 -0.5,0.224 -0.5,0.5 0,0.276 0.224,0.5 0.5,0.5 l 2,0 C -0.225,4 0.424,0.944 0.492,0.596 0.545,0.325 0.368,0.062 0.097,0.009 0.064,0.003 0.032,0 0,0"
             id="path64"
             style="fill:#bf6952;fill-opacity:1;fill-rule:nonzero;stroke:none" /></g><g
           transform="translate(7,21)"
           id="g66"><path
             d="m 0,0 2,-20 -8,0 1,20 5,0 z"
             id="path68"
             style="fill:#bf6952;fill-opacity:1;fill-rule:nonzero;stroke:none" /></g><g
           transform="translate(5,36)"
           id="g70"><path
             d="m 0,0 c -0.754,0 -1.448,-0.317 -2.007,-0.917 -1.218,-1.308 -1.892,-4.038 -2.064,-8.346 -0.116,-2.9 0.05,-5.456 0.071,-5.778 0.022,-1.047 0.877,-2.959 4,-2.959 1.212,0 2.818,0.652 3.595,3.757 0.365,1.458 0.401,2.895 0.405,3.19 0.091,0.951 0.626,7.471 -1.652,9.989 C 1.718,-0.368 0.905,0 0,0"
             id="path72"
             style="fill:#bf6952;fill-opacity:1;fill-rule:nonzero;stroke:none" /></g><g
           transform="translate(5,35)"
           id="g74"><path
             d="m 0,0 c 4,0 3,-10 3,-10 0,0 0,-6 -3,-6 -3,0 -3,2 -3,2 0,0 -1,14 3,14"
             id="path76"
             style="fill:#d79e84;fill-opacity:1;fill-rule:nonzero;stroke:none" /></g><g
           transform="translate(4.0005,29.5)"
           id="g78"><path
             d="M 0,0 C -0.032,0 -0.064,0.003 -0.096,0.009 -0.367,0.062 -0.544,0.325 -0.491,0.596 -0.423,0.944 0.225,4 2,4 L 4,4 C 4.276,4 4.5,3.776 4.5,3.5 4.5,3.224 4.276,3 4,3 L 2,3 C 1.25,3 0.649,1.217 0.49,0.404 0.444,0.166 0.234,0 0,0"
             id="path80"
             style="fill:#bf6952;fill-opacity:1;fill-rule:nonzero;stroke:none" /></g></g></g></g></svg>