<svg xmlns="http://www.w3.org/2000/svg" viewBox="0 0 47.5 47.5" enable-background="new 0 0 47.5 47.5"><defs><clipPath id="a"><path d="M0 38h38V0H0v38z"/></clipPath></defs><g><g><g clip-path="url(#a)" transform="matrix(1.25 0 0 -1.25 0 47.5)"><g><path fill="#292f33" d="M20 33c-1.66 0-3.22-.38-4.63-1.03C10.7 31.64 7 27.77 7 23c0-3.22 1.7-6.03 4.23-7.62 2-2.66 5.2-4.38 8.77-4.38 6.08 0 11 4.92 11 11s-4.92 11-11 11"/></g><g><path fill="#4289c1" d="M28 15H10s-9 0-9-7c0-3.16 4-7 4-7h28s4 3.84 4 7c0 7-9 7-9 7"/></g><g><path fill="#bf6952" d="M22 9c0-1.66-1.34-3-3-3s-3 1.34-3 3 1.34 3 3 3 3-1.34 3-3"/></g><g><path fill="#d79e84" d="M15 26s0-5.3-5-5.94V16c0-4.97 4.03-9 9-9s9 4.03 9 9v3.02C16.9 19.4 15 26 15 26"/></g><g><path fill="#d79e84" d="M18 3l-5 1-2 1H8L7 1h11c1 0 1 1 1 1 0 .55-1 1-1 1"/></g><g><path fill="#d79e84" d="M27 5l-2-1-5-1s-1-.45-1-1c0 0 0-1 1-1h11l-1 4h-3z"/></g><g><path fill="#292f33" d="M23 15c-.55 0-1 .45-1 1v1c0 .55.45 1 1 1s1-.45 1-1v-1c0-.55-.45-1-1-1"/></g><g><path fill="#292f33" d="M15 15c-.55 0-1 .45-1 1v1c0 .55.45 1 1 1s1-.45 1-1v-1c0-.55-.45-1-1-1"/></g><g><path fill="#bf6952" d="M20 10.5h-2c-.28 0-.5.22-.5.5s.22.5.5.5h2c.28 0 .5-.22.5-.5s-.22-.5-.5-.5"/></g><g><path fill="#5dadec" d="M7 29c-.2 0-.42.07-.6.2l-4 3c-.44.33-.53.96-.2 1.4.33.44.96.53 1.4.2l4-3c.44-.33.53-.96.2-1.4-.2-.26-.5-.4-.8-.4"/></g><g><path fill="#5dadec" d="M10 32c-.32 0-.64.16-.83.45l-2 3c-.3.45-.18 1.08.27 1.38.46.3 1.08.18 1.4-.27l2-3c.3-.47.17-1.1-.3-1.4-.16-.1-.35-.16-.54-.16"/></g><g><path fill="#5dadec" d="M32 29c-.3 0-.6.14-.8.4-.33.44-.24 1.07.2 1.4l4 3c.44.33 1.07.24 1.4-.2.33-.44.24-1.07-.2-1.4l-4-3c-.18-.14-.4-.2-.6-.2"/></g><g><path fill="#5dadec" d="M29 32c-.2 0-.38.05-.56.17-.46.3-.58.92-.27 1.38l2 3c.3.46.92.6 1.38.28.46-.3.6-.92.28-1.38l-2-3c-.2-.3-.5-.45-.83-.45"/></g></g></g></g></svg>