<?xml version="1.0" encoding="UTF-8" standalone="no"?>
<!-- Created with Inkscape (http://www.inkscape.org/) -->

<svg
   xmlns:svg="http://www.w3.org/2000/svg"
   xmlns="http://www.w3.org/2000/svg"
   version="1.1"
   width="47.5"
   height="47.5"
   id="svg2"
   xml:space="preserve"><defs
     id="defs6"><clipPath
       id="clipPath18"><path
         d="M 0,38 38,38 38,0 0,0 0,38 z"
         id="path20" /></clipPath></defs><g
     transform="matrix(1.25,0,0,-1.25,0,47.5)"
     id="g12"><g
       id="g14"><g
         clip-path="url(#clipPath18)"
         id="g16"><g
           transform="translate(1,14)"
           id="g22"><path
             d="m 0,0 0,-6 c 0,-1.657 1.343,-3 3,-3 l 30,0 c 1.657,0 3,1.343 3,3 L 36,0 0,0 z"
             id="path24"
             style="fill:#77b255;fill-opacity:1;fill-rule:nonzero;stroke:none" /></g><g
           transform="translate(16,23.9995)"
           id="g26"><path
             d="M 0,0 C -0.226,0 -0.453,0.076 -0.64,0.232 -1.064,0.585 -1.121,1.216 -0.768,1.64 4.418,7.864 11.558,8.947 11.858,8.99 11.905,8.997 11.953,9 12,9 l 3,0 C 15.553,9 16,8.553 16,8 16,7.448 15.553,7 15,7 L 12.081,7 C 11.392,6.882 5.203,5.682 0.769,0.36 0.571,0.123 0.287,0 0,0"
             id="path28"
             style="fill:#6d6e71;fill-opacity:1;fill-rule:nonzero;stroke:none" /></g><path
           d="m 26,23 -14,0 0,4 14,0 0,-4 z"
           id="path30"
           style="fill:#a7a9ac;fill-opacity:1;fill-rule:nonzero;stroke:none" /><g
           transform="translate(37,14)"
           id="g32"><path
             d="m 0,0 0,8 c 0,1.657 -1.343,3 -3,3 l -30,0 c -1.657,0 -3,-1.343 -3,-3 l 0,-8 36,0 z"
             id="path34"
             style="fill:#e6e7e8;fill-opacity:1;fill-rule:nonzero;stroke:none" /></g><path
           d="m 37,12 -36,0 0,2 36,0 0,-2 z"
           id="path36"
           style="fill:#5c913b;fill-opacity:1;fill-rule:nonzero;stroke:none" /><g
           transform="translate(8.0005,11)"
           id="g38"><path
             d="M 0,0 C -3.063,0 -5.586,-2.298 -5.95,-5.263 -5.425,-5.716 -4.749,-6 -4,-6 L 6,-6 C 6,-2.687 3.313,0 0,0"
             id="path40"
             style="fill:#5c913b;fill-opacity:1;fill-rule:nonzero;stroke:none" /></g><g
           transform="translate(35.9502,5.7373)"
           id="g42"><path
             d="m 0,0 c -0.364,2.965 -2.887,5.263 -5.95,5.263 -3.314,0 -6,-2.687 -6,-6 l 10,0 c 0.749,0 1.425,0.284 1.95,0.737"
             id="path44"
             style="fill:#5c913b;fill-opacity:1;fill-rule:nonzero;stroke:none" /></g><g
           transform="translate(12,5)"
           id="g46"><path
             d="m 0,0 c 0,-2.209 -1.791,-4 -4,-4 -2.209,0 -4,1.791 -4,4 0,2.209 1.791,4 4,4 2.209,0 4,-1.791 4,-4"
             id="path48"
             style="fill:#000000;fill-opacity:1;fill-rule:nonzero;stroke:none" /></g><g
           transform="translate(10,5)"
           id="g50"><path
             d="m 0,0 c 0,-1.104 -0.896,-2 -2,-2 -1.104,0 -2,0.896 -2,2 0,1.104 0.896,2 2,2 1.104,0 2,-0.896 2,-2"
             id="path52"
             style="fill:#99aab5;fill-opacity:1;fill-rule:nonzero;stroke:none" /></g><g
           transform="translate(34,5)"
           id="g54"><path
             d="m 0,0 c 0,-2.209 -1.791,-4 -4,-4 -2.209,0 -4,1.791 -4,4 0,2.209 1.791,4 4,4 2.209,0 4,-1.791 4,-4"
             id="path56"
             style="fill:#000000;fill-opacity:1;fill-rule:nonzero;stroke:none" /></g><g
           transform="translate(32,5)"
           id="g58"><path
             d="m 0,0 c 0,-1.104 -0.896,-2 -2,-2 -1.104,0 -2,0.896 -2,2 0,1.104 0.896,2 2,2 1.104,0 2,-0.896 2,-2"
             id="path60"
             style="fill:#99aab5;fill-opacity:1;fill-rule:nonzero;stroke:none" /></g><g
           transform="translate(28,17)"
           id="g62"><path
             d="m 0,0 c 0,-0.553 -0.447,-1 -1,-1 l -3,0 c -0.553,0 -1,0.447 -1,1 l 0,3 c 0,0.552 0.447,1 1,1 l 3,0 C -0.447,4 0,3.552 0,3 L 0,0 z"
             id="path64"
             style="fill:#55acee;fill-opacity:1;fill-rule:nonzero;stroke:none" /></g><g
           transform="translate(35,17)"
           id="g66"><path
             d="m 0,0 c 0,-0.553 -0.447,-1 -1,-1 l -3,0 c -0.553,0 -1,0.447 -1,1 l 0,3 c 0,0.552 0.447,1 1,1 l 3,0 C -0.447,4 0,3.552 0,3 L 0,0 z"
             id="path68"
             style="fill:#55acee;fill-opacity:1;fill-rule:nonzero;stroke:none" /></g><g
           transform="translate(14,17)"
           id="g70"><path
             d="m 0,0 c 0,-0.553 -0.448,-1 -1,-1 l -3,0 c -0.552,0 -1,0.447 -1,1 l 0,3 c 0,0.552 0.448,1 1,1 l 3,0 C -0.448,4 0,3.552 0,3 L 0,0 z"
             id="path72"
             style="fill:#55acee;fill-opacity:1;fill-rule:nonzero;stroke:none" /></g><g
           transform="translate(21,17)"
           id="g74"><path
             d="m 0,0 c 0,-0.553 -0.447,-1 -1,-1 l -3,0 c -0.552,0 -1,0.447 -1,1 l 0,3 c 0,0.552 0.448,1 1,1 l 3,0 C -0.447,4 0,3.552 0,3 L 0,0 z"
             id="path76"
             style="fill:#55acee;fill-opacity:1;fill-rule:nonzero;stroke:none" /></g><g
           transform="translate(6,21)"
           id="g78"><path
             d="m 0,0 -5,0 0,-7 5,0 c 0.552,0 1,0.447 1,1 l 0,5 C 1,-0.448 0.552,0 0,0"
             id="path80"
             style="fill:#55acee;fill-opacity:1;fill-rule:nonzero;stroke:none" /></g><path
           d="M 2,9 1,9 1,11 2,11 2,9 z"
           id="path82"
           style="fill:#ffe8b6;fill-opacity:1;fill-rule:nonzero;stroke:none" /><path
           d="m 37,9 -1,0 0,2 1,0 0,-2 z"
           id="path84"
           style="fill:#ea596e;fill-opacity:1;fill-rule:nonzero;stroke:none" /><path
           d="m 37,14 -1,0 0,-2 1,0 0,2 z"
           id="path86"
           style="fill:#f4abba;fill-opacity:1;fill-rule:nonzero;stroke:none" /></g></g></g></svg>