<?xml version="1.0" encoding="UTF-8" standalone="no"?>
<!-- Created with Inkscape (http://www.inkscape.org/) -->

<svg
   xmlns:svg="http://www.w3.org/2000/svg"
   xmlns="http://www.w3.org/2000/svg"
   version="1.1"
   width="47.5"
   height="47.5"
   id="svg2"
   xml:space="preserve"><defs
     id="defs6"><clipPath
       id="clipPath24"><path
         d="M 0,38 38,38 38,0 0,0 0,38 z"
         id="path26" /></clipPath></defs><g
     transform="matrix(1.25,0,0,-1.25,0,47.5)"
     id="g12"><path
       d="m 17,1 -2,0 0,29 2,0 0,-29 z"
       id="path14"
       style="fill:#6d6e71;fill-opacity:1;fill-rule:nonzero;stroke:none" /><path
       d="m 19,16 -3,0 0,2 3,0 0,-2 z"
       id="path16"
       style="fill:#6d6e71;fill-opacity:1;fill-rule:nonzero;stroke:none" /><path
       d="m 19,22 -3,0 0,2 3,0 0,-2 z"
       id="path18"
       style="fill:#6d6e71;fill-opacity:1;fill-rule:nonzero;stroke:none" /><g
       id="g20"><g
         clip-path="url(#clipPath24)"
         id="g22"><g
           transform="translate(30,13)"
           id="g28"><path
             d="m 0,0 c 0,-0.553 -0.447,-1 -1,-1 l -9,0 c -0.553,0 -1,0.447 -1,1 l 0,14 c 0,0.552 0.447,1 1,1 l 9,0 c 0.553,0 1,-0.448 1,-1 L 0,0 z"
             id="path30"
             style="fill:#bcbec0;fill-opacity:1;fill-rule:nonzero;stroke:none" /></g><g
           transform="translate(30,24)"
           id="g32"><path
             d="m 0,0 0,3 c 0,0.552 -0.447,1 -1,1 l -9,0 c -0.553,0 -1,-0.448 -1,-1 l 0,-3 11,0 z"
             id="path34"
             style="fill:#be1931;fill-opacity:1;fill-rule:nonzero;stroke:none" /></g><g
           transform="translate(22,3)"
           id="g36"><path
             d="m 0,0 -12,0 -1,-1 0,-1 14,0 0,1 -1,1 z"
             id="path38"
             style="fill:#6d6e71;fill-opacity:1;fill-rule:nonzero;stroke:none" /></g><g
           transform="translate(20,5)"
           id="g40"><path
             d="m 0,0 -8,0 -1,-1 0,-1 10,0 0,1 -1,1 z"
             id="path42"
             style="fill:#6d6e71;fill-opacity:1;fill-rule:nonzero;stroke:none" /></g><g
           transform="translate(12,33)"
           id="g44"><path
             d="M 0,0 C 0,2.209 1.791,4 4,4 6.209,4 8,2.209 8,0 8,-2.209 6.209,-4 4,-4 1.791,-4 0,-2.209 0,0"
             id="path46"
             style="fill:#be1931;fill-opacity:1;fill-rule:nonzero;stroke:none" /></g><path
           d="m 24,21 -3,0 0,3 3,0 0,-3 z"
           id="path48"
           style="fill:#808285;fill-opacity:1;fill-rule:nonzero;stroke:none" /><path
           d="m 24,17 -3,0 0,3 3,0 0,-3 z"
           id="path50"
           style="fill:#f4900c;fill-opacity:1;fill-rule:nonzero;stroke:none" /><path
           d="m 24,13 -3,0 0,3 3,0 0,-3 z"
           id="path52"
           style="fill:#f4900c;fill-opacity:1;fill-rule:nonzero;stroke:none" /><path
           d="m 28,21 -3,0 0,3 3,0 0,-3 z"
           id="path54"
           style="fill:#808285;fill-opacity:1;fill-rule:nonzero;stroke:none" /><path
           d="m 28,17 -3,0 0,3 3,0 0,-3 z"
           id="path56"
           style="fill:#808285;fill-opacity:1;fill-rule:nonzero;stroke:none" /><path
           d="m 28,13 -3,0 0,3 3,0 0,-3 z"
           id="path58"
           style="fill:#f4900c;fill-opacity:1;fill-rule:nonzero;stroke:none" /><path
           d="m 18,31 -4,0 0,4 4,0 0,-4 z"
           id="path60"
           style="fill:#dd2e44;fill-opacity:1;fill-rule:nonzero;stroke:none" /><path
           d="m 28,25 -7,0 0,2 7,0 0,-2 z"
           id="path62"
           style="fill:#dd2e44;fill-opacity:1;fill-rule:nonzero;stroke:none" /></g></g></g></svg>