<?xml version="1.0" encoding="UTF-8" standalone="no"?>
<!-- Created with Inkscape (http://www.inkscape.org/) -->

<svg
   xmlns:svg="http://www.w3.org/2000/svg"
   xmlns="http://www.w3.org/2000/svg"
   version="1.1"
   width="47.5"
   height="47.5"
   id="svg2"
   xml:space="preserve"><defs
     id="defs6"><clipPath
       id="clipPath30"><path
         d="M 0,38 38,38 38,0 0,0 0,38 z"
         id="path32" /></clipPath></defs><g
     transform="matrix(1.25,0,0,-1.25,0,47.5)"
     id="g12"><g
       transform="translate(1,1)"
       id="g14"><path
         d="M 0,0 28,0 18.375,17 9.625,17 0,0 z"
         id="path16"
         style="fill:#a7a9ac;fill-opacity:1;fill-rule:nonzero;stroke:none" /></g><g
       transform="translate(3.625,1)"
       id="g18"><path
         d="M 0,0 22.75,0 14,17 8.75,17 0,0 z"
         id="path20"
         style="fill:#58595b;fill-opacity:1;fill-rule:nonzero;stroke:none" /></g><g
       transform="translate(6.25,1)"
       id="g22"><path
         d="M 0,0 17.5,0 9.625,17 7.875,17 0,0 z"
         id="path24"
         style="fill:#808285;fill-opacity:1;fill-rule:nonzero;stroke:none" /></g><g
       id="g26"><g
         clip-path="url(#clipPath30)"
         id="g28"><g
           transform="translate(25,2)"
           id="g34"><path
             d="m 0,0 c 0,-0.553 -0.447,-1 -1,-1 l -18,0 c -0.552,0 -1,0.447 -1,1 0,0.553 0.448,1 1,1 L -1,1 C -0.447,1 0,0.553 0,0"
             id="path36"
             style="fill:#a7a9ac;fill-opacity:1;fill-rule:nonzero;stroke:none" /></g><g
           transform="translate(23,6)"
           id="g38"><path
             d="m 0,0 c 0,-0.553 -0.447,-1 -1,-1 l -14,0 c -0.552,0 -1,0.447 -1,1 0,0.553 0.448,1 1,1 L -1,1 C -0.447,1 0,0.553 0,0"
             id="path40"
             style="fill:#a7a9ac;fill-opacity:1;fill-rule:nonzero;stroke:none" /></g><g
           transform="translate(21,10)"
           id="g42"><path
             d="m 0,0 c 0,-0.553 -0.447,-1 -1,-1 l -10,0 c -0.552,0 -1,0.447 -1,1 0,0.553 0.448,1 1,1 L -1,1 C -0.447,1 0,0.553 0,0"
             id="path44"
             style="fill:#a7a9ac;fill-opacity:1;fill-rule:nonzero;stroke:none" /></g><g
           transform="translate(7.896,13.1797)"
           id="g46"><path
             d="m 0,0 c 0.984,-1.226 2.29,-2.18 3.604,-2.18 l 7,0 c 1.313,0 2.62,0.955 3.604,2.18 l -2.23,3.938 C 10.789,3.841 9.223,3.82 7.104,3.82 4.947,3.82 3.364,3.797 2.167,3.828 L 0,0 z"
             id="path48"
             style="fill:#58595b;fill-opacity:1;fill-rule:nonzero;stroke:none" /></g><g
           transform="translate(16,34)"
           id="g50"><path
             d="m 0,0 c 0,-0.552 -0.448,-1 -1,-1 -0.552,0 -1,0.448 -1,1 l 0,1 c 0,0.552 0.448,1 1,1 0.552,0 1,-0.448 1,-1 L 0,0 z"
             id="path52"
             style="fill:#414042;fill-opacity:1;fill-rule:nonzero;stroke:none" /></g><g
           transform="translate(19,32)"
           id="g54"><path
             d="m 0,0 c 0,-1.104 -0.896,-2 -2,-2 l -4,0 c -1.104,0 -2,0.896 -2,2 0,1.104 0.896,2 2,2 l 4,0 C -0.896,2 0,1.104 0,0"
             id="path56"
             style="fill:#6d6e71;fill-opacity:1;fill-rule:nonzero;stroke:none" /></g><g
           transform="translate(24,19)"
           id="g58"><path
             d="m 0,0 c 0,-2.209 -3.412,-5 -5.4,-5 l -7.2,0 c -1.988,0 -5.4,2.791 -5.4,5 l 0,10 c 0,2.209 1.612,4 3.6,4 l 10.8,0 C -1.612,14 0,12.209 0,10 L 0,0 z"
             id="path60"
             style="fill:#d1d3d4;fill-opacity:1;fill-rule:nonzero;stroke:none" /></g><g
           transform="translate(22,21)"
           id="g62"><path
             d="m 0,0 c 0,-2.209 -1.791,-4 -4,-4 l -6,0 c -2.209,0 -4,1.791 -4,4 l 0,5 c 0,2.209 1.791,3 4,3 l 6,0 C -1.791,8 0,7.209 0,5 L 0,0 z"
             id="path64"
             style="fill:#808285;fill-opacity:1;fill-rule:nonzero;stroke:none" /></g><g
           transform="translate(12,22)"
           id="g66"><path
             d="m 0,0 6,0 c 2.209,0 4,1.791 4,4 L 10,5 -4,5 -4,4 C -4,1.791 -2.209,0 0,0"
             id="path68"
             style="fill:#55acee;fill-opacity:1;fill-rule:nonzero;stroke:none" /></g><g
           transform="translate(15,17)"
           id="g70"><path
             d="M 0,0 C -6.3,0 -7.878,1.801 -9,3.242 L -9,2 c 0,-2.209 2.7,-6 5.4,-6 l 7.2,0 C 6.3,-4 9,-0.209 9,2 L 9,3.891 C 7.879,2.161 6.3,0 0,0"
             id="path72"
             style="fill:#5c913b;fill-opacity:1;fill-rule:nonzero;stroke:none" /></g><g
           transform="translate(12,19.5)"
           id="g74"><path
             d="M 0,0 C 0,-0.828 -0.672,-1.5 -1.5,-1.5 -2.329,-1.5 -3,-0.828 -3,0 -3,0.829 -2.329,1.5 -1.5,1.5 -0.672,1.5 0,0.829 0,0"
             id="path76"
             style="fill:#ffd983;fill-opacity:1;fill-rule:nonzero;stroke:none" /></g><g
           transform="translate(21,19.5)"
           id="g78"><path
             d="M 0,0 C 0,-0.828 -0.672,-1.5 -1.5,-1.5 -2.328,-1.5 -3,-0.828 -3,0 -3,0.829 -2.328,1.5 -1.5,1.5 -0.672,1.5 0,0.829 0,0"
             id="path80"
             style="fill:#ffd983;fill-opacity:1;fill-rule:nonzero;stroke:none" /></g><g
           transform="translate(22,27)"
           id="g82"><path
             d="m 0,0 0,2 c 0,1.104 -0.896,2 -2,2 l -10,0 c -1.104,0 -2,-0.896 -2,-2 l 0,-2 14,0 z"
             id="path84"
             style="fill:#292f33;fill-opacity:1;fill-rule:nonzero;stroke:none" /></g><g
           transform="translate(18,29)"
           id="g86"><path
             d="m 0,0 c 0,-0.552 -0.447,-1 -1,-1 l -4,0 c -0.552,0 -1,0.448 -1,1 0,0.552 0.448,1 1,1 l 4,0 C -0.447,1 0,0.552 0,0"
             id="path88"
             style="fill:#6d6e71;fill-opacity:1;fill-rule:nonzero;stroke:none" /></g><g
           transform="translate(24,14.0605)"
           id="g90"><path
             d="m 0,0 9,-13.061 4,0 0,5 -4,0 -9,10 L 0,0 z"
             id="path92"
             style="fill:#58595b;fill-opacity:1;fill-rule:nonzero;stroke:none" /></g><g
           transform="translate(37,6)"
           id="g94"><path
             d="M 0,0 0,10 -13,10 -4,0 0,0 z"
             id="path96"
             style="fill:#a7a9ac;fill-opacity:1;fill-rule:nonzero;stroke:none" /></g><g
           transform="translate(34,13)"
           id="g98"><path
             d="m 0,0 c 0,-1 0,-1 -1,-1 -1,0 -1,0 -1,1 l 0,11 c 0,0.552 0.447,1 1,1 0.553,0 1,-0.448 1,-1 L 0,0 z"
             id="path100"
             style="fill:#6d6e71;fill-opacity:1;fill-rule:nonzero;stroke:none" /></g><g
           transform="translate(34,20)"
           id="g102"><path
             d="m 0,0 c 0,-1 0,-1 -1,-1 -1,0 -1,0 -1,1 l 0,7 c 0,0.552 0.447,1 1,1 0.553,0 1,-0.448 1,-1 L 0,0 z"
             id="path104"
             style="fill:#939598;fill-opacity:1;fill-rule:nonzero;stroke:none" /></g><g
           transform="translate(37,26)"
           id="g106"><path
             d="m 0,0 c 0,-1.104 -0.896,-2 -2,-2 l -4,0 c -1.104,0 -2,0.896 -2,2 l 0,2 c 0,1.104 0.896,2 2,2 l 4,0 C -0.896,4 0,3.104 0,2 L 0,0 z"
             id="path108"
             style="fill:#58595b;fill-opacity:1;fill-rule:nonzero;stroke:none" /></g><g
           transform="translate(35,27)"
           id="g110"><path
             d="m 0,0 c 0,-0.552 -0.447,-1 -1,-1 l -2,0 c -0.553,0 -1,0.448 -1,1 0,0.552 0.447,1 1,1 l 2,0 C -0.447,1 0,0.552 0,0"
             id="path112"
             style="fill:#939598;fill-opacity:1;fill-rule:nonzero;stroke:none" /></g></g></g></g></svg>