<?xml version="1.0" encoding="UTF-8" standalone="no"?><svg xmlns:dc="http://purl.org/dc/elements/1.1/" xmlns:cc="http://creativecommons.org/ns#" xmlns:rdf="http://www.w3.org/1999/02/22-rdf-syntax-ns#" xmlns:svg="http://www.w3.org/2000/svg" xmlns="http://www.w3.org/2000/svg" viewBox="0 0 47.5 47.5" style="enable-background:new 0 0 47.5 47.5;" xml:space="preserve" version="1.1" id="svg2"><metadata id="metadata8"><rdf:RDF><cc:Work rdf:about=""><dc:format>image/svg+xml</dc:format><dc:type rdf:resource="http://purl.org/dc/dcmitype/StillImage"/></cc:Work></rdf:RDF></metadata><defs id="defs6"><clipPath id="clipPath18" clipPathUnits="userSpaceOnUse"><path id="path20" d="M 0,38 38,38 38,0 0,0 0,38 Z"/></clipPath></defs><g transform="matrix(1.25,0,0,-1.25,0,47.5)" id="g10"><path id="path12" style="fill:#939598;fill-opacity:1;fill-rule:nonzero;stroke:none" d="M 37,3 1,3 1,1 37,1 37,3 Z"/><g id="g14"><g clip-path="url(#clipPath18)" id="g16"><g transform="translate(4,2)" id="g22"><path id="path24" style="fill:#d1d3d4;fill-opacity:1;fill-rule:nonzero;stroke:none" d="m 0,0 33,0 0,29 -15,0 c -4,0 -5,-2 -5,-2 L 9,21 c 0,0 -12,-5 -12,-9.999 0,-4 6,-6 6,-6 L 0,0 Z"/></g><g transform="translate(15,2)" id="g26"><path id="path28" style="fill:#231f20;fill-opacity:1;fill-rule:nonzero;stroke:none" d="M 0,0 2,3 22,3 22,0 0,0 Z"/></g><g transform="translate(1,13.001)" id="g30"><path id="path32" style="fill:#3b88c3;fill-opacity:1;fill-rule:nonzero;stroke:none" d="M 0,0 C 0,-4 6,-6 6,-6 L 6,6.875 C 3,5 0,2.5 0,0"/></g><g transform="translate(7,7)" id="g34"><path id="path36" style="fill:#3b88c3;fill-opacity:1;fill-rule:nonzero;stroke:none" d="M 0,0 0,0.001 0,0 Z"/></g><g transform="translate(7,7)" id="g38"><path id="path40" style="fill:#226699;fill-opacity:1;fill-rule:nonzero;stroke:none" d="M 0,0 -3,-5 30,-5 30,0 0,0 Z"/></g><g transform="translate(21,7)" id="g42"><path id="path44" style="fill:#3b88c3;fill-opacity:1;fill-rule:nonzero;stroke:none" d="M 0,0 4,6 16,6 16,0 0,0 Z"/></g><g transform="translate(27,29)" id="g46"><path id="path48" style="fill:#55acee;fill-opacity:1;fill-rule:nonzero;stroke:none" d="m 0,0 -10,0 -4,-6 -10e-4,0 10.843,0 c 0.476,0 1.108,0.448 1.412,1 l 2.197,4 C 0.754,-0.448 0.553,0 0,0"/></g><g transform="translate(26.9023,27)" id="g50"><path id="path52" style="fill:#3b88c3;fill-opacity:1;fill-rule:nonzero;stroke:none" d="M 0,0 0.549,1 C 0.852,1.552 0.65,2 0.098,2 L -9.903,2 -11.236,0 0,0 Z"/></g></g></g></g></svg>
