<svg xmlns="http://www.w3.org/2000/svg" viewBox="0 0 47.5 47.5" enable-background="new 0 0 47.5 47.5"><defs><clipPath id="a"><path d="M0 38h38V0H0v38z"/></clipPath></defs><g><path fill="#939598" d="M46.25 43.75h-45v2.5h45v-2.5z"/><g><g clip-path="url(#a)" transform="matrix(1.25 0 0 -1.25 0 47.5)"><g><path fill="#58595b" d="M11 5c0 1.66-1.34 3-3 3S5 6.66 5 5s1.34-3 3-3 3 1.34 3 3"/></g><g><path fill="#292f33" d="M10 5c0 1.1-.9 2-2 2s-2-.9-2-2 .9-2 2-2 2 .9 2 2"/></g><g><path fill="#58595b" d="M33 5c0 1.66-1.34 3-3 3s-3-1.34-3-3 1.34-3 3-3 3 1.34 3 3"/></g><g><path fill="#292f33" d="M32 5c0 1.1-.9 2-2 2s-2-.9-2-2 .9-2 2-2 2 .9 2 2"/></g><g><path fill="#e6e7e8" d="M35 35H3c-.55 0-1 .45-1 1s.45 1 1 1h32c.55 0 1-.45 1-1s-.45-1-1-1"/></g><g><path fill="#66757f" d="M19 26c-.26 0-.5.1-.7.3l-5 5c-.2.2-.3.47-.3.76.02.28.15.54.37.72l5 4c.44.35 1.07.28 1.4-.15.35-.44.3-1.07-.15-1.4l-4.12-3.3 4.2-4.22c.4-.38.4-1.02 0-1.4-.2-.2-.44-.3-.7-.3"/></g><g><path fill="#66757f" d="M18 26c-.26 0-.5.1-.7.3-.4.38-.4 1.02 0 1.4l4.2 4.22-4.13 3.3c-.43.34-.5.97-.15 1.4.34.44.97.5 1.4.16l5-4c.23-.18.36-.44.38-.72 0-.3-.1-.57-.3-.77l-5-5c-.2-.2-.44-.3-.7-.3"/></g><g><path fill="#bcbec0" d="M31 27c0-1.1-.9-2-2-2H9c-1.1 0-2 .9-2 2s.9 2 2 2h20c1.1 0 2-.9 2-2"/></g><g><path fill="#e6e7e8" d="M37 15c0-2.2-1.8-4-4-4H5c-2.2 0-4 1.8-4 4v8c0 2.2 1.8 4 4 4h28c2.2 0 4-1.8 4-4v-8z"/></g><path fill="#e6e7e8" d="M37 9H1V5h36v4z"/><path fill="#5c913b" d="M37 23H1V9h36v14z"/><path fill="#5c913b" d="M37 13H1v10h36V13z"/><path fill="#3e721d" d="M14 7H7v14h7V7z"/><path fill="#3e721d" d="M31 7h-7v14h7V7z"/><g><path fill="#88c9f9" d="M3 21H1V11h2c1.1 0 2 .9 2 2v6c0 1.1-.9 2-2 2"/></g><g><path fill="#88c9f9" d="M37 21h-2c-1.1 0-2-.9-2-2v-6c0-1.1.9-2 2-2h2v10z"/></g><g><path fill="#88c9f9" d="M22 15c0-.55-.45-1-1-1h-4c-.55 0-1 .45-1 1v4c0 .55.45 1 1 1h4c.55 0 1-.45 1-1v-4z"/></g><g><path fill="#88c9f9" d="M13 14c0-.55-.45-1-1-1H9c-.55 0-1 .45-1 1v5c0 .55.45 1 1 1h3c.55 0 1-.45 1-1v-5z"/></g><g><path fill="#88c9f9" d="M30 14c0-.55-.45-1-1-1h-3c-.55 0-1 .45-1 1v5c0 .55.45 1 1 1h3c.55 0 1-.45 1-1v-5z"/></g><path fill="#3e721d" d="M37 7H1v2h36V7z"/></g></g></g></svg>