<?xml version="1.0" encoding="UTF-8" standalone="no"?><svg xmlns:dc="http://purl.org/dc/elements/1.1/" xmlns:cc="http://creativecommons.org/ns#" xmlns:rdf="http://www.w3.org/1999/02/22-rdf-syntax-ns#" xmlns:svg="http://www.w3.org/2000/svg" xmlns="http://www.w3.org/2000/svg" viewBox="0 0 47.5 47.5" style="enable-background:new 0 0 47.5 47.5;" xml:space="preserve" version="1.1" id="svg2"><metadata id="metadata8"><rdf:RDF><cc:Work rdf:about=""><dc:format>image/svg+xml</dc:format><dc:type rdf:resource="http://purl.org/dc/dcmitype/StillImage"/></cc:Work></rdf:RDF></metadata><defs id="defs6"><clipPath id="clipPath28" clipPathUnits="userSpaceOnUse"><path id="path30" d="M 0,38 38,38 38,0 0,0 0,38 Z"/></clipPath></defs><g transform="matrix(1.25,0,0,-1.25,0,47.5)" id="g10"><g transform="translate(3,1)" id="g12"><path id="path14" style="fill:#a7a9ac;fill-opacity:1;fill-rule:nonzero;stroke:none" d="M 0,0 32,0 21,17 11,17 0,0 Z"/></g><g transform="translate(6,1)" id="g16"><path id="path18" style="fill:#58595b;fill-opacity:1;fill-rule:nonzero;stroke:none" d="M 0,0 26,0 16,17 10,17 0,0 Z"/></g><g transform="translate(9,1)" id="g20"><path id="path22" style="fill:#808285;fill-opacity:1;fill-rule:nonzero;stroke:none" d="M 0,0 20,0 11,17 9,17 0,0 Z"/></g><g id="g24"><g clip-path="url(#clipPath28)" id="g26"><g transform="translate(29,2)" id="g32"><path id="path34" style="fill:#a7a9ac;fill-opacity:1;fill-rule:nonzero;stroke:none" d="m 0,0 c 0,-0.553 -0.447,-1 -1,-1 l -18,0 c -0.552,0 -1,0.447 -1,1 0,0.553 0.448,1 1,1 L -1,1 C -0.447,1 0,0.553 0,0"/></g><g transform="translate(27,6)" id="g36"><path id="path38" style="fill:#a7a9ac;fill-opacity:1;fill-rule:nonzero;stroke:none" d="m 0,0 c 0,-0.553 -0.447,-1 -1,-1 l -14,0 c -0.552,0 -1,0.447 -1,1 0,0.553 0.448,1 1,1 L -1,1 C -0.447,1 0,0.553 0,0"/></g><g transform="translate(28.0762,11.7002)" id="g40"><path id="path42" style="fill:#58595b;fill-opacity:1;fill-rule:nonzero;stroke:none" d="m 0,0 -4.076,6.3 -10,0 -4.076,-6.3 c 1.888,-2.517 4.798,-4.699 9.076,-4.699 4.277,0 7.187,2.182 9.076,4.699"/></g><g transform="translate(19,37)" id="g44"><path id="path46" style="fill:#a7a9ac;fill-opacity:1;fill-rule:nonzero;stroke:none" d="m 0,0 c -9,0 -12,-3 -12,-9 l 0,-8 c 0,-1.999 3,-11 12,-11 9,0 12,9.001 12,11 l 0,8 C 12,-3 9,0 0,0"/></g><g transform="translate(9,26.0005)" id="g48"><path id="path50" style="fill:#e6e7e8;fill-opacity:1;fill-rule:nonzero;stroke:none" d="M 0,0 C 0,9 4.477,10 10,10 15.523,10 20,9 20,0 20,-6 15.523,-11 10,-11 4.477,-11 0,-6 0,0"/></g><g transform="translate(19,15.001)" id="g52"><path id="path54" style="fill:#ffac33;fill-opacity:1;fill-rule:nonzero;stroke:none" d="M 0,0 C 1.642,0 3.186,0.45 4.553,1.228 3.77,2.271 2.03,3 0,3 -2.03,3 -3.769,2.271 -4.552,1.228 -3.186,0.45 -1.641,0 0,0"/></g><g transform="translate(20,32.0029)" id="g56"><path id="path58" style="fill:#55acee;fill-opacity:1;fill-rule:nonzero;stroke:none" d="m 0,0 0,-4.965 c 3.488,0.232 6,1.62 6,2.463 l 0,1.666 C 6,-0.044 2.308,0.002 0,0"/></g><g transform="translate(18,32.0029)" id="g60"><path id="path62" style="fill:#55acee;fill-opacity:1;fill-rule:nonzero;stroke:none" d="m 0,0 c -2.308,0.002 -6,-0.044 -6,-0.836 l 0,-1.666 c 0,-0.843 2.512,-2.231 6,-2.463 L 0,0 Z"/></g><g transform="translate(7,27.0005)" id="g64"><path id="path66" style="fill:#226699;fill-opacity:1;fill-rule:nonzero;stroke:none" d="m 0,0 c 0,0 0,-3 4,-9 0,0 -4,2 -4,6 l 0,3 z"/></g><g transform="translate(31,27.0005)" id="g68"><path id="path70" style="fill:#226699;fill-opacity:1;fill-rule:nonzero;stroke:none" d="m 0,0 c 0,0 0,-3 -4,-9 0,0 4,2 4,6 l 0,3 z"/></g></g></g></g></svg>
