<?xml version="1.0" encoding="UTF-8" standalone="no"?><svg xmlns:svg="http://www.w3.org/2000/svg" xmlns="http://www.w3.org/2000/svg" version="1.1" viewBox="0 0 47.5 47.5" style="enable-background:new 0 0 47.5 47.5;" id="svg2" xml:space="preserve"><defs id="defs6"><clipPath id="clipPath20"><path d="M 0,38 38,38 38,0 0,0 0,38 z" id="path22"/></clipPath></defs><g transform="matrix(1.25,0,0,-1.25,0,47.5)" id="g12"><path d="M 37,3 1,3 1,1 37,1 37,3 z" id="path14" style="fill:#939598;fill-opacity:1;fill-rule:nonzero;stroke:none"/><g id="g16"><g clip-path="url(#clipPath20)" id="g18"><g transform="translate(11,5)" id="g24"><path d="m 0,0 c 0,1.657 -1.344,3 -3,3 -1.657,0 -3,-1.343 -3,-3 0,-1.657 1.343,-3 3,-3 1.656,0 3,1.343 3,3" id="path26" style="fill:#58595b;fill-opacity:1;fill-rule:nonzero;stroke:none"/></g><g transform="translate(10,5)" id="g28"><path d="m 0,0 c 0,1.105 -0.896,2 -2,2 -1.105,0 -2,-0.895 -2,-2 0,-1.105 0.895,-2 2,-2 1.104,0 2,0.895 2,2" id="path30" style="fill:#292f33;fill-opacity:1;fill-rule:nonzero;stroke:none"/></g><g transform="translate(33,5)" id="g32"><path d="m 0,0 c 0,1.657 -1.344,3 -3,3 -1.657,0 -3,-1.343 -3,-3 0,-1.657 1.343,-3 3,-3 1.656,0 3,1.343 3,3" id="path34" style="fill:#58595b;fill-opacity:1;fill-rule:nonzero;stroke:none"/></g><g transform="translate(32,5)" id="g36"><path d="m 0,0 c 0,1.105 -0.896,2 -2,2 -1.105,0 -2,-0.895 -2,-2 0,-1.105 0.895,-2 2,-2 1.104,0 2,0.895 2,2" id="path38" style="fill:#292f33;fill-opacity:1;fill-rule:nonzero;stroke:none"/></g><g transform="translate(35,35)" id="g40"><path d="m 0,0 -32,0 c -0.552,0 -1,0.448 -1,1 0,0.552 0.448,1 1,1 L 0,2 C 0.553,2 1,1.552 1,1 1,0.448 0.553,0 0,0" id="path42" style="fill:#e6e7e8;fill-opacity:1;fill-rule:nonzero;stroke:none"/></g><g transform="translate(18.4995,28.9146)" id="g44"><path d="M 0,0 -3.003,3.003 0,5.406 3.003,3.003 0,0 z M 5.499,3.141 C 5.483,3.425 5.347,3.689 5.125,3.867 L 1.443,6.812 C 1.53,7.114 1.492,7.447 1.281,7.71 0.967,8.104 0.421,8.179 0,7.931 -0.42,8.179 -0.966,8.105 -1.281,7.71 -1.492,7.447 -1.53,7.114 -1.443,6.812 L -5.125,3.867 C -5.347,3.689 -5.483,3.425 -5.499,3.141 -5.514,2.857 -5.408,2.58 -5.207,2.379 l 3.834,-3.835 c -0.197,-0.377 -0.151,-0.848 0.166,-1.165 0.195,-0.195 0.451,-0.293 0.707,-0.293 0.176,0 0.344,0.063 0.5,0.155 0.156,-0.092 0.324,-0.155 0.5,-0.155 0.256,0 0.512,0.098 0.707,0.293 0.317,0.317 0.363,0.788 0.165,1.165 L 5.208,2.379 C 5.409,2.58 5.515,2.857 5.499,3.141" id="path46" style="fill:#66757f;fill-opacity:1;fill-rule:nonzero;stroke:none"/></g><g transform="translate(31,27)" id="g48"><path d="m 0,0 c 0,-1.104 -0.896,-2 -2,-2 l -20,0 c -1.104,0 -2,0.896 -2,2 0,1.104 0.896,2 2,2 L -2,2 C -0.896,2 0,1.104 0,0" id="path50" style="fill:#bcbec0;fill-opacity:1;fill-rule:nonzero;stroke:none"/></g><g transform="translate(37,15)" id="g52"><path d="m 0,0 c 0,-2.209 -1.791,-4 -4,-4 l -28,0 c -2.209,0 -4,1.791 -4,4 l 0,8 c 0,2.209 1.791,4 4,4 l 28,0 c 2.209,0 4,-1.791 4,-4 L 0,0 z" id="path54" style="fill:#e6e7e8;fill-opacity:1;fill-rule:nonzero;stroke:none"/></g><path d="M 37,9 1,9 1,5 37,5 37,9 z" id="path56" style="fill:#e6e7e8;fill-opacity:1;fill-rule:nonzero;stroke:none"/><path d="M 37,23 1,23 1,9 37,9 37,23 z" id="path58" style="fill:#be1931;fill-opacity:1;fill-rule:nonzero;stroke:none"/><g transform="translate(37,23)" id="g60"><path d="m 0,0 -36,0 0,-10 6,0 0,-6 7,0 0,6 10,0 0,-6 7,0 0,6 6,0 0,10 z" id="path62" style="fill:#dd2e44;fill-opacity:1;fill-rule:nonzero;stroke:none"/></g><g transform="translate(3,21)" id="g64"><path d="m 0,0 -2,0 0,-10 2,0 c 1.104,0 2,0.896 2,2 l 0,6 C 2,-0.896 1.104,0 0,0" id="path66" style="fill:#55acee;fill-opacity:1;fill-rule:nonzero;stroke:none"/></g><g transform="translate(37,21)" id="g68"><path d="m 0,0 -2,0 c -1.104,0 -2,-0.896 -2,-2 l 0,-6 c 0,-1.104 0.896,-2 2,-2 l 2,0 0,10 z" id="path70" style="fill:#55acee;fill-opacity:1;fill-rule:nonzero;stroke:none"/></g><g transform="translate(22,15)" id="g72"><path d="m 0,0 c 0,-0.553 -0.448,-1 -1,-1 l -4,0 c -0.552,0 -1,0.447 -1,1 l 0,4 c 0,0.553 0.448,1 1,1 l 4,0 C -0.448,5 0,4.553 0,4 L 0,0 z" id="path74" style="fill:#55acee;fill-opacity:1;fill-rule:nonzero;stroke:none"/></g><g transform="translate(13,14)" id="g76"><path d="m 0,0 c 0,-0.553 -0.448,-1 -1,-1 l -3,0 c -0.552,0 -1,0.447 -1,1 l 0,5 c 0,0.552 0.448,1 1,1 l 3,0 C -0.448,6 0,5.552 0,5 L 0,0 z" id="path78" style="fill:#55acee;fill-opacity:1;fill-rule:nonzero;stroke:none"/></g><g transform="translate(30,14)" id="g80"><path d="m 0,0 c 0,-0.553 -0.447,-1 -1,-1 l -3,0 c -0.553,0 -1,0.447 -1,1 l 0,5 c 0,0.552 0.447,1 1,1 l 3,0 C -0.447,6 0,5.552 0,5 L 0,0 z" id="path82" style="fill:#55acee;fill-opacity:1;fill-rule:nonzero;stroke:none"/></g><path d="M 37,7 1,7 1,9 37,9 37,7 z" id="path84" style="fill:#a0041e;fill-opacity:1;fill-rule:nonzero;stroke:none"/></g></g></g></svg>
