<svg xmlns="http://www.w3.org/2000/svg" viewBox="0 0 47.5 47.5" enable-background="new 0 0 47.5 47.5"><defs><clipPath id="a"><path d="M0 38h38V0H0v38z"/></clipPath></defs><g><path fill="#939598" d="M46.25 43.75h-45v2.5h45v-2.5z"/><g><g clip-path="url(#a)" transform="matrix(1.25 0 0 -1.25 0 47.5)"><g><path fill="#bcbec0" d="M4 2h33v27S8 28 1 13c-2.12-4.53 6-6 6-6L4 2z"/></g><g><path fill="#3b88c3" d="M24 19L9 12H.7C.1 8.25 7 7 7 7L4 2h33v19.7L24 19z"/></g><g><path fill="#231f20" d="M15 2l2 3h20V2H15z"/></g><g><path fill="#e6e7e8" d="M37 22.86c-4.35-.36-13.4-1.62-19.58-6.05-5.6-4-11.88-3.88-16.03-3.8-.15 0-.28 0-.4 0-.35-.76-.42-1.42-.3-2 .23 0 .42 0 .65 0 .56-.02 1.16-.03 1.8-.03 4.2 0 10.1.42 15.43 4.22C23.8 18.9 32.03 20.42 37 20.85v2z"/></g><g><path fill="#a7a9ac" d="M13 21l3.88 4.93C21.73 27.87 30 28.98 37 28.98v-2c-7 0-18-1.98-24-5.98"/></g><g><path fill="#58595b" d="M4.1 17.54c1.67.4 3.6.72 5.44 1.65C19 24 20 26.97 20 27c-7 0-12-4-15.9-9.46"/></g><g><path fill="#269" d="M7 7h30v2H2.1C4 7.55 7 7 7 7"/></g><g><path fill="#ffe8b6" d="M4.55 14.86c.47-.04 1-.02 1.6.06 1.63.22 2.9.84 2.83 1.4-.07.53-1.44.8-3.05.58-.65-.63-1.12-1.32-1.38-2.04"/></g></g></g></g></svg>