<?xml version="1.0" encoding="UTF-8" standalone="no"?>
<!-- Created with Inkscape (http://www.inkscape.org/) -->

<svg
   xmlns:svg="http://www.w3.org/2000/svg"
   xmlns="http://www.w3.org/2000/svg"
   version="1.1"
   width="47.5"
   height="47.5"
   id="svg2"
   xml:space="preserve"><defs
     id="defs6"><clipPath
       id="clipPath20"><path
         d="M 0,38 38,38 38,0 0,0 0,38 z"
         id="path22" /></clipPath></defs><g
     transform="matrix(1.25,0,0,-1.25,0,47.5)"
     id="g12"><path
       d="M 37,3 1,3 1,1 37,1 37,3 z"
       id="path14"
       style="fill:#939598;fill-opacity:1;fill-rule:nonzero;stroke:none" /><g
       id="g16"><g
         clip-path="url(#clipPath20)"
         id="g18"><g
           transform="translate(11,5)"
           id="g24"><path
             d="m 0,0 c 0,1.657 -1.344,3 -3,3 -1.657,0 -3,-1.343 -3,-3 0,-1.657 1.343,-3 3,-3 1.656,0 3,1.343 3,3"
             id="path26"
             style="fill:#58595b;fill-opacity:1;fill-rule:nonzero;stroke:none" /></g><g
           transform="translate(10,5)"
           id="g28"><path
             d="m 0,0 c 0,1.105 -0.896,2 -2,2 -1.105,0 -2,-0.895 -2,-2 0,-1.105 0.895,-2 2,-2 1.104,0 2,0.895 2,2"
             id="path30"
             style="fill:#292f33;fill-opacity:1;fill-rule:nonzero;stroke:none" /></g><g
           transform="translate(33,5)"
           id="g32"><path
             d="m 0,0 c 0,1.657 -1.344,3 -3,3 -1.657,0 -3,-1.343 -3,-3 0,-1.657 1.343,-3 3,-3 1.656,0 3,1.343 3,3"
             id="path34"
             style="fill:#58595b;fill-opacity:1;fill-rule:nonzero;stroke:none" /></g><g
           transform="translate(32,5)"
           id="g36"><path
             d="m 0,0 c 0,1.105 -0.896,2 -2,2 -1.105,0 -2,-0.895 -2,-2 0,-1.105 0.895,-2 2,-2 1.104,0 2,0.895 2,2"
             id="path38"
             style="fill:#292f33;fill-opacity:1;fill-rule:nonzero;stroke:none" /></g><g
           transform="translate(35,35)"
           id="g40"><path
             d="m 0,0 -32,0 c -0.552,0 -1,0.448 -1,1 0,0.552 0.448,1 1,1 L 0,2 C 0.553,2 1,1.552 1,1 1,0.448 0.553,0 0,0"
             id="path42"
             style="fill:#e6e7e8;fill-opacity:1;fill-rule:nonzero;stroke:none" /></g><g
           transform="translate(18.9995,26.0005)"
           id="g44"><path
             d="m 0,0 c -0.256,0 -0.512,0.098 -0.707,0.293 l -5,5 c -0.201,0.201 -0.307,0.478 -0.292,0.762 0.016,0.284 0.152,0.548 0.374,0.726 l 5,4 c 0.431,0.344 1.062,0.275 1.406,-0.156 C 1.125,10.193 1.056,9.564 0.625,9.219 l -4.128,-3.302 4.21,-4.21 c 0.39,-0.391 0.39,-1.023 0,-1.414 C 0.512,0.098 0.256,0 0,0"
             id="path46"
             style="fill:#66757f;fill-opacity:1;fill-rule:nonzero;stroke:none" /></g><g
           transform="translate(17.9995,26.0005)"
           id="g48"><path
             d="m 0,0 c -0.256,0 -0.512,0.098 -0.707,0.293 -0.391,0.391 -0.391,1.023 0,1.414 l 4.21,4.21 -4.128,3.302 c -0.431,0.345 -0.501,0.974 -0.156,1.406 0.345,0.432 0.976,0.5 1.406,0.156 l 5,-4 C 5.847,6.603 5.983,6.339 5.999,6.055 6.015,5.771 5.909,5.494 5.708,5.293 l -5.001,-5 C 0.512,0.098 0.256,0 0,0"
             id="path50"
             style="fill:#66757f;fill-opacity:1;fill-rule:nonzero;stroke:none" /></g><g
           transform="translate(31,27)"
           id="g52"><path
             d="m 0,0 c 0,-1.104 -0.896,-2 -2,-2 l -20,0 c -1.104,0 -2,0.896 -2,2 0,1.104 0.896,2 2,2 L -2,2 C -0.896,2 0,1.104 0,0"
             id="path54"
             style="fill:#bcbec0;fill-opacity:1;fill-rule:nonzero;stroke:none" /></g><g
           transform="translate(37,15)"
           id="g56"><path
             d="m 0,0 c 0,-2.209 -1.791,-4 -4,-4 l -28,0 c -2.209,0 -4,1.791 -4,4 l 0,8 c 0,2.209 1.791,4 4,4 l 28,0 c 2.209,0 4,-1.791 4,-4 L 0,0 z"
             id="path58"
             style="fill:#e6e7e8;fill-opacity:1;fill-rule:nonzero;stroke:none" /></g><path
           d="M 37,9 1,9 1,5 37,5 37,9 z"
           id="path60"
           style="fill:#e6e7e8;fill-opacity:1;fill-rule:nonzero;stroke:none" /><path
           d="M 37,23 1,23 1,9 37,9 37,23 z"
           id="path62"
           style="fill:#5c913b;fill-opacity:1;fill-rule:nonzero;stroke:none" /><path
           d="M 37,13 1,13 1,23 37,23 37,13 z"
           id="path64"
           style="fill:#5c913b;fill-opacity:1;fill-rule:nonzero;stroke:none" /><path
           d="M 14,7 7,7 7,21 14,21 14,7 z"
           id="path66"
           style="fill:#3e721d;fill-opacity:1;fill-rule:nonzero;stroke:none" /><path
           d="m 31,7 -7,0 0,14 7,0 0,-14 z"
           id="path68"
           style="fill:#3e721d;fill-opacity:1;fill-rule:nonzero;stroke:none" /><g
           transform="translate(3,21)"
           id="g70"><path
             d="m 0,0 -2,0 0,-10 2,0 c 1.104,0 2,0.896 2,2 l 0,6 C 2,-0.896 1.104,0 0,0"
             id="path72"
             style="fill:#88c9f9;fill-opacity:1;fill-rule:nonzero;stroke:none" /></g><g
           transform="translate(37,21)"
           id="g74"><path
             d="m 0,0 -2,0 c -1.104,0 -2,-0.896 -2,-2 l 0,-6 c 0,-1.104 0.896,-2 2,-2 l 2,0 0,10 z"
             id="path76"
             style="fill:#88c9f9;fill-opacity:1;fill-rule:nonzero;stroke:none" /></g><g
           transform="translate(22,15)"
           id="g78"><path
             d="m 0,0 c 0,-0.553 -0.448,-1 -1,-1 l -4,0 c -0.552,0 -1,0.447 -1,1 l 0,4 c 0,0.553 0.448,1 1,1 l 4,0 C -0.448,5 0,4.553 0,4 L 0,0 z"
             id="path80"
             style="fill:#88c9f9;fill-opacity:1;fill-rule:nonzero;stroke:none" /></g><g
           transform="translate(13,14)"
           id="g82"><path
             d="m 0,0 c 0,-0.553 -0.448,-1 -1,-1 l -3,0 c -0.552,0 -1,0.447 -1,1 l 0,5 c 0,0.552 0.448,1 1,1 l 3,0 C -0.448,6 0,5.552 0,5 L 0,0 z"
             id="path84"
             style="fill:#88c9f9;fill-opacity:1;fill-rule:nonzero;stroke:none" /></g><g
           transform="translate(30,14)"
           id="g86"><path
             d="m 0,0 c 0,-0.553 -0.447,-1 -1,-1 l -3,0 c -0.553,0 -1,0.447 -1,1 l 0,5 c 0,0.552 0.447,1 1,1 l 3,0 C -0.447,6 0,5.552 0,5 L 0,0 z"
             id="path88"
             style="fill:#88c9f9;fill-opacity:1;fill-rule:nonzero;stroke:none" /></g><path
           d="M 37,7 1,7 1,9 37,9 37,7 z"
           id="path90"
           style="fill:#3e721d;fill-opacity:1;fill-rule:nonzero;stroke:none" /></g></g></g></svg>