<svg xmlns="http://www.w3.org/2000/svg" viewBox="0 0 47.5 47.5" enable-background="new 0 0 47.5 47.5"><defs><clipPath id="a"><path d="M0 38h38V0H0v38z"/></clipPath></defs><g><path fill="#66757f" d="M25 40h-2.5v-6.25H25V40z"/><path fill="#66757f" d="M12.5 33.75H15V40h-2.5v-6.25z"/><g><g clip-path="url(#a)" transform="matrix(1.25 0 0 -1.25 0 47.5)"><g><path fill="#99aab5" d="M14 34c0-.55-2.7-1-6-1s-6 .45-6 1 2.7 1 6 1 6-.45 6-1"/></g><g><path fill="#99aab5" d="M28 34c0-.55-2.7-1-6-1-3.32 0-6 .45-6 1s2.68 1 6 1c3.3 0 6-.45 6-1"/></g><path fill="#99aab5" d="M16 28h-2v6h2v-6z"/><g><path fill="#66757f" d="M17 34c0-.55-.9-1-2-1s-2 .45-2 1 .9 1 2 1 2-.45 2-1"/></g><g><path fill="#ffcc4d" d="M36 27c0 3 0 7-1 7s-3-4-4-6 5-1 5-1"/></g><g><path fill="#ffcc4d" d="M36 27c0 2.2-8 3-19 3h-2C8.37 30 2.25 24.55 2.25 18.75S6 9 15 9s12 4.7 12 10.5c0 .88-.14 1.73-.37 2.55C31 23 36 25 36 27"/></g><g><path fill="#3b88c3" d="M6 24c-2.1-2.92-3.07-7.6 1.2-7.78C12 16 14 16 15.07 18.6c1.37 3.3.94 7.4-.27 8.18-2.33 1.5-6.7.14-8.8-2.78"/></g><g><path fill="#3b88c3" d="M22.84 24.46C25 21 24.9 18.3 21 17c-3-1-4 2-3.84 5.53.1 2.5.2 4.2 1.84 4.47 1.45.24 2.53-.43 3.84-2.54"/></g><g><path fill="#99aab5" d="M33.18 29.9c.9-1.3 1.27-2.58.82-2.9-.45-.32-1.55.46-2.45 1.73-.9 1.27-1.27 2.56-.82 2.88.45.33 1.55-.44 2.45-1.7"/></g><g><path fill="#99aab5" d="M36.46 25.26c.9-1.27 1.28-2.57.83-2.9-.46-.3-1.56.47-2.47 1.75-.9 1.3-1.28 2.58-.83 2.9.45.32 1.55-.46 2.46-1.74"/></g><g><path fill="#66757f" d="M34.82 27.58c.32-.45.2-1.07-.24-1.4-.45-.3-1.07-.2-1.4.24-.3.45-.2 1.08.24 1.4.45.32 1.08.2 1.4-.24"/></g><g><path fill="#99aab5" d="M27 5c0-1.1-.9-2-2-2H5c-1.1 0-2 .9-2 2s.9 2 2 2h20c1.1 0 2-.9 2-2"/></g></g></g></g></svg>