<?xml version="1.0" encoding="UTF-8" standalone="no"?><svg xmlns:dc="http://purl.org/dc/elements/1.1/" xmlns:cc="http://creativecommons.org/ns#" xmlns:rdf="http://www.w3.org/1999/02/22-rdf-syntax-ns#" xmlns:svg="http://www.w3.org/2000/svg" xmlns="http://www.w3.org/2000/svg" viewBox="0 0 47.5 47.5" style="enable-background:new 0 0 47.5 47.5;" xml:space="preserve" version="1.1" id="svg2"><metadata id="metadata8"><rdf:RDF><cc:Work rdf:about=""><dc:format>image/svg+xml</dc:format><dc:type rdf:resource="http://purl.org/dc/dcmitype/StillImage"/></cc:Work></rdf:RDF></metadata><defs id="defs6"><clipPath id="clipPath22" clipPathUnits="userSpaceOnUse"><path id="path24" d="M 0,38 38,38 38,0 0,0 0,38 Z"/></clipPath></defs><g transform="matrix(1.25,0,0,-1.25,0,47.5)" id="g10"><path id="path12" style="fill:#6d6e71;fill-opacity:1;fill-rule:nonzero;stroke:none" d="m 17,1 -2,0 0,29 2,0 0,-29 z"/><path id="path14" style="fill:#6d6e71;fill-opacity:1;fill-rule:nonzero;stroke:none" d="m 19,16 -3,0 0,2 3,0 0,-2 z"/><path id="path16" style="fill:#6d6e71;fill-opacity:1;fill-rule:nonzero;stroke:none" d="m 19,22 -3,0 0,2 3,0 0,-2 z"/><g id="g18"><g clip-path="url(#clipPath22)" id="g20"><g transform="translate(30,13)" id="g26"><path id="path28" style="fill:#bcbec0;fill-opacity:1;fill-rule:nonzero;stroke:none" d="m 0,0 c 0,-0.553 -0.447,-1 -1,-1 l -9,0 c -0.553,0 -1,0.447 -1,1 l 0,14 c 0,0.552 0.447,1 1,1 l 9,0 c 0.553,0 1,-0.448 1,-1 L 0,0 Z"/></g><g transform="translate(30,24)" id="g30"><path id="path32" style="fill:#be1931;fill-opacity:1;fill-rule:nonzero;stroke:none" d="m 0,0 0,3 c 0,0.552 -0.447,1 -1,1 l -9,0 c -0.553,0 -1,-0.448 -1,-1 l 0,-3 11,0 z"/></g><g transform="translate(22,3)" id="g34"><path id="path36" style="fill:#6d6e71;fill-opacity:1;fill-rule:nonzero;stroke:none" d="m 0,0 -12,0 -1,-1 0,-1 14,0 0,1 -1,1 z"/></g><g transform="translate(20,5)" id="g38"><path id="path40" style="fill:#6d6e71;fill-opacity:1;fill-rule:nonzero;stroke:none" d="m 0,0 -8,0 -1,-1 0,-1 10,0 0,1 -1,1 z"/></g><g transform="translate(12,33)" id="g42"><path id="path44" style="fill:#be1931;fill-opacity:1;fill-rule:nonzero;stroke:none" d="M 0,0 C 0,2.209 1.791,4 4,4 6.209,4 8,2.209 8,0 8,-2.209 6.209,-4 4,-4 1.791,-4 0,-2.209 0,0"/></g><path id="path46" style="fill:#808285;fill-opacity:1;fill-rule:nonzero;stroke:none" d="m 24,21 -3,0 0,3 3,0 0,-3 z"/><path id="path48" style="fill:#f4900c;fill-opacity:1;fill-rule:nonzero;stroke:none" d="m 24,17 -3,0 0,3 3,0 0,-3 z"/><path id="path50" style="fill:#f4900c;fill-opacity:1;fill-rule:nonzero;stroke:none" d="m 24,13 -3,0 0,3 3,0 0,-3 z"/><path id="path52" style="fill:#808285;fill-opacity:1;fill-rule:nonzero;stroke:none" d="m 28,21 -3,0 0,3 3,0 0,-3 z"/><path id="path54" style="fill:#808285;fill-opacity:1;fill-rule:nonzero;stroke:none" d="m 28,17 -3,0 0,3 3,0 0,-3 z"/><path id="path56" style="fill:#f4900c;fill-opacity:1;fill-rule:nonzero;stroke:none" d="m 28,13 -3,0 0,3 3,0 0,-3 z"/><path id="path58" style="fill:#dd2e44;fill-opacity:1;fill-rule:nonzero;stroke:none" d="m 18,31 -4,0 0,4 4,0 0,-4 z"/><path id="path60" style="fill:#dd2e44;fill-opacity:1;fill-rule:nonzero;stroke:none" d="m 28,25 -7,0 0,2 7,0 0,-2 z"/></g></g></g></svg>
