<svg xmlns="http://www.w3.org/2000/svg" viewBox="0 0 47.5 47.5" enable-background="new 0 0 47.5 47.5"><defs><clipPath id="a"><path d="M0 38h38V0H0v38z"/></clipPath></defs><g><path fill="#939598" d="M46.25 43.75h-45v2.5h45v-2.5z"/><path fill="#231f20" d="M45 41.25H8.75V35H45v6.25z"/><g><g clip-path="url(#a)" transform="matrix(1.25 0 0 -1.25 0 47.5)"><g><path fill="#58595b" d="M5 5c0 1.66 1.34 3 3 3s3-1.34 3-3-1.34-3-3-3-3 1.34-3 3"/></g><g><path fill="#58595b" d="M11 5c0 1.66 1.34 3 3 3s3-1.34 3-3-1.34-3-3-3-3 1.34-3 3"/></g><g><path fill="#a0041e" d="M6.5 5c0 .83.67 1.5 1.5 1.5S9.5 5.83 9.5 5 8.83 3.5 8 3.5 6.5 4.17 6.5 5"/></g><g><path fill="#a0041e" d="M12.5 5c0 .83.67 1.5 1.5 1.5s1.5-.67 1.5-1.5-.67-1.5-1.5-1.5-1.5.67-1.5 1.5"/></g><g><path fill="#dd2e44" d="M6 4H2c-1 0-1.5.5 0 2l4 4c1 1 2 2 2 0V6c0-2 0-2-2-2"/></g><g><path fill="#231f20" d="M9 17c0-3.3-1.34-6-3-6s-3 2.7-3 6 1.34 6 3 6 3-2.7 3-6"/></g><g><path fill="#6d6e71" d="M12 22H8l-2 8h8l-2-8z"/></g><g><path fill="#414042" d="M27 12c0-1.1-.9-2-2-2H7c-1.1 0-2 .9-2 2v10c0 1.1.9 2 2 2h18c1.1 0 2-.9 2-2V12z"/></g><g><path fill="#c1694f" d="M14 11c0-.55-.45-1-1-1s-1 .45-1 1v13c0 .55.45 1 1 1s1-.45 1-1V11z"/></g><g><path fill="#c1694f" d="M20 11c0-.55-.45-1-1-1s-1 .45-1 1v13c0 .55.45 1 1 1s1-.45 1-1V11z"/></g><g><path fill="#808285" d="M37 11c0-.55-.45-1-1-1H8c-.55 0-1 .45-1 1s.45 1 1 1h28c.55 0 1-.45 1-1"/></g><g><path fill="#58595b" d="M27 6c0 2.2 1.8 4 4 4s4-1.8 4-4-1.8-4-4-4-4 1.8-4 4"/></g><g><path fill="#58595b" d="M19 6c0 2.2 1.8 4 4 4s4-1.8 4-4-1.8-4-4-4-4 1.8-4 4"/></g><g><path fill="#a0041e" d="M29 6c0 1.1.9 2 2 2s2-.9 2-2-.9-2-2-2-2 .9-2 2"/></g><g><path fill="#a0041e" d="M21 6c0 1.1.9 2 2 2s2-.9 2-2-.9-2-2-2-2 .9-2 2"/></g><g><path fill="#414042" d="M13 34H7c-.55 0-1-.45-1-1v-3h8v3c0 .55-.45 1-1 1"/></g><path fill="#be1931" d="M36 30H24V12h12v18z"/><g><path fill="#a0041e" d="M37 31c0-.55-.45-1-1-1H24c-.55 0-1 .45-1 1s.45 1 1 1h12c.55 0 1-.45 1-1"/></g><path fill="#ea596e" d="M34 14h-8v5h8v-5z"/><g><path fill="#f4900c" d="M31 5h-8c-.13 0-.25.02-.37.07L17.8 7H11c-.55 0-1 .45-1 1s.45 1 1 1h7c.13 0 .25-.02.37-.07L23.2 7H31c.55 0 1-.45 1-1s-.45-1-1-1"/></g><g><path fill="#55acee" d="M34 27c0 .55-.45 1-1 1h-6c-.55 0-1-.45-1-1v-5c0-.55.45-1 1-1h6c.55 0 1 .45 1 1v5z"/></g></g></g></g></svg>