<?xml version="1.0" encoding="UTF-8" standalone="no"?><svg xmlns:dc="http://purl.org/dc/elements/1.1/" xmlns:cc="http://creativecommons.org/ns#" xmlns:rdf="http://www.w3.org/1999/02/22-rdf-syntax-ns#" xmlns:svg="http://www.w3.org/2000/svg" xmlns="http://www.w3.org/2000/svg" viewBox="0 0 47.5 47.5" style="enable-background:new 0 0 47.5 47.5;" xml:space="preserve" version="1.1" id="svg2"><metadata id="metadata8"><rdf:RDF><cc:Work rdf:about=""><dc:format>image/svg+xml</dc:format><dc:type rdf:resource="http://purl.org/dc/dcmitype/StillImage"/></cc:Work></rdf:RDF></metadata><defs id="defs6"><clipPath id="clipPath16" clipPathUnits="userSpaceOnUse"><path id="path18" d="M 0,38 38,38 38,0 0,0 0,38 Z"/></clipPath></defs><g transform="matrix(1.25,0,0,-1.25,0,47.5)" id="g10"><g id="g12"><g clip-path="url(#clipPath16)" id="g14"><g transform="translate(12,3)" id="g20"><path id="path22" style="fill:#292f33;fill-opacity:1;fill-rule:nonzero;stroke:none" d="m 0,0 c 0,-1.104 -0.896,-2 -2,-2 l -2,0 c -1.104,0 -2,0.896 -2,2 l 0,7 c 0,1.104 0.896,2 2,2 l 2,0 C -0.896,9 0,8.104 0,7 L 0,0 Z"/></g><g transform="translate(32,3)" id="g24"><path id="path26" style="fill:#292f33;fill-opacity:1;fill-rule:nonzero;stroke:none" d="m 0,0 c 0,-1.104 -0.896,-2 -2,-2 l -2,0 c -1.104,0 -2,0.896 -2,2 l 0,7 c 0,1.104 0.896,2 2,2 l 2,0 C -0.896,9 0,8.104 0,7 L 0,0 Z"/></g><g transform="translate(4,20)" id="g28"><path id="path30" style="fill:#99aab5;fill-opacity:1;fill-rule:nonzero;stroke:none" d="m 0,0 c 0,-0.553 -0.448,-1 -1,-1 l -1,0 c -0.552,0 -1,0.447 -1,1 l 0,7 c 0,0.552 0.448,1 1,1 l 1,0 C -0.448,8 0,7.552 0,7 L 0,0 Z"/></g><g transform="translate(37,20)" id="g32"><path id="path34" style="fill:#99aab5;fill-opacity:1;fill-rule:nonzero;stroke:none" d="m 0,0 c 0,-0.553 -0.447,-1 -1,-1 l -1,0 c -0.553,0 -1,0.447 -1,1 l 0,7 c 0,0.552 0.447,1 1,1 l 1,0 C -0.447,8 0,7.552 0,7 L 0,0 Z"/></g><g transform="translate(36,26)" id="g36"><path id="path38" style="fill:#99aab5;fill-opacity:1;fill-rule:nonzero;stroke:none" d="m 0,0 c 0,-0.552 -0.447,-1 -1,-1 l -32,0 c -0.552,0 -1,0.448 -1,1 0,0.552 0.448,1 1,1 L -1,1 C -0.447,1 0,0.552 0,0"/></g><g transform="translate(36,22)" id="g40"><path id="path42" style="fill:#99aab5;fill-opacity:1;fill-rule:nonzero;stroke:none" d="m 0,0 c 0,-0.553 -0.447,-1 -1,-1 l -32,0 c -0.552,0 -1,0.447 -1,1 0,0.553 0.448,1 1,1 L -1,1 C -0.447,1 0,0.553 0,0"/></g><g transform="translate(25,35)" id="g44"><path id="path46" style="fill:#ccd6dd;fill-opacity:1;fill-rule:nonzero;stroke:none" d="m 0,0 c 0,-1.104 -0.896,-2 -2,-2 l -8,0 c -1.104,0 -2,0.896 -2,2 0,1.104 0.896,2 2,2 l 8,0 C -0.896,2 0,1.104 0,0"/></g><g transform="translate(29,35)" id="g48"><path id="path50" style="fill:#ccd6dd;fill-opacity:1;fill-rule:nonzero;stroke:none" d="m 0,0 -20,0 c -2.209,0 -4,-1.791 -4,-4 l 0,-20 0,-2 0,-4 4,0 20,0 4,0 0,4 0,2 0,20 C 4,-1.791 2.209,0 0,0"/></g><path id="path52" style="fill:#ffcc4d;fill-opacity:1;fill-rule:nonzero;stroke:none" d="M 33,5 5,5 5,21 33,21 33,5 Z"/><g transform="translate(34,5)" id="g54"><path id="path56" style="fill:#66757f;fill-opacity:1;fill-rule:nonzero;stroke:none" d="m 0,0 c 0,-0.553 -0.447,-1 -1,-1 l -28,0 c -0.552,0 -1,0.447 -1,1 l 0,1 c 0,0.553 0.448,1 1,1 L -1,2 C -0.447,2 0,1.553 0,1 L 0,0 Z"/></g><g transform="translate(33,20)" id="g58"><path id="path60" style="fill:#66757f;fill-opacity:1;fill-rule:nonzero;stroke:none" d="m 0,0 c 0,-1.657 -1.343,-3 -3,-3 l -22,0 c -1.657,0 -3,1.343 -3,3 l 0,7 c 0,1.657 1.343,3 3,3 l 22,0 C -1.343,10 0,8.657 0,7 L 0,0 Z"/></g><g transform="translate(31,20.9995)" id="g62"><path id="path64" style="fill:#88c9f9;fill-opacity:1;fill-rule:nonzero;stroke:none" d="m 0,0 c 0,-1.104 -0.896,-2 -2,-2 l -20,0 c -1.104,0 -2,0.896 -2,2 l 0,5.001 C -24,6.105 -23.104,7 -22,7 L -2,7 C -0.896,7 0,6.105 0,5.001 L 0,0 Z"/></g><path id="path66" style="fill:#ffac33;fill-opacity:1;fill-rule:nonzero;stroke:none" d="M 33,7 5,7 5,12 33,12 33,7 Z"/><path id="path68" style="fill:#ffffff;fill-opacity:1;fill-rule:nonzero;stroke:none" d="m 13,9 -6,0 0,3 6,0 0,-3 z"/><path id="path70" style="fill:#ffffff;fill-opacity:1;fill-rule:nonzero;stroke:none" d="m 31,9 -6,0 0,3 6,0 0,-3 z"/><path id="path72" style="fill:#dd2e44;fill-opacity:1;fill-rule:nonzero;stroke:none" d="M 7,9 5,9 5,12 7,12 7,9 Z"/><path id="path74" style="fill:#dd2e44;fill-opacity:1;fill-rule:nonzero;stroke:none" d="m 33,9 -2,0 0,3 2,0 0,-3 z"/><path id="path76" style="fill:#66757f;fill-opacity:1;fill-rule:nonzero;stroke:none" d="m 23,9 -8,0 0,3 8,0 0,-3 z"/><g transform="translate(23,33.5)" id="g78"><path id="path80" style="fill:#292f33;fill-opacity:1;fill-rule:nonzero;stroke:none" d="m 0,0 c 0,-0.829 -0.672,-1.5 -1.5,-1.5 l -5,0 c -0.829,0 -1.5,0.671 -1.5,1.5 0,0.829 0.671,1.5 1.5,1.5 l 5,0 C -0.672,1.5 0,0.829 0,0"/></g></g></g></g></svg>
