<?xml version="1.0" encoding="UTF-8" standalone="no"?>
<!-- Created with Inkscape (http://www.inkscape.org/) -->

<svg
   xmlns:svg="http://www.w3.org/2000/svg"
   xmlns="http://www.w3.org/2000/svg"
   version="1.1"
   width="47.5"
   height="47.5"
   id="svg2"
   xml:space="preserve"><defs
     id="defs6"><clipPath
       id="clipPath20"><path
         d="M 0,38 38,38 38,0 0,0 0,38 z"
         id="path22" /></clipPath></defs><g
     transform="matrix(1.25,0,0,-1.25,0,47.5)"
     id="g12"><path
       d="M 37,3 1,3 1,1 37,1 37,3 z"
       id="path14"
       style="fill:#939598;fill-opacity:1;fill-rule:nonzero;stroke:none" /><g
       id="g16"><g
         clip-path="url(#clipPath20)"
         id="g18"><g
           transform="translate(4,2)"
           id="g24"><path
             d="m 0,0 33,0 0,29 -15,0 c -4,0 -5,-2 -5,-2 L 9,21 c 0,0 -12,-5 -12,-9.999 0,-4 6,-6 6,-6 L 0,0 z"
             id="path26"
             style="fill:#d1d3d4;fill-opacity:1;fill-rule:nonzero;stroke:none" /></g><g
           transform="translate(15,2)"
           id="g28"><path
             d="M 0,0 2,3 22,3 22,0 0,0 z"
             id="path30"
             style="fill:#231f20;fill-opacity:1;fill-rule:nonzero;stroke:none" /></g><g
           transform="translate(1,13.001)"
           id="g32"><path
             d="M 0,0 C 0,-4 6,-6 6,-6 L 6,6.875 C 3,5 0,2.5 0,0"
             id="path34"
             style="fill:#3b88c3;fill-opacity:1;fill-rule:nonzero;stroke:none" /></g><g
           transform="translate(7,7)"
           id="g36"><path
             d="M 0,0 0,0.001 0,0 z"
             id="path38"
             style="fill:#3b88c3;fill-opacity:1;fill-rule:nonzero;stroke:none" /></g><g
           transform="translate(7,7)"
           id="g40"><path
             d="M 0,0 -3,-5 30,-5 30,0 0,0 z"
             id="path42"
             style="fill:#226699;fill-opacity:1;fill-rule:nonzero;stroke:none" /></g><g
           transform="translate(21,7)"
           id="g44"><path
             d="M 0,0 4,6 16,6 16,0 0,0 z"
             id="path46"
             style="fill:#3b88c3;fill-opacity:1;fill-rule:nonzero;stroke:none" /></g><g
           transform="translate(27,29)"
           id="g48"><path
             d="m 0,0 -10,0 -4,-6 -10e-4,0 10.843,0 c 0.476,0 1.108,0.448 1.412,1 l 2.197,4 C 0.754,-0.448 0.553,0 0,0"
             id="path50"
             style="fill:#55acee;fill-opacity:1;fill-rule:nonzero;stroke:none" /></g><g
           transform="translate(26.9023,27)"
           id="g52"><path
             d="M 0,0 0.549,1 C 0.852,1.552 0.65,2 0.098,2 L -9.903,2 -11.236,0 0,0 z"
             id="path54"
             style="fill:#3b88c3;fill-opacity:1;fill-rule:nonzero;stroke:none" /></g></g></g></g></svg>