<svg xmlns="http://www.w3.org/2000/svg" viewBox="0 0 47.5 47.5" enable-background="new 0 0 47.5 47.5"><defs><clipPath id="a"><path d="M0 38h38V0H0v38z"/></clipPath></defs><g><path fill="#939598" d="M46.25 43.75h-45v2.5h45v-2.5z"/><g><g clip-path="url(#a)" transform="matrix(1.25 0 0 -1.25 0 47.5)"><g><path fill="#d1d3d4" d="M6 4.94L37 5v26H18c-6 0-7-3-7-3S6 15 6 13V4.94z"/></g><g><path fill="#d1d3d4" d="M15 7c0-.55-.45-1-1-1H6c-.55 0-1 .45-1 1v2c0 .55.45 1 1 1h8c.55 0 1-.45 1-1V7z"/></g><g><path fill="#f4900c" d="M37 2H5.53C5 2 4.4 2.67 4.17 3.5l-.78 3C3.17 7.33 4 8 5 8h32V2z"/></g><g><path fill="#414042" d="M37 27H23c-1.98 0-3.9-1.8-4.28-4l-1.03-6c-.4-2.2 1.1-4 3.3-4h16v14z"/></g><g><path fill="#3b88c3" d="M37 25H24.1c-2.1 0-2.8-1.28-3.07-2.86l-.73-4.28c-.28-1.58.12-2.86 1.7-2.86h15v10z"/></g><g><path fill="#414042" d="M18 31c-6 0-7-3-7-3S6 15.02 6 13c2.45.04 4.12.35 5 3 1 3 2 7 3 9s2 3 5 3c2.5 0 3.6 1.4 3.9 3H18z"/></g><g><path fill="#55acee" d="M10 19c.94 2.83 3.66 7.44.6 7.95-.84-2.22-2.8-7.5-3.88-10.95H7s2 0 3 3"/></g><g><path fill="#dd2e44" d="M10 11c0-.55-.45-1-1-1H7c-.55 0-1 .45-1 1s.45 1 1 1h2c.55 0 1-.45 1-1"/></g></g></g></g></svg>