<svg xmlns="http://www.w3.org/2000/svg" viewBox="0 0 47.5 47.5" enable-background="new 0 0 47.5 47.5"><defs><clipPath id="a"><path d="M0 38h38V0H0v38z"/></clipPath></defs><g><g><g clip-path="url(#a)" transform="matrix(1.25 0 0 -1.25 0 47.5)"><g><path fill="#292f33" d="M12 3c0-1.1-.9-2-2-2H8c-1.1 0-2 .9-2 2v7c0 1.1.9 2 2 2h2c1.1 0 2-.9 2-2V3z"/></g><g><path fill="#292f33" d="M32 3c0-1.1-.9-2-2-2h-2c-1.1 0-2 .9-2 2v7c0 1.1.9 2 2 2h2c1.1 0 2-.9 2-2V3z"/></g><g><path fill="#99aab5" d="M4 20c0-.55-.45-1-1-1H2c-.55 0-1 .45-1 1v7c0 .55.45 1 1 1h1c.55 0 1-.45 1-1v-7z"/></g><g><path fill="#99aab5" d="M37 20c0-.55-.45-1-1-1h-1c-.55 0-1 .45-1 1v7c0 .55.45 1 1 1h1c.55 0 1-.45 1-1v-7z"/></g><g><path fill="#99aab5" d="M36 26c0-.55-.45-1-1-1H3c-.55 0-1 .45-1 1s.45 1 1 1h32c.55 0 1-.45 1-1"/></g><g><path fill="#99aab5" d="M36 22c0-.55-.45-1-1-1H3c-.55 0-1 .45-1 1s.45 1 1 1h32c.55 0 1-.45 1-1"/></g><g><path fill="#ccd6dd" d="M25 35c0-1.1-.9-2-2-2h-8c-1.1 0-2 .9-2 2s.9 2 2 2h8c1.1 0 2-.9 2-2"/></g><g><path fill="#ccd6dd" d="M29 35H9c-2.2 0-4-1.8-4-4V5h28v26c0 2.2-1.8 4-4 4"/></g><path fill="#ffcc4d" d="M33 5H5v16h28V5z"/><g><path fill="#66757f" d="M34 5c0-.55-.45-1-1-1H5c-.55 0-1 .45-1 1v1c0 .55.45 1 1 1h28c.55 0 1-.45 1-1V5z"/></g><g><path fill="#66757f" d="M33 20c0-1.66-1.34-3-3-3H8c-1.66 0-3 1.34-3 3v7c0 1.66 1.34 3 3 3h22c1.66 0 3-1.34 3-3v-7z"/></g><g><path fill="#88c9f9" d="M31 21c0-1.1-.9-2-2-2H9c-1.1 0-2 .9-2 2v5c0 1.1.9 2 2 2h20c1.1 0 2-.9 2-2v-5z"/></g><path fill="#ffac33" d="M33 7H5v5h28V7z"/><path fill="#fff" d="M13 9H7v3h6V9z"/><path fill="#fff" d="M31 9h-6v3h6V9z"/><path fill="#dd2e44" d="M7 9H5v3h2V9z"/><path fill="#dd2e44" d="M33 9h-2v3h2V9z"/><path fill="#66757f" d="M23 9h-8v3h8V9z"/><g><path fill="#292f33" d="M23 33.5c0-.83-.67-1.5-1.5-1.5h-5c-.83 0-1.5.67-1.5 1.5s.67 1.5 1.5 1.5h5c.83 0 1.5-.67 1.5-1.5"/></g></g></g></g></svg>