<?xml version="1.0" encoding="UTF-8" standalone="no"?><svg xmlns:dc="http://purl.org/dc/elements/1.1/" xmlns:cc="http://creativecommons.org/ns#" xmlns:rdf="http://www.w3.org/1999/02/22-rdf-syntax-ns#" xmlns:svg="http://www.w3.org/2000/svg" xmlns="http://www.w3.org/2000/svg" viewBox="0 0 47.5 47.5" style="enable-background:new 0 0 47.5 47.5;" xml:space="preserve" version="1.1" id="svg2"><metadata id="metadata8"><rdf:RDF><cc:Work rdf:about=""><dc:format>image/svg+xml</dc:format><dc:type rdf:resource="http://purl.org/dc/dcmitype/StillImage"/></cc:Work></rdf:RDF></metadata><defs id="defs6"><clipPath id="clipPath16" clipPathUnits="userSpaceOnUse"><path id="path18" d="M 0,38 38,38 38,0 0,0 0,38 Z"/></clipPath></defs><g transform="matrix(1.25,0,0,-1.25,0,47.5)" id="g10"><g id="g12"><g clip-path="url(#clipPath16)" id="g14"><g transform="translate(1,15)" id="g20"><path id="path22" style="fill:#808285;fill-opacity:1;fill-rule:nonzero;stroke:none" d="m 0,0 0,-7 c 0,-1.657 1.343,-3 3,-3 l 30,0 c 1.657,0 3,1.343 3,3 L 36,0 0,0 Z"/></g><g transform="translate(37,14)" id="g24"><path id="path26" style="fill:#ccd6dd;fill-opacity:1;fill-rule:nonzero;stroke:none" d="m 0,0 0,9 c 0,1.657 -3.343,3 -5,3 l -20,0 c -8,0 -11,-2.343 -11,-4 l 0,-8 36,0 z"/></g><path id="path28" style="fill:#939598;fill-opacity:1;fill-rule:nonzero;stroke:none" d="m 37,11 -36,0 0,3 36,0 0,-3 z"/><g transform="translate(8.0005,11)" id="g30"><path id="path32" style="fill:#bcbec0;fill-opacity:1;fill-rule:nonzero;stroke:none" d="M 0,0 C -3.063,0 -5.586,-2.298 -5.95,-5.263 -5.425,-5.716 -4.749,-6 -4,-6 L 6,-6 C 6,-2.687 3.313,0 0,0"/></g><g transform="translate(35.9502,5.7373)" id="g34"><path id="path36" style="fill:#bcbec0;fill-opacity:1;fill-rule:nonzero;stroke:none" d="m 0,0 c -0.364,2.965 -2.887,5.263 -5.95,5.263 -3.314,0 -6,-2.687 -6,-6 l 10,0 c 0.749,0 1.425,0.284 1.95,0.737"/></g><g transform="translate(12,5)" id="g38"><path id="path40" style="fill:#000000;fill-opacity:1;fill-rule:nonzero;stroke:none" d="m 0,0 c 0,-2.209 -1.791,-4 -4,-4 -2.209,0 -4,1.791 -4,4 0,2.209 1.791,4 4,4 2.209,0 4,-1.791 4,-4"/></g><g transform="translate(10,5)" id="g42"><path id="path44" style="fill:#99aab5;fill-opacity:1;fill-rule:nonzero;stroke:none" d="m 0,0 c 0,-1.104 -0.896,-2 -2,-2 -1.104,0 -2,0.896 -2,2 0,1.104 0.896,2 2,2 1.104,0 2,-0.896 2,-2"/></g><g transform="translate(34,5)" id="g46"><path id="path48" style="fill:#000000;fill-opacity:1;fill-rule:nonzero;stroke:none" d="m 0,0 c 0,-2.209 -1.791,-4 -4,-4 -2.209,0 -4,1.791 -4,4 0,2.209 1.791,4 4,4 2.209,0 4,-1.791 4,-4"/></g><g transform="translate(32,5)" id="g50"><path id="path52" style="fill:#99aab5;fill-opacity:1;fill-rule:nonzero;stroke:none" d="m 0,0 c 0,-1.104 -0.896,-2 -2,-2 -1.104,0 -2,0.896 -2,2 0,1.104 0.896,2 2,2 1.104,0 2,-0.896 2,-2"/></g><path id="path54" style="fill:#f4900c;fill-opacity:1;fill-rule:nonzero;stroke:none" d="M 2,9 1,9 1,11 2,11 2,9 Z"/><path id="path56" style="fill:#f4900c;fill-opacity:1;fill-rule:nonzero;stroke:none" d="m 37,11 -1,0 0,2 1,0 0,-2 z"/><path id="path58" style="fill:#58595b;fill-opacity:1;fill-rule:nonzero;stroke:none" d="M 37,13 2,13 2,23 37,23 37,13 Z"/><g transform="translate(3,23)" id="g60"><path id="path62" style="fill:#292f33;fill-opacity:1;fill-rule:nonzero;stroke:none" d="M 0,0 -1.658,0 C -1.89,-0.344 -2,-0.685 -2,-1 l 0,-11 2,0 c 1.104,0 2,0.896 2,2 l 0,8 C 2,-0.896 1.104,0 0,0"/></g><g transform="translate(32,16)" id="g64"><path id="path66" style="fill:#55acee;fill-opacity:1;fill-rule:nonzero;stroke:none" d="m 0,0 c 0,-0.553 -0.447,-1 -1,-1 l -23,0 c -0.552,0 -1,0.447 -1,1 l 0,4 c 0,0.552 0.448,1 1,1 L -1,5 C -0.447,5 0,4.552 0,4 L 0,0 Z"/></g><path id="path68" style="fill:#ffac33;fill-opacity:1;fill-rule:nonzero;stroke:none" d="m 37,17 -1,0 0,-2 1,0 0,2 z"/><g transform="translate(2,21)" id="g70"><path id="path72" style="fill:#55acee;fill-opacity:1;fill-rule:nonzero;stroke:none" d="m 0,0 -1,0 0,-8 1,0 c 0.552,0 1,0.447 1,1 l 0,6 C 1,-0.448 0.552,0 0,0"/></g></g></g></g></svg>
