<?xml version="1.0" encoding="UTF-8" standalone="no"?>
<!-- Created with Inkscape (http://www.inkscape.org/) -->

<svg
   xmlns:svg="http://www.w3.org/2000/svg"
   xmlns="http://www.w3.org/2000/svg"
   version="1.1"
   width="47.5"
   height="47.5"
   id="svg2"
   xml:space="preserve"><defs
     id="defs6"><clipPath
       id="clipPath30"><path
         d="M 0,38 38,38 38,0 0,0 0,38 z"
         id="path32" /></clipPath></defs><g
     transform="matrix(1.25,0,0,-1.25,0,47.5)"
     id="g12"><g
       transform="translate(3,1)"
       id="g14"><path
         d="M 0,0 32,0 21,17 11,17 0,0 z"
         id="path16"
         style="fill:#a7a9ac;fill-opacity:1;fill-rule:nonzero;stroke:none" /></g><g
       transform="translate(6,1)"
       id="g18"><path
         d="M 0,0 26,0 16,17 10,17 0,0 z"
         id="path20"
         style="fill:#58595b;fill-opacity:1;fill-rule:nonzero;stroke:none" /></g><g
       transform="translate(9,1)"
       id="g22"><path
         d="M 0,0 20,0 11,17 9,17 0,0 z"
         id="path24"
         style="fill:#808285;fill-opacity:1;fill-rule:nonzero;stroke:none" /></g><g
       id="g26"><g
         clip-path="url(#clipPath30)"
         id="g28"><g
           transform="translate(29,2)"
           id="g34"><path
             d="m 0,0 c 0,-0.553 -0.447,-1 -1,-1 l -18,0 c -0.552,0 -1,0.447 -1,1 0,0.553 0.448,1 1,1 L -1,1 C -0.447,1 0,0.553 0,0"
             id="path36"
             style="fill:#a7a9ac;fill-opacity:1;fill-rule:nonzero;stroke:none" /></g><g
           transform="translate(27,6)"
           id="g38"><path
             d="m 0,0 c 0,-0.553 -0.447,-1 -1,-1 l -14,0 c -0.552,0 -1,0.447 -1,1 0,0.553 0.448,1 1,1 L -1,1 C -0.447,1 0,0.553 0,0"
             id="path40"
             style="fill:#a7a9ac;fill-opacity:1;fill-rule:nonzero;stroke:none" /></g><g
           transform="translate(25,10)"
           id="g42"><path
             d="m 0,0 c 0,-0.553 -0.447,-1 -1,-1 l -10,0 c -0.552,0 -1,0.447 -1,1 0,0.553 0.448,1 1,1 L -1,1 C -0.447,1 0,0.553 0,0"
             id="path44"
             style="fill:#a7a9ac;fill-opacity:1;fill-rule:nonzero;stroke:none" /></g><g
           transform="translate(10.8813,13.1797)"
           id="g46"><path
             d="m 0,0 c 1.125,-1.226 2.617,-2.18 4.119,-2.18 l 8,0 c 1.501,0 2.994,0.955 4.119,2.18 L 13.689,3.938 C 12.33,3.841 10.541,3.82 8.119,3.82 5.653,3.82 3.845,3.797 2.477,3.828 L 0,0 z"
             id="path48"
             style="fill:#58595b;fill-opacity:1;fill-rule:nonzero;stroke:none" /></g><g
           transform="translate(20,35)"
           id="g50"><path
             d="m 0,0 c 0,-0.552 -0.448,-1 -1,-1 -0.552,0 -1,0.448 -1,1 l 0,1 c 0,0.552 0.448,1 1,1 0.552,0 1,-0.448 1,-1 L 0,0 z"
             id="path52"
             style="fill:#414042;fill-opacity:1;fill-rule:nonzero;stroke:none" /></g><g
           transform="translate(23,33)"
           id="g54"><path
             d="m 0,0 c 0,-1.104 -0.896,-2 -2,-2 l -4,0 c -1.104,0 -2,0.896 -2,2 0,1.104 0.896,2 2,2 l 4,0 C -0.896,2 0,1.104 0,0"
             id="path56"
             style="fill:#6d6e71;fill-opacity:1;fill-rule:nonzero;stroke:none" /></g><g
           transform="translate(29,19)"
           id="g58"><path
             d="m 0,0 c 0,-2.209 -3.791,-5 -6,-5 l -8,0 c -2.209,0 -6,2.791 -6,5 l 0,11 c 0,2.209 1.791,4 4,4 l 12,0 c 2.209,0 4,-1.791 4,-4 L 0,0 z"
             id="path60"
             style="fill:#d1d3d4;fill-opacity:1;fill-rule:nonzero;stroke:none" /></g><g
           transform="translate(26,21)"
           id="g62"><path
             d="m 0,0 c 0,-2.209 -1.791,-4 -4,-4 l -6,0 c -2.209,0 -4,1.791 -4,4 l 0,5 c 0,2.209 1.791,4 4,4 l 6,0 C -1.791,9 0,7.209 0,5 L 0,0 z"
             id="path64"
             style="fill:#808285;fill-opacity:1;fill-rule:nonzero;stroke:none" /></g><g
           transform="translate(16,22)"
           id="g66"><path
             d="m 0,0 6,0 c 2.209,0 4,1.791 4,4 L 10,6 -4,6 -4,4 C -4,1.791 -2.209,0 0,0"
             id="path68"
             style="fill:#55acee;fill-opacity:1;fill-rule:nonzero;stroke:none" /></g><g
           transform="translate(19,17)"
           id="g70"><path
             d="M 0,0 C -7,0 -8.754,1.801 -10,3.242 L -10,2 c 0,-2.209 3,-6 6,-6 l 8,0 c 3,0 6,3.791 6,6 l 0,1.891 C 8.754,2.161 7,0 0,0"
             id="path72"
             style="fill:#5c913b;fill-opacity:1;fill-rule:nonzero;stroke:none" /></g><g
           transform="translate(16,19.5)"
           id="g74"><path
             d="M 0,0 C 0,-0.828 -0.672,-1.5 -1.5,-1.5 -2.329,-1.5 -3,-0.828 -3,0 -3,0.829 -2.329,1.5 -1.5,1.5 -0.672,1.5 0,0.829 0,0"
             id="path76"
             style="fill:#ffd983;fill-opacity:1;fill-rule:nonzero;stroke:none" /></g><g
           transform="translate(25,19.5)"
           id="g78"><path
             d="M 0,0 C 0,-0.828 -0.672,-1.5 -1.5,-1.5 -2.328,-1.5 -3,-0.828 -3,0 -3,0.829 -2.328,1.5 -1.5,1.5 -0.672,1.5 0,0.829 0,0"
             id="path80"
             style="fill:#ffd983;fill-opacity:1;fill-rule:nonzero;stroke:none" /></g><g
           transform="translate(26,28)"
           id="g82"><path
             d="m 0,0 0,2 c 0,1.104 -0.896,2 -2,2 l -10,0 c -1.104,0 -2,-0.896 -2,-2 l 0,-2 14,0 z"
             id="path84"
             style="fill:#292f33;fill-opacity:1;fill-rule:nonzero;stroke:none" /></g><g
           transform="translate(22,30)"
           id="g86"><path
             d="m 0,0 c 0,-0.552 -0.447,-1 -1,-1 l -4,0 c -0.552,0 -1,0.448 -1,1 0,0.552 0.448,1 1,1 l 4,0 C -0.447,1 0,0.552 0,0"
             id="path88"
             style="fill:#6d6e71;fill-opacity:1;fill-rule:nonzero;stroke:none" /></g></g></g></g></svg>