<svg xmlns="http://www.w3.org/2000/svg" viewBox="0 0 47.5 47.5" enable-background="new 0 0 47.5 47.5"><defs><clipPath id="a"><path d="M0 38h38V0H0v38z"/></clipPath></defs><g><path fill="#939598" d="M46.25 43.75h-45v2.5h45v-2.5z"/><g><g clip-path="url(#a)" transform="matrix(1.25 0 0 -1.25 0 47.5)"><g><path fill="#d1d3d4" d="M4 2h33v29H22c-4 0-5-2-5-2l-4-6S1 18 1 13c0-4 6-6 6-6L4 2z"/></g><g><path fill="#231f20" d="M15 2l2 3h20V2H15z"/></g><g><path fill="#3b88c3" d="M1 13c0-4 6-6 6-6v12.88C4 18 1 15.5 1 13"/></g><g><path fill="#3b88c3" d="M7 7z"/></g><g><path fill="#269" d="M7 7L4 2h33v5H7z"/></g><g><path fill="#3b88c3" d="M21 7l4 6h12V7H21z"/></g><g><path fill="#55acee" d="M27 29H17l-4-6h10.84c.48 0 1.1.45 1.4 1l2.2 4c.3.55.1 1-.44 1"/></g><g><path fill="#3b88c3" d="M26.9 27l.55 1c.3.55.1 1-.45 1H17l-1.33-2H26.9z"/></g></g></g></g></svg>