<svg xmlns="http://www.w3.org/2000/svg" viewBox="0 0 47.5 47.5" enable-background="new 0 0 47.5 47.5"><defs><clipPath id="a"><path d="M0 38h38V0H0v38z"/></clipPath></defs><g><g><path fill="#a7a9ac" d="M3.75 46.25h40L30 25H17.5L3.75 46.25z"/></g><g><path fill="#58595b" d="M7.5 46.25H40L27.5 25H20L7.5 46.25z"/></g><g><path fill="#808285" d="M11.25 46.25h25L25 25h-2.5L11.25 46.25z"/></g><g><g clip-path="url(#a)" transform="matrix(1.25 0 0 -1.25 0 47.5)"><g><path fill="#a7a9ac" d="M29 2c0-.55-.45-1-1-1H10c-.55 0-1 .45-1 1s.45 1 1 1h18c.55 0 1-.45 1-1"/></g><g><path fill="#a7a9ac" d="M27 6c0-.55-.45-1-1-1H12c-.55 0-1 .45-1 1s.45 1 1 1h14c.55 0 1-.45 1-1"/></g><g><path fill="#a7a9ac" d="M25 10c0-.55-.45-1-1-1H14c-.55 0-1 .45-1 1s.45 1 1 1h10c.55 0 1-.45 1-1"/></g><g><path fill="#58595b" d="M10.88 13.18C12 11.95 13.5 11 15 11h8c1.5 0 3 .95 4.12 2.18l-2.55 3.94C23.2 17.02 21.42 17 19 17c-2.47 0-4.27-.02-5.64 0l-2.48-3.82z"/></g><g><path fill="#414042" d="M20 35c0-.55-.45-1-1-1s-1 .45-1 1v1c0 .55.45 1 1 1s1-.45 1-1v-1z"/></g><g><path fill="#6d6e71" d="M23 33c0-1.1-.9-2-2-2h-4c-1.1 0-2 .9-2 2s.9 2 2 2h4c1.1 0 2-.9 2-2"/></g><g><path fill="#d1d3d4" d="M29 19c0-2.2-3.8-5-6-5h-8c-2.2 0-6 2.8-6 5v11c0 2.2 1.8 4 4 4h12c2.2 0 4-1.8 4-4V19z"/></g><g><path fill="#808285" d="M26 21c0-2.2-1.8-4-4-4h-6c-2.2 0-4 1.8-4 4v5c0 2.2 1.8 4 4 4h6c2.2 0 4-1.8 4-4v-5z"/></g><g><path fill="#55acee" d="M16 22h6c2.2 0 4 1.8 4 4v2H12v-2c0-2.2 1.8-4 4-4"/></g><g><path fill="#5c913b" d="M19 17c-7 0-8.75 1.8-10 3.24V19c0-2.2 3-6 6-6h8c3 0 6 3.8 6 6v1.9c-1.25-1.74-3-3.9-10-3.9"/></g><g><path fill="#ffd983" d="M16 19.5c0-.83-.67-1.5-1.5-1.5s-1.5.67-1.5 1.5.67 1.5 1.5 1.5 1.5-.67 1.5-1.5"/></g><g><path fill="#ffd983" d="M25 19.5c0-.83-.67-1.5-1.5-1.5s-1.5.67-1.5 1.5.67 1.5 1.5 1.5 1.5-.67 1.5-1.5"/></g><g><path fill="#292f33" d="M26 28v2c0 1.1-.9 2-2 2H14c-1.1 0-2-.9-2-2v-2h14z"/></g><g><path fill="#6d6e71" d="M22 30c0-.55-.45-1-1-1h-4c-.55 0-1 .45-1 1s.45 1 1 1h4c.55 0 1-.45 1-1"/></g></g></g></g></svg>