<?xml version="1.0" encoding="UTF-8" standalone="no"?><svg xmlns:svg="http://www.w3.org/2000/svg" xmlns="http://www.w3.org/2000/svg" version="1.1" viewBox="0 0 47.5 47.5" style="enable-background:new 0 0 47.5 47.5;" id="svg2" xml:space="preserve"><defs id="defs6"><clipPath id="clipPath22"><path d="M 0,38 38,38 38,0 0,0 0,38 z" id="path24"/></clipPath></defs><g transform="matrix(1.25,0,0,-1.25,0,47.5)" id="g12"><path d="m 20,6 -2,0 0,5 2,0 0,-5 z" id="path14" style="fill:#66757f;fill-opacity:1;fill-rule:nonzero;stroke:none"/><path d="m 10,11 2,0 0,-5 -2,0 0,5 z" id="path16" style="fill:#66757f;fill-opacity:1;fill-rule:nonzero;stroke:none"/><g id="g18"><g clip-path="url(#clipPath22)" id="g20"><g transform="translate(13.999,34.0005)" id="g26"><path d="m 0,0 c 0,-0.552 -2.686,-1 -6,-1 -3.314,0 -6,0.448 -6,1 0,0.552 2.686,1 6,1 3.314,0 6,-0.448 6,-1" id="path28" style="fill:#99aab5;fill-opacity:1;fill-rule:nonzero;stroke:none"/></g><g transform="translate(27.999,34.0005)" id="g30"><path d="m 0,0 c 0,-0.552 -2.686,-1 -6,-1 -3.314,0 -6,0.448 -6,1 0,0.552 2.686,1 6,1 3.314,0 6,-0.448 6,-1" id="path32" style="fill:#99aab5;fill-opacity:1;fill-rule:nonzero;stroke:none"/></g><path d="m 16,28 -2,0 0,6 2,0 0,-6 z" id="path34" style="fill:#99aab5;fill-opacity:1;fill-rule:nonzero;stroke:none"/><g transform="translate(16.999,34.0005)" id="g36"><path d="m 0,0 c 0,-0.552 -0.896,-1 -2,-1 -1.104,0 -2,0.448 -2,1 0,0.552 0.896,1 2,1 1.104,0 2,-0.448 2,-1" id="path38" style="fill:#66757f;fill-opacity:1;fill-rule:nonzero;stroke:none"/></g><g transform="translate(35.999,27.0005)" id="g40"><path d="M 0,0 C 0,3 0,7 -1,7 -2,7 -4,3 -5,1 -6,-1 0,0 0,0" id="path42" style="fill:#ffcc4d;fill-opacity:1;fill-rule:nonzero;stroke:none"/></g><g transform="translate(35.999,27.0005)" id="g44"><path d="m 0,0 c 0,2.209 -8,3 -19,3 l -1.989,0 c -0.004,0 -0.007,0 -0.011,0 -6.627,0 -12.75,-5.451 -12.75,-11.25 0,-5.799 3.75,-9.75 12.75,-9.75 9,0 12,4.701 12,10.5 0,0.88 -0.138,1.731 -0.371,2.549 C -5,-4 0,-2.007 0,0" id="path46" style="fill:#ffcc4d;fill-opacity:1;fill-rule:nonzero;stroke:none"/></g><g transform="translate(5.999,24.0005)" id="g48"><path d="M 0,0 C -2.091,-2.918 -3.068,-7.589 1.213,-7.784 6,-8 8,-8 9.063,-5.413 10.428,-2.092 10,2 8.787,2.783 6.467,4.28 2.092,2.918 0,0" id="path50" style="fill:#3b88c3;fill-opacity:1;fill-rule:nonzero;stroke:none"/></g><g transform="translate(22.8398,24.4648)" id="g52"><path d="m 0,0 c 2.159,-3.464 2.07,-6.161 -1.841,-7.465 -3,-1 -4,2 -3.841,5.535 0.112,2.484 0.206,4.196 1.841,4.466 C -2.394,2.775 -1.314,2.109 0,0" id="path54" style="fill:#3b88c3;fill-opacity:1;fill-rule:nonzero;stroke:none"/></g><g transform="translate(33.1807,29.8862)" id="g56"><path d="M 0,0 C 0.903,-1.273 1.271,-2.564 0.82,-2.884 0.37,-3.204 -0.728,-2.43 -1.631,-1.158 -2.534,0.115 -2.902,1.406 -2.451,1.726 -2.001,2.046 -0.903,1.273 0,0" id="path58" style="fill:#99aab5;fill-opacity:1;fill-rule:nonzero;stroke:none"/></g><g transform="translate(36.46,25.2646)" id="g60"><path d="m 0,0 c 0.909,-1.279 1.28,-2.575 0.83,-2.895 -0.45,-0.32 -1.553,0.458 -2.46,1.737 -0.909,1.28 -1.279,2.576 -0.829,2.896 C -2.009,2.058 -0.907,1.279 0,0" id="path62" style="fill:#99aab5;fill-opacity:1;fill-rule:nonzero;stroke:none"/></g><g transform="translate(34.8164,27.5811)" id="g64"><path d="m 0,0 c 0.319,-0.45 0.214,-1.074 -0.236,-1.394 -0.451,-0.32 -1.075,-0.214 -1.395,0.236 -0.319,0.45 -0.214,1.075 0.237,1.394 C -0.943,0.557 -0.319,0.45 0,0" id="path66" style="fill:#66757f;fill-opacity:1;fill-rule:nonzero;stroke:none"/></g><g transform="translate(27,5)" id="g68"><path d="m 0,0 c 0,-1.104 -0.896,-2 -2,-2 l -20,0 c -1.104,0 -2,0.896 -2,2 0,1.104 0.896,2 2,2 L -2,2 C -0.896,2 0,1.104 0,0" id="path70" style="fill:#99aab5;fill-opacity:1;fill-rule:nonzero;stroke:none"/></g></g></g></g></svg>
