<svg xmlns="http://www.w3.org/2000/svg" viewBox="0 0 47.5 47.5" enable-background="new 0 0 47.5 47.5"><defs><clipPath id="a"><path d="M0 38h38V0H0v38z"/></clipPath></defs><g><g><g clip-path="url(#a)" transform="matrix(1.25 0 0 -1.25 0 47.5)"><g><path fill="#808285" d="M1 15V8c0-1.66 1.34-3 3-3h30c1.66 0 3 1.34 3 3v7H1z"/></g><g><path fill="#ccd6dd" d="M37 14v9c0 1.66-3.34 3-5 3H12c-8 0-11-2.34-11-4v-8h36z"/></g><path fill="#939598" d="M37 11H1v3h36v-3z"/><g><path fill="#bcbec0" d="M8 11c-3.06 0-5.6-2.3-5.95-5.26C2.58 5.28 3.25 5 4 5h10c0 3.3-2.7 6-6 6"/></g><g><path fill="#bcbec0" d="M35.95 5.74C35.6 8.7 33.05 11 30 11c-3.3 0-6-2.7-6-6h10c.75 0 1.43.28 1.95.74"/></g><g><path d="M12 5c0-2.2-1.8-4-4-4S4 2.8 4 5s1.8 4 4 4 4-1.8 4-4"/></g><g><path fill="#99aab5" d="M10 5c0-1.1-.9-2-2-2s-2 .9-2 2 .9 2 2 2 2-.9 2-2"/></g><g><path d="M34 5c0-2.2-1.8-4-4-4s-4 1.8-4 4 1.8 4 4 4 4-1.8 4-4"/></g><g><path fill="#99aab5" d="M32 5c0-1.1-.9-2-2-2s-2 .9-2 2 .9 2 2 2 2-.9 2-2"/></g><path fill="#f4900c" d="M2 9H1v2h1V9z"/><path fill="#f4900c" d="M37 11h-1v2h1v-2z"/><path fill="#58595b" d="M37 13H2v10h35V13z"/><g><path fill="#292f33" d="M3 23H1.34c-.23-.34-.34-.7-.34-1V11h2c1.1 0 2 .9 2 2v8c0 1.1-.9 2-2 2"/></g><g><path fill="#55acee" d="M32 16c0-.55-.45-1-1-1H8c-.55 0-1 .45-1 1v4c0 .55.45 1 1 1h23c.55 0 1-.45 1-1v-4z"/></g><path fill="#ffac33" d="M37 17h-1v-2h1v2z"/><g><path fill="#55acee" d="M2 21H1v-8h1c.55 0 1 .45 1 1v6c0 .55-.45 1-1 1"/></g></g></g></g></svg>