<?xml version="1.0" encoding="UTF-8" standalone="no"?>
<!-- Created with Inkscape (http://www.inkscape.org/) -->

<svg
   xmlns:svg="http://www.w3.org/2000/svg"
   xmlns="http://www.w3.org/2000/svg"
   version="1.1"
   width="47.5"
   height="47.5"
   id="svg2"
   xml:space="preserve"><defs
     id="defs6"><clipPath
       id="clipPath18"><path
         d="M 0,38 38,38 38,0 0,0 0,38 z"
         id="path20" /></clipPath></defs><g
     transform="matrix(1.25,0,0,-1.25,0,47.5)"
     id="g12"><g
       id="g14"><g
         clip-path="url(#clipPath18)"
         id="g16"><g
           transform="translate(1,15)"
           id="g22"><path
             d="m 0,0 0,-7 c 0,-1.657 1.343,-3 3,-3 l 30,0 c 1.657,0 3,1.343 3,3 L 36,0 0,0 z"
             id="path24"
             style="fill:#808285;fill-opacity:1;fill-rule:nonzero;stroke:none" /></g><g
           transform="translate(37,14)"
           id="g26"><path
             d="m 0,0 0,9 c 0,1.657 -3.343,3 -5,3 l -20,0 c -8,0 -11,-2.343 -11,-4 l 0,-8 36,0 z"
             id="path28"
             style="fill:#ccd6dd;fill-opacity:1;fill-rule:nonzero;stroke:none" /></g><path
           d="m 37,11 -36,0 0,3 36,0 0,-3 z"
           id="path30"
           style="fill:#939598;fill-opacity:1;fill-rule:nonzero;stroke:none" /><g
           transform="translate(8.0005,11)"
           id="g32"><path
             d="M 0,0 C -3.063,0 -5.586,-2.298 -5.95,-5.263 -5.425,-5.716 -4.749,-6 -4,-6 L 6,-6 C 6,-2.687 3.313,0 0,0"
             id="path34"
             style="fill:#bcbec0;fill-opacity:1;fill-rule:nonzero;stroke:none" /></g><g
           transform="translate(35.9502,5.7373)"
           id="g36"><path
             d="m 0,0 c -0.364,2.965 -2.887,5.263 -5.95,5.263 -3.314,0 -6,-2.687 -6,-6 l 10,0 c 0.749,0 1.425,0.284 1.95,0.737"
             id="path38"
             style="fill:#bcbec0;fill-opacity:1;fill-rule:nonzero;stroke:none" /></g><g
           transform="translate(12,5)"
           id="g40"><path
             d="m 0,0 c 0,-2.209 -1.791,-4 -4,-4 -2.209,0 -4,1.791 -4,4 0,2.209 1.791,4 4,4 2.209,0 4,-1.791 4,-4"
             id="path42"
             style="fill:#000000;fill-opacity:1;fill-rule:nonzero;stroke:none" /></g><g
           transform="translate(10,5)"
           id="g44"><path
             d="m 0,0 c 0,-1.104 -0.896,-2 -2,-2 -1.104,0 -2,0.896 -2,2 0,1.104 0.896,2 2,2 1.104,0 2,-0.896 2,-2"
             id="path46"
             style="fill:#99aab5;fill-opacity:1;fill-rule:nonzero;stroke:none" /></g><g
           transform="translate(34,5)"
           id="g48"><path
             d="m 0,0 c 0,-2.209 -1.791,-4 -4,-4 -2.209,0 -4,1.791 -4,4 0,2.209 1.791,4 4,4 2.209,0 4,-1.791 4,-4"
             id="path50"
             style="fill:#000000;fill-opacity:1;fill-rule:nonzero;stroke:none" /></g><g
           transform="translate(32,5)"
           id="g52"><path
             d="m 0,0 c 0,-1.104 -0.896,-2 -2,-2 -1.104,0 -2,0.896 -2,2 0,1.104 0.896,2 2,2 1.104,0 2,-0.896 2,-2"
             id="path54"
             style="fill:#99aab5;fill-opacity:1;fill-rule:nonzero;stroke:none" /></g><path
           d="M 2,9 1,9 1,11 2,11 2,9 z"
           id="path56"
           style="fill:#f4900c;fill-opacity:1;fill-rule:nonzero;stroke:none" /><path
           d="m 37,11 -1,0 0,2 1,0 0,-2 z"
           id="path58"
           style="fill:#f4900c;fill-opacity:1;fill-rule:nonzero;stroke:none" /><path
           d="M 37,13 2,13 2,23 37,23 37,13 z"
           id="path60"
           style="fill:#58595b;fill-opacity:1;fill-rule:nonzero;stroke:none" /><g
           transform="translate(3,23)"
           id="g62"><path
             d="M 0,0 -1.658,0 C -1.89,-0.344 -2,-0.685 -2,-1 l 0,-11 2,0 c 1.104,0 2,0.896 2,2 l 0,8 C 2,-0.896 1.104,0 0,0"
             id="path64"
             style="fill:#292f33;fill-opacity:1;fill-rule:nonzero;stroke:none" /></g><g
           transform="translate(32,16)"
           id="g66"><path
             d="m 0,0 c 0,-0.553 -0.447,-1 -1,-1 l -23,0 c -0.552,0 -1,0.447 -1,1 l 0,4 c 0,0.552 0.448,1 1,1 L -1,5 C -0.447,5 0,4.552 0,4 L 0,0 z"
             id="path68"
             style="fill:#55acee;fill-opacity:1;fill-rule:nonzero;stroke:none" /></g><path
           d="m 37,17 -1,0 0,-2 1,0 0,2 z"
           id="path70"
           style="fill:#ffac33;fill-opacity:1;fill-rule:nonzero;stroke:none" /><g
           transform="translate(2,21)"
           id="g72"><path
             d="m 0,0 -1,0 0,-8 1,0 c 0.552,0 1,0.447 1,1 l 0,6 C 1,-0.448 0.552,0 0,0"
             id="path74"
             style="fill:#55acee;fill-opacity:1;fill-rule:nonzero;stroke:none" /></g></g></g></g></svg>