<?xml version="1.0" encoding="UTF-8" standalone="no"?><svg xmlns:svg="http://www.w3.org/2000/svg" xmlns="http://www.w3.org/2000/svg" version="1.1" viewBox="0 0 47.5 47.5" style="enable-background:new 0 0 47.5 47.5;" id="svg2" xml:space="preserve"><defs id="defs6"><clipPath id="clipPath22"><path d="M 0,38 38,38 38,0 0,0 0,38 z" id="path24"/></clipPath></defs><g transform="matrix(1.25,0,0,-1.25,0,47.5)" id="g12"><path d="M 37,3 1,3 1,1 37,1 37,3 z" id="path14" style="fill:#939598;fill-opacity:1;fill-rule:nonzero;stroke:none"/><path d="M 36,5 7,5 7,10 36,10 36,5 z" id="path16" style="fill:#231f20;fill-opacity:1;fill-rule:nonzero;stroke:none"/><g id="g18"><g clip-path="url(#clipPath22)" id="g20"><g transform="translate(4.999,5)" id="g26"><path d="M 0,0 C 0,1.656 1.343,3 3,3 4.657,3 6,1.656 6,0 6,-1.656 4.657,-3 3,-3 1.343,-3 0,-1.656 0,0" id="path28" style="fill:#58595b;fill-opacity:1;fill-rule:nonzero;stroke:none"/></g><g transform="translate(10.999,5)" id="g30"><path d="M 0,0 C 0,1.657 1.343,3 3,3 4.657,3 6,1.657 6,0 6,-1.657 4.657,-3 3,-3 1.343,-3 0,-1.657 0,0" id="path32" style="fill:#58595b;fill-opacity:1;fill-rule:nonzero;stroke:none"/></g><g transform="translate(6.499,5)" id="g34"><path d="M 0,0 C 0,0.829 0.672,1.5 1.5,1.5 2.328,1.5 3,0.829 3,0 3,-0.829 2.328,-1.5 1.5,-1.5 0.672,-1.5 0,-0.829 0,0" id="path36" style="fill:#a0041e;fill-opacity:1;fill-rule:nonzero;stroke:none"/></g><g transform="translate(12.499,5)" id="g38"><path d="M 0,0 C 0,0.83 0.671,1.5 1.5,1.5 2.329,1.5 3,0.83 3,0 3,-0.83 2.329,-1.5 1.5,-1.5 0.671,-1.5 0,-0.83 0,0" id="path40" style="fill:#a0041e;fill-opacity:1;fill-rule:nonzero;stroke:none"/></g><g transform="translate(6,4)" id="g42"><path d="m 0,0 -4,0 c -1,0 -1.5,0.5 0,2 L 0,6 C 1,7 2,8.001 2,6 L 2,2 C 2,0 1.999,0 0,0" id="path44" style="fill:#dd2e44;fill-opacity:1;fill-rule:nonzero;stroke:none"/></g><g transform="translate(8.9995,17)" id="g46"><path d="m 0,0 c 0,-3.313 -1.343,-6 -3,-6 -1.657,0 -3,2.687 -3,6 0,3.314 1.343,6 3,6 1.657,0 3,-2.686 3,-6" id="path48" style="fill:#231f20;fill-opacity:1;fill-rule:nonzero;stroke:none"/></g><g transform="translate(12,22)" id="g50"><path d="M 0,0 -4,0 -6,8 2,8 0,0 z" id="path52" style="fill:#6d6e71;fill-opacity:1;fill-rule:nonzero;stroke:none"/></g><g transform="translate(27,12)" id="g54"><path d="m 0,0 c 0,-1.104 -0.896,-2 -2,-2 l -18,0 c -1.104,0 -2,0.896 -2,2 l 0,10 c 0,1.104 0.896,2 2,2 l 18,0 c 1.104,0 2,-0.896 2,-2 L 0,0 z" id="path56" style="fill:#414042;fill-opacity:1;fill-rule:nonzero;stroke:none"/></g><g transform="translate(14,11)" id="g58"><path d="m 0,0 c 0,-0.553 -0.448,-1 -1,-1 -0.552,0 -1,0.447 -1,1 l 0,13 c 0,0.552 0.448,1 1,1 0.552,0 1,-0.448 1,-1 L 0,0 z" id="path60" style="fill:#c1694f;fill-opacity:1;fill-rule:nonzero;stroke:none"/></g><g transform="translate(20,11)" id="g62"><path d="m 0,0 c 0,-0.553 -0.447,-1 -1,-1 -0.553,0 -1,0.447 -1,1 l 0,13 c 0,0.552 0.447,1 1,1 0.553,0 1,-0.448 1,-1 L 0,0 z" id="path64" style="fill:#c1694f;fill-opacity:1;fill-rule:nonzero;stroke:none"/></g><g transform="translate(37,11)" id="g66"><path d="m 0,0 c 0,-0.553 -0.447,-1 -1,-1 l -28,0 c -0.552,0 -1,0.447 -1,1 0,0.553 0.448,1 1,1 L -1,1 C -0.447,1 0,0.553 0,0" id="path68" style="fill:#808285;fill-opacity:1;fill-rule:nonzero;stroke:none"/></g><g transform="translate(26.999,6)" id="g70"><path d="M 0,0 C 0,2.209 1.791,4 4,4 6.209,4 8,2.209 8,0 8,-2.209 6.209,-4 4,-4 1.791,-4 0,-2.209 0,0" id="path72" style="fill:#58595b;fill-opacity:1;fill-rule:nonzero;stroke:none"/></g><g transform="translate(18.999,6)" id="g74"><path d="M 0,0 C 0,2.209 1.791,4 4,4 6.209,4 8,2.209 8,0 8,-2.209 6.209,-4 4,-4 1.791,-4 0,-2.209 0,0" id="path76" style="fill:#58595b;fill-opacity:1;fill-rule:nonzero;stroke:none"/></g><g transform="translate(28.999,6)" id="g78"><path d="M 0,0 C 0,1.104 0.896,2 2,2 3.104,2 4,1.104 4,0 4,-1.104 3.104,-2 2,-2 0.896,-2 0,-1.104 0,0" id="path80" style="fill:#a0041e;fill-opacity:1;fill-rule:nonzero;stroke:none"/></g><g transform="translate(20.999,6)" id="g82"><path d="M 0,0 C 0,1.104 0.896,2 2,2 3.104,2 4,1.104 4,0 4,-1.104 3.104,-2 2,-2 0.896,-2 0,-1.104 0,0" id="path84" style="fill:#a0041e;fill-opacity:1;fill-rule:nonzero;stroke:none"/></g><g transform="translate(13,34)" id="g86"><path d="m 0,0 -6,0 c -0.552,0 -1,-0.448 -1,-1 l 0,-3 8,0 0,3 C 1,-0.448 0.552,0 0,0" id="path88" style="fill:#414042;fill-opacity:1;fill-rule:nonzero;stroke:none"/></g><path d="m 36,30 -12,0 0,-18 12,0 0,18 z" id="path90" style="fill:#be1931;fill-opacity:1;fill-rule:nonzero;stroke:none"/><g transform="translate(37,31)" id="g92"><path d="m 0,0 c 0,-0.552 -0.447,-1 -1,-1 l -12,0 c -0.553,0 -1,0.448 -1,1 0,0.552 0.447,1 1,1 L -1,1 C -0.447,1 0,0.552 0,0" id="path94" style="fill:#a0041e;fill-opacity:1;fill-rule:nonzero;stroke:none"/></g><path d="m 34,14 -8,0 0,5 8,0 0,-5 z" id="path96" style="fill:#ea596e;fill-opacity:1;fill-rule:nonzero;stroke:none"/><g transform="translate(31,5)" id="g98"><path d="M 0,0 -8,0 C -8.127,0 -8.253,0.024 -8.371,0.071 L -13.193,2 -20,2 c -0.552,0 -1,0.447 -1,1 0,0.553 0.448,1 1,1 l 7,0 c 0.127,0 0.253,-0.024 0.371,-0.071 L -7.808,2 0,2 C 0.553,2 1,1.553 1,1 1,0.447 0.553,0 0,0" id="path100" style="fill:#f4900c;fill-opacity:1;fill-rule:nonzero;stroke:none"/></g><g transform="translate(34,27)" id="g102"><path d="M 0,0 C 0,0.552 -0.447,1 -1,1 L -7,1 C -7.553,1 -8,0.552 -8,0 l 0,-5 c 0,-0.552 0.447,-1 1,-1 l 6,0 c 0.553,0 1,0.448 1,1 l 0,5 z" id="path104" style="fill:#55acee;fill-opacity:1;fill-rule:nonzero;stroke:none"/></g></g></g></g></svg>
