<?xml version="1.0" encoding="UTF-8" standalone="no"?>
<!-- Created with Inkscape (http://www.inkscape.org/) -->

<svg
   xmlns:svg="http://www.w3.org/2000/svg"
   xmlns="http://www.w3.org/2000/svg"
   version="1.1"
   width="47.5"
   height="47.5"
   id="svg2"
   xml:space="preserve"><defs
     id="defs6"><clipPath
       id="clipPath18"><path
         d="M 0,38 38,38 38,0 0,0 0,38 z"
         id="path20" /></clipPath></defs><g
     transform="matrix(1.25,0,0,-1.25,0,47.5)"
     id="g12"><g
       id="g14"><g
         clip-path="url(#clipPath18)"
         id="g16"><g
           transform="translate(35,4)"
           id="g22"><path
             d="m 0,0 c 0,-1.104 -0.896,-2 -2,-2 l -3,0 c -1.104,0 -2,0.896 -2,2 l 0,8 c 0,1.104 0.896,2 2,2 l 3,0 C -0.896,10 0,9.104 0,8 L 0,0 z"
             id="path24"
             style="fill:#292f33;fill-opacity:1;fill-rule:nonzero;stroke:none" /></g><g
           transform="translate(10,4)"
           id="g26"><path
             d="m 0,0 c 0,-1.104 -0.896,-2 -2,-2 l -3,0 c -1.104,0 -2,0.896 -2,2 l 0,8 c 0,1.104 0.896,2 2,2 l 3,0 C -0.896,10 0,9.104 0,8 L 0,0 z"
             id="path28"
             style="fill:#292f33;fill-opacity:1;fill-rule:nonzero;stroke:none" /></g><g
           transform="translate(10,32)"
           id="g30"><path
             d="m 0,0 c 4,1 14,1 18,0 3.881,-0.97 5,-11 5,-11 0,0 2,0 2,-4 l 0,-8 c 0,0 -0.119,-3.03 -4,-4 -4,-1 -7,-1 -12,-1 -5,0 -8,0 -12,1 -3.88,0.97 -4,4 -4,4 l 0,8 c 0,0 0,4 2,4 0,0 1.12,10.03 5,11"
             id="path32"
             style="fill:#3b88c3;fill-opacity:1;fill-rule:nonzero;stroke:none" /></g><g
           transform="translate(19,22)"
           id="g34"><path
             d="M 0,0 C 3.905,0 8.623,-0.2 12,-0.562 L 11,5 C 10,8 4,8 0,8 -4,8 -10,8 -11,5 l -1,-5.562 C -8.623,-0.2 -3.905,0 0,0"
             id="path36"
             style="fill:#bbddf5;fill-opacity:1;fill-rule:nonzero;stroke:none" /></g><g
           transform="translate(6,21.5)"
           id="g38"><path
             d="m 0,0 c 0,-0.829 -0.671,-1.5 -1.5,-1.5 l -2,0 c -0.829,0 -1.5,0.671 -1.5,1.5 0,0.829 0.671,1.5 1.5,1.5 l 2,0 C -0.671,1.5 0,0.829 0,0"
             id="path40"
             style="fill:#3b88c3;fill-opacity:1;fill-rule:nonzero;stroke:none" /></g><g
           transform="translate(32,21.5)"
           id="g42"><path
             d="m 0,0 c 0,-0.829 0.672,-1.5 1.5,-1.5 l 2,0 C 4.328,-1.5 5,-0.829 5,0 5,0.829 4.328,1.5 3.5,1.5 l -2,0 C 0.672,1.5 0,0.829 0,0"
             id="path44"
             style="fill:#3b88c3;fill-opacity:1;fill-rule:nonzero;stroke:none" /></g><g
           transform="translate(12,14)"
           id="g46"><path
             d="m 0,0 c 0,-1.657 -1.343,-3 -3,-3 l -1,0 c -1.657,0 -3,1.343 -3,3 0,1.657 1.343,3 3,3 l 1,0 C -1.343,3 0,1.657 0,0"
             id="path48"
             style="fill:#ffcc4d;fill-opacity:1;fill-rule:nonzero;stroke:none" /></g><g
           transform="translate(33,14)"
           id="g50"><path
             d="m 0,0 c 0,-1.657 -1.344,-3 -3,-3 l -1,0 c -1.656,0 -3,1.343 -3,3 0,1.657 1.344,3 3,3 l 1,0 C -1.344,3 0,1.657 0,0"
             id="path52"
             style="fill:#ffcc4d;fill-opacity:1;fill-rule:nonzero;stroke:none" /></g><g
           transform="translate(13.001,15)"
           id="g54"><path
             d="M 0,0 C -0.323,0 -0.64,0.156 -0.833,0.445 -2.575,3.059 -7.152,4.01 -7.198,4.02 -7.739,4.129 -8.09,4.656 -7.981,5.197 -7.872,5.738 -7.349,6.088 -6.805,5.98 -6.584,5.937 -1.374,4.861 0.831,1.555 1.137,1.095 1.013,0.475 0.554,0.168 0.383,0.055 0.19,0 0,0"
             id="path56"
             style="fill:#226699;fill-opacity:1;fill-rule:nonzero;stroke:none" /></g><g
           transform="translate(24.999,15)"
           id="g58"><path
             d="M 0,0 C -0.19,0 -0.383,0.055 -0.554,0.168 -1.014,0.475 -1.138,1.095 -0.831,1.555 1.373,4.861 6.584,5.937 6.805,5.98 7.345,6.086 7.872,5.738 7.98,5.197 8.09,4.656 7.739,4.129 7.198,4.02 7.152,4.01 2.575,3.059 0.833,0.445 0.641,0.156 0.323,0 0,0"
             id="path60"
             style="fill:#226699;fill-opacity:1;fill-rule:nonzero;stroke:none" /></g><g
           transform="translate(19,8)"
           id="g62"><path
             d="m 0,0 c -5.663,0 -12.639,0.225 -13.707,1.293 -0.391,0.391 -0.391,1.023 0,1.414 0.344,0.345 0.877,0.386 1.267,0.122 C -12.208,2.729 -10.155,2 0,2 c 10.155,0 12.208,0.729 12.44,0.829 0.391,0.264 0.922,0.223 1.267,-0.122 0.391,-0.391 0.391,-1.023 0,-1.414 C 12.639,0.225 5.663,0 0,0"
             id="path64"
             style="fill:#55acee;fill-opacity:1;fill-rule:nonzero;stroke:none" /></g><g
           transform="translate(26,7.5)"
           id="g66"><path
             d="m 0,0 c 0,-1.5 -3.134,-2.5 -7,-2.5 -3.866,0 -7,1 -7,2.5 0,0.828 3.134,0.5 7,0.5 3.866,0 7,0.328 7,-0.5"
             id="path68"
             style="fill:#226699;fill-opacity:1;fill-rule:nonzero;stroke:none" /></g></g></g></g></svg>