<?xml version="1.0" encoding="UTF-8" standalone="no"?><svg xmlns:svg="http://www.w3.org/2000/svg" xmlns="http://www.w3.org/2000/svg" version="1.1" viewBox="0 0 47.5 47.5" style="enable-background:new 0 0 47.5 47.5;" id="svg2" xml:space="preserve"><defs id="defs6"><clipPath id="clipPath18"><path d="M 0,38 38,38 38,0 0,0 0,38 z" id="path20"/></clipPath></defs><g transform="matrix(1.25,0,0,-1.25,0,47.5)" id="g12"><g id="g14"><g clip-path="url(#clipPath18)" id="g16"><g transform="translate(36,32)" id="g22"><path d="m 0,0 -2,0 -2,0 -2,0 -2,0 -2,0 -2,0 -2,0 -2,0 -2,0 -2,0 -2,0 c -0.552,0 -1,-0.448 -1,-1 0,-0.552 0.448,-1 1,-1 l 2,0 0,-2 2,0 0,2 2,0 0,-2 2,0 0,2 2,0 0,-2 2,0 0,2 2,0 0,-2 2,0 0,2 2,0 0,-2 2,0 0,2 2,0 c 0.553,0 1,0.448 1,1 0,0.552 -0.447,1 -1,1" id="path24" style="fill:#ccd6dd;fill-opacity:1;fill-rule:nonzero;stroke:none"/></g><g transform="translate(37,27)" id="g26"><path d="m 0,0 c 0,-0.552 -0.447,-1 -1,-1 l -22,0 c -0.552,0 -1,0.448 -1,1 0,0.552 0.448,1 1,1 L -1,1 C -0.447,1 0,0.552 0,0" id="path28" style="fill:#ccd6dd;fill-opacity:1;fill-rule:nonzero;stroke:none"/></g><g transform="translate(33,26)" id="g30"><path d="m 0,0 -10,0 -8,0 c 0,0 0.041,2 -2.979,2 l -5.875,0 C -32,2 -32,-5.959 -32,-5.959 L -32,-13 c 0,-2.209 1.791,-4 4,-4 l 28,0 c 2.209,0 4,1.791 4,4 l 0,9 C 4,-1.791 2.209,0 0,0" id="path32" style="fill:#dd2e44;fill-opacity:1;fill-rule:nonzero;stroke:none"/></g><path d="m 35,18 -32,0 0,-3 32,0 0,3 z" id="path34" style="fill:#f5f8fa;fill-opacity:1;fill-rule:nonzero;stroke:none"/><g transform="translate(12,9)" id="g36"><path d="m 0,0 c 0,-2.209 -1.791,-4 -4,-4 -2.209,0 -4,1.791 -4,4 0,2.209 1.791,4 4,4 2.209,0 4,-1.791 4,-4" id="path38" style="fill:#000000;fill-opacity:1;fill-rule:nonzero;stroke:none"/></g><g transform="translate(10,9)" id="g40"><path d="m 0,0 c 0,-1.104 -0.896,-2 -2,-2 -1.104,0 -2,0.896 -2,2 0,1.104 0.896,2 2,2 1.104,0 2,-0.896 2,-2" id="path42" style="fill:#8899a6;fill-opacity:1;fill-rule:nonzero;stroke:none"/></g><g transform="translate(33,9)" id="g44"><path d="m 0,0 c 0,-2.209 -1.791,-4 -4,-4 -2.209,0 -4,1.791 -4,4 0,2.209 1.791,4 4,4 2.209,0 4,-1.791 4,-4" id="path46" style="fill:#000000;fill-opacity:1;fill-rule:nonzero;stroke:none"/></g><g transform="translate(31,9)" id="g48"><path d="m 0,0 c 0,-1.104 -0.896,-2 -2,-2 -1.104,0 -2,0.896 -2,2 0,1.104 0.896,2 2,2 1.104,0 2,-0.896 2,-2" id="path50" style="fill:#8899a6;fill-opacity:1;fill-rule:nonzero;stroke:none"/></g><g transform="translate(8,20)" id="g52"><path d="m 0,0 -5,0 c 0,0 0,6 3,6 L 0,6 0,0 z" id="path54" style="fill:#55acee;fill-opacity:1;fill-rule:nonzero;stroke:none"/></g><g transform="translate(13,20)" id="g56"><path d="m 0,0 -3,0 0,6 1,0 C -1,6 0,5 0,4 L 0,0 z" id="path58" style="fill:#55acee;fill-opacity:1;fill-rule:nonzero;stroke:none"/></g><g transform="translate(9,29)" id="g60"><path d="m 0,0 c 0,-0.552 -0.448,-1 -1,-1 l -2,0 c -0.552,0 -1,0.448 -1,1 0,0.552 0.448,1 1,1 l 2,0 C -0.448,1 0,0.552 0,0" id="path62" style="fill:#ffac33;fill-opacity:1;fill-rule:nonzero;stroke:none"/></g><g transform="translate(11,29)" id="g64"><path d="m 0,0 c 0,-0.552 -0.448,-1 -1,-1 l -2,0 c -0.552,0 -1,0.448 -1,1 0,0.552 0.448,1 1,1 l 2,0 C -0.448,1 0,0.552 0,0" id="path66" style="fill:#3b88c3;fill-opacity:1;fill-rule:nonzero;stroke:none"/></g></g></g></g></svg>
