<?xml version="1.0" encoding="UTF-8" standalone="no"?><svg xmlns:svg="http://www.w3.org/2000/svg" xmlns="http://www.w3.org/2000/svg" version="1.1" viewBox="0 0 47.5 47.5" style="enable-background:new 0 0 47.5 47.5;" id="svg2" xml:space="preserve"><defs id="defs6"><clipPath id="clipPath18"><path d="M 0,38 38,38 38,0 0,0 0,38 z" id="path20"/></clipPath></defs><g transform="matrix(1.25,0,0,-1.25,0,47.5)" id="g12"><g id="g14"><g clip-path="url(#clipPath18)" id="g16"><g transform="translate(36,29)" id="g22"><path d="M 0,0 C 0,1 -1,4 -4,4 L -17.494,4 -20,4 -25.599,4 C -29,4 -35,-8 -35,-11 l 0,-6 c 0,-2.209 1.791,-4 4,-4 l 28,0 c 2.209,0 4,1.791 4,4 L 1,-7 C 1,-5.973 0,0 0,0" id="path24" style="fill:#ccd6dd;fill-opacity:1;fill-rule:nonzero;stroke:none"/></g><path d="m 37,13 -36,0 0,3 36,0 0,-3 z" id="path26" style="fill:#66757f;fill-opacity:1;fill-rule:nonzero;stroke:none"/><g transform="translate(10.0005,14)" id="g28"><path d="M 0,0 C -3.267,0 -5.918,-2.612 -5.993,-5.861 -5.674,-5.942 -5.345,-6 -5,-6 L 6,-6 C 6,-2.687 3.313,0 0,0" id="path30" style="fill:#e1e8ed;fill-opacity:1;fill-rule:nonzero;stroke:none"/></g><g transform="translate(33.9932,8.1396)" id="g32"><path d="m 0,0 c -0.075,3.248 -2.726,5.86 -5.993,5.86 -3.313,0 -6,-2.686 -6,-6 l 11,0 c 0.345,0 0.674,0.058 0.993,0.14" id="path34" style="fill:#e1e8ed;fill-opacity:1;fill-rule:nonzero;stroke:none"/></g><g transform="translate(6.6855,13)" id="g36"><path d="M 0,0 6.629,0 C 5.679,0.631 4.541,1 3.315,1 2.089,1 0.949,0.632 0,0" id="path38" style="fill:#99aab5;fill-opacity:1;fill-rule:nonzero;stroke:none"/></g><g transform="translate(24.6865,13)" id="g40"><path d="M 0,0 6.629,0 C 5.68,0.632 4.54,1 3.313,1 2.089,1 0.95,0.631 0,0" id="path42" style="fill:#99aab5;fill-opacity:1;fill-rule:nonzero;stroke:none"/></g><g transform="translate(14,8)" id="g44"><path d="m 0,0 c 0,-2.209 -1.791,-4 -4,-4 -2.209,0 -4,1.791 -4,4 0,2.209 1.791,4 4,4 2.209,0 4,-1.791 4,-4" id="path46" style="fill:#292f33;fill-opacity:1;fill-rule:nonzero;stroke:none"/></g><g transform="translate(12,8)" id="g48"><path d="m 0,0 c 0,-1.104 -0.896,-2 -2,-2 -1.104,0 -2,0.896 -2,2 0,1.104 0.896,2 2,2 1.104,0 2,-0.896 2,-2" id="path50" style="fill:#99aab5;fill-opacity:1;fill-rule:nonzero;stroke:none"/></g><g transform="translate(32,8)" id="g52"><path d="m 0,0 c 0,-2.209 -1.791,-4 -4,-4 -2.209,0 -4,1.791 -4,4 0,2.209 1.791,4 4,4 2.209,0 4,-1.791 4,-4" id="path54" style="fill:#292f33;fill-opacity:1;fill-rule:nonzero;stroke:none"/></g><g transform="translate(30,8)" id="g56"><path d="m 0,0 c 0,-1.104 -0.896,-2 -2,-2 -1.104,0 -2,0.896 -2,2 0,1.104 0.896,2 2,2 1.104,0 2,-0.896 2,-2" id="path58" style="fill:#99aab5;fill-opacity:1;fill-rule:nonzero;stroke:none"/></g><g transform="translate(6,26)" id="g60"><path d="m 0,0 6,0 0,-7 -9,0 3,7 z" id="path62" style="fill:#55acee;fill-opacity:1;fill-rule:nonzero;stroke:none"/></g><path d="m 22,19 -8,0 0,7 8,0 0,-7 z" id="path64" style="fill:#55acee;fill-opacity:1;fill-rule:nonzero;stroke:none"/><g transform="translate(24,26)" id="g66"><path d="m 0,0 0,-7 13,0 0,3 c 0,0.525 -0.262,2.347 -0.518,4 L 0,0 z" id="path68" style="fill:#55acee;fill-opacity:1;fill-rule:nonzero;stroke:none"/></g><g transform="translate(34,28)" id="g70"><path d="m 0,0 -26,0 c -0.552,0 -1,0.448 -1,1 0,0.552 0.448,1 1,1 L 0,2 C 0.553,2 1,1.552 1,1 1,0.448 0.553,0 0,0" id="path72" style="fill:#99aab5;fill-opacity:1;fill-rule:nonzero;stroke:none"/></g></g></g></g></svg>
