<svg xmlns="http://www.w3.org/2000/svg" viewBox="0 0 47.5 47.5" enable-background="new 0 0 47.5 47.5"><defs><clipPath id="a"><path d="M0 38h38V0H0v38z"/></clipPath></defs><g><g><g clip-path="url(#a)" transform="matrix(1.25 0 0 -1.25 0 47.5)"><g><path fill="#dd2e44" d="M37 12c0-2.2-1.8-4-4-4H5c-2.2 0-4 1.8-4 4v3c0 2.2 1.8 4 4 4h28c2.2 0 4-1.8 4-4v-3z"/></g><g><path fill="#ffcc4d" d="M20 26l-.98 1H8.15C5 27 4 25 4 25l-3-5.96V14h19v12z"/></g><g><path fill="#55acee" d="M10 19H3l2 4s1 2 3 2h2v-6z"/></g><g><path fill="#292f33" d="M14 8c0-2.2-1.8-4-4-4S6 5.8 6 8s1.8 4 4 4 4-1.8 4-4"/></g><g><path fill="#ccd6dd" d="M12 8c0-1.1-.9-2-2-2s-2 .9-2 2 .9 2 2 2 2-.9 2-2"/></g><g><path fill="#292f33" d="M32 8c0-2.2-1.8-4-4-4s-4 1.8-4 4 1.8 4 4 4 4-1.8 4-4"/></g><g><path fill="#ccd6dd" d="M28 10c-1.1 0-2-.9-2-2s.9-2 2-2 2 .9 2 2-.9 2-2 2"/></g><g><path fill="#ccd6dd" d="M33 31H18c-2.2 0-4-1.8-4-4V14h23v13c0 2.2-1.8 4-4 4"/></g></g></g></g></svg>