<svg xmlns="http://www.w3.org/2000/svg" viewBox="0 0 47.5 47.5" enable-background="new 0 0 47.5 47.5"><defs><clipPath id="a"><path d="M0 38h38V0H0v38z"/></clipPath></defs><g><g><g clip-path="url(#a)" transform="matrix(1.25 0 0 -1.25 0 47.5)"><g><path fill="#58595b" d="M31 21c0-1.1-.9-2-2-2H19c-1.1 0-2 .9-2 2v2c0 1.1.9 2 2 2h10c1.1 0 2-.9 2-2v-2z"/></g><g><path fill="#f4900c" d="M5 23c-2.2 0-4-1.8-4-4V9c0-4.42 3.58-8 8-8h28v22H5z"/></g><g><path fill="#ffd983" d="M1.6 6H37v2H1.07c.1-.7.26-1.37.52-2"/></g><path fill="#808285" d="M37 29H1v6h36v-6z"/><path fill="#414042" d="M37 31H1v2h36v-2z"/><g><path fill="#a7a9ac" d="M29 37H19c-1.66 0-3-1.34-3-3s1.34-3 3-3h3v-4l-2-2h8l-2 2v4h3c1.66 0 3 1.34 3 3s-1.34 3-3 3"/></g><path fill="#3b88c3" d="M15 8h22v15H15V8z"/><g><path fill="#58595b" d="M13 12c0-1.1-.9-2-2-2H7c-1.1 0-2 .9-2 2v6c0 1.1.9 2 2 2h4c1.1 0 2-.9 2-2v-6z"/></g><g><path fill="#414042" d="M25 14c0-1.1-.9-2-2-2h-4c-1.1 0-2 .9-2 2v4c0 1.1.9 2 2 2h4c1.1 0 2-.9 2-2v-4z"/></g><g><path fill="#414042" d="M35 14c0-1.1-.9-2-2-2h-4c-1.1 0-2 .9-2 2v4c0 1.1.9 2 2 2h4c1.1 0 2-.9 2-2v-4z"/></g><g><path fill="#58595b" d="M1 20V10c1.1 0 2 .9 2 2v6c0 1.1-.9 2-2 2"/></g></g></g></g></svg>