<?xml version="1.0" encoding="UTF-8" standalone="no"?><svg xmlns:svg="http://www.w3.org/2000/svg" xmlns="http://www.w3.org/2000/svg" version="1.1" viewBox="0 0 47.5 47.5" style="enable-background:new 0 0 47.5 47.5;" id="svg2" xml:space="preserve"><defs id="defs6"><clipPath id="clipPath18"><path d="M 0,38 38,38 38,0 0,0 0,38 z" id="path20"/></clipPath></defs><g transform="matrix(1.25,0,0,-1.25,0,47.5)" id="g12"><g id="g14"><g clip-path="url(#clipPath18)" id="g16"><g transform="translate(35,4)" id="g22"><path d="m 0,0 c 0,-1.104 -0.896,-2 -2,-2 l -3,0 c -1.104,0 -2,0.896 -2,2 l 0,8 c 0,1.104 0.896,2 2,2 l 3,0 C -0.896,10 0,9.104 0,8 L 0,0 z" id="path24" style="fill:#292f33;fill-opacity:1;fill-rule:nonzero;stroke:none"/></g><g transform="translate(10,4)" id="g26"><path d="m 0,0 c 0,-1.104 -0.896,-2 -2,-2 l -3,0 c -1.104,0 -2,0.896 -2,2 l 0,8 c 0,1.104 0.896,2 2,2 l 3,0 C -0.896,10 0,9.104 0,8 L 0,0 z" id="path28" style="fill:#292f33;fill-opacity:1;fill-rule:nonzero;stroke:none"/></g><g transform="translate(10,32)" id="g30"><path d="m 0,0 c 4,1 14,1 18,0 3.881,-0.97 5,-11 5,-11 0,0 2,0 2,-4 l 0,-8 c 0,0 0.123,-4 -4,-4 l -24,0 c -4.123,0 -4,4 -4,4 l 0,8 c 0,0 0,4 2,4 0,0 1.12,10.03 5,11" id="path32" style="fill:#ffcc4d;fill-opacity:1;fill-rule:nonzero;stroke:none"/></g><g transform="translate(19,22)" id="g34"><path d="M 0,0 C 3.905,0 8.623,-0.2 12,-0.562 L 11,5 C 10,8 4,8 0,8 -4,8 -10,8 -11,5 l -1,-5.562 C -8.623,-0.2 -3.905,0 0,0" id="path36" style="fill:#55acee;fill-opacity:1;fill-rule:nonzero;stroke:none"/></g><g transform="translate(6,21.5)" id="g38"><path d="m 0,0 c 0,-0.829 -0.671,-1.5 -1.5,-1.5 l -2,0 c -0.829,0 -1.5,0.671 -1.5,1.5 0,0.829 0.671,1.5 1.5,1.5 l 2,0 C -0.671,1.5 0,0.829 0,0" id="path40" style="fill:#ffcc4d;fill-opacity:1;fill-rule:nonzero;stroke:none"/></g><g transform="translate(32,21.5)" id="g42"><path d="m 0,0 c 0,-0.829 0.672,-1.5 1.5,-1.5 l 2,0 C 4.328,-1.5 5,-0.829 5,0 5,0.829 4.328,1.5 3.5,1.5 l -2,0 C 0.672,1.5 0,0.829 0,0" id="path44" style="fill:#ffcc4d;fill-opacity:1;fill-rule:nonzero;stroke:none"/></g><g transform="translate(12,14)" id="g46"><path d="m 0,0 c 0,-1.657 -1.343,-3 -3,-3 l -1,0 c -1.657,0 -3,1.343 -3,3 0,1.657 1.343,3 3,3 l 1,0 C -1.343,3 0,1.657 0,0" id="path48" style="fill:#ffcc4d;fill-opacity:1;fill-rule:nonzero;stroke:none"/></g><g transform="translate(33,14)" id="g50"><path d="m 0,0 c 0,-1.657 -1.344,-3 -3,-3 l -1,0 c -1.656,0 -3,1.343 -3,3 0,1.657 1.344,3 3,3 l 1,0 C -1.344,3 0,1.657 0,0" id="path52" style="fill:#ffcc4d;fill-opacity:1;fill-rule:nonzero;stroke:none"/></g><g transform="translate(26,15)" id="g54"><path d="m 0,0 -14,0 c -2.456,0 -4.486,3.336 -4.868,4.004 -0.274,0.479 -0.108,1.09 0.371,1.364 0.478,0.275 1.09,0.108 1.365,-0.37 C -16.438,3.789 -14.963,2 -14,2 L 0,2 C 0.983,2 2.46,3.655 3.148,4.773 3.438,5.244 4.052,5.391 4.524,5.101 4.994,4.812 5.141,4.196 4.852,3.726 4.617,3.344 2.487,0 0,0" id="path56" style="fill:#ffac33;fill-opacity:1;fill-rule:nonzero;stroke:none"/></g><path d="M 7,9 3,9 3,13 7,13 7,9 z" id="path58" style="fill:#f4900c;fill-opacity:1;fill-rule:nonzero;stroke:none"/><path d="m 35,9 -4,0 0,4 4,0 0,-4 z" id="path60" style="fill:#f4900c;fill-opacity:1;fill-rule:nonzero;stroke:none"/><g transform="translate(11,11)" id="g62"><path d="m 0,0 c 0,-1.104 -0.896,-2 -2,-2 l -2,0 c -1.104,0 -2,0.896 -2,2 0,1.104 0.896,2 2,2 l 2,0 C -0.896,2 0,1.104 0,0" id="path64" style="fill:#ffffff;fill-opacity:1;fill-rule:nonzero;stroke:none"/></g><g transform="translate(33,11)" id="g66"><path d="m 0,0 c 0,1.104 -0.896,2 -2,2 l -2,0 c -1.104,0 -2,-0.896 -2,-2 0,-1.104 0.896,-2 2,-2 l 2,0 c 1.104,0 2,0.896 2,2" id="path68" style="fill:#ffffff;fill-opacity:1;fill-rule:nonzero;stroke:none"/></g><g transform="translate(26,11)" id="g70"><path d="m 0,0 c 0,-1.104 -0.896,-2 -2,-2 l -10,0 c -1.104,0 -2,0.896 -2,2 0,1.104 0.896,2 2,2 L -2,2 C -0.896,2 0,1.104 0,0" id="path72" style="fill:#66757f;fill-opacity:1;fill-rule:nonzero;stroke:none"/></g><g transform="translate(23,35)" id="g74"><path d="m 0,0 -8,0 c -1.657,0 -3,-1.343 -3,-3 L 3,-3 C 3,-1.343 1.657,0 0,0" id="path76" style="fill:#ffe8b6;fill-opacity:1;fill-rule:nonzero;stroke:none"/></g><path d="m 23,32 -8,0 0,2 8,0 0,-2 z" id="path78" style="fill:#ccd6dd;fill-opacity:1;fill-rule:nonzero;stroke:none"/><path d="m 21,32 -4,0 0,1 4,0 0,-1 z" id="path80" style="fill:#99aab5;fill-opacity:1;fill-rule:nonzero;stroke:none"/></g></g></g></svg>
