<svg xmlns="http://www.w3.org/2000/svg" viewBox="0 0 47.5 47.5" enable-background="new 0 0 47.5 47.5"><defs><clipPath id="a"><path d="M0 38h38V0H0v38z"/></clipPath></defs><g><g><g clip-path="url(#a)" transform="matrix(1.25 0 0 -1.25 0 47.5)"><g><path fill="#292f33" d="M35 4c0-1.1-.9-2-2-2h-3c-1.1 0-2 .9-2 2v8c0 1.1.9 2 2 2h3c1.1 0 2-.9 2-2V4z"/></g><g><path fill="#292f33" d="M10 4c0-1.1-.9-2-2-2H5c-1.1 0-2 .9-2 2v8c0 1.1.9 2 2 2h3c1.1 0 2-.9 2-2V4z"/></g><g><path fill="#ffcc4d" d="M10 32c4 1 14 1 18 0 3.88-.97 5-11 5-11s2 0 2-4V9s.12-4-4-4H7C2.88 5 3 9 3 9v8s0 4 2 4c0 0 1.12 10.03 5 11"/></g><g><path fill="#55acee" d="M19 22c3.9 0 8.62-.2 12-.56L30 27c-1 3-7 3-11 3S9 30 8 27l-1-5.56c3.38.36 8.1.56 12 .56"/></g><g><path fill="#ffcc4d" d="M6 21.5c0-.83-.67-1.5-1.5-1.5h-2c-.83 0-1.5.67-1.5 1.5S1.67 23 2.5 23h2c.83 0 1.5-.67 1.5-1.5"/></g><g><path fill="#ffcc4d" d="M32 21.5c0-.83.67-1.5 1.5-1.5h2c.83 0 1.5.67 1.5 1.5s-.67 1.5-1.5 1.5h-2c-.83 0-1.5-.67-1.5-1.5"/></g><g><path fill="#ffcc4d" d="M12 14c0-1.66-1.34-3-3-3H8c-1.66 0-3 1.34-3 3s1.34 3 3 3h1c1.66 0 3-1.34 3-3"/></g><g><path fill="#ffcc4d" d="M33 14c0-1.66-1.34-3-3-3h-1c-1.66 0-3 1.34-3 3s1.34 3 3 3h1c1.66 0 3-1.34 3-3"/></g><g><path fill="#ffac33" d="M26 15H12c-2.46 0-4.5 3.34-4.87 4-.27.48-.1 1.1.37 1.37.48.27 1.1.1 1.37-.37.7-1.2 2.17-3 3.13-3h14c.98 0 2.46 1.65 3.15 2.77.3.47.9.62 1.37.33.47-.3.62-.9.33-1.37C30.62 18.33 28.5 15 26 15"/></g><path fill="#f4900c" d="M7 9H3v4h4V9z"/><path fill="#f4900c" d="M35 9h-4v4h4V9z"/><g><path fill="#fff" d="M11 11c0-1.1-.9-2-2-2H7c-1.1 0-2 .9-2 2s.9 2 2 2h2c1.1 0 2-.9 2-2"/></g><g><path fill="#fff" d="M33 11c0 1.1-.9 2-2 2h-2c-1.1 0-2-.9-2-2s.9-2 2-2h2c1.1 0 2 .9 2 2"/></g><g><path fill="#66757f" d="M26 11c0-1.1-.9-2-2-2H14c-1.1 0-2 .9-2 2s.9 2 2 2h10c1.1 0 2-.9 2-2"/></g><g><path fill="#ffe8b6" d="M23 35h-8c-1.66 0-3-1.34-3-3h14c0 1.66-1.34 3-3 3"/></g><path fill="#ccd6dd" d="M23 32h-8v2h8v-2z"/><path fill="#99aab5" d="M21 32h-4v1h4v-1z"/></g></g></g></svg>