<svg xmlns="http://www.w3.org/2000/svg" viewBox="0 0 47.5 47.5" enable-background="new 0 0 47.5 47.5"><defs><clipPath id="a"><path d="M0 38h38V0H0v38z"/></clipPath></defs><g><g><g clip-path="url(#a)" transform="matrix(1.25 0 0 -1.25 0 47.5)"><g><path fill="#ccd6dd" d="M36 27c0 1-1 4-4 4H10.4c-1.38 0-3.3-1.8-4.3-4L3 22c-1.45-.6-2-2.33-2-4v-6c0-2.2 1.8-4 4-4h28c2.2 0 4 1.8 4 4v8c0 1.03-1 7-1 7"/></g><g><path fill="#e1e8ed" d="M10 14c-3.27 0-5.92-2.6-6-5.86.33-.08.66-.14 1-.14h11c0 3.3-2.7 6-6 6"/></g><g><path fill="#e1e8ed" d="M34 8.14C33.9 11.4 31.26 14 28 14c-3.3 0-6-2.7-6-6h11c.35 0 .67.06 1 .14"/></g><g><path fill="#292f33" d="M14 8c0-2.2-1.8-4-4-4S6 5.8 6 8s1.8 4 4 4 4-1.8 4-4"/></g><g><path fill="#99aab5" d="M12 8c0-1.1-.9-2-2-2s-2 .9-2 2 .9 2 2 2 2-.9 2-2"/></g><g><path fill="#292f33" d="M32 8c0-2.2-1.8-4-4-4s-4 1.8-4 4 1.8 4 4 4 4-1.8 4-4"/></g><g><path fill="#99aab5" d="M30 8c0-1.1-.9-2-2-2s-2 .9-2 2 .9 2 2 2 2-.9 2-2"/></g><path fill="#dd2e44" d="M37 15H1v3h36v-3z"/><g><path fill="#dd2e44" d="M32 26h-3v3h-2v-3h-3v-2h3v-3h2v3h3v2z"/></g><g><path fill="#55acee" d="M9 29h5v-7H5l4 7z"/></g><g><path fill="#dd2e44" d="M16 32.5c0-.83-.67-1.5-1.5-1.5h-2c-.83 0-1.5.67-1.5 1.5s.67 1.5 1.5 1.5h2c.83 0 1.5-.67 1.5-1.5"/></g><g><path fill="#55acee" d="M19 32.5c0-.83-.67-1.5-1.5-1.5h-2c-.83 0-1.5.67-1.5 1.5s.67 1.5 1.5 1.5h2c.83 0 1.5-.67 1.5-1.5"/></g></g></g></g></svg>