<?xml version="1.0" encoding="UTF-8" standalone="no"?><svg xmlns:svg="http://www.w3.org/2000/svg" xmlns="http://www.w3.org/2000/svg" version="1.1" viewBox="0 0 47.5 47.5" style="enable-background:new 0 0 47.5 47.5;" id="svg2" xml:space="preserve"><defs id="defs6"><clipPath id="clipPath18"><path d="M 0,38 38,38 38,0 0,0 0,38 z" id="path20"/></clipPath></defs><g transform="matrix(1.25,0,0,-1.25,0,47.5)" id="g12"><g id="g14"><g clip-path="url(#clipPath18)" id="g16"><g transform="translate(1,2)" id="g22"><path d="m 0,0 36,0 0,25 C 36,25 29.999,35 26.999,35 23.999,35 17,26 15,24 13,22 10.5,23.5 9,25 7.5,26.5 6,28 5,28 4,28 0,21 0,21 L 0,0 z" id="path24" style="fill:#d1d3d4;fill-opacity:1;fill-rule:nonzero;stroke:none"/></g><path d="M 37,1 1,1 1,3 37,3 37,1 z" id="path26" style="fill:#939598;fill-opacity:1;fill-rule:nonzero;stroke:none"/><g transform="translate(14.9995,5)" id="g28"><path d="m 0,0 c 0,1.657 -1.343,3 -3,3 -1.657,0 -3,-1.343 -3,-3 0,-1.657 1.343,-3 3,-3 1.657,0 3,1.343 3,3" id="path30" style="fill:#58595b;fill-opacity:1;fill-rule:nonzero;stroke:none"/></g><g transform="translate(13.9995,5)" id="g32"><path d="m 0,0 c 0,1.105 -0.896,2 -2,2 -1.104,0 -2,-0.895 -2,-2 0,-1.105 0.896,-2 2,-2 1.104,0 2,0.895 2,2" id="path34" style="fill:#292f33;fill-opacity:1;fill-rule:nonzero;stroke:none"/></g><g transform="translate(23,5)" id="g36"><path d="m 0,0 c 0,1.657 -1.344,3 -3,3 -1.657,0 -3,-1.343 -3,-3 0,-1.657 1.343,-3 3,-3 1.656,0 3,1.343 3,3" id="path38" style="fill:#58595b;fill-opacity:1;fill-rule:nonzero;stroke:none"/></g><g transform="translate(22,5)" id="g40"><path d="m 0,0 c 0,1.105 -0.896,2 -2,2 -1.105,0 -2,-0.895 -2,-2 0,-1.105 0.895,-2 2,-2 1.104,0 2,0.895 2,2" id="path42" style="fill:#292f33;fill-opacity:1;fill-rule:nonzero;stroke:none"/></g><g transform="translate(37,23)" id="g44"><path d="m 0,0 -29,0 c -2.209,0 -4,-1.791 -4,-4 l 0,-10 c 0,-2.209 1.791,-4 4,-4 l 29,0 0,18 z" id="path46" style="fill:#ffe8b6;fill-opacity:1;fill-rule:nonzero;stroke:none"/></g><g transform="translate(37,23)" id="g48"><path d="m 0,0 -29,0 c -1.477,0 -2.752,-0.81 -3.445,-2 L 0,-2 0,0 z" id="path50" style="fill:#77b255;fill-opacity:1;fill-rule:nonzero;stroke:none"/></g><g transform="translate(37,9)" id="g52"><path d="m 0,0 -33,0 c 0,-2.209 1.791,-4 4,-4 l 29,0 0,4 z" id="path54" style="fill:#5c913b;fill-opacity:1;fill-rule:nonzero;stroke:none"/></g><path d="M 37,11 4,11 4,9 37,9 37,11 z" id="path56" style="fill:#ffac33;fill-opacity:1;fill-rule:nonzero;stroke:none"/><path d="m 10,13 -6,0 0,5 6,0 0,-5 z" id="path58" style="fill:#55acee;fill-opacity:1;fill-rule:nonzero;stroke:none"/><g transform="translate(16,15)" id="g60"><path d="m 0,0 c 0,-0.553 -0.447,-1 -1,-1 l -2,0 c -0.552,0 -1,0.447 -1,1 l 0,2 c 0,0.553 0.448,1 1,1 l 2,0 C -0.447,3 0,2.553 0,2 L 0,0 z" id="path62" style="fill:#55acee;fill-opacity:1;fill-rule:nonzero;stroke:none"/></g><g transform="translate(21,15)" id="g64"><path d="m 0,0 c 0,-0.553 -0.447,-1 -1,-1 l -2,0 c -0.552,0 -1,0.447 -1,1 l 0,2 c 0,0.553 0.448,1 1,1 l 2,0 C -0.447,3 0,2.553 0,2 L 0,0 z" id="path66" style="fill:#55acee;fill-opacity:1;fill-rule:nonzero;stroke:none"/></g><g transform="translate(28,15)" id="g68"><path d="m 0,0 c 0,-0.553 -0.447,-1 -1,-1 l -2,0 c -0.553,0 -1,0.447 -1,1 l 0,2 c 0,0.553 0.447,1 1,1 l 2,0 C -0.447,3 0,2.553 0,2 L 0,0 z" id="path70" style="fill:#55acee;fill-opacity:1;fill-rule:nonzero;stroke:none"/></g><g transform="translate(35,15)" id="g72"><path d="m 0,0 c 0,-0.553 -0.447,-1 -1,-1 l -2,0 c -0.553,0 -1,0.447 -1,1 l 0,2 c 0,0.553 0.447,1 1,1 l 2,0 C -0.447,3 0,2.553 0,2 L 0,0 z" id="path74" style="fill:#55acee;fill-opacity:1;fill-rule:nonzero;stroke:none"/></g><g transform="translate(23.5,19)" id="g76"><path d="m 0,0 c -0.275,0 -0.5,-0.224 -0.5,-0.5 l 0,-10 c 0,-0.275 0.225,-0.5 0.5,-0.5 l 5,0 c 0.275,0 0.5,0.225 0.5,0.5 l 0,10 C 5.5,-0.224 5.275,0 5,0 L 0,0 z m 5,-12 -5,0 c -0.827,0 -1.5,0.673 -1.5,1.5 l 0,10 C -1.5,0.327 -0.827,1 0,1 L 5,1 C 5.827,1 6.5,0.327 6.5,-0.5 l 0,-10 C 6.5,-11.327 5.827,-12 5,-12" id="path78" style="fill:#66757f;fill-opacity:1;fill-rule:nonzero;stroke:none"/></g></g></g></g></svg>
