<svg xmlns="http://www.w3.org/2000/svg" viewBox="0 0 47.5 47.5" enable-background="new 0 0 47.5 47.5"><defs><clipPath id="a"><path d="M0 38h38V0H0v38z"/></clipPath></defs><g><g><g clip-path="url(#a)" transform="matrix(1.25 0 0 -1.25 0 47.5)"><g><path fill="#292f33" d="M37 17c0-.55-.45-1-1-1h-1c-.55 0-1 .45-1 1v6c0 .55.45 1 1 1h1c.55 0 1-.45 1-1v-6z"/></g><g><path fill="#3b88c3" d="M6 10h26c1 0 3 1 3 4 0 2 0 8-1 9s0 7-4 7H16c-3 0-6-7-6-7l-4-1s-4-1-4-4v-3s-1-.34-1-1.96C1 11.42 2 11 2 11l4-1z"/></g><g><path fill="#292f33" d="M14 10c0-2.2-1.8-4-4-4s-4 1.8-4 4 1.8 4 4 4 4-1.8 4-4"/></g><g><path fill="#ccd6dd" d="M12 10c0-1.1-.9-2-2-2s-2 .9-2 2 .9 2 2 2 2-.9 2-2"/></g><g><path fill="#292f33" d="M32 10c0-2.2-1.8-4-4-4s-4 1.8-4 4 1.8 4 4 4 4-1.8 4-4"/></g><g><path fill="#ccd6dd" d="M30 10c0-1.1-.9-2-2-2s-2 .9-2 2 .9 2 2 2 2-.9 2-2"/></g><g><path fill="#bbddf5" d="M25 24c0-.55.45-1 1-1h4c.55 0 1 .45 1 1v3c0 .55-.45 1-1 1h-4c-.55 0-1-.45-1-1v-3z"/></g><g><path fill="#bbddf5" d="M14 24c0-1 .45-1 1-1h7c.55 0 1 .45 1 1v3c0 .55-.45 1-1 1h-5c-1 0-3-3-3-4"/></g><g><path fill="#55acee" d="M33 17.5c0-.83-.67-1.5-1.5-1.5h-22c-.83 0-1.5.67-1.5 1.5S8.67 19 9.5 19h22c.83 0 1.5-.67 1.5-1.5"/></g></g></g></g></svg>