<svg xmlns="http://www.w3.org/2000/svg" viewBox="0 0 47.5 47.5" enable-background="new 0 0 47.5 47.5"><defs><clipPath id="a"><path d="M0 38h38V0H0v38z"/></clipPath></defs><g><g><g clip-path="url(#a)" transform="matrix(1.25 0 0 -1.25 0 47.5)"><g><path fill="#e1e8ed" d="M33 14s-2 8-5 8H17c-3 0-7-7-7-7s-8-1-8-5V8c0-.1.02-.17.03-.26C1.43 7.4 1 6.74 1 6c0-1.1.9-2 2-2h30c2.2 0 4 1.8 4 4v2c0 2.2-1.8 4-4 4"/></g><g><path d="M2 10V8c0-.1.02-.17.03-.26C1.43 7.4 1 6.74 1 6c0-1.1.9-2 2-2h30c2.2 0 4 1.8 4 4v2c0 .35-.06.68-.14 1H2.2c-.12-.3-.2-.64-.2-1"/></g><g><path fill="#66757f" d="M16.9 4c.07.33.1.66.1 1 0 3.3-2.7 6-6 6S5 8.3 5 5c0-.34.04-.67.1-1h11.8z"/></g><g><path fill="#66757f" d="M33.9 4c.07.33.1.66.1 1 0 3.3-2.7 6-6 6s-6-2.7-6-6c0-.34.04-.67.1-1h11.8z"/></g><g><path d="M15 5c0-2.2-1.8-4-4-4S7 2.8 7 5s1.8 4 4 4 4-1.8 4-4"/></g><g><path fill="#e1e8ed" d="M13 5c0-1.1-.9-2-2-2s-2 .9-2 2 .9 2 2 2 2-.9 2-2"/></g><g><path d="M32 5c0-2.2-1.8-4-4-4s-4 1.8-4 4 1.8 4 4 4 4-1.8 4-4"/></g><g><path fill="#e1e8ed" d="M30 5c0-1.1-.9-2-2-2s-2 .9-2 2 .9 2 2 2 2-.9 2-2"/></g><g><path fill="#dd2e44" d="M22 23c0-.55-.45-1-1-1h-3c-.55 0-1 .45-1 1s.45 1 1 1h3c.55 0 1-.45 1-1"/></g><g><path fill="#55acee" d="M23 23c0-.55-.45-1-1-1h-2c-.55 0-1 .45-1 1s.45 1 1 1h2c.55 0 1-.45 1-1"/></g><g><path fill="#55acee" d="M24 15h7s-2 5-3 5h-4v-5z"/></g><g><path fill="#55acee" d="M22 20h-5c-2 0-5-5-5-5h10v5z"/></g></g></g></g></svg>