<?xml version="1.0" encoding="UTF-8" standalone="no"?>
<!-- Created with Inkscape (http://www.inkscape.org/) -->

<svg
   xmlns:svg="http://www.w3.org/2000/svg"
   xmlns="http://www.w3.org/2000/svg"
   version="1.1"
   width="47.5"
   height="47.5"
   id="svg2"
   xml:space="preserve"><defs
     id="defs6"><clipPath
       id="clipPath18"><path
         d="M 0,38 38,38 38,0 0,0 0,38 z"
         id="path20" /></clipPath></defs><g
     transform="matrix(1.25,0,0,-1.25,0,47.5)"
     id="g12"><g
       id="g14"><g
         clip-path="url(#clipPath18)"
         id="g16"><g
           transform="translate(31,21)"
           id="g22"><path
             d="m 0,0 c 0,-1.104 -0.896,-2 -2,-2 l -10,0 c -1.104,0 -2,0.896 -2,2 l 0,2 c 0,1.104 0.896,2 2,2 L -2,4 C -0.896,4 0,3.104 0,2 L 0,0 z"
             id="path24"
             style="fill:#58595b;fill-opacity:1;fill-rule:nonzero;stroke:none" /></g><g
           transform="translate(5,23)"
           id="g26"><path
             d="m 0,0 c -2.209,0 -4,-1.791 -4,-4 l 0,-10 c 0,-4.418 3.582,-8 8,-8 l 28,0 0,22 -32,0 z"
             id="path28"
             style="fill:#f4900c;fill-opacity:1;fill-rule:nonzero;stroke:none" /></g><g
           transform="translate(1.5869,6)"
           id="g30"><path
             d="m 0,0 35.413,0 0,2 -35.931,0 C -0.431,1.302 -0.255,0.631 0,0"
             id="path32"
             style="fill:#ffd983;fill-opacity:1;fill-rule:nonzero;stroke:none" /></g><path
           d="m 37,29 -36,0 0,6 36,0 0,-6 z"
           id="path34"
           style="fill:#808285;fill-opacity:1;fill-rule:nonzero;stroke:none" /><path
           d="m 37,31 -36,0 0,2 36,0 0,-2 z"
           id="path36"
           style="fill:#414042;fill-opacity:1;fill-rule:nonzero;stroke:none" /><g
           transform="translate(29,37)"
           id="g38"><path
             d="m 0,0 -10,0 c -1.657,0 -3,-1.343 -3,-3 0,-1.657 1.343,-3 3,-3 l 3,0 0,-4 -2,-2 8,0 -2,2 0,4 3,0 c 1.657,0 3,1.343 3,3 0,1.657 -1.343,3 -3,3"
             id="path40"
             style="fill:#a7a9ac;fill-opacity:1;fill-rule:nonzero;stroke:none" /></g><path
           d="M 15,8 37,8 37,23 15,23 15,8 z"
           id="path42"
           style="fill:#3b88c3;fill-opacity:1;fill-rule:nonzero;stroke:none" /><g
           transform="translate(13,12)"
           id="g44"><path
             d="m 0,0 c 0,-1.104 -0.896,-2 -2,-2 l -4,0 c -1.104,0 -2,0.896 -2,2 l 0,6 c 0,1.104 0.896,2 2,2 l 4,0 C -0.896,8 0,7.104 0,6 L 0,0 z"
             id="path46"
             style="fill:#58595b;fill-opacity:1;fill-rule:nonzero;stroke:none" /></g><g
           transform="translate(25,14)"
           id="g48"><path
             d="m 0,0 c 0,-1.104 -0.896,-2 -2,-2 l -4,0 c -1.104,0 -2,0.896 -2,2 l 0,4 c 0,1.104 0.896,2 2,2 l 4,0 C -0.896,6 0,5.104 0,4 L 0,0 z"
             id="path50"
             style="fill:#414042;fill-opacity:1;fill-rule:nonzero;stroke:none" /></g><g
           transform="translate(35,14)"
           id="g52"><path
             d="m 0,0 c 0,-1.104 -0.896,-2 -2,-2 l -4,0 c -1.104,0 -2,0.896 -2,2 l 0,4 c 0,1.104 0.896,2 2,2 l 4,0 C -0.896,6 0,5.104 0,4 L 0,0 z"
             id="path54"
             style="fill:#414042;fill-opacity:1;fill-rule:nonzero;stroke:none" /></g><g
           transform="translate(1,20)"
           id="g56"><path
             d="m 0,0 0,-10 c 1.104,0 2,0.896 2,2 l 0,6 C 2,-0.896 1.104,0 0,0"
             id="path58"
             style="fill:#58595b;fill-opacity:1;fill-rule:nonzero;stroke:none" /></g></g></g></g></svg>