<?xml version="1.0" encoding="UTF-8" standalone="no"?><svg xmlns:svg="http://www.w3.org/2000/svg" xmlns="http://www.w3.org/2000/svg" version="1.1" viewBox="0 0 47.5 47.5" style="enable-background:new 0 0 47.5 47.5;" id="svg2" xml:space="preserve"><defs id="defs6"><clipPath id="clipPath18"><path d="M 0,38 38,38 38,0 0,0 0,38 z" id="path20"/></clipPath></defs><g transform="matrix(1.25,0,0,-1.25,0,47.5)" id="g12"><g id="g14"><g clip-path="url(#clipPath18)" id="g16"><g transform="translate(33,14)" id="g22"><path d="m 0,0 c 0,0 -2,8 -5,8 l -11,0 c -3,0 -7,-7 -7,-7 0,0 -8,-1 -8,-5 l 0,-2 c 0,-0.09 0.021,-0.175 0.026,-0.263 C -31.583,-6.605 -32,-7.251 -32,-8 c 0,-1.104 0.896,-2 2,-2 l 3,0 2,0 25,0 c 2.209,0 4,1.791 4,4 l 0,2 C 4,-1.791 2.209,0 0,0" id="path24" style="fill:#e1e8ed;fill-opacity:1;fill-rule:nonzero;stroke:none"/></g><g transform="translate(2,10)" id="g26"><path d="M 0,0 0,-2 C 0,-2.09 0.021,-2.175 0.026,-2.263 -0.583,-2.605 -1,-3.251 -1,-4 c 0,-1.104 0.896,-2 2,-2 l 3,0 2,0 25,0 c 2.209,0 4,1.791 4,4 l 0,2 c 0,0.348 -0.059,0.679 -0.142,1 L 0.201,1 C 0.083,0.687 0,0.359 0,0" id="path28" style="fill:#000000;fill-opacity:1;fill-rule:nonzero;stroke:none"/></g><g transform="translate(16.9102,4)" id="g30"><path d="m 0,0 c 0.055,0.326 0.09,0.658 0.09,1 0,3.313 -2.687,6 -6,6 -3.314,0 -6,-2.687 -6,-6 0,-0.342 0.035,-0.674 0.09,-1 L 0,0 z" id="path32" style="fill:#66757f;fill-opacity:1;fill-rule:nonzero;stroke:none"/></g><g transform="translate(33.9102,4)" id="g34"><path d="m 0,0 c 0.055,0.326 0.09,0.658 0.09,1 0,3.313 -2.687,6 -6,6 -3.314,0 -6,-2.687 -6,-6 0,-0.342 0.035,-0.674 0.09,-1 L 0,0 z" id="path36" style="fill:#66757f;fill-opacity:1;fill-rule:nonzero;stroke:none"/></g><g transform="translate(15,5)" id="g38"><path d="m 0,0 c 0,-2.209 -1.791,-4 -4,-4 -2.209,0 -4,1.791 -4,4 0,2.209 1.791,4 4,4 2.209,0 4,-1.791 4,-4" id="path40" style="fill:#000000;fill-opacity:1;fill-rule:nonzero;stroke:none"/></g><g transform="translate(13,5)" id="g42"><path d="m 0,0 c 0,-1.104 -0.896,-2 -2,-2 -1.104,0 -2,0.896 -2,2 0,1.104 0.896,2 2,2 1.104,0 2,-0.896 2,-2" id="path44" style="fill:#e1e8ed;fill-opacity:1;fill-rule:nonzero;stroke:none"/></g><g transform="translate(32,5)" id="g46"><path d="m 0,0 c 0,-2.209 -1.791,-4 -4,-4 -2.209,0 -4,1.791 -4,4 0,2.209 1.791,4 4,4 2.209,0 4,-1.791 4,-4" id="path48" style="fill:#000000;fill-opacity:1;fill-rule:nonzero;stroke:none"/></g><g transform="translate(30,5)" id="g50"><path d="m 0,0 c 0,-1.104 -0.896,-2 -2,-2 -1.104,0 -2,0.896 -2,2 0,1.104 0.896,2 2,2 1.104,0 2,-0.896 2,-2" id="path52" style="fill:#e1e8ed;fill-opacity:1;fill-rule:nonzero;stroke:none"/></g><g transform="translate(22,23)" id="g54"><path d="m 0,0 c 0,-0.552 -0.447,-1 -1,-1 l -3,0 c -0.552,0 -1,0.448 -1,1 0,0.552 0.448,1 1,1 l 3,0 C -0.447,1 0,0.552 0,0" id="path56" style="fill:#dd2e44;fill-opacity:1;fill-rule:nonzero;stroke:none"/></g><g transform="translate(23,23)" id="g58"><path d="m 0,0 c 0,-0.552 -0.447,-1 -1,-1 l -2,0 c -0.552,0 -1,0.448 -1,1 0,0.552 0.448,1 1,1 l 2,0 C -0.447,1 0,0.552 0,0" id="path60" style="fill:#55acee;fill-opacity:1;fill-rule:nonzero;stroke:none"/></g><g transform="translate(24,15)" id="g62"><path d="M 0,0 7,0 C 7,0 5,5 4,5 L 0,5 0,0 z" id="path64" style="fill:#55acee;fill-opacity:1;fill-rule:nonzero;stroke:none"/></g><g transform="translate(22,20)" id="g66"><path d="m 0,0 -5,0 c -2,0 -5,-5 -5,-5 l 10,0 0,5 z" id="path68" style="fill:#55acee;fill-opacity:1;fill-rule:nonzero;stroke:none"/></g></g></g></g></svg>
