<svg xmlns="http://www.w3.org/2000/svg" viewBox="0 0 47.5 47.5" enable-background="new 0 0 47.5 47.5"><defs><clipPath id="a"><path d="M0 38h38V0H0v38z"/></clipPath></defs><g><g><g clip-path="url(#a)" transform="matrix(1.25 0 0 -1.25 0 47.5)"><g><path fill="#66757f" d="M35 4c0-1.1-.9-2-2-2h-3c-1.1 0-2 .9-2 2v8c0 1.1.9 2 2 2h3c1.1 0 2-.9 2-2V4z"/></g><g><path fill="#66757f" d="M10 4c0-1.1-.9-2-2-2H5c-1.1 0-2 .9-2 2v8c0 1.1.9 2 2 2h3c1.1 0 2-.9 2-2V4z"/></g><g><path fill="#66757f" d="M6 21.5c0-.83-.67-1.5-1.5-1.5h-2c-.83 0-1.5.67-1.5 1.5S1.67 23 2.5 23h2c.83 0 1.5-.67 1.5-1.5"/></g><g><path fill="#66757f" d="M32 21.5c0-.83.67-1.5 1.5-1.5h2c.83 0 1.5.67 1.5 1.5s-.67 1.5-1.5 1.5h-2c-.83 0-1.5-.67-1.5-1.5"/></g><g><path fill="#ccd6dd" d="M10 32c4 1 14 1 18 0 3.88-.97 5-11 5-11s2 0 2-4V9s0-3-3-4c-3.9-1.3-8-1-13-1S9.9 3.7 6 5C3 6 3 9 3 9v8s0 4 2 4c0 0 1.12 10.03 5 11"/></g><g><path fill="#292f33" d="M19 16c-5.72 0-11.14.1-16 .28V9s0-3 3-4c3.9-1.3 8-1 13-1s9.1-.3 13 1c3 1 3 4 3 4v7.28C30.14 16.1 24.72 16 19 16"/></g><g><path fill="#55acee" d="M19 22c3.9 0 8.62-.2 12-.56L30 27c-1 3-7 3-11 3S9 30 8 27l-1-5.56c3.38.36 8.1.56 12 .56"/></g><g><path fill="#ccd6dd" d="M13 13c0-1.1-.9-2-2-2H7c-1.1 0-2 .9-2 2s.9 2 2 2h4c1.1 0 2-.9 2-2"/></g><g><path fill="#ccd6dd" d="M25 13c0-1.1.9-2 2-2h4c1.1 0 2 .9 2 2s-.9 2-2 2h-4c-1.1 0-2-.9-2-2"/></g><g><path fill="#66757f" d="M30 8.5c0-.83-.67-1.5-1.5-1.5h-19C8.67 7 8 7.67 8 8.5S8.67 10 9.5 10h19c.83 0 1.5-.67 1.5-1.5"/></g><g><path fill="#99aab5" d="M13 16c-.15 0-.3.03-.45.1l-6 3c-.5.25-.7.85-.44 1.35.25.5.85.7 1.35.44l6-3c.5-.25.7-.85.45-1.35-.18-.35-.53-.55-.9-.55"/></g><g><path fill="#99aab5" d="M25 16c-.37 0-.72.2-.9.55-.24.5-.04 1.1.45 1.35l6 3c.5.24 1.1.04 1.35-.45.24-.5.04-1.1-.45-1.35l-6-3c-.15-.07-.3-.1-.45-.1"/></g><g><path fill="#dd2e44" d="M19 33.5c0-.83-.67-1.5-1.5-1.5h-7c-.83 0-1.5.67-1.5 1.5s.67 1.5 1.5 1.5h7c.83 0 1.5-.67 1.5-1.5"/></g><g><path fill="#55acee" d="M29 33.5c0-.83-.67-1.5-1.5-1.5h-7c-.83 0-1.5.67-1.5 1.5s.67 1.5 1.5 1.5h7c.83 0 1.5-.67 1.5-1.5"/></g><path fill="#f5f8fa" d="M21 32h-4v3h4v-3z"/></g></g></g></svg>