<svg xmlns="http://www.w3.org/2000/svg" viewBox="0 0 47.5 47.5" enable-background="new 0 0 47.5 47.5"><defs><clipPath id="a"><path d="M0 38h38V0H0v38z"/></clipPath></defs><g><g><g clip-path="url(#a)" transform="matrix(1.25 0 0 -1.25 0 47.5)"><g><path fill="#dd2e44" d="M14 8h20s3 0 3 4c0 2 0 6-1 7s-8 7-11 7h-6c-3 0-10-7-10-7l-4-1s-3-1-3-3v-3s-1-.34-1-1.96C1 8 3 8 3 8h11z"/></g><g><path fill="#bbddf5" d="M21 24h-2c-2 0-8-6-8-6s5 .26 10 .52V24z"/></g><g><path fill="#bbddf5" d="M31 21c-1 1-5 3-7 3h-1v-5.38c4 .2 7.58.38 8 .38 1 0 1 1 0 2"/></g><g><path fill="#292f33" d="M15 9c0-2.2-1.8-4-4-4S7 6.8 7 9s1.8 4 4 4 4-1.8 4-4"/></g><g><path fill="#ccd6dd" d="M13 9c0-1.1-.9-2-2-2s-2 .9-2 2 .9 2 2 2 2-.9 2-2"/></g><g><path fill="#292f33" d="M32 9c0-2.2-1.8-4-4-4s-4 1.8-4 4 1.8 4 4 4 4-1.8 4-4"/></g><g><path fill="#ccd6dd" d="M30 9c0-1.1-.9-2-2-2s-2 .9-2 2 .9 2 2 2 2-.9 2-2"/></g></g></g></g></svg>