<svg xmlns="http://www.w3.org/2000/svg" viewBox="0 0 47.5 47.5" enable-background="new 0 0 47.5 47.5"><defs><clipPath id="a"><path d="M0 38h38V0H0v38z"/></clipPath></defs><g><g><g clip-path="url(#a)" transform="matrix(1.25 0 0 -1.25 0 47.5)"><g><path fill="#292f33" d="M35 4c0-1.1-.9-2-2-2h-3c-1.1 0-2 .9-2 2v8c0 1.1.9 2 2 2h3c1.1 0 2-.9 2-2V4z"/></g><g><path fill="#292f33" d="M10 4c0-1.1-.9-2-2-2H5c-1.1 0-2 .9-2 2v8c0 1.1.9 2 2 2h3c1.1 0 2-.9 2-2V4z"/></g><g><path fill="#3b88c3" d="M10 32c4 1 14 1 18 0 3.88-.97 5-11 5-11s2 0 2-4V9s-.12-3.03-4-4c-4-1-7-1-12-1S11 4 7 5c-3.88.97-4 4-4 4v8s0 4 2 4c0 0 1.12 10.03 5 11"/></g><g><path fill="#bbddf5" d="M19 22c3.9 0 8.62-.2 12-.56L30 27c-1 3-7 3-11 3S9 30 8 27l-1-5.56c3.38.36 8.1.56 12 .56"/></g><g><path fill="#3b88c3" d="M6 21.5c0-.83-.67-1.5-1.5-1.5h-2c-.83 0-1.5.67-1.5 1.5S1.67 23 2.5 23h2c.83 0 1.5-.67 1.5-1.5"/></g><g><path fill="#3b88c3" d="M32 21.5c0-.83.67-1.5 1.5-1.5h2c.83 0 1.5.67 1.5 1.5s-.67 1.5-1.5 1.5h-2c-.83 0-1.5-.67-1.5-1.5"/></g><g><path fill="#ffcc4d" d="M12 14c0-1.66-1.34-3-3-3H8c-1.66 0-3 1.34-3 3s1.34 3 3 3h1c1.66 0 3-1.34 3-3"/></g><g><path fill="#ffcc4d" d="M33 14c0-1.66-1.34-3-3-3h-1c-1.66 0-3 1.34-3 3s1.34 3 3 3h1c1.66 0 3-1.34 3-3"/></g><g><path fill="#269" d="M13 15c-.32 0-.64.16-.83.45-1.74 2.6-6.32 3.56-6.37 3.57-.54.1-.9.64-.78 1.18.1.54.63.9 1.18.78.22-.04 5.43-1.12 7.63-4.43.3-.46.18-1.08-.28-1.38-.17-.12-.36-.17-.55-.17"/></g><g><path fill="#269" d="M25 15c-.2 0-.38.06-.56.17-.46.3-.58.92-.27 1.38 2.2 3.3 7.4 4.4 7.63 4.43.54.1 1.07-.24 1.18-.78.1-.54-.24-1.07-.78-1.18-.05 0-4.63-.96-6.37-3.57-.2-.3-.5-.45-.83-.45"/></g><g><path fill="#55acee" d="M19 8c-5.66 0-12.64.23-13.7 1.3-.4.38-.4 1.02 0 1.4.34.35.87.4 1.26.13.23-.1 2.3-.83 12.44-.83 10.15 0 12.2.73 12.44.83.4.26.92.22 1.27-.12.4-.38.4-1.02 0-1.4C31.65 8.22 24.67 8 19 8"/></g><g><path fill="#269" d="M26 7.5C26 6 22.87 5 19 5s-7 1-7 2.5c0 .83 3.13.5 7 .5s7 .33 7-.5"/></g></g></g></g></svg>