<?xml version="1.0" encoding="UTF-8" standalone="no"?><svg xmlns:dc="http://purl.org/dc/elements/1.1/" xmlns:cc="http://creativecommons.org/ns#" xmlns:rdf="http://www.w3.org/1999/02/22-rdf-syntax-ns#" xmlns:svg="http://www.w3.org/2000/svg" xmlns="http://www.w3.org/2000/svg" viewBox="0 0 47.5 47.5" style="enable-background:new 0 0 47.5 47.5;" xml:space="preserve" version="1.1" id="svg2"><metadata id="metadata8"><rdf:RDF><cc:Work rdf:about=""><dc:format>image/svg+xml</dc:format><dc:type rdf:resource="http://purl.org/dc/dcmitype/StillImage"/></cc:Work></rdf:RDF></metadata><defs id="defs6"><clipPath id="clipPath32" clipPathUnits="userSpaceOnUse"><path id="path34" d="M 0,38 38,38 38,0 0,0 0,38 Z"/></clipPath></defs><g transform="matrix(1.25,0,0,-1.25,0,47.5)" id="g10"><path id="path12" style="fill:#6d6e71;fill-opacity:1;fill-rule:nonzero;stroke:none" d="M 37,9 1,9 1,13 37,13 37,9 Z"/><path id="path14" style="fill:#939598;fill-opacity:1;fill-rule:nonzero;stroke:none" d="m 37,11 -36,0 0,4 36,0 0,-4 z"/><path id="path16" style="fill:#939598;fill-opacity:1;fill-rule:nonzero;stroke:none" d="M 11,1 7,1 7,9 11,9 11,1 Z"/><path id="path18" style="fill:#939598;fill-opacity:1;fill-rule:nonzero;stroke:none" d="m 21,1 -4,0 0,8 4,0 0,-8 z"/><path id="path20" style="fill:#939598;fill-opacity:1;fill-rule:nonzero;stroke:none" d="m 31,1 -4,0 0,8 4,0 0,-8 z"/><path id="path22" style="fill:#6d6e71;fill-opacity:1;fill-rule:nonzero;stroke:none" d="m 11,7 -4,0 0,3 4,0 0,-3 z"/><path id="path24" style="fill:#6d6e71;fill-opacity:1;fill-rule:nonzero;stroke:none" d="m 21,7 -4,0 0,3 4,0 0,-3 z"/><path id="path26" style="fill:#6d6e71;fill-opacity:1;fill-rule:nonzero;stroke:none" d="m 31,7 -4,0 0,3 4,0 0,-3 z"/><g id="g28"><g clip-path="url(#clipPath32)" id="g30"><g transform="translate(37,37)" id="g36"><path id="path38" style="fill:#bcbec0;fill-opacity:1;fill-rule:nonzero;stroke:none" d="m 0,0 -6,0 c -1.104,0 -2,-0.896 -2,-2 l 0,-2 c 0,-1.104 0.896,-2 2,-2 l 6,0 0,6 z"/></g><g transform="translate(37,17)" id="g40"><path id="path42" style="fill:#d1d3d4;fill-opacity:1;fill-rule:nonzero;stroke:none" d="m 0,0 0,-5 -18,0 c -3,0 -7,5 -7,5 L 0,0 Z"/></g><g transform="translate(11.9995,17)" id="g44"><path id="path46" style="fill:#bcbec0;fill-opacity:1;fill-rule:nonzero;stroke:none" d="M 0,0 C 0,0 0.751,-0.937 1.844,-2 L 25,-2 25,0 0,0 Z"/></g><g transform="translate(37,17)" id="g48"><path id="path50" style="fill:#e6e7e8;fill-opacity:1;fill-rule:nonzero;stroke:none" d="m 0,0 -26,0 c -3,0 -7,3 -7,6 0,5.001 16,12 18,12 L 0,18 0,0 Z"/></g><g transform="translate(4.7412,25)" id="g52"><path id="path54" style="fill:#5c913b;fill-opacity:1;fill-rule:nonzero;stroke:none" d="m 0,0 c -0.461,-0.687 -0.742,-1.36 -0.742,-2 0,-1.655 1.221,-3.308 2.816,-4.459 C 17.49,-2 32.259,-2 32.259,-2 l 0,2 L 0,0 Z"/></g><g transform="translate(22,33)" id="g56"><path id="path58" style="fill:#55acee;fill-opacity:1;fill-rule:nonzero;stroke:none" d="m 0,0 -5.553,0 c -3.327,-1.524 -7.344,-3.738 -9.899,-6 L 0,-6 c 1.104,0 2,0.896 2,2 l 0,2 C 2,-0.896 1.104,0 0,0"/></g><g transform="translate(27,28)" id="g60"><path id="path62" style="fill:#55acee;fill-opacity:1;fill-rule:nonzero;stroke:none" d="m 0,0 c 0,-0.552 -0.447,-1 -1,-1 -0.553,0 -1,0.448 -1,1 l 0,4 c 0,0.552 0.447,1 1,1 0.553,0 1,-0.448 1,-1 L 0,0 Z"/></g><g transform="translate(35,28)" id="g64"><path id="path66" style="fill:#55acee;fill-opacity:1;fill-rule:nonzero;stroke:none" d="m 0,0 c 0,-0.552 -0.447,-1 -1,-1 l -4,0 c -0.553,0 -1,0.448 -1,1 l 0,4 c 0,0.552 0.447,1 1,1 l 4,0 C -0.447,5 0,4.552 0,4 L 0,0 Z"/></g></g></g></g></svg>
