<svg xmlns="http://www.w3.org/2000/svg" viewBox="0 0 47.5 47.5" enable-background="new 0 0 47.5 47.5"><defs><clipPath id="a"><path d="M0 38h38V0H0v38z"/></clipPath></defs><g><g><g clip-path="url(#a)" transform="matrix(1.25 0 0 -1.25 0 47.5)"><g><path fill="#99aab5" d="M32 11H12v1c0 2.2-1.8 4-4 4H5c-2.2 0-4-1.8-4-4V9c0-2.2 1.8-4 4-4h28c2.2 0 4 1.8 4 4v2h-5z"/></g><g><path fill="#ffcc4d" d="M11 24H8.15C5 24 4 22 4 22l-3-5.96V11h13v10c0 1.66-1.34 3-3 3"/></g><g><path fill="#55acee" d="M10 16H3l2 4s1 2 3 2h2v-6z"/></g><g><path fill="#292f33" d="M11 5c0-2.2-1.8-4-4-4S3 2.8 3 5s1.8 4 4 4 4-1.8 4-4"/></g><g><path fill="#ccd6dd" d="M9 5c0-1.1-.9-2-2-2s-2 .9-2 2 .9 2 2 2 2-.9 2-2"/></g><g><path fill="#292f33" d="M35 5c0-2.2-1.8-4-4-4s-4 1.8-4 4 1.8 4 4 4 4-1.8 4-4"/></g><g><path fill="#ccd6dd" d="M33 5c0-1.1-.9-2-2-2s-2 .9-2 2 .9 2 2 2 2-.9 2-2"/></g><g><path fill="#292f33" d="M25 5c0-2.2-1.8-4-4-4s-4 1.8-4 4 1.8 4 4 4 4-1.8 4-4"/></g><g><path fill="#ccd6dd" d="M23 5c0-1.1-.9-2-2-2s-2 .9-2 2 .9 2 2 2 2-.9 2-2"/></g><g><path fill="#77b255" d="M33 28H20c-2.2 0-4-1.8-4-4V11h21v13c0 2.2-1.8 4-4 4"/></g></g></g></g></svg>