<svg xmlns="http://www.w3.org/2000/svg" viewBox="0 0 47.5 47.5" enable-background="new 0 0 47.5 47.5"><defs><clipPath id="a"><path d="M0 38h38V0H0v38z"/></clipPath></defs><g><path fill="#6d6e71" d="M46.25 36.25h-45v-5h45v5z"/><path fill="#939598" d="M46.25 33.75h-45v-5h45v5z"/><path fill="#939598" d="M13.75 46.25h-5v-10h5v10z"/><path fill="#939598" d="M26.25 46.25h-5v-10h5v10z"/><path fill="#939598" d="M38.75 46.25h-5v-10h5v10z"/><path fill="#6d6e71" d="M13.75 38.75h-5V35h5v3.75z"/><path fill="#6d6e71" d="M26.25 38.75h-5V35h5v3.75z"/><path fill="#6d6e71" d="M38.75 38.75h-5V35h5v3.75z"/><g><g clip-path="url(#a)" transform="matrix(1.25 0 0 -1.25 0 47.5)"><g><path fill="#bcbec0" d="M37 37h-6c-1.1 0-2-.9-2-2v-2c0-1.1.9-2 2-2h6v6z"/></g><g><path fill="#d1d3d4" d="M37 17v-5H19c-3 0-7 5-7 5h25z"/></g><g><path fill="#bcbec0" d="M12 17s.75-.94 1.84-2H37v2H12z"/></g><g><path fill="#e6e7e8" d="M37 17H11c-3 0-7 3-7 6 0 5 16 12 18 12h15V17z"/></g><g><path fill="#5c913b" d="M4.74 25c-.46-.7-.74-1.36-.74-2 0-1.66 1.22-3.3 2.82-4.46C22.22 23 37 23 37 23v2H4.74z"/></g><g><path fill="#55acee" d="M22 33h-5.55c-3.33-1.52-7.35-3.74-9.9-6H22c1.1 0 2 .9 2 2v2c0 1.1-.9 2-2 2"/></g><g><path fill="#55acee" d="M27 28c0-.55-.45-1-1-1s-1 .45-1 1v4c0 .55.45 1 1 1s1-.45 1-1v-4z"/></g><g><path fill="#55acee" d="M35 28c0-.55-.45-1-1-1h-4c-.55 0-1 .45-1 1v4c0 .55.45 1 1 1h4c.55 0 1-.45 1-1v-4z"/></g></g></g></g></svg>