<?xml version="1.0" encoding="UTF-8" standalone="no"?>
<!-- Created with Inkscape (http://www.inkscape.org/) -->

<svg
   xmlns:svg="http://www.w3.org/2000/svg"
   xmlns="http://www.w3.org/2000/svg"
   version="1.1"
   width="47.5"
   height="47.5"
   id="svg2"
   xml:space="preserve"><defs
     id="defs6"><clipPath
       id="clipPath22"><path
         d="M 0,38 38,38 38,0 0,0 0,38 z"
         id="path24" /></clipPath></defs><g
     transform="matrix(1.25,0,0,-1.25,0,47.5)"
     id="g12"><g
       transform="translate(20,25)"
       id="g14"><path
         d="M 0,0 0,7 -2,7 -2,0 -7,0 -7,-5 5,-5 5,0 0,0 z"
         id="path16"
         style="fill:#58595b;fill-opacity:1;fill-rule:nonzero;stroke:none" /></g><g
       id="g18"><g
         clip-path="url(#clipPath22)"
         id="g20"><g
           transform="translate(35,9)"
           id="g26"><path
             d="m 0,0 0,10 c 0,2.209 -1.791,4 -4,4 l -24,0 c -2.209,0 -4,-1.791 -4,-4 L -32,0 0,0 z"
             id="path28"
             style="fill:#ffd983;fill-opacity:1;fill-rule:nonzero;stroke:none" /></g><g
           transform="translate(3,15)"
           id="g30"><path
             d="m 0,0 0,-6 c 0,-4.418 3.582,-8 8,-8 l 16,0 c 4.418,0 8,3.582 8,8 L 32,0 0,0 z"
             id="path32"
             style="fill:#226699;fill-opacity:1;fill-rule:nonzero;stroke:none" /></g><path
           d="m 9,10 -6,0 0,9 6,0 0,-9 z"
           id="path34"
           style="fill:#88c9f9;fill-opacity:1;fill-rule:nonzero;stroke:none" /><path
           d="m 18,10 -7,0 0,9 7,0 0,-9 z"
           id="path36"
           style="fill:#88c9f9;fill-opacity:1;fill-rule:nonzero;stroke:none" /><path
           d="m 27,10 -7,0 0,9 7,0 0,-9 z"
           id="path38"
           style="fill:#88c9f9;fill-opacity:1;fill-rule:nonzero;stroke:none" /><path
           d="m 35,10 -6,0 0,9 6,0 0,-9 z"
           id="path40"
           style="fill:#88c9f9;fill-opacity:1;fill-rule:nonzero;stroke:none" /><g
           transform="translate(34.2129,26.0225)"
           id="g42"><path
             d="m 0,0 -29.943,8.023 c -0.534,0.144 -0.85,0.692 -0.707,1.226 0.142,0.533 0.691,0.85 1.224,0.707 L 0.518,1.933 C 1.052,1.789 1.368,1.241 1.225,0.708 1.082,0.174 0.534,-0.144 0,0"
             id="path44"
             style="fill:#6d6e71;fill-opacity:1;fill-rule:nonzero;stroke:none" /></g><g
           transform="translate(24.3477,32.6387)"
           id="g46"><path
             d="M 0,0 -1.933,0.518 -1.674,1.482 -7.469,3.035 -7.728,2.07 -9.66,2.588 c -1.067,0.285 -2.163,-0.348 -2.449,-1.415 -0.287,-1.067 0.347,-2.163 1.414,-2.449 l 9.66,-2.588 C 0.031,-4.15 1.128,-3.517 1.414,-2.45 1.699,-1.384 1.066,-0.286 0,0"
             id="path48"
             style="fill:#a7a9ac;fill-opacity:1;fill-rule:nonzero;stroke:none" /></g><g
           transform="translate(14.8774,32.0693)"
           id="g50"><path
             d="m 0,0 c -0.286,-1.066 -1.383,-1.7 -2.45,-1.414 -1.066,0.286 -1.7,1.383 -1.414,2.449 0.286,1.068 1.383,1.7 2.449,1.415 C -0.348,2.164 0.286,1.067 0,0"
             id="path52"
             style="fill:#808285;fill-opacity:1;fill-rule:nonzero;stroke:none" /></g><g
           transform="translate(26.4688,28.9639)"
           id="g54"><path
             d="m 0,0 c -0.286,-1.067 -1.383,-1.7 -2.449,-1.414 -1.068,0.286 -1.7,1.382 -1.414,2.449 0.285,1.068 1.382,1.7 2.449,1.414 C -0.348,2.163 0.286,1.066 0,0"
             id="path56"
             style="fill:#808285;fill-opacity:1;fill-rule:nonzero;stroke:none" /></g><path
           d="m 9,17 -6,0 0,2 6,0 0,-2 z"
           id="path58"
           style="fill:#55acee;fill-opacity:1;fill-rule:nonzero;stroke:none" /><path
           d="m 18,17 -7,0 0,2 7,0 0,-2 z"
           id="path60"
           style="fill:#55acee;fill-opacity:1;fill-rule:nonzero;stroke:none" /><path
           d="m 27,17 -7,0 0,2 7,0 0,-2 z"
           id="path62"
           style="fill:#55acee;fill-opacity:1;fill-rule:nonzero;stroke:none" /><path
           d="m 35,17 -6,0 0,2 6,0 0,-2 z"
           id="path64"
           style="fill:#55acee;fill-opacity:1;fill-rule:nonzero;stroke:none" /></g></g></g></svg>