<?xml version="1.0" encoding="UTF-8" standalone="no"?><svg xmlns:svg="http://www.w3.org/2000/svg" xmlns="http://www.w3.org/2000/svg" version="1.1" viewBox="0 0 47.5 47.5" style="enable-background:new 0 0 47.5 47.5;" id="svg2" xml:space="preserve"><defs id="defs6"><clipPath id="clipPath18"><path d="M 0,38 38,38 38,0 0,0 0,38 z" id="path20"/></clipPath></defs><g transform="matrix(1.25,0,0,-1.25,0,47.5)" id="g12"><g id="g14"><g clip-path="url(#clipPath18)" id="g16"><g transform="translate(7,12)" id="g22"><path d="m 0,0 c -2.2,0 -4.362,-2.17 -4,0 l 2.342,16.054 C -1.296,18.225 0.8,20 3,20 l 18,0 c 2.2,0 4.296,-1.775 4.657,-3.946 L 28,0 c 0.361,-2.17 -1.8,0 -4,0 L 0,0 z" id="path24" style="fill:#dd2e44;fill-opacity:1;fill-rule:nonzero;stroke:none"/></g><g transform="translate(7.3213,27.7656)" id="g26"><path d="m 0,0 c 0.196,1.171 1.45,2.234 2.679,2.234 l 9,0 0,-21 -12,0 c -0.615,0 -2.472,-3.854 -3,-4 L 0,0 z" id="path28" style="fill:#ea596e;fill-opacity:1;fill-rule:nonzero;stroke:none"/></g><g transform="translate(3,4)" id="g30"><path d="m 0,0 c 0,0 -2,0 -2,2 0,1 1,6 1,6 L 33,8 C 33,8 34,3 34,2 34,0 32,0 32,0" id="path32" style="fill:#99aab5;fill-opacity:1;fill-rule:nonzero;stroke:none"/></g></g></g></g></svg>
