<svg xmlns="http://www.w3.org/2000/svg" viewBox="0 0 47.5 47.5" enable-background="new 0 0 47.5 47.5"><defs><clipPath id="a"><path d="M0 38h38V0H0v38z"/></clipPath></defs><g><g><g clip-path="url(#a)" transform="matrix(1.25 0 0 -1.25 0 47.5)"><g><path d="M36 19c0 9.4-7.6 17-17 17S2 28.4 2 19 9.6 2 19 2s17 7.6 17 17"/></g><g><path fill="#fff" d="M24.7 20c-.42 0-.75.26-.75.67 0 .22.1 2.15 2.93 4.04 1.48 1 1.8 2.63 1.45 3.74-.32 1.04-1.16 1.63-2.33 1.63-1.77 0-2.26-.96-2.4-1.53-.16-.7.1-1.28.28-1.37.4-.2.8-.22 1.07-.05.2.13.3.33.3.6 0 .43.34.76.75.76.42 0 .75-.34.75-.75 0-.8-.37-1.48-1-1.88-.73-.45-1.68-.45-2.55-.02-.9.45-1.36 1.77-1.05 3.05.4 1.68 1.83 2.68 3.85 2.68 1.85 0 3.25-1 3.77-2.7.6-2-.25-4.22-2.06-5.43-2.16-1.45-2.24-2.72-2.25-2.78-.02-.4-.35-.65-.75-.65"/></g><g><path fill="#fff" d="M23 18H7s-2 0-2-2v-1c0-2 2-2 2-2h16v5z"/></g><g><path fill="#fff" d="M28 18h-3v-5h3s2 0 2 2v1c0 2-2 2-2 2"/></g><g><path fill="#dd2e44" d="M30.68 8.1L8.08 30.67C10.96 33.35 14.8 35 19 35c8.84 0 16-7.16 16-16 0-4.22-1.65-8.05-4.32-10.9M3 19c0 3.7 1.28 7.12 3.4 9.83L28.83 6.4C26.13 4.27 22.7 3 19 3 10.16 3 3 10.16 3 19m16 18C9.06 37 1 28.94 1 19S9.06 1 19 1s18 8.06 18 18-8.06 18-18 18"/></g></g></g></g></svg>