<?xml version="1.0" encoding="UTF-8" standalone="no"?>
<!-- Created with Inkscape (http://www.inkscape.org/) -->

<svg
   xmlns:svg="http://www.w3.org/2000/svg"
   xmlns="http://www.w3.org/2000/svg"
   version="1.1"
   width="47.5"
   height="47.5"
   id="svg2"
   xml:space="preserve"><defs
     id="defs6"><clipPath
       id="clipPath18"><path
         d="M 0,38 38,38 38,0 0,0 0,38 z"
         id="path20" /></clipPath><clipPath
       id="clipPath30"><path
         d="M 9,34 5,34 C 2.791,34 1,32.209 1,30 l 0,0 0,-8 c 0,-2.209 1.791,-4 4,-4 l 0,0 28,0 c 2.209,0 4,1.791 4,4 l 0,0 0,8 c 0,2.209 -1.791,4 -4,4 l 0,0 -24,0 z"
         id="path32" /></clipPath><clipPath
       id="clipPath58"><path
         d="M 0,38 38,38 38,0 0,0 0,38 z"
         id="path60" /></clipPath></defs><g
     transform="matrix(1.25,0,0,-1.25,0,47.5)"
     id="g12"><g
       id="g14"><g
         clip-path="url(#clipPath18)"
         id="g16"><g
           transform="translate(37,22)"
           id="g22"><path
             d="m 0,0 c 0,-2.209 -1.791,-4 -4,-4 l -28,0 c -2.209,0 -4,1.791 -4,4 l 0,8 c 0,2.209 1.791,4 4,4 l 4,0 24,0 c 2.209,0 4,-1.791 4,-4 L 0,0 z"
             id="path24"
             style="fill:#ffcc4d;fill-opacity:1;fill-rule:nonzero;stroke:none" /></g></g></g><g
       id="g26"><g
         clip-path="url(#clipPath30)"
         id="g28"><g
           transform="translate(3,35)"
           id="g34"><path
             d="m 0,0 -18,-18 5,0 L 5,0 0,0 z"
             id="path36"
             style="fill:#292f33;fill-opacity:1;fill-rule:nonzero;stroke:none" /></g><g
           transform="translate(14,35)"
           id="g38"><path
             d="m 0,0 -18,-18 5,0 L 5,0 0,0 z"
             id="path40"
             style="fill:#292f33;fill-opacity:1;fill-rule:nonzero;stroke:none" /></g><g
           transform="translate(25,35)"
           id="g42"><path
             d="m 0,0 -18,-18 5,0 L 5,0 0,0 z"
             id="path44"
             style="fill:#292f33;fill-opacity:1;fill-rule:nonzero;stroke:none" /></g><g
           transform="translate(36,35)"
           id="g46"><path
             d="m 0,0 -18,-18 5,0 L 5,0 0,0 z"
             id="path48"
             style="fill:#292f33;fill-opacity:1;fill-rule:nonzero;stroke:none" /></g><g
           transform="translate(47,35)"
           id="g50"><path
             d="m 0,0 -18,-18 5,0 L 5,0 0,0 z"
             id="path52"
             style="fill:#292f33;fill-opacity:1;fill-rule:nonzero;stroke:none" /></g></g></g><g
       id="g54"><g
         clip-path="url(#clipPath58)"
         id="g56"><path
           d="M 10,4 5,4 5,18 10,18 10,4 z"
           id="path62"
           style="fill:#99aab5;fill-opacity:1;fill-rule:nonzero;stroke:none" /><path
           d="m 33,4 -5,0 0,14 5,0 0,-14 z"
           id="path64"
           style="fill:#99aab5;fill-opacity:1;fill-rule:nonzero;stroke:none" /></g></g></g></svg>