<?xml version="1.0" encoding="UTF-8" standalone="no"?>
<!-- Created with Inkscape (http://www.inkscape.org/) -->

<svg
   xmlns:svg="http://www.w3.org/2000/svg"
   xmlns="http://www.w3.org/2000/svg"
   version="1.1"
   width="47.5"
   height="47.5"
   id="svg2"
   xml:space="preserve"><defs
     id="defs6"><clipPath
       id="clipPath18"><path
         d="M 0,38 38,38 38,0 0,0 0,38 z"
         id="path20" /></clipPath></defs><g
     transform="matrix(1.25,0,0,-1.25,0,47.5)"
     id="g12"><g
       id="g14"><g
         clip-path="url(#clipPath18)"
         id="g16"><g
           transform="translate(35,5)"
           id="g22"><path
             d="m 0,0 -3,0 0,28 c 0,2.209 -1.791,4 -4,4 l -18,0 c -2.209,0 -4,-1.791 -4,-4 l 0,-28 -3,0 c -1.104,0 -2,-0.896 -2,-2 0,-1.104 0.896,-2 2,-2 l 32,0 c 1.104,0 2,0.896 2,2 0,1.104 -0.896,2 -2,2"
             id="path24"
             style="fill:#bcbec0;fill-opacity:1;fill-rule:nonzero;stroke:none" /></g><g
           transform="translate(30,4)"
           id="g26"><path
             d="m 0,0 c 0,-1.657 -1.343,-3 -3,-3 l -16,0 c -1.657,0 -3,1.343 -3,3 l 0,28 c 0,1.657 1.343,3 3,3 l 16,0 c 1.657,0 3,-1.343 3,-3 L 0,0 z"
             id="path28"
             style="fill:#be1931;fill-opacity:1;fill-rule:nonzero;stroke:none" /></g><g
           transform="translate(15,17.5)"
           id="g30"><path
             d="M 0,0 C 0,-1.38 -1.119,-2.5 -2.5,-2.5 -3.881,-2.5 -5,-1.38 -5,0 -5,1.381 -3.881,2.5 -2.5,2.5 -1.119,2.5 0,1.381 0,0"
             id="path32"
             style="fill:#f4900c;fill-opacity:1;fill-rule:nonzero;stroke:none" /></g><g
           transform="translate(14,17.5)"
           id="g34"><path
             d="M 0,0 C 0,-0.828 -0.671,-1.5 -1.5,-1.5 -2.329,-1.5 -3,-0.828 -3,0 -3,0.829 -2.329,1.5 -1.5,1.5 -0.671,1.5 0,0.829 0,0"
             id="path36"
             style="fill:#ffd983;fill-opacity:1;fill-rule:nonzero;stroke:none" /></g><g
           transform="translate(27,21)"
           id="g38"><path
             d="m 0,0 -4,0 c -0.553,0 -1,0.448 -1,1 0,0.552 0.447,1 1,1 l 3,0 0,7 c 0,0.552 0.447,1 1,1 0.553,0 1,-0.448 1,-1 L 1,1 C 1,0.448 0.553,0 0,0"
             id="path40"
             style="fill:#ea596e;fill-opacity:1;fill-rule:nonzero;stroke:none" /></g><g
           transform="translate(21,23)"
           id="g42"><path
             d="m 0,0 c -0.553,0 -1,0.448 -1,1 l 0,8 c 0,0.552 0.447,1 1,1 l 4,0 C 4.553,10 5,9.552 5,9 5,8.448 4.553,8 4,8 L 1,8 1,1 C 1,0.448 0.553,0 0,0"
             id="path44"
             style="fill:#a0041e;fill-opacity:1;fill-rule:nonzero;stroke:none" /></g><g
           transform="translate(17,21)"
           id="g46"><path
             d="m 0,0 -4,0 c -0.552,0 -1,0.448 -1,1 0,0.552 0.448,1 1,1 l 3,0 0,7 c 0,0.552 0.448,1 1,1 0.552,0 1,-0.448 1,-1 L 1,1 C 1,0.448 0.552,0 0,0"
             id="path48"
             style="fill:#ea596e;fill-opacity:1;fill-rule:nonzero;stroke:none" /></g><g
           transform="translate(11,23)"
           id="g50"><path
             d="m 0,0 c -0.552,0 -1,0.448 -1,1 l 0,8 c 0,0.552 0.448,1 1,1 l 4,0 C 4.552,10 5,9.552 5,9 5,8.448 4.552,8 4,8 L 1,8 1,1 C 1,0.448 0.552,0 0,0"
             id="path52"
             style="fill:#a0041e;fill-opacity:1;fill-rule:nonzero;stroke:none" /></g><g
           transform="translate(27,3)"
           id="g54"><path
             d="m 0,0 -4,0 c -0.553,0 -1,0.447 -1,1 0,0.553 0.447,1 1,1 l 3,0 0,6 C -1,8.553 -0.553,9 0,9 0.553,9 1,8.553 1,8 L 1,1 C 1,0.447 0.553,0 0,0"
             id="path56"
             style="fill:#ea596e;fill-opacity:1;fill-rule:nonzero;stroke:none" /></g><g
           transform="translate(21,5)"
           id="g58"><path
             d="m 0,0 c -0.553,0 -1,0.447 -1,1 l 0,7 c 0,0.553 0.447,1 1,1 L 4,9 C 4.553,9 5,8.553 5,8 5,7.447 4.553,7 4,7 L 1,7 1,1 C 1,0.447 0.553,0 0,0"
             id="path60"
             style="fill:#a0041e;fill-opacity:1;fill-rule:nonzero;stroke:none" /></g><g
           transform="translate(17,3)"
           id="g62"><path
             d="m 0,0 -4,0 c -0.552,0 -1,0.447 -1,1 0,0.553 0.448,1 1,1 l 3,0 0,6 C -1,8.553 -0.552,9 0,9 0.552,9 1,8.553 1,8 L 1,1 C 1,0.447 0.552,0 0,0"
             id="path64"
             style="fill:#ea596e;fill-opacity:1;fill-rule:nonzero;stroke:none" /></g><g
           transform="translate(11,5)"
           id="g66"><path
             d="m 0,0 c -0.552,0 -1,0.447 -1,1 l 0,7 c 0,0.553 0.448,1 1,1 L 4,9 C 4.552,9 5,8.553 5,8 5,7.447 4.552,7 4,7 L 1,7 1,1 C 1,0.447 0.552,0 0,0"
             id="path68"
             style="fill:#a0041e;fill-opacity:1;fill-rule:nonzero;stroke:none" /></g></g></g></g></svg>