<svg xmlns="http://www.w3.org/2000/svg" viewBox="0 0 47.5 47.5" enable-background="new 0 0 47.5 47.5"><defs><clipPath id="a"><path d="M0 38h38V0H0v38z"/></clipPath><clipPath id="b"><path d="M3 16s-2 0-2-2V9c0-2 2-2 2-2h29s2 0 2 2v5c0 2-2 2-2 2H3z"/></clipPath><clipPath id="c"><path d="M0 38h38V0H0v38z"/></clipPath></defs><g><g><g clip-path="url(#a)" transform="matrix(1.25 0 0 -1.25 0 47.5)"><g><path fill="#d99e82" d="M34 9c0-2-2-2-2-2H3S1 7 1 9v5c0 2 2 2 2 2h29s2 0 2-2V9z"/></g></g></g><g><g clip-path="url(#b)" transform="matrix(1.25 0 0 -1.25 0 47.5)"><path fill="#e1e8ed" d="M26 1H13v20h13V1z"/><path fill="#66757f" d="M36 3H26v16h10V3z"/></g></g><g><g clip-path="url(#c)" transform="matrix(1.25 0 0 -1.25 0 47.5)"><g><path fill="#ccd6dd" d="M29 17c-.5 0-.92.36-1 .85-.02.2-.65 4.93 4.48 8 2.5 1.5 3.06 4.25 2.53 6.17-.23.9-1.12 2.98-4 2.98-3.15 0-3.92-1.84-4.1-2.64-.3-1.2.13-2.26.54-2.46.72-.36 1.45-.4 1.96-.07.4.24.6.64.6 1.17 0 .55.44 1 1 1 .55 0 1-.45 1-1 0-1.22-.57-2.27-1.55-2.87-1.1-.7-2.56-.7-3.9-.02-1.4.7-2.08 2.73-1.6 4.72.6 2.62 2.87 4.18 6.05 4.18 2.9 0 5.18-1.7 5.94-4.45.9-3.2-.52-6.66-3.43-8.4-4-2.4-3.52-5.97-3.52-6 .08-.55-.3-1.06-.84-1.14-.05 0-.1 0-.15 0"/></g></g></g></g></svg>