<svg xmlns="http://www.w3.org/2000/svg" viewBox="0 0 47.5 47.5" enable-background="new 0 0 47.5 47.5"><defs><clipPath id="a"><path d="M0 38h38V0H0v38z"/></clipPath></defs><g><g><g clip-path="url(#a)" transform="matrix(1.25 0 0 -1.25 0 47.5)"><g><path d="M16.36 21.13l3.08-1.16-1.16-3.1S13.73 17.9 13.02 19c-.7 1.1.6 2.73.6 2.73l2.74-.6z"/></g><g><path fill="#d99e82" d="M20.97 29.88c.9-.2 0-1.62.27-2.53.2-.63-1.1-.7-1.1-.7s-.92.2-.76-1.27c.15-1.47-1.87-1.98-2.02-.5-.16 1.45 1.04 2.24.38 3.38-1.58 2.73 3.23 1.62 3.23 1.62"/></g><g><path fill="#77b255" d="M21.63 24.18c0 .2-.54.43-.7.7-.7 1.1-1.03 1.66-1.94 1.86-1.3.28-2.92-.3-4.23-1.93-.83-1-.95-2.16-2.26-3.78 0 0 4.2-.45 4.76-.1.56.36.76 1.27.96 2.18.2.9.7 1.26 1.04.7.34-.53 2.37-1.2 3.45-1.42l-1.07 1.8z"/></g><g><path fill="#d99e82" d="M20 23.18l1.23 1.4c.95-.9 2.46-1.48 2.96-1.15.55.35 1.9-.9.8-1.62-1.1-.7-2.23.3-3.14.5-.6.13-1.33.5-1.87.88"/></g><g><path fill="#b39155" d="M20.97 29.45c.8-.67.57.86 0 1.34-.8.65-2.42.65-3.23 0-.8-.68-.8-2.02 0-2.68.57-.48.8-1.34.8 0 0 1.33.82 0 .82.66 0 .67 1.6.67 1.6.67"/></g><g><path fill="#c1694f" d="M3 20h32s0-2-1-7c-.86-4.3-21-1-24.6 0-3.08.86-6.4 7-6.4 7"/></g><g><path fill="#f4900c" d="M36 19c0-.55-.45-1-1-1H3c-.55 0-1 .45-1 1s.45 1 1 1h32c.55 0 1-.45 1-1"/></g><path fill="#55acee" d="M37 13H1V1h36v12z"/><g><path fill="#ffac33" d="M13 10c-.26 0-.5.1-.7.3-.4.38-.4 1.02 0 1.4l11 11c.38.4 1.02.4 1.4 0 .4-.38.4-1.02 0-1.4l-11-11c-.2-.2-.44-.3-.7-.3"/></g><g><path fill="#ffcc4d" d="M12 8c-.5 0-1.02.2-1.4.6-.8.77-.8 2.03 0 2.8l3 3c.77.8 2.03.8 2.8 0 .8-.77.8-2.03 0-2.8l-3-3c-.38-.4-.9-.6-1.4-.6"/></g></g></g></g></svg>