<?xml version="1.0" encoding="UTF-8" standalone="no"?><svg xmlns:svg="http://www.w3.org/2000/svg" xmlns="http://www.w3.org/2000/svg" version="1.1" viewBox="0 0 47.5 47.5" style="enable-background:new 0 0 47.5 47.5;" id="svg2" xml:space="preserve"><defs id="defs6"><clipPath id="clipPath18"><path d="M 0,38 38,38 38,0 0,0 0,38 z" id="path20"/></clipPath></defs><g transform="matrix(1.25,0,0,-1.25,0,47.5)" id="g12"><g id="g14"><g clip-path="url(#clipPath18)" id="g16"><g transform="translate(36,19)" id="g22"><path d="m 0,0 c 0,9.389 -7.611,17 -17,17 -9.389,0 -17,-7.611 -17,-17 0,-9.389 7.611,-17 17,-17 9.389,0 17,7.611 17,17" id="path24" style="fill:#000000;fill-opacity:1;fill-rule:nonzero;stroke:none"/></g><g transform="translate(24.7031,20)" id="g26"><path d="m 0,0 -0.017,0 c -0.407,0 -0.733,0.261 -0.733,0.668 0,0.219 0.082,2.149 2.929,4.047 1.474,0.984 1.784,2.61 1.447,3.721 -0.315,1.042 -1.164,1.63 -2.328,1.63 -1.771,0 -2.26,-0.957 -2.394,-1.524 -0.169,-0.714 0.088,-1.28 0.268,-1.369 0.399,-0.199 0.8,-0.218 1.075,-0.049 0.196,0.122 0.301,0.331 0.301,0.606 0,0.415 0.336,0.75 0.75,0.75 0.414,0 0.75,-0.336 0.75,-0.75 C 2.048,6.931 1.679,6.245 1.035,5.847 0.314,5.401 -0.633,5.396 -1.499,5.829 c -0.907,0.453 -1.36,1.766 -1.057,3.053 0.396,1.675 1.836,2.675 3.854,2.675 1.844,0 3.251,-1.011 3.764,-2.704 C 5.663,6.867 4.819,4.637 3.011,3.431 0.838,1.982 0.752,0.708 0.75,0.652 0.731,0.25 0.4,0 0,0" id="path28" style="fill:#ffffff;fill-opacity:1;fill-rule:nonzero;stroke:none"/></g><g transform="translate(23,18)" id="g30"><path d="m 0,0 -16,0 c 0,0 -2,0 -2,-2 l 0,-1 c 0,-2 2,-2 2,-2 l 16,0 0,5 z" id="path32" style="fill:#ffffff;fill-opacity:1;fill-rule:nonzero;stroke:none"/></g><g transform="translate(28,18)" id="g34"><path d="m 0,0 -3,0 0,-5 3,0 c 0,0 2,0 2,2 l 0,1 C 2,0 0,0 0,0" id="path36" style="fill:#ffffff;fill-opacity:1;fill-rule:nonzero;stroke:none"/></g><g transform="translate(30.6797,8.0879)" id="g38"><path d="m 0,0 -22.591,22.591 c 2.86,2.673 6.689,4.321 10.911,4.321 8.837,0 16,-7.163 16,-16 C 4.32,6.689 2.672,2.859 0,0 m -27.679,10.912 c 0,3.713 1.276,7.121 3.397,9.835 L -1.845,-1.69 c -2.715,-2.123 -6.122,-3.398 -9.835,-3.398 -8.836,0 -15.999,7.163 -15.999,16 m 15.999,18 c -9.94,0 -17.999,-8.059 -17.999,-18 0,-9.941 8.059,-18 17.999,-18 9.942,0 18,8.059 18,18 0,9.941 -8.058,18 -18,18" id="path40" style="fill:#dd2e44;fill-opacity:1;fill-rule:nonzero;stroke:none"/></g></g></g></g></svg>
