<?xml version="1.0" encoding="UTF-8" standalone="no"?><svg xmlns:dc="http://purl.org/dc/elements/1.1/" xmlns:cc="http://creativecommons.org/ns#" xmlns:rdf="http://www.w3.org/1999/02/22-rdf-syntax-ns#" xmlns:svg="http://www.w3.org/2000/svg" xmlns="http://www.w3.org/2000/svg" viewBox="0 0 47.5 47.5" style="enable-background:new 0 0 47.5 47.5;" xml:space="preserve" version="1.1" id="svg2"><metadata id="metadata8"><rdf:RDF><cc:Work rdf:about=""><dc:format>image/svg+xml</dc:format><dc:type rdf:resource="http://purl.org/dc/dcmitype/StillImage"/></cc:Work></rdf:RDF></metadata><defs id="defs6"><clipPath id="clipPath20" clipPathUnits="userSpaceOnUse"><path id="path22" d="M 0,38 38,38 38,0 0,0 0,38 Z"/></clipPath></defs><g transform="matrix(1.25,0,0,-1.25,0,47.5)" id="g10"><g transform="translate(20,25)" id="g12"><path id="path14" style="fill:#58595b;fill-opacity:1;fill-rule:nonzero;stroke:none" d="m 0,0 0,7 -2,0 0,-7 -3,0 0,-5 8,0 0,5 -3,0 z"/></g><g id="g16"><g clip-path="url(#clipPath20)" id="g18"><g transform="translate(27,23)" id="g24"><path id="path26" style="fill:#dd2e44;fill-opacity:1;fill-rule:nonzero;stroke:none" d="m 0,0 -16,0 c -2.209,0 -4,-1.791 -4,-4 l 0,-14 c 0,-2.209 1.791,-4 4,-4 l 16,0 c 2.209,0 4,1.791 4,4 L 4,-4 C 4,-1.791 2.209,0 0,0"/></g><path id="path28" style="fill:#88c9f9;fill-opacity:1;fill-rule:nonzero;stroke:none" d="m 31,10 -24,0 0,9 24,0 0,-9 z"/><g transform="translate(34.2129,26.0225)" id="g30"><path id="path32" style="fill:#6d6e71;fill-opacity:1;fill-rule:nonzero;stroke:none" d="m 0,0 -29.943,8.023 c -0.534,0.144 -0.85,0.692 -0.707,1.226 0.142,0.533 0.691,0.85 1.224,0.707 L 0.518,1.933 C 1.052,1.789 1.368,1.241 1.225,0.708 1.082,0.174 0.534,-0.144 0,0"/></g><g transform="translate(24.3477,32.6387)" id="g34"><path id="path36" style="fill:#a7a9ac;fill-opacity:1;fill-rule:nonzero;stroke:none" d="M 0,0 -1.933,0.518 -1.674,1.482 -7.469,3.035 -7.728,2.07 -9.66,2.588 c -1.067,0.285 -2.163,-0.348 -2.449,-1.415 -0.287,-1.067 0.347,-2.163 1.414,-2.449 l 9.66,-2.588 C 0.031,-4.15 1.128,-3.517 1.414,-2.45 1.699,-1.384 1.066,-0.286 0,0"/></g><g transform="translate(14.8774,32.0693)" id="g38"><path id="path40" style="fill:#808285;fill-opacity:1;fill-rule:nonzero;stroke:none" d="m 0,0 c -0.286,-1.066 -1.383,-1.7 -2.45,-1.414 -1.066,0.286 -1.7,1.383 -1.414,2.449 0.286,1.068 1.383,1.7 2.449,1.415 C -0.348,2.164 0.286,1.067 0,0"/></g><g transform="translate(26.4688,28.9639)" id="g42"><path id="path44" style="fill:#808285;fill-opacity:1;fill-rule:nonzero;stroke:none" d="m 0,0 c -0.286,-1.067 -1.383,-1.7 -2.449,-1.414 -1.068,0.286 -1.7,1.382 -1.414,2.449 0.285,1.068 1.382,1.7 2.449,1.414 C -0.348,2.163 0.286,1.066 0,0"/></g><g transform="translate(7.5547,21)" id="g46"><path id="path48" style="fill:#55acee;fill-opacity:1;fill-rule:nonzero;stroke:none" d="m 0,0 c -0.343,-0.59 -0.555,-1.268 -0.555,-2 l 24,0 c 0,0.732 -0.211,1.41 -0.554,2 L 0,0 Z"/></g><path id="path50" style="fill:#231f20;fill-opacity:1;fill-rule:nonzero;stroke:none" d="m 15,10 -2,0 0,11 2,0 0,-11 z"/><path id="path52" style="fill:#231f20;fill-opacity:1;fill-rule:nonzero;stroke:none" d="m 24,10 -2,0 0,11 2,0 0,-11 z"/></g></g></g></svg>
