<svg xmlns="http://www.w3.org/2000/svg" viewBox="0 0 47.5 47.5" enable-background="new 0 0 47.5 47.5"><defs><clipPath id="a"><path d="M0 38h38V0H0v38z"/></clipPath></defs><g><g><path fill="#58595b" d="M25 16.25V7.5h-2.5v8.75h-3.75v6.25h10v-6.25H25z"/></g><g><g clip-path="url(#a)" transform="matrix(1.25 0 0 -1.25 0 47.5)"><g><path fill="#dd2e44" d="M27 23H11c-2.2 0-4-1.8-4-4V5c0-2.2 1.8-4 4-4h16c2.2 0 4 1.8 4 4v14c0 2.2-1.8 4-4 4"/></g><path fill="#88c9f9" d="M31 10H7v9h24v-9z"/><g><path fill="#6d6e71" d="M34.2 26.02L4.28 34.05c-.53.14-.85.7-.7 1.22.13.53.68.85 1.22.7l29.93-8c.53-.16.85-.7.7-1.24-.14-.53-.68-.85-1.22-.7"/></g><g><path fill="#a7a9ac" d="M24.35 32.64l-1.94.52.27.96-5.8 1.55-.25-.96-1.93.53c-1.08.28-2.18-.35-2.46-1.42-.3-1.06.35-2.15 1.4-2.44l9.67-2.6c1.08-.27 2.18.36 2.46 1.43.3 1.05-.35 2.15-1.4 2.44"/></g><g><path fill="#808285" d="M14.88 32.07c-.3-1.07-1.4-1.7-2.45-1.4-1.07.27-1.7 1.37-1.42 2.43.3 1.07 1.4 1.7 2.46 1.42 1.07-.3 1.7-1.38 1.42-2.45"/></g><g><path fill="#808285" d="M26.47 28.96c-.3-1.06-1.38-1.7-2.45-1.4-1.07.28-1.7 1.37-1.4 2.44.27 1.07 1.37 1.7 2.43 1.4 1.07-.27 1.7-1.37 1.42-2.44"/></g><g><path fill="#55acee" d="M7.55 21C7.2 20.4 7 19.73 7 19h24c0 .73-.2 1.4-.55 2H7.55z"/></g><path fill="#231f20" d="M15 10h-2v11h2V10z"/><path fill="#231f20" d="M24 10h-2v11h2V10z"/></g></g></g></svg>