<?xml version="1.0" encoding="UTF-8" standalone="no"?><svg xmlns:dc="http://purl.org/dc/elements/1.1/" xmlns:cc="http://creativecommons.org/ns#" xmlns:rdf="http://www.w3.org/1999/02/22-rdf-syntax-ns#" xmlns:svg="http://www.w3.org/2000/svg" xmlns="http://www.w3.org/2000/svg" viewBox="0 0 47.5 47.5" style="enable-background:new 0 0 47.5 47.5;" xml:space="preserve" version="1.1" id="svg2"><metadata id="metadata8"><rdf:RDF><cc:Work rdf:about=""><dc:format>image/svg+xml</dc:format><dc:type rdf:resource="http://purl.org/dc/dcmitype/StillImage"/></cc:Work></rdf:RDF></metadata><defs id="defs6"><clipPath id="clipPath16" clipPathUnits="userSpaceOnUse"><path id="path18" d="M 0,38 38,38 38,0 0,0 0,38 Z"/></clipPath><clipPath id="clipPath28" clipPathUnits="userSpaceOnUse"><path id="path30" d="M 3,16 C 3,16 1,16 1,14 L 1,14 1,9 C 1,7 3,7 3,7 l 0,0 29,0 c 0,0 2,0 2,2 l 0,0 0,5 c 0,2 -2,2 -2,2 l 0,0 -29,0 z"/></clipPath><clipPath id="clipPath40" clipPathUnits="userSpaceOnUse"><path id="path42" d="M 0,38 38,38 38,0 0,0 0,38 Z"/></clipPath></defs><g transform="matrix(1.25,0,0,-1.25,0,47.5)" id="g10"><g id="g12"><g clip-path="url(#clipPath16)" id="g14"><g transform="translate(34,9)" id="g20"><path id="path22" style="fill:#d99e82;fill-opacity:1;fill-rule:nonzero;stroke:none" d="m 0,0 c 0,-2 -2,-2 -2,-2 l -29,0 c 0,0 -2,0 -2,2 l 0,5 c 0,2 2,2 2,2 L -2,7 C -2,7 0,7 0,5 L 0,0 Z"/></g></g></g><g id="g24"><g clip-path="url(#clipPath28)" id="g26"><path id="path32" style="fill:#e1e8ed;fill-opacity:1;fill-rule:nonzero;stroke:none" d="M 26,1 13,1 13,21 26,21 26,1 Z"/><path id="path34" style="fill:#66757f;fill-opacity:1;fill-rule:nonzero;stroke:none" d="M 36,3 26,3 26,19 36,19 36,3 Z"/></g></g><g id="g36"><g clip-path="url(#clipPath40)" id="g38"><g transform="translate(28.9941,17)" id="g44"><path id="path46" style="fill:#ccd6dd;fill-opacity:1;fill-rule:nonzero;stroke:none" d="m 0,0 c -0.488,0 -0.916,0.358 -0.988,0.855 -0.03,0.2 -0.655,4.925 4.474,8.002 2.498,1.499 3.064,4.246 2.533,6.164 C 5.771,15.917 4.883,18 2.001,18 c -3.142,0 -3.916,-1.845 -4.104,-2.638 -0.282,-1.197 0.138,-2.261 0.551,-2.467 0.717,-0.359 1.45,-0.383 1.959,-0.068 0.389,0.24 0.594,0.646 0.594,1.173 0,0.552 0.447,1 1,1 0.553,0 1,-0.448 1,-1 0,-1.221 -0.563,-2.269 -1.542,-2.874 -1.106,-0.683 -2.566,-0.689 -3.905,-0.021 -1.385,0.693 -2.075,2.721 -1.603,4.717 C -3.432,18.438 -1.17,20 2.001,20 4.909,20 7.187,18.297 7.946,15.555 8.835,12.347 7.424,8.888 4.516,7.143 0.516,4.743 0.985,1.18 0.99,1.145 1.07,0.598 0.691,0.09 0.146,0.011 0.097,0.003 0.048,0 0,0"/></g></g></g></g></svg>
