<?xml version="1.0" encoding="UTF-8" standalone="no"?><svg xmlns:svg="http://www.w3.org/2000/svg" xmlns="http://www.w3.org/2000/svg" version="1.1" viewBox="0 0 47.5 47.5" style="enable-background:new 0 0 47.5 47.5;" id="svg2" xml:space="preserve"><defs id="defs6"><clipPath id="clipPath18"><path d="M 0,38 38,38 38,0 0,0 0,38 z" id="path20"/></clipPath></defs><g transform="matrix(1.25,0,0,-1.25,0,47.5)" id="g12"><g id="g14"><g clip-path="url(#clipPath18)" id="g16"><g transform="translate(35.999,19.001)" id="g22"><path d="m 0,0 c 0,-9.389 -7.611,-17 -17,-17 -9.389,0 -17,7.611 -17,17 0,9.389 7.611,17 17,17 C -7.611,17 0,9.389 0,0" id="path24" style="fill:#000000;fill-opacity:1;fill-rule:nonzero;stroke:none"/></g><g transform="translate(24,29.5)" id="g26"><path d="m 0,0 c 0,-1.933 -1.344,-3.5 -3,-3.5 -1.656,0 -3,1.567 -3,3.5 0,1.933 1.344,3.5 3,3.5 1.656,0 3,-1.567 3,-3.5" id="path28" style="fill:#ffffff;fill-opacity:1;fill-rule:nonzero;stroke:none"/></g><g transform="translate(27,24)" id="g30"><path d="m 0,0 c 0,0 0,2 -2,2 l -7,0 c -1,0 -2,-1 -2,-1 l -2,-2 -4,0 c 0,0 -1,0 -1,-1 0,-1 1,-1 1,-1 l 3,0 2,0 2,1.171 0,-16.171 c 0,0 0,-1 1,-1 l 1,0 c 0,0 1,0 1,1 l 0,8 c 0,0 0,1 1,1 1,0 1,-1 1,-1 l 0,-8 c 0,0 0,-1 1,-1 l 1,0 c 0,0 1,0 1,1 l 0,9 c 0,0 2,0 2,2 l 0,7 z" id="path32" style="fill:#ffffff;fill-opacity:1;fill-rule:nonzero;stroke:none"/></g><g transform="translate(10.2417,17.5332)" id="g34"><path d="m 0,0 c 0,-0.847 -0.726,-1.533 -1.621,-1.533 -0.895,0 -1.621,0.686 -1.621,1.533 0,0.847 0.726,1.533 1.621,1.533 C -0.726,1.533 0,0.847 0,0" id="path36" style="fill:#ffffff;fill-opacity:1;fill-rule:nonzero;stroke:none"/></g><g transform="translate(14.2417,14.5332)" id="g38"><path d="m 0,0 c 0,-0.847 -0.726,-1.533 -1.621,-1.533 -0.895,0 -1.621,0.686 -1.621,1.533 0,0.847 0.726,1.533 1.621,1.533 C -0.726,1.533 0,0.847 0,0" id="path40" style="fill:#ffffff;fill-opacity:1;fill-rule:nonzero;stroke:none"/></g><g transform="translate(12.2417,10.5332)" id="g42"><path d="m 0,0 c 0,-0.847 -0.726,-1.533 -1.621,-1.533 -0.895,0 -1.621,0.686 -1.621,1.533 0,0.847 0.726,1.533 1.621,1.533 C -0.726,1.533 0,0.847 0,0" id="path44" style="fill:#ffffff;fill-opacity:1;fill-rule:nonzero;stroke:none"/></g><g transform="translate(3,18.9995)" id="g46"><path d="M 0,0 C 0,3.968 1.453,7.592 3.845,10.388 L 26.388,-12.156 C 23.592,-14.547 19.968,-16 16,-16 7.164,-16 0,-8.836 0,0 m 32,0 c 0,-3.968 -1.453,-7.591 -3.845,-10.388 L 5.612,12.155 C 8.409,14.547 12.032,16 16,16 24.837,16 32,8.836 32,0 M 16,18 C 6.059,18 -2,9.941 -2,0 c 0,-9.941 8.059,-18 18,-18 9.941,0 18,8.059 18,18 0,9.941 -8.059,18 -18,18" id="path48" style="fill:#dd2e44;fill-opacity:1;fill-rule:nonzero;stroke:none"/></g></g></g></g></svg>
