<svg xmlns="http://www.w3.org/2000/svg" viewBox="0 0 47.5 47.5" enable-background="new 0 0 47.5 47.5"><defs><clipPath id="a"><path d="M0 38h38V0H0v38z"/></clipPath></defs><g><g><g clip-path="url(#a)" transform="matrix(1.25 0 0 -1.25 0 47.5)"><g><path fill="#dd2e44" d="M6 19c0 2.56.75 4.95 2.04 6.96L25.96 8.03C23.96 6.75 21.56 6 19 6 11.82 6 6 11.82 6 19m26 0c0-2.56-.75-4.95-2.04-6.96L12.04 29.96c2 1.3 4.4 2.04 6.96 2.04 7.18 0 13-5.82 13-13M19 37C9.06 37 1 28.94 1 19S9.06 1 19 1s18 8.06 18 18-8.06 18-18 18"/></g></g></g></g></svg>