<svg xmlns="http://www.w3.org/2000/svg" viewBox="0 0 47.5 47.5" enable-background="new 0 0 47.5 47.5"><defs><clipPath id="a"><path d="M0 38h38V0H0v38z"/></clipPath><clipPath id="b"><path d="M9 34H5c-2.2 0-4-1.8-4-4v-8c0-2.2 1.8-4 4-4h28c2.2 0 4 1.8 4 4v8c0 2.2-1.8 4-4 4H9z"/></clipPath><clipPath id="c"><path d="M0 38h38V0H0v38z"/></clipPath></defs><g><g><g clip-path="url(#a)" transform="matrix(1.25 0 0 -1.25 0 47.5)"><g><path fill="#ffcc4d" d="M37 22c0-2.2-1.8-4-4-4H5c-2.2 0-4 1.8-4 4v8c0 2.2 1.8 4 4 4h28c2.2 0 4-1.8 4-4v-8z"/></g></g></g><g><g clip-path="url(#b)" transform="matrix(1.25 0 0 -1.25 0 47.5)"><g><path fill="#292f33" d="M3 35l-18-18h5L8 35H3z"/></g><g><path fill="#292f33" d="M14 35L-4 17h5l18 18h-5z"/></g><g><path fill="#292f33" d="M25 35L7 17h5l18 18h-5z"/></g><g><path fill="#292f33" d="M36 35L18 17h5l18 18h-5z"/></g><g><path fill="#292f33" d="M47 35L29 17h5l18 18h-5z"/></g></g></g><g><g fill="#99aab5" clip-path="url(#c)" transform="matrix(1.25 0 0 -1.25 0 47.5)"><path d="M10 4H5v14h5V4z"/><path d="M33 4h-5v14h5V4z"/></g></g></g></svg>