<?xml version="1.0" encoding="UTF-8" standalone="no"?>
<!-- Created with Inkscape (http://www.inkscape.org/) -->

<svg
   xmlns:svg="http://www.w3.org/2000/svg"
   xmlns="http://www.w3.org/2000/svg"
   version="1.1"
   width="47.5"
   height="47.5"
   id="svg2"
   xml:space="preserve"><defs
     id="defs6"><clipPath
       id="clipPath18"><path
         d="M 0,38 38,38 38,0 0,0 0,38 z"
         id="path20" /></clipPath></defs><g
     transform="matrix(1.25,0,0,-1.25,0,47.5)"
     id="g12"><g
       id="g14"><g
         clip-path="url(#clipPath18)"
         id="g16"><g
           transform="translate(14,3)"
           id="g22"><path
             d="m 0,0 c 0,0 0,-2 -2,-2 -2,0 -2,2 -2,2 l 0,32 c 0,0 0,2 2,2 2,0 2,-2 2,-2 L 0,0 z"
             id="path24"
             style="fill:#66757f;fill-opacity:1;fill-rule:nonzero;stroke:none" /></g><g
           transform="translate(12,33)"
           id="g26"><path
             d="m 0,0 c 0,2.2 1.636,3.25 3.636,2.333 l 16.727,-7.666 c 2,-0.917 2,-2.417 0,-3.334 L 3.636,-16.333 C 1.636,-17.25 0,-16.2 0,-14 L 0,0 z"
             id="path28"
             style="fill:#dd2e44;fill-opacity:1;fill-rule:nonzero;stroke:none" /></g></g></g></g></svg>