<?xml version="1.0" encoding="UTF-8" standalone="no"?>
<!-- Created with Inkscape (http://www.inkscape.org/) -->

<svg
   xmlns:svg="http://www.w3.org/2000/svg"
   xmlns="http://www.w3.org/2000/svg"
   version="1.1"
   width="47.5"
   height="47.5"
   id="svg2"
   xml:space="preserve"><defs
     id="defs6"><clipPath
       id="clipPath22"><path
         d="M 0,38 38,38 38,0 0,0 0,38 z"
         id="path24" /></clipPath></defs><g
     transform="matrix(1.25,0,0,-1.25,0,47.5)"
     id="g12"><g
       transform="translate(20,25)"
       id="g14"><path
         d="m 0,0 0,7 -2,0 0,-7 -3,0 0,-5 8,0 0,5 -3,0 z"
         id="path16"
         style="fill:#58595b;fill-opacity:1;fill-rule:nonzero;stroke:none" /></g><g
       id="g18"><g
         clip-path="url(#clipPath22)"
         id="g20"><g
           transform="translate(27,23)"
           id="g26"><path
             d="m 0,0 -16,0 c -2.209,0 -4,-1.791 -4,-4 l 0,-14 c 0,-2.209 1.791,-4 4,-4 l 16,0 c 2.209,0 4,1.791 4,4 L 4,-4 C 4,-1.791 2.209,0 0,0"
             id="path28"
             style="fill:#dd2e44;fill-opacity:1;fill-rule:nonzero;stroke:none" /></g><path
           d="m 31,10 -24,0 0,9 24,0 0,-9 z"
           id="path30"
           style="fill:#88c9f9;fill-opacity:1;fill-rule:nonzero;stroke:none" /><g
           transform="translate(34.2129,26.0225)"
           id="g32"><path
             d="m 0,0 -29.943,8.023 c -0.534,0.144 -0.85,0.692 -0.707,1.226 0.142,0.533 0.691,0.85 1.224,0.707 L 0.518,1.933 C 1.052,1.789 1.368,1.241 1.225,0.708 1.082,0.174 0.534,-0.144 0,0"
             id="path34"
             style="fill:#6d6e71;fill-opacity:1;fill-rule:nonzero;stroke:none" /></g><g
           transform="translate(24.3477,32.6387)"
           id="g36"><path
             d="M 0,0 -1.933,0.518 -1.674,1.482 -7.469,3.035 -7.728,2.07 -9.66,2.588 c -1.067,0.285 -2.163,-0.348 -2.449,-1.415 -0.287,-1.067 0.347,-2.163 1.414,-2.449 l 9.66,-2.588 C 0.031,-4.15 1.128,-3.517 1.414,-2.45 1.699,-1.384 1.066,-0.286 0,0"
             id="path38"
             style="fill:#a7a9ac;fill-opacity:1;fill-rule:nonzero;stroke:none" /></g><g
           transform="translate(14.8774,32.0693)"
           id="g40"><path
             d="m 0,0 c -0.286,-1.066 -1.383,-1.7 -2.45,-1.414 -1.066,0.286 -1.7,1.383 -1.414,2.449 0.286,1.068 1.383,1.7 2.449,1.415 C -0.348,2.164 0.286,1.067 0,0"
             id="path42"
             style="fill:#808285;fill-opacity:1;fill-rule:nonzero;stroke:none" /></g><g
           transform="translate(26.4688,28.9639)"
           id="g44"><path
             d="m 0,0 c -0.286,-1.067 -1.383,-1.7 -2.449,-1.414 -1.068,0.286 -1.7,1.382 -1.414,2.449 0.285,1.068 1.382,1.7 2.449,1.414 C -0.348,2.163 0.286,1.066 0,0"
             id="path46"
             style="fill:#808285;fill-opacity:1;fill-rule:nonzero;stroke:none" /></g><g
           transform="translate(7.5547,21)"
           id="g48"><path
             d="m 0,0 c -0.343,-0.59 -0.555,-1.268 -0.555,-2 l 24,0 c 0,0.732 -0.211,1.41 -0.554,2 L 0,0 z"
             id="path50"
             style="fill:#55acee;fill-opacity:1;fill-rule:nonzero;stroke:none" /></g><path
           d="m 15,10 -2,0 0,11 2,0 0,-11 z"
           id="path52"
           style="fill:#231f20;fill-opacity:1;fill-rule:nonzero;stroke:none" /><path
           d="m 24,10 -2,0 0,11 2,0 0,-11 z"
           id="path54"
           style="fill:#231f20;fill-opacity:1;fill-rule:nonzero;stroke:none" /></g></g></g></svg>