<svg xmlns="http://www.w3.org/2000/svg" viewBox="0 0 47.5 47.5" enable-background="new 0 0 47.5 47.5"><defs><clipPath id="a"><path d="M0 38h38V0H0v38z"/></clipPath></defs><g><g><g clip-path="url(#a)" transform="matrix(1.25 0 0 -1.25 0 47.5)"><g><path fill="#bcbec0" d="M35 5h-3v28c0 2.2-1.8 4-4 4H10c-2.2 0-4-1.8-4-4V5H3c-1.1 0-2-.9-2-2s.9-2 2-2h32c1.1 0 2 .9 2 2s-.9 2-2 2"/></g><g><path fill="#be1931" d="M30 4c0-1.66-1.34-3-3-3H11C9.34 1 8 2.34 8 4v28c0 1.66 1.34 3 3 3h16c1.66 0 3-1.34 3-3V4z"/></g><g><path fill="#f4900c" d="M15 17.5c0-1.38-1.12-2.5-2.5-2.5S10 16.12 10 17.5s1.12 2.5 2.5 2.5 2.5-1.12 2.5-2.5"/></g><g><path fill="#ffd983" d="M14 17.5c0-.83-.67-1.5-1.5-1.5s-1.5.67-1.5 1.5.67 1.5 1.5 1.5 1.5-.67 1.5-1.5"/></g><g><path fill="#ea596e" d="M27 21h-4c-.55 0-1 .45-1 1s.45 1 1 1h3v7c0 .55.45 1 1 1s1-.45 1-1v-8c0-.55-.45-1-1-1"/></g><g><path fill="#a0041e" d="M21 23c-.55 0-1 .45-1 1v8c0 .55.45 1 1 1h4c.55 0 1-.45 1-1s-.45-1-1-1h-3v-7c0-.55-.45-1-1-1"/></g><g><path fill="#ea596e" d="M17 21h-4c-.55 0-1 .45-1 1s.45 1 1 1h3v7c0 .55.45 1 1 1s1-.45 1-1v-8c0-.55-.45-1-1-1"/></g><g><path fill="#a0041e" d="M11 23c-.55 0-1 .45-1 1v8c0 .55.45 1 1 1h4c.55 0 1-.45 1-1s-.45-1-1-1h-3v-7c0-.55-.45-1-1-1"/></g><g><path fill="#ea596e" d="M27 3h-4c-.55 0-1 .45-1 1s.45 1 1 1h3v6c0 .55.45 1 1 1s1-.45 1-1V4c0-.55-.45-1-1-1"/></g><g><path fill="#a0041e" d="M21 5c-.55 0-1 .45-1 1v7c0 .55.45 1 1 1h4c.55 0 1-.45 1-1s-.45-1-1-1h-3V6c0-.55-.45-1-1-1"/></g><g><path fill="#ea596e" d="M17 3h-4c-.55 0-1 .45-1 1s.45 1 1 1h3v6c0 .55.45 1 1 1s1-.45 1-1V4c0-.55-.45-1-1-1"/></g><g><path fill="#a0041e" d="M11 5c-.55 0-1 .45-1 1v7c0 .55.45 1 1 1h4c.55 0 1-.45 1-1s-.45-1-1-1h-3V6c0-.55-.45-1-1-1"/></g></g></g></g></svg>