<svg xmlns="http://www.w3.org/2000/svg" viewBox="0 0 47.5 47.5" enable-background="new 0 0 47.5 47.5"><defs><clipPath id="a"><path d="M0 38h38V0H0v38z"/></clipPath></defs><g><g><g clip-path="url(#a)" transform="matrix(1.25 0 0 -1.25 0 47.5)"><g><path fill="#292f33" d="M28 5c0-2.2-1.8-4-4-4H14c-2.2 0-4 1.8-4 4v28c0 2.2 1.8 4 4 4h10c2.2 0 4-1.8 4-4V5z"/></g><g><path fill="#77b255" d="M19 12c2.2 0 4-1.8 4-4s-1.8-4-4-4-4 1.8-4 4 1.8 4 4 4"/></g><g><path fill="#ffcc4d" d="M19 23c2.2 0 4-1.8 4-4s-1.8-4-4-4-4 1.8-4 4 1.8 4 4 4"/></g><g><path fill="#dd2e44" d="M19 34c2.2 0 4-1.8 4-4s-1.8-4-4-4-4 1.8-4 4 1.8 4 4 4"/></g></g></g></g></svg>