<svg xmlns="http://www.w3.org/2000/svg" viewBox="0 0 47.5 47.5" enable-background="new 0 0 47.5 47.5"><defs><clipPath id="a"><path d="M0 38h38V0H0v38z"/></clipPath></defs><g><g><g clip-path="url(#a)" transform="matrix(1.25 0 0 -1.25 0 47.5)"><g><path d="M36 19c0-9.4-7.6-17-17-17S2 9.6 2 19s7.6 17 17 17 17-7.6 17-17"/></g><g><path fill="#fff" d="M24 29.5c0-1.93-1.34-3.5-3-3.5s-3 1.57-3 3.5 1.34 3.5 3 3.5 3-1.57 3-3.5"/></g><g><path fill="#fff" d="M27 24s0 2-2 2h-7c-1 0-2-1-2-1l-2-2h-4s-1 0-1-1 1-1 1-1h5l2 1.17V6s0-1 1-1h1s1 0 1 1v8s0 1 1 1 1-1 1-1V6s0-1 1-1h1s1 0 1 1v9s2 0 2 2v7z"/></g><g><path fill="#fff" d="M10.24 17.53c0-.84-.72-1.53-1.62-1.53-.9 0-1.62.7-1.62 1.53 0 .85.73 1.54 1.62 1.54.9 0 1.62-.7 1.62-1.54"/></g><g><path fill="#fff" d="M14.24 14.53c0-.84-.72-1.53-1.62-1.53-.9 0-1.62.7-1.62 1.53 0 .85.73 1.54 1.62 1.54.9 0 1.62-.7 1.62-1.54"/></g><g><path fill="#fff" d="M12.24 10.53c0-.84-.72-1.53-1.62-1.53C9.72 9 9 9.7 9 10.53c0 .85.73 1.54 1.62 1.54.9 0 1.62-.7 1.62-1.54"/></g><g><path fill="#dd2e44" d="M3 19c0 3.97 1.45 7.6 3.85 10.4L29.38 6.83C26.6 4.44 22.96 3 19 3 10.16 3 3 10.16 3 19m32 0c0-3.97-1.45-7.6-3.85-10.4L8.62 31.16C11.4 33.55 15.04 35 19 35c8.84 0 16-7.16 16-16M19 37C9.06 37 1 28.94 1 19S9.06 1 19 1s18 8.06 18 18-8.06 18-18 18"/></g></g></g></g></svg>