<svg xmlns="http://www.w3.org/2000/svg" viewBox="0 0 47.5 47.5" enable-background="new 0 0 47.5 47.5"><defs><clipPath id="a"><path d="M0 38h38V0H0v38z"/></clipPath></defs><g><path fill="#292f33" d="M26.25 7.5h-5V1.25h5V7.5z"/><path fill="#d1d3d4" d="M26.25 8.75h-5v-5h5v5z"/><path fill="#a7a9ac" d="M26.25 8.75h-2.5v-5h2.5v5z"/><g><g clip-path="url(#a)" transform="matrix(1.25 0 0 -1.25 0 47.5)"><g><path fill="#66757f" d="M19 18H6s1.35-8 4.88-14C14.38-2 19 4 19 4s4.6-6 8.13 0C30.64 10 32 18 32 18H19z"/></g><g><path fill="#99aab5" d="M19 18H6s1.35-8 4.88-14C14.38-2 19 4 19 4v14z"/></g><path fill="#55acee" d="M37 7H1V1h36v6z"/><g><path fill="#e6e7e8" d="M31 28h-2.45l-.24 4H9.7l-.25-4H7v-6h2.1l-.25-4h20.3l-.24 4H31v6z"/></g><path fill="#d1d3d4" d="M11 22h16v-4H11v4z"/><path fill="#6d6e71" d="M9 26h20v-2H9v2z"/><path fill="#bcbec0" d="M11 30h16v-2H11v2z"/><g><path fill="#be1931" d="M6.9 14h24.2c.2.75.35 1.43.5 2H6.4c.14-.57.3-1.25.5-2"/></g><g><path fill="#a0041e" d="M19 14h12.1c.2.75.35 1.43.5 2H19v-2z"/></g><path fill="#bcbec0" d="M25 18H13v2h12v-2z"/><path fill="#58595b" d="M19 35h-2v2h2v-2z"/></g></g></g></svg>