<?xml version="1.0" encoding="UTF-8" standalone="no"?>
<!-- Created with Inkscape (http://www.inkscape.org/) -->

<svg
   xmlns:svg="http://www.w3.org/2000/svg"
   xmlns="http://www.w3.org/2000/svg"
   version="1.1"
   width="47.5"
   height="47.5"
   id="svg2"
   xml:space="preserve"><defs
     id="defs6"><clipPath
       id="clipPath18"><path
         d="M 0,38 38,38 38,0 0,0 0,38 z"
         id="path20" /></clipPath></defs><g
     transform="matrix(1.25,0,0,-1.25,0,47.5)"
     id="g12"><g
       id="g14"><g
         clip-path="url(#clipPath18)"
         id="g16"><g
           transform="translate(16.3564,21.1255)"
           id="g22"><path
             d="M 0,0 3.083,-1.158 1.927,-4.242 c 0,0 -4.55,1.004 -5.259,2.114 -0.709,1.11 0.602,2.729 0.602,2.729 L 0,0 z"
             id="path24"
             style="fill:#000000;fill-opacity:1;fill-rule:nonzero;stroke:none" /></g><g
           transform="translate(20.9668,29.8755)"
           id="g26"><path
             d="m 0,0 c 0.91,-0.201 0,-1.613 0.278,-2.525 0.191,-0.632 -1.111,-0.71 -1.111,-0.71 0,0 -0.911,0.201 -0.756,-1.265 0.155,-1.463 -1.866,-1.973 -2.02,-0.507 -0.154,1.464 1.045,2.254 0.385,3.394 C -4.802,1.118 0,0 0,0"
             id="path28"
             style="fill:#d99e82;fill-opacity:1;fill-rule:nonzero;stroke:none" /></g><g
           transform="translate(21.6338,24.1836)"
           id="g30"><path
             d="m 0,0 c 0,0.199 -0.541,0.428 -0.707,0.687 -0.708,1.112 -1.03,1.667 -1.939,1.867 -1.287,0.283 -2.912,-0.308 -4.222,-1.928 -0.829,-1.023 -0.947,-2.174 -2.259,-3.793 0,0 4.199,-0.447 4.754,-0.093 0.556,0.354 0.758,1.265 0.959,2.175 0.2,0.91 0.686,1.264 1.04,0.709 C -2.03,-0.914 0,-1.575 1.075,-1.802 L 0,0 z"
             id="path32"
             style="fill:#77b255;fill-opacity:1;fill-rule:nonzero;stroke:none" /></g><g
           transform="translate(19.9883,23.1836)"
           id="g34"><path
             d="M 0,0 1.245,1.41 C 2.188,0.482 3.698,-0.082 4.204,0.244 4.76,0.597 6.12,-0.66 5.01,-1.37 3.899,-2.079 2.78,-1.088 1.872,-0.888 1.281,-0.757 0.542,-0.392 0,0"
             id="path36"
             style="fill:#d99e82;fill-opacity:1;fill-rule:nonzero;stroke:none" /></g><g
           transform="translate(20.9668,29.4502)"
           id="g38"><path
             d="m 0,0 c 0.808,-0.668 0.57,0.862 0,1.335 -0.806,0.667 -2.418,0.668 -3.224,0 -0.806,-0.667 -0.806,-2.003 0,-2.67 0.57,-0.472 0.806,-1.335 0.806,0 0,1.335 0.807,0 0.807,0.667 C -1.611,0 0,0 0,0"
             id="path40"
             style="fill:#b39155;fill-opacity:1;fill-rule:nonzero;stroke:none" /></g><g
           transform="translate(3,20)"
           id="g42"><path
             d="M 0,0 32,0 C 32,0 32,-2 31,-7 30.14,-11.302 10,-8 6.399,-7 3.316,-6.144 0,0 0,0"
             id="path44"
             style="fill:#c1694f;fill-opacity:1;fill-rule:nonzero;stroke:none" /></g><g
           transform="translate(36,19)"
           id="g46"><path
             d="m 0,0 c 0,-0.553 -0.447,-1 -1,-1 l -32,0 c -0.552,0 -1,0.447 -1,1 0,0.553 0.448,1 1,1 L -1,1 C -0.447,1 0,0.553 0,0"
             id="path48"
             style="fill:#f4900c;fill-opacity:1;fill-rule:nonzero;stroke:none" /></g><path
           d="M 37,13 1,13 1,1 37,1 37,13 z"
           id="path50"
           style="fill:#55acee;fill-opacity:1;fill-rule:nonzero;stroke:none" /><g
           transform="translate(12.9995,10)"
           id="g52"><path
             d="m 0,0 c -0.256,0 -0.512,0.098 -0.707,0.293 -0.391,0.391 -0.391,1.023 0,1.414 l 11,11 c 0.391,0.391 1.024,0.391 1.415,0 0.39,-0.391 0.39,-1.023 0,-1.414 L 0.707,0.293 C 0.512,0.098 0.256,0 0,0"
             id="path54"
             style="fill:#ffac33;fill-opacity:1;fill-rule:nonzero;stroke:none" /></g><g
           transform="translate(11.9995,8)"
           id="g56"><path
             d="m 0,0 c -0.512,0 -1.024,0.195 -1.414,0.586 -0.781,0.781 -0.781,2.047 0,2.828 l 3,3 c 0.78,0.781 2.048,0.781 2.828,0 0.781,-0.781 0.781,-2.047 0,-2.828 l -3,-3 C 1.024,0.195 0.512,0 0,0"
             id="path58"
             style="fill:#ffcc4d;fill-opacity:1;fill-rule:nonzero;stroke:none" /></g></g></g></g></svg>