<?xml version="1.0" encoding="UTF-8" standalone="no"?><svg xmlns:svg="http://www.w3.org/2000/svg" xmlns="http://www.w3.org/2000/svg" version="1.1" viewBox="0 0 47.5 47.5" style="enable-background:new 0 0 47.5 47.5;" id="svg2" xml:space="preserve"><defs id="defs6"><clipPath id="clipPath18"><path d="M 0,38 38,38 38,0 0,0 0,38 z" id="path20"/></clipPath></defs><g transform="matrix(1.25,0,0,-1.25,0,47.5)" id="g12"><g id="g14"><g clip-path="url(#clipPath18)" id="g16"><g transform="translate(6,19)" id="g22"><path d="M 0,0 C 0,2.565 0.753,4.95 2.036,6.964 L 19.965,-10.965 C 17.95,-12.247 15.565,-13 13,-13 5.821,-13 0,-7.18 0,0 m 26,0 c 0,-2.565 -0.753,-4.95 -2.035,-6.965 L 6.036,10.964 C 8.05,12.247 10.435,13 13,13 20.18,13 26,7.179 26,0 M 13,18 C 3.059,18 -5,9.941 -5,0 c 0,-9.941 8.059,-18 18,-18 9.941,0 18,8.059 18,18 0,9.941 -8.059,18 -18,18" id="path24" style="fill:#dd2e44;fill-opacity:1;fill-rule:nonzero;stroke:none"/></g></g></g></g></svg>
