<svg xmlns="http://www.w3.org/2000/svg" viewBox="0 0 47.5 47.5" enable-background="new 0 0 47.5 47.5"><defs><clipPath id="a"><path d="M0 38h38V0H0v38z"/></clipPath></defs><g><g><g clip-path="url(#a)" transform="matrix(1.25 0 0 -1.25 0 47.5)"><g><path fill="#dd2e44" d="M7 12c-2.2 0-4.36-2.17-4 0l2.34 16.05C5.7 30.23 7.8 32 10 32h18c2.2 0 4.3-1.77 4.66-3.95L35 12c.36-2.17-1.8 0-4 0H7z"/></g><g><path fill="#ea596e" d="M7.32 27.77C7.52 28.94 8.77 30 10 30h9V9H7c-.6 0-2.47-3.85-3-4l3.32 22.77z"/></g><g><path fill="#99aab5" d="M3 4S1 4 1 6c0 1 1 6 1 6h34s1-5 1-6c0-2-2-2-2-2"/></g></g></g></g></svg>