<?xml version="1.0" encoding="UTF-8" standalone="no"?>
<!-- Created with Inkscape (http://www.inkscape.org/) -->

<svg
   xmlns:svg="http://www.w3.org/2000/svg"
   xmlns="http://www.w3.org/2000/svg"
   version="1.1"
   width="47.5"
   height="47.5"
   id="svg2"
   xml:space="preserve"><defs
     id="defs6"><clipPath
       id="clipPath18"><path
         d="M 0,38 38,38 38,0 0,0 0,38 z"
         id="path20" /></clipPath></defs><g
     transform="matrix(1.25,0,0,-1.25,0,47.5)"
     id="g12"><g
       id="g14"><g
         clip-path="url(#clipPath18)"
         id="g16"><g
           transform="translate(1,1)"
           id="g22"><path
             d="m 0,0 36,0 0,25 C 36,25 29.999,35 26.999,35 23.999,35 17,26 15,24 13,22 10.5,23.5 9,25 7.5,26.5 6,28 5,28 4,28 0,21 0,21 L 0,0 z"
             id="path24"
             style="fill:#77b255;fill-opacity:1;fill-rule:nonzero;stroke:none" /></g><g
           transform="translate(19.9995,21.0005)"
           id="g26"><path
             d="M 0,0 C 0,0 -3,-2 -3,-3 -3,-4 1,-7 2,-8 3,-9 5,-9 4,-7 3,-5 0,0 0,0"
             id="path28"
             style="fill:#ad846f;fill-opacity:1;fill-rule:nonzero;stroke:none" /></g><g
           transform="translate(21.6338,13.9795)"
           id="g30"><path
             d="m 0,0 c 0,0 1.173,-0.789 1.962,0.385 0.789,1.174 1.365,-1.771 1.365,-1.771 0,0 -2.558,-2.539 -4.521,-2.924 -1.963,-0.384 -1.174,0.789 -0.385,1.962 C -0.789,-1.174 0,0 0,0"
             id="path32"
             style="fill:#226699;fill-opacity:1;fill-rule:nonzero;stroke:none" /></g><g
           transform="translate(8.0005,3)"
           id="g34"><path
             d="m 0,0 c -2.761,0 -5,2.238 -5,5 0,2.762 2.239,5 5,5 C 2.761,10 5,7.762 5,5 5,2.238 2.761,0 0,0 m 0,12 c -3.866,0 -7,-3.134 -7,-7 0,-3.866 3.134,-7 7,-7 3.866,0 7,3.134 7,7 0,3.866 -3.134,7 -7,7"
             id="path36"
             style="fill:#292f33;fill-opacity:1;fill-rule:nonzero;stroke:none" /></g><g
           transform="translate(30,3)"
           id="g38"><path
             d="m 0,0 c -2.761,0 -5,2.238 -5,5 0,2.762 2.239,5 5,5 C 2.762,10 5,7.762 5,5 5,2.238 2.762,0 0,0 m 0,12 c -3.865,0 -7,-3.134 -7,-7 0,-3.866 3.135,-7 7,-7 3.867,0 7,3.134 7,7 0,3.866 -3.133,7 -7,7"
             id="path40"
             style="fill:#292f33;fill-opacity:1;fill-rule:nonzero;stroke:none" /></g><g
           transform="translate(23,17)"
           id="g42"><path
             d="M 0,0 C 0,0.553 -0.484,1 -1.083,1 L -11.917,1 C -12.515,1 -13,0.553 -13,0 c 0,-0.553 0.485,-1 1.083,-1 l 10.834,0 C -0.484,-1 0,-0.553 0,0"
             id="path44"
             style="fill:#be1931;fill-opacity:1;fill-rule:nonzero;stroke:none" /></g><g
           transform="translate(31,8)"
           id="g46"><path
             d="m 0,0 c 0,0.553 -0.447,1 -1,1 l -11,0 c -0.552,0 -1,-0.447 -1,-1 0,-0.553 0.448,-1 1,-1 l 11,0 c 0.553,0 1,0.447 1,1"
             id="path48"
             style="fill:#be1931;fill-opacity:1;fill-rule:nonzero;stroke:none" /></g><g
           transform="translate(22.2236,20)"
           id="g50"><path
             d="m 0,0 -4.166,-11.664 c -0.185,-0.52 0.086,-1.092 0.606,-1.277 0.111,-0.04 0.225,-0.059 0.336,-0.059 0.411,0 0.796,0.255 0.942,0.664 L 2.124,0 0,0 z"
             id="path52"
             style="fill:#be1931;fill-opacity:1;fill-rule:nonzero;stroke:none" /></g><g
           transform="translate(30.001,7)"
           id="g54"><path
             d="m 0,0 c -0.33,0 -0.654,0.164 -0.845,0.463 l -7,10.999 c -0.297,0.467 -0.159,1.085 0.307,1.381 0.467,0.297 1.084,0.159 1.381,-0.306 l 7,-11 C 1.14,1.071 1.002,0.453 0.536,0.156 0.369,0.051 0.184,0 0,0"
             id="path56"
             style="fill:#be1931;fill-opacity:1;fill-rule:nonzero;stroke:none" /></g><g
           transform="translate(20,11.2656)"
           id="g58"><path
             d="M 0,0 -8.387,6.523 C -8.822,6.864 -9.45,6.785 -9.79,6.349 -10.129,5.912 -10.05,5.284 -9.614,4.945 l 9,-7 c 0.182,-0.142 0.398,-0.211 0.613,-0.211 L 0,-2.266 0,0 z"
             id="path60"
             style="fill:#be1931;fill-opacity:1;fill-rule:nonzero;stroke:none" /></g><g
           transform="translate(7.9995,7)"
           id="g62"><path
             d="M 0,0 C -0.104,0 -0.211,0.017 -0.316,0.052 -0.84,0.226 -1.124,0.792 -0.949,1.316 L 1.823,9.633 -1.6,12.201 c -0.442,0.331 -0.531,0.958 -0.2,1.4 0.331,0.44 0.957,0.531 1.4,0.199 L 4.177,10.367 0.949,0.684 C 0.809,0.265 0.419,0 0,0"
             id="path64"
             style="fill:#be1931;fill-opacity:1;fill-rule:nonzero;stroke:none" /></g><g
           transform="translate(27.3828,18)"
           id="g66"><path
             d="m 0,0 c -0.03,0 -0.059,0.002 -0.089,0.006 l -5.672,0.708 c -0.372,0.047 -0.643,0.374 -0.62,0.748 0.024,0.374 0.333,0.664 0.707,0.665 0.041,0 4.068,0.018 5.989,1.299 C 0.565,3.594 0.897,3.583 1.14,3.4 1.379,3.215 1.477,2.899 1.381,2.612 L 0.672,0.485 C 0.575,0.192 0.302,0 0,0"
             id="path68"
             style="fill:#292f33;fill-opacity:1;fill-rule:nonzero;stroke:none" /></g><g
           transform="translate(12,19)"
           id="g70"><path
             d="m 0,0 -5,0 c -0.552,0 -1,0.448 -1,1 0,0.552 0.448,1 1,1 L 0,2 C 0.552,2 1,1.552 1,1 1,0.448 0.552,0 0,0"
             id="path72"
             style="fill:#292f33;fill-opacity:1;fill-rule:nonzero;stroke:none" /></g><g
           transform="translate(22.999,24.0005)"
           id="g74"><path
             d="m 0,0 -3.999,-3 3,-3 L 0,0 z"
             id="path76"
             style="fill:#dd2e44;fill-opacity:1;fill-rule:nonzero;stroke:none" /></g><g
           transform="translate(20.999,20.0005)"
           id="g78"><path
             d="m 0,0 c 0,0 -2,-3 -2,-4 0,-1 1,-4 1,-7 0,-3 2,-3 2,-2 0,1 1.581,5.418 0,7 -1,1 2,4 2,4 L 0,0 z"
             id="path80"
             style="fill:#d99e82;fill-opacity:1;fill-rule:nonzero;stroke:none" /></g><g
           transform="translate(22.999,24.0005)"
           id="g82"><path
             d="M 0,0 -3,-4 1,-7 C 1,-7 6,-2 6,0 6,2 3,3 3,3 L 0,0 z"
             id="path84"
             style="fill:#ffac33;fill-opacity:1;fill-rule:nonzero;stroke:none" /></g><g
           transform="translate(11,32)"
           id="g86"><path
             d="m 0,0 c -1,-1 0,-2 0,-3 0,-1 2,0 2,0 0,0 1,1 2,-1 1,-2 4,-1 3,1 C 6,-1 3,-2 3,0 3,2 0,0 0,0"
             id="path88"
             style="fill:#d99e82;fill-opacity:1;fill-rule:nonzero;stroke:none" /></g><g
           transform="translate(15.9995,34.0005)"
           id="g90"><path
             d="m 0,0 c 0,-1 0,-4 -1,-4 -1,0 -1,1 -2,2 -1,1 3,2 3,2"
             id="path92"
             style="fill:#b39155;fill-opacity:1;fill-rule:nonzero;stroke:none" /></g><g
           transform="translate(13.9995,25.0005)"
           id="g94"><path
             d="m 0,0 c 0,-2 -3,-5 -4,-5 -1,0 -2,0 -2,-1 0,-1 0,-1 2,-1 2,0 4,2 5,3 1,1 2,3 2,4 0,1 1,1 2,0 1,-1 2,-2 3,-2 1,0 6,4 6,4 C 11,3 9.897,4.368 8,5 5,6 2.414,5.414 1,4 0,3 0,2 0,0"
             id="path96"
             style="fill:#744eaa;fill-opacity:1;fill-rule:nonzero;stroke:none" /></g><g
           transform="translate(16.6699,23.666)"
           id="g98"><path
             d="m 0,0 -2.744,0.784 c -0.446,-1.956 -3.014,-4.45 -3.926,-4.45 -1,0 -2,0 -2,-1 0,-1 0,-1 2,-1 2,0 4,2 5,3 0.649,0.65 1.295,1.72 1.67,2.666"
             id="path100"
             style="fill:#d99e82;fill-opacity:1;fill-rule:nonzero;stroke:none" /></g><g
           transform="translate(19.9995,8)"
           id="g102"><path
             d="m 0,0 c 0,0 1,-1 2,0 1,1 1,-2 1,-2 0,0 -3,-2 -5,-2 -2,0 -1,1 0,2 l 2,2 z"
             id="path104"
             style="fill:#3b88c3;fill-opacity:1;fill-rule:nonzero;stroke:none" /></g><g
           transform="translate(11.9995,35.0005)"
           id="g106"><path
             d="m 0,0 c 2,1 6,0 4,-2 -1,-1 -7,-2 -7,-2 0,1 1,3 3,4"
             id="path108"
             style="fill:#744eaa;fill-opacity:1;fill-rule:nonzero;stroke:none" /></g></g></g></g></svg>