<?xml version="1.0" encoding="UTF-8" standalone="no"?><svg xmlns:dc="http://purl.org/dc/elements/1.1/" xmlns:cc="http://creativecommons.org/ns#" xmlns:rdf="http://www.w3.org/1999/02/22-rdf-syntax-ns#" xmlns:svg="http://www.w3.org/2000/svg" xmlns="http://www.w3.org/2000/svg" viewBox="0 0 47.5 47.5" style="enable-background:new 0 0 47.5 47.5;" xml:space="preserve" version="1.1" id="svg2"><metadata id="metadata8"><rdf:RDF><cc:Work rdf:about=""><dc:format>image/svg+xml</dc:format><dc:type rdf:resource="http://purl.org/dc/dcmitype/StillImage"/></cc:Work></rdf:RDF></metadata><defs id="defs6"><clipPath id="clipPath16" clipPathUnits="userSpaceOnUse"><path id="path18" d="M 0,38 38,38 38,0 0,0 0,38 Z"/></clipPath></defs><g transform="matrix(1.25,0,0,-1.25,0,47.5)" id="g10"><g id="g12"><g clip-path="url(#clipPath16)" id="g14"><g transform="translate(37,19)" id="g20"><path id="path22" style="fill:#dd2e44;fill-opacity:1;fill-rule:nonzero;stroke:none" d="m 0,0 c 0,-9.941 -8.059,-18 -18,-18 -9.941,0 -18,8.059 -18,18 0,9.941 8.059,18 18,18 C -8.059,18 0,9.941 0,0"/></g><g transform="translate(35,19)" id="g24"><path id="path26" style="fill:#000000;fill-opacity:1;fill-rule:nonzero;stroke:none" d="m 0,0 c 0,-8.837 -7.163,-16 -16,-16 -8.837,0 -16,7.163 -16,16 0,8.837 7.163,16 16,16 C -7.163,16 0,8.837 0,0"/></g><g transform="translate(21,28.5005)" id="g28"><path id="path30" style="fill:#ffffff;fill-opacity:1;fill-rule:nonzero;stroke:none" d="m 0,0 c 0,-1.38 -0.896,-2.5 -2,-2.5 -1.105,0 -2,1.12 -2,2.5 0,1.38 0.895,2.5 2,2.5 1.104,0 2,-1.12 2,-2.5"/></g><g transform="translate(26.918,8.7598)" id="g32"><path id="path34" style="fill:#ffffff;fill-opacity:1;fill-rule:nonzero;stroke:none" d="m 0,0 -4.918,8.371 0,5.371 c 0.371,-0.326 0.755,-0.679 1.127,-1.044 l 0.925,-2.774 c 0.139,-0.419 0.529,-0.684 0.948,-0.684 0.105,0 0.211,0.017 0.316,0.052 0.524,0.175 0.807,0.741 0.632,1.265 l -1,3 c -0.049,0.147 -0.132,0.281 -0.241,0.39 -1.502,1.503 -3.538,3.293 -4.707,3.293 l -2,0 c -1.21,0 -2.644,-1.702 -3.683,-3.223 l -3.764,-1.882 c -0.494,-0.247 -0.695,-0.848 -0.447,-1.342 0.247,-0.494 0.846,-0.695 1.341,-0.447 l 4,2 c 0.155,0.077 0.288,0.195 0.385,0.339 0.202,0.303 0.421,0.606 0.643,0.893 l 1.1,-3.852 -3.819,-2.183 C -13.629,7.275 -13.918,6.778 -13.918,6.24 l 0,-7 c 0,-0.828 0.671,-1.5 1.5,-1.5 0.829,0 1.5,0.672 1.5,1.5 l 0,6.13 3.207,1.833 5.125,-8.723 c 0.279,-0.475 0.78,-0.74 1.294,-0.74 0.259,0 0.521,0.067 0.759,0.207 C 0.181,-1.634 0.42,-0.714 0,0"/></g><g transform="translate(30.1152,6.1162)" id="g36"><path id="path38" style="fill:#dd2e44;fill-opacity:1;fill-rule:nonzero;stroke:none" d="m 0,0 -24,24 1.768,1.768 24,-24 L 0,0 Z"/></g></g></g></g></svg>
