<svg xmlns="http://www.w3.org/2000/svg" viewBox="0 0 47.5 47.5" enable-background="new 0 0 47.5 47.5"><defs><clipPath id="a"><path d="M0 38h38V0H0v38z"/></clipPath></defs><g><g><g clip-path="url(#a)" transform="matrix(1.25 0 0 -1.25 0 47.5)"><g><path fill="#ea596e" d="M37 5c0-2.2-1.8-4-4-4H5C2.8 1 1 2.8 1 5v28c0 2.2 1.8 4 4 4h28c2.2 0 4-1.8 4-4V5z"/></g><g><path fill="#fff" d="M27.8 21.27l-7.05 4.4c.76.64 1.25 1.66 1.25 2.83 0 1.93-1.34 3.5-3 3.5s-3-1.57-3-3.5c0-1.17.5-2.2 1.24-2.83l-7.04-4.4c-.7-.44-.9-1.36-.47-2.06.44-.7 1.36-.9 2.06-.47l4.35 2.72L13 12h4V6c0-1.1.9-2 2-2s2 .9 2 2v6h4l-3.15 9.45 4.35-2.72c.25-.16.53-.23.8-.23.5 0 1 .25 1.27.7.44.7.23 1.63-.48 2.07"/></g></g></g></g></svg>