<?xml version="1.0" encoding="UTF-8" standalone="no"?><svg xmlns:svg="http://www.w3.org/2000/svg" xmlns="http://www.w3.org/2000/svg" version="1.1" viewBox="0 0 47.5 47.5" style="enable-background:new 0 0 47.5 47.5;" id="svg2" xml:space="preserve"><defs id="defs6"><clipPath id="clipPath18"><path d="M 0,38 38,38 38,0 0,0 0,38 z" id="path20"/></clipPath></defs><g transform="matrix(1.25,0,0,-1.25,0,47.5)" id="g12"><g id="g14"><g clip-path="url(#clipPath18)" id="g16"><g transform="translate(27,19)" id="g22"><path d="m 0,0 0,-2 -12.707,0 c -0.867,0 -1.835,-0.896 -2.161,-2 l -3.542,-12 c -0.326,-1.104 0.306,-2 1.41,-2 l 18,0 c 1.104,0 2,0.896 2,2 l 0,9 0,1 c 0,1.861 1.278,3.412 3,3.858 L 6,0 0,0 z" id="path24" style="fill:#a7a9ac;fill-opacity:1;fill-rule:nonzero;stroke:none"/></g><g transform="translate(23,15.125)" id="g26"><path d="m 0,0 c 0,-3.521 -4.478,-7.125 -10,-7.125 -5.523,0 -10,3.604 -10,7.125 0,1.875 0.833,1.875 10,1.875 9.166,0 10,0 10,-1.875" id="path28" style="fill:#e6e7e8;fill-opacity:1;fill-rule:nonzero;stroke:none"/></g><g transform="translate(23,18)" id="g30"><path d="m 0,0 c 0,-0.553 -0.447,-1 -1,-1 l -18,0 c -0.552,0 -1,0.447 -1,1 0,0.553 0.448,1 1,1 L -1,1 C -0.447,1 0,0.553 0,0" id="path32" style="fill:#e6e7e8;fill-opacity:1;fill-rule:nonzero;stroke:none"/></g><g transform="translate(19,21)" id="g34"><path d="m 0,0 -12,0 c -1.104,0 -2,-0.896 -2,-2 L 2,-2 C 2,-0.896 1.104,0 0,0" id="path36" style="fill:#939598;fill-opacity:1;fill-rule:nonzero;stroke:none"/></g><g transform="translate(21,37)" id="g38"><path d="m 0,0 0,-16 c 1.104,0 2,0.896 2,2 L 2,-2 C 2,-0.896 1.104,0 0,0" id="path40" style="fill:#939598;fill-opacity:1;fill-rule:nonzero;stroke:none"/></g><g transform="translate(35,33)" id="g42"><path d="m 0,0 c 0,1.104 -0.896,2 -2,2 l -8,0 c -1.104,0 -2,-0.896 -2,-2 l 0,-1 0,-13 c 0,-1.104 0.896,-2 2,-2 l 8,0 c 1.104,0 2,0.896 2,2 l 0,13 0,1 z" id="path44" style="fill:#e6e7e8;fill-opacity:1;fill-rule:nonzero;stroke:none"/></g><g transform="translate(23,21)" id="g46"><path d="m 0,0 c 0,-1.104 -0.896,-2 -2,-2 -1.104,0 -2,0.896 -2,2 0,1.104 0.896,2 2,2 1.104,0 2,-0.896 2,-2" id="path48" style="fill:#d1d3d4;fill-opacity:1;fill-rule:nonzero;stroke:none"/></g><path d="m 35,31 -12,0 0,2 12,0 0,-2 z" id="path50" style="fill:#bcbec0;fill-opacity:1;fill-rule:nonzero;stroke:none"/><g transform="translate(26,16)" id="g52"><path d="m 0,0 c 0,-0.553 -0.447,-1 -1,-1 l -21,0 c -0.552,0 -1,0.447 -1,1 0,0.553 0.448,1 1,1 L -1,1 C -0.447,1 0,0.553 0,0" id="path54" style="fill:#a7a9ac;fill-opacity:1;fill-rule:nonzero;stroke:none"/></g></g></g></g></svg>
