<svg xmlns="http://www.w3.org/2000/svg" viewBox="0 0 47.5 47.5" enable-background="new 0 0 47.5 47.5"><defs><clipPath id="a"><path d="M0 38h38V0H0v38z"/></clipPath></defs><g><g><g clip-path="url(#a)" transform="matrix(1.25 0 0 -1.25 0 47.5)"><g><path d="M36 19c0-9.4-7.6-17-17-17S2 9.6 2 19s7.6 17 17 17 17-7.6 17-17"/></g><g><path fill="#fff" d="M18 18c-1 0-1-1-1-1v-4h-6v4s-.02 1-1.02 1S9 17 9 17V9s0-2 2-2h6c2 0 2 2 2 2v8s0 1-1 1"/></g><g><path fill="#fff" d="M29 27h-9v5s0 1-1 1-1-1-1-1v-5c-6 0-6-6-6-6v-1c0-1 1-1 1-1h2s1 0 1 1v1c0 2 2 2 2 2h11c1 0 1 1 1 1v2s0 1-1 1"/></g><g><path fill="#fff" d="M17 32h-2c-.55 0-1-.45-1-1s.45-1 1-1h2c.55 0 1 .45 1 1s-.45 1-1 1"/></g><g><path fill="#fff" d="M21 30h2c.55 0 1 .45 1 1s-.45 1-1 1h-2c-.55 0-1-.45-1-1s.45-1 1-1"/></g><g><path fill="#dd2e44" d="M3 19c0 3.97 1.45 7.6 3.85 10.4L29.38 6.83C26.6 4.44 22.96 3 19 3 10.16 3 3 10.16 3 19m32 0c0-3.97-1.45-7.6-3.85-10.4L8.62 31.16C11.4 33.55 15.04 35 19 35c8.84 0 16-7.16 16-16M19 37C9.06 37 1 28.94 1 19S9.06 1 19 1s18 8.06 18 18-8.06 18-18 18"/></g></g></g></g></svg>