<svg xmlns="http://www.w3.org/2000/svg" viewBox="0 0 47.5 47.5" enable-background="new 0 0 47.5 47.5"><defs><clipPath id="a"><path d="M0 38h38V0H0v38z"/></clipPath></defs><g><g><g clip-path="url(#a)" transform="matrix(1.25 0 0 -1.25 0 47.5)"><g><path fill="#66757f" d="M32.54 19.47c.77.78.77 2.04 0 2.82L18.97 35.83c-.78.78-2.05.78-2.83 0l-3-3c-.78-.78-.78-2.04 0-2.82L26.7 16.46c.8-.78 2.05-.78 2.83 0l.2.18c1.92-1.95 3.2-3.83 3.2-6.64V3.3c0-1.1.9-2 2-2s2 .9 2 2V10c0 4.43-2.2 7.27-4.4 9.47"/></g><g><path fill="#99aab5" d="M33.1 16.03c-.78-.78-2.04-.78-2.83 0L12.72 33.6c-.78.77-.78 2.03 0 2.8.78.8 2.05.8 2.83 0L33.1 18.87c.78-.78.78-2.05 0-2.83"/></g><g><path fill="#55acee" d="M18.4 21.4c.4-.38.4-1 0-1.4L2.7 4.3c-.38-.4-1.02-.4-1.4 0-.4.38-.4 1.02 0 1.4L17 21.4c.4.4 1.02.4 1.4 0"/></g><g><path fill="#55acee" d="M15.4 24.4c.4-.38.4-1 0-1.4L2.7 10.3c-.38-.4-1.02-.4-1.4 0-.4.38-.4 1.02 0 1.4L14 24.4c.4.4 1.02.4 1.4 0"/></g><g><path fill="#55acee" d="M12.4 27.4c.4-.38.4-1 0-1.4L3 16.6c-.4-.4-1.02-.4-1.4 0-.4.38-.4 1 0 1.4l9.4 9.4c.4.4 1.02.4 1.4 0"/></g><g><path fill="#55acee" d="M21.4 18.4c.4-.38.4-1 0-1.4L8.7 4.3c-.38-.4-1.02-.4-1.4 0-.4.38-.4 1.02 0 1.4L20 18.4c.4.4 1.02.4 1.4 0"/></g><g><path fill="#55acee" d="M24.4 15.4c.4-.38.4-1 0-1.4L15 4.6c-.4-.4-1.02-.4-1.4 0-.4.38-.4 1 0 1.4l9.4 9.4c.4.4 1.02.4 1.4 0"/></g></g></g></g></svg>