<svg xmlns="http://www.w3.org/2000/svg" viewBox="0 0 47.5 47.5" enable-background="new 0 0 47.5 47.5"><defs><clipPath id="a"><path d="M0 38h38V0H0v38z"/></clipPath></defs><g><g><g clip-path="url(#a)" transform="matrix(1.25 0 0 -1.25 0 47.5)"><g><path fill="#ea596e" d="M8 13c1.96 0 3.63-1.14 4.46-2.77l3.47 1.74c-1.44 2.97-4.48 5.03-8 5.03-1.32 0-2.55-.3-3.66-.8l1.67-3.66c.63.3 1.32.46 2.06.46"/></g><g><path fill="#ea596e" d="M30 13c1.47 0 2.77-.64 3.7-1.65L36.57 14c-1.63 1.83-4 3-6.66 3-3.58 0-6.66-2.1-8.08-5.15l3.65-1.72C26.3 11.83 28 13 30 13"/></g><g><path fill="#292f33" d="M8 3C5.24 3 3 5.24 3 8s2.24 5 5 5 5-2.24 5-5-2.24-5-5-5m0 12c-3.87 0-7-3.13-7-7s3.13-7 7-7 7 3.13 7 7-3.13 7-7 7"/></g><g><path fill="#292f33" d="M30 3c-2.76 0-5 2.24-5 5s2.24 5 5 5 5-2.24 5-5-2.24-5-5-5m0 12c-3.87 0-7-3.13-7-7s3.13-7 7-7 7 3.13 7 7-3.13 7-7 7"/></g><g><path fill="#dd2e44" d="M30.98 8.08c0 .07-.02.13-.04.2-.02.06-.04.12-.07.18 0 .03 0 .05-.03.08l-7 11c-.3.46-.9.6-1.38.3-.3-.2-.44-.5-.44-.84H13c-.55 0-1-.45-1-1s.45-1 1-1h10c.03 0 .05 0 .08.02L28.18 9H19c-.55 0-1-.45-1-1s.45-1 1-1h11c.12 0 .23.03.34.07.04 0 .07.03.1.04.03.03.07.04.1.06.03.02.05.05.07.07.07.04.12.1.16.14.04.05.07.1.1.16.03.05.06.1.08.17.02.06.03.13.04.2 0 .03.02.06.02.1 0 .03 0 .05-.02.08"/></g><g><path fill="#dd2e44" d="M22.58 21l-2.9-8.12-5.93 6.78c-.36.4-1 .46-1.4.1-.42-.37-.47-1-.1-1.42l6.66-7.6-.84-2.4c-.2-.52.08-1.1.6-1.28.12-.04.23-.06.34-.06.4 0 .8.26.94.66L24.7 21H22.6z"/></g><g><path fill="#dd2e44" d="M8 7c-.15 0-.3.03-.45.1-.5.25-.7.85-.44 1.35l3.07 6.1c.02.03 1.83 2.8 1.83 5.45 0 3.24-2.3 4.04-2.32 4.05-.52.18-.8.74-.63 1.27.18.52.74.8 1.27.63C10.47 25.9 14 24.67 14 20c0-3.07-1.84-6.04-2.13-6.5L8.9 7.55C8.72 7.2 8.37 7 8 7"/></g><g><path fill="#292f33" d="M15.6 23.34c-.04 0-.1 0-.15 0l-6 1c-.55.1-.92.62-.82 1.16.1.55.6.92 1.15.82l6-1c.54-.1.9-.6.82-1.15-.08-.5-.5-.83-1-.83"/></g><g><path fill="#292f33" d="M27.38 20c-.03 0-.06 0-.1 0l-5.66.7c-.37.06-.64.4-.62.76.03.38.33.67.7.67.05 0 4.08 0 6 1.3.25.16.58.15.82-.03.24-.2.34-.5.24-.8l-.7-2.12c-.1-.3-.38-.48-.68-.48"/></g><g><path fill="#66757f" d="M21 8c0-1.1-.9-2-2-2s-2 .9-2 2 .9 2 2 2 2-.9 2-2"/></g></g></g></g></svg>