<?xml version="1.0" encoding="UTF-8" standalone="no"?>
<!-- Created with Inkscape (http://www.inkscape.org/) -->

<svg
   xmlns:svg="http://www.w3.org/2000/svg"
   xmlns="http://www.w3.org/2000/svg"
   version="1.1"
   width="47.5"
   height="47.5"
   id="svg2"
   xml:space="preserve"><defs
     id="defs6"><clipPath
       id="clipPath18"><path
         d="M 0,38 38,38 38,0 0,0 0,38 z"
         id="path20" /></clipPath></defs><g
     transform="matrix(1.25,0,0,-1.25,0,47.5)"
     id="g12"><g
       id="g14"><g
         clip-path="url(#clipPath18)"
         id="g16"><g
           transform="translate(35.999,19.001)"
           id="g22"><path
             d="m 0,0 c 0,-9.389 -7.611,-17 -17,-17 -9.389,0 -17,7.611 -17,17 0,9.389 7.611,17 17,17 C -7.611,17 0,9.389 0,0"
             id="path24"
             style="fill:#000000;fill-opacity:1;fill-rule:nonzero;stroke:none" /></g><g
           transform="translate(18,18)"
           id="g26"><path
             d="m 0,0 c -1,0 -1,-1 -1,-1 l 0,-4 -6,0 0,4 C -7,-1 -7.021,0 -8.021,0 -9.021,0 -9,-1 -9,-1 l 0,-8 c 0,0 0,-2 2,-2 l 6,0 c 2,0 2,2 2,2 l 0,8 c 0,0 0,1 -1,1"
             id="path28"
             style="fill:#ffffff;fill-opacity:1;fill-rule:nonzero;stroke:none" /></g><g
           transform="translate(29,27)"
           id="g30"><path
             d="m 0,0 -9,0 0,4 0,1 c 0,0 0,1 -1,1 -1,0 -1,-1 -1,-1 l 0,-1 0,-4 c -6,0 -6,-6 -6,-6 l 0,-1 c 0,-1 1,-1 1,-1 l 2,0 c 0,0 1,0 1,1 l 0,0.207 0,0.793 c 0,2 2,2 2,2 l 11,0 c 1,0 1,1 1,1 l 0,2 c 0,0 0,1 -1,1"
             id="path32"
             style="fill:#ffffff;fill-opacity:1;fill-rule:nonzero;stroke:none" /></g><g
           transform="translate(17,32)"
           id="g34"><path
             d="m 0,0 -2,0 c -0.552,0 -1,-0.448 -1,-1 0,-0.552 0.448,-1 1,-1 l 2,0 c 0.552,0 1,0.448 1,1 0,0.552 -0.448,1 -1,1"
             id="path36"
             style="fill:#ffffff;fill-opacity:1;fill-rule:nonzero;stroke:none" /></g><g
           transform="translate(21,30)"
           id="g38"><path
             d="M 0,0 2,0 C 2.553,0 3,0.448 3,1 3,1.552 2.553,2 2,2 L 0,2 C -0.553,2 -1,1.552 -1,1 -1,0.448 -0.553,0 0,0"
             id="path40"
             style="fill:#ffffff;fill-opacity:1;fill-rule:nonzero;stroke:none" /></g><g
           transform="translate(3,18.9995)"
           id="g42"><path
             d="M 0,0 C 0,3.968 1.453,7.592 3.845,10.388 L 26.388,-12.156 C 23.592,-14.547 19.968,-16 16,-16 7.164,-16 0,-8.836 0,0 m 32,0 c 0,-3.968 -1.453,-7.591 -3.845,-10.388 L 5.612,12.155 C 8.409,14.547 12.032,16 16,16 24.837,16 32,8.836 32,0 M 16,18 C 6.059,18 -2,9.941 -2,0 c 0,-9.941 8.059,-18 18,-18 9.941,0 18,8.059 18,18 0,9.941 -8.059,18 -18,18"
             id="path44"
             style="fill:#dd2e44;fill-opacity:1;fill-rule:nonzero;stroke:none" /></g></g></g></g></svg>