<svg xmlns="http://www.w3.org/2000/svg" viewBox="0 0 47.5 47.5" enable-background="new 0 0 47.5 47.5"><defs><clipPath id="a"><path d="M0 38h38V0H0v38z"/></clipPath></defs><g><g><g clip-path="url(#a)" transform="matrix(1.25 0 0 -1.25 0 47.5)"><g><path fill="#66757f" d="M37 5c0-2.2-1.8-4-4-4H5C2.8 1 1 2.8 1 5v28c0 2.2 1.8 4 4 4h28c2.2 0 4-1.8 4-4V5z"/></g><g><path fill="#fff" d="M34.27 18.83l-5.73 6.68c.87.63 1.46 1.73 1.46 3 0 1.93-1.34 3.5-3 3.5s-3-1.57-3-3.5c0-1.35.66-2.5 1.62-3.1L19.88 19c-.55-.62-.5-1.56.12-2.12.62-.55 1.57-.5 2.12.12l.87.98L21 12h4V6c0-1.1.9-2 2-2s2 .9 2 2v6h4l-2.02 6.06 1.02-1.2c.3-.33.7-.5 1.14-.5.34 0 .7.1.97.35.64.55.7 1.5.17 2.13"/></g><g><path fill="#fff" d="M18.84 18.8c-.66 1.52-2.7 5.8-5.53 7.5.44.6.7 1.36.7 2.2 0 1.93-1.34 3.5-3 3.5s-3-1.57-3-3.5c0-.84.26-1.6.7-2.2-2.84-1.7-4.88-5.98-5.54-7.5-.43-1.03.04-2.2 1.05-2.64.27-.1.54-.16.8-.16.77 0 1.5.45 1.84 1.2.05.13.1.25.16.37V5.5C7 4.67 7.67 4 8.5 4s1.5.67 1.5 1.5V13c0 .55.45 1 1 1s1-.45 1-1V5.5c0-.83.67-1.5 1.5-1.5s1.5.67 1.5 1.5v12.07c.05-.12.1-.24.16-.36.44-1 1.6-1.47 2.63-1.04 1 .44 1.47 1.6 1.04 2.63"/></g></g></g></g></svg>