<?xml version="1.0" encoding="UTF-8" standalone="no"?><svg xmlns:svg="http://www.w3.org/2000/svg" xmlns="http://www.w3.org/2000/svg" version="1.1" viewBox="0 0 47.5 47.5" style="enable-background:new 0 0 47.5 47.5;" id="svg2" xml:space="preserve"><defs id="defs6"><clipPath id="clipPath18"><path d="M 0,38 38,38 38,0 0,0 0,38 z" id="path20"/></clipPath></defs><g transform="matrix(1.25,0,0,-1.25,0,47.5)" id="g12"><g id="g14"><g clip-path="url(#clipPath18)" id="g16"><g transform="translate(37,5)" id="g22"><path d="m 0,0 c 0,-2.209 -1.791,-4 -4,-4 l -28,0 c -2.209,0 -4,1.791 -4,4 l 0,28 c 0,2.209 1.791,4 4,4 l 28,0 c 2.209,0 4,-1.791 4,-4 L 0,0 z" id="path24" style="fill:#226699;fill-opacity:1;fill-rule:nonzero;stroke:none"/></g><g transform="translate(2.6953,23.5981)" id="g26"><path d="m 0,0 c -0.066,0.286 -0.088,0.44 -0.088,0.748 0,0.704 0.594,1.452 1.562,1.452 1.056,0 1.562,-0.616 1.76,-1.584 l 1.87,-9.352 0.044,0 2.861,9.638 C 8.251,1.694 8.911,2.2 9.725,2.2 c 0.814,0 1.474,-0.506 1.716,-1.298 l 2.861,-9.638 0.044,0 1.87,9.352 C 16.414,1.584 16.92,2.2 17.976,2.2 18.944,2.2 19.538,1.452 19.538,0.748 19.538,0.44 19.517,0.286 19.45,0 l -2.794,-12.014 c -0.22,-0.924 -0.946,-1.716 -2.178,-1.716 -1.079,0 -1.915,0.704 -2.178,1.606 l -2.553,8.493 -0.044,0 -2.553,-8.493 c -0.263,-0.902 -1.099,-1.606 -2.177,-1.606 -1.233,0 -1.959,0.792 -2.179,1.716 L 0,0 z" id="path28" style="fill:#ffffff;fill-opacity:1;fill-rule:nonzero;stroke:none"/></g><g transform="translate(30.3486,25.9302)" id="g30"><path d="m 0,0 c 1.607,0 4.73,-0.528 4.73,-2.464 0,-0.792 -0.548,-1.474 -1.363,-1.474 -0.902,0 -1.517,0.77 -3.367,0.77 -2.729,0 -4.136,-2.311 -4.136,-4.995 0,-2.619 1.431,-4.863 4.136,-4.863 1.85,0 2.598,0.924 3.5,0.924 0.99,0 1.451,-0.989 1.451,-1.496 0,-2.112 -3.322,-2.596 -4.951,-2.596 -4.466,0 -7.568,3.542 -7.568,8.097 C -7.568,-3.521 -4.488,0 0,0" id="path32" style="fill:#ffffff;fill-opacity:1;fill-rule:nonzero;stroke:none"/></g></g></g></g></svg>
