<?xml version="1.0" encoding="UTF-8" standalone="no"?><svg xmlns:svg="http://www.w3.org/2000/svg" xmlns="http://www.w3.org/2000/svg" version="1.1" viewBox="0 0 47.5 47.5" style="enable-background:new 0 0 47.5 47.5;" id="svg2" xml:space="preserve"><defs id="defs6"><clipPath id="clipPath18"><path d="M 0,38 38,38 38,0 0,0 0,38 z" id="path20"/></clipPath></defs><g transform="matrix(1.25,0,0,-1.25,0,47.5)" id="g12"><g id="g14"><g clip-path="url(#clipPath18)" id="g16"><g transform="translate(37,5)" id="g22"><path d="m 0,0 c 0,-2.209 -1.791,-4 -4,-4 l -28,0 c -2.209,0 -4,1.791 -4,4 l 0,28 c 0,2.209 1.791,4 4,4 l 28,0 c 2.209,0 4,-1.791 4,-4 L 0,0 z" id="path24" style="fill:#66757f;fill-opacity:1;fill-rule:nonzero;stroke:none"/></g><g transform="translate(34.2734,18.8276)" id="g26"><path d="m 0,0 -5.73,6.686 c 0.869,0.612 1.457,1.715 1.457,2.987 0,1.933 -1.344,3.5 -3,3.5 -1.658,0 -3,-1.567 -3,-3.5 0,-1.35 0.662,-2.507 1.621,-3.091 l -5.739,-6.409 c -0.552,-0.617 -0.5,-1.565 0.117,-2.118 0.618,-0.553 1.567,-0.499 2.118,0.117 l 0.875,0.978 -1.992,-5.978 4,0 0,-6 c 0,-1.104 0.895,-2 2,-2 1.104,0 2,0.896 2,2 l 0,6 4,0 -2.021,6.061 1.017,-1.186 c 0.297,-0.345 0.716,-0.523 1.139,-0.523 0.345,0 0.693,0.119 0.976,0.361 C 0.467,-1.576 0.539,-0.629 0,0" id="path28" style="fill:#ffffff;fill-opacity:1;fill-rule:nonzero;stroke:none"/></g><g transform="translate(18.8384,18.7886)" id="g30"><path d="m 0,0 c -0.657,1.534 -2.699,5.82 -5.525,7.509 0.422,0.603 0.687,1.363 0.687,2.203 0,1.933 -1.344,3.5 -3.001,3.5 -1.657,0 -3,-1.567 -3,-3.5 0,-0.84 0.264,-1.6 0.687,-2.203 -2.827,-1.689 -4.868,-5.976 -5.525,-7.51 -0.435,-1.014 0.035,-2.189 1.049,-2.624 0.257,-0.111 0.525,-0.164 0.788,-0.164 0.775,0 1.513,0.455 1.839,1.211 0.053,0.122 0.108,0.243 0.163,0.364 l 0,-12.075 c 0,-0.828 0.671,-1.5 1.5,-1.5 0.828,0 1.5,0.672 1.5,1.5 l 0,7.5 c 0,0.553 0.447,1 1,1 0.552,0 1,-0.447 1,-1 l 0,-0.858 0,-0.142 0,-6.5 c 0,-0.828 0.671,-1.5 1.5,-1.5 0.828,0 1.5,0.672 1.5,1.5 l 0,12.073 c 0.054,-0.12 0.109,-0.24 0.162,-0.362 0.437,-1.013 1.612,-1.483 2.627,-1.047 C -0.035,-2.189 0.435,-1.015 0,0" id="path32" style="fill:#ffffff;fill-opacity:1;fill-rule:nonzero;stroke:none"/></g></g></g></g></svg>
