<svg xmlns="http://www.w3.org/2000/svg" viewBox="0 0 47.5 47.5" enable-background="new 0 0 47.5 47.5"><defs><clipPath id="a"><path d="M0 38h38V0H0v38z"/></clipPath></defs><g><g><g clip-path="url(#a)" transform="matrix(1.25 0 0 -1.25 0 47.5)"><g><path fill="#d99e82" d="M16.32 33.74c-1.2-.27 1.05-1.53.68-2.74-.25-.84.22 0 1 0 0 0 .63-1.28.42-3.23-.2-1.94 2.47-2.6 2.68-.67.2 1.94-1.4 3-.5 4.5 2.08 3.62-4.28 2.14-4.28 2.14"/></g><g><path fill="#cc927a" d="M25 16c-.55 0-1 .45-1 1 0 4.52-4.66 9.25-4.7 9.3-.4.38-.4 1.02 0 1.4.38.4 1.02.4 1.4 0 .22-.2 5.3-5.35 5.3-10.7 0-.55-.45-1-1-1"/></g><g><path fill="#2a6797" d="M17 2c-1.1 0-2 .9-2 2v7c0 .35.1.7.26 1l4 7c.55.95 1.77 1.3 2.73.74.95-.55 1.28-1.77.74-2.73L19 10.48V4c0-1.1-.9-2-2-2"/></g><g><path fill="#4289c1" d="M26 5c-.6 0-1.17.26-1.56.75l-4 5c-.2.25-.34.54-.4.86l-1 5c-.22 1.1.48 2.14 1.57 2.36 1.1.22 2.15-.5 2.36-1.57l.9-4.53 3.7-4.62c.7-.86.55-2.12-.3-2.8-.38-.3-.82-.45-1.26-.45"/></g><g><path fill="#292f33" d="M16 1.1l3.58-.1c-.34 3-1.65 2.04-3.74 2.1-2.1.05-3.8-.9-3.84-1.9.82-.03 1.6-.05 3-.1.3 0 .63 0 1 0"/></g><g><path fill="#292f33" d="M27.12 3.86l2.5 2.57c-2.43 1.8-2.6.18-4.07-1.32-1.47-1.5-1.94-3.4-1.22-4.1.57.6 1.1 1.14 2.1 2.15.2.2.43.45.7.7"/></g><g><path fill="#a0041e" d="M24 18s0-1-2-1h-4c-2 6-.36 12 2 12 3 0 3-4 4-9"/></g><g><path fill="#d99e82" d="M19 25c0-.04-.07-4.55-3.6-7.2-.23-.2-.4-.47-.4-.8 0-.55.45-1 1-1 .23 0 .42.1.6.2 4.35 3.26 4.4 8.57 4.4 8.8h-2z"/></g><g><path fill="#d99e82" d="M23 33c0-2.2-1.8-4-4-4s-4 1.8-4 4 1.8 4 4 4 4-1.8 4-4"/></g><g><path fill="#fdcb58" d="M14 33s0 4 5 4c4 0 4-4 4-4s0 2-3 2c-2 0-2-3-6-2"/></g></g></g></g></svg>