<?xml version="1.0" encoding="UTF-8" standalone="no"?>
<!-- Created with Inkscape (http://www.inkscape.org/) -->

<svg
   xmlns:svg="http://www.w3.org/2000/svg"
   xmlns="http://www.w3.org/2000/svg"
   version="1.1"
   width="47.5"
   height="47.5"
   id="svg2"
   xml:space="preserve"><defs
     id="defs6"><clipPath
       id="clipPath18"><path
         d="M 0,38 38,38 38,0 0,0 0,38 z"
         id="path20" /></clipPath></defs><g
     transform="matrix(1.25,0,0,-1.25,0,47.5)"
     id="g12"><g
       id="g14"><g
         clip-path="url(#clipPath18)"
         id="g16"><g
           transform="translate(37,5)"
           id="g22"><path
             d="m 0,0 c 0,-2.209 -1.791,-4 -4,-4 l -28,0 c -2.209,0 -4,1.791 -4,4 l 0,28 c 0,2.209 1.791,4 4,4 l 28,0 c 2.209,0 4,-1.791 4,-4 L 0,0 z"
             id="path24"
             style="fill:#f4900c;fill-opacity:1;fill-rule:nonzero;stroke:none" /></g><g
           transform="translate(15.4307,12.3086)"
           id="g26"><path
             d="m 0,0 c -1.513,0.06 -3.773,-0.47 -5.538,-2.687 -0.534,0.294 -1.202,0.317 -1.778,0.004 -0.898,-0.489 -1.23,-1.613 -0.741,-2.511 0.428,-0.785 1.31,-1.645 2.504,-1.698 0.039,-0.002 0.079,-0.003 0.119,-0.003 0.714,0 1.696,0.288 2.544,1.559 1.214,1.821 2.748,1.651 2.945,1.622 0.516,-0.099 1.022,0.032 1.42,0.318 C 0.917,-2.44 1.131,-0.955 0,0"
             id="path28"
             style="fill:#ffffff;fill-opacity:1;fill-rule:nonzero;stroke:none" /></g><g
           transform="translate(29.7178,9.6367)"
           id="g30"><path
             d="m 0,0 c -0.581,0.315 -1.255,0.293 -1.79,-0.005 -1.698,2.128 -3.849,2.692 -5.357,2.678 -1.156,-0.975 -0.912,-2.499 -1.514,-3.451 0.373,-0.229 0.822,-0.336 1.281,-0.265 0.173,0.028 1.724,0.218 2.949,-1.621 0.848,-1.272 1.831,-1.559 2.544,-1.559 0.041,0 0.08,10e-4 0.119,0.003 1.194,0.053 2.077,0.912 2.504,1.698 C 1.226,-1.624 0.898,-0.489 0,0"
             id="path32"
             style="fill:#ffffff;fill-opacity:1;fill-rule:nonzero;stroke:none" /></g><g
           transform="translate(29.0605,18.0605)"
           id="g34"><path
             d="M 0,0 C -0.508,0.508 -1.291,0.576 -1.872,0.201 -2.012,0.238 -2.388,0.388 -3,1 c -2.031,2.031 -4.096,2.859 -5.466,3.199 1.348,0.45 2.455,1.456 3.086,2.759 0.742,0.09 1.319,0.715 1.319,1.481 0,0.56 -0.31,1.042 -0.764,1.3 -0.15,2.898 -2.433,5.2 -5.236,5.2 -2.802,0 -5.085,-2.302 -5.235,-5.2 -0.454,-0.258 -0.765,-0.74 -0.765,-1.3 0,-0.766 0.578,-1.391 1.32,-1.481 0.631,-1.303 1.739,-2.309 3.086,-2.759 C -13.025,3.859 -15.09,3.031 -17.121,1 -17.733,0.388 -18.109,0.238 -18.249,0.201 -18.831,0.576 -19.613,0.509 -20.121,0 c -0.586,-0.586 -0.586,-1.535 0,-2.121 0.047,-0.048 0.712,-0.691 1.83,-0.691 0.856,0 1.979,0.378 3.291,1.691 0.408,0.408 0.809,0.731 1.202,1.019 -0.119,-0.494 -0.185,-0.988 -0.185,-1.453 0,-2.423 1.755,-2.506 3.922,-2.506 2.166,0 3.923,0.083 3.923,2.506 0,0.465 -0.065,0.959 -0.185,1.453 0.393,-0.288 0.794,-0.611 1.202,-1.019 1.312,-1.314 2.434,-1.691 3.291,-1.691 1.117,0 1.782,0.643 1.83,0.691 0.586,0.586 0.586,1.535 0,2.121"
             id="path36"
             style="fill:#ffffff;fill-opacity:1;fill-rule:nonzero;stroke:none" /></g></g></g></g></svg>