<?xml version="1.0" encoding="UTF-8" standalone="no"?><svg xmlns:dc="http://purl.org/dc/elements/1.1/" xmlns:cc="http://creativecommons.org/ns#" xmlns:rdf="http://www.w3.org/1999/02/22-rdf-syntax-ns#" xmlns:svg="http://www.w3.org/2000/svg" xmlns="http://www.w3.org/2000/svg" viewBox="0 0 47.5 47.5" style="enable-background:new 0 0 47.5 47.5;" xml:space="preserve" version="1.1" id="svg2"><metadata id="metadata8"><rdf:RDF><cc:Work rdf:about=""><dc:format>image/svg+xml</dc:format><dc:type rdf:resource="http://purl.org/dc/dcmitype/StillImage"/></cc:Work></rdf:RDF></metadata><defs id="defs6"><clipPath id="clipPath16" clipPathUnits="userSpaceOnUse"><path id="path18" d="M 0,38 38,38 38,0 0,0 0,38 Z"/></clipPath></defs><g transform="matrix(1.25,0,0,-1.25,0,47.5)" id="g10"><g id="g12"><g clip-path="url(#clipPath16)" id="g14"><g transform="translate(27,19)" id="g20"><path id="path22" style="fill:#a7a9ac;fill-opacity:1;fill-rule:nonzero;stroke:none" d="m 0,0 0,-2 -12.707,0 c -0.867,0 -1.835,-0.896 -2.161,-2 l -3.542,-12 c -0.326,-1.104 0.306,-2 1.41,-2 l 18,0 c 1.104,0 2,0.896 2,2 l 0,9 0,1 c 0,1.861 1.278,3.412 3,3.858 L 6,0 0,0 Z"/></g><g transform="translate(23,15.125)" id="g24"><path id="path26" style="fill:#e6e7e8;fill-opacity:1;fill-rule:nonzero;stroke:none" d="m 0,0 c 0,-3.521 -4.478,-7.125 -10,-7.125 -5.523,0 -10,3.604 -10,7.125 0,1.875 0.833,1.875 10,1.875 9.166,0 10,0 10,-1.875"/></g><g transform="translate(23,18)" id="g28"><path id="path30" style="fill:#e6e7e8;fill-opacity:1;fill-rule:nonzero;stroke:none" d="m 0,0 c 0,-0.553 -0.447,-1 -1,-1 l -18,0 c -0.552,0 -1,0.447 -1,1 0,0.553 0.448,1 1,1 L -1,1 C -0.447,1 0,0.553 0,0"/></g><g transform="translate(19,21)" id="g32"><path id="path34" style="fill:#939598;fill-opacity:1;fill-rule:nonzero;stroke:none" d="m 0,0 -12,0 c -1.104,0 -2,-0.896 -2,-2 L 2,-2 C 2,-0.896 1.104,0 0,0"/></g><g transform="translate(21,37)" id="g36"><path id="path38" style="fill:#939598;fill-opacity:1;fill-rule:nonzero;stroke:none" d="m 0,0 0,-16 c 1.104,0 2,0.896 2,2 L 2,-2 C 2,-0.896 1.104,0 0,0"/></g><g transform="translate(35,33)" id="g40"><path id="path42" style="fill:#e6e7e8;fill-opacity:1;fill-rule:nonzero;stroke:none" d="m 0,0 c 0,1.104 -0.896,2 -2,2 l -8,0 c -1.104,0 -2,-0.896 -2,-2 l 0,-1 0,-13 c 0,-1.104 0.896,-2 2,-2 l 8,0 c 1.104,0 2,0.896 2,2 l 0,13 0,1 z"/></g><g transform="translate(23,21)" id="g44"><path id="path46" style="fill:#d1d3d4;fill-opacity:1;fill-rule:nonzero;stroke:none" d="m 0,0 c 0,-1.104 -0.896,-2 -2,-2 -1.104,0 -2,0.896 -2,2 0,1.104 0.896,2 2,2 1.104,0 2,-0.896 2,-2"/></g><path id="path48" style="fill:#bcbec0;fill-opacity:1;fill-rule:nonzero;stroke:none" d="m 35,31 -12,0 0,2 12,0 0,-2 z"/><g transform="translate(26,16)" id="g50"><path id="path52" style="fill:#a7a9ac;fill-opacity:1;fill-rule:nonzero;stroke:none" d="m 0,0 c 0,-0.553 -0.447,-1 -1,-1 l -21,0 c -0.552,0 -1,0.447 -1,1 0,0.553 0.448,1 1,1 L -1,1 C -0.447,1 0,0.553 0,0"/></g></g></g></g></svg>
