<svg xmlns="http://www.w3.org/2000/svg" viewBox="0 0 47.5 47.5" enable-background="new 0 0 47.5 47.5"><defs><clipPath id="a"><path d="M0 38h38V0H0v38z"/></clipPath></defs><g><g><g clip-path="url(#a)" transform="matrix(1.25 0 0 -1.25 0 47.5)"><g><path fill="#a7a9ac" d="M27 19v-2H14.3c-.87 0-1.84-.9-2.17-2L8.6 3c-.34-1.1.3-2 1.4-2h18c1.1 0 2 .9 2 2v10c0 1.86 1.28 3.4 3 3.86V19h-6z"/></g><g><path fill="#e6e7e8" d="M23 15.13C23 11.6 18.52 8 13 8S3 11.6 3 15.13C3 17 3.83 17 13 17s10 0 10-1.88"/></g><g><path fill="#e6e7e8" d="M23 18c0-.55-.45-1-1-1H4c-.55 0-1 .45-1 1s.45 1 1 1h18c.55 0 1-.45 1-1"/></g><g><path fill="#939598" d="M19 21H7c-1.1 0-2-.9-2-2h16c0 1.1-.9 2-2 2"/></g><g><path fill="#939598" d="M21 37V21c1.1 0 2 .9 2 2v12c0 1.1-.9 2-2 2"/></g><g><path fill="#e6e7e8" d="M35 33c0 1.1-.9 2-2 2h-8c-1.1 0-2-.9-2-2V19c0-1.1.9-2 2-2h8c1.1 0 2 .9 2 2v14z"/></g><g><path fill="#d1d3d4" d="M23 21c0-1.1-.9-2-2-2s-2 .9-2 2 .9 2 2 2 2-.9 2-2"/></g><path fill="#bcbec0" d="M35 31H23v2h12v-2z"/><g><path fill="#a7a9ac" d="M26 16c0-.55-.45-1-1-1H4c-.55 0-1 .45-1 1s.45 1 1 1h21c.55 0 1-.45 1-1"/></g></g></g></g></svg>