<?xml version="1.0" encoding="UTF-8" standalone="no"?><svg xmlns:dc="http://purl.org/dc/elements/1.1/" xmlns:cc="http://creativecommons.org/ns#" xmlns:rdf="http://www.w3.org/1999/02/22-rdf-syntax-ns#" xmlns:svg="http://www.w3.org/2000/svg" xmlns="http://www.w3.org/2000/svg" viewBox="0 0 47.5 47.5" style="enable-background:new 0 0 47.5 47.5;" xml:space="preserve" version="1.1" id="svg2"><metadata id="metadata8"><rdf:RDF><cc:Work rdf:about=""><dc:format>image/svg+xml</dc:format><dc:type rdf:resource="http://purl.org/dc/dcmitype/StillImage"/></cc:Work></rdf:RDF></metadata><defs id="defs6"><clipPath id="clipPath16" clipPathUnits="userSpaceOnUse"><path id="path18" d="M 0,38 38,38 38,0 0,0 0,38 Z"/></clipPath></defs><g transform="matrix(1.25,0,0,-1.25,0,47.5)" id="g10"><g id="g12"><g clip-path="url(#clipPath16)" id="g14"><g transform="translate(37,5)" id="g20"><path id="path22" style="fill:#55acee;fill-opacity:1;fill-rule:nonzero;stroke:none" d="m 0,0 c 0,-2.209 -1.791,-4 -4,-4 l -28,0 c -2.209,0 -4,1.791 -4,4 l 0,28 c 0,2.209 1.791,4 4,4 l 28,0 c 2.209,0 4,-1.791 4,-4 L 0,0 Z"/></g><g transform="translate(27.7949,21.2725)" id="g24"><path id="path26" style="fill:#ffffff;fill-opacity:1;fill-rule:nonzero;stroke:none" d="m 0,0 -7.041,4.4 c 0.752,0.636 1.246,1.662 1.246,2.828 0,1.933 -1.344,3.5 -3,3.5 -1.657,0 -3,-1.567 -3,-3.5 0,-1.166 0.493,-2.192 1.245,-2.828 L -17.59,0 c -0.703,-0.439 -0.916,-1.364 -0.477,-2.067 0.439,-0.703 1.364,-0.915 2.067,-0.477 l 3.205,2.003 0,-15.231 c 0,-0.829 0.671,-1.5 1.5,-1.5 0.829,0 1.5,0.671 1.5,1.5 l 0,7.5 c 0,0.552 0.448,1 1,1 0.552,0 1,-0.448 1,-1 l 0,-0.859 0,-0.141 0,-6.5 c 0,-0.829 0.672,-1.5 1.5,-1.5 0.828,0 1.5,0.671 1.5,1.5 l 0,15.231 3.205,-2.003 c 0.247,-0.155 0.522,-0.228 0.794,-0.228 0.5,0 0.988,0.25 1.274,0.705 C 0.916,-1.364 0.702,-0.439 0,0"/></g></g></g></g></svg>
