<svg xmlns="http://www.w3.org/2000/svg" viewBox="0 0 47.5 47.5" enable-background="new 0 0 47.5 47.5"><defs><clipPath id="a"><path d="M0 38h38V0H0v38z"/></clipPath></defs><g><g><g clip-path="url(#a)" transform="matrix(1.25 0 0 -1.25 0 47.5)"><g><path fill="#269" d="M37 5c0-2.2-1.8-4-4-4H5C2.8 1 1 2.8 1 5v28c0 2.2 1.8 4 4 4h28c2.2 0 4-1.8 4-4V5z"/></g><g><path fill="#f5f8fa" d="M27 20h-1V7h1c1.1 0 2 .9 2 2v9c0 1.1-.9 2-2 2"/></g><g><path fill="#f5f8fa" d="M11 20c-1.1 0-2-.9-2-2V9c0-1.1.9-2 2-2h1v13h-1z"/></g><g><path fill="#f5f8fa" d="M17 21c0 .55.45 1 1 1h2c.55 0 1-.45 1-1v-1h-4v1zm6-1v2c0 1.1-.9 2-2 2h-4c-1.1 0-2-.9-2-2v-2h-1V7h10v13h-1z"/></g><g><path fill="#f5f8fa" d="M33 6c0-.55-.45-1-1-1H6c-.55 0-1 .45-1 1v18c0 .55.45 1 1 1h26c.55 0 1-.45 1-1V6zm0 21H5c-1.1 0-2-.9-2-2V5c0-1.1.9-2 2-2h28c1.1 0 2 .9 2 2v20c0 1.1-.9 2-2 2"/></g><g><path fill="#f5f8fa" d="M14.5 30c-.83 0-1.5.67-1.5 1.5s.67 1.5 1.5 1.5 1.5-.67 1.5-1.5-.67-1.5-1.5-1.5M25 33h-6.35c-.56 1.18-1.76 2-3.15 2-1.93 0-3.5-1.57-3.5-3.5s1.57-3.5 3.5-3.5c1.76 0 3.2 1.3 3.45 3h1.72c.25-.93.75-2 1.33-2 .58 0 1.08 1.07 1.33 2H24c0-1.1.45-2 1-2s1 1 1 3c0 1.1-.45 1-1 1"/></g></g></g></g></svg>