<?xml version="1.0" encoding="UTF-8" standalone="no"?><svg xmlns:svg="http://www.w3.org/2000/svg" xmlns="http://www.w3.org/2000/svg" version="1.1" viewBox="0 0 47.5 47.5" style="enable-background:new 0 0 47.5 47.5;" id="svg2" xml:space="preserve"><defs id="defs6"><clipPath id="clipPath18"><path d="M 0,38 38,38 38,0 0,0 0,38 z" id="path20"/></clipPath></defs><g transform="matrix(1.25,0,0,-1.25,0,47.5)" id="g12"><g id="g14"><g clip-path="url(#clipPath18)" id="g16"><g transform="translate(37,5)" id="g22"><path d="m 0,0 c 0,-2.209 -1.791,-4 -4,-4 l -28,0 c -2.209,0 -4,1.791 -4,4 l 0,28 c 0,2.209 1.791,4 4,4 l 28,0 c 2.209,0 4,-1.791 4,-4 L 0,0 z" id="path24" style="fill:#226699;fill-opacity:1;fill-rule:nonzero;stroke:none"/></g><g transform="translate(27,20)" id="g26"><path d="m 0,0 -1,0 0,-13 1,0 c 1.104,0 2,0.896 2,2 l 0,9 C 2,-0.896 1.104,0 0,0" id="path28" style="fill:#f5f8fa;fill-opacity:1;fill-rule:nonzero;stroke:none"/></g><g transform="translate(11,20)" id="g30"><path d="m 0,0 c -1.104,0 -2,-0.896 -2,-2 l 0,-9 c 0,-1.104 0.896,-2 2,-2 l 1,0 0,13 -1,0 z" id="path32" style="fill:#f5f8fa;fill-opacity:1;fill-rule:nonzero;stroke:none"/></g><g transform="translate(17,21)" id="g34"><path d="M 0,0 C 0,0.553 0.448,1 1,1 L 3,1 C 3.553,1 4,0.553 4,0 L 4,-1 0,-1 0,0 z M 6,-1 6,1 C 6,2.104 5.104,3 4,3 L 0,3 C -1.104,3 -2,2.104 -2,1 l 0,-2 -1,0 0,-13 10,0 0,13 -1,0 z" id="path36" style="fill:#f5f8fa;fill-opacity:1;fill-rule:nonzero;stroke:none"/></g><g transform="translate(33,6)" id="g38"><path d="m 0,0 c 0,-0.553 -0.447,-1 -1,-1 l -26,0 c -0.552,0 -1,0.447 -1,1 l 0,18 c 0,0.553 0.448,1 1,1 l 26,0 c 0.553,0 1,-0.447 1,-1 L 0,0 z m 0,21 -28,0 c -1.104,0 -2,-0.896 -2,-2 l 0,-20 c 0,-1.104 0.896,-2 2,-2 l 28,0 c 1.104,0 2,0.896 2,2 l 0,20 c 0,1.104 -0.896,2 -2,2" id="path40" style="fill:#f5f8fa;fill-opacity:1;fill-rule:nonzero;stroke:none"/></g><g transform="translate(14.5,30)" id="g42"><path d="M 0,0 C -0.829,0 -1.5,0.671 -1.5,1.5 -1.5,2.329 -0.829,3 0,3 0.829,3 1.5,2.329 1.5,1.5 1.5,0.671 0.829,0 0,0 M 10.5,3 4.15,3 C 3.587,4.179 2.394,5 1,5 -0.933,5 -2.5,3.433 -2.5,1.5 -2.5,-0.433 -0.933,-2 1,-2 2.762,-2 4.205,-0.694 4.45,1 L 6.169,1 C 6.416,0.074 6.916,-1 7.5,-1 8.084,-1 8.584,0.074 8.831,1 L 9.5,1 c 0,-1.104 0.448,-2 1,-2 0.552,0 1,1 1,3 0,1.104 -0.448,1 -1,1" id="path44" style="fill:#f5f8fa;fill-opacity:1;fill-rule:nonzero;stroke:none"/></g></g></g></g></svg>
