<?xml version="1.0" encoding="UTF-8" standalone="no"?><svg xmlns:svg="http://www.w3.org/2000/svg" xmlns="http://www.w3.org/2000/svg" version="1.1" viewBox="0 0 47.5 47.5" style="enable-background:new 0 0 47.5 47.5;" id="svg2" xml:space="preserve"><defs id="defs6"><clipPath id="clipPath18"><path d="M 0,38 38,38 38,0 0,0 0,38 z" id="path20"/></clipPath></defs><g transform="matrix(1.25,0,0,-1.25,0,47.5)" id="g12"><g id="g14"><g clip-path="url(#clipPath18)" id="g16"><g transform="translate(37,5)" id="g22"><path d="m 0,0 c 0,-2.209 -1.791,-4 -4,-4 l -28,0 c -2.209,0 -4,1.791 -4,4 l 0,28 c 0,2.209 1.791,4 4,4 l 28,0 c 2.209,0 4,-1.791 4,-4 L 0,0 z" id="path24" style="fill:#226699;fill-opacity:1;fill-rule:nonzero;stroke:none"/></g><g transform="translate(32,26)" id="g26"><path d="m 0,0 c 0,-3.313 -2.687,-6 -6,-6 -3.313,0 -6,2.687 -6,6 L 0,0 z" id="path28" style="fill:#f5f8fa;fill-opacity:1;fill-rule:nonzero;stroke:none"/></g><g transform="translate(32,32)" id="g30"><path d="m 0,0 -12,0 c -0.553,0 -1,-0.448 -1,-1 0,-0.182 0.049,-0.569 0.134,-1.007 C -12.911,-2.005 -12.954,-2 -13,-2 c -1.104,0 -2,-0.448 -2,-1 0,-0.552 0.896,-1 2,-1 0.37,0 0.684,0.003 0.971,0.008 C -12.02,-3.994 -12.01,-4 -12,-4 l 12,0 c 0.553,0 1,2.448 1,3 0,0.552 -0.447,1 -1,1" id="path32" style="fill:#f5f8fa;fill-opacity:1;fill-rule:nonzero;stroke:none"/></g><g transform="translate(16,11)" id="g34"><path d="M 0,0 C -5.013,0 -7.558,3.731 -7.664,3.891 -8.277,4.81 -8.028,6.052 -7.109,6.664 -6.19,7.279 -4.949,7.028 -4.336,6.109 -4.287,6.04 -2.827,4 0,4 2.85,4 4.322,6.088 4.336,6.109 4.948,7.028 6.189,7.279 7.109,6.664 8.028,6.052 8.276,4.81 7.664,3.891 7.559,3.731 5.013,0 0,0" id="path36" style="fill:#f5f8fa;fill-opacity:1;fill-rule:nonzero;stroke:none"/></g><g transform="translate(29,18)" id="g38"><path d="m 0,0 -7,0 c -1.104,0 -2,-0.896 -2,-2 l 0,-7 9,9 z" id="path40" style="fill:#f5f8fa;fill-opacity:1;fill-rule:nonzero;stroke:none"/></g><g transform="translate(31.8203,16.8203)" id="g42"><path d="m 0,0 -11.82,-11.82 c 0,-1.105 0.895,-2 2,-2 l 8,0 c 1.104,0 2,0.895 2,2 l 0,11 C 0.18,-0.527 0.113,-0.251 0,0" id="path44" style="fill:#f5f8fa;fill-opacity:1;fill-rule:nonzero;stroke:none"/></g><g transform="translate(13,33.96)" id="g46"><path d="M 0,0 -6,-1.43 C -6.154,-1.474 -6.295,-1.555 -6.426,-1.654 L -1,-2.92 c 0.552,-0.157 1,-0.733 1,-1.285 L 0,-10 c 0.552,0.157 1,0.732 1,1.285 l 0,8 C 1,-0.162 0.552,0.157 0,0" id="path48" style="fill:#f5f8fa;fill-opacity:1;fill-rule:nonzero;stroke:none"/></g><g transform="translate(11,20.2451)" id="g50"><path d="m 0,0 c 0,-0.553 -0.448,-0.872 -1,-0.715 l -5,1.43 C -6.552,0.872 -7,1.447 -7,2 l 0,8 c 0,0.553 0.448,0.872 1,0.715 l 5,-1.43 C -0.448,9.128 0,8.552 0,8 L 0,0 z" id="path52" style="fill:#f5f8fa;fill-opacity:1;fill-rule:nonzero;stroke:none"/></g></g></g></g></svg>
