<svg xmlns="http://www.w3.org/2000/svg" viewBox="0 0 47.5 47.5" enable-background="new 0 0 47.5 47.5"><defs><clipPath id="a"><path d="M0 38h38V0H0v38z"/></clipPath></defs><g><g><g clip-path="url(#a)" transform="matrix(1.25 0 0 -1.25 0 47.5)"><g><path fill="#d99e82" d="M12 20c1-3 .2-5-2-5s-5 2.02-6 4c-1 2 .9 4.3 3 5 3 1 4.37-2.1 5-4"/></g><g><path fill="#c1694f" d="M10 24c0 1-3 2-6-1s1.02-5 1.02-5S9 15 8 18s2 5 2 6"/></g><g><path fill="#99aab5" d="M31 21c0-.55.9-1 2-1s2 .45 2 1-.9 1-2 1-2-.45-2-1"/></g><g><path fill="#ccd6dd" d="M34 16c-.55 0-1 .45-1 1v16c0 1.58-1.96 2-3 2s-3-.42-3-2c0-.55-.45-1-1-1s-1 .45-1 1c0 2.63 2.52 4 5 4s5-1.37 5-4V17c0-.55-.45-1-1-1"/></g><g><path fill="#99aab5" d="M29 31c0-1.1-1.34-1-3-1s-3-.1-3 1 1.34 2 3 2 3-.9 3-2"/></g><g><path fill="#ccd6dd" d="M30 30c0-.55-.45-1-1-1h-6c-.55 0-1 .45-1 1s.45 1 1 1h6c.55 0 1-.45 1-1"/></g><g><path fill="#99aab5" d="M15 3c0-1.1-.9-2-2-2s-2 .9-2 2 .9 2 2 2 2-.9 2-2"/></g><g><path fill="#99aab5" d="M31 3c0-1.1-.9-2-2-2s-2 .9-2 2 .9 2 2 2 2-.9 2-2"/></g><g><path fill="#ccd6dd" d="M31 3H13C8 3 3 9 2 17c-.25 1.98.8 1 3.02 1 0 0 12.98-2 25.98-2 2 0 5 1.2 5-1 0 0-1-12-5-12"/></g><g><path fill="#99aab5" d="M37 16c0-.55-.45-1-1-1L2 17c-.55 0-1 .45-1 1s.45 1 1 1l34-2c.55 0 1-.45 1-1"/></g></g></g></g></svg>