<?xml version="1.0" encoding="UTF-8" standalone="no"?>
<!-- Created with Inkscape (http://www.inkscape.org/) -->

<svg
   xmlns:svg="http://www.w3.org/2000/svg"
   xmlns="http://www.w3.org/2000/svg"
   version="1.1"
   width="47.5"
   height="47.5"
   id="svg2"
   xml:space="preserve"><defs
     id="defs6"><clipPath
       id="clipPath18"><path
         d="M 0,38 38,38 38,0 0,0 0,38 z"
         id="path20" /></clipPath></defs><g
     transform="matrix(1.25,0,0,-1.25,0,47.5)"
     id="g12"><g
       id="g14"><g
         clip-path="url(#clipPath18)"
         id="g16"><g
           transform="translate(37,5)"
           id="g22"><path
             d="m 0,0 c 0,-2.209 -1.791,-4 -4,-4 l -28,0 c -2.209,0 -4,1.791 -4,4 l 0,28 c 0,2.209 1.791,4 4,4 l 28,0 c 2.209,0 4,-1.791 4,-4 L 0,0 z"
             id="path24"
             style="fill:#226699;fill-opacity:1;fill-rule:nonzero;stroke:none" /></g><g
           transform="translate(30,29)"
           id="g26"><path
             d="m 0,0 -2,0 0,-18 2,0 c 1.104,0 2,0.896 2,2 L 2,-2 C 2,-0.896 1.104,0 0,0"
             id="path28"
             style="fill:#f5f8fa;fill-opacity:1;fill-rule:nonzero;stroke:none" /></g><g
           transform="translate(8,29)"
           id="g30"><path
             d="m 0,0 c -1.104,0 -2,-0.896 -2,-2 l 0,-14 c 0,-1.104 0.896,-2 2,-2 l 2,0 0,18 -2,0 z"
             id="path32"
             style="fill:#f5f8fa;fill-opacity:1;fill-rule:nonzero;stroke:none" /></g><g
           transform="translate(16,31)"
           id="g34"><path
             d="M 0,0 C 0,0.552 0.448,1 1,1 L 5,1 C 5.553,1 6,0.552 6,0 L 6,-2 0,-2 0,0 z M 8,-2 8,1 C 8,2.104 7.104,3 6,3 L 0,3 C -1.104,3 -2,2.104 -2,1 l 0,-3 -2,0 0,-18 14,0 0,18 -2,0 z"
             id="path36"
             style="fill:#f5f8fa;fill-opacity:1;fill-rule:nonzero;stroke:none" /></g><g
           transform="translate(34,9)"
           id="g38"><path
             d="m 0,0 -30,0 c -0.552,0 -1,-0.447 -1,-1 0,-0.553 0.448,-1 1,-1 l 1,0 c 0,-1.104 0.896,-2 2,-2 1.104,0 2,0.896 2,2 l 2,0 c 0,-1.104 0.896,-2 2,-2 1.104,0 2,0.896 2,2 l 2,0 c 0,-1.104 0.896,-2 2,-2 1.104,0 2,0.896 2,2 l 2,0 c 0,-1.104 0.896,-2 2,-2 1.104,0 2,0.896 2,2 l 2,0 c 0,-1.104 0.896,-2 2,-2 1.104,0 2,0.896 2,2 l 1,0 c 0.553,0 1,0.447 1,1 0,0.553 -0.447,1 -1,1"
             id="path40"
             style="fill:#f5f8fa;fill-opacity:1;fill-rule:nonzero;stroke:none" /></g></g></g></g></svg>