<?xml version="1.0" encoding="UTF-8" standalone="no"?><svg xmlns:svg="http://www.w3.org/2000/svg" xmlns="http://www.w3.org/2000/svg" version="1.1" viewBox="0 0 47.5 47.5" style="enable-background:new 0 0 47.5 47.5;" id="svg2" xml:space="preserve"><defs id="defs6"><clipPath id="clipPath18"><path d="M 0,38 38,38 38,0 0,0 0,38 z" id="path20"/></clipPath></defs><g transform="matrix(1.25,0,0,-1.25,0,47.5)" id="g12"><g id="g14"><g clip-path="url(#clipPath18)" id="g16"><g transform="translate(12,20)" id="g22"><path d="m 0,0 c 1,-3 0.209,-5 -2,-5 -2.209,0 -5.012,2.024 -6,4 -1,2 0.904,4.301 3,5 3,1 4.368,-2.103 5,-4" id="path24" style="fill:#d99e82;fill-opacity:1;fill-rule:nonzero;stroke:none"/></g><g transform="translate(10,24.0005)" id="g26"><path d="m 0,0 c 0,1 -3,2 -6,-1 -3,-3 1.021,-5 1.021,-5 0,0 3.979,-3 2.979,0 -1,3 2,5 2,6" id="path28" style="fill:#c1694f;fill-opacity:1;fill-rule:nonzero;stroke:none"/></g><g transform="translate(31,21)" id="g30"><path d="M 0,0 C 0,-0.552 0.896,-1 2,-1 3.104,-1 4,-0.552 4,0 4,0.552 3.104,1 2,1 0.896,1 0,0.552 0,0" id="path32" style="fill:#99aab5;fill-opacity:1;fill-rule:nonzero;stroke:none"/></g><g transform="translate(34,16)" id="g34"><path d="m 0,0 c -0.553,0 -1,0.447 -1,1 l 0,16 c 0,1.582 -1.962,2 -3,2 -1.038,0 -3,-0.418 -3,-2 0,-0.552 -0.447,-1 -1,-1 -0.553,0 -1,0.448 -1,1 0,2.626 2.516,4 5,4 2.484,0 5,-1.374 5,-4 L 1,1 C 1,0.447 0.553,0 0,0" id="path36" style="fill:#ccd6dd;fill-opacity:1;fill-rule:nonzero;stroke:none"/></g><g transform="translate(29,31)" id="g38"><path d="m 0,0 c 0,-1.104 -1.343,-1 -3,-1 -1.657,0 -3,-0.104 -3,1 0,1.104 1.343,2 3,2 1.657,0 3,-0.896 3,-2" id="path40" style="fill:#99aab5;fill-opacity:1;fill-rule:nonzero;stroke:none"/></g><g transform="translate(30,30)" id="g42"><path d="m 0,0 c 0,-0.552 -0.447,-1 -1,-1 l -6,0 c -0.553,0 -1,0.448 -1,1 0,0.552 0.447,1 1,1 l 6,0 C -0.447,1 0,0.552 0,0" id="path44" style="fill:#ccd6dd;fill-opacity:1;fill-rule:nonzero;stroke:none"/></g><g transform="translate(15,3)" id="g46"><path d="m 0,0 c 0,-1.104 -0.896,-2 -2,-2 -1.104,0 -2,0.896 -2,2 0,1.104 0.896,2 2,2 1.104,0 2,-0.896 2,-2" id="path48" style="fill:#99aab5;fill-opacity:1;fill-rule:nonzero;stroke:none"/></g><g transform="translate(31,3)" id="g50"><path d="m 0,0 c 0,-1.104 -0.896,-2 -2,-2 -1.104,0 -2,0.896 -2,2 0,1.104 0.896,2 2,2 1.104,0 2,-0.896 2,-2" id="path52" style="fill:#99aab5;fill-opacity:1;fill-rule:nonzero;stroke:none"/></g><g transform="translate(31,3)" id="g54"><path d="m 0,0 -18,0 c -5,0 -10,6 -11,14 -0.248,1.984 0.812,1 3.021,1 0,0 12.979,-2 25.979,-2 2,0 5,1.209 5,-1 C 5,12 4,0 0,0" id="path56" style="fill:#ccd6dd;fill-opacity:1;fill-rule:nonzero;stroke:none"/></g><g transform="translate(37,16)" id="g58"><path d="m 0,0 c 0,-0.553 -0.447,-1 -1,-1 l -34,2 c -0.552,0 -1,0.447 -1,1 0,0.553 0.448,1 1,1 L -1,1 C -0.447,1 0,0.553 0,0" id="path60" style="fill:#99aab5;fill-opacity:1;fill-rule:nonzero;stroke:none"/></g></g></g></g></svg>
