<svg xmlns="http://www.w3.org/2000/svg" viewBox="0 0 47.5 47.5" enable-background="new 0 0 47.5 47.5"><defs><clipPath id="a"><path d="M0 38h38V0H0v38z"/></clipPath></defs><g><g><g clip-path="url(#a)" transform="matrix(1.25 0 0 -1.25 0 47.5)"><g><path fill="#269" d="M37 5c0-2.2-1.8-4-4-4H5C2.8 1 1 2.8 1 5v28c0 2.2 1.8 4 4 4h28c2.2 0 4-1.8 4-4V5z"/></g><g><path fill="#f5f8fa" d="M33.83 28c0-3.3-2.7-6-6-6s-6 2.7-6 6h12z"/></g><g><path fill="#f5f8fa" d="M33.83 34h-12c-.55 0-1-.45-1-1 0-.18.05-.57.13-1-.04 0-.1 0-.13 0-1.1 0-2-.45-2-1s.9-1 2-1c.37 0 .68 0 .97 0 0 0 .02 0 .03 0h12c.55 0 1 2.45 1 3 0 .55-.45 1-1 1"/></g><g><path fill="#f5f8fa" d="M33.65 18.82L21.83 7c0-1.1.9-2 2-2h8c1.1 0 2 .9 2 2v11c0 .3-.07.57-.18.82"/></g><g><path fill="#f5f8fa" d="M30.83 20h-7c-.06 0-.1 0-.17-.02-1.32.07-2.8-.1-3.25-.57l-5.8-6c-.8-.77-.8-2.03 0-2.8.77-.8 2.03-.8 2.8 0l4.43 4.53V11l9 9z"/></g><g><path fill="#f5f8fa" d="M16 9H7v9c0 1.1-.9 2-2 2s-2-.9-2-2V9c0-1.1.9-2 2-2 0-1.1.9-2 2-2h9c1.1 0 2 .9 2 2s-.9 2-2 2"/></g></g></g></g></svg>