<svg xmlns="http://www.w3.org/2000/svg" viewBox="0 0 47.5 47.5" enable-background="new 0 0 47.5 47.5"><defs><clipPath id="a"><path d="M0 38h38V0H0v38z"/></clipPath></defs><g><g><g clip-path="url(#a)" transform="matrix(1.25 0 0 -1.25 0 47.5)"><g><path fill="#269" d="M37 5c0-2.2-1.8-4-4-4H5C2.8 1 1 2.8 1 5v28c0 2.2 1.8 4 4 4h28c2.2 0 4-1.8 4-4V5z"/></g><g><path fill="#f5f8fa" d="M32 26c0-3.3-2.7-6-6-6s-6 2.7-6 6h12z"/></g><g><path fill="#f5f8fa" d="M32 32H20c-.55 0-1-.45-1-1 0-.18.05-.57.13-1-.04 0-.08 0-.13 0-1.1 0-2-.45-2-1s.9-1 2-1c.37 0 .68 0 .97 0 0 0 .02 0 .03 0h12c.55 0 1 2.45 1 3 0 .55-.45 1-1 1"/></g><g><path fill="#f5f8fa" d="M16 11c-5 0-7.56 3.73-7.66 3.9-.62.9-.37 2.15.55 2.76.9.62 2.15.37 2.76-.55.05-.06 1.5-2.1 4.34-2.1 2.85 0 4.32 2.1 4.34 2.1.6.93 1.85 1.18 2.77.56.93-.6 1.18-1.85.56-2.77C23.56 14.72 21 11 16 11"/></g><g><path fill="#f5f8fa" d="M29 18h-7c-1.1 0-2-.9-2-2V9l9 9z"/></g><g><path fill="#f5f8fa" d="M31.82 16.82L20 5c0-1.1.9-2 2-2h8c1.1 0 2 .9 2 2v11c0 .3-.07.57-.18.82"/></g><g><path fill="#f5f8fa" d="M13 33.96l-6-1.43c-.15-.04-.3-.13-.43-.22L12 31.05c.55-.16 1-.73 1-1.28v-5.8c.55.16 1 .73 1 1.3v8c0 .54-.45.86-1 .7"/></g><g><path fill="#f5f8fa" d="M11 20.25c0-.56-.45-.88-1-.72l-5 1.43c-.55.16-1 .73-1 1.3v8c0 .54.45.86 1 .7l5-1.43c.55-.16 1-.73 1-1.28v-8z"/></g></g></g></g></svg>