<svg xmlns="http://www.w3.org/2000/svg" viewBox="0 0 47.5 47.5" enable-background="new 0 0 47.5 47.5"><defs><clipPath id="a"><path d="M0 38h38V0H0v38z"/></clipPath></defs><g><g><g clip-path="url(#a)" transform="matrix(1.25 0 0 -1.25 0 47.5)"><g><path d="M6.2 24.33H3.38c-1.24 0-1.76.9-1.76 1.8s.66 1.78 1.77 1.78h9.57c1.12 0 1.77-.87 1.77-1.78 0-.88-.5-1.8-1.76-1.8H10.1V11.28c0-1.3-.82-2.02-1.94-2.02s-1.95.72-1.95 2.02v13.06z"/></g><g><path d="M17.47 26.07c.15.93 1.17 2 2.54 2 1.3 0 2.33-.94 2.6-1.87l3.08-10.3h.05l3.07 10.3c.3.93 1.3 1.87 2.6 1.87 1.38 0 2.4-1.07 2.55-2l2.42-14.5c.02-.17.02-.32.02-.45 0-1.15-.84-1.87-1.88-1.87-1.32 0-1.84.6-2.03 1.82l-1.54 10.58h-.05l-3.1-10.9c-.2-.62-.7-1.5-2.1-1.5-1.4 0-1.9.88-2.07 1.5l-3.12 10.9h-.04l-1.54-10.58c-.18-1.23-.7-1.82-2.03-1.82-1.05 0-1.88.72-1.88 1.87 0 .13 0 .28.03.44l2.42 14.5z"/></g></g></g></g></svg>