<svg xmlns="http://www.w3.org/2000/svg" viewBox="0 0 47.5 47.5" enable-background="new 0 0 47.5 47.5"><defs><clipPath id="a"><path d="M0 38h38V0H0v38z"/></clipPath></defs><g><g><g clip-path="url(#a)" transform="matrix(1.25 0 0 -1.25 0 47.5)"><g><path fill="#3b88c3" d="M37 5c0-2.2-1.8-4-4-4H5C2.8 1 1 2.8 1 5v28c0 2.2 1.8 4 4 4h28c2.2 0 4-1.8 4-4V5z"/></g><g><path fill="#fff" d="M19 32h-8v-4h8c3.87 0 7-3.14 7-7 0-3.87-3.13-7-7-7h-4v4l-7.2-6L15 6v4h4c6.07 0 11 4.93 11 11 0 6.08-4.93 11-11 11"/></g></g></g></g></svg>