<svg xmlns="http://www.w3.org/2000/svg" viewBox="0 0 47.5 47.5" enable-background="new 0 0 47.5 47.5"><defs><clipPath id="a"><path d="M0 38h38V0H0v38z"/></clipPath></defs><g><g><g clip-path="url(#a)" transform="matrix(1.25 0 0 -1.25 0 47.5)"><g><path fill="#3b88c3" d="M37 5c0-2.2-1.8-4-4-4H5C2.8 1 1 2.8 1 5v28c0 2.2 1.8 4 4 4h28c2.2 0 4-1.8 4-4V5z"/></g><g><path fill="#fff" d="M17.3 17.27h2.94l.5 3.54H17.8l-.5-3.53zm-2.5 3.54H12.1c-1.02 0-1.5.75-1.5 1.5 0 .74.48 1.48 1.5 1.48h3.1l.68 5c.16 1.1.62 1.48 1.55 1.48.75 0 1.43-.5 1.43-1.24 0-.46 0-.25-.06-.74l-.62-4.5h2.97l.68 5c.16 1.1.62 1.48 1.55 1.48.75 0 1.43-.5 1.43-1.24 0-.46 0-.25-.06-.74l-.62-4.5h2.67c1.02 0 1.48-.74 1.48-1.5 0-.73-.46-1.47-1.48-1.47h-3.1l-.5-3.53h2.66c1.03 0 1.5-.74 1.5-1.5 0-.73-.47-1.48-1.5-1.48h-3.1l-.68-5c-.15-1.1-.62-1.5-1.55-1.5-.74 0-1.42.5-1.42 1.25 0 .47 0 .25.06.75l.6 4.5h-2.97l-.68-5c-.16-1.1-.62-1.5-1.55-1.5-.74 0-1.43.5-1.43 1.25 0 .47 0 .25.06.75l.63 4.5H11.2c-1.03 0-1.5.74-1.5 1.48 0 .75.47 1.5 1.5 1.5h3.1l.5 3.53z"/></g></g></g></g></svg>