<?xml version="1.0" encoding="UTF-8" standalone="no"?>
<!-- Created with Inkscape (http://www.inkscape.org/) -->

<svg
   xmlns:svg="http://www.w3.org/2000/svg"
   xmlns="http://www.w3.org/2000/svg"
   version="1.1"
   width="47.5"
   height="47.5"
   id="svg2"
   xml:space="preserve"><defs
     id="defs6"><clipPath
       id="clipPath18"><path
         d="M 0,38 38,38 38,0 0,0 0,38 z"
         id="path20" /></clipPath></defs><g
     transform="matrix(1.25,0,0,-1.25,0,47.5)"
     id="g12"><g
       id="g14"><g
         clip-path="url(#clipPath18)"
         id="g16"><g
           transform="translate(37,5)"
           id="g22"><path
             d="m 0,0 c 0,-2.209 -1.791,-4 -4,-4 l -28,0 c -2.209,0 -4,1.791 -4,4 l 0,28 c 0,2.209 1.791,4 4,4 l 28,0 c 2.209,0 4,-1.791 4,-4 L 0,0 z"
             id="path24"
             style="fill:#3b88c3;fill-opacity:1;fill-rule:nonzero;stroke:none" /></g><g
           transform="translate(17.2964,17.2705)"
           id="g26"><path
             d="m 0,0 2.946,0 0.496,3.535 -2.946,0 L 0,0 z m -2.511,3.535 -2.667,0 c -1.023,0 -1.488,0.744 -1.488,1.488 0,0.745 0.465,1.489 1.488,1.489 l 3.101,0 0.682,4.991 c 0.155,1.117 0.62,1.489 1.55,1.489 0.744,0 1.427,-0.496 1.427,-1.241 0,-0.465 0,-0.248 -0.062,-0.744 l -0.621,-4.495 2.976,0 0.683,4.991 c 0.155,1.117 0.62,1.489 1.55,1.489 0.744,0 1.427,-0.496 1.427,-1.241 0,-0.465 0,-0.248 -0.062,-0.744 l -0.621,-4.495 2.667,0 c 1.023,0 1.487,-0.744 1.487,-1.489 0,-0.744 -0.464,-1.488 -1.487,-1.488 l -3.101,0 L 5.922,0 8.588,0 c 1.024,0 1.489,-0.744 1.489,-1.488 0,-0.744 -0.465,-1.489 -1.489,-1.489 l -3.099,0 -0.683,-4.991 c -0.155,-1.117 -0.62,-1.488 -1.55,-1.488 -0.744,0 -1.426,0.496 -1.426,1.24 0,0.465 0,0.248 0.062,0.744 l 0.62,4.495 -2.977,0 -0.682,-4.991 c -0.155,-1.117 -0.62,-1.488 -1.55,-1.488 -0.744,0 -1.427,0.496 -1.427,1.24 0,0.465 0,0.248 0.062,0.744 l 0.621,4.495 -2.667,0 c -1.023,0 -1.488,0.745 -1.488,1.489 0,0.744 0.465,1.488 1.488,1.488 l 3.101,0 0.496,3.535 z"
             id="path28"
             style="fill:#ffffff;fill-opacity:1;fill-rule:nonzero;stroke:none" /></g></g></g></g></svg>