<?xml version="1.0" encoding="UTF-8" standalone="no"?><svg xmlns:dc="http://purl.org/dc/elements/1.1/" xmlns:cc="http://creativecommons.org/ns#" xmlns:rdf="http://www.w3.org/1999/02/22-rdf-syntax-ns#" xmlns:svg="http://www.w3.org/2000/svg" xmlns="http://www.w3.org/2000/svg" viewBox="0 0 47.5 47.5" style="enable-background:new 0 0 47.5 47.5;" xml:space="preserve" version="1.1" id="svg2"><metadata id="metadata8"><rdf:RDF><cc:Work rdf:about=""><dc:format>image/svg+xml</dc:format><dc:type rdf:resource="http://purl.org/dc/dcmitype/StillImage"/></cc:Work></rdf:RDF></metadata><defs id="defs6"><clipPath id="clipPath16" clipPathUnits="userSpaceOnUse"><path id="path18" d="M 0,38 38,38 38,0 0,0 0,38 Z"/></clipPath></defs><g transform="matrix(1.25,0,0,-1.25,0,47.5)" id="g10"><g id="g12"><g clip-path="url(#clipPath16)" id="g14"><g transform="translate(26,5)" id="g20"><path id="path22" style="fill:#414042;fill-opacity:1;fill-rule:nonzero;stroke:none" d="m 0,0 c 0,-2.209 -1.791,-4 -4,-4 l -6,0 c -2.209,0 -4,1.791 -4,4 l 0,28 c 0,2.209 1.791,4 4,4 l 6,0 c 2.209,0 4,-1.791 4,-4 L 0,0 Z"/></g><g transform="translate(33,19)" id="g24"><path id="path26" style="fill:#939598;fill-opacity:1;fill-rule:nonzero;stroke:none" d="m 0,0 c 0,1.104 -0.896,2 -2,2 l -1,0 c -1.104,0 -2,-0.896 -2,-2 0,-1.104 0.896,-2 2,-2 l 1,0 c 1.104,0 2,0.896 2,2"/></g><g transform="translate(7.0005,19)" id="g28"><path id="path30" style="fill:#d1d3d4;fill-opacity:1;fill-rule:nonzero;stroke:none" d="M 0,0 C 0,6.627 5.373,12 12,12 18.627,12 24,6.627 24,0 24,-6.627 18.627,-12 12,-12 5.373,-12 0,-6.627 0,0"/></g><g transform="translate(11.0005,19)" id="g32"><path id="path34" style="fill:#f1f2f2;fill-opacity:1;fill-rule:nonzero;stroke:none" d="M 0,0 C 0,4.418 3.582,8 8,8 12.418,8 16,4.418 16,0 16,-4.418 12.418,-8 8,-8 3.582,-8 0,-4.418 0,0"/></g><g transform="translate(24,15)" id="g36"><path id="path38" style="fill:#58595b;fill-opacity:1;fill-rule:nonzero;stroke:none" d="m 0,0 c -0.175,0 -0.353,0.046 -0.514,0.143 l -5,2.999 C -5.815,3.323 -6,3.648 -6,4 l 0,7 c 0,0.552 0.448,1 1,1 0.552,0 1,-0.448 1,-1 L -4,4.566 0.516,1.857 C 0.989,1.573 1.143,0.959 0.858,0.485 0.671,0.173 0.34,0 0,0"/></g></g></g></g></svg>
