<svg xmlns="http://www.w3.org/2000/svg" viewBox="0 0 47.5 47.5" enable-background="new 0 0 47.5 47.5"><defs><clipPath id="a"><path d="M0 38h38V0H0v38z"/></clipPath></defs><g><g><g clip-path="url(#a)" transform="matrix(1.25 0 0 -1.25 0 47.5)"><g><path fill="#ffe8b6" d="M22 19c0 2 3.25 3.37 5 6 2 3 2 10 2 10H9s0-7 2-10c1.75-2.63 5-4 5-6s-3.25-3.37-5-6C9 10 9 3 9 3h20s0 7-2 10c-1.75 2.63-5 4-5 6"/></g><g><path fill="#ffac33" d="M22 13c-1 0-2.06 1-2.06 2 .06 1.7.06 2.85.06 4 0 3.22 3.03 4.56 4.9 7H13.1c1.86-2.44 4.9-3.78 4.9-7 0-1.15 0-2.3.06-4 0-1-1.06-2-2.06-2-2 0-3.6-1.78-4-3-1-3-1-7-1-7h16s0 4-1 7c-.4 1.22-2 3-4 3"/></g><g><path fill="#3b88c3" d="M31 3c0-1.1-.9-2-2-2H9c-1.1 0-2 .9-2 2s.9 2 2 2h20c1.1 0 2-.9 2-2"/></g><g><path fill="#3b88c3" d="M31 35c0-1.1-.9-2-2-2H9c-1.1 0-2 .9-2 2s.9 2 2 2h20c1.1 0 2-.9 2-2"/></g></g></g></g></svg>