<svg xmlns="http://www.w3.org/2000/svg" viewBox="0 0 47.5 47.5" enable-background="new 0 0 47.5 47.5"><defs><clipPath id="a"><path d="M0 38h38V0H0v38z"/></clipPath></defs><g><g><g clip-path="url(#a)" transform="matrix(1.25 0 0 -1.25 0 47.5)"><g><path fill="#ffcc4d" d="M21 30.96c0-1.1-.9-2.02-2-2.02s-2 .9-2 2.02V35c0 1.1.9 2 2 2s2-.9 2-2v-4.04z"/></g><g><path fill="#ffac33" d="M10.18 1c-.22 0-.45.05-.67.16-.72.37-1.02 1.28-.65 2.03l8.94 18.1c.24.53.76.85 1.32.85.57 0 1.08-.32 1.33-.84L29.4 3.2c.36-.76.06-1.67-.67-2.04-.74-.37-1.63-.07-2 .68l-7.6 15.42L11.5 1.83c-.25-.52-.77-.83-1.32-.83"/></g><g><path fill="#58595b" d="M19.12 16.6c-.26 0-.5.1-.7.3L4.52 31c-.4.4-.4 1.03 0 1.43.38.4 1 .4 1.4 0l13.2-13.4 13.2 13.4c.4.4 1.02.4 1.4 0 .4-.4.4-1.03 0-1.43l-13.9-14.1c-.18-.2-.43-.3-.7-.3"/></g><g><path fill="#dd2e44" d="M35 17.62C35 8.72 27.9 1.5 19.13 1.5c-8.78 0-15.9 7.22-15.9 16.12 0 8.9 7.12 16.1 15.9 16.1 8.78 0 15.9-7.2 15.9-16.1"/></g><g><path fill="#e6e7e8" d="M31.04 17.62c0-6.68-5.33-12.1-11.92-12.1-6.58 0-11.92 5.42-11.92 12.1 0 6.67 5.34 12.08 11.92 12.08 6.6 0 11.92-5.4 11.92-12.08"/></g><g><path fill="#ffcc4d" d="M31.04 35.74c-1.65 0-3.13-.67-4.2-1.77l8.42-8.54c1.07 1.1 1.74 2.6 1.74 4.27 0 3.34-2.67 6.04-5.96 6.04"/></g><g><path fill="#ffcc4d" d="M6.96 35.74c1.65 0 3.13-.67 4.2-1.77l-8.42-8.54C1.67 26.53 1 28.03 1 29.7c0 3.34 2.67 6.04 5.96 6.04"/></g><g><path fill="#414042" d="M24 17h-5c-.55 0-1 .45-1 1v9c0 .55.45 1 1 1s1-.45 1-1v-8h4c.55 0 1-.45 1-1s-.45-1-1-1"/></g></g></g></g></svg>