<?xml version="1.0" encoding="UTF-8" standalone="no"?>
<!-- Created with Inkscape (http://www.inkscape.org/) -->

<svg
   xmlns:svg="http://www.w3.org/2000/svg"
   xmlns="http://www.w3.org/2000/svg"
   version="1.1"
   width="47.5"
   height="47.5"
   id="svg2"
   xml:space="preserve"><defs
     id="defs6"><clipPath
       id="clipPath18"><path
         d="M 0,38 38,38 38,0 0,0 0,38 z"
         id="path20" /></clipPath></defs><g
     transform="matrix(1.25,0,0,-1.25,0,47.5)"
     id="g12"><g
       id="g14"><g
         clip-path="url(#clipPath18)"
         id="g16"><g
           transform="translate(21,30.9585)"
           id="g22"><path
             d="m 0,0 c 0,-1.112 -0.903,-2.014 -2,-2.014 -1.097,0 -2,0.902 -2,2.014 l 0,4.028 c 0,1.112 0.903,2.014 2,2.014 1.097,0 2,-0.902 2,-2.014 L 0,0 z"
             id="path24"
             style="fill:#ffcc4d;fill-opacity:1;fill-rule:nonzero;stroke:none" /></g><g
           transform="translate(10.1797,1)"
           id="g26"><path
             d="M 0,0 C -0.224,0 -0.452,0.052 -0.666,0.159 -1.402,0.533 -1.7,1.439 -1.332,2.187 l 8.94,18.126 c 0.253,0.512 0.768,0.835 1.333,0.835 0.565,0 1.08,-0.323 1.332,-0.835 L 19.215,2.187 C 19.583,1.439 19.285,0.533 18.549,0.159 17.812,-0.213 16.918,0.089 16.55,0.835 L 8.941,16.26 1.333,0.835 C 1.073,0.306 0.546,0 0,0"
             id="path28"
             style="fill:#ffac33;fill-opacity:1;fill-rule:nonzero;stroke:none" /></g><g
           transform="translate(19.1211,16.6084)"
           id="g30"><path
             d="m 0,0 c -0.263,0 -0.516,0.106 -0.702,0.295 l -13.907,14.099 c -0.388,0.394 -0.388,1.031 0,1.424 0.388,0.393 1.017,0.393 1.404,0 L 0,2.432 13.203,15.818 c 0.389,0.393 1.017,0.393 1.405,0 0.388,-0.393 0.388,-1.03 0,-1.424 L 0.703,0.295 C 0.516,0.106 0.264,0 0,0"
             id="path32"
             style="fill:#58595b;fill-opacity:1;fill-rule:nonzero;stroke:none" /></g><g
           transform="translate(35.0146,17.6152)"
           id="g34"><path
             d="m 0,0 c 0,-8.898 -7.115,-16.111 -15.894,-16.111 -8.777,0 -15.893,7.213 -15.893,16.111 0,8.9 7.116,16.113 15.893,16.113 C -7.115,16.113 0,8.9 0,0"
             id="path36"
             style="fill:#dd2e44;fill-opacity:1;fill-rule:nonzero;stroke:none" /></g><g
           transform="translate(31.041,17.6152)"
           id="g38"><path
             d="m 0,0 c 0,-6.674 -5.335,-12.084 -11.92,-12.084 -6.583,0 -11.919,5.41 -11.919,12.084 0,6.675 5.336,12.085 11.919,12.085 C -5.335,12.085 0,6.675 0,0"
             id="path40"
             style="fill:#e6e7e8;fill-opacity:1;fill-rule:nonzero;stroke:none" /></g><g
           transform="translate(31.04,35.7427)"
           id="g42"><path
             d="m 0,0 c -1.646,0 -3.135,-0.676 -4.214,-1.77 l 8.429,-8.544 C 5.293,-9.221 5.96,-7.71 5.96,-6.042 5.96,-2.706 3.291,0 0,0"
             id="path44"
             style="fill:#ffcc4d;fill-opacity:1;fill-rule:nonzero;stroke:none" /></g><g
           transform="translate(6.96,35.7427)"
           id="g46"><path
             d="m 0,0 c 1.645,0 3.135,-0.676 4.214,-1.77 l -8.429,-8.544 C -5.292,-9.221 -5.96,-7.71 -5.96,-6.042 -5.96,-2.706 -3.292,0 0,0"
             id="path48"
             style="fill:#ffcc4d;fill-opacity:1;fill-rule:nonzero;stroke:none" /></g><g
           transform="translate(24,17)"
           id="g50"><path
             d="m 0,0 -5,0 c -0.552,0 -1,0.447 -1,1 l 0,9 c 0,0.552 0.448,1 1,1 0.552,0 1,-0.448 1,-1 L -4,2 0,2 C 0.553,2 1,1.552 1,1 1,0.447 0.553,0 0,0"
             id="path52"
             style="fill:#414042;fill-opacity:1;fill-rule:nonzero;stroke:none" /></g></g></g></g></svg>