<?xml version="1.0" encoding="UTF-8" standalone="no"?><svg xmlns:svg="http://www.w3.org/2000/svg" xmlns="http://www.w3.org/2000/svg" version="1.1" viewBox="0 0 47.5 47.5" style="enable-background:new 0 0 47.5 47.5;" id="svg2" xml:space="preserve"><defs id="defs6"><clipPath id="clipPath18"><path d="M 0,38 38,38 38,0 0,0 0,38 z" id="path20"/></clipPath></defs><g transform="matrix(1.25,0,0,-1.25,0,47.5)" id="g12"><g id="g14"><g clip-path="url(#clipPath18)" id="g16"><g transform="translate(22,19)" id="g22"><path d="m 0,0 0,0 c 0,2.001 3.246,3.369 5,6 2,3 2,10 2,10 l -10,0 -10,0 c 0,0 0,-7 2,-10 1.753,-2.631 5,-3.999 5,-6 l 0,0 c 0,-2.001 -3.247,-3.369 -5,-6 -2,-3 -2,-10 -2,-10 l 10,0 10,0 c 0,0 0,7 -2,10 -1.754,2.631 -5,3.999 -5,6" id="path24" style="fill:#ffe8b6;fill-opacity:1;fill-rule:nonzero;stroke:none"/></g><g transform="translate(19,35)" id="g26"><path d="m 0,0 -1,0 -7,0 c 0,0 0,-4 1,-7 1.303,-3.911 6,-4.999 6,-9 0,-4 0,-13 1,-13 1,0 1,9 1,13 0,4.001 4.697,5.089 6,9 1,3 1,7 1,7 L 0,0 z" id="path28" style="fill:#ffac33;fill-opacity:1;fill-rule:nonzero;stroke:none"/></g><g transform="translate(31,3)" id="g30"><path d="m 0,0 c 0,-1.104 -0.896,-2 -2,-2 l -20,0 c -1.104,0 -2,0.896 -2,2 0,1.104 0.896,2 2,2 L -2,2 C -0.896,2 0,1.104 0,0" id="path32" style="fill:#3b88c3;fill-opacity:1;fill-rule:nonzero;stroke:none"/></g><g transform="translate(31,35)" id="g34"><path d="m 0,0 c 0,-1.104 -0.896,-2 -2,-2 l -20,0 c -1.104,0 -2,0.896 -2,2 0,1.104 0.896,2 2,2 L -2,2 C -0.896,2 0,1.104 0,0" id="path36" style="fill:#3b88c3;fill-opacity:1;fill-rule:nonzero;stroke:none"/></g></g></g></g></svg>
