<?xml version="1.0" encoding="UTF-8" standalone="no"?><svg xmlns:dc="http://purl.org/dc/elements/1.1/" xmlns:cc="http://creativecommons.org/ns#" xmlns:rdf="http://www.w3.org/1999/02/22-rdf-syntax-ns#" xmlns:svg="http://www.w3.org/2000/svg" xmlns="http://www.w3.org/2000/svg" viewBox="0 0 47.5 47.5" style="enable-background:new 0 0 47.5 47.5;" xml:space="preserve" version="1.1" id="svg2"><metadata id="metadata8"><rdf:RDF><cc:Work rdf:about=""><dc:format>image/svg+xml</dc:format><dc:type rdf:resource="http://purl.org/dc/dcmitype/StillImage"/></cc:Work></rdf:RDF></metadata><defs id="defs6"><clipPath id="clipPath16" clipPathUnits="userSpaceOnUse"><path id="path18" d="M 0,38 38,38 38,0 0,0 0,38 Z"/></clipPath></defs><g transform="matrix(1.25,0,0,-1.25,0,47.5)" id="g10"><g id="g12"><g clip-path="url(#clipPath16)" id="g14"><g transform="translate(22,19)" id="g20"><path id="path22" style="fill:#ffe8b6;fill-opacity:1;fill-rule:nonzero;stroke:none" d="m 0,0 0,0 c 0,2.001 3.246,3.369 5,6 2,3 2,10 2,10 l -10,0 -10,0 c 0,0 0,-7 2,-10 1.753,-2.631 5,-3.999 5,-6 l 0,0 c 0,-2.001 -3.247,-3.369 -5,-6 -2,-3 -2,-10 -2,-10 l 10,0 10,0 c 0,0 0,7 -2,10 -1.754,2.631 -5,3.999 -5,6"/></g><g transform="translate(19,35)" id="g24"><path id="path26" style="fill:#ffac33;fill-opacity:1;fill-rule:nonzero;stroke:none" d="m 0,0 -1,0 -7,0 c 0,0 0,-4 1,-7 1.303,-3.911 6,-4.999 6,-9 0,-4 0,-13 1,-13 1,0 1,9 1,13 0,4.001 4.697,5.089 6,9 1,3 1,7 1,7 L 0,0 Z"/></g><g transform="translate(31,3)" id="g28"><path id="path30" style="fill:#3b88c3;fill-opacity:1;fill-rule:nonzero;stroke:none" d="m 0,0 c 0,-1.104 -0.896,-2 -2,-2 l -20,0 c -1.104,0 -2,0.896 -2,2 0,1.104 0.896,2 2,2 L -2,2 C -0.896,2 0,1.104 0,0"/></g><g transform="translate(31,35)" id="g32"><path id="path34" style="fill:#3b88c3;fill-opacity:1;fill-rule:nonzero;stroke:none" d="m 0,0 c 0,-1.104 -0.896,-2 -2,-2 l -20,0 c -1.104,0 -2,0.896 -2,2 0,1.104 0.896,2 2,2 L -2,2 C -0.896,2 0,1.104 0,0"/></g></g></g></g></svg>
