<svg xmlns="http://www.w3.org/2000/svg" viewBox="0 0 47.5 47.5" enable-background="new 0 0 47.5 47.5"><defs><clipPath id="a"><path d="M0 38h38V0H0v38z"/></clipPath></defs><g><g><g clip-path="url(#a)" transform="matrix(1.25 0 0 -1.25 0 47.5)"><g><path fill="#ffac33" d="M17 35s0 2 2 2 2-2 2-2v-2s0-2-2-2-2 2-2 2v2z"/></g><g><path fill="#ffac33" d="M35 21s2 0 2-2-2-2-2-2h-2s-2 0-2 2 2 2 2 2h2z"/></g><g><path fill="#ffac33" d="M5 21s2 0 2-2-2-2-2-2H3s-2 0-2 2 2 2 2 2h2z"/></g><g><path fill="#ffac33" d="M10.12 29.7s1.42-1.4 0-2.82c-1.4-1.42-2.83 0-2.83 0l-1.42 1.4s-1.42 1.43 0 2.84c1.4 1.42 2.83 0 2.83 0l1.42-1.4z"/></g><g><path fill="#ffac33" d="M31.12 8.7s1.42-1.4 0-2.82c-1.4-1.4-2.83 0-2.83 0l-1.42 1.4s-1.4 1.43 0 2.84c1.4 1.42 2.83 0 2.83 0l1.42-1.4z"/></g><g><path fill="#ffac33" d="M30.7 26.88s-1.4-1.42-2.82 0c-1.4 1.4 0 2.83 0 2.83l1.4 1.42s1.43 1.4 2.84 0c1.42-1.4 0-2.83 0-2.83l-1.4-1.42z"/></g><g><path fill="#ffac33" d="M9.7 5.88s-1.4-1.42-2.82 0c-1.4 1.4 0 2.83 0 2.83l1.4 1.42s1.43 1.4 2.84 0c1.42-1.4 0-2.83 0-2.83l-1.4-1.42z"/></g><g><path fill="#ffac33" d="M17 5s0 2 2 2 2-2 2-2V3s0-2-2-2-2 2-2 2v2z"/></g><g><path fill="#ffac33" d="M29 19c0 5.52-4.48 10-10 10S9 24.52 9 19 13.48 9 19 9s10 4.48 10 10"/></g></g></g></g></svg>