<svg xmlns="http://www.w3.org/2000/svg" viewBox="0 0 47.5 47.5" enable-background="new 0 0 47.5 47.5"><defs><clipPath id="a"><path d="M0 38h38V0H0v38z"/></clipPath></defs><g><g><g clip-path="url(#a)" transform="matrix(1.25 0 0 -1.25 0 47.5)"><g><path fill="#b4c3cc" d="M28 29c-.7 0-1.38-.1-2.02-.3 0 .1.02.2.02.3 0 3.3-2.7 6-6 6-2.77 0-5.1-1.88-5.8-4.43-.67.28-1.42.43-2.2.43-3.3 0-6-2.7-6-6s2.7-6 6-6c2.77 0 5.1 1.88 5.8 4.43.67-.27 1.42-.43 2.2-.43.38 0 .74.04 1.1.1-.06-.36-.1-.72-.1-1.1 0-3.87 3.13-7 7-7s7 3.13 7 7-3.13 7-7 7"/></g><g><path fill="#8899a6" d="M32 15c-.47 0-.9-.1-1.34-.2.22.52.34 1.1.34 1.7 0 2.48-2.02 4.5-4.5 4.5-1.02 0-1.95-.35-2.7-.92-.7 2.82-3.26 4.92-6.3 4.92-2.84 0-5.25-1.82-6.13-4.36-.75.24-1.54.36-2.37.36-4.42 0-8-3.58-8-8s3.58-8 8-8h23c2.76 0 5 2.24 5 5s-2.24 5-5 5"/></g></g></g></g></svg>