<svg xmlns="http://www.w3.org/2000/svg" viewBox="0 0 47.5 47.5" enable-background="new 0 0 47.5 47.5"><defs><clipPath id="a"><path d="M0 38h38V0H0v38z"/></clipPath></defs><g><g><g clip-path="url(#a)" transform="matrix(1.25 0 0 -1.25 0 47.5)"><g><path fill="#be1931" d="M37 25.5c0 3.04-3 7.5-18 7.5S1 28.54 1 25.5c0-.04.02-.08.02-.12 0-.2-.02-.4-.02-.63C1 22.13 3.24 21 6 21s5 1.13 5 3.75c0 .22-.02.4-.05.6 2.42.35 5.15.65 8.05.65 2.9 0 5.63-.3 8.05-.65-.03-.2-.05-.38-.05-.6 0-2.62 2.24-3.75 5-3.75s5 1.13 5 3.75c0 .23 0 .43-.02.62 0 .05.02.08.02.13"/></g><g><path fill="#dd2e44" d="M35.93 14c-.48 1.03-2.3 4.2-3.96 7C30.4 23.66 28 26 26 26v2c0 1.1-.9 2-2 2s-2-.9-2-2v-2h-6v2c0 1.1-.9 2-2 2s-2-.9-2-2v-2c-2 0-4.4-2.35-5.97-5-1.66-2.81-3.48-5.97-3.96-7C1.5 12.76 1 12 1 10s1.8-5 4-5h28c2.2 0 4 3 4 5s-.45 2.68-1.07 4"/></g><g><path fill="#fff" d="M21.05 22.18c0-.45-.92-.82-2.05-.82s-2.05.37-2.05.82c0 .45.92.82 2.05.82s2.05-.37 2.05-.82"/></g><g><path fill="#fff" d="M16.14 22.18c0-.45-.92-.82-2.05-.82-1.14 0-2.05.37-2.05.82 0 .45.9.82 2.04.82 1.12 0 2.04-.37 2.04-.82"/></g><g><path fill="#fff" d="M25.95 22.18c0-.45-.9-.82-2.04-.82-1.12 0-2.04.37-2.04.82 0 .45.92.82 2.05.82 1.14 0 2.05-.37 2.05-.82"/></g><g><path fill="#fff" d="M21.45 19.32c0-.68-1.1-1.23-2.45-1.23-1.36 0-2.45.54-2.45 1.22 0 .68 1.1 1.23 2.45 1.23 1.36 0 2.45-.55 2.45-1.23"/></g><g><path fill="#fff" d="M27.18 19.32c0-.68-1.1-1.23-2.45-1.23-1.36 0-2.46.54-2.46 1.22 0 .68 1.1 1.23 2.46 1.23 1.35 0 2.45-.55 2.45-1.23"/></g><g><path fill="#fff" d="M15.73 19.32c0-.68-1.1-1.23-2.46-1.23-1.35 0-2.45.54-2.45 1.22 0 .68 1.1 1.23 2.45 1.23 1.36 0 2.46-.55 2.46-1.23"/></g><g><path fill="#fff" d="M22.27 15.64c0-.9-1.46-1.64-3.27-1.64-1.8 0-3.27.73-3.27 1.64 0 .9 1.46 1.63 3.27 1.63 1.8 0 3.27-.73 3.27-1.63"/></g><g><path fill="#fff" d="M29.64 15.64c0-.9-1.47-1.64-3.28-1.64-1.8 0-3.27.73-3.27 1.64 0 .9 1.46 1.63 3.26 1.63 1.8 0 3.28-.73 3.28-1.63"/></g><g><path fill="#fff" d="M14.9 15.64c0-.9-1.46-1.64-3.26-1.64-1.8 0-3.28.73-3.28 1.64 0 .9 1.47 1.63 3.28 1.63 1.8 0 3.27-.73 3.27-1.63"/></g></g></g></g></svg>