<svg xmlns="http://www.w3.org/2000/svg" viewBox="0 0 47.5 47.5" enable-background="new 0 0 47.5 47.5"><defs><clipPath id="a"><path d="M0 38h38V0H0v38z"/></clipPath></defs><g><g><g clip-path="url(#a)" transform="matrix(1.25 0 0 -1.25 0 47.5)"><g><path fill="#66757f" d="M28 8.5c0 .83-.67 1.5-1.5 1.5S25 9.33 25 8.5V8s0-3-3-3-3 3-3 3v25.5c0 .83-.67 1.5-1.5 1.5s-1.5-.67-1.5-1.5V8s0-6 6-6 6 6 6 6v.5z"/></g><g><path fill="#744eaa" d="M17.5 33C8.4 33 1 27.18 1 20c0 0 0-2 1-2s3 2 3 2h25s2-2 3-2 1 2 1 2c0 7.18-7.4 13-16.5 13"/></g><g><path fill="#9266cc" d="M17.5 33C10.6 33 5 27.18 5 20c0 0 0-2 2-2s5 2 5 2h11s3-2 5-2 2 2 2 2c0 7.18-5.6 13-12.5 13"/></g><g><path fill="#744eaa" d="M17.5 33c-3.6 0-5.5-5.82-5.5-13 0 0 3-2 5-2h1c2 0 5 2 5 2 0 7.18-1.9 13-5.5 13"/></g><g><path fill="#5dadec" d="M6.62 32.53L3.94 36.9l-2.48-4.34c-.58-.92-.63-2.12-.03-3.12.87-1.4 2.73-1.86 4.16-1 1.42.84 1.88 2.68 1.02 4.1"/></g><g><path fill="#5dadec" d="M14.62 29.53l-2.68 4.38-2.48-4.34c-.58-.92-.63-2.12-.03-3.12.87-1.4 2.73-1.86 4.16-1 1.42.84 1.88 2.68 1.02 4.1"/></g><g><path fill="#5dadec" d="M26.56 32.53L23.9 36.9l-2.5-4.34c-.58-.92-.63-2.12-.02-3.12.87-1.4 2.73-1.86 4.16-1 1.43.84 1.9 2.68 1.02 4.1"/></g><g><path fill="#5dadec" d="M36.56 26.62L33.9 31l-2.5-4.35c-.58-.92-.63-2.12-.02-3.12.87-1.4 2.73-1.86 4.16-1 1.43.84 1.9 2.68 1.02 4.1"/></g></g></g></g></svg>