<svg xmlns="http://www.w3.org/2000/svg" viewBox="0 0 47.5 47.5" enable-background="new 0 0 47.5 47.5"><defs><clipPath id="a"><path d="M0 38h38V0H0v38z"/></clipPath><clipPath id="b"><path d="M0 38h38V0H0v38z"/></clipPath></defs><g><g><g clip-path="url(#a)" transform="matrix(1.25 0 0 -1.25 0 47.5)"><g><path fill="#99aab5" d="M37 11c0-5.52-8.06-10-18-10S1 5.48 1 11s8.06 10 18 10 18-4.48 18-10"/></g><g><path fill="#ccd6dd" d="M37 13c0-5.52-8.06-10-18-10S1 7.48 1 13s8.06 10 18 10 18-4.48 18-10"/></g><g><path fill="#f5f8fa" d="M19 6C4.04 6 2 21 2 25h34c0-2-1.96-19-17-19"/></g><g><path fill="#ccd6dd" d="M32.88 30.05c-1.36.94-3.1 1.7-5.12 2.25 1.88.57 4.55.3 5.12-2.25m2.5-2.7c2.45 10.13-9.78 7.7-12.2 5.8-1.34.15-2.74.24-4.18.24-9.4 0-17-3.24-17-8.46 0-5.2 7.6-9.44 17-9.44s17 4.23 17 9.44c0 .87-.23 1.67-.62 2.42"/></g></g></g><g><g clip-path="url(#b)" transform="matrix(1.25 0 0 -1.25 0 47.5)"><g><path fill="#8a4b38" d="M34 24c0-3.87-6.72-7-15-7-8.28 0-15 3.13-15 7s6.72 7 15 7c8.28 0 15-3.13 15-7"/></g><g><path fill="#d99e82" d="M21 20c-.26 0-.5.1-.7.3-2.34 2.33-2.38 4.88-.13 8.25.74 1.1.9 2.25.48 3.38-.46 1.24-1.44 2-1.73 2.08-.56 0-.96.45-.96 1 0 .56.5 1 1.04 1 1 0 2.4-1.15 3.18-2.63 1.04-1.93.9-4.03-.35-5.92-1.96-2.95-1.53-4.34-.12-5.74.4-.38.4-1.02 0-1.4-.2-.2-.44-.3-.7-.3"/></g><g><path fill="#d99e82" d="M15 22c-.26 0-.5.1-.7.3-2.34 2.33-2.38 4.88-.13 8.25.72 1.1.9 2.1.5 2.95-.45.96-1.44 1.47-1.7 1.5-.54 0-.98.45-.98 1s.45 1 1 1c1 0 2.58-.97 3.36-2.42.48-.9 1.05-2.76-.53-5.13-1.96-2.95-1.53-4.34-.12-5.74.4-.38.4-1.02 0-1.4-.2-.2-.44-.3-.7-.3"/></g></g></g></g></svg>