<?xml version="1.0" encoding="UTF-8" standalone="no"?><svg xmlns:dc="http://purl.org/dc/elements/1.1/" xmlns:cc="http://creativecommons.org/ns#" xmlns:rdf="http://www.w3.org/1999/02/22-rdf-syntax-ns#" xmlns:svg="http://www.w3.org/2000/svg" xmlns="http://www.w3.org/2000/svg" viewBox="0 0 47.5 47.5" style="enable-background:new 0 0 47.5 47.5;" xml:space="preserve" version="1.1" id="svg2"><metadata id="metadata8"><rdf:RDF><cc:Work rdf:about=""><dc:format>image/svg+xml</dc:format><dc:type rdf:resource="http://purl.org/dc/dcmitype/StillImage"/></cc:Work></rdf:RDF></metadata><defs id="defs6"><clipPath id="clipPath16" clipPathUnits="userSpaceOnUse"><path id="path18" d="M 0,38 38,38 38,0 0,0 0,38 Z"/></clipPath></defs><g transform="matrix(1.25,0,0,-1.25,0,47.5)" id="g10"><g id="g12"><g clip-path="url(#clipPath16)" id="g14"><g transform="translate(14.5776,31.3491)" id="g20"><path id="path22" style="fill:#d99e82;fill-opacity:1;fill-rule:nonzero;stroke:none" d="M 0,0 C 0,0 -0.188,1.991 -2.18,1.804 -4.17,1.616 -3.982,-0.375 -3.982,-0.375 l 1.175,-11.974 0.229,0 2,0 1.783,0 L 0,0 Z"/></g><g transform="translate(31,14.917)" id="g24"><path id="path26" style="fill:#d99e82;fill-opacity:1;fill-rule:nonzero;stroke:none" d="m 0,0 c 0,-1.059 -0.857,-1.917 -1.916,-1.917 l -0.168,0 C -3.143,-1.917 -4,-1.059 -4,0 l 0,4.166 c 0,1.059 0.857,1.917 1.916,1.917 l 0.168,0 C -0.857,6.083 0,5.225 0,4.166 L 0,0 Z"/></g><g transform="translate(24,23)" id="g28"><path id="path30" style="fill:#d99e82;fill-opacity:1;fill-rule:nonzero;stroke:none" d="m 0,0 c -1.104,0 -2,-0.896 -2,-2 l 0,-2.778 C -1.391,-5.327 -1,-6.114 -1,-7 -1,-7.753 -1.287,-8.433 -1.745,-8.959 -1.404,-9.576 -0.755,-10 0,-10 c 1.104,0 2,0.896 2,2 l 0,6 C 2,-0.896 1.104,0 0,0"/></g><g transform="translate(29.0625,12)" id="g32"><path id="path34" style="fill:#d99e82;fill-opacity:1;fill-rule:nonzero;stroke:none" d="M 0,0 -0.125,0 C -1.149,0 -2.05,0.526 -2.575,1.322 -2.698,1.14 -2.846,0.977 -3.006,0.825 -3.055,0.779 -3.108,0.74 -3.161,0.697 -3.28,0.599 -3.404,0.509 -3.538,0.429 -3.604,0.39 -3.67,0.354 -3.739,0.32 -3.879,0.251 -4.024,0.195 -4.175,0.148 -4.242,0.128 -4.306,0.103 -4.375,0.087 -4.597,0.034 -4.825,0 -5.062,0 c -0.237,0 -0.461,0.036 -0.681,0.089 -0.076,0.017 -0.149,0.042 -0.223,0.066 -0.137,0.044 -0.268,0.099 -0.395,0.161 -0.082,0.04 -0.163,0.077 -0.241,0.124 -0.164,0.1 -0.318,0.213 -0.46,0.341 -0.202,0.184 -0.383,0.387 -0.53,0.618 l 0.003,0.003 C -7.79,1.287 -8.063,1 -9.063,1 L -11.6,1 c 1.809,-1.365 3.037,-3.99 3.037,-7 0,-0.276 -0.223,-0.5 -0.5,-0.5 -0.276,0 -0.5,0.224 -0.5,0.5 0,3.859 -2.187,7 -4.875,7 l -0.125,0 c -0.276,0 -0.5,0.224 -0.5,0.5 0,0.276 0.224,0.5 0.5,0.5 l 1.5,0 4,0 c 1.105,0 2.001,0.896 2.001,2 0,1.104 -0.896,2 -2.001,2 l -7.999,0 c -0.033,0 -0.063,-0.008 -0.095,-0.01 -0.072,-0.003 -0.144,-0.01 -0.216,-0.021 -0.062,-0.01 -0.122,-0.022 -0.182,-0.037 -0.063,-0.017 -0.125,-0.036 -0.186,-0.058 -0.062,-0.022 -0.122,-0.047 -0.181,-0.075 -0.057,-0.028 -0.111,-0.058 -0.165,-0.09 -0.056,-0.033 -0.109,-0.067 -0.161,-0.106 -0.052,-0.039 -0.102,-0.081 -0.15,-0.124 -0.046,-0.042 -0.09,-0.084 -0.132,-0.13 -0.046,-0.049 -0.087,-0.1 -0.128,-0.154 -0.038,-0.05 -0.073,-0.102 -0.106,-0.156 -0.034,-0.056 -0.064,-0.112 -0.093,-0.171 -0.03,-0.061 -0.056,-0.125 -0.08,-0.19 -0.011,-0.032 -0.028,-0.06 -0.039,-0.093 L -20.062,1 c -0.103,-0.335 -0.479,-1.871 -0.411,-2.191 0,-4.809 4.696,-9.809 10.41,-9.809 6.538,0 11.844,5.231 11.987,11.734 C 1.407,0.283 0.739,0 0,0"/></g><g transform="translate(21,19)" id="g36"><path id="path38" style="fill:#d99e82;fill-opacity:1;fill-rule:nonzero;stroke:none" d="M 0,0 0,2 C 0,3.104 -0.896,4 -2,4 -3.104,4 -4,3.104 -4,2 l 0,-2 4,0 z"/></g></g></g></g></svg>
