<?xml version="1.0" encoding="UTF-8" standalone="no"?><svg xmlns:dc="http://purl.org/dc/elements/1.1/" xmlns:cc="http://creativecommons.org/ns#" xmlns:rdf="http://www.w3.org/1999/02/22-rdf-syntax-ns#" xmlns:svg="http://www.w3.org/2000/svg" xmlns="http://www.w3.org/2000/svg" viewBox="0 0 47.5 47.5" style="enable-background:new 0 0 47.5 47.5;" xml:space="preserve" version="1.1" id="svg2"><metadata id="metadata8"><rdf:RDF><cc:Work rdf:about=""><dc:format>image/svg+xml</dc:format><dc:type rdf:resource="http://purl.org/dc/dcmitype/StillImage"/></cc:Work></rdf:RDF></metadata><defs id="defs6"><clipPath id="clipPath16" clipPathUnits="userSpaceOnUse"><path id="path18" d="M 0,38 38,38 38,0 0,0 0,38 Z"/></clipPath></defs><g transform="matrix(1.25,0,0,-1.25,0,47.5)" id="g10"><g id="g12"><g clip-path="url(#clipPath16)" id="g14"><g transform="translate(37,5)" id="g20"><path id="path22" style="fill:#dd2e44;fill-opacity:1;fill-rule:nonzero;stroke:none" d="m 0,0 c 0,-2.209 -1.791,-4 -4,-4 l -28,0 c -2.209,0 -4,1.791 -4,4 l 0,28 c 0,2.209 1.791,4 4,4 l 28,0 c 2.209,0 4,-1.791 4,-4 L 0,0 Z"/></g><g transform="translate(21.2861,6)" id="g24"><path id="path26" style="fill:#ffffff;fill-opacity:1;fill-rule:nonzero;stroke:none" d="M 0,0 -4.572,0 -4.769,1.271 C -4.841,1.742 -6.555,12.65 -6.777,14.647 -7.333,19.65 -8.498,22 -10.24,22 l -0.003,0 c -0.741,0 -1.254,-0.07 -1.568,-0.578 -0.353,-0.571 -0.409,-1.293 -0.133,-1.845 0.37,-0.741 0.069,-1.595 -0.671,-1.966 -0.741,-0.369 -1.642,-0.047 -2.013,0.695 -0.744,1.487 -0.639,3.218 0.265,4.682 0.86,1.39 2.345,2.012 4.077,2.012 l 0.01,0 c 3.66,0 5.707,-3.057 6.481,-10.022 0.142,-1.285 0.966,-6.647 1.509,-10.2 0.542,3.553 1.366,9.056 1.509,10.341 0.773,6.954 2.896,10.358 6.491,10.358 1.711,0 3.187,-0.79 4.051,-2.188 0.918,-1.485 1.035,-3.477 0.291,-4.966 -0.37,-0.74 -1.27,-1.038 -2.013,-0.668 -0.741,0.371 -1.041,1.273 -0.671,2.014 0.24,0.481 0.267,1.365 -0.159,2.054 C 6.89,22.245 6.399,22.5 5.714,22.5 3.518,22.5 2.593,18.332 2.205,14.834 1.983,12.837 0.27,1.742 0.196,1.271 L 0,0 Z"/></g></g></g></g></svg>
