<?xml version="1.0" encoding="UTF-8" standalone="no"?>
<!-- Created with Inkscape (http://www.inkscape.org/) -->

<svg
   xmlns:svg="http://www.w3.org/2000/svg"
   xmlns="http://www.w3.org/2000/svg"
   version="1.1"
   width="47.5"
   height="47.5"
   id="svg2"
   xml:space="preserve"><defs
     id="defs6"><clipPath
       id="clipPath18"><path
         d="M 0,38 38,38 38,0 0,0 0,38 z"
         id="path20" /></clipPath></defs><g
     transform="matrix(1.25,0,0,-1.25,0,47.5)"
     id="g12"><g
       id="g14"><g
         clip-path="url(#clipPath18)"
         id="g16"><g
           transform="translate(37,5)"
           id="g22"><path
             d="m 0,0 c 0,-2.209 -1.791,-4 -4,-4 l -28,0 c -2.209,0 -4,1.791 -4,4 l 0,28 c 0,2.209 1.791,4 4,4 l 28,0 c 2.209,0 4,-1.791 4,-4 L 0,0 z"
             id="path24"
             style="fill:#f4900c;fill-opacity:1;fill-rule:nonzero;stroke:none" /></g><g
           transform="translate(19,21.5)"
           id="g26"><path
             d="m 0,0 c -3.033,0 -5.5,-2.467 -5.5,-5.5 0,-3.032 2.467,-5.5 5.5,-5.5 3.032,0 5.5,2.468 5.5,5.5 C 5.5,-2.467 3.032,0 0,0 m 0,-14 c -4.687,0 -8.5,3.813 -8.5,8.5 C -8.5,-0.813 -4.687,3 0,3 4.687,3 8.5,-0.813 8.5,-5.5 8.5,-10.187 4.687,-14 0,-14"
             id="path28"
             style="fill:#ffffff;fill-opacity:1;fill-rule:nonzero;stroke:none" /></g><g
           transform="translate(19,21.5)"
           id="g30"><path
             d="M 0,0 C -5.109,0 -7.58,2.79 -8.131,3.507 -8.612,3.957 -9.947,5 -11,5 c -1.297,0 -1.94,-0.563 -1.967,-0.587 -0.603,-0.543 -1.547,-0.519 -2.106,0.07 -0.559,0.59 -0.562,1.503 0.012,2.078 C -14.914,6.708 -13.548,8 -11,8 -8.452,8 -6.189,5.811 -5.939,5.561 -5.87,5.491 -5.807,5.414 -5.752,5.332 -5.695,5.251 -4.062,3 0,3 4.083,3 5.736,5.309 5.752,5.332 5.807,5.414 5.869,5.491 5.939,5.561 6.189,5.811 8.452,8 11,8 c 2.548,0 3.913,-1.292 4.061,-1.439 0.585,-0.586 0.585,-1.536 0,-2.122 -0.586,-0.585 -1.536,-0.585 -2.122,0 C 12.938,4.439 12.295,5 11,5 9.948,5 8.616,3.96 8.131,3.506 7.579,2.789 5.107,0 0,0"
             id="path32"
             style="fill:#ffffff;fill-opacity:1;fill-rule:nonzero;stroke:none" /></g></g></g></g></svg>