<svg xmlns="http://www.w3.org/2000/svg" viewBox="0 0 47.5 47.5" enable-background="new 0 0 47.5 47.5"><defs><clipPath id="a"><path d="M0 38h38V0H0v38z"/></clipPath></defs><g><g><g clip-path="url(#a)" transform="matrix(1.25 0 0 -1.25 0 47.5)"><g><path fill="#5c913b" d="M37 5c0-2.2-1.8-4-4-4H5C2.8 1 1 2.8 1 5v28c0 2.2 1.8 4 4 4h28c2.2 0 4-1.8 4-4V5z"/></g><g><path fill="#fff" d="M30 6.5c-.16 0-.32.02-.48.08-.02 0-2.97.92-10.52.92-7.55 0-10.5-.92-10.54-.93-.78-.25-1.63.18-1.88.97-.26.78.16 1.62.94 1.88.14.05 3.33 1.08 11.48 1.08s11.34-1.03 11.47-1.08c.8-.26 1.2-1.1.95-1.9-.2-.62-.8-1.02-1.42-1.02"/></g><path fill="#fff" d="M16 9h-3v20h3V9z"/><path fill="#fff" d="M25 9h-3v20h3V9z"/><g><path fill="#fff" d="M19 27.5c-8.15 0-11.34 1.03-11.48 1.08-.78.26-1.2 1.1-.94 1.9.26.78 1.1 1.2 1.88.95.05-.02 3-.93 10.54-.93 7.55 0 10.5.92 10.53.93.8.25 1.63-.18 1.9-.97.25-.78-.17-1.62-.96-1.88-.13-.05-3.32-1.08-11.47-1.08"/></g></g></g></g></svg>