<?xml version="1.0" encoding="UTF-8" standalone="no"?><svg xmlns:svg="http://www.w3.org/2000/svg" xmlns="http://www.w3.org/2000/svg" version="1.1" viewBox="0 0 47.5 47.5" style="enable-background:new 0 0 47.5 47.5;" id="svg2" xml:space="preserve"><defs id="defs6"><clipPath id="clipPath18"><path d="M 0,38 38,38 38,0 0,0 0,38 z" id="path20"/></clipPath></defs><g transform="matrix(1.25,0,0,-1.25,0,47.5)" id="g12"><g id="g14"><g clip-path="url(#clipPath18)" id="g16"><g transform="translate(37,5)" id="g22"><path d="m 0,0 c 0,-2.209 -1.791,-4 -4,-4 l -28,0 c -2.209,0 -4,1.791 -4,4 l 0,28 c 0,2.209 1.791,4 4,4 l 28,0 c 2.209,0 4,-1.791 4,-4 L 0,0 z" id="path24" style="fill:#5c913b;fill-opacity:1;fill-rule:nonzero;stroke:none"/></g><g transform="translate(29.999,6.5)" id="g26"><path d="M 0,0 C -0.157,0 -0.317,0.024 -0.475,0.077 -0.494,0.083 -3.449,1 -11,1 -18.551,1 -21.505,0.083 -21.535,0.074 c -0.785,-0.253 -1.631,0.178 -1.886,0.962 -0.257,0.784 0.164,1.626 0.947,1.887 C -22.342,2.967 -19.15,4 -11,4 -2.851,4 0.343,2.967 0.475,2.923 1.261,2.661 1.685,1.812 1.423,1.025 1.214,0.397 0.628,0 0,0" id="path28" style="fill:#ffffff;fill-opacity:1;fill-rule:nonzero;stroke:none"/></g><path d="m 16,9 -3,0 0,20 3,0 0,-20 z" id="path30" style="fill:#ffffff;fill-opacity:1;fill-rule:nonzero;stroke:none"/><path d="m 25,9 -3,0 0,20 3,0 0,-20 z" id="path32" style="fill:#ffffff;fill-opacity:1;fill-rule:nonzero;stroke:none"/><g transform="translate(18.999,27.5005)" id="g34"><path d="m 0,0 c -8.15,0 -11.342,1.033 -11.474,1.077 -0.786,0.262 -1.211,1.111 -0.949,1.897 0.261,0.784 1.104,1.208 1.889,0.952 C -10.488,3.911 -7.528,3 0,3 7.551,3 10.506,3.917 10.534,3.926 11.319,4.176 12.166,3.748 12.422,2.964 12.678,2.18 12.257,1.338 11.475,1.077 11.343,1.033 8.149,0 0,0" id="path36" style="fill:#ffffff;fill-opacity:1;fill-rule:nonzero;stroke:none"/></g></g></g></g></svg>
