<svg xmlns="http://www.w3.org/2000/svg" viewBox="0 0 47.5 47.5" enable-background="new 0 0 47.5 47.5"><defs><clipPath id="a"><path d="M0 38h38V0H0v38z"/></clipPath></defs><g><g><g clip-path="url(#a)" transform="matrix(1.25 0 0 -1.25 0 47.5)"><g><path fill="#3b88c3" d="M37 5c0-2.2-1.8-4-4-4H5C2.8 1 1 2.8 1 5v28c0 2.2 1.8 4 4 4h28c2.2 0 4-1.8 4-4V5z"/></g><g><path fill="#fff" d="M10.83 27.73c-.92-.65-1.55-1.6-1.55-2.73 0-1.23 1.2-2.72 2.72-2.72 1.63 0 2.72 1.4 2.72 2.72 0 1.06-.27 1.8-.8 2.25-.97.8-2.6.6-2.6.6-.15-.04-.32-.05-.5-.12m1.18-8c-2.8 0-5.28 2.46-5.28 5.27 0 3.88 3.78 6.28 7.28 6.28 13.63 0 17-6.43 17.14-6.7.32-.64.06-1.4-.57-1.72-.62-.32-1.4-.07-1.7.56-.07.1-2.68 4.67-12.75 5.24.77-.9 1.16-2.14 1.16-3.66 0-2.54-2.02-5.28-5.28-5.28"/></g><g><path fill="#fff" d="M26 15.72c-1.63 0-2.72-1.4-2.72-2.72 0-1.06.27-1.8.8-2.25.97-.8 2.67-.6 2.7-.6.13.04.22.07.38.12.93.65 1.56 1.6 1.56 2.73 0 1.23-1.2 2.72-2.72 2.72m-2-9c-13.64 0-17 6.43-17.14 6.7-.32.64-.06 1.4.57 1.72.62.32 1.4.07 1.7-.56.07-.1 2.68-4.67 12.75-5.24-.77.9-1.16 2.14-1.16 3.66 0 2.54 2.02 5.28 5.28 5.28 2.8 0 5.28-2.47 5.28-5.28 0-3.88-3.78-6.28-7.28-6.28"/></g><g><path fill="#3b88c3" d="M15 25c0 1.7-1.36 3.05-3.04 3.05S8.92 26.7 8.92 25c0-1.67 1.36-3.03 3.04-3.03S15 23.33 15 25"/></g><g><path fill="#3b88c3" d="M29 13c0 1.7-1.36 3.05-3.04 3.05S22.92 14.7 22.92 13c0-1.67 1.36-3.03 3.04-3.03S29 11.33 29 13"/></g></g></g></g></svg>