<svg xmlns="http://www.w3.org/2000/svg" viewBox="0 0 47.5 47.5" enable-background="new 0 0 47.5 47.5"><defs><clipPath id="a"><path d="M0 38h38V0H0v38z"/></clipPath></defs><g><g><g clip-path="url(#a)" transform="matrix(1.25 0 0 -1.25 0 47.5)"><g><path fill="#f4900c" d="M37 5c0-2.2-1.8-4-4-4H5C2.8 1 1 2.8 1 5v28c0 2.2 1.8 4 4 4h28c2.2 0 4-1.8 4-4V5z"/></g><g><path fill="#fff" d="M20.73 31.3c-1.46.34-2.97-.3-4.02-1.28-.6.75-1.3 1.12-1.97 1.27-1.46.34-2.96-.3-4-1.27C9.7 31.38 8.38 31.5 8 31.5c-.83 0-1.5-.67-1.5-1.5s.67-1.5 1.5-1.5c.16 0 1-.65 1-3.5V14c0-.83.67-1.5 1.5-1.5s1.5.67 1.5 1.5v11c0 .67.23 2.1.34 2.33.3.6 1.22 1.16 1.7 1.04.46-.1.96-1.2.96-3.37V14c0-.83.67-1.5 1.5-1.5s1.5.67 1.5 1.5v11c0 .67.23 2.1.34 2.33.3.6 1.23 1.16 1.7 1.04.46-.1.96-1.2.96-3.37v-9c0-.83.67-1.5 1.5-1.5s1.5.67 1.5 1.5v9c0 4.56-1.78 5.94-3.27 6.3"/></g><g><path fill="#fff" d="M26.9 19.62c-.9-.63-2.16-1.9-2.9-4.24-.37-1.22-.17-2.7.3-4.17 1.2.96 2.2 2.07 2.58 3.3.73 2.34.4 4.1 0 5.12M26.32 2.7c-.44 0-.9.2-1.18.6-.1.12-1.16 1.52-2.2 3.5-1.97-1.05-3.63-1.6-3.78-1.66-.8-.26-1.64.16-1.9.95-.26.78.17 1.62.95 1.9.8.25 2.12.8 3.5 1.54-.78 2.17-1.22 4.58-.56 6.72 1.7 5.48 5.77 6.75 5.95 6.8l.95.28.63-.77c.1-.14 2.76-3.5 1.06-8.97-.66-2.14-2.4-3.9-4.26-5.23.72-1.4 1.5-2.6 2.02-3.26.5-.65.38-1.6-.28-2.1-.27-.2-.6-.3-.9-.3"/></g></g></g></g></svg>