<?xml version="1.0" encoding="UTF-8" standalone="no"?><svg xmlns:dc="http://purl.org/dc/elements/1.1/" xmlns:cc="http://creativecommons.org/ns#" xmlns:rdf="http://www.w3.org/1999/02/22-rdf-syntax-ns#" xmlns:svg="http://www.w3.org/2000/svg" xmlns="http://www.w3.org/2000/svg" viewBox="0 0 47.5 47.5" style="enable-background:new 0 0 47.5 47.5;" xml:space="preserve" version="1.1" id="svg2"><metadata id="metadata8"><rdf:RDF><cc:Work rdf:about=""><dc:format>image/svg+xml</dc:format><dc:type rdf:resource="http://purl.org/dc/dcmitype/StillImage"/></cc:Work></rdf:RDF></metadata><defs id="defs6"><clipPath id="clipPath16" clipPathUnits="userSpaceOnUse"><path id="path18" d="M 0,38 38,38 38,0 0,0 0,38 Z"/></clipPath></defs><g transform="matrix(1.25,0,0,-1.25,0,47.5)" id="g10"><g id="g12"><g clip-path="url(#clipPath16)" id="g14"><g transform="translate(37,5)" id="g20"><path id="path22" style="fill:#f4900c;fill-opacity:1;fill-rule:nonzero;stroke:none" d="m 0,0 c 0,-2.209 -1.791,-4 -4,-4 l -28,0 c -2.209,0 -4,1.791 -4,4 l 0,28 c 0,2.209 1.791,4 4,4 l 28,0 c 2.209,0 4,-1.791 4,-4 L 0,0 Z"/></g><g transform="translate(20.7324,31.291)" id="g24"><path id="path26" style="fill:#ffffff;fill-opacity:1;fill-rule:nonzero;stroke:none" d="M 0,0 C -1.466,0.345 -2.971,-0.292 -4.024,-1.269 -4.619,-0.518 -5.337,-0.156 -6,0 c -1.46,0.345 -2.959,-0.286 -4.012,-1.257 -1.016,1.347 -2.328,1.466 -2.72,1.466 -0.829,0 -1.5,-0.671 -1.5,-1.5 0,-0.829 0.671,-1.5 1.5,-1.5 0.155,0 1,-0.646 1,-3.5 l 0,-11 c 0,-0.828 0.671,-1.5 1.5,-1.5 0.828,0 1.5,0.672 1.5,1.5 l 0,11 c 0,0.669 0.231,2.108 0.341,2.329 0.296,0.591 1.217,1.157 1.702,1.042 0.46,-0.108 0.957,-1.21 0.957,-3.371 l 0,-11 c 0,-0.828 0.671,-1.5 1.5,-1.5 0.828,0 1.5,0.672 1.5,1.5 l 0,11 c 0,0.668 0.232,2.11 0.341,2.329 0.296,0.591 1.225,1.157 1.702,1.042 0.46,-0.108 0.957,-1.21 0.957,-3.371 l 0,-9 c 0,-0.828 0.671,-1.5 1.5,-1.5 0.828,0 1.5,0.672 1.5,1.5 l 0,9 C 3.268,-1.729 1.491,-0.352 0,0"/></g><g transform="translate(26.8916,19.6162)" id="g28"><path id="path30" style="fill:#ffffff;fill-opacity:1;fill-rule:nonzero;stroke:none" d="m 0,0 c -0.896,-0.629 -2.152,-1.885 -2.882,-4.239 -0.377,-1.22 -0.182,-2.698 0.28,-4.164 1.213,0.951 2.21,2.06 2.587,3.276 C 0.714,-2.773 0.387,-1.029 0,0 m -0.582,-16.919 c -0.452,0 -0.899,0.204 -1.194,0.592 -0.1,0.13 -1.151,1.528 -2.189,3.512 -1.976,-1.051 -3.634,-1.611 -3.788,-1.663 -0.787,-0.259 -1.635,0.165 -1.895,0.952 -0.262,0.785 0.164,1.633 0.95,1.896 0.799,0.267 2.126,0.806 3.511,1.557 -0.788,2.162 -1.223,4.577 -0.56,6.72 1.696,5.48 5.769,6.744 5.942,6.795 L 1.154,3.726 1.785,2.95 C 1.898,2.811 4.547,-0.534 2.851,-6.014 2.188,-8.158 0.462,-9.905 -1.41,-11.245 c 0.72,-1.402 1.511,-2.595 2.02,-3.266 0.502,-0.659 0.374,-1.6 -0.285,-2.101 -0.271,-0.207 -0.591,-0.307 -0.907,-0.307"/></g></g></g></g></svg>
