<svg xmlns="http://www.w3.org/2000/svg" viewBox="0 0 47.5 47.5" enable-background="new 0 0 47.5 47.5"><defs><clipPath id="a"><path d="M0 38h38V0H0v38z"/></clipPath></defs><g><g><g clip-path="url(#a)" transform="matrix(1.25 0 0 -1.25 0 47.5)"><g><path fill="#5c913b" d="M37 5c0-2.2-1.8-4-4-4H5C2.8 1 1 2.8 1 5v28c0 2.2 1.8 4 4 4h28c2.2 0 4-1.8 4-4V5z"/></g><g><path fill="#fff" d="M30 7H8c-.83 0-1.5.67-1.5 1.5S7.17 10 8 10h22c.83 0 1.5-.67 1.5-1.5S30.83 7 30 7"/></g><g><path fill="#fff" d="M30 12h-8c-.63 0-1.2.4-1.4 1-.22.58-.05 1.24.43 1.65C22.29 15.7 25.5 19 25.5 21.7c0 4.17-3.3 6.67-6.5 6.67s-6.5-2.47-6.5-6.62c0-2.7 3.23-6.05 4.47-7.1.48-.42.65-1.08.44-1.67-.2-.6-.77-.98-1.4-.98H8c-.83 0-1.5.67-1.5 1.5S7.17 15 8 15h4.46c-1.45 1.77-2.96 4.23-2.96 6.75 0 6.03 4.83 9.63 9.5 9.63 4.57 0 9.5-3.7 9.5-9.7 0-2.5-1.5-4.92-2.94-6.68H30c.83 0 1.5-.67 1.5-1.5S30.83 12 30 12"/></g></g></g></g></svg>