<?xml version="1.0" encoding="UTF-8" standalone="no"?><svg xmlns:dc="http://purl.org/dc/elements/1.1/" xmlns:cc="http://creativecommons.org/ns#" xmlns:rdf="http://www.w3.org/1999/02/22-rdf-syntax-ns#" xmlns:svg="http://www.w3.org/2000/svg" xmlns="http://www.w3.org/2000/svg" viewBox="0 0 47.5 47.5" style="enable-background:new 0 0 47.5 47.5;" xml:space="preserve" version="1.1" id="svg2"><metadata id="metadata8"><rdf:RDF><cc:Work rdf:about=""><dc:format>image/svg+xml</dc:format><dc:type rdf:resource="http://purl.org/dc/dcmitype/StillImage"/></cc:Work></rdf:RDF></metadata><defs id="defs6"><clipPath id="clipPath16" clipPathUnits="userSpaceOnUse"><path id="path18" d="M 0,38 38,38 38,0 0,0 0,38 Z"/></clipPath></defs><g transform="matrix(1.25,0,0,-1.25,0,47.5)" id="g10"><g id="g12"><g clip-path="url(#clipPath16)" id="g14"><g transform="translate(37,5)" id="g20"><path id="path22" style="fill:#3b88c3;fill-opacity:1;fill-rule:nonzero;stroke:none" d="m 0,0 c 0,-2.209 -1.791,-4 -4,-4 l -28,0 c -2.209,0 -4,1.791 -4,4 l 0,28 c 0,2.209 1.791,4 4,4 l 28,0 c 2.209,0 4,-1.791 4,-4 L 0,0 Z"/></g><g transform="translate(28,10.5)" id="g24"><path id="path26" style="fill:#ffffff;fill-opacity:1;fill-rule:nonzero;stroke:none" d="m 0,0 c -3.842,0 -4,0.933 -4,4.5 l 0,10 c 0,4.562 -1.776,5.939 -3.268,6.291 -1.465,0.345 -2.971,-0.291 -4.024,-1.269 -0.595,0.751 -1.313,1.113 -1.976,1.269 -1.46,0.345 -2.959,-0.286 -4.011,-1.257 C -18.295,20.881 -19.607,21 -20,21 c -0.829,0 -1.5,-0.671 -1.5,-1.5 0,-0.829 0.671,-1.5 1.5,-1.5 0.155,0 1,-0.646 1,-3.5 l 0,-11 c 0,-0.828 0.671,-1.5 1.5,-1.5 0.829,0 1.5,0.672 1.5,1.5 l 0,11 c 0,0.669 -0.045,1.257 -0.116,1.796 0.186,0.137 0.347,0.312 0.458,0.533 0.295,0.591 1.217,1.157 1.701,1.042 C -13.496,17.763 -13,16.661 -13,14.5 l 0,-11 c 0,-0.828 0.671,-1.5 1.5,-1.5 0.829,0 1.5,0.672 1.5,1.5 l 0,11 c 0,0.668 -0.042,1.261 -0.112,1.799 0.185,0.136 0.344,0.311 0.454,0.53 0.295,0.591 1.224,1.157 1.701,1.042 C -7.496,17.763 -7,16.661 -7,14.5 l 0,-10 C -7,0.548 -6.465,-3 0,-3 0.828,-3 1.5,-2.328 1.5,-1.5 1.5,-0.672 0.828,0 0,0"/></g><g transform="translate(32.5,9)" id="g28"><path id="path30" style="fill:#ffffff;fill-opacity:1;fill-rule:nonzero;stroke:none" d="m 0,0 -5.5,4 0,-8 5.5,4 z"/></g></g></g></g></svg>
