<svg xmlns="http://www.w3.org/2000/svg" viewBox="0 0 47.5 47.5" enable-background="new 0 0 47.5 47.5"><defs><clipPath id="a"><path d="M0 38h38V0H0v38z"/></clipPath></defs><g><g><g clip-path="url(#a)" transform="matrix(1.25 0 0 -1.25 0 47.5)"><g><path fill="#3b88c3" d="M37 5c0-2.2-1.8-4-4-4H5C2.8 1 1 2.8 1 5v28c0 2.2 1.8 4 4 4h28c2.2 0 4-1.8 4-4V5z"/></g><g><path fill="#fff" d="M28 10.5c-3.84 0-4 .93-4 4.5v10c0 4.56-1.78 5.94-3.27 6.3-1.46.34-2.97-.3-4.02-1.28-.6.75-1.3 1.12-1.97 1.27-1.46.34-2.96-.3-4-1.27C9.7 31.38 8.38 31.5 8 31.5c-.83 0-1.5-.67-1.5-1.5s.67-1.5 1.5-1.5c.15 0 1-.65 1-3.5V14c0-.83.67-1.5 1.5-1.5s1.5.67 1.5 1.5v11c0 .67-.04 1.26-.12 1.8.2.13.35.3.46.53.3.6 1.22 1.16 1.7 1.04.46-.1.96-1.2.96-3.37V14c0-.83.67-1.5 1.5-1.5s1.5.67 1.5 1.5v11c0 .67-.04 1.26-.1 1.8.17.13.33.3.44.53.3.6 1.23 1.16 1.7 1.04.46-.1.96-1.2.96-3.37V15c0-3.95.54-7.5 7-7.5.83 0 1.5.67 1.5 1.5s-.67 1.5-1.5 1.5"/></g><g><path fill="#fff" d="M32.5 9L27 13V5l5.5 4z"/></g></g></g></g></svg>