<svg xmlns="http://www.w3.org/2000/svg" viewBox="0 0 47.5 47.5" enable-background="new 0 0 47.5 47.5"><defs><clipPath id="a"><path d="M0 38h38V0H0v38z"/></clipPath></defs><g><g><g clip-path="url(#a)" transform="matrix(1.25 0 0 -1.25 0 47.5)"><g><path fill="#dd2e44" d="M37 5c0-2.2-1.8-4-4-4H5C2.8 1 1 2.8 1 5v28c0 2.2 1.8 4 4 4h28c2.2 0 4-1.8 4-4V5z"/></g><g><path fill="#fff" d="M29.5 31H18c-.83 0-1.5-.67-1.5-1.5S17.17 28 18 28h7.88L14 16.12l-3.94 3.94c-.6.6-1.54.6-2.12 0-.6-.58-.6-1.53 0-2.12L11.88 14 6.94 9.06c-.6-.58-.6-1.53 0-2.12.3-.3.68-.44 1.06-.44s.77.15 1.06.44L14 11.88l3.94-3.94c.3-.3.68-.44 1.06-.44s.77.15 1.06.44c.6.6.6 1.54 0 2.12L16.12 14 28 25.88V18c0-.83.67-1.5 1.5-1.5s1.5.67 1.5 1.5v11.5c0 .83-.67 1.5-1.5 1.5"/></g></g></g></g></svg>