<svg xmlns="http://www.w3.org/2000/svg" viewBox="0 0 47.5 47.5" enable-background="new 0 0 47.5 47.5"><defs><clipPath id="a"><path d="M0 38h38V0H0v38z"/></clipPath></defs><g><g><g clip-path="url(#a)" transform="matrix(1.25 0 0 -1.25 0 47.5)"><g><path fill="#f4900c" d="M37 5c0-2.2-1.8-4-4-4H5C2.8 1 1 2.8 1 5v28c0 2.2 1.8 4 4 4h28c2.2 0 4-1.8 4-4V5z"/></g><g><path fill="#fff" d="M26.97 11.14c-1.16-.12-2.57.2-3.2 1.36.48 1.26 1.63 2 3.23 2 1 0 2.5-.4 2.5-1.5 0-1.06-1.27-1.74-2.53-1.86M27 17.5c-1.62 0-3.03-.48-4.12-1.32-.44 2.18-1.12 5.42-1.9 9.13-1.1 5.05-3.72 6.1-5.2 6.3-1.72.22-3.44-.54-4.78-2-1.04 1.76-2.57 1.9-3 1.9-.83 0-1.5-.67-1.5-1.5s.67-1.5 1.5-1.5c.15 0 1-.65 1-3.5V14c0-.83.67-1.5 1.5-1.5s1.5.67 1.5 1.5v11c0 .3.25 1.14.34 1.33.74 1.48 2 2.43 3.07 2.3 1.16-.16 2.14-1.63 2.63-3.94 1.45-6.77 2.5-11.94 2.5-12 .02-.12.05-.24.08-.36-.06-.43-.1-.88-.1-1.34 0-2.47-3.36-2.5-3.5-2.5-.83 0-1.5-.67-1.5-1.5s.67-1.5 1.5-1.5c2.57 0 5.17 1.2 6.12 3.5 1.25-.72 2.76-1 4.14-.85 3.1.3 5.24 2.3 5.24 4.85 0 2.6-2.3 4.5-5.5 4.5"/></g></g></g></g></svg>