<svg xmlns="http://www.w3.org/2000/svg" viewBox="0 0 47.5 47.5" enable-background="new 0 0 47.5 47.5"><defs><clipPath id="a"><path d="M0 38h38V0H0v38z"/></clipPath></defs><g><g><g clip-path="url(#a)" transform="matrix(1.25 0 0 -1.25 0 47.5)"><g><path fill="#5c913b" d="M37 5c0-2.2-1.8-4-4-4H5C2.8 1 1 2.8 1 5v28c0 2.2 1.8 4 4 4h28c2.2 0 4-1.8 4-4V5z"/></g><g><path fill="#fff" d="M22.5 20.5c-.2 0-.42.04-.62.13-.54.25-.88.78-.88 1.37v3.7l-5.5-4.83c-.46-.4-1.08-.48-1.62-.24-.54.25-.88.78-.88 1.37v3.55L8.02 20.9c-.6-.56-1.55-.53-2.12.08-.56.6-.53 1.55.08 2.12l7.5 7c.43.4 1.07.5 1.62.28.55-.24.9-.78.9-1.38v-3.7l5.5 4.83c.45.4 1.08.48 1.62.24.54-.25.88-.78.88-1.37v-3.7l5.5 4.83c.45.4 1.08.48 1.62.24.54-.25.88-.78.88-1.37v-7c0-.83-.67-1.5-1.5-1.5S29 21.17 29 22v3.7l-5.5-4.83c-.3-.24-.64-.37-1-.37"/></g><g><path fill="#fff" d="M22.5 7.5c-.2 0-.42.04-.62.13-.54.25-.88.78-.88 1.37v3.7l-5.5-4.83c-.46-.4-1.08-.48-1.62-.24-.54.25-.88.78-.88 1.37v3.55L8.02 7.9c-.6-.56-1.55-.53-2.12.08-.56.6-.53 1.55.08 2.12l7.5 7c.43.4 1.07.5 1.62.28.55-.24.9-.78.9-1.38v-3.7l5.5 4.83c.45.4 1.08.48 1.62.24.54-.25.88-.78.88-1.37v-3.7l5.5 4.83c.45.4 1.08.48 1.62.24.54-.25.88-.78.88-1.37V9c0-.83-.67-1.5-1.5-1.5S29 8.17 29 9v3.7l-5.5-4.83c-.3-.24-.64-.37-1-.37"/></g></g></g></g></svg>