<?xml version="1.0" encoding="UTF-8" standalone="no"?>
<!-- Created with Inkscape (http://www.inkscape.org/) -->

<svg
   xmlns:svg="http://www.w3.org/2000/svg"
   xmlns="http://www.w3.org/2000/svg"
   version="1.1"
   width="47.5"
   height="47.5"
   id="svg2"
   xml:space="preserve"><defs
     id="defs6"><clipPath
       id="clipPath18"><path
         d="M 0,38 38,38 38,0 0,0 0,38 z"
         id="path20" /></clipPath></defs><g
     transform="matrix(1.25,0,0,-1.25,0,47.5)"
     id="g12"><g
       id="g14"><g
         clip-path="url(#clipPath18)"
         id="g16"><g
           transform="translate(37,5)"
           id="g22"><path
             d="m 0,0 c 0,-2.209 -1.791,-4 -4,-4 l -28,0 c -2.209,0 -4,1.791 -4,4 l 0,28 c 0,2.209 1.791,4 4,4 l 28,0 c 2.209,0 4,-1.791 4,-4 L 0,0 z"
             id="path24"
             style="fill:#5c913b;fill-opacity:1;fill-rule:nonzero;stroke:none" /></g><g
           transform="translate(22.5,20.5)"
           id="g26"><path
             d="M 0,0 C -0.21,0 -0.421,0.044 -0.62,0.134 -1.156,0.377 -1.5,0.912 -1.5,1.5 l 0,3.694 -5.512,-4.823 C -7.455,-0.016 -8.084,-0.109 -8.62,0.134 -9.156,0.377 -9.5,0.912 -9.5,1.5 l 0,3.548 -4.977,-4.645 c -0.605,-0.565 -1.555,-0.532 -2.12,0.074 -0.565,0.605 -0.532,1.554 0.074,2.12 l 7.5,7 c 0.437,0.406 1.073,0.517 1.621,0.278 C -6.854,9.638 -6.5,9.097 -6.5,8.5 l 0,-3.694 5.513,4.823 c 0.442,0.387 1.071,0.48 1.607,0.237 C 1.156,9.623 1.5,9.088 1.5,8.5 l 0,-3.694 5.513,4.823 c 0.442,0.387 1.07,0.48 1.607,0.237 C 9.156,9.623 9.5,9.088 9.5,8.5 l 0,-7 C 9.5,0.671 8.828,0 8,0 7.172,0 6.5,0.671 6.5,1.5 L 6.5,5.194 0.987,0.371 C 0.709,0.127 0.356,0 0,0"
             id="path28"
             style="fill:#ffffff;fill-opacity:1;fill-rule:nonzero;stroke:none" /></g><g
           transform="translate(22.5,7.5)"
           id="g30"><path
             d="M 0,0 C -0.21,0 -0.421,0.044 -0.62,0.134 -1.156,0.377 -1.5,0.911 -1.5,1.5 l 0,3.694 -5.512,-4.823 C -7.455,-0.016 -8.084,-0.107 -8.62,0.134 -9.156,0.377 -9.5,0.911 -9.5,1.5 l 0,3.548 -4.977,-4.645 c -0.605,-0.564 -1.555,-0.532 -2.12,0.074 -0.565,0.605 -0.532,1.554 0.074,2.12 l 7.5,7 c 0.437,0.407 1.073,0.515 1.621,0.279 C -6.854,9.638 -6.5,9.098 -6.5,8.5 l 0,-3.694 5.513,4.823 C -0.545,10.017 0.084,10.108 0.62,9.866 1.156,9.623 1.5,9.089 1.5,8.5 l 0,-3.694 5.513,4.823 C 7.455,10.017 8.083,10.108 8.62,9.866 9.156,9.623 9.5,9.089 9.5,8.5 l 0,-7 C 9.5,0.672 8.828,0 8,0 7.172,0 6.5,0.672 6.5,1.5 L 6.5,5.194 0.987,0.371 C 0.709,0.127 0.356,0 0,0"
             id="path32"
             style="fill:#ffffff;fill-opacity:1;fill-rule:nonzero;stroke:none" /></g></g></g></g></svg>