<svg xmlns="http://www.w3.org/2000/svg" viewBox="0 0 47.5 47.5" enable-background="new 0 0 47.5 47.5"><defs><clipPath id="a"><path d="M0 38h38V0H0v38z"/></clipPath></defs><g><g><g clip-path="url(#a)" transform="matrix(1.25 0 0 -1.25 0 47.5)"><g><path d="M33.8 16.66C33.8 25.54 19 36.8 19 36.8S4.2 25.54 4.2 16.66c0-6.94 8.18-10.17 12.77-5.17C16.63 7.3 12.25 4 8 4h.5C7.67 4 7 3.33 7 2.5S7.67 1 8.5 1h21c.83 0 1.5.67 1.5 1.5S30.33 4 29.5 4h.5c-4.25 0-8.63 3.3-8.97 7.5 4.6-5 12.77-1.78 12.77 5.16"/></g></g></g></g></svg>