<?xml version="1.0" encoding="UTF-8" standalone="no"?><svg xmlns:svg="http://www.w3.org/2000/svg" xmlns="http://www.w3.org/2000/svg" version="1.1" viewBox="0 0 47.5 47.5" style="enable-background:new 0 0 47.5 47.5;" id="svg2" xml:space="preserve"><defs id="defs6"><clipPath id="clipPath18"><path d="M 0,38 38,38 38,0 0,0 0,38 z" id="path20"/></clipPath></defs><g transform="matrix(1.25,0,0,-1.25,0,47.5)" id="g12"><g id="g14"><g clip-path="url(#clipPath18)" id="g16"><g transform="translate(33.7988,16.6641)" id="g22"><path d="m 0,0 c 0,8.88 -14.799,20.138 -14.799,20.138 0,0 -14.799,-11.258 -14.799,-20.138 0,-6.946 8.175,-10.172 12.766,-5.173 -0.335,-4.179 -4.72,-7.491 -8.967,-7.491 l 0.5,0 c -0.828,0 -1.5,-0.672 -1.5,-1.5 0,-0.828 0.672,-1.5 1.5,-1.5 l 21,0 c 0.828,0 1.5,0.672 1.5,1.5 0,0.828 -0.672,1.5 -1.5,1.5 l 0.5,0 c -4.246,0 -8.632,3.312 -8.967,7.491 C -8.175,-10.172 0,-6.946 0,0" id="path24" style="fill:#000000;fill-opacity:1;fill-rule:nonzero;stroke:none"/></g></g></g></g></svg>
