<svg xmlns="http://www.w3.org/2000/svg" viewBox="0 0 47.5 47.5" enable-background="new 0 0 47.5 47.5"><defs><clipPath id="a"><path d="M0 38h38V0H0v38z"/></clipPath></defs><g><g><g clip-path="url(#a)" transform="matrix(1.25 0 0 -1.25 0 47.5)"><g><path d="M26.5 9c4.14 0 7.5 3.36 7.5 7.5 0 4.14-3.36 7.5-7.5 7.5-1.36 0-2.63-.37-3.73-1h-.2c2.04 1.22 3.4 3.44 3.4 6 0 3.86-3.1 6.98-6.97 6.98-3.86 0-6.98-3.12-6.98-6.98 0-2.56 1.37-4.78 3.42-6h-.2c-1.1.63-2.38 1-3.74 1C7.36 24 4 20.64 4 16.5 4 12.36 7.36 9 11.5 9c2.15 0 4.1.9 5.46 2.37C16.56 7.25 12.2 4 8 4h.5C7.67 4 7 3.33 7 2.5S7.67 1 8.5 1h21c.83 0 1.5.67 1.5 1.5S30.33 4 29.5 4h.5c-4.2 0-8.55 3.25-8.96 7.37C22.4 9.9 24.34 9 26.5 9"/></g></g></g></g></svg>