<?xml version="1.0" encoding="UTF-8" standalone="no"?><svg xmlns:svg="http://www.w3.org/2000/svg" xmlns="http://www.w3.org/2000/svg" version="1.1" viewBox="0 0 47.5 47.5" style="enable-background:new 0 0 47.5 47.5;" id="svg2" xml:space="preserve"><defs id="defs6"><clipPath id="clipPath18"><path d="M 0,38 38,38 38,0 0,0 0,38 z" id="path20"/></clipPath></defs><g transform="matrix(1.25,0,0,-1.25,0,47.5)" id="g12"><g id="g14"><g clip-path="url(#clipPath18)" id="g16"><g transform="translate(32.5381,15.4277)" id="g22"><path d="m 0,0 c 0.928,-1.04 1.462,-2.199 1.462,-3.428 0,-4.418 -6.715,-8 -15,-8 -8.284,0 -15,3.582 -15,8 0,1.229 0.535,2.388 1.462,3.428 -2.163,-1.51 -3.462,-3.387 -3.462,-5.428 0,-4.97 7.611,-9 17,-9 9.389,0 17,4.03 17,9 C 3.462,-3.387 2.163,-1.51 0,0" id="path24" style="fill:#dd2e44;fill-opacity:1;fill-rule:nonzero;stroke:none"/></g><g transform="translate(10.001,9.5)" id="g26"><path d="m 0,0 c -0.55,0 -1.08,0.304 -1.343,0.829 -0.37,0.741 -0.07,1.642 0.671,2.013 0.12,0.062 3.171,1.692 3.171,5.658 0,2.127 -1.164,3.634 -2.396,5.229 -1.28,1.657 -2.604,3.371 -2.604,5.771 0,4.569 2.34,6.961 2.439,7.061 0.586,0.585 1.536,0.585 2.122,0 C 2.642,25.979 2.646,25.037 2.07,24.45 1.985,24.36 0.499,22.738 0.499,19.5 0.499,18.124 1.416,16.937 2.477,15.563 3.824,13.82 5.499,11.651 5.499,8.5 5.499,2.641 0.867,0.257 0.67,0.158 0.455,0.051 0.226,0 0,0" id="path28" style="fill:#dd2e44;fill-opacity:1;fill-rule:nonzero;stroke:none"/></g><g transform="translate(17.001,9.5)" id="g30"><path d="m 0,0 c -0.55,0 -1.08,0.304 -1.343,0.829 -0.37,0.741 -0.07,1.642 0.671,2.013 0.12,0.062 3.171,1.692 3.171,5.658 0,2.127 -1.164,3.634 -2.396,5.229 -1.28,1.657 -2.604,3.371 -2.604,5.771 0,4.569 2.34,6.961 2.439,7.061 0.586,0.585 1.536,0.585 2.122,0 C 2.642,25.979 2.646,25.037 2.07,24.45 1.985,24.36 0.499,22.738 0.499,19.5 0.499,18.124 1.416,16.937 2.477,15.563 3.823,13.82 5.499,11.651 5.499,8.5 5.499,2.641 0.867,0.257 0.67,0.158 0.455,0.051 0.226,0 0,0" id="path32" style="fill:#dd2e44;fill-opacity:1;fill-rule:nonzero;stroke:none"/></g><g transform="translate(24.001,9.5)" id="g34"><path d="m 0,0 c -0.55,0 -1.08,0.304 -1.343,0.829 -0.37,0.741 -0.07,1.642 0.671,2.013 0.12,0.062 3.171,1.692 3.171,5.658 0,2.127 -1.164,3.634 -2.395,5.229 -1.281,1.657 -2.605,3.371 -2.605,5.771 0,4.569 2.34,6.961 2.439,7.061 0.586,0.585 1.536,0.585 2.122,0 C 2.642,25.979 2.646,25.037 2.07,24.45 1.985,24.36 0.499,22.738 0.499,19.5 0.499,18.124 1.416,16.937 2.478,15.563 3.823,13.82 5.499,11.651 5.499,8.5 5.499,2.641 0.867,0.257 0.67,0.158 0.454,0.051 0.226,0 0,0" id="path36" style="fill:#dd2e44;fill-opacity:1;fill-rule:nonzero;stroke:none"/></g></g></g></g></svg>
