<svg xmlns="http://www.w3.org/2000/svg" viewBox="0 0 47.5 47.5" enable-background="new 0 0 47.5 47.5"><defs><clipPath id="a"><path d="M0 38h38V0H0v38z"/></clipPath></defs><g><g><g clip-path="url(#a)" transform="matrix(1.25 0 0 -1.25 0 47.5)"><g><path fill="#dd2e44" d="M32.54 15.43C33.47 14.4 34 13.23 34 12c0-4.42-6.7-8-15-8-8.28 0-15 3.58-15 8 0 1.23.54 2.4 1.46 3.43C3.3 13.93 2 12.03 2 10c0-4.97 7.6-9 17-9s17 4.03 17 9c0 2.04-1.3 3.92-3.46 5.43"/></g><g><path fill="#dd2e44" d="M10 9.5c-.55 0-1.08.3-1.34.83-.37.74-.07 1.64.67 2 .12.07 3.17 1.7 3.17 5.67 0 2.13-1.16 3.63-2.4 5.23C8.82 24.9 7.5 26.6 7.5 29c0 4.57 2.34 6.96 2.44 7.06.6.6 1.54.6 2.12 0 .58-.58.6-1.52 0-2.1-.07-.1-1.56-1.72-1.56-4.96 0-1.38.92-2.56 1.98-3.94 1.34-1.74 3.02-3.9 3.02-7.06 0-5.86-4.63-8.24-4.83-8.34-.2-.1-.44-.16-.67-.16"/></g><g><path fill="#dd2e44" d="M17 9.5c-.55 0-1.08.3-1.34.83-.37.74-.07 1.64.67 2 .12.07 3.17 1.7 3.17 5.67 0 2.13-1.16 3.63-2.4 5.23-1.28 1.66-2.6 3.37-2.6 5.77 0 4.57 2.34 6.96 2.44 7.06.58.6 1.53.6 2.12 0 .58-.58.6-1.52 0-2.1-.07-.1-1.56-1.72-1.56-4.96 0-1.38.92-2.56 1.98-3.94 1.34-1.74 3.02-3.9 3.02-7.06 0-5.86-4.63-8.24-4.83-8.34-.2-.1-.44-.16-.67-.16"/></g><g><path fill="#dd2e44" d="M24 9.5c-.55 0-1.08.3-1.34.83-.37.74-.07 1.64.67 2 .12.07 3.17 1.7 3.17 5.67 0 2.13-1.16 3.63-2.4 5.23-1.28 1.66-2.6 3.37-2.6 5.77 0 4.57 2.34 6.96 2.44 7.06.58.6 1.53.6 2.12 0 .58-.58.6-1.52 0-2.1-.07-.1-1.56-1.72-1.56-4.96 0-1.38.92-2.56 1.98-3.94 1.34-1.74 3.02-3.9 3.02-7.06 0-5.86-4.63-8.24-4.83-8.34-.22-.1-.44-.16-.67-.16"/></g></g></g></g></svg>