<svg xmlns="http://www.w3.org/2000/svg" viewBox="0 0 47.5 47.5" enable-background="new 0 0 47.5 47.5"><defs><clipPath id="a"><path d="M0 38h38V0H0v38z"/></clipPath></defs><g><g><g clip-path="url(#a)" transform="matrix(1.25 0 0 -1.25 0 47.5)"><g><path fill="#3e721d" d="M31 8c-.35 0-.68.18-.87.5l-4.23 6.98c-.28.48-.17 1.08.3 1.35l4.97 3c.15.1.5.17.66.17.35 0 .67-.2.86-.52l3.1-5.12.16-2.24c.27-.47-.96-1.18-1.44-1.45L31.5 8.13c-.16-.1-.33-.13-.5-.13"/></g><g><path fill="#77b255" d="M24 5c-.55 0-1 .45-1 1v6c0 .55.45 1 1 1h10c1.85 0 1.55 1.78 1.55 1.78s.33-.56.38-.65c.32-.6.54-1.55.03-2.5l-3.1-6.13c-.14-.3-.48-.5-.86-.5h-8z"/></g><g><path fill="#77b255" d="M23 2c-.26 0-.52.1-.7.3l-6 6c-.4.38-.4 1.02 0 1.4l6 6c.18.2.44.3.7.3.13 0 .26-.02.38-.08.38-.15.62-.52.62-.92V3c0-.4-.24-.77-.62-.92-.12-.06-.25-.08-.38-.08"/></g><g><path fill="#3e721d" d="M21.6 33.7c.15-.3.14-.7-.06-1l-4.3-6.94c-.3-.47-.88-.64-1.34-.34l-4.93 3.05c-.15.1-.37.37-.45.52-.15.3-.12.68.08 1l3.15 5.08 1.92 1.16c.3.47 1.5-.3 1.95-.6l3.63-1.56c.15-.1.27-.23.34-.38"/></g><g><path fill="#77b255" d="M27.44 28.82c.26-.5.06-1.1-.43-1.34l-5.34-2.73c-.5-.25-1.1-.05-1.34.44l-4.54 8.9c-.84 1.65-2.3.57-2.3.57s.36.55.42.63c.4.57 1.13 1.2 2.2 1.17l6.87.03c.32 0 .67-.2.84-.55l3.64-7.13z"/></g><g><path fill="#77b255" d="M30.57 29.3c.12-.24.15-.5.06-.77L28 20.46c-.16-.52-.72-.8-1.25-.64l-8.07 2.62c-.26.1-.46.27-.58.5-.06.1-.1.24-.1.38-.04.4.18.78.53.96l10.7 5.45c.36.2.8.14 1.1-.13.1-.08.18-.2.24-.3"/></g><g><path fill="#3e721d" d="M4.38 12.46c.18.3.5.5.88.48h8.16c.55-.02 1-.43 1-.98l-.02-5.8c0-.17-.12-.5-.2-.65-.18-.3-.52-.46-.9-.45h-6L5.33 6.1c-.55 0-.5 1.43-.5 1.98l-.6 3.9c0 .2.07.35.16.5"/></g><g><path fill="#77b255" d="M5.45 20c.3.47.9.62 1.38.33l5.12-3.12c.47-.27.62-.9.34-1.36L7.1 7.3c-.97-1.58.7-2.25.7-2.25s-.64 0-.75.02c-.7.03-1.6.34-2.16 1.27l-3.63 5.82c-.17.27-.17.68.02 1L5.44 20z"/></g><g><path fill="#77b255" d="M3.4 22.4c.14.23.36.4.63.46l8.24 2c.54.14 1.08-.2 1.2-.72l2.02-8.25c.05-.27 0-.54-.13-.77-.07-.1-.16-.2-.27-.28-.32-.24-.76-.26-1.1-.05L3.73 21.04c-.34.2-.53.6-.47 1 .02.14.07.26.14.37"/></g></g></g></g></svg>