<?xml version="1.0" encoding="UTF-8" standalone="no"?><svg xmlns:dc="http://purl.org/dc/elements/1.1/" xmlns:cc="http://creativecommons.org/ns#" xmlns:rdf="http://www.w3.org/1999/02/22-rdf-syntax-ns#" xmlns:svg="http://www.w3.org/2000/svg" xmlns="http://www.w3.org/2000/svg" viewBox="0 0 47.5 47.5" style="enable-background:new 0 0 47.5 47.5;" xml:space="preserve" version="1.1" id="svg2"><metadata id="metadata8"><rdf:RDF><cc:Work rdf:about=""><dc:format>image/svg+xml</dc:format><dc:type rdf:resource="http://purl.org/dc/dcmitype/StillImage"/></cc:Work></rdf:RDF></metadata><defs id="defs6"><clipPath id="clipPath16" clipPathUnits="userSpaceOnUse"><path id="path18" d="M 0,38 38,38 38,0 0,0 0,38 Z"/></clipPath></defs><g transform="matrix(1.25,0,0,-1.25,0,47.5)" id="g10"><g id="g12"><g clip-path="url(#clipPath16)" id="g14"><g transform="translate(37,5)" id="g20"><path id="path22" style="fill:#3b88c3;fill-opacity:1;fill-rule:nonzero;stroke:none" d="m 0,0 c 0,-2.209 -1.791,-4 -4,-4 l -28,0 c -2.209,0 -4,1.791 -4,4 l 0,28 c 0,2.209 1.791,4 4,4 l 28,0 c 2.209,0 4,-1.791 4,-4 L 0,0 Z"/></g><g transform="translate(31,30)" id="g24"><path id="path26" style="fill:#ffffff;fill-opacity:1;fill-rule:nonzero;stroke:none" d="m 0,0 c 0,-1.657 -1.344,-3 -3,-3 -1.656,0 -3,1.343 -3,3 0,1.657 1.344,3 3,3 1.656,0 3,-1.343 3,-3"/></g><g transform="translate(14.0601,23.9399)" id="g28"><path id="path30" style="fill:#ffffff;fill-opacity:1;fill-rule:nonzero;stroke:none" d="M 0,0 2.367,2.366 6.226,1.208 3.591,-1.638 C 5.357,-2.332 6.874,-3.513 7.983,-5.017 L 13,0 c 0.373,0.373 0.523,0.916 0.393,1.427 -0.129,0.512 -0.518,0.919 -1.023,1.07 l -9.999,3 C 1.842,5.657 1.269,5.512 0.879,5.121 l -3,-3 C -2.707,1.536 -2.707,0.585 -2.121,0 -1.535,-0.586 -0.586,-0.586 0,0"/></g><g transform="translate(30.125,18.9912)" id="g32"><path id="path34" style="fill:#ffffff;fill-opacity:1;fill-rule:nonzero;stroke:none" d="m 0,0 c -0.316,0.359 -0.787,0.549 -1.262,0.503 l -6.786,-0.617 c 0.632,-0.867 1.135,-1.833 1.464,-2.879 l 3.548,0.322 -1.554,-6.995 c -0.18,-0.809 0.33,-1.609 1.139,-1.789 0.109,-0.024 0.219,-0.036 0.326,-0.036 0.688,0 1.308,0.475 1.463,1.175 l 2,9 C 0.442,-0.849 0.316,-0.36 0,0"/></g><g transform="translate(13.9995,7)" id="g36"><path id="path38" style="fill:#ffffff;fill-opacity:1;fill-rule:nonzero;stroke:none" d="m 0,0 c -3.313,0 -6,2.687 -6,6 0,3.313 2.687,6 6,6 C 3.314,12 6,9.313 6,6 6,2.687 3.314,0 0,0 m 0,14 c -4.418,0 -8,-3.582 -8,-8 0,-4.418 3.582,-8 8,-8 4.418,0 8,3.582 8,8 0,4.418 -3.582,8 -8,8"/></g></g></g></g></svg>
