<svg xmlns="http://www.w3.org/2000/svg" viewBox="0 0 47.5 47.5" enable-background="new 0 0 47.5 47.5"><defs><clipPath id="a"><path d="M0 38h38V0H0v38z"/></clipPath></defs><g><g><g clip-path="url(#a)" transform="matrix(1.25 0 0 -1.25 0 47.5)"><g><path fill="#3b88c3" d="M37 5c0-2.2-1.8-4-4-4H5C2.8 1 1 2.8 1 5v28c0 2.2 1.8 4 4 4h28c2.2 0 4-1.8 4-4V5z"/></g><g><path fill="#fff" d="M31 30c0-1.66-1.34-3-3-3s-3 1.34-3 3 1.34 3 3 3 3-1.34 3-3"/></g><g><path fill="#fff" d="M14.06 23.94l2.37 2.37 3.86-1.15-2.65-2.85c1.77-.7 3.28-1.87 4.4-3.38l5 5.02c.38.37.53.92.4 1.43-.13.5-.5.92-1.02 1.07l-10 3c-.53.16-1.1 0-1.5-.38l-3-3c-.58-.58-.58-1.54 0-2.12.6-.6 1.54-.6 2.13 0"/></g><g><path fill="#fff" d="M30.13 19c-.32.35-.8.54-1.27.5l-6.78-.62c.63-.87 1.13-1.84 1.46-2.88l3.55.32-1.57-7c-.18-.8.33-1.6 1.14-1.78.1-.03.22-.04.33-.04.7 0 1.3.48 1.46 1.18l2 9c.1.46-.02.95-.34 1.3"/></g><g><path fill="#fff" d="M14 7c-3.3 0-6 2.7-6 6s2.7 6 6 6 6-2.7 6-6-2.7-6-6-6m0 14c-4.42 0-8-3.58-8-8s3.58-8 8-8 8 3.58 8 8-3.58 8-8 8"/></g></g></g></g></svg>