<svg xmlns="http://www.w3.org/2000/svg" viewBox="0 0 47.5 47.5" enable-background="new 0 0 47.5 47.5"><defs><clipPath id="a"><path d="M0 38h38V0H0v38z"/></clipPath></defs><g><g><g clip-path="url(#a)" transform="matrix(1.25 0 0 -1.25 0 47.5)"><g><path fill="#269" d="M16 31c0 1.66 1.34 3 3 3s3-1.34 3-3-1.34-3-3-3-3 1.34-3 3m20-19l-4.5 6.43L27 12h2.58C28.45 8 25.13 4.95 21 4.2V20h3c1.1 0 2 .9 2 2s-.9 2-2 2h-3v1.35c2.33.82 4 3.04 4 5.65 0 3.3-2.7 6-6 6s-6-2.7-6-6c0-2.6 1.67-4.83 4-5.65V24h-3c-1.1 0-2-.9-2-2s.9-2 2-2h3V4.2C12.87 4.94 9.55 8 8.43 12H11l-4.5 6.43L2 12h3.33C6.7 5.7 12.3 1 19 1s12.3 4.7 13.67 11H36z"/></g></g></g></g></svg>