<svg xmlns="http://www.w3.org/2000/svg" viewBox="0 0 47.5 47.5" enable-background="new 0 0 47.5 47.5"><defs><clipPath id="a"><path d="M0 38h38V0H0v38z"/></clipPath></defs><g><g><g clip-path="url(#a)" transform="matrix(1.25 0 0 -1.25 0 47.5)"><g><path fill="#ffcc4d" d="M3.65 2C1.8 2 1 3.34 1.85 4.97l15.6 30.06c.85 1.63 2.24 1.63 3.1 0l15.6-30.06C37 3.34 36.2 2 34.35 2H3.65z"/></g><g><path fill="#231f20" d="M16.77 26.34c0 1.3.96 2.1 2.23 2.1 1.24 0 2.23-.83 2.23-2.1V14.4c0-1.27-1-2.1-2.23-2.1-1.27 0-2.23.8-2.23 2.1v11.94zm-.2-18.3c0 1.34 1.1 2.42 2.43 2.42s2.42-1.08 2.42-2.4c0-1.35-1.1-2.43-2.42-2.43-1.33 0-2.42 1.08-2.42 2.42"/></g></g></g></g></svg>