<?xml version="1.0" encoding="UTF-8" standalone="no"?><svg xmlns:svg="http://www.w3.org/2000/svg" xmlns="http://www.w3.org/2000/svg" version="1.1" viewBox="0 0 47.5 47.5" style="enable-background:new 0 0 47.5 47.5;" id="svg2" xml:space="preserve"><defs id="defs6"><clipPath id="clipPath18"><path d="M 0,38 38,38 38,0 0,0 0,38 z" id="path20"/></clipPath></defs><g transform="matrix(1.25,0,0,-1.25,0,47.5)" id="g12"><g id="g14"><g clip-path="url(#clipPath18)" id="g16"><g transform="translate(11,1)" id="g22"><path d="m 0,0 c -0.218,0 -0.437,0.071 -0.619,0.214 -0.376,0.297 -0.489,0.817 -0.27,1.243 L 6.076,15 -6,15 c -0.418,0 -0.792,0.26 -0.937,0.651 -0.146,0.392 -0.033,0.832 0.283,1.106 l 22.001,19 C 15.534,35.918 15.767,36 16,36 c 0.218,0 0.437,-0.071 0.618,-0.214 0.377,-0.296 0.49,-0.818 0.272,-1.244 L 9.925,21 22,21 c 0.418,0 0.792,-0.26 0.937,-0.651 0.146,-0.392 0.033,-0.833 -0.284,-1.106 L 0.654,0.243 C 0.466,0.081 0.233,0 0,0" id="path24" style="fill:#f4900c;fill-opacity:1;fill-rule:nonzero;stroke:none"/></g></g></g></g></svg>
