<svg xmlns="http://www.w3.org/2000/svg" viewBox="0 0 47.5 47.5" enable-background="new 0 0 47.5 47.5"><defs><clipPath id="a"><path d="M0 38h38V0H0v38z"/></clipPath></defs><g><g><g clip-path="url(#a)" transform="matrix(1.25 0 0 -1.25 0 47.5)"><g><path fill="#f4900c" d="M11 1c-.22 0-.44.07-.62.2-.38.3-.5.83-.27 1.26L17.1 16H5c-.42 0-.8.26-.94.65-.14.4-.03.83.3 1.1l22 19c.17.17.4.25.64.25.22 0 .44-.07.62-.2.37-.3.5-.83.27-1.26L20.92 22H33c.42 0 .8-.26.94-.65.14-.4.03-.83-.3-1.1l-22-19c-.17-.17-.4-.25-.64-.25"/></g></g></g></g></svg>