<?xml version="1.0" encoding="UTF-8" standalone="no"?>
<!-- Created with Inkscape (http://www.inkscape.org/) -->

<svg
   xmlns:svg="http://www.w3.org/2000/svg"
   xmlns="http://www.w3.org/2000/svg"
   version="1.1"
   width="47.5"
   height="47.5"
   id="svg2"
   xml:space="preserve"><defs
     id="defs6"><clipPath
       id="clipPath18"><path
         d="M 0,38 38,38 38,0 0,0 0,38 z"
         id="path20" /></clipPath></defs><g
     transform="matrix(1.25,0,0,-1.25,0,47.5)"
     id="g12"><g
       id="g14"><g
         clip-path="url(#clipPath18)"
         id="g16"><g
           transform="translate(9,11)"
           id="g22"><path
             d="M 0,0 C 0,5.523 4.477,10 10,10 15.522,10 20,5.523 20,0 20,-5.522 15.522,-10 10,-10 4.477,-10 0,-5.522 0,0"
             id="path24"
             style="fill:#f1f2f2;fill-opacity:1;fill-rule:nonzero;stroke:none" /></g><g
           transform="translate(13,25.9995)"
           id="g26"><path
             d="M 0,0 C 0,3.314 2.686,6 6,6 9.313,6 12,3.314 12,0 12,-3.314 9.313,-6 6,-6 2.686,-6 0,-3.314 0,0"
             id="path28"
             style="fill:#f1f2f2;fill-opacity:1;fill-rule:nonzero;stroke:none" /></g><g
           transform="translate(24,31)"
           id="g30"><path
             d="m 0,0 c 0,-1.104 -0.896,-2 -2,-2 l -6,0 c -1.104,0 -2,0.896 -2,2 l 0,4 c 0,1.104 0.896,2 2,2 l 6,0 C -0.896,6 0,5.104 0,4 L 0,0 z"
             id="path32"
             style="fill:#414042;fill-opacity:1;fill-rule:nonzero;stroke:none" /></g><g
           transform="translate(26,30)"
           id="g34"><path
             d="m 0,0 c 0,-0.552 -0.447,-1 -1,-1 l -12,0 c -0.552,0 -1,0.448 -1,1 0,0.552 0.448,1 1,1 L -1,1 C -0.447,1 0,0.552 0,0"
             id="path36"
             style="fill:#231f20;fill-opacity:1;fill-rule:nonzero;stroke:none" /></g><g
           transform="translate(23.5,22)"
           id="g38"><path
             d="m 0,0 -9,0 c -0.829,0 -1.5,-0.671 -1.5,-1.5 0,-0.652 0.419,-1.202 1,-1.408 l 0,-7.092 c 0,-0.553 0.448,-1 1,-1 l 1,0 c 0.552,0 1,0.447 1,1 l 0,7 6.5,0 c 0.828,0 1.5,0.671 1.5,1.5 C 1.5,-0.671 0.828,0 0,0"
             id="path40"
             style="fill:#dd2e44;fill-opacity:1;fill-rule:nonzero;stroke:none" /></g><g
           transform="translate(20,13)"
           id="g42"><path
             d="m 0,0 c 0,-0.553 -0.447,-1 -1,-1 -0.552,0 -1,0.447 -1,1 0,0.553 0.448,1 1,1 0.553,0 1,-0.447 1,-1"
             id="path44"
             style="fill:#414042;fill-opacity:1;fill-rule:nonzero;stroke:none" /></g><g
           transform="translate(20,8)"
           id="g46"><path
             d="m 0,0 c 0,-0.553 -0.447,-1 -1,-1 -0.552,0 -1,0.447 -1,1 0,0.553 0.448,1 1,1 0.553,0 1,-0.447 1,-1"
             id="path48"
             style="fill:#414042;fill-opacity:1;fill-rule:nonzero;stroke:none" /></g><g
           transform="translate(20,25)"
           id="g50"><path
             d="m 0,0 c 0,-0.553 -0.447,-1 -1,-1 -0.552,0 -1,0.447 -1,1 0,0.553 0.448,1 1,1 0.553,0 1,-0.447 1,-1"
             id="path52"
             style="fill:#f4900c;fill-opacity:1;fill-rule:nonzero;stroke:none" /></g><g
           transform="translate(17,27)"
           id="g54"><path
             d="m 0,0 c 0,-0.553 -0.448,-1 -1,-1 -0.552,0 -1,0.447 -1,1 0,0.553 0.448,1 1,1 0.552,0 1,-0.447 1,-1"
             id="path56"
             style="fill:#414042;fill-opacity:1;fill-rule:nonzero;stroke:none" /></g><g
           transform="translate(23,27)"
           id="g58"><path
             d="m 0,0 c 0,-0.553 -0.447,-1 -1,-1 -0.553,0 -1,0.447 -1,1 0,0.553 0.447,1 1,1 0.553,0 1,-0.447 1,-1"
             id="path60"
             style="fill:#414042;fill-opacity:1;fill-rule:nonzero;stroke:none" /></g><g
           transform="translate(11.394,16.9189)"
           id="g62"><path
             d="M 0,0 -3.452,1.479 -3.999,4.345 C -4.103,4.887 -4.623,5.241 -5.169,5.14 -5.711,5.036 -6.067,4.512 -5.964,3.97 L -5.67,2.43 -7,3 C -7.508,3.218 -8.096,2.982 -8.313,2.475 -8.531,1.967 -8.295,1.379 -7.788,1.162 l 0.743,-0.318 -1.056,-1.056 c -0.391,-0.391 -0.391,-1.023 0,-1.414 0.195,-0.195 0.451,-0.293 0.707,-0.293 0.256,0 0.512,0.098 0.707,0.293 l 1.621,1.621 4.278,-1.833 c 0.128,-0.056 0.262,-0.081 0.393,-0.081 0.389,0 0.758,0.227 0.92,0.607 C 0.743,-0.805 0.507,-0.218 0,0"
             id="path64"
             style="fill:#ffac33;fill-opacity:1;fill-rule:nonzero;stroke:none" /></g><g
           transform="translate(34.3164,19.9487)"
           id="g66"><path
             d="m 0,0 -1.465,0.488 0.856,0.856 c 0.39,0.39 0.39,1.023 0,1.414 -0.391,0.39 -1.024,0.39 -1.414,0 L -2.774,2.006 -3.347,4.293 C -3.48,4.829 -4.024,5.159 -4.559,5.021 -5.095,4.887 -5.421,4.344 -5.286,3.808 l 0.862,-3.45 -3.599,-3.6 c -0.391,-0.39 -0.391,-1.023 0,-1.414 0.195,-0.195 0.451,-0.293 0.707,-0.293 0.255,0 0.511,0.098 0.707,0.293 l 3.563,3.563 2.413,-0.804 c 0.106,-0.036 0.212,-0.052 0.317,-0.052 0.419,0 0.808,0.265 0.948,0.684 C 0.807,-0.741 0.523,-0.175 0,0"
             id="path68"
             style="fill:#ffac33;fill-opacity:1;fill-rule:nonzero;stroke:none" /></g></g></g></g></svg>