<svg xmlns="http://www.w3.org/2000/svg" viewBox="0 0 47.5 47.5" enable-background="new 0 0 47.5 47.5"><defs><clipPath id="a"><path d="M0 38h38V0H0v38z"/></clipPath></defs><g><g><g clip-path="url(#a)" transform="matrix(1.25 0 0 -1.25 0 47.5)"><g><path fill="#f1f2f2" d="M9 11c0 5.52 4.48 10 10 10s10-4.48 10-10S24.52 1 19 1 9 5.48 9 11"/></g><g><path fill="#f1f2f2" d="M13 26c0 3.3 2.7 6 6 6s6-2.7 6-6-2.7-6-6-6-6 2.7-6 6"/></g><g><path fill="#414042" d="M24 31c0-1.1-.9-2-2-2h-6c-1.1 0-2 .9-2 2v4c0 1.1.9 2 2 2h6c1.1 0 2-.9 2-2v-4z"/></g><g><path fill="#231f20" d="M26 30c0-.55-.45-1-1-1H13c-.55 0-1 .45-1 1s.45 1 1 1h12c.55 0 1-.45 1-1"/></g><g><path fill="#dd2e44" d="M23.5 22h-9c-.83 0-1.5-.67-1.5-1.5 0-.65.42-1.2 1-1.4V12c0-.55.45-1 1-1h1c.55 0 1 .45 1 1v7h6.5c.83 0 1.5.67 1.5 1.5s-.67 1.5-1.5 1.5"/></g><g><path fill="#414042" d="M20 13c0-.55-.45-1-1-1s-1 .45-1 1 .45 1 1 1 1-.45 1-1"/></g><g><path fill="#414042" d="M20 8c0-.55-.45-1-1-1s-1 .45-1 1 .45 1 1 1 1-.45 1-1"/></g><g><path fill="#f4900c" d="M20 25c0-.55-.45-1-1-1s-1 .45-1 1 .45 1 1 1 1-.45 1-1"/></g><g><path fill="#414042" d="M17 27c0-.55-.45-1-1-1s-1 .45-1 1 .45 1 1 1 1-.45 1-1"/></g><g><path fill="#414042" d="M23 27c0-.55-.45-1-1-1s-1 .45-1 1 .45 1 1 1 1-.45 1-1"/></g><g><path fill="#ffac33" d="M11.4 16.92L7.93 18.4l-.55 2.86c-.1.55-.63.9-1.18.8-.54-.1-.9-.63-.8-1.17l.3-1.55-1.33.57c-.5.22-1.1-.02-1.32-.53-.22-.5.02-1.1.53-1.32l.75-.32L3.3 16.7c-.4-.38-.4-1.02 0-1.4.2-.2.44-.3.7-.3.26 0 .5.1.7.3l1.63 1.6 4.28-1.82c.13-.06.27-.08.4-.08.4 0 .76.23.92.6.22.5-.02 1.1-.53 1.32"/></g><g><path fill="#ffac33" d="M34.32 19.95l-1.47.5.86.84c.4.38.4 1.02 0 1.4-.38.4-1.02.4-1.4 0l-.76-.75-.57 2.3c-.13.53-.68.86-1.2.72-.55-.13-.87-.68-.74-1.2l.86-3.46-3.6-3.6c-.4-.38-.4-1.02 0-1.4.2-.2.44-.3.7-.3.26 0 .5.1.7.3l3.57 3.56 2.4-.8c.12-.04.23-.06.33-.06.42 0 .8.26.95.68.17.53-.1 1.1-.63 1.27"/></g></g></g></g></svg>