<?xml version="1.0" encoding="UTF-8" standalone="no"?><svg xmlns:svg="http://www.w3.org/2000/svg" xmlns="http://www.w3.org/2000/svg" version="1.1" viewBox="0 0 47.5 47.5" style="enable-background:new 0 0 47.5 47.5;" id="svg2" xml:space="preserve"><defs id="defs6"><clipPath id="clipPath18"><path d="M 0,38 38,38 38,0 0,0 0,38 z" id="path20"/></clipPath></defs><g transform="matrix(1.25,0,0,-1.25,0,47.5)" id="g12"><g id="g14"><g clip-path="url(#clipPath18)" id="g16"><g transform="translate(37,5)" id="g22"><path d="m 0,0 c 0,-2.209 -1.791,-4 -4,-4 l -28,0 c -2.209,0 -4,1.791 -4,4 l 0,28 c 0,2.209 1.791,4 4,4 l 28,0 c 2.209,0 4,-1.791 4,-4 L 0,0 z" id="path24" style="fill:#f4900c;fill-opacity:1;fill-rule:nonzero;stroke:none"/></g><g transform="translate(19,6.5)" id="g26"><path d="m 0,0 c -5.526,0 -8,4.27 -8,8.5 l 0,15 c 0,0.829 0.671,1.5 1.5,1.5 0.829,0 1.5,-0.671 1.5,-1.5 l 0,-15 C -5,7.21 -4.64,3 0,3 4.64,3 5,7.21 5,8.5 l 0,15 C 5,24.329 5.672,25 6.5,25 7.328,25 8,24.329 8,23.5 L 8,8.5 C 8,4.27 5.526,0 0,0" id="path28" style="fill:#ffffff;fill-opacity:1;fill-rule:nonzero;stroke:none"/></g><g transform="translate(5,15.5)" id="g30"><path d="m 0,0 c -0.384,0 -0.768,0.146 -1.061,0.439 -0.585,0.586 -0.585,1.536 0,2.122 0.525,0.524 0.987,1.018 1.415,1.475 C 2.428,6.25 4.066,8 8,8 10.43,8 12.649,6.613 14.795,5.272 16.664,4.104 18.431,3 20,3 c 2.633,0 3.518,0.945 5.457,3.015 0.447,0.479 0.933,0.996 1.482,1.546 0.586,0.585 1.536,0.585 2.122,0 0.585,-0.586 0.585,-1.536 0,-2.122 C 28.536,4.915 28.074,4.421 27.646,3.964 25.572,1.749 23.934,0 20,0 17.569,0 15.351,1.387 13.205,2.728 11.335,3.896 9.57,5 8,5 5.367,5 4.482,4.055 2.543,1.985 2.095,1.507 1.611,0.989 1.061,0.439 0.768,0.146 0.384,0 0,0" id="path32" style="fill:#ffffff;fill-opacity:1;fill-rule:nonzero;stroke:none"/></g></g></g></g></svg>
