<svg xmlns="http://www.w3.org/2000/svg" viewBox="0 0 47.5 47.5" enable-background="new 0 0 47.5 47.5"><defs><clipPath id="a"><path d="M0 38h38V0H0v38z"/></clipPath></defs><g><g><g clip-path="url(#a)" transform="matrix(1.25 0 0 -1.25 0 47.5)"><g><path fill="#f4900c" d="M37 5c0-2.2-1.8-4-4-4H5C2.8 1 1 2.8 1 5v28c0 2.2 1.8 4 4 4h28c2.2 0 4-1.8 4-4V5z"/></g><g><path fill="#fff" d="M19 6.5c-5.53 0-8 4.27-8 8.5v15c0 .83.67 1.5 1.5 1.5S14 30.83 14 30V15c0-1.3.36-5.5 5-5.5s5 4.2 5 5.5v15c0 .83.67 1.5 1.5 1.5S27 30.83 27 30V15c0-4.23-2.47-8.5-8-8.5"/></g><g><path fill="#fff" d="M5 15.5c-.38 0-.77.15-1.06.44-.6.6-.6 1.54 0 2.12.52.53 1 1.02 1.4 1.48 2.1 2.2 3.73 3.96 7.66 3.96 2.43 0 4.65-1.4 6.8-2.73 1.86-1.17 3.63-2.27 5.2-2.27 2.63 0 3.52.94 5.46 3.02.44.47.93 1 1.48 1.54.58.6 1.53.6 2.12 0 .6-.58.6-1.53 0-2.12-.52-.53-1-1.02-1.4-1.48-2.1-2.2-3.73-3.96-7.66-3.96-2.43 0-4.65 1.4-6.8 2.73-1.87 1.17-3.63 2.27-5.2 2.27-2.63 0-3.52-.95-5.46-3.02-.45-.47-.93-1-1.48-1.54-.3-.3-.68-.44-1.06-.44"/></g></g></g></g></svg>