<?xml version="1.0" encoding="UTF-8" standalone="no"?>
<!-- Created with Inkscape (http://www.inkscape.org/) -->

<svg
   xmlns:svg="http://www.w3.org/2000/svg"
   xmlns="http://www.w3.org/2000/svg"
   version="1.1"
   width="47.5"
   height="47.5"
   id="svg2"
   xml:space="preserve"><defs
     id="defs6"><clipPath
       id="clipPath18"><path
         d="M 0,38 38,38 38,0 0,0 0,38 z"
         id="path20" /></clipPath><clipPath
       id="clipPath30"><path
         d="M 1.193,5 C 1.193,3 3,1 5,1 l 0,0 28,0 c 2,0 3.731,2 3.731,4 l 0,0 c 0,4.355 -4.634,11 -17.731,11 l 0,0 C 5.508,16 1.193,9.541 1.193,5"
         id="path32" /></clipPath><clipPath
       id="clipPath42"><path
         d="M 0,38 38,38 38,0 0,0 0,38 z"
         id="path44" /></clipPath></defs><g
     transform="matrix(1.25,0,0,-1.25,0,47.5)"
     id="g12"><g
       id="g14"><g
         clip-path="url(#clipPath18)"
         id="g16"><g
           transform="translate(5,1)"
           id="g22"><path
             d="m 0,0 28,0 c 2,0 3.73,2 3.73,4 C 31.73,8.355 27.097,15 14,15 0.508,15 -3.807,8.541 -3.807,4 -3.807,2 -2,0 0,0"
             id="path24"
             style="fill:#77b255;fill-opacity:1;fill-rule:nonzero;stroke:none" /></g></g></g><g
       id="g26"><g
         clip-path="url(#clipPath30)"
         id="g28"><g
           transform="translate(12.2915,7.5)"
           id="g34"><path
             d="m 0,0 c 1.125,3.75 9.75,7.666 14.333,7.625 5,-0.045 2.625,-0.792 1.625,-0.792 -1,0 -11.791,-2.625 -14,-7.5 C 0.958,-0.667 0,0 0,0"
             id="path36"
             style="fill:#5c913b;fill-opacity:1;fill-rule:nonzero;stroke:none" /></g></g></g><g
       id="g38"><g
         clip-path="url(#clipPath42)"
         id="g40"><g
           transform="translate(20,6.5)"
           id="g46"><path
             d="m 0,0 c 0,-1.381 -2.91,-2.5 -6.5,-2.5 -3.59,0 -6.5,1.119 -6.5,2.5 0,1.381 2.91,2.5 6.5,2.5 C -2.91,2.5 0,1.381 0,0"
             id="path48"
             style="fill:#292f33;fill-opacity:1;fill-rule:nonzero;stroke:none" /></g><g
           transform="translate(11,33)"
           id="g50"><path
             d="m 0,0 0,-26 c 0,-0.553 0.448,-0.844 1,-0.844 0.552,0 1,0.291 1,0.844 L 2,0 0,0 z"
             id="path52"
             style="fill:#ffac33;fill-opacity:1;fill-rule:nonzero;stroke:none" /></g><g
           transform="translate(11,34)"
           id="g54"><path
             d="m 0,0 c 0,2.2 1.695,3.395 3.767,2.655 l 9.466,-3.381 c 2.072,-0.74 2.072,-1.951 0,-2.691 L 3.767,-6.798 C 1.695,-7.538 0,-6.343 0,-4.143 L 0,0 z"
             id="path56"
             style="fill:#dd2e44;fill-opacity:1;fill-rule:nonzero;stroke:none" /></g></g></g></g></svg>