<?xml version="1.0" encoding="UTF-8" standalone="no"?><svg xmlns:svg="http://www.w3.org/2000/svg" xmlns="http://www.w3.org/2000/svg" version="1.1" viewBox="0 0 47.5 47.5" style="enable-background:new 0 0 47.5 47.5;" id="svg2" xml:space="preserve"><defs id="defs6"><clipPath id="clipPath18"><path d="M 0,38 38,38 38,0 0,0 0,38 z" id="path20"/></clipPath></defs><g transform="matrix(1.25,0,0,-1.25,0,47.5)" id="g12"><g id="g14"><g clip-path="url(#clipPath18)" id="g16"><g transform="translate(21,11)" id="g22"><path d="m 0,0 c 0,-0.553 -0.447,-1 -1,-1 -0.552,0 -1,0.447 -1,1 l 0,25 c 0,0.552 0.448,1 1,1 0.553,0 1,-0.448 1,-1 L 0,0 z" id="path24" style="fill:#a7a9ac;fill-opacity:1;fill-rule:nonzero;stroke:none"/></g><g transform="translate(4,13)" id="g26"><path d="M 0,0 31,0 31,-8 9,-8 C 3,-8 0,0 0,0" id="path28" style="fill:#d1d3d4;fill-opacity:1;fill-rule:nonzero;stroke:none"/></g><path d="M 37,7 1,7 1,1 37,1 37,7 z" id="path30" style="fill:#55acee;fill-opacity:1;fill-rule:nonzero;stroke:none"/><g transform="translate(6,15)" id="g32"><path d="m 0,0 c 0,0 2,5 5,9 3,4 8,8 8,8 C 13,17 12,6 12,1 L 12,0 C 12,0 9,1 6,1 3,1 0,0 0,0" id="path34" style="fill:#ffac33;fill-opacity:1;fill-rule:nonzero;stroke:none"/></g><g transform="translate(21,35)" id="g36"><path d="m 0,0 c 0,0 6,-6 9,-11 2.771,-4.618 4,-9 4,-9 0,0 -3,1 -6,1 -3,0 -6,-1 -6,-1 l 0,1 C 1,-10 0,0 0,0" id="path38" style="fill:#f4900c;fill-opacity:1;fill-rule:nonzero;stroke:none"/></g><g transform="translate(3,13)" id="g40"><path d="m 0,0 c -0.552,0 -1,-0.447 -1,-1 0,-0.553 0.448,-1 1,-1 l 33,0 0,2 -33,0 z" id="path42" style="fill:#e6e7e8;fill-opacity:1;fill-rule:nonzero;stroke:none"/></g></g></g></g></svg>
