<svg xmlns="http://www.w3.org/2000/svg" viewBox="0 0 47.5 47.5" enable-background="new 0 0 47.5 47.5"><defs><clipPath id="a"><path d="M0 38h38V0H0v38z"/></clipPath></defs><g><g><g clip-path="url(#a)" transform="matrix(1.25 0 0 -1.25 0 47.5)"><g><path fill="#a7a9ac" d="M21 11c0-.55-.45-1-1-1s-1 .45-1 1v25c0 .55.45 1 1 1s1-.45 1-1V11z"/></g><g><path fill="#d1d3d4" d="M4 13h31V5H13c-6 0-9 8-9 8"/></g><path fill="#55acee" d="M37 7H1V1h36v6z"/><g><path fill="#ffac33" d="M6 15s2 5 5 9 8 8 8 8-1-11-1-16v-1s-3 1-6 1-6-1-6-1"/></g><g><path fill="#f4900c" d="M21 35s6-6 9-11c2.77-4.62 4-9 4-9s-3 1-6 1-6-1-6-1v1c0 9-1 19-1 19"/></g><g><path fill="#e6e7e8" d="M3 13c-.55 0-1-.45-1-1s.45-1 1-1h33v2H3z"/></g></g></g></g></svg>