<svg xmlns="http://www.w3.org/2000/svg" viewBox="0 0 47.5 47.5" enable-background="new 0 0 47.5 47.5"><defs><clipPath id="a"><path d="M5 37c-2.2 0-4-1.8-4-4V5c0-2.2 1.8-4 4-4h28c2.2 0 4 1.8 4 4v28c0 2.2-1.8 4-4 4H5z"/></clipPath><clipPath id="b"><path d="M0 38h38V0H0v38z"/></clipPath></defs><g><g><g clip-path="url(#a)" transform="matrix(1.25 0 0 -1.25 0 47.5)"><path fill="#00557f" d="M37-1H-1v38h38V-1z"/><path fill="#3e721d" d="M39 15H0V-2h39v17z"/></g></g><g><g clip-path="url(#b)" transform="matrix(1.25 0 0 -1.25 0 47.5)"><g><path fill="#fff" d="M7.5 30C6.12 30 5 31.12 5 32.5c0 1.13.76 2.07 1.78 2.38-.25.07-.5.12-.78.12-1.66 0-3-1.34-3-3s1.34-3 3-3c.96 0 1.8.46 2.35 1.16-.27-.1-.55-.16-.85-.16"/></g><g><path fill="#fff" d="M12 34.5c0-.28-.22-.5-.5-.5s-.5.22-.5.5.22.5.5.5.5-.22.5-.5"/></g><g><path fill="#fff" d="M28 25.5c0-.28-.22-.5-.5-.5s-.5.22-.5.5.22.5.5.5.5-.22.5-.5"/></g><g><path fill="#fff" d="M9 25.5c0-.28-.22-.5-.5-.5s-.5.22-.5.5.22.5.5.5.5-.22.5-.5"/></g><g><path fill="#fff" d="M24 32c0-.55-.45-1-1-1s-1 .45-1 1 .45 1 1 1 1-.45 1-1"/></g><g><path fill="#fff" d="M6 20c0-.55-.45-1-1-1s-1 .45-1 1 .45 1 1 1 1-.45 1-1"/></g><g><path fill="#fff" d="M14 30c0-.55-.45-1-1-1s-1 .45-1 1 .45 1 1 1 1-.45 1-1"/></g><g><path fill="#fff" d="M34 20c0-.55-.45-1-1-1s-1 .45-1 1 .45 1 1 1 1-.45 1-1"/></g><g><path fill="#fff" d="M23 24c0-.55-.45-1-1-1s-1 .45-1 1 .45 1 1 1 1-.45 1-1"/></g><g><path fill="#fff" d="M28 31.5c0-.28-.22-.5-.5-.5s-.5.22-.5.5.22.5.5.5.5-.22.5-.5"/></g><g><path fill="#fff" d="M18 26.5c0-.28-.22-.5-.5-.5s-.5.22-.5.5.22.5.5.5.5-.22.5-.5"/></g><g><path fill="#fff" d="M14 23.5c0-.28-.22-.5-.5-.5s-.5.22-.5.5.22.5.5.5.5-.22.5-.5"/></g><g><path fill="#fff" d="M33 34c0-.55-.45-1-1-1s-1 .45-1 1 .45 1 1 1 1-.45 1-1"/></g><g><path fill="#fff" d="M33 29.5c0-.28-.22-.5-.5-.5s-.5.22-.5.5.22.5.5.5.5-.22.5-.5"/></g><g><path fill="#ffac33" d="M18 5c-.42 0-.8.27-.94.66l-5 14c-.1.3-.07.65.12.92.2.26.5.42.82.42h12c.4 0 .76-.24.92-.6l6-14c.13-.32.1-.67-.1-.95-.17-.28-.48-.45-.82-.45H18z"/></g><g><path fill="#ffcc4d" d="M7 5c-.34 0-.65.17-.83.45-.2.28-.22.63-.1.94l6 14c.17.36.53.6.93.6s.76-.24.92-.6l6-14c.13-.32.1-.67-.1-.95-.17-.28-.48-.45-.82-.45H7z"/></g><g><path fill="#292f33" d="M13 20L11 5h4l-2 15z"/></g></g></g></g></svg>