<svg xmlns="http://www.w3.org/2000/svg" viewBox="0 0 47.5 47.5" enable-background="new 0 0 47.5 47.5"><defs><clipPath id="a"><path d="M0 38h38V0H0v38z"/></clipPath></defs><g><g><g clip-path="url(#a)" transform="matrix(1.25 0 0 -1.25 0 47.5)"><g><path fill="#939598" d="M30.87 14.05c-.37-.53-.75-1-1.1-1.46-1-1.25-1.77-2.23-1.77-3.6 0-2.48 1.63-3 3-3 .78 0 1.4.28 1.8.84.63.9.73 2.4.25 3.84-.33.98-1.15 2.2-2.18 3.37M31 4c-2.42 0-5 1.3-5 5 0 2.07 1.12 3.48 2.2 4.84.42.53.85 1.07 1.24 1.66C27.88 16.92 26.17 18 25 18v2c1.62 0 3.6-1.13 5.38-2.67.38 1 .62 2.18.62 3.67h2c0-2.17-.45-3.82-1.08-5.15 1.45-1.54 2.6-3.23 3.03-4.53.7-2.07.48-4.23-.54-5.65C33.65 4.6 32.43 4 31 4"/></g><g><path fill="#ffac33" d="M22.25 27H10c-2.2 0-3.88-1.8-3.74-4L7.43 5c.14-2.2 1.78-4 3.65-4h10.1c1.87 0 3.5 1.8 3.64 4L26 23c.13 2.2-1.54 4-3.75 4"/></g><g><path fill="#a7a9ac" d="M27 4H5c-.55 0-1-.45-1-1V1h24v2c0 .55-.45 1-1 1"/></g><g><path fill="#ffac33" d="M32 27c-.55 0-1 .45-1 1v3.24l2.1 4.2c.25.5.85.7 1.35.46.5-.25.7-.85.44-1.35l-1.9-3.8V28c0-.55-.45-1-1-1"/></g><g><path fill="#be1931" d="M34.5 21h-.78c.18.3.28.63.28 1v4c0 .74-.4 1.38-1 1.72V28c0 .55-.45 1-1 1s-1-.45-1-1v-.28c-.6-.34-1-.98-1-1.72v-4c0-.37.1-.7.28-1h-.78c-.28 0-.5-.22-.5-.5s.22-.5.5-.5h5c.28 0 .5.22.5.5s-.22.5-.5.5"/></g><g><path fill="#939598" d="M26 23c0-.55.45-1 1-1h5c.55 0 1 .45 1 1s-.45 1-1 1h-5c-.55 0-1-.45-1-1"/></g><g><path fill="#e6e7e8" d="M28 23c0-2.2-1.8-4-4-4H8c-2.2 0-4 1.8-4 4v10c0 2.2 1.8 4 4 4h16c2.2 0 4-1.8 4-4V23z"/></g><g><path fill="#58595b" d="M26 23c0-1.1-.9-2-2-2H8c-1.1 0-2 .9-2 2v10c0 1.1.9 2 2 2h16c1.1 0 2-.9 2-2V23z"/></g><path fill="#a7a9ac" d="M23 29h-9v3h9v-3z"/></g></g></g></svg>