<svg xmlns="http://www.w3.org/2000/svg" viewBox="0 0 47.5 47.5" enable-background="new 0 0 47.5 47.5"><defs><clipPath id="a"><path d="M0 38h38V0H0v38z"/></clipPath></defs><g><g><g clip-path="url(#a)" transform="matrix(1.25 0 0 -1.25 0 47.5)"><g><path fill="#77b255" d="M37 5c0-2.2-1.8-4-4-4H5C2.8 1 1 2.8 1 5v28c0 2.2 1.8 4 4 4h28c2.2 0 4-1.8 4-4V5z"/></g><g><path fill="#fff" d="M14.5 8c-.64 0-1.28.24-1.77.73l-6.5 6.5c-.97.98-.97 2.56 0 3.54.98.97 2.56.97 3.54 0l4.73-4.73 13.73 13.73c.98.97 2.56.97 3.54 0 .97-.98.97-2.56 0-3.54l-15.5-15.5c-.5-.5-1.13-.73-1.77-.73"/></g></g></g></g></svg>