<svg xmlns="http://www.w3.org/2000/svg" viewBox="0 0 47.5 47.5" enable-background="new 0 0 47.5 47.5"><defs><clipPath id="a"><path d="M0 38h38V0H0v38z"/></clipPath></defs><g><g><g clip-path="url(#a)" transform="matrix(1.25 0 0 -1.25 0 47.5)"><g><path fill="#66757f" d="M31 13.17c-.4-.4-1.02-.4-1.4 0l-1.43 1.42c-.4.38-.4 1 0 1.4L31 18.83c.4.4 1.02.4 1.4 0l1.43-1.42c.4-.38.4-1 0-1.4L31 13.17z"/></g><g><path fill="#66757f" d="M16 28.17c-.4-.4-1.02-.4-1.4 0l-1.43 1.42c-.4.38-.4 1 0 1.4L16 33.83c.4.4 1.02.4 1.4 0l1.43-1.42c.4-.38.4-1 0-1.4L16 28.17z"/></g><g><path fill="#55acee" d="M3 15c2 0 11-1 11-1s1-9 1-11-2-2-3-1-4 6-4 6-5 3-6 4-1 3 1 3"/></g><g><path fill="#55acee" d="M5 30.96C8 31 30 30 30 30s.92-22 .96-25C31 2 28.2 1 27.1 5S22 22 22 22 8.04 26.42 5 27.1c-4 .9-3 3.82 0 3.86"/></g><g><path fill="#ccd6dd" d="M28 34c2 2 7 3 8 2s0-6-2-8-19-18-19-18-6.5-4.5-8-3 3 8 3 8 16 17 18 19"/></g><g><path fill="#66757f" d="M15 15s.5-.5-4-5-5-4-5-4-.5.5 4 5 5 4 5 4"/></g><g><path fill="#66757f" d="M30 33c1.66 0 3-1.34 3-3h.8c.12.3.2.65.2 1 0 1.66-1.34 3-3 3-.35 0-.7-.08-1-.2V33z"/></g></g></g></g></svg>