<svg xmlns="http://www.w3.org/2000/svg" viewBox="0 0 47.5 47.5" enable-background="new 0 0 47.5 47.5"><defs><clipPath id="a"><path d="M0 38h38V0H0v38z"/></clipPath></defs><g><g><g clip-path="url(#a)" transform="matrix(1.25 0 0 -1.25 0 47.5)"><g><path fill="#ccd6dd" d="M37 10c0-2.2-1.8-4-4-4H5c-2.2 0-4 1.8-4 4v18c0 2.2 1.8 4 4 4h28c2.2 0 4-1.8 4-4V10z"/></g><g><path fill="#99aab5" d="M12.95 19.36L1.65 8.06c-.04-.04-.05-.07-.07-.1.34-.57.8-1.04 1.38-1.38.03.02.06.03.1.06l11.3 11.3c.4.4.4 1.03 0 1.42-.4.4-1.02.4-1.4 0"/></g><g><path fill="#99aab5" d="M36.42 7.96c-.02.03-.03.06-.06.1l-11.3 11.3c-.4.4-1.03.4-1.42 0-.4-.4-.4-1.02 0-1.4l11.3-11.32c.04-.03.07-.04.1-.06.57.34 1.04.8 1.38 1.38"/></g><g><path fill="#99aab5" d="M33 32H5c-2.2 0-4-1.8-4-4v-1.03l14.53-14.5c1.9-1.9 5-1.9 6.88 0L37 27v1c0 2.2-1.8 4-4 4"/></g><g><path fill="#e1e8ed" d="M33 32H5c-1.6 0-2.95-.93-3.6-2.27l14.77-14.77c1.56-1.56 4.1-1.56 5.66 0L36.6 29.72c-.65 1.35-2 2.28-3.6 2.28"/></g></g></g></g></svg>