<?xml version="1.0" encoding="UTF-8" standalone="no"?><svg xmlns:dc="http://purl.org/dc/elements/1.1/" xmlns:cc="http://creativecommons.org/ns#" xmlns:rdf="http://www.w3.org/1999/02/22-rdf-syntax-ns#" xmlns:svg="http://www.w3.org/2000/svg" xmlns="http://www.w3.org/2000/svg" viewBox="0 0 47.5 47.5" style="enable-background:new 0 0 47.5 47.5;" xml:space="preserve" version="1.1" id="svg2"><metadata id="metadata8"><rdf:RDF><cc:Work rdf:about=""><dc:format>image/svg+xml</dc:format><dc:type rdf:resource="http://purl.org/dc/dcmitype/StillImage"/></cc:Work></rdf:RDF></metadata><defs id="defs6"><clipPath id="clipPath16" clipPathUnits="userSpaceOnUse"><path id="path18" d="M 0,38 38,38 38,0 0,0 0,38 Z"/></clipPath></defs><g transform="matrix(1.25,0,0,-1.25,0,47.5)" id="g10"><g id="g12"><g clip-path="url(#clipPath16)" id="g14"><g transform="translate(35.8252,19.9375)" id="g20"><path id="path22" style="fill:#d99e82;fill-opacity:1;fill-rule:nonzero;stroke:none" d="m 0,0 0.015,0.178 c -0.7,-0.689 -1.658,-1.115 -2.716,-1.115 l -0.248,0 c -1.474,0 -2.738,0.831 -3.392,2.042 -0.678,-1.212 -1.958,-2.042 -3.446,-2.042 l -0.076,0 c -1.189,0 -2.24,0.535 -2.962,1.366 l 0,0.013 c -0.186,0.213 -0.343,0.448 -0.481,0.696 -0.04,0.072 -0.069,0.151 -0.105,0.226 -0.093,0.195 -0.176,0.395 -0.236,0.606 -0.052,0.173 -0.107,0.344 -0.134,0.526 -0.141,-0.166 -0.296,-0.319 -0.46,-0.46 -0.07,-0.059 -0.148,-0.108 -0.221,-0.162 -0.116,-0.087 -0.229,-0.177 -0.355,-0.251 -0.589,-0.351 -1.271,-0.561 -2.008,-0.561 l -2,0 -1.166,0 c 2.709,-1.366 4.003,-4.204 4.003,-8.663 0,-0.276 -0.223,-0.5 -0.5,-0.5 -0.276,0 -0.5,0.224 -0.5,0.5 0,6.049 -2.336,8.63 -7.811,8.63 -0.059,0 -0.113,0.015 -0.165,0.033 l -0.361,0 c -0.277,0 -0.5,0.224 -0.5,0.5 0,0.277 0.223,0.501 0.5,0.501 l 3.5,0 3,0 2,0 c 1.657,0 3,1.343 3,2.999 0,1.657 -1.343,3.001 -3,3.001 l -2,0 -3,0 -7.101,0 c -0.049,0 -0.095,-0.065 -0.144,-0.068 -0.111,-0.005 -0.221,-0.041 -0.33,-0.059 -0.094,-0.015 -0.186,-0.046 -0.277,-0.07 -0.097,-0.025 -0.192,-0.06 -0.285,-0.095 -0.095,-0.034 -0.186,-0.074 -0.276,-0.117 -0.087,-0.042 -0.17,-0.09 -0.252,-0.139 -0.085,-0.051 -0.167,-0.103 -0.246,-0.163 -0.079,-0.058 -0.155,-0.123 -0.229,-0.19 C -31.035,7.1 -31.102,7.033 -31.167,6.963 -31.236,6.889 -31.299,6.812 -31.361,6.729 -31.419,6.652 -31.473,6.573 -31.523,6.491 -31.575,6.406 -31.621,6.319 -31.665,6.23 -31.71,6.136 -31.75,6.039 -31.787,5.939 -31.804,5.892 -31.831,5.848 -31.846,5.798 l -1.659,-5.472 c -0.157,-0.512 -0.73,-2.856 -0.627,-3.346 0,-7.339 8.64,-14.971 18.944,-14.971 9.977,0 15.025,8.117 15.243,18.043 C 0.036,0.032 0.019,0.019 0,0"/></g><g transform="translate(36,22.8638)" id="g24"><path id="path26" style="fill:#d99e82;fill-opacity:1;fill-rule:nonzero;stroke:none" d="m 0,0 c 0,-1.582 -1.282,-2.864 -2.864,-2.864 l -0.272,0 C -4.718,-2.864 -6,-1.582 -6,0 l 0,6.272 c 0,1.582 1.282,2.864 2.864,2.864 l 0.272,0 C -1.282,9.136 0,7.854 0,6.272 L 0,0 Z"/></g><g transform="translate(29,23)" id="g28"><path id="path30" style="fill:#d99e82;fill-opacity:1;fill-rule:nonzero;stroke:none" d="m 0,0 c 0,-1.657 -1.343,-3 -3,-3 -1.657,0 -3,1.343 -3,3 l 0,9 c 0,1.657 1.343,3 3,3 1.657,0 3,-1.343 3,-3 L 0,0 Z"/></g><g transform="translate(19,29)" id="g32"><path id="path34" style="fill:#d99e82;fill-opacity:1;fill-rule:nonzero;stroke:none" d="M 0,0 C 1.201,0 2.267,-0.541 3,-1.38 L 3,5 C 3,6.657 1.657,8 0,8 -1.657,8 -3,6.657 -3,5 l 0,-5 3,0 z"/></g><g transform="translate(15,29)" id="g36"><path id="path38" style="fill:#d99e82;fill-opacity:1;fill-rule:nonzero;stroke:none" d="M 0,0 0,4.007 C 0,5.66 -1.34,7 -2.993,7 L -3.007,7 C -4.66,7 -6,5.66 -6,4.007 L -6,0 0,0 Z"/></g></g></g></g></svg>
