<svg xmlns="http://www.w3.org/2000/svg" viewBox="0 0 47.5 47.5" enable-background="new 0 0 47.5 47.5"><defs><clipPath id="a"><path d="M0 38h38V0H0v38z"/></clipPath></defs><g><g><g clip-path="url(#a)" transform="matrix(1.25 0 0 -1.25 0 47.5)"><g><path fill="#d99e82" d="M35.83 19.94v.18c-.7-.7-1.65-1.12-2.7-1.12h-.25c-1.48 0-2.74.83-3.4 2.04-.67-1.2-1.95-2.04-3.44-2.04h-.08c-1.2 0-2.24.54-2.96 1.37-.2.22-.34.46-.48.7-.04.08-.07.16-.1.23-.1.2-.18.4-.24.6-.05.18-.1.35-.14.53-.14-.16-.3-.32-.46-.46-.07-.06-.14-.1-.22-.16-.1-.08-.23-.17-.35-.24-.58-.35-1.26-.56-2-.56h-3.17c2.7-1.37 4-4.2 4-8.66 0-.28-.22-.5-.5-.5-.27 0-.5.22-.5.5 0 6.05-2.33 8.63-7.8 8.63-.06 0-.12 0-.17.03h-.36c-.28 0-.5.22-.5.5s.22.5.5.5H19c1.66 0 3 1.34 3 3s-1.34 3-3 3H6.9c-.05 0-.1-.06-.14-.07-.12 0-.23-.04-.33-.06-.1 0-.2-.04-.28-.07-.1-.02-.2-.06-.3-.1-.08-.03-.17-.07-.26-.1-.1-.05-.18-.1-.26-.15-.1-.05-.17-.1-.25-.16-.1-.07-.17-.13-.24-.2-.07-.06-.14-.13-.2-.2-.07-.07-.13-.15-.2-.23-.05-.08-.1-.16-.16-.24-.05-.1-.1-.17-.14-.26-.04-.1-.08-.2-.12-.3-.02-.04-.05-.08-.06-.13l-1.66-5.48c-.16-.5-.73-2.85-.63-3.34 0-7.34 8.63-14.97 18.94-14.97 9.97 0 15.02 8.1 15.24 18.04-.02-.03-.04-.04-.05-.06"/></g><g><path fill="#d99e82" d="M36 22.86c0-1.58-1.28-2.86-2.86-2.86h-.28C31.28 20 30 21.28 30 22.86v6.28c0 1.58 1.28 2.86 2.86 2.86h.28c1.58 0 2.86-1.28 2.86-2.86v-6.28z"/></g><g><path fill="#d99e82" d="M29 23c0-1.66-1.34-3-3-3s-3 1.34-3 3v9c0 1.66 1.34 3 3 3s3-1.34 3-3v-9z"/></g><g><path fill="#d99e82" d="M19 29c1.2 0 2.27-.54 3-1.38V34c0 1.66-1.34 3-3 3s-3-1.34-3-3v-5h3z"/></g><g><path fill="#d99e82" d="M15 29v4c0 1.66-1.34 3-3 3s-3-1.34-3-3v-4h6z"/></g></g></g></g></svg>