<svg xmlns="http://www.w3.org/2000/svg" viewBox="0 0 47.5 47.5" enable-background="new 0 0 47.5 47.5"><defs><clipPath id="a"><path d="M0 38h38V0H0v38z"/></clipPath></defs><g><g><g clip-path="url(#a)" transform="matrix(1.25 0 0 -1.25 0 47.5)"><g><path fill="#d99e82" d="M31 29s0 2-2 2-2-2-2-2v-9.3c-.32.16-.65.3-1 .4V33s0 2-2 2-2-2-2-2V20.88c-.33.03-.66.05-1 .07V35s0 2-2 2-2-2-2-2V20.95c-.34-.02-.67-.05-1-.08V34s0 2-2 2-2-2-2-2V18c6 0 10-5 10-10 0-1-1-1-1-1 0 6-4 10-10 10v7s0 2-2 2-2-2-2-2V13C7 6.37 12.37 1 19 1s12 5.37 12 12v16z"/></g></g></g></g></svg>