<svg xmlns="http://www.w3.org/2000/svg" viewBox="0 0 47.5 47.5" enable-background="new 0 0 47.5 47.5"><defs><clipPath id="a"><path d="M0 38h38V0H0v38z"/></clipPath></defs><g><g><g clip-path="url(#a)" transform="matrix(1.25 0 0 -1.25 0 47.5)"><g><path fill="#d99e82" d="M22.4 34.05c-1.94.42-2.36-1.54-2.36-1.54l-3.1-11.56c-.44-.02-.87-.06-1.3-.1l-2.06 10.5s-.2 2-2.18 1.8c-2-.17-1.8-2.17-1.8-2.17L11.77 19H20c.2 0 .4-.02.6-.06l3.35 12.74s.42 1.96-1.54 2.37"/></g><g><path fill="#d99e82" d="M31 14.92c0-1.06-.86-1.92-1.92-1.92h-.16c-1.06 0-1.92.86-1.92 1.92v4.16c0 1.06.86 1.92 1.92 1.92h.16c1.06 0 1.92-.86 1.92-1.92v-4.16z"/></g><g><path fill="#d99e82" d="M24 23c-1.1 0-2-.9-2-2v-2.78c.6-.55 1-1.33 1-2.22 0-.75-.3-1.43-.75-1.96.35-.62 1-1.04 1.75-1.04 1.1 0 2 .9 2 2v6c0 1.1-.9 2-2 2"/></g><g><path fill="#d99e82" d="M29.06 12h-.12c-1.03 0-1.93.53-2.45 1.32-.14-.18-.28-.34-.44-.5-.05-.04-.1-.08-.16-.12-.12-.1-.24-.2-.38-.27-.06-.04-.13-.08-.2-.1-.14-.08-.28-.14-.43-.18-.08-.02-.14-.05-.2-.06-.23-.07-.46-.1-.7-.1-.24 0-.46.04-.68.1-.08 0-.15.03-.22.05-.14.05-.27.1-.4.17-.08.04-.16.07-.24.12-.16.1-.32.2-.46.34-.2.18-.38.4-.53.62-.2-.1-.47-.4-1.47-.4h-2.54c1.8-1.36 3.04-4 3.04-7 0-.28-.22-.5-.5-.5s-.5.22-.5.5c0 3.86-2.2 7-4.88 7h-.12c-.28 0-.5.22-.5.5s.22.5.5.5H20c1.1 0 2 .9 2 2s-.9 2-2 2h-8c-.03 0-.06 0-.1 0-.07 0-.14-.02-.2-.03-.07 0-.13-.02-.2-.04-.06-.02-.12-.03-.18-.06-.06-.02-.12-.04-.18-.07-.06-.03-.1-.06-.16-.1-.06-.02-.1-.06-.17-.1-.04-.04-.1-.08-.14-.12-.04-.04-.1-.1-.13-.13-.04-.05-.08-.1-.13-.16-.03-.05-.07-.1-.1-.16-.04-.06-.07-.1-.1-.17-.02-.06-.05-.13-.07-.2-.02-.02-.03-.05-.04-.1L9 13.02c-.1-.34-.48-1.87-.4-2.2C8.6 6 13.3 1 19 1c6.54 0 11.84 5.23 12 11.73-.53-.45-1.2-.73-1.94-.73"/></g></g></g></g></svg>