<svg xmlns="http://www.w3.org/2000/svg" viewBox="0 0 47.5 47.5" enable-background="new 0 0 47.5 47.5"><defs><clipPath id="a"><path d="M0 38h38V0H0v38z"/></clipPath></defs><g><g><g clip-path="url(#a)" transform="matrix(1.25 0 0 -1.25 0 47.5)"><g><path fill="#d99e82" d="M36.22 3.4c-.65 2.1-1.7 6.06-2.32 7.57-.5 1.2-.97 2.44-1.55 3-.57.6-1.55.54-2.14-.05 0 0-2.46-1.67-3.34-2.78-1.1-.88-2.8-3.36-2.8-3.36-.58-.6-.62-1.56-.05-2.14.6-.57 1.8-1.04 3.03-1.54 1.5-.62 5.46-1.68 7.56-2.33.35-.1 1.73 1.27 1.62 1.63"/></g><g><path fill="#ea596e" d="M14.64 31.7c1.15-1.16 1.15-3.02 0-4.18l-4.16-4.16c-1.16-1.15-3.02-1.15-4.17 0l-4.16 4.16C1 28.68 1 30.54 2.14 31.7l4.17 4.16c1.16 1.15 3.02 1.15 4.18 0l4.16-4.17z"/></g><g><path fill="#ffcc4d" d="M32.35 13.98s-1.04-1.04-4.17-4.17c-3.12-3.1-4.16-4.15-4.16-4.15L8.4 21.27l8.33 8.34L32.35 14z"/></g><g><path fill="#292f33" d="M33.08 2.24s2.7-1.5 3.44-.76c.73.73-.76 3.44-.76 3.44s-2.57-.05-2.68-2.68"/></g><g><path fill="#ccd6dd" d="M11.52 34.82l-8.34-8.34 5.2-5.2 8.35 8.33-5.2 5.22z"/></g><g><path fill="#99aab5" d="M13.6 32.73L5.27 24.4l-1.04 1.04 8.33 8.34 1.04-1.05z"/></g><g><path fill="#99aab5" d="M15.68 30.65l-8.33-8.33-1.04 1.04 8.34 8.33 1.04-1.05z"/></g></g></g></g></svg>