<?xml version="1.0" encoding="UTF-8" standalone="no"?><svg xmlns:dc="http://purl.org/dc/elements/1.1/" xmlns:cc="http://creativecommons.org/ns#" xmlns:rdf="http://www.w3.org/1999/02/22-rdf-syntax-ns#" xmlns:svg="http://www.w3.org/2000/svg" xmlns="http://www.w3.org/2000/svg" viewBox="0 0 47.5 47.5" style="enable-background:new 0 0 47.5 47.5;" xml:space="preserve" version="1.1" id="svg2"><metadata id="metadata8"><rdf:RDF><cc:Work rdf:about=""><dc:format>image/svg+xml</dc:format><dc:type rdf:resource="http://purl.org/dc/dcmitype/StillImage"/></cc:Work></rdf:RDF></metadata><defs id="defs6"><clipPath id="clipPath16" clipPathUnits="userSpaceOnUse"><path id="path18" d="M 0,38 38,38 38,0 0,0 0,38 Z"/></clipPath></defs><g transform="matrix(1.25,0,0,-1.25,0,47.5)" id="g10"><g id="g12"><g clip-path="url(#clipPath16)" id="g14"><g transform="translate(36.2217,3.4023)" id="g20"><path id="path22" style="fill:#d99e82;fill-opacity:1;fill-rule:nonzero;stroke:none" d="m 0,0 c -0.647,2.101 -1.705,6.059 -2.325,7.566 -0.501,1.216 -0.969,2.438 -1.544,3.014 -0.575,0.575 -1.553,0.53 -2.143,-0.058 0,0 -2.468,-1.674 -3.353,-2.783 -1.109,-0.882 -2.785,-3.357 -2.785,-3.357 -0.59,-0.59 -0.635,-1.568 -0.06,-2.143 0.576,-0.575 1.798,-1.043 3.015,-1.544 C -7.689,0.075 -3.73,-0.98 -1.629,-1.63 -1.271,-1.74 0.11,-0.359 0,0"/></g><g transform="translate(14.6426,31.6919)" id="g24"><path id="path26" style="fill:#ea596e;fill-opacity:1;fill-rule:nonzero;stroke:none" d="m 0,0 c 1.151,-1.151 1.151,-3.016 0,-4.167 l -4.167,-4.167 c -1.151,-1.151 -3.017,-1.151 -4.167,0 l -4.167,4.167 c -1.151,1.151 -1.151,3.016 0,4.167 l 4.167,4.167 c 1.15,1.151 3.016,1.151 4.167,0 L 0,0 Z"/></g><g transform="translate(32.3525,13.9824)" id="g28"><path id="path30" style="fill:#ffcc4d;fill-opacity:1;fill-rule:nonzero;stroke:none" d="M 0,0 C 0,0 -1.046,-1.047 -4.17,-4.17 -7.292,-7.294 -8.333,-8.335 -8.333,-8.335 L -23.961,7.292 -15.626,15.625 0,0 Z"/></g><g transform="translate(33.0781,2.2373)" id="g32"><path id="path34" style="fill:#292f33;fill-opacity:1;fill-rule:nonzero;stroke:none" d="M 0,0 C 0,0 2.709,-1.489 3.441,-0.757 4.174,-0.024 2.677,2.678 2.677,2.678 2.677,2.678 0.109,2.63 0,0"/></g><g transform="translate(11.5176,34.8174)" id="g36"><path id="path38" style="fill:#ccd6dd;fill-opacity:1;fill-rule:nonzero;stroke:none" d="m 0,0 -8.334,-8.334 5.208,-5.209 8.335,8.334 L 0,0 Z"/></g><g transform="translate(13.6011,32.7339)" id="g40"><path id="path42" style="fill:#99aab5;fill-opacity:1;fill-rule:nonzero;stroke:none" d="M 0,0 -8.334,-8.334 -9.376,-7.292 -1.042,1.042 0,0 Z"/></g><g transform="translate(15.6841,30.6504)" id="g44"><path id="path46" style="fill:#99aab5;fill-opacity:1;fill-rule:nonzero;stroke:none" d="M 0,0 -8.334,-8.335 -9.375,-7.293 -1.042,1.042 0,0 Z"/></g></g></g></g></svg>
