<?xml version="1.0" encoding="UTF-8" standalone="no"?><svg xmlns:dc="http://purl.org/dc/elements/1.1/" xmlns:cc="http://creativecommons.org/ns#" xmlns:rdf="http://www.w3.org/1999/02/22-rdf-syntax-ns#" xmlns:svg="http://www.w3.org/2000/svg" xmlns="http://www.w3.org/2000/svg" viewBox="0 0 47.5 47.5" style="enable-background:new 0 0 47.5 47.5;" xml:space="preserve" version="1.1" id="svg2"><metadata id="metadata8"><rdf:RDF><cc:Work rdf:about=""><dc:format>image/svg+xml</dc:format><dc:type rdf:resource="http://purl.org/dc/dcmitype/StillImage"/></cc:Work></rdf:RDF></metadata><defs id="defs6"><clipPath id="clipPath16" clipPathUnits="userSpaceOnUse"><path id="path18" d="M 0,38 38,38 38,0 0,0 0,38 Z"/></clipPath></defs><g transform="matrix(1.25,0,0,-1.25,0,47.5)" id="g10"><g id="g12"><g clip-path="url(#clipPath16)" id="g14"><g transform="translate(32.9863,4.2705)" id="g20"><path id="path22" style="fill:#a7a9ac;fill-opacity:1;fill-rule:nonzero;stroke:none" d="m 0,0 c -0.292,-0.167 -0.626,-0.271 -0.987,-0.271 -1.105,0 -2,0.896 -2,2 0,1.105 0.895,2 2,2 1.104,0 2,-0.895 2,-2 0,-0.361 -0.104,-0.695 -0.271,-0.987 l 3.147,-3.146 -0.876,7.133 -9,7 -5,-5 7,-9 L 3.146,-3.146 0,0 Z"/></g><g transform="translate(14.6426,31.6919)" id="g24"><path id="path26" style="fill:#6d6e71;fill-opacity:1;fill-rule:nonzero;stroke:none" d="m 0,0 c 1.151,-1.151 1.151,-3.016 0,-4.167 l -4.167,-4.167 c -1.151,-1.151 -3.017,-1.151 -4.167,0 l -4.167,4.167 c -1.151,1.151 -1.151,3.016 0,4.167 l 4.167,4.167 c 1.15,1.151 3.016,1.151 4.167,0 L 0,0 Z"/></g><g transform="translate(27.6426,18.6914)" id="g28"><path id="path30" style="fill:#414042;fill-opacity:1;fill-rule:nonzero;stroke:none" d="M 0,0 -17.202,17.203 -25.536,8.868 -8.334,-8.334 c 1.15,-1.15 3.016,-1.15 4.168,0 L 0,-4.166 C 1.15,-3.016 1.15,-1.15 0,0"/></g><g transform="translate(17.5591,28.7754)" id="g32"><path id="path34" style="fill:#808285;fill-opacity:1;fill-rule:nonzero;stroke:none" d="M 0,0 -8.334,-8.334 -6.209,-10.46 2.125,-2.125 0,0 Z"/></g></g></g></g></svg>
