<svg xmlns="http://www.w3.org/2000/svg" viewBox="0 0 47.5 47.5" enable-background="new 0 0 47.5 47.5"><defs><clipPath id="a"><path d="M0 38h38V0H0v38z"/></clipPath></defs><g><g><g clip-path="url(#a)" transform="matrix(1.25 0 0 -1.25 0 47.5)"><g><path fill="#a7a9ac" d="M33 4.27c-.3-.17-.64-.27-1-.27-1.1 0-2 .9-2 2s.9 2 2 2 2-.9 2-2c0-.36-.1-.7-.27-1l3.15-3.13L36 9l-9 7-5-5 7-9 7.13-.88L33 4.27z"/></g><g><path fill="#6d6e71" d="M14.64 31.7c1.15-1.16 1.15-3.02 0-4.18l-4.16-4.16c-1.16-1.15-3.02-1.15-4.17 0l-4.16 4.16C1 28.68 1 30.54 2.14 31.7l4.17 4.16c1.16 1.15 3.02 1.15 4.18 0l4.16-4.17z"/></g><g><path fill="#414042" d="M27.64 18.7l-17.2 17.2-8.33-8.34 17.2-17.2c1.16-1.15 3.02-1.15 4.18 0l4.16 4.17c1.15 1.15 1.15 3 0 4.16"/></g><g><path fill="#808285" d="M17.56 28.78l-8.33-8.34 2.12-2.12 8.33 8.33-2.12 2.13z"/></g></g></g></g></svg>