<svg xmlns="http://www.w3.org/2000/svg" viewBox="0 0 47.5 47.5" enable-background="new 0 0 47.5 47.5"><defs><clipPath id="a"><path d="M0 38h38V0H0v38z"/></clipPath></defs><g><g><g clip-path="url(#a)" transform="matrix(1.25 0 0 -1.25 0 47.5)"><g><path fill="#414042" d="M23.24 19l9.88 9.88c1.17 1.17 1.17 3.07 0 4.24-1.17 1.17-3.07 1.17-4.24 0L19 23.24l-9.9 9.88c-1.16 1.17-3.06 1.17-4.23 0-1.17-1.17-1.17-3.07 0-4.24L14.75 19l-9.9-9.9C3.68 7.9 3.68 6 4.85 4.84c.58-.6 1.35-.88 2.12-.88s1.53.3 2.12.88l9.9 9.9 9.88-9.88C29.48 4.3 30.23 4 31 4s1.54.3 2.12.87c1.17 1.17 1.17 3.07 0 4.24L23.24 19z"/></g></g></g></g></svg>