<?xml version="1.0" encoding="UTF-8" standalone="no"?>
<!-- Created with Inkscape (http://www.inkscape.org/) -->

<svg
   xmlns:svg="http://www.w3.org/2000/svg"
   xmlns="http://www.w3.org/2000/svg"
   version="1.1"
   width="47.5"
   height="47.5"
   id="svg2"
   xml:space="preserve"><defs
     id="defs6"><clipPath
       id="clipPath18"><path
         d="M 0,38 38,38 38,0 0,0 0,38 z"
         id="path20" /></clipPath></defs><g
     transform="matrix(1.25,0,0,-1.25,0,47.5)"
     id="g12"><g
       id="g14"><g
         clip-path="url(#clipPath18)"
         id="g16"><g
           transform="translate(35.3467,20.1069)"
           id="g22"><path
             d="m 0,0 -8.899,3.294 -3.323,10.891 c -0.128,0.42 -0.516,0.708 -0.956,0.708 -0.439,0 -0.828,-0.288 -0.956,-0.708 L -17.456,3.294 -26.356,0 c -0.393,-0.146 -0.653,-0.52 -0.653,-0.938 0,-0.418 0.26,-0.793 0.653,-0.937 l 8.896,-3.293 3.323,-11.223 c 0.126,-0.425 0.516,-0.716 0.959,-0.716 0.443,0 0.833,0.291 0.959,0.716 l 3.324,11.223 8.896,3.293 c 0.392,0.144 0.652,0.519 0.652,0.937 C 0.653,-0.52 0.393,-0.146 0,0"
             id="path24"
             style="fill:#aa8ed6;fill-opacity:1;fill-rule:nonzero;stroke:none" /></g><g
           transform="translate(15.3472,9.1064)"
           id="g26"><path
             d="m 0,0 -2.313,0.856 -0.9,3.3 c -0.119,0.436 -0.514,0.738 -0.965,0.738 -0.451,0 -0.846,-0.302 -0.965,-0.738 l -0.9,-3.3 L -8.356,0 c -0.393,-0.145 -0.653,-0.52 -0.653,-0.937 0,-0.418 0.26,-0.793 0.653,-0.938 l 2.301,-0.853 0.907,-3.622 c 0.111,-0.444 0.511,-0.756 0.97,-0.756 0.458,0 0.858,0.312 0.97,0.756 L -2.301,-2.728 0,-1.875 c 0.393,0.145 0.653,0.52 0.653,0.938 C 0.653,-0.52 0.393,-0.145 0,0"
             id="path28"
             style="fill:#fcab40;fill-opacity:1;fill-rule:nonzero;stroke:none" /></g><g
           transform="translate(11.0093,30.769)"
           id="g30"><path
             d="M 0,0 -2.365,0.875 -3.24,3.24 c -0.146,0.393 -0.52,0.653 -0.938,0.653 -0.419,0 -0.793,-0.26 -0.938,-0.653 L -5.992,0.875 -8.356,0 c -0.393,-0.146 -0.653,-0.52 -0.653,-0.938 0,-0.418 0.26,-0.792 0.653,-0.938 l 2.364,-0.875 0.876,-2.365 c 0.145,-0.393 0.519,-0.653 0.938,-0.653 0.418,0 0.792,0.26 0.938,0.653 L -2.365,-2.751 0,-1.876 c 0.393,0.146 0.653,0.52 0.653,0.938 C 0.653,-0.52 0.393,-0.146 0,0"
             id="path32"
             style="fill:#5dadec;fill-opacity:1;fill-rule:nonzero;stroke:none" /></g></g></g></g></svg>