<?xml version="1.0" encoding="UTF-8" standalone="no"?><svg xmlns:dc="http://purl.org/dc/elements/1.1/" xmlns:cc="http://creativecommons.org/ns#" xmlns:rdf="http://www.w3.org/1999/02/22-rdf-syntax-ns#" xmlns:svg="http://www.w3.org/2000/svg" xmlns="http://www.w3.org/2000/svg" viewBox="0 0 47.5 47.5" style="enable-background:new 0 0 47.5 47.5;" xml:space="preserve" version="1.1" id="svg2"><metadata id="metadata8"><rdf:RDF><cc:Work rdf:about=""><dc:format>image/svg+xml</dc:format><dc:type rdf:resource="http://purl.org/dc/dcmitype/StillImage"/></cc:Work></rdf:RDF></metadata><defs id="defs6"><clipPath id="clipPath16" clipPathUnits="userSpaceOnUse"><path id="path18" d="M 0,38 38,38 38,0 0,0 0,38 Z"/></clipPath></defs><g transform="matrix(1.25,0,0,-1.25,0,47.5)" id="g10"><g id="g12"><g clip-path="url(#clipPath16)" id="g14"><g transform="translate(34.999,21)" id="g20"><path id="path22" style="fill:#aa8dd8;fill-opacity:1;fill-rule:nonzero;stroke:none" d="m 0,0 -11.171,0 7.9,7.899 c 0.781,0.782 0.782,2.047 0,2.829 -0.782,0.781 -2.047,0.781 -2.829,-10e-4 l -7.899,-7.899 0,11.172 c 0,1.104 -0.896,2 -2,2 -1.105,0 -2,-0.896 -2,-2 l 0,-11.171 -7.899,7.899 c -0.782,0.781 -2.048,0.781 -2.829,0 -0.781,-0.781 -0.781,-2.047 0,-2.828 l 7.9,-7.9 -11.172,0 c -1.105,0 -2.001,-0.896 -2,-2 0,-1.104 0.895,-2 1.999,-2 l 11.174,0 -7.901,-7.9 c -0.781,-0.781 -0.781,-2.047 0,-2.829 0.781,-0.78 2.047,-0.78 2.828,0 l 7.9,7.901 0,-11.172 c 0,-1.104 0.895,-2 2,-2 1.104,0 2,0.896 2,2 l 0,11.172 7.899,-7.9 c 0.782,-0.781 2.047,-0.782 2.829,-10e-4 0.781,0.782 0.781,2.048 0,2.83 L -11.171,-4 0,-4 c 1.105,0 2.001,0.895 2.001,1.999 C 2.001,-0.896 1.105,0 0,0"/></g></g></g></g></svg>
