<?xml version="1.0" encoding="UTF-8" standalone="no"?><svg xmlns:dc="http://purl.org/dc/elements/1.1/" xmlns:cc="http://creativecommons.org/ns#" xmlns:rdf="http://www.w3.org/1999/02/22-rdf-syntax-ns#" xmlns:svg="http://www.w3.org/2000/svg" xmlns="http://www.w3.org/2000/svg" viewBox="0 0 47.5 47.5" style="enable-background:new 0 0 47.5 47.5;" xml:space="preserve" version="1.1" id="svg2"><metadata id="metadata8"><rdf:RDF><cc:Work rdf:about=""><dc:format>image/svg+xml</dc:format><dc:type rdf:resource="http://purl.org/dc/dcmitype/StillImage"/></cc:Work></rdf:RDF></metadata><defs id="defs6"><clipPath id="clipPath16" clipPathUnits="userSpaceOnUse"><path id="path18" d="M 0,38 38,38 38,0 0,0 0,38 Z"/></clipPath></defs><g transform="matrix(1.25,0,0,-1.25,0,47.5)" id="g10"><g id="g12"><g clip-path="url(#clipPath16)" id="g14"><g transform="translate(14.5737,25.7646)" id="g20"><path id="path22" style="fill:#414042;fill-opacity:1;fill-rule:nonzero;stroke:none" d="M 0,0 C 1.334,-0.971 2.631,-0.43 2.882,1.201 L 3.97,8.27 c 0.251,1.631 0.661,1.631 0.912,0 L 5.97,1.201 C 6.221,-0.43 7.518,-0.971 8.852,0 L 15,4.471 c 1.334,0.97 1.632,0.673 0.662,-0.662 l -4.471,-6.147 c -0.971,-1.335 -0.431,-2.632 1.2,-2.883 l 7.07,-1.088 c 1.631,-0.251 1.631,-0.661 0,-0.912 l -7.07,-1.088 C 10.76,-8.56 10.22,-9.856 11.191,-11.19 l 4.471,-6.149 C 16.632,-18.673 16.334,-18.971 15,-18 l -6.148,4.471 c -1.334,0.97 -2.631,0.43 -2.882,-1.2 L 4.882,-21.8 c -0.251,-1.631 -0.661,-1.631 -0.912,0 l -1.088,7.071 c -0.251,1.63 -1.548,2.17 -2.882,1.2 L -6.147,-18 c -1.335,-0.971 -1.581,-0.713 -0.547,0.573 l 5.085,6.324 c 1.034,1.287 0.542,2.523 -1.092,2.749 l -8.057,1.112 c -1.634,0.226 -1.638,0.62 -0.008,0.876 l 7.228,1.136 c 1.631,0.256 2.17,1.557 1.2,2.892 L -6.809,3.809 C -7.78,5.144 -7.482,5.441 -6.147,4.471 L 0,0 Z"/></g></g></g></g></svg>
