<?xml version="1.0" encoding="UTF-8" standalone="no"?><svg xmlns:svg="http://www.w3.org/2000/svg" xmlns="http://www.w3.org/2000/svg" version="1.1" viewBox="0 0 47.5 47.5" style="enable-background:new 0 0 47.5 47.5;" id="svg2" xml:space="preserve"><defs id="defs6"><clipPath id="clipPath18"><path d="M 0,38 38,38 38,0 0,0 0,38 z" id="path20"/></clipPath></defs><g transform="matrix(1.25,0,0,-1.25,0,47.5)" id="g12"><g id="g14"><g clip-path="url(#clipPath18)" id="g16"><g transform="translate(20,9.4141)" id="g22"><path d="M 0,0 0,19.171 4.828,24 c 0,0 0.707,0.707 0,1.415 -0.707,0.707 -1.414,0 -1.414,0 L 0,22 0,26.586 c 0,0 0,1 -1,1 -1,0 -1,-1 -1,-1 L -2,22 -5.414,25.415 c 0,0 -0.707,0.707 -1.414,0 -0.707,-0.708 0,-1.415 0,-1.415 L -2,19.171 -2,0 -6.828,-4.828 c 0,0 -0.707,-0.707 0,-1.414 0.707,-0.707 1.414,0 1.414,0 L -2,-2.828 -2,-7.414 c 0,0 0,-1 1,-1 1,0 1,1 1,1 l 0,4.586 3.414,-3.414 c 0,0 0.707,-0.707 1.414,0 0.707,0.707 0,1.414 0,1.414 L 0,0 z" id="path24" style="fill:#88c9f9;fill-opacity:1;fill-rule:nonzero;stroke:none"/></g><g transform="translate(35.6221,16.1338)" id="g26"><path d="m 0,0 c -0.259,0.966 -1.225,0.707 -1.225,0.707 l -6.594,-1.767 -16.604,9.586 -1.767,6.595 c 0,0 -0.259,0.966 -1.225,0.707 -0.967,-0.259 -0.707,-1.224 -0.707,-1.224 l 1.249,-4.664 -3.971,2.293 c 0,0 -0.866,0.5 -1.366,-0.366 -0.5,-0.866 0.366,-1.366 0.366,-1.366 l 3.971,-2.293 -4.663,-1.249 c 0,0 -0.967,-0.259 -0.707,-1.225 0.259,-0.966 1.224,-0.707 1.224,-0.707 l 6.596,1.767 16.604,-9.586 1.766,-6.596 c 0,0 0.259,-0.966 1.225,-0.707 0.966,0.26 0.707,1.225 0.707,1.225 l -1.25,4.664 3.972,-2.293 c 0,0 0.867,-0.5 1.367,0.365 0.5,0.867 -0.367,1.367 -0.367,1.367 l -3.971,2.293 4.663,1.249 c 0,0 0.966,0.259 0.707,1.225" id="path28" style="fill:#88c9f9;fill-opacity:1;fill-rule:nonzero;stroke:none"/></g><g transform="translate(34.915,23.0928)" id="g30"><path d="m 0,0 -4.664,1.25 3.972,2.292 c 0,0 0.867,0.501 0.367,1.367 -0.501,0.867 -1.367,0.366 -1.367,0.366 l -3.971,-2.293 1.249,4.664 c 0,0 0.259,0.965 -0.707,1.224 -0.966,0.259 -1.225,-0.707 -1.225,-0.707 l -1.767,-6.595 -16.604,-9.587 -6.595,1.768 c 0,0 -0.965,0.259 -1.224,-0.707 -0.26,-0.967 0.707,-1.225 0.707,-1.225 l 4.662,-1.249 -3.971,-2.293 c 0,0 -0.865,-0.501 -0.365,-1.367 0.5,-0.865 1.365,-0.365 1.365,-0.365 l 3.972,2.293 -1.25,-4.663 c 0,0 -0.259,-0.967 0.707,-1.225 0.967,-0.26 1.226,0.706 1.226,0.706 l 1.767,6.597 16.604,9.585 6.594,-1.768 c 0,0 0.966,-0.258 1.225,0.707 C 0.965,-0.258 0,0 0,0" id="path32" style="fill:#88c9f9;fill-opacity:1;fill-rule:nonzero;stroke:none"/></g></g></g></g></svg>
