<svg xmlns="http://www.w3.org/2000/svg" viewBox="0 0 47.5 47.5" enable-background="new 0 0 47.5 47.5"><defs><clipPath id="a"><path d="M0 38h38V0H0v38z"/></clipPath></defs><g><g><g clip-path="url(#a)" transform="matrix(1.25 0 0 -1.25 0 47.5)"><g><path fill="#88c9f9" d="M20 9.4v19.2l4.83 4.8s.7.72 0 1.43c-.7.7-1.42 0-1.42 0L20 31.4V36s0 1-1 1-1-1-1-1v-4.6l-3.4 3.43s-.72.7-1.43 0c-.7-.7 0-1.42 0-1.42L18 28.6V9.4l-4.83-4.8s-.7-.72 0-1.43c.7-.7 1.42 0 1.42 0L18 6.6V2s0-1 1-1 1 1 1 1v4.6l3.4-3.43s.72-.7 1.43 0c.7.7 0 1.42 0 1.42L20 9.4z"/></g><g><path fill="#88c9f9" d="M35.62 16.13c-.26.97-1.22.7-1.22.7l-6.6-1.76-16.6 9.6-1.77 6.58s-.26.97-1.22.7c-.96-.25-.7-1.2-.7-1.2l1.25-4.68-3.97 2.3s-.87.5-1.37-.37c-.5-.87.38-1.37.38-1.37l3.97-2.3L3.1 23.1s-.98-.27-.72-1.23c.26-.97 1.22-.7 1.22-.7l6.6 1.76 16.6-9.6 1.77-6.58s.26-.97 1.22-.7c.96.25.7 1.2.7 1.2l-1.25 4.68 3.97-2.3s.87-.5 1.37.37c.5.87-.38 1.37-.38 1.37l-3.97 2.3 4.67 1.24s.96.27.7 1.23"/></g><g><path fill="#88c9f9" d="M34.91 23.1l-4.65 1.24 3.97 2.3s.87.5.37 1.36c-.5.87-1.38.37-1.38.37l-3.97-2.3 1.25 4.67s.26.96-.7 1.22c-.97.26-1.23-.7-1.23-.7l-1.77-6.6-16.6-9.6-6.6 1.78s-.96.26-1.22-.7c-.26-.97.7-1.23.7-1.23l4.67-1.24-3.97-2.3s-.87-.5-.37-1.36c.5-.86 1.38-.36 1.38-.36l3.97 2.3L7.5 7.26s-.26-.97.7-1.23c.97-.26 1.23.7 1.23.7l1.77 6.6 16.6 9.6 6.6-1.78s.96-.26 1.22.7c.26.97-.7 1.23-.7 1.23"/></g></g></g></g></svg>