<?xml version="1.0" encoding="UTF-8" standalone="no"?><svg xmlns:dc="http://purl.org/dc/elements/1.1/" xmlns:cc="http://creativecommons.org/ns#" xmlns:rdf="http://www.w3.org/1999/02/22-rdf-syntax-ns#" xmlns:svg="http://www.w3.org/2000/svg" xmlns="http://www.w3.org/2000/svg" viewBox="0 0 47.5 47.5" style="enable-background:new 0 0 47.5 47.5;" xml:space="preserve" version="1.1" id="svg2"><metadata id="metadata8"><rdf:RDF><cc:Work rdf:about=""><dc:format>image/svg+xml</dc:format><dc:type rdf:resource="http://purl.org/dc/dcmitype/StillImage"/></cc:Work></rdf:RDF></metadata><defs id="defs6"><clipPath id="clipPath16" clipPathUnits="userSpaceOnUse"><path id="path18" d="M 0,38 38,38 38,0 0,0 0,38 Z"/></clipPath></defs><g transform="matrix(1.25,0,0,-1.25,0,47.5)" id="g10"><g id="g12"><g clip-path="url(#clipPath16)" id="g14"><g transform="translate(16,19)" id="g20"><path id="path22" style="fill:#ffac33;fill-opacity:1;fill-rule:nonzero;stroke:none" d="M 0,0 C 0,1.657 1.343,3 3,3 4.656,3 6,1.657 6,0 6,-1.656 4.656,-3 3,-3 1.343,-3 0,-1.656 0,0"/></g><g transform="translate(21,35)" id="g24"><path id="path26" style="fill:#ffac33;fill-opacity:1;fill-rule:nonzero;stroke:none" d="M 0,0 C 0,1.104 -0.896,2 -2,2 -3.104,2 -4,1.104 -4,0 l 0,-10 c 0,-1.104 0.896,-2 2,-2 1.104,0 2,0.896 2,2 L 0,0 Z"/></g><g transform="translate(21,13)" id="g28"><path id="path30" style="fill:#ffac33;fill-opacity:1;fill-rule:nonzero;stroke:none" d="M 0,0 C 0,1.104 -0.896,2 -2,2 -3.104,2 -4,1.104 -4,0 l 0,-10 c 0,-1.104 0.896,-2 2,-2 1.104,0 2,0.896 2,2 L 0,0 Z"/></g><g transform="translate(3,21)" id="g32"><path id="path34" style="fill:#ffac33;fill-opacity:1;fill-rule:nonzero;stroke:none" d="m 0,0 c -1.104,0 -2,-0.896 -2,-2 0,-1.104 0.896,-2 2,-2 l 10,0 c 1.104,0 2,0.896 2,2 0,1.104 -0.896,2 -2,2 L 0,0 Z"/></g><g transform="translate(25,21)" id="g36"><path id="path38" style="fill:#ffac33;fill-opacity:1;fill-rule:nonzero;stroke:none" d="m 0,0 c -1.104,0 -2,-0.896 -2,-2 0,-1.104 0.896,-2 2,-2 l 10,0 c 1.104,0 2,0.896 2,2 0,1.104 -0.896,2 -2,2 L 0,0 Z"/></g><g transform="translate(16.1714,23.2427)" id="g40"><path id="path42" style="fill:#ffac33;fill-opacity:1;fill-rule:nonzero;stroke:none" d="m 0,0 c 0.391,-0.391 0.391,-1.024 0,-1.414 -0.39,-0.391 -1.023,-0.391 -1.414,0 l -8.485,8.485 c -0.391,0.39 -0.391,1.024 0,1.414 0.39,0.391 1.024,0.391 1.414,0 L 0,0 Z"/></g><g transform="translate(31.7275,7.6865)" id="g44"><path id="path46" style="fill:#ffac33;fill-opacity:1;fill-rule:nonzero;stroke:none" d="m 0,0 c 0.392,-0.391 0.391,-1.024 0,-1.414 -0.39,-0.391 -1.023,-0.392 -1.414,0 l -8.485,8.485 c -0.391,0.391 -0.391,1.024 0,1.414 0.39,0.391 1.023,0.391 1.414,0 L 0,0 Z"/></g><g transform="translate(14.7573,16.1719)" id="g48"><path id="path50" style="fill:#ffac33;fill-opacity:1;fill-rule:nonzero;stroke:none" d="m 0,0 c 0.391,0.391 1.024,0.391 1.414,0 0.391,-0.391 0.391,-1.023 0,-1.414 L -7.071,-9.9 c -0.39,-0.391 -1.024,-0.391 -1.414,0 -0.391,0.39 -0.391,1.024 0,1.415 L 0,0 Z"/></g><g transform="translate(30.3135,31.7275)" id="g52"><path id="path54" style="fill:#ffac33;fill-opacity:1;fill-rule:nonzero;stroke:none" d="m 0,0 c 0.391,0.392 1.024,0.391 1.414,0 0.391,-0.39 0.392,-1.023 0,-1.414 l -8.485,-8.485 c -0.391,-0.391 -1.024,-0.391 -1.414,0 -0.391,0.39 -0.391,1.023 0,1.414 L 0,0 Z"/></g></g></g></g></svg>
