<svg xmlns="http://www.w3.org/2000/svg" viewBox="0 0 47.5 47.5" enable-background="new 0 0 47.5 47.5"><defs><clipPath id="a"><path d="M0 38h38V0H0v38z"/></clipPath></defs><g><g><g clip-path="url(#a)" transform="matrix(1.25 0 0 -1.25 0 47.5)"><g><path fill="#dd2e44" d="M22.53 19l12.24 12.23c.97.98.97 2.56 0 3.54-.98.97-2.56.97-3.54 0L19 22.53 6.76 34.77c-.97.97-2.56.97-3.53 0-.98-.98-.98-2.56 0-3.54L15.46 19 3.2 6.74c-.98-.98-.98-2.56 0-3.54.5-.5 1.13-.73 1.77-.73.64 0 1.28.24 1.77.73L19 15.46 31.23 3.23c.5-.5 1.13-.73 1.77-.73.64 0 1.28.24 1.77.73.97.98.97 2.56 0 3.53L22.53 19z"/></g></g></g></g></svg>