<?xml version="1.0" encoding="UTF-8" standalone="no"?><svg xmlns:svg="http://www.w3.org/2000/svg" xmlns="http://www.w3.org/2000/svg" version="1.1" viewBox="0 0 47.5 47.5" style="enable-background:new 0 0 47.5 47.5;" id="svg2" xml:space="preserve"><defs id="defs6"><clipPath id="clipPath18"><path d="M 0,38 38,38 38,0 0,0 0,38 z" id="path20"/></clipPath></defs><g transform="matrix(1.25,0,0,-1.25,0,47.5)" id="g12"><g id="g14"><g clip-path="url(#clipPath18)" id="g16"><g transform="translate(18,10)" id="g22"><path d="m 0,0 c -1.657,0 -3,1.343 -3,3 l 0,4 c 0,1.657 1.343,3 3,3 0.603,0.006 6,1 6,5 0,2 -2,4 -5,4 -2.441,0 -4,-2 -4,-3 0,-1.657 -1.343,-3 -3,-3 -1.657,0 -3,1.343 -3,3 0,4.878 4.58,9 10,9 C 9,25 12,19.018 12,14 12,9.855 9.723,6.687 5.587,5.079 4.687,4.729 3.797,4.492 3,4.332 L 3,3 C 3,1.343 1.657,0 0,0" id="path24" style="fill:#be1931;fill-opacity:1;fill-rule:nonzero;stroke:none"/></g><g transform="translate(21,5)" id="g26"><path d="m 0,0 c 0,-1.657 -1.343,-3 -3,-3 -1.657,0 -3,1.343 -3,3 0,1.657 1.343,3 3,3 1.657,0 3,-1.343 3,-3" id="path28" style="fill:#be1931;fill-opacity:1;fill-rule:nonzero;stroke:none"/></g></g></g></g></svg>
