<svg xmlns="http://www.w3.org/2000/svg" viewBox="0 0 47.5 47.5" enable-background="new 0 0 47.5 47.5"><defs><clipPath id="a"><path d="M0 38h38V0H0v38z"/></clipPath></defs><g><g><g clip-path="url(#a)" transform="matrix(1.25 0 0 -1.25 0 47.5)"><g><path fill="#be1931" d="M36.88 25.17c0 5.45-4.4 9.86-9.86 9.86-3.3 0-6.23-1.63-8.02-4.12-1.8 2.5-4.7 4.13-8.02 4.13-5.45 0-9.87-4.4-9.87-9.86 0-.78.1-1.52.28-2.24C2.75 14.4 12.22 5.43 19 2.97c6.78 2.46 16.25 11.44 17.62 19.96.17.72.26 1.46.26 2.24"/></g></g></g></g></svg>