<?xml version="1.0" encoding="UTF-8" standalone="no"?><svg xmlns:svg="http://www.w3.org/2000/svg" xmlns="http://www.w3.org/2000/svg" version="1.1" viewBox="0 0 47.5 47.5" style="enable-background:new 0 0 47.5 47.5;" id="svg2" xml:space="preserve"><defs id="defs6"><clipPath id="clipPath18"><path d="M 0,38 38,38 38,0 0,0 0,38 z" id="path20"/></clipPath></defs><g transform="matrix(1.25,0,0,-1.25,0,47.5)" id="g12"><g id="g14"><g clip-path="url(#clipPath18)" id="g16"><g transform="translate(32,22)" id="g22"><path d="m 0,0 -10,0 0,10 c 0,1.657 -1.343,3 -3,3 -1.657,0 -3,-1.343 -3,-3 l 0,-10 -10,0 c -1.657,0 -3,-1.343 -3,-3 0,-1.657 1.343,-3 3,-3 l 10,0 0,-10 c 0,-1.657 1.343,-3 3,-3 1.657,0 3,1.343 3,3 l 0,10 10,0 c 1.657,0 3,1.343 3,3 0,1.657 -1.343,3 -3,3" id="path24" style="fill:#414042;fill-opacity:1;fill-rule:nonzero;stroke:none"/></g></g></g></g></svg>
