<svg xmlns="http://www.w3.org/2000/svg" viewBox="0 0 47.5 47.5" enable-background="new 0 0 47.5 47.5"><defs><clipPath id="a"><path d="M0 38h38V0H0v38z"/></clipPath></defs><g><g><g clip-path="url(#a)" transform="matrix(1.25 0 0 -1.25 0 47.5)"><g><path fill="#414042" d="M35 19c0-1.66-1.34-3-3-3H6c-1.66 0-3 1.34-3 3s1.34 3 3 3h26c1.66 0 3-1.34 3-3"/></g><g><path fill="#414042" d="M15 30c0 2.2 1.8 4 4 4s4-1.8 4-4-1.8-4-4-4-4 1.8-4 4"/></g><g><path fill="#414042" d="M15 8c0 2.2 1.8 4 4 4s4-1.8 4-4-1.8-4-4-4-4 1.8-4 4"/></g></g></g></g></svg>