<svg xmlns="http://www.w3.org/2000/svg" viewBox="0 0 47.5 47.5" enable-background="new 0 0 47.5 47.5"><defs><clipPath id="a"><path d="M0 38h38V0H0v38z"/></clipPath></defs><g><g><g clip-path="url(#a)" transform="matrix(1.25 0 0 -1.25 0 47.5)"><g><path fill="#414042" d="M19 26.33c-4.02-2.6-7.5-6.35-7.5-10.64 0-6.07 4.6-8.32 7.5-8.32 2.9 0 7.5 2.27 7.5 8.37 0 4.27-3.47 8-7.5 10.58m0-21.95c-5.1 0-10.5 3.96-10.5 11.3 0 4.88 3.37 9.2 7.6 12.28C13.4 29.26 10.75 30 9 30c-2.7 0-5.5-.9-5.53-.92-.8-.26-1.63.16-1.9.95-.25.78.17 1.63.96 1.9C2.66 31.96 5.8 33 9 33c2.7 0 6.45-1.16 10-3.16 3.57 2 7.3 3.16 10 3.16 3.2 0 6.22-1.56 6.34-1.62.78-.43 1.32-.7 1.13-1.27-.18-.54-.9-.32-1.75-.22-.03 0-2.16.4-5.7.4-1.74 0-4.4-1.02-7.1-2.32 4.23-3.08 7.58-7.36 7.58-12.2 0-7.4-5.4-11.38-10.5-11.38"/></g></g></g></g></svg>