<svg xmlns="http://www.w3.org/2000/svg" viewBox="0 0 47.5 47.5" enable-background="new 0 0 47.5 47.5"><defs><clipPath id="a"><path d="M0 38h38V0H0v38z"/></clipPath></defs><g><g><g clip-path="url(#a)" transform="matrix(1.25 0 0 -1.25 0 47.5)"><g><path fill="#3b88c3" d="M37 5c0-2.2-1.8-4-4-4H5C2.8 1 1 2.8 1 5v28c0 2.2 1.8 4 4 4h28c2.2 0 4-1.8 4-4V5z"/></g><g><path fill="#fff" d="M21.6 31.2l6-7.2H24v-7.2c0-5.52-4.68-10-10.2-10-1.42 0-2.87.3-4.1.83l2.7 3.3c.4-.1 1-.13 1.42-.13 3.3 0 6.18 2.7 6.18 6V24h-4.4l6 7.2z"/></g></g></g></g></svg>