<?xml version="1.0" encoding="UTF-8" standalone="no"?><svg xmlns:dc="http://purl.org/dc/elements/1.1/" xmlns:cc="http://creativecommons.org/ns#" xmlns:rdf="http://www.w3.org/1999/02/22-rdf-syntax-ns#" xmlns:svg="http://www.w3.org/2000/svg" xmlns="http://www.w3.org/2000/svg" viewBox="0 0 47.5 47.5" style="enable-background:new 0 0 47.5 47.5;" xml:space="preserve" version="1.1" id="svg2"><metadata id="metadata8"><rdf:RDF><cc:Work rdf:about=""><dc:format>image/svg+xml</dc:format><dc:type rdf:resource="http://purl.org/dc/dcmitype/StillImage"/></cc:Work></rdf:RDF></metadata><defs id="defs6"><clipPath id="clipPath16" clipPathUnits="userSpaceOnUse"><path id="path18" d="M 0,38 38,38 38,0 0,0 0,38 Z"/></clipPath></defs><g transform="matrix(1.25,0,0,-1.25,0,47.5)" id="g10"><g id="g12"><g clip-path="url(#clipPath16)" id="g14"><g transform="translate(29.0449,5.002)" id="g20"><path id="path22" style="fill:#ffac33;fill-opacity:1;fill-rule:nonzero;stroke:none" d="m 0,0 c -0.012,0.036 -0.025,0.079 -0.037,0.116 l -3.154,9.739 7.146,5.248 c 0,0 0.002,10e-4 0.002,10e-4 l 2.06,1.512 c 0.696,0.701 0.878,1.382 -1.062,1.382 l -10.765,0 -3.458,10.643 c -0.14,0.194 -0.375,0.358 -0.777,0.358 -0.404,0 -0.638,-0.166 -0.779,-0.36 l -0.208,-0.64 0,-10e-4 -3.25,-10 -10.763,0 c -1.94,0 -1.759,-0.681 -1.062,-1.381 l 2.057,-1.51 0.001,-10e-4 7.149,-5.245 c 0,0 -2.145,-6.863 -3.185,-9.863 -1.04,-3 2.04,-1.005 2.04,-1.005 l 8,5.819 8.001,-5.797 c 0,0 2.999,-2.017 2.044,0.985"/></g></g></g></g></svg>
