<svg xmlns="http://www.w3.org/2000/svg" viewBox="0 0 47.5 47.5" enable-background="new 0 0 47.5 47.5"><defs><clipPath id="a"><path d="M0 38h38V0H0v38z"/></clipPath></defs><g><g><g clip-path="url(#a)" transform="matrix(1.25 0 0 -1.25 0 47.5)"><g><path fill="#ffac33" d="M29.04 5c0 .04-.02.08-.03.12l-3.15 9.74L33 20.1l2.06 1.52c.7.7.88 1.38-1.06 1.38H23.23l-3.45 10.64c-.14.2-.38.36-.78.36s-.64-.17-.78-.36l-.2-.64-3.26-10H4c-1.94 0-1.76-.68-1.06-1.38L5 20.12l7.14-5.26S10 8 8.96 5C7.92 2 11 4 11 4l8 5.8 8-5.78S30 2 29.04 5"/></g></g></g></g></svg>