<?xml version="1.0" encoding="UTF-8" standalone="no"?>
<!-- Created with Inkscape (http://www.inkscape.org/) -->

<svg
   xmlns:svg="http://www.w3.org/2000/svg"
   xmlns="http://www.w3.org/2000/svg"
   version="1.1"
   width="47.5"
   height="47.5"
   id="svg2"
   xml:space="preserve"><defs
     id="defs6"><clipPath
       id="clipPath18"><path
         d="M 0,38 38,38 38,0 0,0 0,38 z"
         id="path20" /></clipPath></defs><g
     transform="matrix(1.25,0,0,-1.25,0,47.5)"
     id="g12"><g
       id="g14"><g
         clip-path="url(#clipPath18)"
         id="g16"><g
           transform="translate(19,7)"
           id="g22"><path
             d="m 0,0 c -6.627,0 -12,5.373 -12,12 0,6.628 5.373,12 12,12 C 6.627,24 12,18.628 12,12 12,5.373 6.627,0 0,0 M 0,30 C -9.941,30 -18,21.941 -18,12 -18,2.059 -9.941,-6 0,-6 9.941,-6 18,2.059 18,12 18,21.941 9.941,30 0,30"
             id="path24"
             style="fill:#dd2e44;fill-opacity:1;fill-rule:nonzero;stroke:none" /></g></g></g></g></svg>