<svg xmlns="http://www.w3.org/2000/svg" viewBox="0 0 47.5 47.5" enable-background="new 0 0 47.5 47.5"><defs><clipPath id="a"><path d="M0 38h38V0H0v38z"/></clipPath></defs><g><g><g clip-path="url(#a)" transform="matrix(1.25 0 0 -1.25 0 47.5)"><g><path fill="#3b88c3" d="M37 5c0-2.2-1.8-4-4-4H5C2.8 1 1 2.8 1 5v28c0 2.2 1.8 4 4 4h28c2.2 0 4-1.8 4-4V5z"/></g><g><path fill="#fff" d="M22.38 19.04c0 2.35-.22 7.2-3.38 7.2-3.16 0-3.38-4.85-3.38-7.2 0-2.2.22-7.2 3.38-7.2 3.16 0 3.38 5 3.38 7.2m-11.6 0c0 5.05 1.96 11.4 8.22 11.4 6.27 0 8.22-6.35 8.22-11.4 0-5.06-1.95-11.4-8.22-11.4-6.26 0-8.22 6.34-8.22 11.4"/></g></g></g></g></svg>