<?xml version="1.0" encoding="UTF-8" standalone="no"?><svg xmlns:svg="http://www.w3.org/2000/svg" xmlns="http://www.w3.org/2000/svg" version="1.1" viewBox="0 0 47.5 47.5" style="enable-background:new 0 0 47.5 47.5;" id="svg2" xml:space="preserve"><defs id="defs6"><clipPath id="clipPath18"><path d="M 0,38 38,38 38,0 0,0 0,38 z" id="path20"/></clipPath></defs><g transform="matrix(1.25,0,0,-1.25,0,47.5)" id="g12"><g id="g14"><g clip-path="url(#clipPath18)" id="g16"><g transform="translate(28,14)" id="g22"><path d="M 0,0 C -2.589,0 -4.005,2.549 -5.374,5.014 -6.463,6.974 -7.589,9 -9,9 -10.412,9 -11.537,6.974 -12.626,5.014 -13.996,2.549 -15.412,0 -18,0 -20.65,0 -21.853,2.706 -22.914,5.094 -23.962,7.454 -24.744,9 -26,9 c -0.552,0 -1,0.448 -1,1 0,0.552 0.448,1 1,1 2.65,0 3.853,-2.706 4.914,-5.094 C -20.038,3.547 -19.256,2 -18,2 c 1.412,0 2.537,2.026 3.626,3.986 C -13.004,8.451 -11.588,11 -9,11 -6.411,11 -4.995,8.451 -3.626,5.986 -2.537,4.026 -1.411,2 0,2 1.256,2 2.037,3.547 3.086,5.906 4.147,8.294 5.351,11 8,11 8.553,11 9,10.552 9,10 9,9.448 8.553,9 8,9 6.744,9 5.963,7.454 4.914,5.094 3.853,2.706 2.649,0 0,0" id="path24" style="fill:#414042;fill-opacity:1;fill-rule:nonzero;stroke:none"/></g></g></g></g></svg>
