<svg xmlns="http://www.w3.org/2000/svg" viewBox="0 0 47.5 47.5" enable-background="new 0 0 47.5 47.5"><defs><clipPath id="a"><path d="M0 38h38V0H0v38z"/></clipPath></defs><g><g><g clip-path="url(#a)" transform="matrix(1.25 0 0 -1.25 0 47.5)"><g><path fill="#3b88c3" d="M37 5c0-2.2-1.8-4-4-4H5C2.8 1 1 2.8 1 5v28c0 2.2 1.8 4 4 4h28c2.2 0 4-1.8 4-4V5z"/></g><g><path fill="#fff" d="M24.1 12.1c1.35 0 2.4-.63 2.4-2.05C26.5 8.62 25.46 8 24.28 8H13.92c-1.37 0-2.42.62-2.42 2.05 0 .65.4 1.2.7 1.58 2.58 3.07 5.38 5.86 7.73 9.27.56.8 1.1 1.77 1.1 2.88 0 1.27-.97 2.4-2.25 2.4-3.56 0-1.86-5.03-4.83-5.03-1.5 0-2.27 1.05-2.27 2.26 0 3.92 3.48 7.05 7.3 7.05 3.8 0 6.87-2.5 6.87-6.45 0-4.3-4.8-8.6-7.44-11.9h5.7z"/></g></g></g></g></svg>