<?xml version="1.0" encoding="UTF-8" standalone="no"?>
<!-- Created with Inkscape (http://www.inkscape.org/) -->

<svg
   xmlns:svg="http://www.w3.org/2000/svg"
   xmlns="http://www.w3.org/2000/svg"
   version="1.1"
   width="47.5"
   height="47.5"
   id="svg2"
   xml:space="preserve"><defs
     id="defs6"><clipPath
       id="clipPath18"><path
         d="M 0,38 38,38 38,0 0,0 0,38 z"
         id="path20" /></clipPath></defs><g
     transform="matrix(1.25,0,0,-1.25,0,47.5)"
     id="g12"><g
       id="g14"><g
         clip-path="url(#clipPath18)"
         id="g16"><g
           transform="translate(37,5)"
           id="g22"><path
             d="m 0,0 c 0,-2.209 -1.791,-4 -4,-4 l -28,0 c -2.209,0 -4,1.791 -4,4 l 0,28 c 0,2.209 1.791,4 4,4 l 28,0 c 2.209,0 4,-1.791 4,-4 L 0,0 z"
             id="path24"
             style="fill:#3b88c3;fill-opacity:1;fill-rule:nonzero;stroke:none" /></g><g
           transform="translate(24.0859,12.0928)"
           id="g26"><path
             d="m 0,0 c 1.365,0 2.42,-0.62 2.42,-2.046 0,-1.427 -1.055,-2.047 -2.233,-2.047 l -10.356,0 c -1.365,0 -2.418,0.62 -2.418,2.047 0,0.65 0.402,1.209 0.712,1.581 2.574,3.069 5.365,5.861 7.721,9.271 0.558,0.806 1.086,1.767 1.086,2.883 0,1.271 -0.961,2.388 -2.233,2.388 -3.566,0 -1.861,-5.023 -4.837,-5.023 -1.488,0 -2.264,1.054 -2.264,2.263 0,3.907 3.473,7.038 7.287,7.038 3.814,0 6.883,-2.511 6.883,-6.449 C 1.768,7.597 -3.037,3.317 -5.673,0 L 0,0 z"
             id="path28"
             style="fill:#ffffff;fill-opacity:1;fill-rule:nonzero;stroke:none" /></g></g></g></g></svg>