<svg xmlns="http://www.w3.org/2000/svg" viewBox="0 0 47.5 47.5" enable-background="new 0 0 47.5 47.5"><defs><clipPath id="a"><path d="M0 38h38V0H0v38z"/></clipPath></defs><g><g><g clip-path="url(#a)" transform="matrix(1.25 0 0 -1.25 0 47.5)"><g><path fill="#dd2e44" d="M37 19c0-9.94-8.06-18-18-18S1 9.06 1 19s8.06 18 18 18 18-8.06 18-18"/></g><g><path fill="#fff" d="M27.4 21.5c.5 0 .8.2.8.78v5.4c0 .62-.3.75-.8.75h-7.5c-.55 0-.82-.13-.82-.75v-5.4c0-.6.27-.78.8-.78h7.5zm-5.25-1.86c-.1-6.3-1.97-10.18-6.3-12.6-.23-.15-.44-.23-.63-.23-.33 0-.65.18-.87.53-.13.2-.2.4-.2.62 0 .32.18.6.5.8 3.86 2.17 5.43 5.14 5.53 10.9h-.8c-1.63 0-2.33.6-2.33 2.12v6.42c0 1.53.7 2.18 2.32 2.18h8.53c1.6 0 2.33-.65 2.33-2.2v-6.4c0-1.52-.73-2.14-2.33-2.14h-1.48v-9.8c0-.62.2-.73 1.5-.73 1.14 0 1.52.2 1.7.8.17.64.28 1.9.3 3 0 .47.36.77.87.77h.07c.6-.03.92-.3.92-.8v-.06c-.04-1.64-.22-3.2-.66-4.2-.16-.38-.43-.68-.78-.9-.5-.3-1.38-.48-2.54-.48h-.46c-2.45.03-2.94.6-2.94 1.97v10.44h-2.27zm-11.52-5.38c0 1.25.05 2.43.16 3.6-.95-.98-1.98-1.95-3.1-2.8-.18-.15-.4-.23-.6-.23-.33 0-.66.16-.87.5-.14.18-.2.4-.2.58 0 .33.17.66.44.85 2.7 1.86 5.97 5.3 7.26 7.9.08.14.1.25.1.36 0 .2-.15.3-.48.3H7.5c-.5 0-.76.38-.76.92s.27.95.76.95h3.1V31c0 .48.43.75 1.03.75.62 0 1.05-.27 1.05-.75v-3.83h1.75c1.06 0 1.73-.6 1.73-1.52 0-.35-.1-.75-.3-1.18-.67-1.33-1.72-2.86-2.8-4.2 1.3-1.3 2.48-2.23 3.43-2.85.34-.2.5-.48.5-.8 0-.22-.08-.4-.22-.63-.2-.3-.48-.44-.75-.44-.2 0-.4.05-.57.2-.97.72-1.94 1.66-2.97 2.77.1-1.35.15-2.43.15-3.73V7.4c0-.48-.4-.75-1.02-.75-.6 0-1 .3-1 .76v6.86z"/></g></g></g></g></svg>