<svg xmlns="http://www.w3.org/2000/svg" viewBox="0 0 47.5 47.5" enable-background="new 0 0 47.5 47.5"><defs><clipPath id="a"><path d="M0 38h38V0H0v38z"/></clipPath></defs><g><g><g clip-path="url(#a)" transform="matrix(1.25 0 0 -1.25 0 47.5)"><g><path fill="#dd2e44" d="M37 19c0-9.94-8.06-18-18-18S1 9.06 1 19s8.06 18 18 18 18-8.06 18-18"/></g><g><path fill="#fff" d="M28.9 21.96c.38 0 .7-.22.9-.65.9-1.93 1.5-3.9 1.94-5.9.02-.14.05-.27.05-.38 0-.43-.2-.76-.68-.92-.14-.03-.27-.05-.4-.05-.4 0-.74.24-.87.8-.43 1.8-1.05 3.92-1.87 5.7-.08.14-.1.3-.1.46 0 .36.2.7.56.85.17.08.33.1.46.1m-4.45 6.65c.3-.27.48-.6.48-.92 0-.2-.05-.38-.18-.54-.22-.3-.57-.46-.92-.46-.27 0-.5.08-.7.24-1.1.92-2.95 2.1-4.4 2.8-.3.2-.5.5-.5.82 0 .16.06.35.17.5.22.36.57.53.92.53.2 0 .38-.06.57-.14 1.5-.67 3.42-1.83 4.55-2.83m-7.15-6.3c.05 0 .1 0 .2-.02.55-.08.82-.43.82-.92 0-.08 0-.16-.03-.24-.28-2.48-.87-5.1-1.7-7.07-.22-.4-.57-.62-.95-.62-.14 0-.3.02-.43.1-.38.17-.54.44-.54.76 0 .18.05.37.16.58.8 1.87 1.35 4.24 1.62 6.64.05.52.35.8.84.8m2.3 3.06c0 .5.4.8 1.02.8.56 0 .97-.3.97-.82v-9.23c2.7 3.6 4.58 8.07 5.82 13.3.1.46.4.73.92.73.08 0 .18 0 .32-.02.54-.1.86-.54.86-.98 0-.1 0-.2-.02-.27-1.78-6.57-4.48-11.86-7.9-15.72v-2.72c0-.65.18-.92.85-1 .46-.05 1.03-.08 1.86-.08.85 0 1.47.08 1.93.2.54.12.84.3 1 .88.16.56.3 1.56.32 2.8.03.44.4.8 1 .8h.06c.63 0 .92-.36.92-.96v-.08c-.05-1.5-.24-2.8-.56-3.7-.33-.9-1-1.48-2.1-1.7-.7-.13-1.55-.2-2.55-.2-1.07 0-1.96.04-2.66.12-1.43.2-2.05.84-2.05 2.22v1.94c-1.33-1.22-2.82-2.35-4.38-3.3-.25-.16-.5-.24-.7-.24-.33 0-.63.17-.8.52-.12.16-.18.37-.18.56 0 .35.17.7.54.92 2.03 1.13 3.86 2.62 5.5 4.3v10.92zm-4.6-.54c.5 0 .76-.35.76-.9s-.27-.93-.76-.93h-2.45c.62-1.42 1.5-2.72 2.48-3.7.2-.18.3-.47.3-.74 0-.25-.1-.46-.22-.63-.15-.18-.37-.3-.6-.3-.25 0-.55.14-.74.4-.54.7-1.16 1.85-1.62 3.1.16-1.4.3-2.93.3-4.1V7.4c0-.5-.35-.8-.97-.8-.6 0-.92.3-.92.8v8.9c0 1.42.2 2.96.4 4.23-.67-2.24-1.8-5.05-3.18-6.94-.22-.3-.52-.47-.84-.47-.2 0-.38.05-.54.2-.28.2-.4.47-.4.77 0 .22.07.43.23.65 1.83 2.3 3.27 5.48 4 8.26H7.3c-.48 0-.75.4-.75.95 0 .54.27.9.76.9h3.25v3.5c-.84-.2-1.7-.35-2.5-.46-.04-.03-.1-.03-.17-.03-.46 0-.8.27-.9.83v.17c0 .48.3.83.73.9 2.23.3 4.66.96 6.28 1.8.2.1.43.16.64.16.35 0 .65-.2.87-.5.12-.18.18-.37.18-.55 0-.33-.2-.6-.54-.76-.76-.38-1.7-.73-2.7-1.05v-4.03H15z"/></g></g></g></g></svg>