<?xml version="1.0" encoding="UTF-8" standalone="no"?><svg xmlns:svg="http://www.w3.org/2000/svg" xmlns="http://www.w3.org/2000/svg" version="1.1" viewBox="0 0 47.5 47.5" style="enable-background:new 0 0 47.5 47.5;" id="svg2" xml:space="preserve"><defs id="defs6"><clipPath id="clipPath18"><path d="M 0,38 38,38 38,0 0,0 0,38 z" id="path20"/></clipPath></defs><g transform="matrix(1.25,0,0,-1.25,0,47.5)" id="g12"><g id="g14"><g clip-path="url(#clipPath18)" id="g16"><g transform="translate(37,5)" id="g22"><path d="m 0,0 c 0,-2.209 -1.791,-4 -4,-4 l -28,0 c -2.209,0 -4,1.791 -4,4 l 0,28 c 0,2.209 1.791,4 4,4 l 28,0 c 2.209,0 4,-1.791 4,-4 L 0,0 z" id="path24" style="fill:#3b88c3;fill-opacity:1;fill-rule:nonzero;stroke:none"/></g><g transform="translate(25.1094,24.7744)" id="g26"><path d="m 0,0 c 0,-1.954 -0.836,-3.659 -2.542,-4.744 2.232,-1.024 3.782,-3.101 3.782,-5.55 0,-3.721 -3.41,-6.852 -7.813,-6.852 -4.589,0 -7.441,3.379 -7.441,5.829 0,1.209 1.271,2.077 2.388,2.077 2.108,0 1.612,-3.628 5.115,-3.628 1.613,0 2.915,1.24 2.915,2.884 0,4.34 -5.271,1.147 -5.271,4.806 0,3.255 4.402,1.054 4.402,4.495 0,1.179 -0.836,2.078 -2.232,2.078 -2.945,0 -2.542,-3.039 -4.651,-3.039 -1.271,0 -2.015,1.148 -2.015,2.295 0,2.418 3.318,5.023 6.759,5.023 C -2.139,5.674 0,2.418 0,0" id="path28" style="fill:#ffffff;fill-opacity:1;fill-rule:nonzero;stroke:none"/></g></g></g></g></svg>
