<?xml version="1.0" encoding="UTF-8" standalone="no"?>
<!-- Created with Inkscape (http://www.inkscape.org/) -->

<svg
   xmlns:svg="http://www.w3.org/2000/svg"
   xmlns="http://www.w3.org/2000/svg"
   version="1.1"
   width="47.5"
   height="47.5"
   id="svg2"
   xml:space="preserve"><defs
     id="defs6"><clipPath
       id="clipPath18"><path
         d="M 0,38 38,38 38,0 0,0 0,38 z"
         id="path20" /></clipPath></defs><g
     transform="matrix(1.25,0,0,-1.25,0,47.5)"
     id="g12"><g
       id="g14"><g
         clip-path="url(#clipPath18)"
         id="g16"><g
           transform="translate(37,5)"
           id="g22"><path
             d="m 0,0 c 0,-2.209 -1.791,-4 -4,-4 l -28,0 c -2.209,0 -4,1.791 -4,4 l 0,28 c 0,2.209 1.791,4 4,4 l 28,0 c 2.209,0 4,-1.791 4,-4 L 0,0 z"
             id="path24"
             style="fill:#3b88c3;fill-opacity:1;fill-rule:nonzero;stroke:none" /></g><g
           transform="translate(19.2417,25.6113)"
           id="g26"><path
             d="M 0,0 -0.062,0 -4.248,-8.65 0,-8.65 0,0 z m -7.472,-12.743 c -1.519,0 -2.171,1.022 -2.171,1.829 0,0.682 0.248,1.055 0.435,1.364 l 6.945,12.589 c 0.682,1.24 1.55,1.798 3.162,1.798 1.799,0 3.566,-1.148 3.566,-3.969 l 0,-9.518 0.528,0 c 1.209,0 2.17,-0.807 2.17,-2.047 0,-1.241 -0.961,-2.046 -2.17,-2.046 l -0.528,0 0,-2.636 c 0,-1.643 -0.651,-2.418 -2.232,-2.418 -1.582,0 -2.233,0.775 -2.233,2.418 l 0,2.636 -7.472,0 z"
             id="path28"
             style="fill:#ffffff;fill-opacity:1;fill-rule:nonzero;stroke:none" /></g></g></g></g></svg>