<svg xmlns="http://www.w3.org/2000/svg" viewBox="0 0 47.5 47.5" enable-background="new 0 0 47.5 47.5"><defs><clipPath id="a"><path d="M0 38h38V0H0v38z"/></clipPath></defs><g><g><g clip-path="url(#a)" transform="matrix(1.25 0 0 -1.25 0 47.5)"><g><path fill="#3b88c3" d="M37 5c0-2.2-1.8-4-4-4H5C2.8 1 1 2.8 1 5v28c0 2.2 1.8 4 4 4h28c2.2 0 4-1.8 4-4V5z"/></g><g><path fill="#fff" d="M19.24 25.6h-.06l-4.2-8.64h4.26v8.65zm-7.47-12.73c-1.52 0-2.17 1.02-2.17 1.83 0 .68.25 1.05.43 1.36l6.95 12.6c.68 1.23 1.55 1.8 3.16 1.8 1.8 0 3.57-1.16 3.57-3.98v-9.52h.53c1.2 0 2.17-.8 2.17-2.05 0-1.23-.96-2.03-2.17-2.03h-.52v-2.64c0-1.64-.64-2.42-2.23-2.42-1.58 0-2.23.8-2.23 2.43v2.64h-7.47z"/></g></g></g></g></svg>