<?xml version="1.0" encoding="UTF-8" standalone="no"?><svg xmlns:svg="http://www.w3.org/2000/svg" xmlns="http://www.w3.org/2000/svg" version="1.1" viewBox="0 0 47.5 47.5" style="enable-background:new 0 0 47.5 47.5;" id="svg2" xml:space="preserve"><defs id="defs6"><clipPath id="clipPath18"><path d="M 0,38 38,38 38,0 0,0 0,38 z" id="path20"/></clipPath></defs><g transform="matrix(1.25,0,0,-1.25,0,47.5)" id="g12"><g id="g14"><g clip-path="url(#clipPath18)" id="g16"><g transform="translate(37,5)" id="g22"><path d="m 0,0 c 0,-2.209 -1.791,-4 -4,-4 l -28,0 c -2.209,0 -4,1.791 -4,4 l 0,28 c 0,2.209 1.791,4 4,4 l 28,0 c 2.209,0 4,-1.791 4,-4 L 0,0 z" id="path24" style="fill:#3b88c3;fill-opacity:1;fill-rule:nonzero;stroke:none"/></g><g transform="translate(17.3892,22.5107)" id="g26"><path d="m 0,0 c 0.744,0.155 1.551,0.31 2.326,0.31 3.752,0 6.418,-2.977 6.418,-6.604 0,-5.178 -2.852,-8.589 -8.217,-8.589 -2.201,0 -6.821,1.427 -6.821,4.155 0,1.147 0.961,2.108 2.108,2.108 1.241,0 2.729,-1.984 4.806,-1.984 2.171,0 3.288,2.109 3.288,4.062 0,1.86 -1.055,3.131 -2.977,3.131 -1.799,0 -2.078,-1.023 -3.66,-1.023 -1.209,0 -1.829,0.93 -1.829,1.457 0,0.404 0.062,0.713 0.093,1.055 l 0.776,6.542 c 0.34,2.418 0.93,2.945 2.418,2.945 l 7.472,0 c 1.427,0 2.263,-0.836 2.263,-1.953 0,-2.139 -1.611,-2.325 -2.17,-2.325 l -5.829,0 L 0,0 z" id="path28" style="fill:#ffffff;fill-opacity:1;fill-rule:nonzero;stroke:none"/></g></g></g></g></svg>
