<svg xmlns="http://www.w3.org/2000/svg" viewBox="0 0 47.5 47.5" enable-background="new 0 0 47.5 47.5"><defs><clipPath id="a"><path d="M0 38h38V0H0v38z"/></clipPath></defs><g><g><g clip-path="url(#a)" transform="matrix(1.25 0 0 -1.25 0 47.5)"><g><path fill="#3b88c3" d="M37 5c0-2.2-1.8-4-4-4H5C2.8 1 1 2.8 1 5v28c0 2.2 1.8 4 4 4h28c2.2 0 4-1.8 4-4V5z"/></g><g><path fill="#fff" d="M21.36 25.8h-7.94c-1.67 0-2.3 1.08-2.3 2.14 0 1.08.6 2.14 2.3 2.14h11.22c1.6 0 2.24-1.43 2.24-2.24 0-.62-.34-1.27-.72-2.04l-7.7-15.63c-.85-1.74-1.2-2.36-2.6-2.36-1.7 0-2.56 1.32-2.56 2.22 0 .37.1.65.3 1.08l7.76 14.7z"/></g></g></g></g></svg>