<?xml version="1.0" encoding="UTF-8" standalone="no"?><svg xmlns:svg="http://www.w3.org/2000/svg" xmlns="http://www.w3.org/2000/svg" version="1.1" viewBox="0 0 47.5 47.5" style="enable-background:new 0 0 47.5 47.5;" id="svg2" xml:space="preserve"><defs id="defs6"><clipPath id="clipPath18"><path d="M 0,38 38,38 38,0 0,0 0,38 z" id="path20"/></clipPath></defs><g transform="matrix(1.25,0,0,-1.25,0,47.5)" id="g12"><g id="g14"><g clip-path="url(#clipPath18)" id="g16"><g transform="translate(37,5)" id="g22"><path d="m 0,0 c 0,-2.209 -1.791,-4 -4,-4 l -28,0 c -2.209,0 -4,1.791 -4,4 l 0,28 c 0,2.209 1.791,4 4,4 l 28,0 c 2.209,0 4,-1.791 4,-4 L 0,0 z" id="path24" style="fill:#3b88c3;fill-opacity:1;fill-rule:nonzero;stroke:none"/></g><g transform="translate(21.3574,25.7974)" id="g26"><path d="m 0,0 -7.937,0 c -1.674,0 -2.294,1.085 -2.294,2.139 0,1.086 0.589,2.14 2.294,2.14 l 11.224,0 C 4.869,4.279 5.52,2.853 5.52,2.046 5.52,1.426 5.179,0.775 4.807,0 l -7.69,-15.627 c -0.868,-1.737 -1.209,-2.356 -2.604,-2.356 -1.706,0 -2.574,1.302 -2.574,2.201 0,0.372 0.093,0.651 0.311,1.085 L 0,0 z" id="path28" style="fill:#ffffff;fill-opacity:1;fill-rule:nonzero;stroke:none"/></g></g></g></g></svg>
