<svg xmlns="http://www.w3.org/2000/svg" viewBox="0 0 47.5 47.5" enable-background="new 0 0 47.5 47.5"><defs><clipPath id="a"><path d="M0 38h38V0H0v38z"/></clipPath></defs><g><g><g clip-path="url(#a)" transform="matrix(1.25 0 0 -1.25 0 47.5)"><g><path fill="#3b88c3" d="M37 5c0-2.2-1.8-4-4-4H5C2.8 1 1 2.8 1 5v28c0 2.2 1.8 4 4 4h28c2.2 0 4-1.8 4-4V5z"/></g><g><path fill="#fff" d="M16.77 24c0-1.4.8-2.36 2.23-2.36s2.27.96 2.27 2.36c0 1.33-.8 2.36-2.27 2.36-1.46 0-2.23-1.03-2.23-2.36m-.6-9c0-1.57.94-3.1 2.83-3.1 1.77 0 2.82 1.53 2.82 3.1 0 1.96-1.1 3.1-2.82 3.1-1.8 0-2.82-1.36-2.82-3.1m-4.84-.3c0 2.48 1.37 4.3 3.32 5.36-1.46 1.06-2.36 2.48-2.36 4.44 0 3.62 3 5.95 6.7 5.95 3.6 0 6.73-2.3 6.73-5.95 0-1.74-.87-3.48-2.4-4.44 2.12-1.05 3.33-2.97 3.33-5.36 0-4.3-3.5-7.07-7.66-7.07-4.28 0-7.66 2.9-7.66 7.07"/></g></g></g></g></svg>