<?xml version="1.0" encoding="UTF-8" standalone="no"?><svg xmlns:svg="http://www.w3.org/2000/svg" xmlns="http://www.w3.org/2000/svg" version="1.1" viewBox="0 0 47.5 47.5" style="enable-background:new 0 0 47.5 47.5;" id="svg2" xml:space="preserve"><defs id="defs6"><clipPath id="clipPath18"><path d="M 0,38 38,38 38,0 0,0 0,38 z" id="path20"/></clipPath></defs><g transform="matrix(1.25,0,0,-1.25,0,47.5)" id="g12"><g id="g14"><g clip-path="url(#clipPath18)" id="g16"><g transform="translate(37,5)" id="g22"><path d="m 0,0 c 0,-2.209 -1.791,-4 -4,-4 l -28,0 c -2.209,0 -4,1.791 -4,4 l 0,28 c 0,2.209 1.791,4 4,4 l 28,0 c 2.209,0 4,-1.791 4,-4 L 0,0 z" id="path24" style="fill:#3b88c3;fill-opacity:1;fill-rule:nonzero;stroke:none"/></g><g transform="translate(21.9473,22.7588)" id="g26"><path d="m 0,0 c 0,1.736 -1.086,3.225 -2.946,3.225 -1.767,0 -2.945,-1.427 -2.945,-3.225 0,-1.644 0.992,-3.225 2.945,-3.225 C -1.178,-3.225 0,-1.829 0,0 m 4.837,0 c 0,-4.682 -4.743,-11.255 -7.876,-14.17 -0.248,-0.248 -0.62,-0.496 -0.992,-0.744 -0.341,-0.217 -0.682,-0.217 -0.93,-0.217 -0.868,0 -2.202,1.148 -2.202,2.264 0,0.433 0.28,0.805 0.652,1.27 1.24,1.52 3.256,3.504 4.279,4.961 l -0.062,0.063 c -0.559,-0.248 -1.272,-0.372 -1.954,-0.372 -3.72,0 -6.48,3.286 -6.48,6.945 0,4.031 3.193,7.689 7.782,7.689 C 1.83,7.689 4.837,4.124 4.837,0" id="path28" style="fill:#ffffff;fill-opacity:1;fill-rule:nonzero;stroke:none"/></g></g></g></g></svg>
