<?xml version="1.0" encoding="UTF-8" standalone="no"?>
<!-- Created with Inkscape (http://www.inkscape.org/) -->

<svg
   xmlns:svg="http://www.w3.org/2000/svg"
   xmlns="http://www.w3.org/2000/svg"
   version="1.1"
   width="47.5"
   height="47.5"
   id="svg2"
   xml:space="preserve"><defs
     id="defs6"><clipPath
       id="clipPath18"><path
         d="M 0,38 38,38 38,0 0,0 0,38 z"
         id="path20" /></clipPath></defs><g
     transform="matrix(1.25,0,0,-1.25,0,47.5)"
     id="g12"><g
       id="g14"><g
         clip-path="url(#clipPath18)"
         id="g16"><g
           transform="translate(19,3)"
           id="g22"><path
             d="m 0,0 c -8.836,0 -16,7.163 -16,16 0,8.836 7.164,16 16,16 C 8.837,32 16,24.836 16,16 16,7.163 8.837,0 0,0 M 0,34 C -9.941,34 -18,25.94 -18,16 -18,6.059 -9.941,-2 0,-2 9.941,-2 18,6.059 18,16 18,25.94 9.941,34 0,34"
             id="path24"
             style="fill:#000000;fill-opacity:1;fill-rule:nonzero;stroke:none" /></g><g
           transform="translate(19.7231,30.4482)"
           id="g26"><path
             d="m 0,0 c 2.263,0 6.666,-0.744 6.666,-3.473 0,-1.116 -0.776,-2.077 -1.922,-2.077 -1.272,0 -2.139,1.085 -4.744,1.085 -3.845,0 -5.829,-3.256 -5.829,-7.038 0,-3.689 2.015,-6.852 5.829,-6.852 2.605,0 3.658,1.301 4.929,1.301 1.397,0 2.047,-1.394 2.047,-2.107 0,-2.977 -4.682,-3.659 -6.976,-3.659 -6.294,0 -10.666,4.992 -10.666,11.41 C -10.666,-4.961 -6.325,0 0,0"
             id="path28"
             style="fill:#000000;fill-opacity:1;fill-rule:nonzero;stroke:none" /></g></g></g></g></svg>