<svg xmlns="http://www.w3.org/2000/svg" viewBox="0 0 47.5 47.5" enable-background="new 0 0 47.5 47.5"><defs><clipPath id="a"><path d="M0 38h38V0H0v38z"/></clipPath></defs><g><g><g clip-path="url(#a)" transform="matrix(1.25 0 0 -1.25 0 47.5)"><g><path d="M19 3C10.16 3 3 10.16 3 19s7.16 16 16 16 16-7.16 16-16S27.84 3 19 3m0 34C9.06 37 1 28.94 1 19S9.06 1 19 1s18 8.06 18 18-8.06 18-18 18"/></g><g><path d="M19.72 30.45c2.27 0 6.67-.75 6.67-3.47 0-1.12-.8-2.08-1.93-2.08-1.27 0-2.14 1.08-4.75 1.08-3.84 0-5.83-3.25-5.83-7.03 0-3.7 2-6.86 5.82-6.86 2.6 0 3.66 1.3 4.93 1.3 1.4 0 2.05-1.4 2.05-2.1 0-3-4.68-3.67-6.98-3.67-6.3 0-10.66 5-10.66 11.4 0 6.46 4.34 11.42 10.66 11.42"/></g></g></g></g></svg>