<svg xmlns="http://www.w3.org/2000/svg" viewBox="0 0 47.5 47.5" enable-background="new 0 0 47.5 47.5"><defs><clipPath id="a"><path d="M0 38h38V0H0v38z"/></clipPath></defs><g><g><g clip-path="url(#a)" transform="matrix(1.25 0 0 -1.25 0 47.5)"><g><path fill="#a7a9ac" d="M19.04 23.05L1 11V3c0-1.1.9-2 2-2h32c1.1 0 2 .9 2 2v8L19.04 23.04z"/></g><path fill="#808285" d="M37 4H1V3h36v1z"/><path fill="#808285" d="M37 7H1V6h36v1z"/><path fill="#808285" d="M37 10H1V9h36v1z"/><g><path fill="#808285" d="M2.5 12h33L34 13H4l-1.5-1z"/></g><g><path fill="#d1d3d4" d="M19 37c-7.18 0-13-1.34-13-3V1h26v33c0 1.66-5.82 3-13 3"/></g><g><path fill="#bcbec0" d="M19 24c7.18 0 13-1.34 13-3v2c0 1.66-5.82 3-13 3S6 24.66 6 23v-2c0 1.66 5.82 3 13 3"/></g><g><path fill="#bcbec0" d="M19 12c7.18 0 13-1.34 13-3v2c0 1.66-5.82 3-13 3S6 12.66 6 11V9c0 1.66 5.82 3 13 3"/></g><g><path fill="#bcbec0" d="M19 6c7.18 0 13-1.34 13-3v2c0 1.66-5.82 3-13 3S6 6.66 6 5V3c0 1.66 5.82 3 13 3"/></g><g><path fill="#bcbec0" d="M19 30c7.18 0 13-1.34 13-3v2c0 1.66-5.82 3-13 3S6 30.66 6 29v-2c0 1.66 5.82 3 13 3"/></g><g><path fill="#bcbec0" d="M15 36.85V1h2v35.96c-.7-.02-1.35-.06-2-.1"/></g><g><path fill="#bcbec0" d="M9 35.92V1h2v35.36c-.73-.13-1.4-.28-2-.44"/></g><g><path fill="#bcbec0" d="M21 36.96V1h2v35.85c-.65.05-1.3.1-2 .1"/></g><g><path fill="#bcbec0" d="M27 36.36V1h2v34.92c-.6.16-1.27.3-2 .44"/></g><g><path fill="#414042" d="M19 18c7.18 0 13-1.34 13-3v2c0 1.66-5.82 3-13 3S6 18.66 6 17v-2c0 1.66 5.82 3 13 3"/></g><g><path fill="#be1931" d="M12.13 31.42h-.7c-.58 0-.82.42-.82.83 0 .4.3.82.82.82h1.7c.52 0 .8-.37.8-.85V25.4c0-.6-.38-.94-.9-.94-.5 0-.9.34-.9.94v6.02z"/></g><g><path fill="#be1931" d="M19.5 29.27c0 .9-.1 2.78-1.3 2.78-1.23 0-1.32-1.87-1.32-2.78 0-.85.1-2.78 1.3-2.78 1.23 0 1.32 1.92 1.32 2.77m-4.5 0c0 1.95.77 4.4 3.2 4.4 2.4 0 3.17-2.45 3.17-4.4 0-1.96-.76-4.4-3.18-4.4-2.43 0-3.2 2.44-3.2 4.4"/></g><g><path fill="#be1931" d="M26.22 30.24c0 .67-.42 1.25-1.14 1.25-.7 0-1.14-.56-1.14-1.26 0-.63.38-1.25 1.14-1.25.68 0 1.14.53 1.14 1.24m1.87 0c0-1.8-1.85-4.35-3.06-5.48-.1-.1-.24-.2-.38-.3-.13-.07-.27-.07-.36-.07-.34 0-.86.43-.86.86 0 .17.1.32.26.5.48.58 1.26 1.35 1.65 1.92l-.02.02c-.22-.1-.5-.14-.76-.14-1.44 0-2.5 1.27-2.5 2.68 0 1.56 1.23 2.98 3 2.98 1.85 0 3.02-1.38 3.02-2.98"/></g></g></g></g></svg>