<svg xmlns="http://www.w3.org/2000/svg" viewBox="0 0 36 36"><path fill="#138808" d="M0 27c0 2.209 1.791 4 4 4h28c2.209 0 4-1.791 4-4v-4H0v4z"/><path fill="#EEE" d="M0 13h36v10H0z"/><path fill="#F93" d="M36 13V9c0-2.209-1.791-4-4-4H4C1.791 5 0 6.791 0 9v4h36z"/><circle fill="navy" cx="18" cy="18" r="4"/><circle fill="#EEE" cx="18" cy="18" r="3"/><path fill="#6666B3" d="M18 18.83 17.608 20.974 17.785 18.802 16.852 20.772 17.585 18.719 16.174 20.38 17.413 18.587 15.62 19.826 17.281 18.415 15.228 19.148 17.198 18.215 15.026 18.392 17.17 18 15.026 17.608 17.198 17.785 15.228 16.852 17.281 17.585 15.62 16.174 17.413 17.413 16.174 15.62 17.585 17.281 16.852 15.228 17.785 17.198 17.608 15.026 18 17.17 18.392 15.026 18.215 17.198 19.148 15.228 18.415 17.281 19.826 15.62 18.587 17.413 20.38 16.174 18.719 17.585 20.772 16.852 18.802 17.785 20.974 17.608 18.83 18 20.974 18.392 18.802 18.215 20.772 19.148 18.719 18.415 20.38 19.826 18.587 18.587 19.826 20.38 18.415 18.719 19.148 20.772 18.215 18.802 18.392 20.974z"/><circle fill="navy" cx="18" cy="18" r="1"/></svg>
