<svg width="36" height="36" viewBox="0 0 36 36" fill="none" xmlns="http://www.w3.org/2000/svg">
<path d="M0 27C0 29.209 1.791 31 4 31H32C34.209 31 36 29.209 36 27V23H0V27Z" fill="#DA0001"/>
<path d="M0 13H36V23H0V13Z" fill="#EEEEEE"/>
<path d="M36 13V9C36 6.791 34.209 5 32 5H4C1.791 5 0 6.791 0 9V13H36Z" fill="#239F40"/>
<path d="M12.0536 17.9813C12.0536 17.9813 11.9087 16.4172 12.2206 15.4574C12.4357 14.7952 12.7681 14.2524 13.3053 13.8099C14.1447 13.1185 15.4409 12.9362 16.3505 13.351C15.5541 13.3925 14.4878 13.6614 13.9101 14.1438C13.4677 14.5131 13.122 15.0324 12.9509 15.5829C12.66 16.5191 12.805 18.0232 12.805 18.0232L12.0542 17.9818L12.0536 17.9813Z" fill="#FFBB26"/>
<path d="M12.8544 18.0703L12.0129 18.0237L12.0093 17.9853C12.0078 17.9694 11.8675 16.4008 12.1783 15.4436C12.4093 14.7327 12.7586 14.2022 13.2769 13.775C13.6866 13.4375 14.2259 13.205 14.7949 13.121C15.3597 13.0376 15.919 13.1046 16.3692 13.31L16.5356 13.3858L16.3528 13.3955C15.5938 13.4355 14.5152 13.6972 13.9391 14.1776C13.5058 14.5391 13.1611 15.0559 12.9937 15.5957C12.7089 16.5124 12.8482 18.0032 12.8492 18.0181L12.8544 18.0698V18.0703ZM12.0954 17.9387L12.756 17.9756C12.734 17.7016 12.6485 16.4054 12.9081 15.5696C13.0807 15.0139 13.4356 14.4818 13.8817 14.1095C14.1532 13.8831 14.5521 13.6859 15.0356 13.5395C15.3951 13.4304 15.7858 13.3546 16.1551 13.3203C15.7551 13.1789 15.2845 13.1395 14.8087 13.2096C14.2556 13.2916 13.7322 13.5169 13.3342 13.8442C12.8293 14.26 12.4892 14.7768 12.2639 15.4712C11.9858 16.328 12.0764 17.6929 12.0959 17.9387H12.0954Z" fill="black"/>
<path d="M12.6211 15.4236C12.3523 16.2353 12.3523 17.1305 12.3789 17.8998L12.4788 17.8957C12.4521 17.13 12.4583 16.2471 12.7169 15.4548C12.9755 14.6625 13.4826 13.9609 14.471 13.5435C13.291 13.8088 12.7594 15.0052 12.6206 15.4236H12.6211Z" fill="black"/>
<path d="M12.048 17.3929H12.7655V19.0021H12.048V17.3929Z" fill="#FFBB26"/>
<path d="M12.8102 19.0466H12.0031V17.3478H12.8102V19.0466ZM12.0927 18.957H12.7206V17.4375H12.0927V18.957Z" fill="black"/>
<path d="M14.9186 20.4293C14.4874 20.0288 14.4552 20.332 13.5922 19.1694C13.5922 19.1694 13.2153 19.2847 13.0191 19.2923C12.9167 19.2964 12.8117 19.2831 12.7154 19.2514C12.5382 19.1935 12.232 18.9851 12.232 18.9851L12.1531 18.309C12.1531 18.309 11.9974 18.2839 11.9508 18.2168C11.9109 18.159 11.9103 18.0693 11.9508 18.012C12.0087 17.9295 12.0983 17.9101 12.2094 17.8788C12.4174 17.8204 12.6494 17.8245 12.8614 17.8686C13.0493 17.9075 13.1953 17.9982 13.3786 18.053C13.942 18.2215 15.1322 18.3295 15.1322 18.3295L14.9186 20.4288V20.4293Z" fill="#FFBB26"/>
<path d="M14.9538 20.523L14.8877 20.462C14.7515 20.3355 14.6588 20.2828 14.5605 20.2265C14.3582 20.1112 14.1487 19.9919 13.5746 19.2211C13.4799 19.2488 13.1895 19.3302 13.02 19.3369C12.9104 19.341 12.7998 19.3261 12.7009 19.2938C12.5196 19.2344 12.219 19.0306 12.2062 19.0219L12.1893 19.0106L12.112 18.3469C12.0577 18.3346 11.9558 18.3039 11.9138 18.2429C11.8631 18.1697 11.8631 18.0596 11.9138 17.9869C11.9768 17.8972 12.0679 17.8722 12.1734 17.843L12.1965 17.8363C12.3952 17.7805 12.6343 17.7769 12.8694 17.8256C12.9816 17.8486 13.0799 17.8901 13.1752 17.9295C13.2438 17.9582 13.315 17.9879 13.3903 18.0104C13.9434 18.1759 15.1233 18.2839 15.1351 18.2855L15.1802 18.2895L14.9528 20.5235H14.9538V20.523ZM13.6089 19.1167L13.6279 19.1423C14.2051 19.9202 14.4084 20.0359 14.605 20.1481C14.6875 20.1952 14.7725 20.2439 14.8826 20.3371L15.0829 18.3694C14.8575 18.3479 13.8717 18.247 13.3657 18.0954C13.2853 18.0714 13.2125 18.0406 13.1414 18.0109C13.0461 17.971 12.956 17.9331 12.852 17.9116C12.6308 17.866 12.4064 17.8691 12.221 17.9213L12.1975 17.928C12.1012 17.9546 12.0315 17.9741 11.987 18.0371C11.9573 18.0791 11.9578 18.1482 11.987 18.1907C12.0116 18.226 12.1027 18.2547 12.1596 18.2639L12.1929 18.2696L12.197 18.3034L12.2733 18.9589C12.3393 19.0024 12.5826 19.1607 12.7286 19.2083C12.8177 19.2375 12.917 19.2508 13.0164 19.2472C13.2043 19.2401 13.5746 19.1274 13.5782 19.1264L13.6084 19.1172H13.6089V19.1167Z" fill="black"/>
<path d="M12.0072 18.862C12.0072 18.862 12.2961 18.8651 12.4343 18.8517C12.5347 18.842 12.6192 18.7893 12.7268 18.8313C12.7908 18.8564 12.8502 18.9849 12.8502 18.9849C12.8502 18.9849 12.7529 19.1027 12.6817 19.1283C12.483 19.1995 12.208 19.2149 12.0298 19.1078C11.9821 19.0791 11.9632 19.0167 11.9622 18.9644C11.9622 18.9275 12.0072 18.862 12.0072 18.862Z" fill="#FFBB26"/>
<path d="M12.3526 19.2297C12.2286 19.2297 12.1052 19.2056 12.0064 19.1462C11.9418 19.1073 11.9183 19.0274 11.9172 18.9649C11.9167 18.9173 11.9577 18.8548 11.97 18.8364L11.9833 18.8169H12.0069C12.0099 18.8169 12.2952 18.82 12.4294 18.8072C12.4581 18.8046 12.4862 18.7975 12.5154 18.7903C12.581 18.7739 12.6557 18.756 12.7423 18.7898C12.8191 18.82 12.879 18.9419 12.8903 18.9665L12.9021 18.9921L12.8842 19.0136C12.8734 19.0264 12.7771 19.1416 12.6962 19.1708C12.5958 19.2067 12.4739 19.2302 12.352 19.2302H12.3526V19.2297ZM12.0314 18.9066C12.0176 18.9301 12.0069 18.9547 12.0069 18.9634C12.0069 18.9998 12.0197 19.0489 12.0524 19.0689C12.222 19.1708 12.4898 19.1493 12.6665 19.0858C12.7034 19.0725 12.7592 19.0192 12.7966 18.9777C12.773 18.9347 12.7367 18.883 12.71 18.8722C12.6501 18.8487 12.5979 18.8615 12.5374 18.8763C12.5062 18.884 12.4739 18.8922 12.4386 18.8953C12.3218 18.9066 12.1052 18.9066 12.0314 18.906V18.9066Z" fill="black"/>
<path d="M11.9958 18.6057C11.9958 18.6057 12.2846 18.6088 12.4229 18.5955C12.5233 18.5858 12.6636 18.5125 12.7712 18.5545C12.8352 18.5796 12.8946 18.7082 12.8946 18.7082C12.8946 18.7082 12.7973 18.8259 12.7261 18.8516C12.5274 18.9227 12.196 18.9586 12.0178 18.8516C11.9702 18.8229 11.9512 18.7604 11.9502 18.7082C11.9502 18.6713 11.9953 18.6057 11.9953 18.6057H11.9958Z" fill="#FFBB26"/>
<path d="M12.3298 18.9641C12.2028 18.9641 12.0819 18.9426 11.9954 18.8904C11.9308 18.8515 11.9073 18.7716 11.9063 18.7091C11.9057 18.6615 11.9467 18.599 11.959 18.5805L11.9723 18.5611H11.9959C11.999 18.5611 12.2842 18.5641 12.4184 18.5513C12.4481 18.5483 12.4834 18.5391 12.5213 18.5288C12.6058 18.5058 12.7016 18.4802 12.7871 18.5134C12.864 18.5437 12.9239 18.6655 12.9351 18.6901L12.9469 18.7157L12.929 18.7372C12.9182 18.7501 12.822 18.8653 12.741 18.8945C12.6222 18.937 12.4717 18.9646 12.3293 18.9646L12.3298 18.9641ZM12.0205 18.6507C12.0066 18.6743 11.9959 18.6988 11.9959 18.7075C11.9959 18.7439 12.0087 18.7931 12.0415 18.813C12.1961 18.9057 12.5034 18.8842 12.7113 18.8095C12.7477 18.7961 12.804 18.7429 12.8414 18.7014C12.8179 18.6584 12.7815 18.6067 12.7549 18.5959C12.6965 18.5734 12.6197 18.5938 12.5449 18.6143C12.5034 18.6256 12.464 18.6364 12.4271 18.6399C12.3103 18.6512 12.0937 18.6512 12.0199 18.6507H12.0205Z" fill="black"/>
<path d="M11.9958 18.3194C11.9958 18.3194 12.2846 18.3225 12.4229 18.3092C12.5233 18.2994 12.6636 18.2262 12.7712 18.2682C12.8352 18.2933 12.8946 18.4218 12.8946 18.4218C12.8946 18.4218 12.7973 18.5396 12.7261 18.5652C12.5274 18.6364 12.196 18.6723 12.0178 18.5652C11.9702 18.5366 11.9512 18.4741 11.9502 18.4218C11.9502 18.385 11.9953 18.3194 11.9953 18.3194H11.9958Z" fill="#FFBB26"/>
<path d="M12.3298 18.6773C12.2028 18.6773 12.0819 18.6558 11.9954 18.6035C11.9308 18.5646 11.9073 18.4847 11.9063 18.4222C11.9057 18.3746 11.9467 18.3121 11.959 18.2937L11.9723 18.2742H11.9959C11.999 18.2742 12.2842 18.2773 12.4184 18.2645C12.4481 18.2614 12.4834 18.2522 12.5213 18.2419C12.6058 18.2189 12.7016 18.1933 12.7871 18.2266C12.864 18.2568 12.9239 18.3787 12.9351 18.4033L12.9469 18.4289L12.929 18.4504C12.9182 18.4632 12.822 18.5784 12.741 18.6076C12.6222 18.6501 12.4717 18.6778 12.3293 18.6778L12.3298 18.6773ZM12.0205 18.3638C12.0066 18.3874 11.9959 18.412 11.9959 18.4207C11.9959 18.457 12.0087 18.5062 12.0415 18.5262C12.1961 18.6189 12.5034 18.5974 12.7113 18.5226C12.7482 18.5093 12.804 18.456 12.8414 18.4145C12.8179 18.3715 12.7815 18.3198 12.7549 18.309C12.6965 18.2865 12.6197 18.307 12.5449 18.3275C12.5034 18.3387 12.464 18.3495 12.4271 18.3531C12.3103 18.3643 12.0937 18.3638 12.0199 18.3638H12.0205Z" fill="black"/>
<path d="M12.9459 17.6027H13.4314L13.6644 17.4465L13.4324 17.2867H12.9469L12.4204 17.1561L11.894 17.2867H11.3808L11.1488 17.4465L11.3818 17.6027H11.895L12.4204 17.7533L12.9459 17.6027Z" fill="#FFBB26"/>
<path d="M12.4204 17.8002L11.8888 17.6475H11.3679L11.0688 17.4468L11.3669 17.2419H11.8888L12.4209 17.1098L12.953 17.2419H13.4472L13.7453 17.4468L13.4462 17.6475H12.953L12.4214 17.8002H12.4204ZM11.3951 17.5579H11.9011L12.4204 17.707L12.9397 17.5579H13.418L13.585 17.4458L13.4185 17.3316H12.9412L12.4204 17.202L11.899 17.3316H11.3941L11.2276 17.4458L11.3946 17.5579H11.3951Z" fill="black"/>
<path d="M18.9863 13.0439C18.9264 13.0439 18.8664 13.0455 18.807 13.048L18.8618 16.276L18.382 14.1256C18.257 14.1461 18.1336 14.1727 18.0122 14.205L18.6263 16.4082L17.3019 13.3543C17.179 13.4004 17.0581 13.4516 16.9393 13.5074L18.4004 16.5797L17.0458 14.6126C16.9398 14.6756 16.8374 14.7437 16.7385 14.8165L18.0342 16.508L15.7168 14.3284C15.6241 14.4139 15.535 14.504 15.4495 14.5967L17.9215 16.7779L15.9606 15.5898C15.8909 15.684 15.8264 15.7818 15.7665 15.8832L18.0957 17.1498L18.1853 17.0089L18.2268 17.0473L18.4193 16.8711L18.5136 16.8112V16.8158L18.7205 16.739V16.7431L18.8992 16.7006H19.078L19.2613 16.7431V16.739L19.4682 16.8158V16.8112L19.5624 16.8711L19.755 17.0473L19.7965 17.0089L19.8626 17.116L19.8154 17.1334L19.9143 17.3561L19.9711 17.5738L22.6399 17.0939C22.623 16.9792 22.6004 16.8665 22.5723 16.7564L19.9568 17.3469L23.445 16.0896C23.4035 15.9754 23.3574 15.8638 23.3067 15.7547L20.1867 16.9869L22.2117 15.8863C22.1518 15.7849 22.0878 15.6866 22.0181 15.5923L20.0602 16.7779L22.5303 14.5993C22.4453 14.5071 22.3562 14.418 22.264 14.333L19.9481 16.5127L21.2407 14.8195C21.1424 14.7473 21.0405 14.6787 20.935 14.6157L19.713 16.3897L19.6802 16.3723L21.0415 13.51C20.9222 13.4537 20.8003 13.403 20.6769 13.3569L19.4267 16.2397L19.4078 16.2294L19.9706 14.2085C19.8482 14.1758 19.7243 14.1481 19.5988 14.1276L19.1548 16.0973L19.2106 13.0511C19.1363 13.0475 19.0621 13.0455 18.9873 13.0455L18.9863 13.0439Z" fill="#FFBB26"/>
<path d="M19.9392 17.6236L19.8834 17.4085L19.2637 17.5483L19.8578 17.3342L19.7933 17.1893L19.5213 17.2968L19.7789 17.157L19.7564 17.1068L19.6949 17.051L19.656 17.0746L19.6888 17.0454L19.5362 16.9061L19.467 16.8625L19.277 16.7919L19.0737 16.7447H18.9057L18.7767 16.7755L18.8458 17.0239L18.7419 16.7837L18.706 16.7924L18.5759 16.841L18.684 17.0679L18.5375 16.8554L18.5175 16.8631L18.4484 16.9066L18.2958 17.0459L18.3291 17.0751L18.2901 17.0515L18.2287 17.1079L18.1959 17.0776L18.1124 17.2082L15.7059 15.8992L15.7295 15.8593C15.7894 15.7579 15.8554 15.658 15.9261 15.5622L15.9502 15.5294L17.5173 16.479L15.3868 14.5989L15.4181 14.5651C15.5103 14.4652 15.5984 14.3766 15.688 14.2942L15.7187 14.266L17.6648 16.0969L16.6764 14.8068L16.7133 14.7797C16.8137 14.7059 16.9186 14.6368 17.0241 14.5738L17.06 14.5523L18.1201 16.0918L16.8813 13.486L16.9217 13.4671C17.041 13.4107 17.1645 13.3585 17.2874 13.3124L17.3273 13.2976L18.4095 15.7932L17.9583 14.1738L18.0018 14.162C18.1242 14.1293 18.2497 14.1021 18.3757 14.0816L18.4177 14.075L18.8105 15.8362L18.7623 13.0056L18.8064 13.0041C18.8765 13.0015 18.9339 13 18.9872 13C19.0599 13 19.1357 13.002 19.2125 13.0056L19.256 13.0077L19.2074 15.6585L19.5643 14.0755L19.6058 14.0821C19.7298 14.1026 19.8568 14.1303 19.9823 14.1641L20.0258 14.1759L19.5833 15.764L20.6526 13.2991L20.6926 13.3139C20.8263 13.3641 20.9466 13.4148 21.0608 13.4686L21.1013 13.4876L19.8619 16.0943L20.9225 14.5549L20.9584 14.5764C21.0598 14.6368 21.1643 14.7059 21.2677 14.7822L21.3046 14.8094L20.3162 16.1041L22.2643 14.2706L22.2951 14.2988C22.3873 14.3838 22.4779 14.4744 22.5639 14.5677L22.5952 14.6015L20.4667 16.4795L22.0313 15.532L22.0554 15.5648C22.123 15.6565 22.1885 15.7563 22.2515 15.8629L22.2751 15.9028L20.8544 16.6751L23.3311 15.6969L23.349 15.7353C23.4003 15.8454 23.4469 15.9591 23.4889 16.0739L23.5042 16.1158L20.6532 17.1437L22.6064 16.7028L22.6172 16.7447C22.6454 16.8549 22.6684 16.9696 22.6858 17.0869L22.692 17.1299L19.9397 17.6246V17.6236H19.9392ZM19.9705 17.3885L20.0048 17.5206L22.5895 17.0561C22.5757 16.9721 22.5593 16.8892 22.5399 16.8083L19.9705 17.3885ZM19.8768 17.157L19.9418 17.3035H19.9423L23.388 16.061C23.3562 15.9765 23.3214 15.8926 23.284 15.8101L19.929 17.135L19.93 17.137L19.8762 17.1565H19.8768V17.157ZM19.7882 17.0776L19.7574 17.1058L19.7969 17.0915L19.7882 17.0776ZM19.8271 16.9706L19.9013 17.0904L22.1501 15.868C22.104 15.7917 22.0559 15.7189 22.0072 15.6508L19.8276 16.9711H19.8271V16.9706ZM15.8298 15.8644L18.0812 17.0889L18.1565 16.9706L15.9732 15.6483C15.9225 15.7189 15.8744 15.7911 15.8293 15.8649H15.8298V15.8644ZM18.177 16.9378L18.2277 16.9849L18.3547 16.8687L15.7172 14.3879C15.6501 14.4509 15.583 14.5185 15.5144 14.5917L18.1754 16.9399L18.1765 16.9378H18.177ZM19.6304 16.8707L19.7554 16.9849L19.8066 16.9373L19.8076 16.9394L22.4661 14.5943C22.4006 14.5246 22.333 14.457 22.2638 14.392L19.6304 16.8707ZM19.4235 16.7284L19.59 16.8339L19.6222 16.8631L21.1776 14.8263C21.1008 14.771 21.0234 14.7198 20.9481 14.6737L19.7277 16.4457L19.6212 16.3898L20.9814 13.5296C20.8928 13.4891 20.8006 13.4502 20.7003 13.4118L19.4476 16.2997L19.3544 16.249L19.9147 14.2373C19.8204 14.2133 19.7257 14.1923 19.6325 14.1759L19.1009 16.5322L19.1639 13.0912C19.1034 13.0886 19.0435 13.0876 18.9861 13.0876C18.9452 13.0876 18.9022 13.0876 18.8525 13.0901L18.9134 16.6536H19.0834L19.2166 16.6843V16.672L19.4235 16.7488V16.7284ZM16.8024 14.8242L18.3629 16.861L18.3926 16.8339L18.4827 16.7765L17.0329 14.6711C16.9545 14.7187 16.8772 14.7699 16.8019 14.8237H16.8024V14.8242ZM18.559 16.7289V16.7504L18.7034 16.6966L17.2787 13.4107C17.185 13.4471 17.0917 13.4865 17.0001 13.5285L18.5309 16.7468L18.5595 16.7289H18.559ZM18.7659 16.6736V16.6853L18.8945 16.6546H18.9006L18.348 14.1764C18.2538 14.1928 18.1601 14.2127 18.0684 14.2363L18.7495 16.6797L18.7664 16.6736H18.7659Z" fill="black"/>
<path d="M18.9861 15.8643C17.9449 15.8643 17.0886 16.6335 17.0886 17.5928C17.0886 18.552 17.9444 19.3259 18.9861 19.3259C20.0278 19.3259 20.8887 18.5525 20.8887 17.5928C20.8887 16.633 20.0273 15.8643 18.9861 15.8643Z" fill="#FFBB26"/>
<path d="M18.9861 19.3712C17.9152 19.3712 17.0436 18.5738 17.0436 17.5931C17.0436 16.6123 17.9147 15.8195 18.9861 15.8195C20.0575 15.8195 20.9333 16.6149 20.9333 17.5931C20.9333 18.5712 20.0596 19.3712 18.9861 19.3712ZM18.9861 15.9097C17.9644 15.9097 17.1332 16.6651 17.1332 17.5936C17.1332 18.5221 17.9644 19.2821 18.9861 19.2821C20.0078 19.2821 20.8436 18.5246 20.8436 17.5936C20.8436 16.6625 20.0104 15.9097 18.9861 15.9097Z" fill="black"/>
<path d="M12.326 22.9557H23.9024V22.3017H12.326V22.9557Z" fill="#FFBB26"/>
<path d="M23.9476 22.9999H12.2816V22.2563H23.9476V22.9999ZM12.3712 22.9103H23.858V22.3454H12.3712V22.9103Z" fill="black"/>
<path d="M12.6926 22.2511C12.7008 22.3745 12.7433 22.5717 12.7919 22.6285C12.6035 22.6014 12.5942 22.3745 12.5707 22.2557L12.6921 22.2511H12.6926ZM13.0429 22.2511C13.0511 22.3745 13.0936 22.5717 13.1422 22.6285C12.9538 22.6014 12.9445 22.3745 12.921 22.2557L13.0424 22.2511H13.0429ZM13.3932 22.2511C13.4014 22.3745 13.4439 22.5717 13.4925 22.6285C13.3041 22.6014 13.2948 22.3745 13.2713 22.2557L13.3927 22.2511H13.3932ZM13.7435 22.2511C13.7517 22.3745 13.7942 22.5717 13.8428 22.6285C13.6544 22.6014 13.6451 22.3745 13.6216 22.2557L13.743 22.2511H13.7435ZM14.0938 22.2511C14.102 22.3745 14.1445 22.5717 14.1931 22.6285C14.0047 22.6014 13.9954 22.3745 13.9719 22.2557L14.0933 22.2511H14.0938ZM14.4441 22.2511C14.4523 22.3745 14.4948 22.5717 14.5434 22.6285C14.355 22.6014 14.3457 22.3745 14.3222 22.2557L14.4436 22.2511H14.4441ZM14.7944 22.2511C14.8026 22.3745 14.8451 22.5717 14.8937 22.6285C14.7053 22.6014 14.6961 22.3745 14.6725 22.2557L14.7939 22.2511H14.7944ZM15.1447 22.2511C15.1529 22.3745 15.1954 22.5717 15.244 22.6285C15.0556 22.6014 15.0464 22.3745 15.0228 22.2557L15.1442 22.2511H15.1447ZM15.495 22.2511C15.5032 22.3745 15.5457 22.5717 15.5943 22.6285C15.4059 22.6014 15.3967 22.3745 15.3731 22.2557L15.4945 22.2511H15.495ZM15.8453 22.2511C15.8535 22.3745 15.896 22.5717 15.9446 22.6285C15.7562 22.6014 15.747 22.3745 15.7234 22.2557L15.8448 22.2511H15.8453ZM16.1956 22.2511C16.2038 22.3745 16.2463 22.5717 16.2949 22.6285C16.1065 22.6014 16.0973 22.3745 16.0737 22.2557L16.1951 22.2511H16.1956ZM16.5459 22.2511C16.5541 22.3745 16.5966 22.5717 16.6452 22.6285C16.4568 22.6014 16.4476 22.3745 16.424 22.2557L16.5454 22.2511H16.5459ZM16.8962 22.2511C16.9044 22.3745 16.9469 22.5717 16.9955 22.6285C16.8071 22.6014 16.7979 22.3745 16.7743 22.2557L16.8957 22.2511H16.8962ZM17.2465 22.2511C17.2547 22.3745 17.2972 22.5717 17.3458 22.6285C17.1574 22.6014 17.1482 22.3745 17.1246 22.2557L17.246 22.2511H17.2465ZM17.5968 22.2511C17.605 22.3745 17.6475 22.5717 17.6962 22.6285C17.5077 22.6014 17.4985 22.3745 17.4749 22.2557L17.5963 22.2511H17.5968ZM17.9471 22.2511C17.9553 22.3745 17.9978 22.5717 18.0465 22.6285C17.858 22.6014 17.8488 22.3745 17.8252 22.2557L17.9466 22.2511H17.9471ZM18.2974 22.2511C18.3056 22.3745 18.3481 22.5717 18.3968 22.6285C18.2083 22.6014 18.1991 22.3745 18.1755 22.2557L18.2969 22.2511H18.2974ZM18.6477 22.2511C18.6559 22.3745 18.6984 22.5717 18.7471 22.6285C18.5586 22.6014 18.5494 22.3745 18.5258 22.2557L18.6472 22.2511H18.6477ZM18.998 22.2511C19.0062 22.3745 19.0487 22.5717 19.0974 22.6285C18.9089 22.6014 18.8997 22.3745 18.8761 22.2557L18.9975 22.2511H18.998ZM19.3483 22.2511C19.3565 22.3745 19.399 22.5717 19.4477 22.6285C19.2592 22.6014 19.25 22.3745 19.2264 22.2557L19.3478 22.2511H19.3483ZM19.6986 22.2511C19.7068 22.3745 19.7493 22.5717 19.798 22.6285C19.6095 22.6014 19.6003 22.3745 19.5767 22.2557L19.6981 22.2511H19.6986ZM20.0489 22.2511C20.0571 22.3745 20.0996 22.5717 20.1483 22.6285C19.9598 22.6014 19.9506 22.3745 19.927 22.2557L20.0484 22.2511H20.0489ZM20.3992 22.2511C20.4074 22.3745 20.4499 22.5717 20.4986 22.6285C20.3101 22.6014 20.3009 22.3745 20.2773 22.2557L20.3987 22.2511H20.3992ZM20.7495 22.2511C20.7577 22.3745 20.8002 22.5717 20.8489 22.6285C20.6604 22.6014 20.6512 22.3745 20.6276 22.2557L20.749 22.2511H20.7495ZM21.0998 22.2511C21.108 22.3745 21.1505 22.5717 21.1992 22.6285C21.0107 22.6014 21.0015 22.3745 20.9779 22.2557L21.0993 22.2511H21.0998ZM21.4501 22.2511C21.4583 22.3745 21.5008 22.5717 21.5495 22.6285C21.361 22.6014 21.3518 22.3745 21.3282 22.2557L21.4496 22.2511H21.4501ZM21.8004 22.2511C21.8086 22.3745 21.8511 22.5717 21.8998 22.6285C21.7113 22.6014 21.7021 22.3745 21.6785 22.2557L21.7999 22.2511H21.8004ZM22.1507 22.2511C22.1589 22.3745 22.2014 22.5717 22.2501 22.6285C22.0616 22.6014 22.0524 22.3745 22.0288 22.2557L22.1502 22.2511H22.1507ZM22.501 22.2511C22.5092 22.3745 22.5517 22.5717 22.6004 22.6285C22.4119 22.6014 22.4027 22.3745 22.3791 22.2557L22.5005 22.2511H22.501ZM22.8513 22.2511C22.8595 22.3745 22.902 22.5717 22.9507 22.6285C22.7622 22.6014 22.753 22.3745 22.7294 22.2557L22.8508 22.2511H22.8513ZM23.2016 22.2511C23.2098 22.3745 23.2523 22.5717 23.301 22.6285C23.1125 22.6014 23.1033 22.3745 23.0797 22.2557L23.2011 22.2511H23.2016ZM23.5519 22.2511C23.5601 22.3745 23.6026 22.5717 23.6513 22.6285C23.4628 22.6014 23.4536 22.3745 23.43 22.2557L23.5514 22.2511H23.5519Z" fill="black"/>
<path d="M19.4659 20.626C19.2395 21.0035 19.5535 21.3405 19.3829 21.6293C19.3829 21.6293 19.0203 21.5643 18.8319 21.5561C18.7013 21.5504 18.5087 21.5504 18.397 21.6016C18.1978 21.6933 18.0257 21.8188 17.9351 21.9581C17.7702 22.2121 17.9715 22.4472 18.269 22.3227C18.5353 22.5675 18.8488 22.4108 19.2329 22.2772C19.3117 22.2495 19.427 22.2792 19.5238 22.2992C19.6246 22.3197 19.7388 22.336 19.8341 22.2992C20.0605 22.2116 20.2141 21.954 20.3575 21.5402L20.5808 21.6339C20.5834 21.4572 20.5045 21.322 20.4016 21.1996L20.6679 21.2892C20.6694 21.1131 20.5834 20.9845 20.4958 20.8877L20.7519 20.9825C20.7519 20.9825 20.7303 20.8908 20.7262 20.7551C20.7237 20.667 20.7447 20.5384 20.7273 20.4801C20.6976 20.3792 20.6581 20.3392 20.6325 20.2655C20.612 20.2066 20.5869 20.0852 20.5869 20.0852C19.8157 19.7472 19.9816 18.9508 20.1235 18.6138L18.6547 19.6268C18.3581 19.8199 18.7653 20.5149 19.4654 20.627V20.626H19.4659Z" fill="#FFBB26"/>
<path d="M18.5953 22.4963C18.4775 22.4963 18.3663 22.463 18.2608 22.3739C18.1113 22.4277 17.9715 22.4026 17.8906 22.3058C17.8091 22.2085 17.8122 22.0661 17.8983 21.9335C17.9884 21.7947 18.1589 21.6621 18.3786 21.5606C18.4718 21.5176 18.6209 21.5012 18.8344 21.511C18.9927 21.5181 19.2657 21.5632 19.3594 21.5791C19.4126 21.4664 19.3911 21.3435 19.366 21.2032C19.3368 21.0388 19.3046 20.8539 19.3978 20.6588C19.132 20.6029 18.9404 20.4739 18.8242 20.372C18.6654 20.2327 18.5553 20.0647 18.5225 19.9105C18.4923 19.7682 18.5307 19.654 18.6311 19.5889L20.2249 18.4899L20.1655 18.6307C20.1296 18.7162 20.0154 19.0204 20.0579 19.3431C20.1004 19.6678 20.2848 19.9034 20.6059 20.0442L20.6269 20.0534L20.6315 20.076C20.6315 20.076 20.6561 20.1953 20.6756 20.2511C20.6853 20.2793 20.6976 20.3023 20.7114 20.329C20.7304 20.3653 20.7524 20.4058 20.7703 20.4677C20.7831 20.5113 20.779 20.5763 20.7749 20.6449C20.7724 20.6828 20.7703 20.7223 20.7713 20.754C20.7754 20.8836 20.7954 20.9717 20.7959 20.9727L20.8149 21.0536L20.6254 20.9835C20.6745 21.0634 20.7145 21.1648 20.713 21.2902V21.3517L20.523 21.2882C20.5813 21.3804 20.6279 21.4941 20.6259 21.6349L20.6249 21.7015L20.3842 21.6006C20.228 22.0354 20.0672 22.2577 19.8505 22.3417C19.745 22.3826 19.6221 22.3657 19.5151 22.3437C19.5048 22.3417 19.4946 22.3396 19.4838 22.337C19.4009 22.3196 19.3066 22.2997 19.2482 22.3201C19.2057 22.335 19.1632 22.3504 19.1228 22.3652C18.9333 22.4338 18.7581 22.4973 18.5953 22.4973V22.4963ZM18.2788 22.2705L18.2998 22.2899C18.5164 22.4892 18.7704 22.397 19.092 22.2802C19.133 22.2653 19.1755 22.25 19.2185 22.2346C19.3005 22.2059 19.4075 22.2285 19.5023 22.2484C19.5125 22.2505 19.5228 22.2531 19.533 22.2551C19.6267 22.2746 19.7343 22.2894 19.8177 22.2572C20.0144 22.1808 20.1634 21.9622 20.315 21.5253L20.3309 21.4802L20.5327 21.5647C20.5194 21.4516 20.4676 21.3476 20.3673 21.2283L20.2648 21.1064L20.6192 21.2257C20.6013 21.0864 20.5235 20.9845 20.4625 20.9174L20.5112 20.8452L20.6945 20.9128C20.6889 20.8728 20.6833 20.8191 20.6817 20.7561C20.6807 20.7202 20.6833 20.6787 20.6858 20.6388C20.6894 20.5835 20.693 20.521 20.6848 20.4923C20.6694 20.4396 20.6505 20.4042 20.6326 20.3704C20.6182 20.3433 20.6028 20.3151 20.5911 20.2798C20.5752 20.2342 20.5573 20.1548 20.5491 20.1164C20.2152 19.9633 20.0149 19.7001 19.9698 19.3549C19.9376 19.1106 19.9893 18.877 20.0354 18.7295L18.6818 19.6632C18.5948 19.7195 18.5953 19.8189 18.6111 19.8921C18.6695 20.1666 19.0162 20.5087 19.4741 20.582L19.5397 20.5922L19.5058 20.649C19.3932 20.8365 19.4249 21.0152 19.4551 21.1878C19.4823 21.343 19.5105 21.5033 19.4229 21.6518L19.407 21.6784L19.3763 21.6728C19.3727 21.6723 19.0142 21.6083 18.8314 21.6001C18.6352 21.5914 18.4959 21.6057 18.417 21.6421C18.2122 21.7363 18.055 21.8572 17.974 21.9821C17.9105 22.0805 17.9049 22.1824 17.9602 22.2484C18.0196 22.3196 18.1318 22.3319 18.2537 22.2807L18.2803 22.2694L18.2788 22.2705Z" fill="black"/>
<path d="M19.4956 19.9577C19.3926 19.9198 19.2385 19.8353 19.2047 19.6857L19.3163 19.4527C19.2677 19.7159 19.4443 19.9085 19.4956 19.9577ZM19.3271 20.0995C19.2241 20.0616 19.07 19.9771 19.0362 19.8276L19.1478 19.5946C19.0992 19.8578 19.2759 20.0504 19.3271 20.0995ZM19.1852 20.2665C19.0823 20.2286 18.9281 20.1441 18.8943 19.9945L19.006 19.7615C18.9573 20.0248 19.134 20.2173 19.1852 20.2665ZM19.0044 21.8316C19.0044 21.8316 18.7827 21.8198 18.6521 21.8403C18.5655 21.8536 18.4805 21.8848 18.4078 21.9345C18.3243 21.9914 18.2239 22.0641 18.1963 22.1742C18.184 22.2234 18.1988 22.273 18.2106 22.3109C18.2224 22.3493 18.2342 22.3796 18.2342 22.3796L18.333 22.3412C18.333 22.3412 18.3192 22.3171 18.3094 22.2853C18.2997 22.2541 18.2956 22.2131 18.3002 22.1952C18.3171 22.1266 18.3914 22.0641 18.4692 22.0113C18.6546 21.8649 18.8349 21.9089 19.0049 21.8316H19.0044ZM19.7742 21.7927C19.8525 21.6872 19.9857 21.5668 20.0323 21.4208C20.0789 21.2744 20.0953 21.1207 20.0425 20.9963C19.9421 21.0398 19.7368 21.764 19.7736 21.7927H19.7742ZM20.338 20.6275C20.3119 20.7766 20.0686 20.7725 19.9637 20.7346C19.8582 20.6972 19.7798 20.5686 19.8325 20.4483C19.8745 20.6122 20.1378 20.6885 20.3385 20.6275H20.338ZM20.3769 20.2614C20.3508 20.4104 20.1076 20.4063 20.0026 20.3684C19.8971 20.331 19.8187 20.2025 19.8715 20.0821C19.9135 20.246 20.1767 20.3223 20.3775 20.2614H20.3769Z" fill="black"/>
<path d="M24.0206 14.4629C24.0656 14.6667 23.9755 14.8071 23.8582 14.8634C23.6815 14.9479 23.5171 14.8911 23.3696 14.7651C23.1776 14.6012 23.0475 14.383 22.8764 14.2386C22.6593 14.0558 22.3971 14.0066 22.1717 14.0204C21.9459 14.0342 21.7436 14.1269 21.5987 14.2729C21.3078 14.5648 21.233 15.0882 21.5377 15.5184C21.8245 15.9235 22.6864 16.2113 23.0132 16.4561C23.3066 16.6759 23.4362 16.8213 23.4926 16.9831C23.5489 17.145 23.5704 17.3503 23.4833 17.548C23.3783 17.7862 23.1279 17.8881 22.7546 17.8958C22.2583 17.9055 21.7902 17.4861 21.3114 17.4159C20.4146 17.2843 20.1596 17.633 19.3263 17.6428C17.6757 17.6622 17.0022 17.1634 17.0022 17.1634L15.2128 19.235C14.6664 19.4388 14.6377 20.1912 15.2128 20.5963C15.0484 20.6905 14.8856 20.8861 14.8134 21.05C14.7227 21.2564 14.6484 21.3844 14.5363 21.534C14.5363 21.534 14.1747 21.4695 13.9863 21.4613C13.8557 21.4556 13.661 21.4567 13.5494 21.5084C13.3502 21.6001 13.1791 21.724 13.089 21.8638C12.9241 22.1178 13.1248 22.3524 13.4224 22.2274C13.6887 22.4722 14.0016 22.3186 14.3857 22.1844C14.4646 22.1568 14.5808 22.1859 14.6771 22.2059C14.778 22.2264 14.8932 22.2448 14.9875 22.2059C15.2087 22.1142 15.3086 21.8787 15.4668 21.7138C15.5411 21.6359 15.6876 21.4782 15.6876 21.4782L15.833 21.662C15.9314 21.5094 15.936 21.3568 15.9129 21.2042L16.0963 21.4008C16.1931 21.2487 16.1859 21.0966 16.1618 20.9727L16.3354 21.1694C16.3354 21.1694 16.3641 21.0838 16.4343 20.964C16.4798 20.8861 16.5679 20.7827 16.5848 20.7243C16.6135 20.6234 16.6222 20.4933 16.6222 20.4933C16.7226 20.5809 16.7989 20.626 16.9275 20.6091C16.9459 20.4262 16.9592 20.3709 17.0074 20.2967C17.646 20.2659 18.2406 20.164 18.7788 19.9587C19.1855 19.8035 19.5624 19.5915 19.8973 19.3077C19.9849 19.234 20.0551 19.1945 20.137 19.1111C20.2174 19.0286 20.5513 19.0706 20.7198 19.1326C20.8013 19.1623 20.9032 19.2867 20.9032 19.2867C21.0379 19.6304 21.3564 20.4508 22.2332 20.6265C22.0068 21.0039 22.3192 21.344 22.1487 21.6323C22.1487 21.6323 21.7871 21.5637 21.5987 21.5555C21.4681 21.5499 21.2781 21.5509 21.1664 21.6026C20.9672 21.6943 20.7915 21.8182 20.7014 21.958C20.5365 22.2121 20.7373 22.4512 21.0348 22.3263C21.3011 22.5711 21.614 22.4133 21.9981 22.2792C22.077 22.2515 22.1933 22.2807 22.2895 22.3007C22.3904 22.3211 22.5046 22.3375 22.5999 22.3007C22.8263 22.2131 22.9825 21.9565 23.1264 21.5432L23.3471 21.6333C23.3497 21.4567 23.2713 21.3235 23.1684 21.2011L23.4362 21.2912C23.4378 21.1151 23.3502 20.9855 23.2626 20.8887L23.5212 20.9829C23.5212 20.9829 23.4972 20.8918 23.4931 20.7561C23.4905 20.668 23.5105 20.5404 23.4931 20.4821C23.4634 20.3812 23.4244 20.3417 23.3988 20.268C23.3783 20.2091 23.3563 20.0882 23.3563 20.0882C22.8944 19.8752 22.7925 19.5239 22.7878 19.2063C22.7817 18.7874 22.7121 18.5503 22.4212 18.2968C22.5231 18.2804 22.6281 18.2937 22.7172 18.2947C23.2723 18.3009 23.7271 18.0417 23.8628 17.6607C23.9535 17.4067 23.9545 17.1214 23.8444 16.9038C23.6867 16.5919 23.5197 16.4572 23.2011 16.219C22.8421 15.9502 22.013 15.6506 21.7912 15.3371C21.5536 15.0017 21.6227 14.6575 21.8194 14.4593C22.0125 14.2652 22.3285 14.1741 22.6701 14.4424C22.8749 14.6032 22.9994 14.8316 23.1684 14.973C23.3655 15.1379 23.7092 15.2741 24.0047 15.1015C24.3115 14.9223 24.3519 14.657 24.3222 14.4317C24.3734 14.2468 24.5506 14.0885 24.8605 14.0742C24.7621 13.8857 24.3104 13.6957 24.1184 14.0896C23.8879 13.7761 23.4475 13.9282 23.365 14.2268C23.5955 14.1787 23.848 14.2519 24.0216 14.466L24.0206 14.4629Z" fill="#FFBB26"/>
<path d="M21.3578 22.4977C21.2405 22.4977 21.1299 22.4644 21.0244 22.3758C20.8759 22.429 20.7366 22.4039 20.6557 22.3071C20.5737 22.2088 20.5763 22.0649 20.6623 21.9317C20.7509 21.7955 20.9225 21.6634 21.1463 21.5599C21.2395 21.5169 21.3921 21.4995 21.5996 21.5087C21.7578 21.5159 22.0298 21.5635 22.1235 21.5804C22.1767 21.4677 22.1552 21.3443 22.1306 21.2035C22.102 21.0376 22.0697 20.8516 22.1644 20.6555C21.3138 20.4522 20.9993 19.6548 20.8631 19.3075C20.8329 19.2722 20.7576 19.1923 20.7033 19.1723C20.5164 19.1037 20.2214 19.0858 20.1681 19.1401C20.1149 19.1944 20.0672 19.2302 20.0171 19.2681C19.9879 19.2901 19.9576 19.3127 19.9254 19.3403C19.6017 19.6143 19.2212 19.8356 18.7941 19.9984C18.2855 20.1925 17.7088 20.3037 17.0323 20.3385C16.999 20.3964 16.9872 20.4522 16.9714 20.612L16.9678 20.6473L16.933 20.6519C16.8193 20.6673 16.7409 20.6391 16.6574 20.5787C16.6513 20.6248 16.6416 20.6837 16.6267 20.7354C16.6144 20.7789 16.5755 20.8337 16.5345 20.8921C16.512 20.9244 16.4884 20.9571 16.472 20.9853C16.4055 21.099 16.3773 21.1815 16.3773 21.1825L16.3527 21.2557L16.2211 21.1067C16.2226 21.2019 16.2037 21.3126 16.133 21.4232L16.1018 21.4718L15.9681 21.3279C15.9701 21.4365 15.9497 21.5599 15.8698 21.6839L15.836 21.7366L15.6839 21.5441C15.6357 21.5958 15.5492 21.688 15.4979 21.7417C15.4483 21.7935 15.4053 21.8518 15.3592 21.9138C15.2634 22.0434 15.164 22.1776 15.0032 22.2441C14.8967 22.2882 14.7738 22.2687 14.6668 22.2467C14.6575 22.2447 14.6478 22.2426 14.6381 22.2406C14.5541 22.2226 14.4583 22.2027 14.3989 22.2237C14.3584 22.238 14.3185 22.2523 14.2791 22.2662C13.9498 22.385 13.6645 22.4884 13.4115 22.2754C13.262 22.3292 13.1221 22.3041 13.0417 22.2078C12.9608 22.111 12.9634 21.9681 13.0494 21.8355C13.139 21.6972 13.3096 21.5651 13.5288 21.4636C13.6225 21.4206 13.7767 21.4032 13.9866 21.4124C14.1474 21.4196 14.4266 21.4657 14.5152 21.4811C14.6186 21.3407 14.6872 21.2188 14.7707 21.0283C14.8419 20.867 14.9873 20.6924 15.1328 20.5899C14.8573 20.3718 14.7123 20.0548 14.7518 19.748C14.7851 19.4894 14.9428 19.2881 15.1845 19.1939L16.9939 17.0992L17.0272 17.1238C17.0272 17.1238 17.1977 17.2477 17.5634 17.366C17.9014 17.4756 18.4812 17.6042 19.3241 17.5944C19.6775 17.5904 19.9254 17.5243 20.1656 17.4603C20.4903 17.3737 20.7965 17.2918 21.3158 17.3681C21.5355 17.4003 21.7537 17.5043 21.9642 17.6042C22.2208 17.7261 22.4861 17.8526 22.7514 17.8474C23.1278 17.8403 23.3465 17.7384 23.4402 17.5263C23.5293 17.324 23.494 17.1253 23.4484 16.9942C23.3951 16.8401 23.265 16.6982 22.9844 16.4887C22.8707 16.4037 22.6843 16.31 22.4866 16.2107C22.1132 16.0232 21.6897 15.8107 21.4992 15.5408C21.3486 15.3282 21.2795 15.085 21.2984 14.8371C21.3163 14.6056 21.4111 14.3931 21.5652 14.2379C21.722 14.0807 21.9355 13.9864 22.1675 13.9721C22.3652 13.9603 22.6535 13.99 22.904 14.201C22.991 14.2743 23.0653 14.3629 23.1437 14.4566C23.2215 14.5498 23.3024 14.6466 23.3977 14.7275C23.5503 14.8581 23.6947 14.8883 23.8381 14.8197C23.9303 14.7756 24.0148 14.6635 23.9784 14.4796C23.8258 14.2968 23.6005 14.2164 23.3731 14.264L23.3014 14.2789L23.3209 14.2082C23.3669 14.0412 23.5201 13.9065 23.7014 13.8727C23.8571 13.8441 24.0025 13.8917 24.1101 14.0044C24.191 13.8789 24.3108 13.8092 24.4537 13.8072H24.4598C24.6539 13.8072 24.8383 13.9306 24.8987 14.0469L24.931 14.1088L24.8608 14.1119C24.6063 14.1242 24.4225 14.242 24.3661 14.4284C24.4045 14.7413 24.2903 14.979 24.0256 15.1336C23.8827 15.2171 23.7142 15.2407 23.538 15.2012C23.3961 15.1695 23.2543 15.0983 23.138 15.001C23.0571 14.9334 22.988 14.8489 22.9147 14.7593C22.8323 14.6589 22.7473 14.5549 22.6407 14.4709C22.2356 14.1529 21.933 14.4008 21.8495 14.4842C21.6057 14.729 21.662 15.0727 21.8259 15.3042C21.9545 15.4855 22.3053 15.6668 22.6443 15.8419C22.8691 15.9582 23.0822 16.0683 23.2261 16.1758C23.5452 16.415 23.7193 16.5543 23.8822 16.8764C23.9933 17.0966 24.0015 17.3927 23.9032 17.6687C23.7613 18.0677 23.2932 18.333 22.7345 18.333H22.7145C22.6889 18.333 22.6622 18.3314 22.6346 18.3299C22.5982 18.3283 22.5608 18.3263 22.524 18.3268C22.7734 18.5762 22.8246 18.8246 22.8302 19.1995C22.8364 19.6056 23.009 19.8735 23.3726 20.0414L23.3936 20.0512L23.3977 20.0742C23.3977 20.0742 23.4192 20.1925 23.4381 20.2473C23.4479 20.276 23.4602 20.2985 23.474 20.3252C23.4929 20.361 23.5144 20.402 23.5329 20.4634C23.5457 20.507 23.5421 20.572 23.538 20.6412C23.536 20.6785 23.5334 20.7175 23.5344 20.7487C23.5385 20.8767 23.561 20.9648 23.561 20.9659L23.5826 21.0483L23.3885 20.9776C23.4386 21.058 23.4791 21.1605 23.4781 21.2859V21.3474L23.286 21.2834C23.3439 21.375 23.3905 21.4887 23.3885 21.6286L23.3874 21.6941L23.1493 21.5973C22.9936 22.0306 22.8318 22.2529 22.6126 22.3379C22.5071 22.3788 22.3842 22.3619 22.2771 22.3399C22.2679 22.3379 22.2582 22.3358 22.2484 22.3338C22.1644 22.3158 22.0687 22.2959 22.0093 22.3169C21.9657 22.3322 21.9222 22.3476 21.8807 22.363C21.6917 22.4316 21.5176 22.4951 21.3553 22.4951L21.3578 22.4977ZM21.0429 22.2718L21.0639 22.2913C21.2795 22.4895 21.5325 22.3978 21.8526 22.2815C21.8945 22.2662 21.9381 22.2503 21.9821 22.2349C22.0651 22.2062 22.1737 22.2288 22.2689 22.2488C22.2787 22.2508 22.2879 22.2529 22.2971 22.2544C22.3908 22.2739 22.4984 22.2887 22.5823 22.2564C22.7795 22.1801 22.9337 21.9548 23.0827 21.5256L23.0981 21.4811L23.2973 21.562C23.2804 21.4201 23.2061 21.3136 23.1329 21.2265L23.0305 21.1046L23.3864 21.224C23.3685 21.0852 23.2896 20.9828 23.2282 20.9151L23.2768 20.8429L23.4612 20.91C23.455 20.8696 23.4489 20.8163 23.4473 20.7538C23.4463 20.7185 23.4484 20.6775 23.4509 20.6381C23.454 20.5828 23.4576 20.5198 23.4494 20.4911C23.434 20.4383 23.4151 20.403 23.3972 20.3692C23.3828 20.3421 23.368 20.3139 23.3557 20.2791C23.3398 20.233 23.3234 20.1541 23.3162 20.1157C22.9367 19.9329 22.7493 19.6348 22.7426 19.2036C22.7365 18.8118 22.6827 18.5808 22.3913 18.3268L22.3196 18.2643L22.4139 18.249C22.4917 18.2362 22.5711 18.2403 22.6407 18.2433C22.6679 18.2449 22.6935 18.2459 22.7176 18.2459C23.2471 18.252 23.6896 18.0088 23.8207 17.6416C23.9108 17.3881 23.9047 17.1182 23.8043 16.9195C23.6502 16.6147 23.4909 16.4872 23.1744 16.2501C23.0361 16.1466 22.8272 16.0386 22.6054 15.9239C22.2566 15.7436 21.8961 15.5572 21.7552 15.3579C21.4976 14.9938 21.5862 14.6261 21.788 14.4228C21.9867 14.223 22.3299 14.1129 22.6981 14.4018C22.8123 14.4919 22.9009 14.5995 22.9859 14.7039C23.0561 14.79 23.1227 14.8709 23.1969 14.9334C23.4013 15.1044 23.7229 15.2089 23.982 15.0573C24.2186 14.919 24.3154 14.7147 24.2775 14.432L24.2765 14.4228L24.2791 14.4141C24.3369 14.2051 24.5208 14.0658 24.7774 14.031C24.7072 13.9593 24.5843 13.8978 24.4614 13.8978H24.4563C24.3656 13.8989 24.2407 13.9357 24.1587 14.1032L24.1264 14.1698L24.0824 14.1104C23.9938 13.99 23.8612 13.9357 23.7188 13.9619C23.5964 13.9844 23.4899 14.0627 23.4356 14.1652C23.6722 14.1421 23.8996 14.2389 24.0563 14.4325L24.0629 14.4407L24.065 14.4509C24.1085 14.6497 24.0353 14.8263 23.8781 14.9011C23.7019 14.9851 23.5211 14.9498 23.3408 14.7961C23.2399 14.7101 23.157 14.6107 23.0766 14.5145C23.0008 14.4238 22.9286 14.3378 22.8476 14.2697C22.6197 14.0781 22.356 14.051 22.1742 14.0617C21.9642 14.0745 21.7711 14.1595 21.6298 14.3014C21.4905 14.4412 21.4049 14.6338 21.3891 14.8443C21.3717 15.0711 21.4357 15.2944 21.5734 15.4896C21.7512 15.741 22.1639 15.9479 22.5281 16.1308C22.7293 16.2316 22.9193 16.3274 23.0392 16.417C23.3352 16.6388 23.474 16.7924 23.5339 16.965C23.5846 17.1115 23.624 17.3343 23.5231 17.5627C23.4156 17.8065 23.1641 17.9289 22.7544 17.9371C22.4676 17.9422 22.1931 17.8116 21.9268 17.6851C21.7122 17.5832 21.5099 17.4869 21.3035 17.4567C20.8022 17.3829 20.5046 17.4623 20.1891 17.5468C19.9438 17.6124 19.6903 17.68 19.3257 17.6841C18.8519 17.6897 18.1554 17.6533 17.5301 17.4495C17.2443 17.3563 17.0764 17.2616 17.0088 17.2191L15.2378 19.2697L15.227 19.2737C15.0109 19.3542 14.8701 19.5314 14.8409 19.7598C14.803 20.0527 14.9551 20.3579 15.2373 20.5567L15.2946 20.5971L15.2337 20.6319C15.0862 20.7164 14.9264 20.8982 14.8532 21.0647C14.763 21.2695 14.6867 21.4032 14.571 21.5574L14.5546 21.5794L14.5274 21.5748C14.5239 21.5743 14.1664 21.5108 13.9836 21.5026C13.7905 21.4939 13.6466 21.5087 13.5672 21.5456C13.3628 21.6398 13.2061 21.7602 13.1257 21.8846C13.0622 21.983 13.0566 22.0849 13.1114 22.1504C13.1708 22.2211 13.283 22.2334 13.4043 22.1827L13.431 22.1714L13.452 22.1909C13.6696 22.3911 13.9257 22.2989 14.2494 22.1817C14.2888 22.1673 14.3293 22.153 14.3702 22.1386C14.4532 22.11 14.5613 22.1325 14.657 22.1525C14.6668 22.1545 14.676 22.1566 14.6852 22.1581C14.7789 22.1776 14.8865 22.195 14.9694 22.1607C15.1072 22.1038 15.1948 21.985 15.2875 21.8595C15.333 21.7981 15.3802 21.7346 15.4334 21.6787C15.5067 21.6019 15.6521 21.4452 15.6536 21.4437L15.689 21.4053L15.8257 21.5784C15.878 21.4729 15.8902 21.3576 15.8672 21.2066L15.8457 21.0637L16.0854 21.3213C16.1458 21.1948 16.1345 21.0724 16.1161 20.9771L16.0854 20.8163L16.3194 21.0816C16.3358 21.0447 16.3604 20.9945 16.3937 20.9372C16.4121 20.9059 16.4367 20.8711 16.4603 20.8373C16.4935 20.7902 16.5314 20.7364 16.5396 20.7077C16.5668 20.6125 16.5755 20.487 16.5755 20.486L16.5816 20.3958L16.6497 20.4552C16.7343 20.529 16.7952 20.5664 16.8853 20.5633C16.9017 20.4092 16.9171 20.3467 16.9683 20.2678L16.9806 20.2483L17.0036 20.2473C17.6807 20.2145 18.2558 20.1049 18.7613 19.9119C19.1792 19.7526 19.551 19.536 19.8665 19.2686C19.9008 19.2394 19.932 19.2164 19.9623 19.1933C20.0099 19.1575 20.0544 19.1242 20.1031 19.0745C20.2076 18.9675 20.5691 19.0248 20.733 19.0853C20.8232 19.1186 20.924 19.2394 20.9353 19.2527L20.9399 19.2584L20.9445 19.2697C21.0782 19.6102 21.3911 20.4071 22.2397 20.5771L22.3017 20.5894L22.2689 20.6437C22.1563 20.8312 22.1875 21.0109 22.2177 21.1845C22.2449 21.3402 22.2725 21.501 22.1849 21.6496L22.1691 21.6767L22.1383 21.6711C22.1347 21.6706 21.7778 21.6029 21.5949 21.5948C21.4049 21.5866 21.2626 21.6014 21.1832 21.6378C20.9747 21.7341 20.816 21.8544 20.7366 21.9768C20.6726 22.0757 20.6675 22.1791 20.7233 22.2462C20.7827 22.3174 20.8949 22.3302 21.0152 22.2795L21.0418 22.2682L21.0429 22.2718Z" fill="black"/>
<path d="M21.7689 18.0305C21.9676 17.9956 22.1873 18.1206 22.4013 18.199C22.5289 18.2456 22.6441 18.2302 22.6866 18.2594L22.4935 18.2942L22.7347 18.7188C22.62 18.5073 21.985 18.0771 21.7694 18.0305H21.7689ZM21.2869 19.2166C21.3371 19.5797 21.4565 19.8598 21.6675 20.0683C21.8785 20.2767 22.174 20.4114 22.5601 20.4964C22.4264 20.3003 21.9804 20.1538 21.7801 19.9786C21.5097 19.742 21.4585 19.3405 21.2869 19.2166ZM22.4372 21.5704C22.4956 21.4546 22.6052 21.3158 22.6246 21.1648C22.6441 21.0137 22.6323 20.8595 22.5581 20.7448C22.4669 20.8027 22.3952 21.5478 22.4367 21.5704H22.4372ZM21.1087 19.0281C21.1917 18.8975 21.0001 18.7613 20.8921 18.7295C20.784 18.6983 20.6345 18.7526 20.592 18.8765C20.7379 18.7731 20.995 18.8658 21.1082 19.0281H21.1087ZM18.6382 18.9149C18.7124 19.1802 19.5313 19.5249 19.6978 19.444L19.9344 19.3088C19.6389 19.4583 18.865 19.173 18.6387 18.9149H18.6382ZM18.232 18.9733C18.2197 19.1889 19.1493 19.7062 19.3659 19.6703L19.6097 19.5464C19.2891 19.7144 18.2402 19.1095 18.232 18.9738V18.9733ZM18.0174 19.2289C18.0584 19.4998 18.8097 19.9269 18.9849 19.8639L19.2368 19.7538C18.8445 19.8455 18.1706 19.4942 18.0174 19.2284V19.2289ZM17.7839 19.4778C17.765 19.6852 18.25 20.016 18.4784 20.057L18.7411 19.971C18.4097 20.0227 17.8781 19.6918 17.7839 19.4778ZM17.4136 19.5372C17.387 19.7139 17.7972 20.1594 17.9806 20.1753L18.2535 20.1215C17.9893 20.1886 17.4408 19.6667 17.4136 19.5372ZM17.198 19.8071C17.1873 19.9039 17.3102 20.1645 17.4946 20.249L17.7726 20.2245C17.4182 20.1866 17.2308 19.8716 17.198 19.8071ZM16.8687 19.9597C16.8703 20.0611 16.9 20.2224 17.0408 20.3054L17.3199 20.2957C17.0331 20.2409 16.901 20.0211 16.8687 19.9597ZM15.5172 20.3243C15.5433 20.4734 15.7866 20.4693 15.8916 20.4314C15.9971 20.394 16.0754 20.2654 16.0227 20.1451C15.9807 20.309 15.7174 20.3853 15.5167 20.3243H15.5172ZM15.5233 20.671C15.5495 20.8201 15.7927 20.816 15.8977 20.7781C16.0032 20.7407 16.0816 20.6122 16.0288 20.4918C15.9868 20.6557 15.7236 20.732 15.5228 20.671H15.5233ZM14.8688 21.724C14.9825 21.6508 15.1541 21.5806 15.2545 21.4587C15.3548 21.3368 15.4296 21.198 15.4281 21.0649C15.3175 21.0731 14.8453 21.6851 14.8688 21.724ZM21.7632 21.8228C21.7632 21.8228 21.5415 21.8111 21.4109 21.8316C21.3243 21.8449 21.2393 21.8761 21.1666 21.9258C21.0831 21.9826 20.9827 22.0554 20.9551 22.1655C20.9428 22.2146 20.9576 22.2643 20.9694 22.3022C20.9812 22.3406 20.993 22.3708 20.993 22.3708L21.0918 22.3324C21.0918 22.3324 21.078 22.3084 21.0682 22.2766C21.0585 22.2454 21.0544 22.2044 21.059 22.1865C21.0759 22.1178 21.1502 22.0554 21.228 22.0026C21.4134 21.8561 21.5937 21.9002 21.7637 21.8228H21.7632ZM14.1739 21.7286C14.1739 21.7286 13.9521 21.7168 13.8215 21.7373C13.735 21.7506 13.6499 21.7819 13.5772 21.8316C13.4937 21.8884 13.3934 21.9611 13.3657 22.0712C13.3534 22.1204 13.3683 22.1701 13.38 22.208C13.3918 22.2464 13.4036 22.2766 13.4036 22.2766L13.5024 22.2382C13.5024 22.2382 13.4886 22.2141 13.4789 22.1824C13.4692 22.1511 13.4651 22.1102 13.4697 22.0922C13.4866 22.0236 13.5608 21.9611 13.6387 21.9084C13.8241 21.7619 14.0043 21.8059 14.1744 21.7286H14.1739Z" fill="black"/>
<path d="M17.2423 18.3351L17.1056 18.4068C16.1771 18.733 15.4616 18.7223 14.527 18.4068L14.3938 18.7484C14.2878 19.1345 14.3462 19.4746 14.4911 19.7491C14.5797 19.7107 14.6683 19.6272 14.7569 19.5473C14.8005 19.6805 14.781 19.8705 14.9341 20.0236C15.1078 19.935 15.2153 19.8136 15.2798 19.725C15.3095 19.9073 15.3858 20.0456 15.539 20.145C15.6926 20.0461 15.7684 19.9079 15.7981 19.725C15.8621 19.8136 15.9702 19.9673 16.1438 20.0559C16.2969 19.9027 16.2949 19.81 16.343 19.6574C16.4204 19.8162 16.5192 19.8966 16.6928 19.9857C16.846 19.8326 16.8265 19.6426 16.87 19.5094C16.9433 19.6175 17.0365 19.6928 17.1358 19.7112C17.2116 19.6124 17.2669 19.4536 17.2664 19.3102C17.4093 19.4121 17.5419 19.4428 17.6321 19.4495C17.6679 19.2626 17.6602 19.1187 17.6311 18.9522C17.7658 18.9942 17.7914 19.0326 17.9568 19.0331C18.0674 18.6629 17.9358 18.2624 17.5512 17.9786L17.2413 18.3351H17.2423Z" fill="#FFBB26"/>
<path d="M15.5394 20.198L15.5153 20.1821C15.3837 20.0971 15.2997 19.9829 15.2567 19.8267C15.1712 19.925 15.0698 20.0044 14.9551 20.0633L14.9259 20.0782L14.9028 20.0551C14.784 19.9363 14.7599 19.7955 14.741 19.6823C14.7379 19.6644 14.7348 19.6469 14.7318 19.6306C14.6596 19.6951 14.5853 19.7571 14.5095 19.7898L14.4716 19.8062L14.4521 19.7699C14.2862 19.4564 14.2514 19.099 14.3513 18.7364L14.3528 18.7318L14.5013 18.3507L14.5418 18.3646C15.0196 18.5259 15.4252 18.6012 15.819 18.6027H15.8293C16.2267 18.6027 16.6272 18.5274 17.0881 18.3656L17.2141 18.2995L17.5455 17.918L17.5787 17.9426C17.9644 18.2268 18.1221 18.6396 18.0007 19.0457L17.991 19.0774H17.9577C17.8328 19.0774 17.78 19.0559 17.7129 19.0288C17.7047 19.0257 17.6965 19.0221 17.6878 19.0186C17.7093 19.1758 17.7058 19.3074 17.6771 19.4569L17.6694 19.4959L17.6294 19.4928C17.5501 19.4866 17.4343 19.4631 17.3073 19.3883C17.2925 19.5148 17.2428 19.6449 17.1721 19.7371L17.1552 19.7591L17.1281 19.754C17.0451 19.7386 16.9637 19.6879 16.8925 19.609C16.8904 19.6203 16.8884 19.6316 16.8863 19.6434C16.8674 19.7565 16.8433 19.8969 16.7245 20.0162L16.7014 20.0392L16.6723 20.0244C16.5365 19.9553 16.4362 19.8866 16.3568 19.7704C16.3286 19.8718 16.2989 19.9624 16.175 20.0864L16.1519 20.1094L16.1227 20.0946C15.9855 20.0244 15.8882 19.9174 15.8201 19.8298C15.7765 19.9839 15.6931 20.0971 15.5625 20.1816L15.5384 20.1975H15.5394V20.198ZM15.3069 19.6121L15.3243 19.7186C15.3515 19.8866 15.4201 20.006 15.5394 20.0915C15.6587 20.006 15.7274 19.8866 15.7545 19.7186L15.7719 19.6121L15.8405 19.7069C15.8984 19.7873 15.9932 19.9179 16.136 20.0013C16.2303 19.8994 16.2503 19.8277 16.2769 19.7304C16.2841 19.7038 16.2917 19.6756 16.3015 19.6449L16.3353 19.5384L16.3844 19.6388C16.4485 19.7693 16.5258 19.8457 16.6845 19.9312C16.7644 19.838 16.7819 19.733 16.7993 19.6306C16.8075 19.5829 16.8151 19.5384 16.8285 19.4964L16.8566 19.4098L16.9078 19.4851C16.9698 19.5763 17.0436 19.6382 17.1178 19.6613C17.1818 19.566 17.2228 19.4293 17.2223 19.311V19.2234L17.293 19.2741C17.4082 19.3566 17.5163 19.3888 17.5956 19.4006C17.6228 19.2321 17.612 19.1015 17.5874 18.9602L17.5746 18.8874L17.6448 18.9095C17.6863 18.9228 17.718 18.9351 17.7457 18.9463C17.801 18.9689 17.8399 18.9842 17.9234 18.9878C18.0125 18.6416 17.8778 18.2918 17.5577 18.0399L17.2699 18.3712L17.1199 18.4491C16.2134 18.7676 15.4897 18.7717 14.553 18.4629L14.4363 18.7625C14.3477 19.0872 14.3733 19.4062 14.511 19.6889C14.5761 19.651 14.6442 19.5896 14.7103 19.5297L14.7784 19.4682L14.7999 19.5338C14.8137 19.5758 14.8214 19.6203 14.8291 19.6679C14.8465 19.7699 14.8644 19.8748 14.9438 19.9681C15.0611 19.9025 15.162 19.8119 15.2439 19.6987L15.3069 19.6111V19.6121Z" fill="black"/>
<path d="M17.899 19.0222L17.6787 19.0088L17.607 19.142C17.6035 18.9612 17.4969 18.7989 17.4759 18.701C17.5256 18.804 17.6777 18.9218 17.8984 19.0222H17.899ZM17.4826 19.4114L17.2972 19.3448L17.2081 19.4687C17.2291 19.289 17.1978 18.995 17.1907 18.8957C17.226 19.0037 17.3192 19.2849 17.4826 19.4114ZM16.9945 19.6121L16.8854 19.5456L16.7963 19.6695C16.8173 19.4897 16.7789 19.1328 16.7723 19.0334C16.8076 19.1415 16.9285 19.4918 16.995 19.6116H16.9945V19.6121ZM16.4634 19.7699L16.3544 19.7033L16.2652 19.8272C16.2862 19.6475 16.2965 19.3284 16.2893 19.2291C16.3246 19.3371 16.3969 19.6495 16.4639 19.7699H16.4634ZM15.919 19.8298L15.8099 19.7632L15.7208 19.8872C15.7418 19.7074 15.7521 19.3883 15.7449 19.289C15.7802 19.397 15.8525 19.7094 15.9195 19.8298H15.919ZM15.1483 19.8488L15.2574 19.7822L15.3465 19.9061C15.3255 19.7263 15.3152 19.5015 15.3224 19.4022C15.2871 19.5102 15.2148 19.7284 15.1478 19.8488H15.1483ZM14.6336 19.6516L14.7427 19.585L14.8318 19.7089C14.8108 19.5292 14.8005 19.3043 14.8077 19.205C14.7724 19.3131 14.7001 19.5312 14.6331 19.6516H14.6336Z" fill="black"/>
<path d="M14.2693 17.2673C14.2693 17.2673 13.9267 17.8153 13.858 18.0985C13.8135 18.2814 13.8196 18.5666 13.8196 18.5666C13.9308 18.5605 14.0424 18.538 14.1535 18.4381C14.1648 18.5943 14.1479 18.75 14.2565 18.9062C14.3676 18.8673 14.5049 18.8155 14.616 18.625C14.6247 18.8191 14.6641 18.9338 14.783 19.1167C14.9289 19.0742 15.0431 18.9159 15.1558 18.8125C15.1584 18.9538 15.1968 19.1121 15.3356 19.3159C15.5179 19.2165 15.6234 18.9861 15.6659 18.8555C15.712 18.9789 15.8139 19.216 15.9962 19.3159C16.135 19.1121 16.1739 18.9543 16.176 18.8125C16.2881 18.9164 16.4028 19.0742 16.5488 19.1167C16.6676 18.9338 16.7071 18.8191 16.7158 18.625C16.8269 18.8155 16.9641 18.8667 17.0753 18.9062C17.1839 18.75 17.1664 18.5943 17.1782 18.4381C17.2894 18.538 17.442 18.6245 17.5536 18.6312C17.5756 18.6112 17.6627 18.3372 17.6207 18.1738C17.7518 18.2773 17.8635 18.3464 18.0571 18.3413C18.0888 18.1902 18.0617 18.0386 18.0294 17.9019C18.2394 17.9741 18.4673 17.9936 18.6296 17.9157C18.2506 17.274 17.6514 17.1695 16.9928 17.0589C16.2472 17.6765 15.3525 17.7918 14.2693 17.2679V17.2673Z" fill="#FFBB26"/>
<path d="M16.0105 19.3746L15.9747 19.3551C15.8548 19.2896 15.7514 19.1626 15.6674 18.9767C15.6146 19.0965 15.5153 19.2686 15.357 19.3551L15.3212 19.3746L15.2981 19.3413C15.1967 19.1923 15.1383 19.054 15.1184 18.9127C15.1122 18.9193 15.1056 18.926 15.0994 18.9326C15.0129 19.0228 14.915 19.1252 14.7952 19.16L14.7635 19.1692L14.7455 19.1416C14.6482 18.992 14.6021 18.886 14.5822 18.7508C14.4746 18.8773 14.3553 18.9193 14.2708 18.9485L14.2385 18.9598L14.219 18.9316C14.1233 18.7938 14.1182 18.6581 14.1125 18.5265V18.525C14.0106 18.591 13.9097 18.6059 13.8211 18.611L13.7745 18.6136L13.7735 18.567C13.7735 18.5552 13.7684 18.274 13.8134 18.0871C13.8826 17.8003 14.216 17.2656 14.2303 17.2426L14.2518 17.2088L14.2882 17.2262C14.8101 17.4787 15.3027 17.5862 15.7529 17.5458C16.1841 17.5074 16.5918 17.3312 16.9636 17.0234L16.9795 17.0101L16.9994 17.0137C17.6555 17.1238 18.2747 17.2282 18.667 17.892L18.6915 17.934L18.6475 17.955C18.5051 18.0231 18.3044 18.0267 18.0882 17.9662C18.1133 18.0886 18.1272 18.2182 18.0995 18.3493L18.0923 18.3841L18.057 18.3852C17.8885 18.3898 17.7764 18.3401 17.675 18.2704C17.676 18.4338 17.6166 18.6325 17.5823 18.6638L17.5684 18.6766L17.5495 18.6755C17.4404 18.6694 17.3144 18.6008 17.2171 18.5286C17.212 18.6592 17.2058 18.7944 17.1111 18.9316L17.0916 18.9598L17.0594 18.9485C16.9749 18.9188 16.8555 18.8768 16.748 18.7508C16.728 18.886 16.6819 18.992 16.5846 19.1416L16.5667 19.1692L16.5349 19.16C16.4156 19.1252 16.3173 19.0228 16.2307 18.9326C16.2241 18.926 16.2179 18.9193 16.2118 18.9127C16.1918 19.054 16.1334 19.1923 16.032 19.3413L16.009 19.3746H16.0105ZM15.6628 18.7201L15.7078 18.8399C15.7831 19.0412 15.8758 19.181 15.9829 19.2548C16.0827 19.0991 16.1288 18.9608 16.1314 18.8118L16.1329 18.7119L16.2061 18.78C16.2364 18.8077 16.2656 18.8384 16.2963 18.8707C16.37 18.9475 16.4458 19.0269 16.5298 19.0627C16.6307 18.9019 16.663 18.7985 16.6707 18.6233L16.6773 18.4717L16.7541 18.6028C16.8484 18.7641 16.9605 18.8169 17.0568 18.8522C17.1198 18.7452 17.1244 18.6371 17.129 18.5234C17.13 18.4948 17.1316 18.4645 17.1336 18.4348L17.1403 18.3442L17.2079 18.4051C17.3103 18.4973 17.4373 18.567 17.5285 18.5834C17.5556 18.5152 17.6094 18.3104 17.5771 18.1849L17.5444 18.0564L17.6483 18.1388C17.7753 18.2392 17.8706 18.293 18.0191 18.2966C18.0381 18.1665 18.0145 18.0354 17.9853 17.9119L17.9664 17.8331L18.0432 17.8597C18.2414 17.9278 18.4273 17.9396 18.563 17.8945C18.1943 17.3122 17.6171 17.2098 17.0046 17.1069C16.6225 17.4188 16.2041 17.597 15.7606 17.6364C15.3043 17.6774 14.8085 17.5729 14.2851 17.3261C14.2103 17.4495 13.9568 17.8771 13.9005 18.1101C13.8687 18.2418 13.8636 18.4318 13.8631 18.5193C13.9471 18.5101 14.0352 18.4845 14.1228 18.4056L14.1904 18.3447L14.197 18.4353C14.1991 18.4651 14.2006 18.4948 14.2016 18.5239C14.2062 18.6376 14.2103 18.7457 14.2738 18.8527C14.3701 18.8174 14.4823 18.7647 14.5765 18.6033L14.6533 18.4722L14.66 18.6238C14.6677 18.799 14.6999 18.9029 14.8008 19.0632C14.8848 19.0269 14.9606 18.948 15.0344 18.8712C15.0651 18.8389 15.0948 18.8082 15.1245 18.7805L15.1977 18.7124L15.1993 18.8123C15.2018 18.9613 15.2479 19.0996 15.3478 19.2553C15.4164 19.2071 15.5424 19.0899 15.6223 18.8425L15.6617 18.7206H15.6628V18.7201Z" fill="black"/>
<path d="M18.21 17.9608L18.0794 17.948L18.063 18.0955C17.9908 17.9275 17.8797 17.6904 17.8234 17.6049C17.8782 17.7047 18.1619 17.9311 18.3621 17.9608H18.21ZM17.806 18.2819L17.6318 18.1825L17.6508 18.4089C17.5893 18.2373 17.493 17.9951 17.4418 17.907C17.5227 17.992 17.6907 18.1974 17.806 18.2824V18.2819ZM17.3517 18.5877L17.1986 18.4622L17.175 18.688C17.1468 18.5093 17.0977 18.2553 17.0639 18.161C17.1274 18.2578 17.2544 18.4862 17.3517 18.5877ZM16.8565 18.7536L16.7387 18.7003L16.6675 18.8335C16.6634 18.6527 16.649 18.3956 16.628 18.2978C16.6782 18.4007 16.7735 18.6419 16.8565 18.7536ZM15.7692 18.984L15.6683 18.9072L15.5648 19.0214C15.6073 18.8447 15.6591 18.5784 15.6642 18.4791C15.6862 18.5897 15.7169 18.8575 15.7692 18.984ZM16.3131 18.9123L16.1953 18.8591L16.1241 18.9922C16.12 18.8115 16.1057 18.5544 16.0847 18.4565C16.1349 18.5595 16.2301 18.8007 16.3131 18.9123ZM15.0128 18.939L15.1305 18.8857L15.2017 19.0189C15.2058 18.8381 15.2202 18.581 15.2412 18.4832C15.191 18.5861 15.0957 18.8273 15.0128 18.939ZM14.474 18.7613L14.5918 18.708L14.663 18.8412C14.6671 18.6604 14.7106 18.3372 14.7316 18.2394C14.6814 18.3423 14.5575 18.6496 14.474 18.7608V18.7613ZM14.0156 18.5103L14.1396 18.4704L14.1928 18.6102C14.2205 18.4314 14.2712 18.2107 14.3045 18.116C14.2415 18.2128 14.1124 18.4084 14.0156 18.5103Z" fill="black"/>
<path d="M17.1965 16.7223C17.3158 16.755 17.365 16.7161 17.5033 16.7351C17.4295 16.4478 17.408 16.3464 17.1581 16.1523C17.3425 16.2009 17.3706 16.1558 17.4874 16.1671C17.2272 15.7354 17.2749 15.298 16.8867 15.0747C17.008 14.7813 16.9287 14.7219 16.8232 14.4555C16.797 14.389 16.8104 14.2435 16.8104 14.2435C16.8104 14.2435 16.478 14.3055 16.3581 14.4402C16.289 14.518 16.2019 14.6271 16.2019 14.6271C16.2291 14.4637 16.2112 14.392 16.0729 14.286C16.0145 14.3588 15.9484 14.5211 15.8793 14.5841C15.8557 14.4361 15.8235 14.3096 15.6898 14.2148C15.573 14.3173 15.5059 14.432 15.5003 14.5841C15.4307 14.5206 15.3646 14.3582 15.3067 14.286C15.1684 14.392 15.15 14.4637 15.1777 14.6271C15.1777 14.6271 15.0906 14.518 15.0215 14.4402C14.9016 14.3055 14.5692 14.2435 14.5692 14.2435C14.5692 14.2435 14.5728 14.3864 14.5564 14.4555C14.518 14.6153 14.3291 14.8228 14.4929 15.0747C14.0223 15.3728 14.1247 15.7728 13.8651 16.2045C13.9823 16.1932 14.0044 16.2511 14.1887 16.2024C13.9388 16.396 13.9214 16.4355 13.8476 16.7223C13.9383 16.6895 14.0151 16.7156 14.1918 16.6705C14.1319 16.7986 14.0028 16.8923 13.9306 16.9527C13.7529 17.1028 13.6797 17.2528 13.6356 17.4265C13.7524 17.428 13.8686 17.3906 13.9854 17.3604C13.9455 17.4987 13.9255 17.6006 13.9731 17.7998C14.1483 17.7358 14.2348 17.6682 14.347 17.6021C14.3326 17.7302 14.325 17.8807 14.371 18.0088C14.4878 17.9775 14.6041 17.9079 14.7208 17.7891C14.7183 17.9565 14.7685 18.0753 14.8294 18.1844C14.9364 18.1235 15.0445 18.0625 15.1311 17.9867C15.1659 18.1056 15.1741 18.2085 15.3001 18.3821C15.4921 18.3043 15.5316 18.1911 15.6017 18.0856C15.6283 18.1834 15.676 18.2904 15.8163 18.44C16.0002 18.3191 15.9909 18.1977 16.0427 18.0769C16.0847 18.1639 16.1733 18.3171 16.3121 18.3811C16.4165 18.273 16.4329 18.126 16.4626 18.038C16.5569 18.145 16.6665 18.2382 16.818 18.293C16.8969 18.1491 16.8995 18.0282 16.8933 17.9104C17.026 18.0497 17.1591 18.0892 17.2918 18.126C17.3251 17.9954 17.3158 17.8643 17.2918 17.7337C17.4316 17.8341 17.5719 17.8817 17.7117 17.8515C17.7189 17.7071 17.6723 17.599 17.6257 17.4787C17.7665 17.5033 17.9012 17.5161 18.0134 17.4884C18.0134 17.4884 17.9366 17.3169 17.8413 17.2334C17.7179 17.1258 17.5514 17.0475 17.4285 16.9394C17.3573 16.8769 17.1975 16.7212 17.1975 16.7212L17.1965 16.7223Z" fill="#FFBB26"/>
<path d="M15.8087 18.499L15.7831 18.4713C15.6765 18.3576 15.6212 18.2665 15.589 18.1902C15.5378 18.2726 15.4727 18.3612 15.316 18.4247L15.2832 18.438L15.2627 18.4093C15.1562 18.2619 15.1296 18.162 15.105 18.0657C15.0302 18.122 14.9452 18.1702 14.8628 18.2173L14.8115 18.2465L14.7895 18.2071C14.7404 18.1185 14.6943 18.0191 14.6799 17.8885C14.5842 17.9699 14.4843 18.0252 14.3819 18.0524L14.3419 18.0631L14.3281 18.0247C14.2892 17.9167 14.2861 17.7953 14.2933 17.6877C14.2108 17.739 14.1258 17.7922 13.9875 17.8429L13.9404 17.8603L13.9286 17.8112C13.8871 17.6386 13.8953 17.5315 13.9209 17.424C13.8277 17.4486 13.7314 17.4732 13.6336 17.4716H13.5768L13.5906 17.4158C13.6285 17.2673 13.6946 17.0921 13.8999 16.919C13.9097 16.9108 13.9204 16.9021 13.9317 16.8929C13.9824 16.8514 14.0469 16.7987 14.0966 16.7357C14.0505 16.7423 14.0126 16.7449 13.9793 16.747C13.9317 16.7495 13.8974 16.7516 13.861 16.7649L13.7811 16.7941L13.8021 16.7121C13.8641 16.4719 13.8917 16.3941 14.0367 16.2671C14.008 16.2655 13.985 16.2609 13.9629 16.2568C13.9327 16.2507 13.9061 16.2456 13.8672 16.2497L13.7786 16.2579L13.8241 16.1821C13.9174 16.0274 13.9624 15.8768 14.0065 15.7309C14.0802 15.4861 14.1499 15.2541 14.4305 15.0615C14.3281 14.8689 14.4049 14.6979 14.4623 14.5704C14.4828 14.5253 14.5017 14.4828 14.5104 14.4454C14.5227 14.3937 14.5232 14.2831 14.5222 14.2452L14.5207 14.1898L14.5749 14.2001C14.5893 14.2027 14.9237 14.2667 15.0523 14.4111C15.0743 14.4362 15.0983 14.4644 15.1209 14.491C15.128 14.4034 15.17 14.3332 15.2771 14.2513L15.3119 14.2247L15.339 14.259C15.3657 14.2923 15.3923 14.3394 15.42 14.3896C15.4353 14.4172 15.4517 14.4464 15.4681 14.4731C15.4947 14.365 15.5567 14.2708 15.6576 14.1822L15.6842 14.1591L15.7129 14.1796C15.8297 14.2621 15.8758 14.367 15.9019 14.4797C15.9198 14.4515 15.9372 14.4198 15.9541 14.3896C15.9823 14.3394 16.0084 14.2923 16.035 14.259L16.0622 14.2247L16.097 14.2513C16.204 14.3332 16.246 14.4034 16.2532 14.491C16.2757 14.4644 16.2993 14.4362 16.3218 14.4111C16.4504 14.2667 16.7848 14.2027 16.7992 14.2001L16.8575 14.1893L16.8519 14.2482C16.8473 14.3005 16.8458 14.3983 16.8616 14.4393C16.8801 14.4854 16.8975 14.5258 16.9134 14.5611C16.9866 14.7276 17.0281 14.8234 16.939 15.0564C17.1684 15.2044 17.2437 15.4318 17.3231 15.6715C17.3738 15.8251 17.4265 15.9844 17.5223 16.1437L17.5679 16.2194L17.4793 16.2113C17.4403 16.2077 17.4122 16.2113 17.382 16.2143C17.3584 16.2169 17.3333 16.22 17.3021 16.22C17.4501 16.3634 17.4803 16.4806 17.5377 16.7044L17.5592 16.7879L17.4931 16.7792C17.4352 16.7715 17.3943 16.7746 17.3543 16.7777C17.342 16.7787 17.3297 16.7797 17.3169 16.7802C17.3646 16.8253 17.4188 16.877 17.4526 16.9067C17.512 16.9585 17.5843 17.0056 17.6544 17.0506C17.7266 17.0973 17.8014 17.1449 17.8649 17.2007C17.9668 17.2898 18.0452 17.4639 18.0488 17.4711L18.0708 17.5203L18.0186 17.5331C17.9151 17.5582 17.7953 17.551 17.6903 17.5362C17.7271 17.6335 17.7574 17.7313 17.7512 17.8547L17.7497 17.889L17.7164 17.8962C17.5971 17.9223 17.4752 17.8993 17.3461 17.8255C17.3599 17.9438 17.3548 18.0427 17.3302 18.1379L17.319 18.1825L17.2749 18.1702C17.1694 18.141 17.0527 18.1082 16.9349 18.0145C16.9318 18.1051 16.9139 18.2035 16.8524 18.3156L16.834 18.3494L16.7981 18.3361C16.6814 18.2936 16.5789 18.2265 16.4796 18.1272C16.457 18.2122 16.4253 18.3243 16.3393 18.4134L16.3172 18.436L16.2886 18.4227C16.1825 18.374 16.1032 18.2798 16.0473 18.1886C16.0192 18.2793 15.9838 18.3812 15.8363 18.478L15.8051 18.4985H15.8087V18.499ZM15.6182 17.9802L15.6443 18.0754C15.6663 18.1564 15.7037 18.2496 15.8225 18.3822C15.9219 18.3069 15.9439 18.2352 15.969 18.1528C15.9782 18.1231 15.9874 18.0923 16.0007 18.0611L16.0397 17.9704L16.0822 18.059C16.118 18.1338 16.1923 18.2619 16.3008 18.3264C16.3572 18.2552 16.3802 18.1676 16.3992 18.0959C16.4058 18.0703 16.4125 18.0462 16.4197 18.0247L16.4442 17.9515L16.4955 18.0094C16.5928 18.1195 16.6865 18.1912 16.7961 18.2378C16.8529 18.1174 16.8534 18.0155 16.8483 17.9141L16.8422 17.7938L16.9256 17.8813C17.0373 17.9986 17.1489 18.0401 17.258 18.0718C17.2749 17.9771 17.2713 17.8737 17.2478 17.7436L17.2278 17.6345L17.3179 17.699C17.4444 17.7897 17.5592 17.8276 17.6677 17.8153C17.6662 17.7062 17.6314 17.6186 17.5925 17.5182L17.5551 17.423L17.6334 17.4368C17.7277 17.4532 17.8444 17.4691 17.9469 17.4573C17.9182 17.403 17.8675 17.3185 17.8116 17.2693C17.7528 17.2181 17.6811 17.172 17.6114 17.127C17.5387 17.0798 17.4629 17.0317 17.3989 16.9754C17.3277 16.9129 17.173 16.7623 17.1664 16.7557L17.2094 16.6804C17.2672 16.6962 17.3046 16.6932 17.3528 16.6896C17.3799 16.6875 17.4096 16.6855 17.445 16.6865C17.3835 16.4494 17.3507 16.3593 17.1315 16.1892L17.1705 16.1104C17.278 16.1385 17.3261 16.1329 17.3768 16.1273C17.3881 16.1257 17.3994 16.1247 17.4117 16.1237C17.3338 15.9777 17.2857 15.8323 17.2427 15.7012C17.1617 15.4564 17.0921 15.2454 16.8657 15.1153L16.8314 15.0958L16.8463 15.0595C16.939 14.8351 16.9087 14.766 16.8355 14.599C16.8196 14.5627 16.8017 14.5217 16.7828 14.4741C16.7643 14.4275 16.7623 14.3542 16.7633 14.302C16.6527 14.3291 16.4673 14.388 16.3925 14.4725C16.3249 14.5483 16.2389 14.6569 16.2378 14.6579L16.1303 14.7931L16.159 14.6226C16.181 14.4925 16.1738 14.4331 16.0832 14.3537C16.0683 14.3773 16.0525 14.4055 16.0361 14.4352C15.9966 14.5058 15.9562 14.5786 15.9101 14.62L15.8486 14.6759L15.8353 14.5939C15.8153 14.47 15.7902 14.3599 15.6924 14.2759C15.5956 14.3696 15.5495 14.4674 15.5454 14.5883L15.5419 14.6846L15.4707 14.6195C15.4251 14.578 15.3841 14.5048 15.3447 14.4346C15.3283 14.4055 15.3124 14.3773 15.2976 14.3532C15.2069 14.4326 15.1997 14.492 15.2218 14.6221L15.2504 14.7926L15.1429 14.6574C15.1429 14.6574 15.0558 14.5483 14.9882 14.472C14.9129 14.387 14.725 14.3276 14.6144 14.301C14.6139 14.3507 14.6108 14.4224 14.6 14.4679C14.5893 14.513 14.5683 14.5596 14.5463 14.6083C14.4853 14.7445 14.4218 14.8853 14.5304 15.0523L14.555 15.0902L14.5166 15.1143C14.2339 15.2935 14.1688 15.5086 14.094 15.758C14.0546 15.8886 14.0141 16.0233 13.9404 16.1631C13.9553 16.1652 13.9686 16.1677 13.9819 16.1703C14.0295 16.1795 14.0741 16.1882 14.177 16.1611L14.2159 16.2399C13.9983 16.4089 13.967 16.4499 13.9092 16.6645C13.9307 16.6619 13.9522 16.6604 13.9757 16.6594C14.03 16.6563 14.0915 16.6527 14.1806 16.6297L14.2723 16.6061L14.2323 16.6916C14.176 16.812 14.0643 16.9032 13.9901 16.9641C13.9788 16.9733 13.9686 16.9815 13.9593 16.9897C13.8247 17.1029 13.7458 17.2197 13.6951 17.382C13.7673 17.3748 13.84 17.3554 13.9168 17.3354C13.9358 17.3303 13.9553 17.3252 13.9742 17.3205L14.05 17.3011L14.0285 17.3764C13.9942 17.4952 13.9747 17.5833 14.006 17.7431C14.1089 17.7011 14.177 17.6586 14.2492 17.6135C14.2733 17.5981 14.2984 17.5828 14.3245 17.5674L14.4018 17.5218L14.3921 17.6109C14.3803 17.7144 14.3721 17.8434 14.4013 17.9566C14.5007 17.9218 14.5954 17.8578 14.6897 17.7615L14.768 17.6811L14.766 17.7932C14.7639 17.9331 14.8013 18.037 14.8474 18.1266C14.938 18.0749 15.0292 18.0206 15.1014 17.9571L15.1542 17.9105L15.1741 17.9781C15.1808 18.0007 15.1864 18.0227 15.1921 18.0442C15.2141 18.1302 15.2356 18.2117 15.3155 18.3305C15.4364 18.2731 15.4819 18.1989 15.5296 18.1205C15.5408 18.1026 15.5521 18.0836 15.5644 18.0652L15.6187 17.9833V17.9802H15.6182Z" fill="black"/>
<path d="M14.6989 14.4777C14.6989 14.4777 14.7091 14.5771 14.6943 14.6278C14.6656 14.7246 14.6154 14.806 14.6098 14.9059C14.6062 14.974 14.6804 15.1025 14.6804 15.1025C14.6804 15.1025 14.7286 14.9448 14.8074 14.9141C14.8858 14.8833 15.0471 14.9571 15.0471 14.9571C15.0471 14.9571 15.0369 14.8116 15.0143 14.7558C14.9642 14.6309 14.6994 14.4777 14.6994 14.4777H14.6989ZM16.6629 14.4777C16.6629 14.4777 16.3987 14.6309 16.348 14.7558C16.3254 14.8116 16.3152 14.9571 16.3152 14.9571C16.3152 14.9571 16.4765 14.8838 16.5549 14.9141C16.6337 14.9448 16.6819 15.1025 16.6819 15.1025C16.6819 15.1025 16.7561 14.974 16.7525 14.9059C16.7469 14.8055 16.7013 14.7246 16.6726 14.6278C16.6578 14.5776 16.6634 14.4777 16.6634 14.4777H16.6629ZM14.619 15.3212C14.5017 15.3929 14.4607 15.5143 14.492 15.6208C14.516 15.7028 14.5929 15.7668 14.6943 15.8047C14.6891 15.8093 14.6902 15.8083 14.685 15.8134C14.6451 15.8497 14.599 15.8984 14.5816 15.9588C14.5099 16.2118 14.557 16.4582 14.7132 16.6179C14.6308 16.7286 14.4756 16.9749 14.408 17.1147C14.5442 17.0036 14.6845 16.8033 14.7885 16.6825C14.8346 16.7158 14.8873 16.7414 14.9437 16.7639C14.8858 16.874 14.7701 17.1644 14.7275 17.3206C14.851 17.1777 14.9601 16.9273 15.0425 16.7982C15.083 16.809 15.126 16.8136 15.1695 16.8197C15.1373 16.9119 15.149 17.0087 15.2023 17.0896C15.1439 17.1936 15.022 17.4963 14.977 17.6545C15.0932 17.5229 15.1962 17.3006 15.2776 17.1664C15.3247 17.2043 15.3821 17.233 15.4512 17.252C15.4251 17.3862 15.3949 17.6668 15.3949 17.8169C15.4717 17.6627 15.5121 17.4215 15.5547 17.273C15.5838 17.276 15.612 17.2817 15.6438 17.2817C15.6622 17.2817 15.6781 17.2786 15.6955 17.2776C15.7252 17.4292 15.7452 17.6658 15.8082 17.8215C15.8194 17.6745 15.8138 17.4036 15.7989 17.2648C15.8517 17.2535 15.8983 17.2351 15.9398 17.2136C16.0064 17.3534 16.0811 17.5982 16.1841 17.7441C16.1574 17.5803 16.074 17.2586 16.0289 17.1536C16.0417 17.1419 16.056 17.1321 16.0663 17.1193C16.1226 17.0522 16.1421 16.9672 16.1318 16.8837C16.2716 16.998 16.5006 17.2008 16.6532 17.2904C16.5625 17.1629 16.3126 16.9124 16.1974 16.8064C16.3157 16.7813 16.4263 16.7393 16.5123 16.6738C16.645 16.7844 16.9159 17.0994 17.0808 17.1961C16.9845 17.0609 16.6849 16.703 16.5825 16.6057C16.73 16.4459 16.7746 16.2062 16.7049 15.9593C16.6875 15.8984 16.6414 15.8503 16.6015 15.8139C16.5963 15.8093 16.5974 15.8098 16.5922 15.8052C16.6931 15.7668 16.77 15.7033 16.7945 15.6213C16.8263 15.5148 16.7848 15.3934 16.6675 15.3217C16.7008 15.416 16.7249 15.4907 16.6957 15.5998C16.6773 15.6695 16.6097 15.7304 16.4888 15.7453L16.3572 15.7622L16.4652 15.8308C16.4652 15.8308 16.4924 15.8513 16.5262 15.882C16.56 15.9127 16.5984 15.9568 16.6061 15.9849C16.6706 16.2123 16.6061 16.4054 16.4698 16.5416C16.3336 16.6779 16.1175 16.7721 15.8732 16.7383C15.7037 16.7147 15.6991 16.6763 15.6996 16.537C15.7313 16.534 15.7708 16.5258 15.8076 16.5068C15.8414 16.4899 15.8548 16.472 15.8686 16.4556C15.8824 16.4387 15.8937 16.4269 15.8968 16.4254C15.9408 16.4064 16.0094 16.4126 16.0094 16.4126L16.0658 16.4254L16.0704 16.3696C16.074 16.3214 16.0857 16.2902 16.0468 16.2113C16.0151 16.1473 15.9674 16.1089 15.9341 16.0874C15.9178 16.0766 15.908 16.0715 15.9014 16.0659C15.8947 16.0602 15.8932 16.0577 15.8921 16.0531C15.8486 15.8928 15.8353 15.754 15.8778 15.6203C15.9034 15.5404 15.9905 15.4728 16.1031 15.4574C16.225 15.4416 16.373 15.4754 16.4417 15.4877C16.3741 15.4108 16.2425 15.3366 16.075 15.3637C15.9377 15.3857 15.8138 15.4708 15.7744 15.5947C15.7257 15.7478 15.7436 15.9091 15.7887 16.0746C15.7954 16.0997 15.8102 16.1207 15.8261 16.1345C15.842 16.1483 15.8589 16.1591 15.8732 16.1688C15.9019 16.1877 15.9306 16.2047 15.9531 16.2502C15.9726 16.2897 15.9649 16.2881 15.9623 16.3224C15.9285 16.3199 15.908 16.2953 15.8542 16.3183C15.8189 16.3337 15.7989 16.3598 15.7836 16.3783C15.7682 16.3967 15.7544 16.411 15.76 16.4085C15.7452 16.4157 15.7144 16.4228 15.6893 16.4254C15.6642 16.4279 15.6422 16.4254 15.6422 16.4254C15.6422 16.4254 15.6202 16.4279 15.5951 16.4254C15.57 16.4228 15.5393 16.4157 15.5244 16.4085C15.5301 16.411 15.5162 16.3972 15.5009 16.3783C15.4855 16.3598 15.466 16.3337 15.4302 16.3183C15.3764 16.2953 15.3559 16.3199 15.3221 16.3224C15.3196 16.2881 15.3124 16.2892 15.3314 16.2502C15.3539 16.2047 15.3826 16.1877 15.4113 16.1688C15.4256 16.1596 15.442 16.1483 15.4584 16.1345C15.4748 16.1207 15.4891 16.0997 15.4958 16.0746C15.5403 15.9097 15.5587 15.7478 15.5101 15.5947C15.4707 15.4708 15.3462 15.3857 15.2095 15.3637C15.042 15.3366 14.9104 15.4108 14.8428 15.4877C14.9114 15.4754 15.0594 15.4416 15.1813 15.4574C15.294 15.4723 15.3815 15.5399 15.4066 15.6203C15.4491 15.754 15.4358 15.8928 15.3923 16.0531C15.3913 16.0577 15.3897 16.0602 15.3831 16.0659C15.3764 16.0715 15.3667 16.0766 15.3503 16.0874C15.317 16.1089 15.2689 16.1473 15.2376 16.2113C15.1987 16.2902 15.2105 16.3209 15.2141 16.3696L15.2187 16.4254L15.275 16.4126C15.275 16.4126 15.3436 16.4064 15.3877 16.4254C15.3908 16.4264 15.402 16.4387 15.4159 16.4556C15.4297 16.4725 15.4435 16.4899 15.4768 16.5068C15.5137 16.5252 15.5531 16.5334 15.5849 16.537C15.5951 16.6845 15.569 16.7122 15.4113 16.7383C15.168 16.7782 14.9508 16.6774 14.8146 16.5416C14.6784 16.4059 14.6139 16.2128 14.6784 15.9849C14.6861 15.9568 14.7245 15.9132 14.7583 15.882C14.7921 15.8508 14.8192 15.8308 14.8192 15.8308L14.9273 15.7622L14.7957 15.7453C14.6748 15.7299 14.6077 15.6695 14.5888 15.5998C14.5596 15.4907 14.5841 15.416 14.6169 15.3217H14.619V15.3212ZM15.1455 15.5645C15.105 15.5645 15.0563 15.5778 15 15.6029C15.0195 15.712 15.146 15.8569 15.3621 15.7396C15.3278 15.6556 15.2679 15.5629 15.146 15.564H15.1455V15.5645ZM16.1416 15.5645C16.0197 15.5635 15.9598 15.6562 15.9254 15.7401C16.1416 15.8569 16.2681 15.7125 16.2875 15.6034C16.2312 15.5783 16.1825 15.5655 16.1421 15.565H16.1416V15.5645ZM15.6432 16.7542C15.6571 16.7619 15.6704 16.7695 15.7042 16.7844C15.7513 16.8049 15.8056 16.8228 15.864 16.8274C15.9147 16.8315 15.9644 16.8336 16.0145 16.8315C16.0484 16.9058 16.0361 16.959 15.9818 17.0241C15.9219 17.0958 15.8112 17.148 15.6432 17.148C15.4753 17.148 15.36 17.0953 15.3001 17.0241C15.2458 16.959 15.2376 16.9058 15.2719 16.8315C15.3216 16.8336 15.3713 16.8315 15.4225 16.8274C15.4809 16.8228 15.5352 16.8054 15.5823 16.7844C15.6161 16.7695 15.6299 16.7619 15.6432 16.7542ZM14.3322 16.9595C14.1555 17.084 13.9978 17.3216 13.8154 17.379L13.9798 17.3575L13.9988 17.5157C14.0858 17.1741 14.262 17.1921 14.3322 16.959V16.9595ZM14.6564 17.0287C14.5017 17.1752 14.3388 17.5941 14.1678 17.675L14.3276 17.6279L14.3701 17.782C14.4018 17.4328 14.6246 17.2684 14.6569 17.0287H14.6564ZM17.2032 17.0886C17.2509 17.2842 17.5643 17.3524 17.6447 17.6535L17.6636 17.4993L17.8562 17.508C17.5085 17.3539 17.51 17.3211 17.2032 17.0886ZM16.8411 17.1055C16.8488 17.3057 17.259 17.6007 17.278 17.9101L17.3297 17.7646L17.4803 17.8286C17.2887 17.6694 16.9845 17.2218 16.8411 17.105V17.1055ZM14.8771 17.3585C14.7521 17.527 14.7014 17.7784 14.5483 17.885L14.6937 17.8163L14.769 17.9618C14.7342 17.6125 14.8904 17.5992 14.8771 17.358V17.3585ZM16.6296 17.3718C16.6214 17.5721 16.8939 17.7395 16.8411 18.0868L16.921 17.9454L17.0665 18.0222C16.919 17.909 16.7633 17.4968 16.6296 17.3713V17.3718ZM16.3008 17.4322C16.2476 17.6689 16.4729 17.8583 16.3807 18.1984L16.475 18.0617L16.6112 18.1518C16.477 18.0253 16.3966 17.6166 16.3008 17.4328V17.4322ZM15.2013 17.5685C15.1055 17.7523 15.1193 17.9946 14.9852 18.1206L15.1214 18.0304L15.2156 18.1631C15.1234 17.8225 15.2545 17.8046 15.2013 17.568V17.5685ZM15.9439 17.5992C15.8712 17.8312 16.0642 17.9085 15.9439 18.2414L16.0519 18.1175L16.1743 18.2117C16.0509 18.0765 16.0243 17.7892 15.9439 17.5997V17.5992ZM15.6197 17.7354C15.5398 17.9254 15.5972 18.0755 15.4742 18.2107L15.6013 18.1124L15.7047 18.2409C15.5844 17.908 15.6929 17.9679 15.6202 17.7359H15.6197V17.7354Z" fill="black"/>
</svg>
