<?xml version="1.0" encoding="UTF-8"?>
<!DOCTYPE svg PUBLIC "-//W3C//DTD SVG 1.1//EN" "http://www.w3.org/Graphics/SVG/1.1/DTD/svg11.dtd">
<svg xmlns="http://www.w3.org/2000/svg" version="1.1" width="1280px" height="853px" style="shape-rendering:geometricPrecision; text-rendering:geometricPrecision; image-rendering:optimizeQuality; fill-rule:evenodd; clip-rule:evenodd" xmlns:xlink="http://www.w3.org/1999/xlink">
<g><path style="opacity:1" fill="#00a54f" d="M 0.5,-0.5 C 426.833,-0.5 853.167,-0.5 1279.5,-0.5C 1279.5,141.833 1279.5,284.167 1279.5,426.5C 1066.17,426.5 852.833,426.5 639.5,426.5C 426.328,284.415 213.328,142.081 0.5,-0.5 Z"/></g>
<g><path style="opacity:1" fill="#ee1923" d="M -0.5,-0.5 C -0.166667,-0.5 0.166667,-0.5 0.5,-0.5C 213.328,142.081 426.328,284.415 639.5,426.5C 426.291,568.265 213.291,710.265 0.5,852.5C 0.166667,852.5 -0.166667,852.5 -0.5,852.5C -0.5,568.167 -0.5,283.833 -0.5,-0.5 Z"/></g>
<g><path style="opacity:1" fill="#231f1e" d="M 639.5,426.5 C 852.833,426.5 1066.17,426.5 1279.5,426.5C 1279.5,568.5 1279.5,710.5 1279.5,852.5C 853.167,852.5 426.833,852.5 0.5,852.5C 213.291,710.265 426.291,568.265 639.5,426.5 Z"/></g>
</svg>
