<svg xmlns="http://www.w3.org/2000/svg" viewBox="0 0 36 36"><path fill="#FFF" d="M0 14h36v8H0z"/><path fill="#003893" d="M32 5H4C1.791 5 0 6.791 0 9v5h36V9c0-2.209-1.791-4-4-4z"/><path fill="#DE0000" d="M4 31h28c2.209 0 4-1.791 4-4v-5H0v5c0 2.209 1.791 4 4 4z"/>
<path d="m 605.74283,121.56507 41.0313,126.26594 132.76599,0.006 -107.4068,78.04159 41.02231,126.26994 -107.4128,-78.03458 -107.41281,78.03458 41.02231,-126.26994 -107.4068,-78.04159 132.76599,-0.006 z" fill="#de0000" fill-rule="evenodd" stroke="#fcd115" stroke-width="10.668" transform="translate(-150) translate(-5.7427979,-4.3058369)"/>
<polygon points="18,11 19.571597916999494,15.836881040791743 24.657395614066075,15.836881039375369 20.542898846353715,18.826237920708255 22.11449676604731,23.663118960624633 18,20.673762077 13.88550323395269,23.663118960624633 15.457101153646285,18.826237920708255 11.342604385933925,15.836881039375369 16.428402083000506,15.836881040791743" fill="#de0000" fill-rule="evenodd" stroke="#fcd115" stroke-width="0.8"/>
</svg>
