<svg xmlns="http://www.w3.org/2000/svg" viewBox="0 0 36 36"><path fill="#FFFFFF" d="M0 13h36v10H0z"/><path fill="#007A3D" d="M32 5H4C1.791 5 0 6.791 0 9v4h36V9c0-2.209-1.791-4-4-4z"/><path fill="#000000" d="M32 31H4c-2.209 0-4-1.791-4-4v-4h36v4c0 2.209-1.791 4-4 4z"/><g fill="#CE1126" transform="translate(18 18) scale(0.04) translate(-600 -300)"><path d="M350.01 228l46.677 144-122.207-88.996h151.04L303.313 372l46.678-144z"/><path d="M600.01 228l46.677 144-122.207-88.996h151.04L553.313 372l46.678-144z"/><path d="M850.01 228l46.677 144-122.207-88.996h151.04L803.313 372l46.678-144z"/></g></svg>
