<svg width="36" height="36" viewBox="0 0 36 36" fill="none" xmlns="http://www.w3.org/2000/svg">
<path d="M0 13H36V23H0V13Z" fill="#FFFEFF"/>
<path d="M32 5H4C1.791 5 0 6.791 0 9V13H36V9C36 6.791 34.209 5 32 5Z" fill="#007A3C"/>
<path d="M32 31H4C1.791 31 0 29.209 0 27V23H36V27C36 29.209 34.209 31 32 31Z" fill="#010101"/>
<path d="M9.177 18.332L8.544 20.279L10.2 19.076L11.856 20.279L11.223 18.332L12.879 17.13H10.832L10.2 15.183L9.568 17.13H7.521L9.177 18.332ZM24.777 18.332L24.144 20.279L25.8 19.076L27.456 20.279L26.823 18.332L28.479 17.13H26.432L25.8 15.183L25.168 17.13H23.121L24.777 18.332Z" fill="#CE1027"/>
<path d="M17.963 15.2L18.5916 17.1348H20.6259L18.9801 18.3305L19.6088 20.2652L17.963 19.0695L16.3172 20.2652L16.9458 18.3305L15.3 17.1348H17.3343L17.963 15.2Z" fill="#CE1027"/>
</svg>
