<?xml version="1.0" encoding="UTF-8" standalone="no"?>
<svg
   viewBox="0 0 36 36"
   version="1.1"
   id="svg4"
   sodipodi:docname="1f1fa-1f1f8.svg"
   xml:space="preserve"
   inkscape:export-filename="nigger.svg"
   inkscape:export-xdpi="96"
   inkscape:export-ydpi="96"
   inkscape:version="1.4.3 (0d15f75042, 2025-12-25)"
   xmlns:inkscape="http://www.inkscape.org/namespaces/inkscape"
   xmlns:sodipodi="http://sodipodi.sourceforge.net/DTD/sodipodi-0.dtd"
   xmlns="http://www.w3.org/2000/svg"
   xmlns:svg="http://www.w3.org/2000/svg"><defs
     id="defs4" /><sodipodi:namedview
     id="namedview4"
     pagecolor="#ffffff"
     bordercolor="#999999"
     borderopacity="1"
     inkscape:showpageshadow="2"
     inkscape:pageopacity="0"
     inkscape:pagecheckerboard="0"
     inkscape:deskcolor="#d1d1d1"
     inkscape:zoom="11.313709"
     inkscape:cx="0.75130095"
     inkscape:cy="12.948893"
     inkscape:window-width="1920"
     inkscape:window-height="994"
     inkscape:window-x="0"
     inkscape:window-y="0"
     inkscape:window-maximized="1"
     inkscape:current-layer="svg4" /><path
     fill="#B22334"
     d="M35.445 7C34.752 5.809 33.477 5 32 5H18v2h17.445zM0 25h36v2H0zm18-8h18v2H18zm0-4h18v2H18zM0 21h36v2H0zm4 10h28c1.477 0 2.752-.809 3.445-2H.555c.693 1.191 1.968 2 3.445 2zM18 9h18v2H18z"
     id="path1"
     inkscape:export-filename="path1.svg"
     inkscape:export-xdpi="192"
     inkscape:export-ydpi="192" /><path
     fill="#EEE"
     d="M.068 27.679c.017.093.036.186.059.277.026.101.058.198.092.296.089.259.197.509.333.743L.555 29h34.89l.002-.004c.135-.233.243-.483.332-.741.034-.099.067-.198.093-.301.023-.09.042-.182.059-.275.041-.22.069-.446.069-.679H0c0 .233.028.458.068.679zM0 23h36v2H0zm0-4v2h36v-2H18zm18-4h18v2H18zm0-4h18v2H18zM0 9c0-.233.03-.457.068-.679C.028 8.542 0 8.767 0 9zm.555-2l-.003.005L.555 7zM.128 8.044c.025-.102.06-.199.092-.297-.034.098-.066.196-.092.297zM18 9h18c0-.233-.028-.459-.069-.68-.017-.092-.035-.184-.059-.274-.027-.103-.059-.203-.094-.302-.089-.258-.197-.507-.332-.74.001-.001 0-.003-.001-.004H18v2z"
     id="path2" /><path
     fill="#3C3B6E"
     d="M18 5H4C1.791 5 0 6.791 0 9v10h18V5z"
     id="path3" /><g
     style="fill:#ffffff;stroke:#ffffff;stroke-width:0.00032"
     id="g4"
     transform="matrix(0.38771219,0,0,0.38771219,2.7758122,5.8004642)"><g
       id="SVGRepo_bgCarrier"
       stroke-width="0" /><g
       id="SVGRepo_tracerCarrier"
       stroke-linecap="round"
       stroke-linejoin="round" /><g
       id="SVGRepo_iconCarrier"><path
         d="M 16,2.0625 15.15625,3.46875 11.78125,9 H 3.3125 L 4.21875,10.53125 7.53125,16 4.21875,21.46875 3.3125,23 h 8.46875 l 3.375,5.53125 L 16,29.9375 16.84375,28.53125 20.21875,23 h 8.5625 L 27.84375,21.46875 24.5,16 27.84375,10.53125 28.78125,9 h -8.5625 l -3.375,-5.53125 z M 16,5.90625 17.875,9 h -3.75 z M 6.875,11 h 3.71875 l -1.875,3.0625 z m 6.03125,0 H 19.125 l 3.03125,5 -3.03125,5 h -6.21875 l -3,-5 z m 8.53125,0 h 3.78125 l -1.875,3.09375 z M 23.34375,17.90625 25.21875,21 H 21.4375 Z M 8.71875,17.9375 10.59375,21 H 6.875 Z M 14.125,23 h 3.75 L 16,26.09375 Z"
         id="path1-6" /></g></g></svg>
