<?xml version="1.0" encoding="UTF-8"?>
<svg xmlns="http://www.w3.org/2000/svg" viewBox="0 0 72 72">
    <path fill="#EEE" d="M0 26h72v20H0z"/>
    <path fill="#007A3D" d="M64 10H8C3.582 10 0 13.582 0 18v8h72v-8c0-4.418-3.582-8-8-8z"/>
    <path fill="#141414" d="M64 62H8c-4.418 0-8-3.582-8-8v-8h72v8c0 4.418-3.582 8-8 8z"/>
    <path fill="#CE1126" d="M12.4 36.664L10.754 41.726 15.06 38.598 19.366 41.726 17.72 36.664 22.026 33.538H16.704L15.06 28.476 13.416 33.538H8.094L12.4 36.664M33.4 36.664L31.754 41.726 36.06 38.598 40.366 41.726 38.72 36.664 43.026 33.538H37.704L36.06 28.476 34.416 33.538H29.094L33.4 36.664M54.4 36.664L52.754 41.726 57.06 38.598 61.366 41.726 59.72 36.664 64.026 33.538H58.704L57.06 28.476 55.416 33.538H50.094L54.4 36.664"/>
</svg>