<svg xmlns="http://www.w3.org/2000/svg" viewBox="0 0 36 36" xmlns:v="https://vecta.io/nano"><path fill="#c00" d="M36 27a4 4 0 0 1-4 4H4a4 4 0 0 1-4-4V9a4 4 0 0 1 4-4h28a4 4 0 0 1 4 4v18z"/><g fill="gold"><path d="M10 7.875l-.421 1.296H8.217l1.102.801-.421 1.296L10 10.466l1.102.801-.421-1.296 1.102-.801h-1.362zm0 .675l.269.829h.872l-.705.512.269.829-.705-.512-.705.512.269-.829-.705-.512h.872zm-3.01 6.109l.933.937.88-.872 4.07 4.249c.2.2.524.201.725.002a.51.51 0 0 0 .003-.723l-4.281-4.04 1.185-1.174-1.649-.228z"/><path d="M10 11.625c.768.431 1.35 1.05 1.694 1.697.348.656.502 1.34.505 1.887.006 1.122-.912 2.032-2.037 2.032-.6 0-1.14-.259-1.513-.671l-.206.173a.31.31 0 0 0-.11-.02c-.091 0-.176.04-.235.109-.147.019-.27.121-.317.261a1.33 1.33 0 0 1-.756.665c-.161.059-.314.16-.443.29-.257.258-.382.589-.312.821-.007.02-.011.041-.011.063 0 .107.087.194.194.194.027 0 .053-.006.078-.017.232.052.548-.076.794-.324a1.2 1.2 0 0 0 .296-.47 1.31 1.31 0 0 1 .674-.743c.007-.003.013-.007.019-.011.105-.05.182-.145.209-.257.48.565 1.2.925 2.004.944 1.476.035 2.579-1.049 2.63-2.607.026-.784-.278-1.795-.972-2.624-.53-.634-1.306-1.16-2.186-1.392z"/></g></svg>