<svg xmlns="http://www.w3.org/2000/svg" viewBox="0 0 36 36"><path fill="#060" d="M36 27c0 2.209-1.791 4-4 4H4c-2.209 0-4-1.791-4-4V9c0-2.209 1.791-4 4-4h28c2.209 0 4 1.791 4 4v18z"/><path fill="#D52B1E" d="M32 5H15v26h17c2.209 0 4-1.791 4-4V9c0-2.209-1.791-4-4-4z"/><path fill="#FFCC4D" d="M15 10c-4.418 0-8 3.582-8 8 0 4.418 3.582 8 8 8 4.418 0 8 -3.582 8 -8 0 -4.418 -3.582 -8 -8 -8 z m 4.511 6.196 1.602 -1.602 c 0.491 0.863 0.773 1.79 0.858 2.832zM16 24 h 2.592 C 17.813 24.467 16.937 24.786 16 24.92 Z M 8.029 17.426 c 0.083 -1.022 0.383 -1.982 0.858 -2.832 l 1.602 1.602 z m 0 1.147 3.747 1.874 0.447 -0.895 L 9.118 18 l 2.116 -1.058 1.412 1.412 0.707 -0.707 -1.176 -1.176 0.046 -0.023 -0.447 -0.895 -0.344 0.172 -0.975 -0.975 1.461 0.244 0.164 -0.986 -2.514 -0.419 C 10.652 12.256 12.218 11.336 14 11.081 V 23 h -3.099 l 2.376 -1.584 -0.555 -0.832 -3 2 0.014 0.021 C 8.777 21.508 8.154 20.113 8.029 18.573 Z M 14 24.92 C 13.063 24.785 12.187 24.467 11.408 24 H 14 Z m 6.287-2.34l-2.933-2.933-.707.707.471.471-.395.592L19.099 23 H 16 V 11.08 c 1.644 0.197 3.508 1.314 4.432 2.509 L 17.30143 14.097 17.864 15.062 19.543 14.75 v 0 l -0.975 0.975 -0.344 -0.172 -0.448 0.894 3.106 1.553 -3.105 1.553.447.895 3.747-1.874c-.124 1.527-.737 2.913-1.684 4.006z"/><path fill="#D52B1E" d="M11 13v7c0 2.209 1.791 4 4 4s4-1.791 4-4v-7h-8z"/><path fill="#FFF" d="M12 14v6c0 1.656 1.343 3 3 3s3-1.344 3-3v-6h-6z"/><path fill="#829ACD" d="M13 17h4v2h-4z"/><path fill="#829ACD" d="M14 16h2v4h-2z"/><path fill="#039" d="M12 17h1v2h-1zm2 0h2v2h-2zm3 0h1v2h-1zm-3 3h2v2h-2zm0-6h2v2h-2z"/></svg>