<svg xmlns="http://www.w3.org/2000/svg" viewBox="0 0 45 45"><defs><clipPath id="clipPath16" clipPathUnits="userSpaceOnUse"><path d="M5,38.75c-2.761,0-5-2.239-5-5l0-22.5c0-2.761,2.239-5,5-5l35,0c2.761,0,5,2.239,5,5l0,22.5 c0,2.761-2.239,5-5,5L5,38.75z"/></clipPath></defs><g clip-path="url(#clipPath16)"><rect y="27.917" fill="#BF0A30" width="45" height="10.833"/><rect y="17.083" fill="#EEEEEE" width="45" height="10.833"/><rect y="6.25" fill="#002868" width="45" height="10.833"/><path fill="#EEEEEE" d="M21.667,6.25H0v21.667h21.667V6.25z"/><path fill="#BF0A30" d="M21.065,6.25H0v21.065h21.065V6.25z"/><path fill="#EEEEEE" d="M21.066,6.25v4.204l-6.329,6.329l6.329,6.328v4.203H16.86l-6.327-6.327l-6.327,6.327H0V23.11l6.327-6.327 L0,10.456V6.25h4.206l6.327,6.327L16.86,6.25H21.066z"/><path fill="#002868" d="M21.066,8.769l-8.014,8.014l8.014,8.012v2.519h-2.523l-8.01-8.012l-8.012,8.012H0v-2.519l8.012-8.012L0,8.769 V6.25h2.519l8.014,8.012l8.012-8.012h2.521V8.769z"/><path fill="#FFFFFF" d="M10.533,15.612 10.257,16.459 9.367,16.46 10.087,16.984 9.812,17.831 10.533,17.308 11.254,17.831 10.979,16.984 11.699,16.46 10.809,16.459 z"/><path fill="#FFFFFF" d="M7.679,12.798 7.403,13.645 6.512,13.646 7.232,14.17 6.958,15.017 7.679,14.494 8.399,15.017 8.125,14.17 8.845,13.646 7.954,13.645 z"/><path fill="#FFFFFF" d="M4.859,9.975 4.583,10.822 3.692,10.822 4.413,11.346 4.138,12.194 4.859,11.671 5.58,12.194 5.305,11.346 6.025,10.822 5.135,10.822 z"/><path fill="#FFFFFF" d="M2.043,7.157 1.768,8.004 0.877,8.005 1.597,8.529 1.322,9.376 2.043,8.853 2.764,9.376 2.489,8.529 3.21,8.005 2.319,8.004 z"/><path fill="#FFFFFF" d="M13.313,18.437 13.037,19.284 12.146,19.285 12.867,19.808 12.592,20.656 13.313,20.133 14.034,20.656 13.759,19.808 14.479,19.284 13.589,19.284 z"/><path fill="#FFFFFF" d="M16.132,21.252 15.856,22.099 14.965,22.1 15.685,22.624 15.411,23.471 16.132,22.948 16.852,23.471 16.578,22.624 17.298,22.1 16.407,22.099 z"/><path fill="#FFFFFF" d="M18.951,24.063 18.675,24.91 17.784,24.91 18.504,25.434 18.23,26.282 18.951,25.759 19.672,26.282 19.397,25.434 20.117,24.91 19.226,24.91 z"/><path fill="#FFFFFF" d="M13.387,12.798 13.663,13.645 14.554,13.646 13.834,14.17 14.108,15.017 13.387,14.494 12.667,15.017 12.941,14.17 12.221,13.646 13.112,13.645 z"/><path fill="#FFFFFF" d="M16.207,9.975 16.483,10.822 17.374,10.822 16.653,11.346 16.928,12.194 16.207,11.671 15.486,12.194 15.761,11.346 15.041,10.822 15.931,10.822 z"/><path fill="#FFFFFF" d="M19.023,7.157 19.298,8.004 20.189,8.005 19.469,8.529 19.744,9.376 19.023,8.853 18.302,9.376 18.577,8.529 17.856,8.005 18.747,8.004 z"/><path fill="#FFFFFF" d="M7.753,18.437 8.029,19.284 8.92,19.285 8.199,19.808 8.474,20.656 7.753,20.133 7.032,20.656 7.307,19.808 6.587,19.284 7.477,19.284 z"/><path fill="#FFFFFF" d="M4.934,21.252 5.21,22.099 6.101,22.1 5.381,22.624 5.655,23.471 4.934,22.948 4.214,23.471 4.488,22.624 3.768,22.1 4.659,22.099 z"/><path fill="#FFFFFF" d="M2.115,24.063 2.391,24.91 3.282,24.91 2.562,25.434 2.836,26.282 2.115,25.759 1.394,26.282 1.669,25.434 0.949,24.91 1.84,24.91 z"/></g></svg>