<svg xmlns="http://www.w3.org/2000/svg" viewBox="0 0 45 45"><path fill="#b10021" d="M 40,6.25 H 39.97125 5.0275 5 c -2.76125,0 -5,2.23875 -5,5 V 11.745 33.25375 33.75 c 0,2.76125 2.23875,5 5,5 H 5.0275 39.97125 40 c 2.76125,0 5,-2.23875 5,-5 V 33.255 11.745 11.25 c 0,-2.76125 -2.23875,-5 -5,-5"/><path fill="#eeeeee" d="M 16.25,22.5 C 16.25,22.5 0,10.7325 0,11.11875 V 11.62 33.38 33.88125 C 0,34.2675 16.25,22.5 16.25,22.5"/><path fill="#eeeeee" d="m 22.49975,26.25 c 0,0 -17.87875,12.5 -17.41125,12.5 h 0.0275 34.7675 0.02875 c 0.46625,0 -17.4125,-12.5 -17.4125,-12.5"/><path fill="#eeeeee" d="m 28.75,22.5 c 0,0 16.25,11.7675 16.25,11.38125 V 33.38 11.62 11.11875 C 45,10.7325 28.75,22.5 28.75,22.5"/><path fill="#eeeeee" d="m 22.49975,18.75 c 0,0 -17.87875,-12.5 -17.41125,-12.5 h 0.0275 34.7675 0.02875 c 0.46625,0 -17.4125,12.5 -17.4125,12.5"/></svg>