<svg xmlns="http://www.w3.org/2000/svg" viewBox="0 0 45 45"><path fill="#0c2d83" d="m 0,33.75 c 0,2.76125 2.23875,5 5,5 h 35 c 2.76125,0 5,-2.23875 5,-5 v -22.5 c 0,-2.76125 -2.23875,-5 -5,-5 H 5 c -2.76125,0 -5,2.23875 -5,5 z"/><path fill="#ffffff" d="m 37.998,26.787125 -1.33875,1.0975 c 0,0 0.45125,0.1775 1.02,0.5 0.5675,0.32375 0.78875,0.53 0.78875,0.53 0,0 -0.92125,-0.10375 -2.76,0.195 -1.1875,0.19375 -1.74625,0.41625 -2.3575,0.47625 -0.49125,0.0475 -0.6325,-0.08875 -0.6325,-0.08875 l -0.39125,-0.8575 c 0,0 -0.10625,-0.04 -0.33125,0.0375 -0.2225,0.07625 -0.27125,0.14625 -0.27125,0.14625 l 0.3425,0.91875 c 0,0 0.22625,0.4575 -0.98625,1.03625 -0.77375,0.37125 -1.56,0.545 -2.15625,0.75375 -0.8575,0.29875 -1.19125,0.4525 -1.19125,0.4525 l -1.2475,2.95625 c 0,0 -0.9775,0.43375 -2.2725,-0.08 -1.29375,-0.515 -2.1475,-1.1475 -4.54375,-1.1475 -1.50625,0 -2.24875,-0.05375 -2.8675,-0.3725 -0.9275,-0.47875 -1.3,-1.28875 -1.3,-1.28875 l 0.34,-0.50375 c 0,0 -0.6225,-0.03125 -1.8,-0.30125 -1.005,-0.23 -1.70125,-1.0775 -1.70125,-1.0775 l 0.4075,-1.31 c 0,0 -0.705,-0.18875 -2.30625,-0.0725 -1.9275,0.14 -3.8825,-0.5525 -3.8825,-0.5525 l 1.8275,-0.845 c 0,0 -0.265,-0.1725 -0.765,-0.635 -0.5,-0.46375 -0.54125,-0.77375 -0.54125,-0.77375 0,0 1.32375,0.43875 2.42,0.43875 1.095,0 0.985,-0.045 2.13875,-0.045 1.22125,0 1.61875,0.30125 2.375,0.30125 h 1.11125 c 0,0 0.31375,0.0225 0.52375,0.1825 0.21125,0.15875 0.16875,0.355 0.16875,0.355 l -0.6175,1.67875 c 0,0 0.44875,0.05625 1.10125,0.05625 0.6525,0 1.96625,-0.01125 2.51375,0.295 0.45625,0.25375 0.1875,0.65625 0.1875,0.65625 l -0.6175,1.30375 c 0,0 2.18875,0.0625 3.71,0.30375 0.92875,0.1475 1.44875,0.38125 1.985,0.58375 0.4575,0.17375 0.885,0.31875 0.885,0.31875 l -0.43125,-1.0625 c 0,0 1.275,-1.00125 2.34125,-1.50125 0.55875,-0.2625 1.3625,-0.47625 2.095,-0.72125 0.66375,-0.22125 1.29625,-0.50125 1.29625,-0.50125 L 29.703,27.537125 c 0,0 0.01,-0.50375 0.83375,-0.8725 1.3975,-0.62375 1.96375,-0.17125 1.96375,-0.17125 l 0.2725,0.95125 c 0,0 1.33,-0.60125 2.50625,-0.835 0.665,-0.13125 1.34125,-0.08375 1.88625,0.0625 0.37125,0.09875 0.8325,0.115 0.8325,0.115"/><path fill="#129612" d="m 22.5,12.38225 c 0,0 -1.41875,-0.31625 -1.83625,-0.05875 -0.41625,0.2575 -0.485,0.19875 -0.51125,0.11125 C 20.125,12.346 20.06875,12.3085 19.7475,12.306 c -0.32125,-0.0013 -0.42875,-0.11 -0.42875,-0.11 0,0 0.07625,-0.205 0.30125,-0.33125 0.225,-0.125 0.605,-0.09 0.605,-0.09 0,0 -0.0925,-0.2325 -0.26875,-0.30625 -0.17625,-0.07375 -0.51,-0.1225 -0.51,-0.1225 0,0 0.18875,-0.30375 0.57375,-0.5125 0.385,-0.20875 0.76875,-0.1625 0.76875,-0.1625 0,0 -0.03375,-0.0925 -0.04125,-0.15375 -0.0075,-0.06125 0.015,-0.0875 0.015,-0.0875 0,0 0.15875,0.14875 0.46125,0.17875 0.30125,0.02875 0.5575,0.16875 0.61,0.15875 C 21.885,10.75725 21.985,10.536 22.105,10.3185 22.225,10.101 22.5,10.061 22.5,10.061 c 0,0 0.275,0.04 0.395,0.2575 0.12,0.2175 0.22,0.43875 0.27125,0.44875 0.05125,0.01 0.30875,-0.13 0.61,-0.15875 0.3025,-0.03 0.4625,-0.17875 0.4625,-0.17875 0,0 0.02125,0.02625 0.01375,0.0875 C 24.245,10.5785 24.21,10.671 24.21,10.671 c 0,0 0.38625,-0.04625 0.77,0.1625 0.385,0.20875 0.57375,0.5125 0.57375,0.5125 0,0 -0.3325,0.04875 -0.51,0.1225 -0.175,0.07375 -0.27,0.30625 -0.27,0.30625 0,0 0.38,-0.035 0.60625,0.09 0.225,0.12625 0.30125,0.33125 0.30125,0.33125 0,0 -0.1075,0.10875 -0.42875,0.11 -0.32125,0.0025 -0.3775,0.04 -0.40375,0.12875 C 24.82,12.52225 24.7525,12.581 24.33625,12.3235 23.92,12.066 22.5,12.38225 22.5,12.38225"/><path fill="#129612" d="m 31.211,19.379875 c 0,0 -0.13375,0.69375 -0.04125,0.76 0.09125,0.06625 0.3675,0.01875 0.52875,0.08375 0.1625,0.0675 0.635,0.57375 0.635,0.57375 0,0 -0.28875,0.4375 -0.5975,0.4375 -0.30875,0 -0.555,-0.4075 -0.7725,-0.41125 -0.2175,-0.0038 -0.29,0.16375 -0.085,0.32375 0.6675,0.51875 0.4375,0.7575 0.4375,0.7575 0,0 -0.1025,-0.085 -0.41125,-0.1225 -0.30875,-0.03625 -0.9225,-0.5175 -0.9225,-0.5175 l 0.15,-0.875 z"/><path fill="#129612" d="m 13.789,19.379875 c 0,0 0.13375,0.69375 0.0425,0.76 -0.0925,0.06625 -0.36875,0.01875 -0.53,0.08375 -0.1625,0.0675 -0.63625,0.57375 -0.63625,0.57375 0,0 0.29,0.4375 0.59875,0.4375 0.31,0 0.555,-0.4075 0.7725,-0.41125 0.2175,-0.0038 0.29,0.16375 0.085,0.32375 -0.6675,0.51875 -0.4375,0.7575 -0.4375,0.7575 0,0 0.1025,-0.085 0.41125,-0.1225 0.30875,-0.03625 0.9225,-0.5175 0.9225,-0.5175 l -0.15,-0.875 z"/><path fill="#129612" d="m 27.752625,25.769 c 0,0 0.50375,0.14 0.59875,0.2525 0.0925,0.11375 0.01125,0.175 0.165,0.3775 0.155,0.20375 0.09625,0.33875 0.09625,0.33875 0,0 -0.07375,0.06375 -0.31125,0.01 -0.2375,-0.055 -0.33625,0.0125 -0.01875,0.25375 0.31625,0.24375 0.24375,0.2675 0.26375,0.525 0.01875,0.2575 0.09875,0.5175 0.09875,0.5175 0,0 -0.19875,0.1225 -0.58125,0.0225 -0.3825,-0.10125 -0.36,-0.2775 -0.3825,-0.47375 -0.02125,-0.195 -0.21375,-0.48 -0.36625,-0.43875 -0.15125,0.0425 0.04125,0.52375 0.0475,0.765 0.01,0.37625 -0.32,0.3375 -0.32,0.3375 0,0 -0.01375,-0.15625 -0.16,-0.30375 -0.2925,-0.2925 0.0325,-0.5875 -0.01,-0.69125 -0.05625,-0.13625 -0.71,-0.235 -0.71,-0.235 z"/><path fill="#129612" d="m 17.247375,25.769 c 0,0 -0.505,0.14 -0.5975,0.2525 -0.09375,0.11375 -0.0125,0.175 -0.1675,0.3775 -0.15375,0.20375 -0.095,0.33875 -0.095,0.33875 0,0 0.07375,0.06375 0.31125,0.01 0.2375,-0.055 0.33625,0.0125 0.02,0.25375 -0.31625,0.24375 -0.24625,0.2675 -0.265,0.525 -0.02,0.2575 -0.0975,0.5175 -0.0975,0.5175 0,0 0.1975,0.1225 0.58,0.0225 0.3825,-0.10125 0.36125,-0.2775 0.3825,-0.47375 0.0225,-0.195 0.21375,-0.48 0.365,-0.43875 0.1525,0.0425 -0.04,0.52375 -0.04625,0.765 -0.01,0.37625 0.32125,0.3375 0.32125,0.3375 0,0 0.0125,-0.15625 0.15875,-0.30375 0.2925,-0.2925 -0.0325,-0.5875 0.01,-0.69125 0.05625,-0.13625 0.71125,-0.235 0.71125,-0.235 z"/><path fill="#ffffff" d="m 22.5,30.482125 c 0,0 -0.075,-0.19625 -0.625,-0.66375 -0.32375,-0.27375 -1.2175,-0.63 -1.9075,-0.92125 -1.21,-0.5075 -1.64,-0.8675 -1.64,-0.8675 l 0.315,-0.275 0.01125,-0.89625 -2.1875,-0.8625 -0.56625,0.56875 c 0,0 -2.08875,-0.74375 -2.555,-2.0125 -0.64625,-1.765 0.035,-2.8975 0.035,-2.8975 l 1.585,0.0275 -0.09625,-1.2925 -1.08,-1.01 c 0,0 0.78,-0.30375 1.16,-1.28375 0.3525,-0.9125 0.355,-1.99 -0.20625,-2.68 -0.86,-1.05875 -1.39125,-0.60375 -1.39125,-0.60375 0,0 0.12,0.35375 -0.4975,0.5 -0.17,0.04 -0.39875,-0.19375 -0.45375,-0.44125 -0.07125,-0.3275 0.12625,-0.6575 0.5675,-1.1425 0.6425,-0.71 1.16,-0.59625 1.6575,-0.9525 0.6725,-0.48125 1.42625,-1.765 2.085,-1.765 0.11,0 0.36625,0.04625 0.525,0.265 0.09625,0.13125 0.14,0.28875 0.14,0.63625 0,0.43125 -0.35,0.67375 -0.35,0.67375 0,0 0.3825,0.775 1.82875,0.775 0.61875,0 1.1575,-0.225 1.49625,-0.4425 0.555,-0.35625 0.69625,-0.7775 0.69625,-0.7775 l 1.45375,-0.1575 1.45375,0.1575 c 0,0 0.14125,0.42125 0.69625,0.7775 0.33875,0.2175 0.8775,0.4425 1.4975,0.4425 1.445,0 1.8275,-0.775 1.8275,-0.775 0,0 -0.35,-0.2425 -0.35,-0.67375 0,-0.3475 0.045,-0.505 0.14,-0.63625 0.15875,-0.21875 0.41625,-0.265 0.52625,-0.265 0.6575,0 1.41125,1.28375 2.08375,1.765 0.4975,0.35625 1.01375,0.2425 1.65875,0.9525 0.44,0.485 0.6375,0.815 0.565,1.1425 -0.05375,0.2475 -0.2825,0.48125 -0.4525,0.44125 -0.6175,-0.14625 -0.4975,-0.5 -0.4975,-0.5 0,0 -0.53,-0.455 -1.39125,0.60375 -0.56,0.69 -0.55875,1.7675 -0.20625,2.68 0.38,0.98 1.16,1.28375 1.16,1.28375 l -1.08,1.01 -0.09625,1.2925 1.585,-0.0275 c 0,0 0.68125,1.1325 0.03375,2.8975 -0.465,1.26875 -2.555,2.0125 -2.555,2.0125 l -0.56625,-0.56875 -2.1875,0.8625 0.01375,0.89625 0.31375,0.275 c 0,0 -0.43,0.36 -1.64,0.8675 -0.68875,0.29125 -1.58375,0.6475 -1.9075,0.92125 -0.55,0.4675 -0.625,0.66375 -0.625,0.66375"/><path fill="#ffd312" d="m 23.266625,11.843875 c 0.04875,-0.23 0.1625,-0.43125 0.40625,-0.42875 0.39,0.0038 0.46125,0.78125 0.165,0.78125 -0.17125,0 -0.2275,-0.2525 -0.2275,-0.2525 0,0 -0.155,0.60375 0.64625,1.195 0.43,0.3175 1.2875,0.6775 1.97125,0.6775 1.01625,0 1.68375,-0.55875 2.0925,-1.0675 0.52125,-0.65125 0.38375,-1.55375 0.38375,-1.55375 l 0.2925,0.29125 c 0,0 0.1475,1.1825 -0.645,1.975 -0.43875,0.44 -1.24125,0.84 -2.13125,0.84 -0.9725,0 -1.76875,-0.405 -2.24875,-0.79625 -0.5675,-0.46375 -0.7225,-0.98375 -0.7225,-0.98375 z"/><path fill="#ffd312" d="m 21.733375,11.843875 c -0.05,-0.23 -0.1625,-0.43125 -0.40625,-0.42875 -0.39,0.0038 -0.46125,0.78125 -0.16625,0.78125 0.1725,0 0.22875,-0.2525 0.22875,-0.2525 0,0 0.155,0.60375 -0.64625,1.195 -0.42875,0.3175 -1.2875,0.6775 -1.97125,0.6775 -1.01625,0 -1.68375,-0.55875 -2.09125,-1.0675 -0.5225,-0.65125 -0.38375,-1.55375 -0.38375,-1.55375 l -0.2925,0.29125 c 0,0 -0.15,1.1825 0.64375,1.975 0.43875,0.44 1.24125,0.84 2.13125,0.84 0.9725,0 1.76875,-0.405 2.2475,-0.79625 0.56875,-0.46375 0.7225,-0.98375 0.7225,-0.98375 z"/><path fill="#ffd312" d="m 32.556125,14.613 c 0,0 0.065,-0.01125 -0.0725,-0.29 -0.13625,-0.28 -0.32125,-0.30125 -0.32125,-0.30125 0,0 -0.4225,-0.0725 -0.95875,0.035 -0.70875,0.14125 -1.65875,0.6425 -2.145,1.9425 -0.35,0.93875 -0.275,1.73625 -0.0875,2.36375 0.2775,0.935 0.82375,1.48875 0.82375,1.48875 l 0.3875,-0.34625 c 0,0 -0.57625,-0.47125 -0.7225,-1.57875 -0.06125,-0.4775 -0.095,-1.12625 0.11625,-1.83125 0.365,-1.2225 1.1025,-1.63 1.69125,-1.70125 0.66375,-0.08 1.28875,0.21875 1.28875,0.21875"/><path fill="#ffd312" d="m 12.44325,14.613 c 0,0 -0.06375,-0.01125 0.0725,-0.29 0.13625,-0.28 0.3225,-0.30125 0.3225,-0.30125 0,0 0.4225,-0.0725 0.95875,0.035 0.70875,0.14125 1.65875,0.6425 2.14375,1.9425 0.35125,0.93875 0.275,1.73625 0.08875,2.36375 -0.27875,0.935 -0.825,1.48875 -0.825,1.48875 L 14.81825,19.5055 c 0,0 0.575,-0.47125 0.72125,-1.57875 0.0625,-0.4775 0.095,-1.12625 -0.115,-1.83125 -0.36625,-1.2225 -1.10375,-1.63 -1.69125,-1.70125 -0.665,-0.08 -1.29,0.21875 -1.29,0.21875"/><path fill="#ffd312" d="m 30.722625,21.867625 c 0,0 0.42,0.70875 0.32375,1.55125 -0.0725,0.6325 -0.38625,1.20875 -0.92875,1.7025 -0.765,0.695 -1.585,0.875 -1.585,0.875 l 0.38125,0.39 c 0,0 1.06,-0.5675 1.76625,-1.27625 0.5575,-0.56 0.7925,-1.215 0.8225,-1.68625 0.0525,-0.8175 -0.2175,-1.4 -0.2175,-1.4 z"/><path fill="#ffd312" d="m 14.27675,21.867625 c 0,0 -0.42,0.70875 -0.32375,1.55125 0.0725,0.6325 0.38625,1.20875 0.92875,1.7025 0.765,0.695 1.585,0.875 1.585,0.875 l -0.38125,0.39 c 0,0 -1.05875,-0.5675 -1.765,-1.27625 -0.55875,-0.56 -0.7925,-1.215 -0.82375,-1.68625 -0.0525,-0.8175 0.2175,-1.4 0.2175,-1.4 z"/><path fill="#ffd312" d="m 22.5,29.964625 c 0,0 0.1975,-0.26625 0.69,-0.625 0.49,-0.3575 1.85375,-0.82875 2.305,-1.05375 0.6075,-0.3025 0.86375,-0.53125 0.86375,-0.53125 L 26.345,26.858375 c 0,0 -0.445,0.62625 -0.945,0.9575 -0.535,0.35625 -1.3525,0.5775 -1.93,0.845 -0.71375,0.33125 -0.97,0.6825 -0.97,0.6825 0,0 -0.25625,-0.35125 -0.97,-0.6825 -0.5775,-0.2675 -1.39375,-0.48875 -1.93125,-0.845 -0.49875,-0.33125 -0.945,-0.9575 -0.945,-0.9575 l -0.01125,0.89625 c 0,0 0.255,0.22875 0.8625,0.53125 0.45125,0.225 1.815,0.69625 2.305,1.05375 0.4925,0.35875 0.69,0.625 0.69,0.625"/><path fill="#ffd312" d="m 28.004125,12.55 c 0,0 0.10375,-0.09125 0.205,-0.2375 0.11125,-0.16 0.14375,-0.26875 0.14375,-0.42625 0,-0.30625 -0.095,-0.48625 -0.17375,-0.48625 -0.12875,0 -0.22,0.28625 -0.22,0.45375 0,0.13875 0.105,0.26375 0.105,0.45125 0,0.16 -0.06,0.245 -0.06,0.245"/><path fill="#ffd312" d="m 16.995875,12.55 c 0,0 -0.10375,-0.09125 -0.20625,-0.2375 -0.11,-0.16 -0.1425,-0.26875 -0.1425,-0.42625 0,-0.30625 0.095,-0.48625 0.17375,-0.48625 0.12875,0 0.22,0.28625 0.22,0.45375 0,0.13875 -0.105,0.26375 -0.105,0.45125 0,0.16 0.06,0.245 0.06,0.245"/><path fill="#ffd312" d="m 31.638125,14.804625 c 0,0 0.16375,0.06125 0.39625,-0.01125 0.17625,-0.055 0.355,0.075 0.31875,0.22625 -0.03125,0.1325 -0.235,0.18625 -0.355,0.1075 -0.13875,-0.09125 -0.1775,-0.1625 -0.24,-0.22125 -0.08125,-0.07625 -0.12,-0.10125 -0.12,-0.10125"/><path fill="#ffd312" d="m 13.36125,14.804625 c 0,0 -0.16375,0.06125 -0.39625,-0.01125 -0.17625,-0.055 -0.35375,0.075 -0.31875,0.22625 0.03125,0.1325 0.23625,0.18625 0.355,0.1075 0.14,-0.09125 0.17875,-0.1625 0.24125,-0.22125 0.08,-0.07625 0.11875,-0.10125 0.11875,-0.10125"/><path fill="#ffd312" d="m 22.951,11.983 c 0,-0.24875 -0.2025,-0.45125 -0.45125,-0.45125 -0.24875,0 -0.45125,0.2025 -0.45125,0.45125 0,0.24875 0.2025,0.45125 0.45125,0.45125 0.24875,0 0.45125,-0.2025 0.45125,-0.45125"/><path fill="#ffd312" d="m 22.049,11.983 c 0,-0.24875 0.2025,-0.45125 0.45125,-0.45125 0.24875,0 0.45125,0.2025 0.45125,0.45125 0,0.24875 -0.2025,0.45125 -0.45125,0.45125 -0.24875,0 -0.45125,-0.2025 -0.45125,-0.45125"/><path fill="#ffd312" d="m 31.82125,19.379875 c 0,0.3375 -0.27375,0.61 -0.61,0.61 -0.3375,0 -0.61125,-0.2725 -0.61125,-0.61 0,-0.3375 0.27375,-0.61 0.61125,-0.61 0.33625,0 0.61,0.2725 0.61,0.61"/><path fill="#ffd312" d="m 13.17875,19.379875 c 0,0.3375 0.27375,0.61 0.61,0.61 0.3375,0 0.61125,-0.2725 0.61125,-0.61 0,-0.3375 -0.27375,-0.61 -0.61125,-0.61 -0.33625,0 -0.61,0.2725 -0.61,0.61"/><path fill="#ffd312" d="m 30.692125,20.389375 c 0,0.31 -0.25,0.56 -0.56,0.56 -0.30875,0 -0.56,-0.25 -0.56,-0.56 0,-0.31 0.25125,-0.56 0.56,-0.56 0.31,0 0.56,0.25 0.56,0.56"/><path fill="#ffd312" d="m 14.30725,20.389375 c 0,0.31 0.25125,0.56 0.56125,0.56 0.30875,0 0.56,-0.25 0.56,-0.56 0,-0.31 -0.25125,-0.56 -0.56,-0.56 -0.31,0 -0.56125,0.25 -0.56125,0.56"/><path fill="#ffd312" d="m 30.589625,21.682125 c 0,0.30625 -0.2475,0.555 -0.55375,0.555 -0.3075,0 -0.55625,-0.24875 -0.55625,-0.555 0,-0.3075 0.24875,-0.555 0.55625,-0.555 0.30625,0 0.55375,0.2475 0.55375,0.555"/><path fill="#ffd312" d="m 14.410375,21.682125 c 0,0.30625 0.24875,0.555 0.555,0.555 0.30625,0 0.555,-0.24875 0.555,-0.555 0,-0.3075 -0.24875,-0.555 -0.555,-0.555 -0.30625,0 -0.555,0.2475 -0.555,0.555"/><path fill="#ffd312" d="m 25.620125,27.026375 c 0,-0.29875 0.2425,-0.54125 0.5425,-0.54125 0.29875,0 0.54,0.2425 0.54,0.54125 0,0.3 -0.24125,0.5425 -0.54,0.5425 -0.3,0 -0.5425,-0.2425 -0.5425,-0.5425"/><path fill="#ffd312" d="m 19.379875,27.026375 c 0,-0.29875 -0.2425,-0.54125 -0.54125,-0.54125 -0.3,0 -0.5425,0.2425 -0.5425,0.54125 0,0.3 0.2425,0.5425 0.5425,0.5425 0.29875,0 0.54125,-0.2425 0.54125,-0.5425"/><path fill="#ffd312" d="m 26.597875,26.383 c 0,0.23875 0.19375,0.43375 0.43375,0.43375 0.23875,0 0.4325,-0.195 0.4325,-0.43375 0,-0.23875 -0.19375,-0.43375 -0.4325,-0.43375 -0.24,0 -0.43375,0.195 -0.43375,0.43375"/><path fill="#ffd312" d="m 18.40275,26.383 c 0,0.23875 -0.19375,0.43375 -0.43375,0.43375 -0.24,0 -0.43375,-0.195 -0.43375,-0.43375 0,-0.23875 0.19375,-0.43375 0.43375,-0.43375 0.24,0 0.43375,0.195 0.43375,0.43375"/><path fill="#ffd312" d="m 27.34625,25.769 c 0,0.22625 0.1825,0.4075 0.40625,0.4075 0.225,0 0.40625,-0.18125 0.40625,-0.4075 0,-0.225 -0.18125,-0.40625 -0.40625,-0.40625 -0.22375,0 -0.40625,0.18125 -0.40625,0.40625"/><path fill="#ffd312" d="m 17.654375,25.769 c 0,0.22625 -0.1825,0.4075 -0.4075,0.4075 -0.22375,0 -0.40625,-0.18125 -0.40625,-0.4075 0,-0.225 0.1825,-0.40625 0.40625,-0.40625 0.225,0 0.4075,0.18125 0.4075,0.40625"/><path fill="#961e1d" d="m 18.62,17.564125 v -1.4325 c -0.0775,0.005 -0.15125,0.0125 -0.215,0.0275 -0.115,0.02625 -0.42375,0.38625 -0.3875,0.71125 0.0375,0.3325 0.10625,0.4125 0.6025,0.69375 m 0.6475,0.91875 c -0.06125,-0.25125 -0.23875,-0.45375 -0.45125,-0.62875 v 1.70375 c 0.2975,-0.3375 0.52875,-0.75375 0.45125,-1.075 m -0.6475,1.61125 c -0.795,0.915 -0.3525,1.53875 -0.3525,1.53875 0.19,-0.04625 0.315,-0.10875 0.30875,-0.18875 -0.015,-0.1725 0.04375,-0.275 0.04375,-0.275 z m 0.19625,-0.20625 v 1.325 c 0,0 -0.015,0.1425 0.07375,0.22625 0.0875,0.08375 0.1225,0.23 0.1225,0.23 0,0 0.255,0.005 0.775,0.03875 0.51875,0.035 0.41625,0.21125 0.41625,0.21125 h -3.49 c 0,0 -0.1325,-0.1525 0.77875,-0.19125 0,0 0.43625,-0.0825 0.48,-0.475 0.045,-0.3925 -0.19,-0.9225 0.28,-1.20625 0.11375,-0.06875 0.24375,-0.165 0.3675,-0.28 v -2.06125 c -0.4025,-0.285 -0.8375,-0.5025 -0.8375,-0.77125 0,-0.43625 0.4625,-0.99125 0.7875,-1.08875 0.0175,-0.005 0.03375,-0.01 0.05,-0.015 v -0.25875 c 0,0 0.03375,-0.06875 0.1075,-0.06875 0.07375,0 0.08875,0.05375 0.08875,0.05375 v 0.23 c 0.12125,-0.01625 0.2425,-0.0075 0.395,0.04625 0.25125,0.09125 0.2375,0.2475 0.2375,0.2475 0,0 -0.24,-0.15875 -0.2825,0.0125 -0.0075,0.03375 -0.165,0.03 -0.35,0.0325 v 1.5475 c 0.035,0.02 0.07,0.03875 0.1075,0.06 0.275,0.15125 0.505,0.52 0.57875,0.8575 0.09125,0.4175 -0.11625,0.75875 -0.68625,1.2975"/><path fill="#b400b4" d="m 17.404125,18.915375 c -0.1525,0 -0.25875,-0.40125 -0.46375,-0.79 -0.20625,-0.39375 -0.0925,-0.78 -0.0062,-0.8425 0.10625,-0.0775 0.76,-0.06625 0.8675,0.11375 0.17,0.28875 -0.0875,0.44625 -0.14375,0.75 -0.07125,0.39125 0.02625,0.76875 -0.25375,0.76875"/><path fill="#b400b4" d="m 19.5685,18.0005 c 0.1525,0 0.25875,-0.40125 0.46375,-0.79 0.20625,-0.39375 0.0925,-0.78 0.0062,-0.8425 -0.10625,-0.0775 -0.76,-0.065 -0.8675,0.115 -0.17,0.2875 0.0875,0.445 0.14375,0.74875 0.0713,0.3925 -0.0262,0.76875 0.2538,0.76875"/><path fill="#b400b4" d="m 19.494625,21.140125 c 0.1525,0 0.25875,-0.40125 0.46375,-0.79 0.2075,-0.39375 0.0925,-0.78 0.0063,-0.8425 -0.105,-0.07625 -0.76,-0.065 -0.86625,0.115 -0.17125,0.2875 0.0875,0.445 0.1425,0.75 0.07125,0.39125 -0.025,0.7675 0.25375,0.7675"/><path fill="#129612" d="m 18.259875,15.198375 c 0,0 -0.04375,0.16125 -0.20375,0.39 -0.15875,0.2275 -0.345,0.3425 -0.345,0.3425 0,0 0,0.10125 -0.19625,0.3075 -0.19625,0.205 -0.35,0.235 -0.35,0.235 0,0 0.09,-0.1075 -0.04,-0.255 -0.13,-0.1475 -0.1375,-0.265 0.015,-0.29 0.1525,-0.02375 0.215,-0.0012 0.215,-0.0012 0,0 -0.05625,-0.21375 -0.2625,-0.31375 -0.205,-0.10125 -0.1875,-0.4275 -0.1875,-0.4275 0,0 0.26125,-0.11 0.43625,0.10875 0.17375,0.2175 0.38125,0.16625 0.38125,0.16625 0,0 -0.11375,-0.2575 0.07625,-0.375 0.09,-0.055 0.15875,0.04625 0.285,0.08375 0.1225,0.03625 0.17625,0.02875 0.17625,0.02875"/><path fill="#129612" d="m 19.762,19.544125 c 0,0 -0.05,-0.1525 -0.04125,-0.41625 0.0075,-0.265 0.095,-0.455 0.095,-0.455 0,0 -0.0525,-0.08 -0.0025,-0.34625 0.04875,-0.26625 0.15625,-0.37125 0.15625,-0.37125 0,0 -0.01625,0.13375 0.16375,0.1825 0.18,0.05 0.24875,0.14 0.14,0.23875 -0.10875,0.09875 -0.17125,0.115 -0.17125,0.115 0,0 0.15625,0.14 0.37375,0.1125 0.21625,-0.0275 0.37375,0.24125 0.37375,0.24125 0,0 -0.15125,0.225 -0.405,0.1425 -0.2525,-0.08375 -0.3925,0.06625 -0.3925,0.06625 0,0 0.2275,0.14625 0.13625,0.33875 -0.0425,0.09125 -0.15125,0.0475 -0.27,0.0825 -0.1175,0.035 -0.15625,0.06875 -0.15625,0.06875"/><path fill="#129612" d="m 18.132875,19.1925 c 0,0 0.0175,0.17875 -0.055,0.46875 -0.07375,0.28875 -0.21625,0.475 -0.21625,0.475 0,0 0.0375,0.1 -0.08125,0.38125 -0.1175,0.28125 -0.26125,0.36875 -0.26125,0.36875 0,0 0.05,-0.1425 -0.13625,-0.24 -0.18625,-0.09875 -0.23875,-0.21375 -0.095,-0.29625 0.1425,-0.08125 0.215,-0.08375 0.215,-0.08375 0,0 -0.1375,-0.1925 -0.3825,-0.215 -0.24375,-0.0225 -0.35125,-0.35625 -0.35125,-0.35625 0,0 0.22125,-0.21 0.47875,-0.0575 0.2575,0.1525 0.44625,0.0225 0.44625,0.0225 0,0 -0.2125,-0.215 -0.06625,-0.405 0.06875,-0.09 0.1775,-0.015 0.3175,-0.025 0.13625,-0.01 0.1875,-0.0375 0.1875,-0.0375"/><path fill="#129612" d="m 19.824875,16.471 c 0,0 -0.13625,-0.14 -0.27125,-0.43625 -0.13375,-0.295 -0.14,-0.55125 -0.14,-0.55125 0,0 -0.10125,-0.06 -0.19125,-0.37875 -0.09,-0.32 -0.02875,-0.4925 -0.02875,-0.4925 0,0 0.055,0.155 0.28,0.11125 0.225,-0.04375 0.34875,0.02 0.2825,0.18625 -0.06625,0.1675 -0.12625,0.21875 -0.12625,0.21875 0,0 0.2475,0.07 0.47125,-0.0775 0.22375,-0.14625 0.54125,0.06375 0.54125,0.06375 0,0 -0.045,0.33 -0.3675,0.375 -0.3225,0.045 -0.395,0.285 -0.395,0.285 0,0 0.3275,0.0375 0.3325,0.3 0.0025,0.12375 -0.14125,0.1325 -0.2525,0.23625 -0.11,0.10125 -0.135,0.16 -0.135,0.16"/><path fill="#961e1d" d="m 22.8625,21.445875 c 0.0325,-0.2925 -0.24625,-0.6175 -0.35,-0.64125 -0.0575,-0.01375 -0.125,-0.02125 -0.195,-0.02625 v 1.29375 c 0.44875,-0.2525 0.51125,-0.325 0.545,-0.62625 m -0.72125,2.4275 v -1.53875 c -0.1925,0.1575 -0.3525,0.34125 -0.4075,0.56875 -0.07,0.28875 0.13875,0.665 0.4075,0.97 m 0.17625,1.455 c 0,0 0.05375,0.0925 0.04,0.2475 -0.0063,0.07375 0.10875,0.13 0.27875,0.1725 0,0 0.4,-0.56375 -0.31875,-1.39 z m -0.79625,-2.32875 c 0.06625,-0.305 0.27375,-0.6375 0.5225,-0.77375 0.03375,-0.02 0.06625,-0.0375 0.0975,-0.05375 v -1.39875 c -0.1675,-0.0025 -0.31,0 -0.3175,-0.02875 -0.03625,-0.155 -0.25375,-0.01125 -0.25375,-0.01125 0,0 -0.0125,-0.1425 0.215,-0.22375 0.1375,-0.05 0.24625,-0.05625 0.35625,-0.04125 v -0.20875 c 0,0 0.01375,-0.04875 0.07875,-0.04875 0.0675,0 0.0975,0.0625 0.0975,0.0625 v 0.235 c 0.01625,0.0038 0.03,0.0075 0.04625,0.0125 0.29375,0.0875 0.71125,0.58875 0.71125,0.9825 0,0.24375 -0.39375,0.44 -0.7575,0.6975 v 1.86 c 0.11125,0.10375 0.23,0.1925 0.3325,0.25375 0.425,0.25625 0.2125,0.735 0.2525,1.09 0.04,0.35375 0.43375,0.42875 0.43375,0.42875 0.82375,0.03625 0.70375,0.1725 0.70375,0.1725 h -3.1525 c 0,0 -0.0925,-0.16 0.3775,-0.19 0.46875,-0.03125 0.69875,-0.03625 0.69875,-0.03625 0,0 0.03125,-0.1325 0.11125,-0.2075 0.08,-0.075 0.06625,-0.20375 0.06625,-0.20375 v -1.19625 c -0.515,-0.4875 -0.7025,-0.795 -0.62,-1.1725"/><path fill="#b400b4" d="m 23.4155,23.2935 c 0.1375,0 0.23375,-0.3625 0.41875,-0.71375 0.18625,-0.355 0.08375,-0.705 0.0062,-0.76125 -0.095,-0.06875 -0.6875,-0.05875 -0.78375,0.10375 -0.15375,0.26 0.08,0.4025 0.13,0.6775 0.065,0.35375 -0.0225,0.69375 0.22875,0.69375"/><path fill="#b400b4" d="m 21.46175,22.467 c -0.1375,0 -0.23375,-0.3625 -0.41875,-0.71375 -0.18625,-0.355 -0.08375,-0.70375 -0.0062,-0.76 0.09625,-0.07 0.6875,-0.06 0.78375,0.1025 0.15375,0.26 -0.08,0.4025 -0.13,0.6775 -0.06505,0.35375 0.0237,0.69375 -0.2288,0.69375"/><path fill="#b400b4" d="m 21.528375,25.30275 c -0.1375,0 -0.23375,-0.3625 -0.41875,-0.71375 -0.18625,-0.355 -0.08375,-0.705 -0.0063,-0.76125 0.09625,-0.06875 0.68625,-0.06 0.78375,0.10375 0.15375,0.26 -0.08,0.4025 -0.13,0.67625 -0.065,0.355 0.02375,0.695 -0.22875,0.695"/><path fill="#129612" d="m 22.643375,19.9365 c 0,0 0.04,0.14625 0.18375,0.3525 0.14375,0.205 0.3125,0.30875 0.3125,0.30875 0,0 0,0.09125 0.1775,0.2775 0.17625,0.185 0.31625,0.2125 0.31625,0.2125 0,0 -0.0825,-0.0975 0.035,-0.23 0.1175,-0.13375 0.12375,-0.24 -0.01375,-0.26125 -0.13625,-0.0225 -0.19375,-0.0025 -0.19375,-0.0025 0,0 0.05,-0.1925 0.23625,-0.28375 0.18625,-0.09 0.17,-0.385 0.17,-0.385 0,0 -0.23625,-0.09875 -0.39375,0.0975 -0.15625,0.1975 -0.345,0.15 -0.345,0.15 0,0 0.10375,-0.2325 -0.06875,-0.33875 -0.08125,-0.05 -0.14375,0.0425 -0.2575,0.07625 -0.11,0.0325 -0.15875,0.02625 -0.15875,0.02625"/><path fill="#129612" d="m 21.28725,23.861125 c 0,0 0.045,-0.13625 0.0375,-0.37625 -0.0075,-0.24 -0.0875,-0.41 -0.0875,-0.41 0,0 0.04875,-0.0725 0.0038,-0.31375 -0.04375,-0.24125 -0.14125,-0.335 -0.14125,-0.335 0,0 0.015,0.12125 -0.14875,0.165 -0.1625,0.045 -0.22375,0.12625 -0.12625,0.215 0.09875,0.09 0.155,0.10375 0.155,0.10375 0,0 -0.14125,0.1275 -0.3375,0.1025 -0.195,-0.025 -0.3375,0.2175 -0.3375,0.2175 0,0 0.1375,0.20375 0.365,0.12875 0.22875,-0.075 0.355,0.06 0.355,0.06 0,0 -0.205,0.13125 -0.1225,0.30625 0.03875,0.0825 0.13625,0.0425 0.24375,0.07375 0.10625,0.0325 0.14125,0.0625 0.14125,0.0625"/><path fill="#129612" d="m 22.758125,23.54375 c 0,0 -0.01625,0.16125 0.05,0.4225 0.06625,0.26125 0.195,0.43 0.195,0.43 0,0 -0.035,0.09 0.0725,0.34375 0.10625,0.25375 0.2375,0.33375 0.2375,0.33375 0,0 -0.045,-0.12875 0.1225,-0.2175 0.1675,-0.08875 0.215,-0.1925 0.08625,-0.26625 -0.13,-0.075 -0.195,-0.0775 -0.195,-0.0775 0,0 0.12375,-0.1725 0.345,-0.19375 0.22125,-0.02 0.3175,-0.32125 0.3175,-0.32125 0,0 -0.19875,-0.19 -0.4325,-0.0525 -0.23125,0.13875 -0.4025,0.02 -0.4025,0.02 0,0 0.19125,-0.1925 0.06,-0.365 -0.0625,-0.0825 -0.16,-0.01375 -0.28625,-0.0225 -0.12375,-0.0075 -0.17,-0.03375 -0.17,-0.03375"/><path fill="#129612" d="m 21.229875,21.085875 c 0,0 0.12375,-0.1275 0.245,-0.39375 0.12125,-0.2675 0.12625,-0.4975 0.12625,-0.4975 0,0 0.09125,-0.055 0.17375,-0.34375 0.08125,-0.2875 0.025,-0.44375 0.025,-0.44375 0,0 -0.04875,0.14 -0.2525,0.10125 -0.20375,-0.04 -0.315,0.01625 -0.255,0.16875 0.06,0.15 0.11375,0.19625 0.11375,0.19625 0,0 -0.22375,0.06375 -0.42625,-0.07 -0.20125,-0.1325 -0.48875,0.0575 -0.48875,0.0575 0,0 0.04125,0.2975 0.3325,0.33875 0.29125,0.04125 0.35625,0.25875 0.35625,0.25875 0,0 -0.295,0.0325 -0.3,0.26875 -0.0012,0.1125 0.1275,0.12125 0.22875,0.21375 0.09875,0.0925 0.12125,0.145 0.12125,0.145"/><path fill="#961e1d" d="m 26.982375,16.870125 c 0.03625,-0.325 -0.2725,-0.685 -0.3875,-0.71125 -0.06375,-0.015 -0.13875,-0.0225 -0.215,-0.0275 v 1.4325 c 0.49625,-0.28 0.56625,-0.36 0.6025,-0.69375 m -0.79875,2.6875 v -1.7025 c -0.2125,0.17375 -0.39,0.37625 -0.45125,0.6275 -0.0775,0.32125 0.15375,0.7375 0.45125,1.075 m 0.19625,1.61125 c 0,0 0.05875,0.1025 0.045,0.275 -0.0075,0.08 0.1175,0.1425 0.30875,0.19 0,0 0.44125,-0.62375 -0.35375,-1.54 z m -0.88125,-2.57875 c 0.0725,-0.3375 0.30375,-0.705 0.57625,-0.8575 0.03875,-0.02125 0.075,-0.04 0.10875,-0.05875 v -1.54875 c -0.185,-0.0025 -0.3425,0.0012 -0.35,-0.0325 -0.04125,-0.17125 -0.2825,-0.01125 -0.2825,-0.01125 0,0 -0.01375,-0.1575 0.23875,-0.24875 0.15125,-0.05375 0.27375,-0.0625 0.39375,-0.04625 v -0.23 c 0,0 0.015,-0.05375 0.08875,-0.05375 0.0725,0 0.1075,0.06875 0.1075,0.06875 v 0.25875 c 0.01625,0.005 0.0325,0.01 0.05,0.015 0.325,0.0975 0.7875,0.6525 0.7875,1.08875 0,0.27 -0.435,0.48625 -0.8375,0.77125 v 2.06125 c 0.1225,0.115 0.25375,0.21125 0.36875,0.28 0.46875,0.285 0.23375,0.81375 0.2775,1.20625 0.045,0.3925 0.48125,0.475 0.48125,0.475 0.91125,0.03875 0.78,0.19125 0.78,0.19125 h -3.49125 c 0,0 -0.1025,-0.17625 0.4175,-0.21 0.51875,-0.035 0.77375,-0.04 0.77375,-0.04 0,0 0.03375,-0.14625 0.12375,-0.23 0.0875,-0.08375 0.0725,-0.225 0.0725,-0.225 v -1.325 c -0.57,-0.54 -0.7775,-0.88125 -0.685,-1.29875"/><path fill="#b400b4" d="m 27.59525,18.915375 c 0.1525,0 0.25875,-0.40125 0.46375,-0.79 0.20625,-0.39375 0.0925,-0.78 0.0075,-0.8425 -0.1075,-0.0775 -0.76125,-0.06625 -0.8675,0.11375 -0.17125,0.28875 0.0875,0.44625 0.1425,0.75 0.07125,0.39125 -0.02625,0.76875 0.25375,0.76875"/><path fill="#b400b4" d="m 25.432125,18.0005 c -0.1525,0 -0.25875,-0.40125 -0.46375,-0.79 -0.2075,-0.39375 -0.0925,-0.78 -0.0075,-0.8425 0.10625,-0.0775 0.76125,-0.065 0.8675,0.115 0.17,0.2875 -0.0875,0.445 -0.14375,0.74875 -0.07,0.3925 0.02625,0.76875 -0.2525,0.76875"/><path fill="#b400b4" d="m 25.505375,21.140125 c -0.1525,0 -0.25875,-0.40125 -0.46375,-0.79 -0.20625,-0.39375 -0.0925,-0.78 -0.0075,-0.8425 0.1075,-0.07625 0.76125,-0.065 0.8675,0.115 0.17125,0.2875 -0.0875,0.445 -0.1425,0.75 -0.07125,0.39125 0.02625,0.7675 -0.25375,0.7675"/><path fill="#129612" d="m 26.74075,15.198375 c 0,0 0.04375,0.16125 0.2025,0.39 0.16,0.2275 0.345,0.3425 0.345,0.3425 0,0 0,0.10125 0.1975,0.3075 0.19625,0.205 0.35,0.235 0.35,0.235 0,0 -0.09,-0.1075 0.03875,-0.255 0.13125,-0.1475 0.13875,-0.265 -0.01375,-0.29 -0.1525,-0.02375 -0.21625,-0.0012 -0.21625,-0.0012 0,0 0.0575,-0.21375 0.2625,-0.31375 0.20625,-0.10125 0.18875,-0.4275 0.18875,-0.4275 0,0 -0.2625,-0.11 -0.43625,0.10875 -0.17375,0.2175 -0.3825,0.16625 -0.3825,0.16625 0,0 0.115,-0.2575 -0.07625,-0.375 -0.09,-0.055 -0.15875,0.04625 -0.28375,0.08375 -0.1225,0.03625 -0.17625,0.02875 -0.17625,0.02875"/><path fill="#129612" d="m 25.238,19.544125 c 0,0 0.05,-0.1525 0.04125,-0.41625 -0.0075,-0.265 -0.09625,-0.455 -0.09625,-0.455 0,0 0.0525,-0.08 0.005,-0.34625 -0.04875,-0.26625 -0.1575,-0.37125 -0.1575,-0.37125 0,0 0.01625,0.13375 -0.16375,0.1825 -0.18,0.05 -0.2475,0.14 -0.14,0.23875 0.10875,0.09875 0.17125,0.115 0.17125,0.115 0,0 -0.15625,0.14 -0.3725,0.1125 -0.2175,-0.0275 -0.37375,0.24125 -0.37375,0.24125 0,0 0.15125,0.225 0.40375,0.1425 0.2525,-0.08375 0.3925,0.06625 0.3925,0.06625 0,0 -0.2275,0.14625 -0.13625,0.33875 0.0425,0.09125 0.15,0.0475 0.27,0.0825 0.1175,0.035 0.15625,0.06875 0.15625,0.06875"/><path fill="#129612" d="m 26.8665,19.1925 c 0,0 -0.0175,0.17875 0.05625,0.46875 0.07375,0.28875 0.21625,0.475 0.21625,0.475 0,0 -0.03875,0.1 0.08,0.38125 0.11875,0.28125 0.26125,0.36875 0.26125,0.36875 0,0 -0.04875,-0.1425 0.1375,-0.24 0.185,-0.09875 0.2375,-0.21375 0.095,-0.29625 -0.14375,-0.08125 -0.215,-0.08375 -0.215,-0.08375 0,0 0.13625,-0.1925 0.3825,-0.215 0.24375,-0.0225 0.35,-0.35625 0.35,-0.35625 0,0 -0.22125,-0.21 -0.4775,-0.0575 -0.2575,0.1525 -0.44625,0.0225 -0.44625,0.0225 0,0 0.21125,-0.215 0.065,-0.405 -0.06875,-0.09 -0.17625,-0.015 -0.31625,-0.025 -0.1375,-0.01 -0.18875,-0.0375 -0.18875,-0.0375"/><path fill="#129612" d="m 25.1745,16.471 c 0,0 0.13625,-0.14 0.27125,-0.43625 0.135,-0.295 0.14,-0.55125 0.14,-0.55125 0,0 0.10125,-0.06 0.19125,-0.37875 0.09125,-0.32 0.02875,-0.4925 0.02875,-0.4925 0,0 -0.05375,0.155 -0.28,0.11125 -0.22375,-0.04375 -0.3475,0.02 -0.28125,0.18625 0.065,0.1675 0.125,0.21875 0.125,0.21875 0,0 -0.2475,0.07 -0.47125,-0.0775 -0.2225,-0.14625 -0.54,0.06375 -0.54,0.06375 0,0 0.04375,0.33 0.3675,0.375 0.32125,0.045 0.39375,0.285 0.39375,0.285 0,0 -0.3275,0.0375 -0.3325,0.3 -0.0025,0.12375 0.14125,0.1325 0.25375,0.23625 0.10875,0.10125 0.13375,0.16 0.13375,0.16"/></svg>