<svg xmlns="http://www.w3.org/2000/svg" viewBox="0 0 45 45"><path fill="#A80534" d="M40,6.25h-0.029H5.028H5c-2.761,0-5,2.239-5,5v0.495v21.509v0.496c0,2.761,2.239,5,5,5h0.028h34.944H40 c2.761,0,5-2.239,5-5v-0.495v-21.51V11.25C45,8.489,42.761,6.25,40,6.25"/><path fill="#EEEEEE" d="M16.25,22.5C16.25,22.5,0,10.733,0,11.119v0.501v21.76v0.501C0,34.268,16.25,22.5,16.25,22.5"/><path fill="#EEEEEE" d="M22.5,26.25c0,0-17.879,12.5-17.411,12.5h0.028h34.768h0.029C40.379,38.75,22.5,26.25,22.5,26.25"/><path fill="#EEEEEE" d="M28.75,22.5c0,0,16.25,11.768,16.25,11.381V33.38V11.62v-0.501C45,10.733,28.75,22.5,28.75,22.5"/><path fill="#EEEEEE" d="M22.5,18.75c0,0-17.879-12.5-17.411-12.5h0.028h34.768h0.029C40.379,6.25,22.5,18.75,22.5,18.75"/><path fill="#FFB900" d="M30.938,22.5c0-4.66-3.778-8.438-8.438-8.438s-8.438,3.778-8.438,8.438s3.778,8.438,8.438,8.438 S30.938,27.16,30.938,22.5"/><path fill="#82C1E4" d="M28.881,22.5c0-3.524-2.856-6.38-6.38-6.38s-6.38,2.856-6.38,6.38s2.856,6.38,6.38,6.38 S28.881,26.024,28.881,22.5"/><path fill="#FFE03F" d="M28.857,23.064l-2.752,0.06l2.168,2.098c-1.022,2.162-3.222,3.658-5.772,3.658c-3.524,0-6.38-2.856-6.38-6.38 c0-0.694,0.112-1.364,0.318-1.99l1.874,1.032l3.588-2.17l-2.414-2.496c0.896-0.482,1.924-0.756,3.014-0.756 c0.104,0,0.208,0.002,0.312,0.008l2.77,1.892l1.646,3.292l1.594,0.33c0.038,0.28,0.058,0.566,0.058,0.858 C28.881,22.69,28.872,22.878,28.857,23.064z"/><path fill="#FFFFFF" d="M28.582,20.568l-2.89,1.382l-2.13,0.354l-6.896-2.388c0.112-0.254,0.24-0.498,0.384-0.734l6.404,2.334 l-4.31-4.442c0.444-0.276,0.924-0.498,1.43-0.658l3.184,4.614l-1.246-4.91c0.276,0,0.548,0.018,0.814,0.054l0.84,4.842l0.736-4.428 c0.254,0.102,0.5,0.222,0.738,0.358l-0.982,4.17l2.294-3.186c0.236,0.228,0.452,0.476,0.648,0.738l-2.622,2.728l3.346-1.504 C28.422,20.112,28.51,20.338,28.582,20.568z"/><path fill="#015941" d="M23.539,17.752l-0.26,0.078l0.246,0.232l-0.316-0.03l0.15,0.316l-0.202-0.004l0.064,0.33l-0.296-0.29 l0.088,0.38l-0.284,0.168l-0.054,0.394l-0.192-0.42l-0.008,0.558l-0.95-0.294l-0.404,0.65l-0.108-0.244l-0.134,0.388l-0.038-0.75 l-0.064,0.65l-0.202,0.084l-0.23-0.424l0.162-0.76l-0.148,0.118l-0.232-0.514l-0.162,0.264v-0.676l-0.314-0.174l0.464-0.418 l-0.302-0.038l0.64-0.232l-0.414-0.086h0.526l-0.418-0.332l0.046-0.126c0.716-0.278,1.494-0.43,2.308-0.43 c0.038,0,0.076,0,0.114,0.002l-0.18,0.222l0.384-0.064l-0.134,0.122l0.26,0.084l-0.418,0.062l0.382,0.044l0.118,0.444l0.526,0.178 l-0.114,0.128l0.188,0.114l-0.17,0.246L23.539,17.752z"/><path fill="#015941" d="M27.991,25.752c-1.112,1.874-3.154,3.128-5.49,3.128c-0.3,0-0.594-0.02-0.882-0.062l0.764-0.982l-0.418-0.812 l0.754-1.342l0.858-0.188l2.058-2.224l0.888,0.624l0.466,0.93l0.576-0.166L27.991,25.752z"/><path fill="#015941" d="M17.671,22.548l-1.106,0.794l-0.382,0.038c-0.042-0.288-0.062-0.582-0.062-0.88 c0-1.228,0.346-2.374,0.946-3.346l0.286,0.172l-0.506,1.004L17.671,22.548z"/><path fill="#015941" d="M17.865,24.278l-0.076,0.9l-0.482,0.116h-0.544c-0.166-0.34-0.302-0.698-0.406-1.07l0.064-0.18l0.304,0.642 l0.096-0.878c0,0,0.132,0.738,0.124,0.8c-0.008,0.062,0.37-0.942,0.37-0.942l-0.056,0.966L17.865,24.278z"/><path fill="#7D4802" d="M21.39,19.153 21.285,19.263 21.155,19.59 21.267,19.812 21.486,19.847 21.4,19.633 21.524,19.171 21.608,20.329 21.565,21.988 21.439,23.576 21.935,23.576 21.835,21.271 21.935,19.653 22.112,20.059 22.382,19.524 22.255,18.525 22.094,18.396 21.961,18.553 21.992,19.267 21.565,18.982 22.018,17.753 21.976,17.259 21.547,17.556 21.318,17.994 21.347,17.519 21.062,17.603 20.853,18.053 20.824,17.933 20.596,17.827 20.924,17.459 20.771,17.469 20.282,17.771 20.406,17.788 20.188,18.124 20.509,18.1 20.729,18.541 20.829,18.418 20.824,18.971 21.065,18.924 21.203,18.462 21.471,18.2 21.565,18.306 21.285,18.741 z"/><path fill="#7D4802" d="M22.124,17.514 22.196,18.049 22.398,18.294 22.561,18.153 22.822,18.384 23.012,18.333 22.971,18.102 22.716,17.849 22.501,17.925 22.484,17.58 22.302,17.433 z"/><path fill="#7D4802" d="M21.978,16.512 21.81,16.612 21.624,16.898 21.488,16.776 21.118,16.865 20.945,16.837 20.918,16.863 21.067,16.939 21.285,16.963 21.212,17.022 21.569,16.973 21.6,17.202 21.92,17.022 22,17.159 22.106,16.91 22.568,16.792 22.092,16.753 z"/><path fill="#7D4802" d="M25.189,18.318l0.976-0.6l-1.258-0.284l0.656-0.532c1.076,0.588,1.962,1.478,2.546,2.556h-1.25l0.048-0.116 l-2.024-0.094l2.152-0.448h-1.388l-2.02-0.294L25.189,18.318z"/><path fill="#7D4802" d="M28.782,22.5l-0.43,0.424l-1.012,0.064l-0.806-0.236l-0.488,0.3l-1.04-0.082l-0.842,0.082l-0.576-0.094 l-0.136,0.094l-0.194-0.264l-1.27-0.806l1.394,0.588l0.546,0.054l0.312-1.056l-0.44,0.044l-0.174-0.088L24.17,21.3l0.076-0.606 l-0.452,0.054l0.546-0.724l0.22-0.698l-0.012,0.58l0.114,0.388l0.298-0.058l-0.384,0.384l0.054,0.572l0.476-0.122l-0.588,0.494 l-0.212,1.106l1.172-0.022l0.15-1.084l0.996-0.728l1.77-0.78c0.136,0.326,0.246,0.666,0.326,1.018l-0.32-0.032l-0.342,0.27 l-0.306-0.03l-0.364,0.206l-0.188,0.876l1.452-0.182L27.677,22.5H28.782z"/><path fill="#7D4802" d="M24.424,23.642L21.743,24l-5.468-0.11c-0.04-0.168-0.07-0.338-0.092-0.51l0.382-0.038h3.624L24.424,23.642z"/><path fill="#7D4802" d="M23.577,25.494l-4.042,0.154l0.654,0.81l-1.526,1.138c-0.346-0.26-0.664-0.556-0.952-0.88l1.442-0.642 l-2.04-0.156c-0.128-0.2-0.244-0.408-0.35-0.624h3.062l3.046-0.298l0.83,0.364L23.577,25.494z"/><path fill="#CF7419" d="M19.535,20.571 19.314,21.91 18.255,21.965 17.957,21.545 17.98,21.057 z"/><path fill="#7D4802" d="M19.305,18.954 18.624,19.353 18.518,19.635 18.947,19.782 19.535,20.571 19.159,20.918 17.812,21.076 18.071,19.876 18.265,19.588 18.082,18.947 18.176,18.588 18.759,18.547 z"/><path fill="#DE9C5F" d="M18.947,19.782 19.094,19.596 19.094,19.077 18.624,19.353 18.518,19.635 z"/><path fill="#AF0536" d="M19.831,25.447 19.941,25.847 18.792,26.365 17.671,26.012 17.753,25.58 z"/><path fill="#007CC2" d="M19.314,21.91 18.255,21.965 17.925,23.576 17.753,25.58 18.674,25.847 19.831,25.447 19.706,22.976 z"/><path fill="#AF0536" d="M19.965,21.125 19.404,20.937 18.674,21.076 18.722,21.569 19.514,21.49 19.859,21.569 20.02,21.369 z"/><path fill="#AF0536" d="M20.059,27.141 19.665,27.006 19.831,26.7 20.629,26.529 21.165,25.388 21.494,25.506 21.424,26.071 22.2,26.059 22.501,26.306 21.359,26.894 z"/><path fill="#AF0536" d="M20.594,21.569 20.688,22.5 21.112,22.547 21.083,21.618 z"/></svg>