<svg xmlns="http://www.w3.org/2000/svg" viewBox="0 0 45 45"><path fill="#0033a0" d="M5,38.75c-2.761,0-5-2.239-5-5l0-22.5c0-2.761,2.239-5,5-5l35,0c2.761,0,5,2.239,5,5l0,22.5 c0,2.761-2.239,5-5,5L5,38.75z"/><path fill="#ffffff" d="m 10.993625,13.767125 -0.6,-1.84625 -0.59875,1.84625 h -1.9425 l 1.57125,1.14125 -0.6,1.84625 1.57,-1.14125 1.57125,1.14125 -0.6,-1.84625 1.57,-1.14125 z"/><path fill="#ffa300" d="m 12.675125,17.1155 c -0.69875,0.3075 -1.47,0.4775 -2.28125,0.4775 -0.81125,0 -1.58125,-0.17 -2.27875,-0.47625 l -0.37375,0.85 c 0.8125,0.35625 1.70875,0.555 2.6525,0.555 0.94375,0 1.8425,-0.19875 2.655,-0.555 z"/><path fill="#ffa300" d="m 15.9985,13.124375 c -0.95375,-2.14625 -3.105,-3.6425 -5.605,-3.6425 -2.4975,0 -4.6475,1.495 -5.6025,3.63875 l 1.46875,0.65375 c 0.705,-1.5825 2.29125,-2.685 4.13375,-2.685 1.845,0 3.43125,1.10375 4.13625,2.6875 z"/><path fill="#00843d" d="m 12.712375,21.077875 c -0.165,0.12125 -1.84,0.7025 -2.5625,0.95875 -1.06875,0.3775 -1.32625,0.75 -1.32625,0.75 0,0 -0.0175,0.0175 -0.19375,0.3925 -0.17625,0.37375 -0.16625,0.495 -0.16625,0.495 0,0 0.25375,-0.535 1.22,-1.17375 1.045,-0.69125 2.2775,-0.72 3.735,-1.47375 0.84125,-0.43375 1.155,-0.7675 1.51125,-1.11875 0.17375,-0.17 0.11,-0.38125 0.21375,-0.54375 0.095,-0.15 0.28125,-0.2725 0.4025,-0.455 1.04875,-1.56375 1.0175,-3.1075 1.0175,-3.1075 h -0.08875 c 0,0 0.0275,1.215 -1.0225,3.01125 -0.11375,0.19375 -0.29875,0.3225 -0.395,0.47375 -0.10875,0.175 -0.12875,0.36625 -0.24,0.5025 -0.31875,0.3875 -0.975,0.87625 -1.7325,1.18125 0,0 0.57375,-0.7375 0.8775,-1.35 0.305,-0.6125 0.79,-1.23 0.8975,-1.6625 0.10875,-0.43125 0.01375,-0.57375 0.06875,-1.36 0.055,-0.78625 0.185,-1.4725 0.185,-1.4725 h -0.075 c 0,0 -0.2025,0.78125 -0.25875,1.4575 -0.0625,0.755 0.0125,1.01625 -0.10125,1.40375 -0.2075,0.70875 -0.63125,0.9875 -0.92125,1.54625 -0.3425,0.65875 -0.87125,1.4175 -1.045,1.545"/><path fill="#00843d" d="m 12.242375,20.830125 c -0.1575,0.25 -0.37125,0.4 -0.475,0.335 -0.10375,-0.06625 -0.06,-0.3225 0.0975,-0.5725 0.15875,-0.25125 0.37125,-0.40125 0.47625,-0.335 0.10375,0.065 0.05875,0.32125 -0.09875,0.5725"/><path fill="#00843d" d="m 11.534375,21.257375 c -0.0725,0.24 -0.1975,0.415 -0.2775,0.39125 -0.08125,-0.025 -0.0875,-0.23875 -0.015,-0.48 0.0725,-0.24 0.19625,-0.415 0.2775,-0.39125 0.08,0.025 0.0875,0.24 0.015,0.48"/><path fill="#00843d" d="m 12.431625,22.0215 c -0.1925,-0.16125 -0.30375,-0.345 -0.25,-0.41 0.055,-0.06375 0.25375,0.01375 0.44625,0.17625 0.1925,0.16 0.305,0.34375 0.25,0.40875 -0.05375,0.065 -0.25375,-0.01375 -0.44625,-0.175"/><path fill="#00843d" d="m 13.2995,21.97025 c -0.39,-0.17875 -0.66375,-0.41875 -0.61,-0.53875 0.055,-0.11875 0.41625,-0.07125 0.8075,0.1075 0.39125,0.1775 0.66375,0.41875 0.61,0.5375 -0.055,0.12 -0.41625,0.0725 -0.8075,-0.10625"/><path fill="#00843d" d="m 14.45925,21.845125 c -0.285,-0.1875 -0.4625,-0.42125 -0.39625,-0.52125 0.06625,-0.09875 0.35,-0.02625 0.635,0.16125 0.28375,0.18875 0.4625,0.42125 0.39625,0.52 -0.06625,0.1 -0.35,0.0275 -0.635,-0.16"/><path fill="#00843d" d="m 14.879125,21.19625 c -0.33875,-0.035 -0.60375,-0.16 -0.5925,-0.27875 0.0125,-0.11875 0.29875,-0.18625 0.6375,-0.15 0.34,0.035 0.605,0.16 0.5925,0.2775 -0.0125,0.11875 -0.29875,0.18625 -0.6375,0.15125"/><path fill="#00843d" d="m 12.52625,19.967625 c -0.12125,-0.23125 -0.12125,-0.47 -0.0012,-0.5325 0.12,-0.0625 0.315,0.07375 0.4375,0.30625 0.12,0.23125 0.12125,0.47 0.0012,0.5325 -0.12,0.0625 -0.31625,-0.07375 -0.4375,-0.30625"/><path fill="#00843d" d="m 13.057875,19.588625 c -0.03375,-0.30125 0.04875,-0.55625 0.18375,-0.57125 0.135,-0.015 0.27125,0.2175 0.30375,0.51875 0.03375,0.3 -0.04875,0.55625 -0.18375,0.57125 -0.135,0.01375 -0.27125,-0.2175 -0.30375,-0.51875"/><path fill="#00843d" d="m 13.999,19.658875 c 0.2625,-0.0875 0.51125,-0.055 0.55375,0.07375 0.0425,0.12875 -0.13625,0.30375 -0.39875,0.3925 -0.2625,0.0875 -0.51125,0.055 -0.55375,-0.07375 -0.0425,-0.12875 0.13625,-0.305 0.39875,-0.3925"/><path fill="#00843d" d="m 15.27525,19.971375 c 0.2325,-0.0775 0.455,-0.03625 0.4975,0.0925 0.04375,0.12875 -0.11,0.29625 -0.3425,0.37375 -0.2325,0.0775 -0.45625,0.03625 -0.49875,-0.0925 -0.04375,-0.12875 0.11125,-0.29625 0.34375,-0.37375"/><path fill="#00843d" d="m 15.59875,19.508 c 0.205,-0.0625 0.38375,-0.0725 0.39875,-0.02125 0.01625,0.0525 -0.1375,0.145 -0.3425,0.2075 -0.205,0.06375 -0.3825,0.0725 -0.39875,0.02125 -0.01625,-0.0525 0.1375,-0.145 0.3425,-0.2075"/><path fill="#00843d" d="m 15.592,19.245625 c 0.2,-0.0775 0.37625,-0.1 0.39625,-0.05 0.02,0.05 -0.12625,0.15375 -0.325,0.2325 -0.2,0.0775 -0.3775,0.1 -0.3975,0.05 -0.01875,-0.05 0.12625,-0.155 0.32625,-0.2325"/><path fill="#00843d" d="m 14.677125,19.188875 c -0.0025,-0.21375 0.0375,-0.38875 0.0925,-0.38875 0.05375,-0.0013 0.1,0.1725 0.1025,0.38625 0.0038,0.21375 -0.0375,0.38875 -0.09125,0.38875 -0.05375,0.0012 -0.1,-0.1725 -0.10375,-0.38625"/><path fill="#00843d" d="m 13.691375,19.00025 c -0.045,-0.20875 -0.04,-0.38875 0.01375,-0.4 0.0525,-0.01125 0.1325,0.15 0.1775,0.35875 0.045,0.20875 0.04,0.3875 -0.01375,0.4 -0.0525,0.01 -0.13125,-0.15 -0.1775,-0.35875"/><path fill="#00843d" d="m 13.905625,18.67925 c -0.0725,-0.20125 -0.09,-0.37875 -0.04,-0.3975 0.05125,-0.01875 0.15125,0.13125 0.22375,0.33125 0.07375,0.20125 0.09125,0.38 0.04,0.39875 -0.05125,0.0175 -0.15125,-0.13125 -0.22375,-0.3325"/><path fill="#00843d" d="m 14.3805,17.4915 c -0.11125,-0.1825 -0.165,-0.3525 -0.12,-0.38125 0.04625,-0.0275 0.175,0.0975 0.28625,0.28 0.1125,0.1825 0.16625,0.35375 0.12,0.38125 -0.04625,0.02875 -0.175,-0.0975 -0.28625,-0.28"/><path fill="#00843d" d="m 14.387875,16.860375 c -0.135,-0.16625 -0.21,-0.32875 -0.16875,-0.3625 0.0425,-0.03375 0.18625,0.07375 0.32125,0.24 0.13375,0.16625 0.21,0.32875 0.1675,0.36125 -0.04125,0.03375 -0.185,-0.0725 -0.32,-0.23875"/><path fill="#00843d" d="m 15.15075,17.504875 c 0.1375,-0.16375 0.2925,-0.26 0.345,-0.215 0.0525,0.045 -0.01625,0.21375 -0.15375,0.3775 -0.1375,0.16375 -0.2925,0.26 -0.345,0.215 -0.05375,-0.04375 0.01625,-0.21375 0.15375,-0.3775"/><path fill="#00843d" d="m 15.295375,16.748 c 0.1525,-0.18125 0.32625,-0.285 0.39,-0.23125 0.06125,0.0525 -0.01,0.2425 -0.1625,0.42375 -0.1525,0.18125 -0.32625,0.28375 -0.38875,0.23125 -0.06375,-0.05375 0.0088,-0.2425 0.16125,-0.42375"/><path fill="#00843d" d="m 15.408875,18.220875 c -0.01625,-0.19375 0.015,-0.355 0.0675,-0.35875 0.05375,-0.0038 0.10875,0.15 0.12375,0.34375 0.01625,0.19375 -0.01375,0.35375 -0.0675,0.35875 -0.0525,0.0038 -0.10875,-0.15 -0.12375,-0.34375"/><path fill="#00843d" d="m 16.00525,18.587 c 0.17,-0.02125 0.3125,-0.0063 0.3175,0.0325 0.0038,0.04 -0.13,0.09 -0.3,0.11125 -0.17125,0.02125 -0.3125,0.0062 -0.3175,-0.03375 -0.005,-0.04 0.13,-0.08875 0.3,-0.11"/><path fill="#00843d" d="m 16.496625,18.035875 c 0.2325,-0.2025 0.44875,-0.33375 0.485,-0.2925 0.03625,0.04125 -0.12375,0.24 -0.355,0.4425 -0.2325,0.2025 -0.45,0.3325 -0.485,0.29125 -0.03625,-0.04125 0.1225,-0.23875 0.355,-0.44125"/><path fill="#00843d" d="m 16.477,17.392 c 0.14875,-0.05625 0.285,-0.06125 0.30375,-0.01 0.01875,0.05125 -0.085,0.13875 -0.23375,0.195 -0.1475,0.05625 -0.28375,0.06125 -0.30375,0.01 -0.01875,-0.05125 0.085,-0.13875 0.23375,-0.195"/><path fill="#00843d" d="m 16.055875,17.16975 c 0.0925,0.13 0.11,0.27375 0.04125,0.32375 -0.07,0.04875 -0.20125,-0.01625 -0.29375,-0.145 -0.09125,-0.13 -0.11,-0.275 -0.04,-0.32375 0.06875,-0.05 0.2,0.015 0.2925,0.145"/><path fill="#00843d" d="m 16.322625,16.176125 c 0.0725,0.16125 0.09,0.31125 0.04,0.33375 -0.05,0.0225 -0.15,-0.09125 -0.2225,-0.25375 -0.0725,-0.16125 -0.09,-0.31125 -0.04,-0.3325 0.05,-0.0225 0.15,0.09 0.2225,0.2525"/><path fill="#00843d" d="m 16.852375,16.442875 c -0.1275,0.12375 -0.26,0.1925 -0.29875,0.15375 -0.03875,-0.04 0.0325,-0.1725 0.15875,-0.29625 0.1275,-0.125 0.26125,-0.19375 0.29875,-0.15375 0.03875,0.03875 -0.0325,0.17125 -0.15875,0.29625"/><path fill="#00843d" d="m 15.528625,15.94725 c -0.17125,0.135 -0.33875,0.21 -0.3725,0.1675 -0.03375,-0.04375 0.0775,-0.18875 0.24875,-0.32375 0.17125,-0.13625 0.3375,-0.21125 0.3725,-0.1675 0.03375,0.0425 -0.0775,0.1875 -0.24875,0.32375"/><path fill="#00843d" d="m 15.454125,15.621375 c -0.1875,0.15875 -0.355,0.2675 -0.375,0.245 -0.01875,-0.02375 0.11625,-0.17125 0.30375,-0.33 0.18875,-0.15875 0.35625,-0.26875 0.37625,-0.245 0.01875,0.02375 -0.1175,0.17125 -0.305,0.33"/><path fill="#ffa300" d="m 15.639625,18.87025 c 0,0.18625 -0.15125,0.33875 -0.33875,0.33875 -0.18625,0 -0.3375,-0.1525 -0.3375,-0.33875 0,-0.18625 0.15125,-0.33875 0.3375,-0.33875 0.1875,0 0.33875,0.1525 0.33875,0.33875"/><path fill="#ffa300" d="m 16.3605,17.821 c 0,0.16 -0.13,0.28875 -0.28875,0.28875 -0.16,0 -0.29,-0.12875 -0.29,-0.28875 0,-0.16 0.13,-0.28875 0.29,-0.28875 0.15875,0 0.28875,0.12875 0.28875,0.28875"/><path fill="#ffa300" d="m 16.961,16.81275 c 0,0.13125 -0.1075,0.23875 -0.23875,0.23875 -0.1325,0 -0.24,-0.1075 -0.24,-0.23875 0,-0.1325 0.1075,-0.23875 0.24,-0.23875 0.13125,0 0.23875,0.10625 0.23875,0.23875"/><path fill="#ffa300" d="m 16.89825,15.684875 c 0,0.17875 -0.145,0.32375 -0.32375,0.32375 -0.17875,0 -0.32375,-0.145 -0.32375,-0.32375 0,-0.17875 0.145,-0.32375 0.32375,-0.32375 0.17875,0 0.32375,0.145 0.32375,0.32375"/><path fill="#ffa300" d="m 15.429125,15.086625 c 0,0.18125 -0.1475,0.32875 -0.32875,0.32875 -0.1825,0 -0.32875,-0.1475 -0.32875,-0.32875 0,-0.1825 0.14625,-0.33 0.32875,-0.33 0.18125,0 0.32875,0.1475 0.32875,0.33"/><path fill="#ffa300" d="m 14.674125,15.692125 c 0,0.16625 -0.135,0.30125 -0.30125,0.30125 -0.1675,0 -0.30125,-0.135 -0.30125,-0.30125 0,-0.16625 0.13375,-0.30125 0.30125,-0.30125 0.16625,0 0.30125,0.135 0.30125,0.30125"/><path fill="#ffa300" d="m 15.208125,16.5625 c 0,0.1625 -0.13125,0.29375 -0.29375,0.29375 -0.1625,0 -0.29375,-0.13125 -0.29375,-0.29375 0,-0.1625 0.13125,-0.29375 0.29375,-0.29375 0.1625,0 0.29375,0.13125 0.29375,0.29375"/><path fill="#ffa300" d="m 14.977375,16.367125 c 0,0.1375 -0.11125,0.25 -0.25,0.25 -0.13875,0 -0.25,-0.1125 -0.25,-0.25 0,-0.13875 0.11125,-0.25125 0.25,-0.25125 0.13875,0 0.25,0.1125 0.25,0.25125"/><path fill="#ffa300" d="m 15.483375,17.175875 c 0,0.08375 -0.06875,0.1525 -0.1525,0.1525 -0.08375,0 -0.1525,-0.06875 -0.1525,-0.1525 0,-0.085 0.06875,-0.15375 0.1525,-0.15375 0.08375,0 0.1525,0.06875 0.1525,0.15375"/><path fill="#ffa300" d="m 16.336625,16.763875 c 0,0.08375 -0.06875,0.1525 -0.1525,0.1525 -0.085,0 -0.15375,-0.06875 -0.15375,-0.1525 0,-0.08375 0.06875,-0.1525 0.15375,-0.1525 0.08375,0 0.1525,0.06875 0.1525,0.1525"/><path fill="#ffa300" d="m 16.261625,16.495375 c 0,0.06875 -0.055,0.12375 -0.12375,0.12375 -0.0675,0 -0.1225,-0.055 -0.1225,-0.12375 0,-0.0675 0.055,-0.1225 0.1225,-0.1225 0.06875,0 0.12375,0.055 0.12375,0.1225"/><path fill="#ffa300" d="m 16.17,18.862875 c 0,0.05625 -0.045,0.10125 -0.10125,0.10125 -0.05625,0 -0.10125,-0.045 -0.10125,-0.10125 0,-0.055 0.045,-0.10125 0.10125,-0.10125 0.05625,0 0.10125,0.04625 0.10125,0.10125"/><path fill="#ffa300" d="m 16.1505,18.49425 c 0,0.06125 -0.05,0.11125 -0.11125,0.11125 -0.06125,0 -0.11125,-0.05 -0.11125,-0.11125 0,-0.06125 0.05,-0.11125 0.11125,-0.11125 0.06125,0 0.11125,0.05 0.11125,0.11125"/><path fill="#ffa300" d="m 16.3715,18.48025 c 0,0.0575 -0.0475,0.105 -0.105,0.105 -0.05875,0 -0.105,-0.0475 -0.105,-0.105 0,-0.0575 0.04625,-0.105 0.105,-0.105 0.0575,0 0.105,0.0475 0.105,0.105"/><path fill="#ffa300" d="m 16.434875,18.855625 c 0,0.06625 -0.05375,0.12 -0.12,0.12 -0.06625,0 -0.12,-0.05375 -0.12,-0.12 0,-0.06625 0.05375,-0.12 0.12,-0.12 0.06625,0 0.12,0.05375 0.12,0.12"/><path fill="#ffa300" d="m 16.63275,18.654125 c 0,0.07375 -0.05875,0.1325 -0.1325,0.1325 -0.07375,0 -0.1325,-0.05875 -0.1325,-0.1325 0,-0.07375 0.05875,-0.1325 0.1325,-0.1325 0.07375,0 0.1325,0.05875 0.1325,0.1325"/><path fill="#ffa300" d="m 14.476875,16.85675 c 0,0.08375 -0.06875,0.1525 -0.15375,0.1525 -0.08375,0 -0.1525,-0.06875 -0.1525,-0.1525 0,-0.08375 0.06875,-0.1525 0.1525,-0.1525 0.085,0 0.15375,0.06875 0.15375,0.1525"/><path fill="#ffa300" d="m 14.508625,17.91075 c 0,0.15625 -0.1275,0.285 -0.285,0.285 -0.1575,0 -0.285,-0.12875 -0.285,-0.285 0,-0.1575 0.1275,-0.285 0.285,-0.285 0.1575,0 0.285,0.1275 0.285,0.285"/><path fill="#ffa300" d="m 14.5605,19.067375 c 0,0.13 -0.105,0.23625 -0.23625,0.23625 -0.13125,0 -0.2375,-0.10625 -0.2375,-0.23625 0,-0.13 0.10625,-0.23625 0.2375,-0.23625 0.13125,0 0.23625,0.10625 0.23625,0.23625"/><path fill="#00843d" d="m 8.077375,21.077875 c 0.16375,0.12125 1.83875,0.7025 2.5625,0.95875 1.06875,0.3775 1.32625,0.75 1.32625,0.75 0,0 0.0175,0.0175 0.19375,0.3925 0.17625,0.37375 0.16625,0.495 0.16625,0.495 0,0 -0.25375,-0.535 -1.22,-1.17375 -1.045,-0.69125 -2.27875,-0.72 -3.735,-1.47375 -0.8425,-0.43375 -1.15625,-0.7675 -1.51125,-1.11875 -0.17375,-0.17 -0.11125,-0.38125 -0.21375,-0.54375 -0.095,-0.15 -0.28125,-0.2725 -0.40375,-0.455 -1.04875,-1.56375 -1.01625,-3.1075 -1.01625,-3.1075 h 0.08875 c 0,0 -0.0275,1.215 1.0225,3.01125 0.11375,0.19375 0.29875,0.3225 0.39375,0.47375 0.11,0.175 0.13,0.36625 0.24125,0.5025 0.31875,0.3875 0.975,0.87625 1.7325,1.18125 0,0 -0.575,-0.7375 -0.87875,-1.35 -0.30375,-0.6125 -0.78875,-1.23 -0.89625,-1.6625 -0.10875,-0.43125 -0.01375,-0.57375 -0.06875,-1.36 -0.055,-0.78625 -0.185,-1.4725 -0.185,-1.4725 h 0.07375 c 0,0 0.20375,0.78125 0.26,1.4575 0.0625,0.755 -0.0125,1.01625 0.10125,1.40375 0.2075,0.70875 0.63125,0.9875 0.92125,1.54625 0.3425,0.65875 0.87125,1.4175 1.045,1.545"/><path fill="#00843d" d="m 8.54675,20.830125 c 0.15875,0.25 0.37125,0.4 0.475,0.335 0.10375,-0.06625 0.06125,-0.3225 -0.0975,-0.5725 -0.15875,-0.25125 -0.37125,-0.40125 -0.475,-0.335 -0.105,0.065 -0.06,0.32125 0.0975,0.5725"/><path fill="#00843d" d="m 9.255375,21.257375 c 0.0725,0.24 0.19625,0.415 0.2775,0.39125 0.08125,-0.025 0.0875,-0.23875 0.015,-0.48 -0.0725,-0.24 -0.19625,-0.415 -0.2775,-0.39125 -0.08125,0.025 -0.0875,0.24 -0.015,0.48"/><path fill="#00843d" d="m 8.3575,22.0215 c 0.1925,-0.16125 0.305,-0.345 0.25,-0.41 -0.05375,-0.06375 -0.25375,0.01375 -0.44625,0.17625 -0.1925,0.16 -0.30375,0.34375 -0.25,0.40875 0.055,0.065 0.25375,-0.01375 0.44625,-0.175"/><path fill="#00843d" d="m 7.489625,21.97025 c 0.39125,-0.17875 0.66375,-0.41875 0.61,-0.53875 -0.055,-0.11875 -0.415,-0.07125 -0.80625,0.1075 -0.39125,0.1775 -0.66375,0.41875 -0.61,0.5375 0.05375,0.12 0.415,0.0725 0.80625,-0.10625"/><path fill="#00843d" d="m 6.33,21.845125 c 0.285,-0.1875 0.4625,-0.42125 0.39625,-0.52125 -0.065,-0.09875 -0.34875,-0.02625 -0.63375,0.16125 -0.285,0.18875 -0.4625,0.42125 -0.39625,0.52 0.065,0.1 0.34875,0.0275 0.63375,-0.16"/><path fill="#00843d" d="m 5.910625,21.19625 c 0.33875,-0.035 0.60375,-0.16 0.5925,-0.27875 -0.01375,-0.11875 -0.29875,-0.18625 -0.6375,-0.15 -0.34,0.035 -0.605,0.16 -0.5925,0.2775 0.0125,0.11875 0.29875,0.18625 0.6375,0.15125"/><path fill="#00843d" d="m 8.263,19.967625 c 0.12125,-0.23125 0.1225,-0.47 0.00125,-0.5325 -0.12,-0.0625 -0.315,0.07375 -0.43625,0.30625 -0.12125,0.23125 -0.1225,0.47 -0.0025,0.5325 0.12125,0.0625 0.31625,-0.07375 0.4375,-0.30625"/><path fill="#00843d" d="m 7.731875,19.588625 c 0.0325,-0.30125 -0.05,-0.55625 -0.18375,-0.57125 -0.135,-0.015 -0.27125,0.2175 -0.305,0.51875 -0.0325,0.3 0.05,0.55625 0.185,0.57125 0.135,0.01375 0.27125,-0.2175 0.30375,-0.51875"/><path fill="#00843d" d="m 6.790125,19.658875 c -0.2625,-0.0875 -0.51125,-0.055 -0.55375,0.07375 -0.0425,0.12875 0.13625,0.30375 0.39875,0.3925 0.26375,0.0875 0.51125,0.055 0.55375,-0.07375 0.04375,-0.12875 -0.13625,-0.305 -0.39875,-0.3925"/><path fill="#00843d" d="m 5.5145,19.971375 c -0.2325,-0.0775 -0.45625,-0.03625 -0.49875,0.0925 -0.0425,0.12875 0.11125,0.29625 0.34375,0.37375 0.2325,0.0775 0.45625,0.03625 0.49875,-0.0925 0.0425,-0.12875 -0.11125,-0.29625 -0.34375,-0.37375"/><path fill="#00843d" d="M 5.191,19.508 C 4.986,19.4455 4.80725,19.4355 4.79225,19.48675 c -0.01625,0.0525 0.1375,0.145 0.3425,0.2075 C 5.3385,19.758 5.51725,19.76675 5.5335,19.7155 5.5485,19.663 5.396,19.5705 5.191,19.508"/><path fill="#00843d" d="m 5.19775,19.245625 c -0.2,-0.0775 -0.3775,-0.1 -0.39625,-0.05 -0.02,0.05 0.12625,0.15375 0.325,0.2325 0.2,0.0775 0.3775,0.1 0.39625,0.05 0.02,-0.05 -0.12625,-0.155 -0.325,-0.2325"/><path fill="#00843d" d="m 6.112,19.188875 c 0.00375,-0.21375 -0.0375,-0.38875 -0.09125,-0.38875 -0.05375,-0.0013 -0.1,0.1725 -0.10375,0.38625 -0.00375,0.21375 0.0375,0.38875 0.09125,0.38875 0.05375,0.0012 0.10125,-0.1725 0.10375,-0.38625"/><path fill="#00843d" d="m 7.098375,19.00025 c 0.045,-0.20875 0.03875,-0.38875 -0.01375,-0.4 -0.0525,-0.01125 -0.1325,0.15 -0.1775,0.35875 -0.045,0.20875 -0.04,0.3875 0.0125,0.4 0.05375,0.01 0.1325,-0.15 0.17875,-0.35875"/><path fill="#00843d" d="m 6.8835,18.67975 c 0.07375,-0.20125 0.09125,-0.38 0.04,-0.3975 -0.05125,-0.01875 -0.15125,0.13 -0.22375,0.33125 -0.0725,0.20125 -0.09,0.37875 -0.04,0.3975 C 6.711,19.02975 6.811,18.881 6.8835,18.67975"/><path fill="#00843d" d="M 6.40925,17.4915 C 6.5205,17.309 6.57425,17.139 6.528,17.11025 c -0.045,-0.0275 -0.17375,0.0975 -0.285,0.28 -0.1125,0.1825 -0.16625,0.35375 -0.12,0.38125 0.04625,0.02875 0.17375,-0.0975 0.28625,-0.28"/><path fill="#00843d" d="m 6.402,16.860375 c 0.135,-0.16625 0.21,-0.32875 0.1675,-0.3625 -0.04125,-0.03375 -0.185,0.07375 -0.32,0.24 -0.13375,0.16625 -0.21,0.32875 -0.1675,0.36125 0.04125,0.03375 0.185,-0.0725 0.32,-0.23875"/><path fill="#00843d" d="m 5.639,17.504875 c -0.1375,-0.16375 -0.2925,-0.26 -0.345,-0.215 -0.0525,0.045 0.015,0.21375 0.15375,0.3775 0.1375,0.16375 0.2925,0.26 0.345,0.215 0.05375,-0.04375 -0.01625,-0.21375 -0.15375,-0.3775"/><path fill="#00843d" d="M 5.49375,16.748 C 5.34125,16.56675 5.1675,16.463 5.105,16.51675 c -0.0625,0.0525 0.01,0.2425 0.16125,0.42375 0.1525,0.18125 0.3275,0.28375 0.39,0.23125 0.0625,-0.05375 -0.01,-0.2425 -0.1625,-0.42375"/><path fill="#00843d" d="m 5.380875,18.220875 c 0.01625,-0.19375 -0.015,-0.355 -0.0675,-0.35875 -0.05375,-0.0038 -0.10875,0.15 -0.125,0.34375 -0.015,0.19375 0.015,0.35375 0.06875,0.35875 0.0525,0.0038 0.10875,-0.15 0.12375,-0.34375"/><path fill="#00843d" d="m 4.7845,18.587 c -0.17,-0.02125 -0.3125,-0.0063 -0.3175,0.0325 -0.005,0.04 0.13,0.09 0.3,0.11125 0.17,0.02125 0.3125,0.0062 0.3175,-0.03375 0.005,-0.04 -0.13,-0.08875 -0.3,-0.11"/><path fill="#00843d" d="m 4.29325,18.035875 c -0.2325,-0.2025 -0.44875,-0.33375 -0.485,-0.2925 -0.03625,0.04125 0.12375,0.24 0.355,0.4425 0.2325,0.2025 0.44875,0.3325 0.485,0.29125 0.03625,-0.04125 -0.1225,-0.23875 -0.355,-0.44125"/><path fill="#00843d" d="m 4.312125,17.392 c -0.14875,-0.05625 -0.285,-0.06125 -0.30375,-0.01 -0.01875,0.05125 0.08625,0.13875 0.23375,0.195 0.14875,0.05625 0.28375,0.06125 0.30375,0.01 0.02,-0.05125 -0.085,-0.13875 -0.23375,-0.195"/><path fill="#00843d" d="m 4.733875,17.16975 c -0.0925,0.13 -0.11,0.27375 -0.04125,0.32375 0.07,0.04875 0.20125,-0.01625 0.29375,-0.145 0.09125,-0.13 0.11,-0.275 0.04,-0.32375 -0.07,-0.05 -0.2,0.015 -0.2925,0.145"/><path fill="#00843d" d="m 4.467125,16.176125 c -0.0725,0.16125 -0.09125,0.31125 -0.04,0.33375 0.05,0.0225 0.15,-0.09125 0.2225,-0.25375 0.0725,-0.16125 0.09,-0.31125 0.04,-0.3325 -0.05,-0.0225 -0.15,0.09 -0.2225,0.2525"/><path fill="#00843d" d="m 3.937375,16.442875 c 0.12625,0.12375 0.26,0.1925 0.29875,0.15375 0.03875,-0.04 -0.0325,-0.1725 -0.16,-0.29625 -0.12625,-0.125 -0.26,-0.19375 -0.29875,-0.15375 -0.03875,0.03875 0.0325,0.17125 0.16,0.29625"/><path fill="#00843d" d="m 5.26125,15.94725 c 0.17125,0.135 0.33875,0.21 0.3725,0.1675 C 5.6675,16.071 5.55625,15.926 5.385,15.791 5.2125,15.65475 5.04625,15.57975 5.0125,15.6235 4.97875,15.666 5.09,15.811 5.26125,15.94725"/><path fill="#00843d" d="m 5.335125,15.621375 c 0.1875,0.15875 0.35625,0.2675 0.375,0.245 0.02,-0.02375 -0.11625,-0.17125 -0.30375,-0.33 -0.1875,-0.15875 -0.35625,-0.26875 -0.375,-0.245 -0.02,0.02375 0.11625,0.17125 0.30375,0.33"/><path fill="#ffa300" d="m 5.150125,18.87025 c 0,0.18625 0.15125,0.33875 0.33875,0.33875 0.18625,0 0.3375,-0.1525 0.3375,-0.33875 0,-0.18625 -0.15125,-0.33875 -0.3375,-0.33875 -0.1875,0 -0.33875,0.1525 -0.33875,0.33875"/><path fill="#ffa300" d="m 4.429375,17.821 c 0,0.16 0.13,0.28875 0.28875,0.28875 0.16,0 0.29,-0.12875 0.29,-0.28875 0,-0.16 -0.13,-0.28875 -0.29,-0.28875 -0.15875,0 -0.28875,0.12875 -0.28875,0.28875"/><path fill="#ffa300" d="m 3.82875,16.81275 c 0,0.13125 0.10625,0.23875 0.23875,0.23875 0.1325,0 0.23875,-0.1075 0.23875,-0.23875 0,-0.1325 -0.10625,-0.23875 -0.23875,-0.23875 -0.1325,0 -0.23875,0.10625 -0.23875,0.23875"/><path fill="#ffa300" d="m 3.891,15.684875 c 0,0.17875 0.145,0.32375 0.32375,0.32375 0.17875,0 0.32375,-0.145 0.32375,-0.32375 0,-0.17875 -0.145,-0.32375 -0.32375,-0.32375 -0.17875,0 -0.32375,0.145 -0.32375,0.32375"/><path fill="#ffa300" d="m 5.36075,15.086625 c 0,0.18125 0.1475,0.32875 0.32875,0.32875 0.1825,0 0.32875,-0.1475 0.32875,-0.32875 0,-0.1825 -0.14625,-0.33 -0.32875,-0.33 -0.18125,0 -0.32875,0.1475 -0.32875,0.33"/><path fill="#ffa300" d="m 6.11575,15.692125 c 0,0.16625 0.135,0.30125 0.30125,0.30125 0.16625,0 0.30125,-0.135 0.30125,-0.30125 0,-0.16625 -0.135,-0.30125 -0.30125,-0.30125 -0.16625,0 -0.30125,0.135 -0.30125,0.30125"/><path fill="#ffa300" d="m 5.581,16.5625 c 0,0.1625 0.13125,0.29375 0.29375,0.29375 0.1625,0 0.295,-0.13125 0.295,-0.29375 0,-0.1625 -0.1325,-0.29375 -0.295,-0.29375 -0.1625,0 -0.29375,0.13125 -0.29375,0.29375"/><path fill="#ffa300" d="m 5.81175,16.367125 c 0,0.1375 0.1125,0.25 0.25125,0.25 0.1375,0 0.25,-0.1125 0.25,-0.25 0,-0.13875 -0.1125,-0.25125 -0.25,-0.25125 -0.13875,0 -0.25125,0.1125 -0.25125,0.25125"/><path fill="#ffa300" d="m 5.30575,17.175875 c 0,0.08375 0.06875,0.1525 0.1525,0.1525 0.085,0 0.15375,-0.06875 0.15375,-0.1525 0,-0.085 -0.06875,-0.15375 -0.15375,-0.15375 -0.08375,0 -0.1525,0.06875 -0.1525,0.15375"/><path fill="#ffa300" d="m 4.453125,16.763875 c 0,0.08375 0.06875,0.1525 0.1525,0.1525 0.08375,0 0.1525,-0.06875 0.1525,-0.1525 0,-0.08375 -0.06875,-0.1525 -0.1525,-0.1525 -0.08375,0 -0.1525,0.06875 -0.1525,0.1525"/><path fill="#ffa300" d="m 4.52825,16.495375 c 0,0.06875 0.055,0.12375 0.1225,0.12375 0.06875,0 0.12375,-0.055 0.12375,-0.12375 0,-0.0675 -0.055,-0.1225 -0.12375,-0.1225 -0.0675,0 -0.1225,0.055 -0.1225,0.1225"/><path fill="#ffa300" d="m 4.61975,18.862875 c 0,0.05625 0.045,0.10125 0.10125,0.10125 0.055,0 0.10125,-0.045 0.10125,-0.10125 0,-0.055 -0.04625,-0.10125 -0.10125,-0.10125 -0.05625,0 -0.10125,0.04625 -0.10125,0.10125"/><path fill="#ffa300" d="m 4.63925,18.49425 c 0,0.06125 0.05,0.11125 0.11125,0.11125 0.06125,0 0.11125,-0.05 0.11125,-0.11125 0,-0.06125 -0.05,-0.11125 -0.11125,-0.11125 -0.06125,0 -0.11125,0.05 -0.11125,0.11125"/><path fill="#ffa300" d="m 4.418375,18.48025 c 0,0.0575 0.0475,0.105 0.105,0.105 0.05875,0 0.105,-0.0475 0.105,-0.105 0,-0.0575 -0.04625,-0.105 -0.105,-0.105 -0.0575,0 -0.105,0.0475 -0.105,0.105"/><path fill="#ffa300" d="m 4.354875,18.855625 c 0,0.06625 0.05375,0.12 0.12,0.12 0.06625,0 0.12,-0.05375 0.12,-0.12 0,-0.06625 -0.05375,-0.12 -0.12,-0.12 -0.06625,0 -0.12,0.05375 -0.12,0.12"/><path fill="#ffa300" d="m 4.1565,18.654125 c 0,0.07375 0.06,0.1325 0.1325,0.1325 0.07375,0 0.1325,-0.05875 0.1325,-0.1325 0,-0.07375 -0.05875,-0.1325 -0.1325,-0.1325 -0.0725,0 -0.1325,0.05875 -0.1325,0.1325"/><path fill="#ffa300" d="m 6.312875,16.85675 c 0,0.08375 0.06875,0.1525 0.1525,0.1525 0.085,0 0.15375,-0.06875 0.15375,-0.1525 0,-0.08375 -0.06875,-0.1525 -0.15375,-0.1525 -0.08375,0 -0.1525,0.06875 -0.1525,0.1525"/><path fill="#ffa300" d="m 6.281125,17.91075 c 0,0.15625 0.1275,0.285 0.285,0.285 0.1575,0 0.28375,-0.12875 0.28375,-0.285 0,-0.1575 -0.12625,-0.285 -0.28375,-0.285 -0.1575,0 -0.285,0.1275 -0.285,0.285"/><path fill="#ffa300" d="m 6.228625,19.067375 c 0,0.13 0.10625,0.23625 0.23625,0.23625 0.13125,0 0.2375,-0.10625 0.2375,-0.23625 0,-0.13 -0.10625,-0.23625 -0.2375,-0.23625 -0.13,0 -0.23625,0.10625 -0.23625,0.23625"/></svg>