<svg xmlns="http://www.w3.org/2000/svg" viewBox="0 0 45 45"><path fill="#003477" d="M5,38.75c-2.761,0-5-2.239-5-5v-22.5c0-2.761,2.239-5,5-5h35c2.761,0,5,2.239,5,5v22.5c0,2.761-2.239,5-5,5H5z" /><path fill="#EEEEEE" d="M5,9.75c-0.827,0-1.5,0.673-1.5,1.5v22.5c0,0.827,0.673,1.5,1.5,1.5h35c0.827,0,1.5-0.673,1.5-1.5v-22.5 c0-0.827-0.673-1.5-1.5-1.5H5z"/><path fill="#00894E" d="M29.265,17.154c0,0-0.052,1.11,0.28,2.191 c0.33,1.081,1.146,1.725,1.146,1.725s0.683-0.751,0.522-1.88C31.008,17.735,29.265,17.154,29.265,17.154"/><path fill="#00894E" d="M15.736,17.154c0,0,0.051,1.11-0.28,2.191 c-0.33,1.081-1.146,1.725-1.146,1.725s-0.682-0.751-0.523-1.88C13.993,17.735,15.736,17.154,15.736,17.154"/><path fill="#00894E" d="M28.585,30.508c0,0-1.02,0.275-1.48,0.185 c-0.583-0.111-0.561-0.46-1.191-0.494c-0.445-0.025-1.413,0.131-1.413,0.131s0.53-1.143,2.407-0.863 C27.755,29.595,28.585,30.508,28.585,30.508"/><path fill="#00894E" d="M16.414,30.508c0,0,1.021,0.275,1.481,0.185 c0.583-0.111,0.56-0.46,1.19-0.494c0.446-0.025,1.413,0.131,1.413,0.131s-0.53-1.143-2.407-0.863 C17.245,29.595,16.414,30.508,16.414,30.508"/><path fill="#00894E" d="M28.889,21.897c0,0,0.618-0.589,1.736-0.758 c1.118-0.169,2.081-0.069,2.081-0.069s-0.715,0.723-0.788,1.076c-0.074,0.353,0.155,0.926,0.155,0.926s-0.581-0.316-1.413-0.301 c-0.831,0.015-1.221,0.301-1.221,0.301s0.229-0.544,0.149-0.816C29.507,21.986,28.889,21.897,28.889,21.897"/><path fill="#00894E" d="M16.11,21.897c0,0-0.618-0.589-1.735-0.758 s-2.081-0.069-2.081-0.069s0.714,0.723,0.788,1.076c0.073,0.353-0.155,0.926-0.155,0.926s0.58-0.316,1.413-0.301 c0.83,0.015,1.22,0.301,1.22,0.301s-0.229-0.544-0.148-0.816C15.493,21.986,16.11,21.897,16.11,21.897"/><path fill="#00894E" d="M32.021,23.346c0,0-0.382,1.036-0.3,1.764 c0.08,0.729,0.368,1.441,0.368,1.441s-0.751-0.206-1.17,0s-0.566,0.721-0.566,0.721s-0.691-0.39-0.705-1.14 c-0.015-0.75-0.486-1.771-0.486-1.771s0.669-0.059,0.905-0.273c0.235-0.214,0.413-0.779,0.413-0.779s0.181,0.263,0.669,0.316 C31.552,23.67,32.022,23.346,32.021,23.346"/><path fill="#00894E" d="M12.978,23.346c0,0,0.382,1.036,0.301,1.764 c-0.081,0.729-0.368,1.441-0.368,1.441s0.75-0.206,1.169,0c0.42,0.206,0.566,0.721,0.566,0.721s0.691-0.39,0.706-1.14 s0.485-1.771,0.485-1.771s-0.669-0.059-0.904-0.273c-0.236-0.214-0.413-0.779-0.413-0.779s-0.182,0.263-0.669,0.316 C13.448,23.67,12.978,23.346,12.978,23.346"/><path fill="#00894E" d="M29.103,30.472c0,0,0.066-0.839,0.949-1.001 c0.882-0.161,1.426-0.618,1.426-0.618s-0.654-0.22-0.699-0.499c-0.044-0.28,0.464-0.831,0.464-0.831s-0.821,0.294-1.26,0.051 c-0.438-0.244-0.586-1.206-0.586-1.206s-0.688,0.618-0.811,1.11c-0.122,0.494-1.144,0.81-1.144,0.81s0.75,0.396,1.044,0.889 S29.103,30.472,29.103,30.472"/><path fill="#00894E" d="M15.897,30.472c0,0-0.066-0.839-0.949-1.001 c-0.882-0.161-1.426-0.618-1.426-0.618s0.655-0.22,0.699-0.499c0.044-0.28-0.464-0.831-0.464-0.831s0.821,0.294,1.26,0.051 c0.439-0.244,0.586-1.206,0.586-1.206s0.688,0.618,0.811,1.11c0.122,0.494,1.144,0.81,1.144,0.81s-0.75,0.396-1.044,0.889 S15.897,30.472,15.897,30.472"/><path fill="#FF320F" d="M29.99,28.516c0,0.281-0.304,0.509-0.68,0.509 c-0.376,0-0.68-0.228-0.68-0.509c0-0.281,0.304-0.508,0.68-0.508C29.686,28.009,29.99,28.235,29.99,28.516"/><path fill="#FF320F" d="M15.01,28.516c0,0.281,0.305,0.509,0.68,0.509 c0.376,0,0.68-0.228,0.68-0.509c0-0.281-0.304-0.508-0.68-0.508C15.315,28.009,15.01,28.235,15.01,28.516"/><path fill="#FF320F" d="M31.34,25.012c0,0.305-0.304,0.551-0.679,0.551 s-0.679-0.246-0.679-0.551c0-0.304,0.304-0.551,0.679-0.551S31.34,24.709,31.34,25.012"/><path fill="#FF320F" d="M13.659,25.012c0,0.305,0.304,0.551,0.679,0.551 s0.679-0.246,0.679-0.551c0-0.304-0.304-0.551-0.679-0.551S13.659,24.709,13.659,25.012"/><path fill="#FF320F" d="M31.389,21.539c0,0.259-0.284,0.469-0.634,0.469 c-0.349,0-0.634-0.21-0.634-0.469s0.285-0.469,0.634-0.469C31.105,21.07,31.389,21.28,31.389,21.539"/><path fill="#FF320F" d="M13.61,21.539c0,0.259,0.284,0.469,0.634,0.469 s0.634-0.21,0.634-0.469s-0.284-0.469-0.634-0.469S13.61,21.28,13.61,21.539"/><path fill="#FFB406" d="M22.5,29.709c0,0,0.054-0.123,0.155-0.206 c0.1-0.083,0.22-0.13,0.22-0.13s-0.176-0.1-0.176-0.36s0.164-0.52,0.164-0.52s-0.154-0.165-0.362-0.165s-0.362,0.165-0.362,0.165 s0.164,0.26,0.164,0.52c0,0.26-0.176,0.36-0.176,0.36s0.12,0.048,0.22,0.13C22.446,29.586,22.5,29.709,22.5,29.709"/><path fill="#FFB406" d="M22.5,18.404c0,0,0.026-0.106,0.145-0.271 c0.118-0.166,0.194-0.203,0.194-0.203s-0.144-0.155-0.144-0.416c0-0.261,0.089-0.453,0.089-0.453s-0.044-0.045-0.135-0.199 c-0.093-0.154-0.149-0.284-0.149-0.284s-0.056,0.13-0.149,0.284c-0.091,0.154-0.135,0.199-0.135,0.199s0.089,0.191,0.089,0.453 s-0.144,0.416-0.144,0.416s0.076,0.036,0.194,0.203C22.474,18.298,22.5,18.404,22.5,18.404"/><path fill="#FFB406" d="M23.51,17.215c0,0,0.186,0.084,0.186,0.311 c0,0.229-0.181,0.339-0.335,0.339c-0.155,0-0.344-0.105-0.344-0.449s0.149-1.038,1.516-1.038s1.451,0.885,1.451,1.179 c0,0.295-0.076,0.553-0.364,0.553c-0.286,0-0.345-0.234-0.345-0.348c0-0.25,0.254-0.33,0.254-0.33l-0.126-0.174 c0,0-0.165,0.288-0.299,0.288c-0.108,0-0.138-0.215-0.138-0.215s-0.263-0.389-0.716-0.389C23.831,16.943,23.51,17.215,23.51,17.215" /><path fill="#FFB406" d="M21.49,17.215c0,0-0.186,0.084-0.186,0.311 c0,0.229,0.181,0.339,0.335,0.339c0.155,0,0.344-0.105,0.344-0.449s-0.149-1.038-1.516-1.038s-1.451,0.885-1.451,1.179 c0,0.295,0.076,0.553,0.364,0.553c0.286,0,0.345-0.234,0.345-0.348c0-0.25-0.254-0.33-0.254-0.33l0.128-0.174 c0,0,0.164,0.288,0.296,0.288c0.108,0,0.139-0.215,0.139-0.215s0.261-0.389,0.718-0.389C21.17,16.943,21.49,17.215,21.49,17.215"/><path fill="#FFB406" d="M26.715,17.775c0,0,0.084-0.119,0.084-0.233 c0-0.113-0.076-0.396-0.389-0.396s-0.381,0.274-0.381,0.458c0,0.183,0.12,0.559,0.77,0.781c0.65,0.223,1.056-0.035,1.206-0.221 c0.181-0.223,0.066-0.648-0.294-0.619c-0.478,0.036-0.38,0.459-0.38,0.459s-0.199,0.01-0.355-0.055S26.715,17.775,26.715,17.775"/><path fill="#FFB406" d="M18.285,17.775c0,0-0.084-0.119-0.084-0.233 c0-0.113,0.076-0.396,0.389-0.396s0.381,0.274,0.381,0.458c0,0.183-0.12,0.559-0.77,0.781c-0.65,0.223-1.058-0.035-1.208-0.221 c-0.179-0.223-0.065-0.648,0.295-0.619c0.476,0.036,0.379,0.459,0.379,0.459s0.2,0.01,0.356-0.055S18.285,17.775,18.285,17.775"/><path fill="#FFB406" d="M28.074,18.986c0,0,0.104,0.131,0.103,0.403 c-0.003,0.271-0.041,0.368-0.041,0.368s-0.406-0.093-0.442,0.283c-0.039,0.428,0.593,0.496,0.885,0.076 c0.294-0.42,0.051-1.241-0.181-1.465c-0.233-0.223-0.661-0.394-0.83-0.054c-0.083,0.166,0.026,0.365,0.17,0.425 C27.903,19.091,28.074,18.986,28.074,18.986"/><path fill="#FFB406" d="M16.926,18.986c0,0-0.104,0.131-0.101,0.403 c0.001,0.271,0.041,0.368,0.041,0.368s0.406-0.093,0.441,0.283c0.04,0.428-0.591,0.496-0.885,0.076 c-0.292-0.42-0.051-1.241,0.181-1.465c0.233-0.223,0.663-0.394,0.83-0.054c0.084,0.166-0.026,0.365-0.169,0.425 C17.098,19.091,16.926,18.986,16.926,18.986"/><path fill="#FFB406" d="M28.064,21.197c0,0,0.308,0.09,0.444-0.159 c0.138-0.248,0.03-0.596-0.32-0.596s-0.729,0.354-0.729,1.088c0,0.733,0.265,1.411,0.831,1.411c0.265,0,0.461-0.303,0.335-0.561 c-0.16-0.329-0.507-0.176-0.507-0.176s-0.093-0.228-0.11-0.549C27.99,21.332,28.064,21.197,28.064,21.197"/><path fill="#FFB406" d="M16.935,21.197c0,0-0.306,0.09-0.442-0.159 c-0.138-0.248-0.03-0.596,0.32-0.596c0.349,0,0.729,0.354,0.729,1.088c0,0.733-0.265,1.411-0.831,1.411 c-0.265,0-0.461-0.303-0.335-0.561c0.159-0.329,0.507-0.176,0.507-0.176s0.093-0.228,0.11-0.549 C17.01,21.332,16.935,21.197,16.935,21.197"/><path fill="#FFB406" d="M28.279,23.721c0,0-0.279,0.091-0.434-0.15 c-0.154-0.243-0.025-0.604,0.315-0.604s0.524,0.449,0.6,0.754c0.075,0.305,0.247,1.013-0.095,2.263 c-0.344,1.25-0.952,1.798-1.661,2.133c-0.213,0.1-0.834,0.4-0.834,0.4l0.076,0.15c0,0-0.179,0.071-0.511,0.13 c-0.335,0.058-0.554,0.095-0.554,0.095s0,0.12-0.045,0.233c-0.045,0.111-0.064,0.156-0.094,0.156c-0.029,0-0.323-0.389-0.639-0.546 c-0.461-0.231-0.767,0.05-0.767,0.05s0.063,0.074,0.063,0.213c0,0.136-0.106,0.384-0.38,0.384c-0.275,0-0.391-0.243-0.391-0.39 c0-0.103,0.052-0.184,0.052-0.184s0.017-0.371,0.341-0.524s0.865-0.125,0.865-0.125s0.366,0.14,0.597-0.007 c0.189-0.12,0.224-0.294,0.224-0.294s0.007-0.042,0.136,0.145c0.131,0.185,0.272,0.256,0.479,0.256c0.206,0,0.756-0.281,1.116-0.536 c0.358-0.255,0.92-0.669,0.92-1.409c0-0.739-0.479-0.459-0.479-0.459s-0.069-0.245,0.15-0.368c0.219-0.121,0.421,0.005,0.421,0.005 s0.003-0.188,0.084-0.279c0.079-0.089,0.192-0.093,0.192-0.093s-0.03,0.118-0.02,0.239c0.01,0.12,0.086,0.179,0.086,0.179 s0.336-0.57,0.336-1.163C28.43,23.927,28.279,23.721,28.279,23.721"/><path fill="#FFB406" d="M16.721,23.721c0,0,0.28,0.091,0.434-0.15 c0.154-0.243,0.025-0.604-0.315-0.604c-0.339,0-0.522,0.449-0.599,0.754s-0.249,1.013,0.095,2.263 c0.344,1.25,0.951,1.798,1.661,2.133c0.212,0.1,0.833,0.4,0.833,0.4l-0.076,0.15c0,0,0.179,0.071,0.513,0.13 c0.334,0.058,0.552,0.095,0.552,0.095s0,0.12,0.045,0.233c0.045,0.111,0.065,0.156,0.094,0.156c0.03,0,0.323-0.389,0.639-0.546 c0.461-0.231,0.767,0.05,0.767,0.05s-0.061,0.074-0.061,0.213c0,0.136,0.105,0.384,0.38,0.384c0.274,0,0.39-0.243,0.39-0.39 c0-0.103-0.052-0.184-0.052-0.184s-0.016-0.371-0.34-0.524s-0.866-0.125-0.866-0.125s-0.365,0.14-0.597-0.007 c-0.189-0.12-0.222-0.294-0.222-0.294s-0.007-0.042-0.138,0.145c-0.13,0.185-0.272,0.256-0.479,0.256 c-0.205,0-0.756-0.281-1.115-0.536c-0.358-0.255-0.92-0.669-0.92-1.409c0-0.739,0.479-0.459,0.479-0.459s0.069-0.245-0.151-0.368 c-0.219-0.121-0.421,0.005-0.421,0.005s-0.003-0.188-0.083-0.279c-0.08-0.089-0.192-0.093-0.192-0.093s0.029,0.118,0.019,0.239 c-0.01,0.12-0.086,0.179-0.086,0.179s-0.336-0.57-0.336-1.163C16.569,23.927,16.721,23.721,16.721,23.721"/><path fill="#FF320F" d="M26.908,26.338l-0.218,0.176l0.282,0.325 c0,0-0.164-0.019-0.378,0.055c-0.212,0.075-0.631,0.394-0.866,0.394c-0.237,0-0.163-0.366-0.163-0.366s-0.484,0.174-0.817,0.253 c-0.333,0.078-0.501,0.08-0.501,0.08s-0.111,0.16-0.196,0.346c-0.086,0.186-0.066,0.353-0.27,0.355 c-0.09,0.001-0.594-0.109-0.931-0.241c-0.421-0.166-0.681-0.363-0.681-0.363s-0.125,0.158-0.153,0.323 c-0.031,0.191-0.081,0.269-0.139,0.269c-0.099,0-0.774-0.41-1.241-0.674c-0.48-0.27-0.751-0.403-0.751-0.403s0.07,0.214,0.014,0.383 c-0.058,0.17-0.02,0.334-0.096,0.378c-0.103,0.058-0.599,0.013-0.951-0.086c-0.371-0.104-0.621-0.054-0.621-0.054l0.209-0.328 l-0.194-0.324c0,0,0.236,0.003,0.475,0.052s0.355,0.058,0.355,0.058s0-0.017-0.101-0.115c-0.109-0.105-0.136-0.193-0.136-0.193 s0.025-0.154,0.048-0.283c0.028-0.16-0.006-0.251-0.006-0.251s0.08-0.086,0.356-0.086c0.72,0,1.61,0.6,1.61,0.6 s0.142-0.163,0.181-0.298c0.04-0.135,0.131-0.168,0.202-0.168c0.245,0,1.951,0.908,1.951,0.908s0.058-0.022,0.061-0.154 c0.004-0.131-0.029-0.206,0.022-0.28c0.119-0.174,1.015-0.1,1.596-0.196c0.465-0.078,0.856-0.365,1.146-0.365 c0.096,0,0.155,0.064,0.163,0.124c0.017,0.125,0.061,0.254,0.061,0.254s0.211-0.121,0.416-0.129S26.908,26.338,26.908,26.338"/><path fill="#FF320F" d="M22.5,30.847c-0.101,0-0.199-0.075-0.199-0.075 s-0.192,0.146-0.391,0.333c-0.209,0.195-0.359,0.25-0.597,0.25c-0.424,0-1.224-0.058-1.754-0.058c-0.189,0-0.321,0.049-0.321,0.049 l0.273-0.343l-0.214-0.168c0,0,1.003-0.098,1.316-0.04c0.419,0.075,0.625,0.015,0.625,0.015s-0.521-0.193-0.571-0.326 c-0.036-0.1-0.019-0.163-0.029-0.316c-0.01-0.155-0.038-0.26-0.038-0.26s0.282-0.438,0.749-0.438c0.289,0,0.929,0.663,0.929,0.663 s0.141-0.061,0.222-0.061s0.222,0.061,0.222,0.061s0.64-0.663,0.93-0.663c0.465,0,0.747,0.438,0.747,0.438s-0.028,0.105-0.038,0.26 c-0.01,0.154,0.006,0.216-0.029,0.316c-0.049,0.134-0.571,0.326-0.571,0.326s0.206,0.06,0.625-0.015 c0.314-0.058,1.316,0.04,1.316,0.04l-0.212,0.168l0.27,0.343c0,0-0.131-0.049-0.32-0.049c-0.529,0-1.33,0.058-1.754,0.058 c-0.237,0-0.389-0.055-0.597-0.25c-0.199-0.186-0.391-0.333-0.391-0.333S22.601,30.847,22.5,30.847"/><path fill="#FF320F" d="M22.5,15.497c-2.645,0-7.066,1.393-7.066,1.393 s-0.219,0.051-0.373,0.029c-0.24-0.034-0.358-0.873-0.358-0.873s-0.515,0.173-1.51,0.441c-0.995,0.27-1.48,0.294-1.48,0.294 l0.69-0.995l-1.024-0.896c0,0,0.26,0.073,0.623,0.024c0.267-0.035,0.564-0.16,1-0.319c1.025-0.373,2.309-0.671,2.539-0.671 c0.231,0,0.259,0.069,0.259,0.069l0.207,0.77c0,0,2.485-1.149,6.493-1.149s6.493,1.149,6.493,1.149l0.208-0.77 c0,0,0.029-0.069,0.257-0.069c0.231,0,1.515,0.299,2.54,0.671c0.436,0.159,0.732,0.284,1,0.319c0.362,0.049,0.623-0.024,0.623-0.024 l-1.025,0.896l0.693,0.995c0,0-0.486-0.024-1.481-0.294c-0.995-0.269-1.51-0.441-1.51-0.441s-0.116,0.839-0.358,0.873 c-0.155,0.022-0.372-0.029-0.372-0.029S25.144,15.497,22.5,15.497"/><path fill="#00894E" d="M23.027,25.782c1.816,0,1.993-0.43,1.993-0.43 s0.801-0.176,1.016-0.354c0.216-0.178,0.109-0.559,0.109-0.559s0.696-0.324,0.98-0.794c0.285-0.471,0.079-0.735,0.079-0.735 l-9.02,0.588c0,0-0.026,0.956,2.15,1.896C22.51,26.335,23.027,25.782,23.027,25.782"/><path fill="#AF5937" d="M27.203,22.91l-0.064-0.483l-2.824-0.464 c0,0-0.029-0.309-0.25-0.655c-0.221-0.345-0.036-0.926-0.036-0.926s-0.442-0.118-0.603-0.264c-0.163-0.148-1.03-0.178-1.618,0 c-0.589,0.176-0.619,0.345-0.56,0.786s-0.014,0.838,0.493,1.324c0.507,0.485-0.618,0.419-0.618,0.985 c0,0.118,1.361,0.684,1.699,0.684C23.162,23.897,27.203,22.91,27.203,22.91"/><path fill="#E7CC00" d="M18.868,24.831c0,0-0.485-0.154-0.757-0.699 c-0.272-0.544-0.353-0.978-0.353-0.978s0.493-0.294,0.632-0.551c0.139-0.258,1.309,0,1.309,0s-0.324-1.125,0-1.684 c0.323-0.559,0.212-0.926,0.212-0.926l-0.743,0.721l-0.221-0.148c0,0,0.581-0.523,0.663-0.986c0.081-0.463,0.455-0.646,0.455-0.646 s0.075,0.161,0.42,0.161s0.464-0.228,0.464-0.228s0.536,0.508,0.529,1.089c-0.006,0.453-0.464,0.294-0.464,0.294 s0.192,0.845,0.111,1.103s-0.507,0.235-0.507,0.235s-0.059,0.176-0.044,0.861c0.014,0.684-0.163,1.199-0.163,1.199l-1.117-0.25 c0,0-0.309,0.279-0.368,0.625C18.868,24.368,18.868,24.831,18.868,24.831"/></svg>