<svg xmlns="http://www.w3.org/2000/svg" viewBox="0 0 45 45"><path fill="#eeeeee" d="M 45.000125,32.64625 0,38.7495 v -32.5 l 45.000125,6.102625 -10.3705,10.147375 z"/><path fill="#001c5a" d="M 0,6.2495 V 38.74825 L 27.67375,22.4995 Z"/><path fill="#eeeeee" d="m 14.660625,22.4995 c 0,3.01875 -2.4475,5.46625 -5.46625,5.46625 -3.02,0 -5.4675,-2.4475 -5.4675,-5.46625 0,-3.02 2.4475,-5.4675 5.4675,-5.4675 3.01875,0 5.46625,2.4475 5.46625,5.4675"/><path fill="#c1133d" d="m 12.84175,22.4995 c 0,2.01375 -1.63375,3.6475 -3.6475,3.6475 -2.015,0 -3.6475,-1.63375 -3.6475,-3.6475 0,-2.01375 1.6325,-3.6475 3.6475,-3.6475 2.01375,0 3.6475,1.63375 3.6475,3.6475"/><path fill="#ffffff" d="m 9.95725,30.10325 -0.65625,-0.5225 0.29375,-0.785 -0.7,0.4625 L 8.23975,28.737 8.4635,29.5445 7.76475,30.007 8.60225,30.04325 8.826,30.852 9.11975,30.067 Z"/><path fill="#ffffff" d="m 9.119875,14.932375 -0.29375,-0.785 -0.22375,0.8075 -0.8375,0.03625 0.69875,0.4625 -0.22375,0.80875 0.655,-0.5225 0.7,0.46375 -0.29375,-0.78625 0.65625,-0.52125 z"/><path fill="#ffffff" d="m 2.0605,19.759 0.76125,-0.35125 0.56875,0.615 -0.0975,-0.8325 0.76125,-0.35 L 3.23175,18.6765 3.133,17.844 2.723,18.57525 1.90175,18.4115 2.4705,19.02775 Z"/><path fill="#ffffff" d="m 1.63025,23.585875 0.49375,-0.6775 0.79625,0.25875 -0.49125,-0.6775 0.4925,-0.6775 -0.79625,0.2575 -0.49375,-0.67875 v 0.83875 l -0.7975,0.2575 0.79625,0.26 z"/><path fill="#ffffff" d="m 16.7645,22.74725 0.79625,-0.26 -0.79625,-0.25875 -0.0013,-0.8375 -0.4925,0.67875 -0.7975,-0.25875 0.49375,0.6775 -0.4925,0.67875 0.7975,-0.26 0.4925,0.67875 z"/><path fill="#ffffff" d="m 24.049125,22.74725 0.7975,-0.26 -0.79875,-0.25875 V 21.391 l -0.4925,0.67875 -0.7975,-0.25875 0.49375,0.6775 -0.4925,0.67875 0.79625,-0.26 0.495,0.67875 z"/><path fill="#ffffff" d="m 20.295375,20.832 0.74,-0.39375 -0.83125,-0.11625 -0.14625,-0.825 -0.36625,0.75375 -0.83,-0.11625 0.6025,0.58125 -0.36625,0.75375 0.74,-0.39375 0.60375,0.58125 z"/><path fill="#ffffff" d="m 20.205125,24.654 0.83,-0.1175 -0.74,-0.3925 0.14375,-0.825 -0.60125,0.58125 -0.74125,-0.39125 0.36875,0.75375 -0.6025,0.58125 0.83,-0.11625 0.3675,0.7525 z"/><path fill="#ffffff" d="m 3.120125,27.13575 0.1,-0.83125 0.8225,-0.1625 -0.76,-0.3525 0.1,-0.83125 -0.57,0.61375 -0.76,-0.3525 0.4075,0.7325 -0.57,0.61375 0.82125,-0.16125 z"/><path fill="#ffffff" d="m 6.152375,29.51 -0.31875,-0.77625 0.64,-0.5425 -0.83625,0.06375 -0.31875,-0.775 -0.1975,0.81375 -0.83625,0.0625 0.71375,0.44125 -0.19875,0.81375 0.63875,-0.5425 z"/><path fill="#ffffff" d="m 12.81925,15.857 0.12625,-0.82875 -0.58875,0.59625 -0.75,-0.37625 0.385,0.74375 -0.58875,0.59625 0.82625,-0.135 0.385,0.745 0.1275,-0.82875 0.82625,-0.13625 z"/><path fill="#ffffff" d="m 13.568125,28.765375 -0.8275,-0.135 -0.12625,-0.82875 -0.385,0.74375 -0.82625,-0.135 0.58875,0.595 -0.385,0.74625 0.74875,-0.3775 0.59,0.59625 -0.12625,-0.8275 z"/><path fill="#ffffff" d="m 5.438875,15.929625 -0.63875,-0.5425 0.1975,0.815 -0.7125,0.44 0.83625,0.06375 0.1975,0.81375 0.31875,-0.77625 0.83625,0.06375 -0.64,-0.5425 0.31875,-0.77625 z"/><path fill="#ffffff" d="m 1.962875,13.907625 -0.72125,-0.42625 0.3325,0.76875 -0.6275,0.555 0.83375,-0.07875 0.33375,0.76875 0.1825,-0.8175 0.83375,-0.08 -0.72125,-0.42625 0.1825,-0.8175 z"/><path fill="#ffffff" d="m 5.22525,11.998375 -0.53875,-0.6425 0.05875,0.83625 -0.7775,0.315 0.81375,0.2025 0.05875,0.83625 0.44375,-0.71125 0.81375,0.2025 -0.53875,-0.6425 0.44375,-0.71 z"/><path fill="#ffffff" d="m 2.592125,31.64625 -0.1825,-0.81875 0.72125,-0.42625 -0.835,-0.08 -0.1825,-0.8175 -0.3325,0.76875 -0.835,-0.07875 0.62875,0.555 -0.33375,0.76875 0.7225,-0.42625 z"/><path fill="#ffffff" d="m 6.00225,33.314875 -0.44375,-0.71125 0.53875,-0.64125 -0.81375,0.2025 -0.44375,-0.71125 -0.05875,0.83625 -0.8125,0.2025 0.77625,0.31375 -0.05875,0.83625 0.53875,-0.64125 z"/><path fill="#c1133d" d="M 9.081375,33.41625 1.25e-4,38.75 l 45,-6.10375 -3.67,-3.59 z"/><path fill="#c1133d" d="m 27.673375,22.4995 -3.49125,2.05 12.5125,-0.03125 -2.065,-2.01875 2.065,-2.02 -12.5125,-0.03 z"/><path fill="#c1133d" d="m 9.081375,11.582125 -9.08125,-5.3325 45,6.1025 -3.67,3.59125 z"/></svg>