<svg xmlns="http://www.w3.org/2000/svg" viewBox="0 0 45 45"><path fill="#002664" d="m 40,38.75 c 2.76125,0 5,-2.23875 5,-5 v -22.5 c 0,-2.76125 -2.23875,-5 -5,-5 H 5 c -2.76125,0 -5,2.23875 -5,5 v 22.5 c 0,2.76125 2.23875,5 5,5 z"/><path fill="#000000" d="M 17.98525,27.1985 18.0665,28.141 19.024,28.15475 18.50525,27.2485 Z"/><path fill="#000000" d="m 17.08075,27.242375 v 0.88375 l -1.04375,-0.0125 0.02875,-0.23875 0.29,-0.265 0.04875,-0.3675 z"/><path fill="#6f513e" d="m 17.916875,26.9165 -0.7325,-3.02 -0.11125,2.24375 0.11125,0.78375 -0.04875,0.31875 h -0.97125 V 26.939 l 0.0875,-0.015 0.025,-0.78875 -0.20125,-1.035 0.025,-0.715 -0.17125,-0.82 -0.035,-1.2 0.05875,-0.30375 0.85875,0.03375 0.30875,-0.1525 0.705,0.075 0.18625,0.7 0.245,0.60375 0.21125,-2.1425 0.1425,-0.05375 0.255,0.0925 -0.06375,0.11875 -0.44125,4.51375 0.20625,1.3925 -0.28,0.02375 -0.30125,-0.0675 -0.385,0.935 h -0.22125 z"/><path fill="#ffd1d1" d="m 15.393625,20.768375 0.055,0.21625 0.26875,0.43125 0.1725,0.38625 0.06375,0.25875 -0.05625,0.28875 -0.17625,0.06875 -0.09625,-0.0725 0.1,-0.12125 -0.10875,-0.23 -0.1775,-0.35125 -0.365,-0.39375 -0.29375,-0.68375 0.1725,-0.12125 0.35625,0.04375 z"/><path fill="#ffffff" d="m 14.6435,22.808875 0.61,-0.55875 0.63625,-0.44875 0.06375,0.26 0.8575,0.03375 0.30875,-0.15125 0.70625,0.07375 0.1375,-0.21625 -0.1625,-0.6175 0.65625,0.10375 0.01125,-0.10875 0.14125,-0.05375 0.255,0.09375 -0.215,-0.8 -0.31875,-0.625 -0.17,-0.2575 -0.64625,-0.13875 -0.1175,0.0875 0.13625,0.33125 -0.43125,0.67625 c 0,0 -0.2825,-0.63625 -0.2825,-0.6475 0,-0.01 -0.17625,-0.30875 -0.17625,-0.30875 l 0.04375,-0.125 -0.0175,-0.1025 -0.7875,0.19875 -0.3425,0.2725 -0.63625,0.235 -0.165,0.23125 0.04125,0.32 0.1725,-0.12125 0.35625,0.04375 0.085,0.28 0.26125,0.05875 0.26125,-0.15125 -0.045,0.61375 -0.5875,0.48 -0.51125,0.62 z"/><path fill="#ffd1d1" d="m 17.496375,20.51825 0.055,0.19875 -0.4,0.275 0.0475,0.17 -0.14375,0.04 -0.165,-0.085 -0.12875,-0.01375 -0.1475,-0.26125 0.2725,-0.305 z"/><path fill="#ffd1d1" d="m 17.102625,20.4925 0.43,-0.67625 -0.13625,-0.33125 -0.29375,0.05125 -0.415,-0.125 -0.04375,0.125 0.17625,0.30875 z"/><path fill="#ffe84f" d="m 17.550625,18.87875 0.27,-0.13625 0.1475,-0.3575 -0.1325,-0.34375 -0.285,-0.32875 -0.13625,-0.05375 -0.1625,0.035 -0.0925,-0.1225 -0.235,0.04875 -0.34375,0.19125 -0.01625,0.23 -0.29625,0.12125 -0.21375,0.23625 -0.06625,0.4075 0.2425,0.18125 0.27875,0.04875 z"/><path fill="#ffd1d1" d="m 17.556125,18.7915 v -0.27125 l -0.28625,-0.22375 h -0.385 l -0.1525,0.16625 -0.1025,0.37875 0.19375,0.48 0.30625,0.05375 0.25,-0.05875 z"/><path fill="#000000" d="m 17.514625,19.397 -0.1175,0.08875 -0.295,0.05125 -0.415,-0.125 -0.04,-0.2825 -0.1375,-0.0925 -0.04125,-0.29875 0.16875,-0.32875 0.2475,-0.1125 -0.15125,0.16625 -0.10375,0.3775 0.1425,0.2225 0.05125,0.2575 0.30625,0.05375 0.25,-0.0575 0.02,-0.4375 0.15625,-0.0875 z"/><path fill="#9ed9ff" d="m 22.2565,32.315625 c -1.11,0 -2.6075,-0.4725 -3.4525,-0.8375 -1.315,-0.57 -1.71125,-1.125 -1.71125,-1.125 l 0.09125,-0.18375 -1.36125,-0.045 c 0,0 0.015,0.19875 -0.16,0.25 -0.1375,0.04 -0.28125,-0.0875 -0.28125,-0.0875 0,0 -0.47875,-1.66875 -0.47875,-1.82375 0,-0.15375 0.1825,-0.3525 0.67625,-0.3525 0.495,0 3.445,0.04375 3.445,0.04375 l -0.28875,0.7725 c 0,0 1.76,1.1825 3.52125,1.1825 1.76125,0 3.52125,-1.1825 3.52125,-1.1825 l -0.29,-0.7725 c 0,0 2.95125,-0.04375 3.445,-0.04375 0.495,0 0.6775,0.19875 0.6775,0.3525 0,0.155 -0.47875,1.82375 -0.47875,1.82375 0,0 -0.14375,0.1275 -0.28125,0.0875 -0.17625,-0.05125 -0.16,-0.25 -0.16,-0.25 l -1.36125,0.045 0.09125,0.18375 c 0,0 -0.39625,0.555 -1.71125,1.125 -0.845,0.365 -2.3425,0.8375 -3.4525,0.8375"/><path fill="#9ed9ff" d="m 25.787375,20.520625 -0.78,2.14375 -5.37625,-0.165 -0.88875,-1.97875 c 0,0 0.4675,0.13875 0.89,-0.16 0.54375,-0.385 0.41875,-1.155 2.6325,-1.155 2.2125,0 2.18125,0.765 2.735,1.1325 0.49,0.325 0.7875,0.1825 0.7875,0.1825"/><path fill="#ffffff" d="m 25.007375,22.664125 c 0,0 -0.6375,-0.0775 -0.53,-0.45125 0.10875,-0.3725 -0.225,-0.39125 -0.39125,-0.6175 -0.16625,-0.225 -0.31375,-0.215 -0.04875,-0.3525 0.265,-0.1375 0.11625,-0.225 -0.1875,-0.30375 -0.30375,-0.07875 -0.1075,-0.31375 -0.44,-0.285 -0.33375,0.03 0.0087,-0.235 -0.30375,-0.215 -0.31375,0.01875 -0.19625,-0.3825 -0.805,-0.32375 -0.6075,0.05875 -0.54875,0.1275 -0.8125,0.3425 -0.265,0.21625 -0.98125,0.4125 -0.99125,0.5 -0.01,0.08875 0.55,0.1175 0.20625,0.24625 -0.34375,0.1275 0.1275,0.3625 -0.1275,0.45 -0.255,0.08875 -0.17625,0.3925 -0.3925,0.46125 -0.215,0.06875 -0.03875,0.13625 -0.18625,0.18625 -0.14625,0.04875 -0.6275,0.3625 -0.6275,0.3625 l 1.4025,0.755 h 4.235 z"/><path fill="#36e218" d="m 25.105,23.00725 c 0,0 -0.48,-0.0975 -0.59875,-0.275 -0.11625,-0.17625 -0.5375,0.5 -0.5375,0.5 l -2.775,-0.04875 c 0,0 -0.99,-1.07875 -0.775,-0.42125 0.21625,0.6575 -0.42125,-0.48 -0.53875,-0.31375 -0.1175,0.1675 -0.43125,-0.18625 -0.43125,-0.18625 0,0 0.0875,0.8725 -0.30375,1.18625 -0.3925,0.31375 -0.48125,2.17625 -0.48125,2.17625 L 18.9975,26.036 h 6.725 c 0,0 0.30375,-2.195 -0.0875,-2.45125 -0.3925,-0.25375 -0.53,-0.5775 -0.53,-0.5775"/><path fill="#e2ffb3" d="m 25.722625,26.036375 c 0,0 -0.725,-0.42125 -1.78375,-0.24375 -1.05875,0.175 -1.16625,-0.12875 -2.07875,0.03875 -0.91125,0.16625 -0.8925,-0.21375 -1.6375,-0.0825 -0.745,0.13125 -1.55875,-0.12375 -1.55875,-0.12375 l 0.3925,2.30375 6.4225,-0.02875 z"/><path fill="#9ed9ff" d="m 24.683875,27.757625 -4.8675,0.0875 c 0,0 -0.24375,0.84375 0.79375,1.25 0.6175,0.2425 1.64375,-0.0725 1.64375,-0.0725 0,0 1.13625,0.315 1.65,0.11625 1.05125,-0.4025 0.78,-1.38125 0.78,-1.38125"/><path fill="#6f513e" d="m 22.73925,27.025125 c 0,0.045 0.38625,0.01625 0.59875,-0.01875 0.2125,-0.0325 0.3275,0.075 0.50375,-0.0175 0.17625,-0.0925 0.03625,-0.34625 -0.16875,-0.60375 -0.20625,-0.25625 -0.76125,-0.39625 -1.26125,-0.415 -0.5,-0.0175 -1.07,-0.37125 -1.195,-0.37125 -0.06125,0 -0.0875,0.06 -0.2275,0.14375 -0.14625,0.08625 -0.40875,0.195 -0.4225,0.235 -0.015,0.04 0.0038,0.185 0.095,0.185 0.0925,0 0.23125,-0.14875 0.23125,-0.14875 0,0 0.1475,0.155 0.28375,0.1625 0.135,0.0075 0.16875,-0.1175 0.2125,-0.08875 0.045,0.03 -0.06625,0.15125 -0.055,0.235 0.01125,0.08625 0.155,0.18875 0.1625,0.27625 0.0075,0.0875 -0.04875,0.16625 -0.29125,0.17 -0.2425,0.0038 -0.3675,0.0225 -0.3675,0.09125 0,0.07 0.57375,0.11375 0.88625,0.055 0.3125,-0.05875 0.4525,-0.21375 0.4525,-0.21375 0,0 0.27875,0 0.57,0.15125 0.1075,0.05625 0.25,0.0475 0.25,0.0475 0,0 -0.2575,0.05875 -0.2575,0.125"/><path fill="#ffe84f" d="m 22.478,25.347875 c 0,0 -0.485,0.2725 -1.07875,0.2725 -0.5925,0 -0.91625,-0.3525 -0.91625,-0.3525 0,0 0.6025,0.22 0.66625,0.175 0.03125,-0.02 0.025,-0.18 0.025,-0.18 0,0 0.05625,0.11 0.1225,0.11 0.06625,0 0.11,-0.07375 0.11,-0.07375 0,0 -0.0225,0.1225 0.0025,0.14375 0.1375,0.11875 0.7525,-0.29375 0.7525,-0.29375 0,0 -0.08125,0.14125 0.03875,0.16 0.055,0.0088 0.18125,-0.11 0.18125,-0.11 0,0 -0.035,0.0775 -0.01875,0.1125 0.0175,0.03875 0.115,0.03625 0.115,0.03625"/><path fill="#3e6f3e" d="m 22.439,24.919375 c 1.51,0 1.84375,-0.285 1.8625,-0.49125 0.02,-0.205 0.3525,-0.47 0.225,-0.6175 -0.1275,-0.14625 -0.42125,0.31375 -0.42125,-0.3325 0,-0.6475 0.06875,-0.8625 -0.265,-0.84375 -0.33375,0.02 -0.57875,-0.055 -0.16625,-0.135 0.41125,-0.08 0.07875,-0.365 -0.17625,-0.37375 -0.255,-0.01 -0.03,-0.1975 0,-0.34375 0.02875,-0.1475 -0.57875,0.1175 -0.30375,-0.245 0.27375,-0.3625 0.1275,-0.4125 -0.05,-0.3625 -0.17625,0.04875 -0.3225,0.01 -0.15625,-0.245 0.16625,-0.255 -0.52,0.02875 -0.4125,-0.18625 0.10875,-0.21625 -0.25375,-0.52 -0.25375,-0.52 0,0 -0.34375,0.18625 -0.265,0.3725 0.07875,0.18625 0.1075,0.3725 -0.16625,0.1375 -0.275,-0.23625 -0.4025,0.16625 -0.1775,0.27375 0.22625,0.10875 0.31375,0.48125 0.09875,0.265 -0.21625,-0.215 -0.5,-0.265 -0.5,-0.0775 0,0.185 0.40125,0.3425 0.3725,0.43 -0.02875,0.08875 -0.30375,-0.12625 -0.30375,0.04 0,0.16625 0.3625,0.26375 0.18625,0.33375 -0.17625,0.0675 -0.295,-0.4325 -0.46125,-0.19625 -0.16625,0.235 0.29375,0.32375 0.22625,0.5 -0.06875,0.17625 -0.48625,-0.0125 -0.53,0.05875 -0.1575,0.255 0.44125,0.43125 0.3525,0.52875 -0.13,0.145 -0.53875,-0.14625 -0.55875,0.05875 -0.01875,0.20625 0.1575,0.37375 0.06875,0.48125 -0.0875,0.1075 -0.29375,-0.1375 -0.32375,0.11625 -0.02875,0.255 0.36375,0.1675 0.21625,0.54 -0.1475,0.3725 -0.2,0.03875 -0.2175,0.19625 -0.0175,0.15625 -0.145,0.6375 2.1,0.6375"/><path fill="#ffe84f" d="m 22.279,18.595625 c -0.16125,0 -0.22,0.0925 -0.22,0.0925 0,0 -0.10375,-0.03 -0.17625,0.0325 -0.07375,0.0625 -0.04125,0.16875 -0.04125,0.16875 0,0 -0.06,0.025 -0.09625,0.07125 -0.0375,0.0475 -0.0425,0.15875 -0.0425,0.15875 0,0 -0.72,-0.28875 -1.44125,0.4125 -0.72,0.70125 -1.0925,0.91625 -1.0925,0.91625 0,0 0.15625,-0.18625 -0.03,-0.30875 -0.18625,-0.1225 -0.45625,-0.06 -0.49,0.28 -0.05375,0.54375 0.45125,1.23 0.45125,1.23 0,0 -0.05125,-0.03375 -0.13,-0.04625 -0.0775,-0.01125 -0.1225,0.04625 -0.1225,0.04625 0,0 -0.0625,-0.0375 -0.14625,-0.03625 -0.085,0.0025 -0.11625,0.03625 -0.11625,0.03625 0,0 0.30375,0.32125 0.5375,0.755 0.235,0.43375 0.07875,0.855 -0.1975,0.9775 -0.275,0.12 -0.34,-0.0225 -0.34,-0.0225 0,0 0.175,0.05125 0.215,-0.115 0.04125,-0.16625 -0.24875,-0.41875 -0.4175,-0.155 -0.2675,0.42 0.25,0.655 0.25,0.655 0,0 -0.46375,0.4275 -0.56375,1.29625 -0.09875,0.8675 0.4525,2.26875 1.0025,3.00625 1.29875,1.745 2.66125,1.21625 2.66125,1.21625 0,0 0.17875,0.3275 0.54625,0.3275 0.3675,0 0.54625,-0.3275 0.54625,-0.3275 0,0 1.3625,0.52875 2.6625,-1.21625 0.54875,-0.7375 1.1,-2.13875 1.00125,-3.00625 -0.1,-0.86875 -0.56375,-1.29625 -0.56375,-1.29625 0,0 0.5175,-0.235 0.25,-0.655 -0.16875,-0.26375 -0.45875,-0.01125 -0.4175,0.155 0.04,0.16625 0.215,0.115 0.215,0.115 0,0 -0.065,0.1425 -0.34,0.0225 -0.275,-0.1225 -0.43125,-0.54375 -0.1975,-0.9775 0.235,-0.43375 0.5375,-0.755 0.5375,-0.755 0,0 -0.03125,-0.03375 -0.11625,-0.03625 -0.0825,-0.0013 -0.14625,0.03625 -0.14625,0.03625 0,0 -0.04375,-0.0575 -0.1225,-0.04625 -0.0775,0.0125 -0.13,0.04625 -0.13,0.04625 0,0 0.505,-0.68625 0.45125,-1.23 -0.03375,-0.34 -0.30375,-0.4025 -0.49,-0.28 -0.18625,0.1225 -0.03,0.30875 -0.03,0.30875 0,0 -0.3725,-0.215 -1.0925,-0.91625 -0.72125,-0.70125 -1.44125,-0.4125 -1.44125,-0.4125 0,0 -0.005,-0.11125 -0.04125,-0.15875 -0.0375,-0.04625 -0.0975,-0.07125 -0.0975,-0.07125 0,0 0.03375,-0.10625 -0.04,-0.16875 -0.07375,-0.0625 -0.17625,-0.0325 -0.17625,-0.0325 0,0 -0.05875,-0.0925 -0.22125,-0.0925 m 0.37125,1.42625 c 0.36375,0 0.29875,-0.42625 0.29875,-0.42625 0,0 0.1025,-0.15875 0.445,-0.15875 0.34125,0 0.595,0.14 0.595,0.14 0,0 -0.54375,-0.07 -0.54375,0.26875 0,0.33875 0.41125,0.20625 0.41125,0.20625 0,0 -0.18375,0.19125 0.23125,0.305 0.26,0.07125 0.49,0.02125 0.49,0.02125 0,0 0.255,0.1975 0.64,0.2475 0.31625,0.04 0.48375,-0.0225 0.48375,-0.0225 0,0 -0.0875,0.23125 -0.49875,0.73125 -0.42125,0.51125 -0.4425,1.2325 -0.32,1.61375 0.17875,0.56 0.62125,0.71375 0.62125,0.71375 0,0 -0.51375,-0.015 -0.64,0.2575 -0.25,0.54 0.2825,0.68 0.2825,0.68 0,0 -0.1175,0.07625 -0.1025,0.22 0.025,0.24625 0.18375,0.0675 0.18375,0.0675 0,0 -0.0038,0.07625 0.045,0.135 0.0475,0.05875 0.12375,0.0775 0.12375,0.0775 0,0 -0.06625,0.0775 -0.03625,0.2575 0.02875,0.18 0.11125,0.31625 0.11125,0.31625 0,0 -0.195,0.0275 -0.265,0.155 -0.125,0.21875 -0.0037,0.21875 -0.0037,0.21875 0,0 0.025,-0.09125 0.08,-0.09125 0.16625,0 0.26625,0.3475 0.26625,0.3475 0,0 -0.0725,-0.0925 -0.16875,-0.115 -0.095,-0.02375 -0.14,0.015 -0.14,0.015 0,0 0.14125,0.3375 0.21875,0.74875 0.0775,0.4125 -0.13875,0.875 -0.13875,0.875 0,0 0.0025,-0.08 -0.01125,-0.1475 -0.01375,-0.06625 -0.03875,-0.10875 -0.03875,-0.10875 0,0 -0.02625,0.0075 -0.055,0.035 -0.03,0.0275 -0.04,0.05375 -0.04,0.05375 0,0 0.04375,-0.21 -0.185,-0.21 -0.155,0 -0.24,0.155 -0.24,0.155 0,0 -0.005,-0.015 -0.02,-0.02875 -0.015,-0.0125 -0.0275,-0.01375 -0.0275,-0.01375 0,0 -0.0875,0.02625 -0.145,0.265 -0.05625,0.24 0.0175,0.52625 -0.24875,0.8675 -0.375,0.47625 -1.0325,0.44 -1.0325,0.44 0,0 -0.13875,-0.04875 -0.28625,-0.16 -0.14875,-0.11125 -0.195,-0.23 -0.195,-0.23 0,0 0.26875,-0.02375 0.26875,-0.30375 0,-0.27875 -0.16375,-0.38125 -0.34,-0.38125 -0.4675,0 -0.445,0.4775 -0.445,0.4775 0,0 0.0225,-0.4775 -0.445,-0.4775 -0.17625,0 -0.34,0.1025 -0.34,0.38125 0,0.28 0.26875,0.30375 0.26875,0.30375 0,0 -0.04625,0.11875 -0.195,0.23 -0.1475,0.11125 -0.28625,0.16 -0.28625,0.16 0,0 -0.6575,0.03625 -1.0325,-0.44 -0.26625,-0.34125 -0.1925,-0.6275 -0.24875,-0.8675 -0.0575,-0.23875 -0.145,-0.265 -0.145,-0.265 0,0 -0.0125,0.0012 -0.0275,0.01375 -0.01375,0.01375 -0.02,0.02875 -0.02,0.02875 0,0 -0.08375,-0.155 -0.23875,-0.155 -0.23,0 -0.18625,0.21 -0.18625,0.21 0,0 -0.01,-0.02625 -0.03875,-0.05375 -0.03,-0.0275 -0.055,-0.035 -0.055,-0.035 0,0 -0.02625,0.0425 -0.03875,0.10875 -0.01375,0.0675 -0.01125,0.1475 -0.01125,0.1475 0,0 -0.2175,-0.4625 -0.14,-0.875 0.0775,-0.41125 0.21875,-0.74875 0.21875,-0.74875 0,0 -0.045,-0.03875 -0.14,-0.015 -0.09625,0.0225 -0.16875,0.115 -0.16875,0.115 0,0 0.1,-0.3475 0.26625,-0.3475 0.055,0 0.08,0.09125 0.08,0.09125 0,0 0.12125,0 -0.0025,-0.21875 -0.07125,-0.1275 -0.265,-0.155 -0.265,-0.155 0,0 0.08125,-0.13625 0.11,-0.31625 0.03,-0.18 -0.03625,-0.2575 -0.03625,-0.2575 0,0 0.0775,-0.01875 0.125,-0.0775 0.0475,-0.05875 0.04375,-0.135 0.04375,-0.135 0,0 0.15875,0.17875 0.18375,-0.0675 0.015,-0.14375 -0.1025,-0.22 -0.1025,-0.22 0,0 0.5325,-0.14 0.28375,-0.68 -0.1275,-0.2725 -0.64125,-0.2575 -0.64125,-0.2575 0,0 0.4425,-0.15375 0.62125,-0.71375 0.1225,-0.38125 0.1025,-1.1025 -0.31875,-1.61375 -0.41125,-0.5 -0.5,-0.73125 -0.5,-0.73125 0,0 0.16875,0.0625 0.485,0.0225 0.385,-0.05 0.64,-0.2475 0.64,-0.2475 0,0 0.22875,0.05 0.48875,-0.02125 0.415,-0.11375 0.23125,-0.305 0.23125,-0.305 0,0 0.4125,0.1325 0.4125,-0.20625 0,-0.33875 -0.545,-0.26875 -0.545,-0.26875 0,0 0.25375,-0.14 0.59625,-0.14 0.34125,0 0.445,0.15875 0.445,0.15875 0,0 -0.06625,0.42625 0.2975,0.42625 0.33875,0 0.37125,-0.3525 0.37125,-0.3525 0,0 0.03375,0.3525 0.37125,0.3525"/><path fill="#ff163c" d="m 24.119875,17.914375 -0.25,0.5 c 0,0 0.1275,0.11375 0.3925,0.0775 0.3975,-0.05375 0.31375,-0.3525 0.31375,-0.3525 0,0 0.03,-0.3575 0.25375,-0.67625 0.22625,-0.31875 0.24625,-0.45125 0.22125,-0.55375 -0.02375,-0.1025 -0.32875,-0.34875 -0.8575,-0.34875 -0.52875,0 -0.9225,0.1825 -2.1175,0.46625 -1.19625,0.285 -1.73125,0.22 -1.73125,0.22 0,0 0.075,-0.0625 0.10875,-0.16125 0.03375,-0.0975 0.04375,-0.20125 0.04375,-0.20125 0,0 -0.0775,-0.17125 -0.3675,-0.17125 -0.28875,0 -0.41625,0.1525 -0.41625,0.265 0,0.1125 0.195,0.41125 0.195,0.75 0,0.33875 -0.05375,0.6125 -0.05375,0.6125 0,0 0.94625,0.4675 2.2775,0.0425 1.86125,-0.5975 1.9875,-0.46875 1.9875,-0.46875"/><path fill="#ffe84f" d="m 22.415125,14.6015 0.16,0.4925 h 0.51875 l -0.41875,0.305 0.15875,0.4925 -0.41875,-0.30375 -0.41875,0.30375 0.16,-0.4925 -0.41875,-0.305 h 0.5175 z"/><path fill="#ffe84f" d="m 21.458125,13.78175 c -0.65625,0.46125 -1.3425,0.65625 -1.3425,0.65625 0,0 0.5,0.85375 0.695,1.53 0.19625,0.6775 0.19625,1.1075 0.19625,1.1075 0,0 0.55875,-0.26375 1.4925,-0.42125 0.935,-0.15625 1.5375,-0.15625 1.5375,-0.15625 0,0 0.01,-0.47125 0.16625,-1.01 0.1575,-0.53875 0.58875,-0.96125 0.58875,-0.96125 0,0 -0.80625,-0.2475 -1.42375,-0.7575 -0.635,-0.52375 -0.915,-1.05625 -0.915,-1.05625 0,0 -0.3375,0.6075 -0.995,1.06875 m 1.02375,0.17625 c 0,0 0.15875,0.3 0.5175,0.59625 0.3475,0.2875 0.8025,0.42625 0.8025,0.42625 0,0 -0.24375,0.23875 -0.33125,0.54375 -0.08875,0.30375 -0.09375,0.56875 -0.09375,0.56875 0,0 -0.34125,0 -0.8675,0.08875 -0.5275,0.08875 -0.8425,0.2375 -0.8425,0.2375 0,0 0,-0.2425 -0.11,-0.625 -0.11125,-0.38125 -0.39375,-0.8625 -0.39375,-0.8625 0,0 0.3875,-0.11125 0.75875,-0.37125 0.37,-0.26 0.56,-0.6025 0.56,-0.6025"/><path fill="#000000" d="m 27.52925,27.631875 -0.12,0.2675 -0.3525,0.08875 -0.05,0.14375 1.44875,-0.0175 -0.2325,-0.19 -0.0975,0.0975 -0.1775,-0.30125 z"/><path fill="#3c3c9e" d="m 28.840375,18.693875 -0.01,0.2425 0.09875,0.08375 h -0.16625 l 0.01375,-0.28"/><path fill="#3c3c9e" d="m 28.579125,18.439375 0.1025,-0.11625 0.2225,0.11625 0.10875,-0.1775 -0.1925,0.06375 -0.24125,-0.095 -0.23625,0.125 z"/><path fill="#3c3c9e" d="m 28.433875,19.7205 0.5225,0.1475 0.30125,0.31625 0.06625,0.80125 0.205,0.83125 -0.3175,0.5475 -0.9125,0.37875 -0.18125,-0.05875 -1.32125,-0.0062 -0.05125,0.31625 -0.37,0.145 -0.44125,-0.18375 -0.31625,0.18375 -0.30125,-0.1175 0.1175,-0.61 0.54375,-0.7425 0.23625,-0.8825 0.2575,-0.66125 0.5425,-0.2575 0.435,0.77875 0.625,-0.265 z"/><path fill="#ffffff" d="m 28.117625,22.68375 0.5225,0.0525 0.05125,4.72 -0.56625,0.56625 -0.1775,-0.30125 -0.41875,-0.09 0.095,-0.64625 -1.25625,-1.66125 0.42875,-2.645 z"/><path fill="#ffffff" d="m 26.870125,22.2265 0.29125,-1.7925 -0.29375,-0.09625 0.14625,-0.47 0.35375,-0.2425 0.08125,1.02125 0.51375,-0.27875 0.11875,-0.8825 0.3525,0.235 v 0.5525 l -0.21375,0.0575 -0.08,1.545 -0.35375,0.14625 -0.1025,0.235 z"/><path fill="#ffd1d1" d="m 25.316125,23.021875 -0.4425,0.1125 -0.12125,0.33125 0.12125,-0.07125 0.04625,-0.12 h 0.12625 l -0.03375,0.26 0.07,0.04125 0.34625,-0.29375 0.1425,-0.045 0.04625,-0.0975 z"/><path fill="#ffd1d1" d="m 28.193375,19.27675 -0.18125,0.1375 0.06875,0.07125 -0.11875,0.8825 -0.51375,0.27875 -0.08,-1.02125 -0.17,-0.4025 v -0.6025 l 0.24,-0.09375 0.33375,0.06875 0.23125,0.09875 0.15625,0.38125 z"/><path fill="#000000" d="m 26.96775,18.904375 0.23125,0.31875 v -0.60375 l 0.24,-0.0925 0.14125,0.17625 0.1925,-0.1075 0.23,0.09875 0.04375,0.50375 0.1125,-0.1225 0.03375,0.20125 0.1575,-0.04875 0.05875,-0.21625 -0.1575,-0.42625 -0.47875,-0.17125 -0.565,0.0975 z"/><path fill="#ffffff" d="m 28.409375,19.0125 -0.1575,-0.42625 -0.48,-0.1725 -0.56375,0.09875 -0.24,0.3925 -0.17125,-0.10875 -0.08375,-0.28875 0.24,-0.1725 0.30875,-0.11125 0.1525,-0.36875 0.9025,0.1175 -0.045,0.35875 0.43125,0.15125 0.1375,0.21125 z"/><path fill="#c5c5c5" d="m 29.0295,22.955875 v 4.5 c 0,0 0.20625,0.19 0.5225,-0.0875 0.31625,-0.28 0.32375,-0.5525 0.32375,-0.5525 0,0 -0.295,-0.08 -0.0825,-0.4775 0.21375,-0.3975 0.42,-0.61875 0.42,-0.61875 0,0 0.1175,0.30875 0.14,0.61875 0.02125,0.30875 0.0063,0.44125 -0.05875,0.515 -0.06625,0.0725 -0.22875,0.08 -0.22875,0.08 0,0 -0.15375,0.4425 -0.4775,0.75875 -0.32375,0.31625 -0.465,0.42875 -0.465,0.42875 l -0.6675,-0.0075 c 0,0 -0.3525,-0.24625 -0.5225,-0.51875 -0.16875,-0.27125 -0.30875,-0.61 -0.30875,-0.61 0,0 -0.15625,-0.03125 -0.24875,-0.13125 -0.1775,-0.1925 0.12375,-1.06625 0.12375,-1.06625 0,0 0.49375,0.8225 0.48625,0.93375 -0.0075,0.11 -0.20625,0.18375 -0.20625,0.18375 0,0 0.4625,0.63875 0.68375,0.69 0.22125,0.05125 0.2275,-0.13875 0.2275,-0.13875 l -0.0575,-4.5 z"/><path fill="#6f513e" d="m 29.0295,22.955875 0.04375,-0.1175 h 1.05125 v -0.44875 l -1.82625,-0.05125 v 0.405 l 0.34125,-0.0075 -0.0063,0.22 z"/></svg>