<svg xmlns="http://www.w3.org/2000/svg" viewBox="0 0 45 45"><path fill="#003066" d="m 0,33.75 c 0,2.76125 2.23875,5 5,5 h 35 c 2.76125,0 5,-2.23875 5,-5 v -22.5 c 0,-2.76125 -2.23875,-5 -5,-5 H 5 c -2.76125,0 -5,2.23875 -5,5 z"/><path fill="#ffffff" d="m 5.610375,9.346875 c 0.585,-0.2525 1.23125,-0.3925 1.91,-0.3925 2.66375,0 4.82375,2.16 4.82375,4.8225 0,2.665 -2.16,4.82375 -4.82375,4.82375 -2.66375,0 -4.82375,-2.15875 -4.82375,-4.82375 0,-0.5575 0.095,-1.09375 0.27,-1.5925 -0.0225,0.15625 -0.03375,0.31625 -0.03375,0.48 0,1.87375 1.51875,3.3925 3.3925,3.3925 1.8725,0 3.3925,-1.51875 3.3925,-3.3925 0,-1.87375 -1.52,-3.3925 -3.3925,-3.3925 -0.24625,0 -0.485,0.025 -0.715,0.075"/><path fill="#ffffff" d="m 24.036875,33.24225 c 0,0 -0.48625,-0.3675 -0.48625,-3.205 0,-2.83875 -0.175,-8.28 -0.175,-8.28 0,0 0.3675,0.535 0.52375,1.035 0.1575,0.5 0.19625,0.90125 0.19625,0.90125 0,0 0.265,0.04875 0.81375,-0.16625 0.54875,-0.215 1.45,0.48 2.52,0.03875 1.0675,-0.44125 1.225,-1.3625 1.225,-1.3625 l -1.79375,-2.83375 c 0,0 0.56625,0.08625 1.33,0.84375 0.76625,0.7575 1.49375,1.19875 1.49375,1.19875 0,0 0.37375,-0.09625 0.595,-0.45625 0.22125,-0.36 0.17625,-0.82375 0.17625,-0.82375 0,0 -0.91875,-0.2425 -1.625,-0.56625 -0.705,-0.32375 -1.0875,-0.64625 -1.0875,-0.64625 0,0 0.1975,-0.12625 1.57375,-0.10375 1.37375,0.0225 1.64625,-0.0875 1.64625,-0.0875 0,0 0.11,-0.14 0.14,-0.4925 0.03,-0.35375 -0.08125,-0.655 -0.08125,-0.655 0,0 -0.44875,-0.18375 -1.05125,-0.22125 -0.6025,-0.03625 -1.6025,0 -1.6025,0 0,0 0.1025,-0.0875 0.28625,-0.14625 0.18375,-0.05875 0.47,-0.1325 0.47,-0.1325 0,0 -0.29375,-0.05875 -0.66875,-0.06625 -0.375,-0.0075 -1.01375,0.04375 -1.01375,0.04375 0,0 0.67625,-0.565 1.39625,-1.28625 0.72125,-0.72125 0.875,-1.2425 0.875,-1.2425 0,0 -0.13125,-0.4275 -0.4775,-0.6625 -0.34625,-0.235 -1.155,0.12625 -1.155,0.12625 0,0 -0.595,0.65375 -1.44875,1.3225 -0.8525,0.66875 -1.595,0.83875 -1.595,0.83875 0,0 0.1525,-0.585 0.56625,-1.21375 0.55125,-0.83875 0.2725,-3.04375 0.2725,-3.04375 0,0 -0.78,-0.21375 -1.515,0.39 -0.735,0.6025 -1.31625,3.28625 -1.31625,3.28625 0,0 -0.40375,-0.9325 -0.98625,-1.81625 -0.58,-0.88375 -1.06625,-1.30125 -1.06625,-1.30125 l -2.01375,-0.28 c 0,0 0.19125,0.96375 0.53625,1.7575 0.34625,0.79375 1.34625,2.25125 1.34625,2.25125 0,0 -1.1625,0.235 -2.3825,-0.59625 -1.22125,-0.83125 -1.94125,-0.875 -1.94125,-0.875 0,0 -0.6575,0.0825 -0.8825,0.5225 -0.65375,1.27875 4.5075,1.92625 4.5075,1.92625 0,0 -1.655,0.15375 -2.9775,0.31625 -1.32375,0.16125 -2.09625,0.37375 -2.09625,0.37375 0,0 0.0375,0.34625 0.44125,0.94875 0.405,0.60375 1.07375,0.8975 1.07375,0.8975 0,0 0.70625,-0.08 1.375,-0.6175 0.66875,-0.53625 1.57375,-0.7425 1.57375,-0.7425 0,0 -1.56625,1.07375 -2.405,2 -0.83875,0.92625 -0.72,2.41125 -0.72,2.41125 0,0 0.66125,0.22125 1.78625,-1.36 1.125,-1.58125 2.75,-2.7575 2.75,-2.7575 0,0 -0.7325,1.52875 -1.8675,2.53625 -1.905,1.69125 -0.0075,3.19875 -0.0075,3.19875 0,0 0.68375,-0.6975 1.35375,-1.735 0.66875,-1.03625 1.04375,-2.125 1.04375,-2.125 0,0 0.18375,0.44125 -0.1325,1.31625 -0.31625,0.875 -0.67625,1.29375 -0.67625,1.29375 0,0 0.05875,0.25125 0.4625,0.41875 0.405,0.17 0.7725,-0.03625 0.7725,-0.03625 0,0 -0.08125,-0.5875 0.1325,-1.2275 0.2125,-0.64 0.18375,-1.18375 0.18375,-1.18375 0,0 0.11,0.09625 0.04375,1.25 -0.06625,1.15375 -0.30125,9.33 -0.39625,9.86 -0.09625,0.53 -0.265,0.83125 -0.265,0.83125 h -1.5 c 0,0 -0.89125,0.27125 -0.56,1.07125 0.3325,0.80125 2.4525,0.69 2.95,0.39625 0.49625,-0.29375 1.2425,0.1375 2.33,0 1.08875,-0.13625 1.58875,-0.42125 1.58875,-0.42125 0,0 -0.3925,-0.55875 -1.03,-0.705 -0.6375,-0.14875 -1.3525,-0.12875 -1.3525,-0.12875"/></svg>