<svg xmlns="http://www.w3.org/2000/svg" viewBox="0 0 45 45"><path fill="#0a1f62" d="M 11.25,6.25 H 5 c -2.76125,0 -5,2.23875 -5,5 v 22.5 c 0,2.76125 2.23875,5 5,5 h 6.25 z"/><path fill="#eeeeee" d="m 11.25,38.75 h 22.5 V 6.25 h -22.5 z"/><path fill="#d90026" d="M 33.75,38.75 H 40 c 2.76125,0 5,-2.23875 5,-5 v -22.5 c 0,-2.76125 -2.23875,-5 -5,-5 h -6.25 z"/><path fill="#d90026" d="M 18.306875,29.92925 V 29.663 h 0.91125 v 0.26625 l -0.235,0.045 v 1.58 l 0.235,0.045 v 0.265 h -0.91125 v -0.265 l 0.23625,-0.045 v -1.58 z"/><path fill="#d90026" d="m 21.019875,30.743375 c 0,-0.2275 -0.0475,-0.4125 -0.14125,-0.55375 -0.095,-0.1425 -0.235,-0.21375 -0.42125,-0.21375 -0.185,0 -0.3225,0.07 -0.415,0.2125 -0.09,0.14 -0.13625,0.325 -0.13625,0.555 v 0.03625 c 0,0.2325 0.04625,0.41875 0.13875,0.56125 0.09125,0.14125 0.23,0.21125 0.415,0.21125 0.18625,0 0.32625,-0.07 0.42,-0.21125 0.09375,-0.1425 0.14,-0.32875 0.14,-0.56125 z m 0.44,0.03625 c 0,0.3225 -0.0925,0.59 -0.27625,0.8 -0.185,0.21125 -0.42625,0.31625 -0.72375,0.31625 -0.29875,0 -0.5375,-0.105 -0.72125,-0.31625 -0.1825,-0.21 -0.27375,-0.4775 -0.27375,-0.8 v -0.0325 c 0,-0.32125 0.09125,-0.5875 0.27375,-0.79875 0.1825,-0.21125 0.4225,-0.3175 0.71875,-0.3175 0.29875,0 0.54,0.10625 0.725,0.3175 0.185,0.21125 0.2775,0.4775 0.2775,0.79875 z"/><path fill="#d90026" d="M 24.5495,29.92925 24.367,29.953 23.922,31.86425 h -0.40875 l -0.405,-1.4525 h -0.0088 l -0.4025,1.4525 h -0.41 L 21.8382,29.953 21.6582,29.92925 V 29.663 h 0.81 v 0.26625 l -0.2012,0.03375 0.2525,1.2075 0.0087,0.0012 0.4125,-1.50875 h 0.3263 l 0.415,1.50875 0.0088,-0.0012 0.25125,-1.2075 -0.20125,-0.03375 V 29.663 h 0.80875 z"/><path fill="#d90026" d="m 25.25875,30.944875 h 0.50375 l -0.2475,-0.775 h -0.0087 z m -0.79875,0.65375 0.1575,-0.02125 0.66875,-1.91375 h 0.4525 l 0.665,1.91375 0.1575,0.02125 v 0.265 h -0.75 v -0.265 l 0.1525,-0.02625 -0.09625,-0.3025 h -0.71375 l -0.09625,0.3025 0.1525,0.02625 v 0.265 h -0.75 z"/><path fill="#0a1f62" d="m 14.497625,17.51225 c 0,0 0.16625,-0.56375 0.95625,-0.76 0.78875,-0.19625 0.90625,0.34375 0.90625,0.34375 0,0 0.1375,0.46 0.0925,0.8775 -0.04375,0.41625 -0.5225,1.0425 -1.24,1.22 -0.74875,0.18625 -0.93125,0.34375 -0.93125,0.34375 0,0 -0.13625,0.3625 0.16625,0.6075 0.305,0.245 0.71625,0.25 0.71625,0.25 0,0 1.78375,-0.74 3.05875,-0.84875 1.275,-0.1075 1.72625,0.05 1.72625,0.05 l 0.245,1.39125 c 0,0 -0.11875,0.4225 -1.295,0.47125 -1.17625,0.04875 -1.55875,-0.34375 -1.55875,-0.34375 0,0 -0.45,0.1675 -1.17625,0.49 -0.725,0.32375 -1.235,0.57875 -1.235,0.57875 0,0 0.6175,0.21625 0.8625,0.53875 0.245,0.32375 0.22625,0.9525 0.22625,0.9525 0,0 0.5675,-0.51125 1.725,-1.22625 1.15625,-0.71625 2.3925,-0.82375 2.3925,-0.82375 0,0 0.17625,0.0225 0.1625,0.49375 -0.02125,0.775 -0.1575,0.79375 -0.1575,0.79375 0,0 0.0075,0.1575 -0.06375,0.34875 -0.06875,0.19125 -0.18375,0.27875 -0.18375,0.27875 0,0 -0.15,0.47125 -0.15,0.715 0,0.24125 0.0925,0.36625 0.0925,0.36625 0,0 0.9075,-0.33375 1.9075,-2.76 0.4175,-1.015 0.84125,-2.01625 1.23,-2.805 0.70625,-1.43125 1.275,-1.7 1.275,-1.7 0,0 0.42625,0.8225 1.05375,0.91625 1.4225,0.21125 2.65375,-0.32375 4.72,-0.32375 0.9825,0 1.655,0.3525 1.655,1.09625 0,0.425 -0.25625,0.6175 -0.25625,0.6175 0,0 -0.10375,0.2175 -0.37875,0.29625 -0.275,0.07875 -0.475,0.235 -0.475,0.235 0,0 0.235,0.1275 0.48,0.32875 0.245,0.20125 0.3275,0.30875 0.3275,0.30875 l -0.15125,1.235 c 0,0 -0.28875,0.32875 -0.74875,-0.03375 -0.46125,-0.3625 -0.31375,-0.745 -0.31375,-0.745 0,0 -0.275,-0.21125 -1.22125,-0.3825 -0.94625,-0.17125 -1.68625,0.03875 -1.68625,0.03875 0,0 0.46625,0.55 0.3525,0.97 -0.1125,0.4225 -0.755,0.6575 -0.755,0.6575 0,0 1.03375,0.45125 2.6075,0.5125 1.6175,0.0625 2.90375,-0.22375 2.90375,-0.22375 0,0 0.1025,0.14 0.19375,0.62125 0.09125,0.4825 0.055,0.87625 0.055,0.87625 0,0 0.025,0.1275 -0.19125,0.19875 -0.21625,0.06875 -0.46375,0.12375 -0.46375,0.12375 0,0 -0.23375,0.3575 -0.1675,0.55625 0.065,0.1975 0.32625,0.26125 0.32625,0.26125 0,0 -0.25,0.12 -0.59125,-0.06 -0.3425,-0.18 -0.1925,-0.5725 -0.1925,-0.5725 l 0.3825,-0.70375 c 0,0 -1.0725,0.23625 -2.56625,0.1925 -1.4925,-0.045 -3.33,-0.76625 -3.33,-0.76625 0,0 -0.31625,0.4625 -0.7975,0.15125 -0.405,-0.26125 -0.20375,-0.7575 -0.20375,-0.7575 0,0 0.04625,-0.235 0.185,-0.57625 0.13875,-0.3425 0.26125,-0.555 0.26125,-0.555 0,0 0.26875,0.1025 0.87875,0.04375 0.61,-0.05875 0.735,-0.2725 0.735,-0.2725 0,0 -0.095,-0.0875 -0.28375,-0.1575 -0.15625,-0.05875 -0.29375,-0.085 -0.29375,-0.085 l -0.71125,-1.165 c 0,0 0.91125,-0.51 2.225,-0.58875 1.31375,-0.07875 1.99,0.21625 1.99,0.21625 0,0 0.065,-0.1025 0.39625,-0.2725 0.33,-0.17 0.36125,-0.3475 0.36125,-0.3475 0,0 -0.55375,-0.21 -2.20375,0.01625 -1.3925,0.19125 -2.55375,-0.01375 -3.13625,-0.29375 -0.7075,-0.3375 -0.82375,-1.12875 -0.82375,-1.12875 0,0 -0.545,0.51625 -0.8875,2.03625 -0.34375,1.51875 -0.785,3.3325 -1.99,4.93 -0.51,0.675 -1.24625,1.17875 -1.6675,0.96125 -0.81125,-0.41625 -0.7075,-1.05125 -0.7075,-1.05125 0,0 -0.1575,-0.05625 -0.13,-0.2675 0.02625,-0.21125 0.355,-0.37625 0.355,-0.37625 0,0 0.10125,-0.25375 0.015,-0.545 -0.08625,-0.29125 -0.45875,-0.1975 -0.45875,-0.1975 0,0 -0.63625,0.3475 -1.6425,1.0825 -1.00875,0.735 -2.06875,1.075 -2.06875,1.075 0,0 -0.1075,-0.215 -0.3375,-0.5475 -0.23,-0.33375 -0.54375,-0.6375 -0.54375,-0.6375 0,0 -0.07875,-0.145 -0.035,-0.26 0.045,-0.11625 0.33625,-0.2675 0.33625,-0.2675 0,0 -0.135,-0.16 -0.4025,-0.28875 -0.2675,-0.13 -0.7375,-0.16375 -0.7375,-0.16375 0,0 -0.1375,-0.19625 -0.1325,-0.9075 0.005,-0.71125 0.04875,-0.8925 0.04875,-0.8925 0,0 0.1625,-0.1175 0.29,-0.20125 0.12625,-0.0825 0.3825,-0.235 0.3825,-0.235 0,0 -0.245,-0.08375 -0.4425,-0.30875 -0.195,-0.225 -0.19,-0.525 -0.19,-0.525 0,0 -0.11875,-0.31875 -0.06375,-0.94125 0.01875,-0.22375 0.05875,-0.51375 0.25375,-0.72 0.1975,-0.205 0.945,-0.46375 0.945,-0.46375 0,0 -0.03,-0.0675 -0.0575,-0.25125 -0.02625,-0.185 -0.02875,-0.33875 -0.02875,-0.33875"/><path fill="#ffb30f" d="m 24.3115,16.865875 c 0,0 0.2425,0.13375 0.365,0.36875 0.17375,0.33125 -0.06625,0.485 -0.06625,0.485 0,0 -0.03625,-0.10875 -0.14375,-0.2175 -0.1075,-0.11 -0.2475,-0.16625 -0.2475,-0.16625 0,0 -0.0825,0.1575 -0.15,0.15625 -0.06875,-0.0025 -0.0675,-0.04875 -0.23375,-0.13875 -0.16625,-0.09 -0.3975,-0.1875 -0.3975,-0.1875 z"/><path fill="#ffffff" d="m 20.60975,14.9805 c 0,0 -0.06375,1.375 1.485,1.925 1.71875,0.60875 2.21625,-0.04 2.21625,-0.04 0,0 -0.0825,-0.235 -0.31375,-0.45125 -0.23,-0.215 -2.745,-2.235 -2.745,-2.235 z"/><path fill="#a54a00" d="m 20.46325,12.532375 c 0,0 -0.0925,-0.14 -0.15125,-0.4775 -0.0575,-0.33875 -0.38875,-0.4375 -0.33,-0.79875 0.05875,-0.36 0.4375,-1.08375 -2.14375,-1.08375 -3.33375,0 -6.32375,3.32375 -6.32375,3.32375 0,0 1.01125,0.14875 4.24,-0.29375 3.23,-0.4425 4.08875,0.85875 4.08875,0.85875 0,0 -0.0125,0.245 0.06625,0.6675 0.07875,0.42125 0.33375,0.745 0.33375,0.745 0,0 -0.08875,-0.30375 0.5875,-0.6075 0.67625,-0.30375 1.265,0.1175 1.265,0.1175 0,0 0.33375,0.765 1.3825,1.03875 1.0475,0.275 1.3825,0.19625 1.3825,0.19625 0,0 -0.1475,-0.31375 -0.4125,-0.69625 -0.265,-0.3825 -0.3725,-0.53875 -0.3725,-0.53875 0,0 0.3975,-1.26375 1.99875,-1.7825 1.60125,-0.52 2.1875,0.26125 4.19875,0.555 2.0125,0.2925 2.89125,0 2.89125,0 0,0 -1.92125,-1.5275 -3.48125,-2.44 -0.685,-0.40125 -1.29125,-0.41875 -2.07875,-0.715 -1.2025,-0.45375 -1.6175,-0.6075 -2.14625,-0.6075 -0.17375,0 -0.58125,0.12875 -1,0.245 -0.4725,0.13125 -0.8325,0.0875 -1.05875,0.51 -0.12,0.2225 0.095,0.71125 0.04875,1.0975 -0.04875,0.40625 -0.3325,0.715 -0.3325,0.715 0,0 -0.55,-0.37125 -1.52,-0.37125 -0.97125,0 -1.1325,0.3425 -1.1325,0.3425"/></svg>