<svg xmlns="http://www.w3.org/2000/svg" viewBox="0 0 45 45"><path fill="#002687" d="m 0,33.75 c 0,2.76125 2.23875,5 5,5 h 35 c 2.76125,0 5,-2.23875 5,-5 v -22.5 c 0,-2.76125 -2.23875,-5 -5,-5 H 5 c -2.76125,0 -5,2.23875 -5,5 z"/><path fill="#ffeb06" d="m 17.280875,18.2275 c -0.3625,0 -0.715,0.1975 -1.04625,0.58625 -1.3625,1.6 -0.86375,5.09125 1.06625,7.47375 2.50125,3.08625 4.94875,3.65875 5.19875,3.71 0.25,-0.05125 2.6975,-0.62375 5.19875,-3.71 1.93125,-2.3825 2.43,-5.875 1.06625,-7.47375 -0.33125,-0.38875 -0.68375,-0.58625 -1.04625,-0.58625 h -0.015 c -0.60625,0.0087 -1.055,0.56125 -1.06,0.56625 l -0.03875,0.0475 h -8.21 l -0.03875,-0.0475 c -0.0038,-0.005 -0.45625,-0.55875 -1.06125,-0.56625 z m 5.21875,12.02375 -0.02,-0.0038 c -0.10875,-0.0175 -2.6825,-0.4825 -5.3725,-3.80375 -2.035,-2.51125 -2.52125,-6.07875 -1.0625,-7.7925 0.38625,-0.4525 0.81375,-0.67875 1.255,-0.67375 0.61625,0.01 1.07625,0.4625 1.21125,0.61375 h 7.9775 c 0.135,-0.15125 0.595,-0.60375 1.21125,-0.61375 h 0.01875 c 0.44,0 0.85625,0.22625 1.23625,0.67375 1.46,1.7125 0.975,5.28125 -1.06,7.7925 -2.69375,3.3213 -5.26625,3.7863 -5.37375,3.8038 z"/><path fill="#ffeb06" d="m 21.3825,25.184375 c 0,0 0.02625,-1.0675 -0.0125,-1.18625 -0.03875,-0.12125 -0.14875,-0.14125 -0.14875,-0.14125 l -0.435,-0.02125 c 0,0 0,-0.1125 -0.01625,-0.135 -0.0175,-0.02125 -0.11125,-0.18875 -1.07125,-0.18875 -0.25125,0 -0.4825,0.06375 -0.96125,0.06375 -0.64625,0 -1.06875,0.1275 -1.06875,0.1275 l -0.2375,-0.21 -0.14375,0.12 -0.1775,0.0075 0.05625,0.235 c 0,0 -0.1425,0.62125 -0.1425,0.66625 0,0.045 0.05,0.1425 0.1575,0.215 0.08625,0.0575 0.26375,0.05125 0.26375,0.05125 l 0.13375,-0.1325 c 0,0 -0.0225,0.05125 0,0.1175 0.02125,0.0675 0.03625,0.08625 0.03625,0.08625 0,0 0.15875,0.05875 0.23625,0.05875 0.07875,0 0.64875,-0.26375 0.64875,-0.26375 l 0.07125,0.15625 -0.09375,1.09375 h 0.24375 l 0.0875,-0.87875 0.3275,0.265 0.0038,0.61375 h 0.4075 c 0,0 -0.10625,-0.26125 -0.11,-0.29 -0.0038,-0.03 0.01125,-0.44875 0.01125,-0.44875 l 0.63625,-0.015 -0.305,0.75375 h 0.30875 l 0.32,-1.055 0.04375,0.195 0.29375,0.16625 -0.15375,0.69375 h 0.30125 c 0,0 0.12875,-0.50375 0.14,-0.55125 0.01,-0.0475 0.10625,-0.225 0.10625,-0.225 0,0 0.0475,0.35375 0.07,0.3975 0.02125,0.045 0.11,0.085 0.14,0.015 0.02875,-0.07 0.0325,-0.35625 0.0325,-0.35625"/><path fill="#ffeb06" d="m 26.639375,24.757125 c 0,0 -0.0075,-0.42625 0.06625,-0.69875 0.07375,-0.27125 0.33125,-0.90375 0.6025,-1.19875 0.14875,-0.16 0.075,-0.36 0.075,-0.36 0,0 -0.1475,-0.14625 -0.4575,-0.14625 -0.30875,0 -0.195,0.09 -0.4525,0.03125 -0.2575,-0.05875 -0.3925,-0.0025 -0.525,0.05625 -0.13125,0.05875 -0.39375,0.0625 -0.53,-0.04375 -0.1675,-0.1325 -0.5725,0.1025 -0.8575,-0.06875 -0.36875,-0.22375 -0.41375,0.135 -0.8175,-0.07125 -0.36,-0.1825 -0.605,0.06875 -0.83875,-0.08 -0.405,-0.26 -0.8525,0.24125 -1.25,-0.09625 -0.33375,-0.285 -0.485,-0.1325 -0.6325,-0.05875 -0.14625,0.07375 -0.20625,0.20625 0,0.89 0.1025,0.33875 0.3825,0.72375 0.57375,1.0375 0.195,0.31875 0.30125,0.565 0.30125,0.565 0,0 -0.2425,0.18375 -0.2425,0.6775 0,0.74875 0.8825,0.64625 0.8825,0.64625 0,0 0.31625,0.3525 0.86,0.08125 0.3,-0.15 0.3825,-0.69875 0.3825,-0.69875 h 0.705 c 0,0 -0.11625,0.28 0.13375,0.57375 0.25,0.2925 0.64,0.16125 0.64,0.16125 0,0 0.56625,0.32375 1.065,-0.11 0.36,-0.3125 0.22125,-0.83125 0.22125,-0.83125 0,0 0.58125,0.04375 0.7275,0.02875 0.1475,-0.01375 0.3375,-0.20625 0.3375,-0.20625 z"/><path fill="#ffeb06" d="m 23.114,14.757125 c 0,0 0.07125,-0.10375 -0.02625,-0.2425 -0.14,-0.20125 -0.3575,0.015 -0.39,0.015 -0.03375,0 -0.10625,-0.145 -0.10625,-0.145 0,0 -0.025,0.02 -0.06375,0.01 -0.03875,-0.01 -0.0475,-0.02625 -0.0475,-0.02625 l 0.02,-0.0125 c 0,0 -0.3675,-0.0425 -0.5,0.175 -0.13375,0.21875 -0.0925,0.385 -0.12375,0.495 -0.03125,0.10875 -0.13,0.295 -0.13,0.295 0,0 -0.21375,0.185 -0.38875,0.185 -0.17625,0 -1.11,-0.68 -1.54125,-0.68 -0.16375,0 -0.7825,0.08125 -1.305,0.47625 -0.44,0.3325 -1.94125,1.47 -2.13625,1.66625 -0.31375,0.31375 -0.48,0.55375 -0.48,0.55375 0,0 0.80375,0.3975 1.98,0 1.17625,-0.39625 1.44125,-0.58875 1.44125,-0.58875 0,0 0.5875,0.0075 1.36,0.625 0.77125,0.6175 1.82375,0.8825 1.82375,0.8825 0,0 0.67625,-0.265 1.44875,-0.8825 0.77125,-0.6175 1.36,-0.625 1.36,-0.625 0,0 0.265,0.31625 1.44125,0.71375 1.17625,0.39625 1.98,0 1.98,0 0,0 -0.1675,-0.365 -0.48125,-0.67875 -0.195,-0.19625 -1.695,-1.33375 -2.13625,-1.66625 -0.5225,-0.395 -1.14125,-0.47625 -1.305,-0.47625 -0.43,0 -0.87625,0.7625 -1.37625,0.7625 -0.45875,0 -0.6425,-0.065 -0.67375,-0.2575 -0.03,-0.17625 -0.1375,-0.375 -0.1375,-0.46625 0,-0.11 0.07125,-0.2175 0.21625,-0.1975 0.10625,0.01375 0.15875,-0.0075 0.15875,-0.0075 0,0 0.0075,0.03625 0.05375,0.07125 0.04625,0.03375 0.065,0.02625 0.065,0.02625"/><path fill="#ffeb06" d="m 24.829125,27.3975 0.185,0.42625 h -0.595 l -0.345,0.5225 0.22,0.0875 -0.22,0.08125 c 0,0 -0.14,0.38875 -0.28,0.53625 -0.13875,0.14625 -0.40375,0.23625 -0.40375,0.23625 l 0.04375,0.30875 c 0,0 -0.6475,0.05875 -1.11,0.04375 -0.46375,-0.015 -0.7575,-0.14 -0.7575,-0.14 l -0.11125,-0.33875 -0.66125,-0.22 -0.02875,-0.23 0.37375,0.085 -0.0725,-0.265 -0.6275,-0.04375 0.13,0.5275 -0.1525,0.005 -0.2225,-0.75375 0.79375,0.01875 -0.1425,-0.615 0.21375,-0.03125 0.215,0.6225 0.6275,0.06 0.07125,-0.4825 -0.68125,-0.12 c 0,0 0.21625,-0.82875 1.20875,-0.82875 1.46875,0 1.02125,0.93375 1.02125,0.93375 l -0.225,-0.04375 -0.0225,0.465 0.17875,0.03375 0.7375,-0.89375 z"/><path fill="#ffeb06" d="m 22.676375,21.809125 -2.65,-0.105 2.6325,-0.05125 -6.7475,-2.095 6.7725,1.905 -6.5775,-2.30375 6.65125,2.1725 -6.32375,-2.6475 6.3975,2.41125 -5.82625,-2.70375 6.01625,2.5275 -3.29375,-1.985 3.3675,1.82375 -2.55875,-1.81 2.47125,1.59875 -1.74,-1.6525 2.06375,1.78 -1.495,-1.78 1.80875,1.83875 -1.31875,-1.83875 1.6025,1.80375 -1.005,-1.79875 0.91625,1.33875 -0.50375,-1.32375 0.8175,1.725 -0.3475,-1.75375 0.53875,1.82875 0.025,-1.83875 0.1675,1.8525 0.25375,-1.8675 -0.06375,1.8725 0.515,-1.8725 -0.23,1.44625 0.6225,-1.45125 -0.6575,2.035 1.42125,-2.025 -1.245,2.0875 1.9175,-2.475 -1.36875,2.01 2.23125,-2.1325 -1.96125,2.045 2.47125,-1.79 -3.06875,2.43625 3.47,-1.96125 -2.5825,1.62375 2.76875,-1.3 -3.46,1.8725 0.76875,-0.25375 -0.77875,0.425 -0.28125,0.06375 c 0,0 0.08375,0.07625 0.15125,0.17125 0.065,0.095 0.10125,0.1875 0.10125,0.1875 z"/><path fill="#ffeb06" d="m 29.34575,22.5 -0.39,-2.3825 -0.2125,2.7575 -0.3025,-2.875 -0.25,3.45625 -0.1025,-2.0075 -0.2725,2.22125 -0.1025,-1.59625 -0.52875,1.83875 h 0.30875 v 0.78625 H 27.677 v -0.795 h 0.24875 l -0.05125,0.795 h 0.24375 l -0.05875,-1.08 0.14625,0.01375 0.0075,1.1025 h 0.17625 l 0.045,-1.18375 h 0.38125 v 0.7875 L 29.037,23.875 v -1.29375 z"/><path fill="#ffeb06" d="m 18.47775,21.026625 c 0,0 0.06625,0.43625 -0.08,0.54 -0.1475,0.1025 -0.11875,0.27875 -0.11875,0.27875 l -2.015,-0.05875 -0.66125,-0.735 0.60375,-0.58875 c 0,0 0.0063,-0.3375 0.1025,-0.52125 0.095,-0.185 0.235,-0.2475 0.235,-0.2475 l 0.01125,-0.43 h 0.0925 l 0.0425,0.3975 0.25125,0.1625 -0.14375,0.1175 -0.0038,0.69125 0.1175,0.01375 0.0075,-0.41125 0.375,0.03 0.005,-0.155 -0.2,-0.02875 0.21,-0.34625 0.0075,-0.2425 0.14,-0.0075 0.005,0.14875 0.17,0.06 0.01875,0.42 -0.17125,-0.01625 0.0063,0.17375 0.20375,0.0325 0.0087,0.68875 -0.2275,-0.01875 0.0225,0.47 0.3525,0.015 -0.02125,-1.01 0.42625,0.0175 0.015,0.125 -0.19875,0.0625 -0.0375,0.7875 0.15125,-0.03375 0.095,-0.15375 -0.11375,-0.03 0.045,-0.1975 z"/><path fill="#ffeb06" d="M 29.925,19.03 H 29.49125 V 18.5975 H 29.925 Z"/><path fill="#ffeb06" d="M 30.27875,20.0325 H 29.845 V 19.6 h 0.43375 z"/><path fill="#ffeb06" d="m 30.5225,21.12875 h -0.43375 v -0.4325 h 0.43375 z"/><path fill="#ffeb06" d="m 30.51,22.11875 h -0.43375 v -0.4325 H 30.51 Z"/><path fill="#ffeb06" d="m 30.44,23.03875 h -0.4325 v -0.4325 H 30.44 Z"/><path fill="#ffeb06" d="m 30.33,24.04125 h -0.4325 v -0.4325 H 30.33 Z"/><path fill="#ffeb06" d="M 29.96625,24.96875 H 29.5325 v -0.4325 h 0.43375 z"/><path fill="#ffeb06" d="M 29.635,25.8075 H 29.20125 V 25.37375 H 29.635 Z"/><path fill="#ffeb06" d="M 29.135,26.68625 H 28.7025 V 26.2525 h 0.4325 z"/><path fill="#ffeb06" d="m 28.59,27.50875 h -0.4325 v -0.4325 H 28.59 Z"/><path fill="#ffeb06" d="M 27.97375,28.27 H 27.54 v -0.43375 h 0.43375 z"/><path fill="#ffeb06" d="M 27.2125,28.99 H 26.78 v -0.4325 h 0.4325 z"/><path fill="#ffeb06" d="M 26.3875,29.52 H 25.955 v -0.43375 h 0.4325 z"/><path fill="#ffeb06" d="M 25.6125,30.08625 H 25.17875 V 29.6525 h 0.43375 z"/><path fill="#ffeb06" d="m 24.73375,30.59375 h -0.4325 v -0.4325 h 0.4325 z"/><path fill="#ffeb06" d="M 23.69,30.9025 H 23.25625 V 30.47 H 23.69 Z"/><path fill="#ffeb06" d="M 22.69,30.9975 H 22.2575 V 30.565 H 22.69 Z"/><path fill="#ffeb06" d="m 21.60875,30.8175 h -0.4325 v -0.43375 h 0.4325 z"/><path fill="#ffeb06" d="m 20.57625,30.5125 h -0.4325 v -0.43375 h 0.4325 z"/><path fill="#ffeb06" d="M 19.6975,29.99375 H 19.265 v -0.4325 h 0.4325 z"/><path fill="#ffeb06" d="M 18.9175,29.45375 H 18.485 v -0.4325 h 0.4325 z"/><path fill="#ffeb06" d="m 18.10125,28.9025 h -0.4325 v -0.43375 h 0.4325 z"/><path fill="#ffeb06" d="M 17.3375,28.18875 H 16.905 v -0.4325 h 0.4325 z"/><path fill="#ffeb06" d="m 16.71875,27.42375 h -0.4325 v -0.4325 h 0.4325 z"/><path fill="#ffeb06" d="m 16.17125,26.61125 h -0.4325 v -0.4325 h 0.4325 z"/><path fill="#ffeb06" d="m 15.67125,25.715 h -0.4325 v -0.43375 h 0.4325 z"/><path fill="#ffeb06" d="M 15.355,24.88 H 14.9225 V 24.44625 H 15.355 Z"/><path fill="#ffeb06" d="M 15.0025,23.965 H 14.57 v -0.43375 h 0.4325 z"/><path fill="#ffeb06" d="m 14.87375,22.95375 h -0.4325 v -0.4325 h 0.4325 z"/><path fill="#ffeb06" d="m 14.8,22.02375 h -0.4325 v -0.4325 H 14.8 Z"/><path fill="#ffeb06" d="M 14.8125,21.04125 H 14.38 v -0.4325 h 0.4325 z"/><path fill="#ffeb06" d="m 15.04125,19.96125 h -0.4325 v -0.4325 h 0.4325 z"/><path fill="#ffeb06" d="M 15.3875,18.95375 H 14.955 v -0.4325 h 0.4325 z"/><path fill="#ffeb06" d="m 5.282625,13.811 c 0,-0.11625 -0.0425,-0.20625 -0.125,-0.27 -0.0825,-0.065 -0.22625,-0.13125 -0.4325,-0.19875 -0.2075,-0.06875 -0.37625,-0.13375 -0.5075,-0.19875 -0.4275,-0.20625 -0.64125,-0.49375 -0.64375,-0.85875 -0.00125,-0.1825 0.05125,-0.34375 0.15625,-0.4825 0.10625,-0.14 0.255,-0.25 0.44875,-0.32875 0.19375,-0.07875 0.4125,-0.1175 0.655,-0.11875 0.23625,-0.0012 0.44875,0.03875 0.63625,0.1225 0.1875,0.08375 0.33375,0.2025 0.43875,0.3575 0.105,0.155 0.1575,0.33375 0.15875,0.53375 l -0.79,0.0038 c -0.00125,-0.13375 -0.0425,-0.2375 -0.125,-0.31 -0.0825,-0.07375 -0.19375,-0.11 -0.33375,-0.11 -0.14125,0.0012 -0.25375,0.03375 -0.335,0.09625 -0.0825,0.0625 -0.1225,0.1425 -0.12125,0.23875 0,0.08375 0.045,0.16 0.13625,0.22875 0.09,0.0675 0.25,0.1375 0.4775,0.20875 0.2275,0.0725 0.415,0.15 0.56125,0.23375 0.35625,0.2025 0.535,0.48375 0.5375,0.84375 0.00125,0.2875 -0.105,0.51375 -0.32125,0.67875 -0.21625,0.165 -0.5125,0.24875 -0.89125,0.25125 -0.26625,0.0012 -0.5075,-0.045 -0.725,-0.14 -0.215,-0.09375 -0.37875,-0.22375 -0.48875,-0.39 -0.11125,-0.165 -0.16625,-0.35625 -0.1675,-0.57375 l 0.795,-0.0038 c 0.00125,0.17625 0.0475,0.305 0.13875,0.38875 0.09125,0.0825 0.24,0.12375 0.445,0.1225 0.13125,0 0.23375,-0.02875 0.31,-0.08625 0.075,-0.05625 0.1125,-0.13625 0.1125,-0.23875"/><path fill="#ffeb06" d="m 8.783625,11.83475 -0.985,0.06625 0.17875,2.67 -0.79,0.0525 -0.17875,-2.67 -0.9675,0.06375 -0.04125,-0.61 2.7425,-0.18375 z"/><path fill="#ffeb06" d="M 9.76075,13.15125 10.46075,13.05 9.947,11.9725 Z m 0.975,0.4775 -1.07625,0.155 -0.1,0.635 L 8.722,14.54 9.447,11.11375 10.1845,11.0075 11.85575,14.08875 11.01325,14.21 Z"/><path fill="#ffeb06" d="m 13.7225,10.932 -0.965,0.205 0.555,2.6175 -0.775,0.165 -0.55625,-2.6175 -0.9475,0.20125 -0.12625,-0.59875 2.6875,-0.57125 z"/><path fill="#ffeb06" d="m 16.0925,11.688875 -1.21625,0.27375 0.1725,0.7675 1.43625,-0.32375 0.13375,0.59375 -2.20875,0.49875 -0.7225,-3.20875 2.21375,-0.49875 0.135,0.5975 -1.44125,0.325 0.1525,0.67625 1.21625,-0.27375 z"/><path fill="#ffeb06" d="m 20.313125,10.750125 c -0.03,-0.325 -0.1075,-0.5675 -0.2325,-0.72625 -0.125,-0.1575 -0.2875,-0.2275 -0.49,-0.20875 -0.39625,0.0375 -0.5775,0.35375 -0.54375,0.94875 l 0.02,0.24125 c 0.03,0.32 0.10625,0.5625 0.22875,0.725 0.1225,0.1625 0.28875,0.23375 0.49875,0.21375 0.19875,-0.01875 0.345,-0.1175 0.4375,-0.2975 0.09125,-0.17875 0.12375,-0.4275 0.095,-0.745 z m 0.815,0.0625 c 0.03,0.31875 -0.0025,0.6075 -0.0975,0.86375 -0.095,0.2575 -0.24625,0.4625 -0.4525,0.615 -0.205,0.1525 -0.4475,0.2425 -0.72625,0.26875 -0.27875,0.02625 -0.5325,-0.015 -0.76,-0.1225 -0.2275,-0.1075 -0.41375,-0.27625 -0.55625,-0.5025 -0.14375,-0.2275 -0.23125,-0.495 -0.26625,-0.8025 l -0.0175,-0.185 c -0.03,-0.32125 0.0025,-0.61 0.09625,-0.865 0.095,-0.25625 0.24625,-0.46125 0.45375,-0.615 0.2075,-0.15375 0.45,-0.245 0.73,-0.27125 0.27875,-0.025 0.53125,0.0175 0.76125,0.12875 0.23,0.1125 0.41625,0.28375 0.56,0.51625 0.1425,0.2325 0.23,0.50625 0.26125,0.82 z"/><path fill="#ffeb06" d="m 23.464375,11.079125 -1.27875,0.0087 0.0087,1.31 -0.7925,0.005 -0.02125,-3.28875 2.19875,-0.01375 0.005,0.61125 -1.4075,0.01 0.005,0.75625 1.2775,-0.0088 z"/><path fill="#ffeb06" d="m 27.703875,11.127375 c 0.05,-0.3225 0.03375,-0.57625 -0.0475,-0.76 -0.0825,-0.18375 -0.22375,-0.2925 -0.42375,-0.32375 -0.3925,-0.06125 -0.6475,0.20125 -0.76,0.78625 l -0.04,0.23875 c -0.05,0.31875 -0.035,0.57125 0.045,0.75875 0.0775,0.1875 0.22125,0.2975 0.43,0.33 0.1975,0.03125 0.3625,-0.02875 0.49625,-0.18 0.13375,-0.15125 0.225,-0.385 0.27625,-0.7 z m 0.775,0.26 c -0.05,0.3175 -0.1525,0.58875 -0.3075,0.81375 -0.155,0.22625 -0.35125,0.3875 -0.58875,0.48625 -0.23625,0.0975 -0.49375,0.125 -0.77125,0.08125 -0.27625,-0.0425 -0.51125,-0.145 -0.705,-0.305 -0.19625,-0.16125 -0.33375,-0.36875 -0.41625,-0.62375 -0.08375,-0.255 -0.10375,-0.53625 -0.06125,-0.84375 l 0.0275,-0.1825 c 0.05,-0.31875 0.15125,-0.59125 0.30625,-0.815 0.155,-0.225 0.3525,-0.3875 0.59,-0.48625 0.24,-0.09875 0.4975,-0.12625 0.775,-0.0825 0.27625,0.04375 0.51,0.1475 0.70625,0.31125 0.195,0.165 0.33375,0.3775 0.41625,0.6375 0.08125,0.26 0.1,0.5475 0.0525,0.86 z"/><path fill="#ffeb06" d="m 29.53375,11.44225 0.48875,0.11 c 0.1475,0.03375 0.26625,0.02 0.3575,-0.04 0.09125,-0.06125 0.15375,-0.16 0.18375,-0.29875 0.0325,-0.13875 0.01875,-0.255 -0.0375,-0.35125 -0.0575,-0.09625 -0.15875,-0.16 -0.30375,-0.1925 l -0.49,-0.11125 z m 0.285,0.69 -0.41875,-0.095 -0.25625,1.135 -0.77375,-0.175 0.72375,-3.2075 1.2625,0.285 c 0.38,0.08625 0.65875,0.2375 0.835,0.455 0.17625,0.21625 0.23,0.47875 0.16,0.7875 -0.05,0.2225 -0.13625,0.3975 -0.26125,0.52375 -0.12375,0.12625 -0.29,0.21375 -0.50375,0.26125 l 0.3775,1.44625 -0.0075,0.0325 -0.8275,-0.18625 z"/><path fill="#ffeb06" d="m 33.444875,12.699 -1.22,-0.2575 -0.16125,0.77 1.44125,0.3025 -0.12625,0.5975 -2.21625,-0.4675 0.6775,-3.2175 2.22125,0.46875 -0.12625,0.59875 -1.44625,-0.305 -0.1425,0.67875 1.22125,0.2575 z"/><path fill="#ffeb06" d="m 36.333,14.12725 c -0.13875,0.1175 -0.33125,0.20125 -0.575,0.25125 -0.24375,0.05 -0.505,0.05625 -0.7825,0.0175 -0.42625,-0.05875 -0.75,-0.23625 -0.9675,-0.53125 -0.22,-0.29625 -0.30625,-0.67875 -0.26,-1.14625 l 0.03625,-0.2825 c 0.04375,-0.32 0.13875,-0.5925 0.285,-0.81625 0.1475,-0.22375 0.335,-0.385 0.56375,-0.48625 0.2275,-0.1 0.48125,-0.13125 0.75875,-0.0925 0.405,0.05625 0.7075,0.1925 0.9075,0.40875 0.19875,0.21625 0.29125,0.5125 0.2775,0.885 L 35.8205,12.231 c -0.0013,-0.18625 -0.04125,-0.32375 -0.12125,-0.41375 -0.0775,-0.08875 -0.2,-0.145 -0.36375,-0.1675 -0.19625,-0.0275 -0.36,0.035 -0.49,0.18625 -0.13125,0.15375 -0.21875,0.38375 -0.2625,0.69375 l -0.0275,0.1975 c -0.045,0.325 -0.0225,0.57625 0.06625,0.755 0.08875,0.17875 0.2525,0.285 0.49,0.3175 0.205,0.02875 0.3625,0.0038 0.475,-0.07375 l 0.07,-0.505 -0.54625,-0.07625 0.075,-0.53875 1.33125,0.18375 z"/><path fill="#ffeb06" d="M 38.75125,12.9535 C 38.7675,12.62725 38.725,12.37725 38.625,12.20225 c -0.10125,-0.175 -0.2525,-0.2675 -0.455,-0.2775 -0.39625,-0.02 -0.6225,0.2675 -0.675,0.86125 l -0.015,0.24125 c -0.015,0.32125 0.025,0.57125 0.12375,0.75 0.0975,0.17875 0.25125,0.2725 0.4625,0.28375 0.2,0.01 0.3575,-0.0675 0.475,-0.23125 0.1175,-0.165 0.18375,-0.40625 0.2025,-0.725 z M 39.55,13.13225 c -0.0175,0.32 -0.09125,0.6 -0.2225,0.84 -0.13125,0.24125 -0.30875,0.4225 -0.535,0.54375 -0.225,0.1225 -0.47875,0.1775 -0.7575,0.1625 -0.28,-0.01375 -0.52375,-0.09125 -0.73375,-0.23 -0.21125,-0.14 -0.37,-0.3325 -0.47875,-0.5775 -0.11,-0.245 -0.15875,-0.5225 -0.14875,-0.8325 l 0.0087,-0.185 c 0.01625,-0.3225 0.09,-0.6025 0.22,-0.8425 0.13125,-0.24 0.31,-0.42125 0.53625,-0.54375 0.2275,-0.12375 0.48125,-0.1775 0.76375,-0.1625 0.27625,0.01375 0.5225,0.0925 0.7325,0.23625 0.21125,0.1425 0.37125,0.34 0.48,0.59 0.10875,0.25 0.15625,0.53375 0.1425,0.84875 z"/><path fill="#ffeb06" d="m 42.6465,14.577 -0.7875,0.04625 -1.285,-1.9725 0.12125,2.0425 -0.79,0.0475 -0.19625,-3.2825 0.79125,-0.0475 1.28375,1.9725 -0.1225,-2.04125 0.78875,-0.0475 z"/><path fill="#ffeb06" d="m 20.64825,26.359875 h -0.1625 v 0.4425 H 20.3545 v -0.4425 h -0.16 v -0.1 h 0.45375 z"/><path fill="#ffeb06" d="m 21.212125,26.80175 h -0.13 V 26.5755 h -0.1925 v 0.22625 h -0.13125 v -0.5425 h 0.13125 v 0.21625 h 0.1925 v -0.21625 h 0.13 z"/><path fill="#ffeb06" d="M 21.68575,26.57225 H 21.4795 v 0.13 h 0.24375 v 0.1 h -0.375 v -0.5425 h 0.375 v 0.1 H 21.4795 V 26.476 h 0.20625 z"/><path fill="#ffeb06" d="m 22.551875,26.25975 v 0.355 c 0,0.03875 -0.0087,0.075 -0.02625,0.105 -0.0175,0.03 -0.04125,0.05125 -0.07375,0.06625 -0.03125,0.01625 -0.06875,0.02375 -0.11375,0.02375 -0.06625,0 -0.1175,-0.01625 -0.155,-0.05125 -0.03875,-0.035 -0.0575,-0.08125 -0.05875,-0.14125 v -0.3575 h 0.13125 V 26.621 c 0.0013,0.0575 0.03,0.0875 0.0825,0.0875 0.0275,0 0.0475,-0.0063 0.06125,-0.02125 0.015,-0.015 0.0225,-0.03875 0.0225,-0.07375 v -0.35375 z"/><path fill="#ffeb06" d="m 23.142125,26.80175 h -0.13 l -0.1925,-0.3375 v 0.3375 h -0.13125 v -0.5425 h 0.13125 l 0.1925,0.33875 v -0.33875 h 0.13 z"/><path fill="#ffeb06" d="m 23.4175,26.80125 h -0.13 v -0.5425 h 0.13 z"/><path fill="#ffeb06" d="m 23.890375,26.5185 c 0,-0.05375 -0.0087,-0.09375 -0.02625,-0.1225 -0.01875,-0.0275 -0.045,-0.04125 -0.07875,-0.04125 -0.065,0 -0.1,0.04875 -0.10375,0.1475 v 0.04 c 0,0.05375 0.01,0.09375 0.02625,0.1225 0.01875,0.03 0.045,0.0425 0.08,0.0425 0.03125,0 0.0575,-0.0125 0.07625,-0.0425 0.01625,-0.0275 0.02625,-0.0675 0.02625,-0.12 z m 0.1325,0.02375 c 0,0.05375 -0.0087,0.1 -0.02875,0.14125 -0.02,0.04 -0.04625,0.07125 -0.0825,0.0925 -0.0375,0.0225 -0.07875,0.03375 -0.12375,0.03375 -0.04625,0 -0.08875,-0.01 -0.12375,-0.0325 -0.035,-0.02125 -0.06375,-0.05125 -0.08375,-0.09 -0.02125,-0.03875 -0.03,-0.08625 -0.03125,-0.1375 v -0.03 c 0,-0.0525 0.0087,-0.1 0.03,-0.14 0.01875,-0.04125 0.04625,-0.0725 0.08125,-0.095 0.0375,-0.0225 0.08,-0.0325 0.125,-0.0325 0.04625,0 0.0875,0.01 0.125,0.0325 0.03375,0.02125 0.0625,0.0525 0.0825,0.09375 0.02125,0.04 0.03,0.08625 0.03,0.13875 z"/><path fill="#ffeb06" d="m 24.599625,26.80175 h -0.13 l -0.1925,-0.3375 v 0.3375 h -0.13125 v -0.5425 h 0.13125 l 0.1925,0.33875 v -0.33875 h 0.13 z"/><path fill="#ffeb06" d="m 17.8925,35.88375 h -0.87 V 32.595 h 0.87 z"/><path fill="#ffeb06" d="m 20.103125,33.136 c -0.1125,0 -0.19875,0.0325 -0.2575,0.1 -0.0575,0.0675 -0.0875,0.16 -0.0875,0.27875 0,0.1175 0.03,0.2125 0.08875,0.28375 0.06,0.07375 0.14875,0.10875 0.26375,0.10875 0.115,0 0.2,-0.035 0.2575,-0.10875 0.0575,-0.07125 0.085,-0.16625 0.085,-0.28375 0,-0.1175 -0.02875,-0.21 -0.0875,-0.2775 -0.05875,-0.06875 -0.14625,-0.10125 -0.2625,-0.10125 m 0.4225,1.78125 c 0,-0.13625 -0.03875,-0.24 -0.115,-0.3125 -0.0775,-0.07375 -0.17875,-0.11 -0.305,-0.11 -0.12625,0 -0.2275,0.03625 -0.305,0.11 -0.07875,0.0725 -0.11625,0.17625 -0.11625,0.3125 0,0.13125 0.03875,0.23375 0.1175,0.31125 0.07875,0.075 0.18125,0.11375 0.30875,0.11375 0.12375,0 0.225,-0.03875 0.30125,-0.1125 0.07625,-0.07625 0.11375,-0.18 0.11375,-0.3125 m 0.7675,-1.4425 c 0,0.15875 -0.04375,0.3 -0.13,0.42125 -0.0875,0.1225 -0.20625,0.22 -0.35875,0.29375 0.17125,0.07625 0.30875,0.18125 0.41,0.31625 0.1,0.1325 0.15125,0.29 0.15125,0.4725 0,0.29375 -0.1125,0.52625 -0.33375,0.695 -0.22375,0.17 -0.53,0.255 -0.92125,0.255 -0.3925,0 -0.7025,-0.085 -0.92875,-0.25625 -0.22625,-0.17 -0.34,-0.4025 -0.34,-0.69375 0,-0.17625 0.04875,-0.3325 0.14875,-0.4675 0.09875,-0.13625 0.24,-0.2425 0.4225,-0.32125 -0.15375,-0.07375 -0.275,-0.17125 -0.3625,-0.29375 -0.08875,-0.12125 -0.1325,-0.2625 -0.1325,-0.42125 0,-0.28625 0.1075,-0.5125 0.32125,-0.6775 0.2125,-0.16625 0.50125,-0.24875 0.86375,-0.24875 0.36625,0 0.65625,0.0825 0.87,0.24875 0.21375,0.165 0.32,0.39125 0.32,0.6775"/><path fill="#ffeb06" d="m 22.257125,34.277375 0.22125,-1.6825 h 2.11375 v 0.5875 h -1.43375 l -0.08125,0.6575 c 0.05875,-0.03125 0.1375,-0.05875 0.235,-0.08375 0.09625,-0.02375 0.19125,-0.035 0.28375,-0.035 0.35875,0 0.635,0.09625 0.8275,0.28875 0.19375,0.19375 0.29,0.465 0.29,0.81375 0,0.21125 -0.05125,0.4025 -0.155,0.57375 -0.10375,0.17 -0.24875,0.3025 -0.43625,0.39375 -0.18625,0.09125 -0.4075,0.1375 -0.6625,0.1375 -0.2275,0 -0.44125,-0.0425 -0.63875,-0.12625 -0.19875,-0.08625 -0.355,-0.2025 -0.4675,-0.35125 -0.1125,-0.1475 -0.1675,-0.315 -0.16625,-0.50125 h 0.83875 c 0.01,0.12 0.05125,0.215 0.1275,0.28625 0.07625,0.07 0.17625,0.10625 0.30125,0.10625 0.28125,0 0.4225,-0.19 0.4225,-0.56875 0,-0.35 -0.1725,-0.52375 -0.5175,-0.52375 -0.19375,0 -0.34125,0.055 -0.4375,0.17 z"/><path fill="#ffeb06" d="m 26.829875,34.284625 c 0.1825,0 0.3125,-0.07125 0.3925,-0.215 v -0.31625 c 0,-0.21 -0.03875,-0.36625 -0.11625,-0.4675 -0.07875,-0.1 -0.18375,-0.15 -0.31625,-0.15 -0.1175,0 -0.21625,0.05625 -0.29625,0.17125 -0.07875,0.115 -0.1175,0.2525 -0.1175,0.41625 0,0.17125 0.04,0.3075 0.12,0.40875 0.0825,0.1025 0.19375,0.1525 0.33375,0.1525 m 0.38,0.3275 c -0.18125,0.1475 -0.3825,0.22125 -0.60625,0.22125 -0.3275,0 -0.5875,-0.10125 -0.78,-0.3025 -0.1925,-0.20125 -0.2875,-0.47125 -0.2875,-0.8075 0,-0.21125 0.05375,-0.40625 0.16125,-0.5875 0.1075,-0.18 0.25875,-0.325 0.4525,-0.43 0.195,-0.105 0.41,-0.1575 0.64625,-0.1575 0.2375,0 0.45375,0.05375 0.64625,0.16375 0.19375,0.10875 0.34375,0.26375 0.45125,0.4625 0.1075,0.19875 0.1625,0.43 0.165,0.69 v 0.29125 c 0,0.3625 -0.0775,0.6775 -0.23375,0.94375 -0.15625,0.26625 -0.38,0.47125 -0.66875,0.615 -0.29125,0.1425 -0.62875,0.21375 -1.015,0.21375 h -0.05125 v -0.60875 l 0.15875,-0.0025 c 0.57625,-0.025 0.89625,-0.26125 0.96125,-0.705"/></svg>