<svg xmlns="http://www.w3.org/2000/svg" viewBox="0 0 45 45"><path fill="#eeeeee" d="m 16.256024,38.75 h 23.74342 c 2.761212,0 4.999931,-2.238719 4.999931,-4.999931 V 22.500225 H 16.256024 Z"/><path fill="#c0022d" d="M 16.255399,22.500225 H 45 V 11.250382 C 45,8.4891704 42.761281,6.2504514 40.000069,6.2504514 h -23.74467 z"/><path fill="#002468" d="M 16.256024,6.2504514 H 4.9999306 C 2.2387189,6.2504514 0,8.4891704 0,11.250382 V 33.750069 C 0,36.511281 2.2387189,38.75 4.9999306,38.75 H 16.256024 Z"/><path fill="#ffcb00" d="m 8.3038847,33.483948 c 3.7224483,0 6.0024163,-1.641227 6.0024163,-1.641227 l -0.274996,-0.494994 c 0,0 0.522493,-0.282496 0.964987,-0.599991 0.442494,-0.317496 0.752489,-0.599992 0.752489,-0.599992 l -1.179983,-0.02 0.293746,-1.607478 c 0,0 -1.131235,0.707491 -1.673727,0.926237 -0.623742,0.249997 -0.874988,0.218748 -1.051236,0.371245 -0.0775,0.0675 -0.01625,0.233747 0.01125,0.282497 0.06625,0.117498 0.292496,0.419994 0.292496,0.419994 0,0 -1.44123,0.789989 -4.1374423,0.789989 -2.6949626,0 -4.1374426,-0.789989 -4.1374426,-0.789989 0,0 0.2262469,-0.302496 0.292496,-0.419994 0.02875,-0.04875 0.089999,-0.214998 0.0125,-0.282497 C 4.2951903,29.665251 4.0439438,29.6965 3.4202025,29.446504 2.87646,29.227757 1.7452258,28.520267 1.7452258,28.520267 l 0.2949959,1.607477 -1.18123363,0.02 c 0,0 0.30999573,0.282497 0.75248953,0.599992 0.4437439,0.317495 0.9649866,0.599991 0.9649866,0.599991 L 2.302718,31.842721 c 0,0 2.2787184,1.641227 6.0011667,1.641227"/><path fill="#ffcb00" d="m 11.87071,22.846346 c 0,-1.49748 0.509993,-2.152471 1.48248,-2.152471 1.37998,0 1.223733,1.506229 1.223733,1.506229 l -0.688741,-0.01375 c 0,0 0.06125,-0.676241 -0.578742,-0.676241 -0.638741,0 -0.71749,0.73249 -0.71749,1.336232 0,0.603741 0.07875,1.366231 0.71749,1.366231 0.639991,0 0.578742,-0.77624 0.578742,-0.77624 l 0.688741,-0.01375 c 0,0 0.156247,1.606228 -1.223733,1.606228 -0.972487,0 -1.48248,-0.68374 -1.48248,-2.182469"/><path fill="#ffffff" d="m 8.3038847,20.195507 0.5887418,1.908724 1.9962225,-0.03125 -1.6337275,1.149984 0.646241,1.889974 -1.5974778,-1.198733 -1.5974778,1.198733 0.646241,-1.889974 -1.6337273,-1.149984 1.9974722,0.03125 z"/><path fill="#ffcb00" d="m 3.9331954,20.882873 v 2.579964 L 2.7969612,20.882873 H 2.0557214 v 4.116193 h 0.651241 v -2.809961 l 1.2049833,2.809961 h 0.6724906 v -4.116193 z"/><path fill="#ffcb00" d="m 8.3038847,11.552627 c 3.7224483,0 6.0024163,1.641228 6.0024163,1.641226 l -0.274996,0.494993 c 0,0 0.522493,0.282497 0.964987,0.599992 0.442494,0.317496 0.752489,0.599992 0.752489,0.599992 l -1.179983,0.02 0.293746,1.607478 c 0,0 -1.131235,-0.70749 -1.673727,-0.926237 -0.623742,-0.249996 -0.874988,-0.218747 -1.051236,-0.371245 -0.0775,-0.0675 -0.01625,-0.233747 0.01125,-0.282496 0.06625,-0.117498 0.292496,-0.419994 0.292496,-0.419994 0,0 -1.44123,-0.789989 -4.1374425,-0.789989 -2.6949625,0 -4.1374425,0.789989 -4.1374425,0.789989 0,0 0.2262469,0.302496 0.2924959,0.419994 0.02875,0.04875 0.089999,0.214997 0.0125,0.282496 -0.1762477,0.152497 -0.4274942,0.121248 -1.0512355,0.371244 -0.5437425,0.218747 -1.6749768,0.926237 -1.6749768,0.926237 l 0.2949959,-1.607478 -1.18123356,-0.02 c 0,0 0.30999566,-0.282496 0.75248956,-0.599992 0.4437438,-0.317495 0.9649866,-0.599992 0.9649866,-0.599992 L 2.302718,13.193855 c 0,0 2.2787184,-1.641228 6.0011667,-1.641228"/></svg>