<svg xmlns="http://www.w3.org/2000/svg" viewBox="0 0 45 45"><path fill="#002d72" d="m 45,33.75 v -22.5 c 0,-2.76125 -2.23875,-5 -5,-5 H 5 c -2.76125,0 -5,2.23875 -5,5 v 22.5 c 0,2.76125 2.23875,5 5,5 h 35 c 2.76125,0 5,-2.23875 5,-5"/><path fill="#ff3515" d="m 29.58375,16.860375 -1.19625,1.82 0.3375,0.2675 v 1.825 l 0.07625,0.2275 -0.07625,8.52125 -0.835,1.77625 h 1.69375 v -8.32875 l 0.61125,-2.8325 -0.11625,-1.1525 -0.495,0.66375 z"/><path fill="#ff3515" d="m 33.828125,20.404625 h -0.85875 v 4.16625 l -0.255,3.8275 0.255,2.89875 h 1.3475 l -0.52375,-0.98 -0.1825,-5.01625 0.57875,-0.54125 z"/><path fill="#f2a900" d="m 32.911375,17.161875 -1.0075,-0.30125 -1.11625,-0.125 -1.20375,0.125 v 2.7875 l 0.49375,-0.66375 0.1175,1.1525 -0.61125,2.8325 v 8.32875 h 3.385 l -0.25375,-2.9 0.25375,-3.8275 v -5.25375 l 0.28875,-1.3225 z"/><path fill="#ffd9ee" d="m 31.90425,15.257625 -0.43375,-0.57125 -0.68375,0.57125 v 1.4775 l 1.1175,0.125 z"/><path fill="#ffd9ee" d="m 28.724375,19.992625 -3.14875,-2.495 v -0.57875 h 0.60875 l 2.54,2.03 z"/><path fill="#ffd9ee" d="m 33.828125,20.404625 0.69375,-3.54375 h -1.015 l -0.5375,2.455 v 1.08875 z"/><path fill="#d18644" d="m 29.956,16.821875 c 0.0025,0 0.485,-1.4325 0.485,-1.4325 l 0.30125,-0.44125 0.11875,-0.55875 0.3375,-0.14625 0.4775,0.1025 0.265,0.41875 0.2575,1.375 0.32375,0.35375 v 0.5525 l -0.6175,-0.185 v -1.6025 l -0.43375,-0.57125 -0.68375,0.57125 v 1.4775 z"/><path fill="#ffffff" d="m 25.629875,16.919 0.1075,-5.3775 h 0.09375 l 0.1075,5.3775 z"/><path fill="#ff3515" d="m 16.26225,19.51725 0.3575,9.64125 0.83375,1.77625 h -1.69375 l -0.22375,-4.1325 0.22125,-2.70625 -0.53,-3.75 0.0375,-1.72375 0.4975,2.08 z"/><path fill="#ff3515" d="m 11.55025,20.87275 0.21125,-0.225 0.59875,-1.92 0.235,1.72125 -0.52875,1.42625 -0.045,2.235 0.3825,1.72125 0.35375,5.10375 -0.98625,0.16125 -1.0975,-1.53 0.03,-1.4125 -0.255,-0.18625 0.1375,-1.68625 -0.23625,-0.175 0.84125,-5.8225 z"/><path fill="#0077c8" d="m 12.12525,16.94825 1.29625,-0.3825 1.13,0.17 1.03,0.36 0.8475,1.30375 -0.16625,1.1175 -0.5,1.185 -0.4975,-2.08 -0.0375,1.72375 0.53,3.75 -0.22125,2.70625 0.22375,4.1325 h -3.0025 L 12.404,25.83075 12.0215,24.1095 l 0.045,-2.235 0.52875,-1.42625 -0.235,-1.72 -0.59875,1.92 -0.21125,0.225 -0.50125,-0.8225 h 0.61 v -1.0875 l -0.185,-0.9725 z"/><path fill="#ffd9ee" d="m 13.421625,15.208125 0.61,-0.6425 0.52,0.3975 v 1.7725 l -1.13,-0.17 z"/><path fill="#ffd9ee" d="m 16.26225,19.51725 0.49,0.15625 2.8825,-1.93 v -0.57875 h -0.6075 L 16.651,18.746 16.4285,18.39975 Z"/><path fill="#ffd9ee" d="M 11.04925,20.05125 10.5405,19.085 10.1055,16.1325 h 1.015 l 0.53875,2.83 v 1.08875 z"/><path fill="#d18644" d="m 15.51325,17.072125 -0.6575,-1.38375 0.0075,-0.6325 -0.33625,-0.45125 -0.1575,-0.39625 -0.36625,-0.19125 -0.48125,0.20625 -0.17125,0.49 -0.3125,0.19 -0.01125,0.78 -0.42625,0.3975 -0.32125,0.8225 1.1425,-0.3375 v -1.33875 l 0.61,-0.66125 0.51875,0.3975 v 1.77125 z"/><path fill="#ffffff" d="m 22.5,35.9485 c -5.30125,0 -8.28,-1.94875 -8.28,-1.94875 L 14.74625,33.066 10.7825,33.04475 c 0,0 0.025,0.12875 0.1875,0.41875 0.155,0.2725 0.34625,0.3875 0.34625,0.5475 0,0.2375 -0.94875,0.23625 -0.94875,0.23625 L 10.235,33.831 c 0,0 -0.02875,0.05875 -0.34125,0.05875 -0.15875,0 -0.275,-0.05375 -0.33625,-0.1325 C 9.50375,33.69225 9.44875,33.601 9.44875,33.601 l -0.8875,-1.755 c 0,0 0.6075,-0.43125 1.28,-0.43125 0.445,0 5.495,-0.12375 6.92625,-0.12375 1.43125,0 1.8375,0.08375 2.05375,0.20625 0.215,0.1225 0.17125,0.3675 0.17125,0.3675 0,0 -0.19125,0.7275 -0.31875,1.2125 -0.1275,0.48375 -0.26,0.72375 -0.26,0.72375 0,0 0.95,0.22125 1.79125,0.35625 0.72875,0.1175 1.10125,0.15375 2.295,0.15375 1.19375,0 1.5675,-0.03625 2.295,-0.15375 0.8425,-0.135 1.79125,-0.35625 1.79125,-0.35625 0,0 -0.1325,-0.24 -0.25875,-0.72375 -0.12875,-0.485 -0.32,-1.2125 -0.32,-1.2125 0,0 -0.04375,-0.245 0.17125,-0.3675 0.215,-0.1225 0.6225,-0.20625 2.05375,-0.20625 1.43125,0 6.48125,0.12375 6.9275,0.12375 0.67125,0 1.27875,0.43125 1.27875,0.43125 l -0.8875,1.755 c 0,0 -0.05625,0.09125 -0.10875,0.15625 -0.06125,0.07875 -0.17625,0.1325 -0.33625,0.1325 -0.3125,0 -0.34125,-0.05875 -0.34125,-0.05875 l -0.1325,0.41625 c 0,0 -0.94875,0.0013 -0.94875,-0.23625 0,-0.16 0.19125,-0.275 0.34625,-0.5475 0.1625,-0.29 0.18625,-0.41875 0.18625,-0.41875 l -3.9625,0.02125 0.525,0.93375 c 0,0 -2.9775,1.94875 -8.27875,1.94875"/><path fill="#0077c8" d="m 24.4775,15.57375 c 0,-1.0925 -0.885,-1.97875 -1.9775,-1.97875 -1.0925,0 -1.97875,0.88625 -1.97875,1.97875 0,1.0925 0.88625,1.9775 1.97875,1.9775 1.0925,0 1.9775,-0.885 1.9775,-1.9775"/><path fill="#b3875a" d="m 23.294625,12.85275 c 0,0 1.02875,-0.05875 2.08,-1.16125 1.0525,-1.10375 1.28625,-1.83125 1.28625,-1.83125 0,0 0.3275,-0.01875 0.6625,-0.21 0.18875,-0.10625 0.2425,-0.28625 0.2425,-0.28625 0,0 -1.91125,0.23125 -2.625,0.34875 -0.7125,0.11875 -0.9475,0.13625 -1.0325,0.25375 -0.04625,0.06375 -0.0525,0.34625 -0.18875,0.59125 -0.115,0.20375 -0.31875,0.3975 -0.5575,0.3975 -0.225,0 -0.37,-0.065 -0.48625,-0.24875 -0.17,-0.26875 -0.27875,-0.68875 -0.27875,-0.68875 h 0.125 l -0.125,-0.23125 0.1025,-0.06625 c 0,0 -0.39375,-0.2425 -0.6025,-0.2425 -0.21,0 -0.33875,0.1475 -0.33875,0.1475 0,0 -0.125,-0.03375 -0.215,0.025 -0.09,0.05875 -0.10375,0.11375 -0.10375,0.11375 0,0 0.06875,-0.03 0.2,-0.03 0.13125,0 0.205,0.0425 0.2575,0.07625 0.12625,0.08125 0.27375,1.035 0.04,1.22375 -0.1825,0.14875 -0.88375,0.1 -1.04625,-0.095 -0.2425,-0.295 -0.07125,-0.525 -0.32375,-0.84625 -0.30625,-0.39 -1.53875,-0.50875 -2.55625,-0.7175 -0.7225,-0.14875 -1.2575,-0.30875 -1.2575,-0.30875 0,0 1.01875,1.29 2.415,2.47 1.77,1.495 2.63875,0.95875 2.63875,0.95875 0,0 0.1325,0.05 0.17,0.125 0.03375,0.0675 -0.07125,0.095 0.0125,0.2425 0.09875,0.1725 0.18125,0.355 0.19625,0.365 0.02875,0.02 0.4725,-0.11 0.485,-0.14 0.0125,-0.02875 -0.10875,-0.3375 -0.09875,-0.47 0.01,-0.1325 0.19625,-0.06625 0.19625,-0.06625 0,0 0.05125,0.21125 0.235,0.41625 0.18375,0.20625 0.43125,0.1625 0.47875,0.09875 0.04625,-0.06375 0.0125,-0.21375 0.0125,-0.21375"/><path fill="#ffd90f" d="m 18.941,18.021875 c 0,0 -0.19,0.7325 -0.84,1.285 -0.6825,0.5775 -1.295,0.6075 -1.295,0.6075 l -0.42125,0.76 c 0,0 0.995,0.51 0.995,1.6275 0,1.1075 -0.8475,1.66125 -0.8475,1.66125 v 5.34375 c 0,0 -0.0175,0.28875 0.11,0.525 0.12375,0.22625 0.365,0.3425 0.365,0.3425 l 5.4925,3.1475 5.49375,-3.1475 c 0,0 0.24125,-0.11625 0.36375,-0.3425 0.1275,-0.23625 0.11125,-0.525 0.11125,-0.525 v -5.34375 c 0,0 -0.84875,-0.55375 -0.84875,-1.66125 0,-1.1175 0.99625,-1.6275 0.99625,-1.6275 l -0.4225,-0.76 c 0,0 -0.6125,-0.03 -1.29375,-0.6075 -0.65125,-0.5525 -0.84125,-1.285 -0.84125,-1.285 z"/><path fill="#002d72" d="m 17.44875,27.274125 v 2.10125 l 5.05125,2.89625 5.05125,-2.89625 v -2.10125 z"/><path fill="#197352" d="m 17.44875,27.274125 v -2.48125 l 0.74625,-0.3125 0.61125,0.2625 0.77875,-0.56 0.35875,0.055 1.225,-0.34875 0.36875,-0.015 0.44125,-0.48375 0.74125,-0.39375 1.2625,0.3825 2.13375,1.59875 0.91875,-0.40125 0.51625,0.21625 v 2.48125 z"/><path fill="#0077c8" d="m 17.44875,24.7925 v -0.46125 c 0,0 0.845,-0.74375 0.845,-2.0075 0,-1.015 -0.6175,-1.70625 -0.6175,-1.70625 0,0 0.5525,-0.19375 1.05125,-0.63 0.61375,-0.53375 0.81375,-1.04875 0.81375,-1.04875 H 22.5 25.4575 c 0,0 0.20125,0.515 0.815,1.04875 0.5,0.43625 1.05,0.63 1.05,0.63 0,0 -0.6175,0.69125 -0.6175,1.70625 0,1.26375 0.84625,2.0075 0.84625,2.0075 V 24.7925 L 27.035,24.57625 26.11625,24.9775 23.9825,23.37875 22.72,22.99625 21.97875,23.39 l -0.44125,0.485 -0.36875,0.01375 -1.225,0.35 L 19.585,24.18375 18.80625,24.7425 18.195,24.48 Z"/></svg>