<svg xmlns="http://www.w3.org/2000/svg" viewBox="0 0 45 45"><path fill="#bf0a30" d="m 0,33.75 c 0,2.76125 2.23875,5 5,5 h 35 c 2.76125,0 5,-2.23875 5,-5 v -22.5 c 0,-2.76125 -2.23875,-5 -5,-5 H 5 c -2.76125,0 -5,2.23875 -5,5 z"/><path fill="#002868" d="M 2.19175,22.36025 22.4205,36.0415 42.80925,22.36025 22.4205,8.95775 Z"/><path fill="#ffffff" d="m 7.2565,22.395 15.18375,10.27 15.3025,-10.27 -15.3025,-10.05875 z"/><path fill="#002868" d="m 14.30475,21.570375 h 0.57375 l -0.2875,-0.85875 z m 0.7025,0.38375 H 14.176 l -0.1575,0.47375 H 13.516 l 0.855,-2.2975 h 0.43875 l 0.86,2.2975 H 15.166 Z"/><path fill="#002868" d="m 16.51,21.203 h 0.38125 c 0.11875,0 0.21125,-0.03 0.27625,-0.09125 0.06625,-0.06 0.0975,-0.1425 0.0975,-0.24875 0,-0.10875 -0.03,-0.195 -0.09125,-0.2575 C 17.11125,20.54425 17.0175,20.513 16.89,20.513 h -0.38 z m 0.37625,0.38375 H 16.51 v 0.84 H 16.03625 V 20.1305 H 16.89 c 0.27125,0 0.48,0.06 0.62875,0.18125 0.14625,0.12125 0.22,0.2925 0.22,0.5125 0,0.15625 -0.03375,0.2875 -0.10125,0.3925 -0.0675,0.105 -0.17125,0.1875 -0.30875,0.25 l 0.4975,0.93875 v 0.02125 H 17.3175 Z"/><path fill="#002868" d="m 18.970375,21.506375 -0.24625,0.265 v 0.65625 h -0.47375 v -2.2975 h 0.47375 v 1.04125 l 0.20875,-0.28625 0.585,-0.755 h 0.5825 l -0.81625,1.02 0.84,1.2775 h -0.56375 z"/><path fill="#002868" d="M 21.04925,21.570375 H 21.623 l -0.2875,-0.85875 z m 0.7025,0.38375 h -0.83 l -0.15875,0.47375 h -0.5025 l 0.855,-2.2975 h 0.43875 l 0.86,2.2975 H 21.9105 Z"/><path fill="#002868" d="M 24.6485,22.427375 H 24.176 l -0.92125,-1.51125 v 1.51125 h -0.475 v -2.2975 h 0.475 l 0.9225,1.515 v -1.515 h 0.47125 z"/><path fill="#002868" d="m 26.405,21.824375 c 0,-0.08875 -0.03,-0.1575 -0.09375,-0.205 -0.06375,-0.04875 -0.1775,-0.09875 -0.3425,-0.1525 -0.1625,-0.0525 -0.2925,-0.105 -0.38875,-0.15625 -0.26,-0.14125 -0.3925,-0.33125 -0.3925,-0.57 0,-0.12375 0.03625,-0.235 0.10625,-0.3325 0.07,-0.0975 0.17,-0.1725 0.30125,-0.2275 0.13,-0.055 0.2775,-0.0825 0.44125,-0.0825 0.16375,0 0.31,0.03 0.43875,0.08875 0.12875,0.06 0.2275,0.14375 0.29875,0.2525 0.07125,0.10875 0.1075,0.23125 0.1075,0.37 H 26.4075 c 0,-0.105 -0.0325,-0.1875 -0.1,-0.24625 -0.06625,-0.05875 -0.15875,-0.0875 -0.28,-0.0875 -0.11625,0 -0.205,0.02375 -0.26875,0.0725 -0.06375,0.05 -0.0975,0.11375 -0.0975,0.19375 0,0.075 0.04,0.1375 0.11375,0.18875 0.07625,0.05 0.18625,0.0975 0.3325,0.14125 0.26875,0.08125 0.465,0.18125 0.5875,0.30125 0.12375,0.12 0.18625,0.27 0.18625,0.44875 0,0.19875 -0.07625,0.355 -0.2275,0.4675 -0.15,0.11375 -0.3525,0.17 -0.60625,0.17 -0.1775,0 -0.33875,-0.0325 -0.48375,-0.0975 -0.145,-0.065 -0.255,-0.1525 -0.33125,-0.26625 -0.07625,-0.1125 -0.11375,-0.2425 -0.11375,-0.39125 h 0.475 c 0,0.25375 0.15125,0.38125 0.45375,0.38125 0.1125,0 0.2,-0.02375 0.26375,-0.06875 0.06375,-0.04625 0.09375,-0.11 0.09375,-0.1925"/><path fill="#002868" d="M 27.94675,21.570375 H 28.523 l -0.29,-0.85875 z m 0.7025,0.38375 h -0.83 l -0.1575,0.47375 H 27.158 l 0.85625,-2.2975 h 0.4375 l 0.86125,2.2975 h -0.50375 z"/><path fill="#002868" d="m 30.871625,21.824375 c 0,-0.08875 -0.03125,-0.1575 -0.095,-0.205 -0.0625,-0.04875 -0.1775,-0.09875 -0.34125,-0.1525 -0.16375,-0.0525 -0.29375,-0.105 -0.38875,-0.15625 -0.26125,-0.14125 -0.3925,-0.33125 -0.3925,-0.57 0,-0.12375 0.03625,-0.235 0.105,-0.3325 0.07,-0.0975 0.17,-0.1725 0.3025,-0.2275 0.13,-0.055 0.2775,-0.0825 0.44,-0.0825 0.165,0 0.31125,0.03 0.43875,0.08875 0.12875,0.06 0.22875,0.14375 0.29875,0.2525 0.0725,0.10875 0.1075,0.23125 0.1075,0.37 h -0.47375 c 0,-0.105 -0.0325,-0.1875 -0.09875,-0.24625 -0.0675,-0.05875 -0.16,-0.0875 -0.28,-0.0875 -0.11625,0 -0.20625,0.02375 -0.27,0.0725 -0.06375,0.05 -0.09625,0.11375 -0.09625,0.19375 0,0.075 0.03875,0.1375 0.11375,0.18875 0.075,0.05 0.18625,0.0975 0.3325,0.14125 0.26875,0.08125 0.46375,0.18125 0.58625,0.30125 0.125,0.12 0.18625,0.27 0.18625,0.44875 0,0.19875 -0.075,0.355 -0.22625,0.4675 -0.15125,0.11375 -0.3525,0.17 -0.6075,0.17 -0.1775,0 -0.33875,-0.0325 -0.4825,-0.0975 -0.145,-0.065 -0.25625,-0.1525 -0.33125,-0.26625 -0.0775,-0.1125 -0.115,-0.2425 -0.115,-0.39125 h 0.475 c 0,0.25375 0.15125,0.38125 0.45375,0.38125 0.11375,0 0.20125,-0.02375 0.26375,-0.06875 0.06375,-0.04625 0.095,-0.11 0.095,-0.1925"/><path fill="#ffffff" d="m 22.440125,9.818125 0.22125,0.71 0.745,-0.0075 -0.6075,0.43 0.23875,0.70625 -0.5975,-0.445 -0.5975,0.445 0.2375,-0.70625 -0.60625,-0.43 0.74375,0.0075 z"/><path fill="#ffffff" d="m 25.090375,11.682125 0.435,0.605 0.70375,-0.2425 -0.44125,0.6 0.44875,0.595 -0.7075,-0.23375 -0.42625,0.61 0.0038,-0.745 -0.71375,-0.2175 0.71125,-0.22625 z"/><path fill="#ffffff" d="m 28.023625,13.64325 0.435,0.605 0.70375,-0.2425 -0.44125,0.6 0.44875,0.595 -0.7075,-0.23375 -0.42625,0.60875 0.0038,-0.74375 -0.71375,-0.2175 0.71125,-0.22625 z"/><path fill="#ffffff" d="m 30.941125,15.4785 0.435,0.605 0.70375,-0.2425 -0.44,0.6 0.4475,0.595 -0.70625,-0.23375 -0.4275,0.60875 0.0038,-0.74375 -0.7125,-0.2175 0.71,-0.22625 z"/><path fill="#ffffff" d="m 33.8745,17.431625 0.435,0.60375 0.70375,-0.24125 -0.44,0.6 0.4475,0.595 -0.70625,-0.235 -0.4275,0.61 0.0037,-0.74375 -0.7125,-0.21875 0.71,-0.22625 z"/><path fill="#ffffff" d="m 36.792,19.37625 0.435,0.605 0.70375,-0.2425 -0.44,0.6 0.4475,0.595 L 37.232,20.7 l -0.4275,0.61 0.0038,-0.745 -0.7125,-0.2175 0.71,-0.22625 z"/><path fill="#ffffff" d="m 37.504875,23.38625 -0.435,0.60375 -0.70375,-0.2425 0.44,0.60125 -0.4475,0.59375 0.70625,-0.2325 0.4275,0.60875 -0.0038,-0.745 0.7125,-0.2175 -0.71,-0.225 z"/><path fill="#ffffff" d="m 34.91575,25.119625 -0.435,0.60375 -0.7025,-0.2425 0.44,0.60125 -0.4475,0.59375 0.70625,-0.2325 0.4275,0.60875 -0.005,-0.745 0.71375,-0.2175 -0.71,-0.225 z"/><path fill="#ffffff" d="m 32.3205,26.853 -0.435,0.60375 -0.70375,-0.2425 0.44,0.60125 -0.4475,0.59375 0.70625,-0.23375 0.4275,0.61 -0.0037,-0.745 0.7125,-0.2175 -0.71,-0.22625 z"/><path fill="#ffffff" d="m 29.70825,28.695125 -0.435,0.605 -0.70375,-0.2425 0.44125,0.60125 -0.44875,0.59375 0.7075,-0.23375 0.42625,0.61 -0.0038,-0.745 0.71375,-0.2175 -0.71125,-0.22625 z"/><path fill="#ffffff" d="m 27.111875,30.4285 -0.435,0.605 -0.7025,-0.2425 0.44,0.60125 -0.4475,0.59375 0.70625,-0.23375 0.4275,0.61 -0.005,-0.745 0.71375,-0.2175 -0.71,-0.22625 z"/><path fill="#ffffff" d="m 24.508,32.264375 -0.435,0.60375 -0.70375,-0.24125 0.44125,0.6 -0.44875,0.59375 0.7075,-0.2325 0.4275,0.61 -0.005,-0.745 0.71375,-0.21875 -0.71,-0.225 z"/><path fill="#ffffff" d="m 40.797125,22.3505 -0.71125,0.2225 0.0087,0.74375 -0.43125,-0.60625 -0.70625,0.2375 0.445,-0.5975 -0.445,-0.5975 0.70625,0.2375 0.43125,-0.60625 -0.0087,0.74375 z"/><path fill="#ffffff" d="m 19.789375,11.682125 -0.43375,0.605 -0.705,-0.2425 0.44125,0.6 -0.44875,0.595 0.7075,-0.23375 0.4275,0.61 -0.0038,-0.745 0.71125,-0.2175 -0.70875,-0.22625 z"/><path fill="#ffffff" d="m 16.85675,13.64325 -0.435,0.605 -0.70375,-0.2425 0.44,0.6 -0.4475,0.595 0.70625,-0.23375 0.4275,0.60875 -0.0038,-0.74375 0.7125,-0.2175 -0.71,-0.22625 z"/><path fill="#ffffff" d="m 13.938625,15.4785 -0.435,0.605 -0.70375,-0.2425 0.44125,0.6 -0.44875,0.595 0.7075,-0.23375 0.4275,0.60875 -0.005,-0.74375 0.7125,-0.2175 -0.70875,-0.22625 z"/><path fill="#ffffff" d="m 11.00525,17.431625 -0.435,0.60375 -0.70375,-0.24125 0.44125,0.6 -0.44875,0.595 0.7075,-0.235 0.4275,0.61 -0.005,-0.74375 0.7125,-0.21875 -0.70875,-0.22625 z"/><path fill="#ffffff" d="m 8.08775,19.37625 -0.435,0.605 -0.70375,-0.2425 0.44125,0.6 -0.44875,0.595 L 7.649,20.7 8.0765,21.31 8.0715,20.565 8.784,20.3475 8.07525,20.12125 Z"/><path fill="#ffffff" d="M 4.08325,22.3505 4.7945,22.573 4.78575,23.31675 5.217,22.7105 5.922,22.948 5.477,22.3505 5.922,21.753 5.217,21.9905 4.78575,21.38425 4.7945,22.128 Z"/><path fill="#ffffff" d="M 7.3755,23.38625 7.8105,23.99 8.51425,23.7475 8.073,24.34875 8.52175,24.9425 7.81425,24.71 l -0.4275,0.60875 0.005,-0.745 -0.7125,-0.2175 0.70875,-0.225 z"/><path fill="#ffffff" d="m 9.963375,25.119625 0.435,0.60375 0.70375,-0.2425 -0.44,0.60125 0.4475,0.59375 -0.70625,-0.2325 -0.4275,0.60875 0.00375,-0.745 -0.7125,-0.2175 0.71,-0.225 z"/><path fill="#ffffff" d="m 12.559875,26.853 0.435,0.60375 0.70375,-0.2425 -0.44125,0.60125 0.44875,0.59375 -0.7075,-0.23375 -0.4275,0.61 0.005,-0.745 -0.7125,-0.2175 0.70875,-0.22625 z"/><path fill="#ffffff" d="m 15.1715,28.695125 0.435,0.605 0.70375,-0.2425 -0.44125,0.60125 0.44875,0.59375 -0.7075,-0.23375 -0.4275,0.61 0.005,-0.745 -0.7125,-0.2175 0.70875,-0.22625 z"/><path fill="#ffffff" d="m 17.767375,30.4285 0.435,0.605 0.70375,-0.2425 -0.44,0.60125 0.4475,0.59375 -0.70625,-0.23375 -0.4275,0.61 0.0038,-0.745 -0.7125,-0.2175 0.71,-0.22625 z"/><path fill="#ffffff" d="m 20.37175,32.264375 0.435,0.60375 0.70375,-0.24125 -0.44125,0.6 0.44875,0.59375 -0.7075,-0.2325 -0.4275,0.61 0.005,-0.745 -0.7125,-0.21875 0.70875,-0.225 z"/><path fill="#002868" d="m 22.5,14.338375 0.4,1.28 1.34125,-0.01625 -1.09375,0.77625 0.4275,1.27 -1.075,-0.8 -1.075,0.8 0.4275,-1.27 -1.09375,-0.77625 1.34125,0.01625 z"/><path fill="#002868" d="m 22.5,30.117125 -0.4,-1.27875 -1.34125,0.01375 1.09375,-0.775 -0.4275,-1.27 1.075,0.8 1.075,-0.8 -0.4275,1.27 1.09375,0.775 L 22.9,28.838375 Z"/><path fill="#002868" d="m 26.0205,23.566875 0.4,1.27875 1.34125,-0.015 -1.09375,0.77625 0.4275,1.27 -1.075,-0.8 -1.075,0.8 0.42875,-1.27 -1.09375,-0.77625 1.34125,0.015 z"/><path fill="#002868" d="m 18.978875,23.566875 0.4,1.27875 1.34125,-0.015 -1.09375,0.77625 0.42875,1.27 -1.07625,-0.8 -1.075,0.8 0.42875,-1.27 -1.09375,-0.77625 1.34125,0.015 z"/></svg>