<svg xmlns="http://www.w3.org/2000/svg" viewBox="0 0 45 45"><path fill="#AB0635" d="M45,17.087V11.25c0-2.761-2.239-5-5-5H5c-2.761,0-5,2.239-5,5v5.837H45z"/><path fill="#EEEEEE" d="M45,27.912H0v-10.83h45V27.912z"/><path fill="#004B8D" d="M0,27.913v5.837c0,2.761,2.239,5,5,5h35c2.761,0,5-2.239,5-5v-5.837H0z"/><path fill="#004B8D" d="M13.184,22.5c0-5.145,4.171-9.316,9.316-9.316s9.316,4.171,9.316,9.316s-4.171,9.316-9.316,9.316 S13.184,27.645,13.184,22.5"/><path fill="#FFFFFF" d="M15.651,22.5c0-3.782,3.066-6.849,6.849-6.849s6.849,3.066,6.849,6.849s-3.066,6.849-6.849,6.849 S15.651,26.282,15.651,22.5"/><path fill="#0083A9" d="M22.5,16.226c-1.858,0-3.528,0.808-4.677,2.092l0.251,0.34l0.412-0.188l0.357,0.133l0.455-0.451l0.529,0.275 l0.529-0.349l0.376,0.243l0.396-0.224l0.455,0.357l0.42-0.263l0.496,0.412l0.496-0.412l0.42,0.263l0.455-0.357l0.396,0.224 l0.376-0.243l0.529,0.349l0.529-0.275l0.455,0.451l0.357-0.133l0.412,0.188l0.251-0.34C26.028,17.035,24.358,16.226,22.5,16.226z"/><rect x="23.218" y="17.815" fill="#FFFFFF" width="0.376" height="0.376"/><rect x="21.406" y="17.815" fill="#FFFFFF" width="0.376" height="0.376"/><rect x="25.047" y="17.859" fill="#FFFFFF" width="0.376" height="0.376"/><rect x="24.403" y="17.482" fill="#FFFFFF" width="0.376" height="0.376"/><rect x="23.718" y="17.232" fill="#FFFFFF" width="0.376" height="0.376"/><rect x="23.009" y="17.085" fill="#FFFFFF" width="0.376" height="0.376"/><rect x="22.312" y="17.041" fill="#FFFFFF" width="0.376" height="0.376"/><rect x="21.615" y="17.085" fill="#FFFFFF" width="0.376" height="0.376"/><rect x="20.906" y="17.232" fill="#FFFFFF" width="0.376" height="0.376"/><rect x="20.221" y="17.482" fill="#FFFFFF" width="0.376" height="0.376"/><rect x="19.576" y="17.859" fill="#FFFFFF" width="0.376" height="0.376"/><rect x="26.215" y="17.906" fill="#FFFFFF" width="0.376" height="0.376"/><rect x="25.609" y="17.421" fill="#FFFFFF" width="0.376" height="0.376"/><rect x="24.938" y="17.021" fill="#FFFFFF" width="0.376" height="0.376"/><rect x="24.2" y="16.694" fill="#FFFFFF" width="0.376" height="0.376"/><rect x="23.435" y="16.491" fill="#FFFFFF" width="0.376" height="0.376"/><rect x="22.676" y="16.406" fill="#FFFFFF" width="0.376" height="0.376"/><rect x="21.947" y="16.406" fill="#FFFFFF" width="0.376" height="0.376"/><rect x="21.188" y="16.491" fill="#FFFFFF" width="0.376" height="0.376"/><rect x="20.424" y="16.694" fill="#FFFFFF" width="0.376" height="0.376"/><rect x="19.685" y="17.021" fill="#FFFFFF" width="0.376" height="0.376"/><rect x="19.015" y="17.421" fill="#FFFFFF" width="0.376" height="0.376"/><rect x="18.409" y="17.906" fill="#FFFFFF" width="0.376" height="0.376"/><rect x="22.235" y="17.632" fill="#FFFFFF" width="0.529" height="0.529"/><path fill="#228A43" d="M23.304,19.318 23.562,19.547 23.844,19.405 23.732,19.1 23.912,19.126 23.876,18.732 24.041,18.953 24.165,18.756 24.274,19.174 24.644,18.635 24.656,18.882 24.935,18.694 24.956,18.832 25.094,18.691 25.191,18.691 25.085,18.897 25.312,18.732 25.488,18.712 25.724,18.579 25.653,18.747 25.753,18.882 25.221,19.021 25.241,19.276 25.088,19.276 25.074,19.459 24.965,19.365 24.444,19.8 24.176,19.765 24.162,19.882 23.956,19.844 23.888,19.979 23.488,19.929 23.091,19.576 z"/><path fill="#228A43" d="M21.696,19.318 21.438,19.547 21.156,19.405 21.268,19.1 21.088,19.126 21.124,18.732 20.959,18.953 20.835,18.756 20.726,19.174 20.356,18.635 20.344,18.882 20.065,18.694 20.044,18.832 19.906,18.691 19.809,18.691 19.915,18.897 19.688,18.732 19.512,18.712 19.276,18.579 19.347,18.747 19.247,18.882 19.779,19.021 19.759,19.276 19.912,19.276 19.926,19.459 20.035,19.365 20.556,19.8 20.824,19.765 20.838,19.882 21.044,19.844 21.112,19.979 21.512,19.929 21.909,19.576 z"/><path fill="#9A4A23" d="M23.64,20.399 23.782,20.171 23.935,20.171 24.129,20.399 24.682,20.565 25.312,20.959 25.371,21.141 25.653,20.982 25.812,21.418 25.812,20.794 25.735,20.665 25.812,20.506 25.112,20.421 24.812,20.203 25.094,19.9 25.115,19.644 25.462,19.324 25.418,19.218 25.474,19.115 25.644,19.115 25.626,19.212 26.244,19.162 26.324,19.115 26.459,19.244 26.449,19.573 26.543,19.49 26.82,19.627 27.275,20.165 27.631,20.51 27.906,21.082 28.012,22.059 28.384,23.063 28.416,23.749 28.29,24.239 27.953,24.678 27.718,25.22 27.616,25.31 27.451,25.796 27.204,26.075 27.208,26.153 27.133,26.204 26.522,26.039 26.028,26.043 25.941,25.902 26.212,25.8 26.11,25.514 26.008,24.745 26.149,24.208 26.11,23.925 26.204,23.435 25.749,23.725 z"/><path fill="#9A4A23" d="M21.36,20.399 21.218,20.171 21.065,20.171 20.871,20.399 20.318,20.565 19.688,20.959 19.629,21.141 19.347,20.982 19.188,21.418 19.188,20.794 19.265,20.665 19.188,20.506 19.888,20.421 20.188,20.203 19.906,19.9 19.885,19.644 19.538,19.324 19.582,19.218 19.526,19.115 19.356,19.115 19.374,19.212 18.756,19.162 18.676,19.115 18.541,19.244 18.551,19.573 18.457,19.49 18.18,19.627 17.725,20.165 17.369,20.51 17.094,21.082 16.988,22.059 16.616,23.063 16.584,23.749 16.71,24.239 17.047,24.678 17.282,25.22 17.384,25.31 17.549,25.796 17.796,26.075 17.792,26.153 17.867,26.204 18.478,26.039 18.972,26.043 19.059,25.902 18.788,25.8 18.89,25.514 18.992,24.745 18.851,24.208 18.89,23.925 18.796,23.435 19.251,23.725 z"/><path fill="#C3A204" d="M27.16,26.61c-0.03,0.15-0.09,0.3-0.09,0.3s-0.62,0.03-0.82,0.32c-0.42,0.6-0.7,0.79-0.77,0.82l0.17-0.5 l-0.39,0.11c0,0,0.14-0.08,0.35-0.41c0.19-0.31,0.53-0.53,0.53-0.53s-0.18-0.02-0.42,0.02c-0.24,0.04-0.34,0.11-0.34,0.11 s0.06,0.1,0.07,0.23s-0.04,0.19-0.04,0.19s-0.92,0.92-2.91,0.92s-2.91-0.92-2.91-0.92s-0.05-0.06-0.04-0.19s0.07-0.23,0.07-0.23 s-0.1-0.07-0.34-0.11c-0.24-0.04-0.42-0.02-0.42-0.02s0.34,0.22,0.53,0.53c0.21,0.33,0.35,0.41,0.35,0.41l-0.39-0.11l0.17,0.5 c-0.07-0.03-0.35-0.22-0.77-0.82c-0.2-0.29-0.82-0.32-0.82-0.32s-0.06-0.15-0.09-0.3c-0.02-0.15,0-0.28,0-0.28s0.59-0.35,1.44-0.19 c0.85,0.16,0.98,0.63,0.98,0.63l-0.06,0.24c0,0,1.06,0.56,2.3,0.56s2.3-0.56,2.3-0.56l-0.06-0.24c0,0,0.13-0.47,0.98-0.63 c0.85-0.16,1.44,0.19,1.44,0.19S27.18,26.46,27.16,26.61z"/><path fill="#C3A204" d="M18.916,23.798c0-1.979,1.605-3.584,3.584-3.584c1.98,0,3.584,1.605,3.584,3.584 c0,1.98-1.604,3.584-3.584,3.584C20.521,27.381,18.916,25.778,18.916,23.798"/><path fill="#C3A204" d="M23.64,20.399 21.36,20.399 21.48,20.17 22.02,19.94 22.02,19.71 21.64,19.25 21.64,18.97 21.75,18.97 22.16,18.55 22.5,18.43 22.84,18.55 23.25,18.97 23.36,18.97 23.36,19.25 22.98,19.71 22.98,19.94 23.52,20.17 z"/><path fill="#FFFFFF" d="M22.5,26.334c1.401,0,2.536-1.135,2.536-2.536S23.901,21.26,22.5,21.26V26.334z"/><path fill="#CE1126" d="M22.5,26.334c-1.401,0-2.536-1.135-2.536-2.536H22.5V26.334z"/><path fill="#004B8D" d="M22.5,23.798v-2.536c-1.401,0-2.536,1.135-2.536,2.536H22.5z"/><path fill="#FFFFFF" d="M20.157,13.755 20.561,14.377 21.278,14.185 20.811,14.763 21.215,15.385 20.522,15.12 20.055,15.696 20.093,14.955 19.4,14.689 20.117,14.496 z"/><path fill="#FFFFFF" d="M17.973,14.659 18.525,15.156 19.168,14.785 18.866,15.463 19.418,15.96 18.679,15.883 18.377,16.561 18.222,15.835 17.484,15.757 18.127,15.385 z"/><path fill="#FFFFFF" d="M16.098,16.098 16.759,16.435 17.285,15.91 17.169,16.643 17.83,16.981 17.097,17.097 16.981,17.83 16.643,17.169 15.91,17.285 16.435,16.76 z"/><path fill="#FFFFFF" d="M14.659,17.973 15.385,18.127 15.757,17.485 15.835,18.223 16.561,18.377 15.883,18.68 15.96,19.418 15.463,18.867 14.785,19.168 15.156,18.525 z"/><path fill="#FFFFFF" d="M13.755,20.157 14.496,20.117 14.689,19.401 14.955,20.093 15.696,20.055 15.12,20.522 15.385,21.216 14.762,20.812 14.185,21.278 14.377,20.561 z"/><path fill="#FFFFFF" d="M13.446,22.5 14.152,22.27 14.153,21.528 14.589,22.128 15.295,21.899 14.859,22.5 15.295,23.101 14.589,22.872 14.153,23.472 14.152,22.73 z"/><path fill="#FFFFFF" d="M13.755,24.843 14.377,24.439 14.185,23.722 14.763,24.188 15.385,23.784 15.12,24.478 15.696,24.945 14.955,24.907 14.689,25.599 14.496,24.883 z"/><path fill="#FFFFFF" d="M14.659,27.027 15.156,26.475 14.785,25.832 15.463,26.133 15.96,25.582 15.883,26.32 16.561,26.623 15.835,26.777 15.757,27.515 15.385,26.873 z"/><path fill="#FFFFFF" d="M16.098,28.902 16.435,28.24 15.91,27.715 16.643,27.831 16.981,27.17 17.097,27.903 17.83,28.019 17.169,28.357 17.285,29.09 16.76,28.565 z"/><path fill="#FFFFFF" d="M17.973,30.341 18.127,29.614 17.485,29.243 18.223,29.165 18.377,28.439 18.68,29.117 19.418,29.04 18.867,29.537 19.168,30.215 18.525,29.844 z"/><path fill="#FFFFFF" d="M20.157,31.245 20.117,30.504 19.401,30.311 20.093,30.045 20.055,29.304 20.522,29.88 21.216,29.615 20.812,30.237 21.278,30.814 20.561,30.623 z"/><path fill="#FFFFFF" d="M22.5,31.553 22.27,30.848 21.528,30.847 22.128,30.411 21.899,29.704 22.5,30.14 23.101,29.704 22.872,30.411 23.472,30.847 22.73,30.848 z"/><path fill="#FFFFFF" d="M24.843,31.245 24.439,30.623 23.722,30.814 24.188,30.237 23.784,29.614 24.478,29.88 24.945,29.303 24.907,30.045 25.599,30.311 24.883,30.504 z"/><path fill="#FFFFFF" d="M27.027,30.34 26.475,29.844 25.832,30.215 26.133,29.537 25.582,29.04 26.32,29.117 26.623,28.439 26.777,29.165 27.515,29.243 26.873,29.614 z"/><path fill="#FFFFFF" d="M28.902,28.902 28.24,28.565 27.715,29.09 27.831,28.356 27.17,28.019 27.903,27.902 28.019,27.169 28.357,27.831 29.09,27.715 28.565,28.24 z"/><path fill="#FFFFFF" d="M30.341,27.027 29.614,26.873 29.243,27.515 29.165,26.777 28.439,26.622 29.117,26.32 29.04,25.582 29.537,26.133 30.215,25.832 29.844,26.475 z"/><path fill="#FFFFFF" d="M31.245,24.843 30.504,24.882 30.311,25.599 30.045,24.906 29.304,24.945 29.88,24.477 29.615,23.784 30.237,24.188 30.814,23.721 30.623,24.438 z"/><path fill="#FFFFFF" d="M31.553,22.5 30.848,22.73 30.847,23.472 30.411,22.872 29.704,23.101 30.14,22.5 29.704,21.899 30.411,22.128 30.847,21.528 30.848,22.27 z"/><path fill="#FFFFFF" d="M31.245,20.157 30.623,20.561 30.814,21.278 30.237,20.811 29.614,21.215 29.88,20.522 29.303,20.055 30.045,20.093 30.311,19.4 30.504,20.117 z"/><path fill="#FFFFFF" d="M30.34,17.973 29.844,18.525 30.215,19.168 29.537,18.866 29.04,19.418 29.117,18.679 28.439,18.377 29.165,18.222 29.243,17.484 29.614,18.127 z"/><path fill="#FFFFFF" d="M28.902,16.098 28.565,16.76 29.09,17.285 28.356,17.169 28.019,17.83 27.902,17.097 27.169,16.981 27.831,16.643 27.715,15.91 28.24,16.435 z"/><path fill="#FFFFFF" d="M27.027,14.659 26.873,15.385 27.515,15.757 26.777,15.835 26.622,16.561 26.32,15.883 25.582,15.96 26.133,15.463 25.832,14.785 26.475,15.156 z"/><path fill="#FFFFFF" d="M24.843,13.755 24.882,14.496 25.599,14.689 24.906,14.955 24.945,15.696 24.477,15.12 23.784,15.385 24.188,14.762 23.721,14.185 24.438,14.377 z"/><path fill="#FFFFFF" d="M22.5,13.446 22.73,14.152 23.472,14.153 22.872,14.589 23.101,15.295 22.5,14.859 21.899,15.295 22.128,14.589 21.528,14.153 22.27,14.152 z"/></svg>