<svg xmlns="http://www.w3.org/2000/svg" viewBox="0 0 45 45"><path fill="#002a86" d="m 45,33.75 v -22.5 c 0,-2.76125 -2.23875,-5 -5,-5 H 5 c -2.76125,0 -5,2.23875 -5,5 v 22.5 c 0,2.76125 2.23875,5 5,5 h 35 c 2.76125,0 5,-2.23875 5,-5"/><path fill="#efae0e" d="m 12.96875,22.5 c 0,-5.26375 4.2675,-9.53125 9.53125,-9.53125 5.26375,0 9.53125,4.2675 9.53125,9.53125 0,5.26375 -4.2675,9.53125 -9.53125,9.53125 -5.26375,0 -9.53125,-4.2675 -9.53125,-9.53125"/><path fill="#002a86" d="m 13.61025,22.5 c 0,-4.91 3.98,-8.89 8.89,-8.89 4.91,0 8.88875,3.98 8.88875,8.89 0,4.91 -3.97875,8.88875 -8.88875,8.88875 -4.91,0 -8.89,-3.97875 -8.89,-8.88875"/><path fill="#efae0e" d="m 15.13,22.5 c 0,-4.07 3.3,-7.37 7.37,-7.37 4.07,0 7.37,3.3 7.37,7.37 0,4.07 -3.3,7.37 -7.37,7.37 -4.07,0 -7.37,-3.3 -7.37,-7.37"/><path fill="#4f9eff" d="m 15.55975,22.5 c 0,3.8325 3.1075,6.94 6.94,6.94 3.83375,0 6.94,-3.1075 6.94,-6.94 z"/><path fill="#ffffff" d="m 29.43975,22.5 c 0,-3.8325 -3.10625,-6.94 -6.94,-6.94 -3.8325,0 -6.94,3.1075 -6.94,6.94 z"/><path fill="#efae0e" d="m 19.544125,29.40425 -0.03875,0.38375 0.3525,0.155 -0.375,0.08125 -0.04,0.38375 -0.19375,-0.3325 -0.37625,0.0825 0.25625,-0.28875 -0.19375,-0.3325 0.3525,0.15375 z"/><path fill="#efae0e" d="m 20.523125,30.662875 -0.16625,-0.0375 0.145,-0.63875 -0.21125,0.01625 0.03,-0.13375 0.37375,-0.045 0.0175,0.0038 z"/><path fill="#efae0e" d="m 22.085625,30.155 -0.3925,0.73 -0.17875,-0.015 0.39,-0.68875 -0.42375,-0.035 0.01125,-0.135 0.60125,0.04875 z"/><path fill="#efae0e" d="m 23.330125,30.139125 -0.28625,0.7775 -0.18,0.01125 0.29,-0.73625 -0.42375,0.025 -0.0088,-0.1375 0.6025,-0.03375 z"/><path fill="#efae0e" d="m 24.336,30.28325 c -0.02625,0.005 -0.05,0.0175 -0.07,0.035 -0.0175,0.01875 -0.03125,0.04125 -0.03625,0.065 l 0.01,0.05125 c 0.01125,0.055 0.03,0.09625 0.05875,0.12375 0.0275,0.02625 0.0625,0.03625 0.10125,0.0275 0.03625,-0.0063 0.0625,-0.02625 0.0775,-0.05875 0.0175,-0.0325 0.02125,-0.07125 0.0125,-0.115 -0.01,-0.0475 -0.0275,-0.08125 -0.05625,-0.10375 -0.0275,-0.025 -0.06,-0.0325 -0.0975,-0.025 m 0.0775,-0.4525 0.02875,0.13625 -0.0175,0.0038 C 24.351,29.987 24.2935,30.01825 24.256,30.06575 c -0.03875,0.04625 -0.055,0.105 -0.05125,0.175 0.035,-0.05375 0.0875,-0.0875 0.155,-0.10125 0.0725,-0.015 0.13625,0 0.19,0.04375 0.0525,0.0425 0.0875,0.1075 0.105,0.1925 0.01125,0.05375 0.0087,0.10625 -0.0063,0.155 -0.015,0.04875 -0.04125,0.09 -0.07875,0.12375 -0.03875,0.0325 -0.085,0.055 -0.14,0.06625 -0.0875,0.01625 -0.16625,0.0012 -0.23125,-0.05 -0.0675,-0.05 -0.11,-0.1275 -0.13125,-0.23 l -0.0125,-0.06 c -0.0175,-0.09 -0.01625,-0.175 0.0038,-0.25125 0.02125,-0.07625 0.05875,-0.14 0.11625,-0.19 0.05625,-0.05125 0.1275,-0.08625 0.21125,-0.1025 z"/><path fill="#efae0e" d="m 25.482125,29.39325 0.26375,0.30125 0.36875,-0.1575 -0.20625,0.345 0.26375,0.30125 -0.39125,-0.0875 -0.205,0.3425 -0.03625,-0.39875 -0.39125,-0.09 0.36875,-0.1575 z"/><path fill="#efae0e" d="m 16.97325,28.186 c -0.0225,0.025 -0.03125,0.05125 -0.02625,0.08 0.005,0.02875 0.0225,0.07125 0.05375,0.1275 0.03125,0.05625 0.0525,0.10375 0.06625,0.1425 0.035,0.10375 0.0225,0.19 -0.03875,0.25375 -0.03125,0.03375 -0.06875,0.055 -0.1125,0.06375 -0.045,0.0087 -0.09125,0.0038 -0.14,-0.015 -0.05,-0.0175 -0.09625,-0.04875 -0.14125,-0.09 -0.045,-0.04125 -0.07625,-0.08625 -0.09625,-0.135 -0.02,-0.04875 -0.025,-0.0975 -0.0175,-0.14375 0.0087,-0.04875 0.03,-0.09125 0.065,-0.12875 l 0.12875,0.12125 c -0.0275,0.0275 -0.03875,0.05875 -0.035,0.09125 0.0025,0.0325 0.02125,0.065 0.05375,0.095 0.03125,0.03 0.06125,0.045 0.09125,0.04875 0.03,0.0025 0.055,-0.0063 0.075,-0.0275 0.02,-0.02125 0.025,-0.0475 0.0175,-0.08 -0.0075,-0.0325 -0.025,-0.07375 -0.05375,-0.1225 -0.0525,-0.09125 -0.08,-0.16875 -0.08375,-0.2325 -0.0025,-0.06375 0.01875,-0.12 0.06375,-0.16875 0.05125,-0.05375 0.11125,-0.07625 0.18125,-0.06875 0.06875,0.0062 0.13875,0.04375 0.2075,0.10875 0.04875,0.04375 0.08375,0.09375 0.10625,0.14875 0.02375,0.05375 0.03125,0.10625 0.02375,0.15625 -0.0087,0.05 -0.03125,0.095 -0.07,0.135 l -0.12875,-0.12125 c 0.065,-0.0675 0.05625,-0.14125 -0.02625,-0.2175 -0.03125,-0.03 -0.06,-0.04625 -0.08875,-0.04875 -0.02875,-0.0038 -0.05375,0.005 -0.075,0.0275"/><path fill="#efae0e" d="m 16.126125,27.45975 0.21625,0.26 0.17625,-0.14625 -0.2525,-0.305 0.10875,-0.09125 0.36625,0.44125 -0.65875,0.545 -0.365,-0.43875 0.11,-0.09125 0.2525,0.30375 0.1575,-0.13 -0.21625,-0.26 z"/><path fill="#efae0e" d="m 15.7965,26.889625 -0.115,-0.18125 -0.2125,0.2625 z m -0.02,-0.29625 0.16625,0.26 0.18,-0.04375 0.1,0.1575 -0.8925,0.18875 -0.0875,-0.1375 0.55125,-0.7275 0.1,0.15625 z"/><path fill="#efae0e" d="m 15.465125,25.885 -0.15875,-0.33875 0.1275,-0.05875 0.235,0.49625 -0.775,0.365 -0.07375,-0.16 z"/><path fill="#efae0e" d="m 14.726625,24.775375 c -0.03875,0.01125 -0.075,0.0075 -0.105,-0.01125 -0.03,-0.0175 -0.05125,-0.0475 -0.06125,-0.08625 -0.0125,-0.04 -0.0088,-0.0775 0.0087,-0.1075 0.01625,-0.03 0.04375,-0.05125 0.08125,-0.0625 l 0.02375,-0.0075 c 0.04,-0.01 0.07375,-0.0062 0.105,0.0125 0.03,0.01875 0.05125,0.0475 0.06125,0.08625 0.01125,0.04125 0.0088,0.07625 -0.0087,0.1075 -0.01625,0.0325 -0.045,0.0525 -0.085,0.06375 z"/><path fill="#efae0e" d="m 14.400625,22.97 c -0.08875,0.0075 -0.15625,0.02875 -0.2,0.065 -0.04375,0.035 -0.0625,0.0825 -0.05875,0.14125 0.005,0.06 0.0325,0.1025 0.08,0.1325 0.04875,0.0275 0.1175,0.03875 0.20625,0.03125 l 0.04125,-0.0025 c 0.0875,-0.0075 0.15375,-0.02875 0.19875,-0.06625 0.045,-0.035 0.06625,-0.0825 0.06125,-0.14375 -0.005,-0.05875 -0.0325,-0.1025 -0.08125,-0.13 -0.04875,-0.0275 -0.1175,-0.0375 -0.20625,-0.03125 z m 0.025,-0.18125 c 0.0825,-0.0062 0.1575,0.0012 0.22375,0.02625 0.065,0.025 0.1175,0.06375 0.15625,0.115 0.03875,0.0525 0.06125,0.115 0.0675,0.18625 0.005,0.07 -0.0062,0.13625 -0.035,0.1925 -0.03,0.0575 -0.075,0.105 -0.135,0.14125 -0.06125,0.03625 -0.1325,0.0575 -0.21375,0.06375 l -0.0425,0.0038 c -0.08375,0.0062 -0.15875,-0.0013 -0.225,-0.0275 -0.06625,-0.025 -0.11875,-0.06375 -0.1575,-0.11625 -0.03875,-0.0525 -0.06125,-0.115 -0.06625,-0.185 -0.0062,-0.07 0.0062,-0.135 0.035,-0.1925 0.03,-0.05875 0.075,-0.105 0.13625,-0.14125 0.06125,-0.035 0.13375,-0.05625 0.2175,-0.06375 z"/><path fill="#efae0e" d="m 14.505625,21.882375 -0.015,0.33875 0.34875,0.015 -0.0075,0.17625 -0.85375,-0.03875 0.025,-0.55625 0.14125,0.0062 -0.01625,0.38 0.22,0.01 0.01625,-0.3375 z"/><path fill="#efae0e" d="m 14.54225,20.899625 c -0.04,-0.0087 -0.06875,-0.0275 -0.0875,-0.05875 -0.01875,-0.03 -0.02375,-0.06625 -0.015,-0.105 0.0087,-0.0425 0.02875,-0.0725 0.0575,-0.09125 0.02875,-0.02 0.06375,-0.02625 0.10125,-0.0175 l 0.025,0.005 c 0.04,0.0088 0.06875,0.02875 0.0875,0.05875 0.0175,0.03 0.0225,0.06625 0.01375,0.10625 -0.0088,0.04 -0.0275,0.07 -0.0575,0.09 -0.02875,0.02 -0.065,0.02625 -0.105,0.01625 z"/><path fill="#efae0e" d="m 14.8975,18.96 -0.1,0.2425 0.65875,0.2725 -0.0675,0.1625 L 14.73,19.365 14.63125,19.60375 14.5,19.55 14.76625,18.90625 Z"/><path fill="#efae0e" d="m 16.0455,18.345375 -0.08875,0.1525 -0.31625,-0.185 -0.1725,0.2975 0.31625,0.18375 -0.08875,0.1525 -0.73875,-0.43 0.08875,-0.1525 0.29875,0.175 0.17375,-0.2975 -0.3,-0.17375 0.08875,-0.1525 z"/><path fill="#efae0e" d="m 16.24875,17.39375 -0.2075,0.2675 0.1825,0.14125 0.2425,-0.315 0.1125,0.0875 -0.35125,0.4525 -0.67625,-0.5225 0.35,-0.4525 0.11375,0.0875 -0.2425,0.3125 0.16125,0.125 0.2075,-0.2675 z"/><path fill="#efae0e" d="m 16.88725,16.593 c -0.0275,-0.03 -0.04,-0.0625 -0.0375,-0.09875 0.0025,-0.035 0.01875,-0.0675 0.04875,-0.095 0.03125,-0.0275 0.065,-0.04125 0.09875,-0.04 0.03625,0 0.06625,0.015 0.09375,0.04375 l 0.0175,0.01875 c 0.02625,0.03 0.03875,0.0625 0.0375,0.0975 -0.0025,0.035 -0.02,0.0675 -0.05,0.095 -0.03125,0.0275 -0.06375,0.04125 -0.1,0.04125 -0.035,-0.0012 -0.06625,-0.01625 -0.095,-0.0475 z"/><path fill="#efae0e" d="m 18.39725,15.72025 c -0.0175,-0.0275 -0.04125,-0.04375 -0.07,-0.04625 -0.03,-0.0025 -0.075,0.0038 -0.1375,0.02 -0.0625,0.01625 -0.11375,0.02625 -0.15375,0.0275 -0.11,0.0088 -0.18875,-0.02625 -0.23625,-0.10125 -0.025,-0.03875 -0.03625,-0.08 -0.03375,-0.125 0.0038,-0.04375 0.02,-0.0875 0.05,-0.13125 0.03,-0.04375 0.07125,-0.08125 0.1225,-0.11375 0.05125,-0.0325 0.10375,-0.0525 0.155,-0.05875 0.0525,-0.0075 0.1,0 0.145,0.02 0.04375,0.01875 0.08,0.05125 0.10625,0.09375 l -0.14875,0.095 c -0.02125,-0.03375 -0.0475,-0.0525 -0.08,-0.0575 -0.0325,-0.005 -0.0675,0.0038 -0.105,0.0275 -0.03625,0.02375 -0.06,0.04875 -0.07,0.0775 -0.01125,0.0275 -0.0087,0.055 0.0075,0.08 0.015,0.0225 0.03875,0.035 0.0725,0.03625 0.03375,0 0.07875,-0.0063 0.13375,-0.02125 0.1,-0.02875 0.1825,-0.035 0.24375,-0.0225 0.06375,0.01375 0.1125,0.0475 0.1475,0.10375 0.04,0.06375 0.0475,0.1275 0.0225,0.1925 -0.025,0.065 -0.0775,0.12375 -0.1575,0.17375 -0.05625,0.03625 -0.1125,0.0575 -0.17125,0.06625 C 18.181,16.064 18.1285,16.059 18.08225,16.039 18.036,16.01775 17.9985,15.98525 17.9685,15.93775 l 0.15,-0.09375 c 0.05,0.08 0.1225,0.08875 0.21875,0.02875 0.035,-0.0225 0.0575,-0.0475 0.06875,-0.07375 0.01125,-0.02625 0.0075,-0.0525 -0.0087,-0.07875"/><path fill="#efae0e" d="m 19.26325,14.729625 -0.2375,0.11 0.30125,0.645 -0.16,0.07625 -0.30125,-0.64625 -0.23375,0.11 -0.06,-0.13 0.63125,-0.295 z"/><path fill="#efae0e" d="M 19.92,14.909 20.12375,14.84275 19.9225,14.5715 Z m 0.2925,0.055 -0.29375,0.095 -0.0012,0.18625 -0.17875,0.0575 0.04,-0.91125 0.155,-0.05 0.5675,0.715 -0.1775,0.0575 z"/><path fill="#efae0e" d="m 21.251875,14.176 -0.2575,0.04875 0.13375,0.7 -0.1725,0.0325 -0.13375,-0.7 -0.25375,0.04875 -0.0275,-0.14 0.685,-0.13 z"/><path fill="#efae0e" d="m 22.23325,14.431125 -0.3375,0.0225 0.015,0.22875 0.39625,-0.025 0.0088,0.14 -0.57125,0.03875 -0.05625,-0.85375 0.57,-0.0375 0.01,0.1425 -0.395,0.02625 0.01375,0.20375 0.3375,-0.0225 z"/><path fill="#efae0e" d="m 23.24825,14.38725 c 0.0038,-0.04 0.02125,-0.07125 0.04875,-0.09375 0.02875,-0.02125 0.0625,-0.03 0.10375,-0.02625 0.04125,0.005 0.07375,0.02 0.09625,0.0475 0.02375,0.02625 0.03375,0.06 0.02875,0.09875 l -0.0025,0.02625 c -0.0038,0.03875 -0.02,0.07 -0.04875,0.09125 -0.0275,0.0225 -0.0625,0.03125 -0.1025,0.02625 -0.0425,-0.0038 -0.07375,-0.02 -0.0975,-0.04625 C 23.252,14.4835 23.242,14.44975 23.247,14.4085 Z"/><path fill="#efae0e" d="m 25.006125,14.7485 c 0.02625,-0.085 0.03,-0.15625 0.0125,-0.20875 -0.0175,-0.05375 -0.05375,-0.09 -0.11125,-0.10625 -0.05625,-0.0175 -0.1075,-0.0087 -0.15125,0.02625 -0.04375,0.035 -0.07875,0.095 -0.10375,0.18 l -0.0125,0.03875 c -0.025,0.08375 -0.02875,0.15375 -0.0125,0.20875 0.0175,0.05625 0.05375,0.0925 0.11125,0.10875 0.0575,0.0175 0.1075,0.0088 0.15125,-0.0275 0.0425,-0.035 0.07875,-0.095 0.10375,-0.18 z m 0.16,0.08875 c -0.025,0.08 -0.06,0.14625 -0.10625,0.19875 -0.04625,0.0525 -0.10125,0.0875 -0.165,0.10375 -0.0625,0.0175 -0.1275,0.01625 -0.1975,-0.005 -0.0675,-0.02 -0.12375,-0.055 -0.16625,-0.1025 -0.04375,-0.05 -0.07125,-0.10875 -0.08125,-0.1775 -0.01125,-0.07 -0.0062,-0.14375 0.0175,-0.2225 l 0.01125,-0.04 c 0.025,-0.08125 0.06125,-0.1475 0.1075,-0.2 0.0475,-0.0525 0.10375,-0.0875 0.16625,-0.105 0.06375,-0.01625 0.1275,-0.01375 0.19625,0.0063 0.06875,0.02 0.125,0.055 0.1675,0.10375 0.04375,0.04875 0.07125,0.1075 0.08,0.1775 0.01125,0.07 0.005,0.14625 -0.01875,0.22625 z"/><path fill="#efae0e" d="m 26.003375,15.25025 -0.30875,-0.1375 -0.14125,0.31875 -0.16125,-0.07125 0.3475,-0.78125 0.50875,0.2275 -0.05875,0.13 -0.34625,-0.155 -0.09,0.20125 0.30875,0.1375 z"/><path fill="#efae0e" d="m 26.940875,15.669 c 0.02375,-0.03375 0.0525,-0.05375 0.08625,-0.06 0.03625,-0.0063 0.07125,0.0025 0.10375,0.025 0.03625,0.02375 0.05625,0.0525 0.06375,0.0875 0.0088,0.03375 0.0013,0.0675 -0.02,0.1 l -0.01375,0.02125 c -0.02375,0.03375 -0.05125,0.05375 -0.0875,0.06 -0.03375,0.005 -0.06875,-0.0025 -0.10375,-0.02625 -0.03375,-0.02375 -0.055,-0.05125 -0.0625,-0.08625 -0.0075,-0.035 0,-0.06875 0.0225,-0.10375 z"/><path fill="#efae0e" d="m 28.158,17.268625 -0.12625,-0.12375 0.1525,-0.64125 -0.39625,0.4 -0.125,-0.12375 0.60125,-0.6075 0.125,0.12375 -0.1525,0.6425 0.39625,-0.40125 0.125,0.12375 z"/><path fill="#efae0e" d="m 29.005125,17.716625 -0.20875,-0.26625 -0.18125,0.1425 0.245,0.31125 -0.11125,0.0875 -0.3525,-0.45125 0.6725,-0.52625 0.3525,0.45 -0.1125,0.0875 -0.24375,-0.31125 -0.16125,0.12625 0.20875,0.26625 z"/><path fill="#efae0e" d="m 29.472625,18.751875 0.585,-0.2025 0.0875,0.15125 -0.83625,0.26125 -0.0875,-0.15375 0.42625,-0.405 -0.565,0.165 -0.08875,-0.155 0.6475,-0.59 0.08625,0.1525 -0.46875,0.4025 0.5975,-0.18 0.07375,0.13 z"/><path fill="#efae0e" d="m 30.169625,22.2095 -0.015,-0.175 0.365,-0.03125 -0.02875,-0.34125 -0.365,0.03 -0.015,-0.175 0.8525,-0.0725 0.01375,0.175 -0.345,0.03 0.03,0.3425 0.345,-0.03 0.015,0.17625 z"/><path fill="#efae0e" d="m 30.47725,22.84175 -0.01125,0.21375 0.325,-0.09 z M 30.321,23.0955 30.3385,22.78675 30.16475,22.718 30.176,22.53175 31.01225,22.8955 31.0035,23.05925 30.13225,23.333 30.141,23.14425 Z"/><path fill="#efae0e" d="m 30.487,23.898875 -0.02875,0.155 c -0.0087,0.045 -0.005,0.0825 0.01125,0.11125 0.0175,0.0275 0.045,0.045 0.08625,0.05375 0.04125,0.0075 0.07625,0.0012 0.1075,-0.0175 0.02875,-0.01875 0.04875,-0.05125 0.0575,-0.09375 l 0.03,-0.1575 z m -0.13875,-0.02625 -0.2975,-0.05625 0.03375,-0.17375 0.84,0.16125 -0.0625,0.3275 c -0.0125,0.0625 -0.035,0.115 -0.06625,0.15875 -0.0325,0.045 -0.0725,0.075 -0.12,0.0925 -0.0475,0.0175 -0.09875,0.02125 -0.1525,0.01125 -0.0825,-0.01625 -0.14125,-0.05625 -0.1775,-0.1225 -0.0375,-0.065 -0.04625,-0.1475 -0.0275,-0.24625 z"/><path fill="#efae0e" d="m 29.901125,25.1135 c 0.03125,0.01 0.06,0.0075 0.08375,-0.01 0.02375,-0.01625 0.055,-0.05125 0.09375,-0.1025 0.0375,-0.05125 0.07125,-0.09125 0.10125,-0.12 0.07875,-0.075 0.1625,-0.09875 0.24625,-0.07125 0.04375,0.015 0.07875,0.04 0.105,0.075 0.02625,0.0375 0.04125,0.08125 0.045,0.135 0.005,0.0525 -0.0038,0.1075 -0.0225,0.165 -0.01875,0.05875 -0.04625,0.10625 -0.0825,0.14375 -0.035,0.03875 -0.07625,0.065 -0.12375,0.07625 -0.04625,0.0125 -0.095,0.01125 -0.1425,-0.005 l 0.055,-0.1675 c 0.03625,0.0125 0.07,0.01125 0.0975,-0.0062 0.03,-0.01625 0.05,-0.04625 0.06375,-0.0875 0.015,-0.0425 0.01625,-0.07625 0.0063,-0.10375 -0.01,-0.03 -0.03,-0.04875 -0.0575,-0.0575 -0.02625,-0.0087 -0.0525,-0.0025 -0.07875,0.0175 -0.0275,0.02125 -0.05625,0.05375 -0.09,0.1 -0.06,0.0875 -0.1175,0.145 -0.17375,0.17375 -0.0575,0.02875 -0.1175,0.03375 -0.18125,0.01375 -0.07,-0.02375 -0.11625,-0.06875 -0.1375,-0.135 -0.02375,-0.06625 -0.02,-0.145 0.01,-0.235 0.02,-0.0625 0.05125,-0.115 0.09125,-0.15875 0.03875,-0.04375 0.08375,-0.0725 0.1325,-0.08625 0.0475,-0.01375 0.09875,-0.0125 0.15125,0.005 l -0.05625,0.1675 c -0.08875,-0.02875 -0.15125,0.01 -0.18625,0.11625 -0.01375,0.04 -0.01625,0.07375 -0.0075,0.10125 0.01,0.02875 0.02875,0.04625 0.0575,0.05625"/><path fill="#efae0e" d="m 29.235875,26.171875 0.0775,-0.1575 0.32875,0.16 0.15125,-0.3075 -0.32875,-0.16125 0.0775,-0.15875 0.7675,0.375 -0.07625,0.15875 -0.31125,-0.15125 -0.15125,0.3075 0.31125,0.1525 -0.0775,0.15875 z"/><path fill="#efae0e" d="m 28.963625,26.684625 0.09375,-0.14875 0.7225,0.455 -0.09375,0.14875 z"/><path fill="#efae0e" d="m 28.98075,27.452375 -0.08875,0.11125 c -0.0275,0.03375 -0.04,0.06875 -0.0375,0.10125 0.0025,0.0325 0.02,0.0625 0.05,0.08625 0.0325,0.025 0.06375,0.03625 0.0975,0.0325 0.03125,-0.0038 0.06125,-0.025 0.0925,-0.06125 l 0.08625,-0.11125 z m -0.19875,0.02125 0.08625,-0.11 -0.245,-0.195 0.10875,-0.1375 0.67125,0.53 -0.1975,0.24875 c -0.0625,0.08 -0.12875,0.1275 -0.19875,0.14125 -0.06875,0.01625 -0.135,-0.0025 -0.2,-0.05375 -0.04625,-0.035 -0.07625,-0.075 -0.09125,-0.11875 -0.015,-0.04375 -0.015,-0.09375 -0.0012,-0.1475 l -0.38875,-0.0725 -0.0062,-0.005 0.11625,-0.14875 z"/><path fill="#efae0e" d="m 27.994375,28.424125 0.24,-0.2375 -0.1625,-0.16375 -0.28125,0.2775 -0.1,-0.1 0.40875,-0.4025 0.59875,0.6075 -0.40625,0.4025 -0.1,-0.10125 0.2825,-0.27875 -0.14375,-0.14375 -0.24125,0.23625 z"/><path fill="#efae0e" d="m 28.380125,13.00725 c 0,0 0.07625,-0.46375 -1.05,-1.485 -1.12375,-1.0225 -2.94,-0.83125 -2.94,-0.83125 0,0 0.1425,1.345 1.36,1.89 1.1325,0.5075 2.63,0.42625 2.63,0.42625"/><path fill="#efae0e" d="m 32.921125,18.5565 c 0,0 0.2975,-0.36375 -0.165,-1.81125 -0.4625,-1.4475 -2.13125,-2.19125 -2.13125,-2.19125 0,0 -0.54875,1.23625 0.2325,2.3175 0.7275,1.00625 2.06375,1.685 2.06375,1.685"/><path fill="#efae0e" d="m 33.12625,25.758 c 0,0 0.465,-0.06875 1.09875,-1.45 0.63375,-1.38125 -0.0975,-3.055 -0.0975,-3.055 0,0 -1.2375,0.54375 -1.39,1.86875 -0.14125,1.2325 0.38875,2.63625 0.38875,2.63625"/><path fill="#efae0e" d="m 28.962375,31.588125 c 0,0 0.39625,0.25 1.7775,-0.3875 1.37875,-0.6375 1.91125,-2.385 1.91125,-2.385 0,0 -1.29375,-0.39125 -2.27,0.51625 -0.91,0.845 -1.41875,2.25625 -1.41875,2.25625"/><path fill="#efae0e" d="m 22.5,34.173625 c 0,0 0.215,0.51375 1.7325,0.59125 1.51875,0.07625 2.80125,-1.22375 2.80125,-1.22375 0,0 -0.9625,-0.94875 -2.25,-0.5975 -1.1975,0.325 -2.28375,1.23 -2.28375,1.23"/><path fill="#efae0e" d="m 16.619875,13.00725 c 0,0 -0.07625,-0.46375 1.04875,-1.485 1.125,-1.0225 2.94125,-0.83125 2.94125,-0.83125 0,0 -0.1425,1.345 -1.36,1.89 -1.1325,0.5075 -2.63,0.42625 -2.63,0.42625"/><path fill="#efae0e" d="m 12.078875,18.5565 c 0,0 -0.2975,-0.36375 0.165,-1.81125 0.4625,-1.4475 2.13125,-2.19125 2.13125,-2.19125 0,0 0.54875,1.23625 -0.2325,2.3175 -0.72625,1.00625 -2.06375,1.685 -2.06375,1.685"/><path fill="#efae0e" d="m 11.873125,25.758 c 0,0 -0.465,-0.06875 -1.0975,-1.45 -0.635,-1.38125 0.0975,-3.055 0.0975,-3.055 0,0 1.2375,0.54375 1.39,1.86875 0.14,1.2325 -0.39,2.63625 -0.39,2.63625"/><path fill="#efae0e" d="m 16.037625,31.588125 c 0,0 -0.3975,0.25 -1.77625,-0.3875 -1.38,-0.6375 -1.9125,-2.385 -1.9125,-2.385 0,0 1.29375,-0.39125 2.27,0.51625 0.90875,0.845 1.41875,2.25625 1.41875,2.25625"/><path fill="#efae0e" d="m 22.5,34.173625 c 0,0 -0.215,0.51375 -1.7325,0.59125 -1.51875,0.07625 -2.80125,-1.22375 -2.80125,-1.22375 0,0 0.9625,-0.94875 2.25,-0.5975 1.1975,0.325 2.28375,1.23 2.28375,1.23"/><path fill="#efae0e" d="m 17.79475,31.261 -0.67875,0.65375 -0.83125,-0.4425 0.41125,0.8475 -0.67875,0.65375 0.93375,-0.12875 0.4125,0.84625 0.165,-0.9275 0.93375,-0.13 -0.8325,-0.44375 z"/><path fill="#efae0e" d="m 13.460125,26.607625 -0.93625,0.11125 -0.39375,-0.8575 -0.185,0.92625 -0.935,0.10875 0.82125,0.4625 -0.18375,0.92375 0.6925,-0.64 0.8225,0.46 -0.395,-0.855 z"/><path fill="#efae0e" d="m 12.81925,20.12575 -0.81,-0.48125 0.20625,-0.91875 -0.7075,0.62125 -0.81125,-0.48 0.37375,0.865 -0.7075,0.6225 0.9375,-0.0875 0.3725,0.86625 0.20875,-0.92 z"/><path fill="#efae0e" d="m 16.369625,14.663125 -0.33,-0.8825 0.7375,-0.5875 -0.94125,0.04125 -0.33,-0.8825 -0.2525,0.9075 -0.94125,0.0425 0.785,0.52 -0.25125,0.9075 0.7375,-0.58625 z"/><path fill="#efae0e" d="m 27.20575,31.261 0.67875,0.65375 0.83125,-0.4425 -0.4125,0.8475 0.67875,0.65375 -0.9325,-0.12875 -0.4125,0.84625 -0.165,-0.9275 -0.93375,-0.13 0.8325,-0.44375 z"/><path fill="#efae0e" d="m 31.5405,26.607625 0.935,0.11125 0.395,-0.8575 0.18375,0.92625 0.93625,0.10875 -0.8225,0.4625 0.18375,0.92375 -0.69125,-0.64 -0.82375,0.46 0.39625,-0.855 z"/><path fill="#efae0e" d="m 32.180125,20.12575 0.81,-0.48125 -0.20625,-0.91875 0.70875,0.62125 0.81,-0.48 -0.37375,0.865 0.70875,0.6225 -0.93875,-0.0875 -0.3725,0.86625 -0.2075,-0.92 z"/><path fill="#efae0e" d="m 28.630375,14.663125 0.33125,-0.8825 -0.73875,-0.5875 0.9425,0.04125 0.32875,-0.8825 0.2525,0.9075 0.94125,0.0425 -0.785,0.52 0.25125,0.9075 -0.7375,-0.58625 z"/><path fill="#efae0e" d="m 22.5,10.095875 0.29125,0.89625 h 0.9425 l -0.7625,0.55375 0.29125,0.89625 -0.7625,-0.55375 -0.7625,0.55375 0.29125,-0.89625 -0.7625,-0.55375 h 0.9425 z"/></svg>