<svg xmlns="http://www.w3.org/2000/svg" viewBox="0 0 45 45"><path fill="#0f204b" d="M 40,6.25 H 5 c -2.76125,0 -5,2.23875 -5,5 v 22.5 c 0,2.76125 2.23875,5 5,5 h 35 c 2.76125,0 5,-2.23875 5,-5 v -22.5 c 0,-2.76125 -2.23875,-5 -5,-5"/><path fill="#ffb612" d="m 37.34976,11.752199 -0.549168,-1.689057 -0.548353,1.689057 H 34.476 l 1.437287,1.043745 -0.549167,1.689057 1.436472,-1.043745 1.437288,1.043745 -0.549168,-1.689057 1.437288,-1.043745 z"/><path fill="#ffb612" d="M 7.608486,18.813635 7.2807569,17.805649 6.953514,18.813635 H 5.8935 l 0.8577361,0.62288 -0.3277291,1.007986 0.8572499,-0.62288 0.8577361,0.62288 L 7.8107639,19.436515 8.6685,18.813635 Z"/><path fill="#ffb612" d="m 12.905486,20.789635 -0.327729,-1.007986 -0.327243,1.007986 H 11.1905 l 0.857736,0.62288 -0.327729,1.007986 0.85725,-0.62288 0.857736,0.62288 -0.327729,-1.007986 0.857736,-0.62288 z"/><path fill="#ffb612" d="m 15.546486,23.617635 -0.327729,-1.007986 -0.327243,1.007986 H 13.8315 l 0.857736,0.62288 -0.327729,1.007986 0.85725,-0.62288 0.857736,0.62288 -0.327729,-1.007986 0.857736,-0.62288 z"/><path fill="#ffb612" d="m 18.218486,26.570635 -0.327729,-1.007986 -0.327243,1.007986 H 16.5035 l 0.857736,0.62288 -0.327729,1.007986 0.85725,-0.62288 0.857736,0.62288 -0.327729,-1.007986 0.857736,-0.62288 z"/><path fill="#ffb612" d="m 17.858486,30.726635 -0.327729,-1.007986 -0.327243,1.007986 H 16.1435 l 0.857736,0.62288 -0.327729,1.007986 0.85725,-0.62288 0.857736,0.62288 -0.327729,-1.007986 0.857736,-0.62288 z"/><path fill="#ffb612" d="m 23.827486,32.711634 -0.327729,-1.007986 -0.327243,1.007986 H 22.1125 l 0.857736,0.62288 -0.327729,1.007986 0.85725,-0.62288 0.857736,0.62288 -0.327729,-1.007986 0.857736,-0.62288 z"/><path fill="#ffb612" d="m 26.155486,29.382635 -0.327729,-1.007986 -0.327243,1.007986 H 24.4405 l 0.857736,0.62288 -0.327729,1.007986 0.85725,-0.62288 0.857736,0.62288 -0.327729,-1.007986 0.857736,-0.62288 z"/></svg>