<svg xmlns="http://www.w3.org/2000/svg" viewBox="0 0 45 45"><path fill="#0075a9" d="m 0,33.75 c 0,2.76125 2.23875,5 5,5 h 35 c 2.76125,0 5,-2.23875 5,-5 v -22.5 c 0,-2.76125 -2.23875,-5 -5,-5 H 5 c -2.76125,0 -5,2.23875 -5,5 z"/><path fill="#ffc500" d="m 19.773,29.08325 0.39125,2.13125 1.405,-1.65 0.93125,1.9575 0.93,-1.9575 1.405,1.65 0.39125,-2.13125 1.78375,1.22875 -0.17375,-2.15875 2.0425,0.72625 L 28.153,26.837 30.31425,27.01075 29.083,25.227 l 2.13125,-0.39125 -1.65,-1.405 1.9575,-0.93125 -1.9575,-0.93 1.65,-1.405 -2.13125,-0.39125 1.23125,-1.78375 -2.16125,0.1725 0.72625,-2.04125 -2.0425,0.72625 0.17375,-2.16 -1.78375,1.23 -0.39125,-2.13125 -1.405,1.65 -0.93,-1.9575 -0.93125,1.9575 -1.405,-1.65 -0.39125,2.13125 -1.78375,-1.23 0.1725,2.16 -2.04125,-0.72625 0.72625,2.04125 -2.16,-0.1725 1.23,1.78375 -2.13125,0.39125 1.65,1.405 -1.9575,0.93 1.9575,0.93125 -1.65,1.405 2.13125,0.39125 -1.23,1.78375 2.16,-0.17375 -0.72625,2.0425 2.04125,-0.72625 -0.1725,2.15875 z"/><path fill="#ffffff" d="m 29.635,22.5 c 0,3.94 -3.195,7.135 -7.135,7.135 -3.94,0 -7.135,-3.195 -7.135,-7.135 0,-3.94125 3.195,-7.135 7.135,-7.135 3.94,0 7.135,3.19375 7.135,7.135"/><path fill="#ffc500" d="m 12.2955,19.89925 0.1675,-0.50625 -1.3725,-0.45625 0.135,-0.40625 1.3725,0.45625 0.165,-0.4975 0.31375,0.10375 -0.4675,1.41 z"/><path fill="#ffc500" d="m 10.574375,21.5295 0.06,-0.42125 0.735,0.105 0.09,-0.625 -0.735,-0.105 0.06,-0.42375 1.76,0.25125 -0.06125,0.42375 -0.6975,-0.09875 -0.09,0.62375 0.69875,0.1 -0.06125,0.4225 z"/><path fill="#ffc500" d="m 11.32875,23.32525 -0.0175,-0.67375 -0.425,0.01125 0.02125,0.79625 -0.33,0.0075 -0.03125,-1.22375 1.77625,-0.045 0.0325,1.225 -0.33125,0.01 -0.02,-0.79875 -0.375,0.01 0.0175,0.67375 z"/><path fill="#ffc500" d="m 12.650125,25.080625 -1.06625,0.7425 1.29875,0.015 0.165,0.54 -1.7,0.52 -0.12625,-0.41 0.3975,-0.1225 0.82375,-0.20875 -1.33375,-0.04 -0.08375,-0.27125 1.08375,-0.7825 -0.80125,0.28875 -0.39625,0.12125 -0.12625,-0.41 1.7,-0.52 z"/><path fill="#ffc500" d="m 13.004125,28.109125 c 0.155,-0.085 0.25875,-0.17625 0.31,-0.27125 0.05125,-0.09625 0.05125,-0.1925 -0.0025,-0.2875 -0.10375,-0.19 -0.3,-0.21 -0.5875,-0.06625 l -0.115,0.0625 c -0.1525,0.08375 -0.25625,0.17375 -0.31,0.27 -0.05375,0.09625 -0.05375,0.19375 0.0013,0.2925 0.0525,0.095 0.1325,0.14625 0.24125,0.1525 0.11,0.0075 0.24,-0.03 0.39125,-0.11375 z m 0.145,0.4175 c -0.15125,0.08375 -0.30125,0.12875 -0.44875,0.1375 -0.14875,0.0088 -0.2825,-0.02125 -0.4025,-0.09125 -0.12,-0.06875 -0.2175,-0.17 -0.29,-0.30125 -0.0725,-0.13375 -0.1075,-0.2675 -0.1025,-0.40375 0.0038,-0.13625 0.04625,-0.26375 0.12875,-0.38375 0.08125,-0.12 0.195,-0.2225 0.34,-0.305 l 0.0875,-0.04875 c 0.1525,-0.085 0.3025,-0.13125 0.45,-0.13875 0.1475,-0.0075 0.28125,0.0225 0.4025,0.0925 0.12125,0.06875 0.21875,0.17 0.29125,0.30375 0.07375,0.13125 0.10625,0.26625 0.10125,0.40375 -0.0063,0.1375 -0.05125,0.2675 -0.135,0.39 -0.085,0.12 -0.20125,0.2225 -0.35,0.30625 z"/><path fill="#ffc500" d="m 15.053125,29.4605 -0.90125,0.73625 c -0.1025,0.0825 -0.20875,0.1325 -0.31875,0.15 -0.11,0.01875 -0.2175,0.0013 -0.32375,-0.0475 -0.105,-0.05 -0.2025,-0.13 -0.29375,-0.24 -0.1375,-0.16875 -0.20125,-0.33625 -0.1925,-0.50375 0.0075,-0.1675 0.0875,-0.31375 0.2375,-0.43875 l 0.9075,-0.74125 0.2725,0.33375 -0.915,0.74625 c -0.1475,0.1275 -0.165,0.2575 -0.055,0.395 0.05625,0.0675 0.1175,0.105 0.18375,0.10875 0.0675,0.005 0.14375,-0.0275 0.2275,-0.0975 l 0.90125,-0.73375 z"/><path fill="#ffc500" d="m 15.327125,32.085 -0.32375,-0.27625 0.23625,-1.25125 -0.7175,0.84375 -0.325,-0.27875 1.15125,-1.35375 0.32625,0.2775 -0.2375,1.25 0.71625,-0.8425 0.325,0.2775 z"/><path fill="#ffc500" d="m 17.831375,31.93725 -0.46,-0.27 -0.7325,1.2475 -0.37,-0.2175 0.7325,-1.2475 -0.45125,-0.265 0.1675,-0.28375 1.28125,0.75125 z"/><path fill="#ffc500" d="m 19.183375,32.983375 0.26,0.07625 c 0.07875,0.0225 0.1425,0.01875 0.195,-0.01125 0.05125,-0.03 0.0875,-0.08125 0.10875,-0.15375 0.02125,-0.075 0.01875,-0.13875 -0.01,-0.1925 -0.0275,-0.05375 -0.08,-0.09125 -0.1575,-0.1125 l -0.26,-0.07625 z m 0.13,0.38125 -0.2225,-0.065 -0.175,0.60375 -0.41125,-0.11875 0.49625,-1.7075 0.67125,0.19625 c 0.2025,0.05875 0.3475,0.14875 0.435,0.27125 0.08875,0.12375 0.10875,0.26625 0.06125,0.43125 -0.035,0.11875 -0.0875,0.21 -0.1575,0.27375 -0.07125,0.065 -0.165,0.10625 -0.28125,0.12375 l 0.15625,0.7925 -0.005,0.01875 -0.44125,-0.12875 z"/><path fill="#ffc500" d="m 22.087375,32.6855 -0.125,1.15625 c -0.01375,0.13125 -0.05375,0.24125 -0.12,0.33125 -0.06625,0.09 -0.15375,0.15375 -0.26375,0.19375 -0.11,0.03875 -0.23625,0.05 -0.37875,0.035 -0.215,-0.02375 -0.37875,-0.0975 -0.49125,-0.2225 -0.11125,-0.125 -0.1575,-0.285 -0.13875,-0.47875 l 0.125,-1.165 0.42875,0.04625 -0.12625,1.1725 c -0.01625,0.195 0.0625,0.30125 0.2375,0.31875 0.08875,0.01 0.1575,-0.0075 0.20875,-0.05125 0.05,-0.0425 0.08125,-0.11875 0.09375,-0.2275 l 0.12375,-1.155 z"/><path fill="#ffc500" d="m 23.507125,33.9355 c -0.0038,-0.0625 -0.02875,-0.11 -0.07625,-0.14125 -0.04625,-0.0325 -0.12625,-0.06375 -0.24,-0.09375 -0.11375,-0.03 -0.20625,-0.06 -0.28,-0.09125 -0.23625,-0.09875 -0.36125,-0.24625 -0.37375,-0.44375 -0.0062,-0.0975 0.01625,-0.1875 0.07,-0.265 0.0525,-0.08 0.12875,-0.1425 0.23125,-0.19125 0.1025,-0.04875 0.21875,-0.07625 0.35,-0.085 0.1275,-0.0087 0.24125,0.0075 0.34625,0.04625 0.10375,0.04 0.1875,0.09875 0.24875,0.18 0.06125,0.08 0.095,0.17375 0.1025,0.28125 l -0.42625,0.02875 c -0.005,-0.07375 -0.03,-0.1275 -0.07875,-0.165 -0.04625,-0.03625 -0.1075,-0.0525 -0.1825,-0.0475 -0.07625,0.005 -0.135,0.025 -0.1775,0.0625 -0.0425,0.035 -0.06125,0.08 -0.05875,0.13125 0.0025,0.04625 0.03,0.08625 0.08125,0.12 0.05125,0.03375 0.13875,0.06625 0.265,0.0975 0.12375,0.03125 0.2275,0.06875 0.31,0.10875 0.19875,0.0975 0.30375,0.24375 0.31625,0.43875 0.01,0.155 -0.04125,0.28 -0.1525,0.37625 -0.11125,0.095 -0.26875,0.15 -0.4725,0.1625 -0.14375,0.01 -0.27625,-0.0075 -0.39625,-0.0525 -0.11875,-0.04375 -0.21125,-0.10875 -0.27625,-0.195 -0.065,-0.085 -0.1,-0.18625 -0.1075,-0.30375 l 0.42875,-0.0275 c 0.0063,0.095 0.035,0.16375 0.08625,0.205 0.0525,0.0425 0.13375,0.06 0.24375,0.0525 0.07125,-0.005 0.12625,-0.0225 0.165,-0.05625 0.03875,-0.0325 0.0575,-0.07625 0.05375,-0.1325"/><path fill="#ffc500" d="m 26.06325,33.930625 -0.41375,0.10125 -0.17625,-0.72125 -0.6125,0.15 0.17625,0.72125 -0.41625,0.10125 -0.4225,-1.7275 0.41625,-0.10125 0.16875,0.68625 0.6125,-0.15 -0.1675,-0.685 0.41375,-0.10125 z"/><path fill="#ffc500" d="m 26.547875,31.840875 0.895,0.9425 -0.18125,-1.285 0.50875,-0.24625 0.77125,1.6025 -0.3875,0.18625 -0.17875,-0.375 -0.3325,-0.7825 0.1625,1.32625 -0.255,0.12125 -0.93875,-0.9525 0.4075,0.74875 0.18,0.37375 -0.38625,0.18625 -0.77125,-1.60125 z"/><path fill="#ffc500" d="m 29.47025,31.046125 c -0.1075,-0.14 -0.2125,-0.23 -0.315,-0.26625 -0.1025,-0.03625 -0.1975,-0.02 -0.28375,0.045 -0.17125,0.13125 -0.16375,0.32875 0.0225,0.59125 l 0.07875,0.105 c 0.10625,0.1375 0.21125,0.2275 0.31375,0.26625 0.1025,0.03875 0.19875,0.0225 0.28875,-0.045 0.08625,-0.06625 0.125,-0.15375 0.115,-0.2625 -0.0087,-0.10875 -0.06625,-0.23125 -0.17125,-0.36875 z m 0.39,-0.20625 c 0.10625,0.1375 0.17375,0.27875 0.205,0.42375 0.03,0.145 0.01875,0.28125 -0.03125,0.41125 -0.05,0.12875 -0.135,0.24 -0.255,0.3325 -0.12,0.0925 -0.2475,0.14625 -0.38375,0.16125 -0.135,0.01625 -0.2675,-0.0062 -0.39875,-0.06875 -0.13,-0.06375 -0.2475,-0.16 -0.3525,-0.2925 l -0.06125,-0.07875 c -0.10625,-0.1375 -0.17375,-0.28 -0.20375,-0.42375 -0.03,-0.14375 -0.02125,-0.2825 0.03,-0.41125 0.05,-0.13125 0.13625,-0.24125 0.25625,-0.335 0.12,-0.09125 0.24875,-0.145 0.38625,-0.16 0.13625,-0.01375 0.2725,0.01 0.40375,0.07625 0.13375,0.065 0.25125,0.165 0.355,0.3 z"/><path fill="#ffc500" d="m 30.443125,30.098875 0.1825,-0.2 c 0.05375,-0.06 0.08,-0.12 0.07625,-0.17875 -0.0038,-0.06 -0.03375,-0.115 -0.09,-0.1675 -0.05625,-0.05125 -0.115,-0.07625 -0.17625,-0.075 -0.06,0.0013 -0.1175,0.03125 -0.17125,0.09125 l -0.1825,0.19875 z m 0.39875,0.05125 -0.15625,0.17125 0.46375,0.425 -0.28875,0.31625 -1.31125,-1.2 0.47125,-0.5175 c 0.1425,-0.155 0.28875,-0.245 0.4375,-0.26875 0.15,-0.025 0.28625,0.02 0.4125,0.135 0.09125,0.08375 0.15,0.17125 0.17625,0.26375 0.02625,0.09125 0.0225,0.19375 -0.0125,0.30625 l 0.78,0.21 0.0125,0.0125 -0.30875,0.33875 z"/><path fill="#ffc500" d="m 32.1875,28.13725 -0.3675,0.565 0.35625,0.23125 0.43375,-0.66625 0.27625,0.17875 -0.6675,1.02625 -1.49,-0.9675 0.6675,-1.02875 0.27875,0.17875 -0.43625,0.67 0.315,0.20375 0.3675,-0.565 z"/><path fill="#ffc500" d="m 33.4375,25.993625 c -0.05875,-0.02125 -0.1125,-0.01625 -0.16,0.015 -0.0475,0.03 -0.1075,0.0925 -0.17875,0.185 -0.0725,0.0925 -0.13625,0.1675 -0.1925,0.2225 -0.1825,0.18 -0.3675,0.23875 -0.55375,0.175 -0.0925,-0.03375 -0.16625,-0.08875 -0.21875,-0.1675 -0.05125,-0.07875 -0.08,-0.175 -0.085,-0.28875 -0.0063,-0.1125 0.0125,-0.23 0.05625,-0.35375 0.04125,-0.12125 0.10125,-0.2225 0.17625,-0.3025 0.0775,-0.08125 0.16375,-0.135 0.26125,-0.16 0.0975,-0.02625 0.1975,-0.02 0.3,0.01625 l -0.13875,0.4025 c -0.06875,-0.02375 -0.12875,-0.02125 -0.18125,0.0087 -0.05125,0.0275 -0.09125,0.0775 -0.115,0.15 -0.02625,0.07125 -0.03,0.13375 -0.0125,0.1875 0.01875,0.0525 0.05125,0.08875 0.1,0.105 0.04375,0.015 0.09,0.005 0.14125,-0.02875 0.05125,-0.03375 0.115,-0.1025 0.19375,-0.205 0.07625,-0.10375 0.15,-0.185 0.21875,-0.245 0.1675,-0.145 0.34375,-0.18625 0.52625,-0.1225 0.14875,0.05125 0.24375,0.14625 0.29,0.28625 0.045,0.14 0.03375,0.30625 -0.03375,0.5 -0.04625,0.135 -0.1125,0.25 -0.20125,0.34375 -0.08625,0.0925 -0.18125,0.1525 -0.28625,0.18 -0.10375,0.025 -0.21125,0.01875 -0.3225,-0.01875 l 0.14,-0.40625 c 0.09125,0.03125 0.165,0.03125 0.22375,0 0.05875,-0.0325 0.10625,-0.1 0.1425,-0.205 0.02375,-0.0675 0.0275,-0.125 0.01125,-0.17375 -0.015,-0.04875 -0.04875,-0.08125 -0.10125,-0.1"/><path fill="#ffc500" d="m 32.9785,23.503375 -0.08625,0.52625 1.42625,0.23375 -0.06875,0.4225 -1.4275,-0.23375 -0.085,0.5175 -0.32625,-0.05375 0.24,-1.46625 z"/><path fill="#ffc500" d="m 33.7805,22.727625 0.0012,-0.3825 -0.6175,0.19 z m 0.3325,-0.48375 -0.0025,0.5875 0.33125,0.10375 -0.0012,0.4575 -1.775,-0.6575 0.0012,-0.4025 1.77875,-0.65125 -0.0013,0.46 z"/><path fill="#ffc500" d="m 32.745375,20.101375 0.08375,0.5275 1.42875,-0.2275 0.0675,0.42375 -1.42875,0.22625 0.0825,0.5175 -0.3275,0.05125 -0.23375,-1.46625 z"/><path fill="#ffc500" d="m 32.954125,18.44725 0.21125,0.64 0.40375,-0.13375 -0.25,-0.755 0.3125,-0.10375 0.385,1.16125 -1.6875,0.55875 -0.38625,-1.16375 0.315,-0.10375 0.25125,0.7575 0.35625,-0.1175 -0.2125,-0.64 z"/><path fill="#ffc500" d="m 14.332875,15.725125 c -0.05,-0.03875 -0.10125,-0.0525 -0.15625,-0.03875 -0.055,0.0125 -0.13125,0.0525 -0.23,0.11625 -0.09875,0.065 -0.18375,0.11375 -0.255,0.1475 -0.23125,0.11125 -0.425,0.105 -0.58,-0.0175 -0.0775,-0.06125 -0.1275,-0.1375 -0.15125,-0.22875 -0.02375,-0.0925 -0.01875,-0.19125 0.0125,-0.3 0.0325,-0.10875 0.08875,-0.215 0.17,-0.3175 0.07875,-0.1 0.16875,-0.17625 0.26625,-0.2275 0.09875,-0.05125 0.19875,-0.0725 0.3,-0.065 0.10125,0.0087 0.19375,0.04625 0.27875,0.1125 l -0.265,0.33625 c -0.05625,-0.045 -0.115,-0.0625 -0.1725,-0.0525 -0.06,0.01 -0.1125,0.045 -0.15875,0.105 -0.04875,0.06 -0.0725,0.1175 -0.07375,0.1725 0,0.05625 0.02,0.10125 0.06,0.1325 0.03625,0.02875 0.08375,0.035 0.14375,0.02 0.05875,-0.01625 0.1425,-0.06 0.24875,-0.13125 0.1075,-0.0725 0.20375,-0.12625 0.2875,-0.15875 0.20625,-0.0825 0.385,-0.06375 0.5375,0.05625 0.1225,0.0975 0.1825,0.21875 0.18,0.365 -0.0038,0.1475 -0.06875,0.30125 -0.195,0.46125 -0.08875,0.1125 -0.19,0.2 -0.3025,0.26 -0.11375,0.05875 -0.22375,0.085 -0.33,0.075 -0.1075,-0.01 -0.2075,-0.05 -0.29875,-0.1225 l 0.26625,-0.3375 c 0.075,0.05875 0.145,0.0825 0.21,0.0725 0.06625,-0.01125 0.13375,-0.06 0.2025,-0.1475 0.04375,-0.055 0.06625,-0.10875 0.0675,-0.15875 0.0013,-0.05125 -0.01875,-0.095 -0.0625,-0.12875"/><path fill="#ffc500" d="m 15.35825,14.046 c -0.1175,-0.13125 -0.23,-0.21125 -0.335,-0.24 -0.105,-0.02875 -0.1975,-0.0063 -0.28,0.06625 -0.16,0.14375 -0.13625,0.34 0.06875,0.5875 l 0.0875,0.09875 c 0.11625,0.12875 0.22625,0.21 0.3325,0.24125 0.105,0.03 0.2,0.0075 0.285,-0.0675 0.08,-0.0725 0.1125,-0.1625 0.095,-0.27 -0.01875,-0.1075 -0.085,-0.22625 -0.19875,-0.355 z M 15.732,13.811 c 0.11625,0.12875 0.195,0.26375 0.23625,0.4075 0.04125,0.14125 0.04125,0.27875 0.0013,0.41125 -0.04,0.13375 -0.11625,0.25 -0.22875,0.35125 -0.11375,0.10125 -0.23625,0.165 -0.37,0.19125 -0.13375,0.02625 -0.26875,0.01375 -0.4025,-0.04 -0.13625,-0.0525 -0.26125,-0.14 -0.375,-0.2625 L 14.5258,14.796 c -0.115,-0.13 -0.19375,-0.26625 -0.235,-0.4075 -0.04125,-0.1425 -0.0425,-0.28 -0.0012,-0.41375 0.04,-0.13375 0.11625,-0.25 0.23,-0.3525 0.1125,-0.1 0.23625,-0.1625 0.37125,-0.18875 0.13625,-0.025 0.2725,-0.01125 0.41,0.04375 0.13625,0.055 0.2625,0.14625 0.3775,0.2725 z"/><path fill="#ffc500" d="m 16.845125,11.98725 0.6125,0.99 c 0.06875,0.11125 0.10625,0.22375 0.10875,0.335 0.0025,0.11125 -0.02625,0.21625 -0.09,0.315 -0.0625,0.0975 -0.155,0.18375 -0.27625,0.26 -0.18375,0.11375 -0.35875,0.15625 -0.52375,0.12625 -0.165,-0.03 -0.3,-0.1275 -0.405,-0.2925 l -0.61625,-0.9975 0.36625,-0.22625 0.62125,1.00375 c 0.10625,0.1625 0.23375,0.19875 0.38375,0.105 0.07625,-0.04625 0.12,-0.1025 0.1325,-0.1675 0.01375,-0.06625 -0.0087,-0.145 -0.06625,-0.23875 l -0.61125,-0.98625 z"/><path fill="#ffc500" d="m 18.87875,11.46975 -0.495,0.19875 0.53875,1.3425 -0.3975,0.16 L 17.98625,11.8285 17.5,12.0235 17.37625,11.716 18.755,11.16225 Z"/><path fill="#ffc500" d="m 21.13225,12.430375 -0.4175,0.08625 -0.15125,-0.72625 -0.6175,0.1275 0.15125,0.7275 -0.42,0.08625 -0.36125,-1.74 0.42,-0.0875 0.14375,0.69125 0.6175,-0.12875 -0.14375,-0.69 0.4175,-0.08625 z"/><path fill="#ffc500" d="m 22.996875,10.925875 -0.06875,1.115 0.1475,0.0087 c 0.1225,0.0075 0.22,-0.03 0.29125,-0.1125 0.07125,-0.08375 0.1125,-0.21125 0.12375,-0.38375 l 0.0038,-0.0775 c 0.01125,-0.17125 -0.0125,-0.3025 -0.07375,-0.39375 -0.06125,-0.09 -0.15375,-0.14 -0.28,-0.1475 z m -0.5175,1.4175 0.11,-1.775 0.5725,0.03625 c 0.15625,0.0088 0.295,0.05375 0.415,0.1325 0.1225,0.07875 0.2125,0.18625 0.27625,0.31875 0.06,0.135 0.0875,0.2825 0.0775,0.4425 l -0.005,0.08125 c -0.01,0.1625 -0.05375,0.3075 -0.12875,0.43125 -0.07875,0.12375 -0.18125,0.21875 -0.30875,0.28375 -0.13,0.065 -0.27125,0.0925 -0.425,0.085 z"/><path fill="#ffc500" d="m 24.849875,11.956125 0.37125,0.08875 -0.0425,-0.64375 z m 0.39375,0.435 -0.57125,-0.1375 -0.17625,0.29875 -0.44625,-0.10625 1.04875,-1.57625 0.3925,0.09375 0.2225,1.88125 -0.44625,-0.1075 z"/><path fill="#ffc500" d="m 26.766375,12.57625 -0.2375,0.10625 -0.1875,0.43 -0.3925,-0.17125 0.70875,-1.62875 0.39375,0.17 -0.3125,0.72 0.225,-0.1475 0.575,-0.35875 0.48625,0.21125 -0.86625,0.48125 0.155,1.14875 -0.465,-0.20375 z"/><path fill="#ffc500" d="m 28.86725,13.446 c 0.0975,-0.1475 0.14625,-0.27625 0.1475,-0.385 0.0012,-0.10875 -0.04375,-0.1925 -0.135,-0.25375 -0.18,-0.1175 -0.36375,-0.04625 -0.55125,0.21625 l -0.0725,0.10875 c -0.09625,0.145 -0.145,0.2725 -0.14875,0.3825 -0.0038,0.11 0.0425,0.19625 0.1375,0.25875 0.09,0.06 0.185,0.0675 0.28375,0.0225 0.10125,-0.04375 0.19875,-0.13875 0.29375,-0.28125 z m 0.3225,0.3025 c -0.095,0.14375 -0.20625,0.255 -0.33375,0.33 -0.12625,0.07625 -0.26,0.1125 -0.39875,0.10625 -0.1375,-0.005 -0.27125,-0.04875 -0.3975,-0.1325 -0.12625,-0.0825 -0.21875,-0.18625 -0.2775,-0.30875 -0.06,-0.1225 -0.0825,-0.255 -0.065,-0.4 0.01625,-0.14375 0.07,-0.2875 0.15875,-0.42875 L 27.931,12.831 c 0.09625,-0.145 0.2075,-0.255 0.335,-0.33125 0.12625,-0.07625 0.25875,-0.11125 0.39875,-0.10625 0.13875,0.005 0.2725,0.05 0.39875,0.13375 0.12625,0.0825 0.21875,0.18625 0.2775,0.31125 0.05875,0.125 0.07875,0.26 0.06125,0.40625 -0.0175,0.1475 -0.07375,0.29125 -0.1675,0.435 z"/><path fill="#ffc500" d="m 30.918,14.509875 -0.39125,-0.36375 -0.985,1.06125 -0.31375,-0.29125 0.985,-1.06 -0.385,-0.3575 0.22625,-0.24125 1.08875,1.01 z"/><path fill="#ffc500" d="m 30.909375,15.72575 0.23375,0.30125 0.37,-0.53 z m 0.03625,0.58625 -0.36,-0.46375 -0.32625,0.1225 -0.28,-0.36125 1.8025,-0.57625 0.2475,0.3175 -0.99875,1.61 -0.28375,-0.36375 z"/></svg>