<svg xmlns="http://www.w3.org/2000/svg" viewBox="0 0 45 45"><path fill="#00447b" d="m 40,38.75 c 2.76125,0 5,-2.23875 5,-5 v -22.5 c 0,-2.76125 -2.23875,-5 -5,-5 H 5 c -2.76125,0 -5,2.23875 -5,5 v 22.5 c 0,2.76125 2.23875,5 5,5 z"/><path fill="#ffffff" d="m 22.5,34.67775 c -5.2575,0 -8.86625,-1.5375 -10.78375,-2.37375 -1.3225,-0.575 -2.56,-1.4175 -2.59125,-1.52 -0.02,-0.06875 -0.02625,-0.1475 0.00375,-0.295 0.03,-0.1475 0.22375,-0.72125 0.22,-0.80875 -0.0025,-0.0875 -0.1725,-0.2575 -0.3525,-0.38625 -0.18,-0.12875 -0.43375,-0.2675 -0.43375,-0.2675 0,0 0.18375,-0.25375 0.30875,-0.46875 0.14875,-0.255 0.24625,-0.56875 0.28375,-1.105 0.0375,-0.5525 0.205,-0.585 0.205,-0.585 0,0 0.02125,0.155 0.43125,0.4475 0.26375,0.19125 0.8,0.43875 1.23875,0.73625 1.09125,0.7425 1.16875,1.18125 1.16875,1.18125 l -0.18625,0.5775 c 0,0 4.745,2.53375 10.4875,2.53375 5.7425,0 10.48875,-2.53375 10.48875,-2.53375 l -0.1875,-0.5775 c 0,0 0.0775,-0.43875 1.17,-1.18125 0.4375,-0.2975 0.97375,-0.545 1.23875,-0.73625 0.40875,-0.2925 0.43,-0.4475 0.43,-0.4475 0,0 0.1675,0.0325 0.20625,0.585 0.03625,0.53625 0.1325,0.85 0.2825,1.105 0.125,0.215 0.30875,0.46875 0.30875,0.46875 0,0 -0.25375,0.13875 -0.43375,0.2675 -0.18,0.12875 -0.35,0.29875 -0.3525,0.38625 -0.0037,0.0875 0.19125,0.66125 0.22,0.80875 0.03,0.1475 0.025,0.22625 0.0037,0.295 -0.0312,0.1025 -1.2687,0.945 -2.58995,1.52 -1.91875,0.83625 -5.5275,2.37375 -10.785,2.37375"/><path fill="#fbbc54" d="m 28.568125,26.3025 c 0.13125,0.72875 -0.46875,2.265 -1.7325,2.92875 -1.08625,0.57 -2.22375,1.55 -4.335,1.55 -2.47375,0 -3.05375,-0.7425 -4.065,-1.235 -1.90125,-0.92625 -2.26,-3.2925 -1.7425,-3.66125 0.5175,-0.3675 3.1825,-0.7175 5.625,-0.7175 5.70375,0 6.09375,0.27625 6.25,1.135"/><path fill="#5d2401" d="m 27.83075,25.929 c 0.13875,0.28125 -2.79125,2.62625 -4.47125,2.62625 -3.36,0 -6.035,-1.97375 -6.035,-2.4425 0,-0.8 10.05625,-1.09125 10.50625,-0.18375"/><path fill="#a5a5a9" d="m 26.92625,24.6985 c 0,0 0.3375,3.13 -4.585,2.70375 C 19.18,27.1285 18.2725,24.36975 18.2725,24.36975 l 0.10625,-2.3975 h 8.78875 z"/><path fill="#fefefe" d="m 18.272125,24.370125 c 0,0 -0.235,-0.1025 -0.215,-0.65125 0.01875,-0.55 -0.22125,-0.555 -0.065,-1.04 0.1575,-0.485 0.11375,-0.6525 0.11375,-0.6525 l -0.26,0.07875 c 0,0 -0.04,0.21125 -0.35375,0.78375 -0.31375,0.57375 -0.53375,0.81 -0.53375,0.81 0,0 -0.3675,-0.03375 -0.81875,0.01 -0.45125,0.04375 -0.83375,0.11625 -0.83375,0.11625 0,0 -0.27875,0.28 -0.5925,0.52 -0.31375,0.24125 -0.74,0.3925 -0.74,0.3925 0,0 -0.55375,1.06 -1.1675,1.3875 -0.6125,0.32875 -2.28375,0.1325 -2.28375,0.1325 0,0 1.9,-2.44875 3.755,-7.175 1.85625,-4.7275 1.4025,-6.82875 2.92125,-6.75875 1.1025,0.05125 1.20375,1.715 1.72875,3.65375 0.63,2.32 1.2725,4.86 2.24125,4.69125 1.3975,-0.2425 1.1725,-3.18875 1.1725,-3.18875 0,0 -0.7975,-2.55875 -0.72,-4.39375 0.07875,-1.83625 0.45125,-3.05125 2.0525,-2.67625 1.48,0.3475 0.57,2.62625 0.9225,5.73 0.26,2.2925 0.42375,3.04 0.42375,3.04 0,0 0.5625,-3.165 0.9725,-4.74625 0.41,-1.5825 0.51125,-2.36375 1.46875,-2.36375 1.37,0 0.65,1.24625 3.105,6.54375 1.44875,3.1225 4.2,6.9025 4.2,6.9025 0,0 -0.35125,0.10875 -1.30875,0.10875 -0.9575,0 -1.17125,0 -1.50125,-0.39 -0.33125,-0.38875 -0.7575,-1.205 -0.7575,-1.205 0,0 -0.29375,-0.08875 -0.55125,-0.265 -0.2575,-0.1775 -0.41125,-0.44875 -0.41125,-0.44875 0,0 -0.57375,-0.045 -1.12625,-0.22125 -0.55125,-0.17625 -0.73375,-0.07375 -0.8825,-0.235 -0.14625,-0.16125 -0.8225,-1.405 -0.8225,-1.405 0,0 0.015,1.4425 -0.08875,2.125 -0.1025,0.685 -0.39,1.11875 -0.39,1.11875 0,0 0.04625,-1.67 -1.17375,-1.67 -0.59375,0 -0.76125,0.29125 -1.65625,0.53625 -0.59125,0.1625 -1.755,0.1625 -2.3475,0.04 -1.02875,-0.215 -1.41625,-1.10625 -1.97625,-1.10625 -1.17625,0 -1.5,1.87125 -1.5,1.87125"/><path fill="#f79a2b" d="m 25.440625,23.139625 c 0,0 -0.2125,-0.5925 -0.31625,-0.98125 -0.1025,-0.39 -0.07375,-0.4375 -0.1575,-0.49625 -0.08375,-0.05875 -0.1325,0 -0.1325,0 0,0 0.115,0.0425 0.22375,0.555 0.17375,0.80875 0.08,0.97375 0.08,0.97375 0,0 -0.10125,0.0038 -0.32625,-0.45125 -0.22375,-0.45625 -0.43,-0.865 -0.43,-0.865 0,0 -0.04375,-0.01375 -0.10625,-0.01375 -0.0625,0 -0.11375,0.0325 -0.11375,0.0325 0,0 0.05125,0.085 0.1175,0.14375 0.06625,0.05875 0.45875,1.57375 0.50375,1.805 0.04375,0.23125 0.1675,0.33375 0.1675,0.33375 z"/><path fill="#f79a2b" d="m 23.504625,23.728 c 0,0 0.03875,-0.4675 0.125,-0.95625 0.08375,-0.48875 0.02125,-0.945 0.02125,-0.945 0,0 -0.1725,-0.05125 -0.2175,0.34625 -0.02125,0.1975 -0.07125,0.55875 -0.165,0.85625 -0.095,0.3025 -0.2325,0.53625 -0.2325,0.53625 z"/><path fill="#f79a2b" d="m 20.509625,24.41775 c 0,0 0.42,-0.325 0.75125,-0.91125 0.33125,-0.5875 0.66125,-1.0725 0.66125,-1.0725 0,0 -0.09125,-0.15125 -0.44875,0.36375 -0.35625,0.515 -0.6275,0.64 -0.6275,0.64 0,0 0.25375,-0.44125 0.5325,-0.7725 0.28,-0.33125 0.43125,-0.41875 0.43125,-0.41875 0,0 0.01,-0.16625 -0.0075,-0.19125 -0.01875,-0.02625 -0.2575,0.11375 -0.56,0.5625 -0.30125,0.44875 -1.27125,0.905 -1.27125,0.905 z"/><path fill="#fefefe" d="m 28.610875,24.606875 -1.1625,0.4225 0.39375,0.22125 c 0,0 0.01125,0.11625 -0.39375,0.23125 -0.40375,0.11375 -0.54,0.2425 -0.54,0.2425 0,0 0.83125,0.5325 0.53,1.415 -0.1375,0.39875 -0.835,0.97125 -1.77,0.67 -0.46875,-0.1525 -0.12375,-0.70625 -0.12375,-0.70625 l -0.765,-0.30125 -0.43375,0.58875 0.22875,-0.84625 0.38875,0.04375 -0.1325,-0.8125 c 0,0 0.07375,-0.04125 0.1075,-0.04125 0.0325,0 0.17125,0.015 0.17125,0.015 0,0 0.17375,-0.5575 0.155,-0.915 -0.0175,-0.3575 -0.25,-0.525 -0.25,-0.525 0,0 -0.24625,-0.37125 0.01125,-0.68 0.2575,-0.30875 0.0725,-0.42375 0.37125,-0.48625 0.2975,-0.0625 0.53,0.735 0.5075,0.96375 -0.0225,0.2275 -0.15125,0.27125 -0.1025,0.48125 0.0475,0.20875 0.1975,0.64375 0.63625,0.65125 0.43625,0.0075 0.59875,-0.14375 0.59875,-0.14375 0,0 -0.085,-0.0225 -0.335,-0.03 -0.25,-0.0075 -0.41875,-0.10625 -0.41875,-0.10625 0,0 0.04,-0.155 0.38875,-0.14 0.35,0.015 0.36875,-0.05125 0.36875,-0.05125 z"/><path fill="#fefefe" d="m 17.1985,24.635 1.08875,0.16125 c 0,0 -0.3325,0.1125 -0.415,0.1525 -0.08125,0.03875 -0.145,0.1175 -0.145,0.1175 0,0 0.07875,0.09375 0.2,0.1325 0.17375,0.05625 0.7225,0.13875 0.7225,0.13875 0,0 -0.12625,0.2125 -0.35125,0.40875 -0.29375,0.25375 -0.4975,0.7175 -0.25375,1.3125 0.16,0.39 0.835,0.97125 1.76875,0.67 0.46875,-0.15125 0.5575,-0.7625 0.5575,-0.7625 L 20.68225,25.755 20.381,25.295 c 0,0 0.0038,-0.49125 0.06625,-0.75875 0.0275,-0.11625 0.0625,-0.11875 0.0625,-0.11875 0,0 0.0825,-0.23875 0.065,-0.44875 -0.0275,-0.30625 0.115,-0.64625 0.115,-0.64625 l -0.71875,0.2 c 0,0 -0.0725,0.0925 -0.1,0.26875 -0.02875,0.1875 -0.015,0.46375 -0.03125,0.57375 -0.04125,0.26625 -0.4,0.58375 -0.4,0.58375 L 18.8235,24.9075 c 0,0 0.04375,-0.0775 0.0825,-0.13 0.03875,-0.05375 0.10125,-0.10375 0.10125,-0.10375 0,0 -0.5625,-0.07 -0.7525,-0.0825 C 17.421,24.535 17.1985,24.635 17.1985,24.635"/><path fill="#fefefe" d="m 24.22125,27.327875 -0.3375,-0.575 c 0,0 -0.0775,0.02875 -0.11375,0.1925 -0.0375,0.165 -0.14875,0.34375 -0.14875,0.34375 0,0 -0.0025,0.18375 0.03125,0.3375 0.03375,0.155 0.04375,0.2775 -0.015,0.5125 -0.06,0.23625 -0.1375,0.35875 -0.1375,0.35875 0,0 -0.2825,0.0575 -0.34375,0.0575 -0.06,0 -0.3625,-0.19 -0.49,-0.19 -0.1275,0 -0.2075,0.15625 -0.2075,0.15625 0,0 -0.10125,-0.05125 -0.18625,-0.07125 -0.08625,-0.01875 -0.5525,-0.295 -0.73125,-0.17625 -0.235,0.1575 -0.39625,0.08875 -0.39625,0.08875 0,0 -0.1025,-0.22125 -0.11,-0.48875 -0.0075,-0.26625 0.05125,-0.3175 0.05125,-0.3175 0,0 0.07,-0.25875 0.0625,-0.505 -0.005,-0.24625 -0.0925,-0.63875 -0.0925,-0.63875 0,0 -0.03875,-0.01875 -0.07875,0.0825 -0.03875,0.1 -0.1225,0.215 -0.195,0.265 -0.07375,0.04875 -0.12875,0.1225 -0.12875,0.1225 l -0.1925,0.0675 c 0,0 0.13,-0.215 0.365,-0.53875 0.235,-0.32625 0.35,-0.475 0.3875,-0.49 0.03625,-0.015 0.3375,-0.1 0.3375,-0.1 l -0.1175,0.995 c 0,0 0.10375,-0.655 0.155,-0.82375 0.05125,-0.16875 0.07625,-0.16375 0.43875,-0.365 0.3625,-0.20125 0.4675,-0.42625 0.4575,-0.75 -0.0087,-0.32375 -0.01625,-0.535 0.125,-0.82125 0.1425,-0.2875 0.375,-0.41625 0.42625,-0.49125 0.0525,-0.0725 0.06625,-0.05875 0.06625,-0.05875 l 0.2925,0.05125 c 0,0 0.04875,0.10625 0.11,0.17 0.06125,0.06375 0.05625,0.34375 -0.015,0.73 -0.07125,0.38875 -0.31625,0.71125 -0.31625,0.71125 l -0.03625,0.31625 c 0,0 0.12125,0.18625 0.24,0.33375 0.1175,0.14625 0.2125,0.13875 0.21,0.48 -0.0025,0.34 -0.12625,0.65875 -0.13625,0.695 -0.01,0.03875 0.01,0.12375 0.01,0.12375 0,0 0.105,-0.10625 0.155,-0.4275 0.04875,-0.32125 0.03125,-0.6075 0.03125,-0.6075 0,0 0.225,-0.0225 0.3525,0.415 0.1275,0.43625 0.22125,0.83 0.22125,0.83"/><path fill="#e9961a" d="m 22.977875,12.73625 c 0,0 -0.875,0.065 -0.66875,1.065 0.205,1 0.51,1.34375 0.83625,2.08125 0.8625,1.93875 1.3925,5.0175 1.3925,5.0175 0,0 0.0025,0.05 -0.0525,0.12625 -0.07125,0.1 -0.12875,0.12125 -0.12875,0.12125 0,0 0.145,0.38 0.56625,0.055 0.47375,-0.36625 0.1075,-1.97375 -0.0625,-3.25375 -0.30375,-2.295 -0.38875,-3.895 -0.38875,-3.895 0.1875,0 0.30375,-0.32625 0.375,-0.51 0.06875,-0.1825 0.1975,-0.0475 0.19,-0.53625 -0.0075,-0.48875 0.3925,-1.53 0.3925,-1.53 l -0.385,0.57375 0.14375,-0.86375 -0.34125,0.68375 0.09625,-1.125 -0.34,0.69125 -0.115,-0.29 -0.07625,1.04375 -0.2175,-0.8125 -0.07,0.75 -0.44,-0.2975 c 0,0 0.2975,0.83 0.32375,1.26875 0,0 -0.06125,0.1325 -0.4325,0.01 -0.3725,-0.1225 -0.5975,-0.37375 -0.5975,-0.37375"/><path fill="#241a01" d="m 23.59375,12.73625 c 0,0 0.115,0.01 0.16625,0.07625 0.05125,0.06625 0.0325,0.19125 0.0325,0.19125 0,0 -0.1175,0.02625 -0.18625,-0.06375 -0.06125,-0.07875 -0.0125,-0.20375 -0.0125,-0.20375"/><path fill="#ff2a2a" d="m 22.5,22.534125 c 0,0 -0.30125,0.60125 -0.08375,0.66875 0.2525,0.08 0.08375,-0.66875 0.08375,-0.66875"/><path fill="#ff2a2a" d="m 22.6825,22.061125 c 0,0 -0.0125,0.6725 0.21375,0.64 0.26125,-0.03875 -0.21375,-0.64 -0.21375,-0.64"/><path fill="#ff2a2a" d="m 22.465875,21.911625 c 0,0 -0.49375,0.45625 -0.31375,0.5975 0.20875,0.16125 0.31375,-0.5975 0.31375,-0.5975"/></svg>