<svg xmlns="http://www.w3.org/2000/svg" viewBox="0 0 45 45"><path fill="#002687" d="m 0,33.75 c 0,2.76125 2.23875,5 5,5 h 35 c 2.76125,0 5,-2.23875 5,-5 v -22.5 c 0,-2.76125 -2.23875,-5 -5,-5 H 5 c -2.76125,0 -5,2.23875 -5,5 z"/><path fill="#3f3f3f" d="m 19.050875,18.56625 c 0,0 -2.1025,-0.20625 -2.29375,-0.19125 -0.19125,0.015 -1.28875,1.07375 -1.28875,1.07375 0,0 -0.73375,-0.6475 -1.35125,-0.94125 -0.6175,-0.29375 -0.8375,-0.28625 -1.27875,-0.3425 -0.44125,-0.055 -0.50375,-0.23875 -0.50375,-0.23875 0,0 0.34875,-0.14625 0.58125,-0.12875 0.23125,0.01875 0.4775,0.18375 0.6725,0.18375 0.35625,0 0.07625,-0.28625 0.07625,-0.28625 0,0 0.08875,-0.0075 0.17375,0.04375 0.08375,0.05125 0.23875,0.07375 0.30875,-0.165 0.07,-0.23875 -0.01125,-0.23875 -0.02625,-0.37875 -0.015,-0.14 -0.12125,-0.24375 -0.24625,-0.24375 -0.125,0 -0.98125,-0.4325 -0.98125,-0.4325 0,0 0.0075,-0.0375 0.07125,-0.065 0.065,-0.0275 0.08,-0.055 0.08,-0.055 0,0 0.1225,0.0825 0.24,0.085 0.1175,0.0038 0.195,-0.045 0.1975,-0.0575 0.0025,-0.01375 -0.005,-0.0375 -0.08375,-0.0275 -0.0775,0.0087 -0.08125,0 -0.155,-0.0675 -0.07125,-0.065 -0.07625,-0.0925 -0.07375,-0.1075 0.0025,-0.0125 0.04,-0.08875 0.0375,-0.22 -0.0025,-0.13125 0.03375,-0.19875 0.03375,-0.19875 0,0 -0.0275,0.0012 -0.05375,0.07 -0.02125,0.05875 -0.0675,0.0975 -0.15375,0.15875 -0.1075,0.07625 -0.21375,0.0525 -0.21375,0.0525 0,0 0.1475,-0.0525 0.2525,-0.26375 0.105,-0.21125 0.09,-0.3325 0.09,-0.3325 0,0 -0.04125,0.1975 -0.195,0.2925 -0.155,0.09625 -0.43375,0.1125 -0.43375,0.1125 0,0 -0.03375,-0.17875 -0.1,-0.30875 -0.06625,-0.13125 -0.1325,-0.19 -0.1325,-0.19 0,0 -0.115,0.1525 -0.19125,0.37375 -0.07625,0.22 -0.07625,0.295 -0.12375,0.33 -0.04625,0.035 -0.085,-0.0025 -0.085,-0.0025 0,0 -0.0125,-0.19125 0.0225,-0.4175 0.03625,-0.2275 0.0125,-0.26 0.0125,-0.26 0,0 -0.135,0.0075 -0.2625,0.17 -0.12625,0.1625 -0.15375,0.19875 -0.19125,0.19875 -0.03625,0 -0.1525,-0.13625 -0.3025,-0.13625 -0.15,0 -0.31875,0.04875 -0.39625,0.13625 -0.07875,0.08875 -0.07375,0.225 -0.25375,0.225 -0.2275,0 -0.40875,-0.19125 -0.40875,-0.19125 0,0 -0.01125,0.1325 0.02,0.24375 0.03125,0.11125 0.12125,0.1875 0.12125,0.1875 0,0 -0.0575,0.0038 -0.17625,-0.04875 -0.11875,-0.0525 -0.215,-0.0825 -0.215,-0.0825 0,0 0.00875,0.04375 0.0275,0.07125 0.02,0.0275 0.03125,0.055 0.0275,0.0675 -0.00375,0.01375 -0.2275,0.07 -0.3525,0.9225 -0.125,0.8525 0.07375,1.07375 0.07375,1.07375 0,0 0.0875,-0.49625 0.20625,-0.405 0.1175,0.0925 -0.3075,0.31375 0.11,1.515 0.4925,1.415 2.0075,1.58125 2.0075,1.58125 0,0 -0.07375,-0.09875 -0.08125,-0.34125 -0.0075,-0.2425 -0.02625,-0.28625 -0.02625,-0.28625 0,0 0.13125,-0.03 0.14375,0.15125 0.01125,0.15125 0.10875,0.2625 0.10875,0.2625 0,0 -0.005,0.2475 -0.35875,0.5325 -0.3525,0.28375 -0.04875,0.255 -0.52875,0.47 -0.48125,0.215 -0.985,0.5625 -1.26,0.76125 -0.275,0.2 -0.34375,0.44 -0.34375,0.44 0,0 -0.3875,-1.035 -1.1125,-1.035 -0.8925,0 -0.76375,1.3575 -0.76375,1.3575 0,0 -0.59875,0.23625 -1.015,0.99625 -0.4175,0.76 -0.12875,1.51375 -0.12875,1.51375 0,0 -0.16375,-0.12375 -0.38875,-0.12375 -0.22625,0 -0.395,0.16375 -0.395,0.16375 0,0 0.32625,0.015 0.46375,0.11 0.13625,0.095 0.225,0.2875 0.225,0.2875 0,0 -0.02375,0.0675 -0.04625,0.14875 -0.0225,0.08125 -0.0225,0.135 -0.0225,0.135 0,0 0.30875,-0.115 0.46375,-0.20625 0.15375,-0.09 0.2475,-0.3675 0.2475,-0.3675 0,0 0.30375,-0.0087 0.615,-0.30875 0.2225,-0.21375 0.16875,-0.66125 0.16875,-0.66125 0,0 0.7725,-0.1475 0.9875,-0.81375 0.21625,-0.6675 -0.27625,-0.93 -0.27625,-1.115 0,-0.18625 0.3225,0 0.4625,0.085 0.18375,0.11 0.43625,0.01 0.43625,0.01 0,0 -0.14625,0.53 -0.01875,1.01 0.1275,0.48125 0.465,1.07375 0.465,1.07375 0,0 -0.18625,0.5175 -0.39,0.7125 -0.20125,0.19625 -0.3925,0.23625 -0.455,0.4225 -0.0625,0.18875 0.0775,0.4975 0.06625,0.68375 -0.01125,0.18875 -0.18375,1.15125 -0.16875,1.57875 0.01375,0.42625 0.135,0.49 0.31625,0.55 0.455,0.155 0.77125,-0.095 0.77125,-0.095 0,0 -0.41875,-0.59125 -0.47,-0.90375 -0.05125,-0.3125 -0.0475,-0.9825 0.1875,-1.33125 0.235,-0.34875 0.61375,-0.65 1.22375,-1.08125 0.61,-0.43 0.61,-0.775 0.8675,-0.945 0.2575,-0.16875 0.94125,-0.345 1.055,-0.345 0.115,0 0.23625,0.19125 0.22875,0.40125 -0.0075,0.20875 -0.04125,0.36375 -0.04125,0.36375 l 0.16875,0.16875 c 0,0 0.6925,-0.06625 1.10375,0.0325 0.41125,0.1 0.845,0.3725 0.92625,0.38 0.08125,0.0075 0.26125,0.01125 0.26125,0.01125 0,0 -0.0075,0.23375 0.025,0.305 0.03375,0.06875 0.2025,0.1875 0.5225,0.27125 0.4225,0.11 0.48625,-0.0038 0.48625,-0.0038 0,0 -0.03375,-0.1475 -0.25125,-0.4375 -0.21625,-0.29 -0.4,-0.4 -0.5325,-0.49625 -0.1325,-0.09625 -0.26125,-0.2575 -0.26125,-0.2575 0,0 -0.405,-0.08125 -0.83,-0.19125 -0.4275,-0.11 -0.54875,-0.18375 -0.6475,-0.3375 -0.1,-0.155 0.06125,-0.3675 0.0875,-0.8825 0.04375,-0.835 -0.7725,-0.79625 -0.7725,-0.79625 0,0 0.40125,-0.18625 0.90125,-0.57625 0.5,-0.38875 0.80125,-0.67625 0.80125,-0.67625 0,0 0.475,-0.025 0.725,-0.085 0.25,-0.0575 0.4,-0.04375 0.54,-0.01 0.14,0.03375 0.41625,0.15375 0.41625,0.15375 0,0 0.1725,0.52625 0.17625,0.7875 0.0038,0.26125 -0.01875,0.52625 -0.01875,0.52625 0,0 0.235,0.095 0.235,0.1575 0,0.0625 -0.3375,0.29 -0.3375,0.29 0,0 0,0.23875 0.085,0.41625 0.08375,0.17625 0.19,0.29 0.27125,0.29 0.08125,0 0.265,-0.27875 0.2825,-0.45625 0.01875,-0.175 0.01125,-0.37875 0.0525,-0.6725 0.04,-0.29375 -0.29125,-1.1725 -0.3275,-1.47 -0.0375,-0.29875 -0.0475,-0.39 -0.225,-0.48625 -0.17625,-0.095 -1.19125,-0.46625 -1.19125,-0.46625 0,0 0.30375,-0.3375 0.515,-0.735 0.115,-0.21375 0.14375,-0.3925 0.24625,-0.53375 0.20375,-0.27875 0.4675,-0.49625 0.4675,-0.49625 0,0 0.4225,-0.0625 0.76125,0 0.3375,0.0625 0.64625,0.04375 0.64625,0.04375 l 0.4125,-0.13875 z"/><path fill="#3f3f3f" d="m 25.9485,18.56625 c 0,0 2.10375,-0.20625 2.29375,-0.19125 0.19125,0.015 1.29,1.07375 1.29,1.07375 0,0 0.7325,-0.6475 1.35,-0.94125 0.6175,-0.29375 0.83875,-0.28625 1.28,-0.3425 0.44,-0.055 0.50375,-0.23875 0.50375,-0.23875 0,0 -0.35,-0.14625 -0.58125,-0.12875 -0.23125,0.01875 -0.47875,0.18375 -0.6725,0.18375 -0.3575,0 -0.0775,-0.28625 -0.0775,-0.28625 0,0 -0.08875,-0.0075 -0.1725,0.04375 -0.085,0.05125 -0.24,0.07375 -0.30875,-0.165 -0.07,-0.23875 0.01125,-0.23875 0.025,-0.37875 0.015,-0.14 0.12125,-0.24375 0.2475,-0.24375 0.12375,0 0.98125,-0.4325 0.98125,-0.4325 0,0 -0.0075,-0.0375 -0.0725,-0.065 -0.065,-0.0275 -0.07875,-0.055 -0.07875,-0.055 0,0 -0.12375,0.0825 -0.24125,0.085 -0.11625,0.0038 -0.195,-0.045 -0.1975,-0.0575 -0.0013,-0.01375 0.0062,-0.0375 0.08375,-0.0275 0.07875,0.0087 0.0825,0 0.155,-0.0675 0.0725,-0.065 0.07625,-0.0925 0.07375,-0.1075 -0.0013,-0.0125 -0.03875,-0.08875 -0.03625,-0.22 0.0012,-0.13125 -0.03375,-0.19875 -0.03375,-0.19875 0,0 0.0275,0.0012 0.0525,0.07 0.02125,0.05875 0.06875,0.0975 0.15375,0.15875 0.1075,0.07625 0.21375,0.0525 0.21375,0.0525 0,0 -0.14625,-0.0525 -0.2525,-0.26375 -0.105,-0.21125 -0.08875,-0.3325 -0.08875,-0.3325 0,0 0.04,0.1975 0.195,0.2925 0.15375,0.09625 0.43375,0.1125 0.43375,0.1125 0,0 0.0325,-0.17875 0.09875,-0.30875 0.0675,-0.13125 0.1325,-0.19 0.1325,-0.19 0,0 0.11625,0.1525 0.1925,0.37375 0.075,0.22 0.075,0.295 0.1225,0.33 0.04625,0.035 0.08625,-0.0025 0.08625,-0.0025 0,0 0.01125,-0.19125 -0.02375,-0.4175 -0.035,-0.2275 -0.0125,-0.26 -0.0125,-0.26 0,0 0.13625,0.0075 0.2625,0.17 0.1275,0.1625 0.15375,0.19875 0.1925,0.19875 0.03625,0 0.15125,-0.13625 0.3025,-0.13625 0.15,0 0.3175,0.04875 0.395,0.13625 0.07875,0.08875 0.075,0.225 0.25375,0.225 0.2275,0 0.41,-0.19125 0.41,-0.19125 0,0 0.01,0.1325 -0.02,0.24375 -0.03125,0.11125 -0.12125,0.1875 -0.12125,0.1875 0,0 0.05625,0.0038 0.17625,-0.04875 0.11875,-0.0525 0.215,-0.0825 0.215,-0.0825 0,0 -0.0087,0.04375 -0.02875,0.07125 -0.01875,0.0275 -0.03,0.055 -0.02625,0.0675 0.0037,0.01375 0.22625,0.07 0.35125,0.9225 0.12625,0.8525 -0.07375,1.07375 -0.07375,1.07375 0,0 -0.0875,-0.49625 -0.20625,-0.405 -0.11625,0.0925 0.30875,0.31375 -0.10875,1.515 -0.4925,1.415 -2.0075,1.58125 -2.0075,1.58125 0,0 0.07375,-0.09875 0.08,-0.34125 0.0075,-0.2425 0.0275,-0.28625 0.0275,-0.28625 0,0 -0.1325,-0.03 -0.145,0.15125 -0.01,0.15125 -0.1075,0.2625 -0.1075,0.2625 0,0 0.005,0.2475 0.3575,0.5325 0.35375,0.28375 0.05,0.255 0.53,0.47 0.48125,0.21625 0.985,0.5625 1.26,0.76125 0.27375,0.2 0.3425,0.44 0.3425,0.44 0,0 0.3875,-1.035 1.11375,-1.035 0.8925,0 0.76375,1.3575 0.76375,1.3575 0,0 0.5975,0.23625 1.01375,0.99625 0.4175,0.76 0.12875,1.51375 0.12875,1.51375 0,0 0.16375,-0.12375 0.39,-0.12375 0.225,0 0.39375,0.16375 0.39375,0.16375 0,0 -0.32625,0.015 -0.4625,0.11 -0.1375,0.095 -0.22625,0.2875 -0.22625,0.2875 0,0 0.025,0.0675 0.04625,0.14875 0.0225,0.08125 0.0225,0.135 0.0225,0.135 0,0 -0.30875,-0.115 -0.4625,-0.20625 -0.155,-0.09 -0.2475,-0.3675 -0.2475,-0.3675 0,0 -0.305,-0.0087 -0.61625,-0.30875 -0.22125,-0.21375 -0.1675,-0.66125 -0.1675,-0.66125 0,0 -0.77375,-0.1475 -0.98875,-0.81375 -0.215,-0.6675 0.27625,-0.93 0.27625,-1.115 0,-0.18625 -0.3225,0 -0.4625,0.085 -0.18375,0.11 -0.43625,0.01 -0.43625,0.01 0,0 0.1475,0.53 0.02,1.01 -0.1275,0.48125 -0.46625,1.07375 -0.46625,1.07375 0,0 0.1875,0.5175 0.39,0.7125 0.2025,0.19625 0.39375,0.23625 0.45625,0.4225 0.0625,0.18875 -0.07875,0.4975 -0.06625,0.68375 0.01125,0.18875 0.18375,1.15125 0.16875,1.57875 -0.015,0.42625 -0.13625,0.49 -0.31625,0.55 -0.455,0.155 -0.77125,-0.095 -0.77125,-0.095 0,0 0.41875,-0.59125 0.47,-0.90375 0.05125,-0.3125 0.0475,-0.9825 -0.18875,-1.33125 -0.23375,-0.34875 -0.6125,-0.65 -1.2225,-1.08125 -0.61,-0.43 -0.61,-0.775 -0.86875,-0.945 -0.2575,-0.16875 -0.94,-0.345 -1.055,-0.345 -0.11375,0 -0.235,0.19125 -0.2275,0.40125 0.0075,0.20875 0.04,0.36375 0.04,0.36375 l -0.16875,0.16875 c 0,0 -0.69125,-0.06625 -1.1025,0.0325 -0.4125,0.1 -0.84625,0.3725 -0.92625,0.38 -0.08125,0.0075 -0.26125,0.01125 -0.26125,0.01125 0,0 0.0062,0.23375 -0.02625,0.305 -0.0325,0.06875 -0.2025,0.1875 -0.5225,0.27125 -0.4225,0.11 -0.485,-0.0038 -0.485,-0.0038 0,0 0.03375,-0.1475 0.25,-0.4375 0.21625,-0.29 0.40125,-0.4 0.5325,-0.49625 0.13375,-0.09625 0.26125,-0.2575 0.26125,-0.2575 0,0 0.405,-0.08125 0.83125,-0.19125 0.42625,-0.11 0.5475,-0.18375 0.6475,-0.3375 0.09875,-0.155 -0.06125,-0.3675 -0.08875,-0.8825 -0.04375,-0.835 0.7725,-0.79625 0.7725,-0.79625 0,0 -0.4,-0.18625 -0.90125,-0.57625 -0.5,-0.38875 -0.80125,-0.67625 -0.80125,-0.67625 0,0 -0.47375,-0.025 -0.725,-0.085 -0.25,-0.0575 -0.4,-0.04375 -0.54,-0.01 -0.14,0.03375 -0.415,0.15375 -0.415,0.15375 0,0 -0.1725,0.52625 -0.17625,0.7875 -0.005,0.26125 0.01875,0.52625 0.01875,0.52625 0,0 -0.23625,0.095 -0.23625,0.1575 0,0.0625 0.33875,0.29 0.33875,0.29 0,0 0,0.23875 -0.085,0.41625 -0.085,0.1763 -0.19125,0.29005 -0.27125,0.29005 -0.0825,0 -0.265,-0.27875 -0.28375,-0.45625 -0.01875,-0.175 -0.01125,-0.37875 -0.05125,-0.6725 -0.04,-0.29375 0.29125,-1.1725 0.3275,-1.47 0.03625,-0.29875 0.0475,-0.39 0.22375,-0.48625 0.17625,-0.095 1.19125,-0.46625 1.19125,-0.46625 0,0 -0.3025,-0.3375 -0.51375,-0.735 -0.115,-0.21375 -0.145,-0.3925 -0.2475,-0.53375 -0.20375,-0.27875 -0.4675,-0.49625 -0.4675,-0.49625 0,0 -0.4225,-0.0625 -0.76,0 -0.33875,0.0625 -0.6475,0.04375 -0.6475,0.04375 L 26.096,18.83875 Z"/><path fill="#d20307" d="m 22.5,31.8115 c 2.31125,0 3.7325,-2.1575 3.7325,-2.1575 0,0 0.96125,1.30375 3.20625,1.30375 1.6275,0 2.9125,-1.675 2.9125,-1.675 0,0 0.0175,0.1725 -0.035,0.3275 -0.05125,0.15375 0.0175,0.305 0.0175,0.305 0,0 -0.205,0.085 -0.375,0.2725 -0.1675,0.1875 -0.23,0.4775 -0.23,0.4775 0,0 0.17625,-0.2175 0.70125,-0.2725 0.85375,-0.0875 0.77,-0.405 0.77,-0.405 0,0 0.1825,-0.07625 0.50625,0.29125 0.3625,0.4125 0.66125,-0.0062 0.66125,-0.0062 0,0 -0.34875,0.0325 -0.45875,-0.2475 C 33.7975,29.7465 33.59,29.404 33.14,29.5065 c -0.45125,0.10375 -0.56,-0.48 -0.56,-0.48 0,0 0.32375,-0.3325 0.60875,-0.46625 C 33.4725,28.429 33.67,28.5365 33.67,28.5365 c 0,0 0.0063,-0.1175 -0.34625,-0.33875 -0.3525,-0.21875 -0.405,-0.25 -0.5225,-0.2575 -0.1175,-0.0075 -0.44,0.11875 -1.03625,0.75125 -0.595,0.6325 -1.2425,1.22 -2.23625,1.3375 -0.9925,0.1175 -1.845,-0.235 -2.19125,-0.44 -0.345,-0.20625 -0.75625,-0.515 -1.19,-0.515 -0.435,0 -0.6025,0.1025 -0.6025,0.1025 0,0 -1.25,1.6325 -3.045,1.6325 -1.79375,0 -3.04375,-1.6325 -3.04375,-1.6325 0,0 -0.17,-0.1025 -0.6025,-0.1025 -0.435,0 -0.84625,0.30875 -1.1925,0.515 -0.345,0.205 -1.19875,0.5575 -2.19125,0.44 -0.99125,-0.1175 -1.63875,-0.705 -2.235,-1.3375 -0.595,-0.6325 -0.91875,-0.75875 -1.03625,-0.75125 -0.1175,0.0075 -0.16875,0.03875 -0.5225,0.2575 -0.3525,0.22125 -0.345,0.33875 -0.345,0.33875 0,0 0.19625,-0.1075 0.48,0.02375 0.28375,0.13375 0.6075,0.46625 0.6075,0.46625 0,0 -0.1075,0.58375 -0.55875,0.48 -0.45125,-0.1025 -0.6575,0.24 -0.7675,0.51875 -0.11125,0.28 -0.46,0.2475 -0.46,0.2475 0,0 0.29875,0.41875 0.66125,0.0062 C 11.6175,29.91145 11.8,29.9877 11.8,29.9877 c 0,0 -0.0825,0.3175 0.77,0.405 0.525,0.055 0.7025,0.2725 0.7025,0.2725 0,0 -0.0625,-0.29 -0.2325,-0.4775 -0.16875,-0.1875 -0.375,-0.2725 -0.375,-0.2725 0,0 0.07,-0.15125 0.01875,-0.305 C 12.6325,29.4552 12.65,29.2827 12.65,29.2827 c 0,0 1.28375,1.675 2.91125,1.675 2.245,0 3.20625,-1.30375 3.20625,-1.30375 0,0 1.42125,2.1575 3.7325,2.1575"/><path fill="#ddaa04" d="m 22.5,27.38275 c -3.48375,0 -3.48375,-1.945 -3.48375,-1.945 0,0 -0.0825,-0.05 -0.16125,-0.15125 -0.1125,-0.145 -0.1,-0.24 -0.1,-0.24 0,0 0.4575,0.0975 0.61,-0.27 0.1375,-0.32875 -0.03625,-0.4425 -0.03625,-0.4425 0,0 -0.13375,0.27125 -0.47125,0.0975 -0.2225,-0.115 -0.17375,-0.33625 -0.17375,-0.33625 0,0 0.4,0.03875 0.39,-0.3775 -0.0063,-0.25375 -0.32625,-0.5275 -0.32625,-0.5275 0,0 -0.19125,0.2925 -0.55625,0.12625 -0.5325,-0.24375 -1.0975,-1.56875 -0.66,-2.91625 0.1975,-0.6075 0.88,-1.465 1.32875,-1.70125 0.6425,-0.33875 1.10375,-1.735 3.64,-1.735 2.53625,0 2.9975,1.39625 3.64,1.735 0.44875,0.23625 1.13,1.09375 1.32875,1.70125 0.4375,1.3475 -0.1275,2.6725 -0.66,2.91625 -0.365,0.16625 -0.55625,-0.12625 -0.55625,-0.12625 0,0 -0.32,0.27375 -0.32625,0.5275 -0.01,0.41625 0.39,0.3775 0.39,0.3775 0,0 0.04875,0.22125 -0.17375,0.33625 -0.3375,0.17375 -0.47125,-0.0975 -0.47125,-0.0975 0,0 -0.17375,0.11375 -0.03625,0.4425 0.15375,0.3675 0.61,0.27 0.61,0.27 0,0 0.0125,0.095 -0.1,0.24 -0.07875,0.10125 -0.16125,0.15125 -0.16125,0.15125 0,0 0,1.945 -3.48375,1.945"/><path fill="#016a1b" d="m 25.6775,23.468 c -0.0725,0.115 -0.1425,0.25 -0.19875,0.40125 -0.245,0.6525 -0.05875,1.12625 -0.05875,1.12625 0,0 -0.25625,-0.16375 -0.39625,0.05625 -0.11,0.1725 0.12125,0.34125 0.12125,0.34125 0,0 -0.09625,0.42 -0.70625,0.62875 C 23.21625,26.44175 22.5,25.493 22.5,25.493 c 0,0 -0.71625,0.94875 -1.93875,0.52875 C 19.95,25.813 19.855,25.393 19.855,25.393 c 0,0 0.23125,-0.16875 0.12125,-0.34125 -0.14,-0.22 -0.39625,-0.05625 -0.39625,-0.05625 0,0 0.18625,-0.47375 -0.0575,-1.12625 C 19.465,23.718 19.39375,23.583 19.3225,23.468 Z"/><path fill="#ffcf00" d="m 19.3225,23.468 c -0.1725,-0.27875 -0.35,-0.44125 -0.35,-0.44125 0,0 0.43125,-0.0013 0.38625,-0.34 -0.055,-0.4075 -0.45875,-0.15 -0.45875,-0.15 0,0 -0.35875,-0.45625 -0.35875,-1.30875 0,-0.01875 0,-0.0375 0,-0.05625 h 7.91625 c 0.0012,0.01875 0.0012,0.0375 0.0012,0.05625 0,0.8525 -0.3575,1.30875 -0.3575,1.30875 0,0 -0.405,-0.2575 -0.46,0.15 -0.045,0.33875 0.385,0.34 0.385,0.34 0,0 -0.17625,0.1625 -0.34875,0.44125 z"/><path fill="#83cde3" d="M 26.4575,21.17125 C 26.44125,20.465 26.135,19.87 25.90125,19.56875 c -0.3925,-0.505 -0.785,-0.41875 -0.785,-0.41875 0,0 -0.0875,0.24625 -0.295,0.2175 -0.2725,-0.03625 -0.215,-0.3525 -0.215,-0.3525 0,0 -0.25125,0.19125 -0.385,0.05125 -0.135,-0.14 -0.09,-0.22625 -0.12625,-0.515 -0.03125,-0.265 -0.22375,-0.58125 -0.41875,-0.74 -0.27875,-0.23 -0.5175,-0.1475 -0.5175,-0.1475 0,0 -0.05875,0.21125 -0.1925,0.21125 -0.23125,0 -0.2475,-0.2425 -0.2475,-0.2425 0,0 -0.03,0.14 -0.21875,0.14 -0.18875,0 -0.21875,-0.14 -0.21875,-0.14 0,0 -0.01625,0.2425 -0.2475,0.2425 C 21.9,17.875 21.84,17.66375 21.84,17.66375 c 0,0 -0.23625,-0.0825 -0.51625,0.1475 -0.19375,0.15875 -0.3875,0.475 -0.42,0.74 -0.035,0.28875 0.01,0.375 -0.12375,0.515 -0.135,0.14 -0.38625,-0.05125 -0.38625,-0.05125 0,0 0.0575,0.31625 -0.215,0.3525 C 19.97125,19.39625 19.885,19.15 19.885,19.15 c 0,0 -0.39375,-0.08625 -0.78625,0.41875 C 18.865,19.87 18.5575,20.465 18.54125,21.17125 Z"/><path fill="#322700" d="m 20.34425,16.553375 c -0.0625,0 -0.2625,-0.62625 -0.64625,-2.24375 -0.38125,-1.61875 -0.48375,-1.9575 -0.1325,-2.045 0.35625,-0.0875 0.8025,1.08125 0.94125,1.08125 0.10375,0 0.0575,-0.22625 0.3525,-0.355 0.29375,-0.12875 0.565,-0.155 0.565,-0.37625 0,-0.15125 -0.3125,-0.265 -0.49375,-0.37375 -0.12375,-0.075 -0.125,-0.145 -0.125,-0.145 0,0 -0.105,0.05375 -0.08875,-0.1 0.015,-0.13875 0.13625,-0.15 0.23125,-0.12875 0.09625,0.0225 0.19125,0.0775 0.19125,0.0775 0,0 0.09625,-0.07375 0.2025,-0.06625 0.10625,0.0075 0.58125,0.22375 0.6325,0.40875 0.115,0.4175 -0.0625,0.7125 -0.0625,0.83375 0,0.08875 0.0925,0.28375 0.0925,0.28375 0,0 0.1325,-0.04875 0.275,-0.4525 0.14375,-0.405 0.1025,-0.55125 0.4225,-0.55125 0.32,0 0.55625,0.1175 1.48125,1.29 0.655,0.83125 1.6375,1.40875 1.6275,1.545 -0.01625,0.215 -0.6675,-0.2575 -0.7,-0.17375 -0.02125,0.0525 0.6225,0.4925 0.74125,0.6475 0.0525,0.0675 -0.2625,0.06 -0.48625,-0.03625 -0.39875,-0.16875 -2.025,-1.5975 -2.18375,-1.27125 -0.13875,0.2825 0.90125,0.8075 1.5675,1.2925 0.725,0.5275 0.59125,0.61625 0.59125,0.61625 0,0 -0.365,-0.0075 -0.595,0.0175 -0.23125,0.025 -0.395,0.1425 -0.395,0.1425 0,0 -0.30875,-0.205 -0.505,-0.35875 -0.195,-0.1525 -0.44375,-0.38125 -0.44375,-0.38125 0,0 0.0325,0.15375 -0.0025,0.225 -0.03375,0.07125 -0.16,0.29375 -0.225,0.29375 -0.155,0 -0.19375,-0.235 -0.2575,-0.235 -0.05125,0 -0.20875,0.2775 -0.30375,0.2775 -0.09625,0 -0.2675,-0.285 -0.36625,-0.285 -0.0975,0 -0.11125,0.07625 -0.23625,0.07625 -0.12625,0 -0.35625,-0.80625 -0.4325,-0.87 -0.075,-0.06375 -0.15625,-0.0325 -0.24375,-0.05375 -0.08875,-0.0225 -0.6725,-0.385 -0.75625,-0.385 -0.0825,0 -0.02125,0.6975 -0.06875,1.0475 -0.04625,0.35 -0.1025,0.73125 -0.165,0.73125"/></svg>