<svg xmlns="http://www.w3.org/2000/svg" viewBox="0 0 45 45"><path fill="#000f5d" d="m 0,33.75 c 0,2.76125 2.23875,5 5,5 h 35 c 2.76125,0 5,-2.23875 5,-5 v -22.5 c 0,-2.76125 -2.23875,-5 -5,-5 H 5 c -2.76125,0 -5,2.23875 -5,5 z"/><path fill="#d59f0f" d="m 20.0275,13.5455 -0.08375,0.14125 -1.0125,-0.56125 0.1175,-0.20125 z"/><path fill="#d59f0f" d="m 20.841125,12.712375 -0.1225,0.085 -1.09,-0.205 0.66625,0.59375 -0.1,0.12125 -0.9075,-0.72125 0.1425,-0.17125 1.135,0.17 -0.53125,-0.72375 0.17,-0.11875 z"/><path fill="#d59f0f" d="m 20.758,11.57775 0.38375,0.825 c 0,0 0.08625,-0.03875 0.145,-0.0625 0.10875,-0.0425 0.18125,-0.10375 0.22625,-0.1925 0.0425,-0.08875 0.05125,-0.1975 0.0175,-0.32875 -0.0075,-0.02625 -0.01,-0.03875 -0.0175,-0.065 -0.0325,-0.1275 -0.09375,-0.22 -0.1875,-0.2675 -0.09625,-0.04875 -0.2175,-0.05 -0.355,0.0012 -0.085,0.03375 -0.2125,0.09 -0.2125,0.09 m 0.30625,1.0025 -0.54375,-1.025 c 0,0 0.23625,-0.11875 0.4,-0.1825 0.125,-0.04875 0.2475,-0.06375 0.3575,-0.04875 0.11,0.015 0.2,0.06125 0.26625,0.1275 0.06875,0.06875 0.115,0.15625 0.13625,0.26125 0.0063,0.02875 0.0088,0.04375 0.015,0.0725 0.02125,0.10625 0.01625,0.20625 -0.0062,0.295 -0.0225,0.08875 -0.065,0.16375 -0.12375,0.22625 -0.06125,0.06375 -0.13375,0.11125 -0.225,0.14875 -0.11375,0.04375 -0.27625,0.125 -0.27625,0.125"/><path fill="#d59f0f" d="m 22.16975,12.269875 -0.14125,0.01375 -0.13875,-1.15125 0.20125,-0.0175 z"/><path fill="#d59f0f" d="m 22.674,11.85125 0.41875,0.06875 -0.12,-0.57625 z m 0.435,0.20125 -0.495,-0.08125 -0.12625,0.29625 -0.14875,-0.0037 0.57625,-1.11875 0.175,0.02875 c 0,0 0.1825,0.7525 0.18625,1.24375 -0.055,-0.02 -0.14,-0.045 -0.14,-0.045 z"/><path fill="#d59f0f" d="M 24.137,12.9035 24.02075,12.811 23.927,11.7185 23.5445,12.526 23.41325,12.4685 23.8545,11.396 l 0.1875,0.08125 0.1375,1.125 0.53875,-0.71875 0.16375,0.13 z"/><path fill="#d59f0f" d="m 24.801,12.96575 0.27,0.375 0.30875,-0.51375 z m 0.19125,0.48625 -0.32,-0.445 -0.30125,0.11875 -0.10875,-0.11 1.2125,-0.3775 0.1125,0.15625 -0.7225,1.065 -0.075,-0.15 z"/><path fill="#d59f0f" d="m 22.61875,17.11375 h -0.2375 v -1.585 h 0.2375 z"/><path fill="#d59f0f" d="m 24.80225,17.03125 -0.195,-0.13625 3.0625,-4.36625 0.195,0.1375 z"/><path fill="#d59f0f" d="m 25.130625,18.464375 -0.085,-0.2225 7.115,-2.74625 0.085,0.2225 z"/><path fill="#d59f0f" d="m 33.878125,20.979 -8.655,-1.0375 0.03,-0.235 8.65375,1.0375 z"/><path fill="#d59f0f" d="m 20.19775,17.03125 -3.0625,-4.365 0.195,-0.1375 3.06125,4.36625 z"/><path fill="#d59f0f" d="m 19.869375,18.464375 -7.115,-2.74625 0.085,-0.2225 7.115,2.74625 z"/><path fill="#d59f0f" d="m 11.12125,20.979 -0.0275,-0.235 8.65375,-1.0375 0.02875,0.235 z"/><path fill="#d59f0f" d="m 22.5,12.34075 0.4775,1.3425 1.42375,0.03875 -1.12875,0.87 0.4025,1.36625 -1.175,-0.805 -1.175,0.805 0.4025,-1.36625 -1.12875,-0.87 1.42375,-0.03875 z"/><path fill="#d59f0f" d="m 22.5,8.104875 0.3375,0.94875 1.00625,0.0275 -0.7975,0.61375 0.28375,0.965 -0.83,-0.56875 -0.83125,0.56875 0.285,-0.965 -0.7975,-0.61375 1.00625,-0.0275 z"/><path fill="#d59f0f" d="m 22.5,29.442125 0.345,0.9675 1.0275,0.03 -0.815,0.62625 0.29125,0.98625 -0.84875,-0.58125 -0.84875,0.58125 0.29125,-0.98625 -0.815,-0.62625 1.0275,-0.03 z"/><path fill="#d59f0f" d="m 25.632375,34.32375 0.34375,0.96875 1.02875,0.02875 -0.815,0.6275 0.29125,0.98625 -0.84875,-0.58125 -0.84875,0.58125 0.29125,-0.98625 -0.815,-0.6275 1.02875,-0.02875 z"/><path fill="#d59f0f" d="m 28.27875,27.044625 0.345,0.96875 1.02875,0.02875 -0.81625,0.6275 0.29125,0.98625 -0.84875,-0.58125 -0.8475,0.58125 0.29125,-0.98625 -0.81625,-0.6275 1.02875,-0.02875 z"/><path fill="#d59f0f" d="m 31.073,31.22075 0.345,0.96875 1.02875,0.02875 -0.81625,0.6275 0.29125,0.98625 -0.84875,-0.58125 -0.8475,0.58125 0.29125,-0.98625 -0.81625,-0.6275 1.02875,-0.02875 z"/><path fill="#d59f0f" d="m 34.7205,26.206 0.34375,0.96875 1.02875,0.02875 -0.815,0.6275 0.29125,0.98625 L 34.7205,28.236 33.87175,28.81725 34.163,27.831 33.348,27.2035 34.37675,27.17475 Z"/><path fill="#d59f0f" d="m 30.72025,21.242625 0.345,0.96875 1.02875,0.02875 -0.81625,0.62625 0.29125,0.9875 -0.84875,-0.5825 -0.84875,0.5825 0.2925,-0.9875 -0.81625,-0.62625 1.02875,-0.02875 z"/><path fill="#d59f0f" d="m 35.647,19.72775 0.34375,0.96875 1.02875,0.02875 -0.815,0.62625 0.29125,0.98625 -0.84875,-0.58 -0.84875,0.58 0.29125,-0.98625 -0.815,-0.62625 1.02875,-0.02875 z"/><path fill="#d59f0f" d="m 33.234875,13.875125 0.345,0.96875 1.02875,0.0275 -0.81625,0.6275 0.29125,0.98625 -0.84875,-0.58 -0.84875,0.58 0.2925,-0.98625 -0.81625,-0.6275 1.02875,-0.0275 z"/><path fill="#d59f0f" d="m 28.67675,9.801625 0.34375,0.96875 1.02875,0.0275 -0.815,0.6275 0.29125,0.98625 -0.84875,-0.58 -0.84875,0.58 0.29125,-0.98625 -0.81625,-0.6275 1.02875,-0.0275 z"/><path fill="#d59f0f" d="m 19.367625,34.32375 -0.345,0.96875 -1.0275,0.02875 0.815,0.6275 -0.29125,0.98625 0.84875,-0.58125 0.84875,0.58125 -0.29125,-0.98625 0.815,-0.6275 -1.0275,-0.02875 z"/><path fill="#d59f0f" d="m 16.720625,27.044625 -0.345,0.96875 -1.0275,0.02875 0.815,0.6275 -0.29125,0.98625 0.84875,-0.58125 0.84875,0.58125 -0.29125,-0.98625 0.815,-0.6275 -1.0275,-0.02875 z"/><path fill="#d59f0f" d="m 13.926375,31.22075 -0.34375,0.96875 -1.02875,0.02875 0.815,0.6275 -0.29125,0.98625 0.84875,-0.58125 0.84875,0.58125 -0.29125,-0.98625 0.815,-0.6275 -1.0275,-0.02875 z"/><path fill="#d59f0f" d="M 10.2795,26.206 9.9345,27.17475 8.907,27.2035 9.722,27.831 9.43075,28.81725 10.2795,28.236 11.12825,28.81725 10.837,27.831 11.652,27.2035 10.62325,27.17475 Z"/><path fill="#d59f0f" d="m 14.279125,21.242625 -0.34375,0.96875 -1.02875,0.02875 0.815,0.62625 -0.29,0.9875 0.8475,-0.5825 0.84875,0.5825 -0.29125,-0.9875 0.815,-0.62625 -1.0275,-0.02875 z"/><path fill="#d59f0f" d="m 9.353,19.72775 -0.345,0.96875 -1.0275,0.02875 0.815,0.62625 -0.29125,0.98625 0.84875,-0.58 0.84875,0.58 L 9.9105,21.3515 10.7255,20.72525 9.69675,20.6965 Z"/><path fill="#d59f0f" d="m 11.7645,13.875125 -0.34375,0.96875 -1.02875,0.0275 0.815,0.6275 -0.29125,0.98625 0.84875,-0.58 0.84875,0.58 -0.29125,-0.98625 0.815,-0.6275 -1.0275,-0.0275 z"/><path fill="#d59f0f" d="m 16.32325,9.801625 -0.34375,0.96875 -1.02875,0.0275 0.815,0.6275 -0.29,0.98625 0.8475,-0.58 0.84875,0.58 -0.29125,-0.98625 0.815,-0.6275 -1.0275,-0.0275 z"/><path fill="#d59f0f" d="m 22.5,28.610875 0.5125,1.615 0.29375,-4.95875 h 0.42625 v -0.53875 H 23.38 c 0,0 -0.04875,-0.80125 0.22375,-1.73625 0.27125,-0.93375 1.18125,-1.605 1.18125,-1.605 v -0.43375 h -4.57 v 0.43375 c 0,0 0.91,0.67125 1.1825,1.605 0.27125,0.935 0.2225,1.73625 0.2225,1.73625 h -0.3525 v 0.53875 h 0.4275 l 0.2925,4.95875 z"/><path fill="#d59f0f" d="m 22.5,35.882625 c 0,0 0.105,-0.07 0.19875,-0.40125 0.09375,-0.3325 0.09375,-0.59625 0.09375,-0.59625 l 0.135,-2.715 -0.4275,-0.29875 -0.4275,0.29875 0.135,2.715 c 0,0 0,0.26375 0.09375,0.59625 0.09375,0.33125 0.19875,0.40125 0.19875,0.40125"/><path fill="#d59f0f" d="m 23.305625,20.7245 c 0,0 0.155,-0.1725 0.2975,-0.38875 0.21875,-0.33375 0.42625,-0.86625 0.14875,-1.77 -0.22875,-0.75 -0.19,-1.16375 0.0675,-1.55875 0.18875,-0.29125 0.515,-0.51375 0.515,-0.51375 0,0 -0.81625,-0.0012 -1.3825,0.46625 -0.60125,0.4975 -0.72875,1.0675 -0.72875,1.0675 0,0 0.06375,-0.27125 -0.1675,-0.67375 -0.14875,-0.26125 -0.195,-0.4125 -0.195,-0.4125 0,0 0.02625,0.18 -0.05875,0.44875 -0.1775,0.55875 -0.52875,1.065 -0.4375,1.805 0.11125,0.90375 0.59,1.53 0.59,1.53 z"/><path fill="#d59f0f" d="m 20.650625,20.7245 c 0,0 -0.52125,-0.63375 -0.52125,-1.2125 0,-0.57875 0.245,-0.9275 0.40375,-1.34 0.1575,-0.41125 0.15375,-0.68375 0.15375,-0.68375 0,0 0.36125,0.615 0.3025,1.20625 -0.05875,0.5925 -0.04875,0.97375 0.18375,1.40125 0.155,0.28625 0.50625,0.62875 0.50625,0.62875 z"/><path fill="#d59f0f" d="m 24.224875,20.7245 c 0,0 0.21375,-0.13125 0.51375,-0.50125 0.24,-0.2975 0.3225,-0.56125 0.39625,-1.075 0.0825,-0.57375 0.26875,-0.79875 0.26875,-0.79875 0,0 -0.12125,0.08375 -0.3225,0.3075 -0.20125,0.2225 -0.395,0.45125 -0.395,0.45125 0,0 0.1775,-0.3925 0.07875,-0.7475 -0.075,-0.27 -0.0075,-0.45125 0.115,-0.68 0.1225,-0.2275 0.06875,-0.42 0.06875,-0.42 0,0 -0.53,0.19125 -0.71625,0.63625 -0.18875,0.445 0.19625,1.1425 -0.06375,1.92625 -0.17375,0.525 -0.51375,0.90125 -0.51375,0.90125 z"/></svg>