<svg xmlns="http://www.w3.org/2000/svg" viewBox="0 0 45 45"><path fill="#002986" d="m 45,33.75 c 0,2.76125 -2.23875,5 -5,5 H 5 c -2.76125,0 -5,-2.23875 -5,-5 v -22.5 c 0,-2.76125 2.23875,-5 5,-5 h 35 c 2.76125,0 5,2.23875 5,5 z"/><path fill="#ffffff" d="m 12.460375,11.317125 0.4825,-2.83125 h 0.735 l -0.795,3.97875 h -0.7425 l -0.5825,-2.66125 -0.5825,2.66125 h -0.7425 l -0.795,-3.97875 h 0.735 l 0.485,2.82625 0.59,-2.82625 h 0.625 z"/><path fill="#ffffff" d="M 14.64,12.465 H 13.9025 V 8.48625 H 14.64 Z"/><path fill="#ffffff" d="m 17.134375,11.420875 c 0,-0.155 -0.05,-0.27375 -0.1475,-0.3575 -0.09875,-0.0825 -0.275,-0.17 -0.53125,-0.26125 -0.25625,-0.0925 -0.45875,-0.18375 -0.6075,-0.2725 -0.40625,-0.24375 -0.61,-0.5725 -0.61,-0.98625 0,-0.215 0.055,-0.40625 0.16375,-0.575 0.10875,-0.16875 0.26625,-0.3 0.47,-0.395 0.20375,-0.095 0.4325,-0.1425 0.6875,-0.1425 0.255,0 0.48375,0.05125 0.6825,0.155 0.20125,0.1025 0.35625,0.2475 0.46625,0.43625 0.11125,0.18625 0.16625,0.4 0.16625,0.63875 h -0.7375 c 0,-0.1825 -0.0525,-0.32375 -0.155,-0.425 -0.10375,-0.10125 -0.24875,-0.15125 -0.435,-0.15125 -0.18125,0 -0.32125,0.0425 -0.42125,0.12625 -0.1,0.085 -0.15,0.1975 -0.15,0.335 0,0.13 0.05875,0.2375 0.17625,0.325 0.1175,0.0875 0.29,0.17 0.5175,0.24625 0.42,0.14 0.725,0.31375 0.9175,0.5225 0.1925,0.2075 0.2875,0.46625 0.2875,0.77625 0,0.34375 -0.11625,0.61375 -0.35125,0.81 -0.23375,0.195 -0.55,0.29375 -0.9475,0.29375 -0.275,0 -0.52625,-0.05625 -0.7525,-0.16875 -0.225,-0.11125 -0.39875,-0.265 -0.5175,-0.46 -0.11875,-0.195 -0.1775,-0.42125 -0.1775,-0.67875 h 0.74 c 0,0.44 0.23625,0.65875 0.7075,0.65875 0.17625,0 0.3125,-0.03875 0.41125,-0.1175 0.0975,-0.08 0.1475,-0.19 0.1475,-0.3325"/><path fill="#ffffff" d="m 21.026625,11.1395 c -0.0275,0.4275 -0.17,0.765 -0.4275,1.01125 -0.25625,0.245 -0.59375,0.36875 -1.01375,0.36875 -0.46,0 -0.82125,-0.1725 -1.08375,-0.515 -0.2625,-0.34375 -0.39375,-0.815 -0.39375,-1.41375 V 10.347 c 0,-0.3825 0.06,-0.72 0.18125,-1.01125 0.12125,-0.29125 0.295,-0.515 0.52,-0.67125 0.225,-0.155 0.4875,-0.23375 0.785,-0.23375 0.41375,0 0.7475,0.12375 0.99875,0.36875 0.2525,0.24625 0.39875,0.5925 0.43875,1.03625 h -0.7375 c -0.01875,-0.2575 -0.0825,-0.4425 -0.19375,-0.55875 -0.11125,-0.11625 -0.27875,-0.17375 -0.50625,-0.17375 -0.245,0 -0.42875,0.09875 -0.55125,0.29375 -0.1225,0.19625 -0.185,0.5 -0.18875,0.91125 v 0.30125 c 0,0.42875 0.06,0.74375 0.17625,0.9425 0.1175,0.19875 0.3025,0.2975 0.555,0.2975 0.2275,0 0.3975,-0.0575 0.51,-0.17375 0.1125,-0.115 0.17625,-0.29375 0.19375,-0.53625 z"/><path fill="#ffffff" d="m 23.634,10.385125 c 0,-0.4175 -0.0675,-0.73375 -0.20125,-0.95125 -0.135,-0.21625 -0.3275,-0.325 -0.57625,-0.325 -0.2475,0 -0.43875,0.10625 -0.5725,0.32125 -0.13375,0.21375 -0.2025,0.5275 -0.205,0.94125 v 0.19375 c 0,0.40625 0.06875,0.72125 0.2025,0.945 0.13375,0.225 0.3275,0.33625 0.58,0.33625 0.2475,0 0.4375,-0.1075 0.57125,-0.3225 0.13125,-0.21625 0.2,-0.53125 0.20125,-0.945 z m 0.74875,0.18 c 0,0.3925 -0.06375,0.735 -0.18875,1.03 -0.12375,0.29625 -0.3025,0.52375 -0.53375,0.68375 -0.2325,0.16 -0.49875,0.24125 -0.79875,0.24125 -0.29625,0 -0.56125,-0.08 -0.79375,-0.23875 -0.2325,-0.15875 -0.41375,-0.385 -0.54125,-0.67875 -0.12875,-0.295 -0.1925,-0.6325 -0.19375,-1.015 v -0.1975 c 0,-0.39125 0.0625,-0.73625 0.19,-1.03375 0.1275,-0.29875 0.30625,-0.52625 0.53875,-0.68625 0.23125,-0.16 0.4975,-0.23875 0.795,-0.23875 0.29875,0 0.56375,0.07875 0.79625,0.23875 0.23125,0.16 0.41125,0.3875 0.5375,0.68625 0.1275,0.2975 0.1925,0.64125 0.1925,1.03125 z"/><path fill="#ffffff" d="m 27.746625,12.464625 h -0.7375 l -1.43625,-2.6175 v 2.6175 h -0.7375 v -3.97875 h 0.7375 l 1.43875,2.62375 v -2.62375 h 0.735 z"/><path fill="#ffffff" d="m 30.11475,11.420875 c 0,-0.155 -0.04875,-0.27375 -0.1475,-0.3575 -0.0975,-0.0825 -0.275,-0.17 -0.53125,-0.26125 -0.25625,-0.0925 -0.4575,-0.18375 -0.6075,-0.2725 -0.40625,-0.24375 -0.61,-0.5725 -0.61,-0.98625 0,-0.215 0.05375,-0.40625 0.16375,-0.575 0.10875,-0.16875 0.265,-0.3 0.46875,-0.395 0.205,-0.095 0.43375,-0.1425 0.68875,-0.1425 0.255,0 0.48375,0.05125 0.68375,0.155 0.2,0.1025 0.355,0.2475 0.465,0.43625 0.11125,0.18625 0.16625,0.4 0.16625,0.63875 h -0.7375 c 0,-0.1825 -0.05125,-0.32375 -0.155,-0.425 -0.1025,-0.10125 -0.2475,-0.15125 -0.435,-0.15125 -0.18,0 -0.32125,0.0425 -0.42125,0.12625 -0.1,0.085 -0.15,0.1975 -0.15,0.335 0,0.13 0.05875,0.2375 0.17625,0.325 0.1175,0.0875 0.29,0.17 0.5175,0.24625 0.42,0.14 0.72625,0.31375 0.9175,0.5225 0.1925,0.2075 0.2875,0.46625 0.2875,0.77625 0,0.34375 -0.1175,0.61375 -0.35125,0.81 -0.235,0.195 -0.55,0.29375 -0.94625,0.29375 -0.27625,0 -0.52625,-0.05625 -0.75375,-0.16875 -0.225,-0.11125 -0.39875,-0.265 -0.5175,-0.46 -0.11875,-0.195 -0.1775,-0.42125 -0.1775,-0.67875 h 0.73875 c 0,0.44 0.2375,0.65875 0.71,0.65875 0.17375,0 0.3125,-0.03875 0.41,-0.1175 0.09875,-0.08 0.1475,-0.19 0.1475,-0.3325"/><path fill="#ffffff" d="M 32.0175,12.465 H 31.27875 V 8.48625 h 0.73875 z"/><path fill="#ffffff" d="m 35.516375,12.464625 h -0.7375 l -1.43625,-2.6175 v 2.6175 h -0.7375 v -3.97875 h 0.7375 l 1.43875,2.62375 v -2.62375 h 0.735 z"/><path fill="#ffffff" d="m 18.67,36.527125 h -0.71125 v -3.0475 L 17.11,33.770875 v -0.6375 l 1.48375,-0.59125 H 18.67 Z"/><path fill="#ffffff" d="m 20.96075,33.645 c 0,-0.155 -0.03625,-0.28 -0.11,-0.37375 -0.07375,-0.09375 -0.1775,-0.14 -0.3125,-0.14 -0.1325,0 -0.23625,0.045 -0.31,0.13625 -0.07375,0.09125 -0.11125,0.21625 -0.11125,0.3775 0,0.1575 0.0375,0.28625 0.11125,0.3825 0.07375,0.09625 0.1775,0.145 0.3125,0.145 0.13375,0 0.2375,-0.04875 0.31125,-0.145 0.0725,-0.09625 0.10875,-0.225 0.10875,-0.3825 m 0.07375,1.735 c 0,-0.17375 -0.045,-0.31125 -0.135,-0.415 -0.09,-0.10375 -0.21125,-0.15625 -0.36375,-0.15625 -0.15125,0 -0.27125,0.05125 -0.36125,0.155 -0.09125,0.1025 -0.13625,0.24125 -0.13625,0.41625 0,0.16875 0.045,0.30625 0.13375,0.41 0.0875,0.10375 0.21125,0.155 0.36875,0.155 0.15375,0 0.275,-0.05 0.3625,-0.15 0.0875,-0.1 0.13125,-0.23875 0.13125,-0.415 m 0.6375,-1.77375 c 0,0.1925 -0.04375,0.365 -0.13125,0.51375 -0.08625,0.14875 -0.20625,0.26875 -0.35875,0.3575 0.17375,0.0925 0.31125,0.22125 0.41375,0.385 0.10125,0.1625 0.1525,0.35375 0.1525,0.575 0,0.35375 -0.10875,0.63125 -0.325,0.8375 -0.21625,0.205 -0.51125,0.3075 -0.8825,0.3075 -0.3725,0 -0.6675,-0.1025 -0.885,-0.30875 -0.21875,-0.2075 -0.3275,-0.485 -0.3275,-0.83625 0,-0.22125 0.05,-0.4125 0.1525,-0.57625 0.10125,-0.165 0.2375,-0.2925 0.41125,-0.38375 C 19.73825,34.38875 19.6195,34.26875 19.53325,34.12 19.447,33.97125 19.4045,33.79875 19.4045,33.60625 c 0,-0.33875 0.10125,-0.61 0.305,-0.81125 0.2025,-0.2 0.47875,-0.30125 0.82875,-0.30125 0.3475,0 0.62375,0.1 0.8275,0.29875 0.20375,0.20125 0.30625,0.47125 0.30625,0.81375"/><path fill="#ffffff" d="m 22.868625,35.0305 h 0.7925 v -1.405 l -0.04625,0.09 z m 1.5025,0 h 0.40625 v 0.63625 h -0.40625 v 0.86 h -0.71 v -0.86 h -1.46875 l -0.03125,-0.4975 1.4925,-2.62 h 0.7175 z"/><path fill="#ffffff" d="m 26.973875,33.645 c 0,-0.155 -0.03625,-0.28 -0.11125,-0.37375 -0.0725,-0.09375 -0.17625,-0.14 -0.3125,-0.14 -0.13125,0 -0.235,0.045 -0.30875,0.13625 -0.075,0.09125 -0.11125,0.21625 -0.11125,0.3775 0,0.1575 0.03625,0.28625 0.11125,0.3825 0.07375,0.09625 0.1775,0.145 0.31125,0.145 0.135,0 0.23875,-0.04875 0.31125,-0.145 0.07375,-0.09625 0.11,-0.225 0.11,-0.3825 m 0.07375,1.735 c 0,-0.17375 -0.04625,-0.31125 -0.135,-0.415 -0.09,-0.10375 -0.2125,-0.15625 -0.365,-0.15625 -0.15,0 -0.27125,0.05125 -0.36125,0.155 -0.09,0.1025 -0.135,0.24125 -0.135,0.41625 0,0.16875 0.045,0.30625 0.1325,0.41 0.08875,0.10375 0.21125,0.155 0.36875,0.155 0.155,0 0.27625,-0.05 0.36375,-0.15 0.08625,-0.1 0.13125,-0.23875 0.13125,-0.415 m 0.63625,-1.77375 c 0,0.1925 -0.0425,0.365 -0.13,0.51375 -0.08625,0.14875 -0.20625,0.26875 -0.35875,0.3575 0.17375,0.0925 0.31125,0.22125 0.41375,0.385 0.10125,0.1625 0.1525,0.35375 0.1525,0.575 0,0.35375 -0.10875,0.63125 -0.325,0.8375 -0.2175,0.205 -0.51125,0.3075 -0.88375,0.3075 -0.3725,0 -0.66625,-0.1025 -0.885,-0.30875 -0.21875,-0.2075 -0.3275,-0.485 -0.3275,-0.83625 0,-0.22125 0.05125,-0.4125 0.1525,-0.57625 0.10125,-0.165 0.23875,-0.2925 0.4125,-0.38375 -0.15375,-0.08875 -0.2725,-0.20875 -0.36,-0.3575 -0.085,-0.14875 -0.1275,-0.32125 -0.1275,-0.51375 0,-0.33875 0.10125,-0.61 0.30375,-0.81125 0.20375,-0.2 0.48,-0.30125 0.82875,-0.30125 0.3475,0 0.62375,0.1 0.8275,0.29875 0.205,0.20125 0.30625,0.47125 0.30625,0.81375"/><path fill="#ffcc18" d="m 22.5,27.7625 c 0,0 -0.21625,-1.10125 -1.745,-1.18875 -1.01,-0.05875 -1.83875,-0.53 -1.83875,-1.91125 0,-1.38375 0.66125,-2.22875 0.66125,-3.34625 0,-1.1175 -0.6775,-1.28875 -0.6775,-1.28875 L 19.28375,19.36 c 0,0 0.21375,0 0.63,0.1675 0.39,0.155 0.71125,0.37625 0.71125,0.37625 0,0 0.65125,-0.63125 1.875,-0.63125 1.22375,0 1.875,0.63125 1.875,0.63125 0,0 0.3225,-0.22125 0.71,-0.37625 C 25.5025,19.36 25.71625,19.36 25.71625,19.36 l 0.385,0.6675 c 0,0 -0.67875,0.17125 -0.67875,1.28875 0,1.1175 0.66125,1.9625 0.66125,3.34625 0,1.38125 -0.83,1.8525 -1.83875,1.91125 -1.52875,0.0875 -1.745,1.18875 -1.745,1.18875"/><path fill="#66180b" d="m 19.856625,21.062625 0.01875,-0.11 h 1.3275 c 0,0 0.26375,-0.5 0.4325,-0.7175 0.17,-0.21625 0.3975,-0.32 0.3975,-0.32 l 0.07375,0.0925 c 0,0 -0.15875,0.0625 -0.3525,0.2825 -0.195,0.22125 -0.41875,0.66625 -0.41875,0.66625 h 0.17625 c 0,0 0.22375,-0.34625 0.46625,-0.6 0.2425,-0.25375 0.475,-0.28375 0.475,-0.28375 v 0.1225 c 0,0 -0.1,0.0475 -0.3725,0.275 -0.27125,0.2275 -0.75375,0.93125 -0.75375,0.93125 h -0.15375 l 0.2425,-0.32625 z"/><path fill="#bcbcbc" d="m 21.582,21.048 c 0,0 0.23375,0.07375 0.1425,0.2025 -0.0925,0.12875 -0.3525,0.2125 -0.3525,0.2125 l -0.15875,0.195 h -0.86 l 0.54375,-0.58625 0.2575,0.0025 c 0,0 -0.10625,0.1025 -0.08875,0.2125 0.01875,0.11 0.1075,0.11375 0.1075,0.11375 H 21.327 Z"/><path fill="#bcbcbc" d="m 20.231375,21.065625 c 0,0 -0.13875,0.25375 -0.0325,0.32375 0.17625,0.11625 0.18375,-0.11375 0.18375,-0.11375 0,0 -0.14375,0.13375 -0.14,0.01125 0.0038,-0.1225 0.08125,-0.22125 0.08125,-0.22125 z"/><path fill="#002986" d="m 20.911875,25.26125 c 0,0 -0.11375,-0.04375 -0.02625,-0.13 0.08875,-0.08375 0.07,-0.175 0.18125,-0.21125 0.11,-0.0375 0.20875,0 0.20875,0 0,0 0.0925,-0.11125 0.21,-0.06625 0.1175,0.04375 0.3825,0.42625 0.4,0.48125 0.01875,0.055 0.03375,0.3225 -0.02125,0.385 -0.055,0.06375 -0.15875,0.0825 -0.15875,0.0825 0,0 0.0038,0.08 -0.13625,0.14625 -0.13875,0.06625 -0.115,0.0175 -0.19125,0.04375 -0.07625,0.025 -0.0475,0.0625 -0.10625,0.055 -0.05875,-0.0075 -0.0875,-0.05125 -0.0875,-0.05125 z"/><path fill="#66180b" d="m 20.49375,24.152875 -0.41875,0.33375 -0.07875,-0.1 0.41625,-0.33125 z"/><path fill="#bcbcbc" d="m 20.202,23.684125 0.13625,0.1425 c 0,0 0,0.10375 0.07375,0.22875 0.07375,0.12375 0.1725,0.15 0.1725,0.15 l 0.11,0.19125 0.2175,-0.1575 -0.15125,-0.15875 c 0,0 0.0475,-0.095 -0.07,-0.23875 -0.1175,-0.1425 -0.1725,-0.125 -0.1725,-0.125 l -0.11,-0.16875 z"/><path fill="#f4d3b0" d="m 20.911875,25.26125 -0.1725,0.18625 -0.39,-0.305 -0.1875,-0.2525 c 0,0 0.04875,-0.23875 -0.12875,-0.46375 -0.2725,-0.34125 -0.555,0.265 -0.555,0.265 0,0 0.075,0.1275 0.19125,0.23875 0.11625,0.11125 0.18375,0.12125 0.18375,0.12125 0,0 0.055,0.345 0.3125,0.65375 0.2575,0.31 0.52125,0.50875 0.52125,0.50875 l 0.4975,-0.2175 c 0,0 0.19125,-0.2175 0.08,-0.485 -0.11,-0.26875 -0.3525,-0.25 -0.3525,-0.25"/><path fill="#bcbcbc" d="m 25.058625,25.274625 -0.14375,-0.03375 0.445,-0.46625 -0.11875,0.63125 -0.09,-0.1025 c 0,0 -0.06125,0.16375 -0.23625,0.32875 -0.1775,0.165 -0.36,0.22625 -0.36,0.22625 l -0.10875,0.28625 -0.105,-0.27125 c 0,0 -0.1625,-0.04 -0.30875,-0.19 -0.1475,-0.14875 -0.2825,-0.32125 -0.2825,-0.32125 l -0.07125,0.14375 -0.08625,-0.6525 0.36125,0.40375 -0.135,0.05375 c 0,0 0.09375,0.135 0.2675,0.2875 0.17375,0.15125 0.29375,0.0975 0.29375,0.0975 v -1.65125 c 0,0 -0.28,-0.0175 -0.2775,-0.08875 0.0025,-0.07125 0.2575,-0.08875 0.2575,-0.08875 0,0 -0.05625,-0.0575 -0.05625,-0.14125 0,-0.065 0.035,-0.16 0.155,-0.16 0.1125,0 0.145,0.09 0.1425,0.1525 -0.0038,0.0875 -0.075,0.15625 -0.075,0.15625 0,0 0.29875,0.02 0.29875,0.08125 0,0.06125 -0.3325,0.095 -0.3325,0.095 v 1.6525 c 0,0 0.19875,-0.0225 0.3425,-0.15375 0.14625,-0.13375 0.22375,-0.275 0.22375,-0.275"/><path fill="#bcbcbc" d="m 24.939,21.32075 0.3625,0.46625 -0.27,0.26375 -0.44,-0.41125 0.16625,-0.15375 -0.13375,-0.16125 0.05125,-0.0625 0.1475,0.16375 z"/><path fill="#bcbcbc" d="m 23.389875,21.062625 1.025,1.05875 c 0,0 -0.27125,-0.055 -0.62875,-0.415 -0.35625,-0.36 -0.39625,-0.64375 -0.39625,-0.64375"/><path fill="#bcbcbc" d="m 23.902625,20.529125 0.09375,-0.0775 -0.06875,-0.09125 0.04375,-0.1475 -0.1,-0.1475 -0.05875,0.0675 0.06875,0.1025 -0.14625,0.11 -0.08,-0.07375 -0.08625,0.07 0.08625,0.10375 0.1575,-0.015 z"/><path fill="#66180b" d="m 23.65475,20.27225 0.1575,-0.14 0.05875,-0.06625 -0.0625,-0.05875 -0.29375,0.265 0.055,0.07 z"/><path fill="#66180b" d="m 23.8135,21.499625 0.13875,-0.08375 0.39,-0.3975 -0.44,-0.48875 0.09375,-0.0775 0.405,0.5 0.52625,-0.5325 0.06125,0.05875 -0.52375,0.5375 0.21,0.24625 -0.05125,0.0625 -0.2225,-0.2475 -0.39,0.37125 -0.0875,0.165 z"/><path fill="#ffffff" d="m 24.2505,23.110375 c 0,-0.96625 -0.78375,-1.75 -1.75,-1.75 -0.9675,0 -1.75,0.78375 -1.75,1.75 0,0.96625 0.7825,1.75 1.75,1.75 0.96625,0 1.75,-0.78375 1.75,-1.75"/><path fill="#ffcc18" d="m 23.70975,23.110375 c 0,-0.66875 -0.5425,-1.21 -1.21,-1.21 -0.6675,0 -1.21,0.54125 -1.21,1.21 0,0.6675 0.5425,1.21 1.21,1.21 0.6675,0 1.21,-0.5425 1.21,-1.21"/><path fill="#ffffff" d="m 21.492875,22.820375 c 0,0.215 -0.07875,0.3575 -0.07875,0.54 0,0.53375 0.29375,0.66 0.68625,0.725 0.265,0.04375 0.4,0.1875 0.4,0.1875 0,0 0.135,-0.14375 0.39875,-0.1875 0.39125,-0.065 0.68625,-0.19125 0.68625,-0.725 0,-0.1825 -0.07875,-0.325 -0.07875,-0.54 z"/><path fill="#be0a2f" d="m 23.233625,23.996625 c 0.07,-0.03 0.13,-0.07125 0.1825,-0.1225 v -1.05375 h -0.1825 z"/><path fill="#be0a2f" d="m 22.908375,24.0845 c 0.06375,-0.01125 0.125,-0.02375 0.1825,-0.03875 v -1.225 h -0.1825 z"/><path fill="#be0a2f" d="m 22.764875,24.118625 v -1.29875 h -0.18125 v 1.38625 c 0.04375,-0.0275 0.10375,-0.06125 0.18125,-0.0875"/><path fill="#be0a2f" d="M 22.439,24.22125 22.4402,22.82 h -0.1825 v 1.3075 c 0.0763,0.02875 0.1413,0.06625 0.1813,0.09375"/><path fill="#be0a2f" d="m 21.932375,24.0515 c 0.05375,0.01375 0.10875,0.025 0.1675,0.03375 0.005,0.0012 0.01,0.0025 0.015,0.0025 v -1.2675 h -0.18125 z"/><path fill="#be0a2f" d="m 21.790125,24.006375 v -1.18625 h -0.18125 l -0.0013,1.0775 c 0.05375,0.04625 0.1125,0.08125 0.1825,0.10875"/><path fill="#002986" d="m 21.492875,22.820375 c 0,-0.13625 -0.02375,-0.2125 -0.05125,-0.2975 0.08625,-0.15375 0.205,-0.2875 0.34625,-0.39 0.035,0.0012 0.0675,0.0038 0.0925,-0.0025 0.1225,-0.035 0.14125,-0.11375 0.3325,-0.11375 0.19125,0 0.2875,0.11375 0.2875,0.11375 0,0 0.095,-0.11375 0.28625,-0.11375 0.19125,0 0.21125,0.07875 0.33375,0.11375 0.02375,0.0062 0.0575,0.0037 0.09125,0.0025 0.14125,0.1025 0.26,0.23625 0.345,0.39 -0.025,0.085 -0.05,0.16125 -0.05,0.2975 z"/><path fill="#753c28" d="m 20.76725,17.36025 c 0,0 0.16125,-0.02 0.39125,-0.1425 0.23125,-0.1225 0.21125,-0.15625 0.45125,-0.17625 0.24125,-0.02 0.36875,0.005 0.73625,-0.20125 0.3675,-0.20625 0.8125,-0.3225 1.33375,-0.0825 0.67125,0.30875 0.4975,1.0975 0.4975,1.0975 0,0 0.13875,0.08875 0.31,0 0.1725,-0.0875 0.3475,-0.27375 0.4025,-0.0975 0.05375,0.17625 -0.17625,0.3825 -0.3725,0.39125 -0.19625,0.01 -0.485,-0.1175 -0.485,-0.1175 0,0 -0.06125,0.10125 -0.1875,0.21625 -0.125,0.115 -0.29375,0.225 -0.29375,0.225 l -0.39625,-0.15125 0.1475,-0.1025 c 0,0 -0.1125,-0.07375 -0.4025,-0.075 -0.28875,-0.0012 -0.48625,-0.05375 -0.48625,-0.05375 0,0 -0.0925,0.1525 -0.23,0.22625 -0.1375,0.07375 -0.54875,0.15625 -0.54875,0.15625 l -0.29375,-0.1275 0.5,-0.19625 c 0,0 -0.21125,-0.05375 -0.3875,-0.215 -0.17625,-0.16125 -0.53375,-0.22125 -0.53375,-0.22125 l 0.26375,-0.165 z"/><path fill="#ffffff" d="m 19.7955,15.502875 c 0.8175,-0.3975 1.735,-0.62 2.705,-0.62 0.97,0 1.8875,0.22375 2.705,0.62 l -0.365,0.75375 c -0.7075,-0.34375 -1.5025,-0.5375 -2.34,-0.5375 -0.83875,0 -1.6325,0.19375 -2.34,0.5375 z"/><path fill="#ffffff" d="m 16.228,19.4635 0.67625,-0.22125 0.26,-0.45125 0.365,0.91125 0.5375,-0.6175 0.5875,0.37875 -1.1025,0.30125 z"/><path fill="#001543" d="m 16.375125,22.934 -0.70625,0.30125 -0.16125,-2.0075 0.43375,-1.6025 0.28625,-0.16125 1.32375,0.3 1.1025,-0.3 0.265,0.9775 0.89,0.2725 v 0.88875 l -0.9625,-0.25375 -0.2875,-0.50375 -0.09625,0.71375 -0.02125,1.11 z"/><path fill="#ffffff" d="m 16.558875,27.83075 -0.18375,-4.89625 0.44875,-0.31625 0.375,-0.72875 -0.09625,-1.9625 0.59625,0.3525 0.36,0.86 0.3825,1.53 0.1175,2.05875 -0.235,1.8375 0.19875,0.93375 -0.96375,0.24375 0.015,-1.71375 0.14625,-0.765 -0.16125,-0.97 -0.21375,1.47 0.0225,1.22 0.1,0.7075 z"/><path fill="#000000" d="m 18.008375,18.157375 0.44,-0.2825 -0.15625,-0.26875 -0.3675,0.03375 -0.07,-0.22625 -1.01875,0.3725 0.02875,0.20125 -0.41125,0.31375 0.08375,0.19625 0.42125,0.01125 z"/><path fill="#f4d3b0" d="m 18.066375,19.0845 0.04375,-0.36125 -0.1425,-0.78875 -0.77875,0.22 -0.23,0.355 0.205,0.2825 0.365,0.91 z"/><path fill="#ffffff" d="m 27.026375,25.6445 -0.03375,1.8775 -0.80375,0.41125 -0.23,-0.13125 0.53375,-0.4625 -0.0675,-1.695 z"/><path fill="#ffffff" d="m 27.840625,25.55175 -0.20625,1.795 0.37875,0.62625 0.3375,-0.04 -0.19125,-0.8425 0.39125,-1.5 z"/><path fill="#001543" d="m 27.026375,25.6445 0.495,-2.495 0.31875,2.4025 0.71125,0.03875 0.245,-3.28875 -1.90625,-0.07375 -0.48625,2.215 0.02125,1.20125"/><path fill="#f3334b" d="m 26.889625,22.22775 -0.245,-1.44125 -0.45125,0.77 -0.67625,0.1425 -0.07875,-0.72125 0.47625,-0.0775 0.5925,-1.08375 0.86375,-0.4075 0.3575,0.1425 0.42625,-0.3825 1.03875,0.47125 0.72625,2.05875 -0.39875,-0.1325 -0.38625,0.205 -0.33875,-0.79375 v 1.32375 z"/><path fill="#f4d3b0" d="m 29.796125,21.657125 -0.1175,1.2175 0.1175,0.6075 -0.30375,0.3875 -0.285,-0.1225 v -0.56375 l 0.11875,-0.28875 -0.1,-1.17125 0.295,-0.1575 z"/><path fill="#000000" d="m 27.22775,18.25375 -0.4225,-0.11375 0.0775,-0.19125 0.2275,-0.0225 0.0625,-0.375 1.07625,0.03375 v 0.3525 l 0.42,0.09875 V 18.225 l -0.33375,0.0725 -0.08625,0.43 z"/><path fill="#f4d3b0" d="M 28.15425,19.16925 28.063,18.8605 l 0.18625,-0.1325 -0.205,-0.5625 -0.81625,0.08875 0.0325,0.63125 0.19875,0.3975 -0.08875,0.12625 0.3575,0.1425 z"/></svg>