<svg xmlns="http://www.w3.org/2000/svg" viewBox="0 0 45 45"><defs><clipPath id="clipPath16" clipPathUnits="userSpaceOnUse"><path d="M5,38.75c-2.761,0-5-2.239-5-5l0-22.5c0-2.761,2.239-5,5-5l35,0c2.761,0,5,2.239,5,5l0,22.5 c0,2.761-2.239,5-5,5L5,38.75z"/></clipPath></defs><g clip-path="url(#clipPath16)"><path fill="#FEC600" d="M0,38.75V6.25h45v32.5H0z"/><path fill="#EEEEEE" d="M0,8.004v28.992h40c1.79,0,3.246-1.456,3.246-3.246v-22.5c0-1.79-1.456-3.246-3.246-3.246H0z"/><path fill="#002F72" d="M22.5,29.107c-0.61,0-1.743-0.28-1.743-0.28 s0.015,0.471-0.031,0.552c-0.029,0.049-0.111,0.056-0.111,0.056s-0.954,0.08-2.115-0.229s-2.086-0.889-2.086-0.889l1.25-0.284 l-0.103-0.903c0,0,0.544,0.494,1.097,0.647c0.555,0.151,0.987,0.183,0.987,0.183v-1.072c0,0,0.038-0.028,0.111-0.028 c0.103,0,1.441,0.65,2.743,0.65s2.639-0.65,2.743-0.65c0.074,0,0.111,0.028,0.111,0.028v1.073c0,0,0.434-0.031,0.986-0.183 c0.555-0.154,1.099-0.647,1.099-0.647l-0.104,0.903l1.25,0.284c0,0-0.923,0.58-2.085,0.889c-1.161,0.309-2.115,0.229-2.115,0.229 s-0.083-0.007-0.11-0.056c-0.046-0.081-0.031-0.552-0.031-0.552S23.11,29.107,22.5,29.107"/><path fill="#FEC600" d="M21.063,16.523c-0.635,0.074-1.404,0.233-1.404,0.233v0.541 c0,0,0.667,0.093,1.304,0.157c0.636,0.064,1.234,0.1,1.234,0.1l0.052,6.514c0,0,0.081,0.462-0.61,0.462 c-0.442,0-0.994-0.195-1.434-0.521c-0.605-0.452-1.263-0.945-1.263-0.945l0.909-0.235c0,0-0.903-0.337-1.548-0.651 c-0.644-0.315-0.906-0.546-0.906-0.546s0.04,0.755,0.212,1.433c0.147,0.577,0.853,1.356,0.853,1.356v-0.949 c0,0,0.594,0.605,1.349,1.121c0.375,0.255,1.404,0.593,1.85,0.96c0.538,0.442,0.837,0.814,0.837,0.814s0.301-0.371,0.837-0.814 c0.448-0.368,1.476-0.705,1.852-0.96c0.754-0.516,1.347-1.121,1.347-1.121v0.949c0,0,0.705-0.779,0.854-1.356 c0.171-0.677,0.21-1.433,0.21-1.433s-0.261,0.231-0.906,0.546c-0.644,0.314-1.545,0.651-1.545,0.651l0.907,0.235 c0,0-0.657,0.493-1.264,0.945c-0.439,0.326-0.991,0.521-1.433,0.521c-0.691,0-0.61-0.462-0.61-0.462l0.052-6.514 c0,0,0.597-0.036,1.234-0.1c0.636-0.065,1.304-0.157,1.304-0.157v-0.541c0,0-0.769-0.159-1.404-0.233 c-0.211-0.025-0.423-0.042-0.61-0.055c0.001-0.026,0.004-0.054,0.004-0.08c0-0.388-0.266-0.714-0.625-0.806l-0.003-0.555h-0.407 l0.001,0.555c-0.361,0.09-0.628,0.417-0.628,0.806c0,0.026,0.001,0.054,0.004,0.08C21.486,16.48,21.273,16.498,21.063,16.523 M21.904,16.45c-0.001-0.02-0.003-0.042-0.003-0.063c0-0.259,0.165-0.48,0.394-0.563v0.61C22.296,16.435,22.139,16.437,21.904,16.45 M22.703,16.435l0.001-0.61c0.229,0.084,0.392,0.304,0.392,0.562c0,0.021,0,0.042-0.003,0.064 C22.861,16.439,22.703,16.435,22.703,16.435"/><path fill="#FEC600" d="M16.637,11.33l1.081,0.911l1.296-0.564l-0.532,1.31l0.938,1.059 l-1.41-0.102l-0.717,1.219l-0.339-1.373l-1.381-0.305l1.201-0.747L16.637,11.33z"/><path fill="#FEC600" d="M12.117,15.334l1.381,0.305l0.885-1.102l0.137,1.408l1.323,0.502 l-1.296,0.565l-0.069,1.413l-0.939-1.059l-1.364,0.371l0.716-1.219L12.117,15.334z"/><path fill="#FEC600" d="M9.976,20.98l1.365-0.372l0.273-1.388l0.775,1.183l1.404-0.17 l-0.885,1.104l0.595,1.282l-1.323-0.501l-1.035,0.962l0.068-1.413L9.976,20.98z"/><path fill="#FEC600" d="M10.704,26.974l1.035-0.964l-0.404-1.354l1.236,0.685 l1.164-0.801l-0.271,1.388l1.124,0.859l-1.404,0.17l-0.47,1.335l-0.596-1.282L10.704,26.974z"/><path fill="#FEC600" d="M14.134,31.943l0.469-1.334l-0.988-1.013l1.414,0.032 l0.658-1.251l0.405,1.355l1.394,0.239l-1.164,0.804l0.204,1.4l-1.124-0.859L14.134,31.943z"/><path fill="#FEC600" d="M19.481,34.75l-0.205-1.399l-1.344-0.439l1.266-0.627 l0.001-1.414l0.987,1.013l1.346-0.438l-0.657,1.252l0.831,1.145l-1.394-0.237L19.481,34.75z"/><path fill="#FEC600" d="M25.519,34.75l-0.831-1.144l-1.394,0.237l0.831-1.145 l-0.657-1.253l1.345,0.438l0.989-1.013v1.414l1.267,0.627l-1.345,0.439L25.519,34.75z"/><path fill="#FEC600" d="M30.865,31.943l-1.267-0.626l-1.124,0.859l0.204-1.4 l-1.164-0.804l1.394-0.239l0.405-1.355l0.657,1.251l1.414-0.032l-0.987,1.013L30.865,31.943z"/><path fill="#FEC600" d="M34.296,26.974l-1.414,0.035l-0.596,1.282l-0.469-1.335 l-1.404-0.17l1.122-0.859l-0.271-1.388l1.164,0.801l1.236-0.685l-0.404,1.354L34.296,26.974z"/><path fill="#FEC600" d="M35.023,20.98l-1.235,0.688l0.068,1.413l-1.036-0.962 l-1.321,0.501l0.595-1.282l-0.886-1.104l1.405,0.17l0.775-1.183l0.272,1.388L35.023,20.98z"/><path fill="#FEC600" d="M32.882,15.334l-0.774,1.184l0.716,1.219l-1.365-0.371 l-0.939,1.059l-0.067-1.413l-1.296-0.565l1.321-0.502l0.138-1.408l0.886,1.102L32.882,15.334z"/><path fill="#FEC600" d="M28.363,11.33l-0.136,1.408l1.201,0.748l-1.381,0.305 l-0.337,1.372l-0.719-1.219l-1.411,0.102l0.938-1.059l-0.531-1.31l1.296,0.564L28.363,11.33z"/><path fill="#FEC600" d="M22.5,9.885l0.534,1.309l1.411,0.104l-1.083,0.911l0.339,1.374 L22.5,12.838l-1.201,0.745l0.337-1.374l-1.08-0.911l1.41-0.104L22.5,9.885z"/></g></svg>