<svg xmlns="http://www.w3.org/2000/svg" viewBox="0 0 45 45"><path fill="#002a86" d="m 45,33.75 v -22.5 c 0,-2.76125 -2.23875,-5 -5,-5 H 5 c -2.76125,0 -5,2.23875 -5,5 v 22.5 c 0,2.76125 2.23875,5 5,5 h 35 c 2.76125,0 5,-2.23875 5,-5"/><path fill="#ffcc00" d="m 9.140625,22.5 c 0,-7.3775 5.98125,-13.36 13.36,-13.36 7.3775,0 13.35875,5.9825 13.35875,13.36 0,7.3775 -5.98125,13.36 -13.35875,13.36 -7.37875,0 -13.36,-5.9825 -13.36,-13.36"/><path fill="#002a86" d="m 10.390625,22.5 c 0,-6.6875 5.42125,-12.11 12.11,-12.11 6.6875,0 12.10875,5.4225 12.10875,12.11 0,6.68875 -5.42125,12.11 -12.10875,12.11 -6.68875,0 -12.11,-5.42125 -12.11,-12.11"/><path fill="#ffcc00" d="m 12.207,22.5 c 0,-5.685 4.60875,-10.2925 10.2925,-10.2925 5.685,0 10.29375,4.6075 10.29375,10.2925 0,5.685 -4.60875,10.2925 -10.29375,10.2925 C 16.81575,32.7925 12.207,28.185 12.207,22.5"/><path fill="#002a86" d="m 13.216,22.5 c 0,-5.1275 4.15625,-9.28375 9.28375,-9.28375 5.1275,0 9.28375,4.15625 9.28375,9.28375 0,5.1275 -4.15625,9.28375 -9.28375,9.28375 -5.1275,0 -9.28375,-4.15625 -9.28375,-9.28375"/><path fill="#ffcc00" d="m 27.265625,30.46875 c 1.5525,-0.93 2.81125,-2.3025 3.60125,-3.94 l -1.72625,-0.6175 -1.04125,-1.53625 -2.5525,1.45875 1.51,2.65625 -1.4575,1.4575 z"/><path fill="#ffcc00" d="m 15.40525,23.103 h 0.38125 v 0.375 h 0.69125 l 0.32375,0.58875 V 24.963 L 16.169,25.15425 14.39025,24.963 v -0.765 l 0.41125,-0.72 h 0.60375 z"/><path fill="#ffcc00" d="m 20.99425,31.662625 c 0.49,0.07875 0.9925,0.12125 1.50625,0.12125 0.27125,0 0.54125,-0.01125 0.8075,-0.035 l 0.26,-3.2075 1.145,-0.67625 h -2.275 l -0.14625,-0.86 0.88625,-0.83375 -0.1825,-1.615 -0.5575,-0.41625 0.40125,-1.64 -1.12,-0.12625 -0.46875,0.51625 0.2075,0.83375 -1.30125,0.235 0.39,-1.77125 -0.3125,0.05125 -0.8075,2.0325 0.33875,0.65 0.52125,0.07875 -0.4425,2.47375 0.1825,2.0825 1.015,0.44375 z"/><path fill="#ffcc00" d="m 30.625,18.359375 -4.2575,1.60125 H 15.82 l -1.80625,-1.23125 c -0.5125,1.1525 -0.7975,2.4275 -0.7975,3.77125 l 5.455,-0.39125 v -0.89875 h 4.4925 l 4.2975,2.4225 4.3225,-1.1325 c 0,-1.4925 -0.35125,-2.9025 -0.97625,-4.15125"/><path fill="#ffcc00" d="M 17.38225,16.639375 17.096,15.720625 c 0,0 0.2275,-0.2275 1.52875,-0.625 1.3025,-0.3975 1.71375,-0.3975 1.71375,-0.3975 0,0 0.29875,0.115 0.55125,0.30125 0.25375,0.1875 0.2875,0.31625 0.2875,0.31625 0,0 -0.125,0.3025 -1.6275,0.58125 -1.32,0.245 -2.1675,0.7425 -2.1675,0.7425"/><path fill="#ffcc00" d="m 17.16925,16.507625 0.14,0.2575 0.79375,0.16875 c 0,0 -0.3525,0.19125 -1.07375,0.41875 -0.72,0.22875 -1.385,0.67375 -1.385,0.67375 0,0 -0.01,-0.055 0.10125,-0.2275 0.1075,-0.16875 0.275,-0.36625 0.275,-0.36625 0,0 -0.25875,-0.05375 -0.43625,-0.0175 -0.17625,0.0375 -0.40375,0 -0.40375,0 0,0 0.21875,-0.23125 0.95375,-0.565 0.73625,-0.3325 1.035,-0.3425 1.035,-0.3425"/><path fill="#ffcc00" d="m 22.5,14.293875 c 1.0875,0 2.20625,0.235 2.20625,0.235 l 0.2425,-0.8075 c 0,0 -0.705,-0.28 -2.44875,-0.28 -1.7425,0 -2.44875,0.28 -2.44875,0.28 l 0.2425,0.8075 c 0,0 1.1175,-0.235 2.20625,-0.235"/><path fill="#ffcc00" d="m 27.61725,16.639375 0.28625,-0.91875 c 0,0 -0.22625,-0.2275 -1.52875,-0.625 -1.30125,-0.3975 -1.7125,-0.3975 -1.7125,-0.3975 0,0 -0.29875,0.115 -0.5525,0.30125 -0.2525,0.1875 -0.28625,0.31625 -0.28625,0.31625 0,0 0.125,0.3025 1.6275,0.58125 1.31875,0.245 2.16625,0.7425 2.16625,0.7425"/><path fill="#ffcc00" d="m 27.83075,16.507625 -0.13875,0.2575 -0.795,0.16875 c 0,0 0.3525,0.19125 1.07375,0.41875 0.72,0.22875 1.385,0.67375 1.385,0.67375 0,0 0.01,-0.055 -0.1,-0.2275 -0.10875,-0.16875 -0.27625,-0.36625 -0.27625,-0.36625 0,0 0.26,-0.05375 0.43625,-0.0175 0.17625,0.0375 0.40375,0 0.40375,0 0,0 -0.21875,-0.23125 -0.955,-0.565 -0.735,-0.3325 -1.03375,-0.3425 -1.03375,-0.3425"/><path fill="#ffcc00" d="M 16.651,31.69675 16.64725,31.693 15.936,32.20175 15.8135,32.118 l 0.22,-0.84375 -0.005,-0.0012 -0.25875,0.41375 -0.09875,0.14375 0.08625,0.08625 -0.07625,0.11 -0.37875,-0.26 0.075,-0.11 0.11125,0.0475 0.45125,-0.6575 -0.085,-0.085 0.07625,-0.11125 0.0975,0.0675 0.24,0.165 -0.23125,0.835 0.0038,0.0025 0.7,-0.5125 0.3375,0.23125 -0.07625,0.11125 -0.11125,-0.04875 -0.45125,0.65625 0.085,0.0875 -0.07625,0.11 -0.37875,-0.26 0.07625,-0.11 0.11,0.0475 0.09875,-0.145 z"/><path fill="#ffcc00" d="m 17.43225,32.545125 0.22875,0.1125 0.06,-0.40625 -0.0038,-0.0012 z m -0.5075,0.12 0.07625,0.02375 0.72875,-0.7175 0.205,0.1 -0.12375,1.01625 0.06625,0.045 -0.05875,0.11875 -0.34,-0.16625 0.05875,-0.12 0.07625,0.0225 0.0225,-0.15875 -0.32375,-0.15875 -0.11,0.115 0.0625,0.04625 -0.05875,0.12 -0.34,-0.1675 z"/><path fill="#ffcc00" d="m 18.75,32.940625 0.14625,0.05 c 0.05875,0.02 0.10625,0.02375 0.14375,0.0075 0.03875,-0.015 0.06625,-0.045 0.08125,-0.0925 0.0175,-0.0475 0.015,-0.09125 -0.005,-0.12875 -0.01875,-0.0375 -0.0575,-0.0675 -0.11375,-0.08625 l -0.15,-0.05 z m 0.3075,-0.4125 c 0.12,0.04125 0.20375,0.1 0.25375,0.17875 0.04875,0.0775 0.0575,0.16375 0.02375,0.26 -0.0175,0.0525 -0.0475,0.095 -0.09,0.12375 -0.04125,0.03 -0.09375,0.04625 -0.15625,0.0525 0.055,0.03875 0.09,0.08375 0.1025,0.13625 0.0125,0.05125 0.0075,0.10875 -0.01375,0.1725 l -0.0175,0.05375 c -0.0087,0.02375 -0.01,0.0425 -0.005,0.05875 0.005,0.01625 0.01625,0.0275 0.0375,0.0375 l 0.025,0.0125 -0.04375,0.1275 -0.10875,-0.0375 c -0.06875,-0.0225 -0.11125,-0.05875 -0.12625,-0.105 -0.015,-0.04625 -0.0125,-0.1 0.0075,-0.15875 l 0.02,-0.05875 c 0.0175,-0.05125 0.0175,-0.09625 0,-0.135 -0.0175,-0.0375 -0.05,-0.06625 -0.09875,-0.08375 l -0.1725,-0.06 -0.095,0.2775 0.105,0.06 -0.0425,0.12625 -0.43625,-0.14875 0.04375,-0.12625 0.11875,0.01625 0.2575,-0.755 -0.10375,-0.05875 0.04375,-0.1275 0.11125,0.03875 z"/><path fill="#ffcc00" d="m 20.646375,33.327625 -0.16125,-0.035 0.0075,-0.14875 c -0.01625,-0.02625 -0.04,-0.05 -0.07,-0.06875 -0.03,-0.02 -0.06625,-0.03375 -0.11125,-0.0425 -0.095,-0.02125 -0.175,-0.0012 -0.24,0.05625 -0.06625,0.05625 -0.11,0.14125 -0.13375,0.2525 l -0.0087,0.0375 c -0.0225,0.11 -0.01625,0.205 0.01875,0.28625 0.03625,0.07875 0.10125,0.12875 0.19375,0.14875 0.0425,0.0087 0.08375,0.01125 0.12125,0.0075 0.03875,-0.005 0.07,-0.01625 0.09375,-0.035 l 0.0525,-0.13875 0.1625,0.03375 -0.04625,0.215 c -0.055,0.04125 -0.11875,0.07 -0.1925,0.085 -0.075,0.01625 -0.155,0.015 -0.2375,-0.0025 -0.14625,-0.03125 -0.255,-0.10625 -0.32625,-0.2275 -0.0725,-0.12125 -0.09125,-0.26 -0.0575,-0.41875 l 0.0075,-0.03625 c 0.03375,-0.1575 0.1075,-0.2775 0.2225,-0.35875 0.11375,-0.0825 0.24375,-0.1075 0.39125,-0.07625 0.08375,0.0175 0.15625,0.04875 0.2175,0.09375 0.06125,0.045 0.10875,0.0975 0.1425,0.15625 z"/><path fill="#ffcc00" d="m 21.03275,33.149375 0.01125,-0.13375 0.45875,0.03875 -0.01125,0.1325 -0.12,0.01375 -0.0275,0.31875 0.45125,0.0375 0.0275,-0.31875 -0.11625,-0.0325 0.01,-0.13375 0.11875,0.0088 0.22125,0.02 0.11875,0.01 -0.01125,0.1325 -0.12,0.01375 -0.0675,0.795 0.1175,0.03125 -0.01125,0.13375 -0.45875,-0.03875 0.01125,-0.1325 0.12125,-0.01375 0.025,-0.30375 -0.45125,-0.0375 -0.02625,0.305 0.1175,0.03125 -0.01125,0.13375 -0.45875,-0.03875 0.01125,-0.1325 0.12,-0.01375 0.06625,-0.795 z"/><path fill="#ffcc00" d="m 23.1055,34.06375 0.185,-0.0375 -0.0575,-0.75 -0.19,0.015 -0.01,-0.1275 0.40625,-0.10625 0.0725,0.95125 0.19,0.0087 0.0087,0.1325 -0.595,0.04625 z"/><path fill="#ffcc00" d="m 24.408,33.0835 -0.095,0.015 -0.03125,-0.08625 c -0.01125,-0.0063 -0.02875,-0.0075 -0.0525,-0.01 -0.02125,-0.0025 -0.045,-0.0012 -0.0675,0.0025 -0.03625,0.0038 -0.06125,0.01625 -0.07875,0.03375 -0.01625,0.01875 -0.02375,0.03875 -0.02,0.0625 0.0038,0.02125 0.01625,0.0375 0.03875,0.04875 0.02125,0.01125 0.05875,0.02 0.11,0.0275 0.07375,0.0087 0.13125,0.0275 0.1725,0.05375 0.0425,0.02625 0.06625,0.06625 0.075,0.11875 0.0087,0.055 -0.0075,0.10125 -0.045,0.13875 -0.03875,0.03875 -0.0925,0.06375 -0.165,0.075 -0.05,0.0075 -0.0975,0.0062 -0.14,-0.0038 -0.04375,-0.01 -0.08125,-0.0275 -0.1125,-0.05125 l -0.02125,-0.13375 0.09875,-0.015 0.02875,0.08875 c 0.015,0.0087 0.0325,0.015 0.05625,0.01875 0.0225,0.0038 0.04875,0.0038 0.075,-0.0012 0.03625,-0.005 0.06125,-0.0175 0.0775,-0.035 C 24.328,33.41475 24.333,33.3935 24.3305,33.36975 24.32675,33.346 24.3155,33.326 24.29425,33.31475 24.2755,33.30225 24.243,33.2935 24.19675,33.286 c -0.07875,-0.01 -0.14,-0.02625 -0.18375,-0.05125 -0.045,-0.02375 -0.07,-0.0625 -0.0775,-0.115 -0.0088,-0.0525 0.0075,-0.0975 0.045,-0.1375 0.03875,-0.03875 0.09125,-0.065 0.15875,-0.07625 0.04875,-0.0062 0.095,-0.0062 0.13875,0.0013 0.0425,0.0087 0.07875,0.02375 0.11,0.045 z"/><path fill="#ffcc00" d="m 25.105,32.722125 0.0375,0.16875 -0.0975,0.02125 -0.02,-0.06875 -0.11625,0.025 0.09875,0.44625 0.07125,-0.0025 0.01625,0.075 -0.2625,0.05875 -0.01625,-0.075 0.06375,-0.02875 -0.09875,-0.445 -0.11625,0.025 0.01125,0.0725 -0.0975,0.02125 -0.03625,-0.1675 z"/><path fill="#ffcc00" d="m 26.184125,33.482625 0.16875,-0.085 -0.2575,-0.7075 -0.17875,0.065 -0.04375,-0.12 0.3625,-0.21125 0.32625,0.8975 0.18375,-0.0425 0.045,0.12625 -0.56125,0.20375 z"/><path fill="#ffcc00" d="m 27.504875,32.738 c -0.0225,-0.045 -0.0525,-0.075 -0.09125,-0.08875 -0.03875,-0.015 -0.08,-0.0125 -0.12125,0.0075 -0.0425,0.01875 -0.07,0.04875 -0.0825,0.0875 -0.0125,0.04 -0.0087,0.08125 0.01125,0.12625 0.0225,0.0475 0.0525,0.07625 0.09125,0.09125 0.0375,0.01375 0.07875,0.01 0.12125,-0.0087 0.0425,-0.02 0.07,-0.04875 0.08375,-0.0875 0.01375,-0.04 0.0087,-0.0825 -0.0125,-0.1275 m -0.2325,-0.43 c -0.01875,-0.04 -0.045,-0.0675 -0.0775,-0.0825 -0.0325,-0.015 -0.0675,-0.01375 -0.10375,0.0038 -0.03625,0.0175 -0.06,0.04375 -0.06875,0.07625 -0.01,0.035 -0.005,0.0725 0.015,0.11375 0.02125,0.04125 0.04625,0.07 0.0775,0.085 0.03375,0.015 0.0675,0.0125 0.105,-0.0038 0.0375,-0.0175 0.05875,-0.04375 0.06875,-0.0775 0.01,-0.035 0.0038,-0.07375 -0.01625,-0.115 m 0.19875,-0.10375 c 0.0225,0.05 0.03,0.1 0.02125,0.15125 -0.0087,0.05125 -0.03,0.09875 -0.06625,0.14375 0.06375,-0.0038 0.12125,0.0087 0.17125,0.03625 0.05125,0.02625 0.09,0.06875 0.115,0.1225 0.0425,0.0925 0.045,0.1775 0.0062,0.25875 -0.03875,0.07875 -0.11,0.1425 -0.2125,0.19125 -0.10125,0.0475 -0.19625,0.06125 -0.28375,0.04125 -0.08625,-0.02 -0.15125,-0.07625 -0.195,-0.17 -0.025,-0.05375 -0.0325,-0.11 -0.02125,-0.16375 0.01,-0.05625 0.0375,-0.10875 0.08,-0.15625 -0.0575,0 -0.10875,-0.0125 -0.1525,-0.04 -0.04375,-0.025 -0.07875,-0.06375 -0.1025,-0.115 -0.04125,-0.08875 -0.045,-0.17125 -0.01,-0.2475 0.035,-0.07625 0.10125,-0.1375 0.19625,-0.1825 0.09625,-0.045 0.185,-0.0575 0.26625,-0.03625 0.0825,0.02125 0.14375,0.0775 0.1875,0.16625"/><path fill="#ffcc00" d="m 28.23975,32.04225 c -0.035,0.0225 -0.0625,0.045 -0.08,0.0725 -0.0175,0.025 -0.0275,0.0525 -0.03,0.08 l 0.0375,0.06375 c 0.04625,0.075 0.095,0.125 0.14625,0.15 0.05125,0.02375 0.1,0.0225 0.145,-0.005 0.04,-0.0225 0.06,-0.06125 0.0625,-0.11125 0.0025,-0.05 -0.0125,-0.1 -0.04375,-0.15125 -0.03,-0.0525 -0.0675,-0.08875 -0.11125,-0.1075 -0.045,-0.0175 -0.08625,-0.015 -0.12625,0.0087 M 28.001,31.54475 c 0.03625,-0.02125 0.07,-0.03875 0.10625,-0.04875 0.03375,-0.01125 0.07,-0.02 0.1075,-0.025 l 0.05125,0.15875 c -0.03375,0.0075 -0.0625,0.015 -0.09,0.0225 -0.025,0.01 -0.05375,0.02375 -0.08375,0.04125 -0.05625,0.03375 -0.09,0.0825 -0.09875,0.14375 -0.01,0.0625 0.01,0.13375 0.0575,0.215 l 0.0038,0.0025 c 0.0075,-0.03625 0.025,-0.07 0.05,-0.10125 0.025,-0.03375 0.0575,-0.06125 0.09875,-0.08625 0.085,-0.05125 0.17,-0.06 0.255,-0.02875 0.08375,0.03125 0.155,0.09375 0.21125,0.1875 0.0575,0.09625 0.07375,0.19375 0.0525,0.2925 -0.02255,0.0975 -0.0813,0.17375 -0.1763,0.23125 -0.1,0.06 -0.2025,0.075 -0.30625,0.045 -0.10375,-0.03 -0.1925,-0.10625 -0.265,-0.22625 l -0.1,-0.16875 c -0.08,-0.13375 -0.10875,-0.26 -0.08125,-0.37875 0.02625,-0.1175 0.09625,-0.21 0.2075,-0.27625"/><path fill="#ffcc00" d="m 29.245625,30.910625 c -0.0125,0.1825 0,0.335 0.03625,0.4575 0.03875,0.1225 0.1,0.2575 0.1875,0.405 l 0.05875,0.09875 -0.18,0.1325 -0.05875,-0.0975 c -0.0825,-0.14 -0.1425,-0.28375 -0.17875,-0.4275 -0.03625,-0.1425 -0.0475,-0.29 -0.0375,-0.44125 l -0.31375,0.23375 0.05875,0.0925 -0.13625,0.1025 -0.16875,-0.225 0.63,-0.46875 z"/><path fill="#ffcc00" d="m 13.18975,27.818625 c 0.05,0.01125 0.10375,0.03875 0.165,0.08125 0.0625,0.045 0.12125,0.11 0.17625,0.2 0.08,0.12625 0.1025,0.2575 0.06875,0.39 -0.035,0.13375 -0.12125,0.2425 -0.25625,0.32875 l -0.0325,0.01875 c -0.14125,0.09 -0.28,0.1225 -0.4175,0.1 -0.13875,-0.02375 -0.2475,-0.09875 -0.3275,-0.225 -0.04625,-0.07375 -0.07625,-0.1475 -0.09125,-0.22375 -0.01375,-0.075 -0.015,-0.14625 0,-0.2125 l 0.18875,-0.11875 0.0875,0.14 -0.10875,0.105 c -0.0038,0.02625 -0.0013,0.0575 0.0075,0.09 0.0088,0.03375 0.025,0.07 0.0475,0.10625 0.0525,0.08125 0.12375,0.1275 0.2125,0.13375 0.09,0.0075 0.1825,-0.01875 0.28125,-0.08125 l 0.03375,-0.02125 c 0.095,-0.05875 0.1575,-0.13 0.18625,-0.21125 0.02875,-0.08 0.01625,-0.1625 -0.03625,-0.2475 -0.02375,-0.0375 -0.04625,-0.06625 -0.0675,-0.085 -0.02125,-0.02 -0.04,-0.03375 -0.0575,-0.04125 l -0.16,0.1 0.075,0.14125 -0.1325,0.0825 -0.20375,-0.3225 z"/><path fill="#ffcc00" d="m 12.396875,27.359625 -0.065,-0.14 c -0.02625,-0.05625 -0.0575,-0.09375 -0.09375,-0.11 -0.0375,-0.0175 -0.07875,-0.015 -0.12375,0.0063 -0.045,0.02 -0.075,0.0525 -0.08875,0.0925 -0.015,0.04 -0.0087,0.0875 0.01625,0.14125 l 0.0675,0.14375 z m -0.51,0.0625 c -0.05375,-0.11375 -0.06875,-0.21625 -0.04625,-0.305 0.02125,-0.09 0.07875,-0.155 0.17125,-0.19875 0.05,-0.02375 0.10125,-0.03 0.15125,-0.02 0.05,0.01 0.09875,0.035 0.14625,0.0775 -0.01125,-0.0675 -0.0012,-0.12375 0.0275,-0.16875 0.02875,-0.04625 0.07375,-0.0825 0.13375,-0.11 l 0.05125,-0.02375 c 0.0225,-0.01125 0.0375,-0.0225 0.045,-0.0375 0.0088,-0.01375 0.01,-0.03125 0.0025,-0.05375 l -0.0088,-0.02625 0.1225,-0.05625 0.04875,0.105 c 0.03,0.065 0.03375,0.12 0.01,0.1625 -0.0225,0.045 -0.0625,0.07875 -0.11875,0.10375 l -0.0575,0.0275 c -0.04875,0.0225 -0.08125,0.05375 -0.09625,0.0925 -0.01625,0.03875 -0.01375,0.0825 0.0063,0.13125 l 0.0775,0.165 0.265,-0.1225 -0.02875,-0.11875 0.12125,-0.05625 0.19375,0.4175 -0.12125,0.05625 -0.07,-0.0975 -0.72375,0.335 0.02875,0.1175 -0.12125,0.05625 -0.05,-0.1075 z"/><path fill="#ffcc00" d="m 11.875,25.629875 0.11375,0.35875 0.3025,-0.09625 -0.10875,-0.34125 -0.12875,0.03 -0.0525,-0.16125 0.29,-0.09125 0.26625,0.8375 -0.1275,0.04 -0.0575,-0.10625 -0.75875,0.2425 0.01375,0.12 -0.1275,0.04 -0.03625,-0.1125 -0.23125,-0.72375 0.29,-0.09125 0.0525,0.1625 -0.12375,0.05 0.10875,0.3375 0.265,-0.08375 -0.11375,-0.35875 z"/><path fill="#ffcc00" d="m 11.657125,24.6375 -0.04625,-0.25 -0.3625,0.19375 0.0013,0.0038 z m 0.3975,0.3375 -0.025,-0.0775 -1.01125,-0.15625 -0.04125,-0.225 0.88875,-0.505 -0.0025,-0.08 0.13125,-0.025 0.0675,0.3725 -0.13125,0.02375 -0.0275,-0.0725 -0.14125,0.075 0.06625,0.355 0.15875,0.02 -0.0013,-0.0775 0.13125,-0.025 0.06875,0.3725 z"/><path fill="#ffcc00" d="m 10.797125,22.774 0.295,-0.01875 0.01125,0.17125 -0.12375,0.01625 0.01375,0.20375 0.78125,-0.05 0.015,-0.12 0.1325,-0.0087 0.03,0.46 -0.13375,0.0088 -0.03,-0.1175 -0.78125,0.05 0.0125,0.2025 0.125,0.0025 0.01125,0.17 -0.295,0.01875 z"/><path fill="#ffcc00" d="m 11.42275,20.02925 -0.03,0.16375 -0.15625,0.0012 c -0.015,0.0175 -0.03125,0.0425 -0.04625,0.0775 -0.01625,0.035 -0.0275,0.0725 -0.035,0.11375 -0.01125,0.06 -0.0075,0.10875 0.01125,0.14625 0.02,0.0375 0.04875,0.06 0.09,0.0675 0.03625,0.0062 0.07,-0.005 0.1,-0.035 0.03,-0.03 0.06625,-0.085 0.10875,-0.16375 0.055,-0.11375 0.11625,-0.1975 0.1825,-0.24875 0.06625,-0.0525 0.145,-0.07 0.235,-0.05375 0.0925,0.01625 0.16,0.0675 0.2,0.15125 0.04125,0.085 0.05,0.1875 0.0275,0.3075 -0.01625,0.0875 -0.04375,0.1625 -0.085,0.2275 -0.04,0.065 -0.08875,0.115 -0.14625,0.15375 l -0.2275,-0.0425 0.03125,-0.17 0.15875,0.0063 c 0.0225,-0.02 0.04375,-0.04625 0.06125,-0.08125 0.01875,-0.03625 0.0325,-0.0775 0.04125,-0.12375 0.01125,-0.06 0.0075,-0.1075 -0.01125,-0.14375 -0.01875,-0.03625 -0.04875,-0.0575 -0.09,-0.065 -0.04125,-0.0075 -0.07875,0 -0.10875,0.025 -0.03125,0.025 -0.065,0.07375 -0.10125,0.14375 -0.06125,0.1225 -0.12375,0.2125 -0.1875,0.27 -0.06375,0.05625 -0.14125,0.0775 -0.23,0.06 -0.08875,-0.01625 -0.155,-0.06625 -0.19625,-0.1525 -0.0425,-0.085 -0.055,-0.185 -0.035,-0.29875 0.01625,-0.08375 0.0425,-0.1575 0.08,-0.2225 0.03875,-0.06375 0.08375,-0.11625 0.135,-0.155 z"/><path fill="#ffcc00" d="m 11.9995,18.970375 -0.1125,0.36 0.30375,0.09375 0.10625,-0.3425 -0.12375,-0.04875 0.05,-0.1625 0.29,0.09125 -0.26125,0.83875 -0.1275,-0.04 0.01375,-0.11875 -0.76125,-0.2375 -0.0575,0.10625 -0.1275,-0.04 0.035,-0.1125 0.22625,-0.72625 0.29,0.09125 -0.05125,0.16375 -0.13,-0.03 -0.105,0.33875 0.26625,0.08375 0.1125,-0.36 z"/><path fill="#ffcc00" d="m 12.396875,18.02425 0.10625,-0.2325 -0.40875,-0.04875 -0.0012,0.005 z m 0.1325,0.50375 0.0225,-0.0775 -0.7375,-0.70875 0.095,-0.2075 1.0175,0.0975 0.04375,-0.06875 0.12125,0.05625 -0.1575,0.34375 -0.12125,-0.055 0.02,-0.07625 -0.15875,-0.01875 -0.15,0.3275 0.1175,0.1075 0.045,-0.06375 0.12125,0.055 -0.1575,0.34375 z"/><path fill="#ffcc00" d="m 13.2635,17.305875 -0.11375,-0.07 0.0425,-0.1125 -0.67875,-0.4175 -0.0825,0.0875 -0.11375,-0.07 0.0625,-0.1 0.11625,-0.19 0.0625,-0.10125 0.115,0.07 -0.04375,0.11375 0.66625,0.41 0.165,-0.2675 -0.11375,-0.08125 0.09,-0.145 0.265,0.1625 z"/><path fill="#ffcc00" d="m 14.94875,14.29325 c -0.08,-0.0825 -0.16125,-0.1325 -0.24625,-0.15125 -0.08375,-0.0175 -0.16,0.005 -0.22625,0.07125 -0.0675,0.065 -0.09375,0.13875 -0.07625,0.22125 0.01625,0.08375 0.065,0.1675 0.145,0.25 l 0.01375,0.01375 c 0.08,0.08375 0.1625,0.135 0.24625,0.15375 0.0825,0.01875 0.1575,-0.0038 0.225,-0.06875 0.0675,-0.065 0.09375,-0.14 0.0775,-0.22375 -0.01625,-0.08375 -0.06375,-0.16875 -0.14625,-0.2525 z m 0.1725,-0.14125 c 0.11375,0.11625 0.17375,0.24625 0.18,0.3875 0.0075,0.14125 -0.0425,0.26375 -0.15125,0.36875 -0.1075,0.10375 -0.23125,0.15 -0.37125,0.13875 -0.14125,-0.0125 -0.2675,-0.07625 -0.38,-0.19375 l -0.0125,-0.0125 c -0.1125,-0.11625 -0.1725,-0.245 -0.18125,-0.385 -0.0088,-0.14125 0.04125,-0.26375 0.14875,-0.36875 0.10875,-0.10375 0.23375,-0.15125 0.375,-0.13875 0.14125,0.01125 0.26875,0.07625 0.38,0.19125 z"/><path fill="#ffcc00" d="m 15.70125,14.198625 0.08,-0.08875 -0.47875,-0.6375 -0.10875,0.0525 -0.08125,-0.10625 0.70625,-0.5325 0.18375,0.24375 -0.1375,0.1025 -0.08625,-0.10125 -0.29,0.21875 0.18375,0.245 0.31125,-0.235 0.10375,0.1375 -0.31125,0.23375 0.18375,0.24375 0.10875,-0.05375 0.08,0.1075 -0.3675,0.27625 z"/><path fill="#ffcc00" d="m 18.458875,11.511875 0.11375,0.2725 -0.1575,0.06625 -0.05625,-0.11125 -0.18875,0.07875 0.30125,0.7225 0.1175,-0.025 0.0525,0.12375 -0.42625,0.17625 -0.05125,-0.1225 0.10125,-0.06625 -0.30125,-0.72375 -0.1875,0.07875 0.03875,0.11875 -0.15625,0.065 -0.11375,-0.2725 z"/><path fill="#ffcc00" d="m 18.960625,11.478875 -0.035,-0.13 0.445,-0.11875 0.03375,0.13 -0.10875,0.0525 0.0825,0.31 0.43875,-0.11625 -0.0825,-0.31 -0.12125,0.0087 -0.035,-0.13 0.115,-0.03125 0.215,-0.05625 0.115,-0.03125 0.03375,0.13 -0.10875,0.0525 0.20625,0.77 0.12,-0.0087 0.035,0.13 -0.445,0.11875 -0.03375,-0.13 0.10875,-0.0525 -0.07875,-0.295 -0.4375,0.1175 0.07875,0.29375 0.12,-0.0075 0.035,0.12875 -0.44375,0.11875 -0.035,-0.12875 0.10875,-0.05375 -0.20625,-0.77 z"/><path fill="#ffcc00" d="m 21.301875,11.488 -0.3725,0.05 0.04125,0.31375 0.355,-0.0475 -0.0075,-0.1325 0.1675,-0.0225 0.04,0.30125 -0.87125,0.115 -0.0175,-0.1325 0.115,-0.0375 -0.105,-0.79125 -0.12,-0.0063 -0.0175,-0.13375 0.11625,-0.015 0.75375,-0.1 0.04,0.3025 -0.17,0.0225 -0.0275,-0.13 -0.3525,0.04625 0.0375,0.27625 0.3725,-0.04875 z"/><path fill="#ffcc00" d="m 24.234625,11.284125 -0.16625,-0.02 -0.01125,-0.15375 c -0.01625,-0.015 -0.04375,-0.02875 -0.08,-0.0425 -0.035,-0.01375 -0.075,-0.0225 -0.11625,-0.02625 -0.06,-0.0075 -0.10875,0 -0.14375,0.02125 -0.03625,0.02125 -0.0575,0.0525 -0.0625,0.0925 -0.0038,0.0375 0.01,0.07125 0.04125,0.09875 0.0325,0.02875 0.09,0.06 0.17125,0.0975 0.1175,0.0475 0.205,0.1025 0.26125,0.16625 0.05625,0.0625 0.08,0.13875 0.06875,0.23 -0.01125,0.09375 -0.0575,0.16375 -0.13875,0.21 -0.08125,0.04625 -0.1825,0.06125 -0.305,0.0475 -0.0875,-0.01 -0.165,-0.03375 -0.23125,-0.07 -0.0675,-0.035 -0.1225,-0.08 -0.1625,-0.135 l 0.02625,-0.23 0.17125,0.02 0.005,0.15875 c 0.02125,0.02125 0.04875,0.04 0.085,0.05625 0.0375,0.01625 0.07875,0.02625 0.12625,0.0325 0.06125,0.0075 0.10875,0 0.1425,-0.02125 0.03375,-0.02125 0.05375,-0.0525 0.05875,-0.09375 0.005,-0.0425 -0.0062,-0.0775 -0.0325,-0.1075 -0.0275,-0.02875 -0.0775,-0.06 -0.15,-0.09125 -0.12625,-0.0525 -0.22,-0.11 -0.28125,-0.16875 -0.06125,-0.06 -0.08625,-0.135 -0.07625,-0.22625 0.01,-0.08875 0.0575,-0.1575 0.14,-0.20625 0.0825,-0.0475 0.18,-0.065 0.295,-0.05375 0.085,0.01 0.16125,0.03125 0.22875,0.06625 0.065,0.03375 0.12,0.075 0.1625,0.1225 z"/><path fill="#ffcc00" d="m 25.73,11.2475 -0.07,0.2875 -0.165,-0.04 0.02,-0.1225 -0.19875,-0.0475 -0.18375,0.76 0.11,0.05 -0.03,0.13 -0.4475,-0.1075 0.03,-0.13 0.12125,0.005 0.1825,-0.76 -0.1975,-0.04875 -0.0375,0.12 -0.165,-0.04 0.0675,-0.28875 z"/><path fill="#ffcc00" d="m 26.192625,12.08375 0.23875,0.0875 0.0175,-0.41 -0.0038,-0.0012 z m -0.4925,0.17125 0.07875,0.01625 0.65,-0.78875 0.21375,0.07875 -0.0175,1.02125 0.07,0.03875 -0.04625,0.125 -0.355,-0.13 0.04625,-0.12625 0.0775,0.01375 0.0075,-0.16 -0.33875,-0.12375 -0.09875,0.12625 0.06875,0.03875 -0.04625,0.12625 -0.35625,-0.13125 z"/><path fill="#ffcc00" d="m 28.252,12.305875 -0.135,0.2625 -0.15125,-0.0775 0.0475,-0.11375 -0.1825,-0.09375 -0.355,0.6975 0.095,0.075 -0.06125,0.11875 -0.41,-0.21 0.06125,-0.11875 0.11625,0.03375 0.35625,-0.6975 -0.1825,-0.0925 -0.06375,0.10625 -0.15125,-0.07625 0.13375,-0.26375 z"/><path fill="#ffcc00" d="m 28.9245,13.47475 -0.31125,-0.21125 -0.17875,0.2625 0.2975,0.20125 0.0825,-0.10375 0.13875,0.095 -0.16875,0.25125 -0.7275,-0.49375 0.07375,-0.11 0.11125,0.0475 0.44875,-0.66 -0.08625,-0.08625 0.07625,-0.11 0.0975,0.06625 0.62875,0.42625 -0.17125,0.25125 -0.14125,-0.09625 0.065,-0.115 -0.29375,-0.2 -0.15625,0.23125 0.31125,0.21125 z"/><path fill="#ffcc00" d="m 31.059625,15.350375 c 0.08625,-0.07625 0.14,-0.15625 0.16375,-0.23875 0.02125,-0.08375 0.0012,-0.16 -0.06,-0.23 -0.0625,-0.07125 -0.135,-0.1 -0.21875,-0.08625 -0.08375,0.01125 -0.17,0.05625 -0.25625,0.13375 l -0.01375,0.01125 c -0.0875,0.0775 -0.14375,0.1575 -0.165,0.24 -0.02375,0.0825 -0.0038,0.1575 0.05625,0.2275 0.0625,0.07125 0.1375,0.1 0.22125,0.08875 0.08625,-0.0125 0.17125,-0.05625 0.25875,-0.13375 z m 0.1325,0.17875 c -0.12125,0.1075 -0.2525,0.16125 -0.39375,0.16125 -0.14125,0.0012 -0.2625,-0.055 -0.36125,-0.1675 -0.09875,-0.1125 -0.13875,-0.23875 -0.12125,-0.37875 0.01875,-0.13875 0.09,-0.2625 0.21125,-0.37 l 0.0125,-0.01125 c 0.12125,-0.1075 0.2525,-0.16125 0.3925,-0.16375 0.1425,-0.0013 0.26125,0.05375 0.36125,0.1675 0.1,0.1125 0.14,0.23875 0.12125,0.38 -0.0175,0.14 -0.0875,0.26375 -0.20875,0.37125 z"/><path fill="#ffcc00" d="m 31.112,16.099875 0.085,0.085 0.66,-0.45 -0.0475,-0.11 0.11,-0.075 0.49875,0.73 -0.25125,0.17125 -0.09625,-0.14125 0.10375,-0.0825 -0.20375,-0.3 -0.25375,0.1725 0.21875,0.32125 -0.14125,0.09625 -0.21875,-0.32125 -0.2525,0.1725 0.0475,0.11125 -0.11,0.075 -0.25875,-0.38 z"/><path fill="#ffcc00" d="M 33.7195,19.14 33.59325,19.185 33.532,19.08125 32.63325,19.4 l -0.075,-0.21 0.55625,-0.6725 -0.0025,-0.0037 -0.5575,0.1975 0.01875,0.11875 -0.12625,0.045 -0.15375,-0.43375 0.12625,-0.04375 0.06125,0.10375 0.75,-0.2675 -0.01625,-0.11875 0.125,-0.045 0.04125,0.11125 0.07375,0.21 -0.555,0.6725 0.0025,0.005 0.55625,-0.1975 -0.01875,-0.12 0.12625,-0.045 0.115,0.3225 z"/><path fill="#ffcc00" d="m 33.38625,20.444375 -0.0775,-0.3675 -0.3125,0.06625 0.075,0.35 0.1325,-0.0175 0.035,0.16625 -0.29625,0.0625 -0.18375,-0.86 0.13125,-0.0275 0.0475,0.11125 0.78,-0.16625 -0.0025,-0.12 0.13,-0.02875 0.02625,0.11625 0.1575,0.7425 -0.29875,0.06375 -0.035,-0.1675 0.1275,-0.0375 -0.07375,-0.3475 -0.27375,0.0575 0.07875,0.36875 z"/><path fill="#ffcc00" d="m 33.673125,21.3605 0.01375,0.15875 c 0.0063,0.06 0.02125,0.10375 0.04875,0.13375 0.02625,0.03 0.06375,0.04375 0.11125,0.03875 0.05125,-0.0038 0.08625,-0.02375 0.10875,-0.0575 0.02125,-0.035 0.02875,-0.08375 0.02375,-0.1475 l -0.01375,-0.1525 z m -0.15375,0.01375 -0.31875,0.0275 0.0175,0.20375 c 0.0063,0.05875 0.02125,0.1025 0.05,0.13125 0.02875,0.02875 0.0675,0.04125 0.11875,0.0375 0.0525,-0.005 0.09375,-0.0225 0.12,-0.05125 0.02625,-0.02875 0.03625,-0.07125 0.0325,-0.12875 z m 0.63125,0.0975 c 0.01125,0.13 -0.0063,0.23375 -0.05,0.31125 -0.04375,0.0775 -0.1175,0.12125 -0.2175,0.12875 -0.05125,0.005 -0.09875,-0.005 -0.14,-0.02875 -0.04375,-0.0225 -0.0775,-0.05875 -0.10125,-0.10875 -0.0087,0.0675 -0.03625,0.11875 -0.07875,0.15625 -0.04375,0.0375 -0.09625,0.05875 -0.1575,0.06375 -0.10625,0.01 -0.18875,-0.01875 -0.25,-0.08375 -0.06125,-0.065 -0.09625,-0.16125 -0.1075,-0.29 l -0.0475,-0.54375 0.1325,-0.01125 0.03375,0.115 0.79375,-0.06875 0.0125,-0.12 0.135,-0.01125 0.0087,0.1175 z"/><path fill="#ffcc00" d="m 33.706,22.7515 -0.0063,0.15375 c -0.0025,0.0625 0.01,0.10875 0.03375,0.14125 0.02625,0.0325 0.06375,0.04875 0.11375,0.05125 0.04875,0.0013 0.09,-0.0125 0.12125,-0.0425 0.03,-0.02875 0.0475,-0.07375 0.04875,-0.13375 l 0.0063,-0.1575 z m 0.48375,0.17625 c -0.005,0.12625 -0.03875,0.22375 -0.0975,0.2925 -0.06,0.07125 -0.1425,0.1025 -0.24375,0.1 -0.05625,-0.0025 -0.10375,-0.02 -0.14375,-0.05125 -0.04,-0.03125 -0.0725,-0.07625 -0.095,-0.135 -0.0225,0.06375 -0.055,0.11125 -0.10125,0.1375 -0.04625,0.02625 -0.1025,0.03875 -0.17,0.03625 l -0.05625,-0.0025 c -0.02375,0 -0.0425,0.0038 -0.0575,0.0125 -0.01375,0.01 -0.02125,0.02625 -0.025,0.0475 l -0.005,0.02875 -0.135,-0.005 0.005,-0.11625 c 0.0025,-0.0725 0.025,-0.12375 0.06375,-0.15125 0.04,-0.0275 0.09125,-0.04 0.15375,-0.03875 l 0.06375,0.0025 c 0.05375,0.0025 0.09625,-0.01 0.1275,-0.0375 0.0325,-0.02875 0.05,-0.0675 0.05375,-0.12 l 0.0062,-0.1825 -0.2925,-0.01125 -0.0275,0.11875 -0.1325,-0.005 0.0175,-0.46 0.1325,0.005 0.01875,0.11875 0.79625,0.03 0.0275,-0.1175 0.13375,0.005 -0.005,0.1175 z"/><path fill="#ffcc00" d="m 33.41675,24.222375 -0.0425,0.25125 0.40625,-0.05875 0.0012,-0.005 z m -0.25875,-0.4525 -0.0025,0.08 0.89625,0.495 -0.0375,0.22375 -1.00875,0.17125 -0.025,0.07625 -0.13125,-0.0225 0.06375,-0.37375 0.13125,0.0225 v 0.07875 l 0.15875,-0.0225 0.06,-0.355 -0.14125,-0.07375 -0.0275,0.07375 -0.13125,-0.0225 0.06375,-0.37375 z"/><path fill="#ffcc00" d="m 33.24225,26.1585 0.0475,-0.16 0.155,0.01625 c 0.0175,-0.015 0.035,-0.03875 0.055,-0.0725 0.01875,-0.0325 0.03375,-0.07 0.04625,-0.11 0.0175,-0.05875 0.01875,-0.1075 0.0038,-0.14625 -0.015,-0.03875 -0.0425,-0.065 -0.08125,-0.075 -0.03625,-0.01125 -0.07,-0.0038 -0.10375,0.0225 -0.03375,0.0275 -0.075,0.0775 -0.125,0.15125 -0.0675,0.1075 -0.1375,0.18375 -0.20875,0.22875 -0.0725,0.04375 -0.15125,0.05375 -0.23875,0.0275 -0.09125,-0.0275 -0.15125,-0.085 -0.18375,-0.1725 -0.03,-0.08875 -0.02875,-0.19125 0.0063,-0.30875 0.02625,-0.085 0.06125,-0.15625 0.10875,-0.21625 0.0475,-0.06 0.10125,-0.105 0.1625,-0.1375 l 0.2225,0.06625 -0.05,0.16625 -0.1575,-0.02375 c -0.025,0.0175 -0.04875,0.04125 -0.07,0.075 -0.02375,0.03375 -0.04,0.0725 -0.055,0.11875 -0.0175,0.0575 -0.01875,0.10625 -0.0038,0.14375 0.015,0.0375 0.0425,0.0625 0.0825,0.07375 0.04125,0.0125 0.07875,0.0075 0.11125,-0.01375 0.03375,-0.02125 0.0725,-0.065 0.11625,-0.13125 0.075,-0.11625 0.145,-0.1975 0.215,-0.2475 0.07,-0.05 0.14875,-0.0625 0.235,-0.035 0.0875,0.025 0.1475,0.0825 0.18,0.17125 0.0325,0.09 0.0325,0.19125 0.0013,0.3025 -0.025,0.08125 -0.05875,0.1525 -0.10375,0.21125 -0.045,0.06 -0.095,0.10625 -0.15,0.14 z"/><path fill="#ffcc00" d="m 32.517125,26.3635 -0.02625,0.1175 0.72875,0.3225 0.06875,-0.1 0.1225,0.055 -0.18375,0.415 -0.12125,-0.055 0.02375,-0.11125 -0.2725,-0.12 -0.03875,0.08875 0.1975,0.32 0.03625,-0.05625 0.12125,0.055 -0.17625,0.4025 -0.12375,-0.055 0.03125,-0.1175 -0.22375,-0.3975 -0.52625,0.1025 -0.0625,0.095 -0.12125,-0.05375 0.1775,-0.40375 0.1225,0.055 -0.02,0.06625 0.38125,-0.06625 0.05,-0.11375 -0.2825,-0.12375 -0.065,0.09375 -0.1225,-0.05375 0.1825,-0.415 z"/><path fill="#ffcc00" d="m 31.997125,28.15425 -0.1325,0.2175 0.39875,0.0975 0.0025,-0.0038 z m -0.07125,-0.51625 -0.03125,0.07375 0.6475,0.7925 -0.11875,0.195 -1,-0.21875 -0.05125,0.0625 -0.11375,-0.07 0.1975,-0.32375 0.11375,0.07 -0.0275,0.0725 0.155,0.03875 0.1875,-0.30625 -0.10375,-0.1225 -0.0525,0.05875 -0.11375,-0.07 0.19875,-0.3225 z"/></svg>