<svg xmlns="http://www.w3.org/2000/svg" viewBox="0 0 45 45"><path fill="#003776" d="m 45,33.75 c 0,2.76125 -2.23875,5 -5,5 H 5 c -2.76125,0 -5,-2.23875 -5,-5 v -22.5 c 0,-2.76125 2.23875,-5 5,-5 h 35 c 2.76125,0 5,2.23875 5,5 z"/><path fill="#ef1439" d="m 22.507875,33.4375 c -4.77375,0 -8.45125,-2.185 -8.45125,-2.185 0,0 0.67625,0.13625 1.45375,-0.1325 0.7275,-0.25375 0.71875,-0.8775 0.71875,-0.8775 0,0 2.52875,1.21625 6.27875,1.21625 3.75,0 6.27875,-1.21625 6.27875,-1.21625 0,0 -0.01,0.62375 0.71875,0.8775 0.77625,0.26875 1.4525,0.1325 1.4525,0.1325 0,0 -3.67625,2.185 -8.45,2.185"/><path fill="#ffe835" d="m 29.5215,21.484375 c 0,-3.86375 -3.1325,-6.995 -6.995,-6.995 -3.86375,0 -6.99625,3.13125 -6.99625,6.995 0,3.86375 3.1325,6.99625 6.99625,6.99625 3.8625,0 6.995,-3.1325 6.995,-6.99625"/><path fill="#36e218" d="m 27.493875,23.389875 c -0.76625,1.99625 -2.70125,3.4125 -4.9675,3.4125 -2.2675,0 -4.20125,-1.41625 -4.96875,-3.41375 z"/><path fill="#ff9120" d="m 27.493875,23.389875 c 0.125,-0.32375 0.2175,-0.66375 0.2775,-1.015 h -10.49 c 0.05875,0.35125 0.1525,0.69 0.27625,1.01375 z"/><path fill="#86e2ff" d="m 27.771,22.3755 c 0.04875,-0.28875 0.075,-0.5875 0.075,-0.89125 0,-2.9375 -2.3825,-5.31875 -5.32,-5.31875 -2.9375,0 -5.31875,2.38125 -5.31875,5.31875 0,0.30375 0.025,0.60125 0.07375,0.89125 z"/><path fill="#c5792c" d="m 22.5,20.026875 c 0,0 -0.245,0.255 -0.66875,0.19125 -0.425,-0.06375 -0.68,-0.30625 -0.68,-0.30625 L 20.4,20.685625 c 0,0 0.26875,0.20875 0.26875,0.74625 0,0.41875 -0.0875,0.55625 -0.0875,1.02625 0,0.92 0.58,1.36 1.42125,1.6325 0.3475,0.1125 0.4975,0.29875 0.4975,0.29875 0,0 0.15,-0.18625 0.4975,-0.29875 0.84,-0.2725 1.42125,-0.7125 1.42125,-1.6325 0,-0.47 -0.0875,-0.6075 -0.0875,-1.02625 0,-0.5375 0.27,-0.74625 0.27,-0.74625 l -0.75375,-0.77375 c 0,0 -0.255,0.2425 -0.67875,0.30625 C 22.745,20.281875 22.5,20.026875 22.5,20.026875"/><path fill="#ffffff" d="m 19.834,17.664125 c 0,0 -0.055,0.195 0.1675,0.4175 0.2325,0.23375 0.3275,0.2325 0.3275,0.2325 0,0 0.2275,-1.10125 1.7375,-1.10125 1.01375,0 2.18625,0.99125 2.72,0.99125 0.32875,0 0.40125,-0.15625 0.40125,-0.15625 v -0.6725 c 0,0 -0.0825,0.04875 -0.23375,0.04875 -0.61375,0 -1.37375,-0.97625 -2.8975,-0.97625 -0.70875,0 -1.30625,0.27375 -1.64875,0.51375 -0.48875,0.345 -0.57375,0.7025 -0.57375,0.7025"/></svg>