<svg xmlns="http://www.w3.org/2000/svg" viewBox="0 0 45 45"><path fill="#002687" d="m 0,33.75 c 0,2.76125 2.23875,5 5,5 h 35 c 2.76125,0 5,-2.23875 5,-5 v -22.5 c 0,-2.76125 -2.23875,-5 -5,-5 H 5 c -2.76125,0 -5,2.23875 -5,5 z"/><path fill="#ff0f3a" d="m 23.444875,36.757875 c -5.35375,0 -10.085,-3.5575 -10.085,-4.26 0,-1.02875 1.61375,-0.96125 1.61375,-0.96125 0,0 3.875,3.255 8.47125,3.255 4.5975,0 6.97125,-3.255 6.97125,-3.255 0,0 1.615,-0.0675 1.615,0.96125 0,0.7025 -3.2325,4.26 -8.58625,4.26"/><path fill="#d25b20" d="m 23.125,29.566625 0.6475,1.39125 4.04875,-2.735 0.06875,0.45125 1.2,-1.41 -0.26,-0.0125 0.12875,-0.26125 -0.30625,0.0375 0.14375,-0.29125 -1.73,0.545 0.52875,0.11875 z"/><path fill="#1ada40" d="m 21.228,32.242375 c 0,0 -0.235,-0.76375 -0.44125,-0.985 -0.20625,-0.22125 -2.95625,-2.35375 -2.95625,-2.35375 0,0 -0.24875,-0.52875 -0.14625,-1.27875 0.1025,-0.75 -0.98625,-1.8975 -0.98625,-1.8975 0,0 -0.06375,0.1575 -0.06875,0.48625 -0.005,0.3275 0.11375,0.83875 0.11375,0.83875 0,0 -0.32375,-0.37875 -0.5,-0.535 -0.17625,-0.1575 -0.48125,-0.245 -0.48125,-0.245 0,0 0.21625,0.1425 0.3625,0.46625 0.1475,0.3225 0.1475,0.77375 0.1475,0.77375 0,0 -0.3775,0.015 -0.68625,-0.95625 -0.30875,-0.97 -0.98,-1.8525 -0.98,-1.8525 0,0 -0.03,0.1525 -0.03,0.245 0,0.0925 0.06375,0.3775 0.06375,0.3775 0,0 -0.06375,-0.1075 -0.17125,-0.23625 -0.1075,-0.12625 -0.26,-0.25 -0.26,-0.25 0,0 0.015,0.1625 0.03,0.34 0.01375,0.175 0.1125,0.40125 0.1125,0.40125 0,0 -0.1075,-0.03375 -0.30375,-0.1625 -0.19625,-0.1275 -0.32375,-0.25375 -0.32375,-0.25375 0,0 0.1025,0.43625 0.6225,1.0775 0.52,0.6425 1.21125,1.245 1.21125,1.245 0,0 -0.28,0.0975 -1.27,-0.63625 -0.99,-0.735 -2.04,-0.84875 -2.04,-0.84875 0,0 0.20625,0.24 0.4175,0.39125 0.21,0.1525 0.6025,0.35 0.6025,0.35 0,0 -0.23,0.04375 -0.6125,0.02375 -0.3825,-0.02 -0.72125,-0.07875 -0.72125,-0.07875 0,0 0.1375,0.19125 0.4175,0.27875 0.28,0.09 0.65625,0.02 0.65625,0.02 0,0 -0.17625,0.18625 -0.425,0.245 -0.25125,0.05875 -0.52,0.01 -0.52,0.01 0,0 0.7475,0.435 1.725,0.46375 0.9775,0.03 1.80875,-0.11875 1.80875,-0.11875 0,0 0.765,0.34625 1.235,0.73875 0.47125,0.3925 0.71125,0.68125 0.71125,0.68125 0,0 2.1175,1.795 2.63375,2.33125 0.51625,0.5375 1.0525,0.90375 1.0525,0.90375"/><path fill="#ffd227" d="m 20.314375,28.533875 c 0,0 -0.155,-0.07125 -0.2625,-0.04625 -0.1075,0.02375 -0.74,0.49 -0.69125,0.68625 0.04875,0.19625 -1.1125,0.81375 -1.18625,1.1475 -0.07375,0.3325 0.40625,0.20125 0.40625,0.20125 0,0 -0.81875,0.65625 -1.39125,-0.1475 -0.57375,-0.80375 0.14125,-1.6475 0.8225,-1.3775 0.6825,0.27 1.85125,-0.8325 1.85125,-0.8325 l 0.30625,-0.1475 0.3675,0.05875 z"/><path fill="#ffd227" d="m 23.902625,28.463125 0.295,0.42625 c 0,0 0.57375,-0.05875 1.1475,0.30125 0.57375,0.36125 0,0.83875 0,0.83875 0,0 1.10375,0 1.36,-0.67625 0.2575,-0.67625 -0.115,-1.23375 -1.205,-0.9775 -1.31625,0.30875 -1.27625,-0.01625 -1.27625,-0.01625 z"/><path fill="#ffffff" d="m 23.742625,28.485125 c 0,0 -1.2925,2.32 -2.765,2.14 -1.79375,-0.22125 -0.44,-2.54875 -0.44,-2.54875 l 1.3575,-1.1725 z"/><path fill="#663b3b" d="m 19.184,28.33125 c 0,0 1.77375,-0.55875 2.5,-0.04875 0.725,0.50875 2.51875,0.12625 2.51875,0.12625 0,0 0.57875,-1.3525 0.345,-1.95 -0.23625,-0.59875 -1.1425,-0.625 -1.1425,-0.625 l -2.82,-0.2175 c 0,0 -0.3425,0.0375 -0.6075,0.29375 -0.265,0.255 -0.4025,0.7925 -0.47,1.3425 C 19.439,27.80125 19.184,28.33125 19.184,28.33125"/><path fill="#663b3b" d="m 24.652125,23.012125 c 0,0 0.67875,0.06875 1.7825,-1.41625 1.1025,-1.485 1.14625,-1.79375 2.17625,-1.79375 3.92625,0 6.29375,3.89625 6.29375,3.89625 0,0 -3.21625,-1.2175 -5.8025,0.14875 -3.53625,1.86875 -5.20625,1.255 -5.20625,1.255"/><path fill="#663b3b" d="m 21.489875,22.7075 c 0,0 -1.14,0.29 -2.2375,-0.72 -1.36125,-1.2525 -1.19625,-1.8625 -2.63625,-1.75125 -3.915,0.305 -6.59625,4.76375 -6.59625,4.76375 0,0 3.52375,-1.1025 6.39875,-0.56625 3.33875,0.6225 4.20625,0.4325 4.20625,0.4325"/><path fill="#ffffff" d="m 21.723,17.87475 c 0,0 0.55875,-0.505 1.7725,1.07125 0.66625,0.865 0.58,1.25875 0.7575,1.7175 0.265,0.68875 0.68625,1.4525 0.68625,1.4525 0,0 -0.62375,1.82625 -1.6975,1.935 -1.0725,0.11 -1.92125,-1.79875 -1.92125,-1.79875 0,0 1.23625,-0.55875 1.23625,-1.39125 0,-0.83375 -0.66,-1.69125 -0.66,-1.69125 L 22.0705,18.836 Z"/><path fill="#ffd227" d="m 20.820875,18.2575 c 0,0 -0.39625,-0.28 0.09875,-0.535 0.32,-0.165 0.80375,0.1525 0.80375,0.1525 0,0 0.71125,0.90625 0.8775,1.41625 0.16625,0.51 0.0825,0.54 0.0825,0.54 0,0 -0.54875,-0.525 -0.94125,-0.765 -0.39125,-0.24 -0.69,-0.3775 -0.69,-0.3775 0,0 0.10625,-0.045 0.38125,-0.02 0.31375,0.03 0.6375,0.1675 0.6375,0.1675 0,0 -0.34875,-0.51 -0.76,-0.6775 -0.3625,-0.14625 -0.49,0.09875 -0.49,0.09875"/><path fill="#ffd227" d="m 21.444125,27.652625 -0.06375,-0.06625 c -0.03125,-0.0325 -0.79125,-0.82125 -1.025,-1.83125 -0.09875,-0.4275 -0.0075,-1.02625 0.27,-1.77625 0.38375,-1.04125 0.7175,-1.50625 0.73125,-1.525 l 0.08125,-0.1125 0.10375,0.0925 c 0.0025,0.0025 0.28125,0.24625 0.69,0.3075 0.5475,0.0825 0.8525,-0.175 0.865,-0.18625 l 0.08875,-0.07625 0.0825,0.08375 c 0.0038,0.0025 0.2725,0.2725 0.685,0.315 0.40625,0.0525 0.79875,-0.18875 0.80125,-0.1925 l 0.22875,-0.14125 -0.03875,0.26625 c -0.01375,0.0925 -0.34875,2.27875 -1.67375,3.5375 -0.8675,0.82375 -1.70875,1.24625 -1.745,1.265 z"/><path fill="#ff0f3a" d="m 20.86,24.065 c -0.26,0.70375 -0.3475,1.255 -0.26,1.635 0.18,0.78 0.71375,1.43625 0.8975,1.64375 0.23125,-0.1275 0.915,-0.52625 1.6,-1.17625 0.46625,-0.44375 0.805,-1.02 1.0475,-1.57 0,0 -0.79875,0.145 -1.74875,0.08625 C 21.44875,24.625 20.86,24.065 20.86,24.065"/><path fill="#002687" d="m 20.86,24.065 c 0.26875,-0.72875 0.515,-1.16875 0.63,-1.3575 0.13625,0.0925 0.385,0.23375 0.70375,0.28125 0.48625,0.0725 0.825,-0.08375 0.97625,-0.18 0.1275,0.1025 0.39375,0.28 0.75625,0.3175 0.285,0.03125 0.54625,-0.0425 0.72625,-0.11375 -0.06875,0.32375 -0.22125,0.93625 -0.5075,1.585 0,0 -0.79875,0.145 -1.74875,0.08625 C 21.44875,24.625 20.86,24.065 20.86,24.065"/><path fill="#ffffff" d="m 15.32775,34.03925 -0.2625,-0.1825 0.08125,-0.95 -0.47125,0.6825 -0.26375,-0.1825 0.75625,-1.0975 0.26375,0.1825 -0.08125,0.95 0.47,-0.6825 0.26375,0.18125 z"/><path fill="#ffffff" d="M 16.814,34.0735 C 16.8765,33.956 16.90525,33.85725 16.899,33.77725 16.8927,33.69475 16.85275,33.63475 16.78025,33.596 16.639,33.51975 16.5065,33.58475 16.384,33.7935 l -0.0475,0.08625 c -0.0625,0.115 -0.09125,0.21375 -0.08625,0.295 0.005,0.0825 0.045,0.14375 0.12125,0.185 0.07125,0.03875 0.1425,0.0375 0.21375,-0.0013 0.07125,-0.04125 0.1375,-0.1175 0.2,-0.23125 z m 0.26125,0.20375 c -0.06125,0.115 -0.1375,0.205 -0.2275,0.27 -0.09,0.06625 -0.1875,0.1 -0.29125,0.10625 -0.10375,0.005 -0.205,-0.02 -0.305,-0.07375 -0.1,-0.05375 -0.17625,-0.12375 -0.22875,-0.2125 -0.0525,-0.08625 -0.0775,-0.185 -0.075,-0.29375 0.0038,-0.10875 0.0325,-0.21875 0.09125,-0.33125 l 0.035,-0.065 c 0.0625,-0.115 0.13875,-0.205 0.2275,-0.27 0.09,-0.06625 0.18625,-0.10125 0.29125,-0.10625 0.10375,-0.005 0.20625,0.01875 0.3075,0.0725 0.09875,0.05375 0.175,0.125 0.2275,0.215 0.0525,0.09 0.07625,0.19 0.0725,0.3 -0.0038,0.11 -0.035,0.22125 -0.09625,0.335 z"/><path fill="#ffffff" d="m 17.811875,34.5215 0.18625,0.07875 c 0.05625,0.025 0.105,0.0275 0.14625,0.01 0.04125,-0.01625 0.0725,-0.0525 0.095,-0.10625 0.0225,-0.0525 0.02625,-0.1 0.01,-0.1425 -0.01625,-0.04125 -0.05125,-0.07375 -0.10625,-0.09875 l -0.1875,-0.08 z m 0.0625,0.295 -0.16,-0.0675 -0.185,0.4325 -0.295,-0.125 0.5225,-1.22625 0.4825,0.205 c 0.145,0.0625 0.245,0.14375 0.3,0.2425 0.05375,0.1 0.05625,0.20875 0.0063,0.325 -0.03625,0.08625 -0.08375,0.15 -0.14125,0.19125 -0.05875,0.04125 -0.1325,0.06375 -0.22125,0.06625 l 0.045,0.605 -0.005,0.0125 -0.31625,-0.135 z"/><path fill="#ffffff" d="m 19.920625,34.909625 -0.38,-0.12375 -0.33625,1.0325 -0.30625,-0.10125 0.33625,-1.03125 -0.37375,-0.12125 0.0775,-0.23625 1.06,0.34625 z"/><path fill="#ffffff" d="M 21.12675,36.30375 20.81425,36.235 20.933,35.6925 20.4705,35.59125 20.35175,36.135 20.038,36.0675 l 0.28375,-1.3025 0.31375,0.0675 -0.1125,0.51625 0.4625,0.10125 0.11375,-0.5175 0.31125,0.06875 z"/><path fill="#ffffff" d="m 22.7685,35.40775 -0.03125,0.83625 0.11125,0.005 c 0.0925,0.0037 0.165,-0.0275 0.21625,-0.09 0.0525,-0.06375 0.08,-0.16125 0.085,-0.29 l 0.0025,-0.05875 c 0.005,-0.1275 -0.01625,-0.225 -0.06375,-0.2925 -0.04625,-0.0675 -0.1175,-0.1025 -0.2125,-0.10625 z M 22.40725,36.479 22.456,35.14775 22.886,35.164 c 0.1175,0.0037 0.22125,0.03375 0.315,0.09125 0.09125,0.0575 0.16125,0.135 0.21125,0.23375 0.04875,0.1 0.07125,0.20875 0.06625,0.33 l -0.0025,0.06125 c -0.0038,0.1225 -0.03375,0.23 -0.0875,0.32625 -0.05625,0.09375 -0.13125,0.16625 -0.2275,0.2175 -0.095,0.05125 -0.2,0.075 -0.315,0.07125 z"/><path fill="#ffffff" d="m 24.295625,35.9815 0.28625,-0.02625 -0.185,-0.4475 z m 0.385,0.215 -0.44,0.03875 -0.05375,0.255 -0.34125,0.03125 0.3675,-1.37125 0.30125,-0.0275 0.60875,1.28375 -0.34375,0.03 z"/><path fill="#ffffff" d="m 25.909375,35.7385 -0.09625,0.17125 0.07875,0.3425 -0.31375,0.0725 -0.2975,-1.3 0.3125,-0.0725 0.1325,0.57375 0.07,-0.19 0.1875,-0.4725 0.38625,-0.08875 -0.30625,0.67625 0.605,0.6225 -0.37,0.085 z"/><path fill="#ffffff" d="m 27.569625,35.011 c -0.0475,-0.12375 -0.10375,-0.21 -0.17,-0.25875 -0.065,-0.0475 -0.13625,-0.0575 -0.21375,-0.0275 -0.15125,0.05625 -0.1875,0.2 -0.11,0.42875 l 0.035,0.09125 c 0.04625,0.1225 0.10125,0.20875 0.1675,0.26 0.065,0.05 0.1375,0.05875 0.2175,0.02875 0.07625,-0.0275 0.1225,-0.0825 0.13875,-0.16375 0.01625,-0.07875 0.0025,-0.18 -0.0425,-0.30125 z m 0.32625,-0.06375 c 0.045,0.12125 0.06375,0.2375 0.055,0.34875 -0.01,0.11 -0.04625,0.2075 -0.11125,0.28875 -0.06375,0.08125 -0.1475,0.1425 -0.25375,0.1825 -0.10625,0.04125 -0.21,0.0525 -0.31,0.035 -0.10125,-0.0175 -0.1925,-0.0625 -0.2725,-0.13625 -0.08125,-0.0725 -0.14375,-0.1675 -0.19125,-0.285 l -0.02625,-0.07 c -0.04625,-0.12125 -0.06625,-0.2375 -0.05625,-0.34875 0.01,-0.11 0.04625,-0.20625 0.11125,-0.29 0.06375,-0.08125 0.14875,-0.14375 0.25625,-0.18375 0.105,-0.04 0.20875,-0.05125 0.31,-0.03125 0.1025,0.0175 0.19375,0.065 0.275,0.14 0.08125,0.075 0.145,0.17375 0.19125,0.2925 z"/><path fill="#ffffff" d="m 28.8965,33.890375 -0.35125,0.19125 0.52,0.9525 -0.2825,0.15375 -0.52,-0.9525 -0.34375,0.18875 -0.11875,-0.2175 0.9775,-0.535 z"/><path fill="#ffffff" d="m 29.764375,34.024625 0.23125,-0.17 -0.39125,-0.28625 z m 0.44,-0.01625 -0.35625,0.26125 0.0875,0.2475 -0.2775,0.2025 -0.39625,-1.3625 0.2425,-0.18 1.1875,0.78125 -0.2775,0.20375 z"/><path fill="#e2d227" d="M 22.6875,13.26125 H 22.12125 V 13.8275 H 22.6875 Z"/><path fill="#e2d227" d="M 23.22375,14.99125 H 22.6575 v 0.56625 h 0.56625 z"/><path fill="#e2d227" d="M 24.27375,13.54375 H 23.7075 V 14.11 h 0.56625 z"/><path fill="#e2d227" d="M 24.545,15.46875 H 23.97875 V 16.035 H 24.545 Z"/><path fill="#e2d227" d="M 25.55875,14.185 H 24.9925 v 0.56625 h 0.56625 z"/><path fill="#e2d227" d="M 25.57125,16.32125 H 25.005 v 0.56625 h 0.56625 z"/><path fill="#e2d227" d="M 26.67875,15.2525 H 26.1125 v 0.56625 h 0.56625 z"/><path fill="#e2d227" d="M 21.26375,15.03125 H 21.83 v 0.56625 h -0.56625 z"/><path fill="#e2d227" d="m 20.57,13.43875 h 0.56625 V 14.005 H 20.57 Z"/><path fill="#e2d227" d="M 19.94875,15.6325 H 20.515 v 0.56625 h -0.56625 z"/><path fill="#e2d227" d="m 19.05625,14.2375 h 0.56625 v 0.56625 h -0.56625 z"/><path fill="#e2d227" d="m 19.165,16.68875 h 0.56625 V 17.255 H 19.165 Z"/><path fill="#e2d227" d="M 17.87625,15.40625 H 18.4425 V 15.9725 H 17.87625 Z"/><path fill="#e2d227" d="m 22.43775,8.652375 -1.25,2.1675 -1.9725,-1.58125 -0.48875,2.5 -2.3825,-0.80125 0.39125,2.53875 -2.59875,0.02 2.38375,2.73375 c 0,0 1.425,-4.29625 5.9175,-4.29625 4.4925,0 5.9175,4.29625 5.9175,4.29625 l 2.38375,-2.73375 -2.59875,-0.02 0.39125,-2.53875 -2.3825,0.80125 -0.48875,-2.5 -1.9725,1.58125 z"/></svg>