<svg xmlns="http://www.w3.org/2000/svg" viewBox="0 0 45 45"><path fill="#003066" d="m 0,33.75 c 0,2.76125 2.23875,5 5,5 h 35 c 2.76125,0 5,-2.23875 5,-5 v -22.5 c 0,-2.76125 -2.23875,-5 -5,-5 H 5 c -2.76125,0 -5,2.23875 -5,5 z"/><path fill="#5a8662" d="m 29.591125,22.499375 c 0,0 0.4675,-0.58 1.01875,0.1475 0.7575,1 0.05875,1.41875 0.05875,1.41875 0,0 0.82375,-0.2575 0.875,0.69875 0.0525,0.95625 -0.73375,1.0375 -0.73375,1.0375 0,0 0.75625,0.235 0.61,0.95625 -0.09,0.4375 -0.5075,0.7125 -0.5075,0.7125 0,0 0.74125,0.265 0.595,1.41125 -0.1075,0.83375 -1.3975,0.765 -1.3975,0.765 0,0 0.8775,0.73625 0.1925,1.575 -0.50625,0.6225 -1.31625,0.38125 -1.31625,0.38125 0,0 -0.1975,0.6625 -0.95625,0.6025 -0.83875,-0.06625 -1.0675,-0.93375 -1.0675,-0.93375 0,0 -0.36625,0.17 -0.175,1.1325 0.125,0.6325 -1.39625,1.11125 -1.7575,0.2125 -0.36125,-0.89625 0.775,-1.4575 1.28125,-2.04125 0.5075,-0.5825 0.38125,-1.24375 0.38125,-1.24375 l 0.14375,-4.9175 z"/><path fill="#5a8662" d="m 15.4095,22.499375 c 0,0 -0.46875,-0.58 -1.02,0.1475 -0.7575,1 -0.05875,1.41875 -0.05875,1.41875 0,0 -0.82375,-0.2575 -0.875,0.69875 -0.05125,0.95625 0.735,1.0375 0.735,1.0375 0,0 -0.7575,0.235 -0.61,0.95625 0.09,0.4375 0.5075,0.7125 0.5075,0.7125 0,0 -0.7425,0.265 -0.59625,1.41125 0.1075,0.83375 1.3975,0.765 1.3975,0.765 0,0 -0.87625,0.73625 -0.1925,1.575 0.5075,0.6225 1.3175,0.38125 1.3175,0.38125 0,0 0.1975,0.6625 0.95625,0.6025 0.8375,-0.06625 1.06625,-0.93375 1.06625,-0.93375 0,0 0.3675,0.17 0.17625,1.1325 -0.125,0.6325 1.39625,1.11125 1.7575,0.2125 0.36,-0.89625 -0.775,-1.4575 -1.28125,-2.04125 -0.50875,-0.5825 -0.38125,-1.24375 -0.38125,-1.24375 l -0.14375,-4.9175 z"/><path fill="#c30217" d="m 22.5,31.99225 c -0.92625,0 -1.47375,0.12625 -1.47375,0.12625 0,0 0.0475,0.2225 0.1175,0.34125 0.07625,0.13125 0.17125,0.165 0.11375,0.28375 -0.11125,0.2225 -0.7575,0.08 -2.14,-0.09 -1.3825,-0.1675 -1.63625,0.0088 -1.63625,0.0088 0,0 0.085,0.22125 0.19125,0.33875 0.10125,0.11 0.10625,0.215 0.01875,0.305 -0.18375,0.18625 -1.5375,-0.1075 -1.83875,-0.1475 -0.30125,-0.04125 -0.52875,0.17625 -0.90375,0.08 -0.375,-0.095 -0.7425,-0.06625 -0.7425,-0.06625 0,0 0.28625,-0.175 0.73125,-0.1025 0.445,0.07375 0.3675,0.02625 0.43375,-0.07625 0.06625,-0.10375 1.02625,0 1.02625,0 0,0 -0.03,-0.23625 -0.5225,-0.2325 -0.28625,0.0025 -0.68,0.11375 -0.90375,0.04375 -0.225,-0.06875 -0.5775,-0.03625 -0.5775,-0.03625 0,0 0.16125,-0.10625 0.32,-0.1325 0.1575,-0.02625 0.5725,0.1175 0.83375,-0.0225 0.26125,-0.13875 1.0925,0.05625 1.0925,0.05625 l -0.22875,-0.42 c 0,0 0.73625,-0.51375 1.72875,-0.51375 0.9925,0 1.735,0.1825 1.735,0.1825 L 19.72,31.6398 c 0,0 0.61625,-0.44625 2.78,-0.44625 2.16375,0 2.78,0.44625 2.78,0.44625 l -0.155,0.2787 c 0,0 0.7425,-0.1825 1.735,-0.1825 0.9925,0 1.7275,0.51375 1.7275,0.51375 l -0.2275,0.42 c 0,0 0.83125,-0.195 1.0925,-0.05625 0.26125,0.14 0.67625,-0.0038 0.83375,0.0225 0.1575,0.02625 0.32,0.1325 0.32,0.1325 0,0 -0.3525,-0.0325 -0.5775,0.03625 -0.22375,0.07 -0.6175,-0.04125 -0.90375,-0.04375 -0.4925,-0.0037 -0.52125,0.2325 -0.52125,0.2325 0,0 0.95875,-0.10375 1.025,0 0.06625,0.1025 -0.01125,0.15 0.43375,0.07625 0.445,-0.0725 0.7325,0.1025 0.7325,0.1025 0,0 -0.36875,-0.02875 -0.74375,0.06625 -0.375,0.09625 -0.6025,-0.12125 -0.905,-0.08 -0.30125,0.04 -1.65375,0.33375 -1.8375,0.1475 -0.0875,-0.09 -0.08375,-0.195 0.0175,-0.305 0.1075,-0.1175 0.1925,-0.33875 0.1925,-0.33875 0,0 -0.25375,-0.17625 -1.63625,-0.0088 -1.3825,0.17 -2.03,0.3125 -2.14,0.09 -0.05875,-0.11875 0.03625,-0.1525 0.11375,-0.28375 0.07,-0.11875 0.11875,-0.34125 0.11875,-0.34125 0,0 -0.54875,-0.12625 -1.475,-0.12625"/><path fill="#ffcd30" d="m 22.5,31.120625 c 0,0 -0.52125,-0.03 -1.31625,-0.35875 -0.795,-0.3275 -1.07,-0.62625 -1.07,-0.62625 0,0 -0.4625,0.26125 -0.7975,-0.08375 -0.335,-0.34625 -0.17125,-0.84375 -0.17125,-0.84375 0,0 -0.10625,0.15 -0.33375,0.2425 -0.33125,0.135 -0.35,-0.02625 -0.6225,-0.2075 -0.2725,-0.18125 -0.20375,-0.415 -0.02,-0.4375 0.18375,-0.02125 0.17375,-0.22 0.0275,-0.455 -0.1475,-0.235 -0.33125,-0.20125 -0.33125,-0.20125 0,0 -0.04,0.505 -0.53875,0.3925 -0.32375,-0.07375 -0.745,-0.24 -0.8925,-0.68625 -0.17875,-0.5425 0.215,-0.43625 0.215,-0.43625 0,0 0.3175,-0.2925 0.09,-0.78125 -0.18625,-0.39625 -0.3525,-0.4975 -0.3525,-0.4975 0,0 -0.20375,0.175 -0.4375,0 -0.22,-0.16625 -0.2275,-0.66 0.07375,-0.73625 0.41375,-0.10375 0.14625,-0.3675 0.14625,-0.3675 0,0 -0.8525,-0.525 -0.8525,-2.17125 0,-0.60875 0.56875,-0.6675 0.56875,-0.6675 0,0 -0.31,-0.56375 -0.29375,-1.255 0.01875,-0.8775 0.38125,-1.3425 0.38125,-1.3425 0,0 -0.04375,-0.27875 0.1275,-0.69125 0.1725,-0.4125 0.30875,-0.54875 0.30875,-0.54875 0,0 -0.13625,-0.69125 0.47625,-0.69125 0.40625,0 0.3575,0.50875 0.3575,0.50875 0,0 0.33,0.0075 0.54375,0.045 0.215,0.0375 0.305,0.1025 0.305,0.1025 0,0 0.1125,-0.27875 0.51375,-0.52375 0.4025,-0.24625 0.70125,-0.1575 0.70125,-0.1575 0,0 0.18625,0.81375 0.765,0.79375 0.57875,-0.01875 0.70625,-0.40125 1.31375,-0.8425 0.6075,-0.44125 1.115,0.0875 1.115,0.0875 0,0 0.5075,-0.52875 1.11625,-0.0875 0.6075,0.44125 0.73375,0.82375 1.3125,0.8425 0.57875,0.02 0.765,-0.79375 0.765,-0.79375 0,0 0.29875,-0.08875 0.7,0.1575 0.40375,0.245 0.515,0.52375 0.515,0.52375 0,0 0.09,-0.065 0.305,-0.1025 0.21375,-0.0375 0.54375,-0.045 0.54375,-0.045 0,0 -0.04875,-0.50875 0.3575,-0.50875 0.6125,0 0.475,0.69125 0.475,0.69125 0,0 0.1375,0.13625 0.30875,0.54875 0.1725,0.4125 0.12875,0.69125 0.12875,0.69125 0,0 0.3625,0.465 0.38125,1.3425 0.01625,0.69125 -0.29375,1.255 -0.29375,1.255 0,0 0.56875,0.05875 0.56875,0.6675 0,1.64625 -0.85375,2.17125 -0.85375,2.17125 0,0 -0.26625,0.26375 0.14875,0.3675 0.30125,0.07625 0.2925,0.57 0.0725,0.73625 -0.23375,0.175 -0.4375,0 -0.4375,0 0,0 -0.16625,0.10125 -0.3525,0.4975 -0.2275,0.48875 0.09125,0.78125 0.09125,0.78125 0,0 0.3925,-0.10625 0.21375,0.43625 -0.1475,0.44625 -0.56875,0.6125 -0.89125,0.68625 -0.5,0.1125 -0.54,-0.3925 -0.54,-0.3925 0,0 -0.18375,-0.03375 -0.33125,0.20125 -0.1475,0.235 -0.1575,0.43375 0.0275,0.455 0.1825,0.0225 0.2525,0.25625 -0.02,0.4375 -0.2725,0.18125 -0.29125,0.3425 -0.6225,0.2075 -0.2275,-0.0925 -0.3325,-0.2425 -0.3325,-0.2425 0,0 0.16125,0.4975 -0.1725,0.84375 -0.335,0.345 -0.7975,0.08375 -0.7975,0.08375 0,0 -0.275,0.29875 -1.07,0.62625 -0.795,0.32875 -1.31625,0.35875 -1.31625,0.35875"/><path fill="#6caa66" d="m 22.5,29.596 c 0,0 0.86,-0.91125 1.93375,-0.82375 1.07375,0.0875 2.17625,-0.3675 2.98625,-1.94125 0.8075,-1.57375 0.8075,-1.8525 0.8075,-1.8525 H 16.77125 c 0,0 0,0.27875 0.81,1.8525 0.80875,1.57375 1.91125,2.02875 2.985,1.94125 C 21.64,28.68475 22.5,29.596 22.5,29.596"/><path fill="#5a8671" d="m 28.2275,24.978 c 0,0 0.1425,-0.42125 0.21125,-0.82375 0.06875,-0.40125 0.0875,-0.78375 0.0875,-0.78375 0,0 -1.18625,-0.23625 -2.5675,-0.05875 -1.3825,0.17625 -3.69625,0.78375 -4.68625,0.715 -0.99,-0.0675 -1.795,-0.54875 -3,-0.53875 -0.76625,0.0062 -1.41,0.095 -1.7775,0.16 0,0 -0.0025,0.105 0.06625,0.50625 0.06875,0.4025 0.21,0.82375 0.21,0.82375 z"/><path fill="#a8abc9" d="m 16.495375,23.6475 c 0,0 -0.02625,-0.2025 -0.03375,-0.42125 -0.0038,-0.08375 0,-0.2825 0,-0.2825 l 1.8175,-1.275 0.665,0.2175 2.13625,-0.04 1.35375,0.92625 2.17625,-0.12375 1.905,-0.7225 2.02375,1.0175 c 0,0 0.0038,0.19875 0,0.2825 -0.0038,0.08375 -0.0125,0.14375 -0.0125,0.14375 0,0 -1.18625,-0.235 -2.56875,-0.05875 -1.38125,0.17625 -3.69625,0.78375 -4.68625,0.71625 -0.99,-0.06875 -1.79375,-0.55 -3,-0.54 -0.765,0.0062 -1.40875,0.095 -1.77625,0.16"/><path fill="#eaefb7" d="m 16.461125,22.943125 c 0,0 -0.0225,-1.06125 0.01125,-1.84 0.035,-0.78 0.11625,-1.2575 0.11625,-1.2575 0,0 0.49875,-0.11 1.1475,-0.36 0.64625,-0.25 1.27125,-0.79375 1.27125,-0.79375 0,0 0.5375,0.4425 1.39,0.0875 0.83,-0.345 1.15875,-0.9675 1.42375,-0.9675 0.265,0 -0.05875,0.26875 0.1475,0.40125 0.18125,0.1175 0.53125,-0.19125 0.53125,-0.19125 0,0 0.35,0.30875 0.53125,0.19125 0.20625,-0.1325 -0.11625,-0.40125 0.1475,-0.40125 0.265,0 0.59375,0.6225 1.425,0.9675 0.85125,0.355 1.38875,-0.0875 1.38875,-0.0875 0,0 0.625,0.54375 1.2725,0.79375 0.64625,0.25 1.1475,0.36 1.1475,0.36 0,0 0.08,0.4775 0.11375,1.2575 0.035,0.77875 0.0125,1.84 0.0125,1.84 l -2.02375,-1.01625 -1.90375,0.72125 -2.1775,0.12375 -1.3525,-0.92625 -2.13625,0.04 -0.665,-0.21625 z"/><path fill="#ffd97d" d="m 22.048375,14.1955 c 0,0 -0.47125,-0.10625 -0.65375,-0.13625 -0.22875,-0.03875 -0.1525,-0.21375 -0.1525,-0.21375 0,0 0.05125,0.105 0.32375,0.115 0.2725,0.01 0.2975,-0.0175 0.31375,-0.03875 0.0175,-0.0225 0.01,-0.21875 -0.05125,-0.33625 -0.0575,-0.11125 -0.16375,-0.215 -0.16375,-0.215 0,0 0.1025,-0.0075 0.22,0.18375 0.1175,0.19125 0.06375,0.245 0.1125,0.335 0.05,0.09125 0.14,0.18375 0.14,0.18375 l 0.19875,-0.01125 0.185,-0.355 c 0,0 0.53125,-0.3 0.53125,-0.6575 0,-0.35875 -0.84125,-0.56875 -1.26125,-0.56875 -0.62875,0 -0.55,0.2825 -0.55,0.2825 0,0 -0.1175,-0.17375 0.03875,-0.33375 0.15625,-0.16 0.5825,-0.18625 0.5825,-0.18625 0,0 0.06375,-0.17625 0.02875,-0.3525 -0.02125,-0.10375 -0.16875,-0.25 -0.16875,-0.25 0,0 0.1425,0.015 0.225,0.21875 0.06625,0.1625 0,0.21125 0.075,0.3375 0.07375,0.1275 0.435,0.155 0.435,0.155 0,0 0.06,-0.13375 0.08625,-0.30875 0.025,-0.17625 0.0087,-0.235 0.0325,-0.235 0.02375,0 0.04,0.1475 0.02125,0.26875 -0.0175,0.12 -0.03,0.3075 0.1825,0.4075 0.2125,0.1 0.34375,0.23 0.50375,-0.17125 0.16,-0.4025 0.1075,-0.52 0.1425,-0.52 0.035,0 0.01125,0.41 -0.0525,0.52875 -0.065,0.12 -0.11375,0.38 -0.125,0.50375 -0.0125,0.125 -0.01,0.18 -0.01,0.18 0,0 0.03,-0.04 0.06625,-0.07625 0.0375,-0.035 0.06125,-0.0425 0.06125,-0.0425 0,0 -0.02375,0.0975 -0.065,0.16375 -0.04125,0.06625 -0.06625,0.1075 -0.105,0.25 -0.03875,0.1425 -0.28375,0.3975 -0.28375,0.3975 l 0.0075,0.2425 0.1175,0.0087 0.08125,-0.04 c 0,0 -0.0012,-0.22375 0.0625,-0.34625 0.065,-0.12375 0.2475,-0.23125 0.2475,-0.23125 0,0 0.0088,-0.05375 0.005,-0.11125 -0.0038,-0.05625 -0.0275,-0.1325 -0.0275,-0.1325 0,0 0.1175,0.065 0.15125,0.275 0.0325,0.21125 0.01125,0.35 0.01125,0.35 l -0.4925,0.32875 z"/><path fill="#c34a1a" d="m 21.436125,16.438625 h 2.5125 c 0,0 -0.35625,-0.2775 -0.43125,-0.54125 -0.07625,-0.265 -0.0325,-0.765 -0.06625,-0.97 -0.035,-0.2075 -0.0875,-0.31 -0.0875,-0.31 0,0 0.1675,-0.01375 0.335,-0.15875 0.2825,-0.245 0.0825,-0.29125 0.0825,-0.29125 0,0 0.115,-0.09125 0.1675,-0.24625 0.05125,-0.15375 0.05375,-0.1975 0,-0.2325 -0.055,-0.035 -0.22125,-0.0325 -0.29125,-0.0175 -0.0725,0.015 -0.4175,0.27 -0.7675,0.27 -0.22625,0 -0.32125,-0.255 -0.41875,-0.255 -0.07,0 -0.04,0.17 -0.125,0.265 -0.08625,0.095 -0.20875,0.1225 -0.20875,0.1225 0,0 -0.115,0.2325 -0.495,0.42125 -0.38,0.18875 -0.57125,0.245 -0.61,0.28 -0.04,0.03375 -0.065,0.27875 0.1175,0.3625 0.18125,0.0825 0.20375,-0.02875 0.3425,-0.02875 0.14,0 0.7525,0.16125 0.7525,0.16125 0,0 -0.19625,0.215 -0.44125,0.55625 -0.2225,0.31 -0.3675,0.6125 -0.3675,0.6125"/></svg>