<svg xmlns="http://www.w3.org/2000/svg" viewBox="0 0 45 45"><path fill="#002a86" d="M5,38.75c-2.761,0-5-2.239-5-5l0-22.5c0-2.761,2.239-5,5-5l35,0c2.761,0,5,2.239,5,5l0,22.5 c0,2.761-2.239,5-5,5L5,38.75z"/><path fill="#ffd90f" d="M 8.836,11.684 9.5885,13.94275 10.336,11.684 h 0.7925 v 3.115 h -0.605 v -0.85125 l 0.06,-1.47 -0.79,2.32125 h -0.415 l -0.7875,-2.31875 0.06,1.4675 V 14.799 H 8.04725 v -3.115 z"/><path fill="#ffd90f" d="m 14.956,13.17075 c 0,-0.32625 -0.055,-0.575 -0.165,-0.745 -0.11,-0.16875 -0.26625,-0.25375 -0.47,-0.25375 -0.2025,0 -0.35875,0.08375 -0.46875,0.25125 -0.11,0.1675 -0.16625,0.4125 -0.1675,0.73625 v 0.1525 c 0,0.3175 0.055,0.56375 0.165,0.74 0.11,0.175 0.26875,0.26375 0.475,0.26375 0.2025,0 0.3575,-0.085 0.46625,-0.25375 0.10875,-0.16875 0.16375,-0.41625 0.165,-0.73875 z m 0.61125,0.14125 c 0,0.30625 -0.05125,0.575 -0.1525,0.80625 -0.1025,0.23125 -0.2475,0.40875 -0.4375,0.535 -0.19,0.125 -0.4075,0.1875 -0.6525,0.1875 -0.2425,0 -0.46,-0.06125 -0.65,-0.18625 -0.19,-0.12375 -0.3375,-0.3 -0.44125,-0.53125 -0.105,-0.23 -0.1575,-0.495 -0.16,-0.795 V 13.1745 c 0,-0.30625 0.0525,-0.57625 0.15625,-0.81 0.10375,-0.2325 0.25,-0.41125 0.44,-0.53625 0.19,-0.125 0.40625,-0.1875 0.65125,-0.1875 0.24375,0 0.46,0.0625 0.65,0.1875 0.19,0.125 0.33625,0.30375 0.44,0.53625 0.105,0.23375 0.15625,0.5025 0.15625,0.8075 z"/><path fill="#ffd90f" d="m 19.894375,14.798625 h -0.6025 l -1.175,-2.05 v 2.05 h -0.60375 v -3.115 h 0.60375 l 1.17625,2.05375 v -2.05375 h 0.60125 z"/><path fill="#ffd90f" d="M 24.07475,12.203375 H 23.1785 v 2.595 h -0.605 v -2.595 h -0.88375 v -0.52 h 2.385 z"/><path fill="#ffd90f" d="m 26.442875,13.637125 h 0.7325 l -0.36875,-1.16625 z m 0.895,0.52 h -1.0575 l -0.20125,0.64125 h -0.64125 l 1.08875,-3.11375 h 0.56 l 1.09625,3.11375 h -0.64125 z"/><path fill="#ffd90f" d="m 32.345,14.798625 h -0.60375 l -1.175,-2.05 v 2.05 h -0.6025 v -3.115 h 0.6025 l 1.1775,2.05375 v -2.05375 H 32.345 Z"/><path fill="#ffd90f" d="m 35.172125,13.637125 h 0.7325 l -0.36875,-1.16625 z m 0.895,0.52 h -1.0575 l -0.20125,0.64125 h -0.64125 l 1.08875,-3.11375 h 0.56 l 1.09625,3.11375 h -0.64125 z"/><path fill="#ffd90f" d="m 30.66525,25.35275 c 0,4.50875 -3.65625,8.165 -8.165,8.165 -4.51,0 -8.165,-3.65625 -8.165,-8.165 0,-4.50875 3.655,-8.165 8.165,-8.165 4.50875,0 8.165,3.65625 8.165,8.165"/><path fill="#a2d100" d="m 15.139125,28.14825 2.79,3.615 c 1.28875,0.92 2.86625,1.4625 4.57125,1.4625 2.73,0 5.13625,-1.39125 6.5475,-3.5025 l -3.62875,-2.84375 -3.32375,-1.255 -3.66125,-0.41125 -3.805,-0.0013 c -0.0013,0.0475 -0.0013,0.095 -0.0013,0.14125 0,0.985 0.18,1.9275 0.51125,2.795"/><path fill="#e86f00" d="m 17.92975,31.76275 c -1.25375,-0.895 -2.235,-2.1525 -2.79125,-3.615 l 3.1625,0.505 0.57375,0.67875 1.33125,0.13875 0.65375,1.40875 z"/><path fill="#1691ff" d="m 30.367375,25.6275 c -0.0525,1.5125 -0.53125,2.9175 -1.32,4.095 l -1.1575,-0.12625 -0.57,-0.68625 -1.185,-0.45125 -0.71625,-1.57875 -2.0775,-0.58875 -1.24625,-0.66625 z"/><path fill="#a8efff" d="m 30.288125,24.19675 h -9.21875 l 1.02625,1.42875 8.27125,0.0025 c 0.0025,-0.0925 0.005,-0.1825 0.005,-0.275 0,-0.3925 -0.02875,-0.77875 -0.08375,-1.15625"/><path fill="#e8d9a8" d="m 26.507625,22.3895 -0.92125,0.18625 -1.56875,0.45125 -2.56,0.3525 3.13875,-0.1075 3.1175,-0.3825 z"/><path fill="#a81800" d="m 30.288125,24.19675 h -9.21875 l -0.33375,-0.465 0.7225,-0.35125 3.1375,-0.10875 -0.57875,-0.245 1.56875,-0.45125 2.1275,0.31375 -1.205,-0.5 1.45875,-0.46375 1.45125,-0.3325 c 0.4325,0.79625 0.73375,1.6725 0.87,2.60375"/><path fill="#e8d9a8" d="m 14.628875,25.212375 3.805,0.0013 3.66125,0.41125 -2.47,-3.44125 -0.765,0.56875 -1.17625,-1.725 -0.80375,0.95125 -0.9125,-1.02125 c -0.82125,1.21875 -1.31125,2.68125 -1.33875,4.255"/><path fill="#ffffff" d="m 18.652375,20.40225 0.59375,1.58 0.38875,-0.2275 -0.5825,-1.52875 z"/><path fill="#ffffff" d="m 19.43175,19.939625 0.45125,-0.13125 0.39,1.8025 -0.40125,0.125 z"/><path fill="#ffffff" d="m 20.531,19.679625 -0.06375,1.955 0.35875,0.12 0.1175,-2.04 z"/><path fill="#ffffff" d="m 21.886625,20.433375 0.205,0.37375 -1.0425,1.345 -0.12875,-0.3 z"/><path fill="#ffffff" d="M 22.5665,21.4905 22.574,21.918 21.21275,22.59425 21.15025,22.318 Z"/><path fill="#ffffff" d="m 22.5745,22.341875 0.02375,0.35 -1.36625,0.36625 v -0.2925 z"/><path fill="#a89982" d="m 24.786375,29.316375 h -2.51375 l 0.705,-1.08875 h 1.80875 z"/><path fill="#354600" d="m 25.493125,25.91925 0.54375,0.735 -1.83875,1.57375 h -1.22 l -0.2975,0.45875 h -3.2175 V 27.8455 h 3.735 z"/><path fill="#008600" d="m 16.71325,25.527375 c 0,0.33625 -0.2575,0.6075 -0.57375,0.6075 -0.31625,0 -0.5725,-0.27125 -0.5725,-0.6075 0,-0.33625 0.25625,-0.6075 0.5725,-0.6075 0.31625,0 0.57375,0.27125 0.57375,0.6075"/><path fill="#008600" d="m 16.71325,26.9775 c 0,0.215 -0.14375,0.38875 -0.32125,0.38875 -0.1775,0 -0.32125,-0.17375 -0.32125,-0.38875 0,-0.21375 0.14375,-0.3875 0.32125,-0.3875 0.1775,0 0.32125,0.17375 0.32125,0.3875"/><path fill="#008600" d="m 17.287,25.93875 c 0,0.2275 -0.11375,0.41125 -0.2525,0.41125 -0.13875,0 -0.2525,-0.18375 -0.2525,-0.41125 0,-0.2275 0.11375,-0.41125 0.2525,-0.41125 0.13875,0 0.2525,0.18375 0.2525,0.41125"/><path fill="#008600" d="m 18.041375,25.950875 c 0,0.22125 -0.12875,0.39875 -0.28625,0.39875 -0.15875,0 -0.28625,-0.1775 -0.28625,-0.39875 0,-0.22125 0.1275,-0.39875 0.28625,-0.39875 0.1575,0 0.28625,0.1775 0.28625,0.39875"/><path fill="#008600" d="m 17.674,27.034875 c 0,0.19875 -0.11625,0.36 -0.26,0.36 -0.14375,0 -0.26,-0.16125 -0.26,-0.36 0,-0.19875 0.11625,-0.36125 0.26,-0.36125 0.14375,0 0.26,0.1625 0.26,0.36125"/><path fill="#008600" d="m 18.492375,27.0545 c 0,0.16625 -0.12,0.30125 -0.26625,0.30125 -0.14875,0 -0.2675,-0.135 -0.2675,-0.30125 0,-0.1675 0.11875,-0.30125 0.2675,-0.30125 0.14625,0 0.26625,0.13375 0.26625,0.30125"/><path fill="#008600" d="m 18.728,25.921625 c 0,0.2175 -0.105,0.39375 -0.235,0.39375 -0.13,0 -0.235,-0.17625 -0.235,-0.39375 0,-0.21875 0.105,-0.39375 0.235,-0.39375 0.13,0 0.235,0.175 0.235,0.39375"/><path fill="#008600" d="m 19.6985,25.515125 c 0,0.3525 -0.20375,0.64 -0.45625,0.64 -0.25125,0 -0.455,-0.2875 -0.455,-0.64 0,-0.35375 0.20375,-0.64 0.455,-0.64 0.2525,0 0.45625,0.28625 0.45625,0.64"/><path fill="#008600" d="m 20.87525,25.546875 c 0,0.33625 -0.22625,0.6075 -0.505,0.6075 -0.27875,0 -0.505,-0.27125 -0.505,-0.6075 0,-0.33625 0.22625,-0.6075 0.505,-0.6075 0.27875,0 0.505,0.27125 0.505,0.6075"/></svg>