<svg xmlns="http://www.w3.org/2000/svg" viewBox="0 0 45 45"><defs><clipPath id="clipPath16" clipPathUnits="userSpaceOnUse"><path d="M5,38.75c-2.761,0-5-2.239-5-5l0-22.5c0-2.761,2.239-5,5-5l35,0c2.761,0,5,2.239,5,5l0,22.5 c0,2.761-2.239,5-5,5L5,38.75z"/></clipPath></defs><g clip-path="url(#clipPath16)"><path fill="#eeeeee" d="m 0,38.74875 h 22.5 v -16.25 H 0 Z"/><path fill="#981e32" d="M 11.25,30.62375 H 22.5 v -8.125 H 11.25 Z M 0,38.74875 h 11.25 v -8.125 H 0 Z"/><path fill="#981e32" d="m 11.25,37.611125 c 0.53,0 0.96,-0.465 0.96,-1.04 v -0.52 h 0.93 c 0.53,0 0.96,-0.465 0.96,-1.03875 0,-0.575 -0.43,-1.04 -0.96,-1.04 h -0.93 v -2.30875 h 5.97 v 1.00875 c 0,0.57375 0.43,1.04 0.96,1.04 0.53,0 0.96,-0.46625 0.96,-1.04 v -1.00875 h 0.84 c 0.53,0 0.96,-0.465 0.96,-1.04 H 11.25 Z"/><path fill="#eeeeee" d="m 11.25,37.611125 c -0.53,0 -0.96,-0.465 -0.96,-1.04 v -0.52 H 9.36 c -0.53,0 -0.96,-0.465 -0.96,-1.03875 0,-0.575 0.43,-1.04 0.96,-1.04 h 0.93 v -2.30875 H 4.32 v 1.00875 c 0,0.57375 -0.43,1.04 -0.96,1.04 -0.53,0 -0.96,-0.46625 -0.96,-1.04 v -1.00875 H 1.56 c -0.53,0 -0.96,-0.465 -0.96,-1.04 h 10.65 z"/><path fill="#eeeeee" d="m 11.25,23.6365 c 0.53,0 0.96,0.46625 0.96,1.04 v 0.52 h 0.93 c 0.53,0 0.96,0.46625 0.96,1.04 0,0.575 -0.43,1.04 -0.96,1.04 h -0.93 v 2.3075 h 5.97 v -1.0075 c 0,-0.57375 0.43,-1.04 0.96,-1.04 0.53,0 0.96,0.46625 0.96,1.04 v 1.0075 h 0.84 c 0.53,0 0.96,0.46625 0.96,1.04 H 11.25 Z"/><path fill="#981e32" d="m 11.25,23.6365 c -0.53,0 -0.96,0.46625 -0.96,1.04 v 0.52 H 9.36 c -0.53,0 -0.96,0.46625 -0.96,1.04 0,0.575 0.43,1.04 0.96,1.04 h 0.93 V 29.584 H 4.32 v -1.0075 c 0,-0.57375 -0.43,-1.04 -0.96,-1.04 -0.53,0 -0.96,0.46625 -0.96,1.04 V 29.584 H 1.56 c -0.53,0 -0.96,0.46625 -0.96,1.04 h 10.65 z"/><path fill="#141414" d="M 22.5,22.5 H 45 V 38.75 H 22.5 Z"/><path fill="#eaab00" d="M 22.5,38.74875 V 25.2075 l 3.75,2.70875 v 10.8325 H 30 v -16.25 h 3.75 v 16.25 h 3.75 v -16.25 h 3.75 v 16.25 H 45 v -2.7075 L 26.25,22.49875 v 5.4175 l 15,10.8325 z"/><path fill="#eeeeee" d="M 22.5,6.25 H 45 V 22.5 H 22.5 Z"/><path fill="#981e32" d="M 33.75,6.25 H 45 v 8.125 H 22.5 V 22.5 h 11.25 z"/><path fill="#981e32" d="m 33.75,21.36225 c 0.53,0 0.96,-0.46625 0.96,-1.04 v -0.52 h 0.93 c 0.53125,0 0.96,-0.46625 0.96,-1.04 0,-0.575 -0.42875,-1.04 -0.96,-1.04 h -0.93 v -2.3075 h 5.97 v 1.0075 c 0,0.57375 0.43,1.04 0.96,1.04 0.53,0 0.96,-0.46625 0.96,-1.04 v -1.0075 h 0.84 c 0.53,0 0.96,-0.465 0.96,-1.04 H 33.75 Z"/><path fill="#eeeeee" d="m 33.75,21.36225 c -0.53,0 -0.96,-0.46625 -0.96,-1.04 v -0.52 h -0.93 c -0.53125,0 -0.96,-0.46625 -0.96,-1.04 0,-0.575 0.42875,-1.04 0.96,-1.04 h 0.93 v -2.3075 h -5.97 v 1.0075 c 0,0.57375 -0.43,1.04 -0.96,1.04 -0.53,0 -0.96,-0.46625 -0.96,-1.04 v -1.0075 h -0.84 c -0.53,0 -0.96,-0.465 -0.96,-1.04 h 10.65 z"/><path fill="#eeeeee" d="m 33.75,7.38775 c 0.53,0 0.96,0.465 0.96,1.04 v 0.52 h 0.93 c 0.53125,0 0.96,0.465 0.96,1.04 0,0.57375 -0.42875,1.04 -0.96,1.04 h -0.93 v 2.3075 h 5.97 v -1.0075 c 0,-0.575 0.43,-1.04 0.96,-1.04 0.53,0 0.96,0.465 0.96,1.04 v 1.0075 h 0.84 c 0.53,0 0.96,0.465 0.96,1.04 H 33.75 Z"/><path fill="#981e32" d="m 33.75,7.38775 c -0.53,0 -0.96,0.465 -0.96,1.04 v 0.52 h -0.93 c -0.53125,0 -0.96,0.465 -0.96,1.04 0,0.57375 0.42875,1.04 0.96,1.04 h 0.93 v 2.3075 h -5.97 v -1.0075 c 0,-0.575 -0.43,-1.04 -0.96,-1.04 -0.53,0 -0.96,0.465 -0.96,1.04 v 1.0075 h -0.84 c -0.53,0 -0.96,0.465 -0.96,1.04 h 10.65 z"/><path fill="#141414" d="M 0,6.25 H 22.5 V 22.5 H 0 Z"/><path fill="#eaab00" d="M 0,22.499375 V 8.958125 l 3.75,2.7075 v 10.83375 H 7.5 v -16.25 h 3.75 v 16.25 H 15 v -16.25 h 3.75 v 16.25 h 3.75 v -2.70875 L 3.75,6.249375 v 5.41625 l 15,10.83375 z"/></g></svg>