<svg xmlns="http://www.w3.org/2000/svg" viewBox="0 0 45 45"><path fill="#76a1a0" d="m 45,33.75 c 0,2.76125 -2.23875,5 -5,5 H 5 c -2.76125,0 -5,-2.23875 -5,-5 v -22.5 c 0,-2.76125 2.23875,-5 5,-5 h 35 c 2.76125,0 5,2.23875 5,5 z"/><path fill="#f0dc82" d="m 5.111125,22.500625 17.38875,10.925 17.38875,-10.925 -17.38875,-10.925 z"/><path fill="#ffffff" d="m 12.07825,35.474875 v 0.8325 h 0.1925 c 0.07875,0 0.14125,-0.0275 0.19,-0.0825 0.04875,-0.055 0.0725,-0.12625 0.0725,-0.2125 v -0.24375 c 0,-0.085 -0.02375,-0.15625 -0.0725,-0.21125 -0.04875,-0.055 -0.11125,-0.0825 -0.19,-0.0825 z m 0.1925,-0.2575 c 0.17375,0 0.31625,0.05125 0.43125,0.155 0.1125,0.1025 0.16875,0.235 0.16875,0.3975 v 0.2425 c 0,0.16375 -0.05625,0.295 -0.16875,0.3975 -0.115,0.1025 -0.2575,0.15375 -0.43125,0.15375 h -0.71 v -0.2025 l 0.18125,-0.03375 v -0.8725 l -0.18125,-0.03375 v -0.20375 H 11.742 Z"/><path fill="#ffffff" d="m 13.205,36.56375 v -0.2025 L 13.38625,36.3275 V 35.455 L 13.205,35.42125 V 35.2175 h 0.18125 0.985 v 0.41125 H 14.1125 L 14.09875,35.475 H 13.7225 v 0.295 h 0.53 v 0.215 h -0.53 v 0.3225 H 14.1 l 0.01375,-0.15375 h 0.2575 v 0.41 z"/><path fill="#ffffff" d="m 15.905125,36.10475 0.0025,0.0075 c -0.005,0.15375 -0.05625,0.27125 -0.1525,0.35125 -0.09625,0.08 -0.22875,0.12 -0.39375,0.12 -0.17625,0 -0.3175,-0.05375 -0.425,-0.16125 -0.1075,-0.10625 -0.16125,-0.25 -0.16125,-0.4325 v -0.19 c 0,-0.1825 0.05375,-0.32875 0.16125,-0.4375 0.1075,-0.11 0.24875,-0.16375 0.425,-0.16375 0.1675,0 0.3,0.04125 0.39625,0.12 0.09625,0.08125 0.1475,0.19625 0.1525,0.34875 l -0.0025,0.0075 h -0.32625 c -0.01,-0.07375 -0.03125,-0.12875 -0.06625,-0.165 -0.035,-0.035 -0.08625,-0.05375 -0.15375,-0.05375 -0.08125,0 -0.1425,0.03125 -0.18625,0.0925 -0.0425,0.06125 -0.065,0.145 -0.065,0.25 v 0.19125 c 0,0.10375 0.0225,0.18625 0.06625,0.24625 0.0425,0.06 0.105,0.09125 0.185,0.09125 0.07375,0 0.125,-0.0175 0.15625,-0.05 0.0325,-0.035 0.05125,-0.0925 0.06125,-0.1725 z"/><path fill="#ffffff" d="m 16.22625,36.56375 v -0.2025 L 16.4075,36.3275 V 35.455 L 16.22625,35.42125 V 35.2175 h 0.18125 0.985 v 0.41125 H 17.13375 L 17.12,35.475 h -0.37625 v 0.295 h 0.53 v 0.215 h -0.53 v 0.3225 h 0.3775 L 17.135,36.15375 h 0.2575 v 0.41 z"/><path fill="#ffffff" d="m 18.676125,36.169375 h 0.0075 l 0.30375,-0.9525 h 0.44 0.17875 v 0.20375 l -0.17875,0.035 v 0.87125 l 0.17875,0.03375 v 0.2025 h -0.65125 v -0.2025 l 0.135,-0.03375 v -0.5975 l -0.0062,-0.0012 -0.29,0.835 h -0.2275 l -0.2825,-0.81625 -0.0063,0.0012 v 0.57875 l 0.135,0.03375 v 0.2025 h -0.6525 v -0.2025 l 0.18,-0.03375 v -0.87125 l -0.18,-0.035 v -0.20375 h 0.18 0.435 z"/><path fill="#ffffff" d="m 20.393625,35.99125 v 0.31625 h 0.28 c 0.06125,0 0.1075,-0.0125 0.13375,-0.03625 0.02875,-0.025 0.04125,-0.06125 0.04125,-0.11125 0,-0.05625 -0.0125,-0.0975 -0.04125,-0.12625 -0.02625,-0.0275 -0.0725,-0.0425 -0.13375,-0.0425 z m 0,-0.215 h 0.2 c 0.0625,0 0.11125,-0.0125 0.1425,-0.03625 0.03375,-0.025 0.04875,-0.05875 0.04875,-0.105 0,-0.05375 -0.015,-0.09125 -0.04625,-0.115 -0.03125,-0.02375 -0.08,-0.035 -0.145,-0.035 h -0.2 z m 0.2,-0.55875 c 0.16625,0 0.295,0.03125 0.38875,0.09375 0.0925,0.06375 0.13875,0.155 0.13875,0.27875 0,0.0625 -0.02,0.12 -0.06,0.17 -0.04,0.05 -0.09625,0.08875 -0.17125,0.115 0.0975,0.01875 0.17,0.055 0.22,0.11125 0.05,0.055 0.07625,0.12125 0.07625,0.19625 0,0.125 -0.045,0.22 -0.13375,0.285 -0.0875,0.065 -0.215,0.09625 -0.37875,0.09625 h -0.79625 v -0.2025 l 0.17875,-0.03375 V 35.455 l -0.17875,-0.03375 V 35.2175 h 0.17875 z"/><path fill="#ffffff" d="m 21.485,36.56375 v -0.2025 L 21.66625,36.3275 V 35.455 L 21.485,35.42125 V 35.2175 h 0.18125 0.985 v 0.41125 H 22.3925 L 22.37875,35.475 H 22.0025 v 0.295 h 0.53 v 0.215 h -0.53 v 0.3225 H 22.38 l 0.01375,-0.15375 h 0.2575 v 0.41 z"/><path fill="#ffffff" d="m 23.492375,35.8215 h 0.19625 c 0.065,0 0.11625,-0.015 0.15125,-0.04625 0.03625,-0.03125 0.0525,-0.0725 0.0525,-0.12625 0,-0.05 -0.0175,-0.09125 -0.05375,-0.12375 -0.03625,-0.03375 -0.08625,-0.05 -0.15,-0.05 h -0.19625 z m 0.19625,-0.60375 c 0.165,0 0.2975,0.03625 0.39625,0.10875 0.0975,0.07375 0.1475,0.1725 0.1475,0.29875 0,0.07375 -0.02125,0.1375 -0.06125,0.19125 -0.03875,0.055 -0.0975,0.0975 -0.175,0.13125 0.0825,0.02375 0.1425,0.0625 0.17875,0.1175 0.03625,0.05625 0.055,0.12375 0.055,0.20375 v 0.0725 l 0.105,0.02 v 0.2025 h -0.37 c -0.03,-0.015 -0.05,-0.04125 -0.05875,-0.0825 -0.0087,-0.04 -0.01375,-0.07875 -0.01375,-0.1175 v -0.09375 c 0,-0.06125 -0.015,-0.10875 -0.04875,-0.14125 -0.03375,-0.0325 -0.08125,-0.04875 -0.145,-0.04875 h -0.20625 v 0.24625 l 0.17875,0.035 v 0.2025 h -0.68875 v -0.2025 l 0.17125,-0.035 v -0.87125 l -0.17125,-0.03375 v -0.20375 h 0.17125 z"/><path fill="#ffffff" d="m 26.525875,35.640875 c -0.18125,0.21125 -0.30375,0.40875 -0.37,0.59125 -0.06625,0.1825 -0.1125,0.4025 -0.14125,0.66125 l -0.01625,0.17125 h -0.3375 l 0.01625,-0.17125 c 0.02625,-0.2475 0.0825,-0.475 0.16875,-0.68125 0.08625,-0.2075 0.205,-0.3975 0.355,-0.57125 h -0.5925 l -0.01375,0.1675 h -0.25875 v -0.4275 h 1.19 z"/><path fill="#ffffff" d="m 27.17525,36.5185 c 0,0.0775 -0.0225,0.1625 -0.0675,0.25 -0.04375,0.08875 -0.0975,0.16 -0.1625,0.21625 l -0.165,-0.09 c 0.03,-0.05375 0.0525,-0.11 0.06875,-0.1675 0.01625,-0.0575 0.025,-0.1225 0.025,-0.1925 V 36.2835 h 0.3025 z"/><path fill="#ffffff" d="m 28.258,36.361125 0.28375,-0.03375 v -1.14 h -0.2875 v -0.19375 l 0.62375,-0.11375 v 1.4475 l 0.285,0.03375 v 0.2025 h -0.905 z"/><path fill="#ffffff" d="m 30.6275,35.640875 c -0.18125,0.21125 -0.30375,0.40875 -0.37,0.59125 -0.06625,0.1825 -0.1125,0.4025 -0.14125,0.66125 L 30.1,37.064625 h -0.3375 l 0.01625,-0.17125 c 0.02625,-0.2475 0.0825,-0.475 0.16875,-0.68125 0.08625,-0.2075 0.205,-0.3975 0.355,-0.57125 H 29.71 l -0.01375,0.1675 H 29.4375 v -0.4275 h 1.19 z"/><path fill="#ffffff" d="m 31.663875,35.34175 c 0,-0.0675 -0.01875,-0.1225 -0.05375,-0.16375 -0.035,-0.04125 -0.08375,-0.06125 -0.145,-0.06125 -0.06125,0 -0.11,0.02 -0.14375,0.06 -0.035,0.04 -0.05125,0.095 -0.05125,0.165 0,0.07125 0.01625,0.12625 0.0525,0.1675 0.03375,0.04125 0.0825,0.0625 0.145,0.0625 0.06125,0 0.10875,-0.02125 0.14375,-0.0625 0.035,-0.04125 0.0525,-0.09625 0.0525,-0.1675 m 0.03875,0.73875 c 0,-0.07625 -0.02125,-0.13625 -0.065,-0.18125 -0.04625,-0.04625 -0.1025,-0.0675 -0.1725,-0.0675 -0.07,0 -0.1275,0.02125 -0.17,0.0675 -0.0425,0.045 -0.065,0.105 -0.065,0.18125 0,0.07625 0.0225,0.1375 0.065,0.18125 0.0425,0.045 0.1,0.0675 0.1725,0.0675 0.06875,0 0.12625,-0.02375 0.17,-0.0675 0.04375,-0.045 0.065,-0.105 0.065,-0.18125 m 0.29875,-0.75375 c 0,0.085 -0.0225,0.15875 -0.06625,0.22375 -0.045,0.065 -0.10625,0.115 -0.185,0.15125 0.09,0.0375 0.16,0.09125 0.21125,0.16125 0.0525,0.07125 0.07875,0.15 0.07875,0.24 0,0.15625 -0.05375,0.27625 -0.15875,0.35875 -0.10625,0.085 -0.24375,0.12625 -0.41375,0.12625 -0.17125,0 -0.31,-0.04125 -0.415,-0.12625 -0.10625,-0.0825 -0.16,-0.2025 -0.16,-0.35875 0,-0.09 0.025,-0.17 0.07625,-0.24 0.05125,-0.07 0.1225,-0.12375 0.21125,-0.16125 -0.0775,-0.03625 -0.13875,-0.08625 -0.1825,-0.15125 -0.04375,-0.065 -0.06625,-0.13875 -0.06625,-0.22375 0,-0.15 0.04875,-0.265 0.14625,-0.3475 0.0975,-0.08125 0.2275,-0.1225 0.3875,-0.1225 0.16,0 0.28875,0.04125 0.3875,0.1225 0.09875,0.0825 0.14875,0.1975 0.14875,0.3475"/><path fill="#ffffff" d="m 33.503375,35.640875 c -0.18125,0.21125 -0.30375,0.40875 -0.37,0.59125 -0.06625,0.1825 -0.1125,0.4025 -0.14125,0.66125 l -0.01625,0.17125 h -0.3375 l 0.01625,-0.17125 c 0.02625,-0.2475 0.0825,-0.475 0.16875,-0.68125 0.08625,-0.2075 0.205,-0.3975 0.355,-0.57125 h -0.5925 l -0.01375,0.1675 h -0.25875 v -0.4275 h 1.19 z"/><path fill="#ffffff" d="m 28.920875,27.2095 c 0,0 -0.115,0.38125 0.0475,0.665 0.16125,0.285 0.22,0.30375 0.18125,0.55875 -0.04,0.25625 -0.15125,0.35375 -0.15125,0.35375 0,0 0.01375,-0.23125 -0.295,-0.3975 -0.30875,-0.16625 -0.3575,-0.21625 -0.3575,-0.21625 0,0 -0.0825,0.20875 -0.33375,0.32875 -0.3375,0.1625 -0.46625,0.34375 -0.46625,0.34375 0,0 -0.2375,-0.28625 0.045,-0.69625 0.3275,-0.475 0.07875,-0.685 0.07875,-0.685 l 0.28375,-0.18375 z"/><path fill="#ffffff" d="m 16.079125,27.2095 c 0,0 0.115,0.38125 -0.0475,0.665 -0.16125,0.285 -0.22,0.30375 -0.18125,0.55875 0.04,0.25625 0.15125,0.35375 0.15125,0.35375 0,0 -0.01375,-0.23125 0.295,-0.3975 0.30875,-0.16625 0.3575,-0.21625 0.3575,-0.21625 0,0 0.0825,0.20875 0.33375,0.32875 0.33875,0.1625 0.46625,0.34375 0.46625,0.34375 0,0 0.23875,-0.28625 -0.045,-0.69625 -0.32875,-0.475 -0.07875,-0.685 -0.07875,-0.685 l -0.28375,-0.18375 z"/><path fill="#edc620" d="m 22.536625,26.643125 c 0.3575,0 0.62125,-0.35625 0.94875,-0.6575 0.2225,-0.20375 0.45625,-0.11 0.515,-0.225 0.05875,-0.11375 -0.13,-0.31625 -0.13,-0.31625 0,0 0.15875,-0.0075 0.515,-0.11375 0.3575,-0.10625 0.54125,-0.01125 0.54125,-0.01125 l 0.05125,0.125 c 0,0 0.34125,0.0025 0.4525,-0.0575 0.315,-0.17 0.11,-0.4825 0.11,-0.4825 0,0 0.1475,0.01125 0.295,-0.085 0.14625,-0.095 0.31625,-0.36 0.31625,-0.36 l -0.32375,-0.08125 c 0,0 0.51,-0.105 0.64625,-0.55875 0.155,-0.5175 -0.15875,-0.4325 -0.15875,-0.4325 0,0 0.02625,-0.34625 -0.025,-0.61125 -0.05125,-0.265 -0.24625,-0.08875 -0.24625,-0.08875 0,0 -0.0075,-0.19375 -0.125,-0.3375 -0.1175,-0.14375 -0.28,-0.18 -0.28,-0.18 0,0 0.1625,-0.2875 -0.07625,-0.44875 -0.24,-0.16125 -0.335,0 -0.335,0 l -0.0475,-0.4675 c 0,0 0.22,0.14 0.305,-0.12125 0.10625,-0.3275 -0.1625,-0.4775 -0.1625,-0.4775 0,0 0.6775,-0.6025 0.17,-1.64625 -0.635,-1.305 -1.69125,-0.72125 -1.69125,-0.72125 0,0 -0.5,-0.6025 -1.30125,-0.6025 -0.80125,0 -1.30125,0.6025 -1.30125,0.6025 0,0 -1.0575,-0.58375 -1.69125,0.72125 -0.5075,1.04375 0.16875,1.64625 0.16875,1.64625 0,0 -0.2675,0.15 -0.16125,0.4775 0.08375,0.26125 0.305,0.12125 0.305,0.12125 l -0.0475,0.4675 c 0,0 -0.09625,-0.16125 -0.335,0 -0.23875,0.16125 -0.0775,0.44875 -0.0775,0.44875 0,0 -0.16125,0.03625 -0.28,0.18 -0.1175,0.14375 -0.125,0.3375 -0.125,0.3375 0,0 -0.195,-0.17625 -0.24625,0.08875 -0.05125,0.265 -0.025,0.61125 -0.025,0.61125 0,0 -0.31375,-0.085 -0.1575,0.4325 0.135,0.45375 0.64625,0.55875 0.64625,0.55875 l -0.32375,0.08125 c 0,0 0.17,0.265 0.31625,0.36 0.1475,0.09625 0.295,0.085 0.295,0.085 0,0 -0.20625,0.3125 0.10875,0.4825 0.1125,0.06 0.4525,0.0575 0.4525,0.0575 l 0.05125,-0.125 c 0,0 0.185,-0.095 0.54125,0.01125 0.35625,0.10625 0.945,0.1775 0.945,0.1775 l 0.25375,0.37125 c 0,0 0.16125,-0.16875 0.34875,-0.15 0.18875,0.0175 0.20125,0.2025 0.20125,0.2025 0,0 -0.43625,-0.2625 -0.48375,0.1375 -0.04375,0.365 0.39,0.57375 0.6575,0.57375"/><path fill="#3f863f" d="m 24.895,24.440875 c -0.58375,0.48 -1.46875,0.68375 -1.46875,0.68375 l -0.1625,-0.31625 -0.19,0.25 -0.17625,-0.3525 -0.185,0.33125 -0.2125,-0.35375 -0.2125,0.35375 -0.185,-0.33125 -0.17625,0.3525 -0.19125,-0.25 -0.16125,0.31625 c 0,0 -0.88625,-0.20375 -1.47,-0.685 z"/><path fill="#ffffff" d="m 24.895,24.440875 c 0.0725,-0.05875 0.14,-0.12375 0.2,-0.19 0.5525,-0.6175 0.31625,-1.32375 0.31625,-1.32375 0,0 -0.455,0.26375 -0.64625,-0.09625 -0.2725,-0.51375 0.22,-0.655 0.22,-0.655 h -4.97 c 0,0 0.4925,0.14125 0.22,0.655 -0.19125,0.36 -0.6475,0.09625 -0.6475,0.09625 0,0 -0.235,0.70625 0.31625,1.32375 0.06125,0.06625 0.1275,0.13 0.2,0.18875 z"/><path fill="#006fff" d="m 20.014625,22.1765 c 0,0 0.3525,-0.18375 0.3825,-0.67625 0.03625,-0.60375 -0.17625,-0.765 -0.17625,-0.765 h 4.55875 c 0,0 -0.2125,0.16125 -0.17625,0.765 0.02875,0.4925 0.3825,0.67625 0.3825,0.67625 z"/><path fill="#eda229" d="m 20.220375,20.7355 c 0,0 0.28625,-0.19875 0.16875,-0.44875 -0.14375,-0.30625 -0.4475,-0.205 -0.4475,-0.205 0,0 -0.16875,-0.44125 0.18375,-0.95 0.3525,-0.50625 0.66125,-0.50625 0.66125,-0.50625 0,0 -0.04375,0.20625 0.14,0.3525 0.18375,0.14625 0.46375,-0.08875 0.46375,-0.08875 0,0 0.6025,0.55125 1.11,0.55125 0.50625,0 1.11,-0.55125 1.11,-0.55125 0,0 0.27875,0.235 0.46375,0.08875 0.18375,-0.14625 0.13875,-0.3525 0.13875,-0.3525 0,0 0.30875,0 0.6625,0.50625 0.3525,0.50875 0.18375,0.95 0.18375,0.95 0,0 -0.305,-0.10125 -0.44875,0.205 -0.11875,0.25 0.16875,0.44875 0.16875,0.44875 z"/><path fill="#006fff" d="m 24.559375,17.066 h -4.36125 l 0.2175,0.4675 h 4.4 z"/><path fill="#3c2e2e" d="m 21.228,16.3825 h 2.65375 l -0.08,0.29375 H 21.7055 Z"/><path fill="#ffffff" d="m 21.228,16.3825 0.1325,-0.20625 1.43875,0.0275 L 23.9655,16.275 23.80175,15.5 23.448,15.66875 23.4605,14.42375 22.968,14.4 22.8305,15.345 22.783,14.28625 22.31675,14.27 22.178,15.24625 22.1605,14.1625 l -0.48875,-0.01375 -0.1275,0.81375 -0.9425,1.11125 z"/><path fill="#ffffff" d="M 21.886625,13.83175 V 13.963 l -0.3575,-0.155 z"/><path fill="#ffffff" d="M 22.57075,13.83175 V 13.963 l -0.3575,-0.155 z"/><path fill="#ffffff" d="m 23.20675,14.111375 v 0.13125 l -0.3575,-0.155 z"/><path fill="#863f3f" d="m 17.356625,26.261 0.19,0.835 -1.8825,-0.11875 v -0.44 l 0.815,-0.45625 z"/><path fill="#863f3f" d="m 18.017,26.3745 -0.0775,0.505 h 1.215 V 26.58825 L 18.72325,26.3745 Z"/><path fill="#4f3636" d="m 17.485375,26.286625 -0.39,-2.44125 0.35375,-1.03625 0.47,3.565 h 0.875 l -0.17625,-2.5875 0.28625,-2.55125 -0.47,-0.6475 -1.96375,0.18375 -0.515,2.8975 0.4125,2.38875 z"/><path fill="#a8393a" d="m 18.904375,21.235375 1.005,-0.9725 -1.20625,-2.57875 -0.95,-0.275 -0.3225,0.47 -0.4925,-0.54875 -0.8525,0.48125 -0.265,1.29375 -0.18625,-0.40125 -0.245,0.225 -0.255,-0.5 -0.17625,0.275 0.54875,1.53875 0.70625,0.04875 0.2575,0.48 1.96375,-0.18375 z"/><path fill="#ffe2d1" d="m 15.63475,18.703625 0.18125,-0.1225 0.155,-0.69125 -0.46375,-0.1025 -0.3725,0.64125 0.255,0.5 z"/><path fill="#ffe2d1" d="m 16.9385,17.330875 -0.3425,-0.55125 0.3425,-0.3675 0.84125,-0.18375 0.32375,0.55125 -0.10375,0.70125 -0.2475,-0.0725 -0.32125,0.47125 z"/><path fill="#3c2e2e" d="m 17.959625,16.534375 0.48875,-0.21125 -0.1175,-0.30125 -0.37125,0.04375 -0.22375,-0.39625 -1.33125,0.3625 0.0725,0.34375 -0.455,0.235 0.1275,0.26 0.44625,-0.09125 0.3425,-0.3675 0.84125,-0.18375 z"/><path fill="#3c2e2e" d="m 16.134625,17.482875 -1.3825,0.25 -0.0925,-0.56875 0.27875,-0.29375 0.3925,0.0975 0.31875,-0.24 0.3725,0.21 z"/><path fill="#e2c89a" d="m 28.778125,24.472625 -0.11875,1.84375 0.77875,0.495 -0.3275,0.39625 h -1.22125 l -0.06375,-2.5725 0.1025,-0.23125 0.37375,0.1675 z"/><path fill="#e2c89a" d="m 27.48775,24.32125 -0.1475,2.72125 H 26.659 l 0.11875,-1.26 -0.21625,-1.33875 0.55375,0.0825 z"/><path fill="#3f863f" d="m 28.778125,21.3855 0.405,1.15125 -0.3725,0.08875 0.13375,0.98 -0.16625,0.8675 -0.47625,0.09875 -0.37375,-0.1675 -0.22375,-1.255 -0.21625,1.1725 -0.3725,0.205 -0.55375,-0.08375 -0.1975,-1.77375 -0.26375,-0.21625 0.44625,-1.54375 0.41125,0.02 0.29375,-0.25 0.6425,0.1175 0.245,0.71625 z"/><path fill="#e2c89a" d="m 28.689,20.3455 0.19,1.02 -0.73875,0.1475 -0.24625,-0.71625 -0.64125,-0.1175 0.10375,-0.26 0.49375,0.07875 z"/><path fill="#3f863f" d="m 28.75975,20.7275 0.59125,1.025 0.20625,-0.3475 0.42125,0.02875 -0.68625,-1.4075 0.13625,-1.40625 -0.13625,-0.485 -1.04,-0.53375 -0.53375,0.39625 -0.28875,-0.43125 -0.50625,0.18625 -0.695,0.025 0.04375,0.195 -1.18625,1.59375 0.55875,1 0.775,0.31375 0.1025,-0.67625 L 26.101,19.66 l 0.3025,-0.34375 0.26,0.93375 0.3625,0.0275 0.4075,-0.285 -0.0775,0.42625 0.49375,0.07875 0.83875,-0.1525 z"/><path fill="#ffe2d1" d="m 28.252,17.60075 0.07,-0.3675 0.28875,-0.1275 -0.08375,-0.54875 -0.48,-0.1625 -0.74125,0.05375 v 0.275 l -0.18,0.255 0.14625,0.02 v 0.40125 l 0.18125,0.03375 -0.02375,0.1325 0.28875,0.43125 z"/><path fill="#ffe2d1" d="m 29.978,21.43375 0.2575,0.3525 -0.12875,0.56625 h -0.415 l -0.0375,-0.31625 -0.2525,-0.37125 0.155,-0.26 z"/><path fill="#b8c5b8" d="m 27.434125,19.992625 -0.0775,0.42625 -0.105,0.26 -0.29375,0.25 -0.41125,-0.02 -0.12375,-0.06 0.1,-0.64625 0.14125,0.0475 0.3625,0.0275 z"/><path fill="#edc620" d="m 22.5,27.869875 c 0,0 -0.04375,-0.1025 -0.13,-0.1375 -0.085,-0.035 -0.1025,-0.07375 -0.1025,-0.07375 0,0 -0.24,0.3 -0.45125,0.16125 -0.21125,-0.1375 -0.0775,-0.35875 0.05125,-0.26125 0.12875,0.0975 0.205,-0.0525 0.165,-0.20125 -0.03875,-0.1475 -0.03625,-0.245 -0.03625,-0.245 0,0 0.09875,-0.0087 0.2025,0.09 0.1025,0.09875 0.1725,0.1175 0.1725,0.1175 0,0 0,-0.08875 0.01875,-0.22 0.0175,-0.13375 0.11,-0.195 0.11,-0.195 0,0 0.0925,0.06125 0.11,0.195 0.01875,0.13125 0.01875,0.22 0.01875,0.22 0,0 0.07,-0.01875 0.1725,-0.1175 0.10375,-0.09875 0.2025,-0.09 0.2025,-0.09 0,0 0.0025,0.0975 -0.03625,0.245 -0.04,0.14875 0.03625,0.29875 0.16625,0.20125 0.1275,-0.0975 0.26125,0.12375 0.05,0.26125 -0.21125,0.13875 -0.45125,-0.16125 -0.45125,-0.16125 0,0 -0.0175,0.03875 -0.1025,0.07375 -0.08625,0.035 -0.13,0.1375 -0.13,0.1375"/><path fill="#edc620" d="m 25.233125,26.56125 c 0,0 -0.21375,-0.2925 -0.19875,-0.505 0.015,-0.21125 -0.135,-0.3925 -0.135,-0.3925 0,0 0.15375,-0.09 0.42875,0.1525 0.19125,0.16875 0.09,0.3825 0.2475,0.3025 0.15625,-0.0825 -0.01375,-0.26 -0.01375,-0.26 0,0 -0.04,-0.12625 0.12625,-0.24375 0.1675,-0.1175 0.3825,-0.1125 0.3825,-0.1125 0,0 0.0175,0.11 0.0175,0.15625 0,0.04625 -0.0225,0.07625 -0.07375,0.1525 -0.05125,0.07625 -0.1,0.2275 -0.03875,0.235 0.06125,0.0075 0.05625,-0.06125 0.0825,-0.12 0.0275,-0.05875 0.13125,-0.05875 0.13125,-0.05875 0,0 0.03375,0.0425 -0.01,0.21 -0.04375,0.17 -0.01,0.26 0.04875,0.26 0.05875,0 0.04125,-0.065 0.0825,-0.12125 0.0425,-0.05625 0.14875,-0.08 0.14875,-0.08 0,0 -0.07125,0.2075 0.0325,0.4925 0.07375,0.20625 1.00625,0.2525 1.48625,0.28 1.68,0.0975 1.87125,-0.8125 1.87125,-0.8125 0,0 -0.5325,-0.0425 -0.5325,-0.26875 0,-0.225 0.23875,-0.4525 0.54375,-0.2975 0.86,0.43625 -0.06,1.09875 -0.06,1.09875 0,0 1.05625,0.025 0.77,0.75375 -0.1325,0.335 -0.545,0.265 -0.63625,0.125 -0.14375,-0.22125 0.1,-0.44375 0.1,-0.44375 0,0 -0.0675,-0.03 -0.37625,0.02125 -0.35625,0.0575 -0.995,0.19625 -1.5825,0.19625 -0.99875,0 -1.3975,-0.265 -2.14625,-0.265 -0.52,0 -0.48125,0.4225 -0.48125,0.4225 0,0 -0.24625,-0.0775 -0.25875,-0.28125 -0.0125,-0.205 0.2125,-0.27 0.2125,-0.27 0,0 -0.255,-0.08125 -0.455,0.09 -0.2025,0.1725 -0.10625,0.38875 -0.1625,0.4025 -0.05625,0.015 -0.05375,-0.10375 -0.0975,-0.10375 -0.045,0 -0.08625,0.08 -0.08625,0.08 0,0 -0.145,-0.11625 -0.06625,-0.32375 0.07875,-0.20875 0.2075,-0.2375 0.2075,-0.2375 0,0 -0.47,-0.035 -0.56875,0.33 -0.07,0.265 0.19,0.44625 0.19,0.44625 0,0 -0.1575,0.10125 -0.285,0.03375 -0.12625,-0.06625 -0.16625,-0.29875 -0.16625,-0.29875 0,0 -0.05875,0.01375 -0.08875,0.1575 -0.02875,0.14125 -0.1175,0.19 -0.1175,0.19 0,0 -0.03375,-0.12 -0.13,-0.28375 -0.14125,-0.2425 0.12125,-0.3775 0.12125,-0.3775 0,0 -0.05875,-0.05625 -0.35375,-0.1 -0.29375,-0.045 -0.32875,-0.185 -0.32875,-0.185 0,0 0.1325,0.0075 0.275,-0.095 0.1425,-0.1025 0.32375,0.06875 0.375,0.06875 0.05125,0 0.1025,-0.07375 -0.02125,-0.225 -0.195,-0.235 -0.06,-0.33125 -0.06,-0.33125 0,0 0.135,0.25 0.27875,0.2075 0.14625,-0.04125 -0.03125,-0.1875 0.09625,-0.27125 0.1275,-0.08375 0.14,-0.17875 0.14,-0.17875 0,0 0.08,0.04625 0.12,0.21625 0.04,0.16875 0.08875,0.285 0.38,0.3625 0.135,0.03375 0.24875,0.01625 0.3675,0.03125 0.1375,0.01875 0.2675,0.06875 0.2675,0.06875"/><path fill="#edc620" d="m 19.7675,26.56125 c 0,0 0.2125,-0.2925 0.19875,-0.505 -0.015,-0.21125 0.135,-0.3925 0.135,-0.3925 0,0 -0.155,-0.09 -0.43,0.1525 -0.19125,0.16875 -0.09,0.3825 -0.2475,0.3025 -0.15625,-0.0825 0.015,-0.26 0.015,-0.26 0,0 0.04,-0.12625 -0.1275,-0.24375 -0.16625,-0.1175 -0.3825,-0.1125 -0.3825,-0.1125 0,0 -0.0175,0.11 -0.0175,0.15625 0,0.04625 0.0225,0.07625 0.075,0.1525 0.05125,0.07625 0.1,0.2275 0.03875,0.235 -0.0625,0.0075 -0.0575,-0.06125 -0.08375,-0.12 -0.0275,-0.05875 -0.13,-0.05875 -0.13,-0.05875 0,0 -0.03375,0.0425 0.01,0.21 0.04375,0.17 0.01,0.26 -0.04875,0.26 -0.05875,0 -0.0425,-0.065 -0.08375,-0.12125 -0.04125,-0.05625 -0.1475,-0.08 -0.1475,-0.08 0,0 0.07125,0.2075 -0.0325,0.4925 -0.075,0.20625 -1.00625,0.2525 -1.48625,0.28 -1.68125,0.0975 -1.87125,-0.8125 -1.87125,-0.8125 0,0 0.5325,-0.0425 0.5325,-0.26875 0,-0.225 -0.24,-0.4525 -0.54375,-0.2975 -0.86125,0.43625 0.05875,1.09875 0.05875,1.09875 0,0 -1.055,0.025 -0.76875,0.75375 0.1325,0.335 0.545,0.265 0.63625,0.125 0.14375,-0.22125 -0.1,-0.44375 -0.1,-0.44375 0,0 0.06625,-0.03 0.375,0.02125 0.35625,0.0575 0.995,0.19625 1.5825,0.19625 1,0 1.3975,-0.265 2.1475,-0.265 0.51875,0 0.48,0.4225 0.48,0.4225 0,0 0.2475,-0.0775 0.26,-0.28125 0.0125,-0.205 -0.21375,-0.27 -0.21375,-0.27 0,0 0.255,-0.08125 0.45625,0.09 0.20125,0.1725 0.105,0.38875 0.16125,0.4025 0.0575,0.015 0.055,-0.10375 0.09875,-0.10375 0.04375,0 0.08625,0.08 0.08625,0.08 0,0 0.14375,-0.11625 0.06625,-0.32375 C 20.3875,26.82375 20.2575,26.795 20.2575,26.795 c 0,0 0.47125,-0.035 0.56875,0.33 0.07125,0.265 -0.18875,0.44625 -0.18875,0.44625 0,0 0.15625,0.10125 0.28375,0.03375 0.1275,-0.06625 0.1675,-0.29875 0.1675,-0.29875 0,0 0.05875,0.01375 0.0875,0.1575 0.03,0.14125 0.1175,0.19 0.1175,0.19 0,0 0.035,-0.12 0.13,-0.28375 0.1425,-0.2425 -0.12,-0.3775 -0.12,-0.3775 0,0 0.05875,-0.05625 0.35375,-0.1 0.29375,-0.045 0.3275,-0.185 0.3275,-0.185 0,0 -0.1325,0.0075 -0.27375,-0.095 -0.1425,-0.1025 -0.32375,0.06875 -0.375,0.06875 -0.0525,0 -0.10375,-0.07375 0.02125,-0.225 0.19375,-0.235 0.05875,-0.33125 0.05875,-0.33125 0,0 -0.135,0.25 -0.27875,0.2075 -0.145,-0.04125 0.03125,-0.1875 -0.095,-0.27125 -0.12875,-0.08375 -0.14,-0.17875 -0.14,-0.17875 0,0 -0.08125,0.04625 -0.12,0.21625 -0.04,0.16875 -0.08875,0.285 -0.38,0.3625 -0.135,0.03375 -0.25,0.01625 -0.36875,0.03125 -0.13625,0.01875 -0.26625,0.06875 -0.26625,0.06875"/><path fill="#ffffff" d="m 28.645,26.792 c 0,0 -3.17375,2.47375 -5.9375,2.47375 -3.3,0 -6.7125,-2.57625 -6.7125,-2.57625 0,0 0.1475,-0.065 0.445,-0.105 0.2025,-0.02625 0.355,-0.1875 0.47125,-0.16625 0.25375,0.04875 0.46,0.19125 0.46,0.19125 0,0 2.4725,1.72125 4.8325,1.72125 2.77375,0 5.31875,-1.71375 5.31875,-1.71375 0,0 0.27375,-0.21 0.55125,-0.1975 0.2775,0.0125 0.57125,0.3725 0.57125,0.3725"/></svg>