<svg xmlns="http://www.w3.org/2000/svg" viewBox="0 0 45 45"><path fill="#008457" d="m 45,33.75 c 0,2.76125 -2.23875,5 -5,5 H 5 c -2.76125,0 -5,-2.23875 -5,-5 v -22.5 c 0,-2.76125 2.23875,-5 5,-5 h 35 c 2.76125,0 5,2.23875 5,5 z"/><path fill="#000000" d="m 33.320375,22.5 c 0,-5.97625 -4.845,-10.82 -10.82,-10.82 -5.97625,0 -10.82,4.84375 -10.82,10.82 0,5.975 4.84375,10.82 10.82,10.82 5.975,0 10.82,-4.845 10.82,-10.82"/><path fill="#ffd520" d="m 32.8125,22.5 c 0,-5.695 -4.61625,-10.3125 -10.3125,-10.3125 -5.695,0 -10.3125,4.6175 -10.3125,10.3125 0,5.69625 4.6175,10.3125 10.3125,10.3125 5.69625,0 10.3125,-4.61625 10.3125,-10.3125"/><path fill="#34c2de" d="m 30.107375,22.5 c 0,-4.20125 -3.40625,-7.6075 -7.6075,-7.6075 -4.20125,0 -7.6075,3.40625 -7.6075,7.6075 0,4.20125 3.40625,7.6075 7.6075,7.6075 4.20125,0 7.6075,-3.40625 7.6075,-7.6075"/><path fill="#ffffff" d="m 19.09175,19.624625 c 0,0 -0.4125,0.46625 -0.47625,0.70625 -0.06375,0.24 -0.10875,0.28375 -0.1725,0.485 -0.0625,0.20125 -0.1125,0.10375 -0.17625,0.33375 -0.0625,0.23 -0.3575,0.68625 -0.3575,0.82375 0,0.1375 0.54875,0.8675 0.68125,0.995 0.1325,0.1275 0.63,0.34875 0.63,0.34875 l 0.845,-1.58875 z"/><path fill="#fdd6c6" d="m 19.963375,17.698375 c 0,0 -0.84,1.045 -0.8775,2.015 -0.04375,1.1475 0.10625,1.3875 0.07375,2.09375 -0.035,0.73875 0.06125,1.51 0.06125,1.51 0,0 0.065,0.05375 0.105,0.245 0.04,0.19125 0.1725,0.59875 0.32875,0.83125 0.26,0.38875 0.4775,0.4 0.56625,0.43375 0.0875,0.03375 0.09125,0.13625 0.09125,0.13625 l 1.90125,0.69125 2.6325,-2.48625 -0.97125,-5.985 -2.8525,-0.27875 z"/><path fill="#ffffff" d="m 24.034375,23.65475 c 0,0 0.2825,-1.3675 0.19375,-2.1475 -0.08875,-0.77875 -0.54375,-0.955 -0.5875,-1.75 -0.045,-0.79375 0.23875,-1.54875 -0.48625,-2.0825 -1.42625,-1.05 -3.19125,0.02375 -3.19125,0.02375 0,0 0.1175,-0.33875 0.6475,-0.735 0.52875,-0.3975 0.94125,-0.22125 1.6175,-0.48625 0.7175,-0.28 2.105,0.43125 2.8225,0.9125 1.115,0.7475 1.30875,1.515 1.30875,1.515 0,0 0.39375,-0.20125 0.48125,0.6325 0.04125,0.395 -0.32375,0.96 -0.32375,0.96 0,0 0.46,0.03875 0.60875,0.44125 0.14625,0.4025 0.13625,0.84625 0.13625,0.84625 z"/><path fill="#000000" d="m 18.9935,29.252875 1.12625,-0.82875 -0.79625,-1.07125 c 0,0 -0.19,0.0975 -0.81375,0.4775 -0.62375,0.38125 -0.84875,0.54 -0.84875,0.54 0.41,0.3375 0.85625,0.635 1.3325,0.8825"/><path fill="#ffffff" d="M 22.06175,30.09525 24.213,28.969 l -0.51875,-3.59875 -3.15875,-0.19 c 0,0 -0.92125,0.24125 -0.98875,0.37125 -0.0675,0.13 0.06625,0.44875 0.04375,0.75 -0.0225,0.30125 -0.20125,0.5925 -0.24,0.8525 -0.03875,0.26 0.03375,0.735 -0.015,1.07875 -0.04875,0.3425 -0.3425,1.02 -0.3425,1.02 0.9275,0.4825 1.96625,0.77875 3.06875,0.8425"/><path fill="#000000" d="m 22.06175,30.09525 c 0.145,0.0075 0.29125,0.0125 0.43875,0.0125 2.41875,0 4.57375,-1.13125 5.96625,-2.89125 0,0 -1.09,-1.155 -1.8225,-1.84625 -0.7325,-0.69125 -0.92125,-0.745 -0.92125,-0.745 0,0 -0.205,-0.39125 -0.1375,-0.6275 0.06875,-0.235 0.01,-0.6125 0.01,-0.6125 0,0 0.14875,0.065 0.49625,-0.2125 0.24125,-0.1925 0.61375,-0.1875 0.61375,-0.1875 0,0 0.07,-0.32125 0.3875,-0.5925 0.60125,-0.5075 0.16875,-0.6075 0.16875,-0.6075 0,0 -0.55625,0.0025 -0.9325,0.065 -0.4425,0.075 -0.4625,0.27625 -0.95125,0.32875 -0.41,0.04375 -0.64,0.74875 -0.94875,1.0825 -0.58875,0.6375 -0.82375,0.55875 -1.59875,1.235 -1.03625,0.90625 -2.5175,0.4675 -2.5175,0.4675 0,0 1.35625,1.33875 1.7725,1.55375 0.49625,0.255 1.54,-0.59875 1.3925,0.12125 -0.04625,0.22875 0.11,0.4575 0.02125,0.72875 -0.0875,0.27125 -0.86,0.53625 -0.86,0.53625 0,0 -0.22,0.47125 -0.3225,1.1625 -0.10375,0.69 -0.255,1.02875 -0.255,1.02875"/><path fill="#000000" d="m 19.974375,23.4815 c 0,0 0.345,-0.135 0.43375,-0.09875 0.0875,0.03625 0.15125,0.0625 0.3975,0.015 0.24625,-0.0475 0.4475,0.0038 0.5625,0.0475 0.0575,0.02125 0.30875,0.02875 0.46125,0.02875 0.14,0 0.18375,0.1225 0.18375,0.1225 0,0 -0.2125,-0.06875 -0.45,0.015 -0.23875,0.08375 -0.1625,-0.15625 -0.56875,-0.0825 -0.40625,0.075 -0.56375,0.16875 -0.72625,0.06875 -0.1725,-0.10625 -0.29375,-0.11625 -0.29375,-0.11625"/><path fill="#000000" d="m 21.345875,22.047125 c 0,0 0.1775,0.24125 0.06,0.4425 -0.11625,0.2025 -0.30875,0.02375 -0.59875,0.09625 -0.29125,0.0725 -0.38125,0.1075 -0.50375,0.025 -0.12375,-0.08125 -0.24625,-0.0975 -0.24625,-0.0975 0,0 0.0275,0.08 0.14375,0.13 0.1175,0.04875 0.11125,0.1025 0.2975,0.18875 0.08125,0.0375 0.18625,0.08625 0.29875,0.0775 0.13625,-0.0088 0.26,-0.12625 0.365,-0.09125 0.13125,0.04375 0.45,-0.16625 0.46125,-0.23 0.0175,-0.1 -0.08875,-0.3075 -0.1475,-0.41375 -0.07875,-0.1475 -0.13,-0.1275 -0.13,-0.1275"/><path fill="#000000" d="m 21.404375,21.05525 c 0,0 -0.1475,-0.39125 0.19625,-0.66 0.3425,-0.27 0.6175,-0.275 0.83875,-0.08375 0.22,0.19125 0.27375,0.29375 0.39625,0.3475 0.1225,0.055 0.10375,0.19125 0.255,0.245 0.15125,0.05375 0.30375,-0.03875 0.30375,-0.03875 0,0 -0.1575,-0.08875 -0.17125,-0.32375 -0.015,-0.235 -0.6525,-0.72 -1.035,-0.72 -0.38125,0 -0.23,0.14125 -0.49875,0.15125 -0.27,0.01 -0.3925,0.1325 -0.505,0.20125 -0.11375,0.06875 -0.06875,0.43625 -0.10375,0.5975 -0.03375,0.1625 0.32375,0.28375 0.32375,0.28375"/><path fill="#000000" d="m 20.540125,20.74275 c 0,0 -0.0325,-0.07375 -0.18,-0.10625 -0.1475,-0.03375 -0.0775,-0.16625 -0.275,-0.27625 -0.19875,-0.11 -0.2875,-0.08 -0.40875,0.02125 -0.045,0.03875 -0.15125,0.21875 -0.22875,0.295 -0.08625,0.08625 -0.1425,0.06625 -0.1425,0.06625 0,0 -0.2025,-0.0975 -0.195,-0.225 0.0075,-0.12875 0.1025,-0.165 0.085,-0.27125 -0.01875,-0.10625 0.04375,-0.29375 0.07625,-0.30875 0.03375,-0.015 0.1625,-0.02625 0.24,0.025 0.07625,0.05125 0.1875,-0.09 0.33,-0.0375 0.14375,0.0525 0.46,0.20375 0.57,0.35375 0.11,0.15125 0.12875,0.46375 0.12875,0.46375"/><path fill="#000000" d="m 22.6715,21.112625 c 0,0 0.1525,-0.1125 0.17625,-0.235 0.01375,-0.07 -0.3475,-0.245 -0.5675,-0.30375 -0.3775,-0.1 -0.74375,0.22 -0.74375,0.22 0,0 0.12,0.035 0.2325,-0.0025 0.10625,-0.03625 0.125,-0.165 0.235,-0.14125 0.065,0.015 -0.10625,0.24875 0.22375,0.29125 0.3125,0.04 0.32,-0.125 0.3825,-0.125 0.04375,0 0.06125,0.29625 0.06125,0.29625"/><path fill="#000000" d="m 20.42425,20.820875 c 0.0025,-0.04125 -0.08375,-0.02625 -0.17875,-0.1275 -0.09625,-0.1 -0.135,-0.125 -0.30125,-0.125 -0.23375,0 -0.1875,0.02 -0.2925,0.08625 -0.105,0.06625 -0.40125,0.1925 -0.37,0.21875 0.06125,0.05125 0.4,-0.22125 0.44625,-0.20875 0.04625,0.01125 -0.06625,0.245 0.22625,0.26875 0.23875,0.02 0.28125,-0.14625 0.3325,-0.13 0.04,0.01375 0.04375,0.07125 0.08125,0.07375 0.03625,0.0025 0.05375,-0.025 0.05625,-0.05625"/></svg>