<svg xmlns="http://www.w3.org/2000/svg" viewBox="0 0 45 45"><path fill="#00287e" d="m 40,38.75 c 2.76125,0 5,-2.23875 5,-5 v -22.5 c 0,-2.76125 -2.23875,-5 -5,-5 H 5 c -2.76125,0 -5,2.23875 -5,5 v 22.5 c 0,2.76125 2.23875,5 5,5 z"/><path fill="#ffffff" d="m 26.83225,33.013875 c 1.44625,-0.765 2.8125,-1.88875 2.8125,-1.88875 0,0 -0.96125,0.58 -3.10125,0.98375 -2.14125,0.405 -4.04375,0.365 -4.04375,0.365 0,0 -1.90125,0.04 -4.0425,-0.365 -2.1425,-0.40375 -3.1025,-0.98375 -3.1025,-0.98375 0,0 1.36625,1.12375 2.81375,1.88875 1.2075,0.64 2.2975,0.945 4.33125,0.945 2.03375,0 3.125,-0.305 4.3325,-0.945 m 0.37,-2.27 c 1.89875,-0.64625 2.56375,-0.8825 3.2525,-0.8825 0.85375,0 1.7875,1.3225 1.7875,1.3225 l -0.2,-0.0775 c 0,0 -1.6225,1.52625 -3.2725,2.63125 -1.66875,1.1175 -3.3825,1.80875 -6.27,1.80875 -2.88625,0 -4.6,-0.69125 -6.26875,-1.80875 -1.65125,-1.105 -3.2725,-2.63125 -3.2725,-2.63125 l -0.20125,0.0775 c 0,0 0.93375,-1.3225 1.78625,-1.3225 0.69125,0 1.355,0.23625 3.25375,0.8825 1.20625,0.41125 2.80375,0.5575 4.7025,0.5575 1.89875,0 3.49625,-0.14625 4.7025,-0.5575"/><path fill="#ffffff" d="m 22.957125,16.810875 c 0,0 -0.13375,0.035 -0.24125,-0.015 -0.1075,-0.04875 -0.22375,-0.30625 -0.22375,-0.30625 l -0.02625,-0.2175 0.45625,-0.07375 z"/><path fill="#ffffff" d="m 23.889125,15.874 c 0,0 0.6875,0.48625 0.6875,0.62875 0,0.1425 -0.29,0.04875 -0.29,0.04875 0,0 -0.0075,0.08625 -0.055,0.1325 -0.0475,0.04625 -0.10375,0.01875 -0.10375,0.01875 l -0.16,-0.42625 z"/><path fill="#ffffff" d="m 23.45825,13.482625 c 0,0 -0.39125,-0.515 -0.515,-0.78375 -0.1225,-0.27 -0.13,-0.5725 -0.505,-0.81375 -0.6025,-0.3875 -0.8475,-0.1525 -0.8475,-0.1525 0,0 -0.31875,-0.09875 -0.44625,-0.005 -0.1275,0.09375 -0.1575,0.3975 -0.1575,0.3975 l 0.31,-0.01 c 0,0 -0.01,0.08875 0.02875,0.1375 0.04,0.04875 0.395,0.14625 0.3975,0.3625 0.005,0.58875 -0.30875,0.79 -0.30875,0.79 l -0.1175,0.5825 0.515,0.3725 0.5925,0.19625 0.95625,-0.3875 0.14625,-0.3725 z"/><path fill="#ffef6f" d="m 23.565625,17.326 c 0,0 0,0.20125 0.245,0.31375 0.24625,0.1125 0.30875,0.145 0.30625,0.2425 -0.0025,0.0975 -0.15875,0.31625 -0.15875,0.31625 0,0 -0.06625,-0.245 -0.1575,-0.3625 -0.09,-0.11875 -0.225,-0.1225 -0.225,-0.1225 0,0 0.025,0.1075 0.01625,0.20625 -0.0063,0.0975 -0.05125,0.30625 -0.05125,0.30625 0,0 -0.1675,-0.13 -0.14875,-0.275 0.02,-0.145 0.04375,-0.2475 -0.02625,-0.2525 -0.07125,-0.005 -0.47625,0.4925 -0.47625,0.4925 0,0 -0.16625,-0.2525 -0.0225,-0.39625 0.145,-0.145 0.29,-0.11125 0.4475,-0.22625 0.15625,-0.115 0.0975,-0.23875 0.0975,-0.23875 z"/><path fill="#ffef6f" d="m 22.027,17.287625 c 0,0 -0.04375,0.185 0.06875,0.24875 0.1125,0.06375 0.385,0.1575 0.4475,0.275 0.0625,0.1175 -0.215,0.375 -0.215,0.375 0,0 -0.16625,-0.02 -0.2525,-0.21125 -0.085,-0.19125 -0.1125,-0.31125 -0.1125,-0.31125 0,0 -0.06125,0.07875 0,0.24125 0.06125,0.16125 -0.2375,0.36 -0.2375,0.36 0,0 -0.29875,-0.10125 -0.24375,-0.31125 0.0575,-0.21125 0.0525,-0.28 0.0525,-0.28 0,0 -0.15,0.05875 -0.15,0.22375 0,0.16375 -0.235,0.29375 -0.235,0.29375 0,0 -0.125,-0.2475 -0.05375,-0.35625 0.07125,-0.1075 0.28625,-0.125 0.4875,-0.28125 0.25,-0.19375 0.23,-0.2875 0.23,-0.2875 l 0.09375,-0.01875 z"/><path fill="#86473f" d="m 21.414125,13.4045 c 0,0 -0.8375,-0.3725 -0.65125,-1.20625 0.0875,-0.39625 -0.1375,-0.54375 -0.34375,-0.54375 -0.20625,0 -1.5,0.33875 -2.19625,2.255 -0.72125,1.9875 -0.5175,3.28875 -0.5175,3.28875 0,0 0.7875,-1.2275 1.95625,-1.70625 1.16875,-0.4775 1.67625,-0.12875 1.67625,-0.12875 0,0 -0.05875,0.11875 -0.055,0.225 0.0025,0.10625 0.1175,0.21625 0.1175,0.21625 0,0 -0.01375,0.1775 -0.01125,0.36 0.0038,0.185 -0.0325,0.3325 -0.09125,0.5925 -0.05875,0.26125 0.0625,0.42 0.1875,0.445 0.125,0.02625 0.4225,0.1 0.6575,0.085 0.235,-0.015 0.3825,-0.12875 0.3825,-0.27625 0,-0.14625 -0.055,-0.5875 -0.025,-0.64625 0.02875,-0.06 0.2175,-0.06375 0.27625,-0.01875 0.05875,0.04375 0.19625,0.30375 0.19625,0.68625 0,0.3825 0.22,0.29375 0.6175,0.29375 0.3975,0 0.53875,-0.05875 0.57375,-0.29375 0.03375,-0.23625 -0.07875,-0.4125 -0.23,-0.96625 -0.1525,-0.55375 -0.07,-0.945 -0.07,-0.945 0,0 0.51125,0.185 1.21125,0.23875 0.70125,0.055 1.08375,-0.05375 1.08375,-0.05375 0,0 0.24,0.54875 0.6225,1.1925 0.3825,0.64125 0.55875,0.8625 0.55875,0.8625 0,0 0.4025,-2.26 -0.765,-3.9025 -0.44625,-0.62875 -0.72,-0.975 -1.43,-1.26 -0.9775,-0.39375 -1.51125,-0.3725 -1.62375,-0.19125 -0.17625,0.285 0.0425,0.57375 0.1575,0.69125 0.14125,0.1475 0.3475,0.19875 0.3525,0.35375 0.01,0.3475 -0.435,0.6325 -0.435,0.6325 l -0.13875,-0.2025 0.04875,0.31375 -0.1075,0.01 -0.03875,0.36375 -0.1575,-0.18125 -0.03875,0.25 -0.20125,-0.1425 -0.08375,0.21125 -0.13125,-0.1375 -0.1225,0.1425 -0.125,-0.09875 -0.10625,0.225 -0.15125,-0.205 -0.1525,0.18625 -0.17125,-0.305 -0.1075,0.24625 -0.36375,-0.4125 -0.15125,0.04 z"/><path fill="#ffef6f" d="m 24.16875,17.907125 1.37625,-0.02 0.01375,0.05125 0.15125,-0.08125 -0.1675,-0.065 0.005,0.04875 -1.37875,0.01625 z"/><path fill="#ffef6f" d="m 24.1345,18.019375 1.08125,0.255 -0.0125,0.05125 0.17875,-0.04125 -0.15125,-0.09875 -0.0025,0.04 -1.07375,-0.255 z"/><path fill="#ffef6f" d="m 24.117375,17.74775 0.7575,-0.19875 -0.01125,-0.03875 0.1675,0.02625 -0.13125,0.10625 -0.0125,-0.045 -0.7525,0.1775 z"/><path fill="#35b336" d="m 21.5735,17.44875 c 0,0 -0.45625,-0.64 -1.55125,-0.56625 -1.09625,0.07375 -1.2725,0.4775 -1.2725,0.4775 0,0 0.21375,0.385 1.35375,0.41625 1.13875,0.03 1.47,-0.3275 1.47,-0.3275"/><path fill="#ef1439" d="m 22.465875,10.76175 c -3.0025,0 -5.20375,1.21625 -5.20375,1.21625 0,0 -0.125,-0.01125 -0.19875,-0.16875 -0.0725,-0.15875 -0.165,-0.2575 -0.165,-0.2575 0,0 -0.345,0.26125 -0.62125,0.4775 -0.27625,0.21625 -0.55875,0.3425 -0.55875,0.3425 0,0 0.0775,-0.19875 0.11375,-0.4125 0.0375,-0.2125 0.045,-0.3925 0.045,-0.3925 l -0.9375,-0.265 c 0,0 0.67625,-0.305 1.37125,-0.81375 0.69625,-0.51 0.7775,-0.77875 1.2125,-0.94125 0.51375,-0.19125 0.5825,0.07875 0.5825,0.07875 l 0.235,0.66625 c 0,0 1.78875,-0.67625 4.125,-0.67625 2.335,0 4.125,0.67625 4.125,0.67625 l 0.235,-0.66625 c 0,0 0.06875,-0.27 0.58125,-0.07875 0.43625,0.1625 0.51625,0.43125 1.21375,0.94125 0.695,0.50875 1.37125,0.81375 1.37125,0.81375 l -0.9375,0.265 c 0,0 0.0075,0.18 0.045,0.3925 0.03625,0.21375 0.1125,0.4125 0.1125,0.4125 0,0 -0.28125,-0.12625 -0.5575,-0.3425 -0.27625,-0.21625 -0.62125,-0.4775 -0.62125,-0.4775 0,0 -0.0925,0.09875 -0.16625,0.2575 -0.0725,0.1575 -0.1975,0.16875 -0.1975,0.16875 0,0 -2.20125,-1.21625 -5.20375,-1.21625"/><path fill="#86473f" d="m 32.4585,15.50725 c 0,0 -0.18375,-0.115 -0.51,-0.15875 -0.32625,-0.045 -0.2925,0.0025 -0.41375,-0.0375 -0.1225,-0.03875 -0.1825,-0.125 -0.0175,-0.225 0.16375,-0.1 0.2425,-0.025 0.6475,-0.165 0.40375,-0.13875 0.78875,-0.43 1.0875,-0.74125 0.29875,-0.3125 0.43125,-0.52125 0.415,-0.57875 -0.0175,-0.05875 -0.20375,0.04125 -0.255,0.105 -0.05125,0.06375 -0.06625,0.1225 -0.26,0.29875 -0.195,0.17625 -0.275,0.22125 -0.34375,0.17875 -0.0675,-0.04125 0.04,-0.29375 0.04,-0.29375 0,0 -0.15625,0.0825 -0.43375,0.30125 -0.2775,0.21875 -0.4025,0.20875 -0.39125,0.0975 0.0075,-0.0625 0.07875,-0.1475 0.13375,-0.215 0.04,-0.05 0.07,-0.09625 0.07,-0.09625 0,0 -0.0675,0.0087 -0.41125,0.17 -0.3425,0.1625 -0.53375,0.21125 -0.53375,0.21125 0,0 -0.06875,-0.09375 0.1425,-0.2925 0.21,-0.19875 0.4425,-0.255 0.8425,-0.55625 0.4,-0.30125 0.66625,-0.56875 0.775,-0.7475 0.07875,-0.13125 0.04875,-0.2725 0.04875,-0.2725 0,0 -0.04625,0.035 -0.12,0.21125 -0.0625,0.1475 -0.19625,0.22625 -0.28875,0.20875 -0.13375,-0.025 -0.2725,-0.15 -0.2725,-0.15 0,0 -0.1825,0.17625 -0.355,0.20375 -0.20625,0.03125 -0.24375,-0.20625 -0.24375,-0.20625 0,0 -0.11,0.245 -0.24,0.30625 -0.12875,0.06125 -0.225,-0.0225 -0.3,-0.04875 -0.075,-0.0275 -0.09375,-0.03 -0.215,0.05875 -0.12,0.08875 -0.1875,0.22 -0.33875,0.22 -0.14875,0 -0.30375,-0.105 -0.4275,-0.37125 -0.125,-0.2675 -0.12,-0.53 -0.12,-0.53 0,0 -0.10875,0.2575 -0.10875,0.45375 0,0.195 0.04125,0.43625 0.1725,0.7525 0.12875,0.31625 0.05875,0.3925 -0.10375,0.365 -0.16125,-0.0275 -0.195,-0.02 -0.355,-0.09625 -0.26,-0.1225 -0.835,-0.69625 -0.835,-0.69625 0,0 -0.015,0.17625 0.03125,0.34375 0.04625,0.1675 0.1225,0.32875 0.1225,0.32875 0,0 -0.17125,-0.06375 -0.55,-0.2625 -0.3775,-0.19875 -0.40625,-0.29125 -0.465,-0.33125 -0.05875,-0.03875 -0.09,-0.04625 -0.09,-0.04625 0,0 -0.005,0.08125 0.06125,0.18125 0.065,0.1 0.0775,0.24 0.26875,0.3825 0.19125,0.1425 0.505,0.285 0.865,0.3075 0.55375,0.035 1.0025,0.26125 1.145,0.37375 0.17875,0.1425 0.1225,0.40875 0.1225,0.40875 0,0 -0.34,0.07625 -0.96125,-0.04125 -0.57,-0.1075 -0.86875,-0.43875 -0.86875,-0.43875 0,0 -0.015,0.04375 -0.0025,0.135 0.01125,0.09 0.02625,0.1375 0.02625,0.1375 0,0 -0.13,-0.03125 -0.405,-0.17125 C 28.111,14.41225 28.041,14.35975 27.9935,14.30475 27.9285,14.231 27.88975,14.2085 27.88975,14.2085 c 0,0 -0.0125,0.19125 0.38375,0.5125 0.39875,0.32 0.91125,0.41125 1.37125,0.455 0.42875,0.0425 0.875,-0.0075 0.875,-0.0075 0,0 -0.06625,0.06375 -0.25,0.1575 -0.18375,0.09375 -0.31375,0.2725 -0.47875,0.33625 -0.16375,0.06375 -0.4475,0.05125 -0.75625,0.0875 -0.30875,0.0375 -0.7025,0.18 -0.77,0.43 -0.05625,0.2075 -0.0025,0.42125 0.0275,0.50125 0.02875,0.08125 0.1225,0.1425 0.28625,0.18125 0.16375,0.04 0.16625,0.13875 0.3175,0.1625 0.1925,0.02875 0.2025,-0.0063 0.29,-0.11125 0.07875,-0.0925 0.2475,-0.13875 0.29125,-0.065 0.04375,0.0725 0.02,0.18125 -0.27875,0.52125 -0.32375,0.37125 -0.69375,0.69375 -0.70125,0.785 -0.0075,0.09 -0.04125,0.15375 -0.0075,0.225 0.035,0.07125 0.11875,0.1525 0.04125,0.31875 -0.075,0.1675 -0.345,0.45375 -0.39375,0.55875 -0.04875,0.105 0.01,0.08375 -0.085,0.19625 -0.0975,0.1125 -0.32125,0.32625 -0.32125,0.32625 0,0 -0.2825,-0.18 -0.795,-0.48375 -0.51125,-0.3025 -0.67875,-0.42875 -0.80125,-0.4775 -0.1225,-0.04875 -0.45125,-0.06375 -0.57125,0.035 -0.12,0.0975 -0.26625,0.30625 -0.29875,0.5775 -0.03125,0.2725 0,0.66 0,0.66 l 1.2625,0.40875 0.4675,0.41875 -0.95625,0.40125 v 3.6975 c 0,0 0.27,0.1475 0.365,-0.14125 0.09625,-0.29 -0.0075,-0.76625 -0.0075,-0.76625 0,0 0.14125,0.0125 0.19,-0.0925 0.04875,-0.105 0.0075,-0.17625 -0.0325,-0.20125 -0.03875,-0.025 -0.0725,-0.29625 -0.0725,-0.78625 0,-0.49125 0.05625,-0.94875 0.17,-1.04875 0.11625,-0.10125 0.4625,-0.15 0.5575,-0.065 0.12375,0.11375 0.06125,0.33875 0.1475,0.63 0.085,0.2925 0.225,0.4875 0.225,0.4875 0,0 -0.025,-0.17375 -0.02,-0.2025 0.005,-0.03 0.05375,-0.05125 0.12375,0.03125 0.0675,0.08375 0.11625,0.21625 0.35,0.40625 0.4825,0.39875 1.4575,0.97 1.4575,0.97 0,0 -0.12,0.0725 -0.27125,0.335 -0.1525,0.26125 -0.31375,0.635 -0.29875,0.96625 0.015,0.33125 0.2025,1.15875 0.2,1.57375 -0.0025,0.41375 -0.03875,0.84625 -0.29375,1.28375 -0.255,0.43625 -0.48375,0.70375 -0.68875,0.82375 -0.44375,0.25625 -0.56125,0.44875 -0.56125,0.44875 l 0.34,0.19875 c 0,0 0.16,-0.1475 0.21875,-0.25 0.05875,-0.10375 0.06625,-0.11875 0.2325,-0.10875 0.16625,0.0087 0.23125,-0.035 0.33625,-0.2425 0.105,-0.20875 0.20875,-0.535 0.42375,-0.81375 0.2425,-0.31375 0.44125,-0.515 0.535,-0.6325 0.0925,-0.1175 0.1725,-0.26 0.175,-0.32375 0.0025,-0.0625 -0.1125,-0.3275 -0.1125,-0.58125 0,-0.2525 0.14375,-0.685 0.4325,-1.10125 0.32875,-0.47375 0.8275,-0.8075 0.8275,-0.8075 0,0 -0.02625,0.6275 0.06125,0.94375 0.08875,0.31625 0.56625,0.8825 0.81875,1.2425 0.2525,0.36 0.545,1.04125 0.49375,1.935 -0.0525,0.89375 -0.08875,0.915 -0.18125,1.15125 -0.09125,0.235 -0.19875,0.36375 -0.19875,0.36375 l 0.155,0.42625 c 0,0 0.15375,-0.36375 0.28,-0.51375 0.12375,-0.1525 0.1975,-0.09375 0.205,-0.14875 0.0075,-0.055 -0.0225,-0.56625 0.02125,-1.2025 0.04625,-0.635 0.185,-1.2075 0.185,-1.4725 0,-0.265 -0.3675,-0.8425 -0.3675,-1.26125 0,-0.42 0.11375,-0.3675 0.29,-0.82 0.17625,-0.4525 0.29125,-0.76125 0.29125,-0.76125 0,0 0.11,0.01875 0.1425,-0.0625 0.0325,-0.08125 0.03,-0.385 -0.19,-0.725 -0.3475,-0.52875 -0.96,-0.925 -1.32875,-1.4225 C 31.3085,22.1985 31.151,21.786 31.1435,21.50725 31.1385,21.3185 31.296,21.381 31.296,21.381 c 0,0 -0.04875,-0.1975 0.025,-0.48375 0.07125,-0.2875 0.15625,-0.39875 0.15625,-0.39875 0,0 -0.06375,-0.095 -0.12375,-0.27375 -0.06125,-0.18 -0.04125,-0.23875 -0.04125,-0.23875 l 0.155,-0.1 c 0,0 -0.08,-0.22125 -0.12625,-0.4525 -0.045,-0.23 -0.02875,-0.30625 -0.02875,-0.30625 l 0.1625,-0.04375 c 0,0 -0.0075,-0.14375 0,-0.3625 0.0075,-0.21875 0.02625,-0.305 0.02625,-0.305 l 0.20125,0.02 c 0,0 0,-0.2075 0.04375,-0.64625 0.05125,-0.52 0.21,-0.7525 0.21,-0.8775 0,-0.2375 -0.15875,-0.9025 -0.15875,-0.9025 0,0 0.17125,-0.025 0.41375,-0.18125 0.2625,-0.16875 0.2475,-0.32125 0.2475,-0.32125"/><path fill="#86473f" d="m 12.38525,13.353875 c -0.235,0.065 -0.43125,0.0013 -0.43125,0.0013 l 0.38875,0.2625 c 0,0 -0.06125,0.36 -0.38875,0.45625 -0.32875,0.095 -0.70625,-0.035 -0.70625,-0.035 0,0 0.2375,0.2775 1.0025,0.28125 0.76375,0.0038 0.9375,-0.045 0.9375,-0.045 0,0 0.2025,0.2475 0.60625,0.50875 0.405,0.26 0.545,0.37625 0.545,0.37625 l -0.15,0.08 c 0,0 -0.34125,-0.2675 -0.71875,-0.2675 -0.3775,0 -0.69125,0.2975 -0.69125,0.2975 0,0 0.04875,0.2175 0.32125,0.39625 0.2725,0.17875 0.5325,0.19375 0.5325,0.19375 0,0 -0.185,0.39 -0.09625,1.165 0.04125,0.355 0.07375,0.57375 0.04375,0.82125 -0.0525,0.4175 -0.1,0.53875 -0.1,0.53875 l 0.18375,-0.12 c 0,0 0.0475,0.16125 0.0225,0.28125 -0.025,0.12 -0.0475,0.19625 0.1025,0.265 0.15,0.06875 0.16625,0.20375 0.16625,0.30125 0,0.09875 -0.0075,0.21875 -0.0075,0.21875 l 0.18875,-0.11375 c 0,0 0.09125,0.68875 0.08375,1 -0.0075,0.31125 -0.05875,0.385 -0.08875,0.5425 -0.02875,0.15625 -0.03875,0.26 -0.03875,0.26 l 0.16875,-0.08625 c 0,0 -0.2225,0.8875 -0.345,1.1125 -0.245,0.4525 -1.6275,1.285 -1.97375,2.03 -0.2725,0.58875 -0.195,1.01375 -0.22,1.17875 -0.02375,0.16375 -0.02875,0.255 0.015,0.2725 0.04375,0.01625 0.16625,-0.08 0.16625,-0.08 0,0 0.41,0.5375 0.41,1.27 0,0.70125 -0.51125,1.045 -0.58125,1.17875 -0.07625,0.14625 -0.005,0.1625 -0.0225,0.3825 -0.01625,0.22125 -0.02125,0.47375 0.09125,0.70125 0.1125,0.2275 0.1175,0.385 0.1175,0.63 0,0.24625 -0.0925,1.005 -0.07875,1.06625 0.015,0.06125 0.11625,0.10875 0.22125,0.22125 0.105,0.1125 0.2575,0.35 0.3875,0.31875 0.13,-0.0325 0.17875,-0.31375 0.1075,-0.465 -0.07125,-0.14875 -0.28875,-0.23625 -0.3625,-0.49875 -0.07375,-0.2625 -0.04625,-0.48625 -0.005,-1.135 0.04125,-0.65 0.01375,-0.79375 0.31625,-1.06125 0.30125,-0.2675 0.7775,-0.64 1.0975,-1.15625 0.32,-0.515 0.53,-1.01875 0.53,-1.01875 0,0 1.025,0.6 1.09875,0.7875 0.07375,0.1875 -0.1975,0.6425 -0.1875,1.20125 0.0075,0.38625 0.69875,0.5975 0.90125,0.7775 0.29625,0.2625 0.40375,0.61 0.72,0.815 0.31625,0.20625 0.46,0.115 0.63625,0.17375 0.17625,0.05875 -0.0038,0.1825 0.25375,0.1425 0.2575,-0.04 0.19875,-0.1425 0.16875,-0.2125 -0.02875,-0.07 -0.07,-0.195 -0.39,-0.20625 -0.31875,-0.01125 -0.4225,0.0075 -0.73125,-0.3525 -0.30875,-0.36 -0.82375,-0.93625 -0.845,-1.6325 -0.015,-0.47625 0.45125,-1.17125 0.51375,-1.8525 0.0475,-0.5025 -0.24375,-0.67625 -0.24375,-0.67625 0,0 0.3175,-0.38375 0.75875,-0.79 0.44125,-0.40625 0.805,-1.25 0.83375,-1.3725 0.02875,-0.1225 0.015,-0.235 0.32375,-0.235 0.30875,0 0.3375,0.16125 0.32375,0.54375 -0.015,0.3825 -0.1375,0.90625 -0.10375,1.05375 0.03375,0.14625 0.1175,0.15125 0.1475,0.27 0.02875,0.1175 -0.08875,0.49 -0.04875,0.6025 0.03875,0.1125 0.1325,0.20125 0.265,0.23 0.13125,0.03 0.5625,-0.005 0.5625,-0.005 l 1.23625,-5.14375 c 0,0 -0.2775,-1.06625 -0.35875,-1.16125 -0.08125,-0.09625 -0.2475,-0.12375 -0.355,-0.10875 -0.18625,0.0275 -0.64625,0.27375 -0.955,0.3875 -0.30875,0.11375 -1,0.33 -1,0.33 0,0 -0.305,-0.56875 -0.4525,-0.71625 -0.14625,-0.14625 -0.2125,-0.195 -0.30875,-0.455 -0.095,-0.26125 -0.15,-0.32375 -0.34875,-0.54125 -0.19875,-0.21625 -0.595,-0.67375 -0.595,-0.67375 0,0 0.07875,-0.15 0.18625,-0.17875 0.10875,-0.03 0.395,-0.015 0.525,-0.06625 0.13,-0.05125 0.20375,-0.30125 0.22125,-0.3925 0.01625,-0.09 0.0087,-0.37 -0.1325,-0.45875 -0.1425,-0.0875 -0.35625,-0.1 -0.55125,-0.24 -0.19625,-0.13875 -0.31375,-0.2525 -0.675,-0.41375 -0.36,-0.16125 -0.38375,-0.215 -0.375,-0.275 0.01,-0.05875 0.06375,-0.17125 0.20625,-0.19375 0.08875,-0.01375 0.54375,-0.0038 0.84625,-0.0063 0.18125,-0.0025 0.28125,-0.02 0.28125,-0.02 0,0 -0.08125,-0.04875 -0.33625,-0.07625 -0.25375,-0.0275 -0.44875,-0.05375 -0.44875,-0.05375 0,0 0.1825,-0.06125 0.43,-0.145 0.2475,-0.0825 0.735,-0.28625 1.005,-0.5025 0.26875,-0.21625 0.4825,-0.605 0.4825,-0.605 0,0 -0.22375,0.20625 -0.45875,0.31125 -0.235,0.105 -0.4,0.15875 -0.41625,0.06125 -0.01,-0.06125 0.09375,-0.355 0.09375,-0.355 0,0 -0.165,0.29875 -0.23125,0.37375 -0.06625,0.07625 -0.11,0.1425 -0.47,0.32 -0.36125,0.17625 -0.45375,0.17875 -0.46875,0.15625 -0.015,-0.0225 0.01,-0.06375 0.17125,-0.21625 0.1625,-0.15125 0.19375,-0.27875 0.245,-0.41125 0.0525,-0.1325 0.08625,-0.265 0.08625,-0.265 0,0 -0.115,0.20875 -0.19125,0.3025 -0.07625,0.0925 -0.2575,0.30375 -0.5725,0.52125 -0.31625,0.2175 -0.33875,0.255 -0.3975,0.20375 -0.05875,-0.05125 0.14625,-0.52 0.14625,-0.52 0,0 -0.1975,0.355 -0.37,0.505 -0.17125,0.15 -0.2375,0.15875 -0.27125,0.1275 -0.035,-0.03125 0.005,-0.0975 -0.025,-0.30875 -0.0425,-0.29125 -0.19375,-0.39625 -0.19375,-0.39625 0,0 0.07125,0.18625 0.05125,0.39625 -0.01875,0.21 -0.02875,0.2575 -0.07125,0.28875 -0.04125,0.0325 -0.1075,0.0225 -0.2175,-0.0675 -0.11,-0.09125 -0.07875,-0.2575 0.06875,-0.52 0.28875,-0.5175 0.19875,-1.27 0.19875,-1.27 l -0.0225,0.03375 c 0,0 0.03875,0.31375 -0.07625,0.7575 -0.0975,0.38 -0.31625,0.6625 -0.5175,0.735 0,0 0.0012,-0.03375 -0.055,-0.21375 -0.04,-0.125 -0.08,-0.1775 -0.08,-0.1775 0,0 -0.0025,0.0925 -0.02625,0.19375 -0.0225,0.10125 -0.07125,0.14375 -0.07125,0.14375 -0.2075,-0.18625 -0.4425,-0.71 -0.44875,-0.88375 -0.0075,-0.21375 0.0375,-0.3925 0.045,-0.5525 0.0075,-0.15875 -0.03,-0.355 -0.03,-0.355 0,0 -0.07125,0.585 -0.33375,0.82125 -0.08625,0.07875 -0.1775,0.13 -0.265,0.16125 0,0 -0.02375,-0.035 -0.04875,-0.09875 -0.02375,-0.06375 -0.03125,-0.11 -0.03125,-0.11 0,0 -0.01,0.02375 -0.0013,0.11 0.0075,0.08625 0.02375,0.1175 0.02375,0.1175"/><path fill="#006fff" d="m 22.5,29.172375 c 0,0 -0.39375,-0.03125 -0.16125,0.435 0.0925,0.185 0.01375,0.30125 -0.1625,0.4225 -0.17625,0.12 -0.41875,0.155 -0.41875,0.155 l -0.1025,-0.14125 c 0,0 0.30875,-0.1975 0.32375,-0.36 0.0075,-0.09125 -0.07875,-0.19375 -0.195,-0.27625 -0.09125,-0.0625 -0.19875,-0.12 -0.30125,-0.10125 -0.235,0.045 -0.2875,0.41125 -0.2875,0.41125 l -0.1875,-0.08875 -0.025,-0.38 c 0,0 -0.4125,0.06 -0.7575,0 -0.44875,-0.08125 -0.6375,-0.21625 -0.6375,-0.21625 0,0 0.32125,0.105 0.8125,0.0675 0.49,-0.03625 0.74,-0.2375 0.74,-0.2375 l -1.83375,-0.49 c 0,0 -0.2775,-0.06 -0.43125,-0.2325 -0.14,-0.15625 -0.125,-0.625 -0.125,-0.625 v -5.22 c 0,-0.78375 -0.08375,-1.18 -0.20625,-1.4225 -0.1775,-0.35125 -0.415,-0.33625 -0.415,-0.33625 l 0.6575,-1.06125 c 0,0 0.42,0.18 1.08875,0.18 0.77625,0 1.53125,-0.70875 2.625,-0.70875 1.0925,0 1.84875,0.70875 2.625,0.70875 0.67,0 1.08875,-0.18 1.08875,-0.18 l 0.6575,1.06125 c 0,0 -0.23625,-0.015 -0.415,0.33625 -0.1225,0.2425 -0.20625,0.63875 -0.20625,1.4225 v 5.22 c 0,0 0.015,0.46875 -0.125,0.625 -0.15375,0.1725 -0.43125,0.2325 -0.43125,0.2325 l -1.83375,0.49 c 0,0 0.25,0.20125 0.74125,0.2375 0.48875,0.0375 0.81,-0.0675 0.81,-0.0675 0,0 -0.18625,0.135 -0.6375,0.21625 -0.34375,0.06 -0.75625,0 -0.75625,0 l -0.025,0.38 -0.1875,0.08875 c 0,0 -0.0525,-0.36625 -0.2875,-0.41125 -0.10375,-0.01875 -0.21,0.03875 -0.30125,0.10125 -0.11625,0.0825 -0.2025,0.185 -0.195,0.27625 0.015,0.1625 0.325,0.36 0.325,0.36 l -0.10375,0.14125 c 0,0 -0.2425,-0.035 -0.41875,-0.155 -0.17625,-0.12125 -0.255,-0.2375 -0.1625,-0.4225 0.2325,-0.46625 -0.16125,-0.435 -0.16125,-0.435"/><path fill="#35b336" d="m 28.33125,30.119625 c 0,0 -1.55875,-0.73 -3.045,-0.73 -2.2575,0 -2.705,1.515 -2.705,1.515 0,0 0.1875,-0.30875 0.5,-0.54875 0.3125,-0.23875 0.6725,-0.36375 0.6725,-0.36375 0,0 -0.22875,0.17375 -0.39375,0.42625 -0.165,0.25375 -0.2425,0.55625 -0.2425,0.55625 0,0 0.19875,-0.29875 0.5925,-0.5925 0.3925,-0.29375 0.6425,-0.36375 0.6425,-0.36375 0,0 -0.10625,0.09875 -0.22375,0.36 -0.1175,0.26125 -0.225,0.545 -0.225,0.545 0,0 0.21375,-0.2875 0.545,-0.54125 0.33,-0.25375 0.6825,-0.34125 0.6825,-0.34125 l -0.36,0.88625 c 0,0 0.2875,-0.3125 0.68375,-0.5675 0.39875,-0.25375 0.66,-0.30875 0.66,-0.30875 0,0 -0.0975,0.1075 -0.24,0.35375 -0.14375,0.24625 -0.19125,0.44125 -0.19125,0.44125 0,0 0.36375,-0.50375 1.24625,-0.7 0.8825,-0.19375 1.40125,-0.02625 1.40125,-0.02625"/><path fill="#35b336" d="m 16.66925,30.119625 c 0,0 1.55875,-0.73 3.04375,-0.73 2.2575,0 2.70625,1.515 2.70625,1.515 0,0 -0.1875,-0.30875 -0.5,-0.54875 -0.3125,-0.23875 -0.6725,-0.36375 -0.6725,-0.36375 0,0 0.2275,0.17375 0.3925,0.42625 0.16625,0.25375 0.2425,0.55625 0.2425,0.55625 0,0 -0.1975,-0.29875 -0.59125,-0.5925 -0.39375,-0.29375 -0.64375,-0.36375 -0.64375,-0.36375 0,0 0.1075,0.09875 0.225,0.36 0.1175,0.26125 0.22375,0.545 0.22375,0.545 0,0 -0.2125,-0.2875 -0.54375,-0.54125 -0.33125,-0.25375 -0.68375,-0.34125 -0.68375,-0.34125 l 0.36,0.88625 c 0,0 -0.28625,-0.3125 -0.68375,-0.5675 -0.3975,-0.25375 -0.65875,-0.30875 -0.65875,-0.30875 0,0 0.09625,0.1075 0.23875,0.35375 0.14375,0.24625 0.1925,0.44125 0.1925,0.44125 0,0 -0.365,-0.50375 -1.24625,-0.7 -0.8825,-0.19375 -1.40125,-0.02625 -1.40125,-0.02625"/><path fill="#ffef6f" d="m 21.029625,26.215875 c -0.1125,-0.02375 -0.20875,-0.0325 -0.28375,-0.01625 -0.22875,0.0525 -0.79125,-0.1025 -1.16125,-0.3175 -0.23,-0.13375 -0.445,-0.14625 -0.445,-0.14625 v -3.23625 h 6.72125 v 3.71625 z"/><path fill="#ffb935" d="m 24.630125,25.931375 c 0,-0.24875 -0.20125,-0.44875 -0.44875,-0.44875 -0.24875,0 -0.45,0.2 -0.45,0.44875 0,0.2475 0.20125,0.44875 0.45,0.44875 0.2475,0 0.44875,-0.20125 0.44875,-0.44875"/><path fill="#9ed9ff" d="m 19.139375,27.47075 c 0,0 0.63125,-0.2 1.985,-0.235 1.355,-0.035 2.24625,-0.4 2.24625,-0.4 0,0 -0.555,-0.27 -0.8975,-0.2325 -0.3525,0.03625 -1.0075,-0.2925 -1.44375,-0.3875 h 4.83125 v 1.255 c 0,0 0.02375,0.29125 -0.07125,0.4475 -0.09625,0.1575 -0.32625,0.21125 -0.32625,0.21125 l -2.96375,0.7975 -2.9625,-0.7975 c 0,0 -0.23,-0.05375 -0.32625,-0.21125 -0.09625,-0.15625 -0.07125,-0.4475 -0.07125,-0.4475"/><path fill="#35b336" d="m 19.139375,25.736125 v 1.735 c 0,0 0.63125,-0.2 1.985,-0.23625 1.355,-0.03375 2.24625,-0.39875 2.24625,-0.39875 0,0 -0.555,-0.27 -0.8975,-0.23375 -0.4425,0.04625 -1.3625,-0.48375 -1.7275,-0.4025 -0.2275,0.0525 -0.79125,-0.1025 -1.16125,-0.3175 -0.23,-0.13375 -0.445,-0.14625 -0.445,-0.14625"/><path fill="#86473f" d="m 21.514875,26.792 0.25,-0.91625 0.0575,0.0087 0.03125,0.72 c 0,0 -0.01,0.1175 0.15,0.13625 0.16125,0.0175 0.16375,0.0038 0.16375,0.0038 0,0 -0.05375,-0.0088 -0.06375,-0.20375 -0.01,-0.195 -0.1,-1.205 -0.1,-1.205 l 0.0625,-0.25125 c 0,0 0.2075,0.02875 0.315,0 0.1075,-0.03 0.18125,-0.0625 0.18125,-0.0625 l 0.11375,-0.015 0.0175,-0.04875 c 0,0 -0.14875,-0.01625 -0.2875,-0.01875 -0.13875,-0.0013 -0.3025,-0.06375 -0.3025,-0.06375 0,0 -0.04,-0.045 -0.05875,-0.14875 -0.02,-0.10375 -0.1525,-0.20125 -0.1525,-0.20125 0,0 0.0725,-0.04625 0.07375,-0.145 0.0025,-0.1 0.0425,-0.1 0.03625,-0.145 -0.0063,-0.04375 -0.055,-0.14625 -0.1175,-0.16625 -0.0625,-0.01875 -0.1875,0.035 -0.20875,0.055 -0.0225,0.0225 -0.07125,0.1625 -0.0725,0.195 -0.0025,0.03375 0.02875,0.12625 0.0175,0.15625 -0.01125,0.0325 -0.0425,0.065 -0.0425,0.065 0,0 -0.065,-0.0675 -0.09,-0.05625 -0.02625,0.01125 -0.0175,0.04 -0.0475,0.07 -0.02875,0.03125 -0.06,0.06875 -0.06,0.06875 l -0.19,0.015 c 0,0 -0.05,-0.18125 -0.0775,-0.3 -0.0275,-0.12 -0.0725,-0.315 -0.0725,-0.315 l -0.055,-0.065 c 0,0 -0.02125,0.04875 -0.02125,0.0925 0,0.04375 0.06375,0.19125 0.07,0.2675 0.0063,0.07625 -0.0038,0.34375 -0.0038,0.34375 0,0 -0.0038,0.09375 0.03125,0.12875 0.06875,0.07 0.39125,0.0725 0.39125,0.0725 0,0 0.04,0.06625 0.06,0.2075 0.02,0.14 0.02375,0.275 0.02875,0.34125 0.0063,0.06625 -0.0275,0.1125 -0.0425,0.23875 -0.015,0.125 -0.01875,0.2225 -0.07,0.43625 -0.08875,0.3625 -0.1175,0.68625 -0.1175,0.68625 0,0 0.03875,-0.02375 0.11125,-0.0175 0.0725,0.0075 0.09125,0.03625 0.09125,0.03625"/><path fill="#ffffff" d="m 19.935875,20.772125 v 0.32125 h -0.185 l -0.01125,-0.135 h -0.22125 v 0.85 l 0.13,0.025 v 0.14375 h -0.50125 v -0.14375 l 0.13,-0.025 v -0.85 h -0.22125 l -0.01,0.135 h -0.185 v -0.32125 z"/><path fill="#ffffff" d="m 20.49925,20.772125 v 0.14625 l -0.13,0.025 v 0.62875 c 0,0.08 0.0225,0.13875 0.065,0.17875 0.0425,0.03875 0.10125,0.05875 0.175,0.05875 0.07625,0 0.135,-0.02 0.17875,-0.05875 0.0425,-0.04 0.065,-0.09875 0.065,-0.17875 v -0.62875 l -0.12875,-0.025 v -0.14625 H 21.223 v 0.14625 l -0.12875,0.025 v 0.62875 c 0,0.135 -0.045,0.24 -0.13375,0.3125 -0.08875,0.07375 -0.20625,0.11 -0.35125,0.11 -0.14375,0 -0.26,-0.03625 -0.3475,-0.11 -0.08875,-0.0725 -0.13375,-0.1775 -0.13375,-0.3125 v -0.62875 l -0.1275,-0.025 v -0.14625 h 0.1275 0.24125 z"/><path fill="#ffffff" d="M 22.07275,21.44775 H 21.664 v 0.34375 h 0.39 l 0.01,-0.14375 h 0.18375 v 0.33 H 21.294 v -0.145 l 0.12875,-0.025 v -0.865 L 21.294,20.91775 V 20.7715 h 0.12875 0.82375 v 0.33125 h -0.185 L 22.05025,20.959 H 21.664 v 0.3025 h 0.40875 z"/><path fill="#ffffff" d="m 22.74725,21.44475 v 0.3475 h 0.2225 c 0.06375,0 0.11375,-0.01375 0.14625,-0.04125 0.035,-0.02875 0.05125,-0.07 0.05125,-0.12375 0,-0.06 -0.01375,-0.105 -0.04375,-0.13625 -0.02875,-0.03125 -0.07375,-0.04625 -0.135,-0.04625 z m 0,-0.1675 H 22.921 c 0.065,0 0.11375,-0.01375 0.14875,-0.04 0.035,-0.02625 0.0525,-0.065 0.0525,-0.115 0,-0.05625 -0.0175,-0.0975 -0.0525,-0.12375 -0.035,-0.02625 -0.0875,-0.04 -0.1575,-0.04 h -0.165 z m 0.165,-0.505 c 0.1425,0 0.2525,0.0275 0.3325,0.0825 0.07875,0.055 0.11875,0.13875 0.11875,0.24875 0,0.055 -0.015,0.105 -0.04375,0.14875 -0.03,0.04375 -0.0725,0.07625 -0.12875,0.09875 0.0725,0.01625 0.12625,0.04875 0.1625,0.09875 0.03625,0.05125 0.05375,0.11 0.05375,0.1775 0,0.115 -0.03625,0.2025 -0.11375,0.26125 -0.0775,0.05875 -0.18375,0.08875 -0.32375,0.08875 h -0.5925 V 21.8335 l 0.12875,-0.025 v -0.865 l -0.12875,-0.025 V 20.77225 H 22.506 Z"/><path fill="#ffffff" d="m 24.359125,21.364125 c 0,-0.125 -0.02625,-0.22625 -0.0775,-0.30375 -0.0525,-0.0775 -0.12875,-0.11625 -0.23,-0.11625 -0.10125,0 -0.1775,0.0375 -0.2275,0.115 -0.05,0.0775 -0.075,0.17875 -0.075,0.305 v 0.02 c 0,0.1275 0.025,0.22875 0.075,0.30625 0.05125,0.0775 0.1275,0.11625 0.22875,0.11625 0.10125,0 0.1775,-0.03875 0.22875,-0.11625 0.05125,-0.0775 0.0775,-0.17875 0.0775,-0.30625 z m 0.24,0.02 c 0,0.17625 -0.05,0.3225 -0.15125,0.4375 -0.1,0.115 -0.2325,0.1725 -0.395,0.1725 -0.16375,0 -0.29375,-0.0575 -0.395,-0.1725 -0.10125,-0.115 -0.15125,-0.26125 -0.15125,-0.4375 v -0.01875 c 0,-0.175 0.05,-0.32 0.15,-0.43625 0.10125,-0.11625 0.2325,-0.17375 0.395,-0.17375 0.16375,0 0.295,0.0575 0.39625,0.17375 0.10125,0.11625 0.15125,0.26125 0.15125,0.43625 z"/><path fill="#ffffff" d="m 25.067125,21.30375 h 0.1675 c 0.06625,0 0.11875,-0.01375 0.15125,-0.0425 0.03375,-0.02875 0.05,-0.07 0.05,-0.125 0,-0.05375 -0.01625,-0.09625 -0.05,-0.12875 -0.0325,-0.0325 -0.0825,-0.04875 -0.1475,-0.04875 h -0.17125 z m 0.17125,-0.53125 c 0.1375,0 0.24375,0.03125 0.3225,0.09375 0.0775,0.0625 0.11625,0.15 0.11625,0.26 0,0.06 -0.01625,0.1125 -0.04875,0.1575 -0.0325,0.045 -0.08,0.08125 -0.1425,0.10875 0.07125,0.02125 0.1225,0.05625 0.1525,0.105 0.03125,0.04875 0.0475,0.10875 0.0475,0.18125 V 21.74 c 0,0.02625 0.005,0.0475 0.015,0.06125 0.01125,0.015 0.0275,0.02375 0.0525,0.02625 l 0.03,0.0038 v 0.1462 h -0.125 c -0.07875,0 -0.135,-0.02125 -0.16625,-0.06375 -0.0325,-0.0425 -0.0475,-0.0975 -0.0475,-0.165 V 21.68 c 0,-0.05875 -0.01625,-0.10375 -0.0475,-0.1375 -0.03125,-0.0325 -0.075,-0.05125 -0.1325,-0.0525 h -0.1975 v 0.3175 l 0.13,0.025 v 0.145 h -0.5 v -0.145 l 0.12875,-0.025 v -0.865 l -0.12875,-0.025 v -0.145 h 0.12875 z"/></svg>