<svg xmlns="http://www.w3.org/2000/svg" viewBox="0 0 45 45"><path fill="#00297b" d="M 45,33.5 V 11 C 45,8.23875 42.76125,6 40,6 H 5 C 2.23875,6 0,8.23875 0,11 v 22.5 c 0,2.76125 2.23875,5 5,5 h 35 c 2.76125,0 5,-2.23875 5,-5"/><path fill="#ffffff" d="m 34.2175,22.24875 c 0,-6.47125 -5.24625,-11.7175 -11.7175,-11.7175 -6.47125,0 -11.7175,5.24625 -11.7175,11.7175 0,6.47125 5.24625,11.7175 11.7175,11.7175 6.47125,0 11.7175,-5.24625 11.7175,-11.7175"/><path fill="#ff350f" d="m 32.92975,22.24875 c 0,-5.76 -4.67,-10.42875 -10.43,-10.42875 -5.76,0 -10.42875,4.66875 -10.42875,10.42875 0,5.76 4.66875,10.43 10.42875,10.43 5.76,0 10.43,-4.67 10.43,-10.43"/><path fill="#ffffff" d="m 31.26225,22.24875 c 0,-4.84 -3.92375,-8.7625 -8.7625,-8.7625 -4.83875,0 -8.7625,3.9225 -8.7625,8.7625 0,4.83875 3.92375,8.7625 8.7625,8.7625 4.83875,0 8.7625,-3.92375 8.7625,-8.7625"/><path fill="#a85f39" d="m 18.634,14.7805 -0.0775,0.0575 0.53,0.56875 0.04375,0.05375 0.005,-0.0025 L 19.119,15.393 18.98275,14.6255 18.8915,14.65175 18.824,14.518 l 0.4075,-0.20375 0.06625,0.135 -0.0875,0.05875 0.155,1.13 -0.23,0.11375 -0.81,-0.8025 -0.0975,0.03375 -0.0675,-0.13375 0.40625,-0.2025 z"/><path fill="#a85f39" d="m 19.6075,14.349 -0.0475,-0.1425 0.48875,-0.16125 0.0475,0.1425 -0.11875,0.06625 0.28125,0.8475 0.13375,-0.01875 0.0475,0.1425 -0.49,0.1625 -0.04625,-0.1425 0.11875,-0.06625 -0.28125,-0.8475 z"/><path fill="#a85f39" d="m 20.888,14.40025 0.17,-0.03 c 0.0675,-0.01375 0.11625,-0.0375 0.145,-0.0725 0.02875,-0.035 0.03875,-0.08 0.02875,-0.135 -0.01,-0.055 -0.035,-0.09625 -0.075,-0.1225 C 21.118,14.014 21.06425,14.0065 20.998,14.01775 l -0.17375,0.0325 z M 20.96425,13.829 c 0.13875,-0.025 0.25375,-0.0125 0.34375,0.03625 0.09,0.04875 0.14625,0.13 0.16625,0.24125 0.01125,0.06125 0.005,0.11875 -0.02,0.17 -0.025,0.05125 -0.0675,0.0975 -0.125,0.13625 0.07625,0.0088 0.13375,0.035 0.175,0.0775 0.04,0.04375 0.0675,0.1025 0.08125,0.17625 l 0.01125,0.0625 c 0.005,0.02625 0.01375,0.04625 0.02625,0.06 0.01375,0.0125 0.03375,0.0175 0.05875,0.01625 L 21.713,14.804 21.73925,14.9515 21.613,14.97525 c -0.08,0.015 -0.14125,0.0025 -0.18125,-0.03375 -0.04,-0.0375 -0.06625,-0.09 -0.07875,-0.15875 l -0.0125,-0.07 C 21.32925,14.654 21.30425,14.61025 21.26675,14.5815 21.22925,14.554 21.18175,14.544 21.123,14.55275 l -0.2,0.03625 0.05875,0.32375 0.135,0.0013 0.0275,0.14625 -0.5075,0.0925 -0.02625,-0.1475 0.125,-0.04875 -0.16,-0.8775 -0.13375,-0.0012 -0.0275,-0.1475 0.13,-0.025 z"/><path fill="#a85f39" d="m 22.95475,14.79825 c -0.04,0.04 -0.09875,0.07625 -0.17625,0.10875 -0.0775,0.0325 -0.175,0.04875 -0.29375,0.05 -0.1675,0.0012 -0.305,-0.055 -0.41125,-0.16625 -0.10625,-0.11125 -0.15875,-0.2575 -0.16,-0.4375 v -0.0425 c -0.0012,-0.18625 0.05,-0.3375 0.1525,-0.455 0.10375,-0.1175 0.23875,-0.1775 0.40625,-0.1775 0.0975,0 0.18625,0.01375 0.2675,0.045 0.08,0.03 0.1475,0.07125 0.20125,0.125 l 0.0013,0.25 h -0.1838 l -0.03625,-0.165 c -0.0225,-0.02 -0.05375,-0.035 -0.09,-0.04625 -0.0375,-0.01125 -0.08,-0.0175 -0.12875,-0.0175 -0.10875,0.0013 -0.19375,0.0425 -0.2525,0.1225 -0.06,0.08 -0.09,0.185 -0.08875,0.315 v 0.045 c 0,0.12625 0.03125,0.2275 0.09,0.3025 0.06,0.075 0.14625,0.1125 0.2575,0.11125 0.05,0 0.09,-0.005 0.12125,-0.01375 0.03125,-0.0087 0.055,-0.01875 0.0725,-0.03 l -0.0012,-0.21125 -0.1775,-0.0125 -0.0013,-0.175 0.42875,-0.0025 z"/><path fill="#a85f39" d="m 23.319125,13.87725 0.02,-0.14875 0.51125,0.06625 -0.02,0.15 -0.135,0.0075 -0.11625,0.885 0.12875,0.0425 -0.02,0.1475 -0.51,-0.06625 0.01875,-0.1475 0.13625,-0.0088 0.11625,-0.885 z"/><path fill="#a85f39" d="m 25.462625,14.194 -0.04,0.145 -0.13625,-0.0125 -0.2925,1.02625 -0.23875,-0.0675 -0.25375,-0.9425 -0.005,-0.0012 -0.18125,0.635 0.12125,0.0625 -0.04125,0.14375 -0.495,-0.14125 0.04,-0.145 0.135,0.0125 0.245,-0.85875 -0.12,-0.06125 0.04,-0.14375 0.12875,0.03625 0.23875,0.06875 0.25375,0.9425 0.005,0.0012 0.18125,-0.635 -0.12125,-0.0625 0.04125,-0.14375 0.36625,0.105 z"/><path fill="#a85f39" d="m 25.769,14.499125 0.0625,-0.13625 0.46875,0.21375 -0.06375,0.13625 -0.13125,-0.03125 -0.37,0.81125 0.11125,0.07875 -0.0625,0.13625 -0.46875,-0.21375 0.0625,-0.13625 0.13125,0.0325 0.37,-0.8125 z"/><path fill="#a85f39" d="m 26.604,15.573375 0.23875,0.155 0.12,-0.445 -0.005,-0.0025 z m -0.58,0.0675 0.0825,0.0375 0.90125,-0.705 0.215,0.1375 -0.2675,1.1125 0.06875,0.05875 -0.08125,0.12625 -0.3575,-0.22875 0.0825,-0.12625 0.08,0.03375 0.04625,-0.17375 -0.33875,-0.2175 -0.1375,0.11375 0.0625,0.06 -0.08,0.12625 -0.35625,-0.22875 z"/><path fill="#a85f39" d="m 16.46425,27.225625 -0.09125,-0.1225 0.095,-0.10375 c -0.0012,-0.02 -0.0087,-0.0475 -0.0225,-0.07875 -0.01375,-0.0325 -0.0325,-0.06375 -0.055,-0.09375 -0.0325,-0.04375 -0.0675,-0.07125 -0.105,-0.0825 -0.03625,-0.01 -0.07,-0.0038 -0.1,0.01875 -0.0275,0.02 -0.04,0.05 -0.03875,0.0875 0.0012,0.03875 0.01625,0.09625 0.0425,0.17375 0.0425,0.10875 0.06,0.2 0.05375,0.2775 -0.0062,0.07625 -0.0425,0.13875 -0.10875,0.18875 -0.06875,0.0525 -0.14375,0.06625 -0.225,0.04 -0.08125,-0.02375 -0.155,-0.08125 -0.2225,-0.17125 -0.0475,-0.06375 -0.08125,-0.13 -0.09875,-0.19625 -0.01875,-0.0675 -0.0225,-0.13125 -0.0125,-0.1925 l 0.16875,-0.12625 0.09375,0.125 -0.1025,0.10375 c 0,0.02625 0.005,0.05625 0.0175,0.09125 0.01125,0.035 0.03125,0.06875 0.0575,0.1025 0.0325,0.045 0.06625,0.0725 0.1025,0.0825 0.035,0.0075 0.06875,0.0025 0.09875,-0.02125 0.03125,-0.02375 0.0475,-0.0525 0.05,-0.08875 0.0025,-0.03625 -0.0087,-0.08875 -0.03375,-0.155 -0.04375,-0.1175 -0.065,-0.21375 -0.06375,-0.2925 0.0013,-0.0775 0.035,-0.14125 0.10125,-0.19125 0.065,-0.04875 0.14,-0.06125 0.2225,-0.03625 0.08375,0.02375 0.1575,0.0775 0.22125,0.16125 0.0475,0.06125 0.08,0.125 0.09875,0.19125 0.02,0.065 0.0275,0.12625 0.02125,0.18375 z"/><path fill="#a85f39" d="m 16.579,27.04 0.0925,-0.07875 0.2725,0.31625 -0.0925,0.08 -0.08625,-0.06875 -0.55125,0.47125 0.055,0.095 -0.0925,0.08 -0.2725,-0.3175 0.0925,-0.08 0.08625,0.06875 L 16.634,27.135 Z"/><path fill="#a85f39" d="m 17.213125,28.04225 -0.105,-0.1075 0.08,-0.11 c 0,-0.0275 -0.005,-0.05625 -0.01875,-0.08625 -0.0125,-0.03 -0.03375,-0.05875 -0.0625,-0.0875 -0.06125,-0.0625 -0.1325,-0.09 -0.21125,-0.07875 -0.07875,0.01125 -0.15375,0.05375 -0.2275,0.12625 l -0.025,0.02375 c -0.07375,0.0725 -0.11625,0.1475 -0.12875,0.22625 -0.0125,0.07875 0.01125,0.14875 0.07125,0.21 0.02875,0.0275 0.0575,0.05 0.08875,0.06625 0.03125,0.015 0.06125,0.0225 0.0875,0.02125 l 0.11125,-0.08 0.105,0.1075 -0.1425,0.14 c -0.0625,0.005 -0.125,-0.0062 -0.19,-0.0325 -0.06375,-0.025 -0.12375,-0.065 -0.1775,-0.12 -0.095,-0.0975 -0.14,-0.20875 -0.13375,-0.3375 0.0062,-0.12625 0.06125,-0.2425 0.16625,-0.345 l 0.025,-0.025 c 0.10375,-0.1025 0.22,-0.15625 0.3475,-0.16125 0.1275,-0.0038 0.23875,0.04125 0.335,0.13875 0.055,0.05625 0.09375,0.11625 0.1175,0.18 0.02375,0.065 0.03375,0.12875 0.03,0.19125 z"/><path fill="#a85f39" d="m 18.046875,28.684375 -0.12125,-0.0925 0.06375,-0.1275 c -0.0075,-0.0175 -0.02125,-0.0425 -0.04375,-0.06875 -0.02125,-0.0275 -0.0475,-0.0525 -0.0775,-0.075 -0.04375,-0.03375 -0.085,-0.05125 -0.12375,-0.05125 -0.0375,0 -0.06875,0.01625 -0.09125,0.045 -0.02125,0.0275 -0.025,0.05875 -0.01375,0.095 0.0125,0.0375 0.0425,0.09 0.08875,0.155 0.07,0.09375 0.11125,0.1775 0.12625,0.25125 0.015,0.07625 -0.0025,0.1475 -0.0525,0.2125 -0.0525,0.06875 -0.12125,0.10125 -0.20625,0.1 -0.085,-0.0013 -0.17125,-0.03625 -0.26,-0.105 -0.06375,-0.04875 -0.11375,-0.1025 -0.14875,-0.16125 -0.03625,-0.05875 -0.0575,-0.12 -0.065,-0.18125 l 0.12875,-0.16875 0.12375,0.095 -0.07,0.1275 c 0.0063,0.02625 0.02,0.05375 0.04125,0.08375 0.02125,0.03 0.04875,0.0575 0.0825,0.08375 0.045,0.03375 0.085,0.05125 0.12125,0.05 0.0375,0 0.06625,-0.01625 0.09,-0.045 0.02375,-0.0325 0.03125,-0.065 0.02375,-0.1 -0.0075,-0.03625 -0.0325,-0.0825 -0.07375,-0.14125 -0.075,-0.1 -0.12125,-0.1875 -0.14125,-0.26375 -0.02,-0.075 -0.005,-0.145 0.045,-0.21125 0.05,-0.065 0.1175,-0.0975 0.205,-0.09625 0.08625,0 0.17125,0.0325 0.25625,0.095 0.0625,0.0475 0.11125,0.1 0.1475,0.15625 0.03625,0.05875 0.06,0.11625 0.07,0.17375 z"/><path fill="#a85f39" d="m 18.44,29.215375 -0.29,-0.18125 -0.1525,0.24625 0.27625,0.17125 0.07125,-0.0975 0.13125,0.0825 -0.14625,0.23375 -0.67875,-0.4225 0.06375,-0.10375 0.1025,0.04 0.38375,-0.61625 -0.08,-0.07375 0.06375,-0.10375 0.0925,0.0575 0.585,0.365 -0.14625,0.23375 -0.13125,-0.08125 0.05625,-0.1075 -0.275,-0.17125 -0.135,0.21625 0.29125,0.18125 z"/><path fill="#a85f39" d="m 19.62275,29.46075 -0.0025,-0.0025 -0.555,0.57125 -0.12375,-0.05625 0.06,-0.79 -0.0038,-0.0012 -0.16375,0.4125 -0.06625,0.145 0.09125,0.0625 -0.05,0.11125 -0.3825,-0.17125 0.05,-0.11125 0.10625,0.025 0.29875,-0.66 -0.09,-0.06375 0.05,-0.11125 0.09875,0.04375 0.24125,0.10875 -0.07125,0.78375 0.0038,0.0025 0.5425,-0.5725 0.34,0.15375 -0.05,0.11125 -0.1075,-0.025 -0.2975,0.66125 0.09,0.06375 -0.05,0.11 -0.38125,-0.17125 0.05,-0.11125 0.10625,0.025 0.065,-0.145 z"/><path fill="#a85f39" d="m 20.114125,29.866 0.16375,0.04875 c 0.05375,0.01625 0.09875,0.01375 0.135,-0.0087 0.0375,-0.02 0.0625,-0.05375 0.075,-0.1 0.015,-0.04625 0.0125,-0.08875 -0.0075,-0.12625 -0.0175,-0.04 -0.05375,-0.0675 -0.1075,-0.08375 l -0.165,-0.0475 z m 0.3025,-0.41875 c 0.11125,0.0325 0.19,0.08625 0.2375,0.16375 0.04625,0.075 0.05625,0.16 0.02875,0.25125 -0.0275,0.0925 -0.08125,0.1575 -0.1625,0.195 -0.08,0.03875 -0.17625,0.04 -0.2875,0.0062 l -0.16375,-0.0475 -0.0625,0.215 0.0975,0.05 -0.035,0.1175 -0.40125,-0.12 0.035,-0.11625 0.10875,0.01 0.20625,-0.695 -0.0975,-0.05 0.035,-0.11625 0.10375,0.03 z"/><path fill="#a85f39" d="m 21.210375,30.209 -0.33625,-0.06375 -0.05375,0.28375 0.32,0.06125 0.0325,-0.1175 0.15125,0.02875 -0.0525,0.27125 -0.785,-0.14875 0.0225,-0.12 h 0.11 l 0.135,-0.7125 -0.10125,-0.04 0.0225,-0.12 0.105,0.02 0.67875,0.12875 -0.05125,0.27125 -0.1525,-0.02875 0.0125,-0.12 -0.3175,-0.06 -0.0475,0.24875 0.33625,0.06375 z"/><path fill="#a85f39" d="m 21.70475,30.1455 0.14,0.0125 c 0.05625,0.005 0.09875,-0.0038 0.12875,-0.02625 0.03125,-0.02125 0.0475,-0.055 0.05125,-0.1 0.0038,-0.045 -0.0075,-0.0825 -0.0325,-0.11125 -0.02625,-0.02875 -0.06625,-0.04625 -0.12,-0.05125 L 21.7285,29.858 Z m 0.18,-0.43125 c 0.11375,0.0088 0.2025,0.0425 0.2625,0.1 0.06125,0.0575 0.0875,0.13375 0.07875,0.225 -0.0025,0.05125 -0.02125,0.09375 -0.05125,0.13 -0.03,0.03375 -0.0725,0.06 -0.1275,0.08 0.05875,0.0225 0.1,0.055 0.1225,0.0975 0.0225,0.0425 0.03,0.095 0.02625,0.155 L 22.191,30.553 c -0.0012,0.0225 0.0013,0.04 0.0088,0.0525 0.0075,0.01375 0.0225,0.0225 0.0425,0.02625 l 0.0237,0.0062 -0.01,0.12 -0.10375,-0.0087 C 22.086,30.74425 22.041,30.723 22.01725,30.6855 21.9935,30.64675 21.98475,30.6005 21.9885,30.54425 l 0.005,-0.0575 c 0.0038,-0.04875 -0.005,-0.08875 -0.02875,-0.1175 -0.025,-0.03125 -0.06,-0.0475 -0.1075,-0.05375 l -0.165,-0.01375 -0.0225,0.265 0.10625,0.03 -0.01,0.12125 -0.4175,-0.03375 0.01125,-0.1225 0.10875,-0.01125 0.05875,-0.7225 -0.105,-0.02875 0.01,-0.1225 0.1075,0.0087 z"/><path fill="#a85f39" d="m 23.471625,29.690125 0.02,0.26875 -0.15625,0.01125 -0.015,-0.1125 -0.18625,0.0125 0.05,0.71 0.1075,0.01375 0.0087,0.12 -0.4175,0.03 -0.0087,-0.12125 0.10625,-0.0275 -0.04875,-0.71125 -0.185,0.0125 v 0.11375 l -0.155,0.01125 -0.0175,-0.26875 z"/><path fill="#a85f39" d="m 23.772,29.75975 -0.07875,0.02625 0.2125,0.29875 0.0038,-0.0012 0.09625,-0.35375 -0.0825,0.0025 -0.02125,-0.12 0.375,-0.06875 0.0225,0.12125 -0.0825,0.0275 -0.1775,0.56125 0.0375,0.20875 0.11,0.0013 0.0225,0.12 -0.4125,0.07375 -0.02125,-0.11875 0.1025,-0.04 -0.04,-0.22 -0.35625,-0.4525 -0.08625,0.0012 -0.02125,-0.12 0.375,-0.06875 z"/><path fill="#a85f39" d="m 24.632625,29.89775 0.13375,-0.04 c 0.055,-0.01625 0.0925,-0.03875 0.1125,-0.07125 0.02,-0.03 0.02375,-0.06875 0.01125,-0.11125 -0.01375,-0.04375 -0.03625,-0.07375 -0.0725,-0.0925 -0.03375,-0.0175 -0.07625,-0.01875 -0.12875,-0.0038 l -0.1375,0.04125 z m 0.01125,-0.4675 c 0.11,-0.0325 0.20375,-0.0325 0.28125,-0.0012 0.0775,0.03125 0.13,0.09125 0.155,0.18125 0.015,0.04875 0.015,0.09375 -0.0012,0.1375 -0.015,0.04375 -0.045,0.08375 -0.08875,0.1225 0.0625,0 0.11125,0.01375 0.1475,0.0475 0.0375,0.03125 0.065,0.075 0.0825,0.13375 l 0.01375,0.04875 c 0.0062,0.0225 0.015,0.03625 0.0275,0.04625 0.0125,0.0088 0.0275,0.0125 0.04875,0.0088 l 0.025,-0.0038 0.03375,0.1175 -0.1,0.02875 c -0.06375,0.01875 -0.1125,0.015 -0.14875,-0.01 -0.03625,-0.0275 -0.06125,-0.0675 -0.07875,-0.12125 l -0.01625,-0.05625 c -0.01375,-0.04625 -0.0375,-0.08 -0.07,-0.09875 -0.03375,-0.02 -0.0725,-0.02375 -0.11875,-0.01125 l -0.15875,0.0475 0.07625,0.255 0.11,-0.01125 0.03375,0.11625 -0.4,0.12 -0.03625,-0.11625 0.0975,-0.05125 -0.20625,-0.695 -0.11,0.01 -0.03375,-0.11625 0.1025,-0.03125 z"/><path fill="#a85f39" d="m 25.58225,29.72075 0.2125,-0.09 L 25.551,29.347 25.5472,29.3483 Z m -0.22,0.42 0.0625,-0.0375 -0.06125,-0.92875 0.19125,-0.08125 0.625,0.68875 0.07,-0.02 0.0475,0.1125 -0.31625,0.13375 -0.0475,-0.11 0.06,-0.04 -0.09625,-0.11 -0.3,0.12875 0.0125,0.145 0.07,-0.015 0.0475,0.11 -0.3175,0.13625 z"/><path fill="#a85f39" d="m 26.71875,28.464625 0.06125,0.10625 -0.08375,0.0725 0.4375,0.74875 -0.175,0.10125 -0.69375,-0.38125 -0.0038,0.0025 0.27,0.46375 0.105,-0.03625 0.06,0.105 -0.36125,0.21 -0.06125,-0.105 0.0825,-0.07125 -0.365,-0.62625 -0.10375,0.035 -0.06125,-0.105 0.0925,-0.055 0.17625,-0.10125 0.695,0.3825 0.0025,-0.0025 -0.27,-0.46375 -0.10375,0.03625 -0.06125,-0.105 0.2675,-0.15625 z"/><path fill="#a85f39" d="m 27.486625,27.86525 0.075,0.09625 -0.07375,0.08375 0.52875,0.68625 -0.16,0.12375 -0.7375,-0.29 -0.0038,0.0025 0.32875,0.425 0.0975,-0.04875 0.075,0.09625 -0.3325,0.25625 -0.07375,-0.0975 0.0725,-0.08125 -0.4425,-0.575 -0.0975,0.04875 -0.07375,-0.09625 0.08375,-0.06625 0.16125,-0.1225 0.73875,0.28875 0.0025,-0.0025 -0.3275,-0.425 -0.09875,0.04875 -0.075,-0.09625 0.2475,-0.18875 z"/><path fill="#a85f39" d="m 27.467,28.0215 -0.0825,-0.09 0.31,-0.2825 0.08125,0.09 -0.06625,0.09 0.48875,0.535 0.09375,-0.0575 0.0825,0.09 -0.30875,0.28125 -0.0825,-0.09 0.06625,-0.0875 -0.48875,-0.53625 z"/><path fill="#a85f39" d="m 28.378875,27.40625 -0.105,0.11 -0.11875,-0.0775 c -0.02,0.005 -0.045,0.0175 -0.07375,0.03625 -0.03,0.0175 -0.0575,0.04125 -0.08375,0.0675 -0.03875,0.04125 -0.06,0.08 -0.06375,0.1175 -0.0038,0.0375 0.0062,0.07 0.03375,0.095 0.02375,0.025 0.05625,0.0325 0.0925,0.025 0.0375,-0.0075 0.0925,-0.03125 0.165,-0.07 0.09875,-0.05875 0.1875,-0.09125 0.26375,-0.0975 0.07625,-0.0063 0.145,0.02 0.205,0.0775 0.0625,0.05875 0.0875,0.13125 0.075,0.215 -0.01,0.085 -0.055,0.16625 -0.1325,0.2475 -0.05625,0.0575 -0.115,0.10125 -0.17875,0.12875 -0.0625,0.03 -0.125,0.04375 -0.1875,0.04375 l -0.15125,-0.14625 0.10875,-0.11375 0.11875,0.085 c 0.025,-0.0025 0.055,-0.01375 0.08625,-0.03125 0.0325,-0.0175 0.06375,-0.0425 0.0925,-0.0725 0.03875,-0.04125 0.06,-0.07875 0.06375,-0.115 0.0038,-0.03625 -0.0075,-0.06875 -0.035,-0.09375 -0.02875,-0.0275 -0.06,-0.04 -0.0975,-0.03625 -0.035,0.0038 -0.085,0.02375 -0.1475,0.0575 -0.10875,0.0625 -0.2,0.1 -0.27625,0.11125 -0.07875,0.01125 -0.1475,-0.0125 -0.205,-0.06875 -0.06,-0.05625 -0.085,-0.12875 -0.07375,-0.21375 0.01125,-0.0875 0.0525,-0.16875 0.12375,-0.245 0.055,-0.05625 0.11125,-0.09875 0.1725,-0.12875 0.06125,-0.03 0.12125,-0.04625 0.18,-0.05 z"/><path fill="#97c8f0" d="m 20.4095,24.443625 2.6425,-0.33375 0.63125,-0.99875 0.1575,-0.57875 0.80375,0.0875 -0.30375,-0.725 -0.82375,0.42125 -0.16625,-0.5875 0.285,-0.37375 -0.37375,-0.205 -0.01,-0.21625 0.43625,-0.115 -0.3475,-1.28625 -0.6175,-0.265 -1.43125,-1.9025 -0.53,0.04875 -0.16625,1.815 0.29875,0.6225 0.27,-0.1625 0.14375,0.16 -0.54375,1.16625 -0.08125,1.55875 z"/><path fill="#97c8f0" d="m 21.588125,16.499875 0.4675,-0.28375 0.87125,-0.0175 -0.71375,-1.22875 -0.625,-0.05125 -0.44125,0.53 0.07375,0.67625 z"/><path fill="#965a46" d="m 19.610625,16.80875 -0.155,3.94875 -0.26375,6.3975 0.33,0.03375 0.10125,-3.0275 0.2125,-3.42375 0.08875,-4.31375 z"/><path fill="#c5c5c5" d="m 19.522125,27.189 v 0.23125 l 0.18,0.2775 -0.0225,0.3 -0.37375,0.84375 -0.33875,-0.97 0.01875,-0.28375 0.26375,-0.20625 -0.05875,-0.22625 z"/><path fill="#4f4036" d="m 22.055,16.216625 -0.11375,0.33875 -0.15875,0.02625 0.08875,0.1575 -0.03625,0.57625 -0.39375,-0.54875 0.14625,-0.26625 z"/><path fill="#ffd9c5" d="m 22.8015,16.201375 -0.125,0.1325 0.09625,0.25125 -0.09625,0.4925 h -0.19125 l -0.025,0.2875 0.9,0.30375 0.63375,0.95625 -0.1375,1.0325 -0.5175,-0.8125 -0.21,0.59625 -0.40625,-0.17375 -1.43125,-1.9025 0.26,-0.04875 0.13625,-0.205 0.1475,0.205 0.03625,-0.5775 -0.08875,-0.1575 0.15875,-0.02625 0.11375,-0.33875 z"/><path fill="#c8c8c8" d="m 23.68775,20.81875 0.5025,-3.45375 0.22125,-0.27625 0.23375,0.0725 0.09,0.43375 -0.30625,1.96625 -0.41,1.57125 -0.38375,0.2225 -0.37375,-0.205 -0.01,-0.21625 z"/><path fill="#ffd9c5" d="m 20.762375,17.414125 -0.87,0.53375 -0.01375,0.6875 0.79375,-0.24 z"/><path fill="#ffd9c5" d="m 19.53425,18.74475 -0.3425,0.1225 -0.30625,-0.16125 -0.09125,-0.655 0.31625,-1.27875 0.24625,-0.3475 0.15125,-0.9175 0.49875,0.07 0.0625,0.695 -0.145,0.1525 -0.31375,0.38375 -0.17875,0.71375 0.13125,0.485 z"/><path fill="#ffd9c5" d="m 24.433625,19.5345 0.24,0.4975 -0.24,1.195 -0.15125,0.22625 0.05875,0.44125 -0.82375,0.42125 -0.16625,-0.5875 0.28375,-0.3725 0.38375,-0.22375 z"/><path fill="#ffd9c5" d="m 24.64475,22.619875 v 1.65625 l -0.3775,1.6925 0.66625,0.52 0.1025,0.39125 -0.28375,0.15625 -1.0825,-0.58375 0.15625,-0.705 -0.15625,-1.3675 0.16125,-0.6325 -0.14875,-0.63625 0.1575,-0.57875 z"/><path fill="#ffd9c5" d="m 21.95925,24.24825 0.0975,1.43125 -0.1725,0.79375 0.1725,1.3775 -0.08625,0.5 1.0175,-0.025 0.71625,-0.54375 0.42,-0.03875 0.47625,0.8225 -1.31375,0.28 -0.255,0.22 -0.90625,0.05875 -1.21125,-0.41625 -0.26,0.13375 L 19.968,28.71325 19.78175,28.1345 20.243,28.057 l 1.0975,0.24875 -0.0087,-0.3075 0.23875,-0.74625 -0.3425,-0.75875 -0.07375,-0.6675 -0.77,0.43625 -0.46,0.5 -0.08375,-0.75 0.05375,-0.76875 -0.32125,0.41125 0.05,-1.4925 0.015,-0.2425 0.335,-0.23 0.51,0.2525 -0.07375,0.50125 z"/><path fill="#ffd9c5" d="m 19.24075,25.963375 -0.62375,0.78625 -0.36625,0.7725 -1.3825,-0.78 -0.1475,-0.6025 0.1325,-0.17625 0.55875,0.4425 h 0.5225 l 0.6825,-0.85375 -1.7275,0.13125 -0.58875,0.49375 -1.02125,-1.33875 -0.14,-0.41125 0.2275,-0.0525 0.2875,0.42625 1.05875,0.30875 1.71375,-0.58 0.68375,-0.0075 0.19875,-0.22875 z"/><path fill="#ffd9c5" d="m 23.41425,25.890125 -0.43125,0.1275 -0.20625,0.3375 -0.27375,0.05125 -0.045,-0.23625 -0.26,0.23625 -0.0925,-0.25875 0.19625,-0.34625 0.77375,-0.14 z"/><path fill="#ffd9c5" d="M 24.895,26.13425 25.13875,25.983 h 0.36375 l 0.06875,0.38625 -0.55375,-0.0875 z"/><path fill="#ffd9c5" d="m 25.51275,26.53225 -0.28,0.23375 0.1275,0.86 0.65125,-0.12875 0.24125,0.1325 0.24,-0.05375 L 26.174,27.36475 26.3015,27.25725 26.724,27.306 26.86525,27.01225 27.419,26.9585 27.49775,26.76225 27.199,26.36975 H 26.904 L 26.70275,26.17725 26.464,26.2135 26.0365,26.061 25.87525,26.2235 v 0.31375 z"/><path fill="#4f4036" d="m 27.4975,26.76175 0.1275,0.4075 -0.035,0.3775 -0.6175,0.31875 H 26.065 L 25.86,27.62925 25.375,27.728 25.36,27.6255 l 0.6525,-0.1275 0.24,0.13125 0.24,-0.05375 -0.31875,-0.21125 0.1275,-0.1075 0.4225,0.05 0.14125,-0.295 0.555,-0.05375 z"/><path fill="#a039a8" d="m 25.233125,26.766625 0.14125,0.9625 -0.48,0.8 -0.29375,0.03625 -0.47625,-0.8225 -0.42125,0.03875 -0.715,0.54375 -1.0175,0.02625 0.0625,-0.37 0.39,-0.0225 0.275,-0.455 -0.61125,-0.625 0.41625,-0.4725 0.27375,-0.05125 0.20625,-0.33875 0.43125,-0.12625 0.41125,-0.1425 -0.15625,0.705 1.0825,0.58375 0.285,-0.15625 -0.1025,-0.3925 -0.66625,-0.52 0.02625,-0.12375 0.6,0.29 0.1225,0.1475 0.555,0.08875 -0.05875,0.1625 z"/><path fill="#a039a8" d="m 22.1985,26.4065 -0.26875,0.42875 -0.045,-0.36125 0.0225,-0.10125 z"/><path fill="#c5c5c5" d="m 22.503625,26.4065 -0.045,-0.23625 -0.26,0.23625 -0.26875,0.42875 0.12625,1.015 -0.0225,0.13125 0.39,-0.0225 0.275,-0.455 -0.61125,-0.625 z"/><path fill="#a039a8" d="m 21.331125,27.99825 -0.74,0.1375 -0.34875,-0.07875 -0.3175,0.05375 -0.2225,-0.4125 -0.02875,-0.465 0.25125,-0.47125 0.46,-0.5 0.76875,-0.43625 0.07375,0.6675 0.34375,0.75875 z"/><path fill="#663d3d" d="m 18.250125,27.52225 -0.16875,0.1225 -1.31875,-0.80375 -0.1375,-0.49 0.095,-0.21125 0.1475,0.6025 z"/><path fill="#663d3d" d="M 16.30125,26.177 15.28,24.83825 15.14,24.427 l -0.1475,0.1 0.1475,0.4225 0.98,1.29375 z"/><path fill="#4696e6" d="m 23.682875,23.110625 0.10125,0.43625 -0.635,0.81375 -1.1575,0.3775 -0.0325,-0.49 1.0925,-0.1375 z"/><path fill="#ffd93c" d="m 29.154,25.786375 -1.0075,0.06 -0.455,-0.08625 -0.19375,-0.785 0.1975,0.1275 0.15375,-0.1575 0.2425,0.11375 0.1725,-0.1425 0.23625,0.15375 0.26125,-0.13625 0.15875,0.165 0.28875,-0.1275 0.0525,0.15375 0.19,-0.12125 z"/></svg>