<svg xmlns="http://www.w3.org/2000/svg" viewBox="0 0 45 45"><defs><clipPath id="clipPath16" clipPathUnits="userSpaceOnUse"><path d="M5,38.75c-2.761,0-5-2.239-5-5l0-22.5c0-2.761,2.239-5,5-5l35,0c2.761,0,5,2.239,5,5l0,22.5 c0,2.761-2.239,5-5,5L5,38.75z"/></clipPath></defs><g clip-path="url(#clipPath16)"><path fill="#eeeeee" d="m 0.001125,10.3125 h 45 V 6.25 h -45 z"/><path fill="#cf142b" d="m 0.001125,14.375 h 45 v -4.0625 h -45 z"/><path fill="#00247d" d="m 0.001125,18.4375 h 45 V 14.375 h -45 z"/><path fill="#eeeeee" d="m 0.001125,22.5 h 45 v -4.0625 h -45 z"/><path fill="#cf142b" d="m 0.001125,26.5625 h 45 V 22.5 h -45 z"/><path fill="#00247d" d="m 0.001125,30.625 h 45 v -4.0625 h -45 z"/><path fill="#eeeeee" d="m 0.001125,34.6875 h 45 V 30.625 h -45 z"/><path fill="#cf142b" d="m 0.001125,38.75 h 45 v -4.0625 h -45 z"/><path fill="#00247d" d="m 23.751125,6.25 h -23.75 V 22.5 h 23.75 z"/><path fill="#eeeeee" d="M 9.23875,14.379875 0,20.957375 v 1.5425 h 4.165 l 8.33625,-5.83625 8.335,5.83625 h 2.915 v -2.53625 l -7.9825,-5.58875 7.9825,-5.58875 V 6.249875 H 20.8375 l -8.3375,5.8375 -8.33375,-5.8375 h -4.165 v 1.665 z"/><path fill="#cf142b" d="m 13.591875,15.139125 10.15875,7.1125 v -1.52375 l -10.15875,-7.115 10.15875,-7.115 v -0.2475 h -1.825 l -10.515,7.36125 -10.5125,-7.36125 -0.8975,0.89 11.41,7.99875 -10.4925,7.36125 h 0.3325 1.82625 z"/><path fill="#eeeeee" d="m 23.751125,11.25 h -8.75 v -5 h -6.25 v 5 h -8.75 v 6.25 h 8.75 v 5 h 6.25 v -5 h 8.75 z"/><path fill="#cf142b" d="m 13.751125,16.25 v 6.25 h -3.75 v -6.25 h -10 V 12.5 h 10 V 6.25 h 3.75 v 6.25 h 10 v 3.75 z"/></g></svg>