<svg xmlns="http://www.w3.org/2000/svg" viewBox="0 0 45 45"><rect x="11.25" y="6.246" fill="#081F40" width="24.42" height="32.5"/><rect x="33.75" y="6.246" fill="#EAAB22" width="1.92" height="32.5"/><rect x="9.33" y="6.246" fill="#EAAB22" width="1.92" height="32.5"/><path fill="#C21F32" d="M45,11.246v22.5c0,2.76-2.24,5-5,5h-4.33v-32.5H40C42.76,6.246,45,8.486,45,11.246z"/><path fill="#C21F32" d="M9.33,6.246v32.5H5c-2.76,0-5-2.24-5-5v-22.5c0-2.76,2.24-5,5-5H9.33z"/><polygon fill="#EAAB22" points="22.5,13.862 21.772,14.327 21.99,13.491 21.322,12.943 22.185,12.891 22.5,12.087 22.815,12.891 23.678,12.943 23.01,13.491 23.228,14.327 "/><path fill="#FFFFFF" d="M23.872,24.913c0,0,0.169,0.274,0.369,0.513c0.2,0.238,0.476,0.518,0.476,0.518s0.412,1.782-2.565,1.782c-2.447,0-2.212-1.765-2.212-1.765s0.25-0.053,0.704-0.331c0.454-0.278,0.602-0.469,0.602-0.469s0.563,0.301,1.223,0.301C23.096,25.461,23.872,24.913,23.872,24.913z M18.435,23.294c0,0,0.353,0.143,0.926,0.31s0.884,0.218,0.884,0.218s0.108,0.214,0.352,0.563c0.244,0.35,0.41,0.529,0.41,0.529s-0.243,0.61-1.271,0.773c-0.939,0.148-2.635-0.109-3.302-0.91c-0.504-0.605,0.105-1.053,0.596-1.263C17.713,23.222,18.435,23.294,18.435,23.294z M19.796,20.93c0,0-0.158,0.551,0.006,1.079c0.162,0.521,0.505,0.868,0.505,0.868s-0.119,0.156-0.166,0.338c-0.047,0.182-0.024,0.344-0.024,0.344s-2.695-0.39-2.624-2.224C17.553,19.831,19.796,20.93,19.796,20.93z M24.075,24.721 l0.698-0.698c0,0,1.914-0.635,2.659-0.635s1.639,0.667,1.475,1.38c-0.165,0.714-2.298,1.2-3.098,1.2C24.514,25.968,24.075,24.721,24.075,24.721z M24.953,23.719c0,0-0.18-0.211-0.506-0.371c-0.326-0.161-0.694-0.205-0.694-0.205s0.255-0.518,0.424-1.085c0.175-0.589,0.141-0.986,0.141-0.986s0.741-1.524,2.118-1.524c0.772,0,1.106,0.541,1.106,1.871s-0.382,1.724-0.382,1.724s-0.627,0.089-1.224,0.245C25.339,23.544,24.953,23.719,24.953,23.719z M24.676,23.719c0,0-1.1,1.518-2.265,1.518c-0.618,0-1.2-0.353-1.516-0.856c-0.366-0.584-0.702-1.095-0.702-1.095s0.206-0.306,0.865,0.102c0.659,0.408,0.662,0.683,1.8,0.296C24.276,23.201,24.676,23.719,24.676,23.719z M21.11,23.113c0,0-1.122-0.627-1.122-1.6s0.502-1.851,1.02-2.471s0.847-1.032,1.659-0.169c0.761,0.808,1.427,1.118,1.427,2.255c0,0.923-0.679,2.11-0.679,2.11l-0.411,0.209 l0.177-0.373c0,0-0.682-1.003-1.026-1.003C21.543,22.072,21.11,23.113,21.11,23.113z"/><path fill="#EAAB22" d="M21.235,23.223c0,0,0.443-0.967,0.907-0.967c0.212,0,0.831,0.787,0.831,0.787l-0.153,0.38c0,0-0.196,0.137-0.716,0.137S21.235,23.223,21.235,23.223z"/><path fill="#FFFFFF" d="M24.549,13.272h0.865v0.865h-0.865V13.272z M26.524,14.057h0.865v0.865h-0.865V14.057z M28.273,15.262h0.865v0.865h-0.865V15.262z M29.709,16.827h0.865v0.865h-0.865V16.827z M30.76,18.674h0.865v0.865H30.76V18.674z M31.371,20.708h0.865v0.865h-0.865V20.708z M31.513,22.828h0.865v0.865h-0.865V22.828z M31.179,24.926h0.865v0.865h-0.865V24.926z M30.384,26.896h0.865v0.865h-0.865V26.896z M29.17,28.639h0.865v0.865H29.17V28.639z M20.451,14.137h-0.865v-0.865h0.865V14.137z M18.476,14.921h-0.865v-0.865h0.865V14.921z M16.727,16.127h-0.865v-0.865h0.865V16.127z M15.291,17.692h-0.865v-0.865h0.865V17.692z M14.24,19.539h-0.865v-0.865h0.865V19.539z M13.629,21.573h-0.865v-0.865h0.865V21.573z M13.487,23.693h-0.865v-0.865h0.865V23.693z M13.821,25.79h-0.865v-0.865h0.865V25.79z M14.616,27.761h-0.865v-0.865h0.865V27.761z M15.83,29.504h-0.865v-0.865h0.865V29.504z"/><path fill="#FFFFFF" d="M28.08,30.366l0.24-0.19l-0.22-0.29l-0.36,0.31l-0.38,0.26l-0.66,0.39l-0.29,0.15l0.33,0.66l-0.24,0.11l-0.29-0.67l-0.32,0.14l0.42,0.99l0.91-0.42l0.74-0.44l-0.17-0.29l-0.51-0.16l0.26-0.15l0.25-0.19l0.44,0.59l0.28-0.21L28.08,30.366z M27.36,31.316l-0.31,0.17l-0.16-0.31L27.36,31.316z M20.94,31.736l-0.7-0.145l-0.47-0.145l-0.48-0.18l-0.63-0.28l-0.38,0.08l-0.25,0.5l0.1,0.37l0.76,0.34l0.54,0.2l0.53,0.17l0.74,0.15l0.37-0.25l0.07-0.43L20.94,31.736z M18.7,31.816l-0.28-0.12l-0.02-0.08l0.12-0.25l0.09-0.02l0.55,0.25l-0.02,0.05l-0.31-0.14L18.7,31.816z M19.72,32.206l-0.37-0.13l0.13-0.36l0.18,0.06 l0.16,0.05L19.72,32.206z M20.74,32.336l-0.13,0.09l-0.21-0.05l0.1-0.38l0.2,0.05l0.07,0.12L20.74,32.336z M26.1,31.92l-0.15,0.05 l0.21,0.12l0.06,0.18l-0.3,0.11l-0.23-0.17l0.07,0.22l-0.33,0.12l-0.22-0.71l-0.31,0.09l0.17,0.72l-0.33,0.09l-0.19-0.72l-0.37,0.07 l-0.06-0.34l0.53-0.11l0.46-0.125l0.35-0.125l0.39-0.14L26.1,31.92z M23.25,32.596v-0.02l0.45-0.05l-0.04-0.34l-0.43,0.04v-0.02 l0.52-0.05l-0.03-0.35l-0.42,0.05l-0.44,0.03l-0.26,0.01l-0.15,0.38l-0.13-0.4h-0.25l-0.1,0.36l-0.13-0.38l-0.39-0.03l0.4,1.13 l0.24,0.02l0.11-0.34l0.12,0.35h0.24l0.32-0.83l0.04,0.81l0.47-0.03l0.45-0.05l-0.03-0.35L23.25,32.596z M16.54,30.97l-0.28-0.21 l0.68-0.87l0.27,0.23L16.54,30.97z M17.51,30.33l0.02,0.48l0.21-0.34l0.29,0.2l-0.57,0.92l-0.26-0.17l-0.03-0.52l-0.25,0.35l-0.28-0.21l0.62-0.9L17.51,30.33z"/></svg>