<svg xmlns="http://www.w3.org/2000/svg" viewBox="0 0 45 45"><path fill="#102e82" d="m 0,33.75 c 0,2.76125 2.23875,5 5,5 h 35 c 2.76125,0 5,-2.23875 5,-5 v -5 H 0 Z"/><path fill="#eeeeee" d="M 0,28.75 H 45 V 17.5 H 0 Z"/><path fill="#102e82" d="M 40,6.25 H 5 c -2.76125,0 -5,2.23875 -5,5 v 6.25 h 45 v -6.25 c 0,-2.76125 -2.23875,-5 -5,-5"/><path fill="#bf2c34" d="m 28.73775,26.545375 c -1.6025,3.96375 -5.48875,6.76 -10.02625,6.76 -5.97125,0 -10.81125,-4.84 -10.81125,-10.81125 0,-5.97125 4.84,-10.81125 10.81125,-10.81125 4.53625,0 8.42,2.79375 10.02375,6.755 l -10.02375,4.05625 z"/><path fill="#f6d047" d="m 24.119875,22.4945 c 0,-2.9875 -2.42125,-5.40875 -5.40875,-5.40875 -2.9875,0 -5.40875,2.42125 -5.40875,5.40875 0,2.98625 2.42125,5.40875 5.40875,5.40875 2.9875,0 5.40875,-2.4225 5.40875,-5.40875"/></svg>