<svg xmlns="http://www.w3.org/2000/svg" viewBox="0 0 45 45"><defs><clipPath id="clipPath16" clipPathUnits="userSpaceOnUse"><path d="M5,38.75c-2.761,0-5-2.239-5-5l0-22.5c0-2.761,2.239-5,5-5l35,0c2.761,0,5,2.239,5,5l0,22.5 c0,2.761-2.239,5-5,5L5,38.75z"/></clipPath></defs><g clip-path="url(#clipPath16)"><path fill="#cc0000" d="M 0,38.7495 V 6.25 H 45 V 11.248865 38.7495 Z"/><path fill="#eeeeee" d="m 20.49075,31.310203 c -4.85875,0 -8.81125,-3.952591 -8.81125,-8.811453 0,-4.857612 3.9525,-8.810203 8.81125,-8.810203 4.85875,0 8.81125,3.952591 8.81125,8.810203 0,4.858862 -3.9525,8.811453 -8.81125,8.811453"/><path fill="#002d65" d="m 20.49075,30.613812 c -4.475,0 -8.11375,-3.640084 -8.11375,-8.115187 0,-4.472603 3.63875,-8.112687 8.11375,-8.112687 4.47375,0 8.11375,3.640084 8.11375,8.112687 0,4.475103 -3.64,8.115187 -8.11375,8.115187"/><path fill="#eeeeee" d="m 17.277875,29.42116 1.1225,-2.58756 2.8025,0.332508 -2.115,-1.867543 1.1825,-2.56256 -2.43,1.433784 -2.07,-1.915045 0.6125,2.753814 -2.4625,1.377532 2.80875,0.267506 z"/><path fill="#eeeeee" d="m 27.146,26.221086 -1.17125,-2.566309 2.1225,-1.858793 -2.8025,0.320007 -1.11125,-2.59256 -0.56125,2.765064 -2.81,0.255006 2.455,1.388782 -0.625,2.751314 2.08125,-1.906294 z"/><path fill="#eeeeee" d="m 16.077875,20.769835 2.675,-0.895021 1.625,2.305054 -0.025,-2.821315 2.69625,-0.83377 -2.69125,-0.847519 0.04,-2.820065 -1.6375,2.295053 -2.67,-0.908771 1.6775,2.267552 z"/><path fill="#002d65" d="M 41.615,6.2505 H 45 V 38.75 h -3.385 z"/><path fill="#eeeeee" d="M 40.9375,6.2505 H 41.615 V 38.75 h -0.6775 z"/></g></svg>