<svg xmlns="http://www.w3.org/2000/svg" viewBox="0 0 45 45"><path fill="#B50027" d="M5,38.75c-2.761,0-5-2.239-5-5v-22.5c0-2.761,2.239-5,5-5h35c2.761,0,5,2.239,5,5v22.5c0,2.761-2.239,5-5,5H5z"/><path fill="#EEEEEE" d="M21.666,27.917H45V17.085H21.666V27.917z"/><path fill="#002D56" d="M21.666,6.252v21.666H0V11.25c0-2.732,2.194-4.954,4.914-4.998H21.666z"/><path fill="#EED000" d="M7.256,18.782h1.036v-0.106H7.256V18.782z"/><path fill="#EED000" d="M7.15,20.459h1.247v-0.146H7.15V20.459z"/><path fill="#EED000" d="M7.36,20.267h0.829v-1.426H7.36V20.267z"/><path fill="#EED000" d="M7.774,15.244H7.496l-0.104,3.201h0.762l-0.102-3.201L7.774,15.244z"/><path fill="#EED000" d="M7.774,14.517c0,0,0.036,0,0.059,0.045c0.024,0.044,0.023,0.095,0.023,0.095s0.045-0.011,0.064,0.016 c0.02,0.026,0.01,0.087,0.01,0.087s-0.096-0.021-0.096,0.056c0,0.075,0.06,0.114,0.102,0.114c0.094,0,0.085-0.18,0.21-0.329 c0.096-0.113,0.279-0.119,0.279,0.005c0,0.151-0.163,0.059-0.163,0.059s-0.076,0.021-0.121,0.21 c-0.045,0.19-0.175,0.215-0.175,0.215H7.584c0,0-0.131-0.025-0.175-0.215c-0.046-0.189-0.122-0.21-0.122-0.21 s-0.161,0.092-0.161-0.059c0-0.124,0.181-0.118,0.278-0.005c0.125,0.149,0.116,0.329,0.211,0.329c0.041,0,0.101-0.039,0.101-0.114 c0-0.078-0.096-0.056-0.096-0.056s-0.01-0.061,0.01-0.087c0.019-0.028,0.065-0.016,0.065-0.016s-0.003-0.051,0.021-0.095 C7.738,14.517,7.774,14.517,7.774,14.517"/><path fill="#EED000" d="M8.226,18.514H7.323v0.097h0.904L8.226,18.514z"/><path fill="#EED000" d="M8.099,15.125h-0.65v0.08h0.65V15.125z"/><path fill="#EED000" d="M15.816,20.796H6.015v0.284h9.801V20.796z"/><path fill="#EED000" d="M15.415,20.507H6.416v0.238h8.999V20.507z"/><path fill="#EED000" d="M14.741,14.484H7.09v-0.079h7.651V14.484z"/><path fill="#EED000" d="M14.887,14.045l-0.21,0.301H7.155l-0.211-0.301H14.887z"/><path fill="#EED000" d="M15.148,13.984H6.684v-0.118h8.464V13.984z"/><path fill="#EED000" d="M13.539,18.675h1.038v0.108h-1.038V18.675z"/><path fill="#EED000" d="M13.434,20.459h1.247v-0.146h-1.247V20.459z"/><path fill="#EED000" d="M13.642,20.266h0.83V18.84h-0.83V20.266z"/><path fill="#EED000" d="M14.057,15.243h-0.279l-0.104,3.201h0.764l-0.104-3.201H14.057z"/><path fill="#EED000" d="M14.057,14.517c0,0-0.036,0-0.06,0.045c-0.023,0.044-0.021,0.095-0.021,0.095s-0.045-0.011-0.064,0.016 c-0.02,0.026-0.01,0.087-0.01,0.087s0.095-0.021,0.095,0.056c0,0.075-0.059,0.114-0.101,0.114c-0.094,0-0.085-0.18-0.211-0.329 c-0.095-0.113-0.278-0.119-0.278,0.005c0,0.151,0.163,0.059,0.163,0.059s0.076,0.021,0.121,0.21c0.045,0.19,0.175,0.215,0.175,0.215 h0.381c0,0,0.131-0.025,0.175-0.215c0.046-0.189,0.123-0.21,0.123-0.21s0.161,0.092,0.161-0.059c0-0.124-0.181-0.118-0.278-0.005 c-0.125,0.149-0.116,0.329-0.211,0.329c-0.041,0-0.101-0.039-0.101-0.114c0-0.078,0.096-0.056,0.096-0.056s0.009-0.061-0.01-0.087 c-0.019-0.028-0.065-0.016-0.065-0.016s0.002-0.051-0.021-0.095C14.092,14.517,14.057,14.517,14.057,14.517"/><path fill="#EED000" d="M13.605,18.514h0.904v0.097h-0.904V18.514z"/><path fill="#EED000" d="M13.733,15.125h0.649v0.08h-0.649V15.125z"/><path fill="#EED000" d="M11.539,20.459h-1.247v-0.146h1.247V20.459z"/><path fill="#EED000" d="M11.33,20.266H10.5V18.84h0.83V20.266z"/><path fill="#EED000" d="M11.193,15.243l0.104,3.201h-0.762l0.102-3.201H11.193z"/><path fill="#EED000" d="M11.106,15.091c0,0,0.13-0.025,0.175-0.215c0.045-0.189,0.121-0.21,0.121-0.21s0.163,0.092,0.163-0.059 c0-0.124-0.181-0.118-0.278-0.005c-0.125,0.149-0.118,0.329-0.211,0.329c-0.042,0-0.101-0.039-0.101-0.114 c0-0.078,0.096-0.056,0.096-0.056s0.009-0.06-0.01-0.087c-0.02-0.028-0.065-0.016-0.065-0.016s0.002-0.051-0.021-0.095 c-0.024-0.045-0.059-0.045-0.059-0.045s-0.036,0-0.06,0.045c-0.024,0.044-0.021,0.095-0.021,0.095s-0.045-0.011-0.065,0.016 c-0.019,0.028-0.009,0.087-0.009,0.087s0.095-0.021,0.095,0.056c0,0.075-0.059,0.114-0.101,0.114c-0.094,0-0.086-0.18-0.211-0.329 c-0.095-0.113-0.278-0.119-0.278,0.005c0,0.151,0.163,0.059,0.163,0.059s0.076,0.021,0.121,0.21c0.045,0.19,0.175,0.215,0.175,0.215 H11.106z"/><path fill="#EED000" d="M11.434,18.782h-1.036v-0.108h1.036V18.782z"/><path fill="#EED000" d="M11.368,18.611h-0.904v-0.097h0.904V18.611z"/><path fill="#EED000" d="M11.24,15.205h-0.65v-0.08h0.65V15.205z"/><path fill="#EED000" d="M10.915,11.043c2.916,0,3.707,2.761,3.707,2.761h-1.015c0,0-0.706-1.781-2.693-1.781s-2.693,1.781-2.693,1.781 H7.208C7.208,13.804,7.999,11.043,10.915,11.043"/><path fill="#EED000" d="M14.759,17.004l0.716-0.294c0,0,0.091-0.514-0.839-0.844c-1.171-0.416-1.406,0.044-1.406,0.044l0.368,0.658 c0,0,0.118-0.245,0.73-0.025C14.942,16.764,14.76,17.004,14.759,17.004"/><path fill="#EED000" d="M13.588,16.641c0,0,0.015,0.505,0.534,0.545c0.52,0.039,1.129,0.366,1.417,0.593 c0.289,0.225,0.536,0.263,0.799,0.039c0.191-0.161,0.392,0.02,0.392,0.02s-0.3-0.025-0.618,0.319 c-0.217,0.234-0.456,0.128-0.456,0.128s0.089,0.128,0.097,0.466c0.006,0.236,0.324,0.626,0.324,0.626s-0.296-0.105-0.517-0.452 c-0.261-0.41-0.85-0.782-1.59-0.959c-0.629-0.15-0.74-0.559-0.74-0.559L13.588,16.641z"/><path fill="#EED000" d="M10.915,16.415c-1.198,0-2.036-0.586-2.386-0.946c-0.169-0.174-0.14-0.275-0.14-0.275l0.355-0.71 c0,0,0.665,1.156,2.171,1.156s2.171-1.156,2.171-1.156l0.355,0.71c0,0,0.029,0.101-0.14,0.275 C12.952,15.829,12.113,16.415,10.915,16.415"/><path fill="#EED000" d="M7.071,17.004L6.356,16.71c0,0-0.093-0.514,0.838-0.844c1.173-0.416,1.407,0.044,1.407,0.044l-0.368,0.658 c0,0-0.119-0.245-0.731-0.025C6.89,16.764,7.071,17.004,7.071,17.004"/><path fill="#EED000" d="M8.243,16.641c0,0-0.015,0.505-0.535,0.545c-0.519,0.039-1.128,0.366-1.416,0.593 c-0.289,0.225-0.536,0.263-0.799,0.039c-0.191-0.161-0.392,0.02-0.392,0.02s0.3-0.025,0.617,0.319 c0.218,0.234,0.456,0.128,0.456,0.128s-0.089,0.128-0.097,0.466c-0.006,0.236-0.324,0.626-0.324,0.626s0.296-0.105,0.517-0.452 c0.261-0.41,0.85-0.782,1.59-0.959c0.629-0.15,0.74-0.559,0.74-0.559L8.243,16.641z"/><path fill="#EED000" d="M11.869,16.401c0,0-0.113,0.458-0.113,0.958s0.025,0.813,0.025,0.813h0.076l-0.012,0.07 c0,0,0.126,0.052,0.134-0.083c0.007-0.134-0.02-0.181-0.02-0.407c0-0.228,0.034-0.31,0.034-0.31s0.059-0.038,0.13-0.059 c0.073-0.021,0.136-0.04,0.136-0.04l0.042-0.07c0,0-0.049,0.006-0.081-0.094c-0.016-0.055-0.04-0.135-0.046-0.184 c-0.005-0.039,0.007-0.052,0.007-0.052s-0.195,0.004-0.212-0.021c-0.017-0.025-0.024-0.039-0.01-0.056 c0.014-0.019,0.142-0.09,0.142-0.09l-0.05-0.128c0,0,0.051-0.056,0.116-0.059s0.239,0.021,0.354,0.028 c0.115,0.006,0.127,0.059,0.166,0.097c0.039,0.039,0.095,0.069,0.154,0.135s0.075,0.094,0.068,0.108 c-0.009,0.014-0.044,0.017-0.148,0.006c-0.104-0.013-0.146-0.015-0.146-0.015l-0.007,0.055c0,0,0.017-0.013,0.025,0.022 s-0.004,0.05-0.017,0.081c-0.019,0.048-0.049,0.031-0.049,0.031l-0.01,0.071c0,0-0.002,0.074,0.11,0.118 c0.114,0.045,0.166,0.049,0.206,0.109c0.076,0.112,0.054,0.229,0.064,0.284c0.01,0.056,0.069,0.364,0.069,0.41 c0,0.066-0.086,0.635-0.086,0.635s-0.036,0.009-0.039,0.029c-0.002,0.02-0.01,0.16-0.023,0.196 c-0.012,0.038-0.069,0.042-0.069,0.042s0.012,0.225-0.011,0.311c-0.025,0.085,0.009,0.215,0.004,0.345 c-0.004,0.13-0.115,0.556-0.115,0.597c0,0.042,0.02,0.051,0.023,0.089s0.002,0.086,0.002,0.086h-0.574c0,0-0.007-0.076,0.035-0.109 c0.041-0.031,0.065-0.024,0.092-0.049c0.028-0.024,0.049-0.071,0.049-0.199c0-0.128-0.061-0.243-0.059-0.333 c0.002-0.091-0.007-0.16-0.061-0.341s-0.056-0.331-0.056-0.331s-0.064-0.154-0.064-0.254c0-0.101,0.01-0.18-0.012-0.256 c-0.021-0.076-0.056-0.139-0.056-0.139s-0.1,0.024-0.144,0.051c-0.045,0.028-0.094,0.054-0.148,0.054 c-0.055,0-0.14-0.125-0.14-0.255c0-0.147,0.132-0.13,0.132-0.13s-0.034-0.24-0.023-0.824C11.679,16.624,11.869,16.401,11.869,16.401"/><path fill="#FFFFFF" d="M15.173,8.837 15.018,9.749 15.837,10.18 14.922,10.314 14.765,11.227 14.354,10.397 13.439,10.53 14.101,9.883 13.691,9.054 14.511,9.483 z"/><path fill="#FFFFFF" d="M10.843,7.765 11.13,8.645 12.055,8.645 11.307,9.19 11.592,10.07 10.843,9.527 10.094,10.07 10.38,9.19 9.631,8.645 10.557,8.645 z"/><path fill="#FFFFFF" d="M6.511,8.828 7.173,9.474 7.993,9.044 7.583,9.874 8.245,10.521 7.329,10.388 6.919,11.217 6.762,10.305 5.847,10.171 6.666,9.74 z"/><path fill="#FFFFFF" d="M3.168,11.782 4.055,12.046 4.582,11.285 4.605,12.21 5.491,12.475 4.618,12.783 4.64,13.708 4.078,12.973 3.205,13.28 3.73,12.518 z"/><path fill="#FFFFFF" d="M1.582,15.952 2.49,15.773 2.602,14.854 3.053,15.663 3.961,15.486 3.331,16.164 3.78,16.973 2.941,16.584 2.31,17.261 2.421,16.342 z"/><path fill="#FFFFFF" d="M2.115,20.381 2.836,19.801 2.508,18.935 3.283,19.442 4.005,18.863 3.762,19.756 4.536,20.263 3.612,20.309 3.368,21.202 3.039,20.336 z"/><path fill="#FFFFFF" d="M4.645,24.055 5.014,23.206 4.322,22.592 5.243,22.68 5.613,21.832 5.813,22.736 6.735,22.826 5.937,23.295 6.136,24.199 5.443,23.586 z"/><path fill="#FFFFFF" d="M8.593,26.132 8.525,25.209 7.627,24.987 8.484,24.637 8.417,23.714 9.014,24.421 9.872,24.073 9.384,24.859 9.98,25.567 9.082,25.346 z"/><path fill="#FFFFFF" d="M13.054,26.137 12.565,25.351 11.666,25.572 12.262,24.864 11.775,24.078 12.632,24.426 13.229,23.719 13.163,24.642 14.02,24.992 13.121,25.214 z"/><path fill="#FFFFFF" d="M17.006,24.068 16.208,23.599 15.515,24.213 15.714,23.309 14.916,22.839 15.837,22.749 16.038,21.846 16.408,22.694 17.329,22.605 16.637,23.219 z"/><path fill="#FFFFFF" d="M19.544,20.399 18.619,20.355 18.291,21.221 18.047,20.328 17.123,20.282 17.897,19.775 17.654,18.881 18.376,19.461 19.15,18.954 18.823,19.819 z"/><path fill="#FFFFFF" d="M20.087,15.972 19.247,16.362 19.358,17.281 18.728,16.604 17.888,16.993 18.337,16.184 17.707,15.506 18.616,15.683 19.066,14.875 19.178,15.793 z"/><path fill="#FFFFFF" d="M18.509,11.799 17.948,12.535 18.473,13.297 17.6,12.99 17.037,13.725 17.059,12.8 16.186,12.492 17.073,12.227 17.096,11.302 17.622,12.063 z"/></svg>