<svg xmlns="http://www.w3.org/2000/svg" viewBox="0 0 45 45"><path fill="#f0dc82" d="m 5,6.25 c -2.76125,0 -5,2.23875 -5,5 v 22.5 c 0,2.76125 2.23875,5 5,5 h 35 c 2.76125,0 5,-2.23875 5,-5 v -22.5 c 0,-2.76125 -2.23875,-5 -5,-5 z"/><path fill="#4ab932" d="m 28.674375,17.25225 0.06375,-0.39875 -0.2775,-0.58125 -0.16875,0.095 -0.04,0.155 -0.3325,-0.05375 -0.25,-0.25 -0.37375,0.34 -0.11875,0.3825 0.0975,0.5 z"/><path fill="#918876" d="m 29.111375,18.823875 -0.19125,-0.4 -0.35,-0.28375 0.10375,-0.8875 -0.27875,-0.3725 -0.1425,-0.3575 -0.33375,-0.055 -0.235,0.19625 -0.26,0.6425 -0.18625,0.16625 0.07375,0.3775 -0.17625,0.47125 -0.45625,0.31875 -0.14625,0.30375 z"/><path fill="#ef1439" d="m 26.3745,23.59625 v -0.6775 l -0.19,-0.1025 -0.095,-1.58875 0.1875,-0.02375 -0.25,-0.6575 L 26.22325,20.4 26.532,18.94375 27.242,18.62 l 0.725,0.70625 0.79,-0.73 0.83875,0.53875 0.08375,0.91625 -0.22625,1.06375 -0.26,-0.705 -0.205,0.3575 0.22875,0.955 0.1875,0.8925 -0.27,1.19125 0.4125,0.40625 0.03375,0.64875 z"/><path fill="#00589c" d="m 25.650625,28.6975 1.0625,0.3975 1.765,-0.0875 0.705,-0.31 -0.14625,-0.925 0.75,-1.6475 -0.205,-1.26375 -0.73625,-1.10375 -1.72,-0.3675 -0.75125,0.20625 0.11875,1.8075 -0.32375,2.3975 z"/><path fill="#453e6f" d="m 30.72025,18.081 0.345,-0.13625 0.47875,0.3675 -0.04,0.545 -0.16625,0.20125 -0.0625,0.295 0.18875,0.2975 -0.21375,0.23875 -0.335,0.02875 -0.06875,-0.15375 -0.12625,-1.39 z"/><path fill="#e2e258" d="m 29.596,19.1345 1.3375,-0.48 -0.0875,1.11 -0.30125,0.85375 -0.84625,1.1175 -0.29375,0.88 -0.1475,-0.7 0.19625,-0.80125 0.225,-1.06375 z"/><path fill="#4ab932" d="m 30.933875,18.654125 -0.21375,-0.27875 v -0.45625 l -0.3525,0.14 -0.30875,-0.22125 -0.18375,0.2875 -0.375,0.02875 0.07375,0.32375 -0.20625,0.17625 0.22875,0.48 z"/><path fill="#ef1439" d="m 29.721625,19.09 -0.03,-0.43625 0.2575,-0.4475 0.37125,-0.04875 0.0875,0.21 0.25875,0.02375 0.10375,0.3225 z"/><path fill="#ffe8b9" d="m 30.180625,21.098 0.0525,0.53125 -0.66125,1.72625 0.13125,0.3775 -0.15625,0.48 -0.4125,-0.40625 0.27,-1.19125 0.29375,-0.88 z"/><path fill="#ffe8b9" d="m 26.026625,20.54625 -1.5275,-0.19375 -0.9775,0.34625 0.66125,0.15375 1.9075,0.375 0.18625,-0.02375 z"/><path fill="#ffe8b9" d="m 27.242375,18.62 0.30875,-0.275 0.06875,-0.46 -0.1225,-0.54 0.1225,-0.28375 0.27,-0.16125 0.1225,-0.29 0.14125,0.285 0.23625,0.205 0.06875,0.36375 -0.1125,0.41625 0.1125,0.42125 0.29875,0.29375 -0.79,0.73125 z"/><path fill="#ef1439" d="m 15.537125,16.3415 -0.32,-0.47375 0.18,-0.20625 -0.18,-0.3125 h -0.29875 l -0.19,0.25375 -0.06625,0.62125 -0.22875,0.415 v 0.59625 l 0.58125,-0.66125 0.28875,-0.2 z"/><path fill="#353db3" d="m 15.537125,16.3415 0.12875,0.29375 h -0.19125 l -0.3975,0.32875 -0.51875,0.71625 -0.125,-0.445 0.58125,-0.66125 0.28875,-0.2 z"/><path fill="#4ab932" d="m 17.825875,17.330875 0.15875,-0.225 -0.07875,-0.39625 -0.5675,-0.4525 -0.0175,0.16625 -0.46,0.04 0.02875,-0.23125 -0.28,0.20875 -0.0725,-0.23875 -0.40125,0.6725 0.165,0.57875 z"/><path fill="#918876" d="m 18.409375,18.78175 -0.19125,-0.31375 -0.3875,-0.18625 -0.18625,-0.31875 0.18125,-0.6325 -0.22,-0.2 -0.04,-0.21125 -0.21,-0.1575 -0.035,-0.3375 -0.46,0.03875 -0.06875,0.29375 -0.20125,0.22125 -0.03875,0.21125 -0.25125,0.265 0.22125,0.73375 -0.3425,0.065 -0.28,0.29375 z"/><path fill="#ffe8b9" d="m 17.81125,18.4485 -0.31875,-0.1325 -0.08375,-0.42125 0.1375,-0.3575 0.015,-0.34875 -0.245,-0.225 -0.21625,-0.31375 -0.14625,0.26 -0.30875,0.17625 -0.04,0.3575 0.1125,0.34375 -0.01875,0.57875 -0.26,0.0825 0.70625,0.93125 z"/><path fill="#ffe8b9" d="m 15.31125,20.125125 -0.33875,-0.85875 0.05,-0.5675 0.28875,-0.19125 v -0.75 l -0.3975,0.30875 -0.31375,0.71 -0.05875,1.11375 0.45625,1.31375 0.31375,0.04875 z"/><path fill="#ffe8b9" d="m 19.144875,20.9485 0.95125,-0.3525 0.79375,0.17625 0.6475,-0.08125 -0.5,-0.30125 -0.58125,-0.1325 -1.4675,0.1325 -0.155,0.15625 -0.0525,0.43625 z"/><path fill="#ff9e0f" d="m 18.522375,25.610375 0.16125,-0.95625 -0.08125,-0.3325 0.14,-1.34375 -0.11,-0.4775 0.385,-0.13 0.1275,-1.42125 -0.3625,0.03375 0.05125,-0.43625 0.155,-0.1575 -0.25625,-0.16625 -0.3225,-1.44125 -0.59875,-0.3325 -0.66625,0.93125 -0.70625,-0.93125 -0.53875,0.0975 -0.58875,1.57875 v 1.1275 l -0.31375,-0.04875 0.21625,0.88125 0.29375,-0.05625 -0.1275,0.67375 v 1.10875 l 0.21625,0.8625 -0.1675,0.705 0.1525,0.555 z"/><path fill="#00589c" d="m 15.497375,28.713375 0.85375,0.3425 1.91125,-0.0875 0.55875,-0.3325 -0.245,-1.57875 -0.05375,-1.44625 -0.515,-0.77375 -0.5,-1.5275 -0.66125,1.4475 -1.265,1.17625 -0.12125,1.765 0.23875,0.33125 z"/><path fill="#00589c" d="m 22.5,32.159375 c -1.30125,0 -2.2575,-0.96125 -2.2575,-0.96125 l 0.57375,-0.715 c 0,0 0.8925,0.74 1.68375,0.74 0.7925,0 1.68375,-0.74 1.68375,-0.74 l 0.57375,0.715 c 0,0 -0.95625,0.96125 -2.2575,0.96125"/><path fill="#00589c" d="m 29.378625,30.2795 0.2975,-0.78 c 0,0 -0.4,-0.675 -3.4625,-0.31625 -2.58875,0.30375 -2.78,1.03375 -2.78,1.03375 l 0.5075,0.72375 c 0,0 0.41875,-0.54125 2.42125,-0.84125 1.74,-0.26 3.01625,0.18 3.01625,0.18"/><path fill="#00589c" d="m 15.621375,30.2795 -0.2975,-0.78 c 0,0 0.4,-0.675 3.4625,-0.31625 2.58875,0.30375 2.78,1.03375 2.78,1.03375 l -0.5075,0.72375 c 0,0 -0.41875,-0.54125 -2.42125,-0.84125 -1.74,-0.26 -3.01625,0.18 -3.01625,0.18"/><path fill="#00589c" d="m 22.5,20.794125 c 0,0 -0.8825,0.235 -1.41125,0.25 -0.53,0.015 -1.185,-0.14625 -1.185,-0.14625 l -0.76,0.67625 c 0,0 0.49625,0.705 0.49625,1.61625 0,1.09625 -0.57,1.22875 -0.57,2.99375 0,1.11 0.7475,2.025 1.715,2.345 1.55375,0.515 1.715,0.8025 1.715,0.8025 0,0 0.16125,-0.2875 1.715,-0.8025 0.9675,-0.32 1.715,-1.235 1.715,-2.345 0,-1.765 -0.57,-1.8975 -0.57,-2.99375 0,-0.91125 0.4975,-1.61625 0.4975,-1.61625 l -0.7625,-0.67625 c 0,0 -0.65375,0.16125 -1.1825,0.14625 -0.53,-0.015 -1.4125,-0.25 -1.4125,-0.25"/><path fill="#71777b" d="m 20.74275,28.015125 2.9375,0.04 0.095,-0.26125 -2.4525,-0.08375 -0.0038,-0.21 -0.095,-0.03 z"/><path fill="#612829" d="m 23.912375,27.47075 c 0,0 -0.65125,-0.195 -1.5275,-0.195 -1.3525,0 -2.32625,-0.29875 -2.32625,-0.29875 l 0.23875,-0.30125 c 0,0 0.86625,0.37125 2.0775,0.37125 0.70125,0 1.6475,0.19125 1.6475,0.19125 z"/><path fill="#612829" d="m 24.367625,25.953375 -0.07625,0.22125 c 0,0 -0.165,-0.10875 -0.4175,0.31375 -0.19,0.32125 -0.29125,0.67375 -0.29125,0.67375 l -0.05375,-0.0087 c 0,0 0.08375,-0.28125 0.31375,-0.73625 0.13875,-0.27625 0.525,-0.46375 0.525,-0.46375"/><path fill="#612829" d="m 23.934375,27.221625 c 0,0 0.2525,-0.53375 0.52125,-0.8025 0.49,-0.4925 0.51875,-0.17625 0.51875,-0.17625 l 0.1425,-0.23625 c 0,0 -0.44,0.09 -0.7125,0.3675 -0.2725,0.28 -0.51875,0.83875 -0.51875,0.83875 z"/><path fill="#71777b" d="m 20.74275,25.769 2.9375,0.04 0.095,-0.26125 -2.4525,-0.08375 -0.0038,-0.21 -0.095,-0.03 z"/><path fill="#612829" d="m 23.912375,25.224625 c 0,0 -0.65125,-0.195 -1.5275,-0.195 -1.3525,0 -2.32625,-0.29875 -2.32625,-0.29875 l 0.23875,-0.30125 c 0,0 0.86625,0.37125 2.0775,0.37125 0.70125,0 1.6475,0.19125 1.6475,0.19125 z"/><path fill="#612829" d="m 24.367625,23.70725 -0.07625,0.22125 c 0,0 -0.165,-0.10875 -0.4175,0.31375 -0.19,0.32125 -0.29125,0.67375 -0.29125,0.67375 l -0.05375,-0.0088 c 0,0 0.08375,-0.28125 0.31375,-0.73625 0.13875,-0.27625 0.525,-0.46375 0.525,-0.46375"/><path fill="#612829" d="m 23.934375,24.975625 c 0,0 0.2525,-0.53375 0.52125,-0.8025 0.49,-0.4925 0.51875,-0.17625 0.51875,-0.17625 l 0.1425,-0.23625 c 0,0 -0.44,0.09 -0.7125,0.3675 -0.2725,0.28 -0.51875,0.83875 -0.51875,0.83875 z"/><path fill="#71777b" d="m 20.74275,23.523 2.9375,0.04 0.095,-0.26125 -2.4525,-0.08375 -0.0038,-0.21 -0.095,-0.03 z"/><path fill="#612829" d="m 23.912375,22.9785 c 0,0 -0.65125,-0.195 -1.5275,-0.195 -1.3525,0 -2.32625,-0.2975 -2.32625,-0.2975 l 0.23875,-0.30125 c 0,0 0.86625,0.37 2.0775,0.37 0.70125,0 1.6475,0.19125 1.6475,0.19125 z"/><path fill="#612829" d="m 24.367625,21.461125 -0.07625,0.22125 c 0,0 -0.165,-0.10875 -0.4175,0.31375 -0.19,0.32125 -0.29125,0.6725 -0.29125,0.6725 l -0.05375,-0.0088 c 0,0 0.08375,-0.28 0.31375,-0.735 0.13875,-0.27625 0.525,-0.46375 0.525,-0.46375"/><path fill="#612829" d="m 23.934375,22.730125 c 0,0 0.2525,-0.535 0.52125,-0.80375 0.49,-0.4925 0.51875,-0.17625 0.51875,-0.17625 l 0.1425,-0.235 c 0,0 -0.44,0.08875 -0.7125,0.3675 -0.2725,0.28 -0.51875,0.83875 -0.51875,0.83875 z"/><path fill="#00589c" d="m 23.601125,16.654625 0.66375,0.19125 h 0.8525 l 0.20625,-0.765 0.38875,0.16125 0.12625,0.4125 0.47,-0.32375 -0.6475,-0.57375 0.49375,-0.17625 0.42625,0.3825 0.31625,-0.6325 -0.375,-0.095 0.1825,-0.8975 -0.3675,-0.33875 -0.3525,0.1325 0.295,0.20625 -0.05125,0.30875 -0.41875,-0.1475 -0.0525,-0.6025 -0.33125,0.1325 0.0225,0.66875 -0.39,-0.2725 0.03625,0.36125 0.37625,0.22 0.205,-0.205 0.6175,0.15375 0.04375,0.31625 -0.5425,0.235 -0.50125,-0.19125 v 0.5525 l -0.4925,0.2925 -0.26375,-0.30875 0.52875,-0.38875 -0.40375,-0.46375 0.12375,-0.8975 -0.2725,-0.315 0.185,-0.22125 0.29375,0.2275 0.85375,-0.30125 0.95625,0.44875 0.3375,-0.44875 0.49875,0.30125 -0.48375,0.20625 0.11,0.8825 0.155,-0.6325 0.6325,-0.2125 v 0.595 l 0.7125,0.21375 0.06625,0.845 -1.05125,0.10375 0.4625,-0.625 -0.11,-0.2725 -0.5225,0.54375 -1.05875,1.30125 0.1025,0.28 -0.9925,0.07375 0.33125,0.27875 -0.4625,0.19875 0.30875,0.42625 0.3775,-0.45625 0.27625,0.42 -0.2425,0.22 -0.48625,0.0525 -0.0875,0.6975 -0.3825,0.4275 -0.14,-0.3975 -0.40375,0.15375 -0.11,0.30875 -0.5075,-0.38125 0.47875,-0.24375 -0.4575,-0.32375 -0.02125,-0.28625 0.39625,0.11 -0.1175,-0.3525 0.3675,-0.36 0.14125,0.735 0.38125,-0.05875 0.05875,-0.41875 -0.89,-0.64 -0.14625,0.485 -0.57375,-0.6175 -0.7425,-0.0075 z"/><path fill="#00589c" d="m 21.3995,16.654625 -0.66375,0.19125 H 19.882 l -0.205,-0.765 -0.39,0.16125 -0.125,0.4125 -0.47125,-0.32375 0.6475,-0.57375 -0.4925,-0.17625 -0.42625,0.3825 -0.31625,-0.6325 0.375,-0.095 -0.18375,-0.8975 0.3675,-0.33875 0.3525,0.1325 -0.29375,0.20625 0.05125,0.30875 0.41875,-0.1475 0.05125,-0.6025 0.33125,0.1325 -0.0225,0.66875 0.39,-0.2725 -0.03625,0.36125 -0.375,0.22 -0.20625,-0.205 -0.6175,0.15375 -0.04375,0.31625 0.54375,0.235 0.5,-0.19125 v 0.5525 l 0.4925,0.2925 0.265,-0.30875 -0.52875,-0.38875 0.40375,-0.46375 -0.125,-0.8975 0.2725,-0.315 -0.18375,-0.22125 -0.295,0.2275 -0.8525,-0.30125 -0.95625,0.44875 -0.33875,-0.44875 -0.49875,0.30125 0.485,0.20625 -0.11,0.8825 -0.155,-0.6325 -0.6325,-0.2125 v 0.595 l -0.7125,0.21375 -0.0675,0.845 1.0525,0.10375 -0.46375,-0.625 0.11125,-0.2725 0.52125,0.54375 1.05875,1.30125 -0.1025,0.28 0.9925,0.07375 -0.33125,0.27875 0.46375,0.19875 -0.30875,0.42625 -0.3775,-0.45625 -0.2775,0.42 0.2425,0.22 0.48625,0.0525 0.0875,0.6975 0.3825,0.4275 0.14,-0.3975 0.405,0.15375 0.10875,0.30875 0.50875,-0.38125 -0.47875,-0.24375 0.45625,-0.32375 0.0225,-0.28625 -0.3975,0.11 0.1175,-0.3525 -0.3675,-0.36 -0.14,0.735 -0.3825,-0.05875 -0.05875,-0.41875 0.89,-0.64 0.14625,0.485 0.57375,-0.6175 0.74375,-0.0075 z"/><path fill="#674413" d="m 22.615375,13.21475 0.65125,0.0375 0.1725,-0.16625 -0.025,0.245 0.52,0.43125 h 0.195 l -0.0675,0.17125 0.27,0.6875 0.03875,0.76375 0.12625,0.07875 -0.23875,0.0975 -0.1725,0.58375 0.295,-0.08375 -0.09375,0.265 -0.28875,0.1175 0.31375,0.10375 -0.4275,0.22 -0.2875,-0.17125 z"/><path fill="#a96a41" d="m 23.356875,17.023875 0.23875,-0.42875 0.1475,-0.65625 v -1.4025 l -0.19375,-0.6175 -0.415,-0.18625 0.08875,0.33375 -0.255,-0.1175 -0.265,-0.57875 -0.41125,-0.725 -0.05,0.5975 -0.225,-0.5975 0.04875,0.77375 -0.50875,0.02 0.3325,0.1475 -1.29375,1.15625 0.215,0.4025 0.47125,0.1075 0.64625,-0.36375 0.6575,0.07 -0.725,0.6075 -0.4125,0.6175 -0.04875,0.47125 0.3475,0.36875 z"/><path fill="#ddb245" d="m 22.565875,20.99975 1.11375,-0.605 0.5825,-0.82375 -1.03,-0.43125 v -0.3975 c 0,0 0.48875,-0.3525 0.48875,-0.875 0,-1.1175 -1.1025,-1.08125 -1.1025,-1.08125 0,0 -1.19875,-0.10875 -1.19875,1.00875 0,0.67625 0.55125,0.9475 0.55125,0.9475 v 0.33125 l -1.1625,0.44125 0.7725,0.92625 z"/></svg>