<svg xmlns="http://www.w3.org/2000/svg" viewBox="0 0 45 45"><path fill="#3D68C9" d="M5,6.3c-2.8,0-5,2.2-5,5v22.5c0,2.8,2.2,5,5,5h35c2.8,0,5-2.2,5-5V11.3c0-2.8-2.2-5-5-5H5z"/><path fill="#FCB216" d="M11.8,22.5c0-5.9,4.8-10.7,10.7-10.7c5.9,0,10.7,4.8,10.7,10.7s-4.8,10.7-10.7,10.7 C16.6,33.2,11.8,28.4,11.8,22.5"/><path fill="#FFFFFF" d="M12.5,22.5c0-5.5,4.5-10,10-10c5.5,0,10,4.5,10,10s-4.5,10-10,10C17,32.5,12.5,28,12.5,22.5"/><path fill="#FCB216" d="M15.5,22.5c0-3.9,3.1-7,7-7c3.9,0,7,3.1,7,7s-3.1,7-7,7C18.6,29.5,15.5,26.4,15.5,22.5"/><path fill="#3D68C9" d="M16.2,22.5c0-3.5,2.8-6.3,6.3-6.3s6.3,2.8,6.3,6.3s-2.8,6.3-6.3,6.3S16.2,26,16.2,22.5"/><path fill="#FFFFFF" d="M26.6,20.9 26.3,19.8 25.9,19.1 25.3,18.8 23.7,17.9 23,17.8 22.2,17.8 21.5,17.9 19.5,18.9 18.9,19.5 18.7,19.6 18.6,20.4 20.2,20.9 22.8,20.9 23.8,20.9 26.5,21 z"/><path fill="#FFFFFF" d="M25.8,24.4 25.4,25 24.5,25.5 23.4,25.9 22.3,26 21.4,25.9 20.8,25.7 20.3,25.4 19.3,24.6 18.9,24 18.5,23.3 18.3,22.5 23,22.5 z"/><path fill="#FCB216" d="M26.7,21.3 26.6,20.9 26.5,21 25.9,20.7 25.5,20.2 25.3,20.3 25.1,20.1 24.8,20.4 24.5,20.3 24.3,20.7 23.8,20.9 22.8,20.9 21.5,20.2 21.2,20.7 20.6,20.5 20.2,20.9 19.7,20.7 19.9,20.2 19.4,20.4 19.4,20 19.3,20.1 19.2,20 19,20.2 18.9,20.1 18.7,20.3 18.6,20.4 18.4,20.8 18.3,21.3 20.8,21.3 22.6,21.3 z"/><path fill="#60BB48" d="M26.4,23.7 25.8,24.4 23.9,23.4 23,22.5 18.3,22.5 18.3,21.3 20.8,21.3 21.6,21.2 22.6,21.3 23.3,21 23.7,21.1 23.9,20.9 24.6,21.1 24.8,20.5 24.9,20.9 25.1,20.5 25.3,20.8 25.5,20.5 25.7,21 26,20.8 26.4,21.1 26.5,21 26.7,21.3 26.7,21.6 z"/><path fill="#3F409A" d="M26.6,22.8 26.5,23.3 26.4,23.7 25.3,23.3 21.9,21.6 21.9,21.6 22.9,21.5 23.5,21.7 24.9,21.7 26,21.8 z"/><path fill="#B33636" d="M23.7,21.5 24.5,21.2 24.7,21.4 25.1,21.2 25.5,21.3 26,21.4 25.8,21.7 24.3,21.6 24.2,21.5 z"/><path fill="#B33636" d="M26.7,21.6 26.7,22.4 26.6,22.8 26,22.8 25.3,22.6 25.4,22.5 25.6,22.5 25.8,22.2 25.9,22.2 26.1,21.7 z"/><path fill="#B33636" d="M20.3,25.4 19.9,25.1 19.3,24.6 19.5,24 20.3,24 20.5,24 20.9,25.3 z"/><path fill="#B33636" d="M21.7,25 22.3,24.1 22.3,23.4 22.5,22.9 22.9,23 23.3,24.1 23.4,25.5 23,25.5 23,24.3 22.8,23.9 22.7,24.5 22,25.2 z"/><path fill="#ED1A3A" d="M23.1,21.9 23.2,22 23.2,22.9 22.9,23 22.4,22.9 22.5,22.5 22.4,21.9 22.9,21.8 z"/><path fill="#FFFFFF" d="M22.9,21.5 22.9,21.8 23.1,21.9 z"/><path fill="#B33636" d="M23.2,21.2 23.5,21.6 23.5,22 23.1,21.9 22.9,21.5 22.9,21.3 z"/><path fill="#B33636" d="M20.1,21.2 20.1,21.7 19.7,22.1 19.4,22.6 19.5,22.7 19.8,22.3 20,22.6 20.1,22.5 19.9,22.2 20.2,21.9 20.5,22.1 21.1,22 21.3,22.3 21.7,22.4 21.6,22.2 21.3,22.1 21.3,22 21.6,22 22.1,22.5 22.1,22.4 21.9,22.2 21.8,21.9 21.6,21.8 21.3,21.4 20,20.7 19.7,20.9 19.8,21.1 19.6,21.3 19.8,21.4 z"/><path fill="#ED1A3A" d="M21.3,21.4 21.8,21.5 22,21.8 21.4,21.7 z"/><path fill="#ED1A3A" d="M19.7,20.9 19.8,20.6 20,20.6 20,20.5 20.4,20.7 20.6,21.1 20.7,21.3 20.5,21.3 20,20.7 z"/><path fill="#FFFFFF" d="M20.6,22.3 20.8,22.2 20.7,21.8 21.1,21.5 21.1,21.3 21.2,21.1 21.2,20.7 20.9,20.1 20.8,20.7 20.7,20.7 20.6,21.1 20.7,21.3 20.9,21.3 20.7,21.7 z"/><path fill="#3F409A" d="M25.2,25.1 24.6,25.2 24.1,25.4 24,24.9 24.1,24.7 24.5,24.4 24.8,24.7 25.1,24.9 z"/><path fill="#ED1A3A" d="M18.4,23.7 17.9,23.4 16.7,23.2 16.1,22.2 16.1,21.7 16.7,20.9 18.7,19.6 18.8,19.9 18.6,20.4 16.5,21.9 18.3,22.7 18.4,23.1 z"/><path fill="#ED1A3A" d="M28.9,21.9l0,0.4l-0.1,0.9l-0.2,0.2l-1.5,0.5l-0.5,0.4l-0.1-0.3v-0.8l0.9-0.4L27,22.4l-0.1-0.5 c0,0,0.2-0.3,0.2-0.3s1.5-0.2,1.5-0.2l0.3,0.1L28.9,21.9z"/><path fill="#ED1A3A" d="M23,26.6 23.3,26.4 23.5,26.6 23.4,27 23.5,27.8 23.3,28.1 23,28 22.9,28.4 21.6,28.4 21.7,27.9 21.5,27.9 21.4,27.5 20.9,27.2 21.4,26.9 21.7,26.4 21.9,26.7 22.1,26.3 22.9,26.3 z"/><path fill="#ED1A3A" d="M20.1,17.2 19.6,17.1 19.1,17.5 19.1,18.1 19.8,18.4 z"/><path fill="#ED1A3A" d="M25.6,18.6 26.1,18.5 26.4,17.9 26.1,17.5 25.5,18.4 z"/><path fill="#ED1A3A" d="M24.6,25.8 24.2,25.7 23.6,26 23.6,26.8 23.8,27.2 24.4,27.4 24.7,27.2 z"/><path fill="#ED1A3A" d="M17.5,23.5 18.1,23.7 18.5,24.2 19,24.6 19.4,25.8 19.7,26.3 19.3,26.8 18.7,25.8 18.1,25.6 17.6,25.1 z"/><path fill="#ED1A3A" d="M26,26.7 26.7,26.7 27.2,26.3 27.4,25.7 27.4,25.3 27.6,24.5 27.5,23.9 27.2,23.9 26.7,24.3 z"/><path fill="#FFFFFF" d="M21.7,26.4 21.5,26 21,25.9 20.8,26.5 20.2,26.5 20.4,26.3 20.2,25.9 19.7,25.7 19.9,25.5 19.7,25.4 19.4,25.8 19.7,26.3 19.4,26.5 19.3,26.8 19.5,27.5 19.7,27 20.6,27.5 20.9,27.5 20.6,27.2 20.9,27.2 21.4,26.9 z"/><path fill="#FFFFFF" d="M27.1,21.6 27.1,22.3 28,22.3 28.1,21.6 28.6,21.4 28.4,21.3 28.6,20.8 28.4,20.2 28,20.8 27.4,20.5 27.5,21 27.9,21.3 z"/><path fill="#FFFFFF" d="M18.1,20.7 17.9,21.1 18.1,21.5 17.7,22.1 17.1,22.2 16.5,21.9 16.7,21.2 16.6,20.7 16.9,20.1 17.1,21 z"/><path fill="#60BB48" d="M23.4,27.3 24.1,27.6 24.7,27.5 25.1,27 25.5,26.3 25.6,25.8 25.9,25 26.5,24.4 27.3,24 27.4,24.4 27.6,24.5 27.7,24.9 27.4,25.3 27.3,25.7 27.1,25.3 26.8,25.5 26.6,25.9 26.2,26.1 26,26.7 25.6,27.1 25.3,27.7 24.7,28 23.5,27.8 z"/><path fill="#60BB48" d="M18.9,19.3 18,19.6 17.9,20.2 17,20.7 17,20.4 17.2,20.3 17.2,19.5 17.8,18.7 18.6,18.3 19.3,18.7 20.4,18.1 21.3,17.2 22.4,17.1 21.9,17.4 21.5,18 20.7,18.5 19.5,18.9 z"/><path fill="#60BB48" d="M21.5,27.6 21.1,27.6 20.4,27.8 19.8,27.6 19.6,27.3 19.5,27.5 19,27.2 18.7,25.8 19,25.7 18.2,25 18,24.6 17.3,25.4 17.1,24.2 17.5,24.1 17.5,23.5 18,24.2 18.6,24.2 19,24.6 19,25.7 19.3,25.8 19.3,26.8 20.9,27.2 21.4,27.5 z"/><path fill="#60BB48" d="M28,20.8 27.5,20.6 27.3,20.2 26.9,19.5 26.1,19.1 25.9,19.1 25.3,18.8 24.8,18.7 23.7,17.9 23.1,17.2 23.3,17.1 24.8,17.6 25.9,19 26.9,18.4 27.5,18.8 28.1,20.7 z"/><path fill="#ED1A3A" d="M18.9,19.5 19.2,18.8 21,19 23.4,18.7 24,19 23.9,19.8 24.2,19.3 26.1,19.1 26.9,19.5 27.3,20.2 27.2,20.9 27.3,21.2 26.5,20.9 26.3,19.8 25.8,20 24.6,20 22.8,20.3 22.3,19.8 21.2,19.9 z"/><path fill="#FFFFFF" d="M21.3,17.2 21.1,16.8 20.5,16.6 20.6,16.9 20.9,17 21,17.3 20.7,17.5 20.1,17.2 19.5,17.3 19.5,18 19.8,18.4 20.4,18.1 z"/><path fill="#FFFFFF" d="M26.1,17.5 26,18.1 25.5,18.4 24.8,17.6 25.4,17.4 z"/><path fill="#FFFFFF" d="M24.5,17.5 24.5,17.1 24.8,17 25,16.8 24.3,16.9 24.2,17.4 z"/><path fill="#FFFFFF" d="M25.2,25.5 25.2,25.9 25.1,26.3 24.6,25.8 23.7,26.1 23.8,26.9 24.1,27.2 24.7,27.2 25.1,26.5 25.3,26.6 25.1,27 25.3,27.3 25.6,27.1 25.7,26.7 25.5,26.3 25.6,25.8 25.4,25.5 z"/><path fill="#FCB216" d="M23.2,15.1h-0.5v-0.5h0.5V15.1z M23,13.5H22v0.9H23V13.5z M21.8,15.1h0.5v-0.5h-0.5V15.1z M29.9,19.3h-0.7V20 h0.7V19.3z M31,19.5h-0.7v0.7H31V19.5z M30.3,20.3h-0.7V21h0.7V20.3z M31.9,19.2h-0.7v0.7h0.7V19.2z M28.1,27.6h-0.7v0.7h0.7V27.6z M28.3,28.6h-0.7v0.7h0.7V28.6z M27.3,28.3h-0.7V29h0.7V28.3z M29,29.4h-0.7v0.7H29V29.4z M15.1,20h0.7v-0.7h-0.7V20z M14,20.2h0.7 v-0.7H14V20.2z M14.7,21h0.7v-0.7h-0.7V21z M13.1,19.9h0.7v-0.7h-0.7V19.9z M16.9,28.2h0.7v-0.7h-0.7V28.2z M16.7,29.3h0.7v-0.7 h-0.7V29.3z M17.7,29h0.7v-0.7h-0.7V29z M16,30.1h0.7v-0.7H16V30.1z"/><path fill="#ED1A3A" d="M18.7,29.3l-0.2,1.3l0.7-1l0.3,0.1L19,31.2l-0.3-0.1l0.4-1.2L18.4,31l-0.2-0.1l0.1-1.3l-0.5,1.2l-0.3-0.1 l0.7-1.5L18.7,29.3z"/><path fill="#ED1A3A" d="M19.5,31.3l-0.3-0.1l0.5-1.6l0.2,0.1L19.5,31.3z"/><path fill="#ED1A3A" d="M20.7,31.6l-0.3,0l-0.3-1.2l-0.2,1.1l-0.3-0.1l0.4-1.6l0.2,0.1l0.3,1.2l0.2-1.1l0.2,0L20.7,31.6z"/><path fill="#ED1A3A" d="M22,31.7l-0.3,0l-0.4-1.2l-0.1,1.1l-0.3,0l0.2-1.7l0.2,0l0.4,1.2l0.1-1.1l0.2,0L22,31.7z"/><path fill="#ED1A3A" d="M22.9,31l-0.5,0l0,0.5l0.6,0l0,0.3l-0.9,0l0.1-1.7l0.8,0l0,0.3l-0.5,0l0,0.4l0.5,0L22.9,31z"/><path fill="#ED1A3A" d="M23.7,31.2c0-0.1,0-0.1-0.1-0.1c0,0-0.1-0.1-0.2-0.1c-0.1,0-0.2-0.1-0.2-0.1c-0.1-0.1-0.2-0.2-0.2-0.4 c0-0.1,0-0.2,0-0.2c0-0.1,0.1-0.1,0.1-0.2c0.1,0,0.1-0.1,0.2-0.1c0.1,0,0.2,0,0.2,0c0.1,0,0.1,0.1,0.2,0.2c0,0.1,0.1,0.2,0.1,0.3 c-0.1,0-0.1,0-0.2,0c0-0.1,0-0.1-0.1-0.2c0,0-0.1-0.1-0.2,0c-0.1,0-0.1,0-0.1,0.1c0,0,0,0.1,0,0.1c0,0.1,0,0.1,0.1,0.1 c0,0,0.1,0.1,0.2,0.1c0.1,0,0.3,0.1,0.3,0.2c0.1,0.1,0.1,0.2,0.1,0.3c0,0.1,0,0.3-0.1,0.4c-0.1,0.1-0.2,0.1-0.3,0.2 c-0.1,0-0.2,0-0.3,0c-0.1,0-0.2-0.1-0.2-0.2c0-0.1-0.1-0.2-0.1-0.3c0.1,0,0.2,0,0.3,0c0,0.2,0.1,0.3,0.3,0.3c0.1,0,0.1,0,0.1-0.1 C23.7,31.3,23.7,31.3,23.7,31.2"/><path fill="#ED1A3A" d="M24.8,30.6c0-0.2-0.1-0.3-0.2-0.4c-0.1-0.1-0.1-0.1-0.2-0.1c-0.1,0-0.1,0.1-0.2,0.2c0,0.1,0,0.2,0,0.4 c0,0,0,0,0,0.1c0,0.2,0.1,0.3,0.1,0.4c0.1,0.1,0.1,0.1,0.2,0.1c0.1,0,0.2-0.1,0.2-0.2C24.8,31,24.8,30.9,24.8,30.6 C24.8,30.7,24.8,30.6,24.8,30.6 M25.1,30.6c0,0.2,0.1,0.3,0,0.4c0,0.1-0.1,0.2-0.1,0.3c-0.1,0.1-0.2,0.1-0.3,0.2 c-0.1,0-0.2,0-0.3,0c-0.1-0.1-0.2-0.1-0.2-0.3C24.1,31.1,24,31,24,30.8c0,0,0,0,0-0.1c0-0.2,0-0.3,0-0.4c0-0.1,0.1-0.2,0.1-0.3 s0.1-0.1,0.2-0.1c0.1,0,0.2,0,0.3,0c0.1,0,0.2,0.1,0.2,0.2C24.9,30.3,25,30.4,25.1,30.6C25,30.6,25.1,30.6,25.1,30.6"/><path fill="#ED1A3A" d="M25.8,29.8l-0.4,0.1l0.4,1.4l-0.3,0.1L25.2,30l-0.4,0.1l-0.1-0.3l0.9-0.3L25.8,29.8z"/><path fill="#ED1A3A" d="M26.3,30.4l0.3-0.1l-0.4-0.5L26.3,30.4z M26.8,30.5l-0.5,0.2l0,0.4l-0.3,0.1L26,29.4l0.2-0.1l1.1,1.4L27,30.8 L26.8,30.5z"/></svg>