<svg xmlns="http://www.w3.org/2000/svg" viewBox="0 0 45 45"><path fill="#FFD700" d="M5,6.25c-2.761,0-5,2.239-5,5v22.5c0,2.761,2.239,5,5,5h35c2.761,0,5-2.239,5-5v-22.5 c0-2.761-2.239-5-5-5H5z"/><path fill="#BF0A30" d="M22.66,25.328c-1.56,0-2.829-1.269-2.829-2.827c0-1.56,1.269-2.829,2.829-2.829 c1.56,0,2.829,1.269,2.829,2.829C25.489,24.06,24.22,25.328,22.66,25.328L22.66,25.328z"/><path fill="#BF0A30" d="M24.216,23.71h4.835c0.191,0,0.346,0.155,0.346,0.345c0,0.191-0.155,0.346-0.346,0.346h-5.297 L24.216,23.71z"/><path fill="#BF0A30" d="M21.566,24.401h-5.297c-0.191,0-0.346-0.155-0.346-0.345c0-0.191,0.155-0.346,0.346-0.346h4.835 L21.566,24.401z"/><path fill="#BF0A30" d="M24.482,22.673h5.953c0.19,0,0.345,0.155,0.345,0.345c0,0.191-0.155,0.345-0.345,0.345h-6.083 L24.482,22.673z"/><path fill="#BF0A30" d="M20.966,23.363h-6.08c-0.191,0-0.346-0.154-0.346-0.345c0-0.19,0.155-0.345,0.346-0.345h5.95 L20.966,23.363z"/><path fill="#BF0A30" d="M24.353,21.637h6.081c0.191,0,0.346,0.155,0.346,0.345c0,0.191-0.155,0.346-0.346,0.346h-5.951 L24.353,21.637z"/><path fill="#BF0A30" d="M20.836,22.328h-5.95c-0.191,0-0.346-0.155-0.346-0.345c0-0.191,0.155-0.346,0.346-0.346h6.08 L20.836,22.328z"/><path fill="#BF0A30" d="M23.753,20.6h5.297c0.191,0,0.346,0.155,0.346,0.345c0,0.191-0.155,0.345-0.346,0.345h-4.835 L23.753,20.6z"/><path fill="#BF0A30" d="M21.103,21.29h-4.835c-0.191,0-0.346-0.155-0.346-0.345c0-0.191,0.155-0.345,0.346-0.345h5.298 L21.103,21.29z"/><path fill="#BF0A30" d="M23.523,24.194v6.08c0,0.191-0.155,0.346-0.345,0.346c-0.191,0-0.345-0.155-0.345-0.346v-5.95 L23.523,24.194z"/><path fill="#BF0A30" d="M22.833,20.678v-5.951c0-0.191,0.155-0.346,0.345-0.346c0.19,0,0.345,0.155,0.345,0.346v6.08 L22.833,20.678z"/><path fill="#BF0A30" d="M22.487,24.323v5.951c0,0.19-0.155,0.345-0.345,0.345c-0.191,0-0.346-0.155-0.346-0.345v-6.081 L22.487,24.323z"/><path fill="#BF0A30" d="M21.796,20.806v-6.08c0-0.191,0.155-0.346,0.345-0.346c0.191,0,0.346,0.155,0.346,0.346v5.951 L21.796,20.806z"/><path fill="#BF0A30" d="M24.56,23.594v5.299c0,0.191-0.155,0.345-0.345,0.345c-0.191,0-0.346-0.154-0.346-0.345v-4.835 L24.56,23.594z"/><path fill="#BF0A30" d="M23.87,20.944v-4.835c0-0.191,0.155-0.346,0.345-0.346c0.191,0,0.346,0.155,0.346,0.346v5.299 L23.87,20.944z"/><path fill="#BF0A30" d="M21.45,24.057v4.835c0,0.191-0.155,0.345-0.345,0.345c-0.191,0-0.346-0.154-0.346-0.345v-5.299 L21.45,24.057z"/><path fill="#BF0A30" d="M20.759,21.408v-5.299c0-0.191,0.155-0.346,0.345-0.346c0.191,0,0.346,0.155,0.346,0.346v4.835 L20.759,21.408z"/><path fill="#FFD700" d="M22.66,20.104c-1.323,0-2.396,1.075-2.396,2.396c0,1.323,1.074,2.397,2.396,2.397 s2.396-1.075,2.396-2.397C25.056,21.179,23.982,20.104,22.66,20.104L22.66,20.104z"/></svg>