<svg xmlns="http://www.w3.org/2000/svg" viewBox="0 0 45 45"><path fill="#eeeeee" d="m 40,38.75 c 2.76125,0 5,-2.23875 5,-5 v -22.5 c 0,-2.76125 -2.23875,-5 -5,-5 H 5 c -2.76125,0 -5,2.23875 -5,5 v 22.5 c 0,2.76125 2.23875,5 5,5 z"/><path fill="#1f2c5c" d="m 20.69525,30.972875 c -1.01125,0 -0.94125,-0.20875 -0.94125,-0.20875 l -0.0025,-0.3675 c 0,0 -0.8825,0.0425 -1.7575,-0.3575 -0.58,-0.26625 -1.24625,-0.75 -1.87875,-1.51375 -0.4925,-0.59625 -0.8175,-1.23625 -1.0375,-1.83625 -0.34,-0.93 -0.42,-1.715 -0.42,-1.715 0,0 -0.32125,0.1 -0.40125,0.1 -0.08,0 -0.10875,-0.045 -0.10875,-0.045 0,0 -0.2375,-0.19 -0.3375,-0.9575 -0.065,-0.49125 -0.07625,-1.37625 0.0725,-2.07875 0.3825,-1.80125 0.3775,-2.47375 0.3775,-2.47375 0,0 -0.07125,0.065 -0.27375,0.11625 -0.1075,0.02625 -0.19,0.01625 -0.19,0.01625 0,0 -0.285,-0.07125 -0.08125,-0.3625 0.11875,-0.17 0.055,-0.31375 0.055,-0.31375 0,0 0.08875,0.06 0.13375,0.17125 0.0375,0.09 0.0625,0.2425 0.0625,0.2425 0,0 0.1825,-0.2575 -0.1275,-0.83 -0.4225,-0.78375 -0.0925,-0.88625 -0.0925,-0.88625 l 1.0375,0.1475 c 0,0 0.2125,0.225 0.335,0.65375 0.10375,0.36375 0.1375,0.835 -0.02375,1.8725 -0.22125,1.40625 -0.42875,2.415 -0.42875,2.955 0,0.5475 0.1575,1.03625 0.1575,1.03625 l 0.31625,-0.08 c 0,0 0.31625,0.11375 0.3975,0.4625 0.08,0.34875 0.13625,1.1875 0.5075,2.09625 0.30875,0.75625 1.18625,1.59625 1.79875,2.0575 1.04625,0.7875 2.0975,0.64375 2.0975,0.64375 0,0 0.12875,0.015 0.1475,0.125 0.0325,0.1775 -0.02875,0.38125 -0.02875,0.38125 0,0 0.32875,0.035 0.635,0.035 0.30625,0 0.63625,-0.035 0.63625,-0.035 0,0 -0.0625,-0.20375 -0.03,-0.38125 0.01875,-0.11 0.1475,-0.125 0.1475,-0.125 0,0 1.05125,0.14375 2.09875,-0.64375 0.6125,-0.46125 1.48875,-1.30125 1.7975,-2.0575 0.37125,-0.90875 0.42625,-1.7475 0.5075,-2.09625 0.08125,-0.34875 0.3975,-0.4625 0.3975,-0.4625 l 0.31625,0.08 c 0,0 0.15875,-0.48875 0.15875,-1.03625 0,-0.54 -0.20875,-1.54875 -0.42875,-2.955 -0.1625,-1.0375 -0.12875,-1.50875 -0.025,-1.8725 0.1225,-0.42875 0.335,-0.65375 0.335,-0.65375 l 1.03625,-0.1475 c 0,0 0.3325,0.1025 -0.09125,0.88625 -0.30875,0.5725 -0.1275,0.83 -0.1275,0.83 0,0 0.02625,-0.1525 0.0625,-0.2425 0.045,-0.11125 0.13375,-0.17125 0.13375,-0.17125 0,0 -0.0625,0.14375 0.055,0.31375 0.20375,0.29125 -0.08125,0.3625 -0.08125,0.3625 0,0 -0.0825,0.01 -0.18875,-0.01625 -0.20375,-0.05125 -0.27375,-0.11625 -0.27375,-0.11625 0,0 -0.0062,0.6725 0.37625,2.47375 0.14875,0.7025 0.1375,1.5875 0.0725,2.07875 -0.1,0.7675 -0.3375,0.9575 -0.3375,0.9575 0,0 -0.02875,0.045 -0.1075,0.045 -0.08125,0 -0.4025,-0.1 -0.4025,-0.1 0,0 -0.08,0.785 -0.42,1.715 -0.22,0.6 -0.545,1.24 -1.03625,1.83625 -0.6325,0.76375 -1.3,1.2475 -1.88,1.51375 -0.875,0.4 -1.7575,0.3575 -1.7575,0.3575 l -0.0025,0.3675 c 0,0 0.07,0.20875 -0.94125,0.20875"/><path fill="#1f2c5c" d="m 20.69525,29.476375 c 0,0 -2.9175,-1.27375 -4.305,-5.6875 -1.3175,-4.19625 -0.7425,-7.94875 -0.7425,-7.94875 h 10.095 c 0,0 0.57625,3.7525 -0.7425,7.94875 -1.3875,4.41375 -4.305,5.6875 -4.305,5.6875"/><path fill="#ffffff" d="m 17.554375,16.394625 0.26125,0.80625 h 0.8475 l -0.685,0.4975 0.26125,0.80625 -0.685,-0.4975 -0.685,0.4975 0.26125,-0.80625 -0.685,-0.4975 h 0.8475 z"/><path fill="#e6a300" d="m 18.64925,20.284375 c -0.03625,0.8275 -0.02375,1.7875 0.05375,2.68375 0.195,2.245 0.8925,4.34 0.8925,4.34 0,0 -0.91375,-1.90375 -1.04375,-4.4775 -0.05375,-1.06375 -0.045,-1.92625 -0.0075,-2.61 0,0 -0.14,-0.04375 -0.115,-0.34125 0.02375,-0.29625 0.15875,-0.25625 0.15875,-0.25625 0.0975,-1.06875 0.2575,-1.5325 0.2575,-1.5325 0,0 -0.085,0.6575 -0.14375,1.59625 0,0 0.14125,0.13125 0.15375,0.2175 0.0125,0.08625 0.005,0.125 0.005,0.125 0,0 0.1525,0.23 0.3375,0.28375 0.18625,0.05375 0.33875,0.16 0.33875,0.16 0,0 -0.03125,-0.07875 0.04375,-0.265 0.07625,-0.18625 0.0475,-0.33625 0.08875,-0.43375 0.04125,-0.0975 0.04375,-0.2675 0.03625,-0.38 -0.0075,-0.1125 0.165,-0.40375 0.22625,-0.45375 0.06125,-0.04875 0.13625,-0.02375 0.215,-0.04875 0.07875,-0.02375 0.165,-0.05625 0.165,-0.05625 0,0 0.0875,-0.35 0.095,-0.54625 0.0075,-0.19625 -0.06875,-0.32125 -0.035,-0.5075 0.035,-0.18625 0.1325,-0.29875 0.1325,-0.29875 0,0 -0.28625,-0.21875 -0.37125,-0.44375 -0.08625,-0.225 -0.05,-0.30375 -0.05,-0.30375 0,0 0.05,0.01125 0.09625,0.03625 0.04625,0.02375 0.13875,0.1225 0.13875,0.1225 0,0 -0.05125,-0.1075 -0.06,-0.19125 -0.01,-0.08375 0.0063,-0.15125 0.0063,-0.15125 0,0 0.17,-0.0175 0.35375,0.2575 0.18375,0.27375 0.16875,0.465 0.16875,0.465 0,0 0.24,-0.035 0.38,0.14625 0.13875,0.1825 0.1175,0.695 0.125,0.885 0.0075,0.19125 0.15625,0.5175 0.15625,0.5175 0,0 0.30875,0.07125 0.36625,0.1225 0.05625,0.0525 0.30125,0.69875 0.32375,0.78 0.02125,0.08125 0.10625,0.755 0.15625,0.81625 0.04875,0.06125 0.0925,0.13625 0.11,0.2475 0.0125,0.0775 -0.03875,0.17125 -0.03875,0.17125 0,0 0.07125,0.155 0.005,0.4725 -0.06625,0.31875 -0.05875,0.51 -0.05875,0.51 l 0.3225,-0.9875 c 0,0 -0.03875,-0.06125 -0.03875,-0.11 0,-0.04875 0.145,-0.54875 0.145,-0.54875 l 0.03875,0.17875 0.0225,-0.08625 0.04875,0.0125 -0.0175,0.08875 0.12,-0.09875 c 0,0 -0.115,0.48125 -0.13875,0.52 -0.025,0.03875 -0.12375,0.05875 -0.12375,0.05875 l -0.3425,1.105 c 0,0 0.08875,0.23375 0.08625,0.2775 -0.0025,0.04375 -0.0575,0.07125 -0.0575,0.1175 0,0.04625 -0.05125,0.015 -0.055,0.04375 -0.005,0.03 -0.01,0.09125 -0.025,0.10375 -0.015,0.01125 -0.04,-0.0175 -0.0425,0.005 -0.0025,0.02125 -0.005,0.0975 -0.03125,0.10875 -0.0275,0.01375 -0.07375,0.02125 -0.07375,0.02125 l 0.0075,0.8625 -0.18625,0.03625 c 0,0 -0.0375,0.395 -0.08375,0.55375 -0.04625,0.16 -0.1375,0.43625 -0.1125,0.4975 0.025,0.06125 0.06125,-0.1075 0.07375,0.08375 0.0125,0.19125 -0.125,0.7725 -0.16875,1.0275 -0.045,0.25375 -0.06,0.38625 -0.055,0.4775 0.005,0.09 0.13,0.3525 0.1375,0.40625 0.0075,0.055 0.125,0.09375 0.15,0.21625 0.02375,0.1225 0.005,0.1275 0.01,0.16 0.005,0.03125 0.01875,0.1775 -0.05125,0.2 -0.07125,0.02125 -0.19625,-0.05125 -0.24875,-0.06125 -0.05125,-0.01 -0.12125,-0.05125 -0.18125,-0.20625 -0.0575,-0.15375 -0.0625,-0.16625 -0.17375,-0.215 -0.11,-0.04875 -0.05625,-0.145 -0.05375,-0.1675 0.0025,-0.02125 -0.04875,-0.1075 -0.01875,-0.13375 0.02875,-0.0275 -0.0375,-0.09625 -0.005,-0.14 0.03125,-0.045 0.0925,-0.2075 0.08,-0.58125 -0.0125,-0.3725 -0.06125,-0.4775 -0.04125,-0.73 0.02,-0.2525 0.02,-0.2975 0.05125,-0.29 0.03125,0.0075 -0.0125,-0.1825 -0.015,-0.4525 -0.0025,-0.27 -0.1125,-0.65375 -0.095,-0.68625 0.0175,-0.0325 0.13,-0.0625 0.13,-0.10625 0,-0.04375 -0.01,-0.08 -0.01,-0.08 0,0 -0.12,0.04125 -0.225,0.04125 -0.10625,0 -0.3025,-0.03375 -0.3025,-0.03375 0,0 -0.0038,0.18375 -0.03375,0.26 -0.03,0.075 0.005,0.27875 -0.02125,0.4475 -0.0275,0.17 0,0.48875 -0.07,0.615 -0.0675,0.12875 -0.03625,0.11625 -0.01125,0.1775 0.02375,0.06125 0.0625,0.365 0.02125,0.57375 -0.04125,0.2075 -0.125,0.355 -0.095,0.37875 0.02875,0.025 0.05875,-0.01125 0.05375,0.05375 -0.005,0.06625 -0.0275,0.1325 -0.04375,0.18 -0.0175,0.04625 -0.0025,0.0125 0.01625,0.085 0.02,0.07375 0.0125,0.20125 -0.0012,0.22625 -0.015,0.025 0.0925,0.14625 0.1,0.18125 0.0063,0.03375 -0.0325,0.27375 -0.04,0.28875 -0.0075,0.015 -0.05125,0.06625 -0.16375,0.1175 -0.1125,0.0525 -0.15,0.07625 -0.225,0.18125 -0.07625,0.105 -0.19625,0.1875 -0.25,0.21875 -0.05375,0.03125 -0.15,0.06125 -0.175,0.04375 -0.02375,-0.01625 -0.09,-0.22375 -0.04375,-0.30875 0.04625,-0.085 0.20875,-0.20375 0.22125,-0.255 0.01125,-0.05125 -0.025,-0.02875 0.01125,-0.1125 0.0375,-0.08375 0.20625,-0.31875 0.21125,-0.3875 0.005,-0.06875 -0.06125,-0.5 -0.05875,-0.51375 0.0025,-0.015 0.03375,0.01625 0.04375,-0.005 0.01,-0.0225 -0.12,-0.3025 -0.115,-0.64 0.005,-0.33875 0.0125,-0.43 0.035,-0.4375 0.02125,-0.0075 -0.08125,-0.2 -0.0675,-0.29875 0.015,-0.0975 0.0125,-0.2 -0.03125,-0.38 -0.04375,-0.1775 -0.0225,-0.42125 -0.05125,-0.53 -0.02875,-0.10625 -0.10125,-0.08 -0.11,-0.10375 -0.01,-0.025 0.03375,-0.25875 0.02625,-0.38 -0.0075,-0.1225 -0.02,-0.1175 0.0575,-0.3725 0.075,-0.255 0.10875,-0.5375 0.13625,-0.7275 0.0275,-0.18875 0.0325,-0.26375 0.06625,-0.33625 0.03375,-0.07375 0.07875,-0.09375 0.06375,-0.10875 -0.015,-0.01375 -0.06125,-0.1225 -0.05625,-0.21 0.005,-0.08875 -0.07375,-0.17375 -0.07625,-0.31125 -0.0025,-0.1375 0.01,-0.6125 -0.0038,-0.7625 -0.01625,-0.15 -0.10375,-0.28375 -0.11875,-0.2675 -0.01375,0.0175 0.05625,0.24625 0.04875,0.31625 -0.0075,0.07125 0.04625,0.20125 0.035,0.31625 -0.0125,0.115 -0.035,0.1525 -0.05125,0.125 -0.0175,-0.02625 -0.21375,0.18375 -0.2575,0.2625 -0.045,0.07875 -0.08375,0.1475 -0.1725,0.06625 -0.0875,-0.08125 -0.15375,-0.09875 -0.23,-0.135 -0.07625,-0.03625 -0.16125,-0.09 -0.20875,-0.1425 -0.04625,-0.05125 -0.16375,-0.225 -0.24875,-0.3325 -0.08625,-0.10875 -0.1425,-0.1775 -0.1525,-0.18375 -0.01,-0.0075 -0.07625,-0.02 -0.07625,-0.02"/><path fill="#e6a300" d="m 23.536375,15.29175 c 0,0 -0.3075,-0.50625 -1.2425,-1.47 -0.7425,-0.765 -1.66125,-1.395 -1.66125,-1.395 0,0 -0.06375,0.155 -0.1175,0.13125 -0.05375,-0.02125 -0.04,-0.13125 -0.04,-0.13125 0,0 -0.02875,0.05875 -0.15375,0.05125 -0.125,-0.0075 -0.18125,-0.03375 -0.18125,-0.03375 l -0.08875,0.14625 c 0,0 0.06875,0.09375 0.06375,0.115 -0.005,0.0225 -0.16875,0.1525 -0.18875,0.1475 -0.02,-0.005 -0.1,-0.06125 -0.1,-0.06125 0,0 -0.17375,0.2475 -0.2875,0.3425 -0.1125,0.09625 -0.2225,0.17875 -0.2375,0.21375 -0.015,0.035 -0.035,0.14 0.06125,0.1375 0.09625,-0.0025 0.1375,0.2175 0.22,0.19875 0.08375,-0.02 0.155,0.10875 0.22875,0.1375 0.07375,0.02875 0.075,0.10875 0.215,0.13125 0.1325,0.0225 0.22875,0.0025 0.22875,0.0025 0,0 0.3775,0.19875 0.40125,0.22375 0.025,0.02375 0.18625,0.31125 0.18875,0.345 0.0025,0.035 -0.01875,0.10875 -0.01875,0.10875 l 0.22,0.105 c 0,0 0.07875,-0.1125 0.3375,-0.1 0.25875,0.01125 0.36375,0.12125 0.36375,0.12125 0,0 0.145,-0.13125 0.45875,-0.13125 0.31375,0 0.3725,0.1425 0.375,0.19375 0.0025,0.05125 -0.08125,0.185 -0.265,0.185 -0.18375,0 -0.36,-0.0875 -0.36,-0.0875 0,0 -0.0175,0.11 -0.22625,0.11 -0.2075,0 -0.4625,-0.115 -0.4625,-0.115 0,0 -0.045,0.0975 -0.2975,0.0975 -0.25125,0 -0.38375,-0.1025 -0.38375,-0.1025 0,0 -0.08125,0.1325 -0.2825,0.1325 -0.20125,0 -0.45125,-0.1475 -0.45125,-0.1475 0,0 -0.085,0.1225 -0.29625,0.1225 -0.21125,0 -0.42375,-0.14875 -0.42375,-0.14875 0,0 -0.09875,0.18625 -0.43125,0.18625 -0.33375,0 -0.415,-0.16 -0.415,-0.22375 0,-0.0625 0.07125,-0.17875 0.3025,-0.17875 0.23,0 0.36375,0.105 0.36375,0.105 0,0 -0.0013,-0.12125 0.2725,-0.12125 0.275,0 0.43125,0.13625 0.43125,0.13625 0,0 0.015,-0.04375 0.07375,-0.07625 0.05875,-0.03125 0.2425,-0.06 0.2425,-0.06 0,0 -0.35,-0.11125 -0.79875,-0.46625 -0.44875,-0.35625 -0.66875,-0.71875 -0.66875,-0.7775 0,-0.05875 0.21375,-0.2575 0.28875,-0.39625 0.07625,-0.14 0.36125,-0.265 0.48,-0.35625 0.12125,-0.09 0.2,-0.17625 0.2,-0.17625 0,0 -0.045,-0.08625 -0.0375,-0.105 0.0075,-0.02 0.1325,-0.18125 0.15625,-0.18125 0.025,0 0.145,0.14 0.145,0.14 0,0 0.15,-0.035 0.15875,-0.04875 0.01,-0.01625 -0.01625,-0.08625 0.0575,-0.175 0.0725,-0.0875 0.1025,-0.125 0.0975,-0.13875 -0.005,-0.01625 -0.07125,-0.01625 -0.095,-0.0375 -0.025,-0.0225 -0.10625,-0.1 -0.05,-0.155 0.0575,-0.05375 0.16625,0.06625 0.16625,0.06625 0,0 0.0425,-0.06625 0.11125,-0.08 0.06875,-0.0125 0.175,0.035 0.31125,0.13625 0.2525,0.18875 0.18375,0.31125 0.18375,0.31125 0,0 0.08625,-0.2125 0.1425,-0.16875 0.0825,0.065 -0.06625,0.22 -0.06625,0.22 0,0 0.64625,0.415 1.67375,1.4425 0.94125,0.94125 1.1075,1.6025 1.1075,1.6025"/></svg>