<svg xmlns="http://www.w3.org/2000/svg" viewBox="0 0 45 45"><path fill="#BF0A30" d="M5,6.25c-2.761,0-5,2.239-5,5l0,0v22.5c0,2.761,2.239,5,5,5l0,0h35c2.761,0,5-2.239,5-5l0,0v-22.5 c0-2.761-2.239-5-5-5l0,0H5z"/><path fill="#EEEEEE" d="M5.277,9.716c-0.717,0-1.3,0.583-1.3,1.3v22.969c0,0.717,0.583,1.3,1.3,1.3h34.444c0.717,0,1.3-0.583,1.3-1.3 V11.016c0-0.717-0.583-1.3-1.3-1.3H5.277z"/><path fill="#002868" d="M37.901,32.839H7.097V12.16h30.804V32.839z"/><path fill="#EEEEEE" d="M22.589,24.47c0,0,1.051,0.022,1.896,0.229c0.846,0.206,1.53,0.698,1.53,0.698 s1.67-1.793,1.911-1.793c0.243,0,0.736,0.124,0.773,0.779c0.036,0.654,0.809,1.61,0.809,2.367c0,0.478-0.964,2.839-0.964,2.839 h0.501c0,0,0.095-0.236,0.146-0.272c0.052-0.036,0.147-0.126,0.199-0.538c0.051-0.411,0.684-1.425,0.684-1.425 s-0.02,0.586-0.02,0.851c0,0.265,0.022,0.415-0.015,0.547c-0.036,0.131-0.073,0.124-0.213,0.368 c-0.14,0.243-0.117,0.429-0.117,0.429l0.581,0.04c0,0-0.046-0.306,0.054-0.391c0.1-0.082,0.169-0.019,0.169-0.019 s0.046-1.385,0.179-1.811c0.132-0.426,0.661-1.354,0.661-1.354s-0.246-0.958-0.246-2.036c0-1.077,0.823-3.852,0.823-3.852 s0.236,0.852,0.236,1.294s-0.188,1.314-0.188,1.725c0,0.413,0.139,0.892,0.139,0.892s0.214-0.265,0.214-0.646 c0-0.382-0.087-0.344-0.087-0.706c0-0.363,0.134-1.375,0.134-2.059s-0.479-1.883-0.803-2.288c-0.324-0.404-1.243-0.595-2.439-0.909 l-1.196-0.314c0,0-0.774-0.108-1.334-0.275c-0.559-0.166-1.264-0.98-1.734-1.068c-0.471-0.089-0.922,0.146-1.374,0.077 s-1.255-0.564-2.593-0.564c-1.339,0-3.272,1.331-3.39,1.331s-0.148-0.051-0.301-0.051c-0.155,0-0.795,0.639-1.339,0.639 c-0.544,0-0.769-0.188-1.456-0.188c-0.685,0-1.794,0.901-1.794,1.629c0,0.729,0.485,1.007,0.544,1.361 c0.06,0.352-0.073,0.926-0.008,1.324c0.068,0.396,0.604,1.434,0.604,1.646c0,0.214-0.125,0.271-0.125,0.271s0.293-0.014,0.5,0.155 c0.534,0.436,0.72,1.442,0.72,1.442s0.479-0.384,0.714-0.486c0.235-0.102,0.257,0,0.382-0.044c0.089-0.031,0.24-0.311,0.689-0.584 c0.274-0.167,1.315-0.166,1.852,0.295c0.55,0.469,0.421,1.906,0.421,1.906s0.14-0.155,0.581-0.155s0.515,0.706,0.663,1.184 c0.146,0.479,0.47,0.919,0.47,1.427c0,0.506-0.375,1.286-0.375,1.286l0.985,0.036c0,0,0-0.661,0.051-0.72 c0.053-0.059,0.244-0.036,0.405-0.243c0.161-0.206-0.007-0.25,0.081-0.39c0.088-0.14,0.493-0.191,0.523-0.301 c0.029-0.111-0.007-0.729,0.057-0.86c0.068-0.133,0.236-0.206,0.273-0.426C22.669,26.552,22.589,24.47,22.589,24.47"/><path fill="#002868" d="M25.121,20.04c0,2.241-1.818,4.06-4.059,4.06c-2.243,0-4.06-1.819-4.06-4.06 s1.817-4.06,4.06-4.06C23.303,15.98,25.121,17.798,25.121,20.04"/><path fill="#EEEEEE" d="M24.744,20.04c0,2.032-1.649,3.681-3.681,3.681c-2.034,0-3.682-1.649-3.682-3.681 s1.649-3.681,3.682-3.681C23.095,16.358,24.744,18.007,24.744,20.04"/></svg>