<svg xmlns="http://www.w3.org/2000/svg" viewBox="0 0 45 45"><path fill="#000066" d="M5,38.75c-2.761,0-5-2.239-5-5v-22.5c0-2.761,2.239-5,5-5h35c2.761,0,5,2.239,5,5v22.5c0,2.761-2.239,5-5,5H5z"/><path fill="#E6AD05" d="M13.557,19.075c-0.158-0.054-0.236-0.081-0.395-0.136c-0.109,0.02-0.205,0.062-0.287,0.127 c-0.082,0.063-0.139,0.149-0.169,0.254c-0.051,0.185,0.005,0.365,0.169,0.526c0.164,0.162,0.398,0.274,0.696,0.34 c0.028,0.006,0.041,0.009,0.069,0.016c0.3,0.066,0.558,0.069,0.773,0.016c0.214-0.052,0.339-0.147,0.379-0.292 c0.024-0.083,0.018-0.166-0.016-0.251c-0.036-0.084-0.093-0.164-0.171-0.24c-0.159-0.054-0.238-0.081-0.395-0.136 c-0.023,0.067-0.034,0.102-0.054,0.17c0.104,0.045,0.156,0.067,0.26,0.11c0.034,0.032,0.056,0.07,0.069,0.115 c0.011,0.044,0.011,0.086,0,0.131c-0.027,0.095-0.112,0.151-0.255,0.171c-0.145,0.021-0.321,0.007-0.529-0.045 c-0.029-0.007-0.043-0.011-0.071-0.019c-0.209-0.052-0.37-0.125-0.483-0.221c-0.114-0.095-0.154-0.204-0.121-0.319 c0.015-0.052,0.04-0.095,0.075-0.127c0.035-0.032,0.075-0.054,0.122-0.066c0.111,0.024,0.166,0.035,0.276,0.059 C13.522,19.184,13.533,19.148,13.557,19.075 M14.217,18.265c0.012,0.005,0.019,0.009,0.031,0.015 c0.202,0.094,0.355,0.192,0.46,0.292c0.105,0.101,0.139,0.192,0.104,0.279c-0.036,0.088-0.124,0.126-0.267,0.121 c-0.142-0.005-0.319-0.047-0.526-0.127c-0.012-0.006-0.019-0.007-0.033-0.013c-0.205-0.08-0.362-0.17-0.469-0.269 c-0.108-0.101-0.14-0.204-0.099-0.306c0.042-0.102,0.137-0.15,0.282-0.144C13.847,18.121,14.02,18.172,14.217,18.265 M14.32,18.05 c-0.276-0.137-0.528-0.206-0.755-0.196c-0.229,0.011-0.381,0.105-0.45,0.274s-0.026,0.346,0.125,0.522 c0.153,0.176,0.378,0.311,0.666,0.415c0.013,0.005,0.017,0.008,0.03,0.011c0.291,0.105,0.549,0.142,0.77,0.126 c0.219-0.016,0.355-0.087,0.409-0.221c0.055-0.134,0.009-0.28-0.136-0.45c-0.144-0.171-0.353-0.329-0.631-0.467L14.32,18.05z M14.501,16.717c0.306,0.216,0.46,0.324,0.766,0.539c0.111,0.075,0.166,0.111,0.278,0.186c-0.009,0.046-0.014,0.07-0.024,0.116 c0.086,0.056,0.129,0.084,0.215,0.14c0.089-0.142,0.135-0.211,0.229-0.347c-0.082-0.06-0.124-0.089-0.206-0.149 c-0.039,0.026-0.06,0.039-0.099,0.065c-0.498-0.35-0.746-0.525-1.245-0.875c0.015-0.054,0.023-0.08,0.039-0.134 c-0.082-0.06-0.125-0.089-0.209-0.15c-0.106,0.151-0.158,0.229-0.258,0.387c0.452,0.454,0.685,0.672,1.161,1.095 c-0.001,0.002-0.001,0.002-0.002,0.005c-0.589-0.231-0.888-0.337-1.494-0.533c-0.065,0.12-0.096,0.18-0.159,0.303 c-0.024,0.05-0.036,0.074-0.061,0.124c0.091,0.048,0.136,0.07,0.229,0.116c0.039-0.04,0.059-0.06,0.097-0.101 c0.538,0.284,0.807,0.426,1.344,0.71c-0.004,0.049-0.006,0.072-0.011,0.122c0.09,0.046,0.136,0.069,0.226,0.115 c0.076-0.155,0.116-0.231,0.199-0.381c-0.089-0.051-0.133-0.076-0.221-0.127c-0.037,0.031-0.055,0.048-0.091,0.079 c-0.118-0.065-0.175-0.097-0.291-0.162c-0.329-0.174-0.493-0.261-0.823-0.434c0-0.001,0-0.003,0.001-0.004 c0.608,0.189,0.906,0.292,1.497,0.521c0.027-0.049,0.041-0.072,0.07-0.119c-0.477-0.426-0.71-0.646-1.161-1.105 C14.499,16.718,14.5,16.718,14.501,16.717 M15.452,15.488c0.269,0.261,0.404,0.391,0.675,0.652 c0.097,0.091,0.146,0.136,0.245,0.227c-0.016,0.043-0.024,0.065-0.039,0.109c0.075,0.067,0.113,0.102,0.189,0.17 c0.108-0.12,0.163-0.179,0.275-0.292c-0.073-0.071-0.11-0.107-0.182-0.18c-0.042,0.017-0.064,0.028-0.105,0.046 c-0.439-0.424-0.658-0.636-1.096-1.06c0.022-0.049,0.034-0.073,0.057-0.121c-0.074-0.073-0.11-0.109-0.182-0.181 c-0.126,0.127-0.188,0.192-0.307,0.326c0.379,0.515,0.575,0.767,0.983,1.256c-0.001,0.001-0.002,0.003-0.004,0.004 c-0.544-0.326-0.821-0.481-1.387-0.775c-0.08,0.103-0.119,0.154-0.196,0.259c-0.031,0.043-0.047,0.064-0.078,0.108 c0.083,0.06,0.124,0.091,0.206,0.153c0.044-0.032,0.066-0.049,0.111-0.079c0.485,0.367,0.729,0.55,1.215,0.917 c-0.013,0.046-0.017,0.069-0.029,0.115c0.082,0.06,0.122,0.091,0.205,0.151c0.096-0.135,0.146-0.2,0.248-0.327l-0.199-0.161 c-0.04,0.023-0.06,0.035-0.101,0.059c-0.104-0.084-0.156-0.125-0.261-0.208c-0.296-0.226-0.446-0.338-0.744-0.563 c0.001-0.001,0.001-0.003,0.002-0.004c0.567,0.29,0.846,0.443,1.391,0.766c0.034-0.04,0.051-0.061,0.085-0.1 c-0.406-0.492-0.602-0.746-0.981-1.265C15.449,15.49,15.45,15.49,15.452,15.488 M16.653,15.017 c0.009,0.011,0.014,0.016,0.022,0.026c0.144,0.173,0.243,0.324,0.299,0.456c0.056,0.133,0.054,0.224-0.009,0.28 c-0.063,0.055-0.155,0.046-0.279-0.025c-0.124-0.07-0.264-0.186-0.419-0.349c-0.009-0.01-0.014-0.015-0.024-0.025 c-0.151-0.161-0.259-0.307-0.316-0.439c-0.059-0.134-0.051-0.234,0.023-0.299c0.074-0.065,0.176-0.061,0.301,0.011 C16.378,14.728,16.512,14.85,16.653,15.017 M16.842,14.908c-0.007-0.01-0.012-0.015-0.02-0.024 c-0.194-0.241-0.391-0.414-0.596-0.51c-0.206-0.095-0.375-0.086-0.496,0.02c-0.121,0.109-0.148,0.275-0.076,0.489 c0.071,0.216,0.22,0.431,0.438,0.651c0.009,0.009,0.014,0.013,0.022,0.023c0.22,0.221,0.433,0.373,0.632,0.463 c0.199,0.089,0.345,0.093,0.44,0.008c0.096-0.086,0.109-0.229,0.043-0.438C17.163,15.38,17.037,15.152,16.842,14.908 M17.239,13.326c-0.044,0.026-0.065,0.039-0.108,0.065c-0.124,0.076-0.184,0.116-0.305,0.195c0.058,0.085,0.086,0.129,0.145,0.212 c0.051-0.013,0.076-0.019,0.128-0.031c0.249,0.376,0.374,0.564,0.622,0.939c0,0.001-0.001,0.003-0.002,0.004 c-0.454-0.386-0.691-0.571-1.185-0.92c-0.076,0.056-0.115,0.084-0.191,0.141c-0.041,0.031-0.061,0.046-0.1,0.077 c0.063,0.081,0.095,0.121,0.159,0.203c0.05-0.018,0.075-0.025,0.124-0.041c0.373,0.484,0.558,0.725,0.929,1.209 c-0.022,0.039-0.032,0.059-0.055,0.099c0.064,0.08,0.095,0.12,0.157,0.2c0.125-0.096,0.188-0.142,0.316-0.233 c-0.06-0.084-0.089-0.125-0.149-0.209c-0.044,0.01-0.066,0.015-0.111,0.025c-0.268-0.364-0.4-0.546-0.668-0.91 c0.001-0.001,0.003-0.003,0.003-0.004c0.484,0.357,0.715,0.545,1.159,0.939c0.064-0.041,0.095-0.061,0.159-0.1 c-0.39-0.616-0.584-0.924-0.974-1.541c0.032-0.04,0.049-0.06,0.081-0.1C17.319,13.458,17.293,13.414,17.239,13.326 M18.764,12.853 c-0.04-0.095-0.059-0.141-0.1-0.236c-0.159,0.065-0.237,0.099-0.395,0.17c0.044,0.092,0.066,0.139,0.11,0.231 c0.044-0.005,0.065-0.008,0.109-0.012c0.146,0.444,0.222,0.664,0.38,1.102l-0.003,0.003c-0.319-0.493-0.484-0.736-0.824-1.218 c-0.063,0.03-0.094,0.046-0.156,0.078c0.191,0.555,0.291,0.83,0.505,1.375c-0.003,0-0.003,0-0.005,0.001 c-0.265-0.386-0.4-0.577-0.675-0.958c0.03-0.031,0.045-0.046,0.075-0.079c-0.049-0.09-0.074-0.134-0.124-0.224 c-0.152,0.081-0.227,0.124-0.376,0.211c0.053,0.089,0.08,0.133,0.134,0.22c0.036-0.012,0.055-0.017,0.091-0.029 c0.459,0.586,0.681,0.885,1.111,1.49c0.061-0.034,0.091-0.05,0.154-0.082c-0.205-0.525-0.303-0.789-0.485-1.323 c0.001-0.001,0.002-0.001,0.004-0.003c0.326,0.462,0.485,0.698,0.791,1.172c0.063-0.03,0.095-0.044,0.157-0.073 c-0.237-0.699-0.349-1.052-0.556-1.764C18.718,12.885,18.733,12.875,18.764,12.853 M19.813,13.464 c-0.041-0.124-0.061-0.186-0.104-0.31c-0.138,0.044-0.206,0.066-0.343,0.115c-0.075-0.199-0.112-0.299-0.186-0.498 c0.136-0.049,0.205-0.073,0.343-0.116c0.035,0.095,0.054,0.142,0.089,0.236c0.065-0.02,0.097-0.03,0.163-0.05 c-0.069-0.22-0.104-0.331-0.173-0.552c-0.307,0.091-0.459,0.143-0.756,0.257c-0.048,0.017-0.07,0.026-0.116,0.045 c0.04,0.094,0.059,0.142,0.097,0.236c0.053-0.001,0.078-0.003,0.13-0.004c0.226,0.565,0.339,0.847,0.565,1.411 c-0.032,0.031-0.047,0.046-0.08,0.078c0.039,0.094,0.059,0.141,0.098,0.235c0.274-0.109,0.414-0.156,0.695-0.241 c-0.069-0.22-0.104-0.33-0.173-0.551c-0.058,0.017-0.088,0.026-0.145,0.045c0.029,0.096,0.044,0.145,0.073,0.243 c-0.12,0.038-0.179,0.057-0.296,0.099c-0.085-0.226-0.126-0.339-0.211-0.566C19.613,13.529,19.679,13.506,19.813,13.464 M20.427,13.34c-0.029-0.299-0.043-0.449-0.064-0.75c0.001,0,0.003,0,0.004-0.001c0.12,0.279,0.178,0.417,0.29,0.699 C20.564,13.307,20.518,13.317,20.427,13.34 M20.247,14.039c0.03,0.098,0.045,0.145,0.075,0.243 c0.121-0.034,0.183-0.051,0.305-0.081c-0.025-0.099-0.039-0.148-0.064-0.246c-0.029-0.004-0.042-0.005-0.071-0.009 c-0.014-0.116-0.02-0.174-0.034-0.291c0.125-0.03,0.189-0.045,0.314-0.073c0.044,0.11,0.065,0.165,0.106,0.275 c-0.024,0.015-0.036,0.024-0.06,0.039c0.023,0.099,0.034,0.149,0.056,0.248c0.125-0.026,0.186-0.039,0.311-0.061 c-0.019-0.1-0.029-0.149-0.048-0.249c-0.029-0.004-0.042-0.006-0.071-0.009c-0.256-0.7-0.396-1.047-0.7-1.732 c-0.094,0.02-0.14,0.031-0.233,0.054c0.044,0.746,0.079,1.117,0.173,1.854C20.283,14.015,20.27,14.022,20.247,14.039 M21.246,14.071c0.276-0.047,0.415-0.065,0.694-0.09c-0.023-0.235-0.034-0.352-0.056-0.587c-0.061,0.005-0.091,0.009-0.151,0.015 c0.007,0.106,0.011,0.159,0.02,0.265c-0.109,0.011-0.162,0.017-0.271,0.032c-0.085-0.589-0.127-0.884-0.214-1.472 c0.046-0.024,0.069-0.035,0.115-0.059l-0.034-0.253c-0.05,0.006-0.075,0.01-0.124,0.016c-0.093,0.013-0.139,0.02-0.233,0.034 c-0.049,0.009-0.073,0.013-0.121,0.02c0.017,0.101,0.026,0.151,0.045,0.252c0.05,0.008,0.075,0.013,0.126,0.022 c0.1,0.597,0.151,0.896,0.252,1.494c-0.039,0.024-0.056,0.036-0.094,0.06C21.219,13.921,21.227,13.971,21.246,14.071 M22.685,11.836c-0.416,0.001-0.624,0.011-1.037,0.052c0.024,0.224,0.035,0.335,0.059,0.559c0.068-0.006,0.1-0.01,0.168-0.015 c-0.005-0.095-0.006-0.141-0.011-0.236c0.083-0.006,0.124-0.01,0.206-0.015c0.039,0.594,0.057,0.891,0.096,1.484 c-0.04,0.02-0.06,0.03-0.1,0.05c0.009,0.101,0.012,0.153,0.02,0.254c0.154-0.011,0.231-0.015,0.386-0.02 c-0.004-0.101-0.005-0.151-0.009-0.254c-0.041-0.015-0.063-0.024-0.104-0.039c-0.025-0.595-0.039-0.891-0.064-1.486 c0.084-0.002,0.125-0.004,0.208-0.006c0.006,0.095,0.009,0.141,0.015,0.236c0.068-0.001,0.101-0.001,0.169-0.001 C22.686,12.174,22.685,12.062,22.685,11.836 M22.759,12.092c0.049,0.017,0.073,0.026,0.12,0.044 c-0.009,0.606-0.014,0.909-0.024,1.515c-0.041,0.016-0.061,0.025-0.103,0.043c0,0.101,0,0.151,0,0.254 c0.154,0,0.231,0.002,0.385,0.01c0.005-0.102,0.007-0.153,0.011-0.254c-0.039-0.02-0.059-0.029-0.1-0.049 c0.009-0.231,0.014-0.346,0.022-0.579c0.167,0.006,0.251,0.011,0.417,0.024c-0.02,0.231-0.029,0.346-0.048,0.579 c-0.042,0.014-0.065,0.021-0.106,0.035c-0.007,0.101-0.011,0.153-0.019,0.254c0.153,0.01,0.23,0.017,0.382,0.034 c0.013-0.1,0.019-0.151,0.03-0.251c-0.039-0.023-0.059-0.034-0.097-0.055c0.065-0.603,0.096-0.903,0.161-1.505 c0.05-0.014,0.075-0.02,0.126-0.031l0.03-0.252c-0.05-0.006-0.075-0.009-0.124-0.014c-0.094-0.009-0.14-0.014-0.233-0.021 c-0.05-0.004-0.075-0.005-0.125-0.009c-0.006,0.101-0.01,0.153-0.017,0.255c0.048,0.02,0.07,0.03,0.118,0.051 c-0.02,0.243-0.031,0.365-0.051,0.606c-0.173-0.013-0.26-0.019-0.433-0.025c0.009-0.243,0.014-0.365,0.023-0.608 c0.049-0.016,0.075-0.024,0.124-0.039c0.005-0.101,0.007-0.152,0.014-0.254c-0.194-0.01-0.29-0.013-0.484-0.013 C22.759,11.938,22.759,11.989,22.759,12.092 M25.003,13.138c-0.004,0.014-0.006,0.02-0.009,0.034 c-0.055,0.216-0.12,0.385-0.191,0.508c-0.075,0.123-0.15,0.175-0.229,0.159s-0.124-0.094-0.139-0.235 c-0.014-0.141-0.001-0.321,0.04-0.54c0.003-0.014,0.004-0.02,0.007-0.034c0.04-0.216,0.096-0.387,0.168-0.511 c0.071-0.125,0.156-0.178,0.25-0.159c0.093,0.02,0.146,0.103,0.163,0.246C25.077,12.748,25.055,12.927,25.003,13.138 M25.196,13.222c0.004-0.011,0.005-0.017,0.009-0.03c0.083-0.296,0.105-0.555,0.064-0.775c-0.041-0.219-0.144-0.348-0.296-0.38 c-0.156-0.033-0.304,0.044-0.431,0.227c-0.131,0.185-0.216,0.43-0.267,0.733c-0.001,0.013-0.002,0.019-0.005,0.031 c-0.051,0.306-0.051,0.565-0.01,0.777c0.042,0.211,0.121,0.329,0.245,0.354c0.122,0.026,0.243-0.05,0.37-0.226 C25.005,13.757,25.115,13.522,25.196,13.222 M25.062,14.002c-0.028,0.097-0.041,0.146-0.07,0.245 c0.149,0.04,0.224,0.061,0.37,0.109c0.034-0.096,0.049-0.145,0.081-0.241c-0.034-0.03-0.05-0.044-0.086-0.073 c0.073-0.221,0.108-0.333,0.179-0.554c0.138,0.042,0.206,0.065,0.343,0.112c0.045-0.122,0.068-0.184,0.112-0.307 c-0.141-0.049-0.212-0.073-0.355-0.116c0.072-0.221,0.107-0.333,0.18-0.554c0.141,0.044,0.21,0.066,0.351,0.115 c-0.031,0.096-0.046,0.144-0.077,0.24c0.064,0.022,0.095,0.034,0.159,0.057c0.084-0.216,0.125-0.325,0.208-0.542 c-0.349-0.128-0.526-0.184-0.885-0.28c-0.028,0.098-0.041,0.147-0.069,0.246c0.041,0.029,0.061,0.044,0.104,0.074 c-0.174,0.581-0.26,0.873-0.433,1.454C25.128,13.993,25.106,13.995,25.062,14.002 M26.162,14.379 c-0.041,0.094-0.061,0.14-0.103,0.234c0.14,0.059,0.21,0.09,0.349,0.156c0.045-0.092,0.068-0.138,0.112-0.23 c-0.028-0.031-0.041-0.049-0.071-0.081c0.103-0.21,0.154-0.316,0.255-0.528c0.042,0.019,0.062,0.029,0.106,0.049 c-0.039,0.254-0.059,0.38-0.106,0.631c-0.026-0.005-0.039-0.008-0.063-0.012c-0.046,0.091-0.07,0.137-0.116,0.227 c0.131,0.066,0.198,0.1,0.329,0.173c0.051-0.089,0.075-0.133,0.126-0.221c-0.026-0.032-0.04-0.048-0.068-0.079 c0.069-0.344,0.099-0.516,0.147-0.866c0.221-0.201,0.334-0.299,0.569-0.49c0.051,0.009,0.076,0.014,0.126,0.024 c0.051-0.089,0.077-0.132,0.127-0.222c-0.163-0.09-0.245-0.133-0.411-0.215c-0.046,0.093-0.07,0.138-0.116,0.229 c0.021,0.019,0.031,0.028,0.052,0.046c-0.188,0.17-0.281,0.257-0.46,0.435l-0.085-0.04c0.099-0.205,0.147-0.306,0.245-0.511 c0.05,0.005,0.075,0.006,0.125,0.011c0.046-0.092,0.069-0.138,0.114-0.23c-0.173-0.083-0.261-0.121-0.436-0.196l-0.104,0.235 c0.038,0.035,0.058,0.052,0.094,0.087c-0.25,0.554-0.376,0.831-0.628,1.385C26.23,14.379,26.206,14.379,26.162,14.379 M27.946,14.571c0.075-0.109,0.111-0.162,0.185-0.271c-0.122-0.081-0.184-0.121-0.31-0.198c0.114-0.181,0.17-0.271,0.284-0.452 c0.125,0.076,0.186,0.115,0.309,0.196c-0.054,0.087-0.08,0.13-0.134,0.216c0.056,0.037,0.085,0.057,0.141,0.096 c0.134-0.19,0.201-0.285,0.335-0.475c-0.265-0.185-0.401-0.271-0.68-0.433c-0.044-0.025-0.064-0.036-0.108-0.061 c-0.051,0.089-0.078,0.133-0.129,0.221c0.032,0.04,0.05,0.059,0.083,0.097c-0.313,0.524-0.468,0.785-0.78,1.309 c-0.045-0.006-0.066-0.009-0.11-0.013c-0.051,0.087-0.077,0.131-0.129,0.22c0.257,0.145,0.385,0.224,0.63,0.394 c0.132-0.189,0.2-0.284,0.335-0.474c-0.051-0.035-0.076-0.052-0.128-0.086c-0.06,0.083-0.089,0.124-0.149,0.206 c-0.106-0.071-0.16-0.105-0.268-0.171c0.129-0.205,0.194-0.309,0.323-0.514C27.767,14.453,27.827,14.492,27.946,14.571 M29.81,14.525c-0.039-0.035-0.057-0.052-0.096-0.087c-0.11-0.097-0.165-0.146-0.279-0.24c-0.066,0.08-0.099,0.119-0.165,0.198 l0.068,0.112c-0.294,0.344-0.44,0.515-0.734,0.858l-0.005-0.001c0.246-0.543,0.356-0.821,0.557-1.39 c-0.076-0.057-0.115-0.086-0.191-0.143c-0.041-0.03-0.061-0.045-0.103-0.074c-0.06,0.084-0.09,0.125-0.15,0.208l0.074,0.108 l-0.91,1.224c-0.044-0.011-0.066-0.016-0.11-0.026c-0.06,0.084-0.09,0.125-0.15,0.208c0.127,0.09,0.19,0.139,0.314,0.235 c0.064-0.079,0.095-0.12,0.16-0.199c-0.024-0.04-0.034-0.06-0.056-0.1c0.278-0.356,0.416-0.535,0.694-0.891l0.006,0.003 c-0.211,0.56-0.328,0.835-0.584,1.369c0.059,0.05,0.087,0.075,0.144,0.126c0.489-0.544,0.731-0.815,1.219-1.359 c0.05,0.02,0.074,0.031,0.122,0.052C29.705,14.638,29.74,14.601,29.81,14.525 M30.604,15.347c-0.285-0.331-0.435-0.486-0.747-0.779 c-0.155,0.166-0.231,0.249-0.385,0.415c0.05,0.047,0.075,0.071,0.125,0.12c0.069-0.066,0.102-0.099,0.171-0.166 c0.062,0.061,0.092,0.091,0.154,0.153c-0.425,0.422-0.639,0.632-1.063,1.055c-0.044-0.019-0.064-0.028-0.106-0.045 c-0.072,0.073-0.109,0.109-0.18,0.183c0.114,0.111,0.169,0.17,0.278,0.289c0.075-0.07,0.114-0.104,0.188-0.174 c-0.016-0.042-0.022-0.065-0.04-0.109c0.435-0.411,0.651-0.616,1.088-1.029c0.059,0.063,0.087,0.095,0.145,0.16 c-0.067,0.066-0.101,0.1-0.17,0.166c0.049,0.052,0.071,0.08,0.118,0.134C30.349,15.571,30.434,15.496,30.604,15.347 M30.968,15.797 c-0.031-0.042-0.047-0.062-0.08-0.104c-0.061-0.079-0.094-0.117-0.156-0.195c-0.034-0.04-0.05-0.06-0.085-0.1 c-0.076,0.068-0.116,0.101-0.194,0.168c0.02,0.05,0.029,0.075,0.049,0.126c-0.34,0.285-0.509,0.427-0.849,0.712 c-0.182,0.154-0.297,0.304-0.352,0.443c-0.054,0.139-0.046,0.252,0.025,0.347c0.07,0.095,0.176,0.135,0.325,0.122 c0.148-0.013,0.321-0.083,0.517-0.218c0.365-0.252,0.548-0.378,0.912-0.629c0.043,0.032,0.065,0.05,0.108,0.084 c0.085-0.056,0.127-0.085,0.212-0.143c-0.114-0.175-0.173-0.261-0.295-0.429c-0.081,0.061-0.122,0.092-0.205,0.153 c0.016,0.052,0.025,0.079,0.04,0.131c-0.359,0.26-0.537,0.39-0.896,0.65c-0.114,0.084-0.21,0.131-0.286,0.141 c-0.077,0.011-0.135-0.01-0.173-0.061c-0.04-0.052-0.041-0.112-0.01-0.185c0.031-0.071,0.104-0.151,0.212-0.239 c0.346-0.278,0.52-0.415,0.865-0.693c0.045,0.029,0.068,0.044,0.112,0.074C30.846,15.891,30.888,15.859,30.968,15.797 M31.327,17.72c0.148-0.077,0.223-0.116,0.371-0.195c0.064-0.091,0.102-0.188,0.119-0.286c0.014-0.1-0.002-0.195-0.053-0.282 c-0.085-0.151-0.243-0.222-0.464-0.205c-0.222,0.016-0.461,0.115-0.717,0.285c-0.024,0.015-0.035,0.024-0.06,0.039 c-0.258,0.171-0.443,0.349-0.563,0.531c-0.119,0.183-0.146,0.327-0.079,0.448c0.039,0.07,0.099,0.119,0.18,0.149 c0.083,0.029,0.175,0.04,0.282,0.032c0.149-0.078,0.223-0.118,0.371-0.195c-0.031-0.06-0.045-0.089-0.076-0.149 c-0.104,0.046-0.155,0.07-0.259,0.116c-0.045,0.002-0.088-0.005-0.125-0.025c-0.037-0.017-0.066-0.046-0.087-0.083 c-0.044-0.08-0.02-0.173,0.069-0.287s0.225-0.229,0.406-0.343c0.026-0.016,0.038-0.024,0.064-0.04 c0.182-0.115,0.344-0.185,0.487-0.206c0.144-0.02,0.243,0.017,0.296,0.112c0.025,0.045,0.035,0.09,0.031,0.134 c-0.004,0.045-0.016,0.09-0.042,0.131c-0.094,0.064-0.14,0.095-0.234,0.159C31.278,17.624,31.294,17.655,31.327,17.72 M30.354,18.344c-0.09,0.046-0.135,0.07-0.227,0.115c0.076,0.155,0.111,0.234,0.18,0.394l0.231-0.104 c-0.001-0.047-0.001-0.073-0.004-0.121c0.211-0.099,0.317-0.147,0.531-0.245c0.021,0.049,0.032,0.072,0.052,0.123 c-0.189,0.182-0.284,0.271-0.479,0.444c-0.016-0.024-0.025-0.035-0.042-0.057c-0.093,0.04-0.14,0.059-0.233,0.099 c0.064,0.159,0.094,0.239,0.151,0.403c0.095-0.034,0.142-0.051,0.238-0.086c-0.001-0.049-0.003-0.073-0.004-0.12 c0.27-0.235,0.403-0.358,0.66-0.611c0.3,0.002,0.451,0.01,0.755,0.032c0.035,0.049,0.051,0.073,0.086,0.121 c0.095-0.035,0.143-0.052,0.239-0.087c-0.073-0.205-0.11-0.305-0.19-0.503c-0.095,0.04-0.141,0.06-0.235,0.101 c0.005,0.03,0.007,0.046,0.012,0.077c-0.255-0.003-0.382,0-0.636,0.009c-0.016-0.039-0.024-0.059-0.041-0.097 c0.205-0.095,0.308-0.142,0.512-0.237c0.037,0.041,0.056,0.062,0.092,0.105c0.094-0.041,0.141-0.063,0.234-0.104 c-0.086-0.201-0.131-0.3-0.225-0.494c-0.09,0.046-0.136,0.07-0.226,0.116c0.006,0.056,0.011,0.085,0.019,0.142 c-0.545,0.269-0.817,0.402-1.362,0.67C30.408,18.394,30.389,18.378,30.354,18.344 M32.434,19.304 c0.097-0.029,0.146-0.045,0.244-0.074c-0.06-0.204-0.091-0.304-0.159-0.501c-0.096,0.035-0.144,0.052-0.24,0.086 c0.004,0.046,0.006,0.071,0.01,0.119c-0.358,0.274-0.54,0.405-0.91,0.655c-0.177,0.054-0.268,0.081-0.446,0.135 c-0.031-0.041-0.045-0.063-0.076-0.104c-0.098,0.031-0.145,0.048-0.243,0.078c0.055,0.176,0.079,0.265,0.126,0.448 c0.099-0.026,0.147-0.039,0.246-0.064c0.004-0.054,0.006-0.08,0.01-0.133c0.171-0.047,0.257-0.071,0.429-0.119 c0.454,0.015,0.68,0.03,1.138,0.079c0.021,0.044,0.032,0.066,0.054,0.111c0.101-0.023,0.151-0.034,0.25-0.056 c-0.048-0.214-0.074-0.319-0.13-0.526c-0.099,0.028-0.147,0.042-0.246,0.07c0.002,0.045,0.004,0.068,0.005,0.112 c-0.29-0.011-0.434-0.014-0.721-0.012c0-0.002,0-0.004-0.001-0.005c0.245-0.154,0.366-0.233,0.606-0.396 C32.402,19.245,32.412,19.264,32.434,19.304"/><path fill="#E6AD05" d="M29.493,22.04c0,3.737-3.029,6.766-6.766,6.766c-3.736,0-6.765-3.029-6.765-6.766 c0-3.736,3.029-6.766,6.765-6.766C26.465,15.274,29.493,18.304,29.493,22.04"/><path fill="#FFFFFF" d="M29.266,22.04c0,3.611-2.927,6.539-6.539,6.539s-6.537-2.927-6.537-6.539s2.926-6.538,6.537-6.538 S29.266,18.429,29.266,22.04"/><path fill="#D88F28" d="M22.3,18.341 22.859,19.365 23.462,19.2 23.462,19.906 22.638,20.101 22.635,21.071 22.741,23.553 22.3,26.565 21.453,26.565 20.965,23.341 20.965,21.365 21.282,20.729 20.894,19.6 21.453,18.341z"/><path fill="#2B3636" d="M23.529,18.341 24.376,18.341 24.747,19.2 24.506,20.694 24.806,22.435 24.341,26.565 23.329,26.565 23.188,23.188 23.282,20.153 22.118,20.059 22.235,19.482 23.182,19.565z"/><path fill="#FBD9E1" d="M23.529,18.341 23.329,17.906 23.529,17.176 24.376,17.176 24.376,18.341z"/><path fill="#FBD9E1" d="M22.3,18.341 22.5,17.906 22.3,17.176 21.453,17.176 21.453,18.341z"/><path fill="#FBD9E1" d="M23.257,20.961 22.636,20.961 22.637,20.365 23.276,20.365z"/><path fill="#396F4A" d="M22.858,31.324 23.235,30.694 24.145,30.075 24.741,29.306 24.129,30.565 24.725,30.004 25.153,29.188 24.8,30.647 25.4,30.324 25.502,29.659 25.753,29.024 25.753,30.141 27.035,28.482 26.247,30.694 26.953,30.4 27.165,29.706 27.204,28.529 27.502,28.035 27.482,29.224 27.976,27.824 28.239,27.784 28.09,28.522 28.447,29.388 28.702,29.204 28.683,28.42 28.859,27.973 29.059,28.788 30.606,26.948 31.285,24.859 31.592,25.102 30.571,27.582 28.824,29.247 29.682,29.153 29.153,29.518 28.388,29.565 28.733,29.737 29.082,30.294 28.404,29.847 27.882,29.976 28.624,30.584 29.676,30.806 28.002,31.012 26.796,30.694 26.118,30.882 28.094,31.388 26.435,31.576 26.988,32.212 26.161,31.761 25.235,31.573 25.118,31.675 25.259,32.498 25.588,32.965 24.537,32.349 23.925,31.486 23.318,31.553 23.471,32.043 24.458,32.529 24.059,32.678 24.259,33.094 23.463,32.569 23.196,31.98 22.565,31.612 21.525,32.153 21.359,32.653 20.843,33.361 21.135,32.465 20.418,32.547 19.518,32.984 19.988,32.451 20.153,31.847 20.984,31.424 20.427,31.369 19.698,32.357 18.686,32.859 19.612,31.58 20.208,31.282 19.949,31.118 19.29,31.353 18.514,32.02 17.871,32.106 18.365,31.839 18.898,31.235 19.424,30.969 18.945,30.82 17.659,31.643 16.576,31.682 17.541,31.306 18.522,30.608 18.169,30.467 17.157,30.992 16.231,31.063 16.576,30.827 16.075,30.459 16.757,30.576 17.282,29.941 16.969,29.769 16.192,30.161 15.588,30.161 16.804,29.573 16.58,29.329 16.016,29.62 15.569,29.439 16.451,29.235 15.7,28.471 14.824,27.224 14.124,26.935 14.865,26.935 16.171,28.818 16.259,28.3 16.424,29.035 16.588,28.276 16.771,28.565 16.565,29.076 16.853,29.418 16.829,29.076 17.153,28.676 17.306,28.2 17.329,28.565 17.012,29.229 17.276,29.788 17.406,29.194 17.747,28.829 17.706,28.324 17.859,28.671 17.947,28.224 17.965,28.912 18.094,29.347 18.112,30.147 18.435,30.418 18.618,28.512 18.765,28.929 19.429,29.794 19.353,30.682 19.671,30.953 19.576,30.141 19.624,29.576 19.524,29.059 19.824,29.371 19.971,30.471 20.247,31.124 20.447,30.512 20.224,29.288 20.447,29.476 20.682,30.171 20.706,29.488 20.794,29.318 20.9,30.353 21.335,31.271 21.976,31.365 21.153,29.565 21.935,30.312 22.252,31.572z"/><path fill="#EDB200" d="M30.71,29.667 30.475,28.976 29.167,28.773 29.292,27.416 28.655,26.725 29.463,26.555 29.863,27.941 30.906,27.745 31.296,28.718z"/><path fill="#EDB200" d="M29.439,26.255 30.059,27.478 32.184,27.62 32.42,26.718 32.216,25.682 31.235,25.682 31.039,24.859 29.402,24.992 30.31,25.635 30.576,26.555z"/><path fill="#EDB200" d="M33.108,25.149 31.592,25.102 30.561,24.286 31.196,24.208 30.835,23.635 30.184,23.463 30.224,23.118 31.229,23.325 31.296,22.922 30.355,22.659 30.624,22.216 31.469,22.559 31.329,22.161 31.753,21.533 32.278,21.957 32.035,22.631 33.027,22.537 33.033,23.037 32.373,22.843 31.918,23.102 33.1,23.541 33.055,24.169 32.494,23.792 31.667,24.482 32.898,24.694z"/><path fill="#EDB200" d="M15.113,30.359 15.302,30.214 15.331,29.202 16.006,29.018 16.2,28.082 17.035,28.147 16.735,27.624 15.935,27.753 15.841,28.741 15.125,28.949 14.816,29.769z"/><path fill="#EDB200" d="M16.984,27.169 16.067,27.306 15.353,28.451 14.502,28.714 14.024,29.408 13.867,29.039 14.639,28.149 15.325,28.125 15.561,27.475 16.11,26.965 16.773,26.871z"/><path fill="#EDB200" d="M14.643,27.565 14.012,27.624 13.404,28.169 13.196,28.153 13.561,27.306 14.078,27.11 14.78,27.259 14.878,26.992 14.475,26.545 13.455,26.675 12.933,27.388 12.796,27 13.212,26.18 14.114,26.145 14.682,25.643 14.894,25.063 15.425,24.898 15.765,25.18 15.612,25.349 15.039,25.373 14.776,25.937 15.035,26.235 15.441,25.807 16.216,26.122 15.976,26.353 15.318,26.247 15.094,26.949 15.682,26.749 15.882,26.984 15.467,27.075 15.357,27.239z"/><path fill="#EDB200" d="M12.012,25.506 12.288,24.898 12.924,24.806 13.867,25.156 13.235,24.218 12.106,24.335 12.118,23.994 13.247,23.171 11.859,22.835 12.476,22.4 13.076,22.547 13.488,21.641 14.041,22.153 14.041,22.859 14.859,22.647 15.253,23.259 14.347,23.206 13.918,23.506 14.506,23.6 14.612,24.094 14.053,24.571 14.165,25.035 14.782,24.076 15.571,24.135 14.2,25.588 13.709,25.665 12.853,25.318z"/></svg>