<svg xmlns="http://www.w3.org/2000/svg" viewBox="0 0 45 45"><path fill="#eeeeee" d="m 45,33.75 c 0,2.76125 -2.23875,5 -5,5 H 5 c -2.76125,0 -5,-2.23875 -5,-5 v -22.5 c 0,-2.76125 2.23875,-5 5,-5 h 35 c 2.76125,0 5,2.23875 5,5 z"/><path fill="#3f863f" d="m 30.732375,28.37275 0.085,-0.39625 0.08375,0.39625 z"/><path fill="#3f863f" d="m 30.4565,28.483875 0.08625,-0.395 0.0825,0.395 z"/><path fill="#3f863f" d="m 30.06475,28.4045 0.085,-0.39625 0.0825,0.39625 z"/><path fill="#3f863f" d="m 29.902375,29.27975 0.08625,-0.39625 0.0825,0.39625 z"/><path fill="#3f863f" d="m 29.668,28.587625 0.085,-0.395 0.0825,0.395 z"/><path fill="#3f863f" d="m 29.284625,28.335 0.08625,-0.39625 0.0825,0.39625 z"/><path fill="#3f863f" d="m 29.36275,29.154 0.085,-0.39625 0.0825,0.39625 z"/><path fill="#3f863f" d="m 29.403125,29.8755 0.085,-0.39625 0.0825,0.39625 z"/><path fill="#3f863f" d="m 28.90625,28.441125 0.085,-0.39625 0.08375,0.39625 z"/><path fill="#3f863f" d="m 28.9245,29.378625 0.08625,-0.39625 0.0825,0.39625 z"/><path fill="#3f863f" d="m 29.01975,30.109875 0.08625,-0.39625 0.0825,0.39625 z"/><path fill="#3f863f" d="m 28.40575,28.492375 0.08625,-0.39625 0.0825,0.39625 z"/><path fill="#3f863f" d="m 28.49125,29.364 0.085,-0.39625 0.0825,0.39625 z"/><path fill="#3f863f" d="m 28.505875,30.202625 0.085,-0.39625 0.0825,0.39625 z"/><path fill="#3f863f" d="m 27.891875,29.4775 0.085,-0.39625 0.0825,0.39625 z"/><path fill="#3f863f" d="m 28.171375,30.183125 0.085,-0.395 0.0825,0.395 z"/><path fill="#3f863f" d="m 28.186,30.85325 0.085,-0.39625 0.0825,0.39625 z"/><path fill="#3f863f" d="M 27.815,30.221 27.9,29.82475 27.9825,30.221 Z"/><path fill="#3f863f" d="m 27.722125,30.95575 0.08625,-0.39625 0.0825,0.39625 z"/><path fill="#3f863f" d="m 27.362,29.746125 0.08625,-0.39625 0.0825,0.39625 z"/><path fill="#3f863f" d="m 27.398625,30.429625 0.08625,-0.39625 0.0825,0.39625 z"/><path fill="#3f863f" d="m 27.384,31.30125 0.08625,-0.39625 0.0825,0.39625 z"/><path fill="#3f863f" d="m 26.965375,30.753125 0.085,-0.395 0.0825,0.395 z"/><path fill="#3f863f" d="m 26.903125,31.47825 0.085,-0.39625 0.0825,0.39625 z"/><path fill="#3f863f" d="m 26.744375,30.08425 0.08625,-0.39625 0.0825,0.39625 z"/><path fill="#3f863f" d="m 26.630875,29.514125 0.085,-0.395 0.0825,0.395 z"/><path fill="#3f863f" d="m 26.45025,31.129125 0.08625,-0.39625 0.0825,0.39625 z"/><path fill="#3f863f" d="m 26.402625,30.411375 0.085,-0.39625 0.08375,0.39625 z"/><path fill="#3f863f" d="m 26.25975,29.599625 0.085,-0.39625 0.0825,0.39625 z"/><path fill="#3f863f" d="m 26.355,31.820125 0.085,-0.39625 0.08375,0.39625 z"/><path fill="#3f863f" d="m 25.96925,31.89325 0.085,-0.39625 0.0825,0.39625 z"/><path fill="#3f863f" d="m 25.954625,31.09125 0.085,-0.395 0.0825,0.395 z"/><path fill="#3f863f" d="M 25.88375,30.221 25.97,29.82475 26.0525,30.221 Z"/><path fill="#3f863f" d="m 25.8765,29.5325 0.08625,-0.395 0.0825,0.395 z"/><path fill="#3f863f" d="m 25.638375,30.011 0.085,-0.39625 0.0825,0.39625 z"/><path fill="#3f863f" d="m 25.509,30.661625 0.08625,-0.39625 0.0825,0.39625 z"/><path fill="#3f863f" d="m 25.413875,31.433125 0.085,-0.395 0.08375,0.395 z"/><path fill="#3f863f" d="m 25.476125,32.1875 0.08625,-0.39625 0.0825,0.39625 z"/><path fill="#3f863f" d="m 25.35525,29.606875 0.085,-0.39625 0.0825,0.39625 z"/><path fill="#3f863f" d="m 25.105,31.084 0.085,-0.395 0.08375,0.395 z"/><path fill="#3f863f" d="m 25.013375,30.35275 0.085,-0.39625 0.0825,0.39625 z"/><path fill="#3f863f" d="m 24.9915,29.6875 0.085,-0.39625 0.0825,0.39625 z"/><path fill="#3f863f" d="m 24.9915,32.070375 0.085,-0.39625 0.0825,0.39625 z"/><path fill="#3f863f" d="m 24.796125,31.672375 0.085,-0.39625 0.08375,0.39625 z"/><path fill="#3f863f" d="m 24.6265,30.588375 0.08625,-0.39625 0.0825,0.39625 z"/><path fill="#3f863f" d="m 24.491,29.74975 0.085,-0.39625 0.08375,0.39625 z"/><path fill="#3f863f" d="m 24.35175,31.794375 0.085,-0.39625 0.0825,0.39625 z"/><path fill="#3f863f" d="m 24.10525,30.411375 0.085,-0.39625 0.0825,0.39625 z"/><path fill="#3f863f" d="m 24.075875,31.29025 0.085,-0.39625 0.0825,0.39625 z"/><path fill="#3f863f" d="m 24.01975,32.496375 0.08625,-0.39625 0.0825,0.39625 z"/><path fill="#3f863f" d="m 23.866,32.0325 0.085,-0.395 0.08375,0.395 z"/><path fill="#3f863f" d="m 23.78175,29.7205 0.085,-0.39625 0.0825,0.39625 z"/><path fill="#3f863f" d="m 23.586375,31.31225 0.085,-0.39625 0.08375,0.39625 z"/><path fill="#3f863f" d="m 23.2995,29.79375 0.08625,-0.39625 0.0825,0.39625 z"/><path fill="#3f863f" d="m 23.41425,32.639125 0.085,-0.395 0.0825,0.395 z"/><path fill="#3f863f" d="m 23.215375,31.922625 0.085,-0.39625 0.0825,0.39625 z"/><path fill="#3f863f" d="m 22.972375,31.257375 0.08625,-0.39625 0.0825,0.39625 z"/><path fill="#3f863f" d="m 22.8845,32.7685 0.085,-0.39625 0.0825,0.39625 z"/><path fill="#3f863f" d="m 22.796,31.860375 0.08625,-0.39625 0.08125,0.39625 z"/><path fill="#3f863f" d="m 22.608625,31.180375 0.08625,-0.39625 0.08125,0.39625 z"/><path fill="#3f863f" d="m 22.510375,29.650875 0.08625,-0.39625 0.08125,0.39625 z"/><path fill="#3f863f" d="m 22.3535,32.307125 0.08625,-0.39625 0.08125,0.39625 z"/><path fill="#3f863f" d="m 22.167375,31.26825 0.08625,-0.39625 0.08125,0.39625 z"/><path fill="#3f863f" d="m 22.03,32.734375 0.08625,-0.39625 0.08125,0.39625 z"/><path fill="#3f863f" d="m 21.863375,32.04225 0.08625,-0.395 0.08125,0.395 z"/><path fill="#3f863f" d="m 21.7755,31.243875 0.085,-0.39625 0.0825,0.39625 z"/><path fill="#3f863f" d="m 21.431875,31.297625 0.08625,-0.39625 0.0825,0.39625 z"/><path fill="#3f863f" d="M 21.3635,32.616 21.44975,32.21975 21.531,32.616 Z"/><path fill="#3f863f" d="M 21.13775,31.93975 21.224,31.5435 21.3065,31.93975 Z"/><path fill="#3f863f" d="m 20.888,31.4295 0.08625,-0.395 0.08125,0.395 z"/><path fill="#3f863f" d="M 20.73,32.5 20.81625,32.10375 20.8975,32.5 Z"/><path fill="#3f863f" d="m 20.421125,31.654 0.08625,-0.39625 0.08125,0.39625 z"/><path fill="#3f863f" d="m 20.237375,32.57325 0.08625,-0.39625 0.08125,0.39625 z"/><path fill="#3f863f" d="m 19.939625,31.84575 0.08625,-0.39625 0.08125,0.39625 z"/><path fill="#3f863f" d="m 19.56425,32.323 0.08625,-0.395 0.0825,0.395 z"/><path fill="#3f863f" d="m 19.376875,31.66875 0.08625,-0.39625 0.08125,0.39625 z"/><path fill="#3f863f" d="m 19.12725,32.070375 0.085,-0.39625 0.0825,0.39625 z"/><path fill="#3f863f" d="m 19.00575,31.400125 0.08625,-0.395 0.08125,0.395 z"/><path fill="#3f863f" d="m 18.7005,31.995875 0.08625,-0.39625 0.08125,0.39625 z"/><path fill="#3f863f" d="m 18.568125,31.242625 0.08625,-0.39625 0.08125,0.39625 z"/><path fill="#3f863f" d="m 18.156125,31.85675 0.08625,-0.39625 0.0825,0.39625 z"/><path fill="#3f863f" d="m 17.832625,30.745875 0.08625,-0.39625 0.0825,0.39625 z"/><path fill="#3f863f" d="m 17.663625,31.73825 0.08625,-0.395 0.08125,0.395 z"/><path fill="#3f863f" d="m 17.403,30.701875 0.085,-0.39625 0.0825,0.39625 z"/><path fill="#3f863f" d="m 17.145375,31.4185 0.08625,-0.395 0.08125,0.395 z"/><path fill="#3f863f" d="m 16.74075,30.690875 0.08625,-0.39625 0.0825,0.39625 z"/><path fill="#3f863f" d="m 16.509375,31.151125 0.08625,-0.39625 0.08125,0.39625 z"/><path fill="#3f863f" d="m 16.00225,30.712875 0.085,-0.39625 0.0825,0.39625 z"/><path fill="#3f863f" d="m 15.56825,30.559125 0.08625,-0.39625 0.08125,0.39625 z"/><path fill="#3f863f" d="m 15.263,29.919375 0.08625,-0.39625 0.08125,0.39625 z"/><path fill="#3f863f" d="m 14.61975,29.834 0.08625,-0.395 0.08125,0.395 z"/><path fill="#3f863f" d="m 14.52025,29.11375 0.08625,-0.39625 0.08125,0.39625 z"/><path fill="#3f863f" d="m 14.299875,29.650875 0.08625,-0.39625 0.08125,0.39625 z"/><path fill="#3f863f" d="m 13.958125,29.338375 0.085,-0.39625 0.0825,0.39625 z"/><path fill="#3f863f" d="m 14.060625,28.4045 0.08625,-0.39625 0.08125,0.39625 z"/><path fill="#3f863f" d="m 13.18975,28.346 0.085,-0.39625 0.0825,0.39625 z"/><path fill="#3f863f" d="m 12.821625,28.066375 0.08625,-0.39625 0.08125,0.39625 z"/><path fill="#ffe60f" d="m 30.924125,25.9765 1.41375,-0.14875 0.3275,-0.31 -0.3025,-0.12875 0.29125,-0.31125 -0.26375,-0.04375 0.38625,-0.375 -0.2625,-0.02625 0.465,-0.535 -0.36,0.06375 0.39875,-0.55375 -0.34625,0.05875 0.34625,-0.5875 -0.31125,0.03125 0.4725,-0.77 -0.2925,0.09375 0.385,-0.78625 -0.41375,0.24375 0.11625,-0.41375 -0.82625,0.81875 0.03625,-0.30375 -0.1375,0.05625 0.09625,-0.46125 -0.155,0.0575 0.145,-0.6175 -0.245,0.1025 0.19875,-0.83625 -0.24875,0.13 0.115,-0.70875 -0.38375,0.36375 -0.05375,-0.24875 -0.4525,0.865 -0.05125,-0.25625 -0.2625,0.4825 -0.11,-0.29375 -0.14125,0.16875 -0.17375,-0.52875 -0.1225,0.11 -0.145,-0.605 -0.08625,0.11125 -0.16,-0.5825 -0.07,0.125 -0.2625,-0.525 -0.205,0.83625 -0.21125,-0.25 -0.1425,0.845 -0.18875,-0.24 -0.02625,0.69875 -0.16,-0.16875 -0.0275,0.54875 -0.13125,-0.19625 -0.025,0.2675 -0.44875,-0.605 v 0.255 l -0.50625,-0.66 -0.0425,0.27875 -0.43625,-0.31125 0.19375,0.93875 -0.29125,-0.17625 0.17,0.66875 -0.3275,-0.17375 0.28875,0.6625 -0.32875,-0.09375 0.33875,0.61375 -0.30125,-0.025 0.55875,0.86 -0.31625,-0.025 0.7175,0.84875 -0.26875,0.005 0.3025,0.3675 -0.24125,-0.01 0.115,0.17375 -0.245,0.0075 0.05125,0.19375 -0.8425,-0.05125 0.40625,0.30875 -0.61,0.05875 0.63,0.2675 -0.5,0.18625 0.42625,0.095 1.4975,0.075 z"/><path fill="#ffb316" d="m 30.5115,25.9765 c 0,-0.4825 -0.39125,-0.87375 -0.87375,-0.87375 -0.4825,0 -0.8725,0.39125 -0.8725,0.87375 z"/><path fill="#64b4ff" d="m 32.677,26.029 c 0,0 -0.195,0.3825 -0.51,0.8575 -0.315,0.47375 -0.50875,0.67875 -0.50875,0.67875 0,0 -0.205,-0.01 -0.46375,-0.0475 -0.2575,-0.03625 -0.41125,-0.055 -0.66125,0.0038 -0.25,0.05875 -0.5625,0.01125 -0.72125,-0.01375 -0.1575,-0.02625 -0.54375,-0.02625 -0.84875,0.0175 -0.305,0.04375 -0.54,0.03375 -0.9225,-0.01375 C 27.65825,27.4628 27.1295,27.4453 27.1295,27.4453 l -0.89,-1.44875 z"/><path fill="#64b4ff" d="m 11.593,26.62475 c 0,0 0.1125,0.165 0.31375,0.4225 0.20125,0.25625 0.3875,0.43375 0.3875,0.43375 0,0 0.135,-0.05625 0.40375,-0.0325 0.27,0.025 0.35625,0.04625 0.6375,0.04625 0.2825,0 0.505,-0.11625 0.505,-0.11625 L 13.213,26.62475 Z"/><path fill="#3f863f" d="m 15.661625,29.252875 c 0,0 -0.17875,0.07125 -0.6,-0.165 -0.42125,-0.235 -0.44125,-0.40625 -0.44125,-0.40625 0,0 0.08,-0.08 0.35,-0.1375 0.27,-0.05625 0.48125,-0.06375 0.48125,-0.06375 0,0 -0.3925,-0.0875 -0.9225,-0.35 -0.8425,-0.41875 -0.985,-0.7975 -0.985,-0.7975 h 0.225 c 0,0 -0.31,-0.0825 -0.63,-0.52125 -0.255,-0.35 -0.27625,-0.74125 -0.27625,-0.74125 0,0 0.06125,-0.0062 0.23,0.0175 0.17,0.0225 0.2525,0.05 0.2525,0.05 0,0 -0.175,-0.22125 -0.33125,-0.6525 -0.19125,-0.53 -0.11625,-0.83625 -0.11625,-0.83625 0,0 0.33,-0.0025 0.8525,0.41 0.52125,0.4125 0.68,0.805 0.68,0.805 0,0 0.0038,-0.1875 0.0625,-0.45625 0.05875,-0.26875 0.13625,-0.36 0.13625,-0.36 0,0 0.2825,0.13625 0.48875,0.5625 0.205,0.42625 0.34125,1.4675 0.34125,1.4675 z"/><path fill="#3f863f" d="m 20.152,30.39425 c 0,0 -0.39,0.31875 -0.95625,0.3825 -0.565,0.06375 -0.9925,-0.16125 -0.9925,-0.16125 0,0 0.05375,-0.07625 0.175,-0.14375 0.11875,-0.07 0.26875,-0.10625 0.26875,-0.10625 0,0 -0.13,-0.01625 -0.29125,-0.05625 -0.1625,-0.04125 -0.2475,-0.07875 -0.2475,-0.07875 0,0 0.14625,-0.2375 0.45375,-0.425 0.30625,-0.185 0.87125,-0.1375 0.87125,-0.1375 0,0 -0.1125,-0.10875 -0.18875,-0.26375 -0.07625,-0.155 -0.065,-0.2525 -0.065,-0.2525 0,0 0.0775,0.03125 0.2225,0.05875 0.09875,0.01875 0.2325,0.0275 0.3725,0.06 0.34875,0.0775 0.55375,0.19 0.55375,0.19 0,0 -0.06875,-0.1475 -0.11,-0.345 -0.04125,-0.19875 -0.04875,-0.41 -0.04875,-0.41 0,0 0.17125,0.025 0.3525,0.09625 0.18125,0.07 0.2725,0.16625 0.2725,0.16625 0,0 -0.0025,-0.18 0.01875,-0.395 0.02125,-0.21375 0.05875,-0.37875 0.05875,-0.37875 0,0 0.09875,0.1225 0.385,0.37875 0.2875,0.2575 0.4375,0.33875 0.55625,0.8425 0.11625,0.50375 0.1575,0.44875 0.3375,0.6175 0.18,0.17 0.36375,0.2425 0.69125,0.19125 0.3275,-0.05125 0.47125,-0.0775 0.6025,-0.0175 0.1325,0.0575 0.415,0.41875 0.21375,0.625 -0.2025,0.205 -0.3525,-0.12625 -0.6475,-0.26125 C 22.717,30.433 22.1345,30.418 21.627,30.53675 c -0.51,0.12 -0.65875,0.43875 -1.00625,0.52875 -0.19625,0.05125 -0.4275,0.09875 -0.6275,0.06625 -0.23125,-0.0375 -0.415,-0.02875 -0.415,-0.02875 0,0 0.14875,-0.15125 0.305,-0.34 0.1575,-0.1875 0.26875,-0.36875 0.26875,-0.36875"/><path fill="#b4b4b4" d="m 28.007875,28.430125 c 0,-0.14 -0.21,-0.26125 -0.35375,-0.4075 -0.06375,-0.06625 -0.12,-0.28125 -0.18,-0.3875 -0.0725,-0.12875 -0.14375,-0.14625 -0.14375,-0.14625 0,0 -0.15375,-0.5925 -0.41125,-0.915 -0.2575,-0.32375 -0.5225,-0.405 -0.5225,-0.405 0,0 -0.08125,-0.3975 -0.38625,-0.55875 -0.305,-0.1625 -0.625,-0.1125 -0.625,-0.1125 0,0 -0.19375,-0.395 -0.75625,-0.4825 -0.50875,-0.08 -0.8675,0 -0.8675,0 0,0 -2.23,-0.465 -2.465,-0.46125 -0.235,0.005 -0.2825,0.43875 -0.2825,0.43875 l -0.18375,3.0775 c 0,0 0.17625,0.375 1.0525,0.74625 0.3575,0.1525 0.725,0.115 0.9725,0.10375 0.89875,-0.04875 1.2625,0.195 1.71125,0.195 0.60625,0 1.24625,-0.27875 1.64875,-0.27875 0.375,0 0.7325,0.1275 1.13125,0.1275 0.305,0 0.66125,-0.39375 0.66125,-0.53375"/><path fill="#be0a2f" d="m 12.334625,23.128625 c 0,0 0.1325,-0.28625 0.57,-0.2975 0.4375,-0.01125 0.76,0.14625 1.415,0.41875 0.655,0.27125 0.905,0.2975 1.3975,-0.03 0.4925,-0.32625 0.5325,-1.095 0.5325,-1.095 0,0 -0.485,0.08125 -1.1875,-0.22 -0.70125,-0.3025 -1.30875,-0.51125 -2.01875,-0.37125 -0.70875,0.13875 -0.815,0.2675 -0.8375,0.64625 -0.01125,0.19875 0.045,0.3775 0.07375,0.55625 0.03625,0.21875 0.055,0.3925 0.055,0.3925"/><path fill="#be0a2f" d="m 16.53925,22.27725 c 0,0 0.4825,-0.06 0.8575,-0.53875 0.375,-0.4775 0.3575,-1.02875 0,-1.43375 C 17.0405,19.901 16.443,19.7185 15.39925,19.2285 14.3555,18.73725 14.09675,18.741 13.65425,18.27975 13.3105,17.92225 13.6055,17.4835 13.6055,17.4835 c 0,0 -0.38625,0.11375 -0.84125,0.1925 -0.38,0.0675 -0.625,0.25375 -0.54375,0.71375 0.09375,0.53 0.35125,1.26125 1.94875,1.8825 0.74125,0.2875 1.83125,0.70375 2.16125,1.14625 0.335,0.44875 0.20875,0.85875 0.20875,0.85875"/><path fill="#be0a2f" d="m 12.87475,16.235375 c 0.18625,0.0375 0.32875,0.16125 0.46125,0.1525 0.1325,-0.01 0.18875,-0.33125 0.485,-0.70875 0.29625,-0.3775 0.74875,-0.82625 1.39875,-0.9875 0.65125,-0.1625 1.35875,-0.08875 1.88,-0.035 0.5225,0.05375 0.47875,-0.105 0.4325,-0.395 -0.0475,-0.28875 -0.0375,-0.31125 0.04625,-0.5725 0.08375,-0.2625 0.165,-0.34125 -0.20125,-0.39 -0.365,-0.04875 -0.81125,-0.16375 -1.9575,0 -1.1475,0.16375 -2.1625,0.92875 -2.61125,1.5975 -0.44875,0.67 -0.58875,1.19625 -0.54125,1.2525 0.08875,0.10875 0.42375,0.05 0.6075,0.08625"/><path fill="#be0a2f" d="m 17.070875,12.62025 c 0,0 -0.32125,-0.1375 -0.6,-0.51 -0.28,-0.3725 -0.2025,-0.8675 0.54,-1.07375 0.7425,-0.20625 1.595,-0.40625 2.545,-0.79375 0.95125,-0.3875 1.25625,-0.61 1.455,-0.19875 0.08125,0.16875 0.08625,0.34375 0.10625,0.48 0.03125,0.215 0.065,0.3175 0.065,0.3175 0,0 -0.12625,-0.025 -0.31875,0.0625 -0.195,0.08875 -0.935,0.6325 -1.61375,0.91625 -0.73125,0.305 -1.4525,0.3575 -1.95125,0.5325 -0.28,0.09875 -0.2275,0.2675 -0.2275,0.2675"/><path fill="#ffb30f" d="m 22.605625,25.63725 c 0,0 -0.48,1.43 -2.42125,2.89875 -1.94125,1.47125 -4.42,1.48875 -4.42,1.48875 0,0 -0.7875,-2.435 -0.15,-4.65375 0.76625,-2.6675 2.16,-3.26875 2.16,-3.26875 0,0 0.15625,0.63875 0.90625,1.15875 0.74875,0.52 1.51875,0.59375 1.51875,0.59375 0,0 0.27375,0.7025 0.995,1.26 0.72,0.55875 1.41125,0.5225 1.41125,0.5225"/><path fill="#ffffff" d="m 17.652625,22.4695 c -0.40125,0.28875 -1.26,1.0975 -1.7975,2.97125 -0.51125,1.77625 -0.065,3.72875 0.095,4.325 0.6025,-0.03875 2.535,-0.255 4.0825,-1.42875 1.33375,-1.00875 1.9575,-2.00375 2.2025,-2.48375 -0.3025,-0.05375 -0.745,-0.19125 -1.195,-0.54125 -0.58,-0.44875 -0.89,-0.98375 -1.0125,-1.23 -0.27375,-0.04875 -0.88625,-0.1975 -1.49,-0.61625 -0.49125,-0.34125 -0.7525,-0.7325 -0.885,-0.99625"/><path fill="#002768" d="m 21.033375,27.463375 c 0.66625,-0.67625 1.02875,-1.2725 1.20125,-1.61 -0.30125,-0.05375 -0.74375,-0.19125 -1.19375,-0.54125 -0.58,-0.44875 -0.89125,-0.98375 -1.0125,-1.23 -0.27375,-0.04875 -0.88625,-0.1975 -1.49,-0.61625 -0.4925,-0.34125 -0.75375,-0.7325 -0.88625,-0.99625 -0.285,0.205 -0.79875,0.67125 -1.26625,1.5925 z"/><path fill="#be0a2f" d="m 20.820375,27.677 c -0.2175,0.20625 -0.4675,0.415 -0.74375,0.6275 l 0.54875,-0.77 z"/><path fill="#be0a2f" d="m 19.27425,28.826875 c -0.3425,0.18625 -0.69125,0.33875 -1.02875,0.4575 l 1.63625,-2.295 0.46,0.33875 z"/><path fill="#be0a2f" d="m 17.681875,29.464125 c -0.30125,0.08375 -0.585,0.145 -0.83625,0.19 l 2.28875,-3.21125 0.46,0.3375 z"/><path fill="#be0a2f" d="m 15.87275,29.453125 c 0.02875,0.12375 0.05625,0.23375 0.0775,0.3125 0.105,-0.0075 0.24875,-0.01875 0.42375,-0.04 l 2.48375,-3.485 -0.46125,-0.3375 z"/><path fill="#be0a2f" d="m 15.77275,28.962375 c -0.04375,-0.2425 -0.085,-0.52125 -0.11375,-0.82375 l 1.985,-2.7875 0.46125,0.33875 z"/><path fill="#be0a2f" d="m 15.6225,27.580625 c -0.01125,-0.3275 -0.0062,-0.67125 0.02625,-1.02 l 1.25,-1.755 0.46,0.33875 z"/><path fill="#be0a2f" d="m 15.765375,25.794625 c 0.02625,-0.11875 0.055,-0.23625 0.08875,-0.35375 0.12,-0.42 0.25625,-0.78625 0.4,-1.10625 l 0.3625,0.26625 z"/><path fill="#ffffff" d="m 19.602,26.051 -0.2625,-0.19625 0.19625,-0.26375 0.2625,0.19625 z"/><path fill="#ffffff" d="m 20.401,25.982625 -0.2625,-0.19625 0.19625,-0.26375 0.2625,0.19625 z"/><path fill="#ffffff" d="m 20.5335,26.732125 -0.2625,-0.19625 0.19625,-0.2625 0.2625,0.19625 z"/><path fill="#ffffff" d="m 21.300625,26.671125 -0.2625,-0.19625 0.19625,-0.26375 0.2625,0.19625 z"/><path fill="#ffffff" d="m 21.11875,25.918 -0.2625,-0.19625 0.19625,-0.2625 0.26375,0.19625 z"/><path fill="#ffffff" d="m 20.20075,25.231875 -0.2625,-0.19625 0.19625,-0.2625 0.2625,0.19625 z"/><path fill="#ffffff" d="m 19.397,25.2685 -0.2625,-0.19625 0.19625,-0.2625 0.2625,0.19625 z"/><path fill="#ffffff" d="M 19.16625,24.48725 18.90375,24.291 19.1,24.02725 19.3625,24.2235 Z"/><path fill="#ffffff" d="m 18.585875,25.29175 -0.2625,-0.19625 0.19625,-0.2625 0.26375,0.19625 z"/><path fill="#ffffff" d="m 18.335625,24.491 -0.2625,-0.19625 0.19625,-0.26375 0.2625,0.19625 z"/><path fill="#ffffff" d="m 18.143875,23.742625 -0.2625,-0.19625 0.19625,-0.26375 0.2625,0.19625 z"/><path fill="#ffffff" d="m 17.536625,24.541 -0.2625,-0.19625 0.19625,-0.2625 0.2625,0.19625 z"/><path fill="#ffffff" d="m 17.380375,23.798875 -0.2625,-0.19625 0.19625,-0.2625 0.2625,0.19625 z"/><path fill="#ffb30f" d="m 22.674,23.869625 c 0,0 -0.24375,0.35125 -0.21375,0.57125 0.02875,0.22125 0.26375,0.36375 0.5725,0.31625 0.31,-0.0475 0.5075,-0.01875 0.48875,0.16625 -0.0175,0.1825 -0.35625,0.09125 -0.72,-0.03375 -0.36375,-0.125 -0.6225,-0.02625 -0.66625,0.27 -0.045,0.29625 -0.15,0.385 -0.32625,0.27375 -0.17625,-0.11 0.0125,-0.16875 0.1025,-0.38 0.09125,-0.21125 0.045,-0.3675 -0.11,-0.38125 -0.15375,-0.015 -0.18875,-0.0225 -0.28125,0.0062 -0.09375,0.03 -0.255,-0.09 -0.1725,-0.19625 0.08375,-0.105 0.33,-0.02625 0.45375,0.0675 0.13,0.0975 0.35875,0.14125 0.41125,0.0775 0.1725,-0.20625 0.09125,-0.9775 0.09125,-0.9775 0,0 0.0875,-0.2275 0.255,-0.125 0.19375,0.12 0.115,0.345 0.115,0.345"/><path fill="#ffb30f" d="m 20.603,23.076125 c 0,0 -0.21375,0.07375 -0.22875,0.2425 -0.0087,0.1225 0.2775,0.43875 0.51125,0.49 0.2325,0.05125 0.3425,0.01 0.28125,0.17875 -0.06625,0.18375 -0.3075,0.12 -0.4325,-0.065 -0.08375,-0.12625 -0.2225,-0.2525 -0.45,-0.19 -0.14125,0.04 -0.23375,0.13375 -0.27,0.23875 -0.0725,0.21625 -0.16625,0.31 -0.28375,0.2025 -0.1175,-0.10625 0.05875,-0.19375 0.17375,-0.32625 0.115,-0.13125 0.0425,-0.26125 -0.07125,-0.29375 -0.11375,-0.0325 -0.28375,-0.0087 -0.3575,0 -0.07375,0.01 -0.18625,-0.08625 -0.1275,-0.16875 0.07125,-0.1 0.265,-0.08 0.45625,0.05625 0.1,0.0725 0.3425,0.1275 0.39125,0.085 0.1575,-0.13 0.0575,-0.73875 0.0575,-0.73875 0,0 0.09,-0.1575 0.28625,0 0.19625,0.15625 0.06375,0.28875 0.06375,0.28875"/><path fill="#d2b78c" d="m 25.201375,20.772125 c 0,0 0.33125,0.31875 0.905,1.31375 0.5725,0.995 1.06625,2.20125 1.0775,2.35875 0.005,0.06375 -0.02875,0.2 -0.09125,0.21375 -0.09625,0.02 -0.25625,-0.12125 -0.25625,-0.12125 0,0 0.0063,0.14125 -0.12875,0.15625 -0.13375,0.015 -0.26875,-0.12125 -0.26875,-0.12125 0,0 -0.03125,0.14375 -0.1525,0.15625 -0.12,0.01125 -0.3375,-0.17375 -0.3375,-0.17375 0,0 0.0075,0.12625 -0.14,0.14375 -0.1475,0.0175 -0.32125,-0.13625 -0.32125,-0.13625 0,0 -0.01125,0.085 -0.1525,0.05375 -0.13875,-0.0325 -0.1775,-0.10875 -0.1775,-0.10875 0,0 0.0075,0.09375 -0.04,0.11625 -0.04625,0.02125 -0.18125,-0.1 -0.18125,-0.1 0,0 -0.55,-0.66 -1.00625,-1.1475 -0.45625,-0.49 -0.835,-0.93875 -0.835,-0.93875 l 0.9125,-1.34125 z"/><path fill="#785a3c" d="m 17.584875,19.195 c 0,0 0.3925,0.5775 1.06,1.165 0.66625,0.58875 1.45625,0.97625 1.45625,0.97625 0,0 -0.23125,0.25 -0.1325,0.775 0.0975,0.52375 0.28375,0.67625 0.28375,0.67625 0,0 0.1025,-0.10375 0.2575,0.01625 0.15375,0.12 0.09375,0.2725 0.09375,0.2725 0,0 0.07,0.23 0.50375,0.21125 0.5175,-0.02375 0.60625,-0.71875 0.60625,-0.71875 0,0 0.0975,0.19625 0.18375,0.5075 0.08625,0.31125 0.12,0.455 0.18375,0.51375 0.06375,0.06 0.20375,0.0775 0.2225,0.06 0.02,-0.0175 0.135,-0.08875 0.2775,0.04875 0.07125,0.06875 0.0925,0.17125 0.0925,0.17125 0,0 0.10125,0.09625 0.32625,0.10625 0.225,0.01 0.3875,0.0075 0.43125,-0.33125 0.06875,-0.5225 -0.335,-1.20875 -0.335,-1.20875 l 0.84125,-0.67125 c 0,0 0.39125,0.28125 0.65625,0.135 0.265,-0.1475 -0.09625,-0.655 -0.09625,-0.655 0,0 0.165,0.115 0.32125,0.04375 0.1575,-0.07 0.10625,-0.29875 0.10625,-0.29875 l 0.27625,-0.2175 c 0,0 0.14,-0.07375 -0.005,-0.415 -0.145,-0.34 -0.36375,-0.54375 -0.36375,-0.54375 0,0 0.22125,0.02 0.22125,-0.20875 0,-0.2275 -0.2025,-0.42875 -0.2025,-0.42875 0,0 0.2125,0.05375 0.27125,-0.1225 0.06,-0.17625 -0.095,-0.4975 -0.095,-0.4975 0,0 0.9925,1.03375 1.26625,0.92875 0.275,-0.105 -1.0525,-1.78625 -1.0525,-1.78625 0,0 1.61,1.90875 1.81375,1.7625 0.2025,-0.1475 -1.7025,-2.43125 -1.7025,-2.43125 0,0 1.53,1.85 1.72125,1.7125 0.19125,-0.1375 -1.27875,-1.975 -1.27875,-1.975 0,0 0.57,0.15375 0.7125,0.05875 0.14125,-0.09625 0.0275,-0.45375 0.0275,-0.45375 0,0 0.7375,0.285 0.90125,0.07625 0.16375,-0.20875 -0.0875,-0.47875 -0.0875,-0.47875 0,0 1.12625,0.36625 1.26,0.1475 0.13125,-0.2175 -0.2825,-0.56375 -0.2825,-0.56375 0,0 1.70625,0.72125 1.96125,0.495 0.255,-0.225 -0.41875,-0.56125 -0.41875,-0.56125 0,0 0.9475,0.46125 1.04875,0.21125 0.1,-0.25 -0.71875,-0.71125 -0.71875,-0.71125 0,0 0.44375,0.10625 0.52625,-0.07125 0.085,-0.17625 -0.78625,-0.82125 -2.66875,-1.4975 -1.88125,-0.67625 -3.265,-0.83125 -4.235,-0.755 -0.8025,0.06375 -1.57875,0.74875 -1.57875,0.74875 0,0 -0.9925,-1.06 -2.33875,-1.06 -1.15375,0 -1.29,0.44875 -1.24625,0.75 0.02125,0.14375 0.1725,0.43125 0.3325,0.9275 0.1325,0.4175 0.23875,0.8825 0.2925,1.02875 0.11875,0.32 0.38125,0.56125 0.445,0.735 0.17,0.4525 0.02,1.3825 0.02,1.3825 l -1.91625,-0.38 -0.48,1.44125 z"/><path fill="#d2b78c" d="m 17.83075,16.79625 1.41875,0.295 -0.66125,-0.025 0.37125,0.4625 -0.51125,-0.125 0.24625,0.475 -0.445,-0.085 0.26125,0.42375 -0.57375,-0.0775 0.12625,0.5775 -0.475,-0.08875 -0.0038,0.56625 -0.72125,-1.0925 z"/><path fill="#ffffff" d="m 16.297625,15.761125 c 0,0 0.42125,-0.285 0.99375,0.21625 0.6725,0.58875 0.9125,0.59875 0.9125,0.59875 0,0 -0.09125,0.09375 -0.3875,0.07625 -0.29625,-0.0175 -0.56375,-0.08625 -0.56375,-0.08625 0,0 0.05125,0.06375 0.235,0.13 0.18375,0.06625 0.34375,0.1 0.34375,0.1 l -0.96875,1.3075 c 0,0 -0.06375,-0.11125 -0.23,-0.27 -0.1675,-0.16 -0.30625,-0.2125 -0.30625,-0.2125 0,0 0.44875,-0.165 0.005,-0.93375 -0.445,-0.76875 -0.03375,-0.92625 -0.03375,-0.92625"/><path fill="#be0a2f" d="m 15.578625,16.875 c 0,0 0.0775,0.04625 0.31875,0.01 0.24,-0.03625 0.62,0.2525 0.62,0.2525 0,0 0.1775,0.37 -0.32875,0.27125 -0.53875,-0.105 -0.61,-0.53375 -0.61,-0.53375"/><path fill="#ffb316" d="m 16.297625,15.761125 c 0,0 -0.105,0.41625 0.1325,0.85625 0.46375,0.86125 -0.10375,1.00375 -0.10375,1.00375 0,0 -0.37375,-0.03625 -0.6825,-0.2825 -0.31,-0.2475 -0.26125,-0.5525 -0.26125,-0.5525 0,0 0.05875,0.1925 0.54375,0.42375 0.35875,0.17125 0.46375,0.085 0.485,0.0175 0.0225,-0.065 -0.0875,-0.26375 -0.28625,-0.41875 -0.19875,-0.15375 -0.4,-0.29 -0.5,-0.53625 -0.1,-0.24625 -0.13625,-0.23125 -0.29375,-0.29875 -0.15875,-0.065 -0.3125,-0.025 -0.3125,-0.025 0,0 0.1425,-0.3425 0.6275,-0.37125 0.48625,-0.02875 0.65125,0.18375 0.65125,0.18375"/><path fill="#002768" d="m 16.038875,33.765875 v -0.16375 h 0.67 v 0.16375 l -0.20875,0.035 v 1.47 l 0.20875,0.03625 v 0.16125 h -0.67 v -0.16125 l 0.20875,-0.03625 v -1.47 z"/><path fill="#002768" d="M 17.17225,35.46875 V 35.3075 L 17.381,35.27125 v -1.47 l -0.20875,-0.035 V 33.6025 h 0.20875 0.2525 0.20875 v 0.16375 l -0.20875,0.035 v 1.47 h 0.64875 L 18.301,35.0575 h 0.21625 v 0.41125 z"/><path fill="#002768" d="M 18.99225,35.46875 V 35.3075 L 19.201,35.27125 v -1.47 l -0.20875,-0.035 V 33.6025 h 0.20875 0.2525 0.20875 v 0.16375 l -0.20875,0.035 v 1.47 h 0.64875 L 20.121,35.0575 h 0.21625 v 0.41125 z"/><path fill="#002768" d="m 20.811125,33.765875 v -0.16375 h 0.67 v 0.16375 l -0.20875,0.035 v 1.47 l 0.20875,0.03625 v 0.16125 h -0.67 v -0.16125 l 0.20875,-0.03625 v -1.47 z"/><path fill="#002768" d="M 23.772,33.60225 V 33.766 l -0.21,0.035 v 1.6675 h -0.25125 l -0.89625,-1.44 -0.0087,0.0025 v 1.24 l 0.20875,0.03625 v 0.16125 h -0.67 v -0.16125 l 0.2087,-0.03625 v -1.47 L 21.9445,33.766 v -0.16375 h 0.20875 0.2525 l 0.8975,1.43875 0.0075,-0.0025 V 33.801 L 23.102,33.766 v -0.16375 h 0.46 z"/><path fill="#002768" d="m 25.63725,34.52025 c 0,-0.2175 -0.0525,-0.39375 -0.15625,-0.53125 -0.10375,-0.1375 -0.2475,-0.20625 -0.43125,-0.20625 -0.17625,0 -0.31375,0.07 -0.4125,0.20625 -0.09875,0.13875 -0.1475,0.315 -0.1475,0.53125 V 34.549 c 0,0.21875 0.04875,0.3975 0.1475,0.53375 0.09875,0.13875 0.23625,0.20625 0.4125,0.20625 0.18625,0 0.33125,-0.0675 0.43375,-0.205 0.1025,-0.13625 0.15375,-0.315 0.15375,-0.535 z M 25.8885,34.549 c 0,0.2725 -0.07625,0.49875 -0.2325,0.6775 -0.15625,0.18 -0.3575,0.26875 -0.60625,0.26875 -0.24125,0 -0.43625,-0.08875 -0.58625,-0.26875 -0.15125,-0.17875 -0.22625,-0.405 -0.22625,-0.6775 v -0.02625 c 0,-0.27125 0.075,-0.4975 0.22625,-0.67625 0.15,-0.18125 0.345,-0.27125 0.58625,-0.27125 0.24875,0 0.45,0.09 0.60625,0.27125 0.15625,0.17875 0.2325,0.405 0.2325,0.67625 z"/><path fill="#002768" d="m 26.36225,33.765875 v -0.16375 h 0.67 v 0.16375 l -0.20875,0.035 v 1.47 l 0.20875,0.03625 v 0.16125 h -0.67 v -0.16125 l 0.20875,-0.03625 v -1.47 z"/><path fill="#002768" d="m 28.84525,34.154 h -0.19 l -0.0475,-0.2675 c -0.04,-0.03125 -0.09125,-0.05875 -0.15375,-0.08 -0.065,-0.02125 -0.13875,-0.0325 -0.22375,-0.0325 -0.135,0 -0.2375,0.02875 -0.30875,0.08625 -0.0725,0.05625 -0.1075,0.13 -0.1075,0.22125 0,0.08125 0.03625,0.15 0.11,0.2025 0.0725,0.055 0.19,0.10375 0.35375,0.14375 0.19625,0.04875 0.345,0.12 0.4475,0.21625 0.1025,0.095 0.15375,0.2125 0.15375,0.3525 0,0.15 -0.06125,0.27125 -0.18375,0.3625 -0.12375,0.09125 -0.28375,0.13625 -0.48125,0.13625 -0.14375,0 -0.27125,-0.0225 -0.38375,-0.07 -0.11,-0.0475 -0.2025,-0.10875 -0.27125,-0.185 V 34.894 h 0.18875 l 0.04875,0.2675 c 0.04875,0.04 0.1075,0.0725 0.175,0.09875 0.06625,0.025 0.14875,0.0375 0.2425,0.0375 0.1275,0 0.2275,-0.02625 0.30125,-0.08 0.07375,-0.05375 0.11125,-0.1275 0.11125,-0.21875 0,-0.08625 -0.0325,-0.1575 -0.09625,-0.215 -0.065,-0.0575 -0.1775,-0.10625 -0.33875,-0.145 -0.19875,-0.0475 -0.3525,-0.1175 -0.46375,-0.2075 -0.11,-0.0925 -0.16625,-0.2075 -0.16625,-0.34625 0,-0.14625 0.06125,-0.2675 0.185,-0.365 0.125,-0.09625 0.28625,-0.145 0.48375,-0.145 0.13,0 0.25,0.02375 0.3575,0.0675 0.1075,0.045 0.1925,0.1 0.2575,0.16375 z"/></svg>