<svg xmlns="http://www.w3.org/2000/svg" viewBox="0 0 45 45"><rect x="11.25" y="6.246" fill="#081F40" width="24.42" height="32.5"/><rect x="33.75" y="6.246" fill="#EAAB22" width="1.92" height="32.5"/><rect x="9.33" y="6.246" fill="#EAAB22" width="1.92" height="32.5"/><path fill="#C21F32" d="M45,11.246v22.5c0,2.76-2.24,5-5,5h-4.33v-32.5H40C42.76,6.246,45,8.486,45,11.246z"/><path fill="#C21F32" d="M9.33,6.246v32.5H5c-2.76,0-5-2.24-5-5v-22.5c0-2.76,2.24-5,5-5H9.33z"/><polygon fill="#EAAB22" points="22.5,13.862 21.772,14.327 21.99,13.491 21.322,12.943 22.185,12.891 22.5,12.087 22.815,12.891 23.678,12.943 23.01,13.491 23.228,14.327 "/><path fill="#FFFFFF" d="M23.872,24.913c0,0,0.169,0.274,0.369,0.513c0.2,0.238,0.476,0.518,0.476,0.518s0.412,1.782-2.565,1.782c-2.447,0-2.212-1.765-2.212-1.765s0.25-0.053,0.704-0.331c0.454-0.278,0.602-0.469,0.602-0.469s0.563,0.301,1.223,0.301C23.096,25.461,23.872,24.913,23.872,24.913z M18.435,23.294c0,0,0.353,0.143,0.926,0.31s0.884,0.218,0.884,0.218s0.108,0.214,0.352,0.563c0.244,0.35,0.41,0.529,0.41,0.529s-0.243,0.61-1.271,0.773c-0.939,0.148-2.635-0.109-3.302-0.91c-0.504-0.605,0.105-1.053,0.596-1.263C17.713,23.222,18.435,23.294,18.435,23.294z M19.796,20.93c0,0-0.158,0.551,0.006,1.079c0.162,0.521,0.505,0.868,0.505,0.868s-0.119,0.156-0.166,0.338c-0.047,0.182-0.024,0.344-0.024,0.344s-2.695-0.39-2.624-2.224C17.553,19.831,19.796,20.93,19.796,20.93z M24.075,24.721 l0.698-0.698c0,0,1.914-0.635,2.659-0.635s1.639,0.667,1.475,1.38c-0.165,0.714-2.298,1.2-3.098,1.2C24.514,25.968,24.075,24.721,24.075,24.721z M24.953,23.719c0,0-0.18-0.211-0.506-0.371c-0.326-0.161-0.694-0.205-0.694-0.205s0.255-0.518,0.424-1.085c0.175-0.589,0.141-0.986,0.141-0.986s0.741-1.524,2.118-1.524c0.772,0,1.106,0.541,1.106,1.871s-0.382,1.724-0.382,1.724s-0.627,0.089-1.224,0.245C25.339,23.544,24.953,23.719,24.953,23.719z M24.676,23.719c0,0-1.1,1.518-2.265,1.518c-0.618,0-1.2-0.353-1.516-0.856c-0.366-0.584-0.702-1.095-0.702-1.095s0.206-0.306,0.865,0.102c0.659,0.408,0.662,0.683,1.8,0.296C24.276,23.201,24.676,23.719,24.676,23.719z M21.11,23.113c0,0-1.122-0.627-1.122-1.6s0.502-1.851,1.02-2.471s0.847-1.032,1.659-0.169c0.761,0.808,1.427,1.118,1.427,2.255c0,0.923-0.679,2.11-0.679,2.11l-0.411,0.209 l0.177-0.373c0,0-0.682-1.003-1.026-1.003C21.543,22.072,21.11,23.113,21.11,23.113z"/><path fill="#EAAB22" d="M21.235,23.223c0,0,0.443-0.967,0.907-0.967c0.212,0,0.831,0.787,0.831,0.787l-0.153,0.38c0,0-0.196,0.137-0.716,0.137S21.235,23.223,21.235,23.223z"/><path fill="#FFFFFF" d="M29.441,28.83l0.083-0.559l0.319,0.466l0.557-0.095l-0.344,0.448l0.262,0.5l-0.532-0.189l-0.396,0.404l0.016-0.565l-0.506-0.251L29.441,28.83z M30.606,27.139l-0.043-0.563l0.415,0.384l0.522-0.216l-0.236,0.514 l0.366,0.43l-0.561-0.067l-0.296,0.482l-0.11-0.554l-0.549-0.132L30.606,27.139z M31.367,25.232l-0.167-0.54l0.49,0.282l0.461-0.327l-0.117,0.553l0.453,0.338l-0.562,0.06l-0.182,0.535l-0.23-0.516l-0.565-0.007L31.367,25.232z M31.686,23.204l-0.283-0.489 l0.54,0.166l0.377-0.421l0.009,0.565l0.516,0.229l-0.534,0.183L32.252,24l-0.339-0.452l-0.553,0.118L31.686,23.204z M31.546,21.156l-0.384-0.414l0.563,0.043L32,20.29l0.134,0.549l0.554,0.109l-0.481,0.297l0.067,0.561l-0.431-0.366l-0.512,0.238L31.546,21.156z M30.956,19.19l-0.467-0.318l0.559-0.084l0.158-0.543l0.253,0.506l0.565-0.017l-0.403,0.396l0.19,0.532l-0.501-0.261l-0.447,0.346L30.956,19.19z M29.944,17.403l-0.526-0.207l0.526-0.205l0.034-0.564l0.359,0.437l0.547-0.142l-0.305,0.475l0.304,0.477l-0.547-0.143l-0.359,0.436L29.944,17.403z M28.561,15.886l-0.559-0.085l0.468-0.317l-0.092-0.558l0.447,0.347l0.502-0.26l-0.192,0.531l0.402,0.398l-0.565-0.018l-0.253,0.505L28.561,15.886z M26.876,14.714l-0.564,0.041l0.386-0.413l-0.214-0.523 l0.513,0.239l0.431-0.364l-0.069,0.561l0.48,0.299l-0.555,0.107l-0.135,0.549L26.876,14.714z M24.973,13.944l-0.54,0.165 l0.284-0.488l-0.324-0.463l0.553,0.119l0.34-0.451l0.057,0.562l0.535,0.185L25.359,13.8l-0.01,0.565L24.973,13.944z M15.559,28.83 l0.542,0.16l-0.506,0.251l0.016,0.565l-0.396-0.404l-0.532,0.189l0.262-0.5L14.6,28.642l0.557,0.095l0.319-0.466L15.559,28.83z M14.394,27.139l0.493,0.276l-0.549,0.132l-0.11,0.554l-0.296-0.482l-0.561,0.067l0.366-0.43L13.5,26.744l0.522,0.216l0.415-0.384L14.394,27.139z M13.633,25.232l0.419,0.379l-0.565,0.007l-0.23,0.516l-0.182-0.535l-0.562-0.06l0.453-0.338l-0.117-0.553 l0.461,0.327l0.49-0.282L13.633,25.232z M13.314,23.204l0.325,0.462l-0.553-0.118L12.748,24l-0.059-0.562l-0.534-0.183l0.516-0.229 l0.009-0.565l0.377,0.421l0.54-0.166L13.314,23.204z M13.454,21.156l0.214,0.523l-0.512-0.238l-0.431,0.366l0.067-0.561l-0.481-0.297l0.554-0.109L13,20.29l0.275,0.494l0.563-0.043L13.454,21.156z M14.044,19.19l0.093,0.557l-0.447-0.346l-0.501,0.261 l0.19-0.532l-0.403-0.396l0.565,0.017l0.253-0.506l0.158,0.543l0.559,0.084L14.044,19.19z M15.056,17.403l-0.033,0.564l-0.359-0.436l-0.547,0.143l0.304-0.477l-0.305-0.475l0.547,0.142l0.359-0.437l0.034,0.564l0.526,0.205L15.056,17.403z M16.439,15.886l-0.158,0.543l-0.253-0.505l-0.565,0.018l0.402-0.398l-0.192-0.531l0.502,0.26l0.447-0.347l-0.092,0.558l0.468,0.317L16.439,15.886z M18.124,14.714l-0.274,0.494l-0.135-0.549l-0.555-0.107l0.48-0.299l-0.069-0.561l0.431,0.364l0.513-0.239l-0.214,0.523l0.386,0.413L18.124,14.714z M20.027,13.944l-0.377,0.421l-0.01-0.565l-0.517-0.228l0.535-0.185l0.057-0.562l0.34,0.451l0.553-0.119l-0.324,0.463l0.284,0.488L20.027,13.944z"/><path fill="#FFFFFF" d="M28.08,30.366l0.24-0.19l-0.22-0.29l-0.36,0.31l-0.38,0.26l-0.66,0.39l-0.29,0.15l0.33,0.66l-0.24,0.11l-0.29-0.67l-0.32,0.14l0.42,0.99l0.91-0.42l0.74-0.44l-0.17-0.29l-0.51-0.16l0.26-0.15l0.25-0.19l0.44,0.59l0.28-0.21L28.08,30.366z M27.36,31.316l-0.31,0.17l-0.16-0.31L27.36,31.316z M20.94,31.736l-0.7-0.145l-0.47-0.145l-0.48-0.18l-0.63-0.28l-0.38,0.08l-0.25,0.5l0.1,0.37l0.76,0.34l0.54,0.2l0.53,0.17l0.74,0.15l0.37-0.25l0.07-0.43L20.94,31.736z M18.7,31.816l-0.28-0.12l-0.02-0.08l0.12-0.25l0.09-0.02l0.55,0.25l-0.02,0.05l-0.31-0.14L18.7,31.816z M19.72,32.206l-0.37-0.13l0.13-0.36l0.18,0.06 l0.16,0.05L19.72,32.206z M20.74,32.336l-0.13,0.09l-0.21-0.05l0.1-0.38l0.2,0.05l0.07,0.12L20.74,32.336z M26.1,31.92l-0.15,0.05 l0.21,0.12l0.06,0.18l-0.3,0.11l-0.23-0.17l0.07,0.22l-0.33,0.12l-0.22-0.71l-0.31,0.09l0.17,0.72l-0.33,0.09l-0.19-0.72l-0.37,0.07 l-0.06-0.34l0.53-0.11l0.46-0.125l0.35-0.125l0.39-0.14L26.1,31.92z M23.25,32.596v-0.02l0.45-0.05l-0.04-0.34l-0.43,0.04v-0.02 l0.52-0.05l-0.03-0.35l-0.42,0.05l-0.44,0.03l-0.26,0.01l-0.15,0.38l-0.13-0.4h-0.25l-0.1,0.36l-0.13-0.38l-0.39-0.03l0.4,1.13 l0.24,0.02l0.11-0.34l0.12,0.35h0.24l0.32-0.83l0.04,0.81l0.47-0.03l0.45-0.05l-0.03-0.35L23.25,32.596z M16.54,30.97l-0.28-0.21 l0.68-0.87l0.27,0.23L16.54,30.97z M17.51,30.33l0.02,0.48l0.21-0.34l0.29,0.2l-0.57,0.92l-0.26-0.17l-0.03-0.52l-0.25,0.35l-0.28-0.21l0.62-0.9L17.51,30.33z"/></svg>