<svg xmlns="http://www.w3.org/2000/svg" viewBox="0 0 36 36"><g><path transform="rotate(-6.42653 20.3787 16.7921)" stroke="none" fill="#999999" d="m19.69705,14.11142c-0.23414,0 -0.46829,0.05283 -0.64693,0.15746c-0.35729,0.20927 -0.35729,0.54858 0,0.75786c1.46557,0.85741 1.46557,2.67281 0,3.53124c-0.35729,0.20927 -0.35729,0.54858 0,0.75786c0.35729,0.20927 0.93658,0.20927 1.29386,0c2.17494,-1.27291 2.17494,-3.77404 0,-5.04695c-0.17864,-0.10464 -0.41279,-0.15746 -0.64693,-0.15746z" id="svg_2"/><g stroke="none" id="svg_35"><path stroke="none" fill="#333333" d="m25.11874,20.07974l-6.31425,0c-1.3792,0 -2.40126,-0.73093 -2.80478,-2.00443l-1.77094,-4.95367l1.55666,-0.5786l1.78124,4.98369c0.18778,0.59136 0.58909,0.86376 1.23782,0.86376l6.31425,0l0,1.68925z" id="svg_31"/><path stroke="none" id="svg_33" d="m21.42017,12.65799l1.80761,-0.54305l5.26565,13.28656c-0.99662,-0.62514 -6.95874,2.78049 -2.98987,-1.87542l-4.08339,-10.86809z" fill="#333333"/></g><path stroke="none" id="svg_18" d="m4.40613,5.80179l25.79898,0c0.46755,0.64001 0.9351,1.44504 1.03135,2.04379l-23.29424,-0.11363c-1.27888,-0.07936 -3.48977,0.3703 -3.53609,-1.07328l0,-0.85688z" fill="#999999"/><path stroke="none" fill="#666666" d="m3.43311,6.80542l1.761,0l0,2.59563l-1.1957,0.63528c-0.87,0 -1.582,0.08058 -1.91234,-1.37788l-0.23596,-1.44676c0,-0.44948 0.90077,-0.10731 1.583,-0.40627z" id="svg_5"/><path fill="#999999" d="m3.90967,6.54172c0,0.923 0.748,1.671 1.671,1.671s2.727,-0.748 2.727,-1.671s-1.804,-1.671 -2.727,-1.671s-1.671,0.748 -1.671,1.671z" id="svg_6"/><path fill="#666666" d="m4.869,12.94079c0,1.166 0.945,2.111 2.659,2.111l14.472,0l0,-2.111l-17.131,0z" id="svg_7"/><path transform="rotate(-130.451 32.9268 8.32343)" stroke="none" fill="#7f7f7f" d="m31.92599,5.18198c-0.37174,-0.14229 2.1883,3.09363 0.07532,2.64288c-2.11298,-0.45075 1.70972,1.34991 0.68298,1.86252c-1.02674,0.51261 1.68474,3.94165 1.78516,-0.3493c0.10042,-4.29095 0.06663,-2.71989 -1.94509,-3.99799c-0.16524,-0.10506 -0.22664,-0.01581 -0.59838,-0.15811z" id="svg_4"/><path fill="#4c4c4c" d="m35.279,29.37935s-1.975,-6.154 -2.731,-8.768s-1.006,-4.614 1.077,-6.147c1.135,-0.835 1.431,-1.844 1.204,-2.899c-0.377,-1.752 -1.284,-4.076 -1.72,-4.925c-0.189,-0.369 -0.486,-0.758 -1.073,-0.928c0,0 -0.79085,-0.02265 -2.99732,-0.04531c-0.55161,-0.00567 -6.59868,-0.17757 -8.65918,-0.18287c-2.06051,-0.00531 -0.58522,1.15344 -1.52979,1.14919c-0.94458,-0.00425 -1.60049,-0.01784 -2.77083,-0.02032c-1.17034,-0.00247 0.10714,-1.10342 -1.30848,-1.10342c-6.333,0 -12.18939,-0.57727 -12.18939,1.73073l0,3.612c0,1.23 0.997,2.227 2.227,2.227l13.702,0c0.727,0 1.37,0.473 1.587,1.168l4.352,13.79l0,0.001c0.429,1.402 -0.915,1.633 -0.915,2.787c0,0.714 0.584,1.297 1.297,1.297l8.433,0c0.7125,0 1.32275,-0.34575 1.70163,-0.8615c0.37887,-0.51575 0.52637,-1.2015 0.31337,-1.8815z" id="svg_8"/><circle fill="#FFCC4D" cx="26.04441" cy="15.06287" r="0.53544" id="svg_11" stroke="none" transform="rotate(5.47704 26.0444 15.0629)"/><circle transform="rotate(5.47704 29.6594 29.6909)" fill="#FFCC4D" cx="29.65937" cy="29.69087" r="0.53544" id="svg_19" stroke="none"/><path stroke="none" id="svg_15" d="m2.82089,10.41091l23.30741,0c0.4224,0.21927 0.84479,0.49508 0.93175,0.70022l-21.04458,-0.03893c-1.15537,-0.02719 -3.15274,0.12687 -3.19459,-0.36772l0,-0.29358z" fill="#666666"/><g stroke="none" id="svg_24"><path stroke="none" fill="#8B4513" d="m21.55523,13.23653c4.09384,-0.09693 6.75527,-1.01887 7.67677,2.98069l3.26,11.23932c-0.64688,2.66425 -1.56577,3.05603 -5.5674,2.97606l-5.36937,-17.19607z" id="svg_12" stroke-width="0"/><ellipse stroke="none" ry="0.62693" rx="0.60586" id="svg_20" cy="15.37679" cx="25.6138" fill="#333333"/><ellipse stroke="none" ry="0.62693" rx="0.60586" id="svg_22" cy="28.13095" cx="29.24008" fill="#333333"/></g><line id="svg_32" y2="24.64251" x2="11.52944" y1="20.63852" x1="11.27919" stroke="none" fill="none"/></g></svg>