<svg xmlns="http://www.w3.org/2000/svg" viewBox="0 0 36 36">
 <g transform="scale(0.0703125)">
  <path d="m351.61094,193.52984l-92.26205,0c10.19255,0 27.23993,17.86511 27.23993,36.89056c0,19.02545 -17.04738,32.00489 -27.23993,32.00489l92.26205,0l0,0c10.19155,0 18.45221,-15.42386 18.45221,-34.44719c0,-19.02545 -8.26066,-34.44825 -18.45221,-34.44825z" fill="#7f7f7f" id="svg_1"/>
  <path d="m448.42509,104.06633c8.18651,-3.25359 10.91401,-10.85234 12.73167,-2.16835c1.81767,8.68187 -30.01553,30.3855 -30.01553,30.3855l-9.09634,-20.61839c0,0 18.19168,-4.34305 26.3802,-7.59875l0,0z" fill="#b2b2b2" id="svg_3"/>
  <path d="m227.63687,151.81452l100.9656,0c12.05331,0 24.4473,11.66151 27.67881,26.04668l15.10245,67.28346c3.22951,14.38306 -3.92692,33.04245 -15.98123,33.04245l-91.95942,2c-22.74086,0 -47.7611,-20.02281 -54.09687,-48.23784l-7.69358,-55.09018c-3.22951,-14.38306 13.92792,-25.04456 25.98423,-25.04456l0,0zm0.63528,53.47899l6.6945,29.81432c3.62531,16.14735 10.50518,23.6012 23.51843,23.6012l43.17907,0c6.90092,0 10.99317,-6.67641 9.14444,-14.90558l-8.64543,-38.50995c-1.84773,-8.23022 -8.93903,-14.90346 -15.83894,-14.90346l-48.90161,0c-6.90192,-0.00106 -10.99718,6.67324 -9.15045,14.90346l0,0z" fill="#b2b2b2" id="svg_4"/>
  <path d="m7.72641,95.38446l404.3123,0l15.37601,13.05348l16.46019,81.35977l-436.1505,0c0,0 -6.36584,-17.36375 -6.36584,-46.66401c0.001,-29.29921 6.36784,-47.74925 6.36784,-47.74925z" fill="#b2b2b2" id="svg_5"/>
  <path d="m5.45283,95.38446l406.58587,0c10.00618,0 12.43309,3.98131 14.83992,10.76772c2.6163,7.37558 10.53125,61.64364 15.48224,66.28179c1.93527,1.815 6.52081,2.81111 11.2102,3.82978c7.30508,1.58686 14.86209,3.22844 13.0447,8.10568c-1.01976,2.73702 -5.24761,4.88031 -10.60656,7.59701c-12.31279,6.24193 -30.59658,15.51083 -29.65963,41.96307c3.75858,12.35856 8.31877,24.95194 14.79784,38.34494c9.90798,20.49254 29.10869,43.40725 44.57087,83.56092c6.31834,16.40661 8.68836,31.54471 9.28172,43.71171l0,13.0308c-0.50147,9.98906 -2.00404,15.96503 -2.00404,15.96503c0,0 -17.95219,5.58589 -46.99076,7.23595c-29.03857,1.65006 -70.34785,-7.23595 -70.34785,-7.23595c0,0 -75.34395,-213.41353 -79.51236,-222.28157c-4.16939,-8.86803 -11.44706,-13.20791 -21.45226,-13.20791l-169.18315,0c0,0 -5.33476,-2.08691 -5.3057,-3.2557c0,0 5.38786,0.37867 5.38987,-0.27395c0.07515,-9.1896 -0.74049,-33.93843 -10.99818,-45.30483c-12.73468,-14.10698 -95.50859,-9.76711 -95.50859,-9.76711l0,-0.00589c0,-12.4795 6.36584,-39.06148 6.36584,-39.06148z" fill="#999999" id="svg_7"/>
  <path d="m105.54166,189.61896c0.03407,1.26399 0.0511,2.4148 0.05411,3.43446c-0.04609,0 -0.08818,0 -0.08818,0c0,0 -5.33476,-2.08691 -5.3047,-3.2557c0,0 4.81771,0.3353 5.33877,-0.17876z" fill="#BCBCBC" id="svg_8"/>
  <path d="m-0.67052,134.44125c4.9119,-0.24328 82.93023,-3.88294 95.2641,9.7798c10.25969,11.3664 11.07333,36.11418 10.99918,45.30483c0,0.03491 -0.02204,0.06558 -0.0511,0.0952c-0.2996,-11.17389 -2.14533,-30.76311 -10.94808,-40.51753c-12.73468,-14.10804 -95.50859,-9.76499 -95.50859,-9.76499c0,-1.45967 0.08918,-3.1182 0.24449,-4.8973z" fill="#888889" id="svg_9"/>
  <path d="m320.66345,167.00251l-61.61625,0l0,0c-8.07128,0 -14.61547,3.73909 -14.61547,8.3508c0,4.61172 6.5442,8.34975 14.61547,8.34975l61.61625,0l0,0c8.07228,0 14.61547,-3.73909 14.61547,-8.34975c0,-4.61172 -6.54319,-8.3508 -14.61547,-8.3508z" fill="#cccccc" id="svg_24"/>
  <path d="m326.22425,166.04314c0,0 28.83614,0.40558 39.28467,0.40558c10.44757,0 20.86718,2.42511 25.54771,15.88552l98.09358,245.33968c-8.12128,1.77493 -21.43116,4.10701 -38.5703,5.08333c-16.6253,0.94705 -37.22157,-1.52928 -51.97176,-3.85404l-86.32332,-247.05294c-4.67957,-13.45727 4.14066,-15.80712 13.93845,-15.80712l0,0l0.00096,0z" fill="#333333" id="svg_10"/>
  <path d="m436.44793,155.07128l0.84971,4.33988l-335.17488,0c-0.41484,-1.47765 -0.86474,-2.93521 -1.37978,-4.33988l335.70495,0z" fill="#A6A7A9" id="svg_11"/>
  <path d="m5.45283,94.54991c0,0 396.58071,0 406.58588,0c9.50316,0 12.16653,3.59312 14.47519,9.76605l-423.22343,0c1.18739,-5.69695 2.16236,-9.76605 2.16236,-9.76605z" fill="#b2b2b2" id="svg_13"/>
  <path d="m416.70312,87.88196l-47.66712,0l9.19955,15.61108l47.66612,0l-9.19855,-15.61108z" fill="#666666" id="svg_22"/>
  <path d="m416.58588,384.51792c3.72551,-4.74922 10.1154,-6.06081 15.14855,-2.78713c5.03515,3.27157 6.97707,9.99664 4.87082,15.79513l-20.01937,-13.008z" fill="#b2b2b2" id="svg_15"/>
  <path d="m419.40256,404.02781c-5.11932,-3.32763 -7.0412,-10.22405 -4.7616,-16.08601l20.09252,13.05877c-3.69245,4.94384 -10.2136,6.35063 -15.33091,3.02723z" fill="#b2b2b2" id="svg_16"/>
  <path d="m263.65951,119.61289l-89.83315,0l17.33496,36.4865l89.83515,0l-17.33696,-36.4865z" fill="#7f7f7f" id="svg_20"/>
  <path d="m347.17091,198.35266c3.72551,-4.74711 10.1154,-6.0587 15.14755,-2.78607c5.03616,3.27157 6.97907,9.99664 4.87182,15.79513l-20.01937,-13.00906z" fill="#b2b2b2" id="svg_12"/>
  <path d="m349.98759,217.86361c-5.11932,-3.32763 -7.0422,-10.22299 -4.7606,-16.08601l20.09252,13.05983c-3.69345,4.94173 -10.2146,6.35063 -15.33192,3.02617z" fill="#b2b2b2" id="svg_17"/>
 </g>
<script xmlns=""/></svg>
