<svg version="1.1" xmlns="http://www.w3.org/2000/svg" xmlns:xlink="http://www.w3.org/1999/xlink" width="36.21233" height="36" viewBox="0,0,36.21233,36"><g transform="translate(-221.89383,-162)"><g data-paper-data="{&quot;isPaintingLayer&quot;:true}" fill-rule="nonzero" stroke="none" stroke-linecap="butt" stroke-linejoin="miter" stroke-miterlimit="10" stroke-dasharray="" stroke-dashoffset="0" style="mix-blend-mode: normal"><path d="M227.13585,164.86318c0,-1.06993 0.86734,-1.93727 1.93727,-1.93727c1.06993,0 1.93727,0.86734 1.93727,1.93727c0,1.06993 -0.86734,1.93727 -1.93727,1.93727c-1.06993,0 -1.93727,-0.86734 -1.93727,-1.93727z" data-paper-data="{&quot;index&quot;:null}" fill="#408ac2" stroke-width="0"/><path d="M221.89383,170.10521c0,-1.44755 1.17347,-2.62101 2.62101,-2.62101c1.44755,0 2.62101,1.17347 2.62101,2.62101c0,1.44755 -1.17347,2.62101 -2.62101,2.62101c-1.44755,0 -2.62101,-1.17347 -2.62101,-2.62101z" data-paper-data="{&quot;index&quot;:null}" fill="#408ac2" stroke-width="0"/><path d="M250.92685,166.80045c-1.06993,0 -1.93727,-0.86734 -1.93727,-1.93727c0,-1.06993 0.86734,-1.93727 1.93727,-1.93727c1.06993,0 1.93727,0.86734 1.93727,1.93727c0,1.06993 -0.86734,1.93727 -1.93727,1.93727z" data-paper-data="{&quot;index&quot;:null}" fill="#408ac2" stroke-width="0"/><path d="M255.48515,172.72622c-1.44754,0 -2.62101,-1.17346 -2.62101,-2.62101c0,-1.44754 1.17346,-2.62101 2.62101,-2.62101c1.44754,0 2.62101,1.17346 2.62101,2.62101c0,1.44754 -1.17346,2.62101 -2.62101,2.62101z" data-paper-data="{&quot;index&quot;:null}" fill="#408ac2" stroke-width="0"/><path d="M222.00001,180c0,-9.941 8.059,-18 18,-18c9.941,0 18,8.059 18,18c0,9.941 -8.059,18 -18,18c-9.941,0 -18,-8.059 -18,-18" data-paper-data="{&quot;index&quot;:null}" fill="#fee7b8" stroke-width="1"/><path d="M255.02931,168.85168c-1.61537,0 -2.9249,-1.30952 -2.9249,-2.9249c0,-1.61537 1.30952,-2.9249 2.9249,-2.9249c1.61537,0 2.9249,1.30952 2.9249,2.9249c0,1.61537 -1.30952,2.9249 -2.9249,2.9249z" data-paper-data="{&quot;index&quot;:null}" fill="#408ac2" stroke-width="0"/><path d="M253.73779,170.97889c-1.06993,0 -1.93727,-0.86734 -1.93727,-1.93727c0,-1.06993 0.86734,-1.93727 1.93727,-1.93727c1.06993,0 1.93727,0.86734 1.93727,1.93727c0,1.06993 -0.86734,1.93727 -1.93727,1.93727z" data-paper-data="{&quot;index&quot;:null}" fill="#408ac2" stroke-width="0"/><path d="M251.91448,169.00362c-1.06993,0 -1.93727,-0.86734 -1.93727,-1.93727c0,-1.06993 0.86734,-1.93727 1.93727,-1.93727c1.06993,0 1.93727,0.86734 1.93727,1.93727c0,1.06993 -0.86734,1.93727 -1.93727,1.93727z" data-paper-data="{&quot;index&quot;:null}" fill="#408ac2" stroke-width="0"/><path d="M247.00835,170.00535c1.34684,0 2.43868,1.60231 2.43868,3.57886c0,1.97655 -1.09183,3.57886 -2.43868,3.57886c-1.34684,0 -2.43868,-1.60231 -2.43868,-3.57886c0,-1.97656 1.09183,-3.57886 2.43868,-3.57886z" data-paper-data="{&quot;index&quot;:null}" fill="#65471b" stroke-width="0"/><path d="M232.99165,170.00535c1.34684,0 2.43868,1.60231 2.43868,3.57886c0,1.97655 -1.09183,3.57886 -2.43868,3.57886c-1.34684,0 -2.43868,-1.60231 -2.43868,-3.57886c0,-1.97656 1.09183,-3.57886 2.43868,-3.57886z" data-paper-data="{&quot;index&quot;:null}" fill="#65471b" stroke-width="0"/><path d="M240,184.87036c-1.91957,0 -3.47569,-1.55612 -3.47569,-3.47569c0,-1.91957 1.55612,-3.47569 3.47569,-3.47569c1.91957,0 3.47569,1.55612 3.47569,3.47569c0,1.91957 -1.55612,3.47569 -3.47569,3.47569z" data-paper-data="{&quot;index&quot;:null}" fill="#bc1331" stroke-width="0"/><path d="M251.05384,187.01058c-2.23426,0 -4.04548,-1.81123 -4.04548,-4.04548c0,-2.23426 1.81123,-4.04548 4.04548,-4.04548c2.23426,0 4.04548,1.81123 4.04548,4.04548c0,2.23426 -1.81123,4.04548 -4.04548,4.04548z" data-paper-data="{&quot;index&quot;:null}" fill="#ff7993" stroke-width="0"/><path d="M228.94616,187.01058c-2.23426,0 -4.04548,-1.81122 -4.04548,-4.04548c0,-2.23426 1.81123,-4.04548 4.04548,-4.04548c2.23426,0 4.04548,1.81123 4.04548,4.04548c0,2.23426 -1.81123,4.04548 -4.04548,4.04548z" data-paper-data="{&quot;index&quot;:null}" fill="#ff7993" stroke-width="0"/><path d="M222.04576,165.92678c0,-1.61538 1.30953,-2.9249 2.9249,-2.9249c1.61538,0 2.9249,1.30953 2.9249,2.9249c0,1.61538 -1.30953,2.9249 -2.9249,2.9249c-1.61538,0 -2.9249,-1.30953 -2.9249,-2.9249z" data-paper-data="{&quot;index&quot;:null}" fill="#408ac2" stroke-width="0"/><path d="M224.32491,169.04162c0,-1.06993 0.86734,-1.93727 1.93727,-1.93727c1.06993,0 1.93727,0.86734 1.93727,1.93727c0,1.06993 -0.86734,1.93727 -1.93727,1.93727c-1.06993,0 -1.93727,-0.86734 -1.93727,-1.93727z" data-paper-data="{&quot;index&quot;:null}" fill="#408ac2" stroke-width="0"/><path d="M226.14822,167.06636c0,-1.06993 0.86734,-1.93727 1.93727,-1.93727c1.06993,0 1.93727,0.86734 1.93727,1.93727c0,1.06993 -0.86734,1.93727 -1.93727,1.93727c-1.06993,0 -1.93727,-0.86734 -1.93727,-1.93727z" data-paper-data="{&quot;index&quot;:null}" fill="#408ac2" stroke-width="0"/><path d="M230.66514,185.754c0.178,-0.161 0.444,-0.171 0.635,-0.029c0.039,0.029 3.922,2.9 8.7,2.9c4.766,0 8.662,-2.871 8.7,-2.9c0.191,-0.142 0.457,-0.13 0.635,0.029c0.177,0.16 0.217,0.424 0.094,0.628c-0.129,0.215 -3.217,6.743 -9.429,6.743c-6.212,0 -9.301,-6.528 -9.429,-6.743c-0.123,-0.205 -0.084,-0.468 0.094,-0.628z" data-paper-data="{&quot;index&quot;:null}" fill="#da2f47" stroke-width="1"/></g></g></svg>