<?xml version="1.0" encoding="UTF-8" standalone="no"?>
<svg
   viewBox="0 0 36 36"
   xml:space="preserve"
   version="1.1"
   id="svg26"
   sodipodi:docname="1f979.svg"
   inkscape:version="1.2 (dc2aeda, 2022-05-15)"
   inkscape:export-filename="1f979.png"
   inkscape:export-xdpi="192"
   inkscape:export-ydpi="192"
   xmlns:inkscape="http://www.inkscape.org/namespaces/inkscape"
   xmlns:sodipodi="http://sodipodi.sourceforge.net/DTD/sodipodi-0.dtd"
   xmlns="http://www.w3.org/2000/svg"
   xmlns:svg="http://www.w3.org/2000/svg"><defs
     id="defs30"><inkscape:path-effect
       effect="mirror_symmetry"
       start_point="31.175169,19.48501"
       end_point="31.175169,23.387"
       center_point="31.175169,21.436005"
       id="path-effect484"
       is_visible="true"
       lpeversion="1.2"
       lpesatellites=""
       mode="vertical"
       discard_orig_path="false"
       fuse_paths="false"
       oposite_fuse="false"
       split_items="false"
       split_open="false"
       link_styles="false" /><inkscape:path-effect
       effect="mirror_symmetry"
       start_point="30.111704,12.604354"
       end_point="30.111704,22.890271"
       center_point="30.111704,17.747312"
       id="path-effect482"
       is_visible="true"
       lpeversion="1.2"
       lpesatellites=""
       mode="vertical"
       discard_orig_path="false"
       fuse_paths="false"
       oposite_fuse="false"
       split_items="false"
       split_open="false"
       link_styles="false" /><inkscape:path-effect
       effect="mirror_symmetry"
       start_point="30.999443,11.112132"
       end_point="30.999443,22.887093"
       center_point="30.999443,16.999613"
       id="path-effect480"
       is_visible="true"
       lpeversion="1.2"
       lpesatellites=""
       mode="vertical"
       discard_orig_path="false"
       fuse_paths="false"
       oposite_fuse="false"
       split_items="false"
       split_open="false"
       link_styles="false" /><inkscape:path-effect
       effect="mirror_symmetry"
       start_point="28.752531,14.053696"
       end_point="28.752531,22.053696"
       center_point="28.752531,18.053696"
       id="path-effect478"
       is_visible="true"
       lpeversion="1.2"
       lpesatellites=""
       mode="vertical"
       discard_orig_path="false"
       fuse_paths="false"
       oposite_fuse="false"
       split_items="false"
       split_open="false"
       link_styles="false" /><inkscape:path-effect
       effect="mirror_symmetry"
       start_point="17.898173,6.0898156"
       end_point="17.898173,30.027463"
       center_point="17.898173,18.058639"
       id="path-effect476"
       is_visible="true"
       lpeversion="1.2"
       lpesatellites=""
       mode="free"
       discard_orig_path="false"
       fuse_paths="true"
       oposite_fuse="false"
       split_items="false"
       split_open="false"
       link_styles="false" /></defs><sodipodi:namedview
     id="namedview28"
     pagecolor="#ffffff"
     bordercolor="#000000"
     borderopacity="0.25"
     inkscape:showpageshadow="2"
     inkscape:pageopacity="0.0"
     inkscape:pagecheckerboard="0"
     inkscape:deskcolor="#d1d1d1"
     showgrid="false"
     showguides="true"
     inkscape:zoom="16"
     inkscape:cx="31.59375"
     inkscape:cy="12.28125"
     inkscape:window-width="2505"
     inkscape:window-height="1027"
     inkscape:window-x="55"
     inkscape:window-y="25"
     inkscape:window-maximized="0"
     inkscape:current-layer="svg26" /><path
     fill="#FFCC4D"
     d="M36 18c0 9.941-8.059 18-18 18S0 27.941 0 18 8.059 0 18 0s18 8.059 18 18"
     id="path2" /><path
     fill="#65471b"
     d="m 13.236328,25.570312 c -0.45386,0.165194 -0.795808,0.653598 -0.566406,1.384766 0.05092,0.15075 1.030266,3.037673 5.228516,3.072266 4.198249,-0.03459 5.177599,-2.921516 5.228515,-3.072266 0.458803,-1.462336 -1.367233,-1.959015 -1.806641,-0.822266 -0.11125,0.192692 -0.595628,1.880227 -3.421874,1.894532 -2.826247,-0.01431 -3.312578,-1.70184 -3.423829,-1.894532 -0.219703,-0.568374 -0.78442,-0.727693 -1.238281,-0.5625 z M 14.724921,7.9059188 C 15.642666,6.8051297 14.186557,5.6088594 13.299571,6.5757231 11.446897,8.5952396 8.5500879,9.31199 7.6292412,9.4252667 6.3383291,9.601667 6.5061226,11.417502 7.8895664,11.281658 8.3023238,11.241129 12.237329,10.889663 14.724921,7.9059188 Z m 6.346504,0 c -0.917745,-1.1007891 0.538364,-2.2970594 1.42535,-1.3301957 1.852674,2.0195165 4.749483,2.7362669 5.67033,2.8495436 1.290912,0.1764003 1.123118,1.9922353 -0.260325,1.8563913 -0.412758,-0.04053 -4.347763,-0.391995 -6.835355,-3.3757392 z"
     id="path4"
     sodipodi:nodetypes="cccccsccss"
     class="UnoptimicedTransforms"
     inkscape:path-effect="#path-effect476"
     inkscape:original-d="m 17.919068,30.027463 c -4.215896,-0.02517 -5.19871,-2.920409 -5.24971,-3.071409 -0.458803,-1.462336 1.366337,-1.960315 1.805744,-0.823566 0.111524,0.193165 0.599215,1.888907 3.443966,1.894975 z M 14.724921,7.9059188 C 15.642666,6.8051297 14.186557,5.6088594 13.299571,6.5757231 11.446897,8.5952396 8.5500879,9.31199 7.6292412,9.4252667 6.3383291,9.601667 6.5061226,11.417502 7.8895664,11.281658 8.3023238,11.241129 12.237329,10.889663 14.724921,7.9059188 Z" /><path
     fill="#FFF"
     d="m 29.895,15.058 c -2.186,-3.426 -6.094,-4.536 -8.157,-3.659 -1.14,0.483 -1.711,2.022 -1.737,4.647 -0.006,0.616 0.018,1.294 0.072,2.032 0.032,0.435 0.067,0.876 0.119,1.353 0.134,1.219 0.777,2.181 1.859,2.779 0.72,0.399 1.581,0.604 2.471,0.661 1.523,0.096 3.137,-0.246 4.281,-0.799 1.21,-0.584 1.996,-1.636 2.158,-2.886 0.162,-1.243 -0.187,-2.749 -1.066,-4.128 z m -23.79,0 c 2.186,-3.426 6.094,-4.536 8.157,-3.659 1.14,0.483 1.711,2.022 1.737,4.647 0.006,0.616 -0.018,1.294 -0.072,2.032 -0.032,0.435 -0.067,0.876 -0.119,1.353 -0.134,1.219 -0.777,2.181 -1.859,2.779 -0.72,0.399 -1.581,0.604 -2.471,0.661 C 9.955,22.967 8.341,22.625 7.197,22.072 5.987,21.488 5.201,20.436 5.039,19.186 4.877,17.943 5.226,16.437 6.105,15.058 Z"
     id="path6"
     inkscape:path-effect="#path-effect480"
     inkscape:original-d="M29.895 15.058c-2.186-3.426-6.094-4.536-8.157-3.659-1.14.483-1.711 2.022-1.737 4.647-.006.616.018 1.294.072 2.032.032.435.067.876.119 1.353.134 1.219.777 2.181 1.859 2.779.72.399 1.581.604 2.471.661 1.523.096 3.137-.246 4.281-.799 1.21-.584 1.996-1.636 2.158-2.886.162-1.243-.187-2.749-1.066-4.128z"
     class="UnoptimicedTransforms" /><path
     fill="#f4900c"
     d="m 29.991614,19.09316 c 0.161,-1.243 0.123456,-2.572878 -0.755547,-3.950878 -0.452546,-0.699661 -0.914099,-1.139519 -1.675205,-1.636214 -0.852861,-0.570473 -2.007691,-0.859327 -2.893998,-0.834061 -2.060394,0 -3.886848,1.222853 -4.657051,2.906649 C 19.974567,16.246062 20.02,17.363 20.073,18.079 c 0.032,0.435 0.067,0.876 0.12,1.353 0.134,1.219 0.777,2.181 1.859,2.779 0.72,0.399 1.581,0.604 2.471,0.661 0.8355,0.06475 2.133014,-0.03505 3.386388,-0.439615 1.11621,-0.805495 1.916187,-2.057033 2.082226,-3.339225 z m -23.983228,0 c -0.161,-1.243 -0.123456,-2.572878 0.755547,-3.950878 0.452546,-0.699661 0.9140985,-1.139519 1.6752045,-1.636214 0.852861,-0.570473 2.0076915,-0.859327 2.8939985,-0.834061 2.060394,0 3.886848,1.222853 4.657051,2.906649 C 16.025433,16.246062 15.98,17.363 15.927,18.079 c -0.032,0.435 -0.067,0.876 -0.12,1.353 -0.134,1.219 -0.777,2.181 -1.859,2.779 -0.72,0.399 -1.581,0.604 -2.471,0.661 C 10.6415,22.93675 9.343986,22.83695 8.090612,22.432385 6.974402,21.62689 6.174425,20.375352 6.008386,19.09316 Z"
     id="path8"
     sodipodi:nodetypes="ccccccccccc"
     inkscape:path-effect="#path-effect482"
     inkscape:original-d="m 29.991614,19.09316 c 0.161,-1.243 0.123456,-2.572878 -0.755547,-3.950878 -0.452546,-0.699661 -0.914099,-1.139519 -1.675205,-1.636214 -0.852861,-0.570473 -2.007691,-0.859327 -2.893998,-0.834061 -2.060394,0 -3.886848,1.222853 -4.657051,2.906649 C 19.974567,16.246062 20.02,17.363 20.073,18.079 c 0.032,0.435 0.067,0.876 0.12,1.353 0.134,1.219 0.777,2.181 1.859,2.779 0.72,0.399 1.581,0.604 2.471,0.661 0.8355,0.06475 2.133014,-0.03505 3.386388,-0.439615 1.11621,-0.805495 1.916187,-2.057033 2.082226,-3.339225 z"
     class="UnoptimicedTransforms" /><path
     fill="#65471b"
     id="circle10"
     inkscape:path-effect="#path-effect478"
     sodipodi:type="arc"
     sodipodi:cx="24.752531"
     sodipodi:cy="18.053696"
     sodipodi:rx="4"
     sodipodi:ry="4"
     d="m 28.752531,18.053696 c 0,2.209139 -1.790861,4 -4,4 -2.209139,0 -4,-1.790861 -4,-4 0,-2.209139 1.790861,-4 4,-4 2.209139,0 4,1.790861 4,4 z m -21.5050621,0 c 0,2.209139 1.790861,4 4.0000001,4 2.209139,0 4,-1.790861 4,-4 0,-2.209139 -1.790861,-4 -4,-4 -2.2091391,0 -4.0000001,1.790861 -4.0000001,4 z"
     class="UnoptimicedTransforms" /><ellipse
     transform="rotate(-45.028)"
     fill="#ffffff"
     cx="6.1388907"
     cy="27.442026"
     rx="1.674"
     ry="1.303"
     id="ellipse12"
     style="display:inline" /><path
     fill="#5dadec"
     d="m 21.81,22.648 c 0.747,0.414 1.649,0.657 2.682,0.722 0.182,0.011 0.365,0.017 0.549,0.017 1.392,0 2.843,-0.315 3.981,-0.864 0.973,-0.47 1.698,-1.214 2.102,-2.117 0.124969,-0.278817 0.01432,-0.606846 -0.254,-0.753 -1.421,-0.771 -2.921,1.362 -4.872,1.362 -1.952,0 -4.074,-0.936 -5.256,0 -0.224924,0.179934 -0.254489,0.511065 -0.065,0.728 0.309,0.353 0.686,0.658 1.133,0.905 z m -7.62,0 c -0.747,0.414 -1.649,0.657 -2.682,0.722 -0.182,0.011 -0.365,0.017 -0.549,0.017 -1.392,0 -2.843,-0.315 -3.981,-0.864 C 6.005,22.053 5.28,21.309 4.876,20.406 4.7510313,20.127183 4.8616813,19.799154 5.13,19.653 c 1.421,-0.771 2.921,1.362 4.872,1.362 1.952,0 4.074,-0.936 5.256,0 0.224924,0.179934 0.254489,0.511065 0.065,0.728 -0.309,0.353 -0.686,0.658 -1.133,0.905 z"
     id="path14"
     inkscape:path-effect="#path-effect484"
     inkscape:original-d="m 21.81,22.648 c 0.747,0.414 1.649,0.657 2.682,0.722 0.182,0.011 0.365,0.017 0.549,0.017 1.392,0 2.843,-0.315 3.981,-0.864 0.973,-0.47 1.698,-1.214 2.102,-2.117 A 0.585,0.585 0 0 0 30.87,19.653 c -1.421,-0.771 -2.921,1.362 -4.872,1.362 -1.952,0 -4.074,-0.936 -5.256,0 a 0.506,0.506 0 0 0 -0.065,0.728 c 0.309,0.353 0.686,0.658 1.133,0.905 z"
     class="UnoptimicedTransforms"
     style="display:inline" /><path
     fill="#ffffff"
     d="m 11.773819,15.052357 c -0.203,0.828 -1.019,1.5 -1.8219991,1.5 -0.803,0 -1.289,-0.672 -1.086,-1.5 0.203,-0.828 1.019,-1.5 1.8219991,-1.5 0.803,0 1.289,0.672 1.086,1.5 z"
     id="path22" /></svg>
