<svg xmlns="http://www.w3.org/2000/svg" viewBox="0 0 36 36"><path fill="#F4900C" d="M25.63575,8.3853949 27.614612,10.364242 11.490046,26.488807 9.5111854,24.50996Z"/><path fill="#DD2E44" d="M27.292971,-2.7035927e-6 24.375003,2.9179652c -0.744992,0.7449921 -1.21289,1.8663416 -1.212894,2.9199252 2e-6,1.053576 0.467901,2.1729737 1.212894,2.9179665l 2.869141,2.8691411 c 0.744993,0.744993 1.864383,1.212898 2.917965,1.212893 1.053577,3e-6 2.174934,-0.467902 2.919926,-1.212894L 36.000003,8.707029ZM 27.29297,3.2656237 32.734376,8.7070297 31.449229,9.994147c -0.328303,0.328303 -0.822818,0.533202 -1.287113,0.533208 -0.464295,6e-6 -0.956849,-0.204905 -1.285152,-0.533208L 26.00587,7.1230532C 25.677568,6.7947505 25.472657,6.3021969 25.472663,5.8379017c 5e-6,-0.4642952 0.204903,-0.9588104 0.533207,-1.2871138z"/><path fill="#99AAB5" d="m7.9492159,19.046878 -6.0839803,6.083981 0.011722,0.01172A 6.3666605,6.3666648 0 0 0 2.8193579e-6,29.632816 6.3666605,6.3666648 0 0 0 6.3671905,36.000004 6.3666605,6.3666648 0 0 0 10.857426,34.12305l 0.01172,0.01172 6.083981,-6.08398z"/><path fill="#E1E8ED" d="m11.313797,22.410517 -3.9020549,3.902055c -0.4507637,0.450763 -0.8737418,1.414299 -0.4229823,1.865073l 0.8335857,0.833599c 0.450758,0.450773 1.4143086,0.02778 1.8650723,-0.422983l 3.9020552,-3.902055z"/></svg>
