<svg xmlns="http://www.w3.org/2000/svg" viewBox="0 0 36 36"><path fill="#CCD6DD" d="m 25.472873,28.483295 c 2.006548,0 3.557397,0.9114 3.557397,3.007618 0,2.097688 -1.550849,3.009087 -3.282507,3.009087 H 10.524457 C 8.519379,34.5 6.97,33.588601 6.97,31.490913 c 0,-0.955499 0.592409,-1.777229 1.048109,-2.324068 3.782307,-4.511426 7.885073,-8.614192 11.34986,-13.628358 0.820259,-1.184819 1.594948,-2.598958 1.594948,-4.239476 0,-1.8683684 -1.412668,-3.5088869 -3.282507,-3.5088869 -5.242015,0 -2.734197,7.3838029 -7.110383,7.3838029 -2.187358,0 -3.328077,-1.549378 -3.328077,-3.328077 0,-5.7418143 5.105305,-10.3458502 10.71188,-10.3458502 5.608045,0 10.118001,3.6926367 10.118001,9.4800212 0,6.334225 -7.063344,12.625819 -10.93826,17.501804 h 8.339302 z"/></svg>