<svg xmlns="http://www.w3.org/2000/svg" viewBox="0 0 36 36"><path fill="#CCD6DD" d="M 8.913685,27.130219 C 6.699105,27.130219 5.75,25.640225 5.75,24.463685 5.75,23.469384 6.111564,22.92558 6.382737,22.475083 L 16.509443,4.1213388 c 0.994301,-1.8078198 2.259775,-2.6213387 4.609941,-2.6213387 2.622796,0 5.198939,1.6722333 5.198939,5.7864811 V 21.164414 h 0.768324 c 1.762624,0 3.163684,1.17654 3.163684,2.98436 0,1.80782 -1.40106,2.982903 -3.163684,2.982903 h -0.768324 v 3.843074 c 0,2.39682 -0.949105,3.525249 -3.254075,3.525249 -2.30497,0 -3.255534,-1.128429 -3.255534,-3.525249 V 27.131677 H 8.913685 Z M 19.808714,8.5519551 h -0.09039 l -6.10285,12.6110009 h 6.19324 z"/></svg>