<svg xmlns="http://www.w3.org/2000/svg" viewBox="0 0 36 36"><path fill="#CCD6DD" d="m 6.926,24.27752 c 0,-3.586328 1.97248,-6.231245 4.796713,-7.75688 -2.106967,-1.52419 -3.407011,-3.586328 -3.407011,-6.412007 0,-5.2464508 4.349869,-8.6086331 9.684531,-8.6086331 5.200175,0 9.730806,3.3173532 9.730806,8.6086331 0,2.510429 -1.25666,5.022305 -3.454732,6.412007 3.049824,1.525635 4.798159,4.305039 4.798159,7.75688 C 29.074466,30.51021 24.007332,34.5 17.998787,34.5 11.813818,34.5 6.926,30.284619 6.926,24.27752 Z m 6.994785,-0.449737 c 0,2.28773 1.344873,4.485802 4.079448,4.485802 2.556705,0 4.080894,-2.198072 4.080894,-4.485802 0,-2.824233 -1.613847,-4.48291 -4.080894,-4.48291 -2.598641,0 -4.079448,1.97248 -4.079448,4.48291 z m 0.851753,-13.001885 c 0,2.01731 1.167003,3.407012 3.227695,3.407012 2.062139,0 3.27397,-1.389702 3.27397,-3.407012 0,-1.9276509 -1.167002,-3.4084573 -3.27397,-3.4084573 -2.106967,0 -3.227695,1.4808064 -3.227695,3.4084573 z"/></svg>