<svg width="200" height="200" viewBox="0 0 200 200" fill="none" xmlns="http://www.w3.org/2000/svg">
<ellipse cx="100" cy="102.5" rx="100" ry="97.5" fill="url(#paint0_diamond_501_19)"/>
<ellipse cx="100" cy="97.5" rx="100" ry="97.5" fill="#052CC0"/>
<mask id="mask0_501_19" style="mask-type:alpha" maskUnits="userSpaceOnUse" x="0" y="0" width="200" height="195">
<ellipse cx="100" cy="97.5" rx="100" ry="97.5" fill="#052CC0"/>
</mask>
<g mask="url(#mask0_501_19)">
<g filter="url(#filter0_f_501_19)">
<path d="M154.424 -35.3325L111.29 41.3161L80.8071 86.6911C95.947 85.9267 85.1931 60.5369 128.193 70.8631C171.193 81.1892 121.293 128.023 90.9675 150.149C103.467 148.587 140.635 209.339 227.286 142.141C248.592 96.2338 259.246 -57.0037 154.424 -35.3325Z" fill="#FF43CA"/>
</g>
<g filter="url(#filter1_f_501_19)">
<path d="M85.9557 137.763L38.565 92.1741L11.5145 61.7405C9.00207 72.4378 29.7818 70.1019 13.4923 97.9479C-2.79716 125.794 -26.9759 81.5439 -37.029 55.9382C-38.4214 64.9586 -90.4634 78.5116 -58.826 152.484C-29.5234 176.636 80.5584 215.149 85.9557 137.763Z" fill="#20E4FF"/>
</g>
</g>
<g filter="url(#filter2_f_501_19)">
<path d="M86.3835 148.355C84.7661 148.355 83.2284 147.59 82.2643 146.274L62.1304 118.675H49V108.626H64.7278C66.3612 108.626 67.8909 109.399 68.847 110.707L85.2999 133.255L110.406 76.5267C111.218 74.6983 113.043 73.5161 115.059 73.5161H146.443V83.5645H118.381L91.0365 145.344C90.3035 146.999 88.7339 148.134 86.9173 148.323C86.75 148.347 86.5668 148.355 86.3835 148.355Z" fill="#060F8F"/>
</g>
<path d="M86.3835 138.839C84.7661 138.839 83.2284 138.074 82.2643 136.758L62.1304 109.159H49V99.1102H64.7278C66.3612 99.1102 67.8909 99.8826 68.847 101.191L85.2999 123.739L110.406 67.0106C111.218 65.1822 113.043 64 115.059 64H146.443V74.0484H118.381L91.0365 135.828C90.3035 137.483 88.7339 138.618 86.9173 138.807C86.75 138.831 86.5668 138.839 86.3835 138.839Z" fill="white"/>
<defs>
<filter id="filter0_f_501_19" x="30.8071" y="-87.4189" width="260.457" height="311.265" filterUnits="userSpaceOnUse" color-interpolation-filters="sRGB">
<feFlood flood-opacity="0" result="BackgroundImageFix"/>
<feBlend mode="normal" in="SourceGraphic" in2="BackgroundImageFix" result="shape"/>
<feGaussianBlur stdDeviation="25" result="effect1_foregroundBlur_501_19"/>
</filter>
<filter id="filter1_f_501_19" x="-119.011" y="5.93817" width="254.967" height="227.761" filterUnits="userSpaceOnUse" color-interpolation-filters="sRGB">
<feFlood flood-opacity="0" result="BackgroundImageFix"/>
<feBlend mode="normal" in="SourceGraphic" in2="BackgroundImageFix" result="shape"/>
<feGaussianBlur stdDeviation="25" result="effect1_foregroundBlur_501_19"/>
</filter>
<filter id="filter2_f_501_19" x="39" y="63.5161" width="117.443" height="94.8387" filterUnits="userSpaceOnUse" color-interpolation-filters="sRGB">
<feFlood flood-opacity="0" result="BackgroundImageFix"/>
<feBlend mode="normal" in="SourceGraphic" in2="BackgroundImageFix" result="shape"/>
<feGaussianBlur stdDeviation="5" result="effect1_foregroundBlur_501_19"/>
</filter>
<radialGradient id="paint0_diamond_501_19" cx="0" cy="0" r="1" gradientUnits="userSpaceOnUse" gradientTransform="translate(23.7062 -75.0908) rotate(51.6733) scale(254.178 10515.8)">
<stop stop-color="#18AAEB"/>
<stop offset="0.413031" stop-color="#1544F5"/>
<stop offset="0.804169" stop-color="#1D2664"/>
<stop offset="1" stop-color="#820B89"/>
</radialGradient>
</defs>
</svg>
