<svg xmlns:svg="http://www.w3.org/2000/svg" viewBox="0 0 36 36">
  <path
     fill="#FCDD09"
     d="M 35.697266 28.5 L 0.30273438 28.5 C 0.89727277 29.963507 2.3231365 31 4 31 L 32 31 C 33.676863 31 35.102727 29.963507 35.697266 28.5 z "/>
  <path
     fill="#DA121A"
     d="M 36 25.5 L 0 25.5 L 0 27 C 0 27.532137 0.11406333 28.03557 0.30273438 28.5 L 35.697266 28.5 C 35.885937 28.03557 36 27.532137 36 27 L 36 25.5 z " />
  <path
     fill="#FCDD09"
     d="M 0 10.5 L 0 25.5 L 36 25.5 L 36 10.5 L 0 10.5 z " />
  <path
     fill="#DA121A"
     d="M 35.697266 7.5 L 0.30273438 7.5 C 0.11406333 7.9644298 0 8.4678635 0 9 L 0 10.5 L 36 10.5 L 36 9 C 36 8.4678635 35.885937 7.9644298 35.697266 7.5 z " />
  <path
     fill="#FCDD09"
     d="M 4 5 C 2.3231365 5 0.89727277 6.0364934 0.30273438 7.5 L 35.697266 7.5 C 35.102727 6.0364934 33.676863 5 32 5 L 4 5 z " />
  <rect
     x="0"
     y="13.5"
     width="36"
     height="3"
     fill="#DA121A" />
  <rect
     x="0"
     y="19.5"
     width="36"
     height="3"
     fill="#DA121A" />
</svg>
