<svg xmlns="http://www.w3.org/2000/svg" viewBox="0 0 45 45" enable-background="new 0 0 45 45"><defs><clipPath id="a"><path d="M0 36h36V0H0v36z"/></clipPath></defs><g><g><g clip-path="url(#a)" transform="matrix(1.25 0 0 -1.25 0 45)"><g><path fill="#e6e7e8" d="M32 4c0-2.2-1.8-4-4-4H8C5.8 0 4 1.8 4 4v28c0 2.2 1.8 4 4 4h20c2.2 0 4-1.8 4-4V4z"/></g><g><path fill="#be1931" d="M19 23.58v-6.16c.73.08 1.44.17 2.12.26 1.33.18 2.3.3 2.88.33.05.12.1.24.17.38.2.64.46 1.64.8 3 .26 1.1.4 1.78.4 2.07 0 .35-.35.53-1.03.53-1.05 0-2.7-.12-4.98-.37-.13 0-.25 0-.36-.02m-7.26-6.7c1.82.1 3.55.2 5.2.34v6.13c-1.7-.2-3.34-.47-4.93-.8-.3-.1-.6-.2-.85-.23 0-.26.02-.53.06-.8.28-2 .46-3.55.54-4.63M8.4 24.1c.53 0 1-.07 1.4-.22.23-.07.44-.15.62-.23.8.04 1.6.12 2.45.23 1.1.13 2.46.3 4.08.5v2.3c0 1.63-.2 2.96-.57 4.02-.15.34-.23.55-.23.67 0 .33.13.5.4.5.7 0 1.36-.1 1.95-.27.7-.2 1.03-.46 1.03-.76 0-.12-.04-.35-.13-.7-.27-.7-.4-1.96-.4-3.8V24.6c1.3.14 2.73.28 4.27.44.7.04 1.38.16 2.03.36.46.1.73.13.83.13.26 0 .83-.22 1.72-.66.92-.55 1.4-.98 1.4-1.3 0-.23-.13-.48-.37-.72-.82-.88-1.4-1.8-1.76-2.78l-.8-1.7c-.13-.32-.28-.58-.43-.75.04-.03.08-.05.12-.07.5-.3.76-.6.76-.83 0-.2-.18-.3-.56-.33-1.7 0-3.23-.1-4.6-.28l-2.62-.2-.03-4.44c0-2-.07-3.62-.2-4.83-.13-1.37-.33-2.34-.6-2.92-.24-.48-.44-.73-.6-.73-.08 0-.23.27-.42.8-.14.62-.2 1.7-.2 3.2v8.76l-1.8-.17c-1.2-.12-2.1-.17-2.74-.17-.26 0-.48.02-.66.07-.04-.2-.1-.38-.2-.54-.13-.28-.27-.43-.43-.43-.18 0-.37.16-.55.47-.3.44-.44.9-.46 1.36l-.4 2.58c-.16 1.35-.34 2.3-.54 2.82-.1.55-.4 1.08-.9 1.6-.17.1-.26.17-.26.22 0 .35.13.53.4.53"/></g></g></g></g></svg>