<svg xmlns="http://www.w3.org/2000/svg" viewBox="0 0 45 45" enable-background="new 0 0 45 45"><defs><clipPath id="a"><path d="M0 36h36V0H0v36z"/></clipPath></defs><g><g><g clip-path="url(#a)" transform="matrix(1.25 0 0 -1.25 0 45)"><g><path fill="#e6e7e8" d="M32 4c0-2.2-1.8-4-4-4H8C5.8 0 4 1.8 4 4v28c0 2.2 1.8 4 4 4h20c2.2 0 4-1.8 4-4V4z"/></g><g><path fill="#dd2e44" d="M11 29c-2.52 0-4.58-1.87-4.93-4.3C6.8 25.5 7.84 26 9 26c2.2 0 4-1.8 4-4 0-2 1.5-2.2.7-2.93 2.43.35 2.3 2.4 2.3 4.93 0 2.76-2.24 5-5 5"/></g><g><path fill="#55acee" d="M23 22c0 2.2 1.8 4 4 4 1.16 0 2.2-.5 2.93-1.3-.35 2.43-2.4 4.3-4.93 4.3-2.76 0-5-2.24-5-5 0-2.52-.13-4.58 2.3-4.93-.8.73.7.93.7 2.93"/></g><g><path fill="#ffac33" d="M14 24c0 4.97 4 9 4 9s4-4.03 4-9-1.8-9-4-9-4 4.03-4 9"/></g><g><path fill="#553788" d="M11.7 14.93c.8-.73 1.3-1.77 1.3-2.93 0-2.2-1.8-4-4-4-1.16 0-2.2.5-2.93 1.3C6.42 6.86 8.47 5 11 5c2.76 0 5 2.24 5 5 0 2.52-1.87 4.58-4.3 4.93"/></g><g><path fill="#553788" d="M27 8c-2.2 0-4 1.8-4 4 0 1.16.5 2.2 1.3 2.93-2.43-.35-4.3-2.4-4.3-4.93 0-2.76 2.24-5 5-5 2.52 0 4.58 1.87 4.93 4.3C29.2 8.5 28.16 8 27 8"/></g><g><path fill="#9266cc" d="M14 12c0-4.97 3-9 4-9s4 4.03 4 9-1.8 9-4 9-4-4.03-4-9"/></g><g><path fill="#edbb9f" d="M13 19c0 3.87 3 4 5 4s5-.13 5-4-2.24-7-5-7-5 3.13-5 7"/></g><g><path fill="#662113" d="M17 19c0-.55-.45-1-1-1s-1 .45-1 1 .45 1 1 1 1-.45 1-1"/></g><g><path fill="#662113" d="M21 19c0-.55-.45-1-1-1s-1 .45-1 1 .45 1 1 1 1-.45 1-1"/></g><g><path fill="#662113" d="M18 14c1.1 0 2 .9 2 2h-4c0-1.1.9-2 2-2"/></g><g><path fill="#a0041e" d="M7 25c0-.55-.45-1-1-1s-1 .45-1 1 .45 1 1 1 1-.45 1-1"/></g><g><path fill="#269" d="M29 25c0-.55.45-1 1-1s1 .45 1 1-.45 1-1 1-1-.45-1-1"/></g><g><path fill="#dd2e44" d="M17 33c0 .55.45 1 1 1s1-.45 1-1-.45-1-1-1-1 .45-1 1"/></g></g></g></g></svg>