<svg xmlns="http://www.w3.org/2000/svg" viewBox="0 0 45 45" enable-background="new 0 0 45 45"><defs><clipPath id="a"><path d="M0 36h36V0H0v36z"/></clipPath></defs><g><g><g clip-path="url(#a)" transform="matrix(1.25 0 0 -1.25 0 45)"><g><path fill="#dd2e44" d="M36 4c0-2.2-1.8-4-4-4H4C1.8 0 0 1.8 0 4v28c0 2.2 1.8 4 4 4h28c2.2 0 4-1.8 4-4V4z"/></g><g><path fill="#fff" d="M24.02 18c0 3.87-2.02 7.36-6.02 7.36-4 0-6.02-3.5-6.02-7.36 0-3.9 1.96-7.36 6.02-7.36s6.02 3.46 6.02 7.36M7 18c0 6.65 4.47 11.77 11 11.77 6.43 0 11-5.28 11-11.77 0-6.62-4.44-11.78-11-11.78-6.5 0-11 5.16-11 11.78"/></g></g></g></g></svg>