<svg xmlns="http://www.w3.org/2000/svg" viewBox="0 0 45 45" enable-background="new 0 0 45 45"><defs><clipPath id="a"><path d="M0 36h36V0H0v36z"/></clipPath></defs><g><g><g clip-path="url(#a)" transform="matrix(1.25 0 0 -1.25 0 45)"><g><path fill="#dd2e44" d="M36 4c0-2.2-1.8-4-4-4H4C1.8 0 0 1.8 0 4v28c0 2.2 1.8 4 4 4h28c2.2 0 4-1.8 4-4V4z"/></g><g><path fill="#fff" d="M7.46 15.76h5.32l-2.6 8.12h-.06l-2.66-8.12zm-.3 10.17c.47 1.3 1.56 2.32 3 2.32 1.47 0 2.5-.98 2.98-2.32l5.5-15.23c.16-.45.2-.84.2-1.04 0-1.1-.88-1.85-1.92-1.85-1.17 0-1.76.63-2.04 1.47L14 12H6.28L5.4 9.3c-.27-.87-.85-1.5-2-1.5-1.12 0-2.07.85-2.07 1.97 0 .45.14.8.2.93l5.62 15.23z"/></g><g><path fill="#fff" d="M24.2 12h3.3c1.52 0 2.64.73 2.64 2.3 0 1.3-1 2.1-2.97 2.1H24.2V12zm0 8h2.18c1.38 0 2.27.8 2.27 2.22 0 1.3-1.03 2.08-2.27 2.08H24.2V20zM20 25.9c0 1.34.92 2.1 2.2 2.1h5.4c2.9 0 5.25-1.96 5.25-4.93 0-1.96-.8-3.27-2.6-4.1v-.07c2.38-.34 4.25-2.42 4.25-4.86C34.5 10.1 31.87 8 28 8h-5.76c-1.3 0-2.24.88-2.24 2.2v15.7z"/></g></g></g></g></svg>