<svg xmlns="http://www.w3.org/2000/svg" viewBox="0 0 45 45" enable-background="new 0 0 45 45"><defs><clipPath id="a"><path d="M0 36h36V0H0v36z"/></clipPath></defs><g><g><g clip-path="url(#a)" transform="matrix(1.25 0 0 -1.25 0 45)"><g><path fill="#f4900c" d="M36 4c0-4-4-4-4-4H4C0 0 0 4 0 4v28c0 4 4 4 4 4h28s4 0 4-4V4z"/></g><g><path fill="#fff" d="M1.5 25.6c-.15.38-.2.68-.2 1.1 0 1.26 1.1 2.16 2.3 2.16 1.02 0 1.65-.66 2.04-1.47l4.65-12.5 4.64 12.5c.4.8 1.02 1.46 2.04 1.46 1.2 0 2.3-.9 2.3-2.16 0-.42-.05-.72-.2-1.1L12.5 8.87c-.38-.96-.9-1.74-2.2-1.74-1.33 0-1.84.78-2.23 1.74L1.5 25.58z"/></g><g><path fill="#fff" d="M33.15 26.04c0-1.17-.78-2.22-2-2.22-1.24 0-2.2.9-4 .9-1.3 0-2.46-.7-2.46-1.95 0-3.1 10-1.1 10-8.85 0-4.3-3.53-6.96-7.67-6.96-2.3 0-7.3.54-7.3 3.36 0 1.17.8 2.13 2.02 2.13 1.4 0 3.1-1.17 5.04-1.17 1.97 0 3.05 1.1 3.05 2.58 0 3.54-10.02 1.4-10.02 8.37 0 4.2 3.45 6.8 7.44 6.8 1.68 0 5.88-.62 5.88-3"/></g></g></g></g></svg>