<svg xmlns="http://www.w3.org/2000/svg" viewBox="0 0 45 45" enable-background="new 0 0 45 45"><defs><clipPath id="a"><path d="M0 36h36V0H0v36z"/></clipPath></defs><g><g><g clip-path="url(#a)" transform="matrix(1.25 0 0 -1.25 0 45)"><g><path fill="#3b88c3" d="M36 4c0-2.2-1.8-4-4-4H4C1.8 0 0 1.8 0 4v28c0 2.2 1.8 4 4 4h28c2.2 0 4-1.8 4-4V4z"/></g><g><path fill="#fff" d="M2.5 25.36c0 1.2.78 1.87 1.8 1.87.46 0 1.2-.36 1.52-.8l7.6-10.14h.06v9.06c0 1.2.77 1.87 1.8 1.87s1.8-.67 1.8-1.87V11.73c0-1.2-.77-1.87-1.8-1.87-.46 0-1.18.36-1.5.8L6.15 20.67H6.1v-8.95c0-1.2-.76-1.87-1.8-1.87-1.02 0-1.8.67-1.8 1.87v13.63z"/></g><g><path fill="#fff" d="M31.9 20.13c1.52 0 2.12-.77 2.12-2.3 0-4.64-3.02-8.12-7.82-8.12-4.88 0-8.26 3.88-8.26 8.84 0 5 3.36 8.84 8.26 8.84 3.62 0 6.6-1.7 6.6-3.4 0-1.02-.65-1.67-1.5-1.67-1.62 0-1.96 1.76-5.1 1.76-3 0-4.52-2.6-4.52-5.52 0-2.92 1.47-5.52 4.52-5.52 1.9 0 4.08 1.06 4.08 3.8h-2.45c-.98 0-1.68.7-1.68 1.68 0 1 .77 1.63 1.68 1.63h4.08z"/></g></g></g></g></svg>