<svg xmlns="http://www.w3.org/2000/svg" viewBox="0 0 45 45" enable-background="new 0 0 45 45"><defs><clipPath id="a"><path d="M0 36h36V0H0v36z"/></clipPath></defs><g><g><g clip-path="url(#a)" transform="matrix(1.25 0 0 -1.25 0 45)"><g><path fill="#dd2e44" d="M36 4c0-2.2-1.8-4-4-4H4C1.8 0 0 1.8 0 4v28c0 2.2 1.8 4 4 4h28c2.2 0 4-1.8 4-4V4z"/></g><g><path fill="#fff" d="M12.8 29.45c2.27 0 6.68-.75 6.68-3.47 0-1.12-.78-2.08-1.93-2.08-1.27 0-2.14 1.08-4.74 1.08-3.83 0-5.82-3.25-5.82-7.03 0-3.7 2.02-6.86 5.83-6.86 2.6 0 3.67 1.3 4.94 1.3 1.4 0 2.05-1.4 2.05-2.1 0-3-4.7-3.67-7-3.67-6.28 0-10.66 5-10.66 11.4 0 6.46 4.35 11.42 10.67 11.42"/></g><g><path fill="#fff" d="M21.33 26.84c0 1.55 1 2.42 2.33 2.42s2.32-.87 2.32-2.42V11.28h5.52c1.58 0 2.27-1.18 2.23-2.23C33.67 8.02 32.87 7 31.5 7h-7.75c-1.52 0-2.42 1-2.42 2.54v17.3z"/></g></g></g></g></svg>