<svg xmlns="http://www.w3.org/2000/svg" viewBox="0 0 45 45" enable-background="new 0 0 45 45"><defs><clipPath id="a"><path d="M0 36h36V0H0v36z"/></clipPath></defs><g><g><g clip-path="url(#a)" transform="matrix(1.25 0 0 -1.25 0 45)"><g><path fill="#d52b1e" d="M4 31c-2.2 0-4-1.8-4-4V9c0-2.2 1.8-4 4-4h6v26H4z"/></g><g><path fill="#d52b1e" d="M32 31h-6V5h6c2.2 0 4 1.8 4 4v18c0 2.2-1.8 4-4 4"/></g><path fill="#eee" d="M10 5h16v26H10V5z"/><g><path fill="#d52b1e" d="M18.62 13.9c1.2-.15 2.27-.28 3.46-.4l-.3 1c-.05.16.02.36.16.46l3.48 2.84-.72.34c-.32.1-.23.3-.12.72l.53 1.93-2-.43c-.2-.03-.34.1-.37.2l-.26.92-1.6-1.8c-.22-.3-.68-.3-.54.38L21 23.7l-.9-.46c-.26-.15-.52-.17-.66.08l-1.26 2.37v-.07.06L16.9 23.3c-.13-.25-.4-.23-.65-.08l-.9.47.67-3.62c.14-.67-.32-.67-.54-.38l-1.6 1.8-.26-.92c-.03-.12-.16-.24-.36-.2l-2.02.4.53-1.92c.1-.43.2-.6-.12-.72l-.72-.34 3.48-2.84c.15-.1.22-.3.17-.47l-.3-1c1.2.12 2.27.25 3.47.4.1 0 .17-.07.17-.2l-.2-3.7h.95l-.2 3.7c0 .13.06.2.17.2"/></g></g></g></g></svg>