<svg xmlns="http://www.w3.org/2000/svg" viewBox="0 0 45 45" enable-background="new 0 0 45 45"><defs><clipPath id="a"><path d="M0 36h36V0H0v36z"/></clipPath></defs><g><g><g clip-path="url(#a)" transform="matrix(1.25 0 0 -1.25 0 45)"><g><path fill="#003893" d="M32 31H4c-2.2 0-4-1.8-4-4V17h36v10c0 2.2-1.8 4-4 4"/></g><path fill="#eee" d="M0 15h36v2H0v-2z"/><path fill="#eee" d="M0 10h36v2H0v-2z"/><g><path fill="#cf2027" d="M0 15v-3h36v3H0z"/></g><g><path fill="#003893" d="M4 5h28c2.2 0 4 1.8 4 4v1H0V9c0-2.2 1.8-4 4-4"/></g><g><path fill="#f7d116" d="M14.35 20.1l.76.55h-.93l-.3.9-.3-.9h-.93l.76-.55-.3-.9.78.55.76-.55-.3.9z"/></g><g><path fill="#f7d116" d="M20.53 15.6l.76.56h-.95l-.3.9-.28-.9h-.95l.76-.55-.3-.9.78.56.76-.55-.3.9z"/></g><g><path fill="#f7d116" d="M8.17 15.6l.76.56H8l-.3.9-.3-.9h-.94l.76-.55-.3-.9.77.56.76-.55-.3.9z"/></g><g><path fill="#f7d116" d="M8.17 11.6l.76.54H8l-.3.9-.3-.9h-.94l.76-.55-.3-.9.77.55.76-.56-.3.9z"/></g><g><path fill="#f7d116" d="M20.53 11.6l.76.54h-.95l-.3.9-.28-.9h-.95l.76-.55-.3-.9.78.55.76-.56-.3.9z"/></g><g><path fill="#f7d116" d="M14.17 7.65l-.3.9-.3-.9h-.93l.76-.55-.3-.9.77.55.77-.55-.3.9.77.55h-.93z"/></g><g><path fill="#f7d116" d="M18.17 8.34l.76.55H18l-.3.9-.3-.9h-.94l.76-.56-.3-.9.78.55.76-.56-.3.9z"/></g><g><path fill="#f7d116" d="M18.17 18.84l.76.56H18l-.3.9-.3-.9h-.94l.76-.56-.3-.9.78.56.76-.56-.3.9z"/></g><g><path fill="#f7d116" d="M9.58 8.34l-.76.55h.94l.3.9.3-.9h.93l-.77-.56.3-.9-.78.55-.76-.56.28.9z"/></g><g><path fill="#f7d116" d="M9.58 18.84l-.76.56h.94l.3.9.3-.9h.93l-.77-.56.3-.9-.78.56-.76-.56.28.9z"/></g></g></g></g></svg>