<svg xmlns="http://www.w3.org/2000/svg" viewBox="0 0 45 45" enable-background="new 0 0 45 45"><defs><clipPath id="a"><path d="M0 36h36V0H0v36z"/></clipPath></defs><g><g><g clip-path="url(#a)" transform="matrix(1.25 0 0 -1.25 0 45)"><g><path fill="#eee" d="M32 31H20.5V20.5H36V27c0 2.2-1.8 4-4 4"/></g><g><path fill="#e8112d" d="M20.5 31h-5V20.5H0v-5h15.5V5h5v10.5H36v5H20.5V31z"/></g><g><path fill="#e8112d" d="M28.9 26.4c.05.64.12 1.26.24 1.87-.6-.07-1.2-.07-1.78 0 .12-.6.2-1.23.23-1.86-.64.05-1.26.12-1.87.24.07-.6.07-1.2 0-1.78.6.12 1.23.2 1.86.23-.05-.64-.12-1.26-.24-1.87.6.07 1.2.07 1.78 0-.12.6-.2 1.23-.23 1.86.64-.05 1.26-.12 1.87-.24-.07.6-.07 1.2 0 1.78-.6-.12-1.23-.2-1.86-.23"/></g><g><path fill="#eee" d="M15.5 31H4c-2.2 0-4-1.8-4-4v-6.5h15.5V31z"/></g><g><path fill="#e8112d" d="M8.4 26.4c.05.64.12 1.26.24 1.87-.6-.07-1.2-.07-1.78 0 .12-.6.2-1.23.23-1.86-.64.05-1.26.12-1.87.24.07-.6.07-1.2 0-1.78.6.12 1.23.2 1.86.23-.05-.64-.12-1.26-.24-1.87.6.07 1.2.07 1.78 0-.12.6-.2 1.23-.23 1.86.64-.05 1.26-.12 1.87-.24-.07.6-.07 1.2 0 1.78-.6-.12-1.23-.2-1.86-.23"/></g><g><path fill="#eee" d="M36 9v6.5H20.5V5H32c2.2 0 4 1.8 4 4"/></g><g><path fill="#e8112d" d="M28.9 9.6c.05-.64.12-1.26.24-1.87-.6.07-1.2.07-1.78 0 .12.6.2 1.23.23 1.86-.64-.05-1.26-.12-1.87-.24.07.6.07 1.2 0 1.78.6-.12 1.23-.2 1.86-.23-.05.64-.12 1.26-.24 1.87.6-.07 1.2-.07 1.78 0-.12-.6-.2-1.23-.23-1.86.64.05 1.26.12 1.87.24-.07-.6-.07-1.2 0-1.78-.6.12-1.23.2-1.86.23"/></g><g><path fill="#eee" d="M15.5 15.5H0V9c0-2.2 1.8-4 4-4h11.5v10.5z"/></g><g><path fill="#e8112d" d="M8.4 9.6c.05-.64.12-1.26.24-1.87-.6.07-1.2.07-1.78 0 .12.6.2 1.23.23 1.86-.64-.05-1.26-.12-1.87-.24.07.6.07 1.2 0 1.78.6-.12 1.23-.2 1.86-.23-.05.64-.12 1.26-.24 1.87.6-.07 1.2-.07 1.78 0-.12-.6-.2-1.23-.23-1.86.64.05 1.26.12 1.87.24-.07-.6-.07-1.2 0-1.78-.6.12-1.23.2-1.86.23"/></g></g></g></g></svg>