<svg xmlns="http://www.w3.org/2000/svg" viewBox="0 0 45 45" enable-background="new 0 0 45 45"><defs><clipPath id="a"><path d="M4 31c-2.2 0-4-1.8-4-4V9c0-2.2 1.8-4 4-4h28c2.2 0 4 1.8 4 4v18c0 2.2-1.8 4-4 4H4z"/></clipPath><clipPath id="b"><path d="M0 36h36V0H0v36z"/></clipPath></defs><g><g><g clip-path="url(#a)" transform="matrix(1.25 0 0 -1.25 0 45)"><g><path fill="#eee" d="M36 9c0-2.2-1.8-4-4-4H4C1.8 5 0 6.8 0 9v18c0 2.2 1.8 4 4 4h28c2.2 0 4-1.8 4-4V9z"/></g></g></g><g><g clip-path="url(#b)" transform="matrix(1.25 0 0 -1.25 0 45)"><g><path fill="#f4900c" fill-rule="evenodd" d="M25.8 24.87c-.04-.1-.06-.18-.08-.28-.02-.07-.06-.1-.13-.12-.35 0-.57-.25-.83-.4-.08-.06-.1-.16-.15-.25-.02-.07-.06-.14-.13-.16-.28-.07-.45-.26-.6-.47-.04-.04-.08-.07-.13-.07-.1-.02-.17-.06-.25-.1-.13-.06-.27-.1-.38-.18-.28-.2-.54-.4-.72-.7-.03-.04-.04-.1-.06-.17-.03-.12-.1-.17-.22-.2-.08 0-.17 0-.25 0-.2.05-.33-.06-.46-.17 0 0-.02 0-.02-.03 0-.1-.07-.17-.14-.25-.07-.08-.1-.2-.1-.3-.06-.35.04-.63.28-.86.13-.12.25-.24.3-.42 0-.05.04-.08.08-.1.06-.05.12-.1.18-.14.03-.03.08-.05.1-.08 0-.16.15-.23.23-.34.05-.07.07-.15.05-.23 0-.03 0-.06.04-.1-.03 0-.05 0-.06 0-.1.1-.24.1-.35.16-.04.04-.1.03-.14.04-.14 0-.27.05-.4-.04-.06-.04-.14-.02-.2 0-.06 0-.08-.02-.07-.08.02-.08 0-.13-.1-.17-.07-.05-.15-.05-.23 0-.08.06-.15.12-.23.17-.1.06-.18.1-.3.1-.14 0-.3 0-.45 0-.25-.05-.5-.23-.5-.55 0-.14 0-.3 0-.43 0-.05 0-.08-.06-.1-.1-.06-.13-.15-.16-.24 0-.05-.03-.07-.1-.06-.24.07-.38 0-.53-.2-.04-.06-.1-.1-.16-.1-.18-.04-.38-.1-.52-.26 0-.02-.03 0-.05-.02-.1-.02-.18-.05-.25-.12-.02-.03-.04-.03-.07-.03-.03.02-.08 0-.1-.02-.05-.07-.1-.07-.2-.04-.05.02-.13 0-.2 0-.02 0-.04 0-.06-.04-.1-.1-.25-.15-.38-.1-.26.06-.52.08-.77-.05-.1-.04-.2-.08-.28-.12-.2-.1-.38-.26-.45-.5-.05-.12 0-.24.08-.36.03-.05.08-.1.1-.15-.2 0-.4.03-.58.04-.04 0-.05 0-.05.05.02.12.02.23-.04.33-.1.16-.2.3-.37.4-.08.06-.2.05-.28.02-.1-.02-.18-.04-.26 0-.06.03-.1 0-.15-.03-.1-.1-.2-.13-.34-.1-.02 0-.05 0-.07-.02-.1-.06-.17-.05-.25 0-.14.05-.28.1-.43.15-.07.02-.12.06-.16.12-.08.1-.2.17-.33.15-.06 0-.13 0-.17.06-.02.03-.06.02-.1.02-.08 0-.17 0-.2.08-.1.15-.25.22-.4.3-.05.03-.07.08-.1.14-.06.2-.1.4-.15.6 0 .06-.07.1-.13.12-.1.04-.2.1-.2.23 0 0 0 .02 0 .03-.07.08-.15.16-.06.27.03.03-.02.1-.04.14-.04.06-.05.12-.03.2.03.1.02.22 0 .34 0 .03-.02.06-.05.1-.08.07-.13.17-.17.27-.06.15 0 .27.05.4.02.05.07.03.08 0 .06-.2.26-.28.4-.4.1-.1.3-.1.46-.03.1.06.2.15.3.2.2.1.3.28.35.48.04.14.14.24.23.34 0 0 .02 0 .03 0 .13-.02.2.07.3.1.28.13.55.1.82 0 .22-.08.42-.18.62-.28.1-.06.2-.06.32 0 .3.16.48.4.5.74.02.23.03.46.04.7 0 .16-.05.32-.07.48 0 .14 0 .15.12.1.26-.13.54-.2.8-.28.12-.04.24-.02.35 0 .1.04.18.04.27 0 .07-.05.15-.04.23 0 .1.05.17.05.24-.02.08-.08.18-.1.3-.1.16.04.34 0 .52 0 .24-.04.48-.1.72-.05.1.02.22-.02.32 0 .24.05.5.05.7.17.06.03.1.03.15.02.27-.04.5.04.68.22.04.05.1.1.16.13.08.06.16.1.3.07.16-.04.34 0 .5.05.4.1.77.28 1.14.48.2.1.37.24.6.3.06 0 .1.05.15.1.08.1.16.2.24.3.03.05.07.07.12.06.17 0 .32.04.47.13.05.03.1.06.16.07.16.04.3.14.38.28.1.13.2.2.36.2.08 0 .16 0 .18.1 0 .04.04.06.07.06.3-.03.56.15.83.27.05.04.1.06.14.1 0-.02 0-.02.02-.03"/></g><g><path fill="#5c913b" fill-rule="evenodd" d="M12.97 13.85c.02-.06 0-.07-.07-.05-.35.1-.67.26-.9.57-.06.1-.1.2-.14.33 0 .06 0 .1.07.07.4-.1.74-.32.97-.68.05-.08.07-.16.07-.25"/></g><g><path fill="#5c913b" fill-rule="evenodd" d="M21.44 13.78c-.02.1 0 .22.07.3.24.37.57.6.98.7.08 0 .08-.03.07-.08-.05-.23-.2-.42-.37-.57-.2-.18-.46-.28-.74-.35"/></g><g><path fill="#5c913b" fill-rule="evenodd" d="M22.4 13.55c0-.04-.04-.07-.07-.1-.3-.26-.63-.4-1.03-.37-.1 0-.2.05-.28.12-.05.03-.04.05 0 .08.14.13.32.2.5.26.26.07.52.08.78.04.03 0 .06 0 .1-.03"/></g><g><path fill="#5c913b" fill-rule="evenodd" d="M12.44 13.6c.28 0 .58-.06.86-.24.05-.04.13-.07.12-.12 0-.06-.08-.1-.14-.1-.17-.1-.34-.08-.52-.04-.26.06-.5.17-.7.37 0 .02-.05.05-.04.08.02.03.06.02.1.03.08.02.18.02.32.02"/></g><g><path fill="#5c913b" fill-rule="evenodd" d="M13.53 14c0-.1 0-.2-.04-.28-.03-.06-.06-.06-.1-.03-.14.1-.23.24-.3.4-.08.27-.13.54-.06.82.03.1.04.1.1.03.26-.27.37-.6.4-.96"/></g><g><path fill="#5c913b" fill-rule="evenodd" d="M20.88 14.02c.03.33.13.66.38.93.08.08.1.07.1-.03.1-.4 0-.8-.24-1.13-.04-.06-.1-.14-.16-.13-.06.02-.06.12-.07.2-.02.03-.02.08-.02.15"/></g><g><path fill="#5c913b" fill-rule="evenodd" d="M18.65 13.4c.03-.55-.23-.95-.6-1.3-.12.43.1 1.1.6 1.3"/></g><g><path fill="#5c913b" fill-rule="evenodd" d="M16.37 12.08c-.36.35-.63.73-.6 1.24 0 .07 0 .08.07.04.35-.2.5-.53.55-.92 0-.1 0-.22-.03-.36"/></g><g><path fill="#5c913b" fill-rule="evenodd" d="M20 14c.06-.2.06-.4.02-.6-.05-.23-.14-.45-.33-.62-.1-.08-.1-.08-.16.03-.06.16-.05.3 0 .46.05.27.2.5.4.68 0 .02 0 .03.03.04 0 0 0 0 .03 0"/></g><g><path fill="#5c913b" fill-rule="evenodd" d="M14.4 14c.34-.23.57-.77.5-1.1-.02-.07-.03-.16-.1-.18-.04 0-.1.07-.14.12-.28.34-.35.72-.25 1.16"/></g><g><path fill="#5c913b" fill-rule="evenodd" d="M20.03 12.57c.33-.02.6-.14.82-.4.07-.07.07-.08-.04-.1-.26-.1-.5-.02-.75.1-.14.06-.26.14-.37.24-.04.05-.04.08.02.1.1.04.2.07.33.07"/></g><g><path fill="#5c913b" fill-rule="evenodd" d="M14.4 12.57c.1 0 .2-.02.3-.06.08-.03.1-.04 0-.1-.2-.18-.43-.3-.7-.35-.14-.03-.27-.03-.4 0-.1.04-.1.05-.04.13.16.2.38.3.62.37.07 0 .14.02.2.02"/></g><g><path fill="#5c913b" fill-rule="evenodd" d="M20.17 11.74c-.38-.2-.94-.17-1.22.25-.04.06-.03.08.04.1.45.1.83-.04 1.17-.36"/></g><g><path fill="#5c913b" fill-rule="evenodd" d="M14.24 11.74c.2.22.46.34.76.38.13.02.27 0 .4-.02.1-.03.1-.03.05-.1-.2-.3-.46-.4-.78-.37-.15 0-.3.03-.43.1"/></g><g><path fill="#5c913b" fill-rule="evenodd" d="M15.64 12.66c0-.1-.02-.16-.04-.23-.03-.06-.05-.06-.1-.02-.16.15-.27.32-.35.52-.1.2-.15.4-.1.64 0 .02 0 .06 0 .07.05 0 .07-.02.1-.04.2-.23.4-.47.47-.77 0-.04 0-.07.02-.1 0-.04 0-.06 0-.07"/></g><g><path fill="#5c913b" fill-rule="evenodd" d="M18.77 12.65c0 .15.04.3.1.42.1.2.25.37.42.53.03.04.06.05.07-.02.03-.16 0-.3-.04-.46-.07-.26-.2-.5-.4-.7-.08-.06-.1-.06-.12.04-.02.06-.03.13-.03.2"/></g><g><path fill="#5c913b" fill-rule="evenodd" d="M19.43 11.26c-.2-.02-.4-.03-.6.03-.27.07-.44.26-.56.5-.02.04-.02.06.03.06.47 0 .84-.2 1.13-.57 0 0 0-.02 0-.03"/></g><g><path fill="#5c913b" fill-rule="evenodd" d="M14.96 11.25c.06.12.14.2.23.27.25.2.54.34.88.34.06 0 .1 0 .05-.07-.17-.35-.44-.54-.83-.55-.1 0-.22 0-.34 0"/></g><g><path fill="#5c913b" fill-rule="evenodd" d="M20.36 13.18c-.14.2-.15.4-.1.6.06.24.17.44.33.62.03.05.05.04.08 0 .07-.15.08-.3.06-.43-.05-.3-.18-.56-.38-.8"/></g><g><path fill="#5c913b" fill-rule="evenodd" d="M13.77 14.44c.3-.27.56-.9.3-1.25-.36.26-.52.97-.3 1.24"/></g><g><path fill="#5c913b" fill-rule="evenodd" d="M13.27 12.57c-.14 0-.3.02-.45.12-.1.04-.1.05 0 .12.17.16.38.18.6.15.18-.03.34-.08.5-.12.06-.02.06-.04.03-.08-.07-.08-.18-.12-.28-.15-.12-.03-.25-.05-.4-.05"/></g><g><path fill="#5c913b" fill-rule="evenodd" d="M21.1 12.57c-.17 0-.33.03-.5.1 0 0-.02.02-.04.03-.05.02-.12.06-.12.1 0 .07.1.06.13.07.22.06.44.12.66.1.14 0 .27-.06.37-.15.08-.07.08-.08 0-.13-.16-.1-.33-.12-.5-.13"/></g><g><path fill="#5c913b" fill-rule="evenodd" d="M18.03 11.45c-.25.06-.5.12-.75.18-.05 0-.1 0-.15 0-.25-.07-.5-.12-.75-.18.15.12.33.2.55.27-.28.1-.54.18-.82.28.1.02.18 0 .24-.03.27-.07.53-.13.8-.18.1-.03.22 0 .32.03.32.06.64.14.96.22-.3-.12-.6-.22-.94-.33.2-.07.4-.14.55-.27"/></g><g><path fill="#ec8001" fill-rule="evenodd" d="M25.77 24.9s.02 0 .03-.02c-.02 0-.02 0-.03 0"/></g></g></g></g></svg>