<svg xmlns="http://www.w3.org/2000/svg" viewBox="0 0 45 45" enable-background="new 0 0 45 45"><defs><clipPath id="a"><path d="M0 36h36V0H0v36z"/></clipPath></defs><g><g><g clip-path="url(#a)" transform="matrix(1.25 0 0 -1.25 0 45)"><g><path fill="#da1c0b" d="M36 9c0-2.2-1.8-4-4-4H4C1.8 5 0 6.8 0 9v5h36V9z"/></g><g><path fill="#eee" d="M32 31H4c-2.2 0-4-1.8-4-4V13h36v14c0 2.2-1.8 4-4 4"/></g><g><path fill="#da1c0b" d="M14.45 25.64v-.78h-.78v.78h-1.55v-.78h-.78v.78h-.78v-1.56h.78v-3.9h3.1v3.9h.8v1.56h-.8z"/></g><g><path fill="#da1c0b" d="M15.24 21.74v-.77h-.78v.77h-.78v-.77h-1.55v.77h-.78v-.77h-.78v.77H9.8V20.2h.77v-4.27l-.78-.4v-.8H16v.8l-.78.4v4.26h.78v1.54h-.78z"/></g><path d="M13.67 20.97h-1.55v1.55h1.55v-1.55z"/><g><path d="M13.67 22.52c0-.43-.35-.77-.78-.77-.44 0-.78.34-.78.77s.34.78.77.78c.42 0 .77-.35.77-.78"/></g><g><path d="M13.67 17.62c0 .62-.15 1.13-.78 1.13s-.78-.5-.78-1.13V16.3h1.55v1.32z"/></g><g><path fill="#da1c0b" d="M24.9 25.64v-.78h-.77v.78h-1.55v-.78h-.78v.78h-.78v-1.56h.78v-3.9h3.1v3.9h.8v1.56h-.8z"/></g><g><path fill="#da1c0b" d="M25.7 21.74v-.77h-.8v.77h-.77v-.77h-1.55v.77h-.78v-.77h-.78v.77h-.78V20.2h.78v-4.27l-.78-.4v-.8H26.46v.8l-.78.4v4.26h.77v1.54h-.78z"/></g><path d="M24.13 20.97h-1.55v1.55h1.55v-1.55z"/><g><path d="M24.13 22.52c0-.43-.35-.77-.78-.77-.43 0-.78.34-.78.77s.35.78.78.78c.43 0 .78-.35.78-.78"/></g><g><path d="M24.13 17.62c0 .62-.16 1.13-.78 1.13s-.78-.5-.78-1.13V16.3h1.56v1.32z"/></g><g><path fill="#da1c0b" d="M20 28v-1h-1v1h-2v-1h-1v1h-1v-2h1v-5h4v5h1v2h-1z"/></g><g><path fill="#da1c0b" d="M21 23v-1h-1v1h-1v-1h-2v1h-1v-1h-1v1h-1v-9h8v9h-1z"/></g><path d="M19 22h-2v2h2v-2z"/><g><path d="M19 24c0-.55-.45-1-1-1s-1 .45-1 1 .45 1 1 1 1-.45 1-1"/></g><g><path d="M19.44 17.7c0 .8-.64 1.45-1.44 1.45-.8 0-1.44-.65-1.44-1.45v-2.17h2.88v2.17z"/></g><g><path fill="#fff100" d="M18.16 12.65v-.13l1.08-1.08-1.08-1.08V5.64h-.35v.53h-1.18v.7h.35v-.35h.84v1.05h-.83V7.2h-.35v.7h1.2v2.46l-1.1 1.08 1.1 1.07v.15h.34z"/></g><g><path fill="#da1c0b" d="M18 10.7l.74.74-.75.75-.76-.76.75-.75z"/></g><g><path fill="#fff100" d="M18.26 12.65c0-.2-.1-.38-.25-.38-.13 0-.24.17-.24.38V14c0 .2.1.38.25.38s.26-.17.26-.38v-1.35zm-.1 2.03h-.3c-.25 0-.45-.3-.45-.67v-1.33c0-.37.2-.67.45-.67h.3c.24 0 .44.3.44.67V14c0 .38-.2.68-.45.68"/></g><g><path fill="#fff100" d="M19.33 15.74c-.1.06-.25.05-.32 0l-1-.92-1 .9c-.08.07-.22.08-.33.02-.1-.06-.14-.16-.07-.22l1.23-1.1c.04-.04.1-.06.17-.05.07 0 .13 0 .17.04l1.23 1.12c.07.06.03.16-.07.22"/></g></g></g></g></svg>