<svg xmlns="http://www.w3.org/2000/svg" viewBox="0 0 45 45" enable-background="new 0 0 45 45"><defs><clipPath id="a"><path d="M0 36h36V0H0v36z"/></clipPath></defs><g><g><g clip-path="url(#a)" transform="matrix(1.25 0 0 -1.25 0 45)"><g><path fill="#007fff" d="M4 5h28c2.2 0 4 1.8 4 4v15.75L3.22 5.08c.25-.05.5-.08.78-.08"/></g><g><path fill="#007fff" d="M9.63 19.98l-3.06 2.34-3.06-2.34 1.18 3.78-3.06 2.34H5.4l1.17 3.78 1.17-3.78h3.78l-3.06-2.34 1.17-3.78zM32 31H4c-2.2 0-4-1.8-4-4V11.25l32.78 19.67c-.25.05-.5.08-.78.08"/></g><g><path fill="#f7d618" d="M7.74 26.1l-1.17 3.78L5.4 26.1H1.62l3.06-2.34-1.17-3.78 3.07 2.34 3.06-2.34-1.17 3.78 3.06 2.34H7.74z"/></g><g><path fill="#f7d618" d="M3.22 5.08L36 24.75v1.35L1.87 5.62c.4-.25.86-.44 1.35-.54"/></g><g><path fill="#f7d618" d="M32.78 30.92L0 11.25V9.9l34.13 20.48c-.4.25-.86.44-1.35.54"/></g><g><path fill="#ce1021" d="M34.13 30.38L0 9.9V9c0-1.42.75-2.67 1.87-3.38L36 26.1v.9c0 1.43-.75 2.67-1.87 3.38"/></g></g></g></g></svg>