<svg xmlns="http://www.w3.org/2000/svg" viewBox="0 0 45 45" enable-background="new 0 0 45 45"><defs><clipPath id="a"><path d="M4 31c-2.2 0-4-1.8-4-4V9c0-2.2 1.8-4 4-4h28c2.2 0 4 1.8 4 4v18c0 2.2-1.8 4-4 4H4z"/></clipPath></defs><g><g><g clip-path="url(#a)" transform="matrix(1.25 0 0 -1.25 0 45)"><path fill="#eee" d="M0 31h36V5H0v26z"/><g><path fill="#e8112d" d="M21 5h-6v10H0v6h15v10h6V21h15v-6H21V5z"/></g><g><path fill="#f9dd16" d="M19 26.5l1 1h-4l1-1v-17l-1-1h4l-1 1v17z"/></g><g><path fill="#f9dd16" d="M27.5 19h-19l-1 1v-4l1 1h19l1-1v4l-1-1z"/></g></g></g></g></svg>