<svg xmlns="http://www.w3.org/2000/svg" viewBox="0 0 45 45" enable-background="new 0 0 45 45"><defs><clipPath id="a"><path d="M0 36h36V0H0v36z"/></clipPath></defs><g><g><g clip-path="url(#a)" transform="matrix(1.25 0 0 -1.25 0 45)"><g><path fill="#d7141a" d="M1.38 6.03C2.08 5.37 3 5 4 5h28c2.2 0 4 1.8 4 4.5V18H17.5L1.38 6.03z"/></g><g><path fill="#eee" d="M32 31H4c-1.02 0-1.94-.38-2.65-1L17.5 18H36v9c0 2.2-1.8 4-4 4"/></g><g><path fill="#11457e" d="M1.38 6.03L17.5 18 1.35 30C.53 29.25 0 28.2 0 27V9.5c0-1.48.54-2.68 1.38-3.47"/></g></g></g></g></svg>