<svg xmlns="http://www.w3.org/2000/svg" viewBox="0 0 45 45" enable-background="new 0 0 45 45"><defs><clipPath id="a"><path d="M0 36h36V0H0v36z"/></clipPath></defs><g><g><g clip-path="url(#a)" transform="matrix(1.25 0 0 -1.25 0 45)"><g><path fill="#eee" d="M9.44 31H4c-2.2 0-4-1.8-4-4v-5.5h9.44V31z"/></g><g><path fill="#eee" d="M36 21.5V27c0 2.2-1.8 4-4 4H16.5v-9.5H36z"/></g><g><path fill="#0065bd" d="M36 20v1.5H16.5V31H15V20h21z"/></g><g><path fill="#0065bd" d="M11 31H9.44v-9.5H0V20h11v11z"/></g><g><path fill="#eee" d="M0 14.5V9c0-2.2 1.8-4 4-4h5.44v9.5H0z"/></g><g><path fill="#eee" d="M16.5 14.5V5H32c2.2 0 4 1.8 4 4v5.5H16.5z"/></g><g><path fill="#ed2939" d="M15 20v11h-4V20H0v-4h11V5h4v11h21v4H15z"/></g><g><path fill="#0065bd" d="M15 16V5h1.5v9.5H36V16H15z"/></g><g><path fill="#0065bd" d="M11 16H0v-1.5h9.44V5H11v11z"/></g></g></g></g></svg>