<svg xmlns="http://www.w3.org/2000/svg" viewBox="0 0 45 45" enable-background="new 0 0 45 45"><defs><clipPath id="a"><path d="M4 31c-2.2 0-4-1.8-4-4V9c0-2.2 1.8-4 4-4h28c2.2 0 4 1.8 4 4v18c0 2.2-1.8 4-4 4H4z"/></clipPath></defs><g><g><g clip-path="url(#a)" transform="matrix(1.25 0 0 -1.25 0 45)"><path fill="#eeeded" d="M0 5h36v26H0V5z"/><g><path fill="#012a87" d="M36 5H0l36 26V5z"/></g><g><path fill="#f9d90f" d="M0 31V20.17L13.25 31H0z"/></g><g><path d="M11 15.95c-2.67 0-4.84 2.17-4.84 4.84 0 2.66 2.17 4.84 4.84 4.84s4.84-2.18 4.84-4.85c0-2.68-2.17-4.85-4.84-4.85m5.5 4.16l1.2.7-1.2.68C16.2 24 14.2 26 11.7 26.3l-.7 1.2-.7-1.2C7.8 26 5.8 24 5.5 21.5l-1.2-.7 1.2-.67c.3-2.5 2.3-4.5 4.8-4.82l.7-1.2.7 1.2c2.5.3 4.5 2.3 4.8 4.83"/></g><g><path fill="#dc171d" d="M12.9 20.8l.97 1.65h-1.9L11 24.1l-.96-1.65h-1.9l.95-1.66-.97-1.66h1.9l.97-1.66.96 1.66h1.9l-.95 1.65z"/></g></g></g></g></svg>