<svg xmlns="http://www.w3.org/2000/svg" viewBox="0 0 45 45" enable-background="new 0 0 45 45"><defs><clipPath id="a"><path d="M0 36h36V0H0v36z"/></clipPath></defs><g><g><g clip-path="url(#a)" transform="matrix(1.25 0 0 -1.25 0 45)"><g><path fill="#068241" d="M32 31H9v-9h27v5c0 2.2-1.8 4-4 4"/></g><path fill="#eee" d="M9 14h27v8H9v-8z"/><g><path fill="#141414" d="M9 5h23c2.2 0 4 1.8 4 4v5H9V5z"/></g><g><path fill="#ec2028" d="M4 31c-2.2 0-4-1.8-4-4V9c0-2.2 1.8-4 4-4h5v26H4z"/></g></g></g></g></svg>