<svg xmlns="http://www.w3.org/2000/svg" viewBox="0 0 45 45" enable-background="new 0 0 45 45"><defs><clipPath id="a"><path d="M0 36h36V0H0v36z"/></clipPath></defs><g><g><g clip-path="url(#a)" transform="matrix(1.25 0 0 -1.25 0 45)"><g><path fill="#0021ad" d="M36 9c0-2.2-1.8-4-4-4H4C1.8 5 0 6.8 0 9v18c0 2.2 1.8 4 4 4h28c2.2 0 4-1.8 4-4V9z"/></g><g><path fill="#1b8a42" d="M34.62 6c.84.73 1.38 1.8 1.38 3v18c0 2.2-1.8 4-4 4H4c-1 0-1.9-.38-2.62-1L34.62 6z"/></g><g><path fill="#fff" d="M8.52 13.74l.17-.6h.58l-.47-.34.18-.57-.46.36-.46-.35.17.55-.47.35h.57l.2.6z"/></g><g><path fill="#fff" d="M7 20.24l-.7-.63.08.94-.92.14.77.52-.46.8.88-.27.34.86.33-.87.88.27-.45-.8.76-.52-.9-.14.07-.93-.68.64z"/></g><g><path fill="#fff" d="M3.37 14.93l-.68-.63.05.92-.9.14.75.52-.46.8.9-.26.33.86.33-.86.9.27-.47-.82.76-.52-.92-.14.06-.92-.67.63z"/></g><g><path fill="#fff" d="M10.48 15.37l-.68-.63.06.92-.9.14.75.52-.45.8.9-.26.33.85.33-.84.9.27-.46-.8.76-.53-.9-.14.05-.92-.67.63z"/></g><g><path fill="#fff" d="M6.93 7.63L6.25 7l.07.92-.92.14.77.52-.46.8.9-.27.33.88.34-.87.88.3-.46-.82.75-.52-.9-.14L7.6 7l-.67.63z"/></g><g><path fill="#ffc639" d="M14.44 18c0 1.97 1.6 3.56 3.56 3.56 1.97 0 3.56-1.6 3.56-3.56 0-1.97-1.6-3.56-3.56-3.56-1.97 0-3.56 1.6-3.56 3.56"/></g><g><path fill="#1b8a42" d="M15.86 19.64s1.1-1 1.65-1.05c.92-.08 1.78.68 1.78 1.24l.86.36v-1.12l.8-.56-1.5-1.4v-1.68l-.93.22-.05 1.17s-.04.44-.6.44c-.56 0-1 .04-1.12.34-.03.1-1.5-.2-1.5-.2l.95 1.34-.32.34v.56z"/></g><g><path fill="#ffc639" d="M29.62 29.48c.23.18 2.4-1.97 2.67-2.38.24-.42.14-1.97.4-2.67s.5-.86.75-.7c.26.16 1.17 0 1.3-.34 0 0-.73-.45-.78-.76 0 0-2.3-.8-3.63-1.47-1.32-.68-.98-.33-2.07-.8-1.6-.7-3.06-.37-4.12-.22-1.06.16-.75.4 0 .3.75-.1 3 .12 3.6.33.6.2 1.76 1.14 2.26 1.37.5.23 1.12 1.1.58 1.6-.55.52-2.18 1.25-2.83 1.95-.65.7-.65.8.36.65 1.02-.16 1.9-.7 2.4-1.18.52-.5.98.15.67.98-.32.83-.75.74-1.04 1.5-.28.74-.75 1.65-.5 1.83"/></g></g></g></g></svg>