<svg xmlns="http://www.w3.org/2000/svg" viewBox="0 0 45 45" enable-background="new 0 0 45 45"><defs><clipPath id="a"><path d="M0 36h36V0H0v36z"/></clipPath></defs><g><g><g clip-path="url(#a)" transform="matrix(1.25 0 0 -1.25 0 45)"><g><path fill="#eee" d="M36 9c0-2.2-1.8-4-4-4H4C1.8 5 0 6.8 0 9v18c0 2.2 1.8 4 4 4h28c2.2 0 4-1.8 4-4V9z"/></g><g><path fill="#ce1a24" d="M10.4 14.75s-.35-1.02-.26-2.03c.08-1.02 2.45-.93 2.96-.85.5.1.84.1.5-.34-.33-.42-.76-1.1-.67-1.86.08-.76-1.02-.25-1.35.5-.34.77-.68.77-1.27 1.1-.6.35-1.16 1.2-1.52 1.7-.42.6-.67 1.02 1.6 1.78"/></g><g><path fill="#ce1a24" d="M25.6 14.75s.35-1.02.26-2.03c-.08-1.02-2.45-.93-2.96-.85-.5.1-.84.1-.5-.34.34-.42.76-1.1.67-1.86-.08-.76 1.02-.25 1.35.5.34.77.68.77 1.27 1.1.6.35 1.16 1.2 1.52 1.7.42.6.67 1.02-1.6 1.78"/></g><g><path fill="#f6e4be" d="M27.05 13.14c-.93-.42-2.86-.7-3.64-.76-1.02-.08-1.17-.34-1.17-.6 0-.25 1.1-.42 1.7-.33.58.08 1.26-.1.24-.68-1-.6-2.37-1.44-3.63-1.77-1.27-.34-2.54-.26-2.54-.26s-1.27-.08-2.54.26c-1.26.33-2.62 1.18-3.63 1.77-1.02.6-.34.76.25.68.6-.1 1.7.08 1.7.34 0 .24-.17.5-1.2.58-.77.06-2.7.34-3.63.76-.4.18-.5.5-.5.5s0-.16.08-.67c.1-.5.5-.84.6-1.35.08-.5.08-.76.5-.85.42-.08 1.35-.17 1.35-.17s0-.76-.17-1.18c-.16-.42.44-1.18 2.72-2.03 2.28-.86 3.3-.77 4.48-.77 1.18 0 2.2-.1 4.48.76 2.28.84 2.87 1.6 2.7 2.02-.16.42-.16 1.18-.16 1.18s.93.1 1.35.17c.42.1.42.34.5.85.1.5.5.84.6 1.35.08.5.08.68.08.68s-.1-.33-.5-.5"/></g><g><path fill="#bcad96" d="M14.28 8.66c.94-.32 4.83-1.13 7.2-.1.75.35 1-.66.32-.92-.53-.2-2.62-.5-3.55-.5-.93 0-3.48.3-4.22.6-.43.16-.26 1.1.25.92"/></g><path fill="#666" d="M23.4 25.48H12.6v-1.52h10.8v1.52z"/><g><path fill="#ce1a24" d="M18 11.53v12.94h-5.4v-6.43c0-3.2 2.02-4.48 3.03-5.24 1.02-.76 2.37-1.27 2.37-1.27"/></g><g><path fill="#ce1a24" d="M18 11.53v12.94h5.4v-6.43c0-3.2-2.02-4.48-3.03-5.24-1.02-.76-2.37-1.27-2.37-1.27"/></g><g><path fill="#1353b4" d="M12.72 16.7c.47-2.25 2.06-3.26 2.9-3.9 1.03-.76 2.38-1.27 2.38-1.27s1.35.5 2.37 1.27c.86.64 2.44 1.65 2.9 3.9H12.73z"/></g><path fill="#1353b4" d="M23.4 20.5H12.6v3.97h10.8V20.5z"/><g><path fill="#eace23" d="M18 29.37v-4.14s-1.27 0-2.62-.17-2.8-.6-2.8-.6l-1.26 2.8-.25-.1-.43 1.1.85.27.16-.5.34.07-.1.5.86.18.1-.53.32.1v.6l.85.08.07-.52.6.1v-.33h.17v.43h.43v-.34h.25v.42h.42v-.34l.34.1v.75l.85.07v-.5h.43v.5H18z"/></g><g><path fill="#eace23" d="M18 29.37v-4.14s1.27 0 2.62-.17 2.8-.6 2.8-.6l1.26 2.8.25-.1.43 1.1-.85.27-.16-.5-.34.07.1.5-.86.18-.1-.53-.32.1v.6l-.85.08-.07-.52-.6.1v-.33h-.17v.43h-.42v-.34h-.25v.42h-.42v-.34l-.34.1v.75l-.85.07v-.5h-.43v.5H18z"/></g><g><path fill="#5e520d" d="M18 28.02c-.2 0-.34-.15-.34-.34v-.84h.68v.84c0 .2-.15.34-.34.34"/></g><g><path fill="#5e520d" d="M12.88 27.5c-.18-.05-.3-.24-.24-.42l.2-.82.66.17-.2.82c-.06.18-.24.3-.42.24"/></g><g><path fill="#5e520d" d="M23.12 27.5c.18-.05.3-.24.24-.42l-.2-.82-.66.17.2.82c.06.18.24.3.42.24"/></g><g><path fill="#eace23" d="M14.8 23.03s.07.17 0 .42c-.1.23-.44.43-.44.43s-.34-.2-.42-.43c-.08-.25 0-.42 0-.42-.42.17-.6-.25-.6-.5 0-.26.35-.43.35-.43s0 .34.16.34c.17 0 .17-.34.17-.34-.34 0 0-.25 0-.25l-.26-.42.34.08c-.07-.24.26-.5.26-.5s.34.26.26.5l.34-.07-.26.42s.34.25 0 .25c0 0 0 .34.17.34s.17-.34.17-.34.34.17.34.42c0 .26-.17.68-.6.5"/></g><g><path fill="#eace23" d="M22.06 23.03s.08.17 0 .42c-.08.23-.42.43-.42.43s-.35-.2-.43-.43c-.07-.25 0-.42 0-.42-.4.17-.58-.25-.58-.5 0-.26.34-.43.34-.43s0 .34.17.34.17-.34.17-.34c-.34 0 0-.25 0-.25l-.26-.42.34.08c-.08-.24.26-.5.26-.5s.33.26.25.5l.33-.07-.26.42s.34.25 0 .25c0 0 0 .34.17.34s.17-.34.17-.34.35.17.35.42c0 .26-.17.68-.6.5"/></g><g><path fill="#eace23" d="M18.42 23.03s.1.17 0 .42c-.07.23-.42.43-.42.43s-.35-.2-.42-.43c-.1-.25 0-.42 0-.42-.43.17-.6-.25-.6-.5 0-.26.34-.43.34-.43s0 .34.17.34c.16 0 .16-.34.16-.34-.34 0 0-.25 0-.25l-.25-.42.35.08c-.1-.24.25-.5.25-.5s.34.26.25.5l.34-.07-.26.42s.34.25 0 .25c0 0 0 .34.17.34.18 0 .18-.34.18-.34s.33.17.33.42c0 .26-.15.68-.58.5"/></g><g><path fill="#fff" d="M18.93 18.55l.42.6-1.18-.35.34 1.1-.5-.33-.5.33.33-1.1-1.18.34.42-.6-.42-.5 1.18.43-.42-1.2.6.35.6-.34-.43 1.2 1.18-.44-.42.5z"/></g><g><path fill="#eace23" d="M18.93 14s-.25 0-.25-.27c0-.25.25-.34.25-.34s-.17-.26-.42-.26c-.25 0-.33.25-.33.25s.34.08.34.25c0 .17-.25.25-.25.25s0 .42-.25.42-.25-.42-.25-.42-.26-.08-.26-.25c0-.17.33-.26.33-.26s-.08-.26-.34-.26-.43.25-.43.25.25.08.25.33c0 .26-.25.26-.25.26 0 .32-.34.16-.34.16l.26-1.78h2l.27 1.78s-.34.16-.34-.17"/></g><g><path fill="#eace23" d="M17 16.18s-.27 0-.27-.25.26-.34.26-.34-.18-.26-.44-.26c-.25 0-.34.25-.34.25s.34.08.34.24c0 .17-.25.26-.25.26s0 .42-.24.42c-.26 0-.26-.42-.26-.42s-.25-.1-.25-.26.34-.25.34-.25-.1-.26-.35-.26c-.25 0-.42.25-.42.25s.25.08.25.33-.25.25-.25.25c0 .34-.34.17-.34.17l.24-1.77h2.02l.26 1.77s-.33.17-.33-.17"/></g><g><path fill="#eace23" d="M20.87 16.18s-.25 0-.25-.25.25-.34.25-.34-.16-.26-.42-.26c-.25 0-.34.25-.34.25s.35.08.35.24c0 .17-.25.26-.25.26s0 .42-.26.42c-.25 0-.25-.42-.25-.42s-.26-.1-.26-.26.33-.25.33-.25-.08-.26-.33-.26c-.26 0-.43.25-.43.25s.27.08.27.33-.26.25-.26.25c0 .34-.32.17-.32.17l.25-1.77H20.96l.25 1.77s-.33.17-.33-.17"/></g></g></g></g></svg>