<svg xmlns="http://www.w3.org/2000/svg" viewBox="0 0 45 45" enable-background="new 0 0 45 45"><defs><clipPath id="a"><path d="M4 31c-2.2 0-4-1.8-4-4V9c0-2.2 1.8-4 4-4h28c2.2 0 4 1.8 4 4v18c0 2.2-1.8 4-4 4H4z"/></clipPath></defs><g><g><g clip-path="url(#a)" transform="matrix(1.25 0 0 -1.25 0 45)"><g><path fill="#ce1126" d="M18 24.6c1.66 0 3.16-.63 4.3-1.64L33.4 31H2.55l11.13-8.07c1.13 1.03 2.65 1.66 4.3 1.66"/></g><g><path fill="#1eb53a" d="M24.5 18.1c0-.94-.2-1.82-.54-2.62L36 6.75V29.2L24.04 20.5c.3-.75.47-1.57.47-2.43"/></g><g><path fill="#1eb53a" d="M11.5 18.1c0 .83.18 1.63.47 2.37L0 29.15V6.8l12.04 8.72c-.34.8-.53 1.66-.53 2.57"/></g><g><path fill="#ce1126" d="M18 11.6c-1.58 0-3.04.56-4.17 1.52L2.63 5H33.3l-11.14 8.08c-1.13-.93-2.57-1.5-4.15-1.5"/></g><g><path fill="#eee" d="M22.03 15.52h-.78l-.4-.67-.38.67h-.77l.38.68-.38.67h.77l.4.67.38-.67h.78l-.4-.67.4-.68zm-2.85 4.54h-.78l-.4-.67-.38.66h-.78l.4.67-.4.68h.78l.4.68.38-.67h.78l-.4-.67.4-.67zm-2.85-4.54h-.78l-.4-.67-.38.67H14l.38.68-.4.67h.8l.38.67.4-.67h.77l-.4-.67.4-.68zM36 31h-2.6l-11.1-8.04c-1.14 1-2.64 1.63-4.3 1.63-1.65 0-3.16-.64-4.3-1.67L2.55 31H0v-1.85l11.97-8.68c-.3-.74-.46-1.54-.46-2.38 0-.92.2-1.8.54-2.58L0 6.8V5h2.64l11.2 8.12c1.12-.95 2.58-1.53 4.17-1.53 1.6 0 3.03.55 4.16 1.48L33.3 5H36v1.75l-12.04 8.73c.35.8.55 1.68.55 2.6 0 .87-.16 1.7-.46 2.44L36 29.2V31z"/></g><g><path fill="#ce1126" d="M18.8 20.73l.38.68h-.78l-.4.68-.38-.67h-.78l.4-.67-.4-.67h.78l.4-.67.38.66h.78l-.4.67z"/></g><g><path fill="#1eb53a" d="M18 19.4l-.38.66h-.78l.4.67-.4.68h.78l.4.68.38-.67h.78l-.4-.67.4-.67h-.78l-.4-.67zm1.4.78l-.32.55.3.55.23.38h-1.06l-.3.55-.23.38-.2-.37-.32-.54H16.4l.23-.38.3-.55-.3-.55-.22-.37h1.08l.3-.54.23-.37.23.36.3.55h1.08l-.2.38z"/></g><g><path fill="#ce1126" d="M22.03 15.52l-.4.68.4.67h-.78l-.4.67-.38-.67h-.77l.38-.67-.38-.68h.77l.4-.67.38.67h.78z"/></g><g><path fill="#1eb53a" d="M20.47 15.52h-.77l.38.68-.38.67h.77l.4.67.38-.67h.78l-.4-.67.4-.68h-.78l-.4-.67-.38.67zm1.78.13l-.32.55.32.54.2.38H21.4l-.32.55-.22.37-.2-.37-.33-.55h-1.07l.22-.38.32-.54-.32-.55-.22-.38h1.07l.32-.55.2-.37.23.37.32.55h1.06l-.2.38z"/></g><g><path fill="#ce1126" d="M15.94 16.2l.4.67h-.8l-.38.67-.4-.67H14l.38-.67-.4-.68h.8l.38-.67.4.67h.77l-.4.68z"/></g><g><path fill="#1eb53a" d="M15.16 14.85l-.4.67H14l.38.68-.4.67h.8l.38.67.4-.67h.77l-.4-.67.4-.68h-.78l-.4-.67zm1.07 1.35l.3.54.23.38H15.7l-.32.55-.22.37-.22-.37-.3-.55h-1.09l.22-.38.3-.54-.3-.55-.22-.38h1.06l.3-.55.23-.37.22.37.3.55h1.08l-.22.38-.3.55z"/></g></g></g></g></svg>