<svg xmlns="http://www.w3.org/2000/svg" viewBox="0 0 45 45" enable-background="new 0 0 45 45"><defs><clipPath id="a"><path d="M4 31c-2.2 0-4-1.8-4-4V9c0-2.2 1.8-4 4-4h28c2.2 0 4 1.8 4 4v18c0 2.2-1.8 4-4 4H4z"/></clipPath></defs><g><g><g clip-path="url(#a)" transform="matrix(1.25 0 0 -1.25 0 45)"><g><path fill="#009b3a" d="M32.58 31H3.42L18 20.47 32.58 31z"/></g><g><path fill="#141414" d="M36 7.47v21.06L21.42 18 36 7.47z"/></g><g><path fill="#141414" d="M0 28.53V7.47L14.58 18 0 28.53z"/></g><g><path fill="#009b3a" d="M3.42 5h29.16L18 15.53 3.42 5z"/></g><g><path fill="#ffd202" d="M36 31h-3.42L18 20.47 3.42 31H0v-2.47L14.58 18 0 7.47V5h3.42L18 15.53 32.58 5H36v2.47L21.42 18 36 28.53V31z"/></g></g></g></g></svg>