<svg xmlns="http://www.w3.org/2000/svg" viewBox="0 0 45 45" enable-background="new 0 0 45 45"><defs><clipPath id="a"><path d="M0 36h36V0H0v36z"/></clipPath></defs><g><g><g clip-path="url(#a)" transform="matrix(1.25 0 0 -1.25 0 45)"><g><path fill="#3b88c3" d="M36 4c0-2.2-1.8-4-4-4H4C1.8 0 0 1.8 0 4v28c0 2.2 1.8 4 4 4h28c2.2 0 4-1.8 4-4V4z"/></g><g><path fill="#fff" d="M12.22 26.38c0 1.55.77 2.7 2.42 2.7h7.7c1.47 0 2.2-1.06 2.2-2.14 0-1.06-.76-2.14-2.2-2.14h-5.47v-4.53h5.1c1.5 0 2.25-1.05 2.25-2.14 0-1.05-.78-2.14-2.26-2.14h-5.1v-4.72h5.75c1.5 0 2.2-1.06 2.2-2.14 0-1.06-.74-2.14-2.2-2.14h-8c-1.36 0-2.38.93-2.38 2.32v17.06z"/></g></g></g></g></svg>