<svg xmlns="http://www.w3.org/2000/svg" viewBox="0 0 45 45" enable-background="new 0 0 45 45"><defs><clipPath id="a"><path d="M0 36h36V0H0v36z"/></clipPath></defs><g><g><g clip-path="url(#a)" transform="matrix(1.25 0 0 -1.25 0 45)"><g><path fill="#006b3f" d="M36 9c0-2.2-1.8-4-4-4H4C1.8 5 0 6.8 0 9v18c0 2.2 1.8 4 4 4h28c2.2 0 4-1.8 4-4V9z"/></g><g><path fill="#eee" d="M36 21H21v10h-6V21H0v-6h15V5h6v10h15v6z"/></g><path fill="#fcd116" d="M17 5h-2v26h2V5z"/><path fill="#fcd116" d="M36 19H0v2h36v-2z"/><path fill="#141414" d="M19 5h-2v26h2V5z"/><path fill="#141414" d="M36 17H0v2h36v-2z"/><g><path fill="#dd2e44" d="M24 18c0-3.3-2.7-6-6-6-3.32 0-6 2.7-6 6s2.68 6 6 6c3.3 0 6-2.7 6-6"/></g><g><path fill="#006000" d="M18 23.36l-.17-.52h-.55l.45-.33-.18-.5.45.3.45-.3-.18.52.45.3h-.55l-.17.54z"/></g><g><path fill="#006000" d="M14.92 22.36l.17-.52-.46-.33h.56l.17-.5.16.5h.56l-.46.34.17.52-.43-.33-.45.33z"/></g><g><path fill="#006000" d="M13.02 19.74l.44-.32-.17-.53.44.32.44-.33-.17.52.46.32h-.55l-.16.52-.17-.52h-.55z"/></g><g><path fill="#006000" d="M13.02 16.5h.55l.17-.53.17.53h.56l-.45.32.18.53-.44-.33-.45.33.16-.52-.44-.33z"/></g><g><path fill="#006000" d="M14.92 13.88l.44.32.45-.32-.16.53.45.33h-.56l-.17.52-.18-.52h-.56l.45-.32-.18-.52z"/></g><g><path fill="#006000" d="M18 12.88l.17.52h.55l-.45.33.18.52-.45-.32-.45.32.17-.52-.44-.32h.55l.17-.52z"/></g><g><path fill="#006000" d="M21.08 13.88l-.17.52.46.33h-.56l-.17.52-.17-.52h-.55l.46-.33-.17-.52.43.33.45-.32z"/></g><g><path fill="#006000" d="M22.98 16.5l-.44.32.17.53-.44-.33-.44.33.17-.52-.46-.33h.55l.16-.52.17.52h.55z"/></g><g><path fill="#006000" d="M22.98 19.74h-.55l-.17.53-.17-.53h-.56l.45-.32-.2-.53.46.32.45-.33-.16.52.44.32z"/></g><g><path fill="#006000" d="M21.08 22.36l-.44-.32-.45.32.16-.53-.45-.32h.56l.17-.5.18.5h.55l-.44.33.18.53z"/></g><g><path fill="#fff" d="M17 20.82c0-.1 0-.26.23-.3.15.06.1.4.05.48-.1 0-.25-.12-.3-.18"/></g><g><path fill="#fff" d="M17.28 20.9c-.16-.08-.37-.23-.35-.48-.28.2-.3.78 0 .86.13 0 .37-.15.35-.37"/></g><g><path fill="#7d76b6" d="M17.15 20.34c.14-.13.42-.1.56-.03.25-.13.52-.15.86-.04.06-.02.24-.05.3-.02.04.04.08.06.12.1-.08.05-.16.17-.2.3 0 0 .07.06.1.1-.07.07-.2.17-.26.2.04.05.07.16.07.16-.14.04-.26.13-.32.18l.02.08c-.2 0-.2.27-.66.35-.3.06-.77-.07-.8-.42.18-.17.44-.4.3-.75-.05-.05-.12-.12-.17-.14.03-.04.05-.05.08-.06"/></g><g><path fill="#00693f" d="M18.4 16.55c.1-.47.4-1.35.48-1.55.08-.2.2-.6.44-.67.1-.06.27 0 .2.5.07.02.1.2.07.35-.02.14-.07.65-.08 1.06 0 .42-1.13 1.06-1.12.3"/></g><g><path fill="#00693f" d="M17.36 17.46c-.05-.3.03-.9.18-1.14l.67-.15c.08.04.16.14.18.23.17.05.3.18.34.43-.2.47-.9 1.1-1.36.63"/></g><g><path fill="#7d76b6" d="M18.86 20.24c0-.1.08-.2.15-.27-.04-.04-.06-.1-.08-.13-.28-.24-.93-1.94-.95-2.3-.04-.2-.13-.53-.2-.66-.45.4-.9 1.12-.82 1.45-.03 0-.07 0-.1.02 0 .03.02.18.02.27-.02 0-.07 0-.1.02 0 .05.02.22.02.3-.06 0-.1.04-.15.1.03.06.1.2.15.3-.07 0-.1.08-.13.12.05.03.13.13.15.2-.04.03-.1.08-.1.1.05.06.23.26.3.36-.04 0-.06 0-.1.02.07.02.14.12.23.2.14-.13.42-.1.56-.03.25-.13.52-.15.86-.04.06-.02.24-.05.3-.02"/></g><g><path fill="#00693f" d="M19.84 15.57c.05 1.82-.26 3.47-.74 4.08-.47.6-1.34.47-1.6-.05-.1-.22-.1-.74 0-.97.18-.38.87-1.6 1.35-2.07.47-.46.8-.77 1-1"/></g><g><path fill="#ffd420" d="M19.12 16c-.13 0-.3.02-.43.08-.14.06-.25.12-.38.12-.14 0-.9.05-1 .1-.13.04-.46.1-.6.1-.13-.02-.35-.1-.44-.1-.08 0-.12-.08-.12-.15 0-.07 0-.2.12-.27.18 0 .43.03.47.06.25-.06.58-.13.8-.14.2 0 .56-.03.7-.02.14 0 .16.05.34 0 .17-.07.4-.2.52-.23.1-.03.18.08.2.2.03.12-.05.26-.2.25"/></g><g><path fill="#ffd420" d="M19.12 15.55c.1-.03.18.08.2.2.03.12-.05.26-.2.25-.1-.02-.24-.3 0-.45"/></g><g><path fill="#fff" d="M17.67 16.4c-.14.1-.4 0-.43-.3-.04-.26.1-.45.3-.44-.05.15 0 .67.13.73"/></g><g><path fill="#fff" d="M17.9 16.4c-.14.1-.32 0-.4-.1-.1-.16-.1-.43-.03-.57.07-.14.27-.1.32-.02-.04.15 0 .6.1.7"/></g><g><path fill="#fff" d="M18.17 16.3c-.1.15-.37.1-.45-.02-.1-.12-.1-.38 0-.5.1-.14.2-.12.3-.05-.02.12.02.43.15.56"/></g><g><path fill="#fff" d="M18.33 16.2c-.1.17-.28.1-.35 0-.1-.14-.1-.48.13-.53.12-.03.2.07.24.1-.08.02-.17.1-.17.2 0 .07 0 .22.16.24"/></g><g><path fill="#ffd420" d="M17.56 21.4c-.23 0-.22-.34 0-.34.23 0 .23.35 0 .35"/></g><g><path d="M17.56 21.28c-.06 0-.05-.1 0-.1.06 0 .06.1 0 .1"/></g></g></g></g></svg>