<svg xmlns="http://www.w3.org/2000/svg" viewBox="0 0 45 45" enable-background="new 0 0 45 45"><defs><clipPath id="a"><path d="M0 36h36V0H0v36z"/></clipPath></defs><g><g><g clip-path="url(#a)" transform="matrix(1.25 0 0 -1.25 0 45)"><g><path fill="#75aadb" d="M36 9c0-2.2-1.8-4-4-4H4C1.8 5 0 6.8 0 9v18c0 2.2 1.8 4 4 4h28c2.2 0 4-1.8 4-4V9z"/></g><path fill="#eee" d="M36 13H0v10h36V13z"/><g><path fill="#fcbf49" d="M17.58 15.87L16.34 14l.46 2.2-1.87-1.26 1.27 1.86-2.2-.46 1.87 1.24-2.2.42 2.2.42L14 19.66l2.2-.46-1.27 1.87 1.87-1.27-.46 2.2 1.24-1.87.42 2.2.42-2.2L19.66 22l-.46-2.2 1.87 1.26-1.27-1.86 2.2.46-1.87-1.24 2.2-.42-2.2-.42L22 16.34l-2.2.46 1.26-1.86-1.86 1.26.46-2.2-1.24 1.87-.42-2.2-.42 2.2z"/></g><g><path fill="#843511" d="M22.62 20zm-1.08 2zm-1.63 1h.02zM18 23l-.5-2.55-1.4 2.17.5-2.54-2.14 1.46 1.46-2.15-2.54.5 2.17-1.4L13 18l2.55-.5-2.17-1.4 2.54.5-1.46-2.13 2.15 1.45-.5-2.54 1.4 2.17L18 13l.5 2.55 1.4-2.17-.5 2.54 2.14-1.45-1.46 2.14 2.54-.5-2.17 1.4L23 18l-2.55.5 2.17 1.4-2.54-.5 1.46 2.14-2.15-1.46.5 2.54-1.4-2.17L18 23zm0-1.33l.24-1.26.12-.6.34.52.7 1.07-.26-1.27-.12-.6.5.34 1.08.73-.73-1.07-.34-.5.6.1 1.26.27-1.1-.7-.5-.34.6-.12 1.27-.24-1.26-.24-.6-.12.5-.34 1.1-.7-1.27.26-.6.12.34-.5.73-1.07-1.07.73-.5.35.1-.6.27-1.27-.7 1.1-.34.5-.12-.6-.24-1.27-.24 1.27-.12.6-.34-.5-.7-1.1.26 1.27.12.6-.5-.34-1.07-.72.73 1.07.34.5-.6-.1-1.26-.27 1.1.7.5.34-.6.12-1.27.24 1.27.24.6.12-.5.34-1.1.7 1.27-.26.6-.12-.34.5-.72 1.08 1.07-.73.5-.34-.1.6-.27 1.26.7-1.08.34-.52.12.6.24 1.27z"/></g><g><path fill="#fcbf49" d="M16 18c0 1.1.9 2 2 2s2-.9 2-2-.9-2-2-2-2 .9-2 2"/></g><g><path fill="none" stroke="#843511" stroke-width=".25" stroke-miterlimit="10" d="M16 18c0 1.1.9 2 2 2s2-.9 2-2-.9-2-2-2-2 .9-2 2z"/></g><g><path fill="#c16540" d="M17.8 18.23c0-.16-.26-.28-.58-.28-.32 0-.6.12-.6.28 0 .15.28.28.6.28.32 0 .58-.12.58-.27"/></g><g><path fill="#c16540" d="M19.35 18.25c0 .16-.26.3-.6.3-.32 0-.58-.14-.58-.3 0-.16.26-.3.6-.3.32 0 .58.14.58.3"/></g><g><path fill="#ed8662" d="M17.46 17.13c0 .12.25.23.55.23.3 0 .56-.1.56-.23s-.25-.23-.55-.23c-.3 0-.54.1-.54.23"/></g></g></g></g></svg>