<svg xmlns="http://www.w3.org/2000/svg" viewBox="0 0 45 45" enable-background="new 0 0 45 45"><defs><clipPath id="a"><path d="M0 36h36V0H0v36z"/></clipPath></defs><g><g><g clip-path="url(#a)" transform="matrix(1.25 0 0 -1.25 0 45)"><g><path fill="#c60a1d" d="M36 9c0-2.2-1.8-4-4-4H4C1.8 5 0 6.8 0 9v18c0 2.2 1.8 4 4 4h28c2.2 0 4-1.8 4-4V9z"/></g><path fill="#ffc400" d="M36 12H0v12h36V12z"/><g><path fill="#ea596e" d="M9 19v-3c0-1.66 1.34-3 3-3s3 1.34 3 3v3H9z"/></g><path fill="#f4a2b2" d="M12 17h3v3h-3v-3z"/><path fill="#dd2e44" d="M12 17H9v3h3v-3z"/><g><path fill="#ea596e" d="M15 21.5c0-.83-1.34-1.5-3-1.5s-3 .67-3 1.5 1.34 1.5 3 1.5 3-.67 3-1.5"/></g><g><path fill="#ffac33" d="M15 22.25c0 .4-1.34.75-3 .75s-3-.34-3-.75c0-.4 1.34-.75 3-.75s3 .34 3 .75"/></g><path fill="#99aab5" d="M7 13h1v7H7v-7z"/><path fill="#99aab5" d="M17 13h-1v7h1v-7z"/><path fill="#66757f" d="M9 13H6v1h3v-1z"/><path fill="#66757f" d="M18 13h-3v1h3v-1z"/><path fill="#66757f" d="M8 20H7v1h1v-1z"/><path fill="#66757f" d="M17 20h-1v1h1v-1z"/></g></g></g></svg>