<svg xmlns="http://www.w3.org/2000/svg" viewBox="0 0 45 45" enable-background="new 0 0 45 45"><defs><clipPath id="a"><path d="M4 31c-2.2 0-4-1.8-4-4V9c0-2.2 1.8-4 4-4h28c2.2 0 4 1.8 4 4v18c0 2.2-1.8 4-4 4H4z"/></clipPath></defs><g><g><g clip-path="url(#a)" transform="matrix(1.25 0 0 -1.25 0 45)"><path fill="#039" d="M0 31h36V5H0v26z"/><g><path fill="#fc0" d="M18.54 26.3l.85.6h-1.06l-.33 1-.3-1h-1.06l.85-.6-.33-1 .84.6.86-.6-.32 1z"/></g><g><path fill="#fc0" d="M18.54 8.96l.85.62h-1.06l-.33 1-.3-1h-1.06l.85-.62-.33-1 .84.62.86-.62-.32 1z"/></g><g><path fill="#fc0" d="M9.87 17.63l.85.62H9.67l-.32 1-.33-1H7.97l.85-.62-.32-1 .85.62.85-.62-.33 1z"/></g><g><path fill="#fc0" d="M10.98 21.9l.85.63h-1.05l-.33 1-.32-1H9.08l.85-.62-.32-.98.85.6.85-.6-.32 1z"/></g><g><path fill="#fc0" d="M10.98 13.3l.85.6h-1.05l-.33 1-.32-1H9.08l.85-.6-.32-1 .85.6.85-.6-.32 1z"/></g><g><path fill="#fc0" d="M14.2 25.13l.85.62H14l-.32 1-.32-1H12.3l.86-.62-.33-1 .85.62.85-.6-.32.98z"/></g><g><path fill="#fc0" d="M14.2 10.07l.85.6H14l-.32 1-.32-1H12.3l.86-.6-.33-1 .85.62.85-.63-.32 1z"/></g><g><path fill="#fc0" d="M26.13 17.63l-.85.62h1.05l.32 1 .33-1h1.05l-.85-.62.32-1-.85.62-.85-.62.33 1z"/></g><g><path fill="#fc0" d="M25.02 21.9l-.85.63h1.05l.33 1 .32-1h1.05l-.85-.62.32-.98-.85.6-.85-.6.32 1z"/></g><g><path fill="#fc0" d="M25.02 13.3l-.85.6h1.05l.33 1 .32-1h1.05l-.85-.6.32-1-.85.6-.85-.6.32 1z"/></g><g><path fill="#fc0" d="M21.8 25.13l-.85.62H22l.32 1 .32-1h1.05l-.86-.62.33-1-.85.62-.85-.6.32.98z"/></g><g><path fill="#fc0" d="M21.8 10.07l-.85.6H22l.32 1 .32-1h1.05l-.86-.6.33-1-.85.62-.85-.63.32 1z"/></g></g></g></g></svg>