<svg xmlns="http://www.w3.org/2000/svg" viewBox="0 0 45 45" enable-background="new 0 0 45 45"><defs><clipPath id="a"><path d="M4 31c-2.2 0-4-1.8-4-4V9c0-2.2 1.8-4 4-4h28c2.2 0 4 1.8 4 4v18c0 2.2-1.8 4-4 4H4z"/></clipPath></defs><g><g><g clip-path="url(#a)" transform="matrix(1.25 0 0 -1.25 0 45)"><path fill="#ce1126" d="M0 31h36V5H0v26z"/><g><path fill="#007a5e" d="M3.5 27.5h29v-19h-29v19z"/></g><g><path fill="#fcd116" d="M3.5 27.5h29l-29-19h29l-29 19z"/></g><g><path fill="#ce1126" d="M21.5 18c0-1.93-1.57-3.5-3.5-3.5s-3.5 1.57-3.5 3.5 1.57 3.5 3.5 3.5 3.5-1.57 3.5-3.5"/></g><g><path fill="#fcd116" d="M18 21.2l.72-2.2h2.33l-1.9-1.38.73-2.2L18 16.77l-1.88-1.37.72 2.22-1.9 1.37h2.34l.72 2.2z"/></g><g><path fill="#fcd116" d="M18 30.82l.4-1.2h1.24l-1.02-.72.4-1.2-1.02.74-1-.73.37 1.2-1 .73h1.24l.4 1.2z"/></g><g><path fill="#fcd116" d="M26.02 30.82l.4-1.2h1.24l-1-.72.37-1.2-1 .74L25 27.7l.4 1.2-1 .73h1.23l.4 1.2z"/></g><g><path fill="#fcd116" d="M9.98 30.82l.4-1.2h1.23l-1-.72.4-1.2-1.02.74-1-.73.37 1.2-1 .73h1.24l.38 1.2z"/></g><g><path fill="#fcd116" d="M18 8.32l.4-1.2h1.24L18.6 6.4l.4-1.2-1.02.74-1-.73.37 1.2-1 .73h1.24l.4 1.2z"/></g><g><path fill="#fcd116" d="M26.02 8.32l.4-1.2h1.24l-1-.72.37-1.2-1 .74L25 5.2l.4 1.2-1 .73h1.23l.4 1.2z"/></g><g><path fill="#fcd116" d="M9.98 8.32l.4-1.2h1.23l-1-.72.4-1.2-1.02.74-1-.73.37 1.2-1 .73h1.24l.38 1.2z"/></g><g><path fill="#ce1126" d="M6.12 16.93c.3-.3.64-.58.96-.7 0 .34-.06.74-.16 1.14-.27.25-.58.46-.87.58-.05-.32 0-.68.07-1.02"/></g><g><path fill="#fcd116" d="M7.64 16.44c.8 2.9-2.06 2.73-2.8 3.67.5-1.06-1.33-3.6 1.74-4.2-.2.27-.37.64-.46 1.03-.08.34-.12.7-.07 1.02.3-.12.6-.33.87-.58.3-.3.57-.64.72-.93"/></g></g></g></g></svg>