<svg xmlns="http://www.w3.org/2000/svg" viewBox="0 0 45 45" enable-background="new 0 0 45 45"><defs><clipPath id="a"><path d="M0 36h36V0H0v36z"/></clipPath></defs><g><g><path fill="#fff" d="M13.85 26.25l8.65 12.5 8.65-12.5h-17.3z"/></g><g><g clip-path="url(#a)" transform="matrix(1.25 0 0 -1.25 0 45)"><g><path fill="#141414" d="M10.28 21l-.1.02 3.98.83-3.4 2.42 4-.9-2.3 3.65 3.37-2.47-.83 4.3 2.24-3.67.76 4.32.76-4.32L21 28.86l-.83-4.3L23.53 27l-2.28-3.64 3.98.9-3.4-2.43 4-.83-.1-.02h3.35l5.95 8.6C34.3 30.46 33.2 31 32 31H4c-1.2 0-2.3-.54-3.03-1.4L6.92 21h3.36z"/></g><g><path fill="#fcd116" d="M25.83 21.02l-4 .83 3.4 2.42-3.98-.9 2.28 3.65-3.36-2.47.83 4.3-2.24-3.67L18 29.5l-.76-4.32L15 28.85l.83-4.3-3.36 2.47 2.28-3.64-3.98.9 3.4-2.43-4-.83.1-.02h15.45l.1.02z"/></g><g><path fill="#0072c6" d="M10.28 21H6.92l4.16-6h13.84l4.16 6h-18.8z"/></g><g><path fill="#ce1126" d="M29.08 21l-4.16-6L18 5h14c2.2 0 4 1.8 4 4v18c0 1-.37 1.9-.97 2.6L29.08 21z"/></g><g><path fill="#ce1126" d="M6.92 21L.97 29.6C.37 28.9 0 28 0 27V9c0-2.2 1.8-4 4-4h14l-6.92 10-4.16 6z"/></g></g></g></g></svg>