<svg xmlns="http://www.w3.org/2000/svg" viewBox="0 0 45 45" enable-background="new 0 0 45 45"><defs><clipPath id="a"><path d="M0 36h36V0H0v36z"/></clipPath></defs><g><g><g clip-path="url(#a)" transform="matrix(1.25 0 0 -1.25 0 45)"><g><path fill="#141414" d="M36 9c0-2.2-1.8-4-4-4H4C1.8 5 0 6.8 0 9v18c0 2.2 1.8 4 4 4h28c2.2 0 4-1.8 4-4V9z"/></g><g><path fill="#019900" d="M32 31c2.2 0 4-1.8 4-4V9c0-2.2-1.8-4-4-4h-8v26h8z"/></g><path fill="#bf1700" d="M24 5H12v26h12V5z"/><g><path fill="#ff8b88" d="M21.77 21.97l-1.15-1.34c.67-.67 1.1-1.6 1.1-2.63 0-2.06-1.67-3.72-3.72-3.72-2.05 0-3.7 1.66-3.7 3.72 0 1.03.4 1.96 1.08 2.63l-1.15 1.34c-1.05-1-1.7-2.4-1.7-3.97 0-3.03 2.44-5.5 5.47-5.5s5.48 2.47 5.48 5.5c0 1.56-.66 2.97-1.7 3.97"/></g><g><path fill="#ff5b57" d="M17.97 23.6c1.9 0 3.5-1.18 3.5-1.18l-.78-.84s-1.3.8-2.7.8c-1.4 0-2.7-.98-2.7-.98l-.67.88s1.4 1.32 3.34 1.32"/></g><g><path fill="#fff" d="M18.84 20.13c0-.47-.38-.84-.84-.84-.46 0-.84.36-.84.83 0 .46.38.84.84.84.46 0 .84-.38.84-.84"/></g><g><path fill="#fff" d="M19.1 19.3l-.43.44h-1.34l-.42-.45-.92-.13.3-.43h3.45l.3.43-.94.12z"/></g><g><path fill="#fff" d="M16.75 19.37c0-.12-.1-.2-.2-.2-.13 0-.22.08-.22.2v1.43c0 .12.1.2.2.2.12 0 .22-.08.22-.2v-1.43z"/></g><path fill="#fff" d="M16.72 18.14h-.44v.66h.44v-.65z"/><path fill="#fff" d="M16.72 17.14h-.44v.66h.44v-.65z"/><path fill="#fff" d="M16.72 15.94h-.44v.86h.44v-.86z"/><g><path fill="#fff" d="M16.04 15.93h1.3v.34h-.98l-.32-.34z"/></g><g><path fill="#fff" d="M19.27 19.37c0-.12.1-.2.2-.2.13 0 .22.08.22.2v1.43c0 .12-.1.2-.22.2-.1 0-.2-.08-.2-.2v-1.43z"/></g><path fill="#fff" d="M19.3 18.14h.45v.66h-.45v-.65z"/><path fill="#fff" d="M19.3 17.14h.45v.66h-.45v-.65z"/><path fill="#fff" d="M19.3 15.94h.45v.86h-.45v-.86z"/><g><path fill="#fff" d="M19.98 15.93h-1.3v.34h.98l.32-.34z"/></g><g><path fill="#fff" d="M17.03 17.9l.88-.04 1.16-1.6h-.38l-.54.28h-1.16l.05 1.37z"/></g><g><path fill="#fff" d="M12.4 17.77c0 .06.48-.45.88-.47.4 0 1.15-.03 1.26-.34.1-.3.2-.63.2-.63s-.24.2-.58.25c-.33.05-1.03.2-1.3.34-.25.13-.4.6-.46.85"/></g><g><path fill="#fff" d="M13.33 14.9s.45-.07.88.13c.44.2 1.3.55 1.84-.17 0 0-.43.14-.8-.08-.38-.23-.95-.47-1.37-.36-.43.1-.54.48-.54.48"/></g><g><path fill="#fff" d="M13.12 19.13c.05.1.27-.03.36.05.08.08-.02.36.1.4.14.02.47-.63.63-1.05.17-.4.06-.93-.08-1.04-.15-.12-.04 0-.04 0s-.04.42-.27.67c-.22.26-.68.96-.68.96"/></g><g><path fill="#fff" d="M23.6 17.77c0 .06-.5-.45-.88-.47-.4 0-1.15-.03-1.26-.34-.1-.3-.2-.63-.2-.63s.24.2.57.25c.34.05 1.03.2 1.3.34.26.13.4.6.46.85"/></g><g><path fill="#fff" d="M22.7 14.9s-.46-.07-.9.13c-.42.2-1.3.55-1.82-.17 0 0 .43.14.8-.08.38-.23.95-.47 1.38-.36.42.1.53.48.53.48"/></g><g><path fill="#fff" d="M22.88 19.13c-.06.1-.27-.03-.36.05-.1.08 0 .36-.12.4-.12.02-.45-.63-.62-1.05-.16-.4-.05-.93.1-1.04.15-.12.04 0 .04 0s.04.42.27.67c.22.26.68.96.68.96"/></g><g><path fill="#fff" d="M15.86 15.36v.38H20l.02-.4-4.16.02z"/></g><g><path fill="#fff" d="M14.9 18.37l.47.48 1.06-1.54-.1-.05-.78 1-.2-.28-.46.4z"/></g><g><path fill="#fff" d="M21.12 18.37l-.5.48-1.04-1.54.1-.05.78 1 .2-.28.46.4z"/></g><g><path fill="#fff" d="M21 13.13c.05.17-.78.77-1.05.9-.28.12-.77-.2-1.1-.26-.35-.06-.85-.03-.85-.03s-.36-.03-.7.03c-.33.06-.7.38-.97.25-.27-.12-1.1-.72-1.04-.9.04-.16.78-.4.78-.4l-.04-.3 1.2-.02.18.22.58.12.72-.12.25-.22 1.24.03v.3s.74.23.8.4"/></g></g></g></g></svg>