<svg xmlns="http://www.w3.org/2000/svg" viewBox="0 0 45 45" enable-background="new 0 0 45 45"><defs><clipPath id="a"><path d="M0 36h36V0H0v36z"/></clipPath><clipPath id="b"><path d="M4 31c-2.2 0-4-1.8-4-4V9c0-2.2 1.8-4 4-4h28c2.2 0 4 1.8 4 4v18c0 2.2-1.8 4-4 4H4z"/></clipPath><clipPath id="c"><path d="M0 36h36V0H0v36z"/></clipPath></defs><g><g><g clip-path="url(#a)" transform="matrix(1.25 0 0 -1.25 0 45)"><g><path fill="#e41e20" d="M36 9c0-2.2-1.8-4-4-4H4C1.8 5 0 6.8 0 9v18c0 2.2 1.8 4 4 4h28c2.2 0 4-1.8 4-4V9z"/></g></g></g><g><g clip-path="url(#b)" transform="matrix(1.25 0 0 -1.25 0 45)"><g><path fill="#e41e20" d="M36 9c0-2.2-1.8-4-4-4H4C1.8 5 0 6.8 0 9v18c0 2.2 1.8 4 4 4h28c2.2 0 4-1.8 4-4V9z"/></g></g></g><g><g clip-path="url(#c)" transform="matrix(1.25 0 0 -1.25 0 45)"><g><path fill-rule="evenodd" d="M20.6 25.44c-.1 0-.2 0-.3-.06-.1-.05-.1-.14 0-.2.13-.08.43-.08.56 0 .1.07.08.15 0 .2-.1.05-.18.06-.27.06m-5.33 0c-.05 0-.14 0-.22-.05-.04-.03-.08-.06-.08-.1 0-.06.03-.1.07-.12.18-.1.36-.1.54 0 .1.05.1.15 0 .2-.1.05-.18.06-.3.06m-2.88-10.9c-.32 0-.62.02-.92.04-.02 0-.05 0-.07-.02-.16-.14-.35-.13-.55-.05 0 0-.03.02-.04.02-.14.1-.3.18-.5.06.07.14.16.2.3.23.03 0 .07.02.1.05.23.25.47.22.7 0 .08-.07.15-.1.25-.1.25 0 .5 0 .74 0-.13.13-.26.25-.38.37-.05.04-.08.04-.14.03-.08-.03-.16-.03-.25-.02-.14 0-.25.08-.3.2-.1.2-.24.25-.42.27 0 0 0 0-.04 0 .12.12.25.16.4.12.1-.04.2-.06.34-.02.16.06.26 0 .32-.17.04-.1.1-.18.2-.24.22-.14.42-.28.62-.42.05-.03.1-.03.14-.02.5.14 1 .27 1.5.4.04 0 .07.02.1.03 0 .02-.03.03-.05.05-.1.1-.2.2-.3.3-.07.08-.05.18.07.2.1.04.2.06.3.1.82.18 1.34.7 1.6 1.5.02.08.03.17 0 .26 0 .06-.05.1-.1.12-.07 0-.12-.02-.15-.07s-.06-.1-.08-.16c-.15-.36-.34-.68-.67-.9-.1-.08-.23-.08-.35-.03-.1.03-.1.1-.05.18.02.04.06.08.1.1.28.2.4.47.46.78.03.13-.05.27-.17.3-.12.03-.24-.06-.28-.2-.06-.17-.1-.35-.17-.53-.16-.42-.44-.72-.85-.9-.15-.1-.3-.05-.42.07-.1.1-.1.2 0 .3.05.05.1.08.17.1.28.13.54.3.67.6.08.18.1.37.07.56-.03.13-.1.16-.23.1-.06-.02-.1-.07-.15-.12-.5-.53-.98-1.08-1.5-1.58-.35-.33-.93-.47-1.42-.1-.08.07-.13.14-.16.23-.06.18.03.3.22.32.07 0 .13 0 .2 0 .53-.04.98.15 1.36.5.3.28.55.6.76.95.07.1.1.22.1.35 0 .1-.04.1-.12.07-.07-.03-.1-.08-.16-.14-.34-.42-.75-.75-1.26-.95-.26-.1-.54-.16-.83-.1-.2.07-.38.36-.3.58.02.1.1.15.22.12.14-.04.27-.08.4-.08.43-.03.8.12 1.14.36.27.2.5.45.72.72.08.1.1.2.1.33 0 .12-.07.17-.2.14-.05-.02-.1-.06-.14-.1-.4-.3-.8-.58-1.3-.73-.16-.06-.33-.1-.5-.06-.23.04-.42.23-.44.45-.02.2.1.33.33.3.08 0 .16 0 .25 0 .46-.05.87.1 1.24.37.18.14.37.3.54.45.06.05.1.1.12.18 0 .05 0 .1-.03.13-.04.03-.1 0-.13 0-.02 0-.04-.02-.06-.04-.42-.27-.9-.45-1.4-.5-.17-.02-.34-.02-.5.03-.22.05-.34.18-.37.4-.04.2.1.33.28.32.07 0 .14 0 .2-.05.4-.23.78-.2 1.17-.02.28.12.53.3.78.46.05.03.1.08.12.14.03.08.02.15-.04.2-.05.06-.12.06-.2.03-.13-.06-.28-.14-.43-.2-.3-.1-.64-.18-.98-.17-.48.02-.84.32-.92.75 0 .06 0 .1 0 .17.03.12.12.17.24.14.08-.03.15-.07.2-.12.47-.4.98-.44 1.53-.2.16.05.3.15.44.23 0 .02 0 .03.02.04.08.07.13.2.1.27-.08.1-.18.07-.26.06-.36-.08-.73-.1-1.1-.07-.27.02-.53.1-.77.24-.22.14-.35.33-.4.58-.03.08-.02.16.02.24.06.12.17.17.3.12.07-.02.13-.06.18-.1.34-.35.77-.5 1.24-.5.15 0 .3 0 .45 0 .1 0 .17.03.23.1.05.08.07.16.03.24-.03.1-.1.14-.2.14-.58 0-1.1.23-1.6.53-.32.2-.58.46-.7.84-.06.18-.03.34.07.5.14.2.33.2.46 0 .1-.2.24-.38.4-.53.43-.42.94-.7 1.54-.8.05 0 .08 0 .1.05.03.05.07.1.1.12.06.05.12.06.18.03.6-.23 1.2-.5 1.77-.82.03-.03.05-.07.05-.12 0-.1-.02-.2-.06-.3-.07-.18-.06-.36 0-.54.1-.3.3-.43.62-.42.25 0 .46.23.5.52.05.34-.04.63-.25.9-.3.4-.73.66-1.23.77-.24.04-.5.1-.74.16-.12.03-.24.06-.35.14-.04.04-.1.08-.1.15.1 0 .2-.05.28-.08.22-.08.4-.05.6.1-.06.03-.1.02-.15.02-.3-.03-.62-.02-.92.05-.16.04-.3.1-.42.2-.04.06-.08.1-.1.16-.02.08-.02.16.04.2.07.06.13 0 .2-.03.02-.02.05-.05.07-.08.2-.27.47-.35.76-.37.14 0 .27-.02.4.02-.07.15-.37.33-.53.3-.1 0-.16-.08-.23-.14-.06.2.03.36.22.42.15.05.3.04.46.02.04 0 .06 0 .08.04.03.1.1.12.2.15.3.1.6.1.9-.02.42-.16.86-.25 1.3-.3-.13-.14-.3-.23-.47-.36.3-.13.53-.3.74-.58h-.47s0-.02 0-.03c.27-.1.57-.17.8-.42-.08 0-.15-.02-.2-.04-.07 0-.1-.04-.04-.1.2-.16.35-.36.53-.54.02-.04.05-.06.1 0 .17.18.34.38.54.56.04.04.03.07-.03.08-.06.02-.12.03-.2.05.1.14.23.22.37.28.14.05.28.1.43.15 0 0 0 .02 0 .03h-.46s0 .02 0 .03c.2.24.43.4.72.54-.16.13-.33.22-.48.36.17.03.33.05.5.08.26.04.52.12.78.22.3.12.6.15.9.05.1-.04.2-.07.24-.2 0-.04.04-.02.07 0 .13 0 .26.02.4 0 .22-.05.33-.2.3-.43-.04 0-.05.02-.06.03-.1.12-.2.14-.37.08-.13-.06-.24-.16-.35-.27.05-.03.1-.03.15-.04.18 0 .36 0 .54.06.16.04.3.1.4.24.06.07.1.14.2.18.1.07.2.02.2-.1 0-.06-.03-.1-.06-.16-.13-.2-.34-.26-.57-.3-.27-.07-.54-.06-.82-.05-.03 0-.08 0-.12-.02.13-.12.28-.2.45-.14.14.03.26.07.4.12 0-.08-.05-.12-.1-.16-.15-.1-.33-.14-.52-.18-.32-.08-.66-.14-.98-.27-.42-.17-.74-.47-.95-.87-.13-.24-.15-.5-.08-.75.05-.25.25-.42.48-.43.28-.02.5.12.6.37.07.2.08.4.02.6-.03.08-.06.17-.07.27 0 .07.02.1.1.15.55.3 1.13.57 1.72.8.1.04.2 0 .27-.1.04-.08.1-.1.17-.1.78.17 1.4.58 1.85 1.25.03.05.05.1.08.14.1.12.25.13.36 0 .14-.13.2-.3.15-.5-.06-.25-.2-.47-.38-.63-.54-.48-1.16-.76-1.9-.8-.15-.02-.25-.08-.26-.2 0-.14.1-.3.25-.3.58-.02 1.15 0 1.63.4.06.05.1.1.17.15.13.1.24.1.34.04.1-.06.13-.22.1-.36-.1-.4-.4-.62-.8-.74-.47-.14-.96-.1-1.45 0-.04 0-.1 0-.14 0-.1 0-.16-.06-.12-.18.03-.1.1-.17.2-.22.2-.12.4-.22.6-.28.46-.12.88-.03 1.24.27.08.06.15.12.25.14.12.02.2-.03.24-.15.02-.06.02-.1 0-.16-.05-.4-.35-.68-.75-.75-.38-.06-.75.02-1.1.15-.15.05-.3.12-.44.2-.1.05-.2.04-.24-.03-.06-.08-.05-.18.03-.27.1-.1.23-.18.35-.25.25-.16.5-.3.8-.37.28-.07.55-.05.8.1.07.03.14.05.2.07.24.03.4-.12.35-.34-.04-.2-.16-.32-.36-.37-.3-.08-.58-.04-.86.03-.38.08-.72.22-1.05.43-.05.03-.12.08-.2.02-.04-.03-.03-.14.02-.22.02-.03.04-.05.06-.07.25-.2.5-.4.75-.58.36-.24.74-.3 1.16-.25.1 0 .17.02.25 0 .14 0 .23-.1.24-.24 0-.25-.2-.48-.45-.52-.3-.05-.55.05-.8.16-.37.16-.7.38-1 .63-.06.05-.12.1-.2.1-.08 0-.13-.03-.14-.12 0-.1.02-.24.1-.34.27-.34.57-.66.95-.87.4-.24.82-.3 1.27-.17.2.07.32-.02.28-.24-.04-.34-.17-.42-.43-.45-.35-.05-.68.05-1 .22-.38.2-.7.5-.98.83-.06.06-.1.1-.17.14-.08.05-.13.02-.13-.08s.04-.22.1-.32c.24-.4.52-.78.9-1.08.4-.32.84-.45 1.35-.4.1.02.2 0 .28-.1.07-.08.04-.2-.02-.28-.1-.22-.33-.3-.56-.35-.37-.08-.7.03-.98.3-.52.5-1 1.05-1.5 1.58-.04.06-.08.1-.14.13-.12.07-.2.03-.22-.1-.05-.27 0-.52.17-.74.15-.2.35-.33.58-.43.06-.02.13-.06.17-.1.1-.1.1-.2 0-.3-.1-.1-.28-.15-.43-.08-.42.17-.7.47-.86.9-.06.17-.1.35-.16.53-.05.14-.17.23-.3.2-.1-.04-.18-.18-.15-.33.07-.3.2-.58.5-.77.05-.05.1-.1.1-.2-.04-.07-.13-.08-.2-.1-.1 0-.18.02-.26.08-.32.23-.5.54-.65.9-.02.04-.05.1-.08.15-.03.05-.08.08-.14.07-.07 0-.1-.06-.12-.12-.02-.1 0-.18.02-.26.25-.8.76-1.3 1.57-1.5.1-.03.2-.05.3-.08.14-.03.16-.13.07-.22-.1-.1-.22-.22-.35-.35.22-.07.43-.13.63-.18.33-.1.66-.17.98-.26.06 0 .1 0 .14.02.24.16.48.32.72.48.04.03.06.07.08.12.1.24.2.3.45.2.04-.02.08 0 .13 0 .18.08.34.08.5-.07-.07 0-.12 0-.17-.02-.12-.03-.22-.1-.27-.22-.12-.2-.3-.28-.56-.22-.1.02-.14 0-.2-.05-.1-.13-.23-.24-.35-.35 0-.03.03 0 .05 0 .26 0 .52 0 .77 0 .05 0 .1.02.12.06.05.06.1.1.17.15.2.1.37.1.54-.05.05-.05.1-.1.2-.1.1-.02.2-.1.24-.2 0 0-.02 0-.02 0-.16.06-.3.04-.44-.05-.2-.13-.44-.15-.65.02-.02.02-.05.02-.08 0-.3 0-.6-.02-.9-.04.03-.06.08-.08.13-.1.15-.1.3-.17.5-.14.3.05.5-.1.6-.4.03-.14.1-.3.1-.45 0-.04 0-.1 0-.13-.07.1-.12.2-.2.3-.05.03-.1.05-.16.04-.07-.02-.15-.03-.23-.02-.2.03-.3.1-.33.3 0 .06-.03.1-.08.12-.1.07-.23.12-.35.17-.08.03-.17.06-.24.1-.08.07-.14.07-.22.03-.13-.05-.28-.1-.43-.14-.04-.02-.07-.04-.1-.08-.1-.22-.26-.3-.5-.28-.03 0-.06.02-.1 0-.2 0-.32 0-.36-.25-.08.12-.08.3.04.4.07.08.13.15.2.24.08.14.22.18.38.1.07 0 .12 0 .18.02.15.05.27.15.44.2-.2.07-.42.12-.62.17-.33.08-.65.14-.96.24-.05.02-.1 0-.13-.03-.1-.1-.22-.2-.34-.3-.13-.1-.2-.1-.3.04-.2.33-.38.68-.6 1-.13.22-.3.4-.5.6-.06.05-.12.1-.18.13-.2.1-.38.03-.45-.17s-.04-.4.02-.57c.15-.5.44-.9.86-1.2.1-.1.24-.17.36-.25.17-.1.34-.13.53-.1.13.03.26.04.4-.02.13-.06.16-.16.07-.28-.05-.07-.1-.12-.2-.16-.18-.08-.38-.12-.6-.1-.1.02-.2.08-.27.15-.1.07-.2.15-.28.23-.1.08-.17.08-.24.02-.07-.05-.1-.16-.02-.24.3-.34.6-.65 1.1-.67.06 0 .1-.02.17-.04.14-.07.16-.2.04-.3-.15-.12-.34-.16-.55-.13-.27.04-.48.2-.68.37-.07.07-.14.15-.22.22-.03.03-.08.06-.12.03-.05-.03-.05-.08-.05-.12-.02-.13.04-.23.08-.34.15-.36.4-.58.82-.57.17 0 .23-.13.13-.27-.15-.24-.5-.3-.74-.12-.23.17-.37.4-.5.67 0 .04-.03.08-.06.12-.06.07-.13.07-.2 0-.05-.08-.07-.17-.07-.26 0-.28.12-.52.3-.73.08-.1.17-.2.27-.27.05-.05.06-.08.02-.13-.3-.42-.56-.85-.84-1.27-.07-.1-.14-.2-.2-.3-.02-.04-.04-.05-.07 0-.34.52-.7 1.05-1.04 1.58-.03.05-.02.07.02.1.14.13.28.27.4.43.1.18.17.37.18.6 0 .04 0 .1-.02.13-.03.08-.05.18-.15.18-.1.02-.14-.07-.18-.14-.12-.25-.25-.5-.48-.68-.23-.17-.54-.14-.73.08 0 .02-.02.04-.04.06-.07.13 0 .24.13.25.08 0 .17 0 .25.02.18.04.32.13.42.27.1.14.18.3.23.47.02.1.05.2-.04.24-.08.06-.14-.03-.2-.1-.13-.13-.27-.26-.43-.36-.26-.16-.54-.22-.83-.1-.06.04-.12.08-.16.13-.07.08-.05.17.05.22.05.04.1.06.18.06.3 0 .54.12.75.3.12.12.23.23.33.35.03.04.05.08.05.13.02.08 0 .14-.07.17-.06.04-.13.03-.18 0-.07-.07-.14-.13-.2-.2-.26-.27-.57-.28-.9-.17-.1.05-.22.1-.3.2-.07.13-.04.22.1.28.1.06.24.06.37.03.2-.03.4.02.57.12.5.3.9.7 1.13 1.25.1.22.15.45.1.7-.05.27-.27.36-.5.2-.27-.17-.46-.4-.64-.67-.2-.27-.33-.56-.5-.83-.04-.07-.08-.13-.12-.2-.08-.1-.16-.13-.27-.04-.1.1-.23.2-.35.32-.03.03-.06.04-.1.03-.45-.14-.9-.22-1.35-.34-.08-.02-.16-.05-.26-.08.16-.05.27-.12.4-.2.08-.02.16-.04.25 0 .14.06.3 0 .37-.14.05-.08.1-.14.17-.2.12-.12.14-.28.03-.42-.02.1 0 .18-.1.22-.1.06-.2.06-.3.05-.3-.04-.43.02-.57.3-.02.02-.04.03-.07.04-.17.07-.35.13-.52.2-.02 0-.05 0-.08 0-.14-.12-.3-.17-.47-.24-.05-.02-.1-.05-.15-.08-.07-.03-.1-.07-.13-.16-.04-.2-.17-.28-.37-.28-.04 0-.08 0-.1 0-.18.06-.27-.04-.34-.16-.03-.05-.06-.1-.08-.16-.02.02-.02.04-.02.05 0 .25.07.48.2.7.1.2.3.27.53.22.15-.04.28 0 .4.1.06.03.14.06.2.13"/></g><g><path fill="#dd2e44" fill-rule="evenodd" d="M15.27 25.44c.13 0 .22 0 .3-.05.1-.07.1-.17 0-.22-.17-.1-.35-.1-.53 0-.04.02-.07.06-.07.1 0 .06.04.1.08.1.08.05.17.06.22.06"/></g><g><path fill="#dd2e44" fill-rule="evenodd" d="M20.6 25.44c.08 0 .17 0 .25-.05.1-.07.1-.15 0-.2-.12-.1-.42-.1-.55-.02-.1.06-.1.15 0 .2.1.05.2.06.3.06"/></g></g></g></g></svg>