<svg xmlns="http://www.w3.org/2000/svg" viewBox="0 0 45 45" enable-background="new 0 0 45 45"><defs><clipPath id="a"><path d="M0 36h36V0H0v36z"/></clipPath></defs><g><g><g clip-path="url(#a)" transform="matrix(1.25 0 0 -1.25 0 45)"><g><path fill="#cc162b" d="M32 31H4c-2.2 0-4-1.8-4-4v-4h36v4c0 2.2-1.8 4-4 4"/></g><g><path fill="#3c762c" d="M0 9c0-2.2 1.8-4 4-4h28c2.2 0 4 1.8 4 4v4H0V9z"/></g><path fill="#eee" d="M0 13h36v2H0v-2z"/><path fill="#eee" d="M0 21h36v2H0v-2z"/><path fill="#0d218a" d="M0 15h36v6H0v-6z"/></g></g></g></svg>