<svg xmlns="http://www.w3.org/2000/svg" viewBox="0 0 45 45" enable-background="new 0 0 45 45"><defs><clipPath id="a"><path d="M0 36h36V0H0v36z"/></clipPath></defs><g><g><g clip-path="url(#a)" transform="matrix(1.25 0 0 -1.25 0 45)"><g><path fill="#cf1b2b" d="M36 9c0-2.2-1.8-4-4-4H4C1.8 5 0 6.8 0 9v18c0 2.2 1.8 4 4 4h28c2.2 0 4-1.8 4-4V9z"/></g><g><path fill="#f8dc15" d="M19.02 19.43c0-.77-.62-1.4-1.38-1.4-.77 0-1.4.63-1.4 1.4 0 .76.63 1.38 1.4 1.38.76 0 1.38-.6 1.38-1.37"/></g><g><path fill="#f8dc15" d="M19.02 18.68c0-.76-.62-1.38-1.38-1.38-.77 0-1.4.62-1.4 1.38 0 .77.63 1.4 1.4 1.4.76 0 1.38-.63 1.38-1.4"/></g><g><path fill="#fff" d="M9.86 23.9c.4.2 1.33-1.55 2.06-1.5.73.03 2.6 1.43 3.64 1.52 0 0 0 .44.86.44s1-.43 1.07-1c0 0 .68-1.06.98-1.87.3-.83.3-1.38.3-1.38s-.64-.65-1.03-.7c-.4-.03-1.46.35-1.46.35s-.22 1.63-.3 2.12l-.3.32s-.44-.47-1.2-.6c-.78-.13-1.98-.1-2.4-.17-.44-.1-.4-.65-.78-.6-.4.04-.1.9-.78 1.37-.68.47-1.2 1.4-.68 1.67"/></g><g><path fill="#f8dc15" d="M11.63 21.1l.37-.32.48.12-.2-.45.28-.42-.5.04-.32-.38-.1.47-.47.2.43.24.03.5z"/></g><g><path fill="#fff" d="M17.42 9.8c-.38.26.67 1.94.27 2.55-.4.6-2.56 1.54-3.16 2.38 0 0-.38-.2-.8.53-.44.74-.13 1.07.3 1.42 0 0 .6 1.13 1.15 1.8.55.67 1.03.95 1.03.95s.88-.24 1.1-.55c.24-.32.44-1.44.44-1.44s-1.3-1-1.7-1.32l-.12-.42s.63-.14 1.12-.74c.5-.6 1.06-1.67 1.35-2 .3-.32.75 0 .9-.36.17-.36-.73-.53-.8-1.36-.06-.83-.62-1.75-1.1-1.43"/></g><g><path fill="#f8dc15" d="M18.95 12.73l.1.5-.36.35.5.06.22.44.2-.45.5-.08-.37-.34.07-.5-.43.26-.45-.23z"/></g><g><path fill="#fff" d="M25.8 23.34c-.04-.46-2.02-.38-2.34-1.04-.33-.65-.07-2.98-.5-3.92 0 0 .38-.22-.05-.96-.42-.75-.85-.64-1.38-.44 0 0-1.27-.06-2.12.1-.86.14-1.34.42-1.34.42s-.24.88-.08 1.23c.15.36 1.02 1.1 1.02 1.1s1.52-.64 2-.8l.42.1s-.2.6.08 1.33c.28.73.9 1.75 1.05 2.17.14.4-.36.65-.13.97.23.3.82-.38 1.57-.02.75.36 1.82.33 1.8-.24"/></g><g><path fill="#f8dc15" d="M22.5 23.2l-.48-.17-.13-.48-.3.4-.5-.02.28.4-.17.47.48-.14.4.3v-.5l.4-.27z"/></g></g></g></g></svg>