<svg xmlns="http://www.w3.org/2000/svg" viewBox="0 0 45 45" enable-background="new 0 0 45 45"><defs><clipPath id="a"><path d="M0 36h36V0H0v36z"/></clipPath></defs><g><path fill="#eee" d="M0 28.75h45v-12.5H0v12.5z"/><g><g clip-path="url(#a)" transform="matrix(1.25 0 0 -1.25 0 45)"><g><path fill="#75aadb" d="M32 31H4c-2.2 0-4-1.8-4-4v-5h36v5c0 2.2-1.8 4-4 4"/></g><g><path fill="#75aadb" d="M0 9c0-2.2 1.8-4 4-4h28c2.2 0 4 1.8 4 4v5H0V9z"/></g><path fill="#141414" d="M0 16h36v4H0v-4z"/></g></g></g></svg>