<svg xmlns="http://www.w3.org/2000/svg" viewBox="0 0 45 45" enable-background="new 0 0 45 45"><defs><clipPath id="a"><path d="M0 36h36V0H0v36z"/></clipPath></defs><g><g><g clip-path="url(#a)" transform="matrix(1.25 0 0 -1.25 0 45)"><g><path fill="#4997d0" d="M32 31h-8V5h8c2.2 0 4 1.8 4 4v18c0 2.2-1.8 4-4 4"/></g><g><path fill="#4997d0" d="M4 31c-2.2 0-4-1.8-4-4V9c0-2.2 1.8-4 4-4h8v26H4z"/></g><path fill="#eee" d="M12 5h12v26H12V5z"/><g><path fill="#437e24" d="M17.13 14.47c-.56.23-.8.83-.74 1.15.02.14.08.22.14 0 .07-.28.28-.2.44-.74.08-.26.16-.32.5-.48"/></g><g><path fill="#437e24" d="M17.02 14.43c-1.03.15-1-.32-1.52-.47-.15-.04-.2-.12.05-.15 1.05-.08 1.2.7 1.8.46"/></g><g><path fill="#437e24" d="M15.9 14.8c-.3.16-.84.35-1.17.25-.32-.1-.38-.14-.13-.26.86-.44 1.2-.03 1.56-.1"/></g><g><path fill="#437e24" d="M15.52 15.04c-.6.44-.5.7-.67.95-.16.25-.14.3.1.15.75-.5.43-.9.72-1.07"/></g><g><path fill="#437e24" d="M14.8 15.7c-.55.76-.07.94-.1 1.14-.05.2 0 .22.1 0 .3-.64-.2-.86.15-1.22"/></g><g><path fill="#437e24" d="M14.03 16.83c-.14.3-.46.42-.6.4-.14 0-.32-.04-.43 0-.1.03-.1-.12.2-.24.27-.13.9-.38 1.04-.62"/></g><g><path fill="#437e24" d="M13.74 18.33c.02.34.07.55.3.74.2.2.3.22.22.06-.18-.35-.07-.6-.45-1.1"/></g><g><path fill="#437e24" d="M13.8 19c-.05.53-.32.52-.4.76-.08.24-.14.04-.1-.2.04-.36.43-.6.43-.95"/></g><g><path fill="#437e24" d="M13.78 18.75c.02.34-.02.6-.13.8-.12.2-.1-.04-.2-.26-.1-.26-.06-.8.3-1.2"/></g><g><path fill="#437e24" d="M13.95 19.7c.03.7-.26.7-.34 1-.08.3-.1.23-.13-.02-.18-1.1.42-.97.36-1.4"/></g><g><path fill="#437e24" d="M14.24 20.58c.07.45-.1.57.08.84.1.14.22.32.18.1-.03-.23 0-.6-.26-.94"/></g><g><path fill="#437e24" d="M13.96 19.87c.08.55-.3 1-.03 1.47.15.24.22.27.2.07-.02-.34.33-.72-.12-1.42"/></g><g><path fill="#437e24" d="M16.72 14.66c.76-.2 1.37-.5 1.57-.74-.02-.1-.2-.1-.24-.14-.57.6-1.23.48-2.06.96-2.8 1.6-2.58 4.04-1.78 5.84.1.23.22.46.25.7.02.3.25.45.53.54.24.08.16-.04.08-.13-.18-.2-.05-.44-.53-.76-.12-.08-.16-.2-.24-.36-1.4-3.3.38-5.37 2.42-5.92"/></g><g><path fill="#437e24" d="M14.02 19.82c.07.2.27.68.57.76.28.08.55.22.7.6.03.15.13.45-.06.22-.2-.24-.56-.04-.94-.8-.07-.14-.23-.43-.36-.86"/></g><g><path fill="#437e24" d="M13.9 19.7c.2.68.58.57.76.82.2.25.26.25.15-.07-.26-.78-.82-.74-.9-1.1"/></g><g><path fill="#437e24" d="M13.86 19.27c.2.7.68.6.9.9.2.3.27.34.23 0-.1-.96-1.1-.62-1.16-1.14"/></g><g><path fill="#437e24" d="M13.72 18.78c.08.75.7.67.88.87.08.07.12-.12-.02-.32-.33-.48-.72-.15-.76-.67"/></g><g><path fill="#437e24" d="M13.84 17.82c-.08.76-.56 1-.68 1.28-.1.28-.1-.06-.07-.23.15-1.02.54-.67.65-1.24"/></g><g><path fill="#437e24" d="M13.75 17.57c-.1.53.1.93.4 1.14.3.23.22.1.2-.08-.12-.9-.57-.55-.44-1.2"/></g><g><path fill="#437e24" d="M13.9 17.4c-.16.52-.55.73-.83.75-.28 0-.07-.1-.03-.2.25-.58.68-.34.84-.8"/></g><g><path fill="#437e24" d="M14.45 16.2c-.26.38-.2.65-.47.9-.27.22-.47.24-.6.38-.14.14-.16-.03-.03-.28.3-.58.7-.53.94-.94"/></g><g><path fill="#437e24" d="M14.3 16.43c-.12.24-.04.95.05 1.32.08.36.02.42-.15.22-.2-.24-.5-.58.06-1.54"/></g><g><path fill="#437e24" d="M14.43 16.17c-.54.66-.93.4-1.2.56-.27.16-.12-.1-.05-.16.77-.78.9-.17 1.32-.6"/></g><g><path fill="#437e24" d="M14.38 16.25c-.27.42-.27.82-.08 1.2.17.35.22.25.2 0-.02-.27.2-.37.06-.85-.05-.16-.08-.5.12-.7"/></g><g><path fill="#437e24" d="M15.03 15.5c-.22.25-.42.5-.76.54-.34.04-.46.1-.28-.13.6-.73.9-.4 1.2-.63"/></g><g><path fill="#437e24" d="M15.44 15.23c-.27.16-.82.3-1.2.2-.22-.04-.15-.08 0-.12.3-.08.38-.37 1-.32.13 0 .26.04.5-.08"/></g><g><path fill="#437e24" d="M15.7 15c-.3.2-.5.66-.55 1.12-.02.25.04.37.15.1.14-.33.38-.32.53-.83.14-.46.23-.5.47-.6"/></g><g><path fill="#437e24" d="M16.46 14.68c-.42.22-.63.58-.68 1-.05.38.05.32.18.1.12-.23.36-.2.5-.68.05-.16.17-.4.5-.5"/></g><g><path fill="#437e24" d="M16.87 14.54c-.66.2-1.26.18-1.62-.1-.18-.12-.13-.17.03-.14.43.07.6-.2 1.14.05.12.05.3.1.75-.05"/></g><g><path fill="#437e24" d="M18.83 14.48c.56.23.8.84.74 1.16-.02.14-.1.23-.15 0-.08-.28-.28-.2-.45-.74-.08-.27-.16-.33-.5-.5"/></g><g><path fill="#437e24" d="M18.94 14.43c1.04.16 1-.3 1.53-.47.15-.04.2-.12-.04-.15-1.07-.08-1.22.7-1.82.47"/></g><g><path fill="#437e24" d="M20.06 14.82c.3.15.86.34 1.2.24.32-.1.37-.14.12-.26-.87-.44-1.2-.02-1.58-.1"/></g><g><path fill="#437e24" d="M20.45 15.05c.62.44.5.7.68.96.16.27.14.34-.1.18-.76-.53-.44-.92-.73-1.08"/></g><g><path fill="#437e24" d="M21.17 15.72c.57.77.08.96.12 1.15.03.2-.02.23-.13 0-.28-.64.2-.87-.14-1.23"/></g><g><path fill="#437e24" d="M21.96 16.87c.14.3.46.42.6.4.15-.02.33-.04.43 0 .1.03.1-.12-.2-.24-.27-.12-.9-.38-1.06-.62"/></g><g><path fill="#437e24" d="M22.25 18.38c-.02.35-.07.56-.3.75-.2.2-.3.22-.23.06.18-.37.07-.6.46-1.12"/></g><g><path fill="#437e24" d="M22.2 19.06c.04.54.3.53.4.77.08.23.14.03.1-.2-.05-.37-.44-.6-.44-.96"/></g><g><path fill="#437e24" d="M22.2 18.8c0 .35.03.63.14.83.12.2.1-.06.2-.28.1-.25.07-.8-.3-1.22"/></g><g><path fill="#437e24" d="M22.04 19.77c-.03.7.26.7.34 1 .1.3.1.24.15 0 .18-1.12-.43-1-.37-1.42"/></g><g><path fill="#437e24" d="M21.75 20.66c-.08.45.1.57-.08.85-.1.15-.22.33-.2.1.05-.23.02-.6.28-.94"/></g><g><path fill="#437e24" d="M22.02 19.94c-.07.55.32 1 .04 1.48-.15.25-.23.27-.2.07.02-.36-.33-.74.12-1.45"/></g><g><path fill="#437e24" d="M19.24 14.67c-.77-.2-1.43-.53-1.63-.8.02-.1.26-.04.28-.1.58.62 1.24.5 2.1.98 2.83 1.6 2.6 4.1 1.78 5.9-.1.24-.22.47-.25.73 0 .28-.24.44-.52.53-.24.1-.17-.03-.08-.12.18-.2.04-.44.53-.76.12-.08.17-.2.24-.37 1.43-3.34-.36-5.43-2.43-5.98"/></g><g><path fill="#437e24" d="M21.97 19.9c-.08.2-.28.68-.58.76-.3.08-.58.22-.7.62-.06.13-.16.44.03.2.2-.24.57-.04.95-.8.07-.14.24-.44.37-.88"/></g><g><path fill="#437e24" d="M22.1 19.76c-.2.7-.6.6-.78.84-.2.25-.27.25-.15-.07.28-.8.84-.75.93-1.12"/></g><g><path fill="#437e24" d="M22.13 19.33c-.2.72-.7.62-.9.92-.2.3-.3.34-.25-.02.1-.96 1.1-.6 1.17-1.14"/></g><g><path fill="#437e24" d="M22.27 18.83c-.07.77-.7.68-.9.88-.07.1-.1-.1.03-.3.34-.5.73-.16.77-.68"/></g><g><path fill="#437e24" d="M22.15 17.87c.08.77.57 1 .7 1.3.1.27.08-.08.05-.25-.15-1.02-.55-.67-.66-1.24"/></g><g><path fill="#437e24" d="M22.24 17.6c.1.55-.1.95-.4 1.17-.3.22-.23.1-.2-.1.12-.92.57-.55.44-1.2"/></g><g><path fill="#437e24" d="M22.1 17.43c.15.53.54.75.83.77.28 0 .07-.1.03-.2-.25-.6-.7-.34-.85-.8"/></g><g><path fill="#437e24" d="M21.53 16.23c.26.38.22.66.48.9.28.23.5.25.62.4.14.14.16-.03.03-.3-.3-.58-.72-.52-.96-.94"/></g><g><path fill="#437e24" d="M21.7 16.46c.1.25.02.96-.06 1.33-.1.36-.03.42.14.22.22-.25.5-.6-.05-1.56"/></g><g><path fill="#437e24" d="M21.55 16.2c.55.67.94.4 1.22.56.27.16.12-.1.05-.16-.8-.78-.9-.17-1.34-.6"/></g><g><path fill="#437e24" d="M21.6 16.28c.28.43.28.83.1 1.2-.2.37-.24.26-.22 0 .02-.26-.2-.36-.06-.85.05-.16.08-.5-.12-.7"/></g><g><path fill="#437e24" d="M20.95 15.5c.22.27.42.52.77.56.34.04.46.1.28-.12-.62-.75-.93-.43-1.24-.66"/></g><g><path fill="#437e24" d="M20.53 15.24c.27.17.83.3 1.22.22.22-.05.14-.1 0-.13-.3-.1-.4-.4-1.03-.34-.12 0-.25.04-.48-.1"/></g><g><path fill="#437e24" d="M20.27 15.02c.3.2.5.66.56 1.13.02.25-.05.38-.16.1-.14-.34-.38-.33-.54-.84-.13-.45-.22-.5-.47-.6"/></g><g><path fill="#437e24" d="M19.5 14.7c.43.2.64.57.7 1 .03.4-.06.33-.2.1-.12-.23-.35-.2-.5-.7-.05-.15-.17-.4-.5-.5"/></g><g><path fill="#437e24" d="M19.1 14.55c.65.2 1.26.18 1.62-.1.18-.12.13-.17-.02-.15-.45.07-.63-.18-1.16.06-.12.05-.3.1-.76-.06"/></g><g><path fill="#b1b6ba" d="M16.6 17.58s-.77-.7-.86-.78c-.1-.1-.2-.5-.2-.5l.26-.16 1.1 1.14-.3.3z"/></g><g><path fill="#6c301e" d="M15.54 16.32l.23-.2s-.2-.2-.23-.4c-.04-.2-.58-.82-.7-.98-.1-.15-.24-.12-.3 0-.06.13-.2.22-.22.3-.02.1.34.43.5.62.2.2.37.27.47.37.08.1.24.3.24.3"/></g><g><path fill="#6c301e" d="M16.64 17.4l-.47-.52.13-.13.45.52-.1.14z"/></g><g><path fill="#b1b6ba" d="M14.46 22.02l1.5-1.57.4.18-.13.17-.26-.06-1.5 1.28z"/></g><g><path fill="#fab81b" d="M16.35 15.48l.18-.32.17.16s.14-.25 0-.3c-.14-.04-.24 0-.24 0l-.47-.38s-.2.1-.36 0c0 0 .04.23.13.23.1 0 .43.45.43.45s-.18.05-.14.16c.04.1.3 0 .3 0"/></g><g><path fill="#b1b6ba" d="M16.35 15.35s2.77 2.76 3.92 2.86c0 0-.87-.52-1.42-.96-.54-.43-2.32-2.08-2.32-2.08l-.18.2z"/></g><g><path fill="#b1b6ba" d="M19.5 17.58s.76-.7.85-.78c.1-.1.2-.5.2-.5l-.26-.16-1.12 1.14.3.3z"/></g><g><path fill="#6c301e" d="M20.55 16.32l-.23-.2s.2-.2.23-.4.58-.82.7-.98c.1-.15.24-.12.3 0 .06.13.2.22.22.3 0 .1-.35.43-.52.62-.17.2-.35.27-.45.37-.1.1-.25.3-.25.3"/></g><g><path fill="#6c301e" d="M19.44 17.4l.48-.52-.13-.13-.46.52.1.14z"/></g><g><path fill="#b1b6ba" d="M18.78 19.74l-.17-.5 1.5 1.5-.22.04-1.1-1.04z"/></g><g><path fill="#b1b6ba" d="M21.63 22.02l-1.52-1.57-.36.18.37.1 1.53 1.3z"/></g><g><path fill="#fab81b" d="M19.74 15.48l-.18-.32-.17.16s-.15-.25 0-.3c.12-.04.23 0 .23 0l.47-.38s.2.1.34 0c0 0-.03.23-.12.23-.1 0-.44.45-.44.45s.18.05.15.16c-.04.1-.3 0-.3 0"/></g><g><path fill="#b1b6ba" d="M19.74 15.35s-2.77 2.76-3.92 2.86c0 0 .87-.52 1.4-.96.56-.43 2.34-2.08 2.34-2.08l.18.2z"/></g><g><path fill="#f9f0aa" d="M16.37 20.84c.45.02 1.76-.02 2.24 0 .5 0 .38-.24.4-.38.05-.14-.25-.3-.25-.3s.3-.18.72-1.27c.4-1.1.3-1.6-.24-1.63-.54-.03-1.94-.13-2.4-.13-.48 0-.56.17-.56.42 0 .25.38.63.75.4 0 0 0 .18-.22.8-.2.63-.68 1.3-.73 1.6-.05.3.06.46.3.48"/></g><g><path fill="#437e24" d="M17.74 21.9c-.2.18.07.37.26.35.2 0 .28-.12.08-.34 0 0 .55-.3.98-.7.44-.4 1.33-1.5 1.42-2.67.1-1.53-.73-2.32-1.05-2.87-.3-.54-1-1.9-1-1.9s-.02.7.9 1.97c0 0-.72-1.28-1.83-1.52 0 0 1.4 1 1.78 1.77.4.78.96 1.95.86 2.76-.1.8-.24 1.5-1.3 2.03 0 0-.7.04-1 .28-.48.4-.1.87-.1.87"/></g><g><path fill="#e2cf81" d="M18.75 20.17c0-.05.2-.3.18-.3h-2.38c-.03 0-.16.16-.16.2l-.2.22c.15-.07.32 0 .35 0h2.38c.02 0-.18-.1-.18-.13"/></g><g><path fill="#e2cf81" d="M17.02 17.4c0-.04-.1-.2-.07-.2h2.38c.03 0 .24.17.24.22l.1.2c-.14-.04-.32 0-.34 0h-2.38c-.03 0 .07-.17.07-.2"/></g></g></g></g></svg>