<svg xmlns="http://www.w3.org/2000/svg" viewBox="0 0 45 45" enable-background="new 0 0 45 45"><defs><clipPath id="a"><path d="M0 36h36V0H0v36z"/></clipPath></defs><g><g><g clip-path="url(#a)" transform="matrix(1.25 0 0 -1.25 0 45)"><g><path fill="#edecec" d="M32 31H18V21h18v6c0 2.2-1.8 4-4 4"/></g><g><path fill="#eee" d="M11 31H4c-2.2 0-4-1.8-4-4v-6h11v10z"/></g><g><path fill="#edecec" d="M32 5H18v10h18V9c0-2.2-1.8-4-4-4"/></g><g><path fill="#edecec" d="M11 5H4C1.8 5 0 6.8 0 9v6h11V5z"/></g><g><path fill="#003580" d="M18 31h-7V21H0v-6h11V5h7v10h18v6H18v10z"/></g></g></g></g></svg>