<svg xmlns="http://www.w3.org/2000/svg" viewBox="0 0 45 45" enable-background="new 0 0 45 45"><defs><clipPath id="a"><path d="M0 36h36V0H0v36z"/></clipPath></defs><g><g><g clip-path="url(#a)" transform="matrix(1.25 0 0 -1.25 0 45)"><g><path fill="#3b88c3" d="M36 4c0-2.2-1.8-4-4-4H4C1.8 0 0 1.8 0 4v28c0 2.2 1.8 4 4 4h28c2.2 0 4-1.8 4-4V4z"/></g><g><path fill="#fff" d="M25.5 29c-1.38 0-2.5-1.12-2.5-2.5V21H13v5.5c0 1.38-1.12 2.5-2.5 2.5S8 27.88 8 26.5v-17C8 8.12 9.12 7 10.5 7S13 8.12 13 9.5V16h10V9.5C23 8.12 24.12 7 25.5 7S28 8.12 28 9.5v17c0 1.38-1.12 2.5-2.5 2.5"/></g></g></g></g></svg>