<svg xmlns="http://www.w3.org/2000/svg" viewBox="0 0 45 45" enable-background="new 0 0 45 45"><defs><clipPath id="a"><path d="M0 36h36V0H0v36z"/></clipPath></defs><g><g><path fill="#edecec" d="M25.25 24.76h1.17l-.6-1-.57 1z"/></g><g><path fill="#edecec" d="M21.92 26l.58 1.02.58-1h-1.16z"/></g><path fill="#eee" d="M0 31.25h45v-17.5H0v17.5z"/><g><g clip-path="url(#a)" transform="matrix(1.25 0 0 -1.25 0 45)"><g><path fill="#eee" d="M.3 28.5h35.4C35.1 29.97 33.7 31 32 31H4C2.32 31 .9 29.97.3 28.5"/></g><g><path fill="#edecec" d="M21.13 19.8h-.93l.47-.8.46.8z"/></g><g><path fill="#edecec" d="M15.8 19.8h-.93l.46-.8.47.8z"/></g><g><path fill="#edecec" d="M19.04 16.2L20.1 18l-1.06 1.8h-2.08L15.9 18l1.06-1.8h2.08z"/></g><g><path fill="#edecec" d="M15.33 17l-.46-.8h.93l-.47.8z"/></g><g><path fill="#edecec" d="M18 21.62l-.47-.8h.94l-.47.8z"/></g><g><path fill="#0038b8" d="M.3 28.5c-.2-.46-.3-.97-.3-1.5v-2h36v2c0 .53-.1 1.04-.3 1.5H.3z"/></g><g><path fill="#eee" d="M.3 7.5h35.4C35.1 6.03 33.7 5 32 5H4C2.32 5 .9 6.03.3 7.5"/></g><g><path fill="#0038b8" d="M.3 7.5C.1 7.96 0 8.47 0 9v2h36V9c0-.53-.1-1.04-.3-1.5H.3z"/></g><g><path fill="#0038b8" d="M15.33 17l.47-.8h-.93l.46.8zm.47 2.8l-.47-.8-.46.8h.93zm1.16 0h2.08L20.1 18l-1.06-1.8h-2.08L15.9 18l1.06 1.8zM18 21.63l.47-.8h-.94l.47.8zM20.67 17l.46-.8h-.93l.47.8zm.46 2.8l-.46-.8-.47.8h.93zM18 14.4l-.47.8h.94l-.47-.8zm-1.62.8L18 12.4l1.62 2.8h3.24L21.24 18l1.62 2.8h-3.24L18 23.63l-1.62-2.8h-3.25L14.76 18l-1.63-2.8h3.25z"/></g></g></g></g></svg>