<svg xmlns="http://www.w3.org/2000/svg" viewBox="0 0 45 45" enable-background="new 0 0 45 45"><defs><clipPath id="a"><path d="M0 36h36V0H0v36z"/></clipPath></defs><g><g><g clip-path="url(#a)" transform="matrix(1.25 0 0 -1.25 0 45)"><g><path fill="#3b88c3" d="M36 4c0-2.2-1.8-4-4-4H4C1.8 0 0 1.8 0 4v28c0 2.2 1.8 4 4 4h28c2.2 0 4-1.8 4-4V4z"/></g><g><path fill="#fff" d="M13.7 11.28h3.14c4 0 5.83 2.94 5.83 6.67 0 3.96-1.86 6.85-6.14 6.85H13.7V11.28zm-4.64 15.4c0 1.44 1 2.4 2.38 2.4h5.15c6.94 0 10.9-4.47 10.9-11.35C27.5 11.23 23.3 7 16.9 7h-5.4c-1.02 0-2.44.56-2.44 2.33V26.7z"/></g></g></g></g></svg>