<svg xmlns="http://www.w3.org/2000/svg" viewBox="0 0 45 45" enable-background="new 0 0 45 45"><defs><clipPath id="a"><path d="M4 31c-2.2 0-4-1.8-4-4V9c0-2.2 1.8-4 4-4h28c2.2 0 4 1.8 4 4v18c0 2.2-1.8 4-4 4H4z"/></clipPath></defs><g><g><g clip-path="url(#a)" transform="matrix(1.25 0 0 -1.25 0 45)"><g><path fill="#eee" d="M8 10.2l6.08 2.6L8 15.4l6.08 2.6L8 20.6l6.08 2.6L8 25.8l6.08 2.6L8 31H0V5h8l6.08 2.6L8 10.2z"/></g><g><path fill="#ce1126" d="M8 31l6.08-2.6L8 25.8l6.08-2.6L8 20.6l6.08-2.6L8 15.4l6.08-2.6L8 10.2l6.08-2.6L8 5h28v26H8z"/></g></g></g></g></svg>