<svg xmlns="http://www.w3.org/2000/svg" viewBox="0 0 45 45" enable-background="new 0 0 45 45"><defs><clipPath id="a"><path d="M0 36h36V0H0v36z"/></clipPath></defs><g><g><g clip-path="url(#a)" transform="matrix(1.25 0 0 -1.25 0 45)"><g><path fill="#3b88c3" d="M36 4c0-2.2-1.8-4-4-4H4C1.8 0 0 1.8 0 4v28c0 2.2 1.8 4 4 4h28c2.2 0 4-1.8 4-4V4z"/></g><g><path fill="#fff" d="M15.15 11.1h3.66c1.68 0 2.92.95 2.92 2.7 0 1.45-1.1 2.44-3.28 2.44h-3.3V11.1zm0 9.23h2.42c1.52 0 2.5.9 2.5 2.45 0 1.46-1.14 2.2-2.5 2.2h-2.42v-4.65zm-4.65 6.42c0 1.5 1.02 2.33 2.45 2.33h5.95c3.22 0 5.83-2.17 5.83-5.46 0-2.17-.9-3.63-2.88-4.56V19c2.63-.37 4.7-2.57 4.7-5.27 0-4.37-2.9-6.73-7.2-6.73H13c-1.43 0-2.48.9-2.48 2.36v17.4z"/></g></g></g></g></svg>