<svg xmlns="http://www.w3.org/2000/svg" viewBox="0 0 45 45" enable-background="new 0 0 45 45"><defs><clipPath id="a"><path d="M0 36h36V0H0v36z"/></clipPath></defs><g><g><g clip-path="url(#a)" transform="matrix(1.25 0 0 -1.25 0 45)"><g><path fill="#3b88c3" d="M36 4c0-2.2-1.8-4-4-4H4C1.8 0 0 1.8 0 4v28c0 2.2 1.8 4 4 4h28c2.2 0 4-1.8 4-4V4z"/></g><g><path fill="#fff" d="M12.5 26.66c0 1.27.88 2.42 2.43 2.42h7.94c1.36 0 2.08-1.06 2.08-2.14 0-1.06-.7-2.14-2.08-2.14h-5.7v-4.53h4.8c1.5 0 2.23-1.05 2.23-2.1 0-1.1-.74-2.18-2.23-2.18h-4.8V9.22c0-1.55-1-2.42-2.33-2.42s-2.33.88-2.33 2.43v17.43z"/></g></g></g></g></svg>