<svg xmlns="http://www.w3.org/2000/svg" viewBox="0 0 45 45" enable-background="new 0 0 45 45"><defs><clipPath id="a"><path d="M0 36h36V0H0v36z"/></clipPath></defs><g><g><g clip-path="url(#a)" transform="matrix(1.25 0 0 -1.25 0 45)"><g><path fill="#007934" d="M36 9c0-2.2-1.8-4-4-4H4C1.8 5 0 6.8 0 9v18c0 2.2 1.8 4 4 4h28c2.2 0 4-1.8 4-4V9z"/></g><path fill="#ffe000" d="M36 13H0v10h36V13z"/><g><path fill="#d52b1e" d="M32 31H4c-2.2 0-4-1.8-4-4v-4h36v4c0 2.2-1.8 4-4 4"/></g><g><path fill="#fff" d="M12.9 19.66c.03-.06.37-.55.37-.55h.5l-.2.3-.68.26z"/></g><g><path fill="#fff" d="M13.63 20.15c.04-.06.38-.55.38-.55h.5l-.2.28-.67.27z"/></g><g><path fill="#fff" d="M14.3 20.77c.03-.07.2-.65.2-.65l.46-.15-.1.32-.55.47z"/></g><g><path fill="#a05a2d" d="M13.95 14.5c-.04-.02-.1 0-.1.04-.03.04 0 .1.03.1l2.47 1.27c.03.03.08 0 .1-.03.02-.04 0-.1-.03-.1l-2.47-1.27z"/></g><g><path fill="#a05a2d" d="M14.45 14.05c-.04-.03-.1-.02-.12.02-.02.04 0 .1.03.1l2.3 1.54c.04.04.1.03.12 0 .02-.05 0-.1-.02-.12l-2.3-1.53z"/></g><g><path fill="#a05a2d" d="M14.95 13.62c-.03-.03-.1-.03-.12 0-.03.03-.04.08 0 .1l1.82 2.1c.03.02.1.03.12 0 .03-.03.04-.08 0-.12l-1.82-2.08z"/></g><g><path fill="#a05a2d" d="M17.35 15.3l-.57-1.2-.1.1-.23-.3-.6.33.75 1.46.75-.4z"/></g><g><path fill="#d52b1e" d="M17.6 13.47l.4 1.94-.04 1.7-2.93 2.8-.2-.64-.4.32-.14-.67s-.52.38-.54.32c-.02-.06-.14-1.55-.18-2.4-.04-.82-.07-2.06.84-2.23 1.58-.3 2.77.9 2.77.9s.37-.38.4-.44c0-.06-.15-.77-.2-1.06-.07-.28.2-.53.2-.53"/></g><g><path fill="#ffe000" d="M15.55 19.36l-.16-.47-.27.13s-.68-3.4.42-3.66c1.1-.27 1.23.18 1.23.18l-.53.7-.4-.17s-.2.53-.2 1.24c0 .64.1 1.27.1 1.27l.2-.16.05.47-.45.46z"/></g><g><path fill="#007934" d="M16.68 18.34l-.68.57-.04-.46-.26.2s-.15-.5-.15-1.13c0-.63.1-1.24.1-1.24s.46-.16.7 0c.24.17.33 2.08.33 2.08"/></g><g><path fill="#e8a30f" d="M16.45 16.43c-.52-.23-1.6-.64-1.32-1.15.28-.5 1.12-.3 1.65.27.53.57-.33.88-.33.88"/></g><g><path fill="#fff" d="M23.1 19.66c-.03-.06-.38-.55-.38-.55h-.48l.2.3.67.26z"/></g><g><path fill="#fff" d="M22.37 20.15c-.04-.06-.38-.55-.38-.55h-.5l.2.28.67.27z"/></g><g><path fill="#fff" d="M21.7 20.77c-.03-.07-.2-.65-.2-.65l-.46-.15.1.32.55.47z"/></g><g><path fill="#a05a2d" d="M22.05 14.5c.04-.02.1 0 .1.04.03.04 0 .1-.03.1l-2.47 1.27c-.04.03-.08 0-.1-.03-.03-.04 0-.1.03-.1l2.47-1.27z"/></g><g><path fill="#a05a2d" d="M21.55 14.05c.04-.03.1-.02.12.02.02.04 0 .1-.03.1l-2.3 1.54c-.04.04-.1.03-.12 0-.02-.05 0-.1.02-.12l2.3-1.53z"/></g><g><path fill="#a05a2d" d="M21.05 13.62c.03-.03.08-.03.12 0 .03.03.03.08 0 .1l-1.83 2.1c-.02.02-.08.03-.1 0-.04-.03-.05-.08-.02-.12l1.83-2.08z"/></g><g><path fill="#a05a2d" d="M18.65 15.3l.57-1.2.1.1.23-.3.6.33-.75 1.46-.75-.4z"/></g><g><path fill="#d52b1e" d="M18.4 13.47L18 15.4l.04 1.7 2.93 2.8.2-.64.42.32.1-.67s.52.38.54.32c.02-.06.14-1.55.18-2.4.04-.82.07-2.06-.83-2.23-1.6-.3-2.8.9-2.8.9s-.37-.38-.4-.44c0-.06.15-.77.2-1.06.07-.28-.2-.53-.2-.53"/></g><g><path fill="#ffe000" d="M20.45 19.36l.16-.47.27.13s.68-3.4-.42-3.66c-1.1-.27-1.23.18-1.23.18l.53.7.4-.17s.2.53.2 1.24c0 .64-.1 1.27-.1 1.27l-.2-.16-.05.47.45.46z"/></g><g><path fill="#007934" d="M19.32 18.34l.68.57.04-.46.26.2s.15-.5.15-1.13c0-.63-.1-1.24-.1-1.24s-.46-.16-.7 0c-.25.17-.33 2.08-.33 2.08"/></g><g><path fill="#e8a30f" d="M19.55 16.43c.52-.23 1.6-.64 1.32-1.15-.28-.5-1.12-.3-1.65.27-.53.57.33.88.33.88"/></g><g><path fill="#d52b1e" d="M16.33 20.18c.17-.2.16-.5-.02-.65-.17-.15-.45-.1-.62.1-.17.2-.16.48 0 .63.2.16.48.12.65-.08"/></g><g><path fill="#e7e7e7" d="M19.75 20.18c-.17-.2-.16-.5.02-.65.18-.15.46-.1.63.1.18.2.17.48 0 .63-.2.16-.48.12-.65-.08"/></g><g><path fill="#007934" d="M18 19.03v.74s-1.2.57-1.28 1.28c-.08.7.32 1.36.18 1.47-.14.1-.9-.55-.94-1.25-.04-.7.66-1.73 1.12-1.93.46-.2.92-.3.92-.3"/></g><g><path fill="#007934" d="M18 19.03v.74s1.2.57 1.28 1.28c.08.7-.32 1.36-.18 1.47.14.1.9-.55.94-1.25.04-.7-.66-1.73-1.12-1.93-.46-.2-.92-.3-.92-.3"/></g><g><path fill="#fff" d="M18 19.8s.12.42.92.66c.8.24 1.54.43 1.83.45.3.03-1.13.58-1.47.62-.33.04-.75-.04-.8-.3-.07-.23-.17-.15-.48-.2-.3-.03-.5.25-.65.46-.14.2-.7.1-.95.08-.26-.02-1.27-.65-1.27-.65s1.75-.28 2.12-.46c.36-.18.02-.84-.1-1.02-.1-.18.62.06.85.37"/></g><g><path d="M18 19.8s.12.42.92.66c.8.24 1.54.43 1.83.45.3.03-1.04.44-1.38.48-.33.04-.6.04-.66-.2-.05-.25-.4-.1-.7-.15-.3-.04-.65.06-.8.26-.14.2-.38.12-.65.1-.26-.02-1.42-.5-1.42-.5s1.75-.28 2.12-.46c.36-.18.02-.84-.1-1.02-.1-.18.62.06.85.37"/></g><g><path fill="#00a6de" d="M15.82 17.34c0 1.32.98 2.4 2.18 2.4 1.2 0 2.18-1.08 2.18-2.4 0-1.3-.98-2.38-2.18-2.38-1.2 0-2.18 1.07-2.18 2.38"/></g><g><path fill="#e8a30f" d="M16.4 17.34c0 1.04.72 1.88 1.6 1.88.88 0 1.6-.84 1.6-1.88 0-1.03-.72-1.87-1.6-1.87-.88 0-1.6.84-1.6 1.87"/></g><g><path fill="#d52b1e" d="M17.3 18.16c0 .38.32.7.7.7.38 0 .7-.32.7-.7 0-.38-.32-.7-.7-.7-.38 0-.7.32-.7.7"/></g><g><path fill="#007934" d="M18 15.47c.85 0 1.54.77 1.6 1.75-.53.2-1.4.94-1.6.94-.22 0-.5-.25-.88-.57-.18-.18-.48-.32-.7-.4.05-.97.74-1.73 1.58-1.73"/></g><g><path fill="#e8a30f" d="M18.2 20.87c0-.1-.2-.2-.46-.2s-.47.1-.47.2.2.18.47.18c.25 0 .46-.08.46-.18"/></g><g><path fill="#fff" d="M17.2 16.43h.47l.15.4.18-.22-.2-.58h-.45l-.16.4z"/></g><g><path fill="#b37d0a" d="M18.43 16.08c0-.2-.1-.35-.22-.35-.1 0-.2.16-.2.35 0 .2.1.35.2.35.13 0 .23-.16.23-.35"/></g><g><path fill="#b37d0a" d="M18.73 15.73c0-.02-.02-.04-.04-.04-.03 0-.05 0-.05.03v1.06c0 .02.02.03.04.03 0 0 .03 0 .03-.04v-1.07z"/></g><g><path fill="#32b266" d="M19.04 16.9c0-.18-.16-.33-.36-.33-.2 0-.35.15-.35.33 0 .18.16.32.35.32.2 0 .36-.14.36-.32"/></g></g></g></g></svg>