<svg xmlns="http://www.w3.org/2000/svg" viewBox="0 0 45 45" enable-background="new 0 0 45 45"><defs><clipPath id="a"><path d="M0 36h36V0H0v36z"/></clipPath></defs><g><g><g clip-path="url(#a)" transform="matrix(1.25 0 0 -1.25 0 45)"><g><path fill="#eee" d="M36 9c0-2.2-1.8-4-4-4H4C1.8 5 0 6.8 0 9v18c0 2.2 1.8 4 4 4h28c2.2 0 4-1.8 4-4V9z"/></g><g><path fill="#d52048" d="M3.2 30.92c-1.18-.25-2.15-1-2.7-2.02L15.3 18 .5 7.1c.55-1 1.52-1.77 2.7-2.02L18 16 32.8 5.08c1.18.25 2.15 1 2.7 2.02L20.7 18l14.8 10.9c-.55 1-1.52 1.77-2.7 2.02L18 20 3.2 30.92z"/></g><g><path fill="#ffcc4d" d="M20.53 29c-.17-.07-.25-.36-.25-.36s-.15.33-.6.1c0 0 .24-.23.2-.44-.07-.2-.2-.3-.46-.27-.28.04-.34.37-.34.37s.18.03.2.18c0 .1-.03.23-.2.24-.1 0-.22-.07-.22-.2 0-.12.13-.2.13-.2s-.12-.23-.35-.24c-.3 0-.43.16-.44.44 0 .4.53.42.53.42s-.04.2-.22.3c-.18.1-.35-.03-.35-.03s.13.3.1.5c-.04.18-.17.35-.22.4v.03-.02c-.06-.05-.2-.22-.22-.4-.03-.2.1-.5.1-.5s-.17.15-.35.05c-.2-.1-.23-.3-.23-.3s.52-.02.52-.43c0-.28-.14-.45-.44-.44-.23 0-.34.23-.34.23s.13.1.13.2c0 .15-.12.23-.24.22-.16 0-.2-.15-.2-.24.03-.15.2-.18.2-.18s-.05-.33-.33-.37c-.25-.03-.4.06-.45.27-.05.2.2.45.2.45-.46.22-.6-.1-.6-.1s-.1.3-.26.35c-.17.07-.34.04-.34.04s.3-.5.52-.98c.2-.48.3-.98.3-.98s.34.25.93.4c.45.1 1.02.1 1.1.1.07 0 .64 0 1.1-.1.58-.15.93-.4.93-.4s.08.5.3.98c.2.48.5.98.5.98s-.16.03-.33-.04"/></g><g><path fill="#dd2e44" d="M20.06 27.08s-.47.32-.97.43c-.48.1-1 .1-1.08.1-.07 0-.6 0-1.06-.1-.5-.1-.97-.42-.97-.42s-.42-1.52-.18-2.62c.47-2.2 2.02-3.1 2.2-3.2.2.1 1.74 1 2.2 3.2.25 1.1-.16 2.62-.16 2.62"/></g><g><path fill="none" stroke="#231f20" stroke-width=".005" stroke-miterlimit="10" d="M20.06 27.08s-.47.32-.97.43c-.48.1-1 .1-1.08.1-.07 0-.6 0-1.06-.1-.5-.1-.97-.42-.97-.42s-.42-1.52-.18-2.62c.47-2.2 2.02-3.1 2.2-3.2.2.1 1.74 1 2.2 3.2.25 1.1-.16 2.62-.16 2.62z"/></g><g><path fill="#ffcc4d" d="M19.4 27.08s-.1-.13-.4-.13c-.32 0-.18.05-.43.05-.26 0-.37-.07-.37-.15 0-.08.1-.12.43-.12.34 0 .46.08.74.08.27 0 .37-.1.37-.2 0-.13-.17-.36-.45-.3 0 0 .18-.1.4-.08.2.02.38.06.4 0 0-.04.1-.28.08-.4-.02-.2-.28-.28-.38-.27-.1.02-.24-.08-.28-.13l.02.14-.1-.04.06.17h-.13s.06.12.17.12c.1 0 .34-.03.35.05 0 .07-.08.16-.23.16-.15 0-.43-.1-.6-.05 0 0-.07-.08-.02-.15.06-.06.13-.14.1-.2-.04-.03-.14-.03-.23-.03-.1 0-.4 0-.52-.05-.1-.04-.2-.1-.2-.1l.04.15s-.1.03-.16 0c0 0 .02.08.1.1l-.1.03s.05.12.2.1c.14 0 .2-.04.25 0 .04.06-.1.17-.1.17s-.13-.05-.4-.1c-.25-.03-.42 0-.42 0s-.03-.3-.44-.33c-.42-.05-.63.15-.73.18-.1.04-.23 0-.23 0l.07.14-.16-.05s0 .15.1.16l-.14.05s.1.12.25.1c.15-.04.23-.16.36-.23.22-.1.74-.03.35.04-.07.02-.14.1-.14.1s-.24-.04-.43.25c-.13.2-.2.37-.43.33 0 0 .1.14.24.1 0 0-.07.1-.18.08 0 0 .05.14.2.1 0 0-.08.07-.16.07 0 0 .05.13.26.02.2-.13.08-.23.12-.3.03-.05.08-.12.22-.25.24-.2.35-.26.28-.05-.08.05-.13.2-.15.25-.02.07-.13.23-.1.26.04.05.13-.02.13-.02s.13.05.3.05c.17 0 .23-.07.23-.07s.1.1.13.04c.02-.04-.07-.12-.1-.2-.04-.07 0-.16 0-.16s.12-.15.35-.16c.23 0 .58.03.7.06.13.03.35.07.5.04.13-.03.54 0 .52.1 0 .1-.1.13-.3.1-.2-.03-.4-.1-.76-.07-.37.04-.4.23-.38.32.03.13.24.2.43.2.2 0 .43-.08.58-.08.14 0 .33.04.33.04"/></g><g><path fill="#dd2e44" d="M17 26.5s.07-.03.12-.03c.04 0 .13.05.13.05s-.03-.05-.03-.1c0-.04 0-.1-.1-.1s-.1.08-.1.12c0 .03-.03.07-.03.07"/></g><g><path fill="#11429a" d="M17.2 26.1c0-.04-.04-.07-.07-.07-.04 0-.07.03-.07.06v.24c0 .03.03.06.06.06.04 0 .07-.03.07-.06v-.25z"/></g><g><path fill="#11429a" d="M16.16 26.12c-.06-.03-.1-.07-.1-.07l.15-.04c-.1 0-.1-.15-.1-.15l.16.04-.1.22z"/></g><g><path fill="#11429a" d="M19.47 25.8c-.06-.03-.1-.1-.1-.1h.13l-.06-.18.1.04-.02-.14c.02.03.06.06.1.1l-.15.28z"/></g><g><path fill="#11429a" d="M18.28 25.5l-.1.32c-.07-.03-.1-.1-.1-.1l.1-.02c-.08-.02-.1-.1-.1-.1.05.03.16 0 .16 0l-.05-.15s.03.02.08.05"/></g><g><path fill="#11429a" d="M16.1 26.97c.05 0 .1-.02.13-.05l.02.1c-.12.03-.15-.05-.15-.05"/></g><g><path fill="#11429a" d="M16.26 25.88l-.06-.12s.05 0 .1 0l-.04.12z"/></g><g><path fill="#11429a" d="M16.2 26.76l.02.14c-.12.02-.16-.1-.16-.1.06 0 .1 0 .14-.04"/></g><g><path fill="#11429a" d="M16 26.63c.08 0 .13 0 .18 0l.02.1c-.1 0-.2-.1-.2-.1"/></g><g><path fill="#ffcc4d" d="M19.22 25.28s-.08-.1-.37-.1c-.3 0-.16.03-.4.03-.2 0-.3-.05-.3-.12 0-.07.07-.1.37-.1s.42.06.66.06c.25 0 .34-.1.34-.2s-.16-.3-.4-.25c0 0 .17-.1.36-.08.18 0 .34.04.35 0 .02-.04.1-.26.08-.37 0-.18-.24-.25-.33-.24-.1.02-.22-.06-.25-.1l.02.12-.1-.04.06.16h-.12s.06.1.16.1.3 0 .3.05c.02.06-.05.15-.18.14-.14 0-.4-.08-.55-.04 0 0-.04-.08 0-.14.05-.05.12-.12.08-.17-.03-.05-.12-.05-.2-.04-.08 0-.36-.02-.46-.05-.1-.03-.2-.08-.2-.08l.05.13s-.1.03-.14 0c0 0 .02.08.1.1l-.1.02s.04.1.17.1c.13-.02.2-.05.23 0 .04.05-.1.14-.1.14s-.1-.03-.34-.07c-.24-.03-.4-.02-.4-.02s-.03-.23-.4-.28c-.37-.04-.56.14-.65.17-.1.03-.2 0-.2 0l.05.1-.14-.02s0 .14.1.14l-.14.04s.1.1.22.08c.13-.03.2-.14.32-.2.2-.1.66-.03.3.04-.07.02-.13.1-.13.1s-.2-.05-.38.2c-.12.2-.17.34-.4.3 0 0 .1.13.23.1 0 0-.07.07-.17.06 0 0 .06.12.2.08 0 0-.08.07-.15.06 0 0 .04.12.23.02.2-.1.08-.2.1-.26.04-.04.1-.1.2-.22.22-.2.32-.23.26-.04-.07.04-.1.16-.13.22 0 .06-.1.2-.08.24.03.03.12-.03.12-.03s.1.05.26.05c.15 0 .2-.07.2-.07s.12.08.13.04c.02-.04-.05-.1-.1-.17-.02-.07.02-.15.02-.15s.1-.14.3-.14c.22 0 .53.03.64.05.1.03.3.07.43.05.13-.03.5-.02.48.08 0 .1-.1.12-.27.1-.2-.03-.34-.1-.68-.06-.33.02-.36.2-.34.27.04.1.22.18.4.18.18 0 .4-.07.52-.07.13 0 .3.03.3.03"/></g><g><path fill="#dd2e44" d="M17 24.77s.07-.03.1-.03c.05 0 .13.04.13.04s-.03-.04-.03-.08 0-.1-.07-.1c-.1 0-.1.08-.1.1 0 .03-.03.07-.03.07"/></g><g><path fill="#11429a" d="M17.18 24.4c0-.04-.03-.06-.06-.06-.04 0-.06.02-.06.05v.22c0 .03.02.05.05.05h.02c.03 0 .06-.02.06-.05v-.23z"/></g><g><path fill="#11429a" d="M16.25 24.42c-.05-.02-.08-.06-.08-.06l.12-.04c-.1 0-.1-.14-.1-.14l.15.03-.1.22z"/></g><g><path fill="#11429a" d="M19.23 24.14c-.06-.03-.1-.1-.1-.1h.12l-.05-.16.1.04-.03-.12c0 .02.05.05.1.07l-.14.27z"/></g><g><path fill="#11429a" d="M18.16 23.86l-.1.3c-.06-.04-.07-.1-.07-.1h.07c-.07-.03-.1-.12-.1-.12.06.04.15 0 .15 0l-.05-.12s.04.02.1.04"/></g><g><path fill="#11429a" d="M16.2 25.18c.04 0 .1-.02.1-.04l.03.1c-.1.02-.13-.06-.13-.06"/></g><g><path fill="#11429a" d="M16.35 24.2l-.06-.1s.03 0 .1 0l-.05.1z"/></g><g><path fill="#11429a" d="M16.3 25v.12c-.1.02-.14-.08-.14-.08.06 0 .1-.02.13-.04"/></g><g><path fill="#11429a" d="M16.1 24.88c.08 0 .13 0 .17 0l.02.1c-.1 0-.2-.1-.2-.1"/></g><g><path fill="#ffcc4d" d="M18.86 23.54s-.06-.08-.27-.08c-.22 0-.13.02-.3.02-.17 0-.24-.04-.24-.1 0-.04.06-.08.3-.08.2 0 .3.06.48.06s.25-.07.25-.15c0-.07-.13-.22-.3-.17 0 0 .12-.07.25-.06.14 0 .26.03.27 0 0-.03.06-.2.06-.27-.02-.14-.2-.2-.26-.18-.07 0-.16-.06-.18-.1v.1l-.06-.02.05.1h-.1s.05.1.12.1c.07 0 .23-.02.24.03 0 .05-.06.1-.16.1s-.3-.05-.4-.02c0 0-.05-.05 0-.1.02-.04.08-.1.05-.12-.04-.03-.1-.03-.16-.02-.06 0-.27-.02-.35-.04-.08-.03-.15-.07-.15-.07l.04.1s-.08.02-.12 0c0 0 0 .06.07.07l-.06.02s0 .08.1.07c.1 0 .15-.02.18 0 .03.05-.08.12-.08.12s-.08-.03-.25-.06c-.17-.03-.3-.02-.3-.02s0-.18-.3-.2c-.26-.04-.4.1-.47.12-.06.02-.16 0-.16 0l.05.08-.1-.02s0 .1.06.1l-.1.03s.07.08.17.06c.1 0 .14-.1.23-.14.15-.07.5-.02.24.03-.06 0-.1.06-.1.06s-.17-.03-.3.17c-.08.13-.12.24-.28.2 0 0 .07.1.15.07 0 0-.05.06-.12.06 0 0 .03.1.14.06 0 0-.06.05-.1.05 0 0 .02.1.16 0 .14-.07.05-.14.08-.18.03-.04.07-.1.16-.18.16-.14.23-.17.18-.03-.05.02-.08.1-.1.16 0 .04-.08.14-.06.17.02.03.1-.02.1-.02s.07.04.18.04c.12 0 .16-.05.16-.05s.08.05.1.02c0-.03-.05-.08-.08-.13-.02-.06 0-.12 0-.12s.08-.1.24-.1c.16 0 .4.02.47.03.08.03.23.06.32.04.1-.02.37 0 .36.06 0 .07-.08.1-.2.07-.14 0-.26-.06-.5-.04-.26.02-.28.14-.27.2.03.1.16.14.3.14.12 0 .3-.06.38-.06.1 0 .22.04.22.04"/></g><g><path fill="#dd2e44" d="M17.25 23.16s.06-.03.1-.02c.02 0 .07.03.07.03s-.02-.04-.02-.07c0-.03 0-.06-.05-.06-.08 0-.07.05-.08.07 0 .03-.02.06-.02.06"/></g><g><path fill="#11429a" d="M17.4 22.88c0-.02-.03-.04-.05-.04-.03 0-.05.02-.05.04v.17c0 .02.02.04.04.04.03 0 .05-.03.05-.05v-.17z"/></g><g><path fill="#11429a" d="M16.7 22.9c-.04-.02-.07-.05-.07-.05l.1-.03c-.07 0-.07-.1-.07-.1l.1.02-.06.16z"/></g><g><path fill="#11429a" d="M18.9 22.7c-.04-.03-.06-.1-.06-.1h.1l-.05-.1.05.03v-.1c0 .02.03.04.06.06l-.1.2z"/></g><g><path fill="#11429a" d="M18.1 22.48l-.06.22c-.04-.02-.05-.06-.05-.06l.05-.02c-.06 0-.07-.08-.07-.08.04.03.1 0 .1 0l-.03-.1s.03.03.06.04"/></g><g><path fill="#11429a" d="M16.66 23.46c.03 0 .06 0 .08-.02l.02.07c-.08.02-.1-.04-.1-.04"/></g><g><path fill="#11429a" d="M16.77 22.74l-.05-.08s.04 0 .08 0l-.03.08z"/></g><g><path fill="#11429a" d="M16.73 23.33v.1c-.07 0-.1-.07-.1-.07.04 0 .07-.02.1-.03"/></g><g><path fill="#11429a" d="M16.6 23.24c.04 0 .08 0 .1 0l.02.07c-.07 0-.13-.06-.13-.06"/></g></g></g></g></svg>