<svg xmlns="http://www.w3.org/2000/svg" viewBox="0 0 45 45" enable-background="new 0 0 45 45"><defs><clipPath id="a"><path d="M4 31c-2.2 0-4-1.8-4-4V9c0-2.2 1.8-4 4-4h28c2.2 0 4 1.8 4 4v18c0 2.2-1.8 4-4 4H4z"/></clipPath><clipPath id="b"><path d="M0 36h36V0H0v36z"/></clipPath></defs><g><g><g clip-path="url(#a)" transform="matrix(1.25 0 0 -1.25 0 45)"><g><path fill="#ff4e11" d="M36 9c0-2.2-1.8-4-4-4H4C1.8 5 0 6.8 0 9v18c0 2.2 1.8 4 4 4h28c2.2 0 4-1.8 4-4V9z"/></g><g><path fill="#ffd521" d="M40.3 32.88L-1 4.66V32h16l25.3.88z"/></g></g></g><g><g clip-path="url(#b)" transform="matrix(1.25 0 0 -1.25 0 45)"><g><path fill="#fff" d="M31.52 28.6s.24-.36-.15-.65c-.38-.28-.38-.8-.48-1.13-.1-.3-.47-1.03-.47-1.03s.27.32.58.4c.32.07 1.04-.05 1.36.16 0 0-.03-.16-.17-.28-.16-.13-.78-.17-.95-.3-.17-.1-.48-.55-.48-.55h.38c.22 0 .4.27.77.3.37.02 1.28-.25 1.6-.06 0 0-.17-.4-.9-.38-.72 0-1-.1-1.3-.25-.3-.15-1.32-.32-1.32-.32l-.32-.57s.3-.37.12-.73c-.16-.36-.24-.82-.24-.82v-.16s-.2.4-.2.87c0 0-.28-.18-.3-.52-.03-.34.05-.9-.3-1.13 0 0 .03 1.06 0 1.35 0 0-.47-.05-.64-.24-.17-.2-.4-.5-.4-.5s-.06.43.23.62c.3.2.8.65.8.65l.07.24-.73-.1.2.34-.35.28-.24-.53-.18.43s-.15.14-.4-.02c-.23-.17-.45-.58-.45-.58s-.58-1-1.06-1c-.47 0-.8.1-1 .06-.2-.05-.58-.4-.87-.4-.3 0 .44.5.63.7.2.23-.43-.04-1.08 0-.65.06.16.3.48.42.3.12-.73.2-.73.2s-.2-.54-.2-.87c0 0 1.02-1 1.75-1.36.72-.36 1.9-.97 2.62-.77.72.2 1.26-.04 1.26-.04s.38 1.55 1.66 1.55c1.27 0 .94-.77.94-.77s.86-.64.86-1.1c0-.45-.96-1.5-1.92-1.5-.97 0-1.45.7-1.45.7s-1-.7-1.97-.7l.3-1.05-.5.58-.16-.82s-.56.64-.4 1.17c0 0-.16-.34-.52-.32 0 0 .3.22.34.73 0 0-.65.36-1.14-.12 0 0 .1-1.23-.26-1.98s-1.08-1.35-1.1-1.66c-.03-.32-.15-.46-.08-.46.07 0 1.64-.84 2.53-.56.88.3 1.4 1.67 2.58.97 0 0-.74-.4-1.05-1.03 0 0 1.52.45 1.52-.97 0 0 .63-1.23-.15-1.9-.77-.68-1.6-.3-1.6-.3s-1.12.22-1.6 1c-.48.77-.02.98-.02.98s-1.35.24-2.05.5c-.7.27-1.54.88-1.54.88l-.42-.58-.17.7s-.45-.58-.86-.3c0 0 .4.27.53.63l-.4.5.67-.26s.38.44.45.73c0 0-2.15.12-3.67.72s-3.1.55-3.42-.36c-.3-.9-.26-2.1.13-2.14.4-.04.22 1.16.7 1.33.48.16 1.32-.28 1.32-.28s-.72 0-.9-.74c0 0 1.65.62 1.77-.48 0 0 .72-.56.34-1.26-.4-.7-1.18-.62-1.18-.62s-.7-.22-1.13.1c-.44.3-.4.52-.4.52l-.6.05s-.18-.9-.06-1.26c.1-.36.6-.68.6-1.23 0 0 1.07.03 1.5-.3.44-.34.15-1.7.15-1.7s-.07.73-.36 1.05c-.3.3-.76.14-.76.14s.24-.3.3-.83c.04-.53-.23-.8-.23-.8s.1-1-.66-1.25c-.75-.24-1.5.2-1.64.6-.14.42 0 .63 0 .63s-.8.97-.36 1.47c.43.5.82.4.82.4s-.02.78-.3 1.12c0 0-.2.12-.47-.44l-.2.5-.82-.1s.48.67.82.52l-.53.4.84.06s.03.75.03.67c0-.07-.9.03-1.4-.43-.5-.46-.8-.82-1.08-1-.3-.16-.75-.64-1.08-.93-.34-.3-1.26-.22-1.45-.63 0 0 .34.5.63.55.3.05.55.5.55.5s-.3 0-.72-.26c-.43-.26-.77-.67-1.2-.55 0 0 .36.27.5.58 0 0-.14-.16-.5-.16-.37 0-.27-.2-.4-.44-.16-.24-.67-.2-.86-.24-.2-.02-.12-.53-.72-.7-.6-.17-.87.03-1.37-.26-.5-.3-.75-.65-1.23-.36 0 0 .5.2.8.5.28.3 1.03.87 1.5.94.5.07.66.36.95.6 0 0-.55-.2-1.08-.28-.53-.1-.6-.22-.97-.5-.36-.25-.6 0-.6 0s.38.1.7.5c.3.4.87.57 1.2.57.34 0 .94.24 1.16.5.22.28.5.28.5.28s-.4-.03-.84-.1c-.43-.07-.62.14-.94-.12-.3-.26.15.3.53.37.4.07.86.22 1.2.34.33.13.57.27.57.27s-.7.34-1.04.2c-.33-.15-.43.14-.74.2-.33.08-.7-.04-.7-.04s.28.44.7.4c.45-.06 1 .1 1.53-.06.53-.14 1.1-.17 1.37-.14.27.02 1.28.26 1.64.38.36.13.65.7.65.7s-.4 0-.56.23c0 0 .3.04.55.24.23.2.47.36.57.3.1-.1-.3.57.15.64 0 0-.05.85.28.85 0 0-.96-.36-1.4-.02 0 0 .5 0 .73.24.22.24.3.6.84.6 0 0-.17.94.46 1.1 0 0-.12.5.14.6 0 0-.7.2-.9.08 0 0 .62.73 1.27.53.65-.2.1.46.77.4.68-.08.22.74 1.14.54 0 0-.24.32-.4.63-.18.3.66.12 1.17-.22.52-.34 1.1-.05 1.67-.12.58-.06.08.42.08.42l1.18-.53s1-.6 1.56-.44c.55.14-.5.17-.5.17s.76.26.83.24c.07-.03-.4.46-.15.9 0 0-.8.3-.6.8 0 0-.48.03-.67-.16-.2-.18-.33-.57-.33-.57s-.1.48.22.87c.3.38.18.65.18.65s-.67-.1-.87-.4c0 0 .5.9 1 1.02 0 0-.02.9.46 1.38 0 0-1.18.3-1.6.14-.43-.15-.76-.34-.76-.34s.2.62.8.62c.57 0 1.27.24 1.87.07.6-.16-.8.46.17.4 0 0-.36.52.63.06.98-.45.84.1.48.25s-1.66.48-2 .4c-.34-.1-.5-.5.02-.64 0 0-.46-.18-.7.16-.24.33.32 1.03 1.04.96.73-.07 1.48-.4 1.48-.4s1.64-.2.96.16c-.67.36-1.1.7-1.5.55-.38-.14.25.53 1.67-.3 0 0 .7.04.06.28-.65.25-1.47.5-1.83.47-.36-.03-.53.2.12.26.65.07 1.42-.02 2.14-.46.72-.43 1.27-.48.72 0-.56.5-1.23.68-1.23.68s.66.36 1.26-.07c0 0-1 .4-1.5.38-.47-.02.3.53 1.53-.05 1.22-.56.95-.78 1.46-.95.5-.17 1.76-.4 2.3-.34.52.1.83-.6 1.5-.35.68.24.82-.3 1.14.22.3.53.3.48.5.67.2.2.17.2.15.6-.03.4.24.4.5.6.27.22.37.47.37.47"/></g><g><path fill="#fff" d="M26.14 23.33c.43-.1.94-.3 1.2-.5.27-.22 1.33-.9 1.14-1.16-.2-.27-.46-.85-.9-.4-.42.42-1.44 1.38-1.87 1.36-.42-.02.44.7.44.7"/></g><g><path fill="#fff" d="M26.3 23.8c.37-.42 2.03-.98 2.66-1.1.64-.1 1.1-.26 1.38 0 .28.27-.17.48-.17.48s.7-.2.62-.5c0 0 .56.34 0 .65 0 0 .67.02.67-.53 0 0 .5.02.9-.36.37-.4.1-.58.1-.58s-.04.6-.7.53c-.64-.08-1.1-.32-1.8-.3-.7.02-2.62 1-3.68 1.04-1.07.02 0 .67 0 .67"/></g></g></g></g></svg>