<svg xmlns="http://www.w3.org/2000/svg" viewBox="0 0 45 45" enable-background="new 0 0 45 45"><defs><clipPath id="a"><path d="M0 36h36V0H0v36z"/></clipPath></defs><g><g><g clip-path="url(#a)" transform="matrix(1.25 0 0 -1.25 0 45)"><g><path fill="#002b7f" d="M36 9c0-2.2-1.8-4-4-4H4C1.8 5 0 6.8 0 9v18c0 2.2 1.8 4 4 4h28c2.2 0 4-1.8 4-4V9z"/></g><path fill="#eee" d="M36 9H0v18h36V9z"/><path fill="#ce1225" d="M36 13H0v10h36V13z"/><g><path fill="#eee" d="M12 18c0-2.2-1.57-4-3.5-4S5 15.8 5 18s1.57 4 3.5 4 3.5-1.8 3.5-4"/></g><g><path fill="#f4cb58" d="M10.27 16.5c0-.83-.8-2.08-1.77-2.08-.98 0-1.77 1.25-1.77 2.08 0 .83.8 1.5 1.77 1.5.98 0 1.77-.67 1.77-1.5"/></g><g><path fill="#dca841" d="M11 16.5c0-.83-1.12-1.5-2.5-1.5S6 15.67 6 16.5 7.12 18 8.5 18s2.5-.67 2.5-1.5"/></g><g><path fill="#89c5e4" d="M10 20c0-.55-.67-1-1.5-1S7 19.45 7 20s.67 1 1.5 1 1.5-.45 1.5-1"/></g><g><path fill="#088930" d="M10 17.5c0-1.38-.67-2.5-1.5-2.5S7 16.12 7 17.5 7.67 20 8.5 20s1.5-1.12 1.5-2.5"/></g><g><path fill="#dca841" d="M10 19.5c0-.28-.67-.5-1.5-.5s-1.5.22-1.5.5.67.5 1.5.5 1.5-.22 1.5-.5"/></g><g><path fill="#89c5e4" d="M10 18c0-1.1-.67-2-1.5-2S7 16.9 7 18s.67 1.5 1.5 1.5S10 19.1 10 18"/></g><g><path fill="#dca841" d="M10 17.5c0-.28-.67-.5-1.5-.5s-1.5.22-1.5.5.67.5 1.5.5 1.5-.22 1.5-.5"/></g></g></g></g></svg>