<svg xmlns="http://www.w3.org/2000/svg" viewBox="0 0 45 45" enable-background="new 0 0 45 45"><defs><clipPath id="a"><path d="M0 36h36V0H0v36z"/></clipPath><clipPath id="b"><path d="M4 31c-2.2 0-4-1.8-4-4v-9h19v13H4z"/></clipPath><clipPath id="c"><path d="M0 36h36V0H0v36z"/></clipPath></defs><g><g><g clip-path="url(#a)" transform="matrix(1.25 0 0 -1.25 0 45)"><g><path fill="#00247d" d="M36 9c0-2.2-1.8-4-4-4H4C1.8 5 0 6.8 0 9v18c0 2.2 1.8 4 4 4h28c2.2 0 4-1.8 4-4V9z"/></g><g><path fill="#00247d" d="M19 31H4c-2.2 0-4-1.8-4-4v-9h19v13z"/></g><g><path fill="#eee" d="M19 18v2.03L11.9 25H6.67l10-7H19z"/></g><g><path fill="#cf1b2b" d="M19 19.42L11.03 25H9.3l9.7-6.8v1.22z"/></g><g><path fill="#eee" d="M8.1 25L0 19.23V18h3.33l10 7H8.1z"/></g><g><path fill="#cf1b2b" d="M10.7 25L.74 18h1.73l10 7H10.7z"/></g><g><path fill="#eee" d="M16.67 31l-10-7h5.23l7.1 4.97V31h-2.33z"/></g><g><path fill="#cf1b2b" d="M17.54 31l-10-7H9.3l9.7 6.8v.2h-1.46z"/></g></g></g><g><g clip-path="url(#b)" transform="matrix(1.25 0 0 -1.25 12.5 15)"><g><path fill="#eee" d="M0 0h3.33l-10 7H-9l-.63-1.6L0-1.32V0z"/></g><g><path fill="#cf1b2b" d="M0 0h.7L-9 6.8l-.5-.86L0-.72V0z"/></g></g></g><g><g clip-path="url(#c)" transform="matrix(1.25 0 0 -1.25 0 45)"><g><path fill="#eee" d="M19 27h-7v4H7v-4H0v-5h7v-4h5v4h7v5z"/></g><path fill="#cf1b2b" d="M11 18H8v13h3V18z"/><path fill="#cf1b2b" d="M19 23H0v3h19v-3z"/><g><path fill="#fff" d="M27.8 24.22l.82.6h-1l-.32.94-.3-.95h-1l.8-.58-.3-.96.8.6.8-.6-.3.96z"/></g><g><path fill="#fff" d="M30.36 23.48l1 .2-.93.4.1 1-.67-.74-.9.4.5-.86-.68-.74.98.2.5-.86.1 1z"/></g><g><path fill="#fff" d="M32.42 21.7l.98-.2-.68.75.5.87-.9-.4-.68.74.1-1-.9-.4.97-.22.12-1 .5.87z"/></g><g><path fill="#fff" d="M33.56 19.3l.8-.57-.3.95.8.6h-1l-.3.94-.32-.95h-1l.82-.6-.3-.95.8.6z"/></g><g><path fill="#fff" d="M33.64 16.62l.5-.86.1 1 1 .2-.93.4.1 1-.66-.74-.9.4.5-.86-.68-.75.98.22z"/></g><g><path fill="#fff" d="M32.6 14.18l.1-1 .5.87 1-.2-.68.74.5.86-.92-.4-.67.73.1-1-.9-.4.97-.22z"/></g><g><path fill="#fff" d="M30.66 12.3l-.3-.96.8.6.82-.6-.3.96.8.6h-1l-.32.94-.3-.95-1-.02.8-.58z"/></g><g><path fill="#fff" d="M28.14 11.42l-.67-.75 1 .2.5-.85.1 1 .97.2-.92.4.1 1-.66-.74-.92.4.5-.86z"/></g><g><path fill="#fff" d="M24.24 23.48l-.98.2.9.4-.1 1 .68-.74.92.4-.5-.86.67-.74-1 .2-.5-.86-.1 1z"/></g><g><path fill="#fff" d="M22.2 21.7l-1-.2.68.75-.5.87.9-.4.7.74-.12-1 .92-.4-1-.22-.1-1-.5.87z"/></g><g><path fill="#fff" d="M21.04 19.3l-.8-.57.3.95-.8.6h1l.3.94.32-.95h1l-.8-.6.3-.95-.82.6z"/></g><g><path fill="#fff" d="M20.96 16.62l-.5-.86-.1 1-1 .2.93.4-.1 1 .66-.74.92.4-.5-.86.66-.75-.98.22z"/></g><g><path fill="#fff" d="M22 14.18l-.1-1-.5.87-1-.2.68.74-.5.86.92-.4.67.73-.1-1 .9-.4-.97-.22z"/></g><g><path fill="#fff" d="M23.94 12.3l.3-.96-.8.6-.82-.6.3.96-.8.6h1l.32.94.3-.95 1-.02-.8-.58z"/></g><g><path fill="#fff" d="M26.46 11.42l.67-.75-.98.2-.5-.85-.1 1-1 .2.93.4-.1 1 .67-.74.9.4-.5-.86z"/></g></g></g></g></svg>