<?xml version="1.0" encoding="UTF-8" standalone="no"?><svg xmlns:dc="http://purl.org/dc/elements/1.1/" xmlns:cc="http://creativecommons.org/ns#" xmlns:rdf="http://www.w3.org/1999/02/22-rdf-syntax-ns#" xmlns:svg="http://www.w3.org/2000/svg" xmlns="http://www.w3.org/2000/svg" viewBox="0 0 45 45" style="enable-background:new 0 0 45 45;" xml:space="preserve" version="1.1" id="svg2"><metadata id="metadata8"><rdf:RDF><cc:Work rdf:about=""><dc:format>image/svg+xml</dc:format><dc:type rdf:resource="http://purl.org/dc/dcmitype/StillImage"/></cc:Work></rdf:RDF></metadata><defs id="defs6"><clipPath id="clipPath16" clipPathUnits="userSpaceOnUse"><path id="path18" d="M 0,36 36,36 36,0 0,0 0,36 Z"/></clipPath></defs><g transform="matrix(1.25,0,0,-1.25,0,45)" id="g10"><g id="g12"><g clip-path="url(#clipPath16)" id="g14"><g transform="translate(0,9)" id="g20"><path id="path22" style="fill:#da0001;fill-opacity:1;fill-rule:nonzero;stroke:none" d="m 0,0 c 0,-2.209 1.791,-4 4,-4 l 28,0 c 2.209,0 4,1.791 4,4 L 36,4 0,4 0,0 Z"/></g><path id="path24" style="fill:#eeeeee;fill-opacity:1;fill-rule:nonzero;stroke:none" d="M 0,13 36,13 36,23 0,23 0,13 Z"/><g transform="translate(36,23)" id="g26"><path id="path28" style="fill:#239f40;fill-opacity:1;fill-rule:nonzero;stroke:none" d="m 0,0 0,4 c 0,2.209 -1.791,4 -4,4 l -28,0 c -2.209,0 -4,-1.791 -4,-4 l 0,-4 36,0 z"/></g><path id="path30" style="fill:#e96667;fill-opacity:1;fill-rule:nonzero;stroke:none" d="m 36,12 -36,0 0,1 36,0 0,-1 z"/><g transform="translate(19.4648,21.0313)" id="g32"><path id="path34" style="fill:#be1931;fill-opacity:1;fill-rule:nonzero;stroke:none" d="M 0,0 C 0.957,-0.49 3.038,-2.953 0.798,-5.731 2.189,-5.423 3.96,-1.323 0,0"/></g><g transform="translate(16.5278,21.0313)" id="g36"><path id="path38" style="fill:#be1931;fill-opacity:1;fill-rule:nonzero;stroke:none" d="M 0,0 C -3.959,-1.323 -2.189,-5.423 -0.798,-5.731 -3.038,-2.953 -0.957,-0.49 0,0"/></g><g transform="translate(17.9814,21.1738)" id="g40"><path id="path42" style="fill:#be1931;fill-opacity:1;fill-rule:nonzero;stroke:none" d="M 0,0 C 0.04,-0.197 1.101,-0.436 0.974,0.573 0.806,0.165 0.319,0.177 0.006,0.366 -0.426,0.125 -0.829,0.185 -0.982,0.593 -1.13,-0.161 -0.395,-0.382 0,0"/></g><g transform="translate(20.5381,18.0957)" id="g44"><path id="path46" style="fill:#be1931;fill-opacity:1;fill-rule:nonzero;stroke:none" d="m 0,0 c -0.015,1.248 -0.677,2.352 -1.329,2.799 0.43,-0.527 1.752,-3.436 -0.785,-5.351 l 0.047,5.097 -0.475,0.418 -0.475,-0.399 0.08,-5.145 c -0.007,0.006 -0.011,0.01 -0.018,0.015 -2.563,1.914 -1.233,4.837 -0.802,5.365 C -4.41,2.352 -5.072,1.248 -5.086,0 c -0.013,-1.071 0.477,-2.242 1.834,-3.205 -0.559,-0.149 -1.162,-0.208 -1.678,-0.2 0.465,-0.253 1.34,-0.192 2.008,-0.131 l 0.001,-0.068 0.398,-0.437 0.399,0.455 0,0.053 c 0.673,-0.062 1.567,-0.129 2.039,0.128 -0.532,-0.008 -1.158,0.052 -1.732,0.213 C -0.473,-2.232 0.013,-1.066 0,0"/></g><path id="path48" style="fill:#7bc58c;fill-opacity:1;fill-rule:nonzero;stroke:none" d="m 36,23 -36,0 0,1 36,0 0,-1 z"/></g></g></g></svg>
