<svg xmlns="http://www.w3.org/2000/svg" viewBox="0 0 45 45" enable-background="new 0 0 45 45"><defs><clipPath id="a"><path d="M0 36h36V0H0v36z"/></clipPath></defs><g><g><g clip-path="url(#a)" transform="matrix(1.25 0 0 -1.25 0 45)"><g><path fill="#008000" d="M36 9c0-2.2-1.8-4-4-4H4C1.8 5 0 6.8 0 9v18c0 2.2 1.8 4 4 4h28c2.2 0 4-1.8 4-4V9z"/></g><g><path fill="#ffe000" d="M30.53 16.34l.17-.58h.6l-.48-.36.17-.57-.47.36-.46-.35.17.55-.47.36h.57l.2.58z"/></g><g><path fill="#ffe000" d="M29 22.84l-.68-.62.07.92-.93.14.77.52-.46.8.88-.27.34.86.34-.87.88.27-.46-.8.76-.52-.9-.14.06-.92-.68.62z"/></g><g><path fill="#ffe000" d="M25.38 17.53l-.68-.63.06.92-.9.14.75.53-.45.8.9-.28.33.86.33-.86.9.27-.46-.8.76-.54-.9-.14.05-.92-.68.63z"/></g><g><path fill="#ffe000" d="M32.5 17.97l-.7-.63.07.92-.9.14.75.53-.46.8.9-.27.33.86.32-.86.9.27-.47-.8.76-.53-.9-.14.06-.92-.67.63z"/></g><g><path fill="#ffe000" d="M28.94 10.23l-.68-.63.07.92-.92.14.78.53-.46.8.88-.28.34.86.34-.86.88.27-.46-.8.76-.54-.9-.14.06-.92-.68.63z"/></g><g><path fill="#ffe000" d="M20.37 14.06c-2.18 0-3.94 1.77-3.94 3.94 0 2.18 1.76 3.94 3.94 3.94.82 0 1.6-.26 2.22-.7-.9 1.05-2.24 1.7-3.73 1.7-2.73 0-4.94-2.2-4.94-4.94 0-2.73 2.2-4.95 4.94-4.95 1.5 0 2.82.66 3.73 1.7-.64-.43-1.4-.7-2.23-.7"/></g><g><path fill="#ffe000" d="M11.97 24c0-2.8-2.27-5.1-5.08-5.1-2.82 0-5.1 2.3-5.1 5.1s2.28 5.1 5.1 5.1c2.8 0 5.07-2.3 5.07-5.1"/></g><g><path fill="#802000" d="M7.14 20H6s.38.35.58.67c.2.32.97 2 .88 3.56-.1 1.54.18 1.3.27.36.1-.93 0-2.82-.16-3.37-.16-.55-.34-.9-.1-.97.22-.07.3-.26.3-.26h-.63z"/></g><g><path fill="#008000" d="M5.18 27.08h.7l1.4-1.35-.47.87.44.27.13 1.08 1.2.1-.17-.6.62-.32-.7-1 1.52.14-.3-.9h.83l.34-1.1-1.98.15 1-.74v-1.14L7.6 24.5l-.17-.82-.13-.83-.46-.14-.1.64-.48-.8h-.64l.62 2.25-3.2-.6.86 1.02 1.68.34-1.5.78 2.2-.4-2.26 1.14h1.14z"/></g></g></g></g></svg>