<svg xmlns="http://www.w3.org/2000/svg" viewBox="0 0 45 45" enable-background="new 0 0 45 45"><defs><clipPath id="a"><path d="M0 36h36V0H0v36z"/></clipPath></defs><g><g><g clip-path="url(#a)" transform="matrix(1.25 0 0 -1.25 0 45)"><g><path fill="#d01c3a" d="M36 9c0-2.2-1.8-4-4-4H4C1.8 5 0 6.8 0 9v18c0 2.2 1.8 4 4 4h28c2.2 0 4-1.8 4-4V9z"/></g><g><path fill="#0020a8" d="M4 31c-2.2 0-4-1.8-4-4V9c0-2.2 1.8-4 4-4h8v26H4z"/></g><path fill="#fedf00" d="M24 5H12v26h12V5z"/><g><path fill="#c7b37f" d="M23.04 16.36c-.16.47-.57.38-.57.22 0 0-.54.4-.13 1.1 0 0 .78-.08.33.52 0 0 .68.38.7 1.17.02.8-.88 1.28-1.26.97 0 0 0 .3-.17.3-.15 0-.24-.2-.24-.2s0 .53.35.82c.33.3 1.03 1.08-.43 1.53-1.46.44-1.53-.5-1.3-.7 0 0-.36-.2-.77-.17-.4.02-.1.5-.02.7.1.2.02.92-.47.9-.5-.03-.52-.23-.7-.3-.18-.06-.36-.02-.36-.02s-.18-.03-.36.04c-.18.06-.2.26-.7.3-.5 0-.56-.7-.47-.9.1-.2.38-.7-.02-.7-.4-.03-.76.17-.76.17.2.2.14 1.14-1.32.7-1.46-.46-.76-1.25-.42-1.54.33-.3.36-.8.36-.8s-.1.2-.25.2c-.16 0-.18-.32-.18-.32-.4.3-1.3-.18-1.27-.97.02-.8.7-1.17.7-1.17-.45-.6.33-.5.33-.5.4-.73-.13-1.12-.13-1.12 0 .16-.4.25-.56-.22-.16-.47.3-.63.3-.63-.62-.8-.2-1.57.4-2.02.6-.44 1.77-.37 2.35-.42.6-.04.7-.34.7-.34-.45-.42.22-.76.22-.76.14-.45.68.04.68.04l.38-.33.38.32s.54-.5.68-.04c0 0 .67.34.22.76 0 0 .1.3.7.34.58.05 1.75-.02 2.36.43.6.46 1 1.22.38 2.03 0 0 .47.16.32.63"/></g><path fill="#d01c3a" d="M17.82 21.32h-2.97v-2.96h2.97v2.96z"/><g><path fill="#fedf00" d="M15.93 19.5l-.88-.92.14-.15.73.82v.24z"/></g><g><path fill="#fedf00" d="M17.38 20.65s.4-.1.4.25-.24.35-.32.35c-.08 0-.44-.06-.45-.2 0-.15.15-.24.07-.32-.08-.08-.3-.27-.3-.27l.13-.16s.2.16.34.37c.07.1 0 .38.1.4.2.04.28-.06.27-.14 0-.08-.14-.16-.14-.16l-.08-.12z"/></g><g><path fill="#fff" d="M16.65 19.1s.06-.43.26-.45c.2-.02.28.65.6.65.34 0 .38-.58 0-.67l-.04.17s.24.23.07.27c-.17.03-.25-.18-.27-.27-.02-.1-.16-.33-.36-.33-.34 0-.38.3-.43.55-.05.24.18.07.18.07"/></g><g><path fill="#fff" d="M16.05 19.1s-.05-.43-.26-.45c-.2-.02-.28.65-.6.65-.34 0-.37-.58 0-.67l.04.17s-.23.23-.06.27c.16.03.24-.18.27-.27.02-.1.15-.33.36-.33.34 0 .4.3.44.55.05.24-.2.07-.2.07"/></g><g><path fill="#fff" d="M16.4 21.2l.86-1.1-.43-1.18s-.18.1-.44.1c-.27 0-.47-.1-.47-.1l-.46 1.2.92 1.08z"/></g><g><path fill="#fedf00" d="M16.47 20.82l.6-.73-.3-.93-.3.1v1.55z"/></g><g><path fill="#fedf00" d="M16.27 20.82l-.6-.73.3-.93.3.1v1.55z"/></g><g><path fill="#fedf00" d="M14.85 18.1v-1.85c0-1.22.9-1.38 1.65-1.22.62.14 1.32 0 1.32 0v3.06h-2.97z"/></g><g><path fill="#d01c3a" d="M16.5 15.03c.02 0 .04 0 .06.02v3.04h-.45v-3.12c.14 0 .27.03.4.05"/></g><g><path fill="#d01c3a" d="M17.46 15.08v3H17v-3c.18.02.33 0 .46 0"/></g><g><path fill="#d01c3a" d="M15.66 15.02v3.07h-.45v-2.85c.14-.12.3-.2.46-.23"/></g><path fill="#fedf00" d="M18.18 21.32h2.97v-2.96h-2.97v2.96z"/><path fill="#d01c3a" d="M19 18.36h-.46v2.97H19v-2.97z"/><path fill="#d01c3a" d="M19.9 18.36h-.46v2.97h.45v-2.97z"/><path fill="#d01c3a" d="M20.8 18.36h-.46v2.97h.45v-2.97z"/><g><path fill="#fedf00" d="M21.15 18.1v-1.85c0-1.22-.9-1.38-1.65-1.22-.62.14-1.32 0-1.32 0v3.06h2.97z"/></g><g><path fill="#d01c3a" d="M18.63 17.6l.28.22h.36v-.18s.5 0 .9.05c.4.03.53-.27.4-.35-.12-.08.02-.38 0-.53-.02-.15-.3-.36-.22-.24.06.13 0 .46 0 .46s-.08-.25-.15-.33c-.08-.07-.3-.08-.22 0 .1.05.18.2.1.28-.08.08-.43.1-.45.05 0-.03-.08-.42-.12-.45-.04-.02-.1.04-.06.16.03.13 0 .34 0 .34s-.24 0-.23-.1c.02-.1.13-.14.1-.22-.02-.07-.17-.18-.18-.04 0 .13-.23.22-.13.3.1.06.2.16.2.16s-.14.03-.23.16c-.1.12-.16.1-.34.1-.1 0 0 .16 0 .16"/></g><g><path fill="#d01c3a" d="M18.63 16.25l.28.22h.36v-.18s.5 0 .9.04.53-.26.4-.34c-.12-.08.02-.38 0-.53-.02-.14-.3-.36-.22-.23.06.12 0 .46 0 .46s-.08-.26-.15-.34c-.08-.08-.3-.1-.22-.02.1.06.18.2.1.3-.08.07-.43.08-.45.05 0-.05-.08-.44-.12-.46-.04-.03-.1.03-.06.15.03.12 0 .33 0 .33s-.24 0-.23-.1c.02-.1.13-.14.1-.2-.02-.1-.17-.2-.18-.06 0 .14-.23.23-.13.3.1.06.2.17.2.17s-.14.03-.23.15c-.1.1-.16.1-.34.1-.1 0 0 .15 0 .15"/></g><g><path fill="#af9167" d="M14.63 14.8c0-.02 1.65-.47 1.84-.5.18-.04.1-.42-.13-.4-.25.02-1.47.3-1.63.37-.15.08-.07.54-.07.54"/></g><g><path fill="#af9167" d="M16.9 14.25s.5-.06.92-.08c.43-.02.72.02.72.02l.3-.42s-.53-.06-.9-.06c-.34 0-.93.06-.93.06l-.1.47z"/></g><g><path fill="#af9167" d="M19.06 14.25s.7.13 1.13.23c.42.1.98.3 1.13.33.14.03.24-.23.3-.27l.03-.04s-.74-.35-1.1-.46c-.36-.1-1.5-.25-1.5-.25s-.17.42 0 .45"/></g></g></g></g></svg>