<svg xmlns="http://www.w3.org/2000/svg" viewBox="0 0 45 45" enable-background="new 0 0 45 45"><defs><clipPath id="a"><path d="M0 36h36V0H0v36z"/></clipPath></defs><g><g><path fill="#cc212d" d="M24.85 25.74l-2.35-1.7-2.35 1.7.9-2.77-2.36-1.7h2.9l.9-2.77.9 2.76h2.9l-2.35 1.7.9 2.78zm-9.85 13h15V6.25H15v32.5z"/></g><g><g clip-path="url(#a)" transform="matrix(1.25 0 0 -1.25 0 45)"><g><path fill="#288541" d="M4 31c-2.2 0-4-1.8-4-4V9c0-2.2 1.8-4 4-4h8v26H4z"/></g><g><path fill="#fee833" d="M32 31h-8V5h8c2.2 0 4 1.8 4 4v18c0 2.2-1.8 4-4 4"/></g><g><path fill="#fee833" d="M18.72 19L18 21.2l-.72-2.2h-2.33l1.9-1.38-.73-2.2L18 16.77l1.88-1.37-.72 2.22L21.04 19h-2.32z"/></g></g></g></g></svg>