<svg xmlns="http://www.w3.org/2000/svg" viewBox="0 0 45 45" enable-background="new 0 0 45 45"><defs><clipPath id="a"><path d="M0 36h36V0H0v36z"/></clipPath></defs><g><g><g clip-path="url(#a)" transform="matrix(1.25 0 0 -1.25 0 45)"><g><path fill="#006233" d="M4 31c-2.2 0-4-1.8-4-4V9c0-2.2 1.8-4 4-4h14v26H4z"/></g><g><path fill="#eee" d="M32 31H18V5h14c2.2 0 4 1.8 4 4v18c0 2.2-1.8 4-4 4"/></g><g><path fill="#d20f34" d="M20 12c-3.3 0-6 2.7-6 6s2.7 6 6 6c1.3 0 2.52-.42 3.5-1.14-1.34 1.53-3.3 2.5-5.5 2.5-4.06 0-7.35-3.3-7.35-7.36 0-4.06 3.3-7.35 7.35-7.35 2.2 0 4.16.96 5.5 2.5-.98-.72-2.2-1.15-3.5-1.15"/></g><g><path fill="#d20f34" d="M25.3 17.77l-2.44-.56-.22-2.5-1.3 2.16-2.43-.56 1.66 1.9-1.3 2.13 2.3-.98 1.66 1.9-.22-2.5 2.3-.98z"/></g></g></g></g></svg>