<svg xmlns="http://www.w3.org/2000/svg" viewBox="0 0 45 45" enable-background="new 0 0 45 45"><defs><clipPath id="a"><path d="M0 36h36V0H0v36z"/></clipPath></defs><g><g><g clip-path="url(#a)" transform="matrix(1.25 0 0 -1.25 0 45)"><g><path fill="#ce1b26" d="M36 9c0-2.2-1.8-4-4-4H4C1.8 5 0 6.8 0 9v18c0 2.2 1.8 4 4 4h28c2.2 0 4-1.8 4-4V9z"/></g><g><path fill="#003e87" d="M.55 29C.2 28.4 0 27.73 0 27V9c0-.73.2-1.4.55-2h34.9c.34.6.55 1.27.55 2v18c0 .73-.2 1.4-.55 2H.55z"/></g><g><path fill="#fff" d="M8 18c0 5.52 4.48 10 10 10s10-4.48 10-10S23.52 8 18 8 8 12.48 8 18"/></g><g><path fill="#730900" d="M9 18c0 4.97 4.03 9 9 9s9-4.03 9-9-4.03-9-9-9-9 4.03-9 9"/></g><g><path fill="#fff" d="M9.26 18c0 4.83 3.9 8.74 8.74 8.74 4.83 0 8.74-3.9 8.74-8.74 0-4.83-3.9-8.74-8.74-8.74-4.83 0-8.74 3.9-8.74 8.74"/></g><g><path fill="#007f00" d="M18 9.66c-.28 0-.5-.3-.5-.66 0-.36.22-.66.5-.66s.5.3.5.66c0 .36-.22.66-.5.66M18.5 27c0-.36-.22-.66-.5-.66s-.5.3-.5.66c0 .36.22.66.5.66s.5-.3.5-.66"/></g><g><path fill="#007f00" d="M20.16 26.06c.27-.07.57.15.66.5.1.35-.05.7-.32.77-.27.07-.57-.15-.66-.5-.1-.36.05-.7.32-.77M15.18 9.44c.1.35.4.57.66.5.27-.07.42-.4.32-.77-.1-.35-.4-.57-.66-.5-.27.08-.4.42-.32.77"/></g><g><path fill="#007f00" d="M22.17 25.23c.25-.14.6 0 .77.3.18.32.13.7-.1.83-.26.14-.6 0-.78-.3-.18-.32-.13-.7.1-.83m-9.1-14.77c.18.32.52.46.77.32.24-.15.3-.5.1-.83-.17-.3-.5-.45-.76-.3-.24.13-.3.5-.1.8"/></g><g><path fill="#007f00" d="M23.9 23.9c.2-.2.57-.15.82.1.26.26.3.63.1.83-.2.2-.56.15-.82-.1-.25-.26-.3-.63-.1-.83M11.28 12c.25.25.62.3.82.1.2-.2.15-.57-.1-.82-.26-.26-.63-.3-.83-.1-.2.2-.15.56.1.82"/></g><g><path fill="#007f00" d="M25.23 22.17c.14-.24.5-.3.82-.1.3.17.45.5.3.76-.13.24-.5.3-.8.1-.33-.17-.47-.5-.32-.76M9.95 13.94c.3.18.68.13.82-.1.14-.26 0-.6-.3-.78-.32-.18-.7-.13-.83.1-.14.26 0 .6.3.78"/></g><g><path fill="#007f00" d="M26.06 20.16c.07-.27.4-.42.77-.32.35.1.57.4.5.66-.08.27-.42.42-.77.32-.35-.1-.57-.4-.5-.66m-16.9-4c.37.1.7-.05.78-.32.07-.27-.15-.57-.5-.66-.35-.1-.7.05-.77.32-.07.27.15.57.5.66"/></g><g><path fill="#007f00" d="M26.34 18c0-.28.3-.5.66-.5.36 0 .66.22.66.5s-.3.5-.66.5c-.36 0-.66-.22-.66-.5M9 18.5c.36 0 .66-.22.66-.5s-.3-.5-.66-.5c-.36 0-.66.22-.66.5s.3.5.66.5"/></g><g><path fill="#007f00" d="M26.06 15.84c-.07-.27.15-.57.5-.66.35-.1.7.05.77.32.07.27-.15.57-.5.66-.36.1-.7-.05-.77-.32M9.44 20.82c.35-.1.57-.4.5-.66-.07-.27-.4-.42-.77-.32-.35.1-.57.4-.5.66.08.27.42.4.77.32"/></g><g><path fill="#007f00" d="M25.23 13.83c-.14-.24 0-.6.3-.77.32-.18.7-.13.83.1.14.26 0 .6-.3.78-.32.18-.7.13-.83-.1m-14.77 9.1c.32-.18.46-.52.32-.77-.15-.24-.5-.3-.83-.1-.3.17-.45.52-.3.76.13.24.5.3.8.1"/></g><g><path fill="#007f00" d="M23.9 12.1c-.2-.2-.15-.57.1-.82.26-.26.63-.3.83-.1.2.2.15.56-.1.82-.26.25-.63.3-.83.1M12 24.72c.25-.25.3-.62.1-.82-.2-.2-.57-.15-.82.1-.26.26-.3.63-.1.83.2.2.56.15.82-.1"/></g><g><path fill="#007f00" d="M22.17 10.77c-.24-.14-.3-.5-.1-.82.17-.3.5-.45.76-.3.24.13.3.5.1.8-.17.33-.5.47-.76.32m-8.23 15.28c.18-.3.13-.68-.1-.82-.26-.14-.6 0-.78.3-.18.32-.13.7.1.83.26.14.6 0 .78-.3"/></g><g><path fill="#007f00" d="M20.16 9.94c-.27-.07-.42-.4-.32-.77.1-.35.4-.57.66-.5.27.08.42.42.32.77-.1.35-.4.57-.66.5m-4 16.9c.1-.36-.05-.7-.32-.78-.27-.07-.57.15-.66.5-.1.35.05.7.32.77.27.07.57-.15.66-.5"/></g><g><path fill="#b34b00" d="M14.96 23.8l1-1.7h1.08l.5-.38.3-1.04-1.1.47 1-.82-.23-.82h.84v1.47l1.35.83-.23.16-1.12-.62-.13.9-.2.23.68.85-.35.14-.52-.77-.08.62.08.77s-.35.27-.32.18c.05-.1 0-.68 0-.68l-.64.7-.3-.12.65-.58-.74-.57-.93.25.18.94h-.18l-.16-.88-.16.75-.24-.42"/></g><path fill="#b34b00" d="M18.66 23.9h-.2v.8h.2v-.8z"/><path fill="#b34b00" d="M19.86 24.1h-.27v.45h.26v-.44z"/><g><path fill="#fff" d="M16.16 22.84c.03-.08.18-.48.18-.48l1.04-.1.45-.46-.18.52-.27.6-1.22-.08z"/></g><g><path fill="#289400" d="M14.98 24.7c.63.37 1.04-.26 1.04-.26s.26.8 1.04.85c.77.04.77-.3.77-.3s.17.5 1.2.3c1.04-.2 1-.55.84-.7-.18-.14-1.75-.05-1.75-.05s.17-.3.18-.44c.02-.1.58.25 1.47 0 0 0 .43.77 1.1.37.67-.4 1.1-1.15.94-1.37-.15-.2-1.35-.07-1.48.07 0 0-.24-.4-.8-.32-.57.07-1.5.67-1.5.67l-.2.3s-.43.33-.96.35c-.53.02-.9 0-.9 0s-.35-.42-.76-.47c-.42-.06-.85-.04-.85-.04s-.1.6.63 1.03"/></g><g><path fill="#289400" d="M15.7 23.54c1.05.16 1.74 0 1.8-.5.08-.52-.77-.42-.94-.44-.17-.02-1.16-.36-1.5-.35-.3.02-.98.35-.5.82.5.47 1.15.47 1.15.47"/></g><g><path fill="#289400" d="M19.7 22.6c1-.22 1.5-.78 1.26-1.02-.24-.23-.84-.2-1.4 0-.53.2-1.3.06-1.46.44-.18.38.43.87 1.6.6"/></g><g><path fill="#289400" d="M19.34 21.3c.78-.1.8-.8.68-.92-.13-.13-1.32.03-1.6.36-.26.32.15.7.92.57"/></g><g><path fill="#289400" d="M16.46 21.66c.96.36 1.38-.06 1.37-.44 0-.38-.83-.36-1.14-.5-.33-.15-.9-.33-1.1-.1-.2.2.1.75.86 1.04"/></g><g><path fill="#adadad" d="M15.8 11.66c-.28-.26-.7-.82.2-1 .86-.16.52.7.34.85-.2.15-.55.16-.55.16"/></g><g><path fill="#69f" d="M16.23 11.42c0-.06.12-.3 0-.45-.13-.15-.35-.26-.55-.24 0 0 .85-.14 1.03-.24.2-.1.36.18.27.55-.1.38-.74.37-.74.37"/></g><g><path fill="#eee" d="M18 11.8v-.9s-.73-.02-1.57.3c-.85.33-1.02.5-1.02.5s-.7-.23-1.05-.23c-.35 0-.45.13-.58.34-.13.23-.34.66-.36.8 0 .12.4.57.88.57.46 0 1.1-.38 1.1-.38s.3.28.76.03c.47-.26.74-.33.7-.8 0 0 .26-.13.5-.2.4-.1.67-.02.67-.02"/></g><g><path fill="#adadad" d="M15.46 12.73c.34-.23 1.07-.56 1.38-.7 0 0 .1.3-.17.48-.28.2-.68.35-.88.43-.2.08-.34-.2-.34-.2"/></g><g><path fill="#adadad" d="M15.6 11.66c-.5.44-.8.6-1.16.68-.36.07-.8-.06-.77-.34 0-.28.36-.57.68-.53.32.04 1.24.2 1.24.2"/></g><g><path fill="#69f" d="M15.6 12.63s0 .34.25.2c.23-.15.16-.4.16-.4l-.4.2z"/></g><g><path fill="#69f" d="M15.27 11.78s-.6.45-.9.45c-.26 0-.53-.02-.5-.23 0-.2.37-.3.57-.33.2-.04.83.1.83.1"/></g><g><path fill="#adadad" d="M20.24 11.66c.27-.26.67-.82-.2-1-.88-.16-.53.7-.35.85.18.15.54.16.54.16"/></g><g><path fill="#69f" d="M19.8 11.42c-.02-.06-.12-.3 0-.45.13-.15.35-.26.54-.24 0 0-.85-.14-1.03-.24-.17-.1-.33.18-.24.55.1.38.74.37.74.37"/></g><g><path fill="#eee" d="M18 11.8v-.9s.75-.02 1.6.3c.85.33 1.02.5 1.02.5s.72-.23 1.06-.23c.34 0 .45.13.58.34.12.23.34.66.36.8.02.12-.4.57-.87.57s-1.1-.38-1.1-.38-.3.28-.76.03c-.48-.26-.75-.33-.7-.8 0 0-.27-.13-.52-.2-.4-.1-.67-.02-.67-.02"/></g><g><path fill="#adadad" d="M20.57 12.73c-.35-.23-1.07-.56-1.38-.7 0 0-.12.3.16.48.27.2.68.35.88.43.2.08.33-.2.33-.2"/></g><g><path fill="#adadad" d="M20.43 11.66c.5.44.8.6 1.16.68.35.07.77-.06.76-.34 0-.28-.36-.57-.68-.53-.32.04-1.25.2-1.25.2"/></g><g><path fill="#69f" d="M20.43 12.63s0 .34-.25.2c-.23-.15-.16-.4-.16-.4l.4.2z"/></g><g><path fill="#69f" d="M20.76 11.78s.6.45.88.45.55-.02.53-.23c-.02-.2-.38-.3-.58-.33-.2-.04-.84.1-.84.1"/></g><g><path fill="#d3d3d3" d="M15.02 12.73c.42-.16 1.1-.9 0-.43-1.1.47-.65.7 0 .43"/></g><g><path fill="#d3d3d3" d="M16.48 11.87c.48-.13 1.28-.27 1.73-.27.46 0 .75-.47.2-.42-.57.06-1.72.18-2.12.34-.4.17-.2.46.2.35"/></g><g><path fill="#d3d3d3" d="M19.33 11.8c.5.28 1.47.88 1.8.95.32.08.7.04.68-.12-.03-.17-.23-.25-.53-.3-.3-.03-1.3-.86-1.94-.95-.63-.1 0 .43 0 .43"/></g><g><path fill="#289400" d="M13.05 14.72c1 .2 5.5.33 6.77.16 1.28-.16 4.08-.93 3.72-1.4-.36-.44-1.9-.4-2.8-.26-.88.15-1.23-.63-2.73-.65-1.48-.02-2.24.47-2.88.7-.63.24-1.53.1-2.07-.05-.54-.16-2.33 1.03 0 1.5"/></g><g><path d="M18 12.9v6.82h-2.64v-3.4c0-1.26.94-2.27 1.33-2.63.38-.37 1.3-.9 1.3-.9"/></g><g><path d="M18 12.9v6.82h2.67v-3.4c0-1.26-.94-2.27-1.33-2.63-.4-.37-1.33-.9-1.33-.9"/></g><g><path fill="#9ed7ff" d="M18 19.5h-2.37v-3.2c0-1.1.84-2.13 1.2-2.45.34-.33 1.18-.8 1.18-.8s.86.47 1.2.8c.35.32 1.2 1.34 1.2 2.46v3.2H18z"/></g><g><path fill="#006ac8" d="M16.46 14.25h3.1c.14.16.26.34.38.54H16.1c.1-.2.23-.4.36-.55"/></g><g><path fill="#5ac800" d="M16.46 14.25c.14-.18.27-.32.36-.4.07-.06.15-.13.24-.2h1.9c.1.07.18.14.25.2.1.08.23.22.37.4h-3.1z"/></g><g><path fill="#ffd801" d="M18 13.05s.58.3.97.6h-1.9c.38-.3.94-.6.94-.6"/></g><g><path fill="#fff" d="M15.82 15.34l2.2 1.95v2.2h-2.4v-3.2c0-.33.1-.66.2-.96"/></g><g><path fill="#ffd83c" d="M20.2 15.34c.12.3.2.63.2.97v3.2h-2.38v-2.2l2.18-1.96z"/></g><g><path fill="#b34b00" d="M17.7 17.67c-.04.05-.1.05-.12 0l-.07-.05-.46.47c.05.06.06.16 0 .2l-.95.95c-.07.06-.18.04-.26-.04-.07-.07-.1-.18-.03-.24l.97-.94c.04-.04.1-.04.16 0l.5-.5-.1-.1c-.05-.03-.05-.08 0-.1v-.02c.03-.03.08-.03.1 0l.27.26c.04.03.04.08 0 .1"/></g><g><path fill="#782121" d="M16.17 17.18c-.04-.05-.1-.06-.16-.02-.04.04-.05.1 0 .16L17 18.66c.03.05.1.06.15.02.05-.04.06-.1.02-.16l-1.03-1.34z"/></g><g><path fill="#d3d3d3" d="M17.44 18.46l-.6.38.28.45.6-.4-.28-.44z"/></g><g><path fill="#782121" d="M20 17.34c.04-.04.1-.04.16 0 .04.04.05.1 0 .15l-1.13 1.24c-.04.05-.1.05-.16 0-.04-.03-.05-.1 0-.15L20 17.33z"/></g><g><path fill="#fff" d="M18.58 18.27l.52.5-.37.38-.5-.5.35-.38z"/></g><g><path fill="#fff" d="M20.1 18.8l-1.33-1.3-.34.36 1.35 1.3.33-.36z"/></g><g><path fill="#b34b00" d="M16.7 15.4s.72-.33 1.34-.35c.63 0 .78.1.78.1l-.18-.36h-1.52l-.43.6z"/></g><g><path fill="#fff" d="M16.93 15.45l.38-.28h1.43l-.2.94-1.22-.05-.37-.6z"/></g><g><path fill="#892614" d="M14.22 22.26c.42.2 1.22.65 1.34.72.12.06.33-.18.14-.26-.2-.08-1.2-.68-1.48-.8-.28-.15 0 .34 0 .34"/></g><g><path fill="#fbd44d" d="M12.76 14.34c-.06-.4-.3-.8.16-.92.45-.13.54.3.4.67-.1.37-.56.24-.56.24"/></g><g><path fill="#fbd44d" d="M14.33 14.36c-.07-.16-.3-.53.14-.48.44.05.7.04.98 0 .27-.04.43.25.14.24-.3 0-.5.1-.62.36-.1.27-.65-.12-.65-.12"/></g><g><path fill="#fbd44d" d="M13.27 19.35l-.13.7s-.36-.37-.5-.55c-.12-.18-.37.08-.5.2-.16.12-.32.48-.36.78-.03.3-.4.5-.27.7.14.22.25.33.46.33.22 0 .27-.28.27-.28s.42-.05.26-.25c-.42-.5-.1-.58-.1-.58l.25.3s-.1.58 0 .7c.1.1.63.3.8.3.2.03.4.2.33.3-.08.1-.26.3-.26.54 0 .24-.08.74.44.67.53-.06.7-.4.57-.7-.15-.28-.22-.37-.16-.54.05-.16.07-.36.42-.38.34 0 .4-.13.46-.43s.06-.47.04-.72c0-.25 0-.34 0-.34s.33.05.56 0c.24-.02.73-.32.73-.32H15.4l-.08-.38s-.12-.15-.18-.13c-.05.02-.35.5-.35.5l-.14-.5-1.4.08z"/></g><g><path fill="#d3d3d3" d="M13.17 19.4c-.2-.43-.38-1.37-.34-1.88.04-.5.14-1.03 0-1.5s-.34-1.8-.34-1.8l.5-.35.55.36.1 2.12.3 1.04.33-.76-.13-2.35h.92s-.07 2.17-.1 2.52c0 .34-.14 1.4-.18 1.7-.05.34-.14.75-.14.75l-1.5.13z"/></g><g><path fill="#9b5f00" d="M13.2 19.5s.38-.1.76-.1c.4 0 .8.14.82.1.02-.1 0-.4 0-.4s-.33.07-.78 0c-.45-.08-.63-.06-.8 0-.15.05 0 .4 0 .4"/></g><g><path d="M14.1 23.5c.4 0 .56-.3.54-.63 0-.33-.1-.42-.1-.42s.05.35-.16.18v.35s-.45-.04-.6 0c-.16.03-.25.07-.25.07l-.06-.25s-.2.25 0 .48c.2.24.53.22.53.22"/></g><g><path fill="#892614" d="M11.04 20.55c.18.27.5.48.5.48s.07-.07.26 0c.2.06.17.12.28.16.1.03.1.15.1.15s.63.26.9.38.6.3.6.3l.1-.08s0-.2-.1-.27-.92-.48-1-.53c-.06-.06-.2-.1-.2-.1s-.07.12-.14.07c-.07-.05-.1-.2-.1-.2s-.28-.12-.44-.23c-.17-.12-.36-.5-.53-.58-.18-.08-.3.33-.23.43"/></g><g><path fill="#d3d3d3" d="M14.94 22.72c.1.1.46.35.55.2.08-.12.2-.87.65-.8 0 0-.26-.23-.48-.34-.22-.1-.6-.13-.6-.13s0 .35 0 .55c0 .2-.13.52-.13.52"/></g><g><path fill="#b34b00" d="M19.14 23.68c.15.07 1.62-.72 1.86-.83.25-.1.4-.54.65-.63.24-.1.04-.26-.1-.18-.16.08-.5.06-.77.15-.3.1-1.8.9-1.85 1.02-.04.12.2.46.2.46"/></g><g><path fill="#892614" d="M23.23 14.34c.05-.4.28-.8-.17-.92-.45-.13-.53.3-.4.67.1.37.57.24.57.24"/></g><g><path fill="#892614" d="M21.65 14.36c.08-.16.3-.53-.14-.48-.42.05-.7.04-.97 0s-.43.25-.14.24c.28 0 .5.1.6.36.1.27.65-.12.65-.12"/></g><g><path fill="#892614" d="M22.7 19.35l.14.7s.3-.3.42-.47c.13-.18.42-.2.56-.08.15.12.34.68.38.98.04.3.38.26.25.47-.12.22-.26.36-.48.36-.2 0-.22-.08-.22-.08s-.28-.07-.17-.3c.1-.24-.03-.55-.03-.55l-.22.18s-.06.7-.15.8c-.1.1-.48.34-.66.36-.18.03-.4.2-.32.3.1.1.27.3.27.54 0 .24.08.74-.45.67-.53-.06-.7-.4-.56-.7.14-.28.12-.4.06-.55-.05-.17.03-.35-.33-.37-.36 0-.48-.2-.53-.5-.06-.3 0-.4 0-.65.03-.25 0-.34 0-.34s-.32.05-.55 0c-.24-.02-.72-.32-.72-.32h1.17l.1-.38s.12-.15.17-.13c.06.02.35.5.35.5l.13-.5 1.38.08z"/></g><g><path fill="#d3d3d3" d="M22.8 19.4c.2-.43.4-1.37.35-1.88-.03-.5-.13-1.03 0-1.5.15-.47.35-1.8.35-1.8l-.5-.35-.57.36-.1 2.12-.3 1.04-.32-.76.14-2.35h-.93s.1 2.17.1 2.52c.02.34.15 1.4.2 1.7.04.34.13.75.13.75l1.48.13z"/></g><g><path fill="#9b5f00" d="M22.77 19.5s-.37-.1-.75-.1c-.4 0-.8.14-.82.1-.02-.1 0-.4 0-.4s.34.07.78 0c.45-.08.63-.06.8 0 .16.05 0 .4 0 .4"/></g><g><path d="M21.9 23.5c-.4 0-.58-.3-.56-.63.02-.33.1-.42.1-.42s-.07.35.15.18v.35s.45-.04.6 0c.15.03.25.07.25.07l.06-.25s.22.25.02.48c-.2.24-.53.22-.53.22"/></g><g><path fill="#b34b00" d="M22.2 22.04l1.5-.8s-.2 0-.2-.17-1.22.58-1.22.58l-.07.4z"/></g><g><path fill="#b34b00" d="M24.3 20.85l.45-.15s.05.15.2.08c.12-.08-.08-.68-.18-.67-.1.02-.2.17-.2.3-.03.1-.43.27-.43.27l.15.18z"/></g></g></g></g></svg>