<svg xmlns="http://www.w3.org/2000/svg" viewBox="0 0 45 45" enable-background="new 0 0 45 45"><defs><clipPath id="a"><path d="M0 36h36V0H0v36z"/></clipPath></defs><g><g><g clip-path="url(#a)" transform="matrix(1.25 0 0 -1.25 0 45)"><g><path fill="#009b3a" d="M36 9c0-2.2-1.8-4-4-4H4C1.8 5 0 6.8 0 9v18c0 2.2 1.8 4 4 4h28c2.2 0 4-1.8 4-4V9z"/></g><g><path fill="#fedf01" d="M32.73 18L18 6.88 3.27 18 18 29.13 32.73 18z"/></g><g><path fill="#002776" d="M24.43 18.08c0 3.56-2.9 6.45-6.45 6.45-3.57 0-6.46-2.9-6.46-6.45 0-3.57 2.9-6.46 6.46-6.46s6.45 2.9 6.45 6.46"/></g><g><path fill="#cbe9d4" d="M12.28 21.1c-.34-.6-.56-1.3-.68-2 4 .28 9.42-1.9 11.75-4.6.4.6.7 1.27.88 2-2.87 2.8-7.92 4.63-11.95 4.6"/></g><path fill="#88c9f9" d="M13 16.77h-1v1h1v-1z"/><path fill="#88c9f9" d="M14 14.77h-1v1h1v-1z"/><path fill="#55acee" d="M16 16.77h-1v1h1v-1z"/><path fill="#55acee" d="M18 15.77h-1v1h1v-1z"/><path fill="#55acee" d="M22 13.77h-1v1h1v-1z"/><path fill="#55acee" d="M19 12.77h-1v1h1v-1z"/><path fill="#55acee" d="M22 18.77h-1v1h1v-1z"/><path fill="#3b88c3" d="M20 14.77h-1v1h1v-1z"/></g></g></g></svg>