<svg xmlns="http://www.w3.org/2000/svg" viewBox="0 0 45 45" enable-background="new 0 0 45 45"><defs><clipPath id="a"><path d="M0 36h36V0H0v36z"/></clipPath></defs><g><g><g clip-path="url(#a)" transform="matrix(1.25 0 0 -1.25 0 45)"><g><path fill="#dd2e44" d="M36 9c0-2.2-1.8-4-4-4H4C1.8 5 0 6.8 0 9v18c0 2.2 1.8 4 4 4h28c2.2 0 4-1.8 4-4V9z"/></g><g><path fill="#00297b" d="M35 9c0-1.66-1.34-3-3-3H4C2.34 6 1 7.34 1 9v18c0 1.66 1.34 3 3 3h28c1.66 0 3-1.34 3-3V9z"/></g><g><path fill="#dd2e44" d="M17.52 9.38c2.67 2.2 5.63 4.8 5.63 8.43 0 3.65-2.96 6.22-5.63 8.44-2.67-2.22-5.63-4.8-5.63-8.43s2.95-6.2 5.62-8.43"/></g><g><path fill="#017bdd" d="M12.73 16.37c.6-2.56 2.8-4.5 4.8-6.2 2 1.7 4.17 3.64 4.78 6.2h-9.57z"/></g><g><path fill="#66afeb" d="M22.3 16.37c.12.46.18.94.18 1.44 0 3.3-2.6 5.64-4.96 7.65-2.36-2-4.96-4.35-4.96-7.64 0-.5.06-.97.17-1.43h9.58z"/></g><g><path fill="#9c8431" d="M22.46 17.34c-.02-.34-.07-.66-.15-.97h-5.75c.07.2.17.5.26.7 1.63-.2 4.18-.15 5.66.27"/></g><g><path fill="#fff100" d="M14.94 12.58c-.44.48-.85.98-1.2 1.5.9-.03 2.68-.22 3.38-.83.17-.15.17-.22-.04-.2-.43.07-1.57-.17-2.14-.47"/></g><g><path fill="#fff100" d="M21.8 14.95c-.94-1.88-2.67-3.4-4.28-4.78-.5.43-1 .87-1.5 1.33.67 1.1 2.58.42 2.58 1.38 0 .5-.48.95-1.17 1-.2 0-.26.02-.1.14.8.6 1.58-.04 2.92.56.97.44 1.42.4 1.54.37"/></g><g><path fill="#029270" d="M18.54 21.55c-.02.02-.04.08-.04.1.04-.04.22-.1.3-.1-.04.02-.1.1-.1.1.05 0 .25-.08.3-.06-.04.03-.15.13-.2.16.1-.03.26-.13.3-.13 0 .04 0 .1-.04.16.07-.05.18-.1.24-.13 0 .05-.02.13-.04.17.06-.04.18-.13.26-.16-.02.03-.02.12-.05.17.05-.04.2-.16.26-.18-.04.05-.04.13-.07.17.04-.04.18-.1.25-.15 0 .02-.03.1-.06.13.04-.04.23-.15.3-.2-.03.05-.06.15-.08.18.1-.02.3-.15.38-.18-.25.5-1.4.68-2.06.48.1.05.16.15.36.2-.05 0-.18.07-.2.1.07-.02.3.03.36.03-.05.04-.12.1-.16.14.1 0 .3 0 .38.03-.04.02-.12.05-.16.07.07 0 .22-.02.28 0-.04.03-.1.12-.17.16.1-.03.28-.03.4 0-.06.03-.14.06-.2.1.07-.02.3.05.37.07-.03.03-.12.05-.18.08.1 0 .26.1.3.15-.78-.02-1.44-.4-1.78-.97 0 .2-.05.4-.06.54-.03-.04-.08-.1-.1-.12.03.1.03.37 0 .45 0-.05-.05-.13-.08-.17 0 .1-.02.37-.05.47-.03-.05-.08-.13-.1-.17 0 .12-.07.44-.1.56 0-.06-.06-.2-.07-.24 0 .1-.1.47-.14.54 0-.06-.02-.2-.02-.27-.03.08-.14.28-.17.34.02-.05 0-.13 0-.17-.06.1-.22.25-.3.3.07-.1.13-.25.16-.3-.02 0-.07.02-.1.02.06-.06.17-.25.2-.32-.03 0-.1.02-.14.02.08-.06.23-.22.28-.3-.04.02-.14.02-.16 0 .06-.03.2-.17.26-.23-.04.03-.12.05-.16.04.08-.07.2-.2.24-.27-.05.02-.2.06-.23.05.05-.05.23-.24.27-.3-.04.02-.14 0-.18 0 .07-.06.24-.25.28-.3-.04.02-.16.04-.2.04.08-.1.18-.26.23-.33-.04 0-.12.02-.15.03-.37.6-1.04 1-1.5 1.03.06-.03.28-.18.35-.25-.05 0-.12.02-.17.02.08-.07.24-.17.3-.2 0 0-.1 0-.13 0 .06-.08.23-.13.34-.2-.05 0-.12 0-.16 0 .1-.05.26-.17.3-.26 0 0-.1.02-.13.02.1-.05.23-.14.3-.2-.05 0-.13 0-.16 0 .05-.04.23-.1.28-.18-.03 0-.13 0-.15 0 .06-.04.22-.17.32-.27-1.1.54-2.42.3-3.1-.66.07.02.37.2.47.23-.04-.05-.03-.12-.06-.17.1.05.23.16.33.23-.02-.04-.03-.12-.07-.18.07.04.3.2.4.28-.02-.07-.04-.13-.07-.17.1.06.32.2.4.26-.04-.06-.07-.14-.1-.18.1.04.32.18.46.26-.03-.05-.04-.13-.08-.17.1.06.28.1.4.1-.03-.04-.06-.1-.1-.13.1.03.26.06.43.04-.73-.24-1.46-1.03-1.44-1.55.07.1.2.27.3.34-.03-.05-.02-.14-.02-.2.04.12.1.25.18.37 0-.06 0-.14.03-.2.03.12.16.34.22.43-.02-.06 0-.18 0-.25.07.12.18.3.27.4-.02-.08-.02-.2-.02-.24.06.1.2.28.3.37-.04-.06-.04-.18-.04-.24.07.1.26.3.37.4-.03-.07-.04-.18-.05-.23.08.1.32.24.4.26-.14-.1-.3-.36-.37-.48.04 0 .1.02.14.02-.08-.05-.24-.24-.27-.3.04.02.12.05.16.06-.06-.06-.2-.26-.24-.36.05.03.13.05.17.06-.1-.07-.2-.34-.26-.44.03.04.15.1.18.12-.06-.08-.2-.38-.2-.46 0 .05.12.14.15.18-.02-.07-.06-.28-.07-.34 0 .04.07.08.1.1-.02-.1 0-.3.02-.38 0 .1.06.25.08.3 0 0 .03-.05.04-.07 0 .1.03.3.04.36.02-.03.07-.08.1-.1-.03.08-.03.28-.03.36.02-.03.1-.08.1-.1 0 .07-.04.26-.03.33 0-.04.05-.1.08-.12 0 .1 0 .26 0 .32 0-.04.08-.15.1-.18 0 .08 0 .3 0 .38.02-.04.1-.1.12-.1 0 .07-.02.3-.02.37.02-.04.08-.12.1-.15 0 .1.03.28.03.36.03-.02.08-.08.1-.1 0 .14.1.3.22.45.13-.13.24-.43.26-.45.03.03.05.1.06.12 0-.08.04-.27.04-.32.02.04.06.1.07.12 0-.08 0-.23.03-.3 0 .04.04.1.07.1-.02-.06 0-.26 0-.34 0 .04.06.1.08.13-.02-.07.05-.3.06-.4.02.03.07.1.1.12 0-.08 0-.3.02-.43.02.05.07.12.1.15-.03-.1.03-.3.07-.4 0 .05 0 .13.04.16.03-.07.13-.27.13-.38.04.1.04.33 0 .46.02 0 .05-.03.07-.04-.02.1-.1.28-.14.32.04-.02.1-.05.1-.07 0 .13-.1.3-.14.4.04-.02.1-.03.14-.06-.04.1-.17.27-.23.33.03-.02.12-.05.15-.06-.03.08-.22.24-.33.3.05.02.15.02.2.02-.07.08-.23.2-.33.25.03 0 .12-.02.16-.03-.03.08-.2.23-.26.3.06-.03.27-.14.33-.2.02.05 0 .17 0 .22.05-.04.2-.18.23-.24.02.05.02.14 0 .17.18-.12.28-.26.32-.33 0 .05 0 .17 0 .24.05-.04.17-.18.2-.23 0 .04 0 .12 0 .16.02-.04.12-.24.13-.28 0 .04.04.17.03.2.05-.04.18-.24.2-.3 0 .05.04.14.03.18.04-.06.12-.3.13-.35.02.03.05.18.05.23.04-.05.14-.32.17-.38 0 .04.03.16.03.2.02-.04.14-.34.14-.38.02.04.03.15.03.2 0-.08.1-.26.2-.38.1.96-.9 1.57-1.73 1.7"/></g><g><path fill="#7b4800" d="M15.9 15.18c0 1.67 0 2.24-.05 2.24s-.04-.57-.05-2.24"/></g><g><path fill="#7b4800" d="M15.52 14.85c1.05 0 1.4.24 1.37.47-.5 0-.64-.12-1.38-.12-.74 0-.87.12-1.37.12-.02-.23.33-.47 1.37-.47"/></g><g><path fill="#7b4800" d="M15.52 14.57c.5 0 .88.04.85.2-.04 0-.13-.02-.2-.02l-.03.15c0 .05-.13.03-.12 0l.02-.17c-.17-.02-.4-.02-.52-.02s-.34 0-.52.03l.02.16c0 .03-.1.05-.1 0l-.04-.15c-.08 0-.16 0-.2.03-.04-.17.36-.2.84-.2"/></g><g><path fill="#7b4800" d="M17.66 21.3c.06-1.83-.72-6.23 2.05-7.6.27-.12.08-.6-.37-.38-2.63 1.5-1.8 6.03-1.84 7.98h.16z"/></g><g><path fill="#7b4800" d="M17.44 21.74c-.26 0-.26-.4 0-.4.25 0 .25.4 0 .4"/></g><g><path fill="#7b4800" d="M17.8 21.68c-.27 0-.27-.4 0-.4.24 0 .24.4 0 .4"/></g><g><path fill="#7b4800" d="M17.45 21.43c-.26 0-.26-.4 0-.4s.26.4 0 .4"/></g><g><path fill="#7b4800" d="M17.7 21.5c-.27 0-.27-.4 0-.4.24 0 .24.4 0 .4"/></g><g><path fill="#fff" d="M14.83 17.3c.17-.62-.02-1.44-.32-2 .66.06 1.7.13 2.07 0-.32.82-1.03 1.84-1.74 2"/></g><g><path fill="#dd2e44" d="M14.84 18.43c-.04.14-.13.22-.25.22-.2 0-.3-.18-.3-.46s.1-.47.3-.47c.14 0 .24.1.26.3h-.24v.2h.43v-.7h-.13c0 .05 0 .12-.02.16-.07-.13-.18-.2-.3-.2-.3-.02-.52.3-.52.7 0 .4.2.67.5.67.25 0 .46-.2.46-.44h-.2z"/></g><g><path fill="#dd2e44" d="M16.46 17.72c.16 0 .2.13.2.24v.9h.24v-.9c0-.22-.1-.46-.44-.46-.34 0-.44.24-.44.47v.9h.23v-.9c0-.12.04-.25.2-.25"/></g><g><path fill="#dd2e44" d="M18.55 18c-.05 0-.15 0-.15 0l.15.56.15-.55s-.1 0-.15 0v-.22h.22l.07-.28h.22l-.38 1.37h-.26l-.38-1.37h.22l.08.28h.2V18z"/></g><g><path fill="#dd2e44" d="M20.33 17.5l-.22 1.04V17.5h-.2v1.37h.34l.2-1.05.2 1.05H21V17.5h-.23v1.04l-.2-1.04h-.24z"/></g></g></g></g></svg>