<svg xmlns="http://www.w3.org/2000/svg" viewBox="0 0 45 45" enable-background="new 0 0 45 45"><defs><clipPath id="a"><path d="M0 36h36V0H0v36z"/></clipPath></defs><g><g><g clip-path="url(#a)" transform="matrix(1.25 0 0 -1.25 0 45)"><g><path fill="#cc212d" d="M32 31H4c-2.2 0-4-1.8-4-4v-5h36v5c0 2.2-1.8 4-4 4"/></g><g><path fill="#fbd116" d="M15.42 14h5.2L18 15.88 15.42 14z"/></g><g><path fill="#fbd116" d="M19 18.94h3.22l-2.6-1.9 1-3.04H36v8H18.02l1-3.06z"/></g><g><path fill="#fbd116" d="M16.4 17.05l-2.6 1.9h3.22l1 3.05H0v-8h15.42l1 3.05z"/></g><g><path fill="#288541" d="M20.62 14H0V9c0-2.2 1.8-4 4-4h28c2.2 0 4 1.8 4 4v5H20.62z"/></g><g><path d="M13.8 18.94l2.6-1.9-.98-3.04 2.6 1.88 2.6-1.88-1 3.05 2.6 1.9h-3.2L18 22l-1-3.06h-3.2z"/></g></g></g></g></svg>