<svg xmlns="http://www.w3.org/2000/svg" viewBox="0 0 45 45" enable-background="new 0 0 45 45"><defs><clipPath id="a"><path d="M0 36h36V0H0v36z"/></clipPath></defs><g><g><g clip-path="url(#a)" transform="matrix(1.25 0 0 -1.25 0 45)"><g><path fill="#141414" d="M0 18V9c0-2.2 1.8-4 4-4h28c2.2 0 4 1.8 4 4v9H0z"/></g><g><path fill="#ce1b26" d="M36 18v9c0 2.2-1.8 4-4 4H4c-2.2 0-4-1.8-4-4v-9h36z"/></g><g><path fill="#f9d616" d="M17.45 22.35l.6-1.22 1.35-.2-.97-.94.23-1.36-1.2.64-1.2-.64.22 1.35-.98.94 1.35.2.6 1.2z"/></g><g><path fill="#f9d616" d="M15.16 18.8c.34-.55 3.17-3.5 5.92-5.22.36-.24 1.34-1 1.72-1.25-.16-.2-.38-.5-.6-.75-.4.3-3.98 2.5-5.15 3.1-1.17.6-2.24 1.63-2.24 2.62 0 .98.36 1.5.36 1.5"/></g><g><path fill="#f9d616" d="M22.98 12.2c-.17-.25-.43-.6-.6-.78.32-.04 1.12-.44 1.53-1.28.4-.84 1.15-.4 1.08.05-.06.44-.95 1.43-2 2"/></g><g><path fill="#292f33" d="M23.44 11.5c0-.1-.08-.17-.18-.17-.1 0-.18.08-.18.18 0 .1.08.2.18.2.1 0 .18-.1.18-.2"/></g><g><path fill="#292f33" d="M24.44 10.5c0-.1-.08-.17-.18-.17-.1 0-.18.08-.18.18 0 .1.08.2.18.2.1 0 .18-.1.18-.2"/></g><g><path fill="none" stroke="#292f33" stroke-width=".3" stroke-miterlimit="10" d="M17.9 15.28l4.65-3.17" stroke-linecap="round"/></g><g><path fill="#f9d616" d="M24.83 17.35v1.3h-1.08c-.04.4-.13.8-.24 1.2l.98.4-.44 1.2-1.05-.4c-.18.3-.4.62-.62.9l.7.8-1 .83-.62-.7c-.3.24-.64.46-1 .65l.46.97-1.2.46-.46-.94c-.35.1-.72.18-1.1.2l-.14-1.33c2.5-.27 4.45-2.35 4.45-4.92 0-1.5-.7-2.84-1.75-3.75l.55-.38 1.37-1 .53.56-.84.63c.26.3.48.63.67.98l1-.4.5 1.2-1 .4c.12.37.2.75.25 1.15h1.08z"/></g><g><path fill="#f9d616" d="M19.9 12.23l-.42.8-.5.24c-.47-.14-.95-.24-1.46-.24-1.2 0-2.3.44-3.14 1.15l-.84-.98c.3-.25.65-.47 1-.66l-.44-.96 1.2-.5.44.97c.35-.1.7-.18 1.07-.22v-1h1.3v.96c.4.03.8.1 1.18.22l.35-1 .68.2-.42 1s0 0 .02 0"/></g></g></g></g></svg>