<svg xmlns="http://www.w3.org/2000/svg" viewBox="0 0 45 45" enable-background="new 0 0 45 45"><defs><clipPath id="a"><path d="M0 36h36V0H0v36z"/></clipPath><clipPath id="b"><path d="M4 31c-2.2 0-4-1.8-4-4V9c0-2.2 1.8-4 4-4h28c2.2 0 4 1.8 4 4v18c0 2.2-1.8 4-4 4H4z"/></clipPath><clipPath id="c"><path d="M0 36h36V0H0v36z"/></clipPath></defs><g><g><g clip-path="url(#a)" transform="matrix(1.25 0 0 -1.25 0 45)"><g><path fill="#e32118" d="M36 9c0-2.2-1.8-4-4-4H4C1.8 5 0 6.8 0 9v18c0 2.2 1.8 4 4 4h28c2.2 0 4-1.8 4-4V9z"/></g></g></g><g><g clip-path="url(#b)" transform="matrix(1.25 0 0 -1.25 0 45)"><path fill="#eee" d="M36 13H0v10h36V13z"/><path fill="#3e9a00" d="M36 23H0v8h36v-8z"/><g><path fill="#0173ce" d="M0 33l11-15L0 3v30z"/></g></g></g><g><g clip-path="url(#c)" transform="matrix(1.25 0 0 -1.25 0 45)"><g><path d="M18.44 21h-2.4v-4.75c0-.97.55-1.13.84-1.13h.92c.58 0 .64-.47.64-.47s.07.48.65.48h.9c.3 0 .84.15.84 1.12V21h-2.4z"/></g><g><path fill="#fff" d="M18.44 15.07c-.13.14-.34.26-.64.26h-.92c-.2 0-.63.1-.63.92v4.55h4.4v-4.55c0-.83-.45-.92-.64-.92h-.9c-.32 0-.52-.12-.66-.26"/></g><g><path d="M14.92 17.3s.25-.44.56-.74c.58-.54-.35-.98-.35-.98s-.3.2-.38.4c-.1.22.23.88.17 1.32"/></g><g><path fill="#fff" d="M15.15 15.82c-.1.06-.18.16-.22.24 0 .06.04.28.08.42.03.08.05.16.07.24.08-.1.18-.2.28-.3.14-.14.13-.22.12-.25-.02-.13-.2-.27-.32-.35"/></g><g><path d="M15.2 16.27s0-.78.77-1.08c.94-.4 1.6-.23 1.67-.26.08-.03 0-.8 0-.8s-1.04-.17-1.97.27c-.92.44-.87.8-.82.88.04.1.1.16.15.4.04.23.2.6.2.6"/></g><g><path fill="#fff" d="M17.13 14.3c-.35 0-.88.06-1.37.3-.67.3-.75.55-.74.6.07.1.13.2.17.4.12-.22.33-.45.7-.6.45-.18.9-.27 1.36-.27.1 0 .16 0 .22 0 0-.1 0-.26-.02-.4-.1-.02-.2-.02-.33-.02"/></g><g><path d="M21.96 17.3s-.24-.44-.56-.74c-.58-.54.35-.98.35-.98s.3.2.4.4c.08.22-.25.88-.2 1.32"/></g><g><path fill="#fff" d="M21.74 15.82c.08.06.18.16.2.24.03.06-.03.28-.06.42-.02.08-.04.16-.06.24-.1-.1-.18-.2-.28-.3-.14-.14-.13-.22-.12-.25.02-.13.18-.27.32-.35"/></g><g><path d="M21.68 16.27s0-.78-.76-1.08c-.95-.4-1.6-.23-1.67-.26-.08-.03 0-.8 0-.8s1.04-.17 1.96.27c.94.44.9.8.84.88-.05.1-.1.16-.15.4-.06.23-.22.6-.22.6"/></g><g><path fill="#fff" d="M19.75 14.3c.36 0 .9.06 1.38.3.66.3.75.55.73.6-.06.1-.12.2-.16.4-.13-.22-.34-.45-.7-.6-.46-.18-.92-.27-1.38-.27-.08 0-.15 0-.2 0 0-.1 0-.26 0-.4.1-.02.2-.02.33-.02"/></g><g><path d="M19.7 14.65s0-.34-1.26-.34-1.27.35-1.27.35-.05-.54 0-.76c.05-.23.38-.35 1.27-.35.9 0 1.23.12 1.27.34.06.2 0 .75 0 .75"/></g><g><path fill="#fff" d="M18.44 13.75c-1 0-1.07.16-1.07.18-.02.07-.02.2-.02.32.22-.08.56-.14 1.1-.14.52 0 .87.07 1.1.15 0-.13-.02-.25-.03-.32 0-.02-.07-.18-1.08-.18"/></g><g><path fill="#ffd701" d="M17.85 22.52l.17-.3h.34l-.17-.28.16-.3h-.34l-.17-.3-.17.3h-.33l.16.3-.15.3h.33l.17.28z"/></g><g><path fill="#ffd701" d="M16.5 22.37l.24-.25.34.08-.1-.33.23-.24-.32-.08-.1-.32-.23.24-.33-.07.1.32-.24.25.33.08.1.32z"/></g><g><path fill="#ffd701" d="M15.26 21.94l.27-.2.3.13-.03-.33.28-.2-.3-.14-.05-.34-.27.2-.3-.13.02.33-.27.2.32.14.04.34z"/></g><g><path fill="#ffd701" d="M19.12 22.52l-.17-.3h-.34l.18-.28-.17-.3h.35l.17-.3.17.3h.33l-.17.3.17.3h-.34l-.18.28z"/></g><g><path fill="#ffd701" d="M20.46 22.37l-.23-.25-.33.08.1-.33-.23-.24.33-.08.1-.32.23.24.33-.07-.1.32.23.25-.34.08-.1.32z"/></g><g><path fill="#ffd701" d="M21.72 21.94l-.28-.2-.3.13.03-.33-.27-.2.3-.14.04-.34.28.2.3-.13-.03.33.26.2-.3.14-.04.34z"/></g><g><path fill="#a36629" d="M18.44 15.38c-.6 0-.7.2-.5.68.22.47.33 1.1.33 1.88 0 .76-.28.94-.6 1.23-.3.3.17.2.4 0 .2-.2.3-.36.3-.36v.73l.24-.08v-.54s.37.32.6.35c.25.03.4-.16.08-.25-.3-.1-.67-.25-.67-1.06 0-.8.13-1.66.3-1.96.15-.3.14-.6-.46-.6"/></g><g><path fill="#009a3b" d="M17.75 18.45c-.32-.16-.54.2-.54.2s-.28-.2-.55-.06c-.27.13-.23.26 0 .38.23.13.5.16.5.16s.07.34.2.58c.12.23.33.33.33.33s.25.54.68.58c.44.03.44-.43.44-.43s.27 0 .32-.15c.24.25.66.22.75.1.1-.1 0-.34 0-.34s.38.12.46 0c.08-.13 0-.3 0-.3s.3-.05.15-.37c-.14-.33-.57-.24-.57-.24s-.17-.2-.36-.18c-.2 0-.26.28-.26.28s-.3-.08-.48.2c-.2-.3-.53-.14-.58-.03-.05-.36-.14-.54-.47-.72"/></g></g></g></g></svg>