<svg xmlns="http://www.w3.org/2000/svg" viewBox="0 0 45 45" enable-background="new 0 0 45 45"><defs><clipPath id="a"><path d="M0 36h36V0H0v36z"/></clipPath></defs><g><g><g clip-path="url(#a)" transform="matrix(1.25 0 0 -1.25 0 45)"><g><path fill="#3b88c3" d="M36 4c0-2.2-1.8-4-4-4H4C1.8 0 0 1.8 0 4v28c0 2.2 1.8 4 4 4h28c2.2 0 4-1.8 4-4V4z"/></g><g><path fill="#fff" d="M15.68 26.84c0 1.55 1 2.42 2.32 2.42 1.33 0 2.33-.87 2.33-2.42V9.24c0-1.56-1-2.43-2.33-2.43s-2.32.88-2.32 2.43v17.6z"/></g></g></g></g></svg>