<svg xmlns="http://www.w3.org/2000/svg" viewBox="0 0 45 45" enable-background="new 0 0 45 45"><defs><clipPath id="a"><path d="M0 36h36V0H0v36z"/></clipPath></defs><g><g><g clip-path="url(#a)" transform="matrix(1.25 0 0 -1.25 0 45)"><g><path fill="#002d62" d="M36 9c0-2.2-1.8-4-4-4H4C1.8 5 0 6.8 0 9v18c0 2.2 1.8 4 4 4h28c2.2 0 4-1.8 4-4V9z"/></g><g><path fill="#dd2e44" d="M32 31H20V20h16v7c0 2.2-1.8 4-4 4"/></g><g><path fill="#ce1225" d="M4 5h12v11H0V9c0-2.2 1.8-4 4-4"/></g><g><path fill="#eee" d="M36 21H21v10h-6V21H0v-6h15V5h6v10h15v6z"/></g><g><path fill="#002d62" d="M18.02 20.06H16.1l.34-.33v-1.65h1.58v1.98z"/></g><g><path fill="#002d62" d="M18.02 16.12c.26.28.43.27 1.15.27.4 0 .43.25.43.76v.92h-1.58v-1.96z"/></g><g><path fill="#ce1225" d="M18.02 16.12c-.25.28-.43.27-1.15.27-.4 0-.43.25-.43.76v.92h1.58v-1.96z"/></g><g><path fill="#ce1225" d="M18.02 20.06h1.92l-.34-.33v-1.65h-1.58v1.98z"/></g><g><path fill="#fff" d="M18.3 16.32v3.74h-.55v-3.74c.1-.03.2-.1.27-.2.07.08.2.17.27.2"/></g><path fill="#fff" d="M16.44 17.8h3.16v.56h-3.16v-.55z"/><g><path fill="#002d62" d="M18.02 18.44l1.04 1.1v-.32l.2.16v-1.85c0-.7-1.1-.62-1.24-.3-.15-.32-1.23-.4-1.23.3v1.85l.18-.16v.33l1.04-1.1z"/></g><g><path fill="#fff" d="M18.02 17.26c-.5-.27-.82-.06-.82.2v.3c-.2 0-.4.1-.4.17v.28c0-.07.3-.15.4-.15V19l.18-.13v.25l.27-.28v-.2l-.18.15v-.82c.2 0 .34-.1.55-.1.22 0 .36.1.55.1v.8l-.18-.14v.2l.26.28v-.25l.18.14v-.95c.1 0 .4.08.4.16v-.27c0-.06-.2-.16-.4-.16v-.32c0-.25-.32-.46-.82-.2v.3c.27-.17.55-.2.55-.04v.2c-.2 0-.33-.1-.55-.1-.2 0-.36.1-.55.1v-.2c0-.16.28-.12.55.04v-.28z"/></g><g><path fill="#ce1225" d="M18.4 18.84v-.2l.17.15v-.82c-.2 0-.33-.1-.55-.1-.2 0-.36.1-.55.1v.8l.2-.14v.2l.35-.4.37.4z"/></g><g><path fill="#ce1225" d="M16.8 17.93v-.4c0-.7 1.07-.62 1.22-.3.15-.32 1.23-.4 1.23.3v.4c0-.06-.2-.16-.4-.16v-.32c0-.25-.33-.46-.83-.2-.5-.26-.82-.05-.82.2v.32c-.2 0-.4.1-.4.16"/></g><g><path fill="#002d62" d="M18.44 20.72c.02.05.04.12.05.2-.15 0-.32.02-.48.02-.16 0-.33-.02-.47-.03.02-.06.04-.13.05-.18.02-.04-.06-.13-.32-.12-.23.02-.57 0-.86-.06.05-.07.07-.1.06-.14 0-.07-.16-.13-.42-.17-.27-.03-.37-.3-.47-.7-.1.04-.28.08-.38.1.06.25.27.84.52.9-.06.14-.04.2.2.32.26.12.7.2 1.2.2-.04.13 0 .18.14.24.13.05.34.1.74.1.4 0 .6-.05.74-.1.16-.07.2-.12.16-.24.48-.02.92-.1 1.18-.2.25-.12.26-.2.2-.33.26-.06.46-.65.52-.9-.1-.02-.27-.06-.37-.1-.1.4-.2.67-.46.7-.28.04-.43.1-.44.17 0 .05 0 .07.06.14-.3.05-.62.08-.85.06-.27 0-.34.08-.33.12"/></g><g><path fill="#996b38" d="M18.02 18.35l1.27 1.1.02-.04-1.3-1.1v.05z"/></g><g><path fill="#996b38" d="M18.02 18.47l1.08 1.17.03-.03-1.1-1.2v.07z"/></g><g><path fill="#996b38" d="M18.02 18.63l.86 1.18h.03l-.88-1.24v.07z"/></g><g><path fill="#996b38" d="M18.02 18.35l-1.27 1.1-.03-.04 1.3-1.1v.05z"/></g><g><path fill="#996b38" d="M18.02 18.47l-1.07 1.17-.04-.03 1.12-1.2v.07z"/></g><g><path fill="#996b38" d="M18.02 18.63l-.85 1.18h-.04l.9-1.24v.07z"/></g><g><path fill="#ffce46" d="M19.27 19.46l.2.1-.13-.18s-.07.07-.07.08"/></g><g><path fill="#ffce46" d="M19.07 19.65l.18.12-.1-.18c-.02-.02-.08.04-.08.05"/></g><g><path fill="#ffce46" d="M18.85 19.82l.16.14-.07-.2s-.08.05-.08.06"/></g><g><path fill="#ffce46" d="M16.77 19.46l-.2.1.14-.18c.02 0 .08.07.07.08"/></g><g><path fill="#ffce46" d="M16.97 19.65l-.17.12.1-.18c0-.02.08.04.07.05"/></g><g><path fill="#ffce46" d="M17.2 19.82l-.17.14.08-.2c.02 0 .1.05.1.06"/></g><g><path fill="#fff" d="M17.7 18.63c.06.04.2.1.3.06.05.07.2.13.3.1l.16-.56c-.05-.03-.15 0-.2-.05-.02-.02-.07-.05-.08-.07-.03 0-.1 0-.15 0-.04-.02-.07-.07-.12-.07l-.2.57"/></g><g><path fill="none" stroke="#000" stroke-width=".007" d="M17.7 18.63c.06.04.2.1.3.06.05.07.2.13.3.1l.16-.56c-.05-.03-.15 0-.2-.05-.02-.02-.07-.05-.08-.07-.03 0-.1 0-.15 0-.04-.02-.07-.07-.12-.07l-.2.57" stroke-linecap="round" stroke-linejoin="round"/></g><g><path fill="#549334" d="M19.7 15.72c.17 0 .4-.04.45-.07-.06.06-.17.1-.28.15.15-.02.2-.05.3-.07.06-.02.07-.03.07-.13 0-.07 0-.15.04 0 .04.1.05.13 0 .17-.1.05-.18.1-.27.14.2-.04.35-.1.45-.17-.05.08-.13.16-.24.23.12-.02.27-.08.38-.14-.05.07-.14.18-.25.23.17-.04.36-.1.45-.15-.1.13-.2.24-.34.28.2-.02.37-.08.45-.13-.12.1-.24.22-.35.25.16-.02.3-.06.38-.1-.1.1-.28.2-.45.22.12 0 .27 0 .4-.03-.1.05-.3.1-.37.1.2.04.42.03.66-.05-.1.07-.28.14-.45.17.1 0 .24.03.33.02-.1.03-.33.08-.43.07.2.07.38.1.5.13-.2 0-.43 0-.63-.04.22.18.38.18.52.2.13.03.24.06.1.08-.1 0-.18 0-.25 0 .16.06.35.16.42.2.06.03.22.14.05.07-.17-.08-.42-.1-.64-.12-.1 0-.16-.03-.23-.06.12.07.26.14.4.2.14.08.1.1.23-.04.06-.07.06 0-.02.18-.06.14-.12.08-.25.03-.04-.02-.1-.05-.18-.1.08.1.35.4.4.47.04.05.1 0 .2-.07.1-.06.06 0-.02.1-.1.1-.13.1-.18.06-.06-.06-.33-.23-.48-.37.28.26.6.55.67.63-.15-.08-.3-.18-.42-.27.05.05.13.16.17.2-.06-.03-.15-.08-.2-.12.07.13.15.25.16.27.03.04.05.04.07.05.03 0 .06 0 .14 0 .1 0 .06.03.03.04-.23.06-.22.03-.27 0-.03-.05-.08-.1-.13-.17.05.17.22.33.25.38-.18-.1-.27-.17-.33-.25.08.13.33.32.4.4-.07-.03-.24-.1-.28-.16.04.07.08.15.12.23-.15-.1-.25-.2-.33-.34 0 .04.03.08.04.12.05.1.17.2.23.27.07.07.08.1.26-.02-.04.07-.07.13-.1.17-.05.08-.08.05-.15 0-.04-.04-.07-.1-.14-.15.08.2.17.4.22.54-.13-.12-.23-.3-.3-.48 0 .14.07.42.06.56-.06-.08-.12-.2-.15-.35 0 .14 0 .33-.05.43.02-.1-.08-.3-.1-.45-.07.14-.13.28-.17.37 0-.07.03-.24.07-.45-.05.16-.24.32-.24.45 0-.18.12-.5.14-.58 0-.03 0-.07.02-.12-.07.1-.22.28-.26.4 0-.07.03-.2.04-.28-.07.07-.13.03-.26-.22.04 0 .1.07.13.1.04.02.07.04.1-.02.06-.08.2-.27.27-.5-.02.06-.15.22-.2.3.02-.04.04-.15.06-.22-.06.17-.13.3-.17.36 0-.1.06-.3.07-.4-.03.07-.07.15-.1.2.02-.06.06-.28.05-.4-.05.1-.1.17-.14.22.03-.1.06-.28.06-.38 0 .03-.03.06-.04.08-.06.1-.1-.08-.14-.18-.04-.1-.02-.08.03 0 .05.1.04.07.08-.03.02-.07.1-.22.15-.42-.06.1-.13.2-.17.3-.04.08-.05.07 0-.1.02-.1.1-.32.07-.55-.04.14-.1.3-.15.47 0-.1.02-.28.02-.36-.03.05-.05.1-.1.12.05-.13.06-.36.06-.5-.02.1-.05.17-.08.23 0-.1.03-.35.05-.46-.02.08-.05.16-.1.23.03-.12.04-.3 0-.43 0 .06-.02.12-.04.2-.02-.07-.04-.24-.08-.3.03.1.03.2.02.25-.03-.1-.07-.22-.12-.3 0 .04.03.15.04.25 0-.06-.06-.1-.08-.17 0 .1 0 .17 0 .2-.04-.15-.1-.26-.2-.4.05.14.07.27.07.36-.08-.16-.1-.22-.22-.38.07.14.06.25.04.32 0-.04-.05-.14-.12-.25 0 .07 0 .27.04.32-.07-.03-.14-.14-.14-.22-.02.08-.06.15-.1.2.04-.27.02-.52-.14-.63-.38-.24-.7-.78-1.15-.98.04-.03.1-.1.15-.14.43.2.73.63 1.06.87.16.08.53-.1.93 0 .17.04.47-.05.6-.1-.05.08-.17.15-.4.2"/></g><g><path fill="#549334" d="M16.58 16c.07 0 .28 0 .44 0-.1.03-.04.28-.17.38.13-.06.2-.04.26-.05.02 0 .03 0 .04 0 0 .02 0 .1.03.14 0-.07.1-.08.15-.13 0 0 .03-.02.04-.03 0 .1.12.2.13.25 0-.07.08-.12.1-.23.07-.26-.14-.3-.06-.5.37-.24.7-.73 1.15-.93-.04-.03-.1-.1-.15-.14-.6.27-1 1.04-1.54 1.08 0 0-.02 0-.04-.02-.13-.06-.26-.1-.38-.1-.12.04-.23 0-.33-.05.15.24.23.3.33.33-.08-.03-.24-.05-.35 0-.07-.17-.23-.22-.37-.24-.15-.02-.25-.07-.3-.15 0 .08 0 .2 0 .24-.05 0-.12 0-.2 0 .07.03.15.27.36.3-.04.03-.08.06-.1.1.04-.03.1 0 .18.03.04 0 .1.02.18 0-.07.06-.12.15-.14.22-.06-.2-.27-.26-.4-.27-.15 0-.22-.05-.25-.1 0 .1.02.17.06.22-.06 0-.12 0-.15-.02.03.14.1.23.18.28-.1.03-.22.2-.22.3.07-.08.36 0 .5-.16-.08.08-.13.18-.14.3.03-.05.1-.06.17-.1-.1.36-.35.28-.5.4-.18.13-.1.38-.25.5.07 0 .12 0 .16 0-.02.06-.02.2 0 .3.02-.1.14-.1.22-.2.02.03.02.06.02.1.05-.08.1-.14.14-.2 0 .12.04.2.07.22 0-.04 0-.14.06-.24.06-.1.07-.2.04-.37-.03-.16.03-.3.12-.4 0 .07 0 .27-.03.34-.02.06-.03.16 0 .3 0-.06.07-.14.13-.2 0 0 .03-.03.03-.06 0 .04.03.08.04.12.02.05-.24.15-.22.44-.18.1-.33.22-.38.46.02-.02.06-.04.1-.05-.1.15-.12.33-.1.42.03-.07.1-.1.2-.15 0 .15-.15.27-.15.4 0 .25.12.25.16.4.04-.05.06-.1.08-.16.03.1.15.2.15.26.05-.1.1-.2.07-.3.08.03.17 0 .22-.02-.16-.03-.15-.2-.25-.26-.1-.05-.3-.18-.24-.38.07-.06.13-.17.16-.36.03-.03.06-.07.08-.1.02.03.05.08.06.14 0 .08-.1.16-.14.24-.03.1.06.25.02.4.05-.03.13-.06.2-.13.04.1.13.16.13.34.05-.07.08-.15.1-.22.05.07.15.16.27.2-.07-.13-.05-.25-.05-.36 0-.1 0-.27-.16-.38-.15-.12-.2-.15-.22-.44.07.13.22.24.22.3.03-.12.06-.22.05-.3.06.05.15.1.26.1-.07-.1-.13-.43-.33-.47-.2-.04-.28-.24-.33-.33-.07-.1-.1-.18-.02-.3 0 .1.02.2.06.28.06.13.2.2.2.28.03-.1.04-.17.04-.24.1.2.3.14.37.2-.04-.05-.1-.12-.1-.23-.02-.1-.1-.2-.23-.27-.1-.04-.17-.05-.22-.15 0-.04.04-.1.04-.17 0 .03 0 .06.03.08.06.1.1.15.1.2.12-.13.14-.25.1-.38-.04-.13-.07-.24.02-.34.03-.04.1-.07.14-.1.07.08 0 .16-.08.24-.08.07-.07.26 0 .33.05.08.1.16.1.23.05-.04.1-.12.1-.16.04.06.07.12.12.14 0-.1.08-.16.08-.27.03.06.08.12.16.14-.02-.06.03-.15.04-.2 0-.05 0-.1-.02-.16s-.06-.12-.15-.16c-.04-.02-.1-.03-.13-.05.1 0 .3-.02.34-.1-.07.03-.24-.04-.32-.07"/></g><g><path fill="#ce1225" d="M17.62 15.32c-.08 0-.17-.02-.24-.05 0-.04.03-.2.03-.23.06.03.16.07.22.07v.22z"/></g><g><path fill="#ce1225" d="M17.94 15.3c-.2.1-.34.05-.34 0v-.2c0-.03.07-.07.34 0v.2z"/></g><g><path fill="#ce1225" d="M18.43 15.32c.08 0 .17-.02.24-.05 0-.04-.03-.2-.03-.23-.05.03-.15.07-.2.07v.22z"/></g><g><path fill="#ce1225" d="M18.1 15.3c.22.1.35.05.35 0v-.2c0-.03-.08-.07-.34 0v.2z"/></g><g><path fill="#ce1225" d="M18.02 15.34c.1 0 .13-.03.13-.13s-.02-.13-.13-.13c-.1 0-.13.03-.13.14 0 .1.02.14.12.14"/></g><g><path fill="#ce1225" d="M18.02 15.5c.57 0 1.02-.02 1.4-.1-.06-.03-.1-.08-.12-.1-.04-.03-.03-.1.05-.17.07-.07.26-.12.44-.04.02 0 .06.02.1.03-.06-.04-.1-.1-.08-.15.1-.24.52.07.77-.23.05.1.22.26.28.33-.14.17-.33.14-.5.12.07.1.07.18-.05.27-.06.04-.24.03-.4-.05.03.08.02.2-.24.32-.4.18-1.06.22-1.68.22-.6 0-1.28-.04-1.67-.22-.26-.1-.27-.24-.23-.32-.17.08-.35.1-.4.05-.13-.1-.12-.17-.07-.27-.16.02-.35.05-.5-.12.07-.07.24-.24.3-.33.25.3.66 0 .77.23.02.05-.02.1-.07.15.03 0 .07-.03.1-.04.18-.1.37-.04.44.03s.08.14.05.17c-.03.02-.07.07-.12.1.37.08.82.1 1.4.1"/></g></g></g></g></svg>