<svg xmlns="http://www.w3.org/2000/svg" viewBox="0 0 45 45" enable-background="new 0 0 45 45"><defs><clipPath id="a"><path d="M4 31c-2.2 0-4-1.8-4-4V9c0-2.2 1.8-4 4-4h28c2.2 0 4 1.8 4 4v18c0 2.2-1.8 4-4 4H4z"/></clipPath></defs><g><g><g clip-path="url(#a)" transform="matrix(1.25 0 0 -1.25 0 45)"><g><path fill="#009e49" d="M36 5v13L0 5h36z"/></g><g><path fill="#009e49" d="M0 31l36-13v13H0z"/></g><g><path fill="#fff" d="M3.17 28.7L32.5 18 3.17 7.3 0 5l36 13L0 31l3.17-2.3z"/></g><g><path fill="#fcd116" d="M3.17 7.3L32.5 18 3.17 28.7 18 18 3.17 7.3z"/></g><g><path fill="#141414" d="M18 18L3.17 28.7 0 31V29.47L16 18 0 6.52V5l3.17 2.3L18 18z"/></g><g><path fill="#ce1126" d="M0 29.48V6.52L16 18 0 29.48z"/></g></g></g></g></svg>