<svg xmlns="http://www.w3.org/2000/svg" viewBox="0 0 45 45" enable-background="new 0 0 45 45"><defs><clipPath id="a"><path d="M0 36h36V0H0v36z"/></clipPath></defs><g><path fill="#eee" d="M0 27.5h45v-10H0v10z"/><g><g clip-path="url(#a)" transform="matrix(1.25 0 0 -1.25 0 45)"><g><path fill="#0156a3" d="M32 31H4c-2.2 0-4-1.8-4-4v-5h36v5c0 2.2-1.8 4-4 4"/></g><g><path fill="#0156a3" d="M0 9c0-2.2 1.8-4 4-4h28c2.2 0 4 1.8 4 4v5H0V9z"/></g><g><path fill="#2657a7" d="M18.26 18.24l-.24.77-.25-.76h-.8l.64-.47-.24-.77.66.47.65-.47-.25.77.65.47h-.8z"/></g><g><path fill="#2657a7" d="M23.6 15.76l-.25-.77.65.47.65-.48-.25.76.66.47h-.8L24 17l-.25-.77h-.8l.65-.47z"/></g><g><path fill="#2657a7" d="M24.25 20.24L24 21l-.25-.76h-.8l.65-.47-.25-.77.65.47.65-.47-.25.77.66.47h-.8z"/></g><g><path fill="#2657a7" d="M11.54 15.76L11.3 15l.64.47.66-.48-.25.76.65.47h-.8l-.26.77-.24-.77h-.8l.64-.47z"/></g><g><path fill="#2657a7" d="M12.2 20.24l-.26.77-.24-.76h-.8l.64-.47-.25-.77.64.47.66-.47-.25.77.65.47h-.8z"/></g></g></g></g></svg>