<svg xmlns="http://www.w3.org/2000/svg" viewBox="0 0 45 45" enable-background="new 0 0 45 45"><defs><clipPath id="a"><path d="M0 36h36V0H0v36z"/></clipPath><clipPath id="b"><path d="M4 31c-2.2 0-4-1.8-4-4V9c0-2.2 1.8-4 4-4h28c2.2 0 4 1.8 4 4v18c0 2.2-1.8 4-4 4H4z"/></clipPath><clipPath id="c"><path d="M0 36h36V0H0v36z"/></clipPath></defs><g><g><g clip-path="url(#a)" transform="matrix(1.25 0 0 -1.25 0 45)"><g><path fill="#4289de" d="M36 9c0-2.2-1.8-4-4-4H4C1.8 5 0 6.8 0 9v18c0 2.2 1.8 4 4 4h28c2.2 0 4-1.8 4-4V9z"/></g></g></g><g><g clip-path="url(#b)" transform="matrix(1.25 0 0 -1.25 0 45)"><path fill="#3e9a00" d="M36 18H0v13h36V18z"/><g><path fill="#eb0438" d="M0 30l36-12L0 6v24z"/></g></g></g><g><g clip-path="url(#c)" transform="matrix(1.25 0 0 -1.25 0 45)"><g><path fill="#ffc827" d="M11.7 11.7c-.47-.2-2-.32-2.4 0-.36.3.76 1 .76 1s-1.12-.08-2.47.4c-1.35.46-1.97 1.3-2.6 1.3.4.4 1.78-.27 1.78-.27s-2.47 1.15-2.6 2.84c.8-1.1 1.66-1.34 1.66-1.34s-1.96 1.4-1.3 3.46c.15-.54.55-1.1.55-1.1s-.76 2.3.1 3.63c.27-.25.36-1.85.36-1.85s-.12 1.53.1 2.38c.22.84.87 1.15.87 1.15l-.28-1.55s.56.44.78.8c.22.4 1.25 1.76 2 1.86.1-.2-.6-.87-.6-.87s1.85.94 2.7.53c-.5-.47-2.07-.65-2.07-.65s.82-.37 1.2-.1c-.1-.27-.73-.5-1.17-.4-.44.1-.85-.27-.85-.27s.63-.27.9 0c-.18-.6-1.12-.47-1.43-.47-.3 0-1.44-.75-1.44-1.28.5.15.88.78.88.78s.34-.9-.57-1.32c-.9-.4-.85-1.18-.85-1.18s.5.18.56.62c.54-.25-.14-.7-.3-.94-.16-.25-.2-1.37-.2-1.37s.3.97.36 1.1c.06.12.53-.88.34-1.32-.2-.44-.37-1.34-.1-1.84.2.13.07 1.1.07 1.1s.66-.6.7-1.2c.17-.14.17.4.17.4s.44-.92.6-1.42c.15-.5 1.06-.94 1.5-.9.44.03.97-.3.97-.3s-.18 1.1-.18 1.58c0 .47.06.97.06.97s-1.87-.9-1.94.84c.47-.53 1.07-.35 1.07-.35s-1.15.22-1.1 1.25c.4-.46.95-.46.95-.46s-.63.4-.47 1.04c.72-.13 1.13-1.22 1.13-1.22s.07.9.04 1.22c-.03.3-.06.9-.06.9s-1.16-.5-1.35 1.04c.3-.4.66-.26.66-.26s-.67.5-.4 1.44c.23-.62.73-.87.73-.87s-.22.5-.22.77c.45 0 .92-.44.83-1.4.6.6.5 1.4.37 1.65-.53-.2-1 .5-1 .5s.66-.25.78.22c-.78-.22-.97.4-.97.4s.7.25 1.04 0c.25.2.1.6.1.6s.97-.35.3-1.2c.14-.4.14-1.02.14-1.02s.3.97 1.1 1.03c-.48-.44-.3-.84-.3-.84s.57.1.63.44c.73-.6-.67-1.3-.67-1.3s.4-.16.74.27c.44-.7-.68-.9-1.12-.74-.44.16-.7.2-.78-.1-.1-.27-.22-1.55-.2-1.46.04.1.26.93.5 1.28-.02-.47.14-.9.14-.9s1-.04.76.9c.96.06-.2-1.34-.2-1.34s.48-.38 1.06 0c.2-.88-.77-.7-1.1-.7-.36 0-1.2.07-1.08-.52.13-.6.44-1.72.44-1.72s.1.7.38 1.2.65.64.5-.14c.4.06.7.75.7.75s.48-.83-.52-1.42c.22-.22.7.37.7.37s.12-.87-.63-1.12c-.74-.25-1.02-.1-1.1-.57-.05-.47 0-.84 0-.84s.4-.06.98.3c.6.4 1.06.04 1.44.45.37.4.44 1.53 1.06 1.94.03-.4 0-.8 0-.8s.47.3.47.77c0 .47.1.72.25.9.16.2-.2.63-.22 1.17-.03.53.26.78.26.78s.18-1.2.6-1.6c.3 1-.26 1.47-.4 2.04-.1.56.23.6-.36 1-.6.4-.94 1-.72 1.65.4-.9.93-.96.93-.96s-.57 1.4-.88 1.32c-.3-.1-1.1-.47-1.66.1.78-.04.9.12.9.12s-.18.6-.9.37c-.72-.22-1.62.2-1.9.56.53-.14.68-.05.68-.05l-.53.34s.45-.1.76 0c.3.1.4.3.8-.04.42-.34 1-.68 1-.68s-1.02.68-.95 1.53c1.3-.37 1.63-1.52 1.94-1.7.32-.2.82-.7.97-1.2.17.6-.46 1.63-.46 1.63s1.1-.1 1.16-2.8c.28.2 0 1.55 0 1.55s1-.5.75-1.9c-.25-1.42-.66-2.04-.66-2.04s.6.28.7.97c.7-.68.14-1.8-1.02-3.27 1.32.62 1.32 1.65 1.32 1.65s.27-1.37-.88-2.2c-1.16-.8-1.7-.92-1.7-.92s.8-.07 1.17-.16c-.2-1.06-3.86-1.22-4.54-1.3.84-.5.8-.9.53-1"/></g></g></g></g></svg>