<svg xmlns="http://www.w3.org/2000/svg" viewBox="0 0 45 45" enable-background="new 0 0 45 45"><defs><clipPath id="a"><path d="M0 36h36V0H0v36z"/></clipPath></defs><g><g><g clip-path="url(#a)" transform="matrix(1.25 0 0 -1.25 0 45)"><g><path fill="#00abc9" d="M1.36 6c.7-.6 1.62-1 2.64-1h28c2.2 0 4 1.8 4 4v4.5H11.44L1.36 6z"/></g><g><path fill="#fae042" d="M17.5 18l-6.06-4.5H36v9H11.44L17.5 18z"/></g><g><path fill="#00abc9" d="M32 31H4c-1 0-1.93-.4-2.64-1l10.08-7.5H36V27c0 2.2-1.8 4-4 4"/></g><g><path fill="#141414" d="M17.5 18l-6.06 4.5L1.36 30C.53 29.24 0 28.2 0 27V9c0-1.2.53-2.25 1.36-3l10.08 7.5L17.5 18z"/></g></g></g></g></svg>