<svg xmlns="http://www.w3.org/2000/svg" viewBox="0 0 45 45" enable-background="new 0 0 45 45"><defs><clipPath id="a"><path d="M0 36h36V0H0v36z"/></clipPath></defs><g><g><g clip-path="url(#a)" transform="matrix(1.25 0 0 -1.25 0 45)"><g><path fill="#078930" d="M32 31H4c-1 0-1.92-.38-2.62-1l14.85-10.72h.83l.94 2.9.94-2.9H22l-2.47-1.8.25-.76L34.62 6c.84.73 1.38 1.8 1.38 3v18c0 2.2-1.8 4-4 4"/></g><g><path fill="#fcdd09" d="M20.47 14.58L18 16.38l-2.47-1.8.94 2.9-2.47 1.8h2.23L1.38 30C.54 29.27 0 28.2 0 27V9c0-2.2 1.8-4 4-4h28c1 0 1.92.38 2.62 1L19.78 16.72l.7-2.14z"/></g><g><path fill="#da121a" d="M16.47 17.48l-.94-2.9 2.47 1.8 2.47-1.8-.7 2.14-.24.76 2.47 1.8h-3.06l-.94 2.9-.94-2.9H14l2.47-1.8z"/></g></g></g></g></svg>