<svg xmlns="http://www.w3.org/2000/svg" viewBox="0 0 45 45" enable-background="new 0 0 45 45"><defs><clipPath id="a"><path d="M0 36h36V0H0v36z"/></clipPath></defs><g><g><g clip-path="url(#a)" transform="matrix(1.25 0 0 -1.25 0 45)"><g><path fill="#d21c33" d="M36 9c0-2.2-1.8-4-4-4H4C1.8 5 0 6.8 0 9v18c0 2.2 1.8 4 4 4h28c2.2 0 4-1.8 4-4V9z"/></g><g><path fill="#00209f" d="M32 31H4c-2.2 0-4-1.8-4-4v-9h36v9c0 2.2-1.8 4-4 4"/></g><path fill="#fff" d="M23.9 13H12v9.96h11.9V13z"/><g><path fill="#006a16" d="M23.9 14.38c-1.5.76-3.52 1.23-5.9 1.23-2.36 0-4.5-.46-6-1.22V13h11.9v1.38z"/></g><g><path fill="#00209f" d="M15.52 19.28l1.17-1.3-.16-.83-.25.14-.24-.87H16l-.1-.45-1.98.17.05 1.4.47-.13.06 1.32.7-.47.03.8.3.2z"/></g><g><path fill="#d21c33" d="M18 16.72v-2l-1.5.44-.38.56-.26.2.14.5.23.87h.35l.08.73 1.35-1.3z"/></g><g><path fill="#d21c33" d="M13.7 17.62c.17.22.5.07.52 0 0-.07-.13-.06-.27-.18-.13-.1-.1-.48-.32-.44-.22.05.06.62.06.62"/></g><g><path fill="#d21c33" d="M14.5 18.74c.23.15.5-.08.5-.15 0-.08-.14-.03-.3-.1-.16-.08-.22-.45-.43-.34-.2.1.23.58.23.58"/></g><g><path fill="#d21c33" d="M15.45 19.42c.25.13.5-.14.5-.2-.03-.08-.2.04-.37 0-.17-.07-.24-.48-.43-.34-.2.13.3.54.3.54"/></g><g><path fill="#f1b517" d="M14.94 19.98l.78-.47-.1-.22 2.1-2.3v-.2l-2.17 2.44-.28.05-.33.7z"/></g><g><path fill="#f1b517" d="M13.84 19.28s.77-.3.77-.33c0-.04.15-.28.15-.28l2.83-2.3-.1-.1-2.8 2.3-.4.17-.44.54z"/></g><g><path fill="#f1b517" d="M13 18.1s.9-.12.92-.15c0-.04.07-.24.07-.24l3.27-1.78-.15-.08-3.2 1.76-.36.02-.55.5z"/></g><g><path fill="#f1b517" d="M13.8 16.4l3.35-.4-.3-.4-.5-.04.36-.5-.17-.2-.5.55s-.16-.8-.84-.8c-.7 0-.9.7-.9.9 0 .24.06.36.06.36h-.64l.07.55z"/></g><g><path fill="#00209f" d="M20.45 19.35l-1.22-1.44.05-.82.3.2.24-.85h.06l.1-.45 1.98.17-.05 1.4-.46-.13-.06 1.32-.7-.47-.03.8-.2.28z"/></g><g><path fill="#d21c33" d="M18 16.72v-2l1.44.44.35.56.24.2-.16.5-.23.87-.27-.2-.1.8-1.27-1.18z"/></g><g><path fill="#d21c33" d="M22.2 17.62c-.2.22-.53.07-.54 0 0-.07.13-.06.27-.18.13-.1.1-.48.32-.44.22.05-.06.62-.06.62"/></g><g><path fill="#d21c33" d="M21.38 18.74c-.23.15-.5-.08-.5-.15 0-.08.14-.03.3-.1.16-.08.22-.45.43-.34.2.1-.22.58-.22.58"/></g><g><path fill="#d21c33" d="M20.43 19.42c-.25.13-.5-.14-.48-.2 0-.08.2.04.35 0 .17-.07.24-.48.43-.34.2.13-.3.54-.3.54"/></g><g><path fill="#f1b517" d="M20.94 19.98l-.78-.47.15-.22-2-2.3v-.2l2.1 2.44.25.05.3.7z"/></g><g><path fill="#f1b517" d="M22.04 19.28s-.77-.3-.77-.33c0-.04-.14-.28-.14-.28l-2.83-2.3.1-.1 2.8 2.3.4.17.44.54z"/></g><g><path fill="#f1b517" d="M22.87 18.1s-.9-.12-.9-.15c-.02-.04-.08-.24-.08-.24l-3.3-1.78.16-.08 3.2 1.76.36.02.55.5z"/></g><g><path fill="#f1b517" d="M22.1 16.4l-3.37-.4.32-.4.5-.04-.38-.5.18-.2.5.55s.16-.8.84-.8c.67 0 .88.7.88.9 0 .24-.06.36-.06.36h.64l-.07.55z"/></g><g><path fill="#fff" d="M22.86 13.86s-.6-.02-1.2.1c-.63.15-.73.4-1 .34s-.9-.3-1.4-.36c-.52-.06-1.25-.08-1.25-.08s-.67.02-1.18.08c-.5.07-1.08.3-1.35.36-.27.05-.38-.2-1-.33s-1.2-.1-1.2-.1l.15-.3-.16-.14c1.4-.02 2.05.43 2.05.43.7-.47 2.7-.48 2.7-.48s2.06 0 2.76.48c0 0 .68-.45 2.08-.43l-.15.14.16.3z"/></g><g><path fill="#f1b517" d="M18.3 18.1c0-1.48-.14-2.7-.3-2.7-.16 0-.3 1.22-.3 2.7 0 1.5.14 2.7.3 2.7.16 0 .3-1.2.3-2.7"/></g><path fill="#d21c33" d="M18.58 14.43h-1.15v1.15h1.15v-1.15z"/><g><path fill="#fff" d="M18.65 15.65c0-.14-.27-.24-.6-.24-.35 0-.63.1-.63.25 0 .13.28.23.62.23.34 0 .6-.1.6-.23"/></g><g><path fill="#d21c33" d="M18.65 14.5c0-.13-.27-.24-.6-.24-.35 0-.63.1-.63.24 0 .13.28.24.62.24.34 0 .6-.1.6-.24"/></g><g><path fill="#006a16" d="M20.5 21.3c-.22.28-.8.27-1.2.28-.4 0-.6-.13-.43.06.18.2.46.14.75.15.3 0 .34.04.16.14-.17.1-.5.2-.9.1-.42-.1-.67-.36-.9-.4-.2.04-.48.3-.9.4-.4.1-.73 0-.9-.1-.2-.1-.14-.13.15-.15.3-.02.57.03.75-.16.18-.2-.03-.05-.43-.06-.4 0-1 0-1.22-.27-.22-.27.2-.1.43-.05.23.03.56.04.56.04s-.56-.17-.7-.4c-.17-.2.03-.4.32-.23.3.17.73.4.97.42 0 0-.6-.27-.9-.5-.26-.2.02-.2.23-.2.2 0 .42.1.6.23s-.12-.27-.16-.52c-.05-.24.32-.18.38 0 .07.2.28.6.28.6s-.1-.56-.08-.93c0-.37.13-.4.23-.23s.43-.1.43-.1.3.27.4.1c.1-.16.2-.14.2.23s-.1.92-.1.92.23-.4.3-.6c.06-.18.43-.24.38 0-.05.26-.34.66-.16.53.17-.13.4-.22.6-.22.2 0 .5 0 .22.2-.28.23-.9.5-.9.5.24-.03.68-.26.97-.43.3-.16.5.03.34.24-.15.23-.7.4-.7.4s.32-.02.55-.05c.2-.04.64-.22.4.06"/></g></g></g></g></svg>