<svg xmlns="http://www.w3.org/2000/svg" viewBox="0 0 45 45" enable-background="new 0 0 45 45"><defs><clipPath id="a"><path d="M0 36h36V0H0v36z"/></clipPath></defs><g><g><g clip-path="url(#a)" transform="matrix(1.25 0 0 -1.25 0 45)"><g><path fill="#2d3189" d="M32 31H9.18l-.67-.48.38-1.13-.96.7-.95-.7.36 1.12-.67.48H4c-2.2 0-4-1.8-4-4V9c0-2.2 1.8-4 4-4h19.73l.1.32-.95.7h1.18l.36 1.12.37-1.12h1.17l-.96-.7.12-.32H32c2.2 0 4 1.8 4 4v18c0 2.2-1.8 4-4 4"/></g><g><path fill="#e1e8ed" d="M6.97 29.4l.95.7.96-.7-.37 1.12.68.48H6.66l.67-.48-.36-1.13z"/></g><g><path fill="#e1e8ed" d="M25.97 6.02H24.8l-.38 1.12-.36-1.12h-1.2l.97-.7-.1-.32h1.4l-.12.32.97.7z"/></g><g><path fill="#e1e8ed" d="M10 29.18l.36-1.12h1.18l-.95-.7.35-1.12-.95.7-.96-.7.37 1.13-.95.7h1.18l.37 1.1z"/></g><g><path fill="#e1e8ed" d="M12.07 26.04l.36-1.13h1.18l-.94-.68.36-1.12-.95.7-.96-.7.38 1.12-.96.7h1.18l.37 1.12z"/></g><g><path fill="#e1e8ed" d="M14.12 22.9l.37-1.14h1.17l-.96-.7.38-1.1-.96.68-.95-.7.36 1.13-.95.7h1.18l.36 1.12z"/></g><g><path fill="#e1e8ed" d="M16.18 19.74l.37-1.13h1.18l-.96-.68.37-1.12-.96.7-.95-.7.36 1.12-.96.7h1.18l.36 1.12z"/></g><g><path fill="#e1e8ed" d="M18.24 16.6l.37-1.14h1.2l-.96-.7.36-1.1-.96.68-.95-.7.35 1.13-.95.7h1.18l.36 1.12z"/></g><g><path fill="#e1e8ed" d="M20.3 13.44l.37-1.12h1.18l-.95-.7.36-1.12-.95.7-.95-.7.36 1.12-.94.7h1.18l.37 1.12z"/></g><g><path fill="#e1e8ed" d="M22.36 10.3l.36-1.13h1.2l-.97-.7.37-1.12-.96.7-.96-.7.37 1.12-.96.7H22l.36 1.12z"/></g><g><path fill="#fbd116" d="M28 5v26H11L28 5z"/></g></g></g></g></svg>