<svg xmlns="http://www.w3.org/2000/svg" viewBox="0 0 45 45" enable-background="new 0 0 45 45"><defs><clipPath id="a"><path d="M0 36h36V0H0v36z"/></clipPath></defs><g><g><g clip-path="url(#a)" transform="matrix(1.25 0 0 -1.25 0 45)"><g><path fill="#4189dd" d="M6.28 24.72l-.95-3.05-.94 3.05-3.07.95 3.06.94.93 3.07.95-3.06 3.05-.93-3.05-.95zM32 31H4c-2.2 0-4-1.8-4-4V13.94h36V27c0 2.2-1.8 4-4 4"/></g><g><path fill="#4189dd" d="M4 5h28c1.87 0 3.43 1.3 3.87 3.03H.13C.57 6.3 2.13 5 4 5"/></g><path fill="#4189dd" d="M0 10h36v1.97H0V10z"/><g><path fill="#fff" d="M6.06 24.94l-.73-2.35-.72 2.34-2.35.73 2.36.72.73 2.35.73-2.36 2.35-.73-2.34-.73zm-.73 4.73L4.4 26.6l-3.07-.93 3.06-.95.93-3.05.95 3.05 3.05.95-3.05.94-.95 3.07z"/></g><g><path fill="#d21034" d="M5.33 28.75L4.6 26.4l-2.35-.73 2.36-.73.73-2.35.73 2.34 2.36.73-2.36.72-.73 2.35z"/></g><path fill="#f9d616" d="M0 11.97h36v1.97H0v-1.97z"/><g><path fill="#f9d616" d="M0 9c0-.34.05-.66.13-.97h35.74c.08.3.13.63.13.97v1H0V9z"/></g></g></g></g></svg>