<svg xmlns="http://www.w3.org/2000/svg" viewBox="0 0 45 45" enable-background="new 0 0 45 45"><defs><clipPath id="a"><path d="M0 36h36V0H0v36z"/></clipPath></defs><g><g><g clip-path="url(#a)" transform="matrix(1.25 0 0 -1.25 0 45)"><g><path fill="#141414" d="M36 9c0-2.2-1.8-4-4-4H4C1.8 5 0 6.8 0 9v18c0 2.2 1.8 4 4 4h28c2.2 0 4-1.8 4-4V9z"/></g><path fill="#eee" d="M36 13H0v10h36V13z"/><g><path fill="#ce1225" d="M32 31H4c-2.2 0-4-1.8-4-4v-4h36v4c0 2.2-1.8 4-4 4"/></g><g><path fill="#bf9300" d="M14.75 14.44s.02-.25.23-.38c0 0-.06-.18.18-.3.23-.1 1.07-.28 2.54-.28s2.3.16 2.52.27c.22.1.23.36.23.36s.24.13.22.3c0 .15-.33.32-.33.32s-.07.2-.3.28c-.2.08-.9-.34-2.26-.28-1.34.06-2.1.26-2.36.25-.25-.02-.36-.27-.36-.27s-.28-.12-.3-.26"/></g><g><path fill="#eee" d="M14.92 14.45c0-.1.2-.3.2-.3s0-.23.2-.3c.2-.05 1.02-.2 2.37-.2 1.33.02 2.28.1 2.4.2.1.1.2.3.2.3s.22.15.2.27c-.02.13-.33.2-.33.2s-.1.2-.2.27-.77-.32-2.2-.32c-1.4 0-2.22.34-2.36.33-.13 0-.23-.27-.23-.27s-.23-.07-.25-.18"/></g><g><path fill="#bf9300" d="M15.1 15.58l.2 4.94.47-.5L15.6 16l-.5-.42z"/></g><g><path fill="#bf9300" d="M20.3 15.58l-.2 4.94-.46-.5.16-4.02.5-.42z"/></g><g><path fill="#bf9300" d="M16.72 18.17l-1.03-3s-.73.03-.53-.55c0 0 .1.33.3.27.2-.07.73-.2.73-.2l.2-.3.22.2.74.04s.23-.06.22-.27c.2.47-.3.6-.3.6l-.25.06.52 2.02c.33-.48-.83 1.12-.83 1.12"/></g><g><path fill="#eee" d="M17.38 17.1l-.57-2.13-.93.2.97 2.74.53-.8z"/></g><g><path fill="#bf9300" d="M18.73 18.17l1.03-3s.72.03.52-.55c0 0-.1.33-.3.27-.2-.07-.73-.2-.73-.2l-.2-.3-.23.2-.73.04s-.24-.06-.23-.27c-.2.47.3.6.3.6l.25.06-.52 2.02c-.33-.48.83 1.12.83 1.12"/></g><g><path fill="#eee" d="M18.07 17.1l.57-2.13.93.2-.97 2.74-.53-.8z"/></g><g><path fill="#bf9300" d="M17.75 17.08c-1.12.7-1.22 2.45-1.22 2.45s.7.04 1.2.4c.46-.4 1.24-.37 1.24-.37s-.05-1.76-1.22-2.48m0 3.12c-.62-.43-1.48-.47-1.48-.47s.1-2.12 1.48-2.98c1.44.9 1.5 3.02 1.5 3.02s-.94-.07-1.5.43"/></g><g><path fill="#bf9300" d="M16.77 19.36s.07-.9.48-1.6v1.8s-.27-.15-.48-.2"/></g><g><path fill="#bf9300" d="M18.72 19.33s-.08-.9-.5-1.6v1.8s.28-.15.5-.2"/></g><g><path fill="#bf9300" d="M14.55 20.52s.03.73.7.64c.67-.1.72-.43 1.44-.5.7-.08 1.02-.07 1.02-.07l-.02-.23s-.56.06-1.1.1c-.58.08-.82.4-1.38.47-.44.06-.42-.38-.42-.38l-.25-.04z"/></g><g><path fill="#bf9300" d="M20.86 20.52s-.03.73-.7.64c-.68-.1-.72-.43-1.44-.5-.72-.08-1.03-.07-1.03-.07v-.23s.56.06 1.1.1c.6.08.82.4 1.4.47.43.06.4-.38.4-.38l.26-.04z"/></g><g><path fill="#bf9300" d="M16.72 20.4s.73.87.58 1.63c0 0-.32.3-.4.2-.07-.1-.17.25 0 .4.18.14.55-.05.55-.05s.1.22.58-.02c.5-.23.34-.44.34-.9 0-.47.2-1.18.36-1.32 0 0-.23 0-.37.1l-.03-.16s-.22.08-.33.16l-.28-.14-.16.22s-.3-.22-.45-.27l.07.22s-.3-.08-.45-.08"/></g><g><path fill="#eee" d="M16.95 22.42s.1.1.43-.1c.2-.15.38-.26.38-.26s.13.14.3.1c.2-.03.1-.3.13-.83.02-.55.24-.78.24-.78l-.27.15.02-.17-.3.14-.15-.2-.14.22-.22-.15-.07.18-.25-.14s.4.48.42 1c0 .17-.03.52-.03.52s-.25.32-.5.3"/></g><g><path fill="#bf9300" d="M17.05 15.47l.18-.28.24.17.2.86-.12-.93.12-.3.22.23-.04 1.1.17-1.08.24-.16.15.3-.42 1.65-.55-.03-.4-1.55z"/></g><g><path fill="#bf9300" d="M15.55 14.34c-.18-.1-.1-.17 0-.22.1-.04.76-.12 2.1-.15 1.35-.03 2.2.12 2.3.2.1.05.13.16-.06.2-.2.02-1.13-.14-2.28-.14-1.4 0-2 .16-2.07.1"/></g><g><path fill="#bf9300" d="M16.27 19.73l-.14.06-1.05.93-.53-.2-.27-5.7.55.44v.06l1.14 1 .22.23.6 1.46-.28.56-.25 1.15z"/></g><g><path fill="#bf9300" d="M21.13 14.84l-.27 5.68-.53.2-.95-.9-.24-.1-.25-1.14-.18-.47.5-1.54.22-.22 1.14-1v-.07l.55-.43z"/></g><g><path fill="#bf9300" d="M17.08 15.58l-.23-.74.5-.2.98.07.15.3-.48 1.66s-.63.06-.64 0c0-.05-.28-1.08-.28-1.08"/></g></g></g></g></svg>