<svg xmlns="http://www.w3.org/2000/svg" viewBox="0 0 45 45" enable-background="new 0 0 45 45"><defs><clipPath id="a"><path d="M0 36h36V0H0v36z"/></clipPath></defs><g><g><g clip-path="url(#a)" transform="matrix(1.25 0 0 -1.25 0 45)"><g><path fill="#00267f" d="M36 9c0-2.2-1.8-4-4-4H4C1.8 5 0 6.8 0 9v18c0 2.2 1.8 4 4 4h28c2.2 0 4-1.8 4-4V9z"/></g><g><path fill="#00267f" d="M4 31c-2.2 0-4-1.8-4-4V9c0-2.2 1.8-4 4-4h8v26H4z"/></g><path fill="#ffc726" d="M24 5H12v26h12V5z"/><g><path d="M22.83 22.48c-1.4 0-2.5-1.03-2.86-1.43.42.1.52-.24.45-.44-.44-1.47-.8-3.2-.93-4.14h-.9v5.18l1.08.23-1.37.27-.27 1.38-.28-1.38-1.37-.27 1.1-.23v-5.18h-.95c-.1.93-.48 2.67-.93 4.15-.06.2.03.54.46.45-.36.4-1.46 1.43-2.86 1.43.6-.9 2.24-3.43 2.45-6.4v-.62h1.83v-2.4h1.1v2.4h1.77v.23c.08 3.13 1.84 5.84 2.48 6.78"/></g></g></g></g></svg>