<svg xmlns="http://www.w3.org/2000/svg" viewBox="0 0 45 45" enable-background="new 0 0 45 45"><defs><clipPath id="a"><path d="M4 31c-2.2 0-4-1.8-4-4V9c0-2.2 1.8-4 4-4h28c2.2 0 4 1.8 4 4v18c0 2.2-1.8 4-4 4H4z"/></clipPath></defs><g><g><g clip-path="url(#a)" transform="matrix(1.25 0 0 -1.25 0 45)"><path fill="#d00c33" d="M0 19h36V5H0v14z"/><path fill="#eee" d="M0 31h36V18H0v13z"/><g><path fill="#eee" d="M21.5 18c0-4.42-3.58-8-8-8s-8 3.58-8 8 3.58 8 8 8 8-3.58 8-8"/></g><g><path fill="#d00c33" d="M13.5 26c-4.42 0-8-3.58-8-8h16c0 4.42-3.58 8-8 8"/></g></g></g></g></svg>