<svg xmlns="http://www.w3.org/2000/svg" viewBox="0 0 45 45" enable-background="new 0 0 45 45"><defs><clipPath id="a"><path d="M0 36h36V0H0v36z"/></clipPath></defs><g><g><g clip-path="url(#a)" transform="matrix(1.25 0 0 -1.25 0 45)"><g><path fill="#ed1c23" d="M36 9c0-2.2-1.8-4-4-4H4C1.8 5 0 6.8 0 9v18c0 2.2 1.8 4 4 4h28c2.2 0 4-1.8 4-4V9z"/></g><path fill="#034ea2" d="M36 12H0v7h36v-7z"/><g><path fill="#fd0" d="M36 19v8c0 2.2-1.8 4-4 4H4c-2.2 0-4-1.8-4-4v-8h36z"/></g><g><path fill="#fd0" d="M23 17c0-1.1-.9-2-2-2h-6c-1.1 0-2 .9-2 2v3c0 1.1.9 2 2 2h6c1.1 0 2-.9 2-2v-3z"/></g><g><path fill="#034ea2" d="M22 18c0-1.1-.9-3-2-3h-4c-1.1 0-2 1.9-2 3v1c0 1.1.9 2 2 2h4c1.1 0 2-.9 2-2v-1z"/></g><g><path fill="#ed1c23" d="M21 18c0-1.1-.9-3-2-3h-2c-1.1 0-2 1.9-2 3v1c0 1.1.9 2 2 2h2c1.1 0 2-.9 2-2v-1z"/></g><g><path fill="#6dbe46" d="M19.97 21.87C19.84 21.37 19 21 18 21c-1 0-1.84.38-1.97.87-1.2-.18-1.03-.5-1.03-.87 0-.55.8-1 3-1s3 .45 3 1c0 .37.18.7-1.03.87"/></g><g><path fill="#a6d388" d="M19 17c0-.55-.45-1-1-1s-1 .45-1 1v3c0 .55.45 1 1 1s1-.45 1-1v-3z"/></g><g><path fill="#662113" d="M21.5 24c.44 0 .86-.05 1.25-.14C22.12 24.94 20 26 18 24c-2 2-4.12.94-4.75-.14.4.1.8.14 1.25.14 1.93 0 3.5-.9 3.5-2 0 1.1 1.57 2 3.5 2"/></g><g><path fill="#8ed2e7" d="M20 18.5c0-1.93-.9-3.5-2-3.5s-2 1.57-2 3.5.9 3.5 2 3.5 2-1.57 2-3.5"/></g><g><path fill="#6dbe46" d="M17.5 19c-.54 0-1.04-.13-1.5-.34 0-.06 0-.1 0-.16 0-1.93.9-3.5 2-3.5 1 0 1.82 1.3 1.97 2.98-.63.63-1.5 1.02-2.47 1.02"/></g><g><path fill="#ffcc4d" d="M21 14c0-.55-1.34-1-3-1s-3 .45-3 1 1.34 1 3 1 3-.45 3-1"/></g><g><path fill="#034ea2" d="M20 13c0-.83-.9-1-2-1s-2 .17-2 1 .9 2 2 2 2-1.17 2-2"/></g><g><path fill="#ed1c23" d="M17 13c0 .83.45 2 1 2s1-1.17 1-2c0-.83-.45-1-1-1s-1 .17-1 1"/></g><g><path fill="#ccd6dd" d="M17 25c0 .55.45 0 1 0s1 .55 1 0-.45-1-1-1-1 .45-1 1"/></g><g><path fill="#fff" d="M19 18.5c0-.28-.45-.5-1-.5s-1 .22-1 .5.45.5 1 .5 1-.22 1-.5"/></g><g><path fill="#c1694f" d="M14 20.5c0-.28-.45-.5-1-.5s-1 .22-1 .5.45.5 1 .5 1-.22 1-.5"/></g><g><path fill="#c1694f" d="M15 22.5c0-.28-.45-.5-1-.5s-1 .22-1 .5.45.5 1 .5 1-.22 1-.5"/></g><g><path fill="#c1694f" d="M24 20.5c0-.28-.45-.5-1-.5s-1 .22-1 .5.45.5 1 .5 1-.22 1-.5"/></g><g><path fill="#c1694f" d="M23 22.5c0-.28-.45-.5-1-.5s-1 .22-1 .5.45.5 1 .5 1-.22 1-.5"/></g></g></g></g></svg>