<svg xmlns="http://www.w3.org/2000/svg" viewBox="0 0 45 45" enable-background="new 0 0 45 45"><defs><clipPath id="a"><path d="M0 36h36V0H0v36z"/></clipPath><clipPath id="b"><path d="M4 31c-2.2 0-4-1.8-4-4v-9h19v13H4z"/></clipPath><clipPath id="c"><path d="M0 36h36V0H0v36z"/></clipPath></defs><g><g><g clip-path="url(#a)" transform="matrix(1.25 0 0 -1.25 0 45)"><g><path fill="#cf1b2b" d="M36 9c0-2.2-1.8-4-4-4H4C1.8 5 0 6.8 0 9v18c0 2.2 1.8 4 4 4h28c2.2 0 4-1.8 4-4V9z"/></g><g><path fill="#00247d" d="M19 31H4c-2.2 0-4-1.8-4-4v-9h19v13z"/></g><g><path fill="#eee" d="M19 18v2.03L11.9 25H6.67l10-7H19z"/></g><g><path fill="#cf1b2b" d="M19 19.42L11.03 25H9.3l9.7-6.8v1.22z"/></g><g><path fill="#eee" d="M8.1 25L0 19.23V18h3.33l10 7H8.1z"/></g><g><path fill="#cf1b2b" d="M10.7 25L.74 18h1.73l10 7H10.7z"/></g><g><path fill="#eee" d="M16.67 31l-10-7h5.23l7.1 4.97V31h-2.33z"/></g><g><path fill="#cf1b2b" d="M17.54 31l-10-7H9.3l9.7 6.8v.2h-1.46z"/></g></g></g><g><g clip-path="url(#b)" transform="matrix(1.25 0 0 -1.25 12.5 15)"><g><path fill="#eee" d="M0 0h3.33l-10 7H-9l-.63-1.6L0-1.32V0z"/></g><g><path fill="#cf1b2b" d="M0 0h.7L-9 6.8l-.5-.86L0-.72V0z"/></g></g></g><g><g clip-path="url(#c)" transform="matrix(1.25 0 0 -1.25 0 45)"><g><path fill="#eee" d="M19 27h-7v4H7v-4H0v-5h7v-4h5v4h7v5z"/></g><path fill="#cf1b2b" d="M11 18H8v13h3V18z"/><path fill="#cf1b2b" d="M19 23H0v3h19v-3z"/><g><path d="M22.58 23.4v-9.05c0-.64.15-1.52 1.32-2.06 1-.47 2.47-1 3.14-1.43.38-.23.96-.64.96-.64s.58.4.96.64c.67.43 2.05.96 3.04 1.42 1.17.53 1.3 1.4 1.3 2.05v9.06H22.6z"/></g><g><path fill="#fff" d="M23.1 22.9v-8.41c0-.6.15-1.43 1.24-1.93.93-.44 2.13-.93 2.76-1.33.36-.22.9-.6.9-.6s.55.38.9.6c.63.4 1.84.9 2.77 1.33 1.1.5 1.23 1.32 1.23 1.92v8.39h-9.8z"/></g><g><path fill="#2e8f22" d="M23.1 14.45c.02-.6.17-1.4 1.24-1.88.93-.43 2.13-.93 2.76-1.33.36-.22.9-.6.9-.6s.55.38.9.6c.63.4 1.84.9 2.77 1.33 1.07.5 1.22 1.3 1.23 1.88h-9.8z"/></g><g><path fill="#cf1b2b" d="M31.86 15.62c-.07.4 0 1-.1 1.18-.1.17-1.1.53-1.8.46-.72-.08-.23.88.27 1.13.5.24.96.45 1.03.74.07.28-.18.5-.6.42-.43-.07-.68-.07-.93-.32-.24-.25-.28.04-.4.32-.1.28.1.4.12.67.04.3-.03 1.07-.25 1.4-.2.3-.1.52-.45.7-.36.17-.75.32-.75.32s-.4-.15-.74-.32c-.36-.18-.25-.4-.46-.7-.2-.33-.3-1.1-.25-1.4.04-.28.2-.4.1-.67-.1-.28-.14-.57-.38-.32-.25.25-.5.25-.93.32-.42.07-.67-.14-.6-.42.07-.3.53-.5 1.03-.75.5-.26 1-1.2.28-1.14-.7.07-1.7-.3-1.8-.47-.1-.18-.04-.8-.1-1.18-.08-.4-.26-.7-.08-.63.17.06 1 .34 1.38.62.4.3.85-1.13.67-1.48-.17-.36-.2-.6-.5-.47-.28.15-.7-.07-.84-.35-.15-.28.17-.46.53-.7.36-.26.8.24.97.5.17.24 1.73 1.02 1.73 1.02s1.56-.78 1.74-1.03c.18-.24.6-.74.95-.5.35.26.67.44.52.72-.14.28-.56.5-.85.35-.28-.14-.32.1-.5.47-.17.35.3 1.77.68 1.48.4-.28 1.2-.56 1.38-.63.18-.08 0 .23-.07.62"/></g><g><path fill="#ffe000" d="M30.87 17.6s.1-.24.24-.24c.16 0 .4.32.2.57-.22.25-.4.35-.3.57.1.2-.17.56-.17.56-.14-.2-.53-.53-1.2-.1-.68.42-1.2.5-1.32.25h-.6c-.12.25-.65.18-1.32-.24-.68-.43-1.07-.1-1.2.1 0 0-.3-.35-.2-.56.12-.22-.06-.32-.27-.57-.2-.25.04-.57.2-.57.13 0 .23.25.23.25s.46-.38.43-.9c-.04-.54-.75-1.04-.75-1.04.23-.25.23-.6.44-1.24.2-.64.96-.46.96-.46.03-.4.7-.78.95-.78s.32-.22.32-.22-.28-.17-.14-.32c.14-.13.6.05.67.07.06 0 .54-.2.67-.06.14.15-.14.32-.14.32s.07.22.32.22c.24 0 .92.4.95.78 0 0 .75-.18.96.46.2.64.2 1 .43 1.24 0 0-.72.5-.76 1.03-.03.52.43.9.43.9"/></g><g><path fill="#64b4d1" d="M31.3 17.9c-.22.24-.4.35-.3.56.12.2-.13.36-.13.36-.14-.22-.73-.52-1.24-.22-.53.32-.67.25-.8.32 0 0 .07-.24-.12-.32-.27-.1-.38.15-.38.15h-.64s-.1-.25-.4-.15c-.18.08-.1.32-.1.32-.14-.07-.28 0-.8-.32-.52-.3-1.1 0-1.25.22 0 0-.25-.15-.14-.36.1-.2-.1-.32-.3-.57-.2-.25.1-.04.25-.04.14 0 .5-.25.5-.25s.4-.27.35-.95c-.03-.53-.8-1.06-.8-1.06.2-.26.25-.7.38-1.08 0-.02.02-.05.03-.07.22-.46.6-.28.6-.28s-.06.25.15.28c.22.04.3-.17.3-.17s.24.07.3-.15c.08-.2-.24-.28-.24-.28-.02-.07.2-.4.93-.55.14-.1.2-.3.2-.3v-.32h.73V13s.07.2.2.3c.75.16.96.48.93.55 0 0-.33.07-.26.28.07.22.32.15.32.15s.07.2.28.17c.22-.03.15-.28.15-.28s.38-.18.6.28c0 .02 0 .05.02.07.13.4.18.82.4 1.07 0 0-.8.52-.82 1.05-.04.68.35.96.35.96s.36.26.5.26.46-.2.25.03"/></g><g><path fill="#ccc" d="M30.2 16.65c0 .1 0 .18 0 .26-.33 0-.66.17-.78.32-.14.18-.32.18-.64 0s-.32-.67-.32-.67v-.08l1.95-1.27.57.34c.02 0 .03.03.04.05 0 0-.77.52-.8 1.05"/></g><g><path fill="#e4cb5e" d="M25.66 18.1l.25-2.62 1.14-.85 1.17.96-.23.73-.15.96-.42.27-.36.7-.46.05-.25-.18s-.2.14-.2.1c0-.03-.2-.2-.2-.2l-.27.07z"/></g><g><path d="M27.64 18l.43.1.6-1.06.6.07.1-.27-1.62-.53v.42l.07.15-.18 1.13z"/></g><g><path d="M26.5 17.65l.2-2.56.17.1s-.25 2.1-.22 2.06c.04-.04.53-1.8.53-1.8l.22-.08-.6 2.2.95-1.67.18.43-1 1.35-.28.36-.14-.4z"/></g><g><path fill="#9f5a2b" d="M27.72 16.55l1.6.35.7-1.06-.28-.82s-1.2-.6-1.24-.64c-.04-.03-1.17.1-1.17.1l.4 2.07z"/></g><g><path fill="#ccc" d="M29.56 14.28s.07.2.28.17c.22-.03.15-.28.15-.28s.38-.18.6.28c0 .02.02.05.02.07.13.4.18.82.4 1.07 0 0-.03 0-.06.03-.2-.08-.34-.18-.34-.18s0 .32-.35.4c-.35.06-.7-.47-.7-.47-.15.42-.72 0-.97-.4-.24-.38-.85-.28-.85-.28l-.1.22s.03.35-.25.53c-.3.17-.7-.25-.7-.25.1.46-.4.4-.5.32-.1-.07-.3.18-.54.25-.2.05-.35-.35-.44-.7.05-.17.1-.36.16-.55 0-.02.02-.05.03-.07.22-.46.6-.28.6-.28s-.06.25.16.28c.2.04.28-.17.28-.17s.25.07.32-.15c.07-.2-.25-.28-.25-.28-.02-.07.2-.4.93-.55.14-.1.2-.3.2-.3v-.32h.73V13s.07.2.2.3c.75.16.96.48.93.55 0 0-.33.07-.26.28.07.22.32.15.32.15"/></g><g><path fill="#fff" d="M28.46 21.94l-.35-.18.08-.14.35.07-.07.24zm-.96 0l.36-.18-.07-.14-.37.07.07.24z"/></g><g><path d="M28.75 21.48l.07.24-.32-.32-.14-.17-.18.17-.18-.17-.18.17-.18-.17-.14.17-.32.32.08-.24-.36-.25.32.14.18-.07.17-.18.25.07.18-.22.18.2.25-.06.17.18.18.07.32-.14-.35.25z"/></g></g></g></g></svg>