<svg xmlns="http://www.w3.org/2000/svg" viewBox="0 0 45 45" enable-background="new 0 0 45 45"><defs><clipPath id="a"><path d="M0 36h36V0H0v36z"/></clipPath></defs><g><g><g clip-path="url(#a)" transform="matrix(1.25 0 0 -1.25 0 45)"><g><path fill="#0d5eb0" d="M4 5h28c.7 0 1.36.18 1.94.5H2.07C2.64 5.18 3.3 5 4 5"/></g><g><path fill="#eee" d="M8.5 16.5H0V14h36v2.5H8.5z"/></g><g><path fill="#eee" d="M0 9c0-.17 0-.34.04-.5h35.92c.03.16.04.33.04.5v2H0V9z"/></g><path fill="#eee" d="M14 19.5h22V22H14v-2.5z"/><g><path fill="#eee" d="M14 27.5V25h22v2c0 .17 0 .34-.04.5H14z"/></g><path fill="#0d5eb0" d="M14 22h22v3H14v-3z"/><path fill="#0d5eb0" d="M0 11h36v3H0v-3z"/><g><path fill="#0d5eb0" d="M2.07 5.5h31.87c1.1.6 1.86 1.7 2.03 3H.03c.17-1.3.94-2.4 2.04-3"/></g><path fill="#0d5eb0" d="M0 16.5h5.5V22H0v-5.5z"/><g><path fill="#0d5eb0" d="M14 19.5V22H8.5v-5.5H36v3H14z"/></g><g><path fill="#0d5eb0" d="M33.93 30.5c-.57.32-1.23.5-1.93.5H4c-.7 0-1.36-.18-1.94-.5-1.1-.6-1.86-1.7-2.03-3C0 27.34 0 27.17 0 27v-2h5.5v5.5h3V25H14v2.5h21.97c-.17 1.3-.94 2.4-2.04 3"/></g><g><path fill="#eee" d="M8.5 25v6h-3v-6H0v-3h5.5v-5.5h3V22H14v3H8.5z"/></g></g></g></g></svg>