<svg xmlns="http://www.w3.org/2000/svg" viewBox="0 0 45 45" enable-background="new 0 0 45 45"><defs><clipPath id="a"><path d="M0 36h36V0H0v36z"/></clipPath><clipPath id="b"><path d="M4 31c-2.2 0-4-1.8-4-4v-9h19v13H4z"/></clipPath><clipPath id="c"><path d="M0 36h36V0H0v36z"/></clipPath></defs><g><g><g clip-path="url(#a)" transform="matrix(1.25 0 0 -1.25 0 45)"><g><path fill="#eee" d="M36 9c0-2.2-1.8-4-4-4H4C1.8 5 0 6.8 0 9v18c0 2.2 1.8 4 4 4h28c2.2 0 4-1.8 4-4V9z"/></g><g><path fill="#00247d" d="M34.36 7.88c-1.8 0-1.8 1.06-3.63 1.06-1.82 0-1.82-1-3.7-1-1.76 0-1.76 1-3.6 1-1.8 0-1.8-1-3.6-1-1.83 0-1.83 1-3.65 1-1.82 0-1.82-1-3.63-1-1.82 0-1.82 1-3.64 1-1.8 0-1.8-1-3.63-1-1.82 0-1.82 1-3.63 1-.77 0-1.2-.18-1.6-.4.08-.62.28-1.22.62-1.73.26.1.57.14.98.14 1.8 0 1.8-1 3.63-1 1.82 0 1.82 1 3.64 1 1.83 0 1.83-1 3.65-1 1.8 0 1.8 1 3.63 1 1.82 0 1.82-1 3.64-1s1.82 1 3.63 1c1.82 0 1.82-1 3.64-1 1.8 0 1.8 1 3.63 1 1.82 0 1.82-.97 3.63-.97.1 0 .16 0 .24 0 .67.6 1.16 1.4 1.33 2.3-.4-.2-.82-.4-1.57-.4"/></g><g><path fill="#00247d" d="M36 10.62v1.94c-.4-.23-.85-.43-1.64-.43-1.8 0-1.8 1.06-3.63 1.06-1.82 0-1.82-1-3.7-1-1.76 0-1.76 1-3.6 1-1.8 0-1.8-1-3.6-1-1.83 0-1.83 1-3.65 1-1.82 0-1.82-1-3.63-1-1.82 0-1.82 1-3.64 1-1.8 0-1.8-1-3.63-1-1.8 0-1.8 1-3.63 1-.8 0-1.24-.2-1.64-.4v-2c.4.2.85.4 1.64.4 1.82 0 1.82-1 3.63-1 1.82 0 1.82 1 3.64 1 1.83 0 1.83-1 3.65-1 1.8 0 1.8 1 3.63 1 1.82 0 1.82-1 3.64-1s1.82 1 3.63 1c1.82 0 1.82-1 3.64-1 1.8 0 1.8 1 3.63 1 1.82 0 1.82-.97 3.63-.97.8 0 1.24.18 1.64.4"/></g><g><path fill="#00247d" d="M36 14.87v1.95c-.4-.23-.85-.43-1.64-.43-1.8 0-1.8 1.05-3.63 1.05-1.82 0-1.82-1-3.7-1-1.76 0-1.76 1-3.6 1-1.8 0-1.8-1-3.6-1-1.83 0-1.83 1-3.65 1-1.82 0-1.82-1-3.63-1-1.82 0-1.82 1-3.64 1-1.8 0-1.8-1-3.63-1-1.8 0-1.8 1-3.63 1-.8 0-1.24-.2-1.64-.4v-2c.4.2.85.4 1.64.4 1.82 0 1.82-1 3.63-1 1.82 0 1.82 1 3.64 1 1.83 0 1.83-1 3.65-1 1.8 0 1.8 1 3.63 1 1.82 0 1.82-1 3.64-1s1.82 1 3.63 1c1.82 0 1.82-1 3.64-1 1.8 0 1.8 1 3.63 1 1.82 0 1.82-.97 3.63-.97.8 0 1.24.2 1.64.4"/></g><g><path fill="#00247d" d="M36 19.13v1.95c-.4-.23-.85-.43-1.64-.43-1.8 0-1.8 1.06-3.63 1.06-1.82 0-1.82-1-3.7-1-1.76 0-1.76 1-3.6 1-1.8 0-1.8-1-3.6-1-1.83 0-1.83 1-3.65 1-1.82 0-1.82-1-3.63-1-1.82 0-1.82 1-3.64 1-1.8 0-1.8-1-3.63-1-1.8 0-1.8 1-3.63 1-.8 0-1.24-.18-1.64-.4v-2c.4.22.85.4 1.64.4 1.82 0 1.82-1 3.63-1 1.82 0 1.82 1 3.64 1 1.83 0 1.83-1 3.65-1 1.8 0 1.8 1 3.63 1 1.82 0 1.82-1 3.64-1s1.82 1 3.63 1c1.82 0 1.82-1 3.64-1 1.8 0 1.8 1 3.63 1 1.82 0 1.82-.96 3.63-.96.8 0 1.24.18 1.64.4"/></g><g><path fill="#00247d" d="M36 23.4v1.93c-.4-.22-.85-.43-1.64-.43-1.8 0-1.8 1.07-3.63 1.07-1.82 0-1.82-1-3.7-1-1.76 0-1.76 1-3.6 1-1.8 0-1.8-1-3.6-1-1.83 0-1.83 1-3.65 1-1.82 0-1.82-1-3.63-1-1.82 0-1.82 1-3.64 1-1.8 0-1.8-1-3.63-1-1.8 0-1.8 1-3.63 1-.8 0-1.24-.2-1.64-.4v-2c.4.2.85.4 1.64.4 1.82 0 1.82-1 3.63-1 1.82 0 1.82 1 3.64 1 1.83 0 1.83-1 3.65-1 1.8 0 1.8 1 3.63 1 1.82 0 1.82-1 3.64-1s1.82 1 3.63 1c1.82 0 1.82-1 3.64-1 1.8 0 1.8 1 3.63 1 1.82 0 1.82-.97 3.63-.97.8 0 1.24.18 1.64.4"/></g><g><path fill="#00247d" d="M35.94 27.62c-.1.6-.32 1.17-.66 1.66-.25-.07-.54-.12-.92-.12-1.8 0-1.8 1.06-3.63 1.06-1.82 0-1.82-1-3.7-1-1.76 0-1.76 1-3.6 1-1.8 0-1.8-1-3.6-1-1.83 0-1.83 1-3.65 1-1.82 0-1.82-1-3.63-1-1.82 0-1.82 1-3.64 1-1.8 0-1.8-1-3.63-1-1.8 0-1.82 1-3.62 1C.88 29.66.3 28.82.1 27.87c.38.2.8.35 1.54.35 1.8 0 1.8-1 3.63-1 1.82 0 1.82 1 3.64 1 1.83 0 1.83-1 3.65-1 1.8 0 1.8 1 3.63 1 1.82 0 1.82-1 3.64-1s1.82 1 3.63 1c1.82 0 1.82-1 3.64-1 1.8 0 1.8 1 3.63 1 1.82 0 1.82-.97 3.63-.97.76 0 1.2.17 1.58.37"/></g><g><path fill="#00247d" d="M19 31H4c-2.2 0-4-1.8-4-4v-9h19v13z"/></g><g><path fill="#eee" d="M19 18v2.03L11.9 25H6.67l10-7H19z"/></g><g><path fill="#cf1b2b" d="M19 19.42L11.03 25H9.3l9.7-6.8v1.22z"/></g><g><path fill="#eee" d="M8.1 25L0 19.23V18h3.33l10 7H8.1z"/></g><g><path fill="#cf1b2b" d="M10.7 25L.74 18h1.73l10 7H10.7z"/></g><g><path fill="#eee" d="M16.67 31l-10-7h5.23l7.1 4.97V31h-2.33z"/></g><g><path fill="#cf1b2b" d="M17.54 31l-10-7H9.3l9.7 6.8v.2h-1.46z"/></g></g></g><g><g clip-path="url(#b)" transform="matrix(1.25 0 0 -1.25 12.5 15)"><g><path fill="#eee" d="M0 0h3.33l-10 7H-9l-.63-1.6L0-1.32V0z"/></g><g><path fill="#cf1b2b" d="M0 0h.7L-9 6.8l-.5-.86L0-.72V0z"/></g></g></g><g><g clip-path="url(#c)" transform="matrix(1.25 0 0 -1.25 0 45)"><g><path fill="#eee" d="M19 27h-7v4H7v-4H0v-5h7v-4h5v4h7v5z"/></g><path fill="#cf1b2b" d="M11 18H8v13h3V18z"/><path fill="#cf1b2b" d="M19 23H0v3h19v-3z"/><g><path fill="#c1694f" d="M27.25 7.32c0-.18-.14-.32-.32-.32s-.33.14-.33.32v15.86c0 .18.15.33.33.33.18 0 .32-.14.32-.32V7.32z"/></g><g><path fill="#dd2e44" d="M24.66 15.64s.14.33.62.33c.5 0 .6-.26.9-.37.3-.12.67-.18.67-.18v-2.45h-2.62s-.1.92-.26 1.37c-.16.45-.3 1.06.04 1.26.34.2.66.04.66.04"/></g><g><path fill="#ffcc4d" d="M26.84 16.27v-.35s-.68.06-1.26.47c-.36.24-1.12.55-1.7.05-.4-.32-.36-1.15-.12-1.47.23-.32.47-1.06-.03-.56s-.65 1.27-.5 1.76c.14.5.47 1 1.23 1 .77 0 1.26-.4 1.62-.6.3-.2.8-.25.76-.3"/></g><g><path fill="#ffcc4d" d="M23.9 14.5l.4.02-.1-.63s.4.3.42.23c.02-.08.08-.65.08-.65l-.53.12.3-.45-.4-.2s-.16.53-.2.78c-.04.26.02.77.02.77"/></g><g><path fill="#ffcc4d" d="M24.75 14.17l.4.04s-.34.77.15.75c.55-.02.18-.72.18-.72h.4l.07-.57-.4.23v-.34l.44-.4-1.15-.13.3.5-.02.34-.28-.3-.1.6z"/></g><g><path fill="#dd2e44" d="M29.2 15.64s-.13.33-.62.33c-.5 0-.6-.26-.9-.37-.3-.12-.67-.18-.67-.18v-2.45h2.64s.1.92.25 1.37c.15.45.28 1.06-.05 1.26-.33.2-.64.04-.64.04"/></g><g><path fill="#ffcc4d" d="M27.02 16.27v-.35s.68.06 1.26.47c.36.24 1.12.55 1.7.05.4-.32.36-1.15.12-1.47-.23-.32-.46-1.06.03-.56.5.5.65 1.27.5 1.76-.14.5-.47 1-1.23 1s-1.26-.4-1.6-.6c-.32-.2-.8-.25-.78-.3"/></g><g><path fill="#ffcc4d" d="M29.97 14.5l-.4.02.1-.63s-.4.3-.43.23c0-.08-.07-.65-.07-.65l.52.12-.32-.45.4-.2s.17.53.2.78c.05.26 0 .77 0 .77"/></g><g><path fill="#ffcc4d" d="M29.1 14.17l-.4.04s.35.77-.14.75c-.55-.02-.18-.72-.18-.72h-.4l-.07-.57.4.23v-.34l-.43-.4 1.14-.13-.3.5.04.34.27-.3.1.6z"/></g><g><path fill="#ffcc4d" d="M27.6 17.26c0-.4-.3-.7-.67-.7-.38 0-.7.3-.7.7 0 .4.32.7.7.7.37 0 .68-.3.68-.7"/></g><path fill="#ffcc4d" d="M27.54 18.32H26.3v.5h1.24v-.5z"/><path fill="#ffcc4d" d="M27.22 14.62h-.6v4.52h.6v-4.52z"/><g><path fill="#ffcc4d" d="M26.44 14.8h.92l-.26-.63.6.3v-.85l-.58.2.5-.75h-1.28l.4.74-.57-.12v.76l.52-.25-.26.6z"/></g><g><path fill="#ffcc4d" d="M26.93 13.37c1.2 0 1.98-.1 2.84-.42 0 0 .06-.5-.06-.76-.1-.27-2.8.17-2.8.17l.03 1z"/></g><g><path fill="#ffcc4d" d="M26.96 13.37c-1.2 0-1.98-.1-2.84-.42 0 0-.06-.5.06-.76.12-.27 2.8.17 2.8.17l-.02 1z"/></g><g><path fill="#eee" d="M30.08 11.67c0-.38-1.4-.7-3.15-.7-1.74 0-3.16.32-3.16.7 0 .38 1.42.7 3.16.7 1.74 0 3.15-.32 3.15-.7"/></g><g><path fill="#99aab5" d="M29.04 11.42c0-.22-.94-.4-2.1-.4-1.18 0-2.13.18-2.13.4 0 .2.96.38 2.13.38 1.16 0 2.1-.17 2.1-.38"/></g><g><path fill="#77b255" d="M25.66 29.13l.64-.8s.45.27.47.2c.02-.05-.04-.66-.04-.66l.32-.07-.26-.8s.38.2.36.13c-.02-.08-.1-.76-.1-.76l.14-.1-.02-.77s.16-.27.16-.2c0 .05.16 1 .16 1l.2-.2.1.5.17.84.2-.3.4 1.38.22-.5.48.58.33.02.5.14.1-.3h.45s-.23-.2-.22-.25c.02-.05.43-.27.38-.3-.05 0-1.05.1-1.05.1l-.57-.58.35-.1-.53-.33.45-.14-.4-.32.35.04-.57-.43.57-.12-.77-.4.18-.18-.75-.45-.1-.32.72.57s.6.4.88.57c.3.17.53.5 1.02.64.5.14 1.43-.02 1.43-.02l-.88-.46.18-.28-.57-.18.08-.33-.93-.15v-.35l-.8-.13-.1-.34-.53-.2.25-.2s-.48-.17-.42-.18c.06-.02.7-.08.7-.08s-.33-.28-.27-.28c.07 0 .85-.05.85-.05l-.33-.23.78-.04-.35-.27s.65-.05.65-.1c0-.07-.28-.36-.28-.36l.57-.06s-.28-.3-.23-.32c.06-.02.8-.53.8-.53l-.87.12s-.22-.3-.24-.23c-.02.06-.23.4-.23.4l-.22-.23-.22.46s-.28-.15-.26-.1c.02.06-.3.44-.3.44l-.1-.18-.2.53-.2-.28-.37.5-.14-.2-.5.45s-.02-.3 0-.35c.02-.06.37-.32.37-.32s-.23-.1-.23-.15c0-.06.47-.43.47-.43l-.2-.16.5-.42s-.47-.1-.4-.14c.05-.04.28-.35.28-.35l-.2-.48-.38.6-.22-.05-.04.5-.2.03.1.56-.23-.04v.47l-.1.46-.2.32s-.14-.24-.12-.3c.02-.06.18-.43.18-.43s-.22-.1-.18-.17c.04-.06.25-.5.25-.5s-.47-.1-.4-.1c.05 0 .2-.26.2-.26l-.25-.1-.1-.3s-.3.34-.3.28c.03-.06-.17-.6-.17-.6l-.28.32.3 1.16-.36.1-.25-.53s-.2.25-.23.2c-.02-.06-.23-.46-.23-.46s-.26.42-.24.37c.02-.06-.3-.7-.3-.7s-.27.56-.27.48c0-.08-.2-.76-.2-.76s-.3.52-.3.42c.04-.1-.2-.55-.2-.55l-.06.5-.43-.27.5.7.8.77.64.47-.4.06s.58.2.65.22c.18.02-.27.17-.27.17l1.1.33s-.5.25-.55.2c-.05-.07-.64-.18-.64-.18l-.08.45-.6-.26s-.1.4-.12.35c-.02-.07-.5-.32-.5-.32l-.23.25-.27-.43-.3.24-.58-.18.27.4-.3.2.64.4.12.28.88-.06s-.23.3-.2.25c.05-.06.9-.2.9-.2l.26.04.87-.3-.7.56-.62.12.4.3-.92.34.2.3-1.2.32.73.2-.5.86 1.06-.63.47.16.23-.6.44-.26.07-.45.22.1.18-.54.26.08.14-.37.37-.02-.1.5.16.23-.42.35.37.17-.55.45.47.06-.67.66.53-.02-.53.6.43.1-.07.8z"/></g></g></g></g></svg>