<svg xmlns="http://www.w3.org/2000/svg" viewBox="0 0 45 45" enable-background="new 0 0 45 45"><defs><clipPath id="a"><path d="M0 36h36V0H0v36z"/></clipPath></defs><g><g><g clip-path="url(#a)" transform="matrix(1.25 0 0 -1.25 0 45)"><g><path fill="#ef2b2d" d="M10 31H4c-2.2 0-4-1.8-4-4v-6h10v10z"/></g><g><path fill="#ef2b2d" d="M32 31H16V21h20v6c0 2.2-1.8 4-4 4"/></g><g><path fill="#ef2b2d" d="M16 5h16c2.2 0 4 1.8 4 4.5V15H16V5z"/></g><g><path fill="#ef2b2d" d="M0 15V9.5C0 6.8 1.8 5 4 5h6v10H0z"/></g><g><path fill="#002868" d="M14.5 31h-2.94l-.03-11.5H0v-3h11.53L11.5 5h3v11.5H36v3H14.5V31z"/></g><g><path fill="#edecec" d="M14.5 5H16v10h20v1.5H14.5V5z"/></g><g><path fill="#edecec" d="M16 31h-1.5V19.5H36V21H16v10z"/></g><g><path fill="#edecec" d="M11.5 31H10V21H0v-1.5h11.5V31z"/></g><g><path fill="#edecec" d="M0 16.5V15h10V5h1.5v11.5H0z"/></g></g></g></g></svg>