<svg xmlns="http://www.w3.org/2000/svg" viewBox="0 0 45 45" enable-background="new 0 0 45 45"><defs><clipPath id="a"><path d="M0 36h36V0H0v36z"/></clipPath></defs><g><path fill="#e00034" d="M0 28.75h45v-12.5H0v12.5z"/><g><g clip-path="url(#a)" transform="matrix(1.25 0 0 -1.25 0 45)"><g><path fill="#0098c3" d="M32 31H4c-2.2 0-4-1.8-4-4v-4h36v4c0 2.2-1.8 4-4 4"/></g><g><path fill="#fff" d="M17.84 14.67c-1.84 0-3.33 1.5-3.33 3.33 0 1.84 1.5 3.33 3.34 3.33 1 0 1.87-.42 2.48-1.1C19.6 21.3 18.38 22 17 22c-2.2 0-4-1.8-4-4s1.8-4 4-4c1.38 0 2.6.7 3.32 1.77-.6-.68-1.5-1.1-2.48-1.1"/></g><g><path fill="#fff" d="M23.67 18l-1.2.43.54 1.14-1.13-.54-.43 1.2-.42-1.2-1.15.54.55-1.15-1.2-.42 1.2-.43-.55-1.14 1.14.54h.02l.43-1.2.42 1.2 1.15-.54-.55 1.15 1.2.42z"/></g><g><path fill="#00ae65" d="M4 5h28c2.2 0 4 1.8 4 4v4H0V9c0-2.2 1.8-4 4-4"/></g></g></g></g></svg>