<svg xmlns="http://www.w3.org/2000/svg" viewBox="0 0 45 45" enable-background="new 0 0 45 45"><defs><clipPath id="a"><path d="M0 36h36V0H0v36z"/></clipPath></defs><g><g><g clip-path="url(#a)" transform="matrix(1.25 0 0 -1.25 0 45)"><g><path fill="#de2910" d="M36 9c0-2.2-1.8-4-4-4H4C1.8 5 0 6.8 0 9v18c0 2.2 1.8 4 4 4h28c2.2 0 4-1.8 4-4V9z"/></g><g><path fill="#ffde02" d="M7 25.05l.93-2.67 2.83-.06-2.26-1.7.82-2.7L7 19.5l-2.32-1.6.82 2.7-2.25 1.7 2.82.06.93 2.67z"/></g><g><path fill="#ffde02" d="M13 28.47l.34-.7.76-.1-.55-.53.13-.76-.68.36-.68-.36.13.76-.55.53.76.1.34.7z"/></g><g><path fill="#ffde02" d="M15 24.47l.34-.7.76-.1-.55-.53.13-.76-.68.36-.68-.36.13.76-.55.53.76.1.34.7z"/></g><g><path fill="#ffde02" d="M15 20.47l.34-.7.76-.1-.55-.53.13-.76-.68.36-.68-.36.13.76-.55.53.76.1.34.7z"/></g><g><path fill="#ffde02" d="M13 16.47l.34-.7.76-.1-.55-.53.13-.76-.68.36-.68-.36.13.76-.55.53.76.1.34.7z"/></g></g></g></g></svg>