<svg xmlns="http://www.w3.org/2000/svg" viewBox="0 0 45 45" enable-background="new 0 0 45 45"><defs><clipPath id="a"><path d="M4 31c-2.2 0-4-1.8-4-4V9c0-2.2 1.8-4 4-4h28c2.2 0 4 1.8 4 4v18c0 2.2-1.8 4-4 4H4z"/></clipPath></defs><g><g><g clip-path="url(#a)" transform="matrix(1.25 0 0 -1.25 0 45)"><g><path fill="#002a8f" d="M0 31l6.92-5H36v5H0z"/></g><g><path fill="#eee" d="M13.85 21H36v5H6.92l6.93-5z"/></g><g><path fill="#002a8f" d="M18 18l-4.15-3H36v6H13.85L18 18z"/></g><g><path fill="#eee" d="M6.92 10H36v5H13.85l-6.93-5z"/></g><g><path fill="#002a8f" d="M0 5h36v5H6.92L0 5z"/></g><g><path fill="#cf142b" d="M13.85 15L18 18l-4.15 3-6.93 5L0 31V5l6.92 5 6.93 5z"/></g><g><path fill="#fff" d="M7.5 17.4l2 1.45H7.02l-.77 2.36-.77-2.35H3l2-1.45-.76-2.36 2 1.46 2.02-1.46-.76 2.36z"/></g></g></g></g></svg>