<svg xmlns="http://www.w3.org/2000/svg" viewBox="0 0 45 45" enable-background="new 0 0 45 45"><defs><clipPath id="a"><path d="M0 36h36V0H0v36z"/></clipPath></defs><g><g><g clip-path="url(#a)" transform="matrix(1.25 0 0 -1.25 0 45)"><g><path fill="#009e49" d="M19.6 17.06l1-3.05-2.6 1.9-2.6-1.9 1 3.06-1.3.94H0V9c0-2.2 1.8-4 4-4h28c2.2 0 4 1.8 4 4v9H20.9l-1.3-.94z"/></g><g><path fill="#ef2b2d" d="M32 31H4c-2.2 0-4-1.8-4-4v-9h15.1l-1.3.94H17L18 22l1-3.06h3.2L20.9 18H36v9c0 2.2-1.8 4-4 4"/></g><g><path fill="#fcd116" d="M15.4 14l2.6 1.9 2.6-1.9-1 3.06 1.3.94 1.3.94H19L18 22l-1-3.06h-3.2l1.3-.94 1.3-.94-1-3.05z"/></g></g></g></g></svg>