<svg xmlns="http://www.w3.org/2000/svg" viewBox="0 0 45 45" enable-background="new 0 0 45 45"><defs><clipPath id="a"><path d="M4 31c-2.2 0-4-1.8-4-4V9c0-2.2 1.8-4 4-4h28c2.2 0 4 1.8 4 4v18c0 2.2-1.8 4-4 4H4z"/></clipPath></defs><g><g><g clip-path="url(#a)" transform="matrix(1.25 0 0 -1.25 0 45)"><g><path fill="#75b2dd" d="M26.9 15.53l-1.1 1.53-1.8-.6L25.1 18 24 19.53l1.8-.6 1.1 1.54v-1.9l1.8-.57-1.8-.58v-1.9zm-7.66 9.96l.6-1.8-1.54 1.1-1.53-1.1.6 1.8-1.54 1.1h1.9l.57 1.8.58-1.8h1.9l-1.54-1.1zM18.3 7.6l-.58 1.8h-1.9l1.54 1.1-.6 1.8 1.54-1.1 1.53 1.1-.6-1.8 1.54-1.1h-1.9l-.57-1.8zm-5.7 8.87l-1.8.6-1.1-1.54v1.9L7.9 18l1.8.58v1.9l1.1-1.54 1.8.6L11.5 18l1.1-1.53zM0 5h36v26H0V5z"/></g><g><path fill="#fff" d="M18.3 28.4l-.58-1.8h-1.9l1.54-1.1-.6-1.8 1.54 1.1 1.53-1.1-.58 1.8 1.52 1.1h-1.9l-.57 1.8z"/></g><g><path fill="#fff" d="M26.9 18.58v1.9l-1.1-1.54-1.8.6L25.1 18 24 16.47l1.8.6 1.1-1.54v1.9l1.8.57-1.8.58z"/></g><g><path fill="#fff" d="M19.24 10.5l.6 1.8-1.54-1.1-1.53 1.1.6-1.8-1.54-1.1h1.9l.57-1.8.58 1.8h1.9l-1.54 1.1z"/></g><g><path fill="#fff" d="M10.8 18.94l-1.1 1.53v-1.9L7.9 18l1.8-.58v-1.9l1.1 1.54 1.8-.6L11.5 18l1.1 1.53-1.8-.6z"/></g></g></g></g></svg>