<svg xmlns="http://www.w3.org/2000/svg" viewBox="0 0 45 45" enable-background="new 0 0 45 45"><defs><clipPath id="a"><path d="M0 36h36V0H0v36z"/></clipPath><clipPath id="b"><path d="M4 31c-2.2 0-4-1.8-4-4v-9h19v13H4z"/></clipPath><clipPath id="c"><path d="M0 36h36V0H0v36z"/></clipPath></defs><g><g><g clip-path="url(#a)" transform="matrix(1.25 0 0 -1.25 0 45)"><g><path fill="#00247d" d="M36 9c0-2.2-1.8-4-4-4H4C1.8 5 0 6.8 0 9v18c0 2.2 1.8 4 4 4h28c2.2 0 4-1.8 4-4V9z"/></g><g><path fill="#ba6747" d="M23.28 13.34c.27.52.47 1.03.7 1.2.22.15 1.48.02 1.72-.26.25-.28.12-1.73-.36-2.55-.5-.8-1.4-1.12-1.73-1.06-.33.06-.55.67-.6.9-.07.2.14.3.6.15.5-.14 1.2 1.06 1.17 1.5-.4.3-.76.06-.92-.3-.15-.36-.57.42-.57.42"/></g><g><path fill="#d7a896" d="M22.65 12.3c.06-.3.34-1 .63-1.37-.14.85.5.6.45.24.22-.06-.06.5-.12.8-.05.3 0 .92-.5.9-.53-.04-.5-.36-.45-.57"/></g><g><path fill="#ba6747" d="M32.6 13.34c-.26.52-.46 1.03-.68 1.2-.22.15-1.48.02-1.73-.26s-.13-1.73.35-2.55c.5-.8 1.4-1.12 1.73-1.06.34.06.55.67.6.9.07.2-.13.3-.6.15-.48-.14-1.18 1.06-1.16 1.5.4.3.76.06.92-.3.16-.36.57.42.57.42"/></g><g><path fill="#e9cfc6" d="M32.9 12.55c.08.3-.3.8-.52 1.26-.96-1.78-3.47-2.02-4.43-2.02-.97 0-3.48.24-4.44 2.03-.22-.46-.6-.94-.52-1.25.08-.32 2.34-1.94 4.95-1.95 0 0 0 0 .02 0 2.62 0 4.9 1.63 4.96 1.95"/></g><g><path fill="#d7a896" d="M33.24 12.3c-.06-.3-.34-1-.63-1.37.15.85-.48.6-.44.24-.2-.06.06.5.12.8.06.3 0 .92.53.9.52-.04.5-.36.44-.57"/></g><g><path fill="#fff" d="M27.96 25.35h-4.7v-6.5c0-5.7 4.7-6.95 4.7-6.95s4.68 1.25 4.68 6.95v6.5h-4.68z"/></g><g><path fill="#0072c4" d="M27.96 12.3c-.52.15-4.36 1.48-4.36 6.55v6.1h8.7v-6.1c0-5.03-3.86-6.4-4.34-6.55"/></g><g><path fill="#fff" d="M26.1 19.3c.1.45.18 1.06-.08 1.15-.27.1-.74.38-.9.88-.15.5-.07 1.65-.2 1.73-.15.08-.58-.1-.83.2-.26.32-.1.43.07.54.17.1.66.36.63.45-.03.1.03.24.32.34.55.18 1-.3 1.16-.5.17-.18.63-.43.83-.44.2-.02 2.67-.05 2.95-.08.28-.03 1-.22.93-1.08-.06-.86-.18-1.7-.3-1.84-.12-.16-.2-.2-.2-.2s.13-.7.1-.82c0-.12-.22-.17-.24.05 0 .2-.1.72-.1.72l-.4.08s0-.75-.14-.97c-.14-.22-.5-.08-.4.08.1.17.14.3.14.5 0 .18-.05.46-.14.5-.1.02-.57-.16-.9-.16-.35 0-1.12.22-1.26.1-.14-.13-.33-.77-.42-1.13-.1-.35-.25-.13-.24.04.02.17.08.75 0 .65-.1-.1-.07-.54-.14-.68-.06-.14-.25-.1-.25-.1"/></g><g><path fill="#015121" d="M24.98 20.1s.2-1.17.97-1.68c.77-.5 3.98-.37 4.53.02.56.4 1.07 1.34 1.07 1.34s-.46 0-.6.17c-.47-.25-.73-.14-.82.02-.36-.36-.33-.14-.38-.03-.3-.36-.77-.14-.9-.02-.32-.2-.8-.08-.88.05-.36-.3-.9-.24-1-.1-.24-.4-.58-.25-.77-.12-.26-.25-.37.03-.47.2-.2-.37-.57-.1-.75.14"/></g><g><path fill="#fff" d="M23.42 18.63s.5-.07.86.28c.38.35 1.02.52 1.5 0 .45-.5 1-.5 1.4-.07.4.42 1 .62 1.6.04.56-.57 1.06-.33 1.4 0 .35.33 1.07.55 1.54 0 .47-.54.8-.25.8-.25l-.2-1.43s-.15-.04-.6.33c-.42.38-1.03.52-1.47.05-.44-.47-1.1-.5-1.56-.03-.48.45-1.03.4-1.43.04-.4-.37-1.1-.54-1.68 0-.57.52-1.05.26-1.33-.02-.3-.28-.67-.4-.67-.4l-.18 1.45z"/></g><g><path fill="#fff" d="M23.9 16.06c.13.04.26.1.38.22.38.34 1.02.52 1.5 0 .45-.5 1-.5 1.4-.08.4.42 1 .63 1.6.05.56-.58 1.06-.33 1.4 0 .35.33 1.07.54 1.54 0 .1-.1.18-.2.26-.24.08-.3-.36-1-.42-.97-.4.28-.93.33-1.3-.08-.45-.47-1.1-.48-1.57-.03-.48.45-1.03.4-1.43.05-.4-.36-1.1-.53-1.68 0-.5.46-.92.32-1.2.1-.05-.04-.76.9-.5 1"/></g><g><path fill="#fff" d="M25.12 14c.23 0 .45-.1.65-.3.46-.53 1-.5 1.4-.1.4.43 1.02.63 1.6.05.57-.57 1.07-.33 1.42 0 .1.12.3.23.48.3-.64-.94-2.48-1.87-2.72-1.87-.25 0-2.24.87-2.84 1.93"/></g><g><path d="M24.7 23.9c.08.18.35.13.42 0 .08-.12-.5-.17-.42 0"/></g><g><path fill="#dd8b59" d="M23.85 16.28c-.1-.1 1.2-.68 1.2-.68s.1-.62.22-.54c.1.08.54 0 .54 0s.12-1.84 2.17-1.84 2.6 1.96 2.6 1.96.74 0 .83-.05c.08-.05-.18.24-.07.47.1.23.37.5.22.56-.16.06-1.82-.4-1.82-.4s.04-1.48-1.76-1.48-1.56.97-1.56.97-2.4 1.2-2.55 1.03"/></g><g><path fill="#dd8b59" d="M26.48 14.68c0-.05-.03-.1-.08-.1s-.1.05-.1.1v3.95c0 .05.05.1.1.1s.08-.05.08-.1v-3.95z"/></g><g><path fill="#dd8b59" d="M27.97 14.2c0-.04-.03-.07-.07-.07-.04 0-.07.03-.07.07v4.7c0 .05.03.08.07.08.04 0 .07-.03.07-.07v-4.7z"/></g><g><path fill="#dd8b59" d="M29.52 14.45c0-.04-.04-.07-.08-.07-.05 0-.08.03-.08.07v4.2c0 .03.03.07.08.07.04 0 .08-.04.08-.08v-4.2z"/></g><g><path fill="#fecf3d" d="M25.88 18s.14-.28.6-.16c.47.13.5.52.5.52l-1.1-.36z"/></g><g><path fill="#fecf3d" d="M28.45 18.63l-1.06-.27s.1-.35.5-.27c.4.07.55.53.55.53"/></g><g><path fill="#fecf3d" d="M28.92 18.13s.25-.3.6-.2c.34.12.56.52.56.52l-1.16-.32z"/></g><g><path fill="#fecf3d" d="M27.13 17.8l-1.34-.36c-.02 0-.14-.24-.1-.5.05-.24.18-.47.18-.47s.12.3.43.37c.32.07.54-.18.54-.18s-.12.57.28 1.15"/></g><g><path fill="#fecf3d" d="M27.4 17.8s-.28-.14-.28-.6c0-.27.27-.6.27-.6s.13.26.43.35c.3.1.62-.17.62-.17s-.12.38-.08.67c.05.3.25.64.25.64l-1.23-.3z"/></g><g><path fill="#fecf3d" d="M28.83 17.58s-.1-.2-.1-.44c0-.23.2-.67.2-.67s.1.33.43.4c.34.08.53-.15.53-.15s-.12.23-.07.57c.05.33.4.6.4.6l-1.4-.32z"/></g><g><path fill="#fecf3d" d="M26.9 16.55l-1.18-.22s.14-.38.58-.33c.45.05.6.55.6.55"/></g><g><path fill="#fecf3d" d="M28.52 16.6s-1.13-.05-1.13-.13.1-.36.47-.3c.38.06.65.44.65.44"/></g><g><path fill="#fecf3d" d="M29.97 16.55l-1.1-.25s.15-.28.54-.2c.4.07.57.45.57.45"/></g><g><path fill="#ff0100" d="M26.3 18.63l-.82-.27.83-.1v.37z"/></g><g><path fill="#ff0100" d="M27.9 18.9l-.84-.27.83-.1v.37z"/></g><g><path fill="#ff0100" d="M29.45 18.72l-.82-.27.82-.1v.37z"/></g><g><path fill="#00247d" d="M19 31H4c-2.2 0-4-1.8-4-4v-9h19v13z"/></g><g><path fill="#eee" d="M19 18v2.03L11.9 25H6.67l10-7H19z"/></g><g><path fill="#cf1b2b" d="M19 19.42L11.03 25H9.3l9.7-6.8v1.22z"/></g><g><path fill="#eee" d="M8.1 25L0 19.23V18h3.33l10 7H8.1z"/></g><g><path fill="#cf1b2b" d="M10.7 25L.74 18h1.73l10 7H10.7z"/></g><g><path fill="#eee" d="M16.67 31l-10-7h5.23l7.1 4.97V31h-2.33z"/></g><g><path fill="#cf1b2b" d="M17.54 31l-10-7H9.3l9.7 6.8v.2h-1.46z"/></g></g></g><g><g clip-path="url(#b)" transform="matrix(1.25 0 0 -1.25 12.5 15)"><g><path fill="#eee" d="M0 0h3.33l-10 7H-9l-.63-1.6L0-1.32V0z"/></g><g><path fill="#cf1b2b" d="M0 0h.7L-9 6.8l-.5-.86L0-.72V0z"/></g></g></g><g><g clip-path="url(#c)" transform="matrix(1.25 0 0 -1.25 0 45)"><g><path fill="#eee" d="M19 27h-7v4H7v-4H0v-5h7v-4h5v4h7v5z"/></g><path fill="#cf1b2b" d="M11 18H8v13h3V18z"/><path fill="#cf1b2b" d="M19 23H0v3h19v-3z"/></g></g></g></svg>