<svg xmlns="http://www.w3.org/2000/svg" viewBox="0 0 45 45" enable-background="new 0 0 45 45"><defs><clipPath id="a"><path d="M0 36h36V0H0v36z"/></clipPath></defs><g><g><g clip-path="url(#a)" transform="matrix(1.25 0 0 -1.25 0 45)"><g><path fill="#de2910" d="M36 9c0-2.2-1.8-4-4-4H4C1.8 5 0 6.8 0 9v18c0 2.2 1.8 4 4 4h28c2.2 0 4-1.8 4-4V9z"/></g><g><path fill="#fff" d="M15.52 20.5c-.26.65-.43 1.4-.46 1.73-.03.47-.03.96-.04 1.25 0 .42.12.87.26 1.4.3 1.08 1.4 2.02 2.3 2.23.76.18 1.44 0 2.05-.3.55-.3 1.04-.83 1.07-.96.02-.04-.15.05-.22.1-.07.02-.1.02-.23.1-.16.07-.44.1-.56.03-.18-.1-.23-.2-.28-.3-.06-.1-.1-.12-.1-.33 0-.18 0-.47.16-.73.03-.06.07-.16.14-.26.14-.18.3-.43.4-.67.16-.33.2-.66.2-.78l.02-.33c.02-.44-.27-1.53-1.13-2.07-.18-.12-.4-.28-.6-.4-.32-.17-.6-.36-.78-.7-.1-.2-.1-.42-.1-.64.02-.4.13-.8.23-1l.07-.15c-.05 0-.08.03-.1.05l-.1.13c-.18.17-.36.6-.5 1-.1.3-.2.77-.2 1.1.03.55.16 1 .24 1.3.12.45.15.5.2.63v.03c0 .02 0 .03 0 .05-.03.03-.08.03-.1 0l-.02-.02c-.08-.12-.15-.37-.28-.8-.1-.37-.2-.75-.15-1.3.03-.32.08-.8.2-1.1.18-.44.37-.8.5-.98l.1-.13c0-.03 0-.04.03-.05 0-.1-.48.25-1.08 1.04-.48.62-.96 1.38-1.1 1.87"/></g><g><path fill="#de2910" d="M17.8 23.36l.04-.64.63-.18-.6-.25.02-.66-.43.5-.6-.23.33.56-.4.5.63-.14.36.54z"/></g><g><path fill="none" stroke="#de2910" stroke-width=".013" d="M17.8 23.36l.04-.64.63-.18-.6-.25.02-.66-.43.5-.6-.23.33.56-.4.5.63-.14.36.54z"/></g><g><path fill="#fff" d="M14.37 15.94c-.7-.08-1.44-.05-1.78.02-.48.1-.94.23-1.22.3-.4.1-.82.35-1.27.62-.96.58-1.57 1.9-1.53 2.83.04.78.38 1.4.85 1.9.43.45 1.08.77 1.22.77.03 0-.1-.14-.15-.2-.06-.05-.06-.08-.17-.2-.12-.12-.2-.38-.2-.52.06-.18.15-.26.2-.33.1-.1.1-.12.32-.18.18-.05.45-.13.74-.06.07.02.18.03.3.07.2.08.48.18.75.2.35.06.68.03.8-.02l.3-.07c.44-.1 1.4-.67 1.7-1.64.07-.22.17-.46.22-.7.08-.35.18-.67.46-.94.16-.16.38-.2.6-.26.38-.1.8-.1 1-.05l.18.02c0-.06-.02-.07-.05-.1l-.15-.06c-.22-.12-.68-.17-1.1-.2-.3-.02-.8.02-1.1.1-.54.17-.94.42-1.2.58-.4.23-.44.28-.55.36l-.02.02c-.02 0-.03 0-.05 0-.04-.02-.05-.07-.03-.1l.02-.02c.1-.1.3-.25.7-.5.32-.18.66-.37 1.2-.48.32-.07.8-.15 1.12-.1.45.05.86.12 1.06.2l.15.06c.04 0 .06 0 .07.02.08-.02-.37-.4-1.3-.76-.72-.3-1.6-.55-2.1-.56"/></g><g><path fill="#de2910" d="M12.23 18.9l.64-.13.33.55.1-.64.62-.15-.6-.28.06-.64-.44.48-.6-.25.32.57-.43.5z"/></g><g><path fill="none" stroke="#de2910" stroke-width=".013" d="M12.23 18.9l.64-.13.33.55.1-.64.62-.15-.6-.28.06-.64-.44.48-.6-.25.32.57-.43.5z"/></g><g><path fill="#fff" d="M20.1 20.7c.52.47 1.15.87 1.47 1 .44.2.9.36 1.17.46.4.14.86.18 1.4.22 1.12.07 2.37-.66 2.87-1.45.42-.65.5-1.35.4-2.02-.1-.6-.45-1.25-.56-1.33-.03-.02 0 .17 0 .24.02.1 0 .1.03.27.02.18-.05.44-.15.54-.14.13-.26.15-.36.16-.12.03-.15.05-.35-.02-.17-.06-.44-.16-.63-.38-.05-.06-.14-.13-.2-.23-.14-.2-.3-.43-.5-.6-.27-.25-.56-.4-.68-.43l-.3-.13c-.42-.17-1.54-.25-2.34.38-.17.14-.4.28-.58.45-.26.24-.52.44-.9.5-.23.04-.43-.05-.64-.13-.38-.13-.7-.37-.87-.53l-.12-.12c-.03.05 0 .08 0 .1l.08.15c.1.22.47.53.78.78.26.2.7.46 1 .55.52.18 1 .2 1.3.22.46.04.52.03.66.02h.02c.02 0 .03 0 .04.02.02.04 0 .1-.04.1h-.02c-.13.05-.4.03-.85 0-.37-.02-.75-.06-1.26-.28-.3-.12-.74-.33-.98-.55-.35-.3-.64-.6-.75-.8l-.1-.1c0-.03-.02-.05-.02-.06v-.02c-.08 0 .08.55.62 1.38.43.65 1 1.36 1.4 1.66"/></g><g><path fill="#de2910" d="M23.54 19.5l-.6-.25.05-.65-.45.48-.6-.24.33.56-.42.5.64-.13.34.55.07-.65.64-.16z"/></g><g><path fill="none" stroke="#de2910" stroke-width=".013" d="M23.54 19.5l-.6-.25.05-.65-.45.48-.6-.24.33.56-.42.5.64-.13.34.55.07-.65.64-.16z"/></g><g><path fill="#fff" d="M18.32 13.58c-.13-.7-.4-1.4-.56-1.7-.23-.4-.5-.8-.65-1.06-.22-.35-.57-.67-.97-1.02-.85-.75-2.3-.93-3.16-.6-.72.26-1.2.77-1.53 1.37-.3.55-.42 1.26-.38 1.4 0 .03.1-.14.14-.2.04-.07.06-.08.14-.2.1-.17.3-.34.45-.35.17-.02.28.05.36.1.1.04.15.05.27.22.1.16.26.4.28.7 0 .07.04.18.03.3 0 .23-.02.52.03.8.06.34.2.64.27.73l.16.3c.2.37 1.05 1.12 2.07 1.1.22 0 .5.02.73 0 .36-.03.7-.03 1.03.15.2.1.3.3.43.5.22.33.33.72.36.94l.03.17c.05-.02.05-.05.06-.08l.03-.17c.05-.24-.04-.7-.14-1.1-.08-.3-.27-.76-.45-1.03-.32-.46-.68-.76-.9-.97-.35-.3-.4-.33-.52-.4l-.02-.02c0-.02 0-.03 0-.05 0-.03.05-.06.1-.05.14.07.34.24.68.54.3.23.56.5.84.98.16.28.38.72.44 1.04.1.45.14.86.1 1.08v.16c.02.02.02.04 0 .06.06.07.27-.47.34-1.46.06-.78.05-1.7-.1-2.18"/></g><g><path fill="#de2910" d="M14.86 12.43l.3.57-.42.5.64-.13.33.56.1-.64.63-.16-.58-.28.05-.64-.44.47-.6-.27z"/></g><g><path fill="none" stroke="#de2910" stroke-width=".013" d="M14.86 12.43l.3.57-.42.5.64-.13.33.56.1-.64.63-.16-.58-.28.05-.64-.44.47-.6-.27z"/></g><g><path fill="#fff" d="M21.78 16.35c.6-.37 1.15-.87 1.36-1.13.3-.38.6-.77.76-1 .25-.35.4-.8.6-1.3.38-1.05.02-2.46-.6-3.15-.5-.57-1.17-.83-1.85-.92-.62-.1-1.32.07-1.43.16-.03.03.16.06.23.06.08 0 .1.04.25.06.18.02.42.17.48.3.08.16.06.28.05.37 0 .1 0 .15-.12.33-.1.15-.26.38-.53.5-.07.04-.16.1-.27.14-.22.08-.5.18-.73.32-.3.17-.54.4-.6.52l-.2.25c-.27.34-.66 1.4-.27 2.34.08.22.16.47.27.7.16.3.28.62.24 1-.02.23-.16.4-.3.58-.23.33-.55.58-.75.7l-.14.07c.04.04.08.03.1.03l.17-.04c.24-.04.64-.3.97-.53.26-.18.62-.52.8-.78.3-.47.46-.9.57-1.2.17-.43.17-.5.2-.63v-.03c.02-.02.02-.03.04-.03.05 0 .1.02.1.06v.02c0 .14-.1.4-.25.82-.13.36-.28.7-.63 1.15-.2.23-.53.6-.8.78-.4.24-.76.44-.97.5l-.14.06c-.03 0-.05.02-.06.02h-.02c-.03.06.55.07 1.5-.23.75-.24 1.58-.58 2-.9"/></g><g><path fill="#de2910" d="M21.58 12.7l-.42.5-.6-.2.33.54-.4.52.63-.16.36.54.04-.65.62-.2-.6-.24.02-.65z"/></g><g><path fill="none" stroke="#de2910" stroke-width=".013" d="M21.58 12.7l-.42.5-.6-.2.33.54-.4.52.63-.16.36.54.04-.65.62-.2-.6-.24.02-.65z"/></g><g><path fill="#de2910" d="M17.16 21.77c.1.36.47.3.34-.13-.12-.43-.43-1.54-.27-2.32.15-.72.37-1.15.62-1.45.25-.3-.02-.5-.3-.14-.32.4-.63 1.1-.7 1.6-.1.93.05 1.62.3 2.44"/></g><g><path fill="#de2910" d="M13.6 17.86c-.3.2-.17.54.22.3.4-.23 1.37-.82 2.17-.87.72-.05 1.2.04 1.55.2.36.17.47-.14.05-.32-.46-.2-1.23-.3-1.7-.25-.95.13-1.57.46-2.3.93"/></g><g><path fill="#de2910" d="M16.34 13.5c-.3-.25-.57-.03-.23.28.34.3 1.18 1.08 1.45 1.84.25.7.3 1.17.24 1.56-.07.4.26.4.32-.05.06-.5-.05-1.27-.25-1.7-.4-.88-.88-1.37-1.53-1.94"/></g><g><path fill="#de2910" d="M21.17 14.38c.1-.36-.2-.53-.35-.1-.15.43-.53 1.5-1.1 2.06-.55.5-.97.73-1.35.84-.38.1-.27.4.17.28.48-.14 1.15-.55 1.47-.9.65-.7.9-1.36 1.17-2.18"/></g><g><path fill="#de2910" d="M21.82 19.6c.38 0 .45-.35 0-.37-.46-.03-1.6-.1-2.28-.5-.63-.4-.97-.73-1.18-1.07-.2-.34-.46-.15-.22.24.27.42.84.95 1.27 1.17.86.43 1.56.5 2.42.52"/></g></g></g></g></svg>