<svg xmlns="http://www.w3.org/2000/svg" viewBox="0 0 45 45" enable-background="new 0 0 45 45"><defs><clipPath id="a"><path d="M0 36h36V0H0v36z"/></clipPath></defs><g><g><g clip-path="url(#a)" transform="matrix(1.25 0 0 -1.25 0 45)"><g><path fill="#fcd116" d="M32 31H15V18h21v9c0 2.2-1.8 4-4 4"/></g><g><path fill="#009e49" d="M15 5h17c2.2 0 4 1.8 4 4v9H15V5z"/></g><g><path fill="#ce1126" d="M10 14l-2.55 1.85L4.9 14l.98 3-2.55 1.84h3.15l.97 3 .98-3h3.14L9.03 17l.97-3zm5 17H4c-2.2 0-4-1.8-4-4V9c0-2.2 1.8-4 4-4h11v26z"/></g><g><path d="M8.43 18.84l-.98 3-.97-3H3.33L5.88 17l-.97-3 2.55 1.85L10 14l-.97 3 2.54 1.84H8.43z"/></g></g></g></g></svg>