<svg xmlns="http://www.w3.org/2000/svg" viewBox="0 0 45 45" enable-background="new 0 0 45 45"><defs><clipPath id="a"><path d="M0 36h36V0H0v36z"/></clipPath><clipPath id="b"><path d="M4 31c-2.2 0-4-1.8-4-4v-9h19v13H4z"/></clipPath><clipPath id="c"><path d="M0 36h36V0H0v36z"/></clipPath></defs><g><g><g clip-path="url(#a)" transform="matrix(1.25 0 0 -1.25 0 45)"><g><path fill="#00247d" d="M36 9c0-2.2-1.8-4-4-4H4C1.8 5 0 6.8 0 9v18c0 2.2 1.8 4 4 4h28c2.2 0 4-1.8 4-4V9z"/></g><g><path fill="#fff" d="M9 9.98L7.78 8.85l.12 1.66-1.65.26 1.38.94-.83 1.44 1.6-.5.6 1.56.6-1.55 1.6.5-.83-1.45 1.38-.94-1.65-.25.12-1.65L9 9.98z"/></g><g><path fill="#fff" d="M27.95 26.44l-.8-.74.08 1.1-1.08.15.9.61-.54.95 1.05-.3.4 1 .4-1 1.04.3-.55-.94.9-.6-1.08-.17.08-1.1-.8.74z"/></g><g><path fill="#fff" d="M23.95 20.44l-.8-.74.08 1.1-1.08.15.9.6-.54.96 1.05-.3.4 1 .4-1 1.04.3-.55-.94.9-.6-1.08-.17.08-1.1-.8.74z"/></g><g><path fill="#fff" d="M32.95 22.44l-.8-.74.08 1.1-1.08.15.9.6-.54.96 1.05-.3.4 1 .4-1 1.04.3-.55-.94.9-.6-1.08-.17.08-1.1-.8.74z"/></g><g><path fill="#fff" d="M27.95 8.44l-.8-.74.08 1.1-1.08.15.9.6-.54.96 1.05-.3.4 1 .4-1 1.04.3-.55-.94.9-.6-1.08-.17.08-1.1-.8.74z"/></g><g><path fill="#fff" d="M31 20l.3-.6.65-.1-.47-.45.1-.66-.58.3-.6-.3.12.65-.47.46.66.1.3.6z"/></g><g><path fill="#00247d" d="M19 31H4c-2.2 0-4-1.8-4-4v-9h19v13z"/></g><g><path fill="#eee" d="M19 18v2.03L11.9 25H6.67l10-7H19z"/></g><g><path fill="#cf1b2b" d="M19 19.42L11.03 25H9.3l9.7-6.8v1.22z"/></g><g><path fill="#eee" d="M8.1 25L0 19.23V18h3.33l10 7H8.1z"/></g><g><path fill="#cf1b2b" d="M10.7 25L.74 18h1.73l10 7H10.7z"/></g><g><path fill="#eee" d="M16.67 31l-10-7h5.23l7.1 4.97V31h-2.33z"/></g><g><path fill="#cf1b2b" d="M17.54 31l-10-7H9.3l9.7 6.8v.2h-1.46z"/></g></g></g><g><g clip-path="url(#b)" transform="matrix(1.25 0 0 -1.25 12.5 15)"><g><path fill="#eee" d="M0 0h3.33l-10 7H-9l-.63-1.6L0-1.32V0z"/></g><g><path fill="#cf1b2b" d="M0 0h.7L-9 6.8l-.5-.86L0-.72V0z"/></g></g></g><g><g clip-path="url(#c)" transform="matrix(1.25 0 0 -1.25 0 45)"><g><path fill="#eee" d="M19 27h-7v4H7v-4H0v-5h7v-4h5v4h7v5z"/></g><path fill="#cf1b2b" d="M11 18H8v13h3V18z"/><path fill="#cf1b2b" d="M19 23H0v3h19v-3z"/></g></g></g></svg>