<svg xmlns="http://www.w3.org/2000/svg" viewBox="0 0 45 45" enable-background="new 0 0 45 45"><defs><clipPath id="a"><path d="M0 36h36V0H0v36z"/></clipPath><clipPath id="b"><path d="M4 31c-2.2 0-4-1.8-4-4v-9h19v13H4z"/></clipPath><clipPath id="c"><path d="M0 36h36V0H0v36z"/></clipPath></defs><g><g><g clip-path="url(#a)" transform="matrix(1.25 0 0 -1.25 0 45)"><g><path fill="#00247d" d="M36 9c0-2.2-1.8-4-4-4H4C1.8 5 0 6.8 0 9v18c0 2.2 1.8 4 4 4h28c2.2 0 4-1.8 4-4V9z"/></g><g><path fill="#00247d" d="M19 31H4c-2.2 0-4-1.8-4-4v-9h19v13z"/></g><g><path fill="#eee" d="M19 18v2.03L11.9 25H6.67l10-7H19z"/></g><g><path fill="#cf1b2b" d="M19 19.42L11.03 25H9.3l9.7-6.8v1.22z"/></g><g><path fill="#eee" d="M8.1 25L0 19.23V18h3.33l10 7H8.1z"/></g><g><path fill="#cf1b2b" d="M10.7 25L.74 18h1.73l10 7H10.7z"/></g><g><path fill="#eee" d="M16.67 31l-10-7h5.23l7.1 4.97V31h-2.33z"/></g><g><path fill="#cf1b2b" d="M17.54 31l-10-7H9.3l9.7 6.8v.2h-1.46z"/></g></g></g><g><g clip-path="url(#b)" transform="matrix(1.25 0 0 -1.25 12.5 15)"><g><path fill="#eee" d="M0 0h3.33l-10 7H-9l-.63-1.6L0-1.32V0z"/></g><g><path fill="#cf1b2b" d="M0 0h.7L-9 6.8l-.5-.86L0-.72V0z"/></g></g></g><g><g clip-path="url(#c)" transform="matrix(1.25 0 0 -1.25 0 45)"><g><path fill="#eee" d="M19 27h-7v4H7v-4H0v-5h7v-4h5v4h7v5z"/></g><path fill="#cf1b2b" d="M11 18H8v13h3V18z"/><path fill="#cf1b2b" d="M19 23H0v3h19v-3z"/><g><path fill="#cccc32" d="M33.94 23.68s-1.47-.5-3.1-.5c-1.66 0-2.9.84-2.9.84s-1.23-.85-2.87-.85c-1.65 0-3.2.5-3.2.5-.15-4.1.1-8.45 1.6-10.72C25.12 10.5 27.96 9 27.96 9s2.75 1.5 4.37 3.95c1.52 2.27 1.77 6.6 1.62 10.73"/></g><g><path fill="#fff" d="M33.42 23.2s-1.18-.45-2.74-.45c-1.56 0-2.73.78-2.73.78s-1.18-.78-2.74-.78c-1.55 0-2.72.44-2.72.44-.14-3.9 0-7.9 1.5-10 1.53-2.1 3.97-3.57 3.97-3.57s2.44 1.46 3.95 3.56c1.5 2.1 1.66 6.1 1.52 10"/></g><g><path fill="#f90" d="M26.58 22.6s.05-.68.34-.92c0 0 .73.14 1.32-.1.46-.2 1.32-.54 1.75-.4.43.16.82.3.92.2.1-.1-.5-.24-.58-.34-.1-.1-.44-.2-.25-.48.2-.3.53-.54.43-.83 0 0-.44.34-.63.63-.2.3-.64.54-1.37.44-.73-.1-1.3-.5-1.4-.93-.1-.44.43-.4.86-.5 0 0-.64-.23-.98-.23 0 0-.3-.54-.6-1.02-.28-.5-.33-.78-.47-.74-.15.05-.2.74-.1 1.13 0 0-.34.2-.3 1.18.05.83.64 1.6.64 1.6s-.06.3 0 .64c.04.34.38.68.38.68"/></g><g><path fill="#fff" d="M26.04 19.16c0-.1-.07-.17-.17-.17s-.17.07-.17.16c0 .1.08.17.17.17.1 0 .17-.07.17-.16"/></g><g><path fill="#f90" d="M25.02 14.27s.5.47.5.85c0 0-.57.48-.75 1.1-.14.47-.42 1.34-.8 1.6-.4.24-.76.45-.75.6.02.12.5-.24.64-.25.14 0 .43-.22.53.12.1.32.07.74.36.85 0 0 0-.55-.1-.9-.1-.33 0-.82.53-1.33.53-.5 1.2-.7 1.6-.5.4.2.03.58-.18.98 0 0 .6-.33.8-.6 0 0 .6.1 1.17.2.56.08.8.22.87.08.05-.14-.44-.6-.8-.8 0 0 .06-.37-.73-.95-.67-.5-1.65-.53-1.65-.53s-.2-.22-.5-.4c-.3-.18-.78-.13-.78-.13"/></g><g><path fill="#fff" d="M28.03 16.03c.07.06.18.05.24-.02s.05-.17-.03-.23c-.07-.06-.18-.05-.24.02-.06.06-.04.17.03.23"/></g><g><path fill="#f90" d="M32.78 17.17s-.64.26-.98.1c0 0-.2-.72-.67-1.14-.37-.34-1.05-.95-1.12-1.4-.05-.47-.1-.88-.22-.93-.13-.04 0 .55-.05.68-.04.13.02.48-.33.43-.35-.04-.72-.24-.94-.02 0 0 .5.24.85.3.36.04.77.33 1 1.03.24.7.14 1.4-.2 1.68-.36.28-.55-.22-.83-.57 0 0 .06.7.2 1 0 0-.35.5-.66.97-.3.47-.54.65-.43.76.1.1.74-.15 1.05-.4 0 0 .32.2 1.18-.26.73-.4 1.17-1.27 1.17-1.27s.28-.1.57-.28c.28-.2.44-.65.44-.65"/></g><g><path fill="#fff" d="M29.92 19.16c-.08.04-.12.14-.07.23.04.07.14.1.22.07.1-.05.12-.15.08-.23-.04-.1-.14-.12-.23-.08"/></g><g><path fill="#9cf" d="M23.77 13.53c.07-.12.15-.23.23-.34 1.5-2.1 3.95-3.57 3.95-3.57s2.44 1.46 3.95 3.56c.08.1.15.2.23.33h-8.36z"/></g></g></g></g></svg>