<svg xmlns="http://www.w3.org/2000/svg" viewBox="0 0 45 45" enable-background="new 0 0 45 45"><defs><clipPath id="a"><path d="M4 31c-2.2 0-4-1.8-4-4V9c0-2.2 1.8-4 4-4h28c2.2 0 4 1.8 4 4v18c0 2.2-1.8 4-4 4H4z"/></clipPath></defs><g><g><g clip-path="url(#a)" transform="matrix(1.25 0 0 -1.25 0 45)"><path fill="#007a3d" d="M0 5h36v8.5H0V5z"/><path fill="#eee" d="M0 13.5h36v9H0v-9z"/><path fill="#141414" d="M0 22.5h36V31H0v-8.5z"/><g><path fill="#c4111b" d="M0 31V5l12 13L0 31z"/></g><g><path fill="#c4111b" d="M17.9 17.97c0 1.7 1.2 3.1 2.8 3.4-.2.04-.42.06-.64.06-1.9 0-3.47-1.55-3.47-3.46 0-1.92 1.55-3.47 3.46-3.47.22 0 .44.02.65.06-1.6.3-2.8 1.7-2.8 3.4"/></g><g><path fill="#c4111b" d="M19.13 15.87l1.48 1.05 1.47-1.07-.54 1.73L23 18.65h-1.82l-.55 1.74-.58-1.73h-1.82l1.47-1.08-.57-1.73z"/></g></g></g></g></svg>