<svg xmlns="http://www.w3.org/2000/svg" viewBox="0 0 45 45" enable-background="new 0 0 45 45"><defs><clipPath id="a"><path d="M0 36h36V0H0v36z"/></clipPath></defs><g><g><g clip-path="url(#a)" transform="matrix(1.25 0 0 -1.25 0 45)"><g><path fill="#141414" d="M0 9c0-2.2 1.8-4 4-4h28c2.2 0 4 1.8 4 4v4H0V9z"/></g><path fill="#eee" d="M0 13h36v10H0V13z"/><g><path fill="#dd2e44" d="M32 31H4c-2.2 0-4-1.8-4-4v-4h36v4c0 2.2-1.8 4-4 4"/></g><g><path fill="#007a3c" d="M11.23 17.94V16.7h5.65v.75c0 .33-.37.3-.37.06v-.54h-4.4v.86l3.1 3.1.46-.5-2.8-2.85h2.9s.15.86.94.86l.92-.63v-2.32H9.38s-.2-1.08-1.45-.94c0 0 .86.57.86 1.25 0 .66-.56 1.2-.56 1.2l.78.5s.08-.43.16-.55c.08-.13.4-.24.4-.24h1.03v.56l-.15.07.78.6z"/></g><g><path fill="#007a3c" d="M19.53 16.94l-.17-.23h-.48c0 1.16 0 3.43 0 3.45-.02.03.2.2.2.2l-.97.54v-5.42h1.85l-.42 1.46z"/></g><g><path fill="#007a3c" d="M22.42 16.7h-.03c-.26 0-.23.34.1.34.2 0 .26-.1.28-.2v-.13h-.36zM25 20.04V16.7h-.5v2.96l-.62-.62V16.7h-.5v1.98l-.6-.62-.14-.13.14-.05v-.46c-.6.3-1.23-.15-1.23-.7v-1.24h4.05v5.17l-.6-.6z"/></g><g><path fill="#007a3c" d="M23.74 20.92c0-.15-.05-.28-.1-.28-.08 0-.13.13-.13.28 0 .15.06.27.13.27.06 0 .1-.13.1-.28"/></g><g><path fill="#007a3c" d="M22.7 20.17s.2-.17.53-.12c.33.05.45.36.45.36s.2-.3.4-.26c.22.05.42.4.42.4s0-.55-.3-.6c-.33-.06-.46.17-.46.17s-.17-.24-.47-.26c-.3-.02-.57.33-.57.33"/></g><g><path fill="#007a3c" d="M27.65 16.97l-.27-.26h-.43v3.5l.26.1-.98.6v-5.42h1.85l-.42 1.5z"/></g><g><path fill="#007a3c" d="M10.72 14.87c0-.15-.12-.27-.27-.27-.15 0-.27.12-.27.27 0 .15.12.27.27.27.15 0 .27-.12.27-.27"/></g></g></g></g></svg>