<svg xmlns="http://www.w3.org/2000/svg" viewBox="0 0 45 45" enable-background="new 0 0 45 45"><defs><clipPath id="a"><path d="M0 36h36V0H0v36z"/></clipPath></defs><g><g><g clip-path="url(#a)" transform="matrix(1.25 0 0 -1.25 0 45)"><g><path fill="#21428e" d="M36 9c0-2.2-1.8-4-4-4H4C1.8 5 0 6.8 0 9v18c0 2.2 1.8 4 4 4h28c2.2 0 4-1.8 4-4V9z"/></g><path fill="#eee" d="M20 5h-4v26h4V5z"/><path fill="#eee" d="M36 16H0v4h36v-4z"/><g><path fill="#fff" d="M6.66 22.38c.27.3 4 .45 3.8-.06-.27-.66-4.13-.32-3.8.06m.1 6.65c-.12-.12-.23-.08-.1.08.12.17.23.06.1-.07m4.68-6.28c-.38.67-3.7.94-4.9.33 1.1.94 4.34.25 4.44 1.8.08 1.22-2.23 1.12-3.13 1.35-.9.23-.1.48.6.77.68.3 1.43.56 1.26 1.56-.16 1-1.85.92-2.62.96-.77.04-1.75-.25-1.52-.73-.6-.26-1.3-.22-1.73 0 0-.17.26-.24.26-.24l-.45-.1c.52-.25 1.6-.13 2.06.1.1-.1.38-.16 1.5-.1 1.13.06 1.26.27 1.53.02.45-.42-.5-.58-1.7-1.02-1.22-.44-.7-1.5-.05-1.83.65-.34 1.3-.3 2.37-.48 1.1-.18.32-.4-.3-.44-.24 0-2.07-.07-3.05-.6-1.14-.6-.92-1.37-1.02-1.5-.1-.12-1.1-.08-1.88.15.28-.75 1.57-.75 2.03-.77.45-.02.87-1.1 3.64-1.06 2.77.04 3.04 1.16 2.67 1.83"/></g><g><path fill="#fff" d="M27.5 22.38c.26.3 4 .45 3.8-.06-.27-.66-4.14-.32-3.8.06m.1 6.65c-.13-.12-.24-.08-.1.08.1.17.22.06.1-.07m4.67-6.28c-.37.67-3.7.94-4.9.33 1.1.94 4.34.25 4.44 1.8.1 1.22-2.22 1.12-3.1 1.35-.9.23-.12.48.57.77.7.3 1.44.56 1.27 1.56-.16 1-1.85.92-2.62.96-.77.04-1.75-.25-1.52-.73-.6-.26-1.32-.22-1.73 0 0-.17.26-.24.26-.24l-.45-.1c.52-.25 1.6-.13 2.06.1.1-.1.38-.16 1.5-.1 1.13.06 1.25.27 1.52.02.46-.42-.5-.58-1.7-1.02-1.2-.44-.7-1.5-.05-1.83.66-.34 1.3-.3 2.4-.48 1.07-.18.3-.4-.32-.44-.23 0-2.07-.07-3.05-.6-1.14-.6-.9-1.37-1.02-1.5-.1-.12-1.1-.08-1.86.15.27-.75 1.56-.75 2.02-.77.46-.02.87-1.1 3.64-1.06 2.78.04 3.05 1.16 2.67 1.83"/></g><g><path fill="#fff" d="M6.66 7.84c.27.3 4 .45 3.8-.06-.27-.66-4.13-.32-3.8.06m.1 6.65c-.12-.14-.23-.1-.1.07.12.15.23.04.1-.08m4.68-6.3c-.38.67-3.7.95-4.9.34 1.1.94 4.34.25 4.44 1.8.08 1.22-2.23 1.12-3.13 1.35-.9.22-.1.47.6.76.68.3 1.43.56 1.26 1.55-.16 1-1.85.94-2.62.98-.77.04-1.75-.25-1.52-.73-.6-.25-1.3-.2-1.73 0 0-.17.26-.23.26-.23l-.45-.1c.52-.25 1.6-.13 2.06.1.1-.1.38-.17 1.5-.1 1.13.06 1.26.27 1.53.02.45-.42-.5-.6-1.7-1.02-1.22-.44-.7-1.5-.05-1.84.65-.33 1.3-.3 2.37-.48 1.1-.17.32-.4-.3-.43-.24-.02-2.07-.1-3.05-.6-1.14-.62-.92-1.38-1.02-1.5-.1-.13-1.1-.1-1.88.14.28-.74 1.57-.74 2.03-.76.45-.02.87-1.1 3.64-1.07 2.77.05 3.04 1.17 2.67 1.84"/></g><g><path fill="#fff" d="M27.5 7.84c.26.3 4 .45 3.8-.06-.27-.66-4.14-.32-3.8.06m.1 6.65c-.13-.14-.24-.1-.1.07.1.15.22.04.1-.08m4.67-6.3c-.37.67-3.7.95-4.9.34 1.1.94 4.34.25 4.44 1.8.1 1.22-2.22 1.12-3.1 1.35-.9.22-.12.47.57.76.7.3 1.44.56 1.27 1.55-.16 1-1.85.94-2.62.98-.77.04-1.75-.25-1.52-.73-.6-.25-1.32-.2-1.73 0 0-.17.26-.23.26-.23l-.45-.1c.52-.25 1.6-.13 2.06.1.1-.1.38-.17 1.5-.1 1.13.06 1.25.27 1.52.02.46-.42-.5-.6-1.7-1.02-1.2-.44-.7-1.5-.05-1.84.66-.33 1.3-.3 2.4-.48 1.07-.17.3-.4-.32-.43-.23-.02-2.07-.1-3.05-.6-1.14-.62-.9-1.38-1.02-1.5-.1-.13-1.1-.1-1.86.14.27-.74 1.56-.74 2.02-.76.46-.02.87-1.1 3.64-1.07 2.78.05 3.05 1.17 2.67 1.84"/></g></g></g></g></svg>