<?xml version="1.0" encoding="UTF-8" standalone="no"?><svg xmlns:dc="http://purl.org/dc/elements/1.1/" xmlns:cc="http://creativecommons.org/ns#" xmlns:rdf="http://www.w3.org/1999/02/22-rdf-syntax-ns#" xmlns:svg="http://www.w3.org/2000/svg" xmlns="http://www.w3.org/2000/svg" viewBox="0 0 45 45" style="enable-background:new 0 0 45 45;" xml:space="preserve" version="1.1" id="svg2"><metadata id="metadata8"><rdf:RDF><cc:Work rdf:about=""><dc:format>image/svg+xml</dc:format><dc:type rdf:resource="http://purl.org/dc/dcmitype/StillImage"/></cc:Work></rdf:RDF></metadata><defs id="defs6"><clipPath id="clipPath28" clipPathUnits="userSpaceOnUse"><path id="path30" d="M 0,36 36,36 36,0 0,0 0,36 Z"/></clipPath></defs><g transform="matrix(1.25,0,0,-1.25,0,45)" id="g10"><g transform="translate(27.7959,17)" id="g12"><path id="path14" style="fill:#22408b;fill-opacity:1;fill-rule:nonzero;stroke:none" d="m 0,0 -19.796,14 0,-14 0,-12 L 0,-12 -11.877,0 0,0 Z"/></g><g transform="translate(25,18)" id="g16"><path id="path18" style="fill:#dd2f45;fill-opacity:1;fill-rule:nonzero;stroke:none" d="m 0,0 -16,10.804 0,-6 L -16,0 -16,-12 0,-12 -11.426,0 0,0 Z"/></g><g transform="translate(14.291,11.959)" id="g20"><path id="path22" style="fill:#ffffff;fill-opacity:1;fill-rule:nonzero;stroke:none" d="m 0,0 0.586,0.816 -1,-0.098 0.1,1 -0.817,-0.586 -0.414,0.916 -0.414,-0.916 -0.817,0.586 0.099,-1 -1,0.098 0.586,-0.816 -0.916,-0.414 0.916,-0.414 -0.586,-0.817 1,0.099 -0.099,-1 0.817,0.586 0.414,-0.916 0.414,0.916 0.817,-0.586 -0.1,1 1,-0.099 L 0,-0.828 0.916,-0.414 0,0 Z"/></g><g id="g24"><g clip-path="url(#clipPath28)" id="g26"><g transform="translate(12.7446,19.1064)" id="g32"><path id="path34" style="fill:#ffffff;fill-opacity:1;fill-rule:nonzero;stroke:none" d="M 0,0 0.001,-0.002 0.002,0 c 0.006,0 0.012,-0.002 0.018,-0.002 1.468,0 2.659,1.13 2.784,2.567 C 2.456,1.917 1.892,1.405 1.209,1.123 L 1.034,1.367 1.646,1.644 1.034,1.92 1.425,2.465 0.757,2.399 0.824,3.068 0.277,2.677 0.001,3.289 -0.275,2.677 -0.822,3.068 -0.755,2.399 -1.423,2.465 -1.032,1.92 -1.644,1.644 -1.032,1.367 -1.2,1.134 C -1.87,1.418 -2.422,1.926 -2.765,2.565 -2.641,1.136 -1.459,0.01 0,0"/></g></g></g></g></svg>
