<svg xmlns="http://www.w3.org/2000/svg" viewBox="0 0 45 45" enable-background="new 0 0 45 45"><defs><clipPath id="a"><path d="M0 36h36V0H0v36z"/></clipPath></defs><g><g><g clip-path="url(#a)" transform="matrix(1.25 0 0 -1.25 0 45)"><g><path fill="#ed1c24" d="M32 31H4c-2.2 0-4-1.8-4-4h36c0 2.2-1.8 4-4 4"/></g><path fill="#eee" d="M0 23h36v4H0v-4z"/><g><path fill="#ed1c24" d="M32 5H4C1.8 5 0 6.8 0 9h36c0-2.2-1.8-4-4-4"/></g><path fill="#eee" d="M0 13h36V9H0v4z"/><path fill="#241d4f" d="M0 13h36v10H0V13z"/></g></g></g></svg>