<svg xmlns="http://www.w3.org/2000/svg" viewBox="0 0 45 45" enable-background="new 0 0 45 45"><defs><clipPath id="a"><path d="M0 36h36V0H0v36z"/></clipPath></defs><g><g><g clip-path="url(#a)" transform="matrix(1.25 0 0 -1.25 0 45)"><g><path fill="#004600" d="M27.6 20.95l-1.2-2.02-.2 2.35-2.3.53 2.16.93-.2 2.35 1.54-1.78 2.17.92-1.2-2.02 1.54-1.78-2.3.53zm-5.1-10.42c-4.14 0-7.5 3.36-7.5 7.5 0 3.72 2.7 6.8 6.26 7.4-2.22-1.05-3.76-3.3-3.76-5.9 0-3.6 2.9-6.5 6.5-6.5 2.6 0 4.86 1.54 5.9 3.76-.6-3.56-3.68-6.27-7.4-6.27M32 31H9V5h23c2.2 0 4 1.8 4 4v18c0 2.2-1.8 4-4 4"/></g><g><path fill="#eee" d="M4 31c-2.2 0-4-1.8-4-4V9c0-2.2 1.8-4 4-4h5v26H4z"/></g><g><path fill="#fff" d="M29.57 24.22l-2.17-.92-1.55 1.78.2-2.35-2.16-.92 2.3-.52.2-2.35 1.2 2.02 2.3-.53-1.54 1.78 1.2 2.02z"/></g><g><path fill="#fff" d="M24 13.03c-3.6 0-6.5 2.9-6.5 6.5 0 2.6 1.54 4.85 3.76 5.9-3.55-.6-6.26-3.68-6.26-7.4 0-4.14 3.36-7.5 7.5-7.5 3.72 0 6.8 2.7 7.4 6.26-1.04-2.23-3.3-3.77-5.9-3.77"/></g></g></g></g></svg>