<svg xmlns="http://www.w3.org/2000/svg" viewBox="0 0 45 45" enable-background="new 0 0 45 45"><defs><clipPath id="a"><path d="M0 36h36V0H0v36z"/></clipPath></defs><g><g><g clip-path="url(#a)" transform="matrix(1.25 0 0 -1.25 0 45)"><g><path fill="#3b88c3" d="M36 4c0-2.2-1.8-4-4-4H4C1.8 0 0 1.8 0 4v28c0 2.2 1.8 4 4 4h28c2.2 0 4-1.8 4-4V4z"/></g><g><path fill="#fff" d="M9.93 26.97c0 1.27.93 2.3 2.32 2.3 1.33 0 2.33-.88 2.33-2.3v-6.7l7.62 8.12c.35.37.93.86 1.8.86 1.18 0 2.3-.9 2.3-2.23 0-.8-.5-1.46-1.52-2.48l-5.86-5.77 7.16-7.47c.74-.73 1.3-1.42 1.3-2.35 0-1.45-1.15-2.14-2.42-2.14-.9 0-1.5.54-2.35 1.47l-8.02 8.68v-7.9c0-1.2-.93-2.24-2.33-2.24-1.33 0-2.32.88-2.32 2.25v17.92z"/></g></g></g></g></svg>