<svg xmlns="http://www.w3.org/2000/svg" viewBox="0 0 45 45" enable-background="new 0 0 45 45"><defs><clipPath id="a"><path d="M4 31c-2.2 0-4-1.8-4-4V9c0-2.2 1.8-4 4-4h28c2.2 0 4 1.8 4 4v18c0 2.2-1.8 4-4 4H4z"/></clipPath></defs><g><g><g clip-path="url(#a)" transform="matrix(1.25 0 0 -1.25 0 45)"><g><path fill="#009e49" d="M0 31V11.68L26.5 31H0z"/></g><g><path fill="#ce1126" d="M36 24.8L8.77 5H36v19.8z"/></g><g><path fill="#fcd116" d="M29.07 31H26.5L0 11.68V9.8L29.07 31z"/></g><g><path fill="#fcd116" d="M36 26.7L6.2 5h2.57L36 24.8v1.9z"/></g><g><path fill="#141414" d="M29.07 31L0 9.8V5.05h.07L0 5h6.2L36 26.7V31h-6.93z"/></g><g><path fill="#fff" d="M25.1 19.88l.78 2.44h2.56l-2.08 1.5.8 2.45-2.08-1.5-2.08 1.5.8-2.45-2.08-1.5h2.57l.8-2.44z"/></g><g><path fill="#fff" d="M12.4 13.64l.8 2.44-2.1-1.5-2.07 1.5.8-2.44-2.07-1.5h2.56l.8-2.45.8 2.43h2.56l-2.08 1.5z"/></g></g></g></g></svg>