<svg xmlns="http://www.w3.org/2000/svg" viewBox="0 0 45 45" enable-background="new 0 0 45 45"><defs><clipPath id="a"><path d="M0 36h36V0H0v36z"/></clipPath></defs><g><g><g clip-path="url(#a)" transform="matrix(1.25 0 0 -1.25 0 45)"><g><path fill="#fce100" d="M36 9c0-2.2-1.8-4-4-4H4C1.8 5 0 6.8 0 9v18c0 2.2 1.8 4 4 4h28c2.2 0 4-1.8 4-4V9z"/></g><path fill="#141414" d="M36 13H0v10h36V13z"/><g><path fill="#007168" d="M32 31H4c-2.2 0-4-1.8-4-4v-4h36v4c0 2.2-1.8 4-4 4"/></g><path fill="#eee" d="M36 22H0v1h36v-1z"/><path fill="#eee" d="M36 13H0v1h36v-1z"/><g><path fill="#dd2e44" d="M1.3 6.05l15.73 11.9-15.7 12C.53 29.24 0 28.2 0 27V9c0-1.17.5-2.2 1.3-2.95"/></g><g><path fill="#fce100" d="M9.48 12.94l-3.27 2.4-3.26-2.4L4.2 16.8.93 19.14h4.05L6.2 23l1.25-3.86 4.05.02-3.3-2.37 1.28-3.86z"/></g><g><path fill="#141414" d="M3.37 15.3h2.35c.2-.22.62-.3 1.02 0 .74.4 2.17 0 2.17 0l.3.3-.7 2.25-.24.26s-.53.33-1.53.22c-1-.1-1.36.04-1.36.04s-.88-.1-1.12-.23c-.03-.02-.28-.28-.28-.28l-.6-2.55z"/></g><g><path fill="#fff" d="M3.37 15.62h2.35c.2-.2.62-.3 1.02 0 .74.4 2.17 0 2.17 0l.3.3-.7 2.25-.24.27s-.53.3-1.53.2c-1-.1-1.36.04-1.36.04s-.88-.1-1.12-.22c-.03-.03-.28-.3-.28-.3l-.6-2.54z"/></g><g><path fill="#141414" d="M2.2 19l1.28 1.84.77-.13.45.48 1.54-1.9 1.23.9.76.62.45-.28 1.6 1.03-1.44-1.36-1.2-.86-.97-.44 3.24-3.82-.4-.3-3.1 3.75-1-.8 1.3-.43-.03-.63-1.85.5.1-1.3-.44-.18-.38.74-1.63-1.9-.6 1 1.86 1.55.04.54 1 .93.3.04.85.35-1.27 1.34-1.68-2.36-.73.87"/></g></g></g></g></svg>