<svg xmlns="http://www.w3.org/2000/svg" viewBox="0 0 45 45" enable-background="new 0 0 45 45"><defs><clipPath id="a"><path d="M4 31c-2.2 0-4-1.8-4-4V9c0-2.2 1.8-4 4-4h28c2.2 0 4 1.8 4 4v18c0 2.2-1.8 4-4 4H4z"/></clipPath></defs><g><g><g clip-path="url(#a)" transform="matrix(1.25 0 0 -1.25 0 45)"><g><path fill="#ce1126" d="M0 5h25L0 31V5z"/></g><g><path fill="#ce1126" d="M11 31L36 5v26H11z"/></g><g><path fill="#eee" d="M0 31L25 5h1.82L1.84 31H0z"/></g><g><path fill="#eee" d="M9.18 31l25-26H36L11 31H9.2z"/></g><g><path fill="#141414" d="M1.84 31l25-26h7.33l-25 26H1.85z"/></g></g></g></g></svg>