<svg xmlns="http://www.w3.org/2000/svg" viewBox="0 0 45 45" enable-background="new 0 0 45 45"><defs><clipPath id="a"><path d="M0 36h36V0H0v36z"/></clipPath></defs><g><g><g clip-path="url(#a)" transform="matrix(1.25 0 0 -1.25 0 45)"><g><path fill="#eee" d="M36 9c0-2.2-1.8-4-4-4H4C1.8 5 0 6.8 0 9v18c0 2.2 1.8 4 4 4h28c2.2 0 4-1.8 4-4V9z"/></g><g><path fill="#ed2939" d="M36 18v9c0 2.2-1.8 4-4 4H4c-2.2 0-4-1.8-4-4v-9h36z"/></g><g><path fill="#fff" d="M6 24.5c0 2.58 1.62 4.75 3.8 5.34-.4.1-.85.16-1.3.16C5.46 30 3 27.54 3 24.5S5.46 19 8.5 19c.45 0 .9.06 1.3.16-2.18.6-3.8 2.76-3.8 5.34"/></g><g><path fill="#eee" d="M12 29l.23-.7h.72l-.6-.42.24-.7-.6.44-.6-.43.24.68-.6.43h.74l.22.7z"/></g><g><path fill="#eee" d="M10 22l.23-.7h.72l-.6-.42.24-.7-.6.44-.6-.43.24.68-.6.43h.74l.22.7z"/></g><g><path fill="#eee" d="M14 22l.23-.7h.72l-.6-.42.24-.7-.6.44-.6-.43.24.68-.6.43h.74l.22.7z"/></g><g><path fill="#eee" d="M9 26l.23-.7h.72l-.6-.42.24-.7-.6.44-.6-.43.24.68-.6.43h.74L9 26z"/></g><g><path fill="#eee" d="M15 26l.23-.7h.72l-.6-.42.24-.7-.6.44-.6-.43.24.68-.6.43h.74l.22.7z"/></g></g></g></g></svg>