<svg xmlns="http://www.w3.org/2000/svg" viewBox="0 0 45 45" enable-background="new 0 0 45 45"><defs><clipPath id="a"><path d="M0 36h36V0H0v36z"/></clipPath><clipPath id="b"><path d="M4 31c-2.2 0-4-1.8-4-4V9c0-2.2 1.8-4 4-4h28c2.2 0 4 1.8 4 4v18c0 2.2-1.8 4-4 4H4z"/></clipPath><clipPath id="c"><path d="M0 36h36V0H0v36z"/></clipPath></defs><g><g><g clip-path="url(#a)" transform="matrix(1.25 0 0 -1.25 0 45)"><g><path fill="#1a8a00" d="M36 9c0-2.2-1.8-4-4-4H4C1.8 5 0 6.8 0 9v18c0 2.2 1.8 4 4 4h28c2.2 0 4-1.8 4-4V9z"/></g></g></g><g><g clip-path="url(#b)" transform="matrix(1.25 0 0 -1.25 0 45)"><path fill="#ef7d00" d="M31 21h5V5h-5v16z"/><path fill="#141414" d="M26 21h5V5h-5v16z"/><path fill="#de200f" d="M21 21h5V5h-5v16z"/></g></g><g><g clip-path="url(#c)" transform="matrix(1.25 0 0 -1.25 0 45)"><g><path fill="#ef7d00" d="M28.65 24.02c-.28 0-.1.15-.13.3-.05.15.15.02.13.15-.03.13 0 .76 0 .76.2-.22.32-.5.3-.72-.02-.2.1-.22.15-.33.04-.1-.17-.15-.45-.15m6.43 3.72c-.1.03-.7-.32-.7-.32s.55.65.42.65c-.13 0-.87-.35-.87-.35s.46.57.3.5c-.15-.06-.97-.43-1.6-.7.1.15.07.38 0 .38-.06 0-.43-.24-1-.37-.56-.13-1.4-.6-1.77-.54-.37.05-1.1 0-1.1 0s-.22.3-.05.4c.18.08.3-.13.3-.13s.32.13.32.3c0 .2-.52.22-.52.22s-.22.27-.57.27c-.9 0-.97-.98-.97-.98s-.37.12-.72.2c-.34.1-.95.05-1.56.42-.6.37-1 .5-.26-.28-1.08.37-1.64 1.1-1.8.8-.15-.33.42-.7.42-.7s-.3.07-.57.3c-.26.25-.63.4-.28-.12-.46.13-.14-.34-.14-.34s-.37-.1 0-.37c.37-.25 1.04-.36 1.04-.36s-.3-.22-.1-.3c.2-.1.5-.03.5-.03s-.25-.2 0-.3c.27-.08.6 0 .6 0s-.1-.2.15-.3c.26-.1.67.1.67.1s-.2-.1 0-.22c.2-.1.5.12.5.12s-.17-.3 0-.34c.17-.04.45.17.45.17s-.17-.28 0-.3c.18-.02.57.2.57.2s-.24-.3 0-.3.52.14.52.14-.07-.24.13-.32c.18-.1.47.15.47.15s.06-.46.02-.72c-.06-.26.27-.06.27-.06s-.05-.4-.3-.37c-.26.02-.53-.32-.44-.4.1-.1.44.05.44.05s-.03-.47.1-.43c.13.04.35.3.35.3s.13-.34.22-.3c.08.04.13.24.13.35 0 .1.24.15.24.15s.07-.43.16-.35c.1.08.1.37.24.46.13.08.08-.5.2-.46.14.05.08.44.03.57-.04.12.26-.12.24 0-.02.1-.26.3-.26.3s.32-.1.23 0c-.1.12-.13.4 0 .34s.24.2.24.2.34-.27.56-.18c.22.08-.28.4-.28.4s.76-.27.93-.23c.16.05-.26.33-.26.33s.48-.1.57 0c.07.1-.32.2-.32.2s.52-.1.6 0c.05.08-.16.2-.16.2s.86 0 1.04.3c.86 0 1.82.68 1.9.84.1.15-.15.15-.15.15s.53.4.47.47c-.07.07-.35-.08-.35-.08s.67.58.56.6"/></g></g></g></g></svg>