<svg xmlns="http://www.w3.org/2000/svg" viewBox="0 0 45 45" enable-background="new 0 0 45 45"><defs><clipPath id="a"><path d="M0 36h36V0H0v36z"/></clipPath><clipPath id="b"><path d="M4 30c-1.65 0-3-1.35-3-3V9c0-1.65 1.35-3 3-3h28c1.66 0 3 1.35 3 3v18c0 1.65-1.34 3-3 3H4z"/></clipPath><clipPath id="c"><path d="M0 36h36V0H0v36z"/></clipPath></defs><g><g><g clip-path="url(#a)" transform="matrix(1.25 0 0 -1.25 0 45)"><g><path fill="#ffb700" d="M36 9c0-2.2-1.8-4-4-4H4C1.8 5 0 6.8 0 9v18c0 2.2 1.8 4 4 4h28c2.2 0 4-1.8 4-4V9z"/></g><g><path fill="#8d2129" d="M4 6C2.35 6 1 7.35 1 9v18c0 1.65 1.35 3 3 3h28c1.65 0 3-1.35 3-3V9c0-1.65-1.35-3-3-3H4z"/></g></g></g><g><g clip-path="url(#b)" transform="matrix(1.25 0 0 -1.25 0 45)"><path fill="#005641" d="M5 6H1v24h4V6z"/><path fill="#ff5b00" d="M9 6H5v24h4V6z"/></g></g><g><g clip-path="url(#c)" transform="matrix(1.25 0 0 -1.25 0 45)"><path fill="#ffb700" d="M10 5H9v26h1V5z"/><g><path fill="#ffb700" d="M13.2 25.94s-.07.96-.04 1.76c.03.53-.27 1.18-.84 1.08-.56-.1-1.18.02-1.18.02s.12-.36 0-.7c-.13-.35-.13-1.07.72-1.16.84-.1 1.18-.53 1.34-1"/></g><g><path fill="#ffb700" d="M31.88 25.94s.07.96.04 1.76c-.02.53.27 1.18.84 1.08.56-.1 1.2.02 1.2.02s-.14-.36 0-.7c.1-.35.1-1.07-.73-1.16-.85-.1-1.2-.53-1.35-1"/></g><g><path fill="#ffb700" d="M13.2 10.06s-.07-.96-.04-1.76c.03-.53-.27-1.18-.84-1.08-.56.1-1.18-.02-1.18-.02s.12.36 0 .7c-.13.35-.13 1.07.72 1.16.84.1 1.18.53 1.34 1"/></g><g><path fill="#ffb700" d="M31.88 10.06s.07-.96.04-1.76c-.02-.53.27-1.18.84-1.08.56.1 1.2-.02 1.2-.02s-.14.36 0 .7c.1.35.1 1.07-.73 1.16-.85.1-1.2.53-1.35 1"/></g><g><path fill="#ffb700" d="M18.4 22.63s.6.03 1.2.18c.6.17.4.73.4.73s.53.28.84 0c.32-.28.7-.25.5.13.57.28.82-.35.82-.35s.28.2.34.43c.5.05.6-.45.9-.4.32.08.54.4.54.4s.06-.9-.47-1.1c.44-.57.3-1.66.3-1.94l-.3.17s.2-.87.28-1c.1-.12-.3 0-.3 0s.2-.6.36-.68c.17-.1 3.1.18 3.95.18.84 0 2 .12 2 .87s-.97.7-2.06.53c-1.1-.16-1.82-.12-2.26.16-.44.28-.94.35-.9-.36-.66.32-.2.98-.2.98s-.75.84-.26 1.67c.48.83 2.36 1.08 3.67.35 1.3-.73 1.83-1.33 2.38-1.43-.03.4.64.68.72-.05.1-.73-.83-.58-1.22-.35-.4.23-1.1.92-1.1.92s-.03-.42.24-.7c-.75.1-.92.66-.92.66s-.04-.6-.72-.63c.5.58.33 1.06-.36 1.3.4-.6.02-1.1-.56-1.2.4.57.07 1.2-.66 1.34.1-.46-.25-.6-.25-.6s-.17.43-.5.2c-.34-.23-.42-.73 0-1.04.28.54.83.5 1 .27-.55-.06-.53-.58-.32-.85.2.35.42.45.62.08.2-.38.84-.35 1.96-.2 1.13.18 2.16.06 2.34-.95.14-.85-.7-1.27-.7-1.27s1.1-.83.38-2.64c-.7-1.82-.4-2.57-.14-2.75.27-.2.7-.22.12-.72-.56-.5-.4-.86-.18-1.15.22-.3.16-.58-.5-.2-.3-.3-.6-.2-.75.04-.17-.23-.48-.3-.7-.05-.2-.16-.47-.16-.33.2.15.35.86.5 1.07.55.2.07.18.44.12.86-.07.42-.42.85-1.17 1.25-.34-.25-.3-.54-.17-.7.12-.13.52-.18.54-.3.02-.13-.2-.4-.46-.58-.25-.2-.2-.53-.12-.7.08-.16.18-.57-.1-.76-.26-.2-.53.25-.53.25s-.18-.53-.65-.03c-.27-.34-.55-.2-.67-.02-.27-.28-.7-.25-.48.12.2.38.46.38.75.4.3.02.7.08.65.66-.05.6-.16 1.18-.57 1.54-.62.57-.52 1.23-.52 1.23s-1.03.1-1.84-.45c-.8-.57-1.44-.57-1.44-.57s-.46-.5-.5-.8c-.04-.32.15-.43.4-.5.25-.1.43-.07.06-.4-.38-.34-.7-.32-.7-.32s0-.35.03-.56c.05-.2-.07-.57-.28-.6-.2-.05-.52.22-.52.22s-.4-.4-.7.03c-.36-.34-.67-.2-.8 0-.2-.34-.54-.2-.33.18.2.38.5.42 1 .4.5-.02.9.37.73.9-.2.52-.36 1.22-.36 1.22s-.4.05-.98.38c-.73-.88-.98-.56-1.18-.4-.2.17-.7.63-.7.63s-.28.02-.24-.23c-.3.02-.2.48-.2.7 0 .24-.07.5-.24.5-.17 0-.42-.03-.42-.03s0-.1.25-.17c.25-.08.23-.25-.02-.27-.24-.02-.4-.08-.22-.23.2-.15.2-.23.07-.38-.15-.14-.13-.54.12-.68.17.4.48.16.42-.1-.07-.28-.53-.24-.53-.24l.3-.35-.47-.1s-.02-.3-.2-.36c-.2-.06-.24.44-.24.44l-.43.02.3.35s-.43.15-.45.4c-.02.25.3.12.37 0 .34.14.23.48.1.6-.12.13-.03.23.1.38.12.15.1.24-.1.2-.18-.05-.5.33-.18.33.3 0 .38.02.33.25-.37.04-.14.33-.14.33s-.3.22-.08.37c-.2.16-.23.43-.03.48-.12.1.05.3.05.3s-.6.1-.6.55c0 .46.5.37.5.37s-.05 1.46.1 3.5c.14 2.05 1 2.76 1.52 2.96-.54-1.14-.48-3.08-.48-4.27 0-1.2-.02-2.12-.02-2.12s.58-.04.54-.44c-.04-.4-.3-.48-.3-.48L18 16.17s-.06 1.4.4 1.94c.45.57 1.16 1.1 1.37 1.25.2.17-.13.6-.3.13-.23.03-.43.42-.43.42s.02-.15-.12-.25c-.15-.1-.1.35-.2.3-.07-.03-.3-.16-.6-.24.03.18.15.38.15.38s-.37-.04-.7-.08c0 .3.18.77.35.8-.42.22-.32.62-.13.55.18-.06 1.05-.58 2.03-.64-.3.36-.56.82-.56.82l-.1-.35-.38.35-.05-.35s-.92.66-1.08 1.2c-.17.55.02.94.33.9.6-.08.4-.64.4-.64"/></g></g></g></g></svg>