<svg xmlns="http://www.w3.org/2000/svg" viewBox="0 0 45 45" enable-background="new 0 0 45 45"><defs><clipPath id="a"><path d="M0 36h36V0H0v36z"/></clipPath></defs><g><g><g clip-path="url(#a)" transform="matrix(1.25 0 0 -1.25 0 45)"><g><path fill="#00785e" d="M36 9c0-2.2-1.8-4-4-4H4C1.8 5 0 6.8 0 9v18c0 2.2 1.8 4 4 4h28c2.2 0 4-1.8 4-4V9z"/></g><g><path fill="#fbd116" fill-rule="evenodd" d="M17.98 27.43c.18-.34.27-.77.4-1.17h1.27c-.32-.26-.67-.5-1-.74.1-.4.24-.76.36-1.15-.06-.03-.16.06-.23.1-.22.18-.52.4-.75.57-.37-.2-.7-.54-1.03-.7.1.4.25.75.35 1.15-.3.27-.65.5-1 .73.36.06.84 0 1.24.03.14.37.27.76.38 1.17"/></g><g><path fill="#fbd116" fill-rule="evenodd" d="M12.54 24.03c.24.15.46.32.7.48-.1.26-.16.56-.27.8.22-.07.46-.34.7-.48.24.15.46.3.7.48-.03-.23-.2-.52-.25-.8.18-.2.44-.35.67-.52-.25-.06-.6 0-.85 0-.12-.24-.2-.52-.3-.8-.1.22-.18.5-.25.8h-.65c-.02.07-.2-.02-.2.05"/></g><g><path fill="#fbd116" fill-rule="evenodd" d="M23.25 23.98h-.62c-.1-.26-.17-.55-.27-.8-.1.25-.2.53-.3.8-.26-.02-.55-.03-.85-.02.22.2.47.33.68.52-.07.3-.18.55-.26.82.24-.15.46-.32.7-.48.26.14.45.36.7.5-.1-.24-.14-.55-.25-.8.2-.18.45-.33.7-.5-.03-.06-.2.03-.22-.04"/></g><g><path fill="#fbd116" fill-rule="evenodd" d="M11.27 22.52c.1-.23.1-.57.2-.84.3-.02.56-.07.85-.1-.24-.14-.48-.28-.74-.4 0-.3.1-.55.14-.82-.07 0-.2.12-.3.22-.12.1-.22.23-.32.3-.27-.1-.5-.27-.77-.4.12.25.22.52.36.75-.18.23-.4.4-.63.6.25.04.57-.06.84-.08.14.24.26.5.37.77"/></g><g><path fill="#fbd116" fill-rule="evenodd" d="M25.07 21.75c.3.03.56.08.86.1-.2-.2-.43-.38-.62-.6.14-.24.24-.5.37-.74-.23.06-.5.27-.74.4-.24-.16-.45-.46-.65-.56.04.28.12.52.14.8-.23.16-.47.3-.74.42.24.08.56.08.84.12.1.24.1.58.2.84.12-.24.24-.5.35-.77"/></g><g><path fill="#fff" fill-rule="evenodd" d="M21.43 12.8c-1.56.07-2.55.72-3.45 1.45-.85-.77-1.88-1.37-3.4-1.46h-4.5c0-.03 0-.06 0-.06.1-.16.22-.32.35-.45 1.4-.1 3.06-.06 4.48-.04 1.37.08 2.27.62 3.1 1.22.83-.6 1.74-1.13 3.1-1.22 1.43-.02 3.1-.07 4.47.03.12.13.23.28.34.44 0 0 .03 0 .03 0-.17.1-.7.05-1 .05h-3.49z"/></g><g><path fill="#fff" fill-rule="evenodd" d="M25.02 11.64c.04 0 .1.1 0 .07-4.7-.02-9.5.07-14.1-.04.03 0 .04-.02.06-.02.06-.07.14-.2.24-.22.2-.05.53 0 .84 0h12.77c.05.1.14.13.2.22"/></g><g><path fill="#fff" fill-rule="evenodd" d="M24.16 10.8c.02 0 .03.02.05.02 0 .03.04.04.03.08-4-.08-8.17.1-12.15 0-.07 0-.27.06-.3-.08.04 0 .04-.02.06-.02.15-.1.3-.22.43-.33 3.77-.05 7.7-.05 11.46 0 .14.1.28.22.43.33"/></g><g><path fill="#fff" fill-rule="evenodd" d="M23.06 10c.06.06.05.04 0 .06-.33.08-.85 0-1.27 0h-8.35c-.16 0-.6.03-.5-.05.27-.16.57-.33.88-.47 2.72-.04 5.62-.04 8.34 0 .3.14.6.3.9.48"/></g><g><path fill="#fff" fill-rule="evenodd" d="M21.48 9.22h.04c0 .04 0 .04-.04.05-.53.07-1.16 0-1.75 0-1.77 0-3.62.04-5.25-.05h.05c.86-.32 1.78-.58 2.92-.62.1-.06.3 0 .43-.03h.24c.14.02.33-.03.43.03 1.13.05 2.06.3 2.93.62"/></g><g><path fill="#fff" fill-rule="evenodd" d="M16.75 16.62c.02-.08.06-.14.12-.2 0 .1-.06.16-.12.2m-.84 2.74c.06-1.15.37-2.03.85-2.74-.38.86-.72 1.8-.62 3.02.13 1.6.95 2.87 1.9 3.62.88-.8 1.7-2 1.84-3.6.12-1.3-.28-2.35-.74-3.2.52.66.9 1.67.95 2.9.04.04.04.24 0 .28-.03.84-.2 1.53-.5 2.1.15.32.4.53.48.9.38-.6.63-1.34.7-2.25v-.76c-.07-1.13-.45-1.94-.9-2.68-.04 0-.1-.08-.04-.07.05.07.14.12.2.2 1.03.88 2.25 1.58 4.1 1.66H24.54c.04-.08-.12-.17-.2-.27-.08-.1-.14-.26-.22-.34-2-.04-3.3-.78-4.36-1.77.8.53 1.87 1.14 3.14 1.25 1.23.1 2.28-.07 3.18-.45-.26-.7-.62-1.27-1.08-1.75-.12-.1-.22-.2-.3-.3-.84-.76-1.84-1.33-3.32-1.43h-.58c0-.02.03 0 .05-.02.1-.06.27-.05.43-.05.12-.04.4-.04.5 0 1.6.06 2.62.73 3.53 1.5.13-.1.7-.08.58-.2-.13-.1-.24-.23-.36-.36-.84-.76-1.87-1.32-3.37-1.4h-.5c-1.53.08-2.56.65-3.4 1.4-.1.1-.15.2-.27.25-.06-.1-.16-.15-.22-.24-.85-.75-1.9-1.3-3.4-1.4h-.5c-1.52.1-2.56.65-3.4 1.4-.1.13-.22.24-.35.35.03.03-.08.06 0 .07.2.02.4.05.57.12.93-.74 1.92-1.43 3.54-1.5.12-.03.4-.03.52 0 .15 0 .33 0 .43.06h.04c-.15.06-.4 0-.58.02-1.48.1-2.48.67-3.3 1.42-.1.1-.2.2-.32.3-.46.5-.83 1.07-1.08 1.76.9.38 1.94.55 3.14.45 1.26-.1 2.35-.7 3.12-1.24.04-.05.1-.1.17-.14 0 .08-.08.1-.12.15-1.08.97-2.35 1.72-4.34 1.76-.17.18-.36.45-.47.6h.46c1.8-.08 3.03-.75 4.04-1.63.1-.1.17-.23.3-.3.03.1-.04 0-.04.06-.02.04-.05.1-.1.13-.43.72-.8 1.52-.86 2.6v.76c.06.9.33 1.6.67 2.24.14-.33.33-.6.52-.86-.24-.53-.42-1.12-.48-1.82-.06-.04 0-.17-.03-.25v-.06c-.03-.04-.03-.24 0-.28"/></g></g></g></g></svg>