<svg xmlns="http://www.w3.org/2000/svg" viewBox="0 0 45 45" enable-background="new 0 0 45 45"><defs><clipPath id="a"><path d="M0 36h36V0H0v36z"/></clipPath><clipPath id="b"><path d="M4 31c-2.2 0-4-1.8-4-4V9c0-2.2 1.8-4 4-4h28c2.2 0 4 1.8 4 4v18c0 2.2-1.8 4-4 4H4z"/></clipPath><clipPath id="c"><path d="M0 36h36V0H0v36z"/></clipPath></defs><g><g><g clip-path="url(#a)" transform="matrix(1.25 0 0 -1.25 0 45)"><g><path fill="#0f47af" d="M36 9c0-2.2-1.8-4-4-4H4C1.8 5 0 6.8 0 9v18c0 2.2 1.8 4 4 4h28c2.2 0 4-1.8 4-4V9z"/></g></g></g><g><g clip-path="url(#b)" transform="matrix(1.25 0 0 -1.25 0 45)"><path fill="#eee" d="M36 13H0v10h36V13z"/></g></g><g><g clip-path="url(#c)" transform="matrix(1.25 0 0 -1.25 0 45)"><g><path fill="#1f601a" d="M17.46 14.7c.25.77-.6.9-.6.9s.05-.43-.46-.44c.17-.35 0-.63-.2-.64.36-.33 1.1-.3 1.26.18"/></g><g><path fill="#1f601a" d="M16.2 15.17c.46.57-.23 1-.23 1s-.1-.4-.55-.25c.04-.36-.2-.55-.4-.5.2-.4.87-.62 1.17-.25"/></g><g><path fill="#1f601a" d="M15.3 15.96c.56.3.15.86.15.86s-.2-.3-.5 0c-.1-.3-.35-.38-.48-.27.02-.4.47-.78.83-.6"/></g><g><path fill="#1f601a" d="M14.95 16.97c.6.12.37.74.37.74s-.26-.2-.46.14c-.17-.24-.4-.25-.5-.1-.08-.37.2-.85.6-.77"/></g><g><path fill="#1f601a" d="M14.8 17.84c.56 0 .47.58.47.58s-.27-.13-.4.2c-.18-.2-.4-.15-.45 0-.13-.3.05-.8.4-.78"/></g><g><path fill="#1f601a" d="M14.94 18.66c.42-.15.5.4.5.4s-.25-.05-.27.28c-.18-.12-.34-.02-.35.12-.18-.23-.15-.7.12-.8"/></g><g><path fill="#1f601a" d="M15.27 19.34c.2-.12.45.3.45.3s-.2.06-.14.36c-.16-.07-.28-.03-.26.1-.18-.2-.25-.64-.05-.76"/></g><g><path fill="#1f601a" d="M18.38 14.7c-.24.77.6.9.6.9s-.05-.43.46-.44c-.17-.35 0-.63.2-.64-.35-.33-1.1-.3-1.26.18"/></g><g><path fill="#1f601a" d="M19.65 15.17c-.47.57.22 1 .22 1s.1-.4.55-.25c-.03-.36.2-.55.4-.5-.2-.4-.87-.62-1.17-.25"/></g><g><path fill="#1f601a" d="M20.55 15.96c-.57.3-.15.86-.15.86s.2-.3.5 0c.1-.3.34-.38.48-.27-.03-.4-.47-.78-.83-.6"/></g><g><path fill="#1f601a" d="M20.9 16.97c-.6.12-.38.74-.38.74s.27-.2.47.14c.15-.24.4-.25.5-.1.07-.37-.23-.85-.6-.77"/></g><g><path fill="#1f601a" d="M21.03 17.84c-.54 0-.45.58-.45.58s.27-.13.4.2c.17-.2.4-.15.44 0 .14-.3-.04-.8-.4-.78"/></g><g><path fill="#1f601a" d="M20.9 18.66c-.42-.15-.5.4-.5.4s.25-.05.27.28c.2-.12.34-.02.36.12.17-.23.15-.7-.13-.8"/></g><g><path fill="#1f601a" d="M20.58 19.34c-.2-.12-.45.3-.45.3s.18.06.14.36c.16-.07.27-.03.26.1.17-.2.25-.64.05-.76"/></g><g><path fill="#06209f" d="M18.3 14.7c0-.22-.17-.4-.4-.4-.2 0-.4.18-.4.4 0 .22.2.4.4.4.23 0 .4-.18.4-.4"/></g><g><path fill="#06209f" d="M17.82 18.23l-1.86 2s-.3-2.3.6-2.92c.9-.6 1.26.93 1.26.93"/></g><g><path fill="#fff" d="M16.85 19.26l-.4.45s-.22-1.78.68-2.4c-.43.9-.28 1.96-.28 1.96"/></g><g><path fill="#06209f" d="M17.82 17.4l-2.55 1.44s-.12-1.48.32-2.2c.44-.72 2.08-.76 2.3-.06.23.7-.08.82-.08.82"/></g><g><path fill="#fff" d="M16.2 18.32l-.48.27s-.3-3 1.97-2.3c-1.5.06-1.5 2.02-1.5 2.02"/></g><g><path fill="#06209f" d="M18 18.23l1.85 2s.3-2.3-.6-2.92c-.9-.6-1.26.93-1.26.93"/></g><g><path fill="#fff" d="M18.96 19.26l.4.45s.22-1.78-.68-2.4c.43.9.28 1.96.28 1.96"/></g><g><path fill="#06209f" d="M18 17.4l2.54 1.44s.12-1.48-.32-2.2c-.45-.72-2.1-.76-2.32-.06-.22.7.1.82.1.82"/></g><g><path fill="#fff" d="M19.62 18.32l.48.27s.28-3-1.98-2.3c1.5.06 1.5 2.02 1.5 2.02"/></g><g><path fill="#ffcc01" d="M17.82 20.7l-2.47-4.26h4.95l-2.48 4.26z"/></g><g><path fill="#fff" d="M15.7 16.64l2.12 3.66 2.13-3.66H15.7z"/></g><g><path fill="#017e93" d="M16.3 17.7l-.6-1.06h4.25l-.6 1.05H16.3z"/></g><g><path fill="#ffcc01" d="M16.1 17.17s.7.97.96.97.4-.3.4-.3.1.16.23.16c.14 0 .2-.16.2-.16s.1.16.17.13c.06-.03.27-.28.27-.28s.06.1.2.14c.14.03.23-.15.23-.15s.14.28.17.14c.04-.15.55-.67.55-.67h-3.4z"/></g><g><path fill="#e60000" d="M18.07 18.76c0-.1-.08-.18-.2-.18-.1 0-.18.08-.18.18 0 .1.08.2.18.2.1 0 .2-.1.2-.2"/></g><g><path fill="#ffcc01" d="M14 19.76c-.25-.5-.4-1.06-.46-1.65h.5c.05.5.2 1 .4 1.45l-.44.2z"/></g><g><path fill="#ffcc01" d="M18.76 21.62c.63-.13 1.2-.43 1.68-.83l.34.35c-.55.46-1.2.8-1.9.96l-.12-.48z"/></g><g><path fill="#ffcc01" d="M21.2 20c.43-.64.68-1.4.68-2.23 0-.15-.02-.3-.04-.44l.5-.1c0 .18.04.35.04.54 0 .92-.28 1.78-.77 2.5l-.4-.28z"/></g><g><path fill="#ffcc01" d="M16.22 14.24c-1.18.58-2.02 1.73-2.17 3.1l-.5-.06c.18-1.54 1.13-2.84 2.47-3.5l.2.46z"/></g><g><path fill="#ffcc01" d="M14.9 20.22c.7.9 1.8 1.48 3.05 1.48.02 0 .05 0 .07 0 0 .17.02.34.03.5-.03 0-.07 0-.1 0-1.42 0-2.66-.67-3.47-1.7.12-.1.26-.18.4-.28"/></g><g><path fill="#ffcc01" d="M21.7 16.6c-.34-1.06-1.1-1.92-2.08-2.4l.2-.44c1.1.52 1.96 1.5 2.34 2.68l-.47.15z"/></g></g></g></g></svg>