<svg xmlns="http://www.w3.org/2000/svg" viewBox="0 0 45 45" enable-background="new 0 0 45 45"><defs><clipPath id="a"><path d="M0 36h36V0H0v36z"/></clipPath></defs><g><g><g clip-path="url(#a)" transform="matrix(1.25 0 0 -1.25 0 45)"><g><path fill="#ce1126" d="M36 9c0-2.2-1.8-4-4-4H4C1.8 5 0 6.8 0 9v18c0 2.2 1.8 4 4 4h28c2.2 0 4-1.8 4-4V9z"/></g><g><path fill="#0038a8" d="M32 31H4c-2.2 0-4-1.8-4-4v-9h36v9c0 2.2-1.8 4-4 4"/></g><g><path fill="#eee" d="M1.3 6.05l17.73 11.9-17.7 12C.53 29.24 0 28.2 0 27V9c0-1.17.5-2.2 1.3-2.95"/></g><g><path fill="#fcd116" d="M16.07 19.48l.04-1.15 1.13-.3-1.1-.4.08-1.14-.7.9-1.08-.42.65.95-.73.9 1.1-.32.63.98z"/></g><g><path fill="#fcd116" d="M1.6 28.02l.87-.76.98.6L3 26.8l.87-.74-1.15.1-.43-1.06-.27 1.13-1.15.08 1 .6-.28 1.12z"/></g><g><path fill="#fcd116" d="M2.03 10.8l.58-1 1.13.26-.77-.85.6-.98-1.06.47-.76-.88.13 1.15-1.06.45 1.13.24.1 1.14z"/></g><g><path fill="#fcd116" d="M10 18c0-1.66-1.34-3-3-3s-3 1.34-3 3 1.34 3 3 3 3-1.34 3-3"/></g><g><path fill="#fcd116" d="M7.6 23.4l-.16-2.64-.25.03.08 3.07-.28.18-.28-.18.1-3.08-.26-.04-.15 2.64-.35-.22.33-2.7h1.24l.33 2.7-.35.22z"/></g><g><path fill="#fcd116" d="M6.4 12.6l.16 2.64.25-.03-.08-3.07.28-.18.28.18-.1 3.08.26.04.15-2.64.35.22-.33 2.7H6.38l-.33-2.7.35-.22z"/></g><g><path fill="#fcd116" d="M2.76 14.6l1.98 1.76.15-.2-2.24-2.1.06-.34.33-.06 2.1 2.23.2-.16-1.75-1.98.4-.1 1.68 2.14-.44.44-.44.44L2.66 15l.1-.4z"/></g><g><path fill="#fcd116" d="M11.24 21.4l-1.98-1.76-.15.2 2.24 2.1-.06.34-.33.06-2.1-2.23-.2.16 1.75 1.98-.4.1-1.68-2.14.44-.44.44-.44L11.34 21l-.1.4z"/></g><g><path fill="#fcd116" d="M1.6 18.6l2.65-.16-.04-.25-3.07.08L.95 18l.18-.28 3.08.1.05-.26-2.65-.15.22-.35 2.7.33v1.24l-2.7.33-.22-.35z"/></g><g><path fill="#fcd116" d="M12.4 17.4l-2.65.16.04.25 3.07-.08.18.28-.18.28-3.08-.1-.05.26 2.65.15-.22.35-2.7-.33v-1.24l2.7-.33.22.35z"/></g><g><path fill="#fcd116" d="M3.6 22.24l1.76-1.98-.2-.15-2.1 2.24-.34-.06-.06-.33 2.23-2.1-.16-.2-1.98 1.75-.1-.4 2.14-1.68.44.44.44.44L4 22.34l-.4-.1z"/></g><g><path fill="#fcd116" d="M10.4 13.76l-1.76 1.98.2.15 2.1-2.24.34.06.06.33-2.23 2.1.16.2 1.98-1.75.1.4-2.14 1.68-.44-.44-.44-.44L10 13.66l.4.1z"/></g></g></g></g></svg>