<svg xmlns="http://www.w3.org/2000/svg" viewBox="0 0 45 45" enable-background="new 0 0 45 45"><defs><clipPath id="a"><path d="M0 36h36V0H0v36z"/></clipPath><clipPath id="b"><path d="M4 31c-2.2 0-4-1.8-4-4v-9h19v13H4z"/></clipPath><clipPath id="c"><path d="M0 36h36V0H0v36z"/></clipPath></defs><g><g><g clip-path="url(#a)" transform="matrix(1.25 0 0 -1.25 0 45)"><g><path fill="#ffe150" d="M36 9c0-2.2-1.8-4-4-4H4C1.8 5 0 6.8 0 9v18c0 2.2 1.8 4 4 4h28c2.2 0 4-1.8 4-4V9z"/></g><g><path fill="#00247d" d="M19 31H4c-2.2 0-4-1.8-4-4v-9h19v13z"/></g><g><path fill="#eee" d="M19 18v2.03L11.9 25H6.67l10-7H19z"/></g><g><path fill="#cf1b2b" d="M19 19.42L11.03 25H9.3l9.7-6.8v1.22z"/></g><g><path fill="#eee" d="M8.1 25L0 19.23V18h3.33l10 7H8.1z"/></g><g><path fill="#cf1b2b" d="M10.7 25L.74 18h1.73l10 7H10.7z"/></g><g><path fill="#eee" d="M16.67 31l-10-7h5.23l7.1 4.97V31h-2.33z"/></g><g><path fill="#cf1b2b" d="M17.54 31l-10-7H9.3l9.7 6.8v.2h-1.46z"/></g></g></g><g><g clip-path="url(#b)" transform="matrix(1.25 0 0 -1.25 12.5 15)"><g><path fill="#eee" d="M0 0h3.33l-10 7H-9l-.63-1.6L0-1.32V0z"/></g><g><path fill="#cf1b2b" d="M0 0h.7L-9 6.8l-.5-.86L0-.72V0z"/></g></g></g><g><g clip-path="url(#c)" transform="matrix(1.25 0 0 -1.25 0 45)"><g><path fill="#eee" d="M19 27h-7v4H7v-4H0v-5h7v-4h5v4h7v5z"/></g><path fill="#cf1b2b" d="M11 18H8v13h3V18z"/><path fill="#cf1b2b" d="M19 23H0v3h19v-3z"/><g><path fill="#004a77" d="M12 24.5c0-1.38-1.12-2.5-2.5-2.5S7 23.12 7 24.5 8.12 27 9.5 27s2.5-1.12 2.5-2.5"/></g><g><path fill="#ffe150" d="M9.5 27.03l.6-1.6 1.82-.03-1.45-1.23.53-1.74-1.5 1.04L8 22.43l.53 1.74-1.45 1.23 1.82.03.6 1.6z"/></g><g><path fill="#ffe150" d="M3.82 25.5l.25-.7h.75l-.6-.46.22-.72-.62.43-.6-.43.2.72-.6.45h.76l.24.7z"/></g><g><path fill="#ffe150" d="M15.18 25.5l.24-.7h.75l-.6-.46.22-.72-.62.43-.62-.43.22.72-.6.45h.75l.25.7z"/></g><g><path fill="#ffe150" d="M9.5 30.18l.25-.7.74-.02-.6-.46.2-.7-.6.42-.6-.43.2.7-.6.46h.75l.25.72z"/></g><g><path fill="#ffe150" d="M9.5 20.7l.25-.7h.74l-.6-.46.2-.72-.6.43-.6-.43.2.72-.6.45h.75l.25.7z"/></g></g></g></g></svg>