<svg xmlns="http://www.w3.org/2000/svg" viewBox="0 0 45 45" enable-background="new 0 0 45 45"><defs><clipPath id="a"><path d="M4 31c-2.2 0-4-1.8-4-4V9c0-2.2 1.8-4 4-4h28c2.2 0 4 1.8 4 4v18c0 2.2-1.8 4-4 4H4z"/></clipPath></defs><g><g><g clip-path="url(#a)" transform="matrix(1.25 0 0 -1.25 0 45)"><path fill="#024fa2" d="M0 27h36v4H0v-4z"/><path fill="#eee" d="M0 26h36v1H0v-1z"/><path fill="#024fa2" d="M0 9h36V5H0v4z"/><path fill="#eee" d="M0 10h36V9H0v1z"/><g><path fill="#ed1c27" d="M13.28 23.78c3.2 0 5.78-2.6 5.78-5.78 0-3.2-2.6-5.78-5.78-5.78-3.2 0-5.78 2.6-5.78 5.78 0 3.2 2.6 5.78 5.78 5.78M0 10h36v16H0V10z"/></g><g><path fill="#fff" d="M12.02 19.73l1.26 3.87 1.25-3.87h4.07l-3.3-2.4 1.27-3.86-3.3 2.4-3.28-2.4 1.24 3.87-3.3 2.4h4.08zm1.26-7.5c3.2 0 5.78 2.58 5.78 5.77 0 3.2-2.6 5.78-5.78 5.78-3.2 0-5.78-2.6-5.78-5.78 0-3.2 2.6-5.78 5.78-5.78"/></g><g><path fill="#ed1c27" d="M10 13.47l3.28 2.4 3.3-2.4-1.27 3.87 3.3 2.4h-4.07l-1.25 3.86-1.26-3.87H7.95l3.3-2.4-1.26-3.86z"/></g></g></g></g></svg>