<svg xmlns="http://www.w3.org/2000/svg" viewBox="0 0 45 45" enable-background="new 0 0 45 45"><defs><clipPath id="a"><path d="M0 36h36V0H0v36z"/></clipPath></defs><g><g><g clip-path="url(#a)" transform="matrix(1.25 0 0 -1.25 0 45)"><g><path fill="#003893" d="M36 9c0-2.2-1.8-4-4-4H4C1.8 5 0 6.8 0 9v18c0 2.2 1.8 4 4 4h28c2.2 0 4-1.8 4-4V9z"/></g><g><path fill="#f4900c" d="M34.6 30.02L.82 6.58c.03-.03.06-.06.08-.1L36 25v2c0 1.2-.55 2.3-1.4 3.02"/></g><g><path fill="#eee" d="M1 6.37L36 19v6L.9 6.48c.05-.04.08-.08.1-.1"/></g><g><path fill="#fff" d="M9 29.08l.3-5.15 1.03 2.16-.44-2.36 1.62 1.74-1.14-2.1 2.1 1.14-1.74-1.63 2.34.43-2.15-1.02 5.15-.3-5.15-.3 2.15-1.03-2.34.44 1.73-1.63-2.1 1.15 1.15-2.1-1.63 1.74.43-2.35-1.02 2.17-.3-5.15-.3 5.15-1.03-2.16.44 2.36-1.62-1.74 1.14 2.1-2.1-1.15 1.74 1.64-2.34-.43 2.15 1.02-5.15.3 5.15.3-2.15 1.03 2.34-.44-1.73 1.62 2.1-1.14-1.15 2.1 1.63-1.74-.43 2.35 1.02-2.17.3 5.15z"/></g></g></g></g></svg>