<svg xmlns="http://www.w3.org/2000/svg" viewBox="0 0 45 45" enable-background="new 0 0 45 45"><defs><clipPath id="a"><path d="M0 36h36V0H0v36z"/></clipPath></defs><g><g><g clip-path="url(#a)" transform="matrix(1.25 0 0 -1.25 0 45)"><g><path fill="#009543" d="M36 9c0-2.2-1.8-4-4-4H4C1.8 5 0 6.8 0 9v18c0 2.2 1.8 4 4 4h28c2.2 0 4-1.8 4-4V9z"/></g><path fill="#ed4135" d="M36 13H0v10h36V13z"/><g><path fill="#0035ad" d="M32 31H4c-2.2 0-4-1.8-4-4v-4h36v4c0 2.2-1.8 4-4 4"/></g><g><path fill="#141414" d="M22.4 18c0-5.2-4.2-9.4-9.4-9.4S3.6 12.8 3.6 18s4.2 9.4 9.4 9.4 9.4-4.2 9.4-9.4"/></g><g><path fill="#fae600" d="M22 18c0-4.97-4.03-9-9-9s-9 4.03-9 9 4.03 9 9 9 9-4.03 9-9"/></g><path fill="#141414" d="M13.2 9h-.33v18h.32V9z"/><g><path fill="#141414" d="M14.25 21.28c0-.67-.55-1.22-1.22-1.22-.67 0-1.22.55-1.22 1.22 0 .67.56 1.22 1.23 1.22.67 0 1.22-.55 1.22-1.22"/></g><g><path fill="#141414" d="M14.03 13.73c0-.78-.45-1.42-1-1.42s-1 .65-1 1.43c0 .8.45 1.43 1 1.43s1-.64 1-1.43"/></g><g><path fill="#141414" d="M14.25 17.72c0-.4-.55-.74-1.22-.74-.67 0-1.22.33-1.22.74 0 .4.56.73 1.23.73.67 0 1.22-.33 1.22-.73"/></g><g><path fill="#141414" d="M11.7 23s-.14.88.1 1.25c.26.38.92.72 1.45.84.53.12 1.25.9 1.25.9s-.1-1.16-.97-1.88c-.87-.7-1.84-1.12-1.84-1.12"/></g><g><path fill="#141414" d="M10.92 21.22s.5-.3.6-.78c.14-.47.48-.97 1.48-.97v-.56s-.84-.05-1.3.14c-.48.18-.6 1.06-.6 1.37 0 .32-.18.82-.18.82"/></g><g><path fill="#141414" d="M15.1 21.22s-.47-.3-.6-.78c-.12-.47-.47-.97-1.47-.97v-.56s.85-.05 1.3.14c.48.18.6 1.06.6 1.37 0 .32.18.82.18.82"/></g><g><path fill="#141414" d="M14.94 14.8c0 .32-.14 1.2-.6 1.4-.48.17-1.34.25-1.34.25s-.84-.08-1.3-.26c-.48-.2-.6-1.08-.6-1.4 0-.3-.18-1.8-.18-1.8s.66 1.1.78 1.57c.13.47.64 1.05 1.3 1.05.67 0 1.2-.56 1.33-1.03.12-.48.77-1.6.77-1.6s-.16 1.5-.16 1.8"/></g><g><path fill="#141414" d="M13 12V9s-.88-.1-2.13.23c-1.24.33-1.48.46-1.48.46s1.26 1.26 1.82 1.74C11.87 12 13 12 13 12"/></g><g><path fill="#141414" d="M13 12V9s.88-.1 2.13.23c1.24.33 1.48.46 1.48.46s-1.26 1.26-1.82 1.74C14.13 12 13 12 13 12"/></g></g></g></g></svg>