<svg xmlns="http://www.w3.org/2000/svg" viewBox="0 0 45 45" enable-background="new 0 0 45 45"><defs><clipPath id="a"><path d="M0 36h36V0H0v36z"/></clipPath></defs><g><g><g clip-path="url(#a)" transform="matrix(1.25 0 0 -1.25 0 45)"><g><path fill="#060" d="M36 9c0-2.2-1.8-4-4-4H4C1.8 5 0 6.8 0 9v18c0 2.2 1.8 4 4 4h28c2.2 0 4-1.8 4-4V9z"/></g><path fill="#bb1600" d="M36 13H0v10h36V13z"/><g><path fill="#141414" d="M32 31H4c-2.2 0-4-1.8-4-4v-4h36v4c0 2.2-1.8 4-4 4"/></g><path fill="#eee" d="M36 22H0v1h36v-1z"/><path fill="#eee" d="M36 13H0v1h36v-1z"/><g><path fill="#fff" d="M13.78 10.62l7.28 12.23c.54-.15.93.53 1.3 1.6.4 1.24.75 2.08.68 2.12-.07.04-.65-.66-1.55-1.62-.78-.83-1.2-1.5-.77-1.9L13.45 10.8c-.05-.08.28-.28.33-.18"/></g><g><path fill="none" stroke="#141414" stroke-width=".06" d="M13.78 10.62l7.28 12.23c.54-.15.93.53 1.3 1.6.4 1.24.75 2.08.68 2.12-.07.04-.65-.66-1.55-1.62-.78-.83-1.2-1.5-.77-1.9L13.45 10.8c-.05-.08.28-.28.33-.18z"/></g><g><path fill="#fff" d="M22.22 10.62l-7.28 12.23c-.54-.15-.94.53-1.3 1.6-.4 1.24-.75 2.08-.68 2.12.07.04.65-.66 1.54-1.62.78-.83 1.2-1.5.77-1.9l7.28-12.24c.05-.08-.28-.28-.33-.18"/></g><g><path fill="none" stroke="#141414" stroke-width=".06" d="M22.22 10.62l-7.28 12.23c-.54-.15-.94.53-1.3 1.6-.4 1.24-.75 2.08-.68 2.12.07.04.65-.66 1.54-1.62.78-.83 1.2-1.5.77-1.9l7.28-12.24c.05-.08-.28-.28-.33-.18z"/></g><g><path fill="#bb1600" d="M18 10.52c2.5 1.87 3.7 4.36 3.7 7.5 0 3.14-1.2 5.63-3.7 7.5-2.5-1.87-3.7-4.36-3.7-7.5 0-3.14 1.2-5.63 3.7-7.5"/></g><g><path fill="none" stroke="#141414" stroke-width=".06" d="M18 10.52c2.5 1.87 3.7 4.36 3.7 7.5 0 3.14-1.2 5.63-3.7 7.5-2.5-1.87-3.7-4.36-3.7-7.5 0-3.14 1.2-5.63 3.7-7.5z"/></g><g><path fill="#141414" d="M15.1 14.05c.53 1.18.8 2.5.8 3.96 0 1.48-.27 2.8-.8 3.98-.53-1.2-.8-2.5-.8-3.97 0-1.46.27-2.77.8-3.95"/></g><g><path fill="none" stroke="#141414" stroke-width=".02" d="M15.1 14.05c.53 1.18.8 2.5.8 3.96 0 1.48-.27 2.8-.8 3.98-.53-1.2-.8-2.5-.8-3.97 0-1.46.27-2.77.8-3.95z"/></g><g><path fill="#141414" d="M20.9 14.05c-.53 1.18-.8 2.5-.8 3.96 0 1.48.27 2.8.8 3.98.54-1.2.8-2.5.8-3.97 0-1.46-.26-2.77-.8-3.95"/></g><g><path fill="none" stroke="#141414" stroke-width=".02" d="M20.9 14.05c-.53 1.18-.8 2.5-.8 3.96 0 1.48.27 2.8.8 3.98.54-1.2.8-2.5.8-3.97 0-1.46-.26-2.77-.8-3.95z"/></g><g><path fill="#fff" d="M18 17.07c.3 0 .55.43.55.95s-.24.95-.55.95c-.3 0-.55-.43-.55-.95s.24-.95.55-.95"/></g><g><path fill="#fff" d="M17.77 19.57c-.5.74-.75 1.68-.75 2.82s.25 2.08.75 2.8v-5.63z"/></g><g><path fill="#fff" d="M18.23 19.57c.5.74.75 1.68.75 2.82s-.25 2.08-.75 2.8v-5.63z"/></g><g><path fill="#fff" d="M17.77 16.47c-.5-.74-.75-1.68-.75-2.82 0-1.15.25-2.08.75-2.82v5.64z"/></g><g><path fill="#fff" d="M18.23 16.47c.5-.74.75-1.68.75-2.82 0-1.15-.25-2.08-.75-2.82v5.64z"/></g></g></g></g></svg>