<svg xmlns="http://www.w3.org/2000/svg" viewBox="0 0 45 45" enable-background="new 0 0 45 45"><defs><clipPath id="a"><path d="M0 36h36V0H0v36z"/></clipPath></defs><g><g><g clip-path="url(#a)" transform="matrix(1.25 0 0 -1.25 0 45)"><g><path fill="#eee" d="M36 9c0-2.2-1.8-4-4-4H4C1.8 5 0 6.8 0 9v18c0 2.2 1.8 4 4 4h28c2.2 0 4-1.8 4-4V9z"/></g><g><path fill="#ce1126" d="M32 31H4c-2.2 0-4-1.8-4-4v-7.96c.4.22.85.4 1.64.4 1.8 0 1.8-1 3.63-1 1.82 0 1.82 1 3.64 1 1.83 0 1.83-1 3.64-1 1.82 0 1.82 1 3.64 1s1.82-1 3.64-1 1.82 1 3.63 1c1.82 0 1.82-1 3.64-1 1.8 0 1.8 1 3.63 1 1.82 0 1.82-1 3.63-1 .8 0 1.24.23 1.64.44V27c0 2.2-1.8 4-4 4"/></g><g><path fill="#ffac33" d="M20.88 18.26c.27.38.66.38 1.12.14-.06.6-.8 1-1.12 1.05.13.45.56.67 1.08.6-.27.56-1.15.58-1.48.5-.02.48.3.84.8.96-.42.43-1.26.14-1.54-.03-.18.43 0 .88.44 1.17-.55.25-1.24-.3-1.45-.58-.32.35-.3.84.02 1.26-.6.04-1.06-.73-1.17-1.05-.4.2-.55.68-.4 1.18-.58-.17-.75-1.05-.74-1.4-.46.07-.76.46-.78.98-.5-.36-.35-1.24-.23-1.56-.45-.1-.86.16-1.06.64-.34-.5.1-1.28.3-1.54-.38-.25-.85-.15-1.2.24-.15-.6.52-1.2.8-1.35-.27-.38-.43-.65-.9-.4.07-.63.58-.73.9-.78h6.6z"/></g><g><path fill="#fff100" d="M19.92 18.86l2.27.82h-2.42l1.85 1.55-2.25-.85 1.2 2.12-1.83-1.58.43 2.4-1.2-2.12-.4 2.4-.4-2.4-1.2 2.12.43-2.4-1.82 1.58 1.2-2.12-2.25.85 1.85-1.56h-2.4l2.26-.8h4.68z"/></g><g><path fill="#fff100" d="M17.58 16.48c1.3 0 2.34 1.06 2.34 2.38 0 1.3-1.05 2.37-2.34 2.37-1.3 0-2.34-1.06-2.34-2.37 0-1.32 1.05-2.38 2.34-2.38"/></g><g><path fill="none" stroke="#f15a29" stroke-width=".06" d="M17.58 16.48c1.3 0 2.34 1.06 2.34 2.38 0 1.3-1.05 2.37-2.34 2.37-1.3 0-2.34-1.06-2.34-2.37 0-1.32 1.05-2.38 2.34-2.38z"/></g><g><path fill="#ffac33" d="M17.44 26.5c-.2.25-.42.52-.7.64-.28.13-.8.2-1.33.07-.6-.15-1.32-.4-1.9-.23-.1.03-.18-.08.04-.2.22-.13.77-.16 1.33-.1.4.06.9.04 1.1-.04.24-.1.68-.42.87-.75l.6.62z"/></g><g><path fill="#ffac33" d="M18.67 25.12c.17.07.55.1.7.07.2-.04.5.06.6.1.15.08-.02.2-.68.17-.44-.03-.6-.22-.63-.35"/></g><g><path fill="#fcd116" d="M18.24 24.83c.4.15.77.66 1.44.64.63 0 .97.2.42.34-.56.15-.98.1-1.35.02-.48-.1-.98.38-1.7.12-.3-.1-.7.02-.9.2-.2.2-.48.23-.7.02-.03-.04-.08-.1-.2-.1-.23 0-.58 0-.6-.38.13.15.2.17.6.17.05 0 .12-.03.18-.13.08-.14.27-.26.47-.26.2 0 .27-.13.4-.27.36-.4 1.18-.67 1.94-.37"/></g><g><path fill="#fcd116" d="M16.63 25.78c-.02-.2.34-.4.45-.44.15-.06.28-.02.3.13.12-.1.3 0 .3.1.1-.04.24.02.26.17.13-.04.25.03.24.12.14-.05.25 0 .27.1.1-.05.25 0 .28.1.1-.03.24.03.28.12.13-.04.27 0 .32.1.1-.05.24 0 .26.13.1-.05.22-.04.25.1.1-.1.24-.03.24.1.05-.02.15 0 .16.08.2 0 .46 0 .46.15.16 0 .4.07.4.25.12 0 .27.1.3.24.04.1-.1.18-.3.2-1.35.05-1.7-.22-2.35-.28-.6-.05-.98-.23-1.28-.6-.27-.3-.54-.6-.7-.7-.08-.05-.14-.12-.14-.16"/></g><path fill="#eee" d="M20 16h-5v2h5v-2z"/><g><path fill="#00247d" d="M35.93 8.27c-.4-.2-.82-.32-1.57-.32-1.8 0-1.8 1-3.63 1-1.82 0-1.82-1-3.7-1-1.76 0-1.76 1-3.6 1-1.8 0-1.8-1-3.6-1-1.83 0-1.83 1-3.65 1-1.82 0-1.82-1-3.63-1-1.82 0-1.82 1-3.64 1-1.8 0-1.8-1-3.63-1-1.82 0-1.82 1-3.63 1-.77 0-1.2-.2-1.6-.4C.27 6.55 1.94 5 4 5h28c1.96 0 3.58 1.4 3.93 3.27"/></g><g><path fill="#00247d" d="M36 10.62v1.94c-.4-.23-.85-.37-1.64-.37-1.8 0-1.8 1-3.63 1-1.82 0-1.82-1-3.7-1-1.76 0-1.76 1-3.6 1-1.8 0-1.8-1-3.6-1-1.83 0-1.83 1-3.65 1-1.82 0-1.82-1-3.63-1-1.82 0-1.82 1-3.64 1-1.8 0-1.8-1-3.63-1-1.8 0-1.8 1-3.63 1-.8 0-1.24-.2-1.64-.4v-2c.4.2.85.4 1.64.4 1.82 0 1.82-1 3.63-1 1.82 0 1.82 1 3.64 1 1.83 0 1.83-1 3.65-1 1.8 0 1.8 1 3.63 1 1.82 0 1.82-1 3.64-1s1.82 1 3.63 1c1.82 0 1.82-1 3.64-1 1.8 0 1.8 1 3.63 1 2.37 0 2.32-1 3.63-1 .8 0 1.24.2 1.64.42"/></g><g><path fill="#00247d" d="M36 14.87v1.95c-.4-.23-.85-.37-1.64-.37-1.8 0-1.8 1-3.63 1-1.82 0-1.82-1-3.7-1-1.76 0-1.76 1-3.6 1-1.8 0-1.8-1-3.6-1-1.83 0-1.83 1-3.65 1-1.82 0-1.82-1-3.63-1-1.82 0-1.82 1-3.64 1-1.8 0-1.8-1-3.63-1-1.8 0-1.8 1-3.63 1-.8 0-1.24-.2-1.64-.4v-2c.4.2.85.4 1.64.4 1.82 0 1.82-1 3.63-1 1.82 0 1.82 1 3.64 1 1.83 0 1.83-1 3.65-1 1.8 0 1.8 1 3.63 1 1.82 0 1.82-1 3.64-1s1.82 1 3.63 1c1.82 0 1.82-1 3.64-1 1.8 0 1.8 1 3.63 1 1.82 0 1.82-.97 3.63-.97.8 0 1.24.2 1.64.4"/></g><g><path fill="#eee" d="M36 16.88v1.97c-.4-.22-.85-.43-1.64-.43-1.8 0-1.8 1.07-3.63 1.07-1.82 0-1.82-1-3.7-1-1.76 0-1.76 1-3.6 1-1.8 0-1.8-1-3.6-1-1.83 0-1.83 1-3.65 1-1.82 0-1.82-1-3.63-1-1.82 0-1.82 1-3.64 1-1.8 0-1.8-1-3.63-1-1.8 0-1.8 1-3.63 1-.8 0-1.24-.2-1.64-.42v-2c.4.22.85.4 1.64.4 1.82 0 1.82-1 3.63-1 1.82 0 1.82 1 3.64 1 1.83 0 1.83-1 3.65-1 1.8 0 1.8 1 3.63 1 1.82 0 1.82-1 3.64-1s1.82 1 3.63 1c1.82 0 1.82-1 3.64-1 1.8 0 1.8 1 3.63 1 1.82 0 1.82-.98 3.63-.98.8 0 1.24.17 1.64.38"/></g></g></g></g></svg>