<svg xmlns="http://www.w3.org/2000/svg" viewBox="0 0 45 45" enable-background="new 0 0 45 45"><defs><clipPath id="a"><path d="M0 36h36V0H0v36z"/></clipPath><clipPath id="b"><path d="M4 31c-2.2 0-4-1.8-4-4V9c0-2.2 1.8-4 4-4h28c2.2 0 4 1.8 4 4v18c0 2.2-1.8 4-4 4H4z"/></clipPath><clipPath id="c"><path d="M0 36h36V0H0v36z"/></clipPath></defs><g><g><g clip-path="url(#a)" transform="matrix(1.25 0 0 -1.25 0 45)"><g><path fill="#eee" d="M36 9c0-2.2-1.8-4-4-4H4C1.8 5 0 6.8 0 9v18c0 2.2 1.8 4 4 4h28c2.2 0 4-1.8 4-4V9z"/></g></g></g><g><g clip-path="url(#b)" transform="matrix(1.25 0 0 -1.25 0 45)"><path fill="#ffe000" d="M18 5H0v26h18V5z"/></g></g><g><g clip-path="url(#c)" transform="matrix(1.25 0 0 -1.25 0 45)"><g><path fill="#a3a3a3" d="M31.34 21.77l.32.6-.67-.3.34-.3z"/></g><g><path fill="#a3a3a3" d="M31.37 22.32c0-.14.1-.25.24-.25.15 0 .26.1.26.25 0 .13-.1.24-.25.24-.12 0-.23-.1-.23-.24"/></g><g><path fill="#a3a3a3" d="M30.8 22.17c-.13-.1-.07-.36.12-.55.2-.18.43-.24.55-.13.12.1.06.36-.13.54-.2.2-.44.25-.55.13"/></g><g><path fill="#ce9d0a" d="M25.08 16.44c.38-.36.7.1 1.3.64.56.5 4.2 3.87 4.58 4.2.4.36.03.88-.42.45-.45-.42-4.8-4.06-5.13-4.36-.3-.3-.74-.53-.32-.93"/></g><g><path fill="#ce9d0a" d="M30.87 21.44l.43-.5-.2-.17.2-.2.22.2.32-.35v-.34l-.6-.52-.37.24v.28h-.3v-.27h.16l.14-.16v-.36l-.53-.44-1.1 1.05 1.63 1.54z"/></g><g><path fill="#ce9d0a" d="M23.13 15.34c-.26 0-.48.22-.48.48 0 .27.22.5.5.5.26 0 .48-.23.48-.5 0 0 .02 0 .04 0 0 .27.22.5.5.5.26 0 .48-.23.48-.5 0-.26-.22-.48-.5-.48.28 0 .5-.22.5-.5 0-.26-.22-.48-.5-.48-.26 0-.48.22-.48.5-.02 0-.03 0-.04 0 0-.28-.22-.5-.5-.5-.26 0-.48.22-.48.5 0 .26.22.47.48.48m-.95 0c0-.82.67-1.5 1.5-1.5.8 0 1.48.68 1.48 1.5s-.67 1.5-1.5 1.5c-.8 0-1.48-.68-1.48-1.5"/></g><g><path fill="#a3a3a3" d="M24.64 16.75c-.1-.1-.06-.36.13-.55.2-.18.44-.24.55-.13.12.12.06.36-.13.55-.2.2-.44.25-.56.13"/></g><g><path fill="#a3a3a3" d="M22.25 16.57c0-.15.1-.26.25-.26.14 0 .26.12.26.27 0 .14-.12.25-.26.25s-.25-.1-.25-.25"/></g><g><path fill="#a3a3a3" d="M24.47 14.1c0-.14.1-.25.26-.25.14 0 .25.1.25.25s-.1.26-.25.26-.26-.1-.26-.26"/></g><g><path fill="#a3a3a3" d="M22.18 14.2c0-.15.1-.27.26-.27.14 0 .25.12.25.26 0 .13-.12.24-.26.24-.15 0-.26-.1-.26-.25"/></g><g><path fill="#b5b5b5" d="M29.3 18.92c.13.1.23.2.3.37.3.64-.07 1.7-.3 2.1-.27.5-.1.8.03.97-.03 0-.08.02-.13.02-.1 0-.2-.06-.3-.16-.3-.32-.16-.73.24-1.67.3-.7.43-1.22.15-1.65"/></g><g><path fill="#b5b5b5" d="M28.73 21.96c.14.2.36.32.63.32.22 0 .45-.08.64-.22l.28.42c-.13.1-.42.3-.76.3-.1 0-.18 0-.26-.03-.38-.14-.5-.5-.53-.8"/></g><g><path fill="#ce9d0a" d="M22.7 21.77l-.32.6.67-.3-.35-.3z"/></g><g><path fill="#ce9d0a" d="M22.67 22.32c0-.14-.1-.25-.24-.25-.14 0-.25.1-.25.25 0 .13.1.24.25.24.13 0 .24-.1.24-.24"/></g><g><path fill="#ce9d0a" d="M23.25 22.17c.1-.1.06-.36-.13-.55-.2-.18-.44-.24-.55-.13-.12.1-.06.36.13.54.2.2.43.25.55.13"/></g><g><path fill="#a3a3a3" d="M28.96 16.44c-.38-.36-.7.1-1.3.64-.56.5-4.2 3.87-4.6 4.2-.37.36 0 .88.44.45.45-.42 4.8-4.06 5.13-4.36.32-.3.75-.53.33-.93"/></g><g><path fill="#a3a3a3" d="M23.17 21.44l-.44-.5.22-.17-.22-.2-.2.2-.33-.35v-.34l.6-.52.37.24v.28h.3v-.27h-.16l-.13-.16v-.36l.53-.44 1.1 1.05-1.63 1.54z"/></g><g><path fill="#a3a3a3" d="M31.4 14.85c0-.27-.23-.5-.5-.5s-.5.23-.5.5c0 0-.02 0-.03 0 0-.27-.22-.5-.5-.5-.26 0-.48.23-.48.5s.2.48.47.5c-.26 0-.48.2-.48.47 0 .27.2.5.48.5.27 0 .5-.23.5-.5 0 0 .02 0 .03 0 0 .27.23.5.5.5s.5-.23.5-.5c0-.26-.23-.48-.5-.48.27 0 .5-.22.5-.5m-1.03 2c-.82 0-1.5-.68-1.5-1.5s.68-1.5 1.5-1.5 1.5.68 1.5 1.5-.68 1.5-1.5 1.5"/></g><g><path fill="#ce9d0a" d="M29.4 16.75c.1-.1.05-.36-.13-.55-.2-.18-.44-.24-.55-.13-.12.12-.06.36.13.55.2.2.43.25.55.13"/></g><g><path fill="#ce9d0a" d="M31.8 16.57c0-.15-.12-.26-.26-.26s-.26.12-.26.27c0 .14.12.25.26.25s.25-.1.25-.25"/></g><g><path fill="#ce9d0a" d="M29.57 14.1c0-.14-.12-.25-.26-.25-.13 0-.24.1-.24.25s.1.26.25.26.27-.1.27-.26"/></g><g><path fill="#ce9d0a" d="M31.86 14.2c0-.15-.1-.27-.26-.27-.14 0-.25.12-.25.26 0 .13.1.24.25.24s.26-.1.26-.25"/></g><g><path d="M28.44 22.28c0-1.47-.64-1.43-1.43-1.43-.78 0-1.42-.04-1.42 1.43s.64 3.05 1.43 3.05c.8 0 1.44-1.58 1.44-3.05"/></g><g><path fill="#fff" d="M26.95 20.95c-.43 0-.72.02-.93.17-.23.2-.34.55-.34 1.16 0 1.5.66 2.95 1.33 2.95.68 0 1.34-1.46 1.34-2.95 0-1.33-.54-1.33-1.2-1.33h-.2z"/></g><g><path fill="#ce9d0a" d="M27.76 21.96c-.5.14-.42.62-.75.62-.32 0-.24-.48-.74-.62-.5-.15-.74.08-.74.08l.23-.96s.42.36 1.26.36c.85 0 1.27-.36 1.27-.36l.23.96s-.25-.23-.74-.08"/></g><g><path fill="#ce9d0a" d="M27.84 23.23c-.56.15-.47.65-.83.65-.35 0-.26-.5-.82-.65-.55-.16-.83.08-.83.08l.26-1s.48.38 1.4.38c.94 0 1.4-.38 1.4-.38l.26 1s-.27-.23-.82-.07"/></g><g><path fill="#ce9d0a" d="M27.7 24.55c-.46.13-.38.56-.7.56-.3 0-.22-.42-.7-.55-.45-.12-.68.08-.68.08l.2-.85s.4.24 1.2.24c.77 0 1.17-.24 1.17-.24l.2.85s-.23-.2-.7-.08"/></g><g><path fill="#ce9d0a" d="M26.83 25.5c0-.15.08-.27.18-.27.1 0 .2.12.2.27 0 .15-.1.27-.2.27s-.17-.12-.17-.27"/></g><g><path fill="#ce9d0a" d="M26.56 25.8c0-.1.2-.2.45-.2.26 0 .46.1.46.2s-.2.18-.45.18c-.24 0-.44-.08-.44-.2"/></g><g><path fill="#ce9d0a" d="M26.83 26.06c0-.1.08-.18.18-.18.1 0 .2.08.2.18 0 .1-.1.2-.2.2s-.17-.1-.17-.2"/></g><g><path fill="#b5b5b5" d="M24.73 18.92c-.14.1-.24.2-.32.37-.28.64.1 1.7.3 2.1.3.5.12.8 0 .97.02 0 .07.02.12.02.1 0 .2-.06.3-.16.3-.32.16-.73-.24-1.67-.3-.7-.43-1.22-.15-1.65"/></g><g><path fill="#b5b5b5" d="M25.3 21.96c-.15.2-.37.32-.64.32-.22 0-.45-.08-.64-.22l-.28.42c.13.1.42.3.76.3.1 0 .18 0 .26-.03.38-.14.5-.5.53-.8"/></g><g><path fill="#fa0204" d="M27 19c.2-.15.26-.75.26-1.45v-5.5s.3-.07.2-.88c-.02-.23-.48-.2-.55 0-.07.2-.03.8.1.88v5.45c0 .8-.13 1.13-.17 1.28-.04.15.08.3.18.22"/></g><g><path fill="#fa0204" d="M28.9 15.2c-.2.14-.48.48-.7.8-.33.45-.4.75-.7 1.13-.32.37-1.14 1.15-1.33 1.12-.07 0-.15-.2-.08-.25.06-.06.3-.3.8-.7.52-.4.6-.83 1.03-1.46.4-.57.74-.97 1.05-1.02-.05.12-.07.25-.1.38"/></g><g><path fill="#fa0204" d="M27.88 18.45c-.18-.18-.75-.73-1.06-1.1-.3-.35-.7-1.2-1.04-1.6-.22-.25-.46-.46-.64-.6-.02-.13-.05-.26-.1-.38.25.08.6.3 1.05.95.6.9.9 1.55 1.2 1.8.3.25.4.32.58.5.17.17.18.6 0 .43"/></g><g><path fill="#fa0204" d="M26.64 17.72v-5.78c-.33-.27-.23-.7-.17-.93.06-.2.6-.2.7-.1.07.1.1.85-.22 1.1v5.36c0 .14-.3.57-.3.36"/></g><g><path fill="#fa0204" d="M24.6 15.02c-.28-.2-.54-.57.13-.83.66-.28 1.54-.64 2.28-.64.75 0 2.13.5 2.46.73.32.22.46.5-.05.64-.27.08-.3-.13-.17-.17.15-.05.3-.2-.05-.33s-1.16-.5-2.23-.5c-1.06 0-2.06.44-2.22.5-.17.06-.2.25-.1.33.12.07.12.34-.02.25"/></g><g><path fill="#ce9d0a" d="M27.38 12.24c0-.12-.1-.2-.22-.2-.1 0-.2.08-.2.2 0 .12.1.2.2.2.12 0 .22-.08.22-.2"/></g><g><path fill="#ce9d0a" d="M27.02 12.1c0-.12-.1-.2-.2-.2-.13 0-.22.08-.22.2 0 .12.1.2.2.2.12 0 .22-.08.22-.2"/></g></g></g></g></svg>