<svg xmlns="http://www.w3.org/2000/svg" viewBox="0 0 45 45" enable-background="new 0 0 45 45"><defs><clipPath id="a"><path d="M0 36h36V0H0v36z"/></clipPath><clipPath id="b"><path d="M4 31c-2.2 0-4-1.8-4-4V9c0-2.2 1.8-4 4-4h28c2.2 0 4 1.8 4 4v18c0 2.2-1.8 4-4 4H4z"/></clipPath><clipPath id="c"><path d="M0 36h36V0H0v36z"/></clipPath></defs><g><g><g clip-path="url(#a)" transform="matrix(1.25 0 0 -1.25 0 45)"><g><path fill="#003580" d="M36 9c0-2.2-1.8-4-4-4H4C1.8 5 0 6.8 0 9v18c0 2.2 1.8 4 4 4h28c2.2 0 4-1.8 4-4V9z"/></g><g><path fill="#009543" d="M1.07 6.3C1.8 5.5 2.84 5 4 5h28c2.2 0 4 1.8 4 4v18c0 1.02-.4 1.94-1.02 2.64L1.08 6.3z"/></g></g></g><g><g clip-path="url(#b)" transform="matrix(1.25 0 0 -1.25 0 45)"><g><path fill="#eee" d="M44.3 32.75L-4.85-1.65l-3.45 4.9 49.15 34.41 3.45-4.9z"/></g><g><path fill="#d20f34" d="M43.72 33.57L-5.43-.85-7.7 2.38 41.47 36.8l2.26-3.23z"/></g></g></g><g><g clip-path="url(#c)" transform="matrix(1.25 0 0 -1.25 0 45)"><g><path fill="#ffce00" d="M8 28l.8-1.98 1.7 1.3-.3-2.1 2.13.28-1.3-1.7L13 23l-1.98-.8 1.3-1.7-2.1.3.28-2.13-1.7 1.3L8 18l-.8 1.98-1.7-1.3.3 2.1-2.13-.28 1.3 1.7L3 23l1.98.8-1.3 1.7 2.1-.3-.28 2.13 1.7-1.3L8 28z"/></g><g><path fill="#004a77" d="M11.17 23c0-1.75-1.42-3.17-3.17-3.17S4.82 21.24 4.82 23 6.25 26.17 8 26.17c1.75 0 3.17-1.42 3.17-3.17"/></g><g><path fill="#ffce00" d="M10.47 23c0-1.36-1.1-2.47-2.47-2.47-1.36 0-2.47 1.1-2.47 2.47 0 1.36 1.1 2.47 2.47 2.47 1.36 0 2.47-1.1 2.47-2.47"/></g></g></g></g></svg>