<svg xmlns="http://www.w3.org/2000/svg" viewBox="0 0 45 45" enable-background="new 0 0 45 45"><defs><clipPath id="a"><path d="M0 36h36V0H0v36z"/></clipPath></defs><g><g><g clip-path="url(#a)" transform="matrix(1.25 0 0 -1.25 0 45)"><g><path fill="#cf142b" d="M0 9c0-2.2 1.8-4 4-4h28c2.2 0 4 1.8 4 4v4H0V9z"/></g><g><path fill="#00247d" d="M10.4 15.8l.28.75.22-.76.8-.03-.67-.44.22-.76-.62.48-.65-.44.27.75-.62.5.78-.04zm.77 2.7l.73-.3.5.62-.05-.8.73-.28-.76-.2-.06-.78-.4.67-.78-.2.5.6-.4.68zm2.36 2l.6-.53.67.4-.32-.73.6-.53-.8.1-.32-.72-.16.77-.78.08.68.4-.17.76zm2.8.27l.1.78.37-.7.78.14-.55-.58.37-.7-.7.35-.55-.56.1.8-.7.33.77.14zm2.87.08l.37.7.1-.78.78-.14-.7-.34.1-.8-.54.57-.7-.34.37.7-.55.56.78-.15zm2-.5l.68-.38.6.52-.18-.78.68-.4-.78-.07-.16-.77-.32.72-.8-.1.6.54-.32.72zm2.9-2.14l.73.3-.42-.66.52-.6-.77.2-.4-.68-.07.8-.76.18.73.3-.06.78.5-.6zm1.22-1.65l.27-.74.77.04-.62-.5.27-.73-.65.45-.62-.48.22.76-.66.44.8.02.22.75zM0 13h36v10H0V13z"/></g><g><path fill="#fc0" d="M32 31H4c-2.2 0-4-1.8-4-4v-4h36v4c0 2.2-1.8 4-4 4"/></g><g><path fill="#fff" d="M18.6 19.73l.7.34.55-.56-.1.8.7.33-.77.14-.1.78-.38-.7-.78.14.55-.58-.37-.7z"/></g><g><path fill="#fff" d="M21.72 19.2l.32-.72.16.77.78.08-.68.4.17.76-.6-.53-.67.4.32-.73-.6-.53.8.1z"/></g><g><path fill="none" stroke="#fff" stroke-width=".8" d="M24.83 18.5" stroke-linecap="round" stroke-linejoin="round"/></g><g><path fill="#fff" d="M22.92 17.74l.76-.2.06-.78.42.67.76-.2-.5.6.4.68-.72-.28-.5.6.05-.8-.73-.28z"/></g><g><path fill="#fff" d="M24.97 15.33l-.22-.76.62.48.65-.44-.27.75.62.5-.78-.04-.28.75-.22-.76-.8-.03.67-.44z"/></g><g><path fill="#fff" d="M16.15 19.5l.54.57.7-.34-.37.7.55.56-.78-.15-.37.7-.1-.78-.78-.14.7-.34-.1-.8z"/></g><g><path fill="#fff" d="M13.8 19.25l.16-.77.32.72.8-.1-.6.54.32.72-.68-.4-.6.53.18-.78-.68-.4.78-.07z"/></g><g><path fill="none" stroke="#fff" stroke-width=".8" d="M11.17 18.5" stroke-linecap="round" stroke-linejoin="round"/></g><g><path fill="#fff" d="M11.85 17.43l.4-.67.07.8.76.18-.73.3.06.78-.5-.6-.73.3.42-.68-.52-.6.77.2z"/></g><g><path fill="#fff" d="M9.98 14.6l.65.45.62-.48-.22.76.66.44-.8.02-.22.75-.27-.74-.77.04.62-.5-.27-.73z"/></g></g></g></g></svg>