<svg xmlns="http://www.w3.org/2000/svg" viewBox="0 0 45 45" enable-background="new 0 0 45 45"><defs><clipPath id="a"><path d="M0 36h36V0H0v36z"/></clipPath></defs><g><g><g clip-path="url(#a)" transform="matrix(1.25 0 0 -1.25 0 45)"><g><path fill="#002395" d="M36 9c0-2.2-1.8-4-4-4H4C1.8 5 0 6.8 0 9v18c0 2.2 1.8 4 4 4h28c2.2 0 4-1.8 4-4V9z"/></g><g><path fill="#eee" d="M6 31V19H0v-1h19v13H6z"/></g><path fill="#ed2939" d="M18 19h-6v12h6V19z"/><path fill="#eee" d="M12 19H6v12h6V19z"/><g><path fill="#fff" d="M29.96 15.9l-1.7-2.62v4.76h2.27l.84.96H23.6l.85-.96h2.27v-4.76l-1.7 2.63-2.48-3.86h1.24L25 14.07l2.5-4.35 2.46 4.35 1.24-2.03h1.24l-2.48 3.87z"/></g><g><path fill="#fff" d="M27 17h3.13l-.7-.95H27.2L27 17z"/></g><path fill="#fff" d="M26.25 12.36h-2.47v.62h2.47v-.62z"/><path fill="#fff" d="M31.2 12.36h-2.47v.62h2.47v-.62z"/><g><path fill="#fff" d="M27.5 8.8l.3-1.03h1.02l-.8-.66.28-1-.8.6-.83-.6.3 1-.8.67h1l.32 1.02z"/></g><g><path fill="#fff" d="M22.15 18l.3-1.03h1.04l-.83-.63.3-1-.82.63-.8-.6.3.97-.83.63h1l.33 1.03z"/></g><g><path fill="#fff" d="M32.83 18l.3-1.03h1.03l-.82-.63.3-1-.8.63-.83-.6.3.97-.8.63h1l.33 1.03z"/></g><g><path fill="#fff" d="M24.56 10.85l.3-1.03h1.03l-.82-.64.3-1-.82.62-.82-.6.3.98-.8.64h1l.32 1.03z"/></g><g><path fill="#fff" d="M30.42 10.85l.3-1.03h1.03l-.8-.64.28-1-.8.62-.83-.6.3.98-.8.64h1l.32 1.03z"/></g></g></g></g></svg>