<svg xmlns="http://www.w3.org/2000/svg" viewBox="0 0 45 45" enable-background="new 0 0 45 45"><defs><clipPath id="a"><path d="M0 36h36V0H0v36z"/></clipPath></defs><g><g><g clip-path="url(#a)" transform="matrix(1.25 0 0 -1.25 0 45)"><g><path fill="#ce1126" d="M32 31H19V18H0V9c0-2.2 1.8-4 4-4h28c2.2 0 4 1.8 4 4v18c0 2.2-1.8 4-4 4"/></g><g><path fill="#002b7f" d="M14.32 25.17l-.84.6-.84-.6.32 1-.83.6h1.03l.32.98.32-.98h1.03l-.83-.6.32-1zm-2.36-2.48l-.56.4-.55-.4.2.65-.55.4h.7l.2.66.22-.64h.7l-.57-.4.2-.67zm-1.43-4.16l-1.1.8-1.13-.8.43 1.3-1.12.82H9l.42 1.32.42-1.32h1.38l-1.1-.8.4-1.32zm-4.2 5.92l-.9.65-.88-.64.34 1.05-.9.66h1.1l.34 1.05.35-1.04h1.1L6 25.5l.34-1.04zM9.1 29.4l.34 1.06.34-1.05h1.1l-.9-.64.35-1.05-.88.66-.9-.65.35 1.06-.9.65h1.1zM19 31H4c-2.2 0-4-1.8-4-4v-9h19v13z"/></g><g><path fill="#fff" d="M8.52 27.7l.9.66.9-.65-.35 1.06.9.65h-1.1l-.35 1.06-.34-1.05h-1.1l.88-.64-.34-1.05z"/></g><g><path fill="#fff" d="M5.8 26.16l-.36 1.05-.34-1.04H4l.9-.65-.35-1.04.9.65.9-.64L6 25.5l.9.66H5.8z"/></g><g><path fill="#fff" d="M13.8 26.77l-.32.98-.32-.98h-1.04l.84-.6-.32-1 .84.6.84-.6-.32 1 .83.6H13.8z"/></g><g><path fill="#fff" d="M11.62 23.76l-.22.65-.2-.64h-.7l.56-.4-.22-.67.56.4.56-.4-.2.65.55.4h-.68z"/></g><g><path fill="#fff" d="M9.84 20.66l-.42 1.32L9 20.66H7.6l1.13-.8-.43-1.32 1.12.8 1.1-.8-.4 1.3 1.1.82H9.84z"/></g></g></g></g></svg>