<svg xmlns="http://www.w3.org/2000/svg" viewBox="0 0 45 45" enable-background="new 0 0 45 45"><defs><clipPath id="a"><path d="M4 31c-2.2 0-4-1.8-4-4V9c0-2.2 1.8-4 4-4h28c2.2 0 4 1.8 4 4v18c0 2.2-1.8 4-4 4H4z"/></clipPath></defs><g><g><g clip-path="url(#a)" transform="matrix(1.25 0 0 -1.25 0 45)"><path fill="#c1272d" d="M36 31H0V5h36v26z"/><g><path fill="#006233" d="M18.35 19.45L18 20.53l-.35-1.08h.7zm1.02-.74l.22-.65.9.66h-1.13zm-3.87 0l.92-.65.2.66H15.5zm1.54-1.1l.96-.7.96.7-.37 1.1h-1.2l-.36-1.1zm-.24-.75l-.35-1.08.92.67-.57.4zm1.83-.4l.92-.68-.35 1.08-.57-.4zm-3.58-2.6l1.12 3.46-2.95 2.15h3.65L18 22.93l1.13-3.48h3.65l-2.95-2.14 1.12-3.46L18 15.98l-2.95-2.14z"/></g></g></g></g></svg>