<svg xmlns="http://www.w3.org/2000/svg" viewBox="0 0 45 45" enable-background="new 0 0 45 45"><defs><clipPath id="a"><path d="M0 36h36V0H0v36z"/></clipPath><clipPath id="b"><path d="M4 31c-2.2 0-4-1.8-4-4v-9h19v13H4z"/></clipPath><clipPath id="c"><path d="M0 36h36V0H0v36z"/></clipPath></defs><g><g><g clip-path="url(#a)" transform="matrix(1.25 0 0 -1.25 0 45)"><g><path fill="#00247d" d="M36 9c0-2.2-1.8-4-4-4H4C1.8 5 0 6.8 0 9v18c0 2.2 1.8 4 4 4h28c2.2 0 4-1.8 4-4V9z"/></g><g><path fill="#fff" d="M26.92 24.35h-5.04v-9.23c0-1.52 5.04-3.7 5.04-3.7s5.04 2.18 5.04 3.7v9.23h-5.04z"/></g><g><path fill="#006129" d="M26.92 11.96c-2.23 1-4.54 2.47-4.54 3.16v8.73h9.08v-8.73c0-.7-2.3-2.16-4.54-3.16"/></g><g><path fill="#ffc6b5" d="M25.08 18.1c-.2-.07-.27.48 0 .87.26.4 1.05 1.2 1.22 1.92.17.73.47.62.62.82.14.2.16.44 0 .48-.17.05-.4.1-.25.72.16.6.83.55.83.13 0-.42-.16-.8 0-1.13.16-.33.52-.25.73-.87.22-.63.3-1.24.16-1.5-.15-.27-.23-1.28-.42-1.55-.18-.27-.43-.16-.4.33.06.48.37 1.14.47 1.48.1.36-.14 1.06-.5 1.14-.33.08-.96-.72-1.24-1.05-.27-.34-.88-.6-.9-.85-.04-.27-.12-.86-.32-.94"/></g><g><path fill="#fff" d="M28.77 14.13c-.36-.08-1.16-.38-1.6-.27-.44.1-1.22-.17-1.33-.02-.1.14.1.96.14 1.33.04.38.08.75.02.75s-.33 0-.2.67c.15.67.4 1.9.4 1.9s-.25.1-.1.47c.13.37.3 1.26.26 1.47-.05.2-.4.14-.27.45.12.3.2.37.3.6.1.23.3.42.43.36s.3-.23.44-.14c.15.1.17.23.37.22.2-.02.64-.43.55-.52-.1-.1-.27-.4-.3-.8-.03-.4-.28-1.37-.35-1.68-.08-.32.26-1.07.45-1.77.2-.7.77-3.05.77-3.05"/></g><g><path fill="#9c5100" d="M26.68 23.37c.1.24.54.44.9.15.4-.3.54-.85.28-1.18-.27-.32-.42-.25-.52 0-.1.25 0 .48-.14.55-.14.07 0 .3-.14.33-.12.05-.5-.2-.38.14"/></g><g><path fill="#f00" d="M23.1 23.52c-.05.07-.2-.22-.15-.43.07-.2.05-.4.17-.37.13.03.1.2.18.35.06.1-.2.08-.1.2l-.1.24z"/></g><g><path fill="#f8c600" d="M22.86 22.8h.83s.1.37.27.4c.17 0 .22-.4.22-.4s.38-.08.55.03c.17.1.6-.02.27-.2-.33-.2-.14.2-.33 0-.2-.2-.37-.3-.34-.36.03-.08-.1-.14-.36-.14-.27 0-.44.06-.4.18.03.14-.18.18-.4.23-.25.05-.34.27-.34.27"/></g><g><path fill="#f00" d="M23.1 21.93c-.05.07-.2-.22-.15-.43.07-.2.05-.4.17-.36.13.03.1.2.18.35.06.1-.2.07-.1.2l-.1.23z"/></g><g><path fill="#f8c600" d="M22.86 21.2h.83s.1.38.27.4c.17 0 .22-.38.22-.38s.38-.1.55.02c.17.1.6 0 .27-.2-.33-.2-.14.2-.33 0-.2-.2-.37-.28-.34-.36.03-.08-.1-.14-.36-.14-.27 0-.44.06-.4.2.03.1-.18.16-.4.2-.25.05-.34.27-.34.27"/></g><g><path fill="#f00" d="M23.1 20.16c-.05.07-.2-.22-.15-.42.07-.2.05-.4.17-.37.13.04.1.2.18.36.06.1-.2.07-.1.2l-.1.23z"/></g><g><path fill="#f8c600" d="M22.86 19.44h.83s.1.38.27.4c.17 0 .22-.38.22-.38s.38-.1.55 0c.17.12.6 0 .27-.2-.33-.18-.14.2-.33 0-.2-.2-.37-.27-.34-.35.03-.07-.1-.13-.36-.13-.27 0-.44.06-.4.2.03.1-.18.16-.4.2-.25.05-.34.27-.34.27"/></g><g><path fill="#f00" d="M24.1 18.44c-.05.07-.2-.22-.15-.42.07-.2.05-.4.17-.36.13.03.1.2.18.35.06.12-.2.08-.1.2l-.1.24z"/></g><g><path fill="#f8c600" d="M23.86 17.72h.83s.1.38.27.4c.17 0 .22-.38.22-.38s.38-.1.55.02c.17.1.6-.02.27-.2-.33-.2-.14.2-.33 0-.2-.2-.37-.3-.34-.37.03-.08-.1-.15-.36-.15-.27 0-.44.07-.4.2.03.12-.18.16-.4.2-.25.06-.34.27-.34.27"/></g><g><path fill="#f00" d="M23.06 17.04c-.07.07-.23-.22-.16-.42.06-.2.04-.4.16-.36.13.03.1.2.18.35.06.12-.2.08-.1.2l-.08.24z"/></g><g><path fill="#f8c600" d="M22.8 16.32h.83s.1.38.28.4c.18 0 .23-.38.23-.38s.4-.1.56.02c.16.1.58-.02.26-.2-.33-.2-.14.2-.33 0-.2-.2-.36-.3-.33-.37.03-.08-.1-.15-.36-.15s-.44.07-.4.2c.03.12-.18.16-.4.2-.25.06-.34.27-.34.27"/></g><g><path fill="#f00" d="M23.06 15.37c-.07.07-.23-.22-.16-.42.06-.2.04-.4.16-.37.13.03.1.2.18.35.06.1-.2.08-.1.2l-.08.24z"/></g><g><path fill="#f8c600" d="M22.8 14.65h.83s.1.38.28.4c.18 0 .23-.38.23-.38s.4-.1.56 0c.16.12.58 0 .26-.2-.33-.18-.14.2-.33 0-.2-.2-.36-.27-.33-.35.03-.08-.1-.14-.36-.14s-.44.06-.4.2c.03.1-.18.16-.4.2-.25.05-.34.27-.34.27"/></g><g><path fill="#f00" d="M29.02 15.37c-.06.07-.22-.22-.16-.42.06-.2.05-.4.17-.37.12.03.1.2.17.35.07.1-.18.08-.1.2l-.08.24z"/></g><g><path fill="#f8c600" d="M28.77 14.65h.82s.1.38.27.4c.18 0 .22-.38.22-.38s.38-.1.56 0c.17.12.6 0 .26-.2-.33-.18-.14.2-.33 0-.2-.2-.37-.27-.33-.35.03-.08-.1-.14-.37-.14-.26 0-.43.06-.4.2.03.1-.17.16-.4.2-.24.05-.33.27-.33.27"/></g><g><path fill="#f00" d="M29.02 16.94c-.06.07-.22-.22-.16-.42.06-.2.05-.4.17-.37.12.03.1.2.17.35.07.1-.18.08-.1.2l-.08.24z"/></g><g><path fill="#f8c600" d="M28.77 16.22h.82s.1.38.27.4c.18 0 .22-.38.22-.38s.38-.1.56 0c.17.12.6 0 .26-.2-.33-.18-.14.2-.33 0-.2-.2-.37-.27-.33-.35.03-.1-.1-.15-.37-.15-.26 0-.43.06-.4.2.03.1-.17.16-.4.2-.24.05-.33.27-.33.27"/></g><g><path fill="#f00" d="M29.02 18.55c-.06.07-.22-.22-.16-.43.06-.2.05-.4.17-.36.12.03.1.2.17.35.07.12-.18.1-.1.2l-.08.25z"/></g><g><path fill="#f8c600" d="M28.77 17.83h.82s.1.37.27.4c.18 0 .22-.38.22-.38s.38-.1.56 0c.17.12.6 0 .26-.2-.33-.18-.14.2-.33 0-.2-.2-.37-.27-.33-.35.03-.08-.1-.14-.37-.14-.26 0-.43.06-.4.2.03.1-.17.16-.4.2-.24.05-.33.27-.33.27"/></g><g><path fill="#f00" d="M29.02 20.16c-.06.07-.22-.22-.16-.42.06-.2.05-.4.17-.36.12.03.1.2.17.35.07.1-.18.07-.1.2l-.08.23z"/></g><g><path fill="#f8c600" d="M28.77 19.44h.82s.1.38.27.4c.18 0 .22-.38.22-.38s.38-.1.56 0c.17.12.6 0 .26-.2-.33-.18-.14.2-.33 0-.2-.2-.37-.27-.33-.35.03-.07-.1-.13-.37-.13-.26 0-.43.06-.4.2.03.1-.17.16-.4.2-.24.05-.33.27-.33.27"/></g><g><path fill="#f00" d="M29.02 21.83c-.06.07-.22-.22-.16-.43.06-.2.05-.4.17-.36.12.03.1.2.17.35.07.1-.18.07-.1.2l-.08.23z"/></g><g><path fill="#f8c600" d="M28.77 21.1h.82s.1.38.27.4c.18 0 .22-.38.22-.38s.38-.1.56.02c.17.1.6-.02.26-.2-.33-.2-.14.2-.33 0-.2-.2-.37-.3-.33-.36.03-.08-.1-.14-.37-.14-.26 0-.43.06-.4.18.03.13-.17.18-.4.22-.24.05-.33.27-.33.27"/></g><g><path fill="#f00" d="M29.02 23.52c-.06.07-.22-.22-.16-.43.06-.2.05-.4.17-.37.12.03.1.2.17.35.07.1-.18.08-.1.2l-.08.24z"/></g><g><path fill="#fff" d="M26.92 9.53c-1.8 0-3.5.67-5.16 2.04-.17-.14-.4-.26-.66-.26-.2 0-.37.08-.53.2-.38.32-.6.8-.6 1.18.03.3.17.53.4.68.28.18.7.57.76.7.3.46.6.56.83.56.16 0 .4-.06.62-.3.02-.03 2.07-2.2 4.34-2.2 2.26 0 4.3 2.17 4.33 2.2.22.24.46.3.62.3.22 0 .55-.1.83-.57.07-.12.48-.5.77-.7.23-.14.36-.38.38-.67.02-.4-.2-.86-.6-1.17-.14-.12-.33-.2-.52-.2-.26 0-.48.13-.66.27-1.66-1.37-3.35-2.04-5.15-2.04"/></g><g><path fill="#f8c600" d="M28.77 22.8h.82s.1.37.27.4c.18 0 .22-.4.22-.4s.38-.08.56.03c.17.1.6-.02.26-.2-.33-.2-.14.2-.33 0-.2-.2-.37-.3-.33-.36.03-.08-.1-.14-.37-.14-.26 0-.43.06-.4.18.03.14-.17.18-.4.23-.24.05-.33.27-.33.27"/></g><g><path fill="#f8c600" d="M33.2 12.94c-.32.2-.8.64-.93.85-.12.2-.37.5-.64.18-.26-.3-2.38-2.37-4.7-2.37-2.35 0-4.46 2.07-4.73 2.38-.26.3-.5.02-.64-.2-.12-.2-.6-.64-.92-.84-.3-.2-.12-.74.25-1.05.37-.32.82.37.82.37 1.3-1.16 2.98-2.24 5.2-2.24 2.2 0 3.9 1.08 5.2 2.24 0 0 .45-.7.82-.38.38.3.57.83.25 1.04"/></g><g><path fill="#00247d" d="M19 31H4c-2.2 0-4-1.8-4-4v-9h19v13z"/></g><g><path fill="#eee" d="M19 18v2.03L11.9 25H6.67l10-7H19z"/></g><g><path fill="#cf1b2b" d="M19 19.42L11.03 25H9.3l9.7-6.8v1.22z"/></g><g><path fill="#eee" d="M8.1 25L0 19.23V18h3.33l10 7H8.1z"/></g><g><path fill="#cf1b2b" d="M10.7 25L.74 18h1.73l10 7H10.7z"/></g><g><path fill="#eee" d="M16.67 31l-10-7h5.23l7.1 4.97V31h-2.33z"/></g><g><path fill="#cf1b2b" d="M17.54 31l-10-7H9.3l9.7 6.8v.2h-1.46z"/></g></g></g><g><g clip-path="url(#b)" transform="matrix(1.25 0 0 -1.25 12.5 15)"><g><path fill="#eee" d="M0 0h3.33l-10 7H-9l-.63-1.6L0-1.32V0z"/></g><g><path fill="#cf1b2b" d="M0 0h.7L-9 6.8l-.5-.86L0-.72V0z"/></g></g></g><g><g clip-path="url(#c)" transform="matrix(1.25 0 0 -1.25 0 45)"><g><path fill="#eee" d="M19 27h-7v4H7v-4H0v-5h7v-4h5v4h7v5z"/></g><path fill="#cf1b2b" d="M11 18H8v13h3V18z"/><path fill="#cf1b2b" d="M19 23H0v3h19v-3z"/></g></g></g></svg>