<svg xmlns="http://www.w3.org/2000/svg" viewBox="0 0 45 45" enable-background="new 0 0 45 45"><defs><clipPath id="a"><path d="M4 31c-2.2 0-4-1.8-4-4V9c0-2.2 1.8-4 4-4h28c2.2 0 4 1.8 4 4v18c0 2.2-1.8 4-4 4H4z"/></clipPath></defs><g><g><g clip-path="url(#a)" transform="matrix(1.25 0 0 -1.25 0 45)"><path fill="#006a4e" d="M0 5h36v5.2H0V5z"/><g><path fill="#006a4e" d="M15.5 15.5l20.5-.1v5.2H15.5v-5.1z"/></g><path fill="#006a4e" d="M15.5 25.8H36V31H15.5v-5.2z"/><path fill="#ffce00" d="M15.5 20.6H36v5.2H15.5v-5.2z"/><g><path fill="#ffce00" d="M0 15.5v-5.3h36v5.2l-20.5.1H0z"/></g><g><path fill="#d21034" d="M.03 31V15.5h15.5V31H.03z"/></g><g><path fill="#fff" d="M12.34 24.6H8.88v.03L7.77 28l-.03-.07-1.08-3.34H3.1l2.86-2.1.04-.02-1.07-3.3-.03-.12 2.9 2.1 2.9-2.1-1.1 3.42 2.9 2.1h-.13z"/></g></g></g></g></svg>