<svg xmlns="http://www.w3.org/2000/svg" viewBox="0 0 45 45" enable-background="new 0 0 45 45"><defs><clipPath id="a"><path d="M0 36h36V0H0v36z"/></clipPath></defs><g><g><g clip-path="url(#a)" transform="matrix(1.25 0 0 -1.25 0 45)"><g><path fill="#141414" d="M18 21.25c.9 0 1.72-.37 2.3-.96-.46.32-1.03.52-1.64.52-1.56 0-2.83-1.26-2.83-2.82 0-1.56 1.27-2.82 2.83-2.82.6 0 1.18.2 1.65.53-.58-.58-1.4-.95-2.3-.95-1.8 0-3.25 1.46-3.25 3.25 0 1.8 1.46 3.25 3.25 3.25m3.25-.95l1.03-1.42 1.67.54L22.92 18l1.03-1.42-1.67.54-1.03-1.42v1.76l-1.67.54 1.67.54v1.76zM0 12h36v12H0V12z"/></g><g><path fill="#e70013" d="M32 31H4c-2.2 0-4-1.8-4-4v-3h36v3c0 2.2-1.8 4-4 4"/></g><g><path fill="#239e46" d="M32 5H4C1.8 5 0 6.8 0 9v3h36V9c0-2.2-1.8-4-4-4"/></g><g><path fill="#fff" d="M18 14.75c.9 0 1.72.37 2.3.96-.46-.32-1.03-.52-1.64-.52-1.56 0-2.83 1.26-2.83 2.82 0 1.56 1.27 2.82 2.83 2.82.6 0 1.18-.2 1.65-.53-.58.58-1.4.95-2.3.95-1.8 0-3.25-1.46-3.25-3.25 0-1.8 1.46-3.25 3.25-3.25"/></g><g><path fill="#fff" d="M21.25 17.46V15.7l1.03 1.42 1.67-.54L22.92 18l1.03 1.42-1.67-.54-1.03 1.42v-1.76L19.58 18l1.67-.54z"/></g></g></g></g></svg>