<svg xmlns="http://www.w3.org/2000/svg" viewBox="0 0 45 45" enable-background="new 0 0 45 45"><defs><clipPath id="a"><path d="M0 36h36V0H0v36z"/></clipPath><clipPath id="b"><path d="M4 31c-2.2 0-4-1.8-4-4v-9h19v13H4z"/></clipPath><clipPath id="c"><path d="M0 36h36V0H0v36z"/></clipPath></defs><g><g><g clip-path="url(#a)" transform="matrix(1.25 0 0 -1.25 0 45)"><g><path fill="#00247d" d="M36 9c0-2.2-1.8-4-4-4H4C1.8 5 0 6.8 0 9v18c0 2.2 1.8 4 4 4h28c2.2 0 4-1.8 4-4V9z"/></g><g><path fill="#fff" d="M28.16 24H23v-3.73c0-5.18 2.9-7.07 5.16-8.3 2.27 1.23 4.8 3.12 4.8 8.3V24h-4.8z"/></g><g><path fill="#fec400" d="M28.16 12.57c-2.2 1.23-4.74 3-4.74 7.7v3.06h9.2v-3.06c0-4.7-2.26-6.47-4.46-7.7"/></g><g><path fill="#00a728" d="M29.95 15.02c-.06.54-.5 2.26-1.04 2.78-.52.5-.74.1-.74.1s-.22.4-.75-.1c-.52-.52-.98-2.24-1.04-2.78-.06-.55.06-.68.34-.68.13-.26.6-.3.6-.3s.56-.37.86 0c.3-.37.84 0 .84 0s.48.04.6.3c.3 0 .42.13.35.68"/></g><g><path fill="#f0082d" d="M28.95 18.42c0-.47.13-.86-.78-.86-.9 0-.78.4-.78.86 0 .48.34.87.77.87s.78-.4.78-.88"/></g><g><path fill="#ff9f3e" d="M26.48 19.05c-.25-.43-.64-.13-.8.37-.18.5-.87.64-1.12.78-.25.14-.3.38 0 .55.32.17.13.4.35.45-.27.07-.53-.1-.55 0-.02.1.2.36.56.4-.3.37-.12 1.15 0 1.17.13 0 .4-.22.52-.46.13-.22.5-.18.47-.5.07-.08.33-.03.58-.44.25-.4 0-2.3 0-2.3"/></g><g><path fill="#ff927f" d="M26.6 19.1c-.36-.02-.5.3-.55.74-.07.46-.7.3-.4.97.3.68.4.27.43.8.03.53.2.96.36.96.15 0 .36-.48.43-.68.08-.2.38-.16.5-.86.15-.7 0-1.22-.18-1.38-.18-.16-.26-.18-.3-.35-.03-.2-.07-.17-.3-.2"/></g><g><path fill="#fe9de0" d="M26.6 22.1c.1-.08.1-.2 0-.38-.12-.2.07-.38.08-.7 0-.3-.15-.4-.12-.57.03-.15.28-.45.25-.8-.02-.37-.1-.48-.2-.54-.12-.05-.07.2-.05.43.03.24-.13.5-.2.74-.08.23.1.4.15.64.05.24-.08.45-.1.7 0 .24.2.5.2.5"/></g><g><path fill="#ba5b1f" d="M30.22 21.5c.05.34.03.88-.08 1.06-.1.2-.28.3-.17.33.1.02.62-.52.34-1.63-.27-1.1-.08.23-.08.23"/></g><g><path fill="#ba5b1f" d="M30.16 21.6c-.2.12-.48.43-.45.6.03.17.24.5.27.42.03-.06-.1-.25 0-.5.1-.26.14-.28.27-.45.12-.17-.08-.07-.08-.07"/></g><g><path fill="#ba5b1f" d="M30.05 21.36c-.13.15-1.52 1.05-1.38 1.1.14.07 1.34-.68 1.53-1.1.2-.42-.15 0-.15 0"/></g><g><path fill="#ba5b1f" d="M29.97 21.1c-.5.5-1.77.6-1.7.67.06.07 1.67-.07 1.9-.54.22-.46-.2-.14-.2-.14"/></g><g><path fill="#ba5b1f" d="M29.93 20.83c-.57.3-1.57.36-1.67.34-.1 0 .97.3 1.73-.17.75-.47-.07-.17-.07-.17"/></g><g><path fill="#ba5b1f" d="M29.97 20.4c-.6.27-1.47.2-1.63.1-.15-.1.46.35.88.3.42-.03.83-.12.94-.2.12-.08.02-.3-.2-.2"/></g><g><path fill="#ba5b1f" d="M30.3 21.6c-.06.38-.06.7-.57.67-.52-.04-.6-1-.48-2.35.13-1.34-.03-1.78-.05-1.86-.03-.08.28.27.26.86-.02.6-.15 1.9-.1 2.38.03.48.26.84.57.75.3-.1.24-.34.24-.63 0-.3.14.18.14.18"/></g><g><path fill="#ba5b1f" d="M30.66 19.1s.15.1.36 1.15c.2 1.06-.24 1.52-.63 1.52-.4 0-.84-.46-.63-1.52.2-1.06.36-1.15.36-1.15s-.48-.46-.42-.68c.08-.22.7-.22.7-.22s.6 0 .67.22c.07.22-.4.68-.4.68"/></g><g><path fill="#ba5b1f" d="M30.57 21.5c-.05.34-.03.88.08 1.06.1.2.28.3.17.33-.1.02-.63-.52-.35-1.63.28-1.1.1.23.1.23"/></g><g><path fill="#ba5b1f" d="M30.62 21.6c.2.12.5.43.46.6-.03.17-.23.5-.26.42-.03-.06.1-.25 0-.5-.1-.26-.14-.28-.27-.45-.13-.17.07-.07.07-.07"/></g><g><path fill="#ba5b1f" d="M30.74 21.36c.12.15 1.52 1.05 1.37 1.1-.13.07-1.32-.68-1.5-1.1-.2-.42.14 0 .14 0"/></g><g><path fill="#ba5b1f" d="M30.82 21.1c.5.5 1.76.6 1.7.67-.06.07-1.67-.07-1.9-.54-.22-.46.2-.14.2-.14"/></g><g><path fill="#ba5b1f" d="M30.85 20.83c.58.3 1.58.36 1.67.34.1 0-.97.3-1.73-.17s.05-.17.05-.17"/></g><g><path fill="#ba5b1f" d="M30.82 20.4c.6.27 1.47.2 1.62.1.16-.1-.45.35-.87.3-.42-.03-.83-.12-.95-.2-.1-.08 0-.3.2-.2"/></g><g><path fill="#ba5b1f" d="M30.47 21.6c.07.38.07.7.6.67.5-.04.6-1 .47-2.35-.13-1.34.03-1.78.05-1.86 0-.08-.3.27-.27.86.02.6.15 1.9.1 2.38-.03.48-.27.84-.58.75-.3-.1-.24-.34-.23-.63 0-.3-.15.18-.15.18"/></g><g><path fill="#00247d" d="M19 31H4c-2.2 0-4-1.8-4-4v-9h19v13z"/></g><g><path fill="#eee" d="M19 18v2.03L11.9 25H6.67l10-7H19z"/></g><g><path fill="#cf1b2b" d="M19 19.42L11.03 25H9.3l9.7-6.8v1.22z"/></g><g><path fill="#eee" d="M8.1 25L0 19.23V18h3.33l10 7H8.1z"/></g><g><path fill="#cf1b2b" d="M10.7 25L.74 18h1.73l10 7H10.7z"/></g><g><path fill="#eee" d="M16.67 31l-10-7h5.23l7.1 4.97V31h-2.33z"/></g><g><path fill="#cf1b2b" d="M17.54 31l-10-7H9.3l9.7 6.8v.2h-1.46z"/></g></g></g><g><g clip-path="url(#b)" transform="matrix(1.25 0 0 -1.25 12.5 15)"><g><path fill="#eee" d="M0 0h3.33l-10 7H-9l-.63-1.6L0-1.32V0z"/></g><g><path fill="#cf1b2b" d="M0 0h.7L-9 6.8l-.5-.86L0-.72V0z"/></g></g></g><g><g clip-path="url(#c)" transform="matrix(1.25 0 0 -1.25 0 45)"><g><path fill="#eee" d="M19 27h-7v4H7v-4H0v-5h7v-4h5v4h7v5z"/></g><path fill="#cf1b2b" d="M11 18H8v13h3V18z"/><path fill="#cf1b2b" d="M19 23H0v3h19v-3z"/></g></g></g></svg>