<svg xmlns="http://www.w3.org/2000/svg" viewBox="0 0 45 45" enable-background="new 0 0 45 45"><defs><clipPath id="a"><path d="M4 31c-2.2 0-4-1.8-4-4V9c0-2.2 1.8-4 4-4h28c2.2 0 4 1.8 4 4v18c0 2.2-1.8 4-4 4H4z"/></clipPath></defs><g><g><g clip-path="url(#a)" transform="matrix(1.25 0 0 -1.25 0 45)"><g><path fill="#d62828" d="M24.17 31L0 5l36 17.33V31H24.17z"/></g><g><path fill="#fcd856" d="M12 31L0 5l24.17 26H12z"/></g><g><path fill="#003f87" d="M0 31V5l12 26H0z"/></g><g><path fill="#eee" d="M36 13.67v8.66L0 5l36 8.67z"/></g><g><path fill="#007a3d" d="M36 5v8.67L0 5h36z"/></g></g></g></g></svg>