<svg xmlns="http://www.w3.org/2000/svg" viewBox="0 0 45 45" enable-background="new 0 0 45 45"><defs><clipPath id="a"><path d="M0 36h36V0H0v36z"/></clipPath></defs><g><g><g clip-path="url(#a)" transform="matrix(1.25 0 0 -1.25 0 45)"><g><path fill="#de3830" d="M32 31H6.5L19 22.5h17V27c0 2.2-1.8 4-4 4"/></g><g><path fill="#002395" d="M6.5 5H32c2.2 0 4 1.8 4 4v4.5H19L6.5 5z"/></g><g><path fill="#141414" d="M0 25V11l10.5 7L0 25z"/></g><g><path fill="#ffb611" d="M0 27v-2l10.5-7L0 11V9l13.5 9L0 27z"/></g><g><path fill="#007a4d" d="M3.54 30.97C1.54 30.74 0 29.05 0 27l13.5-9L0 9c0-2.05 1.55-3.74 3.54-3.97L18.5 15.5H36v5H18.5L3.54 30.97z"/></g><g><path fill="#eee" d="M6.5 31H4c-.16 0-.3 0-.46-.03L18.5 20.5H36v2H19L6.5 31z"/></g><g><path fill="#eee" d="M3.54 5.03C3.7 5 3.84 5 4 5h2.5L19 13.5h17v2H18.5L3.54 5.03z"/></g></g></g></g></svg>