<svg xmlns="http://www.w3.org/2000/svg" viewBox="0 0 45 45" enable-background="new 0 0 45 45"><defs><clipPath id="a"><path d="M0 36h36V0H0v36z"/></clipPath></defs><g><g><g clip-path="url(#a)" transform="matrix(1.25 0 0 -1.25 0 45)"><g><path fill="#141414" d="M36 9c0-2.2-1.8-4-4-4H4C1.8 5 0 6.8 0 9v18c0 2.2 1.8 4 4 4h28c2.2 0 4-1.8 4-4V9z"/></g><g><path fill="#ce1126" d="M34.62 6c.84.73 1.38 1.8 1.38 3v18c0 2.2-1.8 4-4 4H4c-1 0-1.9-.38-2.62-1L34.62 6z"/></g><g><path fill="#fff" d="M7.72 22.46l.38-1.3h1.33l-1.05-.82.4-1.27-1.06.8-1.04-.77.38 1.24-1.05.8h1.3l.42 1.32z"/></g><g><path fill="#fff" d="M3.7 17.33l.4-1.3h1.3l-1.03-.82.38-1.27-1.04.8-1.04-.76.38 1.24-1.04.82h1.3l.4 1.3z"/></g><g><path fill="#fff" d="M7.72 10.4l.38-1.32h1.33l-1.05-.8.4-1.28-1.06.8-1.04-.76.38 1.24-1.05.8h1.3l.42 1.32z"/></g><g><path fill="#fff" d="M9.5 13.2l.2-.66h.67l-.53-.4.2-.65-.53.4-.5-.4.18.63-.52.4h.64l.2.66z"/></g><g><path fill="#fff" d="M11.72 17.7l.38-1.32h1.32l-1.04-.8.38-1.28-1.04.8-1.05-.76.38 1.24-1.04.8h1.3l.42 1.32z"/></g><g><path fill="#fcd116" d="M28.07 20.7c.43-.44 3.4-2.4 3.4-4.82 0-2.4-2.17-2.33-2.78-2.26.68-.58 3.3-.47 3.3 2.26 0 2.4-3.4 4.82-3.82 5.03-.44.23-.55.23-.1-.2m-5.36 2.57c-.3-.4-1.04.4-1.9.42-.9 0-1.5-.85-1.76-1.15-.26-.3-1.08-1.82-1.06-1.98.02-.17.5.45.7.56 0-.22-.2-.47-.15-.54.05-.1.64.42.84.44.04-.14-.12-.3-.07-.5.07-.08.4.36.62.45.04-.18-.2-.5-.07-.7.1 0 .64.63.82.7.18.08-.1-.6 0-.65.16.1.67.7.84.76.16.1-.02-.73.05-.73.2.14.7.84.76.94.05.12-.06-1.04.5-1.66.58-.62 1.43-1.33 1.52-1.33.1.2-.03.63.06.6.25-.27.73-.67.84-.67.1 0-.08.44.07.44.3-.27 1.13-1.35 2.77-1.84-.1.3-.35.58-.36.73.1-.02.5-.2.56-.18.07 0-.8 1.1-.75 1.24.2 0 .3-.1.37-.02-.1.14-.86 1-.86 1.2 0 .2.24-.03.3 0 .08.04-.28.8-.2.9.06.1.87-.5 1.07-.5.2 0 .05.7.14.75.08.04.76-.38.9-.38.15 0 .13.3.2.27.04-.04 1.63-1.62 1.08-3.48-.54-1.33-1.64-2.04-3.24-1.46.1-.15.95-.86 1.87-.6.94.25 2.08.98 1.95 2.8-.13 1.83-.73 2.08-.82 2.36-.1.27.14-.08.34-.15.2-.06-.03.4-.1.6-.04.2.6-.42.78-.48.16-.05-.4 1.5-.55 1.6-.16.12.16-.03.27-.07.1-.03-1 1.7-1.24 1.7-.23 0 .2.1.33.1s-1.27 1.12-1.5 1.12c-.25 0 .5.3.57.3.13 0-1.62.94-3.2 0-.08.07.75.64.78.9.02.05-.27.2-.28.26-.02.07.43.3.45.46-.1.13-.3.08-.42.1-.02.15.4.5.35.63-.03.08-.33.1-.4.06-.08-.07.2.37.14.5-.03.05-.18.02-.33-.02-.08.02.5.8.38.9-.1.12-1.64-.8-2.2-1.8-.57-1.03-.13-1.85-.2-2.2-.08-.35-.17-.7-.4-.7-.25 0-.8.37-.97.55-.18.2-.2.3-.47.4-.25.06-.84-.16-1.06-.18-.22-.02-1.07.17-1.13.1-.05-.04.84-.37 1.04-.48.2-.1.22-.25.37-.35.14-.1 1.5-.5 1.07-1.05"/></g></g></g></g></svg>