<svg xmlns="http://www.w3.org/2000/svg" viewBox="0 0 45 45" enable-background="new 0 0 45 45"><defs><clipPath id="a"><path d="M0 36h36V0H0v36z"/></clipPath></defs><g><g><g clip-path="url(#a)" transform="matrix(1.25 0 0 -1.25 0 45)"><g><path fill="#0038a8" d="M0 9c0-2.2 1.8-4 4-4h28c2.2 0 4 1.8 4 4v4H0V9z"/></g><path fill="#eee" d="M0 13h36v10H0V13z"/><g><path fill="#d52b1e" d="M32 31H4c-2.2 0-4-1.8-4-4v-4h36v4c0 2.2-1.8 4-4 4"/></g><g><path d="M22 18c0-2.2-1.8-4-4-4s-4 1.8-4 4 1.8 4 4 4 4-1.8 4-4"/></g><g><path fill="#eee" d="M21.75 18c0-2.07-1.68-3.75-3.75-3.75-2.07 0-3.75 1.68-3.75 3.75 0 2.07 1.68 3.75 3.75 3.75 2.07 0 3.75-1.68 3.75-3.75"/></g><g><path d="M21.25 18c0-1.8-1.46-3.25-3.25-3.25-1.8 0-3.25 1.45-3.25 3.25s1.45 3.25 3.25 3.25 3.25-1.46 3.25-3.25"/></g><g><path fill="#eee" d="M21.13 18c0-1.73-1.4-3.13-3.13-3.13s-3.12 1.4-3.12 3.13c0 1.72 1.4 3.12 3.12 3.12 1.73 0 3.13-1.4 3.13-3.12"/></g><g><path fill="#99aab5" d="M21.13 18.02c0 1.73-1.4 3.13-3.13 3.13s-3.13-1.4-3.13-3.13c0-.57.15-1.1.42-1.57l2.7 1.5 2.7-1.5c.28.46.43 1 .43 1.57"/></g><g><path d="M20.5 18c0-1.38-1.12-2.5-2.5-2.5s-2.5 1.12-2.5 2.5 1.12 2.5 2.5 2.5 2.5-1.12 2.5-2.5"/></g><g><path fill="#eee" d="M20.4 18c0 1.33-1.07 2.4-2.4 2.4-1.33 0-2.4-1.07-2.4-2.4 0-1.33 1.07-2.4 2.4-2.4 1.33 0 2.4 1.07 2.4 2.4"/></g><g><path fill="#ffac33" d="M18 18.82l.18-.57h.6l-.48-.35.18-.56-.48.35-.48-.36.18.56-.48.35h.6l.18.57z"/></g><g><path fill="#007127" d="M18.5 19.48s.3.07.47.1c.18 0 .34-.4.55-.47.2-.06.2-.27.3-.5.1-.26.03-.3.03-.6 0-.28.16-.42.13-.63-.04-.2-.2-.26-.32-.4-.1-.15-.02-.32-.12-.43-.1-.1-.46-.1-.58-.2-.13-.1-.36-.26-.52-.17-.15.1-.5.13-.5.13s.1.3.35.42c.23.1.34.1.57.16.23.07.2.17.37.3.16.15.17.35.26.5.1.13.1.24.07.43-.03.2-.1.4-.17.6-.07.17-.23.38-.34.5-.1.12-.56.28-.56.28"/></g><g><path fill="#007127" d="M17.4 19.38s.18.38 0 .4c-.7.1-.84-.54-1.05-.6-.22-.1-.25-.44-.34-.68-.07-.25-.04-.3-.04-.58 0-.3 0-.34.04-.55.04-.2.08-.37.2-.5.1-.15.14-.22.24-.33.1-.1.3-.2.44-.32.12-.1.5-.14.65-.05.16.1.44.12.44.12s-.12.2-.37.3c-.24.12-.26.2-.5.28-.22.07-.2.17-.36.3-.16.15-.17.35-.26.5-.1.13-.04.16 0 .36.03.2.1.35.17.53.07.17.24.4.35.53.1.12.4.28.4.28"/></g><g><path fill="#007127" d="M17.42 16.14l.23-.16.3.2.28-.18.37.14-.37-.27-.26.2-.28-.18-.3.15.02.1z"/></g></g></g></g></svg>