<svg xmlns="http://www.w3.org/2000/svg" viewBox="0 0 45 45" enable-background="new 0 0 45 45"><defs><clipPath id="a"><path d="M0 36h36V0H0v36z"/></clipPath></defs><g><g><g clip-path="url(#a)" transform="matrix(1.25 0 0 -1.25 0 45)"><g><path fill="#e8112d" d="M36 9c0-2.2-1.8-4-4-4H4C1.8 5 0 6.8 0 9v18c0 2.2 1.8 4 4 4h28c2.2 0 4-1.8 4-4V9z"/></g><g><path fill="#ffcc4d" d="M18.47 24c.02 1.06.94 1.78.98 3.17.67-.83-.43-2.4-.04-3.3.2 1.02 1.2 1.6 1.47 2.96.52-.93-.8-2.3-.56-3.26.34 1 1.45 1.4 1.92 2.7.37-1-1.16-2.14-1.07-3.13.5.93 1.64 1.15 2.3 2.37.22-1.03-1.47-1.93-1.53-2.9.62.82 1.8.86 2.64 1.96.05-1.06-1.75-1.68-1.97-2.64.74.73 1.9.58 2.9 1.54-.1-1.06-2-1.4-2.36-2.3.86.6 1.98.27 3.13 1.05-.28-1-2.2-1.04-2.7-1.9.94.47 2-.03 3.26.57-.44-.97-2.33-.7-2.96-1.46 1 .32 1.96-.34 3.3.05-.6-.9-2.4-.33-3.16-.98 1.05.15 1.9-.65 3.28-.47-.72-.8-2.43.05-3.27-.47 1.06-.02 1.78-.94 3.17-.98-.84-.67-2.4.43-3.3.04 1.03-.2 1.6-1.2 2.96-1.47-.93-.52-2.3.8-3.26.56 1-.34 1.4-1.45 2.7-1.92-1-.37-2.14 1.16-3.13 1.07.93-.5 1.15-1.64 2.37-2.3-1.03-.22-1.93 1.47-2.9 1.53.82-.62.86-1.8 1.96-2.64-1.06-.05-1.68 1.76-2.64 1.97.73-.74.58-1.9 1.54-2.9-1.06.1-1.4 2-2.3 2.36.6-.86.27-1.98 1.06-3.13-1.03.28-1.06 2.2-1.9 2.7.45-.94-.05-2 .55-3.26-.97.44-.7 2.33-1.46 2.96.32-1-.34-1.96.05-3.3-.9.6-.33 2.4-.98 3.16.15-1.05-.65-1.9-.47-3.28-.8.72.05 2.43-.47 3.27-.02-1.06-.94-1.78-.98-3.17-.67.83.43 2.4.04 3.3-.2-1.03-1.2-1.6-1.47-2.96-.52.93.8 2.3.56 3.26-.34-1-1.45-1.4-1.9-2.7-.4 1 1.14 2.14 1.05 3.13-.5-.93-1.64-1.15-2.3-2.37-.22 1.03 1.47 1.93 1.53 2.9-.62-.82-1.8-.86-2.64-1.96-.05 1.06 1.76 1.68 1.97 2.64-.74-.73-1.9-.58-2.9-1.54.1 1.06 2 1.4 2.36 2.3-.86-.6-1.98-.27-3.13-1.06.28 1.03 2.2 1.06 2.7 1.9-.94-.45-2 .05-3.26-.55.44.97 2.33.7 2.96 1.46-1-.32-1.96.34-3.3-.05.6.9 2.4.33 3.16.98-1.05-.15-1.9.65-3.28.47.72.8 2.43-.05 3.27.47-1.06.02-1.78.94-3.17.98.83.67 2.4-.43 3.3-.04-1.03.2-1.6 1.2-2.96 1.47.93.52 2.3-.8 3.26-.56-1 .34-1.4 1.45-2.7 1.9 1 .4 2.14-1.14 3.13-1.05-.93.5-1.15 1.64-2.37 2.3 1.03.22 1.93-1.47 2.9-1.53-.82.62-.86 1.8-1.96 2.64 1.06.05 1.68-1.76 2.64-1.97-.73.74-.58 1.9-1.54 2.9 1.06-.1 1.4-2 2.3-2.36-.6.86-.27 1.98-1.05 3.13 1-.28 1.04-2.2 1.9-2.7-.47.94.03 2-.57 3.26.97-.44.7-2.33 1.46-2.96-.32 1 .34 1.96-.05 3.3.9-.6.33-2.4.98-3.16-.15 1.05.65 1.9.47 3.28.8-.72-.05-2.43.47-3.27"/></g><g><path fill="#e8112d" d="M18 13.1c2.7 0 4.9 2.2 4.9 4.9s-2.2 4.9-4.9 4.9-4.9-2.2-4.9-4.9 2.2-4.9 4.9-4.9"/></g><g><path fill="#ffcc4d" d="M18 22.55c1.25 0 2.38-.54 3.16-1.4-1.23-.12-2.27-.4-3.16-.85-.9.44-1.93.73-3.16.86.78.85 1.9 1.4 3.16 1.4"/></g><g><path fill="#ffcc4d" d="M17.68 20.13c-.1-.06-.2-.12-.3-.17-.8.42-1.74.7-2.88.77.05.08.1.15.16.22 1.18-.1 2.18-.4 3.02-.82"/></g><g><path fill="#ffcc4d" d="M18.33 20.13c.1-.06.2-.12.3-.17.78.42 1.74.7 2.87.77-.05.08-.1.15-.16.22-1.18-.1-2.17-.4-3-.82"/></g><g><path fill="#ffcc4d" d="M14.36 20.5c-.05-.06-.1-.13-.13-.2 1.05-.04 1.94-.28 2.67-.68.07.06.15.1.23.17-.76.4-1.68.66-2.77.7"/></g><g><path fill="#ffcc4d" d="M14.23 16.25c-.37.64-.5 1.24-.5 2.02 0 .64.13 1.24.38 1.8 1.03 0 1.9-.23 2.6-.62-1.05-.84-1.9-1.84-2.47-3.2"/></g><g><path fill="#ffcc4d" d="M16.26 14.37c-.2.07-.4.28-.58.38.1 1.6.85 2.93 1.9 4.04.08-.08.15-.16.22-.24-.97-1.14-1.6-2.62-1.54-4.2"/></g><g><path fill="#ffcc4d" d="M21.65 20.5c.04-.06.08-.13.13-.2-1.06-.04-1.95-.28-2.67-.68-.07.06-.15.1-.23.17.76.4 1.68.66 2.78.7"/></g><g><path fill="#ffcc4d" d="M21.78 16.25c.36.64.5 1.24.5 2.02 0 .64-.14 1.24-.4 1.8-1 0-1.87-.23-2.56-.62 1.03-.84 1.87-1.84 2.46-3.2"/></g><g><path fill="#ffcc4d" d="M18 18.2c.77-1.24.92-2.6.87-4.12-.33-.08-.5-.1-.87-.1-.36 0-.54.02-.87.1-.04 1.45.1 2.83.87 4.1"/></g><g><path fill="#ffcc4d" d="M19.74 14.37c.2.07.4.22.58.32-.1 1.6-.85 2.98-1.9 4.1-.07-.08-.15-.16-.22-.24.97-1.14 1.6-2.62 1.54-4.2"/></g><g><path fill="#ffcc4d" d="M17.32 19.02c-.1.07-.2.15-.3.22-1.07-.96-1.88-2.08-2.33-3.6.16-.2.15-.33.35-.48.28 1.6 1.2 2.8 2.27 3.86"/></g><g><path fill="#ffcc4d" d="M18.68 19.02c.1.07.2.15.3.22 1.08-.96 1.88-2.1 2.33-3.62-.16-.2-.18-.3-.38-.46-.28 1.6-1.15 2.8-2.24 3.86"/></g><g><path fill="#ffcc4d" d="M18 19.95c.06-.04.24-.15.3-.18-.1-.05-.25-.16-.3-.2-.04.04-.2.15-.28.2.04.03.23.14.28.18"/></g><g><path fill="#ffcc4d" d="M17.46 19.6c-.07-.07-.18-.15-.23-.2.1-.06.25-.16.3-.2.05.05.16.15.22.2-.08.04-.23.16-.3.2"/></g><g><path fill="#ffcc4d" d="M18.54 19.6c.08-.07.2-.15.23-.2-.1-.06-.25-.16-.3-.2-.05.05-.16.15-.22.2.08.04.24.16.3.2"/></g><g><path fill="#ffcc4d" d="M18 19.2c.05-.05.2-.17.22-.2-.06-.07-.16-.17-.22-.23-.05.06-.15.16-.22.22.03.03.17.15.22.2"/></g></g></g></g></svg>