<svg xmlns="http://www.w3.org/2000/svg" viewBox="0 0 45 45" enable-background="new 0 0 45 45"><defs><clipPath id="a"><path d="M4 31c-2.2 0-4-1.8-4-4V9c0-2.2 1.8-4 4-4h28c2.2 0 4 1.8 4 4v18c0 2.2-1.8 4-4 4H4z"/></clipPath></defs><g><g><g clip-path="url(#a)" transform="matrix(1.25 0 0 -1.25 0 45)"><path fill="#eee" d="M18 31H0V18h18v13z"/><path fill="#eee" d="M18 5h18v13H18V5z"/><g><path fill="#005293" d="M9.67 25.43L9 27.5l-.67-2.07H6.15l1.76-1.28-.66-2.08L9 23.35l1.76-1.28-.67 2.08 1.75 1.28H9.67z"/></g><path fill="#005293" d="M0 5h18v13H0V5z"/><path fill="#d21034" d="M18 18h18v13H18V18z"/><g><path fill="#d21034" d="M25.9 11.15l-.66-2.08L27 10.35l1.76-1.28-.67 2.08 1.75 1.28h-2.18L27 14.5l-.67-2.07h-2.18l1.76-1.28z"/></g></g></g></g></svg>