<svg xmlns="http://www.w3.org/2000/svg" viewBox="0 0 45 45" enable-background="new 0 0 45 45"><defs><clipPath id="a"><path d="M0 36h36V0H0v36z"/></clipPath><clipPath id="b"><path d="M4 31c-2.2 0-4-1.8-4-4V9c0-2.2 1.8-4 4-4h28c2.2 0 4 1.8 4 4v18c0 2.2-1.8 4-4 4H4z"/></clipPath><clipPath id="c"><path d="M0 36h36V0H0v36z"/></clipPath></defs><g><g><g clip-path="url(#a)" transform="matrix(1.25 0 0 -1.25 0 45)"><g><path fill="#319209" d="M36 9c0-2.2-1.8-4-4-4H4C1.8 5 0 6.8 0 9v18c0 2.2 1.8 4 4 4h28c2.2 0 4-1.8 4-4V9z"/></g></g></g><g><g clip-path="url(#b)" transform="matrix(1.25 0 0 -1.25 0 45)"><path fill="#ffd200" d="M36 8H0v20h36V8z"/><path fill="#de200f" d="M36 12H0v12h36V12z"/><path fill="#141414" d="M36 16H0v4h36v-4z"/><g><path fill="#141414" d="M1 31l17-13L1 5H0v26h1z"/></g><g><path fill="#eee" d="M0 31l17-13L0 5v26z"/></g></g></g><g><g clip-path="url(#c)" transform="matrix(1.25 0 0 -1.25 0 45)"><g><path fill="#de200f" d="M6.68 24.4l1.8-3.6 3.97-.6-2.88-2.8.68-3.98-3.57 1.88-3.57-1.88.7 3.98-2.9 2.8 4 .6 1.78 3.6z"/></g><g><path fill="#ffd200" d="M2.88 22.13s.16.62.75.75c.37.9 1.25 1.04 1.9 0 .68-1.05 1.05-1.6 1.97-2.34.92-.75 3.96-2.87 3.96-2.87h-.5l-.83-3.57H4.18l-.4 2.03s-.65.3-.07 1.45c.6 1.17.93 1.54.84 2.88-.08 1.33-.7 1.96-1.66 1.66"/></g><g><path fill="none" stroke="#f15a29" stroke-width=".1" d="M2.88 22.13s.16.62.75.75c.37.9 1.25 1.04 1.9 0 .68-1.05 1.05-1.6 1.97-2.34.92-.75 3.96-2.87 3.96-2.87h-.5l-.83-3.57H4.18l-.4 2.03s-.65.3-.07 1.45c.6 1.17.93 1.54.84 2.88-.08 1.33-.7 1.96-1.66 1.66z"/></g><g><path fill="#ffac33" d="M10.96 17.67s-3.03.36-3.8.5c-.75.1-1.35 1.3-1.35 1.3l-.33-.24S6.1 17.86 7 17.67c.9-.2 3.84-.53 3.84-.53l.12.53z"/></g><g><path fill="#ffac33" d="M10.7 16.32s-3.08.5-3.9.54c-.8.05-1.6-.35-1.74-.77 0 0 1.28.1 1.94 0 .66-.1 3.57-.27 3.57-.27l.12.5z"/></g><g><path fill="#ffac33" d="M5.72 15.13s2.52.16 4.6-.25l-.2-.78H5.88l-.15 1.03z"/></g></g></g></g></svg>