<svg xmlns="http://www.w3.org/2000/svg" viewBox="0 0 45 45" enable-background="new 0 0 45 45"><defs><clipPath id="a"><path d="M0 36h36V0H0v36z"/></clipPath></defs><g><g><g clip-path="url(#a)" transform="matrix(1.25 0 0 -1.25 0 45)"><g><path fill="#008000" d="M0 9c0-2.2 1.8-4 4-4h28c2.2 0 4 1.8 4 4v4H0V9z"/></g><g><path fill="#eee" d="M32 31H4c-2.2 0-4-1.8-4-4v-4h36v4c0 2.2-1.8 4-4 4"/></g><g><path fill="#db161b" d="M36 23H9v8H4c-2.2 0-4-1.8-4-4V9c0-2.2 1.8-4 4-4h5v8h27v10z"/></g><g><path fill="#eee" d="M3.63 27.55c.3-.57.3-.8.22-.84-.1-.04-.24.1-.55.66-.32.57-.68 1.35-.6 1.4.1.05.6-.65.92-1.2"/></g><g><path fill="#eee" d="M5.52 27.9c-.32-.57-.5-1.07-.4-1.12.08-.05.4.37.72.93.32.58.5 1.08.4 1.13-.08.05-.4-.37-.72-.93"/></g><g><path fill="#eee" d="M4.95 26.98l-.3 1.43h-.02c.1.06.18.14.18.25 0 .16-.13.3-.32.3-.18 0-.32-.14-.32-.3 0-.1.07-.2.17-.24l-.28-1.43h.9z"/></g><g><path fill="#eee" d="M6.7 24.23c-.27.23-1.35 1.16-1.86 1.72.05.16.08.33.07.52h.92v-.18h1.1v.52H5.8v-.17h-.93v.26h-.82v-.26h-.33v-.02H3.1v.22H2.1v-.58H3.1v.22h.93l-.04-.4s-1.05-.04-1.33-.08c-.7-.1-.47-.3.1-.5.26-.1.5-.12.76-.13-.4-.43-1.2-1.06-1.4-1.17-.22-.12-.22-.28.2-.18.4.1 1.35.92 1.68 1.34.1 0 .2 0 .3.02.15 0 .27.1.37.22.42-.5 1.26-1.25 1.6-1.46.36-.22.52-.2.65-.2.13.03.06.06-.22.3"/></g></g></g></g></svg>