<svg xmlns="http://www.w3.org/2000/svg" viewBox="0 0 45 45" enable-background="new 0 0 45 45"><defs><clipPath id="a"><path d="M0 36h36V0H0v36z"/></clipPath><clipPath id="b"><path d="M0 36h36V0H0v36z"/></clipPath></defs><g><g><g clip-path="url(#a)" transform="matrix(1.25 0 0 -1.25 0 45)"><g><path fill="#eee" d="M36 9c0-2.2-1.8-4-4-4H4C1.8 5 0 6.8 0 9v18c0 2.2 1.8 4 4 4h28c2.2 0 4-1.8 4-4V9z"/></g></g></g><text fill="#d42e11" style="-inkscape-font-specification:Helvetica" transform="matrix(1.25 0 0 1.25 10.6 13.75)" font-size="4" font-family="Helvetica"><tspan x="0 3.7320001 6.1040001 8.7720003 11.884 14.488 17.172001" y="0">MAYOTTE</tspan></text><g><g clip-path="url(#b)" transform="matrix(1.25 0 0 -1.25 0 45)"><g><path fill="none" stroke="#231f20" stroke-width=".25" stroke-miterlimit="10" d="M13.28 22.66V14.2c0-1.1.62-2 1.72-2h2c1 0 1-1 1-1s0 1 1 1h2c1.1 0 1.7.9 1.7 2v8.46h-9.42z" stroke-linecap="round" stroke-linejoin="round"/></g><g><path fill="#269" d="M20.5 19.47c0-.53-.45-.97-1-.97s-1 .44-1 .97c0 .54.45.98 1 .98s1-.44 1-.98"/></g><g><path fill="#269" d="M20.5 17.97c0-.53-.45-.97-1-.97s-1 .44-1 .97c0 .54.45.98 1 .98s1-.44 1-.98"/></g><g><path fill="#269" d="M19 19.47c0-.53-.45-.97-1-.97s-1 .44-1 .97c0 .54.45.98 1 .98s1-.44 1-.98"/></g><g><path fill="#269" d="M19 17.97c0-.53-.45-.97-1-.97s-1 .44-1 .97c0 .54.45.98 1 .98s1-.44 1-.98"/></g><g><path fill="#269" d="M17.5 19.47c0-.53-.45-.97-1-.97s-1 .44-1 .97c0 .54.45.98 1 .98s1-.44 1-.98"/></g><g><path fill="#269" d="M17.5 17.97c0-.53-.45-.97-1-.97s-1 .44-1 .97c0 .54.45.98 1 .98s1-.44 1-.98"/></g><g><path fill="#171796" d="M22 19.47c0 .3-.16.58-.4.75.24.18.4.45.4.75 0 .54-.45.98-1 .98-.3 0-.55-.13-.74-.33-.18.23-.45.38-.76.38-.3 0-.57-.14-.75-.35-.18.2-.45.35-.75.35s-.57-.14-.75-.36c-.18.22-.45.36-.75.36s-.57-.14-.75-.36c-.18.22-.45.36-.75.36-.55 0-1-.45-1-1 0-.3.14-.57.36-.75-.22-.18-.36-.45-.36-.75s.14-.57.36-.75c-.22-.18-.36-.45-.36-.75 0-.55.45-1.25 1-1.25.37 0 .67.25.85.25h4.3c.17 0 .48-.25.85-.25.55 0 1 .56 1 1.1 0 .3-.16.63-.4.8.24.2.4.52.4.82"/></g><g><path fill="#d42e11" d="M22 16.97c0 .2-.06.38-.16.53h-7.68c-.1-.15-.16-.33-.16-.53 0-.3.14-.57.37-.75-.23-.17-.37-.44-.37-.75 0-.3.14-.57.37-.75-.23-.17-.37-.44-.37-.75 0-.53.45-.97 1-.97.3 0 .57.13.75.34.18-.2.45-.34.75-.34s.57.13.75.34c.18-.2.45-.34.75-.34s.57.13.75.34c.18-.2.45-.34.75-.34s.57.13.75.34c.18-.2.45-.34.75-.34.55 0 1 .44 1 .97 0 .3-.14.58-.37.75.23.18.37.45.37.75s-.14.58-.37.75c.23.18.37.45.37.75"/></g><g><path fill="#eee" d="M18 19c-.93 0-1.7.64-1.93 1.5-.04-.16-.07-.33-.07-.5 0-1.1.9-2 2-2s2 .9 2 2c0 .17-.03.34-.07.5-.22-.86-1-1.5-1.93-1.5"/></g><g><path fill="#ffac33" d="M16.87 15.37c-.1.06-.2.1-.3.13.1.03.2.07.3.13.3.16.47.37.42.47-.07.1-.34.04-.63-.13-.1-.05-.18-.12-.25-.18.02.08.03.18.03.3 0 .33-.1.6-.2.6s-.2-.27-.2-.6c0-.12 0-.22.03-.3-.07.05-.15.12-.25.17-.3.17-.56.23-.62.13-.04-.1.14-.3.43-.47.1-.06.2-.1.3-.13-.1-.03-.2-.07-.3-.13-.3-.16-.47-.37-.42-.47.07-.1.34-.04.63.13.1.05.18.12.25.18-.02-.08-.03-.18-.03-.3 0-.33.1-.6.2-.6s.2.27.2.6c0 .12 0 .22-.03.3.07-.05.15-.12.25-.17.3-.17.56-.23.62-.13.04.1-.14.3-.43.47"/></g><g><path fill="#ffac33" d="M20.37 15.37c-.1.06-.2.1-.3.13.1.03.2.07.3.13.3.16.47.37.42.47-.07.1-.34.04-.63-.13-.1-.05-.18-.12-.25-.18.02.08.03.18.03.3 0 .33-.1.6-.2.6s-.2-.27-.2-.6c0-.12 0-.22.03-.3-.07.05-.15.12-.25.17-.3.17-.56.23-.62.13-.04-.1.14-.3.43-.47.1-.06.2-.1.3-.13-.1-.03-.2-.07-.3-.13-.3-.16-.47-.37-.42-.47.07-.1.34-.04.63.13.1.05.18.12.25.18-.02-.08-.03-.18-.03-.3 0-.33.1-.6.2-.6s.2.27.2.6c0 .12 0 .22-.03.3.07-.05.15-.12.25-.17.3-.17.56-.22.62-.13.05.1-.14.3-.43.47"/></g><g><path fill="#ccd6dd" d="M9.18 7.34s2.4 1.3 3.17 1.47c.77.2 1.65.2 1.3-.3-.36-.54.06-1.18-.5-1.1-.54.05-1.8-.52-2.25-.72-.47-.2-1.15-.55-1.15-.55l-.57 1.2z"/></g><g><path fill="#66757f" d="M14 8.16c-.13.33-.3.65-.3.65s-.1-.2-.4-.32c-.26-.12-.5-.33-.44-.48.1-.2 1.14.16 1.14.16"/></g><g><path fill="#ccd6dd" d="M27.15 7.34S24.75 8.64 24 8.8c-.78.2-1.66.2-1.3-.3.34-.54-.08-1.18.47-1.1.55.05 1.8-.52 2.27-.72.46-.2 1.14-.55 1.14-.55l.57 1.2z"/></g><g><path fill="#66757f" d="M22.34 8.16c.13.33.3.65.3.65s.1-.2.4-.32c.25-.12.5-.33.44-.48-.1-.2-1.14.16-1.14.16"/></g><g><path fill="#ccd6dd" d="M21.96 8.66c-.6.2-2.22.3-2.75.3h-2.08c-.53 0-2.15-.1-2.75-.3-.6-.2-1.1-.67-1.52-.66.03-.12.07-.28.22-.77.16-.48.58-.46 1.06-.22.48.25 1.2.4 1.85.4H20.36c.66 0 1.36-.15 1.84-.4.5-.23.9-.25 1.06.23.15.5.2.65.22.77-.4 0-.92.46-1.52.66"/></g><path fill="#99aab5" d="M17.3 7.68H15.6v.82h1.73v-.82z"/><path fill="#99aab5" d="M21.13 7.68h-2.95v.82h2.95v-.82z"/><g><path fill="#ccd6dd" d="M6.46 23.13l1-.25.83.66s1 .38 1.53.1c.54-.3.08-.27-.42-.4-.5-.1-.6-.6-.47-.8.2-.28.76-.3.7.12-.04.2.78-.23.7-.68l-.1-.46s-.03-1.05.64-1.25c.67-.2.6-.84-.03-.8-.63.05-1.68.84-1.68.84s-.54-.37-.67-.12c0 0-1.3.3-1.13 1.46 0 0-.4-1.3.4-1.73 1.18-.62 1.32-.18 2.3-.97 1.17-.92 2.1-2.64 1.8-5.02-.3-2.36-.96-3.96-3.63-3.96-1.56 0-2.4 1.17-2.4 2.32 0 1.14 1.03 1.84 1.7 1.84.77 0 1.02-.75.92-.94-.3-.63-.6-.2-.37.1.14.18-.17.48-.54.46-.75-.03-1.16-.76-1.16-1.46s.8-1.8 1.8-1.8 2.13.93 2.13 2.35-.6 2.34-1.54 3.13l-.5-.92s-1.83.27-2.87 1.35-.94 2.46-.75 2.3c.44-.33 1.48-.38 1.48-.38s-.4.87-.7 1.04c-.3.17-.9 1.07-.43 2.1.45 1.05 1.13 1.37 1.3 1.03.16-.33.6-.1.48.23-.12.34-.34.56-.34.56"/></g><g><path fill="#99aab5" d="M5.93 18.6c.6-.82 1.28-1.88 2.28-2.4 1-.54 2.17-1.92 2.17-3.3 0-1.37-.93-2.53-2.17-2.53-1.24 0-1.83 1.16-1.83 1.9 0 .76.66 1.17.66 1.17s-.72-.16-.88-1.1c-.14-.83.66-2.18 1.97-2.18 1.94 0 2.66 1.3 2.66 2.75 0 1.44-1.25 3-2.1 3.85-.84.84-2 1.8-2.53 2.37-.53.57-.22-.53-.22-.53"/></g><g><path fill="#ccd6dd" d="M29.48 23.13l-1-.25-.82.66s-1 .38-1.55.1c-.53-.3-.07-.27.43-.4.5-.1.6-.6.48-.8-.18-.28-.75-.3-.68.12.03.2-.8-.23-.7-.68l.08-.46s.04-1.05-.63-1.25c-.66-.2-.6-.84.03-.8.63.05 1.68.84 1.68.84s.54-.37.67-.12c0 0 1.3.3 1.12 1.46 0 0 .4-1.3-.4-1.73-1.17-.62-1.32-.18-2.3-.97-1.17-.92-2.1-2.64-1.8-5.02.3-2.36.96-3.96 3.63-3.96 1.56 0 2.4 1.17 2.4 2.32 0 1.14-1.03 1.84-1.68 1.84-.8 0-1.04-.75-.94-.94.3-.63.6-.2.37.1-.15.18.16.48.53.46.75-.03 1.16-.76 1.16-1.46s-.8-1.8-1.8-1.8-2.13.93-2.13 2.35.6 2.34 1.56 3.13l.47-.92s1.84.27 2.88 1.35c1.05 1.08.95 2.46.76 2.3-.44-.33-1.48-.38-1.48-.38s.42.87.7 1.04c.3.17.9 1.07.44 2.1-.46 1.05-1.14 1.37-1.3 1.03-.17-.33-.6-.1-.5.23.14.34.36.56.36.56"/></g><g><path fill="#99aab5" d="M30 18.6c-.58-.82-1.27-1.88-2.27-2.4-1-.54-2.16-1.92-2.16-3.3 0-1.37.93-2.53 2.17-2.53 1.24 0 1.83 1.16 1.83 1.9 0 .76-.65 1.17-.65 1.17s.7-.16.87-1.1c.13-.83-.67-2.18-1.98-2.18-1.94 0-2.65 1.3-2.65 2.75 0 1.44 1.25 3 2.1 3.85.83.84 2 1.8 2.52 2.37.52.57.2-.53.2-.53"/></g></g></g></g></svg>