<svg xmlns="http://www.w3.org/2000/svg" viewBox="0 0 45 45" enable-background="new 0 0 45 45"><defs><clipPath id="a"><path d="M4 31c-2.2 0-4-1.8-4-4V9c0-2.2 1.8-4 4-4h28c2.2 0 4 1.8 4 4v18c0 2.2-1.8 4-4 4H4z"/></clipPath></defs><g><g><g clip-path="url(#a)" transform="matrix(1.25 0 0 -1.25 0 45)"><g><path fill="#d20000" d="M36 31L21.53 20.55c-.2.28-.44.53-.7.75L30.5 31H20l-1.55-8.67c-.15.02-.3.03-.45.03-.15 0-.3 0-.45-.03L16 31H5.5l9.67-9.7c-.26-.22-.5-.47-.7-.75L0 31V20.5l13.7-1.9c-.04-.2-.06-.4-.06-.6 0-.2.02-.4.05-.6L0 15.5V5l14.47 10.45c.2-.28.44-.53.7-.75L5.5 5H16l1.55 8.67c.15-.02.3-.03.45-.03.15 0 .3 0 .45.03L20 5h10.5l-9.67 9.7c.26.22.5.47.7.75L36 5v10.5l-13.7 1.9c.04.2.06.4.06.6 0 .2-.02.4-.05.6L36 20.5V31z"/></g><g><path fill="#ffe600" d="M13.64 18c0 .2.02.4.05.6L0 20.5v-5l13.7 1.9c-.04.2-.06.4-.06.6"/></g><g><path fill="#ffe600" d="M18 22.36c.15 0 .3 0 .45-.03L20 31h-4l1.55-8.67c.15.02.3.03.45.03"/></g><g><path fill="#ffe600" d="M21.53 20.55L36 31h-5.5l-9.67-9.7c.26-.22.5-.47.7-.75"/></g><g><path fill="#ffe600" d="M18 13.64c-.15 0-.3 0-.45.03L16 5h4l-1.55 8.67c-.15-.02-.3-.03-.45-.03"/></g><g><path fill="#ffe600" d="M15.17 21.3L5.5 31H0l14.47-10.45c.2.28.44.53.7.75"/></g><g><path fill="#ffe600" d="M14.47 15.45L0 5h5.5l9.67 9.7c-.26.22-.5.47-.7.75"/></g><g><path fill="#ffe600" d="M20.83 14.7L30.5 5H36L21.53 15.45c-.2-.28-.44-.53-.7-.75"/></g><g><path fill="#ffe600" d="M22.36 18c0-.2-.02-.4-.05-.6L36 15.5v5l-13.7-1.9c.04-.2.06-.4.06-.6"/></g><g><path fill="#ffe600" d="M18 21.36c-1.85 0-3.36-1.5-3.36-3.36 0-1.85 1.5-3.36 3.36-3.36 1.85 0 3.36 1.5 3.36 3.36 0 1.85-1.5 3.36-3.36 3.36"/></g></g></g></g></svg>