<svg xmlns="http://www.w3.org/2000/svg" viewBox="0 0 45 45" enable-background="new 0 0 45 45"><defs><clipPath id="a"><path d="M0 36h36V0H0v36z"/></clipPath></defs><g><g><g clip-path="url(#a)" transform="matrix(1.25 0 0 -1.25 0 45)"><g><path fill="#3b88c3" d="M36 4c0-2.2-1.8-4-4-4H4C1.8 0 0 1.8 0 4v28c0 2.2 1.8 4 4 4h28c2.2 0 4-1.8 4-4V4z"/></g><g><path fill="#fff" d="M26.62 27c0 1.24-.93 2.26-2.23 2.26-.82 0-1.53-.34-1.93-.93L18 21.85l-4.46 6.48c-.4.6-1.12.93-1.93.93-1.3 0-2.22-1.02-2.22-2.26 0-.5.16-1 .44-1.4L15 18.3V9.9C15 8.3 16.3 7 17.9 7h.2C19.7 7 21 8.3 21 9.9v8.4l5.2 7.3c.27.4.42.9.42 1.4"/></g></g></g></g></svg>