<svg xmlns="http://www.w3.org/2000/svg" viewBox="0 0 45 45" enable-background="new 0 0 45 45"><defs><clipPath id="a"><path d="M0 36h36V0H0v36z"/></clipPath><clipPath id="b"><path d="M4 31c-2.2 0-4-1.8-4-4V9c0-2.2 1.8-4 4-4h28c2.2 0 4 1.8 4 4v18c0 2.2-1.8 4-4 4H4z"/></clipPath><clipPath id="c"><path d="M0 36h36V0H0v36z"/></clipPath></defs><g><g><g clip-path="url(#a)" transform="matrix(1.25 0 0 -1.25 0 45)"><g><path fill="#d21034" d="M36 9c0-2.2-1.8-4-4-4H4C1.8 5 0 6.8 0 9v18c0 2.2 1.8 4 4 4h28c2.2 0 4-1.8 4-4V9z"/></g></g></g><g><g clip-path="url(#b)" transform="matrix(1.25 0 0 -1.25 0 45)"><path fill="#009543" d="M36 18H0V5h36v13z"/><g><path fill="#141414" d="M-1 31.96L17 21h19v-6H17L-1 4v27.96z"/></g><g><path fill="#fdce12" d="M36 19v-2H17L-1 6v24l18-11h19z"/></g></g></g><g><g clip-path="url(#c)" transform="matrix(1.25 0 0 -1.25 0 45)"><g><path fill="#141414" d="M0 27l15-9L0 9v18z"/></g><g><path fill="#fdce12" d="M4.38 14.4s3.25.5 3.25 3.7c0 1.98-1.7 3.07-3.05 3.07-1.33 0-2.75-1-2.75-2.75s1.63-2.3 2.42-2.3c.8 0 2 .63 1.83 2-.46-1.9-2.4-1.85-3.16-.7-.84 1.27.46 3.08 2.12 2.58 1.58-.47 1.66-2.08 1.13-3.08-.67-1.25-1.77-1.2-1.77-1.2l-.03-1.33z"/></g><g><path fill="#fdce12" d="M3.42 17.27s-.04.45.16.7c.65.86 1.8 1.47 1.94 1.38.15-.08-.4-.25-.96-.9-.27-.33-.43-.64-.64-.85-.23-.22-.5-.33-.5-.33"/></g><g><path fill="#fdce12" d="M5.54 17.27s.04.45-.16.7c-.65.86-1.8 1.47-1.94 1.38-.15-.08.4-.25.96-.9.27-.33.43-.64.64-.85.23-.22.5-.33.5-.33"/></g></g></g></g></svg>