<svg xmlns="http://www.w3.org/2000/svg" viewBox="0 0 45 45" enable-background="new 0 0 45 45"><defs><clipPath id="a"><path d="M0 36h36V0H0v36z"/></clipPath></defs><g><g><g clip-path="url(#a)" transform="matrix(1.25 0 0 -1.25 0 45)"><g><path fill="#002b7f" d="M36 9c0-2.2-1.8-4-4-4H4C1.8 5 0 6.8 0 9v18c0 2.2 1.8 4 4 4h28c2.2 0 4-1.8 4-4V9z"/></g><path fill="#ffc61e" d="M36 17H0v2h36v-2z"/><g><path fill="#fff" d="M9.98 16.52l.5-1.96 1.4 1.45-.56-1.94 1.95.56-1.45-1.4 1.96-.5-1.96-.5 1.45-1.4-1.95.55.56-1.95-1.4 1.46-.5-1.96-.5 1.96-1.4-1.46.55 1.95-1.94-.55 1.44 1.4-1.96.5 1.96.5-1.45 1.4 1.93-.56L8.08 16l1.4-1.44.5 1.96z"/></g></g></g></g></svg>