<svg xmlns="http://www.w3.org/2000/svg" viewBox="0 0 45 45" enable-background="new 0 0 45 45"><defs><clipPath id="a"><path d="M0 36h36V0H0v36z"/></clipPath><clipPath id="b"><path d="M4 31c-2.2 0-4-1.8-4-4V9c0-2.2 1.8-4 4-4h28c2.2 0 4 1.8 4 4v18c0 2.2-1.8 4-4 4H4z"/></clipPath><clipPath id="c"><path d="M0 36h36V0H0v36z"/></clipPath></defs><g><g><g clip-path="url(#a)" transform="matrix(1.25 0 0 -1.25 0 45)"><g><path fill="#d90000" d="M36 9c0-2.2-1.8-4-4-4H4C1.8 5 0 6.8 0 9v18c0 2.2 1.8 4 4 4h28c2.2 0 4-1.8 4-4V9z"/></g></g></g><g><g clip-path="url(#b)" transform="matrix(1.25 0 0 -1.25 0 45)"><path fill="#fcdc02" d="M36 10H0v4h36v-4z"/><path fill="#141414" d="M36 26H0v5h36v-5z"/><path fill="#fcdc02" d="M36 22H0v4h36v-4z"/><path fill="#141414" d="M36 14H0v4h36v-4z"/></g></g><g><g clip-path="url(#c)" transform="matrix(1.25 0 0 -1.25 0 45)"><g><path fill="#fff" d="M22 18c0-2.2-1.8-4-4-4s-4 1.8-4 4 1.8 4 4 4 4-1.8 4-4"/></g><g><path fill="#d90000" d="M17.34 20.97l-.26.7s.58.2 1.14 0c.43-.15.47-.7.47-.7l-.68-.2-.68.2z"/></g><g><path fill="#fcdc02" d="M17.6 21.08v.68s.1.05.42 0c.3-.04.45-.26.45-.26l-.44-.53-.44.1z"/></g><g><path fill="#141414" d="M18.47 16.4h-.22l.08.4s.3-.4.14-.4m-.72 2.7c-.1.15 0 1 .23 1.07.24.06.7.8 0 1.06-.7.25-.84-.48-.84-.48s-.7-.2-.6-.38c.08-.16.66.07.8-.08.1-.15-.07-.36-.57-.95-.5-.58-.17-1.37.06-1.57.23-.2.5-.36.7-.55.22-.2.45-.3.45-.3v-.6s-.7-.06-1.03-.02c-.33.05-.56-.18-.64-.45-.08-.27.13-.4.13-.2s.1.08.1-.1c.02-.15.17-.1.17.12 0 .2.1.12.1.02.03-.12.17.03.2.15.02.13.2.2.37.23.17.04.6-.04.6-.04v-1.1s-.9-.07-1-.2c-.08-.12.57-.1.57-.1s-.2-.35-.1-.37c.08-.02.66.35.9.4.22.04.57-.1.6 0 .05.1-.55.25-.6.35-.07.1-.2 1.06-.2 1.06s.27.02.6 0c.34-.02.26.27.05.57-.22.3-.03.37.32.3.35-.06.63 0 .63.57 0 .56-1.92 1.44-2 1.58"/></g><g><path fill="#d90000" d="M17.47 20.2c.03.24-.37.22-.4 0 0-.24.36-.37.4 0"/></g><g><path fill="#9ca69c" d="M17.75 18.95c.1.04 1.4-.54 1.75-.7.34-.16.3-.75.24-1.1-.05-.37-.26-.48-.26-.48s-.22.58-.93.86c-.96.38-1.24 1.27-.8 1.42"/></g><g><path fill="#d90000" d="M19.2 18.27c.42-.1 1.32-.32 1.4-1.22.07-.9-.85-1.44-.85-1.44l.15.3-.27-.1.12.2-.44-.1s.74.58.48 1.1c.02-.43-.26-.55-.26-.55s.24.6-.83 1.25c.1.03.27.08.27.08l-.28.22.58-.22-.28.34.56-.2-.36.35z"/></g><g><path fill="#9ca69c" d="M17.6 20.66c0-.05-.05-.1-.1-.1-.06 0-.1.05-.1.1 0 .06.04.1.1.1.05 0 .1-.04.1-.1"/></g></g></g></g></svg>