<svg xmlns="http://www.w3.org/2000/svg" viewBox="0 0 45 45" enable-background="new 0 0 45 45"><defs><clipPath id="a"><path d="M0 36h36V0H0v36z"/></clipPath></defs><g><g><g clip-path="url(#a)" transform="matrix(1.25 0 0 -1.25 0 45)"><g><path fill="#244aa5" d="M36 9c0-2.2-1.8-4-4-4H4C1.8 5 0 6.8 0 9v18c0 2.2 1.8 4 4 4h28c2.2 0 4-1.8 4-4V9z"/></g><g><path fill="#d0a650" d="M17 22.3c.06 0 .17 0 .22 0 .12-.12.25-.24.38-.37 0-.1.04-.17.13-.2-.08-.02-.17-.03-.26-.04-.04-.06-.08-.1-.14-.12.02-.15.15-.23.24-.32.1 0 .2 0 .27-.08.07 0 .13 0 .2 0 0-.1 0-.2 0-.28.1 0 .2 0 .22.1.15 0 .3 0 .45 0 .05-.08.15-.1.22-.12 0-.05.03-.14.04-.2.07.1.14.24.28.24.05-.06.1-.12.13-.18.08 0 .17 0 .2-.1.03 0 .1 0 .14 0 0-.17 0-.34.02-.5.02 0 .06-.04.08-.05 0-.15 0-.28 0-.4.08-.08.23-.15.3-.02h.12c.05-.08.1-.14.2-.2 0-.12 0-.25 0-.38.16-.07.05-.3.1-.45.07-.06.14-.13.18-.24.03.06.06.1.08.15.1 0 .2 0 .3 0 .05-.06.1-.1.14-.17.02-.02.06-.06.08-.1.07 0 .14-.02.2-.07.06 0 .12 0 .18 0 .04-.1.16-.1.26-.12-.03-.02-.1-.07-.13-.1 0-.2.02-.43 0-.65-.02 0-.06-.03-.08-.04 0-.13-.02-.24-.1-.33.05 0 .14 0 .2 0 0-.02 0-.07 0-.1h.08c0 .03 0 .08 0 .1h.17c0-.02 0-.07 0-.1.1 0 .24.04.3-.07.24 0 .5 0 .73 0 0-.03 0-.1 0-.13.05-.04.1-.1.13-.13.08 0 .16 0 .25 0 0-.04 0-.1 0-.15.06-.08.15-.14.26-.14 0 .05 0 .14 0 .18.04 0 .12 0 .16 0 0 .03 0 .08 0 .1.13 0 .28.03.3-.12.03.03.08.1.1.14.08-.02.15-.08.2-.12 0-.04 0-.1 0-.14.15-.03.1-.17.1-.27-.05-.04-.1-.1-.16-.13 0-.14 0-.28 0-.42-.05 0-.13 0-.17 0V15c-.1-.07-.18-.16-.27-.24v-.3c-.06-.05-.13-.1-.2-.15v-.1c-.06-.07-.13-.12-.22-.13-.05-.05-.1-.1-.13-.16-.03 0-.1 0-.12-.02.05-.03.1-.06.15-.1 0-.18 0-.37 0-.56-.12-.1-.27-.1-.4-.1-.06-.05-.1-.1-.16-.17-.1 0-.18-.07-.24-.14 0-.08 0-.17 0-.26.16-.1.23-.32.43-.3 0-.16.04-.34-.1-.44-.07 0-.13 0-.2 0-.1-.14-.32-.04-.46-.06v.16c-.05 0-.1 0-.14 0-.05-.05-.1-.1-.15-.16-.08 0-.15-.05-.2-.1-.1 0-.2 0-.3 0 0-.03 0-.08 0-.1-.1 0-.16 0-.24 0-.05-.06-.1-.13-.1-.22-.06-.05-.1-.1-.16-.14 0-.1 0-.22-.1-.27.02-.1-.07-.32.1-.36 0-.04 0-.08 0-.13-.24 0-.47 0-.7 0 0 .1 0 .16 0 .24-.18.05-.07.27-.1.4-.03 0-.08 0-.1 0 0 .04 0 .1 0 .15-.08 0-.16 0-.2.08h-.13c0 .06 0 .12 0 .18-.14 0-.3 0-.43 0 0-.03 0-.1 0-.13-.05-.04-.1-.08-.13-.13-.07 0-.14 0-.2 0-.05-.05-.1-.1-.12-.16-.1 0-.2 0-.32 0-.04-.05-.08-.1-.12-.13 0-.03 0-.1 0-.12-.1 0-.17 0-.2-.1h-.2c-.05-.06-.1-.12-.13-.18-.13 0-.26 0-.4 0-.05-.15-.23-.08-.35-.1-.05-.07-.1-.13-.2-.18 0-.08 0-.16 0-.25-.02 0-.07 0-.1 0 0-.08 0-.16 0-.24-.05-.05-.1-.1-.17-.14 0-.22 0-.43 0-.65.06-.04.12-.1.18-.13 0-.2 0-.38 0-.57-.03-.03-.07-.07-.1-.1-.05 0-.12-.02-.16-.02 0-.03 0-.1 0-.14-.03-.04-.08-.1-.1-.13-.17 0-.32 0-.48 0-.07-.1-.15-.18-.22-.26-.1 0-.2 0-.3 0-.03.1-.04.17-.1.23 0 .2 0 .42 0 .62.08.1.17.17.26.26 0 .1 0 .2 0 .28-.02 0-.07.03-.1.05 0 .28 0 .56 0 .84h-.15c0 .1 0 .2-.1.22 0 .2-.02.4 0 .62-.06.05-.1.1-.17.14 0 .08 0 .17-.1.2 0 .07 0 .13 0 .2-.12.04-.1.22.02.24-.1.1-.2.18-.3.27 0 .03 0 .1 0 .12-.1 0-.2.06-.3.1-.03.07-.1.08-.18.08-.02.02-.05.06-.07.08-.07 0-.12.03-.17.08-.03 0-.1 0-.12 0-.04.17-.12.32-.1.5-.04.04-.08.08-.12.12-.22 0-.43 0-.65 0-.06 0-.1.02-.15.06-.04.05-.1.1-.14.14 0 .15 0 .3 0 .43-.04.1-.1.18-.16.27 0 .03 0 .1 0 .13-.03 0-.08 0-.1 0 0 .04 0 .1 0 .15-.1.06-.06.2-.08.3-.08 0-.17 0-.26 0 0 .03 0 .1 0 .13-.04.04-.08.08-.13.12-.03 0-.1 0-.14 0 0 .04 0 .1 0 .14-.08.05-.1.13-.1.22.05 0 .13 0 .18 0 0 .17 0 .33 0 .5-.05.08-.1.2-.18.27-.02.02-.06.07-.08.1-.03 0-.1 0-.12 0-.04.05-.08.1-.12.12 0 .07 0 .13 0 .2-.13.03-.08.17-.1.27-.16.1-.02.3.03.43.03.03.06.07.1.1.05.06.1.12.16.2h.2c.06-.07.1-.12.15-.18.04 0 .12 0 .15 0v-.17c.3 0 .58 0 .86 0 0 .08 0 .2.1.2 0 .17 0 .33 0 .5.1 0 .23-.02.3.07.04 0 .1 0 .14 0 0 .1 0 .2 0 .27.14 0 .28 0 .4 0 .03.04.05.1.06.1.1 0 .15-.03.18-.12.05.06.1.12.15.18.08.02.16.06.22.13.1.07.2.1.3.17-.02.02-.07.07-.1.1 0 .12-.08.2-.18.27 0 .12 0 .24 0 .36.08.07.15.14.22.2h.18c.1.16.25.3.4.4v.14c.03 0 .1 0 .14 0 .02-.1.1-.1.16-.1.04.05.08.1.12.13 0 .03 0 .1 0 .1.15.1.06.3.1.44.05.07.15.12.18.22-.03.1-.13.14-.2.2.06.23-.15.33-.26.48-.05 0-.1 0-.16 0 0 .1 0 .18-.08.22 0 .1 0 .2 0 .32.22 0 .44-.02.67 0 .02.03.04.07.05.1.1.04.2.1.28.16.1 0 .2 0 .28 0 .06.06.1.12.15.17.04 0 .1 0 .15 0 0 .03 0 .08 0 .1"/></g><g><path fill="#ededed" d="M28.02 26.8l-.38-1.2-1.23.02 1.02-.73-.4-1.17 1 .73 1-.73-.4 1.18 1 .72H28.4L28 26.8z"/></g><g><path fill="#ededed" d="M24 27.87l-.37-1.18H22.4l1-.73-.38-1.16 1 .74 1-.73-.4 1.2 1 .7h-1.24L24 27.87z"/></g><g><path fill="#ededed" d="M20 28.4l-.38-1.2-1.22.03 1-.73-.4-1.16 1 .73 1-.73-.4 1.18 1 .7h-1.23L20 28.4z"/></g><g><path fill="#ededed" d="M7.98 26.8l.38-1.2 1.23.02-1.02-.73.4-1.17-1 .73-1-.73.4 1.18-1 .72H7.6L8 26.8z"/></g><g><path fill="#ededed" d="M12 27.87l.37-1.18h1.22l-1-.73.38-1.16-1 .74-1-.73.4 1.2-1 .7h1.24l.37 1.17z"/></g><g><path fill="#ededed" d="M16 28.4l.38-1.2 1.22.03-1-.73.4-1.16-1 .73-1-.73.4 1.18-1 .7h1.23L16 28.4z"/></g></g></g></g></svg>