<svg xmlns="http://www.w3.org/2000/svg" viewBox="0 0 45 45" enable-background="new 0 0 45 45"><defs><clipPath id="a"><path d="M0 36h36V0H0v36z"/></clipPath></defs><g><g><g clip-path="url(#a)" transform="matrix(1.25 0 0 -1.25 0 45)"><g><path fill="#c10000" d="M32 31H15V18H0V9c0-2.2 1.8-4 4-4h28c2.2 0 4 1.8 4 4v18c0 2.2-1.8 4-4 4"/></g><g><path fill="#eeeded" d="M12 23H9v-3H6v3H3v3h3v3h3v-3h3v-3zm3 8H4c-2.2 0-4-1.8-4-4v-9h15v13z"/></g><g><path fill="#c10000" d="M9 29H6v-3H3v-3h3v-3h3v3h3v3H9v3z"/></g></g></g></g></svg>