<svg xmlns="http://www.w3.org/2000/svg" viewBox="0 0 45 45" enable-background="new 0 0 45 45"><defs><clipPath id="a"><path d="M0 36h36V0H0v36z"/></clipPath></defs><g><g><g clip-path="url(#a)" transform="matrix(1.25 0 0 -1.25 0 45)"><g><path fill="#ce1b26" d="M36 9c0-2.2-1.8-4-4-4H4C1.8 5 0 6.8 0 9v18c0 2.2 1.8 4 4 4h28c2.2 0 4-1.8 4-4V9z"/></g><g><path fill="#002b7f" d="M32 31H4c-2.2 0-4-1.8-4-4v-9h36v9c0 2.2-1.8 4-4 4"/></g><path fill="#b28914" d="M10 22H6v3h4v-3z"/><g><path fill="#b28914" d="M7.9 25.45l-.1-3.18H4.57c-.4.77-.72 1.43-.72 2.32 0 .73.58 1.32 1.42 1.32.9 0 1.88-.3 2.63-.47"/></g><g><path fill="#ffd83d" d="M7.83 25.6l-.03-.34c-.62.1-1.5.45-2.34.45-.76 0-1.36-.3-1.36-1.07 0-.76.33-1.45.75-2.15l-.44-.2c-.4.76-.72 1.42-.72 2.3 0 .75.6 1.48 1.6 1.48.9 0 1.8-.3 2.55-.47"/></g><g><path fill="#b28914" d="M8.47 25.45l.1-3.18h3.22c.4.77.72 1.43.72 2.32 0 .73-.6 1.32-1.43 1.32-.9 0-1.88-.3-2.63-.47"/></g><g><path fill="#ffd83d" d="M8.54 25.6l.02-.34c.63.1 1.5.45 2.34.45.77 0 1.36-.3 1.36-1.07 0-.76-.32-1.45-.75-2.15l.45-.2c.4.76.73 1.42.73 2.3 0 .75-.6 1.48-1.6 1.48-.88 0-1.8-.3-2.54-.47"/></g><g><path fill="#ffd83d" d="M8.18 27.73l-.26-.5.26-.48.26.5-.26.48zm0 1.24l-.26-.5.26-.48.26.48-.26.5z"/></g><g><path fill="#ffd83d" d="M8.3 27.86l.4-.26.42.26-.42.26-.4-.26zm-1.05 0l.4-.26.42.26-.4.26-.42-.26z"/></g><g><path fill="#ffd83d" d="M8.18 28.05c.1 0 .2-.08.2-.2 0-.1-.1-.2-.2-.2s-.2.1-.2.2c0 .12.1.2.2.2"/></g><g><path fill="#ffd83d" d="M8.18 27.12c.3 0 .53-.24.53-.53 0-.3-.22-.55-.52-.55-.3 0-.53.24-.53.54 0 .28.24.52.53.52"/></g><g><path fill="#ffd83d" d="M8.18 23.8c-.66 0-1.14-.3-1.17-1.1-.15.28-.83 1.17-1.47 1.05-.37-.07-.7-.6-.65-1.2-.3.9-1.23 1.06-1.9.53.6-.5.86-1.93 1.36-2.56h7.68c.5.63.76 2.07 1.36 2.56-.67.53-1.6.38-1.9-.52.06.6-.28 1.12-.65 1.2-.64.1-1.32-.78-1.48-1.06-.03.8-.5 1.1-1.17 1.1"/></g><g><path d="M12 20.52c0-.28-1.7-.6-3.82-.6-2.1 0-3.83.32-3.83.6 0 .3 1.72.44 3.83.44 2.1 0 3.83-.15 3.83-.44"/></g><g><path fill="none" stroke="#000" stroke-width=".076" d="M12 20.52c0-.28-1.7-.6-3.82-.6-2.1 0-3.83.32-3.83.6 0 .3 1.72.44 3.83.44 2.1 0 3.83-.15 3.83-.44z" stroke-linecap="round" stroke-linejoin="round"/></g><g><path fill="#ffd83d" d="M7.72 25.62s.58-.1.93 0c0 0 .13-1.2.25-1.64 0 0-.4.1-.7.1-.3 0-.74-.1-.74-.1s.1.54.15.9c.07.35.12.74.12.74"/></g><g><path fill="#ffd83d" d="M3.3 23.98c-.18.8-.2 1.63.83 2.33 1 .7 2.7.12 3.17 0 .47-.12.48-.63-.1-.5-.57.16-2.17.6-2.95-.1-.78-.68-.63-1.2-.5-1.6.34-1.18-.3-.75-.44-.12"/></g><g><path fill="#ffd83d" d="M13.05 23.94c.2.8.2 1.62-.82 2.32-1 .7-2.7.1-3.17 0-.47-.12-.48-.63.1-.5.57.15 2.18.6 2.95-.1.8-.7.63-1.2.52-1.6-.26-.95.28-.75.43-.12"/></g></g></g></g></svg>