<svg xmlns="http://www.w3.org/2000/svg" viewBox="0 0 45 45" enable-background="new 0 0 45 45"><defs><clipPath id="a"><path d="M0 36h36V0H0v36z"/></clipPath><clipPath id="b"><path d="M4 31c-2.2 0-4-1.8-4-4V9c0-2.2 1.8-4 4-4h28c2.2 0 4 1.8 4 4v18c0 2.2-1.8 4-4 4H4z"/></clipPath><clipPath id="c"><path d="M0 36h36V0H0v36z"/></clipPath></defs><g><g><g clip-path="url(#a)" transform="matrix(1.25 0 0 -1.25 0 45)"><g><path fill="#eee" d="M36 9c0-2.2-1.8-4-4-4H4C1.8 5 0 6.8 0 9v18c0 2.2 1.8 4 4 4h28c2.2 0 4-1.8 4-4V9z"/></g></g></g><g><g clip-path="url(#b)" transform="matrix(1.25 0 0 -1.25 0 45)"><path fill="#005da4" d="M36 13H0v10h36V13z"/><path fill="#ed1c23" d="M36 5H0v8h36V5z"/></g></g><g><g clip-path="url(#c)" transform="matrix(1.25 0 0 -1.25 0 45)"><g><path fill="#ed1c23" d="M11.13 28.08c-2.26 0-3.84-.83-3.84-.83s.14-2 .33-5.08c.18-3.1 3.5-4.17 3.5-4.17s3.3 1.08 3.5 4.17c.18 3.08.33 5.08.33 5.08s-1.6.83-3.84.83"/></g><g><path fill="#004a77" d="M14.6 27.4c-.6.26-1.86.68-3.48.68-1.6 0-2.87-.42-3.46-.67 0-.2.14-2.5.3-5.15.17-2.8 3.16-3.77 3.16-3.77s3 .98 3.17 3.77c.15 2.66.28 4.95.3 5.16"/></g><g><path fill="#fff" d="M12.1 20.08c-.35 0-.52-.2-1.04-.2s-.6.2-.96.2c-.26 0-.43-.12-.64-.18.82-.6 1.66-.86 1.66-.86.72.12 1.28.47 1.7.86-.27.06-.45.18-.72.18"/></g><g><path fill="#fff" d="M10.15 21.46c.33 0 .62-.26.98-.26.35 0 .6.26.97.26.32 0 .75-.42 1.36-.18.28.47.4.85.4.85l-1.24 1.8-.62-.77-.88 1.67-.83-1.67-.6.8s-.55-.65-1.45-1.85c.1-.28.25-.53.4-.76.72-.35 1.2.12 1.5.12"/></g><g><path fill="#fff" d="M13.1 20.7c-.45 0-.64.27-1 .27-.35 0-.52-.26-1.04-.26s-.6.27-.96.27c-.35 0-.53-.26-.85-.26-.12 0-.25.04-.37.1.12-.17.25-.35.4-.5.37.04.66.28.87.28.33 0 .62-.27.98-.27.35 0 .6.28.97.28.23 0 .52-.23.9-.27.1.15.2.3.28.44-.05 0-.1-.03-.18-.03"/></g><g><path fill="#fd0" d="M10.32 27.2l.22-.24-.3.07-.1-.3-.1.3-.3-.07.2.23-.2.23.3-.08.1.3.1-.3.3.08-.22-.24z"/></g><g><path fill="#fd0" d="M12.4 27.2l.23-.24-.3.07-.1-.3-.1.3-.3-.07.2.23-.2.23.3-.08.1.3.1-.3.3.08-.22-.24z"/></g><g><path fill="#fd0" d="M11.33 25.8l.2-.24-.3.08-.1-.3-.08.3-.3-.08.2.24-.2.23.3-.07.1.3.08-.3.3.07-.2-.23z"/></g></g></g></g></svg>