<svg xmlns="http://www.w3.org/2000/svg" viewBox="0 0 45 45" enable-background="new 0 0 45 45"><defs><clipPath id="a"><path d="M0 36h36V0H0v36z"/></clipPath><clipPath id="b"><path d="M4 31c-2.2 0-4-1.8-4-4V9c0-2.2 1.8-4 4-4h28c2.2 0 4 1.8 4 4v18c0 2.2-1.8 4-4 4H4z"/></clipPath><clipPath id="c"><path d="M0 36h36V0H0v36z"/></clipPath></defs><g><g><g clip-path="url(#a)" transform="matrix(1.25 0 0 -1.25 0 45)"><g><path fill="#eee" d="M36 9c0-2.2-1.8-4-4-4H4C1.8 5 0 6.8 0 9v18c0 2.2 1.8 4 4 4h28c2.2 0 4-1.8 4-4V9z"/></g></g></g><g><g clip-path="url(#b)" transform="matrix(1.25 0 0 -1.25 0 45)"><path fill="#5eb6e4" d="M36 4H0v14.04h36V4z"/></g></g><g><g clip-path="url(#c)" transform="matrix(1.25 0 0 -1.25 0 45)"><g><path fill="#f4900c" d="M18 21.78c-2.43 0-2.66 1 0 1s2.43-1 0-1"/></g><g><path fill="#ffac33" d="M19.88 22.06c-.6 0-1.1-.37-1.54-.6-.12.15-.34.13-.34.13s-.22 0-.34-.15c-.44.24-.93.6-1.54.6-.6 0-2.04-.58-2.04-3.6 0-3.97 3.92-5.23 3.92-5.23s3.92 1.26 3.92 5.23c0 3.02-1.44 3.6-2.05 3.6"/></g><g><path fill="#ffac33" d="M16.7 24.8c.24.06.55.17.8.32 0-.04 0-.08 0-.13 0-.24.05-.45.14-.6-.05-.08-.1-.16-.14-.26-.1.24-.4.33-.4.33s-.14-.1-.23-.4c-.2.18-.45.2-.45.2s-.12-.18-.1-.4c-1.02.66-.16.85.37.94m2.6 0c.54-.08 1.4-.27.4-.94 0 .23-.12.42-.12.42s-.25-.03-.45-.22c-.1.3-.24.4-.24.4s-.3-.08-.4-.32c-.04.1-.1.2-.14.26.08.15.14.36.14.6 0 .04 0 .08-.02.13.26-.16.58-.27.83-.32m-4.1-1.4c.38-.1.9-.8.9-1.13.35.4 1.9.43 1.9.43s1.55-.03 1.9-.43c0 .32.52 1.04.9 1.12-.07.15-.28.1-.28.1s.48.83.3 1.22c-.2.4-.93.37-1.52.44-.6.06-.7.32-.7.32l.15.2s-.3.05-.23.26c.06.2-.2.18-.2.18s.2.2.12.36c-.08.18-.25.22-.25.22s-.12.25 0 .33c.1.08.35-.22.35.08s-.28.06-.36.17c-.1.1.13.4-.2.4s-.1-.3-.2-.4c-.07-.1-.35.14-.35-.16 0-.3.25 0 .36-.07.12-.08 0-.33 0-.33s-.16-.04-.24-.22c-.08-.17.1-.36.1-.36s-.24.02-.18-.18c.07-.2-.23-.27-.23-.27l.16-.2s-.1-.25-.7-.3c-.6-.08-1.32-.06-1.5-.45-.2-.4.28-1.22.28-1.22s-.2.05-.3-.1"/></g><g><path fill="#a0cfeb" d="M20.9 18.06c0 2.33-.7 2.6-.7 2.6s-.3-.4-.77-.24c-.47.16-1.12.67-1.12.67s-.1-.15-.32-.16c-.2 0-.32.15-.32.15s-.66-.52-1.12-.68c-.47-.15-.8.24-.8.24s-.66-.27-.66-2.6c0-2.2 2.6-4.27 2.9-4.5 0 0 .02 0 .02 0 .28.23 2.9 2.3 2.9 4.5"/></g><g><path fill="#ccd6dd" d="M17.3 15.84c.17.46.26.75.26 1.02V18s-.25.12-.25.27v.42l.26.08v-.28l.25.1v.24h.2v-.26l.22-.05v.24l.28-.08v-.4s-.22-.24-.22-.3v-1.14c0-.1.33-1.02.33-1.02h-1.3z"/></g><g><path fill="#ccd6dd" d="M17.96 19.06s-.07.3-.24.55c-.17.26-.12.73.26.73.7 0 .24-.63.24-.63s-.16.32-.22.22.16-.45.06-.65l-.1-.2z"/></g><g><path fill="#ccd6dd" d="M16.38 18.78s-.07.3-.24.55c-.17.25-.1.72.26.72.7 0 .24-.64.24-.64s-.16.33-.22.24c-.06-.1.17-.45.06-.66l-.1-.2z"/></g><g><path fill="#ccd6dd" d="M19.5 18.78s-.06.3-.23.55c-.17.25-.1.72.26.72.7 0 .24-.64.24-.64s-.15.33-.22.24c-.06-.1.17-.45.07-.66l-.1-.2z"/></g><g><path fill="#ccd6dd" d="M15.85 15.92c.1.26.13.47.13.66v1.14s-.25.12-.25.26v.43l.25.1v-.28l.25.1v.24h.2v-.26l.2-.05v.23l.3-.07v-.38s-.23-.24-.23-.3v-1.14c0-.1.33-1.02.33-1.02s-1.2.25-1.18.36"/></g><g><path fill="#ccd6dd" d="M18.87 15.56c.15.46.25.75.25 1.02v1.14s-.25.12-.25.26v.43l.25.1v-.28l.25.1v.24h.18v-.26l.22-.05v.23l.28-.07v-.38s-.22-.24-.22-.3v-1.14c0-.07.14-.46.23-.74.06-.16-1.2-.28-1.2-.28"/></g><g><path fill="#99aab5" d="M16.38 18.56h-.15v-.25l-.25-.08v.28l-.25-.1V18c0-.14.25-.26.25-.26v-1.14c0-.2-.04-.4-.13-.66 0-.05.25-.14.53-.2v2.84z"/></g><g><path fill="#99aab5" d="M17.95 18.84h-.15v-.25l-.25-.1v.28l-.25-.1v-.4c0-.16.25-.28.25-.28v-1.14c0-.2-.05-.4-.13-.66-.02-.05.25-.14.53-.2v2.84z"/></g><g><path fill="#99aab5" d="M19.55 18.52l-.2.04v-.25l-.24-.08v.28l-.25-.1V18c0-.14.26-.26.26-.26v-1.14c0-.2-.04-.4-.13-.66 0-.05.25-.14.58-.26v2.86z"/></g><g><path fill="#8bb273" d="M18.98 16s-.32.43-.98.43c-.66 0-.94-.44-.94-.44s-.58.22-1.25-.1c.8-1.25 1.98-2.2 2.17-2.33v-.02c.02 0 .03 0 .03 0v.02c.18.14 1.37 1.1 2.16 2.34-.7.32-1.18.1-1.18.1"/></g><g><path fill="#658d5c" d="M18.86 11.5c-.45.72-.84 1.55-1.92 2.05-1.08.5-1.25.64-1.57 1.15-.3.52-.92.86-.92.86s.02.5-.18.8c-.2.3-.2.7-.2.7s-.24-.13-.18.36c.05.5-.26.8-.26.8s.4.53.06 1.2c.38.64.2 1.38.2 1.38s.33.6 0 1.26c-1.04-.43-1.1-1.83-1.1-1.83l-.6.86s-.5-.33-.37-.94c.12-.6.1-.75.1-.75l-.57.5s-.4-.68.16-1.2c.56-.54.65-.7.65-.7s-.28.16-.28-.1c0-.24.05-.35.05-.35l-.73.6s-.22-.82.3-1.3c.5-.46.82-.63.82-.63s-.98.28-.97.2c.02-.06.2-.58.7-.86.5-.28.88-.4.88-.4l-1-.17s.24-.73.83-.73c.6 0 1.16.18 1.16.18s-.42-.34-.55-.6c-.13-.27-.5-.3-.5-.3s.33-.35.94-.24c.6.12.7.95 1.44.68.75-.26 2.1-.75 2.53-1.42.45-.67.6-.83.7-1.06.1-.23.48-.2.35 0"/></g><g><path fill="#658d5c" d="M17.03 11.5c.44.72.84 1.55 1.9 2.05 1.1.5 1.26.64 1.58 1.15.32.52.93.86.93.86s-.02.5.2.8c.2.3.17.7.17.7s.25-.13.2.36c-.07.5.24.8.24.8s-.4.53-.06 1.2c-.38.64-.2 1.38-.2 1.38s-.33.6 0 1.26c1.04-.43 1.1-1.83 1.1-1.83l.6.86s.5-.33.37-.94c-.12-.6-.1-.75-.1-.75l.57.5s.4-.68-.15-1.2c-.57-.54-.66-.7-.66-.7s.3.16.3-.1c0-.24-.07-.35-.07-.35l.73.6s.22-.82-.3-1.3c-.5-.46-.82-.63-.82-.63s.98.28.97.2c0-.06-.2-.58-.7-.86-.5-.28-.87-.4-.87-.4l1-.17s-.24-.73-.83-.73c-.6 0-1.16.18-1.16.18s.43-.34.55-.6c.12-.27.48-.3.48-.3s-.33-.35-.94-.24c-.6.12-.7.95-1.44.68-.75-.26-2.1-.75-2.53-1.42-.44-.67-.6-.83-.7-1.06-.08-.23-.47-.2-.34 0"/></g><g><path fill="#e1e8ed" d="M15.63 12.9c-.74-.1-.93-.57-1.96-.12-.04-.23.33-.6.33-.6s-.56 0-.83.1c.14-.6.8-.8 1.35-.76.54.04.9.45 1.52.3.63-.13 1.1-.33.96.8-.42.46-1.37.28-1.37.28"/></g><g><path fill="#e1e8ed" d="M20.38 12.9c.73-.1.92-.57 1.95-.12.05-.23-.33-.6-.33-.6s.56 0 .83.1c-.14-.6-.8-.8-1.35-.76-.54.04-.9.45-1.52.3-.63-.13-1.1-.33-.96.8.42.46 1.37.28 1.37.28"/></g><g><path fill="#f5f8fa" d="M20.42 13.63c-.42.18-1.34-.3-2.42-.3-1.08 0-2 .48-2.42.3-.42-.2-.35-.26-.3-.4.02-.17.06-.6.1-.82.03-.23.28-.38.57-.18.3.2.67.3 1.2.14.5-.16.82-.15.82-.15s.37 0 .9.16c.5.16.88.06 1.18-.14.3-.2.54-.05.57.2.04.22.08.64.1.8.05.15.12.22-.3.4"/></g><g><path fill="#99aab5" d="M19.84 13.22c0-.1-.2-.48-1.95-.48-1.77 0-1.9.38-1.9.48 0 .1.28-.2 2.04-.2s1.8.3 1.8.2"/></g></g></g></g></svg>