<svg xmlns="http://www.w3.org/2000/svg" viewBox="0 0 45 45" enable-background="new 0 0 45 45"><defs><clipPath id="a"><path d="M4 31c-2.2 0-4-1.8-4-4V9c0-2.2 1.8-4 4-4h28c2.2 0 4 1.8 4 4v18c0 2.2-1.8 4-4 4H4z"/></clipPath></defs><g><g><g clip-path="url(#a)" transform="matrix(1.25 0 0 -1.25 0 45)"><path fill="#d21034" d="M30 11H6v14h24V11zM0 5h36v26H0V5z"/><path fill="#007e3a" d="M6 11h24v14H6V11z"/><g><path fill="#fff" d="M19.64 13.66c.28 0 .55.02.8.07-2 .4-3.52 2.15-3.52 4.27 0 2.12 1.52 3.9 3.53 4.27-.26.05-.53.07-.8.07-2.4 0-4.35-1.94-4.35-4.34s1.94-4.34 4.34-4.34"/></g></g></g></g></svg>