<svg xmlns="http://www.w3.org/2000/svg" viewBox="0 0 45 45" enable-background="new 0 0 45 45"><defs><clipPath id="a"><path d="M0 36h36V0H0v36z"/></clipPath></defs><g><path fill="#eee" d="M0 28.75h45v-12.5H0v12.5z"/><g><g clip-path="url(#a)" transform="matrix(1.25 0 0 -1.25 0 45)"><g><path fill="#ce1126" d="M32 31H4c-2.2 0-4-1.8-4-4v-4h36v4c0 2.2-1.8 4-4 4"/></g><g><path fill="#141414" d="M32 5H4C1.8 5 0 6.8 0 9v4h36V9c0-2.2-1.8-4-4-4"/></g><g><path fill="#007a3d" d="M9.18 17.67l-.64-1.95 1.66 1.2 1.66-1.2-.64 1.95 1.66 1.2h-2.05l-.63 1.95-.63-1.95H7.52l1.66-1.2z"/></g><g><path fill="#007a3d" d="M24.78 17.67l-.64-1.95 1.66 1.2 1.66-1.2-.64 1.95 1.66 1.2h-2.05l-.63 1.95-.63-1.95h-2.05l1.66-1.2z"/></g></g></g></g></svg>