<svg xmlns="http://www.w3.org/2000/svg" viewBox="0 0 45 45" enable-background="new 0 0 45 45"><defs><clipPath id="a"><path d="M0 36h36V0H0v36z"/></clipPath></defs><g><g><g clip-path="url(#a)" transform="matrix(1.25 0 0 -1.25 0 45)"><g><path fill="#3b88c3" d="M36 4c0-2.2-1.8-4-4-4H4C1.8 0 0 1.8 0 4v28c0 2.2 1.8 4 4 4h28c2.2 0 4-1.8 4-4V4z"/></g><g><path fill="#fff" d="M15.43 18.4h3.16c1.94 0 3.18 1.44 3.18 3.3 0 1.86-1.24 3.28-3.2 3.28h-3.15V18.4zm-4.65 8.26c0 1.46.87 2.42 2.42 2.42h5.48c4.56 0 7.94-2.98 7.94-7.4 0-4.54-3.5-7.36-7.75-7.36h-3.44v-5.1c0-1.54-1-2.4-2.33-2.4s-2.32.86-2.32 2.4v17.44z"/></g></g></g></g></svg>