<svg xmlns="http://www.w3.org/2000/svg" viewBox="0 0 45 45" enable-background="new 0 0 45 45"><defs><clipPath id="a"><path d="M0 36h36V0H0v36z"/></clipPath></defs><g><g><g clip-path="url(#a)" transform="matrix(1.25 0 0 -1.25 0 45)"><g><path fill="#ea2839" d="M0 9c0-2.2 1.8-4 4-4h28c2.2 0 4 1.8 4 4v4H0V9z"/></g><path fill="#34b232" d="M0 13h36v10H0V13z"/><g><path fill="#fecb01" d="M32 31H4c-2.2 0-4-1.8-4-4v-4h36v4c0 2.2-1.8 4-4 4"/></g><g><path fill="#fff" d="M18 27.24L20.35 20h7.62l-6.16-4.33 2.36-7.17L18 13l-6.16-4.45 2.35 7.1L8.03 20h7.6L18 27.24z"/></g></g></g></g></svg>