<svg xmlns="http://www.w3.org/2000/svg" viewBox="0 0 45 45" enable-background="new 0 0 45 45"><defs><clipPath id="a"><path d="M0 36h36V0H0v36z"/></clipPath></defs><g><g><g clip-path="url(#a)" transform="matrix(1.25 0 0 -1.25 0 45)"><g><path fill="#3b88c3" d="M36 4c0-2.2-1.8-4-4-4H4C1.8 0 0 1.8 0 4v28c0 2.2 1.8 4 4 4h28c2.2 0 4-1.8 4-4V4z"/></g><g><path fill="#fff" d="M24.28 11.1c1.3 0 2.23-.72 2.23-2.05C26.5 7.87 25.4 7 24.3 7H12.1c-1.65 0-2.6.93-2.6 2.23 0 .62.2 1.24.6 1.8l10 13.95h-8.16c-1.24 0-2.17.72-2.17 2 0 1.17 1 2.1 2.17 2.1H23.3c1.8 0 2.6-1.15 2.6-2.24 0-.68-.3-1.45-.7-1.98L15.3 11.1h8.98z"/></g></g></g></g></svg>