<svg xmlns="http://www.w3.org/2000/svg" viewBox="0 0 45 45" enable-background="new 0 0 45 45"><defs><clipPath id="a"><path d="M0 36h36V0H0v36z"/></clipPath></defs><g><g><g clip-path="url(#a)" transform="matrix(1.25 0 0 -1.25 0 45)"><g><path fill="#3b88c3" d="M36 4c0-2.2-1.8-4-4-4H4C1.8 0 0 1.8 0 4v28c0 2.2 1.8 4 4 4h28c2.2 0 4-1.8 4-4V4z"/></g><g><path fill="#fff" d="M15.68 24.8H12.3c-1.5 0-2.1 1.08-2.1 2.14 0 1.08.76 2.14 2.1 2.14h11.4c1.34 0 2.1-1.06 2.1-2.14 0-1.06-.6-2.14-2.1-2.14h-3.37V9.23c0-1.55-1-2.42-2.33-2.42s-2.32.88-2.32 2.43V24.8z"/></g></g></g></g></svg>