<svg xmlns="http://www.w3.org/2000/svg" viewBox="0 0 45 45" enable-background="new 0 0 45 45"><defs><clipPath id="a"><path d="M0 36h36V0H0v36z"/></clipPath></defs><g><g><g clip-path="url(#a)" transform="matrix(1.25 0 0 -1.25 0 45)"><g><path fill="#060" d="M36 9c0-2.2-1.8-4-4-4H4C1.8 5 0 6.8 0 9v18c0 2.2 1.8 4 4 4h28c2.2 0 4-1.8 4-4V9z"/></g><g><path fill="#d52b1e" d="M32 31H15V5h17c2.2 0 4 1.8 4 4v18c0 2.2-1.8 4-4 4"/></g><g><path fill="#ffcc4d" d="M20.3 13.42l-2.95 2.93-.7-.7.47-.47-.4-.6L19.1 13H16v11.92c1.32-.2 2.52-.74 3.5-1.56l-2.66-.9.32-.93 3 1-.1.3c.16-.17.32-.35.47-.54l-2.8-1.88L18 20l-.22-.45 3.1-1.55-3.1-1.55.44-.9 3.75 1.88c-.12-1.53-.74-2.92-1.68-4M14 11.07c-.94.13-1.8.45-2.6.92H14v-.92zm-5.97 6.35l3.75-1.88.44.9L9.12 18l2.1 1.06 1.43-1.4.7.7-1.17 1.17.04.02-.44.9-.35-.17-.97.97 1.46-.24.16 1-2.5.4c1.07 1.35 2.64 2.26 4.42 2.52V13h-3.1l2.38 1.58-.56.84-3-2 .02-.02c-.96 1.1-1.6 2.5-1.7 4.03m0 1.14c.07 1.03.37 2 .85 2.84l1.6-1.6-2.47-1.23zM16 12h2.6c-.8-.47-1.66-.8-2.6-.92V12zm3 8.06l2.08 1.4c.5-.87.8-1.84.9-2.9l-3 1.5zM15 26c-4.42 0-8-3.58-8-8s3.58-8 8-8 8 3.58 8 8-3.58 8-8 8"/></g><g><path fill="#d52b1e" d="M11 23v-7c0-2.2 1.8-4 4-4s4 1.8 4 4v7h-8z"/></g><g><path fill="#fff" d="M12 22v-6c0-1.66 1.34-3 3-3s3 1.34 3 3v6h-6z"/></g><path fill="#829acd" d="M17 17h-4v2h4v-2z"/><path fill="#829acd" d="M16 16h-2v4h2v-4z"/><path fill="#039" d="M13 17h-1v2h1v-2z"/><path fill="#039" d="M16 17h-2v2h2v-2z"/><path fill="#039" d="M18 17h-1v2h1v-2z"/><path fill="#039" d="M16 14h-2v2h2v-2z"/><path fill="#039" d="M16 22h-2v-2h2v2z"/></g></g></g></svg>