<svg xmlns="http://www.w3.org/2000/svg" viewBox="0 0 45 45" enable-background="new 0 0 45 45"><defs><clipPath id="a"><path d="M0 36h36V0H0v36z"/></clipPath><clipPath id="b"><path d="M4 31c-2.2 0-4-1.8-4-4v-9h19v13H4z"/></clipPath><clipPath id="c"><path d="M0 36h36V0H0v36z"/></clipPath><clipPath id="d"><path d="M23.73 22.86c-.2-4.48-.28-8.27 3.92-9.9 4.2 1.63 4.1 5.4 3.92 9.9-.27.18-1.98.67-3.92.67s-3.65-.5-3.92-.68"/></clipPath></defs><g><g><g clip-path="url(#a)" transform="matrix(1.25 0 0 -1.25 0 45)"><g><path fill="#00247d" d="M36 9c0-2.2-1.8-4-4-4H4C1.8 5 0 6.8 0 9v18c0 2.2 1.8 4 4 4h28c2.2 0 4-1.8 4-4V9z"/></g><g><path fill="#00247d" d="M19 31H4c-2.2 0-4-1.8-4-4v-9h19v13z"/></g><g><path fill="#eee" d="M19 18v2.03L11.9 25H6.67l10-7H19z"/></g><g><path fill="#cf1b2b" d="M19 19.42L11.03 25H9.3l9.7-6.8v1.22z"/></g><g><path fill="#eee" d="M8.1 25L0 19.23V18h3.33l10 7H8.1z"/></g><g><path fill="#cf1b2b" d="M10.7 25L.74 18h1.73l10 7H10.7z"/></g><g><path fill="#eee" d="M16.67 31l-10-7h5.23l7.1 4.97V31h-2.33z"/></g><g><path fill="#cf1b2b" d="M17.54 31l-10-7H9.3l9.7 6.8v.2h-1.46z"/></g></g></g><g><g clip-path="url(#b)" transform="matrix(1.25 0 0 -1.25 12.5 15)"><g><path fill="#eee" d="M0 0h3.33l-10 7H-9l-.63-1.6L0-1.32V0z"/></g><g><path fill="#cf1b2b" d="M0 0h.7L-9 6.8l-.5-.86L0-.72V0z"/></g></g></g><g><g clip-path="url(#c)" transform="matrix(1.25 0 0 -1.25 0 45)"><g><path fill="#eee" d="M19 27h-7v4H7v-4H0v-5h7v-4h5v4h7v5z"/></g><path fill="#cf1b2b" d="M11 18H8v13h3V18z"/><path fill="#cf1b2b" d="M19 23H0v3h19v-3z"/><g><path fill="#eee" d="M27.47 12.5c-4.6 1.78-4.43 5.96-4.24 10.38v.25l.22.14c.38.26 2.2.76 4.2.76s3.83-.5 4.2-.76l.2-.14.02-.25c.2-4.42.37-8.6-4.24-10.4l-.18-.06-.18.07z"/></g><g><path fill="#ff0" d="M31.57 22.85c-.27.2-1.98.68-3.92.68s-3.65-.5-3.92-.68c-.2-4.48-.28-8.26 3.92-9.9 4.2 1.64 4.1 5.42 3.92 9.9"/></g><g><path fill="#8fc5ff" d="M23.67 20c.04-3.2.7-5.77 3.98-7.05 3.27 1.28 3.94 3.86 4 7.05h-7.98z"/></g></g></g><g><g clip-path="url(#d)" transform="matrix(1.25 0 0 -1.25 0 45)"><g><path fill="#366cc9" d="M24 15.96h7.2s-.86-3.25-3.55-3.25c-2.7 0-3.65 3.26-3.65 3.26"/></g><g><path fill="#5d3100" d="M24.56 18.1c.17.46.54 1.1.7 1.12.14.02 1.74-3.1 1.6-3.26-.1-.15-1.9-.24-2.26-.18-.35.06-.04 2.33-.04 2.33"/></g><g><path fill="#cf6200" d="M23.54 18.54c.13.3.54.98.67.98s2.1-3.7 2.24-4.08c.12-.4-1.75-.58-2.1-.52-.36.06-.8 3.62-.8 3.62"/></g><path fill="#ff0" d="M27.23 19.73h-.13v-3.8h.13v3.8z"/><path fill="#ff0" d="M28.56 19.83h-.13v-3.9h.13v3.9z"/><path fill="#ff0" d="M29.8 19.73h-.14v-3.8h.13v3.8z"/><g><path d="M25.3 16.9c.2-.05 1.05-.52 1.57-.67.63-.2 1.55-.17 1.8-.17s.72.73.93.73h1.25c.2 0 .13-1.26-.35-1.26h-3.38c-.3 0-1.37.98-1.58 1.1-.2.1-.4.3-.23.26"/></g><g><path fill="#eee" d="M27.65 19.32c0-.1-.1-.2-.2-.2h-.7c-.1 0-.2.1-.2.2s.1.2.2.2h.7c.1 0 .2-.1.2-.2"/></g><g><path fill="#eee" d="M28.98 19.52c0-.1-.1-.2-.2-.2h-.7c-.1 0-.2.1-.2.2s.1.2.2.2h.7c.1 0 .2-.1.2-.2"/></g><g><path fill="#eee" d="M30.34 19.13c0-.1-.1-.2-.2-.2h-.7c-.1 0-.2.1-.2.2s.1.2.2.2h.7c.1 0 .2-.1.2-.2"/></g><g><path fill="#eee" d="M30.34 18.03c0-.1-.1-.2-.2-.2h-.7c-.1 0-.2.1-.2.2s.1.2.2.2h.7c.1 0 .2-.1.2-.2"/></g><g><path fill="#eee" d="M30.34 17.3c0-.1-.1-.2-.2-.2h-.7c-.1 0-.2.1-.2.2s.1.2.2.2h.7c.1 0 .2-.1.2-.2"/></g><g><path fill="#eee" d="M28.98 18.8c0-.12-.1-.2-.2-.2h-.7c-.1 0-.2.08-.2.2 0 .1.1.2.2.2h.7c.1 0 .2-.1.2-.2"/></g><g><path fill="#eee" d="M28.98 18.03c0-.1-.1-.2-.2-.2h-.7c-.1 0-.2.1-.2.2s.1.2.2.2h.7c.1 0 .2-.1.2-.2"/></g><g><path fill="#eee" d="M28.98 17.3c0-.1-.1-.2-.2-.2h-.7c-.1 0-.2.1-.2.2s.1.2.2.2h.7c.1 0 .2-.1.2-.2"/></g><g><path fill="#eee" d="M27.65 18.6c0-.12-.1-.2-.2-.2h-.7c-.1 0-.2.08-.2.2 0 .1.1.2.2.2h.7c.1 0 .2-.1.2-.2"/></g><g><path fill="#eee" d="M27.65 17.83c0-.1-.1-.2-.2-.2h-.7c-.1 0-.2.1-.2.2s.1.2.2.2h.7c.1 0 .2-.1.2-.2"/></g><g><path fill="#eee" d="M27.65 17.1c0-.1-.1-.2-.2-.2h-.7c-.1 0-.2.1-.2.2 0 .12.1.2.2.2h.7c.1 0 .2-.08.2-.2"/></g><g><path fill="#00d860" d="M27.44 15.03c0-.1.08-.18.17-.18h3.04c.1 0 .17.08.17.18 0 .1-.07.18-.16.18H27.6c-.08 0-.16-.07-.16-.17"/></g><g><path fill="#00d860" d="M27.3 14.3c0-.1.07-.18.17-.18h3.02c.1 0 .17.08.17.18 0 .1-.08.18-.18.18h-3.03c-.1 0-.18-.08-.18-.18"/></g><g><path fill="#00d860" d="M26.83 13.57c0-.1.08-.18.18-.18h3.03c.1 0 .18.07.18.17s-.07.18-.17.18H27c-.1 0-.17-.08-.17-.18"/></g><g><path fill="#ac5f1a" d="M25.87 22.76c.02.16.44.03.6.18.18.14.63.5 1 .04.2-.26.15-.43.38-.64.22-.2 1.44-.74 1.84-.6-.03-.26-.4-.4-.4-.4s.35-.24.4-.53c.03-.28-.5.47-1.28.26-.3-.08-.65-.4-1.28-.25-.62.17-.64 1.1-.66 1.5 0 .14-.63.35-.6.46"/></g><g><path fill="#eee" d="M26.18 22.84c.03.14.36 0 .5.1.15.1.55.37.8-.03.16-.2.1-.35.28-.53.17-.2 1.13-.7 1.46-.63-.03-.2-.33-.27-.33-.27s.24-.23.26-.47c0-.24-.38.4-1.02.3-.26-.06-.56-.3-1.06-.13-.5.17-.45.94-.43 1.26 0 .12-.5.33-.47.4"/></g><g><path d="M27.38 20.34c0-.04-.04-.07-.08-.07s-.07.03-.07.07v.47c0 .05.03.08.07.08.04 0 .07-.03.07-.07v-.46z"/></g><g><path d="M27.93 20.34c0-.04-.03-.07-.08-.07-.04 0-.07.03-.07.07v.47c0 .05.03.08.07.08.05 0 .08-.03.08-.07v-.46z"/></g><g><path d="M27.27 22.73c0-.07-.06-.14-.14-.14-.08 0-.14.06-.14.13 0 .08.05.15.13.15s.14-.07.14-.15"/></g></g></g></g></svg>