<svg xmlns="http://www.w3.org/2000/svg" viewBox="0 0 45 45" enable-background="new 0 0 45 45"><defs><clipPath id="a"><path d="M0 36h36V0H0v36z"/></clipPath></defs><g><g><g clip-path="url(#a)" transform="matrix(1.25 0 0 -1.25 0 45)"><g><path fill="#006847" d="M4 31c-2.2 0-4-1.8-4-4V9c0-2.2 1.8-4 4-4h7v26H4z"/></g><g><path fill="#ce1126" d="M32 31h-7V5h7c2.2 0 4 1.8 4 4v18c0 2.2-1.8 4-4 4"/></g><path fill="#eee" d="M11 5h14v26H11V5z"/><g><path fill="#a6d388" d="M23 18c0-2.76-2.24-5-5-5s-5 2.24-5 5h-1c0-3.3 2.7-6 6-6s6 2.7 6 6h-1z"/></g><g><path fill="#5c913b" d="M13.54 15.73c-.1.18-.27.28-.46.27-.07 0-.14-.02-.2-.05-.26-.12-.35-.43-.23-.67.1-.18.2-.35.3-.52 0 0 0 0 0-.02.02 0 .02 0 .02 0s0 0 0-.02c0 0 0 0 0-.02 0 0 .02 0 .02 0 0-.02 0-.02 0-.02s0 0 0-.02c0 0 .02 0 .02 0 .05-.08.1-.16.16-.23.1-.14.26-.2.42-.2.1 0 .2.03.28.1.22.16.27.47.1.7-.17.22-.3.46-.44.7"/></g><g><path fill="#5c913b" d="M13.05 17.3c-.02.17-.04.33-.05.5 0 .1 0 .23 0 .35 0 .27-.2.5-.48.5-.02 0-.03 0-.04 0-.26 0-.47-.2-.48-.48 0-.1 0-.2 0-.3 0 0 0-.02 0-.02s0-.02 0-.02v-.02s0-.02 0-.02 0-.02 0-.02 0 0 0-.02c0 0 0 0 0-.02v-.02c0-.02 0-.02 0-.03v-.02c.02-.16.04-.32.06-.48.03-.25.26-.44.5-.42.03 0 .04 0 .06 0 .27.04.46.3.43.56"/></g><g><path fill="#5c913b" d="M18.34 13h-.13c-.23 0-.47 0-.7.02-.02 0-.05 0-.07 0-.25 0-.45-.2-.48-.44-.03-.28.17-.52.45-.55.04 0 .08 0 .12 0 .02 0 .02 0 .02 0s.02 0 .02 0c0-.02 0-.02 0-.02s.02 0 .02 0 0 0 .02 0c.16 0 .3 0 .47 0 0 0 0 0 .02 0 0 0 0 0 .02 0h.02s0 0 .02 0c0 0 0 0 .02 0h.02s.02 0 .02 0h.02s0 0 .02 0h.02c.05 0 .1 0 .13 0 .28.04.48.27.47.54-.02.27-.26.48-.53.47"/></g><g><path fill="#5c913b" d="M15.9 13.46c-.25.12-.5.26-.72.4-.1.08-.2.1-.3.1-.16 0-.3-.08-.4-.22-.15-.22-.1-.54.13-.7 0 0 .02 0 .02 0s.02 0 .02 0c.26-.2.55-.35.84-.5.07-.02.15-.04.23-.03.2.02.36.12.44.3.12.25 0 .54-.24.66"/></g><g><path fill="#5c913b" d="M20.93 13.86c-.08 0-.17-.03-.25-.08-.23-.15-.48-.28-.73-.4-.26-.1-.38-.4-.27-.64.1-.2.28-.32.48-.3.06 0 .12 0 .17.03.05.02.1.04.14.06 0 0 0 0 .02 0 0 .02 0 .02 0 .02s0 0 .02 0c0 0 .02 0 .02 0 0 .02 0 .02 0 .02s.02 0 .02 0c.02 0 .02 0 .02 0s0 0 0 .02c.02 0 .02 0 .02 0s0 0 .02 0c0 0 0 0 .02 0 0 0 0 0 0 .02 0 0 .02 0 .02 0s0 0 .02 0c0 .02.02.02.03.02.02 0 .02 0 .03 0 0 .02 0 .02 0 .02s.02 0 .02 0c.02 0 .02.02.03.02 0 0 0 0 .02 0 0 .02 0 .02 0 .02s.02 0 .02 0 0 0 .02 0c0 0 0 0 0 .02 0 0 .02 0 .02 0s.02 0 .02 0 0 .02 0 .02c.02 0 .02 0 .02 0s0 0 .02 0c0 0 0 0 0 .02 0 0 0 0 .02 0 0 0 0 0 0 .02.02 0 .02 0 .02 0s0 0 .02 0c0 0 0 0 0 .02.02 0 .02 0 .02 0 .02 0 .02.02.03.02.07.04.13.08.2.12.22.15.3.45.14.7-.1.14-.27.23-.44.22"/></g><g><path fill="#5c913b" d="M23.5 18.48s0 0-.02 0c-.27-.02-.48-.23-.48-.5 0-.28-.03-.56-.07-.83-.05-.27.14-.53.4-.58.04 0 .08 0 .1 0 .24 0 .44.17.48.4V17h.02v.02c.02.13.04.26.05.4 0 0 0 .02 0 .02s0 .02 0 .02v.02c.02.16.03.33.03.5 0 .27-.22.5-.5.5"/></g><g><path fill="#5c913b" d="M23.06 15.78c-.1.05-.18.07-.26.06-.17 0-.33-.1-.42-.25-.13-.26-.3-.5-.46-.7-.18-.22-.14-.54.08-.7.1-.1.2-.12.33-.12.14 0 .28.07.37.2.12.14.23.3.33.45 0 0 0 0 0 .02.02 0 .02 0 .02 0s0 0 0 .02c0 0 0 0 .02.02 0 0 .02 0 .02.02 0 0 0 .02 0 .02s0 0 0 .02c0 0 .02 0 .02 0s0 .02 0 .02 0 0 0 .02c0 0 .02 0 .02 0s0 .02 0 .02.02 0 .02 0 0 0 0 .02c0 0 0 .02 0 .02s0 0 .02 0c0 0 0 .02 0 .02s0 .02.02.02c0 0 0 .02 0 .02.02.02.02.02.02.02.02.03.02.05.03.06.14.24.05.55-.2.68"/></g><g><path fill="#55acee" d="M21 15c0-.55-1.34-1-3-1s-3 .45-3 1 1.34 1 3 1 3-.45 3-1"/></g><g><path fill="#ffcc4d" d="M20 15c0-.55-.67-1-1.5-1s-1.5.45-1.5 1 .67 1 1.5 1 1.5-.45 1.5-1"/></g><g><path fill="#5c913b" d="M17.7 16.3c-.02 0-.05.02-.07.02-.37.05-.73.12-1.05.22-.27.08-.42.36-.34.62 0 0 0 0 0 .02 0 0 0 0 0-.02-.14-.24-.45-.33-.7-.2-.33.2-.63.42-.9.7-.2.18-.2.5 0 .7.2.2.52.2.7 0 .2-.2.44-.38.7-.52.22-.12.3-.38.23-.6.1.2.35.33.6.26.27-.08.57-.15.9-.2.27-.03.46-.28.42-.55-.04-.25-.26-.44-.5-.44m1.42-1.57c-.08 0-.17.02-.24.06-.24.12-.33.42-.2.66.16.3.33.56.5.8-.14 0-.28 0-.43 0-.28 0-.53.2-.53.5 0 .27.2.5.47.5 0 0 .07 0 .08 0 .3 0 .6 0 .87.03.16 0 .3-.05.4-.16.02 0 .04.02.05.03.1.06.2.12.28.16.06.05.13.08.2.1.02 0 .04 0 .05 0 .2.06.32.07.37.07.16 0 .3-.08.4-.2.1-.13.12-.3.08-.45-.08-.26-.27-.32-.6-.4-.05 0-.13-.05-.23-.1-.18-.14-.43-.12-.6.02.14-.18.15-.43 0-.62-.17-.2-.33-.47-.5-.76-.08-.18-.26-.27-.43-.27"/></g><g><path fill="#5c913b" d="M15.24 18.65c-.42 0-.97.17-1.3.56-.52.62-.82 1.4-.77 2 0 .14-.15.27-.3.3-.08.04-.24.05-.3-.1-.07-.13-.22-.18-.34-.13-.13.06-.18.2-.12.34.16.34.5.5.9.4.36-.1.7-.42.67-.85-.04-.46.22-1.1.65-1.6.22-.28.6-.38.87-.4.2 0 .32.04.34.07-.06.13-.8.52-1.1.68-.28.15-.36.34-.38.48-.07.45.4.9.85 1.36.17.15.32.3.4.4.1.13.08.22.06.27-.07.2-.37.38-.73.46-.33.07-.56.23-.67.48-.14.32-.06.74.24 1.28.07.12.22.17.34.1.12-.07.16-.22.1-.34-.3-.5-.26-.75-.22-.84.04-.1.15-.16.32-.2.42-.1.93-.34 1.1-.76.08-.24.03-.5-.14-.73-.1-.14-.27-.3-.44-.47-.26-.25-.74-.73-.7-.93 0-.04.05-.08.1-.1.75-.4 1.25-.68 1.35-1.03.05-.12.03-.25-.03-.36-.1-.17-.3-.27-.6-.3-.03 0-.08 0-.13 0"/></g><g><path fill="#ffcc4d" d="M20 18c0-.55-.22-1-.5-1s-.5.45-.5 1 .22 1 .5 1 .5-.45.5-1"/></g><g><path fill="#ffcc4d" d="M17.3 18.8c0-.28-.35-.5-.78-.5-.42 0-.77.22-.77.5 0 .3.35.53.77.53.43 0 .77-.23.77-.52"/></g><g><path fill="#ffcc4d" d="M16.1 23.44c.06-.2-.22-.46-.6-.55-.4-.1-.76 0-.8.2-.06.2.2.46.6.56.4.1.75 0 .8-.22"/></g><g><path fill="#c1694f" d="M22.53 18.04c.1-.07.25.73.22.98 0 .02-.03.55.1.93.06.12.06 1.08-.05 1.33.1 0 .2.03.2.14-.4-.15-.48.8-.85 1.37-.36.54-.8.86-1.28 1.2.03.1.1.18.16.27-.57-.3-1.47.75-2.8.67-.3-.03-.43-.04-.5-.23-.26 0-.5-.06-.5-.4 0-.06.06-.2.22-.2.22-.07.4-.02.54-.32l.03-.32s-.2.25-.3.3l.07.12c-.1.06-.28 0-.28 0s-.4.2-.7.15l-.05.25c-.06-.16-.18-.15-.2-.3-.03.1-.08.24-.1.34-.12-.15-.08-.3-.12-.46-.05-.03-.13-.04-.15.06-.02.12-.03.14-.03.28-.08-.14-.17-.2-.2-.44l-.1.26c.02-.3-.25-.5-.5-.7-.07-.13 0-.14.02-.2l.12-.07.24.02c.04-.05 0-.05.1-.1.28-.06.63.27.9-.25-.13-.1-.25-.35-.2-.4.04 0-.1-.07.1 0-.22-.2-.36-.47-.36-.5-.03-.05.08.02.06-.1l.05.02c-.47-.52 0-1.08-.06-1.37.08-.13.1 0 .2 0 .07-.36.32-.58.46-.87h-.3c0-.14.13-.27.22-.4l-.2-.06c-.15-.08-.25-.16-.36-.27-.07-.17.34-.2.53-.24l-.02-.2c.3-.03.66.06.66.07l.07.06.18-.1c.06 0 .15.23.1.4.12-.12.22-.33.33-.46h.12c.1-.14.22-.3.3-.44l.12-.04c.06.02.1.03.14.15l.05-.08.17.1.1.02.1-.14c.05.02.1.13.1.25.06-.1.07-.1.1-.12l.1.17.4-.4h.32c.1-.08.4-.13.47 0 .24-.1.54 0 .52.13.23-.1.6-.03.6-.02.03 0 .14.12.04.2-.77.53-1.9 1.42-2.34 1.63 0 .17-.12.74-.25.9l.1.17c.3-.28.4-.26.57-.3.17-.14.23-.34.4-.53l.15-.03c-.12.28-.25.54-.56.9.16-.1.43-.3.6-.47.13-.2.17-.36.28-.62.08-.04.16-.22.15-.07-.02.3-.22.75-.22.8.32-.27.32-.67.42-.92.08-.1.12-.28.16-.24l-.1.76-.05.27c.24-.14.32-.67.44-1.3 0-.1.04-.22.03-.3.05-.05.1-.23.1-.12 0 0 0 1.03-.06 1.27-.03.12.02.33.02.33.1-.43.18-.9.27-1.32v-.32l.12-.13c.03.27.06.53.1.8l-.1.9v.28c0 .1.07.07.13-.03 0-.23 0-.4.02-.63.04-.26.06-.45.08-.78.02-.27.03-.9.08-.9"/></g></g></g></g></svg>