<svg xmlns="http://www.w3.org/2000/svg" viewBox="0 0 45 45" enable-background="new 0 0 45 45"><defs><clipPath id="a"><path d="M0 36h36V0H0v36z"/></clipPath></defs><g><g><g clip-path="url(#a)" transform="matrix(1.25 0 0 -1.25 0 45)"><g><path fill="#ed1c23" d="M36 9c0-2.2-1.8-4-4-4H4C1.8 5 0 6.8 0 9v18c0 2.2 1.8 4 4 4h28c2.2 0 4-1.8 4-4V9z"/></g><path fill="#eee" d="M36 13H0v10h36V13z"/><g><path fill="#008000" d="M17 22.8c-.2-.2-.62-.5-.72-.68-.1-.2-.4-.4-.58-.47-.17-.07-.02-.2.16-.07.2.1.34.1.45.2.12.12.27.02.12-.05-.15-.07-.2-.2-.27-.28-.07-.1-.1-.13-.26-.13s-.3-.04-.4-.2c-.1-.16-.24-.34-.3-.42-.06-.1 0-.16.13-.05.14.1.3.2.37.07.07-.1.07-.17-.12-.24-.4-.17-.52-.26-.6-.43-.07-.16-.02-.2-.28-.3-.25-.07-.66-.37-.93-.57-.27-.2-.1-.22.1-.2.3 0 .7.22.9.13.08-.1.15-.26.24-.36-.32-.47-.37-.65-.7-.66-.35 0-.57-.35-.72-.52-.16-.18-.3-.34-.46-.4-.15-.08-.18-.13-.07-.2.1-.04.2.1.32.05.1-.04.17-.02.33.08s.32.25.58.28c.12-.14.18-.22.32-.3-.24-.32-.6-.58-.9-.68-.33-.1-.37-.23-.6-.52-.22-.28-.2-.38-.44-.38-.23 0-.22-.06-.1-.15.12-.1.2-.05.4-.1.17-.02.4-.06.64.2.23.24.8.68 1.3.64.22-.02.38-.07.1-.33-.27-.26-.67-.46-.94-.5-.52-.12-.75-.33-.9-.32-.16 0-.3-.1-.07-.24.23-.14.3-.17.57-.06.26.12.7.32.86.36.16.05.3.12.4.1.13-.04.22 0 .36.08.12.1.32.1.48.26.2.18.4.02.53-.08.14-.1.4-.54.17-.84-.23-.3-.5-.6-.57-.76-.08-.15-.13-.16-.23-.2-.3-.1-.63-.3-.72-.4-.1-.07-.06-.1.07-.1.13-.04.14 0 .26.1.12.08.26.23.55.22.15 0 .28.08.4.22.14.14.43.26.58.23.15-.02.2.02.28.08.08.06.15.1.28-.02.13-.1.24-.1.37 0 .14.07.28.04.32-.04.03-.1.05-.16.17-.25.13-.08.56-.33.7-.4.13-.08.22.06.12.15-.1.1-.16.17-.14.24 0 .08.1.1.33.08.36-.05.9-.32 1.08-.43.2-.1.37-.2.52-.2.16 0 .2.04.07.16-.15.13-.32.1-.38.24-.1.22-.3.06-.4.28-.06.16-.16.18-.28.17-.12 0-.27.1-.38.26-.4.6-.5 1.12-.37 1.52.12.4.5.5.7.34.22-.16.48-.27.6-.25.1.02.2.02.34-.06.15-.1.4-.14.7 0 .3.1.4 0 .6 0 .16 0 .36-.03.5-.14.12-.1.32-.18.62-.22.3-.04.5.04.26.18-.25.14-.45.22-.54.34-.1.13-.22.15-.34.15-.13 0-.34.08-.5.26-.18.18-.32.22-.46.2-.13-.02-.3 0-.38.13.13.16.27.45.4.54.15 0 .27-.03.38-.12.1-.1.25-.07.35-.07.1 0 .25-.05.33-.1.1-.06.23-.06.35 0 .14.05.1.12-.04.2-.16.1-.24.15-.3.24-.05.08-.1.12-.28.12-.2 0-.28.1-.42.25-.33.34-.55.36-.77.33-.22-.03-.43-.06-.6.2.2.1.4-.15.67.06.15.1.25.13.44.07.2-.06.42-.04.48 0s.14.1.23.12c.1 0 .1.13-.05.1-.26-.02-.3.14-.56.1-.26-.05-.36 0-.52.1-.17.12-.3.22-.8.14.03.15.02.3.26.36.18-.1.35-.1.5-.08.14 0 .63 0 .78-.02.14-.02.18.05-.04.16-.2.12-.52.16-.63.17-.1 0-.17.08-.24.22-.06.14-.27.26-.6.26-.25 0-.43.13-.56.24-.13.12-.26.2-.4.23-.16.03-.3.13-.24.26.07.13.32.2.5.07.2-.1.3-.12.4-.06.1.07.18.1.35.04.16-.06.32-.06.07.14-.36.27-.72.16-.84.3-.12.16-.22.1-.3.06-.1-.03-.25.05-.06.14.13.08.27.1.4.06.1-.06.25-.04.34 0 .1.05.2.14-.1.2-.28.04-.7.2-.87.36-.17.15-.35.18-.5.15-.14-.04-.26-.06-.5.1-.26.16-.6.3-.82.63-.22.32-.25.12-.4-.03"/></g><g><path fill="#eee" d="M16.15 20.98c-.16.02-.3-.05-.2-.17.07-.1.12-.03.23.02.1.06.2.14-.03.16"/></g><g><path fill="#eee" d="M16.6 20.62c-.14-.07-.3-.16-.34-.3-.05-.16-.04-.3.1-.26.22.05.23.3.4.34-.06.07-.08.17-.15.22"/></g><g><path fill="#eee" d="M16.87 20.76c.02-.07.04-.17.1-.22.13.07.48.2.62.23 0 .1-.03.16-.06.2-.2 0-.47-.07-.67-.2"/></g><g><path fill="#eee" d="M18.06 20.16c0-.1.05-.34.06-.43.1-.04.2-.07.3-.1.04.12.06.28.06.38-.16.1-.3.22-.42.16"/></g><g><path fill="#eee" d="M17.76 20.02c0-.08 0-.2.02-.25-.1 0-.3-.07-.4-.1-.1-.04-.24.16-.04.24.2.1.32.1.42.12"/></g><g><path fill="#eee" d="M15.04 19.26c.2.1.3.04.5.1.08-.1.18-.2.25-.3-.12-.17-.44-.05-.55-.13-.1.1-.15.18-.2.33"/></g><g><path fill="#eee" d="M15.86 19.46c.05-.1.1-.2.15-.25.16 0 .22.08.28.18.07.1.07.24-.1.22-.17 0-.27-.04-.32-.14"/></g><g><path fill="#eee" d="M14.53 17.5c.04-.1.17-.15.2-.23.15.08.22.08.34.05.12-.02.44.1.62.28.18.2.06.17-.15.14-.22-.03-.38-.06-.52-.03-.15.04-.37-.03-.5-.2"/></g><g><path fill="#eee" d="M16.4 18.4c-.1-.07-.14-.1-.06-.2.07-.1.12-.05.2 0 .1.05.14.13.1.2-.06.06-.13.05-.23 0"/></g><g><path fill="#eee" d="M16.9 18.55c-.1 0-.1-.07-.07-.12 0-.05.02-.08.1-.08.1 0 .1.02.08.1-.02.1-.03.1-.1.1"/></g><g><path fill="#eee" d="M17.22 18.46c0-.12-.02-.1.1-.13.1 0 .15 0 .15.1s0 .15-.12.15c-.14 0-.14-.04-.13-.12"/></g><g><path fill="#eee" d="M17.7 18.37c-.04-.1-.1-.17.05-.22.14-.06.15-.02.2.1.03.12.04.18-.07.2-.1.04-.15.03-.2-.08"/></g><g><path fill="#eee" d="M18.2 18.33c0-.05-.05-.2-.07-.23.06-.03.13-.06.2-.1.05-.03.13.07.1.17-.02.1-.13.24-.24.16"/></g><g><path fill="#eee" d="M18.8 19.86c-.02-.06-.08-.28-.1-.33.16-.04.3-.07.4-.06.12 0 .3.05.4.03.08-.02.13.07-.02.18-.15.12-.24.13-.33.13-.1 0-.26.13-.36.06"/></g><g><path fill="#eee" d="M19.43 19.07c-.1.02-.18-.07-.1-.14.08-.06.18-.03.2.03 0 .06 0 .1-.1.1"/></g><g><path fill="#eee" d="M19.68 19.1c0-.06.03-.16.03-.2.1-.08.18 0 .27-.08.1-.08.16 0 .18.1.02.07.03.12-.05.1-.17 0-.28.15-.42.08"/></g><g><path fill="#eee" d="M17.87 21.07c.02-.05.08-.15.08-.2.08-.05.26-.1.3 0 .05.08.07.12 0 .16-.1.04-.28.2-.38.04"/></g><g><path fill="#eee" d="M18.56 20.9c-.06-.05 0-.1.07-.13.07-.04.13.03.12.1 0 .04-.1.13-.2.04"/></g><g><path fill="#eee" d="M16.04 16.56c.06-.05.1-.12.1-.2-.03-.1.03-.13.1-.15.05 0 .2-.16.23 0s-.1.4-.2.43c-.1 0-.13 0-.17.06-.05.04-.17-.04-.06-.14"/></g><g><path fill="#eee" d="M21.29 17.24c-.06-.15-.2-.46-.3-.53-.16.1-.45.15-.47.23.05.16.1.3.15.38.17.05.46.06.6-.06"/></g><g><path fill="#eee" d="M20.33 17.46c0-.1-.07-.36-.1-.45-.18 0-.6.07-.75.02 0 .12 0 .27.03.35.28 0 .54.18.83.1"/></g></g></g></g></svg>