<svg xmlns="http://www.w3.org/2000/svg" viewBox="0 0 45 45" enable-background="new 0 0 45 45"><defs><clipPath id="a"><path d="M0 36h36V0H0v36z"/></clipPath><clipPath id="b"><path d="M4.88 26.12h2.3v-2.3H4.9v2.3z"/></clipPath></defs><g><g><g clip-path="url(#a)" transform="matrix(1.25 0 0 -1.25 0 45)"><g><path fill="#cf142b" d="M32 31H18V5h14c2.2 0 4 1.8 4 4v18c0 2.2-1.8 4-4 4"/></g><g><path fill="#eee" d="M4 31c-2.2 0-4-1.8-4-4V9c0-2.2 1.8-4 4-4h14v26H4z"/></g><path fill="#cf142b" d="M10.35 23.66h-8.7v2.68h8.7v-2.68z"/><path fill="#cf142b" d="M7.34 20.65H4.66v8.7h2.68v-8.7z"/><g><path fill="#cf142b" d="M5.63 23.73c0-.5-.4-.92-.92-.92-.5 0-.9.42-.9.93 0 .5.4.92.9.92.52 0 .93-.4.93-.92"/></g><g><path fill="#cf142b" d="M8.28 23.76c0-.5-.42-.92-.92-.92s-.93.4-.93.92c0 .5.42.92.93.92.5 0 .92-.4.92-.92"/></g><g><path fill="#cf142b" d="M5.63 26.18c0-.5-.4-.93-.92-.93-.5 0-.9.42-.9.93 0 .5.4.92.9.92.52 0 .93-.42.93-.92"/></g><g><path fill="#cf142b" d="M8.28 26.18c0-.5-.42-.93-.92-.93s-.93.42-.93.93c0 .5.42.92.93.92.5 0 .92-.42.92-.92"/></g><g><path fill="#99aab5" d="M5.42 23.73c0-.4-.32-.7-.7-.7-.4 0-.72.3-.72.7 0 .4.32.7.7.7.4 0 .72-.3.72-.7"/></g><g><path fill="#99aab5" d="M8.06 23.76c0-.4-.3-.7-.7-.7-.4 0-.7.3-.7.7 0 .4.3.7.7.7.4 0 .7-.3.7-.7"/></g><g><path fill="#99aab5" d="M5.42 26.18c0-.4-.32-.7-.7-.7-.4 0-.72.3-.72.7 0 .4.32.7.7.7.4 0 .72-.3.72-.7"/></g><g><path fill="#99aab5" d="M8.06 26.18c0-.4-.3-.7-.7-.7-.4 0-.7.3-.7.7 0 .4.3.7.7.7.4 0 .7-.3.7-.7"/></g><g><path fill="#ccd6dd" d="M7.85 24.97c0-1-.8-1.82-1.82-1.82-1 0-1.8.8-1.8 1.82 0 1 .8 1.8 1.8 1.8s1.82-.8 1.82-1.8"/></g><path fill="#ccd6dd" d="M7 21H5v8h2v-8z"/><path fill="#ccd6dd" d="M10 24H2v2h8v-2z"/><g><g><g clip-path="url(#b)" opacity=".5"><g><path fill="#99aab5" d="M7.2 24.97c0-.64-.53-1.16-1.17-1.16-.64 0-1.15.53-1.15 1.17 0 .63.5 1.15 1.15 1.15.64 0 1.16-.52 1.16-1.15"/></g></g></g></g><g><path fill="#99aab5" d="M6.65 24.98s.03.03.05.04c.05 0 .1-.04.13-.06.08-.05.33.07.22.14-.1.06-.2.13-.32.1-.1 0-.17-.06-.24-.12-.02.07-.03.13-.04.2.02 0 .03.03.02.06 0 .06.02.12.04.17 0 .04 0 .06-.02.07 0 0 .02.02.02.04.04 0 .08-.02.1-.03.08 0 .16.02.2.06.05.03.04.07 0 .08-.1.03-.2.08-.28.12-.06.02-.15 0-.2-.03-.03-.03-.08-.08-.03-.1 0 0 0-.23 0-.23-.05-.1-.12.53-.17-.47H6.1s-.13.35-.13.4c.08.03.03.28.03.33v.03s.1.02.1.03c.04 0 .12.04.1.06-.05.03-.1 0-.15 0 0 0 0 0-.03 0 0 0 0 0-.02 0 .05.03.1.06.08.1 0 .03 0 .05 0 .08.07.1-.2.08-.25 0-.03-.05-.04-.1-.02-.15.02-.05.07-.06.12-.05-.02-.02-.05-.04-.06-.07-.05 0-.1-.02-.13-.03-.16-.07-.33-.12-.48-.2-.02-.03-.1-.08-.03-.1.04 0 .1 0 .13 0 .05-.06.1-.1.16-.13.07-.03.16-.02.2.02.05.02.1.08.04.1.02.03.04.05.07.07 0-.05.02-.12.04-.17 0-.02 0-.03.02-.04-.03-.02-.07-.03-.1-.05-.02-.02-.06-.06-.03-.1-.07 0-.14-.02-.2-.05-.03 0-.1-.05-.1-.08-.03 0-.06 0-.1 0-.04-.02-.12-.05-.14-.1-.04 0-.06 0-.08 0-.06-.02-.17-.05-.18-.1 0-.1.04-.17.08-.25-.04-.03-.06-.07-.08-.13-.02-.12.26-.07.28.03 0 .02 0 .03.02.04.04.04.07.1.04.12 0 0 .02.02.02.03-.04.07-.08.13-.08.2 0 0 .03 0 .05 0 .02-.1.1-.2.17-.26.02-.03.05-.03.08-.02 0-.02-.02-.03-.03-.05-.04-.08-.06-.17-.07-.26 0-.04.03-.07.06-.08.1-.04.2-.1.3-.17.1-.07.33.07.2.16-.08.06-.18.12-.28.15 0 .05 0 .1.03.15 0 .02 0 .04 0 .05.03 0 .06.02.08.03.17.1.4.13.58.22 0-.03.02-.06.06-.07.08-.02.23 0 .26-.1s0-.22.06-.3c.05-.08.32 0 .25.1-.02.04-.02.1-.02.14 0 .06 0 .12-.02.18-.06.1-.25.1-.35.14-.03 0-.08.04-.1.03 0 0-.02.07-.04.07 0 0 0-.05 0-.05.05 0 .1-.02.15.03"/></g></g></g></g></svg>