<svg xmlns="http://www.w3.org/2000/svg" viewBox="0 0 45 45" enable-background="new 0 0 45 45"><defs><clipPath id="a"><path d="M0 36h36V0H0v36z"/></clipPath></defs><g><g><g clip-path="url(#a)" transform="matrix(1.25 0 0 -1.25 0 45)"><g><path fill="#00afca" d="M36 9c0-2.2-1.8-4-4-4H4C1.8 5 0 6.8 0 9v18c0 2.2 1.8 4 4 4h28c2.2 0 4-1.8 4-4V9z"/></g><g><path fill="#ffcc4d" d="M19.04 22.35c1.58 0 2.86-1.28 2.86-2.86 0-1.6-1.28-2.88-2.86-2.88-1.6 0-2.87 1.28-2.87 2.87 0 1.57 1.28 2.85 2.87 2.85"/></g><g><path fill="#ffcc4d" d="M19.04 22.57c.17 0 .23.1.23.23 0 .17-.23 1.5-.23 1.5s-.24-1.33-.24-1.5c0-.12.07-.23.24-.23"/></g><g><path fill="#ffcc4d" d="M19.04 16.4c-.17 0-.24-.12-.24-.25 0-.17.24-1.48.24-1.48s.23 1.3.23 1.48c0 .13-.06.24-.23.24"/></g><g><path fill="#ffcc4d" d="M18.24 16.5c-.17.05-.26-.03-.3-.16-.03-.16-.15-1.5-.15-1.5s.56 1.22.6 1.38c.04.12 0 .25-.16.3"/></g><g><path fill="#ffcc4d" d="M19.84 22.48c.16-.05.25.04.28.16.05.17.16 1.5.16 1.5s-.56-1.2-.6-1.37c-.04-.13 0-.25.16-.3"/></g><g><path fill="#ffcc4d" d="M17.5 16.82c-.15.08-.26.02-.33-.1-.08-.13-.54-1.4-.54-1.4s.86 1.03.95 1.18c.06.1.06.24-.1.32"/></g><g><path fill="#ffcc4d" d="M20.58 22.17c.15-.08.26-.02.32.1.1.13.54 1.4.54 1.4s-.86-1.03-.94-1.18c-.06-.12-.06-.24.08-.33"/></g><g><path fill="#ffcc4d" d="M16.86 17.3c-.13.13-.25.1-.34 0-.12-.1-.9-1.2-.9-1.2s1.12.76 1.24.88c.1.1.12.2 0 .33"/></g><g><path fill="#ffcc4d" d="M21.22 21.68c.13-.12.25-.1.34 0 .12.12.88 1.2.88 1.2s-1.1-.75-1.2-.87c-.1-.08-.14-.2-.02-.32"/></g><g><path fill="#ffcc4d" d="M16.37 17.95c-.1.14-.2.15-.32.08-.15-.08-1.18-.95-1.18-.95s1.26.46 1.4.55c.12.06.18.17.1.32"/></g><g><path fill="#ffcc4d" d="M21.72 21.04c.08-.15.2-.15.32-.1.15.1 1.16.96 1.16.96s-1.25-.46-1.4-.54c-.1-.07-.17-.17-.08-.32"/></g><g><path fill="#ffcc4d" d="M16.06 18.7c-.05.16-.17.2-.3.16-.15-.05-1.37-.62-1.37-.62s1.33.12 1.5.16c.1.04.2.13.16.3"/></g><g><path fill="#ffcc4d" d="M22.03 20.3c.04-.17.16-.2.3-.17.15.04 1.35.6 1.35.6s-1.32-.1-1.5-.15c-.1-.04-.2-.12-.15-.3"/></g><g><path fill="#ffcc4d" d="M15.95 19.5c0 .16-.1.22-.23.22-.17 0-1.5-.23-1.5-.23s1.33-.25 1.5-.25c.13 0 .23.07.23.24"/></g><g><path fill="#ffcc4d" d="M22.13 19.5c0-.18.1-.25.24-.25.17 0 1.48.24 1.48.24s-1.3.22-1.48.22c-.13 0-.24-.06-.24-.23"/></g><g><path fill="#ffcc4d" d="M16.06 20.3c.04.15-.05.24-.17.27-.17.05-1.5.16-1.5.16s1.2-.57 1.37-.6c.12-.04.25 0 .3.16"/></g><g><path fill="#ffcc4d" d="M22.03 18.7c-.05-.18.04-.27.16-.3.16-.05 1.48-.16 1.48-.16s-1.2.57-1.37.6c-.1.04-.23 0-.27-.15"/></g><g><path fill="#ffcc4d" d="M16.37 21.03c.08.15.02.26-.1.32-.14.08-1.4.55-1.4.55s1.03-.87 1.18-.96c.1-.06.23-.06.32.1"/></g><g><path fill="#ffcc4d" d="M21.72 17.94c-.1-.15-.03-.26.08-.32.15-.1 1.4-.54 1.4-.54s-1 .86-1.16.94c-.1.07-.24.07-.32-.08"/></g><g><path fill="#ffcc4d" d="M16.86 21.67c.12.12.1.24 0 .33-.13.12-1.23.9-1.23.9s.77-1.1.9-1.23c.08-.1.2-.13.33 0"/></g><g><path fill="#ffcc4d" d="M21.23 17.3c-.12-.12-.1-.25 0-.33.12-.13 1.2-.88 1.2-.88s-.75 1.08-.87 1.2c-.1.1-.2.12-.33 0"/></g><g><path fill="#ffcc4d" d="M17.5 22.16c.14.08.14.2.08.32-.08.14-.95 1.18-.95 1.18s.46-1.27.54-1.42c.07-.1.18-.17.33-.08"/></g><g><path fill="#ffcc4d" d="M20.6 16.8c-.16-.08-.16-.2-.1-.32.08-.14.94-1.16.94-1.16s-.45 1.25-.54 1.4c-.06.1-.17.17-.3.08"/></g><g><path fill="#ffcc4d" d="M18.24 22.46c.16.05.2.17.16.3-.04.16-.6 1.38-.6 1.38s.1-1.35.15-1.5c.03-.13.12-.22.3-.18"/></g><g><path fill="#ffcc4d" d="M19.84 16.5c-.17-.05-.2-.17-.17-.3.05-.16.6-1.36.6-1.36s-.1 1.32-.15 1.5c-.03.1-.12.2-.28.16"/></g><g><path fill="#ffcc4d" d="M17.43 12.87l.12-.05.04.02.03.04.05.02.04.03.17.07.13.06.07.03.06.03.07.03.04.03.13.07.13.1.12.06.1.08.1.08.06.06.08.06.07.07.03.03.04.02.03.03.05.02.1.04.08.04.13.04.15.03.14.04.15.02.2.03h.18l.2.04.2.03h.06l.05.03h.07l.06.03.07.08.1.13.08.07.08.06.1.08.1.07.18.1.17.1.18.1.18.07.17.08.16.08.12.07.1.06.03.08.04.1.05.07.06.1.06.08.08.1.08.1.1.1.1.08.12.1.05.02.06.04.05.04.06.03.07.02.06.02.07.02h.06l.06.02h.19V16.32l-.04-.06-.02-.07-.04-.07-.05-.08-.06-.07-.08-.08h.05l.05.02h.04l.04.02h.03l.04.03h.1v-.14l-.02-.03-.03-.04-.02-.02-.02-.03-.12-.1-.1-.1H24l.08-.03.07-.03h.06l-.06-.06-.07-.05-.08-.05-.1-.05-.1-.04-.08-.07-.08-.06-.1-.07h.05l.04-.02h.02l.03-.02h.02l-.1-.06-.15-.07-.06-.03-.05-.03-.03-.02v-.02h-.02v-.07h.02l.02-.03v-.02h-.02l-.02-.02-.02-.02-.05-.03-.07-.03-.06-.02-.06-.02-.05-.02-.04-.02.1-.1-.03-.05-.04-.02-.04-.02-.04-.02h-.17v-.05l.02-.05v-.05l.02-.06-.1-.08-.12-.08-.12-.08-.15-.08-.07-.05-.08-.04-.1-.04-.08-.03-.1-.04-.1-.03-.12-.02-.1-.02h.53l.15.03.14.03.12.02.1.04.12.05.16.08.15.08.14.1.15.08-.1.04-.08.03-.04.03-.05.02-.04.02-.04.03.04.03.05.02.06.02.08.02.13.02h.14l.12.03h.1l.06.02h.04l.02.03h.02v.02h-.04l-.02.02-.06.02H23.53l-.08.02-.07.02-.04.02.15.03.14.03.13.03.1.04.1.02.08.04h.04l.02.03.03.02.02.02-.02.02H23.78l-.07.02h-.04l.04.03.04.02.13.04.12.04.1.03.1.03.1.03.1.05.05.02.04.03v.02l.03.02v.02h.02v.02h-.02l-.02.02H24.14l-.02.02.2.14.22.13.18.12.16.1.06.06.06.07.05.05.05.06.03.06.03.06v.14h-.06l-.05-.03H25l-.08-.06-.1-.05-.04-.04-.04-.03-.05-.02h-.06l-.05-.02h-.14l.13.1.14.14.17.15.18.16.17.18.15.18.08.1.07.1.06.07.06.1h.02v.05l-.02.03-.03.03h-.04l-.03.02h-.08l-.02-.03-.02-.02-.1-.1-.1-.1-.13-.14-.13-.13-.13-.12-.13-.1-.06-.05-.06-.04-.06-.03-.06-.03.04.03.05.05.07.07.07.08.15.2.17.22.1.12.07.12.08.1.06.13.07.1.07.1.04.1.04.08v.11l-.02.03h-.03l-.04.03H25.28l-.02-.03-.04-.04-.05-.06-.1-.13-.1-.15-.1-.17-.14-.17-.07-.08-.07-.08-.08-.07-.07-.07.1.2.1.2.05.1.05.12.05.13.04.12.04.12.04.1.02.14.03.12v.42l-.02.02v.02h-.03v.03h-.04l-.05.02H24.74v-.02l-.02-.02-.05-.18-.05-.18-.05-.2-.05-.18-.05-.2-.06-.18-.03-.08-.04-.08-.04-.08-.06-.07.03.16.03.15.02.14v.12l.02.1v.24l-.02.06v.04l-.02.02-.03.02h-.03l-.02.02h-.03l-.05-.02-.05-.02-.03-.17-.04-.17-.05-.16-.05-.16-.05-.15-.06-.15-.07-.15-.08-.16-.05-.1-.06-.1-.06-.12-.06-.1-.06-.1-.07-.1-.06-.1-.07-.1-.13-.16-.14-.16-.14-.15-.15-.14-.14-.14-.16-.13-.17-.12-.17-.1-.1-.1-.14-.07-.12-.07-.12-.07-.2-.1-.18-.1-.2-.06-.2-.07-.16-.05-.17-.05-.17-.04-.17-.04-.17-.03-.17-.03-.18-.02H19.32v-.02l-.05-.02-.03-.02-.06-.05-.07-.06-.08-.1-.1-.1-.1-.12-.12-.12-.06-.06-.06-.06-.07-.06-.06-.05-.06-.04-.05-.04-.06-.03-.06-.03-.12-.06-.14-.05-.13-.04-.1-.06-.05-.02-.05-.03-.05-.03-.03-.02-.03-.03-.04-.03-.02-.04v-.1m4.4-.5l-.03-.03h-.14l-.02.02-.03.02-.04.03-.04.04-.03.02h-.03l-.02.02h-.03l-.05-.1-.07-.14-.02-.03-.02-.02-.03-.02-.04-.02h-.07l-.03.02v.02l-.02.02-.02.02v.03l-.02.05v.03L21 12.3l-.03-.04-.03-.04-.03-.05-.03-.05-.04-.04-.02-.02v-.02h-.04l-.04-.02H20.62l-.06.1-.08.07-.05-.1-.06-.06-.04-.02-.02-.03-.03-.03-.02-.02h-.02l-.03-.02h-.05l-.02.02-.02.02-.02.02v.03l-.02.03-.02.05v.04l-.02.02h-.02l-.15-.23-.03-.02h-.04l-.04-.02h-.16l-.02.03V12.2l-.03-.02h-.02l-.02-.03-.04-.05-.05-.05-.05-.06-.06-.05-.03-.03-.03-.03-.03-.02H19.16v.31l-.02.04-.04-.06-.05-.08-.07-.07-.07-.08-.03-.03-.03-.03-.04-.02h-.06v.02h-.02v.28l-.14-.1-.17-.1h-.03l-.04-.03h-.04l-.05-.02h-.14l.02.05V12l.03.03.02.03.02.03v.03l.04.02.03.03.06.04.07.05.07.03.08.03.1.02.08.02h.1l.1.02H19.74l.1.02h.2l.1.02.1.02h.07l.08.03.08.03.07.03.06.04.07.05.05.06-.06.12h.1l.05.04.03.02h.02l.02.03v.03l.02.02V13l-.02.03.1.02h.77l.23-.04h.23l.24-.03.2-.02v-.14l-.02-.02v-.03l-.03-.02-.03-.03-.04-.04-.05-.03-.05-.02h-.29l-.05.04-.07.03-.04.04-.05.05v-.1l-.02-.1v-.07l-.03-.06v-.02l-.03-.02-.02-.02z"/></g><g><path fill="#ffcc4d" d="M19.44 12.63l.1-.02h.04v-.02l-.1-.02h-.07l-.22.02h-1.2l-.13-.02h-.12l-.1-.03-.1-.02h-.07l-.02-.02-.03-.02.02.06.03.05h-.04l-.03-.02-.03-.02h-.04l-.02-.03-.03-.02v-.03l-.02-.03v.04l-.03.03V12.63l.03.03v.02l.03.03.02.02.02.02.06.04.07.05c.04-.02.07-.04.1-.05.05 0 .1 0 .13 0 .07-.05.16-.04.22.02 0 0 .02.03.02.05 0 .03 0 .07 0 .1h.07l.08.02.08.02.1.02h.07l.1.04h.13-.03l-.07-.06-.07-.06-.06-.04.07-.02h.06l-.04-.06-.05-.04-.05-.05-.03-.05h.04l.06-.03H18.57l.04.02h.09l.03-.03h.05l.04-.02h.1l.1-.02h.42"/></g><g><path fill="#ffcc4d" d="M18.94 14.3l-.05-.1-.06-.13-.04-.06-.03-.05-.02-.04-.02-.02-.07.06-.07.05-.1.03-.07.03-.1.02-.08.02-.08.02h-.1l-.2.03h-.38l-.18.03-.1.02-.1.02-.04.02-.05.02-.04.02-.05.02-.06.04-.07.04-.07.05-.06.06-.12.1-.13.13-.13.1-.1.12-.07.04-.05.02-.05.03H16l-.1.04h-.08l-.08.04-.08.04-.07.03-.08.06-.07.04-.06.04-.08.05-.05.04-.06.06-.04.05-.1.12-.1.12-.2.25-.2.26-.13.14-.13.12-.07.07-.07.06-.08.05-.08.06h-.02v-.02l-.03-.02v-.03l-.03-.04v-.04l-.04.02-.03.02h-.04l-.03.02h-.1l-.04-.02.04-.05.04-.07.06-.08.05-.08.05-.1.03-.07.02-.04v-.1h-.28l.04-.06.05-.07.06-.07.06-.06.06-.06.06-.06.07-.05.06-.03H14l-.08-.02H13.77l.05-.06.06-.04.07-.05.07-.05.07-.04.06-.04.07-.02.06-.02h.04l.02-.02V15.07l.02-.02h.03l.03-.02h.03l.03-.02h.02l.02-.03v-.02l-.02-.03h-.03l-.03-.03-.02-.03v-.12l.1-.03.1-.03h.04l.04-.03.03-.03h.03l-.18-.16.04-.03.07-.03.07-.04.08-.03.1-.03h.07l.07-.03h.07l-.07-.03-.08-.05-.08-.05-.06-.04.06-.04.08-.05.1-.04.1-.04.23-.1.27-.1.27-.1.28-.1.12-.04.1-.02.1-.03.1-.02-.18.02-.16.02-.17.02-.16.03-.15.05-.16.04-.15.05-.14.04-.27.1-.27.13-.12.04-.1.06-.12.05-.12.05.03.02h.02l.05.03h.05l.1.04.1.03-.17.03-.23.04-.1.04-.1.02-.04.02-.03.02h-.03l-.02.03.03.02h.06l.05.03.13.04.1.04-.26.06-.2.03h-.1l-.05.03h-.02l-.02.03h-.02v.02h.02l.05.03.07.02h.08l.1.02.07.03h.03l.03.02h.02l.02.02-.04.02h-.05l-.04.02-.06.02h-.12l-.13.03-.06.02-.07.02-.06.02-.07.02-.05.03-.05.05-.04.04-.04.03.04.02h.07l.1-.02h.47v.02l-.12.05-.18.08-.1.05-.1.05-.1.05-.1.06-.1.05-.1.06-.1.08-.07.06-.03.04-.03.04-.02.03-.03.04-.02.02v.04l-.02.03v.03h.08l.05-.02h.05l.1-.06.1-.06.03-.03.05-.02.05-.03h.04l.05-.02h.14l-.12.1-.15.13-.17.16-.17.17-.18.17-.16.18-.07.1-.08.08-.06.1-.06.07v.08h.02v.03h.03l.02.02h.11v-.02l.03-.02.1-.1.1-.12.13-.1.13-.14.12-.1.14-.12.06-.05.06-.05.07-.03.06-.02-.03.03-.05.05-.07.06-.07.08-.16.2-.18.22-.08.12-.1.12-.06.12-.08.12-.07.1-.05.1-.04.1-.03.08V18l.02.02.03.02h.04l.03.02h.1l.04-.02.05-.05.04-.07.1-.12.1-.15.1-.17.14-.18.07-.08.07-.08.07-.08.08-.06-.1.18-.1.2-.05.12-.05.12-.05.12-.05.12-.03.13-.05.1-.03.13-.02.12v.12l-.02.1v.11l.02.05v.05l.02.02.02.03.05.03H13.3l.02-.02v-.02l.05-.17.04-.2.06-.18.04-.2.05-.18.06-.18.03-.08.03-.1.04-.06.05-.08-.03.16-.03.14-.02.13v.12l-.02.1v.29l.03.04.02.03.03.02H13.93l.04-.03.04-.18.04-.17.04-.16.05-.14.06-.16.05-.15.06-.16.1-.17.05-.1.05-.1.06-.1.06-.12.07-.1.05-.1.07-.08.08-.1.13-.17.14-.15.14-.16.16-.14.15-.14.17-.13.16-.13.17-.12.12-.08.12-.07.13-.07.12-.07.18-.1.2-.1.18-.06.2-.08.2-.06.18-.05.2-.04.2-.03.2-.03.2-.02h.2l.2-.03z"/></g><g><path fill="#ffcc4d" d="M3.46 7.48s-.24-.2-.32-.1c-.13.16.4.96.4 1.24 0 .46-.3.6-.7.66-.25.04-.66-.02-.66-.02.07-.1.13-.14.26-.15-.15-.07-.3-.23-.3-.5 0-.4.16-.55.16-1 0-.25-.2-.56-.2-.56.36.03.54.37.44.63.06 0 .1 0 .15-.04.02.07-.02.16-.08.23.05.02.08 0 .15 0 0 .07-.05.15-.16.23.33-.1.53.13.53.37 0 .18-.13.3-.25.3-.04 0-.1 0-.13-.04-.02.05 0 .12 0 .17-.07-.03-.13-.08-.1-.2-.06 0-.1-.02-.15-.07.04-.04.1-.07.16-.07-.05-.1 0-.16.1-.2 0 0-.07.2.07.2.06 0 .1-.02.1-.1s-.06-.2-.2-.18c-.17 0-.3.1-.3.35 0 .23.2.34.43.35.22 0 .4-.1.4-.34 0-.3-.45-.98-.45-1.24 0-.2.2-.3.37-.3.23 0 .42.2.42.2l-.14.18z"/></g><g><path fill="#ffcc4d" d="M3.4 12.88c0 .5.46.75.8.75.48 0 .73-.28.73-.65 0-.2-.03-.34-.13-.54 0 0-.78-1.63-1.1-2.26-.03-.08-.04-.17-.04-.3 0-.2.2-.37.4-.37s.4.18.4.4c0 .23-.13.34-.27.34-.17 0-.23-.06-.23-.18 0-.08.03-.1.1-.1.13 0 .1.18.1.18.06-.02.12-.1.08-.18.06 0 .1-.04.14-.08-.05-.03-.1-.06-.15-.07.04-.1 0-.15-.1-.18.02.05.02.08 0 .12-.14-.04-.37.03-.37.28 0 .26.18.47.5.42-.06.04-.1.1-.1.2.05-.02.1-.03.1-.03-.02.08-.08.14-.08.28.07-.03.12-.08.2-.05-.12.24.03.58.42.66-.14-.18-.2-.36-.2-.54 0-.58.15-.67.15-1.07 0-.18-.1-.37-.26-.5v.02c.12-.03.2-.1.24-.16-.26-.08-.64-.08-.84 0-.23.03-.4.2-.44.3-.05.1-.14.42 0 .7.15.33.88 1.87 1.1 2.36.05.1.08.2.08.33 0 .3-.27.4-.43.4-.17 0-.36-.15-.36-.32 0-.1.06-.18.15-.18.2 0 .2.18.14.3.13-.07.2-.17.2-.28.06 0 .13-.05.2-.12-.05-.06-.12-.1-.2-.1.03-.18-.08-.26-.2-.3.04.13.06.27-.15.27-.17 0-.3.03-.36.13 0-.13-.02-.66-.02-.66 0-.2.27-.2.45-.15-.07-.23-.2-.35-.52-.32.08-.03.16-.1.16-.24 0-.2-.14-.4-.24-.47l-.05 1.95z"/></g><g><path fill="#ffcc4d" d="M3.5 12.88c0 .5-.44.75-.8.75-.47 0-.72-.28-.72-.65 0-.2.04-.34.13-.54 0 0 .8-1.63 1.1-2.26.04-.08.05-.17.05-.3 0-.2-.2-.37-.4-.37s-.4.18-.4.4c0 .23.14.34.27.34.16 0 .23-.06.23-.18 0-.08-.04-.1-.1-.1-.14 0-.1.18-.1.18-.07-.02-.12-.1-.1-.18-.04 0-.1-.04-.13-.08.04-.03.08-.06.14-.07-.03-.1 0-.15.1-.18 0 .05-.02.08 0 .12.14-.04.37.03.37.28 0 .26-.18.47-.5.42.07.04.1.1.12.2-.06-.02-.13-.03-.13-.03.04.08.1.14.1.28-.07-.03-.13-.08-.2-.05.1.24-.04.58-.42.66.14-.18.2-.36.2-.54 0-.58-.15-.67-.15-1.07 0-.18.08-.37.25-.5v.02c-.1-.03-.18-.1-.22-.16.26-.08.63-.08.83 0 .25.03.4.2.46.3.04.1.14.42 0 .7-.16.33-.88 1.87-1.1 2.36-.06.1-.1.2-.1.33 0 .3.28.4.44.4.18 0 .37-.15.37-.32 0-.1-.06-.18-.15-.18-.2 0-.2.18-.15.3-.13-.07-.2-.17-.2-.28-.06 0-.13-.05-.2-.12.06-.06.12-.1.2-.1-.03-.18.1-.26.2-.3-.04.13-.06.27.15.27.16 0 .28.03.35.13 0-.13.02-.66.02-.66 0-.2-.28-.2-.45-.15.06-.23.2-.35.5-.32-.06-.03-.15-.1-.15-.24 0-.2.16-.4.26-.47l.05 1.95z"/></g><g><path fill="#ffcc4d" d="M3.46 7.48s.23-.2.3-.1c.14.16-.38.96-.38 1.24 0 .46.3.6.68.66.26.04.68-.02.68-.02-.08-.1-.13-.14-.26-.15.14-.07.3-.23.3-.5 0-.4-.17-.55-.17-1 0-.25.2-.56.2-.56-.35.03-.53.37-.43.63-.05 0-.1 0-.15-.04-.03.07.02.16.07.23-.05.02-.1 0-.16 0 0 .07.05.15.17.23-.32-.1-.52.13-.52.37 0 .18.13.3.25.3.04 0 .1 0 .13-.04.02.05 0 .12 0 .17.08-.03.13-.08.1-.2.06 0 .12-.02.15-.07-.02-.04-.08-.07-.15-.07.05-.1 0-.16-.08-.2 0 0 .05.2-.08.2-.07 0-.13-.02-.13-.1s.07-.2.22-.18c.15 0 .27.1.27.35 0 .23-.18.34-.42.35-.22 0-.38-.1-.38-.34 0-.3.43-.98.43-1.24 0-.2-.18-.3-.36-.3-.22 0-.42.2-.42.2l.14.18z"/></g><g><path fill="#ffcc4d" d="M3.4 21.62c0 .5.46.76.8.76.48 0 .73-.3.73-.66 0-.2-.03-.34-.13-.54 0 0-.78-1.63-1.1-2.26-.03-.08-.04-.17-.04-.3 0-.2.2-.37.4-.37s.4.17.4.38c0 .25-.13.36-.27.36-.17 0-.23-.08-.23-.2 0-.07.03-.1.1-.1.13 0 .1.18.1.18.06 0 .12-.1.08-.17.06 0 .1-.03.14-.07-.05-.04-.1-.07-.15-.08.04-.1 0-.16-.1-.18.02.04.02.08 0 .1-.14-.03-.37.04-.37.3 0 .25.18.47.5.4-.06.05-.1.13-.1.2.05 0 .1 0 .1 0-.02.06-.08.12-.08.25.07-.03.12-.08.2-.05-.12.25.03.58.42.66-.14-.16-.2-.34-.2-.52 0-.57.15-.67.15-1.07 0-.17-.1-.35-.26-.48.12-.02.2-.07.24-.15-.26-.07-.64-.07-.84 0-.23.03-.4.2-.44.3-.05.1-.14.42 0 .72.15.32.88 1.86 1.1 2.34.05.1.08.2.08.33 0 .3-.27.4-.43.4-.17 0-.36-.15-.36-.33 0-.1.06-.17.15-.17.2 0 .2.17.14.28.13-.05.2-.16.2-.27.06 0 .13-.03.2-.1-.05-.07-.12-.12-.2-.12.03-.17-.08-.24-.2-.28.04.12.06.27-.15.27-.17 0-.3.02-.36.12 0-.14-.02-.67-.02-.67 0-.2.27-.2.45-.13-.07-.23-.2-.36-.52-.33.08-.03.16-.1.16-.24 0-.2-.14-.4-.24-.45l-.05 1.94z"/></g><g><path fill="#ffcc4d" d="M3.5 21.62c0 .5-.44.76-.8.76-.47 0-.72-.3-.72-.66 0-.2.04-.34.13-.54 0 0 .8-1.63 1.1-2.26.04-.08.05-.17.05-.3 0-.2-.2-.37-.4-.37s-.4.17-.4.38c0 .25.14.36.27.36.16 0 .23-.08.23-.2 0-.07-.04-.1-.1-.1-.14 0-.1.18-.1.18-.07 0-.12-.1-.1-.17-.04 0-.1-.03-.13-.07.04-.04.08-.07.14-.08-.03-.1 0-.16.1-.18 0 .04-.02.08 0 .1.14-.03.37.04.37.3 0 .25-.18.47-.5.4.07.05.1.13.12.2-.06 0-.13 0-.13 0 .04.06.1.12.1.25-.07-.03-.13-.08-.2-.05.1.25-.04.58-.42.66.14-.16.2-.34.2-.52 0-.57-.15-.67-.15-1.07 0-.17.08-.35.25-.48-.1-.02-.18-.07-.22-.15.26-.07.63-.07.83 0 .25.03.4.2.46.3.04.1.14.42 0 .72-.16.32-.88 1.86-1.1 2.34-.06.1-.1.2-.1.33 0 .3.28.4.44.4.18 0 .37-.15.37-.33 0-.1-.06-.17-.15-.17-.2 0-.2.17-.15.28-.13-.05-.2-.16-.2-.27-.06 0-.13-.03-.2-.1.06-.07.12-.12.2-.12-.03-.17.1-.24.2-.28-.04.12-.06.27.15.27.16 0 .28.02.35.12 0-.14.02-.67.02-.67 0-.2-.28-.2-.45-.13.06-.23.2-.36.5-.33-.06-.03-.15-.1-.15-.24 0-.2.16-.4.26-.45l.05 1.94z"/></g><g><path fill="#ffcc4d" d="M3.5 23.12c0-.5-.44-.76-.8-.76-.47 0-.72.3-.72.66 0 .2.04.34.13.54 0 0 .8 1.63 1.1 2.26.04.08.05.17.05.3 0 .2-.2.37-.4.37s-.4-.18-.4-.4c0-.23.14-.35.27-.35.16 0 .23.07.23.2 0 .07-.04.1-.1.1-.14 0-.1-.2-.1-.2-.07.03-.12.1-.1.2-.04 0-.1.03-.13.07.04.03.08.06.14.07-.03.1 0 .15.1.17 0-.04-.02-.08 0-.1.14.03.37-.04.37-.3 0-.25-.18-.46-.5-.4.07-.05.1-.13.12-.2-.06 0-.13 0-.13 0 .04-.05.1-.1.1-.25-.07.03-.13.08-.2.05.1-.24-.04-.58-.42-.66.14.18.2.36.2.54 0 .57-.15.67-.15 1.07 0 .18.08.36.25.5v-.02c-.1.03-.18.1-.22.16.26.08.63.08.83 0 .25-.03.4-.2.46-.3.04-.1.14-.42 0-.7-.16-.33-.88-1.87-1.1-2.36-.06-.1-.1-.2-.1-.33 0-.3.28-.4.44-.4.18 0 .37.14.37.32 0 .1-.06.18-.15.18-.2 0-.2-.18-.15-.3-.13.07-.2.17-.2.28-.06 0-.13.05-.2.12.06.06.12.1.2.1-.03.18.1.25.2.3-.04-.13-.06-.27.15-.27.16 0 .28-.03.35-.13 0 .13.02.66.02.66 0 .2-.28.2-.45.15.06.23.2.35.5.32-.06.03-.15.1-.15.24 0 .2.16.4.26.47l.05-1.95z"/></g><g><path fill="#ffcc4d" d="M3.5 14.38c0-.5-.44-.76-.8-.76-.47 0-.72.3-.72.66 0 .2.04.34.13.54 0 0 .8 1.63 1.1 2.26.04.08.05.17.05.3 0 .2-.2.36-.4.37-.2 0-.4-.17-.4-.38 0-.25.14-.36.27-.36.16 0 .23.08.23.2 0 .07-.04.1-.1.1-.14 0-.1-.18-.1-.18-.07.02-.12.1-.1.17-.04 0-.1.03-.13.07.04.04.08.07.14.08-.03.1 0 .16.1.18 0-.04-.02-.08 0-.1.14.03.37-.04.37-.3 0-.25-.18-.47-.5-.4.07-.05.1-.13.12-.22-.06.04-.13.04-.13.04.04-.07.1-.13.1-.26-.07.03-.13.08-.2.05.1-.25-.04-.58-.42-.66.14.16.2.34.2.52 0 .57-.15.67-.15 1.07 0 .17.08.35.25.48-.1.02-.18.07-.22.15.26.07.63.07.83 0 .25-.03.4-.2.46-.3.04-.1.14-.42 0-.72-.16-.32-.88-1.86-1.1-2.34-.06-.1-.1-.2-.1-.33 0-.3.28-.4.44-.4.18 0 .37.15.37.33 0 .1-.06.17-.15.17-.2 0-.2-.17-.15-.3-.13.07-.2.18-.2.3-.06 0-.13.03-.2.1.06.07.12.12.2.12-.03.17.1.24.2.28-.04-.12-.06-.27.15-.27.16 0 .28-.02.35-.13 0 .14.02.67.02.67 0 .2-.28.2-.45.13.06.23.2.36.5.33-.06.03-.15.1-.15.24 0 .2.16.4.26.45l.05-1.94z"/></g><g><path fill="#ffcc4d" d="M3.4 14.38c0-.5.46-.76.8-.76.48 0 .73.3.73.66 0 .2-.03.34-.13.54 0 0-.78 1.63-1.1 2.26-.03.08-.04.17-.04.3 0 .2.2.37.4.37s.4-.17.4-.38c0-.25-.13-.36-.27-.36-.17 0-.23.08-.23.2 0 .07.03.1.1.1.13 0 .1-.18.1-.18.06.02.12.1.08.17.06 0 .1.03.14.07-.05.04-.1.07-.15.08.04.1 0 .16-.1.18.02-.04.02-.08 0-.1-.14.03-.37-.04-.37-.3 0-.25.18-.47.5-.4-.06-.05-.1-.13-.1-.22.05.04.1.04.1.04-.02-.07-.08-.13-.08-.26.07.03.12.08.2.05-.12-.25.03-.58.42-.66-.14.16-.2.34-.2.52 0 .57.15.67.15 1.07 0 .17-.1.35-.26.48.12.02.2.07.24.15-.26.07-.64.07-.84 0-.23-.03-.4-.2-.44-.3-.05-.1-.14-.42 0-.72.15-.32.88-1.86 1.1-2.34.05-.1.08-.2.08-.33 0-.3-.27-.4-.43-.4-.17 0-.36.15-.36.33 0 .1.06.17.15.17.2 0 .2-.17.14-.3.13.07.2.18.2.3.06 0 .13.03.2.1-.05.07-.12.12-.2.12.03.17-.08.24-.2.28.04-.12.06-.27-.15-.27-.17 0-.3-.02-.36-.13 0 .14-.02.67-.02.67 0 .2.27.2.45.13-.07.23-.2.36-.52.33.08.03.16.1.16.24 0 .2-.14.4-.24.45l-.05-1.94z"/></g><g><path fill="#ffcc4d" d="M3.46 28.52s.23.2.3.1c.14-.16-.38-.96-.38-1.24 0-.46.3-.6.68-.65.26-.05.68 0 .68 0-.08.12-.13.15-.26.16.14.06.3.23.3.5 0 .4-.17.55-.17 1 0 .25.2.56.2.56-.35-.03-.53-.37-.43-.63-.05 0-.1 0-.15.04-.03-.07.02-.16.07-.23-.05-.03-.1 0-.16 0 0-.07.05-.15.17-.23-.32.1-.52-.13-.52-.37 0-.18.13-.3.25-.3.04 0 .1 0 .13.04.02-.05 0-.12 0-.17.08.03.13.08.1.2.06 0 .12.02.15.06-.02.05-.08.08-.15.08.05.1 0 .16-.08.2 0 0 .05-.2-.08-.2-.07 0-.13.02-.13.1s.07.2.22.18c.15 0 .27-.1.27-.35 0-.23-.18-.34-.42-.35-.22 0-.38.1-.38.34 0 .3.43.98.43 1.24 0 .2-.18.3-.36.3-.22.02-.42-.2-.42-.2l.14-.18z"/></g><g><path fill="#ffcc4d" d="M3.46 28.52s-.24.2-.32.1c-.13-.16.4-.96.4-1.24 0-.46-.3-.6-.7-.65-.25-.05-.66 0-.66 0 .07.12.13.15.26.16-.15.06-.3.23-.3.5 0 .4.16.55.16 1 0 .25-.2.56-.2.56.36-.03.54-.37.44-.63.06 0 .1 0 .15.04.02-.07-.02-.16-.08-.23.05-.03.08 0 .15 0 0-.07-.05-.15-.16-.23.33.1.53-.13.53-.37 0-.18-.13-.3-.25-.3-.04 0-.1 0-.13.04-.02-.05 0-.12 0-.17-.07.03-.13.08-.1.2-.06 0-.1.02-.15.06.04.05.1.08.16.08-.05.1 0 .16.1.2 0 0-.07-.2.07-.2.06 0 .1.02.1.1s-.06.2-.2.18c-.17 0-.3-.1-.3-.35 0-.23.2-.34.43-.35.22 0 .4.1.4.34 0 .3-.45.98-.45 1.24 0 .2.2.3.37.3.23.02.42-.2.42-.2l-.14-.18z"/></g><g><path fill="#ffcc4d" d="M3.4 23.12c0-.5.46-.76.8-.76.48 0 .73.3.73.66 0 .2-.03.34-.13.54 0 0-.78 1.63-1.1 2.26-.03.08-.04.17-.04.3 0 .2.2.37.4.37s.4-.18.4-.4c0-.23-.13-.35-.27-.35-.17 0-.23.07-.23.2 0 .07.03.1.1.1.13 0 .1-.2.1-.2.06.03.12.1.08.2.06 0 .1.03.14.07-.05.03-.1.06-.15.07.04.1 0 .15-.1.17.02-.04.02-.08 0-.1-.14.03-.37-.04-.37-.3 0-.25.18-.46.5-.4-.06-.05-.1-.13-.1-.2.05 0 .1 0 .1 0-.02-.05-.08-.1-.08-.25.07.03.12.08.2.05-.12-.24.03-.58.42-.66-.14.18-.2.36-.2.54 0 .57.15.67.15 1.07 0 .18-.1.36-.26.5v-.02c.12.03.2.1.24.16-.26.08-.64.08-.84 0-.23-.03-.4-.2-.44-.3-.05-.1-.14-.42 0-.7.15-.33.88-1.87 1.1-2.36.05-.1.08-.2.08-.33 0-.3-.27-.4-.43-.4-.17 0-.36.14-.36.32 0 .1.06.18.15.18.2 0 .2-.18.14-.3.13.07.2.17.2.28.06 0 .13.05.2.12-.05.06-.12.1-.2.1.03.18-.08.25-.2.3.04-.13.06-.27-.15-.27-.17 0-.3-.03-.36-.13 0 .13-.02.66-.02.66 0 .2.27.2.45.15-.07.23-.2.35-.52.32.08.03.16.1.16.24 0 .2-.14.4-.24.47l-.05-1.95z"/></g></g></g></g></svg>