<svg xmlns="http://www.w3.org/2000/svg" viewBox="0 0 45 45" enable-background="new 0 0 45 45"><defs><clipPath id="a"><path d="M0 36h36V0H0v36z"/></clipPath></defs><g><g><g clip-path="url(#a)" transform="matrix(1.25 0 0 -1.25 0 45)"><g><path fill="#4b92db" d="M36 9c0-2.2-1.8-4-4-4H4C1.8 5 0 6.8 0 9v18c0 2.2 1.8 4 4 4h28c2.2 0 4-1.8 4-4V9z"/></g><g><path fill="#fff" d="M13.43 24.56c-.46-.4-.76-.9-1.1-1.37-.3-.4-.7-.63-1.03-.95.18.38.22.82.45 1.2.4.62 1.06.87 1.68 1.1m-2.48-1.37c.24.26.5.46.82.54-.6-.42-.58-1.17-.77-1.8-.06-.22-.16-.44-.22-.67l.02-.02c.1.27.27.53.5.74.43.4 1.07.65 1.28 1.24 0-.8-.7-1.43-1.35-1.92-.28-.2-.53-.5-.68-.8.03.22.04.4.02.63-.07.73-.1 1.53.38 2.08zm-1.23-2.46c0 .73.28 1.32.7 1.86.02 0 .03.02.05.02-.47-.7-.05-1.6-.1-2.42l-.07-.82s0-.03.03-.02c.03.1.04.2.06.28.1.67.68 1.13 1.18 1.6.12.12.2.25.26.4-.04-.34-.13-.68-.28-1-.4-.76-1.12-1.4-1.26-2.27-.06.85-.58 1.47-.58 2.37m-.35-1.03c.05.22.1.45.2.66-.2-.96.44-1.65.66-2.5.08-.3.1-.63.24-.92 0 0 .02 0 .03 0-.32.9.14 1.7.6 2.4.1.2.17.4.22.62.05-.4-.03-.86-.1-1.27-.1-.55-.28-1.05-.43-1.56-.1-.32-.08-.68-.03-1.02l-.05.04c-.33.62-1 1.1-1.2 1.78-.15.54-.26 1.16-.15 1.75zm-.03-1.9c.07-1 1.16-1.55 1.67-2.4.12-.17.24-.35.4-.5-.03.1-.12.2-.17.32-.16.35-.24.77-.2 1.2.05.52.27 1 .2 1.55.43-.96.3-2.17.55-3.2.06-.24.2-.44.28-.66-.44.35-1 .64-1.5 1.02-.46.37-.86.8-1.07 1.36-.16.4-.2.88-.16 1.33zm.54-2.33c.52-1.15 1.8-1.24 2.65-1.95.16-.14.32-.26.5-.35-.2.2-.4.4-.55.63-.5.7-.33 1.67-.7 2.42.34-.4.66-.83.86-1.3.3-.75.42-1.6 1.13-2.18-.77.25-1.65.2-2.35.66-.72.47-1.4 1.22-1.54 2.07zm1.32-2.15c.82-.94 2.15-.64 3.24-.87.16-.03.3-.08.46-.06-.13.08-.3.08-.45.14-.85.32-.98 1.23-1.44 1.85.6-.4 1.1-.94 1.64-1.45.4-.35.87-.5 1.37-.6-.1-.05-.27-.04-.4-.07-.9-.22-1.88-.57-2.84-.26-.6.2-1.25.7-1.56 1.3m9.14-2.57c-.1-.12-.23-.22-.36-.32-.8.8-1.7 1.72-2.6 1.72-.54 0-.94-.42-1.4-.7-.63-.42-1.5-.65-2.26-.35-.4.15-.8.38-1.08.75.6-.4 1.47-.47 2.14-.2.73.32 1.48.72 2.32.72 1.24 0 2.4-.84 3.24-1.62"/></g><g><path fill="#fff" d="M22.57 24.56c.46-.4.76-.9 1.1-1.37.3-.4.7-.63 1.03-.95-.18.38-.22.82-.45 1.2-.4.62-1.06.87-1.68 1.1m2.48-1.37c-.24.26-.5.46-.82.54.6-.42.58-1.17.77-1.8.07-.22.17-.44.22-.67l-.02-.02c-.1.27-.27.53-.5.74-.43.4-1.07.65-1.28 1.24 0-.8.7-1.43 1.35-1.92.28-.2.53-.5.68-.8-.03.22-.04.4-.02.63.07.73.1 1.53-.38 2.08zm1.23-2.46c0 .73-.28 1.32-.7 1.86-.02 0-.03.02-.05.02.47-.7.05-1.6.1-2.42l.07-.82s0-.03-.03-.02c-.03.1-.04.2-.05.28-.12.67-.7 1.13-1.2 1.6-.12.12-.2.25-.26.4.04-.34.13-.68.28-1 .4-.76 1.13-1.4 1.26-2.27.06.85.58 1.47.58 2.37m.35-1.03c-.05.22-.1.45-.2.66.2-.96-.44-1.65-.66-2.5-.08-.3-.1-.63-.24-.92 0 0-.02 0-.02 0 .32.9-.14 1.7-.6 2.4-.1.2-.17.4-.22.62-.05-.4.03-.86.1-1.27.1-.55.3-1.05.43-1.56.1-.32.08-.68.03-1.02l.05.04c.33.62 1 1.1 1.2 1.78.15.54.26 1.16.15 1.75zm.03-1.9c-.07-1-1.15-1.55-1.67-2.4-.12-.17-.24-.35-.4-.5.03.1.12.2.17.32.16.35.24.77.2 1.2-.05.52-.27 1-.2 1.55-.43-.96-.3-2.17-.55-3.2-.05-.24-.2-.44-.28-.66.44.35 1 .64 1.5 1.02.46.37.86.8 1.07 1.36.16.4.2.88.16 1.33zm-.54-2.33c-.5-1.15-1.8-1.24-2.65-1.95-.16-.14-.32-.26-.5-.35.2.2.4.4.55.63.5.7.33 1.67.7 2.42-.34-.4-.66-.83-.86-1.3-.3-.75-.42-1.6-1.13-2.18.77.25 1.65.2 2.35.66.72.47 1.4 1.22 1.54 2.07zm-1.32-2.15c-.8-.94-2.15-.64-3.24-.87-.16-.03-.3-.08-.46-.06.13.08.3.08.45.14.85.32.98 1.23 1.45 1.85-.6-.4-1.1-.94-1.64-1.45-.4-.35-.87-.5-1.37-.6.1-.05.27-.04.4-.07.9-.22 1.9-.57 2.84-.26.6.2 1.25.7 1.56 1.3m-9.14-2.57c.1-.12.23-.22.36-.32.8.8 1.72 1.72 2.6 1.72.54 0 .94-.42 1.4-.7.63-.42 1.5-.65 2.26-.35.4.15.8.38 1.08.75-.6-.4-1.47-.47-2.13-.2-.74.32-1.5.72-2.33.72-1.24 0-2.4-.84-3.24-1.62"/></g><g><path fill="#fff" d="M23.52 16.34l-.13.08c-.3-.6-.67-1.12-1.12-1.58l-.78.78c.38.4.7.84.92 1.33l-.13.07c-.24-.48-.54-.92-.9-1.3l-.7.7c.3.33.53.7.7 1.08l-.12.07c-.17-.38-.4-.73-.7-1.03l-.78.78c.22.23.4.5.5.78l-.13.07c-.1-.28-.27-.53-.47-.74l-.7.7c.2.23.3.5.32.8h1c0-.26-.06-.52-.15-.76l.13-.07c.1.27.17.55.18.84h1.1c0-.48-.12-.95-.3-1.37l.13-.07c.2.45.32.94.33 1.44h1c0-.68-.17-1.34-.44-1.92l.12-.08c.3.62.45 1.3.46 2h1.1c0-.9-.22-1.76-.6-2.52l.14-.08c.4.83.6 1.74.6 2.68 0 .8-.14 1.58-.43 2.3l-.15-.06c.28-.68.43-1.4.44-2.17h-1.12c0 .6-.13 1.18-.34 1.72l-.14-.06c.2-.52.32-1.1.33-1.67h-1c0 .44-.1.87-.25 1.27l-.14-.06c.15-.37.23-.78.24-1.2h-1.1c0 .26-.06.53-.15.77l-.14-.06c.07-.2.12-.46.13-.7h-1c-.02.3-.14.58-.34.8l.7.7c.22-.22.38-.5.5-.8l.13.07c-.12.3-.3.6-.53.85l.8.78c.32-.35.57-.75.74-1.2l.14.07c-.18.45-.44.87-.8 1.23l.72.7c.44-.44.77-.97 1-1.54l.14.06c-.24.6-.6 1.13-1.04 1.6l.78.78c.56-.57.98-1.23 1.27-1.94l.14.06c-.32.75-.77 1.44-1.36 2.04-.6.6-1.3 1.05-2.05 1.35l-.06-.13c.7-.3 1.37-.7 1.94-1.27l-.78-.78c-.46.44-1 .8-1.57 1.02l-.05-.14c.56-.22 1.07-.56 1.5-1l-.7-.7c-.34.34-.74.6-1.17.77l-.04-.14c.4-.17.8-.4 1.12-.73l-.78-.78c-.22.2-.47.37-.74.48l-.06-.13c.25-.1.5-.26.7-.46l-.72-.7c-.22.2-.5.32-.8.34v1c.28 0 .56-.07.82-.17l.06.13c-.28.12-.58.18-.9.2v1.1c.46 0 .9-.1 1.3-.27l.05.14c-.4.17-.86.27-1.33.28v1c.6 0 1.17-.13 1.7-.35l.06.14c-.55.22-1.14.35-1.76.36V25c.76 0 1.5-.16 2.17-.43l.05.14c-.73.3-1.5.45-2.3.45-1 0-1.92-.23-2.74-.65l.06-.13c.8.4 1.7.62 2.6.63v-1.1c-.74-.02-1.45-.2-2.08-.5l.07-.14c.63.3 1.3.48 2.03.5v-1c-.56-.02-1.1-.16-1.56-.4l.07-.12c.46.23.96.35 1.5.36v-1.1c-.36-.02-.7-.1-1-.24l.08-.13c.28.13.6.2.9.2v-1c-.15 0-.3-.03-.43-.1l.05-.12c.14.07.3.1.45.1.32 0 .6-.13.83-.35.23-.22.35-.52.35-.83 0-.65-.53-1.18-1.18-1.18-.3 0-.6.12-.83.34-.23.23-.35.52-.35.84 0 .3.12.6.35.83.1.1.24.2.38.26l-.06.14c-.15-.06-.27-.14-.38-.23l-.7.72c.17.17.38.3.6.4l-.07.14c-.24-.1-.46-.26-.65-.44l-.78.78c.27.27.58.48.92.64l-.07.13c-.35-.17-.67-.4-.95-.66l-.7.7c.35.36.75.65 1.18.86l-.06.13c-.46-.24-.87-.53-1.24-.88l-.78.78c.45.44.96.8 1.5 1.07l-.06.13c-1.2-.6-2.17-1.58-2.76-2.78l.13-.07c.27.57.64 1.1 1.1 1.55l.77-.8c-.36-.36-.67-.8-.9-1.27l.13-.07c.22.45.5.88.87 1.25l.7-.7c-.27-.3-.5-.64-.7-1.02l.14-.07c.17.37.4.7.68 1l.78-.8c-.2-.2-.36-.45-.48-.72l.13-.07c.1.27.26.5.45.7l.7-.7c-.18-.22-.3-.5-.32-.8h-1c0 .28.06.55.17.8l-.13.08c-.12-.27-.2-.57-.2-.9h-1.1c0 .5.12 1 .32 1.43l-.13.08c-.2-.45-.32-.96-.33-1.5h-1c0 .7.17 1.37.46 1.98l-.13.07c-.3-.62-.47-1.3-.48-2.04h-1.1c0 .9.22 1.77.6 2.55l-.12.07c-.4-.8-.63-1.73-.63-2.7 0-.6.08-1.18.24-1.73l.16.03c-.15.5-.24 1.06-.24 1.6h1.1c0-.45.08-.9.2-1.33l.15.03c-.12.42-.2.86-.2 1.3h1c0-.35.07-.7.18-1.05l.14.03c-.1.34-.17.7-.18 1.04h1.1c0-.26.06-.5.15-.76l.14.04c-.07.23-.12.47-.13.72h1c.02-.3.14-.58.34-.8l-.7-.72c-.22.24-.38.5-.5.8l-.13-.04c.1-.3.3-.6.53-.86l-.78-.78c-.38.4-.66.86-.83 1.37l-.15-.02c.17-.54.46-1.03.86-1.45l-.7-.7c-.53.54-.9 1.2-1.13 1.9l-.14-.03c.22-.74.62-1.4 1.17-1.98l-.78-.78c-.7.7-1.2 1.56-1.46 2.48l-.15-.03c.3-1 .82-1.88 1.56-2.62.5-.5 1.08-.9 1.7-1.2l.07.13c-.6.3-1.13.67-1.6 1.13l.77.8c.4-.4.87-.72 1.37-.95l.08.13c-.5.23-.95.54-1.34.92l.72.7c.33-.3.7-.56 1.12-.74l.07.13c-.4.18-.76.42-1.08.73l.78.78c.25-.22.55-.4.86-.52l.08.14c-.3.1-.6.27-.83.5l.72.7c.22-.2.5-.3.8-.33v-1c-.23 0-.46.04-.68.12l-.08-.14c.25-.08.5-.13.77-.14v-1.1c-.46 0-.9.1-1.3.27l-.1-.12c.45-.18.9-.28 1.4-.3v-1c-.66.02-1.3.16-1.88.43l-.08-.12c.6-.28 1.27-.43 1.96-.44v-1.1c-.88 0-1.73.2-2.5.57l-.07-.12c.8-.4 1.7-.6 2.64-.6.98 0 1.92.23 2.77.66l-.07.13c-.8-.4-1.68-.63-2.63-.64v1.1c.75.02 1.47.2 2.12.52l-.08.14c-.62-.32-1.3-.5-2.05-.5v1c.57 0 1.1.13 1.6.38l-.08.13c-.47-.22-.98-.35-1.53-.36v1.1c.36 0 .7.1 1.02.25l-.08.12c-.3-.14-.6-.22-.95-.23v1c.3 0 .6.13.82.33l.7-.7c-.18-.17-.37-.3-.58-.4l.07-.14c.2.1.42.24.6.4l.78-.77c-.26-.25-.56-.46-.9-.62l.08-.12c.34.16.65.38.93.65l.7-.7c-.35-.34-.75-.62-1.18-.84l.07-.15c.43.23.84.5 1.2.86l.78-.77c-.44-.42-.94-.78-1.48-1.06l.07-.13c.57.3 1.1.67 1.57 1.14.5.5.9 1.05 1.18 1.66z"/></g><g><path fill="#fff" d="M13.06 16.15l-.03.05-.04.12.08-.05.03-.1.06-.02.04-.1-.03-.04-.06.08-.04.07z"/></g><g><path fill="#fff" d="M17.8 20.03h-.06v.14l.03.03v.06h-.22v.07l.02.02-.05.02-.03-.05-.03-.06h-.06v-.04h-.03v-.08L17.2 20h-.35c-.03-.05-.1 0-.1 0 0 .05-.1 0-.1 0 0-.06-.1.05-.1.05l-.22.15c-.12.12-.3-.03-.32-.06.02-.1-.13-.02-.13-.02s-.12.04-.14 0c-.02-.06-.1-.05-.1-.05v-.02l-.07-.02-.02-.04-.07-.02h.2c.03 0-.03-.1-.06-.1h-.08l-.03-.03h-.1l-.03-.05h-.12s-.07-.05-.06-.07c0-.02-.02-.07-.04-.07s-.06-.06-.04-.08c0-.02-.04-.08-.04-.08v-.06l-.05-.02v-.17l-.07-.05v-.07l-.12-.12.02-.1-.1-.1.02-.1h-.06v-.06l-.04-.13h.07c.03.02.02-.08 0-.1-.03 0-.1-.03-.06-.05.03-.03-.1-.02-.1.02s-.08.07-.1.05c-.02 0-.05.06-.05.06-.07.07-.28 0-.28 0l-.03-.1c-.07-.02-.1-.13-.1-.13-.07-.02-.1-.1-.1-.1.03-.03-.02-.03-.02-.03v-.14l-.03-.04v-.16c.03 0 .02-.06.02-.06-.06 0-.05-.1-.05-.1l-.13-.04-.02-.03h-.16l-.05-.04-.03.05h-.3l-.02.03-.06.02-.02.07h-.1v-.05h-.1c0-.07-.1-.16-.12-.14 0 .03-.08.1-.05.1.04.02.12.03.12.03v.06h-.23l-.03-.03h-.1v-.1l-.04-.02c-.03 0 0-.08 0-.08.05-.04 0-.1 0-.1-.04-.05.03-.12.03-.12.05 0-.03-.05-.03-.05 0-.06.05-.08.05-.08-.04-.06.03-.1.03-.1v-.1l.06-.03v-.07l.02-.04h.1v.16c-.1.1.07.1.07.07s.08-.05.08-.05c0-.1.12-.15.15-.06.03.1.05.04.07 0 .02-.05.14-.16.14-.16h.08v-.08c.12 0 .15 0 .2-.15.03-.15.15-.2.15-.2l.1.02c0 .07.08-.02.08-.06 0-.04.17-.18.17-.18l.17-.04.15-.13h.16c.03.1.18 0 .2-.04 0-.03.1-.1.12-.07 0 .03.08 0 .1-.1 0-.08.05-.06.05-.06h.35l.12.1.32.02c.16 0 .06.22.03.22-.06.05.02.23.02.23l-.45.43c-.1 0-.02.15-.02.15.08.05-.02.13-.02.13.02.1-.04.17-.04.17-.1.08-.08.22-.08.22v.1c-.1.08.04.1.04.1.04.07-.03.13-.03.13v.08l-.1.02-.02.3-.22.32c-.05 0-.02.1-.02.1.07.02 0 .1 0 .1v.13h.13l.03.06h.06v.17c.02.08.1.03.1.03h.08l.05.1.02.07h-.07c-.08.05-.04.2-.04.2.12.2.25.1.25.1h.1c.13-.1 0-.26 0-.26 0-.04 0-.16 0-.16l.03-.2-.08-.07c-.07-.02-.07-.1 0-.13.06 0 .04-.13-.04-.04-.1 0 .08-.1.03-.08.1-.06.08.05.08.05l.16.12c.06.04.16-.1.16-.1 0-.03.24-.02.24-.02.07-.04.1-.16.1-.16.06.1.2 0 .1-.04.1-.06.1-.12.1-.12.08.03.08-.04.08-.06 0-.02.03.1.03.1-.1.07.12.1.06-.03l-.04-.07.05-.05v-.14c.14 0 .1.18.1.18h.07c0 .07.04.04.04.04-.04.2.1.25.1.25.08.03.1.2.1.2-.07.02-.04.1.03.03.05-.07-.05.15-.05.15l-.05.05h-.07v.07h-.12v-.1h-.05v.03l-.03-.07h-.1l-.02.07.07.02.03.04v.1h.1l.1.02c0 .1.06.08.06.08l.04-.03.05-.04V19l-.03-.03v-.05l.02-.07H17c0 .1.13.1.17.04l.04.08c-.08.04 0 .1.03.08.03-.03.08.08.08.08s.06-.06 0 .02c-.03.08.04.1.04.1 0 .1.08.08.08.08v.1h-.08c0-.1-.1 0-.05 0 .03.03.06.07.06.07v.07h.04v.07h.1l.08.04.02.03.08.02.13.1v.06c-.08 0 0 .06 0 .06v.1z"/></g><g><path fill="#fff" d="M15.3 18.8h-.1v-.04h.04c.05-.1 0-.3 0-.3s-.07 0-.08.03c0 .03-.04-.1-.02-.1.03-.03.1 0 .12-.08 0-.07.05.04.05.04v.43z"/></g><g><path fill="#fff" d="M15.27 18.24l-.07.04v-.15l.1-.13.04.1v.04l-.03.02.02.1h.03v.05l-.08-.06z"/></g><g><path fill="#fff" d="M17.46 18.93v.13l.04.04.07.03v.12h-.03v.04h-.08v-.03h-.04v-.05h.03v-.04l-.02-.03v-.03h-.06l-.1-.12-.02-.05-.03-.04-.04-.1h-.13l-.02-.1.02-.1.1-.04.02.06.04.02v.06l.04.05.04.04v.04l.07.04h.07l.04.05z"/></g><g><path fill="#fff" d="M17.7 18.86v.17l-.1.05-.07-.06V18.87h-.07l-.02-.18-.05-.03v-.06h-.07l-.07-.03v-.08l-.06-.04-.02-.08-.03-.18s.05-.1.08-.06c.03.05.08.06.08.06l.03.04h.17c0 .07.1.04.1 0 0-.02.05 0 .05 0l.05.07h.06v.1h.04v.12c.1.03.1.12.1.12v.08c-.05.02-.02.06 0 .05.04 0-.04.06-.04.06-.03-.03-.06.03-.06.03h-.1z"/></g><g><path fill="#fff" d="M17.8 18.1c0-.07-.1-.1-.1-.1l-.06.02-.04.04v.08h.05v-.03h.15z"/></g><g><path fill="#fff" d="M18.14 18.5c0-.05 0 .1.03.1.03-.02 0 .08 0 .08l-.1-.1c.05 0 .06-.05.07-.07z"/></g><g><path fill="#fff" d="M18.46 18.83c.03-.05.02-.13.12-.2.03-.02-.02-.06-.05-.04-.03 0-.12.15-.12.15v.08c.03.05.05.03.06 0z"/></g><g><path fill="#fff" d="M21 15.8l.05-.02v-.1c.08-.08.32-.02.32 0s0 .23 0 .23l-.04.04v.16c.02.08-.13.2-.14.18-.02-.03-.1 0-.1-.03s-.05-.15-.03-.2c.03-.04 0-.04-.02-.1 0-.03-.07-.1-.06-.14z"/></g><g><path fill="#fff" d="M21.2 18.42c-.02.04.14.1.16.02.02-.07 0-.06-.02-.05-.03 0-.1-.03-.13.02z"/></g><g><path fill="#fff" d="M21.4 20.68h-.1s.04 0-.04.07c-.1.08-.15-.02-.15-.02H21v-.1l-.04-.03v-.06h.08s0-.07.02-.04c.02.03.17 0 .16-.08 0-.04.15-.12.13-.22.08 0 .07-.1.07-.1h.1l.03.06h.03v.03h-.07v.2l-.04.04v.05h-.04l.03.1-.05.08z"/></g><g><path fill="#fff" d="M21.68 20.04H21.5l-.05-.13s.03 0 .06-.06c.03-.04.05-.3-.03-.34-.07-.04 0-.02 0-.02v-.14c0-.06.04-.03.06 0 .02.03.04.04.07.07.02.04.06.1.06.14 0 .05.04.12.02.14-.02 0 .02.1.02.1s.02.05 0 .1 0 .1.02.13l-.04.04z"/></g><g><path fill="#fff" d="M21.7 20.1l-.03.06s0 .05 0 .08c.02.03 0 .05-.03.06-.02 0 0 .05-.02.08 0 .02-.05.04-.05.04s0 .1 0 .1c0 .03-.07.06-.05.08.02.02.03.04.05.05.02.02-.02.1 0 .1.04-.03.04-.06.06-.1 0 0 0-.1.02-.12.03-.02 0-.08.04-.08s0-.12 0-.12 0-.1.03-.1 0-.15 0-.15l-.04.03z"/></g><g><path fill="#fff" d="M21.3 21.13c0-.03.05-.05.05-.07 0-.03-.02-.05.02-.05s.06 0 .08-.02c0-.03 0-.08 0-.1 0-.03 0-.07.04-.07.02 0 .03 0 .03 0 0-.03.03.06.03.06-.03.02-.05.08-.05.08s-.02.1-.02.1-.05.02-.06.03c-.02 0-.05.06-.05.06h-.08z"/></g><g><path fill="#fff" d="M21.35 21.18c-.02.03-.03.05-.06.06-.03 0-.05.02-.08.02-.02 0-.05.03-.03.06 0 .03-.03.04-.03.07 0 0 .02 0 .05 0 .03-.02.02-.03.05-.06.02-.03.03-.06.06-.06.02 0 .04-.05.07-.04.02.02.02-.04.02-.04l-.07-.02z"/></g><g><path fill="#fff" d="M20.63 20.47c.03-.03-.2-.02-.2 0 0 .03.03.12.1.1.04-.02.05.1.05.1s-.05 0 0 .03c.04.02 0 .06-.02.08-.02.02-.04.05-.04.05h.08c.04.03.05.14.05.14.08-.02.12.03.12.03s0-.04.03-.07c.03-.03-.06-.04-.03-.06.03-.02.05-.08.03-.1 0 0-.08 0-.08.02s-.02-.04 0-.07c.03-.03-.03-.08-.04-.08 0 0-.1 0-.03-.05.07-.03.15 0 .15 0s.05 0 .07-.04c.02-.03 0-.04-.04-.04-.03 0-.18.02-.18.02s-.04-.05-.02-.07z"/></g><g><path fill="#fff" d="M21.03 20.94c.05.03.16.03.15.07 0 .04.06.06.06.06l.02-.08.06-.04v-.07s.02.02-.05 0c-.06-.02-.02-.05-.02-.05h-.15l-.02.05-.05.07z"/></g><g><path fill="#fff" d="M20.8 21.28c.03 0-.02-.14.08-.13.1 0 0-.04.08-.05.07 0 .05.06.08.1.02.04 0 .07-.03.08-.04.02-.04.02-.05.07 0 .05-.06.06-.06.06l-.03.08-.08-.05-.1-.1c0-.1.05-.05.1-.05z"/></g><g><path fill="#fff" d="M19 20.6v-.05h.06s.03-.03.03-.05c0-.02.03-.03.06-.03.02 0 .1.05.1.05s.02.08 0 .08c-.03 0-.08-.05-.08 0 0 .03-.08 0-.08 0H19z"/></g><g><path fill="#fff" d="M19.3 20.67c0-.02 0-.05.03-.05.04 0 .1.02.1-.02.02-.03.02-.06.07-.08.05-.02.08-.02.1-.02.05 0 .13 0 .13 0s.1 0 .1-.02c.08-.07.12-.1.14-.06.02.03 0 .1 0 .13-.02.02-.1.14-.14.12-.03-.03-.04 0-.1-.02-.05-.02-.16 0-.17.02 0 .02-.1.04-.1.06 0 .03-.06.06-.05.02.02-.04-.03-.06-.05-.04 0 .02-.04-.03-.04-.03z"/></g><g><path fill="#fff" d="M20.73 21.47l.04.14c-.06.02-.05.1-.05.1 0 .05-.1.1-.12.1-.03-.03-.02.12-.02.12s.06.04.08.02c.03-.02-.2.32-.26.28-.05-.03-.16.04-.15.1 0 .05-.23.24-.23.24s-.07.05-.08 0c-.02-.03-.04-.05 0-.07.03-.03.03.02.07-.02.05-.05.13-.1.1-.14-.03-.04-.06-.05-.06-.05l.04-.06h.07v-.1s.08-.05.1-.1c.02-.03.02-.06 0-.1-.02 0-.05-.05-.05-.1 0-.04.06-.06.06-.06h.05l.05-.03v-.08c.04 0 .12-.05.12-.1 0-.04 0-.02.07-.06.06-.03.05-.04.1-.07.03-.03.07-.02.1.04z"/></g><g><path fill="#fff" d="M19.7 22.32c0 .03 0 .12.03.1.03 0 0 0 .05 0 .05-.03.05.02.05.02h.07l.1-.07-.03-.05h-.06c-.02.04-.08.02-.07-.02 0-.04-.03-.13-.05-.13-.03 0-.1 0-.1.03 0 .04.03.12.03.12z"/></g><g><path fill="#fff" d="M19.66 22.5v.04s0 .05-.04.05c-.03 0-.1.03-.07.06 0 .02-.1.05-.1.05s-.1.1-.08.1c.04-.02.02.04.02.04s-.08 0-.1 0c-.02 0 0 .06 0 .06s-.1.02-.1 0 .04-.02.05-.06c0-.04 0-.1.06-.1.07-.03.08-.04.1-.06 0-.03.06-.03.06-.03l.05-.03.16-.13z"/></g><g><path fill="#fff" d="M18.97 23.4c-.06.05.1-.04.1-.04.04 0 .07-.04.07-.06 0 0 .07 0 .07 0v.04l-.04.06-.04.03s-.07 0-.07.02-.05-.07-.08-.05z"/></g><g><path fill="#fff" d="M20.1 23.36c0-.05-.02-.13-.05-.13-.03 0 0-.08 0-.08s.07 0 .1 0c.02 0 .02-.08.02-.08.1 0 .13-.12.1-.15 0-.03.05-.03.05-.03s0-.1 0-.14c-.02-.02.07-.04.1-.08.02-.03-.02-.16-.04-.17-.02 0 .05 0 .05-.04 0-.03 0 0 .02-.05 0-.04.02-.15.02-.15h.08c.02.08.18.08.2.07.1-.04.2-.2.2-.24 0-.04-.08-.04-.08-.04v-.2c.12-.02.2-.17.2-.2-.02-.02.07 0 .07 0 0 .1.1.06.12.03 0-.04.03-.12.03-.12l.02-.06.04-.05h.07l.02-.04h.08s.06-.07.07-.1c0 0 .1 0 .12 0 .03-.02.07-.04.07-.07 0-.03.04-.08.04-.08s.07-.02.08-.04c0-.02.03-.07.03-.07l.07-.05v-.06h.07v-.08h.12l.06.05c.08.03.14.1.14.1 0 .04.02.13.08.1.07 0 .02.15.02.15s-.08.06-.08.1c0 .03-.08.1-.08.12 0 .02-.08.07-.07.1 0 .02-.06.1-.06.1l-.1.08v.05h-.08l-.14.2v.04h-.04v.08l-.04.02h-.07l-.14.16v.07h-.08v.13c.06.06.03.16.03.16s-.08-.04-.13-.02c-.04.02.02.06.02.06v.05l-.04.04s-.1-.02-.1 0-.03.1-.03.1v.1l-.05.02v.04h-.08v.07h-.03l-.04.03v.08h-.14l-.05.06-.04.08h-.15l-.03.05h-.06l-.03.03-.02-.03h-.12v-.04c-.07-.04-.3-.02-.32-.04z"/></g><g><path fill="#fff" d="M20.76 23.52c0 .05.12.1.15.06.05-.04.13-.04.14-.23 0-.07-.1.07-.1.07l-.1.03c-.05 0-.07.04-.08.07z"/></g><g><path fill="#fff" d="M18.63 24.06l-.1.1v.08l-.04.1h-.08l-.1-.02-.07-.05-.1-.02-.04-.05.2-.02.04-.07h.14l.1-.1c.08-.02.1.02.05.06z"/></g><g><path fill="#fff" d="M18.6 24.37c0 .06-.08-.07 0-.1.08-.02.16 0 .16 0l.02.05h.3c.03 0 .05.05.05.05s.07.03.1.02c.03-.03 0 .07-.02.06-.02 0-.1 0-.1 0H19c0 .04-.1.02-.1 0-.02-.03-.05-.04-.05-.04h-.14c0-.05-.08-.07-.1-.05z"/></g><g><path fill="#fff" d="M18 23.3c.1-.02.13 0 .14.03 0 .02 0 .03.05.04.02 0-.02.08-.06.07-.04 0-.07.02-.08.05 0 .02-.07.1-.07.04-.02-.07-.06-.07-.05-.1 0-.05.03-.12.05-.13z"/></g><g><path fill="#fff" d="M17.3 23.24c-.02.02.1.03.13 0 .02 0 0-.04.06-.04.05 0 .02-.04.02-.06 0-.02-.07 0-.08 0 0 .03-.1.03-.1.03s-.05.04-.05.07"/></g><g><path fill="#fff" d="M21.43 19.84c-.03-.02-.08-.03-.08-.03l-.02-.06-.03-.03s0 0 0-.05c0-.04-.06-.07-.06-.07l-.03-.03s-.14 0-.16 0c-.05.02 0 .1.02.1.04 0 0 .1 0 .1h.05s0 .12.03.12c.02 0 0 .04-.03.06-.03 0-.06.08-.08.07-.03 0-.12 0-.12 0l-.02-.04h-.07s0-.06 0-.07c-.03-.06-.18-.15-.12 0l.02.04V20h-.1s-.06.03-.06.05c0 .03 0 .06 0 .06l-.14.15-.15.02-.02.03-.1.02c-.1.05-.2 0-.18-.1.02-.1.05-.12 0-.12-.08 0-.1.05-.1.05s-.04 0-.04 0c0-.04 0-.1 0-.1.03-.04 0-.07-.03-.05-.02 0-.07.07-.06.1.03 0-.07.13.03.15.1.02 0 .07.03.08l.05.03h.06l.03.02-.1.02h-.14c-.1-.05-.1-.13-.1-.13-.06-.1-.17.04-.13.1.04.04-.14 0-.17-.03-.03-.02-.12 0-.12 0-.02-.07-.1 0-.08.03.02.04.02.06.02.06h-.03l-.04-.06c-.07 0-.1-.05-.08-.08.02-.04-.02 0-.04-.05 0-.04 0-.04.05-.06.03-.03-.02-.03 0-.06.03-.03.1 0 .06-.04-.05-.05-.14-.03-.14-.03 0-.06-.12-.04-.14-.02 0 0-.1.13-.1.13h-.12c0 .1.06.05.08.12.03.07.04.18.04.18s-.1 0-.1-.03-.07-.05-.07-.05-.05-.02-.04-.04c.03-.03-.02-.04-.02-.04s0-.04 0-.05c-.06-.06-.18 0-.2 0l-.08.04-.07.06-.1-.04v-.02h-.1v-.08l.16-.02v-.15l-.07.02h-.04l-.03.04h-.04V20l.04-.04.03-.03h.06l.02-.07h.15l.02-.04h.1l.17-.2v-.05l-.04-.02c0-.04-.08-.02-.08-.02v-.03h.04l.04-.03.07.1c.06.05.1 0 .1-.05 0-.04-.03-.04-.03-.04v-.1h.04c.06-.07-.03-.12-.03-.12l-.02-.06c0-.06-.07-.05-.07-.05l-.03-.03-.07-.02.14-.02c.02.05.06.06.07.04.02-.03.02-.07.02-.07h.04v-.08h.03v-.2l.04-.06c.08.02.08-.03.04-.05-.03-.03 0-.14 0-.14l-.03-.02v-.05l-.04-.03v-.07c-.06.03-.14.02-.15 0-.06.04-.18.03-.18 0 .04-.06-.04-.07-.04-.07l-.04-.05c.03-.05-.03-.06-.03-.06v-.12l-.1-.07.02-.16c0-.05.1-.06.1-.03.03.02.1-.05.1-.05h.06v.1l-.03.03v.18l.06.07c.1.02.06-.16.06-.18 0-.07.04-.07.07-.05.06.02 0-.07-.04-.07-.05 0-.02-.06-.02-.06h.03l-.05-.06-.05-.05-.06.02h-.07l-.03.05h-.04v-.08l-.04-.04-.07-.08c.1 0-.03-.07-.05-.07.05-.02 0-.07-.15-.03v-.04h-.05l.04-.06h.04v-.1c0-.1-.22-.04-.24-.02v-.1l-.04-.02v-.19h.07v-.03h.16l.24.25.14.03c0 .06.07 0 .07 0 .06 0 .08-.05.08-.05h.08c.07-.03.03-.04.04-.06 0-.04.03-.03.03-.03l.02.08h.02l-.03.03-.08.04-.07.04c-.05.06 0 .05.06.05h.1s.08-.13.08-.16.04-.04.04-.04h.06l.02-.04h.05l.02-.04h.1L19 17l-.12.03v.06h-.08c-.02.12.02.15.05.1h.04l-.02.1h.04v.13l-.05.02v.04l.16-.02c-.02.1 0 .12 0 .12h.05v-.03l.2-.02.13.16c0 .02.02.03 0 .04 0 .02-.04 0-.07.02-.03.02 0 .13 0 .15 0 .04.1.07.08.02 0-.06 0-.08 0-.08.1.07.16 0 .15-.03 0 0 .05-.03.08 0 .03 0 .06-.07.05-.1 0-.04-.12-.03-.13 0 0 .04-.02.03-.03 0-.02 0-.07-.02-.1 0l-.15-.15c.08-.04.05-.1.02-.1-.03-.02-.08-.02-.08-.02v-.03h-.17v-.07c-.1 0-.12-.08-.1-.12 0-.04 0-.07 0-.07l.06-.04.1.02c0 .06.07.07.12.1.05.05.13-.06.1-.1-.02-.06-.02-.08-.02-.08V17l-.06-.04-.05-.02v-.03H19l-.03-.03h-.1l-.02-.04h-.05s-.1-.05-.06-.1c.04-.05-.15-.04-.2.02 0-.06-.08 0-.08 0l-.07.02v.1c-.02.05-.14.05-.13 0 0-.03-.23 0-.23 0l-.07-.04-.07-.04v-.05h-.12l-.04-.03v.03h-.06l-.05-.06c-.13-.02-.26-.1-.24-.13.02-.03-.04-.06-.04-.06h-.06l-.04-.07-.07-.02-.02-.12-.04-.03v-.05l-.04-.02v-.03h-.07l.04-.1.05-.02c.1-.02.05-.12.05-.12h.05l.02-.07.05-.1c0-.07.07-.06.1-.05.02 0 .04-.07.04-.07h.25s-.02-.03.02-.04c.04 0 .33-.02.34 0 0 .05.16.06.22 0 .07-.04.17 0 .17 0l.1-.12.05-.14.1-.03.08-.02.02-.1h.06l.02-.08c.07-.05-.02-.16-.02-.16v-.12l.05-.03v-.05l.08-.08h.1l.23-.26.2-.05.03-.1h.05l.03.04h.16l.08.08h.08l.68.6-.06.03v.14c.1.07.12.22 0 .23-.06 0-.03.1.05.1l.03.02v.06l.14.14v.1l-.3.26c-.14.05 0 .35.08.35.1 0 0 .46 0 .46l-.05.04V17h-.06l-.1-.16-.04-.1c0-.13-.4-.1-.4-.1-.03.03-.16.1-.16.1s-.1.07-.12.05c-.02-.04-.1.02-.1 0s-.08.04-.08.04l-.13.05h.1V17l.15-.08c0-.03.1-.02.1-.02l.02-.03s.05 0 .08-.03c.03-.04.2 0 .2 0l.04-.05.05-.02h.2v.1l.04.05-.02.07.05.04v.07l.03.02v.13h.04v.3l-.1.1c0-.04-.1-.04-.1-.04s-.02-.05-.04-.05.02-.06 0-.1c0-.04-.05-.04-.05-.04h-.08l-.03-.04h-.1l-.02.08.1.03.07.03.03.06c0 .07.1.06.1.06s.13.12.13.18c.02.05.07.2.16.2h.16c.06.04.04.12.04.12h.08v-.03s.12-.03.14 0c0 0 .03.06.06.04.04-.02.13.04.13.04 0 .04.17.03.17.03v.06s-.1.15-.1.15c-.03 0-.13.1-.14.06-.1.03-.1.17-.1.17l-.03.08c0 .06-.1.17-.1.16-.1.07-.04.15 0 .16 0 0 .08.1.08.1l.03.08.1.03v.08l-.04.02s.06.1.1.1c.02 0 .23 0 .25.02 0 0 .04.12.04.13 0 .02.05.03.07.04.03 0 .07.06.08.1.02 0-.03.17-.05.14z"/></g><g><path fill="#fff" d="M18 17.58s.02-.03.04-.02c.02 0 .02-.04 0-.04 0 0 0-.02 0-.03 0-.02 0-.04-.03-.06 0 0 0 0-.03 0-.02.02-.03.02-.05.02-.03 0 0-.04 0-.04s-.1 0-.1.02c.03 0 .05.02.04.03-.02 0 0 .02 0 .04s.04 0 .03.03c-.02 0 0 .07 0 .04l.03.03c-.02 0 0 .02-.04.03-.04 0 0 .06 0 .06v.03c0 .05.1.05.1 0 0-.03 0-.06 0-.06h.03s0-.04-.03-.04c-.02 0 0 0 0-.03v-.02z"/></g><g><path fill="#fff" d="M17.7 17.53c0 .03.04.15.08.12.03-.04.06 0 .06 0s.02-.02 0-.06c0-.05 0-.1-.04-.1-.02 0-.04 0-.06 0-.03-.02-.05.03-.05.03z"/></g></g></g></g></svg>