<svg xmlns="http://www.w3.org/2000/svg" viewBox="0 0 45 45" enable-background="new 0 0 45 45"><defs><clipPath id="a"><path d="M0 36h36V0H0v36z"/></clipPath></defs><g><g><g clip-path="url(#a)" transform="matrix(1.25 0 0 -1.25 0 45)"><g><path fill="#dd2e44" d="M32 31h-8V5h8c2.2 0 4 1.8 4 4v18c0 2.2-1.8 4-4 4"/></g><g><path fill="#265fb5" d="M4 31c-2.2 0-4-1.8-4-4V9c0-2.2 1.8-4 4-4h8v26H4z"/></g><path fill="#ffcc4d" d="M12 5h12v26H12V5z"/><path fill="#dd2e44" d="M20 18h-4v3h4v-3z"/><g><path fill="#269" d="M16 18v-2l2-1 2 1v2h-4z"/></g><g><path fill="#a0724a" d="M16 25v-1h1v-2h2v3h-3z"/></g><g><path fill="#a0724a" d="M19 15l-1-.63-1 .63-1-3 2-1 2 1-1 3z"/></g><g><path fill="#a0724a" d="M15 23l-1 1-1-1V13l2 2v7h1l-1 1z"/></g><g><path fill="#a0724a" d="M22 24l-1-1-1-1h1v-7l2-2v10l-1 1z"/></g><path fill="#ffcc4d" d="M16.77 18h-.54v.4h.54V18z"/><path fill="#ffcc4d" d="M19.77 18h-.54v.4h.54V18z"/><g><path fill="#77b255" d="M15.64 13.26c-.1-.07-.27 0-.35.16l-2.24 3.86c-.1.15-.07.32.03.38l.13.08c.1.06.26 0 .35-.16l2.23-3.86c.1-.15.08-.32-.03-.4l-.13-.06z"/></g><g><path fill="#ffcc4d" d="M22.82 17.6c.1-.05.12-.22.04-.37l-2.2-3.8c-.08-.14-.24-.2-.34-.15l-.14.08c-.1.06-.12.23-.04.37l2.2 3.8c.08.15.24.22.34.16l.14-.1z"/></g><g><path fill="#dd2e44" d="M16 15l-1-1v-1l1 1v1z"/></g><g><path fill="#dd2e44" d="M20 15v-1l1-1v1l-1 1z"/></g><g><path fill="#ffcc4d" d="M18 19l-1 1v-2.96L18 16l1 1.04V20l-1-1z"/></g></g></g></g></svg>