<?xml version="1.0" encoding="UTF-8" standalone="no"?><svg xmlns:dc="http://purl.org/dc/elements/1.1/" xmlns:cc="http://creativecommons.org/ns#" xmlns:rdf="http://www.w3.org/1999/02/22-rdf-syntax-ns#" xmlns:svg="http://www.w3.org/2000/svg" xmlns="http://www.w3.org/2000/svg" viewBox="0 0 45 45" style="enable-background:new 0 0 45 45;" xml:space="preserve" version="1.1" id="svg2"><metadata id="metadata8"><rdf:RDF><cc:Work rdf:about=""><dc:format>image/svg+xml</dc:format><dc:type rdf:resource="http://purl.org/dc/dcmitype/StillImage"/></cc:Work></rdf:RDF></metadata><defs id="defs6"><clipPath id="clipPath16" clipPathUnits="userSpaceOnUse"><path id="path18" d="M 0,36 36,36 36,0 0,0 0,36 Z"/></clipPath></defs><g transform="matrix(1.25,0,0,-1.25,0,45)" id="g10"><g id="g12"><g clip-path="url(#clipPath16)" id="g14"><g transform="translate(32,31)" id="g20"><path id="path22" style="fill:#ce2540;fill-opacity:1;fill-rule:nonzero;stroke:none" d="m 0,0 -28,0 c -2.209,0 -4,-1.791 -4,-4 l 0,-14 0,-4 c 0,-2.209 1.791,-4 4,-4 l 28,0 c 2.209,0 4,1.791 4,4 L 4,-4 C 4,-1.791 2.209,0 0,0"/></g><g transform="translate(0,27)" id="g24"><path id="path26" style="fill:#0f6433;fill-opacity:1;fill-rule:nonzero;stroke:none" d="m 0,0 0,-14 0,-4 36,0 0,18 -36,0 z"/></g><g transform="translate(14.936,23.3364)" id="g28"><path id="path30" style="fill:#ffc514;fill-opacity:1;fill-rule:nonzero;stroke:none" d="M 0,0 1.894,-1.375 1.172,-3.597 1.17,-3.601 1.177,-3.597 3.064,-2.226 4.951,-3.597 4.958,-3.601 4.956,-3.597 4.234,-1.375 6.127,0 3.788,0 3.064,2.226 2.34,0 0,0 Z"/></g><g transform="translate(26.1006,22.3594)" id="g32"><path id="path34" style="fill:#ffc514;fill-opacity:1;fill-rule:nonzero;stroke:none" d="m 0,0 c -0.02,-4.458 -3.638,-8.066 -8.101,-8.066 -4.462,0 -8.081,3.608 -8.1,8.066 -0.186,-0.694 -0.294,-1.42 -0.294,-2.173 0,-4.637 3.758,-8.394 8.394,-8.394 4.637,0 8.395,3.757 8.395,8.394 C 0.294,-1.42 0.186,-0.694 0,0"/></g></g></g></g></svg>
