<svg xmlns="http://www.w3.org/2000/svg" viewBox="0 0 45 45" enable-background="new 0 0 45 45"><defs><clipPath id="a"><path d="M4 31c-2.2 0-4-1.8-4-4V9c0-2.2 1.8-4 4-4h28c2.2 0 4 1.8 4 4v18c0 2.2-1.8 4-4 4H4z"/></clipPath></defs><g><g><g clip-path="url(#a)" transform="matrix(1.25 0 0 -1.25 0 45)"><g><path fill="#dc241f" d="M0 31l23.67-13L0 5h36v26H0z"/></g><g><path fill="#ffc726" d="M0 31l16-13L0 5l23.67 13L0 31z"/></g><g><path fill="#141414" d="M0 31V5l16 13L0 31z"/></g><g><path fill="#fff" d="M6.78 16.65l3.26-.54-2.32 2.37 1.52 2.93-2.96-1.48-2.32 2.36.5-3.27-2.96-1.47L4.76 17l.5-3.28 1.52 2.93z"/></g></g></g></g></svg>