<svg xmlns="http://www.w3.org/2000/svg" viewBox="0 0 45 45" enable-background="new 0 0 45 45"><defs><clipPath id="a"><path d="M4 31c-2.2 0-4-1.8-4-4V9c0-2.2 1.8-4 4-4h28c2.2 0 4 1.8 4 4v18c0 2.2-1.8 4-4 4H4z"/></clipPath></defs><g><g><g clip-path="url(#a)" transform="matrix(1.25 0 0 -1.25 0 45)"><path fill="#36f" d="M0 31h36V5H0v26z"/><g><path fill="#f00" d="M18 18L0 5h36L18 18z"/></g><g><path fill="#ff0" d="M0 19.47V16.5l36 2.97V16.5L0 19.46z"/></g><g><path fill="#ff0" d="M18 18L0 29v2h2l16-13z"/></g><g><path fill="#ff0" d="M34 31h2v-2L18 18l16 13z"/></g><g><path fill="#ff0" d="M18 18l-1.5 13h3L18 18z"/></g></g></g></g></svg>