<svg xmlns="http://www.w3.org/2000/svg" viewBox="0 0 45 45" enable-background="new 0 0 45 45"><defs><clipPath id="a"><path d="M0 36h36V0H0v36z"/></clipPath></defs><g><g><g clip-path="url(#a)" transform="matrix(1.25 0 0 -1.25 0 45)"><g><path fill="#77b255" d="M36 9c0-2.2-1.8-4-4-4H4C1.8 5 0 6.8 0 9v18c0 2.2 1.8 4 4 4h28c2.2 0 4-1.8 4-4V9z"/></g><path fill="#dd2e44" d="M36 13H0v10h36V13z"/><g><path fill="#141414" d="M32 31H4c-2.2 0-4-1.8-4-4v-4h36v4c0 2.2-1.8 4-4 4"/></g><g><path fill="#dd2e44" d="M23.2 24c-1.05 1.8-2.98 3-5.2 3s-4.15-1.2-5.2-3h10.4z"/></g><g><path fill="#dd2e44" d="M17.7 30h.6l-.3-2.16-.3 2.16z"/></g><g><path fill="#dd2e44" d="M16.18 29.82l.6.1.07-2.18-.67 2.08z"/></g><g><path fill="#dd2e44" d="M14.72 29.4l.57.2.43-2.15-1 1.94z"/></g><g><path fill="#dd2e44" d="M13.35 28.7l.53.3.8-2.03-1.33 1.74z"/></g><g><path fill="#dd2e44" d="M12.12 27.82l.47.38 1.1-1.88-1.58 1.5z"/></g><g><path fill="#dd2e44" d="M11.05 26.73l.4.45 1.42-1.66-1.82 1.2z"/></g><g><path fill="#dd2e44" d="M10.18 25.47l.32.52 1.68-1.4-2 .87z"/></g><g><path fill="#dd2e44" d="M10.9 24l-1.13.65-.23-.56.37-.1h1z"/></g><g><path fill="#dd2e44" d="M26.25 24l.22.05-.22.56-1.07-.6h1.07z"/></g><g><path fill="#dd2e44" d="M25.52 25.95l.3-.5-2-.88 1.7 1.38z"/></g><g><path fill="#dd2e44" d="M24.58 27.15l.4-.45-1.83-1.2 1.43 1.65z"/></g><g><path fill="#dd2e44" d="M23.45 28.17l.46-.38-1.6-1.5 1.15 1.87z"/></g><g><path fill="#dd2e44" d="M22.16 29l.52-.3-1.32-1.74.8 2.03z"/></g><g><path fill="#dd2e44" d="M20.75 29.58l.56-.2-1-1.94.45 2.14z"/></g><g><path fill="#dd2e44" d="M19.26 29.92l.6-.1-.68-2.1.08 2.2z"/></g></g></g></g></svg>