<svg xmlns="http://www.w3.org/2000/svg" viewBox="0 0 45 45" enable-background="new 0 0 45 45"><defs><clipPath id="a"><path d="M4 31c-2.2 0-4-1.8-4-4V9c0-2.2 1.8-4 4-4h28c2.2 0 4 1.8 4 4v18c0 2.2-1.8 4-4 4H4z"/></clipPath></defs><g><g><g clip-path="url(#a)" transform="matrix(1.25 0 0 -1.25 0 45)"><path fill="#007229" d="M0 5h36v8.5H0V5z"/><path fill="#eee" d="M0 13.5h36v9H0v-9z"/><path fill="#141414" d="M0 22.5h36V31H0v-8.5z"/><g><path fill="#d21034" d="M0 31V5l17.5 13L0 31z"/></g></g></g></g></svg>