<svg xmlns="http://www.w3.org/2000/svg" viewBox="0 0 45 45" enable-background="new 0 0 45 45"><defs><clipPath id="a"><path d="M4 31c-2.2 0-4-1.8-4-4V9c0-2.2 1.8-4 4-4h28c2.2 0 4 1.8 4 4v18c0 2.2-1.8 4-4 4H4z"/></clipPath></defs><g><g><g clip-path="url(#a)" transform="matrix(1.25 0 0 -1.25 0 45)"><path fill="#1eb53a" d="M0 5h36v8H0V5z"/><path fill="#0099b5" d="M0 23h36v8H0v-8z"/><path fill="#ce1126" d="M0 21.5h36V23H0v-1.5z"/><path fill="#ce1126" d="M0 13h36v1.5H0V13z"/><g><path fill="#eee" d="M0 18v-3.5h36v7H0V18z"/></g><g><path fill="#fff" d="M4.2 26.84c0 1.55 1.13 2.83 2.6 3.08-.17.02-.34.04-.52.04-1.72 0-3.12-1.4-3.12-3.12 0-1.72 1.4-3.12 3.12-3.12.18 0 .35.02.52.04-1.47.25-2.6 1.53-2.6 3.08"/></g><g><path fill="#fff" d="M8.88 24.54l-.14.43-.14-.43h-.45l.37-.27-.14-.43.36.27.37-.26-.13.43.37.27h-.46z"/></g><g><path fill="#fff" d="M11.6 24.54l-.15.43-.14-.43h-.45l.37-.27-.14-.43.37.27.36-.26-.13.43.37.27h-.45z"/></g><g><path fill="#fff" d="M11.45 27.46l-.14-.43h-.45l.37-.26-.14-.44.37.27.36-.27-.13.44.37.26h-.45l-.15.43z"/></g><g><path fill="#fff" d="M14.3 24.54l-.15.43-.14-.43h-.45l.37-.27-.14-.43.37.27.37-.26-.14.43.36.27h-.45z"/></g><g><path fill="#fff" d="M14.15 27.46l-.14-.43h-.45l.37-.26-.14-.44.37.27.36-.27-.12.44.36.26h-.45l-.15.43z"/></g><g><path fill="#fff" d="M14.15 29.96l-.14-.43h-.45l.37-.27-.14-.43.37.27.36-.27-.12.43.36.27h-.45l-.15.43z"/></g><g><path fill="#fff" d="M17 24.54l-.15.43-.14-.43h-.44l.36-.27-.14-.43.37.27.37-.26-.14.43.36.27H17z"/></g><g><path fill="#fff" d="M16.85 27.46l-.14-.43h-.44l.36-.26-.14-.44.37.27.37-.27-.14.44.36.26H17l-.15.43z"/></g><g><path fill="#fff" d="M16.85 29.96l-.14-.43h-.44l.36-.27-.14-.43.37.27.37-.27-.14.43.36.27H17l-.15.43z"/></g><g><path fill="#fff" d="M19.7 24.54l-.15.43-.14-.43h-.44l.37-.27-.14-.43.35.27.37-.26-.14.43.37.27h-.46z"/></g><g><path fill="#fff" d="M19.55 27.46l-.14-.43h-.44l.37-.26-.14-.44.35.27.37-.27-.14.44.37.26h-.46l-.15.43z"/></g><g><path fill="#fff" d="M19.55 29.96l-.14-.43h-.44l.37-.27-.14-.43.35.27.37-.27-.14.43.37.27h-.46l-.15.43z"/></g></g></g></g></svg>