<svg xmlns="http://www.w3.org/2000/svg" viewBox="0 0 45 45" enable-background="new 0 0 45 45"><defs><clipPath id="a"><path d="M0 36h36V0H0v36z"/></clipPath></defs><g><g><g clip-path="url(#a)" transform="matrix(1.25 0 0 -1.25 0 45)"><g><path fill="#3b88c3" d="M36 4c0-2.2-1.8-4-4-4H4C1.8 0 0 1.8 0 4v28c0 2.2 1.8 4 4 4h28c2.2 0 4-1.8 4-4V4z"/></g><g><path fill="#fff" d="M23.1 14.07c.5 1.18.73 2.54.73 3.97 0 3.7-1.95 7.13-5.83 7.13-3.87 0-5.83-3.38-5.83-7.13 0-3.78 1.9-7.13 5.83-7.13.7 0 1.37.1 2 .22l-1.13 1.1c-.34.3-.6.8-.6 1.23 0 1.2.85 2.23 2.12 2.23.42 0 .8-.15 1.17-.4l1.52-1.2zM23.45 8C21.94 7.1 20.1 6.62 18 6.62c-6.3 0-10.66 5-10.66 11.4 0 6.46 4.34 11.42 10.66 11.42 6.23 0 10.67-5.12 10.67-11.4 0-2.74-.72-5.22-2.08-7.17l1.76-1.52c.6-.53 1.08-1.03 1.08-1.9 0-1.08-1.08-1.95-2.14-1.95-.68 0-1.24.3-2.07 1L23.46 8z"/></g></g></g></g></svg>