<svg xmlns="http://www.w3.org/2000/svg" viewBox="0 0 45 45" enable-background="new 0 0 45 45"><defs><clipPath id="a"><path d="M0 36h36V0H0v36z"/></clipPath></defs><g><g><g clip-path="url(#a)" transform="matrix(1.25 0 0 -1.25 0 45)"><g><path fill="#ffcc4d" d="M36 9c0-2.2-1.8-4-4-4H4C1.8 5 0 6.8 0 9v18c0 2.2 1.8 4 4 4h28c2.2 0 4-1.8 4-4V9z"/></g><g><path fill="#dd2e44" d="M35 9c0-1.66-1.34-3-3-3H4C2.34 6 1 7.34 1 9v18c0 1.66 1.34 3 3 3h28c1.66 0 3-1.34 3-3V9z"/></g><g><path fill="#ffcc4d" d="M22.88 18.6c.6 2.4-1.35 4.54-1.35 4.54l-.5-2.5-1.07-1.4.44-.77-.44-.24-1.03 1.44.38.87 1.35.68-1.48.5-.9-1.05-.27-1.15-.34 1.15-.97 1.04-1.4-.3 1.17-.78.46-.95-.95-1.5-.52.3.43.78-1.06 1.4-.5 2.5S12.36 21 12.96 18.6c.6-2.4 3.2-2.75 3.2-2.75l-1.65-1.12-.97-.07-.16-1.06.87-.4.77.83 1.9.7-1.08-1.6L18 12l2.07 1.14-1.07 1.5v.07l1.84-.67.76-.84.87.4-.17 1.06-.96.07-1.66 1.12s2.6.34 3.2 2.75"/></g><g><path fill="#5c913b" d="M18 16.5v-1.3s-.18.28-.75.44c-.75.22-.88.86-.88.86H18z"/></g><g><path fill="#5c913b" d="M18 16.5v-1.3s.18.28.75.44c.75.22.88.86.88.86H18z"/></g><g><path fill="#269" d="M16.73 19.2s.74-.3 1.27-.03v-2.54h-1.62s-.07.54.15 1.26c.14.44-.12.8-.12.8l.33.5z"/></g><g><path fill="#269" d="M19.27 19.2s-.74-.3-1.27-.03v-2.54h1.63s.06.54-.16 1.26c-.14.44.13.8.13.8l-.33.5z"/></g><g><path fill="#269" d="M23.08 14.83c0-.44-.36-.8-.8-.8-.44 0-.8.36-.8.8 0 .44.36.8.8.8.44 0 .8-.36.8-.8"/></g><g><path fill="#ffcc4d" d="M19.03 21.98c0-.22-.44-.4-.98-.4-.53 0-.97.18-.97.4 0 .22.44.4.97.4.54 0 .98-.18.98-.4"/></g><g><path fill="#ffcc4d" d="M19.1 22.5c-.2-.1-.27.06-.12.22.15.17-.03.55-.03.55s.27-.16.3-.32c.03-.15.03-.37-.16-.45m-.53.23c-.05-.12-.05-.2-.12-.22-.07 0-.32.1-.32.1s.12.17.15.32c.03.16-.08.48-.08.48s.4-.13.42-.3c.04-.15 0-.24-.05-.37m-.97-.22c-.07.03-.08.1-.12.23-.04.13-.1.22-.06.38.03.17.42.3.42.3s-.1-.32-.07-.48c.03-.15.15-.32.15-.32s-.25-.1-.32-.1m-.65 0c-.18.08-.18.3-.15.45.03.16.3.32.3.32s-.2-.38-.03-.55c.15-.16.07-.3-.12-.22m1.08 1.25c-.84 0-1.53-.4-1.53-.88 0-.5.7-.9 1.53-.9.85 0 1.53.4 1.53.9 0 .48-.68.88-1.53.88"/></g><g><path fill="#ffcc4d" d="M23.08 14.74c-.03-.1-.14-.17-.25-.14l-1.1.28c-.1.03-.18.14-.15.25.03.1.14.17.25.15l1.1-.3c.1-.02.18-.13.15-.24"/></g><g><path fill="#ffcc4d" d="M22.5 14.87c-.03-.1-.13-.15-.22-.13-.1.03-.16.12-.13.22l.25 1.13c.02.1.12.14.2.12.1-.03.17-.12.14-.22l-.24-1.13z"/></g><g><path fill="#ffcc4d" d="M14.84 12.13c-.06-.03-.17.1-.24.27l-1.95 4.95c-.07.17-.07.33 0 .36l.1.05c.05.02.3-.05.37-.22l1.94-4.94c.07-.2-.07-.4-.13-.44l-.1-.04z"/></g><path fill="#ffcc4d" d="M18.8 16.63H17.2v1.12h1.63v-1.13z"/></g></g></g></svg>