<svg xmlns="http://www.w3.org/2000/svg" viewBox="0 0 45 45" enable-background="new 0 0 45 45"><defs><clipPath id="a"><path d="M4 31c-2.2 0-4-1.8-4-4V9c0-2.2 1.8-4 4-4h28c2.2 0 4 1.8 4 4v18c0 2.2-1.8 4-4 4H4z"/></clipPath><clipPath id="b"><path d="M0 36h36V0H0v36z"/></clipPath></defs><g><g><g clip-path="url(#a)" transform="matrix(1.25 0 0 -1.25 0 45)"><g><path fill="#ed2939" d="M16 31V20H0V5h36v26H16z"/></g><g><path fill="#fff" d="M24.38 13.68h6.24L27.5 16.8l-3.12-3.12z"/></g><g><path fill="#fff" d="M30.62 22h-6.24l3.12-3.12L30.62 22z"/></g><g><path fill="#fff" d="M31.66 14.72v6.24l-3.12-3.12 3.12-3.12z"/></g><g><path fill="#fff" d="M23.34 20.96v-6.24l3.12 3.12-3.12 3.12z"/></g></g></g><g><g clip-path="url(#b)" transform="matrix(1.25 0 0 -1.25 0 45)"><g><path fill="#002395" d="M6 19H0v8c0 2.2 1.8 4 4 4h2V19z"/></g><g><path fill="#eee" d="M6 31V19H0v-1h19v13H6z"/></g><path fill="#ed2939" d="M18 19h-6v12h6V19z"/><path fill="#eee" d="M12 19H6v12h6V19z"/></g></g></g></svg>