<svg xmlns="http://www.w3.org/2000/svg" viewBox="0 0 45 45" enable-background="new 0 0 45 45"><defs><clipPath id="a"><path d="M0 36h36V0H0v36z"/></clipPath></defs><g><g><g clip-path="url(#a)" transform="matrix(1.25 0 0 -1.25 0 45)"><g><path fill="#fe0000" d="M32 31H17V18H0V9c0-2.2 1.8-4 4-4h28c2.2 0 4 1.8 4 4v18c0 2.2-1.8 4-4 4"/></g><g><path fill="#000095" d="M11.6 23.96c.02.17.04.35.04.54 0 .2-.02.37-.05.54l2.02-.54-2.03-.54zm-.66-1.35c.23.28.42.6.54.95l1.5-1.5-2.04.56zm-1.24-.83c.35.12.67.3.94.54l.55-2.02-1.5 1.5zm-.95-2.15l-.54 2.04c.18-.03.36-.05.55-.05.2 0 .37.03.54.06l-.55-2.04zm-2.44.66l.56 2.03c.27-.22.6-.4.94-.53l-1.5-1.5zm-.28 3.27c.12-.35.3-.67.54-.94l-2.03-.54 1.5 1.5zm-.1 1.5c-.04-.18-.06-.36-.06-.55 0-.2.02-.37.05-.54l-2.03.54 2.04.54zm.64 1.34c-.23-.28-.42-.6-.54-.95l-1.5 1.5 2.04-.56zm1.24.83c-.35-.12-.67-.3-.94-.54L6.3 28.7l1.5-1.5zm.95 2.14l.54-2.03c-.18.03-.36.05-.55.05-.2 0-.37-.03-.54-.06l.55 2.03zm2.44-.65l-.56-2.03c-.27.22-.6.4-.94.53l1.5 1.5zm0-4.22c0-1.35-1.1-2.44-2.45-2.44S6.3 23.16 6.3 24.5c0 1.35 1.1 2.44 2.45 2.44s2.44-1.1 2.44-2.44m-.26 1.9l2.03.54-1.5-1.5c-.1.36-.3.68-.53.95M17 31H4c-2.2 0-4-1.8-4-4v-9h17v13z"/></g><g><path fill="#fff" d="M9.3 27.34l-.55 2.03-.54-2.03c.18.03.36.05.55.05.2 0 .37-.03.54-.06"/></g><g><path fill="#fff" d="M5.86 24.5c0 .18.02.37.05.54L3.9 24.5l2.03-.54c-.02.17-.04.35-.04.54"/></g><g><path fill="#fff" d="M8.2 21.66l.55-2.03.54 2.03c-.18-.03-.36-.05-.55-.05-.2 0-.37.03-.54.06"/></g><g><path fill="#fff" d="M11.64 24.5c0-.18-.02-.37-.05-.54l2.02.54-2.03.54c.02-.17.04-.35.04-.54"/></g><g><path fill="#fff" d="M11.2 28.72l-1.5-1.5c.35-.1.67-.3.94-.53l.55 2.02z"/></g><g><path fill="#fff" d="M10.94 22.6l2.03-.54-1.5 1.5c-.1-.36-.3-.68-.53-.95"/></g><g><path fill="#fff" d="M6.3 20.28l1.5 1.5c-.35.1-.67.3-.94.53L6.3 20.3z"/></g><g><path fill="#fff" d="M6.56 26.4l-2.03.54 1.5-1.5c.1.36.3.68.53.95"/></g><g><path fill="#fff" d="M9.7 21.77l1.5-1.5-.56 2.04c-.27-.22-.6-.4-.94-.53"/></g><g><path fill="#fff" d="M6.02 23.55l-1.5-1.5 2.04.56c-.23.28-.42.6-.54.95"/></g><g><path fill="#fff" d="M7.8 27.23l-1.5 1.5.56-2.04c.27.22.6.4.94.53"/></g><g><path fill="#fff" d="M12.97 26.94l-2.03-.55c.23-.28.42-.6.54-.95l1.5 1.5z"/></g><g><path fill="#fff" d="M8.75 26.94c-1.35 0-2.44-1.1-2.44-2.44 0-1.35 1.1-2.44 2.45-2.44s2.44 1.1 2.44 2.44c0 1.35-1.1 2.44-2.45 2.44"/></g></g></g></g></svg>