<svg xmlns="http://www.w3.org/2000/svg" viewBox="0 0 45 45" enable-background="new 0 0 45 45"><defs><clipPath id="a"><path d="M0 36h36V0H0v36z"/></clipPath></defs><g><g><g clip-path="url(#a)" transform="matrix(1.25 0 0 -1.25 0 45)"><g><path fill="#ce1126" d="M0 9c0-2.2 1.8-4 4-4h28c2.2 0 4 1.8 4 4v3H0V9z"/></g><g><path fill="#ce1126" d="M32 31H4c-2.2 0-4-1.8-4-4v-3h36v3c0 2.2-1.8 4-4 4"/></g><g><path fill="#002868" d="M18 23c2.76 0 5-2.24 5-5s-2.24-5-5-5-5 2.24-5 5 2.24 5 5 5M0 12h36v12H0V12z"/></g><g><path fill="#fff" d="M18 13c2.76 0 5 2.24 5 5s-2.24 5-5 5-5-2.24-5-5 2.24-5 5-5"/></g></g></g></g></svg>