<svg xmlns="http://www.w3.org/2000/svg" viewBox="0 0 45 45" enable-background="new 0 0 45 45"><defs><clipPath id="a"><path d="M4 31c-2.2 0-4-1.8-4-4V9c0-2.2 1.8-4 4-4h28c2.2 0 4 1.8 4 4v18c0 2.2-1.8 4-4 4H4z"/></clipPath><clipPath id="b"><path d="M0 36h36V0H0v36z"/></clipPath><clipPath id="c"><path d="M4 31c-2.2 0-4-1.8-4-4v-9h19v13H4z"/></clipPath><clipPath id="d"><path d="M0 36h36V0H0v36z"/></clipPath></defs><g><g><g clip-path="url(#a)" transform="matrix(1.25 0 0 -1.25 0 45)"><g><path fill="#00247d" d="M22 20.5z"/></g><g><path fill="#00247d" d="M22 31z"/></g><g><path fill="#5b97b1" d="M21.06 31H.03V20.5H0L.03 5H36v26H21.06z"/></g><g><path fill="#ffce00" d="M13.6 8.23l-.5 1.5-.48-1.5h-1.57l1.27-.93-.48-1.5 1.27.93 1.3-.93-.5 1.5 1.28.93H13.6z"/></g><g><path fill="#ffce00" d="M20.08 9.4l.5 1.5-1.3-.93-1.26.92.5-1.5-1.3-.93h1.6l.47-1.5.48 1.5h1.58l-1.28.92z"/></g><g><path fill="#ffce00" d="M20.57 16.18l-1.28-.93-1.28.93.5-1.5-1.3-.93h1.6l.47-1.5.48 1.5h1.58l-1.28.93.5 1.5z"/></g><g><path fill="#ffce00" d="M25.04 10.73l.5 1.5-1.3-.93-1.26.93.5-1.5-1.3-.93h1.6l.47-1.5.5 1.5h1.57l-1.28.93z"/></g><g><path fill="#ffce00" d="M23.77 21.3l.48-1.5.5 1.5h1.57l-1.28.93.5 1.5-1.3-.93-1.26.93.5-1.5-1.3-.93h1.6z"/></g><g><path fill="#ffce00" d="M28.3 14.77l-.47 1.5-.5-1.5h-1.57l1.28-.93-.5-1.5 1.3.93 1.26-.93-.5 1.5 1.3.93h-1.6z"/></g><g><path fill="#ffce00" d="M28.36 22.87l.48-1.5.5 1.5h1.57l-1.27.93.5 1.5-1.3-.93-1.26.93.5-1.5-1.3-.93h1.6z"/></g><g><path fill="#ffce00" d="M32.92 17.74l-.48 1.5-.5-1.5h-1.57l1.28-.93-.5-1.5 1.3.94 1.26-.93-.48 1.5 1.28.94h-1.58z"/></g><g><path fill="#ffce00" d="M31.65 26.95l-.5-1.5 1.3.93 1.26-.93-.48 1.5 1.28.93h-1.58l-.48 1.5-.5-1.5h-1.57l1.28-.93z"/></g></g></g><g><g clip-path="url(#b)" transform="matrix(1.25 0 0 -1.25 0 45)"><g><path fill="#00247d" d="M19 31H4c-2.2 0-4-1.8-4-4v-9h19v13z"/></g><g><path fill="#eee" d="M19 18v2.03L11.9 25H6.67l10-7H19z"/></g><g><path fill="#cf1b2b" d="M19 19.42L11.03 25H9.3l9.7-6.8v1.22z"/></g><g><path fill="#eee" d="M8.1 25L0 19.23V18h3.33l10 7H8.1z"/></g><g><path fill="#cf1b2b" d="M10.7 25L.74 18h1.73l10 7H10.7z"/></g><g><path fill="#eee" d="M16.67 31l-10-7h5.23l7.1 4.97V31h-2.33z"/></g><g><path fill="#cf1b2b" d="M17.54 31l-10-7H9.3l9.7 6.8v.2h-1.46z"/></g></g></g><g><g clip-path="url(#c)" transform="matrix(1.25 0 0 -1.25 12.5 15)"><g><path fill="#eee" d="M0 0h3.33l-10 7H-9l-.63-1.6L0-1.32V0z"/></g><g><path fill="#cf1b2b" d="M0 0h.7L-9 6.8l-.5-.86L0-.72V0z"/></g></g></g><g><g clip-path="url(#d)" transform="matrix(1.25 0 0 -1.25 0 45)"><g><path fill="#eee" d="M19 27h-7v4H7v-4H0v-5h7v-4h5v4h7v5z"/></g><path fill="#cf1b2b" d="M11 18H8v13h3V18z"/><path fill="#cf1b2b" d="M19 23H0v3h19v-3z"/></g></g></g></svg>