<svg xmlns="http://www.w3.org/2000/svg" viewBox="0 0 45 45" enable-background="new 0 0 45 45"><defs><clipPath id="a"><path d="M4 31c-2.2 0-4-1.8-4-4V9c0-2.2 1.8-4 4-4h28c2.2 0 4 1.8 4 4v18c0 2.2-1.8 4-4 4H4z"/></clipPath></defs><g><g><g clip-path="url(#a)" transform="matrix(1.25 0 0 -1.25 0 45)"><path fill="#009e60" d="M0 31h36V5H0v26z"/><path fill="#fcd116" d="M0 31h27V5H0v26z"/><path fill="#0072c6" d="M0 31h9V5H0v26z"/><g><path fill="#009e60" d="M15.83 12.58L18 8.25l2.17 4.33L18 16.92l-2.17-4.34z"/></g><g><path fill="#009e60" d="M13.13 18l2.16-4.33L17.45 18l-2.17 4.33L13.1 18z"/></g><g><path fill="#009e60" d="M18.54 18l2.17-4.33L22.88 18l-2.16 4.33L18.55 18z"/></g></g></g></g></svg>