<svg xmlns="http://www.w3.org/2000/svg" viewBox="0 0 45 45" enable-background="new 0 0 45 45"><defs><clipPath id="a"><path d="M0 36h36V0H0v36z"/></clipPath></defs><g><g><g clip-path="url(#a)" transform="matrix(1.25 0 0 -1.25 0 45)"><g><path fill="#00247d" d="M36 9c0-2.2-1.8-4-4-4H4C1.8 5 0 6.8 0 9v18c0 2.2 1.8 4 4 4h28c2.2 0 4-1.8 4-4V9z"/></g><g><path fill="#fff" d="M3.35 24.85l.35-1.1h1.15l-.94-.66.37-1.1-.92.7-.93-.7.37 1.1-.95.67L3 23.75l.35 1.1z"/></g><g><path fill="#fff" d="M8.1 18l.44-1.42h1.48l-1.2-.84.46-1.4-1.2.88-1.18-.88.47 1.4-1.2.87h1.48L8.1 18z"/></g><g><path fill="#fff" d="M8.3 29.48l.33-1.1h1.15l-.94-.66.36-1.1-.92.7-.93-.7.37 1.1-.94.68 1.16-.02.35 1.1z"/></g><g><path fill="#fff" d="M13.06 25.08l.25-.78h.82l-.66-.46.25-.78-.64.5-.66-.5.26.78-.66.47h.82l.24.78z"/></g><g><path fill="#fed100" d="M32 7H5s-.27.17-.27.5c0 .33.27.5.27.5h27l1.48-.5L32 7z"/></g><g><path fill="#fed100" d="M5 9s5 2 11 8 10 10 12 11c-1.75-1.75-3.77-14 1.23-18 0 0 2.77-.52 2.77-1H5z"/></g></g></g></g></svg>