<svg xmlns="http://www.w3.org/2000/svg" viewBox="0 0 45 45" enable-background="new 0 0 45 45"><defs><clipPath id="a"><path d="M4 31c-2.2 0-4-1.8-4-4V9c0-2.2 1.8-4 4-4h28c2.2 0 4 1.8 4 4v18c0 2.2-1.8 4-4 4H4z"/></clipPath></defs><g><g><g clip-path="url(#a)" transform="matrix(1.25 0 0 -1.25 0 45)"><g><path fill="#1eb53a" d="M0 31V11.37L26.46 31H0z"/></g><g><path fill="#00a3dd" d="M36 5v19.67L9.48 5H36z"/></g><g><path fill="#141414" d="M29.47 31L0 9.36V5h6.47L36 26.68V31h-6.53z"/></g><g><path fill="#fbd035" d="M26.46 31L0 11.37v-2L29.47 31h-3z"/></g><g><path fill="#fbd035" d="M9.48 5L36 24.67v2L6.47 5h3z"/></g></g></g></g></svg>