<svg xmlns="http://www.w3.org/2000/svg" viewBox="0 0 45 45" enable-background="new 0 0 45 45"><defs><clipPath id="a"><path d="M0 36h36V0H0v36z"/></clipPath></defs><g><g><g clip-path="url(#a)" transform="matrix(1.25 0 0 -1.25 0 45)"><g><path fill="#20603d" d="M36 9c0-2.2-1.8-4-4-4H4C1.8 5 0 6.8 0 9v18c0 2.2 1.8 4 4 4h28c2.2 0 4-1.8 4-4V9z"/></g><path fill="#fad201" d="M36 10H0v7h36v-7z"/><g><path fill="#00a1de" d="M32 31H4c-2.2 0-4-1.8-4-4V15h36v12c0 2.2-1.8 4-4 4"/></g><g><path fill="#fad201" d="M26 31l.52-4.03 1.55 3.76-.54-4.03L30 29.93l-1.56-3.76 3.22 2.5-2.5-3.23L32.94 27l-3.23-2.47 4.03.54-3.76-1.55L34 23l-4.03-.52 3.76-1.55-4.03.54L32.92 19l-3.76 1.56 2.5-3.22-3.23 2.5L30 16.06l-2.47 3.23.54-4.03-1.55 3.76L26 15l-.52 4.03-1.55-3.76.54 4.04L22 16.07l1.56 3.76-3.22-2.5 2.5 3.23L19.06 19l3.23 2.47-4.03-.54 3.76 1.55L18 23l4.03.52-3.76 1.55 4.03-.54L19.07 27l3.76-1.57-2.5 3.23 3.23-2.5L22 29.94l2.47-3.23-.54 4.03 1.55-3.76L26 31z"/></g><g><path fill="#00a1de" d="M30 23c0-2.2-1.8-4-4-4s-4 1.8-4 4 1.8 4 4 4 4-1.8 4-4"/></g><g><path fill="#fad201" d="M29 23c0-1.66-1.34-3-3-3s-3 1.34-3 3 1.34 3 3 3 3-1.34 3-3"/></g></g></g></g></svg>