<svg xmlns="http://www.w3.org/2000/svg" viewBox="0 0 45 45" enable-background="new 0 0 45 45"><defs><clipPath id="a"><path d="M0 36h36V0H0v36z"/></clipPath></defs><g><g><g clip-path="url(#a)" transform="matrix(1.25 0 0 -1.25 0 45)"><g><path fill="#0038a8" d="M0 9c0-2.2 1.8-4 4-4h28c2.2 0 4 1.8 4 4v1H0V9z"/></g><path fill="#0038a8" d="M0 13h36v4H0v-4z"/><path fill="#eee" d="M0 10h36v3H0v-3z"/><g><path fill="#0038a8" d="M36 27c0 2.2-1.8 4-4 4H16v-4h20z"/></g><path fill="#0038a8" d="M16 20h20v4H16v-4z"/><g><path fill="#eee" d="M16 27v4H4c-2.2 0-4-1.8-4-4V17h36v3H16v4h20v3H16z"/></g><g><path fill="#ffd983" d="M13 24c0 2.76-2.24 5-5 5s-5-2.24-5-5 2.24-5 5-5 5 2.24 5 5"/></g><g><path fill="#ffcc4d" d="M12 24c0 2.2-1.8 4-4 4s-4-1.8-4-4 1.8-4 4-4 4 1.8 4 4"/></g><g><path fill="#ffac33" d="M8 30.4l.63-4.04 2.57 3.2-1.47-3.83 3.8 1.47-3.17-2.57L14.4 24l-4.04-.63 3.18-2.57-3.8 1.47 1.46-3.82-2.57 3.2L8 17.6l-.63 4.04-2.57-3.2 1.47 3.83-3.82-1.47 3.2 2.57L1.6 24l4.04.63-3.2 2.57 3.83-1.47-1.47 3.82 2.57-3.2L8 30.4z"/></g><g><path fill="#c1694f" d="M11 24c0 1.66-1.34 3-3 3s-3-1.34-3-3 1.34-3 3-3 3 1.34 3 3"/></g><g><path fill="#ffac33" d="M5.83 24c0 1.2.97 2.15 2.16 2.15 1.18 0 2.14-.96 2.14-2.15 0-1.2-.96-2.16-2.15-2.16-1.2 0-2.17.97-2.17 2.16"/></g></g></g></g></svg>