<svg xmlns="http://www.w3.org/2000/svg" viewBox="0 0 45 45" enable-background="new 0 0 45 45"><defs><clipPath id="a"><path d="M4 31c-2.2 0-4-1.8-4-4V9c0-2.2 1.8-4 4-4h28c2.2 0 4 1.8 4 4v18c0 2.2-1.8 4-4 4H4z"/></clipPath></defs><g><g><g clip-path="url(#a)" transform="matrix(1.25 0 0 -1.25 0 45)"><path fill="#006233" d="M0 31h36V5H0v26z"/><g><path fill="#ffc400" d="M25.5 21.96c-.02-4.12-3.37-7.46-7.5-7.46s-7.48 3.34-7.5 7.46c-.16-.63-.25-1.28-.25-1.96 0-4.28 3.47-7.75 7.75-7.75 4.28 0 7.75 3.47 7.75 7.75 0 .68-.1 1.33-.25 1.96"/></g><g><path fill="#ffc400" d="M19.1 21.65l1.75 1.28h-2.18L18 25l-.67-2.07h-2.18l1.76-1.28-.66-2.08L18 20.85l1.76-1.28-.67 2.08z"/></g></g></g></g></svg>