<svg xmlns="http://www.w3.org/2000/svg" viewBox="0 0 45 45" enable-background="new 0 0 45 45"><defs><clipPath id="a"><path d="M4 31c-2.2 0-4-1.8-4-4V9c0-2.2 1.8-4 4-4h28c2.2 0 4 1.8 4 4v18c0 2.2-1.8 4-4 4H4z"/></clipPath></defs><g><g><g clip-path="url(#a)" transform="matrix(1.25 0 0 -1.25 0 45)"><g><path fill="#4189dd" d="M21.68 12.94L18 15.6l-3.68-2.66 1.4 4.32-3.67 2.67h4.55l1.4 4.33 1.4-4.33h4.55l-3.68-2.67 1.4-4.32zM0 5h36v26H0V5z"/></g><g><path fill="#fff" d="M19.4 19.93L18 24.26l-1.4-4.33h-4.55l3.68-2.67-1.4-4.32L18 15.6l3.68-2.66-1.4 4.32 3.67 2.67H19.4z"/></g></g></g></g></svg>