<svg xmlns="http://www.w3.org/2000/svg" viewBox="0 0 45 45" enable-background="new 0 0 45 45"><defs><clipPath id="a"><path d="M0 36h36V0H0v36z"/></clipPath></defs><g><g><g clip-path="url(#a)" transform="matrix(1.25 0 0 -1.25 0 45)"><g><path fill="#006c35" d="M32 31H4c-2.2 0-4-1.8-4-4V9c0-2.2 1.8-4 4-4h28c2.2 0 4 1.8 4 4v18c0 2.2-1.8 4-4 4"/></g><g><path fill="#fff" d="M8.5 23.76c-.05-.62-.1-1.7.42-1.8.63-.07.28 1.06.5 1.26.05.1.13.1.14-.02v-.96c0-.3.2-.4.36-.47.16 0 .28 0 .34-.15.03-.55.05-1.1.08-1.66 0 0 .38-.1.4.93.02.6-.12 1.12-.04 1.24 0 .1.15.12.26.06.16-.1.24-.26.5-.2.38.1.62.3.62.6-.02.28-.05.57-.18.85.02.05-.07.2-.05.24.07-.12.17-.1.2 0-.07.2-.17.42-.34.5-.13.13-.33.1-.4-.15-.04-.3.1-.64.3-.92.06-.1.12-.3.1-.46-.12-.07-.23-.04-.33.06 0 0-.3.23-.3.3.08.5 0 .57-.03.72-.04.2-.13.27-.2.4-.1.1-.2.1-.24 0-.14-.23-.08-.74.02-.97.07-.2.18-.35.13-.35-.04-.1-.13-.1-.2.05-.08.28-.1.7-.1.9-.03.24-.06.74-.22.87-.1.13-.23.06-.28-.05 0-.24 0-.47 0-.7.12-.37.15-.7.2-1.1.02-.5-.3-.22-.28.04.07.34.05.86 0 1-.06.13-.12.16-.25.14-.1 0-.35-.27-.42-.73 0 0-.06-.24-.1-.45-.02-.24-.18-.4-.3.03-.1.32-.14 1.1-.3.93"/></g><g><path fill="#fff" d="M10.2 21.24c-.54-.28-1.08-.53-1.63-.8.02.38.78 1.05 1.3 1.06.34 0 .25-.13.34-.26"/></g><g><path fill="#fff" d="M11.66 21c-.02-.03-.1-.02-.16-.02s-.1.02-.13.07c-.02.06.03.12.06.16.03.06.2.12.26-.03 0-.07 0-.13-.04-.17m2.56.82c0-.08-.02-.16-.04-.24 0-.08-.16-.08-.17.02-.06.3-.33.34-.5-.13-.12-.1-.32-.1-.34.03.03.32-.1.36-.36.2-.08.64-.16 1.24-.25 1.87.1 0 .2-.08.3.04-.1.35-.33 1.03-.45 1.08-.06.07-.1.02-.2 0-.13-.04-.25-.15-.2-.38.15-.96.25-1.7.4-2.66.03-.12-.06-.27-.18-.25-.2.13-.26.4-.62.4-.25 0-.55-.28-.58-.55-.05-.2-.06-.44 0-.63.18-.22.4-.2.58-.15.16.07.3.22.34.2.04-.06 0-.57-.73-.97-.44-.2-.8-.24-1 .12-.1.23.02 1.1-.27.9-.87-2.23 2.03-2.55 2.35-.1.03.1.15.2.17.05-.06-2.23-2.24-2.38-2.6-1.68-.1.15-.13.52-.13.74-.06.44-.3.27-.32-.16-.04-.25-.03-.3-.03-.54.1-1.76 2.9-1 3.37.44.24.8-.04 1.4.1 1.4.27-.3.65-.04.74.06.04.05.13.1.2.02.2-.16.6-.08.67.2.05.26.08.54.1.82-.2-.05-.32-.1-.33-.16"/></g><g><path fill="#fff" d="M14.33 24.22c-.05 0-.12.03-.15.1-.04.07-.02.14.03.15.07.02.13-.03.17-.1.03-.07 0-.14-.04-.15m.15 0c.2.12.14.38.03.5-.17.08-.32.05-.43 0-.15-.14-.18-.36-.07-.5.1-.05.22-.16.15-.23-.34-.37-1.26-1-1.16-1 .02-.04.58-.04.6 0 .18.06 1 1 1 1-.04.04-.08.06-.12.1-.05.04-.04.08 0 .12"/></g><g><path fill="#fff" d="M8.63 19.65c-.3-.5-.34-1.22-.17-1.44.1-.1.24-.14.35-.1.2.07.3.47.24.6-.06.1-.1.13-.18.04-.13-.28-.2-.08-.2.07-.02.3 0 .58.03.8.03.2 0 .14-.07.05"/></g><g><path fill="#fff" d="M21.84 20.44c-.3.65-.72 1.28-.85 1.52-.14.25-1.14 1.7-1.28 1.85-.32.4.52-.15-.1.62-.25.2-.26.2-.46.38-.1.08-.35.2-.4 0-.02-.2 0-.3.03-.46 0-.1.17-.3.24-.4 1-1.35 1.9-2.72 2.77-4.44.14.07.1.83.03.94"/></g><g><path fill="#fff" d="M20.52 18.3c-.06-.08.15-.36.4-.36.46.05.85.3 1.2.96.1.15.27.48.28.73.03 1.5-.08 2.64-.3 3.72 0 .1 0 .22 0 .26.04.04.14 0 .2.1.07.07-.2.7-.37.96-.05.1-.07.18-.17-.02-.1-.16-.16-.44-.15-.7.22-1.46.28-2.74.42-4.2 0-.15 0-.35-.1-.43-.35-.36-.85-.8-1.4-1"/></g><g><path fill="#fff" d="M26.5 18.3c-.3-.2-.3-.4-.05-.4.44.05.96.08 1.32.63.1.15.22.56.22.82.02 1.48-.03 2.6-.25 3.67-.02.1-.06.34-.04.37.03.07.18 0 .23.07.08.08-.37.66-.53.9-.06.1-.08.2-.17 0-.1-.17-.13-.46-.1-.7.24-1.6.42-2.8.45-4.2-.02-.14-.02-.2-.08-.38-.14-.18-.3-.4-.44-.5-.14-.12-.45-.22-.55-.3"/></g><g><path fill="#fff" d="M26.75 19.72c0 .37 0 .7 0 .97-.02.27-.07.5-.17.7-.1.2-.03.37-.07.6-.04.22-.03.56-.1.82 0 .1-.06.44-.05.47.03.07.13 0 .18.08.07.08-.25.92-.42 1.16-.05.1-.16.08-.3-.1-.1-.12-.07-.38-.02-.63.32-1.65.55-3.15.5-4.73 0-.14.47.4.47.65"/></g><g><path fill="#fff" d="M24.4 21.78c-.2 0-.62.4-.74.6-.05.14-.02.27.02.34.07.05.2.1.27.06 0 0 .1-.13.07-.14.1-.06.16-.03.17.02 0 .08-.04.12-.04.2.05.24.3.28.4.13.08-.1.1-.3.12-.42 0-.07-.1 0-.17 0-.05-.02-.06-.1-.07-.16 0-.17-.03-.44-.03-.64"/></g><g><path fill="#fff" d="M20.7 19.3c.06.52 0 1.4-.02 1.7-.02.72-.13 2.08-.2 2.3-.05.43.2-.04.16.2-.08.43-.32.72-.6 1.1-.1.14-.08.17-.22-.02-.16-.35-.02-.6.02-.86.2-.88.3-1.7.37-2.5.06-.8.08-1.67.03-2.52.15 0 .4.25.48.6"/></g><g><path fill="#fff" d="M27.43 20.12c-.36.6-.9 1.23-1.03 1.47-.14.23-1.34 1.78-1.5 1.93-.44.47.2.08-.08.44-.24.26-.3.35-.52.5-.1.07-.17.2-.2-.02-.02-.2-.03-.4-.02-.57 0-.1.1-.26.18-.36 1.06-1.3 2.23-2.65 3.16-4.33.14.06.1.8 0 .92"/></g><g><path fill="#fff" d="M14.82 24.26c-.32-.9.2-1.92.54-1.82.25-.1.4.38.5.9.08.15.14.17.17.1 0-.7.05-.87.23-1.08.4-.3.74-.04.76 0l.32.3c.06.07.16.08.26 0 .1-.07.08-.22.28-.33.17-.07.54 0 .63.14.12.2.15.26.2.33.08.1.22.07.22.03 0-.06-.1-.12-.03-.23.08-.07.1-.03.16 0 .2.1.36.53.36.53 0 .17-.08.15-.14.12-.08-.05-.1-.07-.17-.1-.08-.03-.28-.1-.37.05-.1.18-.1.43-.18.6 0 .02-.13.3 0 .3.06 0 .2-.04.2.07.07.1-.13.4-.27.56-.12.13-.28.15-.44.02-.1-.1-.1-.22-.12-.33-.03-.12-.02-.28.1-.44.12-.22.32-.5.25-.9 0 0-.12-.2-.32-.17-.1.03-.23.07-.3.62-.06.42 0 1-.17 1.27-.06.16-.1.32-.26.04-.04-.1-.22-.28-.1-.63.1-.2.16-.56.1-.96-.07-.12-.08-.15-.18-.27-.13-.14-.28-.1-.4-.05-.1.07-.18.1-.23.33.02.36.04.95-.03 1.08-.1.2-.26.12-.32.06-.33-.3-.5-.8-.6-1.22-.1-.3-.18-.2-.25-.1-.17.17-.18 1.38-.38 1.18"/></g><g><path fill="#fff" d="M17.83 19.75c-.2-.07-.4-.13-.4-.42.08-.4-.1-.26-.2-.2-.13.08-.47.3-.52.76 0 .1.1.2.22.2.2-.06.52-.07.8-.1.2 0 .32-.18.1-.25m.77 1.9c.02.05.1.04.2 0 .08-.06.13-.14.1-.2-.02-.03-.12-.03-.2.02-.1.05-.14.13-.1.18zm1.44-1.12h-1.88c-.1.05-.07.08 0 .1.45.07 1.25.2 1.3.96 0 .4-.17.65-.66.73-.36-.03-.62-.38-.58-.76 0-.1.04-.3-.07-.33-.7-.07-1.44-.5-1.47-.8-.04-.04-.13.05-.12.18-.03.53-.2 1.14-.48 1.6-.2.22-.15.15-.3.05-.1-.1-.1-.18-.1-.4 0 0 .18-.5.33-.84.1-.35.2-.76.13-1.14-.23-.5-.7-.96-1.15-1.2-.23-.08-.43-.06-.48 0-.14.1-.13.27-.12.27.38.27.8.48 1.15 1.2.1.27.13.43.03.85-.04.16-.1.3-.2.4.07.04.24-.1.27 0-.04.2-.18.46-.33.6-.14.12-.3.13-.4.02-.15-.08-.18-.36-.1-.6.06-.18.26-.2.4-.58 0 0 .06-.28 0-.4-.07-.17-.84-.77-.88-.8-.02-.02 0 .02-.02.12 0 .12.05.4.04.4-.25-.15-.33-.65-.38-.8-.63-.43-1.34-.75-1.75-1.2-.2-.33 1.48.4 1.68.48.04-.03.04-.18.16-.32.17-.24.55-.4.9-.3.62.23.97.64 1.33 1.1.05.08.13.14.2.08.25-.55.96-.94 1.88-.98.2.25.1.38.03.43 0 0-.46.18-.53.36-.04.15.06.3.27.4.6.06 1.17.14 1.73.32 0 .2.1.47.2.6.06.12.1.08.1.13l-.1.05z"/></g><g><path fill="#fff" d="M10.87 24.25c.2-.1.62-.06.6.3 0 .02 0 .13 0 .16-.05.1-.17.08-.2-.02 0-.04 0-.1-.02-.1-.02-.03-.08-.02-.08.08 0 .03-.02.06-.04.08 0 0-.02 0-.05 0-.03 0-.03 0-.04-.02 0-.03-.02-.05-.02-.08 0-.04 0-.05-.04-.05-.03 0-.02-.02-.04 0-.02 0-.04.02-.04.04 0 .03 0 .07 0 .1-.02 0-.04 0-.06.02-.12 0-.13-.14-.12-.2 0 0-.02-.24.15-.3"/></g><g><path fill="#fff" d="M17.2 21.57c.23-.1.74-.05.62.3 0 .02 0 .12-.02.15-.04.1-.16.08-.2-.03 0-.04.03-.1 0-.12-.02-.02-.1 0-.1.1 0 .02 0 .06-.02.08-.02 0-.03 0-.05 0-.03 0-.03 0-.05-.03 0-.02 0-.05 0-.08-.02-.03-.03-.04-.06-.05-.02 0-.02 0-.04 0 0 .03-.03.03-.03.06 0 .02 0 .07-.02.08 0 .02-.03.03-.05.03-.12 0-.12-.13-.12-.18 0-.02 0-.27.15-.33"/></g><g><path fill="#fff" d="M20.9 22.68c.23-.1.63-.06.6.3 0 .02 0 .12 0 .15-.04.1-.16.08-.2-.03 0-.03.03-.1 0-.1-.02-.02-.1 0-.1.08 0 .03 0 .07-.02.1-.02 0-.03 0-.05 0-.03 0-.03 0-.05-.04 0-.02 0-.05 0-.08-.02-.03-.03-.04-.06-.05-.02 0-.02 0-.04.02 0 .02-.03.02-.03.05 0 .03 0 .07-.02.1 0 0-.03 0-.05 0-.12 0-.12-.12-.12-.17 0 0 0-.25.15-.32"/></g><g><path fill="#fff" d="M22.83 19.9c-.38-.44-.22-1.14-.13-1.3.12-.24.22-.4.47-.52.22-.16.4-.06.48.05.22.23.23.82.33.93.07.22.26.18.35.1.08-.14.2-.22.3-.3.22-.17.47-.2.7-.04.18.1.28.22.38.46.12.3.06 1.62.04 2.42 0 .06-.22 1.08-.22 1.1 0 0-.02.52-.05.64 0 .05 0 .07.04.06.06-.05.07-.05.1-.06.06 0 .1.08.08.17-.17.33-.35.64-.52.96-.04.04-.1.1-.16 0-.06-.07-.13-.17-.13-.3.02-.22.06-.45.07-.68.07-.38.14-.77.2-1.15.08-.83.1-1.5.16-2.33 0-.35-.12-.66-.22-.7 0 0-.16-.1-.26 0-.08.04-.38.5-.38.5-.16.16-.26.1-.37 0-.3-.28-.44-.83-.65-1.2-.05-.1-.2-.16-.37 0-.42.58-.17 1.4-.22 1.2"/></g><g><path fill="#fff" d="M21 24.7c.2-.08.34-.47.3-.66-.05-.24-.15-.5-.22-.46-.08.03.05.24-.03.45-.04.14-.3.4-.28.48-.05.16.12.23.24.2"/></g><g><path fill="#fff" d="M23.45 19.66c.04.47-.03.75-.04 1.03 0 .27-.3 2.38-.37 2.6-.07.4.3.05.26.28-.14.3-.46.7-.55.96-.06.1-.04.2-.17.03-.13-.4-.17-.73-.12-.98.32-1.67.64-3.05.6-4.63.14 0 .32.34.4.7"/></g><g><path fill="#fff" d="M26.76 24.04c.18-.1.28-.58.26-.72-.03-.26-.13-.54-.2-.5-.07.03.02.38 0 .5-.05.14-.3.42-.27.5-.05.17.1.25.2.22"/></g><g><path fill="#fff" d="M13.63 20.55c.16-.07.26-.43.24-.53-.03-.2-.12-.4-.18-.37-.08.03 0 .28-.03.36-.02.2-.25.3-.25.4-.04.14.1.17.2.15"/></g><g><path fill="#fff" d="M9.1 24.82c.26-.07.27-.44.25-.55-.03-.2-.12-.4-.18-.38-.07.02 0 .28-.04.37-.04.1-.25.32-.22.4-.04.12.1.18.2.15"/></g><g><path fill="#fff" d="M14.03 23.1c-.2-.1-.26-.42-.14-.6.1-.16.27-.1.3-.1.18-.02.3.35.3.35s0 .1-.22-.1c-.1 0-.1.03-.13.08-.02.1-.02.2.03.3.03.1-.04.13-.15.06"/></g><g><path fill="#fff" d="M15.47 24.96c-.1-.06-.3-.26-.3-.5 0-.12-.02-.12.06-.2.06-.1.12-.08.25 0 .07.04.1.07.1.16.04.15-.14-.07-.16.1-.05.15.07.2.18.35 0 .1 0 .18-.13.1"/></g><g><path fill="#fff" d="M16.63 24.76c-.05-.1-.1-.57-.1-.57-.02-.15.16-.2.24-.03.13.33.13.48.14.62-.03.2-.18.2-.27-.04"/></g><g><path fill="#fff" d="M23.92 21.05c.02.02 1.02.74 1.02.74.1.02.08-.38.04-.38.02-.08-1-.76-1.06-.74-.05-.03-.1.28 0 .37"/></g><g><path fill="#fff" d="M24.83 21.05c.18-.08.25-.6.23-.74 0-.26-.17-.48-.24-.45-.07.03 0 .34-.03.45-.05.15-.2.44-.17.52-.05.17.1.26.2.23"/></g><g><path fill="#fff" d="M18.87 18.83c.07.1.28.25.3.25.1.05.18-.04.18-.04 0-.1-.06-.2-.04-.32.03-.05.05-.1.15-.1.15.13.3.14.46.15.13 0 .14-.2.06-.2-.3-.08-.42-.16-.63-.24-.1-.06-.2.02-.2.03 0 0-.05.05 0 .18 0 .1-.04.17-.13.16-.07-.04-.12-.06-.16 0 0 .07-.02.1.03.13"/></g><g><path fill="#fff" d="M25.9 18.55c.03-.06.06-.1-.02-.2-.07-.06-.12-.1-.2-.16-.02-.07-.04-.15.06-.18.2-.05.62.23.62.23.07.06.05.16.04.16-.04.05-.13.03-.2.03-.02 0-.12.02-.07.1.03.06.05.1.07.16.03.05 0 .1-.1.13-.1.02-.15 0-.27 0-.06-.02-.08-.04-.1-.12 0-.1.08-.1.16-.15"/></g><g><path fill="#fff" d="M25.5 13H24v.5c0 .28-.22.5-.5.5s-.5-.22-.5-.5V13H11s0-1 3-1h9v-.5c0-.28.22-.5.5-.5s.5.22.5.5v.5h1v-.5c0-.28.22-.5.5-.5s.5.22.5.5v1c0 .28-.22.5-.5.5"/></g></g></g></g></svg>