<svg xmlns="http://www.w3.org/2000/svg" viewBox="0 0 45 45" enable-background="new 0 0 45 45"><defs><clipPath id="a"><path d="M0 36h36V0H0v36z"/></clipPath></defs><g><g><g clip-path="url(#a)" transform="matrix(1.25 0 0 -1.25 0 45)"><g><path fill="#e30917" d="M36 9c0-2.2-1.8-4-4-4H4C1.8 5 0 6.8 0 9v18c0 2.2 1.8 4 4 4h28c2.2 0 4-1.8 4-4V9z"/></g><g><path fill="#eee" d="M16 12c-3.3 0-6 2.7-6 6s2.7 6 6 6c1.3 0 2.52-.42 3.5-1.14-1.34 1.53-3.3 2.5-5.5 2.5-4.06 0-7.35-3.3-7.35-7.36 0-4.06 3.3-7.35 7.35-7.35 2.2 0 4.16.96 5.5 2.5-.98-.72-2.2-1.15-3.5-1.15"/></g><g><path fill="#eee" d="M19.9 17.77l2.45-.56.22-2.5 1.3 2.16 2.43-.56-1.64 1.9 1.28 2.13-2.3-.98-1.64 1.9.22-2.5-2.3-.98z"/></g></g></g></g></svg>