<svg xmlns="http://www.w3.org/2000/svg" viewBox="0 0 45 45" enable-background="new 0 0 45 45"><defs><clipPath id="a"><path d="M0 36h36V0H0v36z"/></clipPath><clipPath id="b"><path d="M4 31c-2.2 0-4-1.8-4-4V9c0-2.2 1.8-4 4-4h28c2.2 0 4 1.8 4 4v18c0 2.2-1.8 4-4 4H4z"/></clipPath></defs><g><g><g clip-path="url(#a)" transform="matrix(1.25 0 0 -1.25 0 45)"><g><path fill="#eee" d="M36 9c0-2.2-1.8-4-4-4H4C1.8 5 0 6.8 0 9v18c0 2.2 1.8 4 4 4h28c2.2 0 4-1.8 4-4V9z"/></g></g></g><g><g clip-path="url(#b)" transform="matrix(1.25 0 0 -1.25 0 45)"><path fill="#0a4ea2" d="M36 13H0v10h36V13z"/><path fill="#ee2024" d="M36 5H0v8h36V5z"/><g><path fill="#fff" d="M11.84 10.9c-1.13.66-3.64 2.3-4.56 4.5-.92 2.23-.72 5.42-.48 9.12l.06.94h11.96l.06-.94c.24-3.7.45-6.9-.48-9.12-.9-2.2-3.42-3.84-4.55-4.5l-1-.56-1 .57z"/></g><g><path fill="#ee2024" d="M17.9 24.46H7.8c-.24-3.7-.42-6.68.4-8.68 1.03-2.46 4.52-4.22 4.64-4.27.12.06 3.62 1.82 4.64 4.28.83 2 .65 4.97.4 8.68"/></g><g><path fill="#fff" d="M13.47 15.2c0-.25-.2-.45-.45-.45h-.6c-.25 0-.45.2-.45.45 0 0 .28 4.05.28 5.18 0 1.12-.28 3.14-.28 3.14 0 .25.2.45.45.45h.6c.25 0 .45-.2.45-.45 0 0-.25-1.9-.25-3.1 0-1.23.25-5.22.25-5.22"/></g><g><path fill="#fff" d="M10.56 20.77c-.25 0-.45.2-.45.44v.62c0 .25.2.45.46.45 0 0 1.04-.2 2.1-.2 1.05 0 2.22.2 2.22.2.25 0 .45-.2.45-.45v-.6c0-.25-.2-.45-.45-.45 0 0-.94.26-2.22.26-1.3 0-2.1-.26-2.1-.26"/></g><g><path fill="#fff" d="M9.54 18.4c-.25 0-.45.2-.45.44v.6c0 .25.2.45.44.45 0 0 1.9-.18 3.2-.18 1.32 0 3.12.17 3.12.17.25 0 .45-.2.45-.46v-.6c0-.25-.2-.45-.43-.45 0 0-1.85.12-3.28.12-1.45 0-3.06-.13-3.06-.13"/></g><g><path fill="#0a4ea2" d="M17.08 15.04c-.5 1.08-1.9 1.4-2.57.06-.43 1.6-1.67 1.6-1.67 1.6s-1.24 0-1.68-1.6c-.66 1.32-2.04 1.03-2.56-.04 1.3-2.07 4.13-3.5 4.24-3.55.1.06 2.92 1.47 4.24 3.54"/></g></g></g></g></svg>