<svg xmlns="http://www.w3.org/2000/svg" viewBox="0 0 45 45" enable-background="new 0 0 45 45"><defs><clipPath id="a"><path d="M0 36h36V0H0v36z"/></clipPath></defs><g><g><g clip-path="url(#a)" transform="matrix(1.25 0 0 -1.25 0 45)"><g><path fill="#006aa7" d="M15.5 5H32c2.2 0 4 1.8 4 4.5v6H15.5V5z"/></g><g><path fill="#006aa7" d="M32 31H15.5V20.5H36V27c0 2.2-1.8 4-4 4"/></g><g><path fill="#006aa7" d="M10.5 31H4c-2.2 0-4-1.8-4-4v-6.5h10.5V31z"/></g><g><path fill="#006aa7" d="M0 15.5v-6C0 6.8 1.8 5 4 5h6.5v10.5H0z"/></g><g><path fill="#fecc00" d="M15.5 31h-5V20.5H0v-5h10.5V5h5v10.5H36v5H15.5V31z"/></g></g></g></g></svg>