<svg xmlns="http://www.w3.org/2000/svg" viewBox="0 0 45 45" enable-background="new 0 0 45 45"><defs><clipPath id="a"><path d="M0 36h36V0H0v36z"/></clipPath></defs><g><g><g clip-path="url(#a)" transform="matrix(1.25 0 0 -1.25 0 45)"><g><path fill="#3b88c3" d="M36 4c0-2.2-1.8-4-4-4H4C1.8 0 0 1.8 0 4v28c0 2.2 1.8 4 4 4h28c2.2 0 4-1.8 4-4V4z"/></g><g><path fill="#fff" d="M15.3 18.8l-5.02 6.83c-.3.4-.5.87-.5 1.37 0 1.36 1.03 2.26 2.36 2.26.78 0 1.58-.52 2.02-1.14L18 22.66l3.85 5.46c.43.62 1.24 1.14 2 1.14 1.35 0 2.37-.9 2.37-2.26 0-.5-.2-.96-.5-1.37L20.7 18.8l6.14-8.23c.25-.35.53-.93.53-1.6 0-1.3-1-2.16-2.36-2.16-.83 0-1.45.4-1.9 1.04L18 14.9l-5.08-7.06C12.45 7.2 11.82 6.8 11 6.8 9.62 6.8 8.63 7.7 8.63 9c0 .66.28 1.24.53 1.6l6.13 8.23z"/></g></g></g></g></svg>