<svg xmlns="http://www.w3.org/2000/svg" viewBox="0 0 45 45" enable-background="new 0 0 45 45"><defs><clipPath id="a"><path d="M4 31c-2.2 0-4-1.8-4-4V9c0-2.2 1.8-4 4-4h28c2.2 0 4 1.8 4 4v18c0 2.2-1.8 4-4 4H4z"/></clipPath></defs><g><g><g clip-path="url(#a)" transform="matrix(1.25 0 0 -1.25 0 45)"><path fill="#141414" d="M0 31h36v-7H0v7z"/><path fill="#eee" d="M0 22h36v2H0v-2z"/><g><path fill="#078930" d="M36 5H0v7h36V5z"/></g><g><path fill="#eee" d="M36 12v2H0v-2h36z"/></g><path fill="#da121a" d="M0 14h36v8H0v-8z"/><g><path fill="#0f47af" d="M0 31l19.02-13L0 5v26z"/></g><g><path fill="#fcdd09" d="M8.25 18l1.78 2.44-2.88-.93-1.78 2.46v-3.03L2.5 18l2.87-.93v-3.03l1.78 2.45 2.88-.95L8.25 18z"/></g></g></g></g></svg>