<svg xmlns="http://www.w3.org/2000/svg" viewBox="0 0 45 45" enable-background="new 0 0 45 45"><defs><clipPath id="a"><path d="M0 36h36V0H0v36z"/></clipPath></defs><g><path fill="#0c4076" d="M0 28.75h45v-12.5H0v12.5z"/><g><g clip-path="url(#a)" transform="matrix(1.25 0 0 -1.25 0 45)"><g><path fill="#eee" d="M0 9c0-2.2 1.8-4 4-4h28c2.2 0 4 1.8 4 4v4H0V9z"/></g><g><path fill="#c6363c" d="M36 27c0 2.2-1.8 4-4 4H4c-2.2 0-4-1.8-4-4v-4h36v4z"/></g><g><path fill="#c6363c" d="M7 23v-9.5C7 10.46 9.46 8 12.5 8s5.5 2.46 5.5 5.5V23H7z"/></g><g><path fill="#edb92e" d="M16.78 26.73c-.2-.26-.28-.45-.25-.76.03-.3-.1-.5-.1-.3 0 .16-.3.03-.4-.28-.1-.38.2.48-.1.57-.24.08-.57-.67-.5-.6.1.08.2.54.13.6-.06.06-.4-.22-.4-.22s.1.2.2.27 0 .22 0 .22.2.14.3.34c.12.2.32 1.1.32 1.1s.52-.13.75-.3c.24-.15.24-.38.05-.65m-2.1-.6c.07-.16.13-.35 0-.3-.12.05-.2.25-.32.3-.13.04.06-.16-.1-.3-.17-.1-.36-.12-.43-.22.15.18.24.67 0 .68-.42.02-.17-.64-.17-.64s-.2-.08-.2.1c0 .2-.23.18-.2.3.04.13-.06.2-.2.1-.17-.12-.23-.26-.3-.2-.1.1 0 .17.12.28.12.1.26.2.07.26.08.1.35.27.35.27s-.36.53-.13 1.6c1.3.04 1.78-.22 1.92-.46.13-.24-.32-.95-.44-1.07-.13-.13-.1-.24 0-.3s.1-.17.1-.17-.13-.08-.07-.23m-2.45-.18c-.08-.07-.14.07-.3.18-.15.1-.25.04-.22-.08.04-.13-.18-.1-.18-.3 0-.2-.2-.1-.2-.1s.24.65-.18.63c-.24 0-.15-.5 0-.67-.07.1-.26.12-.43.24-.16.13.03.33-.1.3-.12-.06-.2-.26-.33-.3-.1-.06-.05.13 0 .3.08.14-.06.22-.06.22s0 .1.1.17c.1.06.13.17 0 .3-.12.12-.57.83-.43 1.06.15.23.62.5 1.93.46.23-1.08-.13-1.6-.13-1.6s.27-.18.35-.28c-.2-.07-.05-.15.08-.26.12-.1.2-.2.12-.27m-3.2.02c-.27-.1 0-.95-.1-.58-.07.3-.4.43-.4.26 0-.18-.1 0-.08.3.03.32-.06.5-.25.77-.2.27-.2.5.05.66.23.15.75.27.75.27s.2-.9.3-1.1c.12-.2.32-.33.32-.33s-.1-.15 0-.22c.1-.08.2-.27.2-.27s-.34.28-.4.22c-.06-.06.08-.14.06-.25-.02-.1-.2.33-.44.25m3.44 2.97c-3.94 0-5.17-1.67-4.84-2.3.32-.62 1.3-2.23 1.3-2.23s-.3-.12 0-.74c.32-.63 1.54-.2 3.54-.2s3.22-.43 3.53.2c.3.62 0 .75 0 .75s1 1.62 1.3 2.24c.34.63-.9 2.3-4.83 2.3"/></g><g><path fill="#ffac33" d="M12.6 28.76c0-.1-.07-.18-.17-.18s-.18.08-.18.18v1.58c0 .1.08.18.18.18.1 0 .18-.1.18-.18v-1.58z"/></g><g><path fill="#edb92e" d="M12.97 29.9c0-.08-.07-.15-.17-.15h-.78c-.1 0-.16.07-.16.16 0 .1.07.18.16.18h.78c.1 0 .17-.07.17-.17"/></g><g><path fill="#0c4076" d="M13.02 28.94c0-.33-.27-.6-.6-.6-.34 0-.6.27-.6.6 0 .33.26.6.6.6.33 0 .6-.27.6-.6"/></g><g><path fill="#0c4076" d="M9.6 23.72c0-.14-.17-.26-.37-.26-.2 0-.38.12-.38.26 0 .15.17.27.38.27.2 0 .37-.13.37-.28"/></g><g><path fill="#c6363c" d="M11.12 23.8c0-.13-.16-.25-.37-.25-.2 0-.38.12-.38.26 0 .16.17.28.38.28.2 0 .37-.12.37-.27"/></g><g><path fill="#c6363c" d="M14.5 23.8c0-.13-.17-.25-.38-.25-.2 0-.38.12-.38.26 0 .16.17.28.38.28.2 0 .38-.12.38-.27"/></g><g><path fill="#0c4076" d="M16.06 23.72c0-.14-.17-.26-.38-.26-.2 0-.37.12-.37.26 0 .15.18.27.38.27s.38-.13.38-.28"/></g><g><path fill="#0c4076" d="M12.8 23.83c0-.14-.16-.26-.37-.26-.2 0-.38.12-.38.26 0 .15.17.27.38.27.2 0 .38-.12.38-.27"/></g><g><path fill="#edb92e" d="M10.3 13.44c-.36-.78-.4-1.16-.8-1.13-.4.03-.7.1-.7-.06s.66-.1.66-.1-.6-.26-.5-.55c.13-.3.65.37.65.37s.12-.03.32.13c.2.17.74.96.74.96l-.37.38z"/></g><g><path fill="#edb92e" d="M14.7 13.44c.34-.78.38-1.16.78-1.13.4.03.7.1.7-.06s-.65-.1-.65-.1.6-.26.5-.55c-.13-.3-.66.37-.66.37s-.1-.03-.3.13c-.2.17-.75.96-.75.96l.38.38z"/></g><g><path fill="#fff" d="M17.1 20.3c-.16 1.22-1.3.85-1.78 0-.48-.82-.9-1.32-1.35-.74-.45.6-.74 1.2-.1 2l.65.8c-.1.47-.48.37-1.03.14-.57-.23-.92-.12-.86-.38.05-.25.26-.27.26-.27s-.35-.34-.44-1.5c-.1 1.16-.44 1.5-.44 1.5s.2.02.25.27c.06.26-.3.15-.84.38-.56.23-.95.33-1.04-.15l.64-.8c.64-.78.35-1.4-.1-2-.44-.57-.86-.13-1.35.7-.5.83-1.63 1.2-1.8 0-.18-1.2.03-3.3.03-3.3s-.1-1.16.1-2.14c.23-.97.36-1.84 0-2.6.4.1.63.6.63.6s-.12-.6.12-.53c.24.06.3.52.47.7.2.16.34.53.34.53s.37.15 0-.5c.3-.02.5.2.5.2l.1-.6.2.32.1-.57.32.55.22-.25s.04 1.06.34.85c.3-.2.3-.9.1-1.3-.2-.43 0-.6 0-.6s-.3-.43-.44-.68c-.15-.25.08-.55.08-.55s-.57-.85-.4-1.18c.14-.33 1.1-.54 1.8-.55 0 0 .02 0 .04 0 0 0 .02 0 .04 0 .7 0 1.65.22 1.8.54.17.32-.4 1.17-.4 1.17s.22.3.07.55c-.15.25-.45.68-.45.68s.2.17 0 .6c-.2.4-.18 1.1.12 1.3.3.2.33-.85.33-.85l.22.25.32-.55.1.57.18-.32.1.6s.2-.22.53-.2c-.4.65 0 .5 0 .5s.14-.37.33-.54c.18-.17.24-.63.48-.7.24-.05.1.55.1.55s.25-.5.64-.6c-.35.76-.23 1.63 0 2.6.22 1 .1 2.14.1 2.14s.2 2.16.03 3.37"/></g><g><path fill="#edb92e" d="M11.9 21.7c-.45.4-1.55.96-1.9.88-.38-.08-.67-.33-.4-.72.27-.4.4-.38.4-.38s.42.4.6.18c.2-.22.04-.3-.3-.33-.35-.03-.7.2-.7.2s.12-.4.6-.45c.32-.3.72-.08.92-.08.2 0 1.16.3.77.7"/></g><g><path fill="#edb92e" d="M13.02 21.7c.44.4 1.54.96 1.9.88.37-.08.66-.33.4-.72-.28-.4-.4-.38-.4-.38s-.43.4-.62.18c-.18-.22-.03-.3.32-.33.34-.03.7.2.7.2s-.12-.4-.6-.45c-.32-.3-.73-.08-.93-.08-.22 0-1.17.3-.78.7"/></g><g><path fill="#edb92e" d="M9.97 10.8c.14.32.04.36-.07.47-.1.1-.17.26-.17.26s-.05-.15-.16-.26c-.1-.1-.2-.15-.07-.47-.33.2-.4-.16-.24-.38.05.2.3.15.3-.1 0-.23-.2-.12-.18-.22.03-.1.22-.3.35-.3.14 0 .33.2.36.3.02.1-.2 0-.2.23 0 .24.26.28.3.1.16.2.1.57-.23.37"/></g><g><path fill="#edb92e" d="M15.4 10.8c.14.32.05.36-.06.47-.1.1-.17.26-.17.26s-.05-.15-.16-.26c-.1-.1-.2-.15-.06-.47-.34.2-.4-.16-.24-.38.05.2.3.15.3-.1 0-.23-.2-.12-.18-.22.02-.1.22-.3.35-.3.13 0 .33.2.36.3.03.1-.2 0-.2.23 0 .24.27.28.3.1.17.2.1.57-.22.37"/></g><g><path fill="#c6363c" d="M10.24 19.13v-3.86c0-1.24 1-2.24 2.24-2.24 1.23 0 2.23 1 2.23 2.24v3.85h-4.46z"/></g><g><path fill="#be1931" d="M12.05 19.13z"/></g><g><path fill="#eee" d="M14.7 16.83h-1.74v2.3H12v-2.3h-1.76v-.96H12V13.1c.15-.05.3-.07.48-.07.16 0 .32.02.48.06v2.77h1.75v.96z"/></g></g></g></g></svg>