<svg xmlns="http://www.w3.org/2000/svg" viewBox="0 0 45 45" enable-background="new 0 0 45 45"><defs><clipPath id="a"><path d="M0 36h36V0H0v36z"/></clipPath><clipPath id="b"><path d="M4 31c-2.2 0-4-1.8-4-4v-9h19v13H4z"/></clipPath><clipPath id="c"><path d="M0 36h36V0H0v36z"/></clipPath></defs><g><g><g clip-path="url(#a)" transform="matrix(1.25 0 0 -1.25 0 45)"><g><path fill="#00247d" d="M36 9c0-2.2-1.8-4-4-4H4C1.8 5 0 6.8 0 9v18c0 2.2 1.8 4 4 4h28c2.2 0 4-1.8 4-4V9z"/></g><g><path fill="#00247d" d="M19 31H4c-2.2 0-4-1.8-4-4v-9h19v13z"/></g><g><path fill="#eee" d="M19 18v2.03L11.9 25H6.67l10-7H19z"/></g><g><path fill="#cf1b2b" d="M19 19.42L11.03 25H9.3l9.7-6.8v1.22z"/></g><g><path fill="#eee" d="M8.1 25L0 19.23V18h3.33l10 7H8.1z"/></g><g><path fill="#cf1b2b" d="M10.7 25L.74 18h1.73l10 7H10.7z"/></g><g><path fill="#eee" d="M16.67 31l-10-7h5.23l7.1 4.97V31h-2.33z"/></g><g><path fill="#cf1b2b" d="M17.54 31l-10-7H9.3l9.7 6.8v.2h-1.46z"/></g></g></g><g><g clip-path="url(#b)" transform="matrix(1.25 0 0 -1.25 12.5 15)"><g><path fill="#eee" d="M0 0h3.33l-10 7H-9l-.63-1.6L0-1.32V0z"/></g><g><path fill="#cf1b2b" d="M0 0h.7L-9 6.8l-.5-.86L0-.72V0z"/></g></g></g><g><g clip-path="url(#c)" transform="matrix(1.25 0 0 -1.25 0 45)"><g><path fill="#eee" d="M19 27h-7v4H7v-4H0v-5h7v-4h5v4h7v5z"/></g><path fill="#cf1b2b" d="M11 18H8v13h3V18z"/><path fill="#cf1b2b" d="M19 23H0v3h19v-3z"/><g><path fill="#55acee" d="M32.95 15.73c.03.23.04.48.04.73v7.04H23v-7.04c0-.25 0-.5.04-.73h9.9z"/></g><g><path fill="#9f1d22" d="M32.95 15.73c-.14-1.22-.65-2.13-1.48-2.87C30.04 11.6 28 11.3 28 11c0 .3-2.05.6-3.48 1.86-.83.74-1.34 1.65-1.48 2.87h9.9z"/></g><g><path fill="#9f1d22" d="M32.95 15.7h-9.92L23 16h10l-.05-.27z"/></g><g><path d="M28.34 21.25h1.9v.62h-1.9v.85h-.66v-.85h-1.93v-.62h1.93V13.3h.66v7.95z"/></g><g><path fill="#77b253" d="M28.34 20.3c.12.1.18.17.25.16.06 0 .15 0 .22 0 .07.04.42.08.57.03.03-.02.1-.04.2-.13.1-.08.25-.23.2-.63-.05-.4-.04-.58-.06-.8-.03-.4-.12-.74-.28-.7.2-.4.23-.72.37-.98.15-.26.23-.8.18-1.36-.05-.58-.2-1.87.26-2.73-.08-.06-.26 0-.43.17-.16.17-.23.17-.36.06-.4-.3-.8-.7-1.37-.3-.13.08-.17.18-.07.45.23.66.35 1.56.3 2v4.76z"/></g><g><path fill="#faaa34" d="M26.02 15.4c.35-.35 1.43-1.5 1.57-1.63.13-.13.2-.12.25 0 .4.96.3 2.16-.67 3.34-.16-.57-.57-.95-1.2-1.08-.32-.07-.38-.28-.32-.36.1.15.28.16.37-.02.08-.15-.02-.33-.18-.38-.16-.05-.4-.04-.5.13-.1.15-.18.55.27.74.45.2.93.4 1.02.8.1.4.22.6.5.62 1.5-1.38 1.68-2.93 1.06-4.3-.15-.34-.4-.43-.55-.22-.17.2-1.3 1.54-1.9 2.2.15 0 .24.1.27.17"/></g><g><path fill="#f6ddcd" d="M28.73 20.72c.03-.1.05-.2 0-.32-.05-.1-.06-.24.02-.4.13.2.32.15.42.26.1.1.13.2.22.23-.1.06-.22.14-.2.34.03.2.32.38.06.7-.17.2-.4.14-.52.06-.05-.04-.1-.1-.1-.13-.02-.03 0-.1-.04-.16-.03-.02-.06-.05-.1-.08-.02-.02-.04-.04 0-.07 0-.02.02-.02.04-.03 0-.02-.03-.05-.04-.06 0-.02 0-.04 0-.05 0-.05.03-.06 0-.1-.02-.05-.05-.1.03-.15.03 0 .14-.04.2-.03"/></g><g><path fill="#f6ddcd" d="M27.68 19.64c-.15-.04-.4.03-.58 0-.08 0-.15.04-.14.12 0 .08.03.2 0 .32 0 .18.07.42.2.7.1.26.17.4.17.54 0 .1 0 .18.08.23.07.04.08.07.1.1.04.07.1.08.1.04 0-.03 0-.05-.03-.1.05.05.13.1.15.12.02 0 .1.08.12 0 .03.03.06.03.07 0 .02 0 0-.02 0-.04.02 0 .05-.04 0-.08.03 0 .06-.04 0-.08-.05-.05-.1-.08-.13-.1 0-.05-.14-.15-.2-.17-.04-.02-.05-.05-.05-.13 0-.83-.1-.76-.1-.96 0-.06 0-.1.04-.1.06.03.14.05.22.05v-.46z"/></g><g><path fill="#f6ddcd" d="M27.7 17.84c.26.12.54.17.68.2.15.04.38.16.5.22.1.06.2.14.27.16.06.02.14.07.18.15.2.4.32.74.32 1.03 0 .18-.05.4-.23.25-.17-.15-.36-.42-.4-.62-.1-.3-.15-.37-.17-.43-.02-.06-.08-.06-.15-.08-.32-.07-.4-.12-.64-.3-.24-.17-.5-.33-.67-.43-.18-.1-.2-.12-.25-.2-.04-.07-.07-.13-.1-.17-.04-.03-.05-.07-.04-.12 0-.02 0-.18 0-.24 0-.05 0-.07.03-.07.02 0 .05 0 .06.06-.02-.06.07-.04.07 0 0-.06.1-.02.1.04 0-.04.07 0 .08 0 0 .07.03.13.05.17.03.06.07.14.13.2.07.04.04.1.18.17"/></g><g><path fill="#f6ddcd" d="M29.47 13.4c0-.05.04-.12.05-.16.02-.04 0-.06-.02-.08-.05-.12-.1-.3-.12-.4 0-.07-.05-.13-.07-.16 0-.04 0-.07.05-.1.02-.03.1 0 .1.03.03-.02.08 0 .1.03.02-.03.07 0 .1.03.02-.02.05 0 .07.03.03-.02.07 0 .08.08 0 .02 0 .05.02.07 0 0 0 .05 0 .08s.03.1.05.13c.03.04.07.12.05.2 0 .05-.04.05-.07.14-.06.06-.14.15-.22.15-.1 0-.13-.04-.16-.07"/></g><g><path fill="#f6ddcd" d="M27.93 12.94c.07-.08.24-.08.36.05-.05 0-.15.05-.2.1-.05-.07-.12-.14-.17-.16"/></g><g><path fill="#955c0f" d="M28.7 21.55c.02.2.16.2.25.17.03 0 .12-.02.2 0 .16.05.28 0 .26-.16.06-.03.1-.1.1-.18 0-.06 0-.1.06-.1s.2-.08.1-.18c.08-.05.15-.17.1-.26-.04-.08-.17-.1-.22-.02-.06-.03-.16-.03-.22.03-.04-.05-.15-.04-.17 0 0 .04-.04.07-.08.08-.05 0-.05.13.02.15-.02.03-.02.07 0 .1 0 0 0 .04-.04.07-.04.03-.07.15-.03.2-.07 0-.2.05-.24.1-.04.04-.08.04-.1 0"/></g><g><path fill="none" stroke="#000" stroke-width=".015" d="M28.7 21.55c.02.2.16.2.25.17.03 0 .12-.02.2 0 .16.05.28 0 .26-.16.06-.03.1-.1.1-.18 0-.06 0-.1.06-.1s.2-.08.1-.18c.08-.05.15-.17.1-.26-.04-.08-.17-.1-.22-.02-.06-.03-.16-.03-.22.03-.04-.05-.15-.04-.17 0 0 .04-.04.07-.08.08-.05 0-.05.13.02.15-.02.03-.02.07 0 .1 0 0 0 .04-.04.07-.04.03-.07.15-.03.2-.07 0-.2.05-.24.1-.04.04-.08.04-.1 0z"/></g><g><path fill="none" stroke="#000" stroke-width=".015" d="M28.73 20.72c.1 0 .14.08.22.07"/></g><g><path fill="none" stroke="#000" stroke-width=".015" d="M28.75 20c-.1-.12-.15-.3-.1-.54.04-.24.1-.6-.07-.76"/></g><g><path fill="none" stroke="#000" stroke-width=".015" d="M29.46 18.23c-.13.02-.3.02-.4-.05-.1-.07-.26-.07-.37-.02"/></g></g></g></g></svg>