<svg xmlns="http://www.w3.org/2000/svg" viewBox="0 0 45 45" enable-background="new 0 0 45 45"><defs><clipPath id="a"><path d="M0 36h36V0H0v36z"/></clipPath></defs><g><g><g clip-path="url(#a)" transform="matrix(1.25 0 0 -1.25 0 45)"><g><path fill="#b22334" d="M35.45 29c-.7 1.2-1.97 2-3.45 2H18v-2h17.45z"/></g><path fill="#b22334" d="M0 9h36v2H0V9z"/><path fill="#b22334" d="M18 17h18v2H18v-2z"/><path fill="#b22334" d="M18 21h18v2H18v-2z"/><path fill="#b22334" d="M0 13h36v2H0v-2z"/><g><path fill="#b22334" d="M4 5h28c1.48 0 2.75.8 3.44 2H.56C1.25 5.8 2.5 5 4 5"/></g><path fill="#b22334" d="M18 25h18v2H18v-2z"/><g><path fill="#eee" d="M.07 8.32c.02-.1.03-.18.06-.28.02-.1.06-.2.1-.3.08-.25.2-.5.32-.73h34.9c.13.24.24.5.33.75.03.1.07.2.1.3.02.1.03.18.05.27.04.22.07.45.07.68H0c0-.23.03-.46.07-.68"/></g><path fill="#eee" d="M0 11h36v2H0v-2z"/><g><path fill="#eee" d="M0 17v-2h36v2H0z"/></g><path fill="#eee" d="M18 19h18v2H18v-2z"/><path fill="#eee" d="M18 23h18v2H18v-2z"/><g><path fill="#eee" d="M0 27c0 .23.03.46.07.68C.03 27.46 0 27.23 0 27"/></g><g><path fill="#eee" d="M.55 29z"/></g><g><path fill="#eee" d="M.13 27.96c.02.1.06.2.1.3-.04-.1-.08-.2-.1-.3"/></g><g><path fill="#eee" d="M18 27h18c0 .23-.03.46-.07.68-.02.1-.03.18-.06.27-.02.1-.06.2-.1.3-.08.26-.2.5-.32.75H18v-2z"/></g><g><path fill="#3c3b6e" d="M18 31H4c-2.2 0-4-1.8-4-4V17h18v14z"/></g><g><path fill="#fff" d="M2 28.27l.62-.44-.24-.73.62.45.62-.45-.24.73.62.44h-.76L3 29l-.23-.73H2z"/></g><g><path fill="#fff" d="M4 26.27l.62-.44-.24-.73.62.45.62-.45-.24.73.62.44h-.76L5 27l-.23-.73H4z"/></g><g><path fill="#fff" d="M8 26.27l.62-.44-.24-.73.62.45.62-.45-.24.73.62.44h-.76L9 27l-.23-.73H8z"/></g><g><path fill="#fff" d="M12 26.27l.62-.44-.24-.73.62.45.62-.45-.24.73.62.44h-.76L13 27l-.23-.73H12z"/></g><g><path fill="#fff" d="M4 22.27l.62-.44-.24-.73.62.45.62-.45-.24.73.62.44h-.76L5 23l-.23-.73H4z"/></g><g><path fill="#fff" d="M8 22.27l.62-.44-.24-.73.62.45.62-.45-.24.73.62.44h-.76L9 23l-.23-.73H8z"/></g><g><path fill="#fff" d="M12 22.27l.62-.44-.24-.73.62.45.62-.45-.24.73.62.44h-.76L13 23l-.23-.73H12z"/></g><g><path fill="#fff" d="M6 28.27l.62-.44-.24-.73.62.45.62-.45-.24.73.62.44h-.76L7 29l-.23-.73H6z"/></g><g><path fill="#fff" d="M10 28.27l.62-.44-.24-.73.62.45.62-.45-.24.73.62.44h-.76L11 29l-.23-.73H10z"/></g><g><path fill="#fff" d="M14 28.27l.62-.44-.24-.73.62.45.62-.45-.24.73.62.44h-.76L15 29l-.23-.73H14z"/></g><g><path fill="#fff" d="M2 24.27l.62-.44-.24-.73.62.45.62-.45-.24.73.62.44h-.76L3 25l-.23-.73H2z"/></g><g><path fill="#fff" d="M6.38 23.1l.62.45.62-.45-.24.73.62.44h-.76L7 25l-.24-.73H6l.62-.44-.24-.73z"/></g><g><path fill="#fff" d="M10 24.27l.62-.44-.24-.73.62.45.62-.45-.24.73.62.44h-.76L11 25l-.23-.73H10z"/></g><g><path fill="#fff" d="M14 24.27l.62-.44-.24-.73.62.45.62-.45-.24.73.62.44h-.76L15 25l-.23-.73H14z"/></g><g><path fill="#fff" d="M2 20.27l.62-.44-.24-.73.62.45.62-.45-.24.73.62.44h-.76L3 21l-.23-.73H2z"/></g><g><path fill="#fff" d="M6.38 19.1l.62.45.62-.45-.24.73.62.44h-.76L7 21l-.24-.73H6l.62-.44-.24-.73z"/></g><g><path fill="#fff" d="M10 20.27l.62-.44-.24-.73.62.45.62-.45-.24.73.62.44h-.76L11 21l-.23-.73H10z"/></g><g><path fill="#fff" d="M14 20.27l.62-.44-.24-.73.62.45.62-.45-.24.73.62.44h-.76L15 21l-.23-.73H14z"/></g></g></g></g></svg>