<svg xmlns="http://www.w3.org/2000/svg" viewBox="0 0 45 45" enable-background="new 0 0 45 45"><defs><clipPath id="a"><path d="M0 36h36V0H0v36z"/></clipPath></defs><g><g><g clip-path="url(#a)" transform="matrix(1.25 0 0 -1.25 0 45)"><g><path fill="#29ae66" d="M36 9c0-2.2-1.8-4-4-4H4C1.8 5 0 6.8 0 9v18c0 2.2 1.8 4 4 4h28c2.2 0 4-1.8 4-4V9z"/></g><path fill="#ca3745" d="M11 5H4v26h7V5z"/><g><path fill="#faae29" d="M4 27.7l.8-.82-.2-.22.3-.32.22.2.66-.65-.66-.67-.27.28-.3-.28.26-.24-.8-.7v.36l.44.42-.24.2.6.6.36-.3.33.32-.36.35L4.9 26l-.65.63.24.24-.5.44v.4z"/></g><g><path fill="#faae29" d="M4 23.06l.8-.8-.2-.22.3-.32.22.2.66-.65-.66-.66-.27.28-.3-.3.26-.23-.8-.7V20l.44.4-.24.2.6.6.36-.3.33.34-.36.35-.25-.24-.65.64.24.24-.5.45v.36z"/></g><g><path fill="#faae29" d="M4 18.34l.8-.8-.2-.22.3-.32.22.2.66-.65-.66-.66-.27.26-.3-.3.26-.23-.8-.7v.37l.44.4-.24.2.6.6.36-.3.33.34-.36.35-.25-.26-.65.64.24.24-.5.45v.37z"/></g><g><path fill="#faae29" d="M4 13.7l.8-.82-.2-.22.3-.32.22.2.66-.65-.66-.67-.27.28-.3-.28.26-.24-.8-.7v.36l.44.42-.24.2.6.6.36-.3.33.32-.36.35L4.9 12l-.65.63.24.24-.5.44v.4z"/></g><g><path fill="#faae29" d="M11 27.7l-.8-.82.2-.22-.3-.32-.22.2-.66-.65.65-.67.28.28.3-.28-.26-.24.8-.7v.36l-.44.42.24.2-.6.6-.36-.3-.33.32.36.35.25-.24.65.63-.24.24.5.44v.4z"/></g><g><path fill="#faae29" d="M4.56 30.3l.3.3.26-.27.66.65V31h-.32l.03-.03-.34-.32-.35.3-.6-.6.24-.2-.44-.42v-.37l.8.7-.24.25z"/></g><g><path fill="#faae29" d="M10.8 30.34l-.6.6-.36-.3-.33.33.03.03h-.3v-.02l.64-.65.28.27.3-.3-.26-.23.8-.7v.36l-.44.42.24.2z"/></g><g><path fill="#faae29" d="M11 23.06l-.8-.8.2-.22-.3-.32-.22.2-.66-.65.65-.66.28.28.3-.3-.26-.23.8-.7V20l-.44.4.24.2-.6.6-.36-.3-.33.34.36.35.25-.24.65.64-.24.24.5.45v.36z"/></g><g><path fill="#faae29" d="M11 18.34l-.8-.8.2-.22-.3-.32-.22.2-.66-.65.65-.66.28.26.3-.3-.26-.23.8-.7v.37l-.44.4.24.2-.6.6-.36-.3-.33.34.36.35.25-.26.65.64-.24.24.5.45v.37z"/></g><g><path fill="#faae29" d="M11 13.7l-.8-.82.2-.22-.3-.32-.22.2-.66-.65.65-.67.28.28.3-.28-.26-.24.8-.7v.36l-.44.42.24.2-.6.6-.36-.3-.33.32.36.35.25-.24.65.63-.24.24.5.44v.4z"/></g><g><path fill="#29ae66" d="M10.02 29.06v.4l-.58.35H9l-.7.38H6.7L6 29.8h-.44l-.58-.34v-.4l-.54-.33v-.92l.54-.32v-.4l.58-.35H6l.7-.37h1.6l.7.37h.44l.58.35v.4l.54.33V28.74l-.54.33z"/></g><g><path fill="#faae29" d="M4.93 28.27v.4l.46.28v.33l.5.3h.36l.6.32h.68v-1.63h-2.6z"/></g><g><path fill="#fff" d="M4.9 28.27v-.4l.45-.28v-.34l.5-.3h.37l.6-.32h.68v1.63H4.9z"/></g><g><path fill="#fff" d="M10.1 28.27v.4l-.45.28v.33l-.5.3h-.37l-.6.32H7.5v-1.63h2.6z"/></g><g><path fill="#faae29" d="M10.1 28.27v-.4l-.45-.28v-.34l-.5-.3h-.37l-.6-.32H7.5v1.63h2.6z"/></g><path fill="#faae29" d="M5.6 23.7h-.67v.74h.67v-.73z"/><path fill="#faae29" d="M6.28 23.8H5.6v.74h.68v-.73z"/><path fill="#faae29" d="M6.96 24.07h-.68v.73h.68v-.73z"/><path fill="#faae29" d="M9.42 23.7h.67v.74H9.4v-.73z"/><path fill="#faae29" d="M8.74 23.8h.68v.74h-.68v-.73z"/><path fill="#faae29" d="M8.06 24.07h.68v.73h-.68v-.73z"/><path fill="#faae29" d="M8.06 24.27h-1.1v.9h1.1v-.9z"/><path fill="#faae29" d="M5.6 23.52h-.67v-.73h.67v.72z"/><path fill="#faae29" d="M6.28 23.4H5.6v-.72h.68v.73z"/><path fill="#faae29" d="M6.96 23.15h-.68v-.73h.68v.73z"/><path fill="#faae29" d="M9.42 23.52h.67v-.73H9.4v.72z"/><path fill="#faae29" d="M8.74 23.4h.68v-.72h-.68v.73z"/><path fill="#faae29" d="M8.06 23.15h.68v-.73h-.68v.73z"/><path fill="#faae29" d="M8.06 22.96h-1.1v-.9h1.1v.9z"/><g><path fill="#fff" d="M8.55 11.4H6.5l-1.46-.94V9.14L6.5 8.2h2.05l1.46.94v1.32l-1.45.93z"/></g><g><path fill="#29ae66" d="M9.12 18.42l-.94-.66H6.86l-.94.66v.93l.94.66h1.32l.94-.65v-.93zm-.74 1.93H6.66l-1.22-.86v-1.22l1.22-.86h1.72l1.22.86v1.2l-1.22.87z"/></g><g><path fill="#29ae66" d="M9.65 9.24l-1.25-.8H6.64l-1.25.8v1.13l1.24.8H8.4l1.25-.8V9.24zM8.6 11.46H6.44l-1.52-.97V9.1l1.52-.97H8.6l1.5.97v1.37l-1.5.96z"/></g><path fill="#29ae66" d="M9.08 13.2H5.96v2.07h3.12V13.2zm.67 1.36V15H9.3v.5H5.73V15h-.5v-.44H4.8v-.64h.42v-.48h.5v-.52h3.6v.52h.43v.48h.52v.64h-.52z"/><g><path fill="#29ae66" d="M7.5 15.75l-1.9-1.13v-.72l1.9-1.23 1.92 1.18v.78L7.5 15.75z"/></g><g><path fill="#ca3745" d="M6.65 10.23l.85.5.85-.5v-.98l-.85-.48-.85.48v.98z"/></g><g><path fill="#faae29" d="M8.35 5.92l-.25-.17s-.2.4-.77.44c-.56.03-.87-.2-1.35-.23-.48-.03-1.96 1.1-1.2 2.8.7-.5.34-1.1.66-1.4.3-.3.64-.5.77-.83.14-.34.73-.06 1.13-.12.63-.1 1.02-.5 1.02-.5"/></g><g><path fill="#faae29" d="M6.65 5.92l.25-.17s.2.4.77.44c.56.03.87-.2 1.35-.23.48-.03 1.96 1.1 1.2 2.8-.7-.5-.34-1.1-.66-1.4-.3-.3-.64-.5-.77-.83-.14-.34-.73-.06-1.13-.12-.63-.1-1.02-.5-1.02-.5"/></g><g><path fill="#fff" d="M18.18 27.7c.65-.55 1.07-1.38 1.07-2.3 0-1.7-1.38-3.08-3.08-3.08-.58 0-1.12.17-1.6.45.58-.62 1.4-1.02 2.3-1.02 1.73 0 3.13 1.4 3.13 3.13 0 1.26-.75 2.34-1.82 2.83"/></g><g><path fill="#fff" d="M15.85 28.13l-.25-.48.38-.38-.53.08-.25-.48-.08.53-.54.1.48.23-.08.54.38-.38.5.23z"/></g><g><path fill="#fff" d="M17.38 27.2l-.25-.48.38-.38-.52.08-.25-.48-.08.54-.54.08.5.25-.1.54.4-.38.48.25z"/></g><g><path fill="#fff" d="M15.85 26.54l-.25-.48.38-.4-.53.1-.25-.5-.08.55-.54.1.48.24-.08.54.38-.4.5.26z"/></g><g><path fill="#fff" d="M14.25 25.73l-.24-.48.4-.4-.55.1-.24-.48-.08.53-.53.1.47.23-.08.54.37-.4.48.26z"/></g><g><path fill="#fff" d="M15.85 24.83l-.25-.48.38-.4-.53.1-.25-.5-.08.55-.54.08.48.25-.08.54.38-.4.5.26z"/></g><path fill="#ca3745" d="M7.06 15.23h.92v-.61h-.92v.6z"/><path fill="#ca3745" d="M7.06 13.83h.92v-.62h-.92v.63z"/><path fill="#faae29" d="M5.6 14.52h1.26v-.62H5.6v.62z"/><path fill="#faae29" d="M8.2 14.52H9.4v-.62H8.2v.62z"/></g></g></g></svg>