<svg xmlns="http://www.w3.org/2000/svg" viewBox="0 0 45 45" enable-background="new 0 0 45 45"><defs><clipPath id="a"><path d="M0 36h36V0H0v36z"/></clipPath><clipPath id="b"><path d="M4 31c-2.2 0-4-1.8-4-4V9c0-2.2 1.8-4 4-4h28c2.2 0 4 1.8 4 4v18c0 2.2-1.8 4-4 4H4z"/></clipPath><clipPath id="c"><path d="M0 14h10v8H0v-8z"/></clipPath><clipPath id="d"><path d="M4 31c-2.2 0-4-1.8-4-4V9c0-2.2 1.8-4 4-4h28c2.2 0 4 1.8 4 4v18c0 2.2-1.8 4-4 4H4z"/></clipPath></defs><g><g><g clip-path="url(#a)" transform="matrix(1.25 0 0 -1.25 0 45)"><g><path fill="#0092c8" d="M36 9c0-2.2-1.8-4-4-4H4C1.8 5 0 6.8 0 9v18c0 2.2 1.8 4 4 4h28c2.2 0 4-1.8 4-4V9z"/></g></g></g><g><g clip-path="url(#b)" transform="matrix(1.25 0 0 -1.25 0 45)"><path fill="#ca0000" d="M10 4H0v28h10V4z"/><path fill="#dc241f" d="M10 21H0v11h10V21z"/><g><path fill="#009543" d="M0 22.5l10 9v-2l-10-9v2z"/></g><g><path fill="#009543" d="M0 29.5l10-9v2l-10 9v-2z"/></g><path fill="#eee" d="M6 22H4v10h2V22z"/><path fill="#eee" d="M10 25H0v2.02h10V25z"/><path fill="#eee" d="M10 14H0v8h10v-8z"/></g></g><g><g clip-path="url(#c)" transform="matrix(1.25 0 0 -1.25 0 45)"><g><path fill="#292f33" d="M2.08 18.68c.06-.1 0-.17-.12-.17h-.58c-.13 0-.18.1-.1.18l.28.44c.06.1.16.1.23 0l.28-.44z"/></g><g><path fill="#292f33" d="M1.8 18.98c0-.4-.05-.73-.13-.73-.07 0-.13.33-.13.73 0 .4.06.74.13.74.08 0 .14-.33.14-.74"/></g><g><path fill="#292f33" d="M1.8 20.15c0-.24-.05-.2-.13-.2-.07 0-.13-.04-.13.2 0 .24.06.43.13.43.08 0 .14-.2.14-.43"/></g><g><path fill="#292f33" d="M2 19.67c-.24 0-.22.06-.22.13 0 .08-.02.14.22.14.23 0 .43-.06.43-.14 0-.07-.2-.13-.43-.13"/></g><g><path fill="#292f33" d="M1.35 19.67c.23 0 .2.06.2.13 0 .08.03.14-.2.14-.24 0-.43-.06-.43-.14 0-.07.2-.13.43-.13"/></g><g><path fill="#292f33" d="M5.22 18.68c.06-.1 0-.17-.1-.17h-.6c-.12 0-.17.1-.1.18l.28.44c.06.1.17.1.23 0l.3-.44z"/></g><g><path fill="#292f33" d="M4.95 18.98c0-.4-.06-.73-.13-.73-.08 0-.14.33-.14.73 0 .4.06.74.14.74.07 0 .13-.33.13-.74"/></g><g><path fill="#292f33" d="M4.95 20.15c0-.24-.06-.2-.13-.2-.08 0-.14-.04-.14.2 0 .24.06.43.14.43.07 0 .13-.2.13-.43"/></g><g><path fill="#292f33" d="M5.14 19.67c-.23 0-.2.06-.2.13 0 .08-.03.14.2.14.24 0 .43-.06.43-.14 0-.07-.2-.13-.43-.13"/></g><g><path fill="#292f33" d="M4.5 19.67c.23 0 .2.06.2.13 0 .08.03.14-.2.14-.25 0-.44-.06-.44-.14 0-.07.2-.13.43-.13"/></g><g><path fill="#292f33" d="M8.44 18.68c.06-.1 0-.17-.1-.17h-.6c-.12 0-.17.1-.1.18l.28.44c.06.1.17.1.23 0l.3-.44z"/></g><g><path fill="#292f33" d="M8.17 18.98c0-.4-.06-.73-.14-.73-.07 0-.13.33-.13.73 0 .4.06.74.13.74.08 0 .14-.33.14-.74"/></g><g><path fill="#292f33" d="M8.17 20.15c0-.24-.06-.2-.14-.2-.07 0-.13-.04-.13.2 0 .24.06.43.13.43.08 0 .14-.2.14-.43"/></g><g><path fill="#292f33" d="M8.36 19.67c-.24 0-.2.06-.2.13 0 .08-.04.14.2.14.24 0 .43-.06.43-.14 0-.07-.2-.13-.44-.13"/></g><g><path fill="#292f33" d="M7.7 19.67c.25 0 .22.06.22.13 0 .08.03.14-.2.14-.25 0-.44-.06-.44-.14 0-.07.2-.13.43-.13"/></g><g><path fill="#292f33" d="M10.02 21.3c.06-.1 0-.17-.12-.17h-.58c-.13 0-.18.08-.12.17l.3.44c.06.1.16.1.22 0l.3-.44z"/></g><g><path fill="#292f33" d="M9.74 21.6c0-.4-.06-.73-.13-.73-.06 0-.12.33-.12.74 0 .4.06.74.13.74.08 0 .14-.33.14-.73"/></g><g><path fill="#292f33" d="M9.74 22.77c0-.24-.06-.2-.13-.2-.06 0-.12-.04-.12.2 0 .24.06.43.13.43.08 0 .14-.2.14-.43"/></g><g><path fill="#292f33" d="M9.94 22.3c-.24 0-.22.05-.22.12 0 .08-.02.14.22.14.23 0 .42-.06.42-.14 0-.07-.2-.13-.42-.13"/></g><g><path fill="#292f33" d="M9.28 22.3c.24 0 .22.05.22.12 0 .08.02.14-.22.14-.23 0-.42-.06-.42-.14 0-.07.2-.13.42-.13"/></g><g><path fill="#292f33" d="M6.8 21.3c.06-.1 0-.17-.12-.17H6.1c-.13 0-.18.08-.1.17l.28.44c.06.1.16.1.23 0l.3-.44z"/></g><g><path fill="#292f33" d="M6.52 21.6c0-.4-.06-.73-.13-.73-.08 0-.14.33-.14.74 0 .4.06.74.13.74.06 0 .12-.33.12-.73"/></g><g><path fill="#292f33" d="M6.52 22.77c0-.24-.06-.2-.13-.2-.08 0-.14-.04-.14.2 0 .24.06.43.13.43.06 0 .12-.2.12-.43"/></g><g><path fill="#292f33" d="M6.72 22.3c-.24 0-.22.05-.22.12 0 .08-.02.14.22.14.23 0 .43-.06.43-.14 0-.07-.2-.13-.43-.13"/></g><g><path fill="#292f33" d="M6.06 22.3c.24 0 .22.05.22.12 0 .08.02.14-.22.14-.23 0-.42-.06-.42-.14 0-.07.2-.13.42-.13"/></g><g><path fill="#292f33" d="M3.66 21.3c.06-.1 0-.17-.12-.17h-.58c-.13 0-.18.08-.12.17l.3.44c.06.1.16.1.22 0l.3-.44z"/></g><g><path fill="#292f33" d="M3.38 21.6c0-.4-.06-.73-.13-.73s-.13.33-.13.74c0 .4.06.74.13.74s.13-.33.13-.73"/></g><g><path fill="#292f33" d="M3.38 22.77c0-.24-.06-.2-.13-.2s-.13-.04-.13.2c0 .24.06.43.13.43s.13-.2.13-.43"/></g><g><path fill="#292f33" d="M3.58 22.3c-.24 0-.22.05-.22.12 0 .08-.02.14.22.14.23 0 .42-.06.42-.14 0-.07-.2-.13-.42-.13"/></g><g><path fill="#292f33" d="M2.92 22.3c.24 0 .22.05.22.12 0 .08.02.14-.22.14-.23 0-.42-.06-.42-.14 0-.07.2-.13.42-.13"/></g><g><path fill="#292f33" d="M.63 21.3c.06-.1 0-.17-.12-.17h-.57c-.13 0-.18.08-.12.17l.3.44c.07.1.17.1.23 0l.3-.44z"/></g><g><path fill="#292f33" d="M.35 21.6c0-.4-.06-.73-.13-.73s-.13.33-.13.74c0 .4.05.74.12.74.07 0 .13-.33.13-.73"/></g><g><path fill="#292f33" d="M.35 22.77c0-.24-.06-.2-.13-.2s-.13-.04-.13.2c0 .24.05.43.12.43.07 0 .13-.2.13-.43"/></g><g><path fill="#292f33" d="M.55 22.3c-.24 0-.22.05-.22.12 0 .08-.02.14.22.14.23 0 .42-.06.42-.14 0-.07-.2-.13-.42-.13"/></g><g><path fill="#292f33" d="M-.1 22.3c.23 0 .2.05.2.12 0 .08.03.14-.2.14-.24 0-.43-.06-.43-.14 0-.07.2-.13.42-.13"/></g><g><path fill="#292f33" d="M.63 16.1c.06-.1 0-.17-.12-.17h-.57c-.13 0-.18.08-.12.17l.3.44c.07.1.17.1.23 0l.3-.44z"/></g><g><path fill="#292f33" d="M.35 16.4c0-.4-.06-.73-.13-.73S.1 16 .1 16.4c0 .4.05.74.12.74.07 0 .13-.33.13-.73"/></g><g><path fill="#292f33" d="M.35 17.57c0-.24-.06-.2-.13-.2s-.13-.04-.13.2c0 .24.05.43.12.43.07 0 .13-.2.13-.43"/></g><g><path fill="#292f33" d="M.55 17.1c-.24 0-.22.05-.22.12 0 .08-.02.14.22.14.23 0 .42-.06.42-.14 0-.07-.2-.13-.42-.13"/></g><g><path fill="#292f33" d="M-.1 17.1c.23 0 .2.05.2.12 0 .08.03.14-.2.14-.24 0-.43-.06-.43-.14 0-.07.2-.13.42-.13"/></g><g><path fill="#292f33" d="M3.67 16.1c.06-.1 0-.17-.1-.17h-.6c-.12 0-.17.08-.1.17l.28.44c.06.1.17.1.23 0l.3-.44z"/></g><g><path fill="#292f33" d="M3.4 16.4c0-.4-.06-.73-.13-.73-.08 0-.14.33-.14.74 0 .4.06.74.14.74.07 0 .13-.33.13-.73"/></g><g><path fill="#292f33" d="M3.4 17.57c0-.24-.06-.2-.13-.2-.08 0-.14-.04-.14.2 0 .24.06.43.14.43.07 0 .13-.2.13-.43"/></g><g><path fill="#292f33" d="M3.6 17.1c-.24 0-.22.05-.22.12 0 .08-.02.14.2.14.25 0 .44-.06.44-.14 0-.07-.2-.13-.43-.13"/></g><g><path fill="#292f33" d="M2.94 17.1c.24 0 .2.05.2.12 0 .08.04.14-.2.14-.24 0-.43-.06-.43-.14 0-.07.2-.13.44-.13"/></g><g><path fill="#292f33" d="M6.83 16.1c.06-.1 0-.17-.12-.17h-.57c-.13 0-.18.08-.1.17l.28.44c.07.1.17.1.24 0l.3-.44z"/></g><g><path fill="#292f33" d="M6.56 16.4c0-.4-.06-.73-.14-.73-.07 0-.13.33-.13.74 0 .4.05.74.12.74.08 0 .14-.33.14-.73"/></g><g><path fill="#292f33" d="M6.56 17.57c0-.24-.06-.2-.14-.2-.07 0-.13-.04-.13.2 0 .24.05.43.12.43.08 0 .14-.2.14-.43"/></g><g><path fill="#292f33" d="M6.75 17.1c-.24 0-.22.05-.22.12 0 .08-.02.14.22.14.23 0 .43-.06.43-.14 0-.07-.2-.13-.43-.13"/></g><g><path fill="#292f33" d="M6.1 17.1c.23 0 .2.05.2.12 0 .08.03.14-.2.14-.24 0-.43-.06-.43-.14 0-.07.2-.13.43-.13"/></g><g><path fill="#292f33" d="M10.07 16.1c.06-.1 0-.17-.12-.17h-.58c-.13 0-.18.08-.1.17l.28.44c.06.1.16.1.23 0l.3-.44z"/></g><g><path fill="#292f33" d="M9.8 16.4c0-.4-.06-.73-.14-.73-.07 0-.13.33-.13.74 0 .4.06.74.13.74.08 0 .14-.33.14-.73"/></g><g><path fill="#292f33" d="M9.8 17.57c0-.24-.06-.2-.14-.2-.07 0-.13-.04-.13.2 0 .24.06.43.13.43.08 0 .14-.2.14-.43"/></g><g><path fill="#292f33" d="M10 17.1c-.25 0-.23.05-.23.12 0 .08-.02.14.22.14.22 0 .42-.06.42-.14 0-.07-.2-.13-.43-.13"/></g><g><path fill="#292f33" d="M9.34 17.1c.23 0 .2.05.2.12 0 .08.03.14-.2.14-.24 0-.43-.06-.43-.14 0-.07.2-.13.44-.13"/></g><g><path fill="#292f33" d="M8.46 13.43c.06-.1 0-.17-.12-.17h-.58c-.12 0-.18.08-.1.17l.28.44c.06.1.17.1.23 0l.3-.44z"/></g><g><path fill="#292f33" d="M8.2 13.73c0-.4-.07-.73-.15-.73-.07 0-.13.33-.13.73 0 .4.06.74.13.74.08 0 .14-.33.14-.74"/></g><g><path fill="#292f33" d="M8.2 14.9c0-.24-.07-.2-.15-.2-.07 0-.13-.04-.13.2 0 .24.06.43.13.43.08 0 .14-.2.14-.43"/></g><g><path fill="#292f33" d="M8.38 14.42c-.24 0-.2.06-.2.13 0 .08-.04.14.2.14.24 0 .43-.07.43-.15 0-.07-.18-.13-.42-.13"/></g><g><path fill="#292f33" d="M7.73 14.42c.23 0 .2.06.2.13 0 .08.03.14-.2.14-.24 0-.43-.07-.43-.15 0-.07.2-.13.43-.13"/></g><g><path fill="#292f33" d="M5.26 13.43c.06-.1 0-.17-.12-.17h-.58c-.13 0-.18.08-.12.17l.3.44c.06.1.16.1.22 0l.3-.44z"/></g><g><path fill="#292f33" d="M4.98 13.73c0-.4-.06-.73-.13-.73s-.13.33-.13.73c0 .4.06.74.13.74s.13-.33.13-.74"/></g><g><path fill="#292f33" d="M4.98 14.9c0-.24-.06-.2-.13-.2s-.13-.04-.13.2c0 .24.06.43.13.43s.13-.2.13-.43"/></g><g><path fill="#292f33" d="M5.18 14.42c-.24 0-.22.06-.22.13 0 .08-.02.14.22.14.23 0 .42-.07.42-.15 0-.07-.2-.13-.42-.13"/></g><g><path fill="#292f33" d="M4.52 14.42c.24 0 .22.06.22.13 0 .08.02.14-.22.14-.23 0-.42-.07-.42-.15 0-.07.2-.13.42-.13"/></g><g><path fill="#292f33" d="M2.04 13.43c.06-.1 0-.17-.12-.17h-.58c-.12 0-.17.08-.1.17l.28.44c.06.1.17.1.23 0l.3-.44z"/></g><g><path fill="#292f33" d="M1.77 13.73c0-.4-.06-.73-.14-.73-.07 0-.13.33-.13.73 0 .4.06.74.13.74.08 0 .14-.33.14-.74"/></g><g><path fill="#292f33" d="M1.77 14.9c0-.24-.06-.2-.14-.2-.07 0-.13-.04-.13.2 0 .24.06.43.13.43.08 0 .14-.2.14-.43"/></g><g><path fill="#292f33" d="M1.96 14.42c-.24 0-.2.06-.2.13 0 .08-.04.14.2.14.24 0 .43-.07.43-.15 0-.07-.2-.13-.44-.13"/></g><g><path fill="#292f33" d="M1.3 14.42c.25 0 .22.06.22.13 0 .08.03.14-.2.14-.25 0-.44-.07-.44-.15 0-.07.2-.13.43-.13"/></g></g></g><g><g clip-path="url(#d)" transform="matrix(1.25 0 0 -1.25 0 45)"><g><path fill="#ffcc4d" d="M1.53 12.13c-.17.15-.45.06-.45.56s.1.46.47.46c.4 0 .83.03.83-.52s.4-.36.4-.36 0 .7.77.7c.87 0 .93-.76.93-.76s.38-.15.7-.1c.46.04 1.18.27 1.68-.3.5-.57.87-.62 1.28-.46.4.16 1-.67.3-.95-.67-.28-.94.22-.83.43.12.2-.8-.24-1.12 0 .08-.36-.07-.63-.42-.63-.34 0-.8-.1-1.03.16-.12.13-.2.4-.06.5-.5.03-.92-.1-.92-.1S4 10.2 3.1 10.2c-.9 0-1.55-.17-1.55.44 0 .6.32.55.76.45.3-.07.5-.02.5-.02s-.02.2-.07.3c-1.03-.13-1.2.74-1.2.74"/></g><g><path fill="#ffcc4d" d="M5.73 11.88c0 .67 1.16.85 1.8.68.6-.17.85-.36.85-.36s-.52-.37-1.04-.33c-.5.05-1.2.45-1.2.07 0-.4-.4-.72-.4-.06"/></g><g><path d="M3.66 11.75c0-.16-.13-.3-.3-.3-.15 0-.28.14-.28.3 0 .16.13.3.3.3.15 0 .28-.14.28-.3"/></g><g><path d="M3.37 12.3c0-.07-.1-.13-.23-.13-.12 0-.22.06-.22.13 0 .08.1.14.22.14.13 0 .23-.06.23-.14"/></g><g><path d="M3.88 12.3c0-.07-.1-.13-.22-.13-.13 0-.23.06-.23.13 0 .08.1.14.23.14.12 0 .22-.06.22-.14"/></g><g><path fill="#ffcc4d" d="M1.53 8.6c-.17.17-.45.07-.45.57 0 .5.1.48.47.48.4 0 .83.03.83-.52s.4-.36.4-.36 0 .7.77.7c.87 0 .93-.77.93-.77s.38-.15.7-.1c.46.05 1.18.28 1.68-.3.5-.57.87-.6 1.28-.46.4.16 1-.67.3-.95-.67-.3-.94.2-.83.4.12.22-.8-.22-1.12 0 .08-.35-.07-.6-.42-.6-.34 0-.8-.12-1.03.14-.12.13-.2.4-.06.5-.5.04-.92-.1-.92-.1S4 6.7 3.1 6.7c-.9 0-1.55-.18-1.55.43 0 .6.32.55.76.45.3-.07.5-.02.5-.02s-.02.2-.07.3c-1.03-.13-1.2.75-1.2.75"/></g><g><path fill="#ffcc4d" d="M5.73 8.37c0 .66 1.16.85 1.8.68.6-.17.85-.36.85-.36s-.52-.4-1.04-.34c-.5.05-1.2.45-1.2.06 0-.38-.4-.7-.4-.05"/></g><g><path d="M3.66 8.23c0-.16-.13-.3-.3-.3-.15 0-.28.14-.28.3 0 .17.13.3.3.3.15 0 .28-.13.28-.3"/></g><g><path d="M3.37 8.8c0-.08-.1-.14-.23-.14-.12 0-.22.06-.22.13 0 .06.1.12.22.12.13 0 .23-.06.23-.13"/></g><g><path d="M3.88 8.8c0-.08-.1-.14-.22-.14-.13 0-.23.06-.23.13 0 .06.1.12.23.12.12 0 .22-.06.22-.13"/></g><g><path fill="#ffcc4d" d="M23.25 14.84c-1 0-1.82.14-2.5.34l.5 1.78c.1-.02.2-.02.3-.05 1.6-.43 3.3-1.95 3.3-1.96-.48-.06-1-.1-1.6-.1m10.5 7.44c-1.2.4-2.53.47-2.53.47l-.88-1.72s2.6-.05 2.6-.2c0-.12-.6-1.1-.96-1.7-.2.06-.42.1-.7.1-1.12 0-1.56-.26-2.03-.95-.47-.7 0-.97 0-.97s-.58-1.27-2.75-2l.7 2.47c.82.14 1.52-.27 1.52-.27s-.53 1.56.12 3.9c.66 2.35 3.1 4.1 3.1 4.1l-2.73-.8.7 2.4s.35.74 0 .96c-.22.14-.33-.16-.4-.4-.23.08-.65.14-1.1-.07-.68-.32-2.27.13-2.27.13s.62-.7 1.1-.82c-.5-.24-1.48-.15-1.48-.15s1.2-.7 1.98-.44c.53.18 1.12.2 1.46.18-.16-.5-.37-1.18-.6-1.97l-2.47-.72s-1.13-.9-1.5-3.56c-.38-2.66.96-4.63.96-4.63s-.15 1.28.93 1.9c-.3-.97-.54-1.8-.7-2.38-.3-.07-.62-.13-.97-.18 0 .02-1.3 2.9-1.08 5.34.22 2.44 2.35 4.93 2.35 4.93l-2.8-1 1 3.4s.6.4.08.65-.42-.55-.42-.55c-.25.05-.6.06-.97-.1-.68-.32-2.27.13-2.27.13s.62-.7 1.1-.82c-.5-.24-1.48-.15-1.48-.15s1.2-.7 2-.44c.5.17.96.2 1.23.2l-.83-2.52-2.53-.92s-.44-.62-1.34-2.44c-.9-1.8.37-4.4.37-4.4s.38.57 1.18.74l-.5-1.47c-2 .9-2.43 2.5-2.43 2.5s.34.06.34.44c0 .36-.15.54-1.2.56l.26.9c.46-.27.8-.68.8-.68s-.45 1.62.46 3.25c.9 1.62 3.03 3.03 3.12 3.03.05 0-1.55-.46-3.05-.88l.62 2.24s.46.67-.04.83c-.5.14-.4-.72-.4-.72-.24.03-.54.02-.86-.12-.7-.32-2.28.13-2.28.13s.63-.7 1.1-.83c-.5-.25-1.47-.16-1.47-.16s1.17-.68 1.97-.43c.46.15.9.18 1.17.2l-.37-1.3c-1.08-.3-1.98-.56-1.98-.56s-.42-.62-.9-2.12c-.46-1.5.36-2.72.36-2.72s.25 1.06 1.03 1.06c.06 0 .13 0 .2-.02l-.3-1.12c-.76-.05-.88-.25-.88-.57 0-.37.4-.4.4-.4s-.1-.66.16-1.47c.25-.8-.3-.66-1.25-.2-.06.04-.12.06-.18.08v.02L12 17.47s-.5.72-.75.22.56-.63.56-.63l1.36-.68c-.26-.14-.4-.36-.25-.6.32-.5 1 0 2.4-1.36.92-.9 3.92-4.2 8.4-4.2h5.05c3.94 0 3.34 3.38 1.38 4.17 1.5 1.35 1.6 2.9 1.6 2.9s.4 0 .74.7c.17.34.16.65-.04.87.47.93 1.65 3.2 1.95 3.72.37.65 0 .96-.63-.32"/></g><g><path d="M10 13.06s.56-1.03 1.16-.62c.6.4 1.22 1.18 2.4.26 1.2-.92 1.63-.35 2 .04.38.38.97.4 1.72-.07.75-.48 1.3-.36 1.72 0 .4.36 1.2.58 2.03 0 .85-.58 1.25-.7 1.53-.17.28.53 1 .9 2 .28s1.25-.58 1.57-.13c.3.44 1.12.88 1.93.3.82-.6 1.7-.67 1.85-.04.16.63.7.72 1.48.16.78-.56 1.5-.8 1.65-.26.16.54.88.73 1.66.17.77-.56 1.3-.3 1.3-.3v-7H10v7.4z"/></g><g><path fill="#bbddf5" d="M10 12.4s.56-1.02 1.16-.62c.6.4 1.22 1.2 2.4.27 1.2-.92 1.63-.35 2 .03.38.4.97.42 1.72-.07.75-.47 1.3-.35 1.72 0 .4.38 1.2.6 2.03 0 .85-.56 1.25-.7 1.53-.16.28.54 1 .9 2 .3 1-.64 1.25-.6 1.57-.15.3.44 1.12.88 1.93.28.82-.6 1.7-.65 1.85-.03.16.63.7.72 1.48.16.78-.56 1.5-.8 1.65-.26.16.55.88.74 1.66.17.77-.55 1.3-.3 1.3-.3V5H10v7.4z"/></g><g><path fill="#0091c8" d="M10 11.78s.56-1.03 1.16-.62c.6.4 1.22 1.18 2.4.26 1.2-.92 1.63-.35 2 .04.38.38.97.4 1.72-.07.75-.5 1.3-.37 1.72 0 .4.35 1.2.57 2.03 0 .85-.6 1.25-.7 1.53-.18.28.53 1 .9 2 .28s1.25-.58 1.57-.13c.3.44 1.12.88 1.93.3.82-.6 1.7-.67 1.85-.04.16.62.7.7 1.48.15.78-.56 1.5-.8 1.65-.26.16.54.88.73 1.66.17.77-.57 1.3-.32 1.3-.32V5H10v6.78z"/></g><g><path fill="#bbddf5" d="M12.16 10.03c.53.6 1.34.53 1.97 0 .62-.53.9-.13 1.5.22.6.34 1.43.37 1.62-.13.2-.5-.78.18-1.37-.35-.6-.52-1.56-.68-2.25 0-.7.68-1.94-.27-1.47.26"/></g><g><path fill="#bbddf5" d="M19.13 9.9c.57-.18 1.34-.24 2.03.2.68.43 1.18.23 1.93-.37.74-.6 1.3-.4 2 0 .68.4 1.24.9 2.2.46.98-.45 1.45-.5 1.82-.35.38.15 0-.5-.93-.35-.95.16-1.6.75-2.45.2-.84-.57-1.94-1.1-2.8-.35-.9.74-1.36.64-1.9.32-.52-.33-1.1-.36-1.43-.2-.3.16-.96.6-.5.44"/></g><g><path fill="#bbddf5" d="M31.16 9.9c.36-.2.75-.26 1.12 0 .38.3.75.06 1.22-.2s.56-.56 0-.38c-.56.18-.78.58-1.22.33-.44-.24-.9-.3-1.12 0-.22.32-.27.43 0 .26"/></g><g><path fill="#bbddf5" d="M15.06 8.44c.52.27 1.35.65 1.94 0 .6-.66.88-.3 1.34 0 .47.3.88.68 1.6.22.72-.47 1.06-.34 1.34-.2.28.16.53.07 0-.24-.53-.3-1.06-.28-1.47.03-.4.3-.74.47-1.27-.06-.53-.54-1.22-.7-1.72-.2-.5.5-.64.54-1.14.3-.5-.27-1.1-.14-.6.14"/></g><g><path fill="#bbddf5" d="M24.63 8.3c.62.32 1.46.9 2.15.23.7-.65 1.1-.35 1.66.03.56.38 1.1.92 1.9.28.82-.65 1.35-.6 1.75-.4.4.2.2-.17-.3-.3-.5-.1-1.18-.1-1.64.3-.47.4-.9.38-1.4-.15-.5-.55-1.76-.7-2.23-.22s-1.06.2-1.5 0c-.44-.17-1.03-.13-.4.2"/></g><g><path fill="#bbddf5" d="M11.5 7.8c.37.33.88.2 1.5-.42.63-.63.9-.5 1.47-.2.56.32 1.3.38 1.62.04.3-.35.18-.45-.2-.3-.37.17-.73.27-1.24-.17-.5-.44-1.4-.53-1.85 0-.42.53-.67.84-1.02.72-.34-.13-.78-.14-.28.32"/></g><g><path fill="#bbddf5" d="M20.16 7.18c.36.4 1.1.7 1.8 0 .73-.7.85-.62 1.42-.24.56.37 1.2.8 1.9.17s.97-.5 1.56-.16c.6.34 1.13.65 1.8.17.64-.48 1.14-.6 1.7-.26.57.35.7.2.16-.25-.44-.37-1.23-.5-1.78.02-.7.67-1.13.47-1.7.07-.55-.42-1.43-.5-1.93.02-.5.53-.85.37-1.32 0-.47-.38-1.27-.76-1.84.03-.57.8-1.13.44-1.4.28-.3-.16-.9-.42-.38.15"/></g></g></g></g></svg>