<svg xmlns="http://www.w3.org/2000/svg" viewBox="0 0 45 45" enable-background="new 0 0 45 45"><defs><clipPath id="a"><path d="M0 36h36V0H0v36z"/></clipPath></defs><g><g><g clip-path="url(#a)" transform="matrix(1.25 0 0 -1.25 0 45)"><g><path fill="#c4272f" d="M36 9c0-2.2-1.8-4-4-4H4C1.8 5 0 6.8 0 9v18c0 2.2 1.8 4 4 4h28c2.2 0 4-1.8 4-4V9z"/></g><path fill="#005197" d="M24 5H12v26h12V5z"/><path fill="#f9cf01" d="M2.86 7H1.3v12.57h1.56V7z"/><path fill="#f9cf01" d="M8.32 16.43H3.68v.78h4.64v-.77z"/><path fill="#f9cf01" d="M10.7 7H9.15v12.57h1.57V7z"/><path fill="#f9cf01" d="M8.32 9.36H3.68v.78h4.64v-.78z"/><g><path fill="#f9cf01" d="M3.77 19.57h4.46L6 18l-2.23 1.57z"/></g><g><path fill="#f9cf01" d="M3.68 8.37h4.64L6 6.75 3.68 8.37z"/></g><g><path fill="#f9cf01" d="M7.57 24.3c0-.88-.7-1.6-1.57-1.6-.87 0-1.57.72-1.57 1.6 0 .85.7 1.56 1.57 1.56.87 0 1.57-.7 1.57-1.57"/></g><g><path fill="#f9cf01" d="M6.8 27.23c0-.76-.37-.98-.8-.98-.43 0-.8.22-.8.98S5.76 29 6 29s.8-1 .8-1.77"/></g><g><path fill="#f9cf01" d="M6 21.6c-1.3 0-2.44.6-3.08 1.47C3.2 21.6 4.46 20.5 6 20.5s2.8 1.1 3.08 2.57C8.44 22.2 7.3 21.6 6 21.6"/></g><g><path fill="#f9cf01" d="M5.63 11.92c0 .23.18.4.4.4.24 0 .42-.17.42-.4s-.18-.42-.4-.42c-.24 0-.42.2-.42.42m2.94 1.37c0 1.08-.7 2-1.65 2.38.3-.26.58-.45.58-1.07 0-.96-.58-1.48-1.5-1.48-.64-.03-1.16-.56-1.16-1.2 0-.65.52-1.17 1.16-1.2 0 0 .02 0 .03 0 .03 0 .04 0 .05 0 1.38.05 2.5 1.17 2.5 2.57"/></g><g><path fill="#f9cf01" d="M5.97 14.23c-.23 0-.42.2-.42.4 0 .24.2.43.42.43.23 0 .42-.2.42-.42 0-.22-.2-.4-.43-.4m.03 1.6s0 0-.02 0-.03 0-.04 0c-1.4-.03-2.5-1.15-2.5-2.55 0-1.1.68-2.04 1.64-2.4-.3.25-.56.44-.56 1 0 .98.53 1.52 1.43 1.52v.02s0 0 .02 0c.67 0 1.2.54 1.2 1.2 0 .66-.52 1.2-1.17 1.2"/></g></g></g></g></svg>