<svg xmlns="http://www.w3.org/2000/svg" viewBox="0 0 45 45" enable-background="new 0 0 45 45"><defs><clipPath id="a"><path d="M0 36h36V0H0v36z"/></clipPath></defs><g><g><g clip-path="url(#a)" transform="matrix(1.25 0 0 -1.25 0 45)"><g><path fill="#f4900c" d="M36 4c0-2.2-1.8-4-4-4H4C1.8 0 0 1.8 0 4v28c0 2.2 1.8 4 4 4h28c2.2 0 4-1.8 4-4V4z"/></g><g><path fill="#fff" d="M25.78 11.74c.3 0 .57-.13.75-.3 1.06-1.33 1.9-2.58 2.57-3.9.08-.16.1-.32.1-.45 0-.37-.2-.7-.57-.87-.15-.08-.33-.13-.5-.13-.33 0-.64.16-.82.44-.64 1.33-1.4 2.63-2.38 3.88-.08.13-.13.28-.13.44 0 .26.12.52.43.73.18.1.36.14.55.14m-1.5 7.34H21.2v-4.53h3.07v4.53zm0 6.24H21.2V20.9h3.07v4.42zm-4.2-13.65c.42 0 .7-.2.83-.55.5-1.3.92-2.68 1.18-3.93.03-.08.03-.2.03-.27 0-.4-.3-.72-.8-.83-.13-.02-.23-.05-.36-.05-.42 0-.76.23-.8.65-.2 1.22-.6 2.68-1.02 3.93-.03.07-.05.18-.05.26 0 .35.26.64.67.7.13.04.24.07.34.07m-.62 7.4h-3v-4.52h3v4.53zm0 6.25h-3V20.9h3v4.42zm-4.76-13.7c.4 0 .73-.24.8-.6.32-1.3.5-2.8.6-4.14V6.8c0-.46-.4-.78-.93-.83h-.13c-.5 0-.9.3-.9.73-.07 1.22-.22 2.7-.48 4.03v.13c0 .36.3.65.78.73.08 0 .18 0 .26 0m0 7.48h-2.97v-4.53h2.97v4.53zm0 6.24h-2.97V20.9h2.97v4.42zm-3.56-14.5c0-.1-.03-.2-.08-.32-.6-1.5-1.5-3-2.52-4.14-.26-.26-.55-.4-.86-.4-.26 0-.5.1-.73.27-.23.18-.36.42-.36.7 0 .2.06.45.27.65.9.9 1.72 2.16 2.32 3.62.12.34.4.52.77.52.13 0 .28-.03.44-.08.48-.13.74-.44.74-.8M9.9 22.45c0 .7.1 1.45.22 2.18-.67-.78-1.4-1.48-2.16-2.16-.23-.15-.46-.26-.7-.26-.26 0-.52.13-.73.37-.13.17-.2.38-.2.56 0 .3.15.62.5.83 1.86 1.42 3.42 3.42 4.54 5.68.18.3.44.42.78.42.16 0 .34-.02.52-.1.36-.13.57-.42.57-.73 0-.16-.05-.34-.15-.5-.38-.6-.8-1.2-1.26-1.76.96.06 1.87.1 2.8.1h13.58c.47 0 .7-.38.7-.92 0-.5-.23-.86-.7-.86h-2.16V20.9h3.1c.46 0 .72-.37.72-.9s-.26-.92-.72-.92h-3.1v-4.53h2.44c.47 0 .7-.36.7-.88 0-.5-.23-.9-.7-.9H7.4c-.48 0-.7.38-.7.9 0 .5.22.88.7.88h2.5v4.53H6.8c-.45 0-.7.4-.7.9 0 .53.25.92.7.92h3.1v1.56z"/></g></g></g></g></svg>