<svg xmlns="http://www.w3.org/2000/svg" viewBox="0 0 45 45" enable-background="new 0 0 45 45"><defs><clipPath id="a"><path d="M0 36h36V0H0v36z"/></clipPath></defs><g><g><g clip-path="url(#a)" transform="matrix(1.25 0 0 -1.25 0 45)"><g><path fill="#dd2e44" d="M36 4c0-2.2-1.8-4-4-4H4C1.8 0 0 1.8 0 4v28c0 2.2 1.8 4 4 4h28c2.2 0 4-1.8 4-4V4z"/></g><g><path fill="#fff" d="M23.26 21.6c.47 0 .75-.46.75-.98 0-.54-.27-.96-.74-.96H12.73c-.5 0-.76.42-.76.96 0 .52.26.97.76.97h10.53zm.36-13.17c.55 0 .83.16.83.73v5c0 .56-.28.72-.83.72H12.36c-.54 0-.8-.16-.8-.73v-5c0-.56.26-.72.8-.72h11.26zm.6 8.32c1.6 0 2.3-.68 2.3-2.23V8.8c0-1.6-.7-2.24-2.3-2.24H11.8c-1.6 0-2.32.65-2.32 2.23v5.72c0 1.55.73 2.23 2.3 2.23h12.44zm-6.3 12.92c.58 0 1.15-.2 1.5-.62 2.77-3.62 6.26-6.06 10.26-7.96.42-.2.63-.55.63-.94 0-.16-.02-.34-.1-.52-.18-.4-.57-.65-1-.65-.14 0-.33 0-.48.1-4.2 2.12-8.06 5.16-10.45 8.3-.13.17-.24.24-.34.24-.1 0-.2-.07-.3-.2-2.35-3.2-6.36-6.48-10.36-8.35-.16-.1-.34-.14-.5-.14-.4 0-.72.2-.93.62-.08.16-.1.32-.1.47 0 .4.23.78.64.96 4.06 1.94 7.5 4.67 10.04 8.05.34.4.94.62 1.5.62"/></g></g></g></g></svg>