<svg xmlns="http://www.w3.org/2000/svg" viewBox="0 0 45 45" enable-background="new 0 0 45 45"><defs><clipPath id="a"><path d="M0 36h36V0H0v36z"/></clipPath></defs><g><g><g clip-path="url(#a)" transform="matrix(1.25 0 0 -1.25 0 45)"><g><path fill="#f4900c" d="M36 4c0-2.2-1.8-4-4-4H4C1.8 0 0 1.8 0 4v28c0 2.2 1.8 4 4 4h28c2.2 0 4-1.8 4-4V4z"/></g><g><path fill="#fff" d="M24.66 26.28c0 .52-.26.67-.8.67H13.2c-.52 0-.83-.15-.83-.67v-3.43h12.26v3.43zM12.4 20.9c-.04-1.46-.04-2.94-.2-4.4h12.46v4.4H12.4zm-.43-6.35c-.47-3.27-1.46-5.87-3.33-8.03-.23-.26-.54-.4-.86-.4-.26 0-.52.1-.75.27-.3.2-.42.5-.42.8 0 .23.12.5.3.7 2.86 3.12 3.43 7.22 3.43 14.53v4.24c0 1.58.78 2.23 2.34 2.23h11.7c1.54 0 2.32-.65 2.32-2.23V8.77c0-1.68-.72-2.43-3.37-2.43-1 0-2 .1-2.83.28-.5.1-.8.42-.8.94 0 .08 0 .18.02.28.13.55.47.78.83.78.08 0 .16 0 .23-.02.68-.18 1.5-.3 2.3-.3 1.34 0 1.58.22 1.58 1.05v5.2h-12.7z"/></g></g></g></g></svg>