<svg xmlns="http://www.w3.org/2000/svg" viewBox="0 0 45 45" enable-background="new 0 0 45 45"><defs><clipPath id="a"><path d="M0 36h36V0H0v36z"/></clipPath></defs><g><g><g clip-path="url(#a)" transform="matrix(1.25 0 0 -1.25 0 45)"><g><path fill="#dd2e44" d="M36 4c0-2.2-1.8-4-4-4H4C1.8 0 0 1.8 0 4v28c0 2.2 1.8 4 4 4h28c2.2 0 4-1.8 4-4V4z"/></g><path fill="#fff" d="M23.27 25.72h-5.1V22.9h5.1v2.82zm-10.7-4.55c-.48 0-.74.3-.74.86 0 .52.26.86.73.86h3.8v2.82h-2.97c-.48 0-.74.34-.74.9 0 .5.26.82.73.82h2.95v1.9c0 .44.34.7.9.7s.93-.26.93-.7v-1.9h5.1v1.9c0 .44.36.67.9.67.57 0 .9-.22.9-.67v-1.9h3.47c.47 0 .73-.3.73-.82 0-.54-.26-.88-.73-.88H25.1V22.9h4.3c.48 0 .74-.32.74-.87 0-.52-.26-.86-.73-.86h-7.84v-2.2h5.22c1.54 0 2.2-.7 2.2-2.06V8.6c0-1.7-.77-2.38-2.64-2.38-.78 0-1.6.05-2.3.18-.4.08-.72.42-.72.9 0 .06 0 .14.03.22.1.52.47.75.8.75.06 0 .1 0 .16-.02.66-.16 1.3-.2 1.8-.2.86 0 1.07.2 1.07.95v7.65c0 .52-.26.65-.8.65h-4.8v-6.37h1.23c.47 0 .68.15.68.65v3.56c0 .44.36.7.86.7.44 0 .9-.26.9-.7v-3.98c0-1.35-.56-1.87-1.9-1.87h-5.27c-1.32 0-1.9.5-1.9 1.86v3.98c0 .44.45.7.9.7.48 0 .87-.26.87-.7v-3.56c0-.5.2-.65.68-.65h1.12v6.37H15.3c-.53 0-.8-.13-.8-.65v-10c0-.56-.38-.82-.98-.82-.54 0-.93.26-.93.8v10.28c0 1.4.66 2.06 2.2 2.06h4.94v2.2h-7.18zm-.58 4.94c0-.22-.1-.46-.25-.64-.2-.23-.5-.34-.75-.34-.3 0-.57.1-.78.32-.89.85-1.93 1.7-3.02 2.44-.23.16-.36.44-.36.73 0 .22.08.45.23.63.2.26.5.42.8.42.2 0 .4-.05.58-.18 1.07-.68 2.2-1.6 3.2-2.55.23-.24.34-.52.34-.8m-.7-11.84c0-.13 0-.23-.04-.36-.75-2.3-1.9-4.94-3.22-7.1-.2-.34-.52-.5-.9-.5-.17 0-.38.06-.6.16-.3.18-.5.5-.5.83 0 .2.04.4.17.58 1.24 1.98 2.43 4.42 3.13 6.7.14.45.47.66.9.66.1 0 .22-.02.33-.05.5-.16.75-.53.75-.92m-.38 6.14c.2-.2.34-.47.34-.76 0-.2-.08-.4-.23-.62-.2-.26-.52-.4-.8-.4-.27 0-.5.1-.7.27-1 .95-2.33 1.93-3.44 2.6-.25.14-.38.4-.38.7 0 .22.08.43.2.64.22.26.5.4.82.4.18 0 .36-.07.52-.14 1.24-.7 2.54-1.72 3.66-2.68"/></g></g></g></svg>