<svg xmlns="http://www.w3.org/2000/svg" viewBox="0 0 45 45" enable-background="new 0 0 45 45"><defs><clipPath id="a"><path d="M0 36h36V0H0v36z"/></clipPath></defs><g><g><g clip-path="url(#a)" transform="matrix(1.25 0 0 -1.25 0 45)"><g><path fill="#dd2e44" d="M36 4c0-2.2-1.8-4-4-4H4C1.8 0 0 1.8 0 4v28c0 2.2 1.8 4 4 4h28c2.2 0 4-1.8 4-4V4z"/></g><g><path fill="#fff" d="M23.5 12.06c.3 0 .6-.13.8-.3 1.06-1.15 2.83-2.53 4.26-3.23.4-.18.62-.5.62-.86 0-.18-.05-.36-.18-.55-.2-.33-.52-.52-.88-.52-.16 0-.34.06-.53.13-1.7.86-3.64 2.45-4.92 3.9-.13.16-.2.37-.2.58 0 .27.12.55.43.7.2.1.4.16.6.16m-4.8 13.7c-.44 0-.7.34-.7.86 0 .55.26.84.7.84h3.64v1.8c0 .46.37.7.9.7.56 0 .87-.24.87-.7v-1.8h4.66c.47 0 .73-.3.73-.8 0-.56-.27-.9-.74-.9h-4c1.3-1.74 3.2-3.1 4.94-4.08.3-.15.44-.46.44-.78 0-.18-.05-.4-.15-.54-.2-.34-.5-.47-.8-.47-.17 0-.36.04-.54.15-1.9 1.17-3.6 2.73-4.84 4.8.16-.75.3-1.7.3-2.46v-2.25c0-.44-.35-.7-.87-.7-.54 0-.9.26-.9.7v2.34c0 .74.12 1.6.25 2.33-.93-1.82-2.42-3.35-4-4.4-.18-.12-.4-.2-.57-.2-.24 0-.47.1-.65.36-.1.15-.16.33-.16.5 0 .27.16.53.4.7 1.63.92 3.03 2.35 4.07 3.97h-3zM9.86 16.8c-.44 0-.65.4-.65.88 0 .44.22.88.66.88h16.12c.45 0 .65-.44.65-.88 0-.47-.2-.88-.65-.88H9.86zm3.6-5.57c0-.18-.1-.4-.3-.65-1.1-1.32-3-2.94-4.68-3.92-.18-.1-.36-.16-.57-.16-.33 0-.66.16-.87.5-.1.18-.16.33-.16.5 0 .33.18.6.5.8 1.5.85 3.27 2.26 4.26 3.4.2.26.47.4.78.4.2 0 .37-.06.58-.17.3-.15.47-.4.47-.7m-6.4 1.82c-.44 0-.67.4-.67.9 0 .48.23.87.67.87h21.77c.44 0 .67-.4.67-.88 0-.5-.24-.9-.68-.9h-9.75v-4.7c0-1.7-.84-2.3-3.07-2.3-.96 0-1.8.1-2.45.25-.44.1-.72.43-.72.85 0 .1 0 .18.05.3.13.45.47.7.83.7.06 0 .14 0 .22-.04.6-.14 1.22-.25 1.87-.25 1 0 1.2.18 1.2.86v4.35H7.06zm.06 12.72c-.46 0-.72.33-.72.85 0 .55.26.84.73.84h4.43v1.82c0 .46.36.72.9.72.55 0 .86-.26.86-.72v-1.82h3.1c.46 0 .72-.3.72-.8 0-.56-.26-.9-.73-.9h-2.56c.8-1.14 1.87-2.1 2.9-2.75.27-.17.4-.43.4-.7 0-.17-.08-.36-.18-.54-.18-.2-.42-.3-.68-.3-.18 0-.4.07-.6.2-.93.73-2.15 2.13-2.67 3.25.16-.77.3-1.76.3-2.46v-2.26c0-.45-.32-.7-.86-.7-.55 0-.9.25-.9.7v2.26c0 .67.1 1.7.27 2.42C10.94 23 9 21.1 7.38 19.96c-.2-.12-.4-.2-.6-.2-.26 0-.52.13-.7.36-.16.2-.2.4-.2.58 0 .28.12.57.38.72C8 22.5 9.68 24 10.85 25.77H7.1z"/></g></g></g></g></svg>