<svg xmlns="http://www.w3.org/2000/svg" viewBox="0 0 45 45" enable-background="new 0 0 45 45"><defs><clipPath id="a"><path d="M0 36h36V0H0v36z"/></clipPath></defs><g><g><g clip-path="url(#a)" transform="matrix(1.25 0 0 -1.25 0 45)"><g><path fill="#f4900c" d="M36 4c0-2.2-1.8-4-4-4H4C1.8 0 0 1.8 0 4v28c0 2.2 1.8 4 4 4h28c2.2 0 4-1.8 4-4V4z"/></g><g><path fill="#fff" d="M25.22 13.74c.83 0 1.1.26 1.1.96v3.72h-7.55v-4.68h6.45zm1.1 6.5v3.25c0 .7-.27.95-1.1.95h-6.45v-4.2h7.54zM9.66 18.42V14.7c0-.7.24-.96 1.1-.96h5.98v4.68H9.67zm1.1 6.03c-.86 0-1.1-.26-1.1-.96v-3.26h7.08v4.2h-6zm5.98 4.76c0 .5.4.8 1 .8.63 0 1.02-.3 1.02-.8v-2.93h7.13c1.7 0 2.4-.67 2.4-2.28v-9.77c0-1.6-.7-2.3-2.4-2.3h-7.13v-5.3c0-.5-.4-.77-1-.77-.63 0-1.02.26-1.02.78v5.28H10.1c-1.7 0-2.4.7-2.4 2.3V24c0 1.6.7 2.27 2.4 2.27h6.65v2.94z"/></g></g></g></g></svg>