<svg xmlns="http://www.w3.org/2000/svg" viewBox="0 0 45 45" enable-background="new 0 0 45 45"><defs><clipPath id="a"><path d="M0 36h36V0H0v36z"/></clipPath></defs><g><g><g clip-path="url(#a)" transform="matrix(1.25 0 0 -1.25 0 45)"><g><path fill="#f4900c" d="M36 18c0-9.94-8.06-18-18-18S0 8.06 0 18s8.06 18 18 18 18-8.06 18-18"/></g><g><path fill="#fff" d="M17.26 13.48c.54 0 .8.15.8.73v6.38c0 .57-.26.73-.8.73h-5.3c-.53 0-.8-.15-.8-.72V14.2c0-.57.27-.72.8-.72h5.3zm2.8.44c0-1.66-.72-2.3-2.36-2.3h-6.14c-1.66 0-2.4.64-2.4 2.3v6.94c0 1.67.74 2.32 2.4 2.32h6.14c1.64 0 2.37-.65 2.37-2.32v-6.94zM7 26.45c-.5 0-.8.4-.8.97 0 .54.3.93.8.93h22.04c.46 0 .75-.4.75-.93 0-.55-.3-.97-.76-.97h-2.6V8.55c0-1.9-.86-2.66-3.28-2.66-1.1 0-2.4.12-3.4.35-.5.1-.8.47-.8.94 0 .07 0 .17.04.27.1.52.42.8.86.8.08 0 .18 0 .26-.02.88-.23 2.03-.4 2.83-.4 1.1 0 1.4.25 1.4 1.26v17.35H7z"/></g></g></g></g></svg>