<svg xmlns="http://www.w3.org/2000/svg" viewBox="0 0 45 45" enable-background="new 0 0 45 45"><defs><clipPath id="a"><path d="M4 36c-2.2 0-4-1.8-4-4V4c0-2.2 1.8-4 4-4h28c2.2 0 4 1.8 4 4v28c0 2.2-1.8 4-4 4H4z"/></clipPath></defs><g><g><g clip-path="url(#a)" transform="matrix(1.25 0 0 -1.25 0 45)"><path fill="#f4900c" d="M37-1H-1v38h38V-1z"/><g><path fill="#485359" d="M10 0v29l4 4h2l4-4V0H10z"/></g><g><path fill="#485359" d="M33 25c0 1-1 1-1 1h-7s-1 0-1-1V0h9v25z"/></g><g><path fill="#292f33" d="M28 19c0 1-1 1-1 1h-8c-1 0-1-1-1-1V0h10v19z"/></g><g><path fill="#292f33" d="M6 22s0 1-1 1H0V0h6v22z"/></g><g><path fill="#292f33" d="M12 16s0 1-1 1H5s-1 0-1-1V0h8v16z"/></g><g><path fill="#292f33" d="M31 10s0 1 1 1h4V0h-5v10z"/></g><path fill="#ffcc4d" d="M10 5H8v2h2V5z"/><path fill="#ffcc4d" d="M10 13H8v2h2v-2z"/><path fill="#ffcc4d" d="M8 9H6v2h2V9z"/><path fill="#ffcc4d" d="M18 25h-2v2h2v-2z"/><path fill="#ffcc4d" d="M18 21h-2v2h2v-2z"/><path fill="#ffcc4d" d="M16 17h-2v2h2v-2z"/><path fill="#ffcc4d" d="M26 16h-2v2h2v-2z"/><path fill="#ffcc4d" d="M24 12h-2v2h2v-2z"/><path fill="#ffcc4d" d="M22 6h-2v2h2V6z"/><path fill="#ffcc4d" d="M31 22h-2v2h2v-2z"/><path fill="#ffcc4d" d="M31 18h-2v2h2v-2z"/></g></g></g></svg>