<svg xmlns="http://www.w3.org/2000/svg" viewBox="0 0 45 45" enable-background="new 0 0 45 45"><defs><clipPath id="a"><path d="M4 36c-2.2 0-4-1.8-4-4V4c0-2.2 1.8-4 4-4h28c2.2 0 4 1.8 4 4v28c0 2.2-1.8 4-4 4H4z"/></clipPath></defs><g><g><g clip-path="url(#a)" transform="matrix(1.25 0 0 -1.25 0 45)"><path fill="#88c9f9" d="M37-1H-1v38h38V-1z"/><g><path fill="#66757f" d="M10 0v29l4 4h2l4-4V0H10z"/></g><g><path fill="#66757f" d="M33 25c0 1-1.3 1-1.3 1h-6.4S24 26 24 25V0h9v25z"/></g><g><path fill="#292f33" d="M28 19c0 1-1 1-1 1h-8c-1 0-1-1-1-1V0h10v19z"/></g><g><path fill="#292f33" d="M6 22s0 1-1 1H0V0h6v22z"/></g><g><path fill="#292f33" d="M12 16s0 1-1 1H5s-1 0-1-1V0h8v16z"/></g><path fill="#ffcc4d" d="M10 5H8v2h2V5z"/><path fill="#ffcc4d" d="M10 13H8v2h2v-2z"/><path fill="#ffcc4d" d="M8 9H6v2h2V9z"/><path fill="#ffcc4d" d="M18 25h-2v2h2v-2z"/><path fill="#ffcc4d" d="M18 21h-2v2h2v-2z"/><path fill="#ffcc4d" d="M16 17h-2v2h2v-2z"/><path fill="#ffcc4d" d="M26 16h-2v2h2v-2z"/><path fill="#ffcc4d" d="M24 12h-2v2h2v-2z"/><path fill="#ffcc4d" d="M22 6h-2v2h2V6z"/><path fill="#ffcc4d" d="M31 22h-2v2h2v-2z"/><path fill="#ffcc4d" d="M31 18h-2v2h2v-2z"/><g><path fill="#e1e8ed" d="M34 16c-2.13 0-3.93-1.33-4.65-3.2-.8 1.3-2.2 2.2-3.85 2.2-.76 0-1.47-.2-2.1-.54-.63.93-1.7 1.54-2.9 1.54-1.52 0-2.8-.98-3.3-2.34-.52.22-1.1.34-1.7.34-1.76 0-3.26-1.02-4-2.5-.6.3-1.28.5-2 .5-1.18 0-2.25-.47-3.05-1.2-.77.95-1.94 1.57-3.26 1.57C.86 12.38-1 10.5-1 8.2-1 5.86.88 4 3.2 4c.98 0 1.88.36 2.6.94C6.62 3.77 7.97 3 9.5 3c.56 0 1.1.1 1.6.3.42-.2.9-.3 1.4-.3 1.4 0 2.6.83 3.16 2.02 1.13.04 2.15.5 2.92 1.22C19.13 5.5 20 5 21 5c1.1 0 2.04.6 2.56 1.46.6-.3 1.24-.46 1.94-.46 1.83 0 3.4 1.1 4.1 2.67C30.44 7.1 32.1 6 34 6c2.76 0 5 2.24 5 5s-2.24 5-5 5"/></g><g><path fill="#ccd6dd" d="M30 12.3c-2.93 0-5.43-1.8-6.47-4.35-.18.02-.35.05-.53.05-.7 0-1.37-.15-1.98-.4C20.3 8.44 19.22 9 18 9c-2.2 0-4-1.8-4-4 0-.05 0-.1 0-.15-.3.1-.65.15-1 .15-.88 0-1.68-.3-2.34-.77-.6.48-1.34.77-2.16.77-.2 0-.4-.03-.58-.06C7.3 6.72 5.6 8 3.6 8 1.06 8-1 5.94-1 3.4c0-2.55 2.06-4.6 4.6-4.6.8 0 1.5.2 2.16.55C6.4-1.47 7.38-2 8.5-2c.55 0 1.06.14 1.52.36C10.75-2.47 11.82-3 13-3c1.73 0 3.2 1.1 3.75 2.64.54-.4 1.2-.64 1.94-.64.37 0 .74.08 1.08.2.88-.74 2-1.2 3.22-1.2 1.3 0 2.47.5 3.36 1.32 1.06-.65 2.3-1.03 3.64-1.03 3.87 0 7 3.12 7 7 0 3.86-3.13 7-7 7"/></g></g></g></g></svg>