<svg xmlns="http://www.w3.org/2000/svg" viewBox="0 0 45 45" enable-background="new 0 0 45 45"><defs><clipPath id="a"><path d="M4 36c-2.2 0-4-1.8-4-4V4c0-2.2 1.8-4 4-4h28c2.2 0 4 1.8 4 4v28c0 2.2-1.8 4-4 4H4z"/></clipPath><clipPath id="b"><path d="M0 36h36V0H0v36z"/></clipPath></defs><g><g><g clip-path="url(#a)" transform="matrix(1.25 0 0 -1.25 0 45)"><path fill="#269" d="M37-1H-1v38h38V-1z"/><g><path fill="#3f484c" d="M10 0v29l4 4h2l4-4V0H10z"/></g><g><path fill="#3f484c" d="M33 25c0 1-1.3 1-1.3 1h-6.4S24 26 24 25V0h9v25z"/></g><g><path fill="#292f33" d="M28 17c0 1-1 1-1 1h-8c-1 0-1-1-1-1V0h10v17z"/></g><g><path fill="#292f33" d="M6 22s0 1-1 1H0V0h6v22z"/></g><g><path fill="#292f33" d="M12 14s0 1-1 1H5s-1 0-1-1V0h8v14z"/></g><g><path fill="#292f33" d="M31 10s0 1 1 1h4V0h-5v10z"/></g></g></g><path fill="#ffcc4d" d="M12.5 41.25H10v-2.5h2.5v2.5z"/><path fill="#ffcc4d" d="M12.5 31.25H10v-2.5h2.5v2.5z"/><path fill="#ffcc4d" d="M10 36.25H7.5v-2.5H10v2.5z"/><path fill="#ffcc4d" d="M22.5 13.75H20v-2.5h2.5v2.5z"/><path fill="#ffcc4d" d="M22.5 18.75H20v-2.5h2.5v2.5z"/><path fill="#ffcc4d" d="M20 23.75h-2.5v-2.5H20v2.5z"/><path fill="#ffcc4d" d="M32.5 27.5H30V25h2.5v2.5z"/><path fill="#ffcc4d" d="M30 32.5h-2.5V30H30v2.5z"/><path fill="#ffcc4d" d="M27.5 40H25v-2.5h2.5V40z"/><path fill="#ffcc4d" d="M38.75 17.5h-2.5V15h2.5v2.5z"/><path fill="#ffcc4d" d="M38.75 22.5h-2.5V20h2.5v2.5z"/><g><g clip-path="url(#b)" transform="matrix(1.25 0 0 -1.25 0 45)"><g><path fill="#fff" d="M6.5 29C5.12 29 4 30.12 4 31.5c0 1.13.76 2.07 1.78 2.38-.25.07-.5.12-.78.12-1.66 0-3-1.34-3-3s1.34-3 3-3c.96 0 1.8.46 2.35 1.16-.27-.1-.55-.16-.85-.16"/></g><g><path fill="#fff" d="M11 33.5c0-.28-.22-.5-.5-.5s-.5.22-.5.5.22.5.5.5.5-.22.5-.5"/></g><g><path fill="#fff" d="M8 24.5c0-.28-.22-.5-.5-.5s-.5.22-.5.5.22.5.5.5.5-.22.5-.5"/></g><g><path fill="#fff" d="M23 31c0-.55-.45-1-1-1s-1 .45-1 1 .45 1 1 1 1-.45 1-1"/></g><g><path fill="#fff" d="M27 30.5c0-.28-.22-.5-.5-.5s-.5.22-.5.5.22.5.5.5.5-.22.5-.5"/></g><g><path fill="#fff" d="M32 33c0-.55-.45-1-1-1s-1 .45-1 1 .45 1 1 1 1-.45 1-1"/></g><g><path fill="#fff" d="M32 28.5c0-.28-.22-.5-.5-.5s-.5.22-.5.5.22.5.5.5.5-.22.5-.5"/></g></g></g></g></svg>