<svg xmlns="http://www.w3.org/2000/svg" viewBox="0 0 45 45" enable-background="new 0 0 45 45"><defs><clipPath id="a"><path d="M4 36c-2.2 0-4-1.8-4-4V4c0-2.2 1.8-4 4-4h28c2.2 0 4 1.8 4 4v28c0 2.2-1.8 4-4 4H4z"/></clipPath></defs><g><g><g clip-path="url(#a)" transform="matrix(1.25 0 0 -1.25 0 45)"><path fill="#ffcc4d" d="M37-1H-1v38h38V-1z"/><g><path fill="#f4900c" d="M32.1 19.26c1.6.45 1.6 1.15.02 1.6l-.56.16-.56.16-2.94.9L30.38 24l.48.32.5.36c1.3 1.02 1 1.7-.63 1.5l-.64-.1-.64-.08-2.98-.34 1.77 3.18.3.56c.8 1.44.3 1.96-1.15 1.16l-.56-.28-.55-.28-2.64-1.5.34 2.96.08.63.08.63c.2 1.63-.5 1.92-1.52.62l-.4-.5L20 30l-.83 2.9-.35 1.2c-.45 1.6-1.2 1.6-1.64 0l-.17-.6-.17-.6L16 30l-1.85 2.35-.4.5-.4.5c-1.02 1.3-1.7 1-1.5-.62l.06-.64.1-.64.33-2.98-3.17 1.77-.56.3c-1.44.8-1.96.3-1.16-1.15l.3-.56 1.78-3.17-2.98.34-.63.1-.63.06c-1.63.2-1.92-.5-.63-1.52l.5-.4.5-.4L8 22l-2.9-.83-.6-.18-.6-.18c-1.6-.45-1.6-1.2 0-1.64l1.2-.35L8 18l-2.85-2.25-.5-.4c-1.3-1.02-1-1.7.62-1.5l.64.07.64.08 2.95.34L8 11.7l-.28-.54-.3-.56c-.8-1.44-.27-1.96 1.17-1.16l.55.3 3.2 1.78L12 8.54l-.08-.63-.08-.63c-.2-1.64.5-1.92 1.52-.63l.4.5.4.5L16 10l.83-2.9.18-.6.18-.62c.45-1.58 1.1-1.58 1.56 0L19 7.12l.9 2.9 1.9-2.36.43-.5.4-.5c1.03-1.3 1.7-1 1.53.63l-.08.64-.08.64-.34 2.95 2.62-1.5.56-.28.56-.3c1.44-.8 1.96-.27 1.16 1.17l-.28.55-.28.56-1.5 2.64 2.96-.34.63-.08.63-.08c1.64-.2 1.92.5.63 1.52l-.5.4-.5.4L28 18.08l2.9.9 1.2.26z"/></g><g><path fill="#ffe8b6" d="M27.63 20c0-5.32-4.3-9.63-9.63-9.63-5.32 0-9.63 4.3-9.63 9.63 0 5.32 4.3 9.63 9.63 9.63 5.32 0 9.63-4.3 9.63-9.63"/></g><g><path fill="#485359" d="M10-8v29l4 4h2l4-4V-8H10z"/></g><g><path fill="#485359" d="M33 17c0 1-1 1-1 1h-7s-1 0-1-1V-8h9v25z"/></g><g><path fill="#292f33" d="M28 11c0 1-1 1-1 1h-8c-1 0-1-1-1-1V-8h10v19z"/></g><g><path fill="#292f33" d="M6 14s0 1-1 1H0V-8h6v22z"/></g><g><path fill="#292f33" d="M12 8s0 1-1 1H5S4 9 4 8V-8h8V8z"/></g><g><path fill="#292f33" d="M31 2s0 1 1 1h4V-8h-5V2z"/></g><path fill="#ffcc4d" d="M10 5H8v2h2V5z"/><path fill="#ffcc4d" d="M8 1H6v2h2V1z"/><path fill="#ffcc4d" d="M18 17h-2v2h2v-2z"/><path fill="#ffcc4d" d="M18 13h-2v2h2v-2z"/><path fill="#ffcc4d" d="M16 9h-2v2h2V9z"/><path fill="#ffcc4d" d="M26 8h-2v2h2V8z"/><path fill="#ffcc4d" d="M24 4h-2v2h2V4z"/><path fill="#ffcc4d" d="M31 14h-2v2h2v-2z"/><path fill="#ffcc4d" d="M31 10h-2v2h2v-2z"/></g></g></g></svg>