<svg xmlns="http://www.w3.org/2000/svg" viewBox="0 0 36 36"><path fill="#66757F" d="M1 35c-1-1 0-2 0-2L27 7s1.479-1.521 0-3-3 0-3 0-1 1-2 0 0-2 0-2 3.521-3.479 7 0c3.5 3.5 0 7 0 7L3 35s-1 1-2 0z"/><path fill="#9266CC" d="M28.633 18.102L27 17.559V16c0-.918-.625-1.718-1.515-1.94l-2.836-.709-.709-2.836C21.718 9.625 20.918 9 20 9h-1.559l-.544-1.632c-.256-.768-.949-1.305-1.756-1.363C16.094 6.001 16.047 6 16 6c-.753 0-1.448.425-1.789 1.105L2 32l2 2 24.894-12.211c.724-.362 1.158-1.124 1.101-1.931-.057-.806-.596-1.5-1.362-1.756z"/><path fill="#744EAA" d="M3 33l19.649-19.649-.709-2.836C21.718 9.625 20.918 9 20 9h-1.559l-.051-.154L2.404 32.404 3 33zm1 1l24.894-12.211c.724-.362 1.158-1.124 1.101-1.931-.058-.807-.596-1.5-1.362-1.756L27 17.559v-.174L3.591 33.591 4 34z"/></svg>