<?xml version="1.0" encoding="UTF-8" standalone="no"?><svg xmlns:dc="http://purl.org/dc/elements/1.1/" xmlns:cc="http://creativecommons.org/ns#" xmlns:rdf="http://www.w3.org/1999/02/22-rdf-syntax-ns#" xmlns:svg="http://www.w3.org/2000/svg" xmlns="http://www.w3.org/2000/svg" viewBox="0 0 45 45" style="enable-background:new 0 0 45 45;" xml:space="preserve" version="1.1" id="svg2"><metadata id="metadata8"><rdf:RDF><cc:Work rdf:about=""><dc:format>image/svg+xml</dc:format><dc:type rdf:resource="http://purl.org/dc/dcmitype/StillImage"/></cc:Work></rdf:RDF></metadata><defs id="defs6"><clipPath id="clipPath16" clipPathUnits="userSpaceOnUse"><path id="path18" d="M 0,36 36,36 36,0 0,0 0,36 Z"/></clipPath></defs><g transform="matrix(1.25,0,0,-1.25,0,45)" id="g10"><g id="g12"><g clip-path="url(#clipPath16)" id="g14"><g transform="translate(12,0)" id="g20"><path id="path22" style="fill:#292f33;fill-opacity:1;fill-rule:nonzero;stroke:none" d="M 0,0 0,20 C 0,20 -1.17,18.947 -2.354,18.071 -2.667,17.84 -4.331,17.281 -4.667,17.031 -6.429,15.716 -7.219,13.19 -7.458,12.864 -7.917,12.24 -12,0 -12,0 L 0,0 Z"/></g><g transform="translate(32,0)" id="g24"><path id="path26" style="fill:#4b545d;fill-opacity:1;fill-rule:nonzero;stroke:none" d="m 0,0 -5.5,17.75 -8.5,5.656 -6.458,-2.208 C -20.865,20.417 -22,17.75 -22,17.75 L -23.25,14 -32,0 0,0 Z"/></g><g transform="translate(18.1353,10.2744)" id="g28"><path id="path30" style="fill:#292f33;fill-opacity:1;fill-rule:nonzero;stroke:none" d="M 0,0 C -0.145,0.513 -0.026,0.97 -0.177,1.476 -0.325,1.975 -0.743,2.523 -0.87,2.954 -1.135,3.853 -1.324,4.536 -1.315,4.726 -1.292,5.194 -0.422,5.127 -0.213,4.257 0.08,3.033 0.474,2.663 0.474,2.663 c 0,0 0.084,3.381 -0.632,4.068 0.145,0.232 0.288,0.476 0.419,0.745 0.624,1.291 0.646,2.104 0.646,2.104 0,0 -2.521,-3.062 -3.222,-4.854 -0.702,-1.792 1,-8 1,-8 l -4,-7 3,0 1.466,0 c 0,0 -0.474,1.468 -0.466,1.968 0.007,0.5 1.898,3.688 2,5.032 C 0.725,-2.729 0.4,-1.414 0,0"/></g><g transform="translate(33.875,10.25)" id="g32"><path id="path34" style="fill:#292f33;fill-opacity:1;fill-rule:nonzero;stroke:none" d="m 0,0 c -0.515,0.586 -1.841,1.42 -3.128,2.153 0,0 -2.336,5.597 -3.622,7.264 -1.286,1.666 -3.667,3 -3.667,3 l -2.646,-1.479 c 0,0 1.706,-1.447 2.646,-3.063 0.941,-1.616 0.689,-3.52 0.745,-3.907 0.068,-0.468 0.06,-0.973 0.589,-1.76 1.044,-1.553 1.726,-1.54 2.183,-2.275 0.049,-0.146 0.099,-0.291 0.15,-0.433 0.14,-0.386 0.681,-0.655 0.792,-1.021 0.175,-0.577 0.877,-2.284 0.682,-3.09 -0.107,-0.438 -0.225,-1.521 -0.307,-2.014 -0.342,-2.042 0.765,-3.625 0.765,-3.625 l 6.943,0 c 0,0 -1,8.969 -2.125,10.25"/></g><g transform="translate(26.0977,13.7441)" id="g36"><path id="path38" style="fill:#ffac33;fill-opacity:1;fill-rule:nonzero;stroke:none" d="m 0,0 c -0.771,0.754 -1.187,1.897 -1.229,3.294 0.173,1.667 -4.663,4.923 -4.663,4.923 L -7.806,7.901 c 0,0 4.113,-1.681 4.708,-4.453 0.297,-1.381 -0.106,-3.27 -0.208,-4.11 -0.135,-1.118 0.66,-1.768 0.875,-2.832 0.111,-0.55 0.007,-1.693 -0.14,-2.878 -0.075,-0.603 -0.348,-1.176 -0.422,-1.727 -0.193,-1.423 -0.12,-2.471 0.228,-1.812 0.422,0.797 0.654,1.923 1.263,3.606 0.293,0.81 0.312,1.743 0.239,2.811 -0.031,0.461 0.111,1.01 0.061,1.52 -0.051,0.529 -0.294,1.021 -0.333,1.605 -0.011,0.166 0.03,0.738 0.092,1.443 0.073,-0.012 0.145,-0.053 0.216,-0.171 0.938,-1.562 0.764,-3.025 1.276,-2.581 C 0.461,-1.321 0.543,-0.531 0,0"/></g><g transform="translate(8.77,11.0029)" id="g40"><path id="path42" style="fill:#292f33;fill-opacity:1;fill-rule:nonzero;stroke:none" d="M 0,0 C 0,0 -4.437,-3.086 -5.604,-4.545 -6.77,-6.003 -8.77,-11.003 -8.77,-11.003 l 4.5,0 c 0,0 0.041,1.896 -0.156,2.688 -0.198,0.792 0.312,2.455 0.906,2.875 1.416,1 2.381,2.31 2.52,2.149 0.521,-0.605 0.521,-1.209 0.521,-1.209 0,0 0.499,1.379 0.521,2.542 C 0.063,-0.795 0,0 0,0"/></g><g transform="translate(18,23.4063)" id="g44"><path id="path46" style="fill:#ffac33;fill-opacity:1;fill-rule:nonzero;stroke:none" d="M 0,0 C 0,0 -3.844,1.094 -6.458,-1.25 -7.649,-2.317 -7.521,-3.302 -8,-5.656 c -0.479,-2.355 -1.861,-3.086 -2.063,-4.021 -0.395,-1.834 -1.852,-3.23 -2.416,-4.104 -0.329,-0.509 -0.758,-1.336 -1.038,-1.803 -0.587,-0.978 -1.014,-1.805 -1.066,-2.239 -0.125,-1.041 1.833,1.209 1.833,1.209 l 3.281,4.035 c -0.107,-2.301 -0.925,-4.738 -0.031,-4.515 0.75,0.188 1.362,1.136 1.016,2.156 -0.454,1.336 -0.338,2.483 -0.095,3.457 0.05,0.088 2.252,4.006 2.787,7.116 0.542,3.146 5.381,3.977 5.381,3.977 L 1.833,-1.25 2.25,-0.184 0,0 Z"/></g><g transform="translate(27.9531,19)" id="g48"><path id="path50" style="fill:#e95f28;fill-opacity:1;fill-rule:nonzero;stroke:none" d="m 0,0 c -1.328,1.75 -3.286,3.686 -4.233,3.988 -0.824,0.263 -0.428,-0.815 -0.428,-0.815 0,0 2.833,-1.236 4.27,-6.736 0.687,-2.624 2.766,-3.71 3.344,-5.343 1.938,-5.469 4.166,-6.463 2.943,-4.747 C 4.672,-11.938 1.328,-1.75 0,0"/></g><g transform="translate(17.981,17.4648)" id="g52"><path id="path54" style="fill:#e95f28;fill-opacity:1;fill-rule:nonzero;stroke:none" d="m 0,0 c -0.108,0.167 -0.205,0.306 -0.294,0.437 1.258,1.904 2.751,4.036 2.751,4.036 0,0 -2.912,0.293 -3,-0.032 -0.875,-3.218 -1.67,-4.237 -2.313,-6.281 -1.875,-5.958 1.211,-9.869 1.695,-8.625 0.389,1 -0.211,3.746 -0.672,5.373 -0.46,1.627 -0.266,2.002 -0.169,2.669 0.034,0.234 0.594,1.152 1.304,2.243 0.089,-0.071 0.172,-0.162 0.243,-0.29 0.446,-0.8 0.653,-2.259 0.753,-3.251 0.115,-1.138 1.134,-1.652 1.697,-1.25 C 2.557,-4.568 1.806,-2.55 0.584,-1.245 0.294,-0.935 0.191,-0.294 0,0"/></g><g transform="translate(23.9688,22.875)" id="g56"><path id="path58" style="fill:#e95f28;fill-opacity:1;fill-rule:nonzero;stroke:none" d="m 0,0 c 0,0 0.594,-1.156 -1.636,-1.135 -0.584,0.005 -0.86,-0.512 -1.625,-0.576 -0.635,-0.054 -1.509,0.242 -2.229,0.242 -0.72,0 -1.55,-0.491 -2.186,-0.438 -0.765,0.064 -1.659,0.834 -2.23,0.959 -1.062,0.232 -1.792,0.289 -1.792,0.646 0,0.357 1.207,0.788 2.271,1.021 0.571,0.124 1.058,-0.285 1.822,-0.221 0.636,0.053 1.291,0.102 2.011,0.102 0.721,0 1.415,0.43 2.051,0.377 C -2.777,0.913 -2.14,0.545 -1.563,0.442 -0.88,0.319 -0.476,0.197 -0.249,0.113 -0.065,0.044 0,0 0,0"/></g><g transform="translate(25.5313,29.0938)" id="g60"><path id="path62" style="fill:#ffac33;fill-opacity:1;fill-rule:nonzero;stroke:none" d="m 0,0 c 0,0 -3.455,1.365 -6.764,1.365 -3.309,0 -7.392,-1.886 -7.392,-1.886 3.25,-2.764 3.119,-5.698 3.119,-5.698 l 7.687,0 c 0,0 1.162,4.053 3.35,6.219"/></g><g transform="translate(22.1816,22.875)" id="g64"><path id="path66" style="fill:#ffac33;fill-opacity:1;fill-rule:nonzero;stroke:none" d="m 0,0 c 0,0 -0.056,-0.21 -0.4,-0.312 -0.091,-0.027 -0.307,0.047 -0.454,0 -0.173,-0.057 -0.486,-0.201 -0.64,-0.219 -0.166,-0.02 -0.546,0.094 -0.735,0.078 -0.343,-0.028 -0.519,-0.16 -0.921,-0.172 -0.274,-0.008 -0.402,0.098 -0.694,0.098 -0.109,0 -0.341,0.097 -0.525,0.09 -0.303,-0.013 -0.583,-0.13 -0.75,-0.125 -0.453,0.013 -0.545,0.216 -0.922,0.25 C -6.406,-0.28 -6.666,-0.453 -6.932,-0.406 -7.434,-0.317 -7.687,0 -7.687,0 c 0,0.291 1.72,0.527 3.843,0.527 C -1.721,0.527 0,0 0,0"/></g><g transform="translate(17.145,22.3179)" id="g68"><path id="path70" style="fill:#e95f28;fill-opacity:1;fill-rule:nonzero;stroke:none" d="M 0,0 C 0,0 -0.07,0.575 -0.301,1.367 -0.916,3.474 -0.895,4.995 -0.895,4.995 L -2.291,4.328 c 0,0 0.729,-1.396 1.305,-4.093 0,0 0.199,-0.005 0.429,-0.13 C -0.327,-0.019 0,0 0,0"/></g><g transform="translate(18.8428,22.2549)" id="g72"><path id="path74" style="fill:#e95f28;fill-opacity:1;fill-rule:nonzero;stroke:none" d="M 0,0 C 0.004,0.228 0.011,0.714 0.074,1.214 0.137,1.706 0.396,2.891 0.49,3.474 0.653,4.47 0.607,5.17 0.824,5.558 L -1.405,5.474 c 0,0 0.47,-0.931 0.583,-2.041 0.088,-0.866 0.001,-2.239 0.195,-3.327 0,0 0.063,-0.017 0.149,-0.023 C -0.435,0.079 -0.338,0.08 -0.286,0.071 -0.129,0.043 0,0 0,0"/></g><g transform="translate(21.0547,22.4551)" id="g76"><path id="path78" style="fill:#e95f28;fill-opacity:1;fill-rule:nonzero;stroke:none" d="m 0,0 c 0,0 0.462,1.455 0.62,2.446 0.257,1.613 1.714,3.985 2.107,4.38 L -0.102,6.92 c 0,0 0.07,-2.111 -0.057,-3.491 -0.096,-1.043 -0.599,-1.992 -0.519,-3.504 0,0 0.134,-0.05 0.311,-0.036 C -0.213,-0.1 0,0 0,0"/></g><g transform="translate(30.375,33.9604)" id="g80"><path id="path82" style="fill:#ccd6dd;fill-opacity:1;fill-rule:nonzero;stroke:none" d="m 0,0 c -0.045,0 -0.088,-0.01 -0.132,-0.013 -0.193,0.446 -0.636,0.76 -1.152,0.76 -0.236,0 -0.444,-0.082 -0.631,-0.195 -0.449,0.72 -1.241,1.204 -2.152,1.204 -0.815,0 -1.532,-0.39 -1.996,-0.985 -0.494,0.336 -1.088,0.533 -1.73,0.533 -1.154,0 -2.148,-0.643 -2.674,-1.584 -0.265,0.612 -0.874,1.041 -1.583,1.041 -0.551,0 -1.035,-0.262 -1.351,-0.664 -0.39,1.128 -1.449,1.943 -2.708,1.943 -1.015,0 -1.903,-0.529 -2.415,-1.322 -0.142,0.021 -0.283,0.043 -0.43,0.043 -0.802,0 -1.526,-0.329 -2.048,-0.859 -0.067,0.005 -0.132,0.02 -0.201,0.02 -0.034,0 -0.066,-0.008 -0.099,-0.009 -0.307,0.396 -0.782,0.656 -1.322,0.656 -0.526,0 -0.989,-0.247 -1.296,-0.627 -0.171,0.05 -0.348,0.085 -0.534,0.085 -1.061,0 -1.921,-0.86 -1.921,-1.921 0,-1.061 0.86,-1.921 1.921,-1.921 0.055,0 0.106,0.011 0.16,0.016 0.217,-0.271 0.536,-0.456 0.911,-0.456 0.045,0 0.084,0.021 0.129,0.026 0.473,-0.62 1.211,-1.026 2.051,-1.026 0.19,0 0.374,0.024 0.552,0.062 0.35,-0.278 0.758,-0.484 1.213,-0.576 0.644,-1.121 1.839,-1.884 3.225,-1.884 1.311,0 2.459,0.678 3.124,1.701 0.552,-0.677 1.382,-1.118 2.323,-1.118 1.393,0 2.553,0.95 2.897,2.233 0.026,0 0.05,-0.008 0.076,-0.008 0.367,0 0.714,0.075 1.041,0.194 0.516,-0.403 1.156,-0.653 1.862,-0.653 1.062,0 1.994,0.546 2.539,1.37 0.194,-0.139 0.419,-0.238 0.676,-0.238 0.482,0 0.894,0.291 1.077,0.705 0.188,-0.067 0.387,-0.111 0.598,-0.111 0.988,0 1.789,0.802 1.789,1.789 C 1.789,-0.801 0.988,0 0,0"/></g><g transform="translate(16.2744,31.2969)" id="g84"><path id="path86" style="fill:#aab8c2;fill-opacity:1;fill-rule:nonzero;stroke:none" d="m 0,0 c 0,-1.118 -0.906,-2.024 -2.024,-2.024 -1.119,0 -2.025,0.906 -2.025,2.024 0,1.118 0.906,2.024 2.025,2.024 C -0.906,2.024 0,1.118 0,0"/></g><g transform="translate(13.7515,31.4634)" id="g88"><path id="path90" style="fill:#aab8c2;fill-opacity:1;fill-rule:nonzero;stroke:none" d="m 0,0 c 0,-1.105 -0.896,-2.001 -2.001,-2.001 -1.106,0 -2.002,0.896 -2.002,2.001 0,1.105 0.896,2.001 2.002,2.001 C -0.896,2.001 0,1.105 0,0"/></g><g transform="translate(10.8936,31.3726)" id="g92"><path id="path94" style="fill:#aab8c2;fill-opacity:1;fill-rule:nonzero;stroke:none" d="m 0,0 c 0,-0.613 -0.497,-1.11 -1.11,-1.11 -0.613,0 -1.109,0.497 -1.109,1.11 0,0.613 0.496,1.11 1.109,1.11 C -0.497,1.11 0,0.613 0,0"/></g><g transform="translate(24.7686,32.3306)" id="g96"><path id="path98" style="fill:#aab8c2;fill-opacity:1;fill-rule:nonzero;stroke:none" d="m 0,0 c 0,-0.613 -0.497,-1.109 -1.109,-1.109 -0.614,0 -1.111,0.496 -1.111,1.109 0,0.613 0.497,1.11 1.111,1.11 C -0.497,1.11 0,0.613 0,0"/></g><g transform="translate(27.7031,32.7134)" id="g100"><path id="path102" style="fill:#aab8c2;fill-opacity:1;fill-rule:nonzero;stroke:none" d="m 0,0 c 0,-0.826 -0.669,-1.495 -1.495,-1.495 -0.825,0 -1.495,0.669 -1.495,1.495 0,0.826 0.67,1.495 1.495,1.495 C -0.669,1.495 0,0.826 0,0"/></g><g transform="translate(17.6079,31.7373)" id="g104"><path id="path106" style="fill:#aab8c2;fill-opacity:1;fill-rule:nonzero;stroke:none" d="m 0,0 c 0,-0.901 -0.73,-1.632 -1.632,-1.632 -0.901,0 -1.631,0.731 -1.631,1.632 0,0.901 0.73,1.631 1.631,1.631 C -0.73,1.631 0,0.901 0,0"/></g><g transform="translate(27.3379,31.8369)" id="g108"><path id="path110" style="fill:#aab8c2;fill-opacity:1;fill-rule:nonzero;stroke:none" d="m 0,0 c 0,-0.985 -0.798,-1.784 -1.783,-1.784 -0.986,0 -1.784,0.799 -1.784,1.784 0,0.985 0.798,1.784 1.784,1.784 C -0.798,1.784 0,0.985 0,0"/></g><g transform="translate(18.9531,31.1592)" id="g112"><path id="path114" style="fill:#aab8c2;fill-opacity:1;fill-rule:nonzero;stroke:none" d="m 0,0 c 0,-0.846 -0.686,-1.532 -1.532,-1.532 -0.846,0 -1.532,0.686 -1.532,1.532 0,0.846 0.686,1.532 1.532,1.532 C -0.686,1.532 0,0.846 0,0"/></g><g transform="translate(15.9028,32.4688)" id="g116"><path id="path118" style="fill:#aab8c2;fill-opacity:1;fill-rule:nonzero;stroke:none" d="m 0,0 c 0,-0.938 -0.761,-1.7 -1.7,-1.7 -0.939,0 -1.7,0.762 -1.7,1.7 0,0.939 0.761,1.7 1.7,1.7 C -0.761,1.7 0,0.939 0,0"/></g><g transform="translate(17.0215,30.7266)" id="g120"><path id="path122" style="fill:#aab8c2;fill-opacity:1;fill-rule:nonzero;stroke:none" d="m 0,0 c 0,-1.58 -1.28,-2.86 -2.86,-2.86 -1.579,0 -2.86,1.28 -2.86,2.86 0,1.58 1.281,2.86 2.86,2.86 C -1.28,2.86 0,1.58 0,0"/></g></g></g></g></svg>
