<svg xmlns="http://www.w3.org/2000/svg" viewBox="0 0 45 45" enable-background="new 0 0 45 45"><defs><clipPath id="a"><path d="M0 36h36V0H0v36z"/></clipPath><clipPath id="b"><path d="M18 36C8.06 36 0 27.94 0 18S8.06 0 18 0s18 8.06 18 18-8.06 18-18 18z"/></clipPath></defs><g><g><g clip-path="url(#a)" transform="matrix(1.25 0 0 -1.25 0 45)"><g><path fill="#88c9f9" d="M36 18c0-9.94-8.06-18-18-18S0 8.06 0 18s8.06 18 18 18 18-8.06 18-18"/></g></g></g><g><g clip-path="url(#b)" transform="matrix(1.25 0 0 -1.25 0 45)"><g><path fill="#5c913b" d="M7.7 34.13c2.3-.44 3.43 0 4.3-.32.87-.3.06-.74.7-1.1.6-.4.8-.33 1.3-.14.5.2.87.9 1.25.63.37-.28 1.7-.04 2-.5.3-.48.75-.85 1.44-.5.68.33 3.3.65 4 .22.68-.42 2.42-.5 3.1-.6.7-.12 2.45-.18 2.2-.47-.25-.3.7-.1.2-.8-.5-.67-2.45-2.1-2.64-1.92-.2.18-.37 1.06-1 1-.62-.07-1.5.12-1.56-.63-.06-.75-1-1.7-.3-1.7.68 0 1.36.7 1.55 0 .2-.68.06-1.05-.13-1.43-.18-.37.25-.37-.74-.62-1-.25-.57.56-1-.25-.44-.8-1.44-1.06-1.2-1.75.26-.7.45-1.06.5-1.63.07-.56-.62-1.25-1-1.75-.37-.5-.8-1-1.37-1.12-.55-.13-1-.25-1.3-1.06-.3-.83.34-2-.58-1.9-.92.14-1.42.7-1.48 1.14-.06.43-1 1.3-1.07 1.56-.06.25-1.25 1.13-1.25 1.13s-.75-.75-.75-1.63c0-.88.25-1.94.25-1.94s-.3-.43-.93.07c-.64.5-1.32.62-1.64 1.3-.3.7-.68 1.88-.68 2.32 0 .44-.76 1.38-1.07 1.38-.3 0-1.86-.2-2-.44-.1-.26-.5-.7-.8-1-.3-.32-1.2-1.45-1.5-1.26-.3.18-1.56.87-1.56 1.5 0 .62-.88.25-.94 1.25-.06 1-.5 1.86-.62.93-.13-.94-.07-1.25.3-2.38.38-1.13.63-1.5 1.2-1.75.56-.25.25-.7 1.18-.56.94.12 1.5.43 1.56.06.07-.38.57-1.08-.37-1.7-.94-.6-.8-.68-1.38-1.24C3.3 14 2.75 14.2 2.75 13c0-1.2 0-1.38.06-2.38.08-1 .2-1.93-.67-2.43-.88-.5-3.76 3-4 5-.26 2-1.32 8.67-.94 10.24.36 1.56 2.36 6.37 3.18 7.3.8.95 5.3 3.76 7.3 3.38"/></g><g><path fill="#5c913b" d="M15.94 14.7c0-.7-.5-1.45 0-2.14.5-.7.93-.7 1.37-.75.45-.05 1.7 0 .7.82s-1.56.2-1.44 1.13c.13.94-.62.94-.62.94"/></g><g><path fill="#5c913b" d="M22.94 24.7c0-.7-.5-1.45 0-2.14.5-.7-1-1.25-.56-1.3.43-.07 2.3.18 1.3 1-1 .8-.24.55-.12 1.5.13.93-.62.93-.62.93"/></g><g><path fill="#5c913b" d="M18.38 13.75c.44.83.93.8 1.43.44.5-.4 2-1.07 1.2-1.4-.8-.3-.57-1-1.2-.3-.6.7-1.92.3-1.42 1.25"/></g><g><path fill="#5c913b" d="M22.3 13.24c.35-.17.9-.74 1.64-.68.75.07.7-.78 1.44-.76.75 0 1.43-.17 1.74-.55.32-.37 1.7-.94.9-1-.77-.06-1.08.5-1.9.75-.8.25-.87-.44-1.74.06-.88.5-1.82-.22-2.07.74-.24.95-.72 1.82 0 1.44"/></g><g><path fill="#5c913b" d="M15.72 8.5c.57.56.97.94 1.84 1.38.88.43 2.38 1.06 2.75 1.12.4.06.83.23 1.08-.26.25-.5.56-.68 1.06-.5.5.2 1.08.08 1.46-.23.37-.3 1.3-.87 1.6-1.5.3-.63.94-.5.75-1.25-.2-.75.06-1.94-.62-2.56-.7-.64-1.13-1.4-1.88-1.76-.75-.38-2.73.56-2.73 1.12S20.3 5.1 19.75 5.6s-.87.4-1.37.02c-.5-.37-.32-.75-.94-.87-.63-.13-2.3-1.44-2.23-.44.07 1 .92 2.76.52 3.33-.4.56-.9 0 0 .87"/></g></g></g></g></svg>