<svg xmlns="http://www.w3.org/2000/svg" viewBox="0 0 45 45" enable-background="new 0 0 45 45"><defs><clipPath id="a"><path d="M4 36c-2.2 0-4-1.8-4-4V4c0-2.2 1.8-4 4-4h28c2.2 0 4 1.8 4 4v28c0 2.2-1.8 4-4 4H4z"/></clipPath></defs><g><g><g clip-path="url(#a)" transform="matrix(1.25 0 0 -1.25 0 45)"><path fill="#004a77" d="M36-2H-2v38h38V-2z"/><g><path fill="#fe5011" d="M-2 9v2c.12.05 11.26 4.45 18 16l2-1C10.9 13.85-1.5 9.2-2 9"/></g><g><path fill="#fe5011" d="M20 27s0 2-2 2-2-2-2-2V-1h4v28z"/></g><path fill="#fe5011" d="M36 5H0v4h36V5z"/><g><path fill="#fe5011" d="M38 9v2c-.12.05-11.26 4.45-18 16l-2-1C25.1 13.85 37.5 9.2 38 9"/></g><path fill="#fe5011" d="M10 8h2v11h-2V8z"/><path fill="#fe5011" d="M26 8h-2v11h2V8z"/><path fill="#fe5011" d="M4 8h2v6H4V8z"/><path fill="#fe5011" d="M32 7h-2v7h2V7z"/><g><path fill="#fff" d="M6.5 29C5.12 29 4 30.12 4 31.5c0 1.13.76 2.07 1.78 2.38-.25.07-.5.12-.78.12-1.66 0-3-1.34-3-3s1.34-3 3-3c.96 0 1.8.46 2.35 1.16-.27-.1-.55-.16-.85-.16"/></g><g><path fill="#fff" d="M11 33.5c0-.28-.22-.5-.5-.5s-.5.22-.5.5.22.5.5.5.5-.22.5-.5"/></g><g><path fill="#fff" d="M27 24.5c0-.28-.22-.5-.5-.5s-.5.22-.5.5.22.5.5.5.5-.22.5-.5"/></g><g><path fill="#fff" d="M8 24.5c0-.28-.22-.5-.5-.5s-.5.22-.5.5.22.5.5.5.5-.22.5-.5"/></g><g><path fill="#fff" d="M23 31c0-.55-.45-1-1-1s-1 .45-1 1 .45 1 1 1 1-.45 1-1"/></g><g><path fill="#fff" d="M5 19c0-.55-.45-1-1-1s-1 .45-1 1 .45 1 1 1 1-.45 1-1"/></g><g><path fill="#fff" d="M13 29c0-.55-.45-1-1-1s-1 .45-1 1 .45 1 1 1 1-.45 1-1"/></g><g><path fill="#fff" d="M33 19c0-.55-.45-1-1-1s-1 .45-1 1 .45 1 1 1 1-.45 1-1"/></g><g><path fill="#fff" d="M27 30.5c0-.28-.22-.5-.5-.5s-.5.22-.5.5.22.5.5.5.5-.22.5-.5"/></g><g><path fill="#fff" d="M32 33c0-.55-.45-1-1-1s-1 .45-1 1 .45 1 1 1 1-.45 1-1"/></g><g><path fill="#fff" d="M32 28.5c0-.28-.22-.5-.5-.5s-.5.22-.5.5.22.5.5.5.5-.22.5-.5"/></g></g></g></g></svg>