<svg xmlns="http://www.w3.org/2000/svg" viewBox="0 0 45 45" enable-background="new 0 0 45 45"><defs><clipPath id="a"><path d="M0 36h36V0H0v36z"/></clipPath></defs><g><g><g clip-path="url(#a)" transform="matrix(1.25 0 0 -1.25 0 45)"><g><path fill="#269" d="M33.4 12.32c-7.56-4.87-20.06.44-18.38 8.06 1.48 6.7 9.42 4.77 11.23 3.87 1.8-.9.7 3.88-3.48 5.32-5.67 1.95-12.6 1.54-14.8-8.25-1.5-6.68 1.43-16.06 12.7-16.18C31.98 5 33.4 12.32 33.4 12.32"/></g><g><path fill="#55acee" d="M36 10.8c0 2.15-2.77 2.34-4 1.13C29 9 24.6 7.9 18.7 9.06c-10.26 2-10.35 14.02-3.34 17.45 3.8 1.86 8.3-.34 10-1.65 1.48-1.14 4.33-2.66 4.18-.75-.32 4.06-8.28 12.76-18.94 7.26C-.07 25.86 0 13.46 0 11.2V3.95C0 1.75 1.8 0 4.02 0h28C34.22 0 36 1.74 36 3.95c0 0 0 6.85 0 6.86"/></g></g></g></g></svg>