<svg xmlns="http://www.w3.org/2000/svg" viewBox="0 0 45 45" enable-background="new 0 0 45 45"><defs><clipPath id="a"><path d="M0 36h36V0H0v36z"/></clipPath></defs><g><g><g clip-path="url(#a)" transform="matrix(1.25 0 0 -1.25 0 45)"><g><path fill="#ccd6dd" d="M18 36V0C8.06 0 0 8.06 0 18s8.06 18 18 18"/></g><g><path fill="#66757f" d="M36 18c0-9.94-8.06-18-18-18v36c9.94 0 18-8.06 18-18"/></g><g><path fill="#b8c5cd" d="M14 27.5c0-1.93-1.57-3.5-3.5-3.5S7 25.57 7 27.5 8.57 31 10.5 31s3.5-1.57 3.5-3.5"/></g><g><path fill="#5b6876" d="M27 20c0-1.66-1.34-3-3-3s-3 1.34-3 3 1.34 3 3 3 3-1.34 3-3"/></g><g><path fill="#5b6876" d="M26 8.5C26 6.57 24.43 5 22.5 5S19 6.57 19 8.5s1.57 3.5 3.5 3.5S26 10.43 26 8.5"/></g><g><path fill="#5b6876" d="M23 30c0-1.1-.9-2-2-2s-2 .9-2 2 .9 2 2 2 2-.9 2-2"/></g><g><path fill="#b8c5cd" d="M2 18c0-.55.45-1 1-1s1 .45 1 1-.45 1-1 1-1-.45-1-1"/></g><g><path fill="#5b6876" d="M29 27c0-.55.45-1 1-1s1 .45 1 1-.45 1-1 1-1-.45-1-1"/></g><g><path fill="#b8c5cd" d="M14 5c0-.55.45-1 1-1s1 .45 1 1-.45 1-1 1-1-.45-1-1"/></g><g><path fill="#5b6876" d="M34 17c0-1.1-.9-2-2-2s-2 .9-2 2 .9 2 2 2 2-.9 2-2"/></g><g><path fill="#b8c5cd" d="M12 13c0-1.1-.9-2-2-2s-2 .9-2 2 .9 2 2 2 2-.9 2-2"/></g></g></g></g></svg>