<svg xmlns="http://www.w3.org/2000/svg" viewBox="0 0 45 45" enable-background="new 0 0 45 45"><defs><clipPath id="a"><path d="M0 36h36V0H0v36z"/></clipPath></defs><g><g><g clip-path="url(#a)" transform="matrix(1.25 0 0 -1.25 0 45)"><g><path fill="#3b88c3" d="M25.36 3.8c1 1.2 1.9 2.6 2.62 4.2h2.5c-1.4-1.73-3.13-3.17-5.12-4.2M5.52 8h2.5c.72-1.6 1.6-3 2.62-4.2-2 1.03-3.73 2.47-5.12 4.2m5.12 24.2c-1-1.2-1.9-2.6-2.62-4.2h-2.5c1.4 1.73 3.13 3.17 5.12 4.2M30.48 28h-2.5c-.72 1.6-1.6 3-2.62 4.2 2-1.03 3.73-2.47 5.12-4.2m-.5-9c-.1 2.5-.54 4.87-1.24 7h3.1c1.2-2.08 1.95-4.46 2.1-7h-3.97zm0-2h3.97c-.16-2.54-.9-4.92-2.1-7h-3.1c.7 2.13 1.12 4.5 1.22 7M19 10v7h8.97c-.1-2.54-.56-4.92-1.32-7H19zm0-7.92V8h6.8c-1.64-3.26-4.05-5.48-6.8-5.92M17 8V2.08c-2.75.44-5.16 2.66-6.8 5.92H17zm-8.97 9H17v-7H9.35c-.76 2.08-1.22 4.46-1.32 7m-2 2H2.05c.16 2.54.9 4.92 2.1 7h3.1c-.7-2.13-1.12-4.5-1.22-7M17 26v-7H8.03c.1 2.54.56 4.92 1.32 7H17zm0 7.92V28h-6.8c1.64 3.26 4.05 5.48 6.8 5.92M26.65 26c.76-2.08 1.22-4.46 1.32-7H19v7h7.65zM19 28v5.92c2.75-.44 5.16-2.66 6.8-5.92H19zM2.05 17h3.98c.1-2.5.53-4.87 1.23-7h-3.1c-1.2 2.08-1.95 4.46-2.1 7M18 36C8.06 36 0 27.94 0 18S8.06 0 18 0s18 8.06 18 18-8.06 18-18 18"/></g></g></g></g></svg>