<svg xmlns="http://www.w3.org/2000/svg" viewBox="0 0 45 45" enable-background="new 0 0 45 45"><defs><clipPath id="a"><path d="M0 36h36V0H0v36z"/></clipPath></defs><g><g><g clip-path="url(#a)" transform="matrix(1.25 0 0 -1.25 0 45)"><g><path fill="#66757f" d="M36 18c0-9.94-8.06-18-18-18S0 8.06 0 18s8.06 18 18 18 18-8.06 18-18"/></g><g><path fill="#5b6876" d="M13 28.5c0-1.93-1.57-3.5-3.5-3.5S6 26.57 6 28.5 7.57 32 9.5 32s3.5-1.57 3.5-3.5"/></g><g><path fill="#5b6876" d="M28 7.5C28 5.57 26.43 4 24.5 4S21 5.57 21 7.5s1.57 3.5 3.5 3.5S28 9.43 28 7.5"/></g><g><path fill="#5b6876" d="M24 31c0-1.1-.9-2-2-2s-2 .9-2 2 .9 2 2 2 2-.9 2-2"/></g><g><path fill="#5b6876" d="M2 18c0-.55.45-1 1-1s1 .45 1 1-.45 1-1 1-1-.45-1-1"/></g><g><path fill="#5b6876" d="M29 27c0-.55.45-1 1-1s1 .45 1 1-.45 1-1 1-1-.45-1-1"/></g><g><path fill="#5b6876" d="M15 5c0-.55.45-1 1-1s1 .45 1 1-.45 1-1 1-1-.45-1-1"/></g><g><path fill="#5b6876" d="M34 17c0-1.1-.9-2-2-2s-2 .9-2 2 .9 2 2 2 2-.9 2-2"/></g><g><path fill="#5b6876" d="M8 10c0-1.1-.9-2-2-2s-2 .9-2 2 .9 2 2 2 2-.9 2-2"/></g><g><path fill="#4f585d" d="M18 11.1c-7 0-9 2.6-9 1.38C9 11.24 13 8 18 8s9 3.24 9 4.48c0 1.23-2-1.38-9-1.38"/></g><g><path fill="#4f585d" d="M27 21c0-1.66-1.34-3-3-3s-3 1.34-3 3 1.34 3 3 3 3-1.34 3-3"/></g><g><path fill="#4f585d" d="M15 21c0-1.66-1.34-3-3-3s-3 1.34-3 3 1.34 3 3 3 3-1.34 3-3"/></g></g></g></g></svg>