<svg xmlns="http://www.w3.org/2000/svg" viewBox="0 0 45 45" enable-background="new 0 0 45 45"><defs><clipPath id="a"><path d="M0 36h36V0H0v36z"/></clipPath></defs><g><g><g clip-path="url(#a)" transform="matrix(1.25 0 0 -1.25 0 45)"><g><path fill="#ccd6dd" d="M18 36V0c9.94 0 18 8.06 18 18s-8.06 18-18 18"/></g><g><path fill="#66757f" d="M0 18C0 8.06 8.06 0 18 0v36C8.06 36 0 27.94 0 18"/></g><g><path fill="#b8c5cd" d="M22 27.5c0-1.93 1.57-3.5 3.5-3.5s3.5 1.57 3.5 3.5-1.57 3.5-3.5 3.5-3.5-1.57-3.5-3.5"/></g><g><path fill="#5b6876" d="M9 20c0-1.66 1.34-3 3-3s3 1.34 3 3-1.34 3-3 3-3-1.34-3-3"/></g><g><path fill="#5b6876" d="M10 8.5C10 6.57 11.57 5 13.5 5S17 6.57 17 8.5 15.43 12 13.5 12 10 10.43 10 8.5"/></g><g><path fill="#5b6876" d="M13 30c0-1.1.9-2 2-2s2 .9 2 2-.9 2-2 2-2-.9-2-2"/></g><g><path fill="#b8c5cd" d="M34 18c0-.55-.45-1-1-1s-1 .45-1 1 .45 1 1 1 1-.45 1-1"/></g><g><path fill="#5b6876" d="M7 27c0-.55-.45-1-1-1s-1 .45-1 1 .45 1 1 1 1-.45 1-1"/></g><g><path fill="#b8c5cd" d="M22 5c0-.55-.45-1-1-1s-1 .45-1 1 .45 1 1 1 1-.45 1-1"/></g><g><path fill="#5b6876" d="M2 17c0-1.1.9-2 2-2s2 .9 2 2-.9 2-2 2-2-.9-2-2"/></g><g><path fill="#b8c5cd" d="M24 13c0-1.1.9-2 2-2s2 .9 2 2-.9 2-2 2-2-.9-2-2"/></g></g></g></g></svg>