<svg xmlns="http://www.w3.org/2000/svg" viewBox="0 0 45 45" enable-background="new 0 0 45 45"><defs><clipPath id="a"><path d="M0 36h36V0H0v36z"/></clipPath></defs><g><g><g clip-path="url(#a)" transform="matrix(1.25 0 0 -1.25 0 45)"><g><path fill="#ccd6dd" d="M36 18c0-9.94-8.06-18-18-18S0 8.06 0 18s8.06 18 18 18 18-8.06 18-18"/></g><g><path fill="#b8c5cd" d="M14 27.5c0-1.93-1.57-3.5-3.5-3.5S7 25.57 7 27.5 8.57 31 10.5 31s3.5-1.57 3.5-3.5"/></g><g><path fill="#b8c5cd" d="M23 19c0-1.66-1.34-3-3-3s-3 1.34-3 3 1.34 3 3 3 3-1.34 3-3"/></g><g><path fill="#b8c5cd" d="M28 7.5C28 5.57 26.43 4 24.5 4S21 5.57 21 7.5s1.57 3.5 3.5 3.5S28 9.43 28 7.5"/></g><g><path fill="#b8c5cd" d="M24 31c0-1.1-.9-2-2-2s-2 .9-2 2 .9 2 2 2 2-.9 2-2"/></g><g><path fill="#b8c5cd" d="M2 18c0-.55.45-1 1-1s1 .45 1 1-.45 1-1 1-1-.45-1-1"/></g><g><path fill="#b8c5cd" d="M29 27c0-.55.45-1 1-1s1 .45 1 1-.45 1-1 1-1-.45-1-1"/></g><g><path fill="#b8c5cd" d="M14 5c0-.55.45-1 1-1s1 .45 1 1-.45 1-1 1-1-.45-1-1"/></g><g><path fill="#b8c5cd" d="M34 17c0-1.1-.9-2-2-2s-2 .9-2 2 .9 2 2 2 2-.9 2-2"/></g><g><path fill="#b8c5cd" d="M12 13c0-1.1-.9-2-2-2s-2 .9-2 2 .9 2 2 2 2-.9 2-2"/></g></g></g></g></svg>