<svg xmlns="http://www.w3.org/2000/svg" viewBox="0 0 45 45" enable-background="new 0 0 45 45"><defs><clipPath id="a"><path d="M0 36h36V0H0v36z"/></clipPath></defs><g><g><g clip-path="url(#a)" transform="matrix(1.25 0 0 -1.25 0 45)"><g><path fill="#ccd6dd" d="M30.3 35.22C32 17 20 4 .8 5.7c8.2-7.73 21.1-7.6 29.1.42 8.02 8 8.15 20.9.43 29.1"/></g><g><path fill="#b8c5cd" d="M30.7 20.09c-.45-.47-.45-1.2 0-1.66.46-.45 1.2-.45 1.65 0 .45.46.45 1.2 0 1.65-.46.44-1.2.44-1.64-.02"/></g><g><path fill="#b8c5cd" d="M14.68 5.7c-.68-.68-.68-1.78 0-2.46.68-.68 1.8-.68 2.47 0 .68.68.68 1.78 0 2.47-.68.7-1.8.7-2.47 0"/></g><g><path fill="#b8c5cd" d="M28.65 7.85c-1.13-1.13-2.97-1.13-4.1 0-1.14 1.14-1.14 2.98 0 4.1 1.13 1.14 2.97 1.14 4.1 0 1.14-1.12 1.14-2.96 0-4.1"/></g></g></g></g></svg>