<svg xmlns="http://www.w3.org/2000/svg" viewBox="0 0 45 45" enable-background="new 0 0 45 45"><defs><clipPath id="a"><path d="M0 36h36V0H0v36z"/></clipPath></defs><g><g><g clip-path="url(#a)" transform="matrix(1.25 0 0 -1.25 0 45)"><g><path fill="#ccd6dd" d="M36 18c0-9.94-8.06-18-18-18-.3 0-.58.03-.87.04C11.23 2.6 7 9.67 7 18s4.24 15.4 10.13 17.96c.3 0 .58.04.87.04 9.94 0 18-8.06 18-18"/></g><g><path fill="#66757f" d="M7 18c0 8.33 4.24 15.4 10.13 17.96C7.6 35.5 0 27.66 0 18 0 8.35 7.6.5 17.13.04 11.23 2.6 7 9.67 7 18"/></g><g><path fill="#b8c5cd" d="M22 27.5c0-1.93 1.57-3.5 3.5-3.5s3.5 1.57 3.5 3.5-1.57 3.5-3.5 3.5-3.5-1.57-3.5-3.5"/></g><g><path fill="#b8c5cd" d="M13 20c0-1.66 1.34-3 3-3s3 1.34 3 3-1.34 3-3 3-3-1.34-3-3"/></g><g><path fill="#b8c5cd" d="M11 8.5C11 6.57 12.57 5 14.5 5S18 6.57 18 8.5 16.43 12 14.5 12 11 10.43 11 8.5"/></g><g><path fill="#b8c5cd" d="M13 30c0-1.1.9-2 2-2s2 .9 2 2-.9 2-2 2-2-.9-2-2"/></g><g><path fill="#b8c5cd" d="M34 18c0-.55-.45-1-1-1s-1 .45-1 1 .45 1 1 1 1-.45 1-1"/></g><g><path fill="#5b6876" d="M7 27c0-.55-.45-1-1-1s-1 .45-1 1 .45 1 1 1 1-.45 1-1"/></g><g><path fill="#b8c5cd" d="M22 5c0-.55-.45-1-1-1s-1 .45-1 1 .45 1 1 1 1-.45 1-1"/></g><g><path fill="#5b6876" d="M2 17c0-1.1.9-2 2-2s2 .9 2 2-.9 2-2 2-2-.9-2-2"/></g><g><path fill="#b8c5cd" d="M24 13c0-1.1.9-2 2-2s2 .9 2 2-.9 2-2 2-2-.9-2-2"/></g></g></g></g></svg>