<svg xmlns="http://www.w3.org/2000/svg" viewBox="0 0 45 45" enable-background="new 0 0 45 45"><defs><clipPath id="a"><path d="M0 36h36V0H0v36z"/></clipPath></defs><g><g><g clip-path="url(#a)" transform="matrix(1.25 0 0 -1.25 0 45)"><g><path fill="#ccd6dd" d="M11 23c0 4.98 1.93 9.5 5.07 12.9C7.04 34.92 0 27.3 0 18 0 8.06 8.06 0 18 0c4.3 0 8.25 1.5 11.35 4.03-7.17.25-13.3 4.45-16.35 10.5-.63 1.22 2.8 1.2 2.96 3.47.15 2.13-4.96 2.74-4.96 5"/></g><g><path fill="#b8c5cd" d="M14 7.5C14 5.57 12.43 4 10.5 4S7 5.57 7 7.5 8.57 11 10.5 11 14 9.43 14 7.5"/></g><g><path fill="#b8c5cd" d="M8 29c0-.55.45-1 1-1s1 .45 1 1-.45 1-1 1-1-.45-1-1"/></g><g><path fill="#b8c5cd" d="M17 4c0-.55.45-1 1-1s1 .45 1 1-.45 1-1 1-1-.45-1-1"/></g><g><path fill="#b8c5cd" d="M5 16c0-1.1-.9-2-2-2s-2 .9-2 2 .9 2 2 2 2-.9 2-2"/></g><g><path fill="#99aab5" d="M16.2 9.98c-.77.82-1.48 1.7-2.1 2.65-5.45-1.23-7.64.27-7.32-.8.34-1.16 4.8-3.02 9.42-1.85"/></g><g><path fill="#99aab5" d="M10 21.5c0-1.38-1.12-2.5-2.5-2.5S5 20.12 5 21.5 6.12 24 7.5 24s2.5-1.12 2.5-2.5"/></g></g></g></g></svg>