<svg xmlns="http://www.w3.org/2000/svg" viewBox="0 0 45 45" enable-background="new 0 0 45 45"><defs><clipPath id="a"><path d="M0 36h36V0H0v36z"/></clipPath></defs><g><g><g clip-path="url(#a)" transform="matrix(1.25 0 0 -1.25 0 45)"><g><path fill="#ccd6dd" d="M25 23c0 4.98-1.93 9.5-5.07 12.9C28.96 34.92 36 27.3 36 18c0-9.94-8.06-18-18-18-4.3 0-8.25 1.5-11.35 4.03 7.17.25 13.3 4.45 16.35 10.5.63 1.22-2.8 1.2-2.96 3.47-.15 2.13 4.96 2.74 4.96 5"/></g><g><path fill="#b8c5cd" d="M22 7.5C22 5.57 23.57 4 25.5 4S29 5.57 29 7.5 27.43 11 25.5 11 22 9.43 22 7.5"/></g><g><path fill="#b8c5cd" d="M28 29c0-.55-.45-1-1-1s-1 .45-1 1 .45 1 1 1 1-.45 1-1"/></g><g><path fill="#b8c5cd" d="M19 4c0-.55-.45-1-1-1s-1 .45-1 1 .45 1 1 1 1-.45 1-1"/></g><g><path fill="#b8c5cd" d="M31 16c0-1.1.9-2 2-2s2 .9 2 2-.9 2-2 2-2-.9-2-2"/></g><g><path fill="#99aab5" d="M19.8 9.98c.77.82 1.48 1.7 2.1 2.65 5.45-1.23 7.64.27 7.32-.8-.34-1.16-4.8-3.02-9.42-1.85"/></g><g><path fill="#99aab5" d="M26 21.5c0-1.38 1.12-2.5 2.5-2.5s2.5 1.12 2.5 2.5-1.12 2.5-2.5 2.5-2.5-1.12-2.5-2.5"/></g></g></g></g></svg>