<svg xmlns="http://www.w3.org/2000/svg" viewBox="0 0 45 45" enable-background="new 0 0 45 45"><defs><clipPath id="a"><path d="M0 36h36V0H0v36z"/></clipPath></defs><g><g><g clip-path="url(#a)" transform="matrix(1.25 0 0 -1.25 0 45)"><g><path fill="#e1e8ed" d="M28 32c-.82 0-1.62-.13-2.37-.36-.9 2.54-3.3 4.36-6.13 4.36-3.04 0-5.6-2.1-6.3-4.92-.75.57-1.68.92-2.7.92C8.02 32 6 29.98 6 27.5c0-.6.12-1.18.34-1.7-.43.1-.87.2-1.34.2-2.76 0-5-2.24-5-5s2.24-5 5-5h23c4.42 0 8 3.58 8 8s-3.58 8-8 8"/></g><g><path fill="#5dadec" d="M4 4.5c0-.28-.22-.5-.5-.5s-.5.22-.5.5v6c0 .28.22.5.5.5s.5-.22.5-.5v-6z"/></g><g><path fill="#5dadec" d="M6.35 6.43c.24-.14.32-.44.18-.68-.14-.24-.44-.32-.68-.18l-5.2 3C.4 8.7.33 9 .47 9.25c.14.24.44.32.68.18l5.2-3z"/></g><g><path fill="#5dadec" d="M.65 6.43C.4 6.3.33 6 .47 5.75c.14-.24.44-.32.68-.18l5.2 3c.24.13.32.44.18.68-.14.24-.44.32-.68.18l-5.2-3z"/></g><g><path fill="#5dadec" d="M14 .5c0-.28-.22-.5-.5-.5s-.5.22-.5.5v6c0 .28.22.5.5.5s.5-.22.5-.5v-6z"/></g><g><path fill="#5dadec" d="M16.35 2.43c.24-.14.32-.44.18-.68-.14-.24-.44-.32-.68-.18l-5.2 3c-.24.13-.32.44-.18.68.14.24.44.32.68.18l5.2-3z"/></g><g><path fill="#5dadec" d="M10.65 2.43c-.24-.14-.32-.44-.18-.68.14-.24.44-.32.68-.18l5.2 3c.24.13.32.44.18.68-.14.24-.44.32-.68.18l-5.2-3z"/></g><g><path fill="#5dadec" d="M12 8.5c0-.28-.22-.5-.5-.5s-.5.22-.5.5v6c0 .28.22.5.5.5s.5-.22.5-.5v-6z"/></g><g><path fill="#5dadec" d="M14.35 10.43c.24-.14.32-.44.18-.68-.14-.24-.44-.32-.68-.18l-5.2 3c-.24.13-.32.44-.18.68.14.24.44.32.68.18l5.2-3z"/></g><g><path fill="#5dadec" d="M8.65 10.43c-.24-.14-.32-.44-.18-.68.14-.24.44-.32.68-.18l5.2 3c.24.13.32.44.18.68-.14.24-.44.32-.68.18l-5.2-3z"/></g><g><path fill="#5dadec" d="M22 7.5c0-.28-.22-.5-.5-.5s-.5.22-.5.5v6c0 .28.22.5.5.5s.5-.22.5-.5v-6z"/></g><g><path fill="#5dadec" d="M24.35 9.43c.24-.14.32-.44.18-.68-.14-.24-.44-.32-.68-.18l-5.2 3c-.24.13-.32.44-.18.68.14.24.44.32.68.18l5.2-3z"/></g><g><path fill="#5dadec" d="M18.65 9.43c-.24-.14-.32-.44-.18-.68.14-.24.44-.32.68-.18l5.2 3c.24.13.32.44.18.68-.14.24-.44.32-.68.18l-5.2-3z"/></g><g><path fill="#5dadec" d="M32 8.5c0-.28-.22-.5-.5-.5s-.5.22-.5.5v6c0 .28.22.5.5.5s.5-.22.5-.5v-6z"/></g><g><path fill="#5dadec" d="M34.35 10.43c.24-.14.32-.44.18-.68-.14-.24-.44-.32-.68-.18l-5.2 3c-.24.13-.32.44-.18.68.14.24.44.32.68.18l5.2-3z"/></g><g><path fill="#5dadec" d="M28.65 10.43c-.24-.14-.32-.44-.18-.68.14-.24.44-.32.68-.18l5.2 3c.24.13.32.44.18.68-.14.24-.44.32-.68.18l-5.2-3z"/></g><g><path fill="#5dadec" d="M27 .5c0-.28-.22-.5-.5-.5s-.5.22-.5.5v6c0 .28.22.5.5.5s.5-.22.5-.5v-6z"/></g><g><path fill="#5dadec" d="M29.35 2.43c.24-.14.32-.44.18-.68-.14-.24-.44-.32-.68-.18l-5.2 3c-.24.13-.32.44-.18.68.14.24.44.32.68.18l5.2-3z"/></g><g><path fill="#5dadec" d="M23.65 2.43c-.24-.14-.32-.44-.18-.68.14-.24.44-.32.68-.18l5.2 3c.24.13.32.44.18.68-.14.24-.44.32-.68.18l-5.2-3z"/></g></g></g></g></svg>