<svg xmlns="http://www.w3.org/2000/svg" viewBox="0 0 45 45" enable-background="new 0 0 45 45"><defs><clipPath id="a"><path d="M0 36h36V0H0v36z"/></clipPath></defs><g><g><g clip-path="url(#a)" transform="matrix(1.25 0 0 -1.25 0 45)"><g><path fill="#ffcc4d" d="M26.3 22.5l-.17.18-9.18 9.14c2.8-3.28 2.16-7.78-1.62-10.3-3.67-2.47-9-2.2-12.4.5l5.24-5.32 2.46-2.47c1.22-1.22 3.13-1.75 4.53-1.7 1.06.02 1.84.37 1.8 1 0 .36.2.65.54.88 1.1.74 3.6.84 5.1.54.5-.1.96-.1 1.4 0 1.34.3 2.4 1.36 3.04 2.6.65 1.27.86 2.7.5 3.7 0 0 0 .02 0 .03L26.3 22.5z"/></g><g><path fill="#ffac33" d="M19 18.53c-.37.4-1.1.5-1.6.22-.53-.27-.62-.8-.23-1.2.38-.38 1.1-.48 1.62-.2.5.26.6.8.2 1.18"/></g><g><path fill="#d99e82" d="M24.46 19.72c-.4.4-.9.27-1.15-.27-.23-.53-.1-1.28.28-1.67.4-.4.9-.27 1.14.26.24.54.13 1.3-.26 1.68"/></g><g><path fill="#ffac33" d="M21.9 24.1c-.26-.52-.8-.62-1.2-.23-.37.4-.47 1.12-.2 1.63.26.5.8.6 1.18.22.4-.4.5-1.12.22-1.63"/></g><g><path fill="#d99e82" d="M12.75 14.94c-.6-.2-1.38-.04-1.76.35-.4.38-.25.85.34 1.04.58.2 1.37.04 1.76-.35.4-.4.23-.87-.35-1.06"/></g><g><path fill="#bdbdbd" d="M24 14.95c-.43-.1-.9-.1-1.4 0-1.5.3-4 .2-5.1-.54l13.02-13c2.5.83 3.93 3.02 3.96 3.07L24 14.95z"/></g><g><path fill="#bdbdbd" d="M33.86 14.92l.02.02-3.52 3.52c-1 2.1.77 3.43.07 4.13-.68.67-2.72-.03-4.13-.1l1.24-1.23c.37-.98.15-2.44-.5-3.72l8.92-8.93c.27 3.24-1.36 5.47-2.1 6.3"/></g><g><path fill="#808285" d="M15.16 12.52c-1.4-.04-3.3.5-4.53 1.7L8.87 16c-.17-.54 0-1.42.36-1.77.7-.7-.7-3.52 2.1-4.93 1.9-.94 4.23 0 5.64-1.4 0 0 4.5-4.5 4.93-4.94.45-.42 2.34-1.86 4.9-2.08L15.16 12.52z"/></g><g><path fill="#a6a6a6" d="M17.5 14.4c-.34-.22-.54-.5-.53-.87.03-.63-.75-.98-1.8-1L26.8.87c2.17-.17 3.65.48 3.72.5L17.5 14.42z"/></g><g><path fill="#d8d8d8" d="M27.04 17.55c-.64-1.25-1.7-2.3-3.04-2.6L34.48 4.47c1.35 1.9 1.48 4.05 1.48 4.15l-8.92 8.93z"/></g><g><path fill="#ffac33" d="M3.16 28.6c.06.3.2.6.43.83.64.64 1.46 1.28 2.57 1.3.7.02 1.53-.08 2.5-.67l7.07-.06c-.25.4-.54.8-.9 1.17-2.54 2.52-7.04 2.93-10.08.9-1.43-.95-2.26-2.28-2.5-3.68.26.2.6.27.9.2"/></g><g><path fill="#ffac33" d="M15.75 29.98s0 0 0 .02h-.02s0 0 .02-.02"/></g><g><path fill="#ffac33" d="M2.96 26.16c-.02.02-.05.03-.07.05-.14.14-.22.3-.26.47-.13.03-.26.1-.38.2-.08.5-.07 1 0 1.5-.17-1.1.03-2.2.6-3.23-.08.34-.06.7.1 1.02"/></g><g><path fill="#c1694f" d="M2.27 28.4c0-.02 0-.03 0-.04 0 0 0 .02 0 .03"/></g><g><path fill="#ffe8b6" d="M15.74 30s0 0 0-.02c1.43-2.4.77-5.33-1.82-7.06-3.03-2.03-7.54-1.62-10.06.9-.42.42-.74.86-1 1.32-.57 1.03-.77 2.14-.6 3.22 0 0 0 .02 0 .03.24 1.4 1.07 2.72 2.5 3.67 3.03 2.03 7.54 1.62 10.07-.9.37-.37.66-.76.9-1.17m1.22 1.82c-.14.16-.28.32-.43.47-3.3 3.3-9.22 3.86-13.16 1.18-3.84-2.6-4.4-7.6-1.2-10.78.25-.24.5-.47.78-.68 3.4-2.7 8.72-2.97 12.4-.5 3.77 2.52 4.42 7.02 1.6 10.3"/></g><g><path fill="#c1694f" d="M13.92 22.92c2.6 1.73 3.26 4.67 1.83 7.06 0 0 0 0-.02.02l-7.06.06c-.97.58-1.8.7-2.5.68-1.1-.03-1.93-.67-2.58-1.3-.24-.24-.38-.54-.44-.85-.3.07-.64 0-.9-.2 0-.02 0-.03 0-.04-.07-.5-.08-1 0-1.5.12-.1.25-.16.38-.2.04-.16.1-.32.25-.45 0 0 .04-.02.06-.04-.16-.32-.18-.68-.1-1 0 0 0-.02 0-.02.26-.46.58-.9 1-1.3 2.52-2.54 7.03-2.95 10.06-.92"/></g><g><path fill="#f4900c" d="M8.67 29.85l7.28-.27c-.13.28-.28.55-.5.83-2.6 1.93-6.53 2.1-9.28.27v-.04c.7.02 1.53-.2 2.5-.78"/></g><g><path fill="#d99e82" d="M6.4 26.9c-.38-.38-1-.38-1.4 0-.4.4-.4 1.03 0 1.42.4.4 1.02.4 1.4 0 .4-.4.4-1.02 0-1.4"/></g><g><path fill="#d99e82" d="M8.17 24.44c-.6-.58-1.53-.58-2.1 0-.6.6-.6 1.53 0 2.12.57.58 1.52.58 2.1 0 .58-.6.58-1.53 0-2.12"/></g><g><path fill="#d99e82" d="M10.63 24.1c-.4-.4-1.02-.4-1.4 0-.4.38-.4 1 0 1.4.38.4 1 .4 1.4 0 .4-.4.4-1.02 0-1.4"/></g><g><path fill="#d99e82" d="M4.65 27.97c-.2-.2-.5-.2-.7 0-.2.2-.2.5 0 .7.2.2.5.2.7 0 .2-.2.2-.5 0-.7"/></g><g><path fill="#d99e82" d="M8.52 21.98c-.4-.4-1.02-.4-1.4 0-.4.4-.4 1.02 0 1.4.38.4 1 .4 1.4 0 .4-.38.4-1 0-1.4"/></g><g><path fill="#ffd983" d="M7.46 29.38c-.58-.6-1.53-.6-2.1 0-.6.58-.6 1.52 0 2.1.58.6 1.52.6 2.1 0 .6-.58.6-1.52 0-2.1"/></g><g><path fill="#d99e82" d="M10.63 22.68c-.4.4-1.02.4-1.4 0-.3-.28-.36-.68-.23-1.03.63-.04 1.26 0 1.88.1.08.32 0 .68-.25.93"/></g><g><path fill="#77b255" d="M16.27 28.32c-.4.4-1.02.4-1.4 0-.14-.13-.22-.3-.26-.45-.16-.04-.32-.13-.44-.26.38.4.4 1.03 0 1.42.38.4.4 1.02 0 1.4v.02c-.4.38-1.03.38-1.4 0-.14.12-.3.2-.47.24-.06.16-.13.32-.26.46-.23.23-.55.32-.85.27-.07.43-.25.83-.57 1.14-.77.78-2.03.78-2.8 0-.8-.77-.8-2.03 0-2.8.52-.54 1.27-.7 1.94-.5.05-.08.1-.15.16-.22-.4-.4-.4-1.02 0-1.4.22-.23.53-.32.83-.3.06-.17.16-.35.3-.5.4-.4 1-.5 1.48-.3.05-.12.12-.22.2-.3-.38-.4-.38-1.03 0-1.42.4-.4 1.03-.4 1.42 0 .07-.08.16-.13.24-.18 0 0 .02 0 .03-.02.37-.17.83-.1 1.13.2.4.4.4 1.02 0 1.4.1.1.17.2.22.32 0 .04 0 .08 0 .12.18.04.35.13.5.27.38.4.38 1.03 0 1.42"/></g><g><path fill="#a6d388" d="M15.2 27.26c-.18-.2-.5-.2-.7 0-.2.2-.2.5 0 .7.2.2.52.2.7 0 .2-.2.2-.5 0-.7"/></g><g><path fill="#ffd983" d="M13.45 22.68c-.4-.4-1.02-.4-1.4 0-.4.4-.4 1.02 0 1.4.38.4 1 .4 1.4 0 .4-.38.4-1 0-1.4"/></g><g><path fill="#ffd983" d="M12.4 26.56c-.5.5-1.23.56-1.8.23-.08.16-.18.32-.32.46s-.3.24-.47.32c.34.57.27 1.3-.22 1.8-.6.58-1.53.58-2.12 0-.58-.6-.58-1.53 0-2.12.14-.14.3-.24.47-.3-.32-.58-.25-1.32.24-1.8.5-.5 1.22-.57 1.8-.25.07-.16.17-.32.3-.46.6-.58 1.54-.58 2.12 0 .58.6.58 1.53 0 2.12"/></g><g><path fill="#ffe8b6" d="M11.34 24.8c-.5-.5-1.28-.5-1.76 0-.5.48-.5 1.27 0 1.76.48.48 1.27.48 1.76 0 .48-.5.48-1.28 0-1.76"/></g><g><path fill="#ffe8b6" d="M9.58 27.26c-.3-.3-.77-.3-1.06 0-.3.3-.3.77 0 1.06.3.3.77.3 1.06 0 .3-.3.3-.77 0-1.06"/></g><g><path fill="#ffe8b6" d="M8.17 28.67c-.3-.3-.77-.3-1.06 0-.28.3-.28.77 0 1.06.3.3.78.3 1.07 0 .3-.3.3-.77 0-1.06"/></g><g><path fill="#a6d388" d="M8.87 30.78c-.2-.2-.5-.2-.7 0-.2.2-.2.5 0 .7.2.2.5.2.7 0 .2-.2.2-.5 0-.7"/></g><g><path fill="#77b255" d="M15.56 29.02c-.38-.4-1.02-.4-1.4 0-.4.4-.4 1.02 0 1.4.38.4 1.02.4 1.4 0 .4-.38.4-1 0-1.4"/></g><g><path fill="#a6d388" d="M14.86 26.9c-.4-.38-1.02-.38-1.4 0-.4.4-.4 1.03 0 1.42.38.4 1 .4 1.4 0 .4-.4.4-1.02 0-1.4"/></g><g><path fill="#a6d388" d="M13.1 30.08c-.22.22-.5.35-.77.4 0 .24-.1.48-.3.66-.38.4-1 .4-1.4 0-.4.4-1.02.4-1.4 0-.4-.4-.4-1.02 0-1.4.38-.4 1-.4 1.4 0 .02-.03.05-.05.07-.07-.27-.56-.18-1.24.3-1.7.57-.6 1.52-.6 2.1 0 .58.58.58 1.53 0 2.1"/></g><g><path fill="#dd2e44" d="M11 31.5c-.3-.3-.78-.3-1.07 0-.3.28-.3.75 0 1.04.3.3.76.3 1.06 0 .28-.3.28-.76 0-1.05"/></g><g><path fill="#dd2e44" d="M15.2 28.67c-.28-.3-.75-.3-1.04 0-.3.3-.3.77 0 1.06.3.3.76.3 1.05 0 .3-.3.3-.77 0-1.06"/></g><g><path fill="#dd2e44" d="M14.86 25.5c-.4-.4-1.02-.4-1.4 0-.4.4-.4 1.02 0 1.4.38.4 1 .4 1.4 0 .4-.38.4-1 0-1.4"/></g><g><path fill="#77b255" d="M13.45 32.54c-.4.4-1.02.4-1.4 0-.4-.38-.4-1.02 0-1.4-.4-.4-.4-1.02 0-1.4.38-.4 1-.4 1.4 0 .4.38.4 1 0 1.4.4.38.4 1.02 0 1.4"/></g><g><path fill="#dd2e44" d="M12.75 29.02c-.4-.4-1.02-.4-1.4 0-.4.4-.4 1.02 0 1.4.38.4 1 .4 1.4 0 .4-.38.4-1 0-1.4"/></g><g><path fill="#dd2e44" d="M13.8 31.5c-.2-.2-.5-.2-.7 0-.2.18-.2.5 0 .7.2.2.5.2.7 0 .2-.2.2-.52 0-.7"/></g></g></g></g></svg>