<svg xmlns="http://www.w3.org/2000/svg" viewBox="0 0 45 45" enable-background="new 0 0 45 45"><defs><clipPath id="a"><path d="M0 36h36V0H0v36z"/></clipPath></defs><g><g><g clip-path="url(#a)" transform="matrix(1.25 0 0 -1.25 0 45)"><g><path fill="#f4900c" d="M13.92 0c-.1 0-.2.03-.26.1-.16.1-.2.33-.1.5L17 7h-5.08c-.17 0-.44.03-.56.3-.1.24-.06.47.05.7l3.6 9c.08.07 6.9-.4 7-.4.1 0 .18-.02.26-.08.15-.13.2-.34.1-.52l-3.8-6h5.02c.18 0 .33-.1.4-.27.05-.17 0-.35-.12-.46L14.2.1C14.1.03 14 0 13.9 0"/></g><g><path fill="#e1e8ed" d="M28 32c-.82 0-1.62-.13-2.37-.36-.9 2.54-3.3 4.36-6.13 4.36-3.04 0-5.6-2.1-6.3-4.92-.75.57-1.68.92-2.7.92C8.02 32 6 29.98 6 27.5c0-.6.12-1.18.34-1.7-.43.1-.87.2-1.34.2-2.76 0-5-2.24-5-5s2.24-5 5-5h23c4.42 0 8 3.58 8 8s-3.58 8-8 8"/></g></g></g></g></svg>