<svg xmlns="http://www.w3.org/2000/svg" viewBox="0 0 45 45" enable-background="new 0 0 45 45"><defs><clipPath id="a"><path d="M0 36h36V0H0v36z"/></clipPath></defs><g><g><g clip-path="url(#a)" transform="matrix(1.25 0 0 -1.25 0 45)"><g><path fill="#ffe8b6" d="M12 29C5.37 29 0 21.84 0 13h6V7h17.12c.56 1.85.88 3.88.88 6 0 8.84-5.37 16-12 16"/></g><g><path fill="#ffe8b6" d="M29 15h4.9c-.74 7.9-5.78 14-11.9 14-6.63 0-12-7.16-12-16 0-2.12.32-4.14.88-6H29v8z"/></g><g><path fill="#ffac33" d="M36 13c0 8.84-5.37 16-12 16s-12-7.16-12-16c0-2.12.32-4.14.88-6H30c3.3 0 6 2.7 6 6"/></g><path fill="#ffac33" d="M16 13H6V7h10v6z"/><g><path fill="#ffe8b6" d="M0 13c0 3.3 2.7 6 6 6s6-2.7 6-6-2.7-6-6-6-6 2.7-6 6"/></g><g><path fill="#ffac33" d="M14 29C7.37 29 2 21.84 2 13c0-2.2 1.8-4 4-4s4 1.8 4 4c0 6.96 3.34 12.87 8 15.07-1.25.6-2.6.93-4 .93"/></g><g><path fill="#d99e82" d="M5 13c0-.55-.45-1-1-1s-1 .45-1 1 .45 1 1 1 1-.45 1-1"/></g><g><path fill="#c1694f" d="M9.98 12.75c-.12.7-.74 1.25-1.48 1.25-.18 0-.35-.04-.5-.1 0 .04 0 .07 0 .1 0 1.1-.9 2-2 2s-2-.9-2-2c0-.53.2-1 .54-1.36-.33-.27-.54-.68-.54-1.14 0-.68.45-1.24 1.07-1.43.17-.56.65-.96 1.24-1.04 2 .16 3.55 1.73 3.68 3.72"/></g><g><path fill="#d99e82" d="M9.5 15c-.83 0-1.5-.67-1.5-1.5S8.67 12 9.5 12c.13 0 .25.02.38.05.07.3.12.62.12.95 0 .64.04 1.26.1 1.88-.2.08-.4.12-.6.12"/></g><g><path fill="#ffcc4d" d="M8 16c0-.55-.67-1-1.5-1S5 15.45 5 16s.67 1 1.5 1S8 16.55 8 16"/></g><g><path fill="#ffcc4d" d="M8 15c0-.55-.45-1-1-1s-1 .45-1 1 .45 1 1 1 1-.45 1-1"/></g><g><path fill="#c1694f" d="M10 15c0-.55-.45-1-1-1s-1 .45-1 1 .45 1 1 1 1-.45 1-1"/></g><g><path fill="#d99e82" d="M6 14c0-.55-.45-1-1-1s-1 .45-1 1 .45 1 1 1 1-.45 1-1"/></g><g><path fill="#d99e82" d="M8 14c0-.55-.45-1-1-1s-1 .45-1 1 .45 1 1 1 1-.45 1-1"/></g><g><path fill="#ffd983" d="M9 16c0-.55-.45-1-1-1s-1 .45-1 1 .45 1 1 1 1-.45 1-1"/></g><g><path fill="#ffe8b6" d="M8 18c0-.55-.45-1-1-1s-1 .45-1 1 .45 1 1 1 1-.45 1-1"/></g><g><path fill="#ffe8b6" d="M7 16c0-.55-.45-1-1-1s-1 .45-1 1 .45 1 1 1 1-.45 1-1"/></g><g><path fill="#ffd983" d="M10 18c0-.55-.45-1-1-1s-1 .45-1 1 .45 1 1 1 1-.45 1-1"/></g><g><path fill="#ffd983" d="M10 16c0-.55-.45-1-1-1s-1 .45-1 1 .45 1 1 1 1-.45 1-1"/></g><g><path fill="#ffd983" d="M10 17c0-.55-.45-1-1-1s-1 .45-1 1 .45 1 1 1 1-.45 1-1"/></g><g><path fill="#ffe8b6" d="M10 17c0-.55-.45-1-1-1s-1 .45-1 1 .45 1 1 1 1-.45 1-1"/></g><g><path fill="#77b255" d="M10.57 23.55c-.27.28-.65.45-1.07.45-.74 0-1.35-.53-1.47-1.24-.22.14-.48.24-.78.24-.7 0-1.25-.45-1.25-1 0-.2.08-.36.2-.5-.12-.16-.2-.32-.2-.5-.55 0-1-.45-1-1 0-.2.07-.38.18-.54-.1-.14-.18-.3-.18-.46 0-.55.67-1 1.5-1 .43 0 .82.12 1.1.32.24-.2.56-.32.9-.32.2 0 .4.04.56.1.16-.6.7-1.03 1.33-1.08.48 2.54 1.44 4.83 2.73 6.72-.32.16-.7.26-1.13.26-.56 0-1.07-.17-1.43-.45"/></g><g><path fill="#a6d388" d="M9 21c0-.55-.45-1-1-1s-1 .45-1 1 .45 1 1 1 1-.45 1-1"/></g><g><path fill="#a6d388" d="M10 22.5c0-.28-.22-.5-.5-.5s-.5.22-.5.5.22.5.5.5.5-.22.5-.5"/></g><g><path fill="#a6d388" d="M7 19.5c0-.28-.22-.5-.5-.5s-.5.22-.5.5.22.5.5.5.5-.22.5-.5"/></g><g><path fill="#a6d388" d="M10 19.5c0-.28-.22-.5-.5-.5s-.5.22-.5.5.22.5.5.5.5-.22.5-.5"/></g><g><path fill="#a6d388" d="M11 21c0-.55-.45-1-1-1s-1 .45-1 1 .45 1 1 1 1-.45 1-1"/></g><g><path fill="#dd2e44" d="M10 24c0-.55-.45-1-1-1s-1 .45-1 1 .45 1 1 1 1-.45 1-1"/></g><g><path fill="#ffd983" d="M12 24c0-.55-.45-1-1-1s-1 .45-1 1 .45 1 1 1 1-.45 1-1"/></g><g><path fill="#ffd983" d="M13 26c0-.55-.45-1-1-1s-1 .45-1 1 .45 1 1 1 1-.45 1-1"/></g><g><path fill="#ffd983" d="M10 22c0-.55-.45-1-1-1s-1 .45-1 1 .45 1 1 1 1-.45 1-1"/></g><g><path fill="#a6d388" d="M15 27c-.55 0-1-.45-1-1 0-.04.02-.06.02-.1-.16.06-.34.1-.52.1-.83 0-1.5-.67-1.5-1.5 0-.56.3-1.04.77-1.3.84 1.35 1.85 2.5 3 3.43-.2.22-.46.37-.77.37"/></g><g><path fill="#dd2e44" d="M13 25c0-.55-.45-1-1-1s-1 .45-1 1 .45 1 1 1 1-.45 1-1"/></g><g><path fill="#dd2e44" d="M15 27c0-.55-.45-1-1-1s-1 .45-1 1 .45 1 1 1 1-.45 1-1"/></g><g><path fill="#f4900c" d="M18 11c0-.55-.45-1-1-1s-1 .45-1 1 .45 1 1 1 1-.45 1-1"/></g><g><path fill="#f4900c" d="M14 8c0-.55-.45-1-1-1s-1 .45-1 1 .45 1 1 1 1-.45 1-1"/></g><g><path fill="#f4900c" d="M20 8c0-.55-.45-1-1-1s-1 .45-1 1 .45 1 1 1 1-.45 1-1"/></g><g><path fill="#f4900c" d="M23 9c0-.55-.45-1-1-1s-1 .45-1 1 .45 1 1 1 1-.45 1-1"/></g><g><path fill="#f4900c" d="M27 9c0-.55-.45-1-1-1s-1 .45-1 1 .45 1 1 1 1-.45 1-1"/></g><g><path fill="#f4900c" d="M30 8c0-.55-.45-1-1-1s-1 .45-1 1 .45 1 1 1 1-.45 1-1"/></g><g><path fill="#f4900c" d="M32 10c0-.55-.45-1-1-1s-1 .45-1 1 .45 1 1 1 1-.45 1-1"/></g><g><path fill="#f4900c" d="M22 14c0-.55-.45-1-1-1s-1 .45-1 1 .45 1 1 1 1-.45 1-1"/></g><g><path fill="#f4900c" d="M16 14c0-.55-.45-1-1-1s-1 .45-1 1 .45 1 1 1 1-.45 1-1"/></g><g><path fill="#f4900c" d="M35 12c0-.55-.45-1-1-1s-1 .45-1 1 .45 1 1 1 1-.45 1-1"/></g><g><path fill="#f4900c" d="M18 18c0-.55-.45-1-1-1s-1 .45-1 1 .45 1 1 1 1-.45 1-1"/></g><g><path fill="#f4900c" d="M23 20c0-.55-.45-1-1-1s-1 .45-1 1 .45 1 1 1 1-.45 1-1"/></g><g><path fill="#f4900c" d="M20 24c0-.55-.45-1-1-1s-1 .45-1 1 .45 1 1 1 1-.45 1-1"/></g><g><path fill="#f4900c" d="M28 23c0-.55-.45-1-1-1s-1 .45-1 1 .45 1 1 1 1-.45 1-1"/></g><g><path fill="#f4900c" d="M25 26c0-.55-.45-1-1-1s-1 .45-1 1 .45 1 1 1 1-.45 1-1"/></g><g><path fill="#f4900c" d="M32 17c0-.55-.45-1-1-1s-1 .45-1 1 .45 1 1 1 1-.45 1-1"/></g><g><path fill="#f4900c" d="M27 17c0-.55-.45-1-1-1s-1 .45-1 1 .45 1 1 1 1-.45 1-1"/></g><g><path fill="#f4900c" d="M25 13c0-.55-.45-1-1-1s-1 .45-1 1 .45 1 1 1 1-.45 1-1"/></g><g><path fill="#f4900c" d="M30 14c0-.55-.45-1-1-1s-1 .45-1 1 .45 1 1 1 1-.45 1-1"/></g></g></g></g></svg>