<svg xmlns="http://www.w3.org/2000/svg" viewBox="0 0 45 45" enable-background="new 0 0 45 45"><defs><clipPath id="a"><path d="M0 36h36V0H0v36z"/></clipPath></defs><g><g><g clip-path="url(#a)" transform="matrix(1.25 0 0 -1.25 0 45)"><g><path fill="#e1e8ed" d="M28 32c-.82 0-1.62-.13-2.37-.36-.9 2.54-3.3 4.36-6.13 4.36-3.04 0-5.6-2.1-6.3-4.92-.75.57-1.68.92-2.7.92C8.02 32 6 29.98 6 27.5c0-.6.12-1.18.34-1.7-.43.1-.87.2-1.34.2-2.76 0-5-2.24-5-5s2.24-5 5-5h23c4.42 0 8 3.58 8 8s-3.58 8-8 8"/></g><g><path fill="#5dadec" d="M12 11.04l-.1 3.42L9 12.76c-.64-.35-1.07-1.03-1.04-1.8.04-1.1.97-1.98 2.08-1.96 1.1.02 1.98.94 1.94 2.04"/></g><g><path fill="#5dadec" d="M10.02 3.58L9.92 7 7.03 5.3C6.4 4.94 5.98 4.26 6 3.5c.04-1.1.97-1.98 2.08-1.96 1.1.02 1.98.94 1.94 2.04"/></g><g><path fill="#5dadec" d="M5.02 8.04l-.1 3.42-2.88-1.7C1.4 9.4.97 8.72 1 7.95c.04-1.1.97-1.98 2.08-1.96 1.1.02 1.98.94 1.94 2.04"/></g><g><path fill="#5dadec" d="M23.02 11.04l-.1 3.42-2.88-1.7c-.64-.35-1.07-1.03-1.04-1.8.04-1.1.97-1.98 2.08-1.96 1.1.02 1.98.94 1.94 2.04"/></g><g><path fill="#5dadec" d="M17 7.04l-.1 3.42L14 8.76c-.64-.35-1.07-1.03-1.04-1.8.04-1.1.97-1.98 2.08-1.96 1.1.02 1.98.94 1.94 2.04"/></g><g><path fill="#5dadec" d="M22.02 2.58L21.92 6l-2.88-1.7c-.64-.35-1.07-1.03-1.04-1.8.04-1.1.97-1.98 2.08-1.96 1.1.02 1.98.94 1.94 2.04"/></g><g><path fill="#5dadec" d="M29 8.04l-.1 3.42L26 9.76c-.64-.35-1.07-1.03-1.04-1.8.04-1.1.97-1.98 2.08-1.96 1.1.02 1.98.94 1.94 2.04"/></g></g></g></g></svg>