<svg xmlns="http://www.w3.org/2000/svg" viewBox="0 0 45 45" enable-background="new 0 0 45 45"><defs><clipPath id="a"><path d="M0 36h36V0H0v36z"/></clipPath><clipPath id="b"><path d="M21 36c-9.42 0-13.63-2.17-14.75-4-.95-1.54-.63-4.7 2.5-9 2.65-3.65 5.33-4.48 6.04-8.58.9-5.3-2.68-11.1-2.68-11.1S11.2.46 14.75 2c4.5 1.96 9.36 7.55 13.75 15.92 2.67 5.08 3.33 12.45 2.2 14.66-.9 1.8-3.66 3.42-9.7 3.42z"/></clipPath><clipPath id="c"><path d="M3.13 42.75h29.83V29.67H3.13v13.08z"/></clipPath><clipPath id="d"><path d="M0 36h36V0H0v36z"/></clipPath></defs><g><g><g clip-path="url(#a)" transform="matrix(1.25 0 0 -1.25 0 45)"><g><path fill="#8899a6" d="M12.13 3.33s3.58 5.8 2.66 11.1c-.72 4.1-3.4 4.92-6.05 8.57-3.13 4.3-3.44 7.46-2.5 9 1.13 1.83 5.33 4 14.75 4 6.04 0 8.8-1.62 9.7-3.42 1.13-2.2.47-9.58-2.2-14.66C24.1 9.55 19.25 3.96 14.75 2 11.2.45 12.12 3.33 12.12 3.33"/></g></g></g><g><g clip-path="url(#b)" transform="matrix(1.25 0 0 -1.25 0 45)"><g><g><g clip-path="url(#c)" opacity=".2"><g><path fill="#66757f" d="M32.96 33.63s-.92-1.1-3.25.16c-3.32 1.78-11.3 2.13-17.53.28-5.2-1.54-1.76-4.17 8.8-2.66 2.6.37 2.5 1.7-3.3 1.45-.85-.03 8.46.5 8.46.5l-2.46-3.24-16.7-.46-3.84 2.12L28.2 42.74l4.76-9.13z"/></g></g></g></g><g><path fill="#66757f" d="M13.78 27.9c-5.3 0-8.38.86-9.38 2.6-.62 1.07-.25 2.16.06 2.63.3.46.92.6 1.38.3.46-.3.6-.92.3-1.38-.04-.07-.15-.3 0-.57.3-.47 1.93-1.97 10.9-1.48 4.56.24 7.82 1.28 7.75 2-.08.75-2.73 1.16-7.78.8-1.56-.1-3.92-.35-3.98.2-.06.55 2.1.87 3.8 1.06 5.53.63 8.83.33 9.77-1.06.36-.52.4-1.15.1-1.73-.83-1.7-4.68-3-9.56-3.27-1.2-.06-2.32-.1-3.36-.1"/></g><g><path fill="#66757f" d="M15.28 20.17c-7.38 0-9.45 3.43-9.55 3.6-.28.5-.1 1.1.37 1.38.47.27 1.08.1 1.35-.36.07-.1 2.8-4.3 13.77-2.2.54.1 3.06.82 3.2.15.12-.54-1.76-1.3-2.3-1.44-2.87-.8-4.9-1.13-6.84-1.13"/></g><g><path fill="#66757f" d="M13.4 25.03c-.06.6 2.07.7 2.68.77 10.8 1.03 13.34 3.47 14.3 4.97.85 1.34.4 2.48.4 2.53-.22.5.02 1.1.52 1.3.5.2 1.1 0 1.3-.5.04-.1.88-2.1-.5-4.33-2-3.3-7.07-4.88-15.9-5.4-.03 0-2.74-.28-2.8.66"/></g><g><path fill="#66757f" d="M18.83 13.03c-6.3 0-6.84 3.1-6.9 3.48-.05.56.35 1.06.9 1.12.52.06 1.02-.32 1.1-.84.03-.12.65-2.23 7.38-2.14.57 0 2.1.2 2.17-.34.06-.55-1.14-1.02-1.95-1.1-1-.1-1.9-.17-2.7-.17"/></g><g><path fill="#66757f" d="M18.42 18.2c.05.58 1.67.67 2.22.72 8.03.7 10.07 4.82 10.17 5 .28.48.9.66 1.37.4.48-.28.66-.88.4-1.36-.13-.22-2.98-5.2-11.88-5.55-.03 0-2.35-.1-2.28.8"/></g><g><path fill="#66757f" d="M17.06 5.9c-1.6.08-2.76.45-3.58 1.35-1.22 1.34-1.03 2.97-1 3.17.05.55.53.95 1.1.9.54-.07.94-.56.88-1.1 0-.04-.07-1.07.56-1.75.44-.47.95-1 2.15-1.08 1.2-.1 1.67-.17 1.7-.56.07-.8-1.28-.96-1.8-.93"/></g><g><path fill="#66757f" d="M19.73 9.35c-.3 0-.64 0-.97.03-.55.03-1.76.37-1.73.92.03.55 1.32.6 1.86.64 6.12.43 7.73 3.26 7.8 3.4.26.47.86.67 1.35.42.5-.25.68-.84.44-1.33-.1-.18-2.13-4.08-8.77-4.08"/></g></g></g><g><g clip-path="url(#d)" transform="matrix(1.25 0 0 -1.25 0 45)"><g><path fill="#ccd6dd" d="M28.64 0c0 .08.03.16.03.25 0 .98-.66 1.8-1.55 2.06-.2 1.97-1.84 3.5-3.85 3.5-1.4 0-2.63-.76-3.3-1.88-.46.3-1 .45-1.55.45-1.1 0-2.05-.6-2.55-1.52-.52.55-1.26.9-2.08.9-.3 0-.57-.06-.83-.13-.34.25-.74.43-1.17.5-.6 1.54-2.08 2.63-3.82 2.63-2 0-3.64-1.4-4.02-3.28-.1 0-.2.03-.3.03-1.38 0-2.5-1.1-2.5-2.48 0-.36.1-.7.23-1.02h27.24z"/></g></g></g></g></svg>