<svg xmlns="http://www.w3.org/2000/svg" viewBox="0 0 45 45" enable-background="new 0 0 45 45"><defs><clipPath id="a"><path d="M0 36h36V0H0v36z"/></clipPath></defs><g><g><g clip-path="url(#a)" transform="matrix(1.25 0 0 -1.25 0 45)"><g><path fill="#ffac33" d="M13 34s0 2 2 2 2-2 2-2v-2s0-2-2-2-2 2-2 2v2z"/></g><g><path fill="#ffac33" d="M4 23s2 0 2-2-2-2-2-2H2s-2 0-2 2 2 2 2 2h2z"/></g><g><path fill="#ffac33" d="M7.87 29.96s1.42-1.42 0-2.83c-1.4-1.42-2.83 0-2.83 0l-1.4 1.4s-1.43 1.43 0 2.84c1.4 1.42 2.82 0 2.82 0l1.4-1.4z"/></g><g><path fill="#ffac33" d="M24.96 27.13s-1.42-1.42-2.83 0c-1.4 1.4 0 2.83 0 2.83l1.4 1.4s1.43 1.42 2.84 0c1.42-1.4 0-2.82 0-2.82l-1.4-1.4z"/></g><g><path fill="#ffac33" d="M23 21c0 4.42-3.58 8-8 8s-8-3.58-8-8 3.58-8 8-8 8 3.58 8 8"/></g><g><path fill="#e1e8ed" d="M28.22 23.2c-.8 0-1.57-.12-2.3-.34-.86 2.4-3.2 4.14-5.96 4.14-2.96 0-5.44-2-6.13-4.67-.73.54-1.63.87-2.62.87-2.4 0-4.37-1.9-4.37-4.27 0-.58.12-1.12.33-1.62-.4.12-.85.2-1.3.2C3.18 17.5 1 15.37 1 12.75S3.18 8 5.86 8h22.36c4.3 0 7.78 3.4 7.78 7.6 0 4.2-3.48 7.6-7.78 7.6"/></g><g><path fill="#5dadec" d="M12 2.04l-.1 3.42L9 3.76c-.64-.35-1.07-1.03-1.04-1.8.04-1.1.97-1.98 2.08-1.96 1.1.02 1.98.94 1.94 2.04"/></g><g><path fill="#5dadec" d="M5.02 3.58L4.92 7 2.03 5.3C1.4 4.94.97 4.26 1 3.5c.04-1.1.97-1.98 2.08-1.96 1.1.02 1.98.94 1.94 2.04"/></g><g><path fill="#5dadec" d="M19.02 3.04l-.1 3.42-2.88-1.7c-.64-.35-1.07-1.03-1.04-1.8.04-1.1.97-1.98 2.08-1.96 1.1.02 1.98.94 1.94 2.04"/></g><g><path fill="#5dadec" d="M25 2.04l-.1 3.42L22 3.76c-.64-.35-1.07-1.03-1.04-1.8.04-1.1.97-1.98 2.08-1.96 1.1.02 1.98.94 1.94 2.04"/></g><g><path fill="#5dadec" d="M31.02 3.58L30.92 7l-2.88-1.7c-.64-.35-1.07-1.03-1.04-1.8.04-1.1.97-1.98 2.08-1.96 1.1.02 1.98.94 1.94 2.04"/></g></g></g></g></svg>