<svg xmlns="http://www.w3.org/2000/svg" viewBox="0 0 45 45" enable-background="new 0 0 45 45"><defs><clipPath id="a"><path d="M0 36h36V0H0v36z"/></clipPath></defs><g><g><g clip-path="url(#a)" transform="matrix(1.25 0 0 -1.25 0 45)"><g><path fill="#ffac33" d="M16 34s0 2 2 2 2-2 2-2v-2s0-2-2-2-2 2-2 2v2z"/></g><g><path fill="#ffac33" d="M34 20s2 0 2-2-2-2-2-2h-2s-2 0-2 2 2 2 2 2h2z"/></g><g><path fill="#ffac33" d="M4 20s2 0 2-2-2-2-2-2H2s-2 0-2 2 2 2 2 2h2z"/></g><g><path fill="#ffac33" d="M9.12 28.7s1.42-1.4 0-2.82c-1.4-1.42-2.83 0-2.83 0l-1.42 1.4s-1.42 1.43 0 2.84c1.4 1.42 2.83 0 2.83 0l1.42-1.4z"/></g><g><path fill="#ffac33" d="M29.7 25.88s-1.4-1.42-2.82 0c-1.4 1.4 0 2.83 0 2.83l1.4 1.42s1.43 1.4 2.84 0c1.42-1.4 0-2.83 0-2.83l-1.4-1.42z"/></g><g><path fill="#ffac33" d="M8.7 4.88s-1.4-1.42-2.82 0c-1.4 1.4 0 2.83 0 2.83l1.4 1.42s1.43 1.4 2.84 0c1.42-1.4 0-2.83 0-2.83l-1.4-1.42z"/></g><g><path fill="#ffac33" d="M28 18c0 5.52-4.48 10-10 10S8 23.52 8 18 12.48 8 18 8s10 4.48 10 10"/></g><g><path fill="#e1e8ed" d="M29.78 12.8c-.64 0-1.26-.1-1.85-.3-.68 2.04-2.56 3.5-4.76 3.5-2.37 0-4.35-1.68-4.9-3.94-.6.46-1.3.74-2.1.74-1.94 0-3.5-1.6-3.5-3.6 0-.48.1-.94.26-1.36-.33.1-.68.16-1.04.16C9.73 8 8 6.2 8 4s1.74-4 3.9-4h17.88C33.2 0 36 2.86 36 6.4c0 3.53-2.8 6.4-6.22 6.4"/></g></g></g></g></svg>