<svg xmlns="http://www.w3.org/2000/svg" viewBox="0 0 45 45" enable-background="new 0 0 45 45"><defs><clipPath id="a"><path d="M0 36h36V0H0v36z"/></clipPath></defs><g><g><g clip-path="url(#a)" transform="matrix(1.25 0 0 -1.25 0 45)"><g><path fill="#d99e82" d="M31.42 4.53C27.92 1 22.22 1 18.7 4.53L4.54 18.67c-3.5 3.52-3.5 9.2 0 12.73 3.52 3.5 9.2 3.5 12.73 0l14.14-14.14c3.52-3.52 3.52-9.22 0-12.73"/></g><g><path fill="#f7bba6" d="M29.33 15.1c3.52-3.5 4.6-8.12 2.48-10.25-2.13-2.14-6.73-1.04-10.24 2.47L7.4 21.46c-3.5 3.52-4.6 8.12-2.46 10.26 2.13 2.13 6.74 1.04 10.25-2.48L29.32 15.1z"/></g><g><path fill="#dd2e44" d="M33.17 7.03c1.4-1.42 1.6-3.5.44-4.7-1.17-1.16-3.26-.96-4.68.45l-26.2 26.2c-1.4 1.4-1.6 3.5-.43 4.68 1.16 1.17 3.26.97 4.67-.44l26.2-26.2z"/></g><g><path fill="none" stroke="#ffcc4d" stroke-width="2" stroke-miterlimit="10" d="M5.26 32.1c2.24-2.23.82-3.65 3.06-5.88 2.24-2.24 3.65-.83 5.9-3.06 2.23-2.24.8-3.66 3.05-5.9 2.24-2.23 3.65-.82 5.9-3.06 2.23-2.24.82-3.65 3.06-5.9 2.24-2.24 3.66-.82 5.9-3.06" stroke-linecap="round"/></g></g></g></g></svg>