<svg xmlns="http://www.w3.org/2000/svg" viewBox="0 0 45 45" enable-background="new 0 0 45 45"><defs><clipPath id="a"><path d="M4 36c-2.2 0-4-1.8-4-4V4c0-2.2 1.8-4 4-4h28c2.2 0 4 1.8 4 4v28c0 2.2-1.8 4-4 4H4z"/></clipPath></defs><g><g><g clip-path="url(#a)" transform="matrix(1.25 0 0 -1.25 0 45)"><path fill="#f5f8fa" d="M37-1H-1v38h38V-1z"/><g><path fill="#e1e8ed" d="M3 31c2.13 0 3.93-1.33 4.65-3.2.8 1.3 2.2 2.2 3.85 2.2.76 0 1.47-.2 2.1-.54.63.93 1.7 1.54 2.9 1.54 1.52 0 2.8-.98 3.3-2.34.52.22 1.1.34 1.7.34 1.76 0 3.26-1.02 4-2.5.6.3 1.28.5 2 .5 1.18 0 2.25-.47 3.05-1.2.77.95 1.94 1.57 3.26 1.57 2.33 0 4.2-1.87 4.2-4.18 0-2.32-1.88-4.2-4.2-4.2-.98 0-1.88.36-2.6.94-.82-1.17-2.17-1.94-3.7-1.94-.56 0-1.1.12-1.6.3-.42-.2-.9-.3-1.4-.3-1.4 0-2.6.83-3.16 2.02-1.13.04-2.15.5-2.92 1.22C17.87 20.5 17 20 16 20c-1.1 0-2.04.6-2.56 1.46-.6-.3-1.24-.46-1.94-.46-1.83 0-3.4 1.1-4.1 2.67C6.56 22.1 4.9 21 3 21c-2.76 0-5 2.24-5 5s2.24 5 5 5"/></g><g><path fill="#ccd6dd" d="M6 27.3c2.93 0 5.43-1.8 6.47-4.35.18.02.35.05.53.05.7 0 1.37-.15 1.98-.4.73.85 1.8 1.4 3.02 1.4 2.2 0 4-1.8 4-4 0-.05 0-.1 0-.15.3.1.65.15 1 .15.88 0 1.68-.3 2.34-.77.6.48 1.34.77 2.16.77.2 0 .4-.03.58-.06C28.7 21.72 30.4 23 32.4 23c2.54 0 4.6-2.06 4.6-4.6 0-2.55-2.06-6.6-4.6-6.6-.8 0-29.06-2.5-30.4-2.5-3.87 0-3 7.13-3 11 0 3.86 3.13 7 7 7"/></g><g><path fill="#e1e8ed" d="M34 16c-2.13 0-3.93-1.33-4.65-3.2-.8 1.3-2.2 2.2-3.85 2.2-.76 0-1.47-.2-2.1-.54-.63.93-1.7 1.54-2.9 1.54-1.52 0-2.8-.98-3.3-2.34-.52.22-1.1.34-1.7.34-1.76 0-3.26-1.02-4-2.5-.6.3-1.28.5-2 .5-1.18 0-2.25-.47-3.05-1.2-.77.95-1.94 1.57-3.26 1.57C.86 12.38-1 10.5-1 8.2-1 5.86.88 4 3.2 4c.98 0 1.88.36 2.6.94C6.62 3.77 7.97 3 9.5 3c.56 0 1.1.1 1.6.3.42-.2.9-.3 1.4-.3 1.4 0 2.6.83 3.16 2.02 1.13.04 2.15.5 2.92 1.22C19.13 5.5 20 5 21 5c1.1 0 2.04.6 2.56 1.46.6-.3 1.24-.46 1.94-.46 1.83 0 3.4 1.1 4.1 2.67C30.44 7.1 32.1 6 34 6c2.76 0 5 2.24 5 5s-2.24 5-5 5"/></g><g><path fill="#fe5011" d="M20 27s0 2-2 2-2-2-2-2V-1h4v28z"/></g><g><path fill="#fe5011" d="M-2 9v2c.12.05 11.26 4.45 18 16l2-1C10.9 13.85-1.5 9.2-2 9"/></g><path fill="#fe5011" d="M36 5H0v4h36V5z"/><g><path fill="#fe5011" d="M38 9v2c-.12.05-11.26 4.45-18 16l-2-1C25.1 13.85 37.5 9.2 38 9"/></g><path fill="#fe5011" d="M10 8h2v11h-2V8z"/><path fill="#fe5011" d="M26 8h-2v11h2V8z"/><path fill="#fe5011" d="M4 8h2v6H4V8z"/><path fill="#fe5011" d="M32 7h-2v7h2V7z"/><g><path fill="#f5f8fa" d="M-7.05 14.7c2.76.28 5.3-1.17 6.52-3.47.17.03.32.08.5.1.66.06 1.3 0 1.9-.2.6.88 1.57 1.5 2.7 1.62 2.1.2 3.95-1.3 4.17-3.4 0-.03 0-.08 0-.13.3.12.6.2.94.24.83.08 1.6-.1 2.28-.5.5.5 1.2.85 1.96.93.2 0 .37 0 .55 0 .43 1.73 1.9 3.1 3.78 3.3 2.4.23 4.54-1.5 4.78-3.9.25-2.4-1.5-4.55-3.9-4.8-.73-.07-1.44.07-2.08.33-.53-.83-1.4-1.43-2.46-1.54-.52-.06-1 .02-1.47.2-.6-.86-1.56-1.47-2.68-1.58-1.63-.17-3.1.73-3.8 2.13-.46-.43-1.07-.72-1.76-.8-.37-.03-.72 0-1.06.1C3.1 2.54 2.1 2 .92 1.9c-1.22-.12-2.37.24-3.3.92-.93-.7-2.06-1.2-3.32-1.32-3.65-.37-6.9 2.28-7.27 5.93-.38 3.64 2.28 6.9 5.92 7.27"/></g><g><path fill="#f5f8fa" d="M29 7c0-2.2-1.8-4-4-4s-4 1.8-4 4 1.8 4 4 4 4-1.8 4-4"/></g><g><path fill="#ccd6dd" d="M33 12.3c-2.93 0-5.43-1.8-6.47-4.35-.18.02-.35.05-.53.05-.7 0-1.37-.15-1.98-.4C23.3 8.44 22.22 9 21 9c-2.2 0-4-1.8-4-4 0-.05 0-.1 0-.15-.3.1-.65.15-1 .15-.88 0-1.68-.3-2.34-.77-.6.48-1.34.77-2.16.77-.2 0-.4-.03-.58-.06C10.3 6.72 8.6 8 6.6 8 4.62 8 2.94 6.73 2.3 4.97c-.1 0-.2.03-.3.03-2.2 0-4-1.8-4-4s1.8-4 4-4c1.46 0 8.38 1 9.5 1h21.67C37.03-2 40 1.43 40 5.3c0 3.86-3.13 7-7 7"/></g></g></g></g></svg>