<svg xmlns="http://www.w3.org/2000/svg" viewBox="0 0 45 45" enable-background="new 0 0 45 45"><defs><clipPath id="a"><path d="M0 36h36V0H0v36z"/></clipPath></defs><g><g><g clip-path="url(#a)" transform="matrix(1.25 0 0 -1.25 0 45)"><g><path fill="#ffcc4d" d="M21.4 35.38c-1.86 0-4.25-1.85-6.23-4.83-2.32-3.48-1.07-5.98-.06-8 .16-.3.46-.5.8-.55.04 0 .07 0 .1 0 .3 0 .6.15.8.4 2.4 3.2 6.2 8.2 6.9 8.9.2.18.3.43.3.7 0 2.5-1.35 3.38-2.6 3.38"/></g><g><path fill="#ffcc4d" d="M23.77 26.4c-1.2 0-2.58-1.15-4.57-3.8-2.12-2.83-2.46-5.3-1.1-8.05.16-.3.45-.5.78-.54.04 0 .08 0 .12 0 .3 0 .58.13.77.36 1.72 2.06 5.17 6.17 5.94 6.93.2.18.3.44.3.7 0 1.08 0 4.4-2.23 4.4"/></g><g><path fill="#77b255" d="M29.87 24.48c-.26.48-.87.66-1.36.4-7.16-4-13.77-14.16-16.35-19.62C13 15.46 17.72 25.3 25.7 33.3c.4.38.4 1.02 0 1.4-.38.4-1.02.4-1.4 0-7.97-7.96-12.83-17.7-14-27.87-.7 5.7-1 13.9 1.6 19.76.24.5 0 1.1-.5 1.3-.5.24-1.1 0-1.3-.5-1.34-2.98-1.96-6.5-2.18-10C7.04 19.28 6 21 4.47 21h-.04c-.9 0-1.7-.47-2.33-1.73-.24-.5-.04-.92.45-1.16.5-.24 1.1-.04 1.34.45.3.62.52.77.52.8.63-.2 1.74-2.7 2.16-3.65.2-.44.37-.84.52-1.15.15-.3.43-.48.73-.53.03-4.95.7-9.53 1.17-12.1l.02-.1c.08-.48.5-.82.98-.82.06 0 .12 0 .18.02.12.02.23.07.33.13.16-.1.32-.15.5-.15s.34.06.5.15c.14-.1.3-.15.47-.15H12c.53 0 .97.45 1 .98.06 1.04 2.5 6 6.14 11.04.1.02.2.04.3.1.25.1.52.26.8.42.95.5 2.5 1.38 3.12 1.02.15-.1.64-.54.64-2.56 0-.55.45-1 1-1s1 .45 1 1c0 2.24-.53 3.64-1.62 4.28-.8.46-1.67.42-2.54.17 2.32 2.72 4.94 5.17 7.64 6.67.5.27.66.88.4 1.36"/></g></g></g></g></svg>