<svg xmlns="http://www.w3.org/2000/svg" viewBox="0 0 45 45" enable-background="new 0 0 45 45"><defs><clipPath id="a"><path d="M0 36h36V0H0v36z"/></clipPath></defs><g><g><g clip-path="url(#a)" transform="matrix(1.25 0 0 -1.25 0 45)"><g><path fill="#77b255" d="M22.9 21.6c-1.07-.72-2.04-1.56-2.87-2.42-.13 4.25-1.15 9.74-6.77 12.42C12.16 37.66-.84 34.58.33 34c2.3-1.18 3.54-4.15 5.03-5.72 2.66-2.8 5.6-2.96 7.07-.78 3.47-2.25 3.7-6.53 3.6-11.1-.02-.5-.03-.97-.03-1.4V1c0-1.1 4-1.1 4 0v11.5c.54.94 2.12 3.5 4.43 5.28 1.6-1.4 4.14-.94 6.46 1.5 1.48 1.57 2.3 4.54 4.6 5.7 1.22.63-12.8 4-12.6-3.38"/></g></g></g></g></svg>