<svg xmlns="http://www.w3.org/2000/svg" viewBox="0 0 45 45" enable-background="new 0 0 45 45"><defs><clipPath id="a"><path d="M0 36h36V0H0v36z"/></clipPath></defs><g><g><g clip-path="url(#a)" transform="matrix(1.25 0 0 -1.25 0 45)"><g><path fill="#77b255" d="M30 32c-2.2 0-4-1.8-4-4v-9.13c0-1.08-.9-1.96-2-2.44V30c0 3.3-2.7 6-6 6s-6-2.7-6-6V12.37c-1.12.48-2 1.37-2 2.5V20c0 2.2-1.8 4-4 4s-4-1.8-4-4v-7c0-2.2 1.75-3.88 3.38-4.8C6.62 7.46 10.1 6.6 12 6.53V3C12-.3 24-.3 24 3v7.55c1.98.12 5.3.95 6.48 1.64C32.1 13.12 34 14.8 34 17v11c0 2.2-1.8 4-4 4"/></g><g><path fill="#3e721d" d="M13 30c0-.55-.45-1-1-1s-1 .45-1 1 .45 1 1 1 1-.45 1-1"/></g><g><path fill="#3e721d" d="M24 33c0-.55-.45-1-1-1s-1 .45-1 1 .45 1 1 1 1-.45 1-1"/></g><g><path fill="#3e721d" d="M22 27c0-.55-.45-1-1-1s-1 .45-1 1 .45 1 1 1 1-.45 1-1"/></g><g><path fill="#3e721d" d="M15 20c0-.55-.45-1-1-1s-1 .45-1 1 .45 1 1 1 1-.45 1-1"/></g><g><path fill="#3e721d" d="M21 16c0-.55-.45-1-1-1s-1 .45-1 1 .45 1 1 1 1-.45 1-1"/></g><g><path fill="#3e721d" d="M14 10c0-.55-.45-1-1-1s-1 .45-1 1 .45 1 1 1 1-.45 1-1"/></g><g><path fill="#3e721d" d="M6 9c0-.55-.45-1-1-1s-1 .45-1 1 .45 1 1 1 1-.45 1-1"/></g><g><path fill="#3e721d" d="M10 16c0-.55-.45-1-1-1s-1 .45-1 1 .45 1 1 1 1-.45 1-1"/></g><g><path fill="#3e721d" d="M3 18c0-.55-.45-1-1-1s-1 .45-1 1 .45 1 1 1 1-.45 1-1"/></g><g><path fill="#3e721d" d="M35 28c0-.55-.45-1-1-1s-1 .45-1 1 .45 1 1 1 1-.45 1-1"/></g><g><path fill="#3e721d" d="M29 25c0-.55-.45-1-1-1s-1 .45-1 1 .45 1 1 1 1-.45 1-1"/></g><g><path fill="#3e721d" d="M33 20c0-.55-.45-1-1-1s-1 .45-1 1 .45 1 1 1 1-.45 1-1"/></g><g><path fill="#3e721d" d="M30 12c0-.55-.45-1-1-1s-1 .45-1 1 .45 1 1 1 1-.45 1-1"/></g><g><path fill="#3e721d" d="M23 6c0-.55-.45-1-1-1s-1 .45-1 1 .45 1 1 1 1-.45 1-1"/></g></g></g></g></svg>