<svg xmlns="http://www.w3.org/2000/svg" viewBox="0 0 45 45" enable-background="new 0 0 45 45"><defs><clipPath id="a"><path d="M0 36h36V0H0v36z"/></clipPath></defs><g><g><g clip-path="url(#a)" transform="matrix(1.25 0 0 -1.25 0 45)"><g><path fill="#da2f47" d="M4.04 8.08c4.9-.55 9.46 1.63 13.47 5.95 4.82 5.18 5 13 5 14s11.32 3.06 11-5C33.1 11.83 26.1 2.08 13.6 1.1c-6-.45-9.68.94-11.4 2.36-2.68 2.23-.74 4.92 1.84 4.62"/></g><g><path fill="#77b255" d="M21.33 27.42c.45 1.55 3.3 3.82 7.17 2.96 4.25-.96 6-2.97 6-6.64 0-3.67-3.58-.5-4.08.64-.5 1.12-2.6-2.25-4.4 1.28-.62 1.2-5.47-.96-4.7 1.76"/></g><g><path fill="#77b255" d="M26.23 34.5c1.14-1.17 3.03-2.74 2.2-5.27-.83-2.54 1.28-2.5 1.8-.95.52 1.54.68 4.85-.43 6.33-1.1 1.5-4.43.77-3.57-.1"/></g></g></g></g></svg>