<svg xmlns="http://www.w3.org/2000/svg" viewBox="0 0 45 45" enable-background="new 0 0 45 45"><defs><clipPath id="a"><path d="M0 36h36V0H0v36z"/></clipPath><clipPath id="b"><path d="M11.57 34.34l-1.44-3.38-3.28-1.28c-1.35-.54-2.04-2.06-1.5-3.4L6.72 23l-1.36-3.18c-.58-1.34-.04-2.68 1.3-3.26l3.26-1.4 1.26-3.3c.27-.67.76-1.25 1.38-1.5.62-.28 1.37-.24 2.05.04l3.27 1.36 3.3-1.42c1.35-.57 2.7-.03 3.27 1.3l1.36 3.2 3.27 1.27c1.35.55 2.05 2.07 1.5 3.42L29.2 22.8l1.46 3.37c.57 1.34.03 2.7-1.3 3.26l-3.3 1.4-1.3 3.3c-.26.68-.75 1.23-1.37 1.5-.63.26-1.37.26-2.04 0l-3.27-1.38-3.27 1.4c-.35.15-.7.22-1.06.22-.94 0-1.77-.55-2.2-1.53"/></clipPath><clipPath id="c"><path d="M0 36h36V0H0v36z"/></clipPath></defs><g><g><g clip-path="url(#a)" transform="matrix(1.25 0 0 -1.25 0 45)"><g><path fill="#77b255" d="M28.94 8.56c-2.56.9-8.1.43-9.94-1.33V19c0 .55-.45 1-1 1s-1-.45-1-1V7.23C15.17 9 9.62 9.45 7.06 8.56c-.74-.26 5.27-8.75 9.5-4.5.18.16.32.32.44.48V1c0-.55.45-1 1-1s1 .45 1 1v3.54c.12-.16.26-.32.43-.5 4.24-4.23 10.25 4.26 9.5 4.52"/></g><g><path fill="#ccd6dd" d="M12.56 10.35c-.62.27-1.1.84-1.38 1.5l-1.26 3.32-3.26 1.4c-1.34.57-1.88 1.9-1.3 3.25L6.72 23l-1.37 3.27c-.54 1.35.15 2.87 1.5 3.4l3.28 1.3 1.44 3.37c.58 1.34 1.93 1.88 3.26 1.3l3.26-1.4 3.26 1.38c.67.27 1.4.27 2.03 0 .6-.26 1.1-.8 1.37-1.5l1.28-3.28 3.3-1.4c1.34-.58 1.88-1.93 1.3-3.27l-1.44-3.38 1.37-3.28c.54-1.35-.15-2.87-1.5-3.4l-3.27-1.3-1.36-3.17c-.57-1.34-1.92-1.88-3.26-1.3l-3.3 1.4-3.27-1.35c-.67-.28-1.42-.32-2.04-.05"/></g></g></g><g><g clip-path="url(#b)" transform="matrix(1.25 0 0 -1.25 0 45)"><g><path fill="#e1e8ed" d="M18 35.74v-8.82l-2.94-.98-5.88 5.88-.98 3.92 5.64.98 4.16-.98z"/></g><g><path fill="#e1e8ed" d="M6.24 23h7.84l.98-1.96-7.1-8.13-5 3.53s.1 5.63.26 5.55C3.38 21.9 6.24 23 6.24 23"/></g><g><path fill="#e1e8ed" d="M18 18.1s.04-7.84 0-7.84 4.82-2.45 5.06-2.4c.25.03 4.4 3.18 4.58 3.3.16.12.7 1.47.7 1.47l-9.44 8.2-.9-2.73z"/></g><g><path fill="#e1e8ed" d="M26.7 31.62c-.04-.13-5.92-5-5.92-5s.16-3.17.32-3.25c.17-.08 9.72-.94 9.72-.94s2.5 7.55 2.37 7.47c-.13-.08-4.83 1.63-4.7 1.63.12 0-1.8.1-1.8.1"/></g></g></g><g><g clip-path="url(#c)" transform="matrix(1.25 0 0 -1.25 0 45)"><g><path fill="#f4900c" d="M23 23c0-2.76-2.24-5-5-5s-5 2.24-5 5 2.24 5 5 5 5-2.24 5-5"/></g></g></g></g></svg>