<svg xmlns="http://www.w3.org/2000/svg" viewBox="0 0 45 45" enable-background="new 0 0 45 45"><defs><clipPath id="a"><path d="M0 36h36V0H0v36z"/></clipPath></defs><g><g><g clip-path="url(#a)" transform="matrix(1.25 0 0 -1.25 0 45)"><g><path fill="#3e721d" d="M28 9c-8 0-8-6-8-6v11h-4V3s0 6-8 6c-4 0-7 2-7 2s0-9 9-9h6s0-2 2-2 2 2 2 2h6c9 0 9 9 9 9s-3-2-7-2"/></g><g><path fill="#ffac33" d="M21.13 8.34c-.33 0-.66.1-.93.28l-2.32 1.58-2.33-1.58c-.27-.2-.6-.28-.93-.28-.14 0-.28.02-.42.05-.47.12-.85.44-1.06.87L11.9 11.8l-2.8-.2c-.03 0-.07 0-.1 0-.44 0-.87.16-1.18.47-.34.34-.5.8-.48 1.3l.2 2.8-2.52 1.2c-.43.22-.75.6-.87 1.08-.13.46-.05.95.22 1.35l1.58 2.32-1.58 2.33c-.27.4-.35.9-.22 1.35.12.47.44.85.87 1.06l2.52 1.23-.2 2.8c-.03.47.14.94.48 1.27.3.32.74.5 1.17.5.03 0 .07 0 .1 0l2.8-.2 1.23 2.5c.2.44.6.76 1.06.88.14.04.28.06.42.06.33 0 .66-.1.93-.27l2.33-1.58 2.32 1.58c.27.18.6.28.93.28.14 0 .3 0 .42-.05.47-.12.86-.44 1.07-.87l1.22-2.52 2.8.2c.04 0 .08 0 .12 0 .43 0 .85-.17 1.17-.5.34-.32.5-.8.48-1.27l-.2-2.8 2.53-1.24c.43-.2.75-.6.88-1.06.13-.46.05-.96-.22-1.35l-1.58-2.33 1.58-2.32c.27-.4.35-.9.23-1.35-.12-.47-.44-.86-.87-1.07l-2.53-1.22.2-2.8c.04-.48-.13-.95-.47-1.3-.32-.3-.74-.47-1.17-.47-.04 0-.08 0-.12 0l-2.8.2-1.22-2.53c-.2-.43-.6-.75-1.07-.88-.14-.04-.28-.06-.43-.06"/></g><g><path fill="#732700" d="M25 22c0 3.87-3.13 7-7 7s-7-3.13-7-7 3.13-7 7-7 7 3.13 7 7"/></g></g></g></g></svg>