<svg xmlns="http://www.w3.org/2000/svg" viewBox="0 0 45 45" enable-background="new 0 0 45 45"><defs><clipPath id="a"><path d="M0 36h36V0H0v36z"/></clipPath></defs><g><g><g clip-path="url(#a)" transform="matrix(1.25 0 0 -1.25 0 45)"><g><path fill="#3e721d" d="M19.32 10.64c-.1 0-.22 0-.32 0v.4c4.8.5 8.55 4.28 8.55 7.3 0 3.26 0-1.46-9.56-1.46-9.57 0-9.57 4.72-9.57 1.47 0-3.04 3.76-6.84 8.57-7.3v-.4c-.1 0-.2 0-.32 0-2.55 0-6.6 2.04-6.6 1.3 0-.63 4.18-4 6.92-4.78V1c0-.55.45-1 1-1s1 .45 1 1v6.17c2.74.78 6.92 4.15 6.92 4.8 0 .72-4.05-1.33-6.6-1.33"/></g><g><path fill="#a0041e" d="M26.53 28.65c-3.9 4.4 1.5 5.88-2.6 5.88-.7 0-1.92-.44-3.28-1.2C19.95 34.92 19.02 36 18 36c-2.05 0-3.73-4.34-3.87-8.27-1.1-1.54-1.86-3.23-1.86-4.96 0-6.1 2.6-8.83 6.48-8.83 7.78 0 13.64 8.05 7.78 14.7"/></g><g><path fill="#be1931" d="M23.73 22.76c0-6.1-2.6-8.82-6.48-8.82-7.78 0-13.65 8.05-7.78 14.7 3.9 4.42-1.5 5.9 2.6 5.9 2.6 0 11.66-5.68 11.66-11.78"/></g></g></g></g></svg>