<svg xmlns="http://www.w3.org/2000/svg" viewBox="0 0 45 45" enable-background="new 0 0 45 45"><defs><clipPath id="a"><path d="M0 36h36V0H0v36z"/></clipPath></defs><g><g><g clip-path="url(#a)" transform="matrix(1.25 0 0 -1.25 0 45)"><g><path fill="#662113" d="M22 3c0-2.2-1.8-3-4-3s-4 .8-4 3l1 9c0 2.2.8 2 3 2s3 .2 3-2l1-9z"/></g><g><path fill="#5c913b" d="M31.4 8.7c-6.96 5.97-9.78 14.5-13.4 14.5-3.62 0-6.44-8.53-13.4-14.5-2.93-2.5-1.54-3.95 2.47-3.66C10.65 5.3 14 6.1 18 6.1c4 0 7.35-.8 10.93-1.06 4-.3 5.4 1.16 2.48 3.66"/></g><g><path fill="#3e721d" d="M29.14 11.07C23.8 15.97 20.8 23 18 23c-2.78 0-5.8-7.03-11.14-11.93-4.26-3.9 5.57-4.78 11.14 0 5.57-4.78 15.4-3.9 11.14 0"/></g><g><path fill="#5c913b" d="M29.14 15.04C23.8 19.64 20.8 26.2 18 26.2c-2.78 0-5.8-6.57-11.14-11.16-4.26-3.64 5.57-4.46 11.14 0 5.57-4.46 15.4-3.64 11.14 0"/></g><g><path fill="#3e721d" d="M26.7 18.3C22.52 21.88 20.18 27 18 27c-2.17 0-4.52-5.12-8.7-8.7-3.32-2.85 4.35-3.5 8.7 0 4.35-3.5 12.02-2.85 8.7 0"/></g><g><path fill="#5c913b" d="M26.7 21.27c-4.18 3.58-6.52 8.7-8.7 8.7-2.17 0-4.52-5.12-8.7-8.7-3.32-2.84 4.35-3.48 8.7 0 4.35-3.48 12.02-2.84 8.7 0"/></g><g><path fill="#3e721d" d="M25.02 23.92c-3.37 2.9-5.26 7.02-7.02 7.02-1.75 0-3.65-4.13-7.02-7.02-2.68-2.3 3.5-2.8 7.02 0 3.5-2.8 9.7-2.3 7.02 0"/></g><g><path fill="#5c913b" d="M25.02 26.16c-3.37 2.9-5.26 7.02-7.02 7.02-1.75 0-3.65-4.13-7.02-7.02-2.68-2.3 3.5-2.8 7.02 0 3.5-2.8 9.7-2.3 7.02 0"/></g><g><path fill="#3e721d" d="M23.34 29.46c-2.56 2.2-4 5.35-5.34 5.35-1.34 0-2.78-3.14-5.34-5.34-2.04-1.75 2.67-2.14 5.34 0 2.67-2.14 7.38-1.75 5.34 0"/></g><g><path fill="#5c913b" d="M23.34 30.66c-2.56 2.2-4 5.34-5.34 5.34-1.34 0-2.78-3.15-5.34-5.34-2.04-1.75 2.67-2.14 5.34 0 2.67-2.14 7.38-1.75 5.34 0"/></g></g></g></g></svg>