<svg xmlns="http://www.w3.org/2000/svg" viewBox="0 0 45 45" enable-background="new 0 0 45 45"><defs><clipPath id="a"><path d="M0 36h36V0H0v36z"/></clipPath></defs><g><g><g clip-path="url(#a)" transform="matrix(1.25 0 0 -1.25 0 45)"><g><path fill="#77b255" d="M19.6 3.67c6.5-6.5 17.26 7.67 15.72 7.67-7.67 0-22.22-1.16-15.72-7.67"/></g><g><path fill="#77b255" d="M15.64 2.63C9.6-3.4-.06 9.73 1.34 9.73c3.82 0 9.4.36 12.8-.86 2.96-1.05 4.3-3.44 1.5-6.24"/></g><g><path fill="#f4abba" d="M34.6 20.25c-.04.9-.16 2.58-1.38 4.22-1.17 1.55-3.8 3.37-5.54 2.6.52 1.66-.26 4.1-1.2 5.48-1.17 1.74-4.25 3.84-8.14 3.03-1.75-.37-4.18-2.04-4.63-3.87-1.17 1.48-4.2 1.7-6 1.23-2.03-.5-3.16-1.77-3.74-2.46 0 0-.02-.02-.03-.03 0 0-.02-.02-.03-.03-.58-.68-1.65-1.98-1.84-4.06-.2-2.15.75-5.84 3.02-6.05.15-.02.33-.04.52-.06-2.27-.1-3.58-3.65-3.6-5.8-.02-2.1.93-3.5 1.45-4.24 0 0 0-.02.02-.03 0 0 .02-.03.02-.04C4 9.4 5 8.03 7 7.35c1.97-.66 5.56-.65 6.57 1.24-.27-2.25 3.03-4.1 5.17-4.45 2.12-.36 3.7.36 4.55.76 0 0 .02.02.03.02 0 0 .03.02.04.02.84.4 2.4 1.18 3.46 3.04.73 1.3 1.27 3.4.95 5.02.07-.05.14-.1.2-.13 1.82-1.22 4.63 1.12 5.7 2.94 1.04 1.77.93 4.43.93 4.45"/></g><g><path fill="#ea596e" d="M27.54 22.46c-1.78 1-4.87.43-6.8-.3-.26.46-.6.87-1.04 1.2 1.4 1.6 3.53 4.58 1.47 6.35-2.2 1.9-3.74-2.15-3.58-5.6-.08 0-.14.02-.2.02-1.03 0-1.95-.4-2.64-1.04-1.4 2.28-3.94 4.24-5.3 2.4-1.5-2 1.14-3.16 4.2-4.2-.08-.34-.15-.68-.15-1.03 0-.46.1-.9.25-1.3-2.54-.73-6.23-2.72-4.2-4.9 2.1-2.3 4.46 1.23 5.6 3.04.63-.46 1.4-.73 2.24-.73.22 0 .43.03.65.06-.1-4.8 1.44-7.07 4.03-5.9 2.3 1.06-.13 5.3-1.78 7.18.32.37.57.8.73 1.25 7-2.55 8.6 2.35 6.5 3.5"/></g><g><path fill="#be1931" d="M17.7 18.54c-.67 0-.66.56-.82 1.25-.54 2.23-2.4 6.3-4.6 9.15-.5.66-.4 1.6.26 2.1.65.52 1.6.4 2.1-.25 2.44-3.14 3.27-7.4 3.98-10.43.2-.8.24-1.6-.56-1.8-.12 0-.24-.03-.35-.03"/></g><g><path fill="#ffcc4d" d="M15.9 30.67c.5-.68.08-1.84-.93-2.58l-.48-.35c-1.02-.74-2.25-.8-2.75-.1l-2.78 3.8c-.5.7-.08 1.85.94 2.6l.48.34c1.02.73 2.25.77 2.74.1l2.78-3.83z"/></g></g></g></g></svg>