<svg xmlns="http://www.w3.org/2000/svg" viewBox="0 0 45 45" enable-background="new 0 0 45 45"><defs><clipPath id="a"><path d="M0 36h36V0H0v36z"/></clipPath></defs><g><g><g clip-path="url(#a)" transform="matrix(1.25 0 0 -1.25 0 45)"><g><path fill="#77b255" d="M34.75 14c-3.38 0-11.9-3.55-15.75-7.16V19c0 .55-.45 1-1 1s-1-.45-1-1V6.66C13.25 10.33 4.5 14 1.05 14 .12 14 11.9 0 17 1.4V1c0-.55.45-1 1-1s1 .45 1 1v.36C24.2.36 35.67 14 34.75 14"/></g><g><path fill="#ea596e" d="M25 22.58c0-6.35-1.7-9.58-7-9.58s-7 3.23-7 9.58S16 36 18 36s7-7.07 7-13.42"/></g><g><path fill="#f4abba" d="M22.8 34c-.5 0-4.1-14.27-4.8-19.28-.75 5-4.52 19.28-5 19.28-1 0-6-9-6-13s5.7-8 11-8 10.8 4 10.8 8-5 13-6 13"/></g></g></g></g></svg>