<svg xmlns="http://www.w3.org/2000/svg" viewBox="0 0 45 45" enable-background="new 0 0 45 45"><defs><clipPath id="a"><path d="M0 36h36V0H0v36z"/></clipPath></defs><g><g><g clip-path="url(#a)" transform="matrix(1.25 0 0 -1.25 0 45)"><g><path fill="#662113" d="M22 3c0-2.2-1.8-3-4-3s-4 .8-4 3l1 9c0 2.2.8 2 3 2s3 .2 3-2l1-9z"/></g><g><path fill="#5c913b" d="M34 19c0-8.84-7.16-12-16-12S2 10.16 2 19s9 17 16 17 16-8.16 16-17"/></g><g><path fill="#3e721d" d="M8 15c0 .55-.9 1-2 1s-2-.45-2-1 .9-1 2-1 2 .45 2 1"/></g><g><path fill="#3e721d" d="M32 15c0 .55-.9 1-2 1s-2-.45-2-1 .9-1 2-1 2 .45 2 1"/></g><g><path fill="#3e721d" d="M12 11c0 .55-.9 1-2 1s-2-.45-2-1 .9-1 2-1 2 .45 2 1"/></g><g><path fill="#3e721d" d="M16 14c0 .55-.9 1-2 1s-2-.45-2-1 .9-1 2-1 2 .45 2 1"/></g><g><path fill="#3e721d" d="M12 20c0 .55-.9 1-2 1s-2-.45-2-1 .9-1 2-1 2 .45 2 1"/></g><g><path fill="#3e721d" d="M9 24c0 .55-.9 1-2 1s-2-.45-2-1 .9-1 2-1 2 .45 2 1"/></g><g><path fill="#3e721d" d="M31 24c0 .55-.9 1-2 1s-2-.45-2-1 .9-1 2-1 2 .45 2 1"/></g><g><path fill="#3e721d" d="M16 26c0 .55-.9 1-2 1s-2-.45-2-1 .9-1 2-1 2 .45 2 1"/></g><g><path fill="#3e721d" d="M24 26c0 .55-.9 1-2 1s-2-.45-2-1 .9-1 2-1 2 .45 2 1"/></g><g><path fill="#3e721d" d="M28 20c0 .55-.9 1-2 1s-2-.45-2-1 .9-1 2-1 2 .45 2 1"/></g><g><path fill="#3e721d" d="M20 19c0 .55-.9 1-2 1s-2-.45-2-1 .9-1 2-1 2 .45 2 1"/></g><g><path fill="#3e721d" d="M24 14c0 .55-.9 1-2 1s-2-.45-2-1 .9-1 2-1 2 .45 2 1"/></g><g><path fill="#3e721d" d="M20 10c0 .55-.9 1-2 1s-2-.45-2-1 .9-1 2-1 2 .45 2 1"/></g><g><path fill="#3e721d" d="M28 11c0 .55-.9 1-2 1s-2-.45-2-1 .9-1 2-1 2 .45 2 1"/></g></g></g></g></svg>