<svg xmlns="http://www.w3.org/2000/svg" viewBox="0 0 45 45" enable-background="new 0 0 45 45"><defs><clipPath id="a"><path d="M0 36h36V0H0v36z"/></clipPath><clipPath id="b"><path d="M8.5 26.77c.87-2.87 2.74-3.87 6.48-5.87 2 3.75 3 5.62 2.12 8.5-.87 2.86-3.18 5.3-6.5 5.86-2.42-2.3-3-5.62-2.1-8.5"/></clipPath><clipPath id="c"><path d="M2.94 22.46c-.96-2.15-.44-4.45.9-6.1 1.34-1.62 2.83-1.76 5.8-2.06.3 2.97.44 4.46-.9 6.1-1.1 1.32-2.72 2.2-4.54 2.2-.4 0-.83-.04-1.26-.14"/></clipPath><clipPath id="d"><path d="M14.64 18.4c2.38-3.05 3.57-4.57 6.28-4.9 2.7-.33 5.58.7 7.26 3.23-1.02 2.88-3.56 4.56-6.27 4.9-.3.03-.57.05-.84.05-2.2 0-3.7-1.18-6.4-3.3"/></clipPath><clipPath id="e"><path d="M8.86 8.97c2.37-2.73 3.55-4.1 6.1-4.3 2.55-.17 5.2.92 6.65 3.38-1.08 2.64-3.54 4.1-6.1 4.3-.16 0-.32 0-.5 0-2.23 0-3.6-1.17-6.14-3.38"/></clipPath><clipPath id="f"><path d="M26.8 33.14c-2.44-1.02-3.15-2.75-4.56-6.2 3.45-1.4 5.18-2.12 7.6-1.1 2.45 1.02 4.37 3.26 4.56 6.2-1.37 1.18-3 1.7-4.62 1.7-1.02 0-2.05-.2-3-.6"/></clipPath><clipPath id="g"><path d="M0 36h36V0H0v36z"/></clipPath></defs><g><g><g clip-path="url(#a)" transform="matrix(1.25 0 0 -1.25 0 45)"><g><path fill="#77b255" d="M20.92 13.5c-2.7.33-3.9 1.85-6.28 4.9 3.04 2.36 4.56 3.55 7.27 3.22 2.72-.33 5.26-2 6.28-4.9-1.68-2.53-4.55-3.55-7.26-3.22"/></g><g><path fill="#77b255" d="M14.96 4.68c-2.55.2-3.73 1.56-6.1 4.3 2.74 2.36 4.1 3.54 6.65 3.36 2.56-.2 5.02-1.65 6.1-4.3-1.45-2.45-4.1-3.54-6.64-3.36"/></g><g><path fill="#77b255" d="M8.74 20.4c1.34-1.64 1.2-3.13.9-6.1-2.97.3-4.46.44-5.8 2.07-1.34 1.64-1.86 3.94-.9 6.1 2.3.52 4.46-.45 5.8-2.08"/></g><g><path fill="#77b255" d="M29.85 25.84c-2.43-1.02-4.16-.32-7.6 1.1 1.4 3.45 2.1 5.18 4.54 6.2 2.42 1.02 5.37.82 7.6-1.1-.2-2.94-2.1-5.18-4.55-6.2"/></g><g><path fill="#77b255" d="M17.1 29.4c.88-2.88-.12-4.75-2.12-8.5-3.74 2-5.62 3-6.5 5.87-.87 2.87-.3 6.18 2.13 8.5 3.32-.57 5.63-3 6.5-5.88"/></g></g></g><g><g clip-path="url(#b)" transform="matrix(1.25 0 0 -1.25 0 45)"><g><path fill="#a6d388" d="M14.83 21c.08-3-8.9 3.8-9.15 5.73-.25 1.94-.44 5.67 1 7.4C8.1 35.84 9 37.38 9.84 36.48c1.16-1.28 4.9-12.5 5-15.5"/></g></g></g><g><g clip-path="url(#c)" transform="matrix(1.25 0 0 -1.25 0 45)"><g><path fill="#a6d388" d="M2.32 22.82c1.4-.98 6.2-6.34 7.32-8.52 1.12-2.17-3.2-2.28-5.16-.67-1.96 1.6-4.8 2.95-4.18 5.16.6 2.2 2.02 4.02 2.02 4.02"/></g></g></g><g><g clip-path="url(#d)" transform="matrix(1.25 0 0 -1.25 0 45)"><g><path fill="#5c913b" d="M15.03 18.75c1.88-.1 11.15-.94 14.9-2.7 3.75-1.74 1.92 5.13-1.82 6.4-3.73 1.24-7.4 3.24-10.03 1.4-2.64-1.87-3.04-5.1-3.04-5.1"/></g></g></g><g><g clip-path="url(#e)" transform="matrix(1.25 0 0 -1.25 0 45)"><g><path fill="#5c913b" d="M8.1 9c2.58.25 9.03 1.34 14.53-1.4s-1 6.75-4.32 6.94c-3.3.2-4.6 1.8-7-.37C8.9 12 8.1 9 8.1 9"/></g></g></g><g><g clip-path="url(#f)" transform="matrix(1.25 0 0 -1.25 0 45)"><g><path fill="#a6d388" d="M22.26 26.77c1.5.98 10.4 5.67 13.84 5.37 3.43-.3-4.13-9.84-12.15-7.62-2.34.65-1.7 2.25-1.7 2.25"/></g></g></g><g><g clip-path="url(#g)" transform="matrix(1.25 0 0 -1.25 0 45)"><g><path fill="#a06253" d="M4.75.94c-.58.1-1.36.83-1.27 1.42.54 3.56 2.86 12.16 18.3 24.75.45.4.97.67 1.36.22.4-.44-.05-.95-.5-1.34C9.34 14.4 7.14 5.25 6.62 1.92c-.1-.6-1.28-1.07-1.87-.98"/></g></g></g></g></svg>