<svg xmlns="http://www.w3.org/2000/svg" viewBox="0 0 45 45" enable-background="new 0 0 45 45"><defs><clipPath id="a"><path d="M0 36h36V0H0v36z"/></clipPath><clipPath id="b"><path d="M18 28c-2.2 0-3 .2-3-2L14 4c0-2.2 1.8-3 4-3s4 .8 4 3l-1 22c0 1.86-.56 2-2.05 2-.28 0-.6 0-.95 0"/></clipPath><clipPath id="c"><path d="M0 36h36V0H0v36z"/></clipPath></defs><g><g><g clip-path="url(#a)" transform="matrix(1.25 0 0 -1.25 0 45)"><g><path fill="#3e721d" d="M20.94 33.53c-1.17-.64-2.16-1.4-2.94-2.22-.78.83-1.77 1.6-2.94 2.23-5.7 3.1-9.9.52-9.72-.76.18-1.28 3.66 1.84 7.7-3.47 1.6-2.1 2.9-3.56 4-4.17.27-.2.56-.32.87-.32.04 0 .07 0 .1 0s.06 0 .1 0c.3 0 .6.12.87.33 1.1.6 2.38 2.08 3.98 4.17 4.05 5.3 7.53 2.2 7.7 3.47.2 1.28-4 3.86-9.7.76"/></g><g><path fill="#d99e82" d="M22 4c0-2.2-1.8-3-4-3s-4 .8-4 3l1 22c0 2.2.8 2 3 2s3 .2 3-2l1-22z"/></g></g></g><g><g clip-path="url(#b)" transform="matrix(1.25 0 0 -1.25 0 45)"><g><path fill="#c1694f" d="M18 3c-2.9 0-6 .9-6 2.88 0 .55.45 1 1 1 .53 0 .96-.4 1-.93.23-.3 1.6-.95 4-.95s3.77.65 4 .95c.04.52.47.92 1 .92.55 0 1-.44 1-1C24 3.9 20.9 3 18 3"/></g><g><path fill="#c1694f" d="M18 8c-2.9 0-6 .9-6 2.88 0 .55.45 1 1 1 .53 0 .96-.4 1-.93.23-.3 1.6-.95 4-.95s3.77.65 4 .95c.04.52.47.92 1 .92.55 0 1-.44 1-1C24 8.9 20.9 8 18 8"/></g><g><path fill="#c1694f" d="M18 13c-2.9 0-6 .9-6 2.88 0 .55.45 1 1 1 .53 0 .96-.4 1-.93.23-.3 1.6-.95 4-.95s3.77.65 4 .95c.04.52.47.92 1 .92.55 0 1-.44 1-1C24 13.9 20.9 13 18 13"/></g><g><path fill="#c1694f" d="M18 18c-2.9 0-6 .9-6 2.88 0 .55.45 1 1 1 .53 0 .96-.4 1-.93.23-.3 1.6-.95 4-.95s3.77.65 4 .95c.04.52.47.92 1 .92.55 0 1-.44 1-1C24 18.9 20.9 18 18 18"/></g><g><path fill="#c1694f" d="M18 23c-2.9 0-6 .9-6 2.88 0 .55.45 1 1 1 .53 0 .96-.4 1-.93.23-.3 1.6-.95 4-.95s3.77.65 4 .95c.04.52.47.92 1 .92.55 0 1-.44 1-1C24 23.9 20.9 23 18 23"/></g></g></g><g><g clip-path="url(#c)" transform="matrix(1.25 0 0 -1.25 0 45)"><g><path fill="#5c913b" d="M27 32c-4.45.64-8.2-.9-8.88-3.23-.04-.02-.08-.04-.12-.06-.04.03-.08.06-.12.07-.7 2.34-4.43 3.87-8.88 3.23-7-1-9-6-8-7s2 4 9 2c.02 0 .04 0 .06-.02-.16-.1-.32-.2-.48-.33-5.66-4.25-5-9.6-3.65-10 1.36-.4-.17 4.48 6.93 6.1 2.22.5 3.96 1 5.14 1.57 1.18-.58 2.92-1.07 5.14-1.58 7.1-1.6 5.57-6.48 6.92-6.08 1.36.4 2.02 5.74-3.64 10-.16.1-.32.2-.48.32.02 0 .04 0 .06.02 7 2 8-3 9-2s-1 6-8 7"/></g></g></g></g></svg>