<svg xmlns="http://www.w3.org/2000/svg" viewBox="0 0 45 45" enable-background="new 0 0 45 45"><defs><clipPath id="a"><path d="M0 36h36V0H0v36z"/></clipPath></defs><g><g><g clip-path="url(#a)" transform="matrix(1.25 0 0 -1.25 0 45)"><g><path fill="#f4abba" d="M18 15.66c-.16.3-.35.54-.6.7-.22.18-.52.3-.84.35.22.26.4.52.5.8.08.27.1.58.05.9.3-.13.6-.22.9-.22.3 0 .6.1.9.23-.05-.32-.04-.63.05-.9.1-.28.27-.54.5-.8-.33-.05-.63-.16-.86-.33-.25-.17-.44-.4-.6-.7m13.3-.48c4.2 1.36 5.02 3.18 4.2 6.4-.96-.3-2.12 0-2.28.53-.17.5.58 1.44 1.53 1.75-1.22 3.1-2.96 4.1-7.16 2.73-1.62-.5-3.25-1.48-4.67-2.63.65 1.7 1.07 3.56 1.07 5.24 0 4.43-1.47 5.78-4.8 5.98 0-1-.66-2-1.2-2-.54 0-1.2 1-1.2 2-3.33-.2-4.8-1.55-4.8-5.97 0-1.67.42-3.53 1.07-5.23-1.42 1.15-3.05 2.1-4.66 2.64-4.2 1.37-5.93.4-7.15-2.72.95-.3 1.7-1.24 1.53-1.75-.16-.52-1.32-.83-2.27-.52-.83-3.22 0-5.04 4.2-6.4 1.6-.53 3.5-.7 5.32-.6-1.53-1-2.95-2.26-3.95-3.63-2.6-3.57-2.2-5.53.38-7.65.6.8 1.7 1.24 2.15.92.43-.32.37-1.5-.2-2.32 2.8-1.8 4.8-1.57 7.38 2 1 1.37 1.74 3.1 2.22 4.87.47-1.77 1.23-3.5 2.22-4.88 2.6-3.57 4.58-3.8 7.4-2-.6.8-.65 2-.22 2.32.44.32 1.56-.1 2.15-.92 2.57 2.12 2.97 4.08.38 7.65-1 1.37-2.42 2.62-3.95 3.62 1.82-.1 3.7.07 5.32.6"/></g><g><path fill="#fff" d="M16.8 17.3c-.13-.53-.66-.87-1.2-.75l-5.86 1.3c-.53.13-.87.66-.76 1.2.13.54.66.88 1.2.76l5.86-1.3c.53-.1.87-.65.75-1.2"/></g><g><path fill="#fff" d="M17.77 17.1c.12.54.66.88 1.2.76l5.85-1.3c.54-.13.88-.66.76-1.2-.12-.54-.65-.88-1.2-.76l-5.85 1.3c-.54.12-.88.66-.76 1.2"/></g><g><path fill="#fff" d="M17.77 17.1c-.46-.3-1.08-.16-1.38.3l-3.23 5.07c-.3.46-.16 1.08.3 1.38.47.3 1.1.16 1.4-.3l3.2-5.07c.3-.47.17-1.1-.3-1.38"/></g><g><path fill="#fff" d="M18.57 15.84c.46.3 1.08.16 1.38-.3l3.22-5.06c.3-.47.16-1.1-.3-1.4-.47-.28-1.1-.14-1.4.32l-3.2 5.06c-.3.47-.17 1.1.3 1.38"/></g><g><path fill="#fff" d="M18 18.07c-.55.12-.9.66-.77 1.2l1.3 5.85c.12.54.65.88 1.2.76.53-.12.87-.65.75-1.2l-1.3-5.85c-.12-.54-.65-.88-1.2-.76"/></g><g><path fill="#fff" d="M17.77 17.1c.54-.12.88-.66.76-1.2l-1.3-5.85c-.12-.54-.65-.88-1.2-.76-.53.1-.87.64-.75 1.18l1.3 5.86c.12.54.65.88 1.2.76"/></g><g><path fill="#fff" d="M17.77 17.1c-.3.46-.16 1.08.3 1.38l5.07 3.22c.47.3 1.08.16 1.38-.3.3-.47.16-1.1-.3-1.4l-5.07-3.2c-.46-.3-1.08-.17-1.38.3"/></g><g><path fill="#fff" d="M17.77 17.1c.3-.47.16-1.1-.3-1.38L12.4 12.5c-.46-.3-1.08-.17-1.38.3-.3.47-.16 1.1.3 1.38l5.07 3.22c.46.3 1.08.16 1.37-.3"/></g><g><path fill="#ea596e" d="M22 10.43c.94.6 2.18.32 2.77-.6.6-.94.32-2.18-.6-2.77-.94-.6-2.18-.32-2.77.6-.6.94-.32 2.18.6 2.77"/></g><g><path fill="#ea596e" d="M14.55 22.16c-.93-.6-2.17-.32-2.76.6-.6.94-.33 2.18.6 2.77.93.6 2.17.32 2.76-.6.6-.94.32-2.18-.6-2.77"/></g><g><path fill="#ea596e" d="M16.47 11.24c1.08-.24 1.76-1.3 1.52-2.4-.25-1.06-1.32-1.74-2.4-1.5-1.08.24-1.76 1.3-1.52 2.38.24 1.08 1.3 1.76 2.4 1.52"/></g><g><path fill="#ea596e" d="M19.5 24.9c-1.07.25-1.75 1.3-1.5 2.4.23 1.07 1.3 1.75 2.37 1.5 1.08-.23 1.76-1.3 1.52-2.37-.25-1.08-1.32-1.76-2.4-1.52"/></g><g><path fill="#ea596e" d="M13.5 14.38c.6-.94.3-2.17-.62-2.77-.93-.58-2.17-.3-2.76.63-.6.93-.32 2.17.6 2.76.94.58 2.18.3 2.77-.62"/></g><g><path fill="#ea596e" d="M22.83 20.32c-.6.93-.3 2.17.62 2.76.93.6 2.17.32 2.76-.6.6-.95.32-2.18-.6-2.78-.94-.6-2.17-.3-2.77.62"/></g><g><path fill="#ea596e" d="M23.63 15.8c.24 1.07 1.3 1.75 2.38 1.5 1.1-.23 1.77-1.3 1.53-2.37-.24-1.08-1.3-1.76-2.38-1.52-1.08.25-1.76 1.32-1.52 2.4"/></g><g><path fill="#ea596e" d="M10.94 18.62c-.24-1.08-1.3-1.76-2.4-1.52-1.07.24-1.75 1.3-1.5 2.38.23 1.08 1.3 1.76 2.38 1.52 1.08-.24 1.76-1.3 1.52-2.38"/></g><g><path fill="#ffcc4d" d="M22 17.18c0-2.2-1.8-4-4-4s-4 1.8-4 4 1.8 4 4 4 4-1.8 4-4"/></g></g></g></g></svg>