<svg xmlns="http://www.w3.org/2000/svg" viewBox="0 0 45 45" enable-background="new 0 0 45 45"><defs><clipPath id="a"><path d="M0 36h36V0H0v36z"/></clipPath></defs><g><g><g clip-path="url(#a)" transform="matrix(1.25 0 0 -1.25 0 45)"><g><path fill="#d99e82" d="M14 16C14 11.58 12 3.44.94 3 3.56 6.88 0 11.58 0 16s2.58 8 7 8 7-3.58 7-8"/></g><g><path fill="#c1694f" d="M8 14.42c0 .03 0 .05 0 .08V18h.54c2.93 0 5.45-2.5 5.45-2.5 0 .55-2.17 4.5-5.75 4.5H8v7c0 .55-.45 1-1 1s-1-.45-1-1v-7h-.54C1.88 20 .02 16.05.02 15.5c0 0 2.22 2.5 5.15 2.5H6v-2.04c0-.4-.02-.75-.03-1.12h-.43C1.94 14.93 1 11.5 1 10.95c0 0 1.28 1.97 4.2 1.9h.64c-.1-1.05-.26-2-.45-2.84-1.75-.38-3.28-1.8-3.37-2.2 0 0 1.87.5 2.86.43C3.4 3.9.93 3 .93 3c.37 0 3.43.97 5.4 4.45l.37-.18c.84-.5 1.76-2.22 1.76-2.22.2.4.14 2.92-1.3 4.25.33.9.57 1.93.7 3.1 2.72-.8 4.23-3.67 4.23-3.67.12.53-.75 4.75-4.1 5.7"/></g><g><path fill="#d99e82" d="M15.67 18.72C15.67 12.38 18.54.7 34.42.06c-3.77 5.56 1.35 12.32 1.35 18.66S32.07 30.2 25.72 30.2c-6.34 0-10.05-5.14-10.05-11.48"/></g><g><path fill="#c1694f" d="M28.3 14.2c4.2.08 6.03-2.76 6.03-2.76-.02.8-1.37 5.72-6.5 5.62h-.8c-.02.5-.03 1.04-.03 1.6V21h1.35c4.2 0 7.4-3.02 7.4-3.02 0 .8-2.68 6.02-7.82 6.02H27v10.5c0 .8-.7 1.44-1.5 1.44S24 35.3 24 34.5V24h-.07c-5.15 0-8.24-5.23-8.24-6.02 0 0 3.6 3.02 7.8 3.02h.5v-4.43c0-.08 0-.14 0-.22-4.57-1.5-5.77-7.32-5.58-8.06 0 0 2.06 3.9 5.77 5.15.2-1.72.57-3.24 1.06-4.57-1.84-1.95-1.9-5.32-1.63-5.87 0 0 1.32 2.5 2.5 3.2l.32.14C29.3 1.44 33.67.06 34.2.06c0 0-3.5 1.3-5.63 7.5 1.37.16 4.3-.6 4.3-.6-.14.57-2.45 2.72-5.03 3.2-.26 1.2-.48 2.53-.63 4.02l1.1.02z"/></g></g></g></g></svg>