<svg xmlns="http://www.w3.org/2000/svg" viewBox="0 0 45 45" enable-background="new 0 0 45 45"><defs><clipPath id="a"><path d="M0 36h36V0H0v36z"/></clipPath></defs><g><g><g clip-path="url(#a)" transform="matrix(1.25 0 0 -1.25 0 45)"><g><path fill="#5c913b" d="M2.47 29.43C1.53 27.3 1 24.96 1 22.5 1 12.83 9.06 5 19 5c7.75 0 14.33 4.77 16.87 11.44l-33.4 13z"/></g><g><path fill="#ffe8b6" d="M4.33 28.7C3.48 26.8 3 24.7 3 22.5c0-8.6 7.16-15.56 16-15.56 6.9 0 12.77 4.26 15 10.22L4.34 28.7z"/></g><g><path fill="#dd2e44" d="M6.2 27.98C5.42 26.3 5 24.45 5 22.5c0-7.52 6.27-13.6 14-13.6 6.06 0 11.2 3.74 13.16 8.98L6.2 27.98z"/></g><g><path d="M9.92 21.72c-.3-.46-.74-.7-.97-.55-.23.15-.17.65.13 1.1.3.47.74.72.97.56.23-.15.17-.65-.13-1.1"/></g><g><path d="M15.92 20.72c-.3-.46-.74-.7-.97-.55-.23.15-.17.65.13 1.1.3.47.74.72.97.56.23-.15.17-.65-.13-1.1"/></g><g><path d="M21 16.04c.05-.55-.13-1-.4-1.04-.28-.02-.55.4-.6.95-.05.56.14 1.02.4 1.04.3.02.55-.4.6-.96"/></g><g><path d="M12 18.04c.05-.55-.13-1-.4-1.04-.28-.02-.55.4-.6.95-.05.56.14 1.02.4 1.04.3.02.55-.4.6-.96"/></g><g><path d="M15.9 12.7c-.33-.44-.78-.66-1-.5-.22.17-.13.66.2 1.1.34.44.78.66 1 .5.23-.17.13-.66-.2-1.1"/></g><g><path d="M23.94 12.25c.27-.5.3-.98.06-1.12-.25-.14-.66.14-.93.62-.28.48-.3.98-.06 1.12.25.14.66-.14.94-.62"/></g><g><path d="M16.92 17.27c.3-.46.36-.95.13-1.1-.23-.16-.66.1-.97.56-.3.46-.36.95-.13 1.1.23.16.66-.1.97-.56"/></g><g><path d="M25.9 15.7c-.33-.44-.78-.66-1-.5-.22.17-.13.66.2 1.1.34.44.78.66 1 .5.23-.17.13-.66-.2-1.1"/></g></g></g></g></svg>