<svg xmlns="http://www.w3.org/2000/svg" viewBox="0 0 45 45" enable-background="new 0 0 45 45"><defs><clipPath id="a"><path d="M0 36h36V0H0v36z"/></clipPath><clipPath id="b"><path d="M18 36C8.06 36 0 28 0 18c0-2.2 1.8-4 4-4h28c2.2 0 4 1.8 4 4 0 10-8.06 18-18 18z"/></clipPath></defs><g><g><g clip-path="url(#a)" transform="matrix(1.25 0 0 -1.25 0 45)"><g><path fill="#99aab5" d="M27 3c0-2.2-1.8-3-4-3H13c-2.2 0-4 .8-4 3s3 7 3 13 12 6 12 0 3-10.8 3-13"/></g></g></g><g><g clip-path="url(#b)" transform="matrix(1.25 0 0 -1.25 0 45)"><g><path fill="#dd2e44" d="M18 36.6c-10.5 0-19-8.63-19-19.18C-1 15.1.9 13 3.22 13h29.56C35.1 13 37 15.1 37 17.42c0 10.55-8.5 19.2-19 19.2"/></g><g><path fill="#f4abba" d="M7.7 19.54c-3.4 0-6.16 2.77-6.16 6.17S4.3 31.9 7.7 31.9s6.18-2.77 6.18-6.17-2.77-6.16-6.17-6.16"/></g><g><path fill="#f4abba" d="M7.7 32c-3.47 0-6.28-2.82-6.28-6.3 0-3.47 2.8-6.28 6.3-6.28 3.46 0 6.28 2.8 6.28 6.3C14 29.17 11.18 32 7.7 32m0-.25c3.34 0 6.05-2.7 6.05-6.04 0-3.32-2.7-6.03-6.04-6.03-3.32 0-6.03 2.7-6.03 6.04s2.7 6.05 6.04 6.05"/></g><g><path fill="#f4abba" d="M34.67 24.8c-.96 2.37-2.4 4.47-4.2 6.2-2.48-.03-4.47-2.03-4.47-4.5 0-2.5 2-4.5 4.5-4.5 1.9 0 3.5 1.16 4.17 2.8"/></g><g><path fill="#f4abba" d="M26 20c0-2.48-2.02-4.5-4.5-4.5-2.5 0-4.5 2.02-4.5 4.5s2 4.5 4.5 4.5c2.48 0 4.5-2.02 4.5-4.5"/></g><g><path fill="#f4abba" d="M23 31c0-1.66-1.34-3-3-3s-3 1.34-3 3 1.34 3 3 3 3-1.34 3-3"/></g></g></g></g></svg>