<svg xmlns="http://www.w3.org/2000/svg" viewBox="0 0 45 45" enable-background="new 0 0 45 45"><defs><clipPath id="a"><path d="M0 36h36V0H0v36z"/></clipPath></defs><g><g><g clip-path="url(#a)" transform="matrix(1.25 0 0 -1.25 0 45)"><g><path fill="#5c913b" d="M18.24 26.37c-.28 3.3 2.17 4.72 2.17 4.72-3.2-.13-4.88-2.84-4.88-2.84-.75 1.3.94 4 2.17 4.72-3.2-.1-3.68-2.12-3.68-2.12-1.5 2.6-1.03 4.6-1.03 4.6-1.13-.64-1.78-2.1-2.15-3.5l-2.32 2.67c-.23-1.05.15-3.18.57-4.96-3.05 1.8-5.9.15-5.9.15 3.95-1.2 5.45-3.8 5.45-3.8S4.7 27.23 3 24.5c2.6.1 4.5-.5 5.86-1.23-1.16-.3-3.15.24-4.36-1.37 0 0 3.2.12 3.85-1.05-2.17-.62-3.57-2.25-3.57-2.25 4.42.8 9.12-1.67 9.12-1.67l6.12 3.53c-1.03 4.6 2.64 6.73 2.64 6.73-2.72 1.88-4.42-.83-4.42-.83"/></g><g><path fill="#ffac33" d="M29.56 13.12c2.5-4.3 1.22-9.7-2.84-12.04-4.05-2.34-9.36-.75-11.84 3.56l-1.6 2.75c-2.48 4.3-1.2 9.7 2.85 12.03 4.05 2.35 9.35.75 11.84-3.56l1.6-2.75z"/></g><g><path fill="#ffcc4d" d="M27.72 9.54l-1.95.83.82 1.95 1.95-.83-.83-1.96zm-1.66-3.9l-1.95.83.84 1.95 1.95-.83-.84-1.96zm-1.66-3.9l-1.95.82.83 1.96 1.95-.83-.83-1.96zm-4.2 6.38l.84 1.96L23 9.25l-.84-1.96-1.95.82zm.3-4.73l-1.95.82.83 1.95 1.95-.83-.83-1.95zm-4.2 6.38l.83 1.95 1.96-.83-.84-1.95-1.95.83zm.3-4.73l-1.95.83.83 1.95L17.43 7l-.83-1.95zm-4.2 6.4l.83 1.94 1.95-.84-.82-1.95-1.96.84zm2.5 5.84l1.94-.84L16 14.5l-1.94.84.83 1.95zm3.9-1.67l1.94-.82-.83-1.95-1.94.83.83 1.95zm1.65 3.9l1.95-.82-.83-1.94-1.95.82.83 1.96zm4.2-6.38l-.83-1.95-1.96.83.83 1.95 1.94-.83zm-.3 4.73l1.95-.83-.83-1.95-1.95.83.83 1.95zm6.2-7.24c-.2.84-.53 1.68-1 2.48l-.18.32-1.95.83.63 1.47-.08.13c-2.02 3.5-5.92 5.22-9.48 4.47l-.83-1.93-1.9.8c-3.27-2.1-4.56-6.3-3.25-10.12l1-.42-.4-.95c.06-.1.1-.2.17-.3l1.58-2.76c.68-1.2 1.6-2.16 2.6-2.9l.24.53 1.95-.83-.32-.76C20.02.4 20.7.2 21.4.1l.23.5 1.4-.58c1.14.05 2.28.33 3.34.88l.8 1.96 1.2-.5c.52.52.97 1.1 1.34 1.73l-1.7.7.84 1.96 1.67-.7c.2.7.3 1.42.32 2.16l-1.15.5.83 1.94.06-.02z"/></g></g></g></g></svg>