<svg xmlns="http://www.w3.org/2000/svg" viewBox="0 0 45 45" enable-background="new 0 0 45 45"><defs><clipPath id="a"><path d="M0 36h36V0H0v36z"/></clipPath></defs><g><g><g clip-path="url(#a)" transform="matrix(1.25 0 0 -1.25 0 45)"><g><path fill="#77b255" d="M32.55 17.15C30.45 19 25.85 20.4 22.37 21c3.5.57 8.1 1.98 10.18 3.83 2 1.77 2.96 2.95 2.14 4.72-.58 1.22-2.86 1.33-4.17 2.5-1.32 1.15-1.45 3.17-2.83 3.67-2 .72-3.34-.12-5.35-1.9-2.1-1.84-3.7-5.9-4.35-8.97-.65 3.08-2.26 7.13-4.35 8.98-2.02 1.77-3.34 2.6-5.35 1.9-1.4-.5-1.5-2.53-2.83-3.7-1.3-1.15-3.6-1.26-4.16-2.48-.82-1.78.14-2.95 2.15-4.72 2.1-1.85 6.7-3.26 10.18-3.84-3.5-.6-8.1-2-10.18-3.85C1.43 15.37.48 14.2 1.3 12.43c.57-1.22 2.86-1.34 4.17-2.5C6.8 8.8 6.92 6.77 8.3 6.27c2-.72 3.34.12 5.35 1.9 1.65 1.45 3 4.28 3.8 6.92-.25-4.53.54-10.6 3.87-14.26 1.34-1.48 2.4-.55 2.82-.2.4.38 1.6 1.43.18 2.84-3.9 3.88-5.26 7.9-5.62 11.14.82-2.5 2.1-5.08 3.65-6.45 2-1.77 3.34-2.6 5.35-1.9 1.38.5 1.5 2.53 2.83 3.7 1.3 1.15 3.6 1.26 4.16 2.48.8 1.78-.14 2.95-2.15 4.72"/></g></g></g></g></svg>