<svg xmlns="http://www.w3.org/2000/svg" viewBox="0 0 45 45" enable-background="new 0 0 45 45"><defs><clipPath id="a"><path d="M0 36h36V0H0v36z"/></clipPath></defs><g><g><g clip-path="url(#a)" transform="matrix(1.25 0 0 -1.25 0 45)"><g><path fill="#a6d388" d="M6.4 7.45c5-5 16.5-11.97 29.53.07-7.36 1.42-8.66 10.8-13.66 15.8s-12 6.13-17 1.13-3.88-12 1.13-17"/></g><g><path fill="#77b255" d="M24.68 6.2c6.13-1.64 10.66.73 11.08 1.15 0 0-3.8-1.75-10.36 1.47.95 1.22 3.85 2.9 3.85 2.9-.55.36-4.07.24-6.48-1.42-1.16.74-2.4 1.62-3.67 2.68l.84.87c3.25 3.38 6.94 2.58 6.94 2.58-.64.62-5.6 3.44-9.58-.7l-.62-.63c-.42.4-.85.8-1.3 1.25l-1.84 1.85 1.07 1.06c3.33 3.32 8.23 3.45 8.23 3.45-.62.64-6.86 2.66-10.92-1.4l-.73-.74-8.3 8.3c-.62.62-1.68.57-2.3-.05-.64-.62-.7-1.68-.06-2.3l8.3-8.3-.05-.06C4.68 14.08 6.37 7.5 7 6.88c0 0 .46 5.24 3.8 8.56l.37.4 3.5-3.5c.06-.07.12-.12.17-.18-2.42-4.8 1.23-10.34 1.96-10.78 0 0-1.46 4.72.48 8.63 1.53-1.18 3.02-2.08 4.46-2.74.08-3 2.7-5.7 3.34-5.93 0 0-.9 3-.53 4.48l.13.4z"/></g><g><path fill="#55acee" d="M22.08 26c-.4 0-.77.24-.92.63-.2.5.04 1.1.55 1.3.17.07 4.02 1.7 4.42 6.16.05.54.53.94 1.1.9.54-.05.95-.54.9-1.1-.52-5.7-5.46-7.74-5.67-7.83-.12-.05-.24-.07-.37-.07"/></g><g><path fill="#55acee" d="M27.08 22c-.4 0-.8.26-.94.67-.18.52.1 1.1.6 1.27.2.07 4.53 1.7 5.4 8.2.06.54.55.93 1.1.85.56-.08.94-.58.87-1.13-1-7.75-6.46-9.73-6.7-9.8-.1-.05-.2-.07-.32-.07"/></g><g><path fill="#55acee" d="M30.08 16c-.35 0-.7.2-.87.52-.26.48-.08 1.1.4 1.36.03 0 2.75 1.53 3.6 3.5.22.52.8.76 1.3.54.52-.22.76-.8.54-1.3-1.12-2.63-4.34-4.42-4.48-4.5-.15-.08-.3-.12-.48-.12"/></g></g></g></g></svg>