<svg xmlns="http://www.w3.org/2000/svg" viewBox="0 0 45 45" enable-background="new 0 0 45 45"><defs><clipPath id="a"><path d="M0 36h36V0H0v36z"/></clipPath></defs><g><g><g clip-path="url(#a)" transform="matrix(1.25 0 0 -1.25 0 45)"><g><path fill="#a6d388" d="M31.92 25.02c4.42-7.65 2-17.33-5.42-21.6C19.1-.9 10 1 5.58 8.64c-5 8.66-2.5 18.2 4.92 22.47 7.4 4.28 17.92-.04 21.42-6.1"/></g><g><path fill="#77b255" d="M24 30c3-1 6-4 8-7 .84-1.25.73.08-.3 2.35-3.68 5.88-13.92 9.97-21.2 5.77-3-1.73-5.2-4.35-6.4-7.4C4.8 24.52 5.5 25 6 25c1 0-1.9-3.28 1-11 3-8 3-4 3-4s-2 9-1 12 2 5 3 4 5-9 7-14c2.26-5.65 2 1-1 8-2.84 6.63-3 8-2 8s3.46-1.46 7-5c2-2 3-5 4-6s1 1 0 4c-.7 2.12-3 6-6 8-2.5 1.66 0 2 3 1"/></g><g><path fill="#5c913b" d="M11.93 29.64c-.48-.27-1.1-.1-1.36.37-1.1 1.92-1.26 4.3-1.27 4.4-.03.56.4 1.03.94 1.07.55.03 1.02-.4 1.06-.94 0-.02.13-2.02 1-3.52.28-.47.1-1.08-.37-1.36"/></g><g><path fill="#77b255" d="M11.96 5.47C11 6 10.23 7.44 9.56 8.7c-.7 1.24.27 1.27.88.15.68-1.25 1.2-1.6 1.88-2.86.7-1.26.2-.84-.36-.53"/></g><g><path fill="#77b255" d="M21.5 5.1c-.87 2.05-.8 3.05-1.68 5.1-.88 2.07-.75 4.06.12 2 .88-2.05 1.75-4.1 1.7-5.1-.08-1-.14-2-.14-2"/></g><g><path fill="#77b255" d="M27 17c1-3 0-2 1-5s1-5 1 0c0 3.16-1 6-2 7-1.58 1.58 0-2 0-2"/></g></g></g></g></svg>