<svg xmlns="http://www.w3.org/2000/svg" viewBox="0 0 45 45" enable-background="new 0 0 45 45"><defs><clipPath id="a"><path d="M0 36h36V0H0v36z"/></clipPath></defs><g><g><g clip-path="url(#a)" transform="matrix(1.25 0 0 -1.25 0 45)"><g><path fill="#f4900c" d="M3 16.5C3 25.6 10.4 33 19.5 33S36 25.6 36 16.5 28.6 0 19.5 0 3 7.4 3 16.5"/></g><g><path fill="#662113" d="M11.4 28.4c-.25.28-.78.2-1.34-.1-3.3 2.73-8.65 3.65-8.9 3.7-.54.08-1.06-.3-1.15-.83-.08-.55.3-1.06.83-1.16.06 0 4.94-.84 7.83-3.15-.28-.52-.33-1-.07-1.26.38-.4 1.33-.1 2.1.7.8.77 1.1 1.72.7 2.1"/></g><g><path fill="#5c913b" d="M21 35s-3.1-4.32-7.02-5.27c-2.98-.73-6.94-.8-7.33.12-.4.92 1.57 3.94 4.96 5.4 3.4 1.45 9.4-.25 9.4-.25"/></g></g></g></g></svg>