<svg xmlns="http://www.w3.org/2000/svg" viewBox="0 0 45 45" enable-background="new 0 0 45 45"><defs><clipPath id="a"><path d="M0 36h36V0H0v36z"/></clipPath></defs><g><g><g clip-path="url(#a)" transform="matrix(1.25 0 0 -1.25 0 45)"><g><path fill="#dd2e44" d="M22.5 30.66c-.7 0-1.36-.07-2-.18-.82.1-2.74.23-3.6.23-8.46 0-15.87-3.17-15.87-14.3C1.03 7.4 8.07.06 18 .06S35.98 7.38 35.98 16.4c0 11.26-9.4 14.26-13.5 14.26"/></g><g><path fill="#77b255" d="M8.44 35.9c1.64-1.63 2.77-2.26 3.27-4.9.3-1.57 2.28-1.5 2.28-1.5s-3.9-1.78-5.54-3.4c0 0 4.9 1.62 6.55 1.62 0 0 3.26-1.63 3.26-3.27 0 0 0 3.27-1.64 3.27 0 0 4.9 0 4.9-3.27 0 0 0 4.9-1.62 4.9 0 0 4.9 1.65 6.54 0 0 0-1.68 1.73-4.9 1.65 0 0 1.63 1.64 4.9 1.64 0 0-5.28 1.5-6.92-1.77 0 0-1.4 1.4 1.38 4.16 0 0-4.28-.76-4.28-4.03 0 0-1.55.04-2.64 1.26-2.14 2.4-5.54 3.65-5.54 3.65"/></g></g></g></g></svg>