<svg xmlns="http://www.w3.org/2000/svg" viewBox="0 0 45 45" enable-background="new 0 0 45 45"><defs><clipPath id="a"><path d="M0 36h36V0H0v36z"/></clipPath></defs><g><g><g clip-path="url(#a)" transform="matrix(1.25 0 0 -1.25 0 45)"><g><path fill="#744eaa" d="M6 32c3 0 5-2 8-6s7.96-7.2 12-8c5-1 9-5 9-11 0-4.9-3.85-7-9-7-5 0-9 3-14 8S2 22 2 26s1 6 4 6"/></g><g><path fill="#77b255" d="M3.5 36c1.26 0 1.26-1.25 1.26-2.5 0-1.76 1.25-1.12 2.5-1.12C8.5 32.38 11 30 11 30H7.26C6 30 7.26 27.4 6 27.4c-1.24 0-1.24 1.17-2.5 1.17C2.28 28.57 2 25 2 25s-1.6 4.15.27 6.02C3.5 32.27 1.02 36 3.5 36"/></g></g></g></g></svg>