<svg xmlns="http://www.w3.org/2000/svg" viewBox="0 0 45 45" enable-background="new 0 0 45 45"><defs><clipPath id="a"><path d="M0 36h36V0H0v36z"/></clipPath><clipPath id="b"><path d="M5.73 30.38c-.48-.23-.54-.84-.42-1.28C5.45 28.67 16 2 16 2s1-2 2-2c1.1 0 2 2 2 2l10.7 27.22s.22.84-.56 1.23C28.4 31.3 24.04 33 18 33c-6.2 0-10.62-1.8-12.27-2.62"/></clipPath></defs><g><g><g clip-path="url(#a)" transform="matrix(1.25 0 0 -1.25 0 45)"><g><path fill="#f4900c" d="M18 32c7.26 0 13-4 14.7-2 .2.32.3.66.3 1 0 2-6.72 5-15 5-8.28 0-15-3-15-5 0-.34.1-.68.3-1 1.7-2 7.44 2 14.7 2"/></g><g><path fill="#ffcc4d" d="M18 33c-6.2 0-10.62-1.8-12.27-2.62-.48-.23-.54-.84-.42-1.28C5.45 28.67 16 2 16 2s.9-2 2-2 2 2 2 2l10.7 27.22s.22.84-.56 1.23C28.4 31.3 24.04 33 18 33"/></g></g></g><g><g clip-path="url(#b)" transform="matrix(1.25 0 0 -1.25 0 45)"><g><path fill="#be1931" d="M18 5c0-2.2-1.8-4-4-4s-4 1.8-4 4 1.8 4 4 4 4-1.8 4-4"/></g><g><path fill="#be1931" d="M17 16c0-2.2-1.8-4-4-4s-4 1.8-4 4 1.8 4 4 4 4-1.8 4-4"/></g><g><path fill="#be1931" d="M20 28c0-2.2-1.8-4-4-4s-4 1.8-4 4 1.8 4 4 4 4-1.8 4-4"/></g><g><path fill="#be1931" d="M29 23c0-2.2-1.8-4-4-4s-4 1.8-4 4 1.8 4 4 4 4-1.8 4-4"/></g><g><path fill="#be1931" d="M27 11c0-2.2-1.8-4-4-4s-4 1.8-4 4 1.8 4 4 4 4-1.8 4-4"/></g><g><path fill="#be1931" d="M10 24c0-2.2-1.8-4-4-4s-4 1.8-4 4 1.8 4 4 4 4-1.8 4-4"/></g></g></g></g></svg>