<svg xmlns="http://www.w3.org/2000/svg" viewBox="0 0 45 45" enable-background="new 0 0 45 45"><defs><clipPath id="a"><path d="M0 36h36V0H0v36z"/></clipPath></defs><g><g><g clip-path="url(#a)" transform="matrix(1.25 0 0 -1.25 0 45)"><g><path fill="#77b255" d="M26 12c-.2 0-.4.06-.57.18-6.55 4.58-12.17 12.37-15.4 17.44 1.7-10.53 1-16.46.96-16.74-.08-.55-.57-.93-1.12-.87-.55.08-.94.57-.87 1.12.02.08.94 8.04-1.98 21.67-.1.48.17.97.64 1.14.46.17 1-.03 1.22-.47.08-.15 8-14.87 17.7-21.65.45-.32.56-.94.24-1.4-.2-.27-.5-.42-.82-.42"/></g><g><path fill="#5c913b" d="M26.55 27.18c-3.48-.96-5.05-2.54-10.75-.67-4.72 1.57-7.04 4.22-6.35 6.32.7 2.1 3.18 3.16 7.9 1.6 4.75-1.56 4.13-3.46 9.2-7.24"/></g><g><path fill="#be1931" d="M34 8c0-4.42-3.58-8-8-8s-8 3.58-8 8 3.58 8 8 8 8-3.58 8-8"/></g><g><path fill="#be1931" d="M19 8c0-4.42-3.58-8-8-8S3 3.58 3 8s3.58 8 8 8 8-3.58 8-8"/></g></g></g></g></svg>