<svg xmlns="http://www.w3.org/2000/svg" viewBox="0 0 45 45" enable-background="new 0 0 45 45"><defs><clipPath id="a"><path d="M0 36h36V0H0v36z"/></clipPath></defs><g><g><g clip-path="url(#a)" transform="matrix(1.25 0 0 -1.25 0 45)"><g><path fill="#5c913b" d="M1.06 30.88s4.88 5 10 5c6.13 0 7.94-4.94 7.94-4.94s.62 4 5 4c4.37 0 6.94-3.13 6.94-3.13s-3.57-2.1-4.63-2.55c-2.8-1.15-11.36-3.56-15.36-2.56s-9.88 4.17-9.88 4.17"/></g><g><path fill="#ff886c" d="M18 30s1.04.9 6 .9c6.54 0 12-4.82 12-12.93C36 6.44 21.04.1 21.04.1S1 1.16 1 18C1 27.98 7.75 31 12 31c4.96 0 6-1 6-1"/></g><g><path fill="#77b255" d="M1.06 30.88s4.88 5 10 5c6.13 0 7.94-4.94 7.94-4.94s-4.06-5.25-8.06-4.25c-4 1-9.88 4.18-9.88 4.18"/></g><g><path fill="#dd2e44" d="M23 6c-.2 0-.38.06-.56.17-.46.3-.58.93-.27 1.4 0 0 1.83 2.9 1.83 9.43 0 6.45-4.58 10.18-4.63 10.22-.43.34-.5.97-.15 1.4.34.43.97.5 1.4.16C20.84 28.6 26 24.4 26 17c0-7.22-2.08-10.42-2.17-10.55-.2-.3-.5-.45-.83-.45"/></g></g></g></g></svg>