<svg xmlns="http://www.w3.org/2000/svg" viewBox="0 0 45 45" enable-background="new 0 0 45 45"><defs><clipPath id="a"><path d="M0 36h36V0H0v36z"/></clipPath></defs><g><g><g clip-path="url(#a)" transform="matrix(1.25 0 0 -1.25 0 45)"><g><path fill="#a6d388" d="M7.68 26.9c1.6 3.15 7.7 1.92 11.96-2.17 2.7-2.58 8.06-1.5 11.5-4.8 3.5-3.36 3.26-9.36-3.05-15.77C23-1 16-1 11.83 2.62c-4.4 3.8-2.48 8.6-4.42 13.58-1.93 4.98-4.32 10.43.26 10.7"/></g><g><path fill="#662113" d="M8.18 26.47c-.43-.45-1.12-.5-1.53-.1-3.2 3.08-3.92 7.55-3.94 7.78-.07.6.35 1.16.94 1.28.6.12 1.14-.26 1.2-.84 0-.06.67-4 3.37-6.6.42-.4.4-1.1-.02-1.53"/></g></g></g></g></svg>