<svg xmlns="http://www.w3.org/2000/svg" viewBox="0 0 45 45" enable-background="new 0 0 45 45"><defs><clipPath id="a"><path d="M0 36h36V0H0v36z"/></clipPath><clipPath id="b"><path d="M14 33C9 29 1 18 1 10 1 .6 8.6 1 18 1s17-.4 17 9c0 5-6 18-13 23-1.43 1.02-2.73 1.52-4.02 1.52-1.3 0-2.6-.5-3.98-1.52"/></clipPath></defs><g><g><g clip-path="url(#a)" transform="matrix(1.25 0 0 -1.25 0 45)"><g><path fill="#eee" d="M35 10c0-9.4-7.6-9-17-9S1 .6 1 10c0 8 8 19 13 23 2.75 2 5.13 2.05 8 0 7-5 13-18 13-23"/></g><g><path fill="#ccd6dd" d="M27.26 6.36c-.46-.32-1.1-.2-1.4.26-.32.46-.2 1.1.25 1.4l1.68 1.15c.46.32 1.1.2 1.4-.26.32-.45.2-1.08-.25-1.4l-1.67-1.14z"/></g><g><path fill="#ccd6dd" d="M29.7 13.45c-.52.2-.76.8-.55 1.3.2.52.8.76 1.3.56l1.85-.75c.5-.2.76-.8.55-1.3-.2-.5-.8-.76-1.3-.55l-1.85.75z"/></g><g><path fill="#ccd6dd" d="M25.2 18.7c-.52.22-.77.8-.55 1.33.2.5.8.76 1.3.55l1.9-.76c.5-.2.75-.8.54-1.32-.22-.52-.8-.76-1.33-.55l-1.87.76z"/></g><g><path fill="#ccd6dd" d="M4.2 11.7c-.52.22-.76.8-.55 1.33.2.5.8.76 1.32.55l1.87-.76c.52-.2.76-.8.55-1.32-.22-.52-.8-.77-1.32-.56l-1.88.77z"/></g><g><path fill="#ccd6dd" d="M7.76 17.86c-.46-.32-1.1-.2-1.4.26-.32.46-.2 1.1.25 1.4l1.68 1.15c.46.32 1.1.2 1.4-.26.32-.45.2-1.08-.25-1.4l-1.67-1.14z"/></g><g><path fill="#ccd6dd" d="M16.8 14.12c-.78.3-1.15 1.2-.84 1.96.32.76 1.2 1.13 1.96.82l2.78-1.13c.76-.32 1.13-1.2.82-1.96-.3-.76-1.2-1.12-1.96-.8L16.8 14.1z"/></g><g><path fill="#ccd6dd" d="M10.6 8.07c.52.2 1.1-.06 1.3-.6.2-.5-.06-1.1-.58-1.3l-1.9-.7c-.5-.2-1.1.05-1.3.57-.2.53.07 1.1.6 1.3l1.88.73z"/></g></g></g><g><g clip-path="url(#b)" transform="matrix(1.25 0 0 -1.25 0 45)"><g><path fill="#292f33" d="M26 1c0-1.1-.9-2-2-2H12c-1.1 0-2 .9-2 2v12c0 1.1.9 2 2 2h12c1.1 0 2-.9 2-2V1z"/></g></g></g></g></svg>