<svg xmlns="http://www.w3.org/2000/svg" viewBox="0 0 45 45" enable-background="new 0 0 45 45"><defs><clipPath id="a"><path d="M0 36h36V0H0v36z"/></clipPath><clipPath id="b"><path d="M3 21.5c0-.1 0-.22.02-.33 0-.06-.02-.1-.02-.17l.04-.35c.05-.76.14-1.54.3-2.32L5 5c0-2.2 1.8-4 4-4h18c2.2 0 4 1.8 4 4l1.84 14.7c.03.23.06.44.08.66L33 21c0 .07-.02.14-.02.2 0 .1.02.2.02.3 0 8-6.7 12.5-15 12.5C9.7 34 3 29.5 3 21.5"/></clipPath><clipPath id="c"><path d="M2 35V19c0 1.1.9 1 2 1s3 .1 3-1c0-2.76 4.37-5 11-5s11 2.24 11 5c0 1.1 1.9 1 3 1s2 .1 2-1h1v16H2z"/></clipPath><clipPath id="d"><path d="M0 36h36V0H0v36z"/></clipPath></defs><g><g><g clip-path="url(#a)" transform="matrix(1.25 0 0 -1.25 0 45)"><g><path fill="#dd2e44" d="M33 21c0 .07-.02.14-.02.2 0 .1.02.2.02.3 0 8-6.72 12.5-15 12.5-8.28 0-15-4.5-15-12.5 0-.1.02-.22.02-.33 0-.06-.02-.1-.02-.17l.04-.35c.05-.77.14-1.54.3-2.32L5 5c0-2.2 1.8-4 4-4h18c2.2 0 4 1.8 4 4l1.84 14.7c.03.23.06.44.08.66L33 21z"/></g></g></g><g><g clip-path="url(#b)" transform="matrix(1.25 0 0 -1.25 0 45)"><g><path fill="#be1931" d="M2 35V19c0 1.1.9 1 2 1s3 .1 3-1c0-2.76 4.37-5 11-5s11 2.24 11 5c0 1.1 1.9 1 3 1s2 .1 2-1h1v16H2z"/></g></g></g><g><g clip-path="url(#c)" transform="matrix(1.25 0 0 -1.25 0 45)"><g><path fill="#f4900c" d="M10 4.5c-.1 0-.23 0-.35.04-.8.2-1.3 1-1.1 1.8l5 21c.18.8 1 1.3 1.8 1.12.8-.2 1.3-1 1.1-1.8l-5-21C11.3 4.95 10.7 4.5 10 4.5"/></g><g><path fill="#f4900c" d="M25 26c-1-1-4-4-2-6s-1-8 2-6 4 5 4 7 1 5-1 5h-3z"/></g><g><path fill="#f4900c" d="M17 27c-1 0-3-2-3-3s0-6 3-5 3 3 2 5-2 3-2 3"/></g><g><path fill="#f4900c" d="M20 5.5c-.76 0-1.4.58-1.5 1.35l-2 20c-.07.82.53 1.56 1.35 1.64.82.08 1.56-.53 1.64-1.35l2-20c.08-.83-.53-1.56-1.35-1.64-.05 0-.1 0-.15 0"/></g><g><path fill="#f4900c" d="M21 5.5c-.07 0-.13 0-.2 0-.82.13-1.4.88-1.3 1.7l3 22c.12.82.87 1.4 1.7 1.3.82-.12 1.4-.88 1.3-1.7l-3-22c-.12-.75-.76-1.3-1.5-1.3"/></g><g><path fill="#f4900c" d="M18 4.5c-.6 0-1.2.38-1.4 1l-8 22c-.3.77.1 1.63.9 1.9.77.3 1.63-.1 1.9-.9l8-22c.3-.77-.1-1.63-.9-1.9-.16-.07-.33-.1-.5-.1"/></g><g><path fill="#f4900c" d="M22 7.5c-.16 0-.32.02-.47.08-.8.26-1.22 1.1-.95 1.9l6 18c.26.78 1.1 1.2 1.9.94.78-.26 1.2-1.1.94-1.9l-6-18c-.2-.62-.8-1.02-1.42-1.02"/></g><g><path fill="#f4900c" d="M19 9.5c-.6 0-1.2.38-1.4 1l-4 11c-.3.77.1 1.63.9 1.9.77.3 1.63-.1 1.9-.9l4-11c.3-.77-.1-1.63-.9-1.9-.16-.07-.33-.1-.5-.1"/></g><g><path fill="#f4900c" d="M9 9.5c-.72 0-1.36.52-1.48 1.25l-2 12c-.14.82.42 1.6 1.23 1.73.82.14 1.6-.42 1.73-1.23l2-12c.14-.82-.42-1.6-1.23-1.73-.1 0-.17-.02-.25-.02"/></g><g><path fill="#f4900c" d="M29 12.5c-.05 0-.1 0-.17 0-.82.1-1.4.84-1.32 1.67l1 9c.1.82.84 1.4 1.67 1.32.82-.1 1.4-.84 1.32-1.67l-1-9c-.1-.76-.74-1.33-1.5-1.33"/></g><g><path fill="#ffcc4d" d="M29 4.5c-.74 0-1.38.55-1.5 1.3l-3 22c-.1.82.48 1.57 1.3 1.7.82.1 1.57-.48 1.7-1.3l3-22c.1-.82-.48-1.57-1.3-1.7-.07 0-.13 0-.2 0"/></g><g><path fill="#ffcc4d" d="M22 10.5c-.78 0-1.44.6-1.5 1.4l-1 14c-.06.82.57 1.54 1.4 1.6.82.06 1.54-.57 1.6-1.4l1-14c.06-.82-.57-1.54-1.4-1.6-.03 0-.07 0-.1 0"/></g><g><path fill="#ffcc4d" d="M9 8.5c-.06 0-.1 0-.17 0-.83.1-1.42.85-1.32 1.67l1.55 13.2c.1.84.85 1.42 1.67 1.33.82-.1 1.4-.84 1.3-1.67L10.5 9.83C10.4 9.06 9.74 8.5 9 8.5"/></g><g><path fill="#ffcc4d" d="M18 8.5c-.7 0-1.33.5-1.47 1.2l-4 20c-.16.82.36 1.6 1.18 1.77.82.17 1.6-.36 1.77-1.18l4-20c.16-.82-.36-1.6-1.18-1.77-.1-.02-.2-.03-.3-.03"/></g></g></g><g><g clip-path="url(#d)" transform="matrix(1.25 0 0 -1.25 0 45)"><g><path fill="#be1931" d="M22 8c0-2.2-1.8-4-4-4s-4 1.8-4 4 1.8 4 4 4 4-1.8 4-4"/></g></g></g></g></svg>