<svg xmlns="http://www.w3.org/2000/svg" viewBox="0 0 45 45" enable-background="new 0 0 45 45"><defs><clipPath id="a"><path d="M0 36h36V0H0v36z"/></clipPath></defs><g><g><g clip-path="url(#a)" transform="matrix(1.25 0 0 -1.25 0 45)"><g><path fill="#ffd983" d="M14.02 25.63l-5.85 5.85c.85 1 .8 2.52-.15 3.48-1 1-2.65 1-3.66 0-.62-.63-.85-1.48-.7-2.3-.82.15-1.67-.08-2.3-.7-1-1-1-2.65 0-3.66.96-.96 2.47-1 3.48-.15l5.85-5.85L14 25.63z"/></g><g><path fill="#c1694f" d="M32.95 3.36c1.67 1.67 5.88 8.8.05 14.64-4.06 4.06-7.33 3.83-13.42 5.34-2.5.83-5.75 3.83-6.58 4.66-.83-.83-.54-3.87-.54-3.87S8.83 23.83 8 23c.83-.83 4.7-4.5 5.38-6.2C15.2 11 14.98 8.07 19.05 4c6.66-6.66 12.24-2.32 13.9-.66"/></g></g></g></g></svg>