<svg xmlns="http://www.w3.org/2000/svg" viewBox="0 0 45 45" enable-background="new 0 0 45 45"><defs><clipPath id="a"><path d="M0 36h36V0H0v36z"/></clipPath></defs><g><g><g clip-path="url(#a)" transform="matrix(1.25 0 0 -1.25 0 45)"><g><path fill="#939598" d="M36 13c0-5.52-8.06-10-18-10S0 7.48 0 13s8.06 10 18 10 18-4.48 18-10"/></g><g><path fill="#f1f2f2" d="M36 15c0-5.52-8.06-10-18-10S0 9.48 0 15s8.06 10 18 10 18-4.48 18-10"/></g><g><path fill="#f4900c" d="M32.8 15.4c0-4.2-6.63-7.62-14.8-7.62-8.17 0-14.8 3.4-14.8 7.6C3.2 19.6 9.83 23 18 23c8.17 0 14.8-3.4 14.8-7.6"/></g><g><path fill="#eee" d="M13 12c-3.75 0-10 2.06-10 5.5 0 4.13 3.83 8.94 10 8.94s10-5.5 10-8.94c0-3.44-5.63-5.5-10-5.5"/></g><g><path fill="#ccd6dd" d="M4.64 17.18c-.34.14-.5.53-.37.88.14.34.54.5.88.37l1.25-.5c.34-.15.5-.54.37-.9-.14-.33-.54-.5-.88-.36l-1.26.5z"/></g><g><path fill="#ccd6dd" d="M8.34 20.6c-.3-.2-.72-.12-.93.2-.2.3-.12.7.18.92l1.12.77c.3.2.72.12.93-.2.2-.3.13-.7-.17-.93l-1.12-.76z"/></g><g><path fill="#ccd6dd" d="M17.34 15.6c-.3-.2-.72-.12-.93.2-.2.3-.12.7.18.92l1.12.77c.3.2.72.12.93-.2.2-.3.13-.7-.17-.92l-1.12-.77z"/></g><g><path fill="#ccd6dd" d="M11.7 17.45c-.52.2-.76.8-.55 1.3.2.52.8.76 1.3.56l1.85-.75c.5-.2.76-.8.55-1.3-.2-.5-.8-.76-1.3-.55l-1.85.75z"/></g><g><path fill="#ccd6dd" d="M16.64 21.18c-.35.14-.5.53-.37.88.14.34.53.5.88.37l1.25-.5c.34-.15.5-.54.37-.9-.14-.33-.54-.5-.88-.36l-1.26.5z"/></g><g><path fill="#ccd6dd" d="M10.9 15.42c.35.13.74-.04.88-.4.13-.34-.05-.73-.4-.86l-1.26-.48c-.34-.13-.73.04-.86.4-.14.34.04.73.4.86l1.25.48z"/></g><g><path fill="#ffd983" d="M30 17c0-1.1-.9-2-2-2h-1c-1.1 0-2 .9-2 2s.9 2 2 2h1c1.1 0 2-.9 2-2"/></g><g><path fill="#ffd983" d="M27 12.5c0-.83-.67-1.5-1.5-1.5h-1c-.83 0-1.5.67-1.5 1.5s.67 1.5 1.5 1.5h1c.83 0 1.5-.67 1.5-1.5"/></g><g><path fill="#ffd983" d="M21 10c0-.55-.45-1-1-1h-1c-.55 0-1 .45-1 1s.45 1 1 1h1c.55 0 1-.45 1-1"/></g></g></g></g></svg>