<svg xmlns="http://www.w3.org/2000/svg" viewBox="0 0 45 45" enable-background="new 0 0 45 45"><defs><clipPath id="a"><path d="M0 36h36V0H0v36z"/></clipPath></defs><g><g><g clip-path="url(#a)" transform="matrix(1.25 0 0 -1.25 0 45)"><g><path fill="#dd2e44" d="M18 0C3.04 0 1 15 1 19h34c0-2-1.96-19-17-19"/></g><g><path fill="#a0041e" d="M35 18.94c0-5.2-7.6-9.44-17-9.44S1 13.73 1 18.94c0 5.22 7.6 9.45 17 9.45s17-4.24 17-9.46"/></g><g><path fill="#e6e9ea" d="M18 11c-6 0-16 3-16 8 0 6 6.13 13 16 13 9.88 0 16-8 16-13s-9-8-16-8"/></g><g><path fill="#ccd6dd" d="M15.4 16.1c.43-.35.48-.98.12-1.4-.36-.42-1-.47-1.4-.1l-1.53 1.3c-.43.35-.48.98-.12 1.4.36.42 1 .47 1.4.1l1.53-1.3z"/></g><g><path fill="#ccd6dd" d="M7.28 17.62c-.3-.46-.92-.6-1.38-.3-.46.32-.6.94-.3 1.4l1.12 1.67c.3.45.92.57 1.38.27.46-.3.6-.93.3-1.4l-1.12-1.65z"/></g><g><path fill="#ccd6dd" d="M30.28 17.62c-.3-.46-.92-.6-1.38-.3-.46.32-.6.94-.3 1.4l1.12 1.67c.3.45.92.57 1.38.27.46-.3.6-.93.3-1.4l-1.12-1.65z"/></g><g><path fill="#ccd6dd" d="M24.18 21.22c.1-.54-.24-1.07-.78-1.18-.54-.1-1.07.24-1.18.78l-.4 1.96c-.1.54.24 1.07.78 1.18.54.1 1.07-.24 1.18-.78l.4-1.96z"/></g><g><path fill="#ccd6dd" d="M16.64 25.18c-.34.14-.5.53-.37.88.14.34.54.5.88.37l1.25-.5c.34-.15.5-.54.37-.9-.14-.33-.54-.5-.88-.36l-1.26.5z"/></g><g><path fill="#ccd6dd" d="M7.34 23.6c-.3-.2-.72-.12-.93.2-.2.3-.12.7.18.92l1.12.77c.3.2.72.12.93-.2.2-.3.13-.7-.17-.93l-1.12-.76z"/></g><g><path fill="#ccd6dd" d="M20.94 15.07c-.55.03-.97.5-.94 1.06.04.55.52.97 1.07.93l2-.13c.54-.03.96-.5.93-1.06-.04-.55-.5-.97-1.07-.93l-2 .13z"/></g><g><path fill="#ccd6dd" d="M11.7 21.45c-.52.2-.76.8-.55 1.3.2.52.8.76 1.3.56l1.85-.75c.5-.2.76-.8.55-1.3-.2-.5-.8-.76-1.3-.55l-1.85.75z"/></g><g><path fill="#ccd6dd" d="M27.64 24.18c-.35.14-.5.53-.37.88.14.34.53.5.88.37l1.25-.5c.34-.15.5-.54.37-.9-.14-.33-.54-.5-.88-.36l-1.26.5z"/></g></g></g></g></svg>