<svg xmlns="http://www.w3.org/2000/svg" viewBox="0 0 45 45" enable-background="new 0 0 45 45"><defs><clipPath id="a"><path d="M0 36h36V0H0v36z"/></clipPath></defs><g><g><g clip-path="url(#a)" transform="matrix(1.25 0 0 -1.25 0 45)"><g><path fill="#d99e82" d="M34.93 9.32c0 6.65-7.6 12.05-16.96 12.05C8.6 21.37 1 15.97 1 9.32s7.6-8.16 16.97-8.16 16.96 1.5 16.96 8.16"/></g><g><path fill="#662113" d="M34.93 15.14c0 6.65-7.6 12.04-16.96 12.04C8.6 27.18 1 21.78 1 15.14 1 8.5 8.6 6.98 17.97 6.98s16.96 1.5 16.96 8.16"/></g><g><path fill="#ffcc4d" d="M19.17 9.55c-.97-.53-1.3-.53-2.25 0 0 0-7 3.62-15.7 6.32-1.18.6-.28 2.63.82 2.63l31.88-.04c1.1 0 2-2.3 1.12-2.54-6.2-1.63-15.87-6.37-15.87-6.37"/></g><g><path fill="#d99e82" d="M34.93 20.96c0 6.65-7.6 12.04-16.96 12.04C8.6 33 1 27.6 1 20.96c0-6.65 7.6-7.38 16.97-7.38s16.96.73 16.96 7.38"/></g><g><path fill="#ffe8b6" d="M9.74 27.98c-.5.3-.64.98-.32 1.47.3.5.98.65 1.47.33.5-.32 1.24-1.36.92-1.86-.32-.5-1.58-.26-2.08.06"/></g><g><path fill="#ffe8b6" d="M20.63 30.8c.56.2 1.16-.1 1.34-.67.2-.57-.12-1.17-.68-1.35-.58-.18-1.86-.1-2.04.46-.18.57.8 1.4 1.37 1.57"/></g><g><path fill="#ffe8b6" d="M31.2 21.73c-.37-.46-1.05-.52-1.5-.14-.45.37-.5 1.05-.13 1.5.38.45 1.5 1.06 1.97.68.45-.38.05-1.6-.33-2.05"/></g><g><path fill="#ffe8b6" d="M26.74 26.98c-.5.3-.64.98-.32 1.47.3.5.98.65 1.47.33.5-.32 1.24-1.36.92-1.86-.32-.5-1.58-.26-2.08.06"/></g><g><path fill="#ffe8b6" d="M11.74 19.98c-.5.3-.64.97-.32 1.47.3.5.98.65 1.47.33.5-.32 1.24-1.37.92-1.86-.32-.5-1.58-.26-2.08.06"/></g><g><path fill="#ffe8b6" d="M15.94 26.6c.33.47 1 .6 1.5.26.47-.34.6-1 .26-1.5-.34-.48-1.4-1.2-1.9-.85-.48.35-.2 1.6.14 2.1"/></g><g><path fill="#ffe8b6" d="M22.74 19.98c-.5.3-.64.97-.32 1.47.3.5.98.65 1.47.33.5-.32 1.24-1.37.92-1.86-.32-.5-1.58-.26-2.08.06"/></g><g><path fill="#ffe8b6" d="M5.06 25.66c.4.44 1.07.48 1.5.1.45-.4.5-1.08.1-1.52-.4-.44-1.56-1-2-.62-.44.4 0 1.6.4 2.04"/></g></g></g></g></svg>