<svg xmlns="http://www.w3.org/2000/svg" viewBox="0 0 45 45" enable-background="new 0 0 45 45"><defs><clipPath id="a"><path d="M0 36h36V0H0v36z"/></clipPath></defs><g><g><g clip-path="url(#a)" transform="matrix(1.25 0 0 -1.25 0 45)"><g><path fill="#ffac33" d="M35.07.93c-.77-.76-2-.76-2.77 0l-20.1 20.1c-.77.77-.77 2 0 2.77.76.77 2 .77 2.77 0l20.1-20.1c.76-.76.76-2 0-2.77"/></g><g><path fill="#dd2e44" d="M27.8 21.92c0-7.58-6.14-13.72-13.72-13.72C6.5 8.2.36 14.34.36 21.92c0 7.58 6.14 13.72 13.72 13.72 7.58 0 13.72-6.14 13.72-13.72"/></g><g><path fill="#f4900c" d="M16.1 21.17c.15.1.27.2.36.36-.07-.57-.4-1.1-.94-1.38-.3-.16-.64-.2-.96-.1-.32.1-.6.32-.74.62-.2.4-.06.88.33 1.1.07.03.14.05.2.05.17 0 .33-.1.4-.24.26-.48.86-.66 1.34-.4M17.4 8.6c-1.45-.1-2.93.07-4.37.5-3.15.97-5.75 3.1-7.3 6-1.22 2.3-1.47 4.9-.72 7.4.76 2.46 2.44 4.5 4.72 5.7 1.78.96 3.82 1.16 5.75.57 1.93-.6 3.5-1.9 4.46-3.68.74-1.38.9-2.96.44-4.45-.46-1.5-1.47-2.72-2.84-3.46-1.06-.55-2.27-.67-3.42-.32-1.13.35-2.07 1.12-2.63 2.18-.88 1.65-.26 3.7 1.4 4.58.58.32 1.26.4 1.9.2.24-.08.45-.18.65-.3-.67.32-1.5.33-2.2-.05-1.34-.73-1.85-2.4-1.13-3.75.4-.76 1.07-1.32 1.9-1.57.8-.25 1.68-.16 2.44.24 1.83.98 2.53 3.27 1.55 5.1-.57 1.06-1.5 1.84-2.65 2.18-1.15.35-2.36.23-3.4-.33-2.6-1.4-3.6-4.63-2.2-7.23.8-1.52 2.15-2.63 3.8-3.13 1.64-.5 3.38-.32 4.9.48 1.84.98 3.2 2.62 3.8 4.62.6 2 .4 4.1-.6 5.94-1.18 2.24-3.18 3.9-5.6 4.63-2.44.74-5 .5-7.25-.7-2.75-1.47-4.76-3.92-5.66-6.9-.9-2.97-.6-6.12.86-8.86.92-1.7 2.15-3.2 3.63-4.38C9.55 8.8 11.75 8.2 14.08 8.2c1.15 0 2.26.16 3.33.42"/></g><g><path fill="#ffcc4d" d="M14.66 21.5c-.06-.14-.16-.26-.3-.32-.56-.25-.8-.9-.55-1.45.13-.27.34-.46.58-.57-.2.02-.4.07-.6.14-.53.2-.96.6-1.2 1.13-.16.37-.18.78-.03 1.16.14.36.42.66.8.83.12.06.25.08.4.08.1.02.23 0 .34-.05.24-.1.43-.27.54-.52.06-.14.07-.3.02-.43m9.85 6c-1.56 3.47-6.1 7.3-11.76 7.94-.2.02-.42.03-.63.04-3.6-.52-6.73-2.43-8.86-5.17 3.38 2.8 6.77 3.22 9.26 2.95 4.84-.53 8.7-3.75 10-6.65 2.02-4.45.03-9.7-4.4-11.7-1.68-.77-3.55-.83-5.26-.18-1.72.65-3.08 1.92-3.83 3.6-1.2 2.64 0 5.77 2.64 6.96 2 .9 4.38 0 5.3-2 .55-1.24.18-2.68-.83-3.52.27.27.48.6.6.96.27.7.25 1.44-.05 2.12-.35.77-1 1.37-1.78 1.67-.8.3-1.66.28-2.44-.07-.9-.4-1.6-1.14-1.94-2.07-.36-.92-.33-1.93.08-2.83.48-1.07 1.34-1.88 2.43-2.3 1.1-.4 2.3-.36 3.35.12 2.6 1.17 3.76 4.24 2.58 6.84-1.4 3.1-5.08 4.5-8.2 3.1-3.75-1.7-5.42-6.14-3.72-9.9 1-2.2 2.8-3.88 5.06-4.74 1.04-.4 2.13-.6 3.2-.6 1.27 0 2.54.28 3.73.82 5.54 2.5 8.02 9.07 5.5 14.62"/></g></g></g></g></svg>