<svg xmlns="http://www.w3.org/2000/svg" viewBox="0 0 45 45" enable-background="new 0 0 45 45"><defs><clipPath id="a"><path d="M0 36h36V0H0v36z"/></clipPath><clipPath id="b"><path d="M16.77 14H3.8S6.06 6.85 9.6 3.42C12 1.08 16.04.9 17.5.9c2.87 0 6.54.2 8.95 2.53C30.65 7.5 32.6 14 32.6 14H16.78z"/></clipPath><clipPath id="c"><path d="M0 36h36V0H0v36z"/></clipPath><clipPath id="d"><path d="M3.86 16.72c.9-.33 6.7-2.4 14-2.4 8.2 0 14.24 1.8 15.62 2.8 1.38.98 1.33 9.58-4.96 12.9-5.36 2.83-5.5 5.6-10.62 5.6-7.66 0-21.2-16.27-14.04-18.9"/></clipPath><clipPath id="e"><path d="M0 36h36V0H0v36z"/></clipPath></defs><g><g><g clip-path="url(#a)" transform="matrix(1.25 0 0 -1.25 0 45)"><g><path fill="#55acee" d="M16.77 14H3.8S6.06 6.85 9.6 3.42C12 1.08 16.04.9 17.5.9c2.87 0 6.54.2 8.95 2.53C30.65 7.5 32.6 14 32.6 14H16.78z"/></g></g></g><g><g clip-path="url(#b)" transform="matrix(1.25 0 0 -1.25 0 45)"><g><path fill="#3b88c3" d="M32.6 12.45c0-2.32-4.85-4.9-14.4-4.9-9.54 0-14.4 2.58-14.4 4.9 0 2.32 4.86 4.2 14.4 4.2 9.55 0 14.4-1.88 14.4-4.2"/></g></g></g><g><g clip-path="url(#c)" transform="matrix(1.25 0 0 -1.25 0 45)"><g><path fill="#55acee" d="M2 19v-4.45c0-2.32 7.25-4.2 16-4.2s16 1.88 16 4.2V19H2z"/></g><g><path fill="#f9d2dc" d="M3.86 16.72c.9-.33 6.7-2.4 14-2.4 8.22 0 14.25 1.8 15.63 2.8 1.37 1 1.32 9.6-4.97 12.9-5.36 2.83-5.5 5.6-10.62 5.6-7.66 0-21.2-16.27-14.04-18.9"/></g></g></g><g><g clip-path="url(#d)" transform="matrix(1.25 0 0 -1.25 0 45)"><g><path fill="#f98097" d="M3.47 25.9c1.55.72 5.47 2.23 8.38-1.67 2.9-3.9 9.48-1.75 12.3.98 2.8 2.74 6.5 1.23 10.73.2 4.2-1.02-2.8 14.14-11.5 13.17-8.67-.98-14.34 2.68-17.8-3.12-3.46-5.8-2.1-9.56-2.1-9.56"/></g></g></g><g><g clip-path="url(#e)" transform="matrix(1.25 0 0 -1.25 0 45)"><g><path fill="#ea596e" d="M13 29c0-.55-.45-1-1-1s-1 .45-1 1 .45 1 1 1 1-.45 1-1"/></g><g><path fill="#ea596e" d="M19 26c0-.55-.45-1-1-1s-1 .45-1 1 .45 1 1 1 1-.45 1-1"/></g><g><path fill="#ea596e" d="M23 31c0-.55-.45-1-1-1s-1 .45-1 1 .45 1 1 1 1-.45 1-1"/></g></g></g></g></svg>