<svg xmlns="http://www.w3.org/2000/svg" viewBox="0 0 45 45" enable-background="new 0 0 45 45"><defs><clipPath id="a"><path d="M0 36h36V0H0v36z"/></clipPath></defs><g><g><g clip-path="url(#a)" transform="matrix(1.25 0 0 -1.25 0 45)"><g><path fill="#939598" d="M36 13c0-5.52-8.06-10-18-10S0 7.48 0 13s8.06 10 18 10 18-4.48 18-10"/></g><g><path fill="#f1f2f2" d="M36 15c0-5.52-8.06-10-18-10S0 9.48 0 15s8.06 10 18 10 18-4.48 18-10"/></g><g><path fill="#c1694f" d="M31 16c0-4-5.82-7.22-13-7.22S5 12 5 16c0 4 5.82 7.22 13 7.22S31 20 31 16"/></g><g><path fill="#8a4b38" d="M29 16c0-3.07-4.93-5.56-11-5.56-6.08 0-11 2.5-11 5.56 0 3.07 4.92 5.56 11 5.56 6.07 0 11-2.5 11-5.56"/></g><g><path fill="#ffcc4d" d="M18 29c3.38 0 4.72-2 5.92-2 1.7 0 2.54-2 4.23-9 .7-2.88-4.23-6-10.15-6S7.15 15.12 7.85 18c1.7 7 2.54 9 4.23 9 1.2 0 2.54 2 5.92 2"/></g><g><path fill="#662113" d="M25.6 25c0-2.2-3.4-4-7.6-4-4.2 0-7.6 1.8-7.6 4s3.4 4 7.6 4c4.2 0 7.6-1.8 7.6-4"/></g></g></g></g></svg>