<svg xmlns="http://www.w3.org/2000/svg" viewBox="0 0 45 45" enable-background="new 0 0 45 45"><defs><clipPath id="a"><path d="M0 36h36V0H0v36z"/></clipPath></defs><g><g><g clip-path="url(#a)" transform="matrix(1.25 0 0 -1.25 0 45)"><g><path fill="#e1e8ed" d="M22.24.34c-.42 0-.83.12-1.2.36l-2.95 2-2.97-2c-.35-.24-.76-.36-1.18-.36-.18 0-.36.02-.55.07-.58.17-1.08.57-1.35 1.12l-1.72 2.4-3.4.56c-.05 0-.1 0-.15 0-.56 0-1.1.22-1.5.62-.43.43-.65 1.03-.6 1.64l.25 3.57-3.22 1.57c-.54.26-.94.76-1.1 1.35-.16.6-.05 1.22.3 1.73l1.14 2.92-1.15 3c-.35.5-.46 1.13-.3 1.72.16.58.56 1.08 1.1 1.35l3.23 1.56-.26 3.57c-.04.6.18 1.2.62 1.64.38.4.92.63 1.48.63.05 0 .1 0 .15 0l3.28.5 1.85 2.45c.27.56.77.96 1.35 1.12.2.05.37.07.55.07.42 0 .83-.12 1.18-.36l2.96-2 2.95 2c.36.25.77.37 1.2.37.17 0 .35-.02.53-.07.6-.16 1.1-.56 1.35-1.12L26 31.96l3.26-.63c.05 0 .1 0 .15 0 .57 0 1.1-.22 1.5-.62.43-.42.66-1.02.62-1.63l-.26-3.56 3.22-1.55c.55-.27.95-.77 1.1-1.36.17-.6.06-1.23-.28-1.73l-.92-2.9.92-3.02c.34-.5.45-1.14.3-1.73-.17-.6-.57-1.1-1.12-1.35l-3.22-1.56.26-3.56c.04-.6-.2-1.2-.62-1.64-.4-.4-.93-.62-1.5-.62-.04 0-.1 0-.14 0l-3.22-.52-1.9-2.44c-.27-.55-.77-.95-1.36-1.1-.18-.06-.36-.08-.54-.08"/></g><g><path fill="#d372b8" d="M18.5 7.3c-3.7-.05-8.17 2.87-7.8 8.36.14 1.96.9 3.78 2.35 5.12 2.54 2.36 6.54 2.22 8.9-.33 1-1.06 1.5-2.44 1.45-3.9-.05-1.44-.67-2.78-1.73-3.76-.92-.87-2.1-1.3-3.36-1.27-1.25.05-2.4.58-3.26 1.5-.78.84-1.06 2.04-.73 3.2.34 1.2 1.23 2.1 2.38 2.44.54.15 1.13.23 1.28-.3.15-.53-.38-.75-1.1-1.25-.82-.58-1.28-1.66-.35-2.73.48-.55 1.16-.84 1.88-.87.72-.02 1.4.23 1.93.72.68.62 1.07 1.47 1.1 2.4.03.9-.3 1.77-.9 2.44-1.63 1.73-4.35 1.83-6.1.2-1.04-.96-1.64-2.28-1.7-3.7-.05-1.44.46-2.8 1.43-3.85 1.2-1.3 2.84-2.04 4.6-2.1 1.77-.07 3.45.56 4.74 1.76 1.6 1.5 2.5 3.5 2.6 5.66.07 2.17-.7 4.23-2.18 5.82-3.73 4-8.6 4.95-13.65 1.9-.76-.45-1.4-1.13-1.83-.78-.2.17-.32.48.1.86 4.8 4.47 12.36 4.2 16.84-.62 1.84-1.98 2.92-4.56 2.7-7.25-.7-8.42-6.56-9.88-9.56-9.7"/></g></g></g></g></svg>