<svg xmlns="http://www.w3.org/2000/svg" viewBox="0 0 45 45" enable-background="new 0 0 45 45"><defs><clipPath id="a"><path d="M0 36h36V0H0v36z"/></clipPath><clipPath id="b"><path d="M17.18 13H9.82s1.35-6.5 2.35-9.75C13.17 0 16.77 0 17.6 0 19.22 0 22 0 23 3.25 24 6.5 26.2 13 26.2 13h-9z"/></clipPath><clipPath id="c"><path d="M0 36h36V0H0v36z"/></clipPath><clipPath id="d"><path d="M19.6 31.43l-7.88-2.94v-.02c-1.38-.5-2.36-1.76-2.36-3.23 0-1.92 1.7-3.48 3.77-3.48 4.74 0 9.58 3.07 9.58 3.07 1.82 1.07 2.6 2.88 1.8 4.66-.6 1.36-2 2.18-3.5 2.18-.46 0-.94-.08-1.4-.26"/></clipPath><clipPath id="e"><path d="M20.27 27.66l-10.2-4C8.26 22.93 7 21.23 7 19.25c0-2.64 2.2-4.76 4.9-4.76 6.14 0 12.4 4.18 12.4 4.18 2.36 1.46 3.36 3.92 2.34 6.35-.77 1.85-2.6 2.97-4.54 2.97-.6 0-1.23-.1-1.83-.34"/></clipPath><clipPath id="f"><path d="M13.14 32.02c-.8-.33-1.38-1.13-1.38-2.05 0-1.22 1-2.2 2.2-2.2 2.78 0 5.6 1.94 5.6 1.94 1.06.68 2.15 1.88 2.15 1.88s.76 1.67-1.62 1.67c-3.56 0-6.94-1.23-6.94-1.23"/></clipPath></defs><g><g><g clip-path="url(#a)" transform="matrix(1.25 0 0 -1.25 0 45)"><g><path fill="#ffcc4d" d="M27 16c0-1.66-4.03-3-9-3s-9 1.34-9 3 4.03 3 9 3 9-1.34 9-3"/></g><g><path fill="#ffcc4d" d="M17.18 13H9.82s1.35-6.5 2.35-9.75C13.17 0 16.77 0 17.6 0 19.22 0 22 0 23 3.25 24 6.5 26.2 13 26.2 13h-9z"/></g></g></g><g><g clip-path="url(#b)" transform="matrix(1.25 0 0 -1.25 0 45)"><g><path fill="#ffac33" d="M26.18 11.5C26.18 9.84 23.42 8 18 8s-8.18 1.84-8.18 3.5 2.76 3 8.18 3 8.18-1.34 8.18-3"/></g></g></g><g><g clip-path="url(#c)" transform="matrix(1.25 0 0 -1.25 0 45)"><g><path fill="#ffcc4d" d="M9 16v-3c0-1.66 4.03-3 9-3s9 1.34 9 3v3H9z"/></g><g><path fill="#f4900c" d="M26.18 15.5c0-1.38-3.66-2.5-8.18-2.5s-8.18 1.12-8.18 2.5S13.48 18 18 18s8.18-1.12 8.18-2.5"/></g><g><path fill="#ffe8b6" d="M28.38 18.85c0 2.4-1.95 4.36-4.36 4.36-2.4 0-14.2-4.8-14.2-7.2 0-2.4 8.1-2.33 13.76-1.37 2.38.4 4.8 1.82 4.8 4.22"/></g><g><path fill="#ffe8b6" d="M26.64 25.03c-1 2.44-3.86 3.6-6.37 2.63l-10.2-4C8.26 22.93 7 21.23 7 19.25c0-2.64 2.2-4.76 4.9-4.76 6.14 0 12.4 4.18 12.4 4.18 2.36 1.46 3.36 3.92 2.34 6.35"/></g><g><path fill="#ffe8b6" d="M24.5 29.5c-.77 1.8-2.97 2.65-4.9 1.93l-7.88-2.94v-.02c-1.38-.5-2.36-1.76-2.36-3.23 0-1.92 1.7-3.48 3.77-3.48 4.74 0 9.58 3.07 9.58 3.07 1.82 1.07 2.6 2.88 1.8 4.66"/></g><g><path fill="#ffe8b6" d="M20.7 31.08s.6 1.78-1.8 1.78c-3.55 0-5.76-.84-5.76-.84-.8-.33-1.38-1.12-1.38-2.05 0-1.22 1-2.2 2.2-2.2 2.78 0 5.6 1.94 5.6 1.94 1.06.68 1.13 1.38 1.13 1.38"/></g><g><path fill="#ffe8b6" d="M16.98 35.86c1.78-2.37 4.16-1.18 4.75-2.96.57-1.7-1.2-2.37-1.2-2.37H15.8s-1.8 3.55 1.18 5.33"/></g></g></g><g><g clip-path="url(#d)" transform="matrix(1.25 0 0 -1.25 0 45)"><g><path fill="#ffd983" d="M9.17 23.62c3.4 0 9.7 1.13 16.5 5.83 2.1 1.46 3.66-.87 2-2.45-1.67-1.6-14.1-7.42-18.34-6.63-4.25.8-.16 3.25-.16 3.25"/></g></g></g><g><g clip-path="url(#e)" transform="matrix(1.25 0 0 -1.25 0 45)"><g><path fill="#ffd983" d="M6.8 17.66c1.53-.7 5.45-.58 7.95.13 2.5.7 11.25 3.53 12.54 6.65 1.28 3.13 2.82.6 2.45-1.8-.38-2.36-11.17-11.45-16.3-10.36-5.12 1.07-8.32.78-8.66 2.57-.34 1.8 2 2.8 2 2.8"/></g></g></g><g><g clip-path="url(#f)" transform="matrix(1.25 0 0 -1.25 0 45)"><g><path fill="#ffd983" d="M11.5 29.45c2.42-.25 10.33 2.3 10.5 4.38.17 2.08 1.63-1.75 1.13-2.42-.5-.65-9.96-5.7-13.38-3.5-3.42 2.22 1.75 1.55 1.75 1.55"/></g></g></g></g></svg>