<svg xmlns="http://www.w3.org/2000/svg" viewBox="0 0 45 45" enable-background="new 0 0 45 45"><defs><clipPath id="a"><path d="M0 36h36V0H0v36z"/></clipPath></defs><g><g><g clip-path="url(#a)" transform="matrix(1.25 0 0 -1.25 0 45)"><g><path fill="#b90053" d="M9.44 21.4c.46 1.38 7.4 7.53 13.3 10.23 1.52.7 6.6 2.83 8.34 3.27 3.6.9 5.1 1 4.6-2.65-.72-5.17-4.63-12.6-8.72-19.75-2.68-4.2-4.23-6.42-10.36-3.36-6.14 3.07-9.2 6.13-7.16 12.27"/></g><g><path fill="#ffcc4d" d="M22.5 21.24C26.3 17.47 27 11.98 24 8.96c-2.98-3-8.48-2.4-12.3 1.37-3.8 3.77-4.5 9.26-1.52 12.27 2.97 3.02 8.48 2.4 12.3-1.36"/></g><g><path fill="#8e0042" d="M26.96 29.62c1.14-.57 2.7-3.6 2.7-4.5 0-.9-.9.9-2.7 2.7-1.8 1.8-1.8 2.7 0 1.8"/></g><g><path fill="#8e0042" d="M27.14 21.6c.6-.58 1-2.8.84-3.36-.18-.57-.4.74-1.2 2.22-.78 1.48-.6 2.05.36 1.13"/></g><g><path fill="#b90053" d="M21 4c0-2.2-4.48-4-10-4S1 2 1 4c0 .37-.2 2.6.08 2.96C2.34 8.53 6.5 8 11 8c4.9 0 9.13.87 9.98-1 .1-.23.02-2.75.02-3"/></g><g><path fill="#ffd671" d="M21 7c0-2.2-4.48-4-10-4S1 4.8 1 7s4.48 4 10 4 10-1.8 10-4"/></g></g></g></g></svg>