<svg xmlns="http://www.w3.org/2000/svg" viewBox="0 0 45 45" enable-background="new 0 0 45 45"><defs><clipPath id="a"><path d="M0 36h36V0H0v36z"/></clipPath></defs><g><g><g clip-path="url(#a)" transform="matrix(1.25 0 0 -1.25 0 45)"><g><path fill="#ffac33" d="M35.34 12.45C34.3 6.18 27.6 2 18.1 2 8.56 2 1.9 6.18.84 12.45c-.25 1.48.15 8.12 1.05 9.4C4.46 25.53 5.38 11.5 18.1 11.5c13.84 0 13.63 14.02 16.2 10.36.9-1.3 1.28-7.93 1.04-9.4"/></g><g><path fill="#8a4b38" d="M18.1 16.63c-3.18 0-5.76.7-5.76 1.57 0 .86 2.58 1.57 5.75 1.57s5.74-.7 5.74-1.57c0-.87-2.57-1.57-5.75-1.57m0 13.37C8.75 30 1.2 25.42 1.2 19.77c0-5.66 7.56-10.24 16.9-10.24C27.4 9.53 35 14.1 35 19.77 35 25.42 27.4 30 18.1 30"/></g><g><path fill="#8a4b38" d="M1.72 21.38c-.65-1.05-.92-5.5.48-7.58 2.13-3.18 3.18-1.57 4.74-2.05 2.34-.7 2.5-2.56 4.36-3.48 2.1-1.04 3.3-.74 6.27 0 4.18 1.05 6.84-1.1 9.4 0 2.1.9 3.32 4.14 4.5 4.53 3.72 1.24 4.5 7.12 1.73 9.54-.87-1.83-5.14-8.4-7.88-8.7-2.74-.32-10.97-1-14.46.77-3.48 1.8-7 4.02-7.44 4.63-.44.6-1.7 2.35-1.7 2.35"/></g><g><path fill="#f4900c" d="M18.1 22.12c-3.76 0-6.8-1.23-6.8-2.75 0-.6.46-1.13 1.24-1.58-.12.12-.2.26-.2.4 0 .86 2.58 1.57 5.75 1.57s5.74-.7 5.74-1.57c0-.14-.07-.28-.2-.4.78.44 1.25.98 1.25 1.57 0 1.52-3.06 2.75-6.8 2.75"/></g><g><path fill="#f4abba" d="M4.42 17.85c-.38 0-.74.2-.93.56-.28.52-.08 1.15.43 1.42l2.3 1.22c.52.27 1.15.07 1.42-.44.27-.5.08-1.14-.44-1.4l-2.3-1.23c-.15-.08-.32-.12-.48-.12"/></g><g><path fill="#f4abba" d="M16.3 10.06c-.4 0-.8.24-.96.64l-.74 1.8c-.22.52.03 1.13.57 1.35.53.22 1.14-.03 1.36-.56l.74-1.8c.22-.53-.03-1.14-.56-1.37-.12-.05-.26-.07-.4-.07"/></g><g><path fill="#55acee" d="M28.15 14.24c-.18 0-.36.04-.53.14-.5.3-.66.94-.37 1.43l1.13 1.93c.3.5.94.66 1.44.37.5-.3.66-.94.36-1.43l-1.13-1.92c-.2-.33-.54-.5-.9-.5"/></g><g><path fill="#f4abba" d="M29.9 22c-.57 0-1.03.48-1.05 1.05-.02.57.43 1.07 1 1.1l1.22.05c.6 0 1.07-.43 1.1-1 0-.58-.45-1.1-1.02-1.12L29.93 22h-.04z"/></g><g><path fill="#f4abba" d="M19.8 26.12c-.45 0-.86.3-1 .73-.18.55.13 1.14.68 1.32l.82.26c.56.17 1.14-.13 1.3-.68.2-.56-.12-1.14-.67-1.32l-.82-.26c-.1-.03-.2-.05-.3-.05"/></g><g><path fill="#88c9f9" d="M14 24.43c-.16 0-.32.03-.47.1l-.78.4c-.52.26-.73.88-.47 1.4.26.52.9.73 1.4.47l.8-.4c.5-.25.7-.88.45-1.4-.18-.36-.55-.57-.93-.57"/></g><g><path fill="#88c9f9" d="M23.1 11.15c-.16 0-.32.03-.47.1l-.78.4c-.52.25-.73.88-.47 1.4.26.52.88.72 1.4.47l.8-.4c.5-.25.7-.88.46-1.4-.2-.36-.56-.57-.94-.57"/></g><g><path fill="#55acee" d="M9.43 13.45c-.14 0-.28.03-.42.1-.52.2-.76.83-.53 1.36l.4.92c.22.53.83.78 1.36.55.53-.23.78-.84.55-1.37l-.4-.9c-.16-.4-.55-.65-.95-.65"/></g><g><path fill="#55acee" d="M25.02 23.34c-.4 0-.8.23-.96.62-.23.53 0 1.15.54 1.38l.7.3c.52.24 1.14 0 1.37-.53.23-.52 0-1.14-.54-1.37l-.7-.3c-.13-.07-.27-.1-.4-.1"/></g><g><path fill="#55acee" d="M8.03 23.38c-.07 0-.15 0-.23.03l-.57.14c-.56.13-.9.7-.78 1.25.13.55.7.9 1.25.77l.57-.13c.56-.13.9-.7.78-1.25-.1-.5-.54-.82-1.02-.82"/></g></g></g></g></svg>