<svg xmlns="http://www.w3.org/2000/svg" viewBox="0 0 45 45" enable-background="new 0 0 45 45"><defs><clipPath id="a"><path d="M0 36h36V0H0v36z"/></clipPath><clipPath id="b"><path d="M10.08 34.32l-8.5-8.48c-1.55-1.56-1.55-2.68 0-4.24L20.7 2.5c1.56-1.56 4.1-1.56 5.66 0l7.07 7.07c1.57 1.57 1.57 4.1 0 5.66l-19.08 19.1c-.78.77-1.45 1.17-2.12 1.17-.67 0-1.34-.4-2.12-1.18"/></clipPath><clipPath id="c"><path d="M0 36h36V0H0v36z"/></clipPath><clipPath id="d"><path d="M19.27 25.13l-8.5-8.48c-1.55-1.57-1.55-4.1 0-5.66l9.9-9.9c.6-.6 1.3-.95 2.04-1.1h1.6c.76.15 1.46.52 2.04 1.1l8.48 8.47c1.57 1.57 1.57 4.1 0 5.66l-9.9 9.9c-.78.78-1.8 1.17-2.82 1.17-1.03 0-2.05-.4-2.83-1.17"/></clipPath><clipPath id="e"><path d="M0 36h36V0H0v36z"/></clipPath></defs><g><g><g clip-path="url(#a)" transform="matrix(1.25 0 0 -1.25 0 45)"><g><path fill="#c1694f" d="M26.34 2.5c-1.56-1.56-4.1-1.56-5.66 0L1.58 21.6c-1.55 1.56-1.55 2.68 0 4.24l8.5 8.48c1.56 1.57 2.68 1.57 4.24 0l19.1-19.1c1.55-1.55 1.55-4.08 0-5.65L26.33 2.5z"/></g></g></g><g><g clip-path="url(#b)" transform="matrix(1.25 0 0 -1.25 0 45)"><g><path fill="#8a4b38" d="M32 5.33l-20.3 20.3 5.86 5.87-1.4 1.4-5.88-5.85-4.45 4.45-1.4-1.42 4.44-4.45-7.57-7.57 1.4-1.4 7.58 7.56 20.3-20.3L32 5.32z"/></g></g></g><g><g clip-path="url(#c)" transform="matrix(1.25 0 0 -1.25 0 45)"><g><path fill="#dd2e44" d="M26.34 1.1c-1.56-1.57-4.1-1.57-5.66 0l-9.9 9.9c-1.56 1.55-1.56 4.08 0 5.65l8.5 8.48c1.55 1.56 4.08 1.56 5.64 0l9.9-9.9c1.57-1.56 1.57-4.1 0-5.66L26.34 1.1z"/></g></g></g><g><g clip-path="url(#d)" transform="matrix(1.25 0 0 -1.25 0 45)"><g><path fill="#be1931" d="M26 26L17 3l-6 3 13 21 2-1z"/></g></g></g><g><g clip-path="url(#e)" transform="matrix(1.25 0 0 -1.25 0 45)"><g><path fill="#ccd6dd" d="M22.8 27.25c.7-.7 1.42-1.4 2.12-2.12-.7-2.12-8.48-15.56-9.9-18.38 0 0-.7-2.12-2.47-.36-1.24 1.23-3.7 3.7-5.3 5.3-.68.68-.7 2.14 0 2.82 3.57 3.58 12.13 12.14 12.72 12.73 1.42 1.42 2.83 0 2.83 0"/></g></g></g></g></svg>