<svg xmlns="http://www.w3.org/2000/svg" viewBox="0 0 45 45" enable-background="new 0 0 45 45"><defs><clipPath id="a"><path d="M0 36h36V0H0v36z"/></clipPath><clipPath id="b"><path d="M15.85 33.62c-.06-.18-.3-.52-.53-.85-.68-.98-1.6-2.32-1.2-3.52.2-.67.8-1.17 1.75-1.5 1.9-.63 5.83-3.86 6.6-7.74.2-1.07.16-2.1-.14-3.1-1.63 3.04-4.57 4.94-8.16 4.94-5.8 0-9.53-4.78-9.53-10.67C4.64 6.22 8.36.5 14.17.5c.03 0 .06 0 .1 0h.08c.6-.04 1.6-.1 2.82-.1 6.1 0 13.84 1.72 16.2 9.96 1.56 5.4.43 11.7-2.96 16.36-2.25 3.13-6.53 6.93-14.05 7.23l-.37.02-.13-.35z"/></clipPath><clipPath id="c"><path d="M4.76 35.56c-1.42-.06-2.5-.8-2.76-1.85-.13-.48-.2-1.76 1.62-2.83.55-.32.9-.66.9-.9s-.26-.7-1.06-1.3c-.8-.55-1.12-1.43-.85-2.27.34-1.03 1.48-1.73 2.84-1.73.74 0 1.5.2 2.28.58 2 1 4.68 1.65 6.85 1.65 1.06 0 1.97-.15 2.68-.45.37-.15.72-.22 1.06-.22.63 0 1.18.24 1.6.72 1.34 1.47 1.07 4.98 1 5.67-.05.43-.36.8-.8.88-1.58.37-12.76 2.06-15.14 2.06h-.2z"/></clipPath></defs><g><g><g clip-path="url(#a)" transform="matrix(1.25 0 0 -1.25 0 45)"><g><path fill="#ffac33" d="M30.4 26.72c-2.25 3.14-6.53 6.93-14.05 7.23l-.37.02-.13-.35c-.06-.18-.3-.52-.53-.85-.68-.98-1.6-2.32-1.2-3.52.2-.67.8-1.17 1.75-1.5 1.9-.63 5.83-3.86 6.6-7.74.22-1.07.16-2.1-.14-3.1-1.63 3.04-4.57 4.94-8.16 4.94-5.82 0-9.53-4.78-9.53-10.67C4.64 6.1 8.34.5 14.17.5c.03 0 .06 0 .1 0h.08c.6-.04 1.6-.1 2.82-.1 6.1 0 13.84 1.72 16.2 9.95 1.56 5.42.43 11.7-2.96 16.37"/></g><g><path fill="#ff839b" d="M5.44 24.67c-1.36 0-2.5.7-2.83 1.73-.26.84.06 1.72.86 2.28.8.57 1.07 1.05 1.06 1.3 0 .23-.35.57-.9.9C1.8 31.93 1.87 33.2 2 33.7c.26 1.07 1.34 1.8 2.77 1.86h.2c2.37 0 13.55-1.7 15.14-2.06.44-.1.75-.45.8-.88.07-.7-3.64-1.88-1-5.67.37-.52-.97-.72-1.6-.72-.33 0-.68.07-1.05.22-.7.3-1.62.45-2.7.45-2.15 0-4.83-.65-6.83-1.65-.77-.38-1.54-.58-2.28-.58"/></g></g></g><g><g clip-path="url(#b)" transform="matrix(1.25 0 0 -1.25 0 45)"><g><path fill="#f4900c" d="M21.7 18.12C24 14.7 25.95 7.28 18.9 5.2c-.16-.63 2.92-1.47 5.62 1.46 3.05 3.3 3.24 11.63-3.8 17.3-4.56 1.3 1-5.84 1-5.84"/></g><g><path fill="#f4900c" d="M31.25 12.95c1.66.75 4 2.67 4.77 4.5.76 1.85 2.47-1.45.76-3.04-1.08-1.07-4.32-2.47-5.9-2.66-1.6-.2-1.02.58.37 1.2"/></g><g><path fill="#f4900c" d="M30.87 29.6c.38-3.18 1.34-7.57-.9-9.6-2.2-2.03.1-1.33 1.4-.5 2.1 1.33 2.68 4.3 1.98 6.1-.7 1.77-2.48 4-2.48 4"/></g></g></g><g><g clip-path="url(#c)" transform="matrix(1.25 0 0 -1.25 0 45)"><g><path fill="#ea596e" d="M1.85 32.5c2.35-3.67 12.57-1.3.2-5.66-5.1-1.25-.2 5.67-.2 5.67"/></g></g></g></g></svg>