<svg xmlns="http://www.w3.org/2000/svg" viewBox="0 0 45 45" enable-background="new 0 0 45 45"><defs><clipPath id="a"><path d="M0 36h36V0H0v36z"/></clipPath></defs><g><g><g clip-path="url(#a)" transform="matrix(1.25 0 0 -1.25 0 45)"><g><path fill="#55acee" d="M33 15c-.56 2.8-2.1 6.96-3.7 10.02 1.8 1.24 3.35 3.7 3.35 8.48-.65.5-1.28.5-2.65.5-1.37 0-3.77 1-3.77 1h-1.37S22.7 34 22 34c-.7 0-3.04.04-3.5-.43 0-4.7 1.6-7.2 3.32-8.5C20.25 22.02 18.7 17.8 18 15c-1-4-.03-9.33 0-9.5.3-1.58 2.25-3.5 7.5-3.5s7.02 2 7.5 3.5c.06.17 1 4.5 0 9.5"/></g><g><path fill="#3b88c3" d="M32.63 33.7c0-.98-2.17-1.78-7.1-1.78-4.9 0-7.07.8-7.07 1.78 0 1 2.16 1.8 7.08 1.8s7.1-.8 7.1-1.8"/></g><g><path fill="#88c9f9" d="M25.43 31.36c-3.15 0-5.5.7-6.15 1-.5.23-.72.83-.48 1.33.23.5.82.7 1.33.47.73-.35 5.6-1.7 11.04.1.52.16 1.1-.12 1.26-.64.18-.53-.1-1.1-.63-1.27-2.28-.75-4.47-1-6.37-1"/></g><g><path fill="#ccd6dd" d="M19.65 11.6c0 1.12-.87 1.4-2.54 1.4H4.85c-.84 0-2.48.48-2.48-1.3 0-10.2 6.2-11.9 8.36-11.9 3 0 8.93 1.55 8.93 11.8"/></g><g><path fill="#8899a6" d="M19.62 12.3c0-1.2-2.64-2.18-8.65-2.18-6 0-8.65.98-8.65 2.2 0 1.2 2.64 2.17 8.65 2.17 6 0 8.65-.98 8.65-2.2"/></g><g><path fill="#fff" d="M10.83 9.66c-3.8 0-6.65.84-7.42 1.2-.5.24-.7.83-.47 1.33.24.5.83.7 1.33.48.9-.43 6.93-2.12 13.65.1.54.18 1.1-.1 1.28-.64.17-.52-.12-1.08-.64-1.26-2.76-.9-5.4-1.22-7.7-1.22"/></g><g><path fill="#88c9f9" d="M28.67 19.6c0-.95-.8-1.73-1.77-1.73-.98 0-1.77.78-1.77 1.73 0 .96.8 1.73 1.77 1.73s1.77-.77 1.77-1.73"/></g><g><path fill="#88c9f9" d="M30.67 17.6c0-.95-.8-1.73-1.77-1.73-.98 0-1.77.78-1.77 1.73 0 .96.8 1.73 1.77 1.73s1.77-.77 1.77-1.73"/></g><g><path fill="#88c9f9" d="M28.67 16.6c0-.95-.8-1.73-1.77-1.73-.98 0-1.77.78-1.77 1.73 0 .96.8 1.73 1.77 1.73s1.77-.77 1.77-1.73"/></g><g><path fill="#88c9f9" d="M22.07 10.05c.66-.27.98-1.02.7-1.7-.26-.67-1-1-1.67-.74-.65.27-.97 1.03-.7 1.7.27.68 1.02 1 1.67.75"/></g><g><path fill="#88c9f9" d="M24 10.88c.66-.27.98-1.03.7-1.7-.26-.67-1-1-1.67-.75-.66.27-.98 1.03-.7 1.7.26.67 1 1 1.67.75"/></g><g><path fill="#88c9f9" d="M24.14 9.22c.66-.26.97-1.02.7-1.7-.26-.66-1-1-1.67-.74-.66.27-.97 1.02-.7 1.7.26.67 1 1 1.67.74"/></g><g><path fill="#bbddf5" d="M28.75 17.88c0-.63-.5-1.13-1.13-1.13-.62 0-1.12.5-1.12 1.13 0 .62.5 1.12 1.13 1.12.62 0 1.12-.5 1.12-1.13"/></g><g><path fill="#bbddf5" d="M23.8 8.92c0-.44-.36-.8-.8-.8-.44 0-.8.36-.8.8 0 .43.36.8.8.8.44 0 .8-.37.8-.8"/></g></g></g></g></svg>