<svg xmlns="http://www.w3.org/2000/svg" viewBox="0 0 45 45" enable-background="new 0 0 45 45"><defs><clipPath id="a"><path d="M0 36h36V0H0v36z"/></clipPath></defs><g><g><g clip-path="url(#a)" transform="matrix(1.25 0 0 -1.25 0 45)"><g><path fill="#292f33" d="M34.24 8.07c-.7.7-3.86 2.66-6.94 4.36C29 14.86 30 17.8 30 21c0 8.28-6.72 15-15 15-8.28 0-15-6.72-15-15C0 12.72 6.72 6 15 6c3.16 0 6.1.98 8.5 2.65 1.7-3.08 3.67-6.24 4.37-6.94C29.3.3 31 0 32 0c1.18 0 4.05 2.88 4 4-.05 1-.35 2.66-1.76 4.07"/></g><g><path fill="#66757f" d="M27 21c0-6.63-5.37-12-12-12S3 14.37 3 21s5.37 12 12 12 12-5.37 12-12"/></g><g><path fill="#f5f8fa" d="M16 11c4.86 1.53 4 5 4 9s4 6.7.33 9.75c-2.17 1.8-6.75 2.42-8.87 1.63C9.5 30.64 7 29.18 7 26.18s-.06-2.94-1.7-5.64C2.66 16.24 9.12 8.84 16 11"/></g><g><path fill="#ffac33" d="M17 18c0-2.2-1.8-4-4-4s-4 1.8-4 4 1.8 4 4 4 4-1.8 4-4"/></g></g></g></g></svg>