<svg xmlns="http://www.w3.org/2000/svg" viewBox="0 0 45 45" enable-background="new 0 0 45 45"><defs><clipPath id="a"><path d="M0 36h36V0H0v36z"/></clipPath><clipPath id="b"><path d="M3.2 34.16l-.7-.7c-.77-.8-.77-2.05 0-2.83l.7-.7c.8-.8 2.06-.8 2.84 0l.7.7c.8.78.8 2.04 0 2.82l-.7.7c-.4.4-.9.6-1.4.6-.52 0-1.04-.2-1.43-.6"/></clipPath><clipPath id="c"><path d="M0 36h36V0H0v36z"/></clipPath></defs><g><g><g clip-path="url(#a)" transform="matrix(1.25 0 0 -1.25 0 45)"><g><path fill="#ccd6dd" d="M8.7 8.5C8.7 7.67 8 7 7.2 7c-.84 0-1.5.67-1.5 1.5S6.35 10 7.2 10c.82 0 1.5-.67 1.5-1.5"/></g><g><path fill="#ccd6dd" d="M9.6 22.77c.06.23.1.48.1.73 0 1.93-1.58 3.5-3.5 3.5-1.78 0-3.22-1.3-3.46-3-.02 0-.03 0-.05 0-1.12 0-2-.9-2-2s.88-2 2-2c.02 0 .05 0 .08 0-.05-.15-.1-.32-.1-.5 0-.46.22-.87.55-1.14C2.9 18 2.7 17.53 2.7 17c0-1.1.88-2 2-2 0-.38.1-.72.28-1.02-.73-.1-1.3-.72-1.3-1.48 0-.83.68-1.5 1.5-1.5.84 0 1.5.67 1.5 1.5 0 .18-.03.35-.1.5.05 0 .08 0 .1 0 1.1 0 2 .9 2 2 0 .6-.26 1.13-.68 1.5.42.37.7.9.7 1.5 0 .38-.12.73-.3 1.03.1 0 .2-.03.3-.03 1.1 0 2 .9 2 2 0 .77-.45 1.43-1.1 1.77"/></g><g><path fill="#e4ebef" d="M6.7 17c0-.55-.46-1-1-1-.56 0-1 .45-1 1s.44 1 1 1c.54 0 1-.45 1-1"/></g><g><path fill="#e4ebef" d="M8.7 23c0 1.1-.9 2-2 2-1.12 0-2-.9-2-2 0-.03 0-.06 0-.1-.16.06-.33.1-.5.1-.84 0-1.5-.67-1.5-1.5S3.35 20 4.2 20c.2 0 .37.04.55.1.17-.63.75-1.1 1.44-1.1.82 0 1.5.67 1.5 1.5 0 .25-.08.48-.18.68.7.32 1.17 1 1.17 1.82"/></g><g><path fill="#c1694f" d="M7.3 32.92c.78-.78.78-2.04 0-2.82l-.7-.7c-.8-.8-2.05-.8-2.84 0l-.7.7c-.78.78-.78 2.04 0 2.82l.7.7c.8.8 2.05.8 2.83 0l.7-.7z"/></g></g></g><g><g clip-path="url(#b)" transform="matrix(1.25 0 0 -1.25 0 45)"><g><path fill="#a95233" d="M7 34.56c.63-.62.5-1.76-.27-2.55L4.6 29.9c-.78-.8-1.92-.9-2.54-.3l-.57.58c-.63.62-.5 1.76.28 2.54l2.12 2.12c.78.78 1.92.9 2.54.3l.57-.58z"/></g></g></g><g><g clip-path="url(#c)" transform="matrix(1.25 0 0 -1.25 0 45)"><g><path fill="#c1694f" d="M6.17 35.47c.62-.63.5-1.77-.28-2.55L3.76 30.8c-.8-.78-1.93-.9-2.55-.28l.02-.02c-.63.63-.5 1.77.28 2.55l2.12 2.12c.78.78 1.92.9 2.55.28l-.03.02z"/></g><g><path fill="#264612" d="M34.9 12.2s-4.17 4.18-5.07 5.08c-3.66 3.66-7.32 4.14-14.36 6.95-.6-.62-1.92-1.93-1.92-1.93s-.6-.6-1.22-1.22c3.23-6.6 3.23-10.74 6.9-14.4C22.9 3 24.3 1.6 24.3 1.6c1-1 1.78-1.8 2.78-.8l8.4 8.4c1 1 .4 2.02-.58 3"/></g><g><path fill="#ffe8b6" d="M16.2 23.84s1.74-.65-.56-2.95c-2.12-2.13-2.9-.66-2.9-.66L9.27 23.7l3.54 3.52 3.38-3.38z"/></g><g><path fill="#ffd983" d="M13.12 26.92l-1 1-3.55-3.52 1.02-1.02c.98-1 .8-1.05 2.63.77l.6.6c1.44 1.44 1.3 1.17.3 2.17"/></g><g><path fill="#264612" d="M12.46 29c.6-.6.6-1.54 0-2.13l-2.82-2.83c-.6-.58-1.54-.58-2.13 0-.57.6-.57 1.54 0 2.12L10.35 29c.6.58 1.54.58 2.12 0"/></g><g><path fill="#ffe8b6" d="M28.37 15.9c-.78.8-2.04.8-2.83 0l-4.94-4.94c-.8-.78-.8-2.05 0-2.83l4.24-4.24c.78-.8 2.05-.8 2.83 0l4.95 4.94c.78.78.78 2.05 0 2.83l-4.25 4.24z"/></g></g></g></g></svg>