<svg xmlns="http://www.w3.org/2000/svg" viewBox="0 0 45 45" enable-background="new 0 0 45 45"><defs><clipPath id="a"><path d="M0 36h36V0H0v36z"/></clipPath><clipPath id="b"><path d="M11 25c-5 1-7.54-2.83-7-5 1-4 6-2 7-1 5-2 9 1 10 3 1.6 3.23-2 5-4 5-3.16 0-5-1-6-2"/></clipPath><clipPath id="c"><path d="M0 36h36V0H0v36z"/></clipPath><clipPath id="d"><path d="M5 20c-2-5 8-8 12-8s5 1 4 2c-1.4 1.4-5 2-6 3-2.74 3.28-5.32 4.26-7.18 4.26-1.54 0-2.58-.67-2.82-1.26"/></clipPath><clipPath id="e"><path d="M0 36h36V0H0v36z"/></clipPath></defs><g><g><g clip-path="url(#a)" transform="matrix(1.25 0 0 -1.25 0 45)"><g><path fill="#292f33" d="M13.04 1.18C.8 2.98 1 15.28 1 19h34c0-1.9.1-15.77-13.12-17.92-2.05-.33-6.46-.25-8.84.1"/></g><g><path fill="#66757f" d="M33.4 22.75c2.45 5.58-8.34 5.26-11.05 4.4-1.4.15-2.84.24-4.35.24-9.4 0-17-3.24-17-8.46 0-1 .3-1.97.82-2.9-4.33-5.7 4.24-6.77 9.18-5.7 2.14-.53 4.5-.84 7-.84 9.4 0 17 4.23 17 9.44 0 1.43-.6 2.7-1.6 3.8"/></g><g><path fill="#ffcc4d" d="M33 18c0-3.87-6.72-7-15-7-8.28 0-15 3.13-15 7s6.72 7 15 7c8.28 0 15-3.13 15-7"/></g><g><path fill="#77b255" d="M4 20c-.54 2.17 2 6 7 5 1 1 2.84 2 6 2 2 0 5.6-1.78 4-5-1-2-5-5-10-3-1-1-6-3-7 1"/></g></g></g><g><g clip-path="url(#b)" transform="matrix(1.25 0 0 -1.25 0 45)"><g><path fill="#5c913b" d="M19 27c1-1 0-7-7-8s3-3 6-2 9 5 7 7-6 3-6 3"/></g></g></g><g><g clip-path="url(#c)" transform="matrix(1.25 0 0 -1.25 0 45)"><g><path fill="#d99e82" d="M5 20c.53 1.3 5 3 10-3 1-1 4.6-1.6 6-3 1-1 0-2-4-2S3 15 5 20"/></g></g></g><g><g clip-path="url(#d)" transform="matrix(1.25 0 0 -1.25 0 45)"><g><path fill="#b27962" d="M6 16c2-1 11-3 14-1s3-1 3-2-3-5-8-3-9 3-9 4v2z"/></g></g></g><g><g clip-path="url(#e)" transform="matrix(1.25 0 0 -1.25 0 45)"><g><path fill="#ffe8b6" d="M27 17c-.2 0-.42.03-.63.1l-3 1c-1.05.35-1.62 1.48-1.27 2.53.35 1.05 1.48 1.62 2.53 1.27l3-1c1.05-.35 1.62-1.48 1.27-2.53-.28-.84-1.06-1.37-1.9-1.37"/></g><g><path fill="#ffe8b6" d="M26 14h-2c-.55 0-1 .45-1 1s.45 1 1 1h2c.55 0 1-.45 1-1s-.45-1-1-1"/></g></g></g></g></svg>