<svg xmlns="http://www.w3.org/2000/svg" viewBox="0 0 45 45" enable-background="new 0 0 45 45"><defs><clipPath id="a"><path d="M0 36h36V0H0v36z"/></clipPath></defs><g><g><g clip-path="url(#a)" transform="matrix(1.25 0 0 -1.25 0 45)"><g><path fill="#99aab5" d="M19 34.5c0 .83-.67 1.5-1.5 1.5s-1.5-.67-1.5-1.5V25c0-.55-.45-1-1-1s-1 .45-1 1v9.5c0 .83-.67 1.5-1.5 1.5s-1.5-.67-1.5-1.5V25c0-.55-.45-1-1-1s-1 .45-1 1v9.5c0 .83-.67 1.5-1.5 1.5S6 35.33 6 34.5v-9c0-.13.02-.25.05-.37-.03-.2-.05-.4-.05-.63 0-2.32 1.75-5.96 4-6.44V2.5C10 1.12 11.12 0 12.5 0S15 1.12 15 2.5v15.56c2.25.48 4 4.12 4 6.44 0 .22-.02.43-.05.63.03.12.05.24.05.37v9z"/></g><g><path fill="#99aab5" d="M27.5 36c-.1 0-.2-.02-.3-.03-.07 0-.13.03-.2.03-2.2 0-5-5.48-5-11 0-4.66 1.27-8.56 3-9.67V2.5C25 1.12 26.12 0 27.5 0S30 1.12 30 2.5v31c0 1.38-1.12 2.5-2.5 2.5"/></g></g></g></g></svg>