<svg xmlns="http://www.w3.org/2000/svg" viewBox="0 0 45 45" enable-background="new 0 0 45 45"><defs><clipPath id="a"><path d="M0 36h36V0H0v36z"/></clipPath><clipPath id="b"><path d="M3.52 32C2.68 32 2 31.32 2 30.48V8c0-.84 1.16-2 2-2h13.48c.84 0 1.52.68 1.52 1.52v22.96c0 .84-.68 1.52-1.52 1.52H3.52z"/></clipPath><clipPath id="c"><path d="M0 36h36V0H0v36z"/></clipPath><clipPath id="d"><path d="M14.52 26c-.84 0-1.52-.68-1.52-1.52V1.52C13 .68 13.68 0 14.52 0h13.96C29.32 0 30 .68 30 1.52v22.96c0 .84-.68 1.52-1.52 1.52H14.52z"/></clipPath><clipPath id="e"><path d="M0 36h36V0H0v36z"/></clipPath></defs><g><g><g clip-path="url(#a)" transform="matrix(1.25 0 0 -1.25 0 45)"><g><path fill="#ffcc4d" d="M19 7.52C19 6.68 18.32 6 17.48 6H4c-1 0-2 .68-2 1.86V30.8c0 .52.68 1.2 1.52 1.2h13.96c.84 0 1.52-.68 1.52-1.52V7.52z"/></g></g></g><g><g clip-path="url(#b)" transform="matrix(1.25 0 0 -1.25 0 45)"><g><path fill="#ffac33" d="M17.5 29.43c-1 0-1.86-.67-2.16-1.6-.15.05-.32.08-.5.08-.44 0-.85-.15-1.17-.4-.17 1.5-1.45 2.7-3 2.7-1.5 0-2.76-1.1-3-2.53-.24.15-.52.24-.82.24-.38 0-.72-.14-1-.36-.44 1.1-1.53 1.9-2.8 1.9-1.7 0-3.05 3.8-3.05-3.05 0-1.7 1.36-3.06 3.05-3.06 1.27 0 2.36.8 2.8 1.9.28-.23.62-.38 1-.38.52 0 .97.26 1.25.65.54-.83 1.48-1.4 2.56-1.4 1 0 1.86.48 2.42 1.2.27-.7.96-1.2 1.77-1.2.72 0 1.34.4 1.66 1 .32-.15.65-.24 1-.24 1.27 0 2.3 1.03 2.3 2.3 0 3.8-1.03 2.27-2.3 2.27"/></g></g></g><g><g clip-path="url(#c)" transform="matrix(1.25 0 0 -1.25 0 45)"><g><path fill="#ffac33" d="M11 9c-.55 0-1 .45-1 1v11c0 .55.45 1 1 1s1-.45 1-1V10c0-.55-.45-1-1-1"/></g><g><path fill="#ffac33" d="M6 9c-.55 0-1 .45-1 1v11c0 .55.45 1 1 1s1-.45 1-1V10c0-.55-.45-1-1-1"/></g><g><path fill="#ccd6dd" d="M20 31c0 2-1 3-3 3H3c-2 0-3-1-3-3v-1.57c0-.07 0-.14.02-.2 0-.4-.02-.83-.02-1.32 0-1.67 1.36-3.04 3.04-3.04 1.28 0 2.37.8 2.82 1.9.27-.23.6-.37 1-.37.5 0 .96.24 1.24.64.54-.85 1.48-1.42 2.56-1.42 1 0 1.86.48 2.42 1.22.27-.7.96-1.22 1.77-1.22.72 0 1.34.4 1.66 1 .3-.14.65-.23 1-.23 1.27 0 2.5 1.34 2.5 2.6 0 .23 0-.2 0 0 0 .04 0 .4 0 .43V31z"/></g><g><path fill="#ffac33" d="M27 20V8h4.56S33 8.2 33 9.73V18c0 1 0 2-2 2h-4zm9-11.96C36 6.37 34.64 5 32.95 5h-5.9C25.35 5 24 6.36 24 8.04v11.92c0 1.68 1.36 3.04 3.05 3.04h5.9c1.7 0 3.05-1.36 3.05-3.04V8.03z"/></g><g><path fill="#ffcc4d" d="M30 2c0-1-1-2-2-2H15c-1 0-2 1-2 2v22.48c0 .84.68 1.52 1.52 1.52h13.96c.84 0 1.52-.68 1.52-1.52V2z"/></g></g></g><g><g clip-path="url(#d)" transform="matrix(1.25 0 0 -1.25 0 45)"><g><path fill="#ffac33" d="M28.5 23.43c-1 0-1.86-.67-2.16-1.6-.15.05-.32.08-.5.08-.44 0-.85-.15-1.17-.4-.17 1.5-1.45 2.7-3 2.7-1.5 0-2.76-1.1-3-2.53-.24.15-.52.24-.82.24-.38 0-.72-.14-1-.36-.44 1.1-1.53 1.9-2.8 1.9-1.7 0-3.05 3.8-3.05-3.05 0-1.7 1.36-3.06 3.05-3.06 1.27 0 2.36.8 2.8 1.9.28-.23.62-.38 1-.38.52 0 .97.26 1.25.65.54-.83 1.48-1.4 2.56-1.4 1 0 1.86.48 2.42 1.2.27-.7.96-1.2 1.77-1.2.72 0 1.34.4 1.66 1 .32-.15.65-.24 1-.24 1.27 0 2.3 1.03 2.3 2.3 0 3.8-1.03 2.27-2.3 2.27"/></g></g></g><g><g clip-path="url(#e)" transform="matrix(1.25 0 0 -1.25 0 45)"><g><path fill="#e1e8ed" d="M31 25c0 2-1 3-3 3H14c-2 0-3-1-3-3v-1.57c0-.07 0-.14.02-.2 0-.4-.02-.83-.02-1.32 0-1.67 1.36-3.04 3.04-3.04 1.28 0 2.37.8 2.82 1.9.27-.23.6-.37 1-.37.5 0 .96.24 1.24.64.54-.85 1.48-1.42 2.56-1.42 1 0 1.86.48 2.42 1.22.28-.7.96-1.22 1.77-1.22.72 0 1.34.4 1.66 1 .32-.14.65-.23 1-.23 1.27 0 2.5 1.34 2.5 2.6 0 .23 0-.2 0 0 0 .04 0 .4 0 .43V25z"/></g><g><path fill="#ffac33" d="M16 3c-.55 0-1 .45-1 1v11c0 .55.45 1 1 1s1-.45 1-1V4c0-.55-.45-1-1-1"/></g><g><path fill="#ffac33" d="M26 3c-.55 0-1 .45-1 1v11c0 .55.45 1 1 1s1-.45 1-1V4c0-.55-.45-1-1-1"/></g><g><path fill="#ffac33" d="M21 3c-.55 0-1 .45-1 1v11c0 .55.45 1 1 1s1-.45 1-1V4c0-.55-.45-1-1-1"/></g><g><path fill="#f4900c" d="M22 30c-.55 0-1 .45-1 1v3c0 .55.45 1 1 1s1-.45 1-1v-3c0-.55-.45-1-1-1"/></g><g><path fill="#f4900c" d="M25 29c-.26 0-.5.1-.7.3-.4.38-.4 1.02 0 1.4l4 4c.38.4 1.02.4 1.4 0 .4-.38.4-1.02 0-1.4l-4-4c-.2-.2-.44-.3-.7-.3"/></g></g></g></g></svg>