<svg xmlns="http://www.w3.org/2000/svg" viewBox="0 0 45 45" enable-background="new 0 0 45 45"><defs><clipPath id="a"><path d="M0 36h36V0H0v36z"/></clipPath></defs><g><g><g clip-path="url(#a)" transform="matrix(1.25 0 0 -1.25 0 45)"><g><path fill="#e1e8ed" d="M36 18c0-9.94-8.06-18-18-18S0 8.06 0 18s8.06 18 18 18 18-8.06 18-18"/></g><g><path fill="#ccd6dd" d="M30 18c0-6.63-5.37-12-12-12S6 11.37 6 18s5.37 12 12 12 12-5.37 12-12"/></g><g><path fill="#e1e8ed" d="M29 18c0-6.08-4.92-11-11-11S7 11.92 7 18s4.92 11 11 11 11-4.92 11-11"/></g><g><path fill="#99aab5" d="M2 35c0-.55-.45-1-1-1s-1 .45-1 1 .45 1 1 1 1-.45 1-1"/></g><path fill="#99aab5" d="M2 28H0v7h2v-7z"/><g><path fill="#99aab5" d="M6 35c0-.55-.45-1-1-1s-1 .45-1 1 .45 1 1 1 1-.45 1-1"/></g><path fill="#99aab5" d="M6 28H4v7h2v-7z"/><g><path fill="#99aab5" d="M10 35c0-.55-.45-1-1-1s-1 .45-1 1 .45 1 1 1 1-.45 1-1"/></g><path fill="#99aab5" d="M10 28H8v7h2v-7z"/><path fill="#99aab5" d="M7 2H3v20h4V2z"/><g><path fill="#99aab5" d="M7 2c0 1.1-.9 2-2 2s-2-.9-2-2 .9-2 2-2 2 .9 2 2"/></g><g><path fill="#99aab5" d="M8 28c0-.55-.45-1-1-1s-1 .45-1 1H4c0-.55-.45-1-1-1s-1 .45-1 1H0c0-3.87 1-7 5-7s5 3.13 5 7H8z"/></g><g><path fill="#99aab5" d="M2 28c0-.55-.45-1-1-1s-1 .45-1 1 .45 1 1 1 1-.45 1-1"/></g><g><path fill="#99aab5" d="M6 28c0-.55-.45-1-1-1s-1 .45-1 1 .45 1 1 1 1-.45 1-1"/></g><g><path fill="#99aab5" d="M10 28c0-.55-.45-1-1-1s-1 .45-1 1 .45 1 1 1 1-.45 1-1"/></g><path fill="#99aab5" d="M34 2h-4v20h4V2z"/><g><path fill="#99aab5" d="M34 2c0 1.1-.9 2-2 2s-2-.9-2-2 .9-2 2-2 2 .9 2 2"/></g><g><path fill="#99aab5" d="M32 36c1 0 2-1 2-3V17s-7-2-7 8c0 6 3 11 5 11"/></g></g></g></g></svg>