<svg xmlns="http://www.w3.org/2000/svg" viewBox="0 0 45 45" enable-background="new 0 0 45 45"><defs><clipPath id="a"><path d="M0 36h36V0H0v36z"/></clipPath></defs><g><g><g clip-path="url(#a)" transform="matrix(1.25 0 0 -1.25 0 45)"><g><path fill="#939598" d="M36 11c0-5.52-8.06-10-18-10S0 5.48 0 11s8.06 10 18 10 18-4.48 18-10"/></g><g><path fill="#f1f2f2" d="M36 13c0-5.52-8.06-10-18-10S0 7.48 0 13s8.06 10 18 10 18-4.48 18-10"/></g><g><path fill="#fff" d="M32.8 13.4c0-4.2-6.63-7.62-14.8-7.62-8.17 0-14.8 3.4-14.8 7.6C3.2 17.6 9.83 21 18 21c8.17 0 14.8-3.4 14.8-7.6"/></g><g><path fill="#e1e8ed" d="M8 8c0 3.04.42 7.2.04 13.88.6 1.37 6.15 2.47 6.63 3.8 1.28 3.53-1.2 5.9 1.33 8.32 2.05 1.95 5 2 6-1 2 2 6 1 6-2 4 1 6-3 3-6 0-1-1-9-1-11s-.2-1.8-5.2-2.8C19.8 10.2 8 8 8 8"/></g><g><path fill="#ffac33" d="M8 9v12s21 7 21 2.46V13L8 9z"/></g><g><path fill="#ffd983" d="M8 10v10s12.38 4.2 20 4V14L8 10z"/></g><g><path fill="#ffac33" d="M8 15v1l21 4v-1L8 15z"/></g><g><path fill="#e1e8ed" d="M8 22l9 9c2 0 8-1 11-5-9.87-1.98-9.87-1.98-20-4"/></g><g><path fill="#fff" d="M30 26c1 1 1 5-3 4 0 1-2 4-5 2 0 1-5 2-6 0 10-3 14-6 14-6"/></g><g><path fill="#dd2e44" d="M17.96 25.54c-1.83.2-4.42 1.08-3.92 3.5s2.48 4.88 3.75 5.54c1.12.6 2.32.16 3.2-3.25.58-2.25 2.75-5.12-1.67-5.75-.45 0-1.37-.04-1.37-.04"/></g><g><path fill="#f4abba" d="M18.38 30.96c-.16 0-.3.07-.4.2l-.5.67c-.17.22-.13.53.1.7.22.16.53.12.7-.1l.5-.67c.16-.22.12-.54-.1-.7-.1-.07-.2-.1-.3-.1"/></g><g><path fill="#f4abba" d="M15.96 27.46c-.04 0-.1 0-.13 0-.27.08-.43.36-.36.62l.25.96c.07.27.35.43.6.36.28-.07.44-.34.37-.6l-.26-.97c-.06-.22-.26-.37-.48-.37"/></g><g><path fill="#f4abba" d="M20.33 27.38c-.1 0-.18.02-.26.07l-.75.46c-.23.15-.3.46-.16.7.14.23.45.3.68.16l.75-.46c.23-.14.3-.45.16-.7-.1-.14-.26-.23-.43-.23"/></g></g></g></g></svg>