<svg xmlns="http://www.w3.org/2000/svg" viewBox="0 0 45 45" enable-background="new 0 0 45 45"><defs><clipPath id="a"><path d="M0 36h36V0H0v36z"/></clipPath></defs><g><g><g clip-path="url(#a)" transform="matrix(1.25 0 0 -1.25 0 45)"><g><path fill="#fdd888" d="M33 5c0-2.2-1.8-4-4-4H7C4.8 1 3 2.8 3 5v17c0 2.2 1.8 4 4 4h22c2.2 0 4-1.8 4-4V5z"/></g><g><path fill="#fdd888" d="M36 25c0-2.2-1.8-4-4-4H4c-2.2 0-4 1.8-4 4s1.8 4 4 4h28c2.2 0 4-1.8 4-4"/></g><path fill="#fcab40" d="M33 19H3v2h30v-2z"/><g><path fill="#da2f47" d="M19 33h-2c-1.66 0-3-1.34-3-3V1h8v29c0 1.66-1.34 3-3 3"/></g><g><path fill="#da2f47" d="M16 29c1.1 0 1.26.52.36 1.15l-6.72 4.7c-.9.63-2.1.37-2.63-.6l-2-3.5C4.44 29.77 4.9 29 6 29h10z"/></g><g><path fill="#da2f47" d="M20 29c-1.1 0-1.26.52-.36 1.15l6.72 4.7c.9.63 2.1.37 2.63-.6l2-3.5c.55-.97.1-1.75-1-1.75H20z"/></g></g></g></g></svg>