<svg xmlns="http://www.w3.org/2000/svg" viewBox="0 0 45 45" enable-background="new 0 0 45 45"><defs><clipPath id="a"><path d="M0 36h36V0H0v36z"/></clipPath><clipPath id="b"><path d="M18.46 18.73S21.53 5.75 27.76 2c1.04-.62 2.13-.97 2.17-.03.03.77-.04 3-.24 3.74.7-.3 2.4-.62 3.6-.48 1.18.14 2.54 1.58 1.07 1.65-6.33-.32-8.7 13.47-9.23 15.14v.02c-1.3-.6-5.8-2.77-6.68-3.3"/></clipPath><clipPath id="c"><path d="M0 36h36V0H0v36z"/></clipPath></defs><g><g><g clip-path="url(#a)" transform="matrix(1.25 0 0 -1.25 0 45)"><g><path d="M21.3 20.54c-.36 0-.7.2-.88.52-1 1.82-1.4 3.77-1.7 5.34-.07.42-.15.83-.24 1.2-.12.55.22 1.1.76 1.2.54.13 1.07-.2 1.2-.74.08-.4.17-.83.25-1.28.3-1.5.62-3.2 1.47-4.76.26-.48.1-1.1-.4-1.35-.15-.1-.3-.13-.48-.13"/></g><g><path fill="#be1931" d="M18.46 18.73c.87.52 5.38 2.7 6.68 3.3.52-1.7 2.9-15.48 9.23-15.16 1.47-.07.1-1.5-1.08-1.64-1.2-.15-2.9.17-3.6.48.2-.72.26-2.96.23-3.73-.03-.94-1.13-.6-2.17.04-6.23 3.75-9.3 16.73-9.3 16.73"/></g></g></g><g><g clip-path="url(#b)" transform="matrix(1.25 0 0 -1.25 0 45)"><g><path fill="#a0041e" d="M18.2 16.77c.26.14 8.44 3.8 8.44 3.8l-1.26 2.28s-8.15-3.4-8.04-3.4c.1 0 .87-2.68.87-2.68"/></g></g></g><g><g clip-path="url(#c)" transform="matrix(1.25 0 0 -1.25 0 45)"><g><path fill="#ffac33" d="M18.2 18.55c1.15.46 6.2 2.77 7.22 3.26 1 .5.7 2.35-.5 1.93-1.18-.42-6.04-2.76-7.2-3.25-1.15-.5-.38-2.28.5-1.93"/></g><g><path fill="#a6d388" d="M6.2 21.96c-1.9 1.62 4.24 5 7.8 6.13-.26-1.08-5.07-8.48-7.8-6.14"/></g><g><path fill="#a6d388" d="M25.54 31.6c.96 2.3 6.06-2.5 8.22-5.54-1.1-.08-9.6 2.24-8.22 5.55"/></g><g><path fill="#5c913b" d="M3.08.38c-.83 0-1.5.67-1.5 1.5 0 .2 0 .43 0 .73-.1 4.17-.07 16.54 8.42 30.82.42.7 1.06 1.25 1.77.83.7-.42.32-1.37-.1-2.08C3.62 18.63 4.5 6.62 4.57 2.67c0-.32 0-.6 0-.8 0-.82-.66-1.5-1.5-1.5"/></g><g><path fill="#3e721d" d="M2.08 2.96c-.8 0-1.45.6-1.5 1.4-.04.84.6 1.55 1.4 1.6l2.1.12c.82.06 1.53-.58 1.58-1.4.05-.83-.58-1.54-1.4-1.6l-2.1-.12c-.02 0-.05 0-.08 0"/></g><g><path fill="#5c913b" d="M7.7.42c-.1 0-.18 0-.28.02-.8.16-1.34.95-1.18 1.76.03.18.07.45.13.8 3.4 21.3 13.5 28.26 21.8 30.83.8.25 2.1.36 2.35-.43.24-.8-.6-1.28-1.4-1.52-7.47-2.32-16.63-9.58-19.8-29.36-.05-.38-.1-.7-.14-.9C9.04.93 8.4.43 7.7.43"/></g><g><path fill="#3e721d" d="M9.92 27.38c-.2 0-.4.04-.6.12l-2.12.92c-.76.32-1.1 1.2-.8 1.97.34.75 1.23 1.1 2 .77l2.1-.92c.77-.32 1.12-1.2.8-1.97-.25-.57-.8-.9-1.38-.9"/></g><g><path fill="#3e721d" d="M5.46 15.08c-.13 0-.25.02-.38.05l-2.25.58c-.8.22-1.28 1.04-1.07 1.84.2.8 1.02 1.3 1.82 1.08l2.25-.58c.8-.2 1.3-1.03 1.08-1.83-.16-.67-.77-1.12-1.44-1.12"/></g><g><path fill="#3e721d" d="M22.67 27.25c-.48 0-.96.23-1.25.66l-1.3 1.93c-.45.7-.27 1.62.42 2.08.68.47 1.62.3 2.08-.4l1.3-1.9c.45-.7.27-1.63-.4-2.1-.27-.17-.56-.25-.85-.25"/></g><g><path fill="#3e721d" d="M14.66 17.7c-.23 0-.47.06-.7.18l-2.53 1.33c-.74.4-1.02 1.3-.63 2.04.38.73 1.3 1 2.02.63l2.54-1.33c.74-.4 1.02-1.3.64-2.03-.27-.5-.8-.8-1.34-.8"/></g><g><path fill="#3e721d" d="M9.92 6.04c-.13 0-.26.02-.4.05l-2.2.57c-.8.22-1.27 1.04-1.06 1.84.2.8 1.03 1.3 1.83 1.07L10.3 9c.8-.22 1.28-1.04 1.07-1.84-.18-.67-.8-1.12-1.45-1.12"/></g><g><path fill="#a6d388" d="M4.96 20.8C2.7 19.7 2.12 26.7 2.54 30.4c.88-.67 5.67-8.1 2.42-9.63"/></g></g></g></g></svg>