<svg xmlns="http://www.w3.org/2000/svg" viewBox="0 0 45 45" enable-background="new 0 0 45 45"><defs><clipPath id="a"><path d="M0 36h36V0H0v36z"/></clipPath></defs><g><g><g clip-path="url(#a)" transform="matrix(1.25 0 0 -1.25 0 45)"><g><path fill="#662113" d="M22.1 3.17c0-2-1.63-2.7-3.63-2.7s-3.6.7-3.6 2.7l.9 8.14c0 2 .7 1.8 2.7 1.8s2.7.2 2.7-1.8l.92-8.13z"/></g><g><path fill="#5c913b" d="M30.6 8.33c-6.3 5.4-8.85 13.1-12.13 13.1-3.27 0-5.82-7.7-12.12-13.1C3.7 6.06 4.97 4.75 8.6 5c3.23.24 6.25.98 9.87.98 3.62 0 6.65-.74 9.88-.97 3.62-.25 4.88 1.06 2.24 3.33"/></g><g><path fill="#3e721d" d="M28.55 10.46C23.7 14.9 21 21.26 18.47 21.26c-2.52 0-5.24-6.36-10.07-10.8-3.85-3.52 5.04-4.3 10.07 0 5.04-4.3 13.92-3.52 10.08 0"/></g><g><path fill="#5c913b" d="M28.55 14.05C23.7 18.2 21 24.13 18.47 24.13c-2.52 0-5.24-5.93-10.07-10.08-3.85-3.3 5.04-4.03 10.07 0 5.04-4.03 13.92-3.3 10.08 0"/></g><g><path fill="#3e721d" d="M26.34 17c-3.78 3.23-5.9 7.87-7.87 7.87-1.96 0-4.1-4.64-7.86-7.87-3-2.57 3.94-3.15 7.87 0 3.93-3.15 10.87-2.57 7.87 0"/></g><g><path fill="#5c913b" d="M26.34 19.7c-3.78 3.22-5.9 7.86-7.87 7.86-1.96 0-4.1-4.64-7.86-7.87-3-2.58 3.94-3.16 7.87 0 3.93-3.16 10.87-2.58 7.87 0"/></g><g><path fill="#3e721d" d="M24.82 22.08c-3.05 2.6-4.76 6.35-6.35 6.35-1.58 0-3.3-3.74-6.35-6.35-2.42-2.08 3.18-2.54 6.35 0 3.17-2.54 8.77-2.08 6.35 0"/></g><g><path fill="#5c913b" d="M24.82 24.1c-3.05 2.62-4.76 6.36-6.35 6.36-1.58 0-3.3-3.74-6.35-6.35-2.42-2.07 3.18-2.53 6.35 0 3.17-2.53 8.77-2.07 6.35 0"/></g><g><path fill="#3e721d" d="M23.3 27.1c-2.32 1.97-3.62 4.82-4.83 4.82-1.2 0-2.5-2.85-4.83-4.83-1.84-1.6 2.42-1.94 4.83 0 2.42-1.94 6.67-1.6 4.83 0"/></g><g><path fill="#5c913b" d="M23.3 28.17C20.98 30.15 19.68 33 18.47 33c-1.2 0-2.5-2.85-4.83-4.83-1.84-1.58 2.42-1.93 4.83 0 2.42-1.93 6.67-1.58 4.83 0"/></g><g><path fill="#ffcc4d" d="M18 23.96c0-.83-.67-1.5-1.5-1.5s-1.5.67-1.5 1.5.67 1.5 1.5 1.5 1.5-.67 1.5-1.5"/></g><g><path fill="#ffcc4d" d="M22 11c0-1.1-.9-2-2-2s-2 .9-2 2 .9 2 2 2 2-.9 2-2"/></g><g><path fill="#dd2e44" d="M25 20.5c0-1.38-1.12-2.5-2.5-2.5S20 19.12 20 20.5s1.12 2.5 2.5 2.5 2.5-1.12 2.5-2.5"/></g><g><path fill="#dd2e44" d="M12 10c0-1.1-.9-2-2-2s-2 .9-2 2 .9 2 2 2 2-.9 2-2"/></g><g><path fill="#a6d388" d="M16 17c0-1.1-.9-2-2-2s-2 .9-2 2 .9 2 2 2 2-.9 2-2"/></g><g><path fill="#a6d388" d="M28 13c0-1.1-.9-2-2-2s-2 .9-2 2 .9 2 2 2 2-.9 2-2"/></g><g><path fill="#ffac33" d="M19.38 34.32c.14-.27.5-.55.82-.6l1.37-.28c.3-.06.38-.3.16-.5l-.98-1c-.22-.24-.36-.67-.33-.98l.17-1.4c.03-.3-.16-.44-.44-.3l-1.26.62c-.28.14-.74.15-1.02 0l-1.27-.58c-.28-.13-.47 0-.43.32l.2 1.4c.06.3-.08.74-.3.97l-.95 1c-.2.24-.14.47.17.52l1.38.24c.3.05.68.3.83.58l.7 1.23c.14.28.38.27.53 0l.65-1.25z"/></g></g></g></g></svg>