<svg xmlns="http://www.w3.org/2000/svg" viewBox="0 0 45 45" enable-background="new 0 0 45 45"><defs><clipPath id="a"><path d="M0 36h36V0H0v36z"/></clipPath><clipPath id="b"><path d="M10 15c-2.2 0-3-1.8-3-4V7c0-2.2.8-4 3-4h25c2.2 0-4 3.8-4 6s6.2 6 4 6H10z"/></clipPath><clipPath id="c"><path d="M0 36h36V0H0v36z"/></clipPath><clipPath id="d"><path d="M10 31c-2.2 0-3-1.8-3-4v-4c0-2.2.8-4 3-4h25c2.2 0-4 3.8-4 6s6.2 6 4 6H10z"/></clipPath></defs><g><path fill="#ccd6dd" d="M3.75 45h2.5V3.75h-2.5V45z"/><g><g clip-path="url(#a)" transform="matrix(1.25 0 0 -1.25 0 45)"><g><path fill="#f4900c" d="M7 33c0-1.66-1.34-3-3-3s-3 1.34-3 3 1.34 3 3 3 3-1.34 3-3"/></g><g><path fill="#66757f" d="M9 8H4c-.55 0-1 .45-1 1s.45 1 1 1h5c.55 0 1-.45 1-1s-.45-1-1-1"/></g><g><path fill="#dd2e44" d="M27 14c0-1.66-2.46-3-5.5-3S16 12.34 16 14s.46 4 3.5 4 7.5-2.34 7.5-4"/></g><g><path fill="#dd2e44" d="M31 9c0-2.2 6.2-6 4-6H10C7.8 3 7 4.8 7 7v4c0 2.2.8 4 3 4h25c2.2 0-4-3.8-4-6"/></g><g><path fill="#fff" d="M15 11c0-1.66-1.34-3-3-3s-3 1.34-3 3 1.34 3 3 3 3-1.34 3-3"/></g><g><path d="M13 11.5c0-.83-.67-1.5-1.5-1.5s-1.5.67-1.5 1.5.67 1.5 1.5 1.5 1.5-.67 1.5-1.5"/></g></g></g><g><g clip-path="url(#b)" transform="matrix(1.25 0 0 -1.25 0 45)"><g><path fill="#f4abba" d="M15 16c2-2 7-7 0-14 4-1 10-1.46 16-1 6 .46 6 4.75 6 7.2 0 2.47 6 7.8-1 8.8-7 1-21-1-21-1"/></g></g></g><g><g clip-path="url(#c)" transform="matrix(1.25 0 0 -1.25 0 45)"><g><path fill="#66757f" d="M9 24H4c-.55 0-1 .45-1 1s.45 1 1 1h5c.55 0 1-.45 1-1s-.45-1-1-1"/></g><g><path fill="#55acee" d="M27 30c0-1.66-2.46-3-5.5-3S16 28.34 16 30s.46 4 3.5 4 7.5-2.34 7.5-4"/></g><g><path fill="#55acee" d="M31 25c0-2.2 6.2-6 4-6H10c-2.2 0-3 1.8-3 4v4c0 2.2.8 4 3 4h25c2.2 0-4-3.8-4-6"/></g><g><path fill="#fff" d="M15 27c0-1.66-1.34-3-3-3s-3 1.34-3 3 1.34 3 3 3 3-1.34 3-3"/></g><g><path d="M13 27.5c0-.83-.67-1.5-1.5-1.5s-1.5.67-1.5 1.5.67 1.5 1.5 1.5 1.5-.67 1.5-1.5"/></g></g></g><g><g clip-path="url(#d)" transform="matrix(1.25 0 0 -1.25 0 45)"><g><path fill="#bbddf5" d="M15 32c2-2 7-7 0-14 4-1 10-1.46 16-1 6 .46 6 4.75 6 7.2 0 2.47 6 7.8-1 8.8-7 1-21-1-21-1"/></g></g></g></g></svg>