<?xml version="1.0" encoding="UTF-8" standalone="no"?><svg xmlns:dc="http://purl.org/dc/elements/1.1/" xmlns:cc="http://creativecommons.org/ns#" xmlns:rdf="http://www.w3.org/1999/02/22-rdf-syntax-ns#" xmlns:svg="http://www.w3.org/2000/svg" xmlns="http://www.w3.org/2000/svg" viewBox="0 0 45 45" style="enable-background:new 0 0 45 45;" xml:space="preserve" version="1.1" id="svg2"><metadata id="metadata8"><rdf:RDF><cc:Work rdf:about=""><dc:format>image/svg+xml</dc:format><dc:type rdf:resource="http://purl.org/dc/dcmitype/StillImage"/></cc:Work></rdf:RDF></metadata><defs id="defs6"><clipPath id="clipPath16" clipPathUnits="userSpaceOnUse"><path id="path18" d="M 0,36 36,36 36,0 0,0 0,36 Z"/></clipPath></defs><g transform="matrix(1.25,0,0,-1.25,0,45)" id="g10"><g id="g12"><g clip-path="url(#clipPath16)" id="g14"><g transform="translate(36,10)" id="g20"><path id="path22" style="fill:#8899a6;fill-opacity:1;fill-rule:nonzero;stroke:none" d="m 0,0 c 0,-5.522 -8.059,-10 -18,-10 -9.941,0 -18,4.478 -18,10 0,5.522 8.059,10 18,10 C -8.059,10 0,5.522 0,0"/></g><g transform="translate(36,11.75)" id="g24"><path id="path26" style="fill:#ccd6dd;fill-opacity:1;fill-rule:nonzero;stroke:none" d="m 0,0 c 0,-5.522 -8.059,-10 -18,-10 -9.941,0 -18,4.478 -18,10 0,5.522 8.059,10 18,10 C -8.059,10 0,5.522 0,0"/></g><g transform="translate(32.6748,12.3154)" id="g28"><path id="path30" style="fill:#dd2e44;fill-opacity:1;fill-rule:nonzero;stroke:none" d="m 0,0 c 0,-4.26 -6.57,-7.712 -14.675,-7.712 -8.105,0 -14.675,3.452 -14.675,7.712 0,4.258 6.57,7.711 14.675,7.711 C -6.57,7.711 0,4.258 0,0"/></g><g transform="translate(32.2334,13.457)" id="g32"><path id="path34" style="fill:#f4abba;fill-opacity:1;fill-rule:nonzero;stroke:none" d="m 0,0 c 0,-9.854 -28.467,-9.854 -28.467,0 l 0,8.759 L 0,8.759 0,0 Z"/></g><g transform="translate(17.9844,17.8345)" id="g36"><path id="path38" style="fill:#dd2e44;fill-opacity:1;fill-rule:nonzero;stroke:none" d="m 0,0 c -8.984,0 -14.218,4.132 -14.218,4.132 0,0 -0.016,-0.925 -0.016,-1.685 0,0 0.032,-4.899 2.571,-4.899 2.46,0 2.281,-2.346 3.835,-2.59 1.541,-0.242 1.712,0.938 3.625,0.938 1.912,0 2.25,-2.105 4.203,-2.105 2.289,0 2.477,2.105 4.39,2.105 1.912,0 2.131,-1.224 3.385,-0.885 1.507,0.408 0.815,2.537 3.887,2.537 2.54,0 2.604,4.649 2.604,4.649 0,0.76 -0.017,1.935 -0.017,1.935 C 14.249,4.132 8.984,0 0,0"/></g><g transform="translate(32.6748,23.2632)" id="g40"><path id="path42" style="fill:#ea596e;fill-opacity:1;fill-rule:nonzero;stroke:none" d="m 0,0 c 0,-4.258 -6.57,-7.711 -14.675,-7.711 -8.105,0 -14.675,3.453 -14.675,7.711 0,4.259 6.57,7.712 14.675,7.712 C -6.57,7.712 0,4.259 0,0"/></g><g transform="translate(25.6641,22.2163)" id="g44"><path id="path46" style="fill:#fff8e8;fill-opacity:1;fill-rule:nonzero;stroke:none" d="m 0,0 c -0.605,0 -1.095,0.49 -1.095,1.095 l 0,7.664 c 0,0.604 0.49,1.095 1.095,1.095 0.605,0 1.095,-0.491 1.095,-1.095 l 0,-7.664 C 1.095,0.49 0.605,0 0,0"/></g><g transform="translate(25.6641,29.3325)" id="g48"><path id="path50" style="fill:#faaa35;fill-opacity:1;fill-rule:nonzero;stroke:none" d="m 0,0 c -1.162,0 -2.076,0.532 -2.445,1.423 -0.32,0.773 -0.479,2.45 2.058,4.986 0.214,0.214 0.56,0.214 0.774,0 C 2.924,3.873 2.765,2.196 2.445,1.423 2.076,0.532 1.162,0 0,0"/></g><g transform="translate(18,18.9316)" id="g52"><path id="path54" style="fill:#fff8e8;fill-opacity:1;fill-rule:nonzero;stroke:none" d="m 0,0 c -0.604,0 -1.095,0.49 -1.095,1.095 l 0,7.664 c 0,0.604 0.491,1.095 1.095,1.095 0.604,0 1.095,-0.491 1.095,-1.095 l 0,-7.664 C 1.095,0.49 0.604,0 0,0"/></g><g transform="translate(18,26.0483)" id="g56"><path id="path58" style="fill:#faaa35;fill-opacity:1;fill-rule:nonzero;stroke:none" d="m 0,0 c -1.162,0 -2.076,0.532 -2.445,1.422 -0.321,0.773 -0.479,2.45 2.058,4.987 0.214,0.214 0.56,0.214 0.774,0 C 2.924,3.872 2.765,2.195 2.445,1.422 2.076,0.532 1.162,0 0,0"/></g><g transform="translate(10.3359,22.2163)" id="g60"><path id="path62" style="fill:#fff8e8;fill-opacity:1;fill-rule:nonzero;stroke:none" d="m 0,0 c -0.604,0 -1.095,0.49 -1.095,1.095 l 0,7.664 c 0,0.604 0.491,1.095 1.095,1.095 0.604,0 1.095,-0.491 1.095,-1.095 l 0,-7.664 C 1.095,0.49 0.604,0 0,0"/></g><g transform="translate(10.3359,29.3325)" id="g64"><path id="path66" style="fill:#faaa35;fill-opacity:1;fill-rule:nonzero;stroke:none" d="m 0,0 c -1.162,0 -2.076,0.532 -2.445,1.423 -0.321,0.773 -0.479,2.45 2.058,4.986 0.214,0.214 0.56,0.214 0.774,0 C 2.924,3.873 2.766,2.196 2.445,1.423 2.076,0.532 1.162,0 0,0"/></g></g></g></g></svg>
