<svg xmlns="http://www.w3.org/2000/svg" viewBox="0 0 45 45" enable-background="new 0 0 45 45"><defs><clipPath id="a"><path d="M0 36h36V0H0v36z"/></clipPath></defs><g><g><g clip-path="url(#a)" transform="matrix(1.25 0 0 -1.25 0 45)"><g><path fill="#77b255" d="M32 5.47C32 3 29.97 1 27.5 1S23 3 23 5.47V17.4c0 2.48 2.03 5.6 4.5 5.6s4.5-3.12 4.5-5.6V5.48z"/></g><g><path fill="#ffe8b6" d="M21.46 30.4c0-2.2-1.34-3.97-3-3.97-1.64 0-2.97 1.78-2.97 3.98s1.32 4 2.97 4c1.65 0 3-1.8 3-4"/></g><g><path fill="#77b255" d="M23 5.47C23 3 20.97 1 18.5 1S14 3 14 5.47V30.4c0 2.48 2.03 5.6 4.5 5.6s4.5-3.12 4.5-5.6V5.48z"/></g><g><path fill="#ffe8b6" d="M21.46 30.4c0-2.2-1.34-3.97-3-3.97-1.64 0-2.97 1.78-2.97 3.98s1.32 4 2.97 4c1.65 0 3-1.8 3-4"/></g><g><path fill="#ffe8b6" d="M30.46 17.4c0-2.2-1.34-3.97-3-3.97-1.64 0-2.97 1.78-2.97 3.98s1.32 4 2.97 4c1.65 0 3-1.8 3-4"/></g><g><path fill="#77b255" d="M14 5.47C14 3 11.97 1 9.5 1S5 3 5 5.47V24.4C5 26.9 7.03 30 9.5 30s4.5-3.12 4.5-5.6V5.48z"/></g><g><path fill="#ffe8b6" d="M12.46 24.4c0-2.2-1.34-3.97-3-3.97-1.64 0-2.97 1.78-2.97 3.98s1.32 4 2.97 4c1.65 0 3-1.8 3-4"/></g><g><path fill="#5c913b" d="M24 14c0-.55-.45-1-1-1h-9c-.55 0-1 .45-1 1s.45 1 1 1h9c.55 0 1-.45 1-1"/></g><g><path fill="#5c913b" d="M24 22c0-.55-.45-1-1-1h-9c-.55 0-1 .45-1 1s.45 1 1 1h9c.55 0 1-.45 1-1"/></g><g><path fill="#5c913b" d="M15 18c0-.55-.45-1-1-1H5c-.55 0-1 .45-1 1s.45 1 1 1h9c.55 0 1-.45 1-1"/></g><g><path fill="#d99e82" d="M35 3.5C35 2.12 33.88 1 32.5 1h-28C3.12 1 2 2.12 2 3.5S3.12 6 4.5 6h28C33.88 6 35 4.88 35 3.5"/></g><g><path fill="#5c913b" d="M31 9s-1.23.56-3.27 1.18c-.65-1.43-1.3-2.8-1.56-3.43-.52-1.27-1.13-.88-.93.17.1.53.46 2.6.74 3.73-2 .48-4.45.9-7.16 1-.15-1.73-.4-3.23-.5-4.15-.1-1.42-1.5-1.33-1.6-.04-.08.7-.18 2.68-.27 4.17-2.03-.1-4.15-.4-6.3-1.02.1-1 .3-2.87.4-3.52.18-1.47-.56-1.08-.84-.3-.17.52-.8 2.23-1.26 3.27C7.64 9.75 6.8 9.4 6 9 4 8 2 6 2 5V4h33v1c0 1-2 3-4 4"/></g></g></g></g></svg>