<svg xmlns="http://www.w3.org/2000/svg" viewBox="0 0 45 45" enable-background="new 0 0 45 45"><defs><clipPath id="a"><path d="M0 36h36V0H0v36z"/></clipPath></defs><g><g><g clip-path="url(#a)" transform="matrix(1.25 0 0 -1.25 0 45)"><g><path fill="#dd2e44" d="M11.63 28.5c-.12-.1-.2-.24-.27-.38L.12 2.86h.02C-.05 2.45.3 1.62 1 .9 1.7.2 2.53-.14 2.93.07l25.28 11.2c.15.08.28.17.4.28 1.56 1.56-.97 6.63-5.66 11.3-4.7 4.7-9.75 7.23-11.3 5.67"/></g><g><path fill="#ea596e" d="M13 24L.42 3.5l-.3-.64h.03C-.05 2.45.3 1.62 1 .9c.23-.22.47-.4.7-.54L17 19l-4 5z"/></g><g><path fill="#a0041e" d="M23 22.93c4.68-4.67 7.27-9.65 5.8-11.12-1.47-1.46-6.45 1.13-11.13 5.8-4.67 4.67-7.26 9.65-5.8 11.12 1.5 1.48 6.47-1.1 11.14-5.8"/></g><g><path fill="#aa8dd8" d="M18.6 22.4c-.2-.17-.47-.25-.74-.22-.87.1-1.6.4-2.1.87-.55.5-.82 1.18-.75 1.86.14 1.2 1.34 2.3 3.37 2.08.8-.1 1.15.17 1.16.3.02.1-.27.43-1.07.52-.87.1-1.6.4-2.1.87-.55.5-.82 1.2-.74 1.86.13 1.2 1.32 2.3 3.36 2.07.58-.06.88.06 1 .13s.16.13.16.16c0 .1-.28.44-1.07.52-.55.06-.95.56-.9 1.1.07.55.56.95 1.1.9 2.05-.23 3-1.55 2.86-2.74-.13-1.2-1.33-2.3-3.36-2.07-.58.07-.88-.05-1-.12-.12-.07-.16-.13-.16-.16 0-.12.28-.45 1.08-.53 2.03-.23 2.97-1.55 2.84-2.75-.13-1.2-1.32-2.28-3.36-2.06-.58.05-.88-.07-1-.15-.12-.06-.16-.12-.16-.15 0-.13.28-.45 1.07-.54.55-.06.95-.55.9-1.1-.04-.27-.18-.5-.38-.67"/></g><g><path fill="#77b255" d="M30.66 13.14c1.97.56 3.34-.32 3.66-1.48.32-1.15-.38-2.6-2.35-3.16-.77-.22-1-.6-.97-.7.03-.12.43-.32 1.2-.1 1.97.55 3.33-.33 3.65-1.48.33-1.16-.38-2.6-2.35-3.17-.77-.22-1-.6-.97-.7.04-.12.43-.3 1.2-.1.53.15 1.08-.16 1.23-.7.15-.52-.16-1.07-.7-1.22-1.96-.56-3.33.32-3.65 1.48-.32 1.16.4 2.62 2.36 3.18.77.2 1 .58.97.7-.04.1-.43.3-1.2.1-1.97-.56-3.33.32-3.65 1.47-.33 1.16.37 2.62 2.35 3.17.77.22 1 .6.96.7-.04.12-.43.32-1.2.1-.53-.15-1.08.16-1.23.7-.15.52.16 1.07.7 1.22"/></g><g><path fill="#aa8dd8" d="M23 15.84c-.3 0-.58.13-.78.37-.35.45-.28 1.08.16 1.42.2.18 5.4 4.26 12.76 3.2.55-.07.93-.58.85-1.12-.1-.55-.6-.93-1.14-.85-6.5.92-11.2-2.75-11.24-2.8-.18-.14-.4-.2-.62-.2"/></g><g><path fill="#77b255" d="M5.75 20c-.1 0-.2 0-.28.04-.53.16-.83.72-.67 1.25 1.13 3.76 2.16 9.78.9 11.35-.15.18-.36.35-.85.32C3.9 32.9 4 30.92 4 30.9c.05-.56-.37-1.04-.92-1.08-.56-.03-1.03.38-1.07.93-.1 1.38.34 4.03 2.7 4.2 1.06.1 1.93-.28 2.55-1.05 2.38-2.95-.03-11.5-.54-13.2-.12-.42-.52-.7-.95-.7"/></g><g><path fill="#5c913b" d="M27 26.5c0-.83-.67-1.5-1.5-1.5s-1.5.67-1.5 1.5.67 1.5 1.5 1.5 1.5-.67 1.5-1.5"/></g><g><path fill="#9266cc" d="M4 18c0-1.1-.9-2-2-2s-2 .9-2 2 .9 2 2 2 2-.9 2-2"/></g><g><path fill="#5c913b" d="M34 16.5c0-.83-.67-1.5-1.5-1.5s-1.5.67-1.5 1.5.67 1.5 1.5 1.5 1.5-.67 1.5-1.5"/></g><g><path fill="#5c913b" d="M25 4.5c0-.83-.67-1.5-1.5-1.5S22 3.67 22 4.5 22.67 6 23.5 6 25 5.33 25 4.5"/></g><g><path fill="#ffcc4d" d="M30 32c0-1.1-.9-2-2-2s-2 .9-2 2 .9 2 2 2 2-.9 2-2"/></g><g><path fill="#ffcc4d" d="M34 27.5c0-.83-.67-1.5-1.5-1.5s-1.5.67-1.5 1.5.67 1.5 1.5 1.5 1.5-.67 1.5-1.5"/></g><g><path fill="#ffcc4d" d="M31 23.5c0-.83-.67-1.5-1.5-1.5s-1.5.67-1.5 1.5.67 1.5 1.5 1.5 1.5-.67 1.5-1.5"/></g><g><path fill="#ffcc4d" d="M9 12.5c0-.83-.67-1.5-1.5-1.5S6 11.67 6 12.5 6.67 14 7.5 14 9 13.33 9 12.5"/></g></g></g></g></svg>