<svg xmlns="http://www.w3.org/2000/svg" viewBox="0 0 45 45" enable-background="new 0 0 45 45"><defs><clipPath id="a"><path d="M0 36h36V0H0v36z"/></clipPath><clipPath id="b"><path d="M27 17h-4c-1.65 0-4-3.58-4-7V4c0-1.65 1.35-3 3-3h10c1.65 0 3 1.35 3 3v6c0 3.42-2.35 7-4 7h-4z"/></clipPath><clipPath id="c"><path d="M0 36h36V0H0v36z"/></clipPath><clipPath id="d"><path d="M9 17H5c-1.65 0-4-3.58-4-7V4c0-1.65 1.35-3 3-3h10c1.65 0 3 1.35 3 3v6c0 3.42-2.35 7-4 7H9z"/></clipPath><clipPath id="e"><path d="M0 36h36V0H0v36z"/></clipPath></defs><g><g><g clip-path="url(#a)" transform="matrix(1.25 0 0 -1.25 0 45)"><g><path fill="#f26522" d="M31 17h-8c-1.65 0-4-3.58-4-7V4c0-1.65 1.35-3 3-3h10c1.65 0 3 1.35 3 3v6c0 3.42-2.35 7-4 7"/></g></g></g><g><g clip-path="url(#b)" transform="matrix(1.25 0 0 -1.25 0 45)"><g><path fill="#d14a15" d="M23 16c0-2-.2-4 3-5V7c0-2.22-2.27-4-7-4V1h16v2c-4.73 0-7 1.78-7 4v4c3.2 1 3 3 3 5h-8z"/></g></g></g><g><g clip-path="url(#c)" transform="matrix(1.25 0 0 -1.25 0 45)"><g><path fill="#27aae1" d="M13 17H5c-1.65 0-4-3.58-4-7V4c0-1.65 1.35-3 3-3h10c1.65 0 3 1.35 3 3v6c0 3.42-2.35 7-4 7"/></g></g></g><g><g clip-path="url(#d)" transform="matrix(1.25 0 0 -1.25 0 45)"><g><path fill="#005792" d="M5 16c0-2-.2-4 3-5V7c0-2.22-2.27-4-7-4V1h16v2c-4.73 0-7 1.78-7 4v4c3.2 1 3 3 3 5H5z"/></g></g></g><g><g clip-path="url(#e)" transform="matrix(1.25 0 0 -1.25 0 45)"><g><path fill="#ffcc4d" d="M27 14c-4.53 0-6-3-6-3l6-4 6 4s-1.47 3-6 3"/></g><g><path fill="#292f33" d="M35 24v-6c0-3-5.7 0-7.5 0-1.98 0-8.5-3-8.5 0v6c0 4.42 3.58 8 8 8s8-3.58 8-8"/></g><g><path fill="#f5f8fa" d="M33 22c0-3-.4-7-6-7s-6 3-6 7c3.03 0 6 2 6 2s3.03-2 6-2"/></g><g><path fill="#292f33" d="M31.6 19.64c-.9.14-2.45.47-3.3-.32-.37-.26-.1-1 .56-.68.67.3 2.18.4 2.8.43.6.04.6.46-.06.57"/></g><g><path fill="#292f33" d="M22.44 19.64c.9.14 2.45.47 3.3-.32.37-.26.1-1-.56-.68-.67.3-2.18.4-2.8.43-.6.04-.6.46.06.57"/></g><g><path fill="#f26522" d="M32.02 29.74c0 1.25-2.24 2.26-5 2.26s-5-1-5-2.26c0-.6 2.88-1.16 5-1.57 2.12.4 5 .96 5 1.57"/></g><g><path fill="#d14a15" d="M27 30c-.55 0-1 .45-1 1v3c0 .55.45 1 1 1s1-.45 1-1v-3c0-.55-.45-1-1-1"/></g><g><path fill="#d14a15" d="M24 30c-.26 0-.5.1-.7.3l-2 2c-.4.38-.4 1.02 0 1.4.38.4 1.02.4 1.4 0l2-2c.4-.38.4-1.02 0-1.4-.2-.2-.44-.3-.7-.3"/></g><g><path fill="#d14a15" d="M30 30c-.26 0-.5.1-.7.3-.4.38-.4 1.02 0 1.4l2 2c.38.4 1.02.4 1.4 0 .4-.38.4-1.02 0-1.4l-2-2c-.2-.2-.44-.3-.7-.3"/></g><g><path fill="#a0041e" d="M25.52 16.7c0-.3.67-.53 1.5-.53s1.5.24 1.5.53c0 .3-.67.53-1.5.53s-1.5-.23-1.5-.53"/></g><g><path fill="#292f33" d="M17 23v-3c0-3-6.2-3-8-3-1.98 0-8 0-8 3v3c0 4.42 3.58 6 8 6s8-1.58 8-6"/></g><g><path fill="#f5f8fa" d="M3 23v-1c0-4 .4-7 6-7s6 4 6 7v1H3z"/></g><g><path fill="#292f33" d="M13.6 19.64c-.9.14-2.45.47-3.3-.32-.37-.26-.1-1 .56-.68.67.3 2.18.4 2.8.43.6.04.6.46-.06.57"/></g><g><path fill="#292f33" d="M4.44 19.64c.9.14 2.45.47 3.3-.32.37-.26.1-1-.56-.68-.67.3-2.18.4-2.8.43-.6.04-.6.46.06.57"/></g><g><path fill="#a0041e" d="M7.52 16.7c0-.3.67-.53 1.5-.53s1.5.24 1.5.53c0 .3-.67.53-1.5.53s-1.5-.23-1.5-.53"/></g><g><path fill="#d14a15" d="M28.56 34c0-.86-.7-1.56-1.56-1.56-.86 0-1.56.7-1.56 1.56 0 .86.7 1.56 1.56 1.56.86 0 1.56-.7 1.56-1.56"/></g><g><path fill="#d14a15" d="M23.56 33c0-.86-.7-1.56-1.56-1.56-.86 0-1.56.7-1.56 1.56 0 .86.7 1.56 1.56 1.56.86 0 1.56-.7 1.56-1.56"/></g><g><path fill="#d14a15" d="M33.56 33c0-.86-.7-1.56-1.56-1.56-.86 0-1.56.7-1.56 1.56 0 .86.7 1.56 1.56 1.56.86 0 1.56-.7 1.56-1.56"/></g><g><path fill="#bbddf5" d="M5 9c0-.55-.45-1-1-1s-1 .45-1 1 .45 1 1 1 1-.45 1-1"/></g><g><path fill="#bbddf5" d="M15 6c0-.55-.45-1-1-1s-1 .45-1 1 .45 1 1 1 1-.45 1-1"/></g><g><path fill="#ffb699" d="M23 6c0-.55-.45-1-1-1s-1 .45-1 1 .45 1 1 1 1-.45 1-1"/></g><g><path fill="#ffb699" d="M33 6c0-.55-.45-1-1-1s-1 .45-1 1 .45 1 1 1 1-.45 1-1"/></g><g><path fill="#ffcc4d" d="M10.18 14.12H7.82c-.48 0-.93-.32-.85-.98L8.12 3c.1-.52.4-.8.88-.8s.78.28.88.8l1.15 10.14c.08.66-.36.98-.85.98"/></g><g><path fill="#292f33" d="M16 23.85c0-1-3.13-1.83-7-1.83s-7 .82-7 1.83c0 1 3.13 1.83 7 1.83s7-.82 7-1.83"/></g><g><path fill="#26aae1" d="M12.13 28.13c0-3.46-6.26-3.46-6.26 0S7.28 35 9 35s3.13-3.4 3.13-6.87"/></g></g></g></g></svg>