<svg xmlns="http://www.w3.org/2000/svg" viewBox="0 0 45 45" enable-background="new 0 0 45 45"><defs><clipPath id="a"><path d="M0 36h36V0H0v36z"/></clipPath></defs><g><g><g clip-path="url(#a)" transform="matrix(1.25 0 0 -1.25 0 45)"><g><path fill="#f18f26" d="M18 31h6c7 0 11-7.9 11-16C35 0 26 0 18 0S1 0 1 15c0 9.96 6 16 11 16h6"/></g><g><path fill="#642116" d="M26.97 11.63c-.03-.67-.35-1.4-.97-2.13-1.6-1.87-3.4-1.48-4.04.82-1.22-.2-2.55-.32-3.96-.32-7 0-12 3-12 3 0-2.67 1-4.44 2.46-5.62.15.32.35.63.64.92 1.48 1.48 3.1.67 3.6-1.8.08-.4.1-.73.1-1.06C14.85 5 16.86 5 18 5c3 0 12 0 12 8 0 0-1.12-.67-3.03-1.37"/></g><g><path fill="#3f7123" d="M20.87 30.76c.07-.42-.22-.76-.64-.76h-4.46c-.42 0-.7.34-.64.76l.74 4.48c.07.42.48.76.9.76h2.46c.42 0 .83-.34.9-.76l.74-4.48z"/></g><g><path fill="#5c913b" d="M16 30s2 5 8 5c5 0 7-5 7-5H16z"/></g><g><path fill="#642116" d="M8.7 24.9c.78 1.47 2.08 1.47 2.88 0l2.16-4.04c.8-1.48-.3-2.7-2.44-2.7H8.97c-2.14 0-3.24 1.22-2.44 2.7L8.7 24.9z"/></g><g><path fill="#642116" d="M24.42 24.9c.8 1.47 2.1 1.47 2.9 0l2.15-4.04c.8-1.48-.3-2.7-2.44-2.7H24.7c-2.14 0-3.24 1.22-2.44 2.7l2.16 4.03z"/></g><g><path fill="#642116" d="M19.2 13.04c-.6-1.1-1.55-1.1-2.13 0l-1.6 2.98c-.6 1.1.23 1.98 1.8 1.98H19c1.57 0 2.38-.9 1.8-1.98l-1.6-2.98z"/></g></g></g></g></svg>