<svg xmlns="http://www.w3.org/2000/svg" viewBox="0 0 45 45" enable-background="new 0 0 45 45"><defs><clipPath id="a"><path d="M0 36h36V0H0v36z"/></clipPath></defs><g><g><g clip-path="url(#a)" transform="matrix(1.25 0 0 -1.25 0 45)"><g><path fill="#1c6399" d="M13.2 27.38S14.74 29 18 29s4.95-1.7 4.95-1.7l.2-.13s1.9 3.6.5 6.66c-1.06.7-3 1.67-5.65 1.67-2.55 0-4.45-.9-5.54-1.6-1.5-3.06.5-6.65.5-6.65l.23.13z"/></g><g><path fill="#1c6399" d="M11.44 33.15s-.04-.04-.04-.04c0 .02.03.03.04.04"/></g><g><path fill="#50a5e6" d="M28.38 8.32c-.06.07-3.02 3.58-6.27 7.5-1.15-1.68-2.57-3.73-4-5.78C21.34 5.4 24.54.8 24.6.7c.08-.12.24-.2.4-.2.02 0 .03 0 .05 0 .18.02.34.14.4.3l3 7c.08.18.05.38-.07.52"/></g><g><path fill="#50a5e6" d="M14.04 25.9c-.34.5-.6 1-.85 1.48-1.03 2.07-1.13 3.85-.95 5.33.06.5.15.92.2 1.2-.58-.37-.92-.67-1-.75-.02-.02-.04-.03-.05-.04-2.12-1.7-3.24-3.9-3.24-6.35 0-2.47 1.7-4.78 3.23-7.04.1-.15 1.2-1.72 2.7-3.9 1.36 1.64 2.75 3.34 4 4.88-1.87 2.32-3.44 4.3-4.06 5.22"/></g><g><path fill="#2b7bb9" d="M24.68 33.03l-.08.08c-.04.04-.37.35-.94.73.06-.3.15-.73.22-1.24.17-1.48.08-3.23-.93-5.3-.24-.48-.5-1-.87-1.5-.6-.9-2.13-2.85-3.97-5.12-1.25-1.54-2.64-3.24-4-4.88-3.28-3.95-6.3-7.52-6.36-7.6-.12-.14-.15-.34-.08-.5l3-7c.08-.18.23-.3.4-.3.03-.02.05-.02.06-.02.17 0 .32.08.4.22.07.07 3.32 4.75 6.58 9.44 1.43 2.05 2.85 4.1 4 5.77 1.48 2.12 2.53 3.64 2.63 3.8 1.52 2.25 3.24 4.57 3.24 7.03 0 2.48-1.14 4.7-3.3 6.4"/></g></g></g></g></svg>