<svg xmlns="http://www.w3.org/2000/svg" viewBox="0 0 45 45" enable-background="new 0 0 45 45"><g><path fill="#bbddf5" d="M36.25 31.25h7.5v-17.5h-7.5v17.5z"/><path fill="#bbddf5" d="M1.25 31.25h7.5v-17.5h-7.5v17.5z"/><path fill="#bbddf5" d="M11.25 31.25h22.5v-17.5h-22.5v17.5z"/><path fill="#231f20" d="M33.75 31.25h-22.5v-17.5h22.5v17.5zm10-17.5V7.5H1.25v6.25h7.5v17.5h-7.5v6.25h42.5v-6.25h-7.5v-17.5h7.5z"/><path fill="#f5f8fa" d="M38.75 12.5h2.5V8.75h-2.5v3.75z"/><path fill="#f5f8fa" d="M33.75 12.5h2.5V8.75h-2.5v3.75z"/><path fill="#f5f8fa" d="M28.75 12.5h2.5V8.75h-2.5v3.75z"/><path fill="#f5f8fa" d="M23.75 12.5h2.5V8.75h-2.5v3.75z"/><path fill="#f5f8fa" d="M18.75 12.5h2.5V8.75h-2.5v3.75z"/><path fill="#f5f8fa" d="M13.75 12.5h2.5V8.75h-2.5v3.75z"/><path fill="#f5f8fa" d="M8.75 12.5h2.5V8.75h-2.5v3.75z"/><path fill="#f5f8fa" d="M3.75 12.5h2.5V8.75h-2.5v3.75z"/><path fill="#f5f8fa" d="M38.75 36.25h2.5V32.5h-2.5v3.75z"/><path fill="#f5f8fa" d="M33.75 36.25h2.5V32.5h-2.5v3.75z"/><path fill="#f5f8fa" d="M28.75 36.25h2.5V32.5h-2.5v3.75z"/><path fill="#f5f8fa" d="M23.75 36.25h2.5V32.5h-2.5v3.75z"/><path fill="#f5f8fa" d="M18.75 36.25h2.5V32.5h-2.5v3.75z"/><path fill="#f5f8fa" d="M13.75 36.25h2.5V32.5h-2.5v3.75z"/><path fill="#f5f8fa" d="M8.75 36.25h2.5V32.5h-2.5v3.75z"/><path fill="#f5f8fa" d="M3.75 36.25h2.5V32.5h-2.5v3.75z"/><path fill="#88c9f9" d="M36.25 31.25h1.25v-17.5h-1.25v17.5z"/><path fill="#88c9f9" d="M11.25 31.25h1.25v-17.5h-1.25v17.5z"/></g></svg>