<svg xmlns="http://www.w3.org/2000/svg" viewBox="0 0 45 45" enable-background="new 0 0 45 45"><defs><clipPath id="a"><path d="M0 36h36V0H0v36z"/></clipPath><clipPath id="b"><path d="M1 18C1 8.6 8.6 1 18 1s17 7.6 17 17-7.6 17-17 17S1 27.4 1 18"/></clipPath><clipPath id="c"><path d="M0 36h36V0H0v36z"/></clipPath><clipPath id="d"><path d="M9.5 18c0-4.7 3.8-8.5 8.5-8.5s8.5 3.8 8.5 8.5-3.8 8.5-8.5 8.5-8.5-3.8-8.5-8.5"/></clipPath></defs><g><g><g clip-path="url(#a)" transform="matrix(1.25 0 0 -1.25 0 45)"><g><path fill="#9aaab4" d="M1 18c0 9.4 7.6 17 17 17s17-7.6 17-17S27.4 1 18 1 1 8.6 1 18"/></g></g></g><g><g clip-path="url(#b)" transform="matrix(1.25 0 0 -1.25 0 45)"><g><path fill="#ccd6dd" d="M35 8c.55 1.67 0 8.15 0 10 0 9.4-7.6 17-17 17S1 27.4 1 18c0-1.85-.42-8.33.13-10L18 18 35 8z"/></g></g></g><g><g clip-path="url(#c)" transform="matrix(1.25 0 0 -1.25 0 45)"><g><path fill="#da2f47" d="M19.46 31.6c0-.8-.66-1.46-1.46-1.46-.8 0-1.46.66-1.46 1.46 0 .8.66 1.46 1.46 1.46.8 0 1.46-.66 1.46-1.46"/></g><g><path fill="#da2f47" d="M12.66 29.66c0-.8-.65-1.46-1.46-1.46-.8 0-1.46.65-1.46 1.46 0 .8.66 1.45 1.46 1.45.8 0 1.46-.64 1.46-1.44"/></g><g><path fill="#da2f47" d="M26.26 29.66c0-.8-.66-1.46-1.46-1.46-.8 0-1.46.65-1.46 1.46 0 .8.66 1.45 1.46 1.45.8 0 1.46-.64 1.46-1.44"/></g><g><path fill="#da2f47" d="M7.8 24.8c0-.8-.65-1.46-1.46-1.46-.8 0-1.45.65-1.45 1.46 0 .8.64 1.46 1.44 1.46.8 0 1.46-.66 1.46-1.46"/></g><g><path fill="#67757f" d="M31.1 24.8c0-.8-.64-1.46-1.44-1.46-.8 0-1.46.65-1.46 1.46 0 .8.65 1.46 1.46 1.46.8 0 1.45-.66 1.45-1.46"/></g><g><path fill="#da2f47" d="M5.86 18c0-.8-.66-1.46-1.46-1.46-.8 0-1.46.65-1.46 1.46 0 .8.65 1.46 1.46 1.46.8 0 1.46-.66 1.46-1.46"/></g><g><path fill="#67757f" d="M33.06 18c0-.8-.66-1.46-1.46-1.46-.8 0-1.46.65-1.46 1.46 0 .8.66 1.46 1.46 1.46.8 0 1.46-.66 1.46-1.46"/></g><g><path d="M7.63 18c0 5.73 4.64 10.37 10.37 10.37 5.73 0 10.37-4.64 10.37-10.37 0-5.73-4.64-10.37-10.37-10.37-5.73 0-10.37 4.64-10.37 10.37"/></g><g><path fill="#292f33" d="M18 26.5c4.7 0 8.5-3.8 8.5-8.5S22.7 9.5 18 9.5 9.5 13.3 9.5 18s3.8 8.5 8.5 8.5"/></g></g></g><g><g clip-path="url(#d)" transform="matrix(1.25 0 0 -1.25 0 45)"><g><path fill="#e1e8ed" d="M18.7 17.3c-.38-.4-1.02-.4-1.4 0-.4.38-.4 1.02 0 1.4l4.94 4.96c.4.4 1.03.4 1.42 0 .4-.4.4-1.03 0-1.42L18.7 17.3z"/></g></g></g></g></svg>