<svg xmlns="http://www.w3.org/2000/svg" viewBox="0 0 45 45" enable-background="new 0 0 45 45"><defs><clipPath id="a"><path d="M0 36h36V0H0v36z"/></clipPath><clipPath id="b"><path d="M20.68 35.4L.58 15.33c-.73-.74-.73-1.95 0-2.68l2.37-2.36c1.7.66 3.68.32 5.05-1.05C9.36 7.9 9.7 5.9 9.03 4.2l3.6-3.6c.75-.74 1.95-.74 2.7 0L35.4 20.66c.75.74.75 1.94 0 2.68l-3.6 3.6c-1.68-.66-3.68-.32-5.05 1.04-1.36 1.36-1.7 3.36-1.03 5.04l-2.36 2.36c-.37.37-.86.56-1.34.56-.5 0-.97-.2-1.34-.56"/></clipPath><clipPath id="c"><path d="M0 36h36V0H0v36z"/></clipPath></defs><g><g><g clip-path="url(#a)" transform="matrix(1.25 0 0 -1.25 0 45)"><g><path fill="#ea596e" d="M26.75 28c1.37-1.37 3.37-1.7 5.05-1.04l3.6-3.6c.75-.75.75-1.95 0-2.7L15.33.6c-.74-.74-1.94-.74-2.68 0l-3.6 3.6C9.7 5.9 9.35 7.9 8 9.26c-1.37 1.37-3.36 1.7-5.05 1.04L.6 12.64c-.75.73-.75 1.94 0 2.68L20.67 35.4c.74.74 1.93.74 2.68 0l2.36-2.36c-.68-1.68-.33-3.68 1.03-5.05"/></g><g><path fill="#be1931" d="M30.85 25.23l1.88-1.88c.74-.74.74-1.94 0-2.68l-17.4-17.4c-.75-.74-1.95-.74-2.7 0l-1.87 1.88c.5 1.9.02 4-1.47 5.5-1.5 1.47-3.6 1.96-5.5 1.45l-.53.54c-.74.75-.74 1.95 0 2.68l17.4 17.4c.75.74 1.95.74 2.7 0l.53-.54c-.5-1.9-.02-4 1.47-5.48 1.48-1.5 3.6-1.97 5.48-1.47"/></g></g></g><g><g clip-path="url(#b)" transform="matrix(1.25 0 0 -1.25 0 45)"><g><path fill="#ea596e" d="M5.24 20.52L3.8 19.08l15.1-15 1.42 1.44-15.08 15z"/></g><g><path fill="#ea596e" d="M16.8 32.13l-1.43-1.44 15.1-15 1.42 1.43-15.1 15z"/></g></g></g><g><g clip-path="url(#c)" transform="matrix(1.25 0 0 -1.25 0 45)"><g><path fill="#ea596e" d="M20.93 20.9c-2.24 2.2-5.37 2.7-7 1.06-1.62-1.63-1.12-4.76 1.12-7 2.24-2.2 5.37-2.7 7-1.06 1.63 1.63 1.13 4.76-1.12 7"/></g></g></g></g></svg>