<svg xmlns="http://www.w3.org/2000/svg" viewBox="0 0 45 45" enable-background="new 0 0 45 45"><defs><clipPath id="a"><path d="M0 36h36V0H0v36z"/></clipPath></defs><g><g><g clip-path="url(#a)" transform="matrix(1.25 0 0 -1.25 0 45)"><g><path fill="#ccd6dd" d="M33 4c0-2.2-1.8-4-4-4H7C4.8 0 3 1.8 3 4v28c0 2.2 1.8 4 4 4h22c2.2 0 4-1.8 4-4V4z"/></g><g><path fill="#292f33" d="M19 5c0-.55-.45-1-1-1s-1 .45-1 1v26c0 .55.45 1 1 1s1-.45 1-1V5z"/></g><g><path fill="#99aab5" d="M15 30c0-.55-.45-1-1-1h-4c-.55 0-1 .45-1 1s.45 1 1 1h4c.55 0 1-.45 1-1"/></g><g><path fill="#99aab5" d="M15 18c0-.55-.45-1-1-1h-4c-.55 0-1 .45-1 1s.45 1 1 1h4c.55 0 1-.45 1-1"/></g><g><path fill="#99aab5" d="M15 6c0-.55-.45-1-1-1h-4c-.55 0-1 .45-1 1s.45 1 1 1h4c.55 0 1-.45 1-1"/></g><g><path fill="#99aab5" d="M27 30c0-.55-.45-1-1-1h-4c-.55 0-1 .45-1 1s.45 1 1 1h4c.55 0 1-.45 1-1"/></g><g><path fill="#99aab5" d="M27 18c0-.55-.45-1-1-1h-4c-.55 0-1 .45-1 1s.45 1 1 1h4c.55 0 1-.45 1-1"/></g><g><path fill="#99aab5" d="M27 6c0-.55-.45-1-1-1h-4c-.55 0-1 .45-1 1s.45 1 1 1h4c.55 0 1-.45 1-1"/></g><g><path fill="#99aab5" d="M15 11.9c0-.5-.4-.9-.9-.9h-2.2c-.5 0-.9.4-.9.9v.2c0 .5.4.9.9.9h2.2c.5 0 .9-.4.9-.9v-.2z"/></g><g><path fill="#99aab5" d="M25 11.9c0-.5-.4-.9-.9-.9h-2.2c-.5 0-.9.4-.9.9v.2c0 .5.4.9.9.9h2.2c.5 0 .9-.4.9-.9v-.2z"/></g><g><path fill="#269" d="M25 23c0-1.1-.9-2-2-2H13c-1.1 0-2 .9-2 2v2c0 1.1.9 2 2 2h10c1.1 0 2-.9 2-2v-2z"/></g></g></g></g></svg>