<svg xmlns="http://www.w3.org/2000/svg" viewBox="0 0 45 45" enable-background="new 0 0 45 45"><defs><clipPath id="a"><path d="M0 36h36V0H0v36z"/></clipPath><clipPath id="b"><path d="M4.85 36c-3.8 0-9.13-11 1-28 .16-.25.83-.78 1.02-1 .2-.22-.3 1 0 1h4.06c.56 0 1.33.54 1.02 1-14.2 20.92-2.63 25.1-2.6 25.1.43.22.65.68.54 1.13-.12.45-.53.77-1 .77H4.85z"/></clipPath><clipPath id="c"><path d="M0 36h36V0H0v36z"/></clipPath><clipPath id="d"><path d="M27.23 36c-.46 0-.86-.32-.97-.77-.1-.45.1-.9.52-1.12.04 0 11.45-4.18-2.55-25.1-.3-.46.45-1 1-1h4c.3 0-.2-1.23 0-1 .2.22.85.75 1 1 4.26 7.25 5.75 13.4 5.77 18.08v.16c-.02 6.2-2.64 9.76-4.77 9.76h-4z"/></clipPath><clipPath id="e"><path d="M0 36h36V0H0v36z"/></clipPath></defs><g><g><g clip-path="url(#a)" transform="matrix(1.25 0 0 -1.25 0 45)"><g><path fill="#c1694f" d="M10.93 8c.56 0 1.33.54 1.02 1-14.2 20.92-2.63 25.1-2.6 25.1.43.22.65.68.54 1.13-.12.45-.53.77-1 .77H4.85c-3.8 0-9.13-11 1-28 .16-.25.83-.78 1.02-1 .2-.23-.3 1 0 1h4.06z"/></g></g></g><g><g clip-path="url(#b)" transform="matrix(1.25 0 0 -1.25 0 45)"><g><path fill="#662113" d="M12.96 6c.56 0 1.32.54 1 1-14.2 20.92-2.6 25.1-2.57 25.1.4.22.62.68.52 1.13-.1.45-.52.77-1 .77H4.86C1.05 34-3.27 23 6.9 7.16c.15-.24.02-.58.2-.8.2-.23.5-.36.8-.36h5.06z"/></g></g></g><g><g clip-path="url(#c)" transform="matrix(1.25 0 0 -1.25 0 45)"><g><path fill="#c1694f" d="M9.92 28c-.57 0-1.02.45-1.02 1 0 3.32-2.03 5-4.05 5-.47 0-.08.78.02 1.23.1.45.52.77 1 .77h5.06c3.8 0 4.94-6.14 5.06-6.83.04-.3-.05-.6-.24-.82-.2-.22-.48-.35-.77-.35H9.9z"/></g><g><path fill="#c1694f" d="M25.23 8c-.55 0-1.3.54-1 1 14 20.92 2.58 25.1 2.55 25.1-.4.22-.63.68-.52 1.13.1.45.5.77.97.77h4c3.74 0 9-11-1-28-.15-.25-.8-.78-1-1-.2-.23.3 1 0 1h-4z"/></g></g></g><g><g clip-path="url(#d)" transform="matrix(1.25 0 0 -1.25 0 45)"><g><path fill="#662113" d="M23.23 6c-.55 0-1.3.54-1 1 14 20.92 2.58 25.1 2.55 25.1-.4.22-.63.68-.52 1.13.1.45.5.77.97.77h6c3.74 0 8-11-2-26.84-.17-.24-.05-.58-.24-.8-.2-.23-.48-.36-.77-.36h-5z"/></g></g></g><g><g clip-path="url(#e)" transform="matrix(1.25 0 0 -1.25 0 45)"><g><path fill="#c1694f" d="M26.23 28c.55 0 1 .45 1 1 0 3.32 2 5 4 5 .46 0 .08.78-.03 1.23-.1.45-.5.77-.97.77h-5c-3.74 0-4.87-6.14-4.98-6.83-.05-.3.03-.6.22-.82.2-.22.47-.35.76-.35h5z"/></g><g><path fill="#be1931" d="M6 4s0-4 4-4h16s4 0 4 4v22s0 4-4 4H10c-4 0-4-4-4-4V4z"/></g><g><path fill="#a0041e" d="M24 8H12c-2.2 0-3 1.8-3 3v14c0 .55.45 1 1 1s1-.45 1-1V11c0-.45.2-1 1-1h12c.45 0 1 .2 1 1v14c0 .55.45 1 1 1s1-.45 1-1V11c0-2.2-1.8-3-3-3"/></g><g><path fill="#fff" d="M16 11s0 1 1 1h2s1 0 1-1V6s0-1-1-1h-2s-1 0-1 1v5z"/></g></g></g></g></svg>