<svg xmlns="http://www.w3.org/2000/svg" viewBox="0 0 45 45" enable-background="new 0 0 45 45"><defs><clipPath id="a"><path d="M0 36h36V0H0v36z"/></clipPath><clipPath id="b"><path d="M11 36c-1.1 0-2-.9-2-2V23s0-1 1-2l7-5.44V15c0-.1-.1-1 1-1s1 .9 1 1v.56L26 21c1 1 1 2 1 2v11c0 1.1-.9 2-2 2H11z"/></clipPath><clipPath id="c"><path d="M0 36h36V0H0v36z"/></clipPath></defs><g><g><g clip-path="url(#a)" transform="matrix(1.25 0 0 -1.25 0 45)"><g><path fill="#55acee" d="M25 36H11c-1.1 0-2-.9-2-2V23s0-1 1-2l7-5.44V15c0-.1-.1-1 1-1s1 .9 1 1v.56L26 21c1 1 1 2 1 2v11c0 1.1-.9 2-2 2"/></g></g></g><g><g clip-path="url(#b)" transform="matrix(1.25 0 0 -1.25 0 45)"><path fill="#e1e8ed" d="M24 16H12v20h12V16z"/><path fill="#dd2e44" d="M22 16h-8v20h8V16z"/></g></g><g><g clip-path="url(#c)" transform="matrix(1.25 0 0 -1.25 0 45)"><g><path fill="#ffac33" d="M22 15.5c0-.83-.67-1.5-1.5-1.5h-5c-.83 0-1.5.67-1.5 1.5s.67 1.5 1.5 1.5h5c.83 0 1.5-.67 1.5-1.5"/></g><g><path fill="#ffac33" d="M26 8c0-4.42-3.58-8-8-8s-8 3.58-8 8 3.58 8 8 8 8-3.58 8-8"/></g><g><path fill="#ffd983" d="M24 8c0-3.3-2.7-6-6-6s-6 2.7-6 6 2.7 6 6 6 6-2.7 6-6"/></g></g></g></g></svg>