<svg xmlns="http://www.w3.org/2000/svg" viewBox="0 0 45 45" enable-background="new 0 0 45 45"><defs><clipPath id="a"><path d="M0 36h36V0H0v36z"/></clipPath><clipPath id="b"><path d="M4 36c-2.2 0-4-1.8-4-4V4c0-2.2 1.8-4 4-4h28c2.2 0 4 1.8 4 4v28c0 2.2-1.8 4-4 4H4z"/></clipPath></defs><g><g><g clip-path="url(#a)" transform="matrix(1.25 0 0 -1.25 0 45)"><g><path fill="#269" d="M36 4c0-2.2-1.8-4-4-4H4C1.8 0 0 1.8 0 4v28c0 2.2 1.8 4 4 4h28c2.2 0 4-1.8 4-4V4z"/></g></g></g><g><g clip-path="url(#b)" transform="matrix(1.25 0 0 -1.25 0 45)"><g><path fill="#ffcc4d" d="M9 20c-.03 0-.06 0-.1 0-.34.04-.64.24-.8.55-1 2.02-2.25 4.52.07 8 1.98 2.98 4.37 4.83 6.22 4.83 1.25 0 2.6-.9 2.6-3.38 0-.27-.1-.52-.3-.7-.7-.7-4.5-5.7-6.9-8.9-.2-.25-.5-.4-.8-.4"/></g><g><path fill="#ffcc4d" d="M12 12c-.04 0-.08 0-.1 0-.35.05-.64.25-.8.55-1.36 2.74-1.02 5.22 1.1 8.05 2 2.65 3.36 3.78 4.57 3.78C19 24.38 19 21.08 19 20c0-.26-.1-.52-.3-.7-.76-.77-4.2-4.88-5.93-6.94-.2-.23-.47-.36-.77-.36"/></g><g><path fill="#77b255" d="M4-1c-.55 0-1 .45-1 1 0 11.88 5.08 23.5 14.3 32.7.38.4 1.02.4 1.4 0 .4-.38.4-1.02 0-1.4C9.88 22.44 5 11.33 5 0c0-.55-.45-1-1-1"/></g><g><path fill="#77b255" d="M5-1h-.03C4.43-1 4-.55 4 0c0 2.4 8.3 17.75 17.5 22.87.5.27 1.1.1 1.37-.4.27-.47.1-1.08-.38-1.35C13.8 16.32 6.1 1.84 6-.02 5.97-.55 5.53-1 5-1"/></g><g><path fill="#77b255" d="M3-1c-.48 0-.9.34-.98.82L2-.08c-.9 4.93-2.58 17.25 1.1 25.5.2.5.8.72 1.3.5.5-.23.74-.82.5-1.33C1.5 16.85 3.1 5 3.97.3l.02-.12c.1-.54-.26-1.07-.8-1.16C3.12-1 3.06-1 3-1"/></g><g><path fill="#77b255" d="M1 12c-.37 0-.72.2-.9.55-.15.3-.33.7-.52 1.15-.42.95-1.53 3.45-2.16 3.65 0-.03-.2-.17-.52-.8-.25-.5-.85-.7-1.35-.44-.5.25-.7.68-.45 1.17.63 1.26 1.42 1.73 2.33 1.73h.04C-.7 19 .4 16.6 1.4 14.34c.2-.4.35-.7.5-.98.24-.5.04-1.05-.45-1.3C1.3 12 1.15 12 1 12"/></g><g><path fill="#77b255" d="M18 9c-.55 0-1 .45-1 1 0 2.02-.5 2.47-.64 2.56-.6.36-2.17-.5-3.1-1.02-.3-.16-.57-.3-.8-.43-.5-.24-1.1-.04-1.35.45-.24.5-.04 1.1.45 1.35.23.1.47.24.74.4 1.46.8 3.5 1.92 5.08.98C18.48 13.64 19 12.24 19 10c0-.55-.45-1-1-1"/></g><g><path fill="#e1e8ed" d="M23 28.5c0-3.04 2.46-5.5 5.5-5.5s5.5 2.46 5.5 5.5-2.46 5.5-5.5 5.5-5.5-2.46-5.5-5.5"/></g><g><path fill="#e1e8ed" d="M23 5.5C23 4.12 24.12 3 25.5 3S28 4.12 28 5.5 26.88 8 25.5 8 23 6.88 23 5.5"/></g><g><path fill="#e1e8ed" d="M19 5.5C19 4.12 20.12 3 21.5 3S24 4.12 24 5.5 22.88 8 21.5 8 19 6.88 19 5.5"/></g><g><path fill="#e1e8ed" d="M27 5.5C27 4.12 28.12 3 29.5 3S32 4.12 32 5.5 30.88 8 29.5 8 27 6.88 27 5.5"/></g><g><path fill="#e1e8ed" d="M25 9.5C25 8.12 26.12 7 27.5 7S30 8.12 30 9.5 28.88 12 27.5 12 25 10.88 25 9.5"/></g><g><path fill="#e1e8ed" d="M21 9.5C21 8.12 22.12 7 23.5 7S26 8.12 26 9.5 24.88 12 23.5 12 21 10.88 21 9.5"/></g><g><path fill="#e1e8ed" d="M23 13.5c0-1.38 1.12-2.5 2.5-2.5s2.5 1.12 2.5 2.5-1.12 2.5-2.5 2.5-2.5-1.12-2.5-2.5"/></g><path fill="#c1694f" d="M18 4h15V0H18v4z"/></g></g></g></svg>