<svg xmlns="http://www.w3.org/2000/svg" viewBox="0 0 45 45" enable-background="new 0 0 45 45"><defs><clipPath id="a"><path d="M0 36h36V0H0v36z"/></clipPath><clipPath id="b"><path d="M.96 35.25h34.08V8.65H.96v26.6z"/></clipPath></defs><g><g><g clip-path="url(#a)" transform="matrix(1.25 0 0 -1.25 0 45)"><g><path fill="#292f33" d="M24 22H12s-5-6-5-10S18 1 18 1s11 7 11 11-5 10-5 10"/></g><g><path fill="#292f33" d="M19.64 34.72c-.9.7-2.38.7-3.28 0L1.64 23.22c-.9-.7-.9-1.85 0-2.56l14.72-11.5c.9-.7 2.38-.7 3.28 0l14.72 11.5c.9.7.9 1.86 0 2.56l-14.72 11.5z"/></g><g><g><g clip-path="url(#b)" opacity=".25"><g><path fill="#67757f" d="M19.64 34.72c-.9.7-2.38.7-3.28 0L1.64 23.22c-.9-.7-.9-1.85 0-2.56l14.72-11.5c.9-.7 2.38-.7 3.28 0l14.72 11.5c.9.7.9 1.86 0 2.56l-14.72 11.5z"/></g></g></g></g><g><path fill="#fcab40" d="M8 11S6 9 6 8V2s0-2 2-2 2 2 2 2v6c0 1-2 3-2 3"/></g><g><path fill="#fdd888" d="M11 10c0-1.66-1.34-3-3-3s-3 1.34-3 3 1.34 3 3 3 3-1.34 3-3"/></g><g><path fill="#fcab40" d="M8 9c-.55 0-1 .45-1 1v3.96c-.04.63.2 2.03 1.32 2.88l9.02 7.9c.42.38 1.05.34 1.4-.08.38-.42.33-1.05-.08-1.4l-9.08-7.97C8.98 14.82 9 14 9 14v-4c0-.55-.45-1-1-1"/></g><g><path fill="#292f33" d="M21 23c0-1.66-1.34-3-3-3s-3 1.34-3 3 1.34 3 3 3 3-1.34 3-3"/></g></g></g></g></svg>