<svg xmlns="http://www.w3.org/2000/svg" viewBox="0 0 45 45" enable-background="new 0 0 45 45"><defs><clipPath id="a"><path d="M0 36h36V0H0v36z"/></clipPath><clipPath id="b"><path d="M18 36c-4.97 0-9-4.03-9-9v-8c0-4.97 4.03-9 9-9s9 4.03 9 9v8c0 4.97-4.03 9-9 9z"/></clipPath><clipPath id="c"><path d="M0 36h36V0H0v36z"/></clipPath></defs><g><path fill="#292f33" d="M37.5 21.25h-30v-2.5h30v2.5z"/><g><g clip-path="url(#a)" transform="matrix(1.25 0 0 -1.25 0 45)"><g><path fill="#292f33" d="M21 6c0-2.2-.8-4-3-4s-3 1.8-3 4 .8 2 3 2 3 .2 3-2"/></g><g><path fill="#66757f" d="M18 5C11.37 5 8 3.66 8 2V0h20v2c0 1.66-3.37 3-10 3"/></g><g><path fill="#99aab5" d="M27 19c0-4.97-4.03-9-9-9s-9 4.03-9 9v8c0 4.97 4.03 9 9 9s9-4.03 9-9v-8z"/></g></g></g><g><g clip-path="url(#b)" transform="matrix(1.25 0 0 -1.25 0 45)"><g><path fill="#292f33" d="M17 33.5c0-.83-.67-1.5-1.5-1.5s-1.5.67-1.5 1.5.67 1.5 1.5 1.5 1.5-.67 1.5-1.5"/></g><g><path fill="#292f33" d="M22 33.5c0-.83-.67-1.5-1.5-1.5s-1.5.67-1.5 1.5.67 1.5 1.5 1.5 1.5-.67 1.5-1.5"/></g><g><path fill="#292f33" d="M19 29.5c0-.83-.67-1.5-1.5-1.5s-1.5.67-1.5 1.5.67 1.5 1.5 1.5 1.5-.67 1.5-1.5"/></g><g><path fill="#292f33" d="M24 29.5c0-.83-.67-1.5-1.5-1.5s-1.5.67-1.5 1.5.67 1.5 1.5 1.5 1.5-.67 1.5-1.5"/></g><g><path fill="#292f33" d="M14 29.5c0-.83-.67-1.5-1.5-1.5s-1.5.67-1.5 1.5.67 1.5 1.5 1.5 1.5-.67 1.5-1.5"/></g><g><path fill="#292f33" d="M17 25.5c0-.83-.67-1.5-1.5-1.5s-1.5.67-1.5 1.5.67 1.5 1.5 1.5 1.5-.67 1.5-1.5"/></g><g><path fill="#292f33" d="M12 25.5c0-.83-.67-1.5-1.5-1.5S9 24.67 9 25.5s.67 1.5 1.5 1.5 1.5-.67 1.5-1.5"/></g><g><path fill="#292f33" d="M22 25.5c0-.83-.67-1.5-1.5-1.5s-1.5.67-1.5 1.5.67 1.5 1.5 1.5 1.5-.67 1.5-1.5"/></g><g><path fill="#292f33" d="M27 25.5c0-.83-.67-1.5-1.5-1.5s-1.5.67-1.5 1.5.67 1.5 1.5 1.5 1.5-.67 1.5-1.5"/></g><g><path fill="#292f33" d="M19 21.5c0-.83-.67-1.5-1.5-1.5s-1.5.67-1.5 1.5.67 1.5 1.5 1.5 1.5-.67 1.5-1.5"/></g><g><path fill="#292f33" d="M24 21.5c0-.83-.67-1.5-1.5-1.5s-1.5.67-1.5 1.5.67 1.5 1.5 1.5 1.5-.67 1.5-1.5"/></g><g><path fill="#292f33" d="M14 21.5c0-.83-.67-1.5-1.5-1.5s-1.5.67-1.5 1.5.67 1.5 1.5 1.5 1.5-.67 1.5-1.5"/></g><path fill="#66757f" d="M27 10H9v10.94h18V10z"/></g></g><g><g clip-path="url(#c)" transform="matrix(1.25 0 0 -1.25 0 45)"><g><path fill="#66757f" d="M7 21c0-.55-.45-1-1-1s-1 .45-1 1 .45 1 1 1 1-.45 1-1"/></g><g><path fill="#66757f" d="M31 21c0-.55-.45-1-1-1s-1 .45-1 1 .45 1 1 1 1-.45 1-1"/></g><g><path fill="#66757f" d="M29 21v-2c0-6.07-4.92-11-11-11S7 12.93 7 19v2H5v-2c0-7.18 5.82-13 13-13s13 5.82 13 13v2h-2z"/></g></g></g></g></svg>