<svg xmlns="http://www.w3.org/2000/svg" viewBox="0 0 45 45" enable-background="new 0 0 45 45"><defs><clipPath id="a"><path d="M0 36h36V0H0v36z"/></clipPath></defs><g><g><g clip-path="url(#a)" transform="matrix(1.25 0 0 -1.25 0 45)"><g><path fill="#8899a6" d="M36 24.08c0-3.8-3.08-6.88-6.9-6.88-3.8 0-6.87 3.08-6.87 6.88s3.08 6.9 6.88 6.9c3.82 0 6.9-3.1 6.9-6.9"/></g><g><path fill="#292f33" d="M32.8 17.43c-.33-.33-.87-.33-1.2 0l-9.13 9.13c-.34.34-.34.88 0 1.22l1.2 1.2c.35.35.9.35 1.23 0l9.13-9.1c.33-.35.33-.9 0-1.23l-1.22-1.22z"/></g><g><path fill="#292f33" d="M26.74 17.3l-4.33 4.32c-.76.78-1.98.74-2.7-.1l-9.16-10.57c-1.22-1.4-1.46-3.36-.7-4.73L4.9 1.3l1.4-1.4 4.88 4.87c1.38-.84 3.4-.6 4.86.65l10.58 9.16c.83.72.88 1.94.1 2.72"/></g><g><path fill="#55acee" d="M4 30v-8.12c-.3.07-.65.12-1 .12-1.66 0-3-.9-3-2s1.34-2 3-2 3 .9 3 2v6.1l5-2.2v-5.02c-.3.07-.65.12-1 .12-1.66 0-3-.9-3-2s1.34-2 3-2 3 .9 3 2v9l-9 4z"/></g><g><path fill="#55acee" d="M18 35v-8.12c-.3.07-.65.12-1 .12-1.66 0-3-.9-3-2s1.34-2 3-2 3 .9 3 2v10h-2z"/></g></g></g></g></svg>