<svg xmlns="http://www.w3.org/2000/svg" viewBox="0 0 45 45" enable-background="new 0 0 45 45"><defs><clipPath id="a"><path d="M0 36h36V0H0v36z"/></clipPath></defs><g><g><g clip-path="url(#a)" transform="matrix(1.25 0 0 -1.25 0 45)"><g><path fill="#88c9f9" d="M36 4c0-2.2-1.8-4-4-4H4C1.8 0 0 1.8 0 4v28c0 2.2 1.8 4 4 4h28c2.2 0 4-1.8 4-4V4z"/></g><g><path fill="#ffe8b6" d="M18 9C11.92 9 7 13.92 7 20s4.92 11 11 11 11-4.93 11-11c0-6.08-4.92-11-11-11m0 24c-7.18 0-13-5.82-13-13S10.82 7 18 7s13 5.82 13 13-5.82 13-13 13"/></g><g><path fill="#ea596e" d="M21 29.5c0-1.38-1.12-2.5-2.5-2.5h-1c-1.38 0-2.5 1.12-2.5 2.5s1.12 2.5 2.5 2.5h1c1.38 0 2.5-1.12 2.5-2.5"/></g><g><path fill="#ea596e" d="M12 26.5c0-1.38-1.12-2.5-2.5-2.5h-1C7.12 24 6 25.12 6 26.5S7.12 29 8.5 29h1c1.38 0 2.5-1.12 2.5-2.5"/></g><g><path fill="#ea596e" d="M30 26.5c0-1.38-1.12-2.5-2.5-2.5h-1c-1.38 0-2.5 1.12-2.5 2.5s1.12 2.5 2.5 2.5h1c1.38 0 2.5-1.12 2.5-2.5"/></g><g><path fill="#ea596e" d="M33 17.5c0-1.38-1.12-2.5-2.5-2.5h-1c-1.38 0-2.5 1.12-2.5 2.5s1.12 2.5 2.5 2.5h1c1.38 0 2.5-1.12 2.5-2.5"/></g><g><path fill="#ea596e" d="M9 17.5C9 16.12 7.88 15 6.5 15h-1C4.12 15 3 16.12 3 17.5S4.12 20 5.5 20h1C7.88 20 9 18.88 9 17.5"/></g><g><path fill="#ea596e" d="M12 9.5C12 8.12 10.88 7 9.5 7h-1C7.12 7 6 8.12 6 9.5S7.12 12 8.5 12h1c1.38 0 2.5-1.12 2.5-2.5"/></g><g><path fill="#ea596e" d="M30 9.5C30 8.12 28.88 7 27.5 7h-1C25.12 7 24 8.12 24 9.5s1.12 2.5 2.5 2.5h1c1.38 0 2.5-1.12 2.5-2.5"/></g><g><path fill="#ea596e" d="M21 5.5C21 4.12 19.88 3 18.5 3h-1C16.12 3 15 4.12 15 5.5S16.12 8 17.5 8h1C19.88 8 21 6.88 21 5.5"/></g><g><path fill="#fff" d="M20.95 6c-.23 1.14-1.24 2-2.45 2h-1c-1.2 0-2.22-.86-2.45-2h5.9z"/></g><g><path fill="#fff" d="M11.95 10c-.23 1.14-1.24 2-2.45 2h-1c-1.2 0-2.22-.86-2.45-2h5.9z"/></g><g><path fill="#fff" d="M8.95 18c-.23 1.14-1.24 2-2.45 2h-1c-1.2 0-2.22-.86-2.45-2h5.9z"/></g><g><path fill="#fff" d="M32.95 18c-.23 1.14-1.24 2-2.45 2h-1c-1.2 0-2.22-.86-2.45-2h5.9z"/></g><g><path fill="#fff" d="M29.95 10c-.23 1.14-1.24 2-2.45 2h-1c-1.2 0-2.22-.86-2.45-2h5.9z"/></g><g><path fill="#fff" d="M29.95 27c-.23 1.14-1.24 2-2.45 2h-1c-1.2 0-2.22-.86-2.45-2h5.9z"/></g><g><path fill="#fff" d="M20.95 30c-.23 1.14-1.24 2-2.45 2h-1c-1.2 0-2.22-.86-2.45-2h5.9z"/></g><g><path fill="#fff" d="M11.95 27c-.23 1.14-1.24 2-2.45 2h-1c-1.2 0-2.22-.86-2.45-2h5.9z"/></g><g><path fill="#414042" d="M26 2c-.37 0-.73.2-.9.57L18 17.65 10.9 2.57c-.23-.5-.83-.7-1.33-.47-.5.23-.7.83-.47 1.33l8 17c.16.35.5.57.9.57s.74-.22.9-.57l8-17c.24-.5.03-1.1-.47-1.34-.14-.07-.3-.1-.43-.1"/></g><g><path fill="#414042" d="M15 20c0 1.66 1.34 3 3 3s3-1.34 3-3-1.34-3-3-3-3 1.34-3 3"/></g></g></g></g></svg>