<svg xmlns="http://www.w3.org/2000/svg" viewBox="0 0 45 45" enable-background="new 0 0 45 45"><defs><clipPath id="a"><path d="M0 36h36V0H0v36z"/></clipPath></defs><g><g><g clip-path="url(#a)" transform="matrix(1.25 0 0 -1.25 0 45)"><g><path fill="#88c9f9" d="M0 4c0-2.2 1.8-4 4-4h28c2.2 0 4 1.8 4 4v28c0 2.2-1.8 4-4 4H4c-2.2 0-4-1.8-4-4V4z"/></g><path fill="#58595b" d="M14 2h2v32h-2V2z"/><g><path fill="#dd2e44" d="M24 21s2 3 4 3 3-1 3-3-2-4-1-6c0 0-2 3-1 5 1.4 2.83-4 3-3 0 1.14-3.42-2 1-2 1"/></g><g><path fill="#939598" d="M28 10c0-2 1-3 3-3s1 0 0 2-3 3-3 3v-2z"/></g><g><path fill="#939598" d="M6 13c0-2 2-4 3-4s1 1 0 2-3 3-1 3 3 0 4 1 1 3-1 2-3-2-4-2-1-2-1-2"/></g><g><path fill="#f1f2f2" d="M16 22c-2 0-3 0-4 4-.77 3.07-4 4-7 3 0 0-2 1-1 0s0-1 0-3 0-5 1-5c2 0 2 3 2 3s1 0 1-2c0-1-1-2 1-5 0 0-3 0-4-1s-1-3-1-4 1-3 2-3 1 1 1 2-2 0-1 2 1 1 2 1 3 1 4 1 3-1 5-1 4 2 6 0 5-2 6-3 1-2 1-3 2-2 3-2 1 1 0 2-2 0-2 2-1 3-2 3-1 4-1 5-2 5-5 5-5-1-7-1"/></g><g><path fill="#cbb7ea" d="M12.54 24.22C13.4 22 14.36 22 16 22c1.7 0 3.38.7 5.66.93.12-.3.23-.62.34-.93 1-3 0-5-5-5-2.76 0-5 2.24-5 5 0 .8.2 1.55.54 2.22"/></g><g><path fill="#ffac33" d="M9 17c.2 0 .4.05.56.17.13.1 3.3 2.23 4.4 5.5.16.54-.12 1.1-.64 1.28-.53.17-1.1-.1-1.27-.63-.87-2.63-3.58-4.47-3.6-4.5-.46-.3-.6-.92-.28-1.38.2-.28.5-.44.83-.44"/></g><g><path fill="#dd2e44" d="M5 29c2 2 4.42 1.58 6 0 2-2 1-4 3-6 1.58-1.58-2 0-3 3-.7 2.12-4 3-6 3"/></g></g></g></g></svg>