<svg xmlns="http://www.w3.org/2000/svg" viewBox="0 0 45 45" enable-background="new 0 0 45 45"><defs><clipPath id="a"><path d="M0 36h36V0H0v36z"/></clipPath></defs><g><g><g clip-path="url(#a)" transform="matrix(1.25 0 0 -1.25 0 45)"><g><path fill="#292f33" d="M32 15v-1h-2v1c0 .45-.1.87-.23 1.27C32.23 17.03 34 19.3 34 22c0 3.3-2.7 6-6 6-1.6 0-3.06-.63-4.13-1.66C23.24 29.57 20.4 32 17 32c-3.87 0-7-3.13-7-7 0-2.55 1.37-4.78 3.4-6H13c-2.2 0-4-1.8-4-4H8l-6 4H1V5h1l6 4h1V7c0-2.2 1.8-4 4-4h13c2.2 0 4 1.8 4 4v3h2V9h3v6h-3z"/></g><g><path fill="#66757f" d="M22 25c0-2.76-2.24-5-5-5s-5 2.24-5 5 2.24 5 5 5 5-2.24 5-5"/></g><g><path fill="#ccd6dd" d="M19 25c0-1.1-1-2-2-2s-2 .9-2 2 .9 2 2 2 2-.9 2-2"/></g><g><path fill="#66757f" d="M32 22c0-2.2-1.8-4-4-4s-4 1.8-4 4 1.8 4 4 4 4-1.8 4-4"/></g><g><path fill="#ccd6dd" d="M30 22c0-1.1-.9-2-2-2s-2 .9-2 2 .9 2 2 2 2-.9 2-2"/></g><path fill="#8899a6" d="M27 6H17v10h10V6z"/><path fill="#292f33" d="M25 8h-6v6h6V8z"/><g><path fill="#8899a6" d="M15 8c0-1.1-.9-2-2-2s-2 .9-2 2 .9 2 2 2 2-.9 2-2"/></g></g></g></g></svg>