<svg xmlns="http://www.w3.org/2000/svg" viewBox="0 0 45 45" enable-background="new 0 0 45 45"><defs><clipPath id="a"><path d="M0 36h36V0H0v36z"/></clipPath></defs><g><g><g clip-path="url(#a)" transform="matrix(1.25 0 0 -1.25 0 45)"><g><path fill="#292f33" d="M28 10c0-2.76-2.24-5-5-5s-5 2.24-5 5 2.24 5 5 5 5-2.24 5-5"/></g><g><path fill="#292f33" d="M18 10c0-2.76-2.24-5-5-5s-5 2.24-5 5 2.24 5 5 5 5-2.24 5-5"/></g><path fill="#292f33" d="M26 9H10v16h16V9z"/><g><path fill="#292f33" d="M18 17c0 4.42-3.58 8-8 8-4.1 0-7.5-3.1-7.95-7.1l-2-12.35C.02 5.37 0 5.2 0 5c0-1.66 1.34-3 3-3 .68 0 1.3.23 1.8.62l10.17 8.12c.06.04.12.1.18.14l.07.06C16.9 12.4 18 14.57 18 17"/></g><g><path fill="#292f33" d="M18 17c0 4.42 3.58 8 8 8 4.1 0 7.5-3.1 7.95-7.1l2-12.35c.03-.18.05-.36.05-.55 0-1.66-1.34-3-3-3-.68 0-1.3.23-1.8.62l-10.17 8.12c-.06.04-.12.1-.18.14l-.07.06C19.1 12.4 18 14.57 18 17"/></g><g><path fill="#f18f26" d="M22 18c0-2.76 2.24-5 5-5s5 2.24 5 5-2.24 5-5 5-5-2.24-5-5"/></g><g><path fill="#67757f" d="M26 10c0-1.66-1.34-3-3-3s-3 1.34-3 3 1.34 3 3 3 3-1.34 3-3"/></g><g><path fill="#67757f" d="M16 10c0-1.66-1.34-3-3-3s-3 1.34-3 3 1.34 3 3 3 3-1.34 3-3"/></g><g><path fill="#67757f" d="M4 18c0-2.76 2.24-5 5-5s5 2.24 5 5-2.24 5-5 5-5-2.24-5-5"/></g><g><path fill="#f18f26" d="M28 20.5c0-.83-.67-1.5-1.5-1.5s-1.5.67-1.5 1.5.67 1.5 1.5 1.5 1.5-.67 1.5-1.5"/></g><g><path fill="#f18f26" d="M31 17.5c0-.83-.67-1.5-1.5-1.5s-1.5.67-1.5 1.5.67 1.5 1.5 1.5 1.5-.67 1.5-1.5"/></g><g><path fill="#292f33" d="M18 25c-.55 0-1 .45-1 1 0 2.02-.54 2.8-1.07 3.54-.44.6-.93 1.3-.93 2.46 0 2.6 2.45 3.84 2.55 3.9.5.24 1.1.04 1.34-.45.24-.5.04-1.1-.45-1.34 0 0-1.45-.76-1.45-2.1 0-.5.17-.76.56-1.3.6-.86 1.44-2.04 1.44-4.7 0-.55-.45-1-1-1"/></g><g><path fill="#292f33" d="M24 25c0-1.1-.9-2-2-2h-8c-1.1 0-2 .9-2 2s.9 2 2 2h8c1.1 0 2-.9 2-2"/></g></g></g></g></svg>