<svg xmlns="http://www.w3.org/2000/svg" viewBox="0 0 45 45" enable-background="new 0 0 45 45"><defs><clipPath id="a"><path d="M0 36h36V0H0v36z"/></clipPath></defs><g><g><g clip-path="url(#a)" transform="matrix(1.25 0 0 -1.25 0 45)"><g><path fill="#d99e82" d="M20.85 8.4c-.4-1.34-2.46-1.9-4.6-1.28-2.17.63-3.6 2.23-3.2 3.58.4 1.35 2.46 1.92 4.62 1.3 2.15-.64 3.57-2.24 3.18-3.6M18 32.87c-9.94 0-18-6.9-18-15.43 0-1.07.13-2.1.37-3.1 1.78-3.07 3-1.14 8.63 1.67 5.73 2.86 0-4-2-8-.62-1.23-.28-2.27.56-3.12C10.5 3.08 14.1 2 18 2c9.94 0 18 6.9 18 15.43 0 8.52-8.06 15.43-18 15.43"/></g><g><path fill="#5c913b" d="M13 25c0-1.66-1.34-3-3-3s-3 1.34-3 3 1.34 3 3 3 3-1.34 3-3"/></g><g><path fill="#269" d="M23 27c0-1.66-1.34-3-3-3s-3 1.34-3 3 1.34 3 3 3 3-1.34 3-3"/></g><g><path fill="#dd2e44" d="M32 21c0-1.66-1.34-3-3-3s-3 1.34-3 3 1.34 3 3 3 3-1.34 3-3"/></g><g><path fill="#ffcc4d" d="M31 12c0-1.66-1.34-3-3-3s-3 1.34-3 3 1.34 3 3 3 3-1.34 3-3"/></g></g></g></g></svg>