<svg xmlns="http://www.w3.org/2000/svg" viewBox="0 0 45 45" enable-background="new 0 0 45 45"><defs><clipPath id="a"><path d="M0 36h36V0H0v36z"/></clipPath></defs><g><g><g clip-path="url(#a)" transform="matrix(1.25 0 0 -1.25 0 45)"><g><path fill="#88c9f9" d="M36 4c0-2.2-1.8-4-4-4H4C1.8 0 0 1.8 0 4v28c0 2.2 1.8 4 4 4h28c2.2 0 4-1.8 4-4V4z"/></g><path fill="#a0041e" d="M16 2h-2v11h2V2z"/><path fill="#a0041e" d="M8 2h2v12H8V2z"/><path fill="#a0041e" d="M22 15h-2V2h2v13z"/><path fill="#a0041e" d="M28 20h-2V2h2v18z"/><path fill="#a0041e" d="M34 25h-2V2h2v23z"/><path fill="#a0041e" d="M4 2H2v13h2V2z"/><g><path fill="#dd2e44" d="M34 27.78C29.9 23.15 20.8 14 13 14c-4.64 0-8.6 1.42-11 2.53v-2.2C4.6 13.2 8.48 12 13 12c7.76 0 16.24 7.7 21 12.78v3z"/></g><g><path fill="#66757f" d="M26 22c0-1.1-.45-2-1-2s-1 .9-1 2 .45 2 1 2 1-.9 1-2"/></g><g><path fill="#66757f" d="M26 25c0-.55-.45-1-1-1s-1 .45-1 1 .45 1 1 1 1-.45 1-1"/></g><g><path fill="#66757f" d="M31 26c0-1.1-.45-2-1-2s-1 .9-1 2 .45 2 1 2 1-.9 1-2"/></g><g><path fill="#ffcc4d" d="M30.67 28.67L31 26l-1-1-1.5 1.5c-.96-.92-1.78-1.67-2.5-2.27V22l-1-1-1.4 1.4c-1.37-.97-2.06-1.32-2.6-2.4-1-2-2-6 1-4 5.58 3.72 12 10 12 10v6c-.87-.87-2.16-2.16-3.33-3.33"/></g><g><path fill="#66757f" d="M31 29c0-.55-.45-1-1-1s-1 .45-1 1 .45 1 1 1 1-.45 1-1"/></g></g></g></g></svg>