<svg xmlns="http://www.w3.org/2000/svg" viewBox="0 0 45 45" enable-background="new 0 0 45 45"><defs><clipPath id="a"><path d="M0 36h36V0H0v36z"/></clipPath></defs><g><g><g clip-path="url(#a)" transform="matrix(1.25 0 0 -1.25 0 45)"><g><path fill="#ccd6dd" d="M36 18c0-9.94-8.06-18-18-18S0 8.06 0 18s8.06 18 18 18 18-8.06 18-18"/></g><g><path fill="#3b88c3" d="M32 18c0-7.73-6.27-14-14-14S4 10.27 4 18s6.27 14 14 14 14-6.27 14-14"/></g><g><path fill="#dd2e44" d="M28 18c0-5.52-4.48-10-10-10S8 12.48 8 18s4.48 10 10 10 10-4.48 10-10"/></g><g><path fill="#ffac33" d="M24 18c0-3.3-2.7-6-6-6s-6 2.7-6 6 2.7 6 6 6 6-2.7 6-6"/></g><g><path d="M34.86 6.8c-.42-.3-1.25-.6-1.93-.6-1.96 0-4.65.73-6.33 2.4l-2.96 3.87c-.27.27-.35.57-.2.93.14.36-.74.6-.35.6h5.05c1.86 0 4.3-1.26 5.92-3.02l.37-.35c.78-.84 1.2-1.63 1.2-2.38 0-.63-.3-1.1-.78-1.45"/></g><g><path d="M28.3.8c-.77 0-1.63.4-2.5 1.2l-.47.38C23.53 4.02 22 6.5 22 8.4v5.17c0 .4.5-.5.87-.36.36.16.9.08 1.2-.2l3.16-3.13c1.7-1.7 3.06-4.62 3.06-6.62 0-.7-.15-1.25-.46-1.68-.37-.5-.9-.77-1.54-.77"/></g><g><path fill="#c1694f" d="M31.34 4.04c-.25 0-.48.12-.68.3l-14 14c-.4.4-.4 1.04 0 1.43.4.4 1.03.4 1.42 0l14-14c.4-.4.37-1.04-.02-1.43-.2-.2-.46-.3-.72-.3"/></g></g></g></g></svg>