<svg xmlns="http://www.w3.org/2000/svg" viewBox="0 0 45 45" enable-background="new 0 0 45 45"><defs><clipPath id="a"><path d="M0 36h36V0H0v36z"/></clipPath></defs><g><g><g clip-path="url(#a)" transform="matrix(1.25 0 0 -1.25 0 45)"><g><path fill="#3f7123" d="M35.85 4c0-2.2-1.8-4-4-4h-26c-2.2 0-4 1.8-4 4v13c0 2.2 1.8 4 4 4h26c2.2 0 4-1.8 4-4V4z"/></g><path fill="#3f7123" d="M35.84 15h-34v6h34v-6z"/><path fill="#ccd6dd" d="M35.84 14h-34v7h34v-7z"/><g><path fill="#292f33" d="M26.85 21l-4-7h7l4 7h-7zm-14 0l-4-7h7l4 7h-7zm-11 0h4l-4-7v7z"/></g><g><path fill="#ccd6dd" d="M34.84 29.2l-33-8.2-1.7 6.8 33 8.2 1.7-6.8z"/></g><g><path fill="#292f33" d="M32.9 28.72l-5.57 5.83-6.8-1.7 5.58-5.8 6.8 1.67zm-13.6-3.37l-5.56 5.82-6.8-1.7 5.58-5.8 6.8 1.68zM.16 27.8l5.58-5.83-3.9-.97-1.68 6.8z"/></g></g></g></g></svg>