<svg xmlns="http://www.w3.org/2000/svg" viewBox="0 0 45 45" enable-background="new 0 0 45 45"><defs><clipPath id="a"><path d="M0 36h36V0H0v36z"/></clipPath></defs><g><g><g clip-path="url(#a)" transform="matrix(1.25 0 0 -1.25 0 45)"><g><path fill="#66757f" d="M18 36C9.72 36 3 29.28 3 21v-9h3v9c0 7 5.27 12.2 12 12.2S30 28 30 21V11l3 1v9c0 8.28-6.72 15-15 15"/></g><g><path fill="#292f33" d="M6 9c0-1.1-.9-2-2-2H2C.9 7 0 7.9 0 9v9c0 1.1.9 2 2 2h2c1.1 0 2-.9 2-2V9z"/></g><g><path fill="#292f33" d="M36 9c0-1.1-.9-2-2-2h-2c-1.1 0-2 .9-2 2v9c0 1.1.9 2 2 2h2c1.1 0 2-.9 2-2V9z"/></g><g><path fill="#55acee" d="M19.18 25.98l-6.36-1.3c-.45-.1-.82-.55-.82-1V7.47c-.64.23-1.34.36-2.1.36-2.77 0-5.03-1.75-5.03-3.92C4.87 1.76 7.13.1 9.9.1 12.66.1 14.93 2 15 4v15.6l4.2.88c.45.1.8.55.8 1v3.84c0 .46-.37.76-.82.66"/></g><g><path fill="#55acee" d="M27.18 22.83l-4.3-.86c-.45-.1-.88-.55-.88-1V9.55c0 .15-.88.24-1.4.24-2.02 0-3.63-1.28-3.63-2.85 0-1.58 1.65-2.85 3.68-2.85 2.02 0 3.68 1.27 3.68 2.85 0 .42-.02 11.28-.02 11.28l2.88.6c.45.1.82.55.82 1v2.34c0 .45-.37.75-.82.66"/></g></g></g></g></svg>