<?xml version="1.0" encoding="UTF-8" standalone="no"?><svg xmlns:dc="http://purl.org/dc/elements/1.1/" xmlns:cc="http://creativecommons.org/ns#" xmlns:rdf="http://www.w3.org/1999/02/22-rdf-syntax-ns#" xmlns:svg="http://www.w3.org/2000/svg" xmlns="http://www.w3.org/2000/svg" viewBox="0 0 45 45" style="enable-background:new 0 0 45 45;" xml:space="preserve" version="1.1" id="svg2"><metadata id="metadata8"><rdf:RDF><cc:Work rdf:about=""><dc:format>image/svg+xml</dc:format><dc:type rdf:resource="http://purl.org/dc/dcmitype/StillImage"/></cc:Work></rdf:RDF></metadata><defs id="defs6"><clipPath id="clipPath38" clipPathUnits="userSpaceOnUse"><path id="path40" d="M 0,36 36,36 36,0 0,0 0,36 Z"/></clipPath></defs><g transform="matrix(1.25,0,0,-1.25,0,45)" id="g10"><g transform="translate(27.5292,27.6669)" id="g12"><path id="path14" style="fill:#e1e8ed;fill-opacity:1;fill-rule:nonzero;stroke:none" d="m 0,0 0,-7.312 -3.11,0 0,-0.999 3.11,0 0,-4 -8.979,0 0,4.603 -1,0 0,-4.603 -4.75,0 0,-1 4.75,0 0,-4 -8.938,0 0,3.206 -1,0 0,-3.206 -5.407,0 0,-1 5.407,0 0,-4 -5.407,0 0,-1.001 5.407,0 0,-4.355 1,0 0,4.355 8.938,0 0,-4.355 1,0 0,4.355 8.979,0 0,-4.355 1,0 0,4.355 4.083,0 0,1.001 -4.083,0 0,4 4.083,0 0,1 -4.083,0 0,4 4.083,0 0,1 -4.083,0 0,4 4.083,0 0,0.999 L 1,-7.312 1,0 0,0 Z m -8.979,-13.311 8.979,0 0,-4.001 -8.979,0 0,4.001 z m 0,-5 8.979,0 0,-4 -8.979,0 0,4 z m -9.938,0 8.938,0 0,-4 -8.938,0 0,4 z"/></g><path id="path16" style="fill:#ccd6dd;fill-opacity:1;fill-rule:nonzero;stroke:none" d="m 31.05,0 4,0 0,29.406 -4,0 0,-29.406 z"/><path id="path18" style="fill:#8899a6;fill-opacity:1;fill-rule:nonzero;stroke:none" d="m 34.05,0 1,0 0,29.406 -1,0 0,-29.406 z"/><g transform="translate(21.0501,23.3748)" id="g20"><path id="path22" style="fill:#ccd6dd;fill-opacity:1;fill-rule:nonzero;stroke:none" d="m 0,0 0,-23.375 4,0 L 4,2.417 0,0 Z"/></g><path id="path24" style="fill:#ccd6dd;fill-opacity:1;fill-rule:nonzero;stroke:none" d="m 11.05,0 4.001,0 0,15.083 -4.001,0 0,-15.083 z"/><path id="path26" style="fill:#ccd6dd;fill-opacity:1;fill-rule:nonzero;stroke:none" d="m 1.05,0 4,0 0,10.292 -4,0 L 1.05,0 Z"/><path id="path28" style="fill:#8899a6;fill-opacity:1;fill-rule:nonzero;stroke:none" d="m 4.05,0 1,0 0,10.292 -1,0 L 4.05,0 Z"/><path id="path30" style="fill:#8899a6;fill-opacity:1;fill-rule:nonzero;stroke:none" d="m 14.05,0 1.001,0 0,15.083 -1.001,0 0,-15.083 z"/><path id="path32" style="fill:#8899a6;fill-opacity:1;fill-rule:nonzero;stroke:none" d="m 24.05,0 1,0 0,25.791 -1,0 0,-25.791 z"/><g id="g34"><g clip-path="url(#clipPath38)" id="g36"><g transform="translate(18.8037,19.6221)" id="g42"><path id="path44" style="fill:#ccd6dd;fill-opacity:1;fill-rule:nonzero;stroke:none" d="m 0,0 c -5.856,-4.949 -12.313,-10.393 -18.804,-12.657 l 0,-1.817 c 7.387,2.665 14.422,8.661 20.364,13.725 4.789,4.083 9.313,7.939 11.763,7.939 1.46,0 2.746,-0.513 3.873,-1.337 l 0,1.787 C 16.086,8.291 14.806,8.69 13.323,8.69 10.282,8.69 5.288,4.469 0,0"/></g><g transform="translate(32.127,31.3125)" id="g46"><path id="path48" style="fill:#dd2e44;fill-opacity:1;fill-rule:nonzero;stroke:none" d="m 0,0 c -4.139,0 -9.292,-4.355 -15.26,-9.399 -5.344,-4.517 -11.214,-9.471 -16.867,-11.753 l 0,-3.196 c 6.491,2.265 12.948,7.708 18.804,12.658 C -8.035,-7.221 -3.041,-3 0,-3 1.482,-3 2.763,-3.399 3.873,-4.05 l 0,3.359 C 2.719,-0.254 1.435,0 0,0"/></g><g transform="translate(10.9121,21.5776)" id="g50"><path id="path52" style="fill:#1c6399;fill-opacity:1;fill-rule:nonzero;stroke:none" d="m 0,0 -0.368,-0.29 c -0.142,-0.112 -0.348,-0.087 -0.46,0.055 l -0.917,1.164 c -0.112,0.142 -0.088,0.348 0.054,0.46 l 0.368,0.29 c 0.142,0.112 0.348,0.087 0.46,-0.055 L 0.054,0.459 C 0.166,0.318 0.142,0.112 0,0"/></g><g transform="translate(14.3501,24.21)" id="g54"><path id="path56" style="fill:#1c6399;fill-opacity:1;fill-rule:nonzero;stroke:none" d="m 0,0 -0.368,-0.29 c -0.142,-0.112 -0.348,-0.088 -0.46,0.054 l -0.917,1.165 c -0.112,0.142 -0.088,0.347 0.054,0.459 l 0.368,0.29 c 0.142,0.112 0.348,0.088 0.46,-0.054 L 0.054,0.459 C 0.166,0.317 0.142,0.112 0,0"/></g><g transform="translate(20.8701,29.4185)" id="g58"><path id="path60" style="fill:#1c6399;fill-opacity:1;fill-rule:nonzero;stroke:none" d="m 0,0 -0.368,-0.29 c -0.142,-0.112 -0.348,-0.087 -0.459,0.055 l -0.918,1.164 c -0.111,0.142 -0.087,0.347 0.055,0.459 l 0.368,0.29 c 0.141,0.112 0.347,0.088 0.459,-0.054 L 0.055,0.459 C 0.167,0.317 0.143,0.112 0,0"/></g><g transform="translate(24.3408,32.0825)" id="g62"><path id="path64" style="fill:#1c6399;fill-opacity:1;fill-rule:nonzero;stroke:none" d="m 0,0 -0.368,-0.29 c -0.142,-0.112 -0.348,-0.087 -0.459,0.054 l -0.918,1.165 c -0.112,0.142 -0.088,0.347 0.055,0.459 l 0.368,0.29 c 0.141,0.112 0.347,0.088 0.459,-0.054 L 0.055,0.459 C 0.166,0.317 0.142,0.112 0,0"/></g><g transform="translate(15.8091,22.4043)" id="g66"><path id="path68" style="fill:#1c6399;fill-opacity:1;fill-rule:nonzero;stroke:none" d="m 0,0 c -0.217,0 -0.433,0.094 -0.581,0.275 -0.262,0.321 -0.215,0.793 0.106,1.056 l 1.41,1.152 C 1.256,2.745 1.729,2.699 1.99,2.377 2.252,2.057 2.205,1.584 1.884,1.322 L 0.475,0.169 C 0.335,0.056 0.167,0 0,0"/></g><g transform="translate(8.2075,21.4575)" id="g70"><path id="path72" style="fill:#ffe8b6;fill-opacity:1;fill-rule:nonzero;stroke:none" d="M 0,0 -2.651,1.751 C -2.765,1.827 -2.92,1.795 -2.998,1.68 -3.074,1.565 -3.042,1.41 -2.927,1.334 l 2.652,-1.751 c 0.042,-0.028 0.089,-0.041 0.137,-0.041 0.081,0 0.16,0.039 0.209,0.112 C 0.147,-0.231 0.115,-0.076 0,0"/></g><g transform="translate(11.6401,24.1348)" id="g74"><path id="path76" style="fill:#ffe8b6;fill-opacity:1;fill-rule:nonzero;stroke:none" d="M 0,0 -2.67,1.912 C -2.782,1.993 -2.938,1.968 -3.019,1.854 -3.099,1.742 -3.073,1.586 -2.961,1.506 l 2.67,-1.912 c 0.044,-0.032 0.095,-0.047 0.145,-0.047 0.079,0 0.155,0.036 0.204,0.104 C 0.138,-0.236 0.112,-0.08 0,0"/></g><g transform="translate(18.2124,29.3521)" id="g78"><path id="path80" style="fill:#ffe8b6;fill-opacity:1;fill-rule:nonzero;stroke:none" d="M 0,0 -2.748,1.476 C -2.868,1.542 -3.02,1.496 -3.087,1.374 -3.151,1.252 -3.106,1.101 -2.984,1.036 l 2.748,-1.476 c 0.037,-0.02 0.078,-0.03 0.118,-0.03 0.089,0 0.175,0.048 0.221,0.132 C 0.167,-0.217 0.122,-0.065 0,0"/></g><g transform="translate(21.4932,32.1343)" id="g82"><path id="path84" style="fill:#ffe8b6;fill-opacity:1;fill-rule:nonzero;stroke:none" d="M 0,0 -2.633,1.347 C -2.758,1.41 -2.908,1.361 -2.97,1.238 -3.033,1.115 -2.984,0.965 -2.862,0.902 l 2.633,-1.347 c 0.038,-0.019 0.077,-0.028 0.115,-0.028 0.091,0 0.178,0.05 0.222,0.137 C 0.171,-0.213 0.122,-0.063 0,0"/></g><g transform="translate(10.3491,20.9312)" id="g86"><path id="path88" style="fill:#be1931;fill-opacity:1;fill-rule:nonzero;stroke:none" d="M 0,0 C 0.82,-1.043 0.676,-1.73 0.154,-2.141 -0.368,-2.551 -1.07,-2.528 -1.89,-1.484 -2.709,-0.441 -2.952,0.737 -2.43,1.147 -1.907,1.558 -0.82,1.043 0,0"/></g><g transform="translate(13.7446,23.5991)" id="g90"><path id="path92" style="fill:#5c913b;fill-opacity:1;fill-rule:nonzero;stroke:none" d="M 0,0 C 0.82,-1.043 0.676,-1.73 0.154,-2.141 -0.368,-2.551 -1.07,-2.528 -1.89,-1.484 -2.709,-0.441 -2.951,0.737 -2.429,1.147 -1.907,1.558 -0.82,1.043 0,0"/></g><g transform="translate(13.5991,24.3306)" id="g94"><path id="path96" style="fill:#3b94d9;fill-opacity:1;fill-rule:nonzero;stroke:none" d="m 0,0 -5.892,-4.629 c -1.522,-1.196 -0.604,-4.01 -0.332,-4.356 0.291,-0.371 0.828,-0.435 1.2,-0.144 l 7.459,5.86 c 0.742,0.583 0.871,1.657 0.288,2.399 L 2.317,-0.353 C 1.734,0.389 0.697,0.547 0,0"/></g><g transform="translate(20.1777,28.8921)" id="g98"><path id="path100" style="fill:#fa743e;fill-opacity:1;fill-rule:nonzero;stroke:none" d="m 0,0 c 0.82,-1.043 0.677,-1.73 0.154,-2.141 -0.522,-0.41 -1.223,-0.387 -2.043,0.657 -0.82,1.044 -1.062,2.221 -0.54,2.631 C -1.907,1.558 -0.819,1.044 0,0"/></g><g transform="translate(23.6289,31.6133)" id="g102"><path id="path104" style="fill:#744eaa;fill-opacity:1;fill-rule:nonzero;stroke:none" d="M 0,0 C 0.819,-1.044 0.676,-1.731 0.153,-2.141 -0.369,-2.551 -1.07,-2.528 -1.891,-1.484 -2.71,-0.441 -2.952,0.737 -2.43,1.147 -1.907,1.558 -0.82,1.043 0,0"/></g><g transform="translate(23.4287,32.291)" id="g106"><path id="path108" style="fill:#3b94d9;fill-opacity:1;fill-rule:nonzero;stroke:none" d="m 0,0 -5.893,-4.628 c -1.522,-1.196 -0.604,-4.01 -0.332,-4.356 0.291,-0.371 0.829,-0.436 1.2,-0.144 l 7.46,5.859 c 0.742,0.582 0.871,1.657 0.288,2.399 L 2.316,-0.353 C 1.733,0.389 0.696,0.547 0,0"/></g><g transform="translate(9.0962,15.1621)" id="g110"><path id="path112" style="fill:#e1e8ed;fill-opacity:1;fill-rule:nonzero;stroke:none" d="m 0,0 c -0.148,0 -0.295,0.065 -0.394,0.191 -0.17,0.218 -0.131,0.533 0.086,0.703 L 6.751,6.409 C 6.966,6.577 7.281,6.541 7.452,6.322 7.623,6.105 7.584,5.791 7.366,5.621 L 0.308,0.105 C 0.217,0.034 0.108,0 0,0"/></g><g transform="translate(18.8823,23.0684)" id="g114"><path id="path116" style="fill:#e1e8ed;fill-opacity:1;fill-rule:nonzero;stroke:none" d="m 0,0 c -0.148,0 -0.295,0.066 -0.394,0.192 -0.17,0.218 -0.131,0.532 0.086,0.702 L 6.751,6.409 C 6.967,6.579 7.282,6.542 7.453,6.323 7.624,6.105 7.584,5.791 7.367,5.621 L 0.308,0.106 C 0.217,0.035 0.108,0 0,0"/></g><g transform="translate(21.292,34.0645)" id="g118"><path id="path120" style="fill:#ffdc5d;fill-opacity:1;fill-rule:nonzero;stroke:none" d="m 0,0 c 0.381,-0.448 0.371,-1.082 -0.021,-1.415 -0.392,-0.333 -1.213,-0.194 -1.595,0.253 -0.097,0.113 -0.172,0.234 -0.233,0.327 -0.396,0.606 0.11,0.755 0.451,1.044 C -1.007,0.542 -0.38,0.448 0,0"/></g><g transform="translate(20.9824,34.6333)" id="g122"><path id="path124" style="fill:#ffac33;fill-opacity:1;fill-rule:nonzero;stroke:none" d="m 0,0 c 0,0 -0.291,0.236 0.074,0.602 0.301,0.302 0.687,0.021 1.029,0.093 0.257,0.055 0.461,0.223 0.522,0.438 0,0 0.006,-0.399 -0.136,-0.674 C 1.305,0.103 0.893,-0.118 0.651,-0.17 0.273,-0.251 0,0 0,0"/></g><g transform="translate(19.2559,34.1108)" id="g126"><path id="path128" style="fill:#ffac33;fill-opacity:1;fill-rule:nonzero;stroke:none" d="m 0,0 c 0.058,0.296 0.514,0.744 0.982,0.847 0.53,0.117 0.921,-0.16 1.17,-0.577 0.23,-0.383 0.158,-0.957 0.158,-0.957 0,0 -0.502,0.195 -0.456,0.244 0.084,0.09 -0.104,0.426 -0.249,0.437 -0.151,0.01 -0.162,-0.138 -0.113,-0.237 0.049,-0.098 0.19,-0.375 0.19,-0.375 0,0 -0.233,0.309 -0.392,0.326 C 1.027,-0.264 0.421,-1.062 0.187,-0.882 0.042,-0.77 -0.072,-0.367 0,0"/></g><g transform="translate(7.8872,23.2432)" id="g130"><path id="path132" style="fill:#ffdc5d;fill-opacity:1;fill-rule:nonzero;stroke:none" d="m 0,0 c 0.419,-0.413 0.466,-1.044 0.105,-1.411 -0.36,-0.367 -1.191,-0.303 -1.611,0.109 -0.106,0.104 -0.192,0.217 -0.261,0.303 -0.449,0.569 0.041,0.763 0.354,1.082 C -1.052,0.449 -0.419,0.412 0,0"/></g><g transform="translate(7.5269,23.7817)" id="g134"><path id="path136" style="fill:#ffac33;fill-opacity:1;fill-rule:nonzero;stroke:none" d="m 0,0 c 0,0 -0.311,0.209 0.02,0.606 0.272,0.328 0.682,0.082 1.016,0.185 0.252,0.078 0.441,0.264 0.481,0.483 0,0 0.042,-0.397 -0.075,-0.683 C 1.291,0.22 0.9,-0.037 0.664,-0.111 0.295,-0.226 0,0 0,0"/></g><g transform="translate(5.854,23.106)" id="g138"><path id="path140" style="fill:#ffac33;fill-opacity:1;fill-rule:nonzero;stroke:none" d="m 0,0 c 0.032,0.301 0.446,0.787 0.903,0.932 0.516,0.164 0.932,-0.077 1.217,-0.47 0.262,-0.36 0.243,-0.939 0.243,-0.939 0,0 -0.518,0.15 -0.477,0.203 C 1.962,-0.177 1.745,0.141 1.601,0.138 1.449,0.135 1.451,-0.014 1.508,-0.107 1.565,-0.201 1.73,-0.464 1.73,-0.464 c 0,0 -0.258,0.287 -0.418,0.289 C 1.047,-0.17 0.515,-1.02 0.266,-0.861 0.111,-0.763 -0.039,-0.372 0,0"/></g><g transform="translate(17.8179,31.3037)" id="g142"><path id="path144" style="fill:#ffdc5d;fill-opacity:1;fill-rule:nonzero;stroke:none" d="m 0,0 c 0.38,-0.448 0.371,-1.082 -0.021,-1.415 -0.393,-0.333 -1.214,-0.194 -1.596,0.253 -0.096,0.113 -0.172,0.234 -0.232,0.327 -0.396,0.606 0.11,0.755 0.45,1.044 C -1.007,0.542 -0.38,0.448 0,0"/></g><g transform="translate(15.7812,31.3496)" id="g146"><path id="path148" style="fill:#ffac33;fill-opacity:1;fill-rule:nonzero;stroke:none" d="M 0,0 C 0.058,0.297 0.514,0.744 0.982,0.848 1.511,0.964 1.904,0.687 2.153,0.271 2.382,-0.113 2.31,-0.687 2.31,-0.687 c 0,0 -0.503,0.196 -0.456,0.245 0.084,0.09 -0.104,0.426 -0.248,0.436 C 1.455,0.005 1.444,-0.144 1.492,-0.242 1.541,-0.34 1.557,-0.404 1.51,-0.459 1.463,-0.514 1.183,-0.272 1.023,-0.255 0.761,-0.228 0.421,-1.062 0.187,-0.881 0.042,-0.77 -0.072,-0.367 0,0"/></g><g transform="translate(11.4116,25.9443)" id="g150"><path id="path152" style="fill:#ffdc5d;fill-opacity:1;fill-rule:nonzero;stroke:none" d="m 0,0 c 0.38,-0.448 0.371,-1.082 -0.021,-1.415 -0.393,-0.333 -1.214,-0.194 -1.596,0.253 -0.096,0.113 -0.172,0.234 -0.232,0.327 -0.396,0.606 0.11,0.755 0.45,1.044 C -1.007,0.542 -0.38,0.448 0,0"/></g><g transform="translate(9.375,25.9902)" id="g154"><path id="path156" style="fill:#ffac33;fill-opacity:1;fill-rule:nonzero;stroke:none" d="M 0,0 C 0.058,0.297 0.514,0.744 0.982,0.848 1.511,0.964 1.904,0.687 2.153,0.271 2.382,-0.113 2.31,-0.687 2.31,-0.687 c 0,0 -0.503,0.196 -0.456,0.245 0.084,0.09 -0.104,0.426 -0.248,0.436 C 1.455,0.005 1.444,-0.144 1.492,-0.242 1.541,-0.34 1.557,-0.404 1.51,-0.459 1.463,-0.514 1.183,-0.272 1.023,-0.255 0.761,-0.228 0.421,-1.062 0.187,-0.881 0.042,-0.77 -0.072,-0.367 0,0"/></g><g transform="translate(21.7676,32.3501)" id="g158"><path id="path160" style="fill:#ffe8b6;fill-opacity:1;fill-rule:nonzero;stroke:none" d="M 0,0 -2.767,2.395 C -2.873,2.485 -3.03,2.473 -3.121,2.369 -3.21,2.265 -3.199,2.107 -3.094,2.017 l 2.767,-2.395 c 0.048,-0.041 0.106,-0.061 0.164,-0.061 0.07,0 0.14,0.029 0.189,0.086 C 0.116,-0.248 0.104,-0.09 0,0"/></g><g transform="translate(18.2944,29.7358)" id="g162"><path id="path164" style="fill:#ffe8b6;fill-opacity:1;fill-rule:nonzero;stroke:none" d="M 0,0 -2.572,2.071 C -2.681,2.157 -2.838,2.14 -2.924,2.033 -3.011,1.925 -2.994,1.768 -2.887,1.681 l 2.575,-2.071 c 0.045,-0.037 0.101,-0.055 0.156,-0.055 0.073,0 0.145,0.032 0.194,0.093 C 0.125,-0.244 0.108,-0.086 0,0"/></g><g transform="translate(8.4634,21.6836)" id="g166"><path id="path168" style="fill:#ffe8b6;fill-opacity:1;fill-rule:nonzero;stroke:none" d="M 0,0 -2.77,2.472 C -2.87,2.563 -3.028,2.555 -3.122,2.452 -3.214,2.349 -3.205,2.19 -3.102,2.099 l 2.77,-2.472 c 0.047,-0.043 0.106,-0.064 0.166,-0.064 0.068,0 0.137,0.029 0.187,0.084 C 0.112,-0.25 0.104,-0.092 0,0"/></g><g transform="translate(11.8931,24.3618)" id="g170"><path id="path172" style="fill:#ffe8b6;fill-opacity:1;fill-rule:nonzero;stroke:none" d="M 0,0 -2.644,2.482 C -2.742,2.577 -2.9,2.573 -2.997,2.471 -3.091,2.371 -3.086,2.212 -2.985,2.118 l 2.643,-2.482 c 0.048,-0.046 0.11,-0.068 0.171,-0.068 0.067,0 0.133,0.026 0.183,0.079 C 0.105,-0.252 0.101,-0.094 0,0"/></g></g></g></g></svg>
