<?xml version="1.0" encoding="UTF-8" standalone="no"?><svg xmlns:dc="http://purl.org/dc/elements/1.1/" xmlns:cc="http://creativecommons.org/ns#" xmlns:rdf="http://www.w3.org/1999/02/22-rdf-syntax-ns#" xmlns:svg="http://www.w3.org/2000/svg" xmlns="http://www.w3.org/2000/svg" viewBox="0 0 45 45" style="enable-background:new 0 0 45 45;" xml:space="preserve" version="1.1" id="svg2"><metadata id="metadata8"><rdf:RDF><cc:Work rdf:about=""><dc:format>image/svg+xml</dc:format><dc:type rdf:resource="http://purl.org/dc/dcmitype/StillImage"/></cc:Work></rdf:RDF></metadata><defs id="defs6"><clipPath id="clipPath16" clipPathUnits="userSpaceOnUse"><path id="path18" d="M 0,36 36,36 36,0 0,0 0,36 Z"/></clipPath></defs><g transform="matrix(1.25,0,0,-1.25,0,45)" id="g10"><g id="g12"><g clip-path="url(#clipPath16)" id="g14"><g transform="translate(24.3574,19.6636)" id="g20"><path id="path22" style="fill:#dd2e44;fill-opacity:1;fill-rule:nonzero;stroke:none" d="m 0,0 c 0,0 2.248,3.958 4.806,4.169 2.556,0.21 3.928,-0.935 4.143,-3.432 0.287,-3.334 -0.878,-3.802 -0.033,-7.53 0,0 -3.546,2.414 -2.421,6.07 C 7.667,3.083 1.686,2.372 2.659,-1.039 L 0,0 Z"/></g><g transform="translate(14.3096,15.625)" id="g24"><path id="path26" style="fill:#ffcc4d;fill-opacity:1;fill-rule:nonzero;stroke:none" d="m 0,0 c -0.553,0 -1,-0.447 -1,-1 l 0,-13.563 c 0,-0.552 0.447,-1 1,-1 0.553,0 1,0.448 1,1 L 1,-1 C 1,-0.447 0.553,0 0,0"/></g><g transform="translate(15.3096,10.2305)" id="g28"><path id="path30" style="fill:#f4900c;fill-opacity:1;fill-rule:nonzero;stroke:none" d="M 0,0 -2,-1.047 -2,-3.305 0,-2.258 0,0 Z"/></g><g transform="translate(13.3096,2.1758)" id="g32"><path id="path34" style="fill:#f4900c;fill-opacity:1;fill-rule:nonzero;stroke:none" d="M 0,0 2,1.047 2,3.305 0,2.258 0,0 Z"/></g><g transform="translate(3.9121,14.0645)" id="g36"><path id="path38" style="fill:#8899a6;fill-opacity:1;fill-rule:nonzero;stroke:none" d="m 0,0 c -1.181,0.117 -1.918,-1.621 -1.918,-1.621 0.114,-0.814 0.447,-2.255 0.597,-2.777 0.327,-1.141 2.121,-3.096 3.262,-2.769 1.141,0.327 0.814,1.468 0.487,2.608 C 2.101,-3.418 0,-5.181 0.634,-2.604 0.783,-1.998 1.499,-1.849 2.116,-1.91 4.478,-2.144 4.998,-1.687 5.904,-0.584 6.969,0.712 1.181,-0.117 0,0"/></g><g transform="translate(29.0537,7.3643)" id="g40"><path id="path42" style="fill:#8899a6;fill-opacity:1;fill-rule:nonzero;stroke:none" d="m 0,0 c 0,-2.373 1.187,-3.56 3.561,-3.56 2.373,0 1.186,0 0,2.373 C 2.373,1.187 0,2.374 0,2.374 L 0,0 Z"/></g><g transform="translate(34.9873,4.9912)" id="g44"><path id="path46" style="fill:#ccd6dd;fill-opacity:1;fill-rule:nonzero;stroke:none" d="m 0,0 c -1.187,1.187 -2.373,0 -2.373,2.374 0,2.373 -1.187,3.56 -2.374,3.56 -1.187,0 -1.187,4.746 -1.187,5.932 0,1.187 -2.373,5.933 -5.932,5.933 -3.56,0 -5.933,-1.187 -8.306,-1.187 -2.373,0 -3.56,0 -4.746,4.746 -0.91,3.641 -4.747,4.747 -8.307,3.56 0,0 -2.581,0.995 -1.395,-0.191 1.187,-1.187 -0.18,-0.995 -0.18,-3.369 0,-0.275 0.067,-0.515 0.175,-0.73 -0.009,-1.107 -0.019,-3.14 0.007,-3.619 0.036,-0.667 0.294,-0.883 1.131,-1.209 1.125,-0.437 1.781,0.32 1.853,0.709 0.147,0.791 0.022,1.656 0.022,1.656 0,0 1.166,0.469 1.896,1.135 0.097,-0.08 0.625,-1.145 0.051,-2.688 -0.413,-1.112 -1.186,-2.373 1.187,-5.932 0,0 -3.56,0 -4.747,-1.187 -1.186,-1.186 -1.475,-3.56 -1.452,-4.746 0.033,-1.648 1.452,-3.56 2.639,-3.56 1.187,0 1.187,1.187 1.187,2.374 0,1.186 -2.374,0 -1.187,2.373 1.187,2.373 1.187,1.186 2.373,1.186 1.187,0 3.56,1.187 4.747,1.187 1.186,0 3.56,-1.187 5.933,-1.187 2.373,0 4.746,2.373 7.119,0 C -9.493,4.747 -5.934,4.747 -4.747,3.561 -3.56,2.374 -3.56,1.187 -3.56,0 c 0,-1.187 2.373,-2.373 3.56,-2.373 1.187,0 1.187,1.186 0,2.373"/></g><g transform="translate(10.7119,24.2388)" id="g48"><path id="path50" style="fill:#3b94d9;fill-opacity:1;fill-rule:nonzero;stroke:none" d="m 0,0 c 1.006,-2.629 2.154,-2.635 4.104,-2.635 2,0 4.007,0.835 6.718,1.101 0.142,-0.361 0.276,-0.729 0.401,-1.101 1.186,-3.56 0,-5.933 -5.933,-5.933 -3.277,0 -5.933,2.656 -5.933,5.933 0,0.951 0.245,1.838 0.643,2.635"/></g><g transform="translate(5.6289,16.2949)" id="g52"><path id="path54" style="fill:#f4900c;fill-opacity:1;fill-rule:nonzero;stroke:none" d="M 0,0 C 0.225,-0.025 0.458,0.013 0.674,0.124 0.844,0.211 4.861,2.309 6.594,6.038 6.87,6.632 5.422,7.757 5.147,7.666 4.847,7.567 4.587,7.348 4.442,7.038 3.058,4.058 -0.378,2.252 -0.412,2.233 -0.993,1.932 -1.221,1.217 -0.921,0.636 -0.733,0.27 -0.381,0.043 0,0"/></g><g transform="translate(15.7646,20.7549)" id="g56"><path id="path58" style="fill:#1c6399;fill-opacity:1;fill-rule:nonzero;stroke:none" d="m 0,0 c 0,-0.642 -0.651,-1.163 -1.455,-1.163 -0.804,0 -1.455,0.521 -1.455,1.163 0,0.642 0.651,1.163 1.455,1.163 C -0.651,1.163 0,0.642 0,0"/></g><g transform="translate(14.3096,35.75)" id="g60"><path id="path62" style="fill:#ffcc4d;fill-opacity:1;fill-rule:nonzero;stroke:none" d="m 0,0 c -0.553,0 -1,-0.448 -1,-1 l 0,-1.817 0,-11.756 0.005,0.001 -0.003,-0.001 c 0.006,-0.547 0.449,-0.99 0.998,-0.99 0.553,0 1,0.448 1,1 L 1,-1.77 1,-1 C 1,-0.448 0.553,0 0,0"/></g><g transform="translate(15.3096,33.98)" id="g64"><path id="path66" style="fill:#f4900c;fill-opacity:1;fill-rule:nonzero;stroke:none" d="M 0,0 -2,-1.047 -2,-3.304 0,-2.257 0,0 Z"/></g><g transform="translate(15.3096,29.23)" id="g68"><path id="path70" style="fill:#f4900c;fill-opacity:1;fill-rule:nonzero;stroke:none" d="M 0,0 -2,-1.047 -2,-3.304 0,-2.257 0,0 Z"/></g><g transform="translate(13.3096,21.1875)" id="g72"><path id="path74" style="fill:#f4900c;fill-opacity:1;fill-rule:nonzero;stroke:none" d="M 0,0 C 0.005,-0.003 0.006,-0.003 0.011,-0.006 L 2,1.035 2,3.292 0,2.246 0,0 Z"/></g><g transform="translate(3.2744,22.7451)" id="g76"><path id="path78" style="fill:#1c6399;fill-opacity:1;fill-rule:nonzero;stroke:none" d="m 0,0 c -0.091,0 -0.182,0.025 -0.262,0.074 -1.136,0.698 -2.341,0.719 -2.353,0.719 -0.276,0.003 -0.497,0.229 -0.495,0.504 0.002,0.275 0.225,0.496 0.499,0.496 0.057,-0.01 1.129,-0.002 2.35,-0.584 C 0.026,2.048 0.503,3.876 0.204,6.132 0.168,6.406 0.36,6.657 0.634,6.693 0.91,6.727 1.159,6.537 1.195,6.264 1.647,2.854 0.5,0.389 0.452,0.286 0.391,0.157 0.278,0.061 0.142,0.021 0.096,0.007 0.048,0 0,0"/></g><g transform="translate(2.1533,27.6011)" id="g80"><path id="path82" style="fill:#292f33;fill-opacity:1;fill-rule:nonzero;stroke:none" d="m 0,0 c 0.195,-0.129 0.216,-0.441 0.046,-0.697 -0.169,-0.256 -0.464,-0.358 -0.66,-0.229 -0.195,0.13 -0.216,0.442 -0.046,0.697 C -0.491,0.027 -0.195,0.129 0,0"/></g><g transform="translate(12.4419,22.79)" id="g84"><path id="path86" style="fill:#dd2e44;fill-opacity:1;fill-rule:nonzero;stroke:none" d="m 0,0 c -2.373,2.373 -1.006,5.256 -3.379,7.629 -1.876,1.876 -4.927,1.864 -7.3,-0.509 0,0 1.121,-1.087 4.081,-1.379 C -5.168,5.6 -3.95,4.048 -3.261,2.959 -1.05,-1.352 1.795,-1.794 0,0"/></g></g></g></g></svg>
