<svg xmlns="http://www.w3.org/2000/svg" viewBox="0 0 36 36"><circle fill="#292F33" cx="23" cy="26" r="5"/><circle fill="#292F33" cx="13" cy="26" r="5"/><path fill="#292F33" d="M10 11h16v16H10z"/><path fill="#292F33" d="M18 19c0-4.418-3.582-8-8-8-4.111 0-7.494 3.102-7.945 7.093l-.003-.002-2 12.36.004.003C.022 30.632 0 30.812 0 31c0 1.657 1.343 3 3 3 .68 0 1.3-.234 1.803-.616l.009.006 10.157-8.127c.06-.047.12-.093.178-.142l.071-.058-.005-.003C16.917 23.594 18 21.425 18 19zm0 0c0-4.418 3.582-8 8-8 4.111 0 7.494 3.102 7.945 7.093l.004-.002 2 12.36-.004.003c.033.178.055.358.055.546 0 1.657-1.343 3-3 3-.68 0-1.3-.234-1.803-.616l-.01.006-10.156-8.127c-.06-.047-.119-.093-.178-.142l-.071-.058.005-.003C19.084 23.594 18 21.425 18 19z"/><circle fill="#F18F26" cx="27" cy="18" r="5"/><circle fill="#67757F" cx="23" cy="26" r="3"/><circle fill="#67757F" cx="13" cy="26" r="3"/><circle fill="#67757F" cx="9" cy="18" r="5"/><circle fill="#F18F26" cx="26.5" cy="15.5" r="1.5"/><circle fill="#F18F26" cx="29.5" cy="18.5" r="1.5"/><path fill="#292F33" d="M18 11c-.552 0-1-.448-1-1 0-2.025-.545-2.795-1.071-3.54C15.494 5.845 15 5.148 15 4.001 15 1.413 17.448.158 17.552.106c.493-.249 1.093-.047 1.342.447.247.494.047 1.094-.447 1.342-.009.004-1.447.763-1.447 2.106 0 .491.172.755.562 1.306C18.169 6.165 19 7.34 19 10c.001.553-.447 1-1 1z"/><path fill="#292F33" d="M24 11c0 1.104-.896 2-2 2h-8c-1.104 0-2-.896-2-2s.896-2 2-2h8c1.104 0 2 .896 2 2z"/></svg>