<svg xmlns="http://www.w3.org/2000/svg" viewBox="0 0 45 45" enable-background="new 0 0 45 45"><defs><clipPath id="a"><path d="M0 36h36V0H0v36z"/></clipPath><clipPath id="b"><path d="M8 36c-2.2 0-4-1.8-4-4V4c0-2.2 1.8-4 4-4h20c2.2 0 4 1.8 4 4v28c0 2.2-1.8 4-4 4H8z"/></clipPath><clipPath id="c"><path d="M0 36h36V0H0v36z"/></clipPath></defs><g><g><g clip-path="url(#a)" transform="matrix(1.25 0 0 -1.25 0 45)"><g><path fill="#dd2e44" d="M32 4c0-2.2-1.8-4-4-4H8C5.8 0 4 1.8 4 4v28c0 2.2 1.8 4 4 4h20c2.2 0 4-1.8 4-4V4z"/></g></g></g><g><g clip-path="url(#b)" transform="matrix(1.25 0 0 -1.25 0 45)"><g><path d="M32 8c-4.12 2.74-21.14 8.23-28 0-9.5-11.4-5.98-4.88-1.87-9C6.25-5.1 18.6-7.86 24.1-6.48c5.48 1.37 10.97-.98 10.97 2.63C35.07-.25 32 8 32 8"/></g></g></g><g><g clip-path="url(#c)" transform="matrix(1.25 0 0 -1.25 0 45)"><g><path fill="#fff" d="M22.85 23.5c0 4.2-3.4 7.58-7.57 7.58-4.2 0-7.58-3.4-7.58-7.57 0-4.18 3.4-7.57 7.58-7.57s7.57 3.4 7.57 7.58"/></g></g></g></g></svg>