<svg xmlns="http://www.w3.org/2000/svg" viewBox="0 0 45 45" enable-background="new 0 0 45 45"><defs><clipPath id="a"><path d="M0 36h36V0H0v36z"/></clipPath></defs><g><g><g clip-path="url(#a)" transform="matrix(1.25 0 0 -1.25 0 45)"><g><path fill="#5dadec" d="M14.18 35.83l-6.36-1.3c-.45-.1-.82-.54-.82-1V17.67c-.6.2-1.3.33-2 .33-2.76 0-5-1.74-5-3.9 0-2.14 2.24-3.88 5-3.88 2.7 0 4.9 1.7 5 3.78v15.52l4.18.86c.45.1.82.54.82 1v3.8c0 .44-.37.74-.82.65"/></g><g><path fill="#5dadec" d="M35.18 31.83l-6.36-1.3c-.45-.1-.82-.54-.82-1V13.67c-.6.2-1.3.33-2 .33-2.76 0-5-1.74-5-3.9 0-2.14 2.24-3.88 5-3.88 2.7 0 4.9 1.7 5 3.78v15.52l4.18.86c.45.1.82.54.82 1v3.8c0 .44-.37.74-.82.65"/></g><g><path fill="#5dadec" d="M23.18 25.83l-6.36-1.3c-.45-.1-.82-.54-.82-1V7.67c-.6.2-1.3.33-2 .33-2.76 0-5-1.74-5-3.9C9 1.97 11.24.23 14 .23c2.7 0 4.9 1.7 5 3.78v15.52l4.18.86c.45.1.82.54.82 1v3.8c0 .44-.37.74-.82.65"/></g></g></g></g></svg>