<svg xmlns="http://www.w3.org/2000/svg" viewBox="0 0 45 45" enable-background="new 0 0 45 45"><defs><clipPath id="a"><path d="M0 36h36V0H0v36z"/></clipPath></defs><g><g><g clip-path="url(#a)" transform="matrix(1.25 0 0 -1.25 0 45)"><g><path fill="#a0041e" d="M4 25v-.14c0 .05 0 .1 0 .13z"/></g><g><path fill="#a0041e" d="M13.8 6c-.98 0-2.02 1-2.3 2.25-.3 1.24.28 2.25 1.27 2.25 1 0 2.03-1 2.32-2.25C15.37 7 14.8 6 13.8 6m-5.57 7.5c-1 0-2.04 1-2.32 2.25C5.63 17 6.2 18 7.2 18c.98 0 2.02-1 2.3-2.25.3-1.24-.28-2.25-1.27-2.25m8.77.36c-.15.07-.3.15-.4.25L4.56 23.77c-.38.3-.57.7-.57 1.1V12.63c0-2.05 1.1-2.5 1.1-2.5s9.75-7.66 11.57-9.1c.2-.15.37-.25.52-.3-.12.17-.2.37-.2.6v12.53z"/></g><g><path fill="#dd2e44" d="M30.58 17.48c-.25-1.1-1.16-2-2.04-2-.87 0-1.37.9-1.12 2 .25 1.12 1.16 2.02 2.04 2.02.87 0 1.37-.9 1.12-2.02m-3.06-5.1c-.26-1.17-1.18-2.12-2.07-2.12-.88 0-1.4.95-1.13 2.12.25 1.17 1.18 2.12 2.06 2.12.88 0 1.4-.95 1.14-2.12M23.98 7.1c-.24-1.13-1.12-2.05-1.96-2.05-.84 0-1.32.92-1.08 2.06.24 1.14 1.12 2.07 1.96 2.07.84 0 1.32-.93 1.08-2.06m7.45 16.74l-12.1-9.73c-.1-.07-.2-.14-.33-.2V1.33c0-.24-.08-.44-.2-.62.16.07.34.17.55.34 1.82 1.43 11.6 9.1 11.6 9.1s1.05.44 1.05 2.48v12.33c0-.4-.2-.8-.57-1.1"/></g><g><path fill="#dd2e44" d="M32 25c0-.02 0-.04 0-.05V25z"/></g><g><path fill="#ea596e" d="M18.5 27.33c1.6 0 2.92-1.04 2.92-2.33 0-1.3-1.3-2.33-2.92-2.33-1.6 0-2.92 1.04-2.92 2.33 0 1.3 1.3 2.33 2.92 2.33m12.94-1.27L19.3 35.5c-.76.6-2 .6-2.75 0L4.57 25.97c-.34-.27-.52-.62-.55-.98 0-.05-.02-.1-.02-.14 0-.4.2-.8.57-1.1l12.02-9.65c.1-.1.25-.17.4-.24V1.33c0-.23.08-.43.2-.6.17-.3.46-.48.8-.48s.62.2.8.46c.12.2.2.4.2.63V13.9c.12.06.23.13.33.2l12.1 9.74c.38.3.57.7.57 1.1 0 .02 0 .04 0 .05-.02.38-.2.76-.57 1.05"/></g><g><path fill="#fff" d="M18.5 22.67c1.6 0 2.92 1.04 2.92 2.33 0 1.3-1.3 2.33-2.92 2.33-1.6 0-2.92-1.04-2.92-2.33 0-1.3 1.3-2.33 2.92-2.33"/></g><g><path fill="#fff" d="M29.46 19.5c-.88 0-1.8-.9-2.04-2.02-.25-1.1.25-2 1.12-2 .88 0 1.8.9 2.04 2 .25 1.12-.25 2.02-1.12 2.02"/></g><g><path fill="#fff" d="M26.38 14.5c-.9 0-1.8-.95-2.06-2.12-.26-1.17.25-2.12 1.13-2.12.9 0 1.8.95 2.07 2.12.25 1.17-.26 2.12-1.14 2.12"/></g><g><path fill="#fff" d="M22.9 9.17c-.84 0-1.72-.92-1.96-2.06-.24-1.13.24-2.05 1.08-2.05.84 0 1.72.92 1.96 2.06.24 1.15-.24 2.07-1.08 2.07"/></g><g><path fill="#e1e8ed" d="M7.2 18c-1 0-1.58-1-1.3-2.25.3-1.24 1.33-2.25 2.33-2.25s1.56 1 1.28 2.25C9.23 17 8.2 18 7.2 18"/></g><g><path fill="#e1e8ed" d="M12.77 10.5c-1 0-1.57-1-1.28-2.25C11.77 7 12.8 6 13.8 6c1 0 1.58 1 1.3 2.25-.3 1.24-1.33 2.25-2.33 2.25"/></g></g></g></g></svg>