<svg xmlns="http://www.w3.org/2000/svg" viewBox="0 0 45 45" enable-background="new 0 0 45 45"><defs><clipPath id="a"><path d="M0 36h36V0H0v36z"/></clipPath></defs><g><g><g clip-path="url(#a)" transform="matrix(1.25 0 0 -1.25 0 45)"><g><path fill="#292f33" d="M2 0S0 0 0 2v32s0 2 2 2h32.03C36 36 36 34 36 34V2s0-2-2-2H2z"/></g><g><path fill="#e1e8ed" d="M19 3s0-1 1-1h5c1 0 1 1 1 1v28h-7V3z"/></g><g><path fill="#e1e8ed" d="M28 31V3s0-1 1-1h4c1 0 1 1 1 1v28h-6z"/></g><g><path fill="#e1e8ed" d="M10 3s0-1 1-1h5c1 0 1 1 1 1v28h-7V3z"/></g><g><path fill="#e1e8ed" d="M2 3s0-1 1-1h4c1 0 1 1 1 1v28H2V3z"/></g><g><path fill="#292f33" d="M30 13s0-1-1-1h-4c-1 0-1 1-1 1v20h6V13z"/></g><g><path fill="#292f33" d="M21 13s0-1-1-1h-4c-1 0-1 1-1 1v20h6V13z"/></g><g><path fill="#292f33" d="M12 13s0-1-1-1H7c-1 0-1 1-1 1v20h6V13z"/></g></g></g></g></svg>