<svg xmlns="http://www.w3.org/2000/svg" viewBox="0 0 45 45" enable-background="new 0 0 45 45"><defs><clipPath id="a"><path d="M0 36h36V0H0v36z"/></clipPath><clipPath id="b"><path d="M20 36s-1 0-2-1-1-2-1-4 1-4 1-5c0-3-4-5-4-9.08C14 13.58 16 7 17 5h6c1 2 3 8.58 3 11.92C26 21 22 23 22 26c0 1 1 3 1 5s0 3-1 4-2 1-2 1z"/></clipPath><clipPath id="c"><path d="M0 36h36V0H0v36z"/></clipPath><clipPath id="d"><path d="M28 32c-1-1-1-2-1-4s1-4 1-5c0-3-4-5-4-9.08C24 10.58 26 4 27 2h6c1 2 3 8.58 3 11.92C36 18 32 20 32 23c0 1 1 3 1 5s0 3-1 4-2 1-2 1-1 0-2-1"/></clipPath><clipPath id="e"><path d="M0 36h36V0H0v36z"/></clipPath></defs><g><g><g clip-path="url(#a)" transform="matrix(1.25 0 0 -1.25 0 45)"><g><path fill="#ccd6dd" d="M22 26c0 1 1 3 1 5s0 3-1 4-2 1-2 1-1 0-2-1-1-2-1-4 1-4 1-5c0-3-4-5-4-9.08C14 13.58 16 7 17 5h6c1 2 3 8.58 3 11.92C26 21 22 23 22 26"/></g></g></g><g><g fill="#be1931" clip-path="url(#b)" transform="matrix(1.25 0 0 -1.25 0 45)"><path d="M23 26h-6v2h6v-2z"/><path d="M24 22h-8v2h8v-2z"/></g></g><g><g clip-path="url(#c)" transform="matrix(1.25 0 0 -1.25 0 45)"><g><path fill="#ccd6dd" d="M32 23c0 1 1 3 1 5s0 3-1 4-2 1-2 1-1 0-2-1-1-2-1-4 1-4 1-5c0-3-4-5-4-9.08C24 10.58 26 4 27 2h6c1 2 3 8.58 3 11.92C36 18 32 20 32 23"/></g></g></g><g><g fill="#be1931" clip-path="url(#d)" transform="matrix(1.25 0 0 -1.25 0 45)"><path d="M33 23h-6v2h6v-2z"/><path d="M34 19h-8v2h8v-2z"/></g></g><g><g clip-path="url(#e)" transform="matrix(1.25 0 0 -1.25 0 45)"><g><path fill="#3a4449" d="M12.56 0C5.62 0 0 5.62 0 12.56s5.62 12.56 12.56 12.56 12.56-5.62 12.56-12.56S19.5 0 12.56 0"/></g><g><path d="M15.23 17.2c0-1.27-1.04-2.3-2.32-2.3-1.26 0-2.3 1.03-2.3 2.3 0 1.3 1.04 2.33 2.3 2.33 1.3 0 2.33-1.04 2.33-2.32"/></g><g><path d="M8.82 15.06c0-1.28-1.04-2.3-2.32-2.3-1.27 0-2.3 1.02-2.3 2.3 0 1.28 1.03 2.32 2.3 2.32 1.28 0 2.32-1.04 2.32-2.32"/></g><g><path d="M13.75 7.95c0-1.28-1.04-2.32-2.32-2.32-1.28 0-2.3 1.04-2.3 2.32 0 1.28 1.02 2.3 2.3 2.3 1.28 0 2.32-1.02 2.32-2.3"/></g></g></g></g></svg>