<svg xmlns="http://www.w3.org/2000/svg" viewBox="0 0 45 45" enable-background="new 0 0 45 45"><defs><clipPath id="a"><path d="M0 36h36V0H0v36z"/></clipPath></defs><g><g><path fill="#8899a6" d="M7.5 3.75H0v37.5h45v-2.5H7.5V32.5H45V30H7.5v-6.25H45v-2.5H7.5V15H45v-2.5H7.5V6.25H45v-2.5H7.5z"/></g><g><g clip-path="url(#a)" transform="matrix(1.25 0 0 -1.25 0 45)"><g><path fill="#292f33" d="M18.6 17.42c.65.94 1.45 1.84 2.43 2.72l.34-1.74c-.72-.36-1.32-.9-1.8-1.6-.55-.83-.85-1.74-.87-2.73 0-.9.3-1.74.87-2.45.56-.7 1.3-1.18 2.17-1.4l.12-.03.12.02c.54.13.6.47.6.6 0 .36-.23.63-.6.73-.35.17-.62.42-.8.76-.2.38-.3.72-.3 1 0 .48.16.9.5 1.3.22.25.43.44.66.58l1.1-5.5c-.4-.1-.74-.14-1.06-.16-1.38.04-2.5.5-3.37 1.35-.42.44-.73.9-.94 1.42-.22.5-.33 1.05-.35 1.57.04 1.28.44 2.47 1.2 3.55m4.95 11.48c-.18-.53-.43-1.06-.75-1.58-.3-.5-.63-.97-.96-1.36-.1-.12-.2-.23-.28-.32-.08.35-.13.75-.15 1.17.02.7.12 1.37.3 2.1.18.65.42 1.25.7 1.74.3.47.63.7.95.7.12 0 .2-.02.26-.08.08-.07.13-.2.16-.45.03-.13.05-.3.05-.5 0-.43-.08-.9-.25-1.4m1.15-18.64l-1.04 5.15c.26-.05.5-.14.72-.27.4-.22.7-.53.95-.94.24-.4.4-.84.46-1.3 0-1.25-.37-2.12-1.1-2.64m3.13 5.18c-.23.64-.55 1.22-.95 1.72-.4.5-.93.93-1.53 1.23-.6.3-1.26.45-1.98.45-.1 0-.2 0-.37-.02l-.53 2.6c.6.6 1.16 1.3 1.62 2.07.48.84.87 1.77 1.13 2.74.27.97.4 1.94.4 2.94 0 2.1-.54 3.94-1.63 5.48-.16.2-.3.34-.38.43-.4.34-.8.4-1.7-.28-.48-.35-.9-.86-1.23-1.5-.36-.65-.62-1.37-.8-2.2-.18-.83-.28-1.73-.3-2.7.05-1.34.24-2.7.6-4-.78-.78-1.4-1.43-1.9-1.95-.5-.57-1.03-1.22-1.53-1.95-.5-.7-.9-1.5-1.24-2.32-.3-.8-.5-1.7-.53-2.65 0-1 .2-1.95.56-2.87.37-.9.88-1.72 1.55-2.45.67-.72 1.45-1.3 2.33-1.7 1.23-.56 2.65-.74 4.02-.5.06-.3.15-.63.25-1.02.15-.64.27-1.17.34-1.55.08-.4.1-.77.1-1.13 0-.54-.04-.95-.18-1.3-.05-.2-.2-.4-.4-.62-.24-.22-.5-.4-.84-.53-.47-.18-.93-.23-1.3-.18.2.1.38.23.54.4.44.44.66.98.66 1.62 0 .44-.1.87-.33 1.28-.23.37-.52.68-.9.93-.37.22-.78.34-1.22.34-.52-.04-.96-.2-1.3-.47-.37-.27-.66-.62-.86-1.05-.2-.4-.3-.85-.34-1.37.04-1.04.48-1.88 1.3-2.5C19.8.3 20.7 0 21.74 0c.74 0 1.43.16 2.05.5.63.3 1.15.78 1.53 1.4.38.6.57 1.28.57 2.04 0 .5-.05.96-.13 1.4-.1.47-.2 1.1-.4 1.88-.1.54-.2 1-.27 1.35.96.43 1.7 1.05 2.22 1.85.57.9.86 1.9.86 3 0 .67-.1 1.34-.33 2.02"/></g></g></g></g></svg>