<svg xmlns="http://www.w3.org/2000/svg" viewBox="0 0 45 45" enable-background="new 0 0 45 45"><defs><clipPath id="a"><path d="M0 36h36V0H0v36z"/></clipPath><clipPath id="b"><path d="M19.08 32.3c-.25-.15-6.07-4.06-7.08-4.78-.37-.26-.48-.77-.24-1.16.68-1.1 3.73-6.13 5.04-8.32-1.37-1.13-3.43-2.9-5.06-4.6-.15-.17-.23-.38-.23-.6 0-.6.15-1.38.36-2.36.05-.25.22-.46.45-.58.13-.07.27-.1.4-.1.12 0 .23.02.34.06.13.06 12.96 5.37 14.3 5.87.34.12.57.45.57.8 0 .93-1 4.82-1.02 4.86-.02.07-.06.15-.1.23-.67 1.07-1.52 2.47-2.38 3.9-1.82 3-3.52 5.82-4.16 6.6-.17.22-.42.33-.68.33-.17 0-.33-.05-.48-.15"/></clipPath><clipPath id="c"><path d="M0 36h36V0H0v36z"/></clipPath></defs><g><g><g clip-path="url(#a)" transform="matrix(1.25 0 0 -1.25 0 45)"><g><path fill="#e1e8ed" d="M36 20.95V4s0-4-4-4H4C0 0 0 4 0 4v2s15.96 6.87 36 14.95"/></g><g><path fill="#55acee" d="M12.7 9.8c-.13 0-.27.03-.4.1-.22.12-.4.33-.44.58-.2.98-.35 1.75-.35 2.35 0 .23.1.44.24.6 1.63 1.72 3.7 3.48 5.06 4.6-1.3 2.2-4.36 7.24-5.04 8.33-.24.4-.13.9.24 1.16 1 .72 6.83 4.63 7.08 4.8.37.25.88.17 1.16-.18.64-.8 2.35-3.62 4.16-6.6.86-1.44 1.7-2.84 2.38-3.9.05-.1.08-.17.1-.25 0-.05 1.03-3.94 1.03-4.86 0-.36-.22-.7-.56-.8-1.34-.5-14.17-5.82-14.3-5.88-.1-.04-.22-.06-.33-.06"/></g><g><path fill="#269" d="M11.75 8.63c-.34 0-.66.2-.8.53-.2.44.02.95.46 1.14l7.22 3.04c.45.2.95-.02 1.14-.46.2-.44-.02-.95-.46-1.14L12.1 8.7c-.12-.05-.24-.07-.35-.07"/></g><g><path fill="#269" d="M23.83 13.7c-.33 0-.65.2-.8.54-.18.44.02.95.46 1.14l4.78 2.08c.44.2.95 0 1.14-.45.2-.43 0-.94-.45-1.13l-4.8-2.08c-.1-.06-.22-.1-.34-.1"/></g><g><path fill="#be1931" d="M5.6 4.34c-.2 0-.42.02-.62.04-1.26.2-2.26.94-2.87 2.17-.24.5-.04 1.1.45 1.34.5.24 1.1.04 1.34-.45C4.52 6.18 5.75 6 7.54 6.9c1.23.6 7.66 3.3 14.46 6.14 4.4 1.84 8.8 3.68 11.6 4.88.5.22 1.1-.02 1.32-.53.22-.5-.02-1.1-.53-1.32-2.8-1.2-7.2-3.04-11.6-4.88C16.3 8.5 9.6 5.7 8.44 5.1c-1.02-.5-1.98-.76-2.86-.76"/></g></g></g><g><g clip-path="url(#b)" transform="matrix(1.25 0 0 -1.25 0 45)"><g><path fill="#3b88c3" d="M22.67 33.82c-.28.36-.76.48-1.18.3-1.18-.47-1.23-1.53-1.26-2.3-.05-1.12-.12-2.65-3-4.7-.87-.57-.68-1.47 1.04-5.04.9-1.87 2-3.92 2.5-4.76.17-.3.5-.5.84-.5.1 0 .2.03.3.06 1.34.42 3.16 1.14 4.78 1.77 1.17.46 2.28.9 3.04 1.15.38.13.67.44.8.83.4 1.38-2.23 5.8-7.87 13.2"/></g></g></g><g><g clip-path="url(#c)" transform="matrix(1.25 0 0 -1.25 0 45)"><g><path fill="#269" d="M16.7 21.47c-.3 0-.57.14-.74.4-.26.4-.15.94.25 1.2l2.5 1.63c.4.26.95.14 1.2-.26.28-.4.16-.94-.24-1.2l-2.5-1.63c-.14-.08-.3-.13-.47-.13"/></g><g><path fill="#269" d="M18.68 18.4c-.42 0-.8.3-.86.73-.07.47.25.92.72 1l2.97.46c.5.07.93-.26 1-.73.08-.47-.24-.92-.72-1l-2.96-.46c-.05 0-.1 0-.14 0"/></g><g><path fill="#269" d="M19.54 13.92c-.14 0-.28.04-.4.1l-1.74.93c-.42.23-.58.75-.36 1.18.23.42.75.58 1.18.35l1.73-.92c.42-.23.58-.75.36-1.18-.15-.3-.45-.46-.76-.46"/></g><g><path fill="#bbddf5" d="M23.54 30.46c-.3 0-.6.16-.75.45-.25.42-.1.95.32 1.2l5.62 3.16c.42.23.95.08 1.18-.33.24-.42.1-.95-.33-1.2l-5.63-3.15c-.14-.08-.28-.12-.43-.12"/></g><g><path fill="#bbddf5" d="M26.04 26.76c-.3 0-.6.16-.75.44-.25.42-.1.95.32 1.18l3.33 1.88c.42.23.95.08 1.18-.33.24-.42.1-.95-.33-1.2l-3.33-1.86c-.14-.08-.28-.1-.43-.1"/></g><g><path fill="#bbddf5" d="M28.04 22.76c-.3 0-.6.16-.76.45-.23.43-.08.96.34 1.2l2.2 1.2c.43.23.96.07 1.2-.35.22-.42.07-.95-.35-1.18l-2.2-1.2c-.14-.08-.3-.1-.43-.1"/></g></g></g></g></svg>