<svg xmlns="http://www.w3.org/2000/svg" viewBox="0 0 45 45" enable-background="new 0 0 45 45"><defs><clipPath id="a"><path d="M0 36h36V0H0v36z"/></clipPath></defs><g><g><g clip-path="url(#a)" transform="matrix(1.25 0 0 -1.25 0 45)"><g><path fill="#fcab40" fill-rule="evenodd" d="M14 20L9 10s-1-2 1-2c1 0 2 2 2 2l14 19s2 4 8 1v-2c-3 1-4-1-4-1L15 3s-2-3-7-3C2 0 1 5 1 8c0 2 1 4 2 6s-2 6-2 6h13z"/></g><g><path fill="#fdcb58" d="M7.5 16C4.04 16 0 17.05 0 20s4.04 4 7.5 4 7.5-1.05 7.5-4-4.04-4-7.5-4"/></g><g><path fill="#ccd6dd" d="M21 19c0-1.1-.9-2-2-2s-2 .9-2 2 .9 2 2 2 2-.9 2-2"/></g><g><path fill="#ccd6dd" d="M24 23c0-1.1-.9-2-2-2s-2 .9-2 2 .9 2 2 2 2-.9 2-2"/></g><g><path fill="#ccd6dd" d="M27 27c0-1.1-.9-2-2-2s-2 .9-2 2 .9 2 2 2 2-.9 2-2"/></g><g><path fill="#9aaab4" d="M34 26c-.3 0-.6.07-.9.2l-2 1c-.98.5-1.38 1.7-.9 2.7.5.98 1.7 1.38 2.7.9l2-1c.98-.5 1.38-1.7.9-2.7-.36-.7-1.07-1.1-1.8-1.1"/></g><g><path fill="#fcab40" fill-rule="evenodd" d="M16.27 10.78L15 9.23 8.8 14.3l1.27 1.54 6.2-5.06z"/></g></g></g></g></svg>