<svg xmlns="http://www.w3.org/2000/svg" viewBox="0 0 45 45" enable-background="new 0 0 45 45"><defs><clipPath id="a"><path d="M0 36h36V0H0v36z"/></clipPath><clipPath id="b"><path d="M18 36C8.06 36 0 27.94 0 18S8.06 0 18 0s18 8.06 18 18-8.06 18-18 18z"/></clipPath></defs><g><g><g clip-path="url(#a)" transform="matrix(1.25 0 0 -1.25 0 45)"><g><path fill="#77b255" d="M18 0C8.06 0 0 8.06 0 18s8.06 18 18 18 18-8.06 18-18S27.94 0 18 0"/></g></g></g><g><g clip-path="url(#b)" transform="matrix(1.25 0 0 -1.25 0 45)"><g><path fill="#a6d388" d="M34 32c4.35 0 9-3.68 9-14S38.35 4 34 4s-9 3.68-9 14 4.65 14 9 14"/></g><g><path fill="#fff" d="M34 6c4.32 0 7 4.6 7 12s-2.68 12-7 12-7-4.6-7-12 2.68-12 7-12m0 26c4.35 0 9-3.68 9-14S38.35 4 34 4s-9 3.68-9 14 4.65 14 9 14"/></g><g><path fill="#a6d388" d="M2 32c4.35 0 9-3.68 9-14S6.35 4 2 4s-9 3.68-9 14 4.65 14 9 14"/></g><g><path fill="#fff" d="M2 6c4.32 0 7 4.6 7 12S6.32 30 2 30s-7-4.6-7-12S-2.32 6 2 6m0 26c4.35 0 9-3.68 9-14S6.35 4 2 4s-9 3.68-9 14 4.65 14 9 14"/></g></g></g></g></svg>