<svg xmlns="http://www.w3.org/2000/svg" viewBox="0 0 45 45" enable-background="new 0 0 45 45"><defs><clipPath id="a"><path d="M0 36h36V0H0v36z"/></clipPath></defs><g><g><g clip-path="url(#a)" transform="matrix(1.25 0 0 -1.25 0 45)"><g><path fill="#ffdc5d" d="M23.33 4.43c-.4.7-2.06 3.52-2.27 4.2-.2.7-.65 5.92-.43 8.5 0 0-4.17 2.7-3.8-.28.37-3.04 1.25-8.78 1.4-9.33.18-.55 2.6-3.45 3.35-4.4.42-.52 2.1.7 1.75 1.3"/></g><g><path fill="#be1931" d="M20.75 17.13l-4.48-.28c.24-1.65-.65-4.65 1.5-6.08 0 0 2.83.58 4.45.04.8-.26-1.62 4.82-1.47 6.33"/></g><g><path fill="#ffdc5d" d="M19.75 17.9c-.52 2.87-5.22-.46-5.22-.46s-1.77-8.65-1.77-9.48c0-.83.92-4.53 1.17-5.86.08-.44 2.63-.6 2.52.36-.07.6-.52 4.5-.44 4.94.08.46.46 2.9 1.12 4.43.47 1.1 3.32 2.25 2.63 6.08"/></g><g><path fill="#dd2e44" d="M13.94 17.44l-1.78-5.88c2.48-.95 5.56-.93 5.62-.8.08.2-.52.6-.43.77.6 1.1 4.24 2.55 3.37 6.38-.64 2.87-6.78-.46-6.78-.46"/></g><g><path fill="#66757f" d="M13.23 32.52c-.15-.28-.65-.3-1.1-.05l-2.6 1.42c-.46.24.02 1.3.47 1.04l2.7-1.46c.44-.25.53-.96.53-.96"/></g><g><path fill="#ccd6dd" d="M16.5 2.26c-.65.86-4.7-.26-6.1-.96C9.45.83 9.73 0 9.73 0h7.03s.4 1.4-.26 2.26"/></g><g><path fill="#ffcc4d" d="M20.36 27.07c-2.15 1.12-5.03 2.74-7.28 5.7-.23.32-2.12-.93-1.97-1.15 2.14-2.93 4.45-5.5 11.1-7.4.06 0 .1-.02.16-.04.2.27-1.1 2.42-2 2.9"/></g><g><path fill="#ffdc5d" d="M25.4 30.78c0-1.97-1.6-3.57-3.58-3.57s-3.58 1.6-3.58 3.58 1.6 3.58 3.58 3.58c1.97 0 3.58-1.6 3.58-3.58"/></g><g><path fill="#dd2e44" d="M19.95 30.78c-1.7 1.28-2.6 3.85-1.95 4.53 1.2 1.28 3.7.12 4.33-.97.64-1.1-1.86-3.93-2.38-3.55"/></g><g><path fill="#9266cc" d="M13.94 17.44s-.7 6.78 2.38 9.15c2.3 1.75 6.14.43 7.17-1.6 1-2.06-2.65-3.18-2.65-8.3 0-1.02-6.9-1.27-6.9.74"/></g><g><path fill="#ffdc5d" d="M20.2 30.2c-.47-1.08-.8-2-1-2.8.58-.27 1.07-1.3 1.7-1.54 1.07-.38 1.18.28 1.2.4.27 1.3.92 2.54 1.34 3.2.5.8-2.65 2.1-3.24.73"/></g><g><path fill="#ea596e" d="M18.96 32.94c0-1.15 1.68-4.5 4.97-4.47 1.73 0 2.04 1.9 2.03 3.17 0 1.08-1.17 2.96-2.8 3.43-1.64.47-4.2-.68-4.2-2.13"/></g><g><path fill="#ccd6dd" d="M22.9 4.54c1.5.26 1.3-1.38 1.25-1.97-.1-1.4-.37-2.57-1.36-2.57h-3.33s-.2 1.52 1.6 1.87c.36.07-.3 2.3 1.84 2.67"/></g><g><path fill="#ffdc5d" d="M13.84 32.74c0-.92-.76-1.66-1.7-1.66-.95 0-1.7.74-1.7 1.66 0 .9.75 1.65 1.7 1.65.94 0 1.7-.75 1.7-1.66"/></g><g><path fill="#ffdc5d" d="M17.92 26.33c-2 0-3.44.5-4.3 1.48-.73.86-1 2.06-.78 3.57l.03.17c.06.35.07.42-.14.6-.25.23-.85.46-1.42.46-.48 0-.74-.15-.78-.46-.87-7.12 4.1-7.83 5.73-8.06.1 0 .18-.02.25-.03.3.4 1.05 1.4 1.73 2.28-.1 0-.2 0-.3 0"/></g><g><path fill="#66757f" d="M29.6 24.08c1.03-.52.87-4.6 0-4.6-.86 0-2.18.8-2 1.62.2.8.9 3.55 2 2.98"/></g><g><path fill="#ffac33" d="M23.5 28.1s-.2 1.07 1.3 1.2c1.24.1 1.57-1.26 2.46-1.74.68-.36 1.45-.38 2 0 0 0-.75-.9-1.58-1.25-1.08-.43-2.4-.15-3.05.2-1 .52-1.12 1.6-1.12 1.6"/></g><g><path fill="#66757f" d="M29.96 23.25c-.15-.28-.64-.3-1.1-.05l-15.3 8.48c-.46.25-.2 1.42.24 1.17l15.62-8.65c.45-.25.7-.67.54-.95"/></g><g><path fill="#9266cc" d="M14.44 27.6c-.38-1.27-1.6-2.7-1.6-2.7 1.76-1.6 3.84-1.73 3.84-1.73s1.82 2.05 2.16 3.28c-1.55-.43-4.4 1.16-4.4 1.16"/></g></g></g></g></svg>