<?xml version="1.0" encoding="UTF-8" standalone="no"?><svg xmlns:dc="http://purl.org/dc/elements/1.1/" xmlns:cc="http://creativecommons.org/ns#" xmlns:rdf="http://www.w3.org/1999/02/22-rdf-syntax-ns#" xmlns:svg="http://www.w3.org/2000/svg" xmlns="http://www.w3.org/2000/svg" viewBox="0 0 45 45" style="enable-background:new 0 0 45 45;" xml:space="preserve" version="1.1" id="svg2"><metadata id="metadata8"><rdf:RDF><cc:Work rdf:about=""><dc:format>image/svg+xml</dc:format><dc:type rdf:resource="http://purl.org/dc/dcmitype/StillImage"/></cc:Work></rdf:RDF></metadata><defs id="defs6"><clipPath id="clipPath16" clipPathUnits="userSpaceOnUse"><path id="path18" d="M 0,36 36,36 36,0 0,0 0,36 Z"/></clipPath></defs><g transform="matrix(1.25,0,0,-1.25,0,45)" id="g10"><g id="g12"><g clip-path="url(#clipPath16)" id="g14"><g transform="translate(14.3159,31.7393)" id="g20"><path id="path22" style="fill:#7c533e;fill-opacity:1;fill-rule:nonzero;stroke:none" d="m 0,0 c -1.207,-0.267 0,-2.138 -0.37,-3.348 -0.252,-0.837 1.474,-0.941 1.474,-0.941 0,0 1.207,0.267 1.003,-1.676 C 1.9,-7.905 4.579,-8.581 4.784,-6.638 4.988,-4.697 3.399,-3.65 4.273,-2.138 6.365,1.481 0,0 0,0"/></g><g transform="translate(27.001,18)" id="g24"><path id="path26" style="fill:#7c533e;fill-opacity:1;fill-rule:nonzero;stroke:none" d="m 0,0 c -0.367,0 -0.72,0.202 -0.896,0.553 -1.788,3.575 -7.366,5.48 -7.422,5.499 -0.523,0.176 -0.806,0.742 -0.631,1.265 0.175,0.523 0.735,0.809 1.264,0.632 C -7.424,7.862 -1.267,5.768 0.893,1.447 1.141,0.953 0.94,0.353 0.446,0.105 0.303,0.034 0.15,0 0,0"/></g><g transform="translate(12.0015,1.999)" id="g28"><path id="path30" style="fill:#2a6797;fill-opacity:1;fill-rule:nonzero;stroke:none" d="m 0,0 c -0.182,0 -0.367,0.025 -0.55,0.078 -1.062,0.304 -1.678,1.41 -1.374,2.473 l 2,7 c 0.124,0.434 0.392,0.814 0.76,1.077 l 7,5 c 0.897,0.642 2.148,0.435 2.79,-0.465 0.642,-0.898 0.434,-2.147 -0.465,-2.789 L 3.73,7.779 1.922,1.451 C 1.671,0.573 0.87,0.001 0,0"/></g><g transform="translate(26.998,5)" id="g32"><path id="path34" style="fill:#4289c1;fill-opacity:1;fill-rule:nonzero;stroke:none" d="m 0,0 c -0.3,0 -0.605,0.067 -0.893,0.211 l -6,3 C -7.57,3.55 -7.998,4.242 -7.998,5 l 0,5 c 0,1.105 0.896,2 2,2 1.105,0 2,-0.895 2,-2 l 0,-3.764 4.894,-2.447 C 1.885,3.295 2.285,2.094 1.791,1.105 1.441,0.404 0.734,0 0,0"/></g><g transform="translate(9.645,1.9902)" id="g36"><path id="path38" style="fill:#292f33;fill-opacity:1;fill-rule:nonzero;stroke:none" d="M 0,0 3.396,-1.141 C 3.956,1.836 2.424,1.296 0.439,1.962 -1.546,2.628 -3.473,2.221 -3.792,1.272 -3.013,1.012 -2.283,0.766 -0.948,0.317 -0.659,0.221 -0.353,0.118 0,0"/></g><g transform="translate(28.8906,5.0801)" id="g40"><path id="path42" style="fill:#292f33;fill-opacity:1;fill-rule:nonzero;stroke:none" d="M 0,0 0.68,3.518 C -2.345,3.677 -1.606,2.229 -2.003,0.175 -2.4,-1.882 -1.74,-3.738 -0.759,-3.928 c 0.157,0.807 0.303,1.564 0.57,2.947 C -0.131,-0.683 -0.07,-0.365 0,0"/></g><g transform="translate(24,17)" id="g44"><path id="path46" style="fill:#a0041e;fill-opacity:1;fill-rule:nonzero;stroke:none" d="m 0,0 c 0,0 0,-2 -2,-2 -2,0 -3.999,1 -3.999,1 -2,6.001 -4,9.001 -0.153,10.914 C -3.167,11.398 -1,5 0,0"/></g><g transform="translate(14.3159,31.1753)" id="g48"><path id="path50" style="fill:#b39155;fill-opacity:1;fill-rule:nonzero;stroke:none" d="m 0,0 c -1.316,-0.175 -1.073,1.199 -0.316,1.825 1.067,0.884 3.521,0.83 4.589,-0.055 1.068,-0.885 1.068,-2.656 0,-3.54 -0.755,-0.625 -1.068,-1.77 -1.068,0 0,1.77 -1.07,-10e-4 -1.07,0.884 C 2.135,0 0,0 0,0"/></g><g transform="translate(20,31)" id="g52"><path id="path54" style="fill:#7c533e;fill-opacity:1;fill-rule:nonzero;stroke:none" d="m 0,0 c 0,-2.209 -1.791,-4 -4,-4 -2.209,0 -4,1.791 -4,4 0,2.209 1.791,4 4,4 2.209,0 4,-1.791 4,-4"/></g><g transform="translate(11,31)" id="g56"><path id="path58" style="fill:#0b0200;fill-opacity:1;fill-rule:nonzero;stroke:none" d="M 0,0 C 0,0 0,4 5,4 9,4 9,0 9,0 9,0 9,2 6,2 3.999,2 4,-1 0,0"/></g><g transform="translate(16.1431,23.5146)" id="g60"><path id="path62" style="fill:#7c533e;fill-opacity:1;fill-rule:nonzero;stroke:none" d="m 0,0 c -0.028,-0.046 -2.825,-4.631 -7.339,-5.534 l 0.004,-0.02 c -0.457,-0.092 -0.808,-0.476 -0.808,-0.961 0,-0.552 0.448,-1 1,-1 0.069,0 0.128,0.026 0.193,0.04 l 0.004,-0.02 c 5.372,1.074 8.529,6.246 8.661,6.466 L 0,0 Z"/></g></g></g></g></svg>
