<svg xmlns="http://www.w3.org/2000/svg" viewBox="0 0 45 45" enable-background="new 0 0 45 45"><defs><clipPath id="a"><path d="M0 36h36V0H0v36z"/></clipPath></defs><g><g><g clip-path="url(#a)" transform="matrix(1.25 0 0 -1.25 0 45)"><g><path fill="#d99e82" d="M35.54 9.32s1.33-2.2-2.66-6.2c-4-4-6.2-2.66-6.2-2.66l-19.5 19.5s.98 2.74 3.55 5.3c2.57 2.58 5.32 3.56 5.32 3.56l19.5-19.5z"/></g><g><path fill="#c1694f" d="M13.4 26.16c.97-.98 4.5-6.1 3.53-7.1-.98-.97-6.1 2.57-7.1 3.55L1 31.48c-.97.98-.97 2.57 0 3.55.98.97 2.57.97 3.55 0l8.86-8.86z"/></g><g><path fill="#292f33" d="M9.84 29.7L6.3 26.16l-5.32 5.3 3.55 3.56 5.3-5.32z"/></g><g><path fill="#be1931" d="M24 5c0-2.76-2.24-5-5-5s-5 2.24-5 5 2.24 5 5 5 5-2.24 5-5"/></g><g><path fill="#662113" d="M19 0c-.55 0-1 .45-1 1v8c0 .55.45 1 1 1s1-.45 1-1V1c0-.55-.45-1-1-1"/></g></g></g></g></svg>