<?xml version="1.0" encoding="UTF-8" standalone="no"?><svg xmlns:dc="http://purl.org/dc/elements/1.1/" xmlns:cc="http://creativecommons.org/ns#" xmlns:rdf="http://www.w3.org/1999/02/22-rdf-syntax-ns#" xmlns:svg="http://www.w3.org/2000/svg" xmlns="http://www.w3.org/2000/svg" viewBox="0 0 45 45" style="enable-background:new 0 0 45 45;" xml:space="preserve" version="1.1" id="svg2"><metadata id="metadata8"><rdf:RDF><cc:Work rdf:about=""><dc:format>image/svg+xml</dc:format><dc:type rdf:resource="http://purl.org/dc/dcmitype/StillImage"/></cc:Work></rdf:RDF></metadata><defs id="defs6"><clipPath id="clipPath16" clipPathUnits="userSpaceOnUse"><path id="path18" d="M 0,36 36,36 36,0 0,0 0,36 Z"/></clipPath></defs><g transform="matrix(1.25,0,0,-1.25,0,45)" id="g10"><g id="g12"><g clip-path="url(#clipPath16)" id="g14"><g transform="translate(28.7207,23.1509)" id="g20"><path id="path22" style="fill:#292f33;fill-opacity:1;fill-rule:nonzero;stroke:none" d="M 0,0 C 0,0 3.81,-1.643 5.532,-0.45 7.255,0.744 7.642,2.323 6.691,4.287 5.74,6.248 3.067,7.019 2.979,9.579 c 0,0 -0.297,-4.141 1.513,-5.504 C 7.054,2.142 4.046,-0.135 0.97,0.247 -2.108,0.628 0,0 0,0"/></g><g transform="translate(23.875,16.625)" id="g24"><path id="path26" style="fill:#8a4b38;fill-opacity:1;fill-rule:nonzero;stroke:none" d="m 0,0 c 0,0 -0.628,-2.542 0.187,-5.03 0.145,-0.34 0.048,-0.556 -0.208,-0.678 -0.256,-0.123 -4.294,-1.542 -4.729,-1.771 -0.396,-0.208 -1.143,-1.78 -1.208,-2.854 0.843,-0.218 1.625,-0.105 1.625,-0.105 0,0 0.025,1.916 0.208,2.042 0.183,0.127 5.687,1.047 6.062,1.771 0.376,0.724 1.612,3.888 0.813,5.292 -0.225,0.395 -0.637,1.149 -0.637,1.149 L 0,0 Z"/></g><g transform="translate(17.9165,6.292)" id="g28"><path id="path30" style="fill:#292f33;fill-opacity:1;fill-rule:nonzero;stroke:none" d="m 0,0 c 0,0 -0.616,-1.993 0.009,-2.139 0.605,-0.141 1.694,0.388 1.755,0.646 0.08,0.343 0.216,1.179 0.098,1.366 C 1.744,0.061 0,0 0,0"/></g><g transform="translate(11.8125,14.125)" id="g32"><path id="path34" style="fill:#8a4b38;fill-opacity:1;fill-rule:nonzero;stroke:none" d="m 0,0 -0.75,2.563 c 0,0 -2.766,-2.106 -3.938,-3.594 -0.345,-0.438 -1.847,-3.198 -1.722,-4.413 0.05,-0.488 0.473,-2.583 0.473,-2.583 l 1.652,0.465 c 0,0 -1.313,1.895 -1.021,2.562 C -3.879,-1.738 0,0 0,0"/></g><g transform="translate(7.6792,6.5762)" id="g36"><path id="path38" style="fill:#292f33;fill-opacity:1;fill-rule:nonzero;stroke:none" d="m 0,0 c -0.172,0.139 -1.803,-0.479 -1.803,-0.479 0,0 0.057,-2.084 0.695,-2.022 0.618,0.061 1.48,0.912 1.454,1.176 C 0.312,-0.975 0.172,-0.14 0,0"/></g><g transform="translate(27.1875,24.8125)" id="g40"><path id="path42" style="fill:#c1694f;fill-opacity:1;fill-rule:nonzero;stroke:none" d="m 0,0 c -3.438,-0.156 -7.207,-0.437 -9.5,-0.437 -3.655,0 -5.219,1.428 -6.562,2.625 -2.287,2.036 -2.959,4.221 -5.125,3.499 0,0 -0.633,0.411 -1.248,0.777 -0.088,0.053 -0.175,0.103 -0.261,0.153 -0.256,0.148 -0.491,0.275 -0.656,0.346 -0.164,0.072 -0.257,0.087 -0.228,0.011 0.019,-0.051 0.093,-0.143 0.237,-0.287 0.472,-0.472 0.675,-0.95 0.728,-1.394 -2.01,-1.202 -2.093,-2.276 -2.871,-3.552 -0.493,-0.807 -1.36,-2.054 -1.56,-2.515 -0.412,-0.948 1.024,-2.053 1.706,-1.407 0.893,0.846 0.961,1.122 2.031,1.744 0.984,0.016 1.976,0.416 2.309,1.02 0,0 0.938,-2.083 1.938,-3.583 1,-1.5 2.5,-3.125 2.5,-3.125 -0.131,-1.228 0.12,-2.176 0.548,-2.922 -0.385,-0.757 -0.923,-1.807 -1.417,-2.745 -0.656,-1.245 -1.473,-3.224 -1.209,-3.618 0.534,-0.797 2.719,-2.926 4.137,-3.311 1.03,-0.279 2.14,-0.436 2.14,-0.436 l -0.193,1.574 c 0,0 -1.342,-0.214 -1.875,0.083 -1.427,0.795 -2.667,2.248 -2.709,2.542 -0.069,0.486 3.842,2.868 5.141,3.645 2.266,-0.097 6.021,0.369 8.626,1.702 0.958,-1.861 2.977,-2.514 2.977,-2.514 0,0 0.667,-2.208 1.375,-4.125 -1.017,-0.532 -4.467,-3.254 -4.974,-3.854 -0.456,-0.541 -0.857,-2.49 -0.857,-2.49 0.821,-0.375 1.571,-0.187 1.571,-0.187 0,0 0.039,1.562 0.385,2.073 0.346,0.511 4.701,2.559 5.959,3.458 0.492,0.352 0.404,0.902 0.262,1.552 -0.322,1.47 -0.971,4.781 -0.971,4.781 C 7.5,-7.937 8.813,0.4 0,0"/></g><g transform="translate(22.3359,2.2178)" id="g44"><path id="path46" style="fill:#292f33;fill-opacity:1;fill-rule:nonzero;stroke:none" d="m 0,0 c 0,0 -0.616,-1.992 0.009,-2.138 0.604,-0.141 1.694,0.388 1.755,0.646 0.08,0.343 0.215,1.179 0.097,1.366 C 1.743,0.062 0,0 0,0"/></g><g transform="translate(14.6606,7.5137)" id="g48"><path id="path50" style="fill:#292f33;fill-opacity:1;fill-rule:nonzero;stroke:none" d="m 0,0 c -0.167,-0.146 0.164,-1.858 0.164,-1.858 0,0 2.064,-0.299 2.111,0.34 C 2.32,-0.898 1.628,0.096 1.365,0.115 1.013,0.143 0.167,0.146 0,0"/></g><g transform="translate(25.1025,24.7178)" id="g52"><path id="path54" style="fill:#ffac33;fill-opacity:1;fill-rule:nonzero;stroke:none" d="m 0,0 c -3.295,-0.135 -9.103,-0.499 -10.399,0.079 0.062,-1.922 -0.677,-3.605 0.299,-6.865 0.46,-0.101 8.122,-0.244 10.935,0.912 C 0.163,-3.012 0.446,-1.881 0,0"/></g><g transform="translate(15.8906,24.5625)" id="g56"><path id="path58" style="fill:#623120;fill-opacity:1;fill-rule:nonzero;stroke:none" d="m 0,0 c 0,0 -0.759,-3.543 2.408,-3.63 3.167,-0.087 2.791,2.247 3.045,2.505 0.254,0.258 2.718,0.391 2.718,1.064 0,0.233 -1.269,0.127 -1.873,0.099 C 5.994,0.023 2.708,-0.167 0,0"/></g><g transform="translate(4.3213,27.5327)" id="g60"><path id="path62" style="fill:#5c913b;fill-opacity:1;fill-rule:nonzero;stroke:none" d="m 0,0 c -0.253,0 -0.46,0.206 -0.46,0.459 0,0.253 0.207,0.459 0.46,0.459 0.253,0 0.459,-0.206 0.459,-0.459 C 0.459,0.206 0.253,0 0,0 M 1.773,2.761 C 1.09,2.291 0.102,2.475 0.102,2.475 -0.492,2.225 -1.421,1.319 -1.827,0.538 c -0.406,-0.781 -1.526,-2.664 -1.526,-2.664 0,0 1.094,-0.865 1.719,-1.907 0,0 0.531,0.532 1.192,0.876 1.942,0.063 2.308,1.02 2.308,1.02 0,0 0.032,2.992 -0.093,4.898"/></g><g transform="translate(4.5986,27.9531)" id="g64"><path id="path66" style="fill:#292f33;fill-opacity:1;fill-rule:nonzero;stroke:none" d="m 0,0 c 0,-0.192 -0.156,-0.349 -0.349,-0.349 -0.192,0 -0.348,0.157 -0.348,0.349 0,0.192 0.156,0.349 0.348,0.349 C -0.156,0.349 0,0.192 0,0"/></g><g transform="translate(4.3213,27.5327)" id="g68"><path id="path70" style="fill:#f5f8fa;fill-opacity:1;fill-rule:nonzero;stroke:none" d="m 0,0 c -0.253,0 -0.46,0.206 -0.46,0.459 0,0.253 0.207,0.459 0.46,0.459 0.253,0 0.459,-0.206 0.459,-0.459 C 0.459,0.206 0.253,0 0,0 m 0,1.368 c -0.502,0 -0.909,-0.408 -0.909,-0.909 0,-0.501 0.407,-0.909 0.909,-0.909 0.501,0 0.908,0.408 0.908,0.909 C 0.908,0.96 0.501,1.368 0,1.368"/></g><g transform="translate(2.5361,23.3477)" id="g72"><path id="path74" style="fill:#f5f8fa;fill-opacity:1;fill-rule:nonzero;stroke:none" d="M 0,0 -1.771,1.752 -1.519,2.141 0.323,0.323 0,0 Z"/></g><g transform="translate(6.1982,25.4028)" id="g76"><path id="path78" style="fill:#f5f8fa;fill-opacity:1;fill-rule:nonzero;stroke:none" d="M 0,0 -0.094,4.898 0.355,4.907 0.449,0.009 0,0 Z"/></g><g transform="translate(12.6553,26.9302)" id="g80"><path id="path82" style="fill:#292f33;fill-opacity:1;fill-rule:nonzero;stroke:none" d="M 0,0 C 1.773,-1.446 3.147,-0.322 3.147,-0.322 1.853,-0.051 1.091,0.545 0.439,1.24 1.274,1.371 1.727,1.906 1.727,1.906 0.666,1.919 -0.097,2.206 -0.758,2.605 -1.323,3.219 -1.991,3.807 -3.012,4.236 -3.308,4.361 -3.619,4.445 -3.935,4.512 -4.021,4.537 -4.113,4.575 -4.193,4.585 -5.1,4.698 -6.039,4.533 -6.93,3.982 c -0.322,-0.2 -0.214,-0.64 0.118,-0.623 1.74,0.084 2.865,-0.583 3.469,-1.633 2.169,-3.771 5.344,-3.875 5.344,-3.875 0,0 -1.291,0.688 -2.001,2.149"/></g><g transform="translate(17.7646,13.5996)" id="g84"><path id="path86" style="fill:#292f33;fill-opacity:1;fill-rule:nonzero;stroke:none" d="M 0,0 -0.361,7.566 0.667,7.338 1.118,0.13 C 0.741,0.06 0,0 0,0"/></g><g transform="translate(2.3545,23.25)" id="g88"><path id="path90" style="fill:#623120;fill-opacity:1;fill-rule:nonzero;stroke:none" d="m 0,0 c -0.191,0 -0.374,0.11 -0.457,0.296 -0.112,0.253 0.001,0.548 0.254,0.661 6.139,2.735 11.218,2.734 11.476,2.746 0.276,-10e-4 0.498,-0.226 0.498,-0.502 -0.001,-0.276 -0.226,-0.498 -0.5,-0.498 l -0.002,0 -0.002,0 C 11.163,2.703 6.116,2.678 0.203,0.043 0.138,0.014 0.068,0 0,0"/></g><g transform="translate(18.8755,30.4844)" id="g92"><path id="path94" style="fill:#7c543e;fill-opacity:1;fill-rule:nonzero;stroke:none" d="M 0,0 C -0.438,1.469 -3.256,1.23 -3.077,2.591 L -3.198,2.348 C -3.226,2.555 -3.277,2.764 -3.369,2.968 -3.818,3.965 -4.891,4.454 -5.763,4.06 -6.519,3.719 -7.5,3.71 -7.104,2.424 -7.042,2.227 -6.969,1.973 -6.855,1.721 -6.403,0.726 -5.006,0.056 -4.133,0.45 -4.084,0.473 -4.042,0.505 -3.996,0.532 -3.789,0.409 -3.157,0.026 -2.132,-0.673 -0.926,-1.497 0.435,-1.47 0,0"/></g><g transform="translate(11.8896,34.5806)" id="g96"><path id="path98" style="fill:#0b0200;fill-opacity:1;fill-rule:nonzero;stroke:none" d="m 0,0 c 0.256,0.5 1.301,1.065 2.192,1.01 1.005,-0.063 1.564,-0.76 1.795,-1.633 0.114,-0.43 0.045,-0.914 -0.043,-1.27 0,0 -0.965,0.087 -0.858,0.15 0.198,0.118 0.034,0.815 -0.218,0.908 C 2.603,-0.739 2.507,-0.999 2.543,-1.199 2.58,-1.4 2.575,-1.523 2.463,-1.597 2.351,-1.671 1.975,-1.095 1.699,-0.983 1.244,-0.798 0.208,-2.115 -0.118,-1.672 -0.32,-1.397 -0.317,-0.619 0,0"/></g><g transform="translate(13.1636,33.1504)" id="g100"><path id="path102" style="fill:#9266cc;fill-opacity:1;fill-rule:nonzero;stroke:none" d="M 0,0 C 0,0 1.582,0.754 1.987,0.87 2.394,0.984 2.591,1.036 2.658,1.121 2.726,1.207 2.555,1.346 2.48,1.437 2.405,1.529 2.04,2.412 1.206,2.68 0.51,2.905 0.003,2.791 -0.377,2.636 -0.758,2.48 -1.561,2.124 -1.743,0.794 c -0.096,-0.745 0.037,-1.146 0.037,-1.146 0,0 -0.476,-0.135 -0.523,-0.143 -0.047,-0.008 -0.042,-0.126 0.179,-0.182 0.221,-0.055 1.293,0.068 1.64,0.231 C -0.062,-0.283 -0.091,-0.075 0,0"/></g><g transform="translate(20.8281,21.8281)" id="g104"><path id="path106" style="fill:#000000;fill-opacity:1;fill-rule:nonzero;stroke:none" d="M 0,0 C -0.187,0.532 -0.248,0.716 -0.554,1.524 -0.653,1.788 -0.773,2.109 -0.922,2.518 L -2.857,1.772 c 0.175,-0.383 0.313,-0.688 0.425,-0.946 0.364,-0.833 0.475,-1.321 0.592,-1.878 l -0.801,-0.291 c -0.387,-0.168 -0.811,-0.332 -0.858,-0.932 -0.036,-0.462 0.341,-0.424 0.636,-0.389 0.433,0.053 3.093,0.507 3.222,0.789 C 0.478,-1.618 0.222,-0.632 0,0"/></g><g transform="translate(17.9712,23.6001)" id="g108"><path id="path110" style="fill:#ccd6dd;fill-opacity:1;fill-rule:nonzero;stroke:none" d="M 0,0 C 0,0 -0.2,0.506 -0.395,1.169 -0.771,2.451 -0.96,3.483 3.056,4.504 3.032,4.546 3,4.597 2.958,4.656 1.633,6.514 -1.296,8.353 -0.534,8.472 3.298,9.072 4.473,8.479 6.151,6.123 6.978,4.961 7.086,4.53 6.935,3.931 6.345,1.603 1.786,2.659 1.935,0.746 L 0,0 Z"/></g><g transform="translate(17.439,28.9141)" id="g112"><path id="path114" style="fill:#5c913b;fill-opacity:1;fill-rule:nonzero;stroke:none" d="M 0,0 C 1.535,-1.055 2.338,0.154 3.588,-0.81 L 6.866,0.513 C 5.585,2.978 1.987,5.065 -0.995,3.537 -1.688,3.182 -2.18,2.514 -2.036,1.733 -1.747,0.172 -0.63,0.434 0,0"/></g><g transform="translate(17.937,30.8472)" id="g116"><path id="path118" style="fill:#a6d388;fill-opacity:1;fill-rule:nonzero;stroke:none" d="m 0,0 c -0.03,0.08 -0.117,0.288 -0.179,0.355 -0.3,0.419 -0.842,0.609 -1.341,0.406 -0.583,-0.237 -0.863,-0.903 -0.626,-1.486 0.924,-2.413 1.142,-2.651 1.033,-2.839 -0.03,-0.029 -0.348,-0.284 -2.323,-0.09 l -0.501,-0.193 0,-1 0.306,-0.797 c 1.923,-0.189 3.358,-0.115 4.106,0.865 C 1.354,-3.627 0.903,-2.358 0,0"/></g><g transform="translate(14.5015,27.1934)" id="g120"><path id="path122" style="fill:#7c543e;fill-opacity:1;fill-rule:nonzero;stroke:none" d="m 0,0 0,0 c -1.893,1.191 -2.035,-0.25 -2.089,-0.8 -0.054,-0.549 -0.098,-0.995 1.893,-1.191 l 0,0 L 0,0 Z"/></g><g transform="translate(18.2725,20.5215)" id="g124"><path id="path126" style="fill:#aab8c2;fill-opacity:1;fill-rule:nonzero;stroke:none" d="M 0,0 0.447,0.159 C -0.041,1.376 -0.583,1.18 -0.624,1.165 -0.823,1.088 -1.549,0.112 -0.94,-1.351 c 0.039,-0.093 0.127,-0.15 0.22,-0.154 0.036,-0.002 0.073,0.005 0.108,0.019 0.127,0.053 0.187,0.199 0.134,0.326 -0.373,0.897 -0.142,1.651 0.031,1.726 C -0.274,0.64 -0.035,0.265 0,0"/></g></g></g></g></svg>
