<svg xmlns="http://www.w3.org/2000/svg" viewBox="0 0 45 45" enable-background="new 0 0 45 45"><defs><clipPath id="a"><path d="M0 36h36V0H0v36z"/></clipPath><clipPath id="b"><path d="M18 36C8.06 36 0 27.94 0 18S8.06 0 18 0s18 8.06 18 18-8.06 18-18 18z"/></clipPath></defs><g><g><g clip-path="url(#a)" transform="matrix(1.25 0 0 -1.25 0 45)"><g><path fill="#f4900c" d="M36 18c0-9.94-8.06-18-18-18S0 8.06 0 18s8.06 18 18 18 18-8.06 18-18"/></g><path fill="#231f20" d="M19 0h-2v36h2V0z"/><path fill="#231f20" d="M0 19h36v-2H0v2z"/></g></g><g><g clip-path="url(#b)" transform="matrix(1.25 0 0 -1.25 0 45)"><g><path fill="#231f20" d="M2 30c-4.32 0-7-4.6-7-12S-2.32 6 2 6s7 4.6 7 12-2.68 12-7 12M2 4c-4.35 0-9 3.68-9 14s4.65 14 9 14 9-3.68 9-14S6.35 4 2 4"/></g><g><path fill="#231f20" d="M34 30c-4.32 0-7-4.6-7-12s2.68-12 7-12 7 4.6 7 12-2.68 12-7 12m0-26c-4.35 0-9 3.68-9 14s4.65 14 9 14 9-3.68 9-14-4.65-14-9-14"/></g></g></g></g></svg>