<svg xmlns="http://www.w3.org/2000/svg" viewBox="0 0 45 45" enable-background="new 0 0 45 45"><defs><clipPath id="a"><path d="M0 36h36V0H0v36z"/></clipPath></defs><g><g><g clip-path="url(#a)" transform="matrix(1.25 0 0 -1.25 0 45)"><g><path fill="#d5ab88" d="M36 15.64c-1.35.42-3.84 3.36-6 3.36-3 0-3 7-4 9s-3 4-3 5-3 2-8 0-8-2-10-2-3-2-4-4 0-2 0-2c1-1 2 2 4 3s3-1 5 0c1.5.75 4.66-.18 7 .14.8.1 1.5.35 2 .86 0 0 0-8 2-11 0 0-1-1-2-4s-2 0-2 2-1 5-5 7c-1.8.9-5.66.68-7-2-2-4 0-8 2-9s3-2 7-2c1.94 0 17.8-.48 22-.36v6z"/></g><g><path fill="#4289c1" d="M8.18 19.6c2.2 1.94 5.63 1.68 8.03-.48-.7 1.38-2 2.78-4.2 3.88-1.8.9-5.66.68-7-2-2-4 0-8 2-9 .24-.12.46-.24.68-.36-1.8 2.62-1.66 6.03.5 7.95"/></g><g><path fill="#aa8052" d="M12 17.5c-.13 0-.26.05-.35.15-.2.2-.2.5 0 .7 1.13 1.14 2.3 1.15 2.35 1.15.28 0 .5-.22.5-.5s-.22-.5-.5-.5c-.03 0-.82-.03-1.65-.85-.1-.1-.22-.15-.35-.15"/></g><g><path fill="#aa8052" d="M8 14.5c-.13 0-.26.05-.35.15-.2.2-.2.5 0 .7C8.78 16.5 9.95 16.5 10 16.5c.28 0 .5-.22.5-.5s-.22-.5-.5-.5c-.03 0-.82-.03-1.65-.85-.1-.1-.22-.15-.35-.15"/></g><path fill="#55acee" d="M36 12H0V0h36v12z"/><g><path fill="#55acee" d="M6 12c3 2 7 5 6 3s-1-3 1-2 5 2 4 0 2-1 3 0 4 0 3-1-9-2-12-2-5 2-5 2"/></g></g></g></g></svg>