<svg xmlns="http://www.w3.org/2000/svg" viewBox="0 0 45 45" enable-background="new 0 0 45 45"><defs><clipPath id="a"><path d="M0 36h36V0H0v36z"/></clipPath></defs><g><g><g clip-path="url(#a)" transform="matrix(1.25 0 0 -1.25 0 45)"><g><path fill="#662113" d="M7.75 28.25c-3.68-3.7-6.1-8.62-6.9-13.58L14.64.84c4.98.8 9.9 3.23 13.6 6.9 3.68 3.7 6.1 8.63 6.9 13.6L21.34 35.16c-4.96-.8-9.9-3.23-13.58-6.9"/></g><g><path fill="#662113" d="M33.37 33.37c-2.66 1.48-5.74 2.12-8.9 2.07l10.97-10.97c.05 3.16-.6 6.24-2.07 8.9"/></g><g><path fill="#662113" d="M2.63 2.63C5.3 1.15 8.37.5 11.53.56L.56 11.53c-.05-3.16.6-6.24 2.07-8.9"/></g><g><path fill="#e1e8ed" d="M22.83 24.24l-2.42-2.4-.7.7c-.38.4-1.02.4-1.4 0-.4-.4-.4-1.03 0-1.42l.7-.7L15.6 17l-.72.7c-.4.4-1.02.4-1.42 0-.4-.38-.4-1.02 0-1.4l.7-.7-2.4-2.43-.7.7c-.4.4-1.03.4-1.42 0-.4-.38-.4-1.02 0-1.4l.7-.7-1-1c-.4-.4-.4-1.04 0-1.43.4-.4 1.03-.4 1.42 0l1 1 .7-.7c.4-.4 1.03-.4 1.42 0 .4.4.4 1.02 0 1.4l-.7.72 2.4 2.4.7-.7c.4-.4 1.04-.4 1.43 0 .4.4.4 1.03 0 1.42l-.7.7L20.4 19l.72-.7c.4-.4 1.03-.4 1.42 0 .4.38.4 1.02 0 1.4l-.7.7 2.4 2.43.7-.7c.4-.4 1.03-.4 1.42 0 .4.38.4 1 0 1.4l-.7.7 1 1c.4.4.4 1.04 0 1.43-.4.4-1.03.4-1.42 0l-1-1-.7.7c-.4.4-1.03.4-1.42 0-.4-.4-.4-1.02 0-1.4l.7-.72z"/></g><g><path fill="#e1e8ed" d="M.56 11.53L11.53.56c1.04.02 2.1.1 3.13.28L.84 14.67c-.17-1.05-.26-2.1-.28-3.14"/></g><g><path fill="#e1e8ed" d="M24.47 35.44c-1.04-.02-2.1-.1-3.14-.28l13.83-13.82c.17 1.04.26 2.1.28 3.13L24.47 35.44z"/></g></g></g></g></svg>