<svg xmlns="http://www.w3.org/2000/svg" viewBox="0 0 45 45" enable-background="new 0 0 45 45"><defs><clipPath id="a"><path d="M0 36h36V0H0v36z"/></clipPath></defs><g><g><g clip-path="url(#a)" transform="matrix(1.25 0 0 -1.25 0 45)"><g><path fill="#ffac33" d="M5.12 31h6c1.1 0 1.88.1 1.88-1v2c0 1.1-.77 2-1.88 2h-8c-2 0-3.58-2.13-3-5 0 0 1.8-9.38 1.92-9.96C2.37 17.5 4.16 16 6.08 16h6.96c1.1 0-.04 1.9-.04 3v2c0-1.1-.77-2-1.88-2h-4c-1.1 0-1.83 1.04-2 2-.16.96-1.58 7.33-1.58 7.33C3.2 30.25 4.02 31 5.12 31"/></g><g><path fill="#ffac33" d="M30.94 31h-6c-1.1 0-2.94.1-2.94-1v2c0 1.1 1.83 2 2.94 2h8c2 0 3.58-2.13 3-5 0 0-1.64-9.42-1.77-10-.36-1.5-2.05-3-4-3h-7.15c-1.1 0-1.02 1.9-1.02 3v2c0-1.1 1.83-2 2.94-2h4c1.1 0 1.83 1.04 2 2 .16.96 1.58 7.33 1.58 7.33.33 1.92-.48 2.67-1.58 2.67"/></g><g><path fill="#ffac33" d="M20.83 14c0 6.96-2.7 0-2.7 0s-3 6.96-3 0-3.3-10-3.3-10h12.3s-3.3 3.04-3.3 10"/></g><g><path fill="#ffcc4d" d="M29.12 29.42c0-6.77-6.77-18.2-11-18.2s-11 11.43-11 18.2c0 5.2 1 6.32 3 6.32 1.38 0 6.03.03 8 .03 1.4 0 5.92 0 7 0 2.92 0 4-.68 4-6.35"/></g><g><path fill="#c1694f" d="M27 3c0-1.1.23-2-.88-2h-16C9.02 1 9 1.9 9 3v1c0 1.1 1.16 2 2.2 2h13.92C26.16 6 27 5.1 27 4V3z"/></g><g><path fill="#c1694f" d="M29 1.38C29 .61 29.17 0 27.75 0H8.5C7.2 0 7 .6 7 1.38v.25C7 2.38 7.74 3 8.5 3h19.25C28.5 3 29 2.4 29 1.62v-.25z"/></g></g></g></g></svg>