<svg xmlns="http://www.w3.org/2000/svg" viewBox="0 0 45 45" enable-background="new 0 0 45 45"><defs><clipPath id="a"><path d="M0 36h36V0H0v36z"/></clipPath></defs><g><g><g clip-path="url(#a)" transform="matrix(1.25 0 0 -1.25 0 45)"><g><path fill="#8899a6" d="M5 0C3.9 0 3 .9 3 2v31c0 1.1.9 2 2 2s2-.9 2-2V2c0-1.1-.9-2-2-2"/></g><g><path fill="#aab8c2" d="M5 35c-1.1 0-2-.9-2-2V2c0-.28.22-.5.5-.5s.5.22.5.5v29.6c0 .77.63 1.4 1.4 1.4H7c0 1.1-.9 2-2 2"/></g><g><path fill="#8899a6" d="M5 0C3.9 0 3 .9 3 2v31c0 1.1.9 2 2 2s2-.9 2-2V2c0-1.1-.9-2-2-2"/></g><g><path fill="#aab8c2" d="M5 35c-1.1 0-2-.9-2-2V2c0-.28.22-.5.5-.5s.5.22.5.5v29.6c0 .77.63 1.4 1.4 1.4H7c0 1.1-.9 2-2 2"/></g><g><path fill="#292f33" d="M32.4 32.92c-1.67.72-3.44 1.07-5.4 1.1l-1.37-.37L21 33l-1 .13c-.24-.05-.48-.1-.7-.15-2.18-.47-4.24-.9-6.3-.98l-1-1-6 1V13h6l1-2h.08c2.24.1 4.47.56 6.63 1.02.1.02.2.04.3.06l.65.65 5.43.7.92-.4c1.68-.04 3.2-.34 4.6-.95.3-.13.67-.1.95.08.28.2.45.5.45.84v19c0 .4-.24.76-.6.92"/></g><g><path fill="#e1e8ed" d="M13 32c-.24 0-.48-.04-.72-.04-1.8 0-3.4.3-4.88.96-.3.13-.67.1-.95-.08-.28-.2-.45-.5-.45-.84v-6s3.3-1 7-1v7z"/></g><g><path fill="#e1e8ed" d="M20 26s-3.75-1-7-1v-7c3 0 7 1 7 1v7z"/></g><g><path fill="#e1e8ed" d="M27 27v7.03c-.1 0-.2 0-.28 0-2.27 0-4.52-.43-6.72-.9V26s2.17 1 7 1"/></g><g><path fill="#e1e8ed" d="M6.6 12.08c1.5-.65 3.1-1 4.82-1.08H13v7c-4.17 0-7 1-7 1v-6c0-.4.24-.76.6-.92"/></g><g><path fill="#e1e8ed" d="M20 19v-6.92c2.3.5 4.5.96 6.72.96.1 0 .18 0 .28 0V20c-4.5 0-7-1-7-1"/></g><g><path fill="#e1e8ed" d="M27 20c2.68 0 4.82-.56 6-.95v7.04c-1.15.37-3.23.9-6 .9v-7z"/></g></g></g></g></svg>