<svg xmlns="http://www.w3.org/2000/svg" viewBox="0 0 45 45" enable-background="new 0 0 45 45"><defs><clipPath id="a"><path d="M0 36h36V0H0v36z"/></clipPath></defs><g><g><g clip-path="url(#a)" transform="matrix(1.25 0 0 -1.25 0 45)"><g><path fill="#292f33" d="M27.08 20.34s4.68-1.8 6.76-.6c2.07 1.2 2.5 2.84 1.3 4.9-1.2 2.1-4.5 2.96-4.66 5.63 0 0-.26-4.32 1.98-5.78 3.17-2.1-.44-4.4-4.2-3.93-3.77.47-1.18-.23-1.18-.23"/></g><g><path fill="#d99e82" d="M2.7 11.3c-.75-2.3-.36-6.02.78-6.4 1.14-.36 2.88 1.62 1.9 3-1.9 2.68-.78 4.55 1.5 3.8 2.3-.72 8.7 1.16 10.2 1.94 1.5.77-4.56.8-7.2.38-2.67-.4-4.13-.04-5.32-.82-1-.65-1.87-1.9-1.87-1.9"/></g><g><path fill="#d99e82" d="M17.8 3.86c1.37.98.6 3.8 2.95 3.4 2.37-.4 3.77-1.5 3.95 1.78.02.38.52 0 1.3.6 8.23 6.47 1.06 6.3 1.06 6.3-2.76-1.97-5.7-5.1-4.73-6.5.5-.74-2.56-.8-3.75-.6-1.18.2-2.76-1.97-2.96-3.16-.2-1.18.8-2.8 2.17-1.82"/></g><g><path fill="#c1694f" d="M30.83 17.25c0 1.13-1.76 4.6-5.3 4.6-3.6 0-6-1.2-8.4-1.2-2.4 0-3.93-1.45-5.13 3.35-.92 3.68-3.4 5.2-7 4 0 0-3.46 2.25-2.26 1.05.5-.5.7-1 .77-1.46-2.1-1.27-1.12-3.43-2.25-4.55-.84-.85-1.2-1.2-1.2-2.4 0-1 1.63-1.15 2.88-.5.72 1.7.35 1.05 1.47 1.7 1.03.02 1.94.15 1.94 1.2 0 0 1.2 0 1.2-2.4 0-1.14-1.08-2.3.9-5.5 0 0 1.2-1.92.83-2.6-1.25-2.36-1.53-5.04-2.5-5.73-.98-.7.4-2.65.4-2.65 1.4-1.95 4.76-2.5 5.73-1.8.98.68.28 1.66-1.4 1.94-1.67.3-5 .84-3.06 2.24C10.4 7.94 11.72 8.34 12 10c.08.47 2 1 2 1s2-1 4.34.06c2.04.92 4.48 2.08 6.72.4l.07.05c-.72-1.53-.97-2.9-.28-3.47.7-.57-2.26-1.43-3.46-1.55-1.2-.13-2.15-2.63-2.03-3.82.12-1.2 1.74-2.7 2.82-1.4 1.06 1.32-2.12 3.17 1.7 4.26 2.3.66 4.03-.46 3.34 2.75-.08.37.07.8.7 1.6 3.28 4.2 2.88 6.25 2.9 7.38"/></g><g><path fill="#cbb7ea" d="M22.3 21.53c-1.95-.35-3.56-.88-5.16-.88-1.07 0-1.9.02-2.6.44.07-1.8.57-3.7 2.5-6.3.4-.1.85-.15 1.3-.15 2.4 0 3.6 1.2 6 2.4C23 19 22.7 19.8 22.3 21.53"/></g><g><path fill="#292f33" d="M4.27 27.67c2.4 2.4 4.43 1.9 6.32 0 2.4-2.4 1.33-4.92 4.14-6.82C16 20 12 20 11.14 24.45c-.5 2.63-3.38 3.9-6.87 3.22"/></g><g><path fill="#ffac33" d="M2 21.5c-.13 0-.26.05-.35.15-.2.2-.2.5 0 .7l4 4c.2.2.5.2.7 0 .2-.2.2-.5 0-.7l-4-4c-.1-.1-.22-.15-.35-.15"/></g><g><path fill="#ffac33" d="M7 22.5c-.2 0-.4.12-.46.3l-2 5c-.1.27.02.56.27.66.27.1.56-.02.66-.27l2-5c.1-.27-.02-.56-.27-.66-.08-.03-.14-.04-.2-.04"/></g><g><path fill="#7c533e" d="M11.82 28.75c-.7-.68.87-1.43 1.13-2.4.17-.66 1.37-.02 1.37-.02s1.3.33 2.68-.33c1.32-.62 2.66-.38 2 1-.66 1.38-3.4.7-3.45 2.08-.1 3.28-3.73-.33-3.73-.33"/></g><g><path fill="#0b0200" d="M12.05 28.37c-.35-1.03-.98.45-.73 1.18.35 1.03 1.78 1.9 2.86 1.76 1.07-.14 1.8-1.33 1.45-2.36-.24-.72.02-1.62-.7-.44-.74 1.2-.73-.44-1.1.16-.36.6-1.78-.3-1.78-.3"/></g><g><path fill="#d1d3d4" d="M20 13.5c-.63 0-.76-.32-.97.3-.26.8.18.94.97 1.2l1 1c-.67 1.17-2.3 3.22-2.5 4-.5 2-.5 3 3.57 4.8-.03.04-.07.08-.13.14C20.2 26.67 19 24 17 25c-.74.37.42-.53-1 1-.57.6.2 1.74 1 2 3.95 1.32 5.86 1.26 8.06-.94 1.08-1.08.94-2.4.94-3.06 0-3-5-2-4.5-4 .07-.36.9-1.88 1.75-3.17.26-.4.9-1.4.75-1.83-.15-.44-1.08-.27-1.53-.42l-2-1c-.15-.06-.3-.08-.47-.08"/></g><g><path fill="#5c913b" d="M17.75 25c1.64-.9 3.14.78 4.48-.06l2.83 2.12C25 29 20 31 16.42 28.42c-.63-.45-1.08-1.13-.86-1.9.44-1.52 1.52-1.15 2.2-1.52"/></g><g><path fill="#231f20" d="M22 19l-2.2-1.28c.46-.62.93-1.24 1.2-1.72l-1-1c-.8-.26-1.23-.4-.97-1.2.2-.62.34-.3.97-.3.16 0 .32.02.47.08l2 1c.45.15 1.38-.02 1.53.42.15.44-.5 1.44-.75 1.83-.4.6-.94 1.6-1.25 2.17"/></g><g><path fill="#a6d388" d="M15 21c-2 0-2 .45-2 1s1.45 1 2 1c1.98 0 2.28.3 2.3.32.1.2-.14.37-1.3 2.68-.25.5.06 1.65.55 1.9.5.24 1.1.04 1.34-.45 1.12-2.26 1.86-3.95 1.1-5.2-.65-1.03-2.07-1.25-4-1.25"/></g><g><path fill="#7c533e" d="M15 23c-2 1-2-.45-2-1s0-1 2-1v2z"/></g><g><path fill="#9266cc" d="M11.46 30.77c1.2.74 2.4 1.48 4.12.05 1.08-.9.5-2.18-.46-1.95-.98.23-1.95.46-3.15-.28-1.2-.75-1.72 1.43-.5 2.17"/></g><g><path fill="#ffcc4d" d="M2 21c-.27 0-.5.2-.5.48 0 .27.2.5.48.52l11 .5c.28.02.5-.2.52-.48 0-.27-.2-.5-.48-.52l-11-.5H2z"/></g></g></g></g></svg>