<svg xmlns="http://www.w3.org/2000/svg" viewBox="0 0 45 45" enable-background="new 0 0 45 45"><defs><clipPath id="a"><path d="M0 36h36V0H0v36z"/></clipPath></defs><g><g><g clip-path="url(#a)" transform="matrix(1.25 0 0 -1.25 0 45)"><g><path fill="#99aab5" d="M6.5 3C4.57 3 3 4.57 3 6.5S4.57 10 6.5 10 10 8.43 10 6.5 8.43 3 6.5 3m0 9C3.46 12 1 9.54 1 6.5S3.46 1 6.5 1 12 3.46 12 6.5 9.54 12 6.5 12"/></g><g><path fill="#99aab5" d="M29.5 3C27.57 3 26 4.57 26 6.5s1.57 3.5 3.5 3.5S33 8.43 33 6.5 31.43 3 29.5 3m0 9C26.46 12 24 9.54 24 6.5S26.46 1 29.5 1 35 3.46 35 6.5 32.54 12 29.5 12"/></g><g><path fill="#292f33" d="M6.5 2.1C4.02 2.1 2 4.1 2 6.6c0 2.47 2.02 4.5 4.5 4.5S11 9.06 11 6.6c0-2.5-2.02-4.5-4.5-4.5m0 11C2.9 13.1 0 10.17 0 6.6 0 3 2.9.1 6.5.1S13 3 13 6.6c0 3.58-2.9 6.5-6.5 6.5"/></g><g><path fill="#292f33" d="M29.5 2.1c-2.48 0-4.5 2-4.5 4.5 0 2.47 2.02 4.5 4.5 4.5S34 9.06 34 6.6c0-2.5-2.02-4.5-4.5-4.5m0 11c-3.6 0-6.5-2.92-6.5-6.5C23 3 25.9.1 29.5.1S36 3 36 6.6c0 3.58-2.9 6.5-6.5 6.5"/></g><g><path fill="#77b255" d="M7 8.95c-2-4 1-2.6 2-.6.9 1.82 3.44 2.44 4.66.4C12.7 11.78 9.86 14 6.5 14c-1.37 0-2.66-.37-3.76-1.02C5.57 12.8 8.1 11.15 7 8.95"/></g><g><path fill="#99aab5" d="M30 7c0-.55-.45-1-1-1h-9c-.55 0-1 .45-1 1s.45 1 1 1h9c.55 0 1-.45 1-1"/></g><g><path fill="#99aab5" d="M29.92 5.7c-.43-.35-1.06-.28-1.4.16l-5.6 7.04c-.35.43-.27 1.06.16 1.4.43.35 1.06.28 1.4-.16l5.6-7.04c.35-.43.27-1.06-.16-1.4"/></g><g><path fill="#ccd6dd" d="M12.46 15.63c.47-.3.6-.9.3-1.38L7.93 6.67c-.3-.47-.92-.6-1.38-.3-.47.3-.6.9-.3 1.38l4.84 7.58c.3.46.92.6 1.38.3"/></g><g><path fill="#77b255" d="M10.53 18.63C9.73 18.05 6 17 9 15s5.1-4.12 5.1-6c0-2.66-.66-4 .9-4h7s-1 4 2 7 5 2 8 3c1.9.63 4 2 4 3s0 2-2 1-1-1.55-3-.55-3.16-.45-4.16-.45-7.6-1.68-8.62.05c-.55.95-1.8 1.95-3.6 1.95-1.32 0-3.12-.67-4.1-1.37"/></g><g><path fill="#66757f" d="M21 7c0-1.1-.9-2-2-2s-2 .9-2 2 .9 2 2 2 2-.9 2-2"/></g><g><path fill="#ccd6dd" d="M36.2 8.97l-9.28-3.73-1.12 2.8 9.28 3.72 1.12-2.8z"/></g><g><path fill="#fff" d="M35.83 9.9l-9.28-3.73-.37.93 9.27 3.73.38-.93z"/></g><g><path fill="#66757f" d="M36.2 8.97l-9.28-3.73-.37.93 9.28 3.73.37-.93z"/></g><g><path fill="#292f33" d="M19 17.86c1.37-.38 5.64 0 6.8.1 1.16.1 1.6-.45 0-1.25-1.8-.9-5.6-3.15-6.8-3.6-1-.4-4.5 1.2-4.92 1.68-.4.5 3.75 3.4 4.92 3.08"/></g><g><path fill="#292f33" d="M34 19c-1.55-.04-3 0-4 0s-1.16-1.1 1.55-1.1C34.25 17.9 34 19 34 19"/></g><g><path fill="#77b255" d="M3.74 19.04c0 1.47 4.45 5.14 3.97 4.48-1.14-1.57-.48-3.48 1.5-3.48 1.97 0 2.7-6.52-.2-5.04-2.9 1.48-5.26 3.32-5.26 4.04"/></g><g><path fill="#ccd6dd" d="M8.6 25.43c.7-.6.35-1.7-1.04-3.48-1.4-1.8-3.58-2.53-2.36-.55 1.22 1.98 3.4 4.03 3.4 4.03"/></g><g><path fill="#66757f" d="M10.53 18.63c-.2-.47-.73-.7-1.2-.5l-.14.04c-.5.2-.72.73-.53 1.2l.8 2c.2.47.73.7 1.2.5l.14-.04c.5-.2.72-.73.53-1.2l-.8-2z"/></g><g><path fill="#292f33" d="M12.9 22c.1-.25-.03-.54-.3-.63l-1.87-.68c-.26-.1-.55.03-.64.3-.1.25.03.54.3.63l1.87.68c.26.1.55-.03.64-.3"/></g></g></g></g></svg>