<svg xmlns="http://www.w3.org/2000/svg" viewBox="0 0 45 45" enable-background="new 0 0 45 45"><defs><clipPath id="a"><path d="M0 36h36V0H0v36z"/></clipPath><clipPath id="b"><path d="M8 36c-2.96 0-6-5-5-7 1.6-3.23 12-13 12-13h6s10 10 12 13c1 2-2.33 7-5 7H8zm4-8c-2 2-1 2 6 2 8 0 7.5-.5 6-2l-6-6-6 6z"/></clipPath><clipPath id="c"><path d="M0 36h36V0H0v36z"/></clipPath></defs><g><g><g clip-path="url(#a)" transform="matrix(1.25 0 0 -1.25 0 45)"><g><path fill="#55acee" d="M24 28l-6-6-6 6c-2 2-1 2 6 2 8 0 7.5-.5 6-2m4 8H8c-2.96 0-6-5-5-7 1.6-3.23 12-13 12-13h6s10 10 12 13c1 2-2.33 7-5 7"/></g></g></g><g><g clip-path="url(#b)" transform="matrix(1.25 0 0 -1.25 0 45)"><g><path fill="#3b88c3" d="M13 27c-1 1-8 9-3 9h16c2.27 0 4-2-2-8-3-3-11-1-11-1"/></g></g></g><g><g clip-path="url(#c)" transform="matrix(1.25 0 0 -1.25 0 45)"><g><path fill="#ffac33" d="M22 15.5c0-.83-.67-1.5-1.5-1.5h-5c-.83 0-1.5.67-1.5 1.5s.67 1.5 1.5 1.5h5c.83 0 1.5-.67 1.5-1.5"/></g><g><path fill="#ffac33" d="M26 8c0-4.42-3.58-8-8-8s-8 3.58-8 8 3.58 8 8 8 8-3.58 8-8"/></g><g><path fill="#ffd983" d="M24 8c0-3.3-2.7-6-6-6s-6 2.7-6 6 2.7 6 6 6 6-2.7 6-6"/></g></g></g></g></svg>