<?xml version="1.0" encoding="UTF-8" standalone="no"?><svg xmlns:dc="http://purl.org/dc/elements/1.1/" xmlns:cc="http://creativecommons.org/ns#" xmlns:rdf="http://www.w3.org/1999/02/22-rdf-syntax-ns#" xmlns:svg="http://www.w3.org/2000/svg" xmlns="http://www.w3.org/2000/svg" viewBox="0 0 45 45" style="enable-background:new 0 0 45 45;" xml:space="preserve" version="1.1" id="svg2"><metadata id="metadata8"><rdf:RDF><cc:Work rdf:about=""><dc:format>image/svg+xml</dc:format><dc:type rdf:resource="http://purl.org/dc/dcmitype/StillImage"/></cc:Work></rdf:RDF></metadata><defs id="defs6"><clipPath id="clipPath16" clipPathUnits="userSpaceOnUse"><path id="path18" d="M 0,36 36,36 36,0 0,0 0,36 Z"/></clipPath><clipPath id="clipPath44" clipPathUnits="userSpaceOnUse"><path id="path46" d="m 13.074,16.847 c 0.437,-3.033 1.209,-8.776 1.403,-9.329 l 0,0 c 0.196,-0.552 2.58,-4.009 3.466,-4.959 l 0,0 c 0.492,-0.528 2.934,1.26 2.527,1.87 l 0,0 c -0.468,0.703 -2.428,3.516 -2.674,4.202 l 0,0 c -0.245,0.689 -0.506,5.92 -0.241,8.497 l 0,0 c 0,0 -2.039,1.124 -3.374,1.124 l 0,0 c -0.737,0 -1.259,-0.343 -1.107,-1.405"/></clipPath><clipPath id="clipPath76" clipPathUnits="userSpaceOnUse"><path id="path78" d="m 9.64,17.815 c 0,0 -1.107,-9.027 -1.107,-9.858 l 0,0 c 0,-0.828 0.516,-4.528 0.83,-5.856 l 0,0 c 0.105,-0.44 3.91,-0.615 3.772,0.354 l 0,0 C 13.049,3.054 12.49,6.947 12.581,7.403 l 0,0 c 0.091,0.458 0.564,2.888 1.384,4.426 l 0,0 c 0.586,1.099 4.429,2.249 3.563,6.077 l 0,0 c -0.211,0.936 -1.124,1.251 -2.259,1.251 l 0,0 c -2.343,0 -5.629,-1.342 -5.629,-1.342"/></clipPath><clipPath id="clipPath112" clipPathUnits="userSpaceOnUse"><path id="path114" d="M 0,36 36,36 36,0 0,0 0,36 Z"/></clipPath></defs><g transform="matrix(1.25,0,0,-1.25,0,45)" id="g10"><g id="g12"><g clip-path="url(#clipPath16)" id="g14"><g transform="translate(9.811,32.5205)" id="g20"><path id="path22" style="fill:#66757f;fill-opacity:1;fill-rule:nonzero;stroke:none" d="m 0,0 c -0.152,-0.278 -0.643,-0.3 -1.093,-0.052 l -2.613,1.418 c -0.449,0.249 0.028,1.304 0.478,1.055 L -0.535,0.955 C -0.085,0.706 0,0 0,0"/></g><g transform="translate(13.0947,2.2559)" id="g24"><path id="path26" style="fill:#292f33;fill-opacity:1;fill-rule:nonzero;stroke:none" d="m 0,0 c -0.658,0.864 -4.719,-0.256 -6.118,-0.957 -0.934,-0.469 -0.657,-1.299 -0.657,-1.299 l 7.033,0 c 0,0 0.399,1.391 -0.258,2.256"/></g><g transform="translate(19.4512,25.5698)" id="g28"><path id="path30" style="fill:#5c913b;fill-opacity:1;fill-rule:nonzero;stroke:none" d="m 0,0 c -2.502,1.644 -7.813,4.101 -9.964,7.086 -0.259,0.359 -0.683,0.591 -1.173,0.594 -0.823,-0.002 -1.49,-0.648 -1.492,-1.445 10e-4,-0.327 0.124,-0.642 0.299,-0.87 4.858,-6.292 11.783,-7.158 12.089,-7.287 0,0 1.001,1.424 0.241,1.922"/></g><g transform="translate(17.5547,17.1279)" id="g32"><path id="path34" style="fill:#744eaa;fill-opacity:1;fill-rule:nonzero;stroke:none" d="m 0,0 c -0.265,-2.577 -0.003,-7.809 0.241,-8.497 0.247,-0.686 2.206,-3.499 2.674,-4.202 0.407,-0.611 -2.035,-2.398 -2.526,-1.87 -0.887,0.95 -3.271,4.407 -3.466,4.959 -0.195,0.553 -0.967,6.297 -1.403,9.329 C -4.91,2.707 0,0 0,0"/></g><g transform="translate(9.6401,17.8145)" id="g36"><path id="path38" style="fill:#9266cc;fill-opacity:1;fill-rule:nonzero;stroke:none" d="m 0,0 c 0,0 -1.107,-9.026 -1.107,-9.857 0,-0.829 0.516,-4.529 0.83,-5.857 0.105,-0.439 3.91,-0.614 3.772,0.355 -0.086,0.598 -0.645,4.492 -0.554,4.948 0.091,0.458 0.564,2.888 1.384,4.426 0.586,1.099 4.429,2.249 3.564,6.077 C 7.241,2.958 0,0 0,0"/></g></g></g><g id="g40"><g clip-path="url(#clipPath44)" id="g42"><g transform="translate(18.4082,13.375)" id="g48"><path id="path50" style="fill:none;stroke:#9266cc;stroke-width:1;stroke-linecap:butt;stroke-linejoin:miter;stroke-miterlimit:10;stroke-dasharray:none;stroke-opacity:1" d="M 0,0 C -2.108,0.044 -3.796,-0.667 -4.936,-2"/></g><g transform="translate(18.1543,10.7715)" id="g52"><path id="path54" style="fill:none;stroke:#9266cc;stroke-width:1;stroke-linecap:butt;stroke-linejoin:miter;stroke-miterlimit:10;stroke-dasharray:none;stroke-opacity:1" d="M 0,0 C -2.1,-0.191 -3.699,-1.087 -4.682,-2.539"/></g><g transform="translate(19.0918,8.4268)" id="g56"><path id="path58" style="fill:none;stroke:#9266cc;stroke-width:1;stroke-linecap:butt;stroke-linejoin:miter;stroke-miterlimit:10;stroke-dasharray:none;stroke-opacity:1" d="M 0,0 C -2.095,-0.242 -3.672,-1.175 -4.62,-2.65"/></g><g transform="translate(20.5527,6.3398)" id="g60"><path id="path62" style="fill:none;stroke:#9266cc;stroke-width:1;stroke-linecap:butt;stroke-linejoin:miter;stroke-miterlimit:10;stroke-dasharray:none;stroke-opacity:1" d="M 0,0 C -2.094,-0.242 -3.671,-1.175 -4.619,-2.65"/></g><g transform="translate(20.8965,2.1846)" id="g64"><path id="path66" style="fill:none;stroke:#9266cc;stroke-width:1;stroke-linecap:butt;stroke-linejoin:miter;stroke-miterlimit:10;stroke-dasharray:none;stroke-opacity:1" d="m 0,0 c 0,0 -3.173,4.757 -3.729,5.736 -0.405,0.712 -1.044,4.589 -0.83,6.938 0.058,0.634 -0.399,2.42 -0.736,3.107"/></g><g transform="translate(19.0137,2.0186)" id="g68"><path id="path70" style="fill:none;stroke:#9266cc;stroke-width:1;stroke-linecap:butt;stroke-linejoin:miter;stroke-miterlimit:10;stroke-dasharray:none;stroke-opacity:1" d="m 0,0 c 0,0 -3.174,4.757 -3.73,5.736 -0.404,0.712 -1.043,4.589 -0.83,6.938 0.059,0.634 -0.399,2.42 -0.735,3.106"/></g></g></g><g id="g72"><g clip-path="url(#clipPath76)" id="g74"><g transform="translate(8.1875,15.0625)" id="g80"><path id="path82" style="fill:none;stroke:#cbb7ea;stroke-width:1;stroke-linecap:butt;stroke-linejoin:miter;stroke-miterlimit:10;stroke-dasharray:none;stroke-opacity:1" d="M 0,0 C 2,-0.75 5.486,-1.937 10.056,-0.687"/></g><g transform="translate(7.5771,11.3643)" id="g84"><path id="path86" style="fill:none;stroke:#cbb7ea;stroke-width:1;stroke-linecap:butt;stroke-linejoin:miter;stroke-miterlimit:10;stroke-dasharray:none;stroke-opacity:1" d="M 0,0 C 2.032,-0.659 5.568,-1.689 10.076,-0.234"/></g><g transform="translate(7.3403,8.1182)" id="g88"><path id="path90" style="fill:none;stroke:#cbb7ea;stroke-width:1;stroke-linecap:butt;stroke-linejoin:miter;stroke-miterlimit:10;stroke-dasharray:none;stroke-opacity:1" d="M 0,0 C 2.062,-0.56 5.644,-1.415 10.076,0.257"/></g><g transform="translate(7.6479,4.9062)" id="g92"><path id="path94" style="fill:none;stroke:#cbb7ea;stroke-width:1;stroke-linecap:butt;stroke-linejoin:miter;stroke-miterlimit:10;stroke-dasharray:none;stroke-opacity:1" d="M 0,0 C 2.105,-0.364 5.751,-0.88 10.007,1.201"/></g><g transform="translate(11.292,17.167)" id="g96"><path id="path98" style="fill:none;stroke:#aa8dd8;stroke-width:1;stroke-linecap:butt;stroke-linejoin:miter;stroke-miterlimit:10;stroke-dasharray:none;stroke-opacity:1" d="m 0,0 c 0,0 -1.72,-8.25 -1.652,-9.375 0.068,-1.125 0.825,-6.792 0.825,-6.792"/></g><g transform="translate(12.1187,1)" id="g100"><path id="path102" style="fill:none;stroke:#aa8dd8;stroke-width:1;stroke-linecap:butt;stroke-linejoin:miter;stroke-miterlimit:10;stroke-dasharray:none;stroke-opacity:1" d="m 0,0 c 0,0 -0.756,5.667 -0.825,6.792 -0.05,0.816 1.686,4.889 2.179,7.333 0.186,0.923 0.319,2.375 0.319,2.375"/></g><g transform="translate(14.3091,0.4473)" id="g104"><path id="path106" style="fill:none;stroke:#aa8dd8;stroke-width:1;stroke-linecap:butt;stroke-linejoin:miter;stroke-miterlimit:10;stroke-dasharray:none;stroke-opacity:1" d="m 0,0 c 0,0 -0.756,5.667 -0.825,6.792 -0.049,0.816 1.083,4.579 2.309,6.594 0.331,0.544 0.707,2.349 0.707,3.114"/></g></g></g><g id="g108"><g clip-path="url(#clipPath112)" id="g110"><g transform="translate(21.9785,30.7842)" id="g116"><path id="path118" style="fill:#ffdc5d;fill-opacity:1;fill-rule:nonzero;stroke:none" d="m 0,0 c 0,-1.976 -1.602,-3.579 -3.578,-3.579 -1.976,0 -3.579,1.603 -3.579,3.579 0,1.977 1.603,3.579 3.579,3.579 C -1.602,3.579 0,1.977 0,0"/></g><g transform="translate(16.5313,30.7847)" id="g120"><path id="path122" style="fill:#5c913b;fill-opacity:1;fill-rule:nonzero;stroke:none" d="M 0,0 C -1.71,1.278 -2.587,3.85 -1.95,4.525 -0.754,5.793 1.737,4.634 2.378,3.542 3.02,2.448 0.519,-0.387 0,0"/></g><g transform="translate(9.6401,17.8145)" id="g124"><path id="path126" style="fill:#77b255;fill-opacity:1;fill-rule:nonzero;stroke:none" d="M 0,0 C 0,0 0.196,6.405 3.264,8.772 5.554,10.54 9.407,9.218 10.429,7.173 11.453,5.128 8.015,4.006 8.015,-1.106 8.015,-2.13 0,-2.004 0,0"/></g><g transform="translate(16.7817,30.1865)" id="g128"><path id="path130" style="fill:#ffdc5d;fill-opacity:1;fill-rule:nonzero;stroke:none" d="m 0,0 c -0.466,-1.068 -0.788,-1.977 -0.988,-2.783 0.573,-0.271 1.061,-1.309 1.7,-1.542 1.056,-0.383 1.173,0.277 1.198,0.398 0.256,1.297 0.908,2.537 1.328,3.203 C 3.75,0.085 0.592,1.36 0,0"/></g><g transform="translate(15.5444,32.9395)" id="g132"><path id="path134" style="fill:#77b255;fill-opacity:1;fill-rule:nonzero;stroke:none" d="m 0,0 c 0,-1.151 1.674,-4.486 4.971,-4.473 1.727,0.007 2.037,1.91 2.028,3.172 C 6.994,-0.22 5.824,1.665 4.192,2.132 2.56,2.6 0,1.453 0,0"/></g><g transform="translate(19.4893,4.5439)" id="g136"><path id="path138" style="fill:#292f33;fill-opacity:1;fill-rule:nonzero;stroke:none" d="m 0,0 c 1.5,0.255 1.286,-1.386 1.247,-1.974 -0.093,-1.4 -0.37,-2.57 -1.362,-2.57 l -3.322,0 c 0,0 -0.184,1.523 1.603,1.868 C -1.48,-2.607 -2.145,-0.364 0,0"/></g><g transform="translate(10.4224,32.7368)" id="g140"><path id="path142" style="fill:#ffdc5d;fill-opacity:1;fill-rule:nonzero;stroke:none" d="m 0,0 c 0,-0.912 -0.763,-1.652 -1.705,-1.652 -0.941,0 -1.704,0.74 -1.704,1.652 0,0.913 0.763,1.652 1.704,1.652 C -0.763,1.652 0,0.913 0,0"/></g><g transform="translate(15.5444,26.7217)" id="g144"><path id="path146" style="fill:#77b255;fill-opacity:1;fill-rule:nonzero;stroke:none" d="m 0,0 c -3.322,-0.268 -6.347,0.621 -5.772,4.599 0.069,0.48 0.17,0.724 -0.224,1.082 -0.665,0.599 -2.652,0.942 -2.794,-0.221 -1.053,-8.609 6.202,-8.29 6.473,-8.534 0,0 1.37,1.826 2.317,3.074"/></g><g transform="translate(26.1914,24.0825)" id="g148"><path id="path150" style="fill:#66757f;fill-opacity:1;fill-rule:nonzero;stroke:none" d="m 0,0 c 1.026,-0.522 0.866,-4.595 0,-4.595 -0.867,0 -2.192,0.805 -2.004,1.61 C -1.815,-2.18 -1.123,0.57 0,0"/></g><g transform="translate(26.542,23.2476)" id="g152"><path id="path154" style="fill:#66757f;fill-opacity:1;fill-rule:nonzero;stroke:none" d="m 0,0 c -0.152,-0.278 -0.643,-0.301 -1.093,-0.052 l -15.318,8.481 c -0.449,0.249 -0.192,1.424 0.257,1.175 l 15.62,-8.65 C -0.085,0.705 0.155,0.278 0,0"/></g></g></g></g></svg>
