<svg xmlns="http://www.w3.org/2000/svg" viewBox="0 0 45 45" enable-background="new 0 0 45 45"><defs><clipPath id="a"><path d="M0 36h36V0H0v36z"/></clipPath><clipPath id="b"><path d="M16.47 16.85c.44-3.04 1.2-8.78 1.4-9.33.2-.55 2.58-4 3.47-4.96.5-.53 2.94 1.26 2.53 1.87-.47.7-2.43 3.52-2.68 4.2-.25.7-.5 5.92-.25 8.5 0 0-2.04 1.12-3.37 1.12-.74 0-1.26-.34-1.1-1.4"/></clipPath><clipPath id="c"><path d="M13.04 17.82s-1.1-9.03-1.1-9.86c0-.83.5-4.53.82-5.86.1-.44 3.9-.6 3.77.36-.08.6-.64 4.5-.55 4.94.1.46.56 2.9 1.38 4.43.6 1.1 4.43 2.25 3.57 6.08-.22.94-1.13 1.26-2.26 1.26-2.35 0-5.63-1.35-5.63-1.35"/></clipPath><clipPath id="d"><path d="M0 36h36V0H0v36z"/></clipPath></defs><g><g><g clip-path="url(#a)" transform="matrix(1.25 0 0 -1.25 0 45)"><g><path fill="#66757f" d="M13.2 32.52c-.14-.28-.63-.3-1.08-.05L9.5 33.9c-.45.24.03 1.3.48 1.04l2.7-1.46c.44-.25.53-.96.53-.96"/></g><g><path fill="#ccd6dd" d="M16.5 2.26c-.67.86-4.73-.26-6.13-.96C9.44.83 9.72 0 9.72 0h7.03s.4 1.4-.26 2.26"/></g><g><path fill="#ffcc4d" d="M20.36 27.07c-2.15 1.12-5.03 2.74-7.28 5.7-.23.32-2.12-.93-1.97-1.15 2.14-2.93 4.45-5.5 11.1-7.4.06 0 .1-.02.16-.04.2.27-1.1 2.42-2 2.9"/></g><g><path fill="#2a6797" d="M20.95 17.13c-.26-2.58 0-7.8.24-8.5.24-.7 2.2-3.5 2.67-4.2.4-.6-2.04-2.4-2.53-1.87-.9.95-3.27 4.4-3.46 4.96-.2.55-.97 6.3-1.4 9.33-.44 2.98 4.47.28 4.47.28"/></g><g><path fill="#4289c1" d="M13.04 17.8s-1.1-9-1.1-9.84c0-.83.5-4.53.82-5.86.1-.44 3.9-.6 3.77.36-.08.6-.64 4.5-.55 4.94.1.46.56 2.9 1.38 4.43.6 1.1 4.43 2.25 3.57 6.08-.65 2.87-7.9-.1-7.9-.1"/></g></g></g><g><g clip-path="url(#b)" transform="matrix(1.25 0 0 -1.25 0 45)"><g><path fill="#4289c1" d="M17.25 11.05l-.76.65c1.25 1.47 3.07 2.2 5.32 2.17l-.03-1c-1.92.04-3.5-.6-4.55-1.82"/></g><g><path fill="#4289c1" d="M17.28 7.95l-.82.56c1.08 1.6 2.83 2.57 5.05 2.77l.1-1c-1.9-.17-3.4-.97-4.32-2.32"/></g><g><path fill="#4289c1" d="M18.3 5.5l-.85.55c1.04 1.62 2.77 2.62 4.98 2.87l.12-1c-1.9-.2-3.38-1.05-4.26-2.4"/></g><g><path fill="#4289c1" d="M19.75 3.42l-.84.54c1.05 1.63 2.78 2.62 5 2.88l.1-1c-1.9-.22-3.37-1.06-4.25-2.42"/></g><g><path fill="#4289c1" d="M23.88 1.9c-.13.2-3.2 4.8-3.75 5.77-.48.85-1.1 4.82-.9 7.23.05.5-.35 2.18-.68 2.85l.9.44c.34-.72.85-2.62.78-3.4-.2-2.33.45-6.07.77-6.63.54-.95 3.68-5.66 3.7-5.7l-.82-.56z"/></g><g><path fill="#4289c1" d="M22 1.74c-.13.2-3.2 4.78-3.75 5.77-.48.85-1.12 4.82-.9 7.24.05.5-.35 2.17-.68 2.84l.9.44c.34-.7.85-2.6.78-3.37-.2-2.35.44-6.08.77-6.65.54-.95 3.68-5.66 3.7-5.7L22 1.74z"/></g></g></g><g><g clip-path="url(#c)" transform="matrix(1.25 0 0 -1.25 0 45)"><g><path fill="#88c9f9" d="M17.64 13.33c-2.85 0-5 .8-6.23 1.27l.36.93c1.67-.63 5.15-1.93 9.75-.67l.27-.97c-1.5-.42-2.88-.57-4.13-.57"/></g><g><path fill="#88c9f9" d="M16.42 9.9c-2.5 0-4.45.62-5.6 1l.3.94c1.7-.55 5.24-1.7 9.78-.23l.3-.95c-1.75-.56-3.35-.76-4.78-.76"/></g><g><path fill="#88c9f9" d="M15.5 6.9c-2.15 0-3.84.45-4.9.74l.27.96c1.72-.47 5.3-1.44 9.77.24L21 7.9c-2.04-.76-3.9-1-5.5-1"/></g><g><path fill="#88c9f9" d="M14.47 4.06c-1.5 0-2.7.2-3.5.35l.16 1c1.76-.3 5.42-.94 9.7 1.16l.44-.9c-2.56-1.26-4.9-1.6-6.8-1.6"/></g><g><path fill="#55acee" d="M13.37.93c-.03.24-.76 5.7-.83 6.83-.07 1.16 1.48 8.66 1.66 9.5l.98-.2c-.7-3.28-1.7-8.46-1.64-9.24.06-1.1.8-6.7.82-6.75l-1-.14z"/></g><g><path fill="#55acee" d="M15.02.93c-.03.24-.76 5.7-.83 6.83-.04.48.28 1.43.9 3.2.48 1.43 1.04 3.06 1.28 4.26.18.9.3 2.3.3 2.33l1-.1c0-.06-.13-1.5-.32-2.42-.26-1.27-.82-2.93-1.33-4.4-.38-1.1-.86-2.5-.84-2.8.06-1.1.8-6.7.8-6.76l-.98-.14z"/></g><g><path fill="#55acee" d="M17.2.38c-.02.23-.75 5.7-.82 6.83-.06.98 1.12 4.82 2.38 6.9.26.42.64 2.1.64 2.85h1c0-.8-.38-2.72-.78-3.38-1.23-2-2.28-5.65-2.24-6.3.07-1.1.8-6.7.82-6.76l-1-.12z"/></g></g></g><g><g clip-path="url(#d)" transform="matrix(1.25 0 0 -1.25 0 45)"><g><path fill="#ffdc5d" d="M25.38 30.78c0-1.97-1.6-3.57-3.58-3.57s-3.58 1.6-3.58 3.58 1.6 3.58 3.58 3.58c1.97 0 3.58-1.6 3.58-3.58"/></g><g><path fill="#4289c1" d="M19.93 30.78c-1.7 1.28-2.6 3.85-1.95 4.53 1.2 1.28 3.7.12 4.33-.97.65-1.1-1.85-3.93-2.37-3.55"/></g><g><path fill="#77b255" d="M13.04 17.8s.2 6.42 3.26 8.8c2.3 1.75 6.14.43 7.17-1.6 1.02-2.06-2.42-3.18-2.42-8.3 0-1.02-8-.9-8 1.1"/></g><g><path fill="#ffdc5d" d="M20.18 30.2c-.47-1.08-.8-2-1-2.8.6-.27 1.07-1.3 1.7-1.54 1.07-.38 1.18.28 1.2.4.27 1.3.92 2.54 1.34 3.2.5.8-2.65 2.1-3.24.73"/></g><g><path fill="#50a5e6" d="M18.94 32.94c0-1.15 1.68-4.5 4.97-4.47 1.74 0 2.05 1.9 2.04 3.17 0 1.08-1.17 2.96-2.8 3.43-1.64.47-4.2-.68-4.2-2.13"/></g><g><path fill="#ccd6dd" d="M22.9 4.54c1.5.26 1.27-1.38 1.23-1.97-.1-1.4-.37-2.57-1.36-2.57h-3.32s-.18 1.52 1.6 1.87c.36.07-.3 2.3 1.84 2.67"/></g><g><path fill="#ffdc5d" d="M13.84 32.74c0-.92-.76-1.66-1.7-1.66-.95 0-1.7.74-1.7 1.66 0 .9.75 1.65 1.7 1.65.94 0 1.7-.75 1.7-1.66"/></g><g><path fill="#ffdc5d" d="M17.92 26.33c-2 0-3.44.5-4.3 1.48-.73.86-1 2.06-.78 3.57l.03.17c.06.35.07.42-.14.6-.25.23-.85.46-1.42.46-.48 0-.74-.15-.78-.46-.87-7.12 4.1-7.83 5.73-8.06.1 0 .18-.02.25-.03.3.4 1.05 1.4 1.73 2.28-.1 0-.2 0-.3 0"/></g><g><path fill="#77b255" d="M14.44 27.6c-.38-1.27-1.6-2.7-1.6-2.7 1.76-1.6 3.84-1.73 3.84-1.73s1.82 2.05 2.16 3.28c-1.55-.43-4.4 1.16-4.4 1.16"/></g><g><path fill="#66757f" d="M29.6 24.08c1-.52.85-4.6 0-4.6-.88 0-2.2.8-2.02 1.62.2.8.9 3.55 2 2.98"/></g><g><path fill="#66757f" d="M29.94 23.25c-.15-.28-.64-.3-1.1-.05l-15.3 8.48c-.46.25-.2 1.42.25 1.17l15.6-8.65c.45-.25.7-.67.54-.95"/></g></g></g></g></svg>