<svg xmlns="http://www.w3.org/2000/svg" viewBox="0 0 45 45" enable-background="new 0 0 45 45"><defs><clipPath id="a"><path d="M0 36h36V0H0v36z"/></clipPath></defs><g><g><g clip-path="url(#a)" transform="matrix(1.25 0 0 -1.25 0 45)"><g><path fill="#4289c1" d="M36 31V4s0-4-4-4H4C0 0 0 4 0 4v5s25 2 36 22"/></g><g><path fill="#e0245e" d="M30.6 15.57s2.32 2.13 1.9 3.05c-.4.9-11.66-.83-17.14-3.28C7.14 11.67 3.3 5.57 4.1 3.74c.82-1.82 7.93-3.03 16.15.64 5.48 2.45 14.3 9.67 13.9 10.58-.4.92-3.56.6-3.56.6"/></g><g><path fill="#f5f8fa" d="M34.14 14.96c-.4.92-3.55.6-3.55.6s2.2 2.03 1.93 2.98L4.6 6.34c-.56-1.13-.73-2.05-.5-2.6.22-.46.86-.9 1.82-1.2l28.2 12.34c0 .02.03.06.02.08"/></g><g><path fill="#7c533e" d="M24.4 21c-3.4 0-6.45 3.95-6.8 4.4-.32.44-.23 1.07.2 1.4.45.33 1.07.24 1.4-.2.76-1 3.17-3.6 5.2-3.6.56 0 1-.45 1-1s-.44-1-1-1"/></g><g><path fill="#7c533e" d="M7.4 17c-.4 0-.8.27-.94.68-1.2 3.6.15 5.94 1.5 7.28 1.4 1.4 3.06 1.96 3.13 2 .52.17 1.08-.12 1.26-.64.17-.53-.1-1.1-.63-1.27-.52-.17-5-1.86-3.37-6.73.17-.53-.1-1.1-.64-1.27-.1-.03-.2-.05-.3-.05"/></g><g><path fill="#67757f" d="M25.4 10c-.3 0-.6.07-.9.2l-2 1c-.42.23-.77.6-.95 1.06l-1.68 4.2-4.2 1.68c-1.03.4-1.53 1.58-1.12 2.6.4 1.03 1.58 1.53 2.6 1.12l5-2c.5-.2.9-.6 1.12-1.12l1.7-4.3 1.33-.65c1-.5 1.4-1.7.9-2.7-.35-.7-1.06-1.1-1.8-1.1"/></g><g><path fill="#67757f" d="M16.4 6c-.72 0-1.43.4-1.78 1.1l-1 2c-.2.4-.26.86-.17 1.3l.85 4.23-2.6 4.34c-.58.95-.27 2.18.68 2.75.95.56 2.17.26 2.74-.7l3-5c.26-.42.35-.92.25-1.4l-.87-4.34.7-1.38c.5-1 .1-2.2-.9-2.7-.28-.13-.6-.2-.9-.2"/></g><g><path fill="#7c533e" d="M14.66 35.26c-1.7.63-4.3-.26-4.56-2.22-.27-1.94.33-4.98 2.03-4.77 1.8.22 3.6.64 4.3 2.5.7 1.84-.1 3.86-1.77 4.5"/></g><g><path fill="#7c533e" d="M16 30.22c2.44 2.87-3.44 2.6-3.44 2.6-1.1-.05-.35-1.9-.87-2.92-.37-.7 1.14-1.07 1.14-1.07s.7 0 .73-.83c0-.22 0-.48-.1-.82-.5-1.68 1.76-2.72 2.25-1.03.2.67.12 1.26.02 1.8V28c-.16.8-.34 1.5.26 2.22"/></g><g><path fill="#67757f" d="M18.4 28h-2.66l-.76-.77-1.42.77H11.4c-1.1 0-2-.9-2-2s.9-2 2-2v-3.5c0-1.93 1.58-3.5 3.5-3.5 1.94 0 3.5 1.57 3.5 3.5V24c1.1 0 2 .9 2 2s-.9 2-2 2"/></g><g><path fill="#0b0200" d="M16.58 34.6c-.5.57-1.07.97-1.76 1.18-.92.26-2.02.13-3.53-.4-1.4-.5-1.64-2.06-1.3-2.4.04-.03.07-.07.1-.08.04 0 .06 0 .1 0 .58-.14 1.12.27 1.8.18.3-.04.65-.18 1.04-.57.07-.05.1-.14.14-.24.16-.48.04-1.33.04-1.33s.27.93.4 1.25c.1.3.5.57.8 0 .23-.5-.16-1.22-.44-1.23-.2 0-.03-.57.36-1.06.5-.65 1.08-.8 1.37-.82.12 0 .54-.14 1.13 1.06.6 1.2.87 3.2-.25 4.47"/></g><g><path fill="#0b0200" d="M21.43 31.47c-1.2.35-1.95 1.9-3.42 1.45-1.78-.54-1.26-1.78-1.26-1.78s.45-1.27 1.8-1.65c.85-.26 2.53-.26 3.72.56.92.64 1.58 1.9 1.58 1.9-.56-.57-1.5-.75-2.4-.5"/></g></g></g></g></svg>