<svg xmlns="http://www.w3.org/2000/svg" viewBox="0 0 45 45" enable-background="new 0 0 45 45"><defs><clipPath id="a"><path d="M0 36h36V0H0v36z"/></clipPath></defs><g><g><path fill="#414042" d="M37.5 28.75h3.75l2.5-7.5H40l-2.5 7.5z"/></g><g><g clip-path="url(#a)" transform="matrix(1.25 0 0 -1.25 0 45)"><g><path fill="#f4900c" d="M29 17s-3 4-4 4h-9l-6-5-6.08-1.77C3.3 14 2.47 13.6 2.36 13L0 3c-.13-.65.45-1 1-1h34c.55 0 1 .45 1 1v12c0 2-7 2-7 2"/></g><g><path fill="#3b88c3" d="M16.1 16L11 2h12l5 14H16.1z"/></g><g><path fill="#292f33" d="M12 5c0-2.2-1.8-4-4-4S4 2.8 4 5s1.8 4 4 4 4-1.8 4-4"/></g><g><path fill="#58595b" d="M10 5c0-1.1-.9-2-2-2s-2 .9-2 2 .9 2 2 2 2-.9 2-2"/></g><g><path fill="#292f33" d="M33 5c0-2.2-1.8-4-4-4s-4 1.8-4 4 1.8 4 4 4 4-1.8 4-4"/></g><g><path fill="#58595b" d="M31 5c0-1.1-.9-2-2-2s-2 .9-2 2 .9 2 2 2 2-.9 2-2"/></g><g><path fill="#fff" d="M16 9.5c0 1.93 1.57 3.5 3.5 3.5S23 11.43 23 9.5 21.43 6 19.5 6 16 7.57 16 9.5"/></g><g><path fill="#231f20" d="M21.05 10.76c0-.44-.18-.83-.57-1.07.5-.25.85-.7.85-1.27 0-.84-.77-1.55-1.76-1.55-1.04 0-1.68.77-1.68 1.32 0 .27.28.47.53.47.47 0 .36-.82 1.15-.82.37 0 .66.28.66.65 0 .98-1.2.26-1.2 1.1 0 .72 1 .23 1 1 0 .27-.18.47-.5.47-.66 0-.57-.68-1.05-.68-.3 0-.46.24-.46.5 0 .55.74 1.14 1.52 1.14 1 0 1.5-.74 1.5-1.28"/></g><g><path fill="#f4900c" d="M30 18l1 1 5 1v-2h-6z"/></g><g><path fill="#88c9f9" d="M17 20h8v-4H12l5 4z"/></g><g><path fill="#ffcc4d" d="M6 12c0-.55-.45-1-1-1H3c-.55 0-1 .45-1 1s.45 1 1 1h2c.55 0 1-.45 1-1"/></g><g><path fill="#dd2e44" d="M36 14h-1c-.55 0-1-.45-1-1v-1c0-.55.45-1 1-1h1v3z"/></g></g></g></g></svg>