<svg xmlns="http://www.w3.org/2000/svg" viewBox="0 0 45 45" enable-background="new 0 0 45 45"><defs><clipPath id="a"><path d="M0 36h36V0H0v36z"/></clipPath></defs><g><g><g clip-path="url(#a)" transform="matrix(1.25 0 0 -1.25 0 45)"><g><path fill="#f3d2a2" d="M14.32 31.74c-1.2-.27 0-2.14-.37-3.35-.26-.85 1.47-.95 1.47-.95s1.2.27 1-1.68c-.2-1.94 2.47-2.6 2.68-.67.2 1.94-1.4 3-.5 4.5 2.08 3.62-4.28 2.14-4.28 2.14"/></g><g><path fill="#f3d2a2" d="M27 18c-.37 0-.72.2-.9.55-1.78 3.58-7.36 5.48-7.42 5.5-.52.18-.8.74-.63 1.27.18.52.74.8 1.27.63.26-.1 6.4-2.18 8.57-6.5.24-.5.04-1.1-.45-1.34-.15-.07-.3-.1-.45-.1"/></g><g><path fill="#2a6797" d="M12 2c-.18 0-.37.02-.55.08-1.06.3-1.68 1.4-1.37 2.47l2 7c.12.43.4.8.76 1.08l7 5c.9.64 2.15.43 2.8-.47.63-.9.42-2.14-.48-2.8L15.73 9.8l-1.8-6.33C13.66 2.57 12.86 2 12 2"/></g><g><path fill="#4289c1" d="M27 5c-.3 0-.6.07-.9.2l-6 3c-.67.35-1.1 1.04-1.1 1.8v5c0 1.1.9 2 2 2s2-.9 2-2v-3.76l4.9-2.45c.98-.5 1.38-1.7.9-2.7C28.43 5.4 27.72 5 27 5"/></g><g><path fill="#f3d2a2" d="M19 30.21c-.4-2.14-2.34-2.94-4.26-3.5-1.83-.55-3.04 2.67-3.1 4.86-.06 2.2 2.62 3.65 4.6 3.26 1.95-.38 3.2-2.45 2.77-4.6"/></g><g><path fill="#ffe51e" d="M12.52 34.32c2.67 1.64 4.45 1.35 5.93.15 1.48-1.2 1.53-3.44 1.1-4.86-.42-1.42-.83-1.34-.83-1.34s-1.98-.43-2.1 1.4c-.05.58.6.9-.1 1.74-.45.55-1.45.3-1.46-.5 0-.8-.42-.64-.42-.64l-1.16 2.1s-1.02.07-1.6-.87c-.36-.6-1.7 1.4.64 2.82"/></g><g><path fill="#77b255" d="M21.15 25.34c-.9 1.52-2.12 2.2-3.4 1.57-4-2.02-1.88-5.13.26-11.37 0 0 1-.92 3.37-.3 1.66.45 2.7-.7 2.97-.4.3.32-1.05 6.85-3.2 10.5"/></g><g><path fill="#f3d2a2" d="M16.14 23.5c-.02-.03-2.82-4.62-7.34-5.52v-.02c-.45-.1-.8-.48-.8-.96 0-.55.45-1 1-1 .07 0 .13.03.2.04v-.02c5.37 1.07 8.53 6.25 8.66 6.47l-1.72 1z"/></g><g><path fill="#292f33" d="M29.4 7.74c.1.37-.2.67-.58.76-.6.14-.87.17-.87.17-.3.02-.96-.06-1.06-.42-.73-2.54-.67-5.56-.26-6.4.25-.5.98-.43 1.13.1.43 1.54 1.25 4.46 1.62 5.8"/></g><g><path fill="#292f33" d="M12.7.92c.36-.12.68.16.8.53.16.6.2.86.2.86.05.3 0 .98-.34 1.1-2.5.86-5.52.98-6.38.62-.5-.2-.5-.95.03-1.13 1.52-.53 4.4-1.52 5.7-1.98"/></g></g></g></g></svg>