<svg xmlns="http://www.w3.org/2000/svg" viewBox="0 0 45 45" enable-background="new 0 0 45 45"><defs><clipPath id="a"><path d="M0 36h36V0H0v36z"/></clipPath></defs><g><g><g clip-path="url(#a)" transform="matrix(1.25 0 0 -1.25 0 45)"><g><path fill="#e1e8ed" d="M36 20V4s0-4-4-4H4C0 0 0 4 0 4v2s17 10 36 14"/></g><g><path fill="#ea596e" d="M32.82 15.02c.46-1 .02-2.2-.98-2.65L8.22 1.5c-1-.47-2.2-.03-2.65.97L4.73 4.3c-.46 1-.02 2.18.98 2.64l23.63 10.88c1 .46 2.2.02 2.65-.98l.84-1.82z"/></g><g><path fill="#67757f" d="M25.4 10c-.3 0-.6.07-.9.2l-2 1c-.42.23-.77.6-.95 1.06l-1.68 4.2-4.2 1.68c-1.03.4-1.53 1.58-1.12 2.6.4 1.03 1.58 1.53 2.6 1.12l5-2c.5-.2.9-.6 1.12-1.12l1.7-4.3 1.33-.65c1-.5 1.4-1.7.9-2.7-.35-.7-1.06-1.1-1.8-1.1"/></g><g><path fill="#67757f" d="M16.4 6c-.72 0-1.43.4-1.78 1.1l-1 2c-.2.4-.26.86-.17 1.3l.85 4.23-2.6 4.34c-.58.95-.27 2.18.68 2.75.95.56 2.17.26 2.74-.7l3-5c.26-.42.35-.92.25-1.4l-.87-4.34.7-1.38c.5-1 .1-2.2-.9-2.7-.28-.13-.6-.2-.9-.2"/></g><g><path fill="#bbddf5" d="M24.4 20c-3.88 0-7.22 4.3-7.6 4.8-.65.88-.47 2.14.4 2.8.9.66 2.14.48 2.8-.4 1-1.33 3.04-3.2 4.4-3.2 1.1 0 2-.9 2-2s-.9-2-2-2"/></g><g><path fill="#bbddf5" d="M7.4 16c-.83 0-1.6.53-1.9 1.37-1.05 3.17-.43 6.12 1.74 8.3 1.54 1.53 3.34 2.16 3.54 2.23 1.04.35 2.18-.22 2.53-1.27.35-1.04-.2-2.17-1.25-2.52-.96-.33-4-1.72-2.74-5.47.35-1.04-.2-2.18-1.26-2.53-.2-.07-.42-.1-.63-.1"/></g><g><path fill="#67757f" d="M18.4 20.5c0-1.93-1.56-3.5-3.5-3.5-1.92 0-3.5 1.57-3.5 3.5v4c0 1.93 1.58 3.5 3.5 3.5 1.94 0 3.5-1.57 3.5-3.5v-4z"/></g><g><path fill="#bbddf5" d="M20.4 26c0-1.1-.9-2-2-2h-7c-1.1 0-2 .9-2 2s.9 2 2 2h7c1.1 0 2-.9 2-2"/></g><g><path fill="#bbddf5" d="M11 17.5c-.1 0-.2.03-.28.1-.14.08-.22.24-.22.4v7c0 2.5 2.7 2.5 4.5 2.5 1.8 0 4.5 0 4.5-2.5v-4c0-.2-.13-.4-.32-.47l-8-3c-.06-.02-.12-.03-.18-.03"/></g><g><path fill="#1c6399" d="M31.47 32.16l-1 3c-.06.2-.26.34-.47.34-.13 0-3.2-.03-7.3-3.1-3.87-2.9-4.76-2.9-6.7-2.9h-3c-.13 0-.26-.05-.35-.15-.53-.52-.67-1.26-.37-1.98.37-.9 1.55-1.87 3.72-1.87 1.44 0 3.53 1.16 5.96 2.5 2.98 1.64 6.35 3.5 9.04 3.5.16 0 .3.08.4.2.1.14.13.3.07.46"/></g><g><path fill="#f3d2a2" d="M18.4 32c0-2.2-1.78-4-4-4-2.2 0-4 1.8-4 4s1.8 3 4 3c2.22 0 4-.8 4-3"/></g><g><path fill="#9aaab4" d="M12 32c2 0 4 1 4 0s0-3 2-3 3 7-3 7-6-4-3-4"/></g><g><path fill="#bdddf4" d="M13 31.5c0-.83-.67-1.5-1.5-1.5s-1.5.67-1.5 1.5.67 1.5 1.5 1.5 1.5-.67 1.5-1.5"/></g><g><path fill="#67757f" d="M11.5 32.5c-.55 0-1-.45-1-1s.45-1 1-1 1 .45 1 1-.45 1-1 1m0-3c-1.1 0-2 .9-2 2s.9 2 2 2 2-.9 2-2-.9-2-2-2"/></g><g><path fill="#bdddf4" d="M16 31.5c0-.83-.67-1.5-1.5-1.5s-1.5.67-1.5 1.5.67 1.5 1.5 1.5 1.5-.67 1.5-1.5"/></g><g><path fill="#67757f" d="M14.5 32.5c-.55 0-1-.45-1-1s.45-1 1-1 1 .45 1 1-.45 1-1 1m0-3c-1.1 0-2 .9-2 2s.9 2 2 2 2-.9 2-2-.9-2-2-2"/></g></g></g></g></svg>