<svg xmlns="http://www.w3.org/2000/svg" viewBox="0 0 45 45" enable-background="new 0 0 45 45"><defs><clipPath id="a"><path d="M0 36h36V0H0v36z"/></clipPath></defs><g><g><g clip-path="url(#a)" transform="matrix(1.25 0 0 -1.25 0 45)"><g><path fill="#d5ab88" d="M14.78.75c.14-.54.7-.86 1.22-.72.53.14.85.7.7 1.23l-1.5 5.8c-.15.53-.7.85-1.23.7-.54-.13-.86-.68-.7-1.2l1.5-5.8z"/></g><g><path fill="#d5ab88" d="M19.3 1.25c-.15-.53.17-1.08.7-1.22.54-.14 1.08.18 1.22.72l1.53 5.8c.14.53-.18 1.08-.72 1.22-.53.14-1.08-.18-1.22-.7l-1.5-5.82z"/></g><g><path fill="#d5ab88" d="M14.2 21.3c.17-.53-.2-2.3-.2-2.3-1 0-1.54 1.18-1.7 1.7L9.04 31.2c-.17.54.13 1.1.66 1.26.53.17 1.1-.13 1.26-.66l3.25-10.5z"/></g><g><path fill="#d5ab88" d="M21.8 21.3c-.17-.53.2-2.3.2-2.3 1 0 1.54 1.18 1.7 1.7l3.25 10.5c.17.54-.13 1.1-.66 1.26-.53.17-1.1-.13-1.26-.66L21.8 21.3z"/></g><g><path fill="#963b22" d="M18.38 33c-.9 0-1.74-.3-2.43-.78-1.4-.07-2.54-1.23-2.54-2.66 0-1.18.02-2.66 1.57-3.22.76-1.06 2-1.75 3.4-1.75 2.34 0 4.22 1.87 4.22 4.2 0 2.32-1.9 4.2-4.22 4.2"/></g><g><path fill="#4289c1" d="M19 13h-2l-3-2-1-5h3l1 3h2l1-3h3l-1 5-3 2z"/></g><g><path fill="#4289c1" d="M13 0v1s0 1 2 1 2-1 2-1V0h-4z"/></g><g><path fill="#4289c1" d="M19 0v1s0 1 2 1 2-1 2-1V0h-4z"/></g><g><path fill="#4289c1" d="M22 22h-8V12h8v10z"/></g><g><path fill="#d5ab88" d="M16.47 24.6v-3.07c0-.85.7-1.53 1.53-1.53.84 0 1.53.68 1.53 1.53v3.06h-3.06z"/></g><g><path fill="#d5ab88" d="M21.82 30.7h-7.64v-4.58c0-2.1 1.7-3.83 3.82-3.83 2.1 0 3.82 1.7 3.82 3.82v4.6z"/></g><g><path fill="#963b22" d="M16.4 30.78H14v-3.2c1.87 0 2.28 1.93 2.37 2.8.03-.87.65-2.8 5.63-2.8v3.2h-5.6z"/></g><g><path fill="#c1694f" d="M19.53 23.82h-3.06s0-.76 1.53-.76 1.53.76 1.53.76"/></g><g><path fill="#662113" d="M16.47 26.5c0-.2-.17-.38-.38-.38-.22 0-.4.17-.4.38 0 .2.18.38.4.38.2 0 .37-.17.37-.38"/></g><g><path fill="#662113" d="M20.3 26.5c0-.2-.18-.38-.4-.38-.2 0-.37.17-.37.38 0 .2.17.38.38.38.22 0 .4-.17.4-.38"/></g><g><path fill="#c1694f" d="M17.24 25.35h1.52s0-.76-.76-.76-.76.75-.76.75"/></g><path fill="#662113" d="M22 11h-8v2h8v-2z"/><g><path fill="#99aab5" d="M33.5 32.5c0-.28-.22-.5-.5-.5H3c-.28 0-.5.22-.5.5s.22.5.5.5h30c.28 0 .5-.22.5-.5"/></g><g><path fill="#292f33" d="M32 36c-.55 0-1-.45-1-1 0 .55-.45 1-1 1s-1-.45-1-1v-5c0-.55.45-1 1-1s1 .45 1 1c0-.55.45-1 1-1s1 .45 1 1v5c0 .55-.45 1-1 1"/></g><g><path fill="#292f33" d="M6 36c-.55 0-1-.45-1-1 0 .55-.45 1-1 1s-1-.45-1-1v-5c0-.55.45-1 1-1s1 .45 1 1c0-.55.45-1 1-1s1 .45 1 1v5c0 .55-.45 1-1 1"/></g></g></g></g></svg>