<svg xmlns="http://www.w3.org/2000/svg" viewBox="0 0 45 45" enable-background="new 0 0 45 45"><defs><clipPath id="a"><path d="M0 36h36V0H0v36z"/></clipPath><clipPath id="b"><path d="M8.25 27.75C1.1 20.58-1.93 8.55 2.93 2.93 8.56-1.93 20.58 1.1 27.75 8.25c7.16 7.17 11.22 17.1 5.32 24.82-1.9 1.63-4.5 2.37-7.4 2.37-5.74 0-12.65-2.93-17.42-7.7"/></clipPath></defs><g><g><g clip-path="url(#a)" transform="matrix(1.25 0 0 -1.25 0 45)"><g><path fill="#3b88c3" d="M27.75 8.25C20.58 1.1 8.55-1.93 2.93 2.93-1.93 8.56 1.1 20.58 8.25 27.75c7.17 7.16 19.2 10.18 24.82 5.32 5.9-7.73 1.84-17.65-5.32-24.82"/></g></g></g><g><g clip-path="url(#b)" transform="matrix(1.25 0 0 -1.25 0 45)"><g><path fill="#ccd6dd" d="M35.83 28.67C35.5 24.25 26.5 9.5 11.43 3.92c-1.18-.5-1.1-2 .82-2.17 1.92-.17 13.5.17 17.5 2.42s10.75 18.9 9 20.25c-1.75 1.33 4.42 7.75 3 6.4-1.42-1.32-5.92-2.15-5.92-2.15"/></g><g><path fill="#e1e8ed" d="M8.08 8.17c7.84 1.9 26.67 10.4 25.25 24.58-.4 1.17-8.15 6.12-21.33-4.75-7.58-6.25-8.78-14.2-8.25-18.92.2-1.8 2.42-1.38 4.33-.9"/></g></g></g></g></svg>