<svg xmlns="http://www.w3.org/2000/svg" viewBox="0 0 36 36"><path fill="#78B159" d="M0 27v5c0 2.209 1.791 4 4 4h28c2.209 0 4-1.791 4-4v-5H0z"/><path fill="#88C9F9" d="M36 4c0-2.209-1.791-4-4-4H4C1.791 0 0 1.791 0 4v24h36V4z"/><path fill="#662113" d="M29.101 27.557c0 1.918-.969 2.594-2.163 2.594s-2.162-.676-2.162-2.594l.54-7.816c0-1.917.428-1.735 1.622-1.735 1.194 0 1.623-.182 1.623 1.735l.54 7.816z"/><path fill="#5C913B" d="M35.589 13.322c0 6.405-3.872 8.698-8.651 8.698-4.777 0-8.651-2.293-8.651-8.698S23.152 1 26.938 1s8.651 5.917 8.651 12.322z"/><path d="M21.53 16.221c0-.4-.482-.724-1.081-.724-.597 0-1.082.324-1.082.724 0 .4.485.725 1.082.725.599-.001 1.081-.325 1.081-.725zm12.977 0c0-.4-.483-.724-1.081-.724-.597 0-1.082.324-1.082.724 0 .4.485.725 1.082.725.597-.001 1.081-.325 1.081-.725zm-10.813 2.898c0-.401-.485-.724-1.082-.724-.598 0-1.082.323-1.082.724 0 .4.484.725 1.082.725.597 0 1.082-.324 1.082-.725zm2.161-2.174c0-.4-.483-.725-1.08-.725-.598 0-1.081.324-1.081.725 0 .4.483.726 1.081.726.597 0 1.08-.325 1.08-.726zm-2.161-4.349c0-.4-.485-.724-1.082-.724-.598 0-1.082.324-1.082.724 0 .401.484.726 1.082.726.597 0 1.082-.325 1.082-.726zm-1.622-2.898c0-.401-.485-.725-1.082-.725-.597 0-1.081.324-1.081.725 0 .4.484.724 1.081.724s1.082-.324 1.082-.724zm11.895 0c0-.401-.484-.725-1.082-.725-.597 0-1.08.324-1.08.725 0 .4.483.724 1.08.724.597 0 1.082-.324 1.082-.724zm-8.112-1.45c0-.4-.483-.724-1.08-.724-.598 0-1.081.324-1.081.724 0 .402.483.726 1.081.726.597-.001 1.08-.325 1.08-.726zm4.328 0c0-.4-.484-.724-1.082-.724-.598 0-1.082.324-1.082.724 0 .402.484.726 1.082.726.597-.001 1.082-.325 1.082-.726zm2.161 4.348c0-.4-.483-.724-1.08-.724-.598 0-1.081.324-1.081.724 0 .401.483.726 1.081.726.596 0 1.08-.325 1.08-.726zm-4.325.726c0-.4-.483-.726-1.081-.726-.597 0-1.082.325-1.082.726 0 .401.485.725 1.082.725.597-.001 1.081-.324 1.081-.725zm2.164 3.623c0-.4-.484-.725-1.082-.725-.598 0-1.082.324-1.082.725 0 .4.484.726 1.082.726.597 0 1.082-.325 1.082-.726zm-2.164 2.899c0-.4-.483-.725-1.081-.725-.597 0-1.082.324-1.082.725 0 .402.485.725 1.082.725.597-.001 1.081-.323 1.081-.725zm4.325-.725c0-.401-.483-.724-1.08-.724-.598 0-1.081.323-1.081.724 0 .4.483.725 1.081.725.596 0 1.08-.324 1.08-.725z" fill="#3E721D"/><path fill="#F4900C" d="M14.029 33c-.424 0-.802-.267-.944-.666L8.073 18.301c-.11-.307-.063-.628.125-.896.187-.265.493-.405.819-.405h12.029c.401 0 .764.22.922.589l6.014 14.023c.133.31.101.661-.084.942-.187.282-.502.446-.838.446H14.029z"/><path fill="#FFCC4D" d="M3.002 33c-.337 0-.652-.17-.837-.45-.185-.282-.216-.638-.083-.948L8.099 17.56c.157-.368.521-.607.921-.607.401 0 .765.24.922.607l6.018 14.041c.133.31.1.666-.085.948-.186.28-.5.45-.837.45H3.002z"/><path fill="#292F33" d="M9.017 17.964L7.012 33h4.009z"/><path fill="#FFF" d="M13 6c-.018 0-.034.006-.052.006.034-.163.052-.333.052-.506C13 4.119 11.881 3 10.5 3c-.891 0-1.667.469-2.11 1.17C8.113 4.064 7.815 4 7.5 4c-1.275 0-2.315.957-2.469 2.19-.282-.113-.583-.19-.906-.19-1.381 0-2.5 1.119-2.5 2.5s1.119 2.5 2.5 2.5H13c1.381 0 2.5-1.119 2.5-2.5S14.381 6 13 6z"/></svg>