<svg xmlns="http://www.w3.org/2000/svg" viewBox="0 0 45 45" enable-background="new 0 0 45 45"><defs><clipPath id="a"><path d="M0 36h36V0H0v36z"/></clipPath><clipPath id="b"><path d="M13 8H0V4c0-.96.35-1.83.9-2.52C1.66.58 2.76 0 4 0h28c2.2 0 4 1.8 4 4v4H13z"/></clipPath></defs><g><g><g clip-path="url(#a)" transform="matrix(1.25 0 0 -1.25 0 45)"><g><path fill="#88c9f9" d="M32 36H4c-2.2 0-4-1.8-4-4V7h36v25c0 2.2-1.8 4-4 4"/></g><g><path fill="#ffac33" d="M13 8C12.4 6.78 8.45 3.7.9 1.48 1.66.58 2.76 0 4 0h28c2.2 0 4 1.8 4 4v4H13z"/></g><g><path fill="#3b88c3" d="M13 8H0V4c0-.96.35-1.83.9-2.52C8.46 3.7 12.4 6.78 13 8"/></g><g><path fill="#66757f" d="M18.97 3.85c-.15-.7-.83-1.13-1.52-.98-.7.15-1.14.83-.98 1.52l5.08 25.98c.15.7.83 1.13 1.53.98.7-.15 1.13-.83.98-1.52l-5.1-26z"/></g><g><path fill="#dd2e44" d="M22.7 29.7c-7.6 1.64-14.85-1.88-16.15-7.9 0 0-.36-1.66.47-1.84.84-.18 2.88 1.13 2.88 1.13l20.9-4.55s1.3-2.04 2.15-2.22c.84-.18 1.2 1.5 1.2 1.5 1.3 6-3.82 12.2-11.44 13.86"/></g><g><path fill="#fff" d="M22.7 29.7c-5.76 1.24-11.5-2.6-12.8-8.6 0 0-.37-1.7 1.3-2.05 1.68-.36 4.55.77 4.55.77l9.2-2s2.15-2.22 3.82-2.58c1.67-.36 2.04 1.3 2.04 1.3 1.3 6-2.32 11.9-8.1 13.15"/></g><g><path fill="#dd2e44" d="M22.7 29.7c-3 .64-5.65-3.88-6.95-9.88 0 0 2.15-2.22 3.82-2.58l.84-.2c1.68-.35 4.55.78 4.55.78 1.3 6 .76 11.22-2.24 11.87"/></g></g></g><g><g clip-path="url(#b)" transform="matrix(1.25 0 0 -1.25 0 45)"><g><path fill="#f2f9ff" d="M15.22 8s-.75-.9-2.22-.9c-.77 0-1.25-1.1 1-1.1 2.44 0 1.12-1-1-1-4.3 0-1.6-2-5-2H7C5.25 3 4.08 2 6 2c3.67 0-.27-2-3-2H2c-3.04 0-3.75 3.08 0 3.08 1.9 0 2.62 1.53 5 1.53C9.12 4.6 9.9 7 11 7s2 1 2 1h2.22z"/></g></g></g></g></svg>