<svg xmlns="http://www.w3.org/2000/svg" viewBox="0 0 36 36"><path fill="#88C9F9" d="M32 0H4C1.791 0 0 1.791 0 4v25h36V4c0-2.209-1.791-4-4-4z"/><path fill="#FFAC33" d="M13 28c-.61 1.22-4.553 4.299-12.086 6.517C1.648 35.415 2.75 36 4 36h28c2.209 0 4-1.791 4-4v-4H13z"/><path fill="#3B88C3" d="M13 28H0v4c0 .959.352 1.827.914 2.517C8.447 32.299 12.39 29.22 13 28z"/><path fill="#66757F" d="M18.974 32.15c-.15.692-.834 1.133-1.527.982-.693-.15-1.133-.834-.983-1.527L21.548 5.62c.15-.693.834-1.132 1.527-.982.691.15 1.133.834.981 1.527L18.974 32.15z"/><path fill="#DD2E44" d="M22.712 6.311C15.09 4.656 7.855 8.183 6.552 14.188c0 0-.363 1.672.474 1.854.836.182 2.872-1.128 2.872-1.128l20.908 4.539s1.309 2.036 2.146 2.218c.837.182 1.199-1.491 1.199-1.491 1.304-6.006-3.818-12.215-11.439-13.869z"/><path fill="#FFF" d="M22.712 6.311C16.938 5.058 11.201 8.91 9.898 14.914c0 0-.363 1.673 1.31 2.036 1.673.364 4.545-.765 4.545-.765l9.199 1.997s2.146 2.217 3.819 2.581c1.673.362 2.035-1.311 2.035-1.311 1.303-6.004-2.321-11.889-8.094-13.141z"/><path fill="#DD2E44" d="M22.712 6.311c-3.003-.651-5.657 3.87-6.96 9.874 0 0 2.146 2.218 3.818 2.58l.837.183c1.673.362 4.544-.766 4.544-.766 1.304-6.005.764-11.22-2.239-11.871z"/><path fill="#F2F9FF" d="M11 29c-1.115 0-1.875 2.386-4 2.386-2.375 0-3.094 1.534-5 1.534-.785 0-1.364.14-1.778.353.159.456.392.876.692 1.244.666.815 1.642 1.348 2.75 1.444C6.304 35.693 9.378 34 6 34c-1.917 0-.75-1 1-1h.999c3.406 0 .688-2 5-2 2.125 0 3.435-1 1-1-2.25 0-1.771-1.094-1-1.094 1.469 0 2.219-.906 2.219-.906H13s-.908 1-2 1z"/></svg>