<?xml version="1.0" encoding="UTF-8" standalone="no"?><svg xmlns:dc="http://purl.org/dc/elements/1.1/" xmlns:cc="http://creativecommons.org/ns#" xmlns:rdf="http://www.w3.org/1999/02/22-rdf-syntax-ns#" xmlns:svg="http://www.w3.org/2000/svg" xmlns="http://www.w3.org/2000/svg" viewBox="0 0 45 45" style="enable-background:new 0 0 45 45;" xml:space="preserve" version="1.1" id="svg2"><metadata id="metadata8"><rdf:RDF><cc:Work rdf:about=""><dc:format>image/svg+xml</dc:format><dc:type rdf:resource="http://purl.org/dc/dcmitype/StillImage"/></cc:Work></rdf:RDF></metadata><defs id="defs6"><clipPath id="clipPath16" clipPathUnits="userSpaceOnUse"><path id="path18" d="M 0,36 36,36 36,0 0,0 0,36 Z"/></clipPath></defs><g transform="matrix(1.25,0,0,-1.25,0,45)" id="g10"><g id="g12"><g clip-path="url(#clipPath16)" id="g14"><g transform="translate(28.25,27.4873)" id="g20"><path id="path22" style="fill:#66757f;fill-opacity:1;fill-rule:nonzero;stroke:none" d="m 0,0 c 0,0.145 -0.117,0.263 -0.263,0.263 l -0.474,0 C -0.883,0.263 -1,0.145 -1,0 l 0,-11.475 c 0,-0.145 0.117,-0.262 0.263,-0.262 l 0.474,0 c 0.146,0 0.263,0.117 0.263,0.262 L 0,0 Z"/></g><g transform="translate(29.25,16.25)" id="g24"><path id="path26" style="fill:#f19020;fill-opacity:1;fill-rule:nonzero;stroke:none" d="M 0,0 C 0,0.828 -0.672,1.5 -1.5,1.5 -2.328,1.5 -3,0.828 -3,0 c 0,-0.828 0.672,-1.5 1.5,-1.5 0.828,0 1.5,0.672 1.5,1.5"/></g><g transform="translate(26.75,13.75)" id="g28"><path id="path30" style="fill:#f19020;fill-opacity:1;fill-rule:nonzero;stroke:none" d="M 0,0 C 0,-0.553 0.447,-1 1,-1 1.553,-1 2,-0.553 2,0 2,0.553 1.553,1 1,1 0.447,1 0,0.553 0,0"/></g><g transform="translate(33.25,25.25)" id="g32"><path id="path34" style="fill:#bd2032;fill-opacity:1;fill-rule:nonzero;stroke:none" d="m 0,0 c 0,-0.276 -0.224,-0.5 -0.5,-0.5 l -0.5,0 -0.5,0 -0.5,0 0,0.5 0,1 0,0.5 0.5,0 0.5,0 0.5,0 C -0.224,1.5 0,1.276 0,1 L 0,0 Z m -3,-0.5 -2,0 0,2 2,0 0,-2 z m -3,0 -2,0 0,2 2,0 0,-2 z m -3,0 -2,0 0,2 2,0 0,-2 z m -3,0 -2,0 0,2 2,0 0,-2 z m -3,0 -2,0 0,2 2,0 0,-2 z m -3,0 -1.16,0 0,2 1.16,0 0,-2 z m -2,3 0,1 c 0,0.552 -0.448,1 -1,1 l -2,0 0,4.751 L -6.737,2.5 -20,2.5 Z m 0.652,-16.735 0.563,-3.291 -3.298,1.798 2.735,1.493 z m 1.541,-9.015 -11.376,0 0.686,4.024 4.997,2.726 5.006,-2.73 0.687,-4.02 z m -9.84,9.012 2.73,-1.49 -3.29,-1.793 0.56,3.283 z M -28.177,2.5 -24,8.388 -24,4.5 l -2,0 c -0.552,0 -1,-0.448 -1,-1 l 0,-1 -1.177,0 z m 5.747,-6.248 1.132,0.93 0.364,-2.13 -1.496,1.2 z m -3.633,-1.198 0.362,2.127 1.131,-0.929 -1.493,-1.198 z m 2.563,-3.887 -2.828,1.885 2.828,2.322 2.828,-2.322 -2.828,-1.885 z m 1.299,-0.866 1.869,1.225 0.477,-2.79 -2.346,1.565 z m -4.938,-1.561 0.474,2.784 1.866,-1.223 -2.34,-1.561 z m 3.639,0.709 3.667,-2.403 -3.667,-2 -3.667,2 3.667,2.403 z m 1.73,9.051 -1.73,-1.389 -1.73,1.389 3.46,0 z m 21.77,4 -4.129,0 -19.175,7.96 c -0.001,0 -0.002,10e-4 -0.003,10e-4 l -0.001,0 c -0.015,0.007 -0.031,0.005 -0.046,0.01 -0.047,0.014 -0.094,0.029 -0.146,0.029 0,0 -0.001,0 -0.001,0 -0.066,0 -0.131,-0.014 -0.19,-0.039 -0.046,-0.019 -0.085,-0.049 -0.123,-0.081 -0.012,-0.009 -0.026,-0.014 -0.037,-0.025 -0.047,-0.046 -0.085,-0.102 -0.11,-0.164 l 0,-0.001 c -0.004,-0.009 -0.003,-0.019 -0.006,-0.028 l -5.541,-7.81 C -29.511,2.347 -29.511,2.342 -29.514,2.337 -29.799,2.161 -30,1.86 -30,1.5 l 0,-2 c 0,-0.552 0.448,-1 1,-1 l 1.495,0 -3.714,-21.75 -1.781,0 0,-2 18.958,0 0,2 -1.739,0 -3.713,21.75 19.494,0 c 0.553,0 1,0.448 1,1 l 0,2 c 0,0.552 -0.447,1 -1,1"/></g><g transform="translate(12.25,28.75)" id="g36"><path id="path38" style="fill:#4b545d;fill-opacity:1;fill-rule:nonzero;stroke:none" d="m 0,0 -2,0 c -0.552,0 -1,-0.448 -1,-1 l 0,-2 c 0,-0.552 0.448,-1 1,-1 l 2,0 1,0 0,1 0,2 0,1 -1,0 z"/></g><path id="path40" style="fill:#cdd7df;fill-opacity:1;fill-rule:nonzero;stroke:none" d="m 13.25,24.75 -2,0 0,4 2,0 0,-4 z"/><g transform="translate(34.8438,12)" id="g42"><path id="path44" style="fill:#66757f;fill-opacity:1;fill-rule:nonzero;stroke:none" d="m 0,0 0,1 -14.188,0 0,-1 0.844,0 0,-2.469 -0.844,0 0,-1 14.188,0 0,1 -0.844,0 0,2.469 L 0,0 Z"/></g></g></g></g></svg>
