<svg xmlns="http://www.w3.org/2000/svg" viewBox="0 0 45 45" enable-background="new 0 0 45 45"><defs><clipPath id="a"><path d="M0 36h36V0H0v36z"/></clipPath><clipPath id="b"><path d="M4 36s-4 0-4-4V4c0-4 4-4 4-4h28c4 0 4 4 4 4v28s0 4-4 4H4z"/></clipPath><clipPath id="c"><path d="M16 12C9.44 8.25 4.33 3.33.4 2.1 1.4 0 4 0 4 0h28c4 0 4 4 4 4v12c-3 2-5 6-7 6s-6-6-13-10"/></clipPath><clipPath id="d"><path d="M4 36s-4 0-4-4V4c0-4 4-4 4-4h28c4 0 4 4 4 4v28s0 4-4 4H4z"/></clipPath><clipPath id="e"><path d="M0 15V4c0-4 4-4 4-4h28c4 0 4 4 4 4v3s-7 4-13 10c-4.5 4.5-8 10-10 10S4 18 0 15"/></clipPath></defs><g><g><g clip-path="url(#a)" transform="matrix(1.25 0 0 -1.25 0 45)"><g><path fill="#88c9f9" d="M36 4s0-4-4-4H4S0 0 0 4v28c0 4 4 4 4 4h28c4 0 4-4 4-4V4z"/></g></g></g><g><g clip-path="url(#b)" transform="matrix(1.25 0 0 -1.25 0 45)"><g><path fill="#4b545c" d="M16 12c7 4 11 10 13 10s4-4 7-6c1.67-1.1 0-20 0-20H0S-6.45.4 0 2c4 1 9.22 6.13 16 10"/></g></g></g><g><g clip-path="url(#c)" transform="matrix(1.25 0 0 -1.25 0 45)"><g><path fill="#fff" d="M30 24l7-5.83s-1.17.58-2.33.58c-1.17 0-1.17-1.75-1.75-1.75-.6 0-1.17 1.17-2.34 1.17-.8 0-.8-.6-1.75-.6-.58 0-1.16.6-1.75.6-.58 0-1.16-.46-1.75-.46-.58 0-1.16 1.3-2.33 1.3h-3v.33L27.08 24H30z"/></g></g></g><g><g clip-path="url(#d)" transform="matrix(1.25 0 0 -1.25 0 45)"><g><path fill="#292f33" d="M0 15c4 3 11 12 13 12s5.5-5.5 10-10c6-6 13-10 13-10V-4H0s-1.6 17.8 0 19"/></g></g></g><g><g clip-path="url(#e)" transform="matrix(1.25 0 0 -1.25 0 45)"><g><path fill="#fff" d="M12.23 27L3 19.5s1.54.88 3.08.88 1.54-2.25 2.3-2.25c.78 0 1.55 1.56 3.08 1.56 1.07 0 1.06-.77 2.3-.77.78 0 1.55.78 2.32.78.77 0 1.54-1 2.3-1 .78 0 1.55 1.3 3.1 1.3H25c1 0 0 1.25 0 1.25L16.08 27h-3.85z"/></g><g><path fill="#5c913b" d="M-1.25 6S1.3 4.5 3 4c1.7-.5 4.5 2 5 2 1 0 4-2 5-2 2 0 4 1 5 1s5-2 6-2c.5 0 2.65 2 4 2 1 0 3.5-1 4-1 1 0 5 .75 5 .83C37 4.93 36-2 36-2H-1l-.25 8z"/></g></g></g></g></svg>