<svg xmlns="http://www.w3.org/2000/svg" viewBox="0 0 45 45" enable-background="new 0 0 45 45"><defs><clipPath id="a"><path d="M0 36h36V0H0v36z"/></clipPath></defs><g><path fill="#292f33" d="M36.25 36.25H8.75v-22.5h27.5v22.5z"/><g><g clip-path="url(#a)" transform="matrix(1.25 0 0 -1.25 0 45)"><g><path fill="#ccd6dd" d="M8 7c0-1.1-.6-2-1.33-2H5.33C4.6 5 4 5.9 4 7v18c0 1.1.6 2 1.33 2h1.34C7.4 27 8 26.1 8 25V7z"/></g><g><path fill="#ccd6dd" d="M32 7c0-1.1-.6-2-1.33-2h-1.34C28.6 5 28 5.9 28 7v18c0 1.1.6 2 1.33 2h1.34c.73 0 1.33-.9 1.33-2V7z"/></g><g><path fill="#ccd6dd" d="M16 7c0-1.1-.6-2-1.33-2h-1.34C12.6 5 12 5.9 12 7v18c0 1.1.6 2 1.33 2h1.34c.73 0 1.33-.9 1.33-2V7z"/></g><g><path fill="#ccd6dd" d="M24 7c0-1.1-.6-2-1.33-2h-1.34C20.6 5 20 5.9 20 7v18c0 1.1.6 2 1.33 2h1.34c.73 0 1.33-.9 1.33-2V7z"/></g><g><path fill="#9aaab4" d="M33 6c0-1.1-.9-2-2-2H5c-1.1 0-2 .9-2 2s.9 2 2 2h26c1.1 0 2-.9 2-2"/></g><g><path fill="#ccd6dd" d="M35 4c0-1.1-.9-2-2-2H3c-1.1 0-2 .9-2 2s.9 2 2 2h30c1.1 0 2-.9 2-2"/></g><g><path fill="#e1e8ed" d="M36 2.5c0-.83-.67-1.5-1.5-1.5h-33C.67 1 0 1.67 0 2.5S.67 4 1.5 4h33c.83 0 1.5-.67 1.5-1.5"/></g><g><path fill="#9aaab4" d="M33 26c0 1.1-.96 2-2.13 2H5c-1.18 0-2-.9-2-2 0-.75.4-1.4 1-1.74V23h4v1h4v-1h4v1h4v-1h4v1h4v-1h4v1.3c.6.37 1 1 1 1.7"/></g><g><path fill="#ccd6dd" d="M2 27.56C2 28.6 3 29 3 29l14.92 7 15.04-7S34 28.77 34 27.55V27H2v.56z"/></g><g><path fill="#9aaab4" d="M18 33.46S7.68 28.6 6.65 28.16c-1.03-.44-.7-1.16 0-1.16H29.3c1.06 0 .8.8-.03 1.25-.85.44-11.27 5.2-11.27 5.2"/></g><g><path fill="#ccd6dd" d="M34 27c0-.55-.45-1-1-1H3c-.55 0-1 .45-1 1s.45 1 1 1h30c.55 0 1-.45 1-1"/></g></g></g></g></svg>