<svg xmlns="http://www.w3.org/2000/svg" viewBox="0 0 45 45" enable-background="new 0 0 45 45"><defs><clipPath id="a"><path d="M0 36h36V0H0v36z"/></clipPath></defs><g><g><g clip-path="url(#a)" transform="matrix(1.25 0 0 -1.25 0 45)"><g><path fill="#f4900c" d="M36 33c-1-1.3-3.03-3.8-4.4-5.67-3.8-5.23-7.15-6.45-10.32-7.63-3.17-1.18-10.4-1.03-13.88-.86-3.47.18-5.73.58-6.42-.4-2.1-3.06-.6-6.5 2.43-6.96 2.4-.37 9.55.32 12.9.62 3.36.3 7.03 1.3 8.3 1.78 1.25.48 2.27.88 2.6 1.64.3.77 1.86 2.82 3.77 5.92C32.05 23.2 35 26.44 36 28v5z"/></g><g><path fill="#292f33" d="M7 11.4c3 .12 7.05.5 9.3.7 2.3.2 4.7.73 6.43 1.2l-.43 6.78c-.34-.13-.68-.26-1.02-.38-3.17-1.18-10.4-1.03-13.88-.86-.14 0-.4.02-.4.03V11.4z"/></g><g><path fill="#231f20" d="M17 8V4c0-1.1 3.13-2 7-2s7 .9 7 2v4H17z"/></g><g><path fill="#58595b" d="M31 8c0-1.1-3.14-2-7-2-3.87 0-7 .9-7 2s3.13 2 7 2c3.86 0 7-.9 7-2"/></g></g></g></g></svg>