<svg xmlns="http://www.w3.org/2000/svg" viewBox="0 0 45 45" enable-background="new 0 0 45 45"><defs><clipPath id="a"><path d="M0 36h36V0H0v36z"/></clipPath><clipPath id="b"><path d="M4 36s-4 0-4-4V4c0-4 4-4 4-4h28c4 0 4 4 4 4v28s0 4-4 4H4z"/></clipPath><clipPath id="c"><path d="M0 36h36V0H0v36z"/></clipPath></defs><g><g><g clip-path="url(#a)" transform="matrix(1.25 0 0 -1.25 0 45)"><g><path fill="#88c9f9" d="M36 4s0-4-4-4H4S0 0 0 4v28c0 4 4 4 4 4h28c4 0 4-4 4-4V4z"/></g></g></g><g><g clip-path="url(#b)" transform="matrix(1.25 0 0 -1.25 0 45)"><g><path fill="#66757f" d="M9 11c7 5 6 14 11 16 2.08.83 10 .75 17-.25C45.4 25.55 36 7 36 7V-4H0S7.37 9.84 9 11"/></g><g><path fill="#292f33" d="M18 13c2.62 2.62 3.2 9.2 6 12 1 1 2.5.5 3 1 1 1 1 2 2 3 1.58 1.58 6 2 7 2 2 0 0-35 0-35H0S-6.45.4 0 2c4 1 12.48 5.48 18 11"/></g><g><path fill="#5c913b" d="M0 13h36V-2H-1l1 15z"/></g></g></g><g><g clip-path="url(#c)" transform="matrix(1.25 0 0 -1.25 0 45)"><g><path fill="#55acee" d="M28 13c0-1-10-1-10-3s4-2 4-3S8.08 4 8 0h17c0 2 5 3 5 6s-7 3-7 4 7 2 7 3h-2z"/></g><g><path fill="#269" d="M28 13v5c0 7 2 8 2 8h1s-1-1-1-7v-6h-2z"/></g><g><path fill="#662113" d="M11.53 7.5c0-1.1-.9-1.5-2-1.5s-2 .4-2 1.5l.5 4.5c0 1.1.4.98 1.5.98s1.5.1 1.5-1l.5-4.48z"/></g><g><path fill="#3e721d" d="M16.22 10.34c-3.47 2.98-4.88 7.24-6.7 7.24-1.8 0-3.2-4.26-6.67-7.24C1.4 9.1 2.08 8.37 4.08 8.5c1.8.14 3.46.55 5.45.55 2 0 3.67-.4 5.46-.54 2-.13 2.68.6 1.22 1.84"/></g><g><path fill="#3e721d" d="M15.1 11.52c-2.68 2.45-4.18 5.95-5.57 5.95-1.38 0-2.9-3.5-5.55-5.95-2.13-1.94 2.78-2.38 5.55 0 2.78-2.38 7.68-1.94 5.56 0"/></g><g><path fill="#3e721d" d="M15.1 13.5c-2.68 2.3-4.18 5.56-5.57 5.56-1.38 0-2.9-3.27-5.55-5.56-2.13-1.8 2.78-2.22 5.55 0 2.78-2.22 7.68-1.8 5.56 0"/></g><g><path fill="#3e721d" d="M13.88 15.13c-2.1 1.78-3.26 4.34-4.35 4.34-1.08 0-2.25-2.56-4.33-4.34-1.66-1.42 2.17-1.74 4.33 0 2.17-1.74 6-1.42 4.35 0"/></g><g><path fill="#3e721d" d="M13.88 16.6c-2.1 1.8-3.26 4.35-4.35 4.35-1.08 0-2.25-2.55-4.33-4.34-1.66-1.4 2.17-1.72 4.33 0 2.17-1.72 6-1.4 4.35 0"/></g><g><path fill="#3e721d" d="M13.04 17.93c-1.68 1.44-2.63 3.5-3.5 3.5-.88 0-1.83-2.06-3.5-3.5-1.34-1.14 1.74-1.4 3.5 0 1.75-1.4 4.83-1.14 3.5 0"/></g><g><path fill="#3e721d" d="M13.04 19.05c-1.68 1.44-2.63 3.5-3.5 3.5-.88 0-1.83-2.06-3.5-3.5-1.34-1.14 1.74-1.4 3.5 0 1.75-1.4 4.83-1.14 3.5 0"/></g><g><path fill="#3e721d" d="M12.2 20.7c-1.28 1.1-2 2.66-2.67 2.66-.66 0-1.38-1.57-2.66-2.66-1.02-.88 1.33-1.07 2.66 0 1.34-1.07 3.7-.88 2.67 0"/></g><g><path fill="#3e721d" d="M12.2 21.3c-1.28 1.1-2 2.66-2.67 2.66-.66 0-1.38-1.57-2.66-2.67-1.02-.88 1.33-1.07 2.66 0 1.34-1.07 3.7-.88 2.67 0"/></g><g><path fill="#f5f8fa" d="M11.3 32.32c-.26 0-.53-.04-.77-.12-.3.85-1.1 1.45-2.04 1.45-1.03 0-1.87-.7-2.1-1.63-.26.18-.57.3-.9.3-.83 0-1.5-.67-1.5-1.5 0-.2.04-.4.1-.56-.13.04-.28.07-.44.07-.92 0-1.66-.75-1.66-1.67 0-.92.74-1.66 1.66-1.66h7.65c1.48 0 2.67 1.2 2.67 2.66 0 1.47-1.2 2.66-2.66 2.66"/></g></g></g></g></svg>