<svg xmlns="http://www.w3.org/2000/svg" viewBox="0 0 45 45" enable-background="new 0 0 45 45"><defs><clipPath id="a"><path d="M0 36h36V0H0v36z"/></clipPath></defs><g><g><g clip-path="url(#a)" transform="matrix(1.25 0 0 -1.25 0 45)"><g><path fill="#dd2e44" d="M23.1 30.03c-5.48 5.5-14.72 6.5-19.8 1.4-5.07-5.06-4.07-14.3 1.42-19.8 3.56-3.54 7.8-4.3 11.7-3.04v-.03s.05.02.12.05c.27.1.53.18.8.3.7.23 1.72.55 2.93.8 1.85.37 3.54-1.6 4.96-3.03 1.4-1.42 4.24-5.66 4.95-6.37.7-.7 1.4 0 2.12.7l.7.7.7.72c.72.7 1.43 1.42.72 2.12-.7.7-4.95 3.54-6.36 4.95-1.42 1.42-3.4 3.1-3.02 4.96.2.96.44 1.8.65 2.48 1.96 4.22 1.52 8.95-2.6 13.07"/></g><g><path fill="#d99e82" d="M15.56 8.34c.3.07.58.15.87.25l-.02-.03s.07.02.14.05c.27.1.53.18.8.3.7.23 1.72.55 2.93.8 1.85.37 3.54-1.6 4.96-3.03 1.4-1.42 4.24-5.66 4.95-6.37.7-.7 1.4 0 2.12.7l.7.7.7.72c.72.7 1.43 1.42.72 2.12-.7.7-4.95 3.54-6.36 4.95-1.42 1.42-3.4 3.1-3.02 4.96.2.96.44 1.8.65 2.48.35.76.62 1.54.8 2.33L15.57 8.33z"/></g><g><path fill="#ffcc4d" d="M33.7 2.45l-1.4-1.4-12.02 12 1.4 1.42L33.72 2.45z"/></g><g><path fill="#ccd6dd" d="M35 29.5c0-1.93-1.57-3.5-3.5-3.5S28 27.57 28 29.5s1.57 3.5 3.5 3.5 3.5-1.57 3.5-3.5"/></g></g></g></g></svg>