<?xml version="1.0" encoding="UTF-8" standalone="no"?><svg xmlns:dc="http://purl.org/dc/elements/1.1/" xmlns:cc="http://creativecommons.org/ns#" xmlns:rdf="http://www.w3.org/1999/02/22-rdf-syntax-ns#" xmlns:svg="http://www.w3.org/2000/svg" xmlns="http://www.w3.org/2000/svg" viewBox="0 0 45 45" style="enable-background:new 0 0 45 45;" xml:space="preserve" version="1.1" id="svg2"><metadata id="metadata8"><rdf:RDF><cc:Work rdf:about=""><dc:format>image/svg+xml</dc:format><dc:type rdf:resource="http://purl.org/dc/dcmitype/StillImage"/></cc:Work></rdf:RDF></metadata><defs id="defs6"><clipPath id="clipPath16" clipPathUnits="userSpaceOnUse"><path id="path18" d="M 0,36 36,36 36,0 0,0 0,36 Z"/></clipPath></defs><g transform="matrix(1.25,0,0,-1.25,0,45)" id="g10"><g id="g12"><g clip-path="url(#clipPath16)" id="g14"><g transform="translate(35.8574,18.624)" id="g20"><path id="path22" style="fill:#ccd6dc;fill-opacity:1;fill-rule:nonzero;stroke:none" d="m 0,0 -35.778,0.323 0,-11.821 c 0.01,-1.084 1.008,-2.119 2.52,-3.027 l 2.396,-1.133 c 0.732,-0.279 1.531,-0.534 2.393,-0.766 l 3.584,-0.763 c 0.791,-0.126 1.615,-0.232 2.46,-0.32 l 9.328,-0.088 c 0.868,0.074 1.714,0.167 2.524,0.285 l 3.57,0.707 c 0.857,0.219 1.652,0.463 2.378,0.731 l 2.374,1.098 c 1.507,0.893 2.262,1.923 2.251,3.013 L 0,0 Z"/></g><g transform="translate(22.8848,5.1514)" id="g24"><path id="path26" style="fill:#66757f;fill-opacity:1;fill-rule:nonzero;stroke:none" d="m 0,0 c -0.043,4.36 -2.19,5.47 -4.825,5.493 -2.633,0.025 -4.759,-1.047 -4.716,-5.407 0.016,-1.606 0.047,-2.959 0.089,-4.12 1.505,-0.156 3.079,-0.254 4.713,-0.269 1.599,-0.014 3.141,0.054 4.615,0.181 C -0.027,-3.12 0.018,-1.782 0,0"/></g><g transform="translate(10.917,7.1104)" id="g28"><path id="path30" style="fill:#66757f;fill-opacity:1;fill-rule:nonzero;stroke:none" d="m 0,0 c 0,-0.037 0.001,-0.073 0.001,-0.107 0.001,-0.11 0.002,-0.241 0.004,-0.365 0.001,-0.126 0.002,-0.211 0.002,-0.27 0,-0.027 0.001,-0.048 0.001,-0.065 0,-0.051 0,-0.044 0,0 0,0.015 -0.001,0.039 -0.001,0.065 -0.001,0.069 -0.001,0.165 -0.002,0.27 C 0.004,-0.375 0.002,-0.25 0.001,-0.107 0.001,-0.067 0,-0.032 0,0 c 0,0.042 0,0.075 -0.001,0.122 -0.021,2.18 -3.61,3.303 -3.589,1.121 0,0 0,-0.014 10e-4,-0.037 l 0.002,-0.204 c 0,-0.049 0.001,-0.102 0.001,-0.157 l 0.005,-0.471 c 0,-0.028 0,-0.051 0,-0.067 l 0.052,-5.217 c 1.106,-0.298 2.302,-0.556 3.585,-0.763 L 0,0.08 C 0,0.06 0,0.032 0,0"/></g><g transform="translate(28.7949,8.1025)" id="g32"><path id="path34" style="fill:#66757f;fill-opacity:1;fill-rule:nonzero;stroke:none" d="m 0,0 c 0.002,-0.211 0.004,-0.377 0.005,-0.507 l 0,-0.026 c 0.002,-0.126 0.002,-0.211 0.003,-0.271 10e-4,-0.118 10e-4,-0.15 0,0 -0.001,0.07 -0.002,0.165 -0.003,0.271 l 0,0.026 C 0.003,-0.31 0.001,-0.099 0,0 0,0.021 0,0.036 -0.001,0.058 -0.022,2.237 -3.59,1.181 -3.567,-1 l 0,-0.035 0.056,-5.753 c 1.28,0.186 2.47,0.427 3.571,0.707 L 0,0.019 0,0 Z"/></g><g transform="translate(4.9312,9.4658)" id="g36"><path id="path38" style="fill:#66757f;fill-opacity:1;fill-rule:nonzero;stroke:none" d="m 0,0 c -0.022,2.18 -2.417,3.292 -2.396,1.112 0,0 0,-0.016 0,-0.041 l 0.064,-6.438 C -1.656,-5.774 -0.85,-6.153 0.064,-6.5 L 0.012,-1.18 C 0.014,-1.388 0.017,-1.762 0,0"/></g><g transform="translate(31.168,9.2295)" id="g40"><path id="path42" style="fill:#66757f;fill-opacity:1;fill-rule:nonzero;stroke:none" d="m 0,0 c 0.02,-1.895 0.014,-1.32 0.012,-1.137 l 0,0.047 0,-0.047 0.052,-5.341 c 0.908,0.334 1.706,0.702 2.374,1.098 L 2.374,1.068 C 2.354,3.249 -0.021,2.18 0,0"/></g><g transform="translate(2.9722,30.7754)" id="g44"><path id="path46" style="fill:#66757f;fill-opacity:1;fill-rule:nonzero;stroke:none" d="m 0,0 c -0.276,0 -0.5,-0.224 -0.5,-0.5 l 0,-12.37 c 0,-0.276 0.224,-0.5 0.5,-0.5 0.276,0 0.5,0.224 0.5,0.5 l 0,12.37 C 0.5,-0.224 0.276,0 0,0"/></g><g transform="translate(3.207,30.0645)" id="g48"><path id="path50" style="fill:#dd2f45;fill-opacity:1;fill-rule:nonzero;stroke:none" d="M 0,0 C 1.478,-0.269 3.682,-1.102 4.247,-1.425 4.811,-1.747 4.461,-1.909 3.924,-2.15 3.387,-2.393 0.483,-3.171 0.054,-3.252 -0.377,-3.333 0,0 0,0"/></g><g transform="translate(11.9687,33.0244)" id="g52"><path id="path54" style="fill:#66757f;fill-opacity:1;fill-rule:nonzero;stroke:none" d="m 0,0 c -0.276,0 -0.5,-0.224 -0.5,-0.5 l 0,-12.37 c 0,-0.276 0.224,-0.5 0.5,-0.5 0.276,0 0.5,0.224 0.5,0.5 l 0,12.37 C 0.5,-0.224 0.276,0 0,0"/></g><g transform="translate(12.2031,32.3135)" id="g56"><path id="path58" style="fill:#226798;fill-opacity:1;fill-rule:nonzero;stroke:none" d="M 0,0 C 1.478,-0.269 3.682,-1.102 4.247,-1.425 4.811,-1.747 4.462,-1.909 3.924,-2.15 3.387,-2.393 0.483,-3.171 0.054,-3.252 -0.377,-3.333 0,0 0,0"/></g><g transform="translate(21.3389,33.0244)" id="g60"><path id="path62" style="fill:#66757f;fill-opacity:1;fill-rule:nonzero;stroke:none" d="m 0,0 c -0.276,0 -0.5,-0.224 -0.5,-0.5 l 0,-12.37 c 0,-0.276 0.224,-0.5 0.5,-0.5 0.276,0 0.5,0.224 0.5,0.5 l 0,12.37 C 0.5,-0.224 0.276,0 0,0"/></g><g transform="translate(21.5742,32.3135)" id="g64"><path id="path66" style="fill:#dd2f45;fill-opacity:1;fill-rule:nonzero;stroke:none" d="M 0,0 C 1.479,-0.269 3.681,-1.102 4.245,-1.425 4.81,-1.747 4.461,-1.909 3.924,-2.15 3.387,-2.393 0.483,-3.171 0.053,-3.252 -0.378,-3.333 0,0 0,0"/></g><g transform="translate(30.335,30.7754)" id="g68"><path id="path70" style="fill:#66757f;fill-opacity:1;fill-rule:nonzero;stroke:none" d="m 0,0 c -0.276,0 -0.5,-0.224 -0.5,-0.5 l 0,-12.37 c 0,-0.276 0.224,-0.5 0.5,-0.5 0.276,0 0.5,0.224 0.5,0.5 l 0,12.37 C 0.5,-0.224 0.276,0 0,0"/></g><g transform="translate(30.5703,30.0645)" id="g72"><path id="path74" style="fill:#226798;fill-opacity:1;fill-rule:nonzero;stroke:none" d="M 0,0 C 1.479,-0.269 3.681,-1.102 4.246,-1.425 4.81,-1.747 4.461,-1.909 3.924,-2.15 3.387,-2.393 0.483,-3.171 0.053,-3.252 -0.378,-3.333 0,0 0,0"/></g><g transform="translate(35.8574,18.5566)" id="g76"><path id="path78" style="fill:#e9eff3;fill-opacity:1;fill-rule:nonzero;stroke:none" d="m 0,0 c 0.033,-3.313 -7.949,-5.925 -17.829,-5.835 -9.88,0.089 -17.916,2.847 -17.949,6.157 -0.033,3.312 7.951,5.924 17.83,5.835 C -8.068,6.067 -0.032,3.311 0,0"/></g><g transform="translate(33.2568,17.7905)" id="g80"><path id="path82" style="fill:#7450a0;fill-opacity:1;fill-rule:nonzero;stroke:none" d="m 0,0 c 0.029,-2.995 -6.788,-5.361 -15.227,-5.286 -8.44,0.078 -15.304,2.568 -15.334,5.562 -0.029,2.995 6.788,5.36 15.228,5.284 C -6.896,5.484 -0.029,2.995 0,0"/></g><g transform="translate(26.7666,16.6221)" id="g84"><path id="path86" style="fill:#e9eff3;fill-opacity:1;fill-rule:nonzero;stroke:none" d="m 0,0 5.829,3.939 -1.8,1.106 c 0,0 -3.63,-3.395 -4.821,-4.547 -0.877,0.455 -2.073,0.836 -3.486,1.104 l 2.439,5.302 -2.463,0.294 -1.094,-5.419 c -1.058,0.145 -2.202,0.233 -3.401,0.244 -0.928,0.008 -1.823,-0.031 -2.67,-0.106 l -1.183,5.357 -2.457,-0.251 2.491,-5.234 C -14.256,1.562 -15.653,1.184 -16.652,0.703 -17.923,1.93 -21.5,5.276 -21.5,5.276 l -1.778,-1.074 5.814,-3.98 c -0.54,-0.397 -0.847,-0.84 -0.843,-1.311 0.018,-1.765 4.304,-3.237 9.573,-3.285 5.269,-0.047 9.527,1.347 9.509,3.113 C 0.771,-0.815 0.494,-0.39 0,0"/></g><g transform="translate(26.4268,15.1387)" id="g88"><path id="path90" style="fill:#5c903f;fill-opacity:1;fill-rule:nonzero;stroke:none" d="m 0,0 c 0.013,-1.321 -3.731,-2.357 -8.363,-2.315 -4.631,0.042 -8.395,1.145 -8.408,2.466 -0.013,1.32 3.73,2.356 8.361,2.314 C -3.779,2.424 -0.014,1.319 0,0"/></g></g></g></g></svg>
