<?xml version="1.0" encoding="UTF-8" standalone="no"?><svg xmlns:dc="http://purl.org/dc/elements/1.1/" xmlns:cc="http://creativecommons.org/ns#" xmlns:rdf="http://www.w3.org/1999/02/22-rdf-syntax-ns#" xmlns:svg="http://www.w3.org/2000/svg" xmlns="http://www.w3.org/2000/svg" viewBox="0 0 45 45" style="enable-background:new 0 0 45 45;" xml:space="preserve" version="1.1" id="svg2"><metadata id="metadata8"><rdf:RDF><cc:Work rdf:about=""><dc:format>image/svg+xml</dc:format><dc:type rdf:resource="http://purl.org/dc/dcmitype/StillImage"/></cc:Work></rdf:RDF></metadata><defs id="defs6"><clipPath id="clipPath16" clipPathUnits="userSpaceOnUse"><path id="path18" d="M 0,36 36,36 36,0 0,0 0,36 Z"/></clipPath></defs><g transform="matrix(1.25,0,0,-1.25,0,45)" id="g10"><g id="g12"><g clip-path="url(#clipPath16)" id="g14"><g transform="translate(19.083,0.5)" id="g20"><path id="path22" style="fill:#292f33;fill-opacity:1;fill-rule:nonzero;stroke:none" d="m 0,0 -6.833,23.208 c 0,0 -1.42,-0.761 -2.604,-1.637 -0.313,-0.231 -1.977,-2.79 -2.313,-3.04 -1.762,-1.315 -3.552,-2.841 -3.792,-3.167 C -16,14.74 -19.083,-0.5 -19.083,-0.5 L 0,0 Z"/></g><g transform="translate(32,1)" id="g24"><path id="path26" style="fill:#4b545d;fill-opacity:1;fill-rule:nonzero;stroke:none" d="m 0,0 -5.5,19.75 -8.5,10.708 -5.373,-4.192 -0.971,-1.172 C -20.75,24.312 -22,19.75 -22,19.75 L -23.25,15 -28.749,4.945 -31.083,0.208 0,0 Z"/></g><g transform="translate(3.2515,5.9453)" id="g28"><path id="path30" style="fill:#ffffff;fill-opacity:1;fill-rule:nonzero;stroke:none" d="m 0,0 c 0,0 7.874,10.784 7.895,11.388 0.02,0.604 -1.146,3.417 -1.146,3.417 L 5.499,10.055 0,0 Z"/></g><g transform="translate(12,2)" id="g32"><path id="path34" style="fill:#292f33;fill-opacity:1;fill-rule:nonzero;stroke:none" d="M 0,0 2,0 4,15.75 5.234,17.547 8.813,22.781 8.906,24.25 5.619,19.796 3,16.248 0.612,8.886 0,7 -1.791,3.866 -4,0 0,0 Z"/></g><g transform="translate(24.0586,19.6162)" id="g36"><path id="path38" style="fill:#292f33;fill-opacity:1;fill-rule:nonzero;stroke:none" d="m 0,0 -1.965,-5.897 -1.094,-3.719 2.792,-7.625 3.552,0.062 c 0,0 -4.344,6.938 -4.344,7.563 0,0.12 0.625,2.687 0.625,2.687 L 0.66,-2.397 0.941,-0.866 0,0 Z"/></g><g transform="translate(24.0586,19.6162)" id="g40"><path id="path42" style="fill:#f1f1f1;fill-opacity:1;fill-rule:nonzero;stroke:none" d="M 0,0 -1.777,0.665 -3.309,-0.21 -4.637,0.853 -6.824,-0.069 -3.246,5.165 0,0 Z"/></g><g transform="translate(26.9297,12.2363)" id="g44"><path id="path46" style="fill:#f1f1f1;fill-opacity:1;fill-rule:nonzero;stroke:none" d="M 0,0 -1.711,1.389 -3.305,0.451 -2.211,4.982 -0.773,2.701 0,0 Z"/></g><g transform="translate(22.0938,13.7187)" id="g48"><path id="path50" style="fill:#ffffff;fill-opacity:1;fill-rule:nonzero;stroke:none" d="M 0,0 -1.094,-3.719 -1.344,-1.302 0,0 Z"/></g><g transform="translate(12,9)" id="g52"><path id="path54" style="fill:#ffffff;fill-opacity:1;fill-rule:nonzero;stroke:none" d="m 0,0 -1.791,-3.134 0.354,2.431 c 0,0 0.682,0.578 0.937,0.911 0.255,0.334 1.112,1.678 1.112,1.678 L 0,0 Z"/></g><g transform="translate(15.2085,20)" id="g56"><path id="path58" style="fill:#ffffff;fill-opacity:1;fill-rule:nonzero;stroke:none" d="M 0,0 2.411,1.796 -0.208,-1.752 0,0 Z"/></g><g transform="translate(36,0)" id="g60"><path id="path62" style="fill:#292f33;fill-opacity:1;fill-rule:nonzero;stroke:none" d="m 0,0 c 0,0 -0.385,3.845 -0.854,7.083 -0.369,2.543 -2.757,6.304 -4.1,7.115 l -1.233,3.536 -2.024,5.102 -2.258,2.289 -1.844,1.625 -0.504,0.622 -5.183,4.086 2.289,-5.007 0.523,-1.67 3.247,-5.165 0.66,-2.397 1.437,-2.281 L -9.07,12.236 -8,8.5 -10,2 0,0 Z"/></g><g transform="translate(33.708,3.5625)" id="g64"><path id="path66" style="fill:#5c903f;fill-opacity:1;fill-rule:nonzero;stroke:none" d="m 0,0 c -1.346,0 -4.958,-0.562 -5.458,-0.562 -2,0 -4.25,1.749 -5.25,1.749 -1,0 -3.594,-1.749 -5.594,-1.749 -1.687,0 -2.406,0.812 -4.719,0.812 -0.748,0 -4.095,-0.871 -4.812,-0.781 -1.823,0.227 -2.761,0.968 -3.219,0.968 -2.656,0 -4.656,-4 -4.656,-4 l 36,0 C 2.292,-3.563 1.417,0 0,0"/></g><g transform="translate(12.627,27.2656)" id="g68"><path id="path70" style="fill:#f1f1f1;fill-opacity:1;fill-rule:nonzero;stroke:none" d="M 0,0 2.123,0.484 2.779,-1.359 4.904,-0.484 7.662,-0.814 5.373,6.484 0,0 Z"/></g><g transform="translate(23.1826,27.3716)" id="g72"><path id="path74" style="fill:#a8b6c0;fill-opacity:1;fill-rule:nonzero;stroke:none" d="M 0,0 -1.443,0.243 -2.894,-0.92 -5.183,6.378 0,0 Z"/></g><g transform="translate(27.9531,23)" id="g76"><path id="path78" style="fill:#a8b6c0;fill-opacity:1;fill-rule:nonzero;stroke:none" d="M 0,0 1.859,-5.266 0.13,-2.438 -1.484,-0.812 -2.422,2.125 0,0 Z"/></g><g transform="translate(35.1455,7.083)" id="g80"><path id="path82" style="fill:#a8b6c0;fill-opacity:1;fill-rule:nonzero;stroke:none" d="M 0,0 C 0,0 -0.146,3.886 -1.271,5.167 -2.396,6.448 -4.146,7.146 -4.146,7.146 L -2.708,3.875 -1.25,2.459 0,0 Z"/></g></g></g></g></svg>
