<svg xmlns="http://www.w3.org/2000/svg" viewBox="0 0 45 45" enable-background="new 0 0 45 45"><defs><clipPath id="a"><path d="M4 36c-2.2 0-4-1.8-4-4V4c0-2.2 1.8-4 4-4h28c2.2 0 4 1.8 4 4v28c0 2.2-1.8 4-4 4H4z"/></clipPath><clipPath id="b"><path d="M0 36h36V0H0v36z"/></clipPath></defs><g><g><g clip-path="url(#a)" transform="matrix(1.25 0 0 -1.25 0 45)"><path fill="#78b159" d="M38 10H-1V-3h39v13z"/><path fill="#88c9f9" d="M39 8H-2v30h41V8z"/></g></g><g><g clip-path="url(#b)" transform="matrix(1.25 0 0 -1.25 0 45)"><g><path fill="#662113" d="M29.1 8.44c0-1.9-.97-2.6-2.16-2.6-1.2 0-2.16.7-2.16 2.6l.54 7.82c0 1.92.42 1.74 1.62 1.74 1.2 0 1.62.18 1.62-1.74l.54-7.82z"/></g><g><path fill="#5c913b" d="M35.6 22.68c0-6.4-3.88-8.7-8.66-8.7s-8.65 2.3-8.65 8.7c0 6.4 4.85 12.32 8.64 12.32 3.78 0 8.65-5.92 8.65-12.32"/></g><g><path fill="#3e721d" d="M21.53 19.78c0 .4-.48.72-1.08.72-.6 0-1.08-.32-1.08-.72 0-.4.48-.73 1.08-.73.6 0 1.08.33 1.08.73"/></g><g><path fill="#3e721d" d="M34.5 19.78c0 .4-.48.72-1.07.72-.6 0-1.1-.32-1.1-.72 0-.4.5-.73 1.1-.73.6 0 1.08.33 1.08.73"/></g><g><path fill="#3e721d" d="M23.7 16.88c0 .4-.5.72-1.1.72-.6 0-1.07-.32-1.07-.72 0-.4.48-.72 1.08-.72.6 0 1.1.32 1.1.72"/></g><g><path fill="#3e721d" d="M25.86 19.05c0 .4-.5.73-1.08.73-.6 0-1.1-.33-1.1-.73 0-.4.5-.72 1.1-.72.6 0 1.08.32 1.08.72"/></g><g><path fill="#3e721d" d="M23.7 23.4c0 .4-.5.73-1.1.73-.6 0-1.07-.33-1.07-.73 0-.4.48-.72 1.08-.72.6 0 1.1.32 1.1.72"/></g><g><path fill="#3e721d" d="M22.07 26.3c0 .4-.48.73-1.08.73-.6 0-1.1-.33-1.1-.73 0-.4.5-.72 1.1-.72.6 0 1.07.32 1.07.72"/></g><g><path fill="#3e721d" d="M33.97 26.3c0 .4-.5.73-1.1.73-.58 0-1.07-.33-1.07-.73 0-.4.5-.72 1.08-.72.6 0 1.1.32 1.1.72"/></g><g><path fill="#3e721d" d="M25.86 27.75c0 .4-.5.73-1.08.73-.6 0-1.1-.33-1.1-.73 0-.4.5-.72 1.1-.72.6 0 1.08.32 1.08.72"/></g><g><path fill="#3e721d" d="M30.18 27.75c0 .4-.48.73-1.08.73-.6 0-1.08-.33-1.08-.73 0-.4.48-.72 1.08-.72.6 0 1.08.32 1.08.72"/></g><g><path fill="#3e721d" d="M32.34 23.4c0 .4-.48.73-1.08.73-.6 0-1.08-.33-1.08-.73 0-.4.5-.72 1.08-.72.6 0 1.08.32 1.08.72"/></g><g><path fill="#3e721d" d="M28.02 22.68c0 .4-.48.72-1.08.72-.6 0-1.08-.32-1.08-.72 0-.4.48-.73 1.08-.73.6 0 1.08.33 1.08.73"/></g><g><path fill="#3e721d" d="M30.18 19.05c0 .4-.48.73-1.08.73-.6 0-1.08-.33-1.08-.73 0-.4.48-.72 1.08-.72.6 0 1.08.32 1.08.72"/></g><g><path fill="#3e721d" d="M28.02 16.16c0 .4-.48.72-1.08.72-.6 0-1.08-.32-1.08-.72 0-.4.48-.73 1.08-.73.6 0 1.08.32 1.08.73"/></g><g><path fill="#3e721d" d="M32.34 16.88c0 .4-.48.72-1.08.72-.6 0-1.08-.32-1.08-.72 0-.4.5-.72 1.08-.72.6 0 1.08.32 1.08.72"/></g><g><path fill="#f4900c" d="M14.03 3c-.43 0-.8.27-.95.67l-5 14.03c-.12.3-.07.63.12.9.18.26.5.4.82.4h12.03c.4 0 .76-.22.92-.6l6-14c.14-.32.1-.67-.07-.96-.2-.28-.5-.44-.84-.44H14.03z"/></g><g><path fill="#ffcc4d" d="M3 3c-.33 0-.65.17-.83.45-.2.28-.22.64-.1.95L8.1 18.44c.16.37.52.6.92.6s.77-.23.92-.6L15.96 4.4c.13-.3.1-.67-.08-.95-.2-.28-.5-.45-.84-.45H3z"/></g><g><path fill="#292f33" d="M9.02 18.04L7.02 3h4l-2 15.04z"/></g><g><path fill="#fff" d="M13 30c-.02 0-.03 0-.05 0 .03.16.05.33.05.5 0 1.38-1.12 2.5-2.5 2.5-.9 0-1.67-.47-2.1-1.17-.3.1-.58.17-.9.17-1.27 0-2.3-.96-2.47-2.2-.28.12-.58.2-.9.2-1.4 0-2.5-1.12-2.5-2.5s1.1-2.5 2.5-2.5H13c1.38 0 2.5 1.12 2.5 2.5S14.38 30 13 30"/></g></g></g></g></svg>