<svg xmlns="http://www.w3.org/2000/svg" viewBox="0 0 36 36"><path fill="#88C9F9" d="M36 32s0 4-4 4H4s-4 0-4-4V4c0-4 4-4 4-4h28c4 0 4 4 4 4v28z"/><path fill="#77B255" d="M0 32c0 4 4 4 4 4h28c4 0 4-4 4-4V15H0v17z"/><path fill="#FFCC4D" d="M21 10l7-7 7 7v9H21z"/><path fill="#FFAC33" d="M21 10h1v9h-1zm13 0h1v9h-1z"/><path fill="#292F33" d="M35 11c-.256 0-.512-.098-.707-.293L28 4.414l-6.293 6.293c-.391.391-1.023.391-1.414 0s-.391-1.023 0-1.414l7-7c.391-.391 1.023-.391 1.414 0l7 7c.391.391.391 1.023 0 1.414-.195.195-.451.293-.707.293z"/><path fill="#662113" d="M26 12h4v7h-4z"/><path fill="#3B88C3" d="M23 12h2v2h-2zm8 0h2v2h-2zm-8 3h2v2h-2zm8 0h2v2h-2z"/><path fill="#FFCC4D" d="M2 15l8-8 8 8v11H2z"/><path fill="#FFAC33" d="M2 15h1v11H2zm15 0h1v11h-1z"/><path fill="#292F33" d="M19 17c-.256 0-.512-.098-.707-.293L10 8.414l-8.293 8.293c-.391.391-1.023.391-1.414 0s-.391-1.023 0-1.414l9-9c.391-.391 1.023-.391 1.414 0l9 9c.391.391.391 1.023 0 1.414-.195.195-.451.293-.707.293z"/><path fill="#662113" d="M8 17h4v9H8z"/><path fill="#3B88C3" d="M4 17h3v3H4zm9 0h3v3h-3zm-9 4h3v3H4zm9 0h3v3h-3z"/><path fill="#FFE8B6" d="M10 19L20 9l10 10v14H10z"/><path fill="#FFCC4D" d="M10 19h1v14h-1zm19 0h1v14h-1z"/><path fill="#66757F" d="M31 21c-.256 0-.512-.098-.707-.293L20 10.414 9.707 20.707c-.391.391-1.023.391-1.414 0s-.391-1.023 0-1.414l11-11c.391-.391 1.023-.391 1.414 0l11 11c.391.391.391 1.023 0 1.414-.195.195-.451.293-.707.293z"/><path fill="#C1694F" d="M18 27h4v6h-4z"/><path fill="#55ACEE" d="M12 21h4v4h-4zm12 0h4v4h-4zm-6 0h4v4h-4zm-6 6h4v4h-4zm12 0h4v4h-4z"/></svg>