<svg xmlns="http://www.w3.org/2000/svg" viewBox="0 0 45 45" enable-background="new 0 0 45 45"><defs><clipPath id="a"><path d="M0 36h36V0H0v36z"/></clipPath></defs><g><g><g clip-path="url(#a)" transform="matrix(1.25 0 0 -1.25 0 45)"><g><path fill="#88c9f9" d="M36 4s0-4-4-4H4S0 0 0 4v28c0 4 4 4 4 4h28c4 0 4-4 4-4V4z"/></g><g><path fill="#77b255" d="M0 4c0-4 4-4 4-4h28c4 0 4 4 4 4v17H0V4z"/></g><g><path fill="#ffcc4d" d="M21 26l7 7 7-7v-9H21v9z"/></g><path fill="#ffac33" d="M22 17h-1v9h1v-9z"/><path fill="#ffac33" d="M34 17h1v9h-1v-9z"/><g><path fill="#292f33" d="M35 25c-.26 0-.5.1-.7.3L28 31.6l-6.3-6.3c-.38-.4-1.02-.4-1.4 0-.4.38-.4 1.02 0 1.4l7 7c.38.4 1.02.4 1.4 0l7-7c.4-.38.4-1.02 0-1.4-.2-.2-.44-.3-.7-.3"/></g><path fill="#662113" d="M30 17h-4v7h4v-7z"/><path fill="#3b88c3" d="M25 22h-2v2h2v-2z"/><path fill="#3b88c3" d="M33 22h-2v2h2v-2z"/><path fill="#3b88c3" d="M25 19h-2v2h2v-2z"/><path fill="#3b88c3" d="M33 19h-2v2h2v-2z"/><g><path fill="#ffcc4d" d="M2 21l8 8 8-8V10H2v11z"/></g><path fill="#ffac33" d="M3 10H2v11h1V10z"/><path fill="#ffac33" d="M17 10h1v11h-1V10z"/><g><path fill="#292f33" d="M19 19c-.26 0-.5.1-.7.3L10 27.6l-8.3-8.3c-.38-.4-1.02-.4-1.4 0-.4.38-.4 1.02 0 1.4l9 9c.38.4 1.02.4 1.4 0l9-9c.4-.38.4-1.02 0-1.4-.2-.2-.44-.3-.7-.3"/></g><path fill="#662113" d="M12 10H8v9h4v-9z"/><path fill="#3b88c3" d="M7 16H4v3h3v-3z"/><path fill="#3b88c3" d="M16 16h-3v3h3v-3z"/><path fill="#3b88c3" d="M7 12H4v3h3v-3z"/><path fill="#3b88c3" d="M16 12h-3v3h3v-3z"/><g><path fill="#ffe8b6" d="M10 17l10 10 10-10V3H10v14z"/></g><path fill="#ffcc4d" d="M11 3h-1v14h1V3z"/><path fill="#ffcc4d" d="M29 3h1v14h-1V3z"/><g><path fill="#66757f" d="M31 15c-.26 0-.5.1-.7.3L20 25.6 9.7 15.3c-.38-.4-1.02-.4-1.4 0-.4.38-.4 1.02 0 1.4l11 11c.38.4 1.02.4 1.4 0l11-11c.4-.38.4-1.02 0-1.4-.2-.2-.44-.3-.7-.3"/></g><path fill="#c1694f" d="M22 3h-4v6h4V3z"/><path fill="#55acee" d="M16 11h-4v4h4v-4z"/><path fill="#55acee" d="M28 11h-4v4h4v-4z"/><path fill="#55acee" d="M22 11h-4v4h4v-4z"/><path fill="#55acee" d="M16 5h-4v4h4V5z"/><path fill="#55acee" d="M28 5h-4v4h4V5z"/></g></g></g></svg>