<svg xmlns="http://www.w3.org/2000/svg" viewBox="0 0 45 45" enable-background="new 0 0 45 45"><defs><clipPath id="a"><path d="M0 36h36V0H0v36z"/></clipPath></defs><g><g><path fill="#d99e82" d="M31.3 15.04l-3.02 1.9.2-4.7-5.98-6L6.25 22.5v20h32.5v-20l-7.46-7.46z"/></g><path fill="#c1694f" d="M6.25 42.5H7.5v-20H6.25v20z"/><path fill="#c1694f" d="M37.5 42.5h1.25v-20H37.5v20z"/><g><g clip-path="url(#a)" transform="matrix(1.25 0 0 -1.25 0 45)"><g><path fill="#292f33" d="M31.7 18.7l-5.8 5.8-1.73-1.08 6.12-6.13c.2-.2.44-.3.7-.3.26 0 .5.1.7.3.4.38.4 1.02 0 1.4"/></g><g><path fill="#292f33" d="M22.85 27.56L18.7 31.7c-.38.4-1.02.4-1.4 0l-13-13c-.4-.38-.4-1.02 0-1.4.38-.4 1.02-.4 1.4 0L18 29.6l4.73-4.75.12 2.7z"/></g><path fill="#c1694f" d="M20 2h-4v8h4V2z"/><path fill="#662113" d="M13 14H9v4h4v-4z"/><path fill="#c1694f" d="M20 14h-4v4h4v-4z"/><path fill="#c1694f" d="M13 6H9v4h4V6z"/><path fill="#662113" d="M27 6h-4v4h4V6z"/><g><path fill="#bcbec0" d="M33 1c0-.55-.45-1-1-1H4c-.55 0-1 .45-1 1s.45 1 1 1h28c.55 0 1-.45 1-1"/></g><g><path fill="#662113" d="M24.42 23.58l-1.8-1.12.13 2.8L21 27l-1-6 3-2-2-9 6 7-1 5-1.58 1.58z"/></g></g></g></g></svg>