<svg xmlns="http://www.w3.org/2000/svg" viewBox="0 0 45 45" enable-background="new 0 0 45 45"><defs><clipPath id="a"><path d="M4 36c-2.2 0-4-1.8-4-4V4c0-2.2 1.8-4 4-4h28c2.2 0 4 1.8 4 4v28c0 2.2-1.8 4-4 4H4z"/></clipPath><clipPath id="b"><path d="M0 36h36V0H0v36z"/></clipPath></defs><g><g><g clip-path="url(#a)" transform="matrix(1.25 0 0 -1.25 0 45)"><path fill="#3b88c3" d="M38 10H-1V-3h39v13z"/><path fill="#88c9f9" d="M39 8H-2v30h41V8z"/></g></g><g><g clip-path="url(#b)" transform="matrix(1.25 0 0 -1.25 0 45)"><g><path fill="#f4900c" d="M7 7c0 1 1 5 11 5 12 0 15-4 15-5s0-2-14-2C7 5 7 6 7 7"/></g><g><path fill="#3e721d" d="M24.62 26.64s-2.45 2.24-5.93 2.86c-3.5.62-5.54-.86-5.54-.86s2.58 4.86 6.93 4.08c5.2-.93 4.52-6.08 4.52-6.08"/></g><g><path fill="#3e721d" d="M23.98 27.5s1.82 2.78 5.04 4.24c3.22 1.46 5.4.46 5.4.46s-3.1 4.2-7.1 2.37c-4.83-2.18-3.34-7.06-3.34-7.06"/></g><g><path fill="#662113" d="M21 11.44c0-.35.25-1 2-1.44 2.74-.68 3 .44 3 .44s1 3 1 9c0 5.42-2.25 9.42-2.25 9.42l-2.58-.33s1.33-2.75 1.4-8.17c.08-4-2.57-8.56-2.57-8.92"/></g><g><path fill="#5c913b" d="M15.72 16.23s-3.1 5.54.4 10c4.07 5.24 9.2 2.9 9.2 2.9s-3.26-2.6-5.72-5.57c-2.8-3.37-3.88-7.33-3.88-7.33"/></g><g><path fill="#5c913b" d="M34.64 21s1.42 6.04-3.6 8.7c-5.04 2.66-8.23-1.33-8.23-1.33s3.32-.1 6.54-1.9C33 24.44 34.64 21 34.64 21"/></g><g><path fill="#ffcc4d" d="M12 29c0-2.76-2.24-5-5-5s-5 2.24-5 5 2.24 5 5 5 5-2.24 5-5"/></g><g><path fill="#ffac33" d="M11 29c0-2.2-1.8-4-4-4s-4 1.8-4 4 1.8 4 4 4 4-1.8 4-4"/></g></g></g></g></svg>