<svg xmlns="http://www.w3.org/2000/svg" viewBox="0 0 45 45" enable-background="new 0 0 45 45"><defs><clipPath id="a"><path d="M0 36h36V0H0v36z"/></clipPath><clipPath id="b"><path d="M18 36C8.06 36 0 27.94 0 18S8.06 0 18 0s18 8.06 18 18-8.06 18-18 18z"/></clipPath></defs><g><g><g clip-path="url(#a)" transform="matrix(1.25 0 0 -1.25 0 45)"><g><path fill="#e1e8ed" d="M36 18c0-9.94-8.06-18-18-18S0 8.06 0 18s8.06 18 18 18 18-8.06 18-18"/></g></g></g><g><g clip-path="url(#b)" transform="matrix(1.25 0 0 -1.25 0 45)"><g><path fill="#99aab5" d="M20 17.13c-7.58 0-13.07 1.7-16.32 5.1C.7 25.33.8 28.7.8 28.86c.04.55.5.97 1.05.95.55 0 .98-.47.96-1.02 0-.12-.04-2.73 2.37-5.2C8 20.65 13.12 19.12 20 19.12c.55 0 1-.45 1-1 0-.56-.45-1-1-1"/></g><g><path fill="#99aab5" d="M19.2 8.96C-.1 8.96-4.2 23.16-4.25 23.3c-.15.53.17 1.08.7 1.23.53.15 1.08-.17 1.23-.7C-2.16 23.25 1.75 10.1 21 11c.55.04 1.02-.4 1.05-.95.02-.56-.4-1.02-.96-1.05-.65-.03-1.28-.04-1.9-.04"/></g><g><path fill="#99aab5" d="M20.06 2h-.02C.48 2-3.36 14.14-3.52 14.64c-.16.53.14 1.06.66 1.22.53.16 1.1-.15 1.25-.67.14-.47 3.66-10.96 21.68-11.32.55 0 1-.4.98-.96 0-.54-.45-.92-1-.92"/></g><g><path fill="#99aab5" d="M20 17.68c-.1 0-.22.02-.33.06-.52.2-.8.76-.6 1.28 4.18 11.8 16.2 8.92 16.34 8.9.54-.15.87-.7.73-1.22-.13-.54-.67-.86-1.2-.73-.43.1-10.4 2.43-14-7.62-.13-.4-.52-.67-.93-.67"/></g><g><path fill="#99aab5" d="M11.56 18.87c-.1 0-.2.02-.3.06-.54.17-.82.74-.65 1.26 5.87 17.5 21.4 13.06 21.56 13 .53-.15.83-.7.67-1.24-.16-.52-.72-.83-1.24-.67-.57.16-13.86 3.9-19.1-11.74-.13-.42-.52-.7-.94-.7"/></g><g><path fill="#99aab5" d="M16.56-4.7c-.27 0-.54.12-.73.33-.38.4-.35 1.04.05 1.42.3.3 7.54 7.23 3.47 20.6-.16.52 1.53 1.78 1.7 1.26 0-.03.23-.74.24-.78C25.66 3.57 17.6-4.1 17.23-4.42c-.2-.18-.43-.27-.68-.27"/></g><g><path fill="#99aab5" d="M23.06-4.56c-.2 0-.4.06-.6.2-.43.32-.53.94-.2 1.4.1.12 9.72 13.56 1.9 27.85-.25.47-.07 1.08.4 1.35.5.26 1.1.08 1.37-.4 8.43-15.43-1.96-29.86-2.06-30-.2-.27-.5-.4-.8-.4"/></g><g><path fill="#99aab5" d="M27.06-4.56c-.2 0-.4.06-.57.18-.46.3-.57.94-.26 1.4.12.16 11.9 17.28 4.3 29.13-.3.46-.17 1.08.3 1.38.46.3 1.08.16 1.38-.3 3.47-5.4 3.8-12.57.97-20.7C31.07.46 28-3.96 27.87-4.15c-.2-.27-.5-.42-.82-.42"/></g><g><path fill="#99aab5" d="M5.33 22.26c-.1 0-.2.02-.3.05-.54.18-.82.75-.65 1.27C8.64 36.5 21.53 37.8 21.66 37.8c.54.06 1.03-.35 1.1-.9.04-.55-.37-1.03-.92-1.08-.47-.05-11.72-1.23-15.56-12.87-.14-.42-.53-.7-.95-.7"/></g></g></g></g></svg>