<svg xmlns="http://www.w3.org/2000/svg" viewBox="0 0 36 36"><path fill="#88C9F9" d="M36 23V4s0-4-4-4H4S0 0 0 4v18.922L36 23z"/><path fill="#F4900C" d="M19 16c-1 0-4 2-5 2-2 0-4.347-4-6-4-1.786 0-5.151 3.61-8 4.922V22h28c-1.418 0-7.792-6-9-6z"/><path fill="#FFD983" d="M0 21v11c0 4 4 4 4 4h28c4 0 4-4 4-4V21H0z"/><path fill="#77B255" d="M31.5 14.535c-1.398 0-2.5 1.135-2.5 2.535v5.782c0 .688-1 1.241-1 1.551V13.802c0-2.1-1.9-3.802-4-3.802s-4 1.702-4 3.802v13.171c-1-.301-1-.869-1-1.587v-3.247c0-1.4-1.101-2.535-2.5-2.535S14 20.738 14 22.139v4.435c0 1.399.94 2.455 1.971 3.049.787.455 3.029 1.014 4.029 1.047V33c0 2 8 2 8 0v-4.873c1-.075 3.185-.604 3.937-1.038 1.03-.594 2.063-1.649 2.063-3.05v-6.97c0-1.4-1.1-2.534-2.5-2.534z"/><g fill="#3E721D"><circle cx="15.535" cy="29.108" r=".634"/><circle cx="18.069" cy="24.673" r=".634"/><circle cx="13.634" cy="23.406" r=".634"/><circle cx="30.742" cy="27.208" r=".634"/><circle cx="32.643" cy="22.139" r=".634"/><circle cx="30.108" cy="18.97" r=".634"/><circle cx="33.91" cy="17.069" r=".634"/><circle cx="26.307" cy="32.01" r=".634"/><circle cx="20.604" cy="28.475" r=".634"/><circle cx="25.039" cy="24.673" r=".634"/><circle cx="21.237" cy="22.139" r=".634"/><circle cx="25.673" cy="17.703" r=".634"/><circle cx="19.971" cy="15.802" r=".634"/><circle cx="26.94" cy="11.901" r=".634"/></g><circle fill="#FFCC4D" cx="12" cy="7" r="5"/><circle fill="#FFAC33" cx="12" cy="7" r="4"/></svg>