<svg xmlns="http://www.w3.org/2000/svg" viewBox="0 0 45 45" enable-background="new 0 0 45 45"><defs><clipPath id="a"><path d="M0 36h36V0H0v36z"/></clipPath></defs><g><g><g clip-path="url(#a)" transform="matrix(1.25 0 0 -1.25 0 45)"><g><path fill="#c1694f" d="M4 15c2.4 0 2-2 2-3s0-3 2-3 3.46 2.46 7 6l21 21v-7S22.5 14.5 18 10 11 3 8 3c-3.5 0-7 2.6-7 7 0 4 2 5 3 5"/></g><g><path fill="#dd2e44" d="M33 6.5C33 2.9 30.1 0 26.5 0S20 2.9 20 6.5s2.9 6.5 6.5 6.5S33 10.1 33 6.5"/></g><g><path fill="#ffac33" d="M25 17.3C30.26 22.82 36 29 36 29v7c-2.08-2.08-6.58-6.58-11-11v-7.7z"/></g><g><path fill="#ffac33" d="M22 14.12c.33.34.66.7 1 1.05V23l-1-1v-7.88z"/></g></g></g></g></svg>