<svg xmlns="http://www.w3.org/2000/svg" viewBox="0 0 36 36"><path fill="#88C9F9" d="M36 4c0-2.209-1.791-4-4-4H4C1.791 0 0 1.791 0 4v25h36V4z"/><path fill="#3B88C3" d="M0 28v4c0 2.209 1.791 4 4 4h28c2.209 0 4-1.791 4-4v-4H0z"/><path fill="#F4900C" d="M7 29c0-1 1-5 11-5 12 0 15 4 15 5s0 2-14 2C7 31 7 30 7 29z"/><path fill="#3E721D" d="M27.308 1.43c-2.362 1.068-3.205 2.783-3.455 4.255-.635-1.071-1.761-2.05-3.76-2.406-4.352-.775-6.934 4.082-6.934 4.082s2.047-1.478 5.529-.858c3.48.62 5.876 1.22 5.876 1.22s2.302-2.489 4.457-3.464c3.222-1.457 5.386-.461 5.386-.461s-3.072-4.19-7.099-2.368z"/><path fill="#662113" d="M21 24.556c0 .351.25 1.007 2 1.444 2.736.684 3-.444 3-.444s1-3 1-9c0-5.417-2.25-9.417-2.25-9.417l-2.583.333s1.333 2.75 1.416 8.167C23.645 19.64 21 24.205 21 24.556z"/><path fill="#5C913B" d="M31.047 6.306c-3.158-1.668-5.587-.731-6.964.205-1.768-.36-5.122-.406-7.971 3.245-3.494 4.479-.387 10.016-.387 10.016s1.075-3.965 3.877-7.336c1.573-1.892 3.471-3.635 4.636-4.647 1.265.204 3.199.669 5.106 1.735 3.668 2.051 5.301 5.491 5.301 5.491s1.42-6.059-3.598-8.709z"/><circle fill="#FFCC4D" cx="7" cy="7" r="5"/><circle fill="#FFAC33" cx="7" cy="7" r="4"/></svg>