<svg xmlns="http://www.w3.org/2000/svg" viewBox="0 0 36 36"><path fill="#D99E82" d="M25.035 12.035l-2.41 1.507.167-3.75L18 5 5 18v16h26V18z"/><path fill="#C1694F" d="M5 18h1v16H5zm25 0h1v16h-1z"/><path d="M31.707 17.293l-5.802-5.802-1.74 1.088 6.128 6.128c.195.195.451.293.707.293s.512-.098.707-.293c.391-.391.391-1.023 0-1.414zm-8.854-8.855l-4.146-4.146c-.391-.391-1.023-.391-1.414 0l-13 13c-.391.391-.391 1.023 0 1.414s1.023.391 1.414 0L18 6.414l4.732 4.732.121-2.708z" fill="#292F33"/><path fill="#C1694F" d="M16 26h4v8h-4z"/><path fill="#662113" d="M9 18h4v4H9z"/><path fill="#C1694F" d="M16 18h4v4h-4zm-7 8h4v4H9z"/><path fill="#662113" d="M23 26h4v4h-4z"/><path fill="#BCBEC0" d="M33 35c0 .553-.447 1-1 1H4c-.552 0-1-.447-1-1 0-.553.448-1 1-1h28c.553 0 1 .447 1 1z"/><path fill="#662113" d="M24.42 12.42l-1.795 1.122.125-2.792L21 9l-1 6 3 2-2 9 6-7-1-5z"/></svg>