<svg xmlns="http://www.w3.org/2000/svg" viewBox="0 0 45 45" enable-background="new 0 0 45 45"><defs><clipPath id="a"><path d="M0 36h36V0H0v36z"/></clipPath></defs><g><g><g clip-path="url(#a)" transform="matrix(1.25 0 0 -1.25 0 45)"><g><path fill="#88c9f9" d="M36 4s0-4-4-4H4S0 0 0 4v28c0 4 4 4 4 4h28c4 0 4-4 4-4V4z"/></g><g><path fill="#f5f8fa" d="M31.3 33.32c-.26 0-.53-.04-.77-.12-.3.85-1.1 1.45-2.04 1.45-1.03 0-1.87-.7-2.1-1.63-.26.18-.57.3-.9.3-.83 0-1.5-.67-1.5-1.5 0-.2.04-.4.1-.56-.13.04-.28.07-.44.07-.92 0-1.66-.75-1.66-1.67 0-.92.74-1.66 1.66-1.66h7.65c1.48 0 2.67 1.2 2.67 2.66 0 1.47-1.2 2.66-2.66 2.66"/></g><g><path fill="#be1931" d="M2 2l1-1 11 6-1 1L2 2z"/></g><g><path fill="#be1931" d="M15 2l-1-1L3 7l1 1 11-6z"/></g><g><path fill="#be1931" d="M3 8l1-1 9.15 6L12 14 3 8z"/></g><g><path fill="#be1931" d="M14 8l-1-1-9.15 6L5 14l9-6z"/></g><g><path fill="#be1931" d="M4 14l1-1 7.3 6h-2.07L4 14z"/></g><g><path fill="#be1931" d="M13 14l-1-1-7.3 6h2.07L13 14z"/></g><g><path fill="#be1931" d="M5.95 21.83c-.52.1-1-.25-1.1-.77L1.3.96C1.92.45 2.64.2 3.18.1l3.64 20.62c.1.5-.26 1-.77 1.1h-.1z"/></g><g><path fill="#be1931" d="M15.8 0c.02.1.03.2 0 .32l-3.64 20.7c-.1.54-.6.9-1.15.8-.55-.1-.9-.6-.8-1.14L13.83 0h1.96z"/></g><g><path fill="#be1931" d="M9 22.5c0-.28-.22-.5-.5-.5s-.5.22-.5.5v8c0 .28.22.5.5.5s.5-.22.5-.5v-8z"/></g><g><path fill="#be1931" d="M3.3 22.27c-.12-.18-.4-.2-.63-.03-.23.16-.3.43-.18.6l5.55 7.85c.13.17.42.18.64.02.22-.16.3-.43.17-.6L3.3 22.26z"/></g><g><path fill="#be1931" d="M30.86 21.76c.25-.1.37-.4.27-.65-.1-.25-.4-.37-.66-.26L8.3 30.04c-.25.1-.37.4-.26.65.1.25.4.37.65.26l22.16-9.2z"/></g><g><path fill="#be1931" d="M12 22c0-.55-.45-1-1-1H6c-.55 0-1 .45-1 1v2c0 .55.45 1 1 1h5c.55 0 1-.45 1-1v-2z"/></g><g><path fill="#66757f" d="M27 22.74c0 .14-.12.26-.26.26h-.48c-.14 0-.26-.12-.26-.26V11.26c0-.14.12-.26.26-.26h.48c.14 0 .26.12.26.26v11.48z"/></g><g><path fill="#f4900c" d="M28 11.5c0-.83-.67-1.5-1.5-1.5s-1.5.67-1.5 1.5.67 1.5 1.5 1.5 1.5-.67 1.5-1.5"/></g><g><path fill="#f4900c" d="M27.5 9c0-.55-.45-1-1-1s-1 .45-1 1 .45 1 1 1 1-.45 1-1"/></g><g><path fill="#be1931" d="M33 20c0-.55-.45-1-1-1H3c-.55 0-1 .45-1 1v2c0 .55.45 1 1 1h29c.55 0 1-.45 1-1v-2z"/></g><path fill="#88c9f9" d="M14 20h-1.16v2H14v-2z"/><path fill="#88c9f9" d="M17 20h-2v2h2v-2z"/><path fill="#88c9f9" d="M20 20h-2v2h2v-2z"/><path fill="#88c9f9" d="M23 20h-2v2h2v-2z"/><path fill="#88c9f9" d="M26 20h-2v2h2v-2z"/><path fill="#88c9f9" d="M29 20h-2v2h2v-2z"/><g><path fill="#88c9f9" d="M31.5 22H30v-2h1.5c.28 0 .5.22.5.5v1c0 .28-.22.5-.5.5"/></g><path fill="#66757f" d="M33 5H20v3h13V5z"/><g><path fill="#55aced" d="M11 24H9c-.55 0-1-.45-1-1v-2c0-.55.45-1 1-1h3v4h-1z"/></g><path fill="#88c9f9" d="M12 20h-2v4h2v-4z"/></g></g></g></svg>