<svg xmlns="http://www.w3.org/2000/svg" viewBox="0 0 45 45" enable-background="new 0 0 45 45"><defs><clipPath id="a"><path d="M0 36h36V0H0v36z"/></clipPath></defs><g><g><g clip-path="url(#a)" transform="matrix(1.25 0 0 -1.25 0 45)"><g><path fill="#ccd6dd" d="M24 26c0-1.1-.9-2-2-2h-8c-1.1 0-2 .9-2 2v8c0 1.1.9 2 2 2h8c1.1 0 2-.9 2-2v-8z"/></g><g><path fill="#ccd6dd" d="M0 22V2C0 .9.9 0 2 0h32c1.1 0 2 .9 2 2v20H0z"/></g><g><path fill="#99aab5" d="M18 24H2c-1.1 0-2-.9-2-2h20c0 1.1-.9 2-2 2"/></g><g><path fill="#99aab5" d="M34 24H18c-1.1 0-2-.9-2-2h20c0 1.1-.9 2-2 2"/></g><path fill="#55acee" d="M34 10H2v4h32v-4z"/><path fill="#55acee" d="M34 16H2v4h32v-4z"/><path fill="#55acee" d="M34 4H2v4h32V4z"/><path fill="#e1e8ed" d="M28 0H8v24h20V0z"/><path fill="#55acee" d="M26 12H10v4h16v-4z"/><path fill="#55acee" d="M26 18H10v4h16v-4z"/><path fill="#55acee" d="M26 6H10v4h16V6z"/><path fill="#3b88c3" d="M23 0H13v4h10V0z"/><g><path fill="#dd2e44" d="M22 32h-3v3h-2v-3h-3v-2h3v-3h2v3h3v2z"/></g><g><path fill="#99aab5" d="M26 26H10c-1.1 0-2-.9-2-2h20c0 1.1-.9 2-2 2"/></g></g></g></g></svg>