<svg xmlns="http://www.w3.org/2000/svg" viewBox="0 0 45 45" enable-background="new 0 0 45 45"><defs><clipPath id="a"><path d="M0 36h36V0H0v36z"/></clipPath></defs><g><g><path fill="#be1931" d="M12.88 11.25H7.13l-.2 2.5h6.16l-.2-2.5z"/></g><g><path fill="#be1931" d="M12.5 6.25h-5l-.2 2.5h5.4l-.2-2.5z"/></g><g><path fill="#be1931" d="M13.27 16.25H6.73l-.2 2.5h6.93l-.2-2.5z"/></g><g><path fill="#be1931" d="M6.35 21.25l-.1 1.25h7.5l-.1-1.25h-7.3z"/></g><g><path fill="#be1931" d="M25.77 16.25h-6.54l-.2 2.5h6.93l-.2-2.5z"/></g><g><path fill="#be1931" d="M18.85 21.25l-.1 1.25h7.5l-.1-1.25h-7.3z"/></g><g><path fill="#be1931" d="M25.4 11.25H19.6l-.2 2.5h6.16l-.2-2.5z"/></g><g><path fill="#be1931" d="M25 6.25h-5l-.2 2.5h5.4l-.2-2.5z"/></g><g><path fill="#be1931" d="M37.88 11.25h-5.76l-.2 2.5h6.16l-.2-2.5z"/></g><g><path fill="#be1931" d="M31.35 21.25l-.1 1.25h7.5l-.1-1.25h-7.3z"/></g><g><path fill="#be1931" d="M38.27 16.25h-6.54l-.2 2.5h6.93l-.2-2.5z"/></g><g><path fill="#be1931" d="M37.5 6.25h-5l-.2 2.5h5.4l-.2-2.5z"/></g><g><path fill="#e6e7e8" d="M13.08 13.75H6.92l-.2 2.5h6.55l-.2-2.5z"/></g><g><path fill="#e6e7e8" d="M12.7 8.75H7.3l-.2 2.5h5.78l-.2-2.5z"/></g><g><path fill="#e6e7e8" d="M6.54 18.75l-.2 2.5h7.3l-.18-2.5H6.54z"/></g><g><path fill="#e6e7e8" d="M25.58 13.75h-6.16l-.2 2.5h6.55l-.2-2.5z"/></g><g><path fill="#e6e7e8" d="M25.2 8.75h-5.4l-.2 2.5h5.78l-.2-2.5z"/></g><g><path fill="#e6e7e8" d="M19.04 18.75l-.2 2.5h7.3l-.18-2.5h-6.92z"/></g><g><path fill="#e6e7e8" d="M38.08 13.75h-6.16l-.2 2.5h6.55l-.2-2.5z"/></g><g><path fill="#e6e7e8" d="M38.46 18.75h-6.92l-.2 2.5h7.3l-.18-2.5z"/></g><g><path fill="#e6e7e8" d="M37.7 8.75h-5.4l-.2 2.5h5.78l-.2-2.5z"/></g><g><g clip-path="url(#a)" transform="matrix(1.25 0 0 -1.25 0 45)"><g><path fill="#a0041e" d="M35 2c0-1.1-.9-2-2-2H3C1.9 0 1 .9 1 2v14c0 1.1.9 2 2 2h30c1.1 0 2-.9 2-2V2z"/></g><path fill="#c1694f" d="M35 14H1v2h34v-2z"/><path fill="#aab8c2" d="M10 8H6v4h4V8z"/><path fill="#aab8c2" d="M20 8h-4v4h4V8z"/><path fill="#aab8c2" d="M30 8h-4v4h4V8z"/><path fill="#aab8c2" d="M10 2H6v4h4V2z"/><path fill="#aab8c2" d="M20 2h-4v4h4V2z"/><path fill="#aab8c2" d="M30 2h-4v4h4V2z"/><g><path fill="#d1d3d4" d="M9 36c-1.1 0-2-.9-2-2 0-.46.16-.87.42-1.2-.25-.2-.42-.47-.42-.8 0-.55.45-1 1-1s1 .45 1 1c1.1 0 2 .9 2 2s-.9 2-2 2"/></g><g><path fill="#d1d3d4" d="M19 36c-1.1 0-2-.9-2-2 0-.46.16-.87.42-1.2-.25-.2-.42-.47-.42-.8 0-.55.45-1 1-1s1 .45 1 1c1.1 0 2 .9 2 2s-.9 2-2 2"/></g><g><path fill="#d1d3d4" d="M29 36c-1.1 0-2-.9-2-2 0-.46.16-.87.42-1.2-.25-.2-.42-.47-.42-.8 0-.55.45-1 1-1s1 .45 1 1c1.1 0 2 .9 2 2s-.9 2-2 2"/></g></g></g></g></svg>