<svg xmlns="http://www.w3.org/2000/svg" viewBox="0 0 45 45" enable-background="new 0 0 45 45"><defs><clipPath id="a"><path d="M0 36h36V0H0v36z"/></clipPath></defs><g><g><g clip-path="url(#a)" transform="matrix(1.25 0 0 -1.25 0 45)"><g><path fill="#aab8c2" d="M17 2c0-1.1.9-2 2-2h14c1.1 0 2 .9 2 2v16c0 1.1-.9 2-2 2H19c-1.1 0-2-.9-2-2V2z"/></g><g><path fill="#292f33" d="M33 20H23v-2h12c0 1.1-.9 2-2 2"/></g><path fill="#3b88c3" d="M33 2H3v4h30V2z"/><g><path fill="#ccd6dd" d="M3 20c-1.1 0-2-.9-2-2V2c0-1.1.9-2 2-2h20v20H3z"/></g><g><path fill="#66757f" d="M3 20c-1.1 0-2-.9-2-2h22v2H3z"/></g><path fill="#55acee" d="M3 12h4v4H3v-4z"/><path fill="#55acee" d="M17 12h4v4h-4v-4z"/><path fill="#55acee" d="M10 12h4v4h-4v-4z"/><path fill="#3b88c3" d="M33 12h-4v4h4v-4z"/><path fill="#3b88c3" d="M27 12h-4v4h4v-4z"/><path fill="#55acee" d="M21 0H3v6h18V0z"/><path fill="#3b88c3" d="M17 0H7v6h10V0z"/><path fill="#dd2e44" d="M23 10H1V6h22v4z"/><path fill="#f4abba" d="M17 7H7v2h10V7z"/><path fill="#fff" d="M15 7H9v2h6V7z"/><path fill="#a0041e" d="M35 6H23v4h12V6z"/><path fill="#292f33" d="M7 20H5v2h2v-2z"/><path fill="#292f33" d="M17 20h2v2h-2v-2z"/><g><path fill="#dd2e44" d="M21 24c0-1.1-.9-2-2-2H5c-1.1 0-2 .9-2 2v10c0 1.1.9 2 2 2h14c1.1 0 2-.9 2-2V24z"/></g><g><path fill="#fff" d="M10.56 25.85c.62 0 1.1-.28 1.1-.93 0-.64-.48-.92-1-.92h-4.7c-.6 0-1.1.28-1.1.92 0 .3.2.55.34.72 1.16 1.4 2.42 2.65 3.48 4.2.26.35.5.8.5 1.3 0 .56-.44 1.07-1 1.07-1.62 0-.85-2.26-2.2-2.26-.67 0-1.02.48-1.02 1.02 0 1.77 1.57 3.18 3.3 3.18 1.7 0 3.1-1.13 3.1-2.9 0-1.96-2.17-3.9-3.36-5.4h2.56z"/></g><g><path fill="#fff" d="M16.3 31.96h-.03l-1.9-3.9h1.93v3.9zm-3.38-5.76c-.68 0-.98.46-.98.83 0 .3.12.47.2.6l3.14 5.7c.3.56.7.8 1.43.8.82 0 1.62-.5 1.62-1.78v-4.3h.24c.54 0 .98-.37.98-.93s-.44-.92-.98-.92h-.24V25c0-.73-.3-1.08-1-1.08-.73 0-1.02.35-1.02 1.1v1.18h-3.38z"/></g></g></g></g></svg>