<svg xmlns="http://www.w3.org/2000/svg" viewBox="0 0 45 45" enable-background="new 0 0 45 45"><defs><clipPath id="a"><path d="M0 36h36V0H0v36z"/></clipPath></defs><g><g><g clip-path="url(#a)" transform="matrix(1.25 0 0 -1.25 0 45)"><g><path fill="#ffcc4d" d="M14 2c0-1.1.9-2 2-2h18c1.1 0 2 .9 2 2v20c0 1.1-.9 2-2 2H16c-1.1 0-2-.9-2-2V2z"/></g><g><path fill="#bcbec0" d="M34 24H20v-2h16c0 1.1-.9 2-2 2"/></g><path fill="#55acee" d="M20 0h14v20H20V0z"/><g><path fill="#ffe8b6" d="M18 36H2c-1.1 0-2-.9-2-2V2C0 .9.9 0 2 0h18v34c0 1.1-.9 2-2 2"/></g><g><path fill="#bcbec0" d="M18 36H2c-1.1 0-2-.9-2-2h20c0 1.1-.9 2-2 2"/></g><path fill="#55acee" d="M2 10h16v4H2v-4z"/><path fill="#55acee" d="M2 16h16v4H2v-4z"/><path fill="#55acee" d="M2 22h16v4H2v-4z"/><path fill="#55acee" d="M2 28h16v4H2v-4z"/><path fill="#55acee" d="M2 0h16v8H2V0z"/><path fill="#3b88c3" d="M6 0h8v4H6V0z"/><path fill="#3b88c3" d="M23 0h8v4h-8V0z"/><path fill="#ffcc4d" d="M35 8H20v2h15V8z"/><path fill="#ffcc4d" d="M35 14H20v2h15v-2z"/><g><path fill="#dd2e44" d="M36 29c0-1.1-.9-2-2-2H24c-1.1 0-2 .9-2 2v2c0 1.1.9 2 2 2h10c1.1 0 2-.9 2-2v-2z"/></g><path fill="#58595b" d="M28 24h-2v3h2v-3z"/><path fill="#58595b" d="M32 24h-2v3h2v-3z"/><path fill="#f4abba" d="M26 29h-2v2h2v-2z"/><path fill="#fff" d="M28 29h-2v2h2v-2z"/><path fill="#f4abba" d="M30 29h-2v2h2v-2z"/><path fill="#fff" d="M32 29h-2v2h2v-2z"/><path fill="#f4abba" d="M34 29h-2v2h2v-2z"/></g></g></g></svg>