<svg xmlns="http://www.w3.org/2000/svg" viewBox="0 0 45 45" enable-background="new 0 0 45 45"><defs><clipPath id="a"><path d="M0 36h36V0H0v36z"/></clipPath></defs><g><g><g clip-path="url(#a)" transform="matrix(1.25 0 0 -1.25 0 45)"><g><path fill="#ffcc4d" d="M5.94 3c-.14 4.66-.5 8-.94 8-.43 0-.8-3.34-.94-8h1.88z"/></g><g><path fill="#a6d388" d="M16 15.58C16 10.53 13.76 9 11 9s-5 1.53-5 6.58C6 20.62 10 28 11 28s5-7.38 5-12.42"/></g><g><path fill="#77b255" d="M10 16.27C10 10.7 7.76 9 5 9s-5 1.7-5 7.27C0 21.85 4 30 5 30s5-8.15 5-13.73"/></g><g><path fill="#ffe8b6" d="M8 20l13 13 13-13V4H8v16z"/></g><path fill="#fff" d="M22 4h-1v16h1V4z"/><path fill="#ffcc4d" d="M9 4H8v16h1V4z"/><path fill="#ffcc4d" d="M33 4h1v16h-1V4z"/><g><path fill="#66757f" d="M34 19c-.26 0-.5.1-.7.3L21 31.6 8.7 19.3c-.38-.4-1.02-.4-1.4 0-.4.38-.4 1.02 0 1.4l13 13c.38.4 1.02.4 1.4 0l13-13c.4-.38.4-1.02 0-1.4-.2-.2-.44-.3-.7-.3"/></g><g><path fill="#66757f" d="M21 19c-.26 0-.5.1-.7.3-.4.38-.4 1.02 0 1.4l6.5 6.5c.38.4 1.02.4 1.4 0 .4-.38.4-1.02 0-1.4l-6.5-6.5c-.2-.2-.44-.3-.7-.3"/></g><path fill="#c1694f" d="M17 4h-4v6h4V4z"/><path fill="#55acee" d="M29 6h-3v4h3V6z"/><path fill="#55acee" d="M25 6h2v4h-2V6z"/><path fill="#55acee" d="M30 6h-2v4h2V6z"/><path fill="#55acee" d="M17 15h-4v4h4v-4z"/><path fill="#55acee" d="M30 15h-5v4h5v-4z"/><g><path fill="#5c913b" d="M36 2c0-1.1-.9-2-2-2H2C.9 0 0 .9 0 2s.9 2 2 2h32c1.1 0 2-.9 2-2"/></g><path fill="#fff" d="M17 0h-4v4h4V0z"/></g></g></g></svg>