<svg xmlns="http://www.w3.org/2000/svg" viewBox="0 0 45 45" enable-background="new 0 0 45 45"><defs><clipPath id="a"><path d="M0 36h36V0H0v36z"/></clipPath></defs><g><g><g clip-path="url(#a)" transform="matrix(1.25 0 0 -1.25 0 45)"><g><path fill="#dac8b1" d="M34 23c0-1.1-.9-2-2-2h-6c-1.1 0-2 .9-2 2v2c0 1.1.9 2 2 2h6c1.1 0 2-.9 2-2v-2z"/></g><g><path fill="#dac8b1" d="M12 23c0-1.1-.9-2-2-2H4c-1.1 0-2 .9-2 2v2c0 1.1.9 2 2 2h6c1.1 0 2-.9 2-2v-2z"/></g><g><path fill="#f1dcc1" d="M36 2c0-1.1-.9-2-2-2H2C.9 0 0 .9 0 2v21c0 1.1.9 2 2 2h32c1.1 0 2-.9 2-2V2z"/></g><g><path fill="#dac8b1" d="M22 27v2c0 .74-.4 1.38-1 1.72V31c0 1.1-.9 2-2 2h-2c-1.1 0-2-.9-2-2v-.28c-.6-.34-1-.98-1-1.72v-2h-1V0h10v27h-1z"/></g><path fill="#55acee" d="M16 27h-2v2h2v-2z"/><path fill="#55acee" d="M20 27h2v2h-2v-2z"/><path fill="#55acee" d="M19 27h-2v2h2v-2z"/><path fill="#3b88c3" d="M17 7h-2v14h2V7z"/><path fill="#3b88c3" d="M21 7h-2v14h2V7z"/><path fill="#55acee" d="M26 7h-2v12h2V7z"/><path fill="#55acee" d="M30 7h-2v12h2V7z"/><path fill="#55acee" d="M34 7h-2v12h2V7z"/><path fill="#55acee" d="M4 7H2v12h2V7z"/><path fill="#55acee" d="M8 7H6v12h2V7z"/><path fill="#55acee" d="M12 7h-2v12h2V7z"/><path fill="#55acee" d="M4 4H2v2h2V4z"/><path fill="#55acee" d="M8 4H6v2h2V4z"/><path fill="#55acee" d="M12 4h-2v2h2V4z"/><path fill="#3b88c3" d="M17 4h-2v2h2V4z"/><path fill="#3b88c3" d="M21 4h-2v2h2V4z"/><path fill="#55acee" d="M26 4h-2v2h2V4z"/><path fill="#55acee" d="M30 4h-2v2h2V4z"/><path fill="#55acee" d="M34 4h-2v2h2V4z"/><path fill="#66757f" d="M4 0H2v3h2V0z"/><path fill="#66757f" d="M8 0H6v3h2V0z"/><path fill="#66757f" d="M12 0h-2v3h2V0z"/><path fill="#66757f" d="M17 0h-2v3h2V0z"/><path fill="#66757f" d="M21 0h-2v3h2V0z"/><path fill="#66757f" d="M26 0h-2v3h2V0z"/><path fill="#66757f" d="M28 0h2v3h-2V0z"/><path fill="#66757f" d="M34 0h-2v3h2V0z"/></g></g></g></svg>