<svg xmlns="http://www.w3.org/2000/svg" viewBox="0 0 45 45" enable-background="new 0 0 45 45"><defs><clipPath id="a"><path d="M0 36h36V0H0v36z"/></clipPath></defs><g><g><path fill="#ffe8b6" d="M6.25 22.5L22.5 6.25 38.75 22.5v20H6.25v-20z"/></g><path fill="#ffcc4d" d="M6.25 42.5H7.5v-20H6.25v20z"/><path fill="#ffcc4d" d="M37.5 42.5h1.25v-20H37.5v20z"/><g><g clip-path="url(#a)" transform="matrix(1.25 0 0 -1.25 0 45)"><g><path fill="#66757f" d="M31 17c-.26 0-.5.1-.7.3L18 29.6 5.7 17.3c-.38-.4-1.02-.4-1.4 0-.4.38-.4 1.02 0 1.4l13 13c.38.4 1.02.4 1.4 0l13-13c.4-.38.4-1.02 0-1.4-.2-.2-.44-.3-.7-.3"/></g><path fill="#c1694f" d="M20 2h-4v8h4V2z"/><path fill="#55acee" d="M13 14H9v4h4v-4z"/><path fill="#55acee" d="M27 14h-4v4h4v-4z"/><path fill="#55acee" d="M20 14h-4v4h4v-4z"/><path fill="#55acee" d="M13 6H9v4h4V6z"/><path fill="#55acee" d="M27 6h-4v4h4V6z"/><g><path fill="#bcbec0" d="M33 1c0-.55-.45-1-1-1H4c-.55 0-1 .45-1 1s.45 1 1 1h28c.55 0 1-.45 1-1"/></g></g></g></g></svg>