<svg xmlns="http://www.w3.org/2000/svg" viewBox="0 0 45 45" enable-background="new 0 0 45 45"><defs><clipPath id="a"><path d="M0 36h36V0H0v36z"/></clipPath></defs><g><g><g clip-path="url(#a)" transform="matrix(1.25 0 0 -1.25 0 45)"><g><path fill="#3b88c3" d="M36 4c0-2.2-1.8-4-4-4H4C1.8 0 0 1.8 0 4v28c0 2.2 1.8 4 4 4h28c2.2 0 4-1.8 4-4V4z"/></g><path fill="#bbddf5" d="M36 9H0v17h36V9z"/><g><path fill="#269" d="M5.47 16.45H8.5L7.04 21.1H7l-1.53-4.65zm-.17 5.8c.27.75.9 1.34 1.7 1.34.86 0 1.45-.57 1.72-1.34l3.14-8.7c.1-.26.13-.5.13-.6 0-.62-.52-1.06-1.12-1.06-.67 0-1 .36-1.16.84l-.5 1.5H4.8l-.5-1.5c-.16-.48-.5-.84-1.15-.84-.64 0-1.18.48-1.18 1.12 0 .26.08.45.1.53l3.23 8.7z"/></g><g><path fill="#269" d="M14.46 21.2h-1.74c-.77 0-1.1.55-1.1 1.1s.4 1.1 1.1 1.1h5.9c.68 0 1.08-.55 1.08-1.1s-.32-1.1-1.1-1.1h-1.73v-8.05c0-.8-.52-1.25-1.2-1.25-.7 0-1.2.45-1.2 1.25v8.04z"/></g><g><path fill="#269" d="M22.03 22.26c.1.58.72 1.23 1.57 1.23.8 0 1.43-.58 1.6-1.16L27.1 16h.02l1.9 6.34c.17.58.8 1.15 1.6 1.15.84 0 1.46-.66 1.56-1.24l1.5-8.93c0-.1 0-.2 0-.27 0-.7-.5-1.16-1.15-1.16-.8 0-1.13.37-1.24 1.12l-.96 6.52h-.03l-1.9-6.7c-.12-.4-.43-.94-1.3-.94-.86 0-1.16.55-1.27.93l-1.92 6.7h-.03l-.94-6.5c-.1-.76-.43-1.13-1.25-1.13-.64 0-1.15.45-1.15 1.16 0 .08 0 .17.02.27l1.48 8.93z"/></g></g></g></g></svg>