<svg xmlns="http://www.w3.org/2000/svg" viewBox="0 0 45 45" enable-background="new 0 0 45 45"><defs><clipPath id="a"><path d="M0 36h36V0H0v36z"/></clipPath></defs><g><path fill="#66757f" d="M41.25 20H3.75v22.5h37.5V20z"/><g><g clip-path="url(#a)" transform="matrix(1.25 0 0 -1.25 0 45)"><g><path fill="#ccd6dd" d="M2 2h32c1.1 0 2-.9 2-2H0c0 1.1.9 2 2 2"/></g><g><path fill="#292f33" d="M18 13c-1.66 0-3-1.34-3-3V4h6v6c0 1.66-1.34 3-3 3"/></g><path fill="#ccd6dd" d="M7 15H3V4h4v11z"/><path fill="#ccd6dd" d="M13 15H9V4h4v11z"/><path fill="#ccd6dd" d="M33 15h-4V4h4v11z"/><path fill="#ccd6dd" d="M27 15h-4V4h4v11z"/><path fill="#aab8c2" d="M34 2H2v2h32V2z"/><g><path fill="#66757f" d="M36 25L18 36 0 25h36z"/></g><g><path fill="#ccd6dd" d="M18 33.6L2 24v-4h32v4l-16 9.6z"/></g><path fill="#8899a6" d="M7 15H3v2h4v-2z"/><path fill="#8899a6" d="M13 15H9v2h4v-2z"/><path fill="#8899a6" d="M27 15h-4v2h4v-2z"/><path fill="#8899a6" d="M33 15h-4v2h4v-2z"/><path fill="#ccd6dd" d="M35 19H1v5h34v-5z"/><g><path fill="#aab8c2" d="M36 24c0-.55-.45-1-1-1H1c-.55 0-1 .45-1 1v1c0 .55.45 1 1 1h34c.55 0 1-.45 1-1v-1z"/></g><g><path fill="#aab8c2" d="M36 18c0-.55-.45-1-1-1H1c-.55 0-1 .45-1 1v1c0 .55.45 1 1 1h34c.55 0 1-.45 1-1v-1z"/></g><path fill="#e1e8ed" d="M23 2H13v2h10V2z"/><path fill="#f5f8fa" d="M25 0H11v2h14V0z"/></g></g></g></svg>