<svg xmlns="http://www.w3.org/2000/svg" viewBox="0 0 45 45" enable-background="new 0 0 45 45"><defs><clipPath id="a"><path d="M0 36h36V0H0v36z"/></clipPath></defs><g><g><g clip-path="url(#a)" transform="matrix(1.25 0 0 -1.25 0 45)"><g><path fill="#c1694f" d="M21 21c0-2.2-1.8-4-4-4H4c-2.2 0-4 1.8-4 4v3c0 2.2 1.8 4 4 4h13c2.2 0 4-1.8 4-4v-3z"/></g><g><path fill="#c1694f" d="M36 30c0-2.2-1.8-4-4-4H20c-2.2 0-4 1.8-4 4v1c0 2.2 1.8 4 4 4h12c2.2 0 4-1.8 4-4v-1z"/></g><g><path fill="#ffcc4d" d="M0 24V2C0 .9.9 0 2 0h31v24H0z"/></g><path fill="#55acee" d="M14 0H2v4h12V0z"/><path fill="#55acee" d="M18 6H2v4h16V6z"/><g><path fill="#ffe8b6" d="M16 31V0h18c1.1 0 2 .9 2 2v29H16z"/></g><path fill="#55acee" d="M34 12H18v4h16v-4z"/><path fill="#55acee" d="M34 18H18v4h16v-4z"/><path fill="#55acee" d="M34 24H18v4h16v-4z"/><path fill="#55acee" d="M34 6H18v4h16V6z"/><path fill="#ffe8b6" d="M24 5h-2v24h2V5z"/><path fill="#ffe8b6" d="M30 5h-2v24h2V5z"/><path fill="#3b88c3" d="M30 0h-8v4h8V0z"/><g><path fill="#3b88c3" d="M10 22v-4H6v4H4V12h2v4h4v-4h2v10h-2z"/></g><path fill="#ffcc4d" d="M9 5H7v6h2V5z"/><path fill="#ffcc4d" d="M16 5h-2v6h2V5z"/></g></g></g></svg>