<svg xmlns="http://www.w3.org/2000/svg" viewBox="0 0 36 36"><path fill="#FFE8B6" d="M5 18L18 5l13 13v16H5z"/><path fill="#FFCC4D" d="M5 18h1v16H5zm25 0h1v16h-1z"/><path fill="#66757F" d="M31 19c-.256 0-.512-.098-.707-.293L18 6.414 5.707 18.707c-.391.391-1.023.391-1.414 0s-.391-1.023 0-1.414l13-13c.391-.391 1.023-.391 1.414 0l13 13c.391.391.391 1.023 0 1.414-.195.195-.451.293-.707.293z"/><path fill="#C1694F" d="M16 26h4v8h-4z"/><path fill="#55ACEE" d="M9 18h4v4H9zm14 0h4v4h-4zm-7 0h4v4h-4zm-7 8h4v4H9zm14 0h4v4h-4z"/><path fill="#BCBEC0" d="M33 35c0 .553-.447 1-1 1H4c-.552 0-1-.447-1-1 0-.553.448-1 1-1h28c.553 0 1 .447 1 1z"/></svg>