<svg xmlns="http://www.w3.org/2000/svg" viewBox="0 0 45 45" enable-background="new 0 0 45 45"><defs><clipPath id="a"><path d="M0 36h36V0H0v36z"/></clipPath></defs><g><g><g clip-path="url(#a)" transform="matrix(1.25 0 0 -1.25 0 45)"><g><path fill="#ffcc4d" d="M36 2c0-1.1-.9-2-2-2H2C.9 0 0 .9 0 2v19c0 1.1.9 2 2 2h32c1.1 0 2-.9 2-2V2z"/></g><g><path fill="#6d6e71" d="M34 23H2c-1.1 0-2-.9-2-2h36c0 1.1-.9 2-2 2"/></g><path fill="#3b88c3" d="M34 8H2v4h32V8z"/><path fill="#3b88c3" d="M34 14H2v4h32v-4z"/><path fill="#3b88c3" d="M34 2H2v4h32V2z"/><path fill="#ffcc4d" d="M30 1h-2v18h2V1z"/><g><path fill="#ffe8b6" d="M22 36H6c-1.1 0-2-.9-2-2V0h20v34c0 1.1-.9 2-2 2"/></g><g><path fill="#808285" d="M22 36H6c-1.1 0-2-.9-2-2h20c0 1.1-.9 2-2 2"/></g><path fill="#55acee" d="M22 14H6v4h16v-4z"/><path fill="#55acee" d="M22 8H6v4h16V8z"/><path fill="#55acee" d="M22 2H6v4h16V2z"/><path fill="#ffe8b6" d="M12 0h-2v29h2V0z"/><path fill="#ffe8b6" d="M18 0h-2v29h2V0z"/><path fill="#269" d="M16 0h-4v6h4V0z"/><g><path fill="#a7a9ac" d="M20 27c0-3.3-2.7-6-6-6s-6 2.7-6 6 2.7 6 6 6 6-2.7 6-6"/></g><g><path fill="#e6e7e8" d="M18 27c0-2.2-1.8-4-4-4s-4 1.8-4 4 1.8 4 4 4 4-1.8 4-4"/></g><g><path fill="#a0041e" d="M17 26h-3c-.55 0-1 .45-1 1v5c0 .55.45 1 1 1s1-.45 1-1v-4h2c.55 0 1-.45 1-1s-.45-1-1-1"/></g></g></g></g></svg>