<svg xmlns="http://www.w3.org/2000/svg" viewBox="0 0 45 45" enable-background="new 0 0 45 45"><defs><clipPath id="a"><path d="M0 36h36V0H0v36z"/></clipPath></defs><g><path fill="#edbb9f" d="M31.25 31.25h-17.5V12.5h17.5v18.75z"/><g><g clip-path="url(#a)" transform="matrix(1.25 0 0 -1.25 0 45)"><g><path fill="#be1931" d="M1 18V2c0-1.1.9-2 2-2h30c1.1 0 2 .9 2 2v16H1z"/></g><path fill="#ffe8b6" d="M35 19H1v3h34v-3z"/><path fill="#c1694f" d="M35 18H1v2h34v-2z"/><g><path fill="#ccd6dd" d="M18 9c-1.66 0-3-1.34-3-3V0h6v6c0 1.66-1.34 3-3 3"/></g><g><path fill="#aab8c2" d="M28 9c-1.66 0-3-1.34-3-3V2h6v4c0 1.66-1.34 3-3 3"/></g><g><path fill="#aab8c2" d="M8 9C6.34 9 5 7.66 5 6V2h6v4c0 1.66-1.34 3-3 3"/></g><g><path fill="#d99e82" d="M22 32c0-2.2-1.8-4-4-4s-4 1.8-4 4 1.8 4 4 4 4-1.8 4-4"/></g><path fill="#edbb9f" d="M22 28h-8v4h8v-4z"/><g><path fill="#d99e82" d="M33 24H3c-1.1 0-2-.9-2-2h34c0 1.1-.9 2-2 2"/></g><g><path fill="#d99e82" d="M23 28H13c-1.1 0-2-.9-2-2h14c0 1.1-.9 2-2 2"/></g><g><path fill="#ffac33" d="M21.67 14.76c-.2-.2 0-.4 0-.4l-.9-.9-1.5-1.5c-.02 0-.05-.04-.07-.07-.87-.88-2.27-.88-3.13 0-.86.85-.86 2.25 0 3.1.86.88 2.26.88 3.13 0 .5-.5.7-1.18.62-1.83l.9.9c-.12.58-.4 1.15-.87 1.6-1.22 1.23-3.2 1.23-4.44 0-1.22-1.23-1.22-3.2 0-4.44 1.24-1.23 3.23-1.23 4.45 0 .03.03.05.06.08.08l2.4 2.4s.17-.2.38 0c.22.2 0 .42 0 .42l-.62.63s-.2.2-.4 0"/></g><g><path fill="#ffac33" d="M14.22 12.42c-.13.47-.17.96-.12 1.44l-.1.08c-.8.83-.32 1.98-.48 2.14-.17.17-.33 0-.33 0S11.4 14.3 11.2 14.1c-.17-.16 0-.32 0-.32.16-.16 1.37.28 2.08-.44.23-.23.58-.58.92-.92"/></g></g></g></g></svg>