<svg xmlns="http://www.w3.org/2000/svg" viewBox="0 0 45 45" enable-background="new 0 0 45 45"><g><path fill="#d1d3d4" d="M38.75 28.75H6.25v8.75h32.5v-8.75z"/><g><path fill="#d99e82" d="M5 36.25L0 45h45l-5-8.75H5z"/></g><g><path fill="#66757f" d="M37.5 25h-30l-6.25 5h42.5l-6.25-5z"/></g><g><path fill="#d1d3d4" d="M22.5 12.35L12.2 17.5h20.6l-10.3-5.15z"/></g><g><path fill="#66757f" d="M22.5 12.35l10.3 5.15H12.2l10.3-5.15zm15 5.15l-1.25-6.25H8.75L7.5 17.5l-5 3.75h40l-5-3.75z"/></g><path fill="#d1d3d4" d="M37.5 21.25h-30V25h30v-3.75z"/><g><path fill="#d1d3d4" d="M30 11.25v-5H15v5h-2.5v2.5h20v-2.5H30z"/></g><g><path fill="#66757f" d="M15 2.5h15V5l2.5 2.5h-20L15 5V2.5z"/></g><g><path fill="#99aab5" d="M28.75 0v1.25h-12.5V0H15v2.5h15V0h-1.25z"/></g><g><path fill="#66757f" d="M15 17.5l7.5-3.75L30 17.5H15zm22.5.96l-6.38-3.2-7.5-3.75-1.12-.55-1.12.56-7.5 3.76-6.38 3.2V20h30v-1.55z"/></g><path fill="#6d6e71" d="M38.75 36.25H6.25v-2.5h32.5v2.5z"/></g></svg>