<svg xmlns:dc="http://purl.org/dc/elements/1.1/" xmlns:cc="http://creativecommons.org/ns#" xmlns:rdf="http://www.w3.org/1999/02/22-rdf-syntax-ns#" xmlns:svg="http://www.w3.org/2000/svg" xmlns="http://www.w3.org/2000/svg" viewBox="0 0 45 45" style="enable-background:new 0 0 45 45;" xml:space="preserve" version="1.1" id="svg2"><metadata id="metadata8"><rdf:RDF><cc:Work rdf:about=""><dc:format>image/svg+xml</dc:format><dc:type rdf:resource="http://purl.org/dc/dcmitype/StillImage"/></cc:Work></rdf:RDF></metadata><defs id="defs6"><clipPath id="clipPath16" clipPathUnits="userSpaceOnUse"><path id="path18" d="M 0,36 36,36 36,0 0,0 0,36 Z"/></clipPath></defs><g transform="matrix(1.25,0,0,-1.25,0,45)" id="g10"><g id="g12"><g xmlns="http://www.w3.org/2000/svg" clip-path="url(#clipPath16)" id="g14"><g id="g20"><path id="path22" style="fill:#eeeeee;fill-opacity:1;fill-rule:nonzero;stroke:none" d="M 4,31 C 1.791,31 0,29.209 0,27 V 9 C 0,6.791 1.791,5 4,5 h 28 c 2.209,0 4,1.791 4,4 v 18 c 0,2.209 -1.791,4 -4,4 z"/></g><g id="g24"><path id="path26" style="fill:#00923f;fill-opacity:1;fill-rule:nonzero;stroke:none" d="M 24.436,11.564 H 11.565 v 12.871 h 12.871 z"/></g><g id="g28"><path id="path30" style="fill:#f8c300;fill-opacity:1;fill-rule:nonzero;stroke:none" d="m 19.8301,18 -0.915,-0.915 h 2.602 l 0.643,0.643 h 1.191 v -0.643 l 0.914,0.915 -0.914,0.915 v -0.643 h -1.191 l -0.643,0.643 h -2.602 z"/></g><g id="g32"><path id="path34" style="fill:#f8c300;fill-opacity:1;fill-rule:nonzero;stroke:none" d="m 18,19.8296 0.915,-0.915 v 2.602 l -0.643,0.644 v 1.19 h 0.643 L 18,24.2646 17.085,23.3506 h 0.643 v -1.19 l -0.643,-0.644 v -2.602 z"/></g><g id="g36"><path id="path38" style="fill:#f8c300;fill-opacity:1;fill-rule:nonzero;stroke:none" d="m 16.1704,18 0.915,0.915 h -2.602 l -0.644,-0.643 h -1.19 v 0.643 L 11.7354,18 l 0.914,-0.915 v 0.643 h 1.19 l 0.644,-0.643 h 2.602 z"/></g><g id="g40"><path id="path42" style="fill:#f8c300;fill-opacity:1;fill-rule:nonzero;stroke:none" d="m 18,16.1699 -0.915,0.915 v -2.602 l 0.643,-0.643 v -1.191 h -0.643 l 0.915,-0.914 0.915,0.914 h -0.643 v 1.191 l 0.643,0.643 v 2.602 z"/></g></g></g></g></svg>