<svg xmlns:dc="http://purl.org/dc/elements/1.1/" xmlns:cc="http://creativecommons.org/ns#" xmlns:rdf="http://www.w3.org/1999/02/22-rdf-syntax-ns#" xmlns:svg="http://www.w3.org/2000/svg" xmlns="http://www.w3.org/2000/svg" viewBox="0 0 45 45" style="enable-background:new 0 0 45 45;" xml:space="preserve" version="1.1" id="svg2"><metadata id="metadata8"><rdf:RDF><cc:Work rdf:about=""><dc:format>image/svg+xml</dc:format><dc:type rdf:resource="http://purl.org/dc/dcmitype/StillImage"/></cc:Work></rdf:RDF></metadata><defs id="defs6"><clipPath id="clipPath16" clipPathUnits="userSpaceOnUse"><path id="path18" d="M 0,36 36,36 36,0 0,0 0,36 Z"/></clipPath></defs><g transform="matrix(1.25,0,0,-1.25,0,45)" id="g10"><g id="g12"><g xmlns="http://www.w3.org/2000/svg" clip-path="url(#clipPath16)" id="g14"><g id="g20"><path id="path22" style="fill:#eeeeee;fill-opacity:1;fill-rule:nonzero;stroke:none" d="M 36,9 C 36,6.791 34.209,5 32,5 L 4,5 C 1.791,5 0,6.791 0,9 L 0,18.001 0,27 c 0,2.209 1.791,4 4,4 l 28,0 c 2.209,0 4,-1.791 4,-4 l 0,-9 0,-9 z"/></g><g id="g24"><path id="path26" style="fill:#ffffff;fill-opacity:1;fill-rule:nonzero;stroke:none" d="m 18,9.499 c 0,0 -1.84,0.854 -3.768,3.109 l 0.565,2.595 3.203,0.125 3.203,-0.125 0.565,-2.595 C 19.84,10.353 18,9.499 18,9.499"/><path id="path28" style="fill:#016d33;fill-opacity:1;fill-rule:nonzero;stroke:none" d="m 18,15.3281 -3.203,-0.125 -0.565,-2.595 c -0.592,0.694 -1.194,1.521 -1.753,2.496 -1.877,3.276 -1.647,8.22 -1.647,8.22 l 14.336,0 c 0,0 0.229,-4.944 -1.647,-8.22 -0.559,-0.975 -1.161,-1.802 -1.753,-2.496 l -0.565,2.595 -3.203,0.125 z"/><path id="path30" style="fill:#000000;fill-opacity:1;fill-rule:nonzero;stroke:none" d="m 10.832,26.573 14.336,0 0,-3.249 -14.336,0 0,3.249 z"/></g></g></g></g></svg>