<svg xmlns:dc="http://purl.org/dc/elements/1.1/" xmlns:cc="http://creativecommons.org/ns#" xmlns:rdf="http://www.w3.org/1999/02/22-rdf-syntax-ns#" xmlns:svg="http://www.w3.org/2000/svg" xmlns="http://www.w3.org/2000/svg" viewBox="0 0 45 45" style="enable-background:new 0 0 45 45;" xml:space="preserve" version="1.1" id="svg2"><metadata id="metadata8"><rdf:RDF><cc:Work rdf:about=""><dc:format>image/svg+xml</dc:format><dc:type rdf:resource="http://purl.org/dc/dcmitype/StillImage"/></cc:Work></rdf:RDF></metadata><defs id="defs6"><clipPath id="clipPath16" clipPathUnits="userSpaceOnUse"><path id="path18" d="M 4,31 C 1.791,31 0,29.209 0,27 L 0,27 0,9 C 0,6.791 1.791,5 4,5 l 0,0 28,0 c 2.209,0 4,1.791 4,4 l 0,0 0,18 c 0,2.209 -1.791,4 -4,4 l 0,0 -28,0 z"/></clipPath></defs><g transform="matrix(1.25,0,0,-1.25,0,45)" id="g10"><g id="g12"><g xmlns="http://www.w3.org/2000/svg" clip-path="url(#clipPath16)" id="g14"><g id="g20"><path id="path22" style="fill:#fb501e;fill-opacity:1;fill-rule:nonzero;stroke:none" d="m 5e-4,5 h 36 v 25.999 h -36 z"/></g><g id="g24"><path id="path26" style="fill:#f8da07;fill-opacity:1;fill-rule:nonzero;stroke:none" d="M 29.646,5 0,25.388 24.338,12.611 c 0,0 -0.502,0.639 -1.061,1.305 -0.372,0.442 -0.659,0.87 -1.145,1.171 -0.982,0.606 -2.032,0.68 -3.319,1.412 -1.167,0.664 -1.644,2.141 -3.23,3.157 -1.2,0.769 -1.759,0.444 -3.421,1.563 C 10.555,22.3 10.069,23.726 9.25,24.406 8.265,25.226 6.74,25.401 5.61,26.271 4.83,26.873 4.751,28.073 3.375,29.062 2.37,29.786 1.112,29.814 0.361,30.292 0.109,30.453 0,31 0,31 c 0,0 0.199,-0.291 0.587,-0.504 0.855,-0.471 2.782,-0.184 3.918,-0.907 1.705,-1.085 1.548,-1.603 2.843,-2.481 1.091,-0.741 2.922,-0.55 4.35,-1.688 0.905,-0.72 1.116,-1.669 2.185,-2.428 0.993,-0.705 2.777,-0.606 5.002,-2.159 1.506,-1.051 1.156,-1.633 2.447,-2.416 0.855,-0.517 1.694,-0.481 2.651,-0.894 1.184,-0.509 2.436,-1.232 2.436,-1.232 L 9.591,31 36,14.033 V 5 Z"/></g></g></g></g></svg>