<svg xmlns:dc="http://purl.org/dc/elements/1.1/" xmlns:cc="http://creativecommons.org/ns#" xmlns:rdf="http://www.w3.org/1999/02/22-rdf-syntax-ns#" xmlns:svg="http://www.w3.org/2000/svg" xmlns="http://www.w3.org/2000/svg" viewBox="0 0 45 45" style="enable-background:new 0 0 45 45;" xml:space="preserve" version="1.1" id="svg2"><metadata id="metadata8"><rdf:RDF><cc:Work rdf:about=""><dc:format>image/svg+xml</dc:format><dc:type rdf:resource="http://purl.org/dc/dcmitype/StillImage"/></cc:Work></rdf:RDF></metadata><defs id="defs6"><clipPath id="clipPath16" clipPathUnits="userSpaceOnUse"><path id="path18" d="M 4,31 C 1.791,31 0,29.209 0,27 L 0,27 0,9 C 0,6.791 1.791,5 4,5 l 0,0 28,0 c 2.209,0 4,1.791 4,4 l 0,0 0,18 c 0,2.209 -1.791,4 -4,4 l 0,0 -28,0 z"/></clipPath></defs><g transform="matrix(1.25,0,0,-1.25,0,45)" id="g10"><g id="g12"><g clip-path="url(#clipPath16)" id="g14"><g id="g20"><path id="path22" style="fill:#eeeeee;fill-opacity:1;fill-rule:nonzero;stroke:none" d="M 0,5 H 36 V 31.001 H 0 Z"/></g><g id="g24"><path id="path26" style="fill:#0c4ec0;fill-opacity:1;fill-rule:nonzero;stroke:none" d="m 12.1357,11.473 -0.318,-3.375 c 0,0 0.334,0.058 0.893,0.058 2.727,0 5.405,-1.588 8.377,-2.545 C 22.3527,5.204 23.6297,5 23.6297,5 h 12.37 v 7.41 c 0,0 -0.433,-0.638 -1.378,-1.018 -0.686,-0.276 -1.608,-0.469 -3.184,-0.469 -3.016,0 -6.423,1.857 -9.091,2.726 -1.708,0.555 -2.865,0.518 -2.865,0.518 z"/></g><g id="g28"><path id="path30" style="fill:#0c4ec0;fill-opacity:1;fill-rule:nonzero;stroke:none" d="M 0,7.9837 6.536,9.9677 9.772,5.0007 6.556,8.2557 0,6.5197 Z"/></g><g id="g32"><path id="path34" style="fill:#0c4ec0;fill-opacity:1;fill-rule:nonzero;stroke:none" d="m 0.1484,19.2171 2.828,-4.455 -2.751,-4.164 1.454,4.261 z"/></g><g id="g36"><path id="path38" style="fill:#0c4ec0;fill-opacity:1;fill-rule:nonzero;stroke:none" d="m 0,31.0013 v -9.571 l 6.5,-2.2 4.445,4.279 v 7.492 z"/></g><g id="g40"><path id="path42" style="fill:#eeeeee;fill-opacity:1;fill-rule:nonzero;stroke:none" d="m 3.1885,29.5482 0.162,-0.429 0.422,0.18 -0.235,-0.395 0.404,-0.217 -0.454,-0.063 0.081,-0.451 -0.332,0.316 -0.302,-0.346 0.04,0.458 -0.458,0.021 0.382,0.253 -0.27,0.372 0.437,-0.141 z"/></g><g id="g44"><path id="path46" style="fill:#eeeeee;fill-opacity:1;fill-rule:nonzero;stroke:none" d="m 7.0649,27.2098 0.159,-0.42 0.413,0.176 -0.23,-0.386 0.395,-0.213 -0.445,-0.061 0.081,-0.442 -0.326,0.309 -0.296,-0.338 0.04,0.448 -0.449,0.02 0.375,0.248 -0.264,0.364 0.427,-0.138 z"/></g><g id="g48"><path id="path50" style="fill:#eeeeee;fill-opacity:1;fill-rule:nonzero;stroke:none" d="m 3.7017,26.1107 0.09,-0.241 0.237,0.1 -0.133,-0.22 0.226,-0.123 -0.254,-0.034 0.044,-0.253 -0.185,0.178 -0.17,-0.193 0.023,0.256 -0.256,0.013 0.214,0.141 -0.149,0.209 0.244,-0.081 z"/></g><g id="g52"><path id="path54" style="fill:#eeeeee;fill-opacity:1;fill-rule:nonzero;stroke:none" d="m 3.4434,24.2855 0.16,-0.419 0.411,0.178 -0.227,-0.386 0.395,-0.211 -0.444,-0.063 0.082,-0.44 -0.326,0.307 -0.294,-0.338 0.038,0.446 -0.448,0.019 0.373,0.249 -0.265,0.362 0.427,-0.137 z"/></g><g id="g56"><path id="path58" style="fill:#eeeeee;fill-opacity:1;fill-rule:nonzero;stroke:none" d="m 6.2114,23.5472 0.165,-0.425 0.417,0.183 -0.23,-0.394 0.403,-0.212 -0.451,-0.066 0.085,-0.447 -0.332,0.311 -0.297,-0.345 0.036,0.454 -0.455,0.017 0.377,0.254 -0.27,0.366 0.434,-0.136 z"/></g><g id="g60"><path id="path62" style="fill:#ffaa2a;fill-opacity:1;fill-rule:nonzero;stroke:none" d="m 11.1064,23.6888 v 7.289 c 0,0 0.206,0.023 0.541,0.023 0.79,0 2.246,-0.213 3.576,-1.293 1.859,-1.509 2.213,-3.675 2.213,-3.675 0,0 -2.713,-1.717 -4.863,-2.181 -0.846,-0.184 -1.467,-0.163 -1.467,-0.163"/></g><g id="g64"><path id="path66" style="fill:#5baf00;fill-opacity:1;fill-rule:nonzero;stroke:none" d="m 19.8535,14.3324 c 0,0 1.492,0.504 3.461,1.827 1.629,1.095 3.588,2.772 5.252,4.024 1.792,1.347 3.346,1.918 4.564,2.078 1.592,0.209 2.869,-0.188 2.869,-0.188 v -9.355 c 0,0 -0.314,-0.635 -1.226,-1.064 -0.683,-0.322 -1.57,-0.55 -3.195,-0.55 -2.117,0 -4.3,0.811 -6.055,1.53 -1.285,0.525 -2.399,0.966 -3.094,1.184 -1.533,0.483 -2.576,0.514 -2.576,0.514"/></g><g id="g68"><path id="path70" style="fill:#98d404;fill-opacity:1;fill-rule:nonzero;stroke:none" d="m 36,27.2826 c 0,0 -1.212,0.583 -2.858,0.583 -4.642,0 -9.829,-4.601 -14.621,-7.573 -3.797,-2.356 -6.36,-3.124 -6.36,-3.124 l 7.326,-2.825 c 0,0 0.112,0 0.201,-0.003 0.088,-0.003 0.166,-0.008 0.166,-0.008 0,0 1.517,0.577 3.5,1.877 1.619,1.061 3.548,2.721 5.212,3.973 1.792,1.348 3.346,1.919 4.565,2.079 1.592,0.209 2.869,-0.188 2.869,-0.188 z"/></g><g id="g72"><path id="path74" style="fill:#ccf307;fill-opacity:1;fill-rule:nonzero;stroke:none" d="m 11.1064,23.512 v -0.269 l 1.055,-6.075 c 0,0 2.562,0.768 6.359,3.124 4.793,2.973 9.98,7.574 14.621,7.574 1.647,0 2.859,-0.583 2.859,-0.583 v 3.718 h -9.37 c 0,0 -1.297,-0.492 -3.197,-1.515 -1.588,-0.856 -5.373,-3.357 -7.098,-4.29 -3.437,-1.859 -5.229,-1.684 -5.229,-1.684"/></g></g></g></g></svg>