<svg xmlns:dc="http://purl.org/dc/elements/1.1/" xmlns:cc="http://creativecommons.org/ns#" xmlns:rdf="http://www.w3.org/1999/02/22-rdf-syntax-ns#" xmlns:svg="http://www.w3.org/2000/svg" xmlns="http://www.w3.org/2000/svg" viewBox="0 0 45 45" style="enable-background:new 0 0 45 45;" xml:space="preserve" version="1.1" id="svg2"><metadata id="metadata8"><rdf:RDF><cc:Work rdf:about=""><dc:format>image/svg+xml</dc:format><dc:type rdf:resource="http://purl.org/dc/dcmitype/StillImage"/></cc:Work></rdf:RDF></metadata><defs id="defs6"><clipPath id="clipPath16" clipPathUnits="userSpaceOnUse"><path id="path18" d="M 0,36 36,36 36,0 0,0 0,36 Z"/></clipPath></defs><g transform="matrix(1.25,0,0,-1.25,0,45)" id="g10"><g id="g12"><g xmlns="http://www.w3.org/2000/svg" clip-path="url(#clipPath16)" id="g14"><g id="g30"><path id="path20" style="fill:#047734;fill-opacity:1;fill-rule:nonzero;stroke:none" d="M 4,31 C 1.791,31 0,29.209 0,27 V 9 C 0,6.791 1.791,5 4,5 h 28 c 2.209,0 4,1.791 4,4 v 18 c 0,2.209 -1.791,4 -4,4 z"/></g><g id="g32"><path id="path30" style="fill:#eeeeee;fill-opacity:1;fill-rule:nonzero;stroke:none" d="m 4,29.3999 c -1.323,0 -2.4,-1.077 -2.4,-2.4 v -18 c 0,-1.323 1.077,-2.4 2.4,-2.4 h 28 c 1.323,0 2.4,1.077 2.4,2.4 v 18 c 0,1.323 -1.077,2.4 -2.4,2.4 z"/></g><g id="g34"><path id="path40" style="fill:#ffce10;fill-opacity:1;fill-rule:nonzero;stroke:none" d="m 4.0498,28.25 v -1.3 h -1.3 V 9 h 1.3 V 7.75 h 27.95 v 1.3 h 1.25 V 27 h -1.3 v 1.25 z"/></g><g id="g36"><path id="path50" style="fill:#9c213c;fill-opacity:1;fill-rule:nonzero;stroke:none" d="m 4.0498,26.9502 v -17.95 l 27.95,0.05 -0.05,17.95 z"/></g><g id="g38"><path id="path60" style="fill:#9c213c;fill-opacity:1;fill-rule:nonzero;stroke:none" d="m 3.3218,28.0298 c -0.072,0.06 -0.176,0.082 -0.176,0.082 0,0 0.053,0.204 0.251,0.354 0.198,0.151 0.472,0.111 0.472,0.111 0,0 0.039,-0.274 -0.111,-0.472 -0.151,-0.198 -0.354,-0.251 -0.354,-0.251 0,0 -0.022,0.104 -0.082,0.176"/><path id="path61" style="fill:#9c213c;fill-opacity:1;fill-rule:nonzero;stroke:none" d="m 2.9702,28.0298 c 0.072,0.06 0.176,0.082 0.176,0.082 0,0 -0.053,0.204 -0.251,0.354 -0.198,0.151 -0.472,0.111 -0.472,0.111 0,0 -0.04,-0.274 0.111,-0.472 0.15,-0.198 0.354,-0.251 0.354,-0.251 0,0 0.022,0.104 0.082,0.176"/><path id="path62" style="fill:#9c213c;fill-opacity:1;fill-rule:nonzero;stroke:none" d="m 2.9702,27.6782 c 0.072,-0.06 0.176,-0.082 0.176,-0.082 0,0 -0.053,-0.203 -0.251,-0.354 -0.198,-0.15 -0.472,-0.111 -0.472,-0.111 0,0 -0.04,0.274 0.111,0.472 0.15,0.198 0.354,0.251 0.354,0.251 0,0 0.022,-0.104 0.082,-0.176"/><path id="path63" style="fill:#9c213c;fill-opacity:1;fill-rule:nonzero;stroke:none" d="m 3.3218,27.6782 c -0.072,-0.06 -0.176,-0.082 -0.176,-0.082 0,0 0.053,-0.203 0.251,-0.354 0.198,-0.15 0.472,-0.111 0.472,-0.111 0,0 0.039,0.274 -0.111,0.472 -0.151,0.198 -0.354,0.251 -0.354,0.251 0,0 -0.022,-0.104 -0.082,-0.176"/><path id="path64" style="fill:#9c213c;fill-opacity:1;fill-rule:nonzero;stroke:none" d="m 33.0303,28.0796 c -0.072,0.06 -0.176,0.082 -0.176,0.082 0,0 0.053,0.204 0.251,0.354 0.197,0.151 0.472,0.111 0.472,0.111 0,0 0.039,-0.274 -0.111,-0.472 -0.151,-0.198 -0.355,-0.251 -0.355,-0.251 0,0 -0.021,0.104 -0.081,0.176"/><path id="path65" style="fill:#9c213c;fill-opacity:1;fill-rule:nonzero;stroke:none" d="m 32.6787,28.0796 c 0.072,0.06 0.176,0.082 0.176,0.082 0,0 -0.054,0.204 -0.251,0.354 -0.198,0.151 -0.473,0.111 -0.473,0.111 0,0 -0.039,-0.274 0.111,-0.472 0.151,-0.198 0.355,-0.251 0.355,-0.251 0,0 0.022,0.104 0.082,0.176"/><path id="path66" style="fill:#9c213c;fill-opacity:1;fill-rule:nonzero;stroke:none" d="m 32.6787,27.728 c 0.072,-0.06 0.176,-0.082 0.176,-0.082 0,0 -0.054,-0.203 -0.251,-0.354 -0.198,-0.15 -0.473,-0.111 -0.473,-0.111 0,0 -0.039,0.274 0.111,0.472 0.151,0.198 0.355,0.251 0.355,0.251 0,0 0.022,-0.104 0.082,-0.176"/><path id="path67" style="fill:#9c213c;fill-opacity:1;fill-rule:nonzero;stroke:none" d="m 33.0303,27.728 c -0.072,-0.06 -0.176,-0.082 -0.176,-0.082 0,0 0.053,-0.203 0.251,-0.354 0.197,-0.15 0.472,-0.111 0.472,-0.111 0,0 0.039,0.274 -0.111,0.472 -0.151,0.198 -0.355,0.251 -0.355,0.251 0,0 -0.021,-0.104 -0.081,-0.176"/><path id="path68" style="fill:#9c213c;fill-opacity:1;fill-rule:nonzero;stroke:none" d="m 33.0801,8.3213 c -0.072,0.06 -0.176,0.082 -0.176,0.082 0,0 0.053,0.204 0.251,0.355 0.197,0.15 0.472,0.111 0.472,0.111 0,0 0.039,-0.275 -0.111,-0.473 -0.151,-0.197 -0.355,-0.251 -0.355,-0.251 0,0 -0.021,0.104 -0.081,0.176"/><path id="path69" style="fill:#9c213c;fill-opacity:1;fill-rule:nonzero;stroke:none" d="m 32.7285,8.3213 c 0.072,0.06 0.176,0.082 0.176,0.082 0,0 -0.054,0.204 -0.251,0.355 -0.198,0.15 -0.473,0.111 -0.473,0.111 0,0 -0.039,-0.275 0.111,-0.473 0.151,-0.197 0.355,-0.251 0.355,-0.251 0,0 0.022,0.104 0.082,0.176"/><path id="path70" style="fill:#9c213c;fill-opacity:1;fill-rule:nonzero;stroke:none" d="m 32.7285,7.9697 c 0.072,-0.06 0.176,-0.081 0.176,-0.081 0,0 -0.054,-0.204 -0.251,-0.355 -0.198,-0.15 -0.473,-0.111 -0.473,-0.111 0,0 -0.039,0.275 0.111,0.472 0.151,0.198 0.355,0.251 0.355,0.251 0,0 0.022,-0.104 0.082,-0.176"/><path id="path71" style="fill:#9c213c;fill-opacity:1;fill-rule:nonzero;stroke:none" d="m 33.0801,7.9697 c -0.072,-0.06 -0.176,-0.081 -0.176,-0.081 0,0 0.053,-0.204 0.251,-0.355 0.197,-0.15 0.472,-0.111 0.472,-0.111 0,0 0.039,0.275 -0.111,0.472 -0.151,0.198 -0.355,0.251 -0.355,0.251 0,0 -0.021,-0.104 -0.081,-0.176"/><path id="path72" style="fill:#9c213c;fill-opacity:1;fill-rule:nonzero;stroke:none" d="m 3.3218,8.2715 c -0.072,0.06 -0.176,0.082 -0.176,0.082 0,0 0.053,0.204 0.251,0.355 0.198,0.15 0.472,0.111 0.472,0.111 0,0 0.039,-0.275 -0.111,-0.473 -0.151,-0.197 -0.354,-0.251 -0.354,-0.251 0,0 -0.022,0.104 -0.082,0.176"/><path id="path73" style="fill:#9c213c;fill-opacity:1;fill-rule:nonzero;stroke:none" d="m 2.9702,8.2715 c 0.072,0.06 0.176,0.082 0.176,0.082 0,0 -0.053,0.204 -0.251,0.355 -0.198,0.15 -0.472,0.111 -0.472,0.111 0,0 -0.04,-0.275 0.111,-0.473 0.15,-0.197 0.354,-0.251 0.354,-0.251 0,0 0.022,0.104 0.082,0.176"/><path id="path74" style="fill:#9c213c;fill-opacity:1;fill-rule:nonzero;stroke:none" d="m 2.9702,7.9199 c 0.072,-0.06 0.176,-0.081 0.176,-0.081 0,0 -0.053,-0.204 -0.251,-0.355 -0.198,-0.15 -0.472,-0.111 -0.472,-0.111 0,0 -0.04,0.275 0.111,0.472 0.15,0.198 0.354,0.251 0.354,0.251 0,0 0.022,-0.104 0.082,-0.176"/><path id="path75" style="fill:#9c213c;fill-opacity:1;fill-rule:nonzero;stroke:none" d="m 3.3218,7.9199 c -0.072,-0.06 -0.176,-0.081 -0.176,-0.081 0,0 0.053,-0.204 0.251,-0.355 0.198,-0.15 0.472,-0.111 0.472,-0.111 0,0 0.039,0.275 -0.111,0.472 -0.151,0.198 -0.354,0.251 -0.354,0.251 0,0 -0.022,-0.104 -0.082,-0.176"/><path id="path76" style="fill:#eeeeee;fill-opacity:1;fill-rule:nonzero;stroke:none" d="m 29.4111,24.4604 c 0,0 0.319,0.201 0.997,0.188 0.402,-0.007 1.092,0.358 1.092,0.892 0,0.533 -0.414,0.439 -0.414,0.439 0,0 0.069,0.135 0.188,0.175 0.103,0.035 0.172,0.028 0.226,0.095 0.132,0.163 -0.085,0.216 -0.085,0.216 0,0 -0.053,0.216 -0.216,0.084 -0.066,-0.053 -0.059,-0.123 -0.095,-0.225 -0.04,-0.119 -0.174,-0.189 -0.174,-0.189 0,0 0.093,0.414 -0.44,0.414 -0.533,0 -0.898,-0.689 -0.892,-1.091 0.013,-0.678 -0.187,-0.998 -0.187,-0.998"/><path id="path77" style="fill:#eeeeee;fill-opacity:1;fill-rule:nonzero;stroke:none" d="m 29.4609,11.5889 c 0,0 0.2,-0.319 0.187,-0.997 -0.006,-0.402 0.359,-1.092 0.892,-1.092 0.533,0 0.44,0.414 0.44,0.414 0,0 0.134,-0.069 0.174,-0.188 0.036,-0.103 0.029,-0.172 0.095,-0.226 0.163,-0.132 0.216,0.085 0.216,0.085 0,0 0.217,0.053 0.085,0.216 -0.054,0.066 -0.123,0.059 -0.226,0.095 -0.119,0.04 -0.188,0.174 -0.188,0.174 0,0 0.414,-0.093 0.414,0.44 0,0.533 -0.69,0.898 -1.092,0.892 -0.678,-0.013 -0.997,0.187 -0.997,0.187"/><path id="path78" style="fill:#eeeeee;fill-opacity:1;fill-rule:nonzero;stroke:none" d="m 6.5894,11.5889 c 0,0 -0.32,-0.2 -0.998,-0.187 -0.402,0.006 -1.091,-0.359 -1.091,-0.892 0,-0.533 0.414,-0.44 0.414,-0.44 0,0 -0.07,-0.134 -0.189,-0.174 -0.102,-0.036 -0.172,-0.029 -0.225,-0.095 -0.132,-0.163 0.084,-0.216 0.084,-0.216 0,0 0.053,-0.217 0.216,-0.085 0.067,0.054 0.06,0.123 0.095,0.226 0.04,0.119 0.175,0.188 0.175,0.188 0,0 -0.094,-0.414 0.439,-0.414 0.534,0 0.899,0.69 0.892,1.092 -0.013,0.678 0.188,0.997 0.188,0.997"/><path id="path79" style="fill:#eeeeee;fill-opacity:1;fill-rule:nonzero;stroke:none" d="m 6.5396,24.4604 c 0,0 -0.201,0.32 -0.188,0.998 0.007,0.402 -0.358,1.091 -0.892,1.091 -0.533,0 -0.439,-0.414 -0.439,-0.414 0,0 -0.135,0.07 -0.175,0.189 -0.035,0.102 -0.028,0.172 -0.095,0.225 -0.163,0.132 -0.216,-0.084 -0.216,-0.084 0,0 -0.216,-0.053 -0.084,-0.216 0.053,-0.067 0.123,-0.06 0.225,-0.095 0.119,-0.04 0.189,-0.175 0.189,-0.175 0,0 -0.414,0.094 -0.414,-0.439 0,-0.534 0.689,-0.899 1.091,-0.892 0.678,0.013 0.998,-0.188 0.998,-0.188"/><path id="path80" style="fill:#eeeeee;fill-opacity:1;fill-rule:nonzero;stroke:none" d="m 18,21.2993 c -1.819,0 -3.299,-1.48 -3.299,-3.299 0,-1.821 1.48,-3.3 3.299,-3.3 1.82,0 3.3,1.479 3.3,3.3 0,1.819 -1.48,3.299 -3.3,3.299 m 0,-7.403 c -2.263,0 -4.103,1.841 -4.103,4.104 0,2.262 1.84,4.103 4.103,4.103 2.263,0 4.104,-1.841 4.104,-4.103 0,-2.263 -1.841,-4.104 -4.104,-4.104"/><path id="path81" style="fill:#eeeeee;fill-opacity:1;fill-rule:nonzero;stroke:none" d="m 8.4536,21.2993 c -1.82,0 -3.299,-1.48 -3.299,-3.299 0,-1.821 1.479,-3.3 3.299,-3.3 1.819,0 3.299,1.479 3.299,3.3 0,1.819 -1.48,3.299 -3.299,3.299 m 0,-7.403 c -2.263,0 -4.104,1.841 -4.104,4.104 0,2.262 1.841,4.103 4.104,4.103 2.262,0 4.103,-1.841 4.103,-4.103 0,-2.263 -1.841,-4.104 -4.103,-4.104"/><path id="path82" style="fill:#eeeeee;fill-opacity:1;fill-rule:nonzero;stroke:none" d="m 27.5469,21.2993 c -1.82,0 -3.3,-1.48 -3.3,-3.299 0,-1.821 1.48,-3.3 3.3,-3.3 1.819,0 3.3,1.479 3.3,3.3 0,1.819 -1.481,3.299 -3.3,3.299 m 0,-7.403 c -2.263,0 -4.104,1.841 -4.104,4.104 0,2.262 1.841,4.103 4.104,4.103 2.263,0 4.104,-1.841 4.104,-4.103 0,-2.263 -1.841,-4.104 -4.104,-4.104"/></g></g></g></g></svg>