<svg xmlns:dc="http://purl.org/dc/elements/1.1/" xmlns:cc="http://creativecommons.org/ns#" xmlns:rdf="http://www.w3.org/1999/02/22-rdf-syntax-ns#" xmlns:svg="http://www.w3.org/2000/svg" xmlns="http://www.w3.org/2000/svg" viewBox="0 0 45 45" style="enable-background:new 0 0 45 45;" xml:space="preserve" version="1.1" id="svg2"><metadata id="metadata8"><rdf:RDF><cc:Work rdf:about=""><dc:format>image/svg+xml</dc:format><dc:type rdf:resource="http://purl.org/dc/dcmitype/StillImage"/></cc:Work></rdf:RDF></metadata><defs id="defs6"><clipPath id="clipPath16" clipPathUnits="userSpaceOnUse"><path id="path18" d="M 0,36 36,36 36,0 0,0 0,36 Z"/></clipPath></defs><g transform="matrix(1.25,0,0,-1.25,0,45)" id="g10"><g id="g12"><g xmlns="http://www.w3.org/2000/svg" clip-path="url(#clipPath16)" id="g14"><g id="g20"><path id="path22" style="fill:#da121a;fill-opacity:1;fill-rule:nonzero;stroke:none" d="M 32,31 4,31 C 1.791,31 0,29.209 0,27 L 0,9 C 0,6.791 1.791,5 4,5 l 28,0 c 2.209,0 4,1.791 4,4 l 0,18 c 0,2.209 -1.791,4 -4,4"/></g><g id="g24"><path id="path26" style="fill:#ffffff;fill-opacity:1;fill-rule:nonzero;stroke:none" d="m 24.9746,8.8984 0,0.94 c 0,0 -0.356,0.655 -0.681,1.882 -0.38,1.443 -0.564,2.523 -0.622,3.83 -0.051,1.146 0.005,1.758 0.005,1.758 l 0.065,0.05 0,1.591 -0.657,0 0,5.184 0.192,0.065 0,1.454 -0.559,0 0,-0.727 -0.374,-0.008 0,0.735 -0.558,0 0,-0.727 -0.374,-0.008 0,0.735 -0.559,0 0,-0.727 -0.374,-0.008 0,0.735 -0.559,0 0,-1.454 0.192,-0.065 0,-5.184 -0.651,0 0,5.184 0.202,0.065 0,0.633 -0.231,0 c 0,0 0.012,0.452 -0.286,0.813 -0.299,0.362 -0.541,0.442 -0.541,0.442 0,0 0.031,0.238 -0.139,0.485 -0.11,0.157 -0.335,0.195 -0.335,0.195 l 0,0.619 0.407,0 0,0.265 -0.407,0 0,0.338 -0.261,0 0,-0.338 -0.408,0 0,-0.265 0.408,0 0,-0.619 c 0,0 -0.226,-0.038 -0.334,-0.195 -0.171,-0.247 -0.14,-0.485 -0.14,-0.485 0,0 -0.242,-0.08 -0.541,-0.442 -0.297,-0.361 -0.287,-0.813 -0.287,-0.813 l -0.23,0 0,-0.633 0.202,-0.065 0,-5.184 -0.651,0 0,5.184 0.192,0.065 0,1.454 -0.559,0 0,-0.735 -0.374,0.008 0,0.727 -0.559,0 0,-0.735 -0.373,0.008 0,0.727 -0.559,0 0,-0.735 -0.374,0.008 0,0.727 -0.559,0 0,-1.454 0.192,-0.065 0,-5.184 -0.657,0 0,-1.591 0.065,-0.05 c 0,0 0.055,-0.612 0.005,-1.758 -0.058,-1.307 -0.242,-2.387 -0.623,-3.83 -0.323,-1.227 -0.68,-1.882 -0.68,-1.882 l 0,-0.94 13.949,0 z"/></g><g id="g28"><path id="path30" style="fill:#db7f86;fill-opacity:1;fill-rule:nonzero;stroke:none" d="m 15.603,13.5146 c 0,1.33 1.081,2.407 2.41,2.407 1.33,0 2.407,-1.077 2.407,-2.407 l 0,-4.616 -0.437,0 0,4.616 c 0,1.089 -0.881,1.971 -1.97,1.971 -1.088,0 -1.971,-0.882 -1.971,-1.971 l 0,-4.616 -0.442,0 0.003,4.616 z"/></g><g id="g32"><path id="path34" style="fill:#db7f86;fill-opacity:1;fill-rule:nonzero;stroke:none" d="m 25.0244,9.6064 -4.837,0 0,0.474 4.737,0 0.1,-0.474 z"/></g><g id="g36"><path id="path38" style="fill:#db7f86;fill-opacity:1;fill-rule:nonzero;stroke:none" d="m 11.0776,10.0801 4.737,0 0,-0.474 -4.837,0 0.1,0.474 z"/></g><g id="g40"><path id="path42" style="fill:#db7f86;fill-opacity:1;fill-rule:nonzero;stroke:none" d="m 23.791,17.5913 -0.1,-0.473 -11.382,0 -0.1,0.473 11.582,0 z"/></g><g id="g44"><path id="path46" style="fill:#ffffff;fill-opacity:1;fill-rule:nonzero;stroke:none" d="m 14.4224,27.8857 -0.268,-0.463 -0.535,0 0.267,-0.464 -0.267,-0.463 0.535,0 0.268,-0.464 0.268,0.464 0.535,0 -0.267,0.463 0.267,0.464 -0.535,0 -0.268,0.463 z"/></g><g id="g48"><path id="path50" style="fill:#ffffff;fill-opacity:1;fill-rule:nonzero;stroke:none" d="m 21.5781,27.8857 0.268,-0.463 0.535,0 -0.268,-0.464 0.268,-0.463 -0.535,0 -0.268,-0.464 -0.269,0.464 -0.535,0 0.268,0.463 -0.268,0.464 0.535,0 0.269,0.463 z"/></g></g></g></g></svg>