<svg xmlns:dc="http://purl.org/dc/elements/1.1/" xmlns:cc="http://creativecommons.org/ns#" xmlns:rdf="http://www.w3.org/1999/02/22-rdf-syntax-ns#" xmlns:svg="http://www.w3.org/2000/svg" xmlns="http://www.w3.org/2000/svg" viewBox="0 0 45 45" style="enable-background:new 0 0 45 45;" xml:space="preserve" version="1.1" id="svg2"><metadata id="metadata8"><rdf:RDF><cc:Work rdf:about=""><dc:format>image/svg+xml</dc:format><dc:type rdf:resource="http://purl.org/dc/dcmitype/StillImage"/></cc:Work></rdf:RDF></metadata><defs id="defs6"><clipPath id="clipPath16" clipPathUnits="userSpaceOnUse"><path id="path18" d="M 0,36 36,36 36,0 0,0 0,36 Z"/></clipPath></defs><g transform="matrix(1.25,0,0,-1.25,0,45)" id="g10"><g id="g12"><g xmlns="http://www.w3.org/2000/svg" clip-path="url(#clipPath16)" id="g14"><g id="g20"><path id="path22" style="fill:#003066;fill-opacity:1;fill-rule:nonzero;stroke:none" d="M 0,9 C 0,6.791 1.791,5 4,5 l 28,0 c 2.209,0 4,1.791 4,4 l 0,18 c 0,2.209 -1.791,4 -4,4 L 4,31 C 1.791,31 0,29.209 0,27 L 0,9 z"/></g><g id="g24"><path id="path26" style="fill:#ffffff;fill-opacity:1;fill-rule:nonzero;stroke:none" d="m 4.4883,28.5225 c 0.468,0.202 0.985,0.314 1.528,0.314 2.131,0 3.859,-1.728 3.859,-3.858 0,-2.132 -1.728,-3.859 -3.859,-3.859 -2.131,0 -3.859,1.727 -3.859,3.859 0,0.446 0.076,0.875 0.216,1.274 -0.018,-0.125 -0.027,-0.253 -0.027,-0.384 0,-1.499 1.215,-2.714 2.714,-2.714 1.498,0 2.714,1.215 2.714,2.714 0,1.499 -1.216,2.714 -2.714,2.714 -0.197,0 -0.388,-0.02 -0.572,-0.06"/></g><g id="g28"><path id="path30" style="fill:#ffffff;fill-opacity:1;fill-rule:nonzero;stroke:none" d="m 19.2295,9.4062 c 0,0 -0.389,0.294 -0.389,2.564 0,2.271 -0.14,6.624 -0.14,6.624 0,0 0.294,-0.428 0.419,-0.828 0.126,-0.4 0.157,-0.721 0.157,-0.721 0,0 0.212,-0.039 0.651,0.133 0.439,0.172 1.16,-0.384 2.016,-0.031 0.854,0.353 0.98,1.09 0.98,1.09 l -1.435,2.267 c 0,0 0.453,-0.069 1.064,-0.675 0.613,-0.606 1.195,-0.959 1.195,-0.959 0,0 0.299,0.077 0.476,0.365 0.177,0.288 0.141,0.659 0.141,0.659 0,0 -0.735,0.194 -1.3,0.453 -0.564,0.259 -0.87,0.517 -0.87,0.517 0,0 0.158,0.101 1.259,0.083 1.099,-0.018 1.317,0.07 1.317,0.07 0,0 0.088,0.112 0.112,0.394 0.024,0.283 -0.065,0.524 -0.065,0.524 0,0 -0.359,0.147 -0.841,0.177 -0.482,0.029 -1.282,0 -1.282,0 0,0 0.082,0.07 0.229,0.117 0.147,0.047 0.376,0.106 0.376,0.106 0,0 -0.235,0.047 -0.535,0.053 -0.3,0.006 -0.811,-0.035 -0.811,-0.035 0,0 0.541,0.452 1.117,1.029 0.577,0.577 0.7,0.994 0.7,0.994 0,0 -0.105,0.342 -0.382,0.53 -0.277,0.188 -0.924,-0.101 -0.924,-0.101 0,0 -0.476,-0.523 -1.159,-1.058 -0.682,-0.535 -1.276,-0.671 -1.276,-0.671 0,0 0.122,0.468 0.453,0.971 0.441,0.671 0.218,2.435 0.218,2.435 0,0 -0.624,0.171 -1.212,-0.312 -0.588,-0.482 -1.053,-2.629 -1.053,-2.629 0,0 -0.323,0.746 -0.789,1.453 -0.464,0.707 -0.853,1.041 -0.853,1.041 l -1.611,0.224 c 0,0 0.153,-0.771 0.429,-1.406 0.277,-0.635 1.077,-1.801 1.077,-1.801 0,0 -0.93,-0.188 -1.906,0.477 -0.977,0.665 -1.553,0.7 -1.553,0.7 0,0 -0.526,-0.066 -0.706,-0.418 -0.523,-1.023 3.606,-1.541 3.606,-1.541 0,0 -1.324,-0.123 -2.382,-0.253 -1.059,-0.129 -1.677,-0.299 -1.677,-0.299 0,0 0.03,-0.277 0.353,-0.759 0.324,-0.483 0.859,-0.718 0.859,-0.718 0,0 0.565,0.064 1.1,0.494 0.535,0.429 1.259,0.594 1.259,0.594 0,0 -1.253,-0.859 -1.924,-1.6 -0.671,-0.741 -0.576,-1.929 -0.576,-1.929 0,0 0.529,-0.177 1.429,1.088 0.9,1.265 2.2,2.206 2.2,2.206 0,0 -0.586,-1.223 -1.494,-2.029 -1.524,-1.353 -0.006,-2.559 -0.006,-2.559 0,0 0.547,0.558 1.083,1.388 0.535,0.829 0.835,1.7 0.835,1.7 0,0 0.147,-0.353 -0.106,-1.053 -0.253,-0.7 -0.541,-1.035 -0.541,-1.035 0,0 0.047,-0.201 0.37,-0.335 0.324,-0.136 0.618,0.029 0.618,0.029 0,0 -0.065,0.47 0.106,0.982 0.17,0.512 0.147,0.947 0.147,0.947 0,0 0.088,-0.077 0.035,-1 -0.053,-0.923 -0.241,-7.464 -0.317,-7.888 -0.077,-0.424 -0.212,-0.665 -0.212,-0.665 l -1.2,0 c 0,0 -0.713,-0.217 -0.448,-0.857 0.266,-0.641 1.962,-0.552 2.36,-0.317 0.397,0.235 0.994,-0.11 1.864,0 0.871,0.109 1.271,0.337 1.271,0.337 0,0 -0.314,0.447 -0.824,0.564 -0.51,0.119 -1.082,0.103 -1.082,0.103"/></g></g></g></g></svg>