<svg xmlns="http://www.w3.org/2000/svg" viewBox="0 0 45 45"><path fill="#d4d4d4" d="m 45,33.75 c 0,2.76125 -2.23875,5 -5,5 H 5 c -2.76125,0 -5,-2.23875 -5,-5 v -22.5 c 0,-2.76125 2.23875,-5 5,-5 h 35 c 2.76125,0 5,2.23875 5,5 z"/><path fill="#ff0103" d="m 27.999875,15.340125 -0.17,2.37 h 0.63 l -0.14,7.54 -0.04,2.02 c -0.83,2.39 -3.11,4.11 -5.78,4.11 -2.68,0 -4.96,-1.73 -5.78,-4.13 l -0.04,-2 -0.14,-7.54 h 0.63 l -0.17,-2.37 h -0.77 v -1.45 h 3.72 v 1.45 h -0.7 v 0.35 h 2.32 v -0.35 h -0.93 v -1.45 h 3.72 v 1.45 h -0.93 v 0.35 h 2.32 v -0.35 h -0.7 v -1.45 h 3.72 v 1.45 z"/><path fill="#fefefe" d="m 26.599875,25.090125 v 3.66 h -8.2 v -3.66 l 0.25,-0.14 v -1.77 c 0.48,-0.6 1.13,-0.91 1.92,-0.96 v -2.27 c 0.57,-0.59 1.14,-1.04 1.93,-1.04 0.79,0 1.36,0.45 1.93,1.04 v 2.27 c 0.79,0.05 1.44,0.36 1.92,0.96 v 1.77 z"/></svg>