<svg xmlns:dc="http://purl.org/dc/elements/1.1/" xmlns:cc="http://creativecommons.org/ns#" xmlns:rdf="http://www.w3.org/1999/02/22-rdf-syntax-ns#" xmlns:svg="http://www.w3.org/2000/svg" xmlns="http://www.w3.org/2000/svg" viewBox="0 0 45 45" style="enable-background:new 0 0 45 45;" xml:space="preserve" version="1.1" id="svg2"><metadata id="metadata8"><rdf:RDF><cc:Work rdf:about=""><dc:format>image/svg+xml</dc:format><dc:type rdf:resource="http://purl.org/dc/dcmitype/StillImage"/></cc:Work></rdf:RDF></metadata><defs id="defs6"><clipPath id="clipPath16" clipPathUnits="userSpaceOnUse"><path id="path18" d="M 0,36 36,36 36,0 0,0 0,36 Z"/></clipPath></defs><g transform="matrix(1.25,0,0,-1.25,0,45)" id="g10"><g id="g12"><g xmlns="http://www.w3.org/2000/svg" clip-path="url(#clipPath16)" id="g14"><g id="g30"><path id="path20" style="fill:#eeeeee;fill-opacity:1;fill-rule:nonzero;stroke:none" d="m 18,5 h 14 c 2.209,0 4,1.791 4,4 v 9 H 18 Z"/><path id="path21" style="fill:#00afef;fill-opacity:1;fill-rule:nonzero;stroke:none" d="M 32,31 H 18 V 18 h 18 v 9 c 0,2.209 -1.791,4 -4,4"/><path id="path22" style="fill:#00afef;fill-opacity:1;fill-rule:nonzero;stroke:none" d="M 0,18 V 9 C 0,6.791 1.791,5 4,5 h 14 v 12.996 z"/><path id="path23" style="fill:#eeeeee;fill-opacity:1;fill-rule:nonzero;stroke:none" d="m 18,17.9961 v 13.004 H 4 c -2.209,0 -4,-1.791 -4,-4 v -9 z"/></g><g id="g32"><path id="path40" style="fill:#76c04e;fill-opacity:1;fill-rule:nonzero;stroke:none" d="m 21.1768,12.0703 c -0.666,0.54 0.041,1.424 0.041,1.424 0,0 0.1,-0.159 0.152,-0.288 0.054,-0.13 0.101,-0.3 0.101,-0.3 0,0 0.117,0.135 0.388,0.288 0.271,0.152 0.423,0.2 0.423,0.2 0,0 0.024,-0.342 -0.082,-0.612 -0.106,-0.271 -0.264,-0.405 -0.264,-0.405 0,0 0.2,-0.042 0.417,-0.154 0.218,-0.112 0.33,-0.206 0.33,-0.206 0,0 -0.788,-0.529 -1.506,0.053"/><path id="path41" style="fill:#76c04e;fill-opacity:1;fill-rule:nonzero;stroke:none" d="m 22.3525,15.0527 c 0,0 -0.288,-0.971 0.383,-1.206 0.671,-0.235 1.311,0.706 1.311,0.706 0,0 -0.111,0.047 -0.376,-0.006 -0.264,-0.053 -0.359,-0.116 -0.359,-0.116 0,0 0.035,0.181 0.041,0.351 0.006,0.171 -0.029,0.372 -0.029,0.372 0,0 -0.159,-0.101 -0.306,-0.247 -0.147,-0.148 -0.241,-0.295 -0.241,-0.295 0,0 -0.059,0.112 -0.171,0.235 -0.111,0.124 -0.253,0.206 -0.253,0.206"/><path id="path42" style="fill:#76c04e;fill-opacity:1;fill-rule:nonzero;stroke:none" d="m 22.8887,16.9766 c 0,0 0.097,-0.018 0.28,-0.1 0.184,-0.083 0.296,-0.235 0.296,-0.235 0,0 0.053,0.193 0.135,0.335 0.083,0.141 0.212,0.3 0.212,0.3 0,0 0.071,-0.212 0.106,-0.359 0.035,-0.147 0.059,-0.341 0.059,-0.341 0,0 0.123,0.118 0.276,0.2 0.154,0.082 0.253,0.088 0.253,0.088 0,0 -0.147,-1.035 -0.864,-0.952 -0.718,0.082 -0.753,1.064 -0.753,1.064"/><path id="path43" style="fill:#76c04e;fill-opacity:1;fill-rule:nonzero;stroke:none" d="m 22.9941,19.1001 c 0,0 0.142,-0.059 0.229,-0.106 0.088,-0.047 0.253,-0.206 0.253,-0.206 0,0 0.012,0.124 0.071,0.312 0.058,0.188 0.15,0.294 0.15,0.294 0,0 0.132,-0.135 0.203,-0.253 0.071,-0.118 0.123,-0.353 0.123,-0.353 0,0 0.053,0.165 0.159,0.303 0.106,0.138 0.212,0.227 0.212,0.227 0,0 0.412,-1.206 -0.524,-1.212 -0.935,-0.006 -0.876,0.994 -0.876,0.994"/><path id="path44" style="fill:#76c04e;fill-opacity:1;fill-rule:nonzero;stroke:none" d="m 22.2881,21.1763 c 0,0 0.112,0.006 0.265,-0.035 0.153,-0.041 0.264,-0.182 0.264,-0.182 0,0 0.053,0.117 0.072,0.247 0.017,0.129 0,0.311 0,0.311 0,0 0.123,-0.094 0.211,-0.176 0.088,-0.082 0.188,-0.229 0.188,-0.229 0,0 0.029,0.188 0.082,0.305 0.054,0.118 0.142,0.206 0.142,0.206 0,0 0.588,-0.994 -0.077,-1.259 -0.665,-0.264 -1.147,0.812 -1.147,0.812"/><path id="path45" style="fill:#76c04e;fill-opacity:1;fill-rule:nonzero;stroke:none" d="m 21.5684,22.9077 c 0,0 0.088,-0.019 0.165,-0.05 0.078,-0.031 0.155,-0.077 0.155,-0.077 0,0 -0.022,0.113 -0.026,0.271 -0.003,0.158 0.015,0.258 0.015,0.258 0,0 0.096,-0.047 0.207,-0.11 0.109,-0.063 0.239,-0.155 0.239,-0.155 0,0 0.017,0.13 0.049,0.263 0.03,0.133 0.075,0.231 0.075,0.231 0,0 0.658,-1.021 0.113,-1.311 -0.545,-0.291 -0.992,0.68 -0.992,0.68"/><path id="path46" style="fill:#76c04e;fill-opacity:1;fill-rule:nonzero;stroke:none" d="m 20.4277,24.4175 c 0,0 0.035,0.005 0.098,-0.004 0.063,-0.01 0.097,-0.025 0.097,-0.025 0,0 -0.045,0.106 -0.098,0.287 -0.054,0.18 -0.064,0.26 -0.064,0.26 0,0 0.1,-0.025 0.274,-0.102 0.174,-0.079 0.261,-0.137 0.261,-0.137 0,0 -0.012,0.058 -0.016,0.128 -0.003,0.07 0.005,0.111 0.005,0.111 0,0 0.782,-0.624 0.402,-0.988 -0.381,-0.365 -0.959,0.47 -0.959,0.47"/><path id="path47" style="fill:#ffdd21;fill-opacity:1;fill-rule:nonzero;stroke:none" d="m 13.543,22.0957 -0.219,0.12 c 0.39,0.712 0.741,1.081 0.756,1.096 l 0.181,-0.173 c -0.004,-0.003 -0.345,-0.363 -0.718,-1.043 m -0.667,-1.639 -0.24,0.069 c 0.122,0.429 0.277,0.845 0.459,1.236 l 0.226,-0.105 c -0.176,-0.379 -0.326,-0.783 -0.445,-1.2 m -0.303,-1.744 -0.249,0.018 c 0.032,0.442 0.095,0.88 0.189,1.303 l 0.244,-0.054 c -0.091,-0.411 -0.153,-0.838 -0.184,-1.267 m -0.214,-1.801 c -0.04,0.376 -0.061,0.753 -0.061,1.119 0,0.065 10e-4,0.13 0.002,0.194 l 0.25,-0.005 c -0.001,-0.063 -0.002,-0.126 -0.002,-0.189 0,-0.357 0.02,-0.724 0.06,-1.091 z m 0.359,-1.786 c -0.087,0.273 -0.159,0.559 -0.216,0.851 -0.028,0.146 -0.053,0.291 -0.076,0.432 l 0.247,0.04 c 0.022,-0.14 0.047,-0.281 0.075,-0.425 0.054,-0.282 0.125,-0.559 0.209,-0.822 z m 0.778,-1.651 c -0.238,0.366 -0.442,0.762 -0.607,1.174 l 0.233,0.092 c 0.158,-0.397 0.354,-0.777 0.584,-1.129 z m 1.192,-1.385 c -0.334,0.299 -0.636,0.625 -0.898,0.968 l 0.198,0.152 c 0.253,-0.331 0.544,-0.645 0.867,-0.934 z m 1.495,-1.048 c -0.395,0.217 -0.767,0.46 -1.104,0.723 l 0.153,0.197 c 0.327,-0.255 0.687,-0.49 1.071,-0.701 z m 1.674,-0.721 c -0.431,0.142 -0.842,0.307 -1.223,0.49 l 0.108,0.224 c 0.372,-0.177 0.773,-0.337 1.193,-0.476 z m 1.784,-0.406 c -0.022,0.002 -0.542,0.055 -1.298,0.262 l 0.066,0.24 c 0.736,-0.2 1.236,-0.252 1.257,-0.254 z"/><path id="path48" style="fill:#c0c2c8;fill-opacity:1;fill-rule:nonzero;stroke:none" d="m 12.5586,12.8408 0.45,-1.056 -0.953,-0.061 c 0,0 0.688,-0.555 1.338,-0.877 0.651,-0.321 1.145,-0.485 1.145,-0.485 l 2.079,-1.082 0.722,0.079 0.549,0.518 0.353,-0.55 0.595,-0.239 0.617,0.381 -0.667,1.062 c 0,0 1.054,-0.213 2.943,-0.213 1.541,0 3.406,0.906 3.406,0.906 l -1.383,0.111 0.736,1.101 c 0,0 -1.189,-0.912 -2.624,-1.012 -1.335,-0.094 -2.411,0.241 -2.411,0.241 l -0.636,-0.447 -0.222,-0.359 -0.278,0.459 -0.641,0.124 -0.824,-0.366 0.536,-0.323 -0.057,-0.562 -2.195,1.116 c 0,0 -0.505,0.181 -1.172,0.538 -0.76,0.406 -1.406,0.996 -1.406,0.996"/><path id="path49" style="fill:#ffdd21;fill-opacity:1;fill-rule:nonzero;stroke:none" d="m 22.2031,18 c 0,3.118 -1.882,5.646 -4.203,5.646 -2.321,0 -4.203,-2.528 -4.203,-5.646 0,-3.118 1.882,-5.646 4.203,-5.646 2.321,0 4.203,2.528 4.203,5.646"/><path id="path50" style="fill:#00afef;fill-opacity:1;fill-rule:nonzero;stroke:none" d="m 14.7085,15.373 c 0.662,-1.541 1.888,-2.576 3.292,-2.576 1.404,0 2.63,1.036 3.291,2.578 z"/><path id="path51" style="fill:#00a859;fill-opacity:1;fill-rule:nonzero;stroke:none" d="m 14.7085,15.373 c -0.331,0.771 -0.521,1.669 -0.521,2.627 h 7.625 c 0,-0.957 -0.189,-1.855 -0.521,-2.625 z"/><path id="path52" style="fill:#00afef;fill-opacity:1;fill-rule:nonzero;stroke:none" d="m 21.8125,18 c 0,2.874 -1.707,5.203 -3.813,5.203 -2.105,0 -3.812,-2.329 -3.812,-5.203 z"/><path id="path53" style="fill:#a93c40;fill-opacity:1;fill-rule:nonzero;stroke:none" d="m 21.8096,18 h -7.62 c 0,0.5 0.051,0.98 0.15,1.44 l 0.261,0.32 h 0.23 l 0.29,-0.63 h 0.81 l 0.4,1.41 0.219,0.32 0.17,-0.18 0.421,0.33 0.069,-0.28 0.17,0.28 0.23,0.19 0.18,0.43 -0.049,0.11 0.219,0.72 0.3,-0.31 -0.11,-0.7 0.261,-0.66 -0.151,-0.25 0.22,-0.17 0.07,-0.45 0.12,-0.04 0.05,0.26 0.34,0.32 0.511,1.46 0.569,0.39 c 1.011,-0.93 1.67,-2.52 1.67,-4.31"/><path id="path54" style="fill:#c0c2c8;fill-opacity:1;fill-rule:nonzero;stroke:none" d="m 18.1099,17.8901 -0.09,-0.05 -0.02,0.04 -0.15,-0.02 -0.06,0.14 0.14,0.18 -0.01,0.08 0.06,0.06 0.1,-0.08 -0.03,-0.12 0.09,-0.14 z m 2.48,2.55 -0.24,0.05 -1.51,-0.61 -0.25,-0.24 c 0,0 -0.19,0.02 -0.38,0.01 -0.2,-0.02 -0.33,-0.07 -0.33,-0.07 l -0.4,0.5 -0.96,0.16 -0.11,-0.1 -0.8,0.17 v -0.07 l -0.3,0.1 h -0.57 l 0.17,-0.22 0.17,-0.04 0.05,-0.19 0.29,-0.24 0.29,-0.06 0.35,0.05 0.38,-0.47 0.18,-0.02 0.03,-0.13 -0.48,-0.2 0.05,-0.03 -0.27,-0.17 0.23,-0.07 0.15,0.08 v -0.11 l 0.23,-0.03 0.29,0.12 0.08,-0.1 0.36,0.01 0.15,-0.1 0.05,-0.16 0.12,-0.14 0.1,-0.21 -0.11,-0.1 -0.22,0.02 -0.01,-0.14 1.21,0.02 -0.03,0.13 -0.29,-0.01 -0.01,0.09 0.11,0.13 0.01,0.17 0.13,0.23 0.1,0.09 0.07,0.19 0.29,0.11 0.29,-0.2 0.17,-0.05 0.07,-0.13 0.12,0.08 v 0.09 l -0.05,0.09 0.05,0.09 -0.169,0.26 0.219,0.05 v 0.1 h 0.09 l 0.27,0.29 -0.03,0.1 0.29,0.24 h 0.371 l 0.489,0.68 z"/><path id="path55" style="fill:#ffffff;fill-opacity:1;fill-rule:nonzero;stroke:none" d="m 20.0703,15.7236 c 0,1.144 -0.927,2.07 -2.07,2.07 -1.144,0 -2.071,-0.926 -2.071,-2.07 0,-1.144 0.927,-2.07 2.071,-2.07 1.143,0 2.07,0.926 2.07,2.07"/><path id="path56" style="fill:#c0c2c8;fill-opacity:1;fill-rule:nonzero;stroke:none" d="m 19.7734,15.7236 c 0,0.979 -0.794,1.773 -1.773,1.773 -0.98,0 -1.774,-0.794 -1.774,-1.773 0,-0.979 0.794,-1.773 1.774,-1.773 0.979,0 1.773,0.794 1.773,1.773"/><path id="path57" style="fill:#00afef;fill-opacity:1;fill-rule:nonzero;stroke:none" d="m 19.1914,15.7236 c 0,0.658 -0.533,1.191 -1.191,1.191 -0.658,0 -1.192,-0.533 -1.192,-1.191 0,-0.658 0.534,-1.191 1.192,-1.191 0.658,0 1.191,0.533 1.191,1.191"/><path id="path58" style="fill:#c0c2c8;fill-opacity:1;fill-rule:nonzero;stroke:none" d="m 19.1904,15.7197 c 0,-0.09 -0.011,-0.18 -0.03,-0.26 -0.34,0.13 -0.741,0.26 -1.1,0.26 -0.4,0 -0.85,-0.18 -1.19,-0.359 -0.04,0.109 -0.06,0.229 -0.06,0.359 0,0.04 0,0.08 0.009,0.12 0.361,0.17 0.81,0.33 1.241,0.33 0.359,0 0.76,-0.11 1.109,-0.24 0.01,-0.069 0.021,-0.14 0.021,-0.21"/><path id="path59" style="fill:#ffffff;fill-opacity:1;fill-rule:nonzero;stroke:none" d="m 18,16.7666 0.083,-0.143 0.162,-0.035 -0.11,-0.123 0.016,-0.164 -0.151,0.067 -0.151,-0.067 0.016,0.164 -0.11,0.123 0.162,0.035 z"/><path id="path60" style="fill:#c0c2c8;fill-opacity:1;fill-rule:nonzero;stroke:none" d="m 18,26.6372 0.415,-0.711 0.805,-0.175 -0.548,-0.615 0.082,-0.819 -0.754,0.331 -0.754,-0.331 0.083,0.819 -0.549,0.615 0.805,0.175 z"/></g></g></g></g></svg>