<svg xmlns:dc="http://purl.org/dc/elements/1.1/" xmlns:cc="http://creativecommons.org/ns#" xmlns:rdf="http://www.w3.org/1999/02/22-rdf-syntax-ns#" xmlns:svg="http://www.w3.org/2000/svg" xmlns="http://www.w3.org/2000/svg" viewBox="0 0 45 45" style="enable-background:new 0 0 45 45;" xml:space="preserve" version="1.1" id="svg2"><metadata id="metadata8"><rdf:RDF><cc:Work rdf:about=""><dc:format>image/svg+xml</dc:format><dc:type rdf:resource="http://purl.org/dc/dcmitype/StillImage"/></cc:Work></rdf:RDF></metadata><defs id="defs6"><clipPath id="clipPath16" clipPathUnits="userSpaceOnUse"><path id="path18" d="M 0,36 36,36 36,0 0,0 0,36 Z"/></clipPath></defs><g transform="matrix(1.25,0,0,-1.25,0,45)" id="g10"><g id="g12"><g xmlns="http://www.w3.org/2000/svg" clip-path="url(#clipPath16)" id="g14"><g id="g20"><path id="path22" style="fill:#eeeeee;fill-opacity:1;fill-rule:nonzero;stroke:none" d="M 0,9 C 0,6.791 1.791,5 4,5 h 28 c 2.209,0 4,1.791 4,4 v 2.353 H 0 Z"/></g><g id="g24"><path id="path26" style="fill:#141414;fill-opacity:1;fill-rule:nonzero;stroke:none" d="m 0,11.353 h 36 v 0.099 H 0 Z"/></g><g id="g28"><path id="path30" style="fill:#fbbb00;fill-opacity:1;fill-rule:nonzero;stroke:none" d="M 36,11.451 H 0 v 1.55 h 36 z"/></g><g id="g32"><path id="path34" style="fill:#141414;fill-opacity:1;fill-rule:nonzero;stroke:none" d="M 0,13.001 H 36 V 13.1 H 0 Z"/></g><g id="g36"><path id="path38" style="fill:#078930;fill-opacity:1;fill-rule:nonzero;stroke:none" d="M 0,27 V 13.1 H 36 V 27 c 0,2.209 -1.791,4 -4,4 H 4 C 1.791,31 0,29.209 0,27"/></g><g id="g40"><path id="path42" style="fill:#141414;fill-opacity:1;fill-rule:nonzero;stroke:none" d="m 29.0156,12.8682 0.161,-0.513 0.538,0.005 -0.438,-0.311 0.171,-0.51 -0.432,0.32 -0.432,-0.32 0.171,0.51 -0.437,0.311 0.537,-0.005 z"/></g><g id="g44"><path id="path46" style="fill:#141414;fill-opacity:1;fill-rule:nonzero;stroke:none" d="m 12.2515,21.853 c -0.17,0 -0.483,0.047 -0.483,0.047 0,0 -0.284,-0.112 -0.437,-0.151 -0.153,-0.039 -0.872,-0.12 -0.872,-0.12 L 8.5055,21.1 v -0.136 c 0,0 0.051,-0.051 0.062,-0.084 0.011,-0.033 -0.025,-0.452 -0.025,-0.452 l 0.747,-1.208 h 0.901 c 0,0 0.467,-0.03 0.467,-0.44 0,-0.2 -0.058,-0.366 -0.16,-0.568 -0.135,-0.262 -0.255,-0.525 -0.255,-0.525 l 0.518,-0.806 c 0,0 1.001,0.846 1.363,2.239 0.345,1.329 0.128,2.733 0.128,2.733 m -1.872,0.384 c 0.339,0.012 1.088,0.047 1.088,0.047 0,0 0.384,0.108 0.476,0.141 0.093,0.033 0.308,0.142 0.308,0.142 0,0 0.026,1.315 -0.922,2.609 -0.665,0.909 -2.194,1.744 -2.194,1.744 l -0.542,-4.859 c 0,0 1.447,0.166 1.786,0.176 m -2.061,-1.893 c -0.144,0 -0.348,0.004 -0.348,0.004 0,0 -0.069,-0.179 -0.238,-0.413 -0.108,-0.151 -0.315,-0.468 -0.315,-0.646 0,-0.119 0.101,-0.169 0.101,-0.169 l 1.527,0.055 z m -0.084,0.743 c -0.17,0 -0.4,0.01 -0.4,0.01 l 0.026,-0.15 c 0,0 0.321,0.067 0.374,0.067 z m -5.002,-6.4 c -0.072,0.07 0.02,0.277 0.02,0.277 0,0 0.046,0.045 0.129,0.158 0.103,0.141 0.245,0.366 0.4,0.582 0.249,0.35 0.406,0.312 0.406,0.312 0,0 0.12,-0.041 0.33,-0.041 0.353,0 0.915,0.173 1.245,0.173 0.33,0 0.416,-0.051 0.416,-0.051 0,0 0.257,0.054 0.257,0.259 0,0.232 -0.269,0.539 -0.555,0.809 -0.666,0.631 -0.67,0.465 -0.773,0.768 -0.141,0.414 0.439,1.363 0.439,1.712 0,0.1 -0.013,0.166 -0.177,0.183 -0.223,0.021 -0.783,-0.046 -0.783,0.203 0,0.206 0.312,0.556 0.588,0.868 0.203,0.231 0.391,0.468 0.391,0.468 0,0 0.117,0.277 0.263,0.453 0.14,0.171 0.289,0.185 0.289,0.185 0,0 0.081,0.099 0.272,0.215 0.175,0.107 0.32,0.238 0.32,0.347 0,0.058 -0.037,0.095 -0.086,0.17 -0.093,0.145 -0.229,0.393 -0.229,0.656 0,0.354 0.298,0.72 0.874,0.72 0.498,0 0.756,-0.29 0.756,-0.618 0,-0.487 -0.523,-1.027 -0.523,-1.027 0,0 -0.139,-0.396 0.171,-0.472 0.312,-0.077 0.661,0.023 0.661,0.023 l 0.655,5.204 c 0,0 0.318,-0.203 0.767,-0.486 0.433,-0.273 1.021,-0.662 1.521,-1.196 1.1,-1.176 1.269,-2.694 1.269,-2.694 0,0 0.104,-0.024 0.163,-0.071 0.057,-0.047 0.051,-0.146 0.051,-0.146 l 1.087,0.312 -0.245,0.197 1.013,-0.056 -0.822,-0.628 0.115,0.276 -1.114,-0.362 c 0,0 0.022,-0.239 -0.017,-0.343 -0.039,-0.103 -0.09,-0.118 -0.09,-0.118 0,0 -0.061,-0.782 -0.113,-1.342 -0.058,-0.629 -0.117,-1.075 -0.308,-1.69 -0.404,-1.304 -1.565,-2.269 -1.565,-2.269 l -0.596,0.857 -0.646,-0.774 c 0,0 -0.133,-0.179 -0.133,-0.321 0,-0.203 0.256,-0.262 0.574,-0.406 0.252,-0.115 0.305,-0.332 0.305,-0.332 0,0 -0.025,-0.017 -0.128,-0.017 -0.184,0 -0.844,0.156 -1.133,0.156 -0.289,0 -0.458,0.079 -0.458,0.228 0,0.128 0.083,0.26 0.083,0.26 0,0 0.156,0.138 0.21,0.353 0.058,0.227 0.103,0.329 0.103,0.329 0,0 0.017,0.249 0.172,0.542 0.073,0.14 0.154,0.266 0.226,0.384 0.081,0.132 0.149,0.246 0.149,0.246 0,0 -0.387,0.031 -1.07,-0.16 -0.299,-0.084 -0.55,-0.182 -0.719,-0.246 -0.217,-0.082 -0.308,-0.119 -0.308,-0.119 0,0 0.373,-1.019 0.373,-1.559 0,-0.6 -0.434,-0.714 -1.434,-0.748 -0.361,-0.012 -0.728,-0.011 -0.98,0.001 -0.397,0.02 -0.533,0.027 -0.704,0.027 -0.216,0 -0.44,-0.086 -0.584,-0.187 -0.198,-0.139 -0.298,-0.304 -0.298,-0.304 0,0 -0.386,-0.213 -0.472,-0.13"/></g><g id="g48"><path id="path50" style="fill:#141414;fill-opacity:1;fill-rule:nonzero;stroke:none" d="m 23.6611,25.5938 c 0,0 -0.2,-0.044 -0.33,-0.208 -0.073,-0.092 -0.179,-0.301 -0.204,-0.369 -0.026,-0.068 -0.249,-0.826 -0.249,-0.826 0,0 0.081,-0.231 0.278,-0.241 0.197,-0.009 0.414,0.094 0.414,0.094 0,0 0.336,0.448 0.652,0.448 0.163,0 0.318,-0.114 0.447,-0.243 0.133,-0.133 0.261,-0.216 0.261,-0.216 0,0 -0.108,-0.152 -0.319,-0.392 -0.133,-0.151 -0.511,-0.506 -0.767,-0.81 -0.214,-0.252 -0.308,-0.446 -0.308,-0.446 0,0 -0.075,-0.28 0.079,-0.36 0.127,-0.065 0.289,0.006 0.289,0.006 0,0 -0.026,0.08 -0.026,0.154 0,0.136 0.118,0.286 0.281,0.41 0.138,0.105 0.206,0.213 0.206,0.213 0,0 0.439,0.418 0.585,0.553 0.146,0.135 0.278,0.244 0.278,0.244 0,0 0.081,-0.164 0.162,-0.277 0.082,-0.112 0.172,-0.169 0.172,-0.169 0,0 0.006,-0.077 -0.12,-0.19 -0.291,-0.261 -0.475,-0.357 -0.516,-0.399 -0.041,-0.042 -0.365,-0.258 -0.51,-0.359 -0.312,-0.216 -0.46,-0.348 -0.46,-0.55 0,-0.362 0.422,-0.32 0.422,-0.32 0,0 -0.042,0.16 0.072,0.34 0.177,0.28 0.745,0.458 1.178,0.788 0.248,0.189 0.643,0.489 0.88,0.934 0.2,0.376 0.2,0.722 0.2,0.722 0,0 0.125,-0.088 0.401,-0.088 0.344,0 0.722,0.234 1.181,0.675 0.401,0.386 0.702,0.557 0.702,0.557 0,0 0.273,-0.092 0.615,-0.092 0.146,0 0.4,0.04 0.634,0.115 0.319,0.102 0.631,0.183 0.631,0.183 0,0 0.805,-0.086 1.308,-0.49 0.425,-0.343 0.431,-0.78 0.431,-0.78 0,0 0.028,-0.038 0.081,-0.038 0.076,0 0.133,0.063 0.188,0.126 0.068,0.079 0.11,0.128 0.11,0.128 0,0 -0.225,0.465 -0.727,0.93 -0.503,0.466 -1.073,0.735 -1.073,0.735 0,0 0.235,0.022 0.539,0.081 0.305,0.06 0.401,0.1 0.401,0.1 0,0 0.198,-0.054 0.471,-0.214 0.311,-0.181 0.693,-0.468 0.799,-0.468 0.082,0 0.129,0.102 0.139,0.19 0.018,0.158 -0.031,0.169 -0.031,0.169 0,0 -0.318,0.048 -0.614,0.254 -0.196,0.136 -0.364,0.29 -0.49,0.401 -0.128,0.112 -0.212,0.182 -0.212,0.182 l -0.976,-0.109 c 0,0 -0.173,0.023 -0.261,0.142 -0.036,0.049 -0.02,0.152 -0.008,0.22 0.012,0.071 0.006,0.113 0.006,0.113 0,0 0.445,0.164 0.784,0.408 0.339,0.244 0.602,0.589 0.602,0.589 0,0 0.137,0.324 0.486,0.614 0.121,0.102 0.269,0.199 0.399,0.294 0.14,0.1 0.26,0.193 0.26,0.193 0,0 -0.036,0.105 -0.138,0.105 -0.089,0 -0.322,-0.128 -0.599,-0.357 -0.229,-0.188 -0.507,-0.477 -0.708,-0.761 -0.112,-0.159 -0.372,-0.395 -0.534,-0.499 -0.314,-0.201 -0.55,-0.217 -0.55,-0.217 0,0 -0.264,0.033 -0.496,0.065 -0.167,0.024 -0.274,0.052 -0.469,0.052 -0.357,0 -0.721,-0.173 -1.034,-0.495 -0.618,-0.632 -1.029,-0.682 -1.029,-0.682 0,0 -0.245,-0.034 -0.613,-0.034 -0.367,0 -0.793,-0.015 -1.171,-0.138 -0.388,-0.126 -0.787,-0.432 -1.001,-0.667 -0.052,-0.057 -0.077,-0.075 -0.178,-0.075 -0.162,0 -0.384,0.049 -0.618,0.088 -0.241,0.04 -0.39,0.006 -0.39,0.006 l -0.186,0.432 z"/></g></g></g></g></svg>