<svg xmlns="http://www.w3.org/2000/svg" viewBox="0 0 45 45" enable-background="new 0 0 45 45"><defs><clipPath id="a"><path d="M0 36h36V0H0v36z"/></clipPath></defs><g><g><g clip-path="url(#a)" transform="matrix(1.25 0 0 -1.25 0 45)"><g><path fill="#553788" d="M30.12 19.5c-3.35-3.33-7.68-2.9-10.6 0-2.93 2.94-3.35 7.27 0 10.62 3.34 3.35 9.84 3.8 12.1 1.52 2.3-2.28 1.85-8.78-1.5-12.13"/></g><g><path fill="#553788" d="M16.5 5.88c-3.36-3.35-9.86-3.8-12.13-1.5-2.28 2.26-1.84 8.76 1.5 12.1 3.36 3.35 7.7 2.93 10.62 0 2.9-2.92 3.33-7.25 0-10.6"/></g><g><path fill="#553788" d="M19.5 5.88c-3.33 3.35-2.9 7.68.02 10.6 2.92 2.93 7.25 3.35 10.6 0 3.35-3.34 3.8-9.84 1.5-12.1-2.26-2.3-8.76-1.85-12.1 1.5"/></g><g><path fill="#553788" d="M5.88 19.5c-3.35 3.36-3.8 9.86-1.5 12.13 2.26 2.28 8.76 1.84 12.1-1.5 3.35-3.36 2.93-7.7 0-10.62-2.92-2.9-7.25-3.33-10.6 0"/></g><g><path fill="#55acee" d="M27 11c-4.42 0-7 3.13-7 7s2.58 7 7 7 9-4 9-7-4.58-7-9-7"/></g><g><path fill="#55acee" d="M9 11c-4.42 0-9 4-9 7s4.58 7 9 7 7-3.13 7-7-2.58-7-7-7"/></g><g><path fill="#55acee" d="M11 9c0 4.42 3.13 7 7 7s7-2.58 7-7-4-9-7-9-7 4.58-7 9"/></g><g><path fill="#55acee" d="M11 27c0 4.42 4 9 7 9s7-4.58 7-9-3.13-7-7-7-7 2.58-7 7"/></g><g><path fill="#88c9f9" d="M23.66 12.34c-3.13-3.12-8.2-3.12-11.32 0-3.12 3.13-3.12 8.2 0 11.32 3.13 3.12 8.2 3.12 11.32 0 3.12-3.13 3.12-8.2 0-11.32"/></g><g><path fill="#bbddf5" d="M21.66 14.34c-2.02-2.02-5.3-2.02-7.32 0-2.02 2.02-2.02 5.3 0 7.32 2.02 2.02 5.3 2.02 7.32 0 2.02-2.02 2.02-5.3 0-7.32"/></g></g></g></g></svg>