<svg xmlns:dc="http://purl.org/dc/elements/1.1/" xmlns:cc="http://creativecommons.org/ns#" xmlns:rdf="http://www.w3.org/1999/02/22-rdf-syntax-ns#" xmlns:svg="http://www.w3.org/2000/svg" xmlns="http://www.w3.org/2000/svg" viewBox="0 0 45 45" style="enable-background:new 0 0 45 45;" xml:space="preserve" version="1.1" id="svg2"><metadata id="metadata8"><rdf:RDF><cc:Work rdf:about=""><dc:format>image/svg+xml</dc:format><dc:type rdf:resource="http://purl.org/dc/dcmitype/StillImage"/></cc:Work></rdf:RDF></metadata><defs id="defs6"><clipPath id="clipPath16" clipPathUnits="userSpaceOnUse"><path id="path18" d="M 4,31 C 1.791,31 0,29.209 0,27 L 0,27 0,9 C 0,6.791 1.791,5 4,5 l 0,0 28,0 c 2.209,0 4,1.791 4,4 l 0,0 0,18 c 0,2.209 -1.791,4 -4,4 l 0,0 -28,0 z"/></clipPath><clipPath id="clipPath28" clipPathUnits="userSpaceOnUse"><path id="path30" d="M 0,36 36,36 36,0 0,0 0,36 Z"/></clipPath></defs><g xmlns="http://www.w3.org/2000/svg" transform="matrix(1.25,0,0,-1.25,0,45)" id="g10"><path id="path20" style="fill:#75aadb" d="m 36,13.4502 v -4.45 c 0,-2.209 -1.791,-4 -4,-4 H 4 c -2.209,0 -4,1.791 -4,4 v 4.45 z"/><path id="path22" style="fill:#eeeeee" d="M 36,13.45 H 0 v 9.1 h 36 z"/><path id="path24" style="fill:#75aadb" d="m 0,22.5498 v 4.45 c 0,2.209 1.791,4 4,4 h 28 c 2.209,0 4,-1.791 4,-4 v -4.45 z"/><path id="path26" style="fill:#75aadb" d="M 0,22.5498 8.781,17.9998 0,13.4498 Z"/><g id="g20"><path id="path30" style="fill:#fcbf49" d="m 18.5498,20.4502 c 0.013,-0.013 0.013,-0.013 0,-0.025 l 0.825,-0.2 v -0.025 l -0.85,0.137 c 0.013,-0.012 0.013,-0.012 0,-0.025 l 0.775,-0.35 -0.013,-0.025 -0.787,0.3 c 0,-0.012 0,-0.012 -0.012,-0.025 l 0.687,-0.5 -0.013,-0.012 -0.724,0.45 c 0,-0.012 -0.013,-0.025 -0.013,-0.038 l 0.575,-0.612 -0.013,-0.013 -0.612,0.575 c -0.012,0 -0.025,-0.012 -0.037,-0.012 l 0.45,-0.725 -0.013,-0.013 -0.5,0.688 c -0.012,-0.013 -0.012,-0.013 -0.025,-0.013 l 0.3,-0.787 -0.025,-0.013 -0.35,0.775 c -0.012,-0.012 -0.012,-0.012 -0.025,0 l 0.138,-0.85 h -0.025 l -0.2,0.825 c -0.013,-0.012 -0.013,-0.012 -0.025,0 l -0.025,-0.85 h -0.025 l -0.025,0.85 c -0.013,-0.012 -0.013,-0.012 -0.025,0 l -0.2,-0.825 h -0.025 l 0.137,0.85 c -0.012,-0.012 -0.012,-0.012 -0.025,0 l -0.35,-0.775 -0.025,0.013 0.3,0.787 c -0.012,0 -0.012,0 -0.025,0.013 l -0.5,-0.688 -0.012,0.013 0.45,0.725 c -0.013,0 -0.025,0.012 -0.038,0.012 l -0.612,-0.575 -0.013,0.013 0.575,0.612 c 0,0.013 -0.012,0.026 -0.012,0.038 l -0.725,-0.45 -0.013,0.012 0.688,0.5 c -0.013,0.013 -0.013,0.013 -0.013,0.025 l -0.787,-0.3 -0.013,0.025 0.775,0.35 c -0.012,0.013 -0.012,0.013 0,0.025 l -0.85,-0.137 v 0.025 l 0.825,0.2 c -0.012,0.012 -0.012,0.012 0,0.025 l -0.85,0.025 v 0.025 l 0.85,0.025 c -0.012,0.012 -0.012,0.012 0,0.025 l -0.825,0.2 v 0.025 l 0.85,-0.138 c -0.012,0.013 -0.012,0.013 0,0.025 l -0.775,0.35 0.013,0.025 0.787,-0.3 c 0,0.013 0,0.013 0.013,0.025 l -0.688,0.5 0.013,0.013 0.725,-0.45 c 0,0.012 0.012,0.025 0.012,0.037 l -0.575,0.613 0.013,0.012 0.612,-0.575 c 0.013,0 0.025,0.013 0.038,0.013 l -0.45,0.725 0.012,0.012 0.5,-0.687 c 0.013,0.012 0.013,0.012 0.025,0.012 l -0.3,0.788 0.025,0.012 0.35,-0.775 c 0.013,0.013 0.013,0.013 0.025,0 l -0.137,0.85 h 0.025 l 0.2,-0.825 c 0.012,0.013 0.012,0.013 0.025,0 l 0.025,0.85 h 0.025 l 0.025,-0.85 c 0.012,0.013 0.012,0.013 0.025,0 l 0.2,0.825 h 0.025 l -0.138,-0.85 c 0.013,0.013 0.013,0.013 0.025,0 l 0.35,0.775 0.025,-0.012 -0.3,-0.788 c 0.013,0 0.013,0 0.025,-0.012 l 0.5,0.687 0.013,-0.012 -0.45,-0.725 c 0.012,0 0.025,-0.013 0.037,-0.013 l 0.612,0.575 0.013,-0.012 -0.575,-0.613 c 0,-0.012 0.013,-0.025 0.013,-0.037 l 0.724,0.45 0.013,-0.013 -0.687,-0.5 c 0.012,-0.012 0.012,-0.012 0.012,-0.025 l 0.787,0.3 0.013,-0.025 -0.775,-0.35 c 0.013,-0.012 0.013,-0.012 0,-0.025 l 0.85,0.138 v -0.025 l -0.825,-0.2 c 0.013,-0.013 0.013,-0.013 0,-0.025 l 0.851,-0.025 v -0.025 z"/><path id="path32" style="fill:#ffffff" d="m 20.0879,17.5498 c 0,-1.475 -0.937,-2.662 -2.088,-2.662 -1.15,0 -2.087,1.187 -2.087,2.662 0,0.038 0,0.075 0.012,0.113 h 4.15 c 0.013,-0.038 0.013,-0.075 0.013,-0.113"/><path id="path34" style="fill:#75aadb" d="m 20.0752,17.6626 h -4.15 c 0.037,1.425 0.95,2.55 2.075,2.55 1.125,0 2.037,-1.125 2.075,-2.55"/><path id="path36" style="fill:#da251d" d="m 17.3887,18.748 c 0,0 -0.019,-0.097 0.436,-0.211 0.63,-0.158 0.63,-0.019 0.63,-0.019 0,0 0.03,0.179 0.03,0.275 0,0.096 -0.018,0.096 -0.018,0.096 0,0 0.043,0.13 0.035,0.289 -0.002,0.049 -0.033,0.105 -0.033,0.105 0,0 0.01,0.084 -0.006,0.162 -0.015,0.078 -0.06,0.096 -0.06,0.096 0,0 0.017,0.068 -0.035,0.144 -0.037,0.053 -0.094,0.063 -0.094,0.063 0,0 -0.018,0.037 -0.061,0.066 -0.043,0.03 -0.072,0.041 -0.09,0.041 -0.017,0 -0.17,-0.005 -0.214,-0.025 -0.027,-0.012 -0.135,-0.07 -0.211,-0.119 -0.052,-0.033 -0.084,-0.065 -0.084,-0.065 0,0 -0.112,-0.003 -0.112,-0.066 0,-0.068 0.042,-0.103 0.102,-0.103 0.088,0 0.092,0.048 0.092,0.048 l 0.039,-0.004 c 0,0 -0.049,-0.083 -0.108,-0.201 -0.058,-0.118 -0.105,-0.228 -0.105,-0.228 0,0 -0.037,0.006 -0.072,-0.102 -0.071,-0.211 -0.061,-0.242 -0.061,-0.242"/><path id="path38" style="fill:#8f5444" d="m 18.0249,18.7749 v -1.3 h -0.175 v 1.338 c 0.025,0 0.063,0 0.1,-0.013 0.025,0 0.05,-0.012 0.075,-0.025"/><path id="path40" style="fill:#ef9ba0" d="m 19.9746,16.6875 c -0.074,-0.275 -0.187,-0.537 -0.337,-0.763 -0.05,0.026 -0.15,0.101 -0.325,0.238 -0.275,0.213 -0.362,0.275 -0.487,0.363 -0.125,0.1 -0.226,0.187 -0.226,0.187 h -0.062 c -0.038,0.012 -0.063,0.025 -0.063,0.025 0,0 -0.012,-0.025 -0.037,-0.025 -0.025,0 -0.05,0.025 -0.05,0.025 0,0 0.012,-0.037 -0.013,-0.063 -0.025,-0.024 -0.075,-0.012 -0.075,-0.012 0,0 -0.012,-0.025 -0.062,-0.05 -0.05,-0.025 -0.088,-0.013 -0.088,-0.013 0,0 0,-0.037 -0.1,-0.037 -0.099,0 -0.137,0.025 -0.137,0.025 0,0 -0.013,-0.038 -0.087,-0.038 -0.063,0 -0.076,0.076 -0.076,0.076 0,0 -0.012,-0.063 -0.062,-0.05 -0.063,0.012 -0.063,0.062 -0.063,0.062 0,0 -0.025,-0.038 -0.087,-0.012 -0.05,0.012 -0.05,0.062 -0.05,0.062 0,0 -0.075,-0.088 -0.113,0 -0.025,0.088 0.025,0.112 0.025,0.112 0,0 -0.05,0.026 -0.187,-0.037 -0.137,-0.062 -0.188,-0.137 -0.5,-0.275 -0.188,-0.087 -0.375,-0.212 -0.488,-0.3 -0.137,0.263 -0.225,0.55 -0.274,0.85 0.112,0.038 0.262,0.075 0.437,0.112 0.15,0.025 0.3,0.1 0.475,0.125 0.112,0.025 0.2,0.013 0.287,0.038 0.063,0.013 0.138,0.038 0.225,0.062 0.125,0.025 0.25,0.025 0.25,0.025 0,0 0.113,0.063 0.225,0.113 0.101,0.063 0.188,0.125 0.275,0.125 0.088,0 0.125,-0.025 0.263,-0.138 0.125,-0.112 0.137,-0.1 0.387,-0.287 0.125,-0.088 0.563,-0.3 0.813,-0.375 0.15,-0.05 0.287,-0.113 0.387,-0.15"/><path id="path42" style="fill:#a36e2d" d="m 17.854,15.166 v 0.779 h -0.233 v 0.246 h 0.233 V 16.4 h 0.254 v -0.209 h 0.234 v -0.246 h -0.234 v -0.779 z"/><path id="path44" style="fill:#ff0000" d="m 18.2266,14.9551 0.152,0.197 -0.015,0.041 0.101,0.188 0.012,0.07 -0.092,-0.088 -0.045,-0.129 0.012,0.248 0.02,0.08 -0.083,-0.078 -0.009,-0.076 0.019,-0.07 -0.062,-0.004 -0.018,-0.065 -0.054,0.01 v 0.035 l 0.109,0.248 -0.09,-0.099 -0.072,-0.125 0.074,0.195 0.012,0.133 -0.086,-0.176 -0.1,-0.146 -0.033,0.074 -0.029,-0.002 -0.024,-0.045 -0.039,-0.021 -0.021,0.05 0.013,0.073 -0.048,-0.024 -0.043,-0.053 0.021,0.151 -0.047,0.129 0.02,0.097 -0.045,-0.068 -0.024,-0.119 0.026,-0.222 -0.037,0.066 -0.02,0.093 -0.023,0.034 -0.014,-0.096 0.029,-0.137 0.096,-0.223 -0.045,0.04 -0.06,0.091 -0.045,0.03 0.082,-0.2 0.046,-0.029 0.051,-0.014 0.002,-0.046 0.03,-0.026 0.217,-0.023 z"/><path id="path46" style="fill:#ffff00" d="m 18.127,15.0254 0.039,0.084 -0.049,-0.057 v 0.098 l -0.021,-0.074 h -0.02 v -0.022 l -0.027,0.004 0.039,0.092 -0.051,-0.063 0.029,0.1 -0.066,-0.107 -0.016,0.026 -0.031,-0.024 v 0.037 l -0.031,-0.022 0.008,0.069 -0.02,0.015 0.004,0.045 -0.019,-0.049 0.003,-0.09 -0.029,0.063 0.01,-0.074 0.037,-0.084 -0.053,0.053 0.032,-0.071 0.027,-0.011 0.01,-0.024 0.142,-0.004 0.057,0.072 z"/><path id="path48" style="fill:#00923f" d="m 17.541,14.3457 c -0.05,-0.051 -0.074,-0.11 -0.076,-0.178 0.313,0.078 0.59,0.192 0.846,0.326 -0.271,-0.075 -0.532,-0.131 -0.77,-0.148 m -0.125,6.185 c 0,0 0.565,-0.236 0.585,-0.162 0.02,0.075 -0.585,0.162 -0.585,0.162 m 0.585,-0.162 c 0,0 -0.296,-0.023 -0.235,-0.131 0.062,-0.107 0.235,0.131 0.235,0.131 m -0.552,0.017 c 0,0 -0.185,-0.024 -0.128,-0.098 0.056,-0.072 0.128,0.098 0.128,0.098 m -0.01,-0.235 c 0,0 -0.174,0.068 -0.16,-0.023 0.013,-0.091 0.16,0.023 0.16,0.023 m -0.27,-0.124 c 0,0 -0.175,0.064 -0.159,-0.027 0.017,-0.091 0.159,0.027 0.159,0.027 m -0.23,-0.158 c 0,0 -0.175,0.064 -0.159,-0.026 0.016,-0.091 0.159,0.026 0.159,0.026 m -0.156,-0.119 c 0,0 -0.178,0.057 -0.159,-0.033 0.02,-0.09 0.159,0.033 0.159,0.033 m -0.161,-0.14 c 0,0 -0.174,0.067 -0.16,-0.024 0.015,-0.091 0.16,0.024 0.16,0.024 m -0.934,-3.133 c 0,0 0.034,-0.185 0.104,-0.123 0.07,0.06 -0.104,0.123 -0.104,0.123 m 1.343,3.758 c 0,0 -0.261,-0.143 -0.161,-0.216 0.1,-0.072 0.161,0.216 0.161,0.216 m -0.344,-0.134 c 0,0 -0.186,-0.232 -0.065,-0.261 0.121,-0.029 0.065,0.261 0.065,0.261 m -0.314,-0.109 c 0,0 -0.152,-0.255 -0.029,-0.268 0.123,-0.011 0.029,0.268 0.029,0.268 m 0.081,-0.484 c 0,0 -0.293,-0.053 -0.221,-0.154 0.072,-0.1 0.221,0.154 0.221,0.154 m -0.239,0.195 c 0,0 -0.183,-0.235 -0.062,-0.262 0.12,-0.027 0.062,0.262 0.062,0.262 m -0.202,0 c 0,0 -0.159,-0.252 -0.036,-0.267 0.123,-0.015 0.036,0.267 0.036,0.267 m 0.131,-0.839 c 0,0 -0.282,-0.096 -0.196,-0.185 0.086,-0.089 0.196,0.185 0.196,0.185 m -0.067,-0.19 c 0,0 -0.283,-0.092 -0.198,-0.182 0.084,-0.091 0.198,0.182 0.198,0.182 m -0.606,-0.431 c 0,0 -0.048,-0.293 0.071,-0.26 0.12,0.034 -0.071,0.26 -0.071,0.26 m 0.487,-0.07 c 0,0 -0.268,-0.132 -0.171,-0.209 0.097,-0.077 0.171,0.209 0.171,0.209 m -0.07,-0.269 c 0,0 -0.247,-0.165 -0.141,-0.229 0.106,-0.064 0.141,0.229 0.141,0.229 m 0.015,-0.231 c 0,0 -0.223,-0.197 -0.11,-0.246 0.114,-0.049 0.11,0.246 0.11,0.246 m -0.614,-0.31 c 0,0 0.092,-0.283 0.182,-0.198 0.091,0.085 -0.182,0.198 -0.182,0.198 m 0.685,-0.671 c 0,0 -0.116,-0.275 0.007,-0.27 0.124,0.006 -0.007,0.27 -0.007,0.27 m 0.146,-0.389 c 0,0 -0.134,-0.266 -0.01,-0.27 0.124,-0.002 0.01,0.27 0.01,0.27 m -0.257,-0.445 c 0,0 0.169,-0.245 0.231,-0.138 0.062,0.106 -0.231,0.138 -0.231,0.138 m 0.463,0.058 c 0,0 -0.066,-0.29 0.055,-0.262 0.121,0.026 -0.055,0.262 -0.055,0.262 m 0.268,-0.383 c 0,0 -0.106,-0.278 0.017,-0.268 0.124,0.01 -0.017,0.268 -0.017,0.268 m -0.314,-0.438 c 0,0 0.22,-0.199 0.257,-0.081 0.035,0.119 -0.257,0.081 -0.257,0.081 m 0.608,0.115 c 0,0 0.005,-0.298 0.116,-0.243 0.111,0.055 -0.116,0.243 -0.116,0.243 m 0.432,-0.25 c 0,0 0.049,-0.293 0.151,-0.222 0.102,0.07 -0.151,0.222 -0.151,0.222 m -0.258,-0.348 c 0,0 0.245,-0.17 0.266,-0.048 0.02,0.122 -0.266,0.048 -0.266,0.048 m -0.794,4.648 c 0,0 -0.458,-0.219 -0.342,-0.335 0.117,-0.118 0.342,0.335 0.342,0.335 m -0.422,0.104 c 0,0 -0.218,-0.459 -0.054,-0.476 0.165,-0.017 0.054,0.476 0.054,0.476 m -0.375,-0.559 c 0,0 -0.025,-0.507 0.133,-0.459 0.158,0.046 -0.133,0.459 -0.133,0.459 m -0.198,-0.75 c 0,0 0.023,-0.507 0.176,-0.445 0.153,0.062 -0.176,0.445 -0.176,0.445 m -0.045,-1.092 c 0,0 0.365,-0.353 0.434,-0.203 0.069,0.15 -0.434,0.203 -0.434,0.203 m 0.725,0.149 c 0,0 -0.236,-0.45 -0.072,-0.474 0.163,-0.023 0.072,0.474 0.072,0.474 m -0.293,-0.809 c 0,0 0.297,-0.412 0.391,-0.276 0.094,0.135 -0.391,0.276 -0.391,0.276 m 0.44,-0.846 c 0,0 0.258,-0.436 0.364,-0.309 0.106,0.127 -0.364,0.309 -0.364,0.309 m 0.308,-0.609 c 0,0 0.468,-0.197 0.478,-0.033 0.009,0.165 -0.478,0.033 -0.478,0.033 m 0.62,0.275 c 0,0 0.15,-0.485 0.282,-0.386 0.133,0.098 -0.282,0.386 -0.282,0.386 m 0.661,-0.629 c 0.256,-0.134 0.533,-0.248 0.846,-0.326 -0.002,0.068 -0.026,0.127 -0.076,0.178 -0.238,0.017 -0.499,0.073 -0.77,0.148 m 0.31,5.875 c 0.02,-0.074 0.584,0.162 0.584,0.162 0,0 -0.605,-0.087 -0.584,-0.162 m 0.235,-0.131 c 0.061,0.108 -0.235,0.131 -0.235,0.131 0,0 0.173,-0.238 0.235,-0.131 m 0.445,0.05 c 0.057,0.074 -0.128,0.098 -0.128,0.098 0,0 0.072,-0.17 0.128,-0.098 m 0.042,-0.16 c 0.014,0.091 -0.16,0.023 -0.16,0.023 0,0 0.147,-0.114 0.16,-0.023 m 0.269,-0.128 c 0.016,0.091 -0.159,0.027 -0.159,0.027 0,0 0.142,-0.118 0.159,-0.027 m 0.231,-0.157 c 0.015,0.09 -0.16,0.026 -0.16,0.026 0,0 0.143,-0.117 0.16,-0.026 m 0.154,-0.126 c 0.02,0.09 -0.157,0.033 -0.157,0.033 0,0 0.138,-0.123 0.157,-0.033 m 0.162,-0.131 c 0.015,0.091 -0.159,0.024 -0.159,0.024 0,0 0.145,-0.115 0.159,-0.024 m 0.671,-3.232 c 0.07,-0.062 0.104,0.123 0.104,0.123 0,0 -0.174,-0.063 -0.104,-0.123 m -1.078,3.665 c 0.1,0.073 -0.161,0.216 -0.161,0.216 0,0 0.06,-0.288 0.161,-0.216 m 0.248,-0.179 c 0.12,0.029 -0.066,0.261 -0.066,0.261 0,0 -0.054,-0.29 0.066,-0.261 m 0.278,-0.116 c 0.123,0.013 -0.029,0.268 -0.029,0.268 0,0 -0.094,-0.279 0.029,-0.268 m 0.111,-0.37 c 0.072,0.101 -0.221,0.154 -0.221,0.154 0,0 0.149,-0.254 0.221,-0.154 m 0.081,0.087 c 0.12,0.027 -0.063,0.262 -0.063,0.262 0,0 -0.058,-0.289 0.063,-0.262 m 0.174,-0.005 c 0.123,0.015 -0.035,0.267 -0.035,0.267 0,0 -0.087,-0.282 0.035,-0.267 m 0.03,-0.757 c 0.086,0.089 -0.196,0.185 -0.196,0.185 0,0 0.11,-0.274 0.196,-0.185 m 0.069,-0.187 c 0.085,0.09 -0.198,0.182 -0.198,0.182 0,0 0.113,-0.273 0.198,-0.182 m 0.336,-0.509 c 0.119,-0.033 0.071,0.26 0.071,0.26 0,0 -0.189,-0.226 -0.071,-0.26 m -0.244,-0.019 c 0.097,0.077 -0.171,0.209 -0.171,0.209 0,0 0.074,-0.286 0.171,-0.209 m 0.041,-0.289 c 0.105,0.064 -0.143,0.229 -0.143,0.229 0,0 0.036,-0.293 0.143,-0.229 m -0.047,-0.248 c 0.113,0.049 -0.11,0.246 -0.11,0.246 0,0 -0.004,-0.295 0.11,-0.246 m 0.322,-0.262 c 0.09,-0.085 0.182,0.198 0.182,0.198 0,0 -0.273,-0.113 -0.182,-0.198 m -0.51,-0.743 c 0.123,-0.005 0.007,0.27 0.007,0.27 0,0 -0.131,-0.264 -0.007,-0.27 m -0.129,-0.389 c 0.124,0.004 -0.01,0.27 -0.01,0.27 0,0 -0.113,-0.272 0.01,-0.27 m 0.016,-0.313 c 0.063,-0.107 0.232,0.138 0.232,0.138 0,0 -0.294,-0.032 -0.232,-0.138 m -0.287,-0.066 c 0.121,-0.028 0.055,0.262 0.055,0.262 0,0 -0.176,-0.236 -0.055,-0.262 m -0.23,-0.389 c 0.123,-0.01 0.017,0.268 0.017,0.268 0,0 -0.141,-0.258 -0.017,-0.268 m 0.075,-0.251 c 0.035,-0.118 0.257,0.081 0.257,0.081 0,0 -0.293,0.038 -0.257,-0.081 m -0.468,-0.047 c 0.111,-0.055 0.116,0.243 0.116,0.243 0,0 -0.227,-0.188 -0.116,-0.243 m -0.467,-0.229 c 0.102,-0.071 0.151,0.222 0.151,0.222 0,0 -0.253,-0.152 -0.151,-0.222 m 0.143,-0.174 c 0.021,-0.122 0.265,0.048 0.265,0.048 0,0 -0.285,0.074 -0.265,-0.048 m 1.401,4.361 c 0.117,0.116 -0.341,0.335 -0.341,0.335 0,0 0.225,-0.453 0.341,-0.335 m 0.135,-0.037 c 0.164,0.017 -0.054,0.476 -0.054,0.476 0,0 -0.111,-0.493 0.054,-0.476 m 0.187,-0.542 c 0.159,-0.048 0.134,0.459 0.134,0.459 0,0 -0.292,-0.413 -0.134,-0.459 m 0.156,-0.736 c 0.153,-0.062 0.176,0.445 0.176,0.445 0,0 -0.33,-0.383 -0.176,-0.445 m -0.213,-0.85 c 0.069,-0.15 0.433,0.203 0.433,0.203 0,0 -0.501,-0.053 -0.433,-0.203 m -0.219,-0.122 c 0.163,0.024 -0.072,0.474 -0.072,0.474 0,0 -0.091,-0.497 0.072,-0.474 m -0.17,-0.611 c 0.095,-0.136 0.391,0.276 0.391,0.276 0,0 -0.486,-0.141 -0.391,-0.276 m -0.414,-0.879 c 0.107,-0.127 0.365,0.309 0.365,0.309 0,0 -0.47,-0.182 -0.365,-0.309 m -0.421,-0.333 c 0.01,-0.164 0.478,0.033 0.478,0.033 0,0 -0.488,0.132 -0.478,-0.033 m -0.142,0.308 c 0,0 -0.15,-0.485 -0.282,-0.386 -0.133,0.098 0.282,0.386 0.282,0.386"/><path id="path50" style="fill:#ffffff" d="m 17.7686,14.6592 c 0.032,-0.056 0.125,-0.16 0.231,-0.265 0.108,0.105 0.2,0.21 0.232,0.265 -0.032,0 -0.067,-0.005 -0.094,-0.009 -0.087,-0.012 -0.188,-0.012 -0.274,0 -0.028,0.003 -0.073,0.013 -0.095,0.009 m 0.335,-0.598 c -0.026,0.06 -0.064,0.134 -0.075,0.149 -0.003,0.003 -0.016,0.008 -0.029,0.012 -0.012,-0.004 -0.025,-0.01 -0.03,-0.013 -0.01,-0.014 -0.046,-0.088 -0.073,-0.148 l -0.131,0.06 c 0.019,0.043 0.067,0.145 0.094,0.181 0.005,0.004 0.01,0.009 0.015,0.013 -0.319,0.314 -0.27,0.386 -0.245,0.422 0.056,0.081 0.161,0.069 0.252,0.056 0.075,-0.01 0.162,-0.01 0.237,0 0.092,0.013 0.195,0.025 0.252,-0.056 0.025,-0.036 0.074,-0.108 -0.245,-0.421 0.005,-0.005 0.01,-0.01 0.014,-0.014 0.028,-0.036 0.076,-0.138 0.095,-0.181 z"/></g><path id="path52" style="fill:#000000" d="m 25.6572,14.0293 -0.002,0.192 0.782,0.505 -0.787,-0.01 -0.003,0.194 1.112,0.013 0.002,-0.194 -0.787,-0.507 0.791,0.01 0.003,-0.191 z m 0.58,1.297 c 0.122,0.018 0.212,0.056 0.27,0.11 0.058,0.056 0.082,0.126 0.068,0.211 -0.012,0.082 -0.054,0.142 -0.126,0.179 -0.07,0.037 -0.166,0.047 -0.284,0.03 l -0.064,-0.009 c -0.121,-0.017 -0.21,-0.054 -0.269,-0.112 -0.059,-0.058 -0.082,-0.127 -0.07,-0.21 0.012,-0.085 0.055,-0.144 0.126,-0.182 0.071,-0.035 0.168,-0.043 0.291,-0.025 z m -0.028,-0.199 c -0.109,-0.017 -0.205,-0.012 -0.291,0.013 -0.087,0.026 -0.158,0.069 -0.212,0.133 -0.054,0.062 -0.088,0.139 -0.1,0.228 -0.013,0.089 -0.004,0.173 0.03,0.248 0.032,0.077 0.087,0.139 0.162,0.189 0.074,0.05 0.165,0.083 0.269,0.099 l 0.063,0.01 c 0.106,0.015 0.204,0.01 0.292,-0.015 0.088,-0.025 0.158,-0.071 0.212,-0.133 0.053,-0.062 0.086,-0.14 0.1,-0.228 0.014,-0.091 0.004,-0.172 -0.029,-0.248 -0.033,-0.076 -0.087,-0.138 -0.161,-0.188 -0.076,-0.05 -0.167,-0.083 -0.274,-0.099 z m -0.701,0.993 -0.047,0.186 1.079,0.268 0.046,-0.187 z m 0.26,0.473 c -0.114,-0.027 -0.217,-0.017 -0.305,0.035 -0.086,0.048 -0.151,0.134 -0.194,0.255 -0.028,0.083 -0.034,0.163 -0.017,0.24 0.018,0.078 0.057,0.147 0.119,0.207 0.06,0.059 0.139,0.107 0.235,0.142 l 0.098,0.034 c 0.099,0.035 0.191,0.047 0.279,0.039 0.088,-0.009 0.163,-0.039 0.228,-0.091 0.062,-0.051 0.11,-0.12 0.139,-0.206 0.04,-0.115 0.042,-0.22 0.004,-0.312 -0.039,-0.093 -0.113,-0.165 -0.223,-0.216 l -0.064,0.182 c 0.072,0.034 0.12,0.075 0.141,0.123 0.02,0.046 0.019,0.104 -0.004,0.172 -0.028,0.08 -0.078,0.13 -0.151,0.153 -0.073,0.022 -0.165,0.014 -0.278,-0.024 l -0.092,-0.032 c -0.114,-0.04 -0.193,-0.09 -0.24,-0.152 -0.045,-0.061 -0.053,-0.131 -0.026,-0.209 0.024,-0.072 0.059,-0.12 0.103,-0.145 0.046,-0.025 0.107,-0.029 0.186,-0.012 z m 0.314,1.332 -0.664,-0.332 c -0.106,-0.052 -0.206,-0.06 -0.301,-0.023 -0.096,0.036 -0.173,0.11 -0.228,0.224 -0.057,0.113 -0.072,0.218 -0.044,0.316 0.028,0.097 0.094,0.172 0.204,0.226 l 0.662,0.332 0.086,-0.173 -0.663,-0.331 c -0.068,-0.033 -0.109,-0.075 -0.127,-0.126 -0.019,-0.051 -0.011,-0.11 0.022,-0.176 0.066,-0.132 0.168,-0.164 0.309,-0.094 l 0.658,0.329 z m -0.607,0.898 -0.191,0.289 -0.796,-0.529 -0.106,0.159 0.796,0.529 -0.191,0.286 0.13,0.086 0.488,-0.733 z m -1.36,0.29 -0.119,0.15 0.87,0.691 0.12,-0.151 z m 0.512,0.901 -0.239,0.252 -0.694,-0.656 -0.13,0.139 0.694,0.656 -0.237,0.25 0.114,0.106 0.605,-0.64 z m -1.32,0.375 c 0.033,0.038 0.043,0.078 0.034,0.12 -0.009,0.042 -0.039,0.103 -0.092,0.181 -0.052,0.078 -0.087,0.146 -0.107,0.205 -0.036,0.114 -0.021,0.21 0.043,0.289 0.058,0.068 0.133,0.102 0.226,0.099 0.095,-0.002 0.184,-0.04 0.274,-0.115 0.059,-0.049 0.104,-0.104 0.131,-0.165 0.029,-0.061 0.039,-0.122 0.032,-0.184 -0.007,-0.063 -0.03,-0.119 -0.072,-0.168 l -0.147,0.123 c 0.036,0.044 0.05,0.09 0.045,0.138 -0.008,0.049 -0.038,0.095 -0.089,0.138 -0.049,0.04 -0.095,0.062 -0.138,0.063 -0.045,0.001 -0.082,-0.016 -0.113,-0.053 -0.027,-0.031 -0.033,-0.069 -0.022,-0.114 0.011,-0.044 0.043,-0.105 0.093,-0.18 0.05,-0.075 0.084,-0.142 0.104,-0.2 0.018,-0.059 0.024,-0.113 0.016,-0.161 -0.009,-0.048 -0.031,-0.094 -0.067,-0.138 -0.06,-0.071 -0.135,-0.105 -0.224,-0.102 -0.09,0.004 -0.181,0.045 -0.274,0.122 -0.062,0.052 -0.109,0.111 -0.142,0.177 -0.033,0.065 -0.047,0.131 -0.042,0.195 0.005,0.064 0.029,0.123 0.075,0.177 l 0.148,-0.124 c -0.04,-0.049 -0.057,-0.1 -0.046,-0.152 0.01,-0.054 0.045,-0.105 0.104,-0.156 0.051,-0.042 0.099,-0.064 0.143,-0.065 0.043,-0.001 0.079,0.016 0.107,0.05 m -0.771,0.266 -0.163,0.103 0.006,0.931 -0.424,-0.664 -0.162,0.104 0.596,0.936 0.163,-0.103 -0.006,-0.935 0.425,0.667 0.162,-0.103 z m -0.82,1.169 c 0.051,0.112 0.069,0.208 0.054,0.287 -0.014,0.079 -0.06,0.136 -0.138,0.171 -0.077,0.036 -0.148,0.033 -0.219,-0.007 -0.069,-0.039 -0.131,-0.113 -0.181,-0.221 l -0.027,-0.059 c -0.051,-0.111 -0.069,-0.206 -0.053,-0.287 0.016,-0.08 0.061,-0.137 0.138,-0.173 0.078,-0.036 0.151,-0.034 0.22,0.006 0.069,0.04 0.13,0.117 0.181,0.231 z m 0.151,-0.133 c -0.045,-0.099 -0.103,-0.178 -0.171,-0.237 -0.068,-0.059 -0.143,-0.093 -0.226,-0.104 -0.082,-0.011 -0.164,0.002 -0.247,0.041 -0.081,0.037 -0.145,0.091 -0.191,0.16 -0.045,0.069 -0.068,0.149 -0.069,0.239 -0.002,0.091 0.02,0.184 0.064,0.28 l 0.026,0.057 c 0.044,0.099 0.102,0.177 0.171,0.237 0.071,0.059 0.146,0.094 0.228,0.105 0.083,0.011 0.165,-0.002 0.247,-0.041 0.082,-0.037 0.146,-0.09 0.191,-0.159 0.045,-0.07 0.069,-0.149 0.07,-0.239 0,-0.09 -0.023,-0.185 -0.068,-0.283 z m -1.055,0.288 c -0.045,-0.11 -0.115,-0.185 -0.206,-0.226 -0.093,-0.041 -0.2,-0.043 -0.321,-0.006 -0.084,0.027 -0.152,0.069 -0.205,0.129 -0.051,0.061 -0.084,0.132 -0.097,0.217 -0.012,0.084 -0.003,0.176 0.025,0.274 l 0.031,0.1 c 0.031,0.1 0.076,0.183 0.135,0.248 0.058,0.065 0.129,0.108 0.207,0.129 0.079,0.021 0.162,0.018 0.25,-0.008 0.117,-0.036 0.201,-0.098 0.252,-0.183 0.052,-0.085 0.066,-0.188 0.043,-0.308 l -0.184,0.057 c 0.014,0.079 0.01,0.141 -0.017,0.186 -0.025,0.045 -0.071,0.077 -0.141,0.099 -0.08,0.025 -0.152,0.014 -0.212,-0.032 -0.062,-0.044 -0.109,-0.124 -0.146,-0.237 l -0.028,-0.094 c -0.035,-0.115 -0.042,-0.209 -0.02,-0.282 0.023,-0.073 0.074,-0.121 0.154,-0.146 0.071,-0.022 0.131,-0.023 0.178,-0.002 0.046,0.022 0.086,0.07 0.119,0.142 z m -1.376,0.402 -0.395,0.062 0.022,0.147 0.397,-0.061 z m -1.552,0.684 -0.012,-0.8 0.126,-0.002 c 0.101,-0.001 0.18,0.029 0.234,0.092 0.056,0.062 0.085,0.152 0.088,0.271 v 0.061 c 0.002,0.12 -0.023,0.213 -0.074,0.278 -0.051,0.064 -0.127,0.096 -0.227,0.098 z m -0.207,-0.953 0.016,1.111 0.328,-0.005 c 0.098,-10e-4 0.185,-0.024 0.261,-0.069 0.075,-0.045 0.133,-0.108 0.174,-0.189 0.04,-0.081 0.059,-0.173 0.058,-0.277 l -10e-4,-0.055 c -0.001,-0.106 -0.024,-0.198 -0.067,-0.278 -0.043,-0.078 -0.104,-0.139 -0.182,-0.181 -0.078,-0.043 -0.167,-0.063 -0.267,-0.061 z m -0.82,0.331 0.32,0.037 -0.214,0.44 z m 0.392,-0.111 -0.428,-0.05 -0.059,-0.267 -0.2,-0.023 0.288,1.152 0.173,0.02 0.546,-1.055 -0.201,-0.023 z m -0.834,0.596 -0.337,-0.08 0.22,-0.929 -0.187,-0.044 -0.22,0.929 -0.334,-0.078 -0.035,0.151 0.857,0.203 z m -1.419,-0.795 0.186,0.067 c 0.062,0.023 0.104,0.055 0.127,0.099 0.023,0.043 0.025,0.092 0.006,0.145 -0.02,0.056 -0.052,0.094 -0.095,0.113 -0.042,0.018 -0.096,0.017 -0.159,-0.005 l -0.192,-0.069 z m 0.255,-0.073 -0.202,-0.073 0.146,-0.402 -0.182,-0.066 -0.378,1.044 0.367,0.133 c 0.12,0.044 0.223,0.051 0.308,0.021 0.085,-0.031 0.146,-0.097 0.183,-0.199 0.026,-0.071 0.031,-0.135 0.014,-0.195 -0.017,-0.059 -0.051,-0.112 -0.102,-0.159 l 0.393,-0.35 0.003,-0.009 -0.194,-0.071 z m -0.669,-0.194 -0.408,-0.204 0.152,-0.305 0.477,0.239 0.07,-0.139 -0.65,-0.325 -0.497,0.993 0.645,0.323 0.07,-0.139 -0.472,-0.237 0.137,-0.274 0.407,0.205 z m -1.253,-0.71 0.189,-0.289 0.18,0.118 c 0.05,0.033 0.081,0.071 0.093,0.115 0.012,0.044 0.004,0.088 -0.025,0.132 -0.063,0.097 -0.145,0.113 -0.244,0.051 z m -0.078,0.119 0.158,0.104 c 0.05,0.033 0.082,0.07 0.096,0.111 0.013,0.041 0.006,0.083 -0.022,0.124 -0.03,0.047 -0.065,0.071 -0.104,0.074 -0.04,0.004 -0.087,-0.013 -0.142,-0.049 l -0.157,-0.103 z m 0.191,-0.644 -0.609,0.929 0.318,0.209 c 0.105,0.069 0.199,0.1 0.281,0.094 0.083,-0.006 0.152,-0.051 0.206,-0.134 0.028,-0.043 0.041,-0.089 0.041,-0.138 -10e-4,-0.049 -0.017,-0.097 -0.049,-0.145 0.059,0.02 0.115,0.02 0.167,0 0.052,-0.02 0.096,-0.056 0.13,-0.109 0.057,-0.087 0.073,-0.173 0.048,-0.256 -0.025,-0.083 -0.09,-0.159 -0.194,-0.228 z m -0.18,-0.145 -0.15,-0.119 -0.691,0.87 0.151,0.12 z m -0.719,-0.414 0.368,0.345 0.106,-0.115 -0.51,-0.475 -0.757,0.812 0.141,0.132 z m -0.723,-0.405 -0.253,-0.31 -0.117,0.094 0.254,0.31 z m -0.877,-1.255 0.165,0.276 -0.478,0.1 z m 0.327,0.242 -0.221,-0.368 0.174,-0.211 -0.103,-0.171 -0.735,0.931 0.088,0.149 1.169,-0.212 -0.104,-0.173 z m -0.181,-0.87 -0.083,-0.173 -1.002,0.479 0.083,0.173 z m -0.914,-0.671 0.069,0.186 c 0.023,0.061 0.026,0.114 0.008,0.16 -0.018,0.046 -0.054,0.079 -0.107,0.099 -0.056,0.021 -0.105,0.021 -0.147,0 -0.043,-0.02 -0.076,-0.061 -0.1,-0.124 l -0.072,-0.191 z m 0.222,0.147 -0.076,-0.201 0.4,-0.149 -0.067,-0.182 -1.041,0.389 0.137,0.366 c 0.045,0.12 0.106,0.202 0.184,0.248 0.078,0.045 0.169,0.048 0.271,0.01 0.07,-0.025 0.121,-0.064 0.156,-0.115 0.034,-0.052 0.053,-0.112 0.056,-0.181 l 0.52,0.072 0.01,-0.004 -0.073,-0.193 z m -0.716,-0.442 -0.081,-0.337 0.929,-0.222 -0.044,-0.187 -0.93,0.224 -0.08,-0.335 -0.151,0.037 0.206,0.857 z m 0.243,-1.612 0.039,0.319 -0.477,-0.103 z m 0.2,0.353 -0.052,-0.426 0.245,-0.122 -0.024,-0.199 -1.051,0.553 0.02,0.173 1.155,0.28 -0.025,-0.2 z m -0.347,-1.25 0.003,0.233 c 10e-4,0.068 -0.015,0.12 -0.046,0.157 -0.032,0.037 -0.078,0.055 -0.139,0.057 -0.061,0.001 -0.109,-0.018 -0.145,-0.055 -0.037,-0.035 -0.056,-0.085 -0.058,-0.15 l -0.003,-0.237 z m 0.156,-0.002 0.411,-0.005 -0.002,-0.194 -1.111,0.016 0.006,0.425 c 0.002,0.123 0.035,0.222 0.101,0.294 0.066,0.072 0.152,0.108 0.258,0.106 0.109,-0.002 0.193,-0.039 0.252,-0.111 0.06,-0.072 0.09,-0.172 0.088,-0.301 z"/></g></svg>