<svg xmlns:dc="http://purl.org/dc/elements/1.1/" xmlns:cc="http://creativecommons.org/ns#" xmlns:rdf="http://www.w3.org/1999/02/22-rdf-syntax-ns#" xmlns:svg="http://www.w3.org/2000/svg" xmlns="http://www.w3.org/2000/svg" viewBox="0 0 45 45" style="enable-background:new 0 0 45 45;" xml:space="preserve" version="1.1" id="svg2"><metadata id="metadata8"><rdf:RDF><cc:Work rdf:about=""><dc:format>image/svg+xml</dc:format><dc:type rdf:resource="http://purl.org/dc/dcmitype/StillImage"/></cc:Work></rdf:RDF></metadata><defs id="defs6"><clipPath id="clipPath16" clipPathUnits="userSpaceOnUse"><path id="path18" d="M 0,36 36,36 36,0 0,0 0,36 Z"/></clipPath></defs><g transform="matrix(1.25,0,0,-1.25,0,45)" id="g10"><g id="g12"><g xmlns="http://www.w3.org/2000/svg" clip-path="url(#clipPath16)" id="g14"><path id="path20" style="fill:#2b5df2;fill-opacity:1;fill-rule:nonzero;stroke:none" d="M 32,31 4,31 C 1.791,31 0,29.209 0,27 l 0,-9 36,0 0,9 c 0,2.209 -1.791,4 -4,4"/><path id="path24" style="fill:#fcef3c;fill-opacity:1;fill-rule:nonzero;stroke:none" d="M 0,9 C 0,6.791 1.791,5 4,5 l 28,0 c 2.209,0 4,1.791 4,4 l 0,9 -36,0 0,-9 z"/><g id="g30"><path id="path30" style="fill:#fcef3c;fill-opacity:1;fill-rule:nonzero;stroke:none" d="m 17.1577,16.0332 c 0,4.16 -2.682,7.533 -5.991,7.533 -3.309,0 -5.991,-3.373 -5.991,-7.533 0,-4.16 2.682,-7.533 5.991,-7.533 3.309,0 5.991,3.373 5.991,7.533"/><path id="path34" style="fill:#2b5df2;fill-opacity:1;fill-rule:nonzero;stroke:none" d="m 16.0835,16.3438 c 0,3.273 -2.202,5.927 -4.917,5.927 -2.715,0 -4.916,-2.654 -4.916,-5.927 0,-3.273 2.201,-5.927 4.916,-5.927 2.715,0 4.917,2.654 4.917,5.927"/><path id="path38" style="fill:#5ab532;fill-opacity:1;fill-rule:nonzero;stroke:none" d="m 14.0879,11.5752 c -0.817,-0.728 -1.827,-1.158 -2.921,-1.158 -1.066,0 -2.053,0.408 -2.858,1.103 0,0 0.262,1.384 0.85,1.384 0.588,0 0.926,-1.702 0.926,-1.702 0,0 0.219,1.6 1.082,1.6 0.862,0 1.011,-1.695 1.011,-1.695 0,0 0.299,1.718 0.996,1.718 0.699,0 0.914,-1.25 0.914,-1.25"/><path id="path42" style="fill:#e20909;fill-opacity:1;fill-rule:nonzero;stroke:none" d="m 11.7178,19.894 c 0,0 -0.087,0.208 -0.585,0.25 -0.521,0.044 -0.489,0.471 -0.4,0.532 0.177,0.125 0.214,-0.144 0.302,-0.238 0.137,-0.145 0.383,-0.141 0.568,-0.223 0.191,-0.086 0.271,-0.156 0.271,-0.156 l -0.156,-0.165 z"/><path id="path46" style="fill:#fcef3c;fill-opacity:1;fill-rule:nonzero;stroke:none" d="m 12.9766,17.5767 c -0.087,-0.172 0.006,-0.494 0.138,-0.78 0.187,-0.406 0.124,-0.582 0.124,-0.582 0,0 0.209,0.209 0.182,0.671 -0.027,0.461 -0.115,0.882 -0.115,0.882 0,0 -0.244,-0.022 -0.329,-0.191 m -2.934,-2.857 c -0.005,0.079 0.01,0.178 0.073,0.357 0.137,0.392 0.684,0.667 0.864,0.982 0.148,0.261 0.191,0.5 0.018,0.669 -0.172,0.169 -0.411,0.51 -0.411,0.51 l -0.2,-0.043 0.219,0.423 c 0,0 -0.583,-0.134 -1.712,0 -1.586,0.188 -1.313,0.992 -1.313,0.992 0,0 -0.062,0.383 0.163,0.643 0.176,0.204 0.404,0.224 0.404,0.224 l 0,0.231 -0.144,0 c -0.026,-0.039 -0.07,-0.066 -0.121,-0.066 -0.08,0 -0.144,0.065 -0.144,0.145 0,0.08 0.064,0.144 0.144,0.144 0.052,0 0.096,-0.022 0.121,-0.064 l 0.144,0 0,0.164 c -0.04,0.025 -0.066,0.07 -0.066,0.121 0,0.079 0.065,0.144 0.145,0.144 0.08,0 0.145,-0.065 0.145,-0.144 0,-0.053 -0.024,-0.096 -0.065,-0.121 l 0,-0.164 0.143,0 c 0.026,0.039 0.07,0.065 0.121,0.065 0.08,0 0.145,-0.064 0.145,-0.144 0,-0.08 -0.065,-0.145 -0.145,-0.145 -0.052,0 -0.095,0.023 -0.121,0.065 l -0.143,0 0,-0.231 c 0,0 0.226,-0.021 0.403,-0.224 0.355,-0.405 0.08,-0.811 0.08,-0.811 0,0 0.049,-0.067 0.058,-0.15 0.008,-0.082 -0.022,-0.192 -0.022,-0.192 0,0 0.283,-0.05 0.724,-0.011 0.442,0.038 0.589,0.238 0.589,0.238 l -0.456,0.135 0.518,0.182 -0.277,-0.017 0.112,0.176 -0.601,1.065 c 0,0 -0.164,-0.029 -0.405,0.083 -0.241,0.111 -0.156,0.345 -0.156,0.345 0,0 0.032,0.251 -0.032,0.443 -0.065,0.191 -0.23,0.311 -0.23,0.311 0,0 0.356,0.059 0.456,-0.038 0.1,-0.097 0.006,-0.206 0.006,-0.206 0,0 0.212,-0.221 0.266,0.065 0.026,0.142 -0.181,0.25 -0.181,0.25 0,0 0.023,0.028 0.068,0.056 0.045,0.028 0.119,0.024 0.119,0.024 0,0 -0.052,0.243 0.115,0.243 0.167,0 0.116,-0.243 0.116,-0.243 0,0 0.073,0.004 0.119,-0.024 0.045,-0.028 0.068,-0.056 0.068,-0.056 0,0 -0.207,-0.108 -0.181,-0.25 0.054,-0.286 0.266,-0.065 0.266,-0.065 0,0 -0.094,0.109 0.005,0.206 0.101,0.097 0.456,0.038 0.456,0.038 0,0 -0.164,-0.12 -0.229,-0.311 -0.036,-0.106 -0.042,-0.231 -0.04,-0.321 0,0 0.124,0.006 0.124,-0.174 0,-0.179 -0.182,-0.353 -0.182,-0.353 l 0.702,-0.932 c 0,0 0.063,0.169 0.48,0.28 0.632,0.167 0.394,0.429 0.394,0.429 0,0 -0.397,0.006 -0.456,0.056 -0.059,0.05 0.012,0.176 0.012,0.176 0,0 0.135,0.003 0.374,-0.017 0.238,-0.021 0.356,0.079 0.356,0.335 0,0.435 -0.622,0.305 -0.665,0.359 -0.033,0.041 -0.036,0.303 0,0.353 0.035,0.05 0.403,-0.012 0.403,-0.012 0,0 0.006,0.098 0.149,0.18 0.143,0.083 0.3,0.016 0.3,0.016 0,0 -0.024,0.137 0.135,0.182 0.159,0.046 0.237,-0.082 0.237,-0.082 0,0 0.202,0.116 0.334,-0.069 0.081,-0.113 -0.1,-0.329 -0.1,-0.329 0,0 0.115,-0.043 0.215,-0.235 0.101,-0.192 0.04,-0.298 0.04,-0.298 0,0 0.139,-0.165 0.074,-0.649 -0.065,-0.485 -0.133,-0.989 -0.133,-0.989 l -0.149,0.145 c 0,0 0.107,-0.248 -0.1,-0.505 -0.207,-0.258 -0.257,-0.412 -0.257,-0.412 0,0 -0.022,0.006 -0.057,0.114 -0.035,0.108 -0.027,0.145 -0.027,0.145 l -0.241,-0.451 -0.071,0.157 -0.098,-0.318 -0.202,0.229 c 0,0 -0.166,-0.381 0.282,-0.682 0.466,-0.314 0.466,-0.749 0.466,-0.749 0,0 0.562,-0.538 0.65,-0.092 0.059,0.298 -0.396,0.814 -0.294,1.353 0.071,0.376 0.517,0.455 0.517,0.455 0,0 -0.219,0.535 0.102,0.957 0.29,0.38 0.883,0.011 0.883,0.011 0,0 0.431,0.11 0.549,-0.423 0.117,-0.534 -0.028,-0.875 -0.028,-0.875 0,0 0.007,0.158 -0.404,0.357 -0.486,0.235 -0.294,0.816 -0.294,0.816 0,0 -0.404,0.223 -0.576,-0.087 -0.173,-0.309 -0.039,-0.745 -0.039,-0.745 0,0 0.201,0.005 0.399,-0.13 0.196,-0.135 0.27,-0.285 0.27,-0.285 0,0 0.365,-0.027 0.453,-0.482 0.088,-0.456 0.109,-0.765 0.109,-0.765 0,0 -0.115,0.092 -0.429,0.274 -0.604,0.346 -0.297,0.881 -0.297,0.881 0,0 -0.075,0.104 -0.212,0.18 -0.138,0.075 -0.23,0.062 -0.23,0.062 0,0 -0.009,-0.209 0.103,-0.759 0.112,-0.55 -0.044,-0.823 -0.291,-1.073 -0.247,-0.25 -0.886,-0.024 -0.886,-0.024 0,0 0.042,-0.342 0.421,-0.703 0.38,-0.362 0.942,-0.34 0.942,-0.34 0,0 0.044,-0.863 -0.011,-1.381 -0.055,-0.517 -0.126,-0.667 -0.279,-0.741 -0.153,-0.074 -0.866,-0.008 -0.866,-0.008 0,0 -0.079,0.275 0.086,0.416 0.165,0.141 0.388,-0.004 0.467,0.133 0.078,0.138 -0.063,0.895 -0.094,0.934 l -0.295,-0.373 -0.058,0.283 -0.138,-0.358 -0.117,0.358 -0.208,-0.514 -0.071,0.557 -0.333,-0.208 0.108,0.733 c -0.288,0.277 -0.388,0.865 -0.388,0.865 0,0 -0.343,-0.196 -0.518,-0.553 -0.283,-0.576 0.1,-0.841 0.1,-0.841 0,0 -0.071,-0.06 -0.204,0 -0.133,0.059 -0.173,0.216 -0.173,0.216 l -0.6,-1.455 c 0,0 -0.188,-0.29 -0.682,-0.306 -0.494,-0.017 -0.831,0.102 -0.831,0.102 0,0 -0.079,0.344 0.105,0.439 0.185,0.094 0.741,-0.067 0.891,0.039 0.061,0.043 0.147,0.207 0.225,0.403 l -0.347,0.052 0.431,0.267 -0.702,-0.051 0.648,0.333 -0.416,0.07 0.388,0.142 -0.161,0.113 0.288,0.173 z"/></g><g id="g34"><path id="path50" style="fill:#fcef3c;fill-opacity:1;fill-rule:nonzero;stroke:none" d="m 5.2944,25.0869 c 0.096,0.107 0.145,0.159 0.243,0.261 0.079,0.081 0.12,0.159 0.12,0.24 0.002,0.081 -0.027,0.153 -0.087,0.217 -0.059,0.063 -0.13,0.096 -0.214,0.097 -0.083,10e-4 -0.168,-0.041 -0.253,-0.128 -0.107,-0.11 -0.16,-0.166 -0.263,-0.282 0.182,-0.162 0.273,-0.243 0.454,-0.405 m -0.311,0.804 c 0.137,0.14 0.277,0.213 0.413,0.221 0.137,0.008 0.251,-0.044 0.344,-0.149 0.095,-0.107 0.133,-0.226 0.119,-0.355 -0.013,-0.129 -0.081,-0.252 -0.203,-0.376 -0.096,-0.1 -0.144,-0.151 -0.237,-0.256 0.138,-0.124 0.208,-0.186 0.346,-0.31 0.055,0.044 0.083,0.066 0.139,0.108 0.04,-0.038 0.06,-0.056 0.099,-0.094 -0.147,-0.158 -0.219,-0.241 -0.357,-0.413 -0.043,0.034 -0.064,0.051 -0.107,0.085 0.035,0.062 0.052,0.093 0.088,0.155 -0.379,0.319 -0.569,0.479 -0.948,0.798 -0.062,-0.055 -0.093,-0.083 -0.155,-0.14 -0.042,0.034 -0.064,0.051 -0.107,0.086 0.053,0.065 0.08,0.098 0.134,0.162 0.167,0.199 0.254,0.295 0.432,0.478"/><path id="path54" style="fill:#fcef3c;fill-opacity:1;fill-rule:nonzero;stroke:none" d="m 6.5786,25.23 c -0.036,0.042 -0.053,0.062 -0.088,0.104 0.043,0.053 0.065,0.079 0.109,0.131 -0.312,0.386 -0.468,0.578 -0.78,0.964 -0.069,-0.041 -0.103,-0.061 -0.172,-0.104 -0.035,0.042 -0.053,0.063 -0.089,0.105 0.421,0.359 0.644,0.519 1.105,0.8 0.079,-0.13 0.118,-0.194 0.197,-0.324 -0.067,-0.04 -0.1,-0.061 -0.166,-0.103 -0.052,0.067 -0.078,0.1 -0.13,0.167 -0.229,-0.148 -0.341,-0.226 -0.559,-0.394 0.123,-0.162 0.185,-0.243 0.309,-0.405 0.2,0.153 0.302,0.226 0.511,0.361 0.036,-0.056 0.054,-0.085 0.091,-0.141 -0.204,-0.132 -0.305,-0.203 -0.5,-0.353 0.137,-0.179 0.205,-0.268 0.342,-0.448 0.191,0.147 0.289,0.216 0.488,0.344 -0.04,0.074 -0.06,0.111 -0.1,0.186 0.059,0.038 0.089,0.056 0.148,0.092 0.078,-0.128 0.117,-0.193 0.196,-0.322 -0.381,-0.231 -0.565,-0.363 -0.912,-0.66"/><path id="path58" style="fill:#fcef3c;fill-opacity:1;fill-rule:nonzero;stroke:none" d="m 8.1636,27.4541 c -0.062,-0.024 -0.094,-0.037 -0.156,-0.062 -0.05,0.076 -0.075,0.115 -0.125,0.191 -0.043,0.012 -0.095,0.014 -0.156,0.007 -0.06,-0.007 -0.126,-0.026 -0.196,-0.059 -0.111,-0.052 -0.185,-0.117 -0.221,-0.189 -0.037,-0.073 -0.036,-0.143 0,-0.211 0.032,-0.061 0.087,-0.096 0.165,-0.108 0.077,-0.011 0.187,-0.002 0.327,0.026 0.171,0.033 0.311,0.026 0.42,-0.016 0.109,-0.043 0.183,-0.121 0.226,-0.231 0.046,-0.118 0.037,-0.23 -0.021,-0.337 -0.057,-0.108 -0.153,-0.19 -0.289,-0.254 -0.099,-0.046 -0.194,-0.072 -0.288,-0.077 -0.094,-0.005 -0.181,0.007 -0.26,0.036 -0.058,0.102 -0.087,0.153 -0.144,0.255 0.054,0.031 0.081,0.046 0.135,0.075 0.058,-0.072 0.086,-0.108 0.142,-0.181 0.05,-0.012 0.103,-0.015 0.16,-0.011 0.057,0.005 0.118,0.022 0.184,0.054 0.089,0.042 0.151,0.094 0.186,0.158 0.035,0.065 0.038,0.133 0.008,0.205 -0.028,0.066 -0.075,0.112 -0.143,0.136 -0.067,0.024 -0.17,0.025 -0.307,-0.004 -0.166,-0.035 -0.309,-0.044 -0.429,-0.021 -0.121,0.022 -0.211,0.083 -0.268,0.184 -0.06,0.108 -0.063,0.225 0,0.351 0.062,0.126 0.178,0.233 0.345,0.312 0.111,0.051 0.221,0.079 0.326,0.083 0.107,0.003 0.197,-0.01 0.272,-0.039 0.043,-0.109 0.064,-0.164 0.107,-0.273"/><path id="path62" style="fill:#fcef3c;fill-opacity:1;fill-rule:nonzero;stroke:none" d="m 9.5439,28.3296 c 0.026,-0.137 0.039,-0.206 0.064,-0.342 -0.074,-0.014 -0.111,-0.021 -0.185,-0.037 -0.022,0.069 -0.033,0.104 -0.054,0.173 -0.146,-0.031 -0.219,-0.048 -0.363,-0.085 0.125,-0.48 0.187,-0.72 0.312,-1.2 0.066,0.004 0.098,0.006 0.163,0.009 0.013,-0.053 0.019,-0.08 0.032,-0.133 -0.196,-0.046 -0.293,-0.072 -0.486,-0.133 -0.016,0.052 -0.025,0.079 -0.041,0.13 0.058,0.031 0.086,0.046 0.145,0.076 -0.138,0.476 -0.207,0.714 -0.345,1.19 -0.144,-0.041 -0.216,-0.063 -0.358,-0.111 0.017,-0.071 0.026,-0.106 0.043,-0.176 -0.073,-0.025 -0.109,-0.038 -0.181,-0.064 -0.048,0.131 -0.072,0.196 -0.121,0.327 0.539,0.196 0.816,0.272 1.375,0.376"/><path id="path66" style="fill:#fcef3c;fill-opacity:1;fill-rule:nonzero;stroke:none" d="m 11.897,28.1284 c -0.002,0 -0.003,0.001 -0.006,0.001 -0.258,-0.483 -0.371,-0.73 -0.565,-1.229 -0.05,10e-4 -0.075,10e-4 -0.125,0.002 -0.176,0.506 -0.28,0.756 -0.52,1.248 -0.002,-0.001 -0.003,-0.001 -0.006,-0.001 0.023,-0.254 0.035,-0.381 0.056,-0.635 0.01,-0.182 0.015,-0.273 0.024,-0.455 0.065,-0.009 0.097,-0.014 0.161,-0.024 0.002,-0.054 0.003,-0.081 0.004,-0.136 -0.2,-0.006 -0.3,-0.013 -0.5,-0.033 -0.005,0.054 -0.008,0.081 -0.013,0.136 0.062,0.018 0.093,0.027 0.156,0.044 -0.04,0.495 -0.059,0.742 -0.099,1.236 -0.075,0.006 -0.113,0.009 -0.19,0.013 -0.005,0.055 -0.008,0.083 -0.014,0.137 0.076,0.008 0.115,0.011 0.191,0.017 0.118,0.01 0.177,0.013 0.295,0.018 0.24,-0.501 0.344,-0.756 0.521,-1.271 l 0.005,0 c 0.195,0.508 0.308,0.759 0.566,1.252 0.195,-0.016 0.292,-0.027 0.485,-0.053 -0.008,-0.055 -0.011,-0.082 -0.019,-0.136 -0.076,-0.002 -0.114,-0.003 -0.19,-0.006 -0.058,-0.493 -0.086,-0.74 -0.144,-1.232 0.062,-0.019 0.094,-0.03 0.155,-0.05 -0.008,-0.054 -0.011,-0.081 -0.019,-0.135 -0.199,0.027 -0.299,0.037 -0.499,0.051 0.004,0.054 0.006,0.081 0.01,0.136 0.064,0.007 0.096,0.011 0.161,0.018 0.016,0.181 0.024,0.272 0.041,0.454 0.03,0.253 0.046,0.38 0.078,0.633"/><path id="path70" style="fill:#fcef3c;fill-opacity:1;fill-rule:nonzero;stroke:none" d="m 12.2397,26.8164 c 0.009,0.054 0.013,0.081 0.021,0.135 0.065,0.002 0.098,0.002 0.163,0.003 0.089,0.488 0.133,0.732 0.222,1.22 -0.072,0.025 -0.108,0.037 -0.18,0.061 0.008,0.054 0.012,0.081 0.021,0.135 0.519,-0.081 0.776,-0.142 1.28,-0.303 -0.046,-0.144 -0.069,-0.216 -0.115,-0.36 -0.073,0.023 -0.11,0.034 -0.183,0.056 0.017,0.083 0.025,0.124 0.042,0.208 -0.255,0.074 -0.384,0.106 -0.642,0.159 -0.042,-0.199 -0.063,-0.298 -0.105,-0.498 0.237,-0.049 0.354,-0.078 0.587,-0.146 -0.019,-0.064 -0.028,-0.096 -0.047,-0.16 -0.228,0.066 -0.343,0.094 -0.574,0.142 -0.047,-0.22 -0.07,-0.331 -0.116,-0.551 0.226,-0.047 0.338,-0.075 0.56,-0.14 0.029,0.079 0.045,0.119 0.075,0.198 0.065,-0.019 0.098,-0.03 0.163,-0.05 -0.047,-0.144 -0.069,-0.216 -0.116,-0.359 -0.415,0.132 -0.628,0.183 -1.056,0.25"/><path id="path74" style="fill:#fcef3c;fill-opacity:1;fill-rule:nonzero;stroke:none" d="m 14.5737,26.2139 c -0.061,-0.022 -0.138,-0.033 -0.23,-0.034 -0.093,-0.001 -0.197,0.027 -0.314,0.08 -0.172,0.078 -0.286,0.202 -0.349,0.383 -0.063,0.181 -0.062,0.383 0.016,0.605 0.003,0.01 0.005,0.015 0.008,0.025 0.078,0.224 0.204,0.384 0.388,0.473 0.184,0.089 0.393,0.086 0.612,-0.014 0.118,-0.053 0.212,-0.119 0.284,-0.196 0.07,-0.076 0.12,-0.156 0.149,-0.24 -0.054,-0.101 -0.081,-0.151 -0.135,-0.251 -0.055,0.029 -0.083,0.044 -0.138,0.072 0.02,0.087 0.03,0.131 0.049,0.219 -0.021,0.043 -0.051,0.085 -0.092,0.125 -0.04,0.041 -0.096,0.077 -0.165,0.109 -0.167,0.077 -0.322,0.076 -0.455,0.004 -0.133,-0.072 -0.23,-0.198 -0.295,-0.371 -0.004,-0.01 -0.007,-0.016 -0.011,-0.027 -0.066,-0.175 -0.079,-0.333 -0.044,-0.471 0.034,-0.139 0.115,-0.235 0.246,-0.294 0.072,-0.032 0.134,-0.052 0.187,-0.057 0.054,-0.006 0.1,-0.007 0.137,-10e-4 0.062,0.123 0.093,0.184 0.156,0.307 -0.088,0.05 -0.133,0.074 -0.223,0.12 0.027,0.057 0.04,0.085 0.067,0.142 0.17,-0.079 0.255,-0.122 0.421,-0.211 -0.108,-0.199 -0.162,-0.298 -0.269,-0.497"/><path id="path78" style="fill:#fcef3c;fill-opacity:1;fill-rule:nonzero;stroke:none" d="m 15.8955,26.8809 c -0.067,0.036 -0.101,0.053 -0.167,0.087 -0.019,-0.295 -0.033,-0.441 -0.071,-0.729 0.258,0.132 0.391,0.193 0.665,0.306 -0.054,0.052 -0.082,0.078 -0.137,0.129 0.033,0.044 0.049,0.067 0.082,0.111 0.196,-0.146 0.292,-0.223 0.48,-0.385 -0.036,-0.042 -0.054,-0.062 -0.09,-0.104 -0.051,0.033 -0.076,0.049 -0.127,0.081 -0.381,-0.132 -0.565,-0.208 -0.919,-0.377 -0.091,-0.125 -0.137,-0.187 -0.228,-0.312 0.046,-0.05 0.069,-0.075 0.115,-0.124 -0.034,-0.044 -0.05,-0.065 -0.083,-0.109 -0.166,0.128 -0.251,0.188 -0.424,0.301 0.03,0.046 0.045,0.069 0.075,0.114 0.061,-0.026 0.092,-0.039 0.154,-0.067 0.091,0.133 0.137,0.2 0.229,0.333 0.042,0.382 0.053,0.577 0.056,0.971 -0.045,0.037 -0.068,0.055 -0.114,0.091 0.028,0.048 0.042,0.072 0.069,0.119 0.208,-0.121 0.311,-0.186 0.512,-0.322 -0.031,-0.046 -0.046,-0.069 -0.077,-0.114"/><path id="path82" style="fill:#fcef3c;fill-opacity:1;fill-rule:nonzero;stroke:none" d="m 15.8237,25.1152 c 0.036,0.041 0.054,0.061 0.091,0.102 0.058,-0.037 0.087,-0.055 0.145,-0.093 0.339,0.362 0.509,0.543 0.848,0.905 -0.05,0.064 -0.075,0.095 -0.126,0.158 0.036,0.041 0.054,0.061 0.091,0.102 0.414,-0.372 0.61,-0.577 0.972,-1.028 -0.118,-0.095 -0.177,-0.142 -0.295,-0.237 -0.052,0.065 -0.079,0.097 -0.132,0.161 0.059,0.06 0.089,0.091 0.147,0.152 -0.186,0.219 -0.283,0.324 -0.483,0.524 l -0.359,-0.362 c 0.183,-0.182 0.271,-0.278 0.442,-0.478 -0.051,-0.043 -0.076,-0.065 -0.127,-0.109 -0.167,0.197 -0.254,0.29 -0.433,0.468 -0.158,-0.16 -0.238,-0.24 -0.397,-0.399 0.175,-0.174 0.26,-0.266 0.422,-0.458 0.069,0.05 0.103,0.074 0.172,0.123 0.048,-0.056 0.071,-0.085 0.118,-0.144 -0.117,-0.094 -0.177,-0.141 -0.294,-0.236 -0.299,0.373 -0.461,0.542 -0.802,0.849"/></g></g></g></g></svg>