<svg xmlns:dc="http://purl.org/dc/elements/1.1/" xmlns:cc="http://creativecommons.org/ns#" xmlns:rdf="http://www.w3.org/1999/02/22-rdf-syntax-ns#" xmlns:svg="http://www.w3.org/2000/svg" xmlns="http://www.w3.org/2000/svg" viewBox="0 0 45 45" style="enable-background:new 0 0 45 45;" xml:space="preserve" version="1.1" id="svg2"><metadata id="metadata8"><rdf:RDF><cc:Work rdf:about=""><dc:format>image/svg+xml</dc:format><dc:type rdf:resource="http://purl.org/dc/dcmitype/StillImage"/></cc:Work></rdf:RDF></metadata><defs id="defs6"><clipPath id="clipPath16" clipPathUnits="userSpaceOnUse"><path id="path18" d="M 0,36 36,36 36,0 0,0 0,36 Z"/></clipPath></defs><g transform="matrix(1.25,0,0,-1.25,0,45)" id="g10"><g id="g12"><g xmlns="http://www.w3.org/2000/svg" clip-path="url(#clipPath16)" id="g14"><g transform="translate(32,31)" id="g20"><path id="path22" style="fill:#0081ab;fill-opacity:1;fill-rule:nonzero;stroke:none" d="m 0,0 -28,0 c -2.209,0 -4,-1.791 -4,-4 l 0,-18 c 0,-2.209 1.791,-4 4,-4 l 28,0 c 2.209,0 4,1.791 4,4 L 4,-4 C 4,-1.791 2.209,0 0,0"/></g><g id="g3069" transform="translate(12.3042,13.3555)"><path d="m 0,0 c 0,-0.387 0.313,-0.699 0.699,-0.699 0.386,0 0.699,0.312 0.699,0.699 0,0.386 -0.313,0.698 -0.699,0.698 C 0.313,0.698 0,0.386 0,0" style="fill:#ffffff;fill-opacity:1;fill-rule:nonzero;stroke:none" id="path3071"/></g><g id="g3073" transform="translate(13.7476,11.1162)"><path d="M 0,0 C 0,-0.511 0.414,-0.925 0.925,-0.925 1.436,-0.925 1.85,-0.511 1.85,0 1.85,0.511 1.436,0.925 0.925,0.925 0.414,0.925 0,0.511 0,0" style="fill:#ffffff;fill-opacity:1;fill-rule:nonzero;stroke:none" id="path3075"/></g><g id="g3077" transform="translate(16.6011,10.1494)"><path d="m 0,0 c 0,-0.662 0.537,-1.199 1.199,-1.199 0.662,0 1.199,0.537 1.199,1.199 0,0.662 -0.537,1.199 -1.199,1.199 C 0.537,1.199 0,0.662 0,0" style="fill:#ffffff;fill-opacity:1;fill-rule:nonzero;stroke:none" id="path3079"/></g><g id="g3081" transform="translate(19.8037,11.6445)"><path d="m 0,0 c 0,-0.828 0.671,-1.499 1.499,-1.499 0.828,0 1.499,0.671 1.499,1.499 0,0.827 -0.671,1.498 -1.499,1.498 C 0.671,1.498 0,0.827 0,0" style="fill:#ffffff;fill-opacity:1;fill-rule:nonzero;stroke:none" id="path3083"/></g><g id="g3085" transform="translate(20.5029,15.748)"><path d="m 0,0 c 0,-0.937 0.76,-1.697 1.697,-1.697 0.937,0 1.697,0.76 1.697,1.697 0,0.937 -0.76,1.696 -1.697,1.696 C 0.76,1.696 0,0.937 0,0" style="fill:#ffffff;fill-opacity:1;fill-rule:nonzero;stroke:none" id="path3087"/></g><g id="g3089" transform="translate(19.9004,18)"><path d="m 0,0 c 0,-1.05 -0.851,-1.9 -1.9,-1.9 -1.05,0 -1.9,0.85 -1.9,1.9 0,1.049 0.85,1.9 1.9,1.9 C -0.851,1.9 0,1.049 0,0" style="fill:#ffffff;fill-opacity:1;fill-rule:nonzero;stroke:none" id="path3091"/></g><g id="g3093" transform="translate(15.4966,20.2524)"><path d="m 0,0 c 0,0.937 -0.759,1.697 -1.697,1.697 -0.937,0 -1.697,-0.76 -1.697,-1.697 0,-0.937 0.76,-1.697 1.697,-1.697 C -0.759,-1.697 0,-0.937 0,0" style="fill:#ffffff;fill-opacity:1;fill-rule:nonzero;stroke:none" id="path3095"/></g><g id="g3097" transform="translate(16.1958,24.356)"><path d="m 0,0 c 0,0.828 -0.671,1.499 -1.499,1.499 -0.827,0 -1.498,-0.671 -1.498,-1.499 0,-0.828 0.671,-1.499 1.498,-1.499 C -0.671,-1.499 0,-0.828 0,0" style="fill:#ffffff;fill-opacity:1;fill-rule:nonzero;stroke:none" id="path3099"/></g><g id="g3101" transform="translate(19.3994,25.8506)"><path d="m 0,0 c 0,0.662 -0.537,1.199 -1.199,1.199 -0.663,0 -1.199,-0.537 -1.199,-1.199 0,-0.662 0.536,-1.199 1.199,-1.199 C -0.537,-1.199 0,-0.662 0,0" style="fill:#ffffff;fill-opacity:1;fill-rule:nonzero;stroke:none" id="path3103"/></g><g id="g3105" transform="translate(22.252,24.8843)"><path d="m 0,0 c 0,0.511 -0.414,0.924 -0.925,0.924 -0.511,0 -0.924,-0.413 -0.924,-0.924 0,-0.511 0.413,-0.925 0.924,-0.925 C -0.414,-0.925 0,-0.511 0,0" style="fill:#ffffff;fill-opacity:1;fill-rule:nonzero;stroke:none" id="path3107"/></g></g></g></g></svg>