<svg xmlns="http://www.w3.org/2000/svg" viewBox="0 0 45 45"><path fill="#039902" d="M 36.05,38.75 H 40 c 2.76,0 5,-2.24 5,-5 v -22.5 c 0,-2.76 -2.24,-5 -5,-5 h -3.95 z"/><path fill="#ffff00" d="m 8.950001,38.75 h 27.1 V 6.25 h -27.1 z"/><path fill="#039902" d="M 8.95,6.25 H 5 c -2.76,0 -5,2.24 -5,5 v 22.5 c 0,2.76 2.24,5 5,5 h 3.95 z"/><path fill="#ff0103" d="m 22.499875,11.577625 c -1.01625,0 -2.26625,0.625 -3.46875,0.625 -1.0475,0 -1.34375,-0.1725 -1.34375,-0.1725 l -1.53125,1.71875 c 2.78125,1.34375 1.0475,2.375 -1.32875,1.29625 v 12.85875 c 0,0 0.37125,1.56375 3.0475,3.3125 1.46125,0.955 2.9175,1.43625 3.7875,1.88375 0.53125,0.2725 0.8375,0.49125 0.8375,0.49125 0,0 0.30625,-0.21875 0.8375,-0.49125 0.87,-0.44625 2.3275,-0.92875 3.7875,-1.88375 2.675,-1.74875 3.0475,-3.3125 3.0475,-3.3125 v -12.85875 c -2.375,1.0775 -4.10875,0.0475 -1.32875,-1.29625 l -1.53125,-1.7175 c 0,0 -0.29625,0.1725 -1.34375,0.1725 -1.2025,-0.0013 -2.4525,-0.62625 -3.46875,-0.62625 z"/><path fill="#ffff00" d="M 19.21875 16.740234 L 18.818359 17.689453 L 19.087891 18.240234 L 18.539062 17.730469 L 18.539062 22.109375 L 19.138672 22.650391 L 19.138672 29.730469 L 19.298828 29.730469 L 19.298828 22.650391 L 19.898438 22.109375 L 19.898438 17.730469 L 19.347656 18.240234 L 19.619141 17.689453 L 19.21875 16.740234 z M 20.859375 16.740234 L 20.458984 17.689453 L 20.730469 18.240234 L 20.179688 17.730469 L 20.179688 22.109375 L 20.779297 22.650391 L 20.779297 29.730469 L 20.939453 29.730469 L 20.939453 22.650391 L 21.539062 22.109375 L 21.539062 17.730469 L 20.990234 18.240234 L 21.259766 17.689453 L 20.859375 16.740234 z M 22.5 16.740234 L 22.099609 17.689453 L 22.369141 18.240234 L 21.820312 17.730469 L 21.820312 22.109375 L 22.419922 22.650391 L 22.419922 29.730469 L 22.580078 29.730469 L 22.580078 22.650391 L 23.179688 22.109375 L 23.179688 17.730469 L 22.628906 18.240234 L 22.900391 17.689453 L 22.5 16.740234 z M 24.140625 16.740234 L 23.740234 17.689453 L 24.011719 18.240234 L 23.460938 17.730469 L 23.460938 22.109375 L 24.060547 22.650391 L 24.060547 29.730469 L 24.220703 29.730469 L 24.220703 22.650391 L 24.820312 22.109375 L 24.820312 17.730469 L 24.271484 18.240234 L 24.541016 17.689453 L 24.140625 16.740234 z M 25.78125 16.740234 L 25.380859 17.689453 L 25.650391 18.240234 L 25.101562 17.730469 L 25.101562 22.109375 L 25.701172 22.650391 L 25.701172 29.730469 L 25.861328 29.730469 L 25.861328 22.650391 L 26.460938 22.109375 L 26.460938 17.730469 L 25.910156 18.240234 L 26.181641 17.689453 L 25.78125 16.740234 z"/></svg>