<svg xmlns:dc="http://purl.org/dc/elements/1.1/" xmlns:cc="http://creativecommons.org/ns#" xmlns:rdf="http://www.w3.org/1999/02/22-rdf-syntax-ns#" xmlns:svg="http://www.w3.org/2000/svg" xmlns="http://www.w3.org/2000/svg" viewBox="0 0 45 45" style="enable-background:new 0 0 45 45;" xml:space="preserve" version="1.1" id="svg2"><metadata id="metadata8"><rdf:RDF><cc:Work rdf:about=""><dc:format>image/svg+xml</dc:format><dc:type rdf:resource="http://purl.org/dc/dcmitype/StillImage"/></cc:Work></rdf:RDF></metadata><defs id="defs6"><clipPath id="clipPath16" clipPathUnits="userSpaceOnUse"><path id="path18" d="M 4,31 C 1.791,31 0,29.209 0,27 L 0,27 0,9 C 0,6.791 1.791,5 4,5 l 0,0 28,0 c 2.209,0 4,1.791 4,4 l 0,0 0,18 c 0,2.209 -1.791,4 -4,4 l 0,0 -28,0 z"/></clipPath></defs><g transform="matrix(1.25,0,0,-1.25,0,45)" id="g10"><g id="g12"><g xmlns="http://www.w3.org/2000/svg" clip-path="url(#clipPath16)" id="g14"><g id="g30"><path id="path20" style="fill:#ffd500;fill-opacity:1;fill-rule:nonzero;stroke:none" d="M 0,5 H 36 V 31 H 0 Z"/></g><g id="g32"><path id="path30" style="fill:#56a134;fill-opacity:1;fill-rule:nonzero;stroke:none;stroke-width:0.76414442" d="M 14.979,29 H 36 v 2 H 14.979 Z"/><path id="path31" style="fill:#56a134;fill-opacity:1;fill-rule:nonzero;stroke:none;stroke-width:0.76414442" d="M 14.979,25 H 36 v 2 H 14.979 Z"/><path id="path32" style="fill:#56a134;fill-opacity:1;fill-rule:nonzero;stroke:none;stroke-width:0.76414442" d="M 14.979,21 H 36 v 2 H 14.979 Z"/><path id="path33" style="fill:#56a134;fill-opacity:1;fill-rule:nonzero;stroke:none" d="m 0,17 h 36 v 2 H 0 Z"/><path id="path34" style="fill:#56a134;fill-opacity:1;fill-rule:nonzero;stroke:none" d="m 0,13 h 36 v 2 H 0 Z"/><path id="path35" style="fill:#56a134;fill-opacity:1;fill-rule:nonzero;stroke:none" d="m 0,9 h 36 v 2 H 0 Z"/><path id="path36" style="fill:#56a134;fill-opacity:1;fill-rule:nonzero;stroke:none" d="M 0,5 H 36 V 7 H 0 Z"/></g><g id="g34"><path id="path40" style="fill:#0b1097;fill-opacity:1;fill-rule:nonzero;stroke:none" d="M 14.979,21 H 0 v 10 h 14.979 z"/></g><g id="g36"><path id="path50" style="fill:#ffffff;fill-opacity:1;fill-rule:nonzero;stroke:none" d="m 7.4897,30.4443 0.887,-2.73 2.87,10e-4 -2.322,-1.688 0.887,-2.729 -2.322,1.688 -2.322,-1.688 0.887,2.729 -2.322,1.688 2.87,-10e-4 z"/></g><g id="g38"><path id="path60" style="fill:#ffffff;fill-opacity:1;fill-rule:nonzero;stroke:none" d="m 1.3682,21.5967 h -0.127 v 0.705 l -0.256,-0.079 v 0.097 l 0.363,0.113 h 0.02 z"/><path id="path61" style="fill:#ffffff;fill-opacity:1;fill-rule:nonzero;stroke:none" d="m 1.8545,22.0645 h 0.095 c 0.06,0 0.107,0.014 0.142,0.04 0.034,0.025 0.051,0.059 0.051,0.103 0,0.097 -0.058,0.146 -0.175,0.146 -0.055,0 -0.098,-0.013 -0.131,-0.039 -0.033,-0.026 -0.049,-0.061 -0.049,-0.104 h -0.127 c 0,0.066 0.029,0.121 0.087,0.165 0.058,0.043 0.131,0.065 0.22,0.065 0.095,0 0.168,-0.021 0.222,-0.062 0.053,-0.042 0.08,-0.1 0.08,-0.173 0,-0.037 -0.014,-0.072 -0.042,-0.106 -0.028,-0.034 -0.066,-0.059 -0.115,-0.076 0.055,-0.014 0.097,-0.038 0.127,-0.072 0.03,-0.033 0.045,-0.074 0.045,-0.123 0,-0.075 -0.029,-0.134 -0.088,-0.178 -0.058,-0.044 -0.134,-0.065 -0.228,-0.065 -0.094,0 -0.17,0.021 -0.229,0.063 -0.059,0.042 -0.088,0.099 -0.088,0.168 h 0.127 c 0,-0.044 0.018,-0.079 0.052,-0.106 0.034,-0.026 0.08,-0.039 0.138,-0.039 0.061,0 0.108,0.014 0.14,0.04 0.033,0.027 0.049,0.065 0.049,0.115 0,0.049 -0.018,0.086 -0.053,0.112 -0.036,0.025 -0.087,0.039 -0.155,0.04 h -0.095 z"/><path id="path62" style="fill:#ffffff;fill-opacity:1;fill-rule:nonzero;stroke:none" d="m 2.8306,22.3394 v -0.653 h 0.139 c 0.101,0 0.18,0.027 0.236,0.079 0.057,0.053 0.085,0.128 0.085,0.225 v 0.049 c 0,0.094 -0.026,0.168 -0.08,0.22 -0.053,0.053 -0.129,0.079 -0.226,0.08 z m -0.132,-0.743 v 0.833 h 0.282 c 0.087,0 0.164,-0.016 0.231,-0.048 0.067,-0.032 0.118,-0.078 0.155,-0.137 0.036,-0.059 0.054,-0.127 0.055,-0.203 v -0.054 c 0,-0.078 -0.018,-0.147 -0.055,-0.206 -0.036,-0.059 -0.088,-0.105 -0.156,-0.136 -0.067,-0.032 -0.146,-0.048 -0.235,-0.049 z"/><path id="path63" style="fill:#ffffff;fill-opacity:1;fill-rule:nonzero;stroke:none" d="m 4.1147,21.9814 h -0.433 v -0.295 h 0.503 v -0.09 h -0.635 v 0.833 h 0.628 v -0.09 h -0.496 v -0.268 h 0.433 z"/><path id="path64" style="fill:#ffffff;fill-opacity:1;fill-rule:nonzero;stroke:none" d="m 4.7261,22.4292 0.327,-0.679 0.326,0.679 h 0.171 v -0.833 h -0.132 v 0.325 l 0.013,0.349 -0.329,-0.674 h -0.1 l -0.327,0.673 0.012,-0.348 v -0.325 h -0.131 v 0.833 z"/><path id="path65" style="fill:#ffffff;fill-opacity:1;fill-rule:nonzero;stroke:none" d="m 5.8979,21.9043 h 0.339 l -0.17,0.389 z m 0.378,-0.09 h -0.418 l -0.094,-0.218 h -0.136 l 0.382,0.833 h 0.115 l 0.382,-0.833 h -0.135 z"/><path id="path66" style="fill:#ffffff;fill-opacity:1;fill-rule:nonzero;stroke:none" d="m 6.7026,22.0229 h 0.203 c 0.065,0 0.117,0.014 0.155,0.042 0.039,0.029 0.059,0.067 0.059,0.114 0,0.052 -0.019,0.091 -0.056,0.118 -0.036,0.028 -0.09,0.042 -0.159,0.042 h -0.202 z m 0.235,-0.089 h -0.235 v -0.337 h -0.132 v 0.832 h 0.33 c 0.113,0 0.199,-0.021 0.26,-0.064 0.061,-0.043 0.091,-0.105 0.091,-0.186 0,-0.052 -0.017,-0.097 -0.05,-0.136 -0.034,-0.038 -0.081,-0.067 -0.141,-0.086 l 0.235,-0.353 v -0.007 h -0.141 z"/><path id="path67" style="fill:#ffffff;fill-opacity:1;fill-rule:nonzero;stroke:none" d="m 7.7651,21.5913 -0.008,-0.029 c 0.07,-0.011 0.105,-0.044 0.105,-0.099 0,-0.038 -0.018,-0.067 -0.055,-0.088 -0.037,-0.022 -0.088,-0.033 -0.153,-0.033 l -0.005,0.062 c 0.036,0 0.064,0.005 0.084,0.015 0.02,0.009 0.03,0.024 0.03,0.041 0,0.017 -0.007,0.029 -0.022,0.037 -0.015,0.009 -0.044,0.014 -0.089,0.018 l 0.022,0.076 z m 0.335,0.27 c -0.012,-0.088 -0.051,-0.157 -0.116,-0.204 -0.066,-0.048 -0.153,-0.072 -0.262,-0.072 -0.118,0 -0.213,0.035 -0.284,0.106 -0.071,0.07 -0.107,0.165 -0.107,0.283 v 0.08 c 0,0.077 0.017,0.145 0.05,0.204 0.033,0.059 0.08,0.104 0.141,0.135 0.061,0.031 0.132,0.047 0.212,0.047 0.106,0 0.191,-0.024 0.255,-0.074 0.064,-0.049 0.101,-0.117 0.111,-0.205 h -0.132 c -0.011,0.067 -0.036,0.115 -0.074,0.145 -0.039,0.03 -0.092,0.044 -0.16,0.044 -0.085,0 -0.151,-0.026 -0.198,-0.077 -0.048,-0.052 -0.072,-0.126 -0.072,-0.222 v -0.081 c 0,-0.09 0.023,-0.162 0.068,-0.215 0.045,-0.054 0.108,-0.081 0.19,-0.081 0.073,0 0.129,0.015 0.168,0.042 0.04,0.028 0.065,0.076 0.078,0.145 z"/><path id="path68" style="fill:#ffffff;fill-opacity:1;fill-rule:nonzero;stroke:none" d="m 8.8477,22.0396 c 0,0.099 -0.024,0.175 -0.071,0.228 -0.048,0.052 -0.115,0.079 -0.2,0.079 -0.083,0 -0.149,-0.027 -0.197,-0.079 -0.048,-0.053 -0.072,-0.126 -0.074,-0.22 v -0.062 c 0,-0.095 0.025,-0.171 0.073,-0.225 0.048,-0.055 0.115,-0.082 0.199,-0.082 0.085,0 0.151,0.026 0.198,0.077 0.047,0.052 0.071,0.126 0.072,0.222 z m 0.131,-0.054 c 0,-0.081 -0.017,-0.152 -0.049,-0.213 -0.034,-0.061 -0.08,-0.107 -0.141,-0.139 -0.06,-0.032 -0.13,-0.048 -0.211,-0.048 -0.079,0 -0.148,0.016 -0.209,0.048 -0.061,0.032 -0.108,0.078 -0.142,0.138 -0.033,0.06 -0.05,0.128 -0.051,0.207 v 0.06 c 0,0.08 0.016,0.151 0.049,0.212 0.034,0.061 0.081,0.108 0.142,0.141 0.062,0.033 0.131,0.049 0.21,0.049 0.08,0 0.15,-0.016 0.211,-0.048 0.061,-0.033 0.108,-0.079 0.142,-0.141 0.032,-0.061 0.049,-0.132 0.049,-0.213 z"/><path id="path69" style="fill:#ffffff;fill-opacity:1;fill-rule:nonzero;stroke:none" d="m 9.5146,22.3394 v -0.653 h 0.139 c 0.101,0 0.18,0.027 0.236,0.079 0.057,0.053 0.085,0.128 0.085,0.225 v 0.049 c 0,0.094 -0.026,0.168 -0.08,0.22 -0.053,0.053 -0.129,0.079 -0.226,0.08 z m -0.132,-0.743 v 0.833 h 0.282 c 0.087,0 0.164,-0.016 0.231,-0.048 0.067,-0.032 0.118,-0.078 0.155,-0.137 0.036,-0.059 0.054,-0.127 0.055,-0.203 v -0.054 c 0,-0.078 -0.018,-0.147 -0.055,-0.206 -0.036,-0.059 -0.088,-0.105 -0.156,-0.136 -0.067,-0.032 -0.146,-0.048 -0.235,-0.049 z"/><path id="path70" style="fill:#ffffff;fill-opacity:1;fill-rule:nonzero;stroke:none" d="m 10.7988,21.9814 h -0.433 v -0.295 h 0.503 v -0.09 h -0.635 v 0.833 h 0.628 v -0.09 h -0.496 v -0.268 h 0.433 z"/><path id="path71" style="fill:#ffffff;fill-opacity:1;fill-rule:nonzero;stroke:none" d="m 11.624,21.5967 h -0.127 v 0.705 l -0.256,-0.079 v 0.097 l 0.363,0.113 h 0.02 z"/><path id="path72" style="fill:#ffffff;fill-opacity:1;fill-rule:nonzero;stroke:none" d="m 12.2373,22.3535 c -0.05,0 -0.09,-0.013 -0.121,-0.039 -0.031,-0.025 -0.046,-0.06 -0.046,-0.105 0,-0.042 0.015,-0.076 0.045,-0.102 0.031,-0.026 0.071,-0.039 0.122,-0.039 0.051,0 0.091,0.013 0.122,0.039 0.03,0.026 0.045,0.06 0.045,0.102 0,0.043 -0.016,0.078 -0.047,0.104 -0.032,0.027 -0.072,0.04 -0.12,0.04 m 0.19,-0.53 c 0,0.047 -0.017,0.085 -0.052,0.114 -0.036,0.029 -0.082,0.044 -0.139,0.044 -0.058,0 -0.103,-0.015 -0.138,-0.044 -0.034,-0.028 -0.052,-0.066 -0.052,-0.114 0,-0.047 0.017,-0.084 0.051,-0.111 0.033,-0.027 0.08,-0.041 0.14,-0.041 0.06,0 0.106,0.014 0.14,0.041 0.034,0.027 0.05,0.064 0.05,0.111 m 0.104,0.388 c 0,-0.041 -0.013,-0.078 -0.039,-0.11 -0.026,-0.033 -0.062,-0.059 -0.107,-0.077 0.052,-0.018 0.094,-0.046 0.124,-0.081 0.03,-0.036 0.045,-0.077 0.045,-0.122 0,-0.072 -0.028,-0.13 -0.087,-0.172 -0.058,-0.043 -0.135,-0.064 -0.23,-0.064 -0.096,0 -0.173,0.021 -0.231,0.064 -0.058,0.043 -0.087,0.1 -0.087,0.172 0,0.045 0.015,0.085 0.045,0.122 0.029,0.036 0.07,0.063 0.122,0.082 -0.044,0.018 -0.079,0.043 -0.105,0.076 -0.026,0.032 -0.038,0.069 -0.038,0.11 0,0.07 0.026,0.126 0.081,0.167 0.053,0.041 0.125,0.062 0.213,0.062 0.088,0 0.159,-0.021 0.213,-0.062 0.054,-0.041 0.081,-0.097 0.081,-0.167"/><path id="path73" style="fill:#ffffff;fill-opacity:1;fill-rule:nonzero;stroke:none" d="m 13.2988,21.5967 h -0.654 v 0.076 l 0.345,0.32 c 0.052,0.049 0.087,0.088 0.106,0.118 0.02,0.03 0.03,0.062 0.03,0.094 0,0.044 -0.016,0.079 -0.048,0.107 -0.031,0.028 -0.073,0.042 -0.126,0.042 -0.063,0 -0.112,-0.015 -0.147,-0.045 -0.035,-0.03 -0.052,-0.071 -0.052,-0.125 h -0.127 c 0,0.077 0.029,0.139 0.089,0.186 0.059,0.047 0.138,0.071 0.237,0.071 0.093,0 0.166,-0.02 0.22,-0.061 0.054,-0.041 0.081,-0.095 0.081,-0.162 0,-0.082 -0.062,-0.18 -0.188,-0.293 l -0.267,-0.242 h 0.501 z"/><path id="path74" style="fill:#ffffff;fill-opacity:1;fill-rule:nonzero;stroke:none" d="m 13.5479,22.0645 h 0.095 c 0.06,0 0.107,0.014 0.142,0.04 0.034,0.025 0.051,0.059 0.051,0.103 0,0.097 -0.058,0.146 -0.175,0.146 -0.055,0 -0.098,-0.013 -0.131,-0.039 -0.033,-0.026 -0.049,-0.061 -0.049,-0.104 h -0.127 c 0,0.066 0.029,0.121 0.087,0.165 0.058,0.043 0.131,0.065 0.22,0.065 0.095,0 0.168,-0.021 0.222,-0.062 0.053,-0.042 0.08,-0.1 0.08,-0.173 0,-0.037 -0.014,-0.072 -0.042,-0.106 -0.028,-0.034 -0.066,-0.059 -0.115,-0.076 0.055,-0.014 0.097,-0.038 0.127,-0.072 0.03,-0.033 0.045,-0.074 0.045,-0.123 0,-0.075 -0.029,-0.134 -0.088,-0.178 -0.058,-0.044 -0.134,-0.065 -0.228,-0.065 -0.094,0 -0.17,0.021 -0.229,0.063 -0.059,0.042 -0.088,0.099 -0.088,0.168 h 0.127 c 0,-0.044 0.018,-0.079 0.052,-0.106 0.034,-0.026 0.08,-0.039 0.138,-0.039 0.061,0 0.108,0.014 0.14,0.04 0.033,0.027 0.049,0.065 0.049,0.115 0,0.049 -0.018,0.086 -0.053,0.112 -0.036,0.025 -0.087,0.039 -0.155,0.04 h -0.095 z"/></g></g></g></g></svg>