<svg xmlns:dc="http://purl.org/dc/elements/1.1/" xmlns:cc="http://creativecommons.org/ns#" xmlns:rdf="http://www.w3.org/1999/02/22-rdf-syntax-ns#" xmlns:svg="http://www.w3.org/2000/svg" xmlns="http://www.w3.org/2000/svg" viewBox="0 0 45 45" style="enable-background:new 0 0 45 45;" xml:space="preserve" version="1.1" id="svg2"><metadata id="metadata8"><rdf:RDF><cc:Work rdf:about=""><dc:format>image/svg+xml</dc:format><dc:type rdf:resource="http://purl.org/dc/dcmitype/StillImage"/></cc:Work></rdf:RDF></metadata><defs id="defs6"><clipPath id="clipPath16" clipPathUnits="userSpaceOnUse"><path id="path18" d="M 4,31 C 1.791,31 0,29.209 0,27 L 0,27 0,9 C 0,6.791 1.791,5 4,5 l 0,0 28,0 c 2.209,0 4,1.791 4,4 l 0,0 0,18 c 0,2.209 -1.791,4 -4,4 l 0,0 -28,0 z"/>
</clipPath><clipPath id="clipPath28" clipPathUnits="userSpaceOnUse"><path id="path30" d="M 0,36 36,36 36,0 0,0 0,36 Z"/></clipPath></defs><g xmlns="http://www.w3.org/2000/svg" transform="matrix(1.25,0,0,-1.25,0,45)" id="g10"><path id="path20" style="fill:#eeeeee" d="m 7.5552,27 c 0,2.209 1.791,4 4,4 h 12.89 c 2.209,0 4,-1.791 4,-4 V 9 c 0,-2.209 -1.791,-4 -4,-4 h -12.89 c -2.209,0 -4,1.791 -4,4 z"/><g id="g20"><path id="path30" style="fill:#fcbf49" d="m 19.2256,24.9146 c 0.028,-0.028 0.028,-0.028 0,-0.056 l 1.839,-0.445 v -0.056 l -1.895,0.307 c 0.029,-0.029 0.029,-0.029 0,-0.057 l 1.728,-0.779 -0.028,-0.056 -1.755,0.668 c 0,-0.027 0,-0.027 -0.028,-0.055 l 1.532,-1.115 -0.028,-0.027 -1.615,1.003 c 0,-0.028 -0.028,-0.056 -0.028,-0.084 l 1.281,-1.365 -0.028,-0.028 -1.365,1.282 c -0.028,0 -0.055,-0.028 -0.084,-0.028 l 1.003,-1.616 -0.027,-0.028 -1.115,1.532 c -0.028,-0.028 -0.028,-0.028 -0.055,-0.028 l 0.668,-1.755 -0.056,-0.027 -0.779,1.727 c -0.028,-0.028 -0.028,-0.028 -0.056,0 l 0.306,-1.894 h -0.056 l -0.445,1.838 c -0.028,-0.028 -0.028,-0.028 -0.056,0 l -0.056,-1.894 h -0.055 l -0.056,1.894 c -0.028,-0.028 -0.028,-0.028 -0.056,0 l -0.446,-1.838 h -0.055 l 0.306,1.894 c -0.028,-0.028 -0.028,-0.028 -0.056,0 l -0.78,-1.727 -0.055,0.027 0.668,1.755 c -0.028,0 -0.028,0 -0.055,0.028 l -1.115,-1.532 -0.027,0.028 1.002,1.616 c -0.028,0 -0.055,0.028 -0.083,0.028 l -1.365,-1.282 -0.028,0.028 1.281,1.365 c 0,0.028 -0.028,0.056 -0.028,0.084 l -1.615,-1.003 -0.028,0.027 1.532,1.115 c -0.028,0.028 -0.028,0.028 -0.028,0.055 l -1.755,-0.668 -0.028,0.056 1.727,0.779 c -0.027,0.028 -0.027,0.028 0,0.057 l -1.894,-0.307 v 0.056 l 1.839,0.445 c -0.028,0.028 -0.028,0.028 0,0.056 l -1.895,0.056 v 0.055 l 1.895,0.056 c -0.028,0.028 -0.028,0.028 0,0.056 l -1.839,0.445 v 0.056 l 1.894,-0.306 c -0.027,0.028 -0.027,0.028 0,0.056 l -1.727,0.779 0.028,0.056 1.755,-0.668 c 0,0.027 0,0.027 0.028,0.055 l -1.532,1.115 0.028,0.027 1.615,-1.002 c 0,0.028 0.028,0.056 0.028,0.083 l -1.281,1.365 0.028,0.028 1.365,-1.281 c 0.028,0 0.055,0.028 0.083,0.028 l -1.002,1.615 0.027,0.028 1.115,-1.532 c 0.027,0.028 0.027,0.028 0.055,0.028 l -0.668,1.755 0.055,0.027 0.78,-1.727 c 0.028,0.028 0.028,0.028 0.056,0 l -0.306,1.895 h 0.055 l 0.446,-1.839 c 0.028,0.028 0.028,0.028 0.056,0 l 0.056,1.895 h 0.055 l 0.056,-1.895 c 0.028,0.028 0.028,0.028 0.056,0 l 0.445,1.839 h 0.056 l -0.306,-1.895 c 0.028,0.028 0.028,0.028 0.056,0 l 0.779,1.727 0.056,-0.027 -0.668,-1.755 c 0.027,0 0.027,0 0.055,-0.028 l 1.115,1.532 0.027,-0.028 -1.003,-1.615 c 0.029,0 0.056,-0.028 0.084,-0.028 l 1.365,1.281 0.028,-0.028 -1.281,-1.365 c 0,-0.027 0.028,-0.055 0.028,-0.083 l 1.615,1.002 0.028,-0.027 -1.532,-1.115 c 0.028,-0.028 0.028,-0.028 0.028,-0.055 l 1.755,0.668 0.028,-0.056 -1.728,-0.779 c 0.029,-0.028 0.029,-0.028 0,-0.056 l 1.895,0.306 v -0.056 l -1.839,-0.445 c 0.028,-0.028 0.028,-0.028 0,-0.056 l 1.895,-0.056 v -0.055 z"/><path id="path32" style="fill:#ffffff" d="m 22.6523,18.4521 c 0,-3.287 -2.09,-5.934 -4.652,-5.934 -2.563,0 -4.652,2.647 -4.652,5.934 0,0.083 0,0.167 0.028,0.25 h 9.248 c 0.028,-0.083 0.028,-0.167 0.028,-0.25"/><path id="path34" style="fill:#75aadb" d="m 22.624,18.7026 h -9.248 c 0.083,3.176 2.117,5.683 4.624,5.683 2.507,0 4.541,-2.507 4.624,-5.683"/><path id="path36" style="fill:#da251d" d="m 16.7583,20.1997 c 0,0 0.006,-0.207 0.987,-0.23 1.363,-0.033 1.299,0.25 1.299,0.25 0,0 -0.023,0.381 -0.067,0.577 -0.044,0.195 -0.08,0.187 -0.08,0.187 0,0 0.028,0.287 -0.061,0.607 -0.028,0.1 -0.117,0.2 -0.117,0.2 0,0 -0.019,0.177 -0.086,0.329 -0.068,0.153 -0.168,0.168 -0.168,0.168 0,0 0.004,0.148 -0.139,0.279 -0.098,0.091 -0.22,0.085 -0.22,0.085 0,0 -0.054,0.068 -0.155,0.108 -0.101,0.04 -0.166,0.05 -0.202,0.042 -0.036,-0.008 -0.345,-0.09 -0.428,-0.151 -0.049,-0.036 -0.243,-0.205 -0.376,-0.341 -0.091,-0.092 -0.142,-0.17 -0.142,-0.17 0,0 -0.226,-0.06 -0.197,-0.187 0.031,-0.14 0.133,-0.192 0.256,-0.165 0.179,0.04 0.165,0.142 0.165,0.142 l 0.081,0.01 c 0,0 -0.061,-0.192 -0.127,-0.461 -0.065,-0.269 -0.11,-0.515 -0.11,-0.515 0,0 -0.077,-0.006 -0.101,-0.241 -0.047,-0.464 -0.012,-0.523 -0.012,-0.523"/><path id="path38" style="fill:#8f5444" d="m 18.1377,20.5498 v -7.774 c 0,0 -0.075,-0.188 -0.187,-0.188 -0.113,0 -0.201,0.188 -0.201,0.188 v 7.774 c 0.063,0.013 0.125,0.013 0.201,0.013 0.062,0 0.125,0 0.187,-0.013"/><path id="path40" style="fill:#ef9ba0" d="m 22.4014,16.5303 c -0.167,-0.613 -0.418,-1.198 -0.752,-1.699 -0.111,0.055 -0.335,0.222 -0.725,0.529 -0.612,0.473 -0.807,0.612 -1.086,0.808 -0.279,0.222 -0.501,0.418 -0.501,0.418 h -0.139 c -0.084,0.027 -0.14,0.055 -0.14,0.055 0,0 -0.028,-0.055 -0.083,-0.055 -0.056,0 -0.112,0.055 -0.112,0.055 0,0 0.028,-0.084 -0.028,-0.139 -0.055,-0.056 -0.167,-0.029 -0.167,-0.029 0,0 -0.028,-0.055 -0.139,-0.111 -0.111,-0.056 -0.195,-0.027 -0.195,-0.027 0,0 0,-0.084 -0.223,-0.084 -0.223,0 -0.306,0.055 -0.306,0.055 0,0 -0.028,-0.083 -0.196,-0.083 -0.139,0 -0.166,0.167 -0.166,0.167 0,0 -0.028,-0.139 -0.14,-0.111 -0.139,0.027 -0.139,0.139 -0.139,0.139 0,0 -0.056,-0.083 -0.195,-0.028 -0.111,0.028 -0.111,0.14 -0.111,0.14 0,0 -0.167,-0.195 -0.251,0 -0.056,0.194 0.056,0.25 0.056,0.25 0,0 -0.112,0.056 -0.418,-0.083 -0.307,-0.14 -0.418,-0.307 -1.115,-0.613 -0.417,-0.196 -0.835,-0.474 -1.086,-0.668 -0.307,0.585 -0.501,1.225 -0.613,1.893 0.251,0.084 0.585,0.168 0.975,0.251 0.334,0.056 0.669,0.223 1.059,0.279 0.25,0.056 0.445,0.027 0.641,0.084 0.139,0.027 0.306,0.083 0.501,0.139 0.278,0.055 0.557,0.055 0.557,0.055 0,0 0.251,0.14 0.501,0.251 0.223,0.139 0.418,0.279 0.613,0.279 0.195,0 0.279,-0.056 0.585,-0.307 0.278,-0.25 0.307,-0.223 0.864,-0.641 0.278,-0.194 1.253,-0.668 1.811,-0.835 0.334,-0.111 0.64,-0.251 0.863,-0.334"/><path id="path42" style="fill:#00923f" d="m 16.9771,11.3115 c -0.11,-0.113 -0.164,-0.246 -0.169,-0.396 0.698,0.172 1.315,0.426 1.884,0.726 -0.604,-0.167 -1.185,-0.294 -1.715,-0.33 m -0.278,13.783 c 0,0 1.258,-0.527 1.303,-0.361 0.046,0.166 -1.303,0.361 -1.303,0.361 m 1.303,-0.361 c 0,0 -0.661,-0.053 -0.524,-0.292 0.138,-0.24 0.524,0.292 0.524,0.292 m -1.229,0.038 c 0,0 -0.413,-0.055 -0.287,-0.218 0.126,-0.162 0.287,0.218 0.287,0.218 m -0.024,-0.525 c 0,0 -0.386,0.153 -0.356,-0.05 0.031,-0.203 0.356,0.05 0.356,0.05 m -0.6,-0.275 c 0,0 -0.391,0.141 -0.355,-0.061 0.037,-0.203 0.355,0.061 0.355,0.061 m -0.513,-0.351 c 0,0 -0.391,0.143 -0.355,-0.06 0.035,-0.203 0.355,0.06 0.355,0.06 m -0.349,-0.267 c 0,0 -0.395,0.128 -0.352,-0.073 0.043,-0.201 0.352,0.073 0.352,0.073 m -0.358,-0.312 c 0,0 -0.388,0.15 -0.355,-0.053 0.032,-0.203 0.355,0.053 0.355,0.053 m -2.082,-6.982 c 0,0 0.077,-0.41 0.233,-0.274 0.156,0.135 -0.233,0.274 -0.233,0.274 m 2.993,8.376 c 0,0 -0.581,-0.319 -0.358,-0.482 0.223,-0.162 0.358,0.482 0.358,0.482 m -0.765,-0.299 c 0,0 -0.414,-0.517 -0.146,-0.582 0.269,-0.064 0.146,0.582 0.146,0.582 m -0.701,-0.242 c 0,0 -0.339,-0.57 -0.064,-0.597 0.274,-0.027 0.064,0.597 0.064,0.597 m 0.181,-1.079 c 0,0 -0.653,-0.118 -0.493,-0.343 0.161,-0.225 0.493,0.343 0.493,0.343 m -0.534,0.434 c 0,0 -0.407,-0.524 -0.138,-0.584 0.27,-0.061 0.138,0.584 0.138,0.584 m -0.449,0 c 0,0 -0.354,-0.561 -0.08,-0.595 0.274,-0.033 0.08,0.595 0.08,0.595 m 0.292,-1.87 c 0,0 -0.628,-0.213 -0.437,-0.412 0.192,-0.198 0.437,0.412 0.437,0.412 m -0.149,-0.424 c 0,0 -0.631,-0.205 -0.442,-0.406 0.189,-0.201 0.442,0.406 0.442,0.406 m -1.35,-0.96 c 0,0 -0.107,-0.654 0.158,-0.579 0.266,0.077 -0.158,0.579 -0.158,0.579 m 1.084,-0.157 c 0,0 -0.596,-0.292 -0.381,-0.464 0.216,-0.173 0.381,0.464 0.381,0.464 m -0.155,-0.6 c 0,0 -0.552,-0.367 -0.316,-0.51 0.236,-0.143 0.316,0.51 0.316,0.51 m 0.033,-0.512 c 0,0 -0.498,-0.439 -0.245,-0.549 0.254,-0.109 0.245,0.549 0.245,0.549 m -1.369,-0.691 c 0,0 0.205,-0.631 0.406,-0.443 0.201,0.189 -0.406,0.443 -0.406,0.443 m 1.527,-1.496 c 0,0 -0.258,-0.612 0.017,-0.601 0.276,0.012 -0.017,0.601 -0.017,0.601 m 0.326,-0.868 c 0,0 -0.299,-0.591 -0.023,-0.599 0.276,-0.007 0.023,0.599 0.023,0.599 m -0.574,-0.992 c 0,0 0.376,-0.546 0.515,-0.307 0.139,0.239 -0.515,0.307 -0.515,0.307 m 1.033,0.132 c 0,0 -0.147,-0.646 0.122,-0.587 0.27,0.059 -0.122,0.587 -0.122,0.587 m 0.597,-0.854 c 0,0 -0.237,-0.62 0.039,-0.598 0.275,0.02 -0.039,0.598 -0.039,0.598 m -0.701,-0.977 c 0,0 0.493,-0.444 0.573,-0.181 0.08,0.265 -0.573,0.181 -0.573,0.181 m 1.355,0.257 c 0,0 0.011,-0.663 0.259,-0.542 0.248,0.122 -0.259,0.542 -0.259,0.542 m 0.963,-0.557 c 0,0 0.11,-0.654 0.337,-0.497 0.226,0.157 -0.337,0.497 -0.337,0.497 m -0.573,-0.777 c 0,0 0.545,-0.378 0.59,-0.107 0.046,0.273 -0.59,0.107 -0.59,0.107 m -1.772,10.359 c 0,0 -1.02,-0.488 -0.76,-0.748 0.26,-0.261 0.76,0.748 0.76,0.748 m -0.94,0.23 c 0,0 -0.485,-1.022 -0.118,-1.06 0.365,-0.038 0.118,1.06 0.118,1.06 m -0.836,-1.244 c 0,0 -0.055,-1.13 0.298,-1.025 0.352,0.106 -0.298,1.025 -0.298,1.025 m -0.439,-1.672 c 0,0 0.05,-1.13 0.391,-0.992 0.341,0.138 -0.391,0.992 -0.391,0.992 m -0.1,-2.433 c 0,0 0.812,-0.787 0.966,-0.453 0.153,0.335 -0.966,0.453 -0.966,0.453 m 1.614,0.331 c 0,0 -0.524,-1.002 -0.161,-1.055 0.365,-0.052 0.161,1.055 0.161,1.055 m -0.652,-1.802 c 0,0 0.66,-0.919 0.87,-0.617 0.21,0.303 -0.87,0.617 -0.87,0.617 m 0.979,-1.884 c 0,0 0.577,-0.974 0.813,-0.691 0.236,0.282 -0.813,0.691 -0.813,0.691 m 0.688,-1.359 c 0,0 1.042,-0.44 1.064,-0.073 0.022,0.367 -1.064,0.073 -1.064,0.073 m 1.38,0.613 c 0,0 0.334,-1.08 0.63,-0.86 0.295,0.22 -0.63,0.86 -0.63,0.86 m 1.475,-1.401 c 0.569,-0.3 1.186,-0.554 1.884,-0.726 -0.005,0.15 -0.058,0.283 -0.17,0.396 -0.529,0.036 -1.11,0.163 -1.714,0.33 m 0.69,13.092 c 0.045,-0.166 1.303,0.361 1.303,0.361 0,0 -1.349,-0.195 -1.303,-0.361 m 0.523,-0.292 c 0.138,0.239 -0.523,0.292 -0.523,0.292 0,0 0.386,-0.532 0.523,-0.292 m 0.993,0.112 c 0.126,0.163 -0.287,0.218 -0.287,0.218 0,0 0.161,-0.38 0.287,-0.218 m 0.092,-0.357 c 0.032,0.203 -0.356,0.05 -0.356,0.05 0,0 0.326,-0.253 0.356,-0.05 m 0.6,-0.286 c 0.036,0.202 -0.354,0.061 -0.354,0.061 0,0 0.317,-0.264 0.354,-0.061 m 0.514,-0.35 c 0.035,0.203 -0.356,0.06 -0.356,0.06 0,0 0.32,-0.263 0.356,-0.06 m 0.345,-0.28 c 0.043,0.201 -0.352,0.073 -0.352,0.073 0,0 0.308,-0.274 0.352,-0.073 m 0.362,-0.292 c 0.032,0.203 -0.357,0.053 -0.357,0.053 0,0 0.324,-0.256 0.357,-0.053 m 1.493,-7.203 c 0.156,-0.136 0.232,0.274 0.232,0.274 0,0 -0.388,-0.139 -0.232,-0.274 m -2.402,8.168 c 0.223,0.163 -0.358,0.482 -0.358,0.482 0,0 0.135,-0.644 0.358,-0.482 m 0.553,-0.399 c 0.268,0.065 -0.146,0.582 -0.146,0.582 0,0 -0.122,-0.646 0.146,-0.582 m 0.619,-0.257 c 0.275,0.027 -0.064,0.597 -0.064,0.597 0,0 -0.21,-0.624 0.064,-0.597 m 0.247,-0.825 c 0.161,0.225 -0.492,0.343 -0.492,0.343 0,0 0.332,-0.568 0.492,-0.343 m 0.179,0.193 c 0.27,0.06 -0.138,0.584 -0.138,0.584 0,0 -0.13,-0.645 0.138,-0.584 m 0.392,-0.011 c 0.274,0.034 -0.08,0.595 -0.08,0.595 0,0 -0.194,-0.628 0.08,-0.595 m 0.064,-1.687 c 0.193,0.199 -0.436,0.412 -0.436,0.412 0,0 0.245,-0.61 0.436,-0.412 m 0.155,-0.418 c 0.189,0.201 -0.442,0.406 -0.442,0.406 0,0 0.253,-0.607 0.442,-0.406 m 0.75,-1.133 c 0.265,-0.075 0.158,0.579 0.158,0.579 0,0 -0.424,-0.502 -0.158,-0.579 m -0.545,-0.042 c 0.215,0.172 -0.38,0.464 -0.38,0.464 0,0 0.164,-0.637 0.38,-0.464 m 0.089,-0.646 c 0.237,0.143 -0.315,0.51 -0.315,0.51 0,0 0.08,-0.653 0.315,-0.51 m -0.104,-0.551 c 0.254,0.11 -0.243,0.549 -0.243,0.549 0,0 -0.01,-0.658 0.243,-0.549 m 0.719,-0.585 c 0.201,-0.188 0.405,0.443 0.405,0.443 0,0 -0.606,-0.254 -0.405,-0.443 m -1.138,-1.654 c 0.275,-0.011 0.018,0.601 0.018,0.601 0,0 -0.294,-0.589 -0.018,-0.601 m -0.286,-0.866 c 0.276,0.008 -0.023,0.599 -0.023,0.599 0,0 -0.253,-0.606 0.023,-0.599 m 0.036,-0.7 c 0.139,-0.239 0.515,0.307 0.515,0.307 0,0 -0.654,-0.068 -0.515,-0.307 m -0.641,-0.148 c 0.27,-0.059 0.123,0.587 0.123,0.587 0,0 -0.391,-0.528 -0.123,-0.587 m -0.513,-0.865 c 0.275,-0.022 0.039,0.598 0.039,0.598 0,0 -0.314,-0.578 -0.039,-0.598 m 0.168,-0.56 c 0.079,-0.263 0.572,0.181 0.572,0.181 0,0 -0.652,0.084 -0.572,-0.181 m -1.042,-0.104 c 0.248,-0.121 0.258,0.542 0.258,0.542 0,0 -0.505,-0.42 -0.258,-0.542 m -1.04,-0.512 c 0.226,-0.157 0.336,0.497 0.336,0.497 0,0 -0.563,-0.34 -0.336,-0.497 m 0.318,-0.387 c 0.047,-0.271 0.591,0.107 0.591,0.107 0,0 -0.637,0.166 -0.591,-0.107 m 3.123,9.718 c 0.26,0.26 -0.761,0.748 -0.761,0.748 0,0 0.501,-1.009 0.761,-0.748 m 0.299,-0.082 c 0.365,0.038 -0.119,1.06 -0.119,1.06 0,0 -0.247,-1.098 0.119,-1.06 m 0.42,-1.209 c 0.351,-0.105 0.297,1.025 0.297,1.025 0,0 -0.65,-0.919 -0.297,-1.025 m 0.345,-1.639 c 0.34,-0.138 0.391,0.992 0.391,0.992 0,0 -0.732,-0.854 -0.391,-0.992 m -0.475,-1.894 c 0.154,-0.334 0.966,0.453 0.966,0.453 0,0 -1.119,-0.118 -0.966,-0.453 m -0.487,-0.271 c 0.364,0.053 -0.162,1.055 -0.162,1.055 0,0 -0.203,-1.107 0.162,-1.055 m -0.379,-1.364 c 0.21,-0.302 0.87,0.617 0.87,0.617 0,0 -1.08,-0.314 -0.87,-0.617 m -0.922,-1.958 c 0.236,-0.283 0.813,0.691 0.813,0.691 0,0 -1.049,-0.409 -0.813,-0.691 m -0.939,-0.741 c 0.022,-0.367 1.064,0.073 1.064,0.073 0,0 -1.086,0.294 -1.064,-0.073 m -0.316,0.686 c 0,0 -0.335,-1.08 -0.63,-0.86 -0.295,0.22 0.63,0.86 0.63,0.86"/><path id="path44" style="fill:#ffffff" d="m 17.4839,12.0088 c 0.072,-0.122 0.278,-0.355 0.516,-0.589 0.24,0.234 0.445,0.468 0.517,0.59 -0.072,0 -0.15,-0.011 -0.212,-0.02 -0.192,-0.025 -0.417,-0.025 -0.61,0 -0.062,0.008 -0.162,0.028 -0.211,0.019 m 0.747,-1.33 c -0.06,0.133 -0.142,0.297 -0.167,0.33 -0.007,0.006 -0.037,0.018 -0.064,0.025 -0.028,-0.007 -0.057,-0.02 -0.067,-0.028 -0.022,-0.03 -0.104,-0.194 -0.163,-0.327 l -0.293,0.131 c 0.043,0.095 0.15,0.326 0.211,0.402 0.01,0.011 0.021,0.023 0.032,0.031 -0.71,0.699 -0.601,0.86 -0.546,0.941 0.125,0.181 0.359,0.153 0.562,0.124 0.168,-0.023 0.36,-0.023 0.528,0 0.205,0.029 0.435,0.057 0.562,-0.124 0.055,-0.081 0.165,-0.242 -0.546,-0.939 0.011,-0.009 0.021,-0.02 0.03,-0.031 0.064,-0.078 0.171,-0.309 0.214,-0.404 z"/></g></g></svg>