<svg xmlns:dc="http://purl.org/dc/elements/1.1/" xmlns:cc="http://creativecommons.org/ns#" xmlns:rdf="http://www.w3.org/1999/02/22-rdf-syntax-ns#" xmlns:svg="http://www.w3.org/2000/svg" xmlns="http://www.w3.org/2000/svg" viewBox="0 0 45 45" style="enable-background:new 0 0 45 45;" xml:space="preserve" version="1.1" id="svg2"><metadata id="metadata8"><rdf:RDF><cc:Work rdf:about=""><dc:format>image/svg+xml</dc:format><dc:type rdf:resource="http://purl.org/dc/dcmitype/StillImage"/></cc:Work></rdf:RDF></metadata><defs id="defs6"><clipPath id="clipPath16" clipPathUnits="userSpaceOnUse"><path id="path18" d="M 4,31 C 1.791,31 0,29.209 0,27 L 0,27 0,9 C 0,6.791 1.791,5 4,5 l 0,0 28,0 c 2.209,0 4,1.791 4,4 l 0,0 0,18 c 0,2.209 -1.791,4 -4,4 l 0,0 -28,0 z"/></clipPath></defs><g transform="matrix(1.25,0,0,-1.25,0,45)" id="g10"><g id="g12"><g xmlns="http://www.w3.org/2000/svg" clip-path="url(#clipPath16)" id="g14"><g id="g30"><path id="path20" style="fill:#eeeeee;fill-opacity:1;fill-rule:nonzero;stroke:none" d="m 36,27 c 0,2.209 -1.791,4 -4,4 L 4,31 C 1.791,31 0,29.209 0,27 L 0,9 C 0,6.791 1.791,5 4,5 l 28,0 c 2.209,0 4,1.791 4,4 l 0,18 z"/></g><g id="g32"><path id="path31" style="fill:#90872e;fill-opacity:1;fill-rule:nonzero;stroke:none" d="m 7.9795,13.1592 c -0.052,0.023 -0.078,0.036 -0.13,0.061 0.009,0.043 0.014,0.065 0.024,0.108 -0.011,0.015 -0.03,0.032 -0.056,0.053 -0.025,0.019 -0.054,0.036 -0.087,0.051 -0.046,0.024 -0.086,0.034 -0.12,0.029 -0.034,-0.004 -0.057,-0.019 -0.07,-0.045 -0.012,-0.025 -0.008,-0.05 0.011,-0.079 0.019,-0.029 0.058,-0.07 0.116,-0.117 0.083,-0.068 0.144,-0.131 0.177,-0.191 0.032,-0.059 0.035,-0.118 0.008,-0.178 -0.029,-0.06 -0.081,-0.095 -0.158,-0.103 -0.077,-0.008 -0.164,0.013 -0.261,0.059 -0.07,0.034 -0.128,0.075 -0.176,0.12 -0.047,0.045 -0.081,0.093 -0.102,0.143 l 0.074,0.149 c 0.054,-0.028 0.081,-0.041 0.134,-0.068 -0.012,-0.044 -0.018,-0.066 -0.031,-0.11 0.012,-0.021 0.031,-0.041 0.057,-0.065 0.027,-0.022 0.059,-0.042 0.096,-0.06 0.048,-0.024 0.089,-0.032 0.122,-0.029 0.032,0.003 0.056,0.02 0.068,0.046 0.013,0.029 0.012,0.056 -0.004,0.084 -0.016,0.028 -0.05,0.064 -0.103,0.107 -0.09,0.074 -0.154,0.141 -0.189,0.201 -0.036,0.06 -0.039,0.119 -0.01,0.177 0.028,0.056 0.081,0.089 0.158,0.096 0.077,0.008 0.159,-0.008 0.248,-0.05 0.065,-0.032 0.121,-0.07 0.167,-0.112 0.046,-0.042 0.081,-0.086 0.105,-0.131 -0.027,-0.058 -0.041,-0.087 -0.068,-0.146"/><path id="path32" style="fill:#90872e;fill-opacity:1;fill-rule:nonzero;stroke:none" d="m 8.7729,13.082 c -0.013,-0.029 -0.019,-0.044 -0.031,-0.073 -0.263,-0.146 -0.397,-0.216 -0.667,-0.354 0.123,-0.055 0.185,-0.083 0.308,-0.136 0.021,0.032 0.032,0.048 0.053,0.081 0.054,-0.024 0.081,-0.036 0.135,-0.058 -0.039,-0.078 -0.059,-0.116 -0.099,-0.194 -0.267,0.114 -0.4,0.172 -0.664,0.296 0.014,0.029 0.021,0.044 0.035,0.075 0.27,0.133 0.404,0.202 0.668,0.342 -0.111,0.049 -0.166,0.074 -0.275,0.124 -0.022,-0.033 -0.032,-0.049 -0.054,-0.082 -0.053,0.024 -0.079,0.037 -0.133,0.061 0.042,0.077 0.063,0.115 0.105,0.192 0.246,-0.113 0.37,-0.168 0.619,-0.274"/><path id="path33" style="fill:#90872e;fill-opacity:1;fill-rule:nonzero;stroke:none" d="m 8.9507,12.5068 c 0.081,-0.033 0.122,-0.05 0.204,-0.082 10e-4,0.119 0.002,0.18 0.004,0.299 -0.002,0 -0.002,10e-4 -0.004,10e-4 -0.081,-0.087 -0.122,-0.131 -0.204,-0.218 m -0.413,-0.083 c 0.026,-0.008 0.04,-0.012 0.066,-0.02 0.216,0.208 0.323,0.314 0.533,0.526 0.071,-0.029 0.107,-0.043 0.179,-0.072 0.003,-0.298 0.006,-0.448 0.016,-0.747 0.025,-0.013 0.037,-0.019 0.061,-0.032 -0.013,-0.036 -0.02,-0.053 -0.033,-0.09 -0.124,0.047 -0.185,0.072 -0.308,0.121 0.014,0.035 0.021,0.052 0.035,0.088 0.027,-0.006 0.04,-0.009 0.066,-0.015 0,0.047 0,0.07 0.001,0.117 -0.116,0.046 -0.174,0.068 -0.289,0.116 -0.033,-0.034 -0.049,-0.051 -0.081,-0.085 l 0.058,-0.034 c -0.015,-0.035 -0.022,-0.053 -0.036,-0.089 -0.123,0.051 -0.184,0.076 -0.306,0.128 0.015,0.035 0.023,0.053 0.038,0.088"/><path id="path34" style="fill:#90872e;fill-opacity:1;fill-rule:nonzero;stroke:none" d="m 9.7798,12.207 c -0.031,-0.086 -0.047,-0.129 -0.079,-0.215 0.067,-0.025 0.1,-0.037 0.168,-0.061 0.048,-0.017 0.088,-0.021 0.119,-0.013 0.031,0.008 0.053,0.029 0.065,0.063 0.013,0.038 0.012,0.069 -0.002,0.095 -0.016,0.027 -0.045,0.049 -0.092,0.066 -0.072,0.026 -0.107,0.039 -0.179,0.065 m 0.038,0.104 c 0.051,-0.02 0.077,-0.029 0.129,-0.047 0.047,-0.018 0.087,-0.023 0.119,-0.015 0.031,0.006 0.052,0.025 0.064,0.058 0.011,0.034 0.008,0.064 -0.012,0.089 -0.02,0.027 -0.056,0.048 -0.107,0.067 -0.048,0.017 -0.072,0.026 -0.121,0.044 -0.029,-0.079 -0.043,-0.118 -0.072,-0.196 m 0.235,0.267 c 0.103,-0.037 0.178,-0.083 0.225,-0.138 0.046,-0.054 0.058,-0.115 0.035,-0.183 -0.012,-0.035 -0.034,-0.063 -0.065,-0.082 -0.031,-0.021 -0.071,-0.03 -0.117,-0.029 0.05,-0.028 0.084,-0.063 0.1,-0.103 0.015,-0.041 0.017,-0.082 0.003,-0.124 -0.025,-0.072 -0.073,-0.116 -0.142,-0.134 -0.071,-0.016 -0.159,-0.007 -0.264,0.031 -0.179,0.065 -0.269,0.097 -0.447,0.165 0.014,0.036 0.021,0.054 0.034,0.089 0.041,-0.008 0.061,-0.012 0.102,-0.02 0.08,0.213 0.119,0.319 0.2,0.532 -0.036,0.02 -0.053,0.03 -0.088,0.051 0.013,0.036 0.02,0.053 0.034,0.09 0.037,-0.015 0.056,-0.022 0.093,-0.036 0.119,-0.044 0.178,-0.066 0.297,-0.109"/><path id="path35" style="fill:#90872e;fill-opacity:1;fill-rule:nonzero;stroke:none" d="m 10.9629,11.8633 c 0.024,0.078 0.024,0.148 0.001,0.209 -0.023,0.061 -0.073,0.103 -0.148,0.127 -0.075,0.024 -0.139,0.018 -0.192,-0.018 -0.053,-0.037 -0.093,-0.093 -0.119,-0.172 -10e-4,-0.004 -0.002,-0.007 -0.003,-0.012 -0.027,-0.079 -0.029,-0.15 -0.007,-0.21 0.023,-0.062 0.072,-0.105 0.149,-0.129 0.077,-0.024 0.143,-0.02 0.197,0.018 0.054,0.037 0.094,0.094 0.118,0.174 0.002,0.005 0.003,0.008 0.004,0.013 m 0.177,-0.067 c -0.033,-0.113 -0.099,-0.193 -0.198,-0.242 -0.099,-0.048 -0.211,-0.054 -0.336,-0.014 -0.124,0.04 -0.212,0.109 -0.264,0.206 -0.052,0.097 -0.059,0.201 -0.021,0.311 0.002,0.005 0.002,0.007 0.004,0.012 0.037,0.108 0.105,0.188 0.203,0.234 0.098,0.048 0.206,0.052 0.326,0.014 0.12,-0.039 0.206,-0.105 0.259,-0.201 0.054,-0.096 0.064,-0.199 0.031,-0.31 -0.002,-0.004 -0.002,-0.005 -0.004,-0.01"/><path id="path36" style="fill:#90872e;fill-opacity:1;fill-rule:nonzero;stroke:none" d="m 11.063,11.4111 c 0.011,0.036 0.016,0.055 0.027,0.092 0.041,-0.006 0.062,-0.009 0.103,-0.014 0.064,0.218 0.096,0.327 0.16,0.545 -0.036,0.018 -0.055,0.026 -0.091,0.045 0.011,0.036 0.017,0.055 0.028,0.092 0.038,-0.011 0.057,-0.017 0.095,-0.029 0.072,-0.02 0.107,-0.031 0.179,-0.051 0.039,-0.011 0.058,-0.017 0.096,-0.028 -0.011,-0.037 -0.016,-0.055 -0.026,-0.092 -0.041,0.004 -0.061,0.006 -0.101,0.011 -0.061,-0.215 -0.092,-0.322 -0.153,-0.537 0.103,-0.029 0.156,-0.044 0.26,-0.072 0.014,0.037 0.021,0.056 0.035,0.093 0.056,-0.015 0.084,-0.023 0.14,-0.038 -0.022,-0.085 -0.034,-0.128 -0.056,-0.213 -0.279,0.074 -0.419,0.113 -0.696,0.196"/><path id="path37" style="fill:#90872e;fill-opacity:1;fill-rule:nonzero;stroke:none" d="m 12.6528,11.5332 c -0.055,0.013 -0.082,0.019 -0.136,0.031 0.002,0.044 0.003,0.066 0.006,0.109 -0.015,0.019 -0.035,0.036 -0.059,0.051 -0.025,0.016 -0.057,0.029 -0.093,0.038 -0.079,0.019 -0.146,0.009 -0.201,-0.029 -0.055,-0.037 -0.093,-0.095 -0.113,-0.173 -0.003,-0.01 -0.004,-0.015 -0.007,-0.026 -0.02,-0.078 -0.015,-0.147 0.016,-0.207 0.03,-0.061 0.086,-0.101 0.165,-0.12 0.036,-0.009 0.071,-0.013 0.103,-0.011 0.033,0.002 0.059,0.008 0.079,0.019 0.018,0.039 0.027,0.059 0.044,0.098 0.055,-0.012 0.083,-0.019 0.138,-0.032 -0.014,-0.061 -0.022,-0.092 -0.036,-0.152 -0.046,-0.028 -0.1,-0.045 -0.164,-0.053 -0.063,-0.007 -0.131,-0.003 -0.203,0.015 -0.125,0.031 -0.219,0.093 -0.279,0.185 -0.061,0.092 -0.076,0.194 -0.046,0.306 0.003,0.01 0.004,0.015 0.007,0.025 0.029,0.112 0.092,0.193 0.188,0.243 0.096,0.052 0.204,0.063 0.325,0.033 0.07,-0.017 0.131,-0.043 0.182,-0.079 0.051,-0.035 0.09,-0.074 0.12,-0.119 -0.015,-0.06 -0.022,-0.091 -0.036,-0.152"/><path id="path38" style="fill:#90872e;fill-opacity:1;fill-rule:nonzero;stroke:none" d="m 13.397,11.3877 c -0.055,0.011 -0.083,0.017 -0.138,0.028 -0.001,0.044 -0.001,0.067 -0.002,0.111 -0.014,0.011 -0.035,0.024 -0.065,0.037 -0.029,0.013 -0.061,0.023 -0.095,0.03 -0.05,0.011 -0.09,0.011 -0.121,-0.002 -0.032,-0.012 -0.05,-0.031 -0.057,-0.06 -0.005,-0.027 0.004,-0.051 0.029,-0.075 0.025,-0.022 0.072,-0.052 0.137,-0.085 0.095,-0.046 0.168,-0.092 0.213,-0.142 0.045,-0.05 0.061,-0.107 0.048,-0.17 -0.013,-0.067 -0.055,-0.112 -0.126,-0.138 -0.072,-0.026 -0.159,-0.028 -0.263,-0.007 -0.075,0.016 -0.14,0.041 -0.195,0.074 -0.055,0.032 -0.099,0.071 -0.131,0.114 0.016,0.064 0.023,0.098 0.037,0.162 0.058,-0.014 0.086,-0.02 0.144,-0.032 -0.002,-0.046 -0.003,-0.07 -0.005,-0.116 0.016,-0.016 0.039,-0.032 0.069,-0.047 0.031,-0.016 0.066,-0.028 0.106,-0.036 0.051,-0.011 0.092,-0.01 0.123,0 0.029,0.012 0.048,0.034 0.054,0.062 0.006,0.031 -0.002,0.058 -0.023,0.081 -0.022,0.024 -0.062,0.05 -0.122,0.078 -0.104,0.05 -0.18,0.1 -0.227,0.15 -0.048,0.048 -0.065,0.105 -0.051,0.168 0.015,0.063 0.058,0.107 0.129,0.132 0.072,0.027 0.154,0.031 0.248,0.011 0.07,-0.015 0.132,-0.038 0.185,-0.067 0.054,-0.031 0.098,-0.064 0.131,-0.102 -0.013,-0.063 -0.019,-0.096 -0.032,-0.159"/><path id="path39" style="fill:#90872e;fill-opacity:1;fill-rule:nonzero;stroke:none" d="m 13.8022,11.0449 c -0.145,0.025 -0.217,0.039 -0.361,0.067 0.009,0.048 0.014,0.073 0.024,0.12 0.143,-0.027 0.214,-0.041 0.358,-0.066 -0.008,-0.049 -0.013,-0.073 -0.021,-0.121"/><path id="path40" style="fill:#90872e;fill-opacity:1;fill-rule:nonzero;stroke:none" d="m 14.6211,11.1777 c -0.056,0.008 -0.083,0.013 -0.139,0.021 -0.003,0.044 -0.005,0.066 -0.008,0.111 -0.014,0.011 -0.036,0.021 -0.066,0.033 -0.03,0.012 -0.062,0.02 -0.097,0.025 -0.049,0.008 -0.09,0.006 -0.121,-0.008 -0.03,-0.014 -0.048,-0.035 -0.052,-0.063 -0.005,-0.027 0.006,-0.051 0.032,-0.073 0.026,-0.022 0.074,-0.049 0.141,-0.078 0.097,-0.041 0.172,-0.083 0.219,-0.131 0.048,-0.047 0.067,-0.103 0.057,-0.168 -0.009,-0.066 -0.049,-0.114 -0.118,-0.144 -0.071,-0.03 -0.158,-0.037 -0.262,-0.02 -0.075,0.013 -0.141,0.034 -0.198,0.063 -0.057,0.03 -0.102,0.066 -0.136,0.108 0.011,0.065 0.017,0.097 0.028,0.163 0.058,-0.011 0.087,-0.016 0.145,-0.025 0,-0.046 0.001,-0.069 0.001,-0.115 0.017,-0.015 0.041,-0.03 0.072,-0.045 0.031,-0.013 0.066,-0.023 0.106,-0.029 0.052,-0.009 0.093,-0.006 0.123,0.007 0.029,0.014 0.046,0.035 0.051,0.064 0.004,0.032 -0.005,0.057 -0.028,0.079 -0.022,0.023 -0.064,0.047 -0.125,0.073 -0.106,0.044 -0.184,0.09 -0.234,0.136 -0.05,0.047 -0.07,0.103 -0.059,0.166 0.011,0.064 0.052,0.11 0.122,0.139 0.069,0.03 0.151,0.038 0.246,0.023 0.071,-0.01 0.133,-0.03 0.188,-0.057 0.055,-0.026 0.1,-0.058 0.135,-0.095 -0.009,-0.063 -0.014,-0.096 -0.023,-0.16"/><path id="path41" style="fill:#90872e;fill-opacity:1;fill-rule:nonzero;stroke:none" d="m 15.3887,11.335 c -0.003,-0.032 -0.005,-0.048 -0.009,-0.08 -0.206,-0.215 -0.312,-0.32 -0.528,-0.531 0.132,-0.017 0.197,-0.026 0.329,-0.041 l 0.026,0.092 c 0.057,-0.005 0.086,-0.009 0.143,-0.015 -0.015,-0.086 -0.023,-0.129 -0.038,-0.215 -0.283,0.032 -0.424,0.05 -0.707,0.09 0.005,0.033 0.007,0.05 0.012,0.082 0.217,0.207 0.323,0.311 0.531,0.522 -0.117,0.015 -0.176,0.023 -0.293,0.038 -0.01,-0.038 -0.016,-0.056 -0.027,-0.093 l -0.142,0.019 c 0.018,0.086 0.027,0.129 0.045,0.215 0.263,-0.037 0.394,-0.054 0.658,-0.083"/><path id="path42" style="fill:#90872e;fill-opacity:1;fill-rule:nonzero;stroke:none" d="m 15.7168,10.8359 c 0.086,-0.009 0.129,-0.013 0.215,-0.02 -0.033,0.115 -0.048,0.172 -0.08,0.287 -0.002,10e-4 -0.003,10e-4 -0.004,10e-4 -0.052,-0.108 -0.078,-0.162 -0.131,-0.268 m -0.366,-0.199 0.069,0 c 0.144,0.262 0.215,0.393 0.353,0.657 0.076,-0.007 0.113,-0.011 0.189,-0.017 0.087,-0.285 0.132,-0.426 0.226,-0.711 0.026,-0.004 0.04,-0.007 0.067,-0.012 -0.003,-0.038 -0.005,-0.058 -0.008,-0.096 -0.129,0.01 -0.194,0.015 -0.323,0.026 0.003,0.039 0.005,0.057 0.008,0.095 0.027,0.002 0.04,0.003 0.067,0.004 -0.013,0.045 -0.02,0.067 -0.033,0.112 -0.122,0.011 -0.183,0.017 -0.305,0.029 -0.021,-0.042 -0.031,-0.063 -0.052,-0.105 0.025,-0.006 0.038,-0.01 0.064,-0.015 -0.003,-0.039 -0.005,-0.058 -0.009,-0.096 -0.129,0.013 -0.194,0.019 -0.323,0.034 0.004,0.038 0.006,0.057 0.01,0.095"/><path id="path43" style="fill:#90872e;fill-opacity:1;fill-rule:nonzero;stroke:none" d="m 17.043,11.207 c -0.004,-0.085 -0.005,-0.127 -0.009,-0.212 -0.057,0.003 -0.086,0.004 -0.143,0.007 -10e-4,0.035 -0.002,0.054 -0.004,0.089 -0.068,0.003 -0.102,0.005 -0.17,0.009 -0.012,-0.223 -0.018,-0.335 -0.031,-0.558 0.041,-0.009 0.061,-0.013 0.101,-0.022 -0.002,-0.038 -0.003,-0.057 -0.005,-0.095 -0.158,0.008 -0.237,0.012 -0.395,0.023 0.003,0.038 0.004,0.058 0.007,0.096 0.041,0.004 0.061,0.006 0.103,0.01 0.014,0.222 0.021,0.334 0.035,0.556 -0.068,0.005 -0.102,0.007 -0.17,0.012 -0.006,-0.035 -0.008,-0.053 -0.014,-0.088 -0.056,0.004 -0.085,0.006 -0.142,0.011 0.006,0.084 0.01,0.126 0.016,0.211 0.328,-0.026 0.492,-0.035 0.821,-0.049"/><path id="path44" style="fill:#90872e;fill-opacity:1;fill-rule:nonzero;stroke:none" d="m 17.9531,10.9795 -0.004,0 c -0.1,-0.234 -0.152,-0.352 -0.258,-0.584 -0.051,0 -0.076,10e-4 -0.128,0.002 -0.097,0.235 -0.144,0.353 -0.236,0.591 l -0.004,0 c 0.003,-0.14 0.005,-0.21 0.007,-0.35 -0.001,-0.05 -0.002,-0.074 -0.003,-0.124 0.04,-0.008 0.061,-0.012 0.101,-0.018 -0.001,-0.039 -0.001,-0.058 -0.002,-0.096 -0.158,0.004 -0.237,0.007 -0.394,0.013 0.001,0.038 0.002,0.057 0.004,0.095 0.04,0.005 0.061,0.008 0.101,0.013 0.008,0.227 0.012,0.341 0.021,0.567 -0.039,0.008 -0.059,0.013 -0.098,0.021 0.002,0.038 0.002,0.057 0.004,0.097 0.039,-0.002 0.059,-0.003 0.098,-0.004 0.097,-0.004 0.145,-0.005 0.241,-0.008 0.088,-0.236 0.133,-0.355 0.225,-0.59 l 0.004,0 c 0.101,0.232 0.151,0.349 0.247,0.582 0.136,-0.001 0.204,-0.001 0.34,0 10e-4,-0.038 10e-4,-0.058 10e-4,-0.097 -0.039,-0.006 -0.059,-0.009 -0.099,-0.016 0.001,-0.228 0.001,-0.341 0.002,-0.569 0.041,-0.006 0.061,-0.009 0.102,-0.015 0,-0.038 0,-0.058 0,-0.096 -0.157,-10e-4 -0.236,-10e-4 -0.394,0 0,0.038 0,0.058 0,0.096 0.041,0.006 0.061,0.009 0.101,0.015 0.001,0.05 0.001,0.075 0.001,0.124 0.008,0.14 0.012,0.21 0.02,0.351"/><path id="path45" style="fill:#90872e;fill-opacity:1;fill-rule:nonzero;stroke:none" d="m 18.582,10.7305 c 0.086,0.002 0.129,0.003 0.215,0.006 -0.046,0.11 -0.069,0.165 -0.113,0.275 l -0.004,0 c -0.039,-0.113 -0.059,-0.169 -0.098,-0.281 m 0.101,0.665 c 0.078,0.002 0.116,0.004 0.194,0.006 0,-0.001 0,-0.001 0.001,-0.002 -0.067,-0.06 -0.102,-0.089 -0.169,-0.148 -0.06,-10e-4 -0.089,-10e-4 -0.148,-0.003 0.049,0.058 0.074,0.088 0.122,0.147 m -0.44,-0.906 c 0.027,0.003 0.041,0.005 0.068,0.008 0.112,0.277 0.167,0.417 0.272,0.695 0.076,0.002 0.113,0.003 0.189,0.005 0.121,-0.273 0.182,-0.408 0.308,-0.679 l 0.068,-0.005 c 0.001,-0.038 0.002,-0.056 0.004,-0.095 -0.13,-0.006 -0.194,-0.008 -0.323,-0.013 -0.002,0.039 -0.002,0.057 -0.004,0.096 0.027,0.004 0.04,0.006 0.067,0.011 -0.019,0.043 -0.029,0.066 -0.046,0.109 -0.122,-0.005 -0.184,-0.006 -0.306,-0.009 -0.017,-0.044 -0.024,-0.067 -0.04,-0.111 0.026,-0.002 0.04,-0.004 0.066,-0.007 0.001,-0.038 0.001,-0.058 0.002,-0.096 -0.13,-0.003 -0.194,-0.004 -0.324,-0.005 0,0.038 -0.001,0.058 -0.001,0.096"/><path id="path46" style="fill:#90872e;fill-opacity:1;fill-rule:nonzero;stroke:none" d="m 19.4414,10.8779 c 0.052,0.003 0.077,0.004 0.129,0.008 0.054,0.003 0.092,0.015 0.115,0.036 0.025,0.02 0.036,0.048 0.033,0.084 -0.002,0.035 -0.016,0.062 -0.043,0.082 -0.028,0.019 -0.066,0.027 -0.116,0.024 -0.053,-0.003 -0.079,-0.005 -0.132,-0.007 0.005,-0.091 0.008,-0.137 0.014,-0.227 m 0.11,0.356 c 0.104,0.007 0.188,-0.007 0.25,-0.044 0.064,-0.037 0.098,-0.091 0.103,-0.164 0.004,-0.039 -0.006,-0.075 -0.029,-0.106 -0.023,-0.031 -0.058,-0.058 -0.107,-0.079 0.058,-0.01 0.099,-0.03 0.125,-0.061 0.027,-0.03 0.043,-0.068 0.047,-0.115 0.001,-0.016 0.002,-0.024 0.003,-0.041 0.002,-0.017 0.006,-0.029 0.015,-0.039 0.008,-0.009 0.023,-0.014 0.042,-0.014 0.009,-10e-4 0.015,-10e-4 0.025,-10e-4 0.003,-0.038 0.004,-0.057 0.008,-0.095 -0.04,-0.003 -0.06,-0.005 -0.1,-0.008 -0.061,-0.005 -0.106,0.006 -0.134,0.032 -0.028,0.026 -0.042,0.062 -0.045,0.106 -0.001,0.017 -0.001,0.027 -0.003,0.044 -0.002,0.039 -0.018,0.068 -0.043,0.088 -0.026,0.02 -0.062,0.03 -0.106,0.028 -0.061,-0.004 -0.093,-0.006 -0.154,-0.01 0.005,-0.083 0.008,-0.125 0.013,-0.208 0.04,-0.004 0.06,-0.007 0.101,-0.011 0.003,-0.038 0.004,-0.056 0.006,-0.095 -0.156,-0.009 -0.235,-0.014 -0.393,-0.021 -0.002,0.038 -0.003,0.057 -0.005,0.095 0.041,0.009 0.061,0.012 0.1,0.021 -0.012,0.228 -0.017,0.341 -0.029,0.568 -0.039,0.004 -0.059,0.006 -0.098,0.011 -0.002,0.039 -0.003,0.058 -0.005,0.097 l 0.098,0.005 c 0.126,0.006 0.189,0.01 0.315,0.017"/><path id="path47" style="fill:#90872e;fill-opacity:1;fill-rule:nonzero;stroke:none" d="m 20.4443,10.791 c -0.146,-0.015 -0.219,-0.021 -0.364,-0.033 l -0.01,0.122 c 0.145,0.013 0.217,0.019 0.361,0.033 0.005,-0.049 0.008,-0.073 0.013,-0.122"/><path id="path48" style="fill:#90872e;fill-opacity:1;fill-rule:nonzero;stroke:none" d="m 20.7979,10.9033 c 0.01,-0.091 0.016,-0.137 0.026,-0.228 0.07,0.008 0.104,0.012 0.174,0.021 0.05,0.006 0.087,0.02 0.112,0.042 0.023,0.021 0.033,0.05 0.028,0.086 -0.005,0.039 -0.021,0.066 -0.045,0.084 -0.024,0.016 -0.062,0.023 -0.109,0.017 -0.075,-0.009 -0.112,-0.013 -0.186,-0.022 m -0.013,0.109 c 0.053,0.006 0.08,0.009 0.134,0.016 0.05,0.006 0.087,0.02 0.111,0.04 0.025,0.021 0.036,0.047 0.031,0.081 -0.004,0.035 -0.022,0.061 -0.051,0.075 -0.028,0.014 -0.07,0.018 -0.122,0.011 l -0.127,-0.015 c 0.01,-0.083 0.015,-0.125 0.024,-0.208 m 0.088,0.345 c 0.107,0.013 0.195,0.006 0.259,-0.022 0.064,-0.028 0.103,-0.078 0.112,-0.149 0.005,-0.037 -0.002,-0.071 -0.02,-0.102 -0.02,-0.033 -0.05,-0.058 -0.091,-0.078 0.058,-0.002 0.102,-0.019 0.135,-0.048 0.031,-0.029 0.051,-0.066 0.057,-0.109 0.011,-0.075 -0.011,-0.136 -0.065,-0.183 -0.056,-0.047 -0.138,-0.077 -0.247,-0.091 -0.187,-0.023 -0.279,-0.033 -0.466,-0.053 -0.004,0.038 -0.006,0.058 -0.011,0.095 0.04,0.012 0.061,0.016 0.1,0.027 -0.025,0.227 -0.036,0.339 -0.061,0.566 -0.04,0.002 -0.06,0.003 -0.1,0.005 -0.004,0.039 -0.006,0.058 -0.01,0.096 0.039,0.004 0.059,0.006 0.098,0.011 0.124,0.013 0.186,0.02 0.31,0.035"/><path id="path49" style="fill:#90872e;fill-opacity:1;fill-rule:nonzero;stroke:none" d="m 21.9414,11.0615 c -0.127,-0.021 -0.189,-0.03 -0.316,-0.05 l 0.034,-0.224 c 0.122,0.018 0.182,0.028 0.303,0.047 -0.002,0.039 -0.003,0.057 -0.006,0.095 l 0.141,0.025 c 0.015,-0.086 0.023,-0.129 0.037,-0.214 -0.297,-0.051 -0.447,-0.075 -0.746,-0.116 -0.006,0.039 -0.008,0.057 -0.013,0.095 0.039,0.012 0.058,0.018 0.097,0.03 -0.032,0.225 -0.049,0.337 -0.081,0.563 -0.04,10e-4 -0.059,10e-4 -0.099,0.002 -0.005,0.039 -0.008,0.058 -0.013,0.096 0.038,0.005 0.058,0.008 0.097,0.013 0.25,0.036 0.375,0.056 0.624,0.099 0.014,-0.086 0.021,-0.129 0.036,-0.215 -0.057,-0.01 -0.085,-0.014 -0.142,-0.023 -0.009,0.037 -0.014,0.054 -0.022,0.091 -0.118,-0.019 -0.177,-0.028 -0.295,-0.045 0.011,-0.08 0.018,-0.12 0.03,-0.199 0.125,0.02 0.188,0.03 0.313,0.05 0.008,-0.048 0.012,-0.072 0.021,-0.12"/><path id="path50" style="fill:#90872e;fill-opacity:1;fill-rule:nonzero;stroke:none" d="m 22.4043,11.2393 c 0.051,0.009 0.076,0.014 0.128,0.023 0.051,0.01 0.088,0.027 0.11,0.051 0.023,0.024 0.03,0.052 0.023,0.088 -0.007,0.034 -0.025,0.06 -0.055,0.075 -0.029,0.017 -0.069,0.02 -0.118,0.01 -0.052,-0.01 -0.078,-0.015 -0.13,-0.024 0.017,-0.089 0.025,-0.134 0.042,-0.223 m 0.064,0.368 c 0.104,0.02 0.189,0.015 0.256,-0.014 0.067,-0.028 0.109,-0.078 0.123,-0.148 0.008,-0.039 0.002,-0.076 -0.016,-0.11 -0.02,-0.034 -0.052,-0.065 -0.096,-0.092 0.057,-0.003 0.102,-0.018 0.132,-0.044 0.03,-0.026 0.05,-0.064 0.059,-0.109 0.003,-0.016 0.005,-0.024 0.008,-0.04 0.004,-0.017 0.011,-0.029 0.021,-0.037 0.011,-0.007 0.025,-0.01 0.044,-0.008 0.009,10e-4 0.014,10e-4 0.023,0.002 0.008,-0.038 0.012,-0.057 0.02,-0.094 -0.038,-0.008 -0.058,-0.012 -0.097,-0.02 -0.062,-0.013 -0.107,-0.008 -0.139,0.015 -0.029,0.022 -0.048,0.056 -0.057,0.099 -0.004,0.017 -0.005,0.026 -0.009,0.045 -0.008,0.037 -0.025,0.064 -0.054,0.081 -0.028,0.016 -0.063,0.021 -0.108,0.013 -0.061,-0.011 -0.091,-0.017 -0.152,-0.028 0.015,-0.082 0.023,-0.123 0.039,-0.205 0.041,0.001 0.061,0.001 0.102,0.003 0.008,-0.038 0.011,-0.057 0.019,-0.094 -0.157,-0.03 -0.235,-0.044 -0.39,-0.071 -0.007,0.038 -0.01,0.056 -0.017,0.093 l 0.098,0.035 c -0.04,0.223 -0.06,0.336 -0.1,0.559 -0.041,-10e-4 -0.06,-10e-4 -0.1,-10e-4 -0.007,0.038 -0.011,0.057 -0.017,0.095 0.039,0.007 0.059,0.011 0.097,0.018 0.125,0.021 0.187,0.033 0.311,0.057"/><path id="path51" style="fill:#90872e;fill-opacity:1;fill-rule:nonzero;stroke:none" d="m 23.5869,11.3926 c -0.124,-0.029 -0.187,-0.044 -0.312,-0.071 0.021,-0.089 0.031,-0.134 0.05,-0.222 0.12,0.026 0.18,0.04 0.299,0.068 -0.005,0.038 -0.007,0.057 -0.013,0.095 0.057,0.013 0.085,0.02 0.142,0.033 0.021,-0.084 0.03,-0.126 0.051,-0.21 -0.295,-0.072 -0.443,-0.105 -0.739,-0.168 -0.008,0.038 -0.012,0.056 -0.02,0.094 0.038,0.015 0.058,0.022 0.096,0.037 -0.048,0.222 -0.072,0.333 -0.119,0.556 -0.041,-0.002 -0.061,-0.003 -0.102,-0.005 -0.008,0.038 -0.012,0.057 -0.02,0.095 0.04,0.008 0.059,0.011 0.097,0.02 0.248,0.053 0.371,0.081 0.618,0.142 0.021,-0.085 0.031,-0.127 0.051,-0.211 -0.056,-0.014 -0.084,-0.021 -0.141,-0.034 -0.011,0.036 -0.017,0.053 -0.029,0.09 -0.116,-0.028 -0.175,-0.041 -0.291,-0.067 l 0.044,-0.195 c 0.124,0.028 0.186,0.042 0.31,0.071 0.011,-0.047 0.016,-0.07 0.028,-0.118"/><path id="path52" style="fill:#90872e;fill-opacity:1;fill-rule:nonzero;stroke:none" d="m 24.6094,11.3896 c -0.023,-0.034 -0.061,-0.068 -0.113,-0.104 -0.051,-0.035 -0.121,-0.065 -0.21,-0.089 -0.126,-0.034 -0.238,-0.025 -0.333,0.026 -0.096,0.049 -0.157,0.131 -0.185,0.242 -0.002,0.01 -0.004,0.016 -0.006,0.026 -0.028,0.115 -0.014,0.217 0.043,0.309 0.058,0.091 0.147,0.152 0.268,0.185 0.069,0.018 0.137,0.026 0.199,0.023 0.065,-0.004 0.119,-0.015 0.167,-0.037 0.018,-0.061 0.026,-0.092 0.044,-0.153 -0.055,-0.016 -0.081,-0.023 -0.135,-0.037 -0.021,0.038 -0.032,0.056 -0.053,0.094 -0.021,0.007 -0.044,0.011 -0.074,0.011 -0.028,0 -0.06,-0.004 -0.096,-0.014 -0.078,-0.021 -0.134,-0.062 -0.164,-0.123 -0.032,-0.059 -0.038,-0.13 -0.017,-0.211 0.003,-0.01 0.004,-0.016 0.007,-0.027 0.02,-0.079 0.057,-0.136 0.113,-0.171 0.057,-0.035 0.126,-0.042 0.209,-0.02 0.038,0.009 0.066,0.021 0.088,0.033 0.021,0.011 0.039,0.022 0.05,0.032 -0.015,0.052 -0.022,0.078 -0.036,0.13 -0.053,-0.011 -0.079,-0.017 -0.133,-0.027 -0.012,0.044 -0.018,0.065 -0.029,0.108 0.125,0.034 0.188,0.051 0.314,0.086 0.032,-0.117 0.049,-0.175 0.082,-0.292"/><path id="path53" style="fill:#90872e;fill-opacity:1;fill-rule:nonzero;stroke:none" d="m 25.665,12.2373 c -0.002,0 -0.003,-10e-4 -0.005,-10e-4 -0.02,-0.255 -0.031,-0.382 -0.057,-0.638 -0.048,-0.015 -0.074,-0.023 -0.123,-0.039 -0.169,0.191 -0.252,0.287 -0.418,0.481 -0.001,0 -0.001,0 -0.002,-10e-4 0.047,-0.131 0.071,-0.197 0.12,-0.328 0.014,-0.047 0.021,-0.071 0.036,-0.119 0.041,0.006 0.061,0.009 0.102,0.016 0.012,-0.037 0.018,-0.055 0.03,-0.092 -0.153,-0.048 -0.229,-0.071 -0.381,-0.116 -0.011,0.037 -0.016,0.055 -0.027,0.092 0.037,0.017 0.055,0.026 0.092,0.045 -0.065,0.218 -0.098,0.326 -0.164,0.544 -0.04,-0.005 -0.059,-0.008 -0.099,-0.013 -0.011,0.037 -0.017,0.056 -0.028,0.093 0.038,0.011 0.057,0.016 0.095,0.028 0.093,0.027 0.14,0.042 0.232,0.071 0.161,-0.195 0.243,-0.292 0.407,-0.484 0.002,10e-4 0.003,10e-4 0.004,0.002 0.022,0.252 0.031,0.379 0.047,0.631 0.131,0.044 0.196,0.066 0.326,0.112 0.013,-0.037 0.019,-0.055 0.032,-0.092 -0.035,-0.019 -0.053,-0.029 -0.089,-0.048 0.074,-0.214 0.111,-0.322 0.186,-0.537 0.041,0.007 0.062,0.011 0.103,0.019 0.013,-0.036 0.018,-0.055 0.031,-0.091 -0.15,-0.053 -0.226,-0.079 -0.378,-0.129 -0.011,0.036 -0.018,0.054 -0.03,0.09 0.037,0.02 0.056,0.029 0.092,0.049 l -0.039,0.117 c -0.038,0.136 -0.057,0.203 -0.095,0.338"/><path id="path54" style="fill:#90872e;fill-opacity:1;fill-rule:nonzero;stroke:none" d="m 26.6035,12.3232 c -0.121,-0.046 -0.182,-0.068 -0.302,-0.113 0.031,-0.085 0.047,-0.128 0.078,-0.213 0.117,0.043 0.174,0.064 0.29,0.108 -0.009,0.037 -0.014,0.056 -0.025,0.092 0.055,0.022 0.082,0.031 0.137,0.053 0.031,-0.08 0.047,-0.121 0.078,-0.201 -0.285,-0.112 -0.429,-0.165 -0.717,-0.267 -0.013,0.036 -0.019,0.054 -0.032,0.09 0.037,0.02 0.055,0.03 0.092,0.051 -0.078,0.213 -0.116,0.32 -0.192,0.534 -0.04,-0.007 -0.06,-0.011 -0.1,-0.018 -0.013,0.036 -0.02,0.055 -0.033,0.091 0.039,0.014 0.057,0.02 0.095,0.033 0.24,0.086 0.36,0.131 0.599,0.224 0.031,-0.081 0.047,-0.121 0.079,-0.202 -0.055,-0.022 -0.082,-0.033 -0.137,-0.053 -0.016,0.034 -0.025,0.051 -0.042,0.085 -0.112,-0.042 -0.168,-0.064 -0.281,-0.105 0.027,-0.075 0.041,-0.113 0.069,-0.187 0.12,0.044 0.18,0.066 0.3,0.112 0.018,-0.046 0.026,-0.068 0.044,-0.114"/><path id="path55" style="fill:#90872e;fill-opacity:1;fill-rule:nonzero;stroke:none" d="m 27.627,12.459 c -0.02,-0.037 -0.052,-0.076 -0.1,-0.118 -0.046,-0.042 -0.113,-0.082 -0.199,-0.117 -0.122,-0.05 -0.234,-0.057 -0.337,-0.02 -0.101,0.036 -0.174,0.109 -0.215,0.216 l -0.009,0.024 c -0.044,0.111 -0.043,0.214 0.003,0.313 0.045,0.098 0.127,0.171 0.244,0.219 0.066,0.028 0.134,0.045 0.196,0.05 0.064,0.005 0.121,10e-4 0.172,-0.014 0.025,-0.058 0.038,-0.087 0.063,-0.146 -0.051,-0.022 -0.078,-0.033 -0.13,-0.055 -0.026,0.035 -0.04,0.052 -0.066,0.087 -0.02,0.004 -0.045,0.004 -0.074,0 -0.029,-0.003 -0.061,-0.012 -0.095,-0.026 -0.076,-0.031 -0.126,-0.08 -0.149,-0.144 -0.023,-0.064 -0.02,-0.135 0.011,-0.212 0.004,-0.011 0.006,-0.016 0.01,-0.027 0.03,-0.075 0.075,-0.126 0.136,-0.154 0.061,-0.026 0.132,-0.024 0.212,0.009 0.036,0.014 0.063,0.03 0.083,0.044 0.02,0.014 0.036,0.028 0.046,0.039 -0.022,0.05 -0.031,0.074 -0.053,0.124 -0.052,-0.018 -0.077,-0.027 -0.129,-0.045 -0.017,0.042 -0.026,0.062 -0.043,0.103 0.121,0.051 0.182,0.077 0.303,0.129 0.048,-0.112 0.072,-0.168 0.12,-0.279"/><path id="path56" style="fill:#90872e;fill-opacity:1;fill-rule:nonzero;stroke:none" d="m 27.752,13.1777 c -0.027,-0.016 -0.04,-0.023 -0.067,-0.039 0.096,-0.071 0.144,-0.107 0.242,-0.177 0.001,10e-4 0.002,10e-4 0.003,0.002 0.01,0.119 0.016,0.179 0.026,0.298 -0.03,-0.01 -0.045,-0.015 -0.074,-0.024 -0.016,0.035 -0.024,0.052 -0.04,0.087 0.13,0.06 0.194,0.09 0.323,0.152 0.017,-0.035 0.025,-0.053 0.042,-0.088 l -0.068,-0.044 c -0.024,-0.191 -0.036,-0.287 -0.064,-0.479 0.029,-0.06 0.042,-0.09 0.071,-0.151 0.04,0.011 0.06,0.017 0.1,0.028 0.017,-0.035 0.025,-0.051 0.04,-0.086 -0.146,-0.068 -0.22,-0.102 -0.367,-0.167 -0.016,0.035 -0.023,0.052 -0.038,0.087 0.035,0.023 0.053,0.035 0.088,0.058 -0.03,0.064 -0.043,0.095 -0.072,0.158 -0.16,0.105 -0.238,0.156 -0.394,0.263 -0.031,-0.009 -0.047,-0.014 -0.078,-0.023 -0.016,0.037 -0.024,0.054 -0.038,0.089 0.131,0.057 0.195,0.085 0.325,0.144 0.017,-0.035 0.024,-0.053 0.04,-0.088"/><path id="path57" style="fill:#90872e;fill-opacity:1;fill-rule:nonzero;stroke:none" d="m 28.9346,13.3594 -0.293,-0.146 c 0.04,-0.082 0.061,-0.123 0.101,-0.204 0.113,0.056 0.169,0.084 0.281,0.141 -0.014,0.035 -0.022,0.053 -0.035,0.088 0.052,0.027 0.079,0.041 0.132,0.067 0.039,-0.076 0.059,-0.115 0.098,-0.191 -0.274,-0.143 -0.413,-0.211 -0.691,-0.345 -0.017,0.035 -0.025,0.052 -0.041,0.087 0.034,0.024 0.051,0.035 0.085,0.059 -0.099,0.205 -0.149,0.307 -0.247,0.511 -0.039,-0.01 -0.059,-0.016 -0.098,-0.028 -0.017,0.035 -0.024,0.053 -0.041,0.087 0.036,0.018 0.054,0.026 0.09,0.044 0.232,0.112 0.348,0.17 0.578,0.289 0.04,-0.077 0.06,-0.116 0.1,-0.193 -0.052,-0.028 -0.079,-0.04 -0.13,-0.068 -0.021,0.032 -0.031,0.049 -0.051,0.081 -0.109,-0.055 -0.163,-0.083 -0.273,-0.136 0.036,-0.073 0.053,-0.108 0.088,-0.18 0.118,0.058 0.175,0.087 0.291,0.146 0.023,-0.044 0.034,-0.065 0.056,-0.109"/></g><g id="g34"><path id="path60" style="fill:#e20909;fill-opacity:1;fill-rule:nonzero;stroke:none" d="m 15.3267,23.959 2.673,1.564 2.674,-1.564 c 0,0 -1.02,-0.506 -2.674,-0.506 -1.652,0 -2.673,0.506 -2.673,0.506"/><path id="path61" style="fill:#ffffff;fill-opacity:1;fill-rule:nonzero;stroke:none" d="m 18.2607,23.2979 c 0,0 -0.181,0.196 -0.261,0.196 -0.079,0 -0.26,-0.196 -0.26,-0.196 l -0.667,-1.692 3.709,-2.984 c 0,0 0.041,0 0.072,-0.053 0.031,-0.053 0.075,-0.054 0.075,-0.054 l 2.507,1.617 -2.853,2.713 -2.322,0.453 z"/><path id="path62" style="fill:#ffffff;fill-opacity:1;fill-rule:nonzero;stroke:none" d="m 21.0234,18.1724 c 0,0 -0.162,-0.163 -0.047,-0.718 0.08,-0.388 0.033,-0.506 0.033,-0.506 0,0 0.063,0.055 0.16,0.103 0.096,0.048 0.195,0.039 0.195,0.039 0,0 -0.271,-0.335 -0.452,-1.03 -0.158,-0.596 -0.064,-1.337 -0.064,-1.337 0,0 0.083,-0.377 0.346,-0.353 0.263,0.024 0.021,0.457 0.021,0.457 0,0 -0.05,0.047 -0.066,0.338 -0.016,0.29 0.121,0.399 0.121,0.399 0,0 0.016,-0.047 0.035,-0.15 0.02,-0.105 0.047,-0.134 0.047,-0.134 0,0 0.069,0.086 0.151,0.341 0.082,0.256 0.152,0.351 0.152,0.351 0,0 0.015,-0.137 0.004,-0.317 -0.012,-0.181 0.01,-0.276 0.01,-0.276 0,0 0.091,0.103 0.258,0.372 0.166,0.268 0.335,0.309 0.335,0.309 0,0 -0.013,-0.123 0.049,-0.264 0.063,-0.141 0.151,-0.197 0.151,-0.197 0,0 0.02,0.042 0.018,0.072 -0.002,0.029 -0.018,0.074 -0.018,0.074 l 0.09,-0.103 0.543,-0.319 1.197,0.193 -3.269,2.656 z"/><path id="path63" style="fill:#ffffff;fill-opacity:1;fill-rule:nonzero;stroke:none" d="m 23.6963,23.9233 c 0,0 -0.154,-0.1 -0.392,-0.016 -0.237,0.085 -0.41,0.304 -0.41,0.304 l 0.037,-0.339 c 0,0 0.066,-0.185 0.283,-0.237 0.165,-0.039 0.294,0.034 0.294,0.034 l 0.168,0.118 0.02,0.136 z"/><path id="path64" style="fill:#ffffff;fill-opacity:1;fill-rule:nonzero;stroke:none" d="m 24.7139,25.3096 c 0,0 -0.156,-0.013 -0.187,0.183 -0.033,0.217 0.107,0.423 0.107,0.423 0,0 -0.194,-0.057 -0.257,-0.192 -0.063,-0.135 -0.044,-0.308 -0.044,-0.308 0,0 -0.034,-0.053 -0.069,-0.092 -0.034,-0.039 -0.095,-0.096 -0.095,-0.096 0,0 -0.013,0.066 0.006,0.11 0.018,0.044 0.016,0.086 0.016,0.086 0,0 -0.052,0.017 -0.103,0 -0.052,-0.017 -0.109,-0.011 -0.109,-0.011 0,0 0.138,0.108 0.218,0.313 0.08,0.204 0.388,0.504 0.727,0.233 0.403,-0.323 0.074,-0.86 0.074,-0.86 l -0.284,0.211 z"/><path id="path65" style="fill:#ffffff;fill-opacity:1;fill-rule:nonzero;stroke:none" d="m 25.1279,24.0728 c 0,0 -0.027,0.124 0.135,0.319 0.145,0.175 0.402,0.177 0.472,0.091 0.079,-0.096 0.106,-0.098 0.106,-0.098 0,0 -0.039,0.233 -0.024,0.27 0.016,0.038 0.117,0.051 0.117,0.051 0,0 0.033,-0.206 0.192,-0.206 0.158,0 0.232,0.184 0.232,0.29 0,0.243 -0.241,0.299 -0.241,0.299 0,0 -0.01,-0.009 -0.025,-0.039 -0.014,-0.03 -0.027,-0.067 -0.027,-0.067 0,0 -0.062,0.069 -0.221,0.115 -0.159,0.046 -0.291,-0.007 -0.291,-0.007 0,0 0.056,-0.044 0.135,-0.083 0.078,-0.039 0.107,-0.097 0.107,-0.097 0,0 -0.012,-0.059 -0.105,-0.059 -0.079,0 -0.201,0.052 -0.293,0.052 -0.102,0 -0.134,-0.029 -0.134,-0.029 0,0 0.198,0.413 0.829,0.413 0.655,0 0.908,-0.476 0.926,-0.95 0.013,-0.375 -0.146,-0.542 -0.359,-0.649 l 0.861,-0.542 0.352,-1.498 -1.043,-1.433 c 0,0 -0.064,0.237 -0.051,0.421 0.014,0.185 0,0.483 0,0.483 0,0 -0.076,-0.11 -0.115,-0.249 -0.04,-0.139 -0.073,-0.273 -0.073,-0.273 0,0 -0.08,0.122 -0.193,0.402 -0.115,0.281 -0.121,0.51 -0.121,0.51 0,0 -0.18,0.008 -0.374,0.067 -0.194,0.058 -0.288,0.214 -0.288,0.214 0,0 0.492,0.042 0.668,0.515 0.221,0.591 -0.28,1.108 -0.28,1.108 l -0.874,0.659 z"/><path id="path66" style="fill:#ffffff;fill-opacity:1;fill-rule:nonzero;stroke:none" d="m 27.4258,19.7476 c 0,0 0.008,-0.177 0.082,-0.406 0.074,-0.23 0.105,-0.293 0.105,-0.293 0,0 -0.062,-0.009 -0.109,0.071 -0.047,0.081 -0.086,0.12 -0.086,0.12 0,0 -0.02,-0.3 0.055,-0.554 0.139,-0.47 0.364,-0.622 0.364,-0.622 l -0.101,-0.028 -0.232,0.184 c 0,0 -0.117,0.141 -0.251,0.431 -0.134,0.291 -0.186,0.516 -0.186,0.516 l -0.152,0.872 0.101,0.077 0.41,-0.368 z"/><path id="path67" style="fill:#2b5df2;fill-opacity:1;fill-rule:nonzero;stroke:none" d="m 20.5732,23.1587 c 0,0 -0.426,-0.329 -0.968,0.194 -0.541,0.524 -0.785,1.07 -0.785,1.07 l -0.35,0.142 -0.407,-0.1 c 0,0 0.037,-0.276 0.011,-0.535 -0.025,-0.259 -0.023,-0.52 0.186,-0.632 0.21,-0.112 0.424,-0.659 0.424,-0.659 0,0 0.114,0.054 0.092,0.203 -0.021,0.149 -0.014,0.255 -0.014,0.255 0,0 0.12,-0.214 0.261,-0.536 0.155,-0.351 0.371,-0.418 0.56,-0.451 0.214,-0.037 0.391,-0.017 0.391,-0.017 0,0 0,0.135 -0.273,0.366 -0.228,0.193 -0.094,0.431 -0.094,0.431 0,0 0.008,-0.113 0.117,-0.215 0.11,-0.101 0.24,-0.12 0.24,-0.12 0,0 -0.009,0.016 0.006,0.089 0.014,0.067 0.036,0.072 0.036,0.072 0,0 0.074,-0.003 0.122,-0.053 0.049,-0.05 0.127,-0.041 0.127,-0.041 0,0 0.006,0.033 0.006,0.079 0,0.044 0.007,0.071 0.007,0.071 0,0 0.249,-0.034 0.315,0.074 0.094,0.156 -0.01,0.313 -0.01,0.313"/><path id="path68" style="fill:#2b5df2;fill-opacity:1;fill-rule:nonzero;stroke:none" d="m 21.6758,23.1143 c 0,0 0.009,0.098 -0.074,0.184 -0.096,0.1 -0.125,0.231 0.128,0.49 0.175,0.179 0.416,0.198 0.416,0.198 0,0 0.084,-0.052 0.125,-0.179 0.04,-0.126 0,-0.204 0,-0.204 0,0 0.159,-0.057 0.251,0.113 0.12,0.223 0.169,0.246 0.169,0.246 0,0 -0.004,-0.111 0.015,-0.231 0.02,-0.119 0.082,-0.2 0.082,-0.2 0,0 0.128,0.094 0.144,0.341 0.015,0.247 -0.069,0.428 -0.069,0.428 0,0 0.12,0.055 0.17,0.167 0.051,0.111 0.01,0.217 0.01,0.217 0,0 -0.096,-0.002 -0.18,-0.069 -0.084,-0.066 -0.178,-0.088 -0.242,-0.08 -0.062,0.008 -0.191,0.104 -0.403,0.036 -0.212,-0.069 -0.365,-0.203 -0.365,-0.203 0,0 -0.133,0.118 -0.232,0.165 -0.097,0.047 -0.172,0.01 -0.172,0.01 0,0 0.116,-0.192 0.129,-0.337 0.016,-0.181 -0.089,-0.32 -0.089,-0.32 0,0 -0.023,0 -0.059,0.013 -0.036,0.013 -0.076,0.032 -0.104,-0.041 -0.026,-0.074 0.004,-0.216 -0.031,-0.304 -0.034,-0.087 -0.079,-0.175 -0.141,-0.265 -0.097,-0.139 -0.115,-0.248 -0.115,-0.248 l 0.336,-0.026 0.301,0.099 z"/><path id="path69" style="fill:#2b5df2;fill-opacity:1;fill-rule:nonzero;stroke:none" d="m 23.5078,23.6689 c 0,0 0.131,0.111 0.188,0.254 0.065,0.164 0.183,0.199 0.183,0.199 0,0 0.074,0.129 0,0.286 -0.075,0.157 -0.087,0.235 -0.087,0.235 0,0 0.148,0.008 0.228,-0.066 0.08,-0.075 0.021,-0.232 0.021,-0.232 0,0 0.085,-0.009 0.28,0.165 0.197,0.174 0.3,0.22 0.3,0.22 0,0 0.074,0.145 0.099,0.309 0.025,0.165 -0.006,0.271 -0.006,0.271 0,0 0.035,0.002 0.078,0.018 0.043,0.016 0.063,0.031 0.063,0.031 0,0 0.01,0.045 -0.044,0.102 -0.033,0.035 -0.034,0.082 -0.022,0.096 0.013,0.013 0.073,0.019 0.153,-0.051 0.148,-0.131 0.056,-0.408 0.056,-0.408 0,0 0.093,0.08 0.156,0.19 0.045,0.08 0.017,0.128 0.085,0.22 0.063,0.084 0.164,0.114 0.164,0.114 0,0 -0.046,-0.108 -0.022,-0.277 0.023,-0.169 -0.04,-0.274 -0.12,-0.341 -0.08,-0.067 -0.107,-0.163 -0.107,-0.163 0,0 -0.074,-0.015 -0.126,-0.039 -0.053,-0.024 -0.092,-0.071 -0.092,-0.071 0,0 0.049,-0.039 0.095,-0.057 0.047,-0.017 0.073,-0.078 0.073,-0.078 0,0 -0.022,-0.051 -0.145,-0.078 -0.124,-0.028 -0.208,-0.014 -0.208,-0.014 0,0 0,-0.065 0.035,-0.143 0.043,-0.096 -0.021,-0.157 -0.021,-0.157 0,0 -0.055,-0.003 -0.085,0.035 -0.047,0.058 -0.065,0.049 -0.065,0.049 0,0 -0.318,0.059 -0.565,-0.25 -0.305,-0.382 -0.542,-0.369 -0.542,-0.369"/><path id="path70" style="fill:#2b5df2;fill-opacity:1;fill-rule:nonzero;stroke:none" d="m 26.3545,23.5234 c 0,0 0.144,0.008 0.346,0.098 0.202,0.09 0.233,0.174 0.233,0.174 0,0 0.194,-0.064 0.382,-0.191 0.188,-0.128 0.278,-0.218 0.278,-0.218 0,0 0.251,-0.029 0.42,0.051 0.23,0.107 0.288,0.271 0.288,0.271 0,0 0.085,-0.197 0,-0.393 -0.084,-0.196 -0.298,-0.227 -0.298,-0.227 0,0 -0.029,-0.133 0.096,-0.163 0.126,-0.029 0.261,-0.012 0.261,-0.012 0,0 -0.058,-0.146 -0.131,-0.233 -0.098,-0.115 -0.226,-0.126 -0.226,-0.126 0,0 0.092,-0.199 0.034,-0.633 -0.059,-0.433 -0.178,-0.655 -0.183,-0.706 -0.012,-0.135 0.208,-0.335 0.208,-0.335 0,0 -0.038,-0.062 -0.133,-0.063 -0.077,-10e-4 -0.139,0.053 -0.139,0.053 0,0 -0.167,-0.121 -0.191,-0.367 -0.023,-0.245 0.062,-0.307 0.062,-0.307 0,0 -0.014,-0.018 -0.093,0 -0.078,0.017 -0.108,0.01 -0.108,0.01 0,0 0.016,-0.263 0.171,-0.348 0.221,-0.121 0.415,-0.019 0.415,-0.019 0,0 -0.176,-0.263 -0.505,-0.143 -0.33,0.119 -0.526,0.419 -0.526,0.419 0,0 -0.057,0 -0.096,0.059 -0.039,0.059 -0.09,0.041 -0.09,0.041 0,0 0.117,0.261 0.198,0.41 0.081,0.149 0.157,0.243 0.157,0.243 0,0 -0.122,-0.008 -0.224,0.026 -0.102,0.033 -0.133,0.111 -0.133,0.111 0,0 0.157,0.041 0.351,0.191 0.194,0.149 0.226,0.253 0.226,0.253 0,0 -0.458,0.05 -0.765,-0.081 -0.467,-0.198 -0.53,-0.567 -0.53,-0.567 0,0 -0.096,0.165 -0.029,0.489 0.067,0.323 0.286,0.576 0.286,0.576 0,0 -0.102,0.035 -0.272,0.207 -0.165,0.168 -0.338,0.172 -0.338,0.172 0,0 0.015,0.072 0.071,0.098 0.056,0.025 0.13,-0.008 0.13,-0.008 0,0 -0.071,0.122 -0.063,0.341 0.008,0.22 0.086,0.302 0.086,0.302 0,0 0.063,-0.177 0.119,-0.268 0.057,-0.092 0.116,-0.114 0.116,-0.114 0,0 0.125,0.091 0.228,0.127 0.101,0.037 0.188,0.022 0.188,0.022 0,0 -0.128,-0.177 -0.013,-0.439 0.068,-0.156 0.485,-0.224 0.728,0.013 0.211,0.206 0.187,0.532 0.187,0.532 0,0 -0.059,0.007 -0.116,-0.048 -0.057,-0.054 -0.102,-0.056 -0.102,-0.056 0,0 -0.101,0.033 -0.096,0.311 0.004,0.256 -0.039,0.316 -0.039,0.316 0,0 -0.037,-0.021 -0.045,-0.133 -0.01,-0.135 -0.057,-0.175 -0.057,-0.175 0,0 -0.017,0.106 -0.159,0.318 -0.149,0.222 -0.241,0.2 -0.241,0.2 0,0 -0.017,-0.021 -0.004,-0.082 0.014,-0.061 -0.015,-0.116 -0.015,-0.116 0,0 -0.056,0.004 -0.173,0.055 -0.118,0.051 -0.132,0.082 -0.132,0.082"/><path id="path71" style="fill:#2b5df2;fill-opacity:1;fill-rule:nonzero;stroke:none" d="m 25.0957,15.0332 c 0,0 0,-0.049 -0.082,-0.105 -0.081,-0.056 -0.139,-0.066 -0.139,-0.066 0,0 0.003,-0.172 0.169,-0.261 0.165,-0.089 0.198,-0.177 0.198,-0.177 0,0 -0.075,-0.016 -0.248,0.019 -0.173,0.036 -0.234,0.086 -0.234,0.086 0,0 -0.015,-0.062 0.017,-0.109 0.031,-0.047 0.039,-0.106 0.039,-0.106 0,0 -0.105,0.04 -0.256,0.188 -0.151,0.146 -0.187,0.265 -0.187,0.265 0,0 -0.034,-0.011 -0.042,-0.07 -0.007,-0.06 -0.023,-0.109 -0.023,-0.109 0,0 -0.078,0.063 -0.183,0.199 -0.104,0.137 -0.138,0.267 -0.138,0.267 0,0 -0.051,-0.054 -0.099,-0.169 -0.049,-0.117 -0.136,-0.145 -0.136,-0.145 0,0 -0.098,0.057 -0.153,0.189 -0.055,0.133 -0.063,0.183 -0.063,0.183 0,0 -0.289,0.079 -0.608,0.229 -0.381,0.177 -0.375,0.301 -0.375,0.301 0,0 0.107,-0.034 0.233,-0.108 0.163,-0.095 0.382,-0.07 0.538,-0.035 0.208,0.048 0.368,0.034 0.368,0.034 l 0.813,-0.056 0.113,-0.143 c 0,0 0.067,-0.119 0.231,-0.219 0.169,-0.102 0.247,-0.082 0.247,-0.082"/><path id="path72" style="fill:#2b5df2;fill-opacity:1;fill-rule:nonzero;stroke:none" d="m 21.2158,14.8271 c 0,0 -0.016,-0.051 0.02,-0.16 0.035,-0.111 0.011,-0.155 0.011,-0.155 0,0 -0.111,-0.022 -0.219,0.043 -0.108,0.064 -0.179,0.168 -0.179,0.168 0,0 -0.045,-0.643 0.342,-1.001 0.213,-0.199 0.658,-0.248 0.881,0.003 0.211,0.237 0.336,0.326 0.336,0.326 0,0 -0.13,0.004 -0.192,-0.096 -0.068,-0.109 -0.14,-0.116 -0.14,-0.116 0,0 0.021,0.091 0.071,0.167 0.05,0.077 0.043,0.175 0.043,0.175 0,0 -0.041,-0.015 -0.086,-0.077 -0.046,-0.06 -0.109,-0.079 -0.109,-0.079 0,0 -0.014,0.051 0.026,0.131 0.096,0.195 -0.102,0.299 -0.102,0.299 0,0 -0.01,-0.112 -0.226,-0.094 -0.231,0.019 -0.296,-0.002 -0.296,-0.002 0,0 -0.016,0.03 0.062,0.154 0.059,0.091 0.008,0.179 -0.097,0.224 -0.082,0.034 -0.146,0.09 -0.146,0.09"/><path id="path73" style="fill:#2b5df2;fill-opacity:1;fill-rule:nonzero;stroke:none" d="m 27.5039,18.2197 c 0,0 0.176,-0.279 0.324,-0.39 0.149,-0.111 0.245,-0.128 0.43,-0.05 0.184,0.078 0.325,0.028 0.325,0.028 0,0 0.003,0.044 -0.158,0.1 -0.161,0.056 -0.105,0.158 -0.014,0.222 0.091,0.064 0.084,0.141 0.084,0.141 0,0 -0.044,-0.01 -0.126,0.008 -0.083,0.017 -0.127,0.01 -0.127,0.01 0,0 -0.037,0.115 -0.106,0.166 -0.069,0.052 -0.133,-0.006 -0.133,-0.006 0,0 0.052,-0.064 0.04,-0.197 -0.011,-0.133 -0.064,-0.175 -0.064,-0.175 0,0 -0.132,-0.039 -0.274,0.014 -0.14,0.052 -0.201,0.129 -0.201,0.129"/><path id="path74" style="fill:#e20909;fill-opacity:1;fill-rule:nonzero;stroke:none" d="m 25.1279,24.0728 c 0,0 0.177,0.147 0.455,0.039 0.376,-0.148 0.456,-0.112 0.456,-0.112 0,0 -0.084,-0.091 -0.092,-0.255 -0.007,-0.162 0.055,-0.331 0.055,-0.331 l -0.607,0.275 -0.267,0.384 z"/><path id="path75" style="fill:#fcef3c;fill-opacity:1;fill-rule:nonzero;stroke:none" d="m 18,24.4648 c 1.653,0 2.674,-0.506 2.674,-0.506 0,0 0.488,1.32 0.652,1.559 0.077,0.111 0.184,0.248 0.389,0.276 0.204,0.028 0.288,0.088 0.288,0.088 0,0 -0.085,0.015 -0.203,0.112 -0.117,0.097 -0.244,-0.017 -0.244,-0.017 0,0 -0.033,0.112 -0.103,0.155 -0.07,0.044 -0.226,0.015 -0.226,0.015 0,0 0.041,-0.035 0.041,-0.129 0,-0.095 -0.041,-0.277 -0.041,-0.277 0,0 -0.122,0.027 -0.136,0.08 -0.015,0.053 0.056,0.156 0.056,0.156 0,0 -0.124,0.044 -0.203,-0.006 -0.08,-0.05 -0.144,-0.153 -0.144,-0.153 0,0 -0.227,0.041 -0.265,-0.065 -0.038,-0.106 0.168,-0.241 0.168,-0.241 0,0 -0.006,-0.109 0.044,-0.156 0.05,-0.047 0.136,-0.074 0.136,-0.074 0,0 -0.028,0.189 0.096,0.162 0.124,-0.026 0.074,-0.388 -0.538,-0.255 -0.612,0.132 -0.635,0.729 -0.635,0.729 0,0 0.135,-0.006 0.179,0.188 0.044,0.194 -0.138,0.268 -0.138,0.268 0,0 0.115,0.164 -0.041,0.194 -0.156,0.029 -0.079,-0.188 -0.079,-0.188 0,0 -0.171,0 -0.206,-0.195 -0.036,-0.194 0.109,-0.246 0.109,-0.246 0,0 -0.123,-0.393 -0.624,-0.542 -0.744,-0.221 -0.918,0.427 -0.918,0.427 0,0 0.094,0.029 0.124,-0.006 0.029,-0.036 0.044,-0.142 0.044,-0.142 0,0 0.141,0.027 0.2,0.121 0.059,0.094 0.174,0.094 0.174,0.094 0,0 0.038,0.112 -0.019,0.177 -0.055,0.064 -0.102,0.085 -0.102,0.085 0,0 0.065,0.109 0.032,0.183 -0.056,0.123 -0.141,0.108 -0.141,0.108 0,0 0,-0.076 -0.024,-0.126 -0.023,-0.05 -0.088,-0.059 -0.088,-0.059 0,0 -0.017,0.103 0.003,0.203 0.021,0.1 0.112,0.127 0.112,0.127 0,0 -0.041,0.055 -0.103,0.052 -0.062,-0.003 -0.156,-0.058 -0.156,-0.058 0,0 0.029,0.047 -0.038,0.106 -0.068,0.058 -0.106,0.138 -0.106,0.138 0,0 -0.038,-0.08 -0.106,-0.138 -0.067,-0.059 -0.038,-0.106 -0.038,-0.106 0,0 -0.094,0.055 -0.156,0.058 -0.062,0.003 -0.103,-0.052 -0.103,-0.052 0,0 0.091,-0.027 0.112,-0.127 0.02,-0.1 0.003,-0.203 0.003,-0.203 0,0 -0.065,0.009 -0.088,0.059 -0.024,0.05 -0.024,0.126 -0.024,0.126 0,0 -0.085,0.015 -0.141,-0.108 -0.033,-0.074 0.032,-0.183 0.032,-0.183 0,0 -0.047,-0.021 -0.103,-0.085 -0.055,-0.065 -0.017,-0.177 -0.017,-0.177 0,0 0.114,0 0.173,-0.094 0.059,-0.094 0.2,-0.121 0.2,-0.121 0,0 0.015,0.106 0.044,0.142 0.03,0.035 0.124,0.006 0.124,0.006 0,0 -0.174,-0.648 -0.918,-0.427 -0.501,0.149 -0.623,0.542 -0.623,0.542 0,0 0.144,0.052 0.108,0.246 -0.035,0.195 -0.206,0.195 -0.206,0.195 0,0 0.077,0.217 -0.079,0.188 -0.156,-0.03 -0.041,-0.194 -0.041,-0.194 0,0 -0.182,-0.074 -0.138,-0.268 0.044,-0.194 0.179,-0.188 0.179,-0.188 0,0 -0.024,-0.597 -0.635,-0.729 -0.612,-0.133 -0.662,0.229 -0.538,0.255 0.123,0.027 0.097,-0.162 0.097,-0.162 0,0 0.085,0.027 0.135,0.074 0.05,0.047 0.044,0.156 0.044,0.156 0,0 0.206,0.135 0.168,0.241 -0.039,0.106 -0.265,0.065 -0.265,0.065 0,0 -0.065,0.103 -0.144,0.153 -0.079,0.05 -0.203,0.006 -0.203,0.006 0,0 0.07,-0.103 0.056,-0.156 -0.015,-0.053 -0.136,-0.08 -0.136,-0.08 0,0 -0.041,0.182 -0.041,0.277 0,0.094 0.041,0.129 0.041,0.129 0,0 -0.155,0.029 -0.226,-0.015 -0.07,-0.043 -0.103,-0.155 -0.103,-0.155 0,0 -0.126,0.114 -0.244,0.017 -0.117,-0.097 -0.203,-0.112 -0.203,-0.112 0,0 0.084,-0.06 0.288,-0.088 0.205,-0.028 0.312,-0.165 0.388,-0.276 0.165,-0.239 0.654,-1.559 0.654,-1.559 0,0 1.02,0.506 2.673,0.506"/><path id="path76" style="fill:#fcef3c;fill-opacity:1;fill-rule:nonzero;stroke:none" d="m 17.7393,23.2979 c 0,0 -0.027,-0.236 -0.027,-0.677 l 0,-0.635 c 0,0 -0.017,-0.008 -0.05,0.036 -0.032,0.044 -0.09,0.041 -0.09,0.041 0,0 -0.052,-0.099 -0.055,-0.213 -0.003,-0.114 -0.041,-0.244 -0.041,-0.244 l -2.258,-2.984 c 0,0 -0.04,0 -0.071,-0.053 -0.032,-0.053 -0.076,-0.054 -0.076,-0.054 l -2.507,1.617 2.853,2.713 2.322,0.453 z"/><path id="path77" style="fill:#fcef3c;fill-opacity:1;fill-rule:nonzero;stroke:none" d="m 14.9761,18.1724 c 0,0 0.163,-0.163 0.048,-0.718 -0.081,-0.388 -0.033,-0.506 -0.033,-0.506 0,0 -0.063,0.055 -0.16,0.103 -0.097,0.048 -0.195,0.039 -0.195,0.039 0,0 0.27,-0.335 0.452,-1.03 0.157,-0.596 0.063,-1.337 0.063,-1.337 0,0 -0.082,-0.377 -0.345,-0.353 -0.263,0.024 -0.022,0.457 -0.022,0.457 0,0 0.051,0.047 0.067,0.338 0.016,0.29 -0.122,0.399 -0.122,0.399 0,0 -0.015,-0.047 -0.035,-0.15 -0.02,-0.105 -0.047,-0.134 -0.047,-0.134 0,0 -0.068,0.086 -0.151,0.341 -0.082,0.256 -0.151,0.351 -0.151,0.351 0,0 -0.015,-0.137 -0.004,-0.317 0.012,-0.181 -0.01,-0.276 -0.01,-0.276 0,0 -0.092,0.103 -0.258,0.372 -0.167,0.268 -0.336,0.309 -0.336,0.309 0,0 0.014,-0.123 -0.049,-0.264 -0.063,-0.141 -0.151,-0.197 -0.151,-0.197 0,0 -0.019,0.042 -0.018,0.072 0.002,0.029 0.018,0.074 0.018,0.074 l -0.09,-0.103 -0.543,-0.319 -1.196,0.193 3.268,2.656 z"/><path id="path78" style="fill:#fcef3c;fill-opacity:1;fill-rule:nonzero;stroke:none" d="m 12.3037,23.9233 c 0,0 0.154,-0.1 0.392,-0.016 0.237,0.085 0.41,0.304 0.41,0.304 l -0.037,-0.339 c 0,0 -0.066,-0.185 -0.283,-0.237 -0.165,-0.039 -0.294,0.034 -0.294,0.034 l -0.168,0.118 -0.02,0.136 z"/><path id="path79" style="fill:#fcef3c;fill-opacity:1;fill-rule:nonzero;stroke:none" d="m 11.2861,25.3096 c 0,0 0.156,-0.013 0.187,0.183 0.033,0.217 -0.106,0.423 -0.106,0.423 0,0 0.193,-0.057 0.256,-0.192 0.063,-0.135 0.043,-0.308 0.043,-0.308 0,0 0.036,-0.053 0.07,-0.092 0.034,-0.039 0.095,-0.096 0.095,-0.096 0,0 0.013,0.066 -0.006,0.11 -0.019,0.044 -0.016,0.086 -0.016,0.086 0,0 0.052,0.017 0.103,0 0.052,-0.017 0.11,-0.011 0.11,-0.011 0,0 -0.139,0.108 -0.219,0.313 -0.08,0.204 -0.388,0.504 -0.726,0.233 -0.405,-0.323 -0.075,-0.86 -0.075,-0.86 l 0.284,0.211 z"/><path id="path80" style="fill:#fcef3c;fill-opacity:1;fill-rule:nonzero;stroke:none" d="m 10.8726,24.0728 c 0,0 0.027,0.124 -0.135,0.319 -0.145,0.175 -0.402,0.177 -0.473,0.091 -0.078,-0.096 -0.106,-0.098 -0.106,-0.098 0,0 0.04,0.233 0.024,0.27 -0.016,0.038 -0.116,0.051 -0.116,0.051 0,0 -0.033,-0.206 -0.192,-0.206 -0.159,0 -0.233,0.184 -0.233,0.29 0,0.243 0.241,0.299 0.241,0.299 0,0 0.011,-0.009 0.025,-0.039 0.015,-0.03 0.027,-0.067 0.027,-0.067 0,0 0.063,0.069 0.222,0.115 0.159,0.046 0.29,-0.007 0.29,-0.007 0,0 -0.056,-0.044 -0.134,-0.083 -0.078,-0.039 -0.108,-0.097 -0.108,-0.097 0,0 0.013,-0.059 0.106,-0.059 0.079,0 0.2,0.052 0.292,0.052 0.102,0 0.135,-0.029 0.135,-0.029 0,0 -0.198,0.413 -0.83,0.413 -0.655,0 -0.908,-0.476 -0.925,-0.95 -0.014,-0.375 0.145,-0.542 0.359,-0.649 l -0.861,-0.542 -0.353,-1.498 1.043,-1.433 c 0,0 0.065,0.237 0.051,0.421 -0.014,0.185 0,0.483 0,0.483 0,0 0.076,-0.11 0.116,-0.249 0.039,-0.139 0.072,-0.273 0.072,-0.273 0,0 0.081,0.122 0.194,0.402 0.114,0.281 0.12,0.51 0.12,0.51 0,0 0.18,0.008 0.375,0.067 0.193,0.058 0.287,0.214 0.287,0.214 0,0 -0.492,0.042 -0.668,0.515 -0.22,0.591 0.28,1.108 0.28,1.108 l 0.875,0.659 z"/><path id="path81" style="fill:#fcef3c;fill-opacity:1;fill-rule:nonzero;stroke:none" d="m 8.5742,19.7476 c 0,0 -0.007,-0.177 -0.082,-0.406 -0.075,-0.23 -0.106,-0.293 -0.106,-0.293 0,0 0.063,-0.009 0.11,0.071 0.047,0.081 0.086,0.12 0.086,0.12 0,0 0.02,-0.3 -0.055,-0.554 -0.139,-0.47 -0.365,-0.622 -0.365,-0.622 l 0.102,-0.028 0.232,0.184 c 0,0 0.118,0.141 0.251,0.431 0.133,0.291 0.186,0.516 0.186,0.516 l 0.152,0.872 -0.101,0.077 -0.41,-0.368 z"/><path id="path82" style="fill:#e20909;fill-opacity:1;fill-rule:nonzero;stroke:none" d="m 17.8862,23.4531 c -0.031,-0.064 -0.077,-0.118 -0.147,-0.155 -0.21,-0.112 -0.423,-0.659 -0.423,-0.659 0,0 -0.114,0.053 -0.093,0.202 0.022,0.149 0.014,0.255 0.014,0.255 0,0 -0.119,-0.213 -0.261,-0.536 -0.154,-0.35 -0.37,-0.417 -0.559,-0.45 -0.214,-0.038 -0.392,-0.018 -0.392,-0.018 0,0 0,0.135 0.274,0.367 0.228,0.193 0.093,0.431 0.093,0.431 0,0 -0.008,-0.114 -0.117,-0.215 -0.11,-0.102 -0.239,-0.12 -0.239,-0.12 0,0 0.009,0.015 -0.006,0.088 -0.015,0.068 -0.037,0.073 -0.037,0.073 0,0 -0.073,-0.004 -0.121,-0.054 -0.049,-0.05 -0.127,-0.04 -0.127,-0.04 0,0 -0.006,0.033 -0.006,0.078 0,0.045 -0.008,0.072 -0.008,0.072 0,0 -0.249,-0.034 -0.314,0.073 -0.095,0.156 0.009,0.314 0.009,0.314 0,0 0.427,-0.33 0.968,0.194 0.077,0.075 0.149,0.15 0.214,0.224 l 1.278,-0.124 z"/><path id="path83" style="fill:#e20909;fill-opacity:1;fill-rule:nonzero;stroke:none" d="m 14.3242,23.1143 c 0,0 -0.009,0.098 0.074,0.184 0.096,0.1 0.125,0.231 -0.128,0.49 -0.175,0.179 -0.415,0.198 -0.415,0.198 0,0 -0.085,-0.052 -0.126,-0.179 -0.04,-0.126 0,-0.204 0,-0.204 0,0 -0.159,-0.057 -0.25,0.113 -0.121,0.223 -0.17,0.246 -0.17,0.246 0,0 0.005,-0.111 -0.015,-0.231 -0.02,-0.119 -0.082,-0.2 -0.082,-0.2 0,0 -0.128,0.094 -0.143,0.341 -0.016,0.247 0.068,0.428 0.068,0.428 0,0 -0.12,0.055 -0.17,0.167 -0.052,0.111 -0.01,0.217 -0.01,0.217 0,0 0.096,-0.002 0.18,-0.069 0.084,-0.066 0.179,-0.088 0.241,-0.08 0.063,0.008 0.193,0.104 0.404,0.036 0.212,-0.069 0.365,-0.203 0.365,-0.203 0,0 0.133,0.118 0.231,0.165 0.098,0.047 0.173,0.01 0.173,0.01 0,0 -0.116,-0.192 -0.129,-0.337 -0.016,-0.181 0.089,-0.32 0.089,-0.32 0,0 0.023,0 0.059,0.013 0.036,0.013 0.077,0.032 0.103,-0.041 0.027,-0.074 -0.003,-0.216 0.031,-0.304 0.035,-0.087 0.08,-0.175 0.142,-0.265 0.098,-0.139 0.115,-0.248 0.115,-0.248 l -0.336,-0.026 -0.301,0.099 z"/><path id="path84" style="fill:#e20909;fill-opacity:1;fill-rule:nonzero;stroke:none" d="m 12.4922,23.6689 c 0,0 -0.131,0.111 -0.188,0.254 -0.065,0.164 -0.183,0.199 -0.183,0.199 0,0 -0.074,0.129 0,0.286 0.075,0.157 0.087,0.235 0.087,0.235 0,0 -0.148,0.008 -0.228,-0.066 -0.08,-0.075 -0.021,-0.232 -0.021,-0.232 0,0 -0.085,-0.009 -0.281,0.165 -0.196,0.174 -0.3,0.22 -0.3,0.22 0,0 -0.073,0.145 -0.098,0.309 -0.025,0.165 0.006,0.271 0.006,0.271 0,0 -0.035,0.002 -0.078,0.018 -0.043,0.016 -0.063,0.031 -0.063,0.031 0,0 -0.011,0.045 0.044,0.102 0.033,0.035 0.035,0.082 0.022,0.096 -0.013,0.013 -0.073,0.019 -0.153,-0.051 -0.149,-0.131 -0.056,-0.408 -0.056,-0.408 0,0 -0.093,0.08 -0.156,0.19 -0.045,0.08 -0.017,0.128 -0.085,0.22 -0.063,0.084 -0.163,0.114 -0.163,0.114 0,0 0.045,-0.108 0.021,-0.277 -0.023,-0.169 0.04,-0.274 0.12,-0.341 0.081,-0.067 0.108,-0.163 0.108,-0.163 0,0 0.072,-0.015 0.125,-0.039 0.053,-0.024 0.093,-0.071 0.093,-0.071 0,0 -0.05,-0.039 -0.096,-0.057 -0.048,-0.017 -0.073,-0.078 -0.073,-0.078 0,0 0.021,-0.051 0.145,-0.078 0.123,-0.028 0.208,-0.014 0.208,-0.014 0,0 -10e-4,-0.065 -0.035,-0.143 -0.044,-0.096 0.021,-0.157 0.021,-0.157 0,0 0.054,-0.003 0.085,0.035 0.047,0.058 0.064,0.049 0.064,0.049 0,0 0.319,0.059 0.566,-0.25 0.305,-0.382 0.542,-0.369 0.542,-0.369"/><path id="path85" style="fill:#e20909;fill-opacity:1;fill-rule:nonzero;stroke:none" d="m 9.645,23.5234 c 0,0 -0.143,0.008 -0.345,0.098 -0.202,0.09 -0.233,0.174 -0.233,0.174 0,0 -0.194,-0.064 -0.383,-0.191 -0.188,-0.128 -0.278,-0.218 -0.278,-0.218 0,0 -0.251,-0.029 -0.42,0.051 -0.229,0.107 -0.288,0.271 -0.288,0.271 0,0 -0.084,-0.197 0,-0.393 0.084,-0.196 0.298,-0.227 0.298,-0.227 0,0 0.029,-0.133 -0.096,-0.163 -0.126,-0.029 -0.261,-0.012 -0.261,-0.012 0,0 0.058,-0.146 0.131,-0.233 0.099,-0.115 0.226,-0.126 0.226,-0.126 0,0 -0.092,-0.199 -0.033,-0.633 0.058,-0.433 0.178,-0.655 0.182,-0.706 0.012,-0.135 -0.208,-0.335 -0.208,-0.335 0,0 0.039,-0.062 0.134,-0.063 0.076,-10e-4 0.139,0.053 0.139,0.053 0,0 0.166,-0.121 0.19,-0.367 0.023,-0.245 -0.061,-0.307 -0.061,-0.307 0,0 0.014,-0.018 0.092,0 0.079,0.017 0.108,0.01 0.108,0.01 0,0 -0.016,-0.263 -0.17,-0.348 -0.222,-0.121 -0.416,-0.019 -0.416,-0.019 0,0 0.176,-0.263 0.506,-0.143 0.329,0.119 0.525,0.419 0.525,0.419 0,0 0.057,0 0.097,0.059 0.039,0.059 0.089,0.041 0.089,0.041 0,0 -0.116,0.261 -0.197,0.41 -0.081,0.149 -0.157,0.243 -0.157,0.243 0,0 0.121,-0.008 0.223,0.026 0.102,0.033 0.133,0.111 0.133,0.111 0,0 -0.156,0.041 -0.35,0.191 -0.195,0.149 -0.226,0.253 -0.226,0.253 0,0 0.457,0.05 0.765,-0.081 0.467,-0.198 0.529,-0.567 0.529,-0.567 0,0 0.096,0.165 0.029,0.489 -0.066,0.323 -0.286,0.576 -0.286,0.576 0,0 0.102,0.035 0.272,0.207 0.166,0.168 0.338,0.172 0.338,0.172 0,0 -0.015,0.072 -0.071,0.098 -0.055,0.025 -0.129,-0.008 -0.129,-0.008 0,0 0.071,0.122 0.063,0.341 -0.008,0.22 -0.086,0.302 -0.086,0.302 0,0 -0.063,-0.177 -0.12,-0.268 -0.056,-0.092 -0.116,-0.114 -0.116,-0.114 0,0 -0.125,0.091 -0.227,0.127 -0.102,0.037 -0.188,0.022 -0.188,0.022 0,0 0.128,-0.177 0.013,-0.439 -0.068,-0.156 -0.486,-0.224 -0.729,0.013 -0.211,0.206 -0.186,0.532 -0.186,0.532 0,0 0.058,0.007 0.116,-0.048 0.056,-0.054 0.101,-0.056 0.101,-0.056 0,0 0.101,0.033 0.096,0.311 -0.004,0.256 0.04,0.316 0.04,0.316 0,0 0.036,-0.021 0.045,-0.133 0.009,-0.135 0.056,-0.175 0.056,-0.175 0,0 0.017,0.106 0.16,0.318 0.148,0.222 0.241,0.2 0.241,0.2 0,0 0.017,-0.021 0.004,-0.082 -0.014,-0.061 0.015,-0.116 0.015,-0.116 0,0 0.055,0.004 0.173,0.055 0.117,0.051 0.131,0.082 0.131,0.082"/><path id="path86" style="fill:#e20909;fill-opacity:1;fill-rule:nonzero;stroke:none" d="m 10.9048,15.0332 c 0,0 0,-0.049 0.081,-0.105 0.082,-0.056 0.139,-0.066 0.139,-0.066 0,0 -0.003,-0.172 -0.169,-0.261 -0.165,-0.089 -0.198,-0.177 -0.198,-0.177 0,0 0.075,-0.016 0.249,0.019 0.173,0.036 0.234,0.086 0.234,0.086 0,0 0.014,-0.062 -0.017,-0.109 -0.031,-0.047 -0.039,-0.106 -0.039,-0.106 0,0 0.104,0.04 0.256,0.188 0.151,0.146 0.186,0.265 0.186,0.265 0,0 0.034,-0.011 0.042,-0.07 0.008,-0.06 0.024,-0.109 0.024,-0.109 0,0 0.078,0.063 0.182,0.199 0.105,0.137 0.139,0.267 0.139,0.267 0,0 0.05,-0.054 0.099,-0.169 0.048,-0.117 0.136,-0.145 0.136,-0.145 0,0 0.098,0.057 0.153,0.189 0.054,0.133 0.062,0.183 0.062,0.183 0,0 0.289,0.079 0.608,0.229 0.381,0.177 0.375,0.301 0.375,0.301 0,0 -0.106,-0.034 -0.233,-0.108 -0.162,-0.095 -0.382,-0.07 -0.538,-0.035 -0.207,0.048 -0.367,0.034 -0.367,0.034 l -0.814,-0.056 -0.113,-0.143 c 0,0 -0.066,-0.119 -0.231,-0.219 -0.168,-0.102 -0.246,-0.082 -0.246,-0.082"/><path id="path87" style="fill:#e20909;fill-opacity:1;fill-rule:nonzero;stroke:none" d="m 14.7842,14.8271 c 0,0 0.016,-0.051 -0.02,-0.16 -0.035,-0.111 -0.011,-0.155 -0.011,-0.155 0,0 0.112,-0.022 0.219,0.043 0.108,0.064 0.179,0.168 0.179,0.168 0,0 0.045,-0.643 -0.342,-1.001 -0.213,-0.199 -0.658,-0.248 -0.882,0.003 -0.21,0.237 -0.335,0.326 -0.335,0.326 0,0 0.13,0.004 0.192,-0.096 0.068,-0.109 0.139,-0.116 0.139,-0.116 0,0 -0.02,0.091 -0.07,0.167 -0.05,0.077 -0.042,0.175 -0.042,0.175 0,0 0.04,-0.015 0.086,-0.077 0.045,-0.06 0.108,-0.079 0.108,-0.079 0,0 0.014,0.051 -0.026,0.131 -0.096,0.195 0.102,0.299 0.102,0.299 0,0 0.009,-0.112 0.226,-0.094 0.231,0.019 0.296,-0.002 0.296,-0.002 0,0 0.015,0.03 -0.063,0.154 -0.058,0.091 -0.007,0.179 0.099,0.224 0.081,0.034 0.145,0.09 0.145,0.09"/><path id="path88" style="fill:#e20909;fill-opacity:1;fill-rule:nonzero;stroke:none" d="m 8.4961,18.2197 c 0,0 -0.176,-0.279 -0.324,-0.39 -0.149,-0.111 -0.245,-0.128 -0.43,-0.05 -0.184,0.078 -0.325,0.028 -0.325,0.028 0,0 -0.003,0.044 0.158,0.1 0.161,0.056 0.105,0.158 0.014,0.222 -0.091,0.064 -0.084,0.141 -0.084,0.141 0,0 0.043,-0.01 0.126,0.008 0.083,0.017 0.127,0.01 0.127,0.01 0,0 0.037,0.115 0.106,0.166 0.069,0.052 0.133,-0.006 0.133,-0.006 0,0 -0.051,-0.064 -0.041,-0.197 0.012,-0.133 0.066,-0.175 0.066,-0.175 0,0 0.131,-0.039 0.273,0.014 0.14,0.052 0.201,0.129 0.201,0.129"/><path id="path89" style="fill:#e20909;fill-opacity:1;fill-rule:nonzero;stroke:none" d="m 10.8726,24.0728 c 0,0 -0.177,0.147 -0.456,0.039 -0.376,-0.148 -0.456,-0.112 -0.456,-0.112 0,0 0.085,-0.091 0.092,-0.255 0.008,-0.162 -0.055,-0.331 -0.055,-0.331 l 0.608,0.275 0.267,0.384 z"/><path id="path90" style="fill:#fcef3c;fill-opacity:1;fill-rule:nonzero;stroke:none" d="m 18.928,21.606 -1.855,0 0,-2.737 1.855,0 0,2.737 z"/><path id="path91" style="fill:#2b5df2;fill-opacity:1;fill-rule:nonzero;stroke:none" d="m 20.782,21.606 -1.854,0 0,-2.737 1.854,0 0,2.737 z"/><path id="path92" style="fill:#2b5df2;fill-opacity:1;fill-rule:nonzero;stroke:none" d="m 17.073,21.606 -1.855,0 0,-2.737 1.855,0 0,2.737 z"/><path id="path93" style="fill:#ffffff;fill-opacity:1;fill-rule:nonzero;stroke:none" d="m 18.928,18.869 -1.855,0 0,-2.737 1.855,0 0,2.737 z"/><path id="path94" style="fill:#e20909;fill-opacity:1;fill-rule:nonzero;stroke:none" d="m 20.782,18.869 -1.854,0 0,-2.737 1.854,0 0,2.737 z"/><path id="path95" style="fill:#e20909;fill-opacity:1;fill-rule:nonzero;stroke:none" d="m 17.073,18.869 -1.855,0 0,-2.737 1.855,0 0,2.737 z"/><path id="path96" style="fill:#ffffff;fill-opacity:1;fill-rule:nonzero;stroke:none" d="m 20.7822,14.1943 0,1.937 -1.854,0 0,-2.727 0.926,0 c 0,0 0.507,-0.02 0.708,0.177 0.233,0.224 0.22,0.613 0.22,0.613"/><path id="path97" style="fill:#ffffff;fill-opacity:1;fill-rule:nonzero;stroke:none" d="m 15.2178,14.1943 0,1.937 1.855,0 0,-2.727 -0.928,0 c 0,0 -0.506,-0.02 -0.708,0.177 -0.232,0.224 -0.219,0.613 -0.219,0.613"/><path id="path98" style="fill:#fcef3c;fill-opacity:1;fill-rule:nonzero;stroke:none" d="m 17.0728,16.1318 0,-2.728 c 0,0 0.392,0.049 0.617,-0.062 0.259,-0.128 0.31,-0.277 0.31,-0.277 0,0 0.051,0.149 0.31,0.277 0.225,0.111 0.618,0.062 0.618,0.062 l 0,2.728 -1.855,0 z"/><path id="path99" style="fill:#2b5df2;fill-opacity:1;fill-rule:nonzero;stroke:none" d="m 22.6719,23.4404 0.764,-3.309 -2.018,-0.471 c 0.055,0.258 0.061,0.577 -0.029,0.963 -0.245,1.045 -1.154,1.465 -1.154,1.465 l 0.514,0.967 c 0,0 0.557,-0.067 1.039,0.092 0.375,0.123 0.612,0.218 0.884,0.293"/><path id="path00" style="fill:#e20909;fill-opacity:1;fill-rule:nonzero;stroke:none" d="m 21.1592,19.0645 c -0.143,-0.199 -0.282,-0.29 -0.282,-0.29 0,0 0.148,-1.035 0.757,-1.788 0.413,-0.512 1.154,-0.478 1.154,-0.478 0,0 0.09,-0.518 0.459,-0.782 0.383,-0.273 0.901,-0.232 1.273,-0.356 0.003,-10e-4 0.01,-0.003 0.013,-0.004 l -0.978,4.248 -2.396,-0.55 z"/><path id="path01" style="fill:#2b5df2;fill-opacity:1;fill-rule:nonzero;stroke:none" d="m 26.5049,20.2983 c 0.212,-0.112 0.372,-0.122 0.372,-0.122 0,0 0.282,-0.912 0.18,-1.657 -0.133,-0.972 -0.894,-1.227 -0.894,-1.227 0,0 0.18,-0.553 -0.166,-1.073 -0.146,-0.219 -0.62,-0.466 -0.842,-0.678 -0.023,-0.022 -0.044,-0.042 -0.063,-0.061 l -0.989,4.26 2.405,0.557"/><path id="path02" style="fill:#e20909;fill-opacity:1;fill-rule:nonzero;stroke:none" d="m 23.2188,23.5469 c 0.317,0.038 0.665,0.054 1.028,0.147 0.483,0.124 0.881,0.379 0.881,0.379 l 0.874,-0.659 c 0,0 -0.677,-0.867 -0.366,-1.914 0.099,-0.334 0.23,-0.583 0.373,-0.77 l -2.026,-0.475 -0.764,3.292 z"/><path id="path03" style="fill:#ffffff;fill-opacity:1;fill-rule:nonzero;stroke:none" d="m 24.5303,15.3672 c 0.197,-0.067 0.33,-0.165 0.33,-0.165 0,0 0.019,0.065 0.232,0.278 l -0.99,4.26 2.402,0.558 c -0.151,0.08 -0.328,0.212 -0.495,0.429 l -2.027,-0.472 -0.764,3.292 c -0.103,-0.013 -0.204,-0.027 -0.3,-0.047 -0.088,-0.019 -0.169,-0.038 -0.247,-0.06 l 0.764,-3.308 -2.017,-0.471 c -0.055,-0.258 -0.158,-0.455 -0.259,-0.597 l 2.395,0.551 0.976,-4.248 z"/><path id="path04" style="fill:#ffffff;fill-opacity:1;fill-rule:nonzero;stroke:none" d="m 12.2539,19.9692 -2.432,0.569 c 0.203,0.196 0.405,0.497 0.543,0.962 0.31,1.047 -0.367,1.913 -0.367,1.913 l 0.875,0.66 c 0,0 0.398,-0.255 0.88,-0.379 0.482,-0.123 0.936,-0.112 1.33,-0.194 l -0.829,-3.531 z"/><path id="path05" style="fill:#2b5df2;fill-opacity:1;fill-rule:nonzero;stroke:none" d="m 12.2539,19.9692 2.403,-0.562 c -0.112,0.291 -0.168,0.691 -0.045,1.216 0.245,1.045 1.153,1.465 1.153,1.465 l -0.514,0.967 c 0,0 -0.557,-0.067 -1.039,0.092 -0.482,0.158 -0.735,0.27 -1.129,0.353 l -0.829,-3.531 z"/><path id="path06" style="fill:#ffffff;fill-opacity:1;fill-rule:nonzero;stroke:none" d="m 11.1392,15.2021 c 0,0 0.137,0.101 0.34,0.168 0.372,0.124 0.891,0.083 1.274,0.356 0.369,0.264 0.459,0.783 0.459,0.783 0,0 0.741,-0.035 1.155,0.477 0.607,0.753 0.756,1.788 0.756,1.788 0,0 -0.296,0.193 -0.466,0.633 l -2.403,0.562 -1.115,-4.767 z"/><path id="path07" style="fill:#2b5df2;fill-opacity:1;fill-rule:nonzero;stroke:none" d="m 11.1392,15.2021 c 0,0 -0.021,0.078 -0.294,0.339 -0.222,0.212 -0.695,0.459 -0.842,0.679 -0.346,0.519 -0.166,1.072 -0.166,1.072 0,0 -0.761,0.255 -0.894,1.227 -0.102,0.745 0.18,1.657 0.18,1.657 0,0 0.349,0.022 0.699,0.362 l 2.432,-0.569 -1.115,-4.767 z"/><path id="path08" style="fill:#fcef3c;fill-opacity:1;fill-rule:nonzero;stroke:none" d="m 18,24.4648 c 1.653,0 2.674,-0.506 2.674,-0.506 0,0 0.488,1.32 0.652,1.559 0.077,0.111 0.184,0.248 0.389,0.276 0.204,0.028 0.288,0.088 0.288,0.088 0,0 -0.085,0.015 -0.203,0.112 -0.117,0.097 -0.244,-0.017 -0.244,-0.017 0,0 -0.033,0.112 -0.103,0.155 -0.07,0.044 -0.226,0.015 -0.226,0.015 0,0 0.041,-0.035 0.041,-0.129 0,-0.095 -0.041,-0.277 -0.041,-0.277 0,0 -0.122,0.027 -0.136,0.08 -0.015,0.053 0.056,0.156 0.056,0.156 0,0 -0.124,0.044 -0.203,-0.006 -0.08,-0.05 -0.144,-0.153 -0.144,-0.153 0,0 -0.227,0.041 -0.265,-0.065 -0.038,-0.106 0.168,-0.241 0.168,-0.241 0,0 -0.006,-0.109 0.044,-0.156 0.05,-0.047 0.136,-0.074 0.136,-0.074 0,0 -0.028,0.189 0.096,0.162 0.124,-0.026 0.074,-0.388 -0.538,-0.255 -0.612,0.132 -0.635,0.729 -0.635,0.729 0,0 0.135,-0.006 0.179,0.188 0.044,0.194 -0.138,0.268 -0.138,0.268 0,0 0.115,0.164 -0.041,0.194 -0.156,0.029 -0.079,-0.188 -0.079,-0.188 0,0 -0.171,0 -0.206,-0.195 -0.036,-0.194 0.109,-0.246 0.109,-0.246 0,0 -0.123,-0.393 -0.624,-0.542 -0.744,-0.221 -0.918,0.427 -0.918,0.427 0,0 0.094,0.029 0.124,-0.006 0.029,-0.036 0.044,-0.142 0.044,-0.142 0,0 0.141,0.027 0.2,0.121 0.059,0.094 0.174,0.094 0.174,0.094 0,0 0.038,0.112 -0.019,0.177 -0.055,0.064 -0.102,0.085 -0.102,0.085 0,0 0.065,0.109 0.032,0.183 -0.056,0.123 -0.141,0.108 -0.141,0.108 0,0 0,-0.076 -0.024,-0.126 -0.023,-0.05 -0.088,-0.059 -0.088,-0.059 0,0 -0.017,0.103 0.003,0.203 0.021,0.1 0.112,0.127 0.112,0.127 0,0 -0.041,0.055 -0.103,0.052 -0.062,-0.003 -0.156,-0.058 -0.156,-0.058 0,0 0.029,0.047 -0.038,0.106 -0.068,0.058 -0.106,0.138 -0.106,0.138 0,0 -0.038,-0.08 -0.106,-0.138 -0.067,-0.059 -0.038,-0.106 -0.038,-0.106 0,0 -0.094,0.055 -0.156,0.058 -0.062,0.003 -0.103,-0.052 -0.103,-0.052 0,0 0.091,-0.027 0.112,-0.127 0.02,-0.1 0.003,-0.203 0.003,-0.203 0,0 -0.065,0.009 -0.088,0.059 -0.024,0.05 -0.024,0.126 -0.024,0.126 0,0 -0.085,0.015 -0.141,-0.108 -0.033,-0.074 0.032,-0.183 0.032,-0.183 0,0 -0.047,-0.021 -0.103,-0.085 -0.055,-0.065 -0.017,-0.177 -0.017,-0.177 0,0 0.114,0 0.173,-0.094 0.059,-0.094 0.2,-0.121 0.2,-0.121 0,0 0.015,0.106 0.044,0.142 0.03,0.035 0.124,0.006 0.124,0.006 0,0 -0.174,-0.648 -0.918,-0.427 -0.501,0.149 -0.623,0.542 -0.623,0.542 0,0 0.144,0.052 0.108,0.246 -0.035,0.195 -0.206,0.195 -0.206,0.195 0,0 0.077,0.217 -0.079,0.188 -0.156,-0.03 -0.041,-0.194 -0.041,-0.194 0,0 -0.182,-0.074 -0.138,-0.268 0.044,-0.194 0.179,-0.188 0.179,-0.188 0,0 -0.024,-0.597 -0.635,-0.729 -0.612,-0.133 -0.662,0.229 -0.538,0.255 0.123,0.027 0.097,-0.162 0.097,-0.162 0,0 0.085,0.027 0.135,0.074 0.05,0.047 0.044,0.156 0.044,0.156 0,0 0.206,0.135 0.168,0.241 -0.039,0.106 -0.265,0.065 -0.265,0.065 0,0 -0.065,0.103 -0.144,0.153 -0.079,0.05 -0.203,0.006 -0.203,0.006 0,0 0.07,-0.103 0.056,-0.156 -0.015,-0.053 -0.136,-0.08 -0.136,-0.08 0,0 -0.041,0.182 -0.041,0.277 0,0.094 0.041,0.129 0.041,0.129 0,0 -0.155,0.029 -0.226,-0.015 -0.07,-0.043 -0.103,-0.155 -0.103,-0.155 0,0 -0.126,0.114 -0.244,0.017 -0.117,-0.097 -0.203,-0.112 -0.203,-0.112 0,0 0.084,-0.06 0.288,-0.088 0.205,-0.028 0.312,-0.165 0.388,-0.276 0.165,-0.239 0.654,-1.559 0.654,-1.559 0,0 1.02,0.506 2.673,0.506"/></g><g id="g36"><path id="path09" style="fill:#2b5df2;fill-opacity:1;fill-rule:nonzero;stroke:none" d="m 18,5.0195 -1.542,2.361 -1.553,-2.361 3.095,0 z"/><path id="path10" style="fill:#e20909;fill-opacity:1;fill-rule:nonzero;stroke:none" d="m 21.0957,5.0195 -1.543,2.361 -1.553,-2.361 3.096,0 z"/><path id="path11" style="fill:#2b5df2;fill-opacity:1;fill-rule:nonzero;stroke:none" d="m 11.8096,5.0195 -1.542,2.361 -1.554,-2.361 3.096,0 z"/><path id="path12" style="fill:#e20909;fill-opacity:1;fill-rule:nonzero;stroke:none" d="m 14.9048,5.0195 -1.542,2.361 -1.553,-2.361 3.095,0 z"/><path id="path13" style="fill:#2b5df2;fill-opacity:1;fill-rule:nonzero;stroke:none" d="m 5.6187,5.0195 -1.542,2.361 -1.553,-2.361 3.095,0 z"/><path id="path14" style="fill:#e20909;fill-opacity:1;fill-rule:nonzero;stroke:none" d="m 8.7139,5.0195 -1.542,2.361 -1.553,-2.361 3.095,0 z"/><path id="path15" style="fill:#2b5df2;fill-opacity:1;fill-rule:nonzero;stroke:none" d="m 24.1904,5.0195 -1.542,2.361 -1.553,-2.361 3.095,0 z"/><path id="path16" style="fill:#e20909;fill-opacity:1;fill-rule:nonzero;stroke:none" d="m 27.2861,5.0195 -1.542,2.361 -1.554,-2.361 3.096,0 z"/><path id="path17" style="fill:#2b5df2;fill-opacity:1;fill-rule:nonzero;stroke:none" d="m 30.3809,5.0195 -1.542,2.361 -1.553,-2.361 3.095,0 z"/><path id="path18" style="fill:#e20909;fill-opacity:1;fill-rule:nonzero;stroke:none" d="m 33.4766,5.0195 -1.542,2.361 -1.554,-2.361 3.096,0 z"/><path id="path19" style="fill:#2b5df2;fill-opacity:1;fill-rule:nonzero;stroke:none" d="M 18,31 19.542,28.639 21.096,31 18,31 z"/><path id="path21" style="fill:#e20909;fill-opacity:1;fill-rule:nonzero;stroke:none" d="m 14.9048,31 1.542,-2.361 1.553,2.361 -3.095,0 z"/><path id="path22" style="fill:#2b5df2;fill-opacity:1;fill-rule:nonzero;stroke:none" d="m 24.1904,31 1.542,-2.361 1.554,2.361 -3.096,0 z"/><path id="path23" style="fill:#e20909;fill-opacity:1;fill-rule:nonzero;stroke:none" d="m 21.0957,31 1.542,-2.361 1.553,2.361 -3.095,0 z"/><path id="path24" style="fill:#2b5df2;fill-opacity:1;fill-rule:nonzero;stroke:none" d="m 30.3809,31 1.543,-2.361 1.553,2.361 -3.096,0 z"/><path id="path25" style="fill:#e20909;fill-opacity:1;fill-rule:nonzero;stroke:none" d="m 27.2861,31 1.542,-2.361 1.553,2.361 -3.095,0 z"/><path id="path26" style="fill:#2b5df2;fill-opacity:1;fill-rule:nonzero;stroke:none" d="m 11.8096,31 1.542,-2.361 1.553,2.361 -3.095,0 z"/><path id="path27" style="fill:#e20909;fill-opacity:1;fill-rule:nonzero;stroke:none" d="m 8.7139,31 1.542,-2.361 1.554,2.361 -3.096,0 z"/><path id="path28" style="fill:#2b5df2;fill-opacity:1;fill-rule:nonzero;stroke:none" d="M 5.6187,31 7.1607,28.639 8.7137,31 5.6187,31 z"/><path id="path29" style="fill:#e20909;fill-opacity:1;fill-rule:nonzero;stroke:none" d="M 2.5234,31 4.0654,28.639 5.6184,31 2.5234,31 z"/><path id="path30" style="fill:#2b5df2;fill-opacity:1;fill-rule:nonzero;stroke:none" d="M 0,16.457 2.361,17.999 0,19.552 0,16.457 z"/><path id="path58" style="fill:#e20909;fill-opacity:1;fill-rule:nonzero;stroke:none" d="M 0,13.3613 2.361,14.9033 0,16.4573 0,13.3613 z"/><path id="path59" style="fill:#2b5df2;fill-opacity:1;fill-rule:nonzero;stroke:none" d="M 0,22.6475 2.361,24.1895 0,25.7425 0,22.6475 z"/><path id="pathA0" style="fill:#e20909;fill-opacity:1;fill-rule:nonzero;stroke:none" d="M 0,19.5522 2.361,21.0942 0,22.6472 0,19.5522 z"/><path id="pathA1" style="fill:#e20909;fill-opacity:1;fill-rule:nonzero;stroke:none" d="M 0,25.7427 2.361,27.2847 0,28.8377 0,25.7427 z"/><path id="pathA2" style="fill:#2b5df2;fill-opacity:1;fill-rule:nonzero;stroke:none" d="M 0,10.2666 2.361,11.8086 0,13.3616 0,10.2666 z"/><path id="pathA3" style="fill:#e20909;fill-opacity:1;fill-rule:nonzero;stroke:none" d="M 0,7.1709 2.361,8.7129 0,10.2669 0,7.1709 z"/><path id="pathA4" style="fill:#2b5df2;fill-opacity:1;fill-rule:nonzero;stroke:none" d="M 36,16.457 33.639,14.915 36,13.361 l 0,3.096 z"/><path id="pathA5" style="fill:#e20909;fill-opacity:1;fill-rule:nonzero;stroke:none" d="m 36,19.5522 -2.361,-1.542 2.361,-1.553 0,3.095 z"/><path id="pathA6" style="fill:#2b5df2;fill-opacity:1;fill-rule:nonzero;stroke:none" d="M 36,10.2666 33.639,8.7236 36,7.1706 l 0,3.096 z"/><path id="pathA7" style="fill:#e20909;fill-opacity:1;fill-rule:nonzero;stroke:none" d="m 36,13.3613 -2.361,-1.542 2.361,-1.553 0,3.095 z"/><path id="pathA8" style="fill:#2b5df2;fill-opacity:1;fill-rule:nonzero;stroke:none" d="m 36,22.6475 -2.361,-1.542 2.361,-1.553 0,3.095 z"/><path id="pathA9" style="fill:#e20909;fill-opacity:1;fill-rule:nonzero;stroke:none" d="m 36,25.7427 -2.361,-1.542 2.361,-1.553 0,3.095 z"/><path id="pathB0" style="fill:#2b5df2;fill-opacity:1;fill-rule:nonzero;stroke:none" d="m 36,28.8379 -2.361,-1.542 2.361,-1.553 0,3.095 z"/></g></g></g></g></svg>