<svg xmlns:dc="http://purl.org/dc/elements/1.1/" xmlns:cc="http://creativecommons.org/ns#" xmlns:rdf="http://www.w3.org/1999/02/22-rdf-syntax-ns#" xmlns:svg="http://www.w3.org/2000/svg" xmlns="http://www.w3.org/2000/svg" viewBox="0 0 45 45" style="enable-background:new 0 0 45 45;" xml:space="preserve" version="1.1" id="svg2"><metadata id="metadata8"><rdf:RDF><cc:Work rdf:about=""><dc:format>image/svg+xml</dc:format><dc:type rdf:resource="http://purl.org/dc/dcmitype/StillImage"/></cc:Work></rdf:RDF></metadata><defs id="defs6"><clipPath id="clipPath16" clipPathUnits="userSpaceOnUse"><path id="path18" d="M 4,31 C 1.791,31 0,29.209 0,27 L 0,27 0,9 C 0,6.791 1.791,5 4,5 l 0,0 28,0 c 2.209,0 4,1.791 4,4 l 0,0 0,18 c 0,2.209 -1.791,4 -4,4 l 0,0 -28,0 z"/></clipPath></defs><g transform="matrix(1.25,0,0,-1.25,0,45)" id="g10"><g id="g12"><g xmlns="http://www.w3.org/2000/svg" clip-path="url(#clipPath16)" id="g14"><g id="g30"><path id="path20" style="fill:#fcde02;fill-opacity:1;fill-rule:nonzero;stroke:none" d="m 0,28.111 36,0 L 36,31 0,31 0,28.111 z"/><path id="path21" style="fill:#db0913;fill-opacity:1;fill-rule:nonzero;stroke:none" d="m 0,25.222 36,0 0,2.889 -36,0 0,-2.889 z"/><path id="path22" style="fill:#fbeb05;fill-opacity:1;fill-rule:nonzero;stroke:none" d="m 0,22.333 36,0 0,2.889 -36,0 0,-2.889 z"/><path id="path23" style="fill:#db0913;fill-opacity:1;fill-rule:nonzero;stroke:none" d="m 0,19.444 36,0 0,2.889 -36,0 0,-2.889 z"/><path id="path24" style="fill:#fbeb05;fill-opacity:1;fill-rule:nonzero;stroke:none" d="m 0,16.556 36,0 0,2.889 -36,0 0,-2.889 z"/><path id="path25" style="fill:#db0913;fill-opacity:1;fill-rule:nonzero;stroke:none" d="m 0,13.667 36,0 0,2.889 -36,0 0,-2.889 z"/><path id="path26" style="fill:#fbeb05;fill-opacity:1;fill-rule:nonzero;stroke:none" d="m 0,10.777 36,0 0,2.89 -36,0 0,-2.89 z"/><path id="path27" style="fill:#db0913;fill-opacity:1;fill-rule:nonzero;stroke:none" d="m 0,7.889 36,0 0,2.89 -36,0 0,-2.89 z"/><path id="path28" style="fill:#fcde02;fill-opacity:1;fill-rule:nonzero;stroke:none" d="m 0,5 36,0 0,2.889 -36,0 L 0,5 z"/></g><g id="g34"><path id="path30" style="fill:#ed6c10;fill-opacity:1;fill-rule:nonzero;stroke:none" d="m 14.9102,16.6113 0,-1.025 c 0,0 0.096,-2.121 -1.077,-3.579 -0.583,-0.723 -1.645,-1.247 -2.783,-1.247 l 0,5.851 3.86,0 z"/><path id="path31" style="fill:#e97d83;fill-opacity:1;fill-rule:nonzero;stroke:none" d="m 7.1895,16.6113 0,-1.025 c 0,0 -0.095,-2.121 1.078,-3.579 0.582,-0.723 1.644,-1.247 2.782,-1.247 l 0,5.851 -3.86,0 z"/><path id="path32" style="fill:#0072bd;fill-opacity:1;fill-rule:nonzero;stroke:none" d="m 11.05,16.611 3.86,0 0,4.367 -3.86,0 0,-4.367 z"/><path id="path33" style="fill:#ebc200;fill-opacity:1;fill-rule:nonzero;stroke:none" d="m 7.189,16.611 3.86,0 0,4.367 -3.86,0 0,-4.367 z"/><path id="path34" style="fill:#ebc200;fill-opacity:1;fill-rule:nonzero;stroke:none" d="m 11.0498,25.2085 c -5.8,0 -3.86,-4.23 -3.86,-4.23 0,0 1.499,0.149 3.86,0.149 2.362,0 3.86,-0.149 3.86,-0.149 0,0 1.94,4.23 -3.86,4.23"/></g></g></g></g></svg>