<svg xmlns:dc="http://purl.org/dc/elements/1.1/" xmlns:cc="http://creativecommons.org/ns#" xmlns:rdf="http://www.w3.org/1999/02/22-rdf-syntax-ns#" xmlns:svg="http://www.w3.org/2000/svg" xmlns="http://www.w3.org/2000/svg" viewBox="0 0 45 45" style="enable-background:new 0 0 45 45;" xml:space="preserve" version="1.1" id="svg2"><metadata id="metadata8"><rdf:RDF><cc:Work rdf:about=""><dc:format>image/svg+xml</dc:format><dc:type rdf:resource="http://purl.org/dc/dcmitype/StillImage"/></cc:Work></rdf:RDF></metadata><defs id="defs6"><clipPath id="clipPath16" clipPathUnits="userSpaceOnUse"><path id="path18" d="M 0,36 36,36 36,0 0,0 0,36 Z"/></clipPath></defs><g transform="matrix(1.25,0,0,-1.25,0,45)" id="g10"><g id="g12"><g xmlns="http://www.w3.org/2000/svg" clip-path="url(#clipPath16)" id="g14"><g id="g30"><path id="path20" style="fill:#00297b;fill-opacity:1;fill-rule:nonzero;stroke:none" d="m 36,9 0,18 c 0,2.209 -1.791,4 -4,4 L 4,31 C 1.791,31 0,29.209 0,27 L 0,9 C 0,6.791 1.791,5 4,5 l 28,0 c 2.209,0 4,1.791 4,4"/></g><g id="g32"><path id="path30" style="fill:#ffffff;fill-opacity:1;fill-rule:nonzero;stroke:none" d="m 27.374,18.001 c 0,5.177 -4.197,9.374 -9.374,9.374 -5.177,0 -9.374,-4.197 -9.374,-9.374 0,-5.177 4.197,-9.374 9.374,-9.374 5.177,0 9.374,4.197 9.374,9.374"/><path id="path31" style="fill:#ff350f;fill-opacity:1;fill-rule:nonzero;stroke:none" d="m 26.3438,18.001 c 0,4.608 -3.736,8.343 -8.344,8.343 -4.608,0 -8.343,-3.735 -8.343,-8.343 0,-4.608 3.735,-8.344 8.343,-8.344 4.608,0 8.344,3.736 8.344,8.344"/><path id="path32" style="fill:#ffffff;fill-opacity:1;fill-rule:nonzero;stroke:none" d="m 25.0098,18.001 c 0,3.872 -3.139,7.01 -7.01,7.01 -3.871,0 -7.01,-3.138 -7.01,-7.01 0,-3.871 3.139,-7.01 7.01,-7.01 3.871,0 7.01,3.139 7.01,7.01"/></g><g id="g34"><path id="path40" style="fill:#a85f39;fill-opacity:1;fill-rule:nonzero;stroke:none" d="m 14.9072,23.9756 -0.062,-0.046 0.424,-0.455 0.035,-0.043 0.004,0.002 -0.013,0.052 -0.109,0.614 -0.073,-0.021 -0.054,0.107 0.326,0.163 0.053,-0.108 -0.07,-0.047 0.124,-0.904 -0.184,-0.091 -0.648,0.642 -0.078,-0.027 -0.054,0.107 0.325,0.162 0.054,-0.107 z"/><path id="path41" style="fill:#a85f39;fill-opacity:1;fill-rule:nonzero;stroke:none" d="m 15.686,24.3208 -0.038,0.114 0.391,0.129 0.038,-0.114 -0.095,-0.053 0.225,-0.678 0.107,0.015 0.038,-0.114 -0.392,-0.13 -0.037,0.114 0.095,0.053 -0.225,0.678 -0.107,-0.014 z"/><path id="path42" style="fill:#a85f39;fill-opacity:1;fill-rule:nonzero;stroke:none" d="m 16.7104,24.2798 0.136,0.024 c 0.054,0.011 0.093,0.03 0.116,0.058 0.023,0.028 0.031,0.064 0.023,0.108 -0.008,0.044 -0.028,0.077 -0.06,0.098 -0.031,0.021 -0.074,0.027 -0.127,0.018 l -0.139,-0.026 0.051,-0.28 z m 0.061,0.457 c 0.111,0.02 0.203,0.01 0.275,-0.029 0.072,-0.039 0.117,-0.104 0.133,-0.193 0.009,-0.049 0.004,-0.095 -0.016,-0.136 -0.02,-0.041 -0.054,-0.078 -0.1,-0.109 0.061,-0.007 0.107,-0.028 0.14,-0.062 0.032,-0.035 0.054,-0.082 0.065,-0.141 l 0.009,-0.05 c 0.004,-0.021 0.011,-0.037 0.021,-0.048 0.011,-0.01 0.027,-0.014 0.047,-0.013 l 0.025,0.001 0.021,-0.118 -0.101,-0.019 c -0.064,-0.012 -0.113,-0.002 -0.145,0.027 -0.032,0.03 -0.053,0.072 -0.063,0.127 l -0.01,0.056 c -0.009,0.047 -0.029,0.082 -0.059,0.105 -0.03,0.022 -0.068,0.03 -0.115,0.023 l -0.16,-0.029 0.047,-0.259 0.108,-0.001 0.022,-0.117 -0.406,-0.074 -0.021,0.118 0.1,0.039 -0.128,0.702 -0.107,0.001 -0.022,0.118 0.104,0.02 0.336,0.061 z"/><path id="path43" style="fill:#a85f39;fill-opacity:1;fill-rule:nonzero;stroke:none" d="m 18.3638,23.9614 c -0.032,-0.032 -0.079,-0.061 -0.141,-0.087 -0.062,-0.026 -0.14,-0.039 -0.235,-0.04 -0.134,-10e-4 -0.244,0.044 -0.329,0.133 -0.085,0.089 -0.127,0.206 -0.128,0.35 l 0,0.034 c -10e-4,0.149 0.04,0.27 0.122,0.364 0.083,0.094 0.191,0.142 0.325,0.142 0.078,0 0.149,-0.011 0.214,-0.036 0.064,-0.024 0.118,-0.057 0.161,-0.1 l 0.001,-0.2 -0.147,0 -0.029,0.132 c -0.018,0.016 -0.043,0.028 -0.072,0.037 -0.03,0.009 -0.064,0.014 -0.103,0.014 -0.087,-0.001 -0.155,-0.034 -0.202,-0.098 -0.048,-0.064 -0.072,-0.148 -0.071,-0.252 l 0,-0.036 c 0,-0.101 0.025,-0.182 0.072,-0.242 0.048,-0.06 0.117,-0.09 0.206,-0.089 0.04,0 0.072,0.004 0.097,0.011 0.025,0.007 0.044,0.015 0.058,0.024 l -0.001,0.169 -0.142,0.01 -0.001,0.14 0.343,0.002 0.002,-0.382 z"/><path id="path44" style="fill:#a85f39;fill-opacity:1;fill-rule:nonzero;stroke:none" d="m 18.6553,24.6982 0.016,0.119 0.409,-0.053 -0.016,-0.12 -0.108,-0.006 -0.093,-0.708 0.103,-0.034 -0.016,-0.118 -0.408,0.053 0.015,0.118 0.109,0.007 0.093,0.708 -0.104,0.034 z"/><path id="path45" style="fill:#a85f39;fill-opacity:1;fill-rule:nonzero;stroke:none" d="m 20.3701,24.4448 -0.032,-0.116 -0.109,0.01 -0.234,-0.821 -0.191,0.054 -0.203,0.754 -0.004,10e-4 -0.145,-0.508 0.097,-0.05 -0.033,-0.115 -0.396,0.113 0.032,0.116 0.108,-0.01 0.196,0.687 -0.096,0.049 0.032,0.115 0.103,-0.029 0.191,-0.055 0.203,-0.754 0.004,-0.001 0.145,0.508 -0.097,0.05 0.033,0.115 0.293,-0.084 0.103,-0.029 z"/><path id="path46" style="fill:#a85f39;fill-opacity:1;fill-rule:nonzero;stroke:none" d="m 20.6152,24.2007 0.05,0.109 0.375,-0.171 -0.051,-0.109 -0.105,0.025 -0.296,-0.649 0.089,-0.063 -0.05,-0.109 -0.375,0.171 0.05,0.109 0.105,-0.026 0.296,0.65 -0.088,0.063 z"/><path id="path47" style="fill:#a85f39;fill-opacity:1;fill-rule:nonzero;stroke:none" d="m 21.2832,23.3413 0.191,-0.124 0.096,0.356 -0.004,0.002 -0.283,-0.234 z m -0.464,-0.054 0.066,-0.03 0.721,0.564 0.172,-0.11 -0.214,-0.89 0.055,-0.047 -0.065,-0.101 -0.286,0.183 0.066,0.101 0.064,-0.027 0.037,0.139 -0.271,0.174 -0.11,-0.091 0.05,-0.048 -0.064,-0.101 -0.285,0.183 0.064,0.101 z"/><path id="path48" style="fill:#a85f39;fill-opacity:1;fill-rule:nonzero;stroke:none" d="m 13.1714,14.0195 -0.073,0.098 0.076,0.083 c -10e-4,0.016 -0.007,0.038 -0.018,0.063 -0.011,0.026 -0.026,0.051 -0.044,0.075 -0.026,0.035 -0.054,0.057 -0.084,0.066 -0.029,0.008 -0.056,0.003 -0.08,-0.015 -0.022,-0.016 -0.032,-0.04 -0.031,-0.07 10e-4,-0.031 0.013,-0.077 0.034,-0.139 0.034,-0.087 0.048,-0.16 0.043,-0.222 -0.005,-0.061 -0.034,-0.111 -0.087,-0.151 -0.055,-0.042 -0.115,-0.053 -0.18,-0.032 -0.065,0.019 -0.124,0.065 -0.178,0.137 -0.038,0.051 -0.065,0.104 -0.079,0.157 -0.015,0.054 -0.018,0.105 -0.01,0.154 l 0.135,0.101 0.075,-0.1 -0.082,-0.083 c 0,-0.021 0.004,-0.045 0.014,-0.073 0.009,-0.028 0.025,-0.055 0.046,-0.082 0.026,-0.036 0.053,-0.058 0.082,-0.066 0.028,-0.006 0.055,-0.002 0.079,0.017 0.025,0.019 0.038,0.042 0.04,0.071 0.002,0.029 -0.007,0.071 -0.027,0.124 -0.035,0.094 -0.052,0.171 -0.051,0.234 10e-4,0.062 0.028,0.113 0.081,0.153 0.052,0.039 0.112,0.049 0.178,0.029 0.067,-0.019 0.126,-0.062 0.177,-0.129 0.038,-0.049 0.064,-0.1 0.079,-0.153 0.016,-0.052 0.022,-0.101 0.017,-0.147 l -0.132,-0.1 z"/><path id="path49" style="fill:#a85f39;fill-opacity:1;fill-rule:nonzero;stroke:none" d="m 13.2632,14.168 0.074,0.063 0.218,-0.253 -0.074,-0.064 -0.069,0.055 -0.441,-0.377 0.044,-0.076 -0.074,-0.064 -0.218,0.254 0.074,0.064 0.069,-0.055 0.441,0.377 -0.044,0.076 z"/><path id="path50" style="fill:#a85f39;fill-opacity:1;fill-rule:nonzero;stroke:none" d="m 13.7705,13.3662 -0.084,0.086 0.064,0.088 c 0,0.022 -0.004,0.045 -0.015,0.069 -0.01,0.024 -0.027,0.047 -0.05,0.07 -0.049,0.05 -0.106,0.072 -0.169,0.063 -0.063,-0.009 -0.123,-0.043 -0.182,-0.101 l -0.02,-0.019 c -0.059,-0.058 -0.093,-0.118 -0.103,-0.181 -0.01,-0.063 0.009,-0.119 0.057,-0.168 0.023,-0.022 0.046,-0.04 0.071,-0.053 0.025,-0.012 0.049,-0.018 0.07,-0.017 l 0.089,0.064 0.084,-0.086 -0.114,-0.112 c -0.05,-0.004 -0.1,0.005 -0.152,0.026 -0.051,0.02 -0.099,0.052 -0.142,0.096 -0.076,0.078 -0.112,0.167 -0.107,0.27 0.005,0.101 0.049,0.194 0.133,0.276 l 0.02,0.02 c 0.083,0.082 0.176,0.125 0.278,0.129 0.102,0.003 0.191,-0.033 0.268,-0.111 0.044,-0.045 0.075,-0.093 0.094,-0.144 0.019,-0.052 0.027,-0.103 0.024,-0.153 l -0.114,-0.112 z"/><path id="path51" style="fill:#a85f39;fill-opacity:1;fill-rule:nonzero;stroke:none" d="m 14.4375,12.8525 -0.097,0.074 0.051,0.102 c -0.006,0.014 -0.017,0.034 -0.035,0.055 -0.017,0.022 -0.038,0.042 -0.062,0.06 -0.035,0.027 -0.068,0.041 -0.099,0.041 -0.03,0 -0.055,-0.013 -0.073,-0.036 -0.017,-0.022 -0.02,-0.047 -0.011,-0.076 0.01,-0.03 0.034,-0.072 0.071,-0.124 0.056,-0.075 0.089,-0.142 0.101,-0.201 0.012,-0.061 -0.002,-0.118 -0.042,-0.17 -0.042,-0.055 -0.097,-0.081 -0.165,-0.08 -0.068,10e-4 -0.137,0.029 -0.208,0.084 -0.051,0.039 -0.091,0.082 -0.119,0.129 -0.029,0.047 -0.046,0.096 -0.052,0.145 l 0.103,0.135 0.099,-0.076 -0.056,-0.102 c 0.005,-0.021 0.016,-0.043 0.033,-0.067 0.017,-0.024 0.039,-0.046 0.066,-0.067 0.036,-0.027 0.068,-0.041 0.097,-0.04 0.03,0 0.053,0.013 0.072,0.036 0.019,0.026 0.025,0.052 0.019,0.08 -0.006,0.029 -0.026,0.066 -0.059,0.113 -0.06,0.08 -0.097,0.15 -0.113,0.211 -0.016,0.06 -0.004,0.116 0.036,0.169 0.04,0.052 0.094,0.078 0.164,0.077 0.069,0 0.137,-0.026 0.205,-0.076 0.05,-0.038 0.089,-0.08 0.118,-0.125 0.029,-0.047 0.048,-0.093 0.056,-0.139 l -0.1,-0.132 z"/><path id="path52" style="fill:#a85f39;fill-opacity:1;fill-rule:nonzero;stroke:none" d="m 14.752,12.4277 -0.232,0.145 -0.122,-0.197 0.221,-0.137 0.057,0.078 0.105,-0.066 -0.117,-0.187 -0.543,0.338 0.051,0.083 0.082,-0.032 0.307,0.493 -0.064,0.059 0.051,0.083 0.074,-0.046 0.468,-0.292 -0.117,-0.187 -0.105,0.065 0.045,0.086 -0.22,0.137 -0.108,-0.173 0.233,-0.145 -0.066,-0.105 z"/><path id="path53" style="fill:#a85f39;fill-opacity:1;fill-rule:nonzero;stroke:none" d="m 15.6982,12.2314 -0.002,0.002 -0.444,-0.457 -0.099,0.045 0.048,0.632 -0.003,10e-4 -0.131,-0.33 -0.053,-0.116 0.073,-0.05 -0.04,-0.089 -0.306,0.137 0.04,0.089 0.085,-0.02 0.239,0.528 -0.072,0.051 0.04,0.089 0.079,-0.035 0.193,-0.087 -0.057,-0.627 0.003,-0.002 0.434,0.458 0.272,-0.123 -0.04,-0.089 -0.086,0.02 -0.238,-0.529 0.072,-0.051 -0.04,-0.088 -0.305,0.137 0.04,0.089 0.085,-0.02 0.052,0.116 0.161,0.319 z"/><path id="path54" style="fill:#a85f39;fill-opacity:1;fill-rule:nonzero;stroke:none" d="m 16.0913,11.9072 0.131,-0.039 c 0.043,-0.013 0.079,-0.011 0.108,0.007 0.03,0.016 0.05,0.043 0.06,0.08 0.012,0.037 0.01,0.071 -0.006,0.101 -0.014,0.032 -0.043,0.054 -0.086,0.067 l -0.132,0.038 -0.075,-0.254 z m 0.242,0.335 c 0.089,-0.026 0.152,-0.069 0.19,-0.131 0.037,-0.06 0.045,-0.128 0.023,-0.201 -0.022,-0.074 -0.065,-0.126 -0.13,-0.156 -0.064,-0.031 -0.141,-0.032 -0.23,-0.005 l -0.131,0.038 -0.05,-0.172 0.078,-0.04 -0.028,-0.094 -0.321,0.096 0.028,0.093 0.087,-0.008 0.165,0.556 -0.078,0.04 0.028,0.093 0.083,-0.024 0.286,-0.085 z"/><path id="path55" style="fill:#a85f39;fill-opacity:1;fill-rule:nonzero;stroke:none" d="m 16.9683,11.6328 -0.269,0.051 -0.043,-0.227 0.256,-0.049 0.026,0.094 0.121,-0.023 -0.042,-0.217 -0.628,0.119 0.018,0.096 0.088,0 0.108,0.57 -0.081,0.032 0.018,0.096 0.084,-0.016 0.543,-0.103 -0.041,-0.217 -0.122,0.023 0.01,0.096 -0.254,0.048 -0.038,-0.199 0.269,-0.051 -0.023,-0.123 z"/><path id="path56" style="fill:#a85f39;fill-opacity:1;fill-rule:nonzero;stroke:none" d="m 17.3638,11.6836 0.112,-0.01 c 0.045,-0.004 0.079,0.003 0.103,0.021 0.025,0.017 0.038,0.044 0.041,0.08 0.003,0.036 -0.006,0.066 -0.026,0.089 -0.021,0.023 -0.053,0.037 -0.096,0.041 l -0.115,0.009 -0.019,-0.23 z m 0.144,0.345 c 0.091,-0.007 0.162,-0.034 0.21,-0.08 0.049,-0.046 0.07,-0.107 0.063,-0.18 -0.002,-0.041 -0.017,-0.075 -0.041,-0.104 -0.024,-0.027 -0.058,-0.048 -0.102,-0.064 0.047,-0.018 0.08,-0.044 0.098,-0.078 0.018,-0.034 0.024,-0.076 0.021,-0.124 l -0.004,-0.041 c -0.001,-0.018 10e-4,-0.032 0.007,-0.042 0.006,-0.011 0.018,-0.018 0.034,-0.021 l 0.019,-0.005 -0.008,-0.096 -0.083,0.007 c -0.053,0.004 -0.089,0.021 -0.108,0.051 -0.019,0.031 -0.026,0.068 -0.023,0.113 l 0.004,0.046 c 0.003,0.039 -0.004,0.071 -0.023,0.094 -0.02,0.025 -0.048,0.038 -0.086,0.043 l -0.132,0.011 -0.018,-0.212 0.085,-0.024 -0.008,-0.097 -0.334,0.027 0.009,0.098 0.087,0.009 0.047,0.578 -0.084,0.023 0.008,0.098 0.086,-0.007 0.276,-0.023 z"/><path id="path57" style="fill:#a85f39;fill-opacity:1;fill-rule:nonzero;stroke:none" d="m 18.7773,12.0479 0.016,-0.215 -0.125,-0.009 -0.012,0.09 -0.149,-0.01 0.04,-0.568 0.086,-0.011 0.007,-0.096 -0.334,-0.024 -0.007,0.097 0.085,0.022 -0.039,0.569 -0.148,-0.01 0,-0.091 -0.124,-0.009 -0.014,0.215 0.718,0.05 z"/><path id="path58" style="fill:#a85f39;fill-opacity:1;fill-rule:nonzero;stroke:none" d="m 19.0176,11.9922 -0.063,-0.021 0.17,-0.239 0.003,10e-4 0.077,0.283 -0.066,-0.002 -0.017,0.096 0.3,0.055 0.018,-0.097 -0.066,-0.022 -0.142,-0.449 0.03,-0.167 0.088,-10e-4 0.018,-0.096 -0.33,-0.059 -0.017,0.095 0.082,0.032 -0.032,0.176 -0.285,0.362 -0.069,-10e-4 -0.017,0.096 0.3,0.055 0.018,-0.097 z"/><path id="path59" style="fill:#a85f39;fill-opacity:1;fill-rule:nonzero;stroke:none" d="m 19.7061,11.8818 0.107,0.032 c 0.044,0.013 0.074,0.031 0.09,0.057 0.016,0.024 0.019,0.055 0.009,0.089 -0.011,0.035 -0.029,0.059 -0.058,0.074 -0.027,0.014 -0.061,0.015 -0.103,0.003 l -0.11,-0.033 0.065,-0.222 z m 0.009,0.374 c 0.088,0.026 0.163,0.026 0.225,10e-4 0.062,-0.025 0.104,-0.073 0.124,-0.145 0.012,-0.039 0.012,-0.075 -0.001,-0.11 -0.012,-0.035 -0.036,-0.067 -0.071,-0.098 0.05,0 0.089,-0.011 0.118,-0.038 0.03,-0.025 0.052,-0.06 0.066,-0.107 l 0.011,-0.039 c 0.005,-0.018 0.012,-0.029 0.022,-0.037 0.01,-0.007 0.022,-0.01 0.039,-0.007 l 0.02,0.003 0.027,-0.094 -0.08,-0.023 c -0.051,-0.015 -0.09,-0.012 -0.119,0.008 -0.029,0.022 -0.049,0.054 -0.063,0.097 l -0.013,0.045 c -0.011,0.037 -0.03,0.064 -0.056,0.079 -0.027,0.016 -0.058,0.019 -0.095,0.009 l -0.127,-0.038 0.061,-0.204 0.088,0.009 0.027,-0.093 -0.32,-0.096 -0.029,0.093 0.078,0.041 -0.165,0.556 -0.088,-0.008 -0.027,0.093 0.082,0.025 0.266,0.078 z"/><path id="path60" style="fill:#a85f39;fill-opacity:1;fill-rule:nonzero;stroke:none" d="m 20.4658,12.0234 0.17,0.072 -0.195,0.227 -0.003,-10e-4 0.028,-0.298 z m -0.176,-0.336 0.05,0.03 -0.049,0.743 0.153,0.065 0.5,-0.551 0.056,0.016 0.038,-0.09 -0.253,-0.107 -0.038,0.088 0.048,0.032 -0.077,0.088 -0.24,-0.103 0.01,-0.116 0.056,0.012 0.038,-0.088 -0.254,-0.109 -0.038,0.09 z"/><path id="path61" style="fill:#a85f39;fill-opacity:1;fill-rule:nonzero;stroke:none" d="m 21.375,13.0283 0.049,-0.085 -0.067,-0.058 0.35,-0.599 -0.14,-0.081 -0.555,0.305 -0.003,-0.002 0.216,-0.371 0.084,0.029 0.048,-0.084 -0.289,-0.168 -0.049,0.084 0.066,0.057 -0.292,0.501 -0.083,-0.028 -0.049,0.084 0.074,0.044 0.141,0.081 0.556,-0.306 0.002,0.002 -0.216,0.371 -0.083,-0.029 -0.049,0.084 0.214,0.125 0.075,0.044 z"/><path id="path62" style="fill:#a85f39;fill-opacity:1;fill-rule:nonzero;stroke:none" d="m 21.9893,13.5078 0.06,-0.077 -0.059,-0.067 0.423,-0.549 -0.128,-0.099 -0.59,0.232 -0.003,-0.002 0.263,-0.34 0.078,0.039 0.06,-0.077 -0.266,-0.205 -0.059,0.078 0.058,0.065 -0.354,0.46 -0.078,-0.039 -0.059,0.077 0.067,0.053 0.129,0.098 0.591,-0.231 0.002,0.002 -0.262,0.34 -0.079,-0.039 -0.06,0.077 0.198,0.151 0.068,0.053 z"/><path id="path63" style="fill:#a85f39;fill-opacity:1;fill-rule:nonzero;stroke:none" d="m 21.9736,13.3828 -0.066,0.072 0.248,0.226 0.065,-0.072 -0.053,-0.072 0.391,-0.428 0.075,0.046 0.066,-0.072 -0.247,-0.225 -0.066,0.072 0.053,0.07 -0.391,0.429 -0.075,-0.046 z"/><path id="path64" style="fill:#a85f39;fill-opacity:1;fill-rule:nonzero;stroke:none" d="m 22.7031,13.875 -0.084,-0.088 -0.095,0.062 c -0.016,-0.004 -0.036,-0.014 -0.059,-0.029 -0.024,-0.014 -0.046,-0.033 -0.067,-0.054 -0.031,-0.033 -0.048,-0.064 -0.051,-0.094 -0.003,-0.03 0.005,-0.056 0.027,-0.076 0.019,-0.02 0.045,-0.026 0.074,-0.02 0.03,0.006 0.074,0.025 0.132,0.056 0.079,0.047 0.15,0.073 0.211,0.078 0.061,0.005 0.116,-0.016 0.164,-0.062 0.05,-0.047 0.07,-0.105 0.06,-0.172 -0.008,-0.068 -0.044,-0.133 -0.106,-0.198 -0.045,-0.046 -0.092,-0.081 -0.143,-0.103 -0.05,-0.024 -0.1,-0.035 -0.15,-0.035 l -0.121,0.117 0.087,0.091 0.095,-0.068 c 0.02,0.002 0.044,0.011 0.069,0.025 0.026,0.014 0.051,0.034 0.074,0.058 0.031,0.033 0.048,0.063 0.051,0.092 0.003,0.029 -0.006,0.055 -0.028,0.075 -0.023,0.022 -0.048,0.032 -0.078,0.029 -0.028,-0.003 -0.068,-0.019 -0.118,-0.046 -0.087,-0.05 -0.16,-0.08 -0.221,-0.089 -0.063,-0.009 -0.118,0.01 -0.164,0.055 -0.048,0.045 -0.068,0.103 -0.059,0.171 0.009,0.07 0.042,0.135 0.099,0.196 0.044,0.045 0.089,0.079 0.138,0.103 0.049,0.024 0.097,0.037 0.144,0.04 l 0.119,-0.114 z"/></g><g id="g36"><path id="path70" style="fill:#97c8f0;fill-opacity:1;fill-rule:nonzero;stroke:none" d="m 16.3276,16.2451 2.114,0.267 0.505,0.799 0.126,0.463 0.643,-0.07 -0.243,0.58 -0.659,-0.337 -0.133,0.47 0.228,0.299 -0.299,0.164 -0.008,0.173 0.349,0.092 -0.278,1.029 -0.494,0.212 -1.145,1.522 -0.424,-0.039 -0.133,-1.452 0.239,-0.498 0.216,0.13 0.115,-0.128 -0.435,-0.933 -0.065,-1.247 -0.219,-1.496 z"/><path id="path71" style="fill:#97c8f0;fill-opacity:1;fill-rule:nonzero;stroke:none" d="m 17.2705,22.6001 0.374,0.227 0.697,0.014 -0.571,0.983 -0.5,0.041 -0.353,-0.424 0.059,-0.541 0.294,-0.3 z"/><path id="path72" style="fill:#965a46;fill-opacity:1;fill-rule:nonzero;stroke:none" d="m 15.6885,22.353 -0.124,-3.159 -0.211,-5.118 0.264,-0.027 0.081,2.422 0.17,2.739 0.071,3.451 -0.251,-0.308 z"/><path id="path73" style="fill:#c5c5c5;fill-opacity:1;fill-rule:nonzero;stroke:none" d="m 15.6177,14.0488 0,-0.185 0.144,-0.222 -0.018,-0.24 -0.299,-0.675 -0.271,0.776 0.015,0.227 0.211,0.165 -0.047,0.181 0.265,-0.027 z"/><path id="path74" style="fill:#4f4036;fill-opacity:1;fill-rule:nonzero;stroke:none" d="m 17.644,22.8267 -0.091,-0.271 -0.127,-0.021 0.071,-0.126 -0.029,-0.461 -0.315,0.439 0.117,0.213 0.374,0.227 z"/><path id="path75" style="fill:#ffd9c5;fill-opacity:1;fill-rule:nonzero;stroke:none" d="m 18.2412,22.8389 -0.1,-0.106 0.077,-0.201 -0.077,-0.394 -0.153,0 -0.02,-0.23 0.72,-0.243 0.507,-0.765 -0.11,-0.826 -0.414,0.65 -0.168,-0.477 -0.325,0.139 -1.145,1.522 0.208,0.039 0.109,0.164 0.118,-0.164 0.029,0.462 -0.071,0.126 0.127,0.021 0.091,0.271 0.597,0.012 z"/><path id="path76" style="fill:#c8c8c8;fill-opacity:1;fill-rule:nonzero;stroke:none" d="m 18.9502,19.145 0.402,2.763 0.177,0.221 0.187,-0.058 0.072,-0.347 -0.245,-1.573 -0.328,-1.257 -0.307,-0.178 -0.299,0.164 -0.008,0.173 0.349,0.092 z"/><path id="path77" style="fill:#ffd9c5;fill-opacity:1;fill-rule:nonzero;stroke:none" d="m 16.6099,21.8687 -0.696,-0.427 -0.011,-0.55 0.635,0.192 0.072,0.785 z"/><path id="path78" style="fill:#ffd9c5;fill-opacity:1;fill-rule:nonzero;stroke:none" d="m 15.6274,20.8042 -0.274,-0.098 -0.245,0.129 -0.073,0.524 0.253,1.023 0.197,0.278 0.121,0.734 0.399,-0.056 0.05,-0.556 -0.116,-0.122 -0.251,-0.307 -0.143,-0.571 0.105,-0.388 -0.023,-0.59 z"/><path id="path79" style="fill:#ffd9c5;fill-opacity:1;fill-rule:nonzero;stroke:none" d="m 19.5469,20.1724 0.192,-0.398 -0.192,-0.956 -0.121,-0.181 0.047,-0.353 -0.659,-0.337 -0.133,0.47 0.227,0.298 0.307,0.179 0.332,1.278 z"/><path id="path80" style="fill:#ffd9c5;fill-opacity:1;fill-rule:nonzero;stroke:none" d="m 19.7158,17.7041 0,-1.325 -0.302,-1.354 0.533,-0.416 0.082,-0.313 -0.227,-0.125 -0.866,0.467 0.125,0.564 -0.125,1.094 0.129,0.506 -0.119,0.509 0.126,0.463 0.644,-0.07 z"/><path id="path81" style="fill:#ffd9c5;fill-opacity:1;fill-rule:nonzero;stroke:none" d="m 17.5674,16.4014 0.078,-1.145 -0.138,-0.635 0.138,-1.102 -0.069,-0.4 0.814,0.02 0.573,0.435 0.336,0.031 0.381,-0.658 -1.051,-0.224 -0.204,-0.176 -0.725,-0.047 -0.969,0.333 -0.208,-0.107 -0.549,0.103 -0.149,0.463 0.369,0.062 0.878,-0.199 -0.007,0.246 0.191,0.597 -0.274,0.607 -0.059,0.534 -0.616,-0.349 -0.368,-0.4 -0.067,0.6 0.043,0.615 -0.257,-0.329 0.04,1.194 0.012,0.194 0.268,0.184 0.408,-0.202 -0.059,-0.401 1.24,0.156 z"/><path id="path82" style="fill:#ffd9c5;fill-opacity:1;fill-rule:nonzero;stroke:none" d="m 15.3926,15.0293 -0.499,-0.629 -0.293,-0.618 -1.106,0.624 -0.118,0.482 0.106,0.141 0.447,-0.354 0.418,0 0.546,0.683 -1.382,-0.105 -0.471,-0.395 -0.817,1.071 -0.112,0.329 0.182,0.042 0.23,-0.341 0.847,-0.247 1.371,0.464 0.547,0.006 0.159,0.183 -0.055,-1.336 z"/><path id="path83" style="fill:#ffd9c5;fill-opacity:1;fill-rule:nonzero;stroke:none" d="m 18.7314,15.0879 -0.345,-0.102 -0.165,-0.27 -0.219,-0.041 -0.036,0.189 -0.208,-0.189 -0.074,0.207 0.157,0.277 0.619,0.112 0.271,-0.183 z"/><path id="path84" style="fill:#ffd9c5;fill-opacity:1;fill-rule:nonzero;stroke:none" d="m 19.916,14.8926 0.195,0.121 0.291,0 0.055,-0.309 -0.443,0.07 -0.098,0.118 z"/><path id="path85" style="fill:#ffd9c5;fill-opacity:1;fill-rule:nonzero;stroke:none" d="m 20.4102,14.5742 -0.224,-0.187 0.102,-0.688 0.521,0.103 0.193,-0.106 0.192,0.043 -0.255,0.169 0.102,0.086 0.338,-0.039 0.113,0.235 0.443,0.043 0.063,0.157 -0.239,0.314 -0.236,0 -0.161,0.154 -0.191,-0.029 -0.342,0.122 -0.129,-0.13 0,-0.251 -0.29,0.004 z"/><path id="path86" style="fill:#4f4036;fill-opacity:1;fill-rule:nonzero;stroke:none" d="m 21.998,14.3906 0.102,-0.326 -0.028,-0.302 -0.494,-0.255 -0.726,0 -0.164,0.189 -0.388,-0.079 -0.012,0.082 0.522,0.102 0.192,-0.105 0.192,0.043 -0.255,0.169 0.102,0.086 0.338,-0.04 0.113,0.236 0.444,0.043 0.062,0.157 z"/><path id="path87" style="fill:#a039a8;fill-opacity:1;fill-rule:nonzero;stroke:none" d="m 20.1865,14.3867 0.113,-0.77 -0.384,-0.64 -0.235,-0.029 -0.381,0.658 -0.337,-0.031 -0.572,-0.435 -0.814,-0.021 0.05,0.296 0.312,0.018 0.22,0.364 -0.489,0.5 0.333,0.378 0.219,0.041 0.165,0.271 0.345,0.101 0.329,0.114 -0.125,-0.564 0.866,-0.467 0.228,0.125 -0.082,0.314 -0.533,0.416 0.021,0.099 0.48,-0.232 0.098,-0.118 0.444,-0.071 -0.047,-0.13 -0.224,-0.187 z"/><path id="path88" style="fill:#a039a8;fill-opacity:1;fill-rule:nonzero;stroke:none" d="m 17.7588,14.6748 -0.215,-0.343 -0.036,0.289 0.018,0.081 0.233,-0.027 z"/><path id="path89" style="fill:#c5c5c5;fill-opacity:1;fill-rule:nonzero;stroke:none" d="m 18.0029,14.6748 -0.036,0.189 -0.208,-0.189 -0.215,-0.343 0.101,-0.812 -0.018,-0.105 0.312,0.018 0.22,0.364 -0.489,0.5 0.333,0.378 z"/><path id="path90" style="fill:#a039a8;fill-opacity:1;fill-rule:nonzero;stroke:none" d="m 17.0649,13.4014 -0.592,-0.11 -0.279,0.063 -0.254,-0.043 -0.178,0.33 -0.023,0.372 0.201,0.377 0.368,0.4 0.615,0.349 0.059,-0.534 0.275,-0.607 -0.192,-0.597 z"/><path id="path91" style="fill:#663d3d;fill-opacity:1;fill-rule:nonzero;stroke:none" d="m 14.6001,13.7822 -0.135,-0.098 -1.055,0.643 -0.11,0.392 0.076,0.169 0.118,-0.482 1.106,-0.624 z"/><path id="path92" style="fill:#663d3d;fill-opacity:1;fill-rule:nonzero;stroke:none" d="m 13.041,14.8584 -0.817,1.071 -0.112,0.329 -0.118,-0.08 0.118,-0.338 0.784,-1.035 0.145,0.053 z"/><path id="path93" style="fill:#4696e6;fill-opacity:1;fill-rule:nonzero;stroke:none" d="m 18.9463,17.3115 0.081,-0.349 -0.508,-0.651 -0.926,-0.302 -0.026,0.392 0.874,0.11 0.505,0.8 z"/><path id="path94" style="fill:#ffd93c;fill-opacity:1;fill-rule:nonzero;stroke:none" d="m 23.3232,15.1709 -0.806,-0.048 -0.364,0.069 -0.155,0.628 0.158,-0.102 0.123,0.126 0.194,-0.091 0.138,0.114 0.189,-0.123 0.209,0.109 0.127,-0.132 0.231,0.102 0.042,-0.123 0.152,0.097 -0.238,-0.626 z"/></g></g></g></g></svg>