<svg xmlns:dc="http://purl.org/dc/elements/1.1/" xmlns:cc="http://creativecommons.org/ns#" xmlns:rdf="http://www.w3.org/1999/02/22-rdf-syntax-ns#" xmlns:svg="http://www.w3.org/2000/svg" xmlns="http://www.w3.org/2000/svg" viewBox="0 0 45 45" style="enable-background:new 0 0 45 45;" xml:space="preserve" version="1.1" id="svg2"><metadata id="metadata8"><rdf:RDF><cc:Work rdf:about=""><dc:format>image/svg+xml</dc:format><dc:type rdf:resource="http://purl.org/dc/dcmitype/StillImage"/></cc:Work></rdf:RDF></metadata><defs id="defs6"><clipPath id="clipPath16" clipPathUnits="userSpaceOnUse"><path id="path18" d="M 4,31 C 1.791,31 0,29.209 0,27 L 0,27 0,9 C 0,6.791 1.791,5 4,5 l 0,0 28,0 c 2.209,0 4,1.791 4,4 l 0,0 0,18 c 0,2.209 -1.791,4 -4,4 l 0,0 -28,0 z"/></clipPath></defs><g transform="matrix(1.25,0,0,-1.25,0,45)" id="g10"><g id="g12"><g xmlns="http://www.w3.org/2000/svg" clip-path="url(#clipPath16)" id="g14"><g id="g30"><path id="path20" style="fill:#00247d;fill-opacity:1;fill-rule:nonzero;stroke:none" d="M 36,9 C 36,6.791 34.209,5 32,5 L 4,5 C 1.791,5 0,6.791 0,9 l 0,18 c 0,2.209 1.791,4 4,4 l 28,0 c 2.209,0 4,-1.791 4,-4 L 36,9 z"/></g><g id="g34"><path id="path30" style="fill:#00247d;fill-opacity:1;fill-rule:nonzero;stroke:none" d="m 19.001,31 -19,0 0,-13 19,0 0,13 z"/><path id="path31" style="fill:#eeeeee;fill-opacity:1;fill-rule:nonzero;stroke:none" d="m 7.3911,24.4961 -7.391,-5.262 0,-1.234 3.332,0 6.669,4.669 6.668,-4.669 2.332,0 0,2.029 -6.386,4.471 6.386,4.471 0,2.029 -2.331,0 -6.67,-4.67 -6.667,4.67 -3.332,0 0,-1.332 7.39,-5.172 z"/><path id="path32" style="fill:#cf142b;fill-opacity:1;fill-rule:nonzero;stroke:none" d="m 10.8735,23.8887 8.127,-5.69 0,1.219 -8.127,5.692 8.127,5.692 0,0.198 -1.46,0 -8.412,-5.889 -8.41,5.889 -0.718,-0.712 9.128,-6.399 -8.394,-5.889 0.266,0 1.461,0 8.412,5.889 z"/><path id="path33" style="fill:#eeeeee;fill-opacity:1;fill-rule:nonzero;stroke:none" d="m 19.001,27 -7,0 0,4 -5,0 0,-4 -7,0 0,-5 7,0 0,-4 5,0 0,4 7,0 0,5 z"/><path id="path34" style="fill:#cf142b;fill-opacity:1;fill-rule:nonzero;stroke:none" d="m 11.001,23 0,-5 -3,0 0,5 -8,0 0,3 8,0 0,5 3,0 0,-5 8,0 0,-3 -8,0 z"/></g><g id="g38"><path id="path40" style="fill:#eabf7e;fill-opacity:1;fill-rule:nonzero;stroke:none" d="m 31.749,18.582 c 0,0 0.152,0.004 0.295,-0.145 0.123,-0.127 0.229,-0.367 0.32,-0.828 0.142,-0.727 0,-1.255 0,-1.255 0,0 -0.018,-0.297 -0.113,-0.611 -0.153,-0.512 -0.256,-0.613 -0.256,-0.613 0,0 0.064,0.169 0.115,0.346 0.052,0.175 0.083,0.324 0.083,0.324 0,0 -0.066,-0.172 -0.203,-0.384 -0.136,-0.211 -0.329,-0.409 -0.329,-0.409 0,0 0.64,0.856 0.611,1.572 -0.034,0.885 -0.525,1.787 -0.525,1.787 L 31.39,18.299 c 0,0 10e-4,-0.126 0.039,-0.153 0.178,-0.125 0.351,-0.279 0.351,-0.279 0,0 -0.111,0.076 -0.228,0.142 -0.118,0.066 -0.184,0.076 -0.214,0.052 -0.029,-0.023 0.126,-0.291 0.154,-0.908 0.028,-0.617 -0.085,-1.036 -0.085,-1.036 0,0 0.107,-0.725 -0.483,-1.23 -0.393,-0.336 -1.211,-0.295 -1.211,-0.295 0,0 -0.364,0.037 -0.346,0.357 0.006,0.108 0.142,0.136 0.142,0.136 0,0 -0.045,0.238 0.044,0.256 0.401,0.082 0.414,-0.397 0.533,-0.405 0.142,-0.009 0.355,0.153 0.468,0.412 0.114,0.261 0.038,0.614 0.038,0.614 0,0 -0.064,-0.031 -0.136,0.016 -0.071,0.047 -0.211,0.177 -0.211,0.177 l -0.414,0.198 0.099,-0.772 -0.194,0.311 0.019,0.63 0.556,-0.183 -0.65,0.588 -0.122,-1.059 -0.146,0.316 0.216,0.861 0.513,-0.264 -0.414,0.551 -0.341,-0.518 -0.001,0.249 0.38,0.509 0.396,-0.442 -0.316,0.672 -0.46,-0.423 0,0.193 0.484,0.405 0.258,-0.297 -0.075,0.513 -0.667,-0.386 0,0.141 0.737,0.452 0.208,-0.536 c 0,0 0.235,0.485 0.677,0.718 0.494,0.26 0.761,0 0.761,0"/><path id="path41" style="fill:#eabf7e;fill-opacity:1;fill-rule:nonzero;stroke:none" d="m 23.4521,18.582 c 0,0 -0.152,0.004 -0.295,-0.145 -0.123,-0.127 -0.229,-0.367 -0.319,-0.828 -0.143,-0.727 0,-1.255 0,-1.255 0,0 0.018,-0.297 0.112,-0.611 0.154,-0.512 0.256,-0.613 0.256,-0.613 0,0 -0.064,0.169 -0.115,0.346 -0.052,0.175 -0.082,0.324 -0.082,0.324 0,0 0.065,-0.172 0.202,-0.384 0.137,-0.211 0.329,-0.409 0.329,-0.409 0,0 -0.64,0.856 -0.611,1.572 0.035,0.885 0.525,1.787 0.525,1.787 l 0.357,-0.067 c 0,0 -0.001,-0.126 -0.039,-0.153 -0.178,-0.125 -0.351,-0.279 -0.351,-0.279 0,0 0.111,0.076 0.229,0.142 0.117,0.066 0.184,0.076 0.213,0.052 0.03,-0.023 -0.125,-0.291 -0.153,-0.908 -0.029,-0.617 0.085,-1.036 0.085,-1.036 0,0 -0.108,-0.725 0.482,-1.23 0.393,-0.336 1.211,-0.295 1.211,-0.295 0,0 0.364,0.037 0.347,0.357 -0.006,0.108 -0.143,0.136 -0.143,0.136 0,0 0.046,0.238 -0.044,0.256 -0.401,0.082 -0.414,-0.397 -0.533,-0.405 -0.142,-0.009 -0.354,0.153 -0.468,0.412 -0.113,0.261 -0.037,0.614 -0.037,0.614 0,0 0.063,-0.031 0.135,0.016 0.072,0.047 0.212,0.177 0.212,0.177 l 0.414,0.198 -0.099,-0.772 0.193,0.311 -0.019,0.63 -0.556,-0.183 0.65,0.588 0.123,-1.059 0.145,0.316 -0.216,0.861 -0.513,-0.264 0.414,0.551 0.342,-0.518 0,0.249 -0.379,0.509 -0.396,-0.442 0.316,0.672 0.459,-0.423 0,0.193 -0.483,0.405 -0.258,-0.297 0.075,0.513 0.666,-0.386 0,0.141 -0.737,0.452 -0.208,-0.536 c 0,0 -0.234,0.485 -0.677,0.718 -0.494,0.26 -0.761,0 -0.761,0"/><path id="path42" style="fill:#eeeeee;fill-opacity:1;fill-rule:nonzero;stroke:none" d="m 27.5996,12.9268 c -1.054,0 -1.69,0.686 -1.69,0.686 0,0 -0.168,-0.177 -0.458,-0.177 -0.29,0 -0.331,0.244 -0.331,0.244 0,0 0.032,0.304 0.021,0.366 -0.012,0.073 -0.094,0.148 -0.094,0.148 0,0 0.098,0.186 0.319,0.186 0.221,0 0.393,-0.121 0.393,-0.121 0,0 0.214,0.161 0.445,0.161 0.233,0 0.344,-0.145 0.541,-0.293 0.196,-0.147 0.284,-0.169 0.284,-0.169 0,0 0.049,-0.074 0.018,-0.154 -0.042,-0.111 -0.122,-0.101 -0.122,-0.101 0,0 -0.054,0.045 -0.188,0.082 -0.2,0.055 -0.366,0.063 -0.366,0.063 0,0 0.496,-0.445 1.228,-0.445 0.733,0 1.229,0.445 1.229,0.445 0,0 -0.167,-0.008 -0.366,-0.063 -0.134,-0.037 -0.188,-0.082 -0.188,-0.082 0,0 -0.08,-0.01 -0.122,0.101 -0.031,0.08 0.018,0.154 0.018,0.154 0,0 0.088,0.022 0.284,0.169 0.197,0.148 0.308,0.293 0.54,0.293 0.232,0 0.446,-0.161 0.446,-0.161 0,0 0.172,0.121 0.393,0.121 0.221,0 0.319,-0.186 0.319,-0.186 0,0 -0.082,-0.075 -0.095,-0.148 -0.01,-0.062 0.021,-0.366 0.021,-0.366 0,0 -0.04,-0.244 -0.33,-0.244 -0.29,0 -0.458,0.177 -0.458,0.177 0,0 -0.636,-0.686 -1.691,-0.686"/><path id="path43" style="fill:#9fc2ff;fill-opacity:1;fill-rule:nonzero;stroke:none" d="m 30.8232,20.6289 c 0,0 0.145,-0.091 0.183,-0.228 0.063,-0.23 -0.183,-0.344 -0.183,-0.344 0,0 0.088,0.01 0.207,0.115 0.09,0.08 0.259,0.297 0.259,0.297 0,0 -0.01,0.165 -0.187,0.217 -0.178,0.051 -0.279,-0.057 -0.279,-0.057"/><path id="path44" style="fill:#00a4d7;fill-opacity:1;fill-rule:nonzero;stroke:none" d="m 30.8232,20.0566 c 0,0 -0.162,-0.013 -0.342,0.107 -0.18,0.12 -0.268,0.258 -0.268,0.258 0,0 0.033,-0.093 0.038,-0.197 0.005,-0.104 -0.014,-0.206 -0.014,-0.206 0,0 -0.357,0.261 -0.357,0.473 0,0.119 0.035,0.294 -0.125,0.339 -0.294,0.082 -0.403,-0.235 -0.403,-0.235 0,0 0.025,0.216 0.227,0.31 0.202,0.094 0.463,-0.012 0.463,-0.012 0,0 0.2,0.137 0.482,0.045 0.173,-0.056 0.372,0 0.372,0 0,0 -0.063,-0.143 -0.241,-0.212 -0.178,-0.068 -0.358,-0.04 -0.358,-0.04 0,0 0.117,-0.141 0.336,-0.251 0.218,-0.111 0.38,-0.075 0.38,-0.075 0.027,-0.203 -0.19,-0.304 -0.19,-0.304"/><path id="path45" style="fill:#007ed5;fill-opacity:1;fill-rule:nonzero;stroke:none" d="m 30.6699,19.8286 c 0,0 0.221,-0.19 0.089,-0.471 -0.094,-0.2 -0.376,-0.219 -0.376,-0.219 0,0 0.038,-0.168 0.238,-0.174 0.145,-0.003 0.242,0.124 0.242,0.124 0,0 0.02,0.191 -0.011,0.413 -0.038,0.267 -0.182,0.327 -0.182,0.327"/><path id="path46" style="fill:#007ed5;fill-opacity:1;fill-rule:nonzero;stroke:none" d="m 29.7441,19.0298 c 0,0 0.134,0.159 0.146,0.265 0.013,0.107 -0.016,0.188 -0.016,0.188 0,0 0.021,-0.016 0.038,-0.049 0.017,-0.033 0.03,-0.09 0.03,-0.09 0,0 0.019,0.046 0.035,0.121 0.017,0.075 0.017,0.158 0.017,0.158 0,0 0.052,-0.159 -0.023,-0.362 -0.076,-0.202 -0.227,-0.231 -0.227,-0.231"/><path id="path47" style="fill:#9fc2ff;fill-opacity:1;fill-rule:nonzero;stroke:none" d="m 29.874,19.4824 c 0,0 0.021,-0.016 0.038,-0.049 0.017,-0.033 0.03,-0.089 0.03,-0.089 0,0 0.019,0.046 0.036,0.12 0.016,0.076 0.016,0.158 0.016,0.158 0,0 0.052,-0.159 -0.023,-0.361 0,0 0.078,0.065 0.246,0.049 0.098,-0.01 0.178,-0.058 0.178,-0.058 0,0 0.037,0.09 0.001,0.161 -0.035,0.071 -0.107,0.108 -0.107,0.108 0,0 0.157,0.052 0.274,0.016 0.141,-0.042 0.196,-0.18 0.196,-0.18 0.132,0.281 -0.089,0.471 -0.089,0.471 0,0 -0.093,0.071 -0.202,0.071 -0.167,0 -0.495,-0.196 -0.495,-0.196 0,0 -0.053,0.166 -0.151,0.402 -0.217,0.526 -0.028,0.71 -0.028,0.71 -0.012,0.006 -0.024,0.011 -0.039,0.015 -0.294,0.083 -0.402,-0.235 -0.402,-0.235 0,0 -0.044,-0.119 0.023,-0.293 0.067,-0.174 0.142,-0.275 0.142,-0.275 0,0 -0.1,0.082 -0.215,0.124 -0.116,0.041 -0.214,0.001 -0.214,0.001 0,0 0.002,-0.061 0.05,-0.114 0.048,-0.052 0.089,-0.085 0.089,-0.085 0,0 -0.099,0.027 -0.193,0.019 -0.191,-0.015 -0.227,0.02 -0.227,0.02 0,0 0.018,-0.15 0.187,-0.252 0.145,-0.088 0.346,-0.054 0.346,-0.054 0,0 -0.087,-0.04 -0.163,-0.081 -0.048,-0.026 -0.075,-0.104 -0.075,-0.104 0,0 0.049,-0.037 0.139,-0.037 0.153,0 0.29,0.132 0.438,0.135 0.12,0.002 0.194,-0.117 0.194,-0.117"/><path id="path48" style="fill:#00a4d7;fill-opacity:1;fill-rule:nonzero;stroke:none" d="m 29.1592,19.5918 c 0,0 -0.021,0.004 -0.06,0.015 -0.037,0.011 -0.042,0.014 -0.042,0.014 0,0 0.019,-0.034 0.064,-0.078 -0.012,-0.022 -0.019,-0.041 -0.019,-0.041 0,0 0.043,-0.032 0.12,-0.036 0.087,-0.053 0.215,-0.1 0.392,-0.1 0.15,0 0.273,0.067 0.273,0.067 0.005,-0.034 0.01,-0.083 0.003,-0.138 -0.012,-0.106 -0.146,-0.265 -0.146,-0.265 0,0 -0.197,-0.161 -0.606,0.045 -0.256,0.128 -0.388,0.456 -0.388,0.456 0,0 0.026,-0.108 0.013,-0.263 -0.015,-0.155 -0.078,-0.298 -0.078,-0.298 0,0 -0.133,0.108 -0.189,0.302 -0.057,0.195 -0.037,0.389 -0.037,0.389 0,0 -0.023,-0.119 -0.074,-0.247 -0.052,-0.129 -0.111,-0.231 -0.111,-0.231 0,0 -0.055,0.111 -0.086,0.297 -0.044,0.276 0.076,0.464 0.076,0.464 0,0 -0.02,-0.02 -0.071,-0.028 -0.052,-0.009 -0.052,-0.002 -0.052,-0.002 l -0.006,0.104 c 0,0 0.045,0.036 0.093,0.083 0.049,0.048 0.077,0.082 0.077,0.082 0.25,-0.056 0.391,-0.126 0.391,-0.126 0,0 0.01,-0.023 0.057,-0.078 0.046,-0.055 0.092,-0.088 0.092,-0.088 0.027,-0.047 0.074,-0.104 0.15,-0.151 0.144,-0.087 0.346,-0.054 0.346,-0.054 0,0 -0.087,-0.039 -0.163,-0.081 -0.006,-0.003 -0.014,-0.009 -0.019,-0.013"/><path id="path49" style="fill:#9fc2ff;fill-opacity:1;fill-rule:nonzero;stroke:none" d="m 24.0117,20.3564 c 0,0 0.04,-0.054 0.144,-0.076 0.103,-0.022 0.158,-0.015 0.158,-0.015 0,0 0.129,0.029 0.345,0.153 0.216,0.125 0.315,0.24 0.315,0.24 0,0 -0.233,0.016 -0.389,0.087 -0.155,0.07 -0.186,0.207 -0.186,0.207 0,0 0.103,-0.048 0.354,0.009 0.448,0.102 0.58,-0.132 0.58,-0.132 0,0 0.079,0.008 0.159,-0.057 0.055,-0.046 0.08,-0.134 0.08,-0.134 0,0 -0.092,-0.036 -0.095,-0.188 -0.004,-0.153 -0.057,-0.305 -0.154,-0.352 -0.153,-0.072 -0.169,-0.158 -0.169,-0.158 0,0 -0.049,0.083 -0.029,0.171 0.021,0.088 0.052,0.163 0.08,0.276 0.019,0.077 0.092,0.152 0.092,0.152 0,0 0.021,0.033 0.005,0.058 -0.016,0.025 -0.052,-0.015 -0.064,-0.045 -0.012,-0.03 -0.105,-0.187 -0.168,-0.259 -0.063,-0.072 -0.301,-0.304 -0.516,-0.344 -0.139,-0.025 -0.235,0.09 -0.235,0.09 0,0 -0.134,0.087 -0.2,0.158 -0.065,0.072 -0.107,0.159 -0.107,0.159"/><path id="path50" style="fill:#007ed5;fill-opacity:1;fill-rule:nonzero;stroke:none" d="m 24.0117,20.3564 c 0,0 0.04,-0.054 0.144,-0.076 0.103,-0.022 0.158,-0.015 0.158,-0.015 0,0 -0.058,0.037 -0.032,0.156 0.015,0.076 0.081,0.142 0.081,0.142 0,0 -0.115,0.073 -0.251,-0.019 -0.102,-0.069 -0.1,-0.188 -0.1,-0.188"/><path id="path51" style="fill:#00a4d7;fill-opacity:1;fill-rule:nonzero;stroke:none" d="m 25.3428,19.5728 c 0,0 -0.104,-0.212 0.009,-0.445 0,0 -0.071,0.019 -0.214,0.026 -0.143,0.007 -0.262,-0.044 -0.262,-0.044 0,0 0,0.095 0.038,0.158 0.037,0.062 0.106,0.102 0.106,0.102 0,0 -0.258,0.05 -0.399,-0.031 -0.179,-0.104 -0.201,-0.281 -0.201,-0.281 0,0 0.017,0.115 0.036,0.264 0.022,0.158 0.009,0.242 0.009,0.242 0,0 0.161,0.135 0.379,0.135 0.276,0 0.499,-0.126 0.499,-0.126"/><path id="path52" style="fill:#9fc2ff;fill-opacity:1;fill-rule:nonzero;stroke:none" d="m 26.7666,18.8794 c 0,0 -0.074,-0.106 -0.226,-0.249 -0.242,-0.228 -0.427,-0.245 -0.427,-0.245 0,0 -0.017,0.102 0.032,0.215 0.05,0.112 0.137,0.223 0.137,0.223 0,0 -0.323,-0.177 -0.623,-0.005 -0.528,0.302 -0.317,0.754 -0.317,0.754 0,0 -0.072,-0.297 0.467,-0.448 0.275,-0.077 0.487,0.125 0.487,0.125 0,0 -0.263,-0.045 -0.428,0.009 -0.078,0.026 -0.159,0.071 -0.219,0.095 -0.07,0.026 -0.129,0.046 -0.129,0.046 0,0 0.05,0.063 0.222,0.034 0.137,-0.023 0.135,-0.071 0.378,-0.108 0.175,-0.028 0.249,0.001 0.249,0.001 0,0 0.002,0.026 -0.014,0.051 -0.025,0.035 -0.056,0.048 -0.056,0.048 0,0 0.034,0.004 0.066,0.007 0.031,0.003 0.062,0.014 0.062,0.014 0.072,-0.091 0.168,-0.223 0.242,-0.366 0.04,-0.076 0.073,-0.146 0.097,-0.201"/><path id="path53" style="fill:#9fc2ff;fill-opacity:1;fill-rule:nonzero;stroke:none" d="m 24.5059,19.2417 c -0.075,-0.091 -0.086,-0.184 -0.086,-0.184 0,0 -0.031,-0.169 0.119,-0.241 0.085,-0.042 0.194,-0.04 0.268,0.006 0.066,0.042 0.099,0.122 0.099,0.122 0,0 -0.12,-0.011 -0.244,0.066 -0.149,0.09 -0.156,0.231 -0.156,0.231"/><path id="path54" style="fill:#00a4d7;fill-opacity:1;fill-rule:nonzero;stroke:none" d="m 25.3428,19.5728 c 0,0 -0.033,-0.134 0.109,-0.268 0,0 0.005,0.019 0.034,0.054 0.028,0.036 0.035,0.041 0.035,0.041 0,0 0.05,0.063 0.221,0.034 0.138,-0.024 0.136,-0.071 0.378,-0.109 0.176,-0.027 0.249,0.001 0.249,0.001 0,0 0.003,0.027 -0.013,0.052 -0.025,0.035 -0.056,0.048 -0.056,0.048 0,0 -0.027,0.005 -0.078,0.007 -0.052,0.002 -0.092,0 -0.092,0 0,0 0.003,0.022 0.046,0.087 0.044,0.065 0.083,0.08 0.083,0.08 l -0.004,0.143 c 0,0 -0.046,0.045 -0.081,0.059 -0.035,0.013 -0.062,0.018 -0.062,0.018 0,0 0.045,0.024 0.106,0.082 0.06,0.057 0.103,0.143 0.103,0.143 0,0 -0.161,0.016 -0.347,-0.087 -0.187,-0.104 -0.273,-0.235 -0.273,-0.235 l -0.041,0.057 c 0,0 0.218,0.19 0.33,0.432 0.114,0.241 0.043,0.435 0.043,0.435 0,0 -0.065,0.195 -0.296,0.252 -0.203,0.05 -0.404,-0.069 -0.404,-0.069 0,0 0.079,0.008 0.159,-0.058 0.055,-0.045 0.08,-0.133 0.08,-0.133 0,0 0.116,-0.132 -0.07,-0.594 -0.155,-0.387 -0.159,-0.472 -0.159,-0.472"/><path id="path55" style="fill:#eeeeee;fill-opacity:1;fill-rule:nonzero;stroke:none" d="m 27.5996,13.958 c 0,0 -0.742,0.151 -1.237,0.606 -0.593,0.546 -0.528,1.648 -0.528,1.648 l 3.53,0 c 0,0 0.066,-1.102 -0.527,-1.648 -0.495,-0.455 -1.238,-0.606 -1.238,-0.606"/><path id="path56" style="fill:#0f9af9;fill-opacity:1;fill-rule:nonzero;stroke:none" d="m 29.367,18.278 -3.532,0 0,-2.066 3.532,0 0,2.066 z"/><path id="path57" style="fill:#eeeeee;fill-opacity:1;fill-rule:nonzero;stroke:none" d="m 26.958,16.2119 c 0,0 0.151,0.087 0.377,0.51 0.226,0.422 0.265,0.69 0.265,0.69 0,0 0.04,-0.268 0.265,-0.69 0.226,-0.423 0.376,-0.51 0.376,-0.51 l -1.283,0 z"/><path id="path58" style="fill:#0f9af9;fill-opacity:1;fill-rule:nonzero;stroke:none" d="m 26.958,16.2119 c 0,0 0.151,-0.088 0.377,-0.51 0.226,-0.423 0.265,-0.69 0.265,-0.69 0,0 0.04,0.267 0.265,0.69 0.226,0.422 0.376,0.51 0.376,0.51 l -1.283,0 z"/><path id="path59" style="fill:#8da9c3;fill-opacity:1;fill-rule:nonzero;stroke:none" d="m 26.7646,17.9336 c 0,0 0.272,0.008 0.674,0.329 0.233,0.186 0.36,0.277 0.36,0.277 0,0 -0.009,-0.032 0.014,-0.127 0.022,-0.095 0.034,-0.135 0.034,-0.135 l 0.579,0 c 0,0 0.033,0.073 0.033,0.155 0,0.128 -0.073,0.216 -0.134,0.267 0,0 -0.084,0.401 -0.141,0.818 -0.057,0.416 -0.057,0.7 -0.057,0.7 l -0.931,0.314 -0.66,-0.48 c 0,0 -0.205,-0.075 -0.333,-0.186 -0.129,-0.112 -0.216,-0.256 -0.216,-0.256 0,0 0.068,-0.002 0.187,-0.009 0.075,-0.005 0.14,-0.021 0.14,-0.021 0,0 0.212,-0.223 0.356,-0.499 0.117,-0.224 0.159,-0.363 0.159,-0.363 0,0 -0.182,-0.126 -0.182,-0.426 0,-0.225 0.118,-0.358 0.118,-0.358"/><path id="path60" style="fill:#ffffff;fill-opacity:1;fill-rule:nonzero;stroke:none" d="m 27.2725,21.5972 c 0,0 0.179,0.165 0.599,0.289 0.421,0.125 0.649,0.178 0.649,0.178 0,0 -0.37,0.298 -0.583,0.612 -0.214,0.314 -0.439,0.747 -0.439,0.747 0,0 -0.077,-0.347 -0.314,-0.524 -0.706,-0.524 -1.039,-1.026 -1.039,-1.026 0,0 0.235,0.075 0.553,-0.035 0.316,-0.11 0.401,-0.23 0.401,-0.23 l 0.082,-0.028 0.091,0.017 z"/><path id="path61" style="fill:#00a4d7;fill-opacity:1;fill-rule:nonzero;stroke:none" d="m 26.4873,21.2441 c 0,0 -0.055,0.111 -0.078,0.252 -0.024,0.142 -0.014,0.346 -0.014,0.346 l 0.104,-0.009 0,-0.1 c 0,0 0.308,-0.139 0.936,-0.139 1.248,0 1.28,0.292 1.28,0.292 l 0.069,-0.022 c 0,0 -0.016,-0.108 -0.009,-0.181 0.006,-0.072 0.067,-0.163 0.067,-0.163 l -0.069,-0.276 -2.286,0 z"/><path id="path62" style="fill:#d9a41c;fill-opacity:1;fill-rule:nonzero;stroke:none" d="m 28.6963,20.0566 c 0,0 -0.396,0.197 -1.047,0.197 -0.651,0 -1.103,-0.197 -1.103,-0.197 l -0.528,1.082 c 0,0 0.716,0.212 1.631,0.212 0.915,0 1.579,-0.216 1.579,-0.216 l -0.532,-1.078 z"/></g></g></g></g></svg>