<svg xmlns="http://www.w3.org/2000/svg" viewBox="0 0 45 45"><defs xmlns="http://www.w3.org/2000/svg" id="defs6"><clipPath id="clipPath16" clipPathUnits="userSpaceOnUse"><path id="path18" d="m 45,33.75 c 0,2.76125 -2.23875,5 -5,5 H 5 c -2.76125,0 -5,-2.23875 -5,-5 v -22.5 c 0,-2.76125 2.23875,-5 5,-5 h 35 c 2.76125,0 5,2.23875 5,5 z"/></clipPath></defs><g clip-path="url(#clipPath16)"><path fill="#ffff00" d="M 45,6.25 H 0 v 32.5 h 45 z"/><path fill="#141414" d="m 45,29.46 v 4.65 H 0 v -4.65 h 15.26 c 1.06,1.81 3.19,4.02 7.24,4.02 4.05,0 6.18,-2.21 7.24,-4.02 z M 0,24.82 H 14.28 V 20.18 H 0 Z m 30.72,-4.64 v 4.64 H 45 V 20.18 Z M 0,10.89 v 4.65 h 14.28 v -3.77 h 16.44 v 3.77 H 45 v -4.65 z"/><path fill="#141414" d="m 18.19,16.53 v -4.12 h 2.67 v 2 h 0.31 v -1.87 h 2.66 v 1.87 h 0.31 v -2 h 2.67 v 4.12 h 0.35 v -2.05 h 2.95 l -1.3,11.69 -4.98,3.31 h -2.66 l -4.98,-3.31 -1.3,-11.69 h 2.95 v 2.05 z"/><path fill="#ff0103" d="m 28.97,25.9 c 0,0.95 -0.21,1.86 -0.59,2.67 l -1.1,-0.14 c -0.28,0.53 -0.65,1.01 -1.09,1.42 l 0.43,1.03 c -0.76,0.63 -1.67,1.09 -2.67,1.31 l -0.56,-0.97 c -0.29,0.06 -0.59,0.08 -0.89,0.08 -0.3,0 -0.6,-0.02 -0.89,-0.08 l -0.56,0.97 c -1,-0.22 -1.91,-0.68 -2.67,-1.31 l 0.43,-1.03 C 18.37,29.44 18,28.96 17.72,28.43 l -1.1,0.14 C 16.24,27.76 16.03,26.85 16.03,25.9 h 1.2 l -0.34,-4.76 c 0,-2.31 1.7,-4.25 4.04,-4.86 l -0.06,-0.97 h 3.25 l -0.06,0.96 c 2.34,0.61 4.05,2.56 4.05,4.87 l -0.34,4.76 z"/><path fill="#ffff00" d="m 25.47,25.48 h -0.58 l 0.58,-5.12 h -2.09 v -1.59 h -1.75 v 1.59 h -2.1 l 0.58,5.12 h -0.58 c 0,0 -2.31,-7.2 2.97,-7.2 5.28,0 2.97,7.2 2.97,7.2 z"/></g></svg>