<svg xmlns:dc="http://purl.org/dc/elements/1.1/" xmlns:cc="http://creativecommons.org/ns#" xmlns:rdf="http://www.w3.org/1999/02/22-rdf-syntax-ns#" xmlns:svg="http://www.w3.org/2000/svg" xmlns="http://www.w3.org/2000/svg" viewBox="0 0 45 45" style="enable-background:new 0 0 45 45;" xml:space="preserve" version="1.1" id="svg2"><metadata id="metadata8"><rdf:RDF><cc:Work rdf:about=""><dc:format>image/svg+xml</dc:format><dc:type rdf:resource="http://purl.org/dc/dcmitype/StillImage"/></cc:Work></rdf:RDF></metadata><defs id="defs6"><clipPath id="clipPath16" clipPathUnits="userSpaceOnUse"><path id="path18" d="M 4,31 C 1.791,31 0,29.209 0,27 L 0,27 0,9 C 0,6.791 1.791,5 4,5 l 0,0 28,0 c 2.209,0 4,1.791 4,4 l 0,0 0,18 c 0,2.209 -1.791,4 -4,4 l 0,0 -28,0 z"/></clipPath></defs><g transform="matrix(1.25,0,0,-1.25,0,45)" id="g10"><g id="g12"><g xmlns="http://www.w3.org/2000/svg" clip-path="url(#clipPath16)" id="g14"><g id="g30"><path id="path20" style="fill:#c0022d;fill-opacity:1;fill-rule:nonzero;stroke:none" d="M 0,5 H 36 V 31 H 0 Z"/><path id="path21" style="fill:#002468;fill-opacity:1;fill-rule:nonzero;stroke:none" d="M 36,31 0,5.001 V 31 Z"/></g><g id="g34"><path id="path30" style="fill:#80c7f3;fill-opacity:1;fill-rule:nonzero;stroke:none" d="m 24.0205,18 c 0,3.325 -2.695,6.021 -6.021,6.021 -3.325,0 -6.021,-2.696 -6.021,-6.021 0,-3.325 2.696,-6.021 6.021,-6.021 3.326,0 6.021,2.696 6.021,6.021"/><path id="path31" style="fill:#009a00;fill-opacity:1;fill-rule:nonzero;stroke:none" d="m 15.561,17.3906 c 0,0 0.003,-0.13 -0.006,-0.294 -0.01,-0.164 -0.11,-0.735 -0.11,-0.735 l -2.037,0.525 c 0,0 0.22,0.22 0.62,0.413 0.4,0.195 0.625,0.237 0.971,0.227 0.532,-0.016 0.562,-0.136 0.562,-0.136"/><path id="path32" style="fill:#009a00;fill-opacity:1;fill-rule:nonzero;stroke:none" d="m 22,16.2158 c 0,0 0.039,0.115 0.123,0.167 0.085,0.052 0.086,0.06 0.291,0.05 0.205,-0.009 0.409,0.064 0.536,0.142 0.126,0.078 0.175,0.235 0.175,0.271 0,0.035 0.008,0.106 -0.409,0.3 -0.362,0.167 -0.534,0.133 -0.534,0.133 0,0 -0.028,-0.031 -0.203,-0.031 -0.174,0 -0.172,0.047 -0.453,0.082 -0.229,0.029 -0.244,0.025 -0.244,0.025 l -0.099,-1.349 z"/><path id="path33" style="fill:#009a00;fill-opacity:1;fill-rule:nonzero;stroke:none" d="m 21.791,18.0171 c 0,0 0.056,-0.1 0.181,-0.095 0.117,0.004 0.119,0.05 0.161,0.101 0.057,0.072 0.261,0.057 0.242,0.146 -0.033,0.156 -0.105,0.175 -0.109,0.253 -0.006,0.106 0.09,0.161 0.174,0.209 0.085,0.049 0.141,0.205 0.157,0.392 0.008,0.104 -0.009,0.164 -0.267,0.143 -0.138,-0.011 -0.278,-0.011 -0.278,-0.011 0,0 -0.084,0.051 -0.193,0.152 -0.107,0.099 -0.138,0.069 -0.278,0.243 -0.151,0.189 -0.187,0.334 -0.243,0.334 -0.057,0 -0.086,-0.103 -0.443,-0.345 -0.267,-0.182 -0.354,-0.247 -0.625,-0.124 -0.27,0.124 -0.325,0.127 -0.372,0.088 -0.046,-0.039 0.008,-0.203 0.166,-0.319 0.158,-0.115 0.197,-0.262 0.197,-0.33 0,-0.066 -0.122,-0.134 -0.333,-0.296 -0.211,-0.163 -0.306,-0.225 -0.306,-0.294 0,-0.069 0.192,-0.03 0.341,-0.072 0.148,-0.042 0.381,-0.262 0.514,-0.433 0.132,-0.17 0.148,-0.198 0.19,-0.198 0.019,0 0.042,0.064 0.042,0.064 z"/><path id="path34" style="fill:#009a00;fill-opacity:1;fill-rule:nonzero;stroke:none" d="m 15.7314,19.4751 c 0,0 -0.059,-0.042 -0.117,-0.067 -0.049,-0.021 -0.107,-0.034 -0.133,-0.054 -0.056,-0.046 -0.106,-0.039 -0.281,-0.054 -0.176,-0.016 -0.497,-0.01 -0.605,-0.01 -0.108,0 -0.133,-0.093 -0.174,-0.22 -0.04,-0.126 -0.127,-0.161 -0.248,-0.169 -0.12,-0.008 -0.191,-0.037 -0.207,-0.043 -0.017,-0.007 -0.051,-0.114 -0.051,-0.174 0,-0.122 0.269,-0.223 0.427,-0.32 0.158,-0.097 0.631,-0.083 0.717,-0.083 0.086,0 0.167,0.021 0.167,0.021 l 1.038,-0.091 c 0,0 0.064,-0.009 0.201,-0.009 0.138,0 0.459,0.106 0.763,0.332 0.303,0.227 0.659,0.399 0.737,0.397 0.079,-0.001 0.205,0.035 0.282,0.194 0.076,0.159 0.051,0.32 -0.083,0.32 -0.135,0 -0.299,-0.104 -0.333,-0.125 -0.035,-0.02 -0.105,-0.039 -0.41,-0.039 -0.304,0 -0.415,0.027 -0.524,0.027 -0.11,0 -0.26,-0.125 -0.279,-0.125 -0.018,0 -0.047,0.009 -0.117,0.085 -0.06,0.066 -0.106,0.069 -0.106,0.069 l -0.566,0.269 z"/><path id="path35" style="fill:#009a00;fill-opacity:1;fill-rule:nonzero;stroke:none" d="m 16.6611,20.9111 c 0,0 0.048,0.036 0.092,0.056 0.044,0.02 0.094,0.038 0.094,0.038 0,0 0.161,0.034 0.475,-0.154 0.314,-0.187 0.243,-0.206 0.483,-0.325 0.239,-0.118 0.319,-0.104 0.475,-0.201 0.142,-0.089 0.195,-0.202 0.195,-0.247 0,-0.045 -0.043,-0.067 -0.224,-0.131 -0.181,-0.064 -0.297,-0.118 -0.446,-0.132 -0.15,-0.013 -0.4,-0.009 -0.816,-0.026 -0.244,-0.01 -0.384,-0.03 -0.479,-0.066 -0.061,-0.023 -0.101,-0.031 -0.101,-0.031 l -0.29,-0.073 -0.369,0.034 c 0,0 -0.147,-0.019 -0.589,-0.042 -0.442,-0.024 -0.494,-0.033 -0.682,-0.033 -0.187,0 -0.373,0.038 -0.534,0.099 -0.161,0.06 -0.053,0.071 -0.25,0.142 -0.197,0.07 -0.364,0.125 -0.364,0.203 0,0.078 0.125,0.182 0.27,0.251 0.146,0.069 0.199,0.171 0.199,0.263 0,0.126 -0.074,0.122 -0.127,0.276 -0.053,0.155 -0.072,0.187 -0.035,0.21 0.044,0.028 0.143,0.026 0.424,0.012 0.474,-0.023 0.622,-0.159 0.852,-0.159 0.192,0 0.18,0.151 0.392,0.151 0.212,0 0.251,-0.154 0.431,-0.154 0.18,0 0.331,0.141 0.331,0.141 z"/><path id="path36" style="fill:#009a00;fill-opacity:1;fill-rule:nonzero;stroke:none" d="m 16.0576,21.4795 0.246,-0.156 0.254,-0.05 c 0,0 0.077,-0.031 0.346,-0.031 0.268,0 0.609,0.047 0.609,0.047 0,0 -0.031,0.07 0.022,0.109 0.053,0.039 0.095,0.039 0.361,0.034 0.266,-0.004 0.283,0.08 0.283,0.102 0,0.022 -0.113,0.187 -0.439,0.414 -0.327,0.226 -0.527,0.294 -0.602,0.294 -0.075,0 -0.305,-0.064 -0.761,-0.064 -0.287,0 -0.409,0.02 -0.531,0.093 -0.106,0.062 -0.164,0.108 -0.286,0.108 -0.13,0 -0.293,-0.098 -0.497,-0.198 -0.261,-0.129 -0.511,-0.253 -0.511,-0.388 0,-0.166 0.344,-0.313 0.494,-0.409 0.159,-0.103 0.62,-0.113 0.795,-0.113 0.216,0 0.227,0.033 0.227,0.033 l -0.002,0.046 c 0,0 -0.017,0.022 -0.031,0.065 -0.014,0.044 -0.011,0.067 -0.011,0.067 z"/><path id="path37" style="fill:#663000;fill-opacity:1;fill-rule:nonzero;stroke:none" d="m 17.5703,17.1826 v 0.169 l 0.927,0.805 0.782,-0.8 v -0.156 h -0.254 v -0.743 c 0,0 0.18,-0.111 0.348,-0.111 0.169,0 0.213,0.038 0.466,0.049 0.252,0.011 0.489,0.084 0.549,0.154 0.062,0.071 0.174,0.328 0.242,0.651 0.067,0.321 0.079,0.424 0.079,0.424 0,0 0.049,0.205 0.472,0.439 0.407,0.225 0.61,-0.047 0.61,-0.047 0,0 -0.466,-0.312 -0.502,-0.582 -0.036,-0.271 0.021,-0.944 0.262,-1.175 0.142,-0.137 0.449,-0.044 0.449,-0.044 0,0 0.163,-0.112 0.435,-0.136 0.273,-0.023 0.469,-0.011 0.469,-0.074 0,-0.062 -0.233,-0.151 -0.233,-0.151 l -1.905,-0.035 -0.157,-0.082 -3.347,0.017 -0.121,0.063 -2.439,-0.012 -0.004,-0.051 -1.814,0.028 c 0,0 -0.088,0.442 0.161,0.754 0.194,0.244 0.362,0.35 0.362,0.35 0,0 0.392,-0.007 0.884,-0.134 0.491,-0.126 0.847,-0.226 1.027,-0.226 0.179,0 0.285,0.603 0.285,0.859 0,0.249 -0.166,0.614 -0.239,0.741 -0.038,0.065 -0.138,0.175 -0.138,0.175 0,0 0.085,0.019 0.174,0.055 0.089,0.035 0.263,0.064 0.421,0 0.214,-0.088 0.443,-0.146 0.443,-0.146 0,0 0.017,-0.329 0.017,-0.615 0,-0.286 -0.007,-0.366 -0.003,-0.437 0.009,-0.159 0.104,-0.313 0.217,-0.438 0.147,-0.164 0.32,-0.277 0.32,-0.277 l 0.996,0.028 -0.013,0.703 z"/><path id="path38" style="fill:#663000;fill-opacity:1;fill-rule:nonzero;stroke:none" d="m 16.4092,19.6924 -0.014,-0.355 c 0,0 -0.209,-0.02 -0.298,0.095 -0.054,0.069 -0.153,0.086 -0.213,0.088 -0.1,0.004 -0.153,-0.045 -0.153,-0.045 0,0 0.01,0.039 0.016,0.093 0.006,0.055 0.003,0.085 0.003,0.085 0,0 0.213,0.004 0.397,0.016 0.184,0.01 0.262,0.023 0.262,0.023"/><path id="path39" style="fill:#663000;fill-opacity:1;fill-rule:nonzero;stroke:none" d="m 16.0576,21.4795 c 0,0 0.013,-0.175 0.013,-0.312 0,-0.138 -0.005,-0.233 -0.005,-0.233 0,0 0.034,-0.116 0.192,-0.177 0.158,-0.061 0.22,-0.028 0.305,0.061 0.084,0.089 0.099,0.093 0.099,0.093 0,0 -0.03,0.062 -0.065,0.181 -0.034,0.118 -0.039,0.181 -0.039,0.181 0,0 -0.136,0.05 -0.251,0.12 -0.116,0.07 -0.249,0.086 -0.249,0.086"/></g><g id="g38"><path id="path40" style="fill:#bf0a30;fill-opacity:1;fill-rule:nonzero;stroke:none" d="m 0,22.333 h 12 v 0.82 H 0 Z"/><path id="path41" style="fill:#eeeeee;fill-opacity:1;fill-rule:nonzero;stroke:none" d="m 0,23.154 h 12 v 0.723 H 0 Z"/><path id="path42" style="fill:#bf0a30;fill-opacity:1;fill-rule:nonzero;stroke:none" d="M 0,23.876 H 12 V 24.73 H 0 Z"/><path id="path43" style="fill:#eeeeee;fill-opacity:1;fill-rule:nonzero;stroke:none" d="m 0,24.729 h 12 v 0.723 H 0 Z"/><path id="path44" style="fill:#bf0a30;fill-opacity:1;fill-rule:nonzero;stroke:none" d="m 0,25.452 h 12 v 0.854 H 0 Z"/><path id="path45" style="fill:#eeeeee;fill-opacity:1;fill-rule:nonzero;stroke:none" d="m 0,27.0278 v -0.028 -0.694 h 12 v 0.722 H 4 Z"/><path id="path46" style="fill:#bf0a30;fill-opacity:1;fill-rule:nonzero;stroke:none" d="m 4,27.028 h 8 v 0.854 H 4 Z"/><path id="path47" style="fill:#eeeeee;fill-opacity:1;fill-rule:nonzero;stroke:none" d="m 4,27.881 h 8 v 0.722 H 4 Z"/><path id="path48" style="fill:#bf0a30;fill-opacity:1;fill-rule:nonzero;stroke:none" d="m 4,28.604 h 8 v 0.854 H 4 Z"/><path id="path49" style="fill:#eeeeee;fill-opacity:1;fill-rule:nonzero;stroke:none" d="m 4,29.457 h 8 v 0.722 H 4 Z"/><path id="path50" style="fill:#bf0a30;fill-opacity:1;fill-rule:nonzero;stroke:none" d="m 4,30.179 h 8 V 31 H 4 Z"/><path id="path51" style="fill:#002868;fill-opacity:1;fill-rule:nonzero;stroke:none" d="m 2,28.4375 -0.693,-0.503 0.265,0.814 -0.693,0.503 H 1.735 L 2,30.0665 2.265,29.2515 h 0.856 l -0.693,-0.503 0.265,-0.814 z m 2,-0.556 v 0.722 0.854 0.722 0.821 H 0 v -3.973 h 4 z"/><path id="path52" style="fill:#ffffff;fill-opacity:1;fill-rule:nonzero;stroke:none" d="m 3.1206,29.2515 h -0.856 l -0.265,0.814 -0.264,-0.814 h -0.856 l 0.692,-0.503 -0.264,-0.814 0.692,0.503 0.693,-0.503 -0.264,0.814 z"/></g></g></g></g></svg>