<svg xmlns:dc="http://purl.org/dc/elements/1.1/" xmlns:cc="http://creativecommons.org/ns#" xmlns:rdf="http://www.w3.org/1999/02/22-rdf-syntax-ns#" xmlns:svg="http://www.w3.org/2000/svg" xmlns="http://www.w3.org/2000/svg" viewBox="0 0 45 45" style="enable-background:new 0 0 45 45;" xml:space="preserve" version="1.1" id="svg2"><metadata id="metadata8"><rdf:RDF><cc:Work rdf:about=""><dc:format>image/svg+xml</dc:format><dc:type rdf:resource="http://purl.org/dc/dcmitype/StillImage"/></cc:Work></rdf:RDF></metadata><defs id="defs6"><clipPath id="clipPath16" clipPathUnits="userSpaceOnUse"><path id="path18" d="M 0,36 36,36 36,0 0,0 0,36 Z"/></clipPath></defs><g transform="matrix(1.25,0,0,-1.25,0,45)" id="g10"><g id="g12"><g xmlns="http://www.w3.org/2000/svg" clip-path="url(#clipPath16)" id="g14"><g id="g30"><path id="path20" style="fill:#eeeeee;fill-opacity:1;fill-rule:nonzero;stroke:none" d="M 13.005,5 32,5 c 2.209,0 4,1.791 4,4 l 0,9 -22.995,0 0,-13 z"/><path id="path22" style="fill:#c0022d;fill-opacity:1;fill-rule:nonzero;stroke:none" d="m 13.0045,18 22.996,0 0,9 c 0,2.209 -1.791,4 -4,4 l -18.996,0 0,-13 z"/><path id="path24" style="fill:#002468;fill-opacity:1;fill-rule:nonzero;stroke:none" d="M 13.005,31 4,31 C 1.791,31 0,29.209 0,27 L 0,9 C 0,6.791 1.791,5 4,5 l 9.005,0 0,26 z"/></g><g id="g34"><path id="path30" style="fill:#ffcb00;fill-opacity:1;fill-rule:nonzero;stroke:none" d="m 6.6432,9.2129 c 2.978,0 4.802,1.313 4.802,1.313 l -0.22,0.396 c 0,0 0.418,0.226 0.772,0.48 0.354,0.254 0.602,0.48 0.602,0.48 l -0.944,0.016 0.235,1.286 c 0,0 -0.905,-0.566 -1.339,-0.741 -0.499,-0.2 -0.7,-0.175 -0.841,-0.297 -0.062,-0.054 -0.013,-0.187 0.009,-0.226 0.053,-0.094 0.234,-0.336 0.234,-0.336 0,0 -1.153,-0.632 -3.31,-0.632 -2.156,0 -3.31,0.632 -3.31,0.632 0,0 0.181,0.242 0.234,0.336 0.023,0.039 0.072,0.172 0.01,0.226 -0.141,0.122 -0.342,0.097 -0.841,0.297 -0.435,0.175 -1.34,0.741 -1.34,0.741 l 0.236,-1.286 -0.945,-0.016 c 0,0 0.248,-0.226 0.602,-0.48 0.355,-0.254 0.772,-0.48 0.772,-0.48 l -0.219,-0.396 c 0,0 1.823,-1.313 4.801,-1.313"/><path id="path32" style="fill:#ffcb00;fill-opacity:1;fill-rule:nonzero;stroke:none" d="m 9.4967,17.7231 c 0,1.198 0.408,1.722 1.186,1.722 1.104,0 0.979,-1.205 0.979,-1.205 l -0.551,0.011 c 0,0 0.049,0.541 -0.463,0.541 -0.511,0 -0.574,-0.586 -0.574,-1.069 0,-0.483 0.063,-1.093 0.574,-1.093 0.512,0 0.463,0.621 0.463,0.621 l 0.551,0.011 c 0,0 0.125,-1.285 -0.979,-1.285 -0.778,0 -1.186,0.547 -1.186,1.746"/><path id="path34" style="fill:#ffffff;fill-opacity:1;fill-rule:nonzero;stroke:none" d="m 6.6432,19.8438 0.471,-1.527 1.597,0.025 -1.307,-0.92 0.517,-1.512 -1.278,0.959 -1.278,-0.959 0.517,1.512 -1.307,0.92 1.598,-0.025 0.47,1.527 z"/><path id="path36" style="fill:#ffcb00;fill-opacity:1;fill-rule:nonzero;stroke:none" d="m 3.1466,19.2939 0,-2.064 -0.909,2.064 -0.593,0 0,-3.293 0.521,0 0,2.248 0.964,-2.248 0.538,0 0,3.293 -0.521,0 z"/><path id="path38" style="fill:#ffcb00;fill-opacity:1;fill-rule:nonzero;stroke:none" d="m 6.6432,26.7582 c 2.978,0 4.802,-1.313 4.802,-1.312999 l -0.22,-0.396 c 0,0 0.418,-0.226 0.772,-0.48 0.354,-0.254 0.602,-0.48 0.602,-0.48 l -0.944,-0.016 0.235,-1.286 c 0,0 -0.905,0.566 -1.339,0.741 -0.499,0.2 -0.7000001,0.175 -0.8410001,0.297 -0.062,0.054 -0.013,0.187 0.009,0.226 0.053,0.094 0.234,0.336 0.234,0.336 0,0 -1.153,0.632 -3.31,0.632 -2.156,0 -3.31,-0.632 -3.31,-0.632 0,0 0.181,-0.242 0.234,-0.336 0.023,-0.039 0.072,-0.172 0.01,-0.226 -0.141,-0.122 -0.342,-0.097 -0.841,-0.297 -0.435,-0.175 -1.34,-0.741 -1.34,-0.741 l 0.236,1.286 -0.945,0.016 c 0,0 0.248,0.226 0.602,0.48 0.355,0.254 0.772,0.48 0.772,0.48 L 1.8422,25.4452 c 0,0 1.823,1.313 4.801,1.313"/></g></g></g></g></svg>