<svg xmlns:dc="http://purl.org/dc/elements/1.1/" xmlns:cc="http://creativecommons.org/ns#" xmlns:rdf="http://www.w3.org/1999/02/22-rdf-syntax-ns#" xmlns:svg="http://www.w3.org/2000/svg" xmlns="http://www.w3.org/2000/svg" viewBox="0 0 45 45" style="enable-background:new 0 0 45 45;" xml:space="preserve" version="1.1" id="svg2"><metadata id="metadata8"><rdf:RDF><cc:Work rdf:about=""><dc:format>image/svg+xml</dc:format><dc:type rdf:resource="http://purl.org/dc/dcmitype/StillImage"/></cc:Work></rdf:RDF></metadata><defs id="defs6"><clipPath id="clipPath16" clipPathUnits="userSpaceOnUse"><path id="path18" d="M 4,31 C 1.791,31 0,29.209 0,27 L 0,27 0,9 C 0,6.791 1.791,5 4,5 l 0,0 28,0 c 2.209,0 4,1.791 4,4 l 0,0 0,18 c 0,2.209 -1.791,4 -4,4 l 0,0 -28,0 z"/></clipPath></defs><g transform="matrix(1.25,0,0,-1.25,0,45)" id="g10"><g id="g12"><g xmlns="http://www.w3.org/2000/svg" clip-path="url(#clipPath16)" id="g14"><g id="g3478"><path id="path3207" style="fill:#ffff33;fill-opacity:1;fill-rule:nonzero;stroke:none" d="m 0,5 35.906,0 0,25.999 L 0,30.999 0,5 z"/><path id="path3211" style="fill:#009900;fill-opacity:1;fill-rule:nonzero;stroke:none" d="m 16.2504,5.0004 19.655,0 0,25.999 -19.655,-25.999 z"/><path id="path3215" style="fill:#003399;fill-opacity:1;fill-rule:nonzero;stroke:none" d="M 0,30.9996 0,5.2146 19.493,30.9996 0,30.9996 z"/></g><g id="g3483"><path id="path3227" style="fill:#000000;fill-opacity:1;fill-rule:nonzero;stroke:none" d="m 14.186,16.5586 c 0,0 1.584,-0.941 1.584,-1.082 0,-0.142 -0.878,-0.07 -0.878,-0.07 l 0,0.43 c 0,0 -0.104,0.231 -0.263,0.231 -0.087,0 -0.158,-0.195 -0.158,-0.195 l 0,-0.202 c 0,0 0.02,-0.15 -0.077,-0.15 -0.097,0 -0.276,0.406 -0.374,0.406 -0.097,0 -0.247,-0.197 -0.247,-0.279 0,-0.083 0.389,-0.618 0.515,-0.718 0.127,-0.1 0.186,-0.188 0.186,-0.259 0,-0.071 -0.062,-0.068 -0.062,-0.068 l -0.315,0 c 0,0 -0.088,-0.006 -0.088,-0.126 0,-0.091 0.094,-0.112 0.094,-0.112 l 3.989,0 c 0,0 0.163,0.092 0.163,0.171 0,0.053 -0.102,0.06 -0.102,0.06 l -3.255,0 c 0,0 -0.059,0 -0.059,0.078 0,0.078 0.059,0.071 0.059,0.071 l 3.194,0 c 0,0 0.606,0.888 0.679,1.057 0.075,0.169 0.157,0.38 -0.149,0.38 -0.307,0 -0.446,-0.37 -0.811,-0.559 -0.364,-0.187 -0.717,-0.205 -1.011,-0.21 -0.294,-0.006 -0.35,-0.015 -0.371,0.011 -0.02,0.027 0.012,0.212 0.012,0.212 l 1.521,2.47 c 0,0 0.024,0.065 -0.014,0.1 -0.037,0.037 -0.096,0 -0.096,0 0,0 -0.158,-0.257 -0.576,-0.509 -0.234,-0.142 -0.546,-0.204 -0.969,-0.409 -0.552,-0.266 -1.181,-0.481 -1.599,-0.552 -0.468,-0.08 -0.522,-0.177 -0.522,-0.177"/><path id="path3231" style="fill:#000000;fill-opacity:1;fill-rule:nonzero;stroke:none" d="m 11.6572,18.9595 0.227,-0.732 0.766,0.011 -0.626,-0.442 0.246,-0.725 -0.613,0.458 -0.614,-0.458 0.247,0.725 -0.626,0.442 0.766,-0.011 0.227,0.732 z"/><path id="path3231" style="fill:#000000;fill-opacity:1;fill-rule:nonzero;stroke:none" d="m 21.124,15.5195 0.227,-0.731 0.765,0.01 -0.626,-0.441 0.247,-0.726 -0.613,0.459 -0.614,-0.459 0.247,0.726 -0.626,0.441 0.766,-0.01 0.227,0.731 z"/><path id="path3231" style="fill:#000000;fill-opacity:1;fill-rule:nonzero;stroke:none" d="m 16.3066,22.0635 0.36,-1.162 1.216,0.017 -0.993,-0.701 0.391,-1.152 -0.974,0.728 -0.974,-0.728 0.392,1.152 -0.994,0.701 1.216,-0.017 0.36,1.162 z"/></g></g></g></g></svg>