<svg xmlns:dc="http://purl.org/dc/elements/1.1/" xmlns:cc="http://creativecommons.org/ns#" xmlns:rdf="http://www.w3.org/1999/02/22-rdf-syntax-ns#" xmlns:svg="http://www.w3.org/2000/svg" xmlns="http://www.w3.org/2000/svg" viewBox="0 0 45 45" style="enable-background:new 0 0 45 45;" xml:space="preserve" version="1.1" id="svg2"><metadata id="metadata8"><rdf:RDF><cc:Work rdf:about=""><dc:format>image/svg+xml</dc:format><dc:type rdf:resource="http://purl.org/dc/dcmitype/StillImage"/></cc:Work></rdf:RDF></metadata><defs id="defs6"><clipPath id="clipPath16" clipPathUnits="userSpaceOnUse"><path id="path18" d="M 0,36 36,36 36,0 0,0 0,36 Z"/></clipPath></defs><g xmlns="http://www.w3.org/2000/svg" transform="matrix(1.25,0,0,-1.25,0,45)" id="g10"><g xmlns="http://www.w3.org/2000/svg" id="g12"><g id="g20" transform="translate(32,31)"><path id="path22" style="fill:#82082a;fill-opacity:1;fill-rule:nonzero;stroke:none" d="m 0,0 -28,0 c -2.209,0 -4,-1.791 -4,-4 l 0,-18 c 0,-2.209 1.791,-4 4,-4 l 28,0 c 2.209,0 4,1.791 4,4 L 4,-4 C 4,-1.791 2.209,0 0,0"/></g><g id="g3189" transform="translate(7.0015,12.167)"><path d="m 0,0 c 0,-1.242 -1.007,-2.249 -2.25,-2.249 -1.242,0 -2.249,1.007 -2.249,2.249 0,1.242 1.007,2.249 2.249,2.249 C -1.007,2.249 0,1.242 0,0 z" style="fill:none;stroke:#ffffff;stroke-opacity:1;stroke-width:0.2;stroke-linecap:butt;stroke-linejoin:miter;stroke-miterlimit:10;stroke-dasharray:none" id="path3191"/></g><g id="g3193" transform="translate(7.2832,9.2471)"><path d="m 0,0 0.393,0 c 0.127,0 0.228,0.027 0.303,0.083 0.075,0.055 0.112,0.128 0.112,0.219 0,0.1 -0.036,0.177 -0.107,0.23 C 0.63,0.586 0.526,0.613 0.392,0.614 L 0,0.614 0,0 z m 0.456,-0.175 -0.456,0 0,-0.652 -0.257,0 0,1.615 0.642,0 C 0.603,0.788 0.771,0.747 0.889,0.664 1.006,0.581 1.065,0.46 1.065,0.302 1.065,0.201 1.032,0.114 0.967,0.039 0.902,-0.036 0.812,-0.092 0.695,-0.128 l 0.455,-0.686 0,-0.013 -0.274,0 -0.42,0.652 z" style="fill:#ffffff;fill-opacity:1;fill-rule:nonzero;stroke:none" id="path3195"/></g><g id="g3197" transform="translate(9.7202,9.166)"><path d="m 0,0 -0.84,0 0,-0.572 0.976,0 0,-0.174 -1.232,0 0,1.615 1.219,0 0,-0.174 -0.963,0 0,-0.52 0.84,0 L 0,0 z" style="fill:#ffffff;fill-opacity:1;fill-rule:nonzero;stroke:none" id="path3199"/></g><g id="g3201" transform="translate(11.5239,8.6309)"><path d="m 0,0 c -0.066,-0.078 -0.158,-0.137 -0.275,-0.176 -0.118,-0.039 -0.255,-0.057 -0.411,-0.057 -0.158,0 -0.298,0.03 -0.42,0.092 -0.123,0.062 -0.218,0.15 -0.285,0.263 -0.067,0.114 -0.101,0.246 -0.103,0.397 l 0,0.141 c 0,0.242 0.068,0.432 0.204,0.566 0.137,0.133 0.328,0.2 0.575,0.2 0.202,0 0.365,-0.043 0.488,-0.129 C -0.103,1.211 -0.028,1.089 0,0.93 l -0.256,0 c -0.048,0.215 -0.201,0.322 -0.458,0.322 -0.171,0 -0.301,-0.05 -0.389,-0.15 C -1.191,1.001 -1.236,0.855 -1.237,0.666 l 0,-0.132 c 0,-0.182 0.05,-0.326 0.149,-0.432 0.1,-0.108 0.234,-0.161 0.403,-0.161 0.096,0 0.18,0.008 0.252,0.027 0.072,0.016 0.131,0.047 0.179,0.089 l 0,0.362 -0.449,0 0,0.175 L 0,0.594 0,0 z" style="fill:#ffffff;fill-opacity:1;fill-rule:nonzero;stroke:none" id="path3203"/></g><path d="m 12.142,8.42 -0.255,0 0,1.615 0.255,0 0,-1.615 z" style="fill:#ffffff;fill-opacity:1;fill-rule:nonzero;stroke:none" id="path3205"/><g id="g3207" transform="translate(13.7646,9.2793)"><path d="M 0,0 C 0,0.191 -0.046,0.339 -0.139,0.441 -0.231,0.543 -0.36,0.595 -0.526,0.595 -0.687,0.595 -0.814,0.543 -0.907,0.441 -1,0.339 -1.048,0.196 -1.051,0.015 l 0,-0.119 c 0,-0.186 0.047,-0.332 0.141,-0.438 0.094,-0.106 0.223,-0.159 0.387,-0.159 0.165,0 0.293,0.05 0.383,0.15 0.091,0.101 0.137,0.244 0.14,0.431 L 0,0 z m 0.254,-0.104 c 0,-0.159 -0.032,-0.296 -0.096,-0.415 -0.064,-0.118 -0.154,-0.208 -0.271,-0.27 -0.117,-0.063 -0.254,-0.093 -0.41,-0.093 -0.153,0 -0.289,0.031 -0.407,0.094 -0.117,0.062 -0.209,0.151 -0.275,0.267 -0.065,0.116 -0.098,0.25 -0.1,0.403 l 0,0.116 c 0,0.155 0.033,0.292 0.097,0.412 0.065,0.118 0.157,0.21 0.275,0.274 0.119,0.062 0.254,0.093 0.407,0.093 0.155,0 0.292,-0.031 0.411,-0.093 C 0.003,0.621 0.094,0.531 0.158,0.412 0.222,0.293 0.254,0.155 0.254,-0.002 l 0,-0.102 z" style="fill:#ffffff;fill-opacity:1;fill-rule:nonzero;stroke:none" id="path3209"/></g><g id="g3211" transform="translate(15.8101,8.4199)"><path d="m 0,0 -0.257,0 -0.976,1.244 0,-1.244 -0.257,0 0,1.615 0.257,0 0.979,-1.251 0,1.251 L 0,1.615 0,0 z" style="fill:#ffffff;fill-opacity:1;fill-rule:nonzero;stroke:none" id="path3213"/></g><g id="g3215" transform="translate(18.2651,8.4199)"><path d="m 0,0 -0.257,0 -0.976,1.244 0,-1.244 -0.257,0 0,1.615 0.257,0 0.979,-1.251 0,1.251 L 0,1.615 0,0 z" style="fill:#ffffff;fill-opacity:1;fill-rule:nonzero;stroke:none" id="path3217"/></g><g id="g3219" transform="translate(19.874,9.2793)"><path d="M 0,0 C 0,0.191 -0.046,0.339 -0.138,0.441 -0.23,0.543 -0.36,0.595 -0.525,0.595 -0.687,0.595 -0.814,0.543 -0.907,0.441 -1,0.339 -1.047,0.196 -1.05,0.015 l 0,-0.119 c 0,-0.186 0.046,-0.332 0.14,-0.438 0.094,-0.106 0.223,-0.159 0.387,-0.159 0.166,0 0.293,0.05 0.383,0.15 0.091,0.101 0.138,0.244 0.14,0.431 L 0,0 z m 0.255,-0.104 c 0,-0.159 -0.032,-0.296 -0.096,-0.415 -0.064,-0.118 -0.155,-0.208 -0.272,-0.27 -0.117,-0.063 -0.254,-0.093 -0.41,-0.093 -0.153,0 -0.288,0.031 -0.406,0.094 -0.118,0.062 -0.21,0.151 -0.275,0.267 -0.066,0.116 -0.099,0.25 -0.101,0.403 l 0,0.116 c 0,0.155 0.034,0.292 0.097,0.412 0.065,0.118 0.157,0.21 0.275,0.274 0.119,0.062 0.255,0.093 0.408,0.093 0.155,0 0.292,-0.031 0.41,-0.093 C 0.003,0.621 0.095,0.531 0.159,0.412 0.223,0.293 0.255,0.155 0.255,-0.002 l 0,-0.102 z" style="fill:#ffffff;fill-opacity:1;fill-rule:nonzero;stroke:none" id="path3221"/></g><g id="g3223" transform="translate(20.686,9.2471)"><path d="m 0,0 0.393,0 c 0.127,0 0.228,0.027 0.303,0.083 0.075,0.055 0.113,0.128 0.113,0.219 0,0.1 -0.037,0.177 -0.108,0.23 C 0.629,0.586 0.526,0.613 0.391,0.614 L 0,0.614 0,0 z m 0.456,-0.175 -0.456,0 0,-0.652 -0.257,0 0,1.615 0.642,0 C 0.603,0.788 0.771,0.747 0.889,0.664 1.006,0.581 1.065,0.46 1.065,0.302 1.065,0.201 1.033,0.114 0.967,0.039 0.902,-0.036 0.812,-0.092 0.695,-0.128 l 0.456,-0.686 0,-0.013 -0.276,0 -0.419,0.652 z" style="fill:#ffffff;fill-opacity:1;fill-rule:nonzero;stroke:none" id="path3225"/></g><g id="g3227" transform="translate(22.2827,9.8613)"><path d="m 0,0 0,-1.268 0.269,0 c 0.197,0 0.351,0.051 0.46,0.154 0.109,0.102 0.165,0.247 0.165,0.436 l 0,0.094 c 0,0.184 -0.053,0.326 -0.155,0.428 C 0.635,-0.054 0.488,-0.002 0.298,0 L 0,0 z m -0.255,-1.441 0,1.615 0.547,0 C 0.46,0.174 0.609,0.143 0.739,0.08 0.869,0.019 0.969,-0.07 1.04,-0.185 1.11,-0.3 1.145,-0.431 1.146,-0.58 l 0,-0.104 C 1.146,-0.836 1.111,-0.969 1.041,-1.083 0.97,-1.198 0.87,-1.286 0.739,-1.348 0.608,-1.409 0.455,-1.44 0.281,-1.441 l -0.536,0 z" style="fill:#ffffff;fill-opacity:1;fill-rule:nonzero;stroke:none" id="path3229"/></g><g id="g3231" transform="translate(23.9492,10.0352)"><path d="m 0,0 0,-1.755 c 0,-0.23 -0.126,-0.346 -0.377,-0.346 -0.055,0 -0.104,0.007 -0.15,0.021 l 0,0.163 c 0.029,-0.007 0.065,-0.01 0.111,-0.01 0.056,0 0.098,0.013 0.126,0.038 0.029,0.025 0.044,0.068 0.044,0.129 L -0.246,0 0,0 z" style="fill:#ffffff;fill-opacity:1;fill-rule:nonzero;stroke:none" id="path3233"/></g><g id="g3235" transform="translate(24.8936,9.2246)"><path d="m 0,0 0.506,0.811 0.29,0 -0.668,-1.014 0,-0.602 -0.256,0 0,0.602 -0.668,1.014 0.292,0 L 0,0 z" style="fill:#ffffff;fill-opacity:1;fill-rule:nonzero;stroke:none" id="path3237"/></g><g id="g3239" transform="translate(26.1152,8.5937)"><path d="m 0,0 0.918,0 0,-0.174 -1.176,0 0,1.615 L 0,1.441 0,0 z" style="fill:#ffffff;fill-opacity:1;fill-rule:nonzero;stroke:none" id="path3241"/></g><g id="g3243" transform="translate(27.501,8.5937)"><path d="m 0,0 0.919,0 0,-0.174 -1.176,0 0,1.615 L 0,1.441 0,0 z" style="fill:#ffffff;fill-opacity:1;fill-rule:nonzero;stroke:none" id="path3245"/></g><g id="g3247" transform="translate(28.9893,9.0166)"><path d="M 0,0 0.659,0 0.329,0.755 0,0 z m 0.735,-0.175 -0.812,0 -0.183,-0.422 -0.262,0 0.739,1.616 0.223,0 0.743,-1.616 -0.263,0 -0.185,0.422 z" style="fill:#ffffff;fill-opacity:1;fill-rule:nonzero;stroke:none" id="path3249"/></g><g id="g3251" transform="translate(31.8408,8.4199)"><path d="m 0,0 -0.257,0 -0.976,1.244 0,-1.244 -0.257,0 0,1.615 0.257,0 0.978,-1.251 0,1.251 L 0,1.615 0,0 z" style="fill:#ffffff;fill-opacity:1;fill-rule:nonzero;stroke:none" id="path3253"/></g><g id="g3255" transform="translate(32.4678,9.8613)"><path d="m 0,0 0,-1.268 0.269,0 c 0.198,0 0.351,0.051 0.46,0.154 0.11,0.102 0.165,0.247 0.165,0.436 l 0,0.094 c 0,0.184 -0.052,0.326 -0.156,0.428 C 0.636,-0.054 0.488,-0.002 0.299,0 L 0,0 z m -0.255,-1.441 0,1.615 0.547,0 c 0.168,0 0.317,-0.031 0.447,-0.094 0.13,-0.061 0.23,-0.15 0.3,-0.265 C 1.11,-0.3 1.146,-0.431 1.146,-0.58 l 0,-0.104 C 1.146,-0.836 1.111,-0.969 1.041,-1.083 0.971,-1.198 0.87,-1.286 0.738,-1.348 0.608,-1.409 0.455,-1.44 0.281,-1.441 l -0.536,0 z" style="fill:#ffffff;fill-opacity:1;fill-rule:nonzero;stroke:none" id="path3257"/></g><g id="g3259" transform="translate(3.3257,12.9863)"><path d="m 0,0 0,0.142 0.452,0 0.025,-0.174 c 0.041,0.06 0.091,0.109 0.151,0.143 0.06,0.035 0.128,0.053 0.205,0.053 0.021,0 0.042,-0.002 0.064,-0.004 C 0.918,0.157 0.935,0.154 0.947,0.151 L 0.912,-0.052 0.763,-0.045 C 0.694,-0.045 0.636,-0.059 0.589,-0.086 0.542,-0.112 0.505,-0.15 0.479,-0.199 l 0,-1.025 0.217,-0.031 0,-0.14 -0.696,0 0,0.14 0.217,0.031 0,1.193 L 0,0 z" style="fill:#ffffff;fill-opacity:1;fill-rule:nonzero;stroke:none" id="path3261"/></g><g id="g3263" transform="translate(4.2114,11.7314)"><path d="m 0,0 0.217,0.031 0,0.964 0.262,0.066 0,-1.03 L 0.696,0 0.696,-0.14 0,-0.14 0,0 z" style="fill:#ffffff;fill-opacity:1;fill-rule:nonzero;stroke:none" id="path3265"/></g></g></g></svg>