<svg xmlns="http://www.w3.org/2000/svg" viewBox="0 0 45 45"><path fill="#eeeeee" d="m 45,33.75 c 0,2.76125 -2.23875,5 -5,5 H 5 c -2.76125,0 -5,-2.23875 -5,-5 v -22.5 c 0,-2.76125 2.23875,-5 5,-5 h 35 c 2.76125,0 5,2.23875 5,5 z"/><path fill="#d50000" d="m 22.499875,11.540125 c -6.05,0 -10.96,4.91 -10.96,10.96 0,6.05 4.91,10.96 10.96,10.96 6.05,0 10.96,-4.91 10.96,-10.96 0,-6.05 -4.91,-10.96 -10.96,-10.96 z m 0,20.94 c -5.51,0 -9.98,-4.47 -9.98,-9.98 0,-5.51 4.47,-9.98 9.98,-9.98 5.51,0 9.98,4.47 9.98,9.98 0,5.51 -4.47,9.98 -9.98,9.98 z"/><path fill="#141414" d="m 30.699875,27.330125 c -0.48,0.82 -1.08,1.55 -1.78,2.18 l -0.66,-0.73 c -0.62,0.57 -1.32,1.05 -2.09,1.41 l 0.42,0.9 c -0.84,0.4 -1.74,0.68 -2.69,0.82 l -0.14,-0.98 c -0.41,0.06 -0.83,0.09 -1.26,0.09 -0.43,0 -0.85,-0.03 -1.26,-0.09 l -0.14,0.98 c -0.95,-0.14 -1.85,-0.42 -2.69,-0.82 l 0.42,-0.9 c -0.77,-0.36 -1.47,-0.84 -2.09,-1.41 l -0.66,0.73 c -0.7,-0.63 -1.3,-1.36 -1.78,-2.18 l 0.85,-0.5 1.71,-1.01 c 0.33,0.56 0.74,1.07 1.22,1.5 0.47,0.45 1.01,0.81 1.6,1.09 0.57,0.28 1.19,0.47 1.85,0.56 0.31,0.06 0.64,0.08 0.97,0.08 0.33,0 0.66,-0.02 0.97,-0.08 0.66,-0.09 1.28,-0.28 1.85,-0.56 0.59,-0.28 1.13,-0.64 1.6,-1.09 0.48,-0.43 0.89,-0.94 1.22,-1.5 l 1.71,1.01 z"/><path fill="#01752e" d="m 22.499875,25.060125 c -1.58,0 -2.58,-0.83 -2.58,-0.83 0,0 0.55,-0.58 1.01,-1.19 0.46,-0.62 0.8,-1.24 0.8,-1.24 0.21,0.05 0.47,0.1 0.77,0.1 0.3,0 0.56,-0.05 0.77,-0.1 0,0 0.34,0.62 0.8,1.24 0.46,0.61 1.01,1.19 1.01,1.19 0,0 -1,0.83 -2.58,0.83 z m 2.79,1.43 c -0.77,-0.69 -1.08,-1.2 -1.08,-1.2 -0.44,0.18 -1.02,0.33 -1.71,0.33 -0.69,0 -1.27,-0.15 -1.71,-0.33 0,0 -0.31,0.51 -1.08,1.2 -0.78,0.7 -1.21,0.87 -1.21,0.87 0,0 1.55,1.22 4,1.22 2.45,0 4,-1.22 4,-1.22 0,0 -0.43,-0.17 -1.21,-0.87 z m -1.5,-5.3 c 0,0 -0.4,-0.48 -0.8,-1.59 -0.4,-1.11 -0.49,-2 -0.49,-2 0,0 -0.09,0.89 -0.49,2 -0.4,1.11 -0.8,1.59 -0.8,1.59 0,0 0.5,0.29 1.29,0.29 0.79,0 1.29,-0.29 1.29,-0.29 z"/><path fill="#0076fe" d="m 18.519875,17.710125 c -0.11,0.1 -0.21,0.2 -0.31,0.3 -0.02,-0.79 0.61,-0.92 0.61,-0.92 l -1.68,-2.46 c 0,0 -1.45,1.54 -1.45,2.6 0,1.03 0.47,1.81 1.08,2.64 -0.39,0.71 -0.5,1.19 -0.5,1.19 0,0 -0.08,-1.11 -0.6,-1.68 -0.51,-0.58 -2,-0.05 -2,-0.05 0,0 0.9,0.65 0.9,1.62 0,0.97 -1.1,1.55 -1.32,2.71 -0.18,0.92 2,2.62 2,2.62 l 1.42,-0.81 c -0.19,-0.37 -0.35,-0.75 -0.46,-1.16 0.56,0.38 1.98,1.15 2.93,-0.01 1,-1.23 0.82,-2.34 -0.21,-3.91 1.12,-0.72 2.32,-0.48 2.32,-0.48 l 0.62,-3.66 c 0,0 -1.54,-0.19 -3.35,1.46 z m -0.41,5.24 c -0.34,0.51 -0.9,0.31 -1.3,0.06 0.24,-0.46 0.59,-1.07 1.07,-1.63 0.4,0.63 0.54,1.11 0.23,1.57 z"/><path fill="#d50000" d="m 21.869875,14.990125 v 0.99 c -1.13,0.11 -2.17,0.5 -3.05,1.11 l -0.56,-0.82 c 1.04,-0.72 2.28,-1.17 3.61,-1.28 z"/><path fill="#01752e" d="m 21.869875,13.990125 v 1 c -1.33,0.11 -2.57,0.56 -3.61,1.28 l -0.56,-0.82 c 1.2,-0.83 2.63,-1.35 4.17,-1.46 z"/><path fill="#ffffff" d="m 21.869875,13.000125 v 0.99 c -1.54,0.11 -2.97,0.63 -4.17,1.46 l -0.56,-0.82 c 1.36,-0.93 2.98,-1.52 4.73,-1.63 z"/><path fill="#c0c1b9" d="m 28.619875,22.500125 c 0,0.87 -0.09,1.23 -0.09,1.23 0,0 -0.1,0.96 -1.31,1 -0.54,0.02 -0.7,0.16 -0.7,0.16 0,0 0.71,0.9 0.82,0.83 0.11,-0.07 0.06,-0.26 0.06,-0.26 l 0.56,-0.04 c 0,0 -0.39,0.67 -0.7,0.67 -0.19,0 -1.37,-1.29 -1.33,-1.41 0.04,-0.12 0.99,-0.18 0.94,-0.47 -0.04,-0.29 -0.71,-0.18 -0.76,-0.6 -0.04,-0.41 -0.48,-1.07 -0.8,-0.81 -0.33,0.27 0.14,0.67 0.18,0.78 0.05,0.11 -0.04,0.48 -0.04,0.48 0,0 -0.58,-0.34 -0.77,-0.77 -0.19,-0.42 -0.67,-0.97 -0.67,-0.97 l 0.23,-0.28 c 0,0 0.1,-0.77 1.01,-0.77 0.9,0 1.26,0.6 1.57,0.55 0.11,-0.02 0.24,-0.2 0.27,-0.48 -0.18,-0.22 -0.38,-0.44 -0.59,-0.63 -1.22,-1.1 -2.75,-0.8 -2.75,-0.8 l -0.62,-3.66 c 0,0 1.54,-0.19 3.35,1.46 1.88,1.71 2.05,3.35 2.05,3.35 0,0 0.09,0.57 0.09,1.44 z"/><path fill="#ffff00" d="m 26.059875,17.350125 -0.62,2.73 c -0.11,-0.04 -0.22,-0.07 -0.32,-0.1 l 0.65,-2.84 c 0.09,0.06 0.19,0.14 0.29,0.21 z"/><path fill="#ffff00" d="m 27.099875,16.790125 h -1.4 c -0.77,-0.44 -1.64,-0.72 -2.57,-0.81 v -0.79 c 1.45,0.11 2.85,0.69 3.97,1.6 z m -3.97,-2.7 v 0.8 h 0.01 c 1.64,0.12 3.21,0.82 4.43,1.9 h 0.58 l 0.07,-0.48 c -1.39,-1.28 -3.19,-2.1 -5.09,-2.22 z m 4.73,0.54 c -1.36,-0.93 -2.98,-1.52 -4.73,-1.63 v 0.79 h 0.01 c 1.9,0.12 3.71,0.92 5.13,2.17 l 0.14,-0.92 c -0.18,-0.15 -0.36,-0.28 -0.55,-0.41 z m 0.78125,0.90125 -0.235,1.55875 1,1.2375 0.375,-1.5475 z m -1.225,2.68375 h 1.49 l -0.9175,-1.125 h -1.655 z m 0.29,0.4 0.78375,1.2625 1.255,0.20375 -0.54125,-1.3475 z m 2.565,1.50625 0.66625,-1.50625 -0.745,-1.23125 -0.58875,1.38875 z m 0.77625,-0.455 -0.84,1.21625 0.31375,1.23125 0.94125,-0.82375 z m -2.2675,1.57625 1.1925,0.70625 -0.11,-1.16875 -1.19125,-0.65875 z m 0.205,0.605 v 1.42 l 0.87875,0.94875 0.10875,-1.515 z m 1.47375,0.9875 c 0,0 -0.055,1.4275 -0.0625,1.45875 -0.0075,0.03125 1.1375,-0.965 1.1375,-0.965 l 0.0475,-1.325 z m -0.25125,2.07125 -0.50125,1.255 1.13,-0.3525 0.6275,-1.33375 z m -1.7325,-0.04 0.76,1.16125 0.47,-1.23125 -0.72,-1.09 z"/></svg>