<svg xmlns:dc="http://purl.org/dc/elements/1.1/" xmlns:cc="http://creativecommons.org/ns#" xmlns:rdf="http://www.w3.org/1999/02/22-rdf-syntax-ns#" xmlns:svg="http://www.w3.org/2000/svg" xmlns="http://www.w3.org/2000/svg" viewBox="0 0 45 45" style="enable-background:new 0 0 45 45;" xml:space="preserve" version="1.1" id="svg2"><metadata id="metadata8"><rdf:RDF><cc:Work rdf:about=""><dc:format>image/svg+xml</dc:format><dc:type rdf:resource="http://purl.org/dc/dcmitype/StillImage"/></cc:Work></rdf:RDF></metadata><defs id="defs6"><clipPath id="clipPath16" clipPathUnits="userSpaceOnUse"><path id="path18" d="M 0,36 36,36 36,0 0,0 0,36 Z"/></clipPath></defs><g transform="matrix(1.25,0,0,-1.25,0,45)" id="g10"><g id="g12"><g xmlns="http://www.w3.org/2000/svg" clip-path="url(#clipPath16)" id="g14"><g id="g20"><path id="path22" style="fill:#1706fa;fill-opacity:1;fill-rule:nonzero;stroke:none" d="M 32,31.0002 H 4 c -2.209,0 -4,-1.791 -4,-4 v -3.969 h 36 v 3.969 c 0,2.209 -1.791,4 -4,4"/></g><g id="g24"><path id="path26" style="fill:#2c9017;fill-opacity:1;fill-rule:nonzero;stroke:none" d="M 0,12.969 V 9 C 0,6.791 1.791,5 4,5 h 28 c 2.209,0 4,1.791 4,4 v 3.969 z"/></g><g id="g28"><path id="path30" style="fill:#eeeeee;fill-opacity:1;fill-rule:nonzero;stroke:none" d="m 0,12.9692 h 36 v 10.063 H 0 Z"/></g><g id="g32"><path id="path40" style="fill:#e62e00;fill-opacity:1;fill-rule:nonzero;stroke:none" d="m 18,13.2297 c 0,0 -1.932,1.376 -3.13,3.488 -1.142,2.014 -1.072,3.947 -1.072,3.947 0,0 0.276,0.038 0.708,0.477 0.4,0.405 0.437,0.676 0.437,0.676 0,0 0.307,-0.039 0.857,0.183 0.628,0.252 1.259,0.771 2.2,0.771 0.941,0 1.572,-0.519 2.2,-0.771 0.55,-0.222 0.857,-0.183 0.857,-0.183 0,0 0.037,-0.271 0.437,-0.676 0.432,-0.439 0.708,-0.477 0.708,-0.477 0,0 0.07,-1.933 -1.071,-3.947 C 19.932,14.6057 18,13.2297 18,13.2297"/><path id="path41" style="fill:#1c39bb;fill-opacity:1;fill-rule:nonzero;stroke:none" d="m 18.0293,20.5529 c -0.613,0 -1.013,-0.179 -1.359,-0.359 -0.192,-0.1 -0.555,-0.306 -0.805,-0.412 -0.342,-0.145 -0.495,-0.167 -0.661,-0.18 l -1.019,-0.009 c -0.044,0.277 -0.066,0.512 -0.078,0.69 l 1.097,10e-4 c 0.166,0.014 0.387,0.064 0.73,0.209 0.25,0.106 0.524,0.283 0.716,0.383 0.347,0.18 0.738,0.36 1.379,0.36 0.642,0 1.032,-0.18 1.379,-0.36 0.192,-0.1 0.467,-0.277 0.717,-0.383 0.342,-0.145 0.563,-0.195 0.729,-0.209 l 1.097,-10e-4 c -0.012,-0.178 -0.034,-0.413 -0.078,-0.69 l -1.019,0.009 c -0.166,0.013 -0.319,0.035 -0.661,0.18 -0.25,0.106 -0.612,0.312 -0.805,0.412 -0.346,0.18 -0.746,0.359 -1.359,0.359"/><path id="path42" style="fill:#eeeeee;fill-opacity:1;fill-rule:nonzero;stroke:none" d="m 18.0293,21.2356 c -0.612,0 -1.032,-0.18 -1.379,-0.359 -0.192,-0.1 -0.466,-0.278 -0.716,-0.383 -0.343,-0.145 -0.564,-0.196 -0.73,-0.209 l -1.097,-0.002 c -0.005,0.084 -0.008,0.155 -0.01,0.212 0.15,0.069 0.37,0.206 0.638,0.478 h 0.44 c 0.166,0.013 0.457,0.06 0.831,0.245 0.18,0.09 0.423,0.226 0.614,0.327 0.446,0.235 0.796,0.379 1.409,0.379 0.613,0 0.963,-0.144 1.408,-0.379 0.192,-0.101 0.436,-0.237 0.615,-0.327 0.374,-0.185 0.665,-0.232 0.831,-0.245 h 0.44 c 0.268,-0.272 0.488,-0.409 0.638,-0.478 -0.002,-0.057 -0.005,-0.128 -0.01,-0.212 l -1.097,0.002 c -0.166,0.013 -0.387,0.064 -0.729,0.209 -0.25,0.105 -0.525,0.283 -0.717,0.383 -0.347,0.179 -0.768,0.359 -1.379,0.359"/><path id="path43" style="fill:#1c39bb;fill-opacity:1;fill-rule:nonzero;stroke:none" d="m 18.0293,21.9235 c -0.613,0 -0.963,-0.144 -1.409,-0.379 -0.191,-0.101 -0.434,-0.237 -0.614,-0.327 -0.374,-0.185 -0.665,-0.232 -0.831,-0.245 h -0.44 c 0.248,0.252 0.375,0.462 0.44,0.607 0.166,0.013 0.428,0.059 0.773,0.198 0.186,0.075 0.371,0.173 0.562,0.274 0.446,0.236 0.906,0.479 1.519,0.479 0.613,0 1.073,-0.243 1.519,-0.479 0.191,-0.101 0.376,-0.199 0.562,-0.274 0.345,-0.139 0.607,-0.185 0.773,-0.198 0.065,-0.145 0.192,-0.355 0.44,-0.607 h -0.44 c -0.166,0.013 -0.457,0.06 -0.831,0.245 -0.179,0.09 -0.423,0.226 -0.615,0.327 -0.445,0.235 -0.795,0.379 -1.408,0.379"/><path id="path44" style="fill:#d6d6d6;fill-opacity:1;fill-rule:nonzero;stroke:none" d="m 17.5327,21.2644 v -0.072 h 0.038 v -0.08 l 0.065,-0.065 v -0.122 l 0.05,-0.05 v -0.642 c -1.501,-0.156 -2.67,-1.426 -2.67,-2.968 0,-1.648 1.336,-2.984 2.984,-2.984 1.649,0 2.985,1.336 2.985,2.984 0,1.542 -1.17,2.812 -2.67,2.968 v 0.642 l 0.05,0.05 v 0.122 l 0.064,0.065 v 0.08 h 0.039 v 0.072 z"/><path id="path45" style="fill:#f6c001;fill-opacity:1;fill-rule:nonzero;stroke:none" d="m 18.4312,21.2644 c 0,0 0.052,0.095 0.062,0.192 0.012,0.097 -0.017,0.208 -0.017,0.208 0,0 0.011,0.126 -0.036,0.255 -0.047,0.128 -0.117,0.224 -0.117,0.224 0,0 0.004,-0.065 -0.011,-0.129 -0.014,-0.064 -0.037,-0.109 -0.037,-0.109 0,0 -0.01,0.067 -0.036,0.121 -0.027,0.055 -0.072,0.108 -0.072,0.108 0,0 0.033,0.074 0.033,0.152 0,0.109 -0.185,0.287 -0.185,0.287 0,0 0.054,-0.165 0.055,-0.229 0.002,-0.077 -0.11,-0.118 -0.103,-0.241 0.008,-0.134 -0.006,-0.184 -0.006,-0.184 0,0 0.009,0.17 -0.019,0.268 -0.028,0.099 -0.101,0.138 -0.101,0.138 0,0 0.048,-0.082 0,-0.185 -0.049,-0.103 -0.082,-0.132 -0.082,-0.132 0,0 -0.001,0.048 0,0.086 0.002,0.037 0.008,0.084 0.008,0.084 0,0 -0.262,-0.314 -0.262,-0.592 0,-0.204 0.076,-0.322 0.076,-0.322 z"/><path id="path46" style="fill:#0071c6;fill-opacity:1;fill-rule:nonzero;stroke:none" d="m 20.4648,17.2658 c 0,-1.361 -1.104,-2.465 -2.465,-2.465 -1.361,0 -2.465,1.104 -2.465,2.465 z"/><path id="path47" style="fill:#89d1f9;fill-opacity:1;fill-rule:nonzero;stroke:none" d="m 15.5347,17.2658 c 0,1.361 1.104,2.465 2.465,2.465 1.362,0 2.465,-1.104 2.465,-2.465 z"/><path id="path48" style="fill:#eeeeee;fill-opacity:1;fill-rule:nonzero;stroke:none" d="m 18.0498,17.1301 v -0.38 l 0.04,-0.05 v -1.92 h -0.18 v 1.92 l 0.04,0.05 v 0.38 c -0.07,0.021 -0.12,0.08 -0.12,0.15 0,0.07 0.05,0.14 0.12,0.161 v 1.999 l -0.09,-0.09 0.14,0.81 0.14,-0.81 -0.09,0.09 v -1.999 c 0.07,-0.021 0.12,-0.091 0.12,-0.161 0,-0.07 -0.05,-0.129 -0.12,-0.15"/></g></g></g></g></svg>