<svg xmlns:dc="http://purl.org/dc/elements/1.1/" xmlns:cc="http://creativecommons.org/ns#" xmlns:rdf="http://www.w3.org/1999/02/22-rdf-syntax-ns#" xmlns:svg="http://www.w3.org/2000/svg" xmlns="http://www.w3.org/2000/svg" viewBox="0 0 45 45" style="enable-background:new 0 0 45 45;" xml:space="preserve" version="1.1" id="svg2"><metadata id="metadata8"><rdf:RDF><cc:Work rdf:about=""><dc:format>image/svg+xml</dc:format><dc:type rdf:resource="http://purl.org/dc/dcmitype/StillImage"/></cc:Work></rdf:RDF></metadata><defs id="defs6"><clipPath id="clipPath16" clipPathUnits="userSpaceOnUse"><path id="path18" d="M 4,31 C 1.791,31 0,29.209 0,27 L 0,27 0,9 C 0,6.791 1.791,5 4,5 l 0,0 28,0 c 2.209,0 4,1.791 4,4 l 0,0 0,18 c 0,2.209 -1.791,4 -4,4 l 0,0 -28,0 z"/></clipPath></defs><g transform="matrix(1.25,0,0,-1.25,0,45)" id="g10"><g id="g12"><g xmlns="http://www.w3.org/2000/svg" clip-path="url(#clipPath16)" id="g14"><g id="g30"><path id="path20" style="fill:#eeeeee;fill-opacity:1;fill-rule:nonzero;stroke:none" d="m 0,5 36,0 0,25.999 -36,0 L 0,5 z"/><path id="path22" style="fill:#ff0033;fill-opacity:1;fill-rule:nonzero;stroke:none" d="m 35.002,16.3223 c 0,0 0.025,0.019 0.155,0.021 0.13,0.001 0.184,-0.021 0.184,-0.021 0,0 0.05,0.153 -0.108,0.229 -0.158,0.077 -0.265,0.01 -0.265,0.01 0,0 -0.096,0.188 -0.301,0.146 -0.205,-0.042 -0.157,-0.219 -0.157,-0.219 0,0 0.089,0.027 0.161,-0.004 0.071,-0.032 0.08,-0.094 0.08,-0.094 0,0 -0.193,-0.603 -1.123,-1.169 -1.021,-0.622 -1.873,-0.191 -1.873,0.05 0,0.096 0.039,0.179 0.119,0.239 0.133,0.104 0.22,0.102 0.22,0.102 0,0 -0.055,0.199 -0.223,0.194 -0.167,-0.005 -0.287,-0.108 -0.287,-0.108 0,0 -0.172,0.122 -0.328,0.022 -0.116,-0.074 -0.116,-0.225 -0.116,-0.225 0,0 0.349,0.088 0.349,-0.226 0,-0.312 -0.961,-0.473 -1.827,-0.25 -0.867,0.223 -1.507,0.763 -1.507,0.763 0,0 -0.017,0.048 0.07,0.107 0.088,0.06 0.202,0.056 0.202,0.056 0,0 -0.107,0.151 -0.26,0.118 -0.153,-0.034 -0.187,-0.145 -0.187,-0.145 0,0 -0.116,0.002 -0.173,-0.092 -0.059,-0.094 -0.019,-0.258 -0.019,-0.258 0,0 0.068,0.05 0.14,0.063 0.072,0.011 0.145,-0.023 0.145,-0.023 0,0 0.263,-1.318 1.458,-1.756 1.582,-0.579 2.133,-0.31 2.133,-0.31 0,0 1.13,-0.325 2.401,0.649 1.036,0.794 0.937,2.131 0.937,2.131"/><path id="path24" style="fill:#ff0033;fill-opacity:1;fill-rule:nonzero;stroke:none" d="m 23.4463,18.5972 c 0,0 -0.431,0.563 -0.653,0.803 -0.224,0.239 -0.208,0.829 -0.835,1.111 -0.627,0.282 -1.005,0.149 -1.792,0.484 -0.786,0.335 -0.962,0.718 -0.962,0.718 0,0 -0.074,-0.16 -0.091,-0.33 -0.016,-0.17 0.181,-0.452 0.181,-0.452 0,0 -0.266,-0.165 -0.26,-0.26 0.005,-0.096 0.383,-0.463 0.383,-0.463 0,0 -0.123,-0.058 -0.085,-0.25 0.037,-0.191 0.196,-0.329 0.196,-0.329 0,0 0,-0.25 0.069,-0.399 0.07,-0.149 0.207,-0.245 0.207,-0.245 0,0 -0.026,-0.069 0.118,-0.25 0.143,-0.18 0.159,-0.34 0.233,-0.468 0.075,-0.127 0.187,-0.25 0.187,-0.25 0,0 -0.84,-0.382 -1.436,-1.094 -0.595,-0.713 -0.662,-1.466 -0.662,-1.466 0,0 0.026,-0.002 0.084,0.01 0.057,0.012 0.125,0.038 0.125,0.038 0,0 -0.013,-0.052 -0.026,-0.154 -0.011,-0.101 -0.005,-0.193 -0.005,-0.193 0,0 0.042,0 0.121,0.012 0.08,0.011 0.183,0.052 0.183,0.052 0,0 -0.059,-0.102 -0.077,-0.18 -0.018,-0.077 -0.026,-0.225 -0.026,-0.225 0,0 0.076,-0.016 0.177,-0.026 0.102,-0.01 0.194,0 0.194,0 0,0 -0.012,-0.048 -0.021,-0.134 -0.007,-0.085 0.002,-0.181 0.002,-0.181 0,0 0.111,0.016 0.24,0.052 0.129,0.035 0.231,0.104 0.231,0.104 0,0 -0.012,-0.029 -0.023,-0.146 -0.012,-0.118 0.015,-0.269 0.015,-0.269 0,0 0.172,-0.014 0.547,0.338 0.374,0.354 0.787,0.992 1.246,0.992 0.458,0 1.032,-0.546 2.324,-0.546 2.066,0 2.146,1.227 3.517,1.227 0.363,0 0.865,-0.283 0.865,-0.283 0,0 -0.174,1.094 -0.806,1.743 -0.463,0.475 -1.611,0.387 -1.611,0.387 0,0 0.683,0.969 1.066,1.87 0.382,0.901 0.12,2.297 0.12,2.655 0,0.359 0.048,0.902 0.048,0.902 0,0 -0.212,-0.1 -0.352,-0.3 -0.14,-0.199 -0.167,-0.589 -0.167,-0.589 0,0 -0.088,0.007 -0.151,0.055 -0.065,0.048 -0.088,0.124 -0.088,0.124 0,0 -0.152,-0.116 -0.216,-0.307 -0.063,-0.192 -0.016,-0.363 -0.016,-0.363 0,0 -0.239,0.02 -0.346,-0.072 -0.108,-0.092 -0.12,-0.283 -0.12,-0.283 0,0 -0.251,0.036 -0.331,-0.179 -0.08,-0.216 -0.091,-0.411 -0.091,-0.411 0,0 -0.26,-0.007 -0.313,-0.161 -0.054,-0.154 -0.085,-0.547 -0.085,-0.547 0,0 -0.229,0.074 -0.308,-0.096 -0.08,-0.17 -0.08,-0.628 -0.08,-0.628 0,0 -0.173,0.243 -0.351,-0.047 -0.144,-0.234 -0.11,-0.534 -0.165,-0.782 -0.047,-0.214 -0.128,-0.319 -0.128,-0.319"/><path id="path26" style="fill:#461304;fill-opacity:1;fill-rule:nonzero;stroke:none" d="m 27.1904,17.0703 c 0,0.152 -0.124,0.277 -0.277,0.277 -0.154,0 -0.278,-0.125 -0.278,-0.277 0,-0.153 0.124,-0.277 0.278,-0.277 0.153,0 0.277,0.124 0.277,0.277"/></g><g id="g34"><path id="path30" style="fill:#ffc726;fill-opacity:1;fill-rule:nonzero;stroke:none" d="M 0,31 12.169,18 0,5 18,18 0,31 z"/><path id="path32" style="fill:#141414;fill-opacity:1;fill-rule:nonzero;stroke:none" d="M 0,31 0,5 12.169,18 0,31 z"/><path id="path34" style="fill:#ffffff;fill-opacity:1;fill-rule:nonzero;stroke:none" d="m 5.6758,16.7891 2.935,-0.487 -2.088,2.119 1.371,2.64 -2.661,-1.33 -2.088,2.12 0.443,-2.942 -2.661,-1.33 2.936,-0.488 0.442,-2.943 1.371,2.641 z"/></g></g></g></g></svg>