<svg xmlns:dc="http://purl.org/dc/elements/1.1/" xmlns:cc="http://creativecommons.org/ns#" xmlns:rdf="http://www.w3.org/1999/02/22-rdf-syntax-ns#" xmlns:svg="http://www.w3.org/2000/svg" xmlns="http://www.w3.org/2000/svg" viewBox="0 0 45 45" style="enable-background:new 0 0 45 45;" xml:space="preserve" version="1.1" id="svg2"><metadata id="metadata8"><rdf:RDF><cc:Work rdf:about=""><dc:format>image/svg+xml</dc:format><dc:type rdf:resource="http://purl.org/dc/dcmitype/StillImage"/></cc:Work></rdf:RDF></metadata><defs id="defs6"><clipPath id="clipPath16" clipPathUnits="userSpaceOnUse"><path id="path18" d="M 4,31 C 1.791,31 0,29.209 0,27 L 0,27 0,9 C 0,6.791 1.791,5 4,5 l 0,0 28,0 c 2.209,0 4,1.791 4,4 l 0,0 0,18 c 0,2.209 -1.791,4 -4,4 l 0,0 -28,0 z"/></clipPath></defs><g transform="matrix(1.25,0,0,-1.25,0,45)" id="g10"><g id="g12"><g xmlns="http://www.w3.org/2000/svg" clip-path="url(#clipPath16)" id="g14"><g id="g30"><path id="path20" style="fill:#fff500;fill-opacity:1;fill-rule:nonzero;stroke:none" d="M 36,18 0,5 h 36 z"/><path id="path21" style="fill:#da251d;fill-opacity:1;fill-rule:nonzero;stroke:none" d="M 36,31 0,18 V 5 l 36,13 z"/><path id="path22" style="fill:#00923f;fill-opacity:1;fill-rule:nonzero;stroke:none" d="M 36,31 0,18 v 13 z"/></g><g id="g32"><path id="path30" style="fill:#ffffff;fill-opacity:1;fill-rule:nonzero;stroke:none" d="m 23.583,18 c 0,3.59 -2.499,6.5 -5.583,6.5 -3.084,0 -5.584,-2.91 -5.584,-6.5 0,-3.59 2.5,-6.5 5.584,-6.5 3.084,0 5.583,2.91 5.583,6.5"/><path id="path31" style="fill:#da251d;fill-opacity:1;fill-rule:nonzero;stroke:none" d="m 18.4326,20.957 0.196,0.849 0.067,-0.03 -0.195,-0.837 z"/><path id="path32" style="fill:#c0a062;fill-opacity:1;fill-rule:nonzero;stroke:none" d="m 18.6289,21.8057 0.016,0.04 c 0,0 0.032,-0.007 0.06,0.002 0.029,0.007 0.045,0.027 0.045,0.027 l 0.216,1.053 -0.169,-1.096 c 0,0 -0.011,-0.038 -0.043,-0.049 -0.032,-0.012 -0.059,-0.006 -0.059,-0.006 z"/><path id="path33" style="fill:#da251d;fill-opacity:1;fill-rule:nonzero;stroke:none" d="m 18.9209,20.7246 0.346,0.802 0.06,-0.04 -0.342,-0.791 z"/><path id="path34" style="fill:#c0a062;fill-opacity:1;fill-rule:nonzero;stroke:none" d="m 19.2666,21.5269 0.023,0.036 c 0,0 0.031,-0.012 0.06,-0.008 0.03,0.003 0.049,0.019 0.049,0.019 l 0.403,1 -0.364,-1.05 c 0,0 -0.018,-0.035 -0.052,-0.041 -0.034,-0.006 -0.058,0.004 -0.058,0.004 z"/><path id="path35" style="fill:#c0a062;fill-opacity:1;fill-rule:nonzero;stroke:none" d="m 21.666,22.061 -0.196,-0.312 -0.138,-0.03 0.03,-0.096 c 0,0 -0.045,-0.033 -0.02,-0.085 0.024,-0.052 0.103,-0.012 0.103,-0.012 0,0 -0.105,-0.147 -0.157,-0.058 -0.052,0.09 0.074,0.155 0.074,0.155 l -0.093,0.034 -0.039,-0.115 -0.136,-0.104 -0.032,0.092 0.077,0.1 0.118,0.039 -0.037,0.09 c 0,0 -0.066,-0.123 -0.158,-0.074 -0.093,0.048 0.056,0.152 0.056,0.152 0,0 -0.039,-0.076 0.015,-0.1 0.054,-0.023 0.087,0.022 0.087,0.022 l 0.099,-0.028 0.03,0.135 0.317,0.195"/><path id="path36" style="fill:#c0a062;fill-opacity:1;fill-rule:nonzero;stroke:none" d="m 20.9131,22.7749 -0.127,-0.343 -0.129,-0.057 0.05,-0.089 c 0,0 -0.037,-0.041 -0.002,-0.087 0.034,-0.046 0.104,0.009 0.104,0.009 0,0 -0.073,-0.165 -0.142,-0.088 -0.069,0.077 0.04,0.166 0.04,0.166 l -0.099,0.015 -0.013,-0.119 -0.061,-0.07 -0.081,0.068 0.034,0.069 0.107,0.062 -0.055,0.081 c 0,0 -0.038,-0.134 -0.14,-0.105 -0.101,0.03 0.024,0.161 0.024,0.161 0,0 -0.023,-0.083 0.035,-0.094 0.058,-0.013 0.081,0.038 0.081,0.038 l 0.103,-0.008 v 0.137 l 0.271,0.254"/><path id="path37" style="fill:#da251d;fill-opacity:1;fill-rule:nonzero;stroke:none" d="m 17.9395,20.9922 v 1.047 l 0.061,-0.074 0.06,0.074 v -1.047 z"/><path id="path38" style="fill:#c0a062;fill-opacity:1;fill-rule:nonzero;stroke:none" d="m 18,21.9648 -0.061,0.074 c 0,0 -0.032,0.075 -0.103,0.075 -0.07,0 -0.083,-0.059 -0.083,-0.059 0,0 -0.014,0.139 0.071,0.139 0.085,0 0.132,-0.092 0.132,-0.092 l 0.016,0.096 v 0.061 c 0,0 -0.057,-0.004 -0.202,0 -0.146,0.004 -0.083,0.045 -0.083,0.045 H 18 l -0.091,0.161 0.091,0.949 0.091,-0.949 L 18,22.3038 h 0.313 c 0,0 0.063,-0.041 -0.083,-0.045 -0.145,-0.004 -0.202,0 -0.202,0 v -0.061 l 0.016,-0.096 c 0,0 0.047,0.092 0.132,0.092 0.085,0 0.071,-0.139 0.071,-0.139 0,0 -0.013,0.059 -0.083,0.059 -0.071,0 -0.103,-0.075 -0.103,-0.075 z"/><path id="path39" style="fill:#da251d;fill-opacity:1;fill-rule:nonzero;stroke:none" d="m 17.5674,20.957 -0.196,0.849 -0.067,-0.03 0.194,-0.837 z"/><path id="path40" style="fill:#c0a062;fill-opacity:1;fill-rule:nonzero;stroke:none" d="m 17.3716,21.8057 -0.016,0.04 c 0,0 -0.032,-0.007 -0.061,0.002 -0.029,0.007 -0.045,0.027 -0.045,0.027 l -0.216,1.053 0.169,-1.096 c 0,0 0.011,-0.038 0.044,-0.049 0.032,-0.012 0.058,-0.006 0.058,-0.006 z"/><path id="path41" style="fill:#da251d;fill-opacity:1;fill-rule:nonzero;stroke:none" d="m 17.0796,20.7246 -0.346,0.802 -0.061,-0.04 0.343,-0.791 z"/><path id="path42" style="fill:#c0a062;fill-opacity:1;fill-rule:nonzero;stroke:none" d="m 16.7334,21.5269 -0.023,0.036 c 0,0 -0.03,-0.012 -0.06,-0.008 -0.03,0.003 -0.049,0.019 -0.049,0.019 l -0.403,1 0.364,-1.05 c 0,0 0.018,-0.035 0.052,-0.041 0.034,-0.006 0.058,0.004 0.058,0.004 z"/><path id="path43" style="fill:#c0a062;fill-opacity:1;fill-rule:nonzero;stroke:none" d="m 14.3345,22.061 0.195,-0.312 0.138,-0.03 -0.03,-0.096 c 0,0 0.046,-0.033 0.021,-0.085 -0.025,-0.052 -0.103,-0.012 -0.103,-0.012 0,0 0.105,-0.147 0.156,-0.058 0.052,0.09 -0.074,0.155 -0.074,0.155 l 0.094,0.034 0.038,-0.115 0.137,-0.104 0.032,0.092 -0.078,0.1 -0.117,0.039 0.037,0.09 c 0,0 0.065,-0.123 0.158,-0.074 0.093,0.048 -0.057,0.152 -0.057,0.152 0,0 0.04,-0.076 -0.014,-0.1 -0.054,-0.023 -0.087,0.022 -0.087,0.022 l -0.1,-0.028 -0.029,0.135 -0.317,0.195"/><path id="path44" style="fill:#c0a062;fill-opacity:1;fill-rule:nonzero;stroke:none" d="m 15.0874,22.7749 0.126,-0.343 0.129,-0.057 -0.05,-0.089 c 0,0 0.038,-0.041 0.003,-0.087 -0.035,-0.046 -0.104,0.009 -0.104,0.009 0,0 0.073,-0.165 0.142,-0.088 0.069,0.077 -0.041,0.166 -0.041,0.166 l 0.099,0.015 0.014,-0.119 0.06,-0.07 0.081,0.068 -0.033,0.069 -0.107,0.062 0.055,0.081 c 0,0 0.038,-0.134 0.139,-0.105 0.101,0.03 -0.024,0.161 -0.024,0.161 0,0 0.023,-0.083 -0.034,-0.094 -0.058,-0.013 -0.081,0.038 -0.081,0.038 l -0.104,-0.008 v 0.137 l -0.27,0.254"/><path id="path45" style="fill:#fcdb00;fill-opacity:1;fill-rule:nonzero;stroke:none" d="m 20.4326,16.6201 c 0.268,-0.2 0.577,-0.25 0.773,-0.26 -0.062,-0.15 -0.144,-0.29 -0.248,-0.44 -1.041,-1.54 -2.05,-0.94 -2.05,-0.94 0,0 0.061,-0.25 0.041,-0.28 -0.073,-0.12 -0.268,-0.13 -0.268,-0.13 0,0 0,-0.17 -0.031,-0.29 -0.031,-0.12 -0.134,-0.221 -0.134,-0.221 0,0 -0.134,0.101 -0.186,0.351 -0.051,0.25 -0.051,0.439 -0.051,0.439 0,0 -0.021,-0.009 -0.052,-0.009 -0.031,-0.01 -0.062,-0.01 -0.062,-0.01 l -0.01,0.67 -0.155,0.58 1.454,1.07 c 0,0 0.412,-0.11 0.515,-0.27 0.104,-0.15 0.186,-0.05 0.464,-0.26"/><path id="path46" style="fill:#de4046;fill-opacity:1;fill-rule:nonzero;stroke:none" d="m 21.4219,17.9399 c 0,-0.81 -0.051,-1.23 -0.216,-1.58 -0.196,0.01 -0.506,0.06 -0.773,0.26 -0.279,0.21 -0.361,0.111 -0.464,0.26 -0.104,0.16 -0.516,0.27 -0.516,0.27 l 0.485,2.2 c 0,0 0.278,-0.21 0.515,-0.31 0.227,-0.1 0.176,-0.14 0.598,-0.39 0.144,-0.08 0.258,-0.16 0.341,-0.24 0.02,-0.16 0.03,-0.31 0.03,-0.47"/><path id="path47" style="fill:#009a50;fill-opacity:1;fill-rule:nonzero;stroke:none" d="m 19.9375,19.3501 -0.906,0.69 1.422,2.14 c 0,0 0.165,-0.09 0.278,-0.41 0.072,-0.19 0.196,-0.38 0.196,-0.38 l 0.134,0.14 c 0,0 0.278,-0.68 0.258,-1.98 -0.011,-0.4 0.041,-0.78 0.072,-1.14 -0.083,0.08 -0.196,0.16 -0.341,0.24 -0.422,0.25 -0.371,0.29 -0.597,0.39 -0.238,0.1 -0.516,0.31 -0.516,0.31"/><path id="path48" style="fill:#fcdb00;fill-opacity:1;fill-rule:nonzero;stroke:none" d="m 15.5674,16.6201 c -0.268,-0.2 -0.577,-0.25 -0.773,-0.26 0.062,-0.15 0.144,-0.29 0.247,-0.44 1.042,-1.54 2.051,-0.941 2.051,-0.941 0,0 -0.061,-0.25 -0.041,-0.279 0.073,-0.12 0.268,-0.13 0.268,-0.13 0,0 0,-0.17 0.031,-0.29 0.031,-0.12 0.134,-0.221 0.134,-0.221 0,0 0.134,0.101 0.186,0.351 0.051,0.25 0.051,0.439 0.051,0.439 0,0 0.021,-0.009 0.052,-0.009 0.031,-0.01 0.062,-0.01 0.062,-0.01 l 0.01,0.67 0.155,0.58 -1.454,1.07 c 0,0 -0.412,-0.11 -0.515,-0.27 -0.103,-0.15 -0.186,-0.05 -0.464,-0.26"/><path id="path49" style="fill:#de4046;fill-opacity:1;fill-rule:nonzero;stroke:none" d="m 14.5776,17.9399 c 0,-0.81 0.052,-1.23 0.217,-1.58 0.196,0.01 0.505,0.06 0.773,0.26 0.278,0.21 0.361,0.111 0.464,0.26 0.103,0.16 0.515,0.27 0.515,0.27 l -0.485,2.2 c 0,0 -0.278,-0.21 -0.515,-0.31 -0.227,-0.1 -0.175,-0.14 -0.598,-0.39 -0.144,-0.08 -0.257,-0.16 -0.34,-0.24 -0.02,-0.16 -0.031,-0.31 -0.031,-0.47"/><path id="path50" style="fill:#009a50;fill-opacity:1;fill-rule:nonzero;stroke:none" d="m 16.062,19.3501 0.907,0.69 -1.422,2.14 c 0,0 -0.165,-0.09 -0.278,-0.41 -0.073,-0.19 -0.196,-0.38 -0.196,-0.38 l -0.135,0.14 c 0,0 -0.278,-0.68 -0.257,-1.98 0.01,-0.4 -0.041,-0.78 -0.072,-1.14 0.082,0.08 0.196,0.16 0.34,0.24 0.423,0.25 0.371,0.29 0.598,0.39 0.237,0.1 0.515,0.31 0.515,0.31"/><path id="path51" style="fill:#7c9ccd;fill-opacity:1;fill-rule:nonzero;stroke:none" d="m 20.2285,18.436 c 0,1.498 -0.998,2.711 -2.229,2.711 -1.23,0 -2.228,-1.213 -2.228,-2.711 0,-1.497 0.998,-2.71 2.228,-2.71 1.231,0 2.229,1.213 2.229,2.71"/><path id="path52" style="fill:#ffffff;fill-opacity:1;fill-rule:nonzero;stroke:none" d="m 19.7461,18.436 c 0,1.241 -0.781,2.246 -1.746,2.246 -0.964,0 -1.746,-1.005 -1.746,-2.246 0,-1.241 0.782,-2.246 1.746,-2.246 0.965,0 1.746,1.005 1.746,2.246"/><path id="path53" style="fill:#495f5f;fill-opacity:1;fill-rule:nonzero;stroke:none" d="m 17.1934,18.4941 0.807,1.324 0.806,-1.324 -0.806,-1.323 z"/></g></g></g></g></svg>