<svg xmlns:dc="http://purl.org/dc/elements/1.1/" xmlns:cc="http://creativecommons.org/ns#" xmlns:rdf="http://www.w3.org/1999/02/22-rdf-syntax-ns#" xmlns:svg="http://www.w3.org/2000/svg" xmlns="http://www.w3.org/2000/svg" viewBox="0 0 45 45" style="enable-background:new 0 0 45 45;" xml:space="preserve" version="1.1" id="svg2"><metadata id="metadata8"><rdf:RDF><cc:Work rdf:about=""><dc:format>image/svg+xml</dc:format><dc:type rdf:resource="http://purl.org/dc/dcmitype/StillImage"/></cc:Work></rdf:RDF></metadata><defs id="defs6"><clipPath id="clipPath16" clipPathUnits="userSpaceOnUse"><path id="path18" d="M 0,36 36,36 36,0 0,0 0,36 Z"/></clipPath></defs><g transform="matrix(1.25,0,0,-1.25,0,45)" id="g10"><g id="g12"><g clip-path="url(#clipPath16)" id="g14"><g id="g20"><path id="path22" style="fill:#eeeeee;fill-opacity:1;fill-rule:nonzero;stroke:none" d="M 36,9 C 36,6.791 34.209,5 32,5 H 4 C 1.791,5 0,6.791 0,9 v 18 c 0,2.209 1.791,4 4,4 h 28 c 2.209,0 4,-1.791 4,-4 z"/></g><g id="g24"><path id="path26" style="fill:#e94545;fill-opacity:1;fill-rule:nonzero;stroke:none" d="m 27.707,25.1904 c 0,0 -0.032,-0.114 -0.065,-0.3 -0.045,-0.252 -0.139,-0.333 -0.139,-0.333 0,0 0.107,-0.094 0.229,-0.251 0.178,-0.228 0.327,-0.493 0.377,-0.532 0.122,-0.092 0.239,-0.059 0.239,-0.059 0,0 0.004,-0.099 -0.08,-0.149 -0.107,-0.064 -0.198,-0.01 -0.198,-0.01 0,0 -0.003,-0.039 0.041,-0.106 0.04,-0.063 0.122,-0.144 0.143,-0.198 0.044,-0.113 -0.026,-0.243 0.05,-0.333 0.075,-0.09 0.203,-0.052 0.203,-0.052 0,0 -0.001,-0.099 -0.112,-0.166 -0.152,-0.093 -0.268,0.004 -0.268,0.004 0,0 -0.002,-0.044 0.028,-0.096 0.03,-0.049 0.091,-0.105 0.128,-0.193 0.074,-0.178 -0.03,-0.266 0.012,-0.434 0.042,-0.17 0.2,-0.142 0.2,-0.142 0,0 -0.001,-0.071 -0.125,-0.129 -0.123,-0.059 -0.229,-0.003 -0.229,-0.003 0,0 -0.025,-0.048 0.07,-0.234 0.053,-0.103 0.046,-0.321 -0.025,-0.448 -0.081,-0.145 -0.179,-0.223 -0.192,-0.354 -0.031,-0.318 0.315,-0.429 0.315,-0.429 0,0 -0.08,-0.171 -0.267,-0.158 -0.249,0.017 -0.289,0.215 -0.289,0.215 0,0 -0.036,-0.084 0.014,-0.217 0.066,-0.182 -0.023,-0.418 -0.135,-0.574 -0.194,-0.267 -0.234,-0.393 -0.234,-0.393 0,0 0.046,-0.216 0.18,-0.443 0.134,-0.228 0.385,-0.548 0.534,-0.87 0.124,-0.269 0.188,-0.552 0.252,-0.795 0.051,-0.187 0.089,-0.314 0.089,-0.314 0,0 0.221,-0.406 0.647,-0.449 0.457,-0.045 0.6,0.322 0.632,0.645 0.022,0.216 -0.137,0.771 -0.338,1.2 -0.183,0.39 -0.378,0.776 -0.314,1.425 0.072,0.726 0.584,1.183 1.141,1.613 0.616,0.477 1.046,0.615 1.344,1.112 0.177,0.294 0.223,0.592 0.211,0.809 -0.023,0.451 -0.361,0.687 -0.703,0.722 -0.363,0.036 -0.629,-0.146 -0.697,-0.338 -0.101,-0.284 -0.003,-0.567 0.325,-0.599 0.381,-0.038 0.456,0.245 0.456,0.245 0,0 0.118,-0.23 -0.097,-0.452 -0.269,-0.275 -0.681,-0.075 -0.681,-0.075 0,0 0.077,-0.478 -0.292,-0.851 -0.389,-0.391 -0.948,-0.296 -0.948,-0.296 0,0 0.408,0.168 0.546,0.572 0.212,0.629 -0.046,0.833 0.01,1.334 0.055,0.493 0.259,0.618 0.263,0.654 0.002,0.018 -0.03,0.049 -0.066,0.065 -0.122,0.054 -0.223,0.245 -0.18,0.417 0.078,0.32 0.241,0.216 0.427,0.452 0.119,0.151 0.12,0.332 0.12,0.332 0,0 0.228,-0.146 0.207,-0.366 -0.03,-0.299 -0.352,-0.234 -0.375,-0.469 -0.018,-0.177 0.135,-0.19 0.214,-0.166 0.084,0.025 0.325,0.177 0.855,0.125 0.818,-0.082 1.318,-0.705 1.239,-1.496 -0.026,-0.27 -0.116,-0.796 -0.505,-1.217 -0.541,-0.586 -1.302,-0.86 -1.832,-1.51 -0.329,-0.404 -0.277,-0.713 -0.277,-0.713 0,0 0.301,0.715 1.465,1.148 1.208,0.449 1.121,1.21 1.121,1.21 0,0 0.3,-0.397 -0.006,-1.062 -0.315,-0.69 -1.262,-0.588 -1.938,-1.371 -0.413,-0.477 -0.348,-0.892 -0.348,-0.892 0,0 0.292,0.558 1.139,0.821 0.719,0.224 0.767,0.667 0.767,0.667 0,0 0.267,-0.367 -0.043,-0.805 -0.263,-0.375 -1.021,-0.468 -1.327,-0.903 -0.289,-0.412 -0.211,-0.701 -0.211,-0.701 0,0 0.311,0.428 0.741,0.385 0.326,-0.032 0.544,-0.34 0.512,-0.66 -0.052,-0.529 -0.577,-0.654 -0.614,-1.035 -0.019,-0.182 0.107,-0.252 0.107,-0.252 0,0 -0.376,-0.023 -0.388,0.305 -0.004,0.126 0.103,0.342 0.245,0.532 0.216,0.289 0.138,0.482 0.018,0.533 -0.125,0.054 -0.273,-0.039 -0.38,-0.206 -0.116,-0.182 -0.167,-0.459 -0.3,-0.668 -0.285,-0.449 -0.567,-0.574 -0.567,-0.574 0,0 0.134,-0.094 0.122,-0.258 -0.007,-0.11 -0.057,-0.186 -0.057,-0.186 0,0 -0.135,0.206 -0.323,0.251 -0.207,0.05 -0.32,-0.052 -0.514,-0.021 -0.195,0.033 -0.474,0.19 -0.512,0.204 -0.038,0.014 -0.086,0.02 -0.086,0.02 0,0 -0.042,-0.04 -0.094,-0.108 -0.038,-0.05 -0.087,-0.116 -0.094,-0.189 -0.014,-0.132 0.093,-0.196 0.212,-0.31 0.172,-0.165 0.333,-0.323 0.525,-0.342 0.214,-0.022 0.358,0.084 0.498,0.07 0.14,-0.014 0.28,-0.063 0.28,-0.063 0,0 -0.381,-0.254 -0.392,-0.376 -0.018,-0.174 0.312,-0.25 0.398,-0.293 0.064,-0.034 0.186,-0.166 0.185,-0.211 -0.005,-0.118 -0.102,-0.22 -0.113,-0.392 -0.007,-0.122 0.09,-0.197 0.267,-0.215 0.214,-0.021 0.35,0.017 0.35,0.017 0,0 -0.044,-0.145 -0.293,-0.281 -0.249,-0.136 -0.575,-0.131 -0.575,-0.131 0,0 0.022,-0.142 0.155,-0.226 0.108,-0.068 0.322,-0.069 0.322,-0.069 0,0 -0.13,-0.162 -0.334,-0.252 -0.251,-0.111 -0.495,-0.098 -0.495,-0.098 0,0 0.041,-0.122 0.16,-0.206 0.095,-0.067 0.273,-0.103 0.273,-0.103 0,0 -0.071,-0.174 -0.414,-0.243 -0.395,-0.078 -0.429,-0.137 -0.52,-0.381 -0.083,-0.224 -0.361,-0.316 -0.361,-0.316 0,0 0.088,-0.111 0.009,-0.296 -0.053,-0.124 -0.199,-0.152 -0.199,-0.152 0,0 -0.077,-0.046 -0.133,-0.205 -0.054,-0.159 0.028,-0.319 0.028,-0.319 0,0 -0.22,0.019 -0.31,0.255 -0.096,0.248 0.063,0.415 0.063,0.415 0,0 0.006,0.056 0.03,0.104 0.034,0.073 0.04,0.146 -0.015,0.152 -0.07,0.007 -0.051,-0.116 -0.248,-0.224 -0.178,-0.098 -0.243,-0.036 -0.243,-0.036 0,0 -0.075,-0.029 -0.138,-0.159 -0.07,-0.147 -0.062,-0.274 -0.062,-0.274 0,0 -0.197,0.089 -0.213,0.328 -0.024,0.383 0.25,0.483 0.25,0.483 0,0 0.032,0.058 0.14,0.098 0.085,0.031 0.193,0.069 0.173,0.105 -0.037,0.064 -0.21,-0.04 -0.352,-0.026 -0.108,0.011 -0.156,0.149 -0.156,0.149 0,0 -0.108,0.077 -0.24,0 -0.111,-0.066 -0.209,-0.195 -0.209,-0.195 0,0 -0.079,0.3 0.163,0.503 0.188,0.158 0.409,0.04 0.409,0.04 0,0 0.072,0.041 0.157,0.038 0.072,-0.003 0.143,-0.048 0.178,-0.051 0.04,-0.004 0.235,0.116 0.225,0.142 -0.009,0.027 -0.121,0.007 -0.219,0.05 -0.074,0.032 -0.044,0.124 -0.044,0.124 0,0 -0.094,0.08 -0.224,0.075 -0.129,-0.005 -0.232,-0.098 -0.232,-0.098 0,0 0.041,0.264 0.283,0.374 0.231,0.104 0.475,-0.077 0.475,-0.077 0,0 0.035,0.016 0.066,0.013 0.045,-0.004 0.104,-0.134 0.153,-0.139 0.088,-0.008 0.226,0.212 0.255,0.507 0.029,0.296 -0.082,0.542 -0.082,0.542 0,0 -0.128,0.077 -0.279,0.195 -0.269,0.209 -0.56,0.469 -0.693,0.557 -0.043,0.029 -0.192,0.112 -0.315,0.187 -0.114,0.07 -0.204,0.135 -0.204,0.135 0,0 0.109,-0.346 -0.036,-0.604 -0.241,-0.427 -0.612,-0.419 -0.612,-0.419 0,0 0.108,0.159 0.105,0.459 -0.002,0.26 -0.048,0.534 -0.187,0.772 -0.171,0.293 -0.031,0.526 -0.031,0.526 0,0 -0.172,-0.038 -0.379,-0.073 -0.184,-0.031 -0.346,-0.032 -0.558,-0.148 -0.29,-0.16 -0.476,-0.47 -0.51,-0.815 -0.049,-0.489 0.16,-0.635 0.139,-0.841 -0.015,-0.161 -0.132,-0.202 -0.153,-0.2 -0.021,0.002 -0.051,0.016 -0.07,0.018 -0.02,0.002 -0.089,-0.022 -0.056,-0.202 0.033,-0.181 0.093,-0.249 0.093,-0.249 0,0 -0.169,-0.02 -0.419,0.091 -0.201,0.089 -0.318,0.289 -0.318,0.289 0,0 -0.068,-0.045 -0.027,-0.286 0.027,-0.164 0.091,-0.292 0.091,-0.292 0,0 -0.147,0.036 -0.357,0.173 -0.264,0.172 -0.279,0.365 -0.279,0.365 0,0 -0.061,-0.082 -0.096,-0.228 -0.037,-0.145 -0.045,-0.344 -0.045,-0.344 0,0 -0.163,0.029 -0.385,0.384 -0.065,0.104 -0.152,0.187 -0.218,0.205 -0.064,0.018 -0.203,0.012 -0.218,-0.003 -0.026,-0.03 -0.02,-0.325 -0.082,-0.432 -0.062,-0.108 -0.145,-0.078 -0.145,-0.078 0,0 -0.092,-0.215 -0.277,-0.241 -0.233,-0.034 -0.436,0.163 -0.436,0.163 0,0 0.154,-0.012 0.253,0.054 0.072,0.049 0.09,0.166 0.09,0.166 0,0 -0.087,0.083 -0.082,0.132 0.008,0.08 0.174,0.097 0.134,0.225 -0.027,0.086 -0.11,0.054 -0.349,0.016 -0.239,-0.037 -0.445,-0.04 -0.522,-0.006 -0.077,0.033 -0.114,0.129 -0.114,0.129 0,0 -0.09,0.05 -0.226,0.018 -0.138,-0.033 -0.22,-0.14 -0.22,-0.14 0,0 -0.064,0.227 0.107,0.403 0.139,0.142 0.338,0.088 0.338,0.088 0,0 -0.008,0.115 0.148,0.049 0.124,-0.051 0.23,-0.136 0.261,-0.007 0.021,0.087 -0.145,0.061 -0.307,0.151 -0.156,0.088 -0.148,0.172 -0.148,0.172 0,0 -0.133,0.148 -0.282,0.164 -0.149,0.015 -0.252,-0.046 -0.252,-0.046 0,0 -0.004,0.279 0.313,0.346 0.252,0.053 0.438,-0.122 0.438,-0.122 0,0 0.069,0.051 0.232,-0.12 0.103,-0.109 0.16,-0.186 0.215,-0.091 0.058,0.095 -0.135,0.158 -0.201,0.285 -0.056,0.107 0,0.178 0,0.178 0,0 -0.026,0.129 -0.127,0.203 -0.093,0.069 -0.256,0.093 -0.256,0.093 0,0 0.192,0.19 0.436,0.114 0.302,-0.094 0.36,-0.381 0.36,-0.381 0,0 0.113,-0.075 0.225,-0.199 0.118,-0.133 0.156,-0.21 0.329,-0.228 0.244,-0.024 0.335,0.093 0.541,0.134 0.098,0.02 0.582,0.011 0.598,0.18 0.003,0.029 -0.039,0.133 -0.209,0.535 -0.176,0.412 -0.079,0.606 -0.079,0.606 0,0 -0.243,-0.047 -0.456,0.095 -0.15,0.1 -0.224,0.244 -0.224,0.244 0,0 0.346,-0.019 0.61,0.146 0.208,0.13 0.201,0.386 0.286,0.57 0.105,0.227 0.26,0.41 0.506,0.538 0.404,0.21 0.929,0.066 1.43,-0.04 0.669,-0.143 0.935,-0.151 0.935,-0.151 0,0 -0.047,0.079 -0.155,0.196 -0.144,0.155 -0.347,0.282 -0.347,0.282 0,0 0.11,-0.011 0.321,-0.128 0.342,-0.19 0.469,-0.322 0.469,-0.322 0,0 -0.135,0.334 -0.494,0.667 -0.634,0.588 -0.695,0.971 -0.863,1.102 -0.141,0.109 -0.268,0.095 -0.268,0.095 0,0 -0.082,-0.035 -0.163,-0.139 -0.105,-0.136 -0.085,-0.302 -0.085,-0.302 0,0 -0.016,0.001 -0.042,0.012 -0.025,0.011 -0.037,0.022 -0.037,0.022 0,0 -0.059,-0.073 -0.203,-0.137 -0.157,-0.071 -0.343,-0.09 -0.362,-0.28 -0.021,-0.21 0.231,-0.42 0.231,-0.42 0,0 -0.151,-0.029 -0.413,0.072 -0.324,0.127 -0.456,0.307 -0.456,0.307 0,0 -0.086,-0.116 -0.134,-0.283 -0.057,-0.199 -0.006,-0.327 -0.006,-0.327 0,0 -0.106,-0.011 -0.333,0.154 -0.207,0.151 -0.346,0.331 -0.346,0.331 0,0 0.062,-0.144 -0.074,-0.377 -0.123,-0.209 -0.274,-0.318 -0.274,-0.318 0,0 -0.075,0.219 -0.14,0.332 -0.071,0.123 -0.203,0.233 -0.384,0.251 -0.204,0.021 -0.407,-0.04 -0.455,-0.072 -0.064,-0.043 -0.303,-0.443 -0.381,-0.512 -0.045,-0.04 -0.12,-0.051 -0.12,-0.051 0,0 -0.059,-0.111 -0.049,-0.256 0.009,-0.144 0.059,-0.243 0.059,-0.243 0,0 -0.261,0.049 -0.381,0.227 -0.141,0.211 -0.027,0.406 -0.027,0.406 0,0 -0.048,0.05 -0.042,0.106 0.006,0.057 0.157,0.176 0.218,0.237 0.055,0.056 -0.006,0.119 -0.049,0.123 -0.049,0.005 -0.141,-0.1 -0.308,-0.148 -0.119,-0.034 -0.209,0.031 -0.209,0.031 0,0 -0.1,-0.051 -0.166,-0.165 -0.067,-0.113 -0.107,-0.265 -0.107,-0.265 0,0 -0.224,0.19 -0.121,0.524 0.058,0.186 0.262,0.278 0.262,0.278 0,0 0.025,0.117 0.074,0.156 0.112,0.089 0.43,-0.018 0.441,0.103 0.004,0.041 -0.034,0.081 -0.069,0.093 -0.047,0.017 -0.307,-0.013 -0.37,0.027 -0.036,0.023 -0.068,0.115 -0.068,0.115 0,0 -0.127,0.034 -0.286,-0.019 -0.158,-0.053 -0.253,-0.156 -0.253,-0.156 0,0 0.028,0.294 0.251,0.448 0.193,0.134 0.432,0.099 0.432,0.099 0,0 0.088,0.072 0.183,0.063 0.126,-0.014 0.246,-0.111 0.326,-0.12 0.093,-0.009 0.325,0.053 0.333,0.136 0.011,0.111 -0.221,0.222 -0.212,0.32 0.006,0.05 0.051,0.093 0.051,0.093 0,0 -0.055,0.076 -0.18,0.108 -0.124,0.032 -0.228,-0.011 -0.228,-0.011 0,0 0.1,0.188 0.331,0.234 0.23,0.046 0.427,-0.197 0.427,-0.197 0,0 0.116,0.005 0.168,-0.033 0.136,-0.095 0.202,-0.318 0.287,-0.326 0.077,-0.008 0.463,0.087 0.581,0.17 0.118,0.082 0.02,0.025 0.315,0.212 0.296,0.187 0.382,0.241 0.565,0.329 0.183,0.087 0.267,0.157 0.267,0.157 0,0 -0.011,0.016 -0.023,0.042 -0.013,0.026 -0.02,0.045 -0.02,0.045 0,0 0.025,-0.008 0.073,-0.017 0.048,-0.009 0.073,-0.009 0.073,-0.009 0,0 0.038,0.038 0.093,0.079 0.056,0.041 0.09,0.06 0.09,0.06 0,0 -0.219,0.047 -0.436,0.328 -0.217,0.28 -0.194,0.598 -0.194,0.598 0,0 -0.056,-0.114 -0.208,-0.317 -0.151,-0.203 -0.22,-0.367 -0.22,-0.367 0,0 -0.084,0.462 0.078,0.752 0.17,0.303 0.065,0.518 0.065,0.518 0,0 -0.016,-0.077 -0.169,-0.216 -0.128,-0.115 -0.244,-0.21 -0.244,-0.21 0,0 0.013,0.17 0.14,0.584 0.109,0.353 -0.009,0.545 -0.009,0.545 0,0 -0.019,-0.11 -0.092,-0.217 -0.073,-0.106 -0.178,-0.175 -0.178,-0.175 0,0 0.035,0.118 10e-4,0.346 -0.044,0.289 -0.004,0.351 -0.055,0.488 -0.034,0.088 -0.121,0.138 -0.181,0.144 -0.067,0.006 -0.29,-0.215 -0.457,-0.198 -0.043,0.004 -0.071,0.013 -0.071,0.013 0,0 -0.337,-0.106 -0.533,0.121 -0.182,0.213 -0.183,0.381 -0.183,0.381 0,0 0.102,-0.071 0.238,-0.11 0.136,-0.039 0.286,0.006 0.286,0.006 0,0 0.003,0.095 0.078,0.162 0.076,0.068 0.261,0.053 0.276,0.201 0.011,0.124 -0.09,0.34 -0.166,0.45 -0.085,0.124 -0.167,0.233 -0.3,0.256 -0.134,0.023 -0.248,0.055 -0.324,0.142 -0.077,0.088 -0.056,0.227 -0.056,0.227 0,0 -0.073,0.158 -0.191,0.17 -0.119,0.012 -0.304,-0.094 -0.304,-0.094 0,0 0.134,0.472 0.476,0.438 0.196,-0.02 0.375,-0.178 0.375,-0.178 0,0 0.123,-0.018 0.229,-0.119 0.108,-0.102 0.129,-0.131 0.14,-0.132 0.012,-10e-4 0.075,0.024 0.078,0.051 0.009,0.091 -0.25,0.229 -0.237,0.369 0.007,0.066 0.106,0.152 0.106,0.152 0,0 0,0.142 -0.118,0.195 -0.119,0.052 -0.344,0.038 -0.344,0.038 0,0 0.18,0.266 0.483,0.236 0.381,-0.037 0.416,-0.337 0.416,-0.337 0,0 0.16,0.01 0.161,-0.242 0,-0.192 0.028,-0.25 0.097,-0.257 0.072,-0.007 0.101,0.076 0.17,0.207 0.07,0.13 0.177,0.104 0.177,0.104 0,0 0.034,0.103 -0.013,0.2 -0.048,0.097 -0.177,0.143 -0.177,0.143 0,0 0.366,0.158 0.552,-0.175 0.164,-0.291 -0.013,-0.532 -0.013,-0.532 0,0 0.017,-0.128 -0.055,-0.248 -0.076,-0.128 -0.154,-0.161 -0.164,-0.262 -0.021,-0.204 0.244,-0.504 0.387,-0.72 0.139,-0.209 0.295,-0.445 0.628,-0.747 0.334,-0.302 0.976,-0.754 0.976,-0.754 0,0 0.051,0.214 0.187,0.381 0.136,0.167 0.279,0.22 0.279,0.22 0,0 -0.086,-0.355 0.094,-0.636 0.277,-0.431 0.853,-0.38 1.182,-0.274 0.246,0.08 0.236,0.218 0.236,0.218 0,0 -0.083,0.034 -0.289,0.044 -0.205,0.011 -0.285,0.011 -0.285,0.011 0,0 -0.037,-0.012 -0.069,-0.084 -0.036,-0.078 -0.054,-0.147 -0.054,-0.147 0,0 -0.032,0.003 -0.07,0.126 -0.058,0.189 -0.193,0.155 -0.23,0.218 -0.025,0.043 -0.003,0.082 0.015,0.16 0.024,0.1 0.053,0.142 0.053,0.142 0,0 -0.023,0.052 -0.029,0.11 -0.005,0.058 0.006,0.123 0.006,0.123 0,0 0.019,-0.035 0.066,-0.093 0.048,-0.057 0.105,-0.102 0.105,-0.102 0.135,-0.025 0.201,-0.095 0.449,-0.042 0.297,0.063 0.409,0.215 0.409,0.215 0,0 -0.106,0.081 -0.322,0.103 -0.215,0.021 -0.359,-0.064 -0.752,-0.025 -0.174,0.017 -0.415,0.094 -0.502,0.222 -0.12,0.177 -0.04,0.377 -0.04,0.377 0,0 0.078,-0.473 0.835,-0.271 0.56,0.148 0.985,-0.071 0.985,-0.071 0,0 0.063,0.183 0.028,0.4 -0.036,0.218 -0.178,0.289 -0.284,0.303 -0.132,0.017 -0.296,-0.063 -0.507,-0.08 -0.205,-0.015 -0.381,0.021 -0.381,0.021 0,0 -0.051,-0.082 -0.094,-0.177 -0.042,-0.096 -0.061,-0.169 -0.061,-0.169 0,0 -0.089,0.054 -0.112,0.199 -0.017,0.11 0.011,0.215 0.011,0.215 0,0 -0.078,0.004 -0.14,0.13 -0.032,0.065 -0.046,0.196 -0.019,0.302 0.028,0.109 0.039,0.193 0.039,0.193 0,0 -0.017,-0.016 -0.043,-0.014 -0.025,0.003 -0.073,0.07 -0.07,0.103 0.003,0.033 0.155,0.133 0.298,0.134 0.173,0 0.357,-0.053 0.357,-0.053 0,0 -0.077,0.147 -0.073,0.185 0.002,0.019 0.018,0.063 0.112,0.101 0.176,0.071 0.493,0.188 0.796,0.158 0.383,-0.038 0.901,-0.213 0.901,-0.213 0,0 0.053,0.219 0.332,0.27 0.283,0.052 0.359,0.092 0.359,0.092"/></g><g id="g28"><path id="path30" style="fill:#1353b4;fill-opacity:1;fill-rule:nonzero;stroke:none" d="m 14.5635,5 h -1.75 c 0,1.015 0.269,1.566 0.485,2.009 0.179,0.366 0.308,0.631 0.308,1.241 0,0.61 -0.129,0.875 -0.308,1.241 -0.216,0.443 -0.485,0.994 -0.485,2.009 0,1.015 0.269,1.566 0.485,2.009 0.179,0.366 0.308,0.631 0.308,1.241 0,0.61 -0.129,0.875 -0.308,1.241 -0.216,0.443 -0.485,0.994 -0.485,2.009 0,1.015 0.269,1.566 0.485,2.009 0.179,0.366 0.308,0.631 0.308,1.241 0,0.61 -0.129,0.875 -0.308,1.241 -0.216,0.443 -0.485,0.994 -0.485,2.009 0,1.015 0.269,1.566 0.485,2.009 0.179,0.366 0.308,0.631 0.308,1.241 0,0.61 -0.129,0.875 -0.308,1.241 -0.216,0.443 -0.485,0.994 -0.485,2.009 h 1.75 c 0,-0.61 0.129,-0.875 0.308,-1.241 0.216,-0.443 0.485,-0.994 0.485,-2.009 0,-1.015 -0.269,-1.566 -0.485,-2.009 -0.179,-0.366 -0.308,-0.631 -0.308,-1.241 0,-0.61 0.129,-0.875 0.308,-1.241 0.216,-0.443 0.485,-0.994 0.485,-2.009 0,-1.015 -0.269,-1.566 -0.485,-2.009 -0.179,-0.366 -0.308,-0.631 -0.308,-1.241 0,-0.61 0.129,-0.875 0.308,-1.241 0.216,-0.443 0.485,-0.994 0.485,-2.009 0,-1.015 -0.269,-1.566 -0.485,-2.009 -0.179,-0.366 -0.308,-0.631 -0.308,-1.241 0,-0.61 0.129,-0.875 0.308,-1.241 0.216,-0.443 0.485,-0.994 0.485,-2.009 0,-1.015 -0.269,-1.566 -0.485,-2.009 C 14.6925,5.875 14.5635,5.61 14.5635,5"/></g><g id="g32"><path id="path34" style="fill:#1353b4;fill-opacity:1;fill-rule:nonzero;stroke:none" d="m 10.8882,5 h -1.75 c 0,1.015 0.269,1.566 0.485,2.009 0.179,0.366 0.308,0.631 0.308,1.241 0,0.61 -0.129,0.875 -0.308,1.241 -0.216,0.443 -0.485,0.994 -0.485,2.009 0,1.015 0.269,1.566 0.485,2.009 0.179,0.366 0.308,0.631 0.308,1.241 0,0.61 -0.129,0.875 -0.308,1.241 -0.216,0.443 -0.485,0.994 -0.485,2.009 0,1.015 0.269,1.566 0.485,2.009 0.179,0.366 0.308,0.631 0.308,1.241 0,0.61 -0.129,0.875 -0.308,1.241 -0.216,0.443 -0.485,0.994 -0.485,2.009 0,1.015 0.269,1.566 0.485,2.009 0.179,0.366 0.308,0.631 0.308,1.241 0,0.61 -0.129,0.875 -0.308,1.241 -0.216,0.443 -0.485,0.994 -0.485,2.009 h 1.75 c 0,-0.61 0.129,-0.875 0.308,-1.241 0.216,-0.443 0.485,-0.994 0.485,-2.009 0,-1.015 -0.269,-1.566 -0.485,-2.009 -0.179,-0.366 -0.308,-0.631 -0.308,-1.241 0,-0.61 0.129,-0.875 0.308,-1.241 0.216,-0.443 0.485,-0.994 0.485,-2.009 0,-1.015 -0.269,-1.566 -0.485,-2.009 -0.179,-0.366 -0.308,-0.631 -0.308,-1.241 0,-0.61 0.129,-0.875 0.308,-1.241 0.216,-0.443 0.485,-0.994 0.485,-2.009 0,-1.015 -0.269,-1.566 -0.485,-2.009 -0.179,-0.366 -0.308,-0.631 -0.308,-1.241 0,-0.61 0.129,-0.875 0.308,-1.241 0.216,-0.443 0.485,-0.994 0.485,-2.009 0,-1.015 -0.269,-1.566 -0.485,-2.009 C 11.0172,5.875 10.8882,5.61 10.8882,5"/></g><g id="g36"><path id="path38" style="fill:#1353b4;fill-opacity:1;fill-rule:nonzero;stroke:none" d="m 7.2134,5 h -1.75 c 0,1.015 0.269,1.566 0.485,2.009 0.179,0.366 0.308,0.631 0.308,1.241 0,0.61 -0.129,0.875 -0.308,1.241 -0.216,0.443 -0.485,0.994 -0.485,2.009 0,1.015 0.269,1.566 0.485,2.009 0.179,0.366 0.308,0.631 0.308,1.241 0,0.61 -0.129,0.875 -0.308,1.241 -0.216,0.443 -0.485,0.994 -0.485,2.009 0,1.015 0.269,1.566 0.485,2.009 0.179,0.366 0.308,0.631 0.308,1.241 0,0.61 -0.129,0.875 -0.308,1.241 -0.216,0.443 -0.485,0.994 -0.485,2.009 0,1.015 0.269,1.566 0.485,2.009 0.179,0.366 0.308,0.631 0.308,1.241 0,0.61 -0.129,0.875 -0.308,1.241 -0.216,0.443 -0.485,0.994 -0.485,2.009 h 1.75 c 0,-0.61 0.129,-0.875 0.308,-1.241 0.216,-0.443 0.485,-0.994 0.485,-2.009 0,-1.015 -0.269,-1.566 -0.485,-2.009 -0.179,-0.366 -0.308,-0.631 -0.308,-1.241 0,-0.61 0.129,-0.875 0.308,-1.241 0.216,-0.443 0.485,-0.994 0.485,-2.009 0,-1.015 -0.269,-1.566 -0.485,-2.009 C 7.3424,18.875 7.2134,18.61 7.2134,18 c 0,-0.61 0.129,-0.875 0.308,-1.241 0.216,-0.443 0.485,-0.994 0.485,-2.009 0,-1.015 -0.269,-1.566 -0.485,-2.009 -0.179,-0.366 -0.308,-0.631 -0.308,-1.241 0,-0.61 0.129,-0.875 0.308,-1.241 0.216,-0.443 0.485,-0.994 0.485,-2.009 0,-1.015 -0.269,-1.566 -0.485,-2.009 C 7.3424,5.875 7.2134,5.61 7.2134,5"/></g></g></g></g></svg>