<svg xmlns:dc="http://purl.org/dc/elements/1.1/" xmlns:cc="http://creativecommons.org/ns#" xmlns:rdf="http://www.w3.org/1999/02/22-rdf-syntax-ns#" xmlns:svg="http://www.w3.org/2000/svg" xmlns="http://www.w3.org/2000/svg" viewBox="0 0 45 45" style="enable-background:new 0 0 45 45;" xml:space="preserve" version="1.1" id="svg2"><metadata id="metadata8"><rdf:RDF><cc:Work rdf:about=""><dc:format>image/svg+xml</dc:format><dc:type rdf:resource="http://purl.org/dc/dcmitype/StillImage"/></cc:Work></rdf:RDF></metadata><defs id="defs6"><clipPath id="clipPath16" clipPathUnits="userSpaceOnUse"><path id="path18" d="M 0,36 36,36 36,0 0,0 0,36 Z"/></clipPath></defs><g transform="matrix(1.25,0,0,-1.25,0,45)" id="g10"><g id="g12"><g xmlns="http://www.w3.org/2000/svg" clip-path="url(#clipPath16)" id="g14"><g id="g30"><path id="path20" style="fill:#a80534;fill-opacity:1;fill-rule:nonzero;stroke:none" d="M 32,31 31.977,31 4.022,31 4,31 C 1.791,31 0,29.209 0,27 L 0,26.604 0,9.397 0,9 C 0,6.791 1.791,5 4,5 L 4.022,5 31.977,5 32,5 c 2.209,0 4,1.791 4,4 l 0,0.396 0,17.208 0,0.396 c 0,2.209 -1.791,4 -4,4"/></g><g id="g32"><path id="path22" style="fill:#eeeeee;fill-opacity:1;fill-rule:nonzero;stroke:none" d="M 13,18 C 13,18 0,27.414 0,27.105 L 0,26.704 0,9.296 0,8.895 C 0,8.586 13,18 13,18"/><path id="path24" style="fill:#eeeeee;fill-opacity:1;fill-rule:nonzero;stroke:none" d="M 18,15 C 18,15 3.697,5 4.071,5 L 4.093,5 31.907,5 31.93,5 C 32.303,5 18,15 18,15"/><path id="path26" style="fill:#eeeeee;fill-opacity:1;fill-rule:nonzero;stroke:none" d="m 23,18 c 0,0 13,-9.414 13,-9.105 l 0,0.401 0,17.408 0,0.401 C 36,27.414 23,18 23,18"/><path id="path28" style="fill:#eeeeee;fill-opacity:1;fill-rule:nonzero;stroke:none" d="M 18,21 C 18,21 3.697,31 4.071,31 l 0.022,0 27.814,0 0.023,0 C 32.303,31 18,21 18,21"/></g><g id="g34"><path id="path30" style="fill:#ffb900;fill-opacity:1;fill-rule:nonzero;stroke:none" d="m 24.75,18 c 0,3.728 -3.022,6.75 -6.75,6.75 -3.728,0 -6.75,-3.022 -6.75,-6.75 0,-3.728 3.022,-6.75 6.75,-6.75 3.728,0 6.75,3.022 6.75,6.75"/></g><g id="g36"><path id="path32" style="fill:#82c1e4;fill-opacity:1;fill-rule:nonzero;stroke:none" d="m 23.1045,18 c 0,2.819 -2.285,5.104 -5.104,5.104 -2.819,0 -5.104,-2.285 -5.104,-5.104 0,-2.819 2.285,-5.104 5.104,-5.104 2.819,0 5.104,2.285 5.104,5.104"/></g></g></g></g></svg>