<svg xmlns:dc="http://purl.org/dc/elements/1.1/" xmlns:cc="http://creativecommons.org/ns#" xmlns:rdf="http://www.w3.org/1999/02/22-rdf-syntax-ns#" xmlns:svg="http://www.w3.org/2000/svg" xmlns="http://www.w3.org/2000/svg" viewBox="0 0 45 45" style="enable-background:new 0 0 45 45;" xml:space="preserve" version="1.1" id="svg2"><metadata id="metadata8"><rdf:RDF><cc:Work rdf:about=""><dc:format>image/svg+xml</dc:format><dc:type rdf:resource="http://purl.org/dc/dcmitype/StillImage"/></cc:Work></rdf:RDF></metadata><defs id="defs6"><clipPath id="clipPath16" clipPathUnits="userSpaceOnUse"><path id="path18" d="M 0,36 36,36 36,0 0,0 0,36 Z"/></clipPath></defs><g transform="matrix(1.25,0,0,-1.25,0,45)" id="g10"><g id="g12"><g xmlns="http://www.w3.org/2000/svg" clip-path="url(#clipPath16)" id="g14"><g id="g20"><path id="path22" style="fill:#eeeeee;fill-opacity:1;fill-rule:nonzero;stroke:none" d="M 0,9 C 0,6.791 1.791,5 4,5 l 28,0 c 2.209,0 4,1.791 4,4 l 0,18 c 0,2.209 -1.791,4 -4,4 L 4,31 C 1.791,31 0,29.209 0,27 L 0,9 z"/></g><g id="g24"><path id="path26" style="fill:#ffcc00;fill-opacity:1;fill-rule:nonzero;stroke:none" d="m 12.5747,25.9629 0,-12.118 c 0,0 0.243,-1.371 2.369,-2.541 1.725,-0.949 3.056,-1.26 3.056,-1.26 0,0 1.331,0.311 3.057,1.26 2.126,1.17 2.369,2.541 2.369,2.541 l 0,12.118 -10.851,0 z"/><path id="path28" style="fill:#008400;fill-opacity:1;fill-rule:nonzero;stroke:none" d="m 14.6021,15.3408 c 0,0 0.285,-0.076 0.776,0.108 0.385,0.145 0.84,0.197 1.029,0.123 0.189,-0.073 1.048,-0.331 2.571,0.603 1.824,1.117 2.42,0.637 2.42,0.637 l 0,-2.413 c 0,0 -0.487,-0.753 -1.4,-1.385 -0.913,-0.632 -1.998,-0.965 -1.998,-0.965 0,0 -1.085,0.333 -1.998,0.965 -0.914,0.632 -1.4,1.385 -1.4,1.385 l 0,0.942 z"/><path id="path30" style="fill:#00aad4;fill-opacity:1;fill-rule:nonzero;stroke:none" d="m 14.6021,15.3408 0,6.547 1.313,0 c 0,0 0.338,-0.4 0.993,-0.4 0.604,0 1.092,0.4 1.092,0.4 0,0 0.488,-0.4 1.092,-0.4 0.655,0 0.992,0.4 0.992,0.4 l 1.314,0 0,-5.076 c 0,0 -0.596,0.48 -2.42,-0.637 -1.523,-0.934 -2.382,-0.676 -2.571,-0.603 -0.189,0.074 -0.644,0.022 -1.029,-0.123 -0.491,-0.184 -0.776,-0.108 -0.776,-0.108"/></g></g></g></g></svg>