<svg xmlns:dc="http://purl.org/dc/elements/1.1/" xmlns:cc="http://creativecommons.org/ns#" xmlns:rdf="http://www.w3.org/1999/02/22-rdf-syntax-ns#" xmlns:svg="http://www.w3.org/2000/svg" xmlns="http://www.w3.org/2000/svg" viewBox="0 0 45 45" style="enable-background:new 0 0 45 45;" xml:space="preserve" version="1.1" id="svg2"><metadata id="metadata8"><rdf:RDF><cc:Work rdf:about=""><dc:format>image/svg+xml</dc:format><dc:type rdf:resource="http://purl.org/dc/dcmitype/StillImage"/></cc:Work></rdf:RDF></metadata><defs id="defs6"><clipPath id="clipPath16" clipPathUnits="userSpaceOnUse"><path id="path18" d="M 4,31 C 1.791,31 0,29.209 0,27 L 0,27 0,9 C 0,6.791 1.791,5 4,5 l 0,0 28,0 c 2.209,0 4,1.791 4,4 l 0,0 0,18 c 0,2.209 -1.791,4 -4,4 l 0,0 -28,0 z"/></clipPath></defs><g transform="matrix(1.25,0,0,-1.25,0,45)" id="g10"><g id="g12"><g xmlns="http://www.w3.org/2000/svg" clip-path="url(#clipPath16)" id="g14"><path id="path20" style="fill:#0033a0;fill-opacity:1;fill-rule:nonzero;stroke:none" d="M 0,5 36,5 36,31 0,31 0,5 z"/><g id="g32"><path id="path21" style="fill:#ffffff;fill-opacity:1;fill-rule:nonzero;stroke:none" d="m 8.7949,24.9863 -0.48,1.477 -0.479,-1.477 -1.554,0 1.257,-0.913 -0.48,-1.477 1.256,0.913 1.257,-0.913 -0.48,1.477 1.256,0.913 -1.553,0 z"/><path id="path22" style="fill:#ffa300;fill-opacity:1;fill-rule:nonzero;stroke:none" d="m 10.1401,22.3076 c -0.559,-0.246 -1.176,-0.382 -1.825,-0.382 -0.649,0 -1.265,0.136 -1.823,0.381 l -0.299,-0.68 c 0.65,-0.285 1.367,-0.444 2.122,-0.444 0.755,0 1.474,0.159 2.124,0.444 l -0.299,0.681 z"/><path id="path23" style="fill:#ffa300;fill-opacity:1;fill-rule:nonzero;stroke:none" d="m 12.7988,25.5005 c -0.763,1.717 -2.484,2.914 -4.484,2.914 -1.998,0 -3.718,-1.196 -4.482,-2.911 l 1.175,-0.523 c 0.564,1.266 1.833,2.148 3.307,2.148 1.476,0 2.745,-0.883 3.309,-2.15 l 1.175,0.522 z"/></g><g id="g34"><path id="path30" style="fill:#00843d;fill-opacity:1;fill-rule:nonzero;stroke:none" d="m 10.1699,19.1377 c -0.132,-0.097 -1.472,-0.562 -2.05,-0.767 -0.855,-0.302 -1.061,-0.6 -1.061,-0.6 0,0 -0.014,-0.014 -0.155,-0.314 -0.141,-0.299 -0.133,-0.396 -0.133,-0.396 0,0 0.203,0.428 0.976,0.939 0.836,0.553 1.822,0.576 2.988,1.179 0.673,0.347 0.924,0.614 1.209,0.895 0.139,0.136 0.088,0.305 0.171,0.435 0.076,0.12 0.225,0.218 0.322,0.364 0.839,1.251 0.814,2.486 0.814,2.486 l -0.071,0 c 0,0 0.022,-0.972 -0.818,-2.409 -0.091,-0.155 -0.239,-0.258 -0.316,-0.379 -0.087,-0.14 -0.103,-0.293 -0.192,-0.402 -0.255,-0.31 -0.78,-0.701 -1.386,-0.945 0,0 0.459,0.59 0.702,1.08 0.244,0.49 0.632,0.984 0.718,1.33 0.087,0.345 0.011,0.459 0.055,1.088 0.044,0.629 0.148,1.178 0.148,1.178 l -0.06,0 c 0,0 -0.162,-0.625 -0.207,-1.166 -0.05,-0.604 0.01,-0.813 -0.081,-1.123 -0.166,-0.567 -0.505,-0.79 -0.737,-1.237 -0.274,-0.527 -0.697,-1.134 -0.836,-1.236"/><path id="path31" style="fill:#00843d;fill-opacity:1;fill-rule:nonzero;stroke:none" d="m 9.7939,19.3359 c -0.126,-0.2 -0.297,-0.32 -0.38,-0.268 -0.083,0.053 -0.048,0.258 0.078,0.458 0.127,0.201 0.297,0.321 0.381,0.268 0.083,-0.052 0.047,-0.257 -0.079,-0.458"/><path id="path32" style="fill:#00843d;fill-opacity:1;fill-rule:nonzero;stroke:none" d="m 9.2275,18.9941 c -0.058,-0.192 -0.158,-0.332 -0.222,-0.313 -0.065,0.02 -0.07,0.191 -0.012,0.384 0.058,0.192 0.157,0.332 0.222,0.313 0.064,-0.02 0.07,-0.192 0.012,-0.384"/><path id="path33" style="fill:#00843d;fill-opacity:1;fill-rule:nonzero;stroke:none" d="m 9.9453,18.3828 c -0.154,0.129 -0.243,0.276 -0.2,0.328 0.044,0.051 0.203,-0.011 0.357,-0.141 0.154,-0.128 0.244,-0.275 0.2,-0.327 -0.043,-0.052 -0.203,0.011 -0.357,0.14"/><path id="path34" style="fill:#00843d;fill-opacity:1;fill-rule:nonzero;stroke:none" d="m 10.6396,18.4238 c -0.312,0.143 -0.531,0.335 -0.488,0.431 0.044,0.095 0.333,0.057 0.646,-0.086 0.313,-0.142 0.531,-0.335 0.488,-0.43 -0.044,-0.096 -0.333,-0.058 -0.646,0.085"/><path id="path35" style="fill:#00843d;fill-opacity:1;fill-rule:nonzero;stroke:none" d="m 11.5674,18.5239 c -0.228,0.15 -0.37,0.337 -0.317,0.417 0.053,0.079 0.28,0.021 0.508,-0.129 0.227,-0.151 0.37,-0.337 0.317,-0.416 -0.053,-0.08 -0.28,-0.022 -0.508,0.128"/><path id="path36" style="fill:#00843d;fill-opacity:1;fill-rule:nonzero;stroke:none" d="m 11.9033,19.043 c -0.271,0.028 -0.483,0.128 -0.474,0.223 0.01,0.095 0.239,0.149 0.51,0.12 0.272,-0.028 0.484,-0.128 0.474,-0.222 -0.01,-0.095 -0.239,-0.149 -0.51,-0.121"/><path id="path37" style="fill:#00843d;fill-opacity:1;fill-rule:nonzero;stroke:none" d="m 10.021,20.0259 c -0.097,0.185 -0.097,0.376 -0.001,0.426 0.096,0.05 0.252,-0.059 0.35,-0.245 0.096,-0.185 0.097,-0.376 0.001,-0.426 -0.096,-0.05 -0.253,0.059 -0.35,0.245"/><path id="path38" style="fill:#00843d;fill-opacity:1;fill-rule:nonzero;stroke:none" d="m 10.4463,20.3291 c -0.027,0.241 0.039,0.445 0.147,0.457 0.108,0.012 0.217,-0.174 0.243,-0.415 0.027,-0.24 -0.039,-0.445 -0.147,-0.457 -0.108,-0.011 -0.217,0.174 -0.243,0.415"/><path id="path39" style="fill:#00843d;fill-opacity:1;fill-rule:nonzero;stroke:none" d="m 11.1992,20.2729 c 0.21,0.07 0.409,0.044 0.443,-0.059 0.034,-0.103 -0.109,-0.243 -0.319,-0.314 -0.21,-0.07 -0.409,-0.044 -0.443,0.059 -0.034,0.103 0.109,0.244 0.319,0.314"/><path id="path40" style="fill:#00843d;fill-opacity:1;fill-rule:nonzero;stroke:none" d="m 12.2202,20.0229 c 0.186,0.062 0.364,0.029 0.398,-0.074 0.035,-0.103 -0.088,-0.237 -0.274,-0.299 -0.186,-0.062 -0.365,-0.029 -0.399,0.074 -0.035,0.103 0.089,0.237 0.275,0.299"/><path id="path41" style="fill:#00843d;fill-opacity:1;fill-rule:nonzero;stroke:none" d="m 12.479,20.3936 c 0.164,0.05 0.307,0.058 0.319,0.017 0.013,-0.042 -0.11,-0.116 -0.274,-0.166 -0.164,-0.051 -0.306,-0.058 -0.319,-0.017 -0.013,0.042 0.11,0.116 0.274,0.166"/><path id="path42" style="fill:#00843d;fill-opacity:1;fill-rule:nonzero;stroke:none" d="m 12.4736,20.6035 c 0.16,0.062 0.301,0.08 0.317,0.04 0.016,-0.04 -0.101,-0.123 -0.26,-0.186 -0.16,-0.062 -0.302,-0.08 -0.318,-0.04 -0.015,0.04 0.101,0.124 0.261,0.186"/><path id="path43" style="fill:#00843d;fill-opacity:1;fill-rule:nonzero;stroke:none" d="m 11.7417,20.6489 c -0.002,0.171 0.03,0.311 0.074,0.311 0.043,10e-4 0.08,-0.138 0.082,-0.309 0.003,-0.171 -0.03,-0.311 -0.073,-0.311 -0.043,-0.001 -0.08,0.138 -0.083,0.309"/><path id="path44" style="fill:#00843d;fill-opacity:1;fill-rule:nonzero;stroke:none" d="m 10.9531,20.7998 c -0.036,0.167 -0.032,0.311 0.011,0.32 0.042,0.009 0.106,-0.12 0.142,-0.287 0.036,-0.167 0.032,-0.31 -0.011,-0.32 -0.042,-0.008 -0.105,0.12 -0.142,0.287"/><path id="path45" style="fill:#00843d;fill-opacity:1;fill-rule:nonzero;stroke:none" d="m 11.1245,21.0566 c -0.058,0.161 -0.072,0.303 -0.032,0.318 0.041,0.015 0.121,-0.105 0.179,-0.265 0.059,-0.161 0.073,-0.304 0.032,-0.319 -0.041,-0.014 -0.121,0.105 -0.179,0.266"/><path id="path46" style="fill:#00843d;fill-opacity:1;fill-rule:nonzero;stroke:none" d="m 11.5044,22.0068 c -0.089,0.146 -0.132,0.282 -0.096,0.305 0.037,0.022 0.14,-0.078 0.229,-0.224 0.09,-0.146 0.133,-0.283 0.096,-0.305 -0.037,-0.023 -0.14,0.078 -0.229,0.224"/><path id="path47" style="fill:#00843d;fill-opacity:1;fill-rule:nonzero;stroke:none" d="m 11.5103,22.5117 c -0.108,0.133 -0.168,0.263 -0.135,0.29 0.034,0.027 0.149,-0.059 0.257,-0.192 0.107,-0.133 0.168,-0.263 0.134,-0.289 -0.033,-0.027 -0.148,0.058 -0.256,0.191"/><path id="path48" style="fill:#00843d;fill-opacity:1;fill-rule:nonzero;stroke:none" d="m 12.1206,21.9961 c 0.11,0.131 0.234,0.208 0.276,0.172 0.042,-0.036 -0.013,-0.171 -0.123,-0.302 -0.11,-0.131 -0.234,-0.208 -0.276,-0.172 -0.043,0.035 0.013,0.171 0.123,0.302"/><path id="path49" style="fill:#00843d;fill-opacity:1;fill-rule:nonzero;stroke:none" d="m 12.2363,22.6016 c 0.122,0.145 0.261,0.228 0.312,0.185 0.049,-0.042 -0.008,-0.194 -0.13,-0.339 -0.122,-0.145 -0.261,-0.227 -0.311,-0.185 -0.051,0.043 0.007,0.194 0.129,0.339"/><path id="path50" style="fill:#00843d;fill-opacity:1;fill-rule:nonzero;stroke:none" d="m 12.3271,21.4233 c -0.013,0.155 0.012,0.284 0.054,0.287 0.043,0.003 0.087,-0.12 0.099,-0.275 0.013,-0.155 -0.011,-0.283 -0.054,-0.287 -0.042,-0.003 -0.087,0.12 -0.099,0.275"/><path id="path51" style="fill:#00843d;fill-opacity:1;fill-rule:nonzero;stroke:none" d="m 12.8042,21.1304 c 0.136,0.017 0.25,0.005 0.254,-0.026 0.003,-0.032 -0.104,-0.072 -0.24,-0.089 -0.137,-0.017 -0.25,-0.005 -0.254,0.027 -0.004,0.032 0.104,0.071 0.24,0.088"/><path id="path52" style="fill:#00843d;fill-opacity:1;fill-rule:nonzero;stroke:none" d="m 13.1973,21.5713 c 0.186,0.162 0.359,0.267 0.388,0.234 0.029,-0.033 -0.099,-0.192 -0.284,-0.354 -0.186,-0.162 -0.36,-0.266 -0.388,-0.233 -0.029,0.033 0.098,0.191 0.284,0.353"/><path id="path53" style="fill:#00843d;fill-opacity:1;fill-rule:nonzero;stroke:none" d="m 13.1816,22.0864 c 0.119,0.045 0.228,0.049 0.243,0.008 0.015,-0.041 -0.068,-0.111 -0.187,-0.156 -0.118,-0.045 -0.227,-0.049 -0.243,-0.008 -0.015,0.041 0.068,0.111 0.187,0.156"/><path id="path54" style="fill:#00843d;fill-opacity:1;fill-rule:nonzero;stroke:none" d="m 12.8447,22.2642 c 0.074,-0.104 0.088,-0.219 0.033,-0.259 -0.056,-0.039 -0.161,0.013 -0.235,0.116 -0.073,0.104 -0.088,0.22 -0.032,0.259 0.055,0.04 0.16,-0.012 0.234,-0.116"/><path id="path55" style="fill:#00843d;fill-opacity:1;fill-rule:nonzero;stroke:none" d="m 13.0581,23.0591 c 0.058,-0.129 0.072,-0.249 0.032,-0.267 -0.04,-0.018 -0.12,0.073 -0.178,0.203 -0.058,0.129 -0.072,0.249 -0.032,0.266 0.04,0.018 0.12,-0.072 0.178,-0.202"/><path id="path56" style="fill:#00843d;fill-opacity:1;fill-rule:nonzero;stroke:none" d="m 13.4819,22.8457 c -0.102,-0.099 -0.208,-0.154 -0.239,-0.123 -0.031,0.032 0.026,0.138 0.127,0.237 0.102,0.1 0.209,0.155 0.239,0.123 0.031,-0.031 -0.026,-0.137 -0.127,-0.237"/><path id="path57" style="fill:#00843d;fill-opacity:1;fill-rule:nonzero;stroke:none" d="m 12.4229,23.2422 c -0.137,-0.108 -0.271,-0.168 -0.298,-0.134 -0.027,0.035 0.062,0.151 0.199,0.259 0.137,0.109 0.27,0.169 0.298,0.134 0.027,-0.034 -0.062,-0.15 -0.199,-0.259"/><path id="path58" style="fill:#00843d;fill-opacity:1;fill-rule:nonzero;stroke:none" d="m 12.3633,23.5029 c -0.15,-0.127 -0.284,-0.214 -0.3,-0.196 -0.015,0.019 0.093,0.137 0.243,0.264 0.151,0.127 0.285,0.215 0.301,0.196 0.015,-0.019 -0.094,-0.137 -0.244,-0.264"/><path id="path59" style="fill:#ffa300;fill-opacity:1;fill-rule:nonzero;stroke:none" d="m 12.5117,20.9038 c 0,-0.149 -0.121,-0.271 -0.271,-0.271 -0.149,0 -0.27,0.122 -0.27,0.271 0,0.149 0.121,0.271 0.27,0.271 0.15,0 0.271,-0.122 0.271,-0.271"/><path id="path60" style="fill:#ffa300;fill-opacity:1;fill-rule:nonzero;stroke:none" d="m 13.0884,21.7432 c 0,-0.128 -0.104,-0.231 -0.231,-0.231 -0.128,0 -0.232,0.103 -0.232,0.231 0,0.128 0.104,0.231 0.232,0.231 0.127,0 0.231,-0.103 0.231,-0.231"/><path id="path61" style="fill:#ffa300;fill-opacity:1;fill-rule:nonzero;stroke:none" d="m 13.5688,22.5498 c 0,-0.105 -0.086,-0.191 -0.191,-0.191 -0.106,0 -0.192,0.086 -0.192,0.191 0,0.106 0.086,0.191 0.192,0.191 0.105,0 0.191,-0.085 0.191,-0.191"/><path id="path62" style="fill:#ffa300;fill-opacity:1;fill-rule:nonzero;stroke:none" d="m 13.5186,23.4521 c 0,-0.143 -0.116,-0.259 -0.259,-0.259 -0.143,0 -0.259,0.116 -0.259,0.259 0,0.143 0.116,0.259 0.259,0.259 0.143,0 0.259,-0.116 0.259,-0.259"/><path id="path63" style="fill:#ffa300;fill-opacity:1;fill-rule:nonzero;stroke:none" d="m 12.3433,23.9307 c 0,-0.145 -0.118,-0.263 -0.263,-0.263 -0.146,0 -0.263,0.118 -0.263,0.263 0,0.146 0.117,0.264 0.263,0.264 0.145,0 0.263,-0.118 0.263,-0.264"/><path id="path64" style="fill:#ffa300;fill-opacity:1;fill-rule:nonzero;stroke:none" d="m 11.7393,23.4463 c 0,-0.133 -0.108,-0.241 -0.241,-0.241 -0.134,0 -0.241,0.108 -0.241,0.241 0,0.133 0.107,0.241 0.241,0.241 0.133,0 0.241,-0.108 0.241,-0.241"/><path id="path65" style="fill:#ffa300;fill-opacity:1;fill-rule:nonzero;stroke:none" d="m 12.1665,22.75 c 0,-0.13 -0.105,-0.235 -0.235,-0.235 -0.13,0 -0.235,0.105 -0.235,0.235 0,0.13 0.105,0.235 0.235,0.235 0.13,0 0.235,-0.105 0.235,-0.235"/><path id="path66" style="fill:#ffa300;fill-opacity:1;fill-rule:nonzero;stroke:none" d="m 11.9819,22.9063 c 0,-0.11 -0.089,-0.2 -0.2,-0.2 -0.111,0 -0.2,0.09 -0.2,0.2 0,0.111 0.089,0.201 0.2,0.201 0.111,0 0.2,-0.09 0.2,-0.201"/><path id="path67" style="fill:#ffa300;fill-opacity:1;fill-rule:nonzero;stroke:none" d="m 12.3867,22.2593 c 0,-0.067 -0.055,-0.122 -0.122,-0.122 -0.067,0 -0.122,0.055 -0.122,0.122 0,0.068 0.055,0.123 0.122,0.123 0.067,0 0.122,-0.055 0.122,-0.123"/><path id="path68" style="fill:#ffa300;fill-opacity:1;fill-rule:nonzero;stroke:none" d="m 13.0693,22.5889 c 0,-0.067 -0.055,-0.122 -0.122,-0.122 -0.068,0 -0.123,0.055 -0.123,0.122 0,0.067 0.055,0.122 0.123,0.122 0.067,0 0.122,-0.055 0.122,-0.122"/><path id="path69" style="fill:#ffa300;fill-opacity:1;fill-rule:nonzero;stroke:none" d="m 13.0093,22.8037 c 0,-0.055 -0.044,-0.099 -0.099,-0.099 -0.054,0 -0.098,0.044 -0.098,0.099 0,0.054 0.044,0.098 0.098,0.098 0.055,0 0.099,-0.044 0.099,-0.098"/><path id="path70" style="fill:#ffa300;fill-opacity:1;fill-rule:nonzero;stroke:none" d="m 12.936,20.9097 c 0,-0.045 -0.036,-0.081 -0.081,-0.081 -0.045,0 -0.081,0.036 -0.081,0.081 0,0.044 0.036,0.081 0.081,0.081 0.045,0 0.081,-0.037 0.081,-0.081"/><path id="path71" style="fill:#ffa300;fill-opacity:1;fill-rule:nonzero;stroke:none" d="m 12.9204,21.2046 c 0,-0.049 -0.04,-0.089 -0.089,-0.089 -0.049,0 -0.089,0.04 -0.089,0.089 0,0.049 0.04,0.089 0.089,0.089 0.049,0 0.089,-0.04 0.089,-0.089"/><path id="path72" style="fill:#ffa300;fill-opacity:1;fill-rule:nonzero;stroke:none" d="m 13.0972,21.2158 c 0,-0.046 -0.038,-0.084 -0.084,-0.084 -0.047,0 -0.084,0.038 -0.084,0.084 0,0.046 0.037,0.084 0.084,0.084 0.046,0 0.084,-0.038 0.084,-0.084"/><path id="path73" style="fill:#ffa300;fill-opacity:1;fill-rule:nonzero;stroke:none" d="m 13.1479,20.9155 c 0,-0.053 -0.043,-0.096 -0.096,-0.096 -0.053,0 -0.096,0.043 -0.096,0.096 0,0.053 0.043,0.096 0.096,0.096 0.053,0 0.096,-0.043 0.096,-0.096"/><path id="path74" style="fill:#ffa300;fill-opacity:1;fill-rule:nonzero;stroke:none" d="m 13.3062,21.0767 c 0,-0.059 -0.047,-0.106 -0.106,-0.106 -0.059,0 -0.106,0.047 -0.106,0.106 0,0.059 0.047,0.106 0.106,0.106 0.059,0 0.106,-0.047 0.106,-0.106"/><path id="path75" style="fill:#ffa300;fill-opacity:1;fill-rule:nonzero;stroke:none" d="m 11.5815,22.5146 c 0,-0.067 -0.055,-0.122 -0.123,-0.122 -0.067,0 -0.122,0.055 -0.122,0.122 0,0.067 0.055,0.122 0.122,0.122 0.068,0 0.123,-0.055 0.123,-0.122"/><path id="path76" style="fill:#ffa300;fill-opacity:1;fill-rule:nonzero;stroke:none" d="m 11.6069,21.6714 c 0,-0.125 -0.102,-0.228 -0.228,-0.228 -0.126,0 -0.228,0.103 -0.228,0.228 0,0.126 0.102,0.228 0.228,0.228 0.126,0 0.228,-0.102 0.228,-0.228"/><path id="path77" style="fill:#ffa300;fill-opacity:1;fill-rule:nonzero;stroke:none" d="m 11.6484,20.7461 c 0,-0.104 -0.084,-0.189 -0.189,-0.189 -0.105,0 -0.19,0.085 -0.19,0.189 0,0.104 0.085,0.189 0.19,0.189 0.105,0 0.189,-0.085 0.189,-0.189"/></g><g id="g36"><path id="path78" style="fill:#00843d;fill-opacity:1;fill-rule:nonzero;stroke:none" d="m 6.4619,19.1377 c 0.131,-0.097 1.471,-0.562 2.05,-0.767 0.855,-0.302 1.061,-0.6 1.061,-0.6 0,0 0.014,-0.014 0.155,-0.314 0.141,-0.299 0.133,-0.396 0.133,-0.396 0,0 -0.203,0.428 -0.976,0.939 -0.836,0.553 -1.823,0.576 -2.988,1.179 -0.674,0.347 -0.925,0.614 -1.209,0.895 -0.139,0.136 -0.089,0.305 -0.171,0.435 -0.076,0.12 -0.225,0.218 -0.323,0.364 -0.839,1.251 -0.813,2.486 -0.813,2.486 l 0.071,0 c 0,0 -0.022,-0.972 0.818,-2.409 0.091,-0.155 0.239,-0.258 0.315,-0.379 0.088,-0.14 0.104,-0.293 0.193,-0.402 0.255,-0.31 0.78,-0.701 1.386,-0.945 0,0 -0.46,0.59 -0.703,1.08 -0.243,0.49 -0.631,0.984 -0.717,1.33 -0.087,0.345 -0.011,0.459 -0.055,1.088 -0.044,0.629 -0.148,1.178 -0.148,1.178 l 0.059,0 c 0,0 0.163,-0.625 0.208,-1.166 0.05,-0.604 -0.01,-0.813 0.081,-1.123 0.166,-0.567 0.505,-0.79 0.737,-1.237 0.274,-0.527 0.697,-1.134 0.836,-1.236"/><path id="path79" style="fill:#00843d;fill-opacity:1;fill-rule:nonzero;stroke:none" d="m 6.8374,19.3359 c 0.127,-0.2 0.297,-0.32 0.38,-0.268 0.083,0.053 0.049,0.258 -0.078,0.458 -0.127,0.201 -0.297,0.321 -0.38,0.268 -0.084,-0.052 -0.048,-0.257 0.078,-0.458"/><path id="path80" style="fill:#00843d;fill-opacity:1;fill-rule:nonzero;stroke:none" d="m 7.4043,18.9941 c 0.058,-0.192 0.157,-0.332 0.222,-0.313 0.065,0.02 0.07,0.191 0.012,0.384 -0.058,0.192 -0.157,0.332 -0.222,0.313 -0.065,-0.02 -0.07,-0.192 -0.012,-0.384"/><path id="path81" style="fill:#00843d;fill-opacity:1;fill-rule:nonzero;stroke:none" d="m 6.686,18.3828 c 0.154,0.129 0.244,0.276 0.2,0.328 -0.043,0.051 -0.203,-0.011 -0.357,-0.141 -0.154,-0.128 -0.243,-0.275 -0.2,-0.327 0.044,-0.052 0.203,0.011 0.357,0.14"/><path id="path82" style="fill:#00843d;fill-opacity:1;fill-rule:nonzero;stroke:none" d="m 5.9917,18.4238 c 0.313,0.143 0.531,0.335 0.488,0.431 -0.044,0.095 -0.332,0.057 -0.645,-0.086 -0.313,-0.142 -0.531,-0.335 -0.488,-0.43 0.043,-0.096 0.332,-0.058 0.645,0.085"/><path id="path83" style="fill:#00843d;fill-opacity:1;fill-rule:nonzero;stroke:none" d="m 5.064,18.5239 c 0.228,0.15 0.37,0.337 0.317,0.417 -0.052,0.079 -0.279,0.021 -0.507,-0.129 -0.228,-0.151 -0.37,-0.337 -0.317,-0.416 0.052,-0.08 0.279,-0.022 0.507,0.128"/><path id="path84" style="fill:#00843d;fill-opacity:1;fill-rule:nonzero;stroke:none" d="m 4.7285,19.043 c 0.271,0.028 0.483,0.128 0.474,0.223 -0.011,0.095 -0.239,0.149 -0.51,0.12 -0.272,-0.028 -0.484,-0.128 -0.474,-0.222 0.01,-0.095 0.239,-0.149 0.51,-0.121"/><path id="path85" style="fill:#00843d;fill-opacity:1;fill-rule:nonzero;stroke:none" d="m 6.6104,20.0259 c 0.097,0.185 0.098,0.376 10e-4,0.426 -0.096,0.05 -0.252,-0.059 -0.349,-0.245 -0.097,-0.185 -0.098,-0.376 -0.002,-0.426 0.097,-0.05 0.253,0.059 0.35,0.245"/><path id="path86" style="fill:#00843d;fill-opacity:1;fill-rule:nonzero;stroke:none" d="m 6.1855,20.3291 c 0.026,0.241 -0.04,0.445 -0.147,0.457 -0.108,0.012 -0.217,-0.174 -0.244,-0.415 -0.026,-0.24 0.04,-0.445 0.148,-0.457 0.108,-0.011 0.217,0.174 0.243,0.415"/><path id="path87" style="fill:#00843d;fill-opacity:1;fill-rule:nonzero;stroke:none" d="m 5.4321,20.2729 c -0.21,0.07 -0.409,0.044 -0.443,-0.059 -0.034,-0.103 0.109,-0.243 0.319,-0.314 0.211,-0.07 0.409,-0.044 0.443,0.059 0.035,0.103 -0.109,0.244 -0.319,0.314"/><path id="path88" style="fill:#00843d;fill-opacity:1;fill-rule:nonzero;stroke:none" d="m 4.4116,20.0229 c -0.186,0.062 -0.365,0.029 -0.399,-0.074 -0.034,-0.103 0.089,-0.237 0.275,-0.299 0.186,-0.062 0.365,-0.029 0.399,0.074 0.034,0.103 -0.089,0.237 -0.275,0.299"/><path id="path89" style="fill:#00843d;fill-opacity:1;fill-rule:nonzero;stroke:none" d="m 4.1528,20.3936 c -0.164,0.05 -0.307,0.058 -0.319,0.017 -0.013,-0.042 0.11,-0.116 0.274,-0.166 0.163,-0.051 0.306,-0.058 0.319,-0.017 0.012,0.042 -0.11,0.116 -0.274,0.166"/><path id="path90" style="fill:#00843d;fill-opacity:1;fill-rule:nonzero;stroke:none" d="m 4.1582,20.6035 c -0.16,0.062 -0.302,0.08 -0.317,0.04 -0.016,-0.04 0.101,-0.123 0.26,-0.186 0.16,-0.062 0.302,-0.08 0.317,-0.04 0.016,0.04 -0.101,0.124 -0.26,0.186"/><path id="path91" style="fill:#00843d;fill-opacity:1;fill-rule:nonzero;stroke:none" d="m 4.8896,20.6489 c 0.003,0.171 -0.03,0.311 -0.073,0.311 -0.043,10e-4 -0.08,-0.138 -0.083,-0.309 -0.003,-0.171 0.03,-0.311 0.073,-0.311 0.043,-0.001 0.081,0.138 0.083,0.309"/><path id="path92" style="fill:#00843d;fill-opacity:1;fill-rule:nonzero;stroke:none" d="m 5.6787,20.7998 c 0.036,0.167 0.031,0.311 -0.011,0.32 -0.042,0.009 -0.106,-0.12 -0.142,-0.287 -0.036,-0.167 -0.032,-0.31 0.01,-0.32 0.043,-0.008 0.106,0.12 0.143,0.287"/><path id="path93" style="fill:#00843d;fill-opacity:1;fill-rule:nonzero;stroke:none" d="m 5.5068,21.0562 c 0.059,0.161 0.073,0.304 0.032,0.318 -0.041,0.015 -0.121,-0.104 -0.179,-0.265 -0.058,-0.161 -0.072,-0.303 -0.032,-0.318 0.041,-0.015 0.121,0.104 0.179,0.265"/><path id="path94" style="fill:#00843d;fill-opacity:1;fill-rule:nonzero;stroke:none" d="m 5.1274,22.0068 c 0.089,0.146 0.132,0.282 0.095,0.305 -0.036,0.022 -0.139,-0.078 -0.228,-0.224 -0.09,-0.146 -0.133,-0.283 -0.096,-0.305 0.037,-0.023 0.139,0.078 0.229,0.224"/><path id="path95" style="fill:#00843d;fill-opacity:1;fill-rule:nonzero;stroke:none" d="m 5.1216,22.5117 c 0.108,0.133 0.168,0.263 0.134,0.29 -0.033,0.027 -0.148,-0.059 -0.256,-0.192 -0.107,-0.133 -0.168,-0.263 -0.134,-0.289 0.033,-0.027 0.148,0.058 0.256,0.191"/><path id="path96" style="fill:#00843d;fill-opacity:1;fill-rule:nonzero;stroke:none" d="m 4.5112,21.9961 c -0.11,0.131 -0.234,0.208 -0.276,0.172 -0.042,-0.036 0.012,-0.171 0.123,-0.302 0.11,-0.131 0.234,-0.208 0.276,-0.172 0.043,0.035 -0.013,0.171 -0.123,0.302"/><path id="path97" style="fill:#00843d;fill-opacity:1;fill-rule:nonzero;stroke:none" d="m 4.395,22.6016 c -0.122,0.145 -0.261,0.228 -0.311,0.185 -0.05,-0.042 0.008,-0.194 0.129,-0.339 0.122,-0.145 0.262,-0.227 0.312,-0.185 0.05,0.043 -0.008,0.194 -0.13,0.339"/><path id="path98" style="fill:#00843d;fill-opacity:1;fill-rule:nonzero;stroke:none" d="m 4.3047,21.4233 c 0.013,0.155 -0.012,0.284 -0.054,0.287 -0.043,0.003 -0.087,-0.12 -0.1,-0.275 -0.012,-0.155 0.012,-0.283 0.055,-0.287 0.042,-0.003 0.087,0.12 0.099,0.275"/><path id="path99" style="fill:#00843d;fill-opacity:1;fill-rule:nonzero;stroke:none" d="m 3.8276,21.1304 c -0.136,0.017 -0.25,0.005 -0.254,-0.026 -0.004,-0.032 0.104,-0.072 0.24,-0.089 0.136,-0.017 0.25,-0.005 0.254,0.027 0.004,0.032 -0.104,0.071 -0.24,0.088"/><path id="path00" style="fill:#00843d;fill-opacity:1;fill-rule:nonzero;stroke:none" d="m 3.4346,21.5713 c -0.186,0.162 -0.359,0.267 -0.388,0.234 -0.029,-0.033 0.099,-0.192 0.284,-0.354 0.186,-0.162 0.359,-0.266 0.388,-0.233 0.029,0.033 -0.098,0.191 -0.284,0.353"/><path id="path01" style="fill:#00843d;fill-opacity:1;fill-rule:nonzero;stroke:none" d="m 3.4497,22.0864 c -0.119,0.045 -0.228,0.049 -0.243,0.008 -0.015,-0.041 0.069,-0.111 0.187,-0.156 0.119,-0.045 0.227,-0.049 0.243,-0.008 0.016,0.041 -0.068,0.111 -0.187,0.156"/><path id="path02" style="fill:#00843d;fill-opacity:1;fill-rule:nonzero;stroke:none" d="m 3.7871,22.2642 c -0.074,-0.104 -0.088,-0.219 -0.033,-0.259 0.056,-0.039 0.161,0.013 0.235,0.116 0.073,0.104 0.088,0.22 0.032,0.259 -0.056,0.04 -0.16,-0.012 -0.234,-0.116"/><path id="path03" style="fill:#00843d;fill-opacity:1;fill-rule:nonzero;stroke:none" d="m 3.5737,23.0591 c -0.058,-0.129 -0.073,-0.249 -0.032,-0.267 0.04,-0.018 0.12,0.073 0.178,0.203 0.058,0.129 0.072,0.249 0.032,0.266 -0.04,0.018 -0.12,-0.072 -0.178,-0.202"/><path id="path04" style="fill:#00843d;fill-opacity:1;fill-rule:nonzero;stroke:none" d="m 3.1499,22.8457 c 0.101,-0.099 0.208,-0.154 0.239,-0.123 0.031,0.032 -0.026,0.138 -0.128,0.237 -0.101,0.1 -0.208,0.155 -0.239,0.123 -0.031,-0.031 0.026,-0.137 0.128,-0.237"/><path id="path05" style="fill:#00843d;fill-opacity:1;fill-rule:nonzero;stroke:none" d="m 4.209,23.2422 c 0.137,-0.108 0.271,-0.168 0.298,-0.134 0.027,0.035 -0.062,0.151 -0.199,0.259 -0.138,0.109 -0.271,0.169 -0.298,0.134 -0.027,-0.034 0.062,-0.15 0.199,-0.259"/><path id="path06" style="fill:#00843d;fill-opacity:1;fill-rule:nonzero;stroke:none" d="m 4.2681,23.5029 c 0.15,-0.127 0.285,-0.214 0.3,-0.196 0.016,0.019 -0.093,0.137 -0.243,0.264 -0.15,0.127 -0.285,0.215 -0.3,0.196 -0.016,-0.019 0.093,-0.137 0.243,-0.264"/><path id="path07" style="fill:#ffa300;fill-opacity:1;fill-rule:nonzero;stroke:none" d="m 4.1201,20.9038 c 0,-0.149 0.121,-0.271 0.271,-0.271 0.149,0 0.27,0.122 0.27,0.271 0,0.149 -0.121,0.271 -0.27,0.271 -0.15,0 -0.271,-0.122 -0.271,-0.271"/><path id="path08" style="fill:#ffa300;fill-opacity:1;fill-rule:nonzero;stroke:none" d="m 3.5435,21.7432 c 0,-0.128 0.104,-0.231 0.231,-0.231 0.128,0 0.232,0.103 0.232,0.231 0,0.128 -0.104,0.231 -0.232,0.231 -0.127,0 -0.231,-0.103 -0.231,-0.231"/><path id="path09" style="fill:#ffa300;fill-opacity:1;fill-rule:nonzero;stroke:none" d="m 3.063,22.5498 c 0,-0.105 0.085,-0.191 0.191,-0.191 0.106,0 0.191,0.086 0.191,0.191 0,0.106 -0.085,0.191 -0.191,0.191 -0.106,0 -0.191,-0.085 -0.191,-0.191"/><path id="path10" style="fill:#ffa300;fill-opacity:1;fill-rule:nonzero;stroke:none" d="m 3.1128,23.4521 c 0,-0.143 0.116,-0.259 0.259,-0.259 0.143,0 0.259,0.116 0.259,0.259 0,0.143 -0.116,0.259 -0.259,0.259 -0.143,0 -0.259,-0.116 -0.259,-0.259"/><path id="path11" style="fill:#ffa300;fill-opacity:1;fill-rule:nonzero;stroke:none" d="m 4.2886,23.9307 c 0,-0.145 0.118,-0.263 0.263,-0.263 0.146,0 0.263,0.118 0.263,0.263 0,0.146 -0.117,0.264 -0.263,0.264 -0.145,0 -0.263,-0.118 -0.263,-0.264"/><path id="path12" style="fill:#ffa300;fill-opacity:1;fill-rule:nonzero;stroke:none" d="m 4.8926,23.4463 c 0,-0.133 0.108,-0.241 0.241,-0.241 0.133,0 0.241,0.108 0.241,0.241 0,0.133 -0.108,0.241 -0.241,0.241 -0.133,0 -0.241,-0.108 -0.241,-0.241"/><path id="path13" style="fill:#ffa300;fill-opacity:1;fill-rule:nonzero;stroke:none" d="m 4.4648,22.75 c 0,-0.13 0.105,-0.235 0.235,-0.235 0.13,0 0.236,0.105 0.236,0.235 0,0.13 -0.106,0.235 -0.236,0.235 -0.13,0 -0.235,-0.105 -0.235,-0.235"/><path id="path14" style="fill:#ffa300;fill-opacity:1;fill-rule:nonzero;stroke:none" d="m 4.6494,22.9063 c 0,-0.11 0.09,-0.2 0.201,-0.2 0.11,0 0.2,0.09 0.2,0.2 0,0.111 -0.09,0.201 -0.2,0.201 -0.111,0 -0.201,-0.09 -0.201,-0.201"/><path id="path15" style="fill:#ffa300;fill-opacity:1;fill-rule:nonzero;stroke:none" d="m 4.2446,22.2593 c 0,-0.067 0.055,-0.122 0.122,-0.122 0.068,0 0.123,0.055 0.123,0.122 0,0.068 -0.055,0.123 -0.123,0.123 -0.067,0 -0.122,-0.055 -0.122,-0.123"/><path id="path16" style="fill:#ffa300;fill-opacity:1;fill-rule:nonzero;stroke:none" d="m 3.5625,22.5889 c 0,-0.067 0.055,-0.122 0.122,-0.122 0.067,0 0.122,0.055 0.122,0.122 0,0.067 -0.055,0.122 -0.122,0.122 -0.067,0 -0.122,-0.055 -0.122,-0.122"/><path id="path17" style="fill:#ffa300;fill-opacity:1;fill-rule:nonzero;stroke:none" d="m 3.6226,22.8037 c 0,-0.055 0.044,-0.099 0.098,-0.099 0.055,0 0.099,0.044 0.099,0.099 0,0.054 -0.044,0.098 -0.099,0.098 -0.054,0 -0.098,-0.044 -0.098,-0.098"/><path id="path18" style="fill:#ffa300;fill-opacity:1;fill-rule:nonzero;stroke:none" d="m 3.6958,20.9097 c 0,-0.045 0.036,-0.081 0.081,-0.081 0.044,0 0.081,0.036 0.081,0.081 0,0.044 -0.037,0.081 -0.081,0.081 -0.045,0 -0.081,-0.037 -0.081,-0.081"/><path id="path19" style="fill:#ffa300;fill-opacity:1;fill-rule:nonzero;stroke:none" d="m 3.7114,21.2046 c 0,-0.049 0.04,-0.089 0.089,-0.089 0.049,0 0.089,0.04 0.089,0.089 0,0.049 -0.04,0.089 -0.089,0.089 -0.049,0 -0.089,-0.04 -0.089,-0.089"/><path id="path24" style="fill:#ffa300;fill-opacity:1;fill-rule:nonzero;stroke:none" d="m 3.5347,21.2158 c 0,-0.046 0.038,-0.084 0.084,-0.084 0.047,0 0.084,0.038 0.084,0.084 0,0.046 -0.037,0.084 -0.084,0.084 -0.046,0 -0.084,-0.038 -0.084,-0.084"/><path id="path25" style="fill:#ffa300;fill-opacity:1;fill-rule:nonzero;stroke:none" d="m 3.4839,20.9155 c 0,-0.053 0.043,-0.096 0.096,-0.096 0.053,0 0.096,0.043 0.096,0.096 0,0.053 -0.043,0.096 -0.096,0.096 -0.053,0 -0.096,-0.043 -0.096,-0.096"/><path id="path26" style="fill:#ffa300;fill-opacity:1;fill-rule:nonzero;stroke:none" d="m 3.3252,21.0767 c 0,-0.059 0.048,-0.106 0.106,-0.106 0.059,0 0.106,0.047 0.106,0.106 0,0.059 -0.047,0.106 -0.106,0.106 -0.058,0 -0.106,-0.047 -0.106,-0.106"/><path id="path27" style="fill:#ffa300;fill-opacity:1;fill-rule:nonzero;stroke:none" d="m 5.0503,22.5146 c 0,-0.067 0.055,-0.122 0.122,-0.122 0.068,0 0.123,0.055 0.123,0.122 0,0.067 -0.055,0.122 -0.123,0.122 -0.067,0 -0.122,-0.055 -0.122,-0.122"/><path id="path28" style="fill:#ffa300;fill-opacity:1;fill-rule:nonzero;stroke:none" d="m 5.0249,21.6714 c 0,-0.125 0.102,-0.228 0.228,-0.228 0.126,0 0.227,0.103 0.227,0.228 0,0.126 -0.101,0.228 -0.227,0.228 -0.126,0 -0.228,-0.102 -0.228,-0.228"/><path id="path29" style="fill:#ffa300;fill-opacity:1;fill-rule:nonzero;stroke:none" d="m 4.9829,20.7461 c 0,-0.104 0.085,-0.189 0.189,-0.189 0.105,0 0.19,0.085 0.19,0.189 0,0.104 -0.085,0.189 -0.19,0.189 -0.104,0 -0.189,-0.085 -0.189,-0.189"/></g></g></g></g></svg>