<svg xmlns:dc="http://purl.org/dc/elements/1.1/" xmlns:cc="http://creativecommons.org/ns#" xmlns:rdf="http://www.w3.org/1999/02/22-rdf-syntax-ns#" xmlns:svg="http://www.w3.org/2000/svg" xmlns="http://www.w3.org/2000/svg" viewBox="0 0 45 45" style="enable-background:new 0 0 45 45;" xml:space="preserve" version="1.1" id="svg2"><metadata id="metadata8"><rdf:RDF><cc:Work rdf:about=""><dc:format>image/svg+xml</dc:format><dc:type rdf:resource="http://purl.org/dc/dcmitype/StillImage"/></cc:Work></rdf:RDF></metadata><defs id="defs6"><clipPath id="clipPath16" clipPathUnits="userSpaceOnUse"><path id="path18" d="M 0,36 36,36 36,0 0,0 0,36 Z"/></clipPath></defs><g transform="matrix(1.25,0,0,-1.25,0,45)" id="g10"><g id="g12"><g xmlns="http://www.w3.org/2000/svg" clip-path="url(#clipPath16)" id="g14"><g id="g20"><path id="path22" style="fill:#ffce10;fill-opacity:1;fill-rule:nonzero;stroke:none" d="M 4,31 C 1.791,31 0,29.209 0,27 V 9 C 0,6.791 1.791,5 4,5 h 28 c 2.209,0 4,1.791 4,4 v 18 c 0,2.209 -1.791,4 -4,4 z"/></g><g id="g24"><path id="path26" style="fill:#9c2931;fill-opacity:1;fill-rule:nonzero;stroke:none" d="m 4,29.0698 c -1.141,0 -2.07,-0.929 -2.07,-2.07 v -18 c 0,-1.141 0.929,-2.07 2.07,-2.07 h 28 c 1.142,0 2.07,0.929 2.07,2.07 v 18 c 0,1.141 -0.928,2.07 -2.07,2.07 z"/></g><g id="g28"><path id="path30" style="fill:#ffce10;fill-opacity:1;fill-rule:nonzero;stroke:none" d="m 19.6729,18.9961 c 0,0 0.02,0.304 0.2,0.665 0.174,0.349 0.193,1.018 -0.613,1.018 -0.806,0 -1.021,-0.897 -0.689,-1.317 0.332,-0.421 1.102,-0.366 1.102,-0.366 m -9.997,-0.065 c 0,0 -0.325,-1.308 0.173,-2.589 0.374,-0.962 1.156,-1.717 1.156,-1.717 0,0 0.353,0.191 0.731,0.063 0.328,-0.111 0.418,-0.196 0.418,-0.196 0,0 0.14,-0.002 0.362,-0.044 0.223,-0.043 0.417,-0.166 0.417,-0.166 0,0 0.11,-0.017 0.283,-0.081 0.173,-0.063 0.339,-0.191 0.339,-0.191 0,0 0.056,0.082 0.131,0.251 0.074,0.17 0.112,0.318 0.112,0.318 v 0.688 c 0,0 -0.077,0.022 -0.109,0.071 -0.032,0.05 -0.021,0.311 -0.134,0.615 -0.113,0.304 -0.233,0.562 -0.233,0.562 0,0 -0.269,-0.029 -0.548,0.155 -0.279,0.183 -0.586,0.255 -0.586,0.255 0,0 0.092,0.169 0.318,0.258 0.226,0.087 0.417,0.094 0.417,0.094 0,0 -0.283,0.237 -0.742,0.255 -0.459,0.018 -0.869,-0.071 -0.869,-0.071 0,0 0.307,0.364 0.918,0.382 0.611,0.017 1.127,-0.021 1.127,-0.021 0,0 0.021,0.148 -0.078,0.321 -0.099,0.173 -0.243,0.254 -0.243,0.254 0,0 -1.399,-0.127 -1.668,0.378 -0.199,0.375 -0.152,0.813 -0.152,0.813 0,0 0.235,0.035 0.469,-0.17 0.235,-0.205 0.609,-0.173 0.609,-0.173 0,0 0.6,0.551 0.791,0.626 0.191,0.073 1.244,0.024 1.244,0.024 0,0 0.293,0.187 0.544,0.47 0.25,0.282 1.088,0.629 1.088,0.629 0,0 -0.138,-0.424 -0.336,-0.731 -0.198,-0.308 -0.233,-0.531 -0.233,-0.531 0,0 0.031,0.004 0.095,-0.01 0.064,-0.014 0.124,-0.039 0.124,-0.039 0,0 0.162,0.431 0.335,0.742 0.173,0.311 0.368,0.569 0.368,0.569 0,0 0.159,-0.322 0.102,-0.873 -0.056,-0.551 -0.3,-0.848 -0.3,-0.848 0,0 0.123,-0.431 0.692,-0.915 0.569,-0.484 1.336,-0.522 1.336,-0.522 0,0 0.547,-0.022 0.964,0.084 0.417,0.106 0.544,0.166 0.544,0.166 v 0.184 c 0,0 -2.052,0.148 -2.052,1.597 0,1.448 1.898,1.789 2.668,1.019 0.39,-0.39 0.462,-0.754 0.451,-1.125 -0.013,-0.403 0.035,-0.707 0.035,-0.707 0,0 0.463,0.014 0.911,0.283 0.449,0.268 1.149,0.049 1.346,-0.223 0.097,-0.132 0.177,-1.114 0.028,-1.236 -0.08,-0.066 -0.24,-0.06 -0.24,-0.06 0,0 0.021,-0.332 -0.018,-0.565 -0.039,-0.234 -0.127,-0.428 -0.127,-0.428 0,0 0.149,-0.085 0.336,-0.007 0.187,0.078 0.318,0.05 0.318,0.05 0,0 0.007,-0.113 0.163,-0.148 0.155,-0.036 0.3,0.035 0.3,0.035 0,0 -0.011,0.258 0.413,0.544 0.424,0.286 0.738,0.215 0.897,0.017 0.127,-0.157 0.085,-0.576 0.085,-0.576 0,0 0.276,0.019 0.381,-0.138 0.106,-0.155 -0.031,-0.61 0.23,-0.985 0.261,-0.374 1.194,-0.808 1.194,-0.808 0,0 -0.039,-0.234 -0.194,-0.238 -0.156,-0.003 -0.353,0 -0.417,-0.229 -0.064,-0.23 -0.293,-0.226 -0.499,-0.166 -0.204,0.06 -0.388,-0.195 -0.388,-0.195 0,0 0.089,0.446 -0.01,0.64 -0.1,0.194 -0.77,0.725 -0.83,0.806 -0.061,0.081 0.035,0.473 -0.092,0.664 -0.128,0.19 -0.456,0.116 -0.456,0.116 0,0 -0.088,-0.498 -0.229,-0.713 -0.142,-0.216 -0.413,-0.308 -0.527,-0.445 -0.074,-0.091 -0.014,-0.205 -0.014,-0.205 0,0 0.795,-0.241 0.978,-0.439 0.184,-0.197 0.128,-0.699 0.103,-0.756 -0.025,-0.055 -0.244,-0.066 -0.297,-0.324 -0.053,-0.258 -0.149,-0.523 -0.289,-0.784 -0.142,-0.262 -0.449,-0.258 -0.449,-0.258 0,0 0.025,-0.29 -0.145,-0.428 -0.17,-0.137 -0.396,-0.102 -0.396,-0.102 0,0 -0.087,-0.227 -0.201,-0.364 -0.113,-0.138 -0.272,-0.198 -0.272,-0.198 0,0 0.109,0.474 0.294,0.88 0.183,0.406 0.296,0.508 0.363,0.798 0.067,0.29 0.022,0.47 -0.018,0.509 -0.039,0.039 -0.282,-0.011 -0.487,0.024 -0.205,0.035 -0.498,0.216 -0.498,0.216 0,0 0.007,-0.142 -0.081,-0.229 -0.089,-0.089 -0.237,-0.096 -0.237,-0.096 0,0 0.035,-0.435 -0.721,-0.435 -0.887,0 -1.123,0.559 -1.208,0.859 -0.073,0.261 -0.343,0.569 -0.343,0.569 0,0 -0.148,-0.028 -0.582,-0.039 -0.435,-0.011 -0.707,0.031 -0.707,0.031 0,0 -0.017,-0.131 0.06,-0.328 0.078,-0.198 0.054,-0.375 0.054,-0.375 0,0 -0.075,-0.003 -0.202,0.078 -0.127,0.081 -0.236,0.078 -0.236,0.078 0,0 0.095,-0.067 0.211,-0.202 0.117,-0.134 0.131,-0.339 0.131,-0.339 0,0 -0.099,-0.056 -0.23,-0.01 -0.13,0.045 -0.226,0.014 -0.226,0.014 0,0 0.159,-0.056 0.198,-0.212 0.039,-0.155 0.11,-0.12 0.134,-0.265 0.025,-0.145 -0.017,-0.381 -0.017,-0.381 0,0 -0.043,-0.007 -0.113,0.014 -0.071,0.021 -0.142,0.084 -0.142,0.084 0,0 0.018,-0.166 0.18,-0.282 0.163,-0.117 0.329,-0.155 0.329,-0.155 0,0 -0.032,-0.092 -0.095,-0.159 -0.064,-0.068 -0.156,-0.064 -0.156,-0.064 0,0 0.099,-0.095 0.128,-0.272 0.028,-0.177 0.006,-0.289 0.006,-0.289 0,0 -0.021,-0.008 -0.07,0.003 -0.05,0.01 -0.099,0.06 -0.099,0.06 0,0 0.046,-0.056 0.063,-0.155 0.018,-0.1 -0.017,-0.266 -0.017,-0.266 0,0 -0.064,-0.003 -0.117,0.029 -0.053,0.032 -0.084,0.091 -0.084,0.091 0,0 -0.022,-0.074 -0.022,-0.275 0,-0.201 0.018,-0.374 0.018,-0.374 0,0 -0.17,0.057 -0.265,0.018 -0.096,-0.039 -0.067,-0.12 -0.159,-0.238 -0.092,-0.116 -0.219,-0.173 -0.219,-0.173 0,0 -0.014,0.156 0.007,0.293 0.022,0.138 -0.01,0.241 -0.01,0.241 0,0 -0.047,-0.103 -0.149,-0.198 -0.102,-0.095 -0.286,-0.187 -0.286,-0.187 0,0 0.127,0.738 -0.056,1.081 -0.184,0.343 -0.163,1.158 -0.032,1.47 0.13,0.31 0.088,0.886 0.088,0.886 0,0 -0.251,0.127 -0.562,0.215 -0.31,0.089 -0.604,0.061 -0.604,0.061 0,0 -0.017,-0.184 -0.314,-0.364 -0.297,-0.18 -0.399,-0.89 -0.399,-0.89 0,0 -0.057,0.02 -0.103,0.099 -0.046,0.077 -0.06,0.201 -0.06,0.201 0,0 -0.01,-0.092 -0.084,-0.237 -0.074,-0.145 -0.262,-0.261 -0.262,-0.261 0,0 -0.198,0.06 -0.311,0.261 -0.113,0.202 -0.483,0.265 -0.483,0.265 0,0 0.013,-0.074 0.013,-0.159 0,-0.085 -0.028,-0.215 -0.028,-0.215 0,0 -0.134,0.232 -0.438,0.483 -0.109,0.09 -0.505,0.322 -0.505,0.322 0,0 -0.119,-0.014 -0.205,0.008 -0.085,0.02 -0.3,0.116 -0.3,0.116 0,0 -0.068,-0.028 -0.166,-0.035 -0.098,-0.009 -0.166,0.006 -0.166,0.006 0,0 0.007,-0.045 -0.011,-0.078 -0.017,-0.031 -0.113,-0.038 -0.113,-0.038 0,0 -0.021,-0.095 0.17,-0.106 0.099,-0.006 0.318,-0.11 0.279,-0.456 -0.019,-0.171 -0.097,-0.194 -0.406,-0.198 -0.244,-0.003 -0.397,0.222 -0.424,0.372 -0.032,0.172 0.046,0.374 0.046,0.374 0,0 -0.201,-0.025 -0.34,0.113 -0.137,0.138 -0.081,0.332 -0.081,0.332 0,0 -0.24,-0.057 -0.36,0.074 -0.12,0.131 -0.078,0.251 -0.078,0.251 0,0 -0.261,-0.032 -0.303,0.149 -0.043,0.179 0.074,0.289 0.074,0.289 0,0 -0.867,0.743 -0.961,2.059 -0.134,1.872 0.434,2.399 0.434,2.399"/></g><g id="g32"><path id="path34" style="fill:#141414;fill-opacity:1;fill-rule:nonzero;stroke:none" d="m 28.4072,22.3486 c 0,1.432 -1.16,2.592 -2.592,2.592 -1.431,0 -2.593,-1.16 -2.593,-2.592 0,-1.432 1.162,-2.592 2.593,-2.592 1.432,0 2.592,1.16 2.592,2.592"/><path id="path36" style="fill:#ffce10;fill-opacity:1;fill-rule:nonzero;stroke:none" d="m 28.0225,22.3486 c 0,1.219 -0.988,2.207 -2.207,2.207 -1.219,0 -2.207,-0.988 -2.207,-2.207 0,-1.219 0.988,-2.207 2.207,-2.207 1.219,0 2.207,0.988 2.207,2.207"/><path id="path38" style="fill:#ffce10;fill-opacity:1;fill-rule:nonzero;stroke:none" d="m 9.5308,23.6177 c 0,0 0.15,0.441 0.441,0.592 0.337,0.176 0.486,0.337 0.486,0.337 0,0 -0.064,-0.21 -0.048,-0.59 0.014,-0.327 -0.294,-0.677 -0.294,-0.677 0,0 0.351,0.307 0.678,0.293 0.38,-0.017 0.59,0.048 0.59,0.048 0,0 -0.161,-0.149 -0.337,-0.486 -0.151,-0.291 -0.592,-0.44 -0.592,-0.44 0,0 0.456,0.09 0.733,-0.085 0.321,-0.204 0.535,-0.253 0.535,-0.253 0,0 -0.214,-0.05 -0.535,-0.253 -0.277,-0.176 -0.733,-0.085 -0.733,-0.085 0,0 0.441,-0.15 0.592,-0.44 0.176,-0.337 0.337,-0.487 0.337,-0.487 0,0 -0.21,0.065 -0.59,0.048 -0.327,-0.014 -0.677,0.294 -0.677,0.294 0,0 0.307,-0.351 0.293,-0.678 -0.016,-0.379 0.048,-0.59 0.048,-0.59 0,0 -0.149,0.161 -0.486,0.337 -0.291,0.152 -0.44,0.593 -0.44,0.593 0,0 0.091,-0.457 -0.085,-0.733 -0.204,-0.321 -0.253,-0.536 -0.253,-0.536 0,0 -0.049,0.215 -0.253,0.536 -0.176,0.276 -0.085,0.733 -0.085,0.733 0,0 -0.15,-0.441 -0.44,-0.593 -0.337,-0.176 -0.487,-0.337 -0.487,-0.337 0,0 0.065,0.211 0.049,0.59 -0.014,0.327 0.293,0.677 0.293,0.677 0,0 -0.35,-0.307 -0.677,-0.293 -0.38,0.017 -0.59,-0.048 -0.59,-0.048 0,0 0.161,0.15 0.337,0.487 0.151,0.29 0.592,0.439 0.592,0.439 0,0 -0.457,-0.09 -0.733,0.086 -0.321,0.203 -0.535,0.253 -0.535,0.253 0,0 0.214,0.049 0.535,0.253 0.276,0.175 0.733,0.084 0.733,0.084 0,0 -0.441,0.15 -0.592,0.441 -0.176,0.337 -0.337,0.486 -0.337,0.486 0,0 0.21,-0.065 0.59,-0.048 0.327,0.014 0.676,-0.293 0.676,-0.293 0,0 -0.306,0.35 -0.292,0.677 0.016,0.38 -0.049,0.59 -0.049,0.59 0,0 0.15,-0.161 0.487,-0.337 0.29,-0.151 0.44,-0.592 0.44,-0.592 0,0 -0.091,0.457 0.085,0.733 0.204,0.32 0.253,0.535 0.253,0.535 0,0 0.049,-0.215 0.253,-0.535 0.176,-0.276 0.084,-0.733 0.084,-0.733"/><path id="path40" style="fill:#ffce10;fill-opacity:1;fill-rule:nonzero;stroke:none" d="m 6.5728,11.4316 c 0,0 -0.933,-0.488 -0.933,-1.633 0,-0.585 -0.386,-1.186 -1.08,-1.186 -0.594,0 -0.779,0.482 -0.779,0.482 0,0 -0.202,-0.19 -0.573,-0.71 -0.37,-0.519 -0.286,-0.604 -0.482,-0.604 -0.196,0 -0.069,0.371 0.329,0.795 0.397,0.423 0.694,0.587 0.694,0.587 0,0 -0.371,0.255 -0.371,0.902 0,0.646 0.895,1.056 1.637,1.022 1.034,-0.048 1.558,0.345 1.558,0.345"/><path id="path42" style="fill:#ffce10;fill-opacity:1;fill-rule:nonzero;stroke:none" d="m 29.4268,11.7314 c 0,0 0.933,-0.487 0.933,-1.632 0,-0.586 0.386,-1.187 1.081,-1.187 0.592,0 0.778,0.482 0.778,0.482 0,0 0.202,-0.19 0.572,-0.71 0.371,-0.519 0.286,-0.604 0.483,-0.604 0.196,0 0.069,0.371 -0.328,0.795 -0.398,0.423 -0.695,0.588 -0.695,0.588 0,0 0.371,0.254 0.371,0.901 0,0.646 -0.895,1.056 -1.637,1.022 -1.034,-0.048 -1.558,0.345 -1.558,0.345"/><path id="path44" style="fill:#ffce10;fill-opacity:1;fill-rule:nonzero;stroke:none" d="m 29.4268,24.5684 c 0,0 0.933,0.487 0.933,1.632 0,0.585 0.386,1.187 1.081,1.187 0.593,0 0.779,-0.483 0.779,-0.483 0,0 0.201,0.191 0.572,0.71 0.371,0.52 0.286,0.604 0.483,0.604 0.195,0 0.068,-0.37 -0.329,-0.794 -0.398,-0.424 -0.695,-0.588 -0.695,-0.588 0,0 0.371,-0.255 0.371,-0.901 0,-0.646 -0.895,-1.057 -1.636,-1.023 -1.034,0.048 -1.559,-0.344 -1.559,-0.344"/><path id="path46" style="fill:#ffce10;fill-opacity:1;fill-rule:nonzero;stroke:none" d="m 6.5732,24.5684 c 0,0 -0.933,0.487 -0.933,1.632 0,0.585 -0.386,1.187 -1.081,1.187 -0.593,0 -0.778,-0.483 -0.778,-0.483 0,0 -0.202,0.191 -0.573,0.71 -0.37,0.52 -0.286,0.604 -0.482,0.604 -0.196,0 -0.069,-0.37 0.329,-0.794 0.397,-0.424 0.694,-0.588 0.694,-0.588 0,0 -0.371,-0.255 -0.371,-0.901 0,-0.646 0.895,-1.057 1.637,-1.023 1.034,0.048 1.558,-0.344 1.558,-0.344"/></g></g></g></g></svg>