<svg xmlns:dc="http://purl.org/dc/elements/1.1/" xmlns:cc="http://creativecommons.org/ns#" xmlns:rdf="http://www.w3.org/1999/02/22-rdf-syntax-ns#" xmlns:svg="http://www.w3.org/2000/svg" xmlns="http://www.w3.org/2000/svg" viewBox="0 0 45 45" style="enable-background:new 0 0 45 45;" xml:space="preserve" version="1.1" id="svg2"><metadata id="metadata8"><rdf:RDF><cc:Work rdf:about=""><dc:format>image/svg+xml</dc:format><dc:type rdf:resource="http://purl.org/dc/dcmitype/StillImage"/></cc:Work></rdf:RDF></metadata><defs id="defs6"><clipPath id="clipPath16" clipPathUnits="userSpaceOnUse"><path id="path18" d="M 0,36 36,36 36,0 0,0 0,36 Z"/></clipPath></defs><g transform="matrix(1.25,0,0,-1.25,0,45)" id="g10"><g id="g12"><g xmlns="http://www.w3.org/2000/svg" clip-path="url(#clipPath16)" id="g14"><g id="g30"><path id="path20" style="fill:#dd2418;fill-opacity:1;fill-rule:nonzero;stroke:none" d="M 11.96,31 4,31 C 1.791,31 0,29.209 0,27 L 0,9 C 0,6.791 1.791,5 4,5 l 7.96,0 0,26 z"/><path id="path22" style="fill:#eeeeee;fill-opacity:1;fill-rule:nonzero;stroke:none" d="m 11.96,5 12.08,0 0,26 -12.08,0 0,-26 z"/><path id="path24" style="fill:#dd2418;fill-opacity:1;fill-rule:nonzero;stroke:none" d="M 24.04,5 32,5 c 2.209,0 4,1.791 4,4 l 0,18 c 0,2.209 -1.791,4 -4,4 l -7.96,0 0,-26 z"/></g><g id="g34"><path id="path30" style="fill:#009b3b;fill-opacity:1;fill-rule:nonzero;stroke:none" d="m 18,10.8232 c 0,0 -0.36,0.622 -1.229,0.806 -0.457,0.096 -0.923,0.187 -1.329,0.389 0,0 0.286,0.344 0.85,0.533 0.565,0.188 1.012,-0.008 1.012,-0.008 0,0 0.341,0.167 0.696,0.167 0.355,0 0.696,-0.167 0.696,-0.167 0,0 0.448,0.196 1.012,0.008 0.564,-0.189 0.85,-0.533 0.85,-0.533 -0.407,-0.202 -0.872,-0.293 -1.329,-0.389 C 18.36,11.4452 18,10.8232 18,10.8232"/><path id="path32" style="fill:#dd2418;fill-opacity:1;fill-rule:nonzero;stroke:none" d="m 18,19.5454 c 0,0 -0.417,-0.222 -1.341,-0.222 -0.612,0 -1.3,0.212 -1.3,0.212 l -0.782,-0.871 c 0,0 0.529,-0.617 0.529,-1.359 0,-1.582 -1.301,-2.349 -0.673,-4.127 0.214,-0.606 0.578,-0.946 1.009,-1.16 0,0 0.286,0.344 0.85,0.532 0.565,0.189 1.012,-0.007 1.012,-0.007 0,0 0.341,0.167 0.696,0.167 0.355,0 0.696,-0.167 0.696,-0.167 0,0 0.448,0.196 1.012,0.007 0.564,-0.188 0.85,-0.532 0.85,-0.532 0.431,0.214 0.795,0.554 1.008,1.16 0.628,1.778 -0.671,2.545 -0.671,4.127 0,0.742 0.529,1.359 0.529,1.359 l -0.782,0.871 c 0,0 -0.689,-0.212 -1.301,-0.212 -0.924,0 -1.341,0.222 -1.341,0.222"/><path id="path34" style="fill:#e5cf8f;fill-opacity:1;fill-rule:nonzero;stroke:none" d="m 20.9707,19.7959 0,1.267 c 0,0 -0.433,2.761 -2.971,2.761 -2.538,0 -2.97,-2.761 -2.97,-2.761 l 0,-1.267 5.941,0 z"/><path id="path36" style="fill:#e5cf8f;fill-opacity:1;fill-rule:nonzero;stroke:none" d="m 18.1284,23.8564 c -0.088,-0.059 -0.208,-0.035 -0.267,0.053 -0.034,0.053 -0.04,0.117 -0.021,0.172 l -0.289,0.437 -0.23,-0.154 c -0.004,-0.044 -0.028,-0.087 -0.068,-0.114 -0.072,-0.048 -0.168,-0.028 -0.216,0.043 -0.047,0.072 -0.028,0.168 0.044,0.216 0.04,0.026 0.088,0.033 0.13,0.02 l 0.23,0.153 -0.167,0.252 c -0.037,0.009 -0.07,0.031 -0.093,0.065 -0.048,0.071 -0.028,0.168 0.044,0.215 0.071,0.048 0.168,0.029 0.215,-0.043 0.022,-0.034 0.03,-0.073 0.024,-0.11 l 0.167,-0.253 0.231,0.154 c 0.005,0.044 0.029,0.086 0.069,0.112 0.071,0.048 0.168,0.029 0.215,-0.043 0.048,-0.071 0.028,-0.168 -0.043,-0.216 -0.04,-0.026 -0.089,-0.032 -0.132,-0.019 l -0.23,-0.152 0.29,-0.436 c 0.059,-0.003 0.116,-0.033 0.151,-0.085 0.058,-0.089 0.034,-0.208 -0.054,-0.267"/></g></g></g></g></svg>