<svg xmlns:dc="http://purl.org/dc/elements/1.1/" xmlns:cc="http://creativecommons.org/ns#" xmlns:rdf="http://www.w3.org/1999/02/22-rdf-syntax-ns#" xmlns:svg="http://www.w3.org/2000/svg" xmlns="http://www.w3.org/2000/svg" viewBox="0 0 45 45" style="enable-background:new 0 0 45 45;" xml:space="preserve" version="1.1" id="svg2"><metadata id="metadata8"><rdf:RDF><cc:Work rdf:about=""><dc:format>image/svg+xml</dc:format><dc:type rdf:resource="http://purl.org/dc/dcmitype/StillImage"/></cc:Work></rdf:RDF></metadata><defs id="defs6"><clipPath id="clipPath16" clipPathUnits="userSpaceOnUse"><path id="path18" d="M 0,36 36,36 36,0 0,0 0,36 Z"/></clipPath></defs><g transform="matrix(1.25,0,0,-1.25,0,45)" id="g10"><g id="g12"><g xmlns="http://www.w3.org/2000/svg" clip-path="url(#clipPath16)" id="g14"><g id="g30"><path id="path20" style="fill:#eeeeee;fill-opacity:1;fill-rule:nonzero;stroke:none" d="M 32,31 4,31 C 1.791,31 0,29.209 0,27 L 0,9 C 0,6.791 1.791,5 4,5 l 28,0 c 2.209,0 4,1.791 4,4 l 0,18 c 0,2.209 -1.791,4 -4,4"/></g><g id="g32"><path id="path30" style="fill:#a49c00;fill-opacity:1;fill-rule:nonzero;stroke:none" d="m 9.8677,12.1533 5.727,0.312 0,2.041 c 0,1.459 2.094,1.535 2.094,1.535 0,0 1.343,-0.183 1.343,-1.492 l 0,-1.427 1.712,-0.152 8.751,0.539 c 1.67,0.889 2.716,1.973 2.873,3.145 l -11.144,1.395 0,1.133 -1.933,0.344 0,0.118 -0.299,0.05 0,0.097 -0.274,0.065 0,0.103 -0.2,0.047 0,0.108 -0.156,0.041 0,2.057 -0.128,0 0,-2.05 -0.165,0.04 0,-0.11 -0.212,0.019 0,-0.113 -0.31,0.054 0,-0.125 -0.333,0.055 0,-0.09 -2.274,0.372 -1.507,-0.49 0,-0.745 -7.487,0.939 c -1.475,-0.905 -2.334,-1.982 -2.334,-3.133 0,-0.712 0.339,-1.411 1.007,-2.077 1.099,-1.093 2.945,-1.985 5.249,-2.605"/><path id="path32" style="fill:#024d96;fill-opacity:1;fill-rule:nonzero;stroke:none" d="m 18.1626,22.6255 c -0.054,0 -0.107,0 -0.162,0 -7.934,-0.036 -14.389,-2.633 -14.389,-5.791 0,-0.711 0.339,-1.41 1.007,-2.076 2.215,-2.204 7.468,-3.589 13.38,-3.585 7.935,0.035 14.39,2.632 14.39,5.79 0,0.712 -0.339,1.411 -1.007,2.076 -2.193,2.184 -7.371,3.586 -13.219,3.586 m -0.326,-11.952 c -5.973,0 -11.288,1.458 -13.57,3.732 -0.767,0.762 -1.155,1.58 -1.155,2.429 0,3.491 6.539,6.254 14.887,6.291 6.031,0.025 11.433,-1.438 13.737,-3.732 0.765,-0.762 1.153,-1.58 1.153,-2.43 0,-3.491 -6.539,-6.254 -14.888,-6.29 l -0.164,0 z"/><path id="path34" style="fill:#a49c00;fill-opacity:1;fill-rule:nonzero;stroke:none" d="m 18,24.2378 c -8.822,0 -16,-3.292 -16,-7.338 0,-4.047 7.178,-7.339 16,-7.339 8.822,0 16,3.292 16,7.339 0,4.046 -7.178,7.338 -16,7.338 m 0,-15.177 c -9.098,0 -16.5,3.516 -16.5,7.839 0,4.322 7.402,7.838 16.5,7.838 9.098,0 16.5,-3.516 16.5,-7.838 0,-4.323 -7.402,-7.839 -16.5,-7.839"/><path id="path36" style="fill:#ab0519;fill-opacity:1;fill-rule:nonzero;stroke:none" d="m 18.6787,21.4019 c 0.133,-0.01 0.057,-0.002 0.119,-0.016 0.063,-0.013 0.153,-0.074 0.23,-0.043 0.106,0.043 0.12,-0.068 0.517,-0.074 0.171,-0.003 0.265,-0.045 0.265,-0.045 0,0 -0.09,0.138 -0.119,0.229 -0.043,0.134 -0.101,0.106 -0.113,0.214 -0.011,0.108 -0.089,0.247 -0.089,0.247 0,0 -0.073,0.061 -0.169,0.074 -0.101,0.015 -0.209,0.018 -0.335,0.049 -0.177,0.046 -0.245,0.014 -0.391,0.048 l 0.177,-0.091 -0.104,-0.073 0.11,-0.052 -0.107,-0.067 0.135,-0.05 -0.091,-0.059 0.146,-0.073 -0.139,-0.067 0.142,-0.067 -0.184,-0.084 z"/><path id="path38" style="fill:#ffffff;fill-opacity:1;fill-rule:nonzero;stroke:none" d="m 18.6787,21.4019 c -0.134,0.01 -0.317,0.055 -0.317,0.055 l 0,0.755 c 0,0 0.088,-0.094 0.232,-0.127 l 0.177,-0.091 -0.104,-0.073 0.11,-0.052 -0.107,-0.067 0.135,-0.05 -0.091,-0.059 0.146,-0.073 -0.139,-0.067 0.142,-0.067 -0.184,-0.084 z"/></g><g id="g34"><path id="path40" style="fill:#cf0821;fill-opacity:1;fill-rule:nonzero;stroke:none" d="m 16.7754,28.4971 c 0.012,-0.335 0.077,-0.811 0.297,-1.321 0.342,-0.788 1.145,-1.41 1.145,-1.41 0,0 0.804,0.622 1.146,1.41 0.221,0.51 0.285,0.986 0.297,1.321 l -0.299,-0.486 -0.286,0.486 -0.286,-0.486 -0.286,0.486 -0.286,-0.486 -0.286,0.486 -0.286,-0.486 -0.286,0.486 -0.286,-0.486 -0.298,0.486 z"/><path id="path42" style="fill:#ffffff;fill-opacity:1;fill-rule:nonzero;stroke:none" d="m 19.6602,28.4971 c 0.011,0.298 -0.021,0.485 -0.021,0.485 l -2.843,0 c 0,0 -0.032,-0.187 -0.021,-0.485 l 0.299,-0.486 0.285,0.486 0.286,-0.486 0.286,0.486 0.286,-0.486 0.286,0.486 0.286,-0.486 0.286,0.486 0.286,-0.486 0.299,0.486 z"/></g><g id="g36"><path id="path50" style="fill:#024d96;fill-opacity:1;fill-rule:nonzero;stroke:none" d="m 12.1992,7.1709 c -4.8,0.725 -8.88,2.337 -11.488,4.539 l 0.967,1.147 c 2.4,-2.027 6.215,-3.519 10.745,-4.204 l -0.224,-1.482 z"/><path id="path52" style="fill:#024d96;fill-opacity:1;fill-rule:nonzero;stroke:none" d="m 18,6.7451 c -1.549,0 -3.085,0.088 -4.566,0.26 l 0.174,1.49 c 1.423,-0.166 2.9,-0.25 4.392,-0.25 6.72,0 12.742,1.703 16.11,4.556 l 0.969,-1.145 C 31.449,8.5811 25.064,6.7451 18,6.7451"/><path id="path54" style="fill:#024d96;fill-opacity:1;fill-rule:nonzero;stroke:none" d="m 33.6055,21.4219 c -2.663,2.363 -7.302,4.074 -12.409,4.579 l 0.148,1.493 c 5.41,-0.535 10.365,-2.385 13.257,-4.95 l -0.996,-1.122 z"/><path id="path56" style="fill:#024d96;fill-opacity:1;fill-rule:nonzero;stroke:none" d="m 2.5239,21.4697 -0.993,1.124 c 2.951,2.608 8.001,4.454 13.51,4.936 l 0.131,-1.495 c -5.2,-0.455 -9.929,-2.161 -12.648,-4.565"/></g></g></g></g></svg>