<svg xmlns:dc="http://purl.org/dc/elements/1.1/" xmlns:cc="http://creativecommons.org/ns#" xmlns:rdf="http://www.w3.org/1999/02/22-rdf-syntax-ns#" xmlns:svg="http://www.w3.org/2000/svg" xmlns="http://www.w3.org/2000/svg" viewBox="0 0 45 45" style="enable-background:new 0 0 45 45;" xml:space="preserve" version="1.1" id="svg2"><metadata id="metadata8"><rdf:RDF><cc:Work rdf:about=""><dc:format>image/svg+xml</dc:format><dc:type rdf:resource="http://purl.org/dc/dcmitype/StillImage"/></cc:Work></rdf:RDF></metadata><defs id="defs6"><clipPath id="clipPath16" clipPathUnits="userSpaceOnUse"><path id="path18" d="M 0,36 36,36 36,0 0,0 0,36 Z"/></clipPath></defs><g transform="matrix(1.25,0,0,-1.25,0,45)" id="g10"><g id="g12"><g clip-path="url(#clipPath16)" id="g14"><g id="g20"><path id="path22" style="fill:#002395;fill-opacity:1;fill-rule:nonzero;stroke:none" d="M 36,9 C 36,6.791 34.209,5 32,5 H 4 C 1.791,5 0,6.791 0,9 v 18 c 0,2.209 1.791,4 4,4 h 28 c 2.209,0 4,-1.791 4,-4 z"/></g><g id="g24"><path id="path26" style="fill:#ffd203;fill-opacity:1;fill-rule:nonzero;stroke:none" d="m 18,6.624 c 0,0 -0.331,0.286 -0.44,0.744 -0.111,0.46 -0.06,1.347 -0.06,1.347 0,0 -0.278,-0.237 -0.758,-0.299 -0.582,-0.075 -0.854,0.111 -0.854,0.111 0,0 0.519,0.231 0.873,0.633 0.332,0.376 0.404,0.685 0.404,0.685 h -0.949 v 0.701 h 0.39 c 0,0 -0.002,0.91 -0.381,1.425 -0.226,0.305 -0.643,0.629 -0.943,0.629 -0.322,0 -0.515,-0.363 -0.515,-0.596 0,-0.307 0.278,-0.944 0.278,-0.944 0,0 -2.043,0.599 -2.043,2.494 0,0.697 0.697,1.388 1.367,1.388 1.057,0 1.734,-0.789 2.148,-1.592 0.75,-1.457 0.774,-2.804 0.774,-2.804 h 0.251 c 0,0 0.076,1.4 -0.363,2.608 -0.358,0.988 -0.659,1.715 -0.659,2.812 0,1.076 0.391,1.843 0.783,2.39 0.373,0.522 0.697,0.848 0.697,0.848 0,0 0.324,-0.326 0.697,-0.848 0.392,-0.547 0.783,-1.314 0.783,-2.39 0,-1.097 -0.301,-1.824 -0.659,-2.812 -0.439,-1.208 -0.363,-2.608 -0.363,-2.608 h 0.251 c 0,0 0.024,1.347 0.774,2.804 0.414,0.803 1.09,1.592 2.149,1.592 0.669,0 1.366,-0.691 1.366,-1.388 0,-1.895 -2.044,-2.494 -2.044,-2.494 0,0 0.279,0.637 0.279,0.944 0,0.233 -0.193,0.596 -0.515,0.596 -0.299,0 -0.717,-0.324 -0.943,-0.629 -0.379,-0.515 -0.381,-1.425 -0.381,-1.425 h 0.39 V 9.845 h -0.949 c 0,0 0.072,-0.309 0.403,-0.685 0.356,-0.402 0.873,-0.633 0.873,-0.633 0,0 -0.271,-0.186 -0.853,-0.111 -0.48,0.062 -0.757,0.299 -0.757,0.299 0,0 0.05,-0.887 -0.061,-1.347 C 18.331,6.91 18,6.624 18,6.624"/></g><g id="g28"><path id="path30" style="fill:#ffd203;fill-opacity:1;fill-rule:nonzero;stroke:none" d="m 7.9927,15.2627 c 0,0 0.33,0.286 0.44,0.744 0.111,0.46 0.06,1.348 0.06,1.348 0,0 0.278,-0.238 0.758,-0.299 0.582,-0.076 0.854,0.11 0.854,0.11 0,0 -0.519,0.231 -0.873,0.633 -0.332,0.376 -0.404,0.685 -0.404,0.685 h 0.949 v 0.701 h -0.39 c 0,0 0.002,0.91 0.381,1.425 0.226,0.305 0.643,0.629 0.943,0.629 0.322,0 0.515,-0.362 0.515,-0.596 0,-0.307 -0.278,-0.944 -0.278,-0.944 0,0 2.043,0.599 2.043,2.494 0,0.697 -0.697,1.388 -1.367,1.388 -1.057,0 -1.734,-0.789 -2.148,-1.592 -0.75,-1.457 -0.774,-2.804 -0.774,-2.804 h -0.251 c 0,0 -0.076,1.401 0.363,2.609 0.358,0.987 0.659,1.715 0.659,2.81 0,1.077 -0.391,1.844 -0.783,2.391 -0.373,0.522 -0.697,0.848 -0.697,0.848 0,0 -0.324,-0.326 -0.697,-0.848 -0.392,-0.547 -0.783,-1.314 -0.783,-2.391 0,-1.095 0.301,-1.823 0.659,-2.81 0.439,-1.208 0.363,-2.609 0.363,-2.609 h -0.251 c 0,0 -0.024,1.347 -0.774,2.804 -0.414,0.803 -1.091,1.592 -2.148,1.592 -0.67,0 -1.367,-0.691 -1.367,-1.388 0,-1.895 2.043,-2.494 2.043,-2.494 0,0 -0.278,0.637 -0.278,0.944 0,0.234 0.193,0.596 0.515,0.596 0.3,0 0.718,-0.324 0.943,-0.629 0.379,-0.515 0.381,-1.425 0.381,-1.425 h -0.39 v -0.701 h 0.949 c 0,0 -0.072,-0.309 -0.404,-0.685 -0.354,-0.402 -0.873,-0.633 -0.873,-0.633 0,0 0.272,-0.186 0.854,-0.11 0.48,0.061 0.758,0.299 0.758,0.299 0,0 -0.051,-0.888 0.06,-1.348 0.11,-0.458 0.44,-0.744 0.44,-0.744"/></g><g id="g32"><path id="path34" style="fill:#ffd203;fill-opacity:1;fill-rule:nonzero;stroke:none" d="m 28.0078,15.2627 c 0,0 -0.331,0.286 -0.441,0.744 -0.111,0.46 -0.06,1.348 -0.06,1.348 0,0 -0.277,-0.238 -0.757,-0.299 -0.583,-0.076 -0.854,0.11 -0.854,0.11 0,0 0.518,0.231 0.873,0.633 0.332,0.376 0.403,0.685 0.403,0.685 h -0.948 v 0.701 h 0.39 c 0,0 -0.002,0.91 -0.382,1.425 -0.225,0.305 -0.643,0.629 -0.943,0.629 -0.321,0 -0.514,-0.362 -0.514,-0.596 0,-0.307 0.278,-0.944 0.278,-0.944 0,0 -2.043,0.599 -2.043,2.494 0,0.697 0.697,1.388 1.366,1.388 1.058,0 1.735,-0.789 2.149,-1.592 0.75,-1.457 0.773,-2.804 0.773,-2.804 h 0.252 c 0,0 0.075,1.401 -0.363,2.609 -0.359,0.987 -0.66,1.715 -0.66,2.81 0,1.077 0.392,1.844 0.784,2.391 0.373,0.522 0.697,0.848 0.697,0.848 0,0 0.323,-0.326 0.696,-0.848 0.392,-0.547 0.784,-1.314 0.784,-2.391 0,-1.095 -0.301,-1.823 -0.66,-2.81 -0.438,-1.208 -0.363,-2.609 -0.363,-2.609 h 0.252 c 0,0 0.023,1.347 0.773,2.804 0.414,0.803 1.091,1.592 2.149,1.592 0.669,0 1.366,-0.691 1.366,-1.388 0,-1.895 -2.043,-2.494 -2.043,-2.494 0,0 0.278,0.637 0.278,0.944 0,0.234 -0.193,0.596 -0.514,0.596 -0.3,0 -0.718,-0.324 -0.943,-0.629 -0.379,-0.515 -0.382,-1.425 -0.382,-1.425 h 0.39 v -0.701 h -0.948 c 0,0 0.071,-0.309 0.403,-0.685 0.355,-0.402 0.873,-0.633 0.873,-0.633 0,0 -0.271,-0.186 -0.854,-0.11 -0.48,0.061 -0.757,0.299 -0.757,0.299 0,0 0.051,-0.888 -0.06,-1.348 -0.11,-0.458 -0.44,-0.744 -0.44,-0.744"/></g></g></g></g></svg>