<svg xmlns:dc="http://purl.org/dc/elements/1.1/" xmlns:cc="http://creativecommons.org/ns#" xmlns:rdf="http://www.w3.org/1999/02/22-rdf-syntax-ns#" xmlns:svg="http://www.w3.org/2000/svg" xmlns="http://www.w3.org/2000/svg" viewBox="0 0 45 45" style="enable-background:new 0 0 45 45;" xml:space="preserve" version="1.1" id="svg2"><metadata id="metadata8"><rdf:RDF><cc:Work rdf:about=""><dc:format>image/svg+xml</dc:format><dc:type rdf:resource="http://purl.org/dc/dcmitype/StillImage"/></cc:Work></rdf:RDF></metadata><defs id="defs6"><clipPath id="clipPath16" clipPathUnits="userSpaceOnUse"><path id="path18" d="M 0,36 36,36 36,0 0,0 0,36 Z"/></clipPath></defs><g transform="matrix(1.25,0,0,-1.25,0,45)" id="g10"><g id="g12"><g xmlns="http://www.w3.org/2000/svg" clip-path="url(#clipPath16)" id="g14"><g id="g30"><path id="path20" style="fill:#0c2d83;fill-opacity:1;fill-rule:nonzero;stroke:none" d="M 0,9 C 0,6.791 1.791,5 4,5 l 28,0 c 2.209,0 4,1.791 4,4 l 0,18 c 0,2.209 -1.791,4 -4,4 L 4,31 C 1.791,31 0,29.209 0,27 L 0,9 z"/></g><g id="g34"><path id="path30" style="fill:#ffffff;fill-opacity:1;fill-rule:nonzero;stroke:none" d="m 30.3984,14.5703 -1.071,-0.878 c 0,0 0.361,-0.142 0.816,-0.4 0.454,-0.259 0.631,-0.424 0.631,-0.424 0,0 -0.737,0.083 -2.208,-0.156 -0.95,-0.155 -1.397,-0.333 -1.886,-0.381 -0.393,-0.038 -0.506,0.071 -0.506,0.071 l -0.313,0.686 c 0,0 -0.085,0.032 -0.265,-0.03 -0.178,-0.061 -0.217,-0.117 -0.217,-0.117 l 0.274,-0.735 c 0,0 0.181,-0.366 -0.789,-0.829 -0.619,-0.297 -1.248,-0.436 -1.725,-0.603 -0.686,-0.239 -0.953,-0.362 -0.953,-0.362 l -0.998,-2.365 c 0,0 -0.782,-0.347 -1.818,0.064 -1.035,0.412 -1.718,0.918 -3.635,0.918 -1.205,0 -1.799,0.043 -2.294,0.298 -0.742,0.383 -1.04,1.031 -1.04,1.031 l 0.272,0.403 c 0,0 -0.498,0.025 -1.44,0.241 -0.804,0.184 -1.361,0.862 -1.361,0.862 l 0.326,1.048 c 0,0 -0.564,0.151 -1.845,0.058 -1.542,-0.112 -3.106,0.442 -3.106,0.442 l 1.462,0.676 c 0,0 -0.212,0.138 -0.612,0.508 -0.4,0.371 -0.433,0.619 -0.433,0.619 0,0 1.059,-0.351 1.936,-0.351 0.876,0 0.788,0.036 1.711,0.036 0.977,0 1.295,-0.241 1.9,-0.241 l 0.889,0 c 0,0 0.251,-0.018 0.419,-0.146 0.169,-0.127 0.135,-0.284 0.135,-0.284 l -0.494,-1.343 c 0,0 0.359,-0.045 0.881,-0.045 0.522,0 1.573,0.009 2.011,-0.236 0.365,-0.203 0.15,-0.525 0.15,-0.525 l -0.494,-1.043 c 0,0 1.751,-0.05 2.968,-0.243 0.743,-0.118 1.159,-0.305 1.588,-0.467 0.366,-0.139 0.708,-0.255 0.708,-0.255 l -0.345,0.85 c 0,0 1.02,0.801 1.873,1.201 0.447,0.21 1.09,0.381 1.676,0.577 0.531,0.177 1.037,0.401 1.037,0.401 l -0.451,0.869 c 0,0 0.008,0.403 0.667,0.698 1.118,0.499 1.571,0.137 1.571,0.137 l 0.218,-0.761 c 0,0 1.064,0.481 2.005,0.668 0.532,0.105 1.073,0.067 1.509,-0.05 0.297,-0.079 0.666,-0.092 0.666,-0.092"/><path id="path31" style="fill:#129612;fill-opacity:1;fill-rule:nonzero;stroke:none" d="m 18,26.0942 c 0,0 -1.135,0.253 -1.469,0.047 -0.333,-0.206 -0.388,-0.159 -0.409,-0.089 -0.022,0.071 -0.067,0.101 -0.324,0.103 -0.257,10e-4 -0.343,0.088 -0.343,0.088 0,0 0.061,0.164 0.241,0.265 0.18,0.1 0.484,0.072 0.484,0.072 0,0 -0.074,0.186 -0.215,0.245 -0.141,0.059 -0.408,0.098 -0.408,0.098 0,0 0.151,0.243 0.459,0.41 0.308,0.167 0.615,0.13 0.615,0.13 0,0 -0.027,0.074 -0.033,0.123 -0.006,0.049 0.012,0.07 0.012,0.07 0,0 0.127,-0.119 0.369,-0.143 0.241,-0.023 0.446,-0.135 0.488,-0.127 0.041,0.008 0.121,0.185 0.217,0.359 0.096,0.174 0.316,0.206 0.316,0.206 0,0 0.22,-0.032 0.316,-0.206 0.096,-0.174 0.176,-0.351 0.217,-0.359 0.041,-0.008 0.247,0.104 0.488,0.127 0.242,0.024 0.37,0.143 0.37,0.143 0,0 0.017,-0.021 0.011,-0.07 -0.006,-0.049 -0.034,-0.123 -0.034,-0.123 0,0 0.309,0.037 0.616,-0.13 0.308,-0.167 0.459,-0.41 0.459,-0.41 0,0 -0.266,-0.039 -0.408,-0.098 -0.14,-0.059 -0.216,-0.245 -0.216,-0.245 0,0 0.304,0.028 0.485,-0.072 0.18,-0.101 0.241,-0.265 0.241,-0.265 0,0 -0.086,-0.087 -0.343,-0.088 -0.257,-0.002 -0.302,-0.032 -0.323,-0.103 -0.023,-0.07 -0.077,-0.117 -0.41,0.089 C 19.136,26.3472 18,26.0942 18,26.0942"/><path id="path32" style="fill:#129612;fill-opacity:1;fill-rule:nonzero;stroke:none" d="m 24.9688,20.4961 c 0,0 -0.107,-0.555 -0.033,-0.608 0.073,-0.053 0.294,-0.015 0.423,-0.067 0.13,-0.054 0.508,-0.459 0.508,-0.459 0,0 -0.231,-0.35 -0.478,-0.35 -0.247,0 -0.444,0.326 -0.618,0.329 -0.174,0.003 -0.232,-0.131 -0.068,-0.259 0.534,-0.415 0.35,-0.606 0.35,-0.606 0,0 -0.082,0.068 -0.329,0.098 -0.247,0.029 -0.738,0.414 -0.738,0.414 l 0.12,0.7 0.863,0.808 z"/><path id="path33" style="fill:#129612;fill-opacity:1;fill-rule:nonzero;stroke:none" d="m 11.0312,20.4961 c 0,0 0.107,-0.555 0.034,-0.608 -0.074,-0.053 -0.295,-0.015 -0.424,-0.067 -0.13,-0.054 -0.509,-0.459 -0.509,-0.459 0,0 0.232,-0.35 0.479,-0.35 0.248,0 0.444,0.326 0.618,0.329 0.174,0.003 0.232,-0.131 0.068,-0.259 -0.534,-0.415 -0.35,-0.606 -0.35,-0.606 0,0 0.082,0.068 0.329,0.098 0.247,0.029 0.738,0.414 0.738,0.414 l -0.12,0.7 -0.863,0.808 z"/><path id="path34" style="fill:#129612;fill-opacity:1;fill-rule:nonzero;stroke:none" d="m 22.2021,15.3848 c 0,0 0.403,-0.112 0.479,-0.202 0.074,-0.091 0.009,-0.14 0.132,-0.302 0.124,-0.163 0.077,-0.271 0.077,-0.271 0,0 -0.059,-0.051 -0.249,-0.008 -0.19,0.044 -0.269,-0.01 -0.015,-0.203 0.253,-0.195 0.195,-0.214 0.211,-0.42 0.015,-0.206 0.079,-0.414 0.079,-0.414 0,0 -0.159,-0.098 -0.465,-0.018 -0.306,0.081 -0.288,0.222 -0.306,0.379 -0.017,0.156 -0.171,0.384 -0.293,0.351 -0.121,-0.034 0.033,-0.419 0.038,-0.612 0.008,-0.301 -0.256,-0.27 -0.256,-0.27 0,0 -0.011,0.125 -0.128,0.243 -0.234,0.234 0.026,0.47 -0.008,0.553 -0.045,0.109 -0.568,0.188 -0.568,0.188 l 1.272,1.006 z"/><path id="path35" style="fill:#129612;fill-opacity:1;fill-rule:nonzero;stroke:none" d="m 13.7979,15.3848 c 0,0 -0.404,-0.112 -0.478,-0.202 -0.075,-0.091 -0.01,-0.14 -0.134,-0.302 -0.123,-0.163 -0.076,-0.271 -0.076,-0.271 0,0 0.059,-0.051 0.249,-0.008 0.19,0.044 0.269,-0.01 0.016,-0.203 -0.253,-0.195 -0.197,-0.214 -0.212,-0.42 -0.016,-0.206 -0.078,-0.414 -0.078,-0.414 0,0 0.158,-0.098 0.464,-0.018 0.306,0.081 0.289,0.222 0.306,0.379 0.018,0.156 0.171,0.384 0.292,0.351 0.122,-0.034 -0.032,-0.419 -0.037,-0.612 -0.008,-0.301 0.257,-0.27 0.257,-0.27 0,0 0.01,0.125 0.127,0.243 0.234,0.234 -0.026,0.47 0.008,0.553 0.045,0.109 0.569,0.188 0.569,0.188 l -1.273,1.006 z"/><path id="path36" style="fill:#ffffff;fill-opacity:1;fill-rule:nonzero;stroke:none" d="m 18,11.6143 c 0,0 -0.06,0.157 -0.5,0.531 -0.259,0.219 -0.974,0.504 -1.526,0.737 -0.968,0.406 -1.312,0.694 -1.312,0.694 l 0.252,0.22 0.009,0.717 -1.75,0.69 -0.453,-0.455 c 0,0 -1.671,0.595 -2.044,1.61 -0.517,1.412 0.028,2.318 0.028,2.318 l 1.268,-0.022 -0.077,1.034 -0.864,0.808 c 0,0 0.624,0.243 0.928,1.027 0.282,0.73 0.284,1.592 -0.165,2.144 -0.688,0.847 -1.113,0.483 -1.113,0.483 0,0 0.096,-0.283 -0.398,-0.4 -0.136,-0.032 -0.319,0.155 -0.363,0.353 -0.057,0.262 0.101,0.526 0.454,0.914 0.514,0.568 0.928,0.477 1.326,0.762 0.538,0.385 1.141,1.412 1.668,1.412 0.088,0 0.293,-0.037 0.42,-0.212 0.077,-0.105 0.112,-0.231 0.112,-0.509 0,-0.345 -0.28,-0.539 -0.28,-0.539 0,0 0.306,-0.62 1.463,-0.62 0.495,0 0.926,0.18 1.197,0.354 0.444,0.285 0.557,0.622 0.557,0.622 l 1.163,0.126 1.163,-0.126 c 0,0 0.113,-0.337 0.557,-0.622 0.271,-0.174 0.702,-0.354 1.198,-0.354 1.156,0 1.462,0.62 1.462,0.62 0,0 -0.28,0.194 -0.28,0.539 0,0.278 0.036,0.404 0.112,0.509 0.127,0.175 0.333,0.212 0.421,0.212 0.526,0 1.129,-1.027 1.667,-1.412 0.398,-0.285 0.811,-0.194 1.327,-0.762 0.352,-0.388 0.51,-0.652 0.452,-0.914 -0.043,-0.198 -0.226,-0.385 -0.362,-0.353 -0.494,0.117 -0.398,0.4 -0.398,0.4 0,0 -0.424,0.364 -1.113,-0.483 -0.448,-0.552 -0.447,-1.414 -0.165,-2.144 0.304,-0.784 0.928,-1.027 0.928,-1.027 l -0.864,-0.808 -0.077,-1.034 1.268,0.022 c 0,0 0.545,-0.906 0.027,-2.318 -0.372,-1.015 -2.044,-1.61 -2.044,-1.61 l -0.453,0.455 -1.75,-0.69 0.011,-0.717 0.251,-0.22 c 0,0 -0.344,-0.288 -1.312,-0.694 -0.551,-0.233 -1.267,-0.518 -1.526,-0.737 -0.44,-0.374 -0.5,-0.531 -0.5,-0.531"/><path id="path37" style="fill:#ffd312;fill-opacity:1;fill-rule:nonzero;stroke:none" d="m 18.6133,26.5249 c 0.039,0.184 0.13,0.345 0.325,0.343 0.312,-0.003 0.369,-0.625 0.132,-0.625 -0.137,0 -0.182,0.202 -0.182,0.202 0,0 -0.124,-0.483 0.517,-0.956 0.344,-0.254 1.03,-0.542 1.577,-0.542 0.813,0 1.347,0.447 1.674,0.854 0.417,0.521 0.307,1.243 0.307,1.243 l 0.234,-0.233 c 0,0 0.118,-0.946 -0.516,-1.58 -0.351,-0.352 -0.993,-0.672 -1.705,-0.672 -0.778,0 -1.415,0.324 -1.799,0.637 -0.454,0.371 -0.578,0.787 -0.578,0.787 l 0.014,0.542 z"/><path id="path38" style="fill:#ffd312;fill-opacity:1;fill-rule:nonzero;stroke:none" d="m 17.3867,26.5249 c -0.04,0.184 -0.13,0.345 -0.325,0.343 -0.312,-0.003 -0.369,-0.625 -0.133,-0.625 0.138,0 0.183,0.202 0.183,0.202 0,0 0.124,-0.483 -0.517,-0.956 -0.343,-0.254 -1.03,-0.542 -1.577,-0.542 -0.813,0 -1.347,0.447 -1.673,0.854 -0.418,0.521 -0.307,1.243 -0.307,1.243 l -0.234,-0.233 c 0,0 -0.12,-0.946 0.515,-1.58 0.351,-0.352 0.993,-0.672 1.705,-0.672 0.778,0 1.415,0.324 1.798,0.637 0.455,0.371 0.578,0.787 0.578,0.787 l -0.013,0.542 z"/><path id="path39" style="fill:#ffd312;fill-opacity:1;fill-rule:nonzero;stroke:none" d="m 26.0449,24.3096 c 0,0 0.052,0.009 -0.058,0.232 -0.109,0.224 -0.257,0.241 -0.257,0.241 0,0 -0.338,0.058 -0.767,-0.028 -0.567,-0.113 -1.327,-0.514 -1.716,-1.554 -0.28,-0.751 -0.22,-1.389 -0.07,-1.891 0.222,-0.748 0.659,-1.191 0.659,-1.191 l 0.31,0.277 c 0,0 -0.461,0.377 -0.578,1.263 -0.049,0.382 -0.076,0.901 0.093,1.465 0.292,0.978 0.882,1.304 1.353,1.361 0.531,0.064 1.031,-0.175 1.031,-0.175"/><path id="path40" style="fill:#ffd312;fill-opacity:1;fill-rule:nonzero;stroke:none" d="m 9.9546,24.3096 c 0,0 -0.051,0.009 0.058,0.232 0.109,0.224 0.258,0.241 0.258,0.241 0,0 0.338,0.058 0.767,-0.028 0.567,-0.113 1.327,-0.514 1.715,-1.554 0.281,-0.751 0.22,-1.389 0.071,-1.891 -0.223,-0.748 -0.66,-1.191 -0.66,-1.191 l -0.309,0.277 c 0,0 0.46,0.377 0.577,1.263 0.05,0.382 0.076,0.901 -0.092,1.465 -0.293,0.978 -0.883,1.304 -1.353,1.361 -0.532,0.064 -1.032,-0.175 -1.032,-0.175"/><path id="path41" style="fill:#ffd312;fill-opacity:1;fill-rule:nonzero;stroke:none" d="m 24.5781,18.5059 c 0,0 0.336,-0.567 0.259,-1.241 -0.058,-0.506 -0.309,-0.967 -0.743,-1.362 -0.612,-0.556 -1.268,-0.7 -1.268,-0.7 l 0.305,-0.312 c 0,0 0.848,0.454 1.413,1.021 0.446,0.448 0.634,0.972 0.658,1.349 0.042,0.654 -0.174,1.12 -0.174,1.12 l -0.45,0.125 z"/><path id="path42" style="fill:#ffd312;fill-opacity:1;fill-rule:nonzero;stroke:none" d="m 11.4214,18.5059 c 0,0 -0.336,-0.567 -0.259,-1.241 0.058,-0.506 0.309,-0.967 0.743,-1.362 0.612,-0.556 1.268,-0.7 1.268,-0.7 l -0.305,-0.312 c 0,0 -0.847,0.454 -1.412,1.021 -0.447,0.448 -0.634,0.972 -0.659,1.349 -0.042,0.654 0.174,1.12 0.174,1.12 l 0.45,0.125 z"/><path id="path43" style="fill:#ffd312;fill-opacity:1;fill-rule:nonzero;stroke:none" d="m 18,12.0283 c 0,0 0.158,0.213 0.552,0.5 0.392,0.286 1.483,0.663 1.844,0.843 0.486,0.242 0.691,0.425 0.691,0.425 l -0.011,0.717 c 0,0 -0.356,-0.501 -0.756,-0.766 -0.428,-0.285 -1.082,-0.462 -1.544,-0.676 C 18.205,12.8063 18,12.5253 18,12.5253 c 0,0 -0.205,0.281 -0.776,0.546 -0.462,0.214 -1.115,0.391 -1.545,0.676 -0.399,0.265 -0.756,0.766 -0.756,0.766 l -0.009,-0.717 c 0,0 0.204,-0.183 0.69,-0.425 0.361,-0.18 1.452,-0.557 1.844,-0.843 0.394,-0.287 0.552,-0.5 0.552,-0.5"/><path id="path44" style="fill:#ffd312;fill-opacity:1;fill-rule:nonzero;stroke:none" d="m 22.4033,25.96 c 0,0 0.083,0.073 0.164,0.19 0.089,0.128 0.115,0.215 0.115,0.341 0,0.245 -0.076,0.389 -0.139,0.389 -0.103,0 -0.176,-0.229 -0.176,-0.363 0,-0.111 0.084,-0.211 0.084,-0.361 0,-0.128 -0.048,-0.196 -0.048,-0.196"/><path id="path45" style="fill:#ffd312;fill-opacity:1;fill-rule:nonzero;stroke:none" d="m 13.5967,25.96 c 0,0 -0.083,0.073 -0.165,0.19 -0.088,0.128 -0.114,0.215 -0.114,0.341 0,0.245 0.076,0.389 0.139,0.389 0.103,0 0.176,-0.229 0.176,-0.363 0,-0.111 -0.084,-0.211 -0.084,-0.361 0,-0.128 0.048,-0.196 0.048,-0.196"/><path id="path46" style="fill:#ffd312;fill-opacity:1;fill-rule:nonzero;stroke:none" d="m 25.3105,24.1563 c 0,0 0.131,-0.049 0.317,0.009 0.141,0.044 0.284,-0.06 0.255,-0.181 -0.025,-0.106 -0.188,-0.149 -0.284,-0.086 -0.111,0.073 -0.142,0.13 -0.192,0.177 -0.065,0.061 -0.096,0.081 -0.096,0.081"/><path id="path47" style="fill:#ffd312;fill-opacity:1;fill-rule:nonzero;stroke:none" d="m 10.689,24.1563 c 0,0 -0.131,-0.049 -0.317,0.009 -0.141,0.044 -0.283,-0.06 -0.255,-0.181 0.025,-0.106 0.189,-0.149 0.284,-0.086 0.112,0.073 0.143,0.13 0.193,0.177 0.064,0.061 0.095,0.081 0.095,0.081"/><path id="path48" style="fill:#ffd312;fill-opacity:1;fill-rule:nonzero;stroke:none" d="m 18.3608,26.4136 c 0,0.199 -0.162,0.361 -0.361,0.361 -0.199,0 -0.361,-0.162 -0.361,-0.361 0,-0.199 0.162,-0.361 0.361,-0.361 0.199,0 0.361,0.162 0.361,0.361"/><path id="path49" style="fill:#ffd312;fill-opacity:1;fill-rule:nonzero;stroke:none" d="m 17.6392,26.4136 c 0,0.199 0.162,0.361 0.361,0.361 0.199,0 0.361,-0.162 0.361,-0.361 0,-0.199 -0.162,-0.361 -0.361,-0.361 -0.199,0 -0.361,0.162 -0.361,0.361"/><path id="path50" style="fill:#ffd312;fill-opacity:1;fill-rule:nonzero;stroke:none" d="m 25.457,20.4961 c 0,-0.27 -0.219,-0.488 -0.488,-0.488 -0.27,0 -0.489,0.218 -0.489,0.488 0,0.27 0.219,0.488 0.489,0.488 0.269,0 0.488,-0.218 0.488,-0.488"/><path id="path51" style="fill:#ffd312;fill-opacity:1;fill-rule:nonzero;stroke:none" d="m 10.543,20.4961 c 0,-0.27 0.219,-0.488 0.488,-0.488 0.27,0 0.489,0.218 0.489,0.488 0,0.27 -0.219,0.488 -0.489,0.488 -0.269,0 -0.488,-0.218 -0.488,-0.488"/><path id="path52" style="fill:#ffd312;fill-opacity:1;fill-rule:nonzero;stroke:none" d="m 24.5537,19.6885 c 0,-0.248 -0.2,-0.448 -0.448,-0.448 -0.247,0 -0.448,0.2 -0.448,0.448 0,0.248 0.201,0.448 0.448,0.448 0.248,0 0.448,-0.2 0.448,-0.448"/><path id="path53" style="fill:#ffd312;fill-opacity:1;fill-rule:nonzero;stroke:none" d="m 11.4458,19.6885 c 0,-0.248 0.201,-0.448 0.449,-0.448 0.247,0 0.448,0.2 0.448,0.448 0,0.248 -0.201,0.448 -0.448,0.448 -0.248,0 -0.449,-0.2 -0.449,-0.448"/><path id="path54" style="fill:#ffd312;fill-opacity:1;fill-rule:nonzero;stroke:none" d="m 24.4717,18.6543 c 0,-0.245 -0.198,-0.444 -0.443,-0.444 -0.246,0 -0.445,0.199 -0.445,0.444 0,0.246 0.199,0.444 0.445,0.444 0.245,0 0.443,-0.198 0.443,-0.444"/><path id="path55" style="fill:#ffd312;fill-opacity:1;fill-rule:nonzero;stroke:none" d="m 11.5283,18.6543 c 0,-0.245 0.199,-0.444 0.444,-0.444 0.245,0 0.444,0.199 0.444,0.444 0,0.246 -0.199,0.444 -0.444,0.444 -0.245,0 -0.444,-0.198 -0.444,-0.444"/><path id="path56" style="fill:#ffd312;fill-opacity:1;fill-rule:nonzero;stroke:none" d="m 20.4961,14.3789 c 0,0.239 0.194,0.433 0.434,0.433 0.239,0 0.432,-0.194 0.432,-0.433 0,-0.24 -0.193,-0.434 -0.432,-0.434 -0.24,0 -0.434,0.194 -0.434,0.434"/><path id="path57" style="fill:#ffd312;fill-opacity:1;fill-rule:nonzero;stroke:none" d="m 15.5039,14.3789 c 0,0.239 -0.194,0.433 -0.433,0.433 -0.24,0 -0.434,-0.194 -0.434,-0.433 0,-0.24 0.194,-0.434 0.434,-0.434 0.239,0 0.433,0.194 0.433,0.434"/><path id="path58" style="fill:#ffd312;fill-opacity:1;fill-rule:nonzero;stroke:none" d="m 21.2783,14.8936 c 0,-0.191 0.155,-0.347 0.347,-0.347 0.191,0 0.346,0.156 0.346,0.347 0,0.191 -0.155,0.347 -0.346,0.347 -0.192,0 -0.347,-0.156 -0.347,-0.347"/><path id="path59" style="fill:#ffd312;fill-opacity:1;fill-rule:nonzero;stroke:none" d="m 14.7222,14.8936 c 0,-0.191 -0.155,-0.347 -0.347,-0.347 -0.192,0 -0.347,0.156 -0.347,0.347 0,0.191 0.155,0.347 0.347,0.347 0.192,0 0.347,-0.156 0.347,-0.347"/><path id="path60" style="fill:#ffd312;fill-opacity:1;fill-rule:nonzero;stroke:none" d="m 21.877,15.3848 c 0,-0.181 0.146,-0.326 0.325,-0.326 0.18,0 0.325,0.145 0.325,0.326 0,0.18 -0.145,0.325 -0.325,0.325 -0.179,0 -0.325,-0.145 -0.325,-0.325"/><path id="path61" style="fill:#ffd312;fill-opacity:1;fill-rule:nonzero;stroke:none" d="m 14.1235,15.3848 c 0,-0.181 -0.146,-0.326 -0.326,-0.326 -0.179,0 -0.325,0.145 -0.325,0.326 0,0.18 0.146,0.325 0.325,0.325 0.18,0 0.326,-0.145 0.326,-0.325"/><path id="path62" style="fill:#961e1d;fill-opacity:1;fill-rule:nonzero;stroke:none" d="m 14.896,21.9487 0,1.146 c -0.062,-0.004 -0.121,-0.01 -0.172,-0.022 -0.092,-0.021 -0.339,-0.309 -0.31,-0.569 0.03,-0.266 0.085,-0.33 0.482,-0.555 m 0.518,-0.735 c -0.049,0.201 -0.191,0.363 -0.361,0.503 l 0,-1.363 c 0.238,0.27 0.423,0.603 0.361,0.86 m -0.518,-1.289 c -0.636,-0.732 -0.282,-1.231 -0.282,-1.231 0.152,0.037 0.252,0.087 0.247,0.151 -0.012,0.138 0.035,0.22 0.035,0.22 l 0,0.86 z m 0.157,0.165 0,-1.06 c 0,0 -0.012,-0.114 0.059,-0.181 0.07,-0.067 0.098,-0.184 0.098,-0.184 0,0 0.204,-0.004 0.62,-0.031 0.415,-0.028 0.333,-0.169 0.333,-0.169 l -2.792,0 c 0,0 -0.106,0.122 0.623,0.153 0,0 0.349,0.066 0.384,0.38 0.036,0.314 -0.152,0.738 0.224,0.965 0.091,0.055 0.195,0.132 0.294,0.224 l 0,1.649 c -0.322,0.228 -0.67,0.402 -0.67,0.617 0,0.349 0.37,0.793 0.63,0.871 0.014,0.004 0.027,0.008 0.04,0.012 l 0,0.207 c 0,0 0.027,0.055 0.086,0.055 0.059,0 0.071,-0.043 0.071,-0.043 l 0,-0.184 c 0.097,0.013 0.194,0.006 0.316,-0.037 0.201,-0.073 0.19,-0.198 0.19,-0.198 0,0 -0.192,0.127 -0.226,-0.01 -0.006,-0.027 -0.132,-0.024 -0.28,-0.026 l 0,-1.238 c 0.028,-0.016 0.056,-0.031 0.086,-0.048 0.22,-0.121 0.404,-0.416 0.463,-0.686 0.073,-0.334 -0.093,-0.607 -0.549,-1.038"/><path id="path63" style="fill:#b400b4;fill-opacity:1;fill-rule:nonzero;stroke:none" d="m 13.9233,20.8677 c -0.122,0 -0.207,0.321 -0.371,0.632 -0.165,0.315 -0.074,0.624 -0.005,0.674 0.085,0.062 0.608,0.053 0.694,-0.091 0.136,-0.231 -0.07,-0.357 -0.115,-0.6 -0.057,-0.313 0.021,-0.615 -0.203,-0.615"/><path id="path64" style="fill:#b400b4;fill-opacity:1;fill-rule:nonzero;stroke:none" d="m 15.6548,21.5996 c 0.122,0 0.207,0.321 0.371,0.632 0.165,0.315 0.074,0.624 0.005,0.674 -0.085,0.062 -0.608,0.052 -0.694,-0.092 -0.136,-0.23 0.07,-0.356 0.115,-0.599 0.057,-0.314 -0.021,-0.615 0.203,-0.615"/><path id="path65" style="fill:#b400b4;fill-opacity:1;fill-rule:nonzero;stroke:none" d="m 15.5957,19.0879 c 0.122,0 0.207,0.321 0.371,0.632 0.166,0.315 0.074,0.624 0.005,0.674 -0.084,0.061 -0.608,0.052 -0.693,-0.092 -0.137,-0.23 0.07,-0.356 0.114,-0.6 0.057,-0.313 -0.02,-0.614 0.203,-0.614"/><path id="path66" style="fill:#129612;fill-opacity:1;fill-rule:nonzero;stroke:none" d="m 14.6079,23.8413 c 0,0 -0.035,-0.129 -0.163,-0.312 -0.127,-0.182 -0.276,-0.274 -0.276,-0.274 0,0 0,-0.081 -0.157,-0.246 -0.157,-0.164 -0.28,-0.188 -0.28,-0.188 0,0 0.072,0.086 -0.032,0.204 -0.104,0.118 -0.11,0.212 0.012,0.232 0.122,0.019 0.172,10e-4 0.172,10e-4 0,0 -0.045,0.171 -0.21,0.251 -0.164,0.081 -0.15,0.342 -0.15,0.342 0,0 0.209,0.088 0.349,-0.087 0.139,-0.174 0.305,-0.133 0.305,-0.133 0,0 -0.091,0.206 0.061,0.3 0.072,0.044 0.127,-0.037 0.228,-0.067 0.098,-0.029 0.141,-0.023 0.141,-0.023"/><path id="path67" style="fill:#129612;fill-opacity:1;fill-rule:nonzero;stroke:none" d="m 15.8096,20.3647 c 0,0 -0.04,0.122 -0.033,0.333 0.006,0.212 0.076,0.364 0.076,0.364 0,0 -0.042,0.064 -0.002,0.277 0.039,0.213 0.125,0.297 0.125,0.297 0,0 -0.013,-0.107 0.131,-0.146 0.144,-0.04 0.199,-0.112 0.112,-0.191 -0.087,-0.079 -0.137,-0.092 -0.137,-0.092 0,0 0.125,-0.112 0.299,-0.09 0.173,0.022 0.299,-0.193 0.299,-0.193 0,0 -0.121,-0.18 -0.324,-0.114 -0.202,0.067 -0.314,-0.053 -0.314,-0.053 0,0 0.182,-0.117 0.109,-0.271 -0.034,-0.073 -0.121,-0.038 -0.216,-0.066 -0.094,-0.028 -0.125,-0.055 -0.125,-0.055"/><path id="path68" style="fill:#129612;fill-opacity:1;fill-rule:nonzero;stroke:none" d="m 14.5063,20.646 c 0,0 0.014,-0.143 -0.044,-0.375 -0.059,-0.231 -0.173,-0.38 -0.173,-0.38 0,0 0.03,-0.08 -0.065,-0.305 -0.094,-0.225 -0.209,-0.295 -0.209,-0.295 0,0 0.04,0.114 -0.109,0.192 -0.149,0.079 -0.191,0.171 -0.076,0.237 0.114,0.065 0.172,0.067 0.172,0.067 0,0 -0.11,0.154 -0.306,0.172 -0.195,0.018 -0.281,0.285 -0.281,0.285 0,0 0.177,0.168 0.383,0.046 0.206,-0.122 0.357,-0.018 0.357,-0.018 0,0 -0.17,0.172 -0.053,0.324 0.055,0.072 0.142,0.012 0.254,0.02 0.109,0.008 0.15,0.03 0.15,0.03"/><path id="path69" style="fill:#129612;fill-opacity:1;fill-rule:nonzero;stroke:none" d="m 15.8599,22.8232 c 0,0 -0.109,0.112 -0.217,0.349 -0.107,0.236 -0.112,0.441 -0.112,0.441 0,0 -0.081,0.048 -0.153,0.303 -0.072,0.256 -0.023,0.394 -0.023,0.394 0,0 0.044,-0.124 0.224,-0.089 0.18,0.035 0.279,-0.016 0.226,-0.149 -0.053,-0.134 -0.101,-0.175 -0.101,-0.175 0,0 0.198,-0.056 0.377,0.062 0.179,0.117 0.433,-0.051 0.433,-0.051 0,0 -0.036,-0.264 -0.294,-0.3 -0.258,-0.036 -0.316,-0.228 -0.316,-0.228 0,0 0.262,-0.03 0.266,-0.24 0.002,-0.099 -0.113,-0.106 -0.202,-0.189 -0.088,-0.081 -0.108,-0.128 -0.108,-0.128"/><path id="path70" style="fill:#961e1d;fill-opacity:1;fill-rule:nonzero;stroke:none" d="m 18.29,18.8433 c 0.026,0.234 -0.197,0.494 -0.28,0.513 -0.046,0.011 -0.1,0.017 -0.156,0.021 l 0,-1.035 c 0.359,0.202 0.409,0.26 0.436,0.501 m -0.577,-1.942 0,1.231 c -0.154,-0.126 -0.282,-0.273 -0.326,-0.455 -0.056,-0.231 0.111,-0.532 0.326,-0.776 m 0.141,-1.164 c 0,0 0.043,-0.074 0.032,-0.198 -0.005,-0.059 0.087,-0.104 0.223,-0.138 0,0 0.32,0.451 -0.255,1.112 l 0,-0.776 z m -0.637,1.863 c 0.053,0.244 0.219,0.51 0.418,0.619 0.027,0.016 0.053,0.03 0.078,0.043 l 0,1.119 c -0.134,0.002 -0.248,0 -0.254,0.023 -0.029,0.124 -0.203,0.009 -0.203,0.009 0,0 -0.01,0.114 0.172,0.179 0.11,0.04 0.197,0.045 0.285,0.033 l 0,0.167 c 0,0 0.011,0.039 0.063,0.039 0.054,0 0.078,-0.05 0.078,-0.05 l 0,-0.188 c 0.013,-0.003 0.024,-0.006 0.037,-0.01 0.235,-0.07 0.569,-0.471 0.569,-0.786 0,-0.195 -0.315,-0.352 -0.606,-0.558 l 0,-1.488 c 0.089,-0.083 0.184,-0.154 0.266,-0.203 0.34,-0.205 0.17,-0.588 0.202,-0.872 0.032,-0.283 0.347,-0.343 0.347,-0.343 0.659,-0.029 0.563,-0.138 0.563,-0.138 l -2.522,0 c 0,0 -0.074,0.128 0.302,0.152 0.375,0.025 0.559,0.029 0.559,0.029 0,0 0.025,0.106 0.089,0.166 0.064,0.06 0.053,0.163 0.053,0.163 l 0,0.957 c -0.412,0.39 -0.562,0.636 -0.496,0.938"/><path id="path71" style="fill:#b400b4;fill-opacity:1;fill-rule:nonzero;stroke:none" d="m 18.7324,17.3652 c 0.11,0 0.187,0.29 0.335,0.571 0.149,0.284 0.067,0.564 0.005,0.609 -0.076,0.055 -0.55,0.047 -0.627,-0.083 -0.123,-0.208 0.064,-0.322 0.104,-0.542 0.052,-0.283 -0.018,-0.555 0.183,-0.555"/><path id="path72" style="fill:#b400b4;fill-opacity:1;fill-rule:nonzero;stroke:none" d="m 17.1694,18.0264 c -0.11,0 -0.187,0.29 -0.335,0.571 -0.149,0.284 -0.067,0.563 -0.005,0.608 0.077,0.056 0.55,0.048 0.627,-0.082 0.123,-0.208 -0.064,-0.322 -0.104,-0.542 -0.052,-0.283 0.019,-0.555 -0.183,-0.555"/><path id="path73" style="fill:#b400b4;fill-opacity:1;fill-rule:nonzero;stroke:none" d="m 17.2227,15.7578 c -0.11,0 -0.187,0.29 -0.335,0.571 -0.149,0.284 -0.067,0.564 -0.005,0.609 0.077,0.055 0.549,0.048 0.627,-0.083 0.123,-0.208 -0.064,-0.322 -0.104,-0.541 -0.052,-0.284 0.019,-0.556 -0.183,-0.556"/><path id="path74" style="fill:#129612;fill-opacity:1;fill-rule:nonzero;stroke:none" d="m 18.1147,20.0508 c 0,0 0.032,-0.117 0.147,-0.282 0.115,-0.164 0.25,-0.247 0.25,-0.247 0,0 0,-0.073 0.142,-0.222 0.141,-0.148 0.253,-0.17 0.253,-0.17 0,0 -0.066,0.078 0.028,0.184 0.094,0.107 0.099,0.192 -0.011,0.209 -0.109,0.018 -0.155,0.002 -0.155,0.002 0,0 0.04,0.154 0.189,0.227 0.149,0.072 0.136,0.308 0.136,0.308 0,0 -0.189,0.079 -0.315,-0.078 -0.125,-0.158 -0.276,-0.12 -0.276,-0.12 0,0 0.083,0.186 -0.055,0.271 -0.065,0.04 -0.115,-0.034 -0.206,-0.061 -0.088,-0.026 -0.127,-0.021 -0.127,-0.021"/><path id="path75" style="fill:#129612;fill-opacity:1;fill-rule:nonzero;stroke:none" d="m 17.0298,16.9111 c 0,0 0.036,0.109 0.03,0.301 -0.006,0.192 -0.07,0.328 -0.07,0.328 0,0 0.039,0.058 0.003,0.251 -0.035,0.193 -0.113,0.268 -0.113,0.268 0,0 0.012,-0.097 -0.119,-0.132 -0.13,-0.036 -0.179,-0.101 -0.101,-0.172 0.079,-0.072 0.124,-0.083 0.124,-0.083 0,0 -0.113,-0.102 -0.27,-0.082 -0.156,0.02 -0.27,-0.174 -0.27,-0.174 0,0 0.11,-0.163 0.292,-0.103 0.183,0.06 0.284,-0.048 0.284,-0.048 0,0 -0.164,-0.105 -0.098,-0.245 0.031,-0.066 0.109,-0.034 0.195,-0.059 0.085,-0.026 0.113,-0.05 0.113,-0.05"/><path id="path76" style="fill:#129612;fill-opacity:1;fill-rule:nonzero;stroke:none" d="m 18.2065,17.165 c 0,0 -0.013,-0.129 0.04,-0.338 0.053,-0.209 0.156,-0.344 0.156,-0.344 0,0 -0.028,-0.072 0.058,-0.275 0.085,-0.203 0.19,-0.267 0.19,-0.267 0,0 -0.036,0.103 0.098,0.174 0.134,0.071 0.172,0.154 0.069,0.213 -0.104,0.06 -0.156,0.062 -0.156,0.062 0,0 0.099,0.138 0.276,0.155 0.177,0.016 0.254,0.257 0.254,0.257 0,0 -0.159,0.152 -0.346,0.042 -0.185,-0.111 -0.322,-0.016 -0.322,-0.016 0,0 0.153,0.154 0.048,0.292 -0.05,0.066 -0.128,0.011 -0.229,0.018 -0.099,0.006 -0.136,0.027 -0.136,0.027"/><path id="path77" style="fill:#129612;fill-opacity:1;fill-rule:nonzero;stroke:none" d="m 16.9839,19.1313 c 0,0 0.099,0.102 0.196,0.315 0.097,0.214 0.101,0.398 0.101,0.398 0,0 0.073,0.044 0.139,0.275 0.065,0.23 0.02,0.355 0.02,0.355 0,0 -0.039,-0.112 -0.202,-0.081 -0.163,0.032 -0.252,-0.013 -0.204,-0.135 0.048,-0.12 0.091,-0.157 0.091,-0.157 0,0 -0.179,-0.051 -0.341,0.056 -0.161,0.106 -0.391,-0.046 -0.391,-0.046 0,0 0.033,-0.238 0.266,-0.271 0.233,-0.033 0.285,-0.207 0.285,-0.207 0,0 -0.236,-0.026 -0.24,-0.215 -0.001,-0.09 0.102,-0.097 0.183,-0.171 0.079,-0.074 0.097,-0.116 0.097,-0.116"/><path id="path78" style="fill:#961e1d;fill-opacity:1;fill-rule:nonzero;stroke:none" d="m 21.5859,22.5039 c 0.029,0.26 -0.218,0.548 -0.31,0.569 -0.051,0.012 -0.111,0.018 -0.172,0.022 l 0,-1.146 c 0.397,0.224 0.453,0.288 0.482,0.555 m -0.639,-2.15 0,1.362 c -0.17,-0.139 -0.312,-0.301 -0.361,-0.502 -0.062,-0.257 0.123,-0.59 0.361,-0.86 m 0.157,-1.289 c 0,0 0.047,-0.082 0.036,-0.22 -0.006,-0.064 0.094,-0.114 0.247,-0.152 0,0 0.353,0.499 -0.283,1.232 l 0,-0.86 z m -0.705,2.063 c 0.058,0.27 0.243,0.564 0.461,0.686 0.031,0.017 0.06,0.032 0.087,0.047 l 0,1.239 c -0.148,0.002 -0.274,-0.001 -0.28,0.026 -0.033,0.137 -0.226,0.009 -0.226,0.009 0,0 -0.011,0.126 0.191,0.199 0.121,0.043 0.219,0.05 0.315,0.037 l 0,0.184 c 0,0 0.012,0.043 0.071,0.043 0.058,0 0.086,-0.055 0.086,-0.055 l 0,-0.207 c 0.013,-0.004 0.026,-0.008 0.04,-0.012 0.26,-0.078 0.63,-0.522 0.63,-0.871 0,-0.216 -0.348,-0.389 -0.67,-0.617 l 0,-1.649 c 0.098,-0.092 0.203,-0.169 0.295,-0.224 0.375,-0.228 0.187,-0.651 0.222,-0.965 0.036,-0.314 0.385,-0.38 0.385,-0.38 0.729,-0.031 0.624,-0.153 0.624,-0.153 l -2.793,0 c 0,0 -0.082,0.141 0.334,0.168 0.415,0.028 0.619,0.032 0.619,0.032 0,0 0.027,0.117 0.099,0.184 0.07,0.067 0.058,0.18 0.058,0.18 l 0,1.06 c -0.456,0.432 -0.622,0.705 -0.548,1.039"/><path id="path79" style="fill:#b400b4;fill-opacity:1;fill-rule:nonzero;stroke:none" d="m 22.0762,20.8677 c 0.122,0 0.207,0.321 0.371,0.632 0.165,0.315 0.074,0.624 0.006,0.674 -0.086,0.062 -0.609,0.053 -0.694,-0.091 -0.137,-0.231 0.07,-0.357 0.114,-0.6 0.057,-0.313 -0.021,-0.615 0.203,-0.615"/><path id="path80" style="fill:#b400b4;fill-opacity:1;fill-rule:nonzero;stroke:none" d="m 20.3457,21.5996 c -0.122,0 -0.207,0.321 -0.371,0.632 -0.166,0.315 -0.074,0.624 -0.006,0.674 0.085,0.062 0.609,0.052 0.694,-0.092 0.136,-0.23 -0.07,-0.356 -0.115,-0.599 -0.056,-0.314 0.021,-0.615 -0.202,-0.615"/><path id="path81" style="fill:#b400b4;fill-opacity:1;fill-rule:nonzero;stroke:none" d="m 20.4043,19.0879 c -0.122,0 -0.207,0.321 -0.371,0.632 -0.165,0.315 -0.074,0.624 -0.006,0.674 0.086,0.061 0.609,0.052 0.694,-0.092 0.137,-0.23 -0.07,-0.356 -0.114,-0.6 -0.057,-0.313 0.021,-0.614 -0.203,-0.614"/><path id="path82" style="fill:#129612;fill-opacity:1;fill-rule:nonzero;stroke:none" d="m 21.3926,23.8413 c 0,0 0.035,-0.129 0.162,-0.312 0.128,-0.182 0.276,-0.274 0.276,-0.274 0,0 0,-0.081 0.158,-0.246 0.157,-0.164 0.28,-0.188 0.28,-0.188 0,0 -0.072,0.086 0.031,0.204 0.105,0.118 0.111,0.212 -0.011,0.232 -0.122,0.019 -0.173,10e-4 -0.173,10e-4 0,0 0.046,0.171 0.21,0.251 0.165,0.081 0.151,0.342 0.151,0.342 0,0 -0.21,0.088 -0.349,-0.087 -0.139,-0.174 -0.306,-0.133 -0.306,-0.133 0,0 0.092,0.206 -0.061,0.3 -0.072,0.044 -0.127,-0.037 -0.227,-0.067 -0.098,-0.029 -0.141,-0.023 -0.141,-0.023"/><path id="path83" style="fill:#129612;fill-opacity:1;fill-rule:nonzero;stroke:none" d="m 20.1904,20.3647 c 0,0 0.04,0.122 0.033,0.333 -0.006,0.212 -0.077,0.364 -0.077,0.364 0,0 0.042,0.064 0.004,0.277 -0.039,0.213 -0.126,0.297 -0.126,0.297 0,0 0.013,-0.107 -0.131,-0.146 -0.144,-0.04 -0.198,-0.112 -0.112,-0.191 0.087,-0.079 0.137,-0.092 0.137,-0.092 0,0 -0.125,-0.112 -0.298,-0.09 -0.174,0.022 -0.299,-0.193 -0.299,-0.193 0,0 0.121,-0.18 0.323,-0.114 0.202,0.067 0.314,-0.053 0.314,-0.053 0,0 -0.182,-0.117 -0.109,-0.271 0.034,-0.073 0.12,-0.038 0.216,-0.066 0.094,-0.028 0.125,-0.055 0.125,-0.055"/><path id="path84" style="fill:#129612;fill-opacity:1;fill-rule:nonzero;stroke:none" d="m 21.4932,20.646 c 0,0 -0.014,-0.143 0.045,-0.375 0.059,-0.231 0.173,-0.38 0.173,-0.38 0,0 -0.031,-0.08 0.064,-0.305 0.095,-0.225 0.209,-0.295 0.209,-0.295 0,0 -0.039,0.114 0.11,0.192 0.148,0.079 0.19,0.171 0.076,0.237 -0.115,0.065 -0.172,0.067 -0.172,0.067 0,0 0.109,0.154 0.306,0.172 0.195,0.018 0.28,0.285 0.28,0.285 0,0 -0.177,0.168 -0.382,0.046 -0.206,-0.122 -0.357,-0.018 -0.357,-0.018 0,0 0.169,0.172 0.052,0.324 -0.055,0.072 -0.141,0.012 -0.253,0.02 -0.11,0.008 -0.151,0.03 -0.151,0.03"/><path id="path85" style="fill:#129612;fill-opacity:1;fill-rule:nonzero;stroke:none" d="m 20.1396,22.8232 c 0,0 0.109,0.112 0.217,0.349 0.108,0.236 0.112,0.441 0.112,0.441 0,0 0.081,0.048 0.153,0.303 0.073,0.256 0.023,0.394 0.023,0.394 0,0 -0.043,-0.124 -0.224,-0.089 -0.179,0.035 -0.278,-0.016 -0.225,-0.149 0.052,-0.134 0.1,-0.175 0.1,-0.175 0,0 -0.198,-0.056 -0.377,0.062 -0.178,0.117 -0.432,-0.051 -0.432,-0.051 0,0 0.035,-0.264 0.294,-0.3 0.257,-0.036 0.315,-0.228 0.315,-0.228 0,0 -0.262,-0.03 -0.266,-0.24 -0.002,-0.099 0.113,-0.106 0.203,-0.189 0.087,-0.081 0.107,-0.128 0.107,-0.128"/></g></g></g></g></svg>