<svg xmlns:dc="http://purl.org/dc/elements/1.1/" xmlns:cc="http://creativecommons.org/ns#" xmlns:rdf="http://www.w3.org/1999/02/22-rdf-syntax-ns#" xmlns:svg="http://www.w3.org/2000/svg" xmlns="http://www.w3.org/2000/svg" viewBox="0 0 45 45" style="enable-background:new 0 0 45 45;" xml:space="preserve" version="1.1" id="svg2"><metadata id="metadata8"><rdf:RDF><cc:Work rdf:about=""><dc:format>image/svg+xml</dc:format><dc:type rdf:resource="http://purl.org/dc/dcmitype/StillImage"/></cc:Work></rdf:RDF></metadata><defs id="defs6"><clipPath id="clipPath16" clipPathUnits="userSpaceOnUse"><path id="path18" d="M 0,36 36,36 36,0 0,0 0,36 Z"/></clipPath></defs><g transform="matrix(1.25,0,0,-1.25,0,45)" id="g10"><g id="g12"><g clip-path="url(#clipPath16)" id="g14"><g id="g20"><path id="path22" style="fill:#141414;fill-opacity:1;fill-rule:nonzero;stroke:none" d="M 32,31 H 4 C 1.791,31 0,29.209 0,27 V 9 C 0,6.791 1.791,5 4,5 h 28 c 2.209,0 4,1.791 4,4 v 18 c 0,2.209 -1.791,4 -4,4"/></g><g id="g24"><path id="path26" style="fill:#ffff00;fill-opacity:1;fill-rule:nonzero;stroke:none" d="m 16.3398,5 h -3.35 l -4.82,5.39 -4.77,-5.34 c -0.9,0.13 -1.7,0.56 -2.29,1.19 l 7.06,7.91 z"/></g><g id="g28"><path id="path30" style="fill:#ffff00;fill-opacity:1;fill-rule:nonzero;stroke:none" d="m 36,19.25 v -2.5 H 19.25 V 5 h -2.5 V 16.75 H 0 v 2.5 H 16.75 V 31 h 2.5 V 19.25 Z"/></g></g></g></g></svg>