<svg xmlns:dc="http://purl.org/dc/elements/1.1/" xmlns:cc="http://creativecommons.org/ns#" xmlns:rdf="http://www.w3.org/1999/02/22-rdf-syntax-ns#" xmlns:svg="http://www.w3.org/2000/svg" xmlns="http://www.w3.org/2000/svg" viewBox="0 0 45 45" style="enable-background:new 0 0 45 45;" xml:space="preserve" version="1.1" id="svg2"><metadata id="metadata8"><rdf:RDF><cc:Work rdf:about=""><dc:format>image/svg+xml</dc:format><dc:type rdf:resource="http://purl.org/dc/dcmitype/StillImage"/></cc:Work></rdf:RDF></metadata><defs id="defs6"><clipPath id="clipPath16" clipPathUnits="userSpaceOnUse"><path id="path18" d="M 0,36 36,36 36,0 0,0 0,36 Z"/></clipPath></defs><g transform="matrix(1.25,0,0,-1.25,0,45)" id="g10"><g id="g12"><g xmlns="http://www.w3.org/2000/svg" clip-path="url(#clipPath16)" id="g14"><g id="g30"><path id="path20" style="fill:#db0913;fill-opacity:1;fill-rule:nonzero;stroke:none" d="M 0,9 C 0,6.791 1.791,5 4,5 l 28,0 c 2.209,0 4,1.791 4,4 l 0,18 c 0,2.209 -1.791,4 -4,4 L 4,31 C 1.791,31 0,29.209 0,27 L 0,9 z"/></g><g id="g34"><path id="path30" style="fill:#ee151f;fill-opacity:1;fill-rule:nonzero;stroke:none" d="m 18,11.3916 -3.417,1.455 0,6.989 6.835,0 0,-6.989 L 18,11.3916 z"/><path id="path31" style="fill:#ee151f;fill-opacity:1;fill-rule:nonzero;stroke:none" d="m 20.4932,20.6284 c 0,0 0.89,0.107 0.489,1.059 -0.218,0.521 -1.176,1.06 -2.982,1.06 -1.806,0 -2.764,-0.539 -2.983,-1.06 -0.399,-0.952 0.49,-1.059 0.49,-1.059 l 4.986,0 z"/><path id="path32" style="fill:#ebc200;fill-opacity:1;fill-rule:nonzero;stroke:none" d="m 20.4063,19.8354 0.229,0.711 c 0,0 -0.958,0.636 -2.635,0.636 -1.677,0 -2.636,-0.636 -2.636,-0.636 l 0.23,-0.711 4.812,0 z"/><path id="path33" style="fill:#ebc200;fill-opacity:1;fill-rule:nonzero;stroke:none" d="m 17.6548,23.5776 c -0.006,0.025 -0.008,0.048 -0.008,0.076 0,0.178 0.132,0.325 0.303,0.349 l 0,0.215 c 0,0 -0.012,0.012 -0.042,0.012 -0.077,0 -0.261,-0.114 -0.261,-0.114 l 0,0.28 c 0,0 0.184,-0.114 0.261,-0.114 0.03,0 0.033,0.012 0.033,0.012 0,0 0.012,0.013 0.012,0.043 0,0.076 -0.144,0.23 -0.144,0.23 l 0.383,0 c 0,0 -0.144,-0.154 -0.144,-0.23 0,-0.03 0.012,-0.043 0.012,-0.043 0,0 0.003,-0.012 0.032,-0.012 0.077,0 0.261,0.114 0.261,0.114 l 0,-0.28 c 0,0 -0.184,0.114 -0.261,0.114 -0.029,0 -0.042,-0.012 -0.042,-0.012 l 0,-0.215 c 0.171,-0.024 0.303,-0.171 0.303,-0.349 0,-0.026 -0.003,-0.052 -0.008,-0.076 0.626,-0.061 1.034,-0.266 1.034,-0.266 0,0 0.271,0.125 0.588,0.125 1.027,0 1.506,-0.886 1.506,-1.591 0,-0.706 -0.526,-0.981 -0.526,-0.981 0,0 0.149,0.188 0.149,0.894 0,0.526 -0.373,0.904 -0.622,1.086 -0.432,0.316 -0.844,0.279 -0.844,0.279 0,0 0.345,-0.259 0.345,-0.769 0,-0.596 -0.474,-0.965 -0.474,-0.965 0,0 0.023,1.116 -0.271,1.522 -0.262,0.361 -0.871,0.361 -0.871,0.361 0,0 0.035,-0.343 -0.012,-0.667 -0.076,-0.529 -0.347,-0.8 -0.347,-0.8 0,0 -0.27,0.271 -0.347,0.8 -0.046,0.324 -0.012,0.667 -0.012,0.667 0,0 -0.609,0 -0.87,-0.361 -0.294,-0.406 -0.272,-1.522 -0.272,-1.522 0,0 -0.473,0.369 -0.473,0.965 0,0.51 0.345,0.769 0.345,0.769 0,0 -0.413,0.037 -0.845,-0.279 -0.248,-0.182 -0.622,-0.56 -0.622,-1.086 0,-0.706 0.149,-0.894 0.149,-0.894 0,0 -0.525,0.275 -0.525,0.981 0,0.705 0.478,1.591 1.505,1.591 0.318,0 0.589,-0.125 0.589,-0.125 0,0 0.407,0.205 1.033,0.266"/></g></g></g></g></svg>