<svg xmlns:dc="http://purl.org/dc/elements/1.1/" xmlns:cc="http://creativecommons.org/ns#" xmlns:rdf="http://www.w3.org/1999/02/22-rdf-syntax-ns#" xmlns:svg="http://www.w3.org/2000/svg" xmlns="http://www.w3.org/2000/svg" viewBox="0 0 45 45" style="enable-background:new 0 0 45 45;" xml:space="preserve" version="1.1" id="svg2"><metadata id="metadata8"><rdf:RDF><cc:Work rdf:about=""><dc:format>image/svg+xml</dc:format><dc:type rdf:resource="http://purl.org/dc/dcmitype/StillImage"/></cc:Work></rdf:RDF></metadata><defs id="defs6"><clipPath id="clipPath16" clipPathUnits="userSpaceOnUse"><path id="path18" d="M 0,36 36,36 36,0 0,0 0,36 Z"/></clipPath></defs><g transform="matrix(1.25,0,0,-1.25,0,45)" id="g10"><g id="g12"><g xmlns="http://www.w3.org/2000/svg" clip-path="url(#clipPath16)" id="g14"><g id="g30"><path id="path20" style="fill:#f8c300;fill-opacity:1;fill-rule:nonzero;stroke:none" d="M 0,9 C 0,6.791 1.791,5 4,5 h 28 c 2.209,0 4,1.791 4,4 v 2.5 H 0 Z"/><path id="path21" style="fill:#00923f;fill-opacity:1;fill-rule:nonzero;stroke:none" d="M 0,11.5 H 36 V 18 H 0 Z"/><path id="path22" style="fill:#f8c300;fill-opacity:1;fill-rule:nonzero;stroke:none" d="m 13,18 h 23 v 6.5 H 13 Z"/><path id="path23" style="fill:#00923f;fill-opacity:1;fill-rule:nonzero;stroke:none" d="M 32,31 H 13 V 24.5 H 36 V 27 c 0,2.209 -1.791,4 -4,4"/></g><g id="g32"><path id="path30" style="fill:#28166f;fill-opacity:1;fill-rule:nonzero;stroke:none" d="M 13,31 H 4 C 1.791,31 0,29.209 0,27 v -9 h 13 z"/><path id="path31" style="fill:#ffffff;fill-opacity:1;fill-rule:nonzero;stroke:none" d="m 6.5,27.4497 0.658,-2.061 2.163,0.011 -1.756,-1.263 0.679,-2.053 -1.744,1.28 -1.744,-1.28 0.679,2.053 -1.756,1.263 2.163,-0.011 z"/><path id="path32" style="fill:#ffffff;fill-opacity:1;fill-rule:nonzero;stroke:none" d="m 10.7627,30.2539 -0.329,-1.031 -1.083,0.005 0.879,-0.632 -0.34,-1.028 0.873,0.641 0.873,-0.641 -0.34,1.028 0.88,0.632 -1.083,-0.005 z"/><path id="path33" style="fill:#ffffff;fill-opacity:1;fill-rule:nonzero;stroke:none" d="m 10.7627,21.7075 -0.329,-1.031 -1.083,0.005 0.879,-0.632 -0.34,-1.028 0.873,0.641 0.873,-0.641 -0.34,1.028 0.88,0.632 -1.083,-0.005 z"/><path id="path34" style="fill:#ffffff;fill-opacity:1;fill-rule:nonzero;stroke:none" d="m 2.2373,30.2539 0.329,-1.031 1.083,0.005 -0.879,-0.632 0.34,-1.028 -0.873,0.641 -0.873,-0.641 0.34,1.028 -0.88,0.632 1.083,-0.005 z"/><path id="path35" style="fill:#ffffff;fill-opacity:1;fill-rule:nonzero;stroke:none" d="m 2.2373,21.7075 0.329,-1.031 1.083,0.005 -0.879,-0.632 0.34,-1.028 -0.873,0.641 -0.873,-0.641 0.34,1.028 -0.88,0.632 1.083,-0.005 z"/></g></g></g></g></svg>