<svg xmlns:dc="http://purl.org/dc/elements/1.1/" xmlns:cc="http://creativecommons.org/ns#" xmlns:rdf="http://www.w3.org/1999/02/22-rdf-syntax-ns#" xmlns:svg="http://www.w3.org/2000/svg" xmlns="http://www.w3.org/2000/svg" viewBox="0 0 45 45" style="enable-background:new 0 0 45 45;" xml:space="preserve" version="1.1" id="svg2"><metadata id="metadata8"><rdf:RDF><cc:Work rdf:about=""><dc:format>image/svg+xml</dc:format><dc:type rdf:resource="http://purl.org/dc/dcmitype/StillImage"/></cc:Work></rdf:RDF></metadata><defs id="defs6"><clipPath id="clipPath16" clipPathUnits="userSpaceOnUse"><path id="path18" d="M 4,31 C 1.791,31 0,29.209 0,27 L 0,27 0,9 C 0,6.791 1.791,5 4,5 l 0,0 28,0 c 2.209,0 4,1.791 4,4 l 0,0 0,18 c 0,2.209 -1.791,4 -4,4 l 0,0 -28,0 z"/></clipPath></defs><g transform="matrix(1.25,0,0,-1.25,0,45)" id="g10"><g id="g12"><g xmlns="http://www.w3.org/2000/svg" clip-path="url(#clipPath16)" id="g14"><g id="g30"><path id="path20" style="fill:#00247d;fill-opacity:1;fill-rule:nonzero;stroke:none" d="M 36,9 C 36,6.791 34.209,5 32,5 L 4,5 C 1.791,5 0,6.791 0,9 l 0,18 c 0,2.209 1.791,4 4,4 l 28,0 c 2.209,0 4,-1.791 4,-4 L 36,9 z"/></g><g id="g34"><path id="path30" style="fill:#ffffff;fill-opacity:1;fill-rule:nonzero;stroke:none" d="m 22.8574,17.9966 c 0,2.565 2.079,4.645 4.645,4.645 2.564,0 4.643,-2.08 4.643,-4.645 0,-2.565 -2.079,-4.644 -4.643,-4.644 -2.566,0 -4.645,2.079 -4.645,4.644"/><path id="path31" style="fill:#e00034;fill-opacity:1;fill-rule:nonzero;stroke:none" d="m 26.6563,22.5645 c 0.274,0.05 0.557,0.077 0.846,0.077 0.29,0 0.575,-0.027 0.85,-0.078 l 0,-3.719 3.716,0 c 0.051,-0.275 0.077,-0.558 0.077,-0.848 0,-0.29 -0.026,-0.574 -0.077,-0.848 l -3.716,0 0,-3.718 c -0.275,-0.052 -0.56,-0.078 -0.85,-0.078 -0.289,0 -0.572,0.026 -0.846,0.076 l 0,3.72 -3.722,0 c -0.05,0.274 -0.077,0.559 -0.077,0.848 0,0.29 0.026,0.573 0.076,0.848 l 3.723,0 0,3.72 z"/><path id="path32" style="fill:#fdc82f;fill-opacity:1;fill-rule:nonzero;stroke:none" d="m 27.502,21.8921 0.149,-0.42 0.403,0.191 -0.192,-0.402 0.42,-0.15 -0.42,-0.149 0.192,-0.403 -0.403,0.191 -0.149,-0.42 -0.149,0.42 -0.404,-0.191 0.192,0.403 -0.42,0.149 0.42,0.15 -0.192,0.402 0.404,-0.191 0.149,0.42 z"/><path id="path33" style="fill:#fdc82f;fill-opacity:1;fill-rule:nonzero;stroke:none" d="m 30.6162,18.7778 0.149,-0.42 0.403,0.191 -0.192,-0.403 0.42,-0.149 -0.42,-0.15 0.192,-0.402 -0.403,0.191 -0.149,-0.42 -0.149,0.42 -0.404,-0.191 0.192,0.402 -0.42,0.15 0.42,0.149 -0.192,0.403 0.404,-0.191 0.149,0.42 z"/><path id="path34" style="fill:#fdc82f;fill-opacity:1;fill-rule:nonzero;stroke:none" d="m 24.3867,18.7778 0.149,-0.42 0.404,0.191 -0.192,-0.403 0.42,-0.149 -0.42,-0.15 0.192,-0.402 -0.404,0.191 -0.149,-0.42 -0.149,0.42 -0.403,-0.191 0.192,0.402 -0.42,0.15 0.42,0.149 -0.192,0.403 0.403,-0.191 0.149,0.42 z"/><path id="path35" style="fill:#fdc82f;fill-opacity:1;fill-rule:nonzero;stroke:none" d="m 27.502,15.6631 0.149,-0.42 0.403,0.191 -0.192,-0.403 0.42,-0.149 -0.42,-0.15 0.192,-0.402 -0.403,0.191 -0.149,-0.42 -0.149,0.42 -0.404,-0.191 0.192,0.402 -0.42,0.15 0.42,0.149 -0.192,0.403 0.404,-0.191 0.149,0.42 z"/><path id="path36" style="fill:#fdc82f;fill-opacity:1;fill-rule:nonzero;stroke:none" d="m 28.9668,18.1113 c 0.078,-0.05 0.14,-0.105 0.238,-0.105 0.187,0 0.373,0.322 0.373,-0.26 0,-0.251 -0.151,-0.302 -0.251,-0.302 -0.11,0 -0.192,0.13 -0.161,0.199 0.031,0.069 0.238,-0.045 0.139,0.091 -0.085,0.116 -0.053,-0.003 -0.358,-0.003 -0.21,0 -0.336,0.117 -0.336,0.117 0,0 -0.164,-0.091 -0.083,-0.174 0.081,-0.083 -0.044,-0.309 -0.499,-0.309 -0.457,0 -0.344,0.386 -0.16,0.36 0.315,-0.044 0.314,0.282 0.314,0.282 0,0 -0.218,-0.072 -0.598,-0.294 -0.379,-0.223 -0.325,-0.21 -0.478,-0.21 -0.153,0 -0.233,0.05 -0.233,0.05 0,0 -0.037,-0.172 -0.794,-0.172 -0.345,0 -0.533,0.017 -0.588,0.097 -0.059,0.088 -0.087,0.242 -0.003,0.319 0.139,0.125 0.207,-0.113 0.207,-0.113 l 0.254,-0.003 c 0,0 -0.223,0.136 -0.331,0.291 -0.106,0.156 -0.336,0.587 -0.007,0.587 0.234,0 0.092,-0.29 0.092,-0.29 0,0 0.069,-0.127 0.193,-0.19 0.124,-0.062 0.416,-0.13 0.416,-0.13 0,0 -0.013,0.23 0.036,0.331 0.049,0.102 -0.028,0.155 0.012,0.258 0.01,0.029 0.098,-0.078 0.098,-0.078 0,0 -0.009,0.208 0.195,0.208 0.186,0 0.177,-0.217 0.177,-0.217 0,0 0.07,0.118 0.091,0.097 0.021,-0.02 -0.026,-0.124 0.017,-0.251 0.024,-0.075 0.016,-0.243 0.016,-0.243 0,0 0.023,-0.151 1.154,0.112 0.2,0.046 0.381,0.089 0.546,0.089 0.165,0 0.662,-0.136 0.662,0.059 0,0.203 -0.566,0.124 -0.936,0.039 -0.167,-0.038 -0.352,-0.068 -0.511,-0.097 -0.192,-0.036 -0.339,-0.085 -0.371,0.097 -0.016,0.09 0.032,0.171 0.09,0.222 0.057,0.05 0.113,0.037 0.234,0.037 0.121,0 0.16,0.042 0.236,0.045 0.062,0.002 0.111,-0.03 0.157,-0.027 0.085,0.005 0.117,0.017 0.117,0.017 0,0 -0.136,-0.181 -0.319,-0.181 -0.184,0 -0.232,0.042 -0.232,0.042 0,0 -0.256,0.015 -0.197,-0.112 0.074,-0.16 0.44,0.011 0.957,0.11 0.52,0.099 0.88,0.051 0.88,-0.192 0,-0.266 -0.455,-0.203 -0.455,-0.203"/></g><g id="g38"><path id="path40" style="fill:#00247d;fill-opacity:1;fill-rule:nonzero;stroke:none" d="m 19.001,31 -19,0 0,-13 19,0 0,13 z"/><path id="path42" style="fill:#eeeeee;fill-opacity:1;fill-rule:nonzero;stroke:none" d="m 7.3911,24.4961 -7.391,-5.262 0,-1.234 3.332,0 6.669,4.669 6.668,-4.669 2.332,0 0,2.029 -6.386,4.471 6.386,4.471 0,2.029 -2.331,0 -6.67,-4.67 -6.667,4.67 -3.332,0 0,-1.332 7.39,-5.172 z"/><path id="path44" style="fill:#cf142b;fill-opacity:1;fill-rule:nonzero;stroke:none" d="m 10.8735,23.8887 8.127,-5.69 0,1.219 -8.127,5.692 8.127,5.692 0,0.198 -1.46,0 -8.412,-5.889 -8.41,5.889 -0.718,-0.712 9.128,-6.399 -8.394,-5.889 0.266,0 1.461,0 8.412,5.889 z"/><path id="path46" style="fill:#eeeeee;fill-opacity:1;fill-rule:nonzero;stroke:none" d="m 19.001,27 -7,0 0,4 -5,0 0,-4 -7,0 0,-5 7,0 0,-4 5,0 0,4 7,0 0,5 z"/><path id="path48" style="fill:#cf142b;fill-opacity:1;fill-rule:nonzero;stroke:none" d="m 11.001,23 0,-5 -3,0 0,5 -8,0 0,3 8,0 0,5 3,0 0,-5 8,0 0,-3 -8,0 z"/></g></g></g></g></svg>