<svg xmlns:dc="http://purl.org/dc/elements/1.1/" xmlns:cc="http://creativecommons.org/ns#" xmlns:rdf="http://www.w3.org/1999/02/22-rdf-syntax-ns#" xmlns:svg="http://www.w3.org/2000/svg" xmlns="http://www.w3.org/2000/svg" viewBox="0 0 45 45" style="enable-background:new 0 0 45 45;" xml:space="preserve" version="1.1" id="svg2"><metadata id="metadata8"><rdf:RDF><cc:Work rdf:about=""><dc:format>image/svg+xml</dc:format><dc:type rdf:resource="http://purl.org/dc/dcmitype/StillImage"/></cc:Work></rdf:RDF></metadata><defs id="defs6"><clipPath id="clipPath16" clipPathUnits="userSpaceOnUse"><path id="path18" d="M 4,31 C 1.791,31 0,29.209 0,27 L 0,27 0,9 C 0,6.791 1.791,5 4,5 l 0,0 28,0 c 2.209,0 4,1.791 4,4 l 0,0 0,18 c 0,2.209 -1.791,4 -4,4 l 0,0 -28,0 z"/></clipPath></defs><g transform="matrix(1.25,0,0,-1.25,0,45)" id="g10"><g id="g12"><g xmlns="http://www.w3.org/2000/svg" clip-path="url(#clipPath16)" id="g14"><g id="g30"><path id="path20" style="fill:#eeeeee;fill-opacity:1;fill-rule:nonzero;stroke:none" d="m 0,5 36,0 0,25.998 -36,0 L 0,5 z"/><path id="path21" style="fill:#fec600;fill-opacity:1;fill-rule:nonzero;stroke:none" d="m 0,30.9986 0,-1.402 34.597,0 0,-23.193 -34.597,0 0,-1.403 36,0 0,25.998 -36,0 z"/></g><g id="g34"><path id="path30" style="fill:#002f72;fill-opacity:1;fill-rule:nonzero;stroke:none" d="m 18,12.7148 c -0.488,0 -1.394,0.224 -1.394,0.224 0,0 0.012,-0.377 -0.025,-0.442 -0.023,-0.039 -0.089,-0.045 -0.089,-0.045 0,0 -0.763,-0.064 -1.692,0.183 -0.929,0.247 -1.669,0.711 -1.669,0.711 l 1,0.227 -0.082,0.722 c 0,0 0.435,-0.395 0.878,-0.518 0.444,-0.121 0.79,-0.146 0.79,-0.146 l 0,0.858 c 0,0 0.03,0.022 0.089,0.022 0.082,0 1.153,-0.52 2.194,-0.52 1.041,0 2.111,0.52 2.194,0.52 0.059,0 0.089,-0.022 0.089,-0.022 l 0,-0.858 c 0,0 0.347,0.025 0.789,0.146 0.444,0.123 0.879,0.518 0.879,0.518 l -0.083,-0.722 1,-0.227 c 0,0 -0.738,-0.464 -1.668,-0.711 -0.929,-0.247 -1.692,-0.183 -1.692,-0.183 0,0 -0.066,0.006 -0.088,0.045 -0.037,0.065 -0.025,0.442 -0.025,0.442 0,0 -0.907,-0.224 -1.395,-0.224"/><path id="path31" style="fill:#fec600;fill-opacity:1;fill-rule:nonzero;stroke:none" d="m 16.8506,22.7817 c -0.508,-0.059 -1.123,-0.186 -1.123,-0.186 l 0,-0.433 c 0,0 0.534,-0.074 1.043,-0.126 0.509,-0.051 0.987,-0.08 0.987,-0.08 l 0.042,-5.211 c 0,0 0.065,-0.37 -0.488,-0.37 -0.354,0 -0.795,0.156 -1.147,0.417 -0.484,0.362 -1.01,0.756 -1.01,0.756 l 0.727,0.188 c 0,0 -0.722,0.27 -1.238,0.521 -0.515,0.252 -0.725,0.437 -0.725,0.437 0,0 0.032,-0.604 0.17,-1.146 0.118,-0.462 0.682,-1.085 0.682,-1.085 l 0,0.759 c 0,0 0.475,-0.484 1.079,-0.897 0.3,-0.204 1.123,-0.474 1.48,-0.768 0.43,-0.354 0.67,-0.651 0.67,-0.651 0,0 0.241,0.297 0.67,0.651 0.358,0.294 1.181,0.564 1.482,0.768 0.603,0.413 1.078,0.897 1.078,0.897 l 0,-0.759 c 0,0 0.564,0.623 0.683,1.085 0.137,0.542 0.168,1.146 0.168,1.146 0,0 -0.209,-0.185 -0.725,-0.437 -0.515,-0.251 -1.236,-0.521 -1.236,-0.521 l 0.726,-0.188 c 0,0 -0.526,-0.394 -1.011,-0.756 -0.351,-0.261 -0.793,-0.417 -1.146,-0.417 -0.553,0 -0.488,0.37 -0.488,0.37 l 0.042,5.211 c 0,0 0.478,0.029 0.987,0.08 0.509,0.052 1.043,0.126 1.043,0.126 l 0,0.433 c 0,0 -0.615,0.127 -1.123,0.186 -0.169,0.02 -0.338,0.034 -0.488,0.044 0.001,0.021 0.003,0.043 0.003,0.064 0,0.31 -0.213,0.571 -0.5,0.645 l -0.002,0.444 -0.326,0 10e-4,-0.444 c -0.289,-0.072 -0.502,-0.334 -0.502,-0.645 0,-0.021 0.001,-0.043 0.003,-0.064 -0.15,-0.01 -0.32,-0.024 -0.488,-0.044 m 0.673,0.058 c -10e-4,0.016 -0.002,0.034 -0.002,0.05 0,0.207 0.132,0.384 0.315,0.45 l 0,-0.488 c 0,0 -0.125,-0.001 -0.313,-0.012 m 0.639,0.012 10e-4,0.488 c 0.183,-0.067 0.314,-0.243 0.314,-0.45 0,-0.017 0,-0.034 -0.002,-0.051 -0.187,0.01 -0.313,0.013 -0.313,0.013"/><path id="path32" style="fill:#fec600;fill-opacity:1;fill-rule:nonzero;stroke:none" d="m 13.3096,26.936 0.865,-0.729 1.037,0.451 -0.426,-1.048 0.75,-0.847 -1.128,0.082 -0.574,-0.975 -0.271,1.098 -1.105,0.244 0.961,0.598 -0.109,1.126 z"/><path id="path33" style="fill:#fec600;fill-opacity:1;fill-rule:nonzero;stroke:none" d="m 9.6938,23.7329 1.105,-0.244 0.708,0.882 0.11,-1.126 1.058,-0.402 -1.037,-0.452 -0.055,-1.13 -0.751,0.847 -1.091,-0.297 0.573,0.975 -0.62,0.947 z"/><path id="path34" style="fill:#fec600;fill-opacity:1;fill-rule:nonzero;stroke:none" d="m 7.981,19.2158 1.092,0.298 0.218,1.11 0.62,-0.946 1.123,0.136 -0.708,-0.883 0.476,-1.026 -1.058,0.401 -0.828,-0.77 0.054,1.13 -0.989,0.55 z"/><path id="path35" style="fill:#fec600;fill-opacity:1;fill-rule:nonzero;stroke:none" d="m 8.5635,14.4209 0.828,0.771 -0.323,1.083 0.989,-0.548 0.931,0.641 -0.217,-1.11 0.899,-0.687 -1.123,-0.136 -0.376,-1.068 -0.477,1.026 -1.131,0.028 z"/><path id="path36" style="fill:#fec600;fill-opacity:1;fill-rule:nonzero;stroke:none" d="m 11.3076,10.4453 0.375,1.067 -0.79,0.81 1.131,-0.026 0.526,1.001 0.324,-1.084 1.115,-0.191 -0.931,-0.643 0.163,-1.12 -0.899,0.687 -1.014,-0.501 z"/><path id="path37" style="fill:#fec600;fill-opacity:1;fill-rule:nonzero;stroke:none" d="m 15.5845,8.2002 -0.164,1.119 -1.075,0.351 1.013,0.502 0.001,1.131 0.79,-0.81 1.077,0.35 -0.526,-1.002 0.665,-0.916 -1.115,0.19 -0.666,-0.915 z"/><path id="path38" style="fill:#fec600;fill-opacity:1;fill-rule:nonzero;stroke:none" d="m 20.415,8.2002 -0.665,0.915 -1.115,-0.19 0.665,0.916 -0.526,1.002 1.076,-0.35 0.791,0.81 0,-1.131 1.014,-0.502 -1.076,-0.351 -0.164,-1.119 z"/><path id="path39" style="fill:#fec600;fill-opacity:1;fill-rule:nonzero;stroke:none" d="m 24.6924,10.4453 -1.014,0.501 -0.899,-0.687 0.163,1.12 -0.931,0.643 1.115,0.191 0.324,1.084 0.526,-1.001 1.131,0.026 -0.79,-0.81 0.375,-1.067 z"/><path id="path40" style="fill:#fec600;fill-opacity:1;fill-rule:nonzero;stroke:none" d="m 27.4365,14.4209 -1.131,-0.028 -0.477,-1.026 -0.375,1.068 -1.123,0.136 0.898,0.687 -0.217,1.11 0.931,-0.641 0.989,0.548 -0.323,-1.083 0.828,-0.771 z"/><path id="path41" style="fill:#fec600;fill-opacity:1;fill-rule:nonzero;stroke:none" d="m 28.0186,19.2158 -0.988,-0.55 0.054,-1.13 -0.829,0.77 -1.057,-0.401 0.476,1.026 -0.709,0.883 1.124,-0.136 0.62,0.946 0.218,-1.11 1.091,-0.298 z"/><path id="path42" style="fill:#fec600;fill-opacity:1;fill-rule:nonzero;stroke:none" d="m 26.3057,23.7329 -0.619,-0.947 0.573,-0.975 -1.092,0.297 -0.751,-0.847 -0.054,1.13 -1.037,0.452 1.057,0.402 0.11,1.126 0.709,-0.882 1.104,0.244 z"/><path id="path43" style="fill:#fec600;fill-opacity:1;fill-rule:nonzero;stroke:none" d="m 22.6904,26.936 -0.109,-1.126 0.961,-0.598 -1.105,-0.244 -0.27,-1.098 -0.575,0.975 -1.129,-0.082 0.75,0.847 -0.425,1.048 1.037,-0.451 0.865,0.729 z"/><path id="path44" style="fill:#fec600;fill-opacity:1;fill-rule:nonzero;stroke:none" d="m 18,28.0918 0.427,-1.047 1.129,-0.083 -0.866,-0.729 0.271,-1.099 -0.961,0.596 -0.961,-0.596 0.27,1.099 -0.864,0.729 1.128,0.083 0.427,1.047 z"/></g></g></g></g></svg>