<svg xmlns:dc="http://purl.org/dc/elements/1.1/" xmlns:cc="http://creativecommons.org/ns#" xmlns:rdf="http://www.w3.org/1999/02/22-rdf-syntax-ns#" xmlns:svg="http://www.w3.org/2000/svg" xmlns="http://www.w3.org/2000/svg" viewBox="0 0 45 45" style="enable-background:new 0 0 45 45;" xml:space="preserve" version="1.1" id="svg2"><metadata id="metadata8"><rdf:RDF><cc:Work rdf:about=""><dc:format>image/svg+xml</dc:format><dc:type rdf:resource="http://purl.org/dc/dcmitype/StillImage"/></cc:Work></rdf:RDF></metadata><defs id="defs6"><clipPath id="clipPath16" clipPathUnits="userSpaceOnUse"><path id="path18" d="M 4,31 C 1.791,31 0,29.209 0,27 L 0,27 0,9 C 0,6.791 1.791,5 4,5 l 0,0 28,0 c 2.209,0 4,1.791 4,4 l 0,0 0,18 c 0,2.209 -1.791,4 -4,4 l 0,0 -28,0 z"/></clipPath></defs><g transform="matrix(1.25,0,0,-1.25,0,45)" id="g10"><g id="g12"><g xmlns="http://www.w3.org/2000/svg" clip-path="url(#clipPath16)" id="g14"><g id="g30"><path id="path20" style="fill:#cc0000;fill-opacity:1;fill-rule:nonzero;stroke:none" d="M 0,30.999 0,5 l 36,0 0,3.999 0,22 -36,0 z"/></g><g id="g34"><path id="path30" style="fill:#eeeeee;fill-opacity:1;fill-rule:nonzero;stroke:none" d="m 16.3926,25.0477 c -3.887,0 -7.049,-3.162 -7.049,-7.049 0,-3.886 3.162,-7.048 7.049,-7.048 3.887,0 7.049,3.162 7.049,7.048 0,3.887 -3.162,7.049 -7.049,7.049"/><path id="path32" style="fill:#002d65;fill-opacity:1;fill-rule:nonzero;stroke:none" d="m 16.3926,24.4906 c -3.58,0 -6.491,-2.912 -6.491,-6.492 0,-3.578 2.911,-6.49 6.491,-6.49 3.579,0 6.491,2.912 6.491,6.49 0,3.58 -2.912,6.492 -6.491,6.492"/><path id="path34" style="fill:#eeeeee;fill-opacity:1;fill-rule:nonzero;stroke:none" d="m 13.8223,23.5365 0.898,-2.07 2.242,0.266 -1.692,-1.494 0.946,-2.05 -1.944,1.147 -1.656,-1.532 0.49,2.203 -1.97,1.102 2.247,0.214 0.439,2.214 z"/><path id="path36" style="fill:#eeeeee;fill-opacity:1;fill-rule:nonzero;stroke:none" d="m 21.7168,20.9765 -0.937,-2.053 1.698,-1.487 -2.242,0.256 -0.889,-2.074 -0.449,2.212 -2.248,0.204 1.964,1.111 -0.5,2.201 1.665,-1.525 1.938,1.155 z"/><path id="path38" style="fill:#eeeeee;fill-opacity:1;fill-rule:nonzero;stroke:none" d="m 12.8623,16.6156 2.14,-0.716 1.3,1.844 -0.02,-2.257 2.157,-0.667 -2.153,-0.678 0.032,-2.256 -1.31,1.836 -2.136,-0.727 1.342,1.814 -1.352,1.807 z"/></g><g id="g38"><path id="path40" style="fill:#002d65;fill-opacity:1;fill-rule:nonzero;stroke:none" d="m 33.292,5.0004 2.708,0 0,25.999 -2.708,0 0,-25.999 z"/><path id="path42" style="fill:#eeeeee;fill-opacity:1;fill-rule:nonzero;stroke:none" d="m 32.75,5.0004 0.542,0 0,25.999 -0.542,0 0,-25.999 z"/></g></g></g></g></svg>