<svg xmlns:dc="http://purl.org/dc/elements/1.1/" xmlns:cc="http://creativecommons.org/ns#" xmlns:rdf="http://www.w3.org/1999/02/22-rdf-syntax-ns#" xmlns:svg="http://www.w3.org/2000/svg" xmlns="http://www.w3.org/2000/svg" viewBox="0 0 45 45" style="enable-background:new 0 0 45 45;" xml:space="preserve" version="1.1" id="svg2"><metadata id="metadata8"><rdf:RDF><cc:Work rdf:about=""><dc:format>image/svg+xml</dc:format><dc:type rdf:resource="http://purl.org/dc/dcmitype/StillImage"/></cc:Work></rdf:RDF></metadata><defs id="defs6"><clipPath id="clipPath16" clipPathUnits="userSpaceOnUse"><path id="path18" d="M 4,31 C 1.791,31 0,29.209 0,27 L 0,27 0,9 C 0,6.791 1.791,5 4,5 l 0,0 28,0 c 2.209,0 4,1.791 4,4 l 0,0 0,18 c 0,2.209 -1.791,4 -4,4 l 0,0 -28,0 z"/></clipPath></defs><g transform="matrix(1.25,0,0,-1.25,0,45)" id="g10"><g id="g12"><g xmlns="http://www.w3.org/2000/svg" clip-path="url(#clipPath16)" id="g14"><g id="g30"><path id="path20" d="M 0,5 H 36 V 31 H 0 Z" style="fill:#002468;fill-opacity:1;fill-rule:nonzero;stroke:none"/><path id="path21" d="M 0,12.826 H 36 V 23.173 H 0 Z" style="fill:#eeeeee;fill-opacity:1;fill-rule:nonzero;stroke:none"/></g><g id="g34"><path id="path30" style="fill:#fdbf01;fill-opacity:1;fill-rule:nonzero;stroke:none" d="m 29.1768,12.8262 c 0,2.002 -2.018,3.624 -4.507,3.624 -2.488,0 -4.506,-1.622 -4.506,-3.624 z"/><path id="path31" style="fill:#fdbf01;fill-opacity:1;fill-rule:nonzero;stroke:none" d="m 19.2969,12.8262 c 0,1.203 1.766,4.489 5.373,4.489 3.393,0 5.374,-3.083 5.374,-4.489 h 4.833 l -3.007,0.839 2.156,0.929 -2.517,-0.539 2.627,1.601 -3.192,-0.559 1.954,1.371 -2.171,-0.98 1.849,2.724 -3.085,-2.024 1.247,2.383 -1.976,-1.715 1.344,3.038 -2.297,-2.415 0.738,2.589 -1.3,-1.894 0.335,3.003 -1.512,-2.842 0.116,2.806 -0.986,-2.25 -0.388,3.088 -0.588,-3.661 -0.994,2.688 0.029,-2.576 -2.148,2.455 1.037,-3.164 -1.854,2.079 1.018,-2.224 -2.718,2.312 1.598,-2.862 -2.192,1.651 1.465,-2.05 -3.112,1.188 3.062,-2.468 -2.826,0.994 2.091,-1.332 -3.615,0.535 3.353,-1.727 -2.465,0.139 1.918,-0.636 -2.856,-0.494 z"/><path id="path32" style="fill:#009a00;fill-opacity:1;fill-rule:nonzero;stroke:none" d="m 7.6704,12.8262 h 2.481 c 0,0 -0.03,0.323 -0.332,0.656 -0.302,0.333 -0.594,0.362 -0.919,0.362 -0.324,0 -0.581,-0.042 -0.895,-0.362 -0.305,-0.31 -0.335,-0.656 -0.335,-0.656"/><path id="path33" style="fill:#9a6600;fill-opacity:1;fill-rule:nonzero;stroke:none" d="m 8.5029,13.7793 h 0.83 l -0.007,8.334 c 0,0 -0.085,0.093 -0.185,0.251 -0.134,0.213 -0.638,0.22 -0.638,0.22 z"/><path id="path34" style="fill:#009a00;fill-opacity:1;fill-rule:nonzero;stroke:none" d="m 9.3345,17.978 c 0,0 0.009,0.099 -0.035,0.209 -0.043,0.111 -0.096,0.144 -0.096,0.144 0,0 0,0.55 0.638,1.043 0.203,0.156 0.832,0.361 1.347,0.405 0.565,0.049 1.203,-0.282 1.385,-0.482 0.226,-0.248 0.47,-1.056 0.368,-1.179 -0.041,-0.049 -0.153,-0.03 -0.44,0.189 -0.344,0.262 -1.066,0.528 -1.56,0.528 -0.636,0 -0.953,-0.226 -1.303,-0.606 -0.223,-0.242 -0.304,-0.251 -0.304,-0.251"/><path id="path35" style="fill:#009a00;fill-opacity:1;fill-rule:nonzero;stroke:none" d="m 8.5088,17.606 c 0,0 -0.032,0.091 0.038,0.132 0.071,0.041 0.091,0.092 0.065,0.345 -0.026,0.252 -0.065,0.337 -0.224,0.438 -0.158,0.1 -0.62,0.32 -1.344,0.32 -0.759,0 -1.532,-0.448 -1.917,-0.886 -0.386,-0.438 -0.538,-0.781 -0.448,-0.876 0.108,-0.11 0.333,0.23 0.677,0.427 0.158,0.09 0.247,0.097 0.497,0.162 0.296,0.076 0.612,0.203 1.356,0.203 1.05,0 1.3,-0.265 1.3,-0.265"/><path id="path36" style="fill:#009a00;fill-opacity:1;fill-rule:nonzero;stroke:none" d="m 8.5127,19.0562 c 0,0 0.003,0.047 0.095,0.195 0.092,0.149 0.055,0.431 -0.011,0.533 -0.065,0.102 -0.738,0.781 -1.644,0.781 -0.454,0 -0.929,-0.109 -1.384,-0.39 -0.571,-0.352 -1.039,-0.899 -1.039,-1.203 0,-0.161 0.132,-0.07 0.313,0.093 0.098,0.089 0.227,0.158 0.367,0.222 0.268,0.125 1.117,0.425 1.67,0.425 0.641,0 1.04,-0.135 1.3,-0.331 0.247,-0.186 0.333,-0.325 0.333,-0.325"/><path id="path37" style="fill:#009a00;fill-opacity:1;fill-rule:nonzero;stroke:none" d="m 9.3271,20.2344 c 0,0 0.015,0.097 -0.037,0.261 -0.051,0.164 -0.071,0.216 -0.071,0.216 0,0 0.1,0.501 0.481,0.892 0.341,0.349 1.178,0.424 1.8,0.467 0.556,0.039 0.788,0.097 1.077,0.342 0.255,0.217 0.346,0.338 0.382,0.338 0.05,0 0.139,-0.476 -0.218,-1.059 -0.338,-0.553 -1.283,-0.686 -1.844,-0.727 -0.483,-0.035 -0.885,-0.148 -1.23,-0.531 -0.181,-0.202 -0.34,-0.199 -0.34,-0.199"/><path id="path38" style="fill:#009a00;fill-opacity:1;fill-rule:nonzero;stroke:none" d="m 8.5127,20.603 c 0,0 0.104,0.163 0.104,0.457 0,0.326 -0.195,0.718 -0.904,1.047 -0.383,0.179 -0.794,0.233 -1.183,0.185 -0.33,-0.041 -0.641,-0.158 -0.962,-0.315 -0.136,-0.067 -0.256,-0.181 -0.366,-0.273 -0.118,-0.1 -0.224,-0.18 -0.307,-0.291 -0.213,-0.284 -0.347,-0.639 -0.273,-0.721 0.123,-0.136 0.378,0.141 0.704,0.361 0.325,0.219 0.854,0.403 1.285,0.403 0.507,0 0.907,-0.148 1.217,-0.301 0.484,-0.238 0.685,-0.552 0.685,-0.552"/></g><g id="g38"><path id="path40" style="fill:#bf0a30;fill-opacity:1;fill-rule:nonzero;stroke:none" d="m 0,23.175 h 10.834 v 0.74 H 0 Z"/><path id="path41" style="fill:#eeeeee;fill-opacity:1;fill-rule:nonzero;stroke:none" d="m 0,23.916 h 10.834 v 0.653 H 0 Z"/><path id="path42" style="fill:#bf0a30;fill-opacity:1;fill-rule:nonzero;stroke:none" d="m 0,24.568 h 10.834 v 0.771 H 0 Z"/><path id="path43" style="fill:#eeeeee;fill-opacity:1;fill-rule:nonzero;stroke:none" d="M 0,25.338 H 10.834 V 25.99 H 0 Z"/><path id="path44" style="fill:#bf0a30;fill-opacity:1;fill-rule:nonzero;stroke:none" d="m 0,25.991 h 10.834 v 0.771 H 0 Z"/><path id="path45" style="fill:#eeeeee;fill-opacity:1;fill-rule:nonzero;stroke:none" d="m 0,27.4136 v -0.025 -0.627 h 10.834 v 0.652 H 3.611 Z"/><path id="path46" style="fill:#bf0a30;fill-opacity:1;fill-rule:nonzero;stroke:none" d="m 3.611,27.414 h 7.223 v 0.771 H 3.611 Z"/><path id="path47" style="fill:#eeeeee;fill-opacity:1;fill-rule:nonzero;stroke:none" d="m 3.611,28.184 h 7.223 v 0.652 H 3.611 Z"/><path id="path48" style="fill:#bf0a30;fill-opacity:1;fill-rule:nonzero;stroke:none" d="m 3.611,28.837 h 7.223 v 0.771 H 3.611 Z"/><path id="path49" style="fill:#eeeeee;fill-opacity:1;fill-rule:nonzero;stroke:none" d="m 3.611,29.607 h 7.223 v 0.652 H 3.611 Z"/><path id="path50" style="fill:#bf0a30;fill-opacity:1;fill-rule:nonzero;stroke:none" d="m 3.611,30.259 h 7.223 V 31 H 3.611 Z"/><path id="path51" style="fill:#002868;fill-opacity:1;fill-rule:nonzero;stroke:none" d="m 3.6113,28.1846 v 0.652 0.771 0.652 0.741 H 3e-4 v -3.587 h 3.611 z m -1.806,0.502 -0.625,-0.454 0.239,0.735 -0.626,0.454 h 0.773 l 0.239,0.736 0.24,-0.736 h 0.773 l -0.626,-0.454 0.239,-0.735 z"/><path id="path52" style="fill:#ffffff;fill-opacity:1;fill-rule:nonzero;stroke:none" d="m 2.8174,29.4214 h -0.773 l -0.239,0.735 -0.238,-0.735 h -0.773 l 0.625,-0.454 -0.239,-0.735 0.625,0.454 0.626,-0.454 -0.239,0.735 z"/></g></g></g></g></svg>