<svg xmlns:dc="http://purl.org/dc/elements/1.1/" xmlns:cc="http://creativecommons.org/ns#" xmlns:rdf="http://www.w3.org/1999/02/22-rdf-syntax-ns#" xmlns:svg="http://www.w3.org/2000/svg" xmlns="http://www.w3.org/2000/svg" viewBox="0 0 45 45" style="enable-background:new 0 0 45 45;" xml:space="preserve" version="1.1" id="svg2"><metadata id="metadata8"><rdf:RDF><cc:Work rdf:about=""><dc:format>image/svg+xml</dc:format><dc:type rdf:resource="http://purl.org/dc/dcmitype/StillImage"/></cc:Work></rdf:RDF></metadata><defs id="defs6"><clipPath id="clipPath16" clipPathUnits="userSpaceOnUse"><path id="path18" d="M 0,36 36,36 36,0 0,0 0,36 Z"/></clipPath></defs><g transform="matrix(1.25,0,0,-1.25,0,45)" id="g10"><g id="g12"><g clip-path="url(#clipPath16)" id="g14"><g id="g20"><path id="path22" style="fill:#e7e7e7;fill-opacity:1;fill-rule:nonzero;stroke:none" d="m 0,27 c 0,2.21 1.79,4 4,4 h 28 c 2.21,0 4,-1.79 4,-4 V 9 C 36,6.79 34.21,5 32,5 H 4 C 1.79,5 0,6.79 0,9 Z"/></g><g id="g24"><path id="path26" style="fill:#ffffff;fill-opacity:1;fill-rule:nonzero;stroke:none" d="M 1.6899,18 V 9 c 0,-1.273 1.036,-2.31 2.31,-2.31 h 28 c 1.273,0 2.31,1.037 2.31,2.31 v 9 z"/></g><g id="g28"><path id="path30" style="fill:#89c5e3;fill-opacity:1;fill-rule:nonzero;stroke:none" d="m 34.3096,18 v 9 c 0,1.274 -1.036,2.31 -2.31,2.31 h -28 c -1.273,0 -2.31,-1.036 -2.31,-2.31 v -9 z"/></g></g></g></g></svg>