<svg xmlns:dc="http://purl.org/dc/elements/1.1/" xmlns:cc="http://creativecommons.org/ns#" xmlns:rdf="http://www.w3.org/1999/02/22-rdf-syntax-ns#" xmlns:svg="http://www.w3.org/2000/svg" xmlns="http://www.w3.org/2000/svg" viewBox="0 0 45 45" style="enable-background:new 0 0 45 45;" xml:space="preserve" version="1.1" id="svg2"><metadata id="metadata8"><rdf:RDF><cc:Work rdf:about=""><dc:format>image/svg+xml</dc:format><dc:type rdf:resource="http://purl.org/dc/dcmitype/StillImage"/></cc:Work></rdf:RDF></metadata><defs id="defs6"><clipPath id="clipPath16" clipPathUnits="userSpaceOnUse"><path id="path18" d="M 0,36 36,36 36,0 0,0 0,36 Z"/></clipPath></defs><g transform="matrix(1.25,0,0,-1.25,0,45)" id="g10"><g id="g12"><g xmlns="http://www.w3.org/2000/svg" clip-path="url(#clipPath16)" id="g14"><g id="g30"><path id="path20" style="fill:#eeeeee;fill-opacity:1;fill-rule:nonzero;stroke:none" d="m 0,27.0002 v 0 c 0,2.209 1.791,4 4,4 h 28 c 2.209,0 4,-1.791 4,-4 v -18 c 0,-2.209 -1.791,-4 -4,-4 H 4 c -2.209,0 -4,1.791 -4,4 z"/></g><g id="g34"><path id="path30" style="fill:#078930;fill-opacity:1;fill-rule:nonzero;stroke:none" d="M 0.0098,8.715 C 0.1558,6.639 1.8868,5 3.9998,5 h 28 c 2.114,0 3.845,1.64 3.99,3.716 z"/><path id="path31" style="fill:#078930;fill-opacity:1;fill-rule:nonzero;stroke:none" d="M 36,16.1442 H 0 v -3.715 h 36 z"/><path id="path32" style="fill:#078930;fill-opacity:1;fill-rule:nonzero;stroke:none" d="M 14.856,19.8572 H 36 v 3.714 H 14.856 Z"/><path id="path33" style="fill:#078930;fill-opacity:1;fill-rule:nonzero;stroke:none" d="m 35.9902,27.2858 c -0.146,2.076 -1.877,3.714 -3.99,3.714 h -17.144 v -3.714 z"/></g><g id="g38"><path id="path40" style="fill:#fcdd09;fill-opacity:1;fill-rule:nonzero;stroke:none" d="m 7.4292,24.6472 0.236,-0.75 0.787,0.007 -0.641,-0.457 0.25,-0.746 -0.632,0.469 -0.632,-0.469 0.251,0.746 -0.641,0.457 0.786,-0.007 z"/><path id="path41" style="fill:#fcdd09;fill-opacity:1;fill-rule:nonzero;stroke:none" d="m 7.4292,30.0588 0.236,-0.75 0.787,0.007 -0.641,-0.456 0.25,-0.746 -0.632,0.468 -0.632,-0.468 0.251,0.746 -0.641,0.456 0.786,-0.007 z"/><path id="path42" style="fill:#fcdd09;fill-opacity:1;fill-rule:nonzero;stroke:none" d="m 4.791,29.4982 0.521,-0.59 0.715,0.327 -0.4,-0.678 0.533,-0.58 -0.768,0.171 -0.387,-0.685 -0.075,0.784 -0.771,0.156 0.722,0.313 z"/><path id="path43" style="fill:#fcdd09;fill-opacity:1;fill-rule:nonzero;stroke:none" d="m 2.6084,27.9123 0.716,-0.327 0.521,0.59 -0.09,-0.782 0.722,-0.313 -0.771,-0.156 -0.075,-0.783 -0.387,0.685 -0.768,-0.171 0.532,0.58 z"/><path id="path44" style="fill:#fcdd09;fill-opacity:1;fill-rule:nonzero;stroke:none" d="m 1.2598,25.5764 0.787,-0.007 0.236,0.75 0.236,-0.75 0.787,0.007 -0.641,-0.457 0.25,-0.746 -0.632,0.469 -0.632,-0.469 0.25,0.746 z"/><path id="path45" style="fill:#fcdd09;fill-opacity:1;fill-rule:nonzero;stroke:none" d="m 0.978,22.8938 0.722,0.313 -0.09,0.782 0.521,-0.59 0.716,0.327 -0.4,-0.678 0.532,-0.579 -0.769,0.171 -0.386,-0.685 -0.075,0.783 z"/><path id="path46" style="fill:#fcdd09;fill-opacity:1;fill-rule:nonzero;stroke:none" d="m 1.8115,20.3283 0.532,0.58 -0.4,0.677 0.716,-0.327 0.521,0.59 -0.09,-0.782 0.722,-0.313 -0.772,-0.156 -0.074,-0.783 -0.387,0.685 z"/><path id="path47" style="fill:#fcdd09;fill-opacity:1;fill-rule:nonzero;stroke:none" d="m 3.6162,18.3234 0.25,0.746 -0.641,0.457 0.787,-0.008 0.236,0.751 0.236,-0.751 0.787,0.008 -0.641,-0.457 0.251,-0.746 -0.633,0.469 z"/><path id="path48" style="fill:#fcdd09;fill-opacity:1;fill-rule:nonzero;stroke:none" d="m 6.0806,17.2268 -0.075,0.783 -0.771,0.156 0.722,0.313 -0.09,0.782 0.521,-0.59 0.716,0.327 -0.4,-0.677 0.532,-0.58 -0.768,0.171 z"/><path id="path49" style="fill:#fcdd09;fill-opacity:1;fill-rule:nonzero;stroke:none" d="m 8.7783,17.2268 -0.387,0.685 -0.768,-0.171 0.532,0.58 -0.4,0.677 0.716,-0.327 0.521,0.59 -0.09,-0.782 0.722,-0.313 -0.771,-0.156 z"/><path id="path50" style="fill:#fcdd09;fill-opacity:1;fill-rule:nonzero;stroke:none" d="m 11.2427,18.3234 -0.632,0.469 -0.633,-0.469 0.251,0.746 -0.641,0.457 0.787,-0.008 0.236,0.751 0.236,-0.751 0.787,0.008 -0.641,-0.457 z"/><path id="path51" style="fill:#fcdd09;fill-opacity:1;fill-rule:nonzero;stroke:none" d="m 13.0474,20.3283 -0.768,0.171 -0.387,-0.685 -0.074,0.783 -0.772,0.156 0.722,0.313 -0.09,0.782 0.521,-0.59 0.716,0.327 -0.4,-0.677 z"/><path id="path52" style="fill:#fcdd09;fill-opacity:1;fill-rule:nonzero;stroke:none" d="m 13.8809,22.8938 -0.771,-0.156 -0.075,-0.783 -0.387,0.685 -0.768,-0.171 0.532,0.579 -0.4,0.678 0.716,-0.327 0.521,0.59 -0.09,-0.782 z"/><path id="path53" style="fill:#fcdd09;fill-opacity:1;fill-rule:nonzero;stroke:none" d="m 13.5991,25.5764 -0.641,-0.457 0.25,-0.746 -0.632,0.469 -0.632,-0.469 0.25,0.746 -0.641,0.457 0.787,-0.007 0.236,0.75 0.236,-0.75 z"/><path id="path54" style="fill:#fcdd09;fill-opacity:1;fill-rule:nonzero;stroke:none" d="m 12.2505,27.9123 -0.4,-0.677 0.532,-0.58 -0.768,0.171 -0.387,-0.685 -0.075,0.783 -0.771,0.156 0.722,0.313 -0.09,0.782 0.521,-0.59 z"/><path id="path55" style="fill:#fcdd09;fill-opacity:1;fill-rule:nonzero;stroke:none" d="m 10.0679,29.4982 -0.09,-0.782 0.722,-0.313 -0.771,-0.156 -0.075,-0.784 -0.387,0.685 -0.768,-0.171 0.533,0.58 -0.401,0.678 0.716,-0.327 z"/></g></g></g></g></svg>