<svg xmlns:dc="http://purl.org/dc/elements/1.1/" xmlns:cc="http://creativecommons.org/ns#" xmlns:rdf="http://www.w3.org/1999/02/22-rdf-syntax-ns#" xmlns:svg="http://www.w3.org/2000/svg" xmlns="http://www.w3.org/2000/svg" viewBox="0 0 45 45" style="enable-background:new 0 0 45 45;" xml:space="preserve" version="1.1" id="svg2"><metadata id="metadata8"><rdf:RDF><cc:Work rdf:about=""><dc:format>image/svg+xml</dc:format><dc:type rdf:resource="http://purl.org/dc/dcmitype/StillImage"/></cc:Work></rdf:RDF></metadata><defs id="defs6"><clipPath id="clipPath16" clipPathUnits="userSpaceOnUse"><path id="path18" d="M 4,31 C 1.791,31 0,29.209 0,27 L 0,27 0,9 C 0,6.791 1.791,5 4,5 l 0,0 28,0 c 2.209,0 4,1.791 4,4 l 0,0 0,18 c 0,2.209 -1.791,4 -4,4 l 0,0 -28,0 z"/></clipPath></defs><g transform="matrix(1.25,0,0,-1.25,0,45)" id="g10"><g id="g12"><g clip-path="url(#clipPath16)" id="g14"><path id="path20" style="fill:#22B04D;fill-opacity:1;fill-rule:nonzero;stroke:none" d="M 0,5 36,5 36,31 0,31 0,5 Z"/></g></g><g xmlns="http://www.w3.org/2000/svg" transform="translate(-5.3,-4.5)" id="g22"><path id="path20" style="fill:#EED81B;fill-opacity:1;fill-rule:nonzero;stroke:none" d="m 22.4668,29.5498 0.685,-0.797 -0.041,-1.754 c 0,0 -0.299,0.56 -0.795,1.012 -0.497,0.452 -1.279,0.874 -1.279,0.874 l 0.345,0.997 -0.873,2.245 -1.416,-0.551 0.873,-2.245 0.822,-0.445 -1.425,0.43 -0.143,1.055 -1.983,1.796 -1.124,-1.242 1.982,-1.795 1.105,-0.04 0.915,-0.51 -0.795,0.235 -1.901,-0.923 0.626,-1.288 1.901,0.923 0.358,0.899 0.153,0.229 c 0,0 1.821,-0.324 2.354,-1.943 0.534,-1.619 -0.025,-3.991 -0.025,-3.991 0,0 -0.367,0.739 -1.148,1.318 -0.781,0.579 -1.392,0.826 -1.392,0.826 l 0.801,0.116 1.331,1.626 -1.109,0.907 -1.331,-1.627 0.05,-0.883 c 0,0 -0.566,-0.315 -1.08,-0.24 -0.512,0.075 -1.289,1.021 -1.289,1.021 l -0.121,0.907 -1.937,1.691 -1.102,-1.262 1.937,-1.691 1.124,0.002 c 0,0 0.179,-0.193 0.48,-0.428 0.301,-0.236 0.574,-0.368 0.574,-0.368 l -1.369,-0.782 -0.682,-0.007 -1.552,-1.59 1.186,-1.158 1.553,1.591 -0.015,1.043 c 0,0 0.705,0.753 1.632,0.753 0.928,0 2.482,-0.632 3.051,-2.21 0.427,-1.186 -0.05,-3.225 -0.05,-3.225 0,0 -0.514,0.678 -1.073,1.017 -0.559,0.338 -1.694,0.645 -1.694,0.645 l -0.203,0.775 0.666,0.023 1.146,1.219 -0.899,0.845 -1.146,-1.219 -0.078,-0.821 0.112,-0.714 -1.351,-0.037 -0.688,0.206 -1.887,-0.866 0.566,-1.233 1.887,0.866 0.294,0.66 1.43,-0.049 -0.464,-0.431 -1.109,-0.061 -2.078,-1.956 1.225,-1.302 2.078,1.956 0.13,1.122 c 0,0 0.777,0.71 2.019,-0.25 1.876,-1.45 0.452,-3.52 0.452,-3.52 l -1.642,0.399 -1.917,-0.512 0.71,-0.451 1.017,0.188 1.242,-0.414 -1.073,0.047 -1.317,-0.302 0.47,-0.376 1.073,0.226 1.082,-0.376 -0.612,-0.368 0.546,-0.289 1.042,0.314 -0.558,-0.514 0.577,-0.144 0.621,0.476 0.38,-0.546 0.381,0.546 0.621,-0.476 0.577,0.144 -0.559,0.514 1.042,-0.314 0.546,0.289 -0.612,0.368 1.083,0.376 1.072,-0.226 0.471,0.376 -1.317,0.302 -1.074,-0.047 1.243,0.414 1.016,-0.188 0.711,0.451 -1.917,0.512 -1.642,-0.399 c 0,0 -1.424,2.07 0.452,3.52 1.242,0.96 2.019,0.25 2.019,0.25 l 0.13,-1.122 2.077,-1.956 1.226,1.302 -2.078,1.956 -1.11,0.061 -0.464,0.431 1.43,0.049 0.295,-0.66 1.887,-0.866 0.566,1.233 -1.888,0.866 -0.688,-0.206 -1.351,0.037 0.113,0.714 -0.078,0.821 -1.146,1.219 -0.898,-0.845 1.145,-1.219 0.665,-0.023 -0.202,-0.775 c 0,0 -1.136,-0.307 -1.694,-0.645 -0.559,-0.339 -1.074,-1.017 -1.074,-1.017 0,0 -0.476,2.039 -0.049,3.225 0.569,1.578 2.124,2.21 3.05,2.21 0.927,0 1.632,-0.753 1.632,-0.753 l -0.014,-1.043 1.552,-1.591 1.187,1.158 -1.553,1.59 -0.681,0.007 -1.37,0.782 c 0,0 0.273,0.132 0.575,0.368 0.3,0.235 0.479,0.428 0.479,0.428 l 1.125,-0.002 1.937,1.691 -1.102,1.262 -1.936,-1.691 -0.123,-0.907 c 0,0 -0.776,-0.946 -1.289,-1.021 -0.512,-0.075 -1.08,0.24 -1.08,0.24 l 0.05,0.883 -1.331,1.627 -1.108,-0.907 1.331,-1.626 0.801,-0.116 c 0,0 -0.611,-0.247 -1.392,-0.826 -0.781,-0.579 -1.149,-1.318 -1.149,-1.318 0,0 -0.558,2.372 -0.025,3.991 0.534,1.619 2.355,1.943 2.355,1.943 l 0.153,-0.229 0.358,-0.899 1.901,-0.923 0.626,1.288 -1.901,0.923 -0.796,-0.235 0.915,0.51 1.105,0.04 1.983,1.795 -1.125,1.242 -1.982,-1.796 -0.143,-1.055 -1.425,-0.43 0.822,0.445 0.873,2.245 -1.416,0.551 -0.873,-2.245 0.344,-0.997 c 0,0 -0.782,-0.422 -1.278,-0.874 -0.496,-0.452 -0.795,-1.012 -0.795,-1.012 l -0.041,1.754 0.685,0.797 0,2.625 -1.675,0 0,-2.625 z"/></g></g></svg>