<svg xmlns:dc="http://purl.org/dc/elements/1.1/" xmlns:cc="http://creativecommons.org/ns#" xmlns:rdf="http://www.w3.org/1999/02/22-rdf-syntax-ns#" xmlns:svg="http://www.w3.org/2000/svg" xmlns="http://www.w3.org/2000/svg" viewBox="0 0 45 45" style="enable-background:new 0 0 45 45;" xml:space="preserve" version="1.1" id="svg2"><metadata id="metadata8"><rdf:RDF><cc:Work rdf:about=""><dc:format>image/svg+xml</dc:format><dc:type rdf:resource="http://purl.org/dc/dcmitype/StillImage"/></cc:Work></rdf:RDF></metadata><defs id="defs6"><clipPath id="clipPath16" clipPathUnits="userSpaceOnUse"><path id="path18" d="M 0,36 36,36 36,0 0,0 0,36 Z"/></clipPath></defs><g transform="matrix(1.25,0,0,-1.25,0,45)" id="g10"><g id="g12"><g xmlns="http://www.w3.org/2000/svg" clip-path="url(#clipPath16)" id="g14"><g id="g30"><path id="path20" style="fill:#eeeeee;fill-opacity:1;fill-rule:nonzero;stroke:none" d="M 32,31 4,31 C 1.791,31 0,29.209 0,27 L 0,9 C 0,6.791 1.791,5 4,5 l 28,0 c 2.209,0 4,1.791 4,4 l 0,18 c 0,2.209 -1.791,4 -4,4"/></g><g id="g34"><path id="path30" style="fill:#000000;fill-opacity:1;fill-rule:nonzero;stroke:none" d="m 9.3594,6.3301 0,-0.615 0.402,0 c 0.111,0 0.198,0.026 0.26,0.079 0.062,0.053 0.093,0.125 0.093,0.218 0,0.209 -0.109,0.315 -0.324,0.318 l -0.431,0 z m 0,0.332 0.348,0 c 0.236,0.004 0.355,0.099 0.355,0.283 0,0.104 -0.03,0.178 -0.09,0.224 -0.06,0.045 -0.155,0.068 -0.284,0.068 l -0.329,0 0,-0.575 z m -0.47,-1.325 0,2.281 0.799,0 c 0.276,0 0.486,-0.054 0.629,-0.159 0.144,-0.107 0.215,-0.262 0.215,-0.466 0,-0.112 -0.028,-0.211 -0.086,-0.296 -0.058,-0.085 -0.137,-0.147 -0.24,-0.187 0.117,-0.029 0.209,-0.088 0.277,-0.177 0.067,-0.089 0.101,-0.197 0.101,-0.325 0,-0.22 -0.07,-0.386 -0.21,-0.499 -0.14,-0.113 -0.34,-0.17 -0.598,-0.172 l -0.887,0 z"/><path id="path31" style="fill:#000000;fill-opacity:1;fill-rule:nonzero;stroke:none" d="m 11.8184,8.2334 0.494,0 -0.434,-0.485 -0.369,0 0.309,0.485 z m 0.49,-1.905 -0.902,0 0,-0.614 1.059,0 0,-0.377 -1.529,0 0,2.281 1.526,0 0,-0.381 -1.056,0 0,-0.544 0.902,0 0,-0.365 z"/><path id="path32" style="fill:#000000;fill-opacity:1;fill-rule:nonzero;stroke:none" d="m 13.4556,6.252 -0.244,-0.264 0,-0.651 -0.47,0 0,2.281 0.47,0 0,-1.034 0.206,0.283 0.581,0.751 0.579,0 -0.81,-1.013 0.833,-1.268 -0.559,0 -0.586,0.915 z"/><path id="path33" style="fill:#000000;fill-opacity:1;fill-rule:nonzero;stroke:none" d="m 15.6597,8.2334 0.494,0 -0.434,-0.485 -0.369,0 0.309,0.485 z m 0.49,-1.905 -0.902,0 0,-0.614 1.059,0 0,-0.377 -1.529,0 0,2.281 1.526,0 0,-0.381 -1.056,0 0,-0.544 0.902,0 0,-0.365 z"/><path id="path34" style="fill:#000000;fill-opacity:1;fill-rule:nonzero;stroke:none" d="m 17.7646,5.9355 c 0,0.089 -0.031,0.156 -0.094,0.204 -0.063,0.048 -0.176,0.098 -0.338,0.15 -0.163,0.053 -0.292,0.105 -0.387,0.157 -0.259,0.139 -0.389,0.328 -0.389,0.565 0,0.123 0.035,0.234 0.104,0.329 0.07,0.097 0.17,0.173 0.3,0.227 0.13,0.055 0.276,0.082 0.438,0.082 0.162,0 0.307,-0.03 0.435,-0.089 0.127,-0.059 0.226,-0.143 0.297,-0.25 0.071,-0.107 0.106,-0.229 0.106,-0.366 l -0.471,0 c 0,0.104 -0.032,0.185 -0.098,0.243 -0.066,0.059 -0.158,0.087 -0.278,0.087 -0.114,0 -0.204,-0.025 -0.267,-0.072 -0.064,-0.049 -0.096,-0.114 -0.096,-0.193 0,-0.074 0.038,-0.136 0.113,-0.186 0.074,-0.05 0.184,-0.097 0.329,-0.141 0.267,-0.08 0.462,-0.181 0.585,-0.299 0.122,-0.119 0.183,-0.267 0.183,-0.445 0,-0.197 -0.075,-0.353 -0.224,-0.465 -0.15,-0.112 -0.351,-0.168 -0.603,-0.168 -0.176,0 -0.336,0.032 -0.48,0.097 -0.144,0.063 -0.254,0.151 -0.33,0.263 -0.075,0.112 -0.113,0.242 -0.113,0.389 l 0.471,0 c 0,-0.252 0.151,-0.378 0.452,-0.378 0.111,0 0.198,0.023 0.261,0.069 0.063,0.044 0.094,0.108 0.094,0.19"/><path id="path35" style="fill:#000000;fill-opacity:1;fill-rule:nonzero;stroke:none" d="m 20.3447,6.0967 c -0.018,-0.245 -0.108,-0.438 -0.271,-0.58 -0.165,-0.141 -0.379,-0.211 -0.647,-0.211 -0.292,0 -0.522,0.099 -0.69,0.295 -0.167,0.197 -0.251,0.468 -0.251,0.81 l 0,0.14 c 0,0.22 0.038,0.413 0.116,0.58 0.077,0.167 0.187,0.295 0.331,0.384 0.143,0.09 0.31,0.135 0.5,0.135 0.264,0 0.475,-0.072 0.637,-0.212 0.16,-0.141 0.254,-0.339 0.278,-0.594 l -0.47,0 c -0.012,0.148 -0.053,0.254 -0.123,0.32 -0.07,0.067 -0.178,0.1 -0.322,0.1 -0.156,0 -0.274,-0.056 -0.351,-0.168 -0.078,-0.112 -0.119,-0.287 -0.121,-0.522 l 0,-0.173 c 0,-0.246 0.038,-0.427 0.113,-0.54 0.075,-0.115 0.192,-0.171 0.353,-0.171 0.146,0 0.254,0.033 0.325,0.099 0.072,0.067 0.113,0.169 0.123,0.308 l 0.47,0 z"/><path id="path36" style="fill:#000000;fill-opacity:1;fill-rule:nonzero;stroke:none" d="m 21.8369,5.9355 c 0,0.089 -0.031,0.156 -0.095,0.204 -0.062,0.048 -0.175,0.098 -0.338,0.15 -0.163,0.053 -0.292,0.105 -0.386,0.157 -0.26,0.139 -0.389,0.328 -0.389,0.565 0,0.123 0.034,0.234 0.104,0.329 0.07,0.097 0.169,0.173 0.299,0.227 0.13,0.055 0.276,0.082 0.438,0.082 0.163,0 0.308,-0.03 0.435,-0.089 0.128,-0.059 0.227,-0.143 0.297,-0.25 0.071,-0.107 0.106,-0.229 0.106,-0.366 l -0.47,0 c 0,0.104 -0.032,0.185 -0.099,0.243 -0.065,0.059 -0.158,0.087 -0.277,0.087 -0.114,0 -0.204,-0.025 -0.268,-0.072 -0.063,-0.049 -0.095,-0.114 -0.095,-0.193 0,-0.074 0.037,-0.136 0.112,-0.186 0.074,-0.05 0.185,-0.097 0.329,-0.141 0.268,-0.08 0.463,-0.181 0.585,-0.299 0.122,-0.119 0.183,-0.267 0.183,-0.445 0,-0.197 -0.075,-0.353 -0.224,-0.465 -0.149,-0.112 -0.351,-0.168 -0.603,-0.168 -0.175,0 -0.335,0.032 -0.479,0.097 -0.144,0.063 -0.254,0.151 -0.33,0.263 -0.076,0.112 -0.113,0.242 -0.113,0.389 l 0.471,0 c 0,-0.252 0.151,-0.378 0.451,-0.378 0.112,0 0.199,0.023 0.261,0.069 0.064,0.044 0.095,0.108 0.095,0.19"/><path id="path37" style="fill:#000000;fill-opacity:1;fill-rule:nonzero;stroke:none" d="m 23.2158,6.1875 0.57,0 -0.286,0.854 -0.284,-0.854 z m 0.697,-0.381 -0.824,0 -0.156,-0.47 -0.5,0 0.849,2.282 0.436,0 0.853,-2.282 -0.5,0 -0.158,0.47 z"/><path id="path38" style="fill:#000000;fill-opacity:1;fill-rule:nonzero;stroke:none" d="m 25.2549,6.3301 0,-0.615 0.402,0 c 0.111,0 0.198,0.026 0.259,0.079 0.063,0.053 0.094,0.125 0.094,0.218 0,0.209 -0.109,0.315 -0.324,0.318 l -0.431,0 z m 0,0.332 0.348,0 c 0.237,0.004 0.355,0.099 0.355,0.283 0,0.104 -0.03,0.178 -0.09,0.224 -0.06,0.045 -0.155,0.068 -0.284,0.068 l -0.329,0 0,-0.575 z m -0.47,-1.325 0,2.281 0.799,0 c 0.276,0 0.486,-0.054 0.629,-0.159 0.144,-0.107 0.215,-0.262 0.215,-0.466 0,-0.112 -0.028,-0.211 -0.086,-0.296 -0.058,-0.085 -0.138,-0.147 -0.239,-0.187 0.116,-0.029 0.209,-0.088 0.276,-0.177 0.067,-0.089 0.101,-0.197 0.101,-0.325 0,-0.22 -0.071,-0.386 -0.21,-0.499 -0.14,-0.113 -0.339,-0.17 -0.599,-0.172 l -0.886,0 z"/><path id="path39" style="fill:#000000;fill-opacity:1;fill-rule:nonzero;stroke:none" d="m 27.4219,6.1875 0.57,0 -0.286,0.854 -0.284,-0.854 z m 0.697,-0.381 -0.824,0 -0.156,-0.47 -0.5,0 0.849,2.282 0.436,0 0.853,-2.282 -0.5,0 -0.158,0.47 z"/></g><g id="g38"><path id="path40" style="fill:#09432a;fill-opacity:1;fill-rule:nonzero;stroke:none" d="m 19.0723,11.2617 c 1.363,0.519 2.413,2.003 2.689,3.85 0,0 0.801,-1.873 0.182,-2.945 -1.075,-1.859 -2.871,-0.905 -2.871,-0.905"/><path id="path41" style="fill:#09432a;fill-opacity:1;fill-rule:nonzero;stroke:none" d="m 16.9277,11.2617 c -1.363,0.519 -2.413,2.003 -2.689,3.85 0,0 -0.802,-1.873 -0.182,-2.945 1.075,-1.859 2.871,-0.905 2.871,-0.905"/><path id="path42" style="fill:#556886;fill-opacity:1;fill-rule:nonzero;stroke:none" d="m 19.0693,21.6294 c 0,0.921 0.254,1.647 0.254,1.647 0,0 0.058,0.274 0.224,0.622 0,0 -0.091,-0.208 0.827,-0.822 0.919,-0.614 1.357,0.275 1.357,0.275 0,0 0.58,-0.306 0.125,-0.777 -0.454,-0.47 -0.376,-0.839 -0.376,-0.839 0,0 0.823,0.361 1.773,0.188 1.259,-0.229 1.482,-1.161 1.482,-1.161 0,0 -0.401,-0.027 -0.902,0.416 -0.46,0.408 -0.698,0.262 -0.698,0.039 0,-0.47 2.086,-0.823 2.086,-2.478 0,-1.655 -1.34,-1.891 -1.333,-2.714 0.008,-0.823 -0.188,-1.155 -0.188,-1.155 0,0 -0.702,1.398 -1.103,0.186 -0.167,-0.507 -0.052,-0.846 0.154,-1.058 0.203,-0.209 0.576,-0.201 0.603,0.105 0.042,0.467 -0.477,0.318 -0.477,0.318 0,0 0.272,0.382 0.556,0.208 0.407,-0.25 0.361,-1.145 -0.322,-1.145 -0.682,0 -1.066,0.785 -1.066,1.294 0,0.509 -0.257,0.529 -0.257,0.529 l -2.719,6.322 z"/><path id="path43" style="fill:#6d2028;fill-opacity:1;fill-rule:nonzero;stroke:none" d="m 16.9307,21.6294 c 0,0.921 -0.254,1.647 -0.254,1.647 0,0 -0.059,0.274 -0.223,0.622 0,0 0.09,-0.208 -0.828,-0.822 -0.919,-0.614 -1.357,0.275 -1.357,0.275 0,0 -0.58,-0.306 -0.126,-0.777 0.455,-0.47 0.377,-0.839 0.377,-0.839 0,0 -0.823,0.361 -1.773,0.188 -1.259,-0.229 -1.482,-1.161 -1.482,-1.161 0,0 0.402,-0.027 0.902,0.416 0.46,0.408 0.698,0.262 0.698,0.039 0,-0.47 -2.086,-0.823 -2.086,-2.478 0,-1.655 1.341,-1.891 1.333,-2.714 -0.008,-0.823 0.188,-1.155 0.188,-1.155 0,0 0.702,1.398 1.102,0.186 0.168,-0.507 0.054,-0.846 -0.153,-1.058 -0.203,-0.209 -0.576,-0.201 -0.604,0.105 -0.042,0.467 0.479,0.318 0.479,0.318 0,0 -0.274,0.382 -0.557,0.208 -0.408,-0.25 -0.361,-1.145 0.322,-1.145 0.682,0 1.066,0.785 1.066,1.294 0,0.509 0.258,0.529 0.258,0.529 l 2.718,6.322 z"/><path id="path44" style="fill:#ffffff;fill-opacity:1;fill-rule:nonzero;stroke:none" d="m 21.833,16.083 c 0,2.773 -1.716,5.021 -3.833,5.021 -2.117,0 -3.834,-2.248 -3.834,-5.021 0,-2.772 1.717,-5.021 3.834,-5.021 2.117,0 3.833,2.249 3.833,5.021"/><path id="path45" style="fill:#78202c;fill-opacity:1;fill-rule:nonzero;stroke:none" d="m 18,10.3164 c 0.105,0 0.302,0.026 0.384,0.071 0,0 0.651,-0.933 0.651,0.354 0,1.287 -0.651,0.353 -0.651,0.353 -0.082,0.045 -0.279,0.071 -0.384,0.071 -0.105,0 -0.302,-0.026 -0.384,-0.071 0,0 -0.651,0.934 -0.651,-0.353 0,-1.287 0.651,-0.354 0.651,-0.354 0.082,-0.045 0.279,-0.071 0.384,-0.071"/><path id="path46" style="fill:#bbad64;fill-opacity:1;fill-rule:nonzero;stroke:none" d="m 21.417,16.5107 c 0,2.537 -1.53,4.593 -3.417,4.593 -1.887,0 -3.416,-2.056 -3.416,-4.593 0,-2.537 1.529,-4.594 3.416,-4.594 1.887,0 3.417,2.057 3.417,4.594"/><path id="path47" style="fill:#09432a;fill-opacity:1;fill-rule:nonzero;stroke:none" d="m 14.9868,15.4287 c 0.354,-1.791 1.569,-3.11 3.013,-3.11 1.445,0 2.659,1.319 3.014,3.11 l -6.027,0 z"/><path id="path48" style="fill:#bbada4;fill-opacity:1;fill-rule:nonzero;stroke:none" d="m 21.0137,15.4287 c 0.068,0.346 0.104,0.708 0.104,1.082 l -6.236,0 c 0,-0.374 0.037,-0.736 0.105,-1.082 l 6.027,0 z"/><path id="path49" style="fill:#4b79aa;fill-opacity:1;fill-rule:nonzero;stroke:none" d="m 21.1182,16.5107 c 0,1.336 -0.465,2.526 -1.189,3.294 0,0 0.296,0.15 0.437,0.581 0.096,0.291 0.057,0.573 0.057,0.573 0,0 -0.406,-0.08 -0.83,0.183 -0.454,0.281 -0.524,0.488 -0.524,0.488 0,0.921 0.254,1.647 0.254,1.647 0,0 -0.471,0.505 -1.323,0.505 -0.853,0 -1.324,-0.505 -1.324,-0.505 0,0 0.255,-0.726 0.255,-1.647 0,0 -0.071,-0.207 -0.524,-0.488 -0.425,-0.263 -0.831,-0.183 -0.831,-0.183 0,0 -0.038,-0.282 0.057,-0.573 0.141,-0.431 0.438,-0.581 0.438,-0.581 -0.724,-0.768 -1.189,-1.958 -1.189,-3.294 l 6.236,0 z"/><path id="path50" style="fill:#938556;fill-opacity:1;fill-rule:nonzero;stroke:none" d="m 16.6763,23.2764 c 0,0 -0.092,0.432 -0.371,0.9 -0.278,0.468 -0.699,0.9 -0.699,0.9 0,0 0.245,0.086 0.864,-0.081 0.332,-0.09 0.506,-0.191 0.736,-0.43 0.229,-0.24 0.458,-0.164 0.458,-0.164 0,0 -0.359,0.246 -0.264,0.71 0.08,0.394 0.47,0.606 0.47,0.606 0,0 -0.037,5.283 0.13,5.283 0.166,0 0.129,-5.283 0.129,-5.283 0,0 0.391,-0.212 0.47,-0.606 0.095,-0.464 -0.264,-0.71 -0.264,-0.71 0,0 0.229,-0.076 0.459,0.164 0.23,0.239 0.403,0.34 0.735,0.43 0.619,0.167 0.865,0.081 0.865,0.081 0,0 -0.422,-0.432 -0.7,-0.9 -0.278,-0.468 -0.371,-0.9 -0.371,-0.9 0,0 -0.471,0.506 -1.323,0.506 -0.853,0 -1.324,-0.506 -1.324,-0.506"/></g></g></g></g></svg>