<svg xmlns:dc="http://purl.org/dc/elements/1.1/" xmlns:cc="http://creativecommons.org/ns#" xmlns:rdf="http://www.w3.org/1999/02/22-rdf-syntax-ns#" xmlns:svg="http://www.w3.org/2000/svg" xmlns="http://www.w3.org/2000/svg" viewBox="0 0 45 45" style="enable-background:new 0 0 45 45;" xml:space="preserve" version="1.1" id="svg2"><metadata id="metadata8"><rdf:RDF><cc:Work rdf:about=""><dc:format>image/svg+xml</dc:format><dc:type rdf:resource="http://purl.org/dc/dcmitype/StillImage"/></cc:Work></rdf:RDF></metadata><defs id="defs6"><clipPath id="clipPath16" clipPathUnits="userSpaceOnUse"><path id="path18" d="M 0,36 36,36 36,0 0,0 0,36 Z"/></clipPath></defs><g transform="matrix(1.25,0,0,-1.25,0,45)" id="g10"><g id="g12"><g xmlns="http://www.w3.org/2000/svg" clip-path="url(#clipPath16)" id="g14"><g id="g30"><path id="path20" style="fill:#002687;fill-opacity:1;fill-rule:nonzero;stroke:none" d="M 0,9 C 0,6.791 1.791,5 4,5 l 28,0 c 2.209,0 4,1.791 4,4 l 0,18 c 0,2.209 -1.791,4 -4,4 L 4,31 C 1.791,31 0,29.209 0,27 L 0,9 z"/></g><g id="g32"><path id="path30" style="fill:#ffeb06;fill-opacity:1;fill-rule:nonzero;stroke:none" d="m 13.8247,21.418 c -0.29,0 -0.572,-0.158 -0.837,-0.469 -1.09,-1.28 -0.691,-4.073 0.853,-5.979 2.001,-2.469 3.959,-2.927 4.159,-2.968 0.2,0.041 2.158,0.499 4.159,2.968 1.545,1.906 1.944,4.7 0.853,5.979 -0.265,0.311 -0.547,0.469 -0.837,0.469 l -0.012,0 c -0.485,-0.007 -0.844,-0.449 -0.848,-0.453 l -0.031,-0.038 -6.568,0 -0.031,0.038 c -0.003,0.004 -0.365,0.447 -0.849,0.453 l -0.011,0 z m 4.175,-9.619 -0.016,0.003 c -0.087,0.014 -2.146,0.386 -4.298,3.043 -1.628,2.009 -2.017,4.863 -0.85,6.234 0.309,0.362 0.651,0.543 1.004,0.539 0.493,-0.008 0.861,-0.37 0.969,-0.491 l 6.382,0 c 0.108,0.121 0.476,0.483 0.969,0.491 l 0.015,0 c 0.352,0 0.685,-0.181 0.989,-0.539 1.168,-1.37 0.78,-4.225 -0.848,-6.234 -2.155,-2.657 -4.213,-3.029 -4.299,-3.043 l -0.017,-0.003 z"/><path id="path31" style="fill:#ffeb06;fill-opacity:1;fill-rule:nonzero;stroke:none" d="m 17.106,15.8525 c 0,0 0.021,0.854 -0.01,0.949 -0.031,0.097 -0.119,0.113 -0.119,0.113 l -0.348,0.017 c 0,0 0,0.09 -0.013,0.108 -0.014,0.017 -0.089,0.151 -0.857,0.151 -0.201,0 -0.386,-0.051 -0.769,-0.051 -0.517,0 -0.855,-0.102 -0.855,-0.102 l -0.19,0.168 -0.115,-0.096 -0.142,-0.006 0.045,-0.188 c 0,0 -0.114,-0.497 -0.114,-0.533 0,-0.036 0.04,-0.114 0.126,-0.172 0.069,-0.046 0.211,-0.041 0.211,-0.041 l 0.107,0.106 c 0,0 -0.018,-0.041 0,-0.094 0.017,-0.054 0.029,-0.069 0.029,-0.069 0,0 0.127,-0.047 0.189,-0.047 0.063,0 0.519,0.211 0.519,0.211 l 0.057,-0.125 -0.075,-0.875 0.195,0 0.07,0.703 0.262,-0.212 0.003,-0.491 0.326,0 c 0,0 -0.085,0.209 -0.088,0.232 -0.003,0.024 0.009,0.359 0.009,0.359 l 0.509,0.012 -0.244,-0.603 0.247,0 0.256,0.844 0.035,-0.156 0.235,-0.133 -0.123,-0.555 0.241,0 c 0,0 0.103,0.403 0.112,0.441 0.008,0.038 0.085,0.18 0.085,0.18 0,0 0.038,-0.283 0.056,-0.318 0.017,-0.036 0.088,-0.068 0.112,-0.012 0.023,0.056 0.026,0.285 0.026,0.285"/><path id="path31" style="fill:#ffeb06;fill-opacity:1;fill-rule:nonzero;stroke:none" d="m 21.3115,16.1943 c 0,0 -0.006,0.341 0.053,0.559 0.059,0.217 0.265,0.723 0.482,0.959 0.119,0.128 0.06,0.288 0.06,0.288 0,0 -0.118,0.117 -0.366,0.117 -0.247,0 -0.156,-0.072 -0.362,-0.025 -0.206,0.047 -0.314,0.002 -0.42,-0.045 -0.105,-0.047 -0.315,-0.05 -0.424,0.035 -0.134,0.106 -0.458,-0.082 -0.686,0.055 -0.295,0.179 -0.331,-0.108 -0.654,0.057 -0.288,0.146 -0.484,-0.055 -0.671,0.064 -0.324,0.208 -0.682,-0.193 -1,0.077 -0.267,0.228 -0.388,0.106 -0.506,0.047 -0.117,-0.059 -0.165,-0.165 0,-0.712 0.082,-0.271 0.306,-0.579 0.459,-0.83 0.156,-0.255 0.241,-0.452 0.241,-0.452 0,0 -0.194,-0.147 -0.194,-0.542 0,-0.599 0.706,-0.517 0.706,-0.517 0,0 0.253,-0.282 0.688,-0.065 0.24,0.12 0.306,0.559 0.306,0.559 l 0.564,0 c 0,0 -0.093,-0.224 0.107,-0.459 0.2,-0.234 0.512,-0.129 0.512,-0.129 0,0 0.453,-0.259 0.852,0.088 0.288,0.25 0.177,0.665 0.177,0.665 0,0 0.465,-0.035 0.582,-0.023 0.118,0.011 0.27,0.165 0.27,0.165 l -0.776,0.064 z"/><path id="path33" style="fill:#ffeb06;fill-opacity:1;fill-rule:nonzero;stroke:none" d="m 18.4912,24.1943 c 0,0 0.057,0.083 -0.021,0.194 -0.112,0.161 -0.286,-0.012 -0.312,-0.012 -0.027,0 -0.085,0.116 -0.085,0.116 0,0 -0.02,-0.016 -0.051,-0.008 -0.031,0.008 -0.038,0.021 -0.038,0.021 l 0.016,0.01 c 0,0 -0.294,0.034 -0.4,-0.14 -0.107,-0.175 -0.074,-0.308 -0.099,-0.396 -0.025,-0.087 -0.104,-0.236 -0.104,-0.236 0,0 -0.171,-0.148 -0.311,-0.148 -0.141,0 -0.888,0.544 -1.233,0.544 -0.131,0 -0.626,-0.065 -1.044,-0.381 -0.352,-0.266 -1.553,-1.176 -1.709,-1.333 -0.251,-0.251 -0.384,-0.443 -0.384,-0.443 0,0 0.643,-0.318 1.584,0 0.941,0.317 1.153,0.471 1.153,0.471 0,0 0.47,-0.006 1.088,-0.5 0.617,-0.494 1.459,-0.706 1.459,-0.706 0,0 0.541,0.212 1.159,0.706 0.617,0.494 1.088,0.5 1.088,0.5 0,0 0.212,-0.253 1.153,-0.571 0.941,-0.317 1.584,0 1.584,0 0,0 -0.134,0.292 -0.385,0.543 -0.156,0.157 -1.356,1.067 -1.709,1.333 -0.418,0.316 -0.913,0.381 -1.044,0.381 -0.344,0 -0.701,-0.61 -1.101,-0.61 -0.367,0 -0.514,0.052 -0.539,0.206 -0.024,0.141 -0.11,0.3 -0.11,0.373 0,0.088 0.057,0.174 0.173,0.158 0.085,-0.011 0.127,0.006 0.127,0.006 0,0 0.006,-0.029 0.043,-0.057 0.037,-0.027 0.052,-0.021 0.052,-0.021"/><path id="path34" style="fill:#ffeb06;fill-opacity:1;fill-rule:nonzero;stroke:none" d="m 19.8633,14.082 0.148,-0.341 -0.476,0 -0.276,-0.418 0.176,-0.07 -0.176,-0.065 c 0,0 -0.112,-0.311 -0.224,-0.429 -0.111,-0.117 -0.323,-0.189 -0.323,-0.189 l 0.035,-0.247 c 0,0 -0.518,-0.047 -0.888,-0.035 -0.371,0.012 -0.606,0.112 -0.606,0.112 l -0.089,0.271 -0.529,0.176 -0.023,0.184 0.299,-0.068 -0.058,0.212 -0.502,0.035 0.104,-0.422 -0.122,-0.004 -0.178,0.603 0.635,-0.015 -0.114,0.492 0.171,0.025 0.172,-0.498 0.502,-0.048 0.057,0.386 -0.545,0.096 c 0,0 0.173,0.663 0.967,0.663 1.175,0 0.817,-0.747 0.817,-0.747 l -0.18,0.035 -0.018,-0.372 0.143,-0.027 0.59,0.715 0.511,-0.01 z"/><path id="path35" style="fill:#ffeb06;fill-opacity:1;fill-rule:nonzero;stroke:none" d="m 18.1411,18.5527 -2.12,0.084 2.106,0.041 -5.398,1.676 5.418,-1.524 -5.262,1.843 5.321,-1.738 -5.059,2.118 5.118,-1.929 -4.661,2.163 4.813,-2.022 -2.635,1.588 2.694,-1.459 -2.047,1.448 1.977,-1.279 -1.392,1.322 1.651,-1.424 -1.196,1.424 1.447,-1.471 -1.055,1.471 1.282,-1.443 -0.804,1.439 0.733,-1.071 -0.403,1.059 0.654,-1.38 -0.278,1.403 0.431,-1.463 0.02,1.471 0.134,-1.482 0.203,1.494 -0.051,-1.498 0.412,1.498 -0.184,-1.157 0.498,1.161 -0.526,-1.628 1.137,1.62 -0.996,-1.67 1.534,1.98 -1.095,-1.608 1.785,1.706 -1.569,-1.636 1.977,1.432 -2.455,-1.949 2.776,1.569 -2.066,-1.299 2.215,1.04 -2.768,-1.498 0.615,0.203 -0.623,-0.34 -0.225,-0.051 c 0,0 0.067,-0.061 0.121,-0.137 0.052,-0.076 0.081,-0.15 0.081,-0.15 l -2.285,0.053 z"/><path id="path36" style="fill:#ffeb06;fill-opacity:1;fill-rule:nonzero;stroke:none" d="m 23.4766,18 -0.312,1.906 -0.17,-2.206 -0.242,2.3 -0.2,-2.765 -0.082,1.606 -0.218,-1.777 -0.082,1.277 -0.423,-1.471 0.247,0 0,-0.629 0.147,0 0,0.636 0.199,0 -0.041,-0.636 0.195,0 -0.047,0.864 0.117,-0.011 0.006,-0.882 0.141,0 0.036,0.947 0.305,0 0,-0.63 0.177,0.371 0,1.035 0.247,0.065 z"/><path id="path37" style="fill:#ffeb06;fill-opacity:1;fill-rule:nonzero;stroke:none" d="m 14.7822,19.1787 c 0,0 0.053,-0.349 -0.064,-0.432 -0.118,-0.082 -0.095,-0.223 -0.095,-0.223 l -1.612,0.047 -0.529,0.588 0.483,0.471 c 0,0 0.005,0.27 0.082,0.417 0.076,0.148 0.188,0.198 0.188,0.198 l 0.009,0.344 0.074,0 0.034,-0.318 0.201,-0.13 -0.115,-0.094 -0.003,-0.553 0.094,-0.011 0.006,0.329 0.3,-0.024 0.004,0.124 -0.16,0.023 0.168,0.277 0.006,0.194 0.112,0.006 0.004,-0.119 0.136,-0.048 0.015,-0.336 -0.137,0.013 0.005,-0.139 0.163,-0.026 0.007,-0.551 -0.182,0.015 0.018,-0.376 0.282,-0.012 -0.017,0.808 0.341,-0.014 0.012,-0.1 -0.159,-0.05 -0.03,-0.63 0.121,0.027 0.076,0.123 -0.091,0.024 0.036,0.158 0.217,0 z"/></g><g id="g34"><path id="path40" style="fill:#ffeb06;fill-opacity:1;fill-rule:nonzero;stroke:none" d="m 23.94,20.776 -0.347,0 0,0.346 0.347,0 0,-0.346 z"/><path id="path41" style="fill:#ffeb06;fill-opacity:1;fill-rule:nonzero;stroke:none" d="m 24.223,19.974 -0.347,0 0,0.346 0.347,0 0,-0.346 z"/><path id="path42" style="fill:#ffeb06;fill-opacity:1;fill-rule:nonzero;stroke:none" d="m 24.418,19.097 -0.347,0 0,0.346 0.347,0 0,-0.346 z"/><path id="path43" style="fill:#ffeb06;fill-opacity:1;fill-rule:nonzero;stroke:none" d="m 24.408,18.305 -0.347,0 0,0.346 0.347,0 0,-0.346 z"/><path id="path44" style="fill:#ffeb06;fill-opacity:1;fill-rule:nonzero;stroke:none" d="m 24.352,17.569 -0.346,0 0,0.346 0.346,0 0,-0.346 z"/><path id="path45" style="fill:#ffeb06;fill-opacity:1;fill-rule:nonzero;stroke:none" d="m 24.264,16.767 -0.346,0 0,0.346 0.346,0 0,-0.346 z"/><path id="path46" style="fill:#ffeb06;fill-opacity:1;fill-rule:nonzero;stroke:none" d="m 23.973,16.025 -0.347,0 0,0.346 0.347,0 0,-0.346 z"/><path id="path47" style="fill:#ffeb06;fill-opacity:1;fill-rule:nonzero;stroke:none" d="m 23.708,15.354 -0.347,0 0,0.347 0.347,0 0,-0.347 z"/><path id="path48" style="fill:#ffeb06;fill-opacity:1;fill-rule:nonzero;stroke:none" d="m 23.308,14.651 -0.346,0 0,0.347 0.346,0 0,-0.347 z"/><path id="path49" style="fill:#ffeb06;fill-opacity:1;fill-rule:nonzero;stroke:none" d="m 22.872,13.993 -0.346,0 0,0.346 0.346,0 0,-0.346 z"/><path id="path50" style="fill:#ffeb06;fill-opacity:1;fill-rule:nonzero;stroke:none" d="m 22.379,13.384 -0.347,0 0,0.347 0.347,0 0,-0.347 z"/><path id="path51" style="fill:#ffeb06;fill-opacity:1;fill-rule:nonzero;stroke:none" d="m 21.77,12.808 -0.346,0 0,0.346 0.346,0 0,-0.346 z"/><path id="path52" style="fill:#ffeb06;fill-opacity:1;fill-rule:nonzero;stroke:none" d="m 21.11,12.384 -0.346,0 0,0.347 0.346,0 0,-0.347 z"/><path id="path53" style="fill:#ffeb06;fill-opacity:1;fill-rule:nonzero;stroke:none" d="m 20.49,11.931 -0.347,0 0,0.347 0.347,0 0,-0.347 z"/><path id="path54" style="fill:#ffeb06;fill-opacity:1;fill-rule:nonzero;stroke:none" d="m 19.787,11.525 -0.346,0 0,0.346 0.346,0 0,-0.346 z"/><path id="path55" style="fill:#ffeb06;fill-opacity:1;fill-rule:nonzero;stroke:none" d="m 18.952,11.278 -0.347,0 0,0.346 0.347,0 0,-0.346 z"/><path id="path56" style="fill:#ffeb06;fill-opacity:1;fill-rule:nonzero;stroke:none" d="m 18.152,11.202 -0.346,0 0,0.346 0.346,0 0,-0.346 z"/><path id="path57" style="fill:#ffeb06;fill-opacity:1;fill-rule:nonzero;stroke:none" d="m 17.287,11.346 -0.346,0 0,0.347 0.346,0 0,-0.347 z"/><path id="path58" style="fill:#ffeb06;fill-opacity:1;fill-rule:nonzero;stroke:none" d="m 16.461,11.59 -0.346,0 0,0.347 0.346,0 0,-0.347 z"/><path id="path59" style="fill:#ffeb06;fill-opacity:1;fill-rule:nonzero;stroke:none" d="m 15.758,12.005 -0.346,0 0,0.346 0.346,0 0,-0.346 z"/><path id="path60" style="fill:#ffeb06;fill-opacity:1;fill-rule:nonzero;stroke:none" d="m 15.134,12.437 -0.346,0 0,0.346 0.346,0 0,-0.346 z"/><path id="path61" style="fill:#ffeb06;fill-opacity:1;fill-rule:nonzero;stroke:none" d="m 14.481,12.878 -0.346,0 0,0.347 0.346,0 0,-0.347 z"/><path id="path62" style="fill:#ffeb06;fill-opacity:1;fill-rule:nonzero;stroke:none" d="m 13.87,13.449 -0.346,0 0,0.346 0.346,0 0,-0.346 z"/><path id="path63" style="fill:#ffeb06;fill-opacity:1;fill-rule:nonzero;stroke:none" d="m 13.375,14.061 -0.346,0 0,0.346 0.346,0 0,-0.346 z"/><path id="path64" style="fill:#ffeb06;fill-opacity:1;fill-rule:nonzero;stroke:none" d="m 12.937,14.711 -0.346,0 0,0.346 0.346,0 0,-0.346 z"/><path id="path65" style="fill:#ffeb06;fill-opacity:1;fill-rule:nonzero;stroke:none" d="m 12.537,15.428 -0.346,0 0,0.347 0.346,0 0,-0.347 z"/><path id="path66" style="fill:#ffeb06;fill-opacity:1;fill-rule:nonzero;stroke:none" d="m 12.284,16.096 -0.346,0 0,0.347 0.346,0 0,-0.347 z"/><path id="path67" style="fill:#ffeb06;fill-opacity:1;fill-rule:nonzero;stroke:none" d="m 12.002,16.828 -0.346,0 0,0.347 0.346,0 0,-0.347 z"/><path id="path68" style="fill:#ffeb06;fill-opacity:1;fill-rule:nonzero;stroke:none" d="m 11.899,17.637 -0.346,0 0,0.346 0.346,0 0,-0.346 z"/><path id="path69" style="fill:#ffeb06;fill-opacity:1;fill-rule:nonzero;stroke:none" d="m 11.84,18.381 -0.346,0 0,0.346 0.346,0 0,-0.346 z"/><path id="path70" style="fill:#ffeb06;fill-opacity:1;fill-rule:nonzero;stroke:none" d="m 11.85,19.167 -0.346,0 0,0.346 0.346,0 0,-0.346 z"/><path id="path71" style="fill:#ffeb06;fill-opacity:1;fill-rule:nonzero;stroke:none" d="m 12.033,20.031 -0.346,0 0,0.346 0.346,0 0,-0.346 z"/><path id="path72" style="fill:#ffeb06;fill-opacity:1;fill-rule:nonzero;stroke:none" d="m 12.31,20.837 -0.346,0 0,0.346 0.346,0 0,-0.346 z"/></g><g id="g36"><path id="path80" style="fill:#ffeb06;fill-opacity:1;fill-rule:nonzero;stroke:none" d="m 4.2261,24.9512 c 0,0.093 -0.034,0.165 -0.1,0.216 -0.066,0.052 -0.181,0.105 -0.346,0.159 -0.166,0.055 -0.301,0.107 -0.406,0.159 -0.342,0.165 -0.513,0.395 -0.515,0.687 -0.001,0.146 0.041,0.275 0.125,0.386 0.085,0.112 0.204,0.2 0.359,0.263 0.155,0.063 0.33,0.094 0.524,0.095 0.189,0.001 0.359,-0.031 0.509,-0.098 0.15,-0.067 0.267,-0.162 0.351,-0.286 0.084,-0.124 0.126,-0.267 0.127,-0.427 l -0.632,-0.003 c -0.001,0.107 -0.034,0.19 -0.1,0.248 -0.066,0.059 -0.155,0.088 -0.267,0.088 -0.113,-10e-4 -0.203,-0.027 -0.268,-0.077 -0.066,-0.05 -0.098,-0.114 -0.097,-0.191 0,-0.067 0.036,-0.128 0.109,-0.183 0.072,-0.054 0.2,-0.11 0.382,-0.167 0.182,-0.058 0.332,-0.12 0.449,-0.187 0.285,-0.162 0.428,-0.387 0.43,-0.675 0.001,-0.23 -0.084,-0.411 -0.257,-0.543 -0.173,-0.132 -0.41,-0.199 -0.713,-0.201 -0.213,-0.001 -0.406,0.036 -0.58,0.112 -0.172,0.075 -0.303,0.179 -0.391,0.312 -0.089,0.132 -0.133,0.285 -0.134,0.459 l 0.636,0.003 c 10e-4,-0.141 0.038,-0.244 0.111,-0.311 0.073,-0.066 0.192,-0.099 0.356,-0.098 0.105,0 0.187,0.023 0.248,0.069 0.06,0.045 0.09,0.109 0.09,0.191"/><path id="path81" style="fill:#ffeb06;fill-opacity:1;fill-rule:nonzero;stroke:none" d="m 7.0269,26.5322 -0.788,-0.053 0.143,-2.136 -0.632,-0.042 -0.143,2.136 -0.774,-0.051 -0.033,0.488 2.194,0.147 0.033,-0.489 z"/><path id="path82" style="fill:#ffeb06;fill-opacity:1;fill-rule:nonzero;stroke:none" d="m 7.8086,25.479 0.56,0.081 -0.411,0.862 -0.149,-0.943 z m 0.78,-0.382 -0.861,-0.124 -0.08,-0.508 -0.67,-0.097 0.58,2.741 0.59,0.085 1.337,-2.465 -0.674,-0.097 -0.222,0.465 z"/><path id="path83" style="fill:#ffeb06;fill-opacity:1;fill-rule:nonzero;stroke:none" d="m 10.978,27.2544 -0.772,-0.164 0.444,-2.094 -0.62,-0.132 -0.445,2.094 -0.758,-0.161 -0.101,0.479 2.15,0.457 0.102,-0.479 z"/><path id="path84" style="fill:#ffeb06;fill-opacity:1;fill-rule:nonzero;stroke:none" d="m 12.874,26.6489 -0.973,-0.219 0.138,-0.614 1.149,0.259 0.107,-0.475 -1.767,-0.399 -0.578,2.567 1.771,0.399 0.108,-0.478 -1.153,-0.26 0.122,-0.541 0.973,0.219 0.103,-0.458 z"/><path id="path85" style="fill:#ffeb06;fill-opacity:1;fill-rule:nonzero;stroke:none" d="m 16.2505,27.3999 c -0.024,0.26 -0.086,0.454 -0.186,0.581 -0.1,0.126 -0.23,0.182 -0.392,0.167 -0.317,-0.03 -0.462,-0.283 -0.435,-0.759 l 0.016,-0.193 c 0.024,-0.256 0.085,-0.45 0.183,-0.58 0.098,-0.13 0.231,-0.187 0.399,-0.171 0.159,0.015 0.276,0.094 0.35,0.238 0.073,0.143 0.099,0.342 0.076,0.596 l -0.011,0.121 z m 0.652,-0.05 c 0.024,-0.255 -0.002,-0.486 -0.078,-0.691 -0.076,-0.206 -0.197,-0.37 -0.362,-0.492 -0.164,-0.122 -0.358,-0.194 -0.581,-0.215 -0.223,-0.021 -0.426,0.012 -0.608,0.098 -0.182,0.086 -0.331,0.221 -0.445,0.402 -0.115,0.182 -0.185,0.396 -0.213,0.642 l -0.014,0.148 c -0.024,0.257 0.002,0.488 0.077,0.692 0.076,0.205 0.197,0.369 0.363,0.492 0.166,0.123 0.36,0.196 0.584,0.217 0.223,0.02 0.425,-0.014 0.609,-0.103 0.184,-0.09 0.333,-0.227 0.448,-0.413 0.114,-0.186 0.184,-0.405 0.209,-0.656 l 0.011,-0.121 z"/><path id="path86" style="fill:#ffeb06;fill-opacity:1;fill-rule:nonzero;stroke:none" d="m 18.7715,27.1367 -1.023,-0.007 0.007,-1.048 -0.634,-0.004 -0.017,2.631 1.759,0.011 0.004,-0.489 -1.126,-0.008 0.004,-0.605 1.022,0.007 0.004,-0.488 z"/><path id="path87" style="fill:#ffeb06;fill-opacity:1;fill-rule:nonzero;stroke:none" d="m 22.1631,27.0981 c 0.04,0.258 0.027,0.461 -0.038,0.608 -0.066,0.147 -0.179,0.234 -0.339,0.259 -0.314,0.049 -0.518,-0.161 -0.608,-0.629 l -0.032,-0.191 c -0.04,-0.255 -0.028,-0.457 0.036,-0.607 0.062,-0.15 0.177,-0.238 0.344,-0.264 0.158,-0.025 0.29,0.023 0.397,0.144 0.107,0.121 0.18,0.308 0.221,0.56 l 0.019,0.12 z m 0.62,-0.208 c -0.04,-0.254 -0.122,-0.471 -0.246,-0.651 -0.124,-0.181 -0.281,-0.31 -0.471,-0.389 -0.189,-0.078 -0.395,-0.1 -0.617,-0.065 -0.221,0.034 -0.409,0.116 -0.564,0.244 -0.157,0.129 -0.267,0.295 -0.333,0.499 -0.067,0.204 -0.083,0.429 -0.049,0.675 l 0.022,0.146 c 0.04,0.255 0.121,0.473 0.245,0.652 0.124,0.18 0.282,0.31 0.472,0.389 0.192,0.079 0.398,0.101 0.62,0.066 0.221,-0.035 0.408,-0.118 0.565,-0.249 0.156,-0.132 0.267,-0.302 0.333,-0.51 0.065,-0.208 0.08,-0.438 0.042,-0.688 l -0.019,-0.119 z"/><path id="path88" style="fill:#ffeb06;fill-opacity:1;fill-rule:nonzero;stroke:none" d="m 23.627,26.8462 0.391,-0.088 c 0.118,-0.027 0.213,-0.016 0.286,0.032 0.073,0.049 0.123,0.128 0.147,0.239 0.026,0.111 0.015,0.204 -0.03,0.281 -0.046,0.077 -0.127,0.128 -0.243,0.154 l -0.392,0.089 -0.159,-0.707 z m 0.228,-0.552 -0.335,0.076 -0.205,-0.908 -0.619,0.14 0.579,2.566 1.01,-0.228 c 0.304,-0.069 0.527,-0.19 0.668,-0.364 0.141,-0.173 0.184,-0.383 0.128,-0.63 -0.04,-0.178 -0.109,-0.318 -0.209,-0.419 -0.099,-0.101 -0.232,-0.171 -0.403,-0.209 l 0.302,-1.157 -0.006,-0.026 -0.662,0.149 -0.248,1.01 z"/><path id="path89" style="fill:#ffeb06;fill-opacity:1;fill-rule:nonzero;stroke:none" d="m 26.7559,25.8408 -0.976,0.206 -0.129,-0.616 1.153,-0.242 -0.101,-0.478 -1.773,0.374 0.542,2.574 1.777,-0.375 -0.101,-0.479 -1.157,0.244 -0.114,-0.543 0.977,-0.206 -0.098,-0.459 z"/><path id="path90" style="fill:#ffeb06;fill-opacity:1;fill-rule:nonzero;stroke:none" d="m 29.0664,24.6982 c -0.111,-0.094 -0.265,-0.161 -0.46,-0.201 -0.195,-0.04 -0.404,-0.045 -0.626,-0.014 -0.341,0.047 -0.6,0.189 -0.774,0.425 -0.176,0.237 -0.245,0.543 -0.208,0.917 l 0.029,0.226 c 0.035,0.256 0.111,0.474 0.228,0.653 0.118,0.179 0.268,0.308 0.451,0.389 0.182,0.08 0.385,0.105 0.607,0.074 0.324,-0.045 0.566,-0.154 0.726,-0.327 0.159,-0.173 0.233,-0.41 0.222,-0.708 l -0.605,0.083 c -0.001,0.149 -0.033,0.259 -0.097,0.331 -0.062,0.071 -0.16,0.116 -0.291,0.134 -0.157,0.022 -0.288,-0.028 -0.392,-0.149 -0.105,-0.123 -0.175,-0.307 -0.21,-0.555 l -0.022,-0.158 c -0.036,-0.26 -0.018,-0.461 0.053,-0.604 0.071,-0.143 0.202,-0.228 0.392,-0.254 0.164,-0.023 0.29,-0.003 0.38,0.059 l 0.056,0.404 -0.437,0.061 0.06,0.431 1.065,-0.147 -0.147,-1.07 z"/><path id="path91" style="fill:#ffeb06;fill-opacity:1;fill-rule:nonzero;stroke:none" d="m 31.001,25.6372 c 0.013,0.261 -0.021,0.461 -0.101,0.601 -0.081,0.14 -0.202,0.214 -0.364,0.222 -0.317,0.016 -0.498,-0.214 -0.54,-0.689 l -0.012,-0.193 c -0.012,-0.257 0.02,-0.457 0.099,-0.6 0.078,-0.143 0.201,-0.218 0.37,-0.227 0.16,-0.008 0.286,0.054 0.38,0.185 0.094,0.132 0.147,0.325 0.162,0.58 l 0.006,0.121 z m 0.639,-0.143 c -0.014,-0.256 -0.073,-0.48 -0.178,-0.672 -0.105,-0.193 -0.247,-0.338 -0.428,-0.435 -0.18,-0.098 -0.383,-0.142 -0.606,-0.13 -0.224,0.011 -0.419,0.073 -0.587,0.184 -0.169,0.112 -0.296,0.266 -0.383,0.462 -0.088,0.196 -0.127,0.418 -0.119,0.666 l 0.007,0.148 c 0.013,0.258 0.072,0.482 0.176,0.674 0.105,0.192 0.248,0.337 0.429,0.435 0.182,0.099 0.385,0.142 0.611,0.13 0.221,-0.011 0.418,-0.074 0.586,-0.189 0.169,-0.114 0.297,-0.272 0.384,-0.472 0.087,-0.2 0.125,-0.427 0.114,-0.679 l -0.006,-0.122 z"/><path id="path92" style="fill:#ffeb06;fill-opacity:1;fill-rule:nonzero;stroke:none" d="m 34.1172,24.3384 -0.63,-0.037 -1.028,1.578 0.097,-1.634 -0.632,-0.038 -0.157,2.626 0.633,0.038 1.027,-1.578 -0.098,1.633 0.631,0.038 0.157,-2.626 z"/></g><g id="g38"><path id="path00" style="fill:#ffeb06;fill-opacity:1;fill-rule:nonzero;stroke:none" d="m 16.5186,14.9121 -0.13,0 0,-0.354 -0.105,0 0,0.354 -0.128,0 0,0.08 0.363,0 0,-0.08 z"/><path id="path01" style="fill:#ffeb06;fill-opacity:1;fill-rule:nonzero;stroke:none" d="m 16.9697,14.5586 -0.104,0 0,0.181 -0.154,0 0,-0.181 -0.105,0 0,0.434 0.105,0 0,-0.173 0.154,0 0,0.173 0.104,0 0,-0.434 z"/><path id="path02" style="fill:#ffeb06;fill-opacity:1;fill-rule:nonzero;stroke:none" d="m 17.3486,14.7422 -0.165,0 0,-0.104 0.195,0 0,-0.08 -0.3,0 0,0.434 0.3,0 0,-0.08 -0.195,0 0,-0.093 0.165,0 0,-0.077 z"/><path id="path03" style="fill:#ffeb06;fill-opacity:1;fill-rule:nonzero;stroke:none" d="m 18.0415,14.9922 0,-0.284 c 0,-0.031 -0.007,-0.06 -0.021,-0.084 -0.014,-0.024 -0.033,-0.041 -0.059,-0.053 -0.025,-0.013 -0.055,-0.019 -0.091,-0.019 -0.053,0 -0.094,0.013 -0.124,0.041 -0.031,0.028 -0.046,0.065 -0.047,0.113 l 0,0.286 0.105,0 0,-0.289 c 10e-4,-0.046 0.024,-0.07 0.066,-0.07 0.022,0 0.038,0.005 0.049,0.017 0.012,0.012 0.018,0.031 0.018,0.059 l 0,0.283 0.104,0 z"/><path id="path04" style="fill:#ffeb06;fill-opacity:1;fill-rule:nonzero;stroke:none" d="m 18.5137,14.5586 -0.104,0 -0.154,0.27 0,-0.27 -0.105,0 0,0.434 0.105,0 0.154,-0.271 0,0.271 0.104,0 0,-0.434 z"/><path id="path05" style="fill:#ffeb06;fill-opacity:1;fill-rule:nonzero;stroke:none" d="m 18.734,14.559 -0.104,0 0,0.434 0.104,0 0,-0.434 z"/><path id="path06" style="fill:#ffeb06;fill-opacity:1;fill-rule:nonzero;stroke:none" d="m 19.1123,14.7852 c 0,0.043 -0.007,0.075 -0.021,0.098 -0.015,0.022 -0.036,0.033 -0.063,0.033 -0.052,0 -0.08,-0.039 -0.083,-0.118 l 0,-0.032 c 0,-0.043 0.008,-0.075 0.021,-0.098 0.015,-0.024 0.036,-0.034 0.064,-0.034 0.025,0 0.046,0.01 0.061,0.034 0.013,0.022 0.021,0.054 0.021,0.096 l 0,0.021 z m 0.106,-0.019 c 0,-0.043 -0.007,-0.08 -0.023,-0.113 -0.016,-0.032 -0.037,-0.057 -0.066,-0.074 -0.03,-0.018 -0.063,-0.027 -0.099,-0.027 -0.037,0 -0.071,0.008 -0.099,0.026 -0.028,0.017 -0.051,0.041 -0.067,0.072 -0.017,0.031 -0.024,0.069 -0.025,0.11 l 0,0.024 c 0,0.042 0.007,0.08 0.024,0.112 0.015,0.033 0.037,0.058 0.065,0.076 0.03,0.018 0.064,0.026 0.1,0.026 0.037,0 0.07,-0.008 0.1,-0.026 0.027,-0.017 0.05,-0.042 0.066,-0.075 0.017,-0.032 0.024,-0.069 0.024,-0.111 l 0,-0.02 z"/><path id="path07" style="fill:#ffeb06;fill-opacity:1;fill-rule:nonzero;stroke:none" d="m 19.6797,14.5586 -0.104,0 -0.154,0.27 0,-0.27 -0.105,0 0,0.434 0.105,0 0.154,-0.271 0,0.271 0.104,0 0,-0.434 z"/></g><g id="g40"><path id="path10" style="fill:#ffeb06;fill-opacity:1;fill-rule:nonzero;stroke:none" d="m 14.314,7.293 -0.696,0 0,2.631 0.696,0 0,-2.631 z"/><path id="path11" style="fill:#ffeb06;fill-opacity:1;fill-rule:nonzero;stroke:none" d="m 16.0825,9.4912 c -0.09,0 -0.159,-0.026 -0.206,-0.08 -0.046,-0.054 -0.07,-0.128 -0.07,-0.223 0,-0.094 0.024,-0.17 0.071,-0.227 0.048,-0.059 0.119,-0.087 0.211,-0.087 0.092,0 0.16,0.028 0.206,0.087 0.046,0.057 0.068,0.133 0.068,0.227 0,0.094 -0.023,0.168 -0.07,0.222 -0.047,0.055 -0.117,0.081 -0.21,0.081 m 0.338,-1.425 c 0,0.109 -0.031,0.192 -0.092,0.25 -0.062,0.059 -0.143,0.088 -0.244,0.088 -0.101,0 -0.182,-0.029 -0.244,-0.088 -0.063,-0.058 -0.093,-0.141 -0.093,-0.25 0,-0.105 0.031,-0.187 0.094,-0.249 0.063,-0.06 0.145,-0.091 0.247,-0.091 0.099,0 0.18,0.031 0.241,0.09 0.061,0.061 0.091,0.144 0.091,0.25 m 0.614,1.154 c 0,-0.127 -0.035,-0.24 -0.104,-0.337 -0.07,-0.098 -0.165,-0.176 -0.287,-0.235 0.137,-0.061 0.247,-0.145 0.328,-0.253 0.08,-0.106 0.121,-0.232 0.121,-0.378 0,-0.235 -0.09,-0.421 -0.267,-0.556 -0.179,-0.136 -0.424,-0.204 -0.737,-0.204 -0.314,0 -0.562,0.068 -0.743,0.205 -0.181,0.136 -0.272,0.322 -0.272,0.555 0,0.141 0.039,0.266 0.119,0.374 0.079,0.109 0.192,0.194 0.338,0.257 -0.123,0.059 -0.22,0.137 -0.29,0.235 -0.071,0.097 -0.106,0.21 -0.106,0.337 0,0.229 0.086,0.41 0.257,0.542 0.17,0.133 0.401,0.199 0.691,0.199 0.293,0 0.525,-0.066 0.696,-0.199 0.171,-0.132 0.256,-0.313 0.256,-0.542"/><path id="path12" style="fill:#ffeb06;fill-opacity:1;fill-rule:nonzero;stroke:none" d="m 17.8057,8.5781 0.177,1.346 1.691,0 0,-0.47 -1.147,0 -0.065,-0.526 c 0.047,0.025 0.11,0.047 0.188,0.067 0.077,0.019 0.153,0.028 0.227,0.028 0.287,0 0.508,-0.077 0.662,-0.231 0.155,-0.155 0.232,-0.372 0.232,-0.651 0,-0.169 -0.041,-0.322 -0.124,-0.459 -0.083,-0.136 -0.199,-0.242 -0.349,-0.315 -0.149,-0.073 -0.326,-0.11 -0.53,-0.11 -0.182,0 -0.353,0.034 -0.511,0.101 -0.159,0.069 -0.284,0.162 -0.374,0.281 -0.09,0.118 -0.134,0.252 -0.133,0.401 l 0.671,0 c 0.008,-0.096 0.041,-0.172 0.102,-0.229 0.061,-0.056 0.141,-0.085 0.241,-0.085 0.225,0 0.338,0.152 0.338,0.455 0,0.28 -0.138,0.419 -0.414,0.419 -0.155,0 -0.273,-0.044 -0.35,-0.136 l -0.532,0.114 z"/><path id="path13" style="fill:#ffeb06;fill-opacity:1;fill-rule:nonzero;stroke:none" d="m 21.4639,8.5723 c 0.146,0 0.25,0.057 0.314,0.172 l 0,0.253 c 0,0.168 -0.031,0.293 -0.093,0.374 -0.063,0.08 -0.147,0.12 -0.253,0.12 -0.094,0 -0.173,-0.045 -0.237,-0.137 -0.063,-0.092 -0.094,-0.202 -0.094,-0.333 0,-0.137 0.032,-0.246 0.096,-0.327 0.066,-0.082 0.155,-0.122 0.267,-0.122 m 0.304,-0.262 c -0.145,-0.118 -0.306,-0.177 -0.485,-0.177 -0.262,0 -0.47,0.081 -0.624,0.242 -0.154,0.161 -0.23,0.377 -0.23,0.646 0,0.169 0.043,0.325 0.129,0.47 0.086,0.144 0.207,0.26 0.362,0.344 0.156,0.084 0.328,0.126 0.517,0.126 0.19,0 0.363,-0.043 0.517,-0.131 0.155,-0.087 0.275,-0.211 0.361,-0.37 0.086,-0.159 0.13,-0.344 0.132,-0.552 l 0,-0.233 c 0,-0.29 -0.062,-0.542 -0.187,-0.755 -0.125,-0.213 -0.304,-0.377 -0.535,-0.492 -0.233,-0.114 -0.503,-0.171 -0.812,-0.171 l -0.041,0 0,0.487 0.127,0.002 c 0.461,0.02 0.717,0.209 0.769,0.564"/></g></g></g></g></svg>