<svg xmlns:dc="http://purl.org/dc/elements/1.1/" xmlns:cc="http://creativecommons.org/ns#" xmlns:rdf="http://www.w3.org/1999/02/22-rdf-syntax-ns#" xmlns:svg="http://www.w3.org/2000/svg" xmlns="http://www.w3.org/2000/svg" viewBox="0 0 45 45" style="enable-background:new 0 0 45 45;" xml:space="preserve" version="1.1" id="svg2"><metadata id="metadata8"><rdf:RDF><cc:Work rdf:about=""><dc:format>image/svg+xml</dc:format><dc:type rdf:resource="http://purl.org/dc/dcmitype/StillImage"/></cc:Work></rdf:RDF></metadata><defs id="defs6"><clipPath id="clipPath16" clipPathUnits="userSpaceOnUse"><path id="path18" d="M 4,31 C 1.791,31 0,29.209 0,27 L 0,27 0,9 C 0,6.791 1.791,5 4,5 l 0,0 28,0 c 2.209,0 4,1.791 4,4 l 0,0 0,18 c 0,2.209 -1.791,4 -4,4 l 0,0 -28,0 z"/></clipPath></defs><g transform="matrix(1.25,0,0,-1.25,0,45)" id="g10"><g id="g12"><g xmlns="http://www.w3.org/2000/svg" clip-path="url(#clipPath16)" id="g14"><path id="path20" style="fill:#fcd116;fill-opacity:1;fill-rule:nonzero;stroke:none" d="m 0.0283,5 36,0 0,26 -36,0 0,-26 z"/><g id="g32" transform="translate(-4.4717,-4.5)"><path id="path20" style="fill:#000099;fill-opacity:1;fill-rule:nonzero;stroke:none" d="m 22.8359,13.3125 1.675,3.295 11.99,0 1.674,-3.295 -15.339,0 z"/><path id="path24" style="fill:#009900;fill-opacity:1;fill-rule:nonzero;stroke:none" d="m 24.5107,16.6074 5.995,12.306 5.995,-12.306 -11.99,0 z"/><path id="path26" style="fill:#ffffff;fill-opacity:1;fill-rule:nonzero;stroke:none" d="m 27.9658,20.1543 2.54,5.213 2.539,-5.213 -5.079,0 z"/></g><g id="g34" transform="translate(-4.4717,-4.5)"><path id="path30" style="fill:#009e49;fill-opacity:1;fill-rule:nonzero;stroke:none" d="m 4.4717,35.5 0,-8.308 11.392,8.308 -11.392,0 z"/><path id="path31" style="fill:#ce1126;fill-opacity:1;fill-rule:nonzero;stroke:none" d="m 19.9502,32.8403 -11.709,-8.519 11.709,0 0,8.519 z"/><path id="path32" style="fill:#fcd116;fill-opacity:1;fill-rule:nonzero;stroke:none" d="m 16.9688,35.5 -1.104,0 -11.393,-8.308 0,-0.806 12.497,9.114 z"/><path id="path33" style="fill:#fcd116;fill-opacity:1;fill-rule:nonzero;stroke:none" d="m 19.9502,33.646 -12.814,-9.325 1.105,0 11.709,8.519 0,0.806 z"/><path id="path34" style="fill:#141414;fill-opacity:1;fill-rule:nonzero;stroke:none" d="m 16.9688,35.5 -12.497,-9.114 0,-2.045 0.028,0 -0.028,-0.02 2.664,0 12.814,9.325 0,1.834 0,0.02 -2.981,0 z"/><path id="path35" style="fill:#ffffff;fill-opacity:1;fill-rule:nonzero;stroke:none" d="m 15.2578,30.7173 0.339,1.05 1.103,0.002 -0.893,0.647 0.339,1.051 -0.892,-0.651 -0.893,0.647 0.342,-1.049 -0.891,-0.65 1.103,0.002 0.343,-1.049 z"/><path id="path36" style="fill:#ffffff;fill-opacity:1;fill-rule:nonzero;stroke:none" d="m 9.8018,28.0371 0.339,1.05 -0.892,-0.65 -0.894,0.647 0.343,-1.049 -0.891,-0.65 1.103,0.002 0.343,-1.049 0.339,1.05 1.104,0.002 -0.894,0.647 z"/></g></g></g></g></svg>