<svg xmlns:dc="http://purl.org/dc/elements/1.1/" xmlns:cc="http://creativecommons.org/ns#" xmlns:rdf="http://www.w3.org/1999/02/22-rdf-syntax-ns#" xmlns:svg="http://www.w3.org/2000/svg" xmlns="http://www.w3.org/2000/svg" viewBox="0 0 45 45" style="enable-background:new 0 0 45 45;" xml:space="preserve" version="1.1" id="svg2"><metadata id="metadata8"><rdf:RDF><cc:Work rdf:about=""><dc:format>image/svg+xml</dc:format><dc:type rdf:resource="http://purl.org/dc/dcmitype/StillImage"/></cc:Work></rdf:RDF></metadata><defs id="defs6"><clipPath id="clipPath16" clipPathUnits="userSpaceOnUse"><path id="path18" d="M 4,31 C 1.791,31 0,29.209 0,27 L 0,27 0,9 C 0,6.791 1.791,5 4,5 l 0,0 28,0 c 2.209,0 4,1.791 4,4 l 0,0 0,18 c 0,2.209 -1.791,4 -4,4 l 0,0 -28,0 z"/></clipPath><clipPath id="clipPath28" clipPathUnits="userSpaceOnUse"><path id="path30" d="M 0,36 36,36 36,0 0,0 0,36 Z"/></clipPath></defs><g transform="matrix(1.25,0,0,-1.25,0,45)" id="g10"><g id="g12"><g xmlns="http://www.w3.org/2000/svg" clip-path="url(#clipPath16)" id="g14"><g id="g30"><path id="path20" style="fill:#2b5df2;fill-opacity:1;fill-rule:nonzero;stroke:none" d="m 36,18 0,9 c 0,2.209 -1.791,4 -4,4 L 4,31 C 1.791,31 0,29.209 0,27 l 0,-9 36,0 z"/></g><g id="g32"><path id="path30" style="fill:#eeeeee;fill-opacity:1;fill-rule:nonzero;stroke:none" d="M 0,18 0,9 C 0,6.791 1.791,5 4,5 l 28,0 c 2.209,0 4,1.791 4,4 l 0,9 -36,0 z"/></g><g id="g34"><path id="path40" style="fill:#fcef3c;fill-opacity:1;fill-rule:nonzero;stroke:none" d="m 18,11.041 c 0,0 -0.144,0.102 -0.269,0.396 -0.08,0.19 -0.046,0.37 -0.046,0.37 0,0 -0.168,-0.114 -0.368,-0.148 -0.2,-0.034 -0.318,0.039 -0.318,0.039 0,0 0.1,0.073 0.182,0.158 0.083,0.084 0.115,0.13 0.115,0.13 0,0 -0.271,-0.112 -0.745,-0.112 -0.474,0 -0.694,0.688 -0.398,0.932 0.296,0.243 0.575,0 0.575,0 0,0 -0.037,0.257 -1.832,1.345 -1.333,0.808 -2.672,2.917 -2.672,6.29 0,2.297 0.609,4.004 1.172,4.925 0.367,0.603 0.529,0.884 0.828,0.762 0.102,-0.042 0.182,-0.163 0.201,-0.277 0.036,-0.208 -0.113,-0.374 -0.113,-0.374 0,0 0.424,-0.088 1.023,0.313 0.64,0.428 0.832,0.689 0.832,0.689 0,0 -0.491,0.147 -0.211,0.574 0.241,0.367 0.582,0.073 0.582,0.073 l 0.156,-0.076 c 0,0 -0.044,0.129 0.021,0.265 0.064,0.135 0.188,0.129 0.188,0.129 0,0 -0.044,0.088 0.056,0.229 0.1,0.142 0.247,0.074 0.247,0.074 0,0 -0.039,0.138 0.106,0.247 0.144,0.109 0.32,0.015 0.32,0.015 0,0 0.033,0.215 0.368,0.215 0.335,0 0.368,-0.215 0.368,-0.215 0,0 0.176,0.094 0.32,-0.015 0.144,-0.109 0.106,-0.247 0.106,-0.247 0,0 0.147,0.068 0.247,-0.074 0.101,-0.141 0.056,-0.229 0.056,-0.229 0,0 0.124,0.006 0.188,-0.129 0.065,-0.136 0.021,-0.265 0.021,-0.265 l 0.156,0.076 c 0,0 0.341,0.294 0.582,-0.073 0.28,-0.427 -0.212,-0.574 -0.212,-0.574 0,0 0.193,-0.261 0.833,-0.689 0.6,-0.401 1.023,-0.313 1.023,-0.313 0,0 -0.149,0.166 -0.114,0.374 0.02,0.114 0.101,0.235 0.202,0.277 0.299,0.122 0.461,-0.159 0.828,-0.762 0.563,-0.921 1.172,-2.628 1.172,-4.925 0,-3.373 -1.339,-5.482 -2.672,-6.29 -1.794,-1.088 -1.832,-1.345 -1.832,-1.345 0,0 0.279,0.243 0.575,0 0.297,-0.244 0.077,-0.932 -0.398,-0.932 -0.474,0 -0.745,0.112 -0.745,0.112 0,0 0.032,-0.046 0.114,-0.13 0.083,-0.085 0.184,-0.158 0.184,-0.158 0,0 -0.119,-0.073 -0.319,-0.039 -0.2,0.034 -0.368,0.148 -0.368,0.148 0,0 0.034,-0.18 -0.046,-0.37 C 18.144,11.143 18,11.041 18,11.041"/><path id="path41" style="fill:#ffffff;fill-opacity:1;fill-rule:nonzero;stroke:none" d="m 22.835,17.3896 c -0.707,-1.77 -2.166,-3.23 -4.835,-3.23 -2.669,0 -4.128,1.46 -4.835,3.231"/><path id="path42" style="fill:#e20909;fill-opacity:1;fill-rule:nonzero;stroke:none" d="m 22.835,17.3896 -0.076,0 0.067,-0.025 c 0.003,0.008 0.006,0.017 0.009,0.025"/><path id="path43" style="fill:#e20909;fill-opacity:1;fill-rule:nonzero;stroke:none" d="m 16.5708,14.3174 c -0.435,0.104 -0.819,0.251 -1.171,0.441 l 0.159,0.271 -0.599,0 c -0.129,0.09 -0.252,0.185 -0.369,0.287 l 0.327,0.372 -0.709,0 c -0.047,0.051 -0.092,0.103 -0.137,0.155 l 0.373,0.319 -0.618,0 c -0.028,0.04 -0.06,0.085 -0.087,0.126 l 0.359,0.244 -0.513,0 c -0.022,0.037 -0.045,0.077 -0.066,0.114 l 0.296,0.168 -0.388,0 c -0.02,0.039 -0.042,0.082 -0.061,0.122 l 0.222,0.108 -0.274,0.001 c -0.02,0.042 -0.039,0.084 -0.058,0.126 l 0.167,0.071 -0.197,0 c -0.018,0.04 -0.035,0.081 -0.052,0.123 l 0.066,0.024 0.529,0 -0.346,-0.147 0.572,0 -0.407,-0.198 0.63,0 -0.403,-0.23 0.697,0 -0.414,-0.282 0.781,0 -0.435,-0.37 0.889,0 -0.416,-0.474 1.027,0 -0.386,-0.659 1.22,0 0.194,0.659 -1.028,0 0.278,0.474 -0.889,0 0.326,0.37 -0.78,0 0.331,0.282 -0.698,0 0.336,0.23 -0.63,0 0.349,0.198 -0.572,0 0.303,0.147 0.528,0 -0.259,-0.147 0.572,0 -0.291,-0.198 0.631,0 -0.269,-0.23 0.697,0 -0.248,-0.282 0.78,0 -0.217,-0.37 0.889,0 -0.139,-0.474 1.027,0 0,0.474 -0.888,0 0.108,0.37 -0.78,0 0.165,0.282 -0.697,0 0.202,0.23 -0.63,0 0.232,0.198 -0.572,0 0.216,0.147 0.529,0 -0.173,-0.147 0.572,0 -0.174,-0.198 0.63,0 -0.135,-0.23 0.698,0 -0.083,-0.282 0.78,0 0,0.282 -0.697,0 0.067,0.23 -0.63,0 0.116,0.198 -0.572,0 0.13,0.147 0.529,0 -0.087,-0.147 0.572,0 -0.058,-0.198 0.63,0 0,0.198 -0.572,0 0.043,0.147 0.529,0 0,-0.147 0.572,0 -0.043,0.147 0.529,0 0.087,-0.147 -0.573,0 0.058,-0.198 -0.63,0 0,-0.23 0.697,0 -0.067,0.23 0.631,0 -0.116,0.198 0.571,0 -0.13,0.147 0.529,0 0.173,-0.147 -0.572,0 0.175,-0.198 -0.63,0 0.134,-0.23 -0.698,0 0.083,-0.282 -0.78,0 0,-0.37 0.889,0 -0.109,0.37 0.781,0 -0.166,0.282 0.697,0 -0.201,0.23 0.63,0 -0.233,0.198 0.573,0 -0.217,0.147 0.529,0 0.26,-0.147 -0.572,0 0.29,-0.198 -0.63,0 0.269,-0.23 -0.698,0 0.249,-0.282 -0.78,0 0.217,-0.37 -0.889,0 0.139,-0.474 -1.028,0 0,-0.659 1.221,0 -0.193,0.659 1.027,0 -0.277,0.474 0.888,0 -0.325,0.37 0.78,0 -0.331,0.282 0.698,0 -0.337,0.23 0.63,0 -0.348,0.198 0.572,0 -0.304,0.147 0.53,0 0.345,-0.147 0.199,0 c -0.011,-0.025 -0.022,-0.048 -0.033,-0.072 l -0.166,0.072 -0.571,0 0.406,-0.198 0.275,0 -0.053,-0.109 -0.222,0.109 -0.63,0 0.404,-0.23 0.387,0 c -0.03,-0.057 -0.061,-0.112 -0.092,-0.168 l -0.295,0.168 -0.697,0 0.413,-0.282 0.513,0 c -0.05,-0.083 -0.1,-0.165 -0.154,-0.245 l -0.359,0.245 -0.78,0 0.434,-0.37 0.618,-0.001 c -0.077,-0.109 -0.159,-0.215 -0.245,-0.318 l -0.373,0.319 -0.889,0 0.417,-0.474 0.708,0 c -0.119,-0.131 -0.246,-0.255 -0.382,-0.372 l -0.326,0.372 -1.028,0 0.387,-0.659 0.599,0 c -0.139,-0.097 -0.286,-0.188 -0.44,-0.271 l -0.159,0.271 -1.221,0 0.208,-0.712 c -0.432,-0.103 -0.907,-0.158 -1.429,-0.158 l 0,0.87 -1.221,0 -0.208,-0.712 z"/><path id="path44" style="fill:#2b5df2;fill-opacity:1;fill-rule:nonzero;stroke:none" d="m 13.0254,17.7725 c -0.298,0.896 -0.419,1.849 -0.419,2.716 0,2.741 1.088,4.123 1.088,4.123 0,0 0.782,-0.017 1.576,0.506 0.795,0.524 1.529,1.306 2.73,1.306 1.2,0 1.935,-0.782 2.729,-1.306 0.794,-0.523 1.576,-0.506 1.576,-0.506 0,0 1.089,-1.382 1.089,-4.123 0,-0.869 -0.122,-1.823 -0.422,-2.721 l -9.947,0.005 z"/></g><g id="g36"><path id="path50" style="fill:#2b5df2;fill-opacity:1;fill-rule:nonzero;stroke:none" d="m 10.0459,11.7461 c -0.068,-0.16 -0.103,-0.241 -0.17,-0.401 -0.091,0.038 -0.136,0.057 -0.226,0.096 0.029,0.087 0.043,0.13 0.071,0.216 -0.17,0.075 -0.255,0.114 -0.425,0.193 l -0.656,-1.406 c 0.085,-0.057 0.128,-0.085 0.214,-0.14 -0.028,-0.063 -0.042,-0.094 -0.07,-0.157 -0.299,0.136 -0.447,0.206 -0.742,0.354 0.03,0.06 0.046,0.092 0.076,0.152 0.098,-0.031 0.147,-0.047 0.245,-0.078 0.27,0.56 0.406,0.839 0.676,1.398 -0.168,0.082 -0.252,0.124 -0.42,0.209 -0.048,-0.077 -0.073,-0.116 -0.121,-0.192 -0.089,0.045 -0.133,0.068 -0.221,0.115 0.082,0.154 0.123,0.231 0.204,0.385 0.616,-0.325 0.93,-0.474 1.565,-0.744"/><path id="path51" style="fill:#2b5df2;fill-opacity:1;fill-rule:nonzero;stroke:none" d="m 11.2236,10.2646 c 0.073,0.218 0.074,0.413 0.011,0.589 -0.063,0.175 -0.191,0.296 -0.383,0.366 -0.184,0.069 -0.353,0.057 -0.51,-0.037 -0.158,-0.094 -0.281,-0.245 -0.366,-0.457 -0.005,-0.012 -0.007,-0.018 -0.012,-0.028 -0.087,-0.215 -0.104,-0.411 -0.048,-0.588 0.057,-0.179 0.185,-0.307 0.384,-0.381 0.21,-0.077 0.399,-0.067 0.561,0.03 0.162,0.097 0.28,0.257 0.353,0.476 0.004,0.012 0.006,0.018 0.01,0.03 m 0.268,-0.12 c -0.087,-0.274 -0.247,-0.474 -0.484,-0.595 -0.237,-0.12 -0.501,-0.13 -0.783,-0.025 -0.275,0.102 -0.464,0.279 -0.56,0.522 -0.096,0.244 -0.085,0.498 0.027,0.763 0.005,0.011 0.007,0.016 0.011,0.026 0.111,0.263 0.284,0.449 0.512,0.561 0.228,0.113 0.464,0.122 0.714,0.029 0.257,-0.095 0.435,-0.257 0.54,-0.493 0.105,-0.235 0.118,-0.489 0.031,-0.762 -0.003,-0.01 -0.005,-0.015 -0.008,-0.026"/><path id="path52" style="fill:#2b5df2;fill-opacity:1;fill-rule:nonzero;stroke:none" d="m 11.3232,9.1797 c 0.021,0.065 0.031,0.098 0.051,0.163 0.1,-0.016 0.151,-0.022 0.251,-0.037 0.178,0.595 0.267,0.892 0.446,1.486 -0.085,0.042 -0.127,0.063 -0.211,0.105 0.02,0.066 0.03,0.098 0.051,0.164 0.088,-0.027 0.132,-0.041 0.22,-0.068 0.107,-0.031 0.16,-0.047 0.268,-0.078 0.088,-0.025 0.132,-0.037 0.221,-0.061 -0.018,-0.067 -0.027,-0.1 -0.045,-0.166 -0.094,0.01 -0.14,0.014 -0.234,0.025 -0.17,-0.596 -0.255,-0.895 -0.425,-1.492 0.298,-0.085 0.448,-0.125 0.748,-0.199 0.031,0.085 0.046,0.128 0.076,0.214 0.099,-0.025 0.149,-0.036 0.248,-0.06 -0.04,-0.169 -0.06,-0.254 -0.099,-0.423 -0.631,0.148 -0.944,0.233 -1.566,0.427"/><path id="path53" style="fill:#2b5df2;fill-opacity:1;fill-rule:nonzero;stroke:none" d="m 15.4287,10.2979 c -0.009,-0.068 -0.013,-0.102 -0.021,-0.17 -0.094,-0.004 -0.141,-0.006 -0.234,-0.008 -0.095,-0.698 -0.143,-1.047 -0.238,-1.745 -0.12,0.017 -0.18,0.025 -0.3,0.043 -0.335,0.665 -0.487,1.002 -0.762,1.677 l -0.008,0 c -0.104,-0.514 -0.155,-0.771 -0.258,-1.284 0.094,-0.035 0.142,-0.052 0.237,-0.085 -0.013,-0.068 -0.019,-0.101 -0.032,-0.168 -0.317,0.059 -0.475,0.093 -0.79,0.164 0.015,0.066 0.023,0.1 0.038,0.167 0.1,-0.008 0.151,-0.011 0.251,-0.017 0.131,0.607 0.197,0.91 0.327,1.518 -0.087,0.034 -0.131,0.052 -0.217,0.087 0.015,0.066 0.023,0.1 0.038,0.167 0.089,-0.02 0.134,-0.031 0.223,-0.049 0.109,-0.024 0.163,-0.035 0.272,-0.057 0.266,-0.674 0.413,-1.009 0.74,-1.673 0.003,0 0.005,0 0.008,10e-4 0.079,0.517 0.117,0.776 0.195,1.293 -0.089,0.03 -0.133,0.044 -0.222,0.074 0.011,0.068 0.017,0.101 0.027,0.169 0.2,-0.032 0.3,-0.047 0.499,-0.074 0.091,-0.012 0.136,-0.018 0.227,-0.03"/><path id="path54" style="fill:#2b5df2;fill-opacity:1;fill-rule:nonzero;stroke:none" d="m 15.9268,9.0479 c 0.272,-0.026 0.409,-0.037 0.682,-0.054 -0.113,0.347 -0.166,0.52 -0.268,0.867 -0.003,0 -0.005,0 -0.008,10e-4 -0.157,-0.327 -0.239,-0.49 -0.406,-0.814 m -0.765,-0.53 c 0.066,-10e-4 0.099,-10e-4 0.166,-10e-4 0.392,0.671 0.577,1.01 0.92,1.696 0.094,-0.008 0.141,-0.012 0.235,-0.019 0.228,-0.73 0.354,-1.094 0.631,-1.817 0.065,-0.011 0.098,-0.016 0.163,-0.025 l -0.005,-0.171 c -0.257,0.008 -0.385,0.013 -0.641,0.028 0.004,0.068 0.006,0.103 0.01,0.171 0.068,0.006 0.101,0.01 0.169,0.017 -0.051,0.147 -0.076,0.221 -0.126,0.37 -0.348,0.02 -0.522,0.034 -0.869,0.068 -0.073,-0.139 -0.11,-0.208 -0.185,-0.347 0.065,-0.016 0.098,-0.025 0.163,-0.042 -0.007,-0.068 -0.01,-0.101 -0.016,-0.169 -0.255,0.025 -0.383,0.039 -0.637,0.071 0.009,0.068 0.013,0.101 0.022,0.17"/><path id="path55" style="fill:#2b5df2;fill-opacity:1;fill-rule:nonzero;stroke:none" d="m 20.0684,9.8604 -0.008,0 c -0.202,-0.656 -0.313,-0.983 -0.556,-1.634 -0.081,-0.006 -0.121,-0.009 -0.201,-0.013 -0.328,0.612 -0.481,0.921 -0.767,1.545 -0.003,-10e-4 -0.005,-0.002 -0.008,-0.002 0.02,-0.319 0.031,-0.477 0.053,-0.795 0.007,-0.229 0.01,-0.343 0.017,-0.572 l 0.249,-0.029 c 0.003,-0.068 0.004,-0.102 0.007,-0.17 -0.32,-0.014 -0.481,-0.017 -0.803,-0.019 0,0.068 0,0.102 -0.001,0.17 0.1,0.017 0.149,0.025 0.248,0.041 -0.01,0.622 -0.015,0.932 -0.025,1.552 -0.093,0.014 -0.139,0.022 -0.231,0.036 0,0.069 0,0.103 -0.001,0.172 0.091,0 0.137,10e-4 0.228,0.002 0.141,0.003 0.212,0.004 0.353,0.009 0.281,-0.631 0.431,-0.945 0.753,-1.565 l 0.008,0 c 0.237,0.658 0.345,0.989 0.539,1.652 0.233,0.022 0.348,0.036 0.58,0.065 0.008,-0.068 0.012,-0.102 0.021,-0.171 -0.089,-0.026 -0.134,-0.04 -0.224,-0.065 0.072,-0.617 0.108,-0.925 0.18,-1.542 0.101,-0.004 0.151,-0.005 0.251,-0.008 0.009,-0.067 0.013,-0.101 0.022,-0.169 -0.319,-0.041 -0.479,-0.058 -0.798,-0.088 -0.007,0.069 -0.01,0.103 -0.016,0.17 0.098,0.025 0.146,0.037 0.243,0.063 -0.023,0.226 -0.035,0.341 -0.058,0.568 -0.022,0.318 -0.033,0.478 -0.055,0.797"/><path id="path56" style="fill:#2b5df2;fill-opacity:1;fill-rule:nonzero;stroke:none" d="m 20.873,8.3662 c -0.009,0.067 -0.014,0.102 -0.022,0.169 0.096,0.028 0.144,0.043 0.24,0.072 -0.089,0.614 -0.134,0.922 -0.223,1.536 -0.094,0.002 -0.14,0.003 -0.233,0.006 -0.009,0.069 -0.014,0.103 -0.023,0.171 0.62,0.082 0.93,0.136 1.544,0.268 0.04,-0.187 0.06,-0.28 0.1,-0.465 -0.095,-0.02 -0.143,-0.029 -0.237,-0.049 -0.031,0.102 -0.045,0.153 -0.076,0.255 -0.318,-0.064 -0.477,-0.093 -0.799,-0.144 0.041,-0.252 0.061,-0.378 0.101,-0.629 0.321,0.051 0.482,0.08 0.801,0.143 0.016,-0.082 0.024,-0.123 0.041,-0.205 -0.322,-0.065 -0.485,-0.094 -0.809,-0.146 0.044,-0.278 0.067,-0.417 0.111,-0.696 0.352,0.057 0.528,0.088 0.878,0.158 -0.011,0.106 -0.017,0.159 -0.029,0.264 0.1,0.02 0.15,0.03 0.248,0.052 0.04,-0.186 0.06,-0.278 0.1,-0.462 -0.682,-0.147 -1.025,-0.206 -1.713,-0.298"/><path id="path57" style="fill:#2b5df2;fill-opacity:1;fill-rule:nonzero;stroke:none" d="m 24.4248,9.375 c -0.044,-0.077 -0.12,-0.16 -0.229,-0.248 -0.107,-0.088 -0.261,-0.16 -0.461,-0.214 -0.291,-0.079 -0.554,-0.048 -0.779,0.089 -0.223,0.137 -0.366,0.352 -0.43,0.641 -0.002,0.012 -0.004,0.018 -0.007,0.031 -0.064,0.29 -0.029,0.544 0.097,0.763 0.126,0.217 0.324,0.361 0.598,0.436 0.148,0.039 0.282,0.054 0.405,0.043 0.124,-0.012 0.235,-0.042 0.333,-0.089 0.042,-0.137 0.064,-0.205 0.106,-0.342 -0.077,-0.023 -0.115,-0.035 -0.192,-0.057 -0.058,0.095 -0.087,0.143 -0.144,0.24 -0.055,0.021 -0.117,0.035 -0.187,0.039 -0.07,0.005 -0.149,-0.005 -0.238,-0.029 -0.216,-0.059 -0.364,-0.172 -0.448,-0.342 -0.084,-0.171 -0.101,-0.369 -0.048,-0.594 0.003,-0.013 0.005,-0.02 0.008,-0.034 0.054,-0.23 0.159,-0.401 0.314,-0.513 0.156,-0.11 0.343,-0.139 0.558,-0.082 0.117,0.033 0.21,0.071 0.278,0.114 0.069,0.043 0.122,0.085 0.159,0.123 -0.048,0.166 -0.073,0.249 -0.123,0.415 -0.138,-0.036 -0.208,-0.053 -0.346,-0.086 -0.021,0.075 -0.032,0.113 -0.053,0.189 0.249,0.069 0.373,0.105 0.621,0.182 0.083,-0.271 0.125,-0.405 0.208,-0.675"/><path id="path58" style="fill:#2b5df2;fill-opacity:1;fill-rule:nonzero;stroke:none" d="m 24.8398,11.1748 c -0.081,-0.04 -0.121,-0.06 -0.202,-0.1 0.27,-0.246 0.408,-0.367 0.69,-0.604 0.059,0.364 0.084,0.546 0.129,0.909 -0.088,-0.022 -0.131,-0.034 -0.219,-0.057 -0.024,0.065 -0.037,0.097 -0.061,0.161 0.265,0.101 0.397,0.155 0.659,0.266 0.027,-0.063 0.04,-0.095 0.067,-0.158 -0.06,-0.037 -0.091,-0.056 -0.152,-0.092 -0.064,-0.495 -0.102,-0.742 -0.193,-1.239 0.068,-0.181 0.102,-0.272 0.172,-0.452 0.098,0.021 0.148,0.032 0.248,0.054 0.025,-0.063 0.038,-0.094 0.062,-0.158 -0.303,-0.119 -0.455,-0.176 -0.762,-0.284 -0.022,0.065 -0.034,0.097 -0.056,0.161 0.09,0.048 0.135,0.072 0.223,0.121 -0.069,0.19 -0.103,0.285 -0.172,0.475 -0.385,0.31 -0.572,0.47 -0.935,0.796 -0.069,-0.012 -0.104,-0.018 -0.174,-0.028 -0.02,0.065 -0.031,0.097 -0.053,0.163 0.27,0.087 0.404,0.131 0.67,0.228 0.024,-0.064 0.036,-0.098 0.059,-0.162"/><path id="path59" style="fill:#2b5df2;fill-opacity:1;fill-rule:nonzero;stroke:none" d="m 26.7129,9.9814 c -0.027,0.062 -0.041,0.094 -0.068,0.157 0.087,0.054 0.13,0.081 0.216,0.136 -0.252,0.567 -0.377,0.852 -0.63,1.419 -0.092,-0.025 -0.138,-0.036 -0.231,-0.06 -0.026,0.064 -0.04,0.095 -0.067,0.158 0.585,0.253 0.875,0.391 1.443,0.691 0.089,-0.167 0.134,-0.251 0.222,-0.419 -0.088,-0.047 -0.132,-0.069 -0.22,-0.115 -0.057,0.09 -0.085,0.136 -0.142,0.225 -0.295,-0.151 -0.445,-0.224 -0.746,-0.363 0.108,-0.231 0.161,-0.347 0.268,-0.579 0.301,0.14 0.451,0.212 0.748,0.364 0.038,-0.075 0.057,-0.112 0.095,-0.187 -0.3,-0.154 -0.451,-0.227 -0.755,-0.367 0.118,-0.256 0.177,-0.384 0.295,-0.64 0.331,0.152 0.494,0.232 0.82,0.399 -0.04,0.098 -0.06,0.148 -0.099,0.245 0.092,0.048 0.138,0.073 0.23,0.121 0.089,-0.167 0.133,-0.25 0.222,-0.417 -0.631,-0.334 -0.953,-0.488 -1.601,-0.768"/></g></g></g></g></svg>