<svg xmlns:dc="http://purl.org/dc/elements/1.1/" xmlns:cc="http://creativecommons.org/ns#" xmlns:rdf="http://www.w3.org/1999/02/22-rdf-syntax-ns#" xmlns:svg="http://www.w3.org/2000/svg" xmlns="http://www.w3.org/2000/svg" viewBox="0 0 45 45" style="enable-background:new 0 0 45 45;" xml:space="preserve" version="1.1" id="svg2"><metadata id="metadata8"><rdf:RDF><cc:Work rdf:about=""><dc:format>image/svg+xml</dc:format><dc:type rdf:resource="http://purl.org/dc/dcmitype/StillImage"/></cc:Work></rdf:RDF></metadata><defs id="defs6"><clipPath id="clipPath16" clipPathUnits="userSpaceOnUse"><path id="path18" d="M 0,36 36,36 36,0 0,0 0,36 Z"/></clipPath></defs><g transform="matrix(1.25,0,0,-1.25,0,45)" id="g10"><g id="g12"><g xmlns="http://www.w3.org/2000/svg" clip-path="url(#clipPath16)" id="g14"><g transform="translate(32,31)" id="g20"><path id="path22" style="fill:#eeeeee;fill-opacity:1;fill-rule:nonzero;stroke:none" d="m 0,0 -28,0 c -2.209,0 -4,-1.791 -4,-4 l 0,-9 36,0 0,9 C 4,-1.791 2.209,0 0,0"/></g><g transform="translate(0,9)" id="g24"><path id="path26" style="fill:#DA121A;fill-opacity:1;fill-rule:nonzero;stroke:none" d="m 0,0 c 0,-2.209 1.791,-4 4,-4 l 28,0 c 2.209,0 4,1.791 4,4 L 36,9 0,9 0,0 Z"/></g><g xmlns="http://www.w3.org/2000/svg" transform="translate(-4.4968,-4.4999)" id="g3101" clip-path="url(#clipPath3103)"><g id="g3107" transform="translate(17.436,28.4951)"><path xmlns:inkscape="http://www.inkscape.org/namespaces/inkscape" d="m 0,0 0,-7.339 c 0,-2.568 2.266,-4.651 5.06,-4.651 2.794,0 5.061,2.083 5.061,4.651 L 10.121,0 0,0 z" style="fill:#000000;fill-opacity:1;fill-rule:nonzero;stroke:none" id="path3109" inkscape:connector-curvature="0"/></g><g id="g3111" transform="translate(17.8359,28.0957)"><path xmlns:inkscape="http://www.inkscape.org/namespaces/inkscape" d="m 0,0 0,-6.939 c 0,-2.344 2.09,-4.252 4.66,-4.252 2.569,0 4.66,1.908 4.66,4.252 L 9.32,0 0,0 z" style="fill:#eeeeee;fill-opacity:1;fill-rule:nonzero;stroke:none" id="path3113" inkscape:connector-curvature="0"/></g><g id="g3115" transform="translate(22.3481,25.9277)"><path xmlns:inkscape="http://www.inkscape.org/namespaces/inkscape" d="M 0,0 C -0.197,0 -0.398,-0.027 -0.398,-0.027 L -0.638,0.562 -0.227,0.217 0,0.661 0.227,0.217 0.639,0.562 0.398,-0.027 C 0.398,-0.027 0.197,0 0,0" style="fill:#fcdd09;fill-opacity:1;fill-rule:nonzero;stroke:none" id="path3117" inkscape:connector-curvature="0"/></g><g id="g3119" transform="translate(21.9771,25.8071)"><path xmlns:inkscape="http://www.inkscape.org/namespaces/inkscape" d="m 0,0 0.317,-0.441 c 0,0 -0.206,0.019 -0.317,0.071 -0.11,0.053 -0.143,0.118 -0.143,0.118 0,0 -0.032,-0.03 -0.078,-0.104 -0.046,-0.075 -0.064,-0.128 -0.064,-0.128 0,0 -0.196,0.332 -0.104,0.442 C -0.307,0.056 0,0 0,0" style="fill:#fcdd09;fill-opacity:1;fill-rule:nonzero;stroke:none" id="path3121" inkscape:connector-curvature="0"/></g><g id="g3123" transform="translate(24.0254,19.792)"><path xmlns:inkscape="http://www.inkscape.org/namespaces/inkscape" d="M 0,0 0.806,0.55 0.768,0.165 0.589,0.196 0.26,-0.029 0.917,0.011 0.763,-0.28 0.651,-0.19 0.097,-0.229 0.459,-0.806 0.121,-0.875 l 0.018,0.199 -0.276,0.465 -0.324,-0.011 -0.141,-0.091 -0.119,0.292 0.477,-0.015 -0.477,0.898 0.016,0.294 L -0.441,0.983 0,0 z" style="fill:#fcdd09;fill-opacity:1;fill-rule:nonzero;stroke:none" id="path3125" inkscape:connector-curvature="0"/></g><g id="g3127" transform="translate(23.4072,24.1484)"><path xmlns:inkscape="http://www.inkscape.org/namespaces/inkscape" d="m 0,0 c 0,0 0.122,0.136 0.439,0.198 0.318,0.063 0.493,0.029 0.493,0.029 0,0 -0.113,-0.199 -0.423,-0.264 C 0.197,-0.102 0,0 0,0" style="fill:#078930;fill-opacity:1;fill-rule:nonzero;stroke:none" id="path3129" inkscape:connector-curvature="0"/></g><g id="g3131" transform="translate(23.3945,24.1694)"><path xmlns:inkscape="http://www.inkscape.org/namespaces/inkscape" d="m 0,0 c 0,0 -0.077,0.159 -0.013,0.454 0.066,0.295 0.162,0.429 0.162,0.429 0,0 0.139,-0.176 0.08,-0.467 C 0.168,0.126 0,0 0,0" style="fill:#078930;fill-opacity:1;fill-rule:nonzero;stroke:none" id="path3133" inkscape:connector-curvature="0"/></g><g id="g3135" transform="translate(24.0361,25.1528)"><path xmlns:inkscape="http://www.inkscape.org/namespaces/inkscape" d="m 0,0 c 0,0 0.012,0.205 0.193,0.427 0.181,0.222 0.324,0.252 0.324,0.252 0,0 0.009,-0.201 -0.166,-0.422 C 0.176,0.037 0,0 0,0" style="fill:#078930;fill-opacity:1;fill-rule:nonzero;stroke:none" id="path3137" inkscape:connector-curvature="0"/></g><g id="g3139" transform="translate(21.5894,24.1812)"><path xmlns:inkscape="http://www.inkscape.org/namespaces/inkscape" d="m 0,0 c 0,0 -0.145,0.122 -0.172,0.387 -0.027,0.264 0.026,0.442 0.026,0.442 0,0 0.148,-0.162 0.179,-0.422 C 0.063,0.147 0,0 0,0" style="fill:#078930;fill-opacity:1;fill-rule:nonzero;stroke:none" id="path3141" inkscape:connector-curvature="0"/></g><g id="g3143" transform="translate(20.8975,25.291)"><path xmlns:inkscape="http://www.inkscape.org/namespaces/inkscape" d="m 0,0 c 0,0 -0.032,0.203 0.099,0.458 0.13,0.255 0.323,0.344 0.323,0.344 0,0 -0.008,-0.225 -0.133,-0.477 C 0.164,0.073 0,0 0,0" style="fill:#078930;fill-opacity:1;fill-rule:nonzero;stroke:none" id="path3145" inkscape:connector-curvature="0"/></g><g id="g3147" transform="translate(23.5283,26.1064)"><path xmlns:inkscape="http://www.inkscape.org/namespaces/inkscape" d="m 0,0 c 0,0 0.206,-0.122 0.357,-0.403 0.153,-0.28 0.151,-0.472 0.151,-0.472 0,0 -0.22,0.085 -0.372,0.358 C -0.017,-0.243 0,0 0,0" style="fill:#078930;fill-opacity:1;fill-rule:nonzero;stroke:none" id="path3149" inkscape:connector-curvature="0"/></g><g id="g3151" transform="translate(23.7803,26.5308)"><path xmlns:inkscape="http://www.inkscape.org/namespaces/inkscape" d="m 0,0 c 0,0 -0.137,0.129 -0.187,0.39 -0.051,0.26 0.01,0.379 0.01,0.379 0,0 0.147,-0.112 0.199,-0.367 C 0.076,0.147 0,0 0,0" style="fill:#078930;fill-opacity:1;fill-rule:nonzero;stroke:none" id="path3153" inkscape:connector-curvature="0"/></g><g id="g3155" transform="translate(23.3262,26.9312)"><path xmlns:inkscape="http://www.inkscape.org/namespaces/inkscape" d="m 0,0 c 0,0 -0.178,-0.05 -0.442,0.086 -0.266,0.137 -0.356,0.308 -0.356,0.308 0,0 0.218,0.033 0.48,-0.099 C -0.058,0.164 0,0 0,0" style="fill:#078930;fill-opacity:1;fill-rule:nonzero;stroke:none" id="path3157" inkscape:connector-curvature="0"/></g><g id="g3159" transform="translate(22.9521,26.7817)"><path xmlns:inkscape="http://www.inkscape.org/namespaces/inkscape" d="m 0,0 c 0,0 0.207,0.032 0.472,-0.071 0.264,-0.104 0.377,-0.232 0.377,-0.232 0,0 -0.195,-0.064 -0.455,0.034 C 0.133,-0.17 0,0 0,0" style="fill:#078930;fill-opacity:1;fill-rule:nonzero;stroke:none" id="path3161" inkscape:connector-curvature="0"/></g><g id="g3163" transform="translate(22.0522,23.8701)"><path xmlns:inkscape="http://www.inkscape.org/namespaces/inkscape" d="M 0,0 -0.192,-0.099 0.148,0.685 0.045,0.575 0.146,1.327 0.495,1.335 0.242,1.496 -0.075,1.937 0.129,2.02 c 0,0 0.249,-0.023 0.513,-0.023 0.263,0 0.374,0.073 0.374,0.073 L 0.707,1.828 c 0,0 0.228,-0.121 0.329,-0.911 0.101,-0.791 0.053,-1.331 0.053,-1.331 0,0 1.056,-0.107 1.406,0.622 0.348,0.729 0.076,1.034 0.076,1.034 L 4.306,1.873 4.087,1.521 3.582,1.259 3.658,0.854 4.696,1.087 4.512,0.734 3.803,0.418 3.875,-0.228 5.038,-0.47 4.685,-0.778 3.75,-0.703 3.423,-1.15 4.687,-2.34 4.136,-2.34 3.025,-1.481 2.568,-1.875 3.552,-3.423 2.812,-3.144 2.044,-2.04 1.249,-2.114 1.89,-3.331 1.268,-2.922 1.231,-3.636 0.75,-2.629 c 0,0 -0.093,-0.455 -0.016,-1.138 C 0.812,-4.449 1.322,-4.68 1.322,-4.68 L 0.888,-4.702 c 0,0 0.141,-0.335 0.424,-0.434 0.283,-0.098 0.49,0.082 0.49,0.082 0,0 -0.076,-0.308 -0.441,-0.31 -0.365,-0.001 -0.559,0.305 -0.559,0.305 l 0.344,-0.612 -0.392,0.19 -0.129,-0.515 -0.106,0.515 -0.393,-0.19 0.311,0.612 c 0,0 -0.241,-0.365 -0.606,-0.363 -0.366,10e-4 -0.477,0.263 -0.477,0.263 0,0 0.214,-0.09 0.498,0.009 0.283,0.098 0.489,0.486 0.489,0.486 l -0.466,-0.033 c 0,0 0.427,0.254 0.504,0.936 0.078,0.684 -0.161,1.29 -0.161,1.29 l -0.556,-1.165 -0.038,0.714 -0.623,-0.409 0.643,1.217 -0.797,0.074 -0.767,-1.104 -0.741,-0.279 0.985,1.548 -0.457,0.394 -1.112,-0.859 -0.55,0 1.264,1.19 -0.326,0.447 -0.935,-0.075 -0.354,0.308 1.163,0.242 0.072,0.646 -0.709,0.316 -0.184,0.353 1.038,-0.233 0.077,0.405 -0.506,0.262 -0.22,0.352 1.736,-0.631 c 0,0 -0.273,-0.305 0.076,-1.034 0.277,-0.578 0.999,-0.63 1.285,-0.627 L 0,0 z" style="fill:#da121a;fill-opacity:1;fill-rule:nonzero;stroke:none" id="path3165" inkscape:connector-curvature="0"/></g><g id="g3167" transform="translate(20.9712,19.792)"><path xmlns:inkscape="http://www.inkscape.org/namespaces/inkscape" d="m 0,0 -0.425,0.55 -0.343,-0.385 0.18,0.031 0.328,-0.225 -0.657,0.04 0.154,-0.291 0.112,0.09 0.555,-0.039 -0.363,-0.577 0.338,-0.069 -0.018,0.199 0.275,0.465 L 0.461,-0.222 0.602,-0.313 0.72,-0.021 0.244,-0.036 0.72,0.862 0.705,1.156 0.441,0.983 0,0 z" style="fill:#fcdd09;fill-opacity:1;fill-rule:nonzero;stroke:none" id="path3169" inkscape:connector-curvature="0"/></g><g id="g3171" transform="translate(21.5801,24.1646)"><path xmlns:inkscape="http://www.inkscape.org/namespaces/inkscape" d="m 0,0 c 0,0 -0.188,-0.089 -0.5,-0.024 -0.311,0.065 -0.439,0.227 -0.439,0.227 0,0 0.194,0.053 0.509,-0.021 C -0.131,0.112 0,0 0,0" style="fill:#078930;fill-opacity:1;fill-rule:nonzero;stroke:none" id="path3173" inkscape:connector-curvature="0"/></g><g id="g3175" transform="translate(20.8555,25.2803)"><path xmlns:inkscape="http://www.inkscape.org/namespaces/inkscape" d="m 0,0 c 0,0 0.007,0.224 -0.152,0.462 -0.16,0.239 -0.279,0.286 -0.279,0.286 0,0 -0.029,-0.2 0.124,-0.436 C -0.153,0.076 0,0 0,0" style="fill:#078930;fill-opacity:1;fill-rule:nonzero;stroke:none" id="path3177" inkscape:connector-curvature="0"/></g><g id="g3179" transform="translate(21.0293,26.3413)"><path xmlns:inkscape="http://www.inkscape.org/namespaces/inkscape" d="M 0,0 C 0,0 0.112,0.155 0.116,0.431 0.12,0.707 0.065,0.853 0.065,0.853 c 0,0 -0.151,-0.173 -0.159,-0.444 C -0.101,0.138 0,0 0,0" style="fill:#078930;fill-opacity:1;fill-rule:nonzero;stroke:none" id="path3181" inkscape:connector-curvature="0"/></g><g id="g3183" transform="translate(21.5298,26.9438)"><path xmlns:inkscape="http://www.inkscape.org/namespaces/inkscape" d="m 0,0 c 0,0 0.182,-0.03 0.43,0.135 0.248,0.166 0.278,0.345 0.278,0.345 0,0 -0.18,0.009 -0.424,-0.151 C 0.039,0.169 0,0 0,0" style="fill:#078930;fill-opacity:1;fill-rule:nonzero;stroke:none" id="path3185" inkscape:connector-curvature="0"/></g><g id="g3187" transform="translate(21.7817,26.8052)"><path xmlns:inkscape="http://www.inkscape.org/namespaces/inkscape" d="m 0,0 c 0,0 -0.168,0.002 -0.405,-0.155 -0.237,-0.157 -0.32,-0.306 -0.32,-0.306 0,0 0.204,-0.021 0.438,0.129 C -0.053,-0.18 0,0 0,0" style="fill:#078930;fill-opacity:1;fill-rule:nonzero;stroke:none" id="path3189" inkscape:connector-curvature="0"/></g><g id="g3191" transform="translate(22.355,25.2734)"><path xmlns:inkscape="http://www.inkscape.org/namespaces/inkscape" d="m 0,0 c 0,0 -0.088,-0.001 -0.278,-0.051 -0.191,-0.051 -0.563,-0.214 -0.656,-0.127 -0.163,0.152 0.001,0.292 0.001,0.292 0,0 0.017,-0.159 0.167,-0.159 0.083,0 0.316,0.085 0.497,0.101 C -0.091,0.071 0,0 0,0" style="fill:#da121a;fill-opacity:1;fill-rule:nonzero;stroke:none" id="path3193" inkscape:connector-curvature="0"/></g><g id="g3195" transform="translate(20.9717,24.9141)"><path xmlns:inkscape="http://www.inkscape.org/namespaces/inkscape" d="m 0,0 c 0,-0.053 -0.043,-0.096 -0.096,-0.096 -0.053,0 -0.096,0.043 -0.096,0.096 0,0.053 0.043,0.096 0.096,0.096 C -0.043,0.096 0,0.053 0,0" style="fill:#078930;fill-opacity:1;fill-rule:nonzero;stroke:none" id="path3197" inkscape:connector-curvature="0"/></g><g id="g3199" transform="translate(23.1924,22.6836)"><path xmlns:inkscape="http://www.inkscape.org/namespaces/inkscape" d="m 0,0 0.021,-0.229 c 0,0 0.468,-0.006 1.122,0.414 0.653,0.42 0.733,0.77 0.733,0.77 0,0 0.158,-0.281 0.373,-0.078 C 2.464,1.08 2.048,1.18 2.048,1.18 c 0,0 0.297,0.261 0.07,0.395 C 1.892,1.709 1.816,1.273 1.816,1.273 c 0,0 -0.128,0.269 -0.331,0.058 C 1.283,1.119 1.733,1.035 1.733,1.035 1.733,1.035 1.635,0.72 1.068,0.355 0.582,0.042 0,0 0,0" style="fill:#fcdd09;fill-opacity:1;fill-rule:nonzero;stroke:none" id="path3201" inkscape:connector-curvature="0"/></g><g id="g3203" transform="translate(21.731,22.5732)"><path xmlns:inkscape="http://www.inkscape.org/namespaces/inkscape" d="m 0,0 0.06,-0.215 c 0,0 -0.493,-0.009 -1.146,0.412 -0.653,0.421 -0.82,0.901 -0.82,0.901 0,0 -0.231,-0.298 -0.376,-0.091 -0.165,0.237 0.209,0.322 0.209,0.322 0,0 -0.343,0.211 -0.098,0.392 0.238,0.177 0.326,-0.285 0.326,-0.285 0,0 0.177,0.275 0.347,0.033 0.169,-0.24 -0.238,-0.292 -0.238,-0.292 0,0 0.113,-0.409 0.68,-0.774 C -0.57,0.089 0,0 0,0" style="fill:#fcdd09;fill-opacity:1;fill-rule:nonzero;stroke:none" id="path3205" inkscape:connector-curvature="0"/></g></g></g></g></g></svg>