<svg xmlns:dc="http://purl.org/dc/elements/1.1/" xmlns:cc="http://creativecommons.org/ns#" xmlns:rdf="http://www.w3.org/1999/02/22-rdf-syntax-ns#" xmlns:svg="http://www.w3.org/2000/svg" xmlns="http://www.w3.org/2000/svg" viewBox="0 0 45 45" style="enable-background:new 0 0 45 45;" xml:space="preserve" version="1.1" id="svg2"><metadata id="metadata8"><rdf:RDF><cc:Work rdf:about=""><dc:format>image/svg+xml</dc:format><dc:type rdf:resource="http://purl.org/dc/dcmitype/StillImage"/></cc:Work></rdf:RDF></metadata><defs id="defs6"><clipPath id="clipPath16" clipPathUnits="userSpaceOnUse"><path id="path18" d="M 0,36 36,36 36,0 0,0 0,36 Z"/></clipPath></defs><g transform="matrix(1.25,0,0,-1.25,0,45)" id="g10"><g id="g12"><g xmlns="http://www.w3.org/2000/svg" clip-path="url(#clipPath16)" id="g14"><g id="g20"><path id="path22" style="fill:#078930;fill-opacity:1;fill-rule:nonzero;stroke:none" d="M 0,9.33 V 9 C 0,6.791 1.791,5 4,5 h 28 c 2.209,0 4,1.791 4,4 v 0.331 z"/></g><g id="g24"><path id="path26" style="fill:#eeeeee;fill-opacity:1;fill-rule:nonzero;stroke:none" d="m 0,13.6698 v -4.34 l 36,10e-4 v 4.339 z"/></g><g id="g28"><path id="path30" style="fill:#da121a;fill-opacity:1;fill-rule:nonzero;stroke:none" d="M 36,22.3309 H 0 v -8.661 h 36 z"/></g><g id="g32"><path id="path34" style="fill:#eeeeee;fill-opacity:1;fill-rule:nonzero;stroke:none" d="m 36,22.3305 v 4.339 l -36,0.001 v -4.34 z"/></g><g id="g36"><path id="path38" style="fill:#078930;fill-opacity:1;fill-rule:nonzero;stroke:none" d="m 36,26.6698 v 0.33 c 0,2.209 -1.791,4 -4,4 H 4 c -2.209,0 -4,-1.791 -4,-4 v -0.329 z"/></g><g id="g40"><path id="path42" style="fill:#eeeeee;fill-opacity:1;fill-rule:nonzero;stroke:none" d="m 17.8813,14.912 h 0.172 c 0,0 -0.047,0.191 -0.047,0.518 0,0.326 0.009,0.486 0.009,0.486 0,0 0.032,-0.025 0.307,-0.303 0.275,-0.278 0.367,-0.404 0.367,-0.404 l 0.121,0.116 c 0,0 -0.16,0.105 -0.359,0.289 -0.191,0.178 -0.378,0.375 -0.378,0.375 0,0 0.023,0.027 0.058,0.055 0.034,0.028 0.062,0.052 0.062,0.052 l 0.265,-0.013 c 0,0 0.151,-0.065 0.234,-0.2 0.087,-0.143 0.151,-0.409 0.359,-0.513 0.136,-0.068 0.209,0.114 0.3,0.114 0.033,0 0.188,-0.067 0.31,-0.195 0.1,-0.106 0.357,-0.349 0.527,-0.349 0.101,0 0.184,0.055 0.213,0.124 0.019,0.043 0.039,0.191 0.108,0.191 0.069,0 0.727,-0.455 1.047,-0.455 0.117,0 0.181,0.06 0.203,0.108 0.035,0.075 -0.013,0.156 0.038,0.206 0.068,0.067 0.273,-0.081 0.623,-0.081 0.233,0 0.33,0.121 0.278,0.298 -0.046,0.159 0.005,0.195 0.085,0.195 0.079,0 0.16,-0.042 0.295,-0.042 0.135,0 0.203,0.081 0.203,0.123 0,0.099 -0.136,0.2 -0.136,0.285 0,0.1 0.317,0.096 0.339,0.249 0.008,0.051 0.004,0.091 -0.011,0.122 -0.034,0.07 -0.331,0.075 -0.331,0.171 0,0.083 0.1,0.136 0.1,0.217 0,0.034 -0.119,0.138 -0.292,0.138 -0.156,0 -0.288,-0.059 -0.333,-0.016 -0.057,0.055 0.059,0.255 0.059,0.391 0,0.075 -0.067,0.136 -0.178,0.136 -0.181,0 -0.414,-0.224 -0.621,-0.208 -0.12,0.009 -0.059,0.138 -0.059,0.222 0,0.131 -0.26,0.132 -0.26,0.132 0,0 0.076,0.08 0.076,0.176 0,0.095 -0.136,0.151 -0.136,0.219 0,0.118 0.613,0.268 0.613,0.595 0,0.176 -0.254,0.184 -0.254,0.303 0,0.114 0.351,0.166 0.354,0.409 0.002,0.146 -0.341,0.072 -0.341,0.205 0,0.056 0.1,0.194 0.1,0.292 0,0.077 -0.089,0.155 -0.153,0.155 -0.077,0 -0.2,-0.125 -0.299,-0.125 -0.089,0 -0.06,0.248 -0.148,0.248 -0.142,0 -0.264,-0.055 -0.373,-0.217 -0.135,-0.198 -0.144,-0.178 -0.286,0.062 -0.122,0.206 -0.208,0.163 -0.249,0.14 -0.087,-0.047 -0.14,-0.129 -0.222,-0.392 -0.045,-0.147 -0.126,-0.246 -0.191,-0.246 -0.07,0 -0.123,0.174 -0.219,0.174 -0.027,0 -0.058,-0.019 -0.093,-0.038 -0.026,-0.014 -0.055,-0.024 -0.084,-0.045 -0.098,-0.069 -0.198,-0.166 -0.233,-0.236 -0.059,-0.12 -0.118,-0.383 -0.161,-0.43 -0.044,-0.047 -0.114,-0.011 -0.114,-0.011 0,0 0.269,0.438 0.269,0.66 0,0.079 -0.042,0.201 -0.224,0.201 -0.075,0 -0.123,0.008 -0.123,0.069 0,0.139 0.224,0.557 0.029,0.774 -0.132,0.148 -0.312,-0.023 -0.414,0.062 -0.089,0.075 0.096,0.274 -0.005,0.458 -0.079,0.146 -0.151,0.09 -0.262,0.02 -0.137,-0.087 -0.172,-0.084 -0.237,0.092 -0.068,0.182 -0.116,0.182 -0.224,0.182 -0.062,0 -0.098,-0.041 -0.115,-0.111 -0.034,-0.137 -0.066,-0.224 -0.121,-0.224 -0.068,0 -0.159,0.099 -0.221,0.099 -0.063,0 -0.146,-0.161 -0.146,-0.272 0,-0.21 0.056,-0.274 0.03,-0.321 -0.045,-0.08 -0.297,0.049 -0.41,0.049 -0.078,0 -0.146,-0.055 -0.146,-0.174 0,-0.193 0.214,-0.365 0.214,-0.595 0,-0.162 -0.218,0.002 -0.306,-0.095 -0.09,-0.097 -0.08,-0.336 -0.08,-0.336 0,0 -0.106,0.23 -0.281,0.23 -0.144,0 -0.163,-0.13 -0.241,-0.13 -0.117,0 -0.275,0.593 -0.624,0.593 -0.151,0 -0.198,-0.245 -0.303,-0.245 -0.136,0 -0.164,0.336 -0.428,0.336 -0.156,0 -0.073,-0.326 -0.209,-0.326 -0.08,0 -0.183,0.096 -0.31,0.096 -0.07,0 -0.204,-0.104 -0.129,-0.217 0.156,-0.236 0.119,-0.265 -0.036,-0.295 -0.144,-0.028 -0.131,-0.064 -0.09,-0.209 0.049,-0.178 0.337,-0.277 0.337,-0.336 0,-0.1 -0.369,-0.179 -0.369,-0.335 0,-0.139 0.162,-0.201 0.334,-0.247 0.163,-0.044 0.346,-0.136 0.346,-0.204 0,-0.094 -0.177,-0.119 -0.177,-0.217 0,-0.068 0.084,-0.18 0.084,-0.18 0,0 -0.234,0.007 -0.293,-0.08 -0.088,-0.128 0.023,-0.261 -0.113,-0.261 -0.136,0 -0.237,0.099 -0.582,0.099 -0.219,0 -0.307,-0.11 -0.271,-0.276 0.036,-0.165 0.04,-0.251 -0.155,-0.206 -0.085,0.02 -0.181,0.037 -0.243,0.032 -0.114,-0.01 -0.183,-0.089 -0.183,-0.12 0,-0.098 0.141,-0.208 0.141,-0.285 0,-0.054 -0.14,-0.1 -0.238,-0.139 -0.07,-0.028 -0.108,-0.06 -0.108,-0.162 0,-0.121 0.084,-0.125 0.17,-0.146 0.089,-0.021 0.178,-0.049 0.178,-0.094 0,-0.072 -0.101,-0.15 -0.101,-0.223 0,-0.034 0.13,-0.138 0.278,-0.138 0.202,0 0.293,0.051 0.339,0.023 0.086,-0.049 -0.126,-0.377 -0.018,-0.48 0.099,-0.095 0.233,-0.056 0.486,0.079 0.094,0.05 0.212,0.08 0.271,0.08 0.069,0 0.096,-0.045 0.075,-0.14 -0.022,-0.104 -0.005,-0.15 0.066,-0.183 0.102,-0.047 0.333,-0.077 0.494,-0.027 0.101,0.032 0.17,0.088 0.255,0.128 0.125,0.058 0.19,0.08 0.226,0.025 0.055,-0.084 -0.059,-0.242 0.17,-0.242 0.214,0 0.408,0.155 0.584,0.286 0.177,0.131 0.23,0.175 0.382,0.135 0.14,-0.038 0.292,-0.037 0.322,0.107 0.025,0.124 0.129,0.154 0.257,0.1 0.163,-0.069 0.211,0.094 0.238,0.139 0.092,0.154 0.075,0.214 0.144,0.319 0.037,0.056 0.093,0.075 0.148,0.119 0.052,0.04 0.136,0.059 0.191,0.076 0.091,0.027 0.169,0.026 0.169,0.026 0,0 0.017,-0.009 0.051,-0.043 0.034,-0.034 0.05,-0.08 0.05,-0.08 0,0 -0.34,-0.313 -0.44,-0.404 -0.101,-0.092 -0.26,-0.21 -0.26,-0.21 l 0.122,-0.117 c 0,0 0.041,0.07 0.202,0.249 0.16,0.178 0.37,0.355 0.37,0.355 0,0 -0.009,-0.37 -0.022,-0.633 -0.012,-0.261 -0.028,-0.312 -0.028,-0.312"/></g></g></g></g></svg>