<svg xmlns:dc="http://purl.org/dc/elements/1.1/" xmlns:cc="http://creativecommons.org/ns#" xmlns:rdf="http://www.w3.org/1999/02/22-rdf-syntax-ns#" xmlns:svg="http://www.w3.org/2000/svg" xmlns="http://www.w3.org/2000/svg" viewBox="0 0 45 45" style="enable-background:new 0 0 45 45;" xml:space="preserve" version="1.1" id="svg2"><metadata id="metadata8"><rdf:RDF><cc:Work rdf:about=""><dc:format>image/svg+xml</dc:format><dc:type rdf:resource="http://purl.org/dc/dcmitype/StillImage"/></cc:Work></rdf:RDF></metadata><defs id="defs6"><clipPath id="clipPath16" clipPathUnits="userSpaceOnUse"><path id="path18" d="M 4,31 C 1.791,31 0,29.209 0,27 L 0,27 0,9 C 0,6.791 1.791,5 4,5 l 0,0 28,0 c 2.209,0 4,1.791 4,4 l 0,0 0,18 c 0,2.209 -1.791,4 -4,4 l 0,0 -28,0 z"/></clipPath></defs><g transform="matrix(1.25,0,0,-1.25,0,45)" id="g10"><g id="g12"><g clip-path="url(#clipPath16)" id="g14"><path id="path20" style="fill:#ce1126;fill-opacity:1;fill-rule:nonzero;stroke:none" d="M 0,5 36,5 36,31 0,31 0,5 Z"/></g></g><g xmlns="http://www.w3.org/2000/svg" transform="translate(19.7527,19.9635)" id="g22"><path id="path30" style="fill:#ffffff;fill-opacity:1;fill-rule:nonzero;stroke:none" d="m 3.32535,-6.5206201 -0.329,1.015 -0.33,-1.015 -1.068,0 0.864,-0.628 -0.329,-1.015 0.863,0.627 0.863,-0.627 -0.33,1.015 0.863,0.628 -1.067,0 z"/><path id="path32" style="fill:#ffffff;fill-opacity:1;fill-rule:nonzero;stroke:none" d="m 3.32535,-3.2667201 -0.329,1.015 -0.33,-1.015 -1.068,0 0.864,-0.628 -0.329,-1.015 0.863,0.627 0.863,-0.627 -0.33,1.015 0.863,0.628 -1.067,0 z"/><path id="path34" style="fill:#ffffff;fill-opacity:1;fill-rule:nonzero;stroke:none" d="m 3.32535,-0.01332014 -0.329,1.01499994 -0.33,-1.01499994 -1.068,0 0.864,-0.627 -0.329,-1.01499996 0.863,0.627 0.863,-0.627 -0.33,1.01499996 0.863,0.627 -1.067,0 z"/><path id="path36" style="fill:#ffffff;fill-opacity:1;fill-rule:nonzero;stroke:none" d="m 3.32535,3.2405798 -0.329,1.015 -0.33,-1.015 -1.068,0 0.864,-0.627 -0.329,-1.015 0.863,0.627 0.863,-0.627 -0.33,1.015 0.863,0.627 -1.067,0 z"/><path id="path38" style="fill:#ffffff;fill-opacity:1;fill-rule:nonzero;stroke:none" d="m 3.91615,-9.21202 c -2.163,-0.273 -4.426,0.421 -6.087,2.082 -2.853,2.854 -2.853,7.481 0,10.334 1.66,1.66 3.921,2.355 6.083,2.084 -3.053,1.55 -6.878,1.049 -9.43,-1.502 -3.175,-3.175 -3.175,-8.323 0,-11.498 2.553,-2.553 6.381,-3.053 9.434,-1.5"/></g></g></svg>