<svg xmlns:dc="http://purl.org/dc/elements/1.1/" xmlns:cc="http://creativecommons.org/ns#" xmlns:rdf="http://www.w3.org/1999/02/22-rdf-syntax-ns#" xmlns:svg="http://www.w3.org/2000/svg" xmlns="http://www.w3.org/2000/svg" viewBox="0 0 45 45" style="enable-background:new 0 0 45 45;" xml:space="preserve" version="1.1" id="svg2"><metadata id="metadata8"><rdf:RDF><cc:Work rdf:about=""><dc:format>image/svg+xml</dc:format><dc:type rdf:resource="http://purl.org/dc/dcmitype/StillImage"/></cc:Work></rdf:RDF></metadata><defs id="defs6"><clipPath id="clipPath16" clipPathUnits="userSpaceOnUse"><path id="path18" d="M 4,31 C 1.791,31 0,29.209 0,27 L 0,27 0,9 C 0,6.791 1.791,5 4,5 l 0,0 28,0 c 2.209,0 4,1.791 4,4 l 0,0 0,18 c 0,2.209 -1.791,4 -4,4 l 0,0 -28,0 z"/></clipPath></defs><g transform="matrix(1.25,0,0,-1.25,0,45)" id="g10"><g id="g12"><g clip-path="url(#clipPath16)" id="g14"><path id="path20" style="fill:#00237e;fill-opacity:1;fill-rule:nonzero;stroke:none" d="M 0,5 36,5 36,31 0,31 0,5 Z"/></g></g><g xmlns="http://www.w3.org/2000/svg" id="g22"><path id="path30" style="fill:#ffffff;fill-opacity:1;fill-rule:nonzero;stroke:none" d="m 20.4824,13.104114 -0.378,1.162 -0.377,-1.162 -1.223,0 0.989,-0.718 -0.377,-1.163 0.988,0.719 0.989,-0.719 -0.378,1.163 0.989,0.718 -1.222,0 z"/><path id="path32" style="fill:#ffffff;fill-opacity:1;fill-rule:nonzero;stroke:none" d="m 20.4824,16.718314 -0.378,1.163 -0.377,-1.163 -1.223,0 0.989,-0.718 -0.377,-1.163 0.988,0.719 0.989,-0.719 -0.378,1.163 0.989,0.718 -1.222,0 z"/><path id="path34" style="fill:#ffffff;fill-opacity:1;fill-rule:nonzero;stroke:none" d="m 20.4824,20.332614 -0.378,1.162 -0.377,-1.162 -1.223,0 0.989,-0.718 -0.377,-1.162 0.988,0.718 0.989,-0.718 -0.378,1.162 0.989,0.718 -1.222,0 z"/><path id="path36" style="fill:#ffffff;fill-opacity:1;fill-rule:nonzero;stroke:none" d="m 20.4824,23.946814 -0.378,1.162 -0.377,-1.162 -1.223,0 0.989,-0.718 -0.377,-1.163 0.988,0.719 0.989,-0.719 -0.378,1.163 0.989,0.718 -1.222,0 z"/><path id="path38" style="fill:#ffffff;fill-opacity:1;fill-rule:nonzero;stroke:none" d="m 20.7017,25.212914 c -2.686,0.941 -5.794,0.339 -7.942,-1.808 -2.985,-2.985 -2.985,-7.826 0,-10.812 2.149,-2.148 5.258,-2.7500003 7.945,-1.806 -3.33,-2.1610003 -7.828,-1.7820003 -10.748,1.137 -3.355,3.355 -3.355,8.795 0,12.151 2.92,2.919 7.415,3.299 10.745,1.138"/></g></g></svg>