<svg xmlns:dc="http://purl.org/dc/elements/1.1/" xmlns:cc="http://creativecommons.org/ns#" xmlns:rdf="http://www.w3.org/1999/02/22-rdf-syntax-ns#" xmlns:svg="http://www.w3.org/2000/svg" xmlns="http://www.w3.org/2000/svg" viewBox="0 0 45 45" style="enable-background:new 0 0 45 45;" xml:space="preserve" version="1.1" id="svg2"><metadata id="metadata8"><rdf:RDF><cc:Work rdf:about=""><dc:format>image/svg+xml</dc:format><dc:type rdf:resource="http://purl.org/dc/dcmitype/StillImage"/></cc:Work></rdf:RDF></metadata><defs id="defs6"><clipPath id="clipPath16" clipPathUnits="userSpaceOnUse"><path id="path18" d="M 0,36 36,36 36,0 0,0 0,36 Z"/></clipPath></defs><g transform="matrix(1.25,0,0,-1.25,0,45)" id="g10"><g id="g12"><g clip-path="url(#clipPath16)" id="g14"><g id="g30"><path id="path20" style="fill:#75b2de;fill-opacity:1;fill-rule:nonzero;stroke:none" d="M 0,18 V 9 C 0,6.791 1.791,5 4,5 h 28 c 2.209,0 4,1.791 4,4 v 9 z"/></g><g id="g32"><path id="path30" style="fill:#eeeeee;fill-opacity:1;fill-rule:nonzero;stroke:none" d="M 32,31 H 4 C 1.791,31 0,29.209 0,27 v -9 h 36 v 9 c 0,2.209 -1.791,4 -4,4"/></g><g id="g34"><path id="path40" style="fill:#0394c0;fill-opacity:1;fill-rule:nonzero;stroke:none" d="m 12.1992,26.6665 h 12.642 v -15.135 c 0,-0.596 -0.483,-1.078 -1.079,-1.078 h -4.164 c -0.635,0 -1.078,-1.079 -1.078,-1.079 0,0 -0.443,1.079 -1.078,1.079 h -4.165 c -0.595,0 -1.078,0.482 -1.078,1.078 z"/><path id="path41" style="fill:#fdd116;fill-opacity:1;fill-rule:nonzero;stroke:none" d="m 14.0923,11.5625 v 2.274 c 0,0 0.141,1.491 1.404,1.491 1.263,0 1.474,-1.114 1.474,-1.114 0,0 0.126,1.71 1.53,1.71 1.404,0 1.529,-1.71 1.529,-1.71 0,0 0.212,1.114 1.475,1.114 1.262,0 1.404,-1.491 1.404,-1.491 v -2.274 z"/><path id="path42" style="fill:#168634;fill-opacity:1;fill-rule:nonzero;stroke:none" d="m 20.2803,21.8057 c 0,0 0.235,-0.886 -0.353,-1.733 -0.588,-0.847 -1.307,-1.142 -1.307,-1.142 0,0 0.18,1.263 0.664,1.879 0.549,0.698 0.996,0.996 0.996,0.996"/><path id="path43" style="fill:#168634;fill-opacity:1;fill-rule:nonzero;stroke:none" d="m 16.7432,21.4453 c 0,0 -0.231,-0.871 0.347,-1.703 0.578,-0.832 1.284,-1.121 1.284,-1.121 0,0 -0.176,1.24 -0.652,1.845 -0.54,0.686 -0.979,0.979 -0.979,0.979"/><path id="path44" style="fill:#d91227;fill-opacity:1;fill-rule:nonzero;stroke:none" d="m 21.4883,20.0884 c 0,0 0.094,0.306 0.447,0.329 0.353,0.024 0.471,-0.329 0.471,-0.329 0,0 0.201,0.267 0.407,0.211 0.29,-0.078 0.29,-0.446 0.29,-0.446 0,0 0.315,0.188 0.558,0 0.243,-0.189 0.117,-0.526 0.117,-0.526 0,0 0.394,0.024 0.463,-0.204 0.086,-0.282 -0.07,-0.471 -0.07,-0.471 0,0 0.352,-0.18 0.321,-0.462 -0.031,-0.283 -0.337,-0.416 -0.337,-0.416 0,0 0.301,-0.225 0.203,-0.439 -0.117,-0.259 -0.438,-0.259 -0.438,-0.259 0,0 0.132,-0.329 0.023,-0.487 -0.11,-0.156 -0.557,-0.179 -0.557,-0.179 0,0 0.024,-0.377 -0.227,-0.463 -0.251,-0.087 -0.393,0.172 -0.393,0.172 0,0 -0.282,-0.384 -0.549,-0.345 -0.266,0.039 -0.376,0.235 -0.376,0.235 0,0 -0.228,-0.204 -0.471,-0.109 -0.242,0.094 -0.227,0.353 -0.227,0.353 0,0 -0.494,-0.094 -0.635,0.141 -0.142,0.236 -0.047,0.423 -0.047,0.423 0,0 -0.314,0.016 -0.424,0.259 -0.11,0.243 0.07,0.408 0.07,0.408 0,0 -0.391,0.149 -0.376,0.447 0.016,0.298 0.314,0.4 0.314,0.4 0,0 -0.259,0.282 -0.157,0.518 0.102,0.235 0.415,0.259 0.415,0.259 0,0 -0.164,0.368 0,0.541 0.165,0.172 0.471,0.102 0.471,0.102 0,0 -0.007,0.327 0.196,0.439 0.298,0.165 0.518,-0.102 0.518,-0.102"/><path id="path45" style="fill:#fdd116;fill-opacity:1;fill-rule:nonzero;stroke:none" d="m 22.7705,18.0879 c 0,0.372 -0.302,0.673 -0.674,0.673 -0.372,0 -0.673,-0.301 -0.673,-0.673 0,-0.372 0.301,-0.674 0.673,-0.674 0.372,0 0.674,0.302 0.674,0.674"/><path id="path46" style="fill:#d91227;fill-opacity:1;fill-rule:nonzero;stroke:none" d="m 14.2905,20.0698 c 0,0 0.094,0.306 0.447,0.329 0.353,0.024 0.471,-0.329 0.471,-0.329 0,0 0.202,0.268 0.408,0.212 0.29,-0.079 0.29,-0.447 0.29,-0.447 0,0 0.314,0.188 0.557,0 0.243,-0.189 0.118,-0.526 0.118,-0.526 0,0 0.393,0.024 0.462,-0.204 0.086,-0.282 -0.07,-0.471 -0.07,-0.471 0,0 0.353,-0.18 0.321,-0.462 -0.031,-0.283 -0.337,-0.416 -0.337,-0.416 0,0 0.301,-0.225 0.204,-0.439 -0.118,-0.259 -0.439,-0.259 -0.439,-0.259 0,0 0.133,-0.329 0.023,-0.487 -0.11,-0.156 -0.557,-0.179 -0.557,-0.179 0,0 0.024,-0.377 -0.227,-0.463 -0.251,-0.086 -0.392,0.173 -0.392,0.173 0,0 -0.283,-0.385 -0.55,-0.346 -0.266,0.039 -0.376,0.235 -0.376,0.235 0,0 -0.228,-0.204 -0.471,-0.109 -0.242,0.094 -0.227,0.353 -0.227,0.353 0,0 -0.494,-0.094 -0.635,0.141 -0.142,0.236 -0.047,0.423 -0.047,0.423 0,0 -0.314,0.016 -0.424,0.259 -0.11,0.243 0.071,0.408 0.071,0.408 0,0 -0.392,0.149 -0.377,0.447 0.016,0.298 0.314,0.4 0.314,0.4 0,0 -0.259,0.282 -0.157,0.518 0.102,0.235 0.416,0.259 0.416,0.259 0,0 -0.165,0.368 0,0.541 0.164,0.172 0.471,0.102 0.471,0.102 0,0 -0.007,0.327 0.195,0.439 0.299,0.165 0.518,-0.102 0.518,-0.102"/><path id="path47" style="fill:#fdd116;fill-opacity:1;fill-rule:nonzero;stroke:none" d="m 15.5732,18.0693 c 0,0.372 -0.302,0.673 -0.674,0.673 -0.372,0 -0.673,-0.301 -0.673,-0.673 0,-0.372 0.301,-0.674 0.673,-0.674 0.372,0 0.674,0.302 0.674,0.674"/><path id="path48" style="fill:#d91227;fill-opacity:1;fill-rule:nonzero;stroke:none" d="m 17.9458,25.8286 c 0,0 0.094,0.306 0.447,0.329 0.353,0.024 0.47,-0.329 0.47,-0.329 0,0 0.203,0.267 0.409,0.211 0.29,-0.078 0.29,-0.446 0.29,-0.446 0,0 0.313,0.188 0.556,0 0.244,-0.189 0.119,-0.526 0.119,-0.526 0,0 0.392,0.024 0.461,-0.204 0.087,-0.282 -0.07,-0.471 -0.07,-0.471 0,0 0.354,-0.18 0.321,-0.462 -0.031,-0.283 -0.336,-0.416 -0.336,-0.416 0,0 0.301,-0.225 0.204,-0.439 -0.119,-0.259 -0.44,-0.259 -0.44,-0.259 0,0 0.134,-0.329 0.024,-0.486 -0.11,-0.157 -0.557,-0.181 -0.557,-0.181 0,0 0.023,-0.376 -0.228,-0.462 -0.251,-0.087 -0.391,0.172 -0.391,0.172 0,0 -0.283,-0.384 -0.55,-0.345 -0.266,0.04 -0.376,0.235 -0.376,0.235 0,0 -0.228,-0.203 -0.471,-0.109 -0.243,0.094 -0.227,0.353 -0.227,0.353 0,0 -0.494,-0.095 -0.635,0.141 -0.142,0.235 -0.047,0.423 -0.047,0.423 0,0 -0.314,0.016 -0.424,0.259 -0.11,0.243 0.071,0.408 0.071,0.408 0,0 -0.392,0.149 -0.377,0.447 0.016,0.298 0.314,0.4 0.314,0.4 0,0 -0.259,0.282 -0.157,0.518 0.102,0.235 0.415,0.259 0.415,0.259 0,0 -0.164,0.368 0,0.541 0.165,0.172 0.471,0.102 0.471,0.102 0,0 -0.007,0.327 0.196,0.439 0.298,0.165 0.518,-0.102 0.518,-0.102"/><path id="path49" style="fill:#fdd116;fill-opacity:1;fill-rule:nonzero;stroke:none" d="m 19.2285,23.8281 c 0,0.372 -0.302,0.673 -0.674,0.673 -0.372,0 -0.674,-0.301 -0.674,-0.673 0,-0.372 0.302,-0.674 0.674,-0.674 0.372,0 0.674,0.302 0.674,0.674"/></g><g id="g36"><path id="path50" style="fill:#000000;fill-opacity:1;fill-rule:nonzero;stroke:none" d="m 2.0913,8.8848 -10e-4,-0.008 1.263,-0.457 v -0.228 l -1.259,-0.455 0.002,-0.008 0.748,0.033 h 0.269 l 0.035,0.184 h 0.205 v -0.707 h -0.205 l -0.035,0.181 h -1.225 l -0.035,-0.181 h -0.206 v 0.181 0.446 l 1.257,0.435 v 0.008 l -1.257,0.437 v 0.631 h 0.206 l 0.035,-0.183 h 1.225 l 0.035,0.183 h 0.205 v -0.707 h -0.205 l -0.035,0.182 h -0.269 z"/><path id="path51" style="fill:#000000;fill-opacity:1;fill-rule:nonzero;stroke:none" d="m 2.4854,10.7891 c -0.177,0 -0.32,-0.037 -0.43,-0.109 -0.111,-0.075 -0.166,-0.183 -0.166,-0.327 0,-0.144 0.055,-0.251 0.164,-0.322 0.11,-0.07 0.254,-0.105 0.432,-0.105 h 0.028 c 0.18,0 0.325,0.035 0.434,0.107 0.11,0.071 0.165,0.178 0.165,0.321 0,0.145 -0.055,0.253 -0.165,0.326 -0.109,0.073 -0.254,0.109 -0.434,0.109 z m 0.028,0.342 c 0.25,0 0.456,-0.072 0.62,-0.215 0.163,-0.143 0.245,-0.33 0.245,-0.562 0,-0.23 -0.082,-0.417 -0.245,-0.558 -0.164,-0.142 -0.37,-0.212 -0.62,-0.212 h -0.026 c -0.248,0 -0.455,0.07 -0.619,0.211 -0.164,0.142 -0.246,0.328 -0.246,0.558 0,0.231 0.082,0.418 0.246,0.562 0.164,0.144 0.371,0.216 0.619,0.216 z"/><path id="path52" style="fill:#000000;fill-opacity:1;fill-rule:nonzero;stroke:none" d="m 1.6475,13.084 h 0.206 L 1.8885,12.9 h 1.465 v -0.34 l -1.148,-0.689 0.001,-0.008 h 0.907 l 0.035,0.184 h 0.205 V 11.34 h -0.205 l -0.035,0.182 H 1.8885 L 1.8535,11.34 h -0.206 v 0.182 0.341 l 1.148,0.69 -10e-4,0.007 H 1.8885 L 1.8535,12.377 H 1.6475 V 12.9 Z"/><path id="path53" style="fill:#000000;fill-opacity:1;fill-rule:nonzero;stroke:none" d="m 1.6475,14.7676 h 0.455 v -0.262 l -0.191,-0.014 v -0.314 h 1.202 l 0.035,0.182 h 0.205 v -0.707 h -0.205 l -0.035,0.182 h -1.202 v -0.313 l 0.191,-0.014 v -0.261 h -0.455 z"/><path id="path54" style="fill:#000000;fill-opacity:1;fill-rule:nonzero;stroke:none" d="m 2.6035,16.0527 v -0.578 h 0.487 v 0.551 l -0.203,0.015 v 0.26 h 0.466 v -1.35 h -0.205 l -0.035,0.182 h -1.225 l -0.035,-0.182 h -0.206 v 0.182 1.166 h 0.467 v -0.263 l -0.203,-0.014 v -0.547 h 0.428 v 0.578 z"/><path id="path55" style="fill:#000000;fill-opacity:1;fill-rule:nonzero;stroke:none" d="m 3.1636,17.9702 c 0.055,-0.055 0.104,-0.136 0.148,-0.243 0.044,-0.106 0.066,-0.24 0.066,-0.403 0,-0.23 -0.077,-0.418 -0.231,-0.562 -0.154,-0.145 -0.355,-0.217 -0.602,-0.217 h -0.058 c -0.256,0 -0.464,0.072 -0.624,0.215 -0.16,0.142 -0.24,0.328 -0.24,0.557 0,0.134 0.021,0.256 0.064,0.366 0.042,0.111 0.1,0.203 0.173,0.277 h 0.343 v -0.254 l -0.228,-0.048 c -0.027,-0.031 -0.048,-0.072 -0.064,-0.123 -0.016,-0.051 -0.024,-0.11 -0.024,-0.177 0,-0.149 0.055,-0.264 0.165,-0.347 0.11,-0.083 0.254,-0.124 0.432,-0.124 h 0.061 c 0.174,0 0.312,0.04 0.416,0.121 0.103,0.082 0.155,0.199 0.155,0.351 0,0.069 -0.006,0.125 -0.017,0.168 -0.012,0.042 -0.026,0.075 -0.041,0.1 h -0.29 l -0.019,-0.244 h -0.24 v 0.587 z"/><path id="path56" style="fill:#000000;fill-opacity:1;fill-rule:nonzero;stroke:none" d="m 1.8535,18.2119 h -0.206 v 0.707 h 0.206 l 0.035,-0.183 h 1.225 l 0.035,0.183 h 0.205 v -0.707 h -0.205 l -0.035,0.183 h -1.225 z"/><path id="path57" style="fill:#000000;fill-opacity:1;fill-rule:nonzero;stroke:none" d="m 2.6411,19.7222 v 0.391 l -0.601,-0.192 v -0.007 z m 0.507,-0.619 -0.017,0.122 -1.484,0.519 v 0.351 l 1.484,0.515 0.017,0.122 h 0.205 v -0.581 h -0.205 l -0.021,0.118 -0.234,-0.075 v -0.553 l 0.234,-0.075 0.021,0.118 h 0.205 v -0.581 z"/><path id="path58" style="fill:#000000;fill-opacity:1;fill-rule:nonzero;stroke:none" d="m 2.3994,21.4404 v 0.237 c 0,0.095 -0.02,0.167 -0.061,0.214 -0.041,0.048 -0.099,0.072 -0.175,0.072 -0.077,0 -0.138,-0.024 -0.184,-0.071 -0.046,-0.047 -0.068,-0.117 -0.068,-0.209 v -0.243 z m -0.752,0.243 c 0,0.194 0.044,0.345 0.133,0.456 0.089,0.11 0.211,0.165 0.367,0.165 0.086,0 0.161,-0.023 0.224,-0.07 0.063,-0.045 0.114,-0.113 0.153,-0.202 0.03,0.101 0.08,0.173 0.149,0.217 0.069,0.045 0.155,0.066 0.257,0.066 h 0.087 c 0.037,0 0.067,0.008 0.087,0.023 0.021,0.015 0.033,0.039 0.037,0.074 l 0.006,0.042 h 0.206 v -0.177 c 0,-0.112 -0.03,-0.191 -0.09,-0.236 -0.06,-0.045 -0.138,-0.068 -0.233,-0.068 h -0.098 c -0.082,0 -0.147,-0.022 -0.195,-0.066 -0.047,-0.044 -0.072,-0.106 -0.074,-0.187 v -0.28 h 0.45 l 0.035,0.183 h 0.205 v -0.707 h -0.205 l -0.035,0.182 h -1.225 l -0.035,-0.182 h -0.206 v 0.182 z"/><path id="path59" style="fill:#000000;fill-opacity:1;fill-rule:nonzero;stroke:none" d="m 1.9111,23.1626 h 1.18 v 0.226 c 0,0.123 -0.041,0.219 -0.124,0.289 -0.083,0.069 -0.191,0.104 -0.325,0.104 h -0.285 c -0.132,0 -0.239,-0.035 -0.322,-0.104 -0.083,-0.07 -0.124,-0.166 -0.124,-0.289 z m -0.264,0.244 c 0,0.209 0.067,0.381 0.2,0.515 0.133,0.136 0.304,0.203 0.513,0.203 h 0.282 c 0.209,0 0.38,-0.067 0.513,-0.203 0.132,-0.134 0.198,-0.306 0.198,-0.515 v -0.768 h -0.205 l -0.035,0.182 h -1.224 l -0.036,-0.182 h -0.206 v 0.182 z"/><path id="path60" style="fill:#000000;fill-opacity:1;fill-rule:nonzero;stroke:none" d="m 1.8535,24.3628 h -0.206 v 0.707 h 0.206 l 0.035,-0.183 h 1.225 l 0.035,0.183 h 0.205 v -0.707 h -0.205 l -0.035,0.183 h -1.225 z"/><path id="path61" style="fill:#000000;fill-opacity:1;fill-rule:nonzero;stroke:none" d="m 1.6475,27.0156 h 0.206 l 0.035,-0.183 h 1.465 v -0.341 l -1.148,-0.689 0.001,-0.007 h 0.907 l 0.035,0.183 h 0.205 v -0.707 h -0.205 l -0.035,0.182 h -1.225 l -0.035,-0.182 h -0.206 v 0.182 0.342 l 1.148,0.689 -10e-4,0.007 h -0.906 l -0.035,-0.183 h -0.206 v 0.524 z"/><path id="path62" style="fill:#000000;fill-opacity:1;fill-rule:nonzero;stroke:none" d="m 2.4854,28.416 c -0.177,0 -0.32,-0.037 -0.43,-0.11 -0.111,-0.074 -0.166,-0.182 -0.166,-0.326 0,-0.144 0.055,-0.251 0.164,-0.321 0.11,-0.071 0.254,-0.106 0.432,-0.106 h 0.028 c 0.18,0 0.325,0.035 0.434,0.107 0.11,0.071 0.165,0.178 0.165,0.321 0,0.145 -0.055,0.253 -0.165,0.326 -0.109,0.073 -0.254,0.109 -0.434,0.109 z m 0.028,0.341 c 0.25,0 0.456,-0.071 0.62,-0.214 0.163,-0.143 0.245,-0.33 0.245,-0.562 0,-0.23 -0.082,-0.416 -0.245,-0.558 -0.164,-0.142 -0.37,-0.213 -0.62,-0.213 h -0.026 c -0.248,0 -0.455,0.071 -0.619,0.212 -0.164,0.142 -0.246,0.328 -0.246,0.558 0,0.231 0.082,0.419 0.246,0.562 0.164,0.144 0.371,0.215 0.619,0.215 z"/></g></g></g></g></svg>