<svg xmlns:dc="http://purl.org/dc/elements/1.1/" xmlns:cc="http://creativecommons.org/ns#" xmlns:rdf="http://www.w3.org/1999/02/22-rdf-syntax-ns#" xmlns:svg="http://www.w3.org/2000/svg" xmlns="http://www.w3.org/2000/svg" viewBox="0 0 45 45" style="enable-background:new 0 0 45 45;" xml:space="preserve" version="1.1" id="svg2"><metadata id="metadata8"><rdf:RDF><cc:Work rdf:about=""><dc:format>image/svg+xml</dc:format><dc:type rdf:resource="http://purl.org/dc/dcmitype/StillImage"/></cc:Work></rdf:RDF></metadata><defs id="defs6"><clipPath id="clipPath16" clipPathUnits="userSpaceOnUse"><path id="path18" d="M 4,31 C 1.791,31 0,29.209 0,27 L 0,27 0,9 C 0,6.791 1.791,5 4,5 l 0,0 28,0 c 2.209,0 4,1.791 4,4 l 0,0 0,18 c 0,2.209 -1.791,4 -4,4 l 0,0 -28,0 z"/></clipPath></defs><g transform="matrix(1.25,0,0,-1.25,0,45)" id="g10"><g id="g12"><g clip-path="url(#clipPath16)" id="g14"><path id="path20" style="fill:#ffd90f;fill-opacity:1;fill-rule:nonzero;stroke:none" d="M 0,5 36,5 36,31 0,31 0,5 Z"/></g></g><g xmlns="http://www.w3.org/2000/svg" transform="translate(-5.3,-4.5)" id="g22"><path xmlns="http://www.w3.org/2000/svg" id="path22" style="fill:#141414;fill-opacity:1;fill-rule:nonzero;stroke:none" d="m 22.2629,15.9121 c 0,-0.523 0.495,-1.118 0.495,-1.118 l 0.617,-0.015 0.024,1.895 c 0,0 -1.136,0.065 -1.136,-0.762 m 3.098,-0.112 c -0.777,0.572 -1.43,0.773 -1.43,0.773 l -0.04,-1.805 h 2.578 c 0,0 -0.453,0.548 -1.108,1.032 m -2.208,15.737 c 0,-0.437 0.558,-0.572 0.558,-0.572 l 0.017,1.06 c 0,0 -0.575,-0.05 -0.575,-0.488 m 5.171,-16.69 c 0.519,0.011 0.792,0.042 1.198,0.276 0.454,0.264 0.784,0.64 0.784,0.64 0,0 -2.798,-0.579 -2.939,-0.608 -0.141,-0.029 -0.161,-0.054 -0.216,-0.108 -0.055,-0.055 -0.078,-0.16 -0.078,-0.16 0,0 -0.147,-0.025 -0.147,0.099 0,0.157 0.209,0.363 0.246,0.374 0.038,0.012 3.388,0.673 3.388,0.673 0,0 0.769,1.078 0.769,3.025 0,1.177 -0.295,2.154 -0.295,2.195 0,0.041 0.007,0.13 0.286,0.023 0.278,-0.105 0.386,-0.251 0.386,-0.364 0,-0.114 -0.169,-4.685 -0.169,-4.685 l 0.259,0.047 c 0,0 0.243,4.043 0.243,4.265 0,0.222 0.12,0.282 0.345,0.282 0.226,0 0.166,-0.191 0.114,-0.317 -0.21,-0.504 -0.227,-2.739 -0.28,-3.757 -0.022,-0.42 0.018,-0.694 0.205,-0.972 0.263,-0.387 0.322,-0.666 0.322,-0.968 0,-0.304 -0.176,-1.575 -0.198,-1.729 -0.022,-0.154 -0.159,-0.407 -0.489,-0.412 -0.447,-0.007 -0.475,0.303 -0.471,0.412 0.005,0.109 0.196,2.994 0.196,2.994 l -0.247,-0.051 c 0,0 -0.113,-1.786 -0.199,-2.531 -0.086,-0.745 -0.588,-0.98 -1.011,-0.98 h -13.448 c -0.263,0 -0.581,0.101 -0.79,0.205 -0.57,0.283 -0.888,0.857 -0.9,1.512 -0.006,0.361 -0.171,4.103 -0.171,4.103 0,0 -0.697,0.695 -0.927,0.96 -0.215,0.247 -0.235,0.255 -0.235,0.314 0,0.049 0.067,0.068 0.118,0.068 0.052,0 0.66,-0.003 0.697,-0.003 0.038,0 0.069,-0.019 0.114,-0.088 0.046,-0.068 0.052,-0.232 0.052,-0.232 0,0 0.03,-0.034 0.075,-0.05 0.046,-0.018 0.083,-0.017 0.083,-0.017 0,0 -0.051,1.568 -0.075,2.726 -0.013,0.654 -0.005,1.179 -0.005,1.21 0,0.042 0.022,0.076 0.06,0.076 0.099,0 0.24,-0.128 0.24,-0.128 0,0 0.257,-0.199 0.39,-0.284 0.133,-0.084 0.157,-0.125 0.157,-0.208 0,-0.082 -0.019,-0.127 -0.106,-0.427 -0.086,-0.3 -0.239,-1.988 -0.239,-2.37 0,-0.383 0.014,-0.556 0.014,-0.556 0,0 0.041,-0.004 0.098,0.006 0.056,0.01 0.072,0.035 0.072,0.035 0,0 -0.139,0.336 0.098,0.336 0.169,0 0.706,0.039 0.894,0.039 0.189,0 0.133,-0.122 0.071,-0.212 -0.063,-0.09 -1.102,-1.18 -1.102,-1.18 0,0 0.281,-1.365 1.079,-2.301 0.623,-0.731 0.907,-0.862 2.564,-1.036 1.494,-0.158 3.307,-0.216 3.307,-0.216 0,0 -2.87,2.071 -4.607,6.52 -1.666,4.271 -1.276,8.586 -1.276,8.586 h -0.534 c 0,0 -0.083,0.013 -0.083,0.202 0,0.189 0.134,0.184 0.134,0.184 l 7.552,-0.195 0.011,0.671 c 0,0 -0.117,0.004 -0.322,0.085 -0.121,0.048 -0.222,0.141 -0.284,0.221 -0.048,0.061 -0.082,0.093 -0.082,0.093 0,0 -0.275,0.013 -0.444,0.096 -0.199,0.098 -0.187,0.195 -0.349,0.195 -0.236,0 -0.445,-0.273 -0.86,-0.273 -0.322,0 -0.615,0.173 -0.695,0.248 -0.103,0.097 -0.14,0.328 -0.692,0.328 -0.311,0 -0.533,-0.206 -0.902,-0.206 -0.241,0 -0.378,0.078 -0.437,0.153 -0.096,0.12 -0.011,0.259 -0.011,0.259 0,0 0.106,-0.172 0.265,-0.172 0.341,0 0.681,0.574 1.129,0.574 0.338,0 0.599,-0.07 0.777,-0.212 0.153,-0.123 0.371,-0.251 0.543,-0.251 0.145,0 0.182,0.053 0.313,0.144 0.117,0.082 0.335,0.205 0.532,0.205 0.282,0 0.6,-0.216 0.894,-0.216 0.251,0 0.301,0.102 0.429,0.156 0.128,0.055 0.22,0.043 0.22,0.043 l 0.004,0.257 0.218,-0.051 0.091,-2.359 8.279,-0.208 c 0,0 0.091,-0.008 0.091,-0.122 0,-0.114 -0.094,-0.249 -0.207,-0.249 h -0.41 c 0,0 -6.741,-5.18 -6.741,-10.351 0,-1.155 0.309,-2.042 0.693,-2.774 0.468,-0.891 1.172,-1.581 1.172,-1.581 0,0 0.937,0.045 1.402,0.055"/></g></g></svg>