<svg xmlns:dc="http://purl.org/dc/elements/1.1/" xmlns:cc="http://creativecommons.org/ns#" xmlns:rdf="http://www.w3.org/1999/02/22-rdf-syntax-ns#" xmlns:svg="http://www.w3.org/2000/svg" xmlns="http://www.w3.org/2000/svg" viewBox="0 0 45 45" style="enable-background:new 0 0 45 45;" xml:space="preserve" version="1.1" id="svg2"><metadata id="metadata8"><rdf:RDF><cc:Work rdf:about=""><dc:format>image/svg+xml</dc:format><dc:type rdf:resource="http://purl.org/dc/dcmitype/StillImage"/></cc:Work></rdf:RDF></metadata><defs id="defs6"><clipPath id="clipPath16" clipPathUnits="userSpaceOnUse"><path id="path18" d="M 0,36 36,36 36,0 0,0 0,36 Z"/></clipPath></defs><g transform="matrix(1.25,0,0,-1.25,0,45)" id="g10"><g id="g12"><g xmlns="http://www.w3.org/2000/svg" clip-path="url(#clipPath16)" id="g14"><g id="g30"><path id="path20" style="fill:#0020a8" d="M 4,31 C 1.791,31 0,29.209 0,27 L 0,9 C 0,6.791 1.791,5 4,5 l 8,0 0,26 -8,0 z"/><path id="path21" style="fill:#fedf00" d="M 24,5 12,5 12,31 24,31 24,5 z"/><path id="path22" style="fill:#d01c3a" d="m 24,31 8,0 c 2.209,0 4,-1.791 4,-4 L 36,9 C 36,6.791 34.209,5 32,5 l -8,0 0,26 z"/></g><g id="g34"><path id="path30" style="fill:#0072bd" d="m 23.3115,17.1689 -5.312,5.312 -5.312,-5.312 5.312,-5.312 5.312,5.312 z"/><path id="path31" style="fill:#630357" d="m 23.3115,17.1689 -0.927,0.927 -8.769,0 -0.928,-0.927 0.928,-0.927 8.769,0 0.927,0.927 z"/><path id="path32" style="fill:#e4e5e6" d="m 20.7764,18.7529 -1.123,1.157 -0.161,0 -0.835,1.004 -0.506,-0.588 -0.206,0 -0.626,-0.675 -0.267,0.294 -0.229,-0.304 -0.163,0.175 -0.948,-0.93 -0.23,0.257 -0.367,-0.39 5.661,0 z"/><path id="path33" style="fill:#ebc200" d="m 19.3037,14.7793 c 0.018,-0.185 0.158,-0.339 0.317,-0.339 0.162,0 0.299,0.152 0.317,0.339 l -0.634,0 z m 0.716,0.08 0,-0.04 c 0,-0.249 -0.183,-0.459 -0.399,-0.459 -0.097,0 -0.189,0.043 -0.259,0.113 -0.029,-0.016 -0.075,-0.046 -0.106,-0.083 -0.05,-0.059 -0.078,-0.126 -0.078,-0.127 -0.007,-0.015 -0.021,-0.024 -0.037,-0.024 -0.005,0 -0.011,10e-4 -0.016,0.003 -0.02,0.009 -0.03,0.032 -0.021,0.053 0.002,0.003 0.033,0.078 0.092,0.147 0.035,0.04 0.081,0.073 0.114,0.093 -0.048,0.069 -0.079,0.153 -0.086,0.244 l -2.557,0 c -0.011,-0.198 -0.177,-0.356 -0.378,-0.356 -0.209,0 -0.38,0.17 -0.38,0.379 0,0.209 0.171,0.379 0.38,0.379 0.022,0 0.04,-0.017 0.04,-0.04 0,-0.022 -0.018,-0.04 -0.04,-0.04 -0.165,0 -0.299,-0.134 -0.299,-0.299 0,-0.165 0.134,-0.299 0.299,-0.299 0.165,0 0.299,0.134 0.299,0.299 l 0,0.057 3.432,0 z"/><path id="path34" style="fill:#ebc200" d="m 20.0361,15.0693 c 0.022,0 0.04,0.018 0.04,0.04 0,0.022 -0.018,0.04 -0.04,0.04 l -0.248,0 0,0.587 c 0,0.022 -0.018,0.04 -0.04,0.04 -0.023,0 -0.04,-0.018 -0.04,-0.04 l 0,-0.12 -0.172,0 0,0.12 c 0,0.022 -0.018,0.04 -0.04,0.04 -0.022,0 -0.04,-0.018 -0.04,-0.04 l 0,-0.12 -0.172,0 0,0.12 c 0,0.022 -0.018,0.04 -0.04,0.04 -0.022,0 -0.04,-0.018 -0.04,-0.04 l 0,-0.587 -2.626,0 c 0.006,0.048 0.003,0.097 -0.01,0.146 -0.053,0.203 -0.262,0.323 -0.463,0.272 -0.098,-0.026 -0.18,-0.089 -0.231,-0.176 -0.051,-0.088 -0.065,-0.189 -0.039,-0.287 0.006,-0.021 0.029,-0.035 0.049,-0.029 0.021,0.006 0.034,0.028 0.028,0.049 -0.021,0.077 -0.009,0.158 0.031,0.226 0.041,0.07 0.105,0.118 0.183,0.139 0.158,0.045 0.323,-0.055 0.365,-0.214 0.042,-0.159 -0.054,-0.323 -0.214,-0.365 -0.021,-0.006 -0.034,-0.028 -0.028,-0.049 0.004,-0.019 0.021,-0.03 0.038,-0.03 0.004,0 0.007,0 0.011,10e-4 0.124,0.033 0.218,0.125 0.259,0.237 l 3.479,0 z m -0.752,0.273 0.172,0 0,-0.193 -0.172,0 0,0.193 z m 0.424,-0.193 -0.172,0 0,0.193 0.172,0 0,-0.193 z m 0,0.274 -0.172,0 0,0.113 0.172,0 0,-0.113 z m -0.424,0.113 0.172,0 0,-0.113 -0.172,0 0,0.113 z"/><path id="path35" style="fill:#ebc200" d="m 17.9985,24.1904 0.128,-0.393 0.413,0 -0.334,-0.243 0.127,-0.393 -0.334,0.243 -0.334,-0.243 0.127,0.393 -0.334,0.243 0.414,0 0.127,0.393 z"/><path id="path36" style="fill:#ebc200" d="m 19.2529,22.9331 0.064,-0.198 0.208,0 -0.168,-0.122 0.064,-0.199 -0.168,0.123 -0.169,-0.123 0.065,0.199 -0.168,0.122 0.208,0 0.064,0.198 z"/><path id="path37" style="fill:#ebc200" d="m 20.0059,22.1772 0.064,-0.198 0.208,0 -0.168,-0.122 0.064,-0.199 -0.168,0.123 -0.169,-0.123 0.065,0.199 -0.168,0.122 0.208,0 0.064,0.198 z"/><path id="path38" style="fill:#ebc200" d="m 20.7559,21.4302 0.064,-0.198 0.208,0 -0.168,-0.122 0.064,-0.199 -0.168,0.123 -0.169,-0.123 0.065,0.199 -0.168,0.122 0.208,0 0.064,0.198 z"/><path id="path39" style="fill:#ebc200" d="m 16.7446,22.9331 -0.064,-0.198 -0.208,0 0.168,-0.122 -0.064,-0.199 0.168,0.123 0.168,-0.123 -0.064,0.199 0.168,0.122 -0.208,0 -0.064,0.198 z"/><path id="path40" style="fill:#ebc200" d="m 15.9917,22.1772 -0.064,-0.198 -0.208,0 0.168,-0.122 -0.064,-0.199 0.168,0.123 0.168,-0.123 -0.064,0.199 0.168,0.122 -0.208,0 -0.064,0.198 z"/><path id="path41" style="fill:#ebc200" d="m 15.2417,21.4302 -0.064,-0.198 -0.208,0 0.168,-0.122 -0.064,-0.199 0.168,0.123 0.168,-0.123 -0.064,0.199 0.168,0.122 -0.208,0 -0.064,0.198 z"/></g></g></g></g></svg>