<svg xmlns:dc="http://purl.org/dc/elements/1.1/" xmlns:cc="http://creativecommons.org/ns#" xmlns:rdf="http://www.w3.org/1999/02/22-rdf-syntax-ns#" xmlns:svg="http://www.w3.org/2000/svg" xmlns="http://www.w3.org/2000/svg" viewBox="0 0 45 45" style="enable-background:new 0 0 45 45;" xml:space="preserve" version="1.1" id="svg2"><metadata id="metadata8"><rdf:RDF><cc:Work rdf:about=""><dc:format>image/svg+xml</dc:format><dc:type rdf:resource="http://purl.org/dc/dcmitype/StillImage"/></cc:Work></rdf:RDF></metadata><defs id="defs6"><clipPath id="clipPath16" clipPathUnits="userSpaceOnUse"><path id="path18" d="M 0,36 36,36 36,0 0,0 0,36 Z"/></clipPath></defs><g transform="matrix(1.25,0,0,-1.25,0,45)" id="g10"><g id="g12"><g clip-path="url(#clipPath16)" id="g14"><g id="g20"><path id="path22" style="fill:#0035ad;fill-opacity:1;fill-rule:nonzero;stroke:none" d="m 36,27 c 0,2.21 -1.79,4 -4,4 H 4 C 1.79,31 0,29.21 0,27 V 9 C 0,6.79 1.79,5 4,5 h 28 c 2.21,0 4,1.79 4,4 z"/></g><g id="g24"><path id="path26" style="fill:#eac102;fill-opacity:1;fill-rule:nonzero;stroke:none" d="m 17.8882,23.9292 -0.235,0.362 h -0.065 l -0.109,0.65 0.359,0.226 v 1.568 l -0.382,-0.023 -0.112,-0.121 -0.088,-0.838 -0.144,-0.018 -0.109,0.929 -0.445,-0.049 -0.07,-0.083 0.018,-0.838 -0.218,-0.044 -0.227,0.905 -0.326,-0.038 -0.085,-0.079 0.174,-1.462 0.455,-0.109 0.05,-0.694 h -0.106 l -0.014,-0.311 -0.5,-0.047 -0.28,0.182 -0.062,-0.018 -0.238,0.624 0.315,0.282 -0.3,1.541 -0.371,-0.091 -0.082,-0.144 0.068,-0.838 -0.133,-0.042 -0.288,0.892 -0.432,-0.132 -0.05,-0.1 0.176,-0.827 -0.206,-0.07 -0.394,0.837 -0.315,-0.093 -0.07,-0.097 0.453,-1.406 0.468,-0.01 0.376,-1.385 c 0,0 -0.147,-0.112 -0.147,-0.323 0,-0.177 0.182,-0.262 0.182,-0.262 l 0.15,-0.715 c 0,0 -0.017,-0.041 -0.017,-0.088 0,-0.047 0.02,-0.135 0.02,-0.135 h -0.753 v -5.861 c 0,-2.19 1.65,-4.26 4.221,-4.26 2.57,0 4.221,2.07 4.221,4.26 v 5.861 h -0.753 c 0,0 0.02,0.088 0.02,0.135 0,0.047 -0.017,0.088 -0.017,0.088 l 0.149,0.715 c 0,0 0.183,0.085 0.183,0.262 0,0.211 -0.147,0.323 -0.147,0.323 l 0.376,1.385 0.468,0.01 0.453,1.406 -0.07,0.097 -0.316,0.093 -0.393,-0.837 -0.206,0.07 0.176,0.827 -0.05,0.1 -0.432,0.132 -0.289,-0.892 -0.132,0.042 0.067,0.838 -0.082,0.144 -0.371,0.091 -0.3,-1.541 0.315,-0.282 -0.237,-0.624 -0.063,0.018 -0.279,-0.182 -0.5,0.047 -0.015,0.311 h -0.105 l 0.05,0.694 0.456,0.109 0.172,1.462 -0.085,0.079 -0.326,0.038 -0.226,-0.905 -0.218,0.044 0.018,0.838 -0.071,0.083 -0.444,0.049 -0.109,-0.929 -0.144,0.018 -0.088,0.838 -0.112,0.121 -0.383,0.023 v -1.568 l 0.359,-0.226 -0.109,-0.65 h -0.064 l -0.235,-0.362 z"/></g><g id="g28"><path id="path30" style="fill:#808080;fill-opacity:1;fill-rule:nonzero;stroke:none" d="m 14.8291,16.5645 v -0.828 c 0,-1.556 1.111,-3.21 3.171,-3.21 2.059,0 3.171,1.654 3.171,3.21 v 0.828 l -3.171,-1.826 z"/></g><g id="g32"><path id="path34" style="fill:#008f4c;fill-opacity:1;fill-rule:nonzero;stroke:none" d="m 18,20.147 v -5.409 l 3.171,1.826 v 3.583 z"/></g><g id="g36"><path id="path38" style="fill:#0071bc;fill-opacity:1;fill-rule:nonzero;stroke:none" d="M 18,20.147 H 14.829 V 16.564 L 18,14.738 Z"/></g><g id="g40"><path id="path50" style="fill:#0071bc;fill-opacity:1;fill-rule:nonzero;stroke:none" d="m 19.8906,21.2158 0.098,-0.315 0.33,0.004 -0.27,-0.19 0.107,-0.313 -0.265,0.197 -0.265,-0.197 0.107,0.313 -0.27,0.19 0.33,-0.004 z"/><path id="path51" style="fill:#0071bc;fill-opacity:1;fill-rule:nonzero;stroke:none" d="m 21.7471,18.2871 0.099,-0.315 0.33,0.004 -0.27,-0.19 0.106,-0.313 -0.265,0.197 -0.265,-0.197 0.107,0.313 -0.27,0.19 0.33,-0.004 z"/><path id="path52" style="fill:#0071bc;fill-opacity:1;fill-rule:nonzero;stroke:none" d="m 21.6455,15.3535 0.098,-0.315 0.33,0.004 -0.27,-0.19 0.107,-0.312 -0.265,0.197 -0.265,-0.197 0.107,0.312 -0.27,0.19 0.33,-0.004 z"/><path id="path53" style="fill:#0071bc;fill-opacity:1;fill-rule:nonzero;stroke:none" d="m 16.1094,21.2158 -0.098,-0.315 -0.33,0.004 0.269,-0.19 -0.106,-0.313 0.265,0.197 0.265,-0.197 -0.106,0.313 0.269,0.19 -0.33,-0.004 z"/><path id="path54" style="fill:#0071bc;fill-opacity:1;fill-rule:nonzero;stroke:none" d="m 14.2524,18.2871 -0.098,-0.315 -0.33,0.004 0.27,-0.19 -0.107,-0.313 0.265,0.197 0.265,-0.197 -0.106,0.313 0.269,0.19 -0.33,-0.004 z"/><path id="path55" style="fill:#0071bc;fill-opacity:1;fill-rule:nonzero;stroke:none" d="m 14.3545,15.3535 -0.098,-0.315 -0.33,0.004 0.269,-0.19 -0.106,-0.312 0.265,0.197 0.265,-0.197 -0.106,0.312 0.269,0.19 -0.33,-0.004 z"/><path id="path56" style="fill:#0071bc;fill-opacity:1;fill-rule:nonzero;stroke:none" d="m 18,11.7461 -0.265,-0.197 0.106,0.312 -0.269,0.191 0.33,-0.004 0.098,0.314 0.098,-0.314 0.33,0.004 -0.269,-0.191 0.106,-0.312 z"/></g></g></g></g></svg>