<svg xmlns:dc="http://purl.org/dc/elements/1.1/" xmlns:cc="http://creativecommons.org/ns#" xmlns:rdf="http://www.w3.org/1999/02/22-rdf-syntax-ns#" xmlns:svg="http://www.w3.org/2000/svg" xmlns="http://www.w3.org/2000/svg" viewBox="0 0 45 45" style="enable-background:new 0 0 45 45;" xml:space="preserve" version="1.1" id="svg2"><metadata id="metadata8"><rdf:RDF><cc:Work rdf:about=""><dc:format>image/svg+xml</dc:format><dc:type rdf:resource="http://purl.org/dc/dcmitype/StillImage"/></cc:Work></rdf:RDF></metadata><defs id="defs6"><clipPath id="clipPath16" clipPathUnits="userSpaceOnUse"><path id="path18" d="M 0,36 36,36 36,0 0,0 0,36 Z"/></clipPath></defs><g transform="matrix(1.25,0,0,-1.25,0,45)" id="g10"><g id="g12"><g clip-path="url(#clipPath16)" id="g14"><g id="g20"><path id="path22" style="fill:#d4001c;fill-opacity:1;fill-rule:nonzero;stroke:none" d="M 36,9 C 36,6.791 34.209,5 32,5 H 4 C 1.791,5 0,6.791 0,9 v 18 c 0,2.209 1.791,4 4,4 h 28 c 2.209,0 4,-1.791 4,-4 z"/></g><g id="g24"><path id="path26" style="fill:#fddd00;fill-opacity:1;fill-rule:nonzero;stroke:none" d="m 25.7305,16.7695 c -0.29,-0.439 -0.5,-0.979 -0.65,-1.42 -0.531,0.381 -1.321,0.891 -2.14,1.231 -1.94,0.799 -3.771,0.9 -3.851,0.9 l -0.599,0.029 0.029,-0.599 c 0,-0.08 0.101,-1.911 0.9,-3.851 0.34,-0.819 0.85,-1.609 1.231,-2.14 -0.441,-0.15 -0.981,-0.36 -1.42,-0.65 -0.521,-0.329 -0.94,-0.699 -1.23,-0.989 -0.291,0.29 -0.71,0.66 -1.23,0.989 -0.44,0.29 -0.98,0.5 -1.411,0.65 0.371,0.531 0.881,1.321 1.221,2.14 0.81,1.94 0.9,3.771 0.9,3.851 l 0.029,0.599 -0.599,-0.029 c -0.08,0 -1.91,-0.101 -3.85,-0.9 -0.82,-0.34 -1.61,-0.85 -2.141,-1.22 -0.149,0.43 -0.359,0.97 -0.649,1.409 -0.331,0.521 -0.701,0.94 -0.99,1.23 0.289,0.291 0.659,0.71 0.99,1.23 0.29,0.44 0.5,0.98 0.649,1.411 0.531,-0.371 1.321,-0.881 2.141,-1.221 1.94,-0.81 3.77,-0.9 3.85,-0.9 l 0.599,-0.029 -0.029,0.599 c 0,0.08 -0.09,1.91 -0.9,3.85 -0.34,0.82 -0.85,1.61 -1.221,2.141 0.431,0.149 0.971,0.359 1.411,0.649 0.52,0.331 0.939,0.701 1.23,0.99 0.29,-0.289 0.709,-0.659 1.23,-0.99 0.439,-0.29 0.979,-0.5 1.409,-0.649 -0.37,-0.531 -0.88,-1.321 -1.22,-2.141 -0.799,-1.94 -0.9,-3.77 -0.9,-3.85 l -0.029,-0.599 0.599,0.029 c 0.08,0 1.911,0.09 3.851,0.9 0.819,0.34 1.609,0.85 2.14,1.23 0.15,-0.44 0.36,-0.98 0.65,-1.42 0.329,-0.52 0.699,-0.939 0.989,-1.23 -0.29,-0.29 -0.66,-0.709 -0.989,-1.23 m 3.119,2.11 c -0.38,0 -0.699,-0.239 -0.819,-0.58 l -0.16,0.131 c -0.01,0 -0.68,0.549 -1.22,1.389 -0.471,0.73 -0.721,1.85 -0.731,1.861 l -0.089,0.4 c 0.019,-0.011 0.03,-0.011 0.049,-0.011 0.491,0 0.88,0.39 0.88,0.881 0,0.489 -0.389,0.88 -0.88,0.88 -0.49,0 -0.879,-0.391 -0.879,-0.88 0,-0.29 0.139,-0.551 0.36,-0.701 l -0.32,-0.259 c -0.01,-0.011 -1.26,-1.031 -2.531,-1.551 -1.09,-0.46 -2.17,-0.67 -2.83,-0.759 0.09,0.659 0.301,1.739 0.761,2.829 0.519,1.26 1.54,2.521 1.55,2.531 l 0.26,0.31 c 0.15,-0.21 0.41,-0.351 0.7,-0.351 0.49,0 0.88,0.391 0.88,0.88 0,0.491 -0.39,0.88 -0.88,0.88 -0.491,0 -0.88,-0.389 -0.88,-0.88 0,-0.02 0,-0.029 0.01,-0.049 l -0.401,0.089 c -0.01,0.011 -1.12,0.261 -1.859,0.73 -0.84,0.54 -1.39,1.21 -1.39,1.221 l -0.131,0.16 c 0.34,0.119 0.58,0.439 0.58,0.82 0,0.489 -0.389,0.879 -0.879,0.879 -0.491,0 -0.88,-0.39 -0.88,-0.879 0,-0.381 0.239,-0.701 0.58,-0.82 l -0.131,-0.16 c 0,-0.011 -0.549,-0.67 -1.389,-1.221 -0.73,-0.469 -1.85,-0.719 -1.861,-0.73 l -0.4,-0.089 c 0.011,0.02 0.011,0.029 0.011,0.049 0,0.491 -0.39,0.88 -0.881,0.88 -0.489,0 -0.88,-0.389 -0.88,-0.88 0,-0.489 0.391,-0.88 0.88,-0.88 0.29,0 0.551,0.141 0.701,0.36 l 0.259,-0.319 c 0.011,-0.01 1.031,-1.271 1.551,-2.531 0.46,-1.09 0.67,-2.17 0.759,-2.829 -0.659,0.089 -1.73,0.299 -2.829,0.759 -1.26,0.52 -2.521,1.54 -2.531,1.551 l -0.319,0.259 c 0.219,0.15 0.36,0.411 0.36,0.701 0,0.489 -0.391,0.88 -0.88,0.88 -0.491,0 -0.88,-0.391 -0.88,-0.88 0,-0.491 0.389,-0.881 0.88,-0.881 0.02,0 0.029,0 0.049,0.011 l -0.089,-0.4 c -0.011,-0.011 -0.261,-1.131 -0.73,-1.861 -0.54,-0.84 -1.21,-1.389 -1.221,-1.389 l -0.16,-0.131 c -0.119,0.341 -0.439,0.58 -0.82,0.58 -0.489,0 -0.879,-0.389 -0.879,-0.88 0,-0.49 0.39,-0.879 0.879,-0.879 0.381,0 0.701,0.24 0.82,0.58 l 0.16,-0.131 c 0.011,0 0.67,-0.55 1.221,-1.39 0.469,-0.729 0.719,-1.849 0.73,-1.859 l 0.089,-0.401 c -0.02,0.01 -0.029,0.01 -0.049,0.01 -0.491,0 -0.88,-0.389 -0.88,-0.88 0,-0.49 0.389,-0.88 0.88,-0.88 0.489,0 0.88,0.39 0.88,0.88 0,0.29 -0.141,0.55 -0.351,0.7 l 0.31,0.26 c 0.01,0.01 1.26,1.031 2.531,1.55 1.09,0.46 2.17,0.671 2.829,0.761 -0.089,-0.66 -0.299,-1.74 -0.759,-2.83 -0.52,-1.26 -1.54,-2.521 -1.551,-2.531 l -0.259,-0.32 c -0.15,0.221 -0.411,0.36 -0.701,0.36 -0.489,0 -0.88,-0.389 -0.88,-0.879 0,-0.491 0.391,-0.88 0.88,-0.88 0.491,0 0.881,0.389 0.881,0.88 0,0.019 0,0.03 -0.011,0.049 l 0.4,-0.089 c 0.011,-0.01 1.131,-0.26 1.861,-0.731 0.84,-0.54 1.389,-1.21 1.389,-1.22 l 0.131,-0.16 c -0.341,-0.12 -0.58,-0.439 -0.58,-0.819 0,-0.49 0.389,-0.881 0.88,-0.881 0.49,0 0.879,0.391 0.879,0.881 0,0.38 -0.24,0.699 -0.58,0.819 l 0.131,0.16 c 0,0.01 0.56,0.68 1.39,1.22 0.729,0.471 1.849,0.721 1.859,0.731 l 0.401,0.089 c -0.01,-0.019 -0.01,-0.03 -0.01,-0.049 0,-0.491 0.389,-0.88 0.88,-0.88 0.49,0 0.88,0.389 0.88,0.88 0,0.49 -0.39,0.879 -0.88,0.879 -0.29,0 -0.55,-0.139 -0.7,-0.349 l -0.26,0.309 c -0.01,0.01 -1.031,1.26 -1.55,2.531 -0.46,1.09 -0.671,2.17 -0.761,2.83 0.66,-0.09 1.74,-0.301 2.83,-0.761 1.26,-0.519 2.521,-1.54 2.531,-1.55 l 0.32,-0.26 c -0.221,-0.15 -0.36,-0.41 -0.36,-0.7 0,-0.49 0.389,-0.88 0.879,-0.88 0.491,0 0.88,0.39 0.88,0.88 0,0.491 -0.389,0.88 -0.88,0.88 -0.019,0 -0.03,0 -0.049,-0.01 l 0.089,0.401 c 0.01,0.01 0.26,1.13 0.731,1.859 0.54,0.83 1.21,1.39 1.22,1.39 l 0.16,0.131 c 0.12,-0.34 0.439,-0.58 0.819,-0.58 0.49,0 0.881,0.389 0.881,0.879 0,0.491 -0.391,0.88 -0.881,0.88"/></g></g></g></g></svg>