<svg xmlns:dc="http://purl.org/dc/elements/1.1/" xmlns:cc="http://creativecommons.org/ns#" xmlns:rdf="http://www.w3.org/1999/02/22-rdf-syntax-ns#" xmlns:svg="http://www.w3.org/2000/svg" xmlns="http://www.w3.org/2000/svg" viewBox="0 0 45 45" style="enable-background:new 0 0 45 45;" xml:space="preserve" version="1.1" id="svg2"><metadata id="metadata8"><rdf:RDF><cc:Work rdf:about=""><dc:format>image/svg+xml</dc:format><dc:type rdf:resource="http://purl.org/dc/dcmitype/StillImage"/></cc:Work></rdf:RDF></metadata><defs id="defs6"><clipPath id="clipPath16" clipPathUnits="userSpaceOnUse"><path id="path18" d="M 0,36 36,36 36,0 0,0 0,36 Z"/></clipPath></defs><g transform="matrix(1.25,0,0,-1.25,0,45)" id="g10"><g id="g12"><g xmlns="http://www.w3.org/2000/svg" clip-path="url(#clipPath16)" id="g14"><g id="g30"><path id="path20" style="fill:#002a86;fill-opacity:1;fill-rule:nonzero;stroke:none" d="m 36,9 0,18 c 0,2.209 -1.791,4 -4,4 L 4,31 C 1.791,31 0,29.209 0,27 L 0,9 C 0,6.791 1.791,5 4,5 l 28,0 c 2.209,0 4,1.791 4,4"/></g><g id="g34"><path id="path30" style="fill:#ffcc00;fill-opacity:1;fill-rule:nonzero;stroke:none" d="m 7.3125,18 c 0,5.902 4.785,10.688 10.688,10.688 5.902,0 10.687,-4.786 10.687,-10.688 0,-5.902 -4.785,-10.688 -10.687,-10.688 -5.903,0 -10.688,4.786 -10.688,10.688"/><path id="path31" style="fill:#002a86;fill-opacity:1;fill-rule:nonzero;stroke:none" d="m 8.3125,18 c 0,5.35 4.337,9.688 9.688,9.688 5.35,0 9.687,-4.338 9.687,-9.688 0,-5.351 -4.337,-9.688 -9.687,-9.688 -5.351,0 -9.688,4.337 -9.688,9.688"/><path id="path32" style="fill:#ffcc00;fill-opacity:1;fill-rule:nonzero;stroke:none" d="m 9.7656,18 c 0,4.548 3.687,8.234 8.234,8.234 4.548,0 8.235,-3.686 8.235,-8.234 0,-4.548 -3.687,-8.234 -8.235,-8.234 -4.547,0 -8.234,3.686 -8.234,8.234"/><path id="path33" style="fill:#002a86;fill-opacity:1;fill-rule:nonzero;stroke:none" d="m 10.5728,18 c 0,4.102 3.325,7.427 7.427,7.427 4.102,0 7.427,-3.325 7.427,-7.427 0,-4.102 -3.325,-7.427 -7.427,-7.427 -4.102,0 -7.427,3.325 -7.427,7.427"/><path id="path34" style="fill:#ffcc00;fill-opacity:1;fill-rule:nonzero;stroke:none" d="m 21.8125,11.625 c 1.242,0.744 2.249,1.842 2.881,3.152 l -1.381,0.494 -0.833,1.229 -2.042,-1.167 1.208,-2.125 -1.166,-1.166 1.333,-0.417 z"/><path id="path35" style="fill:#ffcc00;fill-opacity:1;fill-rule:nonzero;stroke:none" d="m 12.3242,17.5176 0.305,0 0,-0.3 0.553,0 0.259,-0.471 0,-0.717 -0.506,-0.153 -1.423,0.153 0,0.612 0.329,0.576 0.483,0 0,0.3 z"/><path id="path36" style="fill:#ffcc00;fill-opacity:1;fill-rule:nonzero;stroke:none" d="m 16.7954,10.6699 c 0.392,-0.063 0.794,-0.097 1.205,-0.097 0.217,0 0.433,0.009 0.646,0.028 l 0.208,2.566 0.916,0.541 -1.82,0 -0.117,0.688 0.709,0.667 -0.146,1.292 -0.446,0.333 0.321,1.312 -0.896,0.101 -0.375,-0.413 0.166,-0.667 -1.041,-0.188 0.312,1.417 -0.25,-0.041 -0.646,-1.626 0.271,-0.52 0.417,-0.063 -0.354,-1.979 0.146,-1.666 0.812,-0.355 -0.038,-1.33 z"/><path id="path37" style="fill:#ffcc00;fill-opacity:1;fill-rule:nonzero;stroke:none" d="m 24.5,21.3125 -3.406,-1.281 -8.438,0 -1.445,0.985 c -0.41,-0.922 -0.638,-1.942 -0.638,-3.017 l 4.364,0.313 0,0.719 3.594,0 3.438,-1.938 3.458,0.906 c 0,1.194 -0.281,2.322 -0.781,3.321"/><path id="path38" style="fill:#ffcc00;fill-opacity:1;fill-rule:nonzero;stroke:none" d="m 13.9058,22.6885 -0.229,0.735 c 0,0 0.182,0.182 1.223,0.5 1.042,0.318 1.371,0.318 1.371,0.318 0,0 0.239,-0.092 0.441,-0.241 0.203,-0.15 0.23,-0.253 0.23,-0.253 0,0 -0.1,-0.242 -1.302,-0.465 -1.056,-0.196 -1.734,-0.594 -1.734,-0.594"/><path id="path39" style="fill:#ffcc00;fill-opacity:1;fill-rule:nonzero;stroke:none" d="m 13.7354,22.7939 0.112,-0.206 0.635,-0.135 c 0,0 -0.282,-0.153 -0.859,-0.335 -0.576,-0.183 -1.108,-0.539 -1.108,-0.539 0,0 -0.008,0.044 0.081,0.182 0.086,0.135 0.22,0.293 0.22,0.293 0,0 -0.207,0.043 -0.349,0.014 -0.141,-0.03 -0.323,0 -0.323,0 0,0 0.175,0.185 0.763,0.452 0.589,0.266 0.828,0.274 0.828,0.274"/><path id="path40" style="fill:#ffcc00;fill-opacity:1;fill-rule:nonzero;stroke:none" d="m 18,24.5649 c 0.87,0 1.765,-0.188 1.765,-0.188 l 0.194,0.646 c 0,0 -0.564,0.224 -1.959,0.224 -1.394,0 -1.959,-0.224 -1.959,-0.224 l 0.194,-0.646 c 0,0 0.894,0.188 1.765,0.188"/><path id="path41" style="fill:#ffcc00;fill-opacity:1;fill-rule:nonzero;stroke:none" d="m 22.0938,22.6885 0.229,0.735 c 0,0 -0.181,0.182 -1.223,0.5 -1.041,0.318 -1.37,0.318 -1.37,0.318 0,0 -0.239,-0.092 -0.442,-0.241 -0.202,-0.15 -0.229,-0.253 -0.229,-0.253 0,0 0.1,-0.242 1.302,-0.465 1.055,-0.196 1.733,-0.594 1.733,-0.594"/><path id="path42" style="fill:#ffcc00;fill-opacity:1;fill-rule:nonzero;stroke:none" d="m 22.2646,22.7939 -0.111,-0.206 -0.636,-0.135 c 0,0 0.282,-0.153 0.859,-0.335 0.576,-0.183 1.108,-0.539 1.108,-0.539 0,0 0.008,0.044 -0.08,0.182 -0.087,0.135 -0.221,0.293 -0.221,0.293 0,0 0.208,0.043 0.349,0.014 0.141,-0.03 0.323,0 0.323,0 0,0 -0.175,0.185 -0.764,0.452 -0.588,0.266 -0.827,0.274 -0.827,0.274"/></g><g id="g38"><path id="path50" style="fill:#ffcc00;fill-opacity:1;fill-rule:nonzero;stroke:none" d="m 13.3208,10.6426 -0.003,0.003 -0.569,-0.407 -0.098,0.067 0.176,0.675 -0.004,10e-4 -0.207,-0.331 -0.079,-0.115 0.069,-0.069 -0.061,-0.088 -0.303,0.208 0.06,0.088 0.089,-0.038 0.361,0.526 -0.068,0.068 0.061,0.089 0.078,-0.054 0.192,-0.132 -0.185,-0.668 0.003,-0.002 0.56,0.41 0.27,-0.185 -0.061,-0.089 -0.089,0.039 -0.361,-0.525 0.068,-0.07 -0.061,-0.088 -0.303,0.208 0.061,0.088 0.088,-0.038 0.079,0.116 0.237,0.313 z"/><path id="path51" style="fill:#ffcc00;fill-opacity:1;fill-rule:nonzero;stroke:none" d="m 13.9458,9.9639 0.183,-0.09 0.048,0.325 -0.003,10e-4 -0.228,-0.236 z m -0.406,-0.096 0.061,-0.019 0.583,0.574 0.164,-0.08 -0.099,-0.813 0.053,-0.036 -0.047,-0.095 -0.272,0.133 0.047,0.096 0.061,-0.018 0.018,0.127 -0.259,0.127 -0.088,-0.092 0.05,-0.037 -0.047,-0.096 -0.272,0.134 0.047,0.095 z"/><path id="path52" style="fill:#ffcc00;fill-opacity:1;fill-rule:nonzero;stroke:none" d="m 15,9.6475 0.117,-0.04 c 0.047,-0.016 0.085,-0.019 0.115,-0.006 0.031,0.012 0.053,0.036 0.065,0.074 0.014,0.038 0.012,0.073 -0.004,0.103 -0.015,0.03 -0.046,0.054 -0.091,0.069 l -0.12,0.04 L 15,9.6475 z m 0.246,0.33 c 0.096,-0.033 0.163,-0.08 0.203,-0.143 0.039,-0.062 0.046,-0.131 0.019,-0.208 -0.014,-0.042 -0.038,-0.076 -0.072,-0.099 -0.033,-0.024 -0.075,-0.037 -0.125,-0.042 0.044,-0.031 0.072,-0.067 0.082,-0.109 0.01,-0.041 0.006,-0.087 -0.011,-0.138 l -0.014,-0.043 c -0.007,-0.019 -0.008,-0.034 -0.004,-0.047 0.004,-0.013 0.013,-0.022 0.03,-0.03 l 0.02,-0.01 -0.035,-0.102 -0.087,0.03 c -0.055,0.018 -0.089,0.047 -0.101,0.084 -0.012,0.037 -0.01,0.08 0.006,0.127 l 0.016,0.047 c 0.014,0.041 0.014,0.077 0,0.108 -0.014,0.03 -0.04,0.053 -0.079,0.067 l -0.138,0.048 -0.076,-0.222 0.084,-0.048 -0.034,-0.101 -0.349,0.119 0.035,0.101 0.095,-0.013 0.206,0.604 -0.083,0.047 0.035,0.102 0.089,-0.031 0.288,-0.098 z"/><path id="path53" style="fill:#ffcc00;fill-opacity:1;fill-rule:nonzero;stroke:none" d="m 16.5171,9.3379 -0.129,0.028 0.006,0.119 c -0.013,0.021 -0.032,0.04 -0.056,0.055 -0.024,0.016 -0.053,0.027 -0.089,0.034 -0.076,0.017 -0.14,10e-4 -0.192,-0.045 -0.053,-0.045 -0.088,-0.113 -0.107,-0.202 l -0.007,-0.03 c -0.018,-0.088 -0.013,-0.164 0.015,-0.229 0.029,-0.063 0.081,-0.103 0.155,-0.119 0.034,-0.007 0.067,-0.009 0.097,-0.006 0.031,0.004 0.056,0.013 0.075,0.028 l 0.042,0.111 0.13,-0.027 -0.037,-0.172 c -0.044,-0.033 -0.095,-0.056 -0.154,-0.068 -0.06,-0.013 -0.124,-0.012 -0.19,0.002 -0.117,0.025 -0.204,0.085 -0.261,0.182 -0.058,0.097 -0.073,0.208 -0.046,0.335 l 0.006,0.029 c 0.027,0.126 0.086,0.222 0.178,0.287 0.091,0.066 0.195,0.086 0.313,0.061 0.067,-0.014 0.125,-0.039 0.174,-0.075 0.049,-0.036 0.087,-0.078 0.114,-0.125 l -0.037,-0.173 z"/><path id="path54" style="fill:#ffcc00;fill-opacity:1;fill-rule:nonzero;stroke:none" d="m 16.8262,9.4805 0.009,0.107 0.367,-0.031 -0.009,-0.106 -0.096,-0.011 -0.022,-0.255 0.361,-0.03 0.022,0.255 -0.093,0.026 0.008,0.107 0.095,-0.007 0.177,-0.016 0.095,-0.008 -0.009,-0.106 -0.096,-0.011 -0.054,-0.636 0.094,-0.025 -0.009,-0.107 -0.367,0.031 0.009,0.106 0.097,0.011 0.02,0.243 -0.361,0.03 -0.021,-0.244 0.094,-0.025 -0.009,-0.107 -0.367,0.031 0.009,0.106 0.096,0.011 0.053,0.636 -0.093,0.025 z"/><path id="path55" style="fill:#ffcc00;fill-opacity:1;fill-rule:nonzero;stroke:none" d="m 18.4844,8.749 0.148,0.03 -0.046,0.6 -0.152,-0.012 -0.008,0.102 0.325,0.085 0.058,-0.761 0.152,-0.007 0.007,-0.106 -0.476,-0.037 -0.008,0.106 z"/><path id="path56" style="fill:#ffcc00;fill-opacity:1;fill-rule:nonzero;stroke:none" d="m 19.5264,9.5332 -0.076,-0.012 -0.025,0.069 c -0.009,0.005 -0.023,0.006 -0.042,0.008 -0.017,0.002 -0.036,10e-4 -0.054,-0.002 -0.029,-0.003 -0.049,-0.013 -0.063,-0.027 -0.013,-0.015 -0.019,-0.031 -0.016,-0.05 0.003,-0.017 0.013,-0.03 0.031,-0.039 0.017,-0.009 0.047,-0.016 0.088,-0.022 0.059,-0.007 0.105,-0.022 0.138,-0.043 0.034,-0.021 0.053,-0.053 0.06,-0.095 0.007,-0.044 -0.006,-0.081 -0.036,-0.111 -0.031,-0.031 -0.074,-0.051 -0.132,-0.06 -0.04,-0.006 -0.078,-0.005 -0.112,0.003 -0.035,0.008 -0.065,0.022 -0.09,0.041 l -0.017,0.107 0.079,0.012 0.023,-0.071 c 0.012,-0.007 0.026,-0.012 0.045,-0.015 0.018,-0.003 0.039,-0.003 0.06,10e-4 0.029,0.004 0.049,0.014 0.062,0.028 0.013,0.013 0.017,0.03 0.015,0.049 -0.003,0.019 -0.012,0.035 -0.029,0.044 -0.015,0.01 -0.041,0.017 -0.078,0.023 -0.063,0.008 -0.112,0.021 -0.147,0.041 -0.036,0.019 -0.056,0.05 -0.062,0.092 -0.007,0.042 0.006,0.078 0.036,0.11 0.031,0.031 0.073,0.052 0.127,0.061 0.039,0.005 0.076,0.005 0.111,-10e-4 0.034,-0.007 0.063,-0.019 0.088,-0.036 l 0.016,-0.105 z"/><path id="path57" style="fill:#ffcc00;fill-opacity:1;fill-rule:nonzero;stroke:none" d="m 20.084,9.8223 0.03,-0.135 -0.078,-0.017 -0.016,0.055 -0.093,-0.02 0.079,-0.357 0.057,0.002 0.013,-0.06 -0.21,-0.047 -0.013,0.06 0.051,0.023 -0.079,0.356 -0.093,-0.02 0.009,-0.058 -0.078,-0.017 -0.029,0.134 0.45,0.101 z"/><path id="path58" style="fill:#ffcc00;fill-opacity:1;fill-rule:nonzero;stroke:none" d="m 20.9473,9.2139 0.135,0.068 -0.206,0.566 -0.143,-0.052 -0.035,0.096 0.29,0.169 0.261,-0.718 0.147,0.034 0.036,-0.101 -0.449,-0.163 -0.036,0.101 z"/><path id="path59" style="fill:#ffcc00;fill-opacity:1;fill-rule:nonzero;stroke:none" d="m 22.0039,9.8096 c -0.018,0.036 -0.042,0.06 -0.073,0.071 -0.031,0.012 -0.064,0.01 -0.097,-0.006 -0.034,-0.015 -0.056,-0.039 -0.066,-0.07 -0.01,-0.032 -0.007,-0.065 0.009,-0.101 0.018,-0.038 0.042,-0.061 0.073,-0.073 0.03,-0.011 0.063,-0.008 0.097,0.007 0.034,0.016 0.056,0.039 0.067,0.07 0.011,0.032 0.007,0.066 -0.01,0.102 m -0.186,0.344 c -0.015,0.032 -0.036,0.054 -0.062,0.066 -0.026,0.012 -0.054,0.011 -0.083,-0.003 -0.029,-0.014 -0.048,-0.035 -0.055,-0.061 -0.008,-0.028 -0.004,-0.058 0.012,-0.091 0.017,-0.033 0.037,-0.056 0.062,-0.068 0.027,-0.012 0.054,-0.01 0.084,0.003 0.03,0.014 0.047,0.035 0.055,0.062 0.008,0.028 0.003,0.059 -0.013,0.092 m 0.159,0.083 c 0.018,-0.04 0.024,-0.08 0.017,-0.121 -0.007,-0.041 -0.024,-0.079 -0.053,-0.115 0.051,0.003 0.097,-0.007 0.137,-0.029 0.041,-0.021 0.072,-0.055 0.092,-0.098 0.034,-0.074 0.036,-0.142 0.005,-0.207 -0.031,-0.063 -0.088,-0.114 -0.17,-0.153 -0.081,-0.038 -0.157,-0.049 -0.227,-0.033 -0.069,0.016 -0.121,0.061 -0.156,0.136 -0.02,0.043 -0.026,0.088 -0.017,0.131 0.008,0.045 0.03,0.087 0.064,0.125 -0.046,0 -0.087,0.01 -0.122,0.032 -0.035,0.02 -0.063,0.051 -0.082,0.092 -0.033,0.071 -0.036,0.137 -0.008,0.198 0.028,0.061 0.081,0.11 0.157,0.146 0.077,0.036 0.148,0.046 0.213,0.029 0.066,-0.017 0.115,-0.062 0.15,-0.133"/><path id="path60" style="fill:#ffcc00;fill-opacity:1;fill-rule:nonzero;stroke:none" d="m 22.5918,10.3662 c -0.028,-0.018 -0.05,-0.036 -0.064,-0.058 -0.014,-0.02 -0.022,-0.042 -0.024,-0.064 l 0.03,-0.051 c 0.037,-0.06 0.076,-0.1 0.117,-0.12 0.041,-0.019 0.08,-0.018 0.116,0.004 0.032,0.018 0.048,0.049 0.05,0.089 0.002,0.04 -0.01,0.08 -0.035,0.121 -0.024,0.042 -0.054,0.071 -0.089,0.086 -0.036,0.014 -0.069,0.012 -0.101,-0.007 m -0.191,0.398 c 0.029,0.017 0.056,0.031 0.085,0.039 0.027,0.009 0.056,0.016 0.086,0.02 l 0.041,-0.127 c -0.027,-0.006 -0.05,-0.012 -0.072,-0.018 -0.02,-0.008 -0.043,-0.019 -0.067,-0.033 -0.045,-0.027 -0.072,-0.066 -0.079,-0.115 -0.008,-0.05 0.008,-0.107 0.046,-0.172 l 0.003,-0.002 c 0.006,0.029 0.02,0.056 0.04,0.081 0.02,0.027 0.046,0.049 0.079,0.069 0.068,0.041 0.136,0.048 0.204,0.023 0.067,-0.025 0.124,-0.075 0.169,-0.15 0.046,-0.077 0.059,-0.155 0.042,-0.234 -0.018,-0.078 -0.065,-0.139 -0.141,-0.185 -0.08,-0.048 -0.162,-0.06 -0.245,-0.036 -0.083,0.024 -0.154,0.085 -0.212,0.181 l -0.08,0.135 c -0.064,0.107 -0.087,0.208 -0.065,0.303 0.021,0.094 0.077,0.168 0.166,0.221"/><path id="path61" style="fill:#ffcc00;fill-opacity:1;fill-rule:nonzero;stroke:none" d="m 23.3965,11.2715 c -0.01,-0.146 0,-0.268 0.029,-0.366 0.031,-0.098 0.08,-0.206 0.15,-0.324 l 0.047,-0.079 -0.144,-0.106 -0.047,0.078 c -0.066,0.112 -0.114,0.227 -0.143,0.342 -0.029,0.114 -0.038,0.232 -0.03,0.353 l -0.251,-0.187 0.047,-0.074 -0.109,-0.082 -0.135,0.18 0.504,0.375 0.082,-0.11 z"/><path id="path62" style="fill:#ffcc00;fill-opacity:1;fill-rule:nonzero;stroke:none" d="m 10.5518,13.7451 c 0.04,-0.009 0.083,-0.031 0.132,-0.065 0.05,-0.036 0.097,-0.088 0.141,-0.16 0.064,-0.101 0.082,-0.206 0.055,-0.312 -0.028,-0.107 -0.097,-0.194 -0.205,-0.263 l -0.026,-0.015 c -0.113,-0.072 -0.224,-0.098 -0.334,-0.08 -0.111,0.019 -0.198,0.079 -0.262,0.18 -0.037,0.059 -0.061,0.118 -0.073,0.179 -0.011,0.06 -0.012,0.117 0,0.17 l 0.151,0.095 0.07,-0.112 -0.087,-0.084 c -0.003,-0.021 -10e-4,-0.046 0.006,-0.072 0.007,-0.027 0.02,-0.056 0.038,-0.085 0.042,-0.065 0.099,-0.102 0.17,-0.107 0.072,-0.006 0.146,0.015 0.225,0.065 l 0.027,0.017 c 0.076,0.047 0.126,0.104 0.149,0.169 0.023,0.064 0.013,0.13 -0.029,0.198 -0.019,0.03 -0.037,0.053 -0.054,0.068 -0.017,0.016 -0.032,0.027 -0.046,0.033 l -0.128,-0.08 0.06,-0.113 -0.106,-0.066 -0.163,0.258 0.289,0.182 z"/><path id="path63" style="fill:#ffcc00;fill-opacity:1;fill-rule:nonzero;stroke:none" d="m 9.9175,14.1123 -0.052,0.112 c -0.021,0.045 -0.046,0.075 -0.075,0.088 -0.03,0.014 -0.063,0.012 -0.099,-0.005 -0.036,-0.016 -0.06,-0.042 -0.071,-0.074 -0.012,-0.032 -0.007,-0.07 0.013,-0.113 l 0.054,-0.115 0.23,0.107 z m -0.408,-0.05 c -0.043,0.091 -0.055,0.173 -0.037,0.244 0.017,0.072 0.063,0.124 0.137,0.159 0.04,0.019 0.081,0.024 0.121,0.016 0.04,-0.008 0.079,-0.028 0.117,-0.062 -0.009,0.054 -10e-4,0.099 0.022,0.135 0.023,0.037 0.059,0.066 0.107,0.088 l 0.041,0.019 c 0.018,0.009 0.03,0.018 0.036,0.03 0.007,0.011 0.008,0.025 0.002,0.043 l -0.007,0.021 0.098,0.045 0.039,-0.084 c 0.024,-0.052 0.027,-0.096 0.008,-0.13 -0.018,-0.036 -0.05,-0.063 -0.095,-0.083 l -0.046,-0.022 c -0.039,-0.018 -0.065,-0.043 -0.077,-0.074 -0.013,-0.031 -0.011,-0.066 0.005,-0.105 l 0.062,-0.132 0.212,0.098 -0.023,0.095 0.097,0.045 0.155,-0.334 -0.097,-0.045 -0.056,0.078 -0.579,-0.268 0.023,-0.094 -0.097,-0.045 -0.04,0.086 -0.128,0.276 z"/><path id="path64" style="fill:#ffcc00;fill-opacity:1;fill-rule:nonzero;stroke:none" d="m 9.5,15.4961 0.091,-0.287 0.242,0.077 -0.087,0.273 -0.103,-0.024 -0.042,0.129 0.232,0.073 0.213,-0.67 -0.102,-0.032 -0.046,0.085 -0.607,-0.194 0.011,-0.096 -0.102,-0.032 -0.029,0.09 -0.185,0.579 0.232,0.073 0.042,-0.13 -0.099,-0.04 0.087,-0.27 0.212,0.067 -0.091,0.287 0.131,0.042 z"/><path id="path65" style="fill:#ffcc00;fill-opacity:1;fill-rule:nonzero;stroke:none" d="m 9.3257,16.29 -0.037,0.2 -0.29,-0.155 0.001,-0.003 0.326,-0.042 z m 0.318,-0.27 -0.02,0.062 -0.809,0.125 -0.033,0.18 0.711,0.404 -0.002,0.064 0.105,0.02 0.054,-0.298 -0.105,-0.019 -0.022,0.058 -0.113,-0.06 0.053,-0.284 0.127,-0.016 -0.001,0.062 0.105,0.02 0.055,-0.298 -0.105,-0.02 z"/><path id="path66" style="fill:#ffcc00;fill-opacity:1;fill-rule:nonzero;stroke:none" d="m 8.6377,17.7808 0.236,0.015 0.009,-0.137 -0.099,-0.013 0.011,-0.163 0.625,0.04 0.012,0.096 0.106,0.007 0.024,-0.368 -0.107,-0.007 -0.024,0.094 -0.625,-0.04 0.01,-0.162 0.1,-0.002 0.009,-0.136 -0.236,-0.015 -0.051,0.791 z"/><path id="path67" style="fill:#ffcc00;fill-opacity:1;fill-rule:nonzero;stroke:none" d="m 9.1382,19.9766 -0.024,-0.131 -0.125,-0.001 c -0.012,-0.014 -0.025,-0.034 -0.037,-0.062 -0.013,-0.028 -0.022,-0.058 -0.028,-0.091 -0.009,-0.048 -0.006,-0.087 0.009,-0.117 0.016,-0.03 0.039,-0.048 0.072,-0.054 0.029,-0.005 0.056,0.004 0.08,0.028 0.024,0.024 0.053,0.068 0.087,0.131 0.044,0.091 0.093,0.158 0.146,0.199 0.053,0.042 0.116,0.056 0.188,0.043 0.074,-0.013 0.128,-0.054 0.16,-0.121 0.033,-0.068 0.04,-0.15 0.022,-0.246 -0.013,-0.07 -0.035,-0.13 -0.068,-0.182 -0.032,-0.052 -0.071,-0.092 -0.117,-0.123 l -0.182,0.034 0.025,0.136 0.127,-0.005 c 0.018,0.016 0.035,0.037 0.049,0.065 0.015,0.029 0.026,0.062 0.033,0.099 0.009,0.048 0.006,0.086 -0.009,0.115 -0.015,0.029 -0.039,0.046 -0.072,0.052 -0.033,0.006 -0.063,0 -0.087,-0.02 -0.025,-0.02 -0.052,-0.059 -0.081,-0.115 -0.049,-0.098 -0.099,-0.17 -0.15,-0.216 -0.051,-0.045 -0.113,-0.062 -0.184,-0.048 -0.071,0.013 -0.124,0.053 -0.157,0.122 -0.034,0.068 -0.044,0.148 -0.028,0.239 0.013,0.067 0.034,0.126 0.064,0.178 0.031,0.051 0.067,0.093 0.108,0.124 l 0.179,-0.033 z"/><path id="path68" style="fill:#ffcc00;fill-opacity:1;fill-rule:nonzero;stroke:none" d="m 9.5996,20.8237 -0.09,-0.288 0.243,-0.075 0.085,0.274 -0.099,0.039 0.04,0.13 0.232,-0.073 -0.209,-0.671 -0.102,0.032 0.011,0.095 -0.609,0.19 -0.046,-0.085 -0.102,0.032 0.028,0.09 0.181,0.581 0.232,-0.073 -0.041,-0.131 -0.104,0.024 -0.084,-0.271 0.213,-0.067 0.09,0.288 0.131,-0.041 z"/><path id="path69" style="fill:#ffcc00;fill-opacity:1;fill-rule:nonzero;stroke:none" d="m 9.9175,21.5806 0.085,0.186 -0.327,0.039 -10e-4,-0.004 0.243,-0.221 z m 0.106,-0.403 0.018,0.062 -0.59,0.567 0.076,0.166 0.814,-0.078 0.035,0.055 0.097,-0.045 -0.126,-0.275 -0.097,0.044 0.016,0.061 -0.127,0.015 -0.12,-0.262 0.094,-0.086 0.036,0.051 0.097,-0.044 -0.126,-0.275 -0.097,0.044 z"/><path id="path70" style="fill:#ffcc00;fill-opacity:1;fill-rule:nonzero;stroke:none" d="m 10.6108,22.1553 -0.091,0.056 0.034,0.09 -0.543,0.334 -0.066,-0.07 -0.091,0.056 0.05,0.08 0.093,0.152 0.05,0.081 0.092,-0.056 -0.035,-0.091 0.533,-0.328 0.132,0.214 -0.091,0.065 0.072,0.116 0.212,-0.13 -0.351,-0.569 z"/><path id="path71" style="fill:#ffcc00;fill-opacity:1;fill-rule:nonzero;stroke:none" d="m 11.959,24.5654 c -0.064,0.066 -0.129,0.106 -0.197,0.121 -0.067,0.014 -0.128,-0.004 -0.181,-0.057 -0.054,-0.052 -0.075,-0.111 -0.061,-0.177 0.013,-0.067 0.052,-0.134 0.116,-0.2 l 0.011,-0.011 c 0.064,-0.067 0.13,-0.108 0.197,-0.123 0.066,-0.015 0.126,0.003 0.18,0.055 0.054,0.052 0.075,0.112 0.062,0.179 -0.013,0.067 -0.051,0.135 -0.117,0.202 l -0.01,0.011 z m 0.138,0.113 c 0.091,-0.093 0.139,-0.197 0.144,-0.31 0.006,-0.113 -0.034,-0.211 -0.121,-0.295 -0.086,-0.083 -0.185,-0.12 -0.297,-0.111 -0.113,0.01 -0.214,0.061 -0.304,0.155 l -0.01,0.01 c -0.09,0.093 -0.138,0.196 -0.145,0.308 -0.007,0.113 0.033,0.211 0.119,0.295 0.087,0.083 0.187,0.121 0.3,0.111 0.113,-0.009 0.215,-0.061 0.304,-0.153 l 0.01,-0.01 z"/><path id="path72" style="fill:#ffcc00;fill-opacity:1;fill-rule:nonzero;stroke:none" d="m 12.561,24.6411 0.064,0.071 -0.383,0.51 -0.087,-0.042 -0.065,0.085 0.565,0.426 0.147,-0.195 -0.11,-0.082 -0.069,0.081 -0.232,-0.175 0.147,-0.196 0.249,0.188 0.083,-0.11 -0.249,-0.187 0.147,-0.195 0.087,0.043 0.064,-0.086 -0.294,-0.221 -0.064,0.085 z"/><path id="path73" style="fill:#ffcc00;fill-opacity:1;fill-rule:nonzero;stroke:none" d="m 14.7671,26.7905 0.091,-0.218 -0.126,-0.053 -0.045,0.089 -0.151,-0.063 0.241,-0.578 0.094,0.02 0.042,-0.099 -0.341,-0.141 -0.041,0.098 0.081,0.053 -0.241,0.579 -0.15,-0.063 0.031,-0.095 -0.125,-0.052 -0.091,0.218 0.731,0.305 z"/><path id="path74" style="fill:#ffcc00;fill-opacity:1;fill-rule:nonzero;stroke:none" d="m 15.1685,26.8169 -0.028,0.104 0.356,0.095 0.027,-0.104 -0.087,-0.042 0.066,-0.248 0.351,0.093 -0.066,0.248 -0.097,-0.007 -0.028,0.104 0.092,0.025 0.172,0.045 0.092,0.025 0.027,-0.104 -0.087,-0.042 0.165,-0.616 0.096,0.007 0.028,-0.104 -0.356,-0.095 -0.027,0.104 0.087,0.042 -0.063,0.236 -0.35,-0.094 0.063,-0.235 0.096,0.006 0.028,-0.103 -0.355,-0.095 -0.028,0.103 0.087,0.043 -0.165,0.616 -0.096,-0.007 z"/><path id="path75" style="fill:#ffcc00;fill-opacity:1;fill-rule:nonzero;stroke:none" d="m 17.0415,26.8096 -0.298,-0.04 0.033,-0.251 0.284,0.038 -0.006,0.106 0.134,0.018 0.032,-0.241 -0.697,-0.092 -0.014,0.106 0.092,0.03 -0.084,0.633 -0.096,0.005 -0.014,0.107 0.093,0.012 0.603,0.08 0.032,-0.242 -0.136,-0.018 -0.022,0.104 -0.282,-0.037 0.03,-0.221 0.298,0.039 0.018,-0.136 z"/><path id="path76" style="fill:#ffcc00;fill-opacity:1;fill-rule:nonzero;stroke:none" d="m 19.3877,26.9727 -0.133,0.016 -0.009,0.123 c -0.013,0.012 -0.035,0.023 -0.064,0.034 -0.028,0.011 -0.06,0.018 -0.093,0.021 -0.048,0.006 -0.087,0 -0.115,-0.017 -0.029,-0.017 -0.046,-0.042 -0.05,-0.074 -0.003,-0.03 0.008,-0.057 0.033,-0.079 0.026,-0.023 0.072,-0.048 0.137,-0.078 0.094,-0.038 0.164,-0.082 0.209,-0.133 0.045,-0.05 0.064,-0.111 0.055,-0.184 -0.009,-0.075 -0.046,-0.131 -0.111,-0.168 -0.065,-0.037 -0.146,-0.049 -0.244,-0.038 -0.07,0.008 -0.132,0.027 -0.185,0.056 -0.054,0.028 -0.098,0.064 -0.13,0.108 l 0.021,0.184 0.137,-0.016 0.004,-0.127 c 0.017,-0.017 0.039,-0.032 0.068,-0.045 0.03,-0.013 0.063,-0.021 0.101,-0.026 0.049,-0.006 0.087,0 0.114,0.017 0.027,0.017 0.043,0.042 0.047,0.075 0.004,0.034 -0.005,0.062 -0.026,0.086 -0.022,0.023 -0.062,0.048 -0.12,0.073 -0.101,0.042 -0.176,0.088 -0.225,0.135 -0.049,0.048 -0.069,0.108 -0.061,0.181 0.008,0.071 0.046,0.126 0.112,0.165 0.066,0.038 0.144,0.052 0.236,0.043 0.068,-0.008 0.129,-0.025 0.183,-0.053 0.052,-0.027 0.096,-0.06 0.13,-0.098 l -0.021,-0.181 z"/><path id="path77" style="fill:#ffcc00;fill-opacity:1;fill-rule:nonzero;stroke:none" d="m 20.584,27.002 -0.056,-0.23 -0.132,0.032 0.016,0.098 -0.159,0.038 -0.147,-0.608 0.088,-0.04 -0.024,-0.104 -0.358,0.086 0.024,0.104 0.097,-0.004 0.146,0.608 -0.158,0.039 -0.03,-0.096 -0.132,0.032 0.054,0.231 0.771,-0.186 z"/><path id="path78" style="fill:#ffcc00;fill-opacity:1;fill-rule:nonzero;stroke:none" d="m 20.9541,26.333 0.191,-0.07 0.014,0.328 -0.003,10e-4 -0.202,-0.259 z m -0.394,-0.137 0.063,-0.013 0.52,0.631 0.171,-0.063 -0.014,-0.817 0.056,-0.031 -0.037,-0.1 -0.284,0.104 0.037,0.101 0.062,-0.011 0.006,0.128 -0.271,0.099 -0.079,-0.101 0.055,-0.031 -0.037,-0.101 -0.285,0.105 0.037,0.1 z"/><path id="path79" style="fill:#ffcc00;fill-opacity:1;fill-rule:nonzero;stroke:none" d="m 22.6016,26.1553 -0.108,-0.21 -0.121,0.062 0.038,0.091 -0.146,0.075 -0.284,-0.558 0.076,-0.06 -0.049,-0.095 -0.328,0.168 0.049,0.095 0.093,-0.027 0.285,0.558 -0.146,0.074 -0.051,-0.085 -0.121,0.061 0.107,0.211 0.706,-0.36 z"/><path id="path80" style="fill:#ffcc00;fill-opacity:1;fill-rule:nonzero;stroke:none" d="m 23.1396,25.2202 -0.249,0.169 -0.143,-0.21 0.238,-0.161 0.066,0.083 0.111,-0.076 -0.135,-0.201 -0.582,0.395 0.059,0.088 0.089,-0.038 0.359,0.528 -0.069,0.069 0.061,0.088 0.078,-0.053 0.503,-0.341 -0.137,-0.201 -0.113,0.077 0.052,0.092 -0.235,0.16 -0.125,-0.185 0.249,-0.169 -0.077,-0.114 z"/><path id="path81" style="fill:#ffcc00;fill-opacity:1;fill-rule:nonzero;stroke:none" d="m 24.8477,23.7197 c 0.069,0.061 0.112,0.125 0.131,0.191 0.017,0.067 0.001,0.128 -0.048,0.184 -0.05,0.057 -0.108,0.08 -0.175,0.069 -0.067,-0.009 -0.136,-0.045 -0.205,-0.107 l -0.011,-0.009 c -0.07,-0.062 -0.115,-0.126 -0.132,-0.192 -0.019,-0.066 -0.003,-0.126 0.045,-0.182 0.05,-0.057 0.11,-0.08 0.177,-0.071 0.069,0.01 0.137,0.045 0.207,0.107 l 0.011,0.01 z m 0.106,-0.143 c -0.097,-0.086 -0.202,-0.129 -0.315,-0.129 -0.113,-0.001 -0.21,0.044 -0.289,0.134 -0.079,0.09 -0.111,0.191 -0.097,0.303 0.015,0.111 0.072,0.21 0.169,0.296 l 0.01,0.009 c 0.097,0.086 0.202,0.129 0.314,0.131 0.114,0.001 0.209,-0.043 0.289,-0.134 0.08,-0.09 0.112,-0.191 0.097,-0.304 -0.014,-0.112 -0.07,-0.211 -0.167,-0.297 l -0.011,-0.009 z"/><path id="path82" style="fill:#ffcc00;fill-opacity:1;fill-rule:nonzero;stroke:none" d="m 24.8896,23.1201 0.068,-0.068 0.528,0.36 -0.038,0.088 0.088,0.06 0.399,-0.584 -0.201,-0.137 -0.077,0.113 0.083,0.066 -0.163,0.24 -0.203,-0.138 0.175,-0.257 -0.113,-0.077 -0.175,0.257 -0.202,-0.138 0.038,-0.089 -0.088,-0.06 -0.207,0.304 0.088,0.06 z"/><path id="path83" style="fill:#ffcc00;fill-opacity:1;fill-rule:nonzero;stroke:none" d="m 26.9756,20.688 -0.101,-0.036 -0.049,0.083 -0.719,-0.255 -0.06,0.168 0.445,0.538 -0.002,0.003 -0.446,-0.158 0.015,-0.095 -0.101,-0.036 -0.123,0.347 0.101,0.035 0.049,-0.083 0.6,0.214 -0.013,0.095 0.1,0.036 0.033,-0.089 0.059,-0.168 -0.444,-0.538 0.002,-0.004 0.445,0.158 -0.015,0.096 0.101,0.036 0.092,-0.258 0.031,-0.089 z"/><path id="path84" style="fill:#ffcc00;fill-opacity:1;fill-rule:nonzero;stroke:none" d="m 26.709,19.6445 -0.062,0.294 -0.25,-0.053 0.06,-0.28 0.106,0.014 0.028,-0.133 -0.237,-0.05 -0.147,0.688 0.105,0.022 0.038,-0.089 0.624,0.133 -0.002,0.096 0.104,0.023 0.021,-0.093 0.126,-0.594 -0.239,-0.051 -0.028,0.134 0.102,0.03 -0.059,0.278 -0.219,-0.046 0.063,-0.295 -0.134,-0.028 z"/><path id="path85" style="fill:#ffcc00;fill-opacity:1;fill-rule:nonzero;stroke:none" d="m 26.9385,18.9116 0.011,-0.127 c 0.005,-0.048 0.017,-0.083 0.039,-0.107 0.021,-0.024 0.051,-0.035 0.089,-0.031 0.041,0.003 0.069,0.019 0.087,0.046 0.017,0.028 0.023,0.067 0.019,0.118 l -0.011,0.122 -0.234,-0.021 z m -0.123,-0.011 -0.255,-0.022 0.014,-0.163 c 0.005,-0.047 0.017,-0.082 0.04,-0.105 0.023,-0.023 0.054,-0.033 0.095,-0.03 0.042,0.004 0.075,0.018 0.096,0.041 0.021,0.023 0.029,0.057 0.026,0.103 l -0.016,0.176 z m 0.505,-0.078 c 0.009,-0.104 -0.005,-0.187 -0.04,-0.249 -0.035,-0.062 -0.094,-0.097 -0.174,-0.103 -0.041,-0.004 -0.079,0.004 -0.112,0.023 -0.035,0.018 -0.062,0.047 -0.081,0.087 -0.007,-0.054 -0.029,-0.095 -0.063,-0.125 -0.035,-0.03 -0.077,-0.047 -0.126,-0.051 -0.085,-0.008 -0.151,0.015 -0.2,0.067 -0.049,0.052 -0.077,0.129 -0.086,0.232 l -0.038,0.435 0.106,0.009 0.027,-0.092 0.635,0.055 0.01,0.096 0.108,0.009 0.007,-0.094 0.027,-0.299 z"/><path id="path86" style="fill:#ffcc00;fill-opacity:1;fill-rule:nonzero;stroke:none" d="m 26.9648,17.7988 -0.005,-0.123 c -0.002,-0.05 0.008,-0.087 0.027,-0.113 0.021,-0.026 0.051,-0.039 0.091,-0.041 0.039,-10e-4 0.072,0.01 0.097,0.034 0.024,0.023 0.038,0.059 0.039,0.107 l 0.005,0.126 -0.254,0.01 z m 0.387,-0.141 c -0.004,-0.101 -0.031,-0.179 -0.078,-0.234 -0.048,-0.057 -0.114,-0.082 -0.195,-0.08 -0.045,0.002 -0.083,0.016 -0.115,0.041 -0.032,0.025 -0.058,0.061 -0.076,0.108 -0.018,-0.051 -0.044,-0.089 -0.081,-0.11 -0.037,-0.021 -0.082,-0.031 -0.136,-0.029 l -0.045,0.002 c -0.019,0 -0.034,-0.003 -0.046,-0.01 -0.011,-0.008 -0.017,-0.021 -0.02,-0.038 l -0.004,-0.023 -0.108,0.004 0.004,0.093 c 0.002,0.058 0.02,0.099 0.051,0.121 0.032,0.022 0.073,0.032 0.123,0.031 l 0.051,-0.002 c 0.043,-0.002 0.077,0.008 0.102,0.03 0.026,0.023 0.04,0.054 0.043,0.096 l 0.005,0.146 -0.234,0.009 -0.022,-0.095 -0.106,0.004 0.014,0.368 0.106,-0.004 0.015,-0.095 0.637,-0.024 0.022,0.094 0.107,-0.004 -0.004,-0.094 -0.01,-0.305 z"/><path id="path87" style="fill:#ffcc00;fill-opacity:1;fill-rule:nonzero;stroke:none" d="m 26.7334,16.6221 -0.034,-0.201 0.325,0.047 0.001,0.004 -0.292,0.15 z m -0.207,0.362 -0.002,-0.064 0.717,-0.396 -0.03,-0.179 -0.807,-0.137 -0.02,-0.061 -0.105,0.018 0.051,0.299 0.105,-0.018 0,-0.063 0.127,0.018 0.048,0.284 -0.113,0.059 -0.022,-0.059 -0.105,0.018 0.051,0.299 0.105,-0.018 z"/><path id="path88" style="fill:#ffcc00;fill-opacity:1;fill-rule:nonzero;stroke:none" d="m 26.5938,15.0732 0.038,0.128 0.124,-0.013 c 0.014,0.012 0.028,0.031 0.044,0.058 0.015,0.026 0.027,0.056 0.037,0.088 0.014,0.047 0.015,0.086 0.003,0.117 -0.012,0.031 -0.034,0.052 -0.065,0.06 -0.029,0.009 -0.056,0.003 -0.083,-0.018 -0.027,-0.022 -0.06,-0.062 -0.1,-0.121 -0.054,-0.086 -0.11,-0.147 -0.167,-0.183 -0.058,-0.035 -0.121,-0.043 -0.191,-0.022 -0.073,0.022 -0.121,0.068 -0.147,0.138 -0.024,0.071 -0.023,0.153 0.005,0.247 0.021,0.068 0.049,0.125 0.087,0.173 0.038,0.048 0.081,0.084 0.13,0.11 l 0.178,-0.053 -0.04,-0.133 -0.126,0.019 c -0.02,-0.014 -0.039,-0.033 -0.056,-0.06 -0.019,-0.027 -0.032,-0.058 -0.044,-0.095 -0.014,-0.046 -0.015,-0.085 -0.003,-0.115 0.012,-0.03 0.034,-0.05 0.066,-0.059 0.033,-0.01 0.063,-0.006 0.089,0.011 0.027,0.017 0.058,0.052 0.093,0.105 0.06,0.093 0.116,0.158 0.172,0.198 0.056,0.04 0.119,0.05 0.188,0.028 0.07,-0.02 0.118,-0.066 0.144,-0.137 0.026,-0.072 0.026,-0.153 0.001,-0.242 -0.02,-0.065 -0.047,-0.122 -0.083,-0.169 -0.036,-0.048 -0.076,-0.085 -0.12,-0.112 l -0.174,0.052 z"/><path id="path89" style="fill:#ffcc00;fill-opacity:1;fill-rule:nonzero;stroke:none" d="m 26.0137,14.9092 -0.021,-0.094 0.583,-0.258 0.055,0.08 0.098,-0.044 -0.147,-0.332 -0.097,0.044 0.019,0.089 -0.218,0.096 -0.031,-0.071 0.158,-0.256 0.029,0.045 0.097,-0.044 -0.141,-0.322 -0.099,0.044 0.025,0.094 -0.179,0.318 -0.421,-0.082 -0.05,-0.076 -0.097,0.043 0.142,0.323 0.098,-0.044 -0.016,-0.053 0.305,0.053 0.04,0.091 -0.226,0.099 -0.052,-0.075 -0.098,0.043 0.146,0.332 0.098,-0.043 z"/><path id="path90" style="fill:#ffcc00;fill-opacity:1;fill-rule:nonzero;stroke:none" d="m 25.5977,13.4766 -0.106,-0.174 0.319,-0.078 0.002,0.003 -0.215,0.249 z m -0.057,0.413 -0.025,-0.059 0.518,-0.634 -0.095,-0.156 -0.8,0.175 -0.041,-0.05 -0.091,0.056 0.158,0.259 0.091,-0.056 -0.022,-0.058 0.124,-0.031 0.15,0.245 -0.083,0.098 -0.042,-0.047 -0.091,0.056 0.159,0.258 0.09,-0.056 z"/></g></g></g></g></svg>