<svg xmlns:dc="http://purl.org/dc/elements/1.1/" xmlns:cc="http://creativecommons.org/ns#" xmlns:rdf="http://www.w3.org/1999/02/22-rdf-syntax-ns#" xmlns:svg="http://www.w3.org/2000/svg" xmlns="http://www.w3.org/2000/svg" viewBox="0 0 45 45" style="enable-background:new 0 0 45 45;" xml:space="preserve" version="1.1" id="svg2"><metadata id="metadata8"><rdf:RDF><cc:Work rdf:about=""><dc:format>image/svg+xml</dc:format><dc:type rdf:resource="http://purl.org/dc/dcmitype/StillImage"/></cc:Work></rdf:RDF></metadata><defs id="defs6"><clipPath id="clipPath16" clipPathUnits="userSpaceOnUse"><path id="path18" d="M 4,31 C 1.791,31 0,29.209 0,27 L 0,27 0,9 C 0,6.791 1.791,5 4,5 l 0,0 28,0 c 2.209,0 4,1.791 4,4 l 0,0 0,18 c 0,2.209 -1.791,4 -4,4 l 0,0 -28,0 z"/></clipPath></defs><g transform="matrix(1.25,0,0,-1.25,0,45)" id="g10"><g id="g12"><g xmlns="http://www.w3.org/2000/svg" clip-path="url(#clipPath16)" id="g14"><g id="g30"><path id="path20" style="fill:#00247d;fill-opacity:1;fill-rule:nonzero;stroke:none" d="M 36,9 C 36,6.791 34.209,5 32,5 L 4,5 C 1.791,5 0,6.791 0,9 l 0,18 c 0,2.209 1.791,4 4,4 l 28,0 c 2.209,0 4,-1.791 4,-4 L 36,9 z"/></g><g id="g34"><path id="path30" style="fill:#ffffff;fill-opacity:1;fill-rule:nonzero;stroke:none" d="m 23.4834,17.9966 c 0,2.219 1.799,4.018 4.019,4.018 2.218,0 4.017,-1.799 4.017,-4.018 0,-2.219 -1.799,-4.018 -4.017,-4.018 -2.22,0 -4.019,1.799 -4.019,4.018"/><path id="path34" style="fill:#ce1126;fill-opacity:1;fill-rule:nonzero;stroke:none" d="m 26.1191,16.5068 c 0,0 0.035,0.213 0.126,0.401 0.098,0.203 0.06,0.295 0.06,0.295 0,0 -0.037,0.047 -0.159,0.06 -0.123,0.012 -0.206,-0.025 -0.206,-0.025 0,0 -0.022,0.038 -0.041,0.127 -0.019,0.09 -0.018,0.156 -0.018,0.156 0,0 -0.033,-0.018 -0.109,-0.021 -0.076,-0.004 -0.103,0.012 -0.103,0.012 0,0 0.066,0.05 0.047,0.097 -0.031,0.07 -0.497,0.106 -0.497,0.106 0,0 -0.067,-0.228 -0.31,-0.085 -0.329,0.191 -0.163,0.497 0.066,0.497 0.098,0 0.247,-0.089 0.247,-0.089 0,0 0.142,0.021 0.267,0.004 0.126,-0.017 0.234,-0.061 0.234,-0.061 0,0 -0.007,0.162 0.072,0.273 0.079,0.11 -0.074,0.209 0.06,0.288 0.134,0.079 0.14,0.125 0.113,0.158 -0.027,0.032 -0.16,-0.065 -0.202,-0.014 -0.043,0.05 0.045,0.06 -0.012,0.159 -0.059,0.099 -0.164,0.047 -0.284,0.08 -0.121,0.035 -0.153,0.201 -0.08,0.219 0.074,0.019 0.127,-0.128 0.219,-0.128 0.158,0 0.291,0.048 0.291,0.048 0,0 -0.12,0.093 -0.159,0.093 -0.04,0 -0.11,-0.032 -0.157,0 -0.046,0.033 -0.045,0.196 -10e-4,0.256 0.044,0.059 -0.027,0.092 -0.005,0.122 0.023,0.032 0.056,0.008 0.179,0.067 0.122,0.059 0.124,0.094 0.209,0.135 0.084,0.041 0.121,0.023 0.121,0.023 0,0 0.045,0.052 0.127,0.059 0.082,0.007 0.159,0.009 0.159,0.009 0,0 -0.008,0.06 0,0.107 0.009,0.047 0.033,0.085 0.033,0.085 l 0.097,-0.13 c 0,0 0.047,0.014 0.069,0.049 0.023,0.035 -0.014,0.065 -0.014,0.065 0,0 0.092,0.044 0.195,-0.08 0.103,-0.125 0.066,-0.175 0.066,-0.175 0,0 0.061,0.079 0.146,0.091 0.085,0.013 0.133,-0.029 0.133,-0.029 0,0 -0.013,-0.009 -0.027,-0.07 -0.015,-0.06 0.002,-0.104 0.002,-0.104 0,0 0.078,0.178 0.186,0.074 0.107,-0.105 0.103,-0.129 0.153,-0.222 0.042,-0.078 0.16,-0.12 0.16,-0.12 0,0 -0.013,-0.026 -0.058,-0.052 -0.045,-0.027 -0.109,-0.03 -0.109,-0.03 0,0 0.164,-0.034 0.164,-0.2 0,-0.16 0.162,-0.203 0.162,-0.203 0,0 -0.166,-0.106 -0.185,-0.322 -0.02,-0.216 0.376,-0.099 0.863,-0.008 0.398,0.076 0.697,0.201 0.89,0.045 0.08,-0.064 0.142,-0.113 0.208,-0.114 0.091,-0.001 0.174,0.076 0.181,0.187 0.021,0.258 -0.258,0.279 -0.788,0.28 -0.686,0.002 -0.804,0.243 -0.804,0.488 0,0.28 0.177,0.448 0.554,0.448 0.161,0 0.323,-0.087 0.323,-0.087 0,0 0.126,-0.02 0.289,0.06 0.162,0.081 0.284,0.078 0.382,-0.011 0.025,-0.022 0.076,-0.087 0.076,-0.087 0,0 0.042,0.027 0.081,0.033 0.079,0.011 0.123,-0.02 0.123,-0.02 0,0 -0.046,-0.018 -0.089,-0.045 -0.044,-0.028 -0.064,-0.061 -0.064,-0.061 l 0.061,-0.081 c 0,0 -0.073,-0.004 -0.14,-0.027 -0.066,-0.024 -0.093,-0.056 -0.093,-0.056 0,0 -0.129,-0.017 -0.294,0.02 -0.166,0.036 -0.224,0.106 -0.224,0.106 0,0 -0.055,-0.004 -0.149,0.024 -0.095,0.028 -0.132,0.053 -0.132,0.053 0,0 -0.509,0.12 -0.509,-0.289 0,-0.229 0.216,-0.324 0.794,-0.324 0.522,0.001 0.868,-0.117 0.868,-0.42 0,-0.272 -0.32,-0.438 -0.32,-0.438 0,0 0.134,-0.255 0.134,-0.404 0,-0.111 -0.104,-0.219 -0.104,-0.219 0,0 0.003,-0.132 -0.044,-0.224 -0.047,-0.092 -0.157,-0.162 -0.157,-0.162 0,0 0.063,-0.033 0.109,-0.089 0.045,-0.057 0.049,-0.108 0.049,-0.108 0,0 -0.037,-0.006 -0.066,-0.021 -0.029,-0.014 -0.049,-0.036 -0.049,-0.036 0,0 0.046,-0.137 -0.019,-0.262 -0.039,-0.076 -0.081,-0.12 -0.093,-0.156 -0.012,-0.036 -0.035,-0.154 -0.063,-0.212 -0.068,-0.137 -0.217,-0.089 -0.217,-0.089 0,0 -0.193,-0.175 -0.358,0.064 -0.165,0.241 0.013,0.251 0.206,0.231 0.183,-0.02 0.214,0.035 0.198,0.259 -0.022,0.321 -0.291,0.245 -0.291,0.245 0,0 0.017,-0.098 -0.02,-0.185 -0.037,-0.088 -0.078,-0.12 -0.078,-0.12 0,0 -0.028,0.02 -0.059,0.034 -0.03,0.014 -0.065,0.02 -0.065,0.02 0,0 0.003,-0.091 -0.032,-0.135 -0.036,-0.043 -0.069,0 -0.097,-0.035 -0.026,-0.035 -0.004,-0.097 -0.12,-0.225 -0.114,-0.127 -0.324,-0.162 -0.485,-0.087 -0.161,0.075 -0.202,0.159 -0.07,0.223 0.087,0.043 0.256,0.023 0.256,0.023 0,0 0.305,0.343 0.307,0.423 10e-4,0.08 -0.114,0.126 -0.18,0.187 -0.091,0.085 -0.1,0.186 -0.1,0.186 0,0 -0.131,0.027 -0.305,-0.022 -0.174,-0.05 -0.259,-0.11 -0.38,-0.078 -0.135,0.036 -0.259,-0.147 -0.435,-0.301 -0.234,-0.205 -0.511,-0.408 -0.553,-0.446 -0.095,-0.084 -0.1,-0.206 -0.1,-0.206 0,0 -0.052,-0.094 -0.224,-0.124 -0.237,-0.042 -0.529,0.048 -0.507,0.149 0.021,0.103 0.086,0.161 0.136,0.171 0.049,0.01 0.362,0 0.362,0"/></g><g id="g38"><path id="path40" style="fill:#00247d;fill-opacity:1;fill-rule:nonzero;stroke:none" d="m 19.001,31 -19,0 0,-13 19,0 0,13 z"/><path id="path42" style="fill:#eeeeee;fill-opacity:1;fill-rule:nonzero;stroke:none" d="m 7.3911,24.4961 -7.391,-5.262 0,-1.234 3.332,0 6.669,4.669 6.668,-4.669 2.332,0 0,2.029 -6.386,4.471 6.386,4.471 0,2.029 -2.331,0 -6.67,-4.67 -6.667,4.67 -3.332,0 0,-1.332 7.39,-5.172 z"/><path id="path44" style="fill:#cf142b;fill-opacity:1;fill-rule:nonzero;stroke:none" d="m 10.8735,23.8887 8.127,-5.69 0,1.219 -8.127,5.692 8.127,5.692 0,0.198 -1.46,0 -8.412,-5.889 -8.41,5.889 -0.718,-0.712 9.128,-6.399 -8.394,-5.889 0.266,0 1.461,0 8.412,5.889 z"/><path id="path46" style="fill:#eeeeee;fill-opacity:1;fill-rule:nonzero;stroke:none" d="m 19.001,27 -7,0 0,4 -5,0 0,-4 -7,0 0,-5 7,0 0,-4 5,0 0,4 7,0 0,5 z"/><path id="path48" style="fill:#cf142b;fill-opacity:1;fill-rule:nonzero;stroke:none" d="m 11.001,23 0,-5 -3,0 0,5 -8,0 0,3 8,0 0,5 3,0 0,-5 8,0 0,-3 -8,0 z"/></g></g></g></g></svg>