<svg xmlns:dc="http://purl.org/dc/elements/1.1/" xmlns:cc="http://creativecommons.org/ns#" xmlns:rdf="http://www.w3.org/1999/02/22-rdf-syntax-ns#" xmlns:svg="http://www.w3.org/2000/svg" xmlns="http://www.w3.org/2000/svg" viewBox="0 0 45 45" style="enable-background:new 0 0 45 45;" xml:space="preserve" version="1.1" id="svg2"><metadata id="metadata8"><rdf:RDF><cc:Work rdf:about=""><dc:format>image/svg+xml</dc:format><dc:type rdf:resource="http://purl.org/dc/dcmitype/StillImage"/></cc:Work></rdf:RDF></metadata><defs id="defs6"><clipPath id="clipPath16" clipPathUnits="userSpaceOnUse"><path id="path18" d="M 4,31 C 1.791,31 0,29.209 0,27 L 0,27 0,9 C 0,6.791 1.791,5 4,5 l 0,0 28,0 c 2.209,0 4,1.791 4,4 l 0,0 0,18 c 0,2.209 -1.791,4 -4,4 l 0,0 -28,0 z"/></clipPath><clipPath id="clipPath28" clipPathUnits="userSpaceOnUse"><path id="path30" d="M 0,36 36,36 36,0 0,0 0,36 Z"/></clipPath></defs><g xmlns="http://www.w3.org/2000/svg" transform="matrix(1.25,0,0,-1.25,0,45)" id="g10"><path id="path40" style="fill:#75aadb" d="M 36,9 C 36,6.791 34.209,5 32,5 H 4 C 1.791,5 0,6.791 0,9 v 18 c 0,2.209 1.791,4 4,4 h 28 c 2.209,0 4,-1.791 4,-4 z"/><path id="path42" style="fill:#eeeeee" d="M 9.002,5 H 4.5 v 26 h 4.502 z"/><path id="path44" style="fill:#eeeeee" d="M 26.998,5 H 31.5 v 26 h -4.502 z"/><path id="path46" style="fill:#da251d" d="M 26.998,5 H 9.002 v 26 h 17.996 z"/><path id="path48" style="fill:#fcbf49" d="m 20.2129,18.9873 c -0.101,0.075 -0.187,0.213 -0.301,0.213 -0.162,0 -0.112,-0.113 -0.199,-0.113 h -0.226 c -0.049,0 -0.075,0.025 -0.075,0.038 0,0.087 0.263,0.1 0.263,0.362 0,0.187 -0.212,0.413 -0.388,0.413 -0.162,0 -0.324,-0.15 -0.412,-0.263 -0.062,-0.1 -0.062,-0.15 -0.062,-0.15 0,0 0.237,0.088 0.387,0.088 0.15,0 0.076,-0.238 0,-0.338 -0.125,-0.137 -0.213,-0.15 -1.012,-0.15 0,0.438 0,0.95 0.037,1.013 0.038,0.087 0.188,0.062 0.125,-0.051 -0.1,-0.187 -0.037,-0.25 0.137,-0.25 0.113,0 0.238,0.063 0.238,0.351 0,0.187 -0.05,0.25 -0.225,0.45 -0.162,0.187 -0.287,0.312 -0.362,0.4 -0.125,0.15 -0.138,0.212 -0.138,0.212 0,0 -0.013,-0.062 -0.138,-0.212 -0.074,-0.088 -0.199,-0.213 -0.362,-0.4 -0.175,-0.2 -0.225,-0.263 -0.225,-0.45 0,-0.288 0.125,-0.351 0.238,-0.351 0.175,0 0.237,0.063 0.137,0.25 -0.062,0.113 0.087,0.138 0.125,0.051 0.038,-0.063 0.038,-0.575 0.038,-1.013 -0.8,0 -0.888,0.013 -1.013,0.15 -0.075,0.1 -0.15,0.338 0,0.338 0.15,0 0.388,-0.088 0.388,-0.088 0,0 0,0.05 -0.063,0.15 -0.087,0.113 -0.25,0.263 -0.412,0.263 -0.175,0 -0.388,-0.226 -0.388,-0.413 0,-0.262 0.263,-0.275 0.263,-0.362 0,-0.013 -0.025,-0.038 -0.075,-0.038 h -0.225 c -0.088,0 -0.038,0.113 -0.2,0.113 -0.113,0 -0.2,-0.138 -0.3,-0.213 -0.063,-0.062 -0.138,-0.087 -0.138,-0.087 0,0 0.075,-0.025 0.138,-0.088 0.1,-0.075 0.187,-0.212 0.3,-0.212 0.162,0 0.112,0.112 0.2,0.112 h 0.225 c 0.05,0 0.075,-0.025 0.075,-0.037 0,-0.075 -0.263,-0.1 -0.263,-0.363 0,-0.187 0.213,-0.412 0.388,-0.412 0.162,0 0.325,0.15 0.412,0.262 0.063,0.1 0.063,0.15 0.063,0.15 0,0 -0.238,-0.087 -0.388,-0.087 -0.15,0 -0.075,0.237 0,0.337 0.125,0.138 0.213,0.15 1.013,0.15 v -0.212 c 0,-0.088 -0.088,-0.2 -0.163,-0.263 -0.112,-0.125 -0.225,-0.137 -0.225,-0.137 l 0.575,-3.288 0.575,3.288 c 0,0 -0.112,0.012 -0.225,0.137 -0.075,0.063 -0.162,0.175 -0.162,0.263 v 0.212 c 0.799,0 0.887,-0.012 1.012,-0.15 0.076,-0.1 0.15,-0.337 0,-0.337 -0.15,0 -0.387,0.087 -0.387,0.087 0,0 0,-0.05 0.062,-0.15 0.088,-0.112 0.25,-0.262 0.412,-0.262 0.176,0 0.388,0.225 0.388,0.412 0,0.263 -0.263,0.288 -0.263,0.363 0,0.012 0.026,0.037 0.075,0.037 h 0.226 c 0.087,0 0.037,-0.112 0.199,-0.112 0.114,0 0.2,0.137 0.301,0.212 0.062,0.063 0.137,0.088 0.137,0.088 0,0 -0.075,0.025 -0.137,0.087 m 0.837,-2.6 c -0.112,-0.213 -0.25,-0.413 -0.4,-0.6 l 1.012,-1.449 -1.449,1.011 c -0.187,-0.149 -0.388,-0.287 -0.601,-0.399 l 0.375,-1.737 -0.961,1.487 c -0.226,-0.063 -0.463,-0.112 -0.713,-0.138 l -0.313,-1.737 -0.312,1.737 c -0.25,0.026 -0.488,0.075 -0.713,0.138 l -0.962,-1.487 0.375,1.737 c -0.213,0.112 -0.413,0.25 -0.6,0.399 l -1.45,-1.011 1.012,1.449 c -0.15,0.187 -0.287,0.387 -0.4,0.6 l -1.737,-0.375 1.487,0.962 c -0.062,0.226 -0.112,0.463 -0.137,0.713 l -1.738,0.313 1.738,0.312 c 0.025,0.25 0.075,0.488 0.137,0.713 l -1.487,0.962 1.737,-0.375 c 0.113,0.213 0.25,0.413 0.4,0.6 l -1.012,1.45 1.45,-1.012 c 0.187,0.149 0.387,0.287 0.6,0.4 l -0.375,1.737 0.962,-1.487 c 0.225,0.062 0.463,0.112 0.713,0.137 l 0.312,1.737 0.313,-1.737 c 0.25,-0.025 0.487,-0.075 0.713,-0.137 l 0.961,1.487 -0.375,-1.737 c 0.213,-0.113 0.414,-0.251 0.601,-0.4 l 1.449,1.012 -1.012,-1.45 c 0.15,-0.187 0.288,-0.387 0.4,-0.6 l 1.737,0.375 -1.487,-0.962 c 0.062,-0.225 0.112,-0.463 0.138,-0.713 l 1.737,-0.312 -1.737,-0.313 c -0.026,-0.25 -0.076,-0.487 -0.138,-0.713 l 1.487,-0.962 z"/></g></svg>