<svg xmlns:dc="http://purl.org/dc/elements/1.1/" xmlns:cc="http://creativecommons.org/ns#" xmlns:rdf="http://www.w3.org/1999/02/22-rdf-syntax-ns#" xmlns:svg="http://www.w3.org/2000/svg" xmlns="http://www.w3.org/2000/svg" viewBox="0 0 45 45" style="enable-background:new 0 0 45 45;" xml:space="preserve" version="1.1" id="svg2"><metadata id="metadata8"><rdf:RDF><cc:Work rdf:about=""><dc:format>image/svg+xml</dc:format><dc:type rdf:resource="http://purl.org/dc/dcmitype/StillImage"/></cc:Work></rdf:RDF></metadata><defs id="defs6"><clipPath id="clipPath16" clipPathUnits="userSpaceOnUse"><path id="path18" d="M 4,31 C 1.791,31 0,29.209 0,27 L 0,27 0,9 C 0,6.791 1.791,5 4,5 l 0,0 28,0 c 2.209,0 4,1.791 4,4 l 0,0 0,18 c 0,2.209 -1.791,4 -4,4 l 0,0 -28,0 z"/></clipPath></defs><g transform="matrix(1.25,0,0,-1.25,0,45)" id="g10"><g id="g12"><g xmlns="http://www.w3.org/2000/svg" clip-path="url(#clipPath16)" id="g14"><g id="g30"><path id="path20" style="fill:#efad31;fill-opacity:1;fill-rule:nonzero;stroke:none" d="m 0,5 36,0 0,25.998 -36,0 L 0,5 z"/><path id="path24" style="fill:#ffffff;fill-opacity:1;fill-rule:nonzero;stroke:none" d="m 2.17,28.829 31.659,0 0,-21.658 -31.659,0 0,21.658 z"/><path id="path28" style="fill:#018c52;fill-opacity:1;fill-rule:nonzero;stroke:none" d="m 32.659,27.658 -29.318,0 0,-19.317 29.318,0 0,19.317 z"/></g><g id="g34"><path id="path30" style="fill:#efad31;fill-opacity:1;fill-rule:nonzero;stroke:none" d="m 21.2529,8.3408 c 0.041,0.121 0.08,0.242 0.116,0.366 0.016,0.058 0.03,0.116 0.046,0.173 0.044,0.157 0.081,0.32 0.109,0.491 0.039,0.226 0.06,0.461 0.06,0.715 l 0,0.029 0,0.03 c 0,0.254 -0.021,0.494 -0.06,0.728 -0.037,0.236 -0.091,0.463 -0.155,0.684 -0.065,0.222 -0.141,0.436 -0.222,0.65 -0.081,0.213 -0.167,0.425 -0.252,0.636 -0.087,0.211 -0.174,0.424 -0.255,0.639 -0.081,0.213 -0.158,0.427 -0.223,0.649 -0.063,0.221 -0.118,0.448 -0.155,0.683 -0.029,0.176 -0.048,0.358 -0.057,0.544 -0.002,0.044 -0.004,0.087 -0.004,0.129 0,0.064 10e-4,0.129 0.004,0.191 0.009,0.187 0.028,0.365 0.057,0.541 0.037,0.235 0.092,0.463 0.155,0.685 0.065,0.22 0.142,0.44 0.223,0.653 0.081,0.215 0.168,0.423 0.255,0.635 0.085,0.211 0.171,0.424 0.252,0.639 0.081,0.213 0.157,0.427 0.222,0.648 0.064,0.222 0.118,0.452 0.155,0.686 0.039,0.235 0.06,0.477 0.06,0.73 l 0,0.029 0,0.026 c 0,0.254 -0.021,0.491 -0.06,0.716 -0.037,0.225 -0.091,0.436 -0.155,0.641 -0.001,0.001 0,0.002 0,0.003 -0.017,0.052 -0.036,0.106 -0.053,0.156 -0.052,0.167 -0.109,0.331 -0.169,0.494 -0.081,0.213 -0.167,0.425 -0.252,0.635 -0.087,0.211 -0.174,0.426 -0.255,0.639 -0.081,0.214 -0.158,0.427 -0.223,0.649 -0.063,0.222 -0.118,0.452 -0.155,0.687 -0.038,0.235 -0.061,0.476 -0.061,0.729 0,0.236 0.023,0.469 0.061,0.694 0.037,0.226 0.092,0.448 0.155,0.665 l -5.802,0 c -0.056,-0.204 -0.105,-0.41 -0.139,-0.625 -0.039,-0.234 -0.06,-0.482 -0.06,-0.734 0,-0.253 0.021,-0.494 0.06,-0.729 0.037,-0.235 0.091,-0.465 0.155,-0.687 0.066,-0.222 0.14,-0.435 0.222,-0.649 0.046,-0.125 0.099,-0.247 0.15,-0.372 -0.016,-0.009 -0.031,-0.02 -0.044,-0.031 0.05,-0.115 0.099,-0.233 0.151,-0.347 0.087,-0.19 0.172,-0.378 0.252,-0.572 0.06,-0.146 0.118,-0.294 0.17,-0.446 0.018,-0.05 0.036,-0.104 0.053,-0.156 0,-10e-4 -10e-4,-0.002 0,-0.003 0.064,-0.221 0.118,-0.446 0.155,-0.68 0.037,-0.226 0.058,-0.46 0.06,-0.703 -10e-4,-0.243 -0.023,-0.476 -0.06,-0.702 -0.037,-0.235 -0.091,-0.466 -0.155,-0.687 -0.066,-0.222 -0.142,-0.435 -0.224,-0.649 -0.079,-0.213 -0.164,-0.426 -0.251,-0.637 -0.087,-0.21 -0.174,-0.424 -0.254,-0.637 -0.081,-0.214 -0.158,-0.428 -0.223,-0.651 -0.064,-0.221 -0.118,-0.451 -0.155,-0.685 -0.031,-0.194 -0.051,-0.392 -0.056,-0.598 -0.002,-0.043 -0.004,-0.09 -0.004,-0.134 0,-0.018 -0.002,-0.038 -0.002,-0.057 0,-0.252 0.021,-0.494 0.06,-0.728 0.037,-0.235 0.091,-0.461 0.155,-0.685 0.066,-0.221 0.14,-0.434 0.222,-0.648 0.079,-0.213 0.17,-0.429 0.257,-0.639 0.087,-0.211 0.172,-0.423 0.251,-0.636 0.082,-0.213 0.158,-0.428 0.224,-0.65 0.064,-0.222 0.118,-0.449 0.155,-0.682 0.037,-0.227 0.058,-0.46 0.06,-0.704 -0.002,-0.242 -0.023,-0.476 -0.06,-0.702 -0.037,-0.235 -0.091,-0.465 -0.155,-0.686 -0.039,-0.131 -0.082,-0.259 -0.126,-0.386 l 5.794,0 z"/><path id="path34" style="fill:#21428c;fill-opacity:1;fill-rule:nonzero;stroke:none" d="m 20.2627,8.3408 c 0.042,0.121 0.081,0.242 0.116,0.366 0.016,0.058 0.03,0.116 0.046,0.173 0.044,0.157 0.081,0.32 0.109,0.491 0.04,0.226 0.061,0.461 0.061,0.715 l 0,0.029 0,0.03 c 0,0.254 -0.021,0.494 -0.061,0.728 -0.037,0.236 -0.091,0.463 -0.155,0.684 -0.064,0.222 -0.141,0.436 -0.222,0.65 -0.081,0.213 -0.167,0.425 -0.252,0.636 -0.087,0.211 -0.174,0.424 -0.255,0.639 -0.081,0.213 -0.158,0.427 -0.223,0.649 -0.063,0.221 -0.118,0.448 -0.155,0.683 -0.029,0.176 -0.048,0.358 -0.057,0.544 -0.001,0.044 -0.003,0.087 -0.003,0.129 0,0.064 0.001,0.129 0.003,0.191 0.009,0.187 0.028,0.365 0.057,0.541 0.037,0.235 0.092,0.463 0.155,0.685 0.065,0.22 0.142,0.44 0.223,0.653 0.081,0.215 0.168,0.423 0.255,0.635 0.085,0.211 0.171,0.424 0.252,0.639 0.081,0.213 0.158,0.427 0.222,0.648 0.064,0.222 0.118,0.452 0.155,0.686 0.04,0.235 0.061,0.477 0.061,0.73 l 0,0.029 0,0.026 c 0,0.254 -0.021,0.491 -0.061,0.716 -0.037,0.225 -0.091,0.436 -0.155,0.641 -10e-4,0.001 0,0.002 0,0.003 -0.016,0.052 -0.036,0.106 -0.053,0.156 -0.052,0.167 -0.108,0.331 -0.169,0.494 -0.081,0.213 -0.167,0.425 -0.252,0.635 -0.087,0.211 -0.174,0.426 -0.255,0.639 -0.081,0.214 -0.158,0.427 -0.223,0.649 -0.063,0.222 -0.117,0.452 -0.155,0.687 -0.037,0.235 -0.06,0.476 -0.06,0.729 0,0.236 0.023,0.469 0.06,0.694 0.038,0.226 0.092,0.448 0.155,0.665 l -3.821,0 c -0.057,-0.204 -0.106,-0.41 -0.14,-0.625 -0.038,-0.234 -0.06,-0.482 -0.06,-0.734 0,-0.253 0.022,-0.494 0.06,-0.729 0.037,-0.235 0.092,-0.465 0.155,-0.687 0.066,-0.222 0.14,-0.435 0.222,-0.649 0.046,-0.125 0.099,-0.247 0.15,-0.372 -0.015,-0.009 -0.031,-0.02 -0.044,-0.031 0.05,-0.115 0.099,-0.233 0.151,-0.347 0.087,-0.19 0.172,-0.378 0.252,-0.572 0.061,-0.146 0.118,-0.294 0.17,-0.446 0.018,-0.05 0.036,-0.104 0.053,-0.156 0,-10e-4 -0.001,-0.002 0,-0.003 0.064,-0.221 0.118,-0.446 0.156,-0.68 0.036,-0.226 0.058,-0.46 0.06,-0.703 -0.001,-0.243 -0.024,-0.476 -0.06,-0.702 -0.038,-0.235 -0.092,-0.466 -0.156,-0.687 -0.065,-0.222 -0.142,-0.435 -0.223,-0.649 -0.08,-0.213 -0.165,-0.426 -0.252,-0.637 -0.087,-0.21 -0.174,-0.424 -0.254,-0.637 -0.081,-0.214 -0.158,-0.428 -0.223,-0.651 -0.063,-0.221 -0.118,-0.451 -0.155,-0.685 -0.031,-0.194 -0.051,-0.392 -0.056,-0.598 -0.002,-0.043 -0.004,-0.09 -0.004,-0.134 0,-0.018 -0.002,-0.038 -0.002,-0.057 0,-0.252 0.022,-0.494 0.06,-0.728 0.037,-0.235 0.092,-0.461 0.155,-0.685 0.066,-0.221 0.14,-0.434 0.222,-0.648 0.08,-0.213 0.17,-0.429 0.257,-0.639 0.087,-0.211 0.172,-0.423 0.252,-0.636 0.081,-0.213 0.158,-0.428 0.223,-0.65 0.064,-0.222 0.118,-0.449 0.156,-0.682 0.036,-0.227 0.058,-0.46 0.06,-0.704 -0.002,-0.242 -0.024,-0.476 -0.06,-0.702 -0.038,-0.235 -0.092,-0.465 -0.156,-0.686 -0.039,-0.131 -0.081,-0.259 -0.126,-0.386 l 3.814,0 z"/></g></g></g></g></svg>