<svg xmlns:dc="http://purl.org/dc/elements/1.1/" xmlns:cc="http://creativecommons.org/ns#" xmlns:rdf="http://www.w3.org/1999/02/22-rdf-syntax-ns#" xmlns:svg="http://www.w3.org/2000/svg" xmlns="http://www.w3.org/2000/svg" viewBox="0 0 45 45" style="enable-background:new 0 0 45 45;" xml:space="preserve" version="1.1" id="svg2"><metadata id="metadata8"><rdf:RDF><cc:Work rdf:about=""><dc:format>image/svg+xml</dc:format><dc:type rdf:resource="http://purl.org/dc/dcmitype/StillImage"/></cc:Work></rdf:RDF></metadata><defs id="defs6"><clipPath id="clipPath16" clipPathUnits="userSpaceOnUse"><path id="path18" d="M 0,36 36,36 36,0 0,0 0,36 Z"/></clipPath></defs><g transform="matrix(1.25,0,0,-1.25,0,45)" id="g10"><g id="g12"><g xmlns="http://www.w3.org/2000/svg" clip-path="url(#clipPath16)" id="g14"><g id="g30"><path id="path20" style="fill:#3070b8;fill-opacity:1;fill-rule:nonzero;stroke:none" d="M 32,31 4,31 C 1.791,31 0,29.209 0,27 L 0,9 C 0,6.791 1.791,5 4,5 L 9.12,5 25.88,5 32,5 c 2.209,0 4,1.791 4,4 l 0,18 c 0,2.209 -1.791,4 -4,4"/></g><g id="g34"><path id="path30" style="fill:#d2d4d5;fill-opacity:1;fill-rule:nonzero;stroke:none" d="m 19.7803,12.0234 c 0,0 0.364,0.18 0.825,0.026 0.347,-0.114 0.427,-0.508 0.427,-0.508 0,0 0.309,0.07 0.606,-0.253 0.266,-0.29 0.298,-0.836 0.033,-1.157 -0.301,-0.361 -0.63,-0.299 -0.63,-0.299 0,0 -0.233,-0.35 -0.641,-0.444 -0.409,-0.094 -0.688,0.15 -0.688,0.15 0,0 -0.412,-0.527 -1.092,-0.527 -0.467,0 -0.726,0.335 -0.726,0.335 0,0 -0.509,-0.323 -1.1,-0.102 -0.416,0.155 -0.615,0.491 -0.615,0.491 0,0 -0.509,-0.2 -0.967,0.088 -0.336,0.211 -0.38,0.421 -0.38,0.421 0,0 -0.412,0.091 -0.412,0.462 0,0.319 0.324,0.555 0.324,0.555 0,0 -0.032,0.236 0.509,0.538 0.227,0.127 0.635,0.092 0.635,0.092 0,0 0.053,0.109 0.215,0.22 0.161,0.112 0.297,0.13 0.297,0.13 l 3.38,-0.218 z"/><path id="path31" style="fill:#fff300;fill-opacity:1;fill-rule:nonzero;stroke:none" d="m 19.6924,24.3286 c 0,0.913 -0.741,1.654 -1.654,1.654 -0.914,0 -1.654,-0.741 -1.654,-1.654 0,-0.914 0.74,-1.654 1.654,-1.654 0.913,0 1.654,0.74 1.654,1.654"/><path id="path32" style="fill:#ee151f;fill-opacity:1;fill-rule:nonzero;stroke:none" d="m 20.0352,10.7588 c 0,0 0.005,-0.017 0.005,-0.048 0,-0.031 -0.005,-0.043 -0.005,-0.043 0,0 -0.177,-0.045 -0.385,0.018 -0.209,0.061 -0.268,0.145 -0.268,0.145 0.117,0.072 0.22,0.128 0.318,0.128 0.273,0 0.335,-0.2 0.335,-0.2"/><path id="path33" style="fill:#ee151f;fill-opacity:1;fill-rule:nonzero;stroke:none" d="m 17.0508,10.8125 c 0,0 -0.006,-0.054 0.02,-0.132 0.025,-0.079 0.076,-0.13 0.076,-0.13 0,0 0.116,0.018 0.253,0.085 0.137,0.067 0.222,0.191 0.222,0.191 -0.092,0.032 -0.192,0.053 -0.304,0.053 -0.1,0 -0.191,-0.029 -0.267,-0.067"/><path id="path34" style="fill:#4e4a6a;fill-opacity:1;fill-rule:nonzero;stroke:none" d="m 16.8882,13.2646 c 0,0 0.047,2.618 0.018,4.294 -0.01,0.528 -10e-4,1.008 0.016,1.418 0,0 0.454,-0.665 0.995,-0.665 0.754,0 1.177,1.018 1.177,1.018 0,0 0.005,-3.712 0.065,-5.036 0.03,-0.692 0.219,-1.253 0.37,-1.712 0.138,-0.417 0.241,-0.764 0.241,-0.764 l -0.02,-0.465 c 0,0 0.105,0 0.291,-0.12 0.185,-0.121 0.221,-0.174 0.221,-0.174 0,0 0.226,-0.032 0.226,-0.114 0,-0.083 -0.453,-0.186 -0.453,-0.186 0,0 -0.062,0.2 -0.335,0.2 -0.273,0 -0.595,-0.441 -1.142,-0.441 -0.546,0 -0.776,0.362 -1.24,0.362 -0.284,0 -0.492,-0.232 -0.492,-0.232 0,0 -0.544,0.096 -0.544,0.402 0,0.306 0.147,0.468 0.147,0.468 l -0.029,0.724 -0.024,1.182 0.118,0.117 0.394,-0.276 z"/><path id="path35" style="fill:#ee151f;fill-opacity:1;fill-rule:nonzero;stroke:none" d="m 18.8057,23.0884 0.035,0.447 c 0,0 0.529,1.812 -0.87,1.812 -1.247,0 -0.759,-1.801 -0.759,-1.801 l 0.041,-0.517 c 0,0 -0.612,-0.471 -0.894,-0.888 -0.282,-0.418 -0.635,-2.459 -0.635,-3.035 0,-0.577 0.323,-2.56 0.323,-3.342 0,-0.782 -0.105,-2.659 -0.105,-2.659 0,0 0.452,-0.923 0.458,-0.864 0.006,0.058 -0.023,1.182 -0.023,1.182 l 0.117,0.118 0.395,-0.277 c 0,0 0.046,2.618 0.017,4.294 -0.009,0.529 0,1.009 0.016,1.419 0,0 0.455,-0.666 0.996,-0.666 0.753,0 1.176,1.018 1.176,1.018 0,0 0.006,-3.712 0.066,-5.035 0.03,-0.693 0.218,-1.253 0.37,-1.712 0.137,-0.417 0.241,-0.765 0.241,-0.765 0,0 0.078,1.636 0.165,3.479 0.086,1.843 0.298,3.161 0.298,4.337 0,0.471 -0.416,2.204 -0.659,2.627 -0.131,0.229 -0.349,0.355 -0.518,0.522 -0.144,0.143 -0.251,0.306 -0.251,0.306"/><path id="path36" style="fill:#fff300;fill-opacity:1;fill-rule:nonzero;stroke:none" d="m 17.5146,23.9902 -0.156,-0.365 0.184,-0.309 0.048,-0.138 0,-0.133 -0.141,-0.588 0.399,-0.581 0.42,-0.322 0,-0.125 -0.455,0.333 -0.474,0.597 -0.055,0.227 0.141,0.565 0.004,0.165 -0.145,0.301 -0.032,0.212 0.157,0.306 0.105,-0.145 z"/><path id="path37" style="fill:#fdc682;fill-opacity:1;fill-rule:nonzero;stroke:none" d="m 18.6172,20.4351 c 0,0 0.052,0.144 0.052,0.451 0,0.475 -0.109,0.402 -0.109,0.402 0,0 -0.023,0.141 -0.047,0.204 -0.023,0.063 -0.056,0.041 -0.056,0.041 0,0 -0.014,0.059 -0.042,0.096 -0.027,0.037 -0.062,0 -0.062,0 0,0 -0.071,0.049 -0.085,-0.039 -0.013,-0.088 0.004,-0.373 -0.021,-0.541 -0.026,-0.167 -0.067,-0.221 -0.067,-0.221 0,0 -0.063,0.037 -0.08,0.19 -0.018,0.152 -0.004,0.245 -0.083,0.245 -0.078,0 -0.053,-0.288 0.032,-0.61 0.131,-0.498 0.519,-0.635 0.519,-0.635 l 0.079,0.007 0.01,0.39 -0.04,0.02 z"/><path id="path38" style="fill:#fdc682;fill-opacity:1;fill-rule:nonzero;stroke:none" d="m 17.2959,20.498 c 0,0 -0.061,0.267 -0.061,0.575 0,0.474 0.108,0.366 0.108,0.366 0,0 0.023,0.12 0.032,0.186 0.007,0.061 0.058,0.021 0.058,0.021 0,0 -0.008,0.065 0.002,0.085 0.021,0.042 0.075,-0.035 0.075,-0.035 0,0 0.058,0.047 0.084,-0.039 0.037,-0.124 0.015,-0.271 0.034,-0.483 0.014,-0.168 0.082,-0.318 0.082,-0.318 0,0 0.035,0.009 0.053,0.162 0.017,0.152 0.004,0.245 0.082,0.245 0.078,0 0.038,-0.486 0.013,-0.585 -0.107,-0.417 -0.57,-0.609 -0.57,-0.609 l -0.06,0.109 0,0.275 0.068,0.045 z"/><path id="path39" style="fill:#fff300;fill-opacity:1;fill-rule:nonzero;stroke:none" d="m 18.6572,20.4155 0.025,0.038 0.156,-0.121 0,-0.315 -0.108,-0.235 -0.134,0.138 -0.028,0.097 0.079,0.008 0.01,0.39 z"/><path id="path40" style="fill:#fff300;fill-opacity:1;fill-rule:nonzero;stroke:none" d="m 17.2881,20.0688 0,-0.086 -0.115,-0.139 -0.12,0.277 0,0.326 0.135,0.091 0.039,-0.085 0,-0.275 0.061,-0.109 z"/><path id="path41" style="fill:#4e4a6a;fill-opacity:1;fill-rule:nonzero;stroke:none" d="m 18.8379,20.3325 0.16,-0.141 0.086,-0.688 -0.353,0.279 0.107,0.235 0,0.315 z"/><path id="path42" style="fill:#4e4a6a;fill-opacity:1;fill-rule:nonzero;stroke:none" d="m 17.0527,20.4473 -0.047,-0.042 -0.058,-0.81 0.226,0.249 -0.121,0.276 0,0.327 z"/><path id="path43" style="fill:#fdc682;fill-opacity:1;fill-rule:nonzero;stroke:none" d="m 17.5146,24.397 1.026,0 0,-0.465 -0.12,-0.544 0,-0.664 -0.729,0 0,0.609 -0.177,0.473 0,0.591 z"/><path id="path44" style="fill:#fff300;fill-opacity:1;fill-rule:nonzero;stroke:none" d="m 18.541,24.397 0.151,-0.191 -0.151,-0.274 0.151,-0.372 -0.272,-0.558 0,-0.278 0.121,-0.201 -0.045,-0.137 0.045,-0.11 0.132,0.244 -0.193,0.47 0.361,0.545 -0.18,0.44 0.086,0.149 0,0.247 -0.353,0.215 -0.366,-0.035 -0.387,0.071 -0.302,-0.189 0,-0.168 0.176,0.132 1.026,0 z"/><path id="path45" style="fill:#d2d4d5;fill-opacity:1;fill-rule:nonzero;stroke:none" d="m 23.5781,17.4492 c 0,0 1.027,-0.243 1.616,0.765 0.783,1.342 -0.071,0.76 -0.071,0.76 0,0 0.26,0.174 0.49,0.702 0.291,0.663 0.032,0.644 0.032,0.644 0,0 -0.11,-0.189 -0.298,-0.444 -0.188,-0.255 -0.502,-0.494 -0.502,-0.494 0,0 0.534,0.624 0.8,1.604 0.267,0.981 0.02,1.267 -0.079,1.2 -0.097,-0.067 -0.023,-0.455 -0.212,-0.949 -0.187,-0.494 -0.383,-0.824 -0.383,-0.824 0,0 0.313,0.894 0.352,1.859 0.039,0.965 -0.2,1.083 -0.317,1.008 -0.044,-0.028 0.007,-0.439 -0.024,-0.937 -0.043,-0.711 -0.439,-1.384 -0.439,-1.384 0,0 0.212,0.662 0.223,1.188 0.012,0.525 -0.046,0.686 -0.243,0.718 -0.082,0.013 0.049,-0.374 -0.188,-1.251 -0.275,-1.016 -0.701,-1.502 -0.701,-1.502 0,0 0.218,0.679 0.154,1.058 -0.064,0.38 -0.21,0.053 -0.21,0.053 0,0 0.107,0.7 0,1.085 -0.066,0.24 -0.173,0.249 -0.217,0.215 -0.05,-0.039 0.009,-0.194 0.003,-0.485 -0.006,-0.291 -0.056,-0.556 -0.056,-0.556 0,0 0.009,0.532 -0.087,0.994 -0.098,0.462 -0.372,0.691 -0.43,0.641 -0.059,-0.049 0.153,-0.423 0.174,-0.791 0.02,-0.367 -0.047,-0.597 -0.047,-0.597 0,0 -0.06,0.785 -0.25,1.109 -0.093,0.157 -0.273,0.218 -0.301,0.168 -0.029,-0.055 0.098,-0.231 0.145,-0.412 0.099,-0.388 0.079,-1.036 0.079,-1.036 0,0 -0.091,0.507 -0.228,0.75 -0.137,0.245 -0.302,0.233 -0.334,0.171 -0.032,-0.062 0.074,-0.119 0.183,-0.556 0.14,-0.57 0.49,-3.711 0.49,-3.711 l 0.876,-0.763 z"/><path id="path46" style="fill:#fff300;fill-opacity:1;fill-rule:nonzero;stroke:none" d="m 24.0283,19.7734 c 0,0.794 -0.645,1.438 -1.438,1.438 -0.795,0 -1.44,-0.644 -1.44,-1.438 0,-0.795 0.645,-1.439 1.44,-1.439 0.793,0 1.438,0.644 1.438,1.439"/><path id="path47" style="fill:#fdc682;fill-opacity:1;fill-rule:nonzero;stroke:none" d="m 22.7529,18.6646 -0.265,-0.17 -0.482,-0.195 c 0,0 0.086,0.459 0.086,0.469 0,0.01 -0.01,0.198 -0.01,0.198 0,0 -0.262,0.09 -0.286,0.226 -0.016,0.086 0.029,0.096 0.029,0.121 0,0.047 -0.025,0.057 -0.025,0.074 0,0.017 0.025,0.048 0.025,0.048 0,0 -0.051,0.027 -0.051,0.046 0,0.018 0.02,0.043 0.02,0.079 0,0.036 -0.064,0.069 -0.064,0.114 0,0.046 0.19,0.301 0.19,0.301 l -0.009,0.148 0.22,0.225 0.289,-0.217 0.249,-0.482 0.047,-0.275 -0.109,-0.193 0.016,-0.205 0.13,-0.312 z"/><path id="path48" style="fill:#89442f;fill-opacity:1;fill-rule:nonzero;stroke:none" d="m 21.9111,20.1235 0.017,0.225 0.195,0.183 0.562,0.01 0.457,-0.171 0.209,-0.325 0.016,-0.464 -0.12,-0.307 -0.288,-0.231 0.061,-0.228 0.1,-0.133 -0.032,-0.12 -0.465,0.414 -0.016,0.205 0.109,0.193 -0.047,0.275 -0.249,0.482 -0.289,0.217 -0.22,-0.225 z"/><path id="path49" style="fill:#fdc682;fill-opacity:1;fill-rule:nonzero;stroke:none" d="m 24.1279,13.1641 c 0,0 0.12,-0.112 0.192,-0.359 0.073,-0.247 0.003,-0.401 0.016,-0.452 0.013,-0.051 0.117,-0.035 0.151,0 0.035,0.035 -0.013,0.235 -0.013,0.235 0,0 0.034,-0.138 0.083,-0.179 0.023,-0.019 0.06,-0.034 0.06,-0.034 0,0 0.128,0.146 0.139,0.315 0.012,0.169 -0.064,0.218 -0.078,0.532 -0.016,0.345 -0.014,0.51 -0.157,0.51 -0.042,10e-4 -0.146,-0.026 -0.157,-0.057 -0.017,-0.05 -0.072,-0.038 -0.072,-0.038 l -0.164,-0.473 z"/><path id="path50" style="fill:#d2d4d5;fill-opacity:1;fill-rule:nonzero;stroke:none" d="m 23.0879,18.5625 c 0,0 0.278,-0.234 0.408,-0.631 0.149,-0.452 0.047,-0.933 0.125,-1.404 0.079,-0.471 0.236,-1.059 0.071,-1.726 -0.165,-0.666 -0.659,-1.027 -0.659,-1.027 0,0 0.161,0.063 0.397,0.081 0.235,0.018 0.152,-0.059 0.468,-0.006 0.215,0.037 0.422,-0.129 0.422,-0.129 l -0.373,-1.079 c 0,0 -0.209,-0.43 -0.764,-0.551 -0.435,-0.093 -0.854,0.104 -0.854,0.104 0,0 -1,-0.382 -1.367,0.364 -0.183,0.371 -0.067,1.322 0.076,1.824 0.181,0.628 0.404,0.852 0.465,1.033 0.108,0.323 0.029,0.514 0.029,0.514 0,0 -0.381,0.079 -0.488,0.411 -0.105,0.333 -0.097,0.618 -0.097,0.618 l 0.123,-0.082 0.009,0.512 -0.211,0.088 0.138,0.118 c 0,0 -0.054,0.132 -0.1,0.373 -0.047,0.242 -0.038,0.347 -0.038,0.347 l 0.03,0.477 -0.03,0.126 -0.112,0.053 c 0,0 0.059,0.176 0.262,0.115 0.203,-0.062 0.291,-0.235 0.291,-0.235 l 0.206,-0.198 0.311,-0.09 0.26,0.34 0.006,-0.134 -0.086,-0.469 0.482,0.195 0.265,0.17 -0.13,0.312 0.465,-0.414 z"/><path id="path51" style="fill:#fdc682;fill-opacity:1;fill-rule:nonzero;stroke:none" d="m 21.0791,17.3887 -0.211,0.088 c 0,0 -0.358,0.194 -0.454,0.321 -0.097,0.128 -0.581,0.261 -0.581,0.261 0,0 -0.061,0.016 -0.063,-0.025 -0.002,-0.041 0.086,-0.11 0.246,-0.14 0.159,-0.029 0.165,-0.123 0.165,-0.123 0,0 -0.208,-0.055 -0.348,0.033 -0.139,0.088 -0.292,0.181 -0.331,0.138 -0.039,-0.044 0.331,-0.258 0.331,-0.258 0,0 -0.366,0.171 -0.396,0.095 -0.014,-0.038 0.133,-0.104 0.133,-0.104 0,0 -0.037,-0.014 0.002,-0.055 0.028,-0.028 0.073,-0.063 0.073,-0.063 0,0 -0.036,-0.016 0.016,-0.066 0.051,-0.051 0.245,-0.171 0.52,-0.185 0.274,-0.014 0.766,-0.348 0.766,-0.348 l 0.123,-0.081 0.009,0.512 z"/><path id="path52" style="fill:#fdc682;fill-opacity:1;fill-rule:nonzero;stroke:none" d="m 20.7559,18.9707 0.112,-0.053 0.03,-0.127 -0.03,-0.476 c 0,0 -0.661,0.535 -0.66,0.55 0.001,0.008 0.008,0.127 0.015,0.285 0.007,0.158 0.007,0.206 0.007,0.206 l 0.526,-0.385 z"/><path id="path53" style="fill:#fff300;fill-opacity:1;fill-rule:nonzero;stroke:none" d="m 23.2148,25.6787 c 0,0.552 -0.447,1 -1,1 -0.552,0 -1,-0.448 -1,-1 0,-0.552 0.448,-1 1,-1 0.553,0 1,0.448 1,1"/><path id="path54" style="fill:#d2d4d5;fill-opacity:1;fill-rule:nonzero;stroke:none" d="m 22.4365,24.7485 c 0,0 0.017,-0.078 0.093,-0.04 0.076,0.039 0.732,0.543 0.976,0.543 0.205,0 0.373,-0.14 0.654,-0.483 0.17,-0.207 0.382,-0.507 0.559,-0.646 0.142,-0.113 0.271,-0.162 0.217,-0.211 -0.116,-0.11 -0.595,0.337 -0.595,0.337 0,0 0.121,-0.166 0.248,-0.28 0.144,-0.129 0.351,-0.245 0.203,-0.28 -0.251,-0.059 -0.567,0.383 -0.567,0.383 0,0 0.093,-0.186 0.192,-0.337 0.111,-0.166 0.264,-0.323 0.17,-0.355 -0.177,-0.058 -0.474,0.372 -0.474,0.372 0,0 0.075,-0.16 0.177,-0.3 0.115,-0.159 0.287,-0.294 0.105,-0.306 -0.189,-0.011 -0.496,0.501 -0.496,0.501 0,0 0.025,-0.09 0.088,-0.198 0.072,-0.127 0.22,-0.28 0.068,-0.252 -0.319,0.059 -0.8,0.477 -1.218,0.468 -0.721,-0.016 -1.086,-0.078 -1.482,0.126 -0.396,0.204 -0.745,0.984 -1.219,1.482 -0.474,0.498 -1.042,0.926 -1.106,1.184 -0.035,0.142 0.135,0.029 0.303,-0.066 0.141,-0.08 0.481,-0.2 0.481,-0.2 0,0 -0.57,0.319 -0.467,0.439 0.03,0.034 0.159,-0.068 0.328,-0.137 0.179,-0.075 0.569,-0.171 0.569,-0.171 0,0 -0.841,0.404 -0.749,0.505 0.031,0.035 0.139,-0.041 0.262,-0.101 0.127,-0.061 0.296,-0.116 0.296,-0.116 0,0 -0.543,0.33 -0.431,0.414 0.042,0.031 0.208,-0.101 0.453,-0.233 0.223,-0.121 0.519,-0.236 0.692,-0.33 0.426,-0.231 0.466,-0.363 0.436,-0.655 -0.055,-0.517 0.131,-0.609 0.131,-0.609 l 1.103,-0.448 z"/><path id="path55" style="fill:#fdc682;fill-opacity:1;fill-rule:nonzero;stroke:none" d="m 22.2441,24.7559 -0.488,-0.059 -0.236,0.321 0.203,0.538 0.209,0.115 0.327,0.005 0.2,-0.337 0.032,-0.174 -0.247,-0.409 z"/><path id="path56" style="fill:#89442f;fill-opacity:1;fill-rule:nonzero;stroke:none" d="m 21.2354,24.9292 0.271,0.732 c 0,0 0.087,0.539 0.552,0.565 0.465,0.027 0.803,-0.22 0.803,-0.712 0,-0.27 -0.181,-0.372 -0.292,-0.554 -0.202,-0.329 -0.357,-0.546 -0.357,-0.546 l 0.032,0.342 0.247,0.408 -0.032,0.174 -0.201,0.338 -0.326,-0.006 -0.209,-0.115 -0.203,-0.538 -0.285,-0.088 z"/><path id="path57" style="fill:#d2d4d5;fill-opacity:1;fill-rule:nonzero;stroke:none" d="m 12.3799,17.4492 c 0,0 -1.028,-0.243 -1.616,0.765 -0.783,1.342 0.071,0.76 0.071,0.76 0,0 -0.26,0.174 -0.491,0.702 -0.29,0.663 -0.031,0.644 -0.031,0.644 0,0 0.11,-0.189 0.298,-0.444 0.188,-0.255 0.502,-0.494 0.502,-0.494 0,0 -0.533,0.624 -0.8,1.604 -0.266,0.981 -0.019,1.267 0.078,1.2 0.098,-0.067 0.024,-0.455 0.212,-0.949 0.189,-0.494 0.384,-0.824 0.384,-0.824 0,0 -0.313,0.894 -0.353,1.859 -0.039,0.965 0.201,1.083 0.318,1.008 0.044,-0.028 -0.006,-0.439 0.024,-0.937 0.042,-0.711 0.439,-1.384 0.439,-1.384 0,0 -0.212,0.662 -0.223,1.188 -0.012,0.525 0.046,0.686 0.243,0.718 0.082,0.013 -0.049,-0.374 0.188,-1.251 0.274,-1.016 0.702,-1.502 0.702,-1.502 0,0 -0.22,0.679 -0.155,1.058 0.064,0.38 0.21,0.053 0.21,0.053 0,0 -0.108,0.7 0,1.085 0.067,0.24 0.173,0.249 0.216,0.215 0.051,-0.039 -0.008,-0.194 -0.003,-0.485 0.006,-0.291 0.056,-0.556 0.056,-0.556 0,0 -0.009,0.532 0.088,0.994 0.098,0.462 0.371,0.691 0.43,0.641 0.059,-0.049 -0.153,-0.423 -0.174,-0.791 -0.02,-0.367 0.048,-0.597 0.048,-0.597 0,0 0.058,0.785 0.25,1.109 0.092,0.157 0.271,0.218 0.299,0.168 0.03,-0.055 -0.097,-0.231 -0.144,-0.412 -0.1,-0.388 -0.079,-1.036 -0.079,-1.036 0,0 0.091,0.507 0.228,0.75 0.137,0.245 0.301,0.233 0.334,0.171 0.032,-0.062 -0.075,-0.119 -0.183,-0.556 -0.141,-0.57 -0.49,-3.711 -0.49,-3.711 l -0.876,-0.763 z"/><path id="path58" style="fill:#fff300;fill-opacity:1;fill-rule:nonzero;stroke:none" d="m 11.9297,19.7734 c 0,0.794 0.644,1.438 1.439,1.438 0.794,0 1.438,-0.644 1.438,-1.438 0,-0.795 -0.644,-1.439 -1.438,-1.439 -0.795,0 -1.439,0.644 -1.439,1.439"/><path id="path59" style="fill:#fdc682;fill-opacity:1;fill-rule:nonzero;stroke:none" d="m 13.2051,18.6646 0.265,-0.17 0.482,-0.195 c 0,0 -0.086,0.459 -0.086,0.469 0,0.01 0.009,0.198 0.009,0.198 0,0 0.262,0.09 0.287,0.226 0.016,0.086 -0.03,0.096 -0.03,0.121 0,0.047 0.026,0.057 0.026,0.074 0,0.017 -0.025,0.048 -0.025,0.048 0,0 0.051,0.027 0.051,0.046 0,0.018 -0.02,0.043 -0.02,0.079 0,0.036 0.064,0.069 0.064,0.114 0,0.046 -0.19,0.301 -0.19,0.301 l 0.009,0.148 -0.22,0.225 -0.289,-0.217 -0.249,-0.482 -0.047,-0.275 0.108,-0.193 -0.016,-0.205 -0.129,-0.312 z"/><path id="path60" style="fill:#89442f;fill-opacity:1;fill-rule:nonzero;stroke:none" d="m 14.0469,20.1235 -0.016,0.225 -0.196,0.183 -0.563,0.01 -0.456,-0.171 -0.209,-0.325 -0.016,-0.464 0.12,-0.307 0.288,-0.231 -0.061,-0.228 -0.1,-0.133 0.033,-0.12 0.464,0.414 0.015,0.205 -0.108,0.193 0.047,0.275 0.249,0.482 0.289,0.217 0.22,-0.225 z"/><path id="path61" style="fill:#fdc682;fill-opacity:1;fill-rule:nonzero;stroke:none" d="m 11.77,13.4336 c 0,0 -0.121,-0.113 -0.192,-0.36 -0.072,-0.246 -0.003,-0.4 -0.016,-0.452 -0.013,-0.051 -0.117,-0.034 -0.151,0 -0.035,0.035 0.013,0.235 0.013,0.235 0,0 -0.034,-0.138 -0.082,-0.178 -0.024,-0.019 -0.061,-0.035 -0.061,-0.035 0,0 -0.128,0.147 -0.139,0.316 -0.011,0.168 0.064,0.217 0.078,0.532 0.015,0.344 0.014,0.509 0.157,0.51 0.043,0 0.146,-0.026 0.157,-0.057 0.017,-0.05 0.072,-0.039 0.072,-0.039 l 0.164,-0.472 z"/><path id="path62" style="fill:#d2d4d5;fill-opacity:1;fill-rule:nonzero;stroke:none" d="m 12.8706,18.5625 c 0,0 -0.279,-0.234 -0.409,-0.631 -0.148,-0.452 -0.197,-1.035 -0.154,-1.675 0.032,-0.475 -0.094,-0.829 0.09,-1.49 0.122,-0.435 0.467,-0.723 0.467,-0.723 0,0 -0.227,0.118 -0.463,0.135 -0.235,0.018 -0.219,-0.091 -0.588,0 -0.213,0.052 -0.236,-0.189 -0.236,-0.189 l 0.192,-0.556 c 0,0 0.189,-1.216 0.895,-1.357 0.436,-0.087 1.435,0.083 1.435,0.083 0,0 0.508,-0.324 0.875,0.423 0.182,0.371 0.238,1.012 0.094,1.513 -0.18,0.629 -0.4,1.04 -0.49,1.322 -0.104,0.326 0.004,0.467 0.004,0.467 0,0 0.257,-0.033 0.455,0.255 0.129,0.188 0.123,0.456 0.123,0.456 l -0.102,-0.106 -0.122,0.497 0.187,0.133 -0.171,0.475 c 0,0 0.053,0.132 0.1,0.373 0.046,0.242 0.037,0.347 0.037,0.347 l -0.029,0.477 0.029,0.126 0.113,0.053 c 0,0 -0.06,0.176 -0.262,0.115 -0.203,-0.062 -0.292,-0.235 -0.292,-0.235 l -0.205,-0.198 -0.312,-0.09 -0.259,0.34 -0.007,-0.134 0.087,-0.469 -0.483,0.195 -0.265,0.17 0.13,0.312 -0.464,-0.414 z"/><path id="path63" style="fill:#fdc682;fill-opacity:1;fill-rule:nonzero;stroke:none" d="m 14.937,16.9863 0.187,0.133 c 0,0 0.307,0.267 0.372,0.413 0.066,0.145 0.509,0.382 0.509,0.382 0,0 0.056,0.029 0.067,-0.011 0.011,-0.04 -0.06,-0.126 -0.208,-0.19 -0.149,-0.063 -0.134,-0.157 -0.134,-0.157 0,0 0.215,-0.008 0.331,0.109 0.117,0.117 0.246,0.24 0.293,0.207 0.048,-0.034 -0.267,-0.324 -0.267,-0.324 0,0 0.321,0.248 0.366,0.179 0.023,-0.033 -0.107,-0.131 -0.107,-0.131 0,0 0.039,-0.005 0.01,-0.053 -0.02,-0.034 -0.057,-0.078 -0.057,-0.078 0,0 0.038,-0.007 -0.001,-0.068 -0.038,-0.061 -0.201,-0.221 -0.466,-0.294 -0.265,-0.074 -0.671,-0.508 -0.671,-0.508 l -0.103,-0.106 -0.121,0.497 z"/><path id="path64" style="fill:#fdc682;fill-opacity:1;fill-rule:nonzero;stroke:none" d="m 15.2021,18.9707 -0.112,-0.053 -0.029,-0.127 0.029,-0.476 c 0,0 0.66,0.535 0.66,0.55 -10e-4,0.008 -0.008,0.127 -0.015,0.285 -0.007,0.158 -0.007,0.206 -0.007,0.206 l -0.526,-0.385 z"/><path id="path65" style="fill:#fff300;fill-opacity:1;fill-rule:nonzero;stroke:none" d="m 12.7432,25.6787 c 0,0.552 0.447,1 1,1 0.552,0 1,-0.448 1,-1 0,-0.552 -0.448,-1 -1,-1 -0.553,0 -1,0.448 -1,1"/><path id="path66" style="fill:#d2d4d5;fill-opacity:1;fill-rule:nonzero;stroke:none" d="m 13.5215,24.7485 c 0,0 -0.017,-0.078 -0.093,-0.04 -0.076,0.039 -0.732,0.543 -0.977,0.543 -0.204,0 -0.372,-0.14 -0.653,-0.483 -0.17,-0.207 -0.383,-0.507 -0.559,-0.646 -0.142,-0.113 -0.271,-0.162 -0.218,-0.211 0.117,-0.11 0.596,0.337 0.596,0.337 0,0 -0.122,-0.166 -0.248,-0.28 -0.144,-0.129 -0.351,-0.245 -0.203,-0.28 0.251,-0.059 0.566,0.383 0.566,0.383 0,0 -0.092,-0.186 -0.191,-0.337 -0.11,-0.166 -0.264,-0.323 -0.17,-0.355 0.177,-0.058 0.474,0.372 0.474,0.372 0,0 -0.075,-0.16 -0.177,-0.3 -0.114,-0.159 -0.287,-0.294 -0.105,-0.306 0.19,-0.011 0.496,0.501 0.496,0.501 0,0 -0.025,-0.09 -0.087,-0.198 -0.073,-0.127 -0.221,-0.28 -0.069,-0.252 0.319,0.059 0.8,0.477 1.217,0.468 0.722,-0.016 1.087,-0.078 1.483,0.126 0.396,0.204 0.745,0.984 1.219,1.482 0.475,0.498 1.041,0.926 1.106,1.184 0.035,0.142 -0.135,0.029 -0.304,-0.066 -0.14,-0.08 -0.48,-0.2 -0.48,-0.2 0,0 0.57,0.319 0.466,0.439 -0.029,0.034 -0.159,-0.068 -0.327,-0.137 -0.179,-0.075 -0.569,-0.171 -0.569,-0.171 0,0 0.842,0.404 0.75,0.505 -0.032,0.035 -0.141,-0.041 -0.263,-0.101 -0.127,-0.061 -0.296,-0.116 -0.296,-0.116 0,0 0.543,0.33 0.431,0.414 -0.042,0.031 -0.208,-0.101 -0.453,-0.233 -0.223,-0.121 -0.519,-0.236 -0.692,-0.33 -0.426,-0.231 -0.466,-0.363 -0.436,-0.655 0.056,-0.517 -0.131,-0.609 -0.131,-0.609 l -1.103,-0.448 z"/><path id="path67" style="fill:#fdc682;fill-opacity:1;fill-rule:nonzero;stroke:none" d="m 13.7139,24.7559 0.488,-0.059 0.236,0.321 -0.203,0.538 -0.209,0.115 -0.327,0.005 -0.2,-0.337 -0.032,-0.174 0.247,-0.409 z"/><path id="path68" style="fill:#89442f;fill-opacity:1;fill-rule:nonzero;stroke:none" d="m 14.7227,24.9292 -0.271,0.732 c 0,0 -0.088,0.539 -0.553,0.565 -0.464,0.027 -0.802,-0.22 -0.802,-0.712 0,-0.27 0.181,-0.372 0.292,-0.554 0.202,-0.329 0.357,-0.546 0.357,-0.546 l -0.032,0.342 -0.247,0.408 0.032,0.174 0.201,0.338 0.326,-0.006 0.209,-0.115 0.203,-0.538 0.285,-0.088 z"/></g></g></g></g></svg>