<svg xmlns="http://www.w3.org/2000/svg" viewBox="0 0 45 45"><defs xmlns="http://www.w3.org/2000/svg" id="defs6"><clipPath id="clipPath16" clipPathUnits="userSpaceOnUse"><path id="path18" d="m 45,33.75 c 0,2.76125 -2.23875,5 -5,5 H 5 c -2.76125,0 -5,-2.23875 -5,-5 v -22.5 c 0,-2.76125 2.23875,-5 5,-5 h 35 c 2.76125,0 5,2.23875 5,5 z"/></clipPath></defs><g clip-path="url(#clipPath16)"><path fill="#eeeeee" d="M 45,6.25 H 0 v 32.5 h 45 z"/><path fill="#0170c9" d="M 45,33.775 H 0 v 2.25 h 45 z"/><path fill="#0170c9" d="M 45,8.975 H 0 v 2.25 h 45 z"/><path fill="#c37103" d="m 21.40625,14.42625 c -0.25625,0 -0.465,0.2075 -0.465,0.465 v 0.58625 h -1.3675 v -0.58625 c 0,-0.25625 -0.2075,-0.465 -0.465,-0.465 h -1.765 c -0.25625,0 -0.465,0.2075 -0.465,0.465 V 17.5 H 16.3275 c -0.25625,0 -0.465,0.2075 -0.465,0.465 v 8.47 c 0,0.6825 0.4875,1.39875 1.3975,1.76375 l 3.93375,1.8425 c 0.5,0.27625 0.985,0.4975 1.30625,0.4975 0.32,0 0.80625,-0.22125 1.30625,-0.4975 L 27.74,28.19875 c 0.91,-0.365 1.3975,-1.08125 1.3975,-1.76375 v -8.47 c 0,-0.25625 -0.2075,-0.465 -0.465,-0.465 h -0.55125 v -2.61 c 0,-0.25625 -0.2075,-0.465 -0.465,-0.465 h -1.765 c -0.25625,0 -0.465,0.2075 -0.465,0.465 v 0.58625 h -1.3675 V 14.89 c 0,-0.25625 -0.2075,-0.465 -0.465,-0.465 h -2.1875 z"/><path fill="#0170ca" d="M 22.5,30 17.03125,27.53125 C 16.60375,27.36 16.375,27.02375 16.375,26.70375 V 18.0125 h 0.55125 c 0.25625,0 0.465,-0.2075 0.465,-0.465 v -2.61 h 1.6725 v 0.58625 c 0,0.25625 0.2075,0.465 0.465,0.465 H 20.99 c 0.25625,0 0.465,-0.2075 0.465,-0.465 V 14.9375 h 2.09375 v 0.58625 c 0,0.25625 0.2075,0.465 0.465,0.465 H 25.475 c 0.25625,0 0.465,-0.2075 0.465,-0.465 V 14.9375 h 1.6725 v 2.61 c 0,0.25625 0.2075,0.465 0.465,0.465 h 0.5475 v 8.69125 c 0,0.32 -0.22875,0.65625 -0.65625,0.8275 z"/></g></svg>