<svg xmlns:dc="http://purl.org/dc/elements/1.1/" xmlns:cc="http://creativecommons.org/ns#" xmlns:rdf="http://www.w3.org/1999/02/22-rdf-syntax-ns#" xmlns:svg="http://www.w3.org/2000/svg" xmlns="http://www.w3.org/2000/svg" viewBox="0 0 45 45" style="enable-background:new 0 0 45 45;" xml:space="preserve" version="1.1" id="svg2"><metadata id="metadata8"><rdf:RDF><cc:Work rdf:about=""><dc:format>image/svg+xml</dc:format><dc:type rdf:resource="http://purl.org/dc/dcmitype/StillImage"/></cc:Work></rdf:RDF></metadata><defs id="defs6"><clipPath id="clipPath16" clipPathUnits="userSpaceOnUse"><path id="path18" d="M 0,36 36,36 36,0 0,0 0,36 Z"/></clipPath></defs><g transform="matrix(1.25,0,0,-1.25,0,45)" id="g10"><g id="g12"><g xmlns="http://www.w3.org/2000/svg" clip-path="url(#clipPath16)" id="g14"><g id="g30"><path id="path20" style="fill:#01258d;fill-opacity:1;fill-rule:nonzero;stroke:none" d="M 32,31 4,31 C 1.791,31 0,29.209 0,27 L 0,9 C 0,6.791 1.791,5 4,5 l 28,0 c 2.209,0 4,1.791 4,4 l 0,18 c 0,2.209 -1.791,4 -4,4"/></g><g id="g34"><path id="path30" style="fill:#ffffff;fill-opacity:1;fill-rule:nonzero;stroke:none" d="m 16.7393,16.9932 c 0.073,0.205 0.235,0.73 0.165,1.166 -0.079,0.487 -0.416,0.957 -0.416,0.957 0,0 -0.206,-0.735 0.251,-2.123 m 0.022,-0.067 c 0.215,-0.616 0.551,-1.393 1.157,-2.074 1.747,-1.963 5.16,-2.949 5.16,-2.949 l -2.893,0 c 0,0 -2.189,1.009 -3.326,3.472 -0.983,2.129 -0.583,3.609 -0.583,3.609 0,0 -0.753,-1.182 -0.988,-1.512 -0.236,-0.329 -0.42,-0.505 -0.42,-0.505 0,0 -0.156,0.513 0.192,1.36 0.349,0.847 0.871,1.157 0.871,1.157 0,0 -0.98,0.365 -1.819,-0.125 -0.628,-0.367 -0.792,-1.024 -0.792,-1.024 0,0 -0.432,0.479 0.356,1.41 0.736,0.87 1.667,0.731 1.667,0.731 0,0 -0.302,0.29 -1.059,0.53 -0.683,0.216 -1.466,0.153 -1.466,0.153 0,0 0.294,0.482 1.658,0.447 0.856,-0.022 1.361,-0.558 1.361,-0.558 0,0 -0.426,1.705 -0.755,2.305 -0.234,0.426 -0.507,0.691 -0.507,0.691 0,0 0.752,0.099 1.515,-0.926 0.652,-0.878 0.628,-1.811 0.628,-1.811 0,0 0.209,0.737 0.998,1.342 0.877,0.675 1.58,0.149 1.58,0.149 0,0 -0.683,0.113 -1.188,-0.628 -0.381,-0.557 -0.412,-1.219 -0.412,-1.219 0,0 0.549,0.431 1.549,-0.016 1.072,-0.479 0.887,-1.082 0.887,-1.082 0,0 -0.436,0.714 -1.405,0.714 -0.697,0 -1.019,-0.385 -1.019,-0.385 0,0 0.619,-0.03 1.282,-0.945 0.607,-0.839 0.278,-1.541 0.278,-1.541 0,0 -0.216,0.808 -0.984,1.278 -0.646,0.395 -1.278,0.522 -1.278,0.522 0,0 0.622,-0.481 0.505,-1.4 -0.123,-0.979 -0.75,-1.17 -0.75,-1.17"/></g><g id="g38"><path id="path40" style="fill:#ffffff;fill-opacity:1;fill-rule:nonzero;stroke:none" d="m 18.61,28.813 -1.097,0 0,-1.097 1.097,0 0,1.097 z"/><path id="path41" style="fill:#ffffff;fill-opacity:1;fill-rule:nonzero;stroke:none" d="m 16.926,28.674 -1.097,0 0,-1.097 1.097,0 0,1.097 z"/><path id="path42" style="fill:#ffffff;fill-opacity:1;fill-rule:nonzero;stroke:none" d="m 15.287,28.259 -1.097,0 0,-1.097 1.097,0 0,1.097 z"/><path id="path43" style="fill:#ffffff;fill-opacity:1;fill-rule:nonzero;stroke:none" d="m 13.739,27.58 -1.097,0 0,-1.096 1.097,0 0,1.096 z"/><path id="path44" style="fill:#ffffff;fill-opacity:1;fill-rule:nonzero;stroke:none" d="m 12.324,26.655 -1.097,0 0,-1.097 1.097,0 0,1.097 z"/><path id="path45" style="fill:#ffffff;fill-opacity:1;fill-rule:nonzero;stroke:none" d="m 11.081,25.511 -1.097,0 0,-1.097 1.097,0 0,1.097 z"/><path id="path46" style="fill:#ffffff;fill-opacity:1;fill-rule:nonzero;stroke:none" d="m 10.042,24.177 -1.097,0 0,-1.097 1.097,0 0,1.097 z"/><path id="path47" style="fill:#ffffff;fill-opacity:1;fill-rule:nonzero;stroke:none" d="m 9.238,22.69 -1.097,0 0,-1.096 1.097,0 0,1.096 z"/><path id="path48" style="fill:#ffffff;fill-opacity:1;fill-rule:nonzero;stroke:none" d="m 8.689,21.091 -1.097,0 0,-1.097 1.097,0 0,1.097 z"/><path id="path49" style="fill:#ffffff;fill-opacity:1;fill-rule:nonzero;stroke:none" d="m 8.411,19.424 -1.096,0 0,-1.097 1.096,0 0,1.097 z"/><path id="path50" style="fill:#ffffff;fill-opacity:1;fill-rule:nonzero;stroke:none" d="m 8.411,17.734 -1.096,0 0,-1.096 1.096,0 0,1.096 z"/><path id="path51" style="fill:#ffffff;fill-opacity:1;fill-rule:nonzero;stroke:none" d="m 8.689,16.066 -1.097,0 0,-1.097 1.097,0 0,1.097 z"/><path id="path52" style="fill:#ffffff;fill-opacity:1;fill-rule:nonzero;stroke:none" d="m 9.238,14.468 -1.097,0 0,-1.097 1.097,0 0,1.097 z"/><path id="path53" style="fill:#ffffff;fill-opacity:1;fill-rule:nonzero;stroke:none" d="m 10.042,12.981 -1.097,0 0,-1.097 1.097,0 0,1.097 z"/><path id="path54" style="fill:#ffffff;fill-opacity:1;fill-rule:nonzero;stroke:none" d="m 11.081,11.647 -1.097,0 0,-1.097 1.097,0 0,1.097 z"/><path id="path55" style="fill:#ffffff;fill-opacity:1;fill-rule:nonzero;stroke:none" d="m 12.324,10.503 -1.097,0 0,-1.097 1.097,0 0,1.097 z"/><path id="path56" style="fill:#ffffff;fill-opacity:1;fill-rule:nonzero;stroke:none" d="m 13.739,9.578 -1.097,0 0,-1.097 1.097,0 0,1.097 z"/><path id="path57" style="fill:#ffffff;fill-opacity:1;fill-rule:nonzero;stroke:none" d="m 15.287,8.899 -1.097,0 0,-1.097 1.097,0 0,1.097 z"/><path id="path58" style="fill:#ffffff;fill-opacity:1;fill-rule:nonzero;stroke:none" d="m 16.926,8.484 -1.097,0 0,-1.097 1.097,0 0,1.097 z"/><path id="path59" style="fill:#ffffff;fill-opacity:1;fill-rule:nonzero;stroke:none" d="m 18.61,8.345 -1.097,0 0,-1.097 1.097,0 0,1.097 z"/><path id="path60" style="fill:#ffffff;fill-opacity:1;fill-rule:nonzero;stroke:none" d="m 20.295,8.484 -1.097,0 0,-1.097 1.097,0 0,1.097 z"/><path id="path61" style="fill:#ffffff;fill-opacity:1;fill-rule:nonzero;stroke:none" d="m 21.934,8.899 -1.097,0 0,-1.097 1.097,0 0,1.097 z"/><path id="path62" style="fill:#ffffff;fill-opacity:1;fill-rule:nonzero;stroke:none" d="m 23.481,9.578 -1.097,0 0,-1.097 1.097,0 0,1.097 z"/><path id="path63" style="fill:#ffffff;fill-opacity:1;fill-rule:nonzero;stroke:none" d="m 24.896,10.503 -1.097,0 0,-1.097 1.097,0 0,1.097 z"/><path id="path64" style="fill:#ffffff;fill-opacity:1;fill-rule:nonzero;stroke:none" d="m 26.14,11.647 -1.097,0 0,-1.097 1.097,0 0,1.097 z"/><path id="path65" style="fill:#ffffff;fill-opacity:1;fill-rule:nonzero;stroke:none" d="m 27.178,12.981 -1.096,0 0,-1.097 1.096,0 0,1.097 z"/><path id="path66" style="fill:#ffffff;fill-opacity:1;fill-rule:nonzero;stroke:none" d="m 27.982,14.468 -1.097,0 0,-1.097 1.097,0 0,1.097 z"/><path id="path67" style="fill:#ffffff;fill-opacity:1;fill-rule:nonzero;stroke:none" d="m 28.531,16.066 -1.097,0 0,-1.097 1.097,0 0,1.097 z"/><path id="path68" style="fill:#ffffff;fill-opacity:1;fill-rule:nonzero;stroke:none" d="m 28.81,17.734 -1.097,0 0,-1.096 1.097,0 0,1.096 z"/><path id="path69" style="fill:#ffffff;fill-opacity:1;fill-rule:nonzero;stroke:none" d="m 28.81,19.424 -1.097,0 0,-1.097 1.097,0 0,1.097 z"/><path id="path70" style="fill:#ffffff;fill-opacity:1;fill-rule:nonzero;stroke:none" d="m 28.531,21.091 -1.097,0 0,-1.097 1.097,0 0,1.097 z"/><path id="path71" style="fill:#ffffff;fill-opacity:1;fill-rule:nonzero;stroke:none" d="m 27.982,22.69 -1.097,0 0,-1.096 1.097,0 0,1.096 z"/><path id="path72" style="fill:#ffffff;fill-opacity:1;fill-rule:nonzero;stroke:none" d="m 27.178,24.177 -1.096,0 0,-1.097 1.096,0 0,1.097 z"/><path id="path73" style="fill:#ffffff;fill-opacity:1;fill-rule:nonzero;stroke:none" d="m 26.14,25.511 -1.097,0 0,-1.097 1.097,0 0,1.097 z"/><path id="path74" style="fill:#ffffff;fill-opacity:1;fill-rule:nonzero;stroke:none" d="m 24.896,26.655 -1.097,0 0,-1.097 1.097,0 0,1.097 z"/><path id="path75" style="fill:#ffffff;fill-opacity:1;fill-rule:nonzero;stroke:none" d="m 23.481,27.58 -1.097,0 0,-1.096 1.097,0 0,1.096 z"/><path id="path76" style="fill:#ffffff;fill-opacity:1;fill-rule:nonzero;stroke:none" d="m 21.934,28.259 -1.097,0 0,-1.097 1.097,0 0,1.097 z"/><path id="path77" style="fill:#ffffff;fill-opacity:1;fill-rule:nonzero;stroke:none" d="m 20.295,28.674 -1.097,0 0,-1.097 1.097,0 0,1.097 z"/></g></g></g></g></svg>