<svg xmlns:dc="http://purl.org/dc/elements/1.1/" xmlns:cc="http://creativecommons.org/ns#" xmlns:rdf="http://www.w3.org/1999/02/22-rdf-syntax-ns#" xmlns:svg="http://www.w3.org/2000/svg" xmlns="http://www.w3.org/2000/svg" viewBox="0 0 45 45" style="enable-background:new 0 0 45 45;" xml:space="preserve" version="1.1" id="svg2"><metadata id="metadata8"><rdf:RDF><cc:Work rdf:about=""><dc:format>image/svg+xml</dc:format><dc:type rdf:resource="http://purl.org/dc/dcmitype/StillImage"/></cc:Work></rdf:RDF></metadata><defs id="defs6"><clipPath id="clipPath16" clipPathUnits="userSpaceOnUse"><path id="path18" d="M 4,31 C 1.791,31 0,29.209 0,27 L 0,27 0,9 C 0,6.791 1.791,5 4,5 l 0,0 28,0 c 2.209,0 4,1.791 4,4 l 0,0 0,18 c 0,2.209 -1.791,4 -4,4 l 0,0 -28,0 z"/></clipPath></defs><g transform="matrix(1.25,0,0,-1.25,0,45)" id="g10"><g id="g12"><g xmlns="http://www.w3.org/2000/svg" clip-path="url(#clipPath16)" id="g14"><g id="g30"><path id="path20" style="fill:#008400;fill-opacity:1;fill-rule:nonzero;stroke:none" d="m 0,5 12,0 0,25.999 -12,0 L 0,5 z"/><path id="path22" style="fill:#eeeeee;fill-opacity:1;fill-rule:nonzero;stroke:none" d="M 24,5 12,5 12,31 24,31 24,5 z"/><path id="path24" style="fill:#0000bd;fill-opacity:1;fill-rule:nonzero;stroke:none" d="m 24,5 12,0 0,25.999 -12,0 L 24,5 z"/></g><g id="g34"><path id="path30" style="fill:#000000;fill-opacity:1;fill-rule:nonzero;stroke:none" d="m 18.6973,16.7227 c 0,0 0.609,-0.238 1.348,0.045 0.935,0.359 1.07,0.959 1.07,0.959 0,0 0.389,0 1.368,1.028 0.786,0.824 0.779,1.184 0.779,1.184 0,0 -0.122,-0.082 -0.412,-0.165 -0.289,-0.083 -0.502,-0.098 -0.502,-0.098 l -1.925,-0.733 -1.652,-1.914 -0.074,-0.306 z"/><path id="path32" style="fill:#000000;fill-opacity:1;fill-rule:nonzero;stroke:none" d="m 13.3657,19.6758 c 0,0 -0.213,0.015 -0.503,0.098 -0.289,0.083 -0.412,0.165 -0.412,0.165 0,0 -0.006,-0.36 0.78,-1.184 0.979,-1.028 1.367,-1.028 1.367,-1.028 0,0 0.136,-0.6 1.071,-0.959 0.738,-0.283 1.348,-0.045 1.348,-0.045 l -0.075,0.306 -1.649,1.913 -1.927,0.734 z"/><path id="path34" style="fill:#000000;fill-opacity:1;fill-rule:nonzero;stroke:none" d="m 17.2622,15.9873 -0.315,-0.686 c 0,0 0.352,-0.357 0.91,-0.357 0.557,0 0.91,0.357 0.91,0.357 l -0.316,0.686 -1.189,0 z"/><path id="path36" style="fill:#ffffff;fill-opacity:1;fill-rule:nonzero;stroke:none" d="m 17.8569,15.915 -0.471,-0.247 c 0,0 -0.345,0.842 -0.444,1.36 0,0 -0.273,-0.125 -0.844,0.128 -0.633,0.28 -0.8,0.717 -0.8,0.882 0,0.165 -0.041,0.477 -0.723,0.936 -0.682,0.458 -1.209,0.702 -1.209,0.702 0,0 2.491,-0.202 2.973,-1.167 0.325,-0.65 0.722,-0.536 0.722,-0.536 0.068,0.183 0.156,0.356 0.255,0.495 0,0 0.029,0.182 -0.177,0.093 -0.102,-0.043 -0.176,-0.234 -0.176,-0.234 0,0 -0.189,0.105 -0.065,0.364 0.062,0.13 0.2,0.188 0.2,0.188 0,0 0.047,0.494 0.447,0.494 0.712,0 0.506,-0.494 0.771,-0.799 0.131,-0.152 0.25,-0.368 0.337,-0.602 0,0 0.397,-0.113 0.722,0.537 0.482,0.965 2.974,1.167 2.974,1.167 0,0 -0.528,-0.244 -1.209,-0.702 -0.683,-0.459 -0.724,-0.771 -0.724,-0.936 0,-0.165 -0.167,-0.602 -0.801,-0.882 -0.57,-0.253 -0.843,-0.128 -0.843,-0.128 -0.099,-0.519 -0.444,-1.36 -0.444,-1.36 l -0.471,0.247 z"/></g><g id="g38"><path id="path40" style="fill:#e91e31;fill-opacity:1;fill-rule:nonzero;stroke:none" d="m 8.6001,24.4824 c 0.224,-0.659 0.838,-1.618 0.838,-1.618 l -1.426,0 c 0,0 -0.281,0.941 -0.275,1.33 l 0.863,0.288 z"/><path id="path42" style="fill:#d0d0d3;fill-opacity:1;fill-rule:nonzero;stroke:none" d="m 8.6001,24.4824 c -0.091,0.268 -0.241,0.562 -0.241,0.562 0,0 1.01,0.62 0.948,1.498 -0.049,0.684 0.172,1.172 0.172,1.172 0,0 -0.056,-0.026 -0.123,-0.026 -0.068,0 -0.138,0.012 -0.138,0.012 0,0 0.564,0.676 0.494,1.365 -0.071,0.688 -0.287,0.964 -0.287,0.964 0,0 -0.114,-0.18 -0.243,-0.298 -0.129,-0.118 -0.274,-0.125 -0.274,-0.125 0,0 0.067,0.168 0.035,0.38 -0.014,0.094 -0.071,0.141 -0.071,0.141 0,0 -0.286,-0.521 -0.851,-0.953 -0.564,-0.431 -0.898,-0.875 -0.309,-1.779 0.588,-0.905 0.237,-1.259 0.237,-1.259 0,0 -0.179,0.278 -0.184,0.64 -0.006,0.363 -0.197,0.619 -0.48,0.619 -0.314,0 -0.379,-0.401 -0.379,-0.401 0,0 -0.071,0 -0.115,-0.103 -0.044,-0.103 -0.021,-0.165 -0.021,-0.165 0,0 0.101,0.052 0.224,0.028 0.118,-0.022 0.165,-0.258 0.165,-0.258 0,0 -0.212,-0.079 -0.212,-0.706 0,-0.4 0.212,-0.746 0.212,-0.746 l -0.29,0 -0.288,0.546 -0.078,-0.225 0.362,-0.589 0.388,0 -0.303,-1.002 0.166,-0.049 0.416,0.948 c 0,0 0.211,-0.091 0.205,-0.479 l 0.863,0.288 z"/><path id="path44" style="fill:#d0d0d3;fill-opacity:1;fill-rule:nonzero;stroke:none" d="m 2.7017,24.4824 c 0.091,0.268 0.241,0.562 0.241,0.562 0,0 -1.011,0.62 -0.948,1.498 0.049,0.684 -0.172,1.172 -0.172,1.172 0,0 0.055,-0.026 0.123,-0.026 0.068,0 0.138,0.012 0.138,0.012 0,0 -0.565,0.676 -0.494,1.365 0.07,0.688 0.286,0.964 0.286,0.964 0,0 0.114,-0.18 0.243,-0.298 0.13,-0.118 0.275,-0.125 0.275,-0.125 0,0 -0.067,0.168 -0.035,0.38 0.014,0.094 0.071,0.141 0.071,0.141 0,0 0.286,-0.521 0.85,-0.953 0.565,-0.431 0.899,-0.875 0.31,-1.779 -0.588,-0.905 -0.238,-1.259 -0.238,-1.259 0,0 0.18,0.278 0.185,0.64 0.005,0.363 0.197,0.619 0.479,0.619 0.315,0 0.38,-0.401 0.38,-0.401 0,0 0.071,0 0.115,-0.103 0.044,-0.103 0.02,-0.165 0.02,-0.165 0,0 -0.1,0.052 -0.223,0.028 -0.118,-0.022 -0.165,-0.258 -0.165,-0.258 0,0 0.212,-0.079 0.212,-0.706 0,-0.4 -0.212,-0.746 -0.212,-0.746 l 0.29,0 0.288,0.546 0.078,-0.225 -0.362,-0.589 -0.388,0 0.303,-1.002 -0.166,-0.049 -0.416,0.948 c 0,0 -0.211,-0.091 -0.205,-0.479 0.006,-0.389 -0.275,-1.33 -0.275,-1.33 l -1.426,0 c 0,0 0.614,0.959 0.838,1.618"/><path id="path46" style="fill:#ffe200;fill-opacity:1;fill-rule:nonzero;stroke:none" d="m 5.6509,24.1904 c 0,0 -1.03,0.823 -1.03,2.063 0,0.674 0.51,1.009 1.03,1.009 0.52,0 1.029,-0.335 1.029,-1.009 0,-1.24 -1.029,-2.063 -1.029,-2.063"/><path id="path48" style="fill:#087bce;fill-opacity:1;fill-rule:nonzero;stroke:none" d="m 5.6509,28.7334 0.182,-0.628 0.653,0.021 -0.54,-0.368 0.221,-0.614 -0.516,0.4 -0.517,-0.4 0.222,0.614 -0.54,0.368 0.653,-0.021 0.182,0.628 z"/><path id="path50" style="fill:#ffe200;fill-opacity:1;fill-rule:nonzero;stroke:none" d="m 7.0601,22.7275 c -0.004,0.129 -0.001,0.562 0.212,0.72 0.015,0.011 0.038,0.028 0.058,0.044 -0.025,-0.003 -0.055,-0.008 -0.079,-0.012 -0.09,-0.013 -0.203,-0.03 -0.323,-0.007 -0.139,0.026 -0.249,0.087 -0.339,0.136 -0.044,0.024 -0.11,0.061 -0.133,0.062 0,-0.002 -0.01,-0.009 -0.025,-0.032 0.005,-0.008 0.064,-0.029 0.1,-0.047 0.054,-0.028 0.11,-0.057 0.153,-0.098 0.074,-0.073 0.11,-0.162 0.101,-0.252 -0.01,-0.098 -0.071,-0.188 -0.172,-0.253 -0.184,-0.117 -0.368,-0.087 -0.56,-0.055 -0.115,0.019 -0.244,0.041 -0.402,0.041 -0.158,0 -0.288,-0.022 -0.402,-0.041 -0.194,-0.031 -0.378,-0.062 -0.561,0.055 -0.101,0.065 -0.162,0.156 -0.172,0.254 -0.009,0.09 0.027,0.179 0.102,0.251 0.043,0.041 0.098,0.07 0.152,0.098 0.037,0.019 0.098,0.051 0.111,0.069 -0.029,0.005 -0.039,0.011 -0.039,0.011 -0.017,-0.001 -0.085,-0.038 -0.13,-0.063 -0.089,-0.049 -0.2,-0.11 -0.339,-0.136 -0.12,-0.022 -0.232,-0.006 -0.323,0.007 -0.023,0.004 -0.052,0.008 -0.076,0.011 0.019,-0.016 0.04,-0.032 0.055,-0.043 0.214,-0.158 0.217,-0.591 0.213,-0.72 l -0.3,0.01 c 0.006,0.205 -0.037,0.429 -0.091,0.469 -0.101,0.074 -0.309,0.229 -0.177,0.445 0.103,0.173 0.287,0.146 0.421,0.125 0.074,-0.011 0.151,-0.023 0.222,-0.009 0.092,0.017 0.173,0.061 0.251,0.104 0.14,0.076 0.374,0.204 0.553,-0.069 0.063,-0.095 0.059,-0.177 0.045,-0.229 -0.034,-0.132 -0.157,-0.196 -0.257,-0.248 -0.028,-0.015 -0.071,-0.037 -0.083,-0.048 -0.011,-0.006 -0.001,-0.021 0.024,-0.037 0.083,-0.053 0.167,-0.041 0.35,-0.011 0.119,0.02 0.268,0.045 0.451,0.045 0.183,0 0.331,-0.025 0.451,-0.045 0.184,-0.031 0.267,-0.042 0.349,0.012 0.026,0.015 0.035,0.03 0.036,0.033 -0.023,0.014 -0.066,0.036 -0.095,0.051 -0.099,0.052 -0.223,0.116 -0.257,0.248 -0.014,0.052 -0.017,0.134 0.045,0.229 0.18,0.274 0.414,0.145 0.554,0.069 0.078,-0.043 0.159,-0.087 0.25,-0.104 0.071,-0.014 0.148,-0.002 0.222,0.009 0.133,0.02 0.317,0.049 0.422,-0.125 0.131,-0.216 -0.077,-0.371 -0.177,-0.445 -0.054,-0.04 -0.098,-0.264 -0.091,-0.469 l -0.3,-0.01 z"/><path id="path52" style="fill:#ffe200;fill-opacity:1;fill-rule:nonzero;stroke:none" d="m 7.0205,27.5586 -0.3,0 0,0.283 c 0.002,0.046 0.033,0.408 0.678,0.474 0.144,0.015 0.235,0.08 0.23,0.166 -0.004,0.077 -0.083,0.155 -0.227,0.155 -0.099,0 -0.206,-0.049 -0.311,-0.096 -0.169,-0.077 -0.425,-0.19 -0.578,0.064 -0.116,0.195 0.053,0.378 0.176,0.512 0.047,0.051 0.135,0.147 0.14,0.183 -0.012,-0.016 -0.114,-0.047 -0.196,-0.073 -0.212,-0.065 -0.532,-0.163 -0.982,-0.163 -0.449,0 -0.769,0.098 -0.981,0.163 -0.082,0.025 -0.185,0.062 -0.215,0.053 0.024,-0.016 0.111,-0.112 0.158,-0.163 0.124,-0.134 0.292,-0.317 0.177,-0.511 -0.154,-0.256 -0.41,-0.142 -0.579,-0.065 -0.104,0.047 -0.212,0.096 -0.311,0.096 -0.144,0 -0.223,-0.078 -0.227,-0.155 -0.004,-0.086 0.086,-0.151 0.231,-0.166 0.644,-0.066 0.676,-0.428 0.678,-0.469 l 0,-0.288 -0.3,0 0,0.282 0,0 c -0.003,0 -0.045,0.139 -0.409,0.176 -0.358,0.038 -0.51,0.276 -0.499,0.481 0.011,0.218 0.195,0.438 0.526,0.438 0.163,0 0.314,-0.067 0.434,-0.122 0.061,-0.026 0.161,-0.07 0.192,-0.066 -0.005,0.026 -0.085,0.114 -0.133,0.166 -0.123,0.134 -0.352,0.383 -0.122,0.596 0.125,0.116 0.285,0.067 0.487,0.004 0.206,-0.063 0.489,-0.15 0.893,-0.15 0.405,0 0.687,0.087 0.893,0.15 0.203,0.063 0.363,0.112 0.488,-0.004 0.23,-0.213 10e-4,-0.462 -0.122,-0.596 -0.048,-0.052 -0.129,-0.14 -0.135,-0.175 0.031,0.003 0.133,0.049 0.193,0.075 0.121,0.055 0.271,0.122 0.434,0.122 0.327,0 0.516,-0.226 0.527,-0.438 0.01,-0.206 -0.141,-0.443 -0.499,-0.481 -0.379,-0.038 -0.409,-0.188 -0.409,-0.189 l 0,-0.269 z"/></g></g></g></g></svg>