<svg xmlns:dc="http://purl.org/dc/elements/1.1/" xmlns:cc="http://creativecommons.org/ns#" xmlns:rdf="http://www.w3.org/1999/02/22-rdf-syntax-ns#" xmlns:svg="http://www.w3.org/2000/svg" xmlns="http://www.w3.org/2000/svg" viewBox="0 0 45 45" style="enable-background:new 0 0 45 45;" xml:space="preserve" version="1.1" id="svg2"><metadata id="metadata8"><rdf:RDF><cc:Work rdf:about=""><dc:format>image/svg+xml</dc:format><dc:type rdf:resource="http://purl.org/dc/dcmitype/StillImage"/></cc:Work></rdf:RDF></metadata><defs id="defs6"><clipPath id="clipPath16" clipPathUnits="userSpaceOnUse"><path id="path18" d="M 0,36 36,36 36,0 0,0 0,36 Z"/></clipPath></defs><g transform="matrix(1.25,0,0,-1.25,0,45)" id="g10"><g id="g12"><g clip-path="url(#clipPath16)" id="g14"><g id="g20"><path id="path22" style="fill:#f34249;fill-opacity:1;fill-rule:nonzero;stroke:none" d="M 36,18 V 9 C 36,6.791 34.209,5 32,5 H 18 v 13 z"/></g><g id="g24"><path id="path26" style="fill:#ffcc33;fill-opacity:1;fill-rule:nonzero;stroke:none" d="M 18,5 H 4 C 1.791,5 0,6.791 0,9 v 9 h 18 z"/></g><g id="g28"><path id="path30" style="fill:#ffcc33;fill-opacity:1;fill-rule:nonzero;stroke:none" d="m 18,18 v 13 h 14 c 2.209,0 4,-1.791 4,-4 v -9 z"/></g><g id="g32"><path id="path34" style="fill:#f34249;fill-opacity:1;fill-rule:nonzero;stroke:none" d="m 0,18 v 9 c 0,2.209 1.791,4 4,4 H 18 V 18 Z"/></g><g id="g36"><path id="path38" style="fill:#eeeeee;fill-opacity:1;fill-rule:nonzero;stroke:none" d="m 25.5264,10.0273 h -7.526 v 2.946 h 7.526 v 5.027 h 2.946 v -5.027 h 7.528 v -2.946 h -7.528 v -5.027 h -2.946 z"/></g><g id="g40"><path id="path41" style="fill:#f34249;fill-opacity:1;fill-rule:nonzero;stroke:none" d="m 22.8447,28.6123 v -6.379 c 0,0 -0.002,-0.72 0.909,-0.72 0.911,0 0.908,0.72 0.908,0.72 v 1.538 h 1.343 v -3.73 c 0,0 -0.061,-0.926 0.995,-0.926 1.056,0 0.994,0.926 0.994,0.926 v 3.73 h 1.343 v -1.538 c 0,0 -0.002,-0.72 0.909,-0.72 0.912,0 0.909,0.72 0.909,0.72 v 6.379 z"/><path id="path42" style="fill:#339900;fill-opacity:1;fill-rule:nonzero;stroke:none" d="m 27,29.8193 c -0.218,0 -0.396,-0.178 -0.396,-0.396 0,-0.218 0.178,-0.396 0.396,-0.396 0.218,0 0.395,0.178 0.395,0.396 0,0.218 -0.177,0.396 -0.395,0.396 m 0,-1.226 c -0.458,0 -0.831,0.372 -0.831,0.83 0,0.458 0.373,0.831 0.831,0.831 0.458,0 0.83,-0.373 0.83,-0.831 0,-0.458 -0.372,-0.83 -0.83,-0.83"/><path id="path43" style="fill:#339900;fill-opacity:1;fill-rule:nonzero;stroke:none" d="m 23.2402,29.4233 c 0,0.218 -0.178,0.396 -0.396,0.396 -0.217,0 -0.395,-0.178 -0.395,-0.396 0,-0.218 0.178,-0.396 0.395,-0.396 0.218,0 0.396,0.178 0.396,0.396 m 8.31,0 c 0,0.218 -0.178,0.396 -0.396,0.396 -0.218,0 -0.394,-0.178 -0.394,-0.396 0,-0.218 0.176,-0.396 0.394,-0.396 0.218,0 0.396,0.178 0.396,0.396 m 0.44,-0.003 c 0,-0.38 -0.271,-0.701 -0.62,-0.79 v -6.4 c 0,-0.03 0,-0.36 -0.271,-0.63 -0.199,-0.2 -0.489,-0.301 -0.849,-0.301 -0.37,0 -0.66,0.101 -0.861,0.301 -0.259,0.27 -0.269,0.6 -0.269,0.63 v 1.319 h -0.91 v -3.509 c 0,0 0.03,-0.46 -0.29,-0.8 -0.21,-0.231 -0.52,-0.34 -0.92,-0.34 -0.401,0 -0.71,0.109 -0.92,0.34 -0.32,0.34 -0.29,0.8 -0.29,0.82 v 3.489 h -0.91 v -1.319 c 0,-0.03 -0.01,-0.36 -0.27,-0.63 -0.2,-0.2 -0.49,-0.301 -0.86,-0.301 -0.361,0 -0.651,0.101 -0.85,0.301 -0.27,0.27 -0.27,0.6 -0.27,0.63 l -0.01,6.4 c -0.351,0.089 -0.61,0.419 -0.61,0.79 0,0.46 0.379,0.83 0.83,0.83 0.46,0 0.839,-0.37 0.839,-0.83 0,-0.38 -0.269,-0.701 -0.62,-0.79 v -6.4 c 0,-0.08 0.051,-0.5 0.691,-0.5 0.25,0 0.429,0.06 0.55,0.18 0.14,0.139 0.14,0.32 0.14,0.32 v 1.76 h 1.779 v -3.95 c 0,-0.01 -0.009,-0.3 0.181,-0.5 0.13,-0.14 0.33,-0.21 0.6,-0.21 0.269,0 0.48,0.07 0.61,0.21 0.18,0.2 0.17,0.48 0.17,0.49 v 3.96 h 1.77 v -1.76 c 0.009,-0.08 0.049,-0.5 0.7,-0.5 0.24,0 0.429,0.06 0.54,0.18 0.139,0.139 0.15,0.32 0.15,0.32 l -0.011,6.4 c -0.349,0.089 -0.609,0.419 -0.609,0.79 0,0.46 0.38,0.83 0.83,0.83 0.46,0 0.84,-0.37 0.84,-0.83"/></g><g id="g44"><path id="path45" style="fill:#0038a6;fill-opacity:1;fill-rule:nonzero;stroke:none" d="m 5.0908,14.9316 c 0,0 -0.066,-0.239 0.112,-0.429 0.165,-0.175 0.455,-0.273 0.455,-0.273 0,0 0.013,0.073 0.327,0.2 0.318,0.128 0.575,0.134 0.622,0.037 0.046,-0.097 -0.193,-0.217 -0.473,-0.268 -0.253,-0.047 -0.506,-0.052 -0.506,-0.052 0,0 -0.047,-0.076 -0.151,-0.149 -0.105,-0.071 -0.158,-0.146 -0.158,-0.146 0,0 0.046,-0.158 0.522,-0.081 0.526,0.086 0.375,0.211 0.894,0.29 0.341,0.053 0.821,0.075 1.196,0.018 0.953,-0.146 2.009,-0.88 2.326,-1.947 0.379,-1.273 -0.021,-2.13 -0.576,-2.76 -0.725,-0.825 -1.712,-1.122 -1.712,-1.122 l 0.884,-1.346 c 0,0 0.123,0.321 0.503,0.702 1.009,1.012 3.173,1.595 3.491,3.859 0.122,0.871 0.153,1.658 -0.523,3.072 -0.779,1.628 -2.204,2.068 -2.204,2.068 0,0 0.077,0.158 0.077,0.356 0,0.206 -0.125,0.292 -0.125,0.292 0,0 -0.109,-0.107 -0.428,-0.226 -0.319,-0.118 -0.464,-0.105 -0.464,-0.105 0,0 -0.006,0.05 0.069,0.297 0.03,0.1 -0.014,0.213 -0.014,0.213 0,0 -0.044,-0.122 -0.283,-0.283 -0.239,-0.161 -0.374,-0.221 -0.374,-0.221 0,0 -0.155,0.021 -0.489,0.004 -0.326,-0.018 -0.827,-0.071 -1.024,-0.14 -0.812,-0.282 -1.076,-0.603 -1.117,-0.877 -0.024,-0.164 0.015,-0.281 0.015,-0.281 0,0 0.045,-0.305 -0.206,-0.554 -0.251,-0.249 -0.666,-0.148 -0.666,-0.148"/><path id="path46" style="fill:#f34249;fill-opacity:1;fill-rule:nonzero;stroke:none" d="m 10.2187,6.2686 c 0,0 -0.999,-0.261 -1.292,0.331 -0.303,0.612 0.443,1.726 0.443,1.726 0,0 -1.203,-0.338 -2.093,0.163 -0.658,0.37 -1.027,0.862 -1.26,1.266 -0.194,0.334 -0.415,0.584 -0.798,0.584 -0.398,0 -0.419,-0.301 -0.419,-0.301 0,0 0.119,0.131 0.28,0.131 0.259,0 0.423,-0.39 0.423,-0.659 0,-0.092 -0.011,-0.124 -0.011,-0.124 0,0 -0.221,0.004 -0.448,-0.055 -0.189,-0.051 -0.321,-0.158 -0.444,-0.255 -0.102,-0.082 -0.139,-0.109 -0.139,-0.109 0,0 0.395,0.078 0.655,-0.084 0.408,-0.255 0.502,-0.705 1.228,-0.979 0.339,-0.128 0.62,-0.136 0.741,-0.141 0.161,-0.007 0.304,-0.038 0.428,-0.026 0.218,0.02 0.364,0.094 0.364,0.094 0,0 -0.147,-0.25 -0.696,-0.301 -0.501,-0.045 -0.731,0.156 -0.731,0.156 0,0 -0.076,-0.209 0.062,-0.3 0.166,-0.109 0.549,-0.187 0.91,-0.383 0.476,-0.257 0.866,-0.867 1.567,-1.079 0.723,-0.218 1.23,0.345 1.23,0.345"/><path id="path47" style="fill:#f34249;fill-opacity:1;fill-rule:nonzero;stroke:none" d="m 12.1377,9.873 c 0,0 -0.155,-0.238 -0.561,-0.597 -0.407,-0.358 -0.835,-0.633 -0.835,-0.633 0,0 -0.007,-0.323 0.471,-0.719 0.391,-0.325 0.789,-0.289 0.789,-0.289 0,0 -0.309,0.274 -0.278,0.82 0.032,0.561 0.414,1.418 0.414,1.418"/><path id="path48" style="fill:#f34249;fill-opacity:1;fill-rule:nonzero;stroke:none" d="m 10.4126,10.9922 c 0,0 -0.212,-0.646 -0.602,-0.921 -0.379,-0.268 -0.898,-0.22 -0.898,-0.22 0,0 0.381,-0.157 0.474,-0.314 0.092,-0.157 0.009,-0.446 0.009,-0.446 0,0 0.415,0.329 0.736,0.94 0.303,0.578 0.281,0.961 0.281,0.961"/><path id="path49" style="fill:#f34249;fill-opacity:1;fill-rule:nonzero;stroke:none" d="m 12.8765,11.5342 c 0,0 0.055,0.125 0.022,0.528 -0.044,0.539 -0.278,1.696 -0.278,1.696 0,0 0.292,-0.416 0.755,-0.912 0.25,-0.268 0.384,-0.326 0.384,-0.326 0,0 -0.417,-0.053 -0.497,-0.375 -0.078,-0.314 0.196,-0.796 0.196,-0.796 0,0 -0.249,0.252 -0.379,0.268 -0.119,0.014 -0.203,-0.083 -0.203,-0.083"/><path id="path50" style="fill:#f34249;fill-opacity:1;fill-rule:nonzero;stroke:none" d="m 10.2344,16.6094 0.026,-0.028 c 0,0 0.257,-0.026 0.963,-0.643 0.755,-0.66 0.826,-0.936 0.826,-0.936 0,0 -0.026,0.359 0.224,0.586 0.261,0.235 0.6,0.157 0.6,0.157 0,0 -0.208,0.272 -0.006,0.577 0.235,0.354 0.747,0.394 0.747,0.394 0,0 -0.144,0.132 -0.352,0.114 -0.451,-0.041 -1.12,-0.466 -1.503,-0.523 -0.261,-0.038 -0.551,0.013 -0.551,0.013 0,0 0.025,0.083 0.363,0.367 0.212,0.178 0.258,0.404 0.258,0.404 0,0 -0.259,-0.245 -0.699,-0.351 -0.441,-0.106 -0.896,-0.131 -0.896,-0.131"/><path id="path51" style="fill:#f34249;fill-opacity:1;fill-rule:nonzero;stroke:none" d="m 7.4214,14.6709 c 0,0 0.353,-0.459 0.449,-0.571 0.096,-0.112 0.222,-0.205 0.222,-0.205 0,0 0.006,-0.064 -0.04,-0.16 -0.045,-0.095 -0.105,-0.159 -0.105,-0.159 0,0 0.076,-0.021 0.202,0.02 0.125,0.042 0.167,0.11 0.167,0.11 0,0 0.252,-0.216 0.362,-0.494 0.11,-0.278 0.024,-0.453 0.024,-0.453 0,0 0.241,0.112 0.3,0.412 0.065,0.331 -0.177,0.471 -0.193,0.819 -0.011,0.253 0.214,0.327 0.214,0.409 0,0.084 -0.367,-0.06 -0.982,0.039 -0.439,0.069 -0.62,0.233 -0.62,0.233"/><path id="path52" style="fill:#eeeeee;fill-opacity:1;fill-rule:nonzero;stroke:none" d="m 7.167,15.2734 c 0,-0.096 -0.083,-0.174 -0.185,-0.174 -0.102,0 -0.185,0.078 -0.185,0.174 0,0.096 0.083,0.174 0.185,0.174 0.102,0 0.185,-0.078 0.185,-0.174"/></g><g id="g54"><path id="path56" style="fill:#eeeeee;fill-opacity:1;fill-rule:nonzero;stroke:none" d="m 7.4766,28.7217 c 0,0 -0.033,-0.219 0.211,-0.422 0.198,-0.164 0.614,-0.123 0.862,0.022 0.307,0.179 0.791,0.188 0.791,0.188 0,0 -0.111,0.201 -0.323,0.201 -0.286,0 -0.691,-0.3 -1.02,-0.3 -0.294,0 -0.521,0.311 -0.521,0.311"/><path id="path57" style="fill:#eeeeee;fill-opacity:1;fill-rule:nonzero;stroke:none" d="m 7.6357,28.0688 c 0,0 -0.033,-0.551 0.717,-0.551 0.742,0 0.94,0.306 0.918,0.339 -0.022,0.031 -0.136,-0.028 -0.237,-0.06 -0.086,-0.028 -0.135,-0.03 -0.157,-0.056 -0.022,-0.027 -0.022,-0.083 -0.022,-0.083 0,0 -0.052,0.035 -0.13,0.046 -0.078,0.01 -0.124,-0.012 -0.167,0.028 -0.023,0.02 -0.024,0.055 -0.026,0.11 -0.004,0.075 -0.008,0.16 0.007,0.191 0.011,0.021 0.055,0.027 0.055,0.027 0,0 10e-4,0.053 0.019,0.106 0.017,0.052 0.039,0.07 0.039,0.07 0,0 0.026,-0.019 0.059,-0.059 0.033,-0.041 0.068,-0.097 0.068,-0.097 0,0 0.173,0.023 0.336,0.088 0.142,0.057 0.274,0.101 0.274,0.28 0,0.221 -0.192,0.561 -0.429,0.561 -0.103,0 -0.22,-0.075 -0.324,-0.121 -0.105,-0.045 -0.153,-0.061 -0.153,-0.061 0,0 -0.01,-0.058 -0.026,-0.105 -0.016,-0.047 -0.041,-0.091 -0.041,-0.091 0,0 -0.026,0.016 -0.067,0.069 -0.04,0.054 -0.057,0.096 -0.057,0.096 0,0 -0.077,-0.012 -0.156,0.068 -0.108,0.111 -0.142,0.266 -0.142,0.266 0,0 -0.124,0.076 -0.102,0.181 0.011,0.051 0.036,0.088 0.155,0.13 0.136,0.047 0.325,0.125 0.411,0.178 0.086,0.053 0.186,0.194 0.321,0.256 0.134,0.063 0.882,0.29 1.198,0.273 0.315,-0.017 0.401,-0.165 0.401,-0.165 0,0 0.164,0.014 0.203,-0.091 0.039,-0.104 -0.04,-0.231 -0.04,-0.231 0,0 0.062,-0.258 0.301,-0.578 0.238,-0.321 0.426,-0.377 0.426,-0.377 0,0 -0.099,-0.09 -0.199,-0.09 -0.081,0 -0.155,0.042 -0.155,0.042 0,0 0.148,-0.189 0.171,-0.522 0.026,-0.399 0.25,-0.576 0.25,-0.576 0,0 -0.107,-0.065 -0.216,-0.042 -0.109,0.023 -0.191,0.094 -0.191,0.094 0,0 0.13,-0.229 0.132,-0.535 0.001,-0.314 0.16,-0.488 0.16,-0.488 0,0 -0.1,-0.039 -0.265,0.05 -0.134,0.073 -0.223,0.159 -0.223,0.159 0,0 0.096,-0.213 0.062,-0.6 -0.043,-0.496 0.21,-0.71 0.21,-0.71 0,0 -0.135,-0.043 -0.292,0.039 -0.157,0.083 -0.212,0.185 -0.212,0.185 0,0 -0.044,-0.427 0.291,-0.773 0.489,-0.506 0.616,-0.983 0.727,-1.224 0.123,-0.268 0.95,-0.523 1.123,0 0.157,0.473 -0.183,1.008 -0.42,1.203 -0.276,0.226 -0.865,0.941 -0.865,1.638 0,1.376 1.776,1.857 1.818,2.794 0.018,0.391 -0.406,0.594 -0.735,0.459 -0.346,-0.142 -0.398,-0.424 -0.256,-0.933 0.097,-0.35 -0.019,-0.598 -0.145,-0.755 -0.285,-0.359 -0.667,-0.339 -0.667,-0.339 0,0 0.341,0.268 0.341,0.783 0,0.515 -0.171,0.423 -0.171,0.812 0,0.388 0.295,0.957 1.095,0.957 0.799,0 1.046,-0.575 1.046,-0.957 0,-1.009 -1.079,-1.406 -1.611,-2.233 -0.222,-0.344 -0.18,-0.617 -0.18,-0.617 0,0 0.199,0.467 0.655,0.799 0.414,0.301 0.534,0.556 0.534,0.556 0,0 0.143,-0.23 -0.543,-0.842 -0.552,-0.493 -0.505,-0.922 -0.505,-0.922 0,0 0.212,0.386 0.52,0.639 0.326,0.269 0.492,0.54 0.492,0.54 0,0 0.12,-0.265 -0.449,-0.791 -0.433,-0.401 -0.336,-0.738 -0.336,-0.738 0,0 0.117,0.293 0.398,0.524 0.328,0.271 0.44,0.482 0.44,0.482 0,0 0.109,-0.25 -0.325,-0.647 -0.383,-0.366 -0.304,-0.606 -0.304,-0.606 0,0 0.089,0.19 0.343,0.381 0.255,0.19 0.31,0.372 0.31,0.372 0,0 0.099,-0.227 -0.221,-0.532 -0.239,-0.227 -0.202,-0.489 -0.202,-0.489 0,0 0.048,0.093 0.202,0.23 0.171,0.151 0.247,0.294 0.247,0.294 0,0 0.051,-0.108 -0.134,-0.384 -0.149,-0.221 -0.13,-0.372 -0.13,-0.372 0,0 0.072,0.09 0.153,0.16 0.091,0.08 0.102,0.128 0.102,0.128 0,0 0.03,-0.11 -0.001,-0.21 -0.129,-0.426 0.022,-0.826 0.022,-1.058 0,-0.9 -0.632,-1.105 -0.929,-1.105 -0.297,0 -0.658,0.111 -0.658,0.111 0,0 -0.005,-0.143 0.125,-0.466 0.137,-0.343 0.474,-0.742 0.63,-0.742 0.134,0 0.169,0.03 0.302,0.083 0.132,0.053 0.291,0.031 0.291,0.031 0,0 -0.326,-0.186 -0.324,-0.29 0.004,-0.136 0.434,-0.178 0.42,-0.394 -0.007,-0.113 -0.138,-0.255 -0.085,-0.334 0.09,-0.13 0.387,-0.066 0.387,-0.066 0,0 -0.049,-0.128 -0.231,-0.2 -0.183,-0.073 -0.33,-0.049 -0.363,-0.071 -0.033,-0.021 -0.051,-0.082 -0.047,-0.094 0.003,-0.012 0.053,-0.037 0.157,-0.055 0.103,-0.018 0.223,-0.024 0.223,-0.024 0,0 -0.053,-0.07 -0.253,-0.125 -0.2,-0.055 -0.272,-0.072 -0.304,-0.104 -0.031,-0.031 -0.058,-0.086 -0.037,-0.107 0.022,-0.022 0.072,-0.034 0.155,-0.036 0.082,-0.002 0.166,0.002 0.166,0.002 0,0 -0.032,-0.073 -0.182,-0.141 -0.15,-0.067 -0.245,-0.094 -0.283,-0.133 -0.037,-0.039 -0.044,-0.101 -0.092,-0.171 -0.049,-0.071 -0.078,-0.077 -0.13,-0.152 -0.051,-0.075 -0.056,-0.122 -0.144,-0.205 -0.07,-0.066 -0.171,-0.097 -0.171,-0.097 0,0 0.036,-0.077 0.01,-0.167 -0.032,-0.115 -0.103,-0.145 -0.103,-0.145 0,0 -0.006,-0.086 0.03,-0.15 0.036,-0.064 0.117,-0.133 0.117,-0.133 0,0 -0.173,-0.072 -0.307,0.042 -0.11,0.093 -0.121,0.219 -0.121,0.219 0,0 -0.08,0.028 -0.056,0.131 0.023,0.103 0.069,0.14 0.023,0.174 -0.028,0.02 -0.046,-0.052 -0.106,-0.105 -0.067,-0.059 -0.162,-0.083 -0.162,-0.083 0,0 -0.082,-0.053 -0.115,-0.165 -0.032,-0.113 0,-0.227 0,-0.227 0,0 -0.2,0.047 -0.229,0.255 -0.031,0.22 0.081,0.326 0.081,0.326 0,0 -0.016,0.082 0.067,0.139 0.083,0.058 0.196,0.072 0.206,0.116 0.011,0.044 -0.151,-0.017 -0.234,-0.017 -0.099,0 -0.125,0.084 -0.125,0.084 0,0 -0.069,0.011 -0.145,-0.067 -0.077,-0.078 -0.099,-0.156 -0.099,-0.156 0,0 -0.11,0.157 0.005,0.356 0.106,0.184 0.3,0.15 0.3,0.15 0,0 0.039,0.041 0.13,0.041 0.09,0 0.129,-0.042 0.154,-0.042 0.025,0 0.16,0.079 0.16,0.093 0,0.014 -0.146,0.017 -0.185,0.063 -0.027,0.032 -0.003,0.076 -0.003,0.076 0,0 -0.084,0.063 -0.166,0.063 -0.081,0 -0.184,-0.082 -0.184,-0.082 0,0 0.055,0.246 0.263,0.304 0.169,0.047 0.326,-0.08 0.326,-0.08 0,0 0.038,0.026 0.068,0 0.029,-0.027 0.059,-0.103 0.093,-0.103 0.035,0 0.194,0.183 0.202,0.434 0.005,0.185 -0.055,0.341 -0.055,0.341 0,0 -0.152,0.09 -0.372,0.3 -0.22,0.209 -0.365,0.315 -0.512,0.398 -0.147,0.083 -0.291,0.196 -0.291,0.196 0,0 0.034,-0.161 -0.023,-0.373 -0.072,-0.263 -0.164,-0.309 -0.224,-0.417 -0.059,-0.107 -0.08,-0.264 -0.08,-0.264 0,0 -0.103,0.24 -0.045,0.483 0.049,0.203 0.106,0.199 0.08,0.372 -0.025,0.166 -0.05,0.235 -0.05,0.235 0,0 -0.056,0.078 -0.086,0.307 -0.029,0.23 -0.005,0.241 -0.009,0.335 -0.005,0.094 -0.05,0.39 -0.05,0.39 0,0 -0.016,-0.014 -0.051,-0.023 -0.034,-0.009 -0.057,-0.009 -0.057,-0.009 0,0 -0.017,-0.016 -0.068,-0.022 -0.049,-0.007 -0.081,0.004 -0.081,0.004 0,0 -0.387,-0.025 -0.664,-0.215 -0.2,-0.136 -0.405,-0.385 -0.405,-0.724 0,-0.557 0.353,-0.606 0.353,-0.824 0,-0.186 -0.177,-0.19 -0.177,-0.274 0,-0.071 0.214,-0.155 0.214,-0.155 0,0 -0.152,-0.09 -0.333,-0.092 -0.157,-0.002 -0.221,0.095 -0.28,0.072 -0.046,-0.018 -0.023,-0.1 0.041,-0.175 0.064,-0.075 0.128,-0.102 0.128,-0.102 0,0 -0.085,-0.036 -0.275,0.028 -0.134,0.046 -0.186,0.061 -0.211,0.024 -0.028,-0.041 0.106,-0.172 0.106,-0.172 0,0 -0.065,-0.03 -0.226,-0.006 -0.161,0.023 -0.233,0.011 -0.289,-0.036 -0.057,-0.047 -0.286,-0.088 -0.308,-0.133 -0.015,-0.031 0.066,-0.216 0.061,-0.316 -0.005,-0.103 -0.083,-0.122 -0.083,-0.122 0,0 0.004,-0.175 -0.15,-0.273 -0.154,-0.098 -0.336,-0.034 -0.336,-0.034 0,0 0.127,0.066 0.167,0.125 0.04,0.058 0.02,0.15 0.02,0.15 0,0 -0.084,0.025 -0.087,0.073 -0.003,0.048 0.053,0.095 0.053,0.153 0,0.036 -0.044,0.053 -0.056,0.053 -0.078,0 -0.344,-0.318 -0.492,-0.318 -0.063,0 -0.08,0.02 -0.08,0.02 0,0 -0.105,-0.041 -0.162,-0.144 -0.059,-0.104 -0.036,-0.217 -0.036,-0.217 0,0 -0.18,0.095 -0.166,0.29 0.012,0.162 0.159,0.266 0.159,0.266 0,0 -0.015,0.037 0.022,0.078 0.075,0.083 0.225,0.086 0.252,0.143 0.027,0.056 -0.022,0.078 -0.072,0.059 -0.05,-0.019 -0.189,-0.044 -0.244,-0.019 -0.054,0.025 -0.067,0.053 -0.067,0.053 0,0 -0.095,0.048 -0.198,0.019 -0.103,-0.029 -0.202,-0.13 -0.202,-0.13 0,0 -0.056,0.193 0.087,0.332 0.164,0.157 0.379,0.118 0.379,0.118 0,0 0.048,0.041 0.154,0 0.107,-0.04 0.182,-0.078 0.195,-0.001 0.015,0.076 -0.132,0.059 -0.212,0.118 -0.064,0.048 -0.047,0.128 -0.047,0.128 0,0 -0.056,0.09 -0.161,0.094 -0.105,0.005 -0.179,-0.037 -0.179,-0.037 0,0 0.059,0.189 0.256,0.247 0.241,0.07 0.367,-0.125 0.367,-0.125 0,0 0.094,-0.013 0.184,-0.054 0.091,-0.04 0.155,-0.066 0.182,-0.066 0.026,0 0.161,0.022 0.253,0.112 0.084,0.083 0.124,0.142 0.183,0.186 0.058,0.043 0.37,0.219 0.37,0.333 0,0.02 -0.063,0.055 -0.164,0.27 -0.102,0.216 -0.202,0.334 -0.307,0.334 -0.104,0 -0.151,-0.128 -0.343,-0.128 -0.155,0 -0.297,0.099 -0.297,0.099 0,0 0.333,0.029 0.456,0.25 0.123,0.22 -0.078,0.387 0.155,0.772 0.235,0.388 0.72,0.485 1.395,0.892 0.219,0.132 0.383,0.258 0.497,0.342 0.1,0.073 0.167,0.109 0.167,0.109 0,0 -0.158,0.13 -0.278,0.252 -0.12,0.122 -0.214,0.25 -0.214,0.25 0,0 -0.035,0.024 -0.06,0.054 -0.023,0.031 -0.037,0.066 -0.037,0.066 0,0 -0.017,0.016 -0.037,0.016 -0.049,0 -0.079,-0.078 -0.121,-0.146 -0.036,-0.06 -0.065,-0.106 -0.065,-0.174 0,-0.223 0.211,-0.382 0.211,-0.382 0,0 -0.155,-0.03 -0.324,0.054 -0.151,0.074 -0.237,0.167 -0.237,0.167 0,0 10e-4,-0.069 0.071,-0.157 0.071,-0.087 0.162,-0.134 0.162,-0.134 0,0 -0.111,-0.034 -0.305,0.045 -0.134,0.055 -0.169,0.133 -0.169,0.133 0,0 -0.025,-0.03 -0.139,-0.088 -0.114,-0.057 -0.195,-0.103 -0.181,-0.226 0.014,-0.123 0.125,-0.24 0.125,-0.24 0,0 -0.071,-0.022 -0.172,0.017 -0.102,0.039 -0.158,0.09 -0.158,0.09 0,0 0.008,-0.047 0.03,-0.092 0.022,-0.045 0.056,-0.088 0.056,-0.088 0,0 -0.127,-0.003 -0.291,0.058 -0.187,0.071 -0.254,0.14 -0.254,0.14 0,0 -0.049,-0.038 -0.053,-0.12 -0.005,-0.081 0.031,-0.177 0.031,-0.177 0,0 -0.092,-0.002 -0.197,0.084 -0.105,0.086 -0.139,0.09 -0.17,0.09 -0.031,0 -0.079,-0.043 -0.158,-0.053 -0.122,-0.015 -0.348,-0.095 -0.364,-0.111 -0.024,-0.022 -0.193,-0.388 -0.233,-0.412 -0.048,-0.03 -0.062,-0.025 -0.062,-0.025 0,0 -0.032,-0.105 -0.016,-0.195 0.016,-0.091 0.075,-0.182 0.075,-0.182 0,0 -0.215,-0.003 -0.338,0.157 -0.094,0.121 -0.042,0.285 -0.042,0.285 0,0 -0.039,0.032 -0.039,0.082 0,0.057 0.146,0.162 0.155,0.226 0.003,0.019 -0.033,0.044 -0.055,0.044 -0.04,0 -0.087,-0.072 -0.199,-0.123 -0.118,-0.055 -0.174,-0.01 -0.174,-0.01 0,0 -0.081,-0.064 -0.111,-0.143 -0.03,-0.08 -0.05,-0.208 -0.05,-0.208 0,0 -0.183,0.103 -0.158,0.364 0.015,0.154 0.177,0.262 0.177,0.262 0,0 0.012,0.094 0.037,0.119 0.058,0.056 0.281,0.055 0.306,0.085 0.025,0.029 0.025,0.064 -0.04,0.088 -0.033,0.013 -0.211,-0.036 -0.276,-0.012 -0.049,0.018 -0.066,0.076 -0.066,0.076 0,0 -0.086,0.013 -0.21,-0.042 -0.1,-0.044 -0.172,-0.142 -0.172,-0.142 0,0 -0.03,0.131 0.089,0.313 0.107,0.162 0.367,0.172 0.367,0.172 0,0 0.055,0.064 0.147,0.064 0.093,0 0.183,-0.056 0.233,-0.056 0.05,0 0.232,0.046 0.232,0.118 0,0.098 -0.163,0.139 -0.18,0.214 -0.01,0.042 0.025,0.087 0.025,0.087 0,0 -0.047,0.046 -0.139,0.059 -0.077,0.01 -0.182,-0.04 -0.182,-0.04 0,0 0.042,0.15 0.231,0.224 0.162,0.062 0.358,-0.11 0.358,-0.11 0,0 0.061,0.019 0.115,-0.008 0.053,-0.026 0.203,-0.212 0.234,-0.212 0.031,0 0.234,0.047 0.405,0.169 0.072,0.052 0.133,0.113 0.331,0.283 0.11,0.094 0.262,0.185 0.366,0.264 0.103,0.078 0.165,0.139 0.165,0.139 0,0 -0.264,-0.103 -0.516,0.134 -0.167,0.158 -0.145,0.429 -0.145,0.429 0,0 0.064,-0.09 0.186,-0.09 0.167,0 0.325,0.144 0.325,0.144 0,0 -0.053,0.042 -0.108,0.102 -0.046,0.049 -0.109,0.084 -0.143,0.084 -0.074,0 -0.108,-0.167 -0.108,-0.167 0,0 -0.039,0.045 -0.075,0.162 -0.036,0.118 -0.072,0.186 -0.072,0.186 0,0 -0.058,-0.045 -0.138,-0.166 -0.079,-0.12 -0.111,-0.211 -0.111,-0.211 0,0 -0.061,0.263 0.017,0.46 0.09,0.225 0.032,0.328 0.032,0.328 0,0 -0.024,-0.062 -0.116,-0.165 -0.092,-0.103 -0.134,-0.227 -0.134,-0.227 0,0 -0.055,0.266 0.05,0.459 0.104,0.194 0.048,0.285 0.048,0.285 0,0 -0.015,-0.064 -0.108,-0.125 -0.092,-0.061 -0.137,-0.119 -0.137,-0.119 0,0 -0.008,0.072 0.083,0.322 0.073,0.203 0.017,0.328 0.017,0.328 0,0 -0.017,-0.064 -0.058,-0.112 -0.04,-0.049 -0.117,-0.111 -0.117,-0.111 0,0 0.039,0.092 0.042,0.315 0.003,0.224 -0.031,0.341 -0.154,0.341 -0.063,0 -0.202,-0.147 -0.315,-0.147 -0.065,0 -0.068,0.012 -0.068,0.012 0,0 -0.224,-0.092 -0.397,0.069 -0.13,0.12 -0.164,0.324 -0.164,0.324 0,0 0.074,-0.057 0.19,-0.09 0.116,-0.032 0.21,0.005 0.21,0.005 0,0 0.003,0.073 0.057,0.117 0.071,0.058 0.172,0.035 0.198,0.118 0.024,0.082 -0.008,0.174 -0.094,0.326 -0.086,0.152 -0.166,0.202 -0.194,0.217 -0.028,0.016 -0.183,0.008 -0.277,0.099 -0.094,0.091 -0.064,0.19 -0.064,0.19 0,0 -0.056,0.127 -0.151,0.127 -0.095,0 -0.232,-0.084 -0.232,-0.084 0,0 0.099,0.351 0.341,0.351 0.172,0 0.328,-0.14 0.328,-0.14 0,0 0.046,0.003 0.139,-0.069 0.094,-0.072 0.114,-0.111 0.123,-0.111 0.01,0 0.054,0.014 0.054,0.036 0,0.073 -0.18,0.159 -0.18,0.259 0,0.063 0.078,0.13 0.078,0.13 0,0 -0.006,0.111 -0.104,0.144 -0.099,0.032 -0.252,0.023 -0.252,0.023 0,0 0.125,0.189 0.344,0.189 0.318,0 0.352,-0.255 0.352,-0.255 0,0 0.107,0.007 0.113,-0.153 0.007,-0.159 0.024,-0.215 0.08,-0.215 0.057,0 0.073,0.078 0.119,0.154 0.061,0.101 0.131,0.075 0.131,0.075 0,0 0.03,0.052 -0.014,0.146 -0.032,0.067 -0.14,0.11 -0.14,0.11 0,0 0.27,0.125 0.42,-0.101 0.152,-0.23 0.003,-0.438 0.003,-0.438 0,0 0.025,-0.079 -0.041,-0.179 -0.066,-0.1 -0.12,-0.127 -0.12,-0.196 0,-0.179 0.209,-0.397 0.286,-0.512 0.097,-0.146 0.197,-0.3 0.283,-0.389 0.219,-0.227 0.648,-0.545 0.648,-0.545 0,0 -0.028,0.095 0.03,0.228 0.057,0.132 0.098,0.153 0.098,0.153"/></g></g></g></g></svg>