<svg xmlns:dc="http://purl.org/dc/elements/1.1/" xmlns:cc="http://creativecommons.org/ns#" xmlns:rdf="http://www.w3.org/1999/02/22-rdf-syntax-ns#" xmlns:svg="http://www.w3.org/2000/svg" xmlns="http://www.w3.org/2000/svg" viewBox="0 0 45 45" style="enable-background:new 0 0 45 45;" xml:space="preserve" version="1.1" id="svg2"><metadata id="metadata8"><rdf:RDF><cc:Work rdf:about=""><dc:format>image/svg+xml</dc:format><dc:type rdf:resource="http://purl.org/dc/dcmitype/StillImage"/></cc:Work></rdf:RDF></metadata><defs id="defs6"><clipPath id="clipPath16" clipPathUnits="userSpaceOnUse"><path id="path18" d="M 0,36 36,36 36,0 0,0 0,36 Z"/></clipPath></defs><g transform="matrix(1.25,0,0,-1.25,0,45)" id="g10"><g id="g12"><g xmlns="http://www.w3.org/2000/svg" clip-path="url(#clipPath16)" id="g14"><g id="g30"><path id="path20" style="fill:#0000a0;fill-opacity:1;fill-rule:nonzero;stroke:none" d="M 32,31 4,31 C 1.791,31 0,29.209 0,27 l 0,-9 36,0 0,9 c 0,2.209 -1.791,4 -4,4"/><path id="path21" style="fill:#bf0000;fill-opacity:1;fill-rule:nonzero;stroke:none" d="M 0,9 C 0,6.791 1.791,5 4,5 l 28,0 c 2.209,0 4,1.791 4,4 l 0,9 -36,0 0,-9 z"/></g><g id="g34"><path id="path30" style="fill:#d7d7d7;fill-opacity:1;fill-rule:nonzero;stroke:none" d="m 24.0781,20.9233 c 0,0 1.01,-0.67 1.516,-0.317 0.505,0.353 0.306,1.106 0.306,1.106 0,0 0.6,-0.043 0.859,-0.351 0.258,-0.309 0.305,-0.818 0.305,-0.818 0,0 0.138,0 0.325,-0.037 0.185,-0.038 0.335,-0.097 0.335,-0.097 0,0 -0.065,0.84 0.564,0.84 0.566,0 0.872,-0.416 0.872,-1.012 0,-0.612 -0.593,-0.838 -0.593,-0.838 0,0 0.544,-0.518 0.544,-1.135 0,-0.858 -0.411,-0.965 -0.411,-0.965 0,0 0.536,0.804 -0.447,1.236 -0.528,0.232 -2.289,0.209 -2.965,0.012 -1.219,-0.356 -0.482,-1.248 -0.482,-1.248 0,0 -0.728,-0.309 -0.728,-1.266 0,-0.957 0.877,-1.938 1.982,-1.938 0.392,0 0.84,0.189 0.84,0.699 0,0.541 -0.698,0.643 -0.698,0.643 0,0 2.004,1.463 2.004,-0.89 0,-0.847 -0.529,-1.565 -1.212,-1.6 -0.328,-0.018 -0.518,0.047 -0.518,0.047 0,0 0.369,-0.734 -0.455,-1.11 -0.899,-0.411 -0.627,-0.542 -0.627,-0.542 0,0 0.337,0.142 0.337,-0.454 0,-0.377 -0.423,-0.587 -0.714,-0.604 -0.484,-0.028 -0.939,0.408 -0.939,0.408"/><path id="path31" style="fill:#f8c301;fill-opacity:1;fill-rule:nonzero;stroke:none" d="m 11.9219,20.9233 c 0,0 -1.01,-0.67 -1.516,-0.317 -0.506,0.353 -0.306,1.106 -0.306,1.106 0,0 -0.6,-0.043 -0.859,-0.351 -0.258,-0.309 -0.306,-0.818 -0.306,-0.818 0,0 -0.137,0 -0.323,-0.037 -0.186,-0.038 -0.336,-0.097 -0.336,-0.097 0,0 0.064,0.84 -0.564,0.84 -0.566,0 -0.873,-0.416 -0.873,-1.012 0,-0.612 0.593,-0.838 0.593,-0.838 0,0 -0.544,-0.518 -0.544,-1.135 0,-0.858 0.412,-0.965 0.412,-0.965 0,0 -0.536,0.804 0.447,1.236 0.528,0.232 2.29,0.209 2.965,0.012 1.219,-0.356 0.482,-1.248 0.482,-1.248 0,0 0.728,-0.309 0.728,-1.266 0,-0.957 -0.877,-1.938 -1.982,-1.938 -0.392,0 -0.84,0.189 -0.84,0.699 0,0.541 0.698,0.643 0.698,0.643 0,0 -2.004,1.463 -2.004,-0.89 0,-0.847 0.53,-1.565 1.212,-1.6 0.328,-0.018 0.518,0.047 0.518,0.047 0,0 -0.369,-0.734 0.455,-1.11 0.899,-0.411 0.627,-0.542 0.627,-0.542 0,0 -0.337,0.142 -0.337,-0.454 0,-0.377 0.423,-0.587 0.714,-0.604 0.484,-0.028 0.939,0.408 0.939,0.408"/><path id="path32" style="fill:#006d33;fill-opacity:1;fill-rule:nonzero;stroke:none" d="m 18,6.7344 c 0,0 0.453,0.703 3.063,0.812 1.299,0.055 2.173,0.725 2.602,1.424 0.147,0.241 0.242,0.485 0.304,0.702 0,0 -0.71,0.551 -1.864,0.551 -1.152,0 -1.675,-0.5 -1.675,-0.5 0,0 -0.753,0.914 -2.43,0.914 -1.676,0 -2.429,-0.914 -2.429,-0.914 0,0 -0.524,0.5 -1.677,0.5 -1.153,0 -1.862,-0.551 -1.862,-0.551 0.061,-0.217 0.156,-0.461 0.303,-0.702 0.429,-0.699 1.303,-1.369 2.602,-1.424 C 17.547,7.4374 18,6.7344 18,6.7344"/><path id="path33" style="fill:#005ca1;fill-opacity:1;fill-rule:nonzero;stroke:none" d="m 18,10.6377 c 1.677,0 2.43,-0.914 2.43,-0.914 0,0 0.523,0.5 1.675,0.5 1.154,0 1.864,-0.552 1.864,-0.552 0.117,0.417 0.109,0.735 0.109,0.735 l 0,10.955 -12.156,0 0,-10.955 c 0,0 -0.008,-0.318 0.11,-0.735 0,0 0.709,0.552 1.862,0.552 1.153,0 1.677,-0.5 1.677,-0.5 0,0 0.753,0.914 2.429,0.914"/><path id="path34" style="fill:#da251c;fill-opacity:1;fill-rule:nonzero;stroke:none" d="m 23.6455,21.3613 c 0,0 -2.041,1.18 -5.646,1.18 -3.604,0 -5.646,-1.18 -5.646,-1.18 l 11.292,0 z"/><path id="path35" style="fill:#f7c305;fill-opacity:1;fill-rule:nonzero;stroke:none" d="m 18,22.5415 c 3.604,0 5.646,-1.18 5.646,-1.18 l 2.019,2.715 c 0,0 -2.707,5.84 -7.665,5.84 -4.958,0 -7.665,-5.84 -7.665,-5.84 l 2.019,-2.715 c 0,0 2.042,1.18 5.646,1.18"/></g></g></g></g></svg>