<svg xmlns:dc="http://purl.org/dc/elements/1.1/" xmlns:cc="http://creativecommons.org/ns#" xmlns:rdf="http://www.w3.org/1999/02/22-rdf-syntax-ns#" xmlns:svg="http://www.w3.org/2000/svg" xmlns="http://www.w3.org/2000/svg" viewBox="0 0 45 45" style="enable-background:new 0 0 45 45;" xml:space="preserve" version="1.1" id="svg2"><metadata id="metadata8"><rdf:RDF><cc:Work rdf:about=""><dc:format>image/svg+xml</dc:format><dc:type rdf:resource="http://purl.org/dc/dcmitype/StillImage"/></cc:Work></rdf:RDF></metadata><defs id="defs6"><clipPath id="clipPath16" clipPathUnits="userSpaceOnUse"><path id="path18" d="M 0,36 36,36 36,0 0,0 0,36 Z"/></clipPath></defs><g transform="matrix(1.25,0,0,-1.25,0,45)" id="g10"><g id="g12"><g clip-path="url(#clipPath16)" id="g14"><g id="g30"><path id="path20" style="fill:#75b2de;fill-opacity:1;fill-rule:nonzero;stroke:none" d="M 0,18 V 9 C 0,6.791 1.791,5 4,5 h 28 c 2.209,0 4,1.791 4,4 v 9 z"/></g><g id="g32"><path id="path30" style="fill:#eeeeee;fill-opacity:1;fill-rule:nonzero;stroke:none" d="M 32,31 H 4 C 1.791,31 0,29.209 0,27 v -9 h 36 v 9 c 0,2.209 -1.791,4 -4,4"/></g><g id="g34"><path id="path40" style="fill:#2a7e42;fill-opacity:1;fill-rule:nonzero;stroke:none" d="m 12.1992,18.1465 c 0,0 3.018,2.333 6.121,2.333 3.104,0 6.521,-2.768 6.521,-2.768 v -6.18 c 0,-0.596 -0.483,-1.078 -1.079,-1.078 h -4.164 c -0.635,0 -1.078,-1.078 -1.078,-1.078 0,0 -0.443,1.078 -1.078,1.078 h -4.165 c -0.595,0 -1.078,0.482 -1.078,1.078 z"/><path id="path41" style="fill:#eeeeee;fill-opacity:1;fill-rule:nonzero;stroke:none" d="m 23.9707,14.0645 c 0,0 -0.906,-0.117 -2.082,0.33 -1.177,0.446 -1.813,0.952 -1.813,0.952 0,0 -2.902,-0.159 -3.976,0.354 -1.329,0.635 -1.494,1.541 -1.494,1.541 l -0.182,-0.347 -0.283,0.376 -0.035,-0.6 c 0,0 -0.247,-0.141 -0.582,-0.547 -0.335,-0.406 -0.282,-0.765 -0.282,-0.765 0,0 0.282,-0.106 0.611,-0.035 0.329,0.071 0.524,0.218 0.73,0.218 0.205,0 0.664,-0.459 0.705,-0.689 0.042,-0.229 0,-0.529 0.042,-0.682 0.041,-0.153 0.147,-0.276 0.147,-0.276 l -1.141,-2.142 c 0,0 -0.506,0.059 -0.506,-0.17 0,-0.23 0.582,-0.065 0.582,-0.065 l 1.647,1.677 0.683,-1.401 c 0,0 -0.489,-0.393 0.206,-0.393 0.693,0 0.223,0.429 0.223,0.429 l -0.377,1.353 2.318,1.018 0.223,-0.43 -0.058,-1.27 -0.489,-0.671 c 0,0 -0.844,-0.494 -0.183,-0.494 0.66,0 0.407,0.406 0.407,0.406 l 0.694,0.2 0.036,0.564 0.505,0.93 1.365,-0.694 0.247,-0.794 c 0,0 -0.535,-0.612 -0.012,-0.612 0.523,0 0.465,0.394 0.465,0.394 l -0.195,0.924 -1.123,1.649 c 0,0 0.524,-0.26 1.559,-0.462 1.029,-0.199 1.418,0.224 1.418,0.224"/><path id="path42" style="fill:#0496bf;fill-opacity:1;fill-rule:nonzero;stroke:none" d="m 12.1992,18.1465 v 8.52 h 12.642 v -8.955 c 0,0 -3.417,2.768 -6.521,2.768 -3.103,0 -6.121,-2.333 -6.121,-2.333"/><path id="path43" style="fill:#fed01b;fill-opacity:1;fill-rule:nonzero;stroke:none" d="m 17.2837,23.1372 c -0.279,-0.382 -0.513,-0.52 -0.513,-0.52 v -1.694 l -1.024,-0.435 v -0.588 h 4.73 v 0.717 c 0,0 -0.2,0.259 -0.483,0.459 -0.282,0.2 -0.729,0.353 -0.729,0.353 v 2.306 c 0,0.871 -0.929,1.4 -0.929,1.4 h -0.471 c 0,0 0.037,-0.547 -0.135,-1.125 0,0 -0.444,0.225 -0.681,-0.13 -0.278,-0.415 0.235,-0.743 0.235,-0.743"/></g><g id="g36"><path id="path50" style="fill:#000000;fill-opacity:1;fill-rule:nonzero;stroke:none" d="m 1.9111,10.3877 h 1.18 v 0.226 c 0,0.123 -0.041,0.218 -0.124,0.289 -0.083,0.069 -0.191,0.103 -0.325,0.103 h -0.285 c -0.132,0 -0.239,-0.034 -0.322,-0.103 -0.083,-0.071 -0.124,-0.166 -0.124,-0.289 z m -0.264,0.243 c 0,0.209 0.067,0.381 0.2,0.516 0.133,0.136 0.304,0.203 0.513,0.203 h 0.282 c 0.209,0 0.38,-0.067 0.513,-0.203 0.132,-0.135 0.198,-0.307 0.198,-0.516 v -0.767 h -0.205 l -0.035,0.181 h -1.224 l -0.036,-0.181 h -0.206 v 0.181 z"/><path id="path51" style="fill:#000000;fill-opacity:1;fill-rule:nonzero;stroke:none" d="m 2.4854,12.8086 c -0.177,0 -0.32,-0.037 -0.43,-0.11 -0.111,-0.074 -0.166,-0.183 -0.166,-0.326 0,-0.144 0.055,-0.251 0.164,-0.322 0.11,-0.07 0.254,-0.105 0.432,-0.105 h 0.028 c 0.18,0 0.325,0.035 0.434,0.106 0.11,0.071 0.165,0.179 0.165,0.321 0,0.145 -0.055,0.254 -0.165,0.327 -0.109,0.072 -0.254,0.109 -0.434,0.109 z m 0.028,0.341 c 0.25,0 0.456,-0.071 0.62,-0.214 0.163,-0.144 0.245,-0.33 0.245,-0.563 0,-0.23 -0.082,-0.416 -0.245,-0.558 -0.164,-0.141 -0.37,-0.212 -0.62,-0.212 h -0.026 c -0.248,0 -0.455,0.071 -0.619,0.212 -0.164,0.141 -0.246,0.328 -0.246,0.558 0,0.231 0.082,0.418 0.246,0.561 0.164,0.145 0.371,0.216 0.619,0.216 z"/><path id="path52" style="fill:#000000;fill-opacity:1;fill-rule:nonzero;stroke:none" d="m 2.0913,15.0039 -10e-4,-0.006 1.263,-0.457 v -0.23 l -1.259,-0.455 0.002,-0.006 0.748,0.032 h 0.269 l 0.035,0.183 h 0.205 v -0.707 h -0.205 l -0.035,0.181 h -1.225 l -0.035,-0.181 h -0.206 v 0.181 0.447 l 1.257,0.435 v 0.007 l -1.257,0.438 v 0.63 h 0.206 l 0.035,-0.181 h 1.225 l 0.035,0.181 h 0.205 v -0.706 h -0.205 l -0.035,0.182 h -0.269 z"/><path id="path53" style="fill:#000000;fill-opacity:1;fill-rule:nonzero;stroke:none" d="m 2.6411,16.292 v 0.392 l -0.601,-0.193 v -0.007 z m 0.507,-0.619 -0.017,0.122 -1.484,0.519 v 0.35 l 1.484,0.516 0.017,0.122 h 0.205 v -0.581 h -0.205 l -0.021,0.118 -0.234,-0.075 v -0.553 l 0.234,-0.075 0.021,0.118 h 0.205 v -0.581 z"/><path id="path54" style="fill:#000000;fill-opacity:1;fill-rule:nonzero;stroke:none" d="m 3.1636,18.8306 c 0.055,-0.055 0.104,-0.136 0.148,-0.243 0.044,-0.106 0.066,-0.24 0.066,-0.403 0,-0.23 -0.077,-0.417 -0.231,-0.562 -0.154,-0.144 -0.355,-0.216 -0.602,-0.216 h -0.058 c -0.256,0 -0.464,0.07 -0.624,0.213 -0.16,0.143 -0.24,0.329 -0.24,0.558 0,0.134 0.021,0.256 0.064,0.366 0.042,0.111 0.1,0.203 0.173,0.277 h 0.343 v -0.254 l -0.228,-0.048 c -0.027,-0.031 -0.048,-0.072 -0.064,-0.123 -0.016,-0.051 -0.024,-0.11 -0.024,-0.177 0,-0.149 0.055,-0.265 0.165,-0.347 0.11,-0.083 0.254,-0.125 0.432,-0.125 h 0.061 c 0.174,0 0.312,0.041 0.416,0.122 0.103,0.081 0.155,0.198 0.155,0.352 0,0.068 -0.006,0.124 -0.017,0.167 -0.012,0.042 -0.026,0.075 -0.041,0.1 h -0.29 l -0.019,-0.244 h -0.24 v 0.587 z"/><path id="path55" style="fill:#000000;fill-opacity:1;fill-rule:nonzero;stroke:none" d="m 1.6475,20.8179 h 0.206 l 0.035,-0.183 h 1.465 v -0.341 l -1.148,-0.689 0.001,-0.007 h 0.907 l 0.035,0.183 h 0.205 v -0.707 h -0.205 l -0.035,0.182 h -1.225 l -0.035,-0.182 h -0.206 v 0.182 0.342 l 1.148,0.689 -10e-4,0.007 h -0.906 l -0.035,-0.183 h -0.206 v 0.524 z"/><path id="path56" style="fill:#000000;fill-opacity:1;fill-rule:nonzero;stroke:none" d="m 2.6411,21.4512 v 0.391 l -0.601,-0.192 v -0.007 z m 0.507,-0.619 -0.017,0.122 -1.484,0.519 v 0.351 l 1.484,0.515 0.017,0.122 h 0.205 v -0.581 h -0.205 l -0.021,0.118 -0.234,-0.075 v -0.553 l 0.234,-0.075 0.021,0.118 h 0.205 v -0.581 z"/><path id="path57" style="fill:#000000;fill-opacity:1;fill-rule:nonzero;stroke:none" d="m 1.6475,24.3896 h 0.206 l 0.035,-0.183 h 1.465 v -0.341 l -1.148,-0.689 0.001,-0.007 h 0.907 l 0.035,0.183 h 0.205 v -0.707 h -0.205 l -0.035,0.182 h -1.225 l -0.035,-0.182 h -0.206 v 0.182 0.342 l 1.148,0.689 -10e-4,0.007 h -0.906 l -0.035,-0.183 h -0.206 v 0.524 z"/><path id="path58" style="fill:#000000;fill-opacity:1;fill-rule:nonzero;stroke:none" d="m 2.4854,25.79 c -0.177,0 -0.32,-0.037 -0.43,-0.11 -0.111,-0.074 -0.166,-0.182 -0.166,-0.326 0,-0.144 0.055,-0.251 0.164,-0.321 0.11,-0.071 0.254,-0.106 0.432,-0.106 h 0.028 c 0.18,0 0.325,0.035 0.434,0.107 0.11,0.071 0.165,0.178 0.165,0.321 0,0.145 -0.055,0.253 -0.165,0.326 -0.109,0.073 -0.254,0.109 -0.434,0.109 z m 0.028,0.341 c 0.25,0 0.456,-0.071 0.62,-0.214 0.163,-0.143 0.245,-0.33 0.245,-0.562 0,-0.23 -0.082,-0.416 -0.245,-0.558 -0.164,-0.142 -0.37,-0.213 -0.62,-0.213 h -0.026 c -0.248,0 -0.455,0.071 -0.619,0.212 -0.164,0.142 -0.246,0.328 -0.246,0.558 0,0.231 0.082,0.419 0.246,0.562 0.164,0.144 0.371,0.215 0.619,0.215 z"/></g></g></g></g></svg>