<svg xmlns:dc="http://purl.org/dc/elements/1.1/" xmlns:cc="http://creativecommons.org/ns#" xmlns:rdf="http://www.w3.org/1999/02/22-rdf-syntax-ns#" xmlns:svg="http://www.w3.org/2000/svg" xmlns="http://www.w3.org/2000/svg" viewBox="0 0 45 45" style="enable-background:new 0 0 45 45;" xml:space="preserve" version="1.1" id="svg2"><metadata id="metadata8"><rdf:RDF><cc:Work rdf:about=""><dc:format>image/svg+xml</dc:format><dc:type rdf:resource="http://purl.org/dc/dcmitype/StillImage"/></cc:Work></rdf:RDF></metadata><defs xmlns="http://www.w3.org/2000/svg" id="defs6"><clipPath id="clipPath16" clipPathUnits="userSpaceOnUse"><path id="path18" d="M 4,31 C 1.791,31 0,29.209 0,27 L 0,27 0,9 C 0,6.791 1.791,5 4,5 l 0,0 28,0 c 2.209,0 4,1.791 4,4 l 0,0 0,18 c 0,2.209 -1.791,4 -4,4 l 0,0 -28,0 z"/></clipPath><linearGradient id="linearGradient178" spreadMethod="pad" gradientTransform="matrix(0,9.3758068,9.3758068,0,12.691988,13.394775)" gradientUnits="userSpaceOnUse" y2="0" x2="1" y1="0" x1="0"><stop id="stop172" offset="0" style="stop-opacity:1;stop-color:#e8b468"/><stop id="stop174" offset="0.5" style="stop-opacity:1;stop-color:#dda76c"/><stop id="stop176" offset="1" style="stop-opacity:1;stop-color:#ba7522"/></linearGradient><linearGradient id="linearGradient264" spreadMethod="pad" gradientTransform="matrix(0,6.8013959,6.8013959,0,12.521913,15.132532)" gradientUnits="userSpaceOnUse" y2="0" x2="1" y1="0" x1="0"><stop id="stop258" offset="0" style="stop-opacity:1;stop-color:#f5c675"/><stop id="stop260" offset="0.5" style="stop-opacity:1;stop-color:#e09f40"/><stop id="stop262" offset="1" style="stop-opacity:1;stop-color:#7d4e10"/></linearGradient></defs><g transform="matrix(1.25,0,0,-1.25,0,45)" id="g10"><g id="g12"><g clip-path="url(#clipPath16)" id="g14"><g id="g1073"><path id="path130" style="fill:#eeeeee;fill-opacity:1;fill-rule:nonzero;stroke:none" d="M 36,5.0002 H 0 v 26 h 36 z"/></g><g id="g1078"><path id="path134" style="fill:#f9c862;fill-opacity:1;fill-rule:nonzero;stroke:none" d="m 36,21.1203 v -6.24 H 16.3 v -9.88 h -6.24 v 9.88 H 0 v 6.24 h 10.06 v 9.88 h 6.24 v -9.88 z"/><path id="path138" style="fill:#e3e3e3;fill-opacity:1;fill-rule:nonzero;stroke:none" d="m 36,20.2805 v -4.561 H 15.46 V 5.0005 H 10.9 v 10.719 H 0 v 4.561 h 10.9 v 10.72 h 4.56 v -10.72 z"/><path id="path142" style="fill:#aaeeff;fill-opacity:1;fill-rule:nonzero;stroke:none" d="M 36,19.82 V 16.18 H 15 V 5 H 11.36 V 16.18 H 0 v 3.64 H 11.36 V 31 H 15 V 19.82 Z"/></g><g id="g1117"><path id="path154" style="fill:#d40000;fill-opacity:1;fill-rule:nonzero;stroke:none" d="m 17.0259,12.6711 h -8.578 c -0.62,0 -1.123,0.503 -1.123,1.123 v 8.579 c 0,0.62 0.503,1.122 1.123,1.122 h 8.578 c 0.62,0 1.123,-0.502 1.123,-1.122 v -8.579 c 0,-0.62 -0.503,-1.123 -1.123,-1.123"/></g><g id="g1114"><path id="path158" style="fill:#e2c356;fill-opacity:1;fill-rule:nonzero;stroke:none" d="m 17.5454,18.0622 c 0,2.683 -2.175,4.857 -4.857,4.857 -2.683,0 -4.857,-2.174 -4.857,-4.857 0,-2.683 2.174,-4.858 4.857,-4.858 2.682,0 4.857,2.175 4.857,4.858"/></g><g id="g1111"><path id="path180" style="fill:url(#linearGradient178);stroke:none" d="m 8.004,18.0832 c 0,-2.59 2.099,-4.688 4.688,-4.688 v 0 c 2.589,0 4.688,2.098 4.688,4.688 v 0 c 0,2.588 -2.099,4.688 -4.688,4.688 v 0 c -2.589,0 -4.688,-2.1 -4.688,-4.688"/></g><g id="g30"><path id="path20" style="fill:#ffed76;fill-opacity:1;fill-rule:nonzero;stroke:none" d="m 15.2002,15.4611 c 0,0 -0.169,0.062 -0.169,0.241 0,0.045 0.02,0.09 0.058,0.107 0.037,0.015 0.092,0.003 0.198,-0.003 0.097,-0.006 0.165,-0.002 0.203,-0.016 0.049,-0.018 0.053,-0.058 0.053,-0.109 0,-0.199 -0.178,-0.222 -0.178,-0.222 l -0.02,-0.299 c 0,0 0.209,-0.031 0.326,0.018 0.117,0.048 0.222,0.146 0.244,0.461 0.008,0.112 0.021,0.23 0.009,0.292 -0.02,0.094 -0.088,0.147 -0.195,0.156 -0.156,0.013 -0.761,0.04 -0.859,0.04 -0.051,0 -0.125,-0.019 -0.17,-0.09 -0.052,-0.082 -0.048,-0.181 -0.038,-0.361 0.013,-0.235 0.017,-0.292 0.136,-0.401 0.14,-0.126 0.381,-0.1 0.381,-0.1 z"/><path id="path21" style="fill:#ffed76;fill-opacity:1;fill-rule:nonzero;stroke:none" d="m 15.2485,16.675 c 0,0 -0.169,0.062 -0.169,0.242 0,0.044 0.02,0.09 0.058,0.106 0.037,0.016 0.093,0.004 0.198,-0.003 0.097,-0.006 0.165,-0.002 0.204,-0.016 0.048,-0.017 0.052,-0.058 0.052,-0.109 0,-0.199 -0.177,-0.222 -0.177,-0.222 l -0.021,-0.299 c 0,0 0.209,-0.031 0.327,0.018 0.117,0.049 0.221,0.146 0.243,0.461 0.008,0.113 0.022,0.231 0.009,0.292 -0.019,0.095 -0.088,0.147 -0.195,0.156 -0.156,0.013 -0.76,0.041 -0.859,0.041 -0.051,0 -0.125,-0.02 -0.17,-0.091 -0.052,-0.081 -0.047,-0.18 -0.038,-0.361 0.013,-0.235 0.017,-0.292 0.136,-0.4 0.141,-0.127 0.382,-0.101 0.382,-0.101 z"/><path id="path22" style="fill:#ffed76;fill-opacity:1;fill-rule:nonzero;stroke:none" d="m 15.2988,17.8415 c 0,0 -0.169,0.062 -0.169,0.242 0,0.044 0.02,0.09 0.058,0.106 0.037,0.016 0.092,0.003 0.198,-0.003 0.097,-0.006 0.165,-0.002 0.203,-0.016 0.049,-0.018 0.053,-0.058 0.053,-0.109 0,-0.199 -0.178,-0.222 -0.178,-0.222 l -0.02,-0.299 c 0,0 0.209,-0.031 0.327,0.017 0.117,0.049 0.221,0.147 0.243,0.462 0.008,0.113 0.022,0.231 0.009,0.292 -0.02,0.095 -0.088,0.147 -0.195,0.156 -0.156,0.012 -0.76,0.041 -0.859,0.041 -0.051,0 -0.125,-0.02 -0.17,-0.091 -0.052,-0.081 -0.047,-0.181 -0.038,-0.361 0.013,-0.235 0.017,-0.292 0.136,-0.4 0.14,-0.127 0.381,-0.101 0.381,-0.101 z"/><path id="path23" style="fill:#ffed76;fill-opacity:1;fill-rule:nonzero;stroke:none" d="m 13.2734,16.2678 0.497,-0.028 -0.038,-0.557 c 0,0 -0.011,-0.162 0.157,-0.162 0.079,0 0.159,0.052 0.159,0.159 0,0.1 -0.044,0.18 -0.044,0.18 l 0.491,0.133 c 0,0 0.036,-0.044 0.036,-0.208 0,-0.164 -0.078,-0.662 -0.717,-0.662 -0.316,0 -0.58,0.171 -0.58,0.504 0,0.103 0.039,0.641 0.039,0.641"/><path id="path24" style="fill:#ffed76;fill-opacity:1;fill-rule:nonzero;stroke:none" d="m 14.0249,16.1926 0.403,0.078 c 0,0 -0.005,0.199 -0.084,0.278 -0.088,0.086 -0.276,0.151 -0.394,0.178 -0.083,0.02 -0.153,0.033 -0.179,0.07 -0.035,0.047 -0.027,0.26 0.145,0.26 0.169,0 0.161,-0.249 0.161,-0.249 l 0.381,-0.029 c 0,0 0.1,0.095 0.1,0.278 0,0.183 -0.069,0.287 -0.192,0.301 -0.124,0.015 -0.833,0.049 -0.884,0.044 -0.052,-0.005 -0.112,-0.032 -0.129,-0.095 -0.017,-0.062 -0.069,-0.461 -0.057,-0.551 0.01,-0.088 0.017,-0.222 0.332,-0.237 0.352,-0.015 0.397,-0.326 0.397,-0.326"/><path id="path25" style="fill:#ffed76;fill-opacity:1;fill-rule:nonzero;stroke:none" d="m 13.9517,17.8503 c 0.106,-0.007 0.162,0.035 0.184,0.202 0.008,0.059 -0.036,0.101 -0.07,0.103 -0.092,0.003 -0.203,0.027 -0.25,0.026 -0.051,-0.001 -0.091,-0.025 -0.091,-0.106 0,-0.142 0.003,-0.211 0.227,-0.225 m -0.028,1.061 c 0.105,-0.078 0.343,-0.053 0.343,-0.209 0,-0.143 -0.053,-0.262 -0.014,-0.322 0.04,-0.061 0.136,-0.002 0.247,-0.076 0.076,-0.051 0.055,-0.247 -0.032,-0.442 -0.054,-0.118 -0.107,-0.158 -0.189,-0.22 -0.083,-0.061 -0.149,-0.094 -0.311,-0.094 -0.301,0 -0.424,0.074 -0.576,0.244 -0.053,0.059 -0.072,0.179 -0.074,0.299 -0.003,0.125 0.012,0.257 0.087,0.336 0.038,0.041 0.223,0.007 0.322,0.007 0.033,0 0.073,0.017 0.073,0.058 0,0.039 -0.019,0.056 -0.053,0.069 -0.036,0.014 -0.186,-0.011 -0.289,0.069 -0.086,0.066 -0.054,0.228 -0.054,0.228 l 0.478,0.179 c 0,0 -0.013,-0.085 0.042,-0.126"/></g><g id="g32"><path id="path30" style="fill:#ffff8d;fill-opacity:1;fill-rule:nonzero;stroke:none" d="m 8.3228,17.9846 0.148,0.149 -0.181,-0.075 -0.026,0.324 -0.047,-0.303 -0.162,0.124 0.107,-0.175 -0.177,-0.053 0.18,-0.044 -0.088,-0.19 0.145,0.141 0.054,-0.309 0.017,0.322 0.187,-0.073 z"/><path id="path31" style="fill:#ffff8d;fill-opacity:1;fill-rule:nonzero;stroke:none" d="m 8.8506,20.1438 0.203,0.057 -0.196,0.024 0.138,0.294 -0.19,-0.239 -0.08,0.187 0.007,-0.205 -0.18,0.041 0.134,-0.127 -0.169,-0.122 0.195,0.052 -0.106,-0.296 0.175,0.272 0.126,-0.155 z"/><path id="path32" style="fill:#ffff8d;fill-opacity:1;fill-rule:nonzero;stroke:none" d="m 10.4385,21.8034 0.203,-0.054 -0.156,0.12 0.268,0.184 -0.285,-0.11 0.026,0.202 -0.098,-0.18 -0.135,0.127 0.052,-0.179 -0.208,-0.018 0.195,-0.055 -0.242,-0.201 0.288,0.146 0.03,-0.198 z"/><path id="path33" style="fill:#ffff8d;fill-opacity:1;fill-rule:nonzero;stroke:none" d="m 17.0532,17.9846 -0.148,0.149 0.182,-0.075 0.025,0.324 0.047,-0.303 0.162,0.124 -0.107,-0.175 0.177,-0.053 -0.18,-0.044 0.088,-0.19 -0.145,0.141 -0.053,-0.309 -0.018,0.322 -0.186,-0.073 z"/><path id="path34" style="fill:#ffff8d;fill-opacity:1;fill-rule:nonzero;stroke:none" d="m 16.5259,20.1438 -0.203,0.057 0.196,0.024 -0.138,0.294 0.19,-0.239 0.08,0.187 -0.007,-0.205 0.18,0.041 -0.134,-0.127 0.169,-0.122 -0.195,0.052 0.106,-0.296 -0.175,0.272 -0.126,-0.155 z"/><path id="path35" style="fill:#ffff8d;fill-opacity:1;fill-rule:nonzero;stroke:none" d="m 14.938,21.8034 -0.203,-0.054 0.156,0.12 -0.268,0.184 0.285,-0.11 -0.026,0.202 0.098,-0.18 0.135,0.127 -0.052,-0.179 0.208,-0.018 -0.195,-0.055 0.241,-0.201 -0.287,0.146 -0.03,-0.198 z"/><path id="path36" style="fill:#ffff8d;fill-opacity:1;fill-rule:nonzero;stroke:none" d="m 12.6514,22.4279 -0.145,-0.152 0.07,0.183 -0.324,0.017 0.301,0.056 -0.128,0.158 0.178,-0.103 0.048,0.179 0.049,-0.179 0.187,0.093 -0.137,-0.148 0.311,-0.046 -0.322,-0.026 0.078,-0.184 z"/></g><g id="g34"><path id="path40" style="fill:#f5c675;fill-opacity:1;fill-rule:nonzero;stroke:none" d="m 12.8901,14.8205 v -0.261 c 0,0 0.06,-0.019 0.06,-0.109 0,-0.08 -0.06,-0.11 -0.06,-0.11 l 0.06,-0.11 -0.06,-0.04 -0.06,0.06 v -0.08 h -0.08 l -0.01,0.08 -0.05,-0.06 -0.07,0.04 0.05,0.1 c 0,0 -0.06,0.05 -0.06,0.12 0,0.069 0.06,0.109 0.06,0.109 v 0.261 h -2.85 v 0.22 h 2.85 v 0.099 h 0.22 v -0.099 h 2.84 v -0.22 z"/><path id="path41" style="fill:url(#linearGradient264);stroke:none" d="m 12.353,21.8032 c -0.358,-0.194 -0.406,-0.63 -0.406,-0.63 v 0 c 0,0 -0.122,-0.029 -0.196,-0.165 v 0 c -0.081,-0.151 -0.084,-0.297 -0.084,-0.297 v 0 c 0,0 0.405,0.114 0.405,-0.173 v 0 c 0,-0.288 -0.534,-0.263 -0.534,0.139 v 0 c 0,0.401 0.272,0.486 0.272,0.787 v 0 c 0,0.447 -0.977,0.385 -1.712,-0.35 v 0 C 9.54,20.5562 8.994,19.7272 8.994,18.3552 v 0 c 0,-1.114 0.831,-2.279 1.943,-2.88 v 0 c 0.857,-0.465 2.149,-0.322 2.149,-0.322 v 0 l 0.178,3.949 c 0,0 0.108,0.051 0.507,0.016 v 0 c 0.398,-0.035 0.523,-0.052 0.523,-0.143 v 0 c 0,-0.065 -0.015,-0.067 -0.015,-0.142 v 0 c 0,-0.047 0.044,-0.058 0.076,-0.091 v 0 c 0.071,-0.074 0.163,-0.153 0.163,-0.153 v 0 l 0.221,0.158 0.222,-0.145 0.186,0.16 0.163,-0.17 0.2,0.122 0.208,-0.137 c 0,0 0.096,0.092 0.171,0.162 v 0 c 0.074,0.071 0.068,0.068 0.117,0.19 v 0 c 0.112,0.279 0.039,0.974 -0.565,1.395 v 0 c -0.243,0.169 -0.568,0.36 -1.008,0.36 v 0 c -0.657,0 -0.782,-0.39 -0.782,-0.45 v 0 c 0,-0.085 0.042,-0.343 -0.01,-0.396 v 0 c -0.043,-0.046 -0.136,-0.043 -0.247,-0.044 v 0 c -0.09,0 -0.182,0.002 -0.205,0.034 v 0 c -0.038,0.048 -0.021,0.231 -0.015,0.541 v 0 c 0.013,0.619 0.058,1.549 0.058,1.549 v 0 c 0,0 -0.105,0.016 -0.253,0.016 v 0 c -0.182,0 -0.428,-0.024 -0.626,-0.131 m -1.363,-5.306 c -0.343,0.435 -0.608,1.099 -0.608,1.631 v 0 c 0,0.377 0.05,0.712 0.257,1.082 v 0 c 0.08,0.143 0.168,0.278 0.291,0.367 v 0 c 0.141,0.102 0.317,0.146 0.399,0.146 v 0 c 0.263,0 0.31,-0.343 0.31,-0.343 v 0 l 0.687,-3.581 c 0,0 -0.019,-0.015 -0.087,-0.015 v 0 c -0.246,0 -0.875,0.238 -1.249,0.713"/></g><g id="g36"><path id="path50" style="fill:#ffeb84;fill-opacity:1;fill-rule:nonzero;stroke:none" d="m 13.1431,27.5876 0.427,-1.06 1.095,0.327 -0.563,-0.995 0.939,-0.652 -1.128,-0.18 0.075,-1.14 -0.845,0.769 -0.845,-0.769 0.076,1.14 -1.129,0.18 0.939,0.652 -0.563,0.995 1.095,-0.327 z"/><path id="path51" style="fill:#ffeb84;fill-opacity:1;fill-rule:nonzero;stroke:none" d="m 19.2061,25.0778 0.427,-1.06 1.094,0.327 -0.562,-0.995 0.938,-0.652 -1.127,-0.18 0.075,-1.141 -0.845,0.77 -0.845,-0.77 0.075,1.141 -1.128,0.18 0.939,0.652 -0.563,0.995 1.095,-0.327 z"/><path id="path52" style="fill:#ffeb84;fill-opacity:1;fill-rule:nonzero;stroke:none" d="m 20.9707,19.9602 0.427,-1.06 1.094,0.327 -0.562,-0.995 0.938,-0.652 -1.127,-0.181 0.075,-1.139 -0.845,0.769 -0.845,-0.769 0.075,1.139 -1.127,0.181 0.938,0.652 -0.563,0.995 1.095,-0.327 z"/><path id="path53" style="fill:#ffeb84;fill-opacity:1;fill-rule:nonzero;stroke:none" d="m 19.2217,14.76 0.427,-1.06 1.094,0.328 -0.562,-0.996 0.938,-0.652 -1.127,-0.18 0.075,-1.14 -0.845,0.769 -0.845,-0.769 0.075,1.14 -1.128,0.18 0.939,0.652 -0.563,0.996 1.095,-0.328 z"/><path id="path54" style="fill:#ffeb84;fill-opacity:1;fill-rule:nonzero;stroke:none" d="m 6.2803,25.0778 -0.427,-1.06 -1.095,0.327 0.563,-0.995 -0.939,-0.652 1.129,-0.18 -0.076,-1.141 0.845,0.77 0.845,-0.77 -0.075,1.141 1.128,0.18 -0.939,0.652 0.563,0.995 -1.095,-0.327 z"/><path id="path55" style="fill:#ffeb84;fill-opacity:1;fill-rule:nonzero;stroke:none" d="m 4.4355,19.9602 -0.427,-1.06 -1.095,0.327 0.563,-0.995 -0.938,-0.652 1.128,-0.181 -0.075,-1.139 0.844,0.769 0.845,-0.769 -0.075,1.139 1.128,0.181 -0.939,0.652 0.563,0.995 -1.095,-0.327 z"/><path id="path56" style="fill:#ffeb84;fill-opacity:1;fill-rule:nonzero;stroke:none" d="m 6.2749,14.76 -0.427,-1.06 -1.095,0.328 0.563,-0.996 -0.939,-0.652 1.128,-0.18 -0.075,-1.14 0.845,0.769 0.844,-0.769 -0.075,1.14 1.128,0.18 -0.938,0.652 0.563,0.996 -1.095,-0.328 z"/></g></g></g></g></svg>