<svg xmlns:dc="http://purl.org/dc/elements/1.1/" xmlns:cc="http://creativecommons.org/ns#" xmlns:rdf="http://www.w3.org/1999/02/22-rdf-syntax-ns#" xmlns:svg="http://www.w3.org/2000/svg" xmlns="http://www.w3.org/2000/svg" viewBox="0 0 45 45" style="enable-background:new 0 0 45 45;" xml:space="preserve" version="1.1" id="svg2"><metadata id="metadata8"><rdf:RDF><cc:Work rdf:about=""><dc:format>image/svg+xml</dc:format><dc:type rdf:resource="http://purl.org/dc/dcmitype/StillImage"/></cc:Work></rdf:RDF></metadata><defs id="defs6"><clipPath id="clipPath16" clipPathUnits="userSpaceOnUse"><path id="path18" d="M 0,36 36,36 36,0 0,0 0,36 Z"/></clipPath><clipPath id="clipPath76" clipPathUnits="userSpaceOnUse"><path id="path78" d="m 4.87793,26.1221 2.30859,0 0,-2.3086 -2.30859,0 0,2.3086 z"/></clipPath></defs><g transform="matrix(1.25,0,0,-1.25,0,45)" id="g10"><g id="g12"><g xmlns="http://www.w3.org/2000/svg" clip-path="url(#clipPath16)" id="g14"><g id="g20"><path id="path22" style="fill:#006633;fill-opacity:1;fill-rule:nonzero;stroke:none" d="M 32,31 H 18 V 5 h 14 c 2.209,0 4,1.791 4,4 v 18 c 0,2.209 -1.791,4 -4,4"/></g><g id="g24"><path id="path26" style="fill:#eeeeee;fill-opacity:1;fill-rule:nonzero;stroke:none" d="M 4,31 C 1.791,31 0,29.209 0,27 V 9 C 0,6.791 1.791,5 4,5 h 14 v 26 z"/></g><g id="g28"><path id="path30" style="fill:#ffe500;fill-opacity:1;fill-rule:nonzero;stroke:none" d="m 3.2012,21.3374 4.257,-0.417 1.543,3.75 1.765,-3.878 4.034,0.545 -2.491,-3.461 2.491,-3.206 -4.257,0.417 -1.542,-3.75 -1.766,3.88 -4.034,-0.547 2.491,3.463 z"/></g></g></g></g></svg>