<svg xmlns:dc="http://purl.org/dc/elements/1.1/" xmlns:cc="http://creativecommons.org/ns#" xmlns:rdf="http://www.w3.org/1999/02/22-rdf-syntax-ns#" xmlns:svg="http://www.w3.org/2000/svg" xmlns="http://www.w3.org/2000/svg" viewBox="0 0 45 45" style="enable-background:new 0 0 45 45;" xml:space="preserve" version="1.1" id="svg2"><metadata id="metadata8"><rdf:RDF><cc:Work rdf:about=""><dc:format>image/svg+xml</dc:format><dc:type rdf:resource="http://purl.org/dc/dcmitype/StillImage"/></cc:Work></rdf:RDF></metadata><defs id="defs6"><clipPath id="clipPath16" clipPathUnits="userSpaceOnUse"><path id="path18" d="M 0,36 36,36 36,0 0,0 0,36 Z"/></clipPath></defs><g transform="matrix(1.25,0,0,-1.25,0,45)" id="g10"><g id="g12"><g xmlns="http://www.w3.org/2000/svg" clip-path="url(#clipPath16)" id="g14"><g id="g20"><path id="path22" style="fill:#eeeeee;fill-opacity:1;fill-rule:nonzero;stroke:none" d="M 36,16.14 V 9 C 36,6.791 34.209,5 32,5 H 4 C 1.791,5 0,6.791 0,9 v 7.14 z"/></g><g id="g24"><path id="path26" style="fill:#101070;fill-opacity:1;fill-rule:nonzero;stroke:none" d="M 0,16.14 V 27 c 0,2.209 1.791,4 4,4 h 28 c 2.209,0 4,-1.791 4,-4 V 16.14 Z"/></g><g id="g28"><path id="path30" style="fill:#e6060a;fill-opacity:1;fill-rule:nonzero;stroke:none" d="m 17.5176,7.2318 v 3.677 h -1.747 v 0.966 h 1.747 v 2.04 h 0.965 v -2.04 h 1.747 v -0.966 h -1.747 v -3.677 z"/></g><g id="g32"><path id="path34" style="fill:#fcf10c;fill-opacity:1;fill-rule:nonzero;stroke:none" d="m 18,30.2445 0.247,-0.761 h 0.8 l -0.648,-0.47 0.248,-0.761 -0.647,0.471 -0.647,-0.471 0.248,0.761 -0.648,0.47 h 0.8 z"/></g><g id="g36"><path id="path38" style="fill:#fcf10c;fill-opacity:1;fill-rule:nonzero;stroke:none" d="m 18,23.8095 0.387,-1.646 0.987,1.373 -0.271,-1.669 1.436,0.89 -0.89,-1.437 1.669,0.272 -1.372,-0.988 1.646,-0.386 -1.646,-0.388 1.372,-0.987 -1.669,0.272 0.89,-1.437 -1.436,0.89 0.271,-1.669 -0.987,1.372 -0.387,-1.645 -0.387,1.645 -0.988,-1.372 0.272,1.669 -1.437,-0.89 0.89,1.437 -1.668,-0.272 1.372,0.987 -1.645,0.388 1.645,0.386 -1.372,0.988 1.668,-0.272 -0.89,1.437 1.437,-0.89 -0.272,1.669 0.988,-1.373 z"/></g><g id="g40"><path id="path42" style="fill:#1d7721;fill-opacity:1;fill-rule:nonzero;stroke:none" d="m 18,25.4252 c -6.469,0 -12.091,-3.776 -14.869,-9.285 h 1.037 c 2.69,4.984 7.876,8.36 13.832,8.36 5.956,0 11.141,-3.376 13.831,-8.36 h 1.037 c -2.778,5.509 -8.4,9.285 -14.868,9.285"/></g><g id="g44"><path id="path46" style="fill:#fcf10c;fill-opacity:1;fill-rule:nonzero;stroke:none" d="m 33.9043,16.14 h -1.036 c -2.778,5.509 -8.401,9.285 -14.868,9.285 -6.47,0 -12.091,-3.776 -14.869,-9.285 h -1.035 c 2.854,6.04 8.91,10.215 15.904,10.215 6.994,0 13.05,-4.175 15.904,-10.215"/></g><g id="g48"><path id="path50" style="fill:#e6060a;fill-opacity:1;fill-rule:nonzero;stroke:none" d="m 18,27.2802 c -7.514,0 -14,-4.576 -16.921,-11.14 h 1.017 c 2.854,6.039 8.91,10.215 15.904,10.215 6.994,0 13.05,-4.176 15.904,-10.215 h 1.017 C 32,22.7042 25.513,27.2802 18,27.2802"/></g></g></g></g></svg>