<svg xmlns:dc="http://purl.org/dc/elements/1.1/" xmlns:cc="http://creativecommons.org/ns#" xmlns:rdf="http://www.w3.org/1999/02/22-rdf-syntax-ns#" xmlns:svg="http://www.w3.org/2000/svg" xmlns="http://www.w3.org/2000/svg" xmlns:sodipodi="http://sodipodi.sourceforge.net/DTD/sodipodi-0.dtd" xmlns:inkscape="http://www.inkscape.org/namespaces/inkscape" viewBox="0 0 45 45" style="enable-background:new 0 0 45 45;" xml:space="preserve" version="1.1" id="svg2" inkscape:version="0.48.4 r9939" width="100%" height="100%" sodipodi:docname="17-stripe horisontal.svg"><sodipodi:namedview pagecolor="#ffffff" bordercolor="#666666" borderopacity="1" objecttolerance="10" gridtolerance="10" guidetolerance="10" inkscape:pageopacity="0" inkscape:pageshadow="2" inkscape:window-width="1920" inkscape:window-height="1017" id="namedview3355" showgrid="false" inkscape:zoom="14.833529" inkscape:cx="43.897332" inkscape:cy="22.838064" inkscape:window-x="-8" inkscape:window-y="-8" inkscape:window-maximized="1" inkscape:current-layer="g14"/><metadata id="metadata8"><rdf:RDF><cc:Work rdf:about=""><dc:format>image/svg+xml</dc:format><dc:type rdf:resource="http://purl.org/dc/dcmitype/StillImage"/></cc:Work></rdf:RDF></metadata><defs id="defs6"><clipPath id="clipPath16" clipPathUnits="userSpaceOnUse"><path id="path18" d="M 4,31 C 1.791,31 0,29.209 0,27 L 0,27 0,9 C 0,6.791 1.791,5 4,5 l 0,0 28,0 c 2.209,0 4,1.791 4,4 l 0,0 0,18 c 0,2.209 -1.791,4 -4,4 l 0,0 -28,0 z"/></clipPath></defs><g transform="matrix(1.25,0,0,-1.25,0,45)" id="g10"><g id="g12"><g xmlns="http://www.w3.org/2000/svg" clip-path="url(#clipPath16)" id="g14"><path id="path3259" style="fill:#078930;fill-opacity:1;fill-rule:nonzero;stroke:none" d="m 0,29.4966 36,0 0,1.529 -36,0 z"/><path id="path3259" style="fill:#eeeeee;fill-opacity:1;fill-rule:nonzero;stroke:none" d="m 0,27.9666 36,0 0,1.529 -36,0 z"/><path id="path3259" style="fill:#078930;fill-opacity:1;fill-rule:nonzero;stroke:none" d="m 0,26.4376 36,0 0,1.53 -36,0 z"/><path id="path3259" style="fill:#eeeeee;fill-opacity:1;fill-rule:nonzero;stroke:none" d="m 0,24.9076 36,0 0,1.529 -36,0 z"/><path id="path3259" style="fill:#078930;fill-opacity:1;fill-rule:nonzero;stroke:none" d="m 0,23.3786 36,0 0,1.529 -36,0 z"/><path id="path3259" style="fill:#eeeeee;fill-opacity:1;fill-rule:nonzero;stroke:none" d="m 0,21.8496 36,0 0,1.529 -36,0 z"/><path id="path3259" style="fill:#078930;fill-opacity:1;fill-rule:nonzero;stroke:none" d="m 0,20.3196 36,0 0,1.53 -36,0 z"/><path id="path3259" style="fill:#eeeeee;fill-opacity:1;fill-rule:nonzero;stroke:none" d="m 0,18.7906 36,0 0,1.529 -36,0 z"/><path id="path3259" style="fill:#078930;fill-opacity:1;fill-rule:nonzero;stroke:none" d="m 0,17.2606 36,0 0,1.529 -36,0 z"/><path id="path3259" style="fill:#eeeeee;fill-opacity:1;fill-rule:nonzero;stroke:none" d="m 0,15.7316 36,0 0,1.529 -36,0 z"/><path id="path3259" style="fill:#078930;fill-opacity:1;fill-rule:nonzero;stroke:none" d="m 0,14.2026 36,0 0,1.529 -36,0 z"/><path id="path3259" style="fill:#eeeeee;fill-opacity:1;fill-rule:nonzero;stroke:none" d="m 0,12.6726 36,0 0,1.529 -36,0 z"/><path id="path3259" style="fill:#078930;fill-opacity:1;fill-rule:nonzero;stroke:none" d="m 0,11.1426 36,0 0,1.53 -36,0 z"/><path id="path3259" style="fill:#eeeeee;fill-opacity:1;fill-rule:nonzero;stroke:none" d="m 0,9.6136 36,0 0,1.529 -36,0 z"/><path id="path3259" style="fill:#078930;fill-opacity:1;fill-rule:nonzero;stroke:none" d="m 0,8.0846 36,0 0,1.529 -36,0 z"/><path id="path3259" style="fill:#eeeeee;fill-opacity:1;fill-rule:nonzero;stroke:none" d="m 0,6.5546 36,0 0,1.529 -36,0 z"/><path id="path3259" style="fill:#078930;fill-opacity:1;fill-rule:nonzero;stroke:none" d="m 0,5.0256 36,0 0,1.529 -36,0 z"/></g></g></g></svg>