<svg xmlns:dc="http://purl.org/dc/elements/1.1/" xmlns:cc="http://creativecommons.org/ns#" xmlns:rdf="http://www.w3.org/1999/02/22-rdf-syntax-ns#" xmlns:svg="http://www.w3.org/2000/svg" xmlns="http://www.w3.org/2000/svg" viewBox="0 0 45 45" style="enable-background:new 0 0 45 45;" xml:space="preserve" version="1.1" id="svg2"><metadata id="metadata8"><rdf:RDF><cc:Work rdf:about=""><dc:format>image/svg+xml</dc:format><dc:type rdf:resource="http://purl.org/dc/dcmitype/StillImage"/></cc:Work></rdf:RDF></metadata><defs id="defs6"><clipPath id="clipPath16" clipPathUnits="userSpaceOnUse"><path id="path18" d="M 0,36 36,36 36,0 0,0 0,36 Z"/></clipPath></defs><g transform="matrix(1.25,0,0,-1.25,0,45)" id="g10"><g id="g12"><g xmlns="http://www.w3.org/2000/svg" clip-path="url(#clipPath16)" id="g14"><g id="g30"><path id="path20" style="fill:#04158e;fill-opacity:1;fill-rule:nonzero;stroke:none" d="M 32,31 18,31 18,5 32,5 c 2.209,0 4,1.791 4,4 l 0,18 c 0,2.209 -1.791,4 -4,4"/><path id="path21" style="fill:#eeeeee;fill-opacity:1;fill-rule:nonzero;stroke:none" d="M 18,31 4,31 C 1.791,31 0,29.209 0,27 L 0,9 C 0,6.791 1.791,5 4,5 l 14,0 0,26 z"/></g><g id="g34"><path id="path30" style="fill:#f5f5f5;fill-opacity:1;fill-rule:nonzero;stroke:none" d="m 27.0859,18.3447 -0.544,-0.584 c 0,0 -0.065,0.334 -0.374,0.334 -0.31,0 -0.623,-0.518 -0.397,-0.98 0.194,-0.397 0.582,-0.08 0.582,-0.08 l 2.127,2.265 c 0,0 0.09,-0.328 0.337,-0.329 0.149,-0.001 0.325,0.073 0.442,0.323 0.087,0.186 0.098,0.507 -0.015,0.677 -0.253,0.379 -0.573,0.061 -0.573,0.061 l -0.876,-0.936 -7.406,10.384 -1.086,0.74 0.377,-1.27 7.406,-10.605 z"/><path id="path31" style="fill:#f5f5f5;fill-opacity:1;fill-rule:nonzero;stroke:none" d="m 28.7949,15.3682 c -0.021,-0.081 -0.032,-0.167 -0.032,-0.257 0,-0.493 0.34,-0.893 0.759,-0.893 0.419,0 0.758,0.4 0.758,0.893 0,0.494 -0.339,0.895 -0.758,0.895 -0.026,0 -0.051,-0.002 -0.077,-0.005 l -0.126,0.22 c -0.079,-0.072 -0.137,-0.093 -0.137,-0.093 0,0 -0.054,-0.131 -0.18,-0.136 -0.234,-0.01 -0.223,0.138 -0.223,0.138 0,0 -0.046,0.029 -0.016,0.167 0.034,0.16 0.115,0.218 0.115,0.218 0,0 -0.359,-0.145 -0.463,0.047 -0.04,0.074 0.017,0.191 0.017,0.191 0,0 -0.016,0.033 -0.01,0.083 0.006,0.05 0.036,0.091 0.036,0.091 0,0 -0.103,0.037 -0.122,0.153 -0.017,0.1 0.034,0.216 0.034,0.216 0,0 -0.211,0.062 -0.113,0.439 0.06,0.233 0.169,0.341 0.169,0.341 0,0 -0.039,-0.039 -0.173,-0.076 -0.134,-0.037 -0.212,-0.037 -0.212,-0.037 0,0 -0.047,-0.083 -0.082,-0.295 -0.035,-0.211 -0.13,-0.287 -0.13,-0.287 0,0 0.068,-0.105 0.13,-0.301 0.063,-0.195 0.055,-0.353 0.055,-0.353 l 0.781,-1.359 z"/><path id="path32" style="fill:#ed8f79;fill-opacity:1;fill-rule:nonzero;stroke:none" d="m 28.2041,19.0073 c 0,0 0.518,0.137 0.71,0.003 0.279,-0.193 0.198,-0.51 0.198,-0.51 0,0 0.264,0.001 0.341,-0.203 0.092,-0.244 -0.049,-0.525 -0.049,-0.525 0,0 0.16,-0.021 0.163,-0.283 0.003,-0.263 -0.14,-0.456 -0.14,-0.456 0,0 0.343,-0.093 0.084,-0.565 -0.152,-0.276 -0.329,-0.34 -0.329,-0.34 0,0 -0.054,-0.131 -0.18,-0.136 -0.235,-0.01 -0.223,0.138 -0.223,0.138 0,0 -0.047,0.029 -0.016,0.167 0.034,0.16 0.115,0.218 0.115,0.218 0,0 -0.36,-0.145 -0.463,0.047 -0.04,0.073 0.017,0.191 0.017,0.191 0,0 -0.016,0.033 -0.01,0.083 0.006,0.049 0.036,0.09 0.036,0.09 0,0 -0.104,0.038 -0.122,0.154 -0.017,0.099 0.034,0.216 0.034,0.216 0,0 -0.211,0.062 -0.113,0.439 0.06,0.233 0.169,0.341 0.169,0.341 0,0 -0.039,-0.039 -0.173,-0.076 -0.134,-0.037 -0.212,-0.037 -0.212,-0.037 0,0 -0.047,-0.083 -0.082,-0.295 -0.035,-0.211 -0.13,-0.287 -0.13,-0.287 0,0 0.067,-0.105 0.13,-0.301 0.062,-0.196 0.055,-0.353 0.055,-0.353 l 0.522,-0.91 c 0,0 -0.118,-0.352 -0.346,-0.557 -0.227,-0.204 -0.564,-0.27 -0.564,-0.27 0,0 -0.04,-0.074 -0.196,-0.169 -0.158,-0.094 -0.258,-0.138 -0.258,-0.138 -0.138,0.09 -0.369,0.313 -0.503,0.84 -0.169,0.662 0.098,1.196 0.098,1.196 0,0 0.031,0.02 0.042,0.123 0.012,0.105 0.008,0.259 0.138,0.539 0.129,0.278 0.282,0.595 0.282,0.595 0,0 0.017,0.109 0.092,0.228 0.101,0.158 0.247,0.153 0.247,0.153 0,0 0.13,0.235 0.212,0.299 0.041,0.032 0.09,0.039 0.13,0.038 l 0.294,0.313 z"/><path id="path33" style="fill:#f5f5f5;fill-opacity:1;fill-rule:nonzero;stroke:none" d="m 18,23.3198 0,-4.82 c 0,0 0.083,-0.223 0.147,-0.549 0.064,-0.326 0.102,-0.631 0.102,-0.631 l -0.112,-0.141 c 0,0 0.061,-0.088 0.191,-0.198 0.129,-0.111 0.219,-0.152 0.219,-0.152 l 0,-0.092 c 0,0 -0.325,-0.009 -0.325,-0.468 0,-0.263 0.18,-0.412 0.325,-0.412 0.231,0 0.317,0.334 0.317,0.334 l 0.51,-0.954 c 0,0 -0.113,-0.188 -0.023,-0.333 0.09,-0.145 0.266,-0.104 0.266,-0.104 l 0.336,-0.535 c 0,0 -0.079,-0.164 -0.079,-0.341 0,-0.241 0.124,-0.436 0.564,-0.85 0.249,-0.234 0.568,-0.422 0.568,-0.422 0,0 0.257,-0.491 0.406,-0.728 0.18,-0.288 0.302,-0.391 0.302,-0.391 l 0.017,-0.132 0.077,0.103 c 0,0 0.239,0.003 0.552,0.063 0.369,0.071 0.506,0.213 0.506,0.213 0,0 0.334,-0.265 1.023,-0.175 0.381,0.049 0.399,0.913 0.399,0.913 0,0 0.654,0.375 1.294,1.035 0.724,0.747 1.518,1.041 1.518,1.041 l 0.184,0.034 c 0,0 -0.416,0.111 -0.615,0.896 -0.169,0.662 0.098,1.196 0.098,1.196 0,0 -0.053,0.033 -0.125,-0.047 -0.046,-0.051 -0.076,-0.103 -0.076,-0.103 0,0 -0.484,-0.464 -1.278,-0.669 -0.667,-0.173 -1.352,-0.436 -1.352,-0.436 0,0 -0.183,0.436 -0.41,0.436 -0.288,0 -0.785,-1.048 -0.785,-1.048 l -0.002,0.105 -0.05,-0.077 c 0,0 0.026,0.398 -0.135,1.222 -0.127,0.652 -0.498,0.459 -0.498,0.459 l -0.201,0.453 c 0,0 0.095,0.156 0.028,0.365 -0.056,0.171 -0.227,0.117 -0.227,0.117 l -0.276,0.718 0.179,0.132 c 0,0 -0.353,0.353 -0.53,1.309 -0.284,1.538 -0.808,1.35 -0.808,1.35 0,0 -0.117,1.514 -0.819,2.038 -0.637,0.475 -1.402,0.276 -1.402,0.276"/><path id="path34" style="fill:#810000;fill-opacity:1;fill-rule:nonzero;stroke:none" d="m 15.3442,26.0854 c 0,0 0.285,-0.047 0.268,-0.194 -0.003,-0.019 -0.008,-0.037 -0.015,-0.056 0,0 -0.258,0.229 -1.211,-0.143 -0.428,-0.168 -0.844,-0.403 -1.115,-0.5 -0.333,-0.118 -0.423,-0.113 -0.473,-0.077 -0.029,0.021 0.36,0.118 0.647,0.314 0.798,0.547 1.53,0.688 1.53,0.688 l 0.369,-0.032 z"/><path id="path35" style="fill:#ebc200;fill-opacity:1;fill-rule:nonzero;stroke:none" d="m 15.4116,25.5942 c 0,0 -0.106,0.008 -0.512,-0.15 -0.597,-0.232 -0.617,0.114 -0.617,0.114 0,0 0.324,-0.052 0.608,0.112 0.489,0.283 0.707,0.165 0.707,0.165 -0.047,-0.127 -0.186,-0.241 -0.186,-0.241"/><path id="path36" style="fill:#ebc200;fill-opacity:1;fill-rule:nonzero;stroke:none" d="m 15.3442,26.0854 c 0,0 -0.553,0.012 -0.744,0.147 -0.192,0.135 -0.371,0.238 -0.559,0.176 -0.188,-0.061 -0.168,-0.217 -0.168,-0.217 0,0 -0.197,0.092 -0.197,0.236 0,0.346 0.727,0.446 0.727,0.446 0,0 0.133,-0.171 0.511,-0.379 0.492,-0.271 0.43,-0.409 0.43,-0.409"/><path id="path37" style="fill:#ebc200;fill-opacity:1;fill-rule:nonzero;stroke:none" d="m 14.2534,13.2715 c 0,0 -0.283,-0.175 -0.451,-0.228 -0.167,-0.052 -0.576,0.05 -0.735,0.012 -0.159,-0.038 -2.138,-0.649 -2.138,-0.649 0,0 0.394,0.067 0.636,0.032 0.176,-0.026 0.243,-0.171 0.243,-0.171 0,0 0.281,0.039 0.48,-0.156 0.32,-0.315 -0.182,-0.482 -0.182,-0.482 0,0 0.061,0.138 -0.08,0.226 -0.106,0.066 -0.227,0.039 -0.227,0.039 0,0 -0.02,-0.162 -0.329,-0.171 -0.335,-0.01 -0.276,0.306 -0.418,0.37 -0.119,0.056 -0.276,0.072 -0.276,0.072 0,0 -0.268,-0.23 -0.659,-0.145 -0.391,0.085 -0.571,0.088 -0.735,-0.082 -0.165,-0.171 -0.224,-0.4 -0.435,-0.4 -0.241,0 -0.295,0.162 -0.295,0.162 0,0 -0.117,0.026 -0.208,-0.08 -0.091,-0.106 -0.021,-0.211 -0.021,-0.211 0,0 -0.41,0.121 -0.199,0.467 0.097,0.159 0.379,0.188 0.379,0.188 0,0 0.003,0.118 0.335,0.18 0.332,0.061 0.606,0.073 0.606,0.073 0,0 -0.145,0 -0.259,0.062 -0.072,0.038 -0.127,0.106 -0.127,0.106 0,0 -0.141,-0.146 -0.326,-0.146 -0.215,0 -0.265,0.231 -0.265,0.231 0,0 -0.076,0.071 -0.232,0.071 -0.206,0 -0.221,-0.2 -0.221,-0.2 0,0 -0.172,0.103 -0.123,0.264 0.082,0.265 0.348,0.254 0.498,0.221 0.135,-0.028 0.243,-0.097 0.243,-0.097 0,0 0.029,0.071 0.227,0.011 0.196,-0.058 0.473,-0.205 0.561,-0.217 0.088,-0.012 0.132,0 0.132,0 0,0 -0.129,0.018 -0.202,0.091 -0.074,0.074 -0.081,0.202 -0.318,0.174 -0.388,-0.046 -0.333,0.277 -0.333,0.277 0,0 -0.07,0.106 -0.202,0.106 -0.133,0 -0.177,-0.136 -0.177,-0.136 0,0 -0.087,0.126 -0.032,0.242 0.085,0.181 0.347,0.172 0.471,0.117 0.103,-0.047 0.167,-0.136 0.167,-0.136 0,0 0.215,0.103 0.529,-0.227 0.437,-0.46 0.919,-0.348 0.919,-0.348 0,0 0.622,0.187 1.547,0.516 0.926,0.33 1.015,0.433 1.015,0.433 l 0.636,0.112 0.464,-0.077 0.202,-0.256 -0.085,-0.24 z"/><path id="path38" style="fill:#141414;fill-opacity:1;fill-rule:nonzero;stroke:none" d="m 18,23.3198 c 0,0 -0.046,0.247 -0.102,0.466 -0.133,0.526 -0.34,0.664 -0.345,1.311 -0.006,0.706 -0.488,1.25 -0.488,1.25 0,0 0.047,0.016 0.121,-0.007 0.075,-0.024 0.124,-0.067 0.124,-0.067 0,0 -0.126,0.249 -0.396,0.459 -0.199,0.153 -0.426,0.256 -0.426,0.256 0,0 0.077,0.024 0.156,0.077 0.08,0.053 0.1,0.13 0.1,0.13 0,0 -0.223,-0.121 -0.694,-0.121 -0.47,0 -0.806,0.115 -1.191,0.044 -0.255,-0.047 -0.456,-0.244 -0.456,-0.244 0,0 0.134,-0.171 0.512,-0.38 0.491,-0.27 0.429,-0.408 0.429,-0.408 0,0 0.285,-0.048 0.268,-0.195 -0.018,-0.147 -0.2,-0.297 -0.2,-0.297 0,0 0.423,0.002 0.341,-0.376 -0.124,-0.565 -0.653,-0.397 -0.653,-0.397 0,0 0.044,-0.139 0.227,-0.241 0.182,-0.103 0.323,0 0.323,0 0,0 -0.127,-0.092 -0.103,-0.306 0.024,-0.215 0.1,-0.329 0.1,-0.329 0,0 -0.203,-0.18 -0.426,-0.486 -0.224,-0.306 -0.186,-0.424 -0.186,-0.424 0,0 0.034,-0.189 -0.023,-0.35 -0.08,-0.22 -0.197,-0.282 -0.197,-0.282 0,0 0.147,-0.032 0.3,0.047 0.153,0.079 0.194,0.221 0.194,0.221 0,0 0,-0.082 -0.038,-0.174 -0.039,-0.091 -0.083,-0.164 -0.083,-0.164 0,0 -0.706,-0.309 -1.117,-0.309 -0.626,0 -1.375,0.681 -1.559,2.1 -0.091,0.694 0.253,1.229 0.253,1.735 0,0.427 -0.265,0.751 -0.812,1.194 -0.297,0.241 -0.519,0.401 -0.641,0.577 -0.204,0.293 -0.142,0.48 -0.142,0.48 0,0 -0.071,-0.059 -0.148,-0.249 -0.066,-0.161 -0.048,-0.288 -0.048,-0.288 0,0 -0.179,0.091 -0.374,0.429 -0.195,0.337 -0.189,0.662 -0.189,0.662 0,0 -0.107,-0.093 -0.176,-0.258 -0.068,-0.165 -0.063,-0.327 -0.063,-0.327 0,0 -0.258,0.327 -0.255,0.994 0.004,0.54 0.289,0.941 0.289,0.941 0,0 -0.495,-0.143 -0.808,-0.628 -0.365,-0.564 -0.286,-1.066 -0.286,-1.066 0,0 -0.135,0.083 -0.421,0.383 -0.285,0.3 -0.388,0.492 -0.388,0.492 0,0 -0.138,-0.157 -0.079,-0.76 0.047,-0.49 0.244,-0.841 0.244,-0.841 0,0 -0.144,0.036 -0.509,0.221 -0.365,0.185 -0.594,0.347 -0.594,0.347 0,0 -0.009,-0.3 0.203,-0.662 0.211,-0.362 0.512,-0.632 0.512,-0.632 0,0 -0.183,0.02 -0.606,0.167 -0.424,0.147 -0.683,0.286 -0.683,0.286 0,0 0.059,-0.321 0.4,-0.668 0.341,-0.347 0.691,-0.538 0.691,-0.538 0,0 -0.212,0.003 -0.703,0.141 -0.491,0.138 -0.794,0.273 -0.794,0.273 0,0 -0.026,-0.261 0.577,-0.77 0.527,-0.445 1.262,-0.682 1.262,-0.682 0,0 -0.559,0.017 -1.477,0.229 -0.917,0.212 -1.023,-0.059 -1.023,-0.059 0,0 0.299,-0.453 1.129,-0.753 0.698,-0.252 1.388,-0.347 1.388,-0.347 0,0 -0.724,-0.15 -1.8,-0.064 -1.488,0.117 -1.559,-0.095 -1.559,-0.095 0,0 0.047,-0.335 1.383,-0.853 0.957,-0.371 2.141,-0.158 2.141,-0.158 0,0 -0.576,-0.353 -1.724,-0.689 -0.993,-0.29 -2.053,-0.411 -2.053,-0.411 0,0 0.442,-0.477 1.936,-0.583 0.876,-0.062 2.041,0.477 2.041,0.477 0,0 -0.365,-0.342 -1.324,-0.935 -0.826,-0.513 -2.106,-0.977 -2.106,-0.977 0,0 0.271,-0.33 2.018,-0.071 0.815,0.121 1.571,0.665 1.571,0.665 0,0 -0.165,-0.264 -1.112,-0.918 -0.947,-0.652 -1.782,-1.047 -1.782,-1.047 0,0 0.264,-0.347 2.058,0.112 1.161,0.297 1.901,1.071 1.901,1.071 0,0 -0.136,-0.371 -0.901,-1.277 -0.764,-0.906 -1.229,-1.771 -1.229,-1.771 0,0 0.524,-0.006 1.871,1.007 1.346,1.011 1.599,1.517 1.599,1.517 0,0 -0.193,-0.6 -0.97,-1.935 -0.545,-0.937 -1.753,-2.095 -1.753,-2.095 0,0 0.571,-0.346 2.476,0.877 1.327,0.852 1.877,2.136 1.877,2.136 0,0 -0.112,-0.614 -0.402,-1.266 -0.29,-0.65 -0.635,-1.043 -0.792,-1.364 -0.079,-0.161 -0.102,-0.337 -0.102,-0.337 0,0 0.131,-0.357 1.614,0.784 1.126,0.868 1.4,1.748 1.4,1.748 0,0 0.023,-0.236 -0.089,-0.63 -0.111,-0.394 -0.364,-0.712 -0.482,-0.953 -0.076,-0.157 -0.071,-0.306 -0.071,-0.306 0,0 0.571,-0.07 1.63,1.089 0.441,0.482 0.535,1.694 0.535,1.694 0,0 0.083,-0.16 0.177,-0.642 0.094,-0.482 0.1,-0.676 0.1,-0.676 0,0 -0.289,-0.03 -0.5,-0.365 -0.094,-0.148 -0.152,-0.334 -0.221,-0.482 -0.087,-0.188 -0.174,-0.313 -0.174,-0.313 0,0 -0.199,-0.102 -0.894,-0.94 -1.188,-1.435 -2.094,-0.842 -2.094,-0.842 0,0 0.018,-0.117 0.292,-0.267 0.273,-0.15 0.452,-0.14 0.452,-0.14 0,0 -0.06,-0.037 -0.105,-0.11 -0.046,-0.074 -0.051,-0.138 -0.051,-0.138 0,0 0.118,-0.009 0.315,0.044 0.198,0.052 0.334,0.127 0.334,0.127 0,0 -0.141,-0.104 -0.241,-0.2 -0.11,-0.107 -0.167,-0.182 -0.167,-0.182 0,0 0.153,-0.042 0.471,0.075 0.212,0.078 0.401,0.23 0.401,0.23 0,0 -0.065,-0.076 -0.165,-0.326 -0.064,-0.159 -0.086,-0.289 -0.086,-0.289 0,0 0.109,0.088 0.253,0.239 0.104,0.107 0.2,0.12 0.2,0.12 0,0 -0.073,-0.139 -0.109,-0.359 -0.024,-0.152 0.003,-0.306 0.003,-0.306 0,0 0.158,0.398 1.131,0.912 0.748,0.395 1.004,0.741 1.004,0.741 0,0 -0.014,-0.089 -0.047,-0.192 -0.032,-0.103 -0.076,-0.157 -0.076,-0.157 0,0 0.118,0.05 0.256,0.182 0.138,0.131 0.173,0.236 0.173,0.236 0,0 0.177,-0.027 0.316,0.109 0.139,0.137 0.189,0.155 0.189,0.155 0,0 -0.004,-0.761 -0.309,-1.372 -0.306,-0.612 -1.444,-1.066 -3.02,-1.898 -1.577,-0.831 -2.235,-1.65 -1.693,-2.374 0.887,-1.185 2.199,0.986 2.199,0.986 0,0 -0.451,-0.035 -0.887,-0.592 -0.434,-0.552 -1.064,-0.569 -1.107,0.027 -0.073,1.003 2.042,1.551 3.323,2.18 1.281,0.629 1.726,0.934 1.726,0.934 0,0 0.019,-0.541 -0.173,-0.863 -0.129,-0.215 -0.687,-0.343 -1.369,-0.747 -0.247,-0.145 -0.897,-0.623 -0.408,-1.039 0.168,-0.143 0.487,-0.022 0.487,-0.022 0,0 -0.671,0.056 -0.326,0.538 0.344,0.482 1.706,0.653 1.706,0.653 0,0 -0.145,-0.168 -0.356,-0.491 -0.212,-0.323 -0.347,-0.553 -0.847,-0.894 -0.5,-0.341 -1.777,-0.571 -2.095,-1.206 -0.317,-0.635 0.361,-1.323 0.994,-0.99 0.3,0.157 0.211,0.238 0.399,0.433 0.128,0.134 0.666,0.31 0.666,0.31 0,0 -0.609,0.106 -0.919,-0.207 -0.29,-0.293 -0.607,-0.319 -0.754,-0.082 -0.178,0.289 -0.045,0.667 0.418,0.83 0.584,0.206 1.277,0.495 1.708,0.585 0.683,0.145 0.871,0.357 0.871,0.357 0,0 0.003,-0.659 -0.191,-1.133 -0.195,-0.474 -0.698,-0.82 -1.177,-1.082 -0.479,-0.262 -0.377,-0.848 0.071,-0.881 0.423,-0.031 0.471,0.386 0.471,0.386 0,0 -0.313,-0.347 -0.503,-0.135 -0.22,0.243 0.017,0.503 0.296,0.573 0.28,0.072 0.506,0.165 0.803,0.418 0.297,0.253 0.427,0.421 0.427,0.421 0,0 0.07,-0.623 -0.209,-1.038 -0.341,-0.509 -0.3,-0.641 -0.3,-0.641 0,0 0.1,0.103 0.306,0.235 0.206,0.133 0.323,0.124 0.323,0.124 0,0 -0.294,-0.453 -0.294,-0.836 0,-0.427 0.565,-0.768 0.565,-0.768 l 0,17.788 z"/></g></g></g></g></svg>