<svg xmlns="http://www.w3.org/2000/svg" viewBox="0 0 45 45"><path fill="#0300d5" d="m 45,30.63 v 3.12 c 0,2.76 -2.24,5 -5,5 H 5 c -2.76,0 -5,-2.24 -5,-5 v -3.12 z"/><path fill="#eeeeee" d="M 45,11.25 V 30.63 H 0 V 11.25 c 0,-2.76 2.24,-5 5,-5 h 35 c 2.76,0 5,2.24 5,5 z"/><path fill="#0000fe" d="m 3.783625,16.375125 h 13.81 l -0.89125,6.64875 c 0,3.32625 -2.69625,6.02375 -6.02375,6.02375 -3.3275,0 -6.02375,-2.69625 -6.02375,-6.02375 z"/><path fill="#eeeeee" d="m 6.239875,17.862625 v -0.3675 h 0.6275 v 0.3675 h 0.54875 v -0.3675 h 0.475 v 0.79125 h -0.255 l 0.20375,1.34125 h 0.3375 v 0.78375 h -0.235 l 0.15625,2.3225 h -3.09 l 0.15625,-2.3225 h -0.235 v -0.78375 h 0.3375 l 0.20375,-1.34125 h -0.255 v -0.79125 h 0.475 v 0.3675 z"/><path fill="#fdfd05" d="m 17.609875,10.810125 -1.35,3.28 v 1.85 h -11.15 v -1.85 l -1.35,-3.28 h 0.01 l 0.71,-0.47 0.07,0.47 1.53,0.41 0.72,2.87 h 2.59 l -1.13,-2.43 h 0.01 l 1.53,-0.85 v -1.15 h 0.74 v -0.68 h -0.78 v -0.29 h 0.78 v -0.87 h 0.29 v 0.87 h 0.78 v 0.29 h -0.78 v 0.68 h 0.74 v 1.15 l 1.53,0.85 -1.12,2.43 h 2.59 l 0.72,-2.87 1.53,-0.41 0.07,-0.47 0.71,0.47 z m -3.4375,-0.8125 v -1.67 h -0.29 v 1.47 z m -6.68375,-0.2 v -1.47 h -0.29 v 1.67 z"/><path fill="#fdfd05" d="m 8.937375,18.501375 c -0.33125,0.27125 -0.16875,0.33375 0.255,0.72125 0.42375,0.3875 0.80375,0.9175 0.80375,0.9175 0,0 0.11875,-0.1725 0.075,-0.38875 -0.045,-0.21625 0.20375,-0.29 0.20375,-0.29 0.39875,0.165 0.62375,-0.0825 -0.07,-0.325 -0.80375,-0.15875 -1.17875,-0.465 -0.83125,-1.01625 0.12,-0.22875 0.43375,-0.06375 0.31375,0.165 -0.14,0.29625 -0.01,0.52375 0.61625,0.62375 0.19,-0.05125 0.3925,0.0225 0.6075,0.23125 0.0825,-0.52 -0.04625,-0.72875 -0.5025,-0.455 -0.4325,-0.2525 -0.5,-0.5175 -0.1375,-0.8 0.0062,-0.14375 0.06,-0.245 0.14875,-0.31375 0,0 0.315,0.1375 0.43875,-0.09375 0.1725,-0.32125 -0.235,-0.675 -0.235,-0.675 0.12,-0.1375 0.32875,-0.135 0.62,0 0.2,-0.3275 0.40125,-0.32125 0.60375,0 0.35,-0.18 0.52,-0.12375 0.59625,0.055 -0.22125,0.1325 -0.33,0.39375 -0.4075,0.69 0,0 0.785,-0.29 1.46625,0.60375 0.8075,1.06 1.3875,0.9975 1.3875,0.9975 0.06875,0.3025 -0.115,0.39 -0.3525,0.43125 -0.0013,0.33375 -0.18125,0.64125 -0.53375,0.925 0.07125,0.23125 0.03,0.49625 -0.1175,0.7925 0.72375,-0.22125 1.145,-0.67875 1.1925,-1.4275 0.7525,0.36125 1.035,1.56875 0.31375,2.055 0.6975,0.575 0.9725,1.40375 0.64375,1.79625 -0.47,-0.65875 -1.355,-0.84625 -2.0625,-0.41625 1.23625,1.97875 0.51375,3.4275 -0.81625,4.0375 -2.88625,1.32375 -4.0575,-0.32875 -4.0575,-0.32875 0,0 -3.41125,-0.55625 -0.62,-3.4525 -0.29375,-0.105 -0.44375,-0.30625 -0.44375,-0.61 -0.47,0.93375 -1.09,-0.07 -0.65375,-0.6275 -0.5375,-0.2975 0.07375,-0.65875 0.725,-1.27875 0.5025,0.35625 0.73125,0.6825 0.38375,0.94875 h 0.72125 c -0.20375,-0.225 -0.26875,-0.4275 -0.25875,-0.62 -0.62625,-0.15875 -0.855,-0.69 -0.275,-0.66625 -0.48625,-0.68375 -0.7125,-1.15 -0.8,-1.4975 -0.405,0.13125 -0.6325,0.01 -0.31375,-0.88625 -0.10875,-1.00875 0.62,-1.3175 0.59625,-0.29 0,0 0.14125,-0.42375 0.455,-0.42375 0.1375,0 0.17625,0.125 0.2825,0.275 0.13625,0.19375 0.44625,0.28375 0.03875,0.61625 z m 1.56875,5.5575 c -0.34125,0.74125 0.52375,1.22375 0.52375,1.22375 0,0 0.6825,-0.24 0.805,-0.58875 0.1475,-0.42375 -0.1525,-0.94625 -0.575,-1.035 -0.1275,0.39 -0.63875,0.15 -0.75375,0.4 z"/></svg>