<svg xmlns:dc="http://purl.org/dc/elements/1.1/" xmlns:cc="http://creativecommons.org/ns#" xmlns:rdf="http://www.w3.org/1999/02/22-rdf-syntax-ns#" xmlns:svg="http://www.w3.org/2000/svg" xmlns="http://www.w3.org/2000/svg" viewBox="0 0 45 45" style="enable-background:new 0 0 45 45;" xml:space="preserve" version="1.1" id="svg2"><metadata id="metadata8"><rdf:RDF><cc:Work rdf:about=""><dc:format>image/svg+xml</dc:format><dc:type rdf:resource="http://purl.org/dc/dcmitype/StillImage"/></cc:Work></rdf:RDF></metadata><defs id="defs6"><clipPath id="clipPath16" clipPathUnits="userSpaceOnUse"><path id="path18" d="M 4,31 C 1.791,31 0,29.209 0,27 L 0,27 0,9 C 0,6.791 1.791,5 4,5 l 0,0 28,0 c 2.209,0 4,1.791 4,4 l 0,0 0,18 c 0,2.209 -1.791,4 -4,4 l 0,0 -28,0 z"/></clipPath></defs><g transform="matrix(1.25,0,0,-1.25,0,45)" id="g10"><g id="g12"><g xmlns="http://www.w3.org/2000/svg" clip-path="url(#clipPath16)" id="g14"><g id="g30"><path id="path20" style="fill:#00247d;fill-opacity:1;fill-rule:nonzero;stroke:none" d="M 36,9 C 36,6.791 34.209,5 32,5 L 4,5 C 1.791,5 0,6.791 0,9 l 0,18 c 0,2.209 1.791,4 4,4 l 28,0 c 2.209,0 4,-1.791 4,-4 L 36,9 z"/></g><g id="g34"><path id="path30" style="fill:#ffa300;fill-opacity:1;fill-rule:nonzero;stroke:none" d="m 23.3408,17.9966 c 0,2.298 1.862,4.161 4.161,4.161 2.298,0 4.16,-1.863 4.16,-4.161 0,-2.298 -1.862,-4.161 -4.16,-4.161 -2.299,0 -4.161,1.863 -4.161,4.161"/><path id="path34" style="fill:#231f20;fill-opacity:1;fill-rule:nonzero;stroke:none" d="m 28.0332,18.0713 c 0,0 0.455,-0.102 0.588,0.596 0.122,0.641 0.169,0.641 0.169,0.641 0,0 -0.039,0.434 -0.054,0.991 -0.014,0.556 0.252,1.027 0.252,1.027 0,0 2.369,-1.259 1.92,-3.173 -0.412,-1.757 -2.497,-1.675 -2.497,-1.675 -0.214,0.035 -0.207,0.483 -0.283,0.483 -0.077,0 -0.153,-0.367 -0.095,-0.508 0.034,-0.083 0.132,-0.158 0.237,-0.257 0.137,-0.126 0.283,-0.268 0.283,-0.268 0,0 0.169,0.029 0.324,-0.041 0.155,-0.07 0.333,-0.045 0.333,-0.045 0,0 0.263,-0.273 -0.25,-0.33 -0.336,-0.036 -0.557,0 -0.557,0 0,0 0.048,-0.109 0.13,-0.211 0.082,-0.101 0.062,-0.204 0.062,-0.204 0,0 -0.465,-0.485 -1.093,-0.485 -0.629,0 -1.095,0.485 -1.095,0.485 0,0 -0.02,0.103 0.063,0.204 0.082,0.102 0.129,0.211 0.129,0.211 0,0 -0.22,-0.036 -0.556,0 -0.514,0.057 -0.25,0.33 -0.25,0.33 0,0 0.178,-0.025 0.333,0.045 0.154,0.07 0.324,0.041 0.324,0.041 0,0 0.146,0.142 0.282,0.268 0.106,0.099 0.203,0.174 0.238,0.257 0.057,0.141 -0.018,0.508 -0.095,0.508 -0.076,0 -0.07,-0.448 -0.283,-0.483 0,0 -2.085,-0.082 -2.497,1.675 -0.449,1.914 2.064,3.173 2.064,3.173 0,0 0.266,-0.471 0.251,-1.027 -0.014,-0.557 -0.126,-0.991 -0.126,-0.991 0,0 0.048,0 0.17,-0.641 0.133,-0.698 0.628,-0.636 0.628,-0.636 0,0 0.082,-0.025 0.136,0.119 0.053,0.144 0,0.229 0,0.229 0,0 -0.085,0.084 -0.212,0.15 -0.088,0.044 -0.136,0.163 -0.136,0.163 0,0 0.124,-0.003 0.186,-0.019 0.063,-0.018 0.156,-0.06 0.156,-0.06 0,0 -0.042,0.075 -0.13,0.153 -0.093,0.081 -0.195,0.116 -0.195,0.116 0,0 0.054,0.067 0.24,0.011 0.186,-0.057 0.564,-0.194 0.731,-0.404 0.122,-0.152 0.175,-0.418 0.175,-0.418"/><path id="path38" style="fill:#eeeeee;fill-opacity:1;fill-rule:nonzero;stroke:none" d="m 27.624,18.2407 c 0.031,0.193 0.088,0.203 0.088,0.203 0,0 0.082,-0.032 0.134,-0.121 0.052,-0.089 0.055,-0.226 0.055,-0.226 0,0 -0.077,-0.206 -0.046,-0.525 0.032,-0.319 0.151,-0.531 0.151,-0.531 0,0 -0.033,-0.302 -0.182,-0.706 -0.169,-0.463 -0.322,-0.566 -0.322,-0.566 0,0 -0.154,0.103 -0.323,0.566 -0.149,0.404 -0.182,0.706 -0.182,0.706 0,0 0.119,0.097 0.15,0.392 0.032,0.294 -0.034,0.48 -0.008,0.513 0.031,0.042 0.146,-0.021 0.306,0.083 0.136,0.087 0.179,0.212 0.179,0.212"/></g><g id="g38"><path id="path40" style="fill:#00247d;fill-opacity:1;fill-rule:nonzero;stroke:none" d="m 19.001,31 -19,0 0,-13 19,0 0,13 z"/><path id="path42" style="fill:#eeeeee;fill-opacity:1;fill-rule:nonzero;stroke:none" d="m 7.3911,24.4961 -7.391,-5.262 0,-1.234 3.332,0 6.669,4.669 6.668,-4.669 2.332,0 0,2.029 -6.386,4.471 6.386,4.471 0,2.029 -2.331,0 -6.67,-4.67 -6.667,4.67 -3.332,0 0,-1.332 7.39,-5.172 z"/><path id="path44" style="fill:#cf142b;fill-opacity:1;fill-rule:nonzero;stroke:none" d="m 10.8735,23.8887 8.127,-5.69 0,1.219 -8.127,5.692 8.127,5.692 0,0.198 -1.46,0 -8.412,-5.889 -8.41,5.889 -0.718,-0.712 9.128,-6.399 -8.394,-5.889 0.266,0 1.461,0 8.412,5.889 z"/><path id="path46" style="fill:#eeeeee;fill-opacity:1;fill-rule:nonzero;stroke:none" d="m 19.001,27 -7,0 0,4 -5,0 0,-4 -7,0 0,-5 7,0 0,-4 5,0 0,4 7,0 0,5 z"/><path id="path48" style="fill:#cf142b;fill-opacity:1;fill-rule:nonzero;stroke:none" d="m 11.001,23 0,-5 -3,0 0,5 -8,0 0,3 8,0 0,5 3,0 0,-5 8,0 0,-3 -8,0 z"/></g></g></g></g></svg>