<svg xmlns:dc="http://purl.org/dc/elements/1.1/" xmlns:cc="http://creativecommons.org/ns#" xmlns:rdf="http://www.w3.org/1999/02/22-rdf-syntax-ns#" xmlns:svg="http://www.w3.org/2000/svg" xmlns="http://www.w3.org/2000/svg" viewBox="0 0 45 45" style="enable-background:new 0 0 45 45;" xml:space="preserve" version="1.1" id="svg2"><metadata id="metadata8"><rdf:RDF><cc:Work rdf:about=""><dc:format>image/svg+xml</dc:format><dc:type rdf:resource="http://purl.org/dc/dcmitype/StillImage"/></cc:Work></rdf:RDF></metadata><defs id="defs6"><clipPath id="clipPath16" clipPathUnits="userSpaceOnUse"><path id="path18" d="M 0,36 36,36 36,0 0,0 0,36 Z"/></clipPath></defs><g transform="matrix(1.25,0,0,-1.25,0,45)" id="g10"><g id="g12"><g xmlns="http://www.w3.org/2000/svg" clip-path="url(#clipPath16)" id="g14"><path id="path20" style="fill:#fcef3c;fill-opacity:1;fill-rule:nonzero;stroke:none" d="M 32,31 4,31 C 1.791,31 0,29.209 0,27 l 0,-9 36,0 0,9 c 0,2.209 -1.791,4 -4,4"/><path id="path24" style="fill:#5ab532;fill-opacity:1;fill-rule:nonzero;stroke:none" d="M 0,9 C 0,6.791 1.791,5 4,5 l 28,0 c 2.209,0 4,1.791 4,4 l 0,9 -36,0 0,-9 z"/><g id="g30" transform="translate(0,0.8)"><path id="path30" style="fill:#ffffff;fill-opacity:1;fill-rule:nonzero;stroke:none" d="m 23.749,16.9178 c 0,4.932 -3.998,8.93 -8.929,8.93 -4.932,0 -8.93,-3.998 -8.93,-8.93 0,-4.932 3.998,-8.93 8.93,-8.93 4.931,0 8.929,3.998 8.929,8.93"/><path id="path32" style="fill:#5ab532;fill-opacity:1;fill-rule:nonzero;stroke:none" d="m 8.4956,13.5389 c 1.208,-2.256 3.587,-3.79 6.324,-3.79 2.739,0 5.119,1.536 6.326,3.794 l -12.65,-0.004 z"/><path id="path34" style="fill:#2b5df2;fill-opacity:1;fill-rule:nonzero;stroke:none" d="m 21.1455,13.5428 c 0.538,1.006 0.843,2.154 0.843,3.375 0,3.959 -3.209,7.169 -7.169,7.169 -3.959,0 -7.169,-3.21 -7.169,-7.169 0,-1.222 0.306,-2.372 0.845,-3.379 l 12.65,0.004 z"/><path id="path36" style="fill:#e20909;fill-opacity:1;fill-rule:nonzero;stroke:none" d="m 16.1118,14.7332 0,-2.021 c 0,0 0.07,0.107 0.394,0.153 0.42,0.058 0.386,0.408 0.386,0.408 l 0,1.46 -0.78,0 z"/><path id="path38" style="fill:#e06565;fill-opacity:1;fill-rule:nonzero;stroke:none" d="m 16.1118,14.7332 0,-2.021 c 0,0 -0.07,0.107 -0.394,0.153 -0.421,0.058 -0.386,0.408 -0.386,0.408 l 0,1.46 0.78,0 z"/></g></g></g></g></svg>