<svg xmlns:dc="http://purl.org/dc/elements/1.1/" xmlns:cc="http://creativecommons.org/ns#" xmlns:rdf="http://www.w3.org/1999/02/22-rdf-syntax-ns#" xmlns:svg="http://www.w3.org/2000/svg" xmlns="http://www.w3.org/2000/svg" viewBox="0 0 45 45" style="enable-background:new 0 0 45 45;" xml:space="preserve" version="1.1" id="svg2"><metadata id="metadata8"><rdf:RDF><cc:Work rdf:about=""><dc:format>image/svg+xml</dc:format><dc:type rdf:resource="http://purl.org/dc/dcmitype/StillImage"/></cc:Work></rdf:RDF></metadata><defs id="defs6"><clipPath id="clipPath16" clipPathUnits="userSpaceOnUse"><path id="path18" d="M 4,31 C 1.791,31 0,29.209 0,27 L 0,27 0,9 C 0,6.791 1.791,5 4,5 l 0,0 28,0 c 2.209,0 4,1.791 4,4 l 0,0 0,18 c 0,2.209 -1.791,4 -4,4 l 0,0 -28,0 z"/></clipPath></defs><g transform="matrix(1.25,0,0,-1.25,0,45)" id="g10"><g id="g12"><g xmlns="http://www.w3.org/2000/svg" clip-path="url(#clipPath16)" id="g14"><g id="g30"><path id="path20" style="fill:#006630;fill-opacity:1;fill-rule:nonzero;stroke:none" d="M 0,5 H 36 V 31 H 0 Z"/><path id="path21" style="fill:#c0022d;fill-opacity:1;fill-rule:nonzero;stroke:none" d="M 0,5 H 36 V 18 H 0 Z"/></g><g id="g34"><path id="path30" style="fill:#ffffff;fill-opacity:1;fill-rule:nonzero;stroke:none" d="m 17.731,15.1514 c 1.062,-2.213 3.325,-3.741 5.944,-3.741 2.622,0 4.887,1.531 5.947,3.748 z"/><path id="path31" style="fill:#006630;fill-opacity:1;fill-rule:nonzero;stroke:none" d="m 29.6221,15.1582 c 0.412,0.86 0.643,1.824 0.643,2.841 h -13.18 c 0,-1.02 0.232,-1.986 0.646,-2.848 z"/><path id="path32" style="fill:#002468;fill-opacity:1;fill-rule:nonzero;stroke:none" d="m 17.0854,17.9995 c 0,3.64 2.95,6.59 6.589,6.59 3.64,0 6.59,-2.95 6.59,-6.59 z"/><path id="path33" style="fill:#9f6210;fill-opacity:1;fill-rule:nonzero;stroke:none" d="m 20.0947,17.3652 c 0,0 0.12,0.26 0.654,1.941 0.407,1.277 0.514,2.132 0.902,2.734 0.37,0.577 1.09,1.101 1.978,1.101 0.889,0 1.61,-0.524 1.98,-1.101 0.386,-0.602 0.495,-1.457 0.9,-2.734 0.535,-1.681 0.654,-1.941 0.654,-1.941 z"/><path id="path34" style="fill:#006630;fill-opacity:1;fill-rule:nonzero;stroke:none" d="m 23.4404,17.3652 v 1.619 c -0.533,0.09 -0.939,0.553 -0.939,1.112 0,0.623 0.504,1.128 1.127,1.128 0.624,0 1.129,-0.505 1.129,-1.128 0,-0.559 -0.406,-1.022 -0.939,-1.112 v -1.619 z"/><path id="path35" style="fill:#ffffff;fill-opacity:1;fill-rule:nonzero;stroke:none" d="m 23.9131,19.0342 c 0,0 0.046,-0.125 0.141,-0.277 0.13,-0.205 0.196,-0.244 0.348,-0.278 0.302,-0.067 0.629,0.128 0.81,0.41 0.127,0.199 0.164,0.441 0.067,0.664 -0.055,0.129 -0.133,0.214 -0.288,0.3 -0.135,0.074 -0.25,0.123 -0.25,0.123 0,0 -0.181,-0.369 -0.325,-0.526 -0.186,-0.203 -0.503,-0.416 -0.503,-0.416"/><path id="path36" style="fill:#ffffff;fill-opacity:1;fill-rule:nonzero;stroke:none" d="m 24.7402,20.3311 c 0,0 0.125,0.063 0.281,0.162 0.212,0.133 0.26,0.25 0.274,0.41 0.024,0.294 -0.14,0.546 -0.424,0.742 -0.201,0.139 -0.442,0.156 -0.68,0.08 -0.162,-0.052 -0.23,-0.113 -0.318,-0.272 -0.077,-0.139 -0.119,-0.251 -0.119,-0.251 0,0 0.37,-0.16 0.589,-0.372 0.203,-0.197 0.397,-0.499 0.397,-0.499"/><path id="path37" style="fill:#ffffff;fill-opacity:1;fill-rule:nonzero;stroke:none" d="m 23.3457,19.0342 c 0,0 -0.046,-0.125 -0.142,-0.277 -0.129,-0.205 -0.196,-0.244 -0.348,-0.278 -0.301,-0.067 -0.628,0.128 -0.809,0.41 -0.128,0.199 -0.164,0.441 -0.067,0.664 0.055,0.129 0.133,0.214 0.288,0.3 0.134,0.074 0.25,0.123 0.25,0.123 0,0 0.181,-0.369 0.324,-0.526 0.187,-0.203 0.504,-0.416 0.504,-0.416"/><path id="path38" style="fill:#ffffff;fill-opacity:1;fill-rule:nonzero;stroke:none" d="m 22.5186,20.3311 c 0,0 -0.125,0.063 -0.281,0.162 -0.212,0.133 -0.26,0.25 -0.274,0.41 -0.024,0.294 0.14,0.546 0.424,0.742 0.201,0.139 0.442,0.156 0.68,0.08 0.162,-0.052 0.229,-0.113 0.318,-0.272 0.076,-0.139 0.119,-0.251 0.119,-0.251 0,0 -0.37,-0.16 -0.589,-0.372 -0.203,-0.197 -0.397,-0.499 -0.397,-0.499"/></g><g id="g38"><path id="path40" style="fill:#bf0a30;fill-opacity:1;fill-rule:nonzero;stroke:none" d="m 0,22.333 h 12 v 0.82 H 0 Z"/><path id="path41" style="fill:#eeeeee;fill-opacity:1;fill-rule:nonzero;stroke:none" d="m 0,23.154 h 12 v 0.723 H 0 Z"/><path id="path42" style="fill:#bf0a30;fill-opacity:1;fill-rule:nonzero;stroke:none" d="M 0,23.876 H 12 V 24.73 H 0 Z"/><path id="path43" style="fill:#eeeeee;fill-opacity:1;fill-rule:nonzero;stroke:none" d="m 0,24.729 h 12 v 0.723 H 0 Z"/><path id="path44" style="fill:#bf0a30;fill-opacity:1;fill-rule:nonzero;stroke:none" d="m 0,25.452 h 12 v 0.854 H 0 Z"/><path id="path45" style="fill:#eeeeee;fill-opacity:1;fill-rule:nonzero;stroke:none" d="m 0,27.0278 v -0.028 -0.694 h 12 v 0.722 H 4 Z"/><path id="path46" style="fill:#bf0a30;fill-opacity:1;fill-rule:nonzero;stroke:none" d="m 4,27.028 h 8 v 0.854 H 4 Z"/><path id="path47" style="fill:#eeeeee;fill-opacity:1;fill-rule:nonzero;stroke:none" d="m 4,27.881 h 8 v 0.722 H 4 Z"/><path id="path48" style="fill:#bf0a30;fill-opacity:1;fill-rule:nonzero;stroke:none" d="m 4,28.604 h 8 v 0.854 H 4 Z"/><path id="path49" style="fill:#eeeeee;fill-opacity:1;fill-rule:nonzero;stroke:none" d="m 4,29.457 h 8 v 0.722 H 4 Z"/><path id="path50" style="fill:#bf0a30;fill-opacity:1;fill-rule:nonzero;stroke:none" d="m 4,30.179 h 8 V 31 H 4 Z"/><path id="path51" style="fill:#002868;fill-opacity:1;fill-rule:nonzero;stroke:none" d="m 2,28.4375 -0.693,-0.503 0.265,0.814 -0.693,0.503 H 1.735 L 2,30.0665 2.265,29.2515 h 0.856 l -0.693,-0.503 0.265,-0.814 z m 2,-0.556 v 0.722 0.854 0.722 0.821 H 0 v -3.973 h 4 z"/><path id="path52" style="fill:#ffffff;fill-opacity:1;fill-rule:nonzero;stroke:none" d="m 3.1206,29.2515 h -0.856 l -0.265,0.814 -0.264,-0.814 h -0.856 l 0.692,-0.503 -0.264,-0.814 0.692,0.503 0.693,-0.503 -0.264,0.814 z"/></g></g></g></g></svg>