<svg xmlns="http://www.w3.org/2000/svg" viewBox="0 0 45 45"><path fill="#eeeeee" d="M 8.3062496,6.25 H 36.69375 v 32.5 H 8.3062496 Z"/><path fill="#7accfe" d="M 8.30625,38.75 H 5 c -2.76,0 -5,-2.24 -5,-5 v -22.5 c 0,-2.76 2.24,-5 5,-5 h 3.30625 z"/><path fill="#7accfe" d="M 36.69375,38.75 H 40 c 2.76,0 5,-2.24 5,-5 v -22.5 c 0,-2.76 -2.24,-5 -5,-5 h -3.30625 z"/><path fill="#fdaa06" d="m 22.499875,37.880125 c -13.95,0 -16.4075,-4.59 -16.4075,-4.59 v -3 c 0,0 -0.7475,0.15 -2.4025,-0.46 -1.6475,-0.61 -2.205,-1.25 -2.205,-1.25 v -3.29 c 0,0 0.765,1.46 3.4475,1.46 1.8175,0 2.79,-1.08 4.3825,-1.08 1.6025,0 1.6825,1.21 1.6825,1.21 v 3.46 c 0,0 -0.44,0.9 -1.64625,0.46 -1.20625,-0.44 -1.045,0.32 -1.045,0.32 0,0 2.72625,3.505 14.19375,3.505 v 0 0 c 11.46625,0 14.19375,-3.505 14.19375,-3.505 0,0 0.16,-0.76 -1.045,-0.32 -1.20625,0.44 -1.64625,-0.46 -1.64625,-0.46 v -3.46 c 0,0 0.08125,-1.21 1.6825,-1.21 1.5925,0 2.565,1.08 4.3825,1.08 2.6825,0 3.4475,-1.46 3.4475,-1.46 v 3.29 c 0,0 -0.5575,0.64 -2.205,1.25 -1.65625,0.61 -2.4025,0.46 -2.4025,0.46 v 3 c 0,0 -2.4575,4.59 -16.4075,4.59 z"/><path fill="#fdaa06" d="m 30.489875,20.960125 v 9.33 c 0,0.42 -0.34,0.75 -0.75,0.75 h -5.49 c -0.92,0 -1.75,0.92 -1.75,0.92 0,0 -0.83,-0.92 -1.75,-0.92 h -5.49 c -0.41,0 -0.75,-0.33 -0.75,-0.75 v -9.33 z"/><path fill="#e30000" d="m 24.079875,13.600125 v 3.22 c 0,0 -0.07,0.6 -0.73,0.67 -0.66,0.07 -0.85,0.52 -0.85,0.52 0,0 -0.19,-0.45 -0.85,-0.52 -0.66,-0.07 -0.73,-0.67 -0.73,-0.67 v -3.22 c 0,0 3.16,0 3.16,0 z"/><path fill="#fdaa06" d="m 31.089875,8.190125 -0.33,1.46 c 0,0 -0.13,-0.05 -0.39,-0.12 l -0.54,2.47 c 0,0 -0.74,-0.3 -2.12,-0.58 -0.53,-0.11 -1.16,-0.22 -1.88,-0.3 -0.72,-0.09 -1.53,-0.16 -2.43,-0.19 -0.29,-0.01 -0.59,-0.01 -0.9,-0.01 -0.31,0 -0.61,0 -0.9,0.01 -0.9,0.03 -1.71,0.1 -2.43,0.19 -0.72,0.08 -1.35,0.19 -1.88,0.3 -1.38,0.28 -2.12,0.58 -2.12,0.58 l -0.54,-2.47 c -0.26,0.07 -0.39,0.12 -0.39,0.12 l -0.33,-1.46 c 0,0 0.13,-0.05 0.4,-0.12 0.44,-0.14 1.26,-0.35 2.42,-0.54 l 0.22,1.53 c 0.56,-0.09 1.21,-0.17 1.95,-0.24 l -0.19,-1.56 c 0.83,-0.09 1.76,-0.15 2.79,-0.18 l 0.04,1.6 c 0.31,-0.01 0.63,-0.01 0.96,-0.01 0.33,0 0.65,0 0.96,0.01 l 0.04,-1.6 c 1.03,0.03 1.96,0.09 2.79,0.18 l -0.19,1.56 c 0.74,0.07 1.39,0.15 1.95,0.24 l 0.22,-1.53 c 1.16,0.19 1.99,0.41 2.43,0.54 0.26,0.07 0.39,0.12 0.39,0.12 z"/></svg>