<svg xmlns:dc="http://purl.org/dc/elements/1.1/" xmlns:cc="http://creativecommons.org/ns#" xmlns:rdf="http://www.w3.org/1999/02/22-rdf-syntax-ns#" xmlns:svg="http://www.w3.org/2000/svg" xmlns="http://www.w3.org/2000/svg" viewBox="0 0 45 45" style="enable-background:new 0 0 45 45;" xml:space="preserve" version="1.1" id="svg2"><metadata id="metadata8"><rdf:RDF><cc:Work rdf:about=""><dc:format>image/svg+xml</dc:format><dc:type rdf:resource="http://purl.org/dc/dcmitype/StillImage"/></cc:Work></rdf:RDF></metadata><defs id="defs6"><clipPath id="clipPath16" clipPathUnits="userSpaceOnUse"><path id="path18" d="M 4,31 C 1.791,31 0,29.209 0,27 L 0,27 0,9 C 0,6.791 1.791,5 4,5 l 0,0 28,0 c 2.209,0 4,1.791 4,4 l 0,0 0,18 c 0,2.209 -1.791,4 -4,4 l 0,0 -28,0 z"/></clipPath></defs><g transform="matrix(1.25,0,0,-1.25,0,45)" id="g10"><g id="g12"><g clip-path="url(#clipPath16)" id="g14"><g id="g20"><path id="path22" style="fill:#dd1122;fill-opacity:1;fill-rule:nonzero;stroke:none" d="M 0,26.667 H 36 V 31 H 0 Z"/></g><g id="g24"><path id="path26" style="fill:#1144aa;fill-opacity:1;fill-rule:nonzero;stroke:none" d="m 0,22.334 h 36 v 4.333 H 0 Z"/></g><g id="g28"><path id="path30" style="fill:#dd1122;fill-opacity:1;fill-rule:nonzero;stroke:none" d="m 0,18 h 36 v 4.333 H 0 Z"/></g><g id="g32"><path id="path34" style="fill:#1144aa;fill-opacity:1;fill-rule:nonzero;stroke:none" d="M 0,13.667 H 36 V 18 H 0 Z"/></g><g id="g36"><path id="path38" style="fill:#dd1122;fill-opacity:1;fill-rule:nonzero;stroke:none" d="m 0,9.334 h 36 v 4.333 H 0 Z"/></g><g id="g40"><path id="path42" style="fill:#1144aa;fill-opacity:1;fill-rule:nonzero;stroke:none" d="M 0,5 H 36 V 9.334 H 0 Z"/></g><g id="g44"><path id="path50" style="fill:#eeeeee;fill-opacity:1;fill-rule:nonzero;stroke:none" d="m 18,16.0742 0.272,-0.829 0.874,-0.003 -0.705,-0.516 0.267,-0.831 -0.708,0.511 -0.708,-0.511 0.267,0.831 -0.704,0.516 0.873,0.003 z"/><path id="path51" style="fill:#eeeeee;fill-opacity:1;fill-rule:nonzero;stroke:none" d="m 18,23.9141 0.272,-0.829 0.874,-0.003 -0.705,-0.516 0.267,-0.831 -0.708,0.511 -0.708,-0.511 0.267,0.831 -0.704,0.516 0.873,0.003 z"/><path id="path52" style="fill:#eeeeee;fill-opacity:1;fill-rule:nonzero;stroke:none" d="m 19.2725,26.3355 0.272,-0.829 0.874,-0.003 -0.705,-0.515 0.267,-0.831 -0.708,0.511 -0.708,-0.511 0.268,0.831 -0.705,0.515 0.873,0.003 z"/><path id="path53" style="fill:#eeeeee;fill-opacity:1;fill-rule:nonzero;stroke:none" d="m 19.2725,19.9907 0.272,-0.829 0.874,-0.003 -0.705,-0.516 0.267,-0.83 -0.708,0.51 -0.708,-0.51 0.268,0.83 -0.705,0.516 0.873,0.003 z"/><path id="path54" style="fill:#eeeeee;fill-opacity:1;fill-rule:nonzero;stroke:none" d="m 20.0605,17.5694 0.272,-0.829 0.874,-0.003 -0.705,-0.516 0.267,-0.831 -0.708,0.511 -0.708,-0.511 0.268,0.831 -0.705,0.516 0.873,0.003 z"/><path id="path55" style="fill:#eeeeee;fill-opacity:1;fill-rule:nonzero;stroke:none" d="m 18,30.253 0.272,-0.83 0.874,-0.003 -0.705,-0.515 0.267,-0.831 -0.708,0.511 -0.708,-0.511 0.267,0.831 -0.704,0.515 0.873,0.003 z"/><path id="path56" style="fill:#eeeeee;fill-opacity:1;fill-rule:nonzero;stroke:none" d="m 18,13.6504 0.272,-0.829 0.874,-0.003 -0.705,-0.516 0.267,-0.831 -0.708,0.511 -0.708,-0.511 0.267,0.831 -0.704,0.516 0.873,0.003 z"/><path id="path57" style="fill:#eeeeee;fill-opacity:1;fill-rule:nonzero;stroke:none" d="m 21.3408,13.6504 0.272,-0.829 0.874,-0.003 -0.705,-0.516 0.267,-0.831 -0.708,0.511 -0.707,-0.511 0.267,0.831 -0.705,0.516 0.873,0.003 z"/><path id="path58" style="fill:#eeeeee;fill-opacity:1;fill-rule:nonzero;stroke:none" d="m 21.7295,10.9405 0.272,-0.829 0.874,-0.003 -0.706,-0.516 0.268,-0.831 -0.708,0.511 -0.708,-0.511 0.267,0.831 -0.705,0.516 0.874,0.003 z"/><path id="path59" style="fill:#eeeeee;fill-opacity:1;fill-rule:nonzero;stroke:none" d="m 20.7002,21.9512 0.272,-0.829 0.873,-0.003 -0.705,-0.515 0.267,-0.831 -0.707,0.511 -0.708,-0.511 0.267,0.831 -0.705,0.515 0.873,0.003 z"/><path id="path60" style="fill:#eeeeee;fill-opacity:1;fill-rule:nonzero;stroke:none" d="m 22.3662,16.8194 0.272,-0.829 0.873,-0.003 -0.705,-0.516 0.267,-0.831 -0.707,0.511 -0.708,-0.511 0.267,0.831 -0.705,0.516 0.874,0.003 z"/><path id="path61" style="fill:#eeeeee;fill-opacity:1;fill-rule:nonzero;stroke:none" d="m 23.3975,19.9907 0.272,-0.829 0.874,-0.003 -0.705,-0.516 0.267,-0.831 -0.708,0.511 -0.707,-0.511 0.267,0.831 -0.705,0.516 0.873,0.003 z"/><path id="path62" style="fill:#eeeeee;fill-opacity:1;fill-rule:nonzero;stroke:none" d="m 23.7891,12.4365 0.272,-0.829 0.874,-0.003 -0.705,-0.516 0.267,-0.831 -0.708,0.511 -0.707,-0.511 0.267,0.831 -0.705,0.516 0.873,0.003 z"/><path id="path63" style="fill:#eeeeee;fill-opacity:1;fill-rule:nonzero;stroke:none" d="m 25.0615,8.5196 0.272,-0.829 0.874,-0.003 -0.706,-0.516 0.268,-0.831 -0.708,0.511 -0.708,-0.511 0.267,0.831 -0.705,0.516 0.874,0.003 z"/><path id="path64" style="fill:#eeeeee;fill-opacity:1;fill-rule:nonzero;stroke:none" d="m 25.3066,21.9507 0.272,-0.829 0.874,-0.003 -0.706,-0.516 0.268,-0.831 -0.708,0.511 -0.708,-0.511 0.268,0.831 -0.706,0.516 0.874,0.003 z"/><path id="path65" style="fill:#eeeeee;fill-opacity:1;fill-rule:nonzero;stroke:none" d="m 26.0938,19.5283 0.272,-0.829 0.873,-0.003 -0.705,-0.516 0.267,-0.831 -0.707,0.511 -0.708,-0.511 0.267,0.831 -0.705,0.516 0.874,0.003 z"/><path id="path66" style="fill:#eeeeee;fill-opacity:1;fill-rule:nonzero;stroke:none" d="m 29.4277,21.9517 0.272,-0.829 0.874,-0.003 -0.706,-0.515 0.268,-0.831 -0.708,0.511 -0.708,-0.511 0.267,0.831 -0.705,0.515 0.874,0.003 z"/><path id="path67" style="fill:#eeeeee;fill-opacity:1;fill-rule:nonzero;stroke:none" d="m 16.7275,26.3355 -0.272,-0.829 -0.874,-0.003 0.705,-0.515 -0.267,-0.831 0.708,0.511 0.708,-0.511 -0.267,0.831 0.704,0.515 -0.873,0.003 z"/><path id="path68" style="fill:#eeeeee;fill-opacity:1;fill-rule:nonzero;stroke:none" d="m 16.7275,19.9907 -0.272,-0.829 -0.874,-0.003 0.705,-0.516 -0.267,-0.83 0.708,0.51 0.708,-0.51 -0.267,0.83 0.704,0.516 -0.873,0.003 z"/><path id="path69" style="fill:#eeeeee;fill-opacity:1;fill-rule:nonzero;stroke:none" d="m 15.9395,17.5694 -0.273,-0.829 -0.873,-0.003 0.705,-0.516 -0.267,-0.831 0.708,0.511 0.708,-0.511 -0.268,0.831 0.705,0.516 -0.873,0.003 z"/><path id="path70" style="fill:#eeeeee;fill-opacity:1;fill-rule:nonzero;stroke:none" d="m 14.6587,13.6504 -0.272,-0.829 -0.873,-0.003 0.704,-0.516 -0.267,-0.831 0.708,0.511 0.708,-0.511 -0.267,0.831 0.705,0.516 -0.874,0.003 z"/><path id="path71" style="fill:#eeeeee;fill-opacity:1;fill-rule:nonzero;stroke:none" d="m 14.2705,10.9405 -0.272,-0.829 -0.873,-0.003 0.704,-0.516 -0.267,-0.831 0.708,0.511 0.708,-0.511 -0.267,0.831 0.705,0.516 -0.874,0.003 z"/><path id="path72" style="fill:#eeeeee;fill-opacity:1;fill-rule:nonzero;stroke:none" d="m 15.3003,21.9512 -0.272,-0.829 -0.874,-0.003 0.705,-0.515 -0.267,-0.831 0.708,0.511 0.708,-0.511 -0.267,0.831 0.704,0.515 -0.873,0.003 z"/><path id="path73" style="fill:#eeeeee;fill-opacity:1;fill-rule:nonzero;stroke:none" d="m 13.6343,16.8194 -0.272,-0.829 -0.874,-0.003 0.705,-0.516 -0.267,-0.831 0.708,0.511 0.708,-0.511 -0.267,0.831 0.704,0.516 -0.873,0.003 z"/><path id="path74" style="fill:#eeeeee;fill-opacity:1;fill-rule:nonzero;stroke:none" d="m 12.6021,19.9907 -0.272,-0.829 -0.873,-0.003 0.704,-0.516 -0.267,-0.831 0.708,0.511 0.708,-0.511 -0.267,0.831 0.705,0.516 -0.874,0.003 z"/><path id="path75" style="fill:#eeeeee;fill-opacity:1;fill-rule:nonzero;stroke:none" d="m 12.2104,12.4365 -0.272,-0.829 -0.873,-0.003 0.704,-0.516 -0.267,-0.831 0.708,0.511 0.708,-0.511 -0.267,0.831 0.705,0.516 -0.874,0.003 z"/><path id="path76" style="fill:#eeeeee;fill-opacity:1;fill-rule:nonzero;stroke:none" d="m 10.9385,8.5196 -0.272,-0.829 -0.873,-0.003 0.704,-0.516 -0.267,-0.831 0.708,0.511 0.708,-0.511 -0.267,0.831 0.705,0.516 -0.874,0.003 z"/><path id="path77" style="fill:#eeeeee;fill-opacity:1;fill-rule:nonzero;stroke:none" d="m 10.6934,21.9507 -0.272,-0.829 -0.873,-0.003 0.704,-0.516 -0.267,-0.831 0.708,0.511 0.708,-0.511 -0.267,0.831 0.704,0.516 -0.873,0.003 z"/><path id="path78" style="fill:#eeeeee;fill-opacity:1;fill-rule:nonzero;stroke:none" d="m 9.9067,19.5283 -0.272,-0.829 -0.874,-0.003 0.705,-0.516 -0.267,-0.831 0.708,0.511 0.708,-0.511 -0.267,0.831 0.704,0.516 -0.873,0.003 z"/><path id="path79" style="fill:#eeeeee;fill-opacity:1;fill-rule:nonzero;stroke:none" d="m 6.5723,21.9517 -0.272,-0.829 -0.873,-0.003 0.704,-0.515 -0.267,-0.831 0.708,0.511 0.708,-0.511 -0.267,0.831 0.705,0.515 -0.874,0.003 z"/></g></g></g></g></svg>