<svg xmlns:dc="http://purl.org/dc/elements/1.1/" xmlns:cc="http://creativecommons.org/ns#" xmlns:rdf="http://www.w3.org/1999/02/22-rdf-syntax-ns#" xmlns:svg="http://www.w3.org/2000/svg" xmlns="http://www.w3.org/2000/svg" viewBox="0 0 45 45" style="enable-background:new 0 0 45 45;" xml:space="preserve" version="1.1" id="svg2"><metadata id="metadata8"><rdf:RDF><cc:Work rdf:about=""><dc:format>image/svg+xml</dc:format><dc:type rdf:resource="http://purl.org/dc/dcmitype/StillImage"/></cc:Work></rdf:RDF></metadata><defs id="defs6"><clipPath id="clipPath16" clipPathUnits="userSpaceOnUse"><path id="path18" d="M 4,31 C 1.791,31 0,29.209 0,27 L 0,27 0,9 C 0,6.791 1.791,5 4,5 l 0,0 28,0 c 2.209,0 4,1.791 4,4 l 0,0 0,18 c 0,2.209 -1.791,4 -4,4 l 0,0 -28,0 z"/></clipPath></defs><g transform="matrix(1.25,0,0,-1.25,0,45)" id="g10"><g id="g12"><g xmlns="http://www.w3.org/2000/svg" clip-path="url(#clipPath16)" id="g14"><g id="g30"><path id="path3253" style="fill:#00247d;fill-opacity:1;fill-rule:nonzero;stroke:none" d="M 36,9 C 36,6.791 34.209,5 32,5 L 4,5 C 1.791,5 0,6.791 0,9 l 0,18 c 0,2.209 1.791,4 4,4 l 28,0 c 2.209,0 4,-1.791 4,-4 L 36,9 z"/></g><g id="g34"><path id="path3257" style="fill:#fed100;fill-opacity:1;fill-rule:nonzero;stroke:none" d="m 23.3408,17.9966 c 0,2.298 1.862,4.161 4.161,4.161 2.298,0 4.16,-1.863 4.16,-4.161 0,-2.298 -1.862,-4.161 -4.16,-4.161 -2.299,0 -4.161,1.863 -4.161,4.161"/><path id="path3261" style="fill:#000000;fill-opacity:1;fill-rule:nonzero;stroke:none" d="m 27.8779,16.5977 c 0,0 -0.44,-0.164 -0.909,-0.164 -0.581,0 -1.415,0.328 -1.415,1.142 0,0.831 1.091,1.523 1.15,1.857 0.041,0.228 -0.056,0.241 -0.086,0.241 -0.047,0 -0.081,-0.084 -0.196,-0.145 -0.106,-0.056 -0.207,-0.054 -0.207,-0.054 0,0 -0.029,-0.021 -0.067,-0.091 -0.039,-0.07 -0.028,-0.132 -0.05,-0.15 -0.023,-0.019 -0.116,0 -0.146,0.07 -0.029,0.069 0.027,0.298 0.027,0.298 0,0 -0.081,0.136 0.044,0.331 0.085,0.134 0.251,0.279 0.574,0.279 0.346,0 0.533,-0.232 0.574,-0.522 0.065,-0.456 -0.343,-0.901 -0.516,-1.143 -0.298,-0.419 -0.165,-0.823 -0.138,-0.823 0.041,0 0.039,0.057 0.035,0.273 -0.014,0.64 0.802,1.023 0.802,1.023 0,0 0.068,0.239 0.223,0.419 0.119,0.139 0.497,0.497 1.099,0.455 0.406,-0.028 0.208,-0.465 0.208,-0.465 0,0 0.393,0.063 0.555,-0.42 0.164,-0.494 -0.156,-1.034 -0.156,-1.034 0,0 0.204,-0.052 0.52,0.109 0.315,0.16 0.468,0.216 0.489,0.171 0.021,-0.044 -0.278,-0.505 -0.278,-0.505 0,0 0.392,0.118 -0.423,-0.718 -0.33,-0.339 -0.809,-0.438 -0.809,-0.438 0,0 0.453,-0.118 -0.385,-0.211 -0.347,-0.038 -0.519,0.215 -0.519,0.215"/></g><g id="g38"><path id="path3263" style="fill:#00247d;fill-opacity:1;fill-rule:nonzero;stroke:none" d="m 19.001,31 -19,0 0,-13 19,0 0,13 z"/><path id="path3267" style="fill:#eeeeee;fill-opacity:1;fill-rule:nonzero;stroke:none" d="m 7.3911,24.4961 -7.391,-5.262 0,-1.234 3.332,0 6.669,4.669 6.668,-4.669 2.332,0 0,2.029 -6.386,4.471 6.386,4.471 0,2.029 -2.331,0 -6.67,-4.67 -6.667,4.67 -3.332,0 0,-1.332 7.39,-5.172 z"/><path id="path3271" style="fill:#cf142b;fill-opacity:1;fill-rule:nonzero;stroke:none" d="m 10.8735,23.8887 8.127,-5.69 0,1.219 -8.127,5.692 8.127,5.692 0,0.198 -1.46,0 -8.412,-5.889 -8.41,5.889 -0.718,-0.712 9.128,-6.399 -8.394,-5.889 0.266,0 1.461,0 8.412,5.889 z"/><path id="path3275" style="fill:#eeeeee;fill-opacity:1;fill-rule:nonzero;stroke:none" d="m 19.001,27 -7,0 0,4 -5,0 0,-4 -7,0 0,-5 7,0 0,-4 5,0 0,4 7,0 0,5 z"/><path id="path3279" style="fill:#cf142b;fill-opacity:1;fill-rule:nonzero;stroke:none" d="m 11.001,23 0,-5 -3,0 0,5 -8,0 0,3 8,0 0,5 3,0 0,-5 8,0 0,-3 -8,0 z"/></g></g></g></g></svg>