<svg xmlns:dc="http://purl.org/dc/elements/1.1/" xmlns:cc="http://creativecommons.org/ns#" xmlns:rdf="http://www.w3.org/1999/02/22-rdf-syntax-ns#" xmlns:svg="http://www.w3.org/2000/svg" xmlns="http://www.w3.org/2000/svg" viewBox="0 0 45 45" style="enable-background:new 0 0 45 45;" xml:space="preserve" version="1.1" id="svg2"><metadata id="metadata8"><rdf:RDF><cc:Work rdf:about=""><dc:format>image/svg+xml</dc:format><dc:type rdf:resource="http://purl.org/dc/dcmitype/StillImage"/></cc:Work></rdf:RDF></metadata><defs id="defs6"><clipPath id="clipPath16" clipPathUnits="userSpaceOnUse"><path id="path18" d="M 4,31 C 1.791,31 0,29.209 0,27 L 0,27 0,9 C 0,6.791 1.791,5 4,5 l 0,0 28,0 c 2.209,0 4,1.791 4,4 l 0,0 0,18 c 0,2.209 -1.791,4 -4,4 l 0,0 -28,0 z"/></clipPath></defs><g transform="matrix(1.25,0,0,-1.25,0,45)" id="g10"><g id="g12"><g clip-path="url(#clipPath16)" id="g14"><g id="g20"><path id="path22" style="fill:#eeeeee;fill-opacity:1;fill-rule:nonzero;stroke:none" d="M 36,5 H 0 v 26 h 36 z"/></g><g id="g24"><path id="path26" style="fill:#00993e;fill-opacity:1;fill-rule:nonzero;stroke:none" d="M 36,27.286 H 14.753 V 31 H 36 Z"/></g><g id="g28"><path id="path30" style="fill:#00993e;fill-opacity:1;fill-rule:nonzero;stroke:none" d="M 36,19.857 H 14.753 v 3.714 H 36 Z"/></g><g id="g32"><path id="path34" style="fill:#00993e;fill-opacity:1;fill-rule:nonzero;stroke:none" d="M 36,12.429 H 0 v 3.714 h 36 z"/></g><g id="g36"><path id="path38" style="fill:#00993e;fill-opacity:1;fill-rule:nonzero;stroke:none" d="M 36,5 H 0 v 3.714 h 36 z"/></g><g id="g40"><path id="path42" style="fill:#c8312a;fill-opacity:1;fill-rule:nonzero;stroke:none" d="M 14.753,19.857 H 0 V 31 h 14.753 z"/></g><g id="g44"><path id="path46" style="fill:#eeeeee;fill-opacity:1;fill-rule:nonzero;stroke:none" d="m 5.8511,24.7803 0.152,1.702 c 0,0 0.035,0.285 0.215,0.285 0.147,0 0.155,-0.17 0.155,-0.17 l 0.083,-1.588 0.056,2.026 c 0,0 0.011,0.465 0.253,0.465 0.145,0 0.188,-0.2 0.188,-0.2 l 0.079,-2.08 0.015,2.103 c 0,0 0.009,0.43 0.244,0.43 0.235,0 0.259,-0.397 0.259,-0.397 l 0.094,-2.056 0.044,1.758 c 0,0 0.009,0.333 0.212,0.333 0.229,0 0.229,-0.35 0.229,-0.35 0,0 0.007,-0.262 0.068,-0.88 0.061,-0.617 0.112,-0.944 0.112,-0.944 0,0 0.151,-0.463 0.247,-0.785 0.095,-0.322 0.144,-0.535 0.144,-0.535 0,0 -0.003,-0.097 0.059,-0.097 0.073,0 0.151,0.119 0.198,0.215 0.069,0.142 0.09,0.279 0.09,0.279 0,0 0.065,0.179 0.268,0.397 0.203,0.217 0.326,0.276 0.326,0.276 0,0 0.264,0.082 0.368,0.015 0.123,-0.079 -0.08,-0.233 -0.206,-0.447 -0.119,-0.202 -0.266,-0.556 -0.324,-0.892 -0.091,-0.529 -0.229,-0.629 -0.229,-0.629 0,0 -0.073,-0.188 -0.254,-0.402 -0.341,-0.404 -0.659,-0.624 -0.786,-0.879 -0.069,-0.138 -0.092,-0.573 -0.092,-0.573 h -1.649 l -0.175,0.699 c 0,0 -0.223,0.231 -0.355,0.697 -0.138,0.49 -0.186,1.224 -0.186,1.544 0,0.623 0.098,0.68 0.098,0.68"/></g><g id="g48"><path id="path50" style="fill:#eeeeee;fill-opacity:1;fill-rule:nonzero;stroke:none" d="m 7.3804,30.1235 0.192,-0.595 0.625,0.002 -0.506,-0.366 0.194,-0.595 -0.505,0.368 -0.505,-0.368 0.194,0.595 -0.506,0.366 0.625,-0.002 z"/></g><g id="g52"><path id="path54" style="fill:#eeeeee;fill-opacity:1;fill-rule:nonzero;stroke:none" d="m 9.9814,29.5088 0.192,-0.595 0.625,0.002 -0.506,-0.366 0.194,-0.594 -0.505,0.368 -0.505,-0.368 0.194,0.594 -0.506,0.366 0.625,-0.002 z"/></g><g id="g56"><path id="path58" style="fill:#eeeeee;fill-opacity:1;fill-rule:nonzero;stroke:none" d="m 12.1631,27.6738 0.192,-0.595 0.625,10e-4 -0.506,-0.366 0.194,-0.594 -0.505,0.368 -0.504,-0.368 0.193,0.594 -0.505,0.366 0.624,-10e-4 z"/></g><g id="g60"><path id="path62" style="fill:#eeeeee;fill-opacity:1;fill-rule:nonzero;stroke:none" d="m 13.3022,25.0791 0.192,-0.595 0.624,10e-4 -0.505,-0.366 0.193,-0.594 -0.504,0.368 -0.505,-0.368 0.194,0.594 -0.506,0.366 0.625,-10e-4 z"/></g><g id="g64"><path id="path66" style="fill:#eeeeee;fill-opacity:1;fill-rule:nonzero;stroke:none" d="m 4.7793,29.5088 -0.192,-0.595 -0.625,0.002 0.506,-0.366 -0.194,-0.594 0.505,0.368 0.505,-0.368 -0.194,0.594 0.506,0.366 -0.625,-0.002 z"/></g><g id="g68"><path id="path70" style="fill:#eeeeee;fill-opacity:1;fill-rule:nonzero;stroke:none" d="m 2.5977,27.6738 -0.192,-0.595 -0.625,10e-4 0.506,-0.366 -0.194,-0.594 0.505,0.368 0.504,-0.368 -0.193,0.594 0.505,0.366 -0.624,-10e-4 z"/></g><g id="g72"><path id="path74" style="fill:#eeeeee;fill-opacity:1;fill-rule:nonzero;stroke:none" d="m 1.459,25.0791 -0.192,-0.595 -0.625,10e-4 0.506,-0.366 -0.194,-0.594 0.505,0.368 0.504,-0.368 -0.193,0.594 0.505,0.366 -0.624,-10e-4 z"/></g></g></g></g></svg>