<svg xmlns:dc="http://purl.org/dc/elements/1.1/" xmlns:cc="http://creativecommons.org/ns#" xmlns:rdf="http://www.w3.org/1999/02/22-rdf-syntax-ns#" xmlns:svg="http://www.w3.org/2000/svg" xmlns="http://www.w3.org/2000/svg" viewBox="0 0 45 45" style="enable-background:new 0 0 45 45;" xml:space="preserve" version="1.1" id="svg2"><metadata id="metadata8"><rdf:RDF><cc:Work rdf:about=""><dc:format>image/svg+xml</dc:format><dc:type rdf:resource="http://purl.org/dc/dcmitype/StillImage"/></cc:Work></rdf:RDF></metadata><defs id="defs6"><clipPath id="clipPath16" clipPathUnits="userSpaceOnUse"><path id="path18" d="M 4,31 C 1.791,31 0,29.209 0,27 L 0,27 0,9 C 0,6.791 1.791,5 4,5 l 0,0 28,0 c 2.209,0 4,1.791 4,4 l 0,0 0,18 c 0,2.209 -1.791,4 -4,4 l 0,0 -28,0 z"/></clipPath></defs><g transform="matrix(1.25,0,0,-1.25,0,45)" id="g10"><g id="g12"><g xmlns="http://www.w3.org/2000/svg" clip-path="url(#clipPath16)" id="g14"><path id="path20" style="fill:#eeeeee;fill-opacity:1;fill-rule:nonzero;stroke:none" d="M 0,5 36,5 36,31 0,31 0,5 z"/><path id="path22" style="fill:#dd0000;fill-opacity:1;fill-rule:nonzero;stroke:none" d="m 36,8.25 -29.5,0 0,3.25 29.5,0 0,-3.25 z"/><path id="path23" style="fill:#dd0000;fill-opacity:1;fill-rule:nonzero;stroke:none" d="m 36,14.75 -29.5,0 0,3.25 29.5,0 0,-3.25 z"/><path id="path24" style="fill:#dd0000;fill-opacity:1;fill-rule:nonzero;stroke:none" d="m 36,21.25 -29.5,0 0,3.25 29.5,0 0,-3.25 z"/><path id="path25" style="fill:#dd0000;fill-opacity:1;fill-rule:nonzero;stroke:none" d="m 36,27.75 -29.5,0 0,3.25 29.5,0 0,-3.25 z"/><path id="path26" style="fill:#dd0000;fill-opacity:1;fill-rule:nonzero;stroke:none" d="m 3.25,27.75 -3.25,0 0,3.25 3.25,0 0,-3.25 z"/><path id="path27" style="fill:#dd0000;fill-opacity:1;fill-rule:nonzero;stroke:none" d="m 6.5,24.5 -3.25,0 0,3.25 3.25,0 0,-3.25 z"/><path id="path28" style="fill:#dd0000;fill-opacity:1;fill-rule:nonzero;stroke:none" d="m 3.25,21.25 -3.25,0 0,3.25 3.25,0 0,-3.25 z"/><path id="path29" style="fill:#dd0000;fill-opacity:1;fill-rule:nonzero;stroke:none" d="m 6.5,18 -3.25,0 0,3.25 3.25,0 0,-3.25 z"/><path id="path30" style="fill:#dd0000;fill-opacity:1;fill-rule:nonzero;stroke:none" d="m 3.25,14.75 -3.25,0 0,3.25 3.25,0 0,-3.25 z"/><path id="path31" style="fill:#dd0000;fill-opacity:1;fill-rule:nonzero;stroke:none" d="m 6.5,11.5 -3.25,0 0,3.25 3.25,0 0,-3.25 z"/><path id="path32" style="fill:#dd0000;fill-opacity:1;fill-rule:nonzero;stroke:none" d="m 3.25,8.25 -3.25,0 0,3.25 3.25,0 0,-3.25 z"/><path id="path33" style="fill:#dd0000;fill-opacity:1;fill-rule:nonzero;stroke:none" d="m 6.5,5 -3.25,0 0,3.25 3.25,0 0,-3.25 z"/></g></g></g></svg>