<svg xmlns:dc="http://purl.org/dc/elements/1.1/" xmlns:cc="http://creativecommons.org/ns#" xmlns:rdf="http://www.w3.org/1999/02/22-rdf-syntax-ns#" xmlns:svg="http://www.w3.org/2000/svg" xmlns="http://www.w3.org/2000/svg" viewBox="0 0 45 45" style="enable-background:new 0 0 45 45;" xml:space="preserve" version="1.1" id="svg2"><metadata id="metadata8"><rdf:RDF><cc:Work rdf:about=""><dc:format>image/svg+xml</dc:format><dc:type rdf:resource="http://purl.org/dc/dcmitype/StillImage"/></cc:Work></rdf:RDF></metadata><defs id="defs6"><clipPath id="clipPath16" clipPathUnits="userSpaceOnUse"><path id="path18" d="M 4,31 C 1.791,31 0,29.209 0,27 L 0,27 0,9 C 0,6.791 1.791,5 4,5 l 0,0 28,0 c 2.209,0 4,1.791 4,4 l 0,0 0,18 c 0,2.209 -1.791,4 -4,4 l 0,0 -28,0 z"/></clipPath></defs><g transform="matrix(1.25,0,0,-1.25,0,45)" id="g10"><g id="g12"><g xmlns="http://www.w3.org/2000/svg" clip-path="url(#clipPath16)" id="g14"><g id="g30"><path id="path20" style="fill:#00247d;fill-opacity:1;fill-rule:nonzero;stroke:none" d="M 36,9 C 36,6.791 34.209,5 32,5 L 4,5 C 1.791,5 0,6.791 0,9 l 0,18 c 0,2.209 1.791,4 4,4 l 28,0 c 2.209,0 4,-1.791 4,-4 L 36,9 z"/></g><g id="g34"><path id="path30" style="fill:#ffffff;fill-opacity:1;fill-rule:nonzero;stroke:none" d="m 27.5029,19.5298 0.159,-0.461 0.46,0.163 -0.262,-0.412 0.415,-0.258 -0.485,-0.053 0.057,-0.485 -0.344,0.347 -0.344,-0.347 0.057,0.485 -0.485,0.053 0.414,0.258 -0.261,0.412 0.46,-0.163 0.159,0.461 z"/><path id="path31" style="fill:#ffffff;fill-opacity:1;fill-rule:nonzero;stroke:none" d="m 24.6348,16.9795 0.159,-0.462 0.46,0.163 -0.261,-0.412 0.414,-0.258 -0.485,-0.052 0.057,-0.485 -0.344,0.347 -0.344,-0.347 0.057,0.485 -0.485,0.052 0.414,0.258 -0.261,0.412 0.46,-0.163 0.159,0.462 z"/><path id="path32" style="fill:#ffffff;fill-opacity:1;fill-rule:nonzero;stroke:none" d="m 27.5,12.8828 0.137,-0.514 0.459,0.267 -0.267,-0.459 0.514,-0.137 -0.514,-0.136 0.267,-0.459 -0.459,0.266 -0.137,-0.513 -0.137,0.513 -0.459,-0.266 0.267,0.459 -0.514,0.136 0.514,0.137 -0.267,0.459 0.459,-0.267 0.137,0.514 z"/><path id="path33" style="fill:#ffffff;fill-opacity:1;fill-rule:nonzero;stroke:none" d="m 28.6729,15.4375 0.129,-0.34 0.363,-0.017 -0.284,-0.228 0.097,-0.351 -0.305,0.2 -0.304,-0.2 0.096,0.351 -0.284,0.228 0.363,0.017 0.129,0.34 z"/><path id="path34" style="fill:#ffffff;fill-opacity:1;fill-rule:nonzero;stroke:none" d="m 30.1719,17.0898 0.203,-0.351 0.458,0.024 -0.255,-0.327 0.255,-0.326 -0.458,0.022 -0.203,-0.35 -0.202,0.35 -0.458,-0.022 0.255,0.326 -0.255,0.327 0.458,-0.024 0.202,0.351 z"/><path id="path35" style="fill:#ffffff;fill-opacity:1;fill-rule:nonzero;stroke:none" d="m 26.0254,21.5166 c 0,0 -0.033,-0.374 1.477,-0.374 1.508,0 1.475,0.374 1.475,0.374 0,0 -0.71,0.291 -1.475,0.291 -0.767,0 -1.477,-0.291 -1.477,-0.291"/><path id="path36" style="fill:#ce1126;fill-opacity:1;fill-rule:nonzero;stroke:none" d="m 28.6094,21.8525 0.404,0.468 -0.057,0.46 0.107,0.202 c 0,0 -0.014,0.284 -0.248,0.371 -0.234,0.088 -0.442,-0.009 -0.442,-0.009 0,0 -0.146,0.084 -0.382,0.146 -0.237,0.062 -0.489,-0.009 -0.489,-0.009 0,0 -0.253,0.071 -0.491,0.009 -0.236,-0.062 -0.381,-0.146 -0.381,-0.146 0,0 -0.209,0.097 -0.443,0.009 -0.234,-0.087 -0.248,-0.371 -0.248,-0.371 l 0.107,-0.202 -0.057,-0.46 0.404,-0.468 2.216,0 z"/><path id="path37" style="fill:#f7d917;fill-opacity:1;fill-rule:nonzero;stroke:none" d="m 27.2607,24.1206 c 0,0.102 0.064,0.189 0.153,0.225 l 0.055,0.176 -0.219,-0.16 0,0.354 0.22,-0.155 -0.156,0.216 0.376,0 -0.157,-0.216 0.22,0.155 0,-0.354 -0.219,0.16 0.055,-0.176 c 0.089,-0.036 0.153,-0.123 0.153,-0.225 0,-0.087 -0.046,-0.164 -0.116,-0.207 l 0.128,0 0.001,-0.069 c 0.388,0.022 0.751,0.083 0.98,0.083 0.278,0 0.654,-0.556 0.444,-0.864 -0.21,-0.307 -0.141,-0.343 -0.141,-0.343 l 0.087,-0.02 -0.147,-0.797 0,-0.387 c 0,0 -0.71,0.291 -1.476,0.291 -0.766,0 -1.476,-0.291 -1.476,-0.291 l 0,0.387 -0.148,0.797 0.087,0.02 c 0,0 0.069,0.036 -0.141,0.343 -0.209,0.308 0.166,0.864 0.445,0.864 0.229,0 0.592,-0.061 0.979,-0.083 l 0,0.069 0.128,0.001 c -0.069,0.042 -0.115,0.119 -0.115,0.206 m -0.013,-0.392 c -0.187,0.01 -0.369,0.03 -0.535,0.047 -0.177,0.019 -0.33,0.036 -0.444,0.036 -0.083,0 -0.226,-0.106 -0.32,-0.284 -0.082,-0.156 -0.092,-0.304 -0.028,-0.398 0.177,-0.258 0.258,-0.366 0.258,-0.366 0,0 -0.07,-0.069 -0.129,-0.202 -0.058,-0.131 -0.052,-0.185 -0.052,-0.185 l 0.295,0.303 0.106,-0.603 c 0,0 0.09,0.004 0.188,0.115 0.083,0.094 0.108,0.24 -0.055,0.259 -0.083,0.01 -0.132,-0.148 -0.132,-0.148 0,0 -0.026,0.289 0.065,0.334 0.085,0.041 0.173,-0.118 0.173,-0.118 0,0 -0.058,0.101 -0.058,0.213 -0.002,0.241 0.062,0.328 0.062,0.328 0,0 0.081,-0.085 0.118,-0.299 0.021,-0.116 -0.02,-0.216 -0.02,-0.216 0,0 0.06,0.153 0.147,0.142 0.096,-0.011 0.122,-0.312 0.122,-0.312 0,0 -0.066,0.164 -0.178,0.106 -0.112,-0.058 -0.079,-0.206 0.05,-0.261 0.098,-0.041 0.206,-0.027 0.206,-0.027 l -0.001,0.661 0.415,-0.294 -0.316,0.397 0.063,0 0,0.772 z m 0.507,-0.772 0.064,0 -0.318,-0.397 0.416,0.294 -0.002,-0.661 c 0,0 0.11,-0.014 0.206,0.027 0.13,0.055 0.163,0.203 0.051,0.261 -0.111,0.058 -0.178,-0.106 -0.178,-0.106 0,0 0.026,0.301 0.121,0.312 0.087,0.011 0.147,-0.142 0.147,-0.142 0,0 -0.039,0.1 -0.019,0.216 0.038,0.214 0.118,0.299 0.118,0.299 0,0 0.064,-0.087 0.062,-0.328 0,-0.112 -0.058,-0.213 -0.058,-0.213 0,0 0.088,0.159 0.173,0.118 0.091,-0.045 0.065,-0.334 0.065,-0.334 0,0 -0.048,0.158 -0.131,0.148 -0.163,-0.019 -0.139,-0.165 -0.056,-0.259 0.099,-0.111 0.189,-0.115 0.189,-0.115 l 0.105,0.603 0.295,-0.303 c 0,0 0.006,0.054 -0.053,0.185 -0.057,0.133 -0.129,0.202 -0.129,0.202 0,0 0.083,0.108 0.259,0.366 0.065,0.094 0.054,0.242 -0.028,0.398 -0.094,0.178 -0.236,0.284 -0.319,0.284 -0.115,0 -0.268,-0.017 -0.445,-0.036 -0.166,-0.017 -0.347,-0.037 -0.536,-0.047 l 0.001,-0.772 z"/><path id="path38" style="fill:#ffffff;fill-opacity:1;fill-rule:nonzero;stroke:none" d="m 27.3584,22.5747 c 0,0.079 0.064,0.143 0.144,0.143 0.078,0 0.142,-0.064 0.142,-0.143 0,-0.079 -0.064,-0.143 -0.142,-0.143 -0.08,0 -0.144,0.064 -0.144,0.143"/><path id="path39" style="fill:#ffffff;fill-opacity:1;fill-rule:nonzero;stroke:none" d="m 28.8711,22.3208 c 0,0.079 0.064,0.143 0.143,0.143 0.079,0 0.142,-0.064 0.142,-0.143 0,-0.079 -0.063,-0.143 -0.142,-0.143 -0.079,0 -0.143,0.064 -0.143,0.143"/><path id="path40" style="fill:#ffffff;fill-opacity:1;fill-rule:nonzero;stroke:none" d="m 25.8457,22.3208 c 0,0.079 0.064,0.143 0.144,0.143 0.078,0 0.142,-0.064 0.142,-0.143 0,-0.079 -0.064,-0.143 -0.142,-0.143 -0.08,0 -0.144,0.064 -0.144,0.143"/></g><g id="g38"><path id="path45" style="fill:#00247d;fill-opacity:1;fill-rule:nonzero;stroke:none" d="m 19.001,31 -19,0 0,-13 19,0 0,13 z"/><path id="path46" style="fill:#eeeeee;fill-opacity:1;fill-rule:nonzero;stroke:none" d="m 7.3911,24.4961 -7.391,-5.262 0,-1.234 3.332,0 6.669,4.669 6.668,-4.669 2.332,0 0,2.029 -6.386,4.471 6.386,4.471 0,2.029 -2.331,0 -6.67,-4.67 -6.667,4.67 -3.332,0 0,-1.332 7.39,-5.172 z"/><path id="path47" style="fill:#cf142b;fill-opacity:1;fill-rule:nonzero;stroke:none" d="m 10.8735,23.8887 8.127,-5.69 0,1.219 -8.127,5.692 8.127,5.692 0,0.198 -1.46,0 -8.412,-5.889 -8.41,5.889 -0.718,-0.712 9.128,-6.399 -8.394,-5.889 0.266,0 1.461,0 8.412,5.889 z"/><path id="path48" style="fill:#eeeeee;fill-opacity:1;fill-rule:nonzero;stroke:none" d="m 19.001,27 -7,0 0,4 -5,0 0,-4 -7,0 0,-5 7,0 0,-4 5,0 0,4 7,0 0,5 z"/><path id="path49" style="fill:#cf142b;fill-opacity:1;fill-rule:nonzero;stroke:none" d="m 11.001,23 0,-5 -3,0 0,5 -8,0 0,3 8,0 0,5 3,0 0,-5 8,0 0,-3 -8,0 z"/></g></g></g></g></svg>