<svg xmlns:dc="http://purl.org/dc/elements/1.1/" xmlns:cc="http://creativecommons.org/ns#" xmlns:rdf="http://www.w3.org/1999/02/22-rdf-syntax-ns#" xmlns:svg="http://www.w3.org/2000/svg" xmlns="http://www.w3.org/2000/svg" viewBox="0 0 45 45" style="enable-background:new 0 0 45 45;" xml:space="preserve" version="1.1" id="svg2"><metadata id="metadata8"><rdf:RDF><cc:Work rdf:about=""><dc:format>image/svg+xml</dc:format><dc:type rdf:resource="http://purl.org/dc/dcmitype/StillImage"/></cc:Work></rdf:RDF></metadata><defs id="defs6"><clipPath id="clipPath16" clipPathUnits="userSpaceOnUse"><path id="path18" d="M 4,31 C 1.791,31 0,29.209 0,27 L 0,27 0,9 C 0,6.791 1.791,5 4,5 l 0,0 28,0 c 2.209,0 4,1.791 4,4 l 0,0 0,18 c 0,2.209 -1.791,4 -4,4 l 0,0 -28,0 z"/></clipPath><clipPath id="clipPath28" clipPathUnits="userSpaceOnUse"><path id="path30" d="M 0,36 36,36 36,0 0,0 0,36 Z"/></clipPath></defs><g xmlns="http://www.w3.org/2000/svg" transform="matrix(1.25,0,0,-1.25,0,45)" id="g10"><path id="path20" style="fill:#75aadb" d="m 36,12.2246 v -3.225 c 0,-2.209 -1.791,-4 -4,-4 H 4 c -2.209,0 -4,1.791 -4,4 v 3.225 z"/><path id="path22" style="fill:#eeeeee" d="M 0,23.775 H 36 V 12.225 H 0 Z"/><path id="path24" style="fill:#75aadb" d="m 0,23.7749 v 3.225 c 0,2.209 1.791,4 4,4 h 28 c 2.209,0 4,-1.791 4,-4 v -3.225 z"/><g id="g30"><path id="path40" style="fill:#f2ce67" d="m 18,15.5117 c -1.124,0 -2.038,1.195 -2.038,2.664 0,1.461 0.914,2.649 2.038,2.649 1.124,0 2.037,-1.188 2.037,-2.649 0,-1.469 -0.913,-2.664 -2.037,-2.664"/><path id="path42" style="fill:#ffffff" d="m 19.9756,18.1689 c 0,-1.434 -0.885,-2.596 -1.976,-2.596 -1.09,0 -1.975,1.162 -1.975,2.596 z"/><path id="path44" style="fill:#75aadb" d="m 16.0244,18.1689 c 0,1.434 0.885,2.596 1.976,2.596 1.09,0 1.975,-1.162 1.975,-2.596 z"/><path id="path46" style="fill:#d40000" d="m 18.5249,19.3374 c 0,0 -0.125,-0.112 -0.562,-0.15 -0.413,-0.037 -0.463,0.05 -0.463,0.05 0,0 0.1,0.138 0.5,0.187 0.288,0.038 0.525,-0.087 0.525,-0.087"/><path id="path48" style="fill:#c87137" d="m 18,15.8018 c -0.048,0 -0.087,0.039 -0.087,0.088 v 3.716 h 0.174 v -3.716 c 0,-0.049 -0.039,-0.088 -0.087,-0.088"/><path id="path50" style="fill:#ff2a2a" d="m 18.5313,19.334 c 0,0 0.035,0.059 0.012,0.203 -0.024,0.145 0.006,0.149 -0.03,0.188 -0.035,0.039 -0.062,0.045 -0.062,0.045 0,0 -0.193,0.724 -0.508,0.724 -0.125,0 -0.259,-0.083 -0.33,-0.161 -0.096,-0.104 -0.096,-0.224 -0.096,-0.224 0,0 -0.114,-0.016 -0.15,-0.111 -0.039,-0.103 0.062,-0.146 0.133,-0.08 0.042,0.04 0.047,0.129 0.047,0.129 0,0 0.019,-0.015 0.068,-0.01 0.049,0.005 0.068,0.026 0.068,0.026 0,0 -0.073,-0.172 -0.097,-0.249 -0.024,-0.076 -0.012,-0.099 -0.012,-0.099 0,0 -0.044,-0.017 -0.076,-0.047 -0.032,-0.03 -0.039,-0.063 -0.039,-0.063 l 0.039,-0.371 c 0,0 0.103,0.145 0.502,0.196 0.291,0.037 0.531,-0.096 0.531,-0.096"/><path id="path52" style="fill:#ef9ba0" d="m 17.125,17.1875 0.166,-0.23 c 0,0 0.012,0.033 0.09,0.064 0.077,0.031 0.117,0.018 0.117,0.018 0,0 -0.055,-0.016 -0.012,-0.086 0.043,-0.071 0.088,-0.006 0.088,-0.006 0,0 -0.012,-0.033 0.041,-0.049 0.053,-0.016 0.071,0.016 0.071,0.016 0,0 0.013,-0.051 0.062,-0.051 0.049,0 0.053,0.049 0.053,0.049 0,0 0.011,-0.043 0.064,-0.063 0.047,-0.017 0.074,0.041 0.074,0.041 0,0 0.031,-0.02 0.098,-0.017 0.067,0.002 0.109,0.027 0.109,0.027 0,0 0.033,0.007 0.067,0.025 0.034,0.019 0.055,0.043 0.055,0.043 0,0 0.034,-0.005 0.05,0.016 0.017,0.02 0.006,0.053 0.006,0.053 0,0 0.031,-0.013 0.047,-0.012 0.016,10e-4 0.037,0.017 0.037,0.017 0,0 0.016,-0.009 0.047,-0.013 0.031,-0.004 0.059,0 0.059,0 l 0.125,-0.092 0.142,0.176 -0.09,0.32 c 0,0 -0.125,0.059 -0.308,0.176 -0.184,0.117 -0.207,0.166 -0.311,0.166 -0.103,0 -0.426,-0.217 -0.426,-0.217 0,0 -0.082,-0.009 -0.185,-0.037 -0.104,-0.028 -0.225,-0.072 -0.225,-0.072 z"/><path id="path54" style="fill:#000000" d="m 19.7998,17.1001 c -0.1,-0.275 -0.225,-0.525 -0.388,-0.738 -0.087,0.038 -0.261,0.138 -0.424,0.226 -0.213,0.137 -0.438,0.3 -0.438,0.3 0,0 0.088,0.024 0.113,0.299 0.025,0.275 -0.025,0.313 -0.025,0.313 0,0 0.638,-0.237 0.875,-0.313 0.138,-0.049 0.237,-0.075 0.287,-0.087"/><path id="path56" style="fill:#000000" d="m 17.3999,16.9375 c 0,0 -0.125,-0.112 -0.387,-0.263 -0.175,-0.099 -0.363,-0.2 -0.463,-0.25 -0.162,0.226 -0.3,0.488 -0.387,0.788 0.112,0.025 0.337,0.075 0.562,0.15 0.363,0.113 0.563,0.187 0.563,0.187 0,0 -0.051,-0.099 -0.013,-0.3 0.038,-0.275 0.125,-0.312 0.125,-0.312"/><path id="path58" style="fill:#ffcc00" d="m 17.8887,23.1875 0.151,-0.643 0.234,0.618 -0.066,-0.657 0.422,0.509 -0.276,-0.6 0.564,0.343 -0.455,-0.478 0.645,0.143 -0.586,-0.305 0.656,-0.075 -0.653,-0.097 0.596,-0.284 -0.649,0.119 0.472,-0.461 -0.576,0.324 0.297,-0.59 -0.44,0.492 0.089,-0.653 -0.255,0.608 -0.128,-0.647 -0.044,0.658 -0.331,-0.571 0.172,0.638 -0.499,-0.433 0.37,0.547 -0.612,-0.246 0.527,0.397 -0.659,-0.035 0.628,0.204 -0.635,0.182 0.66,-0.011 -0.541,0.378 0.62,-0.225 -0.389,0.533 0.514,-0.414 -0.195,0.63 0.352,-0.558 z"/><path id="path60" style="fill:#007f01" d="m 20.1621,18.125 c 0.013,-0.138 0.101,-0.65 0.263,-0.763 l 0.012,-0.012 c 0.013,-0.013 0.026,-0.013 0.037,-0.013 h 0.013 0.026 c 0.024,0.013 0.037,0.025 0.037,0.038 0.137,0.138 0.237,0.612 0.262,0.75 -0.062,-0.05 -0.237,-0.263 -0.338,-0.45 -0.099,0.175 -0.237,0.375 -0.312,0.45 m 0.45,0.175 c 0.013,0 0.013,0.012 0.013,0.012 0.013,-0.024 0.025,-0.037 0.05,-0.049 0.237,-0.076 0.112,0.887 0.112,0.887 0,0 -0.087,-0.188 -0.149,-0.4 -0.063,0.225 -0.151,0.437 -0.151,0.437 0,0 -0.125,-0.887 0.125,-0.887 m -0.875,1.4 c 0,0 0.487,-0.738 0.675,-0.588 0.038,0.038 0.038,0.075 0,0.125 0,0 0.013,0 0,0.013 0.025,0.225 -0.199,0.775 -0.199,0.775 0,0 -0.038,-0.338 -0.013,-0.588 -0.2,0.138 -0.463,0.263 -0.463,0.263 m -0.399,0.688 c 0,0 0.412,-0.513 0.625,-0.538 0.024,-0.113 0.062,-0.187 0.137,-0.187 0.238,0 -0.175,0.887 -0.175,0.887 0,0 -0.025,-0.225 0,-0.45 -0.225,0.15 -0.587,0.288 -0.587,0.288 m 0.399,0.025 c 0.026,0.037 0.013,0.074 -0.024,0.1 0.05,0.187 -0.688,0.574 -0.688,0.574 0,0 0.15,-0.25 0.313,-0.437 -0.226,0.038 -0.45,0.05 -0.45,0.05 0,0 0.737,-0.512 0.849,-0.287 m -2.362,-5.263 c -0.025,0.25 -0.9,0.087 -0.9,0.087 0,0 0.925,-0.325 0.9,-0.087 m -0.737,0.262 c 0.224,0.113 -0.25,0.863 -0.25,0.863 0,0 0.012,-0.238 0.037,-0.463 -0.213,0.163 -0.638,0.276 -0.638,0.276 0,0 0.488,-0.5 0.688,-0.513 0.038,-0.125 0.087,-0.2 0.163,-0.163 m 2.187,-0.6 -0.788,0.225 0.013,0.013 -0.037,-0.013 -0.038,0.013 0.012,-0.013 -0.787,-0.225 c 0,0 -0.138,0 -0.175,-0.087 -0.05,-0.087 -0.025,-0.262 -0.025,-0.262 0,0 0.15,0.05 0.462,0.224 0.25,0.138 0.475,0.288 0.551,0.338 0.074,-0.05 0.299,-0.2 0.549,-0.338 0.313,-0.174 0.463,-0.224 0.463,-0.224 0,0 0.025,0.175 -0.025,0.262 -0.038,0.087 -0.175,0.087 -0.175,0.087 m 0.212,0.913 c 0,0 -0.8,-0.413 -0.662,-0.625 0.138,-0.2 0.662,0.625 0.662,0.625 m -3.125,0.5 v 0.012 c 0.2,0.076 0.025,0.888 0.025,0.888 0,0 -0.112,-0.35 -0.137,-0.612 -0.175,0.2 -0.475,0.399 -0.475,0.399 0,0 0.425,-0.887 0.587,-0.687 m 0.375,3.475 c 0,0 -0.262,-0.125 -0.462,-0.263 0.025,0.25 -0.013,0.588 -0.013,0.588 0,0 -0.225,-0.55 -0.2,-0.775 -0.012,-0.013 0,-0.013 0,-0.013 -0.037,-0.05 -0.037,-0.087 0,-0.125 0.188,-0.15 0.675,0.588 0.675,0.588 m -0.362,-0.037 c 0.075,0 0.112,0.074 0.137,0.187 0.213,0.025 0.625,0.538 0.625,0.538 0,0 -0.362,-0.138 -0.587,-0.288 0.025,0.225 0,0.45 0,0.45 0,0 -0.413,-0.887 -0.175,-0.887 m 1.213,1.037 c 0,0 -0.226,-0.012 -0.451,-0.05 0.163,0.187 0.313,0.437 0.313,0.437 0,0 -0.737,-0.387 -0.688,-0.574 -0.037,-0.026 -0.049,-0.063 -0.025,-0.1 0.113,-0.225 0.851,0.287 0.851,0.287 m 2.95,-3.575 c 0,0 -0.176,-0.812 0.024,-0.888 v -0.012 c 0.163,-0.2 0.588,0.687 0.588,0.687 0,0 -0.3,-0.199 -0.476,-0.399 -0.024,0.262 -0.136,0.612 -0.136,0.612 m -0.45,-0.85 c 0,0 -0.476,-0.75 -0.25,-0.863 0.075,-0.037 0.125,0.038 0.162,0.163 0.2,0.013 0.687,0.513 0.687,0.513 0,0 -0.425,-0.113 -0.637,-0.276 0.025,0.225 0.038,0.463 0.038,0.463 m -0.988,-1.125 c -0.025,-0.238 0.9,0.087 0.9,0.087 0,0 -0.875,0.163 -0.9,-0.087 m -1,-0.05 c 0.137,0.212 -0.663,0.625 -0.663,0.625 0,0 0.526,-0.825 0.663,-0.625 m -2.3,3.163 c 0.025,0.012 0.038,0.025 0.05,0.049 0,0 0,-0.012 0.012,-0.012 0.25,0 0.125,0.887 0.125,0.887 0,0 -0.087,-0.212 -0.149,-0.437 -0.063,0.212 -0.151,0.4 -0.151,0.4 0,0 -0.125,-0.963 0.113,-0.887 m 0.125,-0.888 c -0.138,0.138 -0.238,0.612 -0.263,0.75 0.063,-0.05 0.238,-0.263 0.338,-0.45 0.1,0.175 0.237,0.375 0.312,0.45 -0.012,-0.138 -0.099,-0.65 -0.262,-0.763 l -0.013,-0.012 c -0.012,-0.013 -0.025,-0.013 -0.037,-0.013 h -0.013 -0.024 c -0.026,0.013 -0.038,0.025 -0.038,0.038"/><path id="path4251" style="fill:#75aadb" d="m 18.25,15.2178 c 0.055,0.065 0.085,0.114 0.1,0.141 0.035,-0.004 0.06,-0.009 0.076,-0.012 -0.002,-0.02 -0.02,-0.072 -0.12,-0.169 -0.078,-0.073 -0.136,-0.109 -0.166,-0.125 -0.008,0.014 -0.019,0.025 -0.031,0.035 0.026,0.018 0.08,0.059 0.141,0.13 m -0.475,0 c 0.061,-0.071 0.115,-0.112 0.141,-0.13 -0.012,-0.01 -0.023,-0.021 -0.031,-0.035 -0.03,0.016 -0.088,0.052 -0.166,0.125 -0.1,0.097 -0.118,0.149 -0.12,0.169 0.016,0.003 0.041,0.008 0.076,0.012 0.015,-0.027 0.045,-0.076 0.1,-0.141 m 0.761,-0.559 c 0,0 -0.056,0.045 -0.165,-0.044 -0.031,0.022 -0.095,0.07 -0.159,0.146 -0.058,0.07 -0.092,0.116 -0.108,0.14 0.052,0.033 0.063,0.088 0.045,0.134 0.034,0.018 0.091,0.048 0.167,0.092 0.125,0.071 0.143,0.211 0.143,0.211 l -0.003,0.002 c -0.01,0.012 -0.063,0.06 -0.221,0.06 -0.123,0 -0.182,-0.045 -0.222,-0.045 -0.04,0 -0.1,0.045 -0.223,0.045 -0.158,0 -0.211,-0.048 -0.221,-0.06 l -0.003,-0.002 c 0,0 0.018,-0.14 0.143,-0.211 0.076,-0.044 0.133,-0.074 0.167,-0.092 -0.019,-0.046 -0.007,-0.101 0.045,-0.134 -0.016,-0.024 -0.05,-0.07 -0.108,-0.14 -0.064,-0.076 -0.128,-0.124 -0.159,-0.146 -0.109,0.089 -0.165,0.044 -0.165,0.044 0,0 0.042,0.018 0.122,-0.068 0.103,-0.11 0.226,-0.053 0.226,-0.053 0,0 0.072,0.08 0.118,0.174 0.047,0.094 0.058,0.165 0.058,0.165 H 18 c 0,0 -0.034,-0.068 -0.078,-0.145 -0.069,-0.118 -0.152,-0.173 -0.152,-0.173 -0.004,0 -0.035,10e-4 -0.075,0.024 0.029,0.023 0.089,0.073 0.149,0.138 0.056,0.06 0.087,0.131 0.101,0.169 0.016,-0.007 0.034,-0.011 0.055,-0.013 -0.053,0.079 -0.053,0.158 0,0.237 -0.024,0 -0.044,-0.004 -0.061,-0.013 -0.025,0.022 -0.078,0.07 -0.126,0.133 -0.047,0.059 -0.07,0.106 -0.081,0.13 0.003,0 0.005,0 0.008,0 0.131,0.01 0.162,-0.054 0.273,-0.054 0.11,0 0.141,0.064 0.272,0.054 0.003,0 0.005,0 0.007,0 -0.009,-0.024 -0.033,-0.071 -0.08,-0.13 -0.048,-0.063 -0.101,-0.111 -0.126,-0.133 -0.017,0.009 -0.037,0.013 -0.061,0.013 0.053,-0.079 0.053,-0.158 0,-0.237 0.021,0.002 0.039,0.006 0.055,0.013 0.014,-0.038 0.045,-0.109 0.101,-0.169 0.06,-0.065 0.12,-0.115 0.149,-0.138 -0.04,-0.023 -0.071,-0.024 -0.075,-0.024 0,0 -0.083,0.055 -0.151,0.173 -0.045,0.077 -0.079,0.145 -0.079,0.145 h -0.012 c 0,0 0.009,-0.071 0.057,-0.165 0.046,-0.094 0.118,-0.174 0.118,-0.174 0,0 0.123,-0.057 0.226,0.053 0.08,0.086 0.122,0.068 0.122,0.068"/><path id="path62" style="fill:#75aadb" d="m 17.6299,14.4844 c -0.009,0.003 -0.049,0.018 -0.087,0.035 -0.009,0.004 -0.018,0.009 -0.028,0.014 -0.005,-0.014 -0.011,-0.037 -0.012,-0.072 -0.004,-0.067 0.003,-0.246 0.003,-0.246 l -0.055,0.031 c 0,0 -0.025,0.024 0,0.188 0.009,0.06 0.019,0.096 0.027,0.117 -0.028,0.015 -0.05,0.028 -0.05,0.028 0,0 -0.02,-0.047 -0.035,-0.138 -0.014,-0.088 -0.015,-0.177 -0.015,-0.177 l -0.044,-0.005 c 0,0 -0.004,0.033 0.024,0.193 0.027,0.161 0.073,0.175 0.073,0.175 0,0 0.071,-0.021 0.103,-0.058 0.049,-0.058 0.087,-0.08 0.096,-0.085"/><path id="path64" style="fill:#75aadb" d="m 18.6914,14.2598 -0.044,0.005 c 0,0 -0.001,0.089 -0.015,0.177 -0.015,0.09 -0.035,0.137 -0.035,0.137 0,0 -0.022,-0.012 -0.05,-0.027 0.008,-0.021 0.018,-0.058 0.026,-0.117 0.025,-0.164 0,-0.189 0,-0.189 l -0.055,-0.03 c 0,0 0.008,0.179 0.004,0.245 -0.001,0.035 -0.007,0.059 -0.013,0.072 -0.009,-0.004 -0.018,-0.009 -0.027,-0.013 -0.039,-0.018 -0.079,-0.032 -0.087,-0.035 0.008,0.004 0.047,0.027 0.096,0.085 0.033,0.037 0.102,0.057 0.102,0.057 0,0 0.047,-0.013 0.074,-0.175 0.027,-0.16 0.024,-0.192 0.024,-0.192"/><path id="path66" style="fill:#75aadb" d="m 17.7163,15.4678 c -0.049,0 -0.105,-0.011 -0.105,-0.011 0,0 0.052,0.04 0.094,0.04 0.082,0 0.146,-0.036 0.307,-0.036 0.162,0 0.225,0.036 0.308,0.036 0.041,0 0.093,-0.04 0.093,-0.04 0,0 -0.056,0.011 -0.105,0.011 -0.05,0 -0.228,-0.047 -0.296,-0.047 -0.067,0 -0.246,0.047 -0.296,0.047"/><path id="path68" style="fill:#000000" d="m 22.3008,16.0537 0.443,-0.366 0.059,0.069 c 0.046,0.056 0.062,0.113 0.053,0.172 -0.01,0.06 -0.047,0.116 -0.114,0.171 l -0.034,0.028 c -0.065,0.056 -0.129,0.083 -0.187,0.083 -0.06,0 -0.113,-0.027 -0.158,-0.083 z m 0.44,-0.546 -0.615,0.51 0.151,0.182 c 0.045,0.055 0.096,0.093 0.156,0.115 0.058,0.022 0.12,0.027 0.184,0.012 0.063,-0.013 0.124,-0.044 0.182,-0.091 l 0.03,-0.026 c 0.059,-0.048 0.101,-0.102 0.126,-0.163 0.025,-0.059 0.032,-0.12 0.02,-0.183 -0.012,-0.063 -0.041,-0.122 -0.086,-0.178 z m -0.602,-0.215 0.158,0.17 -0.322,0.142 z m 0.266,0.122 -0.21,-0.227 0.091,-0.173 -0.097,-0.107 -0.38,0.767 0.084,0.091 0.793,-0.324 -0.1,-0.106 z m -0.689,-0.003 -0.18,-0.171 0.477,-0.498 -0.099,-0.094 -0.476,0.497 -0.18,-0.173 -0.076,0.082 0.457,0.439 z m -0.653,-0.934 0.109,0.093 c 0.036,0.029 0.057,0.062 0.062,0.097 0.005,0.034 -0.006,0.069 -0.033,0.099 -0.027,0.033 -0.057,0.052 -0.091,0.054 -0.034,10e-4 -0.071,-0.012 -0.107,-0.043 l -0.112,-0.094 z m 0.19,0.014 -0.118,-0.1 0.196,-0.235 -0.106,-0.089 -0.514,0.612 0.217,0.181 c 0.07,0.06 0.139,0.089 0.203,0.089 0.065,10e-4 0.122,-0.029 0.174,-0.089 0.034,-0.041 0.053,-0.083 0.056,-0.128 0.003,-0.044 -0.006,-0.088 -0.03,-0.133 l 0.352,-0.14 0.005,-0.006 -0.115,-0.094 z m -0.395,-0.238 -0.269,-0.189 0.142,-0.2 0.314,0.221 0.065,-0.092 -0.429,-0.301 -0.46,0.654 0.425,0.299 0.064,-0.091 -0.311,-0.219 0.127,-0.18 0.268,0.189 z m -0.929,-0.516 0.12,-0.218 0.135,0.073 c 0.038,0.021 0.062,0.046 0.074,0.076 0.012,0.032 0.008,0.064 -0.011,0.097 -0.039,0.073 -0.096,0.091 -0.172,0.052 z m -0.049,0.089 0.12,0.066 c 0.037,0.02 0.063,0.045 0.075,0.074 0.013,0.028 0.01,0.059 -0.006,0.091 -0.02,0.034 -0.043,0.054 -0.072,0.059 -0.028,0.004 -0.063,-0.004 -0.104,-0.028 l -0.12,-0.064 z m 0.101,-0.472 -0.384,0.702 0.241,0.132 c 0.08,0.042 0.15,0.059 0.208,0.05 0.059,-0.009 0.105,-0.045 0.14,-0.109 0.016,-0.032 0.023,-0.065 0.02,-0.1 -0.003,-0.036 -0.017,-0.07 -0.043,-0.102 0.043,0.01 0.083,0.007 0.12,-0.011 0.036,-0.016 0.065,-0.045 0.086,-0.085 0.036,-0.066 0.043,-0.129 0.02,-0.187 -0.024,-0.057 -0.074,-0.109 -0.153,-0.152 z m -0.242,-0.084 -0.126,-0.054 -0.306,0.738 0.127,0.054 z m -0.671,-0.112 0.348,0.099 0.031,-0.107 -0.483,-0.137 -0.217,0.77 0.134,0.039 z m -0.932,0.176 0.173,0.383 0.154,0.005 -0.253,-0.513 0.008,-0.294 -0.14,-0.005 -0.008,0.296 -0.284,0.496 0.155,0.005 z m -0.856,-0.366 -0.136,0.031 -0.212,0.637 -0.133,-0.552 -0.136,0.032 0.189,0.779 0.135,-0.033 0.213,-0.639 0.134,0.555 0.134,-0.034 z m -0.826,0.684 c 0.036,0.082 0.049,0.15 0.037,0.206 -0.011,0.057 -0.045,0.098 -0.101,0.123 -0.054,0.024 -0.107,0.022 -0.157,-0.006 -0.051,-0.029 -0.093,-0.083 -0.129,-0.161 l -0.019,-0.043 c -0.035,-0.08 -0.048,-0.149 -0.036,-0.206 0.011,-0.059 0.045,-0.1 0.101,-0.124 0.056,-0.027 0.108,-0.024 0.158,0.006 0.049,0.029 0.093,0.085 0.129,0.167 z m 0.11,-0.094 c -0.033,-0.072 -0.073,-0.13 -0.121,-0.173 -0.049,-0.042 -0.103,-0.068 -0.162,-0.076 -0.059,-0.009 -0.119,0.001 -0.178,0.027 -0.06,0.027 -0.105,0.064 -0.139,0.114 -0.034,0.05 -0.051,0.108 -0.052,0.172 -10e-4,0.065 0.014,0.132 0.045,0.202 l 0.018,0.041 c 0.032,0.071 0.073,0.128 0.122,0.172 0.05,0.043 0.104,0.069 0.163,0.078 0.059,0.007 0.118,-0.002 0.178,-0.029 0.059,-0.025 0.105,-0.063 0.138,-0.113 0.034,-0.049 0.051,-0.107 0.052,-0.171 10e-4,-0.065 -0.014,-0.134 -0.046,-0.204 z m -0.948,-0.002 -0.12,0.071 0.408,0.689 0.119,-0.072 z m -0.318,0.164 -0.113,0.082 0.042,0.669 -0.331,-0.461 -0.113,0.081 0.468,0.65 0.112,-0.083 -0.042,-0.67 0.333,0.461 0.111,-0.08 z m -0.179,1.101 -0.353,-0.402 c -0.056,-0.063 -0.122,-0.095 -0.195,-0.097 -0.074,-10e-4 -0.145,0.028 -0.212,0.087 -0.069,0.062 -0.108,0.127 -0.116,0.2 -0.007,0.073 0.017,0.141 0.074,0.206 l 0.353,0.401 0.105,-0.091 -0.354,-0.402 c -0.036,-0.04 -0.052,-0.079 -0.05,-0.118 0.002,-0.039 0.022,-0.075 0.062,-0.112 0.08,-0.07 0.158,-0.063 0.232,0.022 l 0.35,0.397 z m -1.296,0.101 -0.094,0.102 0.17,0.648 -0.413,-0.389 -0.096,0.102 0.584,0.547 0.095,-0.102 -0.172,-0.65 0.417,0.39 0.093,-0.101 z m -0.272,0.823 -0.211,0.251 -0.188,-0.156 0.246,-0.295 -0.086,-0.071 -0.335,0.401 0.615,0.512 0.332,-0.397 -0.086,-0.073 -0.244,0.292 -0.169,-0.141 0.21,-0.253 z"/></g></g></svg>