<svg xmlns:dc="http://purl.org/dc/elements/1.1/" xmlns:cc="http://creativecommons.org/ns#" xmlns:rdf="http://www.w3.org/1999/02/22-rdf-syntax-ns#" xmlns:svg="http://www.w3.org/2000/svg" xmlns="http://www.w3.org/2000/svg" viewBox="0 0 45 45" style="enable-background:new 0 0 45 45;" xml:space="preserve" version="1.1" id="svg2"><metadata id="metadata8"><rdf:RDF><cc:Work rdf:about=""><dc:format>image/svg+xml</dc:format><dc:type rdf:resource="http://purl.org/dc/dcmitype/StillImage"/></cc:Work></rdf:RDF></metadata><defs id="defs6"><clipPath id="clipPath16" clipPathUnits="userSpaceOnUse"><path id="path18" d="M 0,36 36,36 36,0 0,0 0,36 Z"/></clipPath></defs><g transform="matrix(1.25,0,0,-1.25,0,45)" id="g10"><g id="g12"><g xmlns="http://www.w3.org/2000/svg" clip-path="url(#clipPath16)" id="g14"><g id="g30"><path id="path20" style="fill:#0074d0;fill-opacity:1;fill-rule:nonzero;stroke:none" d="M 0,9 C 0,6.791 1.791,5 4,5 l 28,0 c 2.209,0 4,1.791 4,4 l 0,18 c 0,2.209 -1.791,4 -4,4 L 4,31 C 1.791,31 0,29.209 0,27 L 0,9 z"/></g><g id="g34"><path id="path30" style="fill:#f0e9c8;fill-opacity:1;fill-rule:nonzero;stroke:none" d="m 17.7231,15.8525 c -0.271,-0.01 -0.477,-0.105 -0.477,-0.105 0,0 -0.04,-0.212 0.017,-0.849 0.04,-0.455 0.084,-0.986 0.051,-1.639 -0.055,-1.1 0.133,-1.806 0.133,-1.806 0,0 0.453,1.058 0.53,1.982 0.075,0.896 0.28,2.096 0.28,2.096 0,0 -0.123,0.26 -0.396,0.312 l 0.027,0.86 -0.144,0.009 -0.021,-0.86 z"/><path id="path31" style="fill:#f0e9c8;fill-opacity:1;fill-rule:nonzero;stroke:none" d="m 19.8418,16.3838 c -0.271,-0.011 -0.477,-0.107 -0.477,-0.107 0,0 -0.039,-0.212 0.02,-0.849 0.042,-0.454 0.087,-0.985 0.057,-1.639 -0.051,-1.1 0.139,-1.805 0.139,-1.805 0,0 0.449,1.06 0.524,1.984 0.071,0.897 0.272,2.097 0.272,2.097 0,0 -0.123,0.259 -0.396,0.311 l 0.023,0.859 -0.143,0.009 -0.019,-0.86 z"/><path id="path32" style="fill:#f0e9c8;fill-opacity:1;fill-rule:nonzero;stroke:none" d="m 21.7568,17.2871 c -0.271,0.009 -0.482,-0.074 -0.482,-0.074 0,0 -0.054,-0.209 -0.038,-0.848 0.012,-0.457 0.022,-0.989 -0.052,-1.64 -0.125,-1.094 0.018,-1.81 0.018,-1.81 0,0 0.519,1.027 0.655,1.944 0.131,0.891 0.412,2.074 0.412,2.074 0,0 -0.106,0.268 -0.375,0.337 l 0.081,0.856 -0.143,0.019 -0.076,-0.858 z"/><path id="path33" style="fill:#f0e9c8;fill-opacity:1;fill-rule:nonzero;stroke:none" d="m 23.0479,20.6899 c -0.271,-0.029 -0.469,-0.14 -0.469,-0.14 0,0 -0.024,-0.214 0.078,-0.845 0.075,-0.451 0.157,-0.977 0.171,-1.631 0.026,-1.101 0.265,-1.792 0.265,-1.792 0,0 0.375,1.089 0.384,2.016 0.009,0.9 0.126,2.111 0.126,2.111 0,0 -0.141,0.251 -0.417,0.282 l -0.035,0.859 -0.145,0 0.042,-0.86 z"/><path id="path34" style="fill:#f0e9c8;fill-opacity:1;fill-rule:nonzero;stroke:none" d="m 16.0044,16.3838 c -0.271,-0.01 -0.477,-0.105 -0.477,-0.105 0,0 -0.04,-0.212 0.017,-0.849 0.04,-0.455 0.084,-0.986 0.051,-1.639 -0.055,-1.1 0.133,-1.806 0.133,-1.806 0,0 0.453,1.058 0.53,1.982 0.075,0.896 0.28,2.096 0.28,2.096 0,0 -0.123,0.26 -0.396,0.312 l 0.027,0.86 -0.144,0.009 -0.021,-0.86 z"/><path id="path35" style="fill:#f0e9c8;fill-opacity:1;fill-rule:nonzero;stroke:none" d="m 14.3604,17.3975 c -0.272,0.007 -0.482,-0.077 -0.482,-0.077 0,0 -0.053,-0.209 -0.035,-0.848 0.013,-0.457 0.025,-0.989 -0.046,-1.639 -0.122,-1.095 0.024,-1.811 0.024,-1.811 0,0 0.516,1.029 0.648,1.947 0.128,0.891 0.405,2.075 0.405,2.075 0,0 -0.107,0.268 -0.377,0.336 l 0.079,0.856 -0.143,0.018 -0.073,-0.857 z"/><path id="path36" style="fill:#f0e9c8;fill-opacity:1;fill-rule:nonzero;stroke:none" d="m 12.8018,21.0957 c -0.272,0.003 -0.481,-0.084 -0.481,-0.084 0,0 -0.05,-0.21 -0.022,-0.849 0.021,-0.456 0.041,-0.988 -0.021,-1.639 -0.103,-1.097 0.053,-1.811 0.053,-1.811 0,0 0.5,1.038 0.617,1.957 0.115,0.893 0.373,2.082 0.373,2.082 0,0 -0.111,0.266 -0.382,0.33 l 0.065,0.857 -0.143,0.016 -0.059,-0.859 z"/><path id="path37" style="fill:#b49a5d;fill-opacity:1;fill-rule:nonzero;stroke:none" d="m 23.1719,21.7192 c 0,2.856 -2.315,5.172 -5.172,5.172 -2.856,0 -5.172,-2.316 -5.172,-5.172 0,-2.856 2.316,-5.171 5.172,-5.171 2.857,0 5.172,2.315 5.172,5.171"/><path id="path38" style="fill:#175c40;fill-opacity:1;fill-rule:nonzero;stroke:none" d="m 13.8574,27.6338 c 0,0 -0.401,-0.734 0.086,-2.004 0.166,-0.433 1.401,-2.095 1.989,-3.281 0.529,-1.068 0.386,-1.624 1.023,-2.712 0.853,-1.456 1.967,-2.825 1.967,-2.825 0,0 0.561,-0.341 1.147,-0.397 0.356,-0.034 0.986,0.181 0.986,0.181 l 1.537,-1.895 c 0,0 -0.013,-0.033 -0.004,-0.072 0.022,-0.08 0.357,-0.395 0.357,-0.395 0,0 -0.169,0.427 -0.235,0.476 -0.034,0.025 -0.069,0.024 -0.069,0.024 l -1.191,2.128 c 0,0 0.431,0.506 0.532,0.85 0.165,0.565 0.056,1.212 0.056,1.212 0,0 -0.86,1.542 -1.898,2.873 -0.774,0.994 -1.345,1.067 -2.14,1.953 -0.885,0.986 -1.972,2.747 -2.313,3.062 -1,0.923 -1.83,0.822 -1.83,0.822"/><path id="path39" style="fill:#782e3f;fill-opacity:1;fill-rule:nonzero;stroke:none" d="m 21.8086,24.7954 c 0,0 -0.242,-0.174 -0.258,-1.178 -0.015,-1.004 -0.008,-1.451 -0.094,-2.407 -0.086,-0.957 -0.039,-1.938 -0.039,-1.938 0,0 0.133,0.714 0.329,1.592 0.197,0.879 0.234,1.974 0.416,2.879 0.211,1.052 -0.354,1.052 -0.354,1.052"/><path id="path40" style="fill:#f0e9c8;fill-opacity:1;fill-rule:nonzero;stroke:none" d="m 22.8115,26.1978 0.199,-0.231 -6.699,-6.52 -0.441,0.555 6.651,6.533 0.169,-0.196 0.158,0.174 0.143,-0.16 -0.18,-0.155 z"/><path id="path41" style="fill:#782e3f;fill-opacity:1;fill-rule:nonzero;stroke:none" d="m 12.3667,16.0527 c 0,0 0.168,0.098 0.394,0.304 0.331,0.302 0.788,0.778 1.055,1.022 0.217,0.198 0.798,0.663 1.29,1.152 0.593,0.588 1.036,0.977 1.036,0.977 l -0.071,0.117 0.109,0.107 -0.072,0.106 -0.122,-0.089 -0.147,0.082 -2.053,-2.119 c 0,0 -0.229,0.533 -0.342,0.533 -0.114,0 -0.365,-0.212 -0.355,-0.357 0.009,-0.145 0.443,-0.417 0.443,-0.417 0,0 -1.125,-1.189 -1.165,-1.279 -0.04,-0.092 0,-0.139 0,-0.139"/></g><g id="g38"><path id="path50" style="fill:#ffffff;fill-opacity:1;fill-rule:nonzero;stroke:none" d="m 10.2847,9.4443 c 0,0.22 -0.04,0.386 -0.121,0.499 -0.08,0.113 -0.195,0.171 -0.345,0.171 -0.293,0 -0.448,-0.2 -0.465,-0.6 l -10e-4,-0.162 c 0,-0.216 0.039,-0.382 0.118,-0.498 0.079,-0.116 0.196,-0.174 0.351,-0.174 0.148,0 0.262,0.057 0.341,0.171 0.08,0.114 0.121,0.279 0.122,0.492 l 0,0.101 z m 0.595,-0.092 c 0,-0.215 -0.044,-0.405 -0.132,-0.57 -0.088,-0.166 -0.213,-0.293 -0.374,-0.383 -0.161,-0.089 -0.345,-0.134 -0.552,-0.134 -0.206,0 -0.39,0.043 -0.549,0.13 -0.16,0.086 -0.285,0.209 -0.374,0.369 -0.09,0.161 -0.136,0.345 -0.141,0.553 l 0,0.124 c 0,0.216 0.044,0.407 0.131,0.571 0.087,0.165 0.212,0.293 0.375,0.383 0.162,0.09 0.347,0.135 0.555,0.135 0.205,0 0.388,-0.045 0.549,-0.134 0.161,-0.089 0.287,-0.215 0.376,-0.379 0.089,-0.164 0.134,-0.351 0.136,-0.563 l 0,-0.102 z"/><path id="path51" style="fill:#ffffff;fill-opacity:1;fill-rule:nonzero;stroke:none" d="m 11.9775,9.1162 -0.24,-0.239 0,-0.581 -0.584,0 0,2.204 0.584,0 0,-0.972 0.203,0.279 0.523,0.693 0.723,0 -0.819,-0.975 0.819,-1.229 -0.693,0 -0.516,0.82 z"/><path id="path52" style="fill:#ffffff;fill-opacity:1;fill-rule:nonzero;stroke:none" d="m 13.8916,8.7041 1.018,0 0,-0.408 -1.602,0 0,2.204 0.584,0 0,-1.796 z"/><path id="path53" style="fill:#ffffff;fill-opacity:1;fill-rule:nonzero;stroke:none" d="m 15.8755,9.1182 0.521,0 -0.261,0.764 -0.26,-0.764 z m 0.661,-0.41 -0.801,0 -0.139,-0.412 -0.625,0 0.889,2.204 0.55,0 0.896,-2.204 -0.628,0 -0.142,0.412 z"/><path id="path54" style="fill:#ffffff;fill-opacity:1;fill-rule:nonzero;stroke:none" d="m 19.4814,8.2959 -0.581,0 0,0.92 -0.861,0 0,-0.92 -0.584,0 0,2.204 0.584,0 0,-0.875 0.861,0 0,0.875 0.581,0 0,-2.204 z"/><path id="path55" style="fill:#ffffff;fill-opacity:1;fill-rule:nonzero;stroke:none" d="m 21.2822,9.4443 c 0,0.22 -0.04,0.386 -0.12,0.499 -0.081,0.113 -0.196,0.171 -0.346,0.171 -0.293,0 -0.448,-0.2 -0.465,-0.6 l -0.002,-0.162 c 0,-0.216 0.04,-0.382 0.119,-0.498 0.079,-0.116 0.196,-0.174 0.351,-0.174 0.148,0 0.262,0.057 0.342,0.171 0.08,0.114 0.12,0.279 0.121,0.492 l 0,0.101 z m 0.595,-0.092 c 0,-0.215 -0.044,-0.405 -0.132,-0.57 -0.088,-0.166 -0.212,-0.293 -0.374,-0.383 -0.161,-0.089 -0.345,-0.134 -0.552,-0.134 -0.206,0 -0.39,0.043 -0.55,0.13 -0.159,0.086 -0.284,0.209 -0.373,0.369 -0.09,0.161 -0.136,0.345 -0.14,0.553 l 0,0.124 c 0,0.216 0.043,0.407 0.13,0.571 0.087,0.165 0.212,0.293 0.375,0.383 0.163,0.09 0.347,0.135 0.555,0.135 0.205,0 0.389,-0.045 0.549,-0.134 0.161,-0.089 0.286,-0.215 0.376,-0.379 0.089,-0.164 0.135,-0.351 0.136,-0.563 l 0,-0.102 z"/><path id="path56" style="fill:#ffffff;fill-opacity:1;fill-rule:nonzero;stroke:none" d="m 22.9189,10.5 0.541,-1.533 0.539,1.533 0.77,0 0,-2.204 -0.586,0 0,0.515 0.056,1.053 -0.587,-1.568 -0.385,0 -0.588,1.569 0.056,-1.054 0,-0.515 -0.584,0 0,2.204 0.768,0 z"/><path id="path57" style="fill:#ffffff;fill-opacity:1;fill-rule:nonzero;stroke:none" d="m 25.8584,9.1182 0.521,0 -0.261,0.764 -0.26,-0.764 z m 0.661,-0.41 -0.802,0 -0.139,-0.412 -0.624,0 0.888,2.204 0.55,0 0.896,-2.204 -0.627,0 -0.142,0.412 z"/></g></g></g></g></svg>