<svg xmlns:dc="http://purl.org/dc/elements/1.1/" xmlns:cc="http://creativecommons.org/ns#" xmlns:rdf="http://www.w3.org/1999/02/22-rdf-syntax-ns#" xmlns:svg="http://www.w3.org/2000/svg" xmlns="http://www.w3.org/2000/svg" viewBox="0 0 45 45" style="enable-background:new 0 0 45 45;" xml:space="preserve" version="1.1" id="svg2"><metadata id="metadata8"><rdf:RDF><cc:Work rdf:about=""><dc:format>image/svg+xml</dc:format><dc:type rdf:resource="http://purl.org/dc/dcmitype/StillImage"/></cc:Work></rdf:RDF></metadata><defs id="defs6"><clipPath id="clipPath16" clipPathUnits="userSpaceOnUse"><path id="path18" d="M 0,36 36,36 36,0 0,0 0,36 Z"/></clipPath></defs><g transform="matrix(1.25,0,0,-1.25,0,45)" id="g10"><g id="g12"><g xmlns="http://www.w3.org/2000/svg" clip-path="url(#clipPath16)" id="g14"><g id="g30"><path id="path20" style="fill:#003b01;fill-opacity:1;fill-rule:nonzero;stroke:none" d="M 32,31 18,31 4,31 C 1.791,31 0,29.209 0,27 L 0,9 C 0,6.791 1.791,5 4,5 l 14,0 14,0 c 2.209,0 4,1.791 4,4 l 0,18 c 0,2.209 -1.791,4 -4,4"/></g><g id="g34"><path id="path30" style="fill:#f3af00;fill-opacity:1;fill-rule:nonzero;stroke:none" d="m 14.5396,22.6123 c -0.696,-1.118 -2.345,-3.701 -1.033,-7.598 0.484,-1.438 1.189,-2.699 1.189,-2.699 l 7.693,11.502 c 0,0 0.078,0.134 0.207,0.219 0.092,0.06 0.189,0.073 0.189,0.073 l 0.306,0.477 0.083,-0.01 c 0,0 -0.194,0.413 -0.561,0.413 -0.12,0 -0.509,-0.281 -1.116,-0.536 -0.637,-0.267 -1.463,-0.553 -1.997,-0.553 -0.79,0 -1.407,0.295 -1.899,0.619 -0.334,0.22 -0.827,0.643 -0.827,0.643 0,0 -1.433,-1.262 -2.234,-2.55 m 4.093,-13.368 c 0,0 -0.397,-0.409 -0.941,-0.867 -0.545,-0.459 -1.165,-0.918 -1.774,-1.124 -0.609,-0.206 -0.949,-0.067 -1.102,0.086 -0.153,0.153 -0.292,0.414 -0.292,0.414 0,0 -0.241,-0.238 -0.643,-0.136 -0.402,0.102 -0.595,0.578 -0.449,0.873 0.176,0.356 0.558,0.285 0.558,0.285 0,0 -0.602,1.008 -1.08,1.83 -0.478,0.822 -0.846,1.483 -0.846,1.483 0,0 -0.232,0.008 -0.287,0.154 -0.055,0.145 0.101,0.276 0.101,0.276 0,0 -0.11,0.092 -0.11,0.18 0,0.12 0.126,0.231 0.126,0.231 0,0 -0.58,1.417 -0.772,3.269 -0.103,0.994 -0.034,2.472 0.326,3.943 0.257,1.053 0.767,2.091 1.076,2.623 0.309,0.533 0.715,1.035 0.715,1.035 0,0 -0.074,0.077 -0.1,0.166 -0.027,0.087 0.068,0.182 0.068,0.182 l -0.089,0.047 c 0,0 -0.02,0.088 0.094,0.185 0.115,0.097 0.312,0.05 0.312,0.05 l 1.735,2.191 -0.667,0.636 -0.018,0.264 0.203,0.144 -0.115,0.133 0.568,0.4 0.121,-0.129 0.288,0.199 -0.106,0.124 0.553,0.391 0.115,-0.127 0.288,0.204 0.18,-0.191 c 0,0 0.479,-0.685 1.11,-1.384 0.611,-0.677 1.27,-1.369 2.212,-1.369 0.874,0 1.498,0.55 2.591,0.55 1.526,0 2.257,-1.267 2.257,-1.79 0,-0.308 -0.107,-0.646 -0.107,-0.646 l 0.094,-0.717 c 0,0 0.102,-0.368 0.109,-0.495 0.006,-0.127 -0.046,-0.259 -0.046,-0.259 l -4.447,-13.447 -1.809,0.133 z"/><path id="path31" style="fill:#ffffff;fill-opacity:1;fill-rule:nonzero;stroke:none" d="m 16.09375,11.71875 -0.15625,14.625 0.1875,0 0.15625,-14.625 -0.1875,0 z"/><path id="path32" style="fill:#ffffff;fill-opacity:1;fill-rule:nonzero;stroke:none" d="m 16.59375,12.71875 -0.15625,13.0625 0.1875,0 0.15625,-13.0625 -0.1875,0 z"/><path id="path33" style="fill:#ffffff;fill-opacity:1;fill-rule:nonzero;stroke:none" d="m 17.09375,13.625 -0.15625,11.65625 0.1875,0 0.15625,-11.65625 -0.1875,0 z"/><path id="path34" style="fill:#ffffff;fill-opacity:1;fill-rule:nonzero;stroke:none" d="m 17.59375,14.5625 -0.1875,10.28125 0.1875,0 0.1875,-10.28125 -0.1875,0 z"/><path id="path35" style="fill:#ffffff;fill-opacity:1;fill-rule:nonzero;stroke:none" d="m 18.09375,15.4375 -0.1875,9.125 0.1875,0 0.1875,-9.125 -0.1875,0 z"/><path id="path36" style="fill:#ffffff;fill-opacity:1;fill-rule:nonzero;stroke:none" d="m 18.5625,16.25 -0.15625,8.09375 0.1875,0 L 18.75,16.25 l -0.1875,0 z"/><path id="path37" style="fill:#ffffff;fill-opacity:1;fill-rule:nonzero;stroke:none" d="m 19.0625,17.15625 -0.15625,7.03125 0.1875,0 0.15625,-7.03125 -0.1875,0 z"/><path id="path38" style="fill:#ffffff;fill-opacity:1;fill-rule:nonzero;stroke:none" d="m 19.53125,18 -0.15625,6.15625 0.21875,0 0.125,-6.15625 -0.1875,0 z"/><path id="path39" style="fill:#ffffff;fill-opacity:1;fill-rule:nonzero;stroke:none" d="m 20.03125,18.90625 -0.15625,5.3125 0.1875,0 0.15625,-5.3125 -0.1875,0 z"/><path id="path40" style="fill:#ffffff;fill-opacity:1;fill-rule:nonzero;stroke:none" d="m 20.5,19.78125 -0.125,4.5625 0.1875,0 0.125,-4.5625 -0.1875,0 z"/><path id="path41" style="fill:#ffffff;fill-opacity:1;fill-rule:nonzero;stroke:none" d="m 20.96875,20.59375 -0.125,3.90625 0.1875,0 0.125,-3.90625 -0.1875,0 z"/><path id="path42" style="fill:#ffffff;fill-opacity:1;fill-rule:nonzero;stroke:none" d="m 21.4375,21.5 -0.09375,3.21875 0.1875,0 L 21.625,21.5 l -0.1875,0 z"/><path id="path43" style="fill:#ffffff;fill-opacity:1;fill-rule:nonzero;stroke:none" d="m 21.90625,22.4375 -0.09375,2.5 0.1875,0 0.09375,-2.5 -0.1875,0 z"/><path id="path44" style="fill:#ffffff;fill-opacity:1;fill-rule:nonzero;stroke:none" d="m 22.375,23.15625 -0.09375,2.03125 0.1875,0 0.09375,-2.03125 -0.1875,0 z"/></g></g></g></g></svg>