<svg xmlns:dc="http://purl.org/dc/elements/1.1/" xmlns:cc="http://creativecommons.org/ns#" xmlns:rdf="http://www.w3.org/1999/02/22-rdf-syntax-ns#" xmlns:svg="http://www.w3.org/2000/svg" xmlns="http://www.w3.org/2000/svg" viewBox="0 0 45 45" style="enable-background:new 0 0 45 45;" xml:space="preserve" version="1.1" id="svg2"><metadata id="metadata8"><rdf:RDF><cc:Work rdf:about=""><dc:format>image/svg+xml</dc:format><dc:type rdf:resource="http://purl.org/dc/dcmitype/StillImage"/></cc:Work></rdf:RDF></metadata><defs id="defs6"><clipPath id="clipPath16" clipPathUnits="userSpaceOnUse"><path id="path18" d="M 0,36 36,36 36,0 0,0 0,36 Z"/></clipPath></defs><g transform="matrix(1.25,0,0,-1.25,0,45)" id="g10"><g id="g12"><g xmlns="http://www.w3.org/2000/svg" clip-path="url(#clipPath16)" id="g14"><path id="path20" style="fill:#5ab532;fill-opacity:1;fill-rule:nonzero;stroke:none" d="M 32,31 4,31 C 1.791,31 0,29.209 0,27 L 0,9 C 0,6.791 1.791,5 4,5 l 28,0 c 2.209,0 4,1.791 4,4 l 0,18 c 0,2.209 -1.791,4 -4,4"/><g id="g30"><path id="path30" style="fill:#ffffff;fill-opacity:1;fill-rule:nonzero;stroke:none" d="m 12.0083,9.6367 -0.136,0 -0.036,0.201 c -0.031,0.03 -0.07,0.056 -0.115,0.075 -0.046,0.02 -0.1,0.03 -0.163,0.03 -0.148,0 -0.262,-0.054 -0.342,-0.161 -0.079,-0.108 -0.119,-0.244 -0.119,-0.409 l 0,-0.022 c 0,-0.164 0.039,-0.301 0.117,-0.408 0.078,-0.109 0.186,-0.162 0.324,-0.162 0.065,0 0.123,0.009 0.176,0.03 0.053,0.02 0.093,0.045 0.122,0.074 l 0.036,0.201 0.136,0 0,-0.253 c -0.041,-0.052 -0.103,-0.099 -0.185,-0.14 -0.082,-0.042 -0.177,-0.063 -0.285,-0.063 -0.185,0 -0.337,0.069 -0.455,0.205 -0.119,0.137 -0.178,0.309 -0.178,0.516 l 0,0.02 c 0,0.209 0.058,0.381 0.175,0.518 0.116,0.137 0.269,0.205 0.458,0.205 0.108,0 0.203,-0.021 0.285,-0.063 0.082,-0.042 0.144,-0.089 0.185,-0.141 l 0,-0.253 z"/><path id="path31" style="fill:#ffffff;fill-opacity:1;fill-rule:nonzero;stroke:none" d="m 13.1016,9.6533 -0.146,0 -0.036,0.203 c -0.029,0.025 -0.068,0.045 -0.117,0.062 -0.049,0.015 -0.105,0.024 -0.17,0.024 -0.102,0 -0.181,-0.021 -0.236,-0.065 -0.054,-0.043 -0.082,-0.1 -0.082,-0.169 0,-0.063 0.028,-0.115 0.084,-0.156 0.056,-0.041 0.146,-0.078 0.27,-0.109 0.15,-0.037 0.264,-0.092 0.342,-0.164 0.077,-0.072 0.116,-0.161 0.116,-0.269 0,-0.114 -0.046,-0.207 -0.14,-0.276 -0.093,-0.069 -0.216,-0.104 -0.366,-0.104 -0.11,0 -0.207,0.017 -0.292,0.053 -0.085,0.036 -0.155,0.083 -0.208,0.141 l 0,0.265 0.145,0 0.037,-0.205 c 0.037,-0.03 0.081,-0.055 0.132,-0.075 0.052,-0.019 0.114,-0.029 0.186,-0.029 0.096,0 0.173,0.02 0.23,0.061 0.056,0.041 0.084,0.097 0.084,0.167 0,0.066 -0.024,0.121 -0.073,0.165 -0.049,0.043 -0.135,0.081 -0.259,0.11 -0.151,0.036 -0.268,0.089 -0.353,0.158 -0.085,0.07 -0.127,0.158 -0.127,0.264 0,0.111 0.047,0.204 0.142,0.277 0.094,0.074 0.217,0.111 0.368,0.111 0.1,0 0.191,-0.017 0.272,-0.051 0.082,-0.035 0.148,-0.076 0.197,-0.124 l 0,-0.265 z"/><path id="path32" style="fill:#ffffff;fill-opacity:1;fill-rule:nonzero;stroke:none" d="m 14.2412,9.373 c 0,0.166 -0.04,0.301 -0.119,0.405 -0.079,0.105 -0.188,0.157 -0.328,0.157 -0.135,0 -0.24,-0.052 -0.315,-0.157 -0.075,-0.105 -0.113,-0.24 -0.113,-0.405 l 0,-0.022 c 0,-0.166 0.038,-0.302 0.113,-0.407 0.075,-0.104 0.18,-0.157 0.315,-0.157 0.142,0 0.252,0.052 0.33,0.156 0.078,0.105 0.117,0.241 0.117,0.408 l 0,0.022 z m 0.192,-0.022 c 0,-0.207 -0.059,-0.379 -0.178,-0.516 -0.118,-0.137 -0.272,-0.205 -0.461,-0.205 -0.184,0 -0.333,0.068 -0.448,0.205 -0.115,0.137 -0.172,0.309 -0.172,0.516 l 0,0.02 c 0,0.207 0.057,0.379 0.172,0.517 0.115,0.136 0.264,0.206 0.448,0.206 0.189,0 0.343,-0.07 0.461,-0.206 0.119,-0.138 0.178,-0.31 0.178,-0.517 l 0,-0.02 z"/><path id="path33" style="fill:#ffffff;fill-opacity:1;fill-rule:nonzero;stroke:none" d="m 15.8477,10.0732 0,-0.124 -0.16,-0.027 0,-1.272 -0.192,0 -0.684,1.099 -0.006,-0.002 0,-0.946 0.16,-0.028 0,-0.123 -0.512,0 0,0.123 0.16,0.028 0,1.121 -0.16,0.027 0,0.124 0.16,0 0.192,0 0.684,-1.098 0.006,0.002 0,0.945 -0.159,0.027 0,0.124 0.351,0 0.16,0 z"/><path id="path34" style="fill:#ffffff;fill-opacity:1;fill-rule:nonzero;stroke:none" d="m 16.9863,8.8115 c -0.042,-0.044 -0.103,-0.085 -0.185,-0.123 -0.081,-0.039 -0.187,-0.059 -0.317,-0.059 -0.19,0 -0.346,0.067 -0.466,0.201 -0.12,0.133 -0.18,0.306 -0.18,0.519 l 0,0.024 c 0,0.214 0.06,0.388 0.178,0.521 0.119,0.133 0.278,0.199 0.475,0.199 0.105,0 0.198,-0.016 0.278,-0.05 0.079,-0.032 0.147,-0.076 0.201,-0.129 l 0,-0.258 -0.134,0 -0.047,0.196 c -0.032,0.025 -0.071,0.047 -0.116,0.064 -0.045,0.017 -0.1,0.026 -0.163,0.026 -0.153,0 -0.272,-0.053 -0.355,-0.158 -0.083,-0.106 -0.125,-0.242 -0.125,-0.41 l 0,-0.025 c 0,-0.17 0.041,-0.307 0.121,-0.412 0.081,-0.105 0.191,-0.157 0.333,-0.157 0.077,0 0.141,0.008 0.19,0.024 0.05,0.017 0.09,0.034 0.12,0.054 l 0,0.311 -0.234,0.01 0,0.142 0.426,0 0,-0.51 z"/><path id="path35" style="fill:#ffffff;fill-opacity:1;fill-rule:nonzero;stroke:none" d="m 17.437,9.4365 0.253,0 c 0.108,0 0.186,0.021 0.235,0.062 0.049,0.041 0.073,0.101 0.073,0.18 0,0.074 -0.023,0.134 -0.07,0.178 -0.047,0.043 -0.12,0.065 -0.218,0.065 l -0.273,0 0,-0.485 z m 0.273,0.636 c 0.155,0 0.274,-0.034 0.356,-0.104 0.083,-0.068 0.124,-0.166 0.124,-0.292 0,-0.069 -0.019,-0.131 -0.057,-0.184 -0.039,-0.053 -0.093,-0.095 -0.165,-0.126 0.077,-0.026 0.133,-0.067 0.167,-0.124 0.034,-0.057 0.052,-0.128 0.052,-0.212 l 0,-0.115 c 0,-0.043 0.005,-0.076 0.016,-0.096 0.011,-0.021 0.029,-0.033 0.055,-0.037 l 0.047,-0.006 0,-0.126 -0.104,0 c -0.075,0 -0.128,0.026 -0.16,0.078 -0.031,0.052 -0.047,0.115 -0.047,0.189 l 0,0.111 c 0,0.078 -0.022,0.139 -0.067,0.186 -0.045,0.047 -0.105,0.071 -0.181,0.071 l -0.309,0 0,-0.485 0.16,-0.027 0,-0.123 -0.512,0 0,0.123 0.16,0.027 0,1.121 -0.16,0.028 0,0.123 0.16,0 0.465,0 z"/><path id="path36" style="fill:#ffffff;fill-opacity:1;fill-rule:nonzero;stroke:none" d="m 19.042,10.4307 0.226,0 0.002,-0.006 -0.264,-0.254 -0.144,0 0.18,0.26 z m -0.286,-1.216 0.451,0 -0.221,0.612 -0.006,0 -0.224,-0.612 z m -0.456,-0.441 0.105,0.014 0.497,1.286 0.165,0 0.49,-1.286 0.103,-0.014 0,-0.123 -0.408,0 0,0.123 0.107,0.018 -0.093,0.262 -0.57,0 -0.096,-0.262 0.107,-0.018 0,-0.123 -0.407,0 0,0.123 z"/><path id="path37" style="fill:#ffffff;fill-opacity:1;fill-rule:nonzero;stroke:none" d="m 20.0078,9.9219 0,-1.121 0.244,0 c 0.132,0 0.235,0.043 0.312,0.13 0.076,0.087 0.114,0.198 0.114,0.333 l 0,0.196 c 0,0.135 -0.038,0.245 -0.114,0.332 -0.077,0.086 -0.18,0.13 -0.312,0.13 l -0.244,0 z m 0.244,0.151 c 0.186,0 0.335,-0.057 0.448,-0.172 0.114,-0.114 0.17,-0.261 0.17,-0.443 l 0,-0.194 c 0,-0.182 -0.056,-0.329 -0.17,-0.443 -0.113,-0.114 -0.262,-0.17 -0.448,-0.17 l -0.596,0 0,0.123 0.16,0.027 0,1.121 -0.16,0.027 0,0.124 0.16,0 0.436,0 z"/><path id="path38" style="fill:#ffffff;fill-opacity:1;fill-rule:nonzero;stroke:none" d="m 22.6826,9.79 -0.005,0.001 -0.46,-1.141 -0.129,0 -0.46,1.14 -0.005,-10e-4 0.02,-0.576 0,-0.412 0.159,-0.028 0,-0.123 -0.511,0 0,0.123 0.16,0.028 0,1.121 -0.16,0.027 0,0.124 0.16,0 0.246,0 0.454,-1.156 0.006,0 0.452,1.156 0.406,0 0,-0.124 -0.159,-0.027 0,-1.121 0.159,-0.028 0,-0.123 -0.511,0 0,0.123 0.159,0.028 0,0.412 0.019,0.577 z"/><path id="path39" style="fill:#ffffff;fill-opacity:1;fill-rule:nonzero;stroke:none" d="m 23.0293,8.6504 0,0.123 0.159,0.027 0,1.121 -0.159,0.028 0,0.124 1.093,0 0,-0.342 -0.165,0 -0.016,0.19 -0.56,0 0,-0.46 0.544,0 0,-0.152 -0.544,0 0,-0.509 0.572,0 0.015,0.191 0.165,0 0,-0.341 -1.104,0 z"/><path id="path40" style="fill:#ffffff;fill-opacity:1;fill-rule:nonzero;stroke:none" d="m 25.3145,8.8115 c -0.042,-0.044 -0.104,-0.085 -0.185,-0.123 -0.082,-0.039 -0.187,-0.059 -0.318,-0.059 -0.189,0 -0.345,0.067 -0.465,0.201 -0.12,0.133 -0.18,0.306 -0.18,0.519 l 0,0.024 c 0,0.214 0.059,0.388 0.178,0.521 0.118,0.133 0.277,0.199 0.474,0.199 0.105,0 0.198,-0.016 0.278,-0.05 0.08,-0.032 0.148,-0.076 0.202,-0.129 l 0,-0.258 -0.134,0 -0.047,0.196 c -0.032,0.025 -0.072,0.047 -0.116,0.064 -0.045,0.017 -0.1,0.026 -0.164,0.026 -0.153,0 -0.271,-0.053 -0.354,-0.158 -0.083,-0.106 -0.125,-0.242 -0.125,-0.41 l 0,-0.025 c 0,-0.17 0.04,-0.307 0.121,-0.412 0.08,-0.105 0.191,-0.157 0.332,-0.157 0.078,0 0.142,0.008 0.191,0.024 0.049,0.017 0.089,0.034 0.12,0.054 l 0,0.311 -0.235,0.01 0,0.142 0.427,0 0,-0.51 z"/><path id="path41" style="fill:#ffffff;fill-opacity:1;fill-rule:nonzero;stroke:none" d="m 25.8857,9.9492 -0.153,-0.019 0.298,-0.581 0.298,0.581 -0.153,0.019 0,0.124 0.489,0 0,-0.124 -0.12,-0.019 -0.423,-0.78 0,-0.349 0.16,-0.028 0,-0.123 -0.51,0 0,0.123 0.159,0.028 0,0.364 -0.414,0.765 -0.119,0.019 0,0.124 0.488,0 0,-0.124 z"/><path id="path42" style="fill:#ffffff;fill-opacity:1;fill-rule:nonzero;stroke:none" d="m 26.6719,8.6504 0,0.123 0.159,0.027 0,1.121 -0.159,0.028 0,0.124 1.093,0 0,-0.342 -0.165,0 -0.016,0.19 -0.56,0 0,-0.46 0.544,0 0,-0.152 -0.544,0 0,-0.509 0.572,0 0.015,0.191 0.165,0 0,-0.341 -1.104,0 z"/></g><g id="g34"><path id="path50" style="fill:#fcef3c;fill-opacity:1;fill-rule:nonzero;stroke:none" d="m 18.79,17.5474 -4.588,0 0,-2.596 c 0,0 -0.058,-2.016 0.437,-2.479 0.478,-0.447 2.405,-0.188 3.654,-0.227 0.505,-0.016 0.497,-0.416 0.497,-0.416 l 0,5.718 z"/><path id="path51" style="fill:#ffffff;fill-opacity:1;fill-rule:nonzero;stroke:none" d="m 19.0664,12.2061 c 0.061,0.021 0.133,0.036 0.221,0.039 1.249,0.039 3.176,-0.22 3.654,0.228 0.034,0.032 0.066,0.073 0.096,0.12 l -1.953,2.358 -2.018,-2.745 z"/><path id="path52" style="fill:#2b5df2;fill-opacity:1;fill-rule:nonzero;stroke:none" d="m 19.0664,12.2061 c -0.281,-0.104 -0.276,-0.377 -0.276,-0.377 l 0,3.122 2.294,0 -2.018,-2.745 z"/><path id="path53" style="fill:#e20909;fill-opacity:1;fill-rule:nonzero;stroke:none" d="m 21.084,14.9512 2.294,0 c 0,0 0.05,-1.742 -0.341,-2.359 l -1.953,2.359 z"/><path id="path54" style="fill:#5ab532;fill-opacity:1;fill-rule:nonzero;stroke:none" d="m 18.79,15.142 2.294,0 0,-0.19 -2.294,0 0,0.19 z"/><path id="path55" style="fill:#e20909;fill-opacity:1;fill-rule:nonzero;stroke:none" d="m 18.79,17.547 2.294,0 0,-2.406 -2.294,0 0,2.406 z"/><path id="path56" style="fill:#2b5df2;fill-opacity:1;fill-rule:nonzero;stroke:none" d="m 21.084,17.547 2.294,0 0,-2.596 -2.294,0 0,2.596 z"/><path id="path57" style="fill:#5ab532;fill-opacity:1;fill-rule:nonzero;stroke:none" d="m 18.79,19.4995 0,-1.953 -4.588,10e-4 0,1.952 4.588,0 z"/><path id="path58" style="fill:#2b5df2;fill-opacity:1;fill-rule:nonzero;stroke:none" d="m 18.79,19.4995 0,3.918 -4.588,0 0,-3.918 4.588,0 z"/><path id="path59" style="fill:#e20909;fill-opacity:1;fill-rule:nonzero;stroke:none" d="m 23.3779,17.5474 0,5.87 -4.588,0 0,-5.87 4.588,0 z"/><path id="path60" style="fill:#2b5df2;fill-opacity:1;fill-rule:nonzero;stroke:none" d="m 17.1743,18.3569 0,-1.24 c 0,0 -0.02,-0.709 0.154,-0.872 0.168,-0.158 0.847,-0.066 1.287,-0.08 0.178,-0.006 0.175,-0.146 0.175,-0.146 0,0 -0.003,0.14 0.176,0.146 0.439,0.014 1.118,-0.078 1.286,0.08 0.173,0.163 0.154,0.872 0.154,0.872 l 0,1.24 -3.232,0 z"/><path id="path61" style="fill:#fcef3c;fill-opacity:1;fill-rule:nonzero;stroke:none" d="m 17.174,19.959 3.232,0 0,-1.603 -3.232,0 0,1.603 z"/><path id="path62" style="fill:#fcef3c;fill-opacity:1;fill-rule:nonzero;stroke:none" d="m 15.4609,23.4175 c 0,0 -0.089,0.107 -0.067,0.239 0.027,0.158 0.243,0.122 0.185,0.546 -0.059,0.423 -0.223,0.355 -0.267,0.446 -0.052,0.11 0.02,0.13 0.02,0.13 0,0 -0.094,0.049 -0.216,0.216 -0.123,0.167 -0.145,0.274 -0.145,0.274 l -0.241,0.302 c 0,0 -0.12,0.01 -0.352,0.251 -0.231,0.242 -0.202,0.423 -0.127,0.518 0.112,0.141 0.202,-0.047 0.202,-0.047 0,0 -0.024,0.339 0.277,0.339 0.241,0 0.303,-0.583 0.303,-0.583 0,0 0.149,0.55 0.392,0.55 0.32,0 0.283,-0.432 0.283,-0.432 0,0 0.278,0.067 0.278,-0.272 0,-0.34 -0.829,-0.304 -0.829,-0.304 0,0 0.212,-0.538 0.959,-0.377 0.43,0.093 0.634,0.525 0.714,0.765 -0.131,0.002 -0.248,0.101 -0.273,0.241 -0.025,0.135 0.045,0.266 0.161,0.317 -0.032,0.019 -0.056,0.052 -0.064,0.093 -0.013,0.072 0.032,0.14 0.1,0.153 0.069,0.012 0.135,-0.036 0.148,-0.108 0.008,-0.045 -0.007,-0.089 -0.036,-0.118 0.116,-0.018 0.212,-0.113 0.235,-0.239 0.023,-0.128 -0.038,-0.251 -0.141,-0.307 0.14,-0.179 0.442,-0.491 0.866,-0.491 0.723,0 0.876,0.604 0.876,0.604 l -0.06,0.085 c 0,0 -0.303,-0.271 -0.571,-0.271 -0.084,0 -0.175,0.037 -0.187,0.208 -0.014,0.213 0.128,0.249 0.128,0.249 0,0 -0.188,0.093 -0.155,0.27 0.066,0.365 0.564,0.135 0.564,0.135 0,0 -0.223,0.305 -0.017,0.54 0.192,0.219 0.394,-0.069 0.394,-0.069 0,0 0.202,0.288 0.394,0.069 0.207,-0.235 -0.017,-0.54 -0.017,-0.54 0,0 0.498,0.23 0.564,-0.135 0.033,-0.177 -0.155,-0.27 -0.155,-0.27 0,0 0.143,-0.036 0.128,-0.249 -0.012,-0.171 -0.103,-0.208 -0.187,-0.208 -0.268,0 -0.57,0.271 -0.57,0.271 l -0.06,-0.085 c 0,0 0.152,-0.604 0.876,-0.604 0.423,0 0.725,0.312 0.865,0.491 -0.103,0.056 -0.164,0.179 -0.141,0.307 0.023,0.126 0.119,0.221 0.236,0.239 -0.029,0.029 -0.044,0.073 -0.037,0.118 0.013,0.072 0.079,0.12 0.148,0.108 0.068,-0.013 0.113,-0.081 0.1,-0.153 -0.007,-0.041 -0.031,-0.074 -0.063,-0.093 0.115,-0.051 0.185,-0.182 0.16,-0.317 -0.025,-0.14 -0.141,-0.239 -0.272,-0.241 0.08,-0.24 0.283,-0.672 0.714,-0.765 0.747,-0.161 0.959,0.377 0.959,0.377 0,0 -0.831,-0.036 -0.831,0.304 0,0.339 0.28,0.272 0.28,0.272 0,0 -0.038,0.432 0.282,0.432 0.243,0 0.392,-0.55 0.392,-0.55 0,0 0.063,0.583 0.303,0.583 0.301,0 0.278,-0.339 0.278,-0.339 0,0 0.089,0.188 0.201,0.047 0.075,-0.095 0.104,-0.276 -0.127,-0.518 -0.232,-0.241 -0.352,-0.251 -0.352,-0.251 l -0.24,-0.302 c 0,0 -0.022,-0.107 -0.145,-0.274 -0.124,-0.167 -0.216,-0.216 -0.216,-0.216 0,0 0.072,-0.02 0.019,-0.13 -0.044,-0.091 -0.208,-0.023 -0.266,-0.446 -0.059,-0.424 0.157,-0.388 0.184,-0.546 0.023,-0.132 -0.066,-0.239 -0.066,-0.239"/><path id="path63" style="fill:#ffffff;fill-opacity:1;fill-rule:nonzero;stroke:none" d="m 22.8418,25.457 c 0.045,0.154 -0.021,0.308 -0.147,0.344 -0.125,0.036 -0.263,-0.06 -0.307,-0.214 -0.045,-0.154 0.021,-0.308 0.147,-0.344 0.125,-0.036 0.263,0.06 0.307,0.214"/><path id="path64" style="fill:#ffffff;fill-opacity:1;fill-rule:nonzero;stroke:none" d="m 14.7539,25.457 c -0.044,0.154 0.022,0.308 0.147,0.344 0.126,0.036 0.264,-0.06 0.308,-0.214 0.044,-0.154 -0.022,-0.308 -0.148,-0.344 -0.125,-0.036 -0.263,0.06 -0.307,0.214"/><path id="path65" style="fill:#ffffff;fill-opacity:1;fill-rule:nonzero;stroke:none" d="m 19.0713,26.3682 c 0,0.155 -0.126,0.281 -0.281,0.281 -0.156,0 -0.281,-0.126 -0.281,-0.281 0,-0.155 0.125,-0.281 0.281,-0.281 0.155,0 0.281,0.126 0.281,0.281"/><path d="m 22.1357,23.4175 c 0,0 0,0.659 -3.346,0.659 -3.344,0 -3.344,-0.659 -3.344,-0.659 l 6.69,0 z" id="path3209" style="fill:#e20909;fill-opacity:1;fill-rule:nonzero;stroke:none"/></g><g id="g38"><path id="path70" style="fill:#e20909;fill-opacity:1;fill-rule:nonzero;stroke:none" d="m 26.201398,23.856084 c 0,0 0.181,0.169 0.785,-0.03 0.604,-0.2 0.822,-0.012 0.806,0.321 -0.018,0.369 -0.442,0.228 -0.442,0.228 0,0 0.371,-0.232 0,-0.33 -0.149,-0.039 -0.353,0.11 -0.737,0.071 -0.384,-0.039 -0.51,-0.271 -0.51,-0.271 l 0.098,0.011 z"/><path id="path72" style="fill:#e20909;fill-opacity:1;fill-rule:nonzero;stroke:none" d="m 11.9082,23.856 c 0,0 -0.181,0.169 -0.785,-0.03 -0.604,-0.2 -0.822,-0.012 -0.806,0.321 0.018,0.369 0.442,0.228 0.442,0.228 0,0 -0.371,-0.232 0,-0.33 0.149,-0.039 0.353,0.11 0.737,0.071 0.384,-0.039 0.51,-0.271 0.51,-0.271 l -0.098,0.011 z"/><path id="path80" style="fill:#000000;fill-opacity:1;fill-rule:nonzero;stroke:none" d="m 14.2725,16.377 -0.07,6.795 c 0,0 -0.243,-0.103 -0.463,-0.433 -0.22,-0.329 -0.306,-0.674 -0.306,-0.674 l 0.047,0.792 c 0,0 0.212,0.031 0.337,0.157 0.126,0.125 0.063,0.219 0.063,0.219 l -0.204,0 -0.055,0.534 c 0,0 0.204,-0.024 0.353,0.117 0.149,0.141 0.024,0.298 0.024,0.298 0,0 -0.173,-0.062 -0.236,-0.039 -0.062,0.024 -0.243,0.424 -0.243,0.424 0,0 0.369,-0.024 0.455,0.227 0.086,0.251 -0.251,0.612 -0.251,0.612 0,0 0.016,-0.377 -0.376,-0.282 -0.392,0.094 -1.028,0.399 -1.271,0.399 -0.243,0 -0.29,-0.305 -0.29,-0.305 0,0 -0.596,0.133 -0.839,-0.126 -0.243,-0.258 0,-0.886 0,-0.886 0,0 0.109,0.149 0.352,0.149 0.244,0 0.377,-0.181 0.377,-0.181 0,0 0.149,0.032 0.251,-0.054 0.102,-0.087 0.078,-0.275 0.078,-0.275 0,0 -0.196,0.039 -0.486,-0.015 -0.29,-0.056 -0.282,-0.267 -0.282,-0.267 0,0 0.855,0.031 0.855,-0.228 0,-0.258 -0.251,-0.384 -0.33,-0.345 -0.078,0.039 0.047,0.298 0.047,0.298 0,0 -0.251,0.126 -0.392,-0.188 -0.141,-0.314 0,-0.517 0,-0.517 0,0 -0.439,0.078 -0.533,-0.369 -0.063,-0.3 0.196,-0.447 0.196,-0.447 0,0 0.188,0.384 0.275,0.235 0.086,-0.149 -0.118,-0.274 -0.299,-0.376 -0.18,-0.103 -0.282,-0.361 -0.282,-0.361 0,0 -0.408,-0.047 -0.486,0 -0.078,0.047 0.023,0.251 0.258,0.502 0.236,0.251 -0.031,0.439 -0.031,0.439 0,0 0.345,0.047 0.541,0.549 0.196,0.502 0.058,0.957 -0.794,0.957 -0.853,0 -1.096,-0.291 -1.276,-0.635 -0.181,-0.346 -0.133,-0.683 -0.133,-0.683 0,0 -0.338,0.181 -0.44,-0.094 -0.102,-0.275 0.102,-0.447 0.102,-0.447 0,0 -1.09,-2.667 -1.208,-2.847 -0.117,-0.18 -0.611,-0.439 -0.611,-0.73 0,-0.29 0.211,-0.423 0.502,-0.353 0.29,0.071 0.713,0.589 0.713,0.589 0,0 -0.243,-0.84 -0.588,-1.874 -0.345,-1.036 -0.502,-1.107 -0.565,-1.146 -0.062,-0.039 -0.345,-0.29 -0.345,-0.58 0,-0.291 0.471,-0.282 0.604,-0.196 0.133,0.086 1.569,2.878 1.569,2.878 0,0 -0.047,-0.471 -0.235,-1.106 -0.189,-0.635 -0.299,-0.737 -0.346,-0.799 -0.046,-0.063 -0.509,-0.306 -0.509,-0.566 0,-0.259 0.486,-0.454 1.043,0.235 0.557,0.691 0.847,2.04 0.847,2.04 l 0.164,-0.165 c 0,0 -0.219,-0.799 -1.011,-2.031 -0.792,-1.231 -1.067,-1.679 -1.2,-1.811 -0.133,-0.134 -0.871,-0.416 -0.871,-0.644 0,-0.227 0.337,-0.29 0.337,-0.29 0,0 -0.384,-0.416 -0.447,-0.612 -0.063,-0.196 0,-0.29 0,-0.29 0,0 0.157,0.015 0.306,0.079 0.15,0.062 0.345,0.219 0.345,0.219 0,0 -0.164,-0.267 -0.227,-0.604 -0.063,-0.337 -0.039,-0.533 -0.039,-0.533 0,0 0.361,0.227 0.596,0.525 0.235,0.298 0.462,0.691 0.462,0.691 0,0 0.212,-0.738 0.534,-0.574 0.321,0.165 0.07,0.487 0.07,0.761 0,0.276 0.542,1.616 0.926,2.408 0.384,0.792 0.533,1.012 0.58,1.13 0.048,0.117 0.181,1.396 0.181,1.396 0,0 0.07,-0.291 0.023,-0.784 -0.086,-0.911 -0.745,-1.89 -0.58,-2.079 0.165,-0.188 0.808,0.691 0.808,0.691 0,0 0.057,-0.232 -0.181,-0.44 -0.376,-0.33 -0.384,-0.573 -0.384,-0.573 0,0 0.207,-0.187 0.488,-0.031 0.28,0.157 0.461,0.463 0.461,0.463 0,0 0.008,-0.282 0.235,-0.658 0.228,-0.377 0.353,-0.66 0.353,-0.66 0,0 -0.29,0.102 -0.501,-0.046 -0.212,-0.15 -0.118,-0.463 -0.118,-0.463 0,0 -0.118,0 -0.173,-0.118 -0.055,-0.118 0.079,-0.322 0.079,-0.322 0,0 0.039,0.111 0.086,0.173 0.047,0.063 0.126,0.102 0.126,0.102 0,0 0.093,-0.189 0.407,-0.118 0.314,0.071 0.447,0.306 0.447,0.306 0,0 0.275,-0.023 0.361,-0.368 0.086,-0.346 0.565,-0.486 0.565,-0.486 l 0.102,-0.212 c 0,0 0.125,0.062 0.141,0.179 0.016,0.119 -0.008,0.205 -0.008,0.205 0,0 0.039,0.031 0.07,0.157 0.032,0.125 -0.031,0.157 -0.031,0.157 0,0 0.055,0.011 0.117,0.028 0.061,0.018 0.118,0.068 0.118,0.068 l 0.185,-0.218 c 0,0 0.123,0.097 0.067,0.267 -0.056,0.171 -0.167,0.277 -0.167,0.277 0,0 0.012,0.109 -0.074,0.191 -0.085,0.082 -0.282,0.151 -0.282,0.151 0,0 0.021,0.076 0.112,0.079 0.091,0.003 0.2,-0.062 0.2,-0.062 0,0 0.017,0.091 -0.039,0.164 -0.056,0.075 -0.217,0.021 -0.217,0.021 0,0 -0.157,0.237 -0.475,0.112 -0.317,-0.126 -0.239,-0.173 -0.408,-0.173 -0.168,0 -0.321,0.471 -0.466,0.906 -0.145,0.435 -0.267,0.954 -0.267,0.954 0,0 0.141,0.039 0.333,0.305 0.192,0.267 0.24,0.6 0.24,0.6 0,0 -0.801,-0.102 -0.53,0.435 0.186,0.369 0.686,-0.254 0.663,-0.482 -0.023,-0.228 -0.145,-0.29 -0.145,-0.29 0,0 0.168,-0.126 0.353,-0.066 0.184,0.058 0.149,0.49 0.149,0.49 l 0.663,-0.444 c 0,0 -0.31,-0.627 -0.4,-0.945 -0.091,-0.317 -0.02,-0.474 -0.02,-0.474 0,0 0.18,-0.086 0.529,0.423 0.35,0.51 0.373,0.604 0.447,0.616 0.075,0.011 0.369,-0.118 0.389,-0.255 0.019,-0.137 -0.2,-0.349 -0.2,-0.643 0,-0.295 0.258,-0.459 0.258,-0.459 0,0 0.02,-0.126 0.095,-0.227 0.074,-0.103 0.207,-0.142 0.207,-0.142 0,0 -0.037,0.081 -0.051,0.175 -0.013,0.093 0.002,0.167 0.002,0.167 0,0 0.094,0.067 0.202,0.231 0.108,0.164 0.108,0.262 0.007,0.392 -0.087,0.114 -0.017,0.198 -0.017,0.198 0,0 0.172,-0.086 0.282,-0.086 0.109,0 0.225,0.155 0.225,0.155 0,0 0.041,-10e-4 0.135,0.009 0.094,0.01 0.147,0.068 0.147,0.068 0,0 -0.024,0.039 -0.085,0.07 -0.06,0.031 -0.1,0.023 -0.1,0.023 0,0 0.031,0.24 -0.16,0.444 -0.22,0.233 -0.461,0.033 -0.461,0.033 0,0 -0.045,0.163 0.184,0.378 0.23,0.216 0.141,0.346 0.061,0.465 -0.08,0.12 -0.045,0.206 -0.045,0.206 0,0 0.01,0 0.08,0.066 0.071,0.068 0.079,0.167 0.079,0.167 0,0 -0.084,0.01 -0.167,-0.066 -0.082,-0.077 -0.349,-0.053 -0.349,-0.053"/><path id="path90" style="fill:#fcef3c;fill-opacity:1;fill-rule:nonzero;stroke:none" d="m 22.4336,23.4175 c 0,0 0.152,0.33 0.329,0.33 0.263,0 0.353,-0.22 0.353,-0.22 0,0 0.263,0.28 0.447,0.012 0.145,-0.212 -0.07,-0.377 -0.07,-0.377 0,0 -0.012,-0.231 0.101,-0.38 0.114,-0.149 0.381,-0.279 0.381,-0.279 0,0 0.07,0.102 0.278,0.22 0.208,0.118 0.216,0.337 0.216,0.337 0,0 -0.447,-0.145 -0.572,0.028 -0.126,0.172 0.078,0.447 0.078,0.447 0,0 0.113,-0.196 0.196,-0.196 0.082,0 0.208,0.192 0.275,0.361 0.066,0.168 0.208,0.266 0.208,0.266 0,0 -0.366,0.098 -0.366,0.341 0,0.243 0.389,0.377 0.389,0.377 0,0 -0.043,-0.341 0.102,-0.341 0.145,0 0.173,0.078 0.173,0.341 0,0.451 0.184,0.412 0.184,0.412 0,0 -0.173,0.125 -0.173,0.333 0,0.208 0.173,0.267 0.318,0.267 0.145,0 0.29,-0.165 0.29,-0.165 0,0 0.063,0.117 0.212,0.117 0.149,0 0.247,-0.09 0.533,-0.09 0.471,0 0.49,-0.109 0.49,-0.109 0,0 0.4,-0.067 0.522,-0.122 0.122,-0.055 0.126,-0.125 0.114,-0.181 -0.012,-0.054 -0.114,-0.109 -0.114,-0.109 0,0 0.188,-0.377 -0.04,-0.561 -0.227,-0.184 -0.344,-0.016 -0.678,-0.016 -0.333,0 -0.454,-0.27 -0.454,-0.501 0,-0.232 0.282,-0.248 0.599,-0.189 0.318,0.059 0.53,-0.027 0.518,-0.207 -0.012,-0.181 -0.137,-0.22 -0.137,-0.22 0,0 -0.042,0.221 -0.244,0.221 -0.203,0 -0.203,-0.162 -0.203,-0.162 0,0 -0.133,0.092 -0.291,0.092 -0.159,0 -0.194,-0.239 -0.048,-0.268 0.147,-0.029 0.359,-0.006 0.45,-0.071 0.092,-0.064 0.159,-0.253 0.351,-0.253 0.19,0 0.12,0.262 0.12,0.262 0,0 0.338,-0.121 0.338,-0.368 0,-0.247 -0.408,-0.22 -0.408,-0.22 0,0 0.005,-0.28 0.253,-0.28 0.247,0 0.27,0.095 0.27,0.095 0,0 0.117,-0.33 -0.144,-0.427 -0.262,-0.097 -0.457,0.071 -0.457,-0.197 0,-0.267 0.557,-0.182 0.557,-0.182 0,0 -0.057,-0.174 -0.221,-0.256 -0.165,-0.082 -0.305,-0.05 -0.305,-0.05 0,0 0.257,-0.583 0.66,-1.199 0.404,-0.616 0.682,-1.478 0.682,-1.478 0,0 0.816,-0.185 0.816,0.843 0,1.027 -0.502,1.305 -0.722,1.305 -0.219,0 -0.348,-0.102 -0.348,-0.349 0,-0.247 0.145,-0.305 0.145,-0.305 0,0 -0.428,0.094 -0.428,0.533 0,0.521 0.691,0.443 0.691,0.443 0,0 -0.393,0.318 -0.566,0.894 -0.171,0.576 0.044,1.126 0.044,1.126 0,0 -0.184,0.157 -0.028,0.435 0.157,0.278 0.297,0.349 0.216,0.482 -0.055,0.091 -0.247,-0.008 -0.247,-0.008 0,0 -0.102,0.196 0.231,0.298 0.243,0.075 0.314,-0.121 0.314,-0.121 0,0 0.155,0.338 0.498,0.467 0.242,0.09 0.443,0.003 0.494,-0.188 0.068,-0.258 -0.082,-0.381 -0.082,-0.381 0,0 0.023,0.157 -0.15,0.157 -0.171,0 -0.29,-0.388 -0.29,-0.388 0,0 0.558,0.172 0.558,-0.322 0,-0.523 -0.482,-0.374 -0.482,-0.374 0,0 0.255,0.159 0.143,0.271 -0.111,0.112 -0.294,0.026 -0.411,-0.22 -0.177,-0.371 -0.488,-0.215 -0.488,-0.215 0,0 -0.177,-0.265 -0.089,-0.738 0.053,-0.286 0.272,-0.529 0.413,-0.711 0.159,-0.206 0.231,-0.295 0.231,-0.295 0,0 -0.008,0.126 0.212,0.267 0.081,0.052 0.182,0.144 0.182,0.259 0,0.186 -0.179,0.15 -0.179,0.15 0,0 0.129,0.11 0.262,0.03 0.105,-0.065 0.178,-0.161 0.187,-0.321 0.022,-0.326 -0.376,-0.384 -0.343,-0.753 0.041,-0.477 0.335,-0.412 0.335,-1.456 0,-1.276 -1.091,-1.173 -1.091,-1.173 0,0 0.082,-0.54 -0.117,-1.085 -0.201,-0.546 -0.185,-0.828 0.148,-1.004 0.334,-0.177 0.545,-0.251 0.506,-0.687 -0.039,-0.435 0.016,-0.424 0.134,-0.513 0.117,-0.091 0.129,-0.205 0.027,-0.181 -0.102,0.023 -0.177,0.023 -0.192,-0.121 -0.016,-0.146 -0.094,-0.467 -0.09,-0.546 0.004,-0.078 0.086,-0.184 0.086,-0.184 0,0 -0.302,0.09 -0.321,0.028 -0.02,-0.063 0.085,-0.13 0.07,-0.204 -0.016,-0.075 -0.232,-0.039 -0.255,-0.224 -0.024,-0.185 0.188,-0.4 0.142,-0.596 -0.048,-0.196 -0.44,0.067 -0.506,-0.177 -0.068,-0.243 0.3,-0.271 0.318,-0.341 0.018,-0.072 -0.031,-0.111 0.009,-0.174 0.099,-0.162 -0.018,-0.32 -0.018,-0.32 0,0 -0.028,0.009 -0.06,0.069 -0.034,0.058 -0.042,0.115 -0.042,0.115 0,0 -0.047,-0.043 -0.192,-0.043 -0.145,0 -0.355,0.116 -0.355,0.116 0,0 -0.102,-0.043 -0.08,-0.219 0.021,-0.177 -0.067,-0.222 -0.187,-0.232 -0.119,-0.01 -0.262,-0.184 -0.262,-0.184 0,0 -0.064,0.069 -0.028,0.161 0.047,0.119 -0.015,0.152 -0.015,0.152 0,0 -0.041,-0.027 -0.167,-0.027 -0.125,0 -0.149,0.047 -0.218,0.047 -0.094,0 -0.147,-0.157 -0.147,-0.157 0,0 -0.06,0.071 -0.05,0.185 0.009,0.113 0.115,0.16 0.115,0.16 0,0 -0.057,0.053 -0.049,0.14 0.008,0.086 0.119,0.16 0.119,0.16 0,0 -0.078,0.024 -0.156,0.067 -0.079,0.043 -0.114,0.086 -0.114,0.086 0,0 -0.077,-0.013 -0.141,-0.072 -0.065,-0.059 -0.079,-0.12 -0.079,-0.12 0,0 -0.092,0.136 0.002,0.233 0.095,0.099 0.182,0.075 0.182,0.075 0,0 0.012,0.163 0.169,0.255 0.157,0.092 0.436,-0.067 0.578,-0.036 0.144,0.032 0.117,0.124 0.263,0.253 0.148,0.13 0.23,0.15 0.28,0.283 0.052,0.133 -0.001,0.349 0.01,0.51 0.012,0.16 0.058,0.192 0.056,0.271 -0.002,0.078 -0.114,0.179 -0.114,0.327 0,0.147 0.192,0.321 0.192,0.404 0,0.082 -0.149,0.147 -0.28,0.147 -0.132,0 -0.257,-0.059 -0.257,-0.179 0,-0.119 0.182,-0.225 0.182,-0.225 0,0 -0.131,-0.102 -0.275,-0.022 -0.142,0.081 -0.203,0.21 -0.203,0.21 0,0 -0.056,-0.1 -0.204,-0.112 -0.15,-0.011 -0.204,-0.058 -0.212,-0.128 -0.008,-0.068 0.045,-0.13 0.045,-0.13 0,0 -0.253,0.023 -0.253,0.227 0,0.204 0.298,0.36 0.298,0.36 0,0 -0.237,-0.013 -0.237,0.24 0,0.253 0.256,0.296 0.256,0.296 0,0 -0.178,-0.233 0.054,-0.279 0.129,-0.025 0.143,0.111 0.219,0.245 0.088,0.155 0.165,0.164 0.165,0.164 0,0 -0.235,0.338 -0.235,0.63 0,0.293 0.149,0.699 0.149,0.699 0,0 -0.142,-0.12 -0.593,-0.181 -0.45,-0.061 -0.492,-0.331 -0.5,-0.578 -0.015,-0.531 -0.3,-0.502 -0.3,-0.502 0,0 0.115,-0.259 0.099,-0.447 -0.016,-0.188 -0.169,-0.326 -0.169,-0.441 0,-0.116 0.08,-0.186 0.08,-0.186 0,0 -0.053,-0.107 -0.139,-0.032 -0.086,0.075 -0.133,0.09 -0.133,0.09 0,0 -0.041,-0.082 -0.024,-0.18 0.018,-0.098 0.071,-0.172 0.071,-0.172 0,0 -0.192,-0.048 -0.228,-0.265 -0.035,-0.218 -0.011,-0.326 0.073,-0.389 0.226,-0.169 0.115,-0.321 0.115,-0.321 0,0 0.069,-0.01 0.101,-0.083 0.031,-0.072 -0.008,-0.123 -0.008,-0.123 0,0 -0.036,0.065 -0.122,0.065 -0.086,0 -0.121,-0.086 -0.239,-0.086 -0.117,0 -0.133,0.066 -0.173,0.119 -0.039,0.053 -0.1,0.063 -0.1,0.063 0,0 0.002,-0.253 -0.023,-0.301 -0.025,-0.046 -0.365,-0.07 -0.379,-0.168 -0.014,-0.098 -0.072,-0.184 -0.072,-0.184 0,0 -0.065,0.098 -0.057,0.227 0.008,0.129 -0.163,0.149 -0.202,0.222 -0.039,0.072 -0.023,0.156 -0.023,0.156 0,0 -0.059,0.018 -0.082,-0.043 -0.024,-0.06 -0.065,-0.155 -0.242,-0.148 -0.274,0.01 -0.159,-0.192 -0.159,-0.192 0,0 -0.192,0.066 -0.188,0.377 0.004,0.313 0.057,0.281 0.184,0.301 0.21,0.033 0.181,0.153 0.181,0.153 0,0 -0.163,-0.094 -0.265,-0.094 -0.102,0 -0.251,0.078 -0.251,0.078 0,0 -0.049,0.375 0.279,0.375 0.327,0 0.358,-0.069 0.447,-0.028 0.088,0.042 0.084,0.143 0.129,0.182 0.045,0.039 0.263,0.03 0.292,0.14 0.029,0.109 -0.182,0.066 -0.182,0.066 0,0 -0.03,0.136 0.098,0.197 0.127,0.06 0.373,0.223 0.42,0.299 0.207,0.343 0.155,0.799 0.155,0.799 0,0 -0.026,-0.006 -0.045,-0.026 -0.018,-0.021 -0.025,-0.058 -0.025,-0.058 0,0 -0.02,0.037 -0.019,0.135 0.002,0.081 0.037,0.133 0.037,0.133 0,0 -0.179,-0.054 -0.29,0.043 -0.111,0.097 -0.062,0.225 -0.062,0.225 0,0 0.159,-0.038 0.234,0.022 0.075,0.059 0.066,0.143 0.066,0.143 0,0 -0.24,0.078 -0.405,-0.008 -0.166,-0.086 -0.179,-0.206 -0.179,-0.206 0,0 -0.099,0.17 0.065,0.401 0.123,0.175 0.354,0.134 0.354,0.134 0,0 -0.093,0.043 -0.159,0.164 -0.065,0.122 0.048,0.228 0.048,0.228 0,0 -0.015,-0.123 0.114,-0.216 0.146,-0.106 0.261,-0.109 0.261,-0.109 0,0 0.067,0.704 0.518,1.1 0.451,0.396 0.6,0.239 0.98,0.553 0.381,0.314 0.362,0.514 0.362,0.514 0,0 -0.407,0.129 -0.804,0.376 -0.397,0.247 -0.494,0.585 -0.494,0.585 0,0 -0.122,-0.034 -0.13,-0.192 -0.008,-0.159 0.013,-0.201 -0.043,-0.261 -0.057,-0.061 -0.271,-0.01 -0.322,-0.088 -0.051,-0.079 0.003,-0.208 -0.041,-0.371 -0.045,-0.163 -0.135,-0.167 -0.135,-0.167 0,0 0.021,0.263 -0.212,0.263 -0.234,0 -0.278,-0.19 -0.278,-0.19 0,0 0.237,-0.041 0.321,-0.151 0.084,-0.11 -0.084,-0.475 -0.084,-0.475 0,0 0.025,-0.064 0.041,-0.139 0.015,-0.074 -0.01,-0.143 -0.01,-0.143 0,0 -0.053,0.014 -0.108,0.059 -0.055,0.045 -0.076,0.104 -0.076,0.104 0,0 -0.096,-0.053 -0.189,-0.024 -0.092,0.03 -0.217,0.236 -0.292,0.214 -0.074,-0.021 0.031,-0.163 0.004,-0.431 -0.027,-0.269 -0.317,-0.212 -0.317,-0.212 0,0 0.037,-0.077 0.052,-0.139 0.016,-0.063 0.01,-0.155 0.01,-0.155 0,0 -0.096,0.008 -0.233,0.215 -0.137,0.208 -0.159,0.295 -0.151,0.365 0.008,0.071 0.082,0.155 0.082,0.155 0,0 -0.056,-0.037 -0.117,0.002 -0.061,0.039 -0.126,0.049 -0.143,0.016 -0.018,-0.034 0.084,-0.155 0.084,-0.155 0,0 -0.225,0.008 -0.263,0.309 -0.038,0.3 0.092,0.397 0.092,0.397 0,0 -0.01,-0.007 -0.042,-0.002 -0.034,0.004 -0.05,0.018 -0.05,0.018 0,0 -0.028,-0.022 -0.059,-0.089 -0.029,-0.067 -0.034,-0.154 -0.034,-0.154 0,0 -0.062,0.051 -0.067,0.16 -0.004,0.11 0.031,0.146 0.031,0.146 0,0 -0.053,0.245 0.036,0.356 0.089,0.111 0.313,0.08 0.338,0.066 0.024,-0.014 0.141,-0.159 0.22,-0.159 0.08,0 0.194,0.373 0.233,0.418 0.039,0.045 0.136,0.005 0.245,0.167 0.11,0.163 0.185,0.749 0.245,0.924 0.061,0.174 0.14,0.29 0.14,0.29 0,0 -0.03,0.047 -0.052,0.108 -0.021,0.06 -0.015,0.166 -0.015,0.166 0,0 -0.208,0.116 -0.339,0.141 -0.132,0.026 -0.212,-0.072 -0.212,-0.072 0,0 0.004,0.141 -0.047,0.202 -0.051,0.061 -0.163,0.033 -0.163,0.033 0,0 -0.026,0.057 -0.08,0.13 -0.055,0.072 -0.107,0.114 -0.107,0.114 l 0,1.713 -0.944,0 z"/></g></g></g></g></svg>