<svg xmlns="http://www.w3.org/2000/svg" viewBox="0 0 45 45"><path fill="#38a6ff" d="m 45,33.75 c 0,2.76125 -2.23875,5 -5,5 H 5 c -2.76125,0 -5,-2.23875 -5,-5 v -22.5 c 0,-2.76125 2.23875,-5 5,-5 h 35 c 2.76125,0 5,2.23875 5,5 z"/><path fill="#0202ff" d="m 23.267375,28.270125 c -0.615,0 -0.7675,0.67625 -0.7675,0.67625 v -6.24125 h 3.3 c 0,0.98875 1.0825,1.18875 1.0825,1.18875 v 2.53125 c 0,0.51 -0.35,0.9225 -0.7825,0.9225 0,0.51 -0.35,0.9225 -0.7825,0.9225 z"/><path fill="#17fb08" d="m 22.499875,25.490125 v 3.46 c 0,0 -0.15,-0.68 -0.77,-0.68 h -2.05 c -0.43,0 -0.78,-0.41 -0.78,-0.92 -0.43,0 -0.78,-0.42 -0.78,-0.93 v -0.93 z"/><path fill="#aca6a8" d="m 22.499875,22.710125 v 2.78 h -4.38 v -1.6 c 0,0 1.08,-0.2 1.08,-1.18 z"/><path fill="#ffff04" d="m 22.499875,17.870125 c 2.625,0 4.15875,-0.765 4.15875,-0.765 l 0.61125,0.765 -0.3875,0.50625 v 3.14125 c 0,0 -1.0825,0.2 -1.0825,1.18875 h -3.3 z"/><path fill="#ff0103" d="m 22.499875,17.870125 c -2.625,0 -4.15875,-0.765 -4.15875,-0.765 l -0.61125,0.765 0.38875,0.50625 v 3.14125 c 0,0 1.0825,0.2 1.0825,1.18875 h 3.3 v -4.83625 z"/><path fill="#b70712" d="m 24.089875,20.750125 v 3.22 c 0,0 0.02,0.53 -0.62,0.53 -0.97,0 -0.97,0.48 -0.97,0.48 0,0 0,-0.48 -0.97,-0.48 -0.64,0 -0.62,-0.53 -0.62,-0.53 v -3.22 z"/><path fill="#aca6a8" d="m 27.019875,14.110125 -0.58,0.31 c -0.4,0.74 -0.57,1.74 -0.55,2.97 0,0 -1.81,-0.49 -3.39,-0.49 -1.58,0 -3.39,0.49 -3.39,0.49 0.02,-1.23 -0.15,-2.23 -0.55,-2.97 l -0.58,-0.31 0.14,-0.47 0.88,-0.28 0.41,0.2 -0.23,0.83 c 0.97,-0.23 2.01,-0.33 2.89,-0.36 v -1.07 h -0.36 v -0.81 h 1.58 v 0.81 h -0.36 v 1.07 c 0.88,0.03 1.92,0.13 2.89,0.36 l -0.23,-0.83 0.41,-0.2 0.88,0.28 z"/><path fill="#b86225" d="m 28.852375,20.570125 c 0,0 0,9.40625 0,9.9475 0,0.54125 0.9,1.14125 1.48875,0.9525 0.46,-0.1475 0.735,-0.765 0.10625,-0.765 -0.17375,0 -0.31625,0.06375 -0.22625,0.18 0.07125,0.09125 0.34,0.1325 0.34,0.1325 0,0 -0.435,0.2075 -0.635,-0.11125 -0.21125,-0.3375 0.18875,-0.51375 0.5175,-0.51375 0.65875,0 0.935,0.85 0.32125,1.21875 -0.8475,0.51 -1.5775,-0.08 -1.5775,-0.08 h -1.14 c 0,0 0.49875,-0.45 0.49875,-1.0125 0,-0.5625 0,-9.94875 0,-9.94875 z m -12.705,0 c 0,0 0,9.40625 0,9.9475 0,0.54125 -0.9,1.14125 -1.48875,0.9525 -0.46,-0.1475 -0.735,-0.765 -0.10625,-0.765 0.17375,0 0.31625,0.06375 0.22625,0.18 -0.07125,0.09125 -0.34,0.1325 -0.34,0.1325 0,0 0.435,0.2075 0.635,-0.11125 0.21125,-0.3375 -0.18875,-0.51375 -0.5175,-0.51375 -0.65875,0 -0.935,0.85 -0.32125,1.21875 0.8475,0.51 1.5775,-0.08 1.5775,-0.08 h 1.14 c 0,0 -0.49875,-0.45 -0.49875,-1.0125 0,-0.5625 0,-9.94875 0,-9.94875 z"/><path fill="#207b38" d="m 27.891125,19.750125 c -0.71875,-0.625 -0.62,-1.625 -0.62,-1.625 0.605,0.0075 0.895,-0.6825 1.0575,-1.65625 0.44625,1.13875 0.84375,1.63 1.14,0.925 0.085,0.935 0.3875,1.36375 0.95375,1.16875 -0.1725,1.34375 -0.72875,2.1875 -1.67125,2.53125 -0.0012,0 -0.14125,-0.71875 -0.86,-1.34375 z m -10.78125,0 c 0.71875,-0.625 0.62,-1.625 0.62,-1.625 -0.605,0.0075 -0.895,-0.6825 -1.0575,-1.65625 -0.44625,1.13875 -0.84375,1.63 -1.14,0.925 -0.085,0.935 -0.3875,1.36375 -0.9525,1.16875 0.17125,1.34375 0.72875,2.1875 1.67125,2.53125 -0.0012,0 0.14,-0.71875 0.85875,-1.34375 z"/><path fill="#ffffff" d="m 30.849875,28.520125 h -1.49 c 0,0 -0.29,0.86 -1.1,1.8 -0.83,0.96 -1.79,1.54 -1.79,1.54 l -0.53,-0.44 c 0,0 -1.79,0.54 -3.44,0.54 -1.65,0 -3.44,-0.54 -3.44,-0.54 l -0.53,0.44 c 0,0 -0.96,-0.58 -1.79,-1.54 -0.81,-0.94 -1.1,-1.8 -1.1,-1.8 h -1.49 c -0.04,-0.73 0.13,-1.42 0.45,-2.1 0,0 -0.21,-1.67 0.09,-1.93 0.31,-0.25 0.89,-0.09 0.89,-0.09 0,0 0.6,-0.96 1.22,-0.05 1.01,1.48 -0.47,2.52 -0.47,2.52 0,0 0.2,0.58 0.81,1.5 0.61,0.93 1.36,1.63 1.36,1.63 l 0.47,-0.37 c 0,0 2.48,0.75 3.53,0.75 1.05,0 3.53,-0.76 3.53,-0.76 l 0.47,0.38 c 0,0 0.75,-0.7 1.36,-1.62 0.61,-0.93 0.81,-1.5 0.81,-1.5 0,0 -1.48,-1.05 -0.47,-2.53 0.62,-0.91 1.22,0.05 1.22,0.05 0,0 0.58,-0.16 0.89,0.09 0.3,0.26 0.09,1.93 0.09,1.93 0.32,0.68 0.49,1.37 0.45,2.1 z"/></svg>