<svg xmlns="http://www.w3.org/2000/svg" viewBox="0 0 45 45"><path fill="#01c300" d="m 45,22.5 v 11.25 c 0,2.76125 -2.23875,5 -5,5 H 5 c -2.76125,0 -5,-2.23875 -5,-5 V 22.49875 Z"/><path fill="#ffff00" d="M 0,22.49875 V 11.25 c 0,-2.76125 2.23875,-5 5,-5 h 35 c 2.76125,0 5,2.23875 5,5 V 22.5 Z"/><path fill="#02c401" d="m 7.404875,21.768875 c -3.00125,0 -5.4425,-2.44125 -5.4425,-5.4425 v -7.7225 h 1.2175 v -0.1875 h -0.5425 v -1.0625 h 2.83375 v 0.5625 h 0.4375 v -0.5625 h 2.99125 v 0.5625 h 0.4375 v -0.5625 h 2.83375 v 1.0625 h -0.54125 v 0.1875 h 1.2175 v 7.7225 c -0.0012,3.00125 -2.4425,5.4425 -5.4425,5.4425 z"/><path fill="#ffffff" d="m 7.404875,21.518875 c -2.8675,0 -5.1925,-2.325 -5.1925,-5.1925 v -7.4725 h 1.2175 v -0.6875 h -0.54125 v -0.5625 h 2.33375 v 0.5625 h 0.9375 v -0.5625 h 2.49125 v 0.5625 h 0.9375 v -0.5625 h 2.33375 v 0.5625 h -0.54125 v 0.6875 h 1.2175 v 7.4725 c -0.0025,2.8675 -2.32625,5.1925 -5.19375,5.1925 z"/><path fill="#02c401" d="m 3.612375,16.326375 c 0,2.09375 1.6975,3.79125 3.79125,3.79125 2.09375,0 3.79125,-1.6975 3.79125,-3.79125 v -5.41 h -7.58375 v 5.41 z"/></svg>