<svg xmlns:dc="http://purl.org/dc/elements/1.1/" xmlns:cc="http://creativecommons.org/ns#" xmlns:rdf="http://www.w3.org/1999/02/22-rdf-syntax-ns#" xmlns:svg="http://www.w3.org/2000/svg" xmlns="http://www.w3.org/2000/svg" viewBox="0 0 45 45" style="enable-background:new 0 0 45 45;" xml:space="preserve" version="1.1" id="svg2"><metadata id="metadata8"><rdf:RDF><cc:Work rdf:about=""><dc:format>image/svg+xml</dc:format><dc:type rdf:resource="http://purl.org/dc/dcmitype/StillImage"/></cc:Work></rdf:RDF></metadata><defs id="defs6"><clipPath id="clipPath16" clipPathUnits="userSpaceOnUse"><path id="path18" d="M 4,31 C 1.791,31 0,29.209 0,27 L 0,27 0,9 C 0,6.791 1.791,5 4,5 l 0,0 28,0 c 2.209,0 4,1.791 4,4 l 0,0 0,18 c 0,2.209 -1.791,4 -4,4 l 0,0 -28,0 z"/></clipPath></defs><g transform="matrix(1.25,0,0,-1.25,0,45)" id="g10"><g id="g12"><g xmlns="http://www.w3.org/2000/svg" clip-path="url(#clipPath16)" id="g14"><path id="path20" style="fill:#002a86;fill-opacity:1;fill-rule:nonzero;stroke:none" d="M 0,5 36,5 36,31 0,31 0,5 z"/><g id="g30"><path id="path30" style="fill:#ffd90f;fill-opacity:1;fill-rule:nonzero;stroke:none" d="m 7.0688,26.6528 0.602,-1.807 0.598,1.807 0.634,0 0,-2.492 -0.484,0 0,0.681 0.048,1.176 -0.632,-1.857 -0.332,0 -0.63,1.855 0.048,-1.174 0,-0.681 -0.483,0 0,2.492 0.631,0 z"/><path id="path31" style="fill:#ffd90f;fill-opacity:1;fill-rule:nonzero;stroke:none" d="m 11.9648,25.4634 c 0,0.261 -0.044,0.46 -0.132,0.596 -0.088,0.135 -0.213,0.203 -0.376,0.203 -0.162,0 -0.287,-0.067 -0.375,-0.201 -0.088,-0.134 -0.133,-0.33 -0.134,-0.589 l 0,-0.122 c 0,-0.254 0.044,-0.451 0.132,-0.592 0.088,-0.14 0.215,-0.211 0.38,-0.211 0.162,0 0.286,0.068 0.373,0.203 0.087,0.135 0.131,0.333 0.132,0.591 l 0,0.122 z m 0.489,-0.113 c 0,-0.245 -0.041,-0.46 -0.122,-0.645 -0.082,-0.185 -0.198,-0.327 -0.35,-0.428 -0.152,-0.1 -0.326,-0.15 -0.522,-0.15 -0.194,0 -0.368,0.049 -0.52,0.149 -0.152,0.099 -0.27,0.24 -0.353,0.425 -0.084,0.184 -0.126,0.396 -0.128,0.636 l 0,0.123 c 0,0.245 0.042,0.461 0.125,0.648 0.083,0.186 0.2,0.329 0.352,0.429 0.152,0.1 0.325,0.15 0.521,0.15 0.195,0 0.368,-0.05 0.52,-0.15 0.152,-0.1 0.269,-0.243 0.352,-0.429 0.084,-0.187 0.125,-0.402 0.125,-0.646 l 0,-0.112 z"/><path id="path32" style="fill:#ffd90f;fill-opacity:1;fill-rule:nonzero;stroke:none" d="m 15.9155,24.1611 -0.482,0 -0.94,1.64 0,-1.64 -0.483,0 0,2.492 0.483,0 0.941,-1.643 0,1.643 0.481,0 0,-2.492 z"/><path id="path33" style="fill:#ffd90f;fill-opacity:1;fill-rule:nonzero;stroke:none" d="m 19.2598,26.2373 -0.717,0 0,-2.076 -0.484,0 0,2.076 -0.707,0 0,0.416 1.908,0 0,-0.416 z"/><path id="path34" style="fill:#ffd90f;fill-opacity:1;fill-rule:nonzero;stroke:none" d="m 21.1543,25.0903 0.586,0 -0.295,0.933 -0.291,-0.933 z m 0.716,-0.416 -0.846,0 -0.161,-0.513 -0.513,0 0.871,2.491 0.448,0 0.877,-2.491 -0.513,0 -0.163,0.513 z"/><path id="path35" style="fill:#ffd90f;fill-opacity:1;fill-rule:nonzero;stroke:none" d="m 25.876,24.1611 -0.483,0 -0.94,1.64 0,-1.64 -0.482,0 0,2.492 0.482,0 0.942,-1.643 0,1.643 0.481,0 0,-2.492 z"/><path id="path36" style="fill:#ffd90f;fill-opacity:1;fill-rule:nonzero;stroke:none" d="m 28.1377,25.0903 0.586,0 -0.295,0.933 -0.291,-0.933 z m 0.716,-0.416 -0.846,0 -0.161,-0.513 -0.513,0 0.871,2.491 0.448,0 0.877,-2.491 -0.513,0 -0.163,0.513 z"/></g><g id="g32"><path id="path40" style="fill:#ffd90f;fill-opacity:1;fill-rule:nonzero;stroke:none" d="m 24.5322,15.7178 c 0,-3.607 -2.925,-6.532 -6.532,-6.532 -3.608,0 -6.532,2.925 -6.532,6.532 0,3.607 2.924,6.532 6.532,6.532 3.607,0 6.532,-2.925 6.532,-6.532"/><path id="path41" style="fill:#a2d100;fill-opacity:1;fill-rule:nonzero;stroke:none" d="m 12.1113,13.4814 2.232,-2.892 c 1.031,-0.736 2.293,-1.17 3.657,-1.17 2.184,0 4.109,1.113 5.238,2.802 l -2.903,2.275 -2.659,1.004 -2.929,0.329 -3.044,10e-4 c -0.001,-0.038 -0.001,-0.076 -0.001,-0.113 0,-0.788 0.144,-1.542 0.409,-2.236"/><path id="path42" style="fill:#e86f00;fill-opacity:1;fill-rule:nonzero;stroke:none" d="m 14.3438,10.5898 c -1.003,0.716 -1.788,1.722 -2.233,2.892 l 2.53,-0.404 0.459,-0.543 1.065,-0.111 0.523,-1.127 -2.344,-0.707 z"/><path id="path43" style="fill:#1691ff;fill-opacity:1;fill-rule:nonzero;stroke:none" d="m 24.2939,15.498 c -0.042,-1.21 -0.425,-2.334 -1.056,-3.276 l -0.926,0.101 -0.456,0.549 -0.948,0.361 -0.573,1.263 -1.662,0.471 -0.997,0.533 6.618,-0.002 z"/><path id="path44" style="fill:#a8efff;fill-opacity:1;fill-rule:nonzero;stroke:none" d="m 24.2305,16.6426 -7.375,0 0.821,-1.143 6.617,-0.002 c 0.002,0.074 0.004,0.146 0.004,0.22 0,0.314 -0.023,0.623 -0.067,0.925"/><path id="path45" style="fill:#e8d9a8;fill-opacity:1;fill-rule:nonzero;stroke:none" d="m 21.2061,18.0884 -0.737,-0.149 -1.255,-0.361 -2.048,-0.282 2.511,0.086 2.494,0.306 -0.965,0.4 z"/><path id="path46" style="fill:#a81800;fill-opacity:1;fill-rule:nonzero;stroke:none" d="m 24.2305,16.6426 -7.375,0 -0.267,0.372 0.578,0.281 2.51,0.087 -0.463,0.196 1.255,0.361 1.702,-0.251 -0.964,0.4 1.167,0.371 1.161,0.266 c 0.346,-0.637 0.587,-1.338 0.696,-2.083"/><path id="path47" style="fill:#e8d9a8;fill-opacity:1;fill-rule:nonzero;stroke:none" d="m 11.7031,15.8301 3.044,-10e-4 2.929,-0.329 -1.976,2.753 -0.612,-0.455 -0.941,1.38 -0.643,-0.761 -0.73,0.817 c -0.657,-0.975 -1.049,-2.145 -1.071,-3.404"/><path id="path48" style="fill:#ffffff;fill-opacity:1;fill-rule:nonzero;stroke:none" d="m 14.9219,19.6782 0.475,-1.264 0.311,0.182 -0.466,1.223 -0.32,-0.141 z"/><path id="path49" style="fill:#ffffff;fill-opacity:1;fill-rule:nonzero;stroke:none" d="m 15.5454,20.0483 0.361,0.105 0.312,-1.442 -0.321,-0.1 -0.352,1.437 z"/><path id="path50" style="fill:#ffffff;fill-opacity:1;fill-rule:nonzero;stroke:none" d="m 16.4248,20.2563 -0.051,-1.564 0.287,-0.096 0.094,1.632 -0.33,0.028 z"/><path id="path51" style="fill:#ffffff;fill-opacity:1;fill-rule:nonzero;stroke:none" d="m 17.5093,19.6533 0.164,-0.299 -0.834,-1.076 -0.103,0.24 0.773,1.135 z"/><path id="path52" style="fill:#ffffff;fill-opacity:1;fill-rule:nonzero;stroke:none" d="m 18.0532,18.8076 0.006,-0.342 -1.089,-0.541 -0.05,0.221 1.133,0.662 z"/><path id="path53" style="fill:#ffffff;fill-opacity:1;fill-rule:nonzero;stroke:none" d="m 18.0596,18.1265 0.019,-0.28 -1.093,-0.293 0,0.234 1.074,0.339 z"/><path id="path54" style="fill:#a89982;fill-opacity:1;fill-rule:nonzero;stroke:none" d="m 19.8291,12.5469 -2.011,0 0.564,0.871 1.447,0 0,-0.871 z"/><path id="path55" style="fill:#354600;fill-opacity:1;fill-rule:nonzero;stroke:none" d="m 20.3945,15.2646 0.435,-0.588 -1.471,-1.259 -0.976,0 -0.238,-0.367 -2.574,0 0,0.673 2.988,0 1.836,1.541 z"/><path id="path56" style="fill:#008600;fill-opacity:1;fill-rule:nonzero;stroke:none" d="m 13.3706,15.5781 c 0,-0.269 -0.206,-0.486 -0.459,-0.486 -0.253,0 -0.458,0.217 -0.458,0.486 0,0.269 0.205,0.486 0.458,0.486 0.253,0 0.459,-0.217 0.459,-0.486"/><path id="path57" style="fill:#008600;fill-opacity:1;fill-rule:nonzero;stroke:none" d="m 13.3706,14.418 c 0,-0.172 -0.115,-0.311 -0.257,-0.311 -0.142,0 -0.257,0.139 -0.257,0.311 0,0.171 0.115,0.31 0.257,0.31 0.142,0 0.257,-0.139 0.257,-0.31"/><path id="path58" style="fill:#008600;fill-opacity:1;fill-rule:nonzero;stroke:none" d="m 13.8296,15.249 c 0,-0.182 -0.091,-0.329 -0.202,-0.329 -0.111,0 -0.202,0.147 -0.202,0.329 0,0.182 0.091,0.329 0.202,0.329 0.111,0 0.202,-0.147 0.202,-0.329"/><path id="path59" style="fill:#008600;fill-opacity:1;fill-rule:nonzero;stroke:none" d="m 14.4331,15.2393 c 0,-0.177 -0.103,-0.319 -0.229,-0.319 -0.127,0 -0.229,0.142 -0.229,0.319 0,0.177 0.102,0.319 0.229,0.319 0.126,0 0.229,-0.142 0.229,-0.319"/><path id="path60" style="fill:#008600;fill-opacity:1;fill-rule:nonzero;stroke:none" d="m 14.1392,14.3721 c 0,-0.159 -0.093,-0.288 -0.208,-0.288 -0.115,0 -0.208,0.129 -0.208,0.288 0,0.159 0.093,0.289 0.208,0.289 0.115,0 0.208,-0.13 0.208,-0.289"/><path id="path61" style="fill:#008600;fill-opacity:1;fill-rule:nonzero;stroke:none" d="m 14.7939,14.3564 c 0,-0.133 -0.096,-0.241 -0.213,-0.241 -0.119,0 -0.214,0.108 -0.214,0.241 0,0.134 0.095,0.241 0.214,0.241 0.117,0 0.213,-0.107 0.213,-0.241"/><path id="path62" style="fill:#008600;fill-opacity:1;fill-rule:nonzero;stroke:none" d="m 14.9824,15.2627 c 0,-0.174 -0.084,-0.315 -0.188,-0.315 -0.104,0 -0.188,0.141 -0.188,0.315 0,0.175 0.084,0.315 0.188,0.315 0.104,0 0.188,-0.14 0.188,-0.315"/><path id="path63" style="fill:#008600;fill-opacity:1;fill-rule:nonzero;stroke:none" d="m 15.7588,15.5879 c 0,-0.282 -0.163,-0.512 -0.365,-0.512 -0.201,0 -0.364,0.23 -0.364,0.512 0,0.283 0.163,0.512 0.364,0.512 0.202,0 0.365,-0.229 0.365,-0.512"/><path id="path64" style="fill:#008600;fill-opacity:1;fill-rule:nonzero;stroke:none" d="m 16.7002,15.5625 c 0,-0.269 -0.181,-0.486 -0.404,-0.486 -0.223,0 -0.404,0.217 -0.404,0.486 0,0.269 0.181,0.486 0.404,0.486 0.223,0 0.404,-0.217 0.404,-0.486"/></g></g></g></g></svg>