<svg xmlns:dc="http://purl.org/dc/elements/1.1/" xmlns:cc="http://creativecommons.org/ns#" xmlns:rdf="http://www.w3.org/1999/02/22-rdf-syntax-ns#" xmlns:svg="http://www.w3.org/2000/svg" xmlns="http://www.w3.org/2000/svg" viewBox="0 0 45 45" style="enable-background:new 0 0 45 45;" xml:space="preserve" version="1.1" id="svg2"><metadata id="metadata8"><rdf:RDF><cc:Work rdf:about=""><dc:format>image/svg+xml</dc:format><dc:type rdf:resource="http://purl.org/dc/dcmitype/StillImage"/></cc:Work></rdf:RDF></metadata><defs id="defs6"><clipPath id="clipPath16" clipPathUnits="userSpaceOnUse"><path id="path18" d="M 0,36 36,36 36,0 0,0 0,36 Z"/></clipPath></defs><g transform="matrix(1.25,0,0,-1.25,0,45)" id="g10"><g id="g12"><g xmlns="http://www.w3.org/2000/svg" clip-path="url(#clipPath16)" id="g14"><g id="g30"><path id="path20" style="fill:#eeeeee;fill-opacity:1;fill-rule:nonzero;stroke:none" d="M 32,31 4,31 C 1.791,31 0,29.209 0,27 L 0,9 C 0,6.791 1.791,5 4,5 l 28,0 c 2.209,0 4,1.791 4,4 l 0,18 c 0,2.209 -1.791,4 -4,4"/></g><g id="g34"><path id="path30" style="fill:#4bb131;fill-opacity:1;fill-rule:nonzero;stroke:none" d="m 18.0898,9.4727 c 0,0 0.333,0.437 0.547,0.5 0.122,0.035 0.264,0.027 0.264,0.027 l 2.099,0 c 0,0 0.291,-0.05 0.532,0.166 0.19,0.172 0.14,0.54 0.14,0.54 l 0,0.638 c 0,0 -0.678,0.286 -1.242,0.286 -0.566,0 -1.083,-0.235 -1.083,-0.235 0,0 -0.49,0.329 -1.257,0.329 -0.766,0 -1.257,-0.329 -1.257,-0.329 0,0 -0.517,0.235 -1.082,0.235 -0.565,0 -1.243,-0.286 -1.243,-0.286 l 0,-0.638 c 0,0 -0.049,-0.368 0.141,-0.54 0.241,-0.216 0.531,-0.166 0.531,-0.166 l 2.1,0 c 0,0 0.142,0.008 0.263,-0.027 0.214,-0.063 0.547,-0.5 0.547,-0.5"/><path id="path31" style="fill:#005ca1;fill-opacity:1;fill-rule:nonzero;stroke:none" d="m 18.0898,11.7236 c 0.767,0 1.257,-0.329 1.257,-0.329 0,0 0.517,0.235 1.083,0.235 0.564,0 1.242,-0.286 1.242,-0.286 l 0,6.953 -7.164,0 0,-6.953 c 0,0 0.678,0.286 1.243,0.286 0.565,0 1.082,-0.235 1.082,-0.235 0,0 0.491,0.329 1.257,0.329"/><path id="path32" style="fill:#d8d8d8;fill-opacity:1;fill-rule:nonzero;stroke:none" d="m 23.209,13.1797 c 0,0 -0.145,0.094 -0.145,0.235 0,0.141 0.126,0.187 0.294,0.202 0.169,0.017 0.197,0.07 0.191,0.126 -0.006,0.057 -0.065,0.079 -0.065,0.079 0,0 0.125,0.124 0.234,0 0.107,-0.123 0.09,-0.304 0.09,-0.304 0,0 0.056,0.408 0.441,0.608 0.215,0.112 0.504,0.073 0.606,-0.098 0.106,-0.178 -0.09,-0.22 -0.09,-0.22 0,0 -0.075,0.109 -0.161,0.059 -0.088,-0.049 0,-0.14 -0.037,-0.278 -0.036,-0.138 -0.273,-0.259 -0.273,-0.259 0,0 0.312,0.121 0.392,-0.028 0.038,-0.071 -0.019,-0.166 -0.066,-0.184 -0.051,-0.02 -0.095,0.041 -0.095,0.041 0,0 -0.109,-0.021 -0.093,-0.204 0.019,-0.252 -0.237,-0.356 -0.237,-0.356 0,0 0.172,0.047 0.247,-0.046 0.095,-0.117 -0.081,-0.188 -0.081,-0.188 0,0 0.008,0.123 -0.108,0.099 -0.115,-0.023 -0.107,-0.27 -0.31,-0.315 -0.12,-0.027 -0.492,0.041 -0.492,0.041 0,0 0.476,-0.161 0.219,-0.51 -0.12,-0.163 -0.311,-0.112 -0.378,0.01 -0.051,0.092 0.03,0.159 0.03,0.159 0,0 0.181,-0.081 0.207,0.052 0.028,0.133 -0.146,0.232 -0.323,0.196 -0.177,-0.036 -0.437,-0.031 -0.575,0.106 -0.137,0.138 -0.123,0.393 -0.123,0.393 0,0 -0.271,0.122 -0.475,0.35 -0.204,0.227 -0.26,0.678 -0.26,0.678 0,0 0.392,-0.594 0.791,-0.7 0.401,-0.106 0.645,0.256 0.645,0.256"/><path id="path33" style="fill:#f9c400;fill-opacity:1;fill-rule:nonzero;stroke:none" d="m 12.791,13.1797 c 0,0 0.144,0.094 0.144,0.235 0,0.141 -0.125,0.187 -0.294,0.202 -0.168,0.017 -0.196,0.07 -0.19,0.126 0.006,0.057 0.065,0.079 0.065,0.079 0,0 -0.126,0.124 -0.234,0 -0.108,-0.123 -0.09,-0.304 -0.09,-0.304 0,0 -0.057,0.408 -0.441,0.608 -0.215,0.112 -0.504,0.073 -0.606,-0.098 -0.106,-0.178 0.09,-0.22 0.09,-0.22 0,0 0.075,0.109 0.162,0.059 0.087,-0.049 0,-0.14 0.036,-0.278 0.036,-0.138 0.273,-0.259 0.273,-0.259 0,0 -0.312,0.121 -0.392,-0.028 -0.038,-0.071 0.019,-0.166 0.066,-0.184 0.051,-0.02 0.095,0.041 0.095,0.041 0,0 0.108,-0.021 0.094,-0.204 -0.021,-0.252 0.236,-0.356 0.236,-0.356 0,0 -0.172,0.047 -0.247,-0.046 -0.096,-0.117 0.081,-0.188 0.081,-0.188 0,0 -0.008,0.123 0.108,0.099 0.115,-0.023 0.107,-0.27 0.309,-0.315 0.121,-0.027 0.492,0.041 0.492,0.041 0,0 -0.475,-0.161 -0.218,-0.51 0.12,-0.163 0.311,-0.112 0.378,0.01 0.051,0.092 -0.03,0.159 -0.03,0.159 0,0 -0.181,-0.081 -0.208,0.052 -0.026,0.133 0.147,0.232 0.324,0.196 0.176,-0.036 0.437,-0.031 0.575,0.106 0.137,0.138 0.123,0.393 0.123,0.393 0,0 0.271,0.122 0.475,0.35 0.203,0.227 0.26,0.678 0.26,0.678 0,0 -0.392,-0.594 -0.792,-0.7 -0.4,-0.106 -0.644,0.256 -0.644,0.256"/><path id="path34" style="fill:#d8d8d8;fill-opacity:1;fill-rule:nonzero;stroke:none" d="m 20.1768,18.2236 c 0,0 -0.121,0.065 -0.28,0.229 -0.181,0.187 -0.261,0.361 -0.261,0.361 0,0 0.02,-0.108 0.088,-0.245 0.045,-0.092 0.012,-0.204 0.012,-0.204 0,0 -0.071,0.014 -0.193,0.122 -0.121,0.108 -0.14,0.182 -0.14,0.182 l -0.037,-0.182 c 0,0 -0.162,0.052 -0.301,0.216 -0.139,0.162 -0.116,0.574 -0.116,0.574 l 0.366,2.174 c 0,0 0.987,0.036 1.152,0.365 0.165,0.329 -0.167,0.445 -0.167,0.445 0,0 -0.245,0.019 -0.245,-0.125 0,-0.099 0.1,-0.137 0.1,-0.137 0,0 -0.103,-0.107 -0.244,-0.041 -0.186,0.088 -0.014,0.26 -0.014,0.26 0,0 -0.316,-0.086 -0.316,0.159 0,0.328 0.346,0.344 0.346,0.344 0,0 -0.32,0.122 -0.32,0.417 0,0.295 0.194,0.378 0.266,0.37 0.153,-0.015 0.136,-0.16 0.2,-0.214 0.055,-0.045 0.136,0.022 0.253,-0.019 0.11,-0.037 0.211,-0.135 0.211,-0.135 0,0 -0.464,0.498 -0.045,1.211 0.42,0.714 0.633,0.09 0.633,0.09 0,0 -0.207,0.128 -0.232,-0.147 -0.023,-0.234 0.241,-0.345 0.375,-0.703 0.123,-0.331 -0.018,-0.677 -0.018,-0.677 0,0 0.11,0.185 0.28,0.185 0.17,0 0.187,-0.096 0.25,-0.022 0.029,0.034 0.016,0.088 -0.016,0.106 -0.037,0.022 -0.098,0.005 -0.098,0.005 0,0 -0.007,0.114 0.181,0.034 0.187,-0.08 -0.011,-0.295 -0.011,-0.295 0,0 0.094,0.067 0.195,0.053 0.102,-0.014 0.147,0.055 0.147,0.055 0,0 0.172,-0.113 0.148,-0.28 -0.035,-0.262 -0.462,-0.37 -0.462,-0.37 0,0 -0.685,-0.108 -0.881,-0.579 -0.197,-0.47 -0.483,-0.549 -0.483,-0.549 0,0 0.899,-0.231 1.405,0.047 0.221,0.123 0.401,0.245 0.368,0.627 -0.033,0.381 0.019,0.62 0.019,0.62 0,0 0.011,0.022 0.023,0.037 0.01,0.015 0.026,0.028 0.026,0.028 0,0 -0.013,-0.059 0.075,-0.045 0.117,0.018 0.164,-0.218 0.164,-0.218 0,0 0.071,0.055 0,0.188 -0.07,0.133 -0.154,0.344 0.076,0.537 0.217,0.183 0.432,0.002 0.432,0.002 0,0 -0.218,-0.098 -0.062,-0.323 0.154,-0.225 0.234,-0.289 0.234,-0.389 0,-0.101 -0.119,-0.189 -0.119,-0.189 0,0 0.225,0.063 0.302,-0.074 0.125,-0.223 -0.062,-0.278 -0.062,-0.278 0,0 -0.031,0.147 -0.134,0.097 -0.127,-0.063 -0.015,-0.28 -0.245,-0.528 -0.324,-0.35 -0.903,-0.471 -0.903,-0.471 0,0 0.689,-0.254 1.319,0.458 0.629,0.712 0.074,1.168 0.074,1.168 0,0 -0.258,0.161 -0.282,0.31 -0.025,0.165 0.088,0.294 0.022,0.33 -0.067,0.035 -0.1,-0.002 -0.1,-0.002 0,0 -0.023,0.165 0.139,0.219 0.117,0.039 0.196,0.022 0.196,0.022 0,0 -0.149,0.482 0.239,0.776 0.388,0.294 0.577,-0.105 0.577,-0.105 0,0 -0.337,0.07 -0.402,-0.235 -0.063,-0.305 0.304,-0.565 0.51,-0.777 0.302,-0.312 0.201,-0.689 0.201,-0.689 0,0 0.198,0.153 0.397,0.114 0.198,-0.039 0.271,-0.265 0.262,-0.414 -0.012,-0.196 -0.3,-0.235 -0.3,-0.235 0,0 -0.018,0.165 -0.126,0.153 -0.091,-0.01 -0.104,-0.105 -0.097,-0.206 0.039,-0.621 -0.428,-0.794 -0.428,-0.794 0,0 0.208,0.004 0.153,-0.204 -0.044,-0.165 -0.214,-0.147 -0.214,-0.147 0,0 0.057,0.082 -0.046,0.123 -0.105,0.042 -0.121,-0.126 -0.44,-0.364 -0.342,-0.256 -0.693,-0.401 -1.029,-0.47 -0.665,-0.135 -1.226,0.005 -1.226,0.005 0,0 -0.087,-0.461 1.372,-0.578 1.171,-0.095 0.975,0.851 0.975,0.851 0,0 -0.041,0.143 0.075,0.143 0.115,0 0.186,-0.082 0.216,-0.159 0.051,-0.133 -0.017,-0.259 -0.017,-0.259 0,0 0.311,0.209 0.529,0.794 0.216,0.586 1.51,0.289 1.5,-0.606 -0.01,-0.801 0.214,-0.757 0.214,-0.757 0,0 0.027,0.01 0.066,0.045 0.039,0.034 0.059,0.059 0.059,0.059 0,0 -0.068,0.06 -0.068,0.124 0,0.064 0.069,0.11 0.193,0.11 0.123,0 0.162,-0.064 0.162,-0.117 0,-0.078 -0.042,-0.158 -0.042,-0.158 0,0 0.157,0.169 0.278,0.169 0.12,0 0.188,-0.139 0.188,-0.234 0,-0.153 -0.172,-0.167 -0.172,-0.167 0,0 0.029,0.11 -0.063,0.11 -0.093,0 -0.07,-0.095 -0.113,-0.17 -0.042,-0.075 -0.154,-0.158 -0.34,-0.139 -0.134,0.014 -0.215,0.139 -0.215,0.139 0,0 -0.246,-0.042 -0.396,0.213 -0.151,0.254 -0.008,0.5 -0.008,0.5 0,0 0.174,0.317 -0.229,0.25 -0.402,-0.067 -0.279,0.282 -0.279,0.282 0,0 0.193,0.043 0.102,0.205 -0.092,0.163 -0.319,0.016 -0.308,-0.137 0.031,-0.449 -0.169,-0.55 -0.169,-0.55 0,0 0.19,0.05 0.224,-0.093 0.032,-0.142 -0.093,-0.226 -0.093,-0.226 0,0 0.297,0.208 0.39,-0.014 0.107,-0.26 -0.182,-0.287 -0.182,-0.287 0,0 0.031,0.066 -0.031,0.101 -0.063,0.034 -0.092,-0.022 -0.134,-0.094 -0.043,-0.071 -0.215,-0.275 -0.586,-0.254 -0.304,0.016 -0.69,0.2 -0.69,0.2 0,0 0.084,-0.044 0.177,-0.107 0.093,-0.062 0.162,-0.116 0.162,-0.116 0,0 0.483,-0.2 0.502,-0.993 0.02,-0.792 -0.554,-0.696 -0.554,-0.696 0,0 0.14,0.247 -0.093,0.379 -0.28,0.159 -0.271,0.317 -0.271,0.317 0,0 -0.058,-0.247 -0.279,-0.21 -0.157,0.027 -0.188,0.218 -0.188,0.218 0,0 0.196,-0.036 0.196,0.111 0,0.147 -0.185,0.112 -0.248,0.134 -0.065,0.022 -0.237,0.105 -0.335,0.314 -0.033,0.072 -0.043,0.13 -0.043,0.13 0,0 -0.059,0.112 -0.21,0.24 -0.151,0.129 -0.438,0.277 -0.438,0.277 l 0.073,-0.301 c 0,0 0.583,-0.409 0.655,-0.526 0.072,-0.118 0.057,-0.143 0.118,-0.217 0.061,-0.073 0.146,-0.091 0.146,-0.091 0,0 -0.057,-0.115 -0.215,-0.11 -0.157,0.005 -0.324,0.173 -0.324,0.173 0,0 0.143,-0.141 0.195,-0.254 0.051,-0.115 0.044,-0.261 0.044,-0.261 l -0.199,0.023 c 0,0 -0.1,0.02 -0.186,0.101 -0.086,0.082 -0.136,0.219 -0.234,0.311 -0.099,0.093 -0.206,0.103 -0.206,0.103 0,0 0.16,-0.099 0.23,-0.216 0.099,-0.164 -0.014,-0.43 -0.014,-0.43 0,0 -0.166,-0.069 -0.326,0.08 -0.075,0.068 -0.183,0.205 -0.278,0.33 0,0 0.149,-0.479 0.48,-0.783 0.331,-0.304 0.438,-0.085 0.438,-0.085 0,0 0.098,-0.15 -0.031,-0.228 -0.13,-0.076 -0.259,0.035 -0.259,0.035 0,0 0.146,-0.195 0.432,-0.319 0.287,-0.123 0.593,-0.201 0.593,-0.201 0,0 1.302,-0.253 1.714,-0.06 0.411,0.195 0.193,0.439 0.193,0.439 0,0 0.397,0.281 0.307,-0.344 -0.091,-0.626 -0.725,-0.669 -0.725,-0.669 l -1.409,-0.039 c 0,0 -0.698,0.131 -1.006,0.259 -0.307,0.127 -0.417,0.212 -0.417,0.212 0,0 -0.012,-0.089 0.069,-0.165 0.08,-0.076 0.173,-0.083 0.173,-0.083 0,0 -0.027,-0.246 -0.338,-0.056 -0.242,0.147 -0.436,0.515 -0.436,0.515 l -1.364,1.826 z"/><path id="path35" style="fill:#f9c400;fill-opacity:1;fill-rule:nonzero;stroke:none" d="m 18.1743,22.9883 0,-4.194 c 0,0 -0.044,0.004 -0.227,-0.024 -0.184,-0.028 -0.235,-0.047 -0.235,-0.047 0,0 0.008,-0.117 -0.077,-0.204 -0.12,-0.121 -0.265,-0.284 -0.265,-0.284 0,0 -0.072,0.098 -0.106,0.29 -0.033,0.192 -0.007,0.312 -0.007,0.312 0,0 -0.026,-0.266 -0.157,-0.359 -0.132,-0.092 -0.157,-0.173 -0.157,-0.173 0,0 -0.106,0.073 -0.127,0.226 -0.022,0.153 0.025,0.289 0.025,0.289 0,0 -0.073,-0.193 -0.222,-0.324 -0.149,-0.132 -0.327,-0.2 -0.327,-0.2 l -1.833,-1.899 c 0,0 -0.194,-0.368 -0.436,-0.514 -0.311,-0.191 -0.338,0.055 -0.338,0.055 0,0 0.093,0.007 0.174,0.083 0.08,0.076 0.068,0.165 0.068,0.165 0,0 -0.109,-0.085 -0.418,-0.212 -0.307,-0.128 -1.005,-0.258 -1.005,-0.258 l -1.409,0.039 c 0,0 -0.634,0.043 -0.725,0.669 -0.09,0.625 0.306,0.343 0.306,0.343 0,0 -0.217,-0.244 0.194,-0.438 0.412,-0.194 1.714,0.059 1.714,0.059 0,0 0.306,0.079 0.592,0.202 0.287,0.124 0.434,0.318 0.434,0.318 0,0 -0.13,-0.11 -0.259,-0.034 -0.13,0.077 -0.031,0.227 -0.031,0.227 0,0 0.105,-0.218 0.437,0.085 0.331,0.304 0.479,0.783 0.479,0.783 -0.094,-0.125 -0.202,-0.261 -0.277,-0.33 -0.161,-0.149 -0.327,-0.08 -0.327,-0.08 0,0 -0.112,0.266 -0.014,0.43 0.071,0.117 0.232,0.217 0.232,0.217 0,0 -0.108,-0.011 -0.207,-0.103 -0.098,-0.093 -0.148,-0.23 -0.234,-0.311 -0.086,-0.081 -0.186,-0.102 -0.186,-0.102 l -0.199,-0.023 c 0,0 -0.007,0.147 0.045,0.261 0.051,0.114 0.195,0.254 0.195,0.254 0,0 -0.168,-0.168 -0.325,-0.173 -0.158,-0.004 -0.214,0.111 -0.214,0.111 0,0 0.084,0.017 0.145,0.091 0.061,0.073 0.045,0.098 0.118,0.216 0.072,0.118 0.655,0.527 0.655,0.527 l 0.073,0.301 c 0,0 -0.287,-0.149 -0.438,-0.277 -0.152,-0.128 -0.209,-0.241 -0.209,-0.241 0,0 -0.011,-0.058 -0.044,-0.129 -0.097,-0.21 -0.27,-0.293 -0.335,-0.314 -0.064,-0.022 -0.248,0.012 -0.248,-0.135 0,-0.147 0.197,-0.111 0.197,-0.111 0,0 -0.032,-0.19 -0.189,-0.217 -0.221,-0.037 -0.28,0.21 -0.28,0.21 0,0 0.01,-0.159 -0.27,-0.318 -0.233,-0.132 -0.093,-0.379 -0.093,-0.379 0,0 -0.574,-0.095 -0.554,0.697 0.019,0.792 0.502,0.992 0.502,0.992 0,0 0.069,0.054 0.162,0.117 0.093,0.063 0.177,0.106 0.177,0.106 0,0 -0.386,-0.184 -0.69,-0.2 -0.372,-0.02 -0.543,0.183 -0.585,0.255 -0.043,0.072 -0.072,0.128 -0.135,0.094 -0.062,-0.035 -0.031,-0.102 -0.031,-0.102 0,0 -0.289,0.028 -0.182,0.288 0.093,0.221 0.39,0.013 0.39,0.013 0,0 -0.125,0.085 -0.093,0.227 0.033,0.142 0.224,0.092 0.224,0.092 0,0 -0.2,0.102 -0.169,0.55 0.011,0.153 -0.215,0.3 -0.308,0.138 -0.092,-0.163 0.102,-0.206 0.102,-0.206 0,0 0.123,-0.349 -0.279,-0.282 -0.402,0.068 -0.229,-0.25 -0.229,-0.25 0,0 0.142,-0.245 -0.008,-0.5 -0.15,-0.255 -0.397,-0.212 -0.397,-0.212 0,0 -0.08,-0.126 -0.214,-0.139 -0.186,-0.019 -0.298,0.064 -0.34,0.139 -0.042,0.075 -0.02,0.17 -0.113,0.17 -0.092,0 -0.062,-0.111 -0.062,-0.111 0,0 -0.172,0.014 -0.172,0.167 0,0.096 0.067,0.235 0.187,0.235 0.121,0 0.278,-0.169 0.278,-0.169 0,0 -0.042,0.079 -0.042,0.158 0,0.053 0.039,0.117 0.163,0.117 0.123,0 0.192,-0.047 0.192,-0.111 0,-0.064 -0.067,-0.124 -0.067,-0.124 0,0 0.018,-0.025 0.057,-0.059 0.04,-0.034 0.067,-0.045 0.067,-0.045 0,0 0.224,-0.044 0.215,0.758 -0.011,0.894 1.282,1.191 1.5,0.606 0.217,-0.586 0.527,-0.794 0.527,-0.794 0,0 -0.066,0.125 -0.016,0.258 0.03,0.078 0.101,0.159 0.216,0.159 0.116,0 0.074,-0.143 0.074,-0.143 0,0 -0.195,-0.945 0.975,-0.851 1.46,0.117 1.373,0.579 1.373,0.579 0,0 -0.561,-0.14 -1.226,-0.005 -0.336,0.068 -0.687,0.214 -1.029,0.469 -0.319,0.238 -0.336,0.406 -0.44,0.365 -0.103,-0.041 -0.047,-0.124 -0.047,-0.124 0,0 -0.169,-0.017 -0.213,0.148 -0.055,0.207 0.153,0.203 0.153,0.203 0,0 -0.467,0.173 -0.428,0.794 0.006,0.101 -0.006,0.197 -0.098,0.206 -0.107,0.012 -0.125,-0.153 -0.125,-0.153 0,0 -0.289,0.04 -0.3,0.236 -0.009,0.149 0.065,0.374 0.262,0.413 0.199,0.039 0.396,-0.113 0.396,-0.113 0,0 -0.1,0.376 0.203,0.688 0.205,0.212 0.572,0.473 0.508,0.777 -0.064,0.305 -0.402,0.235 -0.402,0.235 0,0 0.189,0.4 0.578,0.106 0.388,-0.295 0.238,-0.777 0.238,-0.777 0,0 0.08,0.017 0.197,-0.022 0.162,-0.053 0.139,-0.219 0.139,-0.219 0,0 -0.033,0.037 -0.1,0.002 -0.066,-0.035 0.048,-0.165 0.022,-0.329 -0.023,-0.15 -0.283,-0.31 -0.283,-0.31 0,0 -0.554,-0.457 0.075,-1.169 0.63,-0.712 1.319,-0.457 1.319,-0.457 0,0 -0.58,0.12 -0.903,0.47 -0.23,0.248 -0.118,0.466 -0.245,0.528 -0.103,0.051 -0.135,-0.097 -0.135,-0.097 0,0 -0.186,0.055 -0.061,0.278 0.077,0.137 0.302,0.074 0.302,0.074 0,0 -0.119,0.089 -0.119,0.189 0,0.1 0.08,0.164 0.235,0.389 0.155,0.225 -0.063,0.323 -0.063,0.323 0,0 0.214,0.181 0.431,-0.001 0.231,-0.194 0.147,-0.405 0.077,-0.538 -0.07,-0.133 0,-0.187 0,-0.187 0,0 0.047,0.236 0.164,0.217 0.088,-0.014 0.075,0.045 0.075,0.045 0,0 0.015,-0.013 0.027,-0.028 0.011,-0.015 0.022,-0.036 0.022,-0.036 0,0 0.052,-0.24 0.019,-0.621 -0.033,-0.382 0.146,-0.504 0.369,-0.627 0.506,-0.278 1.404,-0.046 1.404,-0.046 0,0 -0.286,0.078 -0.483,0.548 -0.196,0.471 -0.882,0.579 -0.882,0.579 0,0 -0.426,0.108 -0.462,0.371 -0.023,0.167 0.148,0.279 0.148,0.279 0,0 0.046,-0.068 0.147,-0.055 0.102,0.014 0.196,-0.053 0.196,-0.053 0,0 -0.198,0.216 -0.011,0.295 0.188,0.08 0.181,-0.034 0.181,-0.034 0,0 -0.061,0.017 -0.098,-0.005 -0.032,-0.018 -0.045,-0.072 -0.016,-0.106 0.062,-0.073 0.079,0.022 0.25,0.022 0.17,0 0.28,-0.184 0.28,-0.184 0,0 -0.141,0.345 -0.017,0.677 0.133,0.357 0.397,0.468 0.375,0.703 -0.026,0.275 -0.234,0.147 -0.234,0.147 0,0 0.214,0.624 0.633,-0.09 0.42,-0.714 -0.045,-1.212 -0.045,-1.212 0,0 0.079,0.08 0.222,0.11 0.143,0.029 0.304,0.002 0.304,0.002 0,0 -0.09,0.025 -0.145,0.08 -0.055,0.055 -0.059,0.108 -0.059,0.108 0,0 0.047,-0.008 0.127,0.051 0.081,0.059 0.306,0.031 0.316,-0.204 0.01,-0.236 -0.129,-0.381 -0.129,-0.381 0,0 0.178,0.022 0.251,-0.052 0.072,-0.075 0.025,-0.173 0.025,-0.173 0,0 -0.065,0.1 -0.155,0.077 -0.09,-0.024 -0.111,-0.099 -0.111,-0.099 0,0 0.121,0.004 0.158,-0.054 0.037,-0.059 0.016,-0.1 0.016,-0.1 0,0 -0.07,0.029 -0.182,-0.026 -0.112,-0.054 -0.127,-0.125 -0.127,-0.125 0,0 -0.079,-0.388 0.438,-0.388 0.518,0 1.763,1.023 1.763,1.023"/><path id="path36" style="fill:#db2015;fill-opacity:1;fill-rule:nonzero;stroke:none" d="m 20.5371,23.1392 c 0,0 -0.214,0.477 -0.137,0.855 0.049,0.24 0.254,0.524 0.443,0.553 0.153,0.024 0.221,-0.016 0.253,-0.049 0.096,-0.1 -0.057,-0.2 -0.057,-0.2 0,0 -0.05,-0.143 0.072,-0.223 0.154,-0.101 0.36,0.037 0.36,0.037 0,0 -0.246,-0.288 -0.13,-0.508 0.116,-0.22 0.285,-0.236 0.285,-0.236 0,0 -0.021,0.091 0.09,0.146 0.073,0.036 0.06,0.15 0.06,0.15 0,0 0.048,-0.339 0.444,-0.372 0.443,-0.037 0.429,0.343 0.429,0.343 0,0 -0.159,-0.233 -0.324,-0.075 -0.113,0.11 -0.057,0.198 -0.066,0.341 -0.01,0.142 -0.071,0.207 -0.071,0.207 0,0 0.092,-0.073 0.189,-0.055 0.07,0.013 0.064,0.117 0.064,0.117 0,0 -0.13,-0.031 -0.122,0.187 0.005,0.129 -0.15,0.197 -0.15,0.197 0,0 0.131,-0.015 0.181,0.048 0.052,0.062 0.029,0.149 0.029,0.149 0,0 -0.078,-0.074 -0.301,0.047 -0.372,0.202 -0.438,-0.153 -0.438,-0.153 0,0 -0.34,0.42 -0.916,0.051 -0.223,-0.142 -0.456,-0.451 -0.452,-0.828 0.004,-0.401 0.265,-0.729 0.265,-0.729"/><path id="path37" style="fill:#005ca2;fill-opacity:1;fill-rule:nonzero;stroke:none" d="m 15.4624,23.1392 c 0,0 0.215,0.477 0.138,0.855 -0.05,0.24 -0.255,0.524 -0.444,0.553 -0.152,0.024 -0.22,-0.016 -0.253,-0.049 -0.096,-0.1 0.057,-0.2 0.057,-0.2 0,0 0.05,-0.143 -0.072,-0.223 -0.153,-0.101 -0.359,0.037 -0.359,0.037 0,0 0.245,-0.288 0.129,-0.508 -0.115,-0.22 -0.284,-0.236 -0.284,-0.236 0,0 0.02,0.091 -0.09,0.146 -0.073,0.036 -0.061,0.15 -0.061,0.15 0,0 -0.048,-0.339 -0.443,-0.372 -0.443,-0.037 -0.429,0.343 -0.429,0.343 0,0 0.158,-0.233 0.323,-0.075 0.114,0.11 0.057,0.198 0.067,0.341 0.01,0.142 0.07,0.207 0.07,0.207 0,0 -0.092,-0.073 -0.188,-0.055 -0.071,0.013 -0.065,0.117 -0.065,0.117 0,0 0.13,-0.031 0.122,0.187 -0.005,0.129 0.151,0.197 0.151,0.197 0,0 -0.131,-0.015 -0.182,0.048 -0.051,0.062 -0.028,0.149 -0.028,0.149 0,0 0.077,-0.074 0.3,0.047 0.373,0.202 0.439,-0.153 0.439,-0.153 0,0 0.34,0.42 0.916,0.051 0.223,-0.142 0.455,-0.451 0.451,-0.828 -0.004,-0.401 -0.265,-0.729 -0.265,-0.729"/><path id="path38" style="fill:#db2015;fill-opacity:1;fill-rule:nonzero;stroke:none" d="m 20.3506,21.2373 c 0,0 0.453,0.117 0.498,0.529 0.05,0.448 0.2,0.44 0.2,0.44 0,0 -0.015,0.108 0.03,0.184 0.044,0.076 0.184,0.076 0.184,0.076 0,0 -0.041,-0.068 0.033,-0.086 0.075,-0.018 0.076,-0.069 0.076,-0.069 0,0 0.075,0.196 0.305,0.155 0.392,-0.068 0.194,-0.396 0.194,-0.396 0,0 -0.155,0.281 -0.468,0.014 -0.315,-0.266 -0.253,-0.478 -0.444,-0.635 -0.19,-0.157 -0.339,-0.171 -0.339,-0.171 0,0 0.267,-0.062 0.777,-0.031 0.444,0.027 0.866,0.463 0.827,0.725 -0.059,0.39 0.068,0.578 0.068,0.578 0,0 -0.021,-0.095 0.077,-0.533 0.098,-0.437 -0.157,-0.608 -0.157,-0.608 0,0 0.116,-0.158 0.012,-0.256 -0.104,-0.099 -0.186,-0.071 -0.186,-0.071 0,0 0.084,0.088 -0.01,0.141 -0.094,0.053 -0.251,-0.16 -0.608,-0.16 -0.245,0 -0.47,0.09 -0.702,0.139 -0.197,0.041 -0.367,0.035 -0.367,0.035"/><path id="path39" style="fill:#005ca2;fill-opacity:1;fill-rule:nonzero;stroke:none" d="m 15.6489,21.2373 c 0,0 -0.453,0.117 -0.498,0.529 -0.049,0.448 -0.2,0.44 -0.2,0.44 0,0 0.016,0.108 -0.03,0.184 -0.044,0.076 -0.184,0.076 -0.184,0.076 0,0 0.041,-0.068 -0.033,-0.086 -0.075,-0.018 -0.076,-0.069 -0.076,-0.069 0,0 -0.074,0.196 -0.304,0.155 -0.393,-0.068 -0.195,-0.396 -0.195,-0.396 0,0 0.155,0.281 0.469,0.014 0.314,-0.266 0.253,-0.478 0.443,-0.635 0.191,-0.157 0.339,-0.171 0.339,-0.171 0,0 -0.266,-0.062 -0.776,-0.031 -0.445,0.027 -0.867,0.463 -0.828,0.725 0.06,0.39 -0.068,0.578 -0.068,0.578 0,0 0.022,-0.095 -0.077,-0.533 -0.098,-0.437 0.157,-0.608 0.157,-0.608 0,0 -0.116,-0.158 -0.012,-0.256 0.104,-0.099 0.187,-0.071 0.187,-0.071 0,0 -0.085,0.088 0.01,0.141 0.094,0.053 0.251,-0.16 0.608,-0.16 0.245,0 0.469,0.09 0.701,0.139 0.197,0.041 0.367,0.035 0.367,0.035"/><path id="path40" style="fill:#db2015;fill-opacity:1;fill-rule:nonzero;stroke:none" d="m 22.0986,20.9248 c 0,0 0.586,-0.123 1.182,0.422 0.69,0.631 0.212,1.204 0.212,1.204 0,0 0.321,-0.165 0.329,-0.647 0.006,-0.384 -0.333,-0.722 -0.333,-0.722 0,0 0.157,0.055 0.176,-0.097 0.02,-0.154 -0.137,-0.173 -0.137,-0.173 0,0 0.058,0.113 -0.093,0.113 -0.086,0 -0.158,-0.159 -0.583,-0.212 -0.425,-0.054 -0.753,0.112 -0.753,0.112"/><path id="path41" style="fill:#005ca2;fill-opacity:1;fill-rule:nonzero;stroke:none" d="m 13.9014,20.9248 c 0,0 -0.586,-0.123 -1.182,0.422 -0.69,0.631 -0.212,1.204 -0.212,1.204 0,0 -0.321,-0.165 -0.329,-0.647 -0.006,-0.384 0.333,-0.722 0.333,-0.722 0,0 -0.156,0.055 -0.176,-0.097 -0.019,-0.154 0.137,-0.173 0.137,-0.173 0,0 -0.059,0.113 0.093,0.113 0.086,0 0.158,-0.159 0.583,-0.212 0.425,-0.054 0.753,0.112 0.753,0.112"/><path id="path42" style="fill:#db2015;fill-opacity:1;fill-rule:nonzero;stroke:none" d="m 23.4668,23.4297 c 0,0 -0.064,0.521 0.269,0.745 0.333,0.223 0.651,-0.11 0.651,-0.283 0,-0.172 -0.204,-0.121 -0.204,-0.121 0,0 -0.087,-0.165 0.07,-0.338 0.117,-0.129 0.353,-0.031 0.353,-0.031 0,0 -0.115,-0.224 0.098,-0.431 0.155,-0.151 0.608,-0.04 0.588,0.129 -0.019,0.169 -0.288,0.086 -0.288,0.086 0,0 0.08,0.083 0.072,0.16 -0.007,0.076 -0.088,0.162 -0.088,0.162 0,0 0.308,-0.147 0.454,0.085 0.144,0.231 -0.165,0.392 -0.165,0.392 0,0 0.021,-0.106 -0.059,-0.106 -0.08,0 -0.074,0.231 -0.245,0.32 -0.171,0.087 -0.318,-0.017 -0.318,-0.017 0,0 -0.209,0.222 -0.484,0.222 -0.265,0 -0.504,-0.126 -0.645,-0.345 -0.195,-0.3 -0.059,-0.629 -0.059,-0.629"/><path id="path43" style="fill:#005ca2;fill-opacity:1;fill-rule:nonzero;stroke:none" d="m 12.5327,23.4297 c 0,0 0.065,0.521 -0.268,0.745 -0.334,0.223 -0.651,-0.11 -0.651,-0.283 0,-0.172 0.204,-0.121 0.204,-0.121 0,0 0.086,-0.165 -0.071,-0.338 -0.117,-0.129 -0.353,-0.031 -0.353,-0.031 0,0 0.115,-0.224 -0.098,-0.431 -0.155,-0.151 -0.607,-0.04 -0.588,0.129 0.02,0.169 0.288,0.086 0.288,0.086 0,0 -0.08,0.083 -0.072,0.16 0.007,0.076 0.088,0.162 0.088,0.162 0,0 -0.308,-0.147 -0.453,0.085 -0.145,0.231 0.165,0.392 0.165,0.392 0,0 -0.022,-0.106 0.059,-0.106 0.08,0 0.074,0.231 0.245,0.32 0.171,0.087 0.318,-0.017 0.318,-0.017 0,0 0.209,0.222 0.484,0.222 0.265,0 0.503,-0.126 0.645,-0.345 0.194,-0.3 0.058,-0.629 0.058,-0.629"/><path id="path44" style="fill:#db2015;fill-opacity:1;fill-rule:nonzero;stroke:none" d="m 21.498,19.9609 c 0,0 0.076,-0.241 0.492,-0.245 0.416,-0.004 0.651,-0.273 1.193,-0.22 0.685,0.067 0.662,0.737 0.662,0.737 0,0 0.094,-0.141 0.094,-0.407 0,-0.267 -0.318,-0.385 -0.318,-0.385 0,0 0.2,0.028 0.2,-0.168 0,-0.126 -0.179,-0.185 -0.179,-0.185 0,0 0.06,0.159 -0.064,0.159 -0.123,0 -0.166,-0.116 -0.337,-0.116 -0.134,0 -0.241,0.136 -0.241,0.136 0,0 0.092,-0.184 -0.092,-0.222 -0.127,-0.025 -0.21,0.03 -0.21,0.03 0,0 0.103,0.049 0.02,0.105 -0.061,0.042 -0.095,-0.049 -0.195,-0.037 -0.118,0.014 -0.239,0.112 -0.239,0.112 0,0 0.218,-0.251 0,-0.361 -0.218,-0.11 -0.335,0.079 -0.335,0.079 0,0 0.117,-0.018 0.123,0.058 0.006,0.077 -0.123,0.106 -0.214,0.214 -0.089,0.108 -0.115,0.204 -0.235,0.322 -0.119,0.117 -0.182,0.145 -0.182,0.233 0,0.088 0.057,0.161 0.057,0.161"/><path id="path45" style="fill:#005ca2;fill-opacity:1;fill-rule:nonzero;stroke:none" d="m 14.502,19.9609 c 0,0 -0.077,-0.241 -0.492,-0.245 -0.416,-0.004 -0.651,-0.273 -1.192,-0.22 -0.687,0.067 -0.663,0.737 -0.663,0.737 0,0 -0.094,-0.141 -0.094,-0.407 0,-0.267 0.317,-0.385 0.317,-0.385 0,0 -0.2,0.028 -0.2,-0.168 0,-0.126 0.181,-0.185 0.181,-0.185 0,0 -0.061,0.159 0.062,0.159 0.124,0 0.167,-0.116 0.338,-0.116 0.133,0 0.241,0.136 0.241,0.136 0,0 -0.092,-0.184 0.092,-0.222 0.127,-0.025 0.21,0.03 0.21,0.03 0,0 -0.103,0.049 -0.02,0.105 0.061,0.042 0.095,-0.049 0.195,-0.037 0.117,0.014 0.239,0.112 0.239,0.112 0,0 -0.218,-0.251 0,-0.361 0.217,-0.11 0.335,0.079 0.335,0.079 0,0 -0.118,-0.018 -0.124,0.058 -0.006,0.077 0.124,0.106 0.214,0.214 0.09,0.108 0.116,0.204 0.236,0.322 0.119,0.117 0.182,0.145 0.182,0.233 0,0.088 -0.057,0.161 -0.057,0.161"/><path id="path46" style="fill:#db2015;fill-opacity:1;fill-rule:nonzero;stroke:none" d="m 24.1191,19.959 c 0,0 0.19,0.02 0.526,0.592 0.378,0.646 1.223,0.279 0.894,-0.175 -0.095,-0.132 -0.156,0.03 -0.156,0.03 0,0 -0.323,-0.176 -0.004,-0.537 0.172,-0.196 0.51,0.062 0.51,0.062 0,0 -0.012,-0.192 0.14,-0.396 0.153,-0.203 0.332,-0.145 0.332,-0.145 0,0 -0.202,0.087 -0.061,0.326 0.06,0.102 0.051,0.243 0.051,0.243 0,0 0.047,-0.2 0.287,-0.2 0.102,0 0.222,0.098 0.222,0.22 0,0.116 -0.148,0.195 -0.148,0.195 0,0 0.002,-0.028 -0.055,-0.028 -0.058,0 -0.088,-0.008 -0.138,0.385 -0.058,0.465 -0.545,0.312 -0.545,0.312 0,0 -0.196,0.367 -0.667,0.367 -0.237,0 -0.69,-0.181 -0.815,-0.605 -0.145,-0.495 -0.373,-0.646 -0.373,-0.646"/><path id="path47" style="fill:#005ca2;fill-opacity:1;fill-rule:nonzero;stroke:none" d="m 11.8804,19.959 c 0,0 -0.19,0.02 -0.525,0.592 -0.379,0.646 -1.224,0.279 -0.894,-0.175 0.094,-0.132 0.156,0.03 0.156,0.03 0,0 0.322,-0.176 0.004,-0.537 -0.172,-0.196 -0.51,0.062 -0.51,0.062 0,0 0.012,-0.192 -0.141,-0.396 -0.153,-0.203 -0.332,-0.145 -0.332,-0.145 0,0 0.203,0.087 0.062,0.326 -0.061,0.102 -0.052,0.243 -0.052,0.243 0,0 -0.046,-0.2 -0.286,-0.2 -0.103,0 -0.223,0.098 -0.223,0.22 0,0.116 0.149,0.195 0.149,0.195 0,0 -0.002,-0.028 0.055,-0.028 0.057,0 0.087,-0.008 0.137,0.385 0.059,0.465 0.545,0.312 0.545,0.312 0,0 0.196,0.367 0.667,0.367 0.237,0 0.69,-0.181 0.815,-0.605 0.145,-0.495 0.373,-0.646 0.373,-0.646"/><path id="path48" style="fill:#db2015;fill-opacity:1;fill-rule:nonzero;stroke:none" d="m 24.2451,19.0332 c 0,0 0.432,-0.243 0.432,-0.902 0,-0.266 -0.164,-0.607 -0.389,-0.741 -0.306,-0.183 -0.553,0.024 -0.553,0.024 0,0 0.159,0.07 0.159,0.18 0,0.11 -0.124,0.186 -0.253,0.186 -0.129,0 -0.275,-0.066 -0.275,-0.229 0,-0.094 0.069,-0.247 0.069,-0.247 0,0 -0.19,0.386 -0.646,0.386 -0.485,0 -0.547,-0.327 -0.519,-0.467 0.038,-0.184 0.271,-0.289 0.345,-0.155 0.067,0.119 -0.112,0.231 -0.112,0.231 0,0 0.022,0.084 0.136,0.084 0.114,0 0.168,-0.089 0.202,-0.264 0.02,-0.107 0.195,-0.184 0.195,-0.184 0,0 -0.28,0.063 -0.28,-0.133 0,-0.126 0.136,-0.172 0.136,-0.172 0,0 -0.011,0.153 0.141,0.153 0.151,0 0.149,-0.202 0.303,-0.273 0.154,-0.073 0.439,-0.031 0.439,-0.031 0,0 -0.064,-0.13 -0.359,-0.091 -0.296,0.04 -0.33,-0.182 -0.33,-0.182 0,0 0.062,0.008 0.122,-0.05 0.043,-0.042 0.13,-0.047 0.13,-0.047 0,0 -0.062,-0.084 -0.333,0.008 -0.273,0.092 -0.391,0.011 -0.427,-0.06 -0.036,-0.07 0.013,-0.169 0.013,-0.169 0,0 0.133,0.104 0.256,0.047 0.124,-0.055 0.223,-0.055 0.223,-0.055 0,0 -0.405,0.023 -0.759,-0.174 -0.352,-0.197 -0.507,-0.496 -0.507,-0.644 0,-0.146 0.083,-0.28 0.184,-0.268 0.151,0.018 0.009,0.164 0.009,0.164 0,0 0.057,0.15 0.26,0.124 0.206,-0.028 0.339,0.048 0.339,0.048 0,0 -0.852,-0.566 -0.852,-1.301 0,-0.407 0.373,-0.862 0.747,-0.965 0.515,-0.141 0.718,0.315 0.718,0.315 0,0 -0.498,-0.481 -0.779,-0.065 -0.383,0.565 0.282,1.177 0.282,1.177 0,0 0.015,-0.118 0.078,-0.191 0.059,-0.067 0.197,-0.056 0.255,0.051 0.034,0.063 0.002,0.12 0.002,0.12 0,0 -0.094,-0.058 -0.136,0.038 -0.042,0.097 0.058,0.195 0.206,0.201 0.17,0.005 0.225,0.169 0.225,0.169 0,0 0,-0.185 0.124,-0.215 0.097,-0.024 0.161,0.108 0.161,0.108 0,0 -0.08,10e-4 -0.08,0.082 0,0.082 0.086,0.075 0.17,0.085 0.085,0.009 0.267,0.076 0.267,0.323 0,0.444 0.238,0.407 0.238,0.407 0,0 -0.164,-0.127 -0.164,-0.357 0,-0.229 0.159,-0.264 0.159,-0.376 0,-0.113 -0.168,-0.13 -0.168,-0.13 0,0 0,-0.1 0.151,-0.108 0.151,-0.008 0.196,0.168 0.196,0.168 0,0 -0.011,-0.086 0.055,-0.153 0.031,-0.03 0.03,-0.1 0.007,-0.121 -0.027,-0.024 -0.08,0.003 -0.08,0.003 0,0 -0.011,-0.122 0.112,-0.161 0.093,-0.029 0.177,0.055 0.177,0.055 0,0 0.169,-0.122 0.331,0.067 0.163,0.189 0.055,0.521 0.055,0.521 0,0 0.072,-0.115 0.195,-0.141 0.124,-0.027 0.122,0.151 0.122,0.151 0,0 -0.173,-0.004 -0.106,0.197 0.059,0.179 -0.058,0.264 -0.058,0.264 0,0 0.305,-0.042 0.305,0.18 0,0.108 -0.072,0.211 -0.162,0.228 -0.076,0.014 -0.127,-0.059 -0.127,-0.059 0,0 0.122,-0.086 0.056,-0.144 -0.065,-0.058 -0.171,-0.027 -0.262,0.041 -0.092,0.067 -0.112,0.161 -0.112,0.161 0,0 0.193,-0.019 0.391,0.09 0.199,0.11 0.302,0.292 0.302,0.292 0,0 0.463,-0.051 0.784,0.355 0.146,0.187 0.177,0.397 0.228,0.504 0.062,0.124 0.13,0.127 0.13,0.127 0,0 0.07,-0.113 0.169,-0.102 0.098,0.012 0.162,0.224 0.027,0.369 -0.217,0.233 -0.48,-0.009 -0.48,-0.009 0,0 0.158,0.327 0.158,0.546 0,0.22 -0.121,0.471 -0.417,0.471 -0.296,0 -0.342,-0.255 -0.342,-0.255 0,0 0.055,0.053 0.124,0.061 0.051,0.005 0.12,-0.015 0.133,-0.087 0.043,-0.214 -0.23,-0.208 -0.27,-0.358 -0.034,-0.129 0.029,-0.173 0.059,-0.322 0.03,-0.149 -0.079,-0.231 -0.079,-0.231 0,0 0.066,0.175 -0.014,0.306 -0.078,0.131 -0.142,0.119 -0.169,0.202 -0.017,0.048 0.005,0.095 0.005,0.095 0,0 -0.139,0.064 -0.287,-0.086 -0.237,-0.241 0.077,-0.502 0.077,-0.502 0,0 -0.322,0.04 -0.339,-0.208 -0.009,-0.122 0.096,-0.254 0.096,-0.254 0,0 0.281,0.084 0.365,-0.193 0.039,-0.126 -0.012,-0.378 -0.197,-0.564 -0.183,-0.187 -0.458,-0.236 -0.458,-0.236 0,0 -0.066,0.186 0.065,0.697 0.056,0.222 0.122,0.562 0.076,0.78 -0.06,0.281 -0.245,0.414 -0.245,0.414 0,0 0.118,0.326 -0.061,0.845 -0.13,0.376 -0.49,0.531 -0.49,0.531"/><path id="path49" style="fill:#005ca2;fill-opacity:1;fill-rule:nonzero;stroke:none" d="m 11.7549,19.0332 c 0,0 -0.431,-0.243 -0.431,-0.902 0,-0.266 0.164,-0.607 0.388,-0.741 0.305,-0.183 0.553,0.024 0.553,0.024 0,0 -0.159,0.07 -0.159,0.18 0,0.11 0.124,0.186 0.253,0.186 0.129,0 0.274,-0.066 0.274,-0.229 0,-0.094 -0.068,-0.247 -0.068,-0.247 0,0 0.19,0.386 0.646,0.386 0.485,0 0.547,-0.327 0.519,-0.467 -0.038,-0.184 -0.27,-0.289 -0.346,-0.155 -0.066,0.119 0.113,0.231 0.113,0.231 0,0 -0.022,0.084 -0.136,0.084 -0.114,0 -0.167,-0.089 -0.202,-0.264 -0.02,-0.107 -0.195,-0.184 -0.195,-0.184 0,0 0.28,0.063 0.28,-0.133 0,-0.126 -0.136,-0.172 -0.136,-0.172 0,0 0.011,0.153 -0.141,0.153 -0.151,0 -0.148,-0.202 -0.303,-0.273 -0.155,-0.073 -0.439,-0.031 -0.439,-0.031 0,0 0.064,-0.13 0.36,-0.091 0.295,0.04 0.329,-0.182 0.329,-0.182 0,0 -0.062,0.008 -0.122,-0.05 -0.043,-0.042 -0.129,-0.047 -0.129,-0.047 0,0 0.061,-0.084 0.332,0.008 0.272,0.092 0.391,0.011 0.427,-0.06 0.036,-0.07 -0.013,-0.169 -0.013,-0.169 0,0 -0.133,0.104 -0.256,0.047 -0.123,-0.055 -0.223,-0.055 -0.223,-0.055 0,0 0.406,0.023 0.759,-0.174 0.352,-0.197 0.507,-0.496 0.507,-0.644 0,-0.146 -0.083,-0.28 -0.184,-0.268 -0.151,0.018 -0.009,0.164 -0.009,0.164 0,0 -0.056,0.15 -0.259,0.124 -0.206,-0.028 -0.339,0.048 -0.339,0.048 0,0 0.851,-0.566 0.851,-1.301 0,-0.407 -0.373,-0.862 -0.747,-0.965 -0.515,-0.141 -0.718,0.315 -0.718,0.315 0,0 0.498,-0.481 0.78,-0.065 0.382,0.565 -0.283,1.177 -0.283,1.177 0,0 -0.015,-0.118 -0.078,-0.191 -0.06,-0.067 -0.197,-0.056 -0.255,0.051 -0.034,0.063 -0.002,0.12 -0.002,0.12 0,0 0.094,-0.058 0.136,0.038 0.042,0.097 -0.057,0.195 -0.206,0.201 -0.17,0.005 -0.225,0.169 -0.225,0.169 0,0 0,-0.185 -0.124,-0.215 -0.097,-0.024 -0.16,0.108 -0.16,0.108 0,0 0.079,10e-4 0.079,0.082 0,0.082 -0.086,0.075 -0.17,0.085 -0.085,0.009 -0.267,0.076 -0.267,0.323 0,0.444 -0.238,0.407 -0.238,0.407 0,0 0.164,-0.127 0.164,-0.357 0,-0.229 -0.159,-0.264 -0.159,-0.376 0,-0.113 0.169,-0.13 0.169,-0.13 0,0 0,-0.1 -0.152,-0.108 -0.151,-0.008 -0.197,0.168 -0.197,0.168 0,0 0.013,-0.086 -0.055,-0.153 -0.031,-0.03 -0.029,-0.1 -0.006,-0.121 0.027,-0.024 0.08,0.003 0.08,0.003 0,0 0.011,-0.122 -0.113,-0.161 -0.092,-0.029 -0.176,0.055 -0.176,0.055 0,0 -0.169,-0.122 -0.331,0.067 -0.163,0.189 -0.055,0.521 -0.055,0.521 0,0 -0.072,-0.115 -0.195,-0.141 -0.124,-0.027 -0.122,0.151 -0.122,0.151 0,0 0.172,-0.004 0.106,0.197 -0.059,0.179 0.058,0.264 0.058,0.264 0,0 -0.305,-0.042 -0.305,0.18 0,0.108 0.072,0.211 0.162,0.228 0.076,0.014 0.127,-0.059 0.127,-0.059 0,0 -0.122,-0.086 -0.056,-0.144 0.066,-0.058 0.17,-0.027 0.262,0.041 0.093,0.067 0.111,0.161 0.111,0.161 0,0 -0.192,-0.019 -0.39,0.09 -0.199,0.11 -0.302,0.292 -0.302,0.292 0,0 -0.463,-0.051 -0.783,0.355 -0.147,0.187 -0.178,0.397 -0.23,0.504 -0.061,0.124 -0.129,0.127 -0.129,0.127 0,0 -0.07,-0.113 -0.169,-0.102 -0.098,0.012 -0.163,0.224 -0.027,0.369 0.217,0.233 0.48,-0.009 0.48,-0.009 0,0 -0.159,0.327 -0.159,0.546 0,0.22 0.122,0.471 0.418,0.471 0.296,0 0.341,-0.255 0.341,-0.255 0,0 -0.054,0.053 -0.123,0.061 -0.051,0.005 -0.12,-0.015 -0.134,-0.087 -0.042,-0.214 0.232,-0.208 0.271,-0.358 0.034,-0.129 -0.029,-0.173 -0.059,-0.322 -0.029,-0.149 0.078,-0.231 0.078,-0.231 0,0 -0.064,0.175 0.015,0.306 0.078,0.131 0.143,0.119 0.17,0.202 0.016,0.048 -0.006,0.095 -0.006,0.095 0,0 0.139,0.064 0.286,-0.086 0.237,-0.241 -0.076,-0.502 -0.076,-0.502 0,0 0.321,0.04 0.339,-0.208 0.009,-0.122 -0.096,-0.254 -0.096,-0.254 0,0 -0.281,0.084 -0.365,-0.193 -0.038,-0.126 0.012,-0.378 0.196,-0.564 0.185,-0.187 0.459,-0.236 0.459,-0.236 0,0 0.066,0.186 -0.065,0.697 -0.056,0.222 -0.122,0.562 -0.076,0.78 0.06,0.281 0.245,0.414 0.245,0.414 0,0 -0.117,0.326 0.061,0.845 0.129,0.376 0.49,0.531 0.49,0.531"/><path id="path50" style="fill:#db2015;fill-opacity:1;fill-rule:nonzero;stroke:none" d="m 23.4512,12.1895 c 0,0 0.367,-0.211 0.202,-0.442 -0.076,-0.107 -0.206,-0.094 -0.265,-0.049 -0.071,0.053 -0.066,0.15 -0.066,0.15 0,0 -0.16,0.112 -0.224,0.017 -0.051,-0.077 0,-0.278 0,-0.278 0,0 -0.038,0.106 -0.116,0.145 -0.078,0.039 -0.14,-0.022 -0.14,-0.022 0,0 -0.079,0.044 -0.037,0.135 0.042,0.09 0.117,0.039 0.117,0.039 0,0 0.012,0.145 -0.13,0.145 -0.142,0 -0.308,-0.136 -0.308,-0.363 0,-0.162 0.2,-0.281 0.2,-0.281 0,0 -0.39,-0.036 -0.39,-0.414 0,-0.222 0.197,-0.369 0.36,-0.294 0.088,0.041 0.054,0.151 0.054,0.151 0,0 -0.082,-0.06 -0.125,0.015 -0.041,0.071 0.057,0.151 0.226,0.151 0.169,0 0.589,-0.021 0.779,0.222 0.115,0.15 0.076,0.383 0.076,0.383 0,0 0.17,0.044 0.17,0.265 0,0.261 -0.383,0.325 -0.383,0.325"/><path id="path51" style="fill:#005ca2;fill-opacity:1;fill-rule:nonzero;stroke:none" d="m 12.5483,12.1895 c 0,0 -0.367,-0.211 -0.202,-0.442 0.077,-0.107 0.206,-0.094 0.266,-0.049 0.07,0.053 0.066,0.15 0.066,0.15 0,0 0.159,0.112 0.223,0.017 0.052,-0.077 0,-0.278 0,-0.278 0,0 0.038,0.106 0.116,0.145 0.078,0.039 0.14,-0.022 0.14,-0.022 0,0 0.08,0.044 0.038,0.135 -0.042,0.09 -0.117,0.039 -0.117,0.039 0,0 -0.013,0.145 0.129,0.145 0.143,0 0.308,-0.136 0.308,-0.363 0,-0.162 -0.2,-0.281 -0.2,-0.281 0,0 0.391,-0.036 0.391,-0.414 0,-0.222 -0.198,-0.369 -0.361,-0.294 -0.088,0.041 -0.053,0.151 -0.053,0.151 0,0 0.081,-0.06 0.125,0.015 0.041,0.071 -0.058,0.151 -0.227,0.151 -0.168,0 -0.589,-0.021 -0.778,0.222 -0.115,0.15 -0.076,0.383 -0.076,0.383 0,0 -0.171,0.044 -0.171,0.265 0,0.261 0.383,0.325 0.383,0.325"/><path id="path52" style="fill:#f9c400;fill-opacity:1;fill-rule:nonzero;stroke:none" d="m 18,22.6763 c 0.611,0 1.142,-0.07 1.142,-0.07 l 0.076,0.511 c 0,0 -0.177,1.136 -1.218,1.136 -1.041,0 -1.218,-1.136 -1.218,-1.136 l 0.077,-0.511 c 0,0 0.529,0.07 1.141,0.07"/><path id="path53" style="fill:#db2015;fill-opacity:1;fill-rule:nonzero;stroke:none" d="m 16.751,21.9395 c 0,0 -0.306,-0.302 -0.22,-0.679 0.087,-0.376 0.704,-0.513 0.704,-0.513 l 1.959,-0.083 -0.176,1.702 -2.267,-0.427 z"/><path id="path54" style="fill:#9c9c9c;fill-opacity:1;fill-rule:nonzero;stroke:none" d="m 20.2158,20.5728 c 0,0 -0.318,0.045 -0.602,0.327 -0.282,0.282 -0.299,0.55 -0.299,0.55 l -0.596,1.198 -1.716,-0.025 -0.252,-0.683 c 0,0 0.284,-0.24 1.02,-0.222 0.735,0.018 0.909,0.337 1.151,-0.02 0.243,-0.356 -0.305,-0.686 -0.704,-0.81 -0.4,-0.123 -0.982,-0.141 -0.982,-0.141 0,0 0.689,-0.182 0.699,-0.459 0.007,-0.152 -0.349,-0.291 -0.482,-0.747 -0.241,-0.829 0.3,-0.488 0.3,-0.488 0,0 -0.029,-0.25 0.106,-0.45 0.135,-0.2 0.388,-0.35 0.388,-0.35 0,0 0.221,0.071 0.448,0.318 0.226,0.247 0.182,0.438 0.182,0.438 0,0 0.318,-0.053 0.476,0.141 0.159,0.194 0.155,0.327 0.155,0.327 l 0.708,1.096 z"/><path id="path55" style="fill:#005ca2;fill-opacity:1;fill-rule:nonzero;stroke:none" d="m 17.3525,22.6528 c 0,0 -0.353,-0.562 -0.649,-0.697 -0.25,-0.114 -0.561,-0.044 -0.665,0.094 -0.133,0.177 -0.065,0.303 -0.065,0.303 0,0 -0.035,-0.329 0.379,-0.329 0.453,0 0.542,0.587 0.542,0.587 l 0.208,0.092 0.25,-0.05 z"/><path id="path56" style="fill:#db2015;fill-opacity:1;fill-rule:nonzero;stroke:none" d="m 18.5088,22.8354 0.633,-0.229 c 0,0 0.315,-0.887 0.829,-0.887 0.729,0 0.329,0.541 0.329,0.541 0,0 0.286,-0.027 0.286,-0.298 0,-0.27 -0.086,-0.549 -1.012,-0.549 -0.924,0 -1.065,1.248 -1.065,1.248 0,0 -0.006,-0.25 -0.291,-0.323 -0.286,-0.074 -0.3,-0.347 -0.3,-0.347 0,0 -0.097,0.073 -0.162,0.179 -0.064,0.106 -0.053,0.277 -0.053,0.277 0,0 -0.035,-0.159 -0.156,-0.241 -0.121,-0.083 -0.32,-0.145 -0.32,-0.145 0,0 0.061,0.042 0,0.221 -0.062,0.179 0.126,0.37 0.126,0.37 l 1.156,0.183 z"/><path id="path57" style="fill:#db2015;fill-opacity:1;fill-rule:nonzero;stroke:none" d="m 20.9629,19.437 c 0,0 -0.161,0.071 -0.624,0.079 -0.462,0.007 -0.831,-0.039 -0.831,-0.039 0,0 0.165,1.189 1.039,1.145 0.761,-0.039 0.416,-1.185 0.416,-1.185"/><path id="path58" style="fill:#d8d8d8;fill-opacity:1;fill-rule:nonzero;stroke:none" d="m 19.0654,23.5649 -0.171,1.9 0,1.247 -0.894,0 -0.894,0 0,-1.247 -0.172,-1.9 2.131,0 z"/><path id="path59" style="fill:#f9c400;fill-opacity:1;fill-rule:nonzero;stroke:none" d="m 18,22.6763 c -0.612,0 -1.141,-0.07 -1.141,-0.07 l -0.077,0.511 c 0,0 0.177,1.136 1.218,1.136 1.041,0 1.218,-1.136 1.218,-1.136 l -0.076,-0.511 c 0,0 -0.531,0.07 -1.142,0.07"/></g></g></g></g></svg>