<svg xmlns:dc="http://purl.org/dc/elements/1.1/" xmlns:cc="http://creativecommons.org/ns#" xmlns:rdf="http://www.w3.org/1999/02/22-rdf-syntax-ns#" xmlns:svg="http://www.w3.org/2000/svg" xmlns="http://www.w3.org/2000/svg" viewBox="0 0 45 45" style="enable-background:new 0 0 45 45;" xml:space="preserve" version="1.1" id="svg2"><metadata id="metadata8"><rdf:RDF><cc:Work rdf:about=""><dc:format>image/svg+xml</dc:format><dc:type rdf:resource="http://purl.org/dc/dcmitype/StillImage"/></cc:Work></rdf:RDF></metadata><defs id="defs6"><clipPath id="clipPath16" clipPathUnits="userSpaceOnUse"><path id="path18" d="M 0,36 36,36 36,0 0,0 0,36 Z"/></clipPath></defs><g transform="matrix(1.25,0,0,-1.25,0,45)" id="g10"><g id="g12"><g xmlns="http://www.w3.org/2000/svg" clip-path="url(#clipPath16)" id="g14"><g id="g20"><path id="path22" style="fill:#006aaa;fill-opacity:1;fill-rule:nonzero;stroke:none" d="M 32,31 4,31 C 1.791,31 0,29.209 0,27 L 0,9 C 0,6.791 1.791,5 4,5 l 28,0 c 2.209,0 4,1.791 4,4 l 0,18 c 0,2.209 -1.791,4 -4,4"/></g><g id="g24"><path id="path26" style="fill:#ffffff;fill-opacity:1;fill-rule:nonzero;stroke:none" d="m 27.833,18 c 0,5.431 -4.402,9.833 -9.833,9.833 -5.431,0 -9.834,-4.402 -9.834,-9.833 0,-5.431 4.403,-9.833 9.834,-9.833 5.431,0 9.833,4.402 9.833,9.833"/></g><g id="g28"><path id="path30" style="fill:#006aaa;fill-opacity:1;fill-rule:nonzero;stroke:none" d="m 27.1172,18 c 0,5.035 -4.082,9.117 -9.117,9.117 -5.035,0 -9.117,-4.082 -9.117,-9.117 0,-5.035 4.082,-9.117 9.117,-9.117 5.035,0 9.117,4.082 9.117,9.117"/></g><g id="g32"><path id="path34" style="fill:#ffffff;fill-opacity:1;fill-rule:nonzero;stroke:none" d="m 15.1953,18 c 0,1.549 1.256,2.805 2.805,2.805 l 0,5.655 c 0,0 2.614,-0.036 4.276,-1.73 0.712,-0.724 1.38,-1.872 1.38,-3.23 0,-3.5 -2.219,-4.406 -3.016,-4.687 -0.797,-0.282 -0.816,-0.661 -0.968,-1.047 -0.375,-0.954 -1.672,-1.969 -1.672,-1.969 0,0 -1.116,1.078 -1.459,1.734 -0.344,0.657 -0.314,0.934 -1.073,1.354 -1.207,0.669 -2.919,0.889 -4.448,0.889 -0.399,0 -0.607,0.016 -0.607,-0.046 0,-0.063 0.177,-0.185 0.177,-0.277 0,-0.253 -0.847,-0.347 -0.847,-0.053 0,0.224 0.129,0.188 0.129,0.341 0,0.118 -0.204,0.261 -0.204,0.261"/></g><g id="g36"><path id="path38" style="fill:#006aaa;fill-opacity:1;fill-rule:nonzero;stroke:none" d="m 20.1016,18 c 0,1.161 -0.94,2.102 -2.102,2.102 -1.16,0 -2.101,-0.941 -2.101,-2.102 0,-1.161 0.941,-2.102 2.101,-2.102 1.162,0 2.102,0.941 2.102,2.102"/></g><g id="g40"><path id="path42" style="fill:#ffffff;fill-opacity:1;fill-rule:nonzero;stroke:none" d="m 18,19.2183 0.273,-0.842 0.886,0 -0.716,-0.52 0.273,-0.842 -0.716,0.52 -0.716,-0.52 0.273,0.842 -0.716,0.52 0.886,0 0.273,0.842 z"/></g></g></g></g></svg>