<svg xmlns:dc="http://purl.org/dc/elements/1.1/" xmlns:cc="http://creativecommons.org/ns#" xmlns:rdf="http://www.w3.org/1999/02/22-rdf-syntax-ns#" xmlns:svg="http://www.w3.org/2000/svg" xmlns="http://www.w3.org/2000/svg" viewBox="0 0 45 45" style="enable-background:new 0 0 45 45;" xml:space="preserve" version="1.1" id="svg2"><metadata id="metadata8"><rdf:RDF><cc:Work rdf:about=""><dc:format>image/svg+xml</dc:format><dc:type rdf:resource="http://purl.org/dc/dcmitype/StillImage"/></cc:Work></rdf:RDF></metadata><defs id="defs6"><clipPath id="clipPath16" clipPathUnits="userSpaceOnUse"><path id="path18" d="M 0,36 36,36 36,0 0,0 0,36 Z"/></clipPath></defs><g transform="matrix(1.25,0,0,-1.25,0,45)" id="g10"><g id="g12"><g xmlns="http://www.w3.org/2000/svg" clip-path="url(#clipPath16)" id="g14"><g id="g30"><path id="path20" style="fill:#eeeeee;fill-opacity:1;fill-rule:nonzero;stroke:none" d="M 32,31 4,31 C 1.791,31 0,29.209 0,27 L 0,9 C 0,6.791 1.791,5 4,5 l 28,0 c 2.209,0 4,1.791 4,4 l 0,18 c 0,2.209 -1.791,4 -4,4"/></g><g id="g32"><path id="path30" style="fill:#0079ad;fill-opacity:1;fill-rule:nonzero;stroke:none" d="m 4.3428,15.0576 c 0.085,-0.101 0.177,-0.2 0.276,-0.299 2.215,-2.204 7.468,-3.589 13.38,-3.585 6.257,0.028 11.594,1.649 13.572,3.881 l -27.228,0.003 z"/><path id="path31" style="fill:#c9935f;fill-opacity:1;fill-rule:nonzero;stroke:none" d="m 28.6143,17.499 -1.535,0 0,1.766 1.535,-1.766 z m -2.396,1.736 0,-1.736 -1.848,0 1.848,1.736 z m -12.414,-1.736 -1.858,0 0,1.736 1.858,-1.736 z m -2.717,1.736 0,-1.736 -1.848,0 1.848,1.736 z m -7.379,-1.736 c -0.064,-0.218 -0.096,-0.439 -0.096,-0.664 0,-0.133 0.011,-0.266 0.035,-0.398 l 5.221,0 0,-1.38 2.968,0 0,1.38 12.166,0 0,-1.38 2.968,0 0,1.38 5.358,0 c 0.04,0.174 0.06,0.349 0.06,0.527 0,0.18 -0.021,0.357 -0.064,0.535 l -0.03,0 -5.216,3.017 0,0.379 -0.425,0 0,0.288 -0.435,0 0,-0.682 -6.386,-3.002 -1.494,0 -6.4,3.01 0,0.385 -0.418,0 0,0.289 -0.435,0 0,-0.68 -6.385,-3.004 -0.992,0 z"/><path id="path32" style="fill:#813000;fill-opacity:1;fill-rule:nonzero;stroke:none" d="m 13.2173,12.8262 c 0,0 0.34,-0.756 1.036,-1.149 0.674,-0.382 1.189,-0.401 4.035,-0.401 3.636,0 3.729,0.26 3.729,0.26 l 1.873,1.311 0.659,0.256 -11.332,-0.277 z"/><path id="path33" style="fill:#b0c7ea;fill-opacity:1;fill-rule:nonzero;stroke:none" d="m 15.1094,18.1221 c 0,0 0.579,-2.046 0.579,-3.287 0,-1.241 -0.215,-1.846 -0.215,-1.846 0,0 0.674,0.295 1.466,0.452 0.792,0.157 1.098,0.133 1.098,0.133 0,0 -0.012,-0.058 -0.141,-0.235 -0.13,-0.176 -0.271,-0.275 -0.271,-0.275 l 6.145,0.068 c 0,0 -0.023,0.078 -0.133,0.286 -0.11,0.208 -0.157,0.263 -0.157,0.263 l 2.161,0.239 c 0,0 -0.13,0.763 -1.759,1.809 -1.629,1.047 -2.17,1.448 -2.17,1.448 l 0.658,-2.024 -4.676,5.276 c 0,0 0.649,-3.612 0.649,-4.748 0,-0.345 -0.01,-0.714 -0.01,-0.714 0,0 -0.651,0.93 -1.536,1.796 -0.883,0.865 -1.688,1.359 -1.688,1.359"/><path id="path34" style="fill:#0079ad;fill-opacity:1;fill-rule:nonzero;stroke:none" d="m 18.1626,22.6255 c -0.054,0 -0.107,0 -0.162,0 -7.934,-0.036 -14.389,-2.633 -14.389,-5.791 0,-0.711 0.339,-1.41 1.007,-2.076 2.215,-2.204 7.468,-3.589 13.38,-3.585 7.935,0.035 14.39,2.632 14.39,5.79 0,0.712 -0.339,1.411 -1.007,2.076 -2.193,2.184 -7.371,3.586 -13.219,3.586 m -0.326,-11.952 c -5.973,0 -11.288,1.458 -13.57,3.732 -0.767,0.762 -1.155,1.58 -1.155,2.429 0,3.491 6.539,6.254 14.887,6.291 6.031,0.025 11.433,-1.438 13.737,-3.732 0.765,-0.762 1.153,-1.58 1.153,-2.43 0,-3.491 -6.539,-6.254 -14.888,-6.29 l -0.164,0 z"/><path id="path35" style="fill:#ffd800;fill-opacity:1;fill-rule:nonzero;stroke:none" d="m 18,24.2378 c -8.822,0 -16,-3.292 -16,-7.338 0,-4.047 7.178,-7.339 16,-7.339 8.822,0 16,3.292 16,7.339 0,4.046 -7.178,7.338 -16,7.338 m 0,-15.177 c -9.098,0 -16.5,3.516 -16.5,7.839 0,4.322 7.402,7.838 16.5,7.838 9.098,0 16.5,-3.516 16.5,-7.838 0,-4.323 -7.402,-7.839 -16.5,-7.839"/></g><g id="g34"><path id="path40" style="fill:#cf0821;fill-opacity:1;fill-rule:nonzero;stroke:none" d="m 16.7754,28.4971 c 0.012,-0.335 0.077,-0.811 0.297,-1.321 0.342,-0.788 1.145,-1.41 1.145,-1.41 0,0 0.804,0.622 1.146,1.41 0.221,0.51 0.285,0.986 0.297,1.321 l -0.299,-0.486 -0.286,0.486 -0.286,-0.486 -0.286,0.486 -0.286,-0.486 -0.286,0.486 -0.286,-0.486 -0.286,0.486 -0.286,-0.486 -0.298,0.486 z"/><path id="path41" style="fill:#ffffff;fill-opacity:1;fill-rule:nonzero;stroke:none" d="m 19.6602,28.4971 c 0.011,0.298 -0.021,0.485 -0.021,0.485 l -2.843,0 c 0,0 -0.032,-0.187 -0.021,-0.485 l 0.299,-0.486 0.285,0.486 0.286,-0.486 0.286,0.486 0.286,-0.486 0.286,0.486 0.286,-0.486 0.286,0.486 0.286,-0.486 0.299,0.486 z"/></g><g id="g36"><path id="path50" style="fill:#0079ad;fill-opacity:1;fill-rule:nonzero;stroke:none" d="m 15.8799,6.7998 c -4.761,0.249 -9.197,1.357 -12.49,3.121 l 0.708,1.322 c 3.103,-1.661 7.315,-2.707 11.86,-2.945 l -0.078,-1.498 z"/><path id="path51" style="fill:#0079ad;fill-opacity:1;fill-rule:nonzero;stroke:none" d="m 18,6.7451 0,1.5 c 6.164,0 11.722,1.419 15.247,3.893 l 0.861,-1.229 C 30.337,8.2631 24.466,6.7451 18,6.7451"/><path id="path52" style="fill:#0079ad;fill-opacity:1;fill-rule:nonzero;stroke:none" d="m 32.2402,22.4648 c -2.688,1.786 -6.463,3.026 -10.631,3.493 l 0.166,1.49 c 4.402,-0.492 8.412,-1.818 11.295,-3.734 l -0.83,-1.249 z"/><path id="path53" style="fill:#0079ad;fill-opacity:1;fill-rule:nonzero;stroke:none" d="m 4.1787,22.6963 -0.799,1.27 c 2.871,1.806 6.787,3.049 11.026,3.501 l 0.159,-1.491 c -4.016,-0.428 -7.705,-1.593 -10.386,-3.28"/></g></g></g></g></svg>