<svg xmlns:dc="http://purl.org/dc/elements/1.1/" xmlns:cc="http://creativecommons.org/ns#" xmlns:rdf="http://www.w3.org/1999/02/22-rdf-syntax-ns#" xmlns:svg="http://www.w3.org/2000/svg" xmlns="http://www.w3.org/2000/svg" viewBox="0 0 45 45" style="enable-background:new 0 0 45 45;" xml:space="preserve" version="1.1" id="svg2"><metadata id="metadata8"><rdf:RDF><cc:Work rdf:about=""><dc:format>image/svg+xml</dc:format><dc:type rdf:resource="http://purl.org/dc/dcmitype/StillImage"/></cc:Work></rdf:RDF></metadata><defs id="defs6"><clipPath id="clipPath16" clipPathUnits="userSpaceOnUse"><path id="path18" d="M 4,31 C 1.791,31 0,29.209 0,27 L 0,27 0,9 C 0,6.791 1.791,5 4,5 l 0,0 28,0 c 2.209,0 4,1.791 4,4 l 0,0 0,18 c 0,2.209 -1.791,4 -4,4 l 0,0 -28,0 z"/></clipPath></defs><g transform="matrix(1.25,0,0,-1.25,0,45)" id="g10"><g id="g12"><g clip-path="url(#clipPath16)" id="g14"><g id="g20"><path id="path22" style="fill:#0000cc;fill-opacity:1;fill-rule:nonzero;stroke:none" d="m 3e-4,5.0003 h 36 v 26.001 h -36 z"/></g><g id="g24"><path id="path26" style="fill:#fdcb00;fill-opacity:1;fill-rule:nonzero;stroke:none" d="M 30,9.769 27,13.236 24.001,9.769 21,13.236 18,9.769 15.001,13.236 12,9.769 9,13.236 6.001,9.769 3,13.236 0,9.769 V 5 h 36 v 4.769 l -2.999,3.467 z"/></g><g id="g28"><path id="path30" style="fill:#eeeeee;fill-opacity:1;fill-rule:nonzero;stroke:none" d="m 30,11.0659 -3,3.467 -2.999,-3.467 -3.001,3.467 -3,-3.467 -2.999,3.467 L 12,11.0659 9,14.5329 6.001,11.0659 3,14.5329 0,11.0659 v -1.297 l 3,3.467 3.001,-3.467 2.999,3.467 3,-3.467 3.001,3.467 2.999,-3.467 3,3.467 3.001,-3.467 2.999,3.467 3,-3.467 3.001,3.467 L 36,9.7689 v 1.297 l -2.999,3.467 z"/></g><g id="g32"><path id="path34" style="fill:#eeeeee;fill-opacity:1;fill-rule:nonzero;stroke:none" d="m 7.3724,28.8153 0.904,-0.982 1.199,0.586 -0.655,-1.163 0.928,-0.958 -1.308,0.264 -0.625,-1.181 -0.153,1.327 -1.316,0.229 1.214,0.556 z"/></g><g id="g36"><path id="path38" style="fill:#eeeeee;fill-opacity:1;fill-rule:nonzero;stroke:none" d="m 19.7679,29.4403 0.904,-0.982 1.2,0.586 -0.656,-1.163 0.929,-0.958 -1.309,0.264 -0.625,-1.181 -0.153,1.327 -1.315,0.229 1.213,0.556 z"/></g><g id="g40"><path id="path42" style="fill:#eeeeee;fill-opacity:1;fill-rule:nonzero;stroke:none" d="m 11.4764,19.4193 0.904,-0.982 1.199,0.587 -0.655,-1.163 0.929,-0.959 -1.309,0.263 -0.625,-1.18 -0.153,1.327 -1.315,0.23 1.213,0.555 z"/></g><g id="g44"><path id="path46" style="fill:#eeeeee;fill-opacity:1;fill-rule:nonzero;stroke:none" d="m 3.7264,21.3963 0.904,-0.983 1.199,0.587 -0.655,-1.163 0.929,-0.959 -1.309,0.264 -0.625,-1.18 -0.153,1.327 -1.315,0.229 1.213,0.556 z"/></g><g id="g48"><path id="path50" style="fill:#eeeeee;fill-opacity:1;fill-rule:nonzero;stroke:none" d="m 13.6165,26.2005 0.462,-0.503 0.614,0.301 -0.335,-0.595 0.475,-0.491 -0.67,0.135 -0.319,-0.604 -0.079,0.679 -0.673,0.117 0.621,0.285 z"/></g></g></g></g></svg>