<svg xmlns:dc="http://purl.org/dc/elements/1.1/" xmlns:cc="http://creativecommons.org/ns#" xmlns:rdf="http://www.w3.org/1999/02/22-rdf-syntax-ns#" xmlns:svg="http://www.w3.org/2000/svg" xmlns="http://www.w3.org/2000/svg" viewBox="0 0 45 45" style="enable-background:new 0 0 45 45;" xml:space="preserve" version="1.1" id="svg2"><metadata id="metadata8"><rdf:RDF><cc:Work rdf:about=""><dc:format>image/svg+xml</dc:format><dc:type rdf:resource="http://purl.org/dc/dcmitype/StillImage"/></cc:Work></rdf:RDF></metadata><defs id="defs6"><clipPath id="clipPath16" clipPathUnits="userSpaceOnUse"><path id="path18" d="M 0,36 36,36 36,0 0,0 0,36 Z"/></clipPath></defs><g transform="matrix(1.25,0,0,-1.25,0,45)" id="g10"><g id="g12"><g xmlns="http://www.w3.org/2000/svg" clip-path="url(#clipPath16)" id="g14"><g id="g30"><path id="path20" style="fill:#f7b60f;fill-opacity:1;fill-rule:nonzero;stroke:none" d="M 0,18 0,9 C 0,6.791 1.791,5 4,5 l 28,0 c 2.209,0 4,1.791 4,4 L 36,17.985 0,18 z"/><path id="path21" style="fill:#0d6794;fill-opacity:1;fill-rule:nonzero;stroke:none" d="m 36,17.9854 0,9.015 c 0,2.209 -1.791,4 -4,4 l -28,0 c -2.209,0 -4,-1.791 -4,-4 l 0,-9 36,-0.015 z"/></g><g id="g34"><path id="path30" style="fill:#f7b60f;fill-opacity:1;fill-rule:nonzero;stroke:none" d="m 26.5469,18 c 0,4.72 -3.826,8.547 -8.547,8.547 -4.72,0 -8.547,-3.827 -8.547,-8.547 0,-4.721 3.827,-8.547 8.547,-8.547 4.721,0 8.547,3.826 8.547,8.547"/><path id="path31" style="fill:#fdfdfb;fill-opacity:1;fill-rule:nonzero;stroke:none" d="m 26.0781,18 c 0,4.461 -3.617,8.078 -8.078,8.078 -4.462,0 -8.078,-3.617 -8.078,-8.078 0,-4.461 3.616,-8.078 8.078,-8.078 4.461,0 8.078,3.617 8.078,8.078"/><path id="path32" style="fill:#275440;fill-opacity:1;fill-rule:nonzero;stroke:none" d="m 24.7656,18 c 0,3.736 -3.029,6.766 -6.766,6.766 -3.736,0 -6.765,-3.03 -6.765,-6.766 0,-3.736 3.029,-6.766 6.765,-6.766 3.737,0 6.766,3.03 6.766,6.766"/><path id="path33" style="fill:#df4627;fill-opacity:1;fill-rule:nonzero;stroke:none" d="m 18,21.1592 c 1.245,0 1.786,0.29 1.786,0.498 0,0 -0.541,0.439 -1.786,0.439 -1.245,0 -1.786,-0.439 -1.786,-0.439 0,-0.208 0.541,-0.498 1.786,-0.498"/><path id="path34" style="fill:#f5b600;fill-opacity:1;fill-rule:nonzero;stroke:none" d="m 18,22.0962 c -1.245,0 -1.786,-0.439 -1.786,-0.439 l -0.424,0.933 -0.729,0.769 c 0,0 0.514,1.278 2.939,1.278 2.426,0 2.939,-1.278 2.939,-1.278 l -0.729,-0.769 -0.424,-0.933 c 0,0 -0.541,0.439 -1.786,0.439"/><path id="path35" style="fill:#f5b600;fill-opacity:1;fill-rule:nonzero;stroke:none" d="m 18,11.457 c -0.149,0 -0.167,0.267 -0.167,0.267 0,0 -0.055,-0.335 -0.513,-0.053 -0.273,0.167 -0.179,0.471 -0.179,0.471 0,0 -0.553,-0.295 -0.615,0.252 -0.035,0.316 0.172,0.465 0.433,0.417 0.151,-0.028 0.22,0.146 0.189,0.207 -0.076,0.149 -0.218,0.082 -0.289,0.008 -0.167,-0.172 -0.289,0 -0.289,0 0,0 -0.018,-0.089 -0.095,-0.149 -0.071,-0.057 -0.222,-0.049 -0.269,0.024 -0.045,0.072 -0.013,0.166 -0.013,0.166 0,0 -0.32,-0.032 -0.32,0.424 0,0.456 0.468,0.415 0.468,0.415 0,0 -0.525,0.145 -0.888,0.594 -0.349,0.432 -0.602,0.859 -0.58,1.1 0.015,0.17 0.084,0.287 0.193,0.334 0.13,0.054 0.273,-0.03 0.273,-0.03 l 0.175,0.355 c 0,0 -0.128,-0.101 -0.226,-0.08 -0.133,0.027 -0.153,0.189 -0.051,0.235 0.102,0.045 0.226,0.063 0.24,0.36 0.013,0.298 -0.287,0.343 -0.165,0.506 0.121,0.163 0.235,-0.088 0.235,-0.088 0,0 0.045,0.204 -0.002,0.277 -0.112,0.172 -0.212,0.102 -0.365,0.06 -0.153,-0.041 -0.217,0.061 -0.217,0.061 0,0 -0.148,-0.145 -0.279,-0.102 -0.117,0.04 -0.19,0.156 -0.186,0.295 0.009,0.34 0.382,0.454 0.382,0.454 0,0 -0.494,0.22 -0.494,0.722 0,1.066 1.326,1.09 1.859,1.451 0.235,0.159 0.375,0.362 0.375,0.362 0,0 -0.103,0.133 0.031,0.203 0.071,0.037 0.203,0.011 0.211,-0.072 0.009,-0.083 0.044,-0.122 0.115,-0.122 0.056,0 0.105,0.085 0.105,0.085 0,0 -0.054,0.01 -0.046,0.073 0.008,0.061 0.066,0.077 0.066,0.077 0,0 -0.138,0.226 0.092,0.301 0.114,0.037 0.212,-0.131 0.212,-0.131 0,0 0.055,0.073 0.157,0.092 0.108,0.02 0.218,-0.025 0.218,-0.025 0,0 -0.067,0.064 -0.069,0.192 -0.005,0.259 0.142,0.385 0.288,0.385 0.146,0 0.293,-0.126 0.288,-0.385 -0.002,-0.128 -0.069,-0.192 -0.069,-0.192 0,0 0.11,0.045 0.218,0.025 0.102,-0.019 0.157,-0.092 0.157,-0.092 0,0 0.098,0.168 0.212,0.131 0.23,-0.075 0.092,-0.301 0.092,-0.301 0,0 0.058,-0.016 0.066,-0.077 0.008,-0.063 -0.045,-0.073 -0.045,-0.073 0,0 0.048,-0.085 0.104,-0.085 0.071,0 0.106,0.039 0.115,0.122 0.008,0.083 0.14,0.109 0.211,0.072 0.133,-0.07 0.031,-0.203 0.031,-0.203 0,0 0.14,-0.203 0.375,-0.362 0.533,-0.361 1.858,-0.385 1.858,-1.451 0,-0.502 -0.494,-0.722 -0.494,-0.722 0,0 0.373,-0.114 0.383,-0.454 0.004,-0.139 -0.068,-0.255 -0.187,-0.295 -0.129,-0.043 -0.278,0.102 -0.278,0.102 0,0 -0.064,-0.102 -0.218,-0.061 -0.152,0.042 -0.253,0.112 -0.364,-0.06 -0.047,-0.073 -0.002,-0.277 -0.002,-0.277 0,0 0.113,0.251 0.235,0.088 0.122,-0.163 -0.178,-0.208 -0.165,-0.506 0.014,-0.297 0.138,-0.315 0.24,-0.36 0.101,-0.046 0.082,-0.208 -0.051,-0.235 -0.098,-0.021 -0.226,0.08 -0.226,0.08 l 0.175,-0.355 c 0,0 0.143,0.084 0.273,0.03 0.109,-0.047 0.177,-0.164 0.194,-0.334 0.021,-0.241 -0.232,-0.668 -0.581,-1.1 -0.363,-0.449 -0.888,-0.594 -0.888,-0.594 0,0 0.468,0.041 0.468,-0.415 0,-0.456 -0.32,-0.424 -0.32,-0.424 0,0 0.032,-0.094 -0.013,-0.166 -0.047,-0.073 -0.198,-0.081 -0.269,-0.024 -0.077,0.06 -0.095,0.149 -0.095,0.149 0,0 -0.122,-0.172 -0.289,0 -0.072,0.074 -0.213,0.141 -0.289,-0.008 -0.031,-0.061 0.038,-0.235 0.189,-0.207 0.261,0.048 0.468,-0.101 0.433,-0.417 -0.062,-0.547 -0.616,-0.252 -0.616,-0.252 0,0 0.094,-0.304 -0.177,-0.471 -0.459,-0.282 -0.514,0.053 -0.514,0.053 0,0 -0.018,-0.267 -0.167,-0.267"/><path id="path36" style="fill:#006692;fill-opacity:1;fill-rule:nonzero;stroke:none" d="m 15.9683,17.208 c 0,0 0.091,0.017 0.116,-0.014 0.046,-0.051 0.097,-0.245 0.168,-0.454 0.152,-0.455 0.524,-0.775 0.524,-0.775 0,0 0.129,0.135 0.227,0.291 0.102,0.164 0.174,0.349 0.203,0.37 0.024,0.017 0.158,0.015 0.174,0.035 0.027,0.035 0.073,0.345 0.167,0.479 0.016,0.021 0.086,0.03 0.106,0.05 0.031,0.033 0.098,0.565 0.098,0.565 0,0 0.106,0.059 0.249,0.059 0.143,0 0.249,-0.059 0.249,-0.059 0,0 0.067,-0.532 0.098,-0.565 0.02,-0.02 0.09,-0.029 0.106,-0.05 0.094,-0.134 0.14,-0.444 0.167,-0.479 0.015,-0.02 0.15,-0.018 0.174,-0.035 0.028,-0.021 0.1,-0.206 0.203,-0.37 0.097,-0.156 0.226,-0.291 0.226,-0.291 0,0 0.372,0.32 0.525,0.775 0.07,0.209 0.122,0.403 0.167,0.454 0.025,0.031 0.116,0.014 0.116,0.014 -0.005,0.076 -0.008,0.155 -0.008,0.239 0,0.753 0.453,1.359 0.453,1.359 l -4.953,0 c 0,0 0.453,-0.606 0.453,-1.359 0,-0.084 -0.003,-0.163 -0.008,-0.239"/><path id="path37" style="fill:#009533;fill-opacity:1;fill-rule:nonzero;stroke:none" d="m 15.9683,17.208 c 0,0 0.091,0.017 0.116,-0.014 0.046,-0.051 0.097,-0.245 0.168,-0.454 0.152,-0.455 0.524,-0.775 0.524,-0.775 0,0 0.129,0.135 0.227,0.291 0.102,0.164 0.174,0.349 0.203,0.37 0.024,0.017 0.158,0.015 0.174,0.035 0.027,0.035 0.073,0.345 0.167,0.479 0.016,0.021 0.086,0.03 0.106,0.05 0.031,0.033 0.098,0.565 0.098,0.565 0,0 0.106,0.059 0.249,0.059 0.143,0 0.249,-0.059 0.249,-0.059 0,0 0.067,-0.532 0.098,-0.565 0.02,-0.02 0.09,-0.029 0.106,-0.05 0.094,-0.134 0.14,-0.444 0.167,-0.479 0.015,-0.02 0.15,-0.018 0.174,-0.035 0.028,-0.021 0.1,-0.206 0.203,-0.37 0.097,-0.156 0.226,-0.291 0.226,-0.291 0,0 0.372,0.32 0.525,0.775 0.07,0.209 0.122,0.403 0.167,0.454 0.025,0.031 0.116,0.014 0.116,0.014 0.07,-1.007 0.559,-1.359 0.321,-1.932 -0.3,-0.723 -0.87,-0.858 -0.87,-0.858 0,0 -0.317,-0.965 -1.482,-0.965 -1.165,0 -1.483,0.965 -1.483,0.965 0,0 -0.57,0.135 -0.87,0.858 -0.238,0.573 0.252,0.925 0.321,1.932"/></g></g></g></g></svg>