<svg xmlns:dc="http://purl.org/dc/elements/1.1/" xmlns:cc="http://creativecommons.org/ns#" xmlns:rdf="http://www.w3.org/1999/02/22-rdf-syntax-ns#" xmlns:svg="http://www.w3.org/2000/svg" xmlns="http://www.w3.org/2000/svg" viewBox="0 0 45 45" style="enable-background:new 0 0 45 45;" xml:space="preserve" version="1.1" id="svg2"><metadata id="metadata8"><rdf:RDF><cc:Work rdf:about=""><dc:format>image/svg+xml</dc:format><dc:type rdf:resource="http://purl.org/dc/dcmitype/StillImage"/></cc:Work></rdf:RDF></metadata><defs id="defs6"><clipPath id="clipPath16" clipPathUnits="userSpaceOnUse"><path id="path18" d="M 0,36 36,36 36,0 0,0 0,36 Z"/></clipPath></defs><g transform="matrix(1.25,0,0,-1.25,0,45)" id="g10"><g id="g12"><g xmlns="http://www.w3.org/2000/svg" clip-path="url(#clipPath16)" id="g14"><g id="g30"><path id="path20" style="fill:#db0913;fill-opacity:1;fill-rule:nonzero;stroke:none" d="M 18,31 4,31 C 1.791,31 0,29.209 0,27 l 0,-9 18,0 0,13 z"/><path id="path21" style="fill:#db0913;fill-opacity:1;fill-rule:nonzero;stroke:none" d="m 18,5 14,0 c 2.209,0 4,1.791 4,4 l 0,9 -18,0 0,-13 z"/><path id="path22" style="fill:#ffffff;fill-opacity:1;fill-rule:nonzero;stroke:none" d="m 36,18 0,9 c 0,2.209 -1.791,4 -4,4 l -14,0 0,-13 18,0 z"/><path id="path23" style="fill:#ffffff;fill-opacity:1;fill-rule:nonzero;stroke:none" d="M 18,18 0,18 0,9 C 0,6.791 1.791,5 4,5 l 14,0 0,13 z"/></g><g id="g34"><path id="path30" style="fill:#752864;fill-opacity:1;fill-rule:nonzero;stroke:none" d="m 29.0254,23.249 -0.945,0.839 -0.345,1.077 0.6,1.073 0.255,-0.076 0.157,1.032 0.132,-0.053 0.121,0.977 -0.651,0.85 -0.323,0.032 -0.515,-0.176 -0.346,0.132 -0.307,-0.124 0.104,-0.258 0.459,-0.256 0.079,-0.309 -0.118,-0.124 -0.209,0.133 -0.255,0 -0.11,-0.098 0.453,-0.402 -1.27,-0.315 0,-0.659 -0.541,-0.103 -0.518,0.553 -0.109,0.906 -0.25,0.168 0.044,-0.309 -0.464,0.12 0.023,-0.429 -0.285,-0.356 0.512,-0.135 0.57,-1.221 -0.344,-1.12 0.75,-0.233 -0.403,-0.576 -0.485,-0.088 -0.318,-0.174 0.403,-0.15 -0.344,-0.48 0.462,-0.023 0.061,-0.42 0.291,0.161 0.157,0.621 0.511,0.406 0.451,0.147 0.629,-0.45 0.875,-0.012 0.235,-0.231 -0.506,-0.138 -0.651,0.185 -0.953,-0.373 0.176,-0.62 -0.035,-0.749 0.376,0.059 0,-0.302 -0.443,-0.196 -0.364,0.346 -0.259,0.035 0.017,-0.418 -0.498,-0.173 0.469,-0.139 0.025,-0.506 0.873,0.212 0.267,0.443 0.092,-0.209 0.521,0.886 -0.194,0.806 1.083,0.376 -0.612,-0.937 0.023,-0.702 0.271,0.247 0.47,-0.69 0.189,0.376 0.627,0.216 0.416,-0.494 -0.792,-0.13 -0.13,-0.235 0.346,-0.082 -0.271,-0.263 0.349,-0.125 0.498,0.298 0,-0.479 0.353,0.141 0.502,0.82 -0.467,0.361 0.172,0.18 -0.607,0.694 -0.424,-0.192 -0.321,0.314 0.372,0.427 0.231,0.592 c 0,0 0.825,0.212 0.825,0.879 0,0.784 -0.918,1.833 -0.918,2.337 0,0.341 0.447,0.345 0.447,0.345 l 0.07,-0.808 0.337,-0.172 0.165,-0.385 0.016,0.432 -0.173,0.298 0.063,0.463 -0.439,0.415 c 0,0 -0.666,0.055 -0.666,-0.761 0,-0.658 0.925,-1.293 0.925,-2.219 0,-0.541 -0.722,-0.553 -0.722,-0.553"/><path id="path31" style="fill:#fcde02;fill-opacity:1;fill-rule:nonzero;stroke:none" d="m 26.2227,16.3887 -0.307,-0.269 0,-0.731 0.174,-0.131 0,-1.685 -0.419,0 0,0.868 0.113,0.159 0,0.531 -0.222,0.258 -0.899,0 -0.225,-0.263 0,-0.508 0.135,-0.213 0,-1.07 -0.569,-0.311 0,-0.792 0.189,-0.294 0,-3.163 -0.5,-0.43 0,-1.018 0.986,-0.652 2.304,0 2.303,0 0.987,0.652 0,1.018 -0.5,0.43 0,3.163 0.188,0.294 0,0.792 -0.568,0.311 0,1.07 0.135,0.213 0,0.507 -0.226,0.264 -0.898,0 -0.222,-0.258 0,-0.531 0.112,-0.159 0,-0.868 -0.419,0 0,1.685 0.174,0.131 0,0.731 -0.306,0.269 -1.52,0 z"/><path id="path32" style="fill:#fcde02;fill-opacity:1;fill-rule:nonzero;stroke:none" d="m 28.3496,28.9678 0.65,-0.85 0.451,-0.074 -0.174,0.315 0.112,0.206 -0.28,0.053 0.036,0.308 -0.268,0.042 -0.012,0.227 -0.182,-0.057 -0.25,0.259 -0.083,-0.429 z"/><path id="path33" style="fill:#752864;fill-opacity:1;fill-rule:nonzero;stroke:none" d="m 11.0254,10.249 -0.945,0.839 -0.345,1.077 0.6,1.073 0.256,-0.076 0.156,1.032 0.132,-0.052 0.121,0.975 -0.65,0.851 -0.324,0.032 -0.515,-0.177 -0.347,0.133 -0.306,-0.124 0.104,-0.259 0.458,-0.256 0.08,-0.308 -0.118,-0.123 -0.209,0.132 -0.256,0 -0.109,-0.097 0.453,-0.403 -1.27,-0.315 0,-0.659 -0.541,-0.103 -0.518,0.553 -0.109,0.906 -0.25,0.167 0.044,-0.308 -0.465,0.121 0.024,-0.43 -0.285,-0.356 0.511,-0.135 0.571,-1.221 -0.344,-1.121 0.75,-0.231 -0.403,-0.577 -0.485,-0.088 -0.318,-0.174 0.403,-0.15 -0.344,-0.479 0.462,-0.023 0.061,-0.421 0.291,0.162 0.157,0.62 0.511,0.406 0.45,0.147 0.63,-0.451 0.874,-0.011 0.235,-0.232 -0.505,-0.137 -0.651,0.185 -0.953,-0.373 0.176,-0.619 -0.035,-0.749 0.376,0.058 0,-0.301 -0.443,-0.197 -0.364,0.345 -0.259,0.035 0.017,-0.417 -0.498,-0.173 0.469,-0.138 0.025,-0.506 0.873,0.211 0.267,0.443 0.092,-0.21 0.521,0.887 -0.194,0.806 1.083,0.377 -0.612,-0.938 0.023,-0.702 0.271,0.247 0.47,-0.69 0.189,0.377 0.627,0.215 0.416,-0.494 -0.792,-0.13 -0.13,-0.235 0.346,-0.082 -0.271,-0.263 0.349,-0.126 0.498,0.298 0,-0.477 0.353,0.14 0.502,0.82 -0.467,0.361 0.173,0.181 -0.608,0.693 -0.423,-0.192 -0.322,0.314 0.372,0.428 0.232,0.591 c 0,0 0.823,0.212 0.823,0.878 0,0.786 -0.917,1.834 -0.917,2.338 0,0.341 0.447,0.345 0.447,0.345 l 0.07,-0.808 0.338,-0.172 0.164,-0.384 0.016,0.43 -0.173,0.299 0.063,0.462 -0.439,0.416 c 0,0 -0.666,0.055 -0.666,-0.761 0,-0.659 0.925,-1.293 0.925,-2.219 0,-0.541 -0.722,-0.553 -0.722,-0.553"/><path id="path34" style="fill:#fcde02;fill-opacity:1;fill-rule:nonzero;stroke:none" d="m 8.2227,29.3892 -0.306,-0.269 0,-0.732 0.173,-0.13 0,-1.686 -0.419,0 0,0.868 0.113,0.16 0,0.531 -0.222,0.257 -0.899,0 -0.226,-0.263 0,-0.507 0.136,-0.214 0,-1.069 -0.569,-0.312 0,-0.792 0.189,-0.294 0,-3.163 -0.5,-0.429 0,-1.018 0.986,-0.653 2.304,0 2.303,0 0.987,0.653 0,1.018 -0.5,0.429 0,3.163 0.188,0.294 0,0.792 -0.569,0.312 0,1.069 0.136,0.214 0,0.507 -0.226,0.263 -0.898,0 -0.223,-0.257 0,-0.531 0.113,-0.16 0,-0.868 -0.419,0 0,1.686 0.174,0.13 0,0.732 -0.306,0.269 -1.52,0 z"/><path id="path35" style="fill:#fcde02;fill-opacity:1;fill-rule:nonzero;stroke:none" d="m 10.3501,15.9678 0.65,-0.851 0.45,-0.073 -0.174,0.315 0.112,0.206 -0.279,0.052 0.035,0.31 -0.268,0.041 -0.011,0.227 -0.183,-0.056 -0.25,0.259 -0.082,-0.43 z"/></g></g></g></g></svg>