<svg xmlns:dc="http://purl.org/dc/elements/1.1/" xmlns:cc="http://creativecommons.org/ns#" xmlns:rdf="http://www.w3.org/1999/02/22-rdf-syntax-ns#" xmlns:svg="http://www.w3.org/2000/svg" xmlns="http://www.w3.org/2000/svg" viewBox="0 0 45 45" style="enable-background:new 0 0 45 45;" xml:space="preserve" version="1.1" id="svg2"><metadata id="metadata8"><rdf:RDF><cc:Work rdf:about=""><dc:format>image/svg+xml</dc:format><dc:type rdf:resource="http://purl.org/dc/dcmitype/StillImage"/></cc:Work></rdf:RDF></metadata><defs id="defs6"><clipPath id="clipPath16" clipPathUnits="userSpaceOnUse"><path id="path18" d="M 0,36 36,36 36,0 0,0 0,36 Z"/></clipPath></defs><g transform="matrix(1.25,0,0,-1.25,0,45)" id="g10"><g id="g12"><g xmlns="http://www.w3.org/2000/svg" clip-path="url(#clipPath16)" id="g14"><g id="g30"><path id="path20" style="fill:#004614;fill-opacity:1;fill-rule:nonzero;stroke:none" d="M 32,31 4,31 C 1.791,31 0,29.209 0,27 L 0,9 C 0,6.791 1.791,5 4,5 l 28,0 c 2.209,0 4,1.791 4,4 l 0,18 c 0,2.209 -1.791,4 -4,4"/></g><g id="g34"><path id="path30" style="fill:#ffffff;fill-opacity:1;fill-rule:nonzero;stroke:none" d="m 22.3467,12.835 -0.227,4.306 -0.534,0 0,-0.195 -0.208,0 0,0.195 -0.554,0 0,-0.195 -0.209,0 0,0.195 -0.539,0 -0.066,-0.837 -0.296,0 0,-0.336 -0.25,0 0,0.336 -0.544,0 0,-0.336 -0.248,0 0,0.336 -0.55,0 0,-0.336 -0.244,0 0,0.336 -0.55,0 0,-0.336 -0.248,0 0,0.336 -0.544,0 0,-0.336 -0.25,0 0,0.336 -0.295,0 -0.066,0.837 -0.539,0 0,-0.195 -0.209,0 0,0.195 -0.555,0 0,-0.195 -0.208,0 0,0.195 -0.534,0 -0.227,-4.306 8.694,0 z"/><path id="path31" style="fill:#ffffff;fill-opacity:1;fill-rule:nonzero;stroke:none" d="m 18,8.4629 c -2.94,0 -5.197,0.577 -6.326,0.939 l -0.174,-0.511 -1.378,0.543 -0.289,-0.958 -0.405,1.311 0.788,2.266 1.111,-0.361 0.108,0.401 0.108,-0.052 c 0.02,-0.009 2.054,-0.957 6.457,-0.957 4.403,0 6.437,0.948 6.457,0.957 l 0.108,0.052 0.109,-0.401 1.11,0.361 0.788,-2.266 -0.405,-1.311 -0.289,0.958 -1.378,-0.543 -0.174,0.511 C 23.197,9.0399 20.94,8.4629 18,8.4629 m 0,0.199 c 3.828,0 6.48,0.986 6.965,1.179 l -0.531,1.972 c -0.478,-0.199 -2.501,-0.928 -6.434,-0.928 -3.933,0 -5.956,0.729 -6.434,0.928 L 11.035,9.8409 C 11.52,9.6479 14.172,8.6619 18,8.6619 m -7.203,1.064 0.477,1.772 -0.933,0.305 -0.692,-1.988 1.585,-0.609 -0.437,0.52 m 0.688,-0.261 -0.318,0.11 0.251,-0.303 0.067,0.193 z m -1.804,0.127 0.144,-0.448 0.109,0.357 -0.253,0.091 z m 15.522,0.134 -0.437,-0.52 1.585,0.609 -0.692,1.988 -0.933,-0.305 0.477,-1.772 m -0.371,-0.151 -0.317,-0.11 0.067,-0.193 0.25,0.303 z m 1.234,-0.074 0.109,-0.357 0.144,0.448 -0.253,-0.091 z"/><path id="path32" style="fill:#ffffff;fill-opacity:1;fill-rule:nonzero;stroke:none" d="m 11.5474,19.3672 1.184,-0.959 1.748,1.805 3.511,-3.516 3.617,3.575 1.695,-1.884 1.149,0.988 c -0.759,2.851 -3.363,4.958 -6.451,4.958 -3.091,0 -5.697,-2.111 -6.453,-4.967 m -0.053,-0.214 c -0.11,-0.48 -0.168,-0.98 -0.168,-1.493 0,-3.681 2.993,-6.675 6.674,-6.675 3.68,0 6.674,2.994 6.674,6.675 0,0.514 -0.058,1.015 -0.169,1.496 l -1.22,-1.047 -1.686,1.873 -3.61,-3.566 -3.508,3.512 -1.734,-1.791 -1.253,1.016 z m 5.184,-8.24 c -3.16,0.618 -5.552,3.408 -5.552,6.747 0,3.79 3.083,6.874 6.874,6.874 3.791,0 6.874,-3.084 6.874,-6.874 0,-3.339 -2.393,-6.129 -5.553,-6.747 l -2.643,0 z"/><path id="path33" style="fill:#ffffff;fill-opacity:1;fill-rule:nonzero;stroke:none" d="m 22.0059,11.2959 c 0,0 0.957,0.934 1.64,1.545 0.681,0.612 1.222,1.019 1.222,1.019 0,0 -0.092,0.924 0,1.79 0.126,1.167 0.871,2.611 0.871,2.611 0,0 -0.502,0.29 -0.729,1.067 -0.228,0.776 -0.063,1.615 -0.063,1.615 0,0 -0.815,0.393 -1.137,1.231 -0.322,0.84 -0.361,1.193 -0.361,1.193 0,0 -0.416,0.196 -1.05,0.792 -0.636,0.596 -0.942,1.231 -0.942,1.231 0,0 1.749,-0.321 2.486,-1.019 0.738,-0.699 1.248,-2.526 1.248,-2.526 0,0 0.015,0.173 0.046,0.377 0.032,0.203 0.181,0.564 0.181,0.564 0,0 0.792,-1.255 0.965,-2.298 0.172,-1.043 -0.204,-3.301 -0.204,-3.301 0,0 0.195,0.666 0.313,0.964 0.118,0.298 0.416,0.635 0.416,0.635 0,0 0.11,-0.855 -0.055,-1.796 -0.164,-0.941 -1.372,-2.321 -1.372,-2.321 0,0 0.165,0.156 0.509,0.298 0.345,0.141 0.526,0.148 0.526,0.148 0,0 -0.306,-0.901 -1.255,-1.975 -0.949,-1.075 -1.765,-1.506 -1.765,-1.506 l -1.49,-0.338 z"/><path id="path34" style="fill:#ffffff;fill-opacity:1;fill-rule:nonzero;stroke:none" d="m 13.9951,11.2959 c 0,0 -0.957,0.934 -1.639,1.545 -0.683,0.612 -1.224,1.019 -1.224,1.019 0,0 0.093,0.924 0,1.79 -0.125,1.167 -0.87,2.611 -0.87,2.611 0,0 0.502,0.29 0.729,1.067 0.228,0.776 0.063,1.615 0.063,1.615 0,0 0.816,0.393 1.137,1.231 0.322,0.84 0.361,1.193 0.361,1.193 0,0 0.416,0.196 1.051,0.792 0.635,0.596 0.941,1.231 0.941,1.231 0,0 -1.749,-0.321 -2.486,-1.019 -0.737,-0.699 -1.248,-2.526 -1.248,-2.526 0,0 -0.015,0.173 -0.046,0.377 -0.032,0.203 -0.181,0.564 -0.181,0.564 0,0 -0.792,-1.255 -0.964,-2.298 -0.173,-1.043 0.204,-3.301 0.204,-3.301 0,0 -0.197,0.666 -0.314,0.964 -0.118,0.298 -0.416,0.635 -0.416,0.635 0,0 -0.11,-0.855 0.055,-1.796 0.164,-0.941 1.372,-2.321 1.372,-2.321 0,0 -0.164,0.156 -0.509,0.298 -0.346,0.141 -0.526,0.148 -0.526,0.148 0,0 0.306,-0.901 1.255,-1.975 0.949,-1.075 1.765,-1.506 1.765,-1.506 l 1.49,-0.338 z"/><path id="path35" style="fill:#ffffff;fill-opacity:1;fill-rule:nonzero;stroke:none" d="m 17.0342,21.083 c 0,0 -0.254,0.303 -0.467,0.201 -0.213,-0.101 -0.012,-0.548 -0.012,-0.548 l -0.274,-0.22 c 0,0 -0.306,0.279 -0.491,0.156 -0.176,-0.118 0.036,-0.461 0.036,-0.461 l -0.328,-0.274 c 0,0 -0.08,-0.185 -0.032,-0.228 0.073,-0.068 0.321,0.049 0.321,0.049 l 0.322,0.268 c 0,0 0.688,-0.388 1.061,-0.106 0.308,0.233 0.027,0.874 0.027,0.874 0,0 0.375,0.28 0.802,0.623 0.429,-0.344 0.804,-0.623 0.804,-0.623 0,0 -0.282,-0.641 0.027,-0.874 0.373,-0.282 1.06,0.106 1.06,0.106 l 0.323,-0.268 c 0,0 0.248,-0.117 0.321,-0.049 0.047,0.043 -0.032,0.228 -0.032,0.228 l -0.328,0.274 c 0,0 0.212,0.343 0.035,0.461 -0.184,0.123 -0.49,-0.156 -0.49,-0.156 l -0.274,0.22 c 0,0 0.2,0.447 -0.013,0.548 -0.212,0.102 -0.466,-0.201 -0.466,-0.201 0,0 -0.286,0.18 -0.732,0.525 0.174,0.143 0.347,0.291 0.498,0.428 0.616,0.558 0.723,1.401 0.723,1.401 0,0 -0.418,-0.776 -1.241,-1.466 -0.074,-0.062 -0.145,-0.121 -0.214,-0.177 -0.069,0.056 -0.14,0.115 -0.214,0.177 -0.823,0.69 -1.241,1.466 -1.241,1.466 0,0 0.106,-0.843 0.722,-1.401 0.151,-0.137 0.324,-0.284 0.497,-0.427 -0.442,-0.343 -0.73,-0.526 -0.73,-0.526 m 2.505,-0.76 c 0,0 -0.044,-0.059 -0.229,-0.22 -0.183,-0.161 -0.25,-0.187 -0.25,-0.187 0,0 0.018,0.159 0.07,0.306 0.051,0.147 0.145,0.291 0.145,0.291 l 0.264,-0.19 z m -3.078,0 0.264,0.19 c 0,0 0.094,-0.144 0.145,-0.291 0.052,-0.147 0.069,-0.306 0.069,-0.306 0,0 -0.066,0.026 -0.25,0.187 -0.184,0.161 -0.228,0.22 -0.228,0.22"/><path id="path36" style="fill:#ffffff;fill-opacity:1;fill-rule:nonzero;stroke:none" d="m 17.2036,27.1143 0.083,-0.362 0.363,-0.072 -0.319,-0.19 0.044,-0.369 -0.279,0.244 -0.337,-0.154 0.146,0.341 -0.252,0.272 0.37,-0.034 0.181,0.324 z"/><path id="path37" style="fill:#ffffff;fill-opacity:1;fill-rule:nonzero;stroke:none" d="m 16.8389,25.6929 c 0.211,-0.433 0.555,-0.831 1.24,-0.831 0.718,0 1.301,0.582 1.301,1.301 0,0.718 -0.583,1.301 -1.301,1.301 -0.206,0 -0.401,-0.048 -0.573,-0.132 0.11,0.035 0.227,0.053 0.349,0.053 0.632,0 1.145,-0.512 1.145,-1.145 0,-0.633 -0.513,-1.146 -1.145,-1.146 -0.55,0 -0.809,0.297 -1.016,0.599"/><path id="path38" style="fill:#ffffff;fill-opacity:1;fill-rule:nonzero;stroke:none" d="m 13.3765,9.4902 0.216,0.002 0.256,1.406 -0.201,0.078 0.043,0.237 1.559,-0.284 -0.098,-0.537 -0.301,0.055 0.025,0.237 -0.639,0.117 -0.098,-0.54 0.686,-0.125 -0.055,-0.302 -0.686,0.125 -0.099,-0.538 0.203,-0.078 -0.043,-0.236 -0.811,0.148 0.043,0.235 z"/><path id="path39" style="fill:#ffffff;fill-opacity:1;fill-rule:nonzero;stroke:none" d="m 16.2871,9.6709 0.456,-0.031 -0.176,0.716 -0.008,0 -0.272,-0.685 z m -0.761,-0.541 0.144,0.011 0.723,1.685 0.408,-0.028 0.481,-1.768 0.14,-0.03 -0.016,-0.239 -0.677,0.047 0.016,0.238 0.14,0.016 -0.068,0.278 -0.644,0.045 -0.106,-0.267 0.136,-0.034 -0.017,-0.239 -0.676,0.047 0.016,0.238 z"/><path id="path40" style="fill:#ffffff;fill-opacity:1;fill-rule:nonzero;stroke:none" d="m 19.9336,10.8369 0.027,-0.53 -0.305,-0.016 -0.029,0.222 -0.365,-0.019 0.072,-1.401 0.215,-0.03 0.013,-0.239 -0.825,-0.043 -0.012,0.24 0.211,0.051 -0.072,1.401 -0.366,-0.019 -0.004,-0.223 -0.305,-0.016 -0.027,0.53 1.772,0.092 z"/><path id="path41" style="fill:#ffffff;fill-opacity:1;fill-rule:nonzero;stroke:none" d="m 21.4219,9.8779 0.45,0.079 -0.343,0.652 -0.007,-0.002 -0.1,-0.729 z m -0.608,-0.708 0.136,0.045 0.297,1.809 0.403,0.072 0.892,-1.602 0.144,0.005 0.041,-0.235 -0.668,-0.118 -0.041,0.236 0.132,0.048 -0.134,0.254 -0.636,-0.112 -0.039,-0.284 0.141,-0.001 0.041,-0.235 -0.667,-0.117 -0.042,0.235 z"/></g></g></g></g></svg>