<svg xmlns:dc="http://purl.org/dc/elements/1.1/" xmlns:cc="http://creativecommons.org/ns#" xmlns:rdf="http://www.w3.org/1999/02/22-rdf-syntax-ns#" xmlns:svg="http://www.w3.org/2000/svg" xmlns="http://www.w3.org/2000/svg" viewBox="0 0 45 45" style="enable-background:new 0 0 45 45;" xml:space="preserve" version="1.1" id="svg2"><metadata id="metadata8"><rdf:RDF><cc:Work rdf:about=""><dc:format>image/svg+xml</dc:format><dc:type rdf:resource="http://purl.org/dc/dcmitype/StillImage"/></cc:Work></rdf:RDF></metadata><defs id="defs6"><clipPath id="clipPath16" clipPathUnits="userSpaceOnUse"><path id="path18" d="M 0,36 36,36 36,0 0,0 0,36 Z"/></clipPath></defs><g transform="matrix(1.25,0,0,-1.25,0,45)" id="g10"><g id="g12"><g xmlns="http://www.w3.org/2000/svg" clip-path="url(#clipPath16)" id="g14"><g id="g30"><path id="path20" style="fill:#0075a9;fill-opacity:1;fill-rule:nonzero;stroke:none" d="M 0,9 C 0,6.791 1.791,5 4,5 l 28,0 c 2.209,0 4,1.791 4,4 l 0,18 c 0,2.209 -1.791,4 -4,4 L 4,31 C 1.791,31 0,29.209 0,27 L 0,9 z"/></g><g id="g34"><path id="path30" style="fill:#ffc500;fill-opacity:1;fill-rule:nonzero;stroke:none" d="m 15.8184,12.7334 0.313,-1.705 1.124,1.32 0.745,-1.566 0.744,1.566 1.124,-1.32 0.313,1.705 1.427,-0.983 -0.139,1.727 1.634,-0.581 -0.581,1.634 1.729,-0.139 -0.985,1.427 1.705,0.313 -1.32,1.124 1.566,0.745 -1.566,0.744 1.32,1.124 -1.705,0.313 0.985,1.427 -1.729,-0.138 0.581,1.633 -1.634,-0.581 0.139,1.728 -1.427,-0.984 -0.313,1.705 -1.124,-1.32 -0.744,1.566 -0.745,-1.566 -1.124,1.32 -0.313,-1.705 -1.427,0.984 0.138,-1.728 -1.633,0.581 0.581,-1.633 -1.728,0.138 0.984,-1.427 -1.705,-0.313 1.32,-1.124 -1.566,-0.744 1.566,-0.745 -1.32,-1.124 1.705,-0.313 -0.984,-1.427 1.728,0.139 -0.581,-1.634 1.633,0.581 -0.138,-1.727 1.427,0.983 z"/><path id="path31" style="fill:#ffffff;fill-opacity:1;fill-rule:nonzero;stroke:none" d="m 23.708,18 c 0,-3.152 -2.556,-5.708 -5.708,-5.708 -3.152,0 -5.708,2.556 -5.708,5.708 0,3.153 2.556,5.708 5.708,5.708 3.152,0 5.708,-2.555 5.708,-5.708"/></g><g id="g38"><path id="path40" style="fill:#ffc500;fill-opacity:1;fill-rule:nonzero;stroke:none" d="m 9.8364,20.0806 0.134,0.405 -1.098,0.365 0.108,0.325 1.098,-0.365 0.132,0.398 0.251,-0.083 -0.374,-1.128 -0.251,0.083 z"/><path id="path41" style="fill:#ffc500;fill-opacity:1;fill-rule:nonzero;stroke:none" d="m 8.4595,18.7764 0.048,0.337 0.588,-0.084 0.072,0.5 -0.588,0.084 0.048,0.339 1.408,-0.201 -0.049,-0.339 -0.558,0.079 -0.072,-0.499 0.559,-0.08 -0.049,-0.338 -1.407,0.202 z"/><path id="path42" style="fill:#ffc500;fill-opacity:1;fill-rule:nonzero;stroke:none" d="m 9.063,17.3398 -0.014,0.539 -0.34,-0.009 0.017,-0.637 -0.264,-0.006 -0.025,0.979 1.421,0.036 0.026,-0.98 -0.265,-0.008 -0.016,0.639 -0.3,-0.008 0.014,-0.539 -0.254,-0.006 z"/><path id="path43" style="fill:#ffc500;fill-opacity:1;fill-rule:nonzero;stroke:none" d="m 10.1201,15.9355 -0.853,-0.594 1.039,-0.012 0.132,-0.432 -1.36,-0.416 -0.101,0.328 0.318,0.098 0.659,0.167 -1.067,0.032 -0.067,0.217 0.867,0.626 -0.641,-0.231 -0.317,-0.097 -0.101,0.328 1.36,0.416 0.132,-0.43 z"/><path id="path44" style="fill:#ffc500;fill-opacity:1;fill-rule:nonzero;stroke:none" d="m 10.4033,13.5127 c 0.124,0.068 0.207,0.141 0.248,0.217 0.041,0.077 0.041,0.154 -0.002,0.23 -0.083,0.152 -0.24,0.168 -0.47,0.053 l -0.092,-0.05 c -0.122,-0.067 -0.205,-0.139 -0.248,-0.216 -0.043,-0.077 -0.043,-0.155 10e-4,-0.234 0.042,-0.076 0.106,-0.117 0.193,-0.122 0.088,-0.006 0.192,0.024 0.313,0.091 l 0.057,0.031 z m 0.116,-0.334 c -0.121,-0.067 -0.241,-0.103 -0.359,-0.11 -0.119,-0.007 -0.226,0.017 -0.322,0.073 -0.096,0.055 -0.174,0.136 -0.232,0.241 -0.058,0.107 -0.086,0.214 -0.082,0.323 0.003,0.109 0.037,0.211 0.103,0.307 0.065,0.096 0.156,0.178 0.272,0.244 l 0.07,0.039 c 0.122,0.068 0.242,0.105 0.36,0.111 0.118,0.006 0.225,-0.018 0.322,-0.074 0.097,-0.055 0.175,-0.136 0.233,-0.243 0.059,-0.105 0.085,-0.213 0.081,-0.323 -0.005,-0.11 -0.041,-0.214 -0.108,-0.312 -0.068,-0.096 -0.161,-0.178 -0.28,-0.245 l -0.058,-0.031 z"/><path id="path45" style="fill:#ffc500;fill-opacity:1;fill-rule:nonzero;stroke:none" d="m 12.0425,12.4316 -0.721,-0.589 c -0.082,-0.066 -0.167,-0.106 -0.255,-0.12 -0.088,-0.015 -0.174,-10e-4 -0.259,0.038 -0.084,0.04 -0.162,0.104 -0.235,0.192 -0.11,0.135 -0.161,0.269 -0.154,0.403 0.006,0.134 0.07,0.251 0.19,0.351 l 0.726,0.593 0.218,-0.267 -0.732,-0.597 c -0.118,-0.102 -0.132,-0.206 -0.044,-0.316 0.045,-0.054 0.094,-0.084 0.147,-0.087 0.054,-0.004 0.115,0.022 0.182,0.078 l 0.721,0.587 0.216,-0.266 z"/><path id="path46" style="fill:#ffc500;fill-opacity:1;fill-rule:nonzero;stroke:none" d="m 12.2617,10.332 -0.259,0.221 0.189,1.001 -0.574,-0.675 -0.26,0.223 0.921,1.083 0.261,-0.222 -0.19,-1 0.573,0.674 0.26,-0.222 -0.921,-1.083 z"/><path id="path47" style="fill:#ffc500;fill-opacity:1;fill-rule:nonzero;stroke:none" d="m 14.2651,10.4502 -0.368,0.216 -0.586,-0.998 -0.296,0.174 0.586,0.998 -0.361,0.212 0.134,0.227 1.025,-0.601 -0.134,-0.228 z"/><path id="path48" style="fill:#ffc500;fill-opacity:1;fill-rule:nonzero;stroke:none" d="m 15.3467,9.6133 0.208,-0.061 c 0.063,-0.018 0.114,-0.015 0.156,0.009 0.041,0.024 0.07,0.065 0.087,0.123 0.017,0.06 0.015,0.111 -0.008,0.154 -0.022,0.043 -0.064,0.073 -0.126,0.09 l -0.208,0.061 -0.109,-0.376 z m 0.104,-0.305 -0.178,0.052 -0.14,-0.483 -0.329,0.095 0.397,1.366 0.537,-0.157 c 0.162,-0.047 0.278,-0.119 0.348,-0.217 0.071,-0.099 0.087,-0.213 0.049,-0.345 -0.028,-0.095 -0.07,-0.168 -0.126,-0.219 -0.057,-0.052 -0.132,-0.085 -0.225,-0.099 l 0.125,-0.634 -0.004,-0.015 -0.353,0.103 -0.101,0.553 z"/><path id="path49" style="fill:#ffc500;fill-opacity:1;fill-rule:nonzero;stroke:none" d="m 17.6699,9.8516 -0.1,-0.925 c -0.011,-0.105 -0.043,-0.193 -0.096,-0.265 -0.053,-0.072 -0.123,-0.123 -0.211,-0.155 -0.088,-0.031 -0.189,-0.04 -0.303,-0.028 -0.172,0.019 -0.303,0.078 -0.393,0.178 -0.089,0.1 -0.126,0.228 -0.111,0.383 l 0.1,0.932 0.343,-0.037 -0.101,-0.938 c -0.013,-0.156 0.05,-0.241 0.19,-0.255 0.071,-0.008 0.126,0.006 0.167,0.041 0.04,0.034 0.065,0.095 0.075,0.182 l 0.099,0.924 0.341,-0.037 z"/><path id="path50" style="fill:#ffc500;fill-opacity:1;fill-rule:nonzero;stroke:none" d="m 18.8057,8.8516 c -0.003,0.05 -0.023,0.088 -0.061,0.113 -0.037,0.026 -0.101,0.051 -0.192,0.075 -0.091,0.024 -0.165,0.048 -0.224,0.073 -0.189,0.079 -0.289,0.197 -0.299,0.355 -0.005,0.078 0.013,0.15 0.056,0.212 0.042,0.064 0.103,0.114 0.185,0.153 0.082,0.039 0.175,0.061 0.28,0.068 0.102,0.007 0.193,-0.006 0.277,-0.037 0.083,-0.032 0.15,-0.079 0.199,-0.144 0.049,-0.064 0.076,-0.139 0.082,-0.225 l -0.341,-0.023 c -0.004,0.059 -0.024,0.102 -0.063,0.132 -0.037,0.029 -0.086,0.042 -0.146,0.038 -0.061,-0.004 -0.108,-0.02 -0.142,-0.05 -0.034,-0.028 -0.049,-0.064 -0.047,-0.105 0.002,-0.037 0.024,-0.069 0.065,-0.096 0.041,-0.027 0.111,-0.053 0.212,-0.078 0.099,-0.025 0.182,-0.055 0.248,-0.087 0.159,-0.078 0.243,-0.195 0.253,-0.351 0.008,-0.124 -0.033,-0.224 -0.122,-0.301 -0.089,-0.076 -0.215,-0.12 -0.378,-0.13 -0.115,-0.008 -0.221,0.006 -0.317,0.042 -0.095,0.035 -0.169,0.087 -0.221,0.156 -0.052,0.068 -0.08,0.149 -0.086,0.243 l 0.343,0.022 c 0.005,-0.076 0.028,-0.131 0.069,-0.164 0.042,-0.034 0.107,-0.048 0.195,-0.042 0.057,0.004 0.101,0.018 0.132,0.045 0.031,0.026 0.046,0.061 0.043,0.106"/><path id="path51" style="fill:#ffc500;fill-opacity:1;fill-rule:nonzero;stroke:none" d="m 20.8506,8.8555 -0.331,-0.081 -0.141,0.577 -0.49,-0.12 0.141,-0.577 -0.333,-0.081 -0.338,1.382 0.333,0.081 0.135,-0.549 0.49,0.12 -0.134,0.548 0.331,0.081 0.337,-1.381 z"/><path id="path52" style="fill:#ffc500;fill-opacity:1;fill-rule:nonzero;stroke:none" d="m 21.2383,10.5273 0.716,-0.754 -0.145,1.028 0.407,0.197 0.617,-1.282 -0.31,-0.149 -0.143,0.3 -0.266,0.626 0.13,-1.061 -0.204,-0.097 -0.751,0.762 0.326,-0.599 0.144,-0.299 -0.309,-0.149 -0.617,1.281 0.405,0.196 z"/><path id="path53" style="fill:#ffc500;fill-opacity:1;fill-rule:nonzero;stroke:none" d="m 23.5762,11.1631 c -0.086,0.112 -0.17,0.184 -0.252,0.213 -0.082,0.029 -0.158,0.016 -0.227,-0.036 -0.137,-0.105 -0.131,-0.263 0.018,-0.473 l 0.063,-0.084 c 0.085,-0.11 0.169,-0.182 0.251,-0.213 0.082,-0.031 0.159,-0.018 0.231,0.036 0.069,0.053 0.1,0.123 0.092,0.21 -0.007,0.087 -0.053,0.185 -0.137,0.295 l -0.039,0.052 z m 0.312,0.165 c 0.085,-0.11 0.139,-0.223 0.164,-0.339 0.024,-0.116 0.015,-0.225 -0.025,-0.329 -0.04,-0.103 -0.108,-0.192 -0.204,-0.266 -0.096,-0.074 -0.198,-0.117 -0.307,-0.129 -0.108,-0.013 -0.214,0.005 -0.319,0.055 -0.104,0.051 -0.198,0.128 -0.282,0.234 l -0.049,0.063 c -0.085,0.11 -0.139,0.224 -0.163,0.339 -0.024,0.115 -0.017,0.226 0.024,0.329 0.04,0.105 0.109,0.193 0.205,0.268 0.096,0.073 0.199,0.116 0.309,0.128 0.109,0.011 0.218,-0.008 0.323,-0.061 0.107,-0.052 0.201,-0.132 0.284,-0.24 l 0.04,-0.052 z"/><path id="path54" style="fill:#ffc500;fill-opacity:1;fill-rule:nonzero;stroke:none" d="m 24.3545,11.9209 0.146,0.16 c 0.043,0.048 0.064,0.096 0.061,0.143 -0.003,0.048 -0.027,0.092 -0.072,0.134 -0.045,0.041 -0.092,0.061 -0.141,0.06 -0.048,-10e-4 -0.094,-0.025 -0.137,-0.073 l -0.146,-0.159 0.289,-0.265 z m 0.319,-0.041 -0.125,-0.137 0.371,-0.34 -0.231,-0.253 -1.049,0.96 0.377,0.414 c 0.114,0.124 0.231,0.196 0.35,0.215 0.12,0.02 0.229,-0.016 0.33,-0.108 0.073,-0.067 0.12,-0.137 0.141,-0.211 0.021,-0.073 0.018,-0.155 -0.01,-0.245 l 0.624,-0.168 0.01,-0.01 -0.247,-0.271 -0.541,0.154 z"/><path id="path55" style="fill:#ffc500;fill-opacity:1;fill-rule:nonzero;stroke:none" d="m 25.75,13.4902 -0.294,-0.452 0.285,-0.185 0.347,0.533 0.221,-0.143 -0.534,-0.821 -1.192,0.774 0.534,0.823 0.223,-0.143 -0.349,-0.536 0.252,-0.163 0.294,0.452 0.213,-0.139 z"/><path id="path56" style="fill:#ffc500;fill-opacity:1;fill-rule:nonzero;stroke:none" d="m 26.75,15.2051 c -0.047,0.017 -0.09,0.013 -0.128,-0.012 -0.038,-0.024 -0.086,-0.074 -0.143,-0.148 -0.058,-0.074 -0.109,-0.134 -0.154,-0.178 -0.146,-0.144 -0.294,-0.191 -0.443,-0.14 -0.074,0.027 -0.133,0.071 -0.175,0.134 -0.041,0.063 -0.064,0.14 -0.068,0.231 -0.005,0.09 0.01,0.184 0.045,0.283 0.033,0.097 0.081,0.178 0.141,0.242 0.062,0.065 0.131,0.108 0.209,0.128 0.078,0.021 0.158,0.016 0.24,-0.013 l -0.111,-0.322 c -0.055,0.019 -0.103,0.017 -0.145,-0.007 -0.041,-0.022 -0.073,-0.062 -0.092,-0.12 -0.021,-0.057 -0.024,-0.107 -0.01,-0.15 0.015,-0.042 0.041,-0.071 0.08,-0.084 0.035,-0.012 0.072,-0.004 0.113,0.023 0.041,0.027 0.092,0.082 0.155,0.164 0.061,0.083 0.12,0.148 0.175,0.196 0.134,0.116 0.275,0.149 0.421,0.098 0.119,-0.041 0.195,-0.117 0.232,-0.229 0.036,-0.112 0.027,-0.245 -0.027,-0.4 -0.037,-0.108 -0.09,-0.2 -0.161,-0.275 -0.069,-0.074 -0.145,-0.122 -0.229,-0.144 -0.083,-0.02 -0.169,-0.015 -0.258,0.015 l 0.112,0.325 c 0.073,-0.025 0.132,-0.025 0.179,0 0.047,0.026 0.085,0.08 0.114,0.164 0.019,0.054 0.022,0.1 0.009,0.139 -0.012,0.039 -0.039,0.065 -0.081,0.08"/><path id="path57" style="fill:#ffc500;fill-opacity:1;fill-rule:nonzero;stroke:none" d="m 26.3828,17.1973 -0.069,-0.421 1.141,-0.187 -0.055,-0.338 -1.142,0.187 -0.068,-0.414 -0.261,0.043 0.192,1.173 0.262,-0.043 z"/><path id="path58" style="fill:#ffc500;fill-opacity:1;fill-rule:nonzero;stroke:none" d="m 27.0244,17.8179 0.001,0.306 -0.494,-0.152 0.493,-0.154 z m 0.266,0.387 -0.002,-0.47 0.265,-0.083 -0.001,-0.366 -1.42,0.526 0.001,0.322 1.423,0.521 -0.001,-0.368 -0.265,-0.082 z"/><path id="path59" style="fill:#ffc500;fill-opacity:1;fill-rule:nonzero;stroke:none" d="m 26.1963,19.9189 0.067,-0.422 1.143,0.182 0.054,-0.339 -1.143,-0.181 0.066,-0.414 -0.262,-0.041 -0.187,1.173 0.262,0.042 z"/><path id="path60" style="fill:#ffc500;fill-opacity:1;fill-rule:nonzero;stroke:none" d="m 26.3633,21.2422 0.169,-0.512 0.323,0.107 -0.2,0.604 0.25,0.083 0.308,-0.929 -1.35,-0.447 -0.309,0.931 0.252,0.083 0.201,-0.606 0.285,0.094 -0.17,0.512 0.241,0.08 z"/><path id="path61" style="fill:#ffc500;fill-opacity:1;fill-rule:nonzero;stroke:none" d="m 11.4663,23.4199 c -0.04,0.031 -0.081,0.042 -0.125,0.031 -0.044,-0.01 -0.105,-0.042 -0.184,-0.093 -0.079,-0.052 -0.147,-0.091 -0.204,-0.118 -0.185,-0.089 -0.34,-0.084 -0.464,0.014 -0.062,0.049 -0.102,0.11 -0.121,0.183 -0.019,0.074 -0.015,0.153 0.01,0.24 0.026,0.087 0.071,0.172 0.136,0.254 0.063,0.08 0.135,0.141 0.213,0.182 0.079,0.041 0.159,0.058 0.24,0.052 0.081,-0.007 0.155,-0.037 0.223,-0.09 l -0.212,-0.269 c -0.045,0.036 -0.092,0.05 -0.138,0.042 -0.048,-0.008 -0.09,-0.036 -0.127,-0.084 -0.039,-0.048 -0.058,-0.094 -0.059,-0.138 0,-0.045 0.016,-0.081 0.048,-0.106 0.029,-0.023 0.067,-0.028 0.115,-0.016 0.047,0.013 0.114,0.048 0.199,0.105 0.086,0.058 0.163,0.101 0.23,0.127 0.165,0.066 0.308,0.051 0.43,-0.045 0.098,-0.078 0.146,-0.175 0.144,-0.292 -0.003,-0.118 -0.055,-0.241 -0.156,-0.369 -0.071,-0.09 -0.152,-0.16 -0.242,-0.208 -0.091,-0.047 -0.179,-0.068 -0.264,-0.06 -0.086,0.008 -0.166,0.04 -0.239,0.098 l 0.213,0.27 c 0.06,-0.047 0.116,-0.066 0.168,-0.058 0.053,0.009 0.107,0.048 0.162,0.118 0.035,0.044 0.053,0.087 0.054,0.127 0.001,0.041 -0.015,0.076 -0.05,0.103"/><path id="path62" style="fill:#ffc500;fill-opacity:1;fill-rule:nonzero;stroke:none" d="m 12.2866,24.7632 c -0.094,0.105 -0.184,0.169 -0.268,0.192 -0.084,0.023 -0.158,0.005 -0.224,-0.053 -0.128,-0.115 -0.109,-0.272 0.055,-0.47 l 0.07,-0.079 c 0.093,-0.103 0.181,-0.168 0.266,-0.193 0.084,-0.024 0.16,-0.006 0.228,0.054 0.064,0.058 0.09,0.13 0.076,0.216 -0.015,0.086 -0.068,0.181 -0.159,0.284 l -0.044,0.049 z m 0.299,0.188 c 0.093,-0.103 0.156,-0.211 0.189,-0.326 0.033,-0.113 0.033,-0.223 0.001,-0.329 -0.032,-0.107 -0.093,-0.2 -0.183,-0.281 -0.091,-0.081 -0.189,-0.132 -0.296,-0.153 -0.107,-0.021 -0.215,-0.011 -0.322,0.032 -0.109,0.042 -0.209,0.112 -0.3,0.21 l -0.054,0.059 c -0.092,0.104 -0.155,0.213 -0.188,0.326 -0.033,0.114 -0.034,0.224 -0.001,0.331 0.032,0.107 0.093,0.2 0.184,0.282 0.09,0.08 0.189,0.13 0.297,0.151 0.109,0.02 0.218,0.009 0.328,-0.035 0.109,-0.044 0.21,-0.117 0.302,-0.218 l 0.043,-0.049 z"/><path id="path63" style="fill:#ffc500;fill-opacity:1;fill-rule:nonzero;stroke:none" d="m 13.4761,26.4102 0.49,-0.792 c 0.055,-0.089 0.085,-0.179 0.087,-0.268 0.002,-0.089 -0.021,-0.173 -0.072,-0.252 -0.05,-0.078 -0.124,-0.147 -0.221,-0.208 -0.147,-0.091 -0.287,-0.125 -0.419,-0.101 -0.132,0.024 -0.24,0.102 -0.324,0.234 l -0.493,0.798 0.293,0.181 0.497,-0.803 c 0.085,-0.13 0.187,-0.159 0.307,-0.084 0.061,0.037 0.096,0.082 0.106,0.134 0.011,0.053 -0.007,0.116 -0.053,0.191 l -0.489,0.789 0.291,0.181 z"/><path id="path64" style="fill:#ffc500;fill-opacity:1;fill-rule:nonzero;stroke:none" d="m 15.103,26.8242 -0.396,-0.159 0.431,-1.074 -0.318,-0.128 -0.431,1.074 -0.389,-0.156 -0.099,0.246 1.103,0.443 0.099,-0.246 z"/><path id="path65" style="fill:#ffc500;fill-opacity:1;fill-rule:nonzero;stroke:none" d="m 16.9058,26.0557 -0.334,-0.069 -0.121,0.581 -0.494,-0.102 0.121,-0.582 -0.336,-0.069 -0.289,1.392 0.336,0.07 0.115,-0.553 0.494,0.103 -0.115,0.552 0.334,0.069 0.289,-1.392 z"/><path id="path66" style="fill:#ffc500;fill-opacity:1;fill-rule:nonzero;stroke:none" d="m 18.3975,27.2593 -0.055,-0.892 0.118,-0.007 c 0.098,-0.006 0.176,0.024 0.233,0.09 0.057,0.067 0.09,0.169 0.099,0.307 l 0.003,0.062 c 0.009,0.137 -0.01,0.242 -0.059,0.315 -0.049,0.072 -0.123,0.112 -0.224,0.118 l -0.115,0.007 z m -0.414,-1.134 0.088,1.42 0.458,-0.029 c 0.125,-0.007 0.236,-0.043 0.332,-0.106 0.098,-0.063 0.17,-0.149 0.221,-0.255 0.048,-0.108 0.07,-0.226 0.062,-0.354 l -0.004,-0.065 c -0.008,-0.13 -0.043,-0.246 -0.103,-0.345 -0.063,-0.099 -0.145,-0.175 -0.247,-0.227 -0.104,-0.052 -0.217,-0.074 -0.34,-0.068 l -0.467,0.029 z"/><path id="path67" style="fill:#ffc500;fill-opacity:1;fill-rule:nonzero;stroke:none" d="m 19.8799,26.4351 0.297,-0.071 -0.034,0.515 -0.263,-0.444 z m 0.315,-0.348 -0.457,0.11 -0.141,-0.239 -0.357,0.085 0.839,1.261 0.314,-0.075 0.178,-1.505 -0.357,0.086 -0.019,0.277 z"/><path id="path68" style="fill:#ffc500;fill-opacity:1;fill-rule:nonzero;stroke:none" d="m 21.4131,25.939 -0.19,-0.085 -0.15,-0.344 -0.314,0.137 0.567,1.303 0.315,-0.136 -0.25,-0.576 0.18,0.118 0.46,0.287 0.389,-0.169 -0.693,-0.385 0.124,-0.919 -0.372,0.163 -0.066,0.606 z"/><path id="path69" style="fill:#ffc500;fill-opacity:1;fill-rule:nonzero;stroke:none" d="m 23.0938,25.2432 c 0.078,0.118 0.117,0.221 0.118,0.308 0.001,0.087 -0.035,0.154 -0.108,0.203 -0.144,0.094 -0.291,0.037 -0.441,-0.173 l -0.058,-0.087 c -0.077,-0.116 -0.116,-0.218 -0.119,-0.306 -0.003,-0.088 0.034,-0.157 0.11,-0.207 0.072,-0.048 0.148,-0.054 0.227,-0.018 0.081,0.035 0.159,0.111 0.235,0.225 l 0.036,0.055 z m 0.258,-0.242 c -0.076,-0.115 -0.165,-0.204 -0.267,-0.264 -0.101,-0.061 -0.208,-0.09 -0.319,-0.085 -0.11,0.004 -0.217,0.039 -0.318,0.106 -0.101,0.066 -0.175,0.149 -0.222,0.247 -0.048,0.098 -0.066,0.204 -0.052,0.32 0.013,0.115 0.056,0.23 0.127,0.343 l 0.044,0.067 c 0.077,0.116 0.166,0.204 0.268,0.265 0.101,0.061 0.207,0.089 0.319,0.085 0.111,-0.004 0.218,-0.04 0.319,-0.107 0.101,-0.066 0.175,-0.149 0.222,-0.249 0.047,-0.1 0.063,-0.208 0.049,-0.325 -0.014,-0.118 -0.059,-0.233 -0.134,-0.348 l -0.036,-0.055 z"/><path id="path70" style="fill:#ffc500;fill-opacity:1;fill-rule:nonzero;stroke:none" d="m 24.7344,24.3921 -0.313,0.291 -0.788,-0.849 -0.251,0.233 0.788,0.848 -0.308,0.286 0.181,0.193 0.871,-0.808 -0.18,-0.194 z"/><path id="path71" style="fill:#ffc500;fill-opacity:1;fill-rule:nonzero;stroke:none" d="m 24.7275,23.4194 0.187,-0.241 0.296,0.424 -0.483,-0.183 z m 0.029,-0.469 -0.288,0.371 -0.261,-0.098 -0.224,0.289 1.442,0.461 0.198,-0.254 -0.799,-1.288 -0.227,0.291 0.159,0.228 z"/></g></g></g></g></svg>