<svg xmlns:dc="http://purl.org/dc/elements/1.1/" xmlns:cc="http://creativecommons.org/ns#" xmlns:rdf="http://www.w3.org/1999/02/22-rdf-syntax-ns#" xmlns:svg="http://www.w3.org/2000/svg" xmlns="http://www.w3.org/2000/svg" viewBox="0 0 45 45" style="enable-background:new 0 0 45 45;" xml:space="preserve" version="1.1" id="svg2"><metadata id="metadata8"><rdf:RDF><cc:Work rdf:about=""><dc:format>image/svg+xml</dc:format><dc:type rdf:resource="http://purl.org/dc/dcmitype/StillImage"/></cc:Work></rdf:RDF></metadata><defs id="defs6"><clipPath id="clipPath16" clipPathUnits="userSpaceOnUse"><path id="path18" d="M 4,31 C 1.791,31 0,29.209 0,27 L 0,27 0,9 C 0,6.791 1.791,5 4,5 l 0,0 28,0 c 2.209,0 4,1.791 4,4 l 0,0 0,18 c 0,2.209 -1.791,4 -4,4 l 0,0 -28,0 z"/></clipPath></defs><g transform="matrix(1.25,0,0,-1.25,0,45)" id="g10"><g id="g12"><g xmlns="http://www.w3.org/2000/svg" clip-path="url(#clipPath16)" id="g14"><g id="g30"><path id="path20" style="fill:#0000ff;fill-opacity:1;fill-rule:nonzero;stroke:none" d="m 0,5 36,0 0,25.999 -36,0 L 0,5 z"/><path id="path22" style="fill:#33cc00;fill-opacity:1;fill-rule:nonzero;stroke:none" d="M 30,30.999 0,5 0,31 30,30.999 z"/><path id="path24" style="fill:#ffc726;fill-opacity:1;fill-rule:nonzero;stroke:none" d="M 0,31 12.169,18 0,5 36,30.999 24.332,30.999 14.519,20.514 0,31 z"/><path id="path26" style="fill:#141414;fill-opacity:1;fill-rule:nonzero;stroke:none" d="M 0,31 0,5 12.169,18 0,31 z"/><path id="path28" style="fill:#ffffff;fill-opacity:1;fill-rule:nonzero;stroke:none" d="m 5.6758,16.7891 2.935,-0.487 -2.088,2.119 1.371,2.64 -2.661,-1.33 -2.088,2.12 0.443,-2.942 -2.661,-1.33 2.936,-0.488 0.442,-2.943 1.371,2.641 z"/></g><g id="g34"><path id="path30" style="fill:#b25400;fill-opacity:1;fill-rule:nonzero;stroke:none" d="m 23.7777,24.4331 c 0,-0.199 -0.200589,-0.086 -0.400069,-0.494 -0.199481,-0.408 -0.964156,-2.275 -2.607654,-2.275 -1.903931,0 -2.112277,2.432 -2.112277,2.432 0,0 0.459913,1.378 2.515671,1.378 1.203532,0 2.604329,-0.842 2.604329,-1.041"/><path id="path32" style="fill:#b25400;fill-opacity:1;fill-rule:nonzero;stroke:none" d="m 19.1117,29.1094 c 0,-0.199 -0.200589,-0.086 -0.400069,-0.494 -0.200589,-0.408 -0.965264,-2.275 -2.607654,-2.275 -1.903931,0 -2.112277,2.432 -2.112277,2.432 0,0 0.459913,1.378 2.515671,1.378 1.203532,0 2.604329,-0.842 2.604329,-1.041"/><path id="path34" style="fill:#b25400;fill-opacity:1;fill-rule:nonzero;stroke:none" d="m 9.58,29.1094 c 0,-0.199 -0.1994805,-0.086 -0.4000693,-0.494 -0.1994805,-0.408 -0.9641558,-2.275 -2.6076536,-2.275 -1.9028225,0 -2.1122771,2.432 -2.1122771,2.432 0,0 0.4599135,1.378 2.515671,1.378 1.2035325,0 2.604329,-0.842 2.604329,-1.041"/><path id="path36" style="fill:#b25400;fill-opacity:1;fill-rule:nonzero;stroke:none" d="m 30.4652,29.3862 c 0,-0.199 -0.200589,-0.086 -0.400069,-0.494 -0.199481,-0.408 -0.964156,-2.275 -2.607654,-2.275 -1.903931,0 -2.112277,2.432 -2.112277,2.432 0,0 0.459913,1.378 2.515671,1.378 1.203532,0 2.604329,-0.842 2.604329,-1.041"/><path id="path38" style="fill:#b25400;fill-opacity:1;fill-rule:nonzero;stroke:none" d="m 17.1058,19.4956 c 0,-0.199 -0.200589,-0.086 -0.400069,-0.494 -0.200589,-0.408 -0.964156,-2.274 -2.607654,-2.274 -1.903931,0 -2.112277,2.431 -2.112277,2.431 0,0 0.459913,1.378 2.515671,1.378 1.203532,0 2.604329,-0.842 2.604329,-1.041"/></g></g></g></g></svg>