<svg xmlns:dc="http://purl.org/dc/elements/1.1/" xmlns:cc="http://creativecommons.org/ns#" xmlns:rdf="http://www.w3.org/1999/02/22-rdf-syntax-ns#" xmlns:svg="http://www.w3.org/2000/svg" xmlns="http://www.w3.org/2000/svg" viewBox="0 0 45 45" style="enable-background:new 0 0 45 45;" xml:space="preserve" version="1.1" id="svg2"><metadata id="metadata8"><rdf:RDF><cc:Work rdf:about=""><dc:format>image/svg+xml</dc:format><dc:type rdf:resource="http://purl.org/dc/dcmitype/StillImage"/></cc:Work></rdf:RDF></metadata><defs id="defs6"><clipPath id="clipPath16" clipPathUnits="userSpaceOnUse"><path id="path18" d="M 0,36 36,36 36,0 0,0 0,36 Z"/></clipPath></defs><g transform="matrix(1.25,0,0,-1.25,0,45)" id="g10"><g id="g12"><g xmlns="http://www.w3.org/2000/svg" clip-path="url(#clipPath16)" id="g14"><g id="g20"><path id="path22" style="fill:#eeeeee;fill-opacity:1;fill-rule:nonzero;stroke:none" d="m 32,5 c 2.209,0 4,1.791 4,4 l 0,18 c 0,2.209 -1.791,4 -4,4 L 4,31 C 1.791,31 0,29.209 0,27 L 0,9 C 0,6.791 1.791,5 4,5 l 28,0 z"/></g><g id="g24"><path id="path26" style="fill:#f7b900;fill-opacity:1;fill-rule:nonzero;stroke:none" d="m 18,9.1318 c -0.339,0 -0.41,0.184 -0.453,0.376 -0.043,0.192 0.036,0.404 0.036,0.404 0,0 -0.205,-0.124 -0.432,0 -0.325,0.176 -0.259,0.674 -0.008,0.81 0.228,0.125 0.553,-0.037 0.553,-0.037 0,0 0.024,0.097 0.067,0.455 0.043,0.356 -0.028,0.603 -0.028,0.603 0,0 -0.004,-0.706 -0.694,-0.788 -0.479,-0.057 -1.016,0.451 -1.016,0.451 0,0 -0.106,-0.438 -0.325,-0.745 -0.275,-0.384 -0.549,-0.47 -0.549,-0.47 0,0 -0.284,-0.061 -0.616,0.058 -0.27,0.097 -0.591,0.348 -0.717,0.529 -0.291,0.417 -0.118,0.946 0.411,0.942 0.53,-0.004 0.502,-0.471 0.502,-0.471 0,0 0.063,0.051 0.173,0.279 0.11,0.227 0.129,0.357 0.129,0.357 0,0 -0.408,0.117 -0.972,-0.013 -0.565,-0.129 -0.898,-0.344 -0.898,-0.344 0,0 0.133,0.309 0.153,0.729 0.019,0.42 -0.069,0.613 -0.069,0.613 0,0 -1.094,-0.975 -1.865,0.171 -0.267,0.399 -0.233,0.741 -0.194,1.065 0.028,0.228 0.211,0.577 0.553,0.577 0.302,0 0.512,-0.241 0.565,-0.418 0.087,-0.291 -0.088,-0.447 -0.088,-0.447 0,0 0.123,0.029 0.305,0.106 0.183,0.076 0.218,0.135 0.218,0.135 0,0 -0.187,0.177 -0.447,0.453 -0.26,0.276 -0.594,0.653 -0.594,1.035 0,0.765 0.765,0.877 0.765,0.877 0,0 -0.224,0.047 -0.224,0.176 0,0.065 0.065,0.289 0.035,0.453 -0.029,0.165 -0.382,1.159 -1.011,1.853 -0.63,0.694 -0.659,1.065 -0.659,1.065 0,0 -0.284,-0.377 -0.706,-0.377 -0.565,0 -0.918,0.582 -0.694,1.065 0.223,0.482 0.8,0.441 0.8,0.441 0,0 0.129,1.118 0.494,1.618 0.365,0.5 -0.094,0.811 -0.312,0.823 -0.217,0.012 -0.194,0.212 -0.194,0.212 0,0 -0.129,-0.041 -0.282,0.035 -0.153,0.077 -0.218,0.301 0,0.442 0.217,0.141 1.118,0.641 1.776,-0.071 0.659,-0.712 0.489,-2.365 0.489,-2.365 0,0 0.288,0.148 0.37,0.912 0.054,0.503 0.483,1.606 1.153,1.606 0.67,0 0.882,-0.594 0.882,-0.594 l -0.947,1.929 c 0,0 2.002,0.988 4.565,0.988 2.563,0 4.564,-0.988 4.564,-0.988 l -0.947,-1.929 c 0,0 0.212,0.594 0.883,0.594 0.671,0 1.099,-1.103 1.153,-1.606 0.082,-0.764 0.37,-0.912 0.37,-0.912 0,0 -0.17,1.653 0.489,2.365 0.659,0.712 1.558,0.212 1.776,0.071 0.218,-0.141 0.153,-0.365 0,-0.442 -0.152,-0.076 -0.282,-0.035 -0.282,-0.035 0,0 0.023,-0.2 -0.194,-0.212 -0.218,-0.012 -0.676,-0.323 -0.312,-0.823 0.364,-0.5 0.494,-1.618 0.494,-1.618 0,0 0.576,0.041 0.8,-0.441 0.224,-0.483 -0.129,-1.065 -0.694,-1.065 -0.422,0 -0.705,0.377 -0.705,0.377 0,0 -0.031,-0.371 -0.66,-1.065 -0.63,-0.694 -0.982,-1.688 -1.011,-1.853 -0.03,-0.164 0.035,-0.388 0.035,-0.453 0,-0.129 -0.224,-0.176 -0.224,-0.176 0,0 0.765,-0.112 0.765,-0.877 0,-0.382 -0.334,-0.759 -0.594,-1.035 -0.261,-0.276 -0.447,-0.453 -0.447,-0.453 0,0 0.035,-0.059 0.218,-0.135 0.182,-0.077 0.305,-0.106 0.305,-0.106 0,0 -0.176,0.156 -0.088,0.447 0.053,0.177 0.263,0.418 0.565,0.418 0.342,0 0.525,-0.349 0.553,-0.577 0.039,-0.324 0.073,-0.666 -0.195,-1.065 -0.77,-1.146 -1.864,-0.171 -1.864,-0.171 0,0 -0.088,-0.193 -0.068,-0.613 0.019,-0.42 0.152,-0.729 0.152,-0.729 0,0 -0.333,0.215 -0.898,0.344 -0.565,0.13 -0.972,0.013 -0.972,0.013 0,0 0.019,-0.13 0.129,-0.357 0.11,-0.228 0.173,-0.279 0.173,-0.279 0,0 -0.028,0.467 0.502,0.471 0.529,0.004 0.702,-0.525 0.412,-0.942 -0.127,-0.181 -0.448,-0.432 -0.718,-0.529 -0.332,-0.119 -0.616,-0.058 -0.616,-0.058 0,0 -0.275,0.086 -0.549,0.47 -0.219,0.307 -0.325,0.745 -0.325,0.745 0,0 -0.538,-0.508 -1.016,-0.451 -0.69,0.082 -0.694,0.788 -0.694,0.788 0,0 -0.071,-0.247 -0.028,-0.603 0.043,-0.358 0.067,-0.455 0.067,-0.455 0,0 0.325,0.162 0.553,0.037 0.25,-0.136 0.318,-0.634 -0.008,-0.81 -0.228,-0.124 -0.432,0 -0.432,0 0,0 0.079,-0.212 0.036,-0.404 C 18.41,9.3158 18.339,9.1318 18,9.1318"/></g><g id="g28"><path id="path30" style="fill:#db2015;fill-opacity:1;fill-rule:nonzero;stroke:none" d="m 18.04,12.3867 c 1.312,0 1.88,1.051 1.88,1.051 0,0 0.572,0.029 0.996,0.282 0.564,0.337 0.808,0.949 1.184,1.733 0.377,0.785 0.886,1.224 0.886,1.224 0,0 -0.457,0.723 -0.674,1.609 l -8.544,0 c -0.217,-0.886 -0.674,-1.609 -0.674,-1.609 0,0 0.509,-0.439 0.886,-1.224 0.376,-0.784 0.62,-1.396 1.185,-1.733 0.423,-0.253 0.996,-0.282 0.996,-0.282 0,0 0.567,-1.051 1.879,-1.051"/></g><g id="g32"><path id="path34" style="fill:#005ca2;fill-opacity:1;fill-rule:nonzero;stroke:none" d="m 13.7676,18.2856 c 0.067,0.274 0.11,0.564 0.11,0.854 0,1.223 -0.839,2.423 -0.839,2.423 l 0.604,1.349 c 0,0 0.272,-0.133 0.659,-0.133 0.855,0 1.54,0.698 3.738,0.698 2.199,0 2.884,-0.698 3.739,-0.698 0.387,0 0.659,0.133 0.659,0.133 l 0.603,-1.349 c 0,0 -0.838,-1.2 -0.838,-2.423 0,-0.29 0.044,-0.58 0.11,-0.854 l -8.545,0 z"/></g></g></g></g></svg>