<svg xmlns:dc="http://purl.org/dc/elements/1.1/" xmlns:cc="http://creativecommons.org/ns#" xmlns:rdf="http://www.w3.org/1999/02/22-rdf-syntax-ns#" xmlns:svg="http://www.w3.org/2000/svg" xmlns="http://www.w3.org/2000/svg" viewBox="0 0 45 45" style="enable-background:new 0 0 45 45;" xml:space="preserve" version="1.1" id="svg2"><metadata id="metadata8"><rdf:RDF><cc:Work rdf:about=""><dc:format>image/svg+xml</dc:format><dc:type rdf:resource="http://purl.org/dc/dcmitype/StillImage"/></cc:Work></rdf:RDF></metadata><defs id="defs6"><clipPath id="clipPath16" clipPathUnits="userSpaceOnUse"><path id="path18" d="M 4,31 C 1.791,31 0,29.209 0,27 L 0,27 0,9 C 0,6.791 1.791,5 4,5 l 0,0 28,0 c 2.209,0 4,1.791 4,4 l 0,0 0,18 c 0,2.209 -1.791,4 -4,4 l 0,0 -28,0 z"/></clipPath><clipPath id="clipPath28" clipPathUnits="userSpaceOnUse"><path id="path30" d="M 0,36 36,36 36,0 0,0 0,36 Z"/></clipPath></defs><g xmlns="http://www.w3.org/2000/svg" transform="matrix(1.25,0,0,-1.25,0,45)" id="g10"><path id="path40" style="fill:#eeeeee" d="M 36,9 C 36,6.791 34.209,5 32,5 H 4 C 1.791,5 0,6.791 0,9 v 18 c 0,2.209 1.791,4 4,4 h 28 c 2.209,0 4,-1.791 4,-4 z"/><path id="path41" style="fill:#dce284" d="m 23.2344,19.626 c 0,-4.041 -2.344,-7.317 -5.234,-7.317 -2.891,0 -5.235,3.276 -5.235,7.317 z"/><path id="path42" style="fill:#9fdcf5" d="m 12.7656,19.626 c 0,4.042 2.344,7.318 5.234,7.318 2.891,0 5.235,-3.276 5.235,-7.318 z"/><path id="path43" style="fill:#d29464" d="m 23.2373,19.625 h -10.475 c 0,0.175 0,0.337 0.013,0.5 l 1.287,1.413 0.525,0.462 0.25,0.413 0.225,-0.076 0.438,-0.524 0.275,0.274 0.625,0.863 0.237,-0.162 0.338,-0.65 0.337,0.699 0.525,0.413 0.688,-0.888 0.475,-0.224 1.525,-1.691 0.541,0.435 0.746,0.368 0.688,-0.663 0.463,-0.174 0.261,-0.238 c 0.013,-0.175 0.013,-0.363 0.013,-0.55"/><path id="path44" style="fill:#883e33" d="m 19,22.1377 0.758,-0.579 0.767,-1.112 0.438,-0.821 h -2.867 l 0.711,0.6 -0.657,0.161 0.585,0.805 0.734,0.132 z"/><path id="path45" style="fill:#ffcc00" d="m 21.25,23.6377 -0.925,0.112 0.837,-0.424 -0.875,0.287 0.726,-0.563 -0.813,0.463 0.613,-0.713 -0.713,0.613 0.463,-0.813 -0.563,0.726 0.287,-0.875 -0.425,0.837 0.113,-0.925 -0.25,0.912 -0.063,-0.949 -0.074,0.924 -0.238,-0.887 0.113,0.925 -0.426,-0.837 0.288,0.875 -0.562,-0.726 0.462,0.813 -0.712,-0.613 0.612,0.713 -0.813,-0.463 0.725,0.563 -0.874,-0.287 0.837,0.424 -0.925,-0.112 0.912,0.25 -0.949,0.062 0.924,0.075 -0.887,0.238 0.925,-0.113 -0.837,0.425 0.874,-0.287 -0.725,0.562 0.813,-0.462 -0.612,0.712 0.712,-0.612 -0.462,0.812 0.562,-0.725 -0.288,0.875 0.426,-0.837 -0.113,0.925 0.238,-0.888 0.074,0.925 0.063,-0.95 0.25,0.913 -0.113,-0.925 0.425,0.837 -0.287,-0.875 0.563,0.725 -0.463,-0.812 0.713,0.612 -0.613,-0.712 0.813,0.462 -0.726,-0.562 0.875,0.287 -0.837,-0.425 0.925,0.113 -0.888,-0.238 0.925,-0.075 -0.949,-0.062 z"/><path id="path46" style="fill:#cc6f40" d="m 20.2627,16.9512 0.463,-0.081 0.323,-0.203 0.115,-0.224 -0.399,0.248 0.042,-0.664 0.112,-0.25 0.084,0.034 -0.108,-0.38 0.032,-0.142 -0.015,-0.106 -0.233,0.033 0.018,0.117 0.096,0.058 0.004,0.22 -0.152,0.153 -0.27,0.018 -0.158,0.234 -0.767,-0.114 -0.288,0.215 0.02,-0.242 -0.063,-0.363 0.206,-0.204 -0.12,-0.136 -0.039,0.049 -0.261,-0.01 0.027,0.222 0.057,0.245 -0.055,0.228 -0.27,0.527 -0.039,0.395 0.055,0.301 -0.055,0.324 -0.216,0.016 -0.198,0.101 -0.092,0.174 0.389,0.029 0.123,0.115 0.143,0.051 0.148,-0.008 0.084,-0.095 0.031,-0.199 0.022,-0.315 0.101,-0.234 0.176,-0.184 0.233,0.029 z"/><path id="path47" style="fill:#2c2c2b" d="m 18.178,17.662 h -0.072 v 0.096 h 0.072 z"/><path id="path48" style="fill:#b3ad84" d="m 19.5996,18.3623 -0.062,-0.075 -0.113,-0.037 -0.087,0.012 -0.113,-0.187 -0.25,-0.2 -0.037,0.037 0.237,0.2 0.05,0.088 -0.037,0.025 -0.063,0.062 -0.025,0.088 0.075,-0.088 0.088,-0.025 0.037,0.063 0.038,0.075 -0.075,0.024 -0.112,0.088 -0.063,0.125 0.137,-0.137 0.125,-0.05 0.025,0.037 v 0.113 l 0.05,-0.075 -0.024,-0.15 -0.038,-0.063 0.1,-0.012 z"/><path id="path49" style="fill:#b3ad84" d="m 18.6875,18.1748 0.175,-0.237 h -0.075 l -0.15,0.212 -0.062,0.212 h -0.088 l -0.1,0.076 -0.037,0.087 0.112,-0.1 0.1,-0.012 -0.013,0.074 0.013,0.151 0.063,0.05 -0.025,-0.1 0.012,-0.05 0.137,0.012 0.163,0.1 -0.087,-0.1 -0.138,-0.063 h -0.075 l 0.013,-0.074 0.024,-0.075 h 0.088 l 0.1,0.062 -0.05,-0.075 -0.075,-0.05 -0.05,-0.012 z"/><path id="path50" style="fill:#cc6f40" d="m 15.8701,16.9258 -0.463,-0.081 -0.324,-0.203 -0.115,-0.223 0.4,0.247 -0.042,-0.664 -0.113,-0.25 -0.083,0.034 0.108,-0.38 -0.033,-0.141 0.015,-0.106 0.233,0.032 -0.017,0.118 -0.097,0.058 -0.004,0.219 0.153,0.153 0.269,0.018 0.158,0.234 0.768,-0.114 0.287,0.216 -0.019,-0.243 0.062,-0.363 -0.205,-0.204 0.119,-0.136 0.039,0.049 0.262,-0.01 -0.027,0.222 -0.057,0.245 0.055,0.228 0.269,0.527 0.039,0.395 -0.054,0.301 0.054,0.324 0.217,0.016 0.197,0.102 0.092,0.173 -0.389,0.03 -0.123,0.115 -0.142,0.051 -0.149,-0.008 -0.084,-0.096 -0.031,-0.199 -0.021,-0.314 -0.102,-0.235 -0.176,-0.184 -0.232,0.029 z"/><path id="path51" style="fill:#2c2c2b" d="m 17.955,17.637 h 0.072 v 0.096 h -0.072 z"/><path id="path52" style="fill:#b3ad84" d="m 16.5322,18.3374 0.062,-0.075 0.113,-0.037 0.087,0.012 0.113,-0.188 0.25,-0.199 0.038,0.037 -0.238,0.2 -0.05,0.087 0.038,0.026 0.062,0.062 0.025,0.088 -0.075,-0.088 -0.088,-0.025 -0.037,0.062 -0.038,0.076 0.075,0.024 0.113,0.088 0.063,0.125 -0.138,-0.137 -0.125,-0.051 -0.025,0.038 v 0.113 l -0.05,-0.075 0.025,-0.15 0.037,-0.063 -0.099,-0.012 z"/><path id="path53" style="fill:#b3ad84" d="m 17.4448,18.1499 -0.175,-0.237 h 0.075 l 0.15,0.212 0.062,0.212 h 0.088 l 0.1,0.076 0.037,0.087 -0.112,-0.1 -0.1,-0.012 0.012,0.074 -0.012,0.15 -0.063,0.051 0.025,-0.1 -0.012,-0.05 -0.137,0.012 -0.163,0.1 0.087,-0.1 0.138,-0.063 h 0.075 l -0.013,-0.074 -0.025,-0.075 h -0.087 l -0.1,0.062 0.05,-0.075 0.075,-0.05 0.05,-0.013 z"/><path id="path54" style="fill:#e21c2a" d="m 13.106,26.0786 c 0,-0.065 0.053,-0.118 0.118,-0.118 0.066,0 0.118,0.053 0.118,0.118 0,0.065 -0.052,0.118 -0.118,0.118 -0.065,0 -0.118,-0.053 -0.118,-0.118 m 0.372,-0.43 c 0,-0.065 0.052,-0.118 0.118,-0.118 0.065,0 0.118,0.053 0.118,0.118 0,0.065 -0.053,0.118 -0.118,0.118 -0.066,0 -0.118,-0.053 -0.118,-0.118 m -0.978,-1.91 c 0,-0.065 0.052,-0.118 0.118,-0.118 0.065,0 0.118,0.053 0.118,0.118 0,0.066 -0.053,0.118 -0.118,0.118 -0.066,0 -0.118,-0.052 -0.118,-0.118 m -0.655,0.257 c 0,-0.064 0.053,-0.118 0.118,-0.118 0.065,0 0.119,0.054 0.119,0.118 0,0.066 -0.054,0.119 -0.119,0.119 -0.065,0 -0.118,-0.053 -0.118,-0.119 m -0.679,-2.351 c 0,-0.065 0.053,-0.118 0.118,-0.118 0.065,0 0.118,0.053 0.118,0.118 0,0.065 -0.053,0.119 -0.118,0.119 -0.065,0 -0.118,-0.054 -0.118,-0.119 m 0.654,-0.261 c 0,-0.065 0.053,-0.118 0.118,-0.118 0.065,0 0.118,0.053 0.118,0.118 0,0.066 -0.053,0.118 -0.118,0.118 -0.065,0 -0.118,-0.052 -0.118,-0.118 m -0.824,-2.766 c 0,-0.065 0.053,-0.118 0.118,-0.118 0.065,0 0.118,0.053 0.118,0.118 0,0.065 -0.053,0.118 -0.118,0.118 -0.065,0 -0.118,-0.053 -0.118,-0.118 m 0.706,0.074 c 0,-0.066 0.052,-0.118 0.118,-0.118 0.065,0 0.118,0.052 0.118,0.118 0,0.065 -0.053,0.118 -0.118,0.118 -0.066,0 -0.118,-0.053 -0.118,-0.118 m 0.621,-2.696 c 0,-0.064 0.053,-0.118 0.118,-0.118 0.065,0 0.118,0.054 0.118,0.118 0,0.066 -0.053,0.119 -0.118,0.119 -0.065,0 -0.118,-0.053 -0.118,-0.119 m -0.61,-0.356 c 0,-0.065 0.053,-0.118 0.118,-0.118 0.065,0 0.118,0.053 0.118,0.118 0,0.065 -0.053,0.118 -0.118,0.118 -0.065,0 -0.118,-0.053 -0.118,-0.118 m 1.743,-2 c 0,-0.065 0.052,-0.118 0.118,-0.118 0.065,0 0.118,0.053 0.118,0.118 0,0.065 -0.053,0.118 -0.118,0.118 -0.066,0 -0.118,-0.053 -0.118,-0.118 m -0.475,-0.519 c 0,-0.064 0.053,-0.118 0.118,-0.118 0.066,0 0.118,0.054 0.118,0.118 0,0.066 -0.052,0.119 -0.118,0.119 -0.065,0 -0.118,-0.053 -0.118,-0.119 m 1.803,-1.86 c 0,-0.064 0.053,-0.118 0.118,-0.118 0.066,0 0.119,0.054 0.119,0.118 0,0.066 -0.053,0.118 -0.119,0.118 -0.065,0 -0.118,-0.052 -0.118,-0.118 m 0.469,0.547 c 0,-0.064 0.053,-0.118 0.118,-0.118 0.066,0 0.118,0.054 0.118,0.118 0,0.065 -0.052,0.118 -0.118,0.118 -0.065,0 -0.118,-0.053 -0.118,-0.118 m 7.522,14.389 c -0.064,0 -0.118,-0.053 -0.118,-0.118 0,-0.065 0.054,-0.118 0.118,-0.118 0.066,0 0.119,0.053 0.119,0.118 0,0.065 -0.053,0.118 -0.119,0.118 m -0.371,-0.43 c -0.065,0 -0.118,-0.053 -0.118,-0.118 0,-0.065 0.053,-0.118 0.118,-0.118 0.066,0 0.119,0.053 0.119,0.118 0,0.065 -0.053,0.118 -0.119,0.118 m 0.979,-1.91 c -0.066,0 -0.118,-0.052 -0.118,-0.118 0,-0.065 0.052,-0.118 0.118,-0.118 0.064,0 0.118,0.053 0.118,0.118 0,0.066 -0.054,0.118 -0.118,0.118 m 0.654,0.258 c -0.065,0 -0.118,-0.053 -0.118,-0.119 0,-0.064 0.053,-0.118 0.118,-0.118 0.065,0 0.118,0.054 0.118,0.118 0,0.066 -0.053,0.119 -0.118,0.119 m 0.679,-2.351 c -0.065,0 -0.118,-0.054 -0.118,-0.119 0,-0.065 0.053,-0.118 0.118,-0.118 0.065,0 0.118,0.053 0.118,0.118 0,0.065 -0.053,0.119 -0.118,0.119 m -0.654,-0.262 c -0.066,0 -0.119,-0.052 -0.119,-0.118 0,-0.065 0.053,-0.118 0.119,-0.118 0.065,0 0.118,0.053 0.118,0.118 0,0.066 -0.053,0.118 -0.118,0.118 m 0.824,-2.766 c -0.065,0 -0.118,-0.053 -0.118,-0.118 0,-0.065 0.053,-0.118 0.118,-0.118 0.065,0 0.118,0.053 0.118,0.118 0,0.065 -0.053,0.118 -0.118,0.118 m -0.705,0.074 c -0.066,0 -0.118,-0.053 -0.118,-0.118 0,-0.066 0.052,-0.118 0.118,-0.118 0.064,0 0.118,0.052 0.118,0.118 0,0.065 -0.054,0.118 -0.118,0.118 m -0.622,-2.695 c -0.066,0 -0.119,-0.053 -0.119,-0.119 0,-0.064 0.053,-0.118 0.119,-0.118 0.065,0 0.118,0.054 0.118,0.118 0,0.066 -0.053,0.119 -0.118,0.119 m 0.61,-0.357 c -0.065,0 -0.118,-0.053 -0.118,-0.118 0,-0.065 0.053,-0.118 0.118,-0.118 0.065,0 0.118,0.053 0.118,0.118 0,0.065 -0.053,0.118 -0.118,0.118 m -1.742,-2 c -0.066,0 -0.118,-0.053 -0.118,-0.118 0,-0.065 0.052,-0.118 0.118,-0.118 0.065,0 0.118,0.053 0.118,0.118 0,0.065 -0.053,0.118 -0.118,0.118 m 0.473,-0.518 c -0.064,0 -0.118,-0.053 -0.118,-0.119 0,-0.064 0.054,-0.118 0.118,-0.118 0.066,0 0.119,0.054 0.119,0.118 0,0.066 -0.053,0.119 -0.119,0.119 m -1.802,-1.861 c -0.066,0 -0.118,-0.052 -0.118,-0.118 0,-0.064 0.052,-0.118 0.118,-0.118 0.065,0 0.118,0.054 0.118,0.118 0,0.066 -0.053,0.118 -0.118,0.118 m -0.351,0.429 c 0,-0.064 -0.053,-0.118 -0.118,-0.118 -0.065,0 -0.118,0.054 -0.118,0.118 0,0.065 0.053,0.118 0.118,0.118 0.065,0 0.118,-0.053 0.118,-0.118"/><path id="path55" style="fill:#009240" d="m 24.5801,18.96 c -0.04,-0.52 -0.11,-1.06 -0.22,-1.57 l 0.81,0.47 c 0,0 0.11,-0.6 -0.27,-1.14 -0.28,-0.38 -0.65,-0.489 -0.83,-0.53 h -0.011 c -0.099,-0.38 -0.219,-0.74 -0.359,-1.09 -0.04,-0.1 -0.08,-0.19 -0.11,-0.27 l 0.84,0.27 c 0,0 -0.02,-0.61 -0.49,-1.05 -0.35,-0.319 -0.74,-0.38 -0.93,-0.38 -0.27,-0.46 -0.6,-0.88 -0.96,-1.26 l 0.85,-0.06 c 0,0 -0.25,-0.56 -0.85,-0.79 -0.42,-0.16 -0.79,-0.07 -0.95,-0.01 -0.41,-0.31 -0.86,-0.569 -1.34,-0.79 -0.42,-0.2 -0.87,-0.36 -1.32,-0.5 0.23,-0.05 0.47,-0.1 0.7,-0.15 0.48,-0.11 0.99,-0.2 1.47,-0.37 0.25,-0.09 0.48,-0.23 0.699,-0.38 0.201,-0.16 0.431,-0.41 0.351,-0.75 -0.52,0.2 -0.8,0.46 -1.25,0.69 -0.41,0.22 -0.86,0.431 -1.34,0.55 -0.35,0.09 -0.71,0.18 -1.07,0.28 -0.36,-0.1 -0.72,-0.19 -1.07,-0.28 -0.48,-0.119 -0.93,-0.33 -1.34,-0.55 -0.45,-0.23 -0.73,-0.49 -1.25,-0.69 -0.08,0.34 0.15,0.59 0.35,0.75 0.22,0.15 0.45,0.29 0.7,0.38 0.48,0.17 0.99,0.26 1.47,0.37 0.23,0.05 0.47,0.1 0.7,0.15 -0.45,0.14 -0.9,0.3 -1.32,0.5 -0.48,0.221 -0.93,0.48 -1.34,0.79 -0.16,-0.06 -0.53,-0.15 -0.95,0.01 -0.6,0.23 -0.85,0.79 -0.85,0.79 l 0.85,0.06 c -0.36,0.38 -0.69,0.8 -0.96,1.26 -0.19,0 -0.58,0.061 -0.93,0.38 -0.47,0.44 -0.49,1.05 -0.49,1.05 l 0.84,-0.27 c -0.04,0.08 -0.07,0.17 -0.11,0.27 -0.14,0.35 -0.26,0.71 -0.36,1.09 h -0.01 c -0.18,0.041 -0.55,0.15 -0.83,0.53 -0.38,0.54 -0.27,1.14 -0.27,1.14 l 0.81,-0.47 c -0.11,0.51 -0.18,1.05 -0.22,1.57 -0.12,0.05 -0.51,0.24 -0.71,0.74 -0.24,0.61 0.01,1.16 0.01,1.16 l 0.68,-0.65 c 0,0.24 0.01,0.49 0.04,0.74 0.02,0.26 0.07,0.51 0.12,0.77 -0.11,0.09 -0.43,0.38 -0.5,0.89 -0.07,0.65 0.32,1.13 0.32,1.13 l 0.48,-0.79 c 0.11,0.38 0.25,0.75 0.43,1.11 v 0.01 c -0.09,0.09 -0.35,0.45 -0.28,1.02 0.09,0.63 0.59,1 0.59,1 l 0.26,-0.9 c 0.2,0.31 0.41,0.61 0.66,0.9 -0.03,0.11 -0.16,0.55 0.11,1.03 0.31,0.57 0.89,0.74 0.89,0.74 l -0.06,-1.01 0.94,-0.13 c 0,0 -0.26,-0.33 -0.85,-0.55 -0.41,-0.15 -0.75,-0.15 -0.91,-0.12 -0.24,-0.28 -0.45,-0.59 -0.67,-0.9 l 0.84,0.17 c 0,0 -0.12,-0.4 -0.6,-0.8 -0.33,-0.28 -0.66,-0.39 -0.81,-0.45 -0.16,-0.37 -0.31,-0.76 -0.44,-1.16 l 0.78,0.4 c 0,0 -0.01,-0.41 -0.38,-0.92 -0.26,-0.39 -0.55,-0.59 -0.68,-0.67 -0.05,-0.26 -0.11,-0.52 -0.13,-0.78 -0.01,-0.24 -0.02,-0.48 -0.02,-0.71 l 0.63,0.57 c 0,0 0.09,-0.41 -0.14,-1 -0.15,-0.41 -0.36,-0.67 -0.47,-0.79 0.04,-0.52 0.11,-1.05 0.21,-1.56 l 0.48,0.69 c 0,0 0.18,-0.38 0.11,-1 -0.05,-0.45 -0.2,-0.75 -0.27,-0.89 0.11,-0.36 0.23,-0.72 0.37,-1.09 0.04,-0.1 0.07,-0.2 0.12,-0.28 l 0.32,0.78 c 0,0 0.26,-0.34 0.32,-0.95 0.04,-0.45 -0.03,-0.77 -0.09,-0.92 0.28,-0.46 0.62,-0.89 0.99,-1.27 v 0.85 c 0,0 0.36,-0.21 0.65,-0.77 0.22,-0.39 0.25,-0.73 0.26,-0.89 0.41,-0.3 0.84,-0.55 1.3,-0.75 0.54,-0.24 1.1,-0.43 1.68,-0.58 0.58,0.15 1.14,0.34 1.68,0.58 0.46,0.2 0.89,0.45 1.3,0.75 0.01,0.16 0.039,0.5 0.26,0.89 0.29,0.56 0.65,0.77 0.65,0.77 v -0.85 c 0.37,0.38 0.71,0.81 0.99,1.27 -0.06,0.15 -0.13,0.47 -0.09,0.92 0.06,0.61 0.32,0.95 0.32,0.95 l 0.32,-0.78 c 0.05,0.08 0.08,0.18 0.12,0.28 0.14,0.37 0.259,0.73 0.37,1.09 -0.07,0.14 -0.22,0.44 -0.27,0.89 -0.07,0.62 0.11,1 0.11,1 l 0.48,-0.69 c 0.1,0.51 0.17,1.04 0.21,1.56 -0.11,0.12 -0.32,0.38 -0.47,0.79 -0.23,0.59 -0.14,1 -0.14,1 l 0.63,-0.57 c 0,0.23 -0.01,0.47 -0.02,0.71 -0.02,0.26 -0.08,0.52 -0.13,0.78 -0.13,0.08 -0.42,0.28 -0.68,0.67 -0.371,0.51 -0.38,0.92 -0.38,0.92 l 0.78,-0.4 c -0.13,0.4 -0.28,0.79 -0.44,1.16 -0.15,0.06 -0.48,0.17 -0.81,0.45 -0.481,0.4 -0.6,0.8 -0.6,0.8 l 0.84,-0.17 c -0.221,0.31 -0.43,0.62 -0.67,0.9 -0.16,-0.03 -0.5,-0.03 -0.91,0.12 -0.59,0.22 -0.85,0.55 -0.85,0.55 l 0.94,0.13 -0.06,1.01 c 0,0 0.579,-0.17 0.9,-0.74 0.26,-0.48 0.13,-0.92 0.1,-1.03 0.25,-0.29 0.46,-0.59 0.66,-0.9 l 0.26,0.9 c 0,0 0.5,-0.37 0.59,-1 0.069,-0.57 -0.19,-0.93 -0.28,-1.02 v -0.01 c 0.18,-0.36 0.32,-0.73 0.43,-1.11 l 0.48,0.79 c 0,0 0.39,-0.48 0.32,-1.13 -0.06,-0.51 -0.39,-0.8 -0.5,-0.89 0.05,-0.26 0.1,-0.51 0.119,-0.77 0.031,-0.25 0.041,-0.5 0.041,-0.74 l 0.68,0.65 c 0,0 0.25,-0.55 0.01,-1.16 -0.2,-0.5 -0.59,-0.69 -0.71,-0.74"/><path id="path56" style="fill:#9fdcf5" d="m 18.0664,11.3232 c -0.401,-0.007 -0.912,0.026 -0.912,0.026 0,0 -0.018,-0.077 0.154,-0.261 0.173,-0.184 0.228,-0.257 0.228,-0.257 l 0.41,0.002 0.491,-0.065 c 0,0 0.037,0.011 0.096,0.084 0.058,0.075 0.114,0.523 0.114,0.523 0,0 -0.181,-0.045 -0.581,-0.052 m 1.849,-2.974 -0.533,-0.055 0.114,-0.456 c 0,0 -0.79,0.103 -0.893,1.099 -0.103,0.996 -0.159,0.938 -0.159,0.938 l -0.444,-0.067 -0.368,0.085 c 0,0 -0.233,0.04 -0.316,-0.768 -0.103,-1.008 -0.897,-1.287 -0.897,-1.287 l 0.114,0.412 -0.758,0.014 c 0,0 0.717,0.213 1.015,1.067 0.243,0.696 0.776,0.764 0.776,0.764 l -0.129,0.463 c 0,0 -1.058,0.302 -1.298,0.486 -0.239,0.183 -0.272,0.46 -0.272,0.46 0,0 0.107,0.786 0.618,0.786 0.511,0 0.614,-0.238 1.394,-0.238 0.779,0 1.131,0.323 1.569,0.323 0.559,0 0.594,-0.407 0.55,-0.753 -0.054,-0.417 -0.311,-0.648 -0.311,-0.648 l -1.129,-0.522 -0.022,-0.346 c 0,0 0.535,-0.38 0.671,-0.841 0.241,-0.82 0.708,-0.916 0.708,-0.916"/><path id="path57" style="fill:#ffffff" d="m 17.5874,9.9746 c 0,0 -0.337,-0.112 -0.562,-0.987 -0.138,-0.55 -0.425,-0.863 -0.55,-0.988 l 0.062,0.25 h -0.25 c 0.2,0.163 0.5,0.475 0.65,0.988 0.175,0.6 0.625,0.85 0.625,0.85 z"/><path id="path58" style="fill:#ffffff" d="m 19.3877,8.2998 0.05,-0.225 c -0.162,0.113 -0.638,0.462 -0.65,1.025 -0.013,0.475 -0.288,0.875 -0.288,0.875 l 0.013,0.051 c 0,0 0.35,-0.176 0.475,-0.789 0.1,-0.474 0.362,-0.774 0.538,-0.924 z"/><path id="path59" style="fill:#ffffff" d="m 18.1875,10.7998 v -0.962 l -0.187,-0.025 -0.125,0.025 v 1 h 0.075 z"/><path id="path60" style="fill:#ffffff" d="m 19.4502,11.0752 c -0.025,-0.075 -0.088,-0.175 -0.138,-0.275 l -0.549,-0.25 c 0.074,0.112 0.149,0.237 0.199,0.375 0.1,0.262 0.075,0.512 0.075,0.512 l 0.437,0.113 c 0,0 0.051,-0.275 -0.024,-0.475"/><path id="path61" style="fill:#ffffff" d="m 17.25,10.6123 c -0.125,0.05 -0.312,0.101 -0.487,0.163 -0.063,0.074 -0.151,0.162 -0.276,0.262 -0.287,0.213 -0.412,0.488 -0.412,0.488 0,0 0.075,0.087 0.25,0.087 0.162,0 0.313,-0.075 0.313,-0.075 0,0 0.062,-0.3 0.312,-0.563 0.15,-0.149 0.25,-0.287 0.3,-0.362"/><path id="path62" style="fill:#ffffff" d="m 20,11.9629 c -0.15,0 -0.412,-0.013 -0.562,-0.101 -0.225,-0.112 -0.613,-0.336 -1.4,-0.336 -0.801,0 -0.726,0.037 -1.375,0.211 -0.375,0.101 -0.601,0.063 -0.738,0.026 0.037,0.087 0.075,0.187 0.137,0.274 0.15,0.051 0.363,0.063 0.588,-0.024 0.275,-0.112 0.863,-0.226 1.388,-0.226 0.512,0 0.875,0.163 1.287,0.351 0.2,0.087 0.388,0.112 0.513,0.112 h 0.012 c 0.088,-0.062 0.137,-0.175 0.15,-0.287"/></g></svg>