<svg xmlns:dc="http://purl.org/dc/elements/1.1/" xmlns:cc="http://creativecommons.org/ns#" xmlns:rdf="http://www.w3.org/1999/02/22-rdf-syntax-ns#" xmlns:svg="http://www.w3.org/2000/svg" xmlns="http://www.w3.org/2000/svg" viewBox="0 0 45 45" style="enable-background:new 0 0 45 45;" xml:space="preserve" version="1.1" id="svg2"><metadata id="metadata8"><rdf:RDF><cc:Work rdf:about=""><dc:format>image/svg+xml</dc:format><dc:type rdf:resource="http://purl.org/dc/dcmitype/StillImage"/></cc:Work></rdf:RDF></metadata><defs id="defs6"><clipPath id="clipPath16" clipPathUnits="userSpaceOnUse"><path id="path18" d="M 0,36 36,36 36,0 0,0 0,36 Z"/></clipPath></defs><g transform="matrix(1.25,0,0,-1.25,0,45)" id="g10"><g id="g12"><g xmlns="http://www.w3.org/2000/svg" clip-path="url(#clipPath16)" id="g14"><g id="g20"><path id="path22" style="fill:#7de018;fill-opacity:1;fill-rule:nonzero;stroke:none" d="M 32,30.9996 H 4 c -2.209,0 -4,-1.791 -4,-4 v -4.999 h 36 v 4.999 c 0,2.209 -1.791,4 -4,4"/></g><g id="g24"><path id="path26" style="fill:#852cee;fill-opacity:1;fill-rule:nonzero;stroke:none" d="M 0,13.898 V 9 C 0,6.791 1.791,5 4,5 h 28 c 2.209,0 4,1.791 4,4 v 4.898 z"/></g><g id="g28"><path id="path30" style="fill:#eeeeee;fill-opacity:1;fill-rule:nonzero;stroke:none" d="m 0,13.8976 h 36 v 8.103 H 0 Z"/></g><g id="g32"><path id="path34" style="fill:#e3e522;fill-opacity:1;fill-rule:nonzero;stroke:none" d="m 18,21.2135 0.607,-1.871 h 1.968 l -1.592,-1.156 0.608,-1.87 -1.591,1.156 -1.591,-1.156 0.608,1.87 -1.592,1.156 h 1.967 z"/></g><g id="g36"><path id="path38" style="fill:#e3e522;fill-opacity:1;fill-rule:nonzero;stroke:none" d="m 18,16.5357 0.286,-0.88 h 0.924 l -0.748,-0.543 0.286,-0.879 -0.748,0.543 -0.748,-0.543 0.286,0.879 -0.748,0.543 h 0.924 z"/></g><g id="g40"><path id="path50" style="fill:#e3e522;fill-opacity:1;fill-rule:nonzero;stroke:none" d="m 4.5776,15.9029 0.168,-0.517 h 0.542 l -0.439,-0.319 0.168,-0.516 -0.439,0.32 -0.439,-0.32 0.168,0.516 -0.439,0.319 h 0.543 z"/><path id="path51" style="fill:#e3e522;fill-opacity:1;fill-rule:nonzero;stroke:none" d="m 2.9849,16.0963 0.184,-0.565 h 0.594 l -0.481,-0.35 0.184,-0.564 -0.481,0.348 -0.481,-0.348 0.184,0.564 -0.481,0.35 h 0.594 z"/><path id="path52" style="fill:#e3e522;fill-opacity:1;fill-rule:nonzero;stroke:none" d="m 1.2466,16.1285 0.2,-0.614 h 0.646 l -0.523,-0.38 0.2,-0.615 -0.523,0.38 -0.523,-0.38 0.2,0.615 -0.523,0.38 h 0.646 z"/><path id="path53" style="fill:#e3e522;fill-opacity:1;fill-rule:nonzero;stroke:none" d="m 16.2319,19.7623 -0.218,0.771 -0.801,0.031 0.666,0.445 -0.218,0.771 0.629,-0.496 0.666,0.446 -0.277,-0.752 0.63,-0.495 -0.801,0.031 z"/><path id="path54" style="fill:#e3e522;fill-opacity:1;fill-rule:nonzero;stroke:none" d="m 14.1182,20.3365 0.444,-0.314 0.436,0.325 -0.162,-0.52 0.444,-0.314 -0.544,-0.007 -0.161,-0.519 -0.175,0.516 -0.544,-0.007 0.436,0.325 z"/><path id="path55" style="fill:#e3e522;fill-opacity:1;fill-rule:nonzero;stroke:none" d="m 12.7671,19.4371 0.429,-0.334 0.45,0.304 -0.186,-0.512 0.429,-0.334 -0.543,0.019 -0.186,-0.512 -0.15,0.523 -0.544,0.019 0.451,0.304 z"/><path id="path56" style="fill:#e3e522;fill-opacity:1;fill-rule:nonzero;stroke:none" d="m 11.4502,18.4537 0.428,-0.335 0.451,0.303 -0.187,-0.511 0.428,-0.336 -0.543,0.02 -0.187,-0.51 -0.149,0.523 -0.544,0.019 0.452,0.304 z"/><path id="path57" style="fill:#e3e522;fill-opacity:1;fill-rule:nonzero;stroke:none" d="m 10.0366,17.484 0.426,-0.339 0.453,0.3 -0.19,-0.509 0.425,-0.339 -0.543,0.024 -0.191,-0.509 -0.145,0.523 -0.543,0.025 0.454,0.3 z"/><path id="path58" style="fill:#e3e522;fill-opacity:1;fill-rule:nonzero;stroke:none" d="m 8.6089,16.6441 0.426,-0.338 0.453,0.3 -0.191,-0.51 0.426,-0.338 -0.543,0.024 -0.191,-0.51 -0.145,0.524 -0.543,0.024 0.454,0.301 z"/><path id="path59" style="fill:#e3e522;fill-opacity:1;fill-rule:nonzero;stroke:none" d="m 7.1655,16.2135 0.426,-0.339 0.453,0.3 -0.191,-0.509 0.426,-0.339 -0.543,0.024 -0.191,-0.509 -0.145,0.523 -0.543,0.025 0.454,0.3 z"/><path id="path60" style="fill:#e3e522;fill-opacity:1;fill-rule:nonzero;stroke:none" d="m 5.6797,16.0133 0.425,-0.339 0.454,0.3 -0.191,-0.509 0.426,-0.339 -0.543,0.024 -0.191,-0.509 -0.145,0.523 -0.544,0.025 0.454,0.3 z"/><path id="path61" style="fill:#e3e522;fill-opacity:1;fill-rule:nonzero;stroke:none" d="m 31.4219,15.9029 -0.167,-0.517 h -0.543 l 0.439,-0.319 -0.167,-0.516 0.438,0.32 0.439,-0.32 -0.168,0.516 0.44,0.319 h -0.543 z"/><path id="path62" style="fill:#e3e522;fill-opacity:1;fill-rule:nonzero;stroke:none" d="m 33.0146,16.0963 -0.184,-0.565 h -0.593 l 0.48,-0.35 -0.183,-0.564 0.48,0.348 0.481,-0.348 -0.183,0.564 0.48,0.35 h -0.593 z"/><path id="path63" style="fill:#e3e522;fill-opacity:1;fill-rule:nonzero;stroke:none" d="m 34.7529,16.1285 -0.199,-0.614 h -0.647 l 0.524,-0.38 -0.2,-0.615 0.522,0.38 0.523,-0.38 -0.2,0.615 0.524,0.38 h -0.647 z"/><path id="path64" style="fill:#e3e522;fill-opacity:1;fill-rule:nonzero;stroke:none" d="m 19.7686,19.7623 0.218,0.771 0.801,0.031 -0.666,0.445 0.217,0.771 -0.629,-0.496 -0.666,0.446 0.277,-0.752 -0.629,-0.495 0.801,0.031 z"/><path id="path65" style="fill:#e3e522;fill-opacity:1;fill-rule:nonzero;stroke:none" d="m 21.8818,20.3365 -0.444,-0.314 -0.436,0.325 0.162,-0.52 -0.444,-0.314 0.544,-0.007 0.162,-0.519 0.174,0.516 0.544,-0.007 -0.437,0.325 z"/><path id="path66" style="fill:#e3e522;fill-opacity:1;fill-rule:nonzero;stroke:none" d="m 23.2334,19.4371 -0.429,-0.334 -0.451,0.304 0.186,-0.512 -0.429,-0.334 0.544,0.019 0.185,-0.512 0.151,0.523 0.543,0.019 -0.45,0.304 z"/><path id="path67" style="fill:#e3e522;fill-opacity:1;fill-rule:nonzero;stroke:none" d="m 24.5498,18.4537 -0.428,-0.336 -0.451,0.304 0.187,-0.511 -0.428,-0.336 0.543,0.02 0.187,-0.51 0.149,0.523 0.544,0.019 -0.451,0.304 z"/><path id="path68" style="fill:#e3e522;fill-opacity:1;fill-rule:nonzero;stroke:none" d="m 25.9629,17.484 -0.425,-0.339 -0.454,0.3 0.191,-0.509 -0.426,-0.339 0.544,0.024 0.19,-0.509 0.146,0.523 0.543,0.025 -0.454,0.3 z"/><path id="path69" style="fill:#e3e522;fill-opacity:1;fill-rule:nonzero;stroke:none" d="m 27.3906,16.6441 -0.425,-0.338 -0.454,0.3 0.191,-0.51 -0.425,-0.338 0.543,0.024 0.19,-0.51 0.146,0.524 0.543,0.024 -0.454,0.301 z"/><path id="path70" style="fill:#e3e522;fill-opacity:1;fill-rule:nonzero;stroke:none" d="m 28.834,16.2135 -0.425,-0.339 -0.454,0.3 0.191,-0.509 -0.425,-0.339 0.543,0.024 0.19,-0.509 0.146,0.523 0.543,0.025 -0.454,0.3 z"/><path id="path71" style="fill:#e3e522;fill-opacity:1;fill-rule:nonzero;stroke:none" d="m 30.3203,16.0133 -0.426,-0.339 -0.453,0.3 0.191,-0.509 -0.426,-0.339 0.544,0.024 0.19,-0.509 0.146,0.523 0.543,0.025 -0.455,0.3 z"/></g></g></g></g></svg>