<svg xmlns:dc="http://purl.org/dc/elements/1.1/" xmlns:cc="http://creativecommons.org/ns#" xmlns:rdf="http://www.w3.org/1999/02/22-rdf-syntax-ns#" xmlns:svg="http://www.w3.org/2000/svg" xmlns="http://www.w3.org/2000/svg" viewBox="0 0 45 45" style="enable-background:new 0 0 45 45;" xml:space="preserve" version="1.1" id="svg2"><metadata id="metadata8"><rdf:RDF><cc:Work rdf:about=""><dc:format>image/svg+xml</dc:format><dc:type rdf:resource="http://purl.org/dc/dcmitype/StillImage"/></cc:Work></rdf:RDF></metadata><defs id="defs6"><clipPath id="clipPath16" clipPathUnits="userSpaceOnUse"><path id="path18" d="M 0,36 36,36 36,0 0,0 0,36 Z"/></clipPath></defs><g transform="matrix(1.25,0,0,-1.25,0,45)" id="g10"><g id="g12"><g clip-path="url(#clipPath16)" id="g14"><g id="g30"><path id="path20" style="fill:#75b2de;fill-opacity:1;fill-rule:nonzero;stroke:none" d="M 0,18 V 9 C 0,6.791 1.791,5 4,5 h 28 c 2.209,0 4,1.791 4,4 v 9 z"/></g><g id="g32"><path id="path30" style="fill:#eeeeee;fill-opacity:1;fill-rule:nonzero;stroke:none" d="M 32,31 H 4 C 1.791,31 0,29.209 0,27 v -9 h 36 v 9 c 0,2.209 -1.791,4 -4,4"/></g><g id="g34"><path id="path40" style="fill:#fdd116;fill-opacity:1;fill-rule:nonzero;stroke:none" d="m 12.1992,26.6665 h 12.642 v -15.135 c 0,-0.596 -0.483,-1.078 -1.079,-1.078 h -4.164 c -0.635,0 -1.078,-1.079 -1.078,-1.079 0,0 -0.443,1.079 -1.078,1.079 h -4.165 c -0.595,0 -1.078,0.482 -1.078,1.078 z"/><path id="path41" style="fill:#ca0f20;fill-opacity:1;fill-rule:nonzero;stroke:none" d="m 19.7529,13.7471 c 0,0 0.077,-0.3 -0.314,-0.467 -0.392,-0.168 -0.534,-0.133 -0.707,-0.27 -0.175,-0.138 -0.262,-0.321 -0.262,-0.321 0,0 -0.105,0.324 -0.378,0.413 -0.272,0.09 -0.55,0.073 -0.722,0.252 -0.172,0.179 -0.217,0.465 -0.217,0.465 0,0 -0.261,-0.166 -0.542,0.156 -0.28,0.32 -0.29,0.465 -0.475,0.588 -0.185,0.123 -0.385,0.15 -0.385,0.15 0,0 0.274,0.199 0.276,0.486 10e-4,0.287 -0.102,0.547 0.016,0.766 0.118,0.219 0.376,0.349 0.376,0.349 0,0 -0.239,0.198 -0.02,0.563 0.218,0.366 0.353,0.421 0.413,0.635 0.06,0.214 0.023,0.412 0.023,0.412 0,0 0.274,-0.199 0.548,-0.112 0.273,0.088 0.489,0.266 0.733,0.221 0.244,-0.044 0.449,-0.249 0.449,-0.249 0,0 0.113,0.287 0.529,0.193 0.415,-0.095 0.509,-0.206 0.731,-0.197 0.222,0.009 0.4,0.106 0.4,0.106 0,0 -0.106,-0.324 0.062,-0.556 0.168,-0.233 0.403,-0.383 0.437,-0.629 0.033,-0.246 -0.099,-0.504 -0.099,-0.504 0,0 0.309,-0.019 0.348,-0.443 0.038,-0.425 -0.039,-0.548 0.038,-0.757 0.077,-0.208 0.223,-0.347 0.223,-0.347 0,0 -0.338,0 -0.508,-0.231 -0.17,-0.232 -0.24,-0.502 -0.463,-0.61 -0.225,-0.108 -0.51,-0.062 -0.51,-0.062"/><path id="path42" style="fill:#fdd116;fill-opacity:1;fill-rule:nonzero;stroke:none" d="m 19.0586,15.582 c 0,0.318 -0.258,0.577 -0.576,0.577 -0.319,0 -0.577,-0.259 -0.577,-0.577 0,-0.318 0.258,-0.576 0.577,-0.576 0.318,0 0.576,0.258 0.576,0.576"/><path id="path43" style="fill:#ca0f20;fill-opacity:1;fill-rule:nonzero;stroke:none" d="m 16.5186,19.5806 c 0,0 0.077,-0.299 -0.315,-0.467 -0.392,-0.168 -0.533,-0.133 -0.707,-0.271 -0.175,-0.137 -0.261,-0.32 -0.261,-0.32 0,0 -0.105,0.323 -0.378,0.413 -0.273,0.09 -0.551,0.072 -0.723,0.252 -0.172,0.179 -0.216,0.465 -0.216,0.465 0,0 -0.261,-0.166 -0.542,0.155 -0.28,0.321 -0.291,0.466 -0.476,0.589 -0.184,0.123 -0.384,0.15 -0.384,0.15 0,0 0.274,0.199 0.275,0.486 10e-4,0.287 -0.101,0.547 0.017,0.766 0.117,0.219 0.376,0.349 0.376,0.349 0,0 -0.239,0.197 -0.021,0.563 0.218,0.366 0.354,0.421 0.414,0.635 0.06,0.214 0.023,0.412 0.023,0.412 0,0 0.274,-0.199 0.548,-0.112 0.273,0.087 0.488,0.265 0.733,0.221 0.244,-0.044 0.448,-0.249 0.448,-0.249 0,0 0.114,0.287 0.529,0.193 0.416,-0.095 0.51,-0.206 0.732,-0.197 0.221,0.009 0.399,0.105 0.399,0.105 0,0 -0.105,-0.323 0.063,-0.555 0.168,-0.234 0.403,-0.383 0.437,-0.629 0.033,-0.246 -0.099,-0.504 -0.099,-0.504 0,0 0.309,-0.019 0.347,-0.444 0.039,-0.424 -0.038,-0.548 0.039,-0.756 0.077,-0.208 0.223,-0.347 0.223,-0.347 0,0 -0.339,0 -0.509,-0.232 -0.17,-0.231 -0.239,-0.501 -0.463,-0.609 -0.224,-0.108 -0.509,-0.062 -0.509,-0.062"/><path id="path44" style="fill:#fdd116;fill-opacity:1;fill-rule:nonzero;stroke:none" d="m 15.8242,21.4155 c 0,0.318 -0.258,0.577 -0.577,0.577 -0.318,0 -0.576,-0.259 -0.576,-0.577 0,-0.318 0.258,-0.576 0.576,-0.576 0.319,0 0.577,0.258 0.577,0.576"/><path id="path45" style="fill:#ca0f20;fill-opacity:1;fill-rule:nonzero;stroke:none" d="m 23.0186,19.5806 c 0,0 0.077,-0.299 -0.314,-0.467 -0.393,-0.168 -0.534,-0.133 -0.708,-0.271 -0.174,-0.137 -0.261,-0.32 -0.261,-0.32 0,0 -0.106,0.323 -0.378,0.413 -0.273,0.09 -0.551,0.072 -0.723,0.252 -0.172,0.179 -0.216,0.465 -0.216,0.465 0,0 -0.261,-0.166 -0.542,0.155 -0.281,0.321 -0.291,0.466 -0.475,0.589 -0.186,0.123 -0.386,0.15 -0.386,0.15 0,0 0.275,0.199 0.276,0.486 0.001,0.287 -0.101,0.547 0.017,0.766 0.117,0.219 0.375,0.349 0.375,0.349 0,0 -0.238,0.197 -0.019,0.563 0.217,0.366 0.352,0.421 0.413,0.635 0.059,0.214 0.023,0.412 0.023,0.412 0,0 0.274,-0.199 0.548,-0.112 0.273,0.087 0.488,0.265 0.732,0.221 0.245,-0.044 0.449,-0.249 0.449,-0.249 0,0 0.114,0.287 0.53,0.193 0.415,-0.095 0.509,-0.206 0.73,-0.197 0.223,0.009 0.4,0.105 0.4,0.105 0,0 -0.105,-0.323 0.063,-0.555 0.167,-0.234 0.403,-0.383 0.437,-0.629 0.033,-0.246 -0.099,-0.504 -0.099,-0.504 0,0 0.309,-0.019 0.347,-0.444 0.039,-0.424 -0.038,-0.548 0.039,-0.756 0.077,-0.208 0.223,-0.347 0.223,-0.347 0,0 -0.339,0 -0.509,-0.232 -0.169,-0.231 -0.24,-0.501 -0.463,-0.609 -0.224,-0.108 -0.509,-0.062 -0.509,-0.062"/><path id="path46" style="fill:#fdd116;fill-opacity:1;fill-rule:nonzero;stroke:none" d="m 22.3242,21.4155 c 0,0.318 -0.258,0.577 -0.576,0.577 -0.319,0 -0.577,-0.259 -0.577,-0.577 0,-0.318 0.258,-0.576 0.577,-0.576 0.318,0 0.576,0.258 0.576,0.576"/></g><g id="g36"><path id="path50" style="fill:#000000;fill-opacity:1;fill-rule:nonzero;stroke:none" d="m 3.1484,10.2168 -0.035,0.182 h -1.225 l -0.035,-0.182 h -0.206 v 1.357 h 0.467 v -0.261 l -0.203,-0.016 v -0.557 h 0.469 v 0.598 h 0.264 v -0.598 h 0.469 l 0.035,0.184 h 0.205 v -0.707 z"/><path id="path51" style="fill:#000000;fill-opacity:1;fill-rule:nonzero;stroke:none" d="m 1.8535,11.7695 h -0.206 v 0.707 h 0.206 l 0.035,-0.184 h 1.225 l 0.035,0.184 h 0.205 v -0.707 h -0.205 l -0.035,0.183 h -1.225 z"/><path id="path52" style="fill:#000000;fill-opacity:1;fill-rule:nonzero;stroke:none" d="m 2.4854,13.8965 c -0.177,0 -0.32,-0.036 -0.43,-0.109 -0.111,-0.075 -0.166,-0.182 -0.166,-0.327 0,-0.143 0.055,-0.25 0.164,-0.321 0.11,-0.071 0.254,-0.106 0.432,-0.106 h 0.028 c 0.18,0 0.325,0.036 0.434,0.107 0.11,0.072 0.165,0.179 0.165,0.322 0,0.145 -0.055,0.252 -0.165,0.326 -0.109,0.073 -0.254,0.108 -0.434,0.108 z m 0.028,0.342 c 0.25,0 0.456,-0.072 0.62,-0.215 0.163,-0.143 0.245,-0.33 0.245,-0.561 0,-0.23 -0.082,-0.417 -0.245,-0.558 -0.164,-0.143 -0.37,-0.213 -0.62,-0.213 h -0.026 c -0.248,0 -0.455,0.07 -0.619,0.212 -0.164,0.141 -0.246,0.327 -0.246,0.557 0,0.232 0.082,0.419 0.246,0.563 0.164,0.143 0.371,0.215 0.619,0.215 z"/><path id="path53" style="fill:#000000;fill-opacity:1;fill-rule:nonzero;stroke:none" d="m 2.3994,14.9707 v 0.237 c 0,0.095 -0.02,0.167 -0.061,0.214 -0.041,0.049 -0.099,0.072 -0.175,0.072 -0.077,0 -0.138,-0.023 -0.184,-0.071 -0.046,-0.047 -0.068,-0.116 -0.068,-0.209 v -0.243 z m -0.752,0.243 c 0,0.194 0.044,0.346 0.133,0.456 0.089,0.11 0.211,0.165 0.367,0.165 0.086,0 0.161,-0.022 0.224,-0.069 0.063,-0.046 0.114,-0.113 0.153,-0.203 0.03,0.101 0.08,0.174 0.149,0.218 0.069,0.044 0.155,0.066 0.257,0.066 h 0.087 c 0.037,0 0.067,0.007 0.087,0.022 0.021,0.015 0.033,0.039 0.037,0.075 l 0.006,0.041 h 0.206 v -0.176 c 0,-0.112 -0.03,-0.192 -0.09,-0.236 -0.06,-0.045 -0.138,-0.069 -0.233,-0.069 h -0.098 c -0.082,0 -0.147,-0.021 -0.195,-0.065 -0.047,-0.044 -0.072,-0.107 -0.074,-0.187 v -0.281 h 0.45 l 0.035,0.184 h 0.205 v -0.707 h -0.205 l -0.035,0.181 h -1.225 l -0.035,-0.181 h -0.206 v 0.181 z"/><path id="path54" style="fill:#000000;fill-opacity:1;fill-rule:nonzero;stroke:none" d="m 2.6035,17.2705 v -0.577 h 0.487 v 0.551 l -0.203,0.014 v 0.261 h 0.466 v -1.351 h -0.205 l -0.035,0.182 h -1.225 l -0.035,-0.182 h -0.206 v 0.182 1.166 h 0.467 v -0.263 l -0.203,-0.014 v -0.546 h 0.428 v 0.577 z"/><path id="path55" style="fill:#000000;fill-opacity:1;fill-rule:nonzero;stroke:none" d="m 1.6475,19.5181 h 0.206 l 0.035,-0.183 h 1.465 v -0.341 l -1.148,-0.689 0.001,-0.007 h 0.907 l 0.035,0.183 h 0.205 v -0.707 h -0.205 l -0.035,0.182 h -1.225 l -0.035,-0.182 h -0.206 v 0.182 0.342 l 1.148,0.689 -10e-4,0.007 h -0.906 l -0.035,-0.183 h -0.206 v 0.524 z"/><path id="path56" style="fill:#000000;fill-opacity:1;fill-rule:nonzero;stroke:none" d="m 1.6475,21.2021 h 0.455 v -0.262 l -0.191,-0.014 v -0.314 h 1.202 l 0.035,0.182 h 0.205 v -0.708 h -0.205 l -0.035,0.183 h -1.202 v -0.313 l 0.191,-0.014 v -0.261 h -0.455 z"/><path id="path57" style="fill:#000000;fill-opacity:1;fill-rule:nonzero;stroke:none" d="m 1.8535,21.3843 h -0.206 v 0.707 h 0.206 l 0.035,-0.183 h 1.225 l 0.035,0.183 h 0.205 v -0.707 h -0.205 l -0.035,0.183 h -1.225 z"/><path id="path58" style="fill:#000000;fill-opacity:1;fill-rule:nonzero;stroke:none" d="m 1.6475,24.0371 h 0.206 l 0.035,-0.183 h 1.465 v -0.341 l -1.148,-0.689 0.001,-0.007 h 0.907 l 0.035,0.183 h 0.205 v -0.707 h -0.205 l -0.035,0.182 h -1.225 l -0.035,-0.182 h -0.206 v 0.182 0.342 l 1.148,0.689 -10e-4,0.007 h -0.906 l -0.035,-0.183 h -0.206 v 0.524 z"/><path id="path59" style="fill:#000000;fill-opacity:1;fill-rule:nonzero;stroke:none" d="m 2.4854,25.4375 c -0.177,0 -0.32,-0.037 -0.43,-0.11 -0.111,-0.074 -0.166,-0.182 -0.166,-0.326 0,-0.144 0.055,-0.251 0.164,-0.321 0.11,-0.071 0.254,-0.106 0.432,-0.106 h 0.028 c 0.18,0 0.325,0.035 0.434,0.107 0.11,0.071 0.165,0.178 0.165,0.321 0,0.145 -0.055,0.253 -0.165,0.326 -0.109,0.073 -0.254,0.109 -0.434,0.109 z m 0.028,0.341 c 0.25,0 0.456,-0.071 0.62,-0.214 0.163,-0.143 0.245,-0.33 0.245,-0.562 0,-0.23 -0.082,-0.416 -0.245,-0.558 -0.164,-0.142 -0.37,-0.213 -0.62,-0.213 h -0.026 c -0.248,0 -0.455,0.071 -0.619,0.212 -0.164,0.142 -0.246,0.328 -0.246,0.558 0,0.231 0.082,0.419 0.246,0.562 0.164,0.144 0.371,0.215 0.619,0.215 z"/></g></g></g></g></svg>