<svg xmlns:dc="http://purl.org/dc/elements/1.1/" xmlns:cc="http://creativecommons.org/ns#" xmlns:rdf="http://www.w3.org/1999/02/22-rdf-syntax-ns#" xmlns:svg="http://www.w3.org/2000/svg" xmlns="http://www.w3.org/2000/svg" viewBox="0 0 45 45" style="enable-background:new 0 0 45 45;" xml:space="preserve" version="1.1" id="svg2"><metadata id="metadata8"><rdf:RDF><cc:Work rdf:about=""><dc:format>image/svg+xml</dc:format><dc:type rdf:resource="http://purl.org/dc/dcmitype/StillImage"/></cc:Work></rdf:RDF></metadata><defs id="defs6"><clipPath id="clipPath16" clipPathUnits="userSpaceOnUse"><path id="path18" d="M 4,31 C 1.791,31 0,29.209 0,27 L 0,27 0,9 C 0,6.791 1.791,5 4,5 l 0,0 28,0 c 2.209,0 4,1.791 4,4 l 0,0 0,18 c 0,2.209 -1.791,4 -4,4 l 0,0 -28,0 z"/></clipPath></defs><g transform="matrix(1.25,0,0,-1.25,0,45)" id="g10"><g id="g12"><g xmlns="http://www.w3.org/2000/svg" clip-path="url(#clipPath16)" id="g14"><g id="g30"><path id="path20" style="fill:#800080;fill-opacity:1;fill-rule:nonzero;stroke:none" d="M 0,5 H 36 V 31 H 0 Z"/></g><g id="g34"><path id="path30" style="fill:#30cdff;fill-opacity:1;fill-rule:nonzero;stroke:none" d="m 32.2734,18.3169 c 0,4.64 -3.762,8.402 -8.401,8.402 -4.641,0 -8.402,-3.762 -8.402,-8.402 0,-4.64 3.761,-8.402 8.402,-8.402 4.639,0 8.401,3.762 8.401,8.402"/><path id="path31" style="fill:#006630;fill-opacity:1;fill-rule:nonzero;stroke:none" d="m 19.457,14.8008 c 0,0 -0.249,0.723 -0.465,1.609 -0.216,0.886 -0.278,1.471 -0.278,1.471 0,0 -0.173,0.081 -0.611,0.034 -0.438,-0.047 -0.668,-0.121 -0.668,-0.121 0,0 -0.02,0.655 0.228,1.632 0.212,0.84 0.256,1.677 0.412,2.221 0.064,0.227 0.158,0.388 0.264,0.478 0.12,0.102 0.257,0.152 0.257,0.152 0,0 -0.03,-0.106 -0.03,-0.208 0,-0.273 0.147,-0.476 0.317,-0.884 0.185,-0.447 0.109,-0.691 0.349,-1.091 0.259,-0.431 0.437,-0.602 0.5,-0.788 0.041,-0.121 0.027,-0.259 0.148,-0.526 0.138,-0.306 0.269,-0.434 0.362,-0.616 0.077,-0.152 0.099,-0.222 0.099,-0.222 0,0 -0.303,0.008 -0.552,0.011 -0.249,0.004 -0.315,0 -0.315,0 0,0 0.095,-0.743 0.209,-1.494 0.136,-0.912 0.297,-1.137 0.297,-1.137 z"/><path id="path32" style="fill:#006630;fill-opacity:1;fill-rule:nonzero;stroke:none" d="m 20.9482,18.3408 c 0,0 0.15,0.02 0.375,-0.041 0.226,-0.061 0.319,-0.15 0.319,-0.15 l 0.324,-2.96 0.704,0.139 -0.27,2.707 c 0,0 0.293,0.113 0.488,0.423 0.225,0.359 0.225,0.663 0.225,0.663 0,0 -0.504,1.571 -0.66,2.013 -0.062,0.174 -0.173,0.431 -0.274,0.675 -0.156,0.38 -0.3,0.735 -0.3,0.735 0,0 -0.307,-0.311 -0.587,-1.458 -0.115,-0.466 -0.207,-1.143 -0.249,-1.516 -0.077,-0.683 -0.095,-1.23 -0.095,-1.23"/><path id="path33" style="fill:#006630;fill-opacity:1;fill-rule:nonzero;stroke:none" d="m 24.2734,22.6826 c 0,0 -0.104,-0.167 -0.229,-0.558 -0.163,-0.505 -0.382,-1.254 -0.519,-1.892 -0.127,-0.59 -0.177,-0.864 -0.177,-1.125 0,-0.098 -0.002,-0.151 0.107,-0.383 0.126,-0.271 0.458,-0.501 0.474,-0.61 0.019,-0.124 0.1,-2.87 0.1,-2.87 l 0.575,-0.37 -0.138,3.439 c 0,0 0.231,0.089 0.231,1.028 0,1.314 -0.424,3.341 -0.424,3.341"/><path id="path34" style="fill:#006630;fill-opacity:1;fill-rule:nonzero;stroke:none" d="m 25.6621,15.0068 0.481,3.42 -0.88,-0.115 c 0,0 0.84,3.935 1.305,3.935 0.165,0 0.283,-0.359 0.369,-1.556 0.028,-0.391 0.154,-1.341 0.208,-1.569 0.123,-0.521 0.263,-0.726 0.263,-0.726 l -0.666,-0.083 -0.415,-3.244 z"/><path id="path35" style="fill:#006630;fill-opacity:1;fill-rule:nonzero;stroke:none" d="m 27.873,14.7031 0.319,3.073 c 0,0 -0.404,0.114 -0.404,0.743 0,0.712 0.475,1.864 0.97,2.705 0.191,0.324 0.388,0.596 0.419,0.58 0.049,-0.027 -0.221,-0.315 0.23,-1.978 0.216,-0.795 0.401,-1.55 0.22,-1.959 -0.167,-0.377 -0.655,-0.366 -0.655,-0.366 l -0.513,-3.112 z"/><path id="path36" style="fill:#9a6800;fill-opacity:1;fill-rule:nonzero;stroke:none" d="m 16.8105,13.7617 c 1.497,-2.314 4.1,-3.847 7.062,-3.847 2.818,0 5.313,1.389 6.836,3.519 0,0 -0.082,0.093 -0.291,0.093 -0.449,0 -0.835,0.158 -1.819,0.775 -0.48,0.301 -0.652,0.411 -0.802,0.411 -0.244,0 -0.562,-0.238 -0.754,-0.238 -0.128,0 -0.165,0.084 -0.344,0.308 -0.175,0.217 -0.336,0.303 -0.563,0.329 -0.221,0.025 -0.388,-0.066 -0.678,-0.201 -0.625,-0.292 -0.625,-0.202 -1.144,0.181 -0.553,0.408 -1.578,0.28 -2.145,0.144 -0.675,-0.163 -1.043,-0.177 -1.855,0.08 -0.264,0.084 -0.428,0.012 -0.679,-0.282 -0.137,-0.16 -0.421,-0.589 -0.584,-0.787 -0.125,-0.151 -0.317,-0.192 -0.733,-0.268 -0.89,-0.164 -1.507,-0.217 -1.507,-0.217"/></g><g id="g38"><path id="path40" style="fill:#bf0a30;fill-opacity:1;fill-rule:nonzero;stroke:none" d="m 0,22.333 h 12 v 0.82 H 0 Z"/><path id="path41" style="fill:#eeeeee;fill-opacity:1;fill-rule:nonzero;stroke:none" d="m 0,23.154 h 12 v 0.723 H 0 Z"/><path id="path42" style="fill:#bf0a30;fill-opacity:1;fill-rule:nonzero;stroke:none" d="M 0,23.876 H 12 V 24.73 H 0 Z"/><path id="path43" style="fill:#eeeeee;fill-opacity:1;fill-rule:nonzero;stroke:none" d="m 0,24.729 h 12 v 0.723 H 0 Z"/><path id="path44" style="fill:#bf0a30;fill-opacity:1;fill-rule:nonzero;stroke:none" d="m 0,25.452 h 12 v 0.854 H 0 Z"/><path id="path45" style="fill:#eeeeee;fill-opacity:1;fill-rule:nonzero;stroke:none" d="m 0,27.0278 v -0.028 -0.694 h 12 v 0.722 H 4 Z"/><path id="path46" style="fill:#bf0a30;fill-opacity:1;fill-rule:nonzero;stroke:none" d="m 4,27.028 h 8 v 0.854 H 4 Z"/><path id="path47" style="fill:#eeeeee;fill-opacity:1;fill-rule:nonzero;stroke:none" d="m 4,27.881 h 8 v 0.722 H 4 Z"/><path id="path48" style="fill:#bf0a30;fill-opacity:1;fill-rule:nonzero;stroke:none" d="m 4,28.604 h 8 v 0.854 H 4 Z"/><path id="path49" style="fill:#eeeeee;fill-opacity:1;fill-rule:nonzero;stroke:none" d="m 4,29.457 h 8 v 0.722 H 4 Z"/><path id="path50" style="fill:#bf0a30;fill-opacity:1;fill-rule:nonzero;stroke:none" d="m 4,30.179 h 8 V 31 H 4 Z"/><path id="path51" style="fill:#002868;fill-opacity:1;fill-rule:nonzero;stroke:none" d="m 2,28.4375 -0.693,-0.503 0.265,0.814 -0.693,0.503 H 1.735 L 2,30.0665 2.265,29.2515 h 0.856 l -0.693,-0.503 0.265,-0.814 z m 2,-0.556 v 0.722 0.854 0.722 0.821 H 0 v -3.973 h 4 z"/><path id="path52" style="fill:#ffffff;fill-opacity:1;fill-rule:nonzero;stroke:none" d="m 3.1206,29.2515 h -0.856 l -0.265,0.814 -0.264,-0.814 h -0.856 l 0.692,-0.503 -0.264,-0.814 0.692,0.503 0.693,-0.503 -0.264,0.814 z"/></g></g></g></g></svg>