<svg xmlns:dc="http://purl.org/dc/elements/1.1/" xmlns:cc="http://creativecommons.org/ns#" xmlns:rdf="http://www.w3.org/1999/02/22-rdf-syntax-ns#" xmlns:svg="http://www.w3.org/2000/svg" xmlns="http://www.w3.org/2000/svg" viewBox="0 0 45 45" style="enable-background:new 0 0 45 45;" xml:space="preserve" version="1.1" id="svg2"><metadata id="metadata8"><rdf:RDF><cc:Work rdf:about=""><dc:format>image/svg+xml</dc:format><dc:type rdf:resource="http://purl.org/dc/dcmitype/StillImage"/></cc:Work></rdf:RDF></metadata><defs id="defs6"><clipPath id="clipPath16" clipPathUnits="userSpaceOnUse"><path id="path18" d="M 4,31 C 1.791,31 0,29.209 0,27 L 0,27 0,9 C 0,6.791 1.791,5 4,5 l 0,0 28,0 c 2.209,0 4,1.791 4,4 l 0,0 0,18 c 0,2.209 -1.791,4 -4,4 l 0,0 -28,0 z"/></clipPath></defs><g transform="matrix(1.25,0,0,-1.25,0,45)" id="g10"><g id="g12"><g xmlns="http://www.w3.org/2000/svg" clip-path="url(#clipPath16)" id="g14"><g id="g30"><path id="path20" style="fill:#eeeeee;fill-opacity:1;fill-rule:nonzero;stroke:none" d="m 36,5 -36,0 0,25.999 36,0 L 36,5 z"/><path id="path21" style="fill:#141414;fill-opacity:1;fill-rule:nonzero;stroke:none" d="m 18,17.9995 -18,13 18,0 0,-13 z"/><path id="path22" style="fill:#141414;fill-opacity:1;fill-rule:nonzero;stroke:none" d="m 36,30.999 -18,-13 18,0 0,13 z"/><path id="path23" style="fill:#141414;fill-opacity:1;fill-rule:nonzero;stroke:none" d="M 36,5 18,18 18,5 36,5 z"/><path id="path24" style="fill:#141414;fill-opacity:1;fill-rule:nonzero;stroke:none" d="M 0,5 0,18 18,18 0,5 z"/></g><g id="g34"><path id="path30" style="fill:#e70000;fill-opacity:1;fill-rule:nonzero;stroke:none" d="m 14.9727,19.4717 0,-4.533 c 0,0 -0.056,-3.039 3.027,-3.039 3.083,0 3.028,3.039 3.028,3.039 l 0,4.533 -6.055,0 z"/><path id="path31" style="fill:#ffffff;fill-opacity:1;fill-rule:nonzero;stroke:none" d="m 16.3071,17.9697 0,-2.844 c 0,0 -0.031,-1.907 1.693,-1.907 1.724,0 1.693,1.907 1.693,1.907 l 0,2.844 -3.386,0 z"/><path id="path32" style="fill:#004b80;fill-opacity:1;fill-rule:nonzero;stroke:none" d="m 17.6152,14.7344 0,-0.688 c 0,0 -0.007,-0.412 0.385,-0.412 0.392,0 0.385,0.412 0.385,0.412 l 0,0.688 -0.77,0 z"/><path id="path33" style="fill:#004b80;fill-opacity:1;fill-rule:nonzero;stroke:none" d="m 18.6152,16.1347 0,-0.688 c 0,0 -0.007,-0.413 0.385,-0.413 0.392,0 0.385,0.413 0.385,0.413 l 0,0.688 -0.77,0 z"/><path id="path34" style="fill:#004b80;fill-opacity:1;fill-rule:nonzero;stroke:none" d="m 17.6152,16.1347 0,-0.688 c 0,0 -0.007,-0.413 0.385,-0.413 0.392,0 0.385,0.413 0.385,0.413 l 0,0.688 -0.77,0 z"/><path id="path35" style="fill:#004b80;fill-opacity:1;fill-rule:nonzero;stroke:none" d="m 16.6152,16.1347 0,-0.688 c 0,0 -0.007,-0.413 0.385,-0.413 0.392,0 0.385,0.413 0.385,0.413 l 0,0.688 -0.77,0 z"/><path id="path36" style="fill:#004b80;fill-opacity:1;fill-rule:nonzero;stroke:none" d="m 17.6152,17.5342 0,-0.688 c 0,0 -0.007,-0.412 0.385,-0.412 0.392,0 0.385,0.412 0.385,0.412 l 0,0.688 -0.77,0 z"/><path id="path37" style="fill:#efc000;fill-opacity:1;fill-rule:nonzero;stroke:none" d="m 18.0298,19.8833 c -1.725,0 -2.997,-0.412 -2.997,-0.412 l -0.061,0.849 c 0,0 1.634,0.532 3.058,0.532 1.424,0 3.058,-0.532 3.058,-0.532 l -0.06,-0.849 c 0,0 -1.273,0.412 -2.998,0.412"/><path id="path38" style="fill:#efc000;fill-opacity:1;fill-rule:nonzero;stroke:none" d="m 18.0298,23.9697 c 0,0 -0.138,0.124 -0.268,0 -0.129,-0.124 -0.137,-0.153 -0.137,-0.153 0,0 -0.167,0.039 -0.327,-0.139 -0.086,-0.096 -0.15,-0.26 0.041,-0.318 0.19,-0.058 0.166,-0.151 0.166,-0.151 0,0 -0.166,-0.049 -0.272,-0.117 -0.106,-0.069 -0.114,-0.132 -0.206,-0.132 -0.067,0 -0.188,0.088 -0.188,0.088 0,0 -0.147,-0.12 -0.073,-0.36 0.075,-0.241 0.302,-0.308 0.302,-0.308 0,0 -0.108,-0.139 0.027,-0.277 0.098,-0.098 0.336,0.004 0.336,0.004 0,0 -0.341,-0.394 -0.177,-0.502 0.165,-0.108 0.224,0.139 0.273,0.173 0.049,0.033 0.223,-0.018 0.159,-0.265 -0.065,-0.247 -0.29,-0.457 -0.759,-0.308 -0.469,0.149 -0.455,0.411 -0.629,0.383 -0.255,-0.042 -0.079,-0.627 -0.589,-0.763 -0.396,-0.106 -0.858,0.321 -0.837,0.683 0.021,0.362 0.379,0.423 0.379,0.423 0,0 -0.202,0.165 -0.056,0.271 0.145,0.107 0.088,0.396 0.088,0.396 0,0 -0.331,-0.013 -0.431,-0.013 -0.1,0 -0.3,0.132 -0.3,0.203 0,0.072 0.167,0.327 0.167,0.327 0,0 -0.375,-0.016 -0.608,-0.245 -0.233,-0.23 -0.233,-0.396 -0.325,-0.443 -0.092,-0.047 -0.169,0.025 -0.308,-0.025 -0.139,-0.05 -0.13,-0.15 -0.13,-0.15 0,0 0.171,0.035 0.326,-0.033 0.155,-0.069 0.163,-0.145 0.224,-0.145 0.06,0 0.556,-0.375 0.556,-0.563 0,-0.188 0.021,-0.608 0.346,-0.77 0.442,-0.222 0.642,-0.274 0.994,-0.195 0.421,0.094 0.602,0.612 0.602,0.612 0,0 0.45,-0.372 0.918,-0.345 0.592,0.035 0.716,0.766 0.716,0.766 0,0 0.125,-0.731 0.716,-0.766 0.468,-0.027 0.919,0.345 0.919,0.345 0,0 0.181,-0.518 0.602,-0.612 0.351,-0.079 0.551,-0.027 0.994,0.195 0.325,0.162 0.345,0.582 0.345,0.77 0,0.188 0.496,0.563 0.557,0.563 0.061,0 0.069,0.076 0.224,0.145 0.154,0.068 0.325,0.033 0.325,0.033 0,0 0.01,0.1 -0.13,0.15 -0.138,0.05 -0.216,-0.022 -0.307,0.025 -0.092,0.047 -0.092,0.213 -0.326,0.443 -0.233,0.229 -0.608,0.245 -0.608,0.245 0,0 0.167,-0.255 0.167,-0.327 0,-0.071 -0.2,-0.203 -0.3,-0.203 -0.1,0 -0.431,0.013 -0.431,0.013 0,0 -0.056,-0.289 0.088,-0.396 0.146,-0.106 -0.056,-0.271 -0.056,-0.271 0,0 0.359,-0.061 0.38,-0.423 0.02,-0.362 -0.442,-0.789 -0.838,-0.683 -0.51,0.136 -0.333,0.721 -0.588,0.763 -0.174,0.028 -0.161,-0.234 -0.629,-0.383 -0.469,-0.149 -0.694,0.061 -0.759,0.308 -0.065,0.247 0.11,0.298 0.158,0.265 0.049,-0.034 0.109,-0.281 0.273,-0.173 0.165,0.108 -0.176,0.502 -0.176,0.502 0,0 0.237,-0.102 0.335,-0.004 0.135,0.138 0.027,0.277 0.027,0.277 0,0 0.228,0.067 0.302,0.308 0.074,0.24 -0.072,0.36 -0.072,0.36 0,0 -0.121,-0.088 -0.189,-0.088 -0.091,0 -0.099,0.063 -0.206,0.132 -0.105,0.068 -0.272,0.117 -0.272,0.117 0,0 -0.024,0.093 0.167,0.151 0.19,0.058 0.127,0.222 0.041,0.318 -0.161,0.178 -0.328,0.139 -0.328,0.139 0,0 -0.008,0.029 -0.137,0.153 -0.129,0.124 -0.268,0 -0.268,0"/><path id="path39" style="fill:#004b80;fill-opacity:1;fill-rule:nonzero;stroke:none" d="m 17.8281,22.7236 c 0,0.204 0.09,0.369 0.202,0.369 0.111,0 0.202,-0.165 0.202,-0.369 0,-0.204 -0.091,-0.369 -0.202,-0.369 -0.112,0 -0.202,0.165 -0.202,0.369"/><path id="path40" style="fill:#004b80;fill-opacity:1;fill-rule:nonzero;stroke:none" d="m 18.2319,22.7236 c 0,0.204 -0.09,0.369 -0.202,0.369 -0.111,0 -0.202,-0.165 -0.202,-0.369 0,-0.204 0.091,-0.369 0.202,-0.369 0.112,0 0.202,0.165 0.202,0.369"/><path id="path41" style="fill:#004b80;fill-opacity:1;fill-rule:nonzero;stroke:none" d="m 21.6924,21.935 c 0.134,0.153 0.311,0.218 0.395,0.145 0.084,-0.074 0.042,-0.258 -0.091,-0.411 -0.135,-0.153 -0.312,-0.218 -0.395,-0.145 -0.084,0.074 -0.043,0.258 0.091,0.411"/><path id="path42" style="fill:#004b80;fill-opacity:1;fill-rule:nonzero;stroke:none" d="m 14.3677,21.9345 c -0.134,0.153 -0.311,0.218 -0.395,0.145 -0.084,-0.073 -0.043,-0.257 0.091,-0.411 0.135,-0.153 0.311,-0.217 0.395,-0.144 0.084,0.073 0.043,0.257 -0.091,0.41"/><path id="path43" style="fill:#e0dcd8;fill-opacity:1;fill-rule:nonzero;stroke:none" d="m 19.9131,21.9272 c 0.107,0.187 0.289,0.283 0.406,0.215 0.116,-0.067 0.124,-0.273 0.017,-0.459 -0.108,-0.186 -0.289,-0.283 -0.406,-0.215 -0.117,0.067 -0.124,0.272 -0.017,0.459"/><path id="path44" style="fill:#e0dcd8;fill-opacity:1;fill-rule:nonzero;stroke:none" d="m 16.147,21.9272 c -0.107,0.187 -0.289,0.283 -0.406,0.215 -0.116,-0.067 -0.124,-0.273 -0.017,-0.459 0.108,-0.186 0.289,-0.283 0.406,-0.215 0.117,0.067 0.124,0.272 0.017,0.459"/><path id="path45" style="fill:#e0dcd8;fill-opacity:1;fill-rule:nonzero;stroke:none" d="m 19.3438,21.9311 c -0.005,0.215 0.101,0.392 0.235,0.395 0.135,0.002 0.248,-0.169 0.252,-0.384 0.005,-0.216 -0.1,-0.392 -0.235,-0.395 -0.135,-0.003 -0.248,0.169 -0.252,0.384"/><path id="path46" style="fill:#e0dcd8;fill-opacity:1;fill-rule:nonzero;stroke:none" d="m 16.7168,21.9311 c 0.004,0.215 -0.101,0.392 -0.236,0.395 -0.135,0.002 -0.247,-0.169 -0.252,-0.384 -0.005,-0.216 0.101,-0.392 0.236,-0.395 0.134,-0.003 0.247,0.169 0.252,0.384"/><path id="path47" style="fill:#e0dcd8;fill-opacity:1;fill-rule:nonzero;stroke:none" d="m 19.709,22.4458 c 0.001,0.215 0.11,0.389 0.245,0.389 0.135,-0.001 0.244,-0.176 0.243,-0.391 -10e-4,-0.215 -0.111,-0.389 -0.246,-0.388 -0.135,0 -0.243,0.175 -0.242,0.39"/><path id="path48" style="fill:#e0dcd8;fill-opacity:1;fill-rule:nonzero;stroke:none" d="m 16.3511,22.4458 c -10e-4,0.215 -0.111,0.389 -0.246,0.389 -0.134,-0.001 -0.243,-0.176 -0.242,-0.391 0.001,-0.215 0.111,-0.389 0.245,-0.388 0.135,0 0.244,0.175 0.243,0.39"/></g></g></g></g></svg>