<svg xmlns:dc="http://purl.org/dc/elements/1.1/" xmlns:cc="http://creativecommons.org/ns#" xmlns:rdf="http://www.w3.org/1999/02/22-rdf-syntax-ns#" xmlns:svg="http://www.w3.org/2000/svg" xmlns="http://www.w3.org/2000/svg" viewBox="0 0 45 45" style="enable-background:new 0 0 45 45;" xml:space="preserve" version="1.1" id="svg2"><metadata id="metadata8"><rdf:RDF><cc:Work rdf:about=""><dc:format>image/svg+xml</dc:format><dc:type rdf:resource="http://purl.org/dc/dcmitype/StillImage"/></cc:Work></rdf:RDF></metadata><defs id="defs6"><clipPath id="clipPath16" clipPathUnits="userSpaceOnUse"><path id="path18" d="M 4,31 C 1.791,31 0,29.209 0,27 L 0,27 0,9 C 0,6.791 1.791,5 4,5 l 0,0 28,0 c 2.209,0 4,1.791 4,4 l 0,0 0,18 c 0,2.209 -1.791,4 -4,4 l 0,0 -28,0 z"/></clipPath></defs><g transform="matrix(1.25,0,0,-1.25,0,45)" id="g10"><g id="g12"><g xmlns="http://www.w3.org/2000/svg" clip-path="url(#clipPath16)" id="g14"><g id="g20"><path id="path22" style="fill:#003f15;fill-opacity:1;fill-rule:nonzero;stroke:none" d="m 0,5 36,0 0,25.999 -36,0 L 0,5 z"/></g><g id="g24"><path id="path26" style="fill:#eeeeee;fill-opacity:1;fill-rule:nonzero;stroke:none" d="m 0,6.802 36,0 0,1.801 -36,0 0,-1.801 z"/></g><g id="g28"><path id="path30" style="fill:#eeeeee;fill-opacity:1;fill-rule:nonzero;stroke:none" d="m 0,10.404 36,0 0,1.802 -36,0 0,-1.802 z"/></g><g id="g32"><path id="path34" style="fill:#eeeeee;fill-opacity:1;fill-rule:nonzero;stroke:none" d="m 0,14.007 36,0 0,1.802 -36,0 0,-1.802 z"/></g><g id="g36"><path id="path38" style="fill:#eeeeee;fill-opacity:1;fill-rule:nonzero;stroke:none" d="m 0,17.609 36,0 0,1.801 -36,0 0,-1.801 z"/></g><g id="g40"><path id="path42" style="fill:#ff9a00;fill-opacity:1;fill-rule:nonzero;stroke:none" d="m 0,21.212 18,0 L 18,31 0,31 0,21.212 z"/></g><g id="g44"><path id="path46" style="fill:#ffffff;fill-opacity:1;fill-rule:nonzero;stroke:none" d="m 28.8564,29.2251 0.731,-0.827 1.013,0.44 -0.559,-0.951 0.73,-0.828 -1.077,0.239 -0.562,-0.951 -0.105,1.099 -1.078,0.239 1.012,0.441 -0.105,1.099 z"/></g><g id="g48"><path id="path50" style="fill:#ffffff;fill-opacity:1;fill-rule:nonzero;stroke:none" d="m 31.3916,24 c -0.693,-1.633 -2.313,-2.778 -4.198,-2.778 -2.518,0 -4.559,2.041 -4.559,4.558 0,2.034 1.332,3.757 3.171,4.344 -0.994,-0.76 -1.636,-1.959 -1.636,-3.307 0,-2.298 1.863,-4.16 4.16,-4.16 1.211,0 2.301,0.517 3.062,1.343"/></g></g></g></g></svg>