<svg xmlns:dc="http://purl.org/dc/elements/1.1/" xmlns:cc="http://creativecommons.org/ns#" xmlns:rdf="http://www.w3.org/1999/02/22-rdf-syntax-ns#" xmlns:svg="http://www.w3.org/2000/svg" xmlns="http://www.w3.org/2000/svg" viewBox="0 0 45 45" style="enable-background:new 0 0 45 45;" xml:space="preserve" version="1.1" id="svg2"><metadata id="metadata8"><rdf:RDF><cc:Work rdf:about=""><dc:format>image/svg+xml</dc:format><dc:type rdf:resource="http://purl.org/dc/dcmitype/StillImage"/></cc:Work></rdf:RDF></metadata><defs id="defs6"><clipPath id="clipPath16" clipPathUnits="userSpaceOnUse"><path id="path18" d="M 0,36 36,36 36,0 0,0 0,36 Z"/></clipPath></defs><g transform="matrix(1.25,0,0,-1.25,0,45)" id="g10"><g id="g12"><g xmlns="http://www.w3.org/2000/svg" clip-path="url(#clipPath16)" id="g14"><g id="g30"><path id="path20" style="fill:#002a86;fill-opacity:1;fill-rule:nonzero;stroke:none" d="m 36,9 0,18 c 0,2.209 -1.791,4 -4,4 L 4,31 C 1.791,31 0,29.209 0,27 L 0,9 C 0,6.791 1.791,5 4,5 l 28,0 c 2.209,0 4,1.791 4,4"/></g><g id="g32"><path id="path30" style="fill:#efae0e;fill-opacity:1;fill-rule:nonzero;stroke:none" d="m 10.375,18 c 0,4.211 3.414,7.625 7.625,7.625 4.211,0 7.625,-3.414 7.625,-7.625 0,-4.211 -3.414,-7.625 -7.625,-7.625 -4.211,0 -7.625,3.414 -7.625,7.625"/><path id="path31" style="fill:#002a86;fill-opacity:1;fill-rule:nonzero;stroke:none" d="m 10.8882,18 c 0,3.928 3.184,7.112 7.112,7.112 3.928,0 7.111,-3.184 7.111,-7.112 0,-3.928 -3.183,-7.111 -7.111,-7.111 -3.928,0 -7.112,3.183 -7.112,7.111"/><path id="path32" style="fill:#efae0e;fill-opacity:1;fill-rule:nonzero;stroke:none" d="m 12.104,18 c 0,3.256 2.64,5.896 5.896,5.896 3.256,0 5.896,-2.64 5.896,-5.896 0,-3.256 -2.64,-5.896 -5.896,-5.896 -3.256,0 -5.896,2.64 -5.896,5.896"/><path id="path33" style="fill:#4f9eff;fill-opacity:1;fill-rule:nonzero;stroke:none" d="m 12.4478,18 c 0,-3.066 2.486,-5.552 5.552,-5.552 3.067,0 5.552,2.486 5.552,5.552 l -11.104,0 z"/><path id="path34" style="fill:#ffffff;fill-opacity:1;fill-rule:nonzero;stroke:none" d="m 23.5518,18 c 0,3.066 -2.485,5.552 -5.552,5.552 -3.066,0 -5.552,-2.486 -5.552,-5.552 l 11.104,0 z"/></g><g id="g34"><path id="path40" style="fill:#efae0e;fill-opacity:1;fill-rule:nonzero;stroke:none" d="m 15.6353,12.4766 -0.031,-0.307 0.282,-0.124 -0.3,-0.065 -0.032,-0.307 -0.155,0.266 -0.301,-0.066 0.205,0.231 -0.155,0.266 0.282,-0.123 0.205,0.229 z"/><path id="path41" style="fill:#efae0e;fill-opacity:1;fill-rule:nonzero;stroke:none" d="m 16.4185,11.4697 -0.133,0.03 0.116,0.511 -0.169,-0.013 0.024,0.107 0.299,0.036 0.014,-0.003 -0.151,-0.668 z"/><path id="path42" style="fill:#efae0e;fill-opacity:1;fill-rule:nonzero;stroke:none" d="m 17.6685,11.876 -0.314,-0.584 -0.143,0.012 0.312,0.551 -0.339,0.028 0.009,0.108 0.481,-0.039 -0.006,-0.076 z"/><path id="path43" style="fill:#efae0e;fill-opacity:1;fill-rule:nonzero;stroke:none" d="m 18.6641,11.8887 -0.229,-0.622 -0.144,-0.009 0.232,0.589 -0.339,-0.02 -0.007,0.11 0.482,0.027 0.005,-0.075 z"/><path id="path44" style="fill:#efae0e;fill-opacity:1;fill-rule:nonzero;stroke:none" d="m 19.4688,11.7734 c -0.021,-0.004 -0.04,-0.014 -0.056,-0.028 -0.014,-0.015 -0.025,-0.033 -0.029,-0.052 l 0.008,-0.041 c 0.009,-0.044 0.024,-0.077 0.047,-0.099 0.022,-0.021 0.05,-0.029 0.081,-0.022 0.029,0.005 0.05,0.021 0.062,0.047 0.014,0.026 0.017,0.057 0.01,0.092 -0.008,0.038 -0.022,0.065 -0.045,0.083 -0.022,0.02 -0.048,0.026 -0.078,0.02 m 0.062,0.362 0.023,-0.109 -0.014,-0.003 c -0.059,-0.013 -0.105,-0.038 -0.135,-0.076 -0.031,-0.037 -0.044,-0.084 -0.041,-0.14 0.028,0.043 0.07,0.07 0.124,0.081 0.058,0.012 0.109,0 0.152,-0.035 0.042,-0.034 0.07,-0.086 0.084,-0.154 0.009,-0.043 0.007,-0.085 -0.005,-0.124 -0.012,-0.039 -0.033,-0.072 -0.063,-0.099 -0.031,-0.026 -0.068,-0.044 -0.112,-0.053 -0.07,-0.013 -0.133,-0.001 -0.185,0.04 -0.054,0.04 -0.088,0.102 -0.105,0.184 l -0.01,0.048 c -0.014,0.072 -0.013,0.14 0.003,0.201 0.017,0.061 0.047,0.112 0.093,0.152 0.045,0.041 0.102,0.069 0.169,0.082 l 0.022,0.005 z"/><path id="path45" style="fill:#efae0e;fill-opacity:1;fill-rule:nonzero;stroke:none" d="m 20.3857,12.4854 0.211,-0.241 0.295,0.126 -0.165,-0.276 0.211,-0.241 -0.313,0.07 -0.164,-0.274 -0.029,0.319 -0.313,0.072 0.295,0.126 -0.028,0.319 z"/><path id="path46" style="fill:#efae0e;fill-opacity:1;fill-rule:nonzero;stroke:none" d="m 13.5786,13.4512 c -0.018,-0.02 -0.025,-0.041 -0.021,-0.064 0.004,-0.023 0.018,-0.057 0.043,-0.102 0.025,-0.045 0.042,-0.083 0.053,-0.114 0.028,-0.083 0.018,-0.152 -0.031,-0.203 -0.025,-0.027 -0.055,-0.044 -0.09,-0.051 -0.036,-0.007 -0.073,-0.003 -0.112,0.012 -0.04,0.014 -0.077,0.039 -0.113,0.072 -0.036,0.033 -0.061,0.069 -0.077,0.108 -0.016,0.039 -0.02,0.078 -0.014,0.115 0.007,0.039 0.024,0.073 0.052,0.103 l 0.103,-0.097 c -0.022,-0.022 -0.031,-0.047 -0.028,-0.073 0.002,-0.026 0.017,-0.052 0.043,-0.076 0.025,-0.024 0.049,-0.036 0.073,-0.039 0.024,-0.002 0.044,0.005 0.06,0.022 0.016,0.017 0.02,0.038 0.014,0.064 -0.006,0.026 -0.02,0.059 -0.043,0.098 -0.042,0.073 -0.064,0.135 -0.067,0.186 -0.002,0.051 0.015,0.096 0.051,0.135 0.041,0.043 0.089,0.061 0.145,0.055 0.055,-0.005 0.111,-0.035 0.166,-0.087 0.039,-0.035 0.067,-0.075 0.085,-0.119 0.019,-0.043 0.025,-0.085 0.019,-0.125 -0.007,-0.04 -0.025,-0.076 -0.056,-0.108 l -0.103,0.097 c 0.052,0.054 0.045,0.113 -0.021,0.174 -0.025,0.024 -0.048,0.037 -0.071,0.039 -0.023,0.003 -0.043,-0.004 -0.06,-0.022"/><path id="path47" style="fill:#efae0e;fill-opacity:1;fill-rule:nonzero;stroke:none" d="m 12.9009,14.0322 0.173,-0.208 0.141,0.117 -0.202,0.244 0.087,0.073 0.293,-0.353 -0.527,-0.436 -0.292,0.351 0.088,0.073 0.202,-0.243 0.126,0.104 -0.173,0.208 0.084,0.07 z"/><path id="path48" style="fill:#efae0e;fill-opacity:1;fill-rule:nonzero;stroke:none" d="m 12.6372,14.4883 -0.092,0.145 -0.17,-0.21 0.262,0.065 z m -0.016,0.237 0.133,-0.208 0.144,0.035 0.08,-0.126 -0.714,-0.151 -0.07,0.11 0.441,0.582 0.08,-0.125 -0.094,-0.117 z"/><path id="path49" style="fill:#efae0e;fill-opacity:1;fill-rule:nonzero;stroke:none" d="m 12.3721,15.292 -0.127,0.271 0.102,0.047 0.188,-0.397 -0.62,-0.292 -0.059,0.128 0.516,0.243 z"/><path id="path50" style="fill:#efae0e;fill-opacity:1;fill-rule:nonzero;stroke:none" d="m 11.7813,16.1797 c -0.031,-0.009 -0.06,-0.006 -0.084,0.009 -0.024,0.014 -0.041,0.038 -0.049,0.069 -0.01,0.032 -0.007,0.062 0.007,0.086 0.013,0.024 0.035,0.041 0.065,0.05 l 0.019,0.006 c 0.032,0.008 0.059,0.005 0.084,-0.01 0.024,-0.015 0.041,-0.038 0.049,-0.069 0.009,-0.033 0.007,-0.061 -0.007,-0.086 -0.013,-0.026 -0.036,-0.042 -0.068,-0.051 l -0.016,-0.004 z"/><path id="path51" style="fill:#efae0e;fill-opacity:1;fill-rule:nonzero;stroke:none" d="m 11.5205,17.624 c -0.071,-0.006 -0.125,-0.023 -0.16,-0.052 -0.035,-0.028 -0.05,-0.066 -0.047,-0.113 0.004,-0.048 0.026,-0.082 0.064,-0.106 0.039,-0.022 0.094,-0.031 0.165,-0.025 l 0.033,0.002 c 0.07,0.006 0.123,0.023 0.159,0.053 0.036,0.028 0.053,0.066 0.049,0.115 -0.004,0.047 -0.026,0.082 -0.065,0.104 -0.039,0.022 -0.094,0.03 -0.165,0.025 l -0.033,-0.003 z m 0.02,0.145 c 0.066,0.005 0.126,-10e-4 0.179,-0.021 0.052,-0.02 0.094,-0.051 0.125,-0.092 0.031,-0.042 0.049,-0.092 0.054,-0.149 0.004,-0.056 -0.005,-0.109 -0.028,-0.154 -0.024,-0.046 -0.06,-0.084 -0.108,-0.113 -0.049,-0.029 -0.106,-0.046 -0.171,-0.051 l -0.034,-0.003 c -0.067,-0.005 -0.127,0.001 -0.18,0.022 -0.053,0.02 -0.095,0.051 -0.126,0.093 -0.031,0.042 -0.049,0.092 -0.053,0.148 -0.005,0.056 0.005,0.108 0.028,0.154 0.024,0.047 0.06,0.084 0.109,0.113 0.049,0.028 0.107,0.045 0.174,0.051 l 0.031,0.002 z"/><path id="path52" style="fill:#efae0e;fill-opacity:1;fill-rule:nonzero;stroke:none" d="m 11.6045,18.4941 -0.012,-0.271 0.279,-0.012 -0.006,-0.141 -0.683,0.031 0.02,0.445 0.113,-0.005 -0.013,-0.304 0.176,-0.008 0.013,0.27 0.113,-0.005 z"/><path id="path53" style="fill:#efae0e;fill-opacity:1;fill-rule:nonzero;stroke:none" d="m 11.6338,19.2803 c -0.032,0.007 -0.055,0.022 -0.07,0.047 -0.015,0.024 -0.019,0.053 -0.012,0.084 0.007,0.034 0.023,0.058 0.046,0.073 0.023,0.016 0.051,0.021 0.081,0.014 l 0.02,-0.004 c 0.032,-0.007 0.055,-0.023 0.07,-0.047 0.014,-0.024 0.018,-0.053 0.011,-0.085 -0.007,-0.032 -0.022,-0.056 -0.046,-0.072 -0.023,-0.016 -0.052,-0.021 -0.084,-0.013 l -0.016,0.003 z"/><path id="path54" style="fill:#efae0e;fill-opacity:1;fill-rule:nonzero;stroke:none" d="m 11.918,20.832 -0.08,-0.194 0.527,-0.218 -0.054,-0.13 -0.527,0.218 -0.079,-0.191 -0.105,0.043 0.213,0.515 0.105,-0.043 z"/><path id="path55" style="fill:#efae0e;fill-opacity:1;fill-rule:nonzero;stroke:none" d="m 12.8364,21.3237 -0.071,-0.122 -0.253,0.148 -0.138,-0.238 0.253,-0.147 -0.071,-0.122 -0.591,0.344 0.071,0.122 0.239,-0.14 0.139,0.238 -0.24,0.139 0.071,0.122 0.591,-0.344 z"/><path id="path56" style="fill:#efae0e;fill-opacity:1;fill-rule:nonzero;stroke:none" d="m 12.999,22.085 -0.166,-0.214 0.146,-0.113 0.194,0.252 0.09,-0.07 -0.281,-0.362 -0.541,0.418 0.28,0.362 0.091,-0.07 -0.194,-0.25 0.129,-0.1 0.166,0.214 0.086,-0.067 z"/><path id="path57" style="fill:#efae0e;fill-opacity:1;fill-rule:nonzero;stroke:none" d="m 13.5098,22.7256 c -0.022,0.024 -0.032,0.05 -0.03,0.079 0.002,0.028 0.015,0.054 0.039,0.076 0.025,0.022 0.052,0.033 0.079,0.032 0.029,0 0.053,-0.012 0.075,-0.035 l 0.014,-0.015 c 0.021,-0.024 0.031,-0.05 0.03,-0.078 -0.002,-0.028 -0.016,-0.054 -0.04,-0.076 -0.025,-0.022 -0.051,-0.033 -0.08,-0.033 -0.028,0.001 -0.053,0.013 -0.076,0.038 l -0.011,0.012 z"/><path id="path58" style="fill:#efae0e;fill-opacity:1;fill-rule:nonzero;stroke:none" d="m 14.7178,23.4238 c -0.014,0.022 -0.033,0.035 -0.056,0.037 -0.024,0.002 -0.06,-0.003 -0.11,-0.016 -0.05,-0.013 -0.091,-0.021 -0.123,-0.022 -0.088,-0.007 -0.151,0.021 -0.189,0.081 -0.02,0.031 -0.029,0.064 -0.027,0.1 0.003,0.035 0.016,0.07 0.04,0.105 0.024,0.035 0.057,0.065 0.098,0.091 0.041,0.026 0.083,0.042 0.124,0.047 0.042,0.006 0.08,0 0.116,-0.016 0.035,-0.015 0.064,-0.041 0.085,-0.075 l -0.119,-0.076 c -0.017,0.027 -0.038,0.042 -0.064,0.046 -0.026,0.004 -0.054,-0.003 -0.084,-0.022 -0.029,-0.019 -0.048,-0.039 -0.056,-0.062 -0.009,-0.022 -0.007,-0.044 0.006,-0.064 0.012,-0.018 0.031,-0.028 0.058,-0.029 0.027,0 0.063,0.005 0.107,0.017 0.08,0.023 0.146,0.028 0.195,0.018 0.051,-0.011 0.09,-0.038 0.118,-0.083 0.032,-0.051 0.038,-0.102 0.018,-0.154 -0.02,-0.052 -0.062,-0.099 -0.126,-0.139 -0.045,-0.029 -0.09,-0.046 -0.137,-0.053 -0.047,-0.006 -0.089,-0.002 -0.126,0.014 -0.037,0.017 -0.067,0.043 -0.091,0.081 l 0.12,0.075 c 0.04,-0.064 0.098,-0.071 0.175,-0.023 0.028,0.018 0.046,0.038 0.055,0.059 0.009,0.021 0.006,0.042 -0.007,0.063"/><path id="path59" style="fill:#efae0e;fill-opacity:1;fill-rule:nonzero;stroke:none" d="m 15.4106,24.2163 -0.19,-0.088 0.241,-0.516 -0.128,-0.061 -0.241,0.517 -0.187,-0.088 -0.048,0.104 0.505,0.236 0.048,-0.104 z"/><path id="path60" style="fill:#efae0e;fill-opacity:1;fill-rule:nonzero;stroke:none" d="m 15.936,24.0728 0.163,0.053 -0.161,0.217 -0.002,-0.27 z m 0.234,-0.044 -0.235,-0.076 -0.001,-0.149 -0.143,-0.046 0.032,0.729 0.124,0.04 0.454,-0.572 -0.142,-0.046 -0.089,0.12 z"/><path id="path61" style="fill:#efae0e;fill-opacity:1;fill-rule:nonzero;stroke:none" d="m 17.0015,24.6592 -0.206,-0.039 0.107,-0.56 -0.138,-0.026 -0.107,0.56 -0.203,-0.039 -0.022,0.112 0.548,0.104 0.021,-0.112 z"/><path id="path62" style="fill:#efae0e;fill-opacity:1;fill-rule:nonzero;stroke:none" d="m 17.7866,24.4551 -0.27,-0.018 0.012,-0.183 0.317,0.02 0.007,-0.112 -0.457,-0.031 -0.045,0.683 0.456,0.03 0.008,-0.114 -0.316,-0.021 0.011,-0.163 0.27,0.018 0.007,-0.109 z"/><path id="path63" style="fill:#efae0e;fill-opacity:1;fill-rule:nonzero;stroke:none" d="m 18.5986,24.4902 c 0.003,0.032 0.017,0.057 0.039,0.075 0.023,0.017 0.05,0.024 0.083,0.021 0.033,-0.004 0.059,-0.016 0.077,-0.038 0.019,-0.021 0.027,-0.048 0.023,-0.079 l -0.002,-0.021 c -0.003,-0.031 -0.016,-0.056 -0.039,-0.073 -0.022,-0.018 -0.05,-0.025 -0.082,-0.021 -0.034,0.003 -0.059,0.016 -0.078,0.037 -0.018,0.022 -0.026,0.049 -0.022,0.082 l 0.001,0.017 z"/><path id="path64" style="fill:#efae0e;fill-opacity:1;fill-rule:nonzero;stroke:none" d="m 20.0049,24.2012 c 0.021,0.068 0.024,0.125 0.01,0.167 -0.014,0.043 -0.043,0.072 -0.089,0.085 -0.045,0.014 -0.086,0.007 -0.121,-0.021 -0.035,-0.028 -0.063,-0.076 -0.083,-0.144 l -0.01,-0.031 c -0.02,-0.067 -0.023,-0.123 -0.01,-0.167 0.014,-0.045 0.043,-0.074 0.089,-0.087 0.046,-0.014 0.086,-0.007 0.121,0.022 0.034,0.028 0.063,0.076 0.083,0.144 l 0.01,0.032 z m 0.128,-0.071 c -0.02,-0.064 -0.048,-0.117 -0.085,-0.159 -0.037,-0.042 -0.081,-0.07 -0.132,-0.083 -0.05,-0.014 -0.102,-0.013 -0.158,0.004 -0.054,0.016 -0.099,0.044 -0.133,0.082 -0.035,0.04 -0.057,0.087 -0.065,0.142 -0.009,0.056 -0.005,0.115 0.014,0.178 l 0.009,0.032 c 0.02,0.065 0.049,0.118 0.086,0.16 0.038,0.042 0.083,0.07 0.133,0.084 0.051,0.013 0.102,0.011 0.157,-0.005 0.055,-0.016 0.1,-0.044 0.134,-0.083 0.035,-0.039 0.057,-0.086 0.064,-0.142 0.009,-0.056 0.004,-0.117 -0.015,-0.181 l -0.009,-0.029 z"/><path id="path65" style="fill:#efae0e;fill-opacity:1;fill-rule:nonzero;stroke:none" d="m 20.8027,23.7998 -0.247,0.11 -0.113,-0.255 -0.129,0.057 0.278,0.625 0.407,-0.182 -0.047,-0.104 -0.277,0.124 -0.072,-0.161 0.247,-0.11 -0.047,-0.104 z"/><path id="path66" style="fill:#efae0e;fill-opacity:1;fill-rule:nonzero;stroke:none" d="m 21.5527,23.4648 c 0.019,0.027 0.042,0.043 0.069,0.048 0.029,0.005 0.057,-0.002 0.083,-0.02 0.029,-0.019 0.045,-0.042 0.051,-0.07 0.007,-0.027 10e-4,-0.054 -0.016,-0.08 l -0.011,-0.017 c -0.019,-0.027 -0.041,-0.043 -0.07,-0.048 -0.027,-0.004 -0.055,0.002 -0.083,0.021 -0.027,0.019 -0.044,0.041 -0.05,0.069 -0.006,0.028 0,0.055 0.018,0.083 l 0.009,0.014 z"/><path id="path67" style="fill:#efae0e;fill-opacity:1;fill-rule:nonzero;stroke:none" d="m 22.5264,22.1851 -0.101,0.099 0.122,0.513 -0.317,-0.32 -0.1,0.099 0.481,0.486 0.1,-0.099 -0.122,-0.514 0.317,0.321 0.1,-0.099 -0.48,-0.486 z"/><path id="path68" style="fill:#efae0e;fill-opacity:1;fill-rule:nonzero;stroke:none" d="m 23.2041,21.8267 -0.167,0.213 -0.145,-0.114 0.196,-0.249 -0.089,-0.07 -0.282,0.361 0.538,0.421 0.282,-0.36 -0.09,-0.07 -0.195,0.249 -0.129,-0.101 0.167,-0.213 -0.086,-0.067 z"/><path id="path69" style="fill:#efae0e;fill-opacity:1;fill-rule:nonzero;stroke:none" d="m 23.5781,20.9985 0.468,0.162 0.07,-0.121 -0.669,-0.209 -0.07,0.123 0.341,0.324 -0.452,-0.132 -0.071,0.124 0.518,0.472 0.069,-0.122 -0.375,-0.322 0.478,0.144 0.059,-0.104 -0.366,-0.339 z"/><path id="path70" style="fill:#efae0e;fill-opacity:1;fill-rule:nonzero;stroke:none" d="m 24.1357,18.2324 -0.012,0.14 0.292,0.025 -0.023,0.273 -0.292,-0.024 -0.012,0.14 0.682,0.058 0.011,-0.14 -0.276,-0.024 0.024,-0.274 0.276,0.024 0.012,-0.141 -0.682,-0.057 z"/><path id="path71" style="fill:#efae0e;fill-opacity:1;fill-rule:nonzero;stroke:none" d="m 24.3818,17.7266 -0.009,-0.171 0.26,0.072 -0.251,0.099 z m -0.125,-0.203 0.014,0.247 -0.139,0.055 0.009,0.149 0.669,-0.291 -0.007,-0.131 -0.697,-0.219 0.007,0.151 0.144,0.039 z"/><path id="path72" style="fill:#efae0e;fill-opacity:1;fill-rule:nonzero;stroke:none" d="m 24.3896,16.8809 -0.023,-0.124 c -0.007,-0.036 -0.004,-0.066 0.009,-0.089 0.014,-0.022 0.036,-0.036 0.069,-0.043 0.033,-0.006 0.061,-0.001 0.086,0.014 0.023,0.015 0.039,0.041 0.046,0.075 l 0.024,0.126 -0.211,0.041 z m -0.111,0.021 -0.238,0.045 0.027,0.139 0.672,-0.129 -0.05,-0.262 c -0.01,-0.05 -0.028,-0.092 -0.053,-0.127 -0.026,-0.036 -0.058,-0.06 -0.096,-0.074 -0.038,-0.014 -0.079,-0.017 -0.122,-0.009 -0.066,0.013 -0.113,0.045 -0.142,0.098 -0.03,0.052 -0.037,0.118 -0.022,0.197 l 0.024,0.122 z"/><path id="path73" style="fill:#efae0e;fill-opacity:1;fill-rule:nonzero;stroke:none" d="m 23.9209,15.9092 c 0.025,-0.008 0.048,-0.006 0.067,0.008 0.019,0.013 0.044,0.041 0.075,0.082 0.03,0.041 0.057,0.073 0.081,0.096 0.063,0.06 0.13,0.079 0.197,0.057 0.035,-0.012 0.063,-0.032 0.084,-0.06 0.021,-0.03 0.033,-0.065 0.036,-0.108 0.004,-0.042 -0.003,-0.086 -0.018,-0.132 -0.015,-0.047 -0.037,-0.085 -0.066,-0.115 -0.028,-0.031 -0.061,-0.052 -0.099,-0.061 -0.037,-0.01 -0.076,-0.009 -0.114,0.004 l 0.044,0.134 c 0.029,-0.01 0.056,-0.009 0.078,0.005 0.024,0.013 0.04,0.037 0.051,0.07 0.012,0.034 0.013,0.061 0.005,0.083 -0.008,0.024 -0.024,0.039 -0.046,0.046 -0.021,0.007 -0.042,0.002 -0.063,-0.014 -0.022,-0.017 -0.045,-0.043 -0.072,-0.08 -0.048,-0.07 -0.094,-0.116 -0.139,-0.139 -0.046,-0.023 -0.094,-0.027 -0.145,-0.011 -0.056,0.019 -0.093,0.055 -0.11,0.108 -0.019,0.053 -0.016,0.116 0.008,0.188 0.016,0.05 0.041,0.092 0.073,0.127 0.031,0.035 0.067,0.058 0.106,0.069 0.038,0.011 0.079,0.01 0.121,-0.004 l -0.045,-0.134 c -0.071,0.023 -0.121,-0.008 -0.149,-0.093 -0.011,-0.032 -0.013,-0.059 -0.006,-0.081 0.008,-0.023 0.023,-0.037 0.046,-0.045"/><path id="path74" style="fill:#efae0e;fill-opacity:1;fill-rule:nonzero;stroke:none" d="m 23.3887,15.0625 0.062,0.126 0.263,-0.128 0.121,0.246 -0.263,0.129 0.062,0.127 0.614,-0.3 -0.061,-0.127 -0.249,0.121 -0.121,-0.246 0.249,-0.122 -0.062,-0.127 -0.615,0.301 z"/><path id="path75" style="fill:#efae0e;fill-opacity:1;fill-rule:nonzero;stroke:none" d="m 23.1709,14.6523 0.075,0.119 0.578,-0.364 -0.075,-0.119 -0.578,0.364 z"/><path id="path76" style="fill:#efae0e;fill-opacity:1;fill-rule:nonzero;stroke:none" d="m 23.1846,14.0381 -0.071,-0.089 c -0.022,-0.027 -0.032,-0.055 -0.03,-0.081 0.002,-0.026 0.016,-0.05 0.04,-0.069 0.026,-0.02 0.051,-0.029 0.078,-0.026 0.025,0.003 0.049,0.02 0.074,0.049 l 0.069,0.089 -0.16,0.127 z m -0.159,-0.017 0.069,0.088 -0.196,0.156 0.087,0.11 0.537,-0.424 -0.158,-0.199 c -0.05,-0.064 -0.103,-0.102 -0.159,-0.113 -0.055,-0.013 -0.108,0.002 -0.16,0.043 -0.037,0.028 -0.061,0.06 -0.073,0.095 -0.012,0.035 -0.012,0.075 -0.001,0.118 l -0.311,0.058 -0.005,0.004 0.093,0.119 0.277,-0.055 z"/><path id="path77" style="fill:#efae0e;fill-opacity:1;fill-rule:nonzero;stroke:none" d="m 22.3955,13.2607 0.192,0.19 -0.13,0.131 -0.225,-0.222 -0.08,0.08 0.327,0.322 0.479,-0.486 -0.325,-0.322 -0.08,0.081 0.226,0.223 -0.115,0.115 -0.193,-0.189 -0.076,0.077 z"/></g><g id="g36"><path id="path80" style="fill:#efae0e;fill-opacity:1;fill-rule:nonzero;stroke:none" d="m 22.7041,25.5942 c 0,0 0.061,0.371 -0.84,1.188 -0.899,0.818 -2.352,0.665 -2.352,0.665 0,0 0.114,-1.076 1.088,-1.512 0.906,-0.406 2.104,-0.341 2.104,-0.341"/><path id="path81" style="fill:#efae0e;fill-opacity:1;fill-rule:nonzero;stroke:none" d="m 26.3369,21.1548 c 0,0 0.238,0.291 -0.132,1.449 -0.37,1.158 -1.705,1.753 -1.705,1.753 0,0 -0.439,-0.989 0.186,-1.854 0.582,-0.805 1.651,-1.348 1.651,-1.348"/><path id="path82" style="fill:#efae0e;fill-opacity:1;fill-rule:nonzero;stroke:none" d="m 26.501,15.3936 c 0,0 0.372,0.055 0.879,1.16 0.507,1.105 -0.078,2.444 -0.078,2.444 0,0 -0.99,-0.435 -1.112,-1.495 -0.113,-0.986 0.311,-2.109 0.311,-2.109"/><path id="path83" style="fill:#efae0e;fill-opacity:1;fill-rule:nonzero;stroke:none" d="m 23.1699,10.7295 c 0,0 0.317,-0.2 1.422,0.31 1.103,0.51 1.529,1.908 1.529,1.908 0,0 -1.035,0.313 -1.816,-0.413 -0.728,-0.676 -1.135,-1.805 -1.135,-1.805"/><path id="path84" style="fill:#efae0e;fill-opacity:1;fill-rule:nonzero;stroke:none" d="m 18,8.6611 c 0,0 0.172,-0.411 1.386,-0.473 1.215,-0.061 2.241,0.979 2.241,0.979 0,0 -0.77,0.759 -1.8,0.478 C 18.869,9.3851 18,8.6611 18,8.6611"/><path id="path85" style="fill:#efae0e;fill-opacity:1;fill-rule:nonzero;stroke:none" d="m 13.2959,25.5942 c 0,0 -0.061,0.371 0.839,1.188 0.9,0.818 2.353,0.665 2.353,0.665 0,0 -0.114,-1.076 -1.088,-1.512 -0.906,-0.406 -2.104,-0.341 -2.104,-0.341"/><path id="path86" style="fill:#efae0e;fill-opacity:1;fill-rule:nonzero;stroke:none" d="m 9.6631,21.1548 c 0,0 -0.238,0.291 0.132,1.449 0.37,1.158 1.705,1.753 1.705,1.753 0,0 0.439,-0.989 -0.186,-1.854 -0.581,-0.805 -1.651,-1.348 -1.651,-1.348"/><path id="path87" style="fill:#efae0e;fill-opacity:1;fill-rule:nonzero;stroke:none" d="m 9.4985,15.3936 c 0,0 -0.372,0.055 -0.878,1.16 -0.508,1.105 0.078,2.444 0.078,2.444 0,0 0.99,-0.435 1.112,-1.495 0.112,-0.986 -0.312,-2.109 -0.312,-2.109"/><path id="path88" style="fill:#efae0e;fill-opacity:1;fill-rule:nonzero;stroke:none" d="m 12.8301,10.7295 c 0,0 -0.318,-0.2 -1.421,0.31 -1.104,0.51 -1.53,1.908 -1.53,1.908 0,0 1.035,0.313 1.816,-0.413 0.727,-0.676 1.135,-1.805 1.135,-1.805"/><path id="path89" style="fill:#efae0e;fill-opacity:1;fill-rule:nonzero;stroke:none" d="m 18,8.6611 c 0,0 -0.172,-0.411 -1.386,-0.473 -1.215,-0.061 -2.241,0.979 -2.241,0.979 0,0 0.77,0.759 1.8,0.478 C 17.131,9.3851 18,8.6611 18,8.6611"/><path id="path90" style="fill:#efae0e;fill-opacity:1;fill-rule:nonzero;stroke:none" d="m 14.2358,10.9912 -0.543,-0.523 -0.665,0.354 0.329,-0.678 -0.543,-0.523 0.747,0.103 0.33,-0.677 0.132,0.742 0.747,0.104 -0.666,0.355 0.132,0.743 z"/><path id="path91" style="fill:#efae0e;fill-opacity:1;fill-rule:nonzero;stroke:none" d="m 10.7681,14.7139 -0.749,-0.089 -0.315,0.686 -0.148,-0.741 -0.748,-0.087 0.657,-0.37 -0.147,-0.739 0.554,0.512 0.658,-0.368 -0.316,0.684 0.554,0.512 z"/><path id="path92" style="fill:#efae0e;fill-opacity:1;fill-rule:nonzero;stroke:none" d="m 10.2554,19.8994 -0.648,0.385 0.165,0.735 -0.566,-0.497 -0.649,0.384 0.299,-0.692 -0.566,-0.498 0.75,0.07 0.298,-0.693 0.167,0.736 0.75,0.07 z"/><path id="path93" style="fill:#efae0e;fill-opacity:1;fill-rule:nonzero;stroke:none" d="m 13.0957,24.2695 -0.264,0.706 0.59,0.47 -0.753,-0.033 -0.264,0.706 -0.202,-0.726 -0.753,-0.034 0.628,-0.416 -0.201,-0.726 0.59,0.469 0.629,-0.416 z"/><path id="path94" style="fill:#efae0e;fill-opacity:1;fill-rule:nonzero;stroke:none" d="m 21.7646,10.9912 0.543,-0.523 0.665,0.354 -0.33,-0.678 0.543,-0.523 -0.746,0.103 -0.33,-0.677 -0.132,0.742 -0.747,0.104 0.666,0.355 -0.132,0.743 z"/><path id="path95" style="fill:#efae0e;fill-opacity:1;fill-rule:nonzero;stroke:none" d="m 25.2324,14.7139 0.748,-0.089 0.316,0.686 0.147,-0.741 0.749,-0.087 -0.658,-0.37 0.147,-0.739 -0.553,0.512 -0.659,-0.368 0.317,0.684 -0.554,0.512 z"/><path id="path96" style="fill:#efae0e;fill-opacity:1;fill-rule:nonzero;stroke:none" d="m 25.7441,19.8994 0.648,0.385 -0.165,0.735 0.567,-0.497 0.648,0.384 -0.299,-0.692 0.567,-0.498 -0.751,0.07 -0.298,-0.693 -0.166,0.736 -0.751,0.07 z"/><path id="path97" style="fill:#efae0e;fill-opacity:1;fill-rule:nonzero;stroke:none" d="m 22.9043,24.2695 0.265,0.706 -0.591,0.47 0.754,-0.033 0.263,0.706 0.202,-0.726 0.753,-0.034 -0.628,-0.416 0.201,-0.726 -0.59,0.469 -0.629,-0.416 z"/><path id="path98" style="fill:#efae0e;fill-opacity:1;fill-rule:nonzero;stroke:none" d="m 18,27.9233 0.233,-0.717 0.754,0 -0.61,-0.443 0.233,-0.717 -0.61,0.443 -0.61,-0.443 0.233,0.717 -0.61,0.443 0.754,0 0.233,0.717 z"/></g></g></g></g></svg>