<svg xmlns:dc="http://purl.org/dc/elements/1.1/" xmlns:cc="http://creativecommons.org/ns#" xmlns:rdf="http://www.w3.org/1999/02/22-rdf-syntax-ns#" xmlns:svg="http://www.w3.org/2000/svg" xmlns="http://www.w3.org/2000/svg" viewBox="0 0 45 45" style="enable-background:new 0 0 45 45;" xml:space="preserve" version="1.1" id="svg2"><metadata id="metadata8"><rdf:RDF><cc:Work rdf:about=""><dc:format>image/svg+xml</dc:format><dc:type rdf:resource="http://purl.org/dc/dcmitype/StillImage"/></cc:Work></rdf:RDF></metadata><defs id="defs6"><clipPath id="clipPath16" clipPathUnits="userSpaceOnUse"><path id="path18" d="M 4,31 C 1.791,31 0,29.209 0,27 L 0,27 0,9 C 0,6.791 1.791,5 4,5 l 0,0 28,0 c 2.209,0 4,1.791 4,4 l 0,0 0,18 c 0,2.209 -1.791,4 -4,4 l 0,0 -28,0 z"/></clipPath></defs><g transform="matrix(1.25,0,0,-1.25,0,45)" id="g10"><g id="g12"><g xmlns="http://www.w3.org/2000/svg" clip-path="url(#clipPath16)" id="g14"><g id="g20"><path id="path22" style="fill:#4582c3;fill-opacity:1;fill-rule:nonzero;stroke:none" d="M 0,5 H 36 V 31 H 0 Z"/></g><g id="g24"><path id="path26" style="fill:#eeeeee;fill-opacity:1;fill-rule:nonzero;stroke:none" d="M 28,18 C 28,23.522 23.522,28 18,28 12.477,28 8,23.522 8,18 8,12.477 12.477,8 18,8 c 5.522,0 10,4.477 10,10"/></g><g id="g28"><path id="path30" style="fill:#3a53a6;fill-opacity:1;fill-rule:nonzero;stroke:none" d="m 27.7344,18 c 0,5.376 -4.358,9.734 -9.734,9.734 -5.376,0 -9.735,-4.358 -9.735,-9.734 0,-5.376 4.359,-9.734 9.735,-9.734 5.376,0 9.734,4.358 9.734,9.734"/></g><g id="g32"><path id="path34" style="fill:#f00000;fill-opacity:1;fill-rule:nonzero;stroke:none" d="m 27.0498,18.6841 c 0,4.999 -4.052,9.05 -9.05,9.05 -4.998,0 -9.05,-4.051 -9.05,-9.05 0,-4.999 4.052,-9.05 9.05,-9.05 4.998,0 9.05,4.051 9.05,9.05"/></g><g id="g36"><path id="path38" style="fill:#eeeeee;fill-opacity:1;fill-rule:nonzero;stroke:none" d="m 25.7451,19.9888 c 0,4.278 -3.468,7.746 -7.745,7.746 -4.278,0 -7.746,-3.468 -7.746,-7.746 0,-4.278 3.468,-7.746 7.746,-7.746 4.277,0 7.745,3.468 7.745,7.746"/></g><g id="g40"><path id="path42" style="fill:#3a53a6;fill-opacity:1;fill-rule:nonzero;stroke:none" d="m 11.9897,16.3467 c -0.8,1.169 -1.269,2.585 -1.269,4.108 0,4.02 3.259,7.28 7.279,7.28 4.021,0 7.28,-3.26 7.28,-7.28 0,-1.525 -0.469,-2.941 -1.271,-4.11 -1.392,1.79 -3.565,2.942 -6.009,2.942 -2.443,0 -4.618,-1.15 -6.01,-2.94"/></g><g id="g44"><path id="path46" style="fill:#eeeeee;fill-opacity:1;fill-rule:nonzero;stroke:none" d="m 18,22.7954 -1.694,-2.95 -1.079,1.039 -2.943,-2.235 2.722,3.244 0.938,-0.682 2.056,3.75 2.057,-3.75 0.937,0.682 2.722,-3.244 -2.943,2.235 -1.08,-1.039 z"/></g></g></g></g></svg>