<svg xmlns:dc="http://purl.org/dc/elements/1.1/" xmlns:cc="http://creativecommons.org/ns#" xmlns:rdf="http://www.w3.org/1999/02/22-rdf-syntax-ns#" xmlns:svg="http://www.w3.org/2000/svg" xmlns="http://www.w3.org/2000/svg" viewBox="0 0 45 45" style="enable-background:new 0 0 45 45;" xml:space="preserve" version="1.1" id="svg2"><metadata id="metadata8"><rdf:RDF><cc:Work rdf:about=""><dc:format>image/svg+xml</dc:format><dc:type rdf:resource="http://purl.org/dc/dcmitype/StillImage"/></cc:Work></rdf:RDF></metadata><defs id="defs6"><clipPath xmlns="http://www.w3.org/2000/svg" id="clipPath16" clipPathUnits="userSpaceOnUse"><path id="path18" d="M 0,36 36,36 36,0 0,0 0,36 Z"/></clipPath><linearGradient xmlns="http://www.w3.org/2000/svg" x1="0" y1="0" x2="1" y2="0" gradientUnits="userSpaceOnUse" gradientTransform="matrix(9.8656244,-9.8656244,-9.8656244,-9.8656244,1.4730469,22.930859)" spreadMethod="pad" id="linearGradient3163"><stop style="stop-opacity:1;stop-color:#0e3e5a" offset="0" id="stop3165"/><stop style="stop-opacity:1;stop-color:#5a698e" offset="0.666666" id="stop3167"/><stop style="stop-opacity:1;stop-color:#5a698e" offset="0.666666" id="stop3169"/><stop style="stop-opacity:1;stop-color:#979dc1" offset="1" id="stop3171"/></linearGradient></defs><g transform="matrix(1.25,0,0,-1.25,0,45)" id="g10"><g id="g12"><g xmlns="http://www.w3.org/2000/svg" clip-path="url(#clipPath16)" id="g14"><g transform="translate(32,31)" id="g20"><path id="path22" style="fill:#0e3e5a;fill-opacity:1;fill-rule:nonzero;stroke:none" d="m 0,0 -28,0 c -2.209,0 -4,-1.791 -4,-4 l 0,-18 c 0,-2.209 1.791,-4 4,-4 l 28,0 c 2.209,0 4,1.791 4,4 L 4,-4 C 4,-1.791 2.209,0 0,0"/></g><g id="g3147" transform="translate(11.5015,12.9082)"><path d="m 0,0 -3.4,0 0,3.359 -3.391,0 0,-3.359 -3.4,0 0,10.18 3.4,0 0,-3.42 3.391,0 0,3.42 3.4,0 L 0,0 z" style="fill:#ffffff;fill-opacity:1;fill-rule:nonzero;stroke:none" id="path3149"/></g><g id="g3151"><path d="m 8.261,22.928 0,-3.42 -3.711,0 0,3.42 -3.079,0 0,-9.86 3.079,0 0,3.359 3.711,0 0,-3.359 3.08,0 0,9.86 -3.08,0 z" style="fill:url(#linearGradient3163);stroke:none" id="path3173"/></g><g id="g3175"><g id="g3183" transform="translate(15.373,19.9639)"><path d="m 0,0 0.419,0 c 0.13,0 0.231,0.033 0.303,0.1 0.071,0.066 0.107,0.157 0.107,0.274 0,0.119 -0.033,0.213 -0.101,0.28 C 0.661,0.723 0.557,0.757 0.417,0.757 L 0,0.757 0,0 z m 0.414,-0.421 -0.414,0 0,-0.923 -0.52,0 0,2.522 0.937,0 C 0.715,1.178 0.945,1.111 1.106,0.979 1.268,0.846 1.349,0.658 1.349,0.415 1.349,0.243 1.312,0.101 1.237,-0.015 1.163,-0.13 1.05,-0.221 0.898,-0.289 l 0.546,-1.03 0,-0.025 -0.558,0 -0.472,0.923 z" style="fill:#ffffff;fill-opacity:1;fill-rule:nonzero;stroke:none" id="path3185"/></g><g id="g3187" transform="translate(17.8145,20.125)"><path d="M 0,0 C -0.099,0 -0.18,-0.033 -0.241,-0.101 -0.303,-0.168 -0.343,-0.265 -0.36,-0.39 l 0.696,0 0,0.04 C 0.333,-0.238 0.304,-0.152 0.246,-0.092 0.188,-0.03 0.106,0 0,0 m 0.057,-1.539 c -0.275,0 -0.498,0.084 -0.671,0.252 -0.172,0.169 -0.259,0.393 -0.259,0.674 l 0,0.049 c 0,0.187 0.037,0.356 0.109,0.504 0.074,0.149 0.176,0.263 0.31,0.343 0.133,0.08 0.285,0.12 0.456,0.12 0.256,0 0.458,-0.081 0.604,-0.242 0.148,-0.162 0.222,-0.39 0.222,-0.687 l 0,-0.204 -1.193,0 c 0.016,-0.124 0.065,-0.221 0.146,-0.295 0.081,-0.074 0.184,-0.111 0.309,-0.111 0.193,0 0.343,0.07 0.452,0.209 L 0.788,-1.201 C 0.713,-1.308 0.611,-1.391 0.483,-1.45 0.355,-1.51 0.213,-1.539 0.057,-1.539" style="fill:#ffffff;fill-opacity:1;fill-rule:nonzero;stroke:none" id="path3189"/></g><g id="g3191" transform="translate(19.2451,19.8555)"><path d="m 0,0 c 0,-0.074 0.03,-0.136 0.089,-0.186 0.06,-0.049 0.137,-0.075 0.231,-0.075 0.087,0 0.161,0.025 0.222,0.074 0.06,0.048 0.09,0.112 0.09,0.191 l 0,0.034 C 0.632,0.114 0.603,0.177 0.545,0.225 0.486,0.272 0.41,0.297 0.316,0.297 0.222,0.297 0.146,0.272 0.088,0.225 0.029,0.177 0,0.113 0,0.033 L 0,0 z m -0.012,-1.21 c -0.074,-0.039 -0.111,-0.102 -0.111,-0.186 0,-0.068 0.036,-0.122 0.107,-0.162 0.073,-0.04 0.168,-0.06 0.287,-0.06 0.138,0 0.25,0.022 0.334,0.065 0.086,0.043 0.129,0.098 0.129,0.162 0,0.113 -0.084,0.169 -0.251,0.169 l -0.41,10e-4 -0.085,0.011 z m 1.257,1.585 -0.218,0 C 1.097,0.274 1.132,0.162 1.132,0.038 L 1.132,0 c 0,-0.183 -0.075,-0.335 -0.227,-0.457 -0.152,-0.121 -0.347,-0.182 -0.585,-0.182 -0.091,0 -0.175,0.009 -0.254,0.028 -0.029,-0.032 -0.043,-0.067 -0.043,-0.106 0,-0.044 0.016,-0.076 0.049,-0.095 0.033,-0.018 0.086,-0.029 0.159,-0.03 l 0.347,0 c 0.209,-0.002 0.37,-0.049 0.484,-0.139 0.115,-0.091 0.172,-0.22 0.172,-0.385 0,-0.106 -0.042,-0.207 -0.125,-0.307 C 1.024,-1.771 0.91,-1.85 0.764,-1.908 0.617,-1.967 0.453,-1.996 0.271,-1.996 c -0.171,0 -0.322,0.019 -0.453,0.06 -0.131,0.041 -0.233,0.098 -0.304,0.172 -0.073,0.075 -0.109,0.157 -0.109,0.246 0,0.092 0.03,0.175 0.088,0.25 0.06,0.077 0.141,0.136 0.245,0.181 -0.052,0.057 -0.078,0.129 -0.078,0.216 0,0.132 0.067,0.241 0.201,0.33 -0.114,0.057 -0.203,0.132 -0.266,0.226 C -0.469,-0.221 -0.5,-0.115 -0.5,0 l 0,0.038 c 0,0.191 0.075,0.345 0.226,0.463 0.15,0.117 0.347,0.176 0.59,0.176 0.104,0 0.202,-0.012 0.292,-0.034 l 0.634,0 0.003,-0.268 z" style="fill:#ffffff;fill-opacity:1;fill-rule:nonzero;stroke:none" id="path3193"/></g><g id="g3195" transform="translate(20.7979,20.9785)"><path d="M 0,0 C 0,0.075 0.025,0.137 0.075,0.186 0.125,0.233 0.193,0.258 0.28,0.258 0.365,0.258 0.434,0.233 0.484,0.186 0.535,0.137 0.561,0.075 0.561,0 0.561,-0.076 0.535,-0.139 0.483,-0.187 0.432,-0.235 0.364,-0.26 0.28,-0.26 0.196,-0.26 0.128,-0.235 0.076,-0.187 0.025,-0.139 0,-0.076 0,0" style="fill:#ffffff;fill-opacity:1;fill-rule:nonzero;stroke:none" id="path3197"/></g><path d="m 21.329,18.62 -0.502,0 0,1.874 0.502,0 0,-1.874 z" style="fill:#ffffff;fill-opacity:1;fill-rule:nonzero;stroke:none" id="path3199"/><g id="g3201" transform="translate(22.0889,19.5391)"><path d="m 0,0 c 0,-0.178 0.034,-0.314 0.1,-0.408 0.067,-0.095 0.164,-0.142 0.288,-0.142 0.121,0 0.216,0.046 0.284,0.14 0.068,0.093 0.101,0.242 0.101,0.446 0,0.175 -0.033,0.31 -0.101,0.405 C 0.604,0.538 0.508,0.586 0.385,0.586 0.262,0.586 0.167,0.538 0.1,0.443 0.034,0.348 0,0.199 0,0 m -0.5,0.035 c 0,0.186 0.035,0.352 0.107,0.497 0.071,0.146 0.174,0.258 0.309,0.338 0.134,0.079 0.291,0.119 0.469,0.119 0.252,0 0.458,-0.077 0.618,-0.231 0.16,-0.155 0.25,-0.365 0.268,-0.631 l 0.003,-0.128 c 0,-0.288 -0.08,-0.519 -0.24,-0.692 -0.161,-0.173 -0.376,-0.26 -0.646,-0.26 -0.271,0 -0.486,0.086 -0.647,0.26 C -0.42,-0.521 -0.5,-0.285 -0.5,0.013 l 0,0.022 z" style="fill:#ffffff;fill-opacity:1;fill-rule:nonzero;stroke:none" id="path3203"/></g><g id="g3205" transform="translate(24.0576,20.4941)"><path d="m 0,0 0.015,-0.217 c 0.134,0.167 0.314,0.251 0.539,0.251 0.199,0 0.346,-0.058 0.443,-0.175 0.097,-0.117 0.147,-0.291 0.149,-0.523 l 0,-1.21 -0.5,0 0,1.201 c 0,0.107 -0.023,0.184 -0.069,0.232 -0.047,0.047 -0.124,0.072 -0.23,0.072 -0.142,0 -0.247,-0.061 -0.318,-0.181 l 0,-1.324 -0.5,0 0,1.874 L 0,0 z" style="fill:#ffffff;fill-opacity:1;fill-rule:nonzero;stroke:none" id="path3207"/></g><g id="g3209" transform="translate(16.9053,15.1406)"><path d="m 0,0 -0.52,0 0,1.08 -1.012,0 0,-1.08 -0.52,0 0,2.521 0.52,0 0,-1.022 1.012,0 0,1.022 0.52,0 L 0,0 z" style="fill:#ffffff;fill-opacity:1;fill-rule:nonzero;stroke:none" id="path3211"/></g><g id="g3213" transform="translate(17.6743,16.0596)"><path d="m 0,0 c 0,-0.179 0.033,-0.314 0.1,-0.409 0.067,-0.094 0.163,-0.141 0.287,-0.141 0.122,0 0.216,0.047 0.285,0.14 0.068,0.093 0.101,0.241 0.101,0.446 0,0.175 -0.033,0.31 -0.101,0.406 C 0.603,0.537 0.508,0.586 0.384,0.586 0.262,0.586 0.167,0.538 0.1,0.442 0.033,0.348 0,0.2 0,0 m -0.5,0.035 c 0,0.186 0.035,0.352 0.106,0.497 0.072,0.145 0.175,0.258 0.31,0.337 0.134,0.08 0.29,0.12 0.468,0.12 0.253,0 0.46,-0.078 0.619,-0.232 0.16,-0.154 0.249,-0.365 0.267,-0.63 l 0.004,-0.128 c 0,-0.287 -0.08,-0.518 -0.24,-0.692 -0.16,-0.173 -0.376,-0.26 -0.647,-0.26 -0.269,0 -0.485,0.086 -0.646,0.259 C -0.42,-0.521 -0.5,-0.285 -0.5,0.013 l 0,0.022 z" style="fill:#ffffff;fill-opacity:1;fill-rule:nonzero;stroke:none" id="path3215"/></g><g id="g3217" transform="translate(19.8579,15.752)"><path d="m 0,0 0.348,1.262 0.522,0 -0.632,-1.873 -0.477,0 -0.632,1.873 0.522,0 L 0,0 z" style="fill:#ffffff;fill-opacity:1;fill-rule:nonzero;stroke:none" id="path3219"/></g><g id="g3221" transform="translate(21.6563,16.6455)"><path d="M 0,0 C -0.1,0 -0.181,-0.034 -0.242,-0.101 -0.304,-0.168 -0.343,-0.265 -0.36,-0.39 l 0.695,0 0,0.039 C 0.333,-0.238 0.303,-0.152 0.245,-0.092 0.187,-0.03 0.105,0 0,0 m 0.057,-1.539 c -0.275,0 -0.498,0.084 -0.671,0.252 -0.173,0.169 -0.259,0.393 -0.259,0.674 l 0,0.048 c 0,0.188 0.036,0.357 0.109,0.504 0.073,0.149 0.176,0.264 0.309,0.343 0.133,0.081 0.286,0.121 0.456,0.121 0.257,0 0.458,-0.081 0.605,-0.242 0.148,-0.162 0.221,-0.39 0.221,-0.687 l 0,-0.204 -1.193,0 c 0.017,-0.124 0.065,-0.222 0.146,-0.295 0.082,-0.075 0.185,-0.111 0.31,-0.111 0.193,0 0.343,0.07 0.452,0.209 L 0.788,-1.202 C 0.712,-1.308 0.611,-1.391 0.483,-1.45 0.354,-1.51 0.212,-1.539 0.057,-1.539" style="fill:#ffffff;fill-opacity:1;fill-rule:nonzero;stroke:none" id="path3223"/></g><g id="g3225" transform="translate(23.1162,16.0557)"><path d="m 0,0 c 0,-0.176 0.03,-0.312 0.092,-0.405 0.061,-0.094 0.149,-0.141 0.266,-0.141 0.155,0 0.264,0.066 0.328,0.196 l 0,0.743 C 0.624,0.524 0.515,0.59 0.362,0.59 0.12,0.59 0,0.393 0,0 m -0.5,0.036 c 0,0.291 0.065,0.524 0.196,0.697 0.131,0.173 0.311,0.26 0.537,0.26 0.183,0 0.333,-0.068 0.453,-0.204 l 0,0.955 0.501,0 0,-2.659 -0.451,0 -0.024,0.199 C 0.587,-0.872 0.427,-0.949 0.23,-0.949 c -0.22,0 -0.397,0.087 -0.531,0.26 -0.133,0.174 -0.199,0.416 -0.199,0.725" style="fill:#ffffff;fill-opacity:1;fill-rule:nonzero;stroke:none" id="path3227"/></g><g id="g3229" transform="translate(25.6318,15.6582)"><path d="m 0,0 c 0,0.062 -0.03,0.109 -0.091,0.145 -0.06,0.035 -0.158,0.066 -0.292,0.093 -0.445,0.094 -0.669,0.283 -0.669,0.569 0,0.166 0.071,0.305 0.207,0.416 0.139,0.112 0.32,0.168 0.542,0.168 0.238,0 0.428,-0.056 0.571,-0.168 C 0.41,1.11 0.481,0.965 0.481,0.786 l -0.501,0 c 0,0.071 -0.022,0.131 -0.068,0.178 -0.046,0.047 -0.119,0.07 -0.217,0.07 -0.084,0 -0.149,-0.019 -0.196,-0.057 C -0.547,0.938 -0.569,0.891 -0.569,0.831 -0.569,0.776 -0.544,0.73 -0.491,0.697 -0.438,0.663 -0.35,0.633 -0.225,0.609 -0.101,0.584 0.005,0.556 0.09,0.524 0.354,0.428 0.486,0.26 0.486,0.021 0.486,-0.149 0.413,-0.288 0.267,-0.395 0.12,-0.5 -0.069,-0.552 -0.302,-0.552 c -0.156,0 -0.296,0.029 -0.418,0.083 -0.121,0.057 -0.217,0.133 -0.286,0.231 -0.069,0.097 -0.104,0.203 -0.104,0.316 l 0.474,0 c 0.005,-0.089 0.037,-0.157 0.1,-0.204 0.06,-0.048 0.142,-0.071 0.245,-0.071 0.096,0 0.169,0.017 0.218,0.054 C -0.024,-0.106 0,-0.059 0,0" style="fill:#ffffff;fill-opacity:1;fill-rule:nonzero;stroke:none" id="path3231"/></g><g id="g3233" transform="translate(26.9648,17.4746)"><path d="m 0,0 0,-0.461 0.32,0 0,-0.367 -0.32,0 0,-0.935 c 0,-0.069 0.014,-0.119 0.04,-0.148 0.026,-0.03 0.077,-0.046 0.152,-0.046 0.056,0 0.105,0.004 0.147,0.013 l 0,-0.38 C 0.241,-2.354 0.14,-2.368 0.036,-2.368 c -0.35,0 -0.53,0.177 -0.537,0.531 l 0,1.009 -0.273,0 0,0.367 0.273,0 0,0.461 L 0,0 z" style="fill:#ffffff;fill-opacity:1;fill-rule:nonzero;stroke:none" id="path3235"/></g><g id="g3237" transform="translate(28.1611,15.4883)"><path d="m 0,0 c 0.073,0 0.142,0.018 0.204,0.05 0.063,0.033 0.108,0.077 0.139,0.132 l 0,0.322 -0.188,0 c -0.25,0 -0.384,-0.086 -0.4,-0.26 L -0.246,0.215 c 0,-0.063 0.021,-0.113 0.065,-0.154 C -0.136,0.021 -0.077,0 0,0 m 0.414,-0.348 c -0.023,0.045 -0.04,0.101 -0.051,0.168 -0.121,-0.134 -0.279,-0.202 -0.472,-0.202 -0.184,0 -0.335,0.053 -0.456,0.159 -0.122,0.106 -0.181,0.241 -0.181,0.402 0,0.198 0.073,0.35 0.22,0.457 0.148,0.106 0.36,0.159 0.638,0.161 l 0.231,0 0,0.107 C 0.343,0.99 0.32,1.061 0.275,1.111 0.231,1.164 0.161,1.189 0.065,1.189 -0.019,1.189 -0.085,1.17 -0.133,1.129 -0.181,1.089 -0.205,1.033 -0.205,0.963 l -0.5,0 c 0,0.109 0.034,0.209 0.101,0.301 0.066,0.092 0.161,0.165 0.284,0.217 0.122,0.053 0.258,0.08 0.411,0.08 0.231,0 0.414,-0.059 0.551,-0.174 0.135,-0.116 0.203,-0.28 0.203,-0.491 l 0,-0.811 c 0.001,-0.177 0.026,-0.313 0.074,-0.403 l 0,-0.03 -0.505,0 z" style="fill:#ffffff;fill-opacity:1;fill-rule:nonzero;stroke:none" id="path3239"/></g><g id="g3241" transform="translate(29.7383,16.0557)"><path d="m 0,0 c 0,-0.176 0.03,-0.312 0.092,-0.405 0.061,-0.094 0.149,-0.141 0.266,-0.141 0.155,0 0.264,0.066 0.328,0.196 l 0,0.743 C 0.623,0.524 0.515,0.59 0.361,0.59 0.12,0.59 0,0.393 0,0 m -0.501,0.036 c 0,0.291 0.065,0.524 0.197,0.697 0.13,0.173 0.31,0.26 0.537,0.26 0.183,0 0.333,-0.068 0.453,-0.204 l 0,0.955 0.501,0 0,-2.659 -0.451,0 -0.024,0.199 C 0.587,-0.872 0.427,-0.949 0.23,-0.949 c -0.22,0 -0.397,0.087 -0.531,0.26 -0.133,0.174 -0.2,0.416 -0.2,0.725" style="fill:#ffffff;fill-opacity:1;fill-rule:nonzero;stroke:none" id="path3243"/></g><g id="g3245" transform="translate(32.0449,16.6455)"><path d="M 0,0 C -0.1,0 -0.18,-0.034 -0.242,-0.101 -0.304,-0.168 -0.343,-0.265 -0.359,-0.39 l 0.695,0 0,0.039 C 0.334,-0.238 0.304,-0.152 0.246,-0.092 0.187,-0.03 0.105,0 0,0 m 0.058,-1.539 c -0.276,0 -0.499,0.084 -0.671,0.252 -0.173,0.169 -0.259,0.393 -0.259,0.674 l 0,0.048 c 0,0.188 0.036,0.357 0.108,0.504 0.073,0.149 0.176,0.264 0.31,0.343 0.133,0.081 0.285,0.121 0.456,0.121 0.256,0 0.458,-0.081 0.604,-0.242 0.148,-0.162 0.222,-0.39 0.222,-0.687 l 0,-0.204 -1.193,0 c 0.016,-0.124 0.064,-0.222 0.146,-0.295 0.081,-0.075 0.184,-0.111 0.309,-0.111 0.193,0 0.344,0.07 0.452,0.209 L 0.788,-1.202 C 0.713,-1.308 0.611,-1.391 0.483,-1.45 0.355,-1.51 0.213,-1.539 0.058,-1.539" style="fill:#ffffff;fill-opacity:1;fill-rule:nonzero;stroke:none" id="path3247"/></g><g id="g3249" transform="translate(33.543,17.0137)"><path d="m 0,0 0.015,-0.216 c 0.134,0.167 0.314,0.251 0.539,0.251 0.198,0 0.346,-0.058 0.443,-0.176 0.097,-0.116 0.147,-0.29 0.149,-0.522 l 0,-1.21 -0.5,0 0,1.201 c 0,0.106 -0.023,0.184 -0.07,0.232 -0.047,0.047 -0.123,0.072 -0.23,0.072 -0.141,0 -0.246,-0.061 -0.317,-0.181 l 0,-1.324 -0.5,0 0,1.873 L 0,0 z" style="fill:#ffffff;fill-opacity:1;fill-rule:nonzero;stroke:none" id="path3251"/></g><g id="g3253" transform="translate(2.9492,14.0166)"><path d="m 0,0 0,0.291 c 0,0.091 -0.023,0.161 -0.069,0.211 -0.046,0.05 -0.11,0.074 -0.191,0.074 -0.083,0 -0.148,-0.023 -0.195,-0.07 C -0.502,0.459 -0.526,0.388 -0.526,0.29 L -0.526,0 0,0 z m 0.293,0.287 0,-0.287 0.642,0 0,-0.362 -1.754,0 0,0.652 c 0,0.207 0.047,0.367 0.138,0.48 0.093,0.112 0.223,0.168 0.392,0.168 0.12,0 0.22,-0.026 0.3,-0.078 C 0.09,0.809 0.154,0.73 0.201,0.625 l 0.717,0.38 0.017,0 0,-0.389 -0.642,-0.329 z" style="fill:#ffffff;fill-opacity:1;fill-rule:nonzero;stroke:none" id="path3255"/></g><g id="g3257" transform="translate(3.1216,16.3232)"><path d="m 0,0 0,-0.693 0.472,0 0,0.813 0.29,0 0,-1.176 -1.753,0 0,1.174 0.292,0 0,-0.811 0.418,0 0,0.693 L 0,0 z" style="fill:#ffffff;fill-opacity:1;fill-rule:nonzero;stroke:none" id="path3259"/></g><g id="g3261" transform="translate(3.6626,18.083)"><path d="m 0,0 c 0.078,-0.065 0.138,-0.157 0.181,-0.276 0.043,-0.119 0.065,-0.25 0.065,-0.395 0,-0.152 -0.034,-0.285 -0.1,-0.398 -0.066,-0.116 -0.162,-0.203 -0.288,-0.266 -0.127,-0.062 -0.275,-0.094 -0.445,-0.096 l -0.119,0 c -0.175,0 -0.327,0.03 -0.455,0.088 -0.128,0.06 -0.226,0.145 -0.294,0.256 -0.067,0.111 -0.101,0.241 -0.101,0.391 0,0.208 0.049,0.371 0.148,0.488 0.1,0.117 0.244,0.187 0.433,0.208 l 0,-0.352 c -0.1,-0.015 -0.173,-0.051 -0.22,-0.106 -0.047,-0.056 -0.07,-0.131 -0.07,-0.228 0,-0.122 0.047,-0.215 0.139,-0.28 0.092,-0.064 0.23,-0.096 0.412,-0.097 l 0.111,0 c 0.185,0 0.323,0.035 0.417,0.104 0.094,0.07 0.142,0.173 0.142,0.308 0,0.135 -0.03,0.232 -0.087,0.29 l -0.303,0 0,-0.329 -0.266,0 0,0.69 0.7,0 z" style="fill:#ffffff;fill-opacity:1;fill-rule:nonzero;stroke:none" id="path3263"/></g><path d="m 3.884,18.437 -1.753,0 0,0.361 1.753,0 0,-0.361 z" style="fill:#ffffff;fill-opacity:1;fill-rule:nonzero;stroke:none" id="path3265"/><g id="g3267" transform="translate(2.9678,20.248)"><path d="m 0,0 c -0.184,0 -0.324,-0.033 -0.419,-0.1 -0.096,-0.065 -0.143,-0.159 -0.143,-0.281 0,-0.121 0.046,-0.215 0.141,-0.281 0.094,-0.066 0.233,-0.099 0.415,-0.1 l 0.085,0 c 0.179,0 0.318,0.033 0.417,0.099 0.099,0.066 0.148,0.161 0.148,0.284 0,0.121 -0.048,0.215 -0.143,0.279 C 0.406,-0.034 0.268,-0.001 0.085,0 L 0,0 z m 0.079,0.365 c 0.173,0 0.324,-0.03 0.454,-0.091 C 0.664,0.213 0.764,0.126 0.834,0.012 0.905,-0.102 0.94,-0.231 0.94,-0.379 0.94,-0.523 0.905,-0.653 0.835,-0.768 0.766,-0.882 0.666,-0.97 0.536,-1.032 0.406,-1.096 0.257,-1.127 0.089,-1.128 l -0.087,0 c -0.172,0 -0.324,0.031 -0.456,0.094 -0.131,0.061 -0.232,0.149 -0.302,0.263 -0.07,0.114 -0.105,0.244 -0.105,0.39 0,0.147 0.035,0.276 0.105,0.39 0.07,0.113 0.171,0.201 0.302,0.263 0.132,0.063 0.283,0.093 0.455,0.093 l 0.078,0 z" style="fill:#ffffff;fill-opacity:1;fill-rule:nonzero;stroke:none" id="path3269"/></g><g id="g3271" transform="translate(3.8838,22.3418)"><path d="m 0,0 0,-0.361 -1.154,-0.703 1.154,0 0,-0.362 -1.753,0 0,0.362 1.156,0.704 -1.156,0 0,0.36 L 0,0 z" style="fill:#ffffff;fill-opacity:1;fill-rule:nonzero;stroke:none" id="path3273"/></g></g></g></g></g></svg>