<svg xmlns="http://www.w3.org/2000/svg" viewBox="0 0 45 45"><path fill="#02a401" d="m 45,33.75 c 0,2.76125 -2.23875,5 -5,5 H 5 c -2.76125,0 -5,-2.23875 -5,-5 v -22.5 c 0,-2.76125 2.23875,-5 5,-5 h 35 c 2.76125,0 5,2.23875 5,5 z"/><path fill="#ffffff" d="m 22.499875,34.091375 c -6.39125,0 -11.59125,-5.2 -11.59125,-11.59125 0,-6.39125 5.2,-11.59125 11.59125,-11.59125 6.39125,0 11.59125,5.2 11.59125,11.59125 0,6.39 -5.2,11.59125 -11.59125,11.59125 z m 0,-22.28125 c -5.895,0 -10.69,4.795 -10.69,10.69 0,5.895 4.795,10.69 10.69,10.69 5.895,0 10.69,-4.79625 10.69,-10.69 0,-5.895 -4.795,-10.69 -10.69,-10.69 z"/><path fill="#fe0000" d="m 22.499875,32.425125 c -5.4725,0 -9.925,-4.4525 -9.925,-9.925 0,-5.4725 4.4525,-9.925 9.925,-9.925 5.4725,0 9.925,4.4525 9.925,9.925 0,5.4725 -4.4525,9.925 -9.925,9.925 z m 0,-18.75 c -4.86625,0 -8.825,3.95875 -8.825,8.825 0,4.86625 3.95875,8.825 8.825,8.825 4.86625,0 8.825,-3.95875 8.825,-8.825 0,-4.86625 -3.95875,-8.825 -8.825,-8.825 z"/><path fill="#fffe04" d="m 23.339875,31.280125 c -0.28,0.04 -0.56,0.05 -0.84,0.05 -0.1,0 -0.21,0 -0.31,-0.01 l 0.15,-5.71 h 0.59 z m 0.41,-5.67 h -0.59 l 0.65,5.62 c 0.38,-0.05 0.74,-0.13 1.1,-0.24 z m 0.82,0 h -0.59 l 1.36,5.25 c 0.33,-0.11 0.66,-0.24 0.97,-0.4 z m 0.83,0 h -0.59 l 1.87,4.66 c 0.28,-0.15 0.55,-0.31 0.8,-0.49 z m 0.82,0 h -0.59 l 2.15,3.95 c 0.22,-0.16 0.44,-0.34 0.64,-0.53 z m 0.83,0 h -0.59 l 2.2,3.21 c 0.17,-0.17 0.34,-0.35 0.49,-0.53 z m 0.82,0 h -0.59 l 2.05,2.47 c 0.13,-0.16 0.26,-0.32 0.37,-0.49 z m 0.82,0 h -0.59 l 1.74,1.79 c 0.1,-0.15 0.2,-0.3 0.28,-0.46 z m 0.83,0 h -0.59 l 1.29,1.16 c 0.08,-0.13 0.15,-0.27 0.21,-0.41 z m 0.82,0 h -0.59 l 0.75,0.6 c 0.06,-0.11 0.11,-0.23 0.16,-0.36 z m 0.24,0 0.14,0.1 c 0.01,-0.03 0.03,-0.07 0.04,-0.1 z m -9.07,0 -0.92,5.51 c 0.36,0.08 0.74,0.14 1.12,0.17 l 0.39,-5.68 z m -0.82,0 -1.57,5.05 c 0.32,0.13 0.66,0.25 1.01,0.34 l 1.15,-5.39 z m -0.83,0 -1.99,4.4 c 0.27,0.18 0.56,0.33 0.86,0.47 l 1.72,-4.87 z m -0.82,0 -2.18,3.67 c 0.22,0.19 0.45,0.36 0.69,0.52 l 2.08,-4.19 z m -0.82,0 -2.16,2.92 c 0.17,0.18 0.35,0.36 0.54,0.53 l 2.21,-3.45 z m -0.83,0 -1.93,2.2 c 0.13,0.18 0.26,0.35 0.41,0.51 l 2.11,-2.71 z m -0.82,0 -1.57,1.53 c 0.1,0.16 0.2,0.32 0.31,0.47 l 1.85,-2 z m -0.83,0 -1.08,0.93 c 0.07,0.14 0.14,0.28 0.23,0.42 l 1.44,-1.35 z m -0.82,0 -0.51,0.39 c 0.04,0.13 0.1,0.25 0.17,0.38 l 0.93,-0.77 z m -0.68,0 c 0.03,0.09 0.07,0.17 0.11,0.25 l 0.34,-0.25 z"/><path fill="#fffe04" d="m 25.847375,15.517625 0.6475,-0.73 0.47,0.93 0.37625,0.4 v 1.01125 l -0.18875,0.25875 0.0475,1 -1.17625,0.2125 -0.41125,0.30625 -0.0825,0.57625 2.62375,-0.69375 0.635,-1.13 0.34125,0.17625 v 1.8 l -2.0125,0.2125 -1.45875,1.6825 1.4825,0.78875 0.81125,1.0475 0.7525,0.1175 0.65875,1.01125 h -1.91625 l -1.15375,-1.7425 -2.8825,-0.2525 -0.62375,-0.19375 v 1.29375 l -2.0825,0.29375 1.165,1.17625 -0.5525,0.3175 h -0.61125 l -0.53,-1.0475 -1.52875,0.2125 0.365,0.45875 -0.54125,0.37625 h -0.67 l -0.42375,-0.89375 -0.3425,0.02375 v -0.9525 l -0.3525,-0.49375 v 0.9525 l 0.27,1.165 -0.4475,0.3175 -0.27,-1.2 h -1.4475 v -3.0825 l 0.94125,-0.81125 0.235,-1.97625 1.14125,-0.73 -0.2475,-0.93 0.82375,-1.165 3.47,0.965 1.3475,0.035 0.84,0.70625 1.42375,-1.2 0.1475,-1.2 z m -9.635,7.1175 0.58875,-0.73 3.10625,0.25875 0.1525,-1.165 1.1175,-0.01125 -1.41125,-0.6825 1.18875,-0.62375 -1.32,-0.43375 -0.505,1.36375 -0.77625,0.14125 -0.14125,0.9525 -1.50625,-0.67 0.29375,-0.69375 -0.49375,-1.25875 -0.0825,2.235 -0.835,1.81125 0.6825,0.42375 z m 5.42875,-1.12 -1.11,1.4375 1.515,-0.09375 0.64125,-0.71875 -0.71875,0.09375 z m -0.21875,-4.09375 0.1875,-0.32875 -3.61,-1.01625 -0.7025,0.79875 0.76625,0.78125 4.8275,0.9375 0.28125,-0.8275 z"/></svg>