<svg xmlns:dc="http://purl.org/dc/elements/1.1/" xmlns:cc="http://creativecommons.org/ns#" xmlns:rdf="http://www.w3.org/1999/02/22-rdf-syntax-ns#" xmlns:svg="http://www.w3.org/2000/svg" xmlns="http://www.w3.org/2000/svg" viewBox="0 0 45 45" style="enable-background:new 0 0 45 45;" xml:space="preserve" version="1.1" id="svg2"><metadata id="metadata8"><rdf:RDF><cc:Work rdf:about=""><dc:format>image/svg+xml</dc:format><dc:type rdf:resource="http://purl.org/dc/dcmitype/StillImage"/></cc:Work></rdf:RDF></metadata><defs id="defs6"><clipPath id="clipPath16" clipPathUnits="userSpaceOnUse"><path id="path18" d="M 0,36 36,36 36,0 0,0 0,36 Z"/></clipPath></defs><g transform="matrix(1.25,0,0,-1.25,0,45)" id="g10"><g id="g12"><g xmlns="http://www.w3.org/2000/svg" clip-path="url(#clipPath16)" id="g14"><g id="g20"><path id="path22" style="fill:#0018bd;fill-opacity:1;fill-rule:nonzero;stroke:none" d="M 36,27 V 9 C 36,6.79 34.21,5 32,5 H 4 C 1.79,5 0,6.79 0,9 v 18 c 0,2.21 1.79,4 4,4 h 28 c 2.21,0 4,-1.79 4,-4"/></g><g id="g24"><path id="path26" style="fill:#eeeeee;fill-opacity:1;fill-rule:nonzero;stroke:none" d="m 25.833,18 c 0,4.326 -3.507,7.833 -7.833,7.833 -4.326,0 -7.834,-3.507 -7.834,-7.833 0,-4.326 3.508,-7.833 7.834,-7.833 4.326,0 7.833,3.507 7.833,7.833"/></g><g id="g28"><path id="path30" style="fill:#8c8c8c;fill-opacity:1;fill-rule:nonzero;stroke:none" d="m 15.125,14.6836 c 0,-0.467 1.287,-0.844 2.875,-0.844 1.588,0 2.875,0.377 2.875,0.844 v 0.699 c 0,-0.466 -1.287,-0.844 -2.875,-0.844 -1.588,0 -2.875,0.378 -2.875,0.844 z"/></g><g id="g32"><path id="path34" style="fill:#009129;fill-opacity:1;fill-rule:nonzero;stroke:none" d="m 20.875,15.3828 c 0,-0.466 -1.287,-0.844 -2.875,-0.844 -1.588,0 -2.875,0.378 -2.875,0.844 0,0.466 1.287,0.844 2.875,0.844 1.588,0 2.875,-0.378 2.875,-0.844"/></g><g id="g36"><path id="path38" style="fill:#42ac00;fill-opacity:1;fill-rule:nonzero;stroke:none" d="m 18.957,17.5078 c 0,0 0.14,-0.425 0.559,-0.751 0.346,-0.27 0.795,-0.323 0.795,-0.323 0,0 0.502,-0.251 0.948,-0.138 0.445,0.114 0.645,0.636 0.645,0.636 0,0 0.327,0.2 0.456,0.586 0.121,0.359 0.04,0.745 0.04,0.745 0,0 0.567,0.433 0.637,1.162 0.066,0.675 -0.374,1.438 -0.374,1.438 0,0 -0.026,0.739 -0.527,0.99 -0.517,0.259 -1.253,0.067 -1.253,0.067 0,0 0.073,0.269 -0.275,0.463 -0.425,0.238 -1.225,0.293 -1.225,0.293 0,0 -0.224,0.194 -0.662,0.295 -0.397,0.091 -0.967,0.079 -1.127,0.115 -0.127,0.027 -0.834,0.273 -1.548,0.045 -0.62,-0.199 -1.093,-0.828 -1.093,-0.828 0,0 -0.936,-0.011 -1.326,-0.762 -0.4,-0.773 0.073,-1.615 0.073,-1.615 0,0 -0.608,-0.629 -0.687,-1.349 -0.079,-0.721 0.59,-1.268 0.59,-1.268 0,0 0.042,-0.342 0.208,-0.693 0.163,-0.341 0.436,-0.583 0.989,-0.583 0.445,0 0.765,0.02 1.566,0.328 0.627,0.239 1.185,0.564 1.672,0.79 0.499,0.229 0.919,0.357 0.919,0.357"/></g><g id="g40"><path id="path42" style="fill:#8c4a00;fill-opacity:1;fill-rule:nonzero;stroke:none" d="m 15.5059,17.9512 c 0,0 0.196,-0.045 0.375,0.027 0.178,0.073 0.217,0.245 0.217,0.245 0,0 -0.041,0.13 -0.221,0.298 -0.181,0.169 -0.442,0.32 -0.442,0.32 0,0 0.461,-0.01 0.8,-0.19 0.34,-0.18 0.381,-0.481 0.381,-0.481 h 0.641 c 0,0 0.02,0.077 0.039,0.234 0.02,0.156 0.014,0.237 0.014,0.237 0,0 -0.482,0.183 -0.692,0.504 -0.21,0.322 -0.075,0.633 -0.075,0.633 0,0 -0.787,-0.005 -1.259,0.133 -0.472,0.139 -0.595,0.413 -0.595,0.413 0,0 -0.316,-0.02 -0.524,0.113 -0.231,0.148 -0.269,0.381 -0.269,0.381 0,0 0.503,0.126 0.959,-0.042 0.457,-0.167 0.651,-0.549 0.651,-0.549 0,0 0.198,-0.054 0.473,-0.033 0.274,0.021 0.488,0.106 0.488,0.106 0,0 -0.115,0.179 -0.373,0.316 -0.257,0.136 -0.663,0.233 -0.663,0.233 0,0 0.095,0.278 0.371,0.26 0.225,-0.015 0.543,-0.241 0.543,-0.241 0,0 0.08,0.387 0.32,0.836 0.239,0.449 0.543,0.717 0.543,0.717 0,0 0.151,-0.211 0.051,-0.566 -0.1,-0.355 -0.441,-0.665 -0.441,-0.665 0,0 0.053,0.02 0.165,0.088 0.141,0.086 0.36,0.23 0.498,0.3 0.245,0.126 0.297,0.051 0.297,0.051 0,0 0.044,-0.141 -0.295,-0.539 -0.286,-0.334 -0.324,-0.523 -0.324,-0.523 0,0 0.005,-0.023 0.051,-0.007 0.104,0.038 0.225,0.135 0.472,0.286 0.351,0.214 0.467,0.191 0.467,0.191 0,0 -0.018,-0.39 -0.226,-0.665 -0.207,-0.274 -0.635,-0.225 -0.635,-0.225 0,0 -0.064,-0.341 0.028,-0.714 0.091,-0.373 0.317,-0.69 0.317,-0.69 l 0.934,1.084 c 0,0 -0.13,0.553 0.075,1.142 0.169,0.489 0.568,0.788 0.568,0.788 0,0 0.007,-0.122 -0.09,-0.439 -0.081,-0.264 -0.231,-0.697 -0.285,-1.016 -0.032,-0.199 -0.012,-0.273 -0.012,-0.273 0,0 0.23,-0.066 0.44,0.044 0.19,0.099 0.327,0.28 0.379,0.423 0.025,0.071 0.026,0.335 0.058,0.631 0.042,0.382 0.108,0.782 0.108,0.782 0,0 0.185,0.097 0.312,0.044 0.175,-0.073 0.203,-0.364 0.203,-0.364 0,0 0.107,0.106 0.23,0.127 0.125,0.02 0.294,-0.058 0.294,-0.058 0,0 -0.221,-0.155 -0.404,-0.358 -0.181,-0.203 -0.438,-0.581 -0.438,-0.581 0,0 0.52,0.27 0.995,0.442 0.476,0.172 0.711,0.175 0.711,0.175 0,0 0.062,-0.21 -0.286,-0.453 -0.43,-0.302 -1.099,-0.533 -1.099,-0.533 0,0 0.128,-0.204 0.422,-0.293 0.295,-0.087 0.568,-0.002 0.568,-0.002 0,0 0.291,0.4 0.546,0.629 0.257,0.229 0.39,0.206 0.39,0.206 0,0 0.235,-0.248 -0.049,-0.581 -0.193,-0.226 -0.492,-0.381 -0.492,-0.381 0,0 -0.153,-0.212 0.016,-0.333 0.169,-0.12 0.591,-0.048 0.591,-0.048 0,0 -0.203,-0.111 -0.343,-0.214 -0.141,-0.104 -0.066,-0.194 -0.066,-0.194 l 0.493,-0.1 c 0,0 -0.18,-0.083 -0.316,-0.088 -0.137,-0.005 -0.291,0.032 -0.482,0.143 -0.441,0.255 -0.984,0.757 -0.984,0.757 0,0 -0.243,0.139 -0.751,-0.054 -0.679,-0.258 -1.571,-1.029 -1.571,-1.029 0,0 -0.088,-0.172 -0.12,-0.502 -0.03,-0.329 0.024,-0.511 0.024,-0.511 0,0 0.337,0.141 0.637,0.288 0.3,0.147 0.523,0.281 0.523,0.281 0,0 -0.089,0.237 -0.076,0.464 0.014,0.225 0.148,0.351 0.148,0.351 0,0 0.07,-0.007 0.117,-0.074 0.047,-0.068 0.035,-0.148 0.035,-0.148 0,0 0.126,0.07 0.348,0.269 0.22,0.199 0.445,0.443 0.445,0.443 0,0 -0.129,-0.391 -0.169,-0.735 -0.04,-0.344 0.018,-0.57 0.018,-0.57 0,0 -0.181,0.064 -0.36,0.095 -0.177,0.032 -0.305,0.024 -0.305,0.024 0,0 -0.049,-0.331 0.251,-0.541 0.24,-0.168 0.635,-0.175 0.635,-0.175 0,0 0.171,0.051 0.487,0.224 0.315,0.172 0.648,0.397 0.648,0.397 0,0 -0.596,-0.872 -1.371,-0.872 -0.367,0 -0.679,0.222 -0.679,0.222 0,0 -0.186,0.051 -0.412,-0.029 -0.3,-0.107 -0.533,-0.291 -0.533,-0.291 0,0 -0.033,-0.403 -0.033,-0.823 0,-0.761 0.262,-1.375 0.262,-1.375 l -1.504,0.289 c 0,0 -0.071,0.004 -0.071,0.066 0,0.069 0.084,0.159 0.151,0.246 0.044,0.058 0.081,0.117 0.081,0.117 0,0 -0.161,0.038 -0.161,0.104 0,0.063 0.163,0.137 0.311,0.201 0.095,0.041 0.201,0.089 0.201,0.089 l 0.051,0.914 c 0,0 -0.222,0.074 -0.475,0.253 -0.253,0.178 -0.382,0.388 -0.382,0.388 0,0 -0.546,-0.122 -0.714,-0.131 -0.402,-0.024 -0.779,-0.036 -0.779,-0.036 0,0 -0.283,-0.393 -0.608,-0.552 -0.353,-0.173 -0.772,-0.139 -0.772,-0.139 0,0 0.25,0.066 0.45,0.201 0.191,0.13 0.062,0.241 0.062,0.241 0,0 -0.4,0.124 -0.39,0.18 0.008,0.044 0.235,0.064 0.462,0.076 0.221,0.013 0.409,0.054 0.428,0.146 0.082,0.387 -0.798,0.389 -0.798,0.389 0,0 0.417,0.21 0.742,0.21 0.225,0 0.326,-0.086 0.37,-0.195 0.046,-0.115 0.033,-0.286 0.033,-0.286"/></g></g></g></g></svg>