<svg xmlns:dc="http://purl.org/dc/elements/1.1/" xmlns:cc="http://creativecommons.org/ns#" xmlns:rdf="http://www.w3.org/1999/02/22-rdf-syntax-ns#" xmlns:svg="http://www.w3.org/2000/svg" xmlns="http://www.w3.org/2000/svg" viewBox="0 0 45 45" style="enable-background:new 0 0 45 45;" xml:space="preserve" version="1.1" id="svg2"><metadata id="metadata8"><rdf:RDF><cc:Work rdf:about=""><dc:format>image/svg+xml</dc:format><dc:type rdf:resource="http://purl.org/dc/dcmitype/StillImage"/></cc:Work></rdf:RDF></metadata><defs id="defs6"><clipPath id="clipPath16" clipPathUnits="userSpaceOnUse"><path id="path18" d="M 0,36 36,36 36,0 0,0 0,36 Z"/></clipPath></defs><g transform="matrix(1.25,0,0,-1.25,0,45)" id="g10"><g id="g12"><g xmlns="http://www.w3.org/2000/svg" clip-path="url(#clipPath16)" id="g14"><g id="g30"><path id="path20" style="fill:#e91520;fill-opacity:1;fill-rule:nonzero;stroke:none" d="M 32,31 4,31 C 1.791,31 0,29.209 0,27 L 0,9 C 0,6.791 1.791,5 4,5 L 9.12,5 25.88,5 32,5 c 2.209,0 4,1.791 4,4 l 0,18 c 0,2.209 -1.791,4 -4,4"/></g><g id="g34"><path id="path30" style="fill:#f3d526;fill-opacity:1;fill-rule:nonzero;stroke:none" d="m 22.8438,9.3437 c 1.781,-0.422 2.063,-0.328 2.063,-0.328 0,0 0.203,0.75 -0.266,1.547 -0.469,0.797 -1.438,1.109 -1.438,1.109 0,0 0.466,0.229 0.552,0.581 0.086,0.353 0.769,0.667 0.769,0.667 0,0 0.463,-0.753 0.894,-1.075 0.431,-0.321 0.989,-0.438 0.989,-0.438 0,0 0.179,0.784 -0.284,1.379 -0.462,0.597 -1.411,0.306 -1.411,0.306 0,0 0.125,0.095 0.196,0.307 0.071,0.211 0.047,0.549 0.047,0.549 0,0 0.973,0.046 1.639,0.517 0.667,0.471 0.753,1.357 0.753,1.357 0,0 -0.251,0.157 -0.815,0.18 -0.565,0.024 -1.051,-0.18 -1.051,-0.18 0,0 0.023,0.784 0.807,1.466 0.785,0.683 0.362,2.534 0.362,2.534 0,0 -0.613,-0.275 -0.871,-0.855 -0.259,-0.581 -0.322,-1.49 -0.322,-1.49 0,0 0.283,1.6 -0.18,2.517 -0.463,0.918 -0.51,1.498 -0.51,1.498 0,0 0.887,0.667 1.004,1.389 0.118,0.721 -0.016,1.349 -0.016,1.349 0,0 -0.117,0.078 -0.439,-0.197 -0.322,-0.274 -0.471,-0.604 -0.471,-0.604 0,0 -0.29,0.456 0.165,1.812 0.455,1.357 -0.125,2.11 -0.125,2.11 0,0 -0.636,-0.075 -0.809,-1.357 -0.238,-1.772 0.574,-2.415 0.574,-2.415 0,0 -0.158,0.055 -0.502,0.062 -0.346,0.008 -0.801,-0.235 -0.801,-0.235 0,0 0.048,-0.635 0.491,-1.255 0.443,-0.619 0.756,-0.722 0.756,-0.722 0,0 0.079,-0.58 0.346,-1.145 0.266,-0.564 0.258,-1.992 0.258,-1.992 0,0 -0.478,0.361 -0.517,1.514 -0.039,1.153 -1.311,1.623 -1.311,1.623 0,0 -0.297,-1.003 0.15,-1.882 0.447,-0.878 1.576,-1.466 1.576,-1.466 l 0.259,-2.196 c 0,0 -0.11,0.808 -0.596,1.176 -0.486,0.369 -1.436,0.431 -1.436,0.431 0,0 0.103,-0.627 0.738,-1.333 0.636,-0.706 0.721,-0.713 0.721,-0.713 0,0 0.047,-1.82 -0.29,-2.173 -0.336,-0.353 -0.62,-0.314 -0.925,-0.753 -0.306,-0.44 -0.549,-0.784 -0.549,-0.784 0,0 0.07,0.109 0.126,0.486 0.054,0.376 -0.048,0.761 -0.048,0.761 0,0 -0.479,-0.158 -1.004,-0.996 -0.525,-0.839 -0.619,-1.208 -0.619,-1.208 l -1.02,0.274 c 0,0 0.14,0.191 0.251,0.541 0.157,0.494 0.164,0.926 0.164,0.926 0,0 -0.403,-0.004 -0.693,-0.444 -0.29,-0.439 -0.2,-1.015 -0.2,-1.015 0,0 1.088,-1.295 2.869,-1.717"/><path id="path31" style="fill:#f3d526;fill-opacity:1;fill-rule:nonzero;stroke:none" d="m 13.1563,9.3437 c -1.781,-0.422 -2.063,-0.328 -2.063,-0.328 0,0 -0.203,0.75 0.266,1.547 0.469,0.797 1.438,1.109 1.438,1.109 0,0 -0.466,0.229 -0.552,0.581 -0.087,0.353 -0.769,0.667 -0.769,0.667 0,0 -0.463,-0.753 -0.894,-1.075 -0.431,-0.321 -0.988,-0.438 -0.988,-0.438 0,0 -0.181,0.784 0.282,1.379 0.463,0.597 1.412,0.306 1.412,0.306 0,0 -0.126,0.095 -0.196,0.307 -0.071,0.211 -0.047,0.549 -0.047,0.549 0,0 -0.972,0.046 -1.639,0.517 -0.667,0.471 -0.753,1.357 -0.753,1.357 0,0 0.251,0.157 0.815,0.18 0.565,0.024 1.051,-0.18 1.051,-0.18 0,0 -0.023,0.784 -0.807,1.466 -0.785,0.683 -0.361,2.534 -0.361,2.534 0,0 0.612,-0.275 0.87,-0.855 0.259,-0.581 0.322,-1.49 0.322,-1.49 0,0 -0.283,1.6 0.18,2.517 0.463,0.918 0.51,1.498 0.51,1.498 0,0 -0.886,0.667 -1.004,1.389 -0.117,0.721 0.016,1.349 0.016,1.349 0,0 0.118,0.078 0.439,-0.197 0.322,-0.274 0.471,-0.604 0.471,-0.604 0,0 0.29,0.456 -0.165,1.812 -0.455,1.357 0.125,2.11 0.125,2.11 0,0 0.636,-0.075 0.808,-1.357 0.239,-1.772 -0.572,-2.415 -0.572,-2.415 0,0 0.157,0.055 0.502,0.062 0.345,0.008 0.8,-0.235 0.8,-0.235 0,0 -0.048,-0.635 -0.491,-1.255 -0.443,-0.619 -0.756,-0.722 -0.756,-0.722 0,0 -0.079,-0.58 -0.346,-1.145 -0.266,-0.564 -0.258,-1.992 -0.258,-1.992 0,0 0.478,0.361 0.518,1.514 0.039,1.153 1.309,1.623 1.309,1.623 0,0 0.298,-1.003 -0.149,-1.882 -0.447,-0.878 -1.576,-1.466 -1.576,-1.466 l -0.259,-2.196 c 0,0 0.11,0.808 0.596,1.176 0.486,0.369 1.435,0.431 1.435,0.431 0,0 -0.102,-0.627 -0.737,-1.333 -0.636,-0.706 -0.721,-0.713 -0.721,-0.713 0,0 -0.048,-1.82 0.29,-2.173 0.337,-0.353 0.619,-0.314 0.925,-0.753 0.306,-0.44 0.549,-0.784 0.549,-0.784 0,0 -0.071,0.109 -0.125,0.486 -0.055,0.376 0.047,0.761 0.047,0.761 0,0 0.478,-0.158 1.003,-0.996 0.526,-0.839 0.62,-1.208 0.62,-1.208 l 1.02,0.274 c 0,0 -0.14,0.191 -0.251,0.541 -0.157,0.494 -0.165,0.926 -0.165,0.926 0,0 0.404,-0.004 0.694,-0.444 0.29,-0.439 0.2,-1.015 0.2,-1.015 0,0 -1.088,-1.295 -2.869,-1.717"/><path id="path32" style="fill:#0181c4;fill-opacity:1;fill-rule:nonzero;stroke:none" d="m 19.3408,10.6572 c -0.312,-0.21 -0.668,-0.175 -0.668,-0.175 0,0 0.266,-0.054 0.439,-0.286 0.163,-0.218 0.371,-0.294 0.371,-0.294 0,0 0.063,0.231 0.096,0.369 0.033,0.14 0.065,0.108 0.19,0.272 0.126,0.165 0.097,0.349 0.097,0.349 0,0 -0.213,-0.026 -0.525,-0.235 m -0.358,0.146 c 0,0 0.149,-0.023 0.451,0.152 0.237,0.138 0.384,0.229 0.384,0.229 0,0 -0.03,0.1 -0.102,0.222 -0.072,0.121 -0.153,0.203 -0.153,0.203 0,0 -0.096,-0.09 -0.292,-0.417 -0.197,-0.328 -0.288,-0.398 -0.288,-0.398 m -2.85,0.098 c 0,0 -0.027,-0.184 0.099,-0.349 0.125,-0.164 0.156,-0.132 0.189,-0.272 0.034,-0.138 0.097,-0.369 0.097,-0.369 0,0 0.208,0.076 0.37,0.294 0.173,0.232 0.44,0.286 0.44,0.286 0,0 -0.357,-0.035 -0.669,0.175 -0.312,0.209 -0.526,0.235 -0.526,0.235 m 0.885,-0.098 c 0,0 -0.093,0.07 -0.288,0.398 -0.197,0.327 -0.293,0.417 -0.293,0.417 0,0 -0.08,-0.082 -0.153,-0.203 -0.072,-0.122 -0.102,-0.222 -0.102,-0.222 0,0 0.147,-0.091 0.385,-0.229 0.302,-0.175 0.451,-0.152 0.451,-0.152 m 0.982,-0.876 c -0.144,0 -0.259,-0.113 -0.497,-0.113 -0.212,0 -0.282,0.151 -0.282,0.151 0,0 -0.144,0.003 -0.276,-0.268 -0.075,-0.152 -0.086,-0.215 -0.274,-0.215 -0.286,0 -0.75,0.114 -0.806,0.151 -0.056,0.035 -0.077,0.199 -0.118,0.393 -0.041,0.194 -0.144,0.306 -0.335,0.48 -0.191,0.173 -0.21,0.358 -0.21,0.358 0,0 -0.123,-0.039 -0.357,-0.148 -0.277,-0.131 -0.7,-0.341 -1.117,-0.425 -0.769,-0.154 -1.21,-0.041 -1.307,0 -0.097,0.041 -0.153,0.106 -0.409,0.388 -0.256,0.283 -0.509,0.368 -0.509,0.368 0,0 -0.488,0.176 -0.459,0.656 0.047,0.779 0.818,1.238 1.171,1.685 0.353,0.447 0.214,0.802 0.214,0.802 0,0 -0.089,0.105 -0.414,0.237 -0.306,0.123 -0.947,0.276 -1.568,0.588 -0.39,0.197 -0.658,0.336 -0.692,0.395 -0.055,0.094 -0.027,0.121 -0.075,0.666 -0.047,0.545 -0.144,0.648 -0.144,0.648 0,0 -0.171,0.129 -0.171,0.361 0,0.371 0.618,0.697 1.724,0.703 1.106,0.006 0.981,0.334 0.981,0.334 0,0 -0.134,0.079 -0.535,0.241 -0.269,0.107 -0.463,0.237 -0.654,0.372 -0.777,0.545 -0.857,1.271 -0.857,1.461 0,0.19 0.084,0.221 0.171,0.553 0.085,0.331 0.049,0.559 0.049,0.559 0,0 -0.124,0.726 0.4,0.886 0.638,0.194 1.309,0.041 1.309,0.041 0,0 -0.018,0.544 0.418,0.544 0.197,0 0.376,-0.056 0.376,-0.37 0,-0.203 -0.174,-0.48 -0.174,-0.944 0,-0.465 0.026,-0.68 0.026,-0.68 0,0 -0.211,0.331 -0.383,0.644 -0.193,0.349 -0.375,0.433 -0.375,0.433 0,0 -0.179,0.117 -0.723,0.014 -0.871,-0.164 -0.75,-0.885 -0.75,-0.885 0,0 0.118,-0.333 0.597,-0.79 0.591,-0.564 1.135,-0.86 1.303,-1.081 0.257,-0.338 0.147,-0.464 0.085,-0.773 -0.062,-0.309 0.022,-0.569 0.022,-0.569 0,0 0.279,-0.417 -1.11,-0.65 -1.31,-0.222 -1.212,-0.77 -1.212,-0.77 0,0 0.413,-0.152 1.082,-0.44 0.859,-0.371 1.324,-0.686 1.383,-0.845 0.059,-0.158 0.009,-0.12 0.068,-0.696 0.058,-0.577 0.139,-0.522 0.159,-0.815 0.039,-0.564 -0.736,-1.062 -0.683,-1.754 0.045,-0.586 0.434,-0.68 0.434,-0.68 0,0 0.584,0.285 1.257,0.401 1.153,0.2 1.757,-0.04 1.757,-0.04 0.059,0.064 0.108,0.132 0.131,0.217 0.077,0.278 0.294,0.395 0.459,0.395 0.165,0 0.267,-0.043 0.608,-0.011 0.341,0.031 0.381,-0.008 0.381,-0.008 0,0 0.129,-0.01 0.17,-0.541 0.046,-0.588 0.229,-0.521 0.229,-0.521 0,0 0.159,0.291 0.512,0.291 0.353,0 0.512,-0.291 0.512,-0.291 0,0 0.183,-0.067 0.229,0.521 0.041,0.531 0.171,0.541 0.171,0.541 0,0 0.039,0.039 0.38,0.008 0.342,-0.032 0.444,0.011 0.609,0.011 0.164,0 0.381,-0.117 0.458,-0.395 0.023,-0.085 0.073,-0.153 0.131,-0.217 0,0 0.604,0.24 1.757,0.04 0.673,-0.116 1.257,-0.401 1.257,-0.401 0,0 0.39,0.094 0.435,0.68 0.052,0.692 -0.723,1.19 -0.684,1.754 0.021,0.293 0.101,0.238 0.16,0.815 0.059,0.576 0.009,0.538 0.068,0.696 0.058,0.159 0.523,0.474 1.381,0.845 0.67,0.288 1.083,0.44 1.083,0.44 0,0 0.098,0.548 -1.211,0.77 -1.39,0.233 -1.11,0.65 -1.11,0.65 0,0 0.083,0.26 0.022,0.569 -0.063,0.309 -0.172,0.435 0.085,0.773 0.168,0.221 0.711,0.517 1.302,1.081 0.48,0.457 0.598,0.79 0.598,0.79 0,0 0.12,0.721 -0.75,0.885 -0.545,0.103 -0.724,-0.014 -0.724,-0.014 0,0 -0.182,-0.084 -0.375,-0.433 -0.172,-0.313 -0.382,-0.644 -0.382,-0.644 0,0 0.026,0.215 0.026,0.68 0,0.464 -0.175,0.741 -0.175,0.944 0,0.314 0.18,0.37 0.377,0.37 0.435,0 0.417,-0.544 0.417,-0.544 0,0 0.671,0.153 1.309,-0.041 0.524,-0.16 0.4,-0.886 0.4,-0.886 0,0 -0.036,-0.228 0.05,-0.559 0.087,-0.332 0.171,-0.363 0.171,-0.553 0,-0.19 -0.08,-0.916 -0.858,-1.461 -0.191,-0.135 -0.385,-0.265 -0.654,-0.372 -0.4,-0.162 -0.535,-0.241 -0.535,-0.241 0,0 -0.124,-0.328 0.982,-0.334 1.106,-0.006 1.724,-0.332 1.724,-0.703 0,-0.232 -0.172,-0.361 -0.172,-0.361 0,0 -0.098,-0.103 -0.144,-0.648 -0.047,-0.545 -0.02,-0.572 -0.075,-0.666 -0.034,-0.059 -0.302,-0.198 -0.692,-0.395 -0.62,-0.312 -1.262,-0.465 -1.567,-0.588 -0.326,-0.132 -0.415,-0.237 -0.415,-0.237 0,0 -0.138,-0.355 0.214,-0.802 0.354,-0.447 1.124,-0.906 1.171,-1.685 0.029,-0.48 -0.459,-0.656 -0.459,-0.656 0,0 -0.253,-0.085 -0.509,-0.368 -0.255,-0.282 -0.311,-0.347 -0.409,-0.388 -0.096,-0.041 -0.538,-0.154 -1.306,0 -0.417,0.084 -0.84,0.294 -1.118,0.425 -0.233,0.109 -0.357,0.148 -0.357,0.148 0,0 -0.019,-0.185 -0.21,-0.358 -0.19,-0.174 -0.294,-0.286 -0.335,-0.48 -0.041,-0.194 -0.061,-0.358 -0.117,-0.393 -0.057,-0.037 -0.522,-0.151 -0.807,-0.151 -0.187,0 -0.198,0.063 -0.273,0.215 -0.132,0.271 -0.277,0.268 -0.277,0.268 0,0 -0.07,-0.151 -0.282,-0.151 -0.238,0 -0.353,0.113 -0.497,0.113"/><path id="path33" style="fill:#f3d526;fill-opacity:1;fill-rule:nonzero;stroke:none" d="m 13.3354,14.2783 0,-0.613 c 0,0 0.082,-0.712 1.3,-0.712 l 1.87,0 c 1.006,0 1.495,-1.095 1.495,-1.095 0,0 0.488,1.095 1.494,1.095 l 1.87,0 c 1.218,0 1.301,0.712 1.301,0.712 l 0,0.613 -9.33,0 z"/><path id="path34" style="fill:#0181c4;fill-opacity:1;fill-rule:nonzero;stroke:none" d="m 13.335,14.278 9.33,0 0,1.673 -9.33,0 0,-1.673 z"/><path id="path35" style="fill:#f3d526;fill-opacity:1;fill-rule:nonzero;stroke:none" d="m 13.3354,17.6245 0,-1.673 9.33,0 0,1.673 -9.33,0 z"/><path id="path36" style="fill:#0181c4;fill-opacity:1;fill-rule:nonzero;stroke:none" d="m 18,20.9702 4.665,0 0,1.673 -4.665,0 0,1.369 -4.665,0 0,-6.388 9.33,0 0,1.673 -4.665,0 0,1.673 z"/><path id="path37" style="fill:#f3d526;fill-opacity:1;fill-rule:nonzero;stroke:none" d="m 18,19.297 4.665,0 0,1.673 -4.665,0 0,-1.673 z"/><path id="path38" style="fill:#f3d526;fill-opacity:1;fill-rule:nonzero;stroke:none" d="m 18,24.012 4.665,0 0,-1.369 -4.665,0 0,1.369 z"/><path id="path39" style="fill:#fced28;fill-opacity:1;fill-rule:nonzero;stroke:none" d="m 18,24.5059 c -2.2,0 -3.758,-0.494 -3.758,-0.494 l 0,0.698 c 0,0 0.009,0.092 -0.103,0.188 -0.112,0.096 -0.245,0.114 -0.245,0.114 l -0.239,-0.079 -0.245,0.795 -0.134,-0.054 c 0,0 -0.095,-0.026 -0.141,0.099 -0.054,0.15 0.047,0.196 0.047,0.196 l 0.085,0.033 -0.3,0.834 1.117,0.362 0.461,-0.163 0.131,-0.588 0.451,0.1 -0.16,0.863 1.184,0.21 0.432,-0.202 0.07,-0.649 0.606,0.039 0,0.918 1.482,0 0,-0.918 0.606,-0.039 0.071,0.649 0.431,0.202 1.184,-0.21 -0.161,-0.863 0.451,-0.1 0.132,0.588 0.461,0.163 1.117,-0.362 -0.3,-0.834 0.084,-0.033 c 0,0 0.103,-0.046 0.047,-0.196 -0.045,-0.125 -0.14,-0.099 -0.14,-0.099 l -0.134,0.054 -0.245,-0.795 -0.24,0.079 c 0,0 -0.132,-0.018 -0.245,-0.114 -0.111,-0.096 -0.102,-0.188 -0.102,-0.188 l 0,-0.698 c 0,0 -1.558,0.494 -3.758,0.494"/></g></g></g></g></svg>