<svg xmlns:dc="http://purl.org/dc/elements/1.1/" xmlns:cc="http://creativecommons.org/ns#" xmlns:rdf="http://www.w3.org/1999/02/22-rdf-syntax-ns#" xmlns:svg="http://www.w3.org/2000/svg" xmlns="http://www.w3.org/2000/svg" viewBox="0 0 45 45" style="enable-background:new 0 0 45 45;" xml:space="preserve" version="1.1" id="svg2"><metadata id="metadata8"><rdf:RDF><cc:Work rdf:about=""><dc:format>image/svg+xml</dc:format><dc:type rdf:resource="http://purl.org/dc/dcmitype/StillImage"/></cc:Work></rdf:RDF></metadata><defs id="defs6"><clipPath id="clipPath16" clipPathUnits="userSpaceOnUse"><path id="path18" d="M 0,36 36,36 36,0 0,0 0,36 Z"/></clipPath></defs><g transform="matrix(1.25,0,0,-1.25,0,45)" id="g10"><g id="g12"><g xmlns="http://www.w3.org/2000/svg" clip-path="url(#clipPath16)" id="g14"><g id="g30"><path id="path20" style="fill:#da141d;fill-opacity:1;fill-rule:nonzero;stroke:none" d="M 4,31 C 1.791,31 0,29.209 0,27 V 9 C 0,6.791 1.791,5 4,5 h 28 c 2.209,0 4,1.791 4,4 v 18 c 0,2.209 -1.791,4 -4,4 z"/></g><g id="g31"><path id="path30" style="fill:#ffcf20;fill-opacity:1;fill-rule:nonzero;stroke:none" d="m 4,30.3999 c -1.875,0 -3.4,-1.525 -3.4,-3.4 v -18 c 0,-1.875 1.525,-3.4 3.4,-3.4 h 28 c 1.875,0 3.4,1.525 3.4,3.4 v 18 c 0,1.875 -1.525,3.4 -3.4,3.4 z"/></g><g id="g32"><path id="path40" style="fill:#da141d;fill-opacity:1;fill-rule:nonzero;stroke:none" d="m 4,27.4697 c -0.255,0 -0.47,-0.215 -0.47,-0.47 v -18 c 0,-0.255 0.215,-0.47 0.47,-0.47 h 28 c 0.255,0 0.471,0.215 0.471,0.47 v 18 c 0,0.255 -0.216,0.47 -0.471,0.47 z"/></g><g id="g33"><path id="path50" style="fill:#ffcf20;fill-opacity:1;fill-rule:nonzero;stroke:none" d="m 4.125,9.124 h 27.75 v 17.75 H 4.125 Z"/></g><g id="g34"><path id="path60" style="fill:#da141d;fill-opacity:1;fill-rule:nonzero;stroke:none" d="m 3.9424,6.334 c 0,0 -0.15,0.457 0.359,0.822 0.317,0.226 0.532,0.362 0.9,0.405 0.225,0.027 0.581,0.046 0.838,-0.048 0.35,-0.129 0.422,-0.328 0.372,-0.539 -0.041,-0.175 -0.361,-0.358 -0.666,-0.355 -0.459,0.004 -0.353,0.316 -0.173,0.323 0.132,0.006 0.153,-0.241 0.153,-0.241 0,0 0.2,0.181 0.2,0.347 0,0.167 -0.203,0.369 -0.736,0.208 -0.262,-0.079 -0.327,-0.353 -0.327,-0.353 0,0 -0.202,-0.004 -0.308,-0.161 -0.072,-0.107 -0.121,-0.28 -0.121,-0.28 0,0 0.153,0.086 0.251,0.096 0.045,0.005 0.097,-0.006 0.143,-0.012 0.054,-0.006 0.098,-0.008 0.098,-0.008 0,0 0.357,-0.339 0.914,-0.339 0.557,0 1.186,0.279 1.141,0.908 C 6.9354,7.736 6.5164,7.86 5.8474,7.956 4.9714,8.081 4.3744,7.902 3.8744,7.226 3.6924,6.98 3.6904,6.737 3.7424,6.584 c 0.061,-0.181 0.2,-0.25 0.2,-0.25"/><path id="path61" style="fill:#da141d;fill-opacity:1;fill-rule:nonzero;stroke:none" d="m 10.2759,6.334 c 0,0 -0.15,0.457 0.36,0.822 0.316,0.226 0.531,0.362 0.899,0.405 0.225,0.027 0.581,0.046 0.838,-0.048 0.351,-0.129 0.423,-0.328 0.373,-0.539 -0.042,-0.175 -0.362,-0.358 -0.667,-0.355 -0.459,0.004 -0.353,0.316 -0.173,0.323 0.132,0.006 0.153,-0.241 0.153,-0.241 0,0 0.2,0.181 0.2,0.347 0,0.167 -0.203,0.369 -0.735,0.208 -0.263,-0.079 -0.328,-0.353 -0.328,-0.353 0,0 -0.201,-0.004 -0.307,-0.161 -0.073,-0.107 -0.122,-0.28 -0.122,-0.28 0,0 0.153,0.086 0.251,0.096 0.045,0.005 0.097,-0.006 0.143,-0.012 0.054,-0.006 0.098,-0.008 0.098,-0.008 0,0 0.357,-0.339 0.914,-0.339 0.557,0 1.186,0.279 1.141,0.908 -0.045,0.629 -0.464,0.753 -1.133,0.849 -0.876,0.125 -1.473,-0.054 -1.973,-0.73 -0.182,-0.246 -0.184,-0.489 -0.132,-0.642 0.062,-0.181 0.2,-0.25 0.2,-0.25"/><path id="path62" style="fill:#da141d;fill-opacity:1;fill-rule:nonzero;stroke:none" d="m 16.6094,6.334 c 0,0 -0.15,0.457 0.36,0.822 0.316,0.226 0.531,0.362 0.899,0.405 0.225,0.027 0.581,0.046 0.839,-0.048 0.35,-0.129 0.422,-0.328 0.372,-0.539 -0.041,-0.175 -0.362,-0.358 -0.667,-0.355 -0.459,0.004 -0.353,0.316 -0.173,0.323 0.132,0.006 0.154,-0.241 0.154,-0.241 0,0 0.199,0.181 0.199,0.347 0,0.167 -0.203,0.369 -0.735,0.208 -0.262,-0.079 -0.327,-0.353 -0.327,-0.353 0,0 -0.202,-0.004 -0.308,-0.161 -0.073,-0.107 -0.122,-0.28 -0.122,-0.28 0,0 0.154,0.086 0.251,0.096 0.046,0.005 0.097,-0.006 0.144,-0.012 0.053,-0.006 0.097,-0.008 0.097,-0.008 0,0 0.357,-0.339 0.914,-0.339 0.557,0 1.187,0.279 1.141,0.908 -0.045,0.629 -0.464,0.753 -1.133,0.849 -0.875,0.125 -1.472,-0.054 -1.972,-0.73 -0.183,-0.246 -0.185,-0.489 -0.133,-0.642 0.062,-0.181 0.2,-0.25 0.2,-0.25"/><path id="path63" style="fill:#da141d;fill-opacity:1;fill-rule:nonzero;stroke:none" d="m 22.9434,6.334 c 0,0 -0.15,0.457 0.359,0.822 0.317,0.226 0.532,0.362 0.9,0.405 0.225,0.027 0.581,0.046 0.838,-0.048 0.35,-0.129 0.423,-0.328 0.373,-0.539 -0.041,-0.175 -0.362,-0.358 -0.667,-0.355 -0.459,0.004 -0.353,0.316 -0.173,0.323 0.132,0.006 0.153,-0.241 0.153,-0.241 0,0 0.2,0.181 0.2,0.347 0,0.167 -0.203,0.369 -0.736,0.208 -0.262,-0.079 -0.326,-0.353 -0.326,-0.353 0,0 -0.202,-0.004 -0.309,-0.161 -0.072,-0.107 -0.121,-0.28 -0.121,-0.28 0,0 0.154,0.086 0.251,0.096 0.045,0.005 0.097,-0.006 0.143,-0.012 0.053,-0.006 0.098,-0.008 0.098,-0.008 0,0 0.357,-0.339 0.914,-0.339 0.557,0 1.186,0.279 1.141,0.908 -0.045,0.629 -0.464,0.753 -1.133,0.849 -0.876,0.125 -1.472,-0.054 -1.972,-0.73 -0.183,-0.246 -0.185,-0.489 -0.133,-0.642 0.061,-0.181 0.2,-0.25 0.2,-0.25"/><path id="path64" style="fill:#da141d;fill-opacity:1;fill-rule:nonzero;stroke:none" d="m 29.2773,6.334 c 0,0 -0.15,0.457 0.359,0.822 0.317,0.226 0.532,0.362 0.9,0.405 0.224,0.027 0.581,0.046 0.838,-0.048 0.35,-0.129 0.422,-0.328 0.373,-0.539 -0.042,-0.175 -0.362,-0.358 -0.667,-0.355 -0.459,0.004 -0.353,0.316 -0.173,0.323 0.132,0.006 0.153,-0.241 0.153,-0.241 0,0 0.2,0.181 0.2,0.347 0,0.167 -0.203,0.369 -0.736,0.208 -0.262,-0.079 -0.327,-0.353 -0.327,-0.353 0,0 -0.201,-0.004 -0.308,-0.161 -0.072,-0.107 -0.121,-0.28 -0.121,-0.28 0,0 0.153,0.086 0.251,0.096 0.045,0.005 0.097,-0.006 0.143,-0.012 0.053,-0.006 0.098,-0.008 0.098,-0.008 0,0 0.357,-0.339 0.913,-0.339 0.557,0 1.187,0.279 1.142,0.908 -0.045,0.629 -0.465,0.753 -1.134,0.849 -0.875,0.125 -1.472,-0.054 -1.972,-0.73 -0.182,-0.246 -0.184,-0.489 -0.132,-0.642 0.061,-0.181 0.2,-0.25 0.2,-0.25"/><path id="path65" style="fill:#da141d;fill-opacity:1;fill-rule:nonzero;stroke:none" d="m 7.1704,7.832 c 0,0 -0.15,-0.456 0.36,-0.821 0.316,-0.226 0.531,-0.362 0.899,-0.406 0.225,-0.026 0.581,-0.045 0.838,0.049 0.351,0.128 0.422,0.328 0.373,0.539 -0.042,0.175 -0.362,0.358 -0.667,0.355 -0.459,-0.004 -0.353,-0.316 -0.173,-0.323 0.132,-0.006 0.153,0.241 0.153,0.241 0,0 0.2,-0.181 0.2,-0.347 0,-0.167 -0.203,-0.369 -0.735,-0.208 -0.263,0.079 -0.328,0.353 -0.328,0.353 0,0 -0.201,0.004 -0.307,0.161 -0.073,0.107 -0.122,0.28 -0.122,0.28 0,0 0.153,-0.086 0.251,-0.097 0.045,-0.004 0.097,0.007 0.143,0.013 0.054,0.006 0.098,0.008 0.098,0.008 0,0 0.357,0.339 0.914,0.339 0.557,0 1.186,-0.279 1.141,-0.908 -0.045,-0.629 -0.464,-0.753 -1.133,-0.849 -0.876,-0.126 -1.473,0.054 -1.973,0.73 -0.182,0.246 -0.184,0.489 -0.132,0.641 0.062,0.182 0.2,0.25 0.2,0.25"/><path id="path66" style="fill:#da141d;fill-opacity:1;fill-rule:nonzero;stroke:none" d="m 13.4629,7.832 c 0,0 -0.15,-0.456 0.36,-0.821 0.316,-0.226 0.531,-0.362 0.899,-0.406 0.225,-0.026 0.581,-0.045 0.838,0.049 0.351,0.128 0.422,0.328 0.373,0.539 -0.042,0.175 -0.362,0.358 -0.667,0.355 -0.459,-0.004 -0.353,-0.316 -0.173,-0.323 0.132,-0.006 0.153,0.241 0.153,0.241 0,0 0.2,-0.181 0.2,-0.347 0,-0.167 -0.203,-0.369 -0.735,-0.208 -0.263,0.079 -0.328,0.353 -0.328,0.353 0,0 -0.201,0.004 -0.307,0.161 -0.073,0.107 -0.122,0.28 -0.122,0.28 0,0 0.153,-0.086 0.251,-0.097 0.045,-0.004 0.097,0.007 0.143,0.013 0.054,0.006 0.098,0.008 0.098,0.008 0,0 0.357,0.339 0.914,0.339 0.557,0 1.186,-0.279 1.141,-0.908 -0.045,-0.629 -0.464,-0.753 -1.133,-0.849 -0.876,-0.126 -1.473,0.054 -1.973,0.73 -0.182,0.246 -0.184,0.489 -0.132,0.641 0.062,0.182 0.2,0.25 0.2,0.25"/><path id="path67" style="fill:#da141d;fill-opacity:1;fill-rule:nonzero;stroke:none" d="m 19.7549,7.832 c 0,0 -0.149,-0.456 0.36,-0.821 0.317,-0.226 0.532,-0.362 0.899,-0.406 0.225,-0.026 0.582,-0.045 0.839,0.049 0.35,0.128 0.422,0.328 0.372,0.539 -0.041,0.175 -0.361,0.358 -0.666,0.355 -0.459,-0.004 -0.354,-0.316 -0.173,-0.323 0.131,-0.006 0.153,0.241 0.153,0.241 0,0 0.199,-0.181 0.199,-0.347 0,-0.167 -0.203,-0.369 -0.735,-0.208 -0.262,0.079 -0.327,0.353 -0.327,0.353 0,0 -0.202,0.004 -0.308,0.161 -0.073,0.107 -0.122,0.28 -0.122,0.28 0,0 0.154,-0.086 0.251,-0.097 0.046,-0.004 0.098,0.007 0.144,0.013 0.053,0.006 0.097,0.008 0.097,0.008 0,0 0.358,0.339 0.914,0.339 0.557,0 1.187,-0.279 1.142,-0.908 -0.046,-0.629 -0.465,-0.753 -1.134,-0.849 -0.875,-0.126 -1.472,0.054 -1.972,0.73 -0.182,0.246 -0.185,0.489 -0.132,0.641 0.061,0.182 0.199,0.25 0.199,0.25"/><path id="path68" style="fill:#da141d;fill-opacity:1;fill-rule:nonzero;stroke:none" d="m 26.0479,7.832 c 0,0 -0.15,-0.456 0.359,-0.821 0.317,-0.226 0.532,-0.362 0.9,-0.406 0.225,-0.026 0.581,-0.045 0.838,0.049 0.35,0.128 0.423,0.328 0.373,0.539 -0.041,0.175 -0.362,0.358 -0.667,0.355 -0.459,-0.004 -0.353,-0.316 -0.173,-0.323 0.132,-0.006 0.153,0.241 0.153,0.241 0,0 0.2,-0.181 0.2,-0.347 0,-0.167 -0.203,-0.369 -0.736,-0.208 -0.262,0.079 -0.326,0.353 -0.326,0.353 0,0 -0.202,0.004 -0.309,0.161 -0.072,0.107 -0.121,0.28 -0.121,0.28 0,0 0.153,-0.086 0.251,-0.097 0.045,-0.004 0.097,0.007 0.143,0.013 0.053,0.006 0.098,0.008 0.098,0.008 0,0 0.357,0.339 0.913,0.339 0.558,0 1.187,-0.279 1.142,-0.908 -0.045,-0.629 -0.464,-0.753 -1.134,-0.849 -0.875,-0.126 -1.471,0.054 -1.971,0.73 -0.183,0.246 -0.185,0.489 -0.133,0.641 0.061,0.182 0.2,0.25 0.2,0.25"/><path id="path69" style="fill:#da141d;fill-opacity:1;fill-rule:nonzero;stroke:none" d="m 3.9204,29.6299 c 0,0 -0.15,-0.457 0.36,-0.821 0.316,-0.227 0.531,-0.362 0.899,-0.406 0.225,-0.026 0.581,-0.045 0.838,0.049 0.351,0.128 0.423,0.328 0.373,0.539 -0.041,0.175 -0.361,0.357 -0.667,0.355 -0.459,-0.004 -0.353,-0.316 -0.173,-0.324 0.132,-0.006 0.154,0.241 0.154,0.241 0,0 0.199,-0.18 0.199,-0.346 0,-0.167 -0.203,-0.369 -0.735,-0.208 -0.262,0.079 -0.327,0.353 -0.327,0.353 0,0 -0.202,0.004 -0.308,0.16 -0.073,0.108 -0.122,0.281 -0.122,0.281 0,0 0.154,-0.086 0.251,-0.097 0.046,-0.004 0.097,0.007 0.143,0.013 0.054,0.006 0.098,0.007 0.098,0.007 0,0 0.357,0.339 0.914,0.339 0.557,0 1.186,-0.278 1.142,-0.907 -0.046,-0.63 -0.465,-0.753 -1.134,-0.85 -0.875,-0.125 -1.472,0.055 -1.972,0.731 -0.183,0.246 -0.185,0.489 -0.133,0.641 0.062,0.181 0.2,0.25 0.2,0.25"/><path id="path70" style="fill:#da141d;fill-opacity:1;fill-rule:nonzero;stroke:none" d="m 10.2598,29.6299 c 0,0 -0.15,-0.457 0.36,-0.821 0.316,-0.227 0.531,-0.362 0.899,-0.406 0.225,-0.026 0.581,-0.045 0.838,0.049 0.351,0.128 0.422,0.328 0.373,0.539 -0.042,0.175 -0.362,0.357 -0.667,0.355 -0.459,-0.004 -0.353,-0.316 -0.173,-0.324 0.132,-0.006 0.153,0.241 0.153,0.241 0,0 0.2,-0.18 0.2,-0.346 0,-0.167 -0.203,-0.369 -0.735,-0.208 -0.263,0.079 -0.328,0.353 -0.328,0.353 0,0 -0.201,0.004 -0.307,0.16 -0.073,0.108 -0.122,0.281 -0.122,0.281 0,0 0.153,-0.086 0.251,-0.097 0.045,-0.004 0.097,0.007 0.143,0.013 0.054,0.006 0.098,0.007 0.098,0.007 0,0 0.357,0.339 0.914,0.339 0.557,0 1.186,-0.278 1.141,-0.907 -0.045,-0.63 -0.464,-0.753 -1.133,-0.85 -0.876,-0.125 -1.473,0.055 -1.973,0.731 -0.182,0.246 -0.184,0.489 -0.132,0.641 0.062,0.181 0.2,0.25 0.2,0.25"/><path id="path71" style="fill:#da141d;fill-opacity:1;fill-rule:nonzero;stroke:none" d="m 16.5986,29.6299 c 0,0 -0.15,-0.457 0.36,-0.821 0.316,-0.227 0.531,-0.362 0.899,-0.406 0.225,-0.026 0.581,-0.045 0.839,0.049 0.35,0.128 0.422,0.328 0.372,0.539 -0.041,0.175 -0.362,0.357 -0.667,0.355 -0.459,-0.004 -0.353,-0.316 -0.173,-0.324 0.132,-0.006 0.154,0.241 0.154,0.241 0,0 0.199,-0.18 0.199,-0.346 0,-0.167 -0.203,-0.369 -0.735,-0.208 -0.262,0.079 -0.327,0.353 -0.327,0.353 0,0 -0.202,0.004 -0.308,0.16 -0.073,0.108 -0.122,0.281 -0.122,0.281 0,0 0.154,-0.086 0.251,-0.097 0.046,-0.004 0.097,0.007 0.143,0.013 0.054,0.006 0.098,0.007 0.098,0.007 0,0 0.357,0.339 0.914,0.339 0.557,0 1.187,-0.278 1.141,-0.907 -0.045,-0.63 -0.464,-0.753 -1.133,-0.85 -0.875,-0.125 -1.472,0.055 -1.972,0.731 -0.183,0.246 -0.185,0.489 -0.133,0.641 0.062,0.181 0.2,0.25 0.2,0.25"/><path id="path72" style="fill:#da141d;fill-opacity:1;fill-rule:nonzero;stroke:none" d="m 22.9375,29.6299 c 0,0 -0.149,-0.457 0.36,-0.821 0.317,-0.227 0.532,-0.362 0.899,-0.406 0.225,-0.026 0.582,-0.045 0.839,0.049 0.35,0.128 0.422,0.328 0.372,0.539 -0.041,0.175 -0.361,0.357 -0.666,0.355 -0.459,-0.004 -0.354,-0.316 -0.173,-0.324 0.131,-0.006 0.153,0.241 0.153,0.241 0,0 0.199,-0.18 0.199,-0.346 0,-0.167 -0.203,-0.369 -0.735,-0.208 -0.262,0.079 -0.327,0.353 -0.327,0.353 0,0 -0.202,0.004 -0.308,0.16 -0.073,0.108 -0.122,0.281 -0.122,0.281 0,0 0.154,-0.086 0.251,-0.097 0.046,-0.004 0.098,0.007 0.144,0.013 0.053,0.006 0.097,0.007 0.097,0.007 0,0 0.358,0.339 0.914,0.339 0.557,0 1.187,-0.278 1.142,-0.907 -0.046,-0.63 -0.465,-0.753 -1.134,-0.85 -0.875,-0.125 -1.472,0.055 -1.972,0.731 -0.182,0.246 -0.185,0.489 -0.132,0.641 0.061,0.181 0.199,0.25 0.199,0.25"/><path id="path73" style="fill:#da141d;fill-opacity:1;fill-rule:nonzero;stroke:none" d="m 29.2773,29.6299 c 0,0 -0.15,-0.457 0.359,-0.821 0.317,-0.227 0.532,-0.362 0.9,-0.406 0.224,-0.026 0.581,-0.045 0.838,0.049 0.35,0.128 0.422,0.328 0.373,0.539 -0.042,0.175 -0.362,0.357 -0.667,0.355 -0.459,-0.004 -0.353,-0.316 -0.173,-0.324 0.132,-0.006 0.153,0.241 0.153,0.241 0,0 0.2,-0.18 0.2,-0.346 0,-0.167 -0.203,-0.369 -0.736,-0.208 -0.262,0.079 -0.327,0.353 -0.327,0.353 0,0 -0.201,0.004 -0.308,0.16 -0.072,0.108 -0.121,0.281 -0.121,0.281 0,0 0.153,-0.086 0.251,-0.097 0.045,-0.004 0.097,0.007 0.143,0.013 0.053,0.006 0.098,0.007 0.098,0.007 0,0 0.357,0.339 0.913,0.339 0.557,0 1.187,-0.278 1.142,-0.907 -0.045,-0.63 -0.465,-0.753 -1.134,-0.85 -0.875,-0.125 -1.472,0.055 -1.972,0.731 -0.182,0.246 -0.184,0.489 -0.132,0.641 0.061,0.181 0.2,0.25 0.2,0.25"/><path id="path74" style="fill:#da141d;fill-opacity:1;fill-rule:nonzero;stroke:none" d="m 7.1577,28.1318 c 0,0 -0.15,0.457 0.36,0.822 0.316,0.226 0.531,0.361 0.899,0.405 0.225,0.026 0.581,0.046 0.838,-0.048 0.351,-0.129 0.423,-0.329 0.373,-0.54 -0.041,-0.174 -0.361,-0.357 -0.667,-0.354 -0.459,0.004 -0.353,0.315 -0.173,0.323 0.132,0.006 0.154,-0.241 0.154,-0.241 0,0 0.199,0.18 0.199,0.347 0,0.166 -0.203,0.369 -0.735,0.208 -0.262,-0.079 -0.327,-0.353 -0.327,-0.353 0,0 -0.202,-0.004 -0.308,-0.161 -0.073,-0.108 -0.122,-0.281 -0.122,-0.281 0,0 0.153,0.087 0.251,0.097 0.046,0.004 0.097,-0.007 0.143,-0.012 0.054,-0.006 0.098,-0.008 0.098,-0.008 0,0 0.357,-0.339 0.914,-0.339 0.557,0 1.186,0.278 1.142,0.908 -0.046,0.629 -0.465,0.753 -1.134,0.849 -0.876,0.125 -1.472,-0.054 -1.972,-0.731 -0.183,-0.245 -0.185,-0.488 -0.133,-0.641 0.062,-0.181 0.2,-0.25 0.2,-0.25"/><path id="path75" style="fill:#da141d;fill-opacity:1;fill-rule:nonzero;stroke:none" d="m 13.4546,28.1318 c 0,0 -0.15,0.457 0.36,0.822 0.316,0.226 0.531,0.361 0.899,0.405 0.225,0.026 0.581,0.046 0.838,-0.048 0.351,-0.129 0.422,-0.329 0.373,-0.54 -0.042,-0.174 -0.362,-0.357 -0.667,-0.354 -0.459,0.004 -0.353,0.315 -0.173,0.323 0.132,0.006 0.153,-0.241 0.153,-0.241 0,0 0.2,0.18 0.2,0.347 0,0.166 -0.203,0.369 -0.735,0.208 -0.263,-0.079 -0.328,-0.353 -0.328,-0.353 0,0 -0.202,-0.004 -0.307,-0.161 -0.073,-0.108 -0.122,-0.281 -0.122,-0.281 0,0 0.153,0.087 0.251,0.097 0.045,0.004 0.097,-0.007 0.143,-0.012 0.054,-0.006 0.098,-0.008 0.098,-0.008 0,0 0.357,-0.339 0.914,-0.339 0.557,0 1.186,0.278 1.141,0.908 -0.045,0.629 -0.464,0.753 -1.133,0.849 -0.876,0.125 -1.473,-0.054 -1.973,-0.731 -0.182,-0.245 -0.184,-0.488 -0.132,-0.641 0.062,-0.181 0.2,-0.25 0.2,-0.25"/><path id="path76" style="fill:#da141d;fill-opacity:1;fill-rule:nonzero;stroke:none" d="m 19.751,28.1318 c 0,0 -0.149,0.457 0.36,0.822 0.316,0.226 0.531,0.361 0.899,0.405 0.225,0.026 0.581,0.046 0.839,-0.048 0.35,-0.129 0.422,-0.329 0.372,-0.54 -0.041,-0.174 -0.362,-0.357 -0.667,-0.354 -0.459,0.004 -0.353,0.315 -0.172,0.323 0.131,0.006 0.152,-0.241 0.152,-0.241 0,0 0.2,0.18 0.2,0.347 0,0.166 -0.203,0.369 -0.735,0.208 -0.263,-0.079 -0.327,-0.353 -0.327,-0.353 0,0 -0.202,-0.004 -0.308,-0.161 -0.073,-0.108 -0.122,-0.281 -0.122,-0.281 0,0 0.154,0.087 0.251,0.097 0.045,0.004 0.098,-0.007 0.144,-0.012 0.053,-0.006 0.097,-0.008 0.097,-0.008 0,0 0.357,-0.339 0.914,-0.339 0.557,0 1.186,0.278 1.141,0.908 -0.045,0.629 -0.464,0.753 -1.133,0.849 -0.876,0.125 -1.472,-0.054 -1.972,-0.731 -0.182,-0.245 -0.185,-0.488 -0.133,-0.641 0.062,-0.181 0.2,-0.25 0.2,-0.25"/><path id="path77" style="fill:#da141d;fill-opacity:1;fill-rule:nonzero;stroke:none" d="m 26.0479,28.1318 c 0,0 -0.15,0.457 0.359,0.822 0.317,0.226 0.532,0.361 0.9,0.405 0.225,0.026 0.581,0.046 0.838,-0.048 0.35,-0.129 0.423,-0.329 0.373,-0.54 -0.041,-0.174 -0.362,-0.357 -0.667,-0.354 -0.459,0.004 -0.353,0.315 -0.173,0.323 0.132,0.006 0.153,-0.241 0.153,-0.241 0,0 0.2,0.18 0.2,0.347 0,0.166 -0.203,0.369 -0.736,0.208 -0.262,-0.079 -0.326,-0.353 -0.326,-0.353 0,0 -0.202,-0.004 -0.309,-0.161 -0.072,-0.108 -0.121,-0.281 -0.121,-0.281 0,0 0.153,0.087 0.251,0.097 0.045,0.004 0.097,-0.007 0.143,-0.012 0.053,-0.006 0.098,-0.008 0.098,-0.008 0,0 0.357,-0.339 0.913,-0.339 0.558,0 1.187,0.278 1.142,0.908 -0.045,0.629 -0.464,0.753 -1.134,0.849 -0.875,0.125 -1.471,-0.054 -1.971,-0.731 -0.183,-0.245 -0.185,-0.488 -0.133,-0.641 0.061,-0.181 0.2,-0.25 0.2,-0.25"/><path id="path78" style="fill:#da141d;fill-opacity:1;fill-rule:nonzero;stroke:none" d="m 33.0322,11.001 c 0,0 0.554,-0.111 0.995,0.267 0.274,0.235 0.437,0.394 0.489,0.668 0.033,0.167 0.056,0.431 -0.057,0.622 -0.156,0.26 -0.398,0.313 -0.653,0.276 -0.212,-0.03 -0.432,-0.268 -0.429,-0.495 0.005,-0.34 0.382,-0.262 0.391,-0.128 0.007,0.098 -0.292,0.114 -0.292,0.114 0,0 0.218,0.149 0.42,0.149 0.201,0 0.447,-0.152 0.251,-0.547 -0.095,-0.195 -0.427,-0.242 -0.427,-0.242 0,0 -0.004,-0.151 -0.194,-0.229 -0.131,-0.055 -0.34,-0.091 -0.34,-0.091 0,0 0.105,0.115 0.117,0.187 0.005,0.033 -0.007,0.072 -0.014,0.106 -0.008,0.04 -0.01,0.072 -0.01,0.072 0,0 -0.41,0.266 -0.41,0.679 0,0.413 0.337,0.881 1.099,0.847 0.761,-0.033 0.911,-0.345 1.027,-0.841 0.151,-0.65 -0.066,-1.093 -0.884,-1.465 -0.298,-0.135 -0.592,-0.136 -0.776,-0.097 -0.219,0.045 -0.303,0.148 -0.303,0.148"/><path id="path79" style="fill:#da141d;fill-opacity:1;fill-rule:nonzero;stroke:none" d="m 33.0322,15.7031 c 0,0 0.554,-0.111 0.995,0.267 0.274,0.234 0.437,0.394 0.489,0.667 0.033,0.168 0.056,0.431 -0.057,0.623 -0.156,0.259 -0.398,0.313 -0.653,0.276 -0.212,-0.031 -0.432,-0.269 -0.429,-0.495 0.005,-0.341 0.382,-0.262 0.391,-0.128 0.007,0.098 -0.292,0.113 -0.292,0.113 0,0 0.218,0.149 0.42,0.149 0.201,0 0.447,-0.151 0.251,-0.546 -0.095,-0.195 -0.427,-0.243 -0.427,-0.243 0,0 -0.004,-0.15 -0.194,-0.229 -0.131,-0.054 -0.34,-0.09 -0.34,-0.09 0,0 0.105,0.114 0.117,0.187 0.005,0.033 -0.007,0.072 -0.014,0.106 -0.008,0.039 -0.01,0.072 -0.01,0.072 0,0 -0.41,0.265 -0.41,0.679 0,0.413 0.337,0.881 1.099,0.847 0.761,-0.033 0.911,-0.345 1.027,-0.841 0.151,-0.65 -0.066,-1.094 -0.884,-1.465 -0.298,-0.135 -0.592,-0.136 -0.776,-0.097 -0.219,0.044 -0.303,0.148 -0.303,0.148"/><path id="path80" style="fill:#da141d;fill-opacity:1;fill-rule:nonzero;stroke:none" d="m 33.0322,20.4043 c 0,0 0.554,-0.111 0.995,0.267 0.274,0.235 0.437,0.395 0.489,0.668 0.033,0.167 0.056,0.431 -0.057,0.622 -0.156,0.26 -0.398,0.314 -0.653,0.276 -0.212,-0.03 -0.432,-0.268 -0.429,-0.495 0.005,-0.34 0.382,-0.261 0.391,-0.128 0.007,0.098 -0.292,0.114 -0.292,0.114 0,0 0.218,0.149 0.42,0.149 0.201,0 0.447,-0.151 0.251,-0.547 -0.095,-0.194 -0.427,-0.242 -0.427,-0.242 0,0 -0.004,-0.15 -0.194,-0.229 -0.131,-0.054 -0.34,-0.09 -0.34,-0.09 0,0 0.105,0.114 0.117,0.186 0.005,0.033 -0.007,0.073 -0.014,0.106 -0.008,0.04 -0.01,0.073 -0.01,0.073 0,0 -0.41,0.265 -0.41,0.679 0,0.413 0.337,0.88 1.099,0.847 0.761,-0.034 0.911,-0.345 1.027,-0.842 0.151,-0.65 -0.066,-1.093 -0.884,-1.464 -0.298,-0.135 -0.592,-0.137 -0.776,-0.098 -0.219,0.045 -0.303,0.148 -0.303,0.148"/><path id="path81" style="fill:#da141d;fill-opacity:1;fill-rule:nonzero;stroke:none" d="m 33.0322,25.1064 c 0,0 0.554,-0.111 0.995,0.267 0.274,0.234 0.437,0.394 0.489,0.668 0.033,0.167 0.056,0.431 -0.057,0.622 -0.156,0.26 -0.398,0.313 -0.653,0.276 -0.212,-0.03 -0.432,-0.268 -0.429,-0.495 0.005,-0.34 0.382,-0.262 0.391,-0.128 0.007,0.098 -0.292,0.114 -0.292,0.114 0,0 0.218,0.148 0.42,0.148 0.201,0 0.447,-0.151 0.251,-0.546 -0.095,-0.195 -0.427,-0.243 -0.427,-0.243 0,0 -0.004,-0.15 -0.194,-0.228 -0.131,-0.054 -0.34,-0.091 -0.34,-0.091 0,0 0.105,0.114 0.117,0.187 0.005,0.033 -0.007,0.072 -0.014,0.106 -0.008,0.04 -0.01,0.073 -0.01,0.073 0,0 -0.41,0.265 -0.41,0.678 0,0.413 0.337,0.881 1.099,0.847 0.761,-0.033 0.911,-0.344 1.027,-0.841 0.151,-0.65 -0.066,-1.093 -0.884,-1.464 -0.298,-0.136 -0.592,-0.137 -0.776,-0.098 -0.219,0.045 -0.303,0.148 -0.303,0.148"/><path id="path82" style="fill:#da141d;fill-opacity:1;fill-rule:nonzero;stroke:none" d="m 34.8457,8.6953 c 0,0 -0.553,-0.111 -0.994,0.268 -0.275,0.234 -0.438,0.393 -0.49,0.667 -0.033,0.167 -0.056,0.431 0.057,0.622 0.156,0.26 0.399,0.313 0.654,0.276 0.211,-0.03 0.432,-0.268 0.428,-0.494 -0.004,-0.341 -0.382,-0.262 -0.391,-0.128 -0.007,0.097 0.292,0.113 0.292,0.113 0,0 -0.218,0.149 -0.42,0.149 -0.201,0 -0.447,-0.152 -0.251,-0.547 0.095,-0.195 0.427,-0.242 0.427,-0.242 0,0 0.004,-0.151 0.194,-0.229 0.131,-0.054 0.34,-0.09 0.34,-0.09 0,0 -0.105,0.114 -0.117,0.186 -0.005,0.034 0.008,0.072 0.014,0.106 0.008,0.04 0.01,0.073 0.01,0.073 0,0 0.41,0.265 0.41,0.678 0,0.414 -0.337,0.881 -1.099,0.848 -0.761,-0.034 -0.911,-0.345 -1.027,-0.842 -0.151,-0.649 0.066,-1.093 0.884,-1.464 0.298,-0.135 0.592,-0.137 0.776,-0.098 0.219,0.045 0.303,0.148 0.303,0.148"/><path id="path83" style="fill:#da141d;fill-opacity:1;fill-rule:nonzero;stroke:none" d="m 34.8457,13.3662 c 0,0 -0.553,-0.111 -0.994,0.268 -0.275,0.234 -0.438,0.394 -0.49,0.667 -0.033,0.168 -0.056,0.431 0.057,0.623 0.156,0.259 0.399,0.313 0.654,0.276 0.211,-0.031 0.432,-0.269 0.428,-0.495 -0.004,-0.341 -0.382,-0.262 -0.391,-0.128 -0.007,0.098 0.292,0.113 0.292,0.113 0,0 -0.218,0.149 -0.42,0.149 -0.201,0 -0.447,-0.151 -0.251,-0.546 0.095,-0.195 0.427,-0.243 0.427,-0.243 0,0 0.004,-0.15 0.194,-0.229 0.131,-0.054 0.34,-0.09 0.34,-0.09 0,0 -0.105,0.114 -0.117,0.187 -0.005,0.033 0.008,0.072 0.014,0.105 0.008,0.04 0.01,0.073 0.01,0.073 0,0 0.41,0.265 0.41,0.679 0,0.413 -0.337,0.88 -1.099,0.847 -0.761,-0.033 -0.911,-0.345 -1.027,-0.841 -0.151,-0.65 0.066,-1.094 0.884,-1.465 0.298,-0.135 0.592,-0.137 0.776,-0.098 0.219,0.045 0.303,0.148 0.303,0.148"/><path id="path84" style="fill:#da141d;fill-opacity:1;fill-rule:nonzero;stroke:none" d="m 34.8457,18.0381 c 0,0 -0.553,-0.111 -0.994,0.267 -0.275,0.234 -0.438,0.394 -0.49,0.667 -0.033,0.168 -0.056,0.432 0.057,0.623 0.156,0.26 0.399,0.313 0.654,0.276 0.211,-0.03 0.432,-0.268 0.428,-0.495 -0.004,-0.34 -0.382,-0.262 -0.391,-0.128 -0.007,0.098 0.292,0.114 0.292,0.114 0,0 -0.218,0.148 -0.42,0.148 -0.201,0 -0.447,-0.151 -0.251,-0.546 0.095,-0.195 0.427,-0.243 0.427,-0.243 0,0 0.004,-0.15 0.194,-0.228 0.131,-0.055 0.34,-0.091 0.34,-0.091 0,0 -0.105,0.114 -0.117,0.187 -0.005,0.033 0.008,0.072 0.014,0.106 0.008,0.04 0.01,0.073 0.01,0.073 0,0 0.41,0.265 0.41,0.678 0,0.413 -0.337,0.881 -1.099,0.847 -0.761,-0.033 -0.911,-0.344 -1.027,-0.841 -0.151,-0.65 0.066,-1.093 0.884,-1.464 0.298,-0.136 0.592,-0.137 0.776,-0.099 0.219,0.046 0.303,0.149 0.303,0.149"/><path id="path85" style="fill:#da141d;fill-opacity:1;fill-rule:nonzero;stroke:none" d="m 34.8457,22.709 c 0,0 -0.553,-0.111 -0.994,0.267 -0.275,0.235 -0.438,0.395 -0.49,0.668 -0.033,0.167 -0.056,0.431 0.057,0.622 0.156,0.26 0.399,0.313 0.654,0.276 0.211,-0.03 0.432,-0.268 0.428,-0.495 -0.004,-0.34 -0.382,-0.261 -0.391,-0.128 -0.007,0.098 0.292,0.114 0.292,0.114 0,0 -0.218,0.148 -0.42,0.148 -0.201,0 -0.447,-0.15 -0.251,-0.546 0.095,-0.194 0.427,-0.242 0.427,-0.242 0,0 0.004,-0.15 0.194,-0.229 0.131,-0.054 0.34,-0.09 0.34,-0.09 0,0 -0.105,0.113 -0.117,0.186 -0.005,0.033 0.008,0.072 0.014,0.106 0.008,0.04 0.01,0.073 0.01,0.073 0,0 0.41,0.265 0.41,0.678 0,0.414 -0.337,0.881 -1.099,0.847 -0.761,-0.033 -0.911,-0.344 -1.027,-0.841 -0.151,-0.65 0.066,-1.093 0.884,-1.464 0.298,-0.135 0.592,-0.137 0.776,-0.098 0.219,0.045 0.303,0.148 0.303,0.148"/><path id="path86" style="fill:#da141d;fill-opacity:1;fill-rule:nonzero;stroke:none" d="m 2.9956,11.0107 c 0,0 -0.553,-0.111 -0.994,0.268 -0.274,0.234 -0.438,0.393 -0.49,0.667 -0.033,0.167 -0.056,0.431 0.058,0.622 0.155,0.26 0.398,0.313 0.652,0.276 0.212,-0.03 0.433,-0.268 0.43,-0.494 -0.005,-0.341 -0.382,-0.262 -0.392,-0.128 -0.007,0.097 0.292,0.113 0.292,0.113 0,0 -0.218,0.149 -0.42,0.149 -0.201,0 -0.446,-0.152 -0.251,-0.547 0.095,-0.195 0.427,-0.242 0.427,-0.242 0,0 0.004,-0.151 0.194,-0.229 0.131,-0.054 0.34,-0.09 0.34,-0.09 0,0 -0.105,0.114 -0.117,0.186 -0.005,0.034 0.008,0.072 0.015,0.106 0.007,0.04 0.009,0.073 0.009,0.073 0,0 0.411,0.265 0.411,0.678 0,0.414 -0.337,0.881 -1.099,0.848 -0.762,-0.034 -0.912,-0.345 -1.027,-0.842 -0.152,-0.649 0.065,-1.093 0.883,-1.464 0.298,-0.136 0.592,-0.137 0.776,-0.098 0.22,0.045 0.303,0.148 0.303,0.148"/><path id="path87" style="fill:#da141d;fill-opacity:1;fill-rule:nonzero;stroke:none" d="m 2.9956,15.7129 c 0,0 -0.553,-0.111 -0.994,0.267 -0.274,0.235 -0.438,0.394 -0.49,0.668 -0.033,0.167 -0.056,0.431 0.058,0.622 0.155,0.26 0.398,0.313 0.652,0.276 0.212,-0.03 0.433,-0.268 0.43,-0.495 -0.005,-0.34 -0.382,-0.262 -0.392,-0.128 -0.007,0.098 0.292,0.113 0.292,0.113 0,0 -0.218,0.149 -0.42,0.149 -0.201,0 -0.446,-0.151 -0.251,-0.546 0.095,-0.195 0.427,-0.242 0.427,-0.242 0,0 0.004,-0.151 0.194,-0.229 0.131,-0.055 0.34,-0.091 0.34,-0.091 0,0 -0.105,0.114 -0.117,0.187 -0.005,0.033 0.008,0.072 0.015,0.106 0.007,0.04 0.009,0.072 0.009,0.072 0,0 0.411,0.266 0.411,0.679 0,0.413 -0.337,0.881 -1.099,0.847 -0.762,-0.033 -0.912,-0.344 -1.027,-0.841 -0.152,-0.65 0.065,-1.094 0.883,-1.465 0.298,-0.135 0.592,-0.136 0.776,-0.097 0.22,0.045 0.303,0.148 0.303,0.148"/><path id="path88" style="fill:#da141d;fill-opacity:1;fill-rule:nonzero;stroke:none" d="m 2.9956,20.4146 c 0,0 -0.553,-0.111 -0.994,0.267 -0.274,0.235 -0.438,0.394 -0.49,0.668 -0.033,0.167 -0.056,0.431 0.058,0.622 0.155,0.26 0.398,0.313 0.652,0.276 0.212,-0.03 0.433,-0.268 0.43,-0.495 -0.005,-0.34 -0.382,-0.261 -0.392,-0.128 -0.007,0.098 0.292,0.114 0.292,0.114 0,0 -0.218,0.148 -0.42,0.148 -0.201,0 -0.446,-0.151 -0.251,-0.546 0.095,-0.195 0.427,-0.243 0.427,-0.243 0,0 0.004,-0.15 0.194,-0.228 0.131,-0.054 0.34,-0.09 0.34,-0.09 0,0 -0.105,0.113 -0.117,0.186 -0.005,0.033 0.008,0.072 0.015,0.106 0.007,0.04 0.009,0.073 0.009,0.073 0,0 0.411,0.265 0.411,0.678 0,0.414 -0.337,0.881 -1.099,0.847 -0.762,-0.033 -0.912,-0.344 -1.027,-0.841 -0.152,-0.65 0.065,-1.093 0.883,-1.464 0.298,-0.135 0.592,-0.137 0.776,-0.098 0.22,0.045 0.303,0.148 0.303,0.148"/><path id="path89" style="fill:#da141d;fill-opacity:1;fill-rule:nonzero;stroke:none" d="m 2.9956,25.1162 c 0,0 -0.553,-0.111 -0.994,0.267 -0.274,0.235 -0.438,0.395 -0.49,0.668 -0.033,0.167 -0.056,0.431 0.058,0.622 0.155,0.26 0.398,0.313 0.652,0.276 0.212,-0.03 0.433,-0.268 0.43,-0.495 -0.005,-0.34 -0.382,-0.261 -0.392,-0.128 -0.007,0.098 0.292,0.114 0.292,0.114 0,0 -0.218,0.149 -0.42,0.149 -0.201,0 -0.446,-0.151 -0.251,-0.547 0.095,-0.194 0.427,-0.242 0.427,-0.242 0,0 0.004,-0.15 0.194,-0.229 0.131,-0.054 0.34,-0.09 0.34,-0.09 0,0 -0.105,0.113 -0.117,0.186 -0.005,0.033 0.008,0.072 0.015,0.106 0.007,0.04 0.009,0.073 0.009,0.073 0,0 0.411,0.265 0.411,0.678 0,0.414 -0.337,0.881 -1.099,0.847 -0.762,-0.033 -0.912,-0.344 -1.027,-0.841 -0.152,-0.65 0.065,-1.093 0.883,-1.464 0.298,-0.135 0.592,-0.137 0.776,-0.098 0.22,0.045 0.303,0.148 0.303,0.148"/><path id="path90" style="fill:#da141d;fill-opacity:1;fill-rule:nonzero;stroke:none" d="m 1.1826,8.7051 c 0,0 0.553,-0.111 0.994,0.268 0.274,0.234 0.437,0.394 0.49,0.667 0.033,0.168 0.056,0.431 -0.058,0.623 -0.155,0.259 -0.398,0.313 -0.653,0.276 -0.211,-0.031 -0.432,-0.269 -0.429,-0.495 0.005,-0.341 0.382,-0.262 0.392,-0.128 0.007,0.098 -0.292,0.113 -0.292,0.113 0,0 0.218,0.149 0.42,0.149 0.201,0 0.446,-0.151 0.251,-0.546 -0.095,-0.195 -0.427,-0.243 -0.427,-0.243 0,0 -0.004,-0.15 -0.194,-0.229 -0.131,-0.054 -0.34,-0.09 -0.34,-0.09 0,0 0.105,0.114 0.117,0.187 0.005,0.033 -0.008,0.071 -0.015,0.105 -0.007,0.04 -0.009,0.073 -0.009,0.073 0,0 -0.411,0.265 -0.411,0.679 0,0.413 0.337,0.88 1.099,0.847 0.762,-0.033 0.911,-0.345 1.027,-0.842 0.152,-0.649 -0.065,-1.093 -0.883,-1.464 -0.298,-0.135 -0.592,-0.137 -0.776,-0.098 -0.22,0.045 -0.303,0.148 -0.303,0.148"/><path id="path91" style="fill:#da141d;fill-opacity:1;fill-rule:nonzero;stroke:none" d="m 1.1826,13.377 c 0,0 0.553,-0.111 0.994,0.267 0.274,0.235 0.437,0.394 0.49,0.668 0.033,0.167 0.056,0.43 -0.058,0.622 -0.155,0.259 -0.398,0.313 -0.653,0.276 -0.211,-0.03 -0.432,-0.268 -0.429,-0.495 0.005,-0.341 0.382,-0.262 0.392,-0.128 0.007,0.098 -0.292,0.113 -0.292,0.113 0,0 0.218,0.149 0.42,0.149 0.201,0 0.446,-0.151 0.251,-0.546 -0.095,-0.195 -0.427,-0.242 -0.427,-0.242 0,0 -0.004,-0.151 -0.194,-0.229 -0.131,-0.055 -0.34,-0.091 -0.34,-0.091 0,0 0.105,0.114 0.117,0.187 0.005,0.033 -0.008,0.072 -0.015,0.106 -0.007,0.04 -0.009,0.072 -0.009,0.072 0,0 -0.411,0.265 -0.411,0.679 0,0.413 0.337,0.881 1.099,0.847 0.762,-0.033 0.911,-0.345 1.027,-0.841 0.152,-0.65 -0.065,-1.094 -0.883,-1.465 -0.298,-0.135 -0.592,-0.136 -0.776,-0.097 -0.22,0.045 -0.303,0.148 -0.303,0.148"/><path id="path92" style="fill:#da141d;fill-opacity:1;fill-rule:nonzero;stroke:none" d="m 1.1826,18.0479 c 0,0 0.553,-0.111 0.994,0.267 0.274,0.235 0.437,0.395 0.49,0.668 0.033,0.167 0.056,0.431 -0.058,0.622 -0.155,0.26 -0.398,0.313 -0.653,0.276 -0.211,-0.03 -0.432,-0.268 -0.429,-0.495 0.005,-0.34 0.382,-0.261 0.392,-0.128 0.007,0.098 -0.292,0.114 -0.292,0.114 0,0 0.218,0.148 0.42,0.148 0.201,0 0.446,-0.15 0.251,-0.546 -0.095,-0.195 -0.427,-0.242 -0.427,-0.242 0,0 -0.004,-0.15 -0.194,-0.229 -0.131,-0.054 -0.34,-0.09 -0.34,-0.09 0,0 0.105,0.113 0.117,0.186 0.005,0.033 -0.008,0.072 -0.015,0.106 -0.007,0.04 -0.009,0.073 -0.009,0.073 0,0 -0.411,0.265 -0.411,0.678 0,0.414 0.337,0.881 1.099,0.847 0.762,-0.033 0.911,-0.344 1.027,-0.841 0.152,-0.65 -0.065,-1.093 -0.883,-1.464 -0.298,-0.135 -0.592,-0.137 -0.776,-0.098 -0.22,0.045 -0.303,0.148 -0.303,0.148"/><path id="path93" style="fill:#da141d;fill-opacity:1;fill-rule:nonzero;stroke:none" d="m 1.1826,22.7192 c 0,0 0.553,-0.111 0.994,0.267 0.274,0.234 0.437,0.394 0.49,0.667 0.033,0.168 0.056,0.432 -0.058,0.623 -0.155,0.26 -0.398,0.313 -0.653,0.276 -0.211,-0.03 -0.432,-0.268 -0.429,-0.495 0.005,-0.34 0.382,-0.262 0.392,-0.128 0.007,0.098 -0.292,0.114 -0.292,0.114 0,0 0.218,0.148 0.42,0.148 0.201,0 0.446,-0.151 0.251,-0.546 -0.095,-0.195 -0.427,-0.243 -0.427,-0.243 0,0 -0.004,-0.15 -0.194,-0.228 -0.131,-0.054 -0.34,-0.091 -0.34,-0.091 0,0 0.105,0.114 0.117,0.187 0.005,0.033 -0.008,0.072 -0.015,0.106 -0.007,0.04 -0.009,0.073 -0.009,0.073 0,0 -0.411,0.265 -0.411,0.678 0,0.413 0.337,0.881 1.099,0.847 0.762,-0.033 0.911,-0.344 1.027,-0.841 0.152,-0.65 -0.065,-1.093 -0.883,-1.464 -0.298,-0.136 -0.592,-0.137 -0.776,-0.098 -0.22,0.045 -0.303,0.148 -0.303,0.148"/><path id="path94" style="fill:#da141d;fill-opacity:1;fill-rule:nonzero;stroke:none" d="M 3.77,8.7402 H 0.503 v -0.12 H 3.65 v -3.12 h 0.12 z"/><path id="path95" style="fill:#da141d;fill-opacity:1;fill-rule:nonzero;stroke:none" d="m 32.2305,8.7402 h 3.267 v -0.12 h -3.147 v -3.12 h -0.12 z"/><path id="path96" style="fill:#da141d;fill-opacity:1;fill-rule:nonzero;stroke:none" d="m 32.2305,27.2598 h 3.267 v 0.12 h -3.147 v 3.12 h -0.12 z"/><path id="path97" style="fill:#da141d;fill-opacity:1;fill-rule:nonzero;stroke:none" d="M 3.77,27.2598 H 0.503 v 0.12 H 3.65 v 3.12 h 0.12 z"/></g><g id="g35"><path id="path00" style="fill:#da141d;fill-opacity:1;fill-rule:nonzero;stroke:none" d="m 19.5039,9.8857 c 0.049,0 0.104,-0.006 0.172,-0.021 0.165,-0.04 0.221,-0.11 0.274,-0.179 0.035,-0.045 0.07,-0.087 0.141,-0.127 0.095,-0.053 0.183,-0.067 0.252,-0.047 0.045,0.015 0.079,0.045 0.099,0.09 0.076,0.163 0.252,0.218 0.536,0.173 0.139,-0.024 0.219,-0.076 0.278,-0.116 0.087,-0.057 0.119,-0.061 0.228,-0.012 0.107,0.047 0.26,0.122 0.576,0.098 0.262,-0.017 0.414,-0.046 0.497,-0.068 -0.006,0.094 -0.038,0.249 -0.19,0.325 -0.153,0.078 -0.309,0.09 -0.506,0.106 -0.118,0.008 -0.252,0.018 -0.406,0.045 -0.209,0.036 -0.4,0.08 -0.45,0.215 -0.008,0.023 -0.012,0.06 0.014,0.111 0.038,0.074 0.142,0.178 0.314,0.226 0.168,0.046 0.602,0.014 0.785,-0.004 -0.025,0.071 -0.089,0.176 -0.247,0.224 -0.076,0.023 -0.177,0.03 -0.283,0.037 -0.283,0.019 -0.636,0.042 -0.854,0.389 -0.338,0.541 -0.178,1.015 -0.023,1.474 0.161,0.478 0.237,0.639 0.241,0.646 l 0.011,0.016 c 0.007,0.005 0.151,0.152 0.334,0.27 0.181,0.115 0.319,0.181 0.325,0.184 l 0.016,0.007 0.017,-0.002 c 0.025,-0.003 0.586,-0.082 0.932,-0.317 0.208,-0.141 0.326,-0.294 0.34,-0.439 0.008,-0.093 -0.026,-0.18 -0.097,-0.25 -0.091,-0.092 -0.176,-0.1 -0.233,-0.085 -0.073,0.014 -0.136,0.065 -0.184,0.122 0.023,-0.136 0.094,-0.306 0.302,-0.392 0.586,-0.244 0.831,0.309 0.841,0.333 l 0.051,0.118 0.058,-0.114 c 0.002,-0.004 0.188,-0.365 0.429,-0.365 0.243,0 0.356,0.184 0.361,0.366 0.007,0.275 -0.331,0.316 -0.346,0.317 l 0.003,0.12 c 0.017,0.004 0.466,0.032 1.01,-0.122 0.679,-0.192 0.92,-0.511 0.92,-0.747 0,-0.25 -0.275,-0.362 -0.287,-0.367 l -0.029,-0.011 -0.027,0.017 c -0.003,0.002 -0.293,0.19 -0.595,0.157 -0.322,-0.034 -0.636,-0.305 -0.7,-0.442 -0.056,-0.12 -0.045,-0.237 -0.045,-0.238 l 0.003,-0.025 -0.015,-0.019 c 0,0 -0.1,-0.163 0.309,-0.518 0.395,-0.34 0.721,-0.383 0.933,-0.386 h 0.007 c 0.2,0 0.278,0.107 0.282,0.111 l 0.043,0.06 0.051,-0.054 c 10e-4,-0.002 0.186,-0.199 0.593,-0.202 h 0.01 c 0.138,0 0.243,0.019 0.317,0.038 -0.142,0.087 -0.355,0.257 -0.355,0.482 0,0.212 0.1,0.335 0.228,0.492 0.067,0.083 0.144,0.178 0.222,0.304 0.15,0.243 0.111,0.495 0.11,0.498 l -0.01,0.064 0.064,0.005 c 0.005,0.001 0.424,0.038 0.57,0.387 0.036,0.085 0.038,0.163 0.007,0.237 -0.052,0.122 -0.182,0.203 -0.253,0.241 -0.056,-0.098 -0.199,-0.285 -0.478,-0.285 h -0.003 c -0.427,0.003 -0.873,0.259 -0.891,0.27 l -0.094,0.055 0.097,0.05 c 0.01,0.006 0.276,0.15 0.2,0.466 -0.054,0.228 -0.328,0.376 -0.331,0.378 l -0.127,0.068 0.137,0.042 c 0.015,0.004 1.444,0.448 2.69,1.424 1.283,1.007 2.033,2.446 2.11,3.346 0.076,0.89 -0.574,2.295 -0.581,2.31 l 0.104,0.059 c 0.002,-0.002 0.161,-0.227 0.353,-0.242 0.131,-0.014 0.298,0.014 0.377,0.112 0.055,0.069 0.061,0.17 0.019,0.302 -0.046,0.145 -0.218,0.301 -0.329,0.334 -0.203,0.06 -0.375,-0.075 -0.377,-0.076 l -0.132,-0.099 0.037,0.16 c 0.001,0.003 0.061,0.272 -0.119,0.486 -0.234,0.277 -0.659,0.216 -0.666,0.215 l -0.028,0.116 c 0.003,0.001 0.32,0.107 0.48,0.36 0.154,0.245 0.035,0.521 0.034,0.524 l 0.11,0.048 c 0.005,-0.012 0.205,-0.427 0.493,-0.349 0.061,0.018 0.14,0.052 0.168,0.117 0.023,0.053 0.011,0.123 -0.034,0.209 -0.098,0.187 -0.392,0.388 -0.395,0.39 -0.001,0 -0.001,0 -0.001,0.001 l 0.067,0.099 c 0.001,0 0.001,0 0.001,-0.001 0.117,-0.079 0.452,-0.28 0.616,-0.224 0.033,0.011 0.054,0.033 0.067,0.07 0.035,0.104 -0.072,0.221 -0.177,0.334 l -0.05,0.055 c -0.136,0.155 -0.251,0.309 -0.255,0.315 l 0.087,0.081 c 0.003,-0.003 0.249,-0.224 0.465,-0.224 0.007,0 0.014,0 0.022,0.001 0.107,0.007 0.159,0.074 0.181,0.113 0.028,0.05 0.035,0.109 0.017,0.143 -0.085,0.16 -0.483,0.382 -0.63,0.454 l 0.047,0.11 c 0.149,-0.054 0.422,-0.114 0.519,-0.05 0.029,0.018 0.046,0.049 0.054,0.091 0.029,0.164 -0.09,0.448 -0.32,0.761 -0.21,0.284 -0.34,0.455 -0.406,0.541 -0.074,-0.12 -0.243,-0.354 -0.563,-0.603 -0.347,-0.269 -0.781,-0.42 -1.241,-0.58 -0.149,-0.051 -0.301,-0.105 -0.457,-0.164 -0.795,-0.3 -1.151,-0.791 -1.154,-0.796 l -0.021,-0.029 -0.036,0.004 c -0.006,10e-4 -0.592,0.071 -1.008,-0.076 -0.495,-0.176 -0.429,-0.507 -0.426,-0.522 l 0.02,-0.089 -0.09,0.017 c -10e-4,0.001 -0.305,0.059 -0.531,-0.096 -0.208,-0.142 -0.163,-0.303 -0.161,-0.31 l 0.022,-0.079 -0.082,0.002 c 0.003,0 -0.237,0.006 -0.389,-0.127 -0.08,-0.069 -0.124,-0.138 -0.128,-0.198 -0.002,-0.048 0.023,-0.076 0.024,-0.077 l 0.086,-0.095 -0.128,-0.006 c -0.004,0 -0.406,-0.018 -0.482,-0.303 -0.076,-0.285 0.083,-0.41 0.09,-0.415 l 0.11,-0.084 -0.136,-0.023 c -0.003,-0.001 -0.356,-0.063 -0.49,-0.224 -0.181,-0.217 -0.158,-0.39 -0.157,-0.397 l 0.004,-0.039 -0.033,-0.021 c -10e-4,-10e-4 -0.114,-0.073 -0.251,-0.292 -0.213,-0.344 -0.077,-0.461 -0.075,-0.462 l 0.067,-0.056 -0.075,-0.044 c -0.016,-0.009 -0.402,-0.237 -0.396,-0.821 0.006,-0.544 0.395,-0.942 0.628,-1.13 0.268,-0.218 0.597,-0.287 0.6,-0.288 l 0.051,-0.011 -0.003,-0.051 c 0,-0.004 -0.03,-0.413 -0.616,-0.431 -0.662,-0.019 -0.836,-0.195 -0.837,-0.197 l -0.045,-0.048 -0.045,0.049 c -0.002,0.002 -0.195,0.216 -0.399,0.194 -0.05,-0.005 -0.083,-0.022 -0.1,-0.052 -0.042,-0.072 0.001,-0.207 0.02,-0.25 l 0.067,-0.152 -0.148,0.075 c -0.008,0.004 -0.152,0.073 -0.273,-0.05 -0.08,-0.082 -0.058,-0.204 -0.058,-0.205 l 0.015,-0.073 -0.074,10e-4 h -0.001 c -0.014,0 -0.19,-0.003 -0.314,-0.177 -0.042,-0.061 -0.086,-0.146 -0.059,-0.208 0.032,-0.073 0.152,-0.102 0.196,-0.108 l 0.162,-0.019 -0.135,-0.09 c 0,0 -0.061,-0.042 -0.069,-0.108 -0.006,-0.047 0.018,-0.099 0.068,-0.155 0.125,-0.135 0.233,-0.157 0.234,-0.158 l 0.103,-0.02 -0.069,-0.079 c -10e-4,0 -0.061,-0.071 -0.045,-0.142 0.016,-0.067 0.094,-0.112 0.156,-0.138 0.3,-0.128 0.466,0.03 0.473,0.037 l 0.102,0.097 v -0.14 c 0,-0.001 0.002,-0.084 0.052,-0.157 0.036,-0.051 0.178,-0.118 0.267,-0.149 l 0.134,-0.047 -0.126,-0.064 c -0.025,-0.011 -0.608,-0.299 -1.73,-0.363 -1.128,-0.067 -1.658,0.148 -1.679,0.157 l -0.017,0.01 c -0.002,0.002 -0.205,0.175 -0.347,0.308 -0.143,0.133 -0.277,0.265 -0.277,0.265 l -0.104,0.103 h 0.145 c 0.007,0 0.679,0.005 0.901,0.102 0.11,0.049 0.175,0.11 0.194,0.181 0.025,0.099 -0.043,0.192 -0.044,0.193 l -0.063,0.084 0.104,0.012 c 0.002,0 0.209,0.026 0.436,0.239 0.124,0.116 0.208,0.233 0.283,0.334 0.072,0.101 0.134,0.187 0.217,0.252 0.132,0.104 0.123,0.295 0.123,0.297 l -0.003,0.043 0.041,0.016 c 0.002,0.001 0.269,0.111 0.458,0.463 0.185,0.343 0.104,0.545 0.103,0.547 l -0.03,0.071 0.075,0.012 c 0.002,0.001 0.223,0.043 0.455,0.365 0.156,0.215 0.189,0.372 0.192,0.452 -0.055,-0.007 -0.133,-0.01 -0.2,0.018 -0.102,0.044 -0.207,0.124 -0.211,0.127 l -0.057,0.044 0.053,0.048 c 0.003,0.003 0.325,0.296 0.392,0.576 0.066,0.278 -0.119,0.445 -0.214,0.478 -0.13,0.045 -0.386,0.138 -0.386,0.138 l -0.066,0.024 0.034,0.061 c 0.006,0.01 0.137,0.244 0.412,0.532 0.201,0.212 0.243,0.507 0.125,0.875 -0.083,0.26 -0.307,0.376 -0.41,0.417 -0.044,-0.104 -0.167,-0.315 -0.484,-0.462 -0.334,-0.156 -0.613,-0.132 -0.883,-0.11 -0.067,0.006 -0.134,0.012 -0.201,0.014 -0.017,10e-4 -0.033,10e-4 -0.049,10e-4 -0.387,0 -0.557,-0.183 -0.564,-0.191 l -0.017,-0.019 -0.027,-0.001 c -0.001,-0.001 -0.288,-0.002 -0.64,0.028 -0.33,0.022 -0.65,-0.132 -0.653,-0.133 l -0.022,-0.012 -0.024,0.009 c -0.003,0 -0.251,0.084 -0.545,0.091 -0.01,0 -0.019,0 -0.029,0 -0.472,0 -0.902,-0.258 -0.907,-0.26 l -0.016,-0.01 -0.019,10e-4 c -0.003,0.002 -0.292,0.019 -0.692,-0.061 -0.398,-0.082 -0.64,-0.222 -0.642,-0.223 l -0.017,-0.007 c -0.015,-0.003 -0.355,-0.081 -0.766,0.365 -0.453,0.493 -0.526,0.858 -0.528,0.873 l -0.017,0.09 0.089,-0.02 c 0.234,-0.054 0.874,-0.143 1.018,0.081 0.066,0.103 0.025,0.283 -0.094,0.409 -0.098,0.102 -0.232,0.172 -0.317,0.209 -0.003,-0.069 -0.019,-0.161 -0.074,-0.221 -0.036,-0.04 -0.085,-0.062 -0.142,-0.062 -0.203,0 -0.53,0.306 -0.853,0.636 -0.262,0.267 -0.593,0.688 -0.597,0.693 l -0.057,0.073 0.09,0.022 c 0.006,10e-4 0.631,0.157 0.88,0.318 0.249,0.16 0.411,0.498 0.468,0.672 0.043,0.132 0.042,0.356 0.038,0.466 -0.094,-0.013 -0.274,-0.026 -0.464,0.003 -0.409,0.063 -0.579,-0.219 -0.587,-0.232 l -0.107,-0.175 -0.004,0.206 c 0,10e-4 -0.004,0.147 -0.1,0.233 -0.056,0.051 -0.135,0.072 -0.236,0.064 -0.107,-0.009 -0.177,-0.037 -0.202,-0.082 -0.028,-0.052 0.007,-0.12 0.007,-0.121 l 0.072,-0.138 -0.146,0.055 c -0.065,0.024 -0.262,0.075 -0.376,0.021 -0.134,-0.063 -0.167,-0.263 -0.167,-0.265 l -0.012,-0.073 -0.069,0.026 c -0.009,0.004 -0.215,0.08 -0.317,-0.068 -0.151,-0.216 0.014,-0.35 0.021,-0.356 l 0.107,-0.084 -0.134,-0.022 c -0.012,-0.002 -0.29,-0.046 -0.678,0.056 -0.368,0.097 -0.665,0.098 -0.667,0.098 h -0.151 l 0.11,0.103 c 0,0.001 0.09,0.092 0.134,0.323 0.035,0.183 0.033,0.272 0.031,0.359 -0.001,0.033 -0.001,0.066 0,0.102 10e-4,0.035 0.002,0.065 0.002,0.09 -0.104,-0.06 -0.288,-0.159 -0.52,-0.249 -0.624,-0.245 -0.774,-0.701 -0.776,-0.706 l -0.014,-0.043 -0.046,10e-4 c -0.004,0.002 -0.287,0.013 -0.716,-0.183 -0.486,-0.221 -0.829,-0.498 -0.966,-0.777 -0.246,-0.504 -0.194,-1.209 -0.193,-1.216 l 0.005,-0.074 -0.072,0.009 c -0.002,0 -0.164,0.019 -0.311,-0.068 -0.101,-0.059 -0.177,-0.177 -0.177,-0.243 -0.002,-0.16 0.075,-0.203 0.164,-0.253 0.017,-0.01 0.034,-0.019 0.049,-0.029 0.127,-0.081 0.118,-0.263 0.117,-0.271 l -0.001,-0.02 -0.013,-0.016 c -0.002,-0.002 -0.196,-0.229 -0.452,-0.469 -0.187,-0.177 -0.526,-0.457 -0.635,-0.457 -0.038,0 -0.074,0.01 -0.113,0.021 -0.038,0.011 -0.078,0.023 -0.119,0.023 -0.038,0 -0.094,-0.053 -0.125,-0.093 -0.012,-0.055 -0.049,-0.276 0.164,-0.345 0.233,-0.075 0.5,0.128 0.502,0.129 l 0.14,0.108 -0.045,-0.171 c -0.002,-0.008 -0.052,-0.207 0.115,-0.336 0.173,-0.132 0.31,-0.101 0.318,-0.098 -0.002,0 0.261,0.12 0.319,0.323 0.019,0.068 0.027,0.158 0.035,0.244 0.012,0.129 0.024,0.262 0.075,0.352 0.079,0.14 0.535,0.523 0.587,0.566 l 0.016,0.013 0.022,0.001 c 0.006,0 0.63,0.012 0.79,0.032 0.179,0.023 0.211,0.051 0.218,0.128 0.011,0.118 -0.035,0.26 -0.035,0.261 l -0.015,0.048 0.043,0.024 c 0.013,0.006 0.31,0.166 0.55,0.198 0.248,0.033 0.708,0.34 0.713,0.343 l 0.032,0.022 0.033,-0.02 c 0.02,-0.013 0.503,-0.313 0.844,-0.809 0.344,-0.499 0.401,-0.772 0.277,-1.327 -0.1,-0.452 -0.323,-0.789 -0.558,-1.145 -0.045,-0.069 -0.092,-0.139 -0.139,-0.212 -0.268,-0.42 -0.336,-1.12 -0.176,-1.828 0.187,-0.833 0.523,-1.436 1.057,-1.9 0.414,-0.361 0.88,-0.596 0.884,-0.598 l 0.013,-0.009 c 0.007,-0.005 0.666,-0.59 1.044,-0.914 0.478,-0.409 0.917,-0.615 0.921,-0.617 l 0.085,-0.039 -0.071,-0.061 c -0.006,-0.005 -0.565,-0.487 -0.839,-0.781 -0.079,-0.084 -0.163,-0.195 -0.253,-0.313 -0.236,-0.311 -0.48,-0.632 -0.735,-0.632 -0.219,0 -0.474,0.143 -0.721,0.28 -0.138,0.078 -0.27,0.152 -0.393,0.2 -0.316,0.124 -0.773,0.133 -1.087,0.017 -0.179,-0.065 -0.334,-0.2 -0.423,-0.293 0.11,-0.004 0.271,-0.014 0.408,-0.039 0.08,-0.013 0.15,-0.012 0.224,-0.012 0.124,10e-4 0.269,0.005 0.475,-0.072 0.147,-0.056 0.333,-0.179 0.512,-0.297 0.208,-0.138 0.424,-0.279 0.567,-0.309 0.129,-0.027 0.197,-0.018 0.258,-0.01 0.067,0.01 0.132,0.019 0.244,-0.027 0.205,-0.083 0.304,-0.235 0.454,-0.466 0.121,-0.187 0.381,-0.286 0.818,-0.312 0.15,-0.009 0.268,-0.061 0.35,-0.156 0.088,-0.104 0.112,-0.232 0.117,-0.314 0.074,0.031 0.192,0.122 0.22,0.396 0.024,0.241 -0.139,0.337 -0.345,0.458 -0.03,0.018 -0.062,0.036 -0.092,0.056 -0.214,0.131 -0.421,0.244 -0.423,0.245 l -0.156,0.084 0.174,0.028 c 0.007,0 0.161,0.025 0.597,-0.015 0.221,-0.019 0.371,-0.04 0.465,-0.056 -0.054,0.081 -0.147,0.19 -0.286,0.272 -0.263,0.156 -0.489,0.278 -0.492,0.279 l -0.063,0.033 0.044,0.056 c 0.004,0.004 0.341,0.436 0.685,0.815 0.335,0.369 0.727,0.71 0.856,0.744 0.071,0.019 0.185,0.011 0.33,10e-4 0.24,-0.016 0.568,-0.04 0.734,0.076 0.246,0.171 0.219,0.527 0.219,0.531 l -0.006,0.064 1.295,0.025 0.008,-0.002 c 0.004,-0.002 0.512,-0.125 1.007,-0.205 0.494,-0.081 0.949,-0.111 0.953,-0.112 l 0.082,-0.005 -0.03,-0.077 c 0,0 -0.052,-0.158 0.004,-0.76 0.058,-0.628 0.205,-0.947 0.313,-1.18 0.118,-0.26 0.083,-0.573 -0.098,-0.882 -0.207,-0.356 -0.532,-0.498 -1.159,-0.509 -0.157,-0.005 -0.306,-0.003 -0.443,-10e-4 -0.438,-0.001 -0.753,0.004 -0.99,-0.116 -0.085,-0.044 -0.147,-0.111 -0.188,-0.165 0.173,0.008 0.512,0.015 0.906,-0.051 0.172,-0.03 0.314,-0.059 0.436,-0.084 0.268,-0.055 0.431,-0.09 0.593,-0.059 0.074,0.015 0.134,0.032 0.187,0.048 0.081,0.023 0.15,0.044 0.24,0.044 m 0.774,-0.503 c -0.077,0 -0.162,0.024 -0.246,0.07 -0.092,0.052 -0.136,0.109 -0.176,0.16 -0.048,0.061 -0.083,0.105 -0.207,0.134 -0.159,0.038 -0.234,0.014 -0.351,-0.02 -0.056,-0.017 -0.118,-0.035 -0.199,-0.05 -0.181,-0.038 -0.366,0.002 -0.639,0.059 -0.121,0.024 -0.262,0.053 -0.432,0.082 -0.54,0.092 -0.987,0.042 -0.992,0.041 l -0.105,-0.012 0.044,0.096 c 0.004,0.008 0.096,0.212 0.3,0.317 0.263,0.133 0.607,0.129 1.046,0.129 0.135,-0.002 0.282,-0.003 0.44,0 0.667,0.012 0.905,0.188 1.057,0.45 0.162,0.275 0.194,0.549 0.092,0.773 -0.11,0.24 -0.262,0.57 -0.322,1.217 -0.04,0.425 -0.027,0.639 -0.013,0.74 -0.147,0.011 -0.509,0.045 -0.896,0.107 -0.467,0.076 -0.944,0.189 -1.009,0.205 l -1.155,-0.021 c -0.003,-0.128 -0.035,-0.412 -0.272,-0.577 -0.199,-0.14 -0.537,-0.116 -0.81,-0.096 -0.124,0.008 -0.241,0.016 -0.291,0.003 -0.083,-0.023 -0.435,-0.31 -0.798,-0.709 -0.268,-0.296 -0.533,-0.624 -0.635,-0.753 0.086,-0.047 0.251,-0.139 0.434,-0.246 0.281,-0.168 0.393,-0.427 0.398,-0.438 l 0.048,-0.114 -0.12,0.033 c -10e-4,0 -0.158,0.043 -0.577,0.08 -0.155,0.014 -0.272,0.02 -0.359,0.022 0.071,-0.041 0.155,-0.091 0.24,-0.144 0.03,-0.018 0.06,-0.036 0.09,-0.054 0.214,-0.125 0.435,-0.255 0.403,-0.573 -0.052,-0.509 -0.384,-0.518 -0.397,-0.518 l -0.067,-0.001 0.006,0.066 c 0,0.002 0.015,0.183 -0.09,0.305 -0.06,0.069 -0.149,0.108 -0.265,0.115 -0.478,0.027 -0.768,0.144 -0.912,0.366 -0.142,0.219 -0.228,0.351 -0.399,0.42 -0.079,0.033 -0.12,0.026 -0.181,0.02 -0.066,-0.011 -0.149,-0.022 -0.3,0.01 -0.165,0.035 -0.38,0.176 -0.608,0.327 -0.174,0.115 -0.353,0.233 -0.488,0.284 -0.185,0.07 -0.31,0.072 -0.431,0.065 -0.078,0 -0.155,-0.003 -0.248,0.015 -0.218,0.039 -0.515,0.04 -0.518,0.04 h -0.123 l 0.075,0.097 c 0.01,0.012 0.244,0.309 0.562,0.425 0.34,0.123 0.831,0.118 1.172,-0.018 0.131,-0.052 0.272,-0.131 0.408,-0.207 0.233,-0.13 0.475,-0.266 0.662,-0.266 0.196,0 0.432,0.311 0.639,0.585 0.092,0.12 0.179,0.234 0.261,0.323 0.224,0.241 0.622,0.592 0.781,0.731 -0.152,0.08 -0.494,0.275 -0.867,0.594 -0.36,0.308 -0.974,0.852 -1.04,0.911 -0.063,0.032 -0.499,0.26 -0.902,0.611 -0.555,0.48 -0.903,1.104 -1.096,1.964 -0.166,0.738 -0.091,1.473 0.193,1.919 0.047,0.073 0.094,0.144 0.14,0.214 0.229,0.346 0.445,0.673 0.541,1.105 0.116,0.52 0.065,0.762 -0.258,1.232 -0.279,0.403 -0.665,0.679 -0.778,0.754 -0.114,-0.075 -0.493,-0.31 -0.73,-0.341 -0.168,-0.022 -0.378,-0.119 -0.466,-0.163 0.015,-0.06 0.035,-0.163 0.026,-0.26 -0.017,-0.198 -0.193,-0.22 -0.322,-0.236 -0.151,-0.019 -0.669,-0.03 -0.782,-0.033 -0.197,-0.165 -0.493,-0.43 -0.544,-0.52 -0.038,-0.067 -0.049,-0.187 -0.06,-0.302 -0.008,-0.092 -0.017,-0.187 -0.039,-0.267 -0.074,-0.259 -0.381,-0.398 -0.394,-0.403 -0.017,-0.004 -0.208,-0.056 -0.431,0.116 -0.132,0.102 -0.166,0.234 -0.17,0.331 -0.118,-0.064 -0.314,-0.143 -0.506,-0.08 -0.276,0.089 -0.277,0.367 -0.239,0.501 l 0.008,0.018 c 0.011,0.016 0.11,0.153 0.229,0.153 0.058,0 0.108,-0.015 0.152,-0.028 0.031,-0.008 0.059,-0.016 0.08,-0.016 0.042,0.007 0.272,0.159 0.553,0.424 0.211,0.199 0.38,0.388 0.428,0.444 -0.002,0.041 -0.014,0.114 -0.061,0.144 -0.014,0.008 -0.029,0.017 -0.044,0.025 -0.096,0.055 -0.227,0.128 -0.225,0.359 0.001,0.116 0.104,0.268 0.235,0.345 0.119,0.07 0.242,0.085 0.317,0.087 -0.008,0.194 -0.009,0.765 0.209,1.211 0.19,0.391 0.661,0.67 1.023,0.835 0.363,0.165 0.626,0.191 0.727,0.194 0.054,0.128 0.258,0.514 0.831,0.738 0.349,0.137 0.59,0.294 0.592,0.296 l 0.094,0.061 v -0.111 c 0,0 0,-0.067 -0.004,-0.202 -10e-4,-0.033 -10e-4,-0.064 0,-0.095 0.002,-0.093 0.005,-0.189 -0.033,-0.385 -0.025,-0.132 -0.064,-0.226 -0.099,-0.288 0.123,-0.009 0.337,-0.031 0.585,-0.097 0.222,-0.059 0.404,-0.065 0.518,-0.062 -0.057,0.099 -0.083,0.248 0.037,0.42 0.104,0.149 0.275,0.157 0.394,0.131 0.025,0.084 0.085,0.226 0.218,0.289 0.115,0.055 0.265,0.037 0.365,0.014 -0.002,0.036 0.003,0.077 0.025,0.117 0.045,0.084 0.145,0.133 0.297,0.145 0.138,0.012 0.246,-0.021 0.328,-0.094 0.061,-0.056 0.095,-0.125 0.114,-0.186 0.104,0.102 0.303,0.233 0.62,0.184 0.251,-0.038 0.489,0.005 0.491,0.005 l 0.066,0.013 0.005,-0.067 c 10e-4,-0.016 0.026,-0.375 -0.04,-0.576 -0.076,-0.235 -0.258,-0.569 -0.516,-0.736 -0.21,-0.135 -0.639,-0.26 -0.827,-0.31 0.106,-0.131 0.338,-0.414 0.531,-0.611 0.18,-0.185 0.698,-0.711 0.82,-0.578 0.047,0.053 0.047,0.183 0.042,0.224 l -0.01,0.092 0.088,-0.029 c 0.011,-0.003 0.274,-0.09 0.447,-0.273 0.134,-0.142 0.218,-0.385 0.109,-0.555 -0.181,-0.28 -0.796,-0.202 -1.047,-0.155 0.048,-0.132 0.173,-0.399 0.471,-0.724 0.331,-0.359 0.596,-0.34 0.643,-0.33 0.051,0.028 0.291,0.154 0.67,0.231 0.363,0.073 0.633,0.066 0.705,0.065 0.087,0.05 0.494,0.268 0.952,0.268 0.011,0 0.022,0 0.033,0 0.263,-0.007 0.485,-0.068 0.557,-0.09 0.083,0.038 0.387,0.165 0.694,0.134 0.286,-0.023 0.529,-0.026 0.605,-0.027 0.062,0.057 0.262,0.211 0.633,0.211 0.017,0 0.035,0 0.053,-0.001 0.069,-0.003 0.138,-0.009 0.208,-0.014 0.252,-0.022 0.515,-0.044 0.821,0.098 0.371,0.173 0.436,0.433 0.439,0.444 l 0.015,0.06 0.059,-0.015 c 0.017,-0.005 0.419,-0.114 0.547,-0.515 0.13,-0.408 0.078,-0.752 -0.154,-0.995 -0.182,-0.192 -0.3,-0.36 -0.355,-0.447 0.085,-0.03 0.227,-0.081 0.314,-0.111 0.164,-0.058 0.369,-0.295 0.292,-0.62 -0.059,-0.244 -0.273,-0.483 -0.375,-0.585 0.035,-0.023 0.083,-0.052 0.128,-0.072 0.064,-0.025 0.16,-0.006 0.193,0.003 l 0.06,0.017 0.016,-0.06 c 0.002,-0.01 0.055,-0.243 -0.21,-0.611 -0.19,-0.26 -0.375,-0.358 -0.47,-0.393 0.019,-0.099 0.028,-0.304 -0.125,-0.588 -0.169,-0.316 -0.394,-0.455 -0.482,-0.5 -0.004,-0.078 -0.03,-0.247 -0.168,-0.356 -0.071,-0.055 -0.128,-0.135 -0.196,-0.228 -0.077,-0.106 -0.164,-0.228 -0.297,-0.352 -0.168,-0.157 -0.327,-0.224 -0.421,-0.252 0.024,-0.054 0.044,-0.132 0.023,-0.216 -0.028,-0.11 -0.116,-0.198 -0.262,-0.262 -0.179,-0.079 -0.587,-0.103 -0.804,-0.109 0.047,-0.047 0.109,-0.106 0.172,-0.165 0.124,-0.117 0.296,-0.264 0.335,-0.296 0.072,-0.026 0.6,-0.201 1.619,-0.147 0.801,0.046 1.328,0.212 1.555,0.298 -0.072,0.035 -0.153,0.083 -0.191,0.138 -0.03,0.042 -0.047,0.085 -0.058,0.123 -0.097,-0.052 -0.272,-0.105 -0.517,-0.003 -0.129,0.054 -0.206,0.13 -0.227,0.223 -0.016,0.069 0.004,0.132 0.026,0.177 -0.056,0.027 -0.136,0.076 -0.22,0.167 -0.076,0.083 -0.11,0.168 -0.099,0.251 0.006,0.044 0.022,0.08 0.041,0.11 -0.067,0.024 -0.149,0.069 -0.185,0.151 -0.041,0.092 -0.017,0.201 0.071,0.325 0.113,0.161 0.263,0.209 0.348,0.223 0,0.065 0.016,0.166 0.095,0.247 0.095,0.096 0.2,0.117 0.295,0.105 -0.017,0.074 -0.024,0.171 0.021,0.248 0.026,0.045 0.08,0.1 0.192,0.111 0.2,0.026 0.383,-0.119 0.46,-0.193 0.093,0.065 0.333,0.181 0.874,0.197 0.36,0.01 0.462,0.183 0.49,0.269 -0.113,0.031 -0.37,0.116 -0.595,0.298 -0.248,0.202 -0.665,0.628 -0.67,1.222 -0.006,0.523 0.274,0.793 0.399,0.887 -0.049,0.084 -0.089,0.259 0.098,0.56 0.111,0.18 0.211,0.271 0.259,0.309 -10e-4,0.076 0.02,0.253 0.187,0.454 0.111,0.135 0.33,0.209 0.46,0.242 -0.058,0.085 -0.117,0.235 -0.058,0.458 0.074,0.277 0.357,0.358 0.504,0.382 -0.005,0.021 -0.009,0.044 -0.008,0.07 0.004,0.096 0.062,0.192 0.17,0.287 0.131,0.115 0.306,0.146 0.402,0.153 -0.002,0.089 0.028,0.239 0.217,0.369 0.197,0.133 0.43,0.133 0.547,0.125 0.003,0.139 0.067,0.422 0.508,0.579 0.389,0.137 0.895,0.099 1.029,0.086 0.091,0.114 0.46,0.535 1.188,0.811 0.157,0.059 0.311,0.112 0.461,0.165 0.47,0.163 0.875,0.304 1.206,0.561 0.429,0.333 0.572,0.639 0.573,0.642 l 0.041,0.089 0.061,-0.076 c 0.001,-0.002 0.136,-0.172 0.464,-0.617 0.253,-0.343 0.378,-0.654 0.342,-0.853 -0.013,-0.075 -0.049,-0.134 -0.105,-0.171 -0.063,-0.04 -0.15,-0.049 -0.238,-0.046 0.141,-0.092 0.285,-0.205 0.34,-0.311 0.039,-0.071 0.032,-0.17 -0.017,-0.257 -0.057,-0.103 -0.158,-0.166 -0.278,-0.175 -0.082,-0.002 -0.177,0.016 -0.258,0.051 0.007,-0.008 0.014,-0.017 0.021,-0.025 l 0.048,-0.053 c 0.122,-0.132 0.261,-0.282 0.202,-0.453 -0.024,-0.072 -0.073,-0.123 -0.142,-0.146 -0.083,-0.029 -0.193,-0.011 -0.3,0.024 0.031,-0.039 0.059,-0.079 0.08,-0.119 0.063,-0.12 0.076,-0.225 0.038,-0.312 -0.036,-0.086 -0.121,-0.15 -0.245,-0.185 -0.204,-0.058 -0.361,0.046 -0.471,0.166 -0.001,-0.103 -0.025,-0.222 -0.097,-0.337 -0.084,-0.133 -0.202,-0.229 -0.305,-0.295 0.161,-0.02 0.362,-0.083 0.509,-0.256 0.137,-0.163 0.161,-0.348 0.158,-0.467 0.088,0.04 0.224,0.078 0.374,0.034 0.145,-0.043 0.351,-0.229 0.411,-0.413 0.055,-0.172 0.041,-0.311 -0.04,-0.413 -0.135,-0.169 -0.398,-0.164 -0.481,-0.156 -0.081,0.006 -0.156,0.038 -0.219,0.079 0.189,-0.461 0.532,-1.409 0.472,-2.097 -0.077,-0.898 -0.784,-2.354 -2.155,-3.429 -1.054,-0.828 -2.236,-1.277 -2.609,-1.406 0.1,-0.075 0.24,-0.208 0.283,-0.385 0.061,-0.258 -0.059,-0.442 -0.174,-0.541 0.147,-0.072 0.456,-0.206 0.745,-0.208 h 0.003 c 0.288,0 0.394,0.262 0.395,0.265 l 0.021,0.057 0.056,-0.023 c 0.012,-0.004 0.275,-0.109 0.368,-0.327 0.045,-0.104 0.043,-0.216 -0.005,-0.332 -0.14,-0.334 -0.474,-0.427 -0.611,-0.451 0.005,-0.101 -0.004,-0.312 -0.132,-0.519 -0.082,-0.133 -0.161,-0.231 -0.231,-0.317 -0.122,-0.148 -0.202,-0.247 -0.202,-0.416 0,-0.252 0.403,-0.437 0.407,-0.439 l 0.11,-0.05 -0.107,-0.058 c -0.006,-0.004 -0.173,-0.092 -0.491,-0.092 h -0.01 c -0.344,0.002 -0.549,0.128 -0.635,0.198 -0.055,-0.048 -0.162,-0.113 -0.334,-0.113 h -0.009 c -0.229,0.002 -0.585,0.049 -1.009,0.415 -0.428,0.37 -0.375,0.59 -0.34,0.66 -0.001,0.046 0.001,0.162 0.057,0.281 0.087,0.183 0.438,0.472 0.796,0.511 0.299,0.024 0.559,-0.108 0.645,-0.159 0.057,0.03 0.187,0.112 0.187,0.243 0,0.183 -0.219,0.458 -0.834,0.631 -0.253,0.072 -0.486,0.102 -0.66,0.114 0.085,-0.07 0.149,-0.171 0.145,-0.316 -0.005,-0.232 -0.158,-0.482 -0.48,-0.482 -0.225,0 -0.398,0.21 -0.481,0.336 -0.114,-0.178 -0.412,-0.521 -0.945,-0.3 -0.462,0.193 -0.376,0.723 -0.376,0.727 l 0.035,0.203 0.08,-0.189 c 0.024,-0.057 0.115,-0.223 0.213,-0.243 0.041,-0.008 0.082,0.009 0.126,0.054 0.046,0.045 0.067,0.096 0.061,0.152 -0.01,0.107 -0.113,0.232 -0.287,0.352 -0.29,0.196 -0.766,0.279 -0.863,0.294 -0.041,-0.02 -0.156,-0.08 -0.296,-0.168 -0.148,-0.096 -0.274,-0.216 -0.305,-0.247 -0.018,-0.04 -0.094,-0.214 -0.232,-0.623 -0.152,-0.452 -0.297,-0.879 0.012,-1.371 0.186,-0.296 0.491,-0.315 0.76,-0.334 0.113,-0.007 0.221,-0.013 0.31,-0.041 0.327,-0.098 0.348,-0.391 0.348,-0.404 l 0.004,-0.07 -0.07,0.007 c -0.176,0.019 -0.665,0.06 -0.823,0.017 -0.169,-0.049 -0.246,-0.158 -0.246,-0.184 0.027,-0.072 0.197,-0.108 0.356,-0.134 0.149,-0.027 0.28,-0.036 0.395,-0.045 0.202,-0.016 0.376,-0.029 0.552,-0.117 0.296,-0.15 0.254,-0.508 0.252,-0.524 l -0.011,-0.086 -0.077,0.041 c 0,0 -0.12,0.058 -0.534,0.085 -0.288,0.017 -0.418,-0.043 -0.519,-0.089 -0.057,-0.025 -0.106,-0.047 -0.163,-0.047 -0.077,0 -0.13,0.036 -0.181,0.07 -0.055,0.036 -0.117,0.077 -0.231,0.096 -0.333,0.053 -0.388,-0.066 -0.406,-0.105 -0.036,-0.075 -0.095,-0.128 -0.172,-0.153 -0.032,-0.01 -0.066,-0.015 -0.102,-0.015"/></g><g id="g36"><path id="path10" style="fill:#da141d;fill-opacity:1;fill-rule:nonzero;stroke:none" d="m 6.417,13.5 c 0,0 0.266,0.07 0.541,0.232 0.275,0.164 0.396,0.315 0.396,0.315 0,0 -0.017,-0.114 -0.015,-0.224 0.002,-0.109 0.059,-0.388 0.199,-0.388 0.139,0 0.292,0.234 0.292,0.305 0,0.187 -0.351,0.445 -0.706,0.445 C 6.966,14.185 6.811,14.072 6.68,13.88 6.546,13.683 6.417,13.5 6.417,13.5 m -0.926,2.455 c 0,0 -0.091,-0.067 -0.144,-0.453 -0.036,-0.26 -0.145,-0.499 -0.145,-0.499 0,0 0.076,-0.139 0.121,-0.239 0.046,-0.1 0.071,-0.139 0.094,-0.139 0.023,0 0.359,0.109 0.359,0.109 0,0 0.071,-0.292 0.172,-0.382 0.131,-0.117 0.336,-0.128 0.336,-0.128 0,0 -0.054,-0.128 -0.158,-0.276 -0.103,-0.146 -0.25,-0.263 -0.303,-0.445 -0.052,-0.181 0.002,-0.287 0.139,-0.276 0.202,0.015 0.426,0.254 0.426,0.254 0,0 -0.029,0.378 0.074,0.639 0.103,0.261 0.318,0.484 0.56,0.484 0.242,0 0.717,-0.094 0.961,-0.279 0.193,-0.146 0.214,-0.256 0.296,-0.591 0.048,-0.196 0.076,-0.349 0.076,-0.512 0,-0.132 -0.038,-0.324 -0.038,-0.324 0,0 -0.041,0.092 -0.076,0.165 -0.036,0.072 -0.066,0.127 -0.25,0.041 -0.185,-0.088 -0.308,-0.2 -0.461,-0.26 -0.154,-0.061 -0.508,-0.146 -0.68,-0.022 -0.189,0.136 -0.225,0.326 -0.225,0.326 0,0 -0.321,-0.111 -0.319,-0.361 0.004,-0.326 0.452,-0.781 1.065,-0.781 0.685,0 1.085,0.535 1.085,0.535 0,0 0.317,0.503 0.317,1.064 0,0.563 -0.473,0.98 -1.132,1.171 -0.667,0.195 -1.132,0.324 -1.579,0.648 -0.245,0.177 -0.351,0.301 -0.43,0.388 -0.065,0.072 -0.141,0.143 -0.141,0.143 m 1.465,1.123 C 6.875,17.011 6.778,16.899 6.764,16.717 c -0.011,-0.142 0.071,-0.279 0.215,-0.35 0.152,-0.076 0.384,-0.09 0.624,0.018 0.458,0.204 0.433,0.423 0.325,0.57 -0.108,0.147 -0.233,0.071 -0.233,0.071 0,0 -0.022,-0.091 -0.045,-0.231 -0.024,-0.139 -0.042,-0.251 -0.198,-0.298 -0.157,-0.047 -0.305,0 -0.305,0.211 0,0.211 0.124,0.459 0.124,0.459 0,0 -0.165,0.034 -0.315,-0.089 M 5.315,20.7 c 0,0 0.007,-0.132 0.054,-0.242 0.148,-0.352 0.509,-0.038 0.509,-0.038 l 0.666,-0.154 c 0,0 -0.054,-0.138 -0.014,-0.232 0.051,-0.121 0.195,-0.119 0.314,-0.07 0.24,0.1 0.275,0.419 0.275,0.419 0,0 0.386,-0.291 0.132,-0.6 C 7.099,19.596 6.8,19.506 6.8,19.506 c 0,0 0.117,-0.084 0.272,-0.337 0.095,-0.155 0.187,-0.303 0.187,-0.303 0,0 -0.096,-0.002 -0.256,0.009 -0.159,0.011 -0.259,0.031 -0.259,0.031 0,0 0.028,-0.237 -0.091,-0.415 -0.119,-0.179 -0.292,-0.324 -0.292,-0.324 0,0 0.113,0.484 -0.012,0.891 -0.14,0.451 -0.535,0.384 -0.535,0.384 0,0 -0.519,-0.653 -0.522,-1.364 -10e-4,-0.373 0.174,-0.695 0.341,-0.68 0.241,0.022 0.195,0.664 0.195,0.664 0,0 0.416,-0.317 0.416,-0.638 0,-0.096 -0.064,-0.255 -0.169,-0.333 -0.105,-0.078 -0.186,-0.155 -0.186,-0.155 0,0 -0.027,-0.061 0.097,-0.157 0.101,-0.077 0.219,-0.129 0.219,-0.227 0,-0.124 -0.197,-0.185 -0.197,-0.185 0,0 0.445,-0.885 1.563,-0.885 0.788,0 1.409,0.602 1.409,1.098 0,0.459 -0.636,0.559 -0.636,0.559 0,0 0.073,-0.137 0.073,-0.348 0,-0.611 -0.766,-0.945 -1.297,-0.945 -0.531,0 -0.829,0.308 -0.829,0.766 0,0.427 0.315,0.81 0.661,0.953 0.345,0.144 0.645,0.077 0.645,0.077 0,0 -0.266,0.319 -0.227,0.724 0.03,0.308 0.307,0.578 0.55,0.765 0.244,0.188 0.258,0.247 0.258,0.283 0,0.036 -0.052,0.08 -0.164,0.134 C 7.901,19.603 7.8,19.63 7.8,19.63 c 0,0 0.054,0.3 0.395,0.3 0.322,0 0.624,-0.275 0.624,-0.536 0,-0.261 -0.161,-0.652 -0.318,-0.942 -0.156,-0.291 -0.307,-0.463 -0.151,-0.701 0.156,-0.237 0.577,-0.46 0.577,-0.46 0,0 0.034,0.045 0.026,0.125 -0.008,0.079 -0.131,0.181 -0.319,0.279 -0.187,0.099 -0.34,0.199 -0.34,0.199 0,0 0.122,0.017 0.348,0.014 0.227,-0.003 0.332,-0.044 0.332,-0.044 0,0 0.071,0.209 0.049,0.411 -0.022,0.202 -0.129,0.408 -0.129,0.408 0,0 0.352,-0.167 0.476,-0.322 0.153,-0.191 0.141,-0.538 0.141,-0.538 0,0 0.083,-0.004 0.198,-0.045 0.116,-0.041 0.165,-0.097 0.165,-0.097 l 0.095,-0.41 c 0,0 -0.083,0.008 -0.189,0.005 -0.107,-0.003 -0.194,-0.015 -0.194,-0.015 0,0 0.127,-0.406 -0.059,-0.992 C 9.312,15.586 8.62,15.156 8.62,15.156 c 0,0 0.355,-0.417 0.758,-0.592 0.15,-0.065 0.341,-0.114 0.5,-0.1 0.182,0.015 0.323,0.104 0.311,0.2 -0.034,0.279 -0.837,0.237 -0.837,0.237 0,0 0.093,0.079 0.234,0.17 0.128,0.083 0.303,0.14 0.503,0.14 0.37,0 0.753,-0.297 0.753,-0.649 0,-0.351 -0.355,-0.52 -0.355,-0.52 0,0 0.311,-0.297 0.311,-0.688 0,-0.442 -0.422,-0.692 -0.679,-0.684 -0.233,0.008 -0.347,0.176 -0.347,0.371 0,0.195 0.072,0.395 0.072,0.395 0,0 0.088,-0.203 0.194,-0.282 0.142,-0.105 0.304,-0.087 0.277,0.049 -0.026,0.136 -0.151,0.239 -0.54,0.489 -0.389,0.25 -0.663,0.405 -0.663,0.405 0,0 0.286,-0.363 0.141,-1.071 -0.093,-0.453 -0.259,-0.747 -0.262,-1.162 -0.004,-0.655 0.608,-1.35 1.135,-1.317 0.321,0.02 0.539,0.155 0.539,0.249 0,0.095 -0.144,0.171 -0.244,0.171 -0.099,0 -0.176,-0.047 -0.176,-0.047 l -0.082,0.082 c 0,0 0.197,0.269 0.447,0.27 0.282,0.002 0.547,-0.307 0.547,-0.307 0,0 0.136,-0.033 0.197,0.046 0.061,0.078 0.117,0.135 0.117,0.135 l 0.66,-0.089 c 0,0 -0.056,-0.096 -0.115,-0.214 -0.057,-0.112 -0.115,-0.242 -0.192,-0.363 -0.159,-0.247 -0.383,-0.29 -0.383,-0.29 0,0 0.208,-0.384 0.781,-0.2 0.366,0.118 0.653,0.387 0.653,0.387 l 0.492,-0.122 c 0,0 -0.204,-0.329 -0.63,-0.555 -0.389,-0.206 -0.892,-0.165 -1.249,-0.064 -0.357,0.099 -0.759,0.266 -0.759,0.266 0,0 -0.02,-0.109 -0.009,-0.208 0.015,-0.157 0.084,-0.315 0.084,-0.315 0,0 -0.041,0.029 -0.304,0.142 -0.263,0.115 -0.316,0.318 -0.316,0.318 0,0 -0.299,-0.06 -0.562,-0.136 C 9.388,9.636 9.202,9.669 9.071,9.726 8.847,9.821 8.645,10.113 8.645,10.113 l 0.083,0.085 c 0,0 0.145,-0.106 0.305,-0.058 0.182,0.052 0.208,0.189 0.208,0.189 0,0 -0.287,0.245 -0.488,0.599 -0.23,0.403 -0.262,0.867 -0.262,0.867 0,0 -0.52,-0.309 -1.173,-0.354 C 6.933,11.415 6.461,11.422 6.404,11.422 6.347,11.422 6.267,11.4 6.118,11.274 5.969,11.149 5.882,10.957 5.882,10.856 c 0,-0.099 0.128,-0.169 0.187,-0.169 0.088,0 0.143,0.132 0.211,0.254 0.069,0.121 0.151,0.257 0.151,0.257 0,0 0.265,-0.165 0.245,-0.51 -0.015,-0.283 -0.147,-0.359 -0.362,-0.41 -0.216,-0.05 -0.475,-0.035 -0.475,-0.035 0,0 -0.347,-0.412 -1.053,-0.49 -0.531,-0.059 -0.639,0.07 -0.639,0.07 0,0 0.347,0.124 0.604,0.319 0.257,0.193 0.261,0.529 0.386,0.823 0.126,0.294 0.44,0.533 0.44,0.533 0,0 -0.033,0.224 -0.025,0.332 0.011,0.17 0.069,0.3 0.069,0.3 0,0 0.098,-0.096 0.176,-0.194 0.061,-0.078 0.138,-0.176 0.169,-0.185 0.137,-0.038 0.293,0.107 0.293,0.107 0,0 0.02,0.157 -0.241,0.316 -0.192,0.116 -0.53,0.229 -0.53,0.229 0,0 -0.144,-0.103 -0.253,-0.27 C 5.126,11.965 5.08,11.826 5.08,11.826 c 0,0 -0.247,0.142 -0.247,0.351 0,0.314 0.332,0.585 0.332,0.797 0,0.038 -0.041,0.099 -0.188,0.194 -0.147,0.094 -0.189,0.152 -0.189,0.152 0,0 -0.15,0.277 0.021,0.81 0.153,0.477 0.306,0.75 0.306,0.75 0,0 -0.031,0.168 -0.089,0.308 -0.076,0.185 -0.244,0.426 -0.382,0.739 -0.138,0.311 -0.059,0.658 -0.059,0.658 0,0 0.192,-0.259 0.306,-0.241 0.259,0.042 0.197,0.368 0.197,0.368 0,0 -0.22,0.342 -0.297,0.646 -0.091,0.363 -0.076,0.704 0.153,1.242 0.229,0.538 0.312,0.826 0.312,0.826 0,0 -0.426,-0.373 -0.753,-0.373 -0.185,0 -0.274,0.117 -0.274,0.117 0,0 0.339,0.16 0.565,0.545 0.265,0.45 0.415,1.076 0.415,1.076 z"/></g></g></g></g></svg>