<svg xmlns:dc="http://purl.org/dc/elements/1.1/" xmlns:cc="http://creativecommons.org/ns#" xmlns:rdf="http://www.w3.org/1999/02/22-rdf-syntax-ns#" xmlns:svg="http://www.w3.org/2000/svg" xmlns="http://www.w3.org/2000/svg" viewBox="0 0 45 45" style="enable-background:new 0 0 45 45;" xml:space="preserve" version="1.1" id="svg2"><metadata id="metadata8"><rdf:RDF><cc:Work rdf:about=""><dc:format>image/svg+xml</dc:format><dc:type rdf:resource="http://purl.org/dc/dcmitype/StillImage"/></cc:Work></rdf:RDF></metadata><defs id="defs6"><clipPath id="clipPath16" clipPathUnits="userSpaceOnUse"><path id="path18" d="M 0,36 36,36 36,0 0,0 0,36 Z"/></clipPath></defs><g transform="matrix(1.25,0,0,-1.25,0,45)" id="g10"><g id="g12"><g xmlns="http://www.w3.org/2000/svg" clip-path="url(#clipPath16)" id="g14"><g id="g20"><path id="path22" style="fill:#0066ff;fill-opacity:1;fill-rule:nonzero;stroke:none" d="M 0,9 C 0,6.791 1.791,5 4,5 l 28,0 c 2.209,0 4,1.791 4,4 l 0,18 c 0,2.209 -1.791,4 -4,4 L 4,31 C 1.791,31 0,29.209 0,27 L 0,9 z"/></g><g id="g24"><path id="path26" style="fill:#f7d50f;fill-opacity:1;fill-rule:nonzero;stroke:none" d="m 10.7725,17.6323 c -0.199,0.121 -0.366,0.29 -0.484,0.492 l -3.807,0.034 c 0,0 -0.007,-0.176 -0.334,-0.581 -0.437,-0.54 -0.857,-0.2 -0.857,0.17 0,0.37 0.239,0.343 0.239,0.506 0,0.088 -0.076,0.137 -0.137,0.137 -0.087,0 -0.102,-0.061 -0.102,-0.061 0,0 -0.198,-0.073 -0.373,0.055 -0.125,0.092 -0.219,0.227 -0.219,0.447 0,0.22 0.094,0.355 0.219,0.447 0.175,0.129 0.373,0.055 0.373,0.055 0,0 0.015,-0.061 0.102,-0.061 0.061,0 0.137,0.049 0.137,0.137 0,0.163 -0.239,0.136 -0.239,0.506 0,0.371 0.42,0.71 0.857,0.17 0.327,-0.405 0.334,-0.58 0.334,-0.58 l 3.807,0.034 c 0.122,0.208 0.296,0.382 0.504,0.504 l 0.063,4.757 c 0,0 -0.168,0.007 -0.557,0.35 -0.517,0.458 -0.192,0.898 0.163,0.898 0.355,0 0.329,-0.251 0.484,-0.251 0.085,0 0.132,0.08 0.132,0.144 0,0.09 -0.058,0.107 -0.058,0.107 0,0 -0.071,0.208 0.052,0.391 0.089,0.131 0.218,0.229 0.429,0.229 0.21,0 0.339,-0.098 0.428,-0.229 0.123,-0.183 0.052,-0.391 0.052,-0.391 0,0 -0.058,-0.017 -0.058,-0.107 0,-0.064 0.047,-0.144 0.132,-0.144 0.155,0 0.129,0.251 0.484,0.251 0.355,0 0.68,-0.44 0.163,-0.898 -0.388,-0.343 -0.556,-0.35 -0.556,-0.35 l 0.062,-4.757 c 0.209,-0.122 0.382,-0.296 0.504,-0.504 l 3.807,-0.034 c 0,0 0.007,0.175 0.335,0.58 0.436,0.54 0.856,0.201 0.856,-0.17 0,-0.37 -0.239,-0.343 -0.239,-0.506 0,-0.088 0.076,-0.137 0.137,-0.137 0.087,0 0.102,0.061 0.102,0.061 0,0 0.198,0.074 0.373,-0.055 0.126,-0.092 0.219,-0.227 0.219,-0.447 0,-0.22 -0.093,-0.355 -0.219,-0.447 -0.175,-0.128 -0.373,-0.055 -0.373,-0.055 0,0 -0.015,0.061 -0.102,0.061 -0.061,0 -0.137,-0.049 -0.137,-0.137 0,-0.163 0.239,-0.136 0.239,-0.506 0,-0.37 -0.42,-0.71 -0.856,-0.17 -0.328,0.405 -0.335,0.581 -0.335,0.581 l -3.807,-0.034 c -0.118,-0.202 -0.285,-0.371 -0.483,-0.492 l 0.075,-6.882 c 0,0 0.098,-0.065 0.329,-0.297 0.23,-0.233 0.341,-0.38 0.341,-0.38 0,0 0.11,-0.396 -0.197,-0.617 -0.447,-0.324 -0.768,0.082 -0.768,0.082 0,0 -0.194,-0.2 -0.508,-0.2 -0.315,0 -0.509,0.2 -0.509,0.2 0,0 -0.321,-0.406 -0.768,-0.082 -0.307,0.221 -0.197,0.617 -0.197,0.617 0,0 0.111,0.147 0.341,0.38 0.231,0.232 0.329,0.297 0.329,0.297 l 0.076,6.882 z"/></g><g id="g28"><path id="path30" style="fill:#f7d50f;fill-opacity:1;fill-rule:nonzero;stroke:none" d="m 14.9829,18.144 0,-0.744 0.147,0 c 0,0 -0.125,-0.075 -0.125,-0.285 0,-0.209 0.05,-0.682 0.375,-0.682 0.312,0 0.323,0.416 0.323,0.499 0,0.415 -0.35,0.582 -0.35,0.582 l 0.561,0 c 0,0 -0.045,-0.04 -0.045,-0.111 0,-0.07 0.078,-0.193 0.078,-0.551 0,-0.631 -0.332,-0.776 -0.576,-0.776 -0.382,0 -0.514,0.348 -0.514,0.348 0,0 -0.133,-0.348 -0.515,-0.348 -0.244,0 -0.576,0.145 -0.576,0.776 0,0.358 0.078,0.481 0.078,0.551 0,0.071 -0.046,0.111 -0.046,0.111 l 0.561,0 c 0,0 -0.35,-0.167 -0.35,-0.582 0,-0.083 0.012,-0.499 0.324,-0.499 0.325,0 0.375,0.473 0.375,0.682 0,0.21 -0.125,0.285 -0.125,0.285 l 0.147,0 0,0.744 0.253,0 z"/></g><g id="g32"><path id="path34" style="fill:#f7d50f;fill-opacity:1;fill-rule:nonzero;stroke:none" d="m 8.5752,16.3926 0.123,-0.221 -0.103,-0.248 0.636,0 -0.194,0.225 -0.648,1.158 0.094,0.203 -0.213,0 0,0.634 -0.253,0 0,-0.634 -0.213,0 0.094,-0.203 -0.648,-1.158 -0.194,-0.225 0.636,0 -0.103,0.248 0.123,0.221 0.431,-0.391 0.432,0.391 z m -0.432,0.045 -0.271,0.244 0.271,0.495 0.272,-0.495 -0.272,-0.244 z"/></g></g></g></g></svg>