<svg xmlns:dc="http://purl.org/dc/elements/1.1/" xmlns:cc="http://creativecommons.org/ns#" xmlns:rdf="http://www.w3.org/1999/02/22-rdf-syntax-ns#" xmlns:svg="http://www.w3.org/2000/svg" xmlns="http://www.w3.org/2000/svg" viewBox="0 0 45 45" style="enable-background:new 0 0 45 45;" xml:space="preserve" version="1.1" id="svg2"><metadata id="metadata8"><rdf:RDF><cc:Work rdf:about=""><dc:format>image/svg+xml</dc:format><dc:type rdf:resource="http://purl.org/dc/dcmitype/StillImage"/></cc:Work></rdf:RDF></metadata><defs id="defs6"><clipPath id="clipPath16" clipPathUnits="userSpaceOnUse"><path id="path18" d="M 0,36 36,36 36,0 0,0 0,36 Z"/></clipPath></defs><g transform="matrix(1.25,0,0,-1.25,0,45)" id="g10"><g id="g12"><g clip-path="url(#clipPath16)" id="g14"><g id="g20"><path id="path22" style="fill:#0070c0;fill-opacity:1;fill-rule:nonzero;stroke:none" d="M 0,18 V 9 C 0,6.79 1.79,5 4,5 h 28 c 2.21,0 4,1.79 4,4 v 9 z"/></g><g id="g24"><path id="path26" style="fill:#00b050;fill-opacity:1;fill-rule:nonzero;stroke:none" d="m 0,18 v 9 c 0,2.21 1.79,4 4,4 h 28 c 2.21,0 4,-1.79 4,-4 v -9 z"/></g><g id="g28"><path id="path30" style="fill:#eeeeee;fill-opacity:1;fill-rule:nonzero;stroke:none" d="m 3.4727,29.269 0.425,-1.368 1.432,0.018 -1.17,-0.826 0.461,-1.357 -1.148,0.857 -1.148,-0.857 0.461,1.357 -1.17,0.826 1.432,-0.018 z"/></g><g id="g32"><path id="path34" style="fill:#eeeeee;fill-opacity:1;fill-rule:nonzero;stroke:none" d="m 9.7642,30.3315 0.425,-1.368 1.432,0.018 -1.17,-0.826 0.461,-1.357 -1.148,0.857 -1.148,-0.857 0.461,1.357 -1.17,0.826 1.432,-0.018 z"/></g><g id="g36"><path id="path38" style="fill:#eeeeee;fill-opacity:1;fill-rule:nonzero;stroke:none" d="m 4.3501,23.6416 0.425,-1.368 1.432,0.018 -1.169,-0.826 0.46,-1.357 -1.148,0.857 -1.148,-0.857 0.461,1.357 -1.17,0.826 1.432,-0.018 z"/></g><g id="g40"><path id="path42" style="fill:#eeeeee;fill-opacity:1;fill-rule:nonzero;stroke:none" d="m 13.8711,23.6416 0.425,-1.368 1.432,0.018 -1.17,-0.826 0.461,-1.357 -1.148,0.857 -1.148,-0.857 0.461,1.357 -1.17,0.826 1.432,-0.018 z"/></g></g></g></g></svg>