<svg xmlns:dc="http://purl.org/dc/elements/1.1/" xmlns:cc="http://creativecommons.org/ns#" xmlns:rdf="http://www.w3.org/1999/02/22-rdf-syntax-ns#" xmlns:svg="http://www.w3.org/2000/svg" xmlns="http://www.w3.org/2000/svg" viewBox="0 0 45 45" style="enable-background:new 0 0 45 45;" xml:space="preserve" version="1.1" id="svg2"><metadata id="metadata8"><rdf:RDF><cc:Work rdf:about=""><dc:format>image/svg+xml</dc:format><dc:type rdf:resource="http://purl.org/dc/dcmitype/StillImage"/></cc:Work></rdf:RDF></metadata><defs id="defs6"><clipPath id="clipPath16" clipPathUnits="userSpaceOnUse"><path id="path18" d="M 0,36 36,36 36,0 0,0 0,36 Z"/></clipPath></defs><g transform="matrix(1.25,0,0,-1.25,0,45)" id="g10"><g id="g12"><g xmlns="http://www.w3.org/2000/svg" clip-path="url(#clipPath16)" id="g14"><g id="g20"><path id="path22" style="fill:#da121a;fill-opacity:1;fill-rule:nonzero;stroke:none" d="M 32,31 4,31 C 1.791,31 0,29.209 0,27 L 0,9 C 0,6.791 1.791,5 4,5 l 28,0 c 2.209,0 4,1.791 4,4 l 0,18 c 0,2.209 -1.791,4 -4,4"/></g><g id="g24"><path id="path26" style="fill:#eeeeee;fill-opacity:1;fill-rule:nonzero;stroke:none" d="m 17.8691,27.9883 0,-0.338 -0.408,0 0,-0.265 0.408,0 0,-0.619 c 0,0 -0.226,-0.038 -0.334,-0.195 -0.171,-0.247 -0.14,-0.485 -0.14,-0.485 0,0 -0.242,-0.08 -0.541,-0.442 -0.298,-0.361 -0.287,-0.813 -0.287,-0.813 l -0.218,0 0,-0.634 0.195,-0.054 0,-5.195 -0.659,0 0.003,5.194 0.187,0.078 0,1.424 -3.355,0 0,-1.424 0.216,-0.078 0,-5.194 -0.676,0 c 0,0 0.204,-3.712 -0.246,-5.935 -0.452,-2.221 -0.987,-3.171 -0.987,-3.171 l 0,-0.949 13.946,0 0,0.949 c 0,0 -0.536,0.95 -0.987,3.171 -0.451,2.223 -0.247,5.935 -0.247,5.935 l -0.676,0 0,5.194 0.216,0.078 0,1.424 -3.354,0 0,-1.424 0.187,-0.078 0.003,-5.194 -0.659,0 0,5.195 0.195,0.054 0,0.634 -0.219,0 c 0,0 0.011,0.452 -0.287,0.813 -0.298,0.362 -0.541,0.442 -0.541,0.442 0,0 0.032,0.238 -0.139,0.485 -0.109,0.157 -0.334,0.195 -0.334,0.195 l 0,0.619 0.407,0 0,0.265 -0.407,0 0,0.338 -0.262,0 z"/></g><g id="g28"><path id="path40" style="fill:#eeeeee;fill-opacity:1;fill-rule:nonzero;stroke:none" d="m 14.4224,27.8857 -0.268,-0.463 -0.535,0 0.267,-0.464 -0.267,-0.463 0.535,0 0.268,-0.464 0.268,0.464 0.535,0 -0.267,0.463 0.267,0.464 -0.535,0 -0.268,0.463 z"/></g><g id="g42"><path id="path44" style="fill:#eeeeee;fill-opacity:1;fill-rule:nonzero;stroke:none" d="m 21.5781,27.8857 0.268,-0.463 0.535,0 -0.268,-0.464 0.268,-0.463 -0.535,0 -0.268,-0.464 -0.269,0.464 -0.535,0 0.268,0.463 -0.268,0.464 0.535,0 0.269,0.463 z"/></g></g></g></g></svg>