<svg xmlns:dc="http://purl.org/dc/elements/1.1/" xmlns:cc="http://creativecommons.org/ns#" xmlns:rdf="http://www.w3.org/1999/02/22-rdf-syntax-ns#" xmlns:svg="http://www.w3.org/2000/svg" xmlns="http://www.w3.org/2000/svg" viewBox="0 0 45 45" style="enable-background:new 0 0 45 45;" xml:space="preserve" version="1.1" id="svg2"><metadata id="metadata8"><rdf:RDF><cc:Work rdf:about=""><dc:format>image/svg+xml</dc:format><dc:type rdf:resource="http://purl.org/dc/dcmitype/StillImage"/></cc:Work></rdf:RDF></metadata><defs id="defs6"><clipPath id="clipPath16" clipPathUnits="userSpaceOnUse"><path id="path20" d="M 4,31 C 1.791,31 0,29.209 0,27 L 0,27 0,9 C 0,6.791 1.791,5 4,5 l 0,0 28,0 c 2.209,0 4,1.791 4,4 l 0,0 0,18 c 0,2.209 -1.791,4 -4,4 l 0,0 -28,0 z"/></clipPath></defs><g transform="matrix(1.25,0,0,-1.25,0,45)" id="g10"><g id="g12"><g xmlns="http://www.w3.org/2000/svg" clip-path="url(#clipPath16)" id="g14"><path id="path30" style="fill:#007bc4" d="M 0,17.998342 H 35.99984 V 4.9984 H 0 Z"/><path id="path32" style="fill:#eeeeee" d="M 0,18.001542 H 35.99984 V 31.001484 H 0 Z"/><path d="M 3.5601442,5.0016 36,26.901503 v 4.099981 H 32.449616 L 1.60042e-4,9.1015818 V 5.0016 Z" style="fill:#b52921" id="path4009"/><g id="g20"><path id="path40" style="fill:#df2118" d="m 20.899907,13.178124 c 0.227199,0 0.411998,0.183999 0.411998,0.411998 0,0.227199 -0.184799,0.411198 -0.411998,0.411198 -0.227199,0 -0.411998,-0.183999 -0.411998,-0.411198 0,-0.227999 0.184799,-0.411998 0.411998,-0.411998 m -1.419194,1.171995 c 0.227199,0 0.411198,0.183999 0.411198,0.411998 0,0.227999 -0.183999,0.411998 -0.411198,0.411998 -0.227999,0 -0.411998,-0.183999 -0.411998,-0.411998 0,-0.227999 0.183999,-0.411998 0.411998,-0.411998 m 3.304786,1.191994 c 0.228799,0 0.411998,0.1848 0.411998,0.412799 0,0.227199 -0.183199,0.411198 -0.411998,0.411198 -0.227199,0 -0.411199,-0.183999 -0.411199,-0.411198 0,-0.227999 0.184,-0.412799 0.411199,-0.412799 m -1.666393,0.784797 c 0.227999,0 0.411998,0.183999 0.411998,0.411198 0,0.227999 -0.183999,0.411998 -0.411998,0.411998 -0.227199,0 -0.411198,-0.183999 -0.411198,-0.411998 0,-0.227199 0.183999,-0.411198 0.411198,-0.411198 m 0.730397,2.29839 c 0.227199,0 0.411198,0.183999 0.411198,0.411198 0,0.227199 -0.183999,0.411998 -0.411198,0.411998 -0.227999,0 -0.411998,-0.184799 -0.411998,-0.411998 0,-0.227199 0.183999,-0.411198 0.411998,-0.411198 m 1.834392,0.127199 c 0.227999,0 0.411998,0.183999 0.411998,0.411998 0,0.227199 -0.183999,0.411999 -0.411998,0.411999 -0.227199,0 -0.411199,-0.1848 -0.411199,-0.411999 0,-0.227999 0.184,-0.411998 0.411199,-0.411998 m -0.881596,3.191986 c 0.227199,0 0.411998,0.183999 0.411998,0.411998 0,0.227199 -0.184799,0.411998 -0.411998,0.411998 -0.227999,0 -0.412799,-0.184799 -0.412799,-0.411998 0,-0.227999 0.1848,-0.411998 0.412799,-0.411998 m -1.560794,-0.967996 c 0.227199,0 0.411199,0.183999 0.411199,0.411198 0,0.227199 -0.184,0.411999 -0.411199,0.411999 -0.227199,0 -0.411998,-0.1848 -0.411998,-0.411999 0,-0.227199 0.184799,-0.411198 0.411998,-0.411198 m -2.007991,2.497589 c 0.227199,0 0.411999,0.184799 0.411999,0.411998 0,0.227199 -0.1848,0.411199 -0.411999,0.411199 -0.227199,0 -0.411998,-0.184 -0.411998,-0.411199 0,-0.227199 0.184799,-0.411998 0.411998,-0.411998 m -3.721583,-9.883956 c 0,0.227199 -0.184799,0.411198 -0.411998,0.411198 -0.227199,0 -0.411998,-0.183999 -0.411998,-0.411198 0,-0.227999 0.184799,-0.411998 0.411998,-0.411998 0.227199,0 0.411998,0.183999 0.411998,0.411998 m 1.419194,1.171995 c 0,0.227999 -0.184,0.411998 -0.411999,0.411998 -0.227198,0 -0.411198,-0.183999 -0.411198,-0.411998 0,-0.227999 0.184,-0.411998 0.411198,-0.411998 0.227999,0 0.411999,0.183999 0.411999,0.411998 m -3.305586,1.192795 c 0,0.227199 -0.184799,0.411198 -0.411998,0.411198 -0.227199,0 -0.411998,-0.183999 -0.411998,-0.411198 0,-0.227999 0.184799,-0.412799 0.411998,-0.412799 0.227199,0 0.411998,0.1848 0.411998,0.412799 m 1.666393,0.783196 c 0,0.227999 -0.183999,0.411998 -0.411198,0.411998 -0.227999,0 -0.411998,-0.183999 -0.411998,-0.411998 0,-0.227199 0.183999,-0.411198 0.411998,-0.411198 0.227199,0 0.411198,0.183999 0.411198,0.411198 m -0.728797,2.29839 c 0,0.227199 -0.184799,0.411998 -0.411998,0.411998 -0.227999,0 -0.411998,-0.184799 -0.411998,-0.411998 0,-0.227199 0.183999,-0.411198 0.411998,-0.411198 0.227199,0 0.411998,0.183999 0.411998,0.411198 m -1.835992,0.127999 c 0,0.227199 -0.183999,0.411999 -0.411198,0.411999 -0.227999,0 -0.411998,-0.1848 -0.411998,-0.411999 0,-0.227999 0.183999,-0.411998 0.411998,-0.411998 0.227199,0 0.411198,0.183999 0.411198,0.411998 m 0.882396,3.191986 c 0,0.227199 -0.183999,0.411998 -0.411198,0.411998 -0.227999,0 -0.411998,-0.184799 -0.411998,-0.411998 0,-0.227999 0.183999,-0.411998 0.411998,-0.411998 0.227199,0 0.411198,0.183999 0.411198,0.411998 m 1.560793,-0.968796 c 0,0.227199 -0.183999,0.411999 -0.411198,0.411999 -0.227999,0 -0.411998,-0.1848 -0.411998,-0.411999 0,-0.227199 0.183999,-0.411198 0.411998,-0.411198 0.227199,0 0.411198,0.183999 0.411198,0.411198 m 1.595993,2.086391 c -0.227199,0 -0.411198,0.184799 -0.411198,0.411998 0,0.227199 0.183999,0.411199 0.411198,0.411199 0.227999,0 0.411999,-0.184 0.411999,-0.411199 0,-0.227199 -0.184,-0.411998 -0.411999,-0.411998"/><path id="path42" style="fill:#009442" d="m 20.882707,22.717521 c -0.467198,0.166399 -0.907196,0.217599 -1.313594,0.122399 0,0 0.109599,-0.419998 1.059195,-0.805596 0.842396,-0.341598 1.315194,-0.107999 1.315194,-0.107999 0,0 0.375199,0.371198 0.325599,1.279994 -0.056,1.022395 -0.417598,1.262394 -0.417598,1.262394 -0.242399,-0.215999 -0.361599,-0.658397 -0.388799,-1.153595 -0.296798,0.365599 -0.630397,0.602398 -1.021595,0.642397 -0.0752,-0.360798 0.0664,-0.772796 0.441598,-1.239994 m 1.281594,-2.435989 c -0.331998,0.349598 -0.690397,0.587197 -1.083195,0.683997 0,0 -0.0904,-0.411998 0.560798,-1.163195 0.579997,-0.667197 1.091995,-0.672797 1.091995,-0.672797 0,0 0.487998,0.155999 0.844796,0.964796 0.401598,0.909596 0.194399,1.275994 0.194399,1.275994 -0.305599,-0.0792 -0.603197,-0.410398 -0.843996,-0.826396 -0.0968,0.446398 -0.281599,0.799196 -0.601597,1.004795 -0.223999,-0.279199 -0.283199,-0.697597 -0.1632,-1.267194 m -0.170399,-2.617589 c -0.115999,0.471998 -0.311999,0.859997 -0.608797,1.140795 0,0 -0.285599,-0.315998 -0.088,-1.300794 0.175199,-0.875196 0.622397,-1.135995 0.622397,-1.135995 0,0 0.506398,-0.106399 1.223195,0.424798 0.807196,0.597598 0.807996,1.023996 0.807996,1.023996 -0.307998,0.0824 -0.734396,-0.06 -1.153595,-0.303999 0.1376,0.439998 0.152,0.840796 -0.0264,1.182395 -0.335999,-0.1336 -0.596798,-0.471198 -0.776797,-1.031196 m -1.329594,-2.279189 c 0.04,0.495197 -0.024,0.932795 -0.220799,1.300794 0,0 -0.377598,-0.213599 -0.504798,-1.230395 -0.113599,-0.902396 0.234399,-1.299194 0.234399,-1.299194 0,0 0.455198,-0.266399 1.320794,0.016 0.972796,0.316799 1.111195,0.728797 1.111195,0.728797 -0.270398,0.179199 -0.728796,0.179999 -1.213594,0.0784 0.275199,0.380799 0.419198,0.764797 0.356798,1.151995 -0.367998,-0.02 -0.728797,-0.262399 -1.083995,-0.746396 m -1.746392,-1.927192 c 0.107199,0.463998 0.107199,0.890396 -0.0288,1.267195 0,0 -0.389598,-0.1504 -0.651997,-1.099996 -0.233599,-0.842396 0.0424,-1.268794 0.0424,-1.268794 0,0 0.395998,-0.316798 1.258394,-0.168799 0.970396,0.166399 1.159995,0.538397 1.159995,0.538397 -0.232799,0.208 -0.668797,0.272799 -1.144795,0.243999 0.315199,0.323999 0.505598,0.669597 0.499998,1.047196 -0.353599,0.0312 -0.730397,-0.1488 -1.135195,-0.559198 m -2.656788,-1.906391 c 0,0 -0.1264,-0.1032 -0.214399,-0.251999 -0.0872,-0.148 -0.0936,-0.267999 -0.0936,-0.267999 0,0 0.495998,0.0664 1.102395,0.396798 0.607997,0.330399 0.797596,0.691197 0.797596,0.691197 0,0 -0.470397,-0.295999 -0.893596,-0.431198 -0.434398,-0.138399 -0.698396,-0.136799 -0.698396,-0.136799 M 15.55873,23.957516 c -0.390399,-0.04 -0.724797,-0.276798 -1.021596,-0.642397 -0.0272,0.495198 -0.146399,0.937596 -0.388798,1.153595 0,0 -0.361598,-0.239999 -0.417598,-1.262394 -0.0496,-0.908796 0.325598,-1.279994 0.325598,-1.279994 0,0 0.472798,-0.233599 1.315995,0.107999 0.948795,0.385598 1.057595,0.805596 1.057595,0.805596 -0.405598,0.0952 -0.845596,0.044 -1.312794,-0.122399 0.375198,0.467198 0.515997,0.879196 0.441598,1.239994 M 13.672338,21.548727 C 13.35234,21.343128 13.16754,20.99033 13.070741,20.543932 c -0.240799,0.415998 -0.538398,0.747196 -0.843996,0.826396 0,0 -0.208,-0.366398 0.193599,-1.275994 0.357598,-0.808797 0.845596,-0.964796 0.845596,-0.964796 0,0 0.511998,0.0056 1.091195,0.672797 0.651997,0.751197 0.561598,1.163195 0.561598,1.163195 -0.392799,-0.0968 -0.751997,-0.334399 -1.082396,-0.683997 0.1192,0.569597 0.06,0.987995 -0.163999,1.267194 M 13.22914,18.69514 c -0.178399,-0.341599 -0.163999,-0.742397 -0.0256,-1.182395 -0.420798,0.243999 -0.847196,0.386398 -1.154395,0.303999 0,0 8e-4,-0.426398 0.807997,-1.023996 0.716797,-0.531197 1.223994,-0.424798 1.223994,-0.424798 0,0 0.446398,0.260799 0.621598,1.135995 0.196799,0.984796 -0.088,1.300794 -0.088,1.300794 -0.297599,-0.280798 -0.492798,-0.668797 -0.608797,-1.140795 -0.18,0.559998 -0.440798,0.897596 -0.776797,1.031196 m 1.022396,-2.563989 c -0.0624,-0.387198 0.0808,-0.771196 0.356798,-1.151995 -0.484798,0.1016 -0.943196,0.1008 -1.214395,-0.0784 0,0 0.1384,-0.411998 1.111995,-0.728797 0.865597,-0.282399 1.320794,-0.016 1.320794,-0.016 0,0 0.347999,0.396798 0.234399,1.299194 -0.127999,1.016796 -0.505597,1.230395 -0.505597,1.230395 -0.195999,-0.367999 -0.260799,-0.805597 -0.219999,-1.300794 -0.354399,0.483997 -0.716797,0.726396 -1.083995,0.746396 m 1.695192,-2.11439 c -0.0048,-0.377599 0.184799,-0.723197 0.500798,-1.047196 -0.476798,0.0288 -0.912796,-0.036 -1.145595,-0.243999 0,0 0.189599,-0.371998 1.159995,-0.538397 0.862396,-0.147999 1.258394,0.168799 1.258394,0.168799 0,0 0.275999,0.426398 0.0424,1.268794 -0.263199,0.949596 -0.651997,1.099996 -0.651997,1.099996 -0.136,-0.376799 -0.136,-0.803197 -0.028,-1.267195 -0.405598,0.410398 -0.783197,0.590398 -1.135995,0.559198 m 3.791983,-2.465589 c 0,0 0.1272,-0.1032 0.214399,-0.251999 0.0872,-0.148 0.0936,-0.267999 0.0936,-0.267999 0,0 -0.495198,0.0664 -1.103195,0.396798 -0.607198,0.330399 -0.796797,0.691197 -0.796797,0.691197 0,0 0.470398,-0.295999 0.893596,-0.431198 0.433598,-0.138399 0.698397,-0.136799 0.698397,-0.136799"/></g></g></g></g></svg>