<svg xmlns:dc="http://purl.org/dc/elements/1.1/" xmlns:cc="http://creativecommons.org/ns#" xmlns:rdf="http://www.w3.org/1999/02/22-rdf-syntax-ns#" xmlns:svg="http://www.w3.org/2000/svg" xmlns="http://www.w3.org/2000/svg" viewBox="0 0 45 45" style="enable-background:new 0 0 45 45;" xml:space="preserve" version="1.1" id="svg2"><metadata id="metadata8"><rdf:RDF><cc:Work rdf:about=""><dc:format>image/svg+xml</dc:format><dc:type rdf:resource="http://purl.org/dc/dcmitype/StillImage"/></cc:Work></rdf:RDF></metadata><defs id="defs6"><clipPath id="clipPath16" clipPathUnits="userSpaceOnUse"><path id="path18" d="M 0,36 36,36 36,0 0,0 0,36 Z"/></clipPath></defs><g transform="matrix(1.25,0,0,-1.25,0,45)" id="g10"><g id="g12"><g xmlns="http://www.w3.org/2000/svg" clip-path="url(#clipPath16)" id="g14"><path id="path20" style="fill:#2b5df2;fill-opacity:1;fill-rule:nonzero;stroke:none" d="M 32,31 4,31 C 1.791,31 0,29.209 0,27 l 0,-9 36,0 0,9 c 0,2.209 -1.791,4 -4,4"/><path id="path22" style="fill:#eeeeee;fill-opacity:1;fill-rule:nonzero;stroke:none" d="M 0,9 C 0,6.791 1.791,5 4,5 l 28,0 c 2.209,0 4,1.791 4,4 l 0,9 -36,0 0,-9 z"/><g id="g30"><path id="path30" style="fill:#fcef3c;fill-opacity:1;fill-rule:nonzero;stroke:none" d="m 15.3823,23.4497 -1.3,3.874 1.374,0.447 0.585,-1.851 c 0,0 0.211,0.051 0.513,0.108 0.304,0.056 0.632,0.104 0.632,0.104 l -0.091,1.943 1.809,0 -0.091,-1.943 c 0,0 0.329,-0.048 0.632,-0.104 0.303,-0.057 0.514,-0.108 0.514,-0.108 l 0.585,1.851 1.374,-0.447 -1.301,-3.874 -5.235,0 z"/><path id="path32" style="fill:#8da6f0;fill-opacity:1;fill-rule:nonzero;stroke:none" d="m 18,7.9004 c 0,0 0.485,0.394 2.123,0.917 1.706,0.546 3.166,1.754 3.974,3.296 l -12.194,0 c 0.808,-1.542 2.268,-2.75 3.973,-3.296 C 17.515,8.2944 18,7.9004 18,7.9004"/><path id="path34" style="fill:#1a4ce1;fill-opacity:1;fill-rule:nonzero;stroke:none" d="m 18,12.1133 0,11.716 c -1.031,0 -2.57,-0.233 -3.781,-0.814 -1.211,-0.58 -2.813,-1.033 -2.813,-1.033 0,0 0.424,-0.835 0.424,-2.482 0,-1.647 -0.601,-2.765 -0.601,-4.695 0,-0.959 0.246,-1.873 0.674,-2.692 l 6.097,0 z"/><path id="path36" style="fill:#ffffff;fill-opacity:1;fill-rule:nonzero;stroke:none" d="m 24.0967,12.1133 c 0.429,0.819 0.674,1.733 0.674,2.692 0,1.93 -0.6,3.048 -0.6,4.695 0,1.647 0.423,2.482 0.423,2.482 0,0 -1.601,0.453 -2.812,1.033 -1.211,0.581 -2.75,0.814 -3.782,0.814 l 0,-11.716 6.097,0 z"/></g></g></g></g></svg>