<svg xmlns:dc="http://purl.org/dc/elements/1.1/" xmlns:cc="http://creativecommons.org/ns#" xmlns:rdf="http://www.w3.org/1999/02/22-rdf-syntax-ns#" xmlns:svg="http://www.w3.org/2000/svg" xmlns="http://www.w3.org/2000/svg" viewBox="0 0 45 45" style="enable-background:new 0 0 45 45;" xml:space="preserve" version="1.1" id="svg2"><metadata id="metadata8"><rdf:RDF><cc:Work rdf:about=""><dc:format>image/svg+xml</dc:format><dc:type rdf:resource="http://purl.org/dc/dcmitype/StillImage"/></cc:Work></rdf:RDF></metadata><defs id="defs6"><clipPath id="clipPath16" clipPathUnits="userSpaceOnUse"><path id="path18" d="M 4,31 C 1.791,31 0,29.209 0,27 L 0,27 0,9 C 0,6.791 1.791,5 4,5 l 0,0 28,0 c 2.209,0 4,1.791 4,4 l 0,0 0,18 c 0,2.209 -1.791,4 -4,4 l 0,0 -28,0 z"/></clipPath><clipPath id="clipPath28" clipPathUnits="userSpaceOnUse"><path id="path30" d="M 0,36 36,36 36,0 0,0 0,36 Z"/></clipPath></defs><g transform="matrix(1.25,0,0,-1.25,0,45)" id="g10"><g id="g12"><g xmlns="http://www.w3.org/2000/svg" clip-path="url(#clipPath16)" id="g14"><g id="g30"><path id="path20" style="fill:#2b5df2;fill-opacity:1;fill-rule:nonzero;stroke:none" d="m 36,27 c 0,2.209 -1.791,4 -4,4 L 4,31 C 1.791,31 0,29.209 0,27 L 0,9 C 0,6.791 1.791,5 4,5 l 28,0 c 2.209,0 4,1.791 4,4 l 0,18 z"/></g><g id="g34"><path id="path30" style="fill:#fcef3c;fill-opacity:1;fill-rule:nonzero;stroke:none" d="m 6.2979,11.6895 c -0.023,-0.022 -0.035,-0.033 -0.059,-0.056 -0.04,0.034 -0.06,0.05 -0.1,0.084 -0.242,-0.219 -0.362,-0.33 -0.605,-0.55 -0.046,0.05 -0.068,0.076 -0.113,0.127 0.051,0.372 0.084,0.553 0.167,0.91 -0.002,0.001 -0.002,0.001 -0.004,0.003 -0.192,-0.15 -0.289,-0.224 -0.481,-0.372 0.029,-0.05 0.044,-0.075 0.074,-0.125 -0.025,-0.019 -0.037,-0.029 -0.062,-0.048 -0.115,0.144 -0.171,0.218 -0.281,0.371 0.026,0.018 0.038,0.028 0.064,0.047 0.04,-0.043 0.06,-0.065 0.1,-0.107 0.231,0.172 0.346,0.258 0.578,0.43 -0.027,0.048 -0.039,0.071 -0.065,0.118 0.026,0.02 0.039,0.028 0.065,0.047 0.031,-0.043 0.047,-0.065 0.078,-0.107 0.038,-0.05 0.058,-0.076 0.096,-0.126 -0.086,-0.351 -0.121,-0.532 -0.176,-0.898 0.002,-10e-4 0.003,-0.002 0.005,-0.003 0.182,0.16 0.273,0.24 0.455,0.401 -0.028,0.043 -0.043,0.066 -0.071,0.11 0.023,0.021 0.036,0.031 0.06,0.053 0.074,-0.088 0.112,-0.13 0.188,-0.215 0.035,-0.038 0.052,-0.057 0.087,-0.094"/><path id="path31" style="fill:#fcef3c;fill-opacity:1;fill-rule:nonzero;stroke:none" d="m 6.8833,11.4277 c 0.051,-0.048 0.076,-0.071 0.127,-0.117 0,-0.002 -0.001,-0.003 -0.001,-0.004 -0.104,0.005 -0.156,0.009 -0.261,0.017 -0.032,0.032 -0.049,0.047 -0.082,0.079 0.088,0.008 0.131,0.013 0.217,0.025 m -0.226,-0.713 c 0.07,0.081 0.102,0.168 0.099,0.261 -0.003,0.093 -0.045,0.176 -0.127,0.253 -0.078,0.074 -0.161,0.108 -0.252,0.103 -0.091,-0.004 -0.174,-0.042 -0.25,-0.116 -0.004,-0.004 -0.006,-0.006 -0.011,-0.011 -0.076,-0.075 -0.116,-0.159 -0.117,-0.253 -0.002,-0.093 0.04,-0.181 0.124,-0.261 0.09,-0.084 0.183,-0.124 0.278,-0.118 0.094,0.006 0.176,0.05 0.246,0.131 0.004,0.004 0.006,0.007 0.01,0.011 m 0.111,-0.114 c -0.086,-0.102 -0.195,-0.155 -0.329,-0.154 -0.134,0 -0.265,0.056 -0.386,0.169 -0.116,0.112 -0.178,0.237 -0.185,0.371 -0.007,0.132 0.04,0.244 0.136,0.336 l 0.01,0.009 c 0.097,0.091 0.209,0.132 0.337,0.127 0.128,-0.004 0.242,-0.056 0.348,-0.156 0.109,-0.104 0.169,-0.217 0.183,-0.346 0.013,-0.128 -0.02,-0.244 -0.105,-0.345 -0.004,-0.005 -0.006,-0.007 -0.009,-0.011"/><path id="path32" style="fill:#fcef3c;fill-opacity:1;fill-rule:nonzero;stroke:none" d="m 7.3696,9.7129 c -0.045,-0.004 -0.103,0.004 -0.174,0.023 -0.071,0.019 -0.152,0.061 -0.243,0.127 -0.13,0.097 -0.21,0.214 -0.236,0.346 -0.026,0.131 0.007,0.249 0.095,0.355 0.004,0.004 0.006,0.006 0.01,0.011 0.088,0.107 0.195,0.161 0.323,0.169 0.126,0.007 0.248,-0.035 0.372,-0.126 0.065,-0.049 0.118,-0.098 0.156,-0.151 0.039,-0.053 0.066,-0.106 0.082,-0.158 -0.037,-0.055 -0.055,-0.083 -0.093,-0.138 -0.035,0.024 -0.053,0.036 -0.088,0.061 0.016,0.049 0.025,0.075 0.042,0.125 -0.012,0.027 -0.028,0.056 -0.051,0.086 -0.022,0.03 -0.054,0.058 -0.094,0.087 -0.097,0.072 -0.191,0.103 -0.284,0.09 -0.093,-0.012 -0.175,-0.059 -0.242,-0.144 -0.004,-0.005 -0.006,-0.007 -0.01,-0.012 -0.068,-0.086 -0.098,-0.176 -0.086,-0.272 0.011,-0.094 0.066,-0.179 0.163,-0.25 0.052,-0.04 0.099,-0.067 0.139,-0.083 0.04,-0.016 0.074,-0.026 0.102,-0.03 0.046,0.067 0.069,0.099 0.115,0.165 -0.062,0.046 -0.092,0.07 -0.153,0.117 0.022,0.03 0.032,0.044 0.053,0.074 0.113,-0.082 0.17,-0.122 0.285,-0.2 -0.073,-0.109 -0.11,-0.164 -0.183,-0.272"/><path id="path33" style="fill:#fcef3c;fill-opacity:1;fill-rule:nonzero;stroke:none" d="m 7.9429,9.8232 c 0.069,-0.042 0.104,-0.062 0.174,-0.104 0.075,-0.042 0.136,-0.061 0.182,-0.057 0.047,0.004 0.082,0.029 0.107,0.074 0.023,0.042 0.025,0.084 0.007,0.127 -0.018,0.042 -0.061,0.081 -0.126,0.119 -0.073,0.042 -0.11,0.064 -0.182,0.108 -0.065,-0.107 -0.097,-0.161 -0.162,-0.267 m 0.392,0.243 c 0.103,-0.059 0.171,-0.122 0.206,-0.191 0.036,-0.069 0.035,-0.139 -0.003,-0.212 -0.02,-0.039 -0.052,-0.067 -0.095,-0.082 -0.043,-0.017 -0.094,-0.02 -0.154,-0.009 0.046,-0.045 0.073,-0.089 0.081,-0.135 0.007,-0.046 -0.002,-0.092 -0.028,-0.14 -0.013,-0.026 -0.02,-0.039 -0.033,-0.065 -0.013,-0.025 -0.019,-0.047 -0.017,-0.062 0.002,-0.015 0.012,-0.031 0.029,-0.041 0.014,-0.009 0.02,-0.013 0.034,-0.022 -0.015,-0.029 -0.023,-0.043 -0.037,-0.072 -0.031,0.016 -0.047,0.023 -0.078,0.04 -0.055,0.028 -0.088,0.065 -0.095,0.106 -0.007,0.042 10e-4,0.084 0.024,0.126 0.014,0.026 0.021,0.038 0.034,0.063 0.024,0.044 0.027,0.088 0.01,0.132 -0.018,0.044 -0.053,0.081 -0.106,0.111 -0.086,0.05 -0.129,0.075 -0.215,0.127 -0.065,-0.106 -0.097,-0.16 -0.162,-0.267 l 0.105,-0.083 c -0.016,-0.027 -0.024,-0.041 -0.04,-0.068 -0.149,0.088 -0.223,0.133 -0.368,0.229 0.017,0.026 0.026,0.039 0.043,0.066 0.049,-0.024 0.074,-0.035 0.123,-0.059 0.154,0.244 0.231,0.367 0.385,0.611 -0.038,0.032 -0.057,0.049 -0.095,0.082 0.018,0.026 0.026,0.039 0.043,0.066 0.041,-0.027 0.062,-0.041 0.103,-0.066 0.122,-0.077 0.183,-0.114 0.306,-0.185"/><path id="path34" style="fill:#fcef3c;fill-opacity:1;fill-rule:nonzero;stroke:none" d="m 9.3755,9.8047 c 0.061,-0.026 0.091,-0.039 0.153,-0.063 -10e-4,-10e-4 -10e-4,-0.002 -10e-4,-0.004 -0.096,-0.032 -0.145,-0.047 -0.243,-0.076 -0.04,0.017 -0.059,0.026 -0.099,0.043 0.077,0.039 0.115,0.059 0.19,0.1 m -0.518,-0.626 c 0.132,-0.061 0.199,-0.089 0.332,-0.144 -0.005,0.172 -0.007,0.258 -0.007,0.429 -10e-4,0.001 -0.002,0.001 -0.004,0.002 -0.126,-0.117 -0.19,-0.175 -0.321,-0.287 m -0.46,-0.096 c 0.033,-0.011 0.05,-0.017 0.083,-0.03 0.294,0.224 0.436,0.341 0.708,0.583 0.045,-0.02 0.068,-0.03 0.114,-0.05 0.007,-0.361 0.017,-0.544 0.051,-0.91 0.031,-0.016 0.046,-0.023 0.078,-0.039 -0.011,-0.029 -0.017,-0.044 -0.028,-0.074 -0.127,0.047 -0.191,0.071 -0.317,0.122 0.012,0.029 0.018,0.044 0.03,0.073 0.035,-0.009 0.052,-0.014 0.087,-0.022 -0.004,0.074 -0.006,0.111 -0.009,0.185 -0.171,0.07 -0.256,0.107 -0.424,0.184 -0.058,-0.048 -0.086,-0.072 -0.144,-0.12 0.03,-0.019 0.045,-0.029 0.076,-0.048 -0.014,-0.028 -0.02,-0.043 -0.034,-0.071 -0.123,0.056 -0.185,0.085 -0.307,0.147 0.014,0.028 0.022,0.042 0.036,0.07"/><path id="path35" style="fill:#fcef3c;fill-opacity:1;fill-rule:nonzero;stroke:none" d="m 9.9819,9.2285 c -0.09,-0.274 -0.135,-0.411 -0.224,-0.686 0.076,-0.024 0.114,-0.036 0.191,-0.059 0.103,-0.031 0.193,-0.027 0.267,0.011 0.075,0.037 0.122,0.098 0.144,0.182 0.014,0.049 0.02,0.073 0.033,0.122 0.022,0.084 0.012,0.159 -0.03,0.228 -0.041,0.069 -0.109,0.118 -0.204,0.146 -0.071,0.022 -0.107,0.034 -0.177,0.056 m 0.205,0.038 c 0.134,-0.04 0.231,-0.105 0.295,-0.198 0.065,-0.092 0.084,-0.195 0.056,-0.308 -0.012,-0.049 -0.018,-0.073 -0.03,-0.122 -0.028,-0.113 -0.094,-0.195 -0.203,-0.242 -0.108,-0.048 -0.237,-0.05 -0.385,-0.006 -0.188,0.058 -0.283,0.088 -0.469,0.155 0.01,0.03 0.016,0.045 0.027,0.075 0.051,-0.011 0.078,-0.017 0.129,-0.027 0.095,0.273 0.142,0.408 0.236,0.682 -0.044,0.021 -0.066,0.033 -0.109,0.057 0.011,0.029 0.017,0.044 0.028,0.075 0.045,-0.017 0.068,-0.025 0.113,-0.04 0.124,-0.043 0.187,-0.063 0.312,-0.101"/><path id="path36" style="fill:#fcef3c;fill-opacity:1;fill-rule:nonzero;stroke:none" d="m 11.272,8.4521 c 0.142,-0.022 0.212,-0.032 0.354,-0.05 -0.05,0.165 -0.074,0.247 -0.118,0.412 l -0.004,0 c -0.09,-0.145 -0.136,-0.218 -0.232,-0.362 m -0.413,-0.215 c 0.035,-0.003 0.052,-0.004 0.087,-0.007 0.222,0.295 0.326,0.445 0.522,0.75 0.049,-0.007 0.074,-0.01 0.122,-0.016 0.101,-0.348 0.158,-0.521 0.286,-0.865 0.034,-0.006 0.05,-0.009 0.084,-0.016 -0.002,-0.031 -0.004,-0.048 -0.006,-0.079 -0.135,0.011 -0.202,0.017 -0.335,0.033 0.004,0.032 0.006,0.048 0.009,0.079 0.036,0 0.054,0.001 0.089,0.002 -0.023,0.07 -0.034,0.105 -0.056,0.176 -0.182,0.021 -0.272,0.034 -0.453,0.063 -0.041,-0.061 -0.062,-0.092 -0.105,-0.153 0.033,-0.011 0.05,-0.016 0.084,-0.026 -0.005,-0.031 -0.008,-0.046 -0.013,-0.078 -0.132,0.022 -0.198,0.034 -0.33,0.06 0.006,0.031 0.009,0.047 0.015,0.077"/><path id="path37" style="fill:#fcef3c;fill-opacity:1;fill-rule:nonzero;stroke:none" d="m 12.3652,8.0576 c 0.052,0.005 0.079,0.007 0.131,0.013 0.008,0.288 0.012,0.432 0.02,0.72 -0.047,0.008 -0.071,0.013 -0.119,0.022 10e-4,0.032 0.002,0.048 0.004,0.08 0.152,-0.006 0.228,-0.008 0.381,-0.008 l 0,-0.08 c -0.048,-0.007 -0.072,-0.011 -0.12,-0.017 -0.002,-0.123 -0.003,-0.184 -0.004,-0.307 0.046,-0.001 0.069,-0.001 0.115,-0.001 0.124,0.127 0.184,0.19 0.3,0.321 -0.033,0.002 -0.049,0.004 -0.081,0.007 -0.001,0.031 -0.002,0.048 -0.002,0.08 0.135,0.003 0.202,0.006 0.337,0.014 0.002,-0.032 0.003,-0.048 0.005,-0.08 -0.04,-0.009 -0.06,-0.013 -0.101,-0.021 -0.123,-0.145 -0.188,-0.217 -0.322,-0.357 0.151,-0.15 0.229,-0.223 0.392,-0.365 0.043,-0.004 0.065,-0.006 0.109,-0.009 0.003,-0.032 0.004,-0.048 0.006,-0.079 -0.154,-0.01 -0.23,-0.014 -0.384,-0.018 -10e-4,0.032 -10e-4,0.048 -0.002,0.079 0.035,0.005 0.053,0.007 0.088,0.012 -0.137,0.125 -0.203,0.189 -0.331,0.319 -0.052,0 -0.078,0 -0.13,10e-4 -0.002,-0.127 -0.002,-0.19 -0.004,-0.316 0.051,-0.008 0.077,-0.012 0.129,-0.019 l 0,-0.079 c -0.168,0 -0.252,0.002 -0.42,0.009 0.001,0.031 0.002,0.047 0.003,0.079"/><path id="path38" style="fill:#fcef3c;fill-opacity:1;fill-rule:nonzero;stroke:none" d="m 14.0205,9.0645 c -0.062,-0.009 -0.094,-0.013 -0.157,-0.021 -0.006,0.05 -0.009,0.076 -0.015,0.125 0.062,0.008 0.092,0.012 0.154,0.021 0.007,-0.05 0.011,-0.075 0.018,-0.125 m -0.337,-0.041 c -0.063,-0.006 -0.094,-0.009 -0.157,-0.015 -0.005,0.051 -0.006,0.076 -0.011,0.126 0.062,0.005 0.093,0.008 0.155,0.015 0.005,-0.051 0.008,-0.075 0.013,-0.126 m 0.509,-0.482 c -0.016,0.105 -0.06,0.186 -0.13,0.245 -0.069,0.057 -0.154,0.08 -0.26,0.067 -0.1,-0.011 -0.175,-0.052 -0.226,-0.124 -0.051,-0.072 -0.074,-0.16 -0.065,-0.267 0,-0.005 0,-0.008 10e-4,-0.014 0.008,-0.107 0.045,-0.192 0.111,-0.253 0.066,-0.063 0.155,-0.087 0.264,-0.075 0.115,0.013 0.2,0.058 0.253,0.133 0.053,0.077 0.071,0.167 0.054,0.273 -10e-4,0.006 -10e-4,0.009 -0.002,0.015 m 0.152,0.009 c 0.022,-0.131 -0.006,-0.248 -0.088,-0.349 -0.082,-0.102 -0.203,-0.164 -0.358,-0.182 -0.15,-0.017 -0.277,0.017 -0.377,0.098 -0.1,0.08 -0.151,0.188 -0.16,0.32 0,0.006 0,0.009 -10e-4,0.014 -0.008,0.133 0.029,0.245 0.109,0.34 0.08,0.094 0.186,0.148 0.322,0.164 0.14,0.015 0.259,-0.012 0.361,-0.086 0.103,-0.074 0.167,-0.174 0.189,-0.305 10e-4,-0.006 0.002,-0.009 0.003,-0.014"/><path id="path39" style="fill:#fcef3c;fill-opacity:1;fill-rule:nonzero;stroke:none" d="m 14.6431,8.2451 c 0.198,0.039 0.296,0.061 0.493,0.109 -0.006,0.042 -0.009,0.063 -0.014,0.105 0.051,0.014 0.077,0.019 0.128,0.033 0.021,-0.078 0.032,-0.117 0.053,-0.195 -0.324,-0.085 -0.488,-0.121 -0.817,-0.179 -0.006,0.036 -0.01,0.054 -0.016,0.091 0.194,0.328 0.281,0.495 0.436,0.831 -0.168,-0.04 -0.252,-0.059 -0.422,-0.091 0.004,-0.042 0.006,-0.063 0.01,-0.104 -0.05,-0.01 -0.075,-0.015 -0.125,-0.024 -0.014,0.08 -0.021,0.12 -0.035,0.199 0.286,0.051 0.428,0.081 0.709,0.156 0.01,-0.035 0.014,-0.052 0.023,-0.086 -0.149,-0.341 -0.234,-0.511 -0.423,-0.845"/><path id="path40" style="fill:#fcef3c;fill-opacity:1;fill-rule:nonzero;stroke:none" d="m 15.8115,9.5127 c -0.06,-0.021 -0.089,-0.032 -0.149,-0.053 -0.017,0.047 -0.025,0.072 -0.042,0.119 0.059,0.02 0.089,0.031 0.148,0.052 0.017,-0.047 0.025,-0.071 0.043,-0.118 m -0.324,-0.111 c -0.06,-0.02 -0.09,-0.029 -0.151,-0.047 -0.014,0.048 -0.022,0.072 -0.036,0.12 0.059,0.018 0.089,0.027 0.148,0.047 0.016,-0.048 0.024,-0.072 0.039,-0.12 m 0.012,-0.094 c 0.009,-0.03 0.014,-0.046 0.024,-0.076 -0.044,-0.022 -0.066,-0.032 -0.11,-0.053 0.061,-0.2 0.092,-0.3 0.153,-0.5 0.02,-0.066 0.06,-0.109 0.118,-0.128 0.059,-0.019 0.127,-0.017 0.206,0.01 0.082,0.028 0.143,0.068 0.18,0.119 0.038,0.052 0.044,0.11 0.02,0.176 -0.073,0.195 -0.11,0.294 -0.182,0.489 -0.048,-0.01 -0.073,-0.015 -0.12,-0.024 -0.011,0.03 -0.017,0.045 -0.027,0.075 0.099,0.036 0.149,0.054 0.248,0.093 0.045,0.017 0.068,0.026 0.112,0.044 0.012,-0.03 0.018,-0.044 0.03,-0.075 -0.042,-0.024 -0.064,-0.037 -0.106,-0.06 0.076,-0.196 0.114,-0.293 0.19,-0.488 0.036,-0.092 0.026,-0.178 -0.033,-0.257 -0.059,-0.078 -0.153,-0.142 -0.281,-0.184 -0.123,-0.042 -0.233,-0.047 -0.324,-0.019 -0.092,0.027 -0.151,0.089 -0.179,0.185 -0.058,0.201 -0.087,0.302 -0.145,0.502 -0.048,-0.006 -0.073,-0.009 -0.121,-0.016 -0.009,0.032 -0.013,0.047 -0.022,0.079 0.047,0.011 0.07,0.018 0.116,0.032 0.101,0.028 0.152,0.044 0.253,0.076"/><path id="path41" style="fill:#fcef3c;fill-opacity:1;fill-rule:nonzero;stroke:none" d="m 17.3276,9.1992 c -0.018,-0.041 -0.05,-0.089 -0.101,-0.142 -0.048,-0.053 -0.123,-0.104 -0.221,-0.151 -0.144,-0.068 -0.282,-0.082 -0.407,-0.042 -0.125,0.04 -0.211,0.125 -0.264,0.253 -0.002,0.005 -0.003,0.008 -0.006,0.014 -0.052,0.127 -0.051,0.247 -0.001,0.362 0.05,0.114 0.142,0.201 0.276,0.266 0.073,0.034 0.141,0.055 0.204,0.064 0.064,0.009 0.123,0.008 0.176,-0.003 0.032,-0.059 0.047,-0.088 0.078,-0.146 -0.038,-0.021 -0.056,-0.031 -0.094,-0.05 -0.036,0.038 -0.054,0.057 -0.09,0.096 -0.029,0.003 -0.063,0.003 -0.099,-0.002 -0.035,-0.006 -0.075,-0.021 -0.118,-0.041 -0.107,-0.051 -0.176,-0.119 -0.207,-0.207 -0.031,-0.086 -0.027,-0.18 0.016,-0.28 0.003,-0.006 0.004,-0.009 0.006,-0.014 0.043,-0.101 0.108,-0.169 0.196,-0.205 0.088,-0.035 0.186,-0.028 0.292,0.023 0.058,0.027 0.103,0.056 0.135,0.083 0.032,0.027 0.057,0.053 0.073,0.075 -0.036,0.071 -0.054,0.108 -0.091,0.179 -0.069,-0.032 -0.103,-0.048 -0.172,-0.078 -0.016,0.033 -0.024,0.049 -0.04,0.082 0.123,0.059 0.184,0.09 0.305,0.154 0.062,-0.116 0.092,-0.174 0.154,-0.29"/><path id="path42" style="fill:#fcef3c;fill-opacity:1;fill-rule:nonzero;stroke:none" d="m 17.4106,10.0869 c -0.039,-0.028 -0.058,-0.042 -0.096,-0.07 0.155,-0.082 0.234,-0.122 0.395,-0.199 0.003,0.178 0.002,0.267 -0.002,0.443 -0.043,-0.023 -0.064,-0.033 -0.106,-0.055 -0.018,0.027 -0.026,0.04 -0.044,0.068 0.127,0.081 0.19,0.123 0.314,0.209 0.018,-0.026 0.028,-0.039 0.046,-0.065 l -0.07,-0.063 c 0.004,-0.241 0.003,-0.362 -0.007,-0.606 0.048,-0.076 0.072,-0.114 0.12,-0.19 0.049,0.023 0.074,0.034 0.122,0.057 0.018,-0.026 0.026,-0.039 0.044,-0.066 -0.145,-0.094 -0.219,-0.14 -0.367,-0.228 -0.016,0.028 -0.024,0.041 -0.04,0.069 0.042,0.033 0.063,0.05 0.105,0.084 l -0.122,0.2 c -0.218,0.098 -0.325,0.149 -0.533,0.259 -0.034,-0.014 -0.051,-0.021 -0.086,-0.034 -0.015,0.028 -0.023,0.041 -0.039,0.07 0.131,0.071 0.196,0.108 0.324,0.186 0.017,-0.027 0.025,-0.042 0.042,-0.069"/><path id="path43" style="fill:#fcef3c;fill-opacity:1;fill-rule:nonzero;stroke:none" d="m 18.1611,10.9883 c 0.054,0.043 0.08,0.064 0.133,0.108 0.001,-10e-4 0.002,-10e-4 0.004,-0.002 -0.02,-0.101 -0.032,-0.152 -0.055,-0.254 -0.035,-0.028 -0.052,-0.041 -0.088,-0.069 0.004,0.087 0.005,0.13 0.006,0.217 m 0.286,-1.22 c -0.018,0.027 -0.028,0.039 -0.046,0.065 0.04,0.037 0.06,0.055 0.099,0.093 -0.17,0.233 -0.255,0.35 -0.425,0.583 -0.045,-0.024 -0.067,-0.036 -0.112,-0.059 -0.018,0.026 -0.028,0.039 -0.046,0.065 0.276,0.197 0.411,0.302 0.671,0.529 0.057,-0.068 0.086,-0.101 0.143,-0.167 -0.04,-0.035 -0.06,-0.052 -0.101,-0.087 -0.035,0.034 -0.053,0.052 -0.088,0.086 -0.136,-0.115 -0.205,-0.17 -0.345,-0.277 0.071,-0.094 0.107,-0.141 0.178,-0.236 0.141,0.107 0.211,0.163 0.348,0.277 0.024,-0.03 0.037,-0.045 0.062,-0.075 -0.139,-0.115 -0.209,-0.172 -0.351,-0.279 0.08,-0.105 0.119,-0.157 0.198,-0.262 0.154,0.118 0.23,0.179 0.381,0.305 -0.028,0.042 -0.041,0.062 -0.07,0.103 0.043,0.036 0.064,0.054 0.107,0.091 0.056,-0.066 0.086,-0.099 0.143,-0.166 -0.289,-0.252 -0.439,-0.37 -0.746,-0.589"/><path id="path44" style="fill:#fcef3c;fill-opacity:1;fill-rule:nonzero;stroke:none" d="m 19.1465,10.998 c 0.062,0.058 0.092,0.087 0.151,0.146 0.064,0.064 0.101,0.12 0.111,0.167 0.009,0.048 -0.005,0.09 -0.042,0.125 -0.034,0.034 -0.075,0.045 -0.122,0.038 -0.047,-0.007 -0.098,-0.04 -0.154,-0.096 -0.062,-0.062 -0.094,-0.093 -0.158,-0.152 0.086,-0.091 0.129,-0.137 0.214,-0.228 m -0.124,0.449 c 0.088,0.087 0.17,0.14 0.247,0.158 0.078,0.019 0.148,0.002 0.207,-0.053 0.032,-0.031 0.05,-0.07 0.054,-0.116 0.003,-0.047 -0.009,-0.099 -0.037,-0.157 0.056,0.035 0.108,0.052 0.155,0.048 0.048,-0.004 0.09,-0.023 0.13,-0.06 0.021,-0.021 0.032,-0.031 0.054,-0.05 0.021,-0.02 0.04,-0.031 0.056,-0.032 0.015,-0.002 0.033,0.004 0.05,0.019 0.012,0.012 0.018,0.018 0.03,0.028 0.025,-0.021 0.036,-0.032 0.061,-0.054 -0.026,-0.028 -0.037,-0.041 -0.063,-0.068 -0.045,-0.05 -0.091,-0.073 -0.133,-0.07 -0.042,0.003 -0.082,0.021 -0.117,0.055 -0.02,0.019 -0.03,0.03 -0.05,0.049 -0.037,0.035 -0.08,0.048 -0.127,0.041 -0.048,-0.005 -0.094,-0.032 -0.14,-0.077 -0.073,-0.074 -0.11,-0.11 -0.186,-0.181 0.085,-0.091 0.128,-0.136 0.213,-0.227 0.045,0.033 0.068,0.049 0.113,0.083 0.021,-0.022 0.033,-0.034 0.054,-0.056 -0.129,-0.126 -0.194,-0.187 -0.327,-0.305 -0.02,0.023 -0.031,0.035 -0.053,0.058 0.037,0.042 0.055,0.064 0.091,0.106 -0.194,0.214 -0.291,0.32 -0.485,0.534 -0.042,-0.029 -0.064,-0.044 -0.106,-0.072 -0.021,0.023 -0.032,0.035 -0.052,0.058 0.037,0.035 0.056,0.051 0.093,0.085 0.109,0.1 0.163,0.151 0.268,0.256"/><path id="path45" style="fill:#fcef3c;fill-opacity:1;fill-rule:nonzero;stroke:none" d="m 19.9434,12.5215 c 0.065,-0.048 0.099,-0.071 0.163,-0.119 -0.032,-0.045 -0.049,-0.068 -0.083,-0.111 -0.036,0.02 -0.054,0.031 -0.09,0.052 -0.064,-0.084 -0.096,-0.126 -0.162,-0.207 0.225,-0.18 0.337,-0.271 0.562,-0.452 0.041,0.04 0.061,0.061 0.102,0.102 0.026,-0.02 0.037,-0.03 0.063,-0.049 -0.115,-0.147 -0.173,-0.218 -0.292,-0.358 -0.025,0.021 -0.036,0.031 -0.06,0.052 0.031,0.048 0.047,0.071 0.078,0.12 -0.221,0.185 -0.332,0.277 -0.553,0.461 -0.068,-0.08 -0.101,-0.12 -0.169,-0.197 0.028,-0.031 0.042,-0.047 0.07,-0.078 -0.036,-0.041 -0.055,-0.062 -0.091,-0.102 -0.059,0.055 -0.09,0.082 -0.149,0.137 0.257,0.282 0.38,0.432 0.611,0.749"/></g><g id="g38"><path id="path50" style="fill:#e20909;fill-opacity:1;fill-rule:nonzero;stroke:none" d="m 15.2378,13.1611 c 0.828,-0.109 1.631,0.805 1.795,2.043 0.164,1.237 -0.374,2.33 -1.201,2.439 -0.827,0.11 -1.631,-0.804 -1.795,-2.043 -0.164,-1.237 0.374,-2.33 1.201,-2.439"/><path id="path51" style="fill:#ffffff;fill-opacity:1;fill-rule:nonzero;stroke:none" d="m 16.3823,15.3086 0.023,0.265 c 0,0 0.168,-0.003 0.221,-0.033 0.053,-0.029 0.076,-0.126 0.076,-0.126 l 0.056,0.559 -0.285,-0.067 0.014,0.358 c 0,0 0.139,-0.015 0.18,-0.056 0.041,-0.041 0.056,-0.118 0.056,-0.118 l 0.018,0.521 c 0,0 -0.039,-0.053 -0.106,-0.062 -0.068,-0.009 -0.112,0.012 -0.112,0.012 0,0 -0.006,0.165 0.018,0.229 0.023,0.065 0.076,0.107 0.076,0.107 l -0.418,0.012 c 0,0 0.027,-0.039 0.045,-0.11 0.017,-0.07 -0.003,-0.226 -0.003,-0.226 0,0 -0.118,-0.012 -0.159,0.023 -0.041,0.036 -0.074,0.086 -0.074,0.086 l -0.023,-0.485 c 0,0 0.012,0.029 0.067,0.058 0.056,0.03 0.18,0.03 0.18,0.03 l -0.015,-0.35 c 0,0 -0.097,-0.023 -0.179,0.02 -0.083,0.044 -0.13,0.135 -0.13,0.135 l -0.05,-0.646 c 0,0 0.03,0.079 0.118,0.117 0.088,0.038 0.206,0.02 0.206,0.02 l -0.021,-0.258 0.221,-0.015 z"/><path id="path52" style="fill:#fcef3c;fill-opacity:1;fill-rule:nonzero;stroke:none" d="m 16.4399,14.8447 c 0,0 0.045,0.132 0.16,0.214 0.114,0.083 0.144,0.197 0.144,0.197 0,0 -0.091,0.059 -0.179,-0.015 -0.089,-0.073 -0.079,-0.111 -0.125,-0.111 -0.046,0 -0.058,0.179 -0.058,0.179 l -0.22,0.015 c 0,0 -0.027,-0.083 -0.059,-0.124 -0.033,-0.041 -0.074,-0.08 -0.074,-0.08 0,0 -0.019,0.108 -0.053,0.157 -0.058,0.085 -0.2,0.047 -0.2,0.047 0,0 0.018,-0.043 0.136,-0.194 0.091,-0.118 0.061,-0.279 0.061,-0.279 l 0.467,-0.006 z"/><path id="path53" style="fill:#5ab532;fill-opacity:1;fill-rule:nonzero;stroke:none" d="m 14.1968,14.1123 -5.846,-10e-4 0.874,-1.861 2.281,-0.157 1.273,-1.109 1.273,1.109 2.281,0.157 0.874,1.861 -0.521,10e-4 c 0.089,0.163 0.165,0.343 0.225,0.535 0,0 -0.128,0.11 -0.267,0.11 -0.123,0 -0.182,-0.127 -0.182,-0.127 0,0 -0.014,0.07 -0.02,0.121 -0.006,0.05 -0.002,0.093 -0.002,0.093 0,0 -0.123,0.046 -0.253,0.046 -0.129,0 -0.214,-0.04 -0.214,-0.04 0,0 -0.002,-0.043 -0.009,-0.074 -0.008,-0.031 -0.02,-0.057 -0.02,-0.057 0,0 -0.086,0.08 -0.245,0.032 -0.159,-0.049 -0.286,-0.267 -0.286,-0.267 l -0.175,-1.323 c -0.46,0.061 -0.831,0.427 -1.041,0.952"/><path id="path54" style="fill:#ffffff;fill-opacity:1;fill-rule:nonzero;stroke:none" d="m 14.0796,14.4922 c 0.047,-0.209 0.117,-0.402 0.206,-0.573 l 1.035,-0.136 0.07,0.531 -1.311,0.178 z"/><path id="path55" style="fill:#ffffff;fill-opacity:1;fill-rule:nonzero;stroke:none" d="m 15.5229,15.3115 -0.068,-0.51 -1.443,0.192 c -0.009,0.167 -0.005,0.339 0.014,0.516 l 1.497,-0.198 z"/><path id="path56" style="fill:#ffffff;fill-opacity:1;fill-rule:nonzero;stroke:none" d="m 15.6504,16.2764 -0.065,-0.493 -1.477,0.195 c 0.043,0.169 0.098,0.33 0.163,0.481 l 1.379,-0.183 z"/><path id="path57" style="fill:#ffffff;fill-opacity:1;fill-rule:nonzero;stroke:none" d="m 14.8091,17.2559 c -0.116,-0.11 -0.224,-0.24 -0.32,-0.388 l 1.218,-0.161 0.057,0.422 -0.955,0.127 z"/><path id="path58" style="fill:#5ab532;fill-opacity:1;fill-rule:nonzero;stroke:none" d="m 13.293,22.4028 c 0,0 0.11,0.117 0.49,0.117 0.381,0 0.677,-0.393 0.663,-0.494 -0.047,-0.326 0.133,-0.518 0.266,-0.518 0.216,0 0.212,0.031 0.212,0.079 0,0.046 -0.113,0.207 -0.113,0.207 0,0 0.059,0.094 0.208,0.094 0.149,0 0.215,-0.141 0.215,-0.337 0,-0.196 -0.094,-0.408 -0.208,-0.462 -0.113,-0.056 -0.262,0.011 -0.372,-0.02 -0.11,-0.032 -0.126,-0.08 -0.126,-0.08 l -0.133,-0.203 -0.443,0.683 -0.149,0.819 -0.51,0.115 z"/><path id="path59" style="fill:#e20909;fill-opacity:1;fill-rule:nonzero;stroke:none" d="m 13.4253,22.2563 c 0,0 0.166,-0.023 0.252,-0.286 0.086,-0.262 -0.083,-0.557 0.129,-0.984 0.212,-0.428 0.585,-0.475 0.8,-0.369 0.216,0.106 0.295,0.193 0.157,0.353 -0.047,0.055 -0.314,0.004 -0.38,0.008 -0.067,0.004 -0.204,0.18 -0.208,0.255 -0.004,0.074 0.039,0.51 -0.067,0.776 -0.036,0.092 -0.193,0.322 -0.274,0.357 -0.126,0.055 -0.647,0.031 -0.647,0.031"/><path id="path60" style="fill:#ffffff;fill-opacity:1;fill-rule:nonzero;stroke:none" d="m 9.5093,19.4155 0.008,-0.089 0.3,0.047 c 0,0 0.068,-0.288 0.081,-0.52 0.012,-0.239 0.046,-0.477 0.046,-0.477 0,0 -0.124,-0.179 0.047,-0.179 0.17,0 0.064,0.15 0.064,0.15 0,0 0.089,0.217 0.092,0.379 0.003,0.162 0,0.676 0,0.676 l 0.403,-0.058 0,0.082 c 0,0 0.158,-0.085 0.158,0.062 0,0.109 -0.156,0.029 -0.156,0.029 l 0,0.08 c 0,0 -0.344,-0.089 -0.402,-0.089 -0.059,0 -0.08,0.041 -0.08,0.041 l 0.094,3.106 c 0,0 0.009,0.089 -0.038,0.089 -0.047,0 -0.062,-0.095 -0.062,-0.095 l -0.179,-3.12 c 0,0 -0.021,-0.024 -0.074,-0.024 -0.052,0 -0.323,0.136 -0.323,0.136 l 0.012,-0.135 c 0,0 -0.124,0.064 -0.124,-0.039 0,-0.103 0.133,-0.052 0.133,-0.052"/><path id="path61" style="fill:#fec3ac;fill-opacity:1;fill-rule:nonzero;stroke:none" d="m 14.8862,17.8486 c 0,0 -0.075,-0.162 -0.103,-0.281 -0.045,-0.19 0.009,-0.281 0.009,-0.281 0,0 0.088,-0.011 0.094,0.098 0.006,0.11 0.109,0.183 0.266,0.122 0.156,-0.061 0.264,-0.204 0.264,-0.204 0,0 0.22,0.004 0.237,0.065 0.017,0.06 -0.012,0.12 -0.012,0.12 0,0 0.076,-0.095 0.055,0.005 -0.022,0.1 -0.098,0.171 -0.232,0.296 -0.134,0.125 -0.301,0.153 -0.301,0.153 l -0.171,0 -0.106,-0.093 z"/><path id="path62" style="fill:#fec3ac;fill-opacity:1;fill-rule:nonzero;stroke:none" d="m 10.439,19.1177 c 0,0 0.005,0.109 -0.033,0.156 -0.038,0.047 -0.129,0.085 -0.203,0.052 -0.075,-0.034 -0.063,-0.059 -0.134,-0.063 -0.07,-0.004 -0.115,-0.057 -0.115,-0.057 0,0 -0.049,0.1 -0.104,0.069 -0.055,-0.032 -0.02,-0.086 -0.02,-0.086 0,0 -0.072,-0.009 -0.076,-0.057 -0.004,-0.049 0.062,-0.063 0.062,-0.063 0,0 -0.037,-0.071 -0.013,-0.102 0.023,-0.032 -0.008,-0.069 0.019,-0.098 0.028,-0.029 0.139,-0.014 0.165,0.018 0.026,0.031 -0.027,0.076 -0.027,0.076 0,0 0.049,-0.004 0.057,0.03 0.007,0.033 -0.102,0.066 -0.102,0.066 0,0 0.005,0.073 0.021,0.075 0.016,0.002 -0.002,-0.039 0.092,-0.022 0.095,0.018 0.122,0.037 0.126,-0.043 0.004,-0.08 0.004,-0.186 0.031,-0.216 0.027,-0.029 0.173,0 0.173,0 l 0.081,0.265 z"/><path id="path63" style="fill:#fec3ac;fill-opacity:1;fill-rule:nonzero;stroke:none" d="m 13.1851,20.9292 -0.371,-0.709 -0.482,0.486 -0.176,0.447 c 0,0 0.045,0.051 0.06,0.174 0.016,0.124 0,0.236 0,0.236 l 1.031,-0.316 -0.062,-0.318 z"/><path id="path64" style="fill:#ffffff;fill-opacity:1;fill-rule:nonzero;stroke:none" d="m 13.4097,13.2178 c 0,-0.086 0.005,-0.193 0.025,-0.309 0.047,-0.273 0.13,-0.42 0.274,-0.403 0.144,0.018 0.209,0.139 0.185,0.418 -0.023,0.279 -0.141,0.526 -0.141,0.526 0,0 0.074,0.471 0.082,0.83 0.009,0.359 -0.091,0.65 -0.091,0.65 l -0.032,0.382 c 0,0 0.05,0.041 0.088,0.302 0.038,0.263 0.012,0.392 0.012,0.392 0,0 0.038,0.044 0.062,0.288 0.023,0.244 -0.006,0.342 -0.006,0.342 0,0 0.056,0.059 0.064,0.158 0.009,0.101 -0.046,0.206 -0.046,0.206 0,0 0.085,0.044 0.085,0.068 0,0.023 -0.08,0.327 -0.174,0.611 -0.094,0.286 -0.179,0.415 -0.179,0.415 0,0 0.108,0.253 0.162,0.656 0.052,0.403 0.044,0.671 0.044,0.671 0,0 0.158,-0.147 0.185,-0.147 0.026,0 0.038,0.026 0.038,0.026 0,0 0.115,-0.35 0.138,-0.368 0.024,-0.017 0.068,0.039 0.068,0.039 0,0 -0.018,-0.241 0,-0.268 0.018,-0.027 0.071,-0.014 0.071,-0.014 0,0 0.1,-0.224 0.194,-0.401 0.094,-0.176 0.229,-0.408 0.256,-0.426 0.026,-0.018 0.153,-0.032 0.285,0.038 0.132,0.071 0.215,0.042 0.244,0.115 0.029,0.074 -0.018,0.318 -0.153,0.582 -0.135,0.265 -0.168,0.286 -0.185,0.356 -0.018,0.071 -0.015,0.133 -0.053,0.2 -0.038,0.068 -0.088,0.141 -0.088,0.141 0,0 0.094,0.024 0.094,0.039 0,0.014 -0.288,0.373 -0.288,0.373 0,0 0.055,0.024 0.055,0.035 0,0.012 -0.111,0.159 -0.203,0.248 -0.091,0.088 -0.202,0.176 -0.202,0.176 0,0 0.029,0.014 0.011,0.041 -0.017,0.027 -0.094,0.127 -0.214,0.2 -0.121,0.074 -0.221,0.129 -0.221,0.129 0,0 0.033,0.062 -0.009,0.112 -0.076,0.092 -0.232,-0.091 -0.232,-0.091 0,0 -0.03,0.066 -0.174,0.117 -0.144,0.051 -0.238,0 -0.238,0 l -0.018,0.256 c 0,0 -0.103,-0.096 -0.273,-0.185 -0.17,-0.088 -0.315,-0.123 -0.315,-0.123 l -0.265,0.085 -0.005,-0.165 c 0,0 -0.071,0.009 -0.165,0.003 -0.094,-0.006 -0.18,-0.026 -0.18,-0.026 0,0 -0.006,0.068 -0.102,0.068 -0.177,0 -0.159,-0.415 -0.159,-0.415 0,0 -0.124,-0.024 -0.174,-0.153 -0.05,-0.13 -0.032,-0.224 -0.032,-0.224 0,0 -0.083,-0.041 -0.129,-0.147 -0.048,-0.106 0.003,-0.2 0.003,-0.2 0,0 -0.127,-0.105 -0.166,-0.2 -0.038,-0.094 -0.014,-0.197 -0.014,-0.197 0,0 -0.082,0.097 -0.294,0.103 -0.212,0.006 -0.297,0.077 -0.297,0.077 0,0 -0.121,0.055 -0.186,-0.13 -0.064,-0.185 -0.088,-0.217 -0.067,-0.276 0.021,-0.059 0.082,-0.103 0.082,-0.103 0,0 0.094,-0.186 0.288,-0.253 0.195,-0.068 0.488,-0.074 0.488,-0.074 0,0 0.262,-0.088 0.445,0.038 0.182,0.127 0.179,0.318 0.179,0.318 l 0.068,0.565 c 0,0 0,-0.321 0.035,-0.668 0.035,-0.347 0.097,-0.538 0.097,-0.538 0,0 -0.194,-0.259 -0.353,-0.688 -0.099,-0.268 0.038,-0.342 0.038,-0.342 0,0 -0.061,-0.079 -0.114,-0.202 -0.053,-0.124 0,-0.16 0,-0.16 0,0 -0.049,0.004 -0.085,-0.22 -0.051,-0.305 -0.009,-0.367 -0.009,-0.367 0,0 -0.045,0.003 -0.056,-0.106 -0.012,-0.109 0.005,-0.465 0.005,-0.465 0,0 -0.017,-0.038 -0.096,-0.097 -0.059,-0.044 -0.106,-0.112 -0.106,-0.156 0,-0.091 0.049,-0.109 0.1,-0.161 0.054,-0.057 0.108,-0.11 0.108,-0.11 0,0 -0.047,-0.203 -0.047,-0.444 0,-0.364 0.147,-1.141 0.147,-1.141 0,0 -0.047,0.03 -0.07,0.012 -0.038,-0.029 -0.041,-0.218 -0.074,-0.253 -0.032,-0.035 -0.438,-0.185 -0.52,-0.25 -0.083,-0.064 -0.053,-0.179 -0.053,-0.179 0,0 0.156,-0.071 0.4,-0.012 0.244,0.058 0.42,0.067 0.603,0.07 0.182,0.003 0.226,0.08 0.226,0.08 0,0 0.01,0.07 -0.004,0.268 0,0 0.087,0.05 0.204,-0.072 0.118,-0.12 0.312,-0.02 0.312,0.212 0,0.233 -0.341,0.307 -0.406,0.195 -0.086,-0.15 -0.135,-0.065 -0.135,-0.065 -0.047,0.408 -0.033,0.653 0.033,0.78 0.152,0.296 0.032,0.829 0.032,0.829 l 0.058,0.35 c 0,0 0.144,0.194 0.233,0.376 0.088,0.183 0.02,0.227 0.02,0.227 0,0 0.1,-0.018 0.165,0.165 0.065,0.181 0.079,0.376 0.079,0.376 l 0.083,0.038 0.064,-0.073 c 0,0 -0.017,-0.141 0.048,-0.359 0.064,-0.218 0.102,-0.295 0.102,-0.295 0,0 -0.029,-0.131 0.018,-0.305 0.047,-0.173 0.112,-0.297 0.112,-0.297 l 0.032,-0.332 c 0,0 0.003,-0.38 0.056,-0.7 0.023,-0.136 0.066,-0.303 0.109,-0.453 0,0 -0.304,0.01 -0.244,-0.341 0.035,-0.206 0.348,-0.224 0.348,-0.224"/><path id="path65" style="fill:#ffffff;fill-opacity:1;fill-rule:nonzero;stroke:none" d="m 13.2471,21.2471 c 0,0 -0.129,-0.029 -0.583,0.179 -0.453,0.209 -0.508,0.283 -0.508,0.283 0,0 0.035,0.067 0,0.176 -0.035,0.109 -0.092,0.153 -0.092,0.153 l -0.191,-0.238 c 0,0 0.026,-0.051 0.007,-0.084 -0.017,-0.032 -0.04,-0.045 -0.091,-0.022 -0.037,0.017 -0.031,0.067 -0.011,0.092 0.025,0.031 0.06,0.03 0.06,0.03 l 0.171,0.268 c 0,0 0.002,0.044 0.029,0.08 0.026,0.036 0.058,0.033 0.058,0.033 l 0.359,0.275 c 0,0 0.043,0.019 0.059,-0.013 0.016,-0.031 -0.01,-0.061 -0.01,-0.061 0,0 -0.265,-0.179 -0.305,-0.211 -0.041,-0.031 -0.049,-0.081 -0.049,-0.081 0,0 0.061,-0.058 0.208,0.024 0.147,0.081 0.395,0.276 0.581,0.318 0.255,0.058 0.314,-0.154 0.314,-0.154 0,0 0.146,-0.013 0.172,-0.038 0.027,-0.025 0.055,-0.223 0,-0.476 -0.054,-0.254 -0.178,-0.533 -0.178,-0.533"/><path id="path66" style="fill:#000000;fill-opacity:1;fill-rule:nonzero;stroke:none" d="m 12.1558,21.709 c 0,0 0.022,-0.031 0.039,-0.072 0.017,-0.041 0.022,-0.074 0.022,-0.074 0,0 0.229,-0.088 0.366,-0.153 0.137,-0.065 0.122,-0.261 0.122,-0.261 0,0 0.175,0.025 0.196,0.025 0.022,0 -0.031,-0.105 -0.025,-0.109 0.006,-0.004 0.064,0.016 0.072,0.002 0.008,-0.014 -0.031,-0.071 0.014,-0.09 0.045,-0.02 0.088,0.044 0.132,0.044 0.044,0 0.091,-0.092 0.091,-0.092 0,0 0.079,0.048 0.1,0.195 0.013,0.084 -0.038,0.123 -0.038,0.123 l -1.091,0.462 z"/><path id="path67" style="fill:#000000;fill-opacity:1;fill-rule:nonzero;stroke:none" d="m 12.332,20.7061 c 0,0 -0.036,0.059 -0.033,0.116 0.002,0.05 0.042,0.098 0.056,0.107 0.029,0.019 0.208,-0.025 0.208,-0.025 0,0 0.054,0.069 -0.107,0.135 -0.161,0.067 -0.142,0.1 -0.142,0.1 l -0.158,0.014 c 0,0 -0.035,-0.016 -0.028,-0.035 0.008,-0.02 0.032,-0.014 0.028,-0.049 -0.002,-0.015 0,-0.111 0.037,-0.183 0.05,-0.099 0.139,-0.18 0.139,-0.18"/><path id="path68" style="fill:#000000;fill-opacity:1;fill-rule:nonzero;stroke:none" d="m 12.3223,21.2861 0.157,0.01 c 0,0 0.039,0.045 0.033,0.078 -0.005,0.034 -0.153,0.11 -0.19,0.122 -0.037,0.012 -0.07,-0.035 -0.064,-0.105 0.005,-0.069 0.064,-0.105 0.064,-0.105"/><path id="path69" style="fill:#e20909;fill-opacity:1;fill-rule:nonzero;stroke:none" d="m 12.7788,23.1294 -3.604,-0.002 c 0,0 -0.309,-0.313 -0.669,-0.706 -0.36,-0.392 -0.448,-0.51 -0.448,-0.51 0,0 0.756,-0.947 0.756,-2.458 0,-1.506 -1.741,-2.741 -0.463,-5.342 0.79,-1.607 2.518,-1.788 2.518,-1.788 l 0.098,-0.247 -2.118,0.153 -0.882,0.635 0.008,0.984 -0.667,0.346 0.365,2.471 -0.883,6.246 1.498,0.472 0.107,0.114 1.478,0.254 0.51,0.675 c 0,0 -0.135,-0.004 -0.463,0.12 -0.328,0.125 -0.421,0.227 -0.421,0.227 l 3.28,0.758 3.28,-0.758 c 0,0 -0.093,-0.102 -0.421,-0.227 -0.328,-0.124 -0.463,-0.12 -0.463,-0.12 l 0.51,-0.675 1.478,-0.254 0.107,-0.114 1.498,-0.472 -0.883,-6.246 0.365,-2.471 -0.667,-0.346 0.008,-0.984 -0.882,-0.635 -2.118,-0.153 0.098,0.247 c 0,0 1.728,0.181 2.518,1.788 1.278,2.601 -0.463,3.836 -0.463,5.342 0,1.511 0.756,2.458 0.756,2.458 0,0 -0.088,0.118 -0.448,0.51 -0.36,0.393 -0.669,0.706 -0.669,0.706 l -3.604,0.002 z"/><path id="path70" style="fill:#fcef3c;fill-opacity:1;fill-rule:nonzero;stroke:none" d="m 18.2017,20.8687 c 0,0 -0.115,0.03 -0.311,-0.033 -0.195,-0.062 -0.24,-0.12 -0.24,-0.12 0,0 -0.041,0.073 -0.049,0.174 -0.007,0.1 0.005,0.191 0.005,0.191 0,0 -0.127,0.004 -0.252,0.054 -0.125,0.05 -0.142,0.142 -0.142,0.142 0,0 0.038,0.062 0.136,0.098 0.173,0.064 0.27,-0.045 0.27,-0.045 0,0 -0.073,0.101 -0.073,0.234 0,0.133 0.078,0.169 0.078,0.169 0,0 0.148,-0.115 0.3,-0.115 0.2,0 0.488,0.127 0.488,0.571 0,0.637 -0.499,0.808 -0.499,0.808 0,0 0.158,-0.223 0.158,-0.458 0,-0.247 -0.067,-0.414 -0.341,-0.414 -0.301,0 -0.7,0.31 -0.7,0.717 0,0.405 0.37,0.838 1.067,0.838 0.915,0 1.564,-1.15 1.919,-1.15 0.101,0 0.108,0.12 0.208,0.12 0.052,0 0.178,-0.076 0.178,-0.076 0,0 -0.033,-0.063 0.023,-0.177 0.057,-0.114 0.031,-0.183 -0.021,-0.208 -0.053,-0.025 -0.061,-0.054 -0.061,-0.054 0,0 0.028,-0.022 0.089,-0.032 0.055,-0.008 0.139,-0.005 0.187,-0.026 0.102,-0.044 0.131,-0.186 0.212,-0.253 0.082,-0.067 0.19,-0.034 0.19,-0.034 0,0 0.037,-0.172 -0.082,-0.262 -0.12,-0.091 -0.272,-0.032 -0.272,-0.032 0,0 -0.039,-0.107 0.006,-0.272 0.046,-0.165 0.099,-0.28 0.099,-0.28 0,0 -0.082,-0.018 -0.185,0.039 -0.101,0.056 -0.21,0.157 -0.21,0.157 0,0 0.03,-0.271 0.161,-0.395 0.171,-0.158 0.335,-0.135 0.335,-0.135 0,0 -0.05,-0.302 -0.547,-0.174 -0.251,0.065 -0.384,0.304 -0.537,0.574 -0.12,0.214 -0.196,0.316 -0.196,0.316 0,0 -0.119,-0.357 -0.119,-0.711 0,-0.321 0.024,-0.621 0.144,-0.85 0.088,-0.173 0.239,-0.321 0.434,-0.321 0.432,0 0.242,0.461 0.242,0.461 0,0 0.219,0.09 0.36,-0.187 0.14,-0.279 0.083,-0.558 -0.03,-0.668 -0.186,-0.181 -0.444,-0.136 -0.444,-0.136 0,0 -0.028,-0.053 -0.011,-0.151 0.018,-0.099 0.052,-0.158 0.052,-0.158 0,0 -0.163,-0.002 -0.26,0.074 -0.096,0.074 -0.079,0.193 -0.122,0.231 -0.039,0.034 -0.167,0.003 -0.167,-0.079 0,-0.109 0.159,-0.189 0.205,-0.262 0.045,-0.074 0.06,-0.259 0.06,-0.259 0,0 -0.047,0.048 -0.098,0.072 -0.05,0.023 -0.104,0.02 -0.104,0.02 0,0 0.036,-0.097 0.046,-0.256 0.008,-0.16 -0.021,-0.222 -0.021,-0.222 0,0 -0.041,0.015 -0.089,0.087 -0.049,0.072 -0.097,0.088 -0.097,0.088 0,0 0.011,-0.281 -0.095,-0.452 -0.107,-0.17 -0.226,-0.321 -0.402,-0.321 -0.176,0 -0.335,0.094 -0.366,0.235 -0.029,0.141 -0.036,0.346 0.14,0.346 0.187,0 0.049,-0.239 0.049,-0.239 0,0 0.18,-0.077 0.256,0.106 0.079,0.193 0.004,0.461 0.004,0.822 0,0.36 0.075,0.603 -0.069,0.603 -0.143,0 -0.071,-0.29 -0.187,-0.588 -0.162,-0.416 -0.344,-0.392 -0.527,-0.643 -0.205,-0.279 -0.35,-0.697 -0.35,-1.303 0,-0.516 0.341,-0.913 0.603,-0.913 0.241,0 0.378,0.167 0.378,0.298 0,0.132 -0.063,0.213 -0.063,0.213 0,0 -0.046,-0.222 -0.198,-0.222 -0.242,0 -0.184,0.571 0.178,0.571 0.152,0 0.485,-0.239 0.485,-0.559 0,-0.519 -0.6,-0.675 -0.6,-0.675 0,0 0.35,0.066 0.446,-0.006 0.096,-0.07 0.216,-0.205 0.304,-0.27 0.088,-0.065 0.173,-0.029 0.173,-0.029 0,0 0.025,-0.162 -0.077,-0.141 -0.102,0.021 -0.129,0.006 -0.129,0.006 0,0 0.017,-0.055 0.124,-0.185 0.154,-0.188 0.093,-0.527 0.093,-0.527 0,0 -0.05,0.048 -0.297,0.053 -0.138,0.003 -0.265,0.032 -0.291,0.087 -0.043,0.086 -0.063,0.08 -0.063,0.08 0,0 0.019,-0.069 -0.012,-0.284 -0.029,-0.213 -0.141,-0.242 -0.141,-0.242 0,0 0.034,0.114 -0.073,0.213 -0.109,0.1 -0.219,0.117 -0.302,0.261 -0.083,0.143 -0.13,0.174 -0.13,0.174 0,0 0.052,-0.296 -0.136,-0.519 -0.187,-0.223 -0.502,-0.365 -0.716,-0.2 -0.218,0.17 -0.234,0.515 -0.089,0.645 0.14,0.128 0.218,0.082 0.268,0.016 0.073,-0.096 0.022,-0.294 0.022,-0.294 0,0 0.223,0.108 0.223,0.567 0,0.392 -0.324,1.588 -0.342,1.882 -0.028,0.455 0.12,0.712 0.12,0.712 0,0 -0.081,-0.012 -0.163,-0.051 -0.081,-0.04 -0.201,-0.002 -0.201,-0.002 0,0 -0.013,0.185 0.111,0.362 0.181,0.261 0.055,0.377 0.215,0.566 0.107,0.125 0.119,0.178 0.119,0.178 0,0 -0.103,-0.103 -0.297,-0.151 -0.193,-0.049 -0.323,0.037 -0.323,0.037 0,0 0.138,0.041 0.256,0.261 0.119,0.22 0.211,0.519 0.238,0.542 0.014,0.013 0.108,0.019 0.193,0.017 0.08,-0.001 0.147,0.028 0.147,0.028 0,0 -0.214,0.008 -0.261,0.05 -0.039,0.036 0.011,0.152 0.053,0.25 0.018,0.04 0.013,0.111 -0.006,0.127 -0.018,0.016 -0.129,0.066 -0.245,-0.053 -0.201,-0.206 -0.319,-0.295 -0.484,-0.295 -0.202,0 -0.226,0.399 -0.226,0.399 0,0 0.072,0.012 0.165,0.132 0.092,0.12 0.154,0.195 0.154,0.195 0,0 0.358,-0.083 0.358,0.095 0,0.179 -0.252,0.093 -0.347,0.225 -0.107,0.152 0.088,0.397 0.088,0.397 0,0 0.064,-0.087 0.159,-0.167 0.14,-0.118 0.309,-0.088 0.447,0.02 0.153,0.121 0.267,0.33 0.267,0.33"/><path id="path71" style="fill:#fcef3c;fill-opacity:1;fill-rule:nonzero;stroke:none" d="m 12.7788,9.8926 c 0,0 -0.077,0.086 -0.134,0.242 -0.058,0.156 -0.096,0.297 -0.096,0.297 0,0 -0.054,-0.08 -0.107,-0.194 -0.053,-0.115 -0.18,-0.103 -0.18,-0.103 0,0 -0.051,0.039 -0.098,0.145 -0.047,0.106 -0.052,0.255 0.064,0.414 0.115,0.16 0.031,0.223 0.006,0.223 -0.025,0 -0.059,0.005 -0.15,-0.216 -0.095,-0.232 -0.17,-0.253 -0.17,-0.253 0,0 -0.058,0.032 -0.089,0.105 -0.031,0.074 -0.033,0.125 -0.033,0.125 0,0 -0.186,-0.156 -0.408,-0.068 -0.183,0.072 -0.167,0.217 -0.167,0.217 0,0 0.37,0.148 0.37,0.572 0,0.33 -0.436,0.674 -0.436,0.674 0,0 0.153,-0.281 0.153,-0.593 0,-0.255 -0.046,-0.412 -0.303,-0.412 -0.164,0 -0.344,0.057 -0.344,0.29 0,0.254 0.199,0.254 0.199,0.21 0,-0.08 0.019,-0.077 0.019,-0.077 0,0 0.063,0.161 -0.157,0.353 -0.226,0.198 -0.535,0.206 -0.601,0.206 -0.146,0 -0.213,-0.012 -0.213,-0.012 0,0 0.12,-0.053 0.196,-0.137 0.076,-0.085 0.076,-0.166 0.076,-0.166 0,0 -0.025,-0.019 -0.072,-0.019 -0.076,0 -0.175,0.019 -0.175,0.019 0,0 0.074,-0.164 0.16,-0.24 0.078,-0.071 0.161,-0.082 0.161,-0.082 0,0 -0.094,-0.17 -0.228,-0.17 -0.094,0 -0.186,0.034 -0.302,0.263 -0.116,0.231 -0.178,0.262 -0.178,0.262 0,0 0.032,-0.1 0.036,-0.211 0.004,-0.111 -0.024,-0.147 -0.024,-0.147 0,0 -0.028,0.005 -0.07,0.02 -0.042,0.015 -0.08,0.029 -0.08,0.029 0,0 -0.095,-0.265 -0.242,-0.265 -0.157,0 -0.267,0.244 -0.267,0.244 0,0 0.178,-0.073 0.155,0.224 -0.014,0.178 -0.174,0.326 -0.525,0.546 -0.446,0.28 -0.763,0.426 -0.792,0.975 -0.021,0.382 0.053,0.564 0.242,0.666 0.074,0.04 0.183,0.038 0.298,0.031 0.208,-0.014 0.321,-0.209 0.323,-0.406 0.002,-0.168 -0.064,-0.317 -0.22,-0.329 -0.123,-0.01 -0.194,0.024 -0.222,0.064 -0.032,0.048 0.013,0.268 0.013,0.268 0,0 -0.266,-0.232 0.049,-0.643 0.112,-0.146 0.322,-0.304 0.581,-0.363 0.503,-0.115 0.965,-0.172 1.25,-0.172 0.331,0 0.667,-0.065 0.667,-0.065 0,0 0.037,0.006 0.08,0.031 0.044,0.025 0.075,0.059 0.075,0.059 0,0 0.292,-0.057 0.596,-0.073 0.226,-0.011 0.4,-0.079 0.655,-0.237 0.588,-0.364 0.659,-0.72 0.659,-0.72 0,0 0.071,0.356 0.659,0.72 0.255,0.158 0.429,0.226 0.655,0.237 0.304,0.016 0.596,0.073 0.596,0.073 0,0 0.031,-0.034 0.075,-0.059 0.043,-0.025 0.08,-0.031 0.08,-0.031 0,0 0.336,0.065 0.667,0.065 0.285,0 0.747,0.057 1.25,0.172 0.259,0.059 0.469,0.217 0.581,0.363 0.315,0.411 0.049,0.643 0.049,0.643 0,0 0.045,-0.22 0.013,-0.268 -0.028,-0.04 -0.099,-0.074 -0.222,-0.064 -0.156,0.012 -0.222,0.161 -0.22,0.329 0.002,0.197 0.115,0.392 0.323,0.406 0.115,0.007 0.224,0.009 0.298,-0.031 0.189,-0.102 0.263,-0.284 0.242,-0.666 -0.029,-0.549 -0.346,-0.695 -0.792,-0.975 -0.351,-0.22 -0.511,-0.368 -0.525,-0.546 -0.023,-0.297 0.155,-0.224 0.155,-0.224 0,0 -0.11,-0.244 -0.267,-0.244 -0.147,0 -0.242,0.265 -0.242,0.265 0,0 -0.038,-0.014 -0.08,-0.029 -0.042,-0.015 -0.07,-0.02 -0.07,-0.02 0,0 -0.028,0.036 -0.024,0.147 0.004,0.111 0.036,0.211 0.036,0.211 0,0 -0.062,-0.031 -0.178,-0.262 -0.116,-0.229 -0.208,-0.263 -0.302,-0.263 -0.134,0 -0.228,0.17 -0.228,0.17 0,0 0.083,0.011 0.161,0.082 0.086,0.076 0.16,0.24 0.16,0.24 0,0 -0.099,-0.019 -0.175,-0.019 -0.047,0 -0.072,0.019 -0.072,0.019 0,0 0,0.081 0.076,0.166 0.076,0.084 0.196,0.137 0.196,0.137 0,0 -0.067,0.012 -0.213,0.012 -0.066,0 -0.375,-0.008 -0.601,-0.206 -0.22,-0.192 -0.157,-0.353 -0.157,-0.353 0,0 0.019,-0.003 0.019,0.077 0,0.044 0.199,0.044 0.199,-0.21 0,-0.233 -0.18,-0.29 -0.344,-0.29 -0.257,0 -0.303,0.157 -0.303,0.412 0,0.312 0.153,0.593 0.153,0.593 0,0 -0.436,-0.344 -0.436,-0.674 0,-0.424 0.37,-0.572 0.37,-0.572 0,0 0.016,-0.145 -0.167,-0.217 -0.222,-0.088 -0.408,0.068 -0.408,0.068 0,0 -0.002,-0.051 -0.033,-0.125 -0.031,-0.073 -0.089,-0.105 -0.089,-0.105 0,0 -0.075,0.021 -0.17,0.253 -0.091,0.221 -0.125,0.216 -0.15,0.216 -0.025,0 -0.109,-0.063 0.006,-0.223 0.116,-0.159 0.111,-0.308 0.064,-0.414 -0.047,-0.106 -0.098,-0.145 -0.098,-0.145 0,0 -0.127,-0.012 -0.18,0.103 -0.053,0.114 -0.107,0.194 -0.107,0.194 0,0 -0.038,-0.141 -0.096,-0.297 -0.057,-0.156 -0.134,-0.242 -0.134,-0.242"/><path id="path72" style="fill:#fcef3c;fill-opacity:1;fill-rule:nonzero;stroke:none" d="m 7.356,20.8687 c 0,0 0.115,0.03 0.311,-0.033 0.195,-0.062 0.24,-0.12 0.24,-0.12 0,0 0.041,0.073 0.049,0.174 0.007,0.1 -0.005,0.191 -0.005,0.191 0,0 0.127,0.004 0.252,0.054 0.125,0.05 0.142,0.142 0.142,0.142 0,0 -0.038,0.062 -0.136,0.098 -0.173,0.064 -0.27,-0.045 -0.27,-0.045 0,0 0.073,0.101 0.073,0.234 0,0.133 -0.078,0.169 -0.078,0.169 0,0 -0.148,-0.115 -0.3,-0.115 -0.2,0 -0.488,0.127 -0.488,0.571 0,0.637 0.499,0.808 0.499,0.808 0,0 -0.158,-0.223 -0.158,-0.458 0,-0.247 0.067,-0.414 0.341,-0.414 0.301,0 0.7,0.31 0.7,0.717 0,0.405 -0.37,0.838 -1.067,0.838 -0.915,0 -1.565,-1.15 -1.919,-1.15 -0.101,0 -0.109,0.12 -0.208,0.12 -0.052,0 -0.178,-0.076 -0.178,-0.076 0,0 0.033,-0.063 -0.024,-0.177 -0.056,-0.114 -0.031,-0.183 0.022,-0.208 0.054,-0.025 0.061,-0.054 0.061,-0.054 0,0 -0.029,-0.022 -0.089,-0.032 -0.055,-0.008 -0.139,-0.005 -0.187,-0.026 -0.102,-0.044 -0.132,-0.186 -0.213,-0.253 -0.081,-0.067 -0.189,-0.034 -0.189,-0.034 0,0 -0.037,-0.172 0.083,-0.262 0.119,-0.09 0.27,-0.032 0.27,-0.032 0,0 0.039,-0.107 -0.006,-0.272 -0.045,-0.165 -0.098,-0.28 -0.098,-0.28 0,0 0.083,-0.018 0.185,0.039 0.102,0.056 0.209,0.157 0.209,0.157 0,0 -0.029,-0.271 -0.16,-0.395 -0.171,-0.158 -0.336,-0.135 -0.336,-0.135 0,0 0.051,-0.302 0.548,-0.174 0.252,0.065 0.385,0.304 0.536,0.574 0.121,0.214 0.197,0.316 0.197,0.316 0,0 0.119,-0.357 0.119,-0.711 0,-0.321 -0.024,-0.621 -0.143,-0.85 -0.089,-0.173 -0.24,-0.321 -0.435,-0.321 -0.431,0 -0.242,0.461 -0.242,0.461 0,0 -0.219,0.09 -0.36,-0.187 -0.14,-0.279 -0.083,-0.558 0.03,-0.668 0.186,-0.181 0.443,-0.136 0.443,-0.136 0,0 0.029,-0.053 0.012,-0.151 -0.017,-0.099 -0.052,-0.158 -0.052,-0.158 0,0 0.163,-0.002 0.259,0.074 0.097,0.074 0.08,0.193 0.122,0.231 0.039,0.034 0.167,0.003 0.167,-0.079 0,-0.109 -0.159,-0.189 -0.204,-0.262 -0.046,-0.074 -0.059,-0.259 -0.059,-0.259 0,0 0.047,0.048 0.096,0.072 0.05,0.023 0.105,0.02 0.105,0.02 0,0 -0.036,-0.097 -0.045,-0.256 -0.01,-0.16 0.02,-0.222 0.02,-0.222 0,0 0.04,0.015 0.089,0.087 0.049,0.072 0.097,0.088 0.097,0.088 0,0 -0.011,-0.281 0.095,-0.452 0.107,-0.17 0.225,-0.321 0.402,-0.321 0.176,0 0.336,0.094 0.365,0.235 0.03,0.141 0.036,0.346 -0.138,0.346 -0.188,0 -0.05,-0.239 -0.05,-0.239 0,0 -0.18,-0.077 -0.255,0.106 -0.08,0.193 -0.005,0.461 -0.005,0.822 0,0.36 -0.075,0.603 0.069,0.603 0.143,0 0.071,-0.29 0.187,-0.588 0.163,-0.416 0.344,-0.392 0.527,-0.643 0.205,-0.279 0.35,-0.697 0.35,-1.303 0,-0.516 -0.341,-0.913 -0.603,-0.913 -0.241,0 -0.379,0.167 -0.379,0.298 0,0.132 0.065,0.213 0.065,0.213 0,0 0.045,-0.222 0.197,-0.222 0.242,0 0.184,0.571 -0.179,0.571 -0.151,0 -0.484,-0.239 -0.484,-0.559 0,-0.519 0.6,-0.675 0.6,-0.675 0,0 -0.35,0.066 -0.446,-0.006 -0.096,-0.07 -0.216,-0.205 -0.304,-0.27 -0.088,-0.065 -0.172,-0.029 -0.172,-0.029 0,0 -0.026,-0.162 0.076,-0.141 0.102,0.021 0.129,0.006 0.129,0.006 0,0 -0.017,-0.055 -0.124,-0.185 -0.155,-0.188 -0.093,-0.527 -0.093,-0.527 0,0 0.051,0.048 0.298,0.053 0.137,0.003 0.264,0.032 0.291,0.087 0.042,0.086 0.062,0.08 0.062,0.08 0,0 -0.019,-0.069 0.011,-0.284 0.03,-0.213 0.142,-0.242 0.142,-0.242 0,0 -0.034,0.114 0.074,0.213 0.107,0.1 0.219,0.117 0.301,0.261 0.083,0.143 0.13,0.174 0.13,0.174 0,0 -0.052,-0.296 0.136,-0.519 0.187,-0.223 0.502,-0.365 0.716,-0.2 0.218,0.17 0.234,0.515 0.089,0.645 -0.14,0.128 -0.218,0.082 -0.268,0.016 -0.073,-0.096 -0.022,-0.294 -0.022,-0.294 0,0 -0.223,0.108 -0.223,0.567 0,0.392 0.324,1.588 0.342,1.882 0.028,0.455 -0.12,0.712 -0.12,0.712 0,0 0.081,-0.012 0.163,-0.051 0.081,-0.04 0.201,-0.002 0.201,-0.002 0,0 0.013,0.185 -0.111,0.362 -0.181,0.261 -0.055,0.377 -0.215,0.566 -0.107,0.125 -0.119,0.178 -0.119,0.178 0,0 0.103,-0.103 0.297,-0.151 0.193,-0.049 0.323,0.037 0.323,0.037 0,0 -0.138,0.041 -0.256,0.261 -0.119,0.22 -0.211,0.519 -0.238,0.542 -0.014,0.013 -0.108,0.019 -0.193,0.017 -0.08,-0.001 -0.147,0.028 -0.147,0.028 0,0 0.214,0.008 0.261,0.05 0.039,0.036 -0.011,0.152 -0.053,0.25 -0.018,0.04 -0.013,0.111 0.006,0.127 0.018,0.016 0.129,0.066 0.245,-0.053 0.201,-0.206 0.319,-0.295 0.484,-0.295 0.202,0 0.226,0.399 0.226,0.399 0,0 -0.072,0.012 -0.165,0.132 -0.092,0.12 -0.154,0.195 -0.154,0.195 0,0 -0.358,-0.083 -0.358,0.095 0,0.179 0.252,0.093 0.347,0.225 0.107,0.152 -0.088,0.397 -0.088,0.397 0,0 -0.064,-0.087 -0.159,-0.167 -0.14,-0.118 -0.309,-0.088 -0.447,0.02 -0.153,0.121 -0.267,0.33 -0.267,0.33"/><path id="path73" style="fill:#fcef3c;fill-opacity:1;fill-rule:nonzero;stroke:none" d="m 12.7788,24.959 c -0.084,0 -0.146,-0.12 -0.146,-0.12 0,0 -0.039,0.037 -0.117,0.037 -0.122,0 -0.198,-0.131 -0.198,-0.131 0,0 -0.242,0.193 -0.825,0.193 -0.904,0 -1.635,-1.256 -2.45,-1.256 -0.67,0 -0.931,0.357 -0.931,0.498 0,0.142 0.061,0.332 0.288,0.332 0.228,0 0.161,-0.212 0.132,-0.228 -0.027,-0.015 -0.088,0.049 -0.088,-0.017 0,-0.065 0.064,-0.073 0.132,-0.073 0.125,0 0.221,0.134 0.221,0.268 0,0.158 -0.121,0.268 -0.329,0.268 -0.208,0 -0.501,-0.143 -0.501,-0.564 0,-0.503 0.501,-0.796 0.908,-0.796 0.211,0 0.262,0.148 0.32,0.148 0.095,0 0.029,-0.19 0.029,-0.19 0,0 0.11,0.033 0.249,0.151 0.139,0.117 0.2,0.154 0.2,0.154 0,0 0.047,-0.011 0.047,-0.074 0,-0.063 -0.01,-0.142 -0.01,-0.142 0,0 0.08,0.022 0.2,0.097 0.119,0.074 0.161,0.121 0.2,0.121 0.039,0 0,-0.122 -0.035,-0.208 -0.05,-0.121 -0.034,-0.211 -0.034,-0.211 0,0 0.168,0.045 0.249,0.139 0.082,0.093 0.097,0.232 0.097,0.232 0,0 0.028,0.016 0.111,0.016 0.083,0 0.122,-0.019 0.136,-0.042 0.014,-0.023 0.023,-0.086 10e-4,-0.163 -0.021,-0.076 -0.048,-0.132 -0.048,-0.132 0,0 0.08,0.006 0.127,0.081 0.046,0.075 0.073,0.088 0.073,0.088 0,0 0.07,-0.035 0.141,-0.099 0.111,-0.1 0.245,-0.07 0.245,-0.07 0,0 0.002,0.027 -0.048,0.042 -0.075,0.022 -0.044,0.086 -0.044,0.086 0,0 0.019,0.019 0.153,0.019 0.134,0 0.208,0.027 0.208,0.115 0,0.088 -0.01,0.114 -0.01,0.114 0,0 -0.026,-0.014 -0.112,-0.014 -0.156,0 -0.31,0.187 -0.31,0.372 0,0.435 0.377,0.6 0.727,0.6 0.412,0 0.583,-0.325 0.583,-0.577 0,-0.378 -0.303,-0.399 -0.303,-0.399 0,0 -0.027,0.025 10e-4,0.076 0.065,0.122 0.057,0.261 -0.114,0.261 -0.114,0 -0.151,-0.098 -0.151,-0.098 0,0 -0.017,-0.124 0.014,-0.282 0.031,-0.16 0.082,-0.234 0.121,-0.253 0.039,-0.02 0.136,-0.036 0.244,-0.036 0.107,0 0.231,0.053 0.231,0.053 0,0 0.047,-0.074 0.131,-0.074 0.085,0 0.173,0.084 0.173,0.084 0,0 0.018,-0.046 0.047,-0.092 0.029,-0.047 0.065,-0.073 0.065,-0.073 0,0 0.036,0.026 0.065,0.073 0.029,0.046 0.047,0.092 0.047,0.092 0,0 0.088,-0.084 0.173,-0.084 0.084,0 0.131,0.074 0.131,0.074 0,0 0.124,-0.053 0.231,-0.053 0.108,0 0.205,0.016 0.244,0.036 0.039,0.019 0.09,0.093 0.121,0.253 0.031,0.158 0.014,0.282 0.014,0.282 0,0 -0.037,0.098 -0.151,0.098 -0.171,0 -0.179,-0.139 -0.114,-0.261 0.028,-0.051 0.001,-0.076 0.001,-0.076 0,0 -0.303,0.021 -0.303,0.399 0,0.252 0.171,0.577 0.583,0.577 0.35,0 0.727,-0.165 0.727,-0.6 0,-0.185 -0.154,-0.372 -0.31,-0.372 -0.086,0 -0.112,0.014 -0.112,0.014 0,0 -0.01,-0.026 -0.01,-0.114 0,-0.088 0.074,-0.115 0.208,-0.115 0.134,0 0.153,-0.019 0.153,-0.019 0,0 0.031,-0.064 -0.044,-0.086 -0.05,-0.015 -0.048,-0.042 -0.048,-0.042 0,0 0.134,-0.03 0.245,0.07 0.071,0.064 0.141,0.099 0.141,0.099 0,0 0.027,-0.013 0.073,-0.088 0.047,-0.075 0.127,-0.081 0.127,-0.081 0,0 -0.027,0.056 -0.048,0.132 -0.022,0.077 -0.013,0.14 10e-4,0.163 0.014,0.023 0.053,0.042 0.136,0.042 0.083,0 0.111,-0.016 0.111,-0.016 0,0 0.015,-0.139 0.097,-0.232 0.081,-0.094 0.249,-0.139 0.249,-0.139 0,0 0.016,0.09 -0.034,0.211 -0.035,0.086 -0.074,0.208 -0.035,0.208 0.039,0 0.081,-0.047 0.2,-0.121 0.12,-0.075 0.2,-0.097 0.2,-0.097 0,0 -0.01,0.079 -0.01,0.142 0,0.063 0.047,0.074 0.047,0.074 0,0 0.061,-0.037 0.2,-0.154 0.139,-0.118 0.249,-0.151 0.249,-0.151 0,0 -0.066,0.19 0.029,0.19 0.058,0 0.109,-0.148 0.32,-0.148 0.407,0 0.908,0.293 0.908,0.796 0,0.421 -0.293,0.564 -0.501,0.564 -0.208,0 -0.329,-0.11 -0.329,-0.268 0,-0.134 0.096,-0.268 0.221,-0.268 0.068,0 0.132,0.008 0.132,0.073 0,0.066 -0.061,0.002 -0.088,0.017 -0.029,0.016 -0.096,0.228 0.132,0.228 0.227,0 0.288,-0.19 0.288,-0.332 0,-0.141 -0.261,-0.498 -0.931,-0.498 -0.815,0 -1.546,1.256 -2.45,1.256 -0.583,0 -0.825,-0.193 -0.825,-0.193 0,0 -0.076,0.131 -0.198,0.131 -0.078,0 -0.117,-0.037 -0.117,-0.037 0,0 -0.062,0.12 -0.146,0.12"/><path id="path74" style="fill:#fcef3c;fill-opacity:1;fill-rule:nonzero;stroke:none" d="m 12.7788,25.3354 c -1.749,0 -3.28,-0.562 -3.28,-0.562 l -0.02,0.116 0.121,0.037 -0.258,0.766 c 0,0 -0.128,-0.039 -0.144,0.033 -0.016,0.071 0.113,0.108 0.113,0.108 0,0 -0.031,0.191 -0.124,0.384 -0.111,0.23 -0.537,0.789 -0.537,0.789 0,0 -0.067,-0.05 -0.15,0.028 -0.15,0.14 -0.174,0.389 -0.407,0.389 -0.171,0 -0.154,-0.163 -0.154,-0.163 0,0 -0.032,-0.006 -0.091,0.002 -0.059,0.008 -0.09,0.02 -0.09,0.02 0,0 -0.046,0.172 -0.019,0.321 0.026,0.148 0.383,0.279 0.553,0.144 0.085,-0.068 0.122,-0.066 0.122,-0.066 0,0 0.054,0.262 0.234,0.262 0.102,0 0.2,-0.132 0.214,-0.159 0.014,-0.027 0.019,-0.111 0.019,-0.111 0,0 0.003,-0.056 0.038,-0.056 0.034,0 0.052,0.067 0.068,0.089 0.016,0.022 0.13,0.122 0.275,0.122 0.065,0 0.134,-0.023 0.164,-0.082 0.026,-0.049 0.005,-0.159 0.038,-0.2 0.031,-0.039 0.228,0.052 0.309,0.008 0.073,-0.039 0.075,-0.184 0.041,-0.255 -0.031,-0.063 -0.196,-0.084 -0.196,-0.17 0,-0.109 0.166,-0.197 0.071,-0.301 -0.068,-0.075 -0.252,-0.005 -0.368,-0.007 -0.127,-0.001 -0.129,-0.064 -0.129,-0.064 0,0 0.309,-0.469 0.823,-0.317 0.72,0.212 0.57,1.083 0.57,1.083 l 0.187,0.028 c 0,0 0.313,-0.834 1.015,-0.834 0.559,0 0.75,0.98 0.75,1.059 0,0.08 -0.044,0.109 -0.126,0.109 -0.168,0 -0.249,-0.306 -0.426,-0.306 -0.17,0 -0.137,0.341 -0.137,0.341 0,0 -0.083,0.012 -0.154,0.062 -0.072,0.05 -0.091,0.145 -0.091,0.145 0,0 0.015,0.049 0.125,0.088 0.109,0.039 0.118,0.1 0.091,0.142 -0.029,0.042 -0.115,0.14 -0.046,0.208 0.069,0.069 0.136,0.045 0.281,0 0.146,-0.045 0.211,-0.009 0.15,0.082 -0.059,0.088 -0.14,0.151 -0.032,0.298 0.077,0.106 0.18,0.051 0.254,0.001 0.061,-0.04 0.131,-0.02 0.131,-0.02 0,0 -0.036,0.097 0.058,0.213 0.108,0.133 0.164,0.153 0.164,0.153 0,0 0.056,-0.02 0.164,-0.153 0.094,-0.116 0.058,-0.213 0.058,-0.213 0,0 0.07,-0.02 0.131,0.02 0.074,0.05 0.177,0.105 0.254,-0.001 0.108,-0.147 0.027,-0.21 -0.032,-0.298 -0.061,-0.091 0.004,-0.127 0.15,-0.082 0.145,0.045 0.212,0.069 0.281,0 0.069,-0.068 -0.017,-0.166 -0.046,-0.208 -0.027,-0.042 -0.018,-0.103 0.091,-0.142 0.11,-0.039 0.125,-0.088 0.125,-0.088 0,0 -0.019,-0.095 -0.091,-0.145 -0.071,-0.05 -0.154,-0.062 -0.154,-0.062 0,0 0.033,-0.341 -0.137,-0.341 -0.177,0 -0.258,0.306 -0.426,0.306 -0.082,0 -0.126,-0.029 -0.126,-0.109 0,-0.079 0.191,-1.059 0.75,-1.059 0.702,0 1.015,0.834 1.015,0.834 l 0.187,-0.028 c 0,0 -0.15,-0.871 0.57,-1.083 0.514,-0.152 0.823,0.317 0.823,0.317 0,0 -0.002,0.063 -0.129,0.064 -0.116,0.002 -0.3,-0.068 -0.368,0.007 -0.095,0.104 0.071,0.192 0.071,0.301 0,0.086 -0.165,0.107 -0.196,0.17 -0.034,0.071 -0.032,0.216 0.041,0.255 0.081,0.044 0.278,-0.047 0.309,-0.008 0.033,0.041 0.012,0.151 0.038,0.2 0.03,0.059 0.099,0.082 0.164,0.082 0.145,0 0.259,-0.1 0.275,-0.122 0.016,-0.022 0.034,-0.089 0.068,-0.089 0.035,0 0.038,0.056 0.038,0.056 0,0 0.005,0.084 0.019,0.111 0.014,0.027 0.112,0.159 0.214,0.159 0.18,0 0.234,-0.262 0.234,-0.262 0,0 0.037,-0.002 0.122,0.066 0.17,0.135 0.527,0.004 0.553,-0.144 0.027,-0.149 -0.019,-0.321 -0.019,-0.321 0,0 -0.031,-0.012 -0.09,-0.02 -0.059,-0.008 -0.091,-0.002 -0.091,-0.002 0,0 0.017,0.163 -0.154,0.163 -0.233,0 -0.257,-0.249 -0.407,-0.389 -0.083,-0.078 -0.15,-0.028 -0.15,-0.028 0,0 -0.426,-0.559 -0.537,-0.789 -0.093,-0.193 -0.124,-0.384 -0.124,-0.384 0,0 0.129,-0.037 0.113,-0.108 -0.016,-0.072 -0.144,-0.033 -0.144,-0.033 l -0.258,-0.766 0.121,-0.037 -0.02,-0.116 c 0,0 -1.531,0.562 -3.28,0.562"/><path id="path75" style="fill:#ffffff;fill-opacity:1;fill-rule:nonzero;stroke:none" d="m 15.2109,27.7139 c 0.056,0.157 -0.022,0.328 -0.174,0.381 -0.152,0.054 -0.32,-0.03 -0.375,-0.187 -0.055,-0.157 0.023,-0.328 0.174,-0.381 0.152,-0.054 0.32,0.03 0.375,0.187"/><path id="path76" style="fill:#ffffff;fill-opacity:1;fill-rule:nonzero;stroke:none" d="m 16.8447,26.6582 c 0.09,0.118 0.105,0.256 0.036,0.31 -0.07,0.053 -0.2,0.001 -0.289,-0.117 -0.09,-0.118 -0.106,-0.256 -0.036,-0.31 0.07,-0.053 0.2,-0.001 0.289,0.117"/><path id="path77" style="fill:#ffffff;fill-opacity:1;fill-rule:nonzero;stroke:none" d="m 12.9175,28.2134 c 0,-0.104 -0.062,-0.188 -0.139,-0.188 -0.077,0 -0.138,0.084 -0.138,0.188 0,0.104 0.062,0.188 0.139,0.188 0.076,0 0.138,-0.084 0.138,-0.188"/><path id="path78" style="fill:#e20909;fill-opacity:1;fill-rule:nonzero;stroke:none" d="m 16.0684,25.2544 -0.168,0.173 0.233,0.019 0.168,-0.173 -0.233,-0.019 z"/><path id="path79" style="fill:#e20909;fill-opacity:1;fill-rule:nonzero;stroke:none" d="m 15.3657,25.3608 c 0,0.042 -0.033,0.075 -0.075,0.075 -0.041,0 -0.075,-0.033 -0.075,-0.075 0,-0.042 0.034,-0.075 0.075,-0.075 0.042,0 0.075,0.033 0.075,0.075"/><path id="path80" style="fill:#e20909;fill-opacity:1;fill-rule:nonzero;stroke:none" d="m 15.4658,25.6826 c 0,0.042 -0.034,0.075 -0.075,0.075 -0.041,0 -0.075,-0.033 -0.075,-0.075 0,-0.041 0.034,-0.075 0.075,-0.075 0.041,0 0.075,0.034 0.075,0.075"/><path id="path81" style="fill:#e20909;fill-opacity:1;fill-rule:nonzero;stroke:none" d="m 13.6514,25.6514 c 0,0.049 -0.04,0.088 -0.088,0.088 -0.049,0 -0.088,-0.039 -0.088,-0.088 0,-0.048 0.039,-0.088 0.088,-0.088 0.048,0 0.088,0.04 0.088,0.088"/><path id="path82" style="fill:#e20909;fill-opacity:1;fill-rule:nonzero;stroke:none" d="m 13.7109,25.9546 c 0,0.048 -0.04,0.088 -0.088,0.088 -0.049,0 -0.088,-0.04 -0.088,-0.088 0,-0.049 0.039,-0.088 0.088,-0.088 0.048,0 0.088,0.039 0.088,0.088"/><path id="path83" style="fill:#5ab532;fill-opacity:1;fill-rule:nonzero;stroke:none" d="m 14.6763,25.6821 c -0.007,-0.061 -0.125,-0.097 -0.264,-0.08 -0.138,0.017 -0.244,0.08 -0.236,0.142 0.007,0.061 0.125,0.097 0.264,0.08 0.138,-0.017 0.244,-0.08 0.236,-0.142"/><path id="path84" style="fill:#ffffff;fill-opacity:1;fill-rule:nonzero;stroke:none" d="m 10.3467,27.7139 c -0.056,0.157 0.022,0.328 0.174,0.381 0.152,0.054 0.32,-0.03 0.375,-0.187 0.055,-0.157 -0.023,-0.328 -0.174,-0.381 -0.152,-0.054 -0.32,0.03 -0.375,0.187"/><path id="path85" style="fill:#ffffff;fill-opacity:1;fill-rule:nonzero;stroke:none" d="m 8.7129,26.6582 c -0.09,0.118 -0.105,0.256 -0.036,0.31 0.07,0.053 0.2,0.001 0.289,-0.117 0.09,-0.118 0.106,-0.256 0.036,-0.31 -0.07,-0.053 -0.2,-0.001 -0.289,0.117"/><path id="path86" style="fill:#e20909;fill-opacity:1;fill-rule:nonzero;stroke:none" d="m 12.7788,25.6992 0.273,0.152 -0.273,0.133 -0.273,-0.133 0.273,-0.152 z"/><path id="path87" style="fill:#e20909;fill-opacity:1;fill-rule:nonzero;stroke:none" d="m 9.4893,25.2544 0.168,0.173 -0.233,0.019 -0.168,-0.173 0.233,-0.019 z"/><path id="path88" style="fill:#e20909;fill-opacity:1;fill-rule:nonzero;stroke:none" d="m 10.1919,25.3608 c 0,0.042 0.033,0.075 0.075,0.075 0.041,0 0.075,-0.033 0.075,-0.075 0,-0.042 -0.034,-0.075 -0.075,-0.075 -0.042,0 -0.075,0.033 -0.075,0.075"/><path id="path89" style="fill:#e20909;fill-opacity:1;fill-rule:nonzero;stroke:none" d="m 10.0918,25.6826 c 0,0.042 0.034,0.075 0.075,0.075 0.041,0 0.075,-0.033 0.075,-0.075 0,-0.041 -0.034,-0.075 -0.075,-0.075 -0.041,0 -0.075,0.034 -0.075,0.075"/><path id="path90" style="fill:#e20909;fill-opacity:1;fill-rule:nonzero;stroke:none" d="m 11.9063,25.6514 c 0,0.049 0.04,0.088 0.088,0.088 0.049,0 0.088,-0.039 0.088,-0.088 0,-0.048 -0.039,-0.088 -0.088,-0.088 -0.048,0 -0.088,0.04 -0.088,0.088"/><path id="path91" style="fill:#e20909;fill-opacity:1;fill-rule:nonzero;stroke:none" d="m 11.8467,25.9546 c 0,0.048 0.04,0.088 0.088,0.088 0.049,0 0.088,-0.04 0.088,-0.088 0,-0.049 -0.039,-0.088 -0.088,-0.088 -0.048,0 -0.088,0.039 -0.088,0.088"/><path id="path92" style="fill:#5ab532;fill-opacity:1;fill-rule:nonzero;stroke:none" d="m 10.8813,25.6821 c 0.007,-0.061 0.125,-0.097 0.264,-0.08 0.138,0.017 0.244,0.08 0.236,0.142 -0.007,0.061 -0.125,0.097 -0.264,0.08 -0.138,-0.017 -0.244,-0.08 -0.236,-0.142"/></g></g></g></g></svg>