<svg xmlns:dc="http://purl.org/dc/elements/1.1/" xmlns:cc="http://creativecommons.org/ns#" xmlns:rdf="http://www.w3.org/1999/02/22-rdf-syntax-ns#" xmlns:svg="http://www.w3.org/2000/svg" xmlns="http://www.w3.org/2000/svg" viewBox="0 0 45 45" style="enable-background:new 0 0 45 45;" xml:space="preserve" version="1.1" id="svg2"><metadata id="metadata8"><rdf:RDF><cc:Work rdf:about=""><dc:format>image/svg+xml</dc:format><dc:type rdf:resource="http://purl.org/dc/dcmitype/StillImage"/></cc:Work></rdf:RDF></metadata><defs id="defs6"><clipPath id="clipPath16" clipPathUnits="userSpaceOnUse"><path id="path18" d="M 0,36 36,36 36,0 0,0 0,36 Z"/></clipPath></defs><g transform="matrix(1.25,0,0,-1.25,0,45)" id="g10"><g id="g12"><g xmlns="http://www.w3.org/2000/svg" clip-path="url(#clipPath16)" id="g14"><g id="g30"><path id="path20" style="fill:#000f5d;fill-opacity:1;fill-rule:nonzero;stroke:none" d="M 0,9 C 0,6.791 1.791,5 4,5 l 28,0 c 2.209,0 4,1.791 4,4 l 0,18 c 0,2.209 -1.791,4 -4,4 L 4,31 C 1.791,31 0,29.209 0,27 L 0,9 z"/></g><g id="g36"><path id="path30" style="fill:#d59f0f;fill-opacity:1;fill-rule:nonzero;stroke:none" d="m 16.022,25.1636 -0.067,-0.113 -0.81,0.449 0.094,0.161 0.783,-0.497 z"/><path id="path31" style="fill:#d59f0f;fill-opacity:1;fill-rule:nonzero;stroke:none" d="m 16.6729,25.8301 -0.098,-0.068 -0.872,0.164 0.533,-0.475 -0.08,-0.097 -0.726,0.577 0.114,0.137 0.908,-0.136 -0.425,0.579 0.136,0.095 0.51,-0.776 z"/><path id="path32" style="fill:#d59f0f;fill-opacity:1;fill-rule:nonzero;stroke:none" d="m 16.6064,26.7378 0.307,-0.66 c 0,0 0.069,0.031 0.116,0.05 0.087,0.034 0.145,0.083 0.181,0.154 0.034,0.071 0.041,0.158 0.014,0.263 -0.006,0.021 -0.008,0.031 -0.014,0.052 -0.026,0.102 -0.075,0.176 -0.15,0.214 -0.077,0.039 -0.174,0.04 -0.284,-0.001 -0.068,-0.027 -0.17,-0.072 -0.17,-0.072 m 0.245,-0.802 -0.435,0.82 c 0,0 0.189,0.095 0.32,0.146 0.1,0.039 0.198,0.051 0.286,0.039 0.088,-0.012 0.16,-0.049 0.213,-0.102 0.055,-0.055 0.092,-0.125 0.109,-0.209 0.005,-0.023 0.007,-0.035 0.012,-0.058 0.017,-0.085 0.013,-0.165 -0.005,-0.236 -0.018,-0.071 -0.052,-0.131 -0.099,-0.181 -0.049,-0.051 -0.107,-0.089 -0.18,-0.119 -0.091,-0.035 -0.221,-0.1 -0.221,-0.1"/><path id="path33" style="fill:#d59f0f;fill-opacity:1;fill-rule:nonzero;stroke:none" d="m 17.7358,26.1841 -0.113,-0.011 -0.111,0.921 0.161,0.014 0.063,-0.924 z"/><path id="path34" style="fill:#d59f0f;fill-opacity:1;fill-rule:nonzero;stroke:none" d="m 18.1392,26.519 0.335,-0.055 -0.096,0.461 -0.239,-0.406 z m 0.348,-0.161 -0.396,0.065 -0.101,-0.237 -0.119,0.003 0.461,0.895 0.14,-0.023 c 0,0 0.146,-0.602 0.149,-0.995 -0.044,0.016 -0.112,0.036 -0.112,0.036 l -0.022,0.256 z"/><path id="path35" style="fill:#d59f0f;fill-opacity:1;fill-rule:nonzero;stroke:none" d="m 19.3096,25.6772 -0.093,0.074 -0.075,0.874 -0.306,-0.646 -0.105,0.046 0.353,0.858 0.15,-0.065 0.11,-0.9 0.431,0.575 0.131,-0.104 -0.596,-0.712 z"/><path id="path36" style="fill:#d59f0f;fill-opacity:1;fill-rule:nonzero;stroke:none" d="m 19.8408,25.6274 0.216,-0.3 0.247,0.411 -0.463,-0.111 z m 0.153,-0.389 -0.256,0.356 -0.241,-0.095 -0.087,0.088 0.97,0.302 0.09,-0.125 -0.578,-0.852 -0.06,0.12 0.162,0.206 z"/><path id="path37" style="fill:#d59f0f;fill-opacity:1;fill-rule:nonzero;stroke:none" d="m 18.095,22.309 -0.19,0 0,1.268 0.19,0 0,-1.268 z"/><path id="path38" style="fill:#d59f0f;fill-opacity:1;fill-rule:nonzero;stroke:none" d="m 19.8418,22.375 -0.156,0.109 2.45,3.493 0.156,-0.11 -2.45,-3.492 z"/><path id="path39" style="fill:#d59f0f;fill-opacity:1;fill-rule:nonzero;stroke:none" d="m 20.1045,21.2285 -0.068,0.178 5.692,2.197 0.068,-0.178 -5.692,-2.197 z"/><path id="path40" style="fill:#d59f0f;fill-opacity:1;fill-rule:nonzero;stroke:none" d="m 27.1025,19.2168 -6.924,0.83 0.024,0.188 6.923,-0.83 -0.023,-0.188 z"/><path id="path41" style="fill:#d59f0f;fill-opacity:1;fill-rule:nonzero;stroke:none" d="m 16.1582,22.375 -2.45,3.492 0.156,0.11 2.449,-3.493 -0.155,-0.109 z"/><path id="path42" style="fill:#d59f0f;fill-opacity:1;fill-rule:nonzero;stroke:none" d="m 15.8955,21.2285 -5.692,2.197 0.068,0.178 5.692,-2.197 -0.068,-0.178 z"/><path id="path43" style="fill:#d59f0f;fill-opacity:1;fill-rule:nonzero;stroke:none" d="m 8.897,19.2168 -0.022,0.188 6.923,0.83 0.023,-0.188 -6.924,-0.83 z"/><path id="path44" style="fill:#d59f0f;fill-opacity:1;fill-rule:nonzero;stroke:none" d="m 18,26.1274 0.382,-1.074 1.139,-0.031 -0.903,-0.696 0.322,-1.093 -0.94,0.644 -0.94,-0.644 0.322,1.093 -0.903,0.696 1.139,0.031 0.382,1.074 z"/><path id="path45" style="fill:#d59f0f;fill-opacity:1;fill-rule:nonzero;stroke:none" d="m 18,29.5161 0.27,-0.759 0.805,-0.022 -0.638,-0.491 0.227,-0.772 -0.664,0.455 -0.665,-0.455 0.228,0.772 -0.638,0.491 0.805,0.022 0.27,0.759 z"/><path id="path46" style="fill:#d59f0f;fill-opacity:1;fill-rule:nonzero;stroke:none" d="m 18,12.4463 0.276,-0.774 0.822,-0.024 -0.652,-0.501 0.233,-0.789 -0.679,0.465 -0.679,-0.465 0.233,0.789 -0.652,0.501 0.822,0.024 0.276,0.774 z"/><path id="path47" style="fill:#d59f0f;fill-opacity:1;fill-rule:nonzero;stroke:none" d="m 20.5059,8.541 0.275,-0.775 0.823,-0.023 -0.652,-0.502 0.233,-0.789 -0.679,0.465 -0.679,-0.465 0.233,0.789 -0.652,0.502 0.823,0.023 0.275,0.775 z"/><path id="path48" style="fill:#d59f0f;fill-opacity:1;fill-rule:nonzero;stroke:none" d="m 22.623,14.3643 0.276,-0.775 0.823,-0.023 -0.653,-0.502 0.233,-0.789 -0.679,0.465 -0.678,-0.465 0.233,0.789 -0.653,0.502 0.823,0.023 0.275,0.775 z"/><path id="path49" style="fill:#d59f0f;fill-opacity:1;fill-rule:nonzero;stroke:none" d="m 24.8584,11.0234 0.276,-0.775 0.823,-0.023 -0.653,-0.502 0.233,-0.789 -0.679,0.465 -0.678,-0.465 0.233,0.789 -0.653,0.502 0.823,0.023 0.275,0.775 z"/><path id="path50" style="fill:#d59f0f;fill-opacity:1;fill-rule:nonzero;stroke:none" d="m 27.7764,15.0352 0.275,-0.775 0.823,-0.023 -0.652,-0.502 0.233,-0.789 -0.679,0.465 -0.679,-0.465 0.233,0.789 -0.652,0.502 0.823,0.023 0.275,0.775 z"/><path id="path51" style="fill:#d59f0f;fill-opacity:1;fill-rule:nonzero;stroke:none" d="m 24.5762,19.0059 0.276,-0.775 0.823,-0.023 -0.653,-0.501 0.233,-0.79 -0.679,0.466 -0.679,-0.466 0.234,0.79 -0.653,0.501 0.823,0.023 0.275,0.775 z"/><path id="path52" style="fill:#d59f0f;fill-opacity:1;fill-rule:nonzero;stroke:none" d="m 28.5176,20.2178 0.275,-0.775 0.823,-0.023 -0.652,-0.501 0.233,-0.789 -0.679,0.464 -0.679,-0.464 0.233,0.789 -0.652,0.501 0.823,0.023 0.275,0.775 z"/><path id="path53" style="fill:#d59f0f;fill-opacity:1;fill-rule:nonzero;stroke:none" d="m 26.5879,24.8999 0.276,-0.775 0.823,-0.022 -0.653,-0.502 0.233,-0.789 -0.679,0.464 -0.679,-0.464 0.234,0.789 -0.653,0.502 0.823,0.022 0.275,0.775 z"/><path id="path54" style="fill:#d59f0f;fill-opacity:1;fill-rule:nonzero;stroke:none" d="m 22.9414,28.1587 0.275,-0.775 0.823,-0.022 -0.652,-0.502 0.233,-0.789 -0.679,0.464 -0.679,-0.464 0.233,0.789 -0.653,0.502 0.823,0.022 0.276,0.775 z"/><path id="path55" style="fill:#d59f0f;fill-opacity:1;fill-rule:nonzero;stroke:none" d="m 15.4941,8.541 -0.276,-0.775 -0.822,-0.023 0.652,-0.502 -0.233,-0.789 0.679,0.465 0.679,-0.465 -0.233,0.789 0.652,0.502 -0.822,0.023 -0.276,0.775 z"/><path id="path56" style="fill:#d59f0f;fill-opacity:1;fill-rule:nonzero;stroke:none" d="m 13.3765,14.3643 -0.276,-0.775 -0.822,-0.023 0.652,-0.502 -0.233,-0.789 0.679,0.465 0.679,-0.465 -0.233,0.789 0.652,0.502 -0.822,0.023 -0.276,0.775 z"/><path id="path57" style="fill:#d59f0f;fill-opacity:1;fill-rule:nonzero;stroke:none" d="m 11.1411,11.0234 -0.275,-0.775 -0.823,-0.023 0.652,-0.502 -0.233,-0.789 0.679,0.465 0.679,-0.465 -0.233,0.789 0.652,0.502 -0.822,0.023 -0.276,0.775 z"/><path id="path58" style="fill:#d59f0f;fill-opacity:1;fill-rule:nonzero;stroke:none" d="m 8.2236,15.0352 -0.276,-0.775 -0.822,-0.023 0.652,-0.502 -0.233,-0.789 0.679,0.465 0.679,-0.465 -0.233,0.789 0.652,0.502 -0.823,0.023 -0.275,0.775 z"/><path id="path59" style="fill:#d59f0f;fill-opacity:1;fill-rule:nonzero;stroke:none" d="m 11.4233,19.0059 -0.275,-0.775 -0.823,-0.023 0.652,-0.501 -0.232,-0.79 0.678,0.466 0.679,-0.466 -0.233,0.79 0.652,0.501 -0.822,0.023 -0.276,0.775 z"/><path id="path60" style="fill:#d59f0f;fill-opacity:1;fill-rule:nonzero;stroke:none" d="m 7.4824,20.2178 -0.276,-0.775 -0.822,-0.023 0.652,-0.501 -0.233,-0.789 0.679,0.464 0.679,-0.464 -0.233,0.789 0.652,0.501 -0.823,0.023 -0.275,0.775 z"/><path id="path61" style="fill:#d59f0f;fill-opacity:1;fill-rule:nonzero;stroke:none" d="m 9.4116,24.8999 -0.275,-0.775 -0.823,-0.022 0.652,-0.502 -0.233,-0.789 0.679,0.464 0.679,-0.464 -0.233,0.789 0.652,0.502 -0.822,0.022 -0.276,0.775 z"/><path id="path62" style="fill:#d59f0f;fill-opacity:1;fill-rule:nonzero;stroke:none" d="m 13.0586,28.1587 -0.275,-0.775 -0.823,-0.022 0.652,-0.502 -0.232,-0.789 0.678,0.464 0.679,-0.464 -0.233,0.789 0.652,0.502 -0.822,0.022 -0.276,0.775 z"/><path id="path63" style="fill:#d59f0f;fill-opacity:1;fill-rule:nonzero;stroke:none" d="m 18,13.1113 0.41,-1.292 0.235,3.967 0.341,0 0,0.431 -0.282,0 c 0,0 -0.039,0.641 0.179,1.389 0.217,0.747 0.945,1.284 0.945,1.284 l 0,0.347 -3.656,0 0,-0.347 c 0,0 0.728,-0.537 0.946,-1.284 0.217,-0.748 0.178,-1.389 0.178,-1.389 l -0.282,0 0,-0.431 0.342,0 0.234,-3.967 0.41,1.292 z"/><path id="path64" style="fill:#d59f0f;fill-opacity:1;fill-rule:nonzero;stroke:none" d="m 18,7.2939 c 0,0 0.084,0.056 0.159,0.321 0.075,0.266 0.075,0.477 0.075,0.477 l 0.108,2.172 -0.342,0.239 -0.342,-0.239 0.108,-2.172 c 0,0 0,-0.211 0.075,-0.477 C 17.916,7.3499 18,7.2939 18,7.2939"/><path id="path65" style="fill:#d59f0f;fill-opacity:1;fill-rule:nonzero;stroke:none" d="m 18.6445,19.4204 c 0,0 0.124,0.138 0.238,0.311 0.175,0.267 0.341,0.693 0.119,1.416 -0.183,0.6 -0.152,0.931 0.054,1.247 0.151,0.233 0.412,0.411 0.412,0.411 0,0 -0.653,0.001 -1.106,-0.373 -0.481,-0.398 -0.583,-0.854 -0.583,-0.854 0,0 0.051,0.217 -0.134,0.539 -0.119,0.209 -0.156,0.33 -0.156,0.33 0,0 0.021,-0.144 -0.047,-0.359 -0.142,-0.447 -0.423,-0.852 -0.35,-1.444 0.089,-0.723 0.472,-1.224 0.472,-1.224 l 1.081,0 z"/><path id="path66" style="fill:#d59f0f;fill-opacity:1;fill-rule:nonzero;stroke:none" d="m 16.5205,19.4204 c 0,0 -0.417,0.507 -0.417,0.97 0,0.463 0.196,0.742 0.323,1.072 0.126,0.329 0.123,0.547 0.123,0.547 0,0 0.289,-0.492 0.242,-0.965 -0.047,-0.474 -0.039,-0.779 0.147,-1.121 0.124,-0.229 0.405,-0.503 0.405,-0.503 l -0.823,0 z"/><path id="path67" style="fill:#d59f0f;fill-opacity:1;fill-rule:nonzero;stroke:none" d="m 19.3799,19.4204 c 0,0 0.171,0.105 0.411,0.401 0.192,0.238 0.258,0.449 0.317,0.86 0.066,0.459 0.215,0.639 0.215,0.639 0,0 -0.097,-0.067 -0.258,-0.246 -0.161,-0.178 -0.316,-0.361 -0.316,-0.361 0,0 0.142,0.314 0.063,0.598 -0.06,0.216 -0.006,0.361 0.092,0.544 0.098,0.182 0.055,0.336 0.055,0.336 0,0 -0.424,-0.153 -0.573,-0.509 -0.151,-0.356 0.157,-0.914 -0.051,-1.541 -0.139,-0.42 -0.411,-0.721 -0.411,-0.721 l 0.456,0 z"/></g></g></g></g></svg>