<svg xmlns:dc="http://purl.org/dc/elements/1.1/" xmlns:cc="http://creativecommons.org/ns#" xmlns:rdf="http://www.w3.org/1999/02/22-rdf-syntax-ns#" xmlns:svg="http://www.w3.org/2000/svg" xmlns="http://www.w3.org/2000/svg" viewBox="0 0 45 45" style="enable-background:new 0 0 45 45;" xml:space="preserve" version="1.1" id="svg2"><metadata id="metadata8"><rdf:RDF><cc:Work rdf:about=""><dc:format>image/svg+xml</dc:format><dc:type rdf:resource="http://purl.org/dc/dcmitype/StillImage"/></cc:Work></rdf:RDF></metadata><defs id="defs6"><clipPath id="clipPath16" clipPathUnits="userSpaceOnUse"><path id="path18" d="M 4,31 C 1.791,31 0,29.209 0,27 L 0,27 0,9 C 0,6.791 1.791,5 4,5 l 0,0 28,0 c 2.209,0 4,1.791 4,4 l 0,0 0,18 c 0,2.209 -1.791,4 -4,4 l 0,0 -28,0 z"/></clipPath></defs><g transform="matrix(1.25,0,0,-1.25,0,45)" id="g10"><g id="g12"><g xmlns="http://www.w3.org/2000/svg" clip-path="url(#clipPath16)" id="g14"><path id="path20" style="fill:#008457;fill-opacity:1;fill-rule:nonzero;stroke:none" d="M 0,5 36,5 36,31 0,31 0,5 z"/><g id="g30"><path id="path30" style="fill:#000000;fill-opacity:1;fill-rule:nonzero;stroke:none" d="m 26.6563,18 c 0,4.781 -3.876,8.656 -8.656,8.656 -4.781,0 -8.656,-3.875 -8.656,-8.656 0,-4.78 3.875,-8.656 8.656,-8.656 4.78,0 8.656,3.876 8.656,8.656"/><path id="path31" style="fill:#ffd520;fill-opacity:1;fill-rule:nonzero;stroke:none" d="m 26.25,18 c 0,4.556 -3.693,8.25 -8.25,8.25 -4.556,0 -8.25,-3.694 -8.25,-8.25 0,-4.557 3.694,-8.25 8.25,-8.25 4.557,0 8.25,3.693 8.25,8.25"/><path id="path32" style="fill:#34c2de;fill-opacity:1;fill-rule:nonzero;stroke:none" d="m 24.0859,18 c 0,3.361 -2.725,6.086 -6.086,6.086 -3.361,0 -6.086,-2.725 -6.086,-6.086 0,-3.361 2.725,-6.086 6.086,-6.086 3.361,0 6.086,2.725 6.086,6.086"/><path id="path33" style="fill:#ffffff;fill-opacity:1;fill-rule:nonzero;stroke:none" d="m 15.2734,20.3003 c 0,0 -0.33,-0.373 -0.381,-0.565 -0.051,-0.192 -0.087,-0.227 -0.138,-0.388 -0.05,-0.161 -0.09,-0.083 -0.141,-0.267 -0.05,-0.184 -0.286,-0.549 -0.286,-0.659 0,-0.11 0.439,-0.694 0.545,-0.796 0.106,-0.102 0.504,-0.279 0.504,-0.279 l 0.676,1.271 -0.779,1.683 z"/><path id="path34" style="fill:#fdd6c6;fill-opacity:1;fill-rule:nonzero;stroke:none" d="m 15.9707,21.8413 c 0,0 -0.672,-0.836 -0.702,-1.612 -0.035,-0.918 0.085,-1.11 0.059,-1.675 -0.028,-0.591 0.049,-1.208 0.049,-1.208 0,0 0.052,-0.043 0.084,-0.196 0.032,-0.153 0.138,-0.479 0.263,-0.665 0.208,-0.311 0.382,-0.32 0.453,-0.347 0.07,-0.027 0.073,-0.109 0.073,-0.109 l 1.521,-0.553 2.106,1.989 -0.777,4.788 -2.282,0.223 -0.847,-0.635 z"/><path id="path35" style="fill:#ffffff;fill-opacity:1;fill-rule:nonzero;stroke:none" d="m 19.2275,17.0762 c 0,0 0.226,1.094 0.155,1.718 -0.071,0.623 -0.435,0.764 -0.47,1.4 -0.036,0.635 0.191,1.239 -0.389,1.666 -1.141,0.84 -2.553,-0.019 -2.553,-0.019 0,0 0.094,0.271 0.518,0.588 0.423,0.318 0.753,0.177 1.294,0.389 0.574,0.224 1.684,-0.345 2.258,-0.73 0.892,-0.598 1.047,-1.212 1.047,-1.212 0,0 0.315,0.161 0.385,-0.506 0.033,-0.316 -0.259,-0.768 -0.259,-0.768 0,0 0.368,-0.031 0.487,-0.353 0.117,-0.322 0.109,-0.677 0.109,-0.677 l -2.582,-1.496 z"/><path id="path36" style="fill:#000000;fill-opacity:1;fill-rule:nonzero;stroke:none" d="m 15.1948,12.5977 0.901,0.663 -0.637,0.857 c 0,0 -0.152,-0.078 -0.651,-0.382 -0.499,-0.305 -0.679,-0.432 -0.679,-0.432 0.328,-0.27 0.685,-0.508 1.066,-0.706"/><path id="path37" style="fill:#ffffff;fill-opacity:1;fill-rule:nonzero;stroke:none" d="m 17.6494,11.9238 1.721,0.901 -0.415,2.879 -2.527,0.152 c 0,0 -0.737,-0.193 -0.791,-0.297 -0.054,-0.104 0.053,-0.359 0.035,-0.6 -0.018,-0.241 -0.161,-0.474 -0.192,-0.682 -0.031,-0.208 0.027,-0.588 -0.012,-0.863 -0.039,-0.274 -0.274,-0.816 -0.274,-0.816 0.742,-0.386 1.573,-0.623 2.455,-0.674"/><path id="path38" style="fill:#000000;fill-opacity:1;fill-rule:nonzero;stroke:none" d="m 17.6494,11.9238 c 0.116,-0.006 0.233,-0.01 0.351,-0.01 1.935,0 3.659,0.905 4.773,2.313 0,0 -0.872,0.924 -1.458,1.477 -0.586,0.553 -0.737,0.596 -0.737,0.596 0,0 -0.164,0.313 -0.11,0.502 0.055,0.188 0.008,0.49 0.008,0.49 0,0 0.119,-0.052 0.397,0.17 0.193,0.154 0.491,0.15 0.491,0.15 0,0 0.056,0.257 0.31,0.474 0.481,0.406 0.135,0.486 0.135,0.486 0,0 -0.445,-0.002 -0.746,-0.052 -0.354,-0.06 -0.37,-0.221 -0.761,-0.263 -0.328,-0.035 -0.512,-0.599 -0.759,-0.866 -0.471,-0.51 -0.659,-0.447 -1.279,-0.988 -0.829,-0.725 -2.014,-0.374 -2.014,-0.374 0,0 1.085,-1.071 1.418,-1.243 0.397,-0.204 1.232,0.479 1.114,-0.097 -0.037,-0.183 0.088,-0.366 0.017,-0.583 -0.07,-0.217 -0.688,-0.429 -0.688,-0.429 0,0 -0.176,-0.377 -0.258,-0.93 -0.083,-0.552 -0.204,-0.823 -0.204,-0.823"/><path id="path39" style="fill:#000000;fill-opacity:1;fill-rule:nonzero;stroke:none" d="m 15.9795,17.2148 c 0,0 0.276,0.108 0.347,0.079 0.07,-0.029 0.121,-0.05 0.318,-0.012 0.197,0.038 0.358,-0.003 0.45,-0.038 0.046,-0.017 0.247,-0.023 0.369,-0.023 0.112,0 0.147,-0.098 0.147,-0.098 0,0 -0.17,0.055 -0.36,-0.012 -0.191,-0.067 -0.13,0.125 -0.455,0.066 -0.325,-0.06 -0.451,-0.135 -0.581,-0.055 -0.138,0.085 -0.235,0.093 -0.235,0.093"/><path id="path40" style="fill:#000000;fill-opacity:1;fill-rule:nonzero;stroke:none" d="m 17.0767,18.3623 c 0,0 0.142,-0.193 0.048,-0.354 -0.093,-0.162 -0.247,-0.019 -0.479,-0.077 -0.233,-0.058 -0.305,-0.086 -0.403,-0.02 -0.099,0.065 -0.197,0.078 -0.197,0.078 0,0 0.022,-0.064 0.115,-0.104 0.094,-0.039 0.089,-0.082 0.238,-0.151 0.065,-0.03 0.149,-0.069 0.239,-0.062 0.109,0.007 0.208,0.101 0.292,0.073 0.105,-0.035 0.36,0.133 0.369,0.184 0.014,0.08 -0.071,0.246 -0.118,0.331 -0.063,0.118 -0.104,0.102 -0.104,0.102"/><path id="path41" style="fill:#000000;fill-opacity:1;fill-rule:nonzero;stroke:none" d="m 17.1235,19.1558 c 0,0 -0.118,0.313 0.157,0.528 0.274,0.216 0.494,0.22 0.671,0.067 0.176,-0.153 0.219,-0.235 0.317,-0.278 0.098,-0.044 0.083,-0.153 0.204,-0.196 0.121,-0.043 0.243,0.031 0.243,0.031 0,0 -0.126,0.071 -0.137,0.259 -0.012,0.188 -0.522,0.576 -0.828,0.576 -0.305,0 -0.184,-0.113 -0.399,-0.121 -0.216,-0.008 -0.314,-0.106 -0.404,-0.161 -0.091,-0.055 -0.055,-0.349 -0.083,-0.478 -0.027,-0.13 0.259,-0.227 0.259,-0.227"/><path id="path42" style="fill:#000000;fill-opacity:1;fill-rule:nonzero;stroke:none" d="m 16.4321,19.4058 c 0,0 -0.026,0.059 -0.144,0.085 -0.118,0.027 -0.062,0.133 -0.22,0.221 -0.159,0.088 -0.23,0.064 -0.327,-0.017 -0.036,-0.031 -0.121,-0.175 -0.183,-0.236 -0.069,-0.069 -0.114,-0.053 -0.114,-0.053 0,0 -0.162,0.078 -0.156,0.18 0.006,0.103 0.082,0.132 0.068,0.217 -0.015,0.085 0.035,0.235 0.061,0.247 0.027,0.012 0.13,0.021 0.192,-0.02 0.061,-0.041 0.15,0.072 0.264,0.03 0.115,-0.042 0.368,-0.163 0.456,-0.283 0.088,-0.121 0.103,-0.371 0.103,-0.371"/><path id="path43" style="fill:#000000;fill-opacity:1;fill-rule:nonzero;stroke:none" d="m 18.1372,19.1099 c 0,0 0.122,0.09 0.141,0.188 0.011,0.056 -0.278,0.196 -0.454,0.243 -0.302,0.08 -0.595,-0.176 -0.595,-0.176 0,0 0.096,-0.028 0.186,0.002 0.085,0.029 0.1,0.132 0.188,0.113 0.052,-0.012 -0.085,-0.199 0.179,-0.233 0.25,-0.032 0.256,0.1 0.306,0.1 0.035,0 0.049,-0.237 0.049,-0.237"/><path id="path44" style="fill:#000000;fill-opacity:1;fill-rule:nonzero;stroke:none" d="m 16.3394,19.3433 c 0.002,0.033 -0.067,0.021 -0.143,0.102 -0.077,0.08 -0.108,0.1 -0.241,0.1 -0.187,0 -0.15,-0.016 -0.234,-0.069 -0.084,-0.053 -0.321,-0.154 -0.296,-0.175 0.049,-0.041 0.32,0.177 0.357,0.167 0.037,-0.009 -0.053,-0.196 0.181,-0.215 0.191,-0.016 0.225,0.117 0.266,0.104 0.032,-0.011 0.035,-0.057 0.065,-0.059 0.029,-0.002 0.043,0.02 0.045,0.045"/></g></g></g></g></svg>