<svg xmlns:dc="http://purl.org/dc/elements/1.1/" xmlns:cc="http://creativecommons.org/ns#" xmlns:rdf="http://www.w3.org/1999/02/22-rdf-syntax-ns#" xmlns:svg="http://www.w3.org/2000/svg" xmlns="http://www.w3.org/2000/svg" viewBox="0 0 45 45" style="enable-background:new 0 0 45 45;" xml:space="preserve" version="1.1" id="svg2"><metadata id="metadata8"><rdf:RDF><cc:Work rdf:about=""><dc:format>image/svg+xml</dc:format><dc:type rdf:resource="http://purl.org/dc/dcmitype/StillImage"/></cc:Work></rdf:RDF></metadata><defs id="defs6"><clipPath id="clipPath16" clipPathUnits="userSpaceOnUse"><path id="path18" d="M 0,36 36,36 36,0 0,0 0,36 Z"/></clipPath></defs><g transform="matrix(1.25,0,0,-1.25,0,45)" id="g10"><g id="g12"><g clip-path="url(#clipPath16)" id="g14"><g id="g20"><path id="path22" style="fill:#eeeeee;fill-opacity:1;fill-rule:nonzero;stroke:none" d="m 0,27 c 0,2.21 1.79,4 4,4 h 28 c 2.21,0 4,-1.79 4,-4 V 9 C 36,6.79 34.21,5 32,5 H 4 C 1.79,5 0,6.79 0,9 Z"/></g><g id="g24"><path id="path26" style="fill:#fcdd09;fill-opacity:1;fill-rule:nonzero;stroke:none" d="m 15.9077,14.1201 2.092,-1.209 6.11,3.528 v 2.636 h -5.338 z"/></g><g id="g28"><path id="path30" style="fill:#078930;fill-opacity:1;fill-rule:nonzero;stroke:none" d="m 15.9077,14.1201 -0.862,0.499 3.048,5.317 h 6.016 v -0.861 h -5.338 z"/></g><g id="g32"><path id="path34" style="fill:#fcdd09;fill-opacity:1;fill-rule:nonzero;stroke:none" d="m 11.8906,18.2031 v -1.763 l 2.233,-1.29 -0.756,3.481 z"/></g><g id="g36"><path id="path38" style="fill:#da121a;fill-opacity:1;fill-rule:nonzero;stroke:none" d="m 11.8906,19.9766 v -1.773 l 1.477,0.428 0.756,-3.481 0.639,-0.369 3.142,5.479 h 6.203 v 1.458 h -6.863 l -2.307,-4.106 -0.528,3.061 z"/></g><g id="g40"><path id="path42" style="fill:#ffaaaa;fill-opacity:1;fill-rule:nonzero;stroke:none" d="m 20.2676,25.7124 0.02,-0.033 -0.602,0.091 0.203,-0.536 -0.568,0.217 0.086,-0.569 -0.513,0.327 -0.031,-0.569 -0.434,0.424 -0.152,-0.552 -0.336,0.506 -0.259,-0.506 -0.226,0.563 -0.36,-0.444 -0.102,0.602 -0.445,-0.361 0.027,0.606 -0.508,-0.253 0.148,0.587 -0.566,-0.148 -3.759,-2.169 v -3.209 l 2.78,0.804 0.432,-2.517 1.952,3.472 h 7.052 v 1.45 z"/></g><g id="g44"><path id="path46" style="fill:#eeeeee;fill-opacity:1;fill-rule:nonzero;stroke:none" d="m 15.5122,23.7104 0.185,-0.634 0.661,-0.003 -0.547,-0.372 0.202,-0.63 -0.523,0.405 -0.536,-0.386 0.223,0.622 -0.533,0.391 0.661,-0.02 z"/></g></g></g></g></svg>