<svg xmlns="http://www.w3.org/2000/svg" viewBox="0 0 45 45"><path fill="#eeeeee" d="m 45,33.75 c 0,2.76125 -2.23875,5 -5,5 H 5 c -2.76125,0 -5,-2.23875 -5,-5 v -22.5 c 0,-2.76125 2.23875,-5 5,-5 h 35 c 2.76125,0 5,2.23875 5,5 z"/><path fill="#fdbe00" d="m 8.906125,24.550125 c -2.485,0 -4.5,-2.015 -4.5,-4.5 v -7.83125 h 9 v 7.83125 c 0,2.485 -2.015,4.5 -4.5,4.5 z"/><path fill="#ffffff" d="m 7.547375,11.390125 v 0.45375 h -1.09375 v 1.57875 h -0.415 v 6.6275 c 0,1.58375 1.285,2.86875 2.86875,2.86875 1.58375,0 2.86875,-1.285 2.86875,-2.86875 v -6.6275 h -0.41625 v -1.57875 h -1.09375 v -0.4525 h -2.71875 z"/><path fill="#141414" d="m 11.479875,12.090125 v -0.37 h -1.09 v -0.45 h -2.97 v 0.45 h -1.09 v 0.37 h -2.05 v 7.96 c 0,2.55 2.08,4.62 4.63,4.62 2.55,0 4.62,-2.07 4.62,-4.62 v -7.96 z m 0.17,1.46 v 6.5 c 0,1.51 -1.23,2.74 -2.74,2.74 -1.52,0 -2.75,-1.23 -2.75,-2.74 v -6.5 z m -0.42,-1.58 v 1.33 h -0.84 v -1.33 z m -3.56,-0.45 h 2.47 v 1.78 h -2.47 z m -1.09,0.45 h 0.84 v 1.33 h -0.84 z m 6.7,8.08 c 0,2.41 -1.96,4.37 -4.37,4.37 -2.42,0 -4.38,-1.96 -4.38,-4.37 v -7.71 h 1.8 v 0.96 h -0.42 v 6.75 c 0,1.65 1.35,2.99 3,2.99 1.65,0 2.99,-1.34 2.99,-2.99 v -6.75 h -0.42 v -0.96 h 1.8 z"/><path fill="#141414" d="m 7.016125,17.203875 -0.03125,0.3375 0.43875,0.38375 h -0.5725 l -0.18,-0.15625 0.09375,-0.65125 0.32125,-0.25125 0.0975,-0.97625 -0.44375,-0.23875 -0.22375,-0.42 0.56125,-0.49375 -0.1025,-0.33 0.58,-0.0275 0.22,0.19625 0.63875,-0.42 0.36875,0.14875 -0.19625,0.835 0.69375,-0.5175 0.8325,0.465 -1.0025,0.3675 0.4825,0.4825 0.855,-0.53 0.16125,-0.9175 0.53375,0.5925 -0.18875,0.81125 0.71375,-0.1025 -0.33,0.4 -0.29,0.02375 -0.9725,1.03125 1.09,0.73375 h -0.70625 l -0.5725,-0.34125 -0.81625,-0.09 -0.64375,-0.25875 0.47875,0.62 h -0.5575 l -0.345,-0.41625 -0.11125,-0.6525 z m 0.53125,-2.48 -0.7825,0.47 0.08875,0.30625 0.4475,0.28875 0.63,-0.1 -0.27,-0.5825 z"/></svg>