<svg xmlns:dc="http://purl.org/dc/elements/1.1/" xmlns:cc="http://creativecommons.org/ns#" xmlns:rdf="http://www.w3.org/1999/02/22-rdf-syntax-ns#" xmlns:svg="http://www.w3.org/2000/svg" xmlns="http://www.w3.org/2000/svg" viewBox="0 0 45 45" style="enable-background:new 0 0 45 45;" xml:space="preserve" version="1.1" id="svg2"><metadata id="metadata8"><rdf:RDF><cc:Work rdf:about=""><dc:format>image/svg+xml</dc:format><dc:type rdf:resource="http://purl.org/dc/dcmitype/StillImage"/></cc:Work></rdf:RDF></metadata><defs id="defs6"><clipPath id="clipPath16" clipPathUnits="userSpaceOnUse"><path id="path18" d="M 4,31 C 1.791,31 0,29.209 0,27 L 0,27 0,9 C 0,6.791 1.791,5 4,5 l 0,0 28,0 c 2.209,0 4,1.791 4,4 l 0,0 0,18 c 0,2.209 -1.791,4 -4,4 l 0,0 -28,0 z"/></clipPath></defs><g transform="matrix(1.25,0,0,-1.25,0,45)" id="g10"><g id="g12"><g xmlns="http://www.w3.org/2000/svg" clip-path="url(#clipPath16)" id="g14"><g id="g20"><path id="path21" style="fill:#8cbae6;fill-opacity:1;fill-rule:nonzero;stroke:none" d="M 0,5 H 36 V 31 H 0 Z"/></g><g id="g22"><path id="path23" style="fill:#fecc00;fill-opacity:1;fill-rule:nonzero;stroke:none" d="m 28.2295,19.1904 1.666,-0.217 -1.174,1.201 1.519,-0.723 -0.743,1.507 1.215,-1.154 -0.241,1.658 0.802,-1.473 0.281,1.65 0.31,-1.641 0.779,1.48 -0.217,-1.66 1.201,1.171 -0.721,-1.516 1.503,0.74 -1.154,-1.218 1.659,0.244 -1.471,-0.802 1.65,-0.281 -1.646,-0.308 1.479,-0.778 -1.661,0.216 1.175,-1.2 -0.235,0.111 -4.944,2.446 z"/></g><g id="g24"><path id="path25" style="fill:#07693a;fill-opacity:1;fill-rule:nonzero;stroke:none" d="m 12,25.2998 c 0,0 1.113,-0.666 1.722,-1.177 0.516,-0.432 1.108,-1.352 1.549,-2.058 0.324,-0.518 0.553,-0.847 1.111,-0.906 1.094,-0.115 2.176,0.523 3.106,0.424 0.882,-0.095 0.953,-0.759 1.576,-0.865 0.553,-0.094 0.771,0.494 2.366,0.129 1.93,-0.442 2.535,-2.89 4.046,-2.89 1.212,0 1.555,1.643 4.287,0.043 C 33.771,16.8228 36,14.5268 36,14.5268 V 5.0008 H 0 v 20.299 z"/></g><g id="g26"><path id="path27" style="fill:#0036a7;fill-opacity:1;fill-rule:nonzero;stroke:none" d="m 13.7393,11.2725 c 0,0 1.114,-1.451 2.384,-2.188 1.271,-0.738 2.032,0.337 3.239,0.11 1.508,-0.284 2.565,-2.565 3.114,-2.776 0.775,-0.299 3.286,0.282 4.903,-0.08 1.367,-0.304 2.823,-1.338 2.823,-1.338 h 6.348 v 1.378 c 0,0 -1.862,1.18 -4.638,2.357 -2.777,1.177 -3.7,0.959 -5.793,0.399 -1.296,-0.346 -1.986,-0.602 -2.526,-0.547 -0.487,0.051 -0.841,0.371 -1.658,1.113 -1.747,1.588 -2.75,0.828 -3.671,0.352 -1.141,-0.588 -1.666,-0.2 -3.154,0.547 -0.387,0.194 -1.228,0.777 -1.228,0.777 z"/></g><g id="g28"><path id="path29" style="fill:#843a03;fill-opacity:1;fill-rule:nonzero;stroke:none" d="m 14.792,10.6631 c 0,0 -0.616,0.074 -0.953,0.239 -0.337,0.164 -0.439,0.468 -0.439,0.468 0,0 -0.047,-0.008 -0.17,-0.286 -0.124,-0.278 -0.14,-0.483 -0.14,-0.483 0,0 -0.086,0.13 -0.137,0.307 -0.051,0.176 -0.047,0.325 -0.047,0.325 0,0 -0.222,-0.107 -0.427,-0.247 -0.207,-0.139 -0.389,-0.28 -0.389,-0.28 0,0 0.073,0.226 0.145,0.382 0.073,0.157 0.186,0.304 0.186,0.304 0,0 -0.354,-0.208 -0.78,-0.361 -0.425,-0.152 -0.835,-0.255 -0.835,-0.255 0,0 0.51,0.559 1,1.347 0.261,0.421 0.437,0.84 0.51,1.471 0.063,0.551 0.038,1.353 0.038,1.353 l 0.361,0.167 0.974,-0.4 c 0,0 -0.052,-1.022 0.007,-1.642 0.059,-0.619 0.243,-1.313 0.592,-1.819 0.349,-0.506 0.504,-0.59 0.504,-0.59"/></g><g id="g30"><path id="path31" style="fill:#0e4f2e;fill-opacity:1;fill-rule:nonzero;stroke:none" d="m 11.1021,15.5508 c 0,0 -0.073,-0.601 0.577,-0.656 0.651,-0.057 1.036,0.199 1.036,0.199 0,0 0.594,-0.338 0.926,-0.376 0.333,-0.038 0.609,0.209 0.609,0.209 0,0 1.321,-0.133 1.462,0.17 0.091,0.197 -0.3,0.677 -0.3,0.677 0,0 0.517,0.532 0.55,0.885 0.019,0.211 -0.25,0.286 -0.25,0.286 0,0 0.164,0.549 -0.006,1.105 -0.171,0.556 -0.729,0.903 -1.274,0.768 -0.544,-0.136 -0.844,-0.55 -0.844,-0.55 0,0 -0.504,0.773 -1.472,0.538 -0.364,-0.088 -0.721,-0.446 -0.721,-0.446 0,0 -0.997,0.117 -1.483,-0.961 -0.213,-0.473 -0.349,-1.287 0.086,-1.801 0.374,-0.441 1.104,-0.047 1.104,-0.047"/></g><g id="g32"><path id="path33" style="fill:#843a03;fill-opacity:1;fill-rule:nonzero;stroke:none" d="m 26.1777,18.4307 c 0,0 -0.463,0.056 -0.717,0.18 -0.254,0.124 -0.33,0.352 -0.33,0.352 0,0 -0.035,-0.006 -0.128,-0.215 -0.093,-0.21 -0.104,-0.363 -0.104,-0.363 0,0 -0.066,0.098 -0.104,0.23 -0.038,0.133 -0.035,0.245 -0.035,0.245 0,0 -0.167,-0.081 -0.321,-0.186 -0.156,-0.104 -0.292,-0.211 -0.292,-0.211 0,0 0.054,0.17 0.109,0.288 0.054,0.117 0.14,0.228 0.14,0.228 0,0 -0.267,-0.156 -0.587,-0.271 -0.319,-0.115 -0.628,-0.192 -0.628,-0.192 0,0 0.384,0.42 0.752,1.013 0.196,0.316 0.329,0.631 0.383,1.105 0.048,0.415 0.028,1.018 0.028,1.018 l 0.272,0.125 0.733,-0.301 c 0,0 -0.039,-0.768 0.005,-1.233 0.044,-0.466 0.182,-0.988 0.445,-1.369 0.262,-0.38 0.379,-0.443 0.379,-0.443"/></g><g id="g34"><path id="path35" style="fill:#0e4f2e;fill-opacity:1;fill-rule:nonzero;stroke:none" d="m 23.4033,22.105 c 0,0 -0.055,-0.452 0.435,-0.494 0.488,-0.042 0.778,0.151 0.778,0.151 0,0 0.446,-0.255 0.696,-0.283 0.249,-0.029 0.457,0.156 0.457,0.156 0,0 0.993,-0.099 1.099,0.129 0.069,0.148 -0.226,0.508 -0.226,0.508 0,0 0.39,0.4 0.414,0.666 0.015,0.159 -0.188,0.214 -0.188,0.214 0,0 0.124,0.413 -0.004,0.831 -0.128,0.418 -0.549,0.679 -0.957,0.578 -0.409,-0.102 -0.635,-0.414 -0.635,-0.414 0,0 -0.379,0.582 -1.107,0.404 -0.273,-0.066 -0.541,-0.335 -0.541,-0.335 0,0 -0.75,0.088 -1.116,-0.723 -0.16,-0.354 -0.262,-0.967 0.066,-1.353 0.28,-0.331 0.829,-0.035 0.829,-0.035"/></g><g id="g36"><path id="path37" style="fill:#843a03;fill-opacity:1;fill-rule:nonzero;stroke:none" d="m 19.8604,20.8516 c 0,0 -0.463,0.056 -0.716,0.18 -0.254,0.124 -0.33,0.352 -0.33,0.352 0,0 -0.035,-0.006 -0.129,-0.215 -0.093,-0.21 -0.104,-0.363 -0.104,-0.363 0,0 -0.065,0.097 -0.103,0.23 -0.038,0.133 -0.035,0.245 -0.035,0.245 0,0 -0.167,-0.081 -0.322,-0.186 -0.155,-0.104 -0.292,-0.211 -0.292,-0.211 0,0 0.055,0.17 0.11,0.288 0.054,0.117 0.139,0.228 0.139,0.228 0,0 -0.266,-0.156 -0.586,-0.271 -0.32,-0.115 -0.628,-0.192 -0.628,-0.192 0,0 0.383,0.42 0.751,1.013 0.197,0.316 0.329,0.631 0.384,1.105 0.048,0.415 0.028,1.018 0.028,1.018 l 0.272,0.125 0.733,-0.301 c 0,0 -0.04,-0.768 0.005,-1.234 0.044,-0.465 0.182,-0.987 0.444,-1.368 0.263,-0.38 0.379,-0.443 0.379,-0.443"/></g><g id="g38"><path id="path39" style="fill:#0e4f2e;fill-opacity:1;fill-rule:nonzero;stroke:none" d="m 17.0869,24.5259 c 0,0 -0.055,-0.452 0.434,-0.494 0.488,-0.042 0.778,0.15 0.778,0.15 0,0 0.447,-0.254 0.696,-0.282 0.25,-0.029 0.458,0.156 0.458,0.156 0,0 0.993,-0.099 1.099,0.129 0.068,0.148 -0.226,0.508 -0.226,0.508 0,0 0.39,0.4 0.414,0.666 0.014,0.159 -0.188,0.214 -0.188,0.214 0,0 0.124,0.413 -0.004,0.831 -0.129,0.418 -0.549,0.679 -0.958,0.577 -0.408,-0.101 -0.634,-0.413 -0.634,-0.413 0,0 -0.379,0.582 -1.107,0.404 -0.273,-0.066 -0.542,-0.335 -0.542,-0.335 0,0 -0.749,0.088 -1.115,-0.723 -0.16,-0.354 -0.262,-0.967 0.065,-1.353 0.281,-0.331 0.83,-0.035 0.83,-0.035"/></g><g id="g38"><path id="path40" style="fill:#bf0a30;fill-opacity:1;fill-rule:nonzero;stroke:none" d="m 0,22.333 h 12 v 0.82 H 0 Z"/><path id="path41" style="fill:#eeeeee;fill-opacity:1;fill-rule:nonzero;stroke:none" d="m 0,23.154 h 12 v 0.723 H 0 Z"/><path id="path42" style="fill:#bf0a30;fill-opacity:1;fill-rule:nonzero;stroke:none" d="M 0,23.876 H 12 V 24.73 H 0 Z"/><path id="path43" style="fill:#eeeeee;fill-opacity:1;fill-rule:nonzero;stroke:none" d="m 0,24.729 h 12 v 0.723 H 0 Z"/><path id="path44" style="fill:#bf0a30;fill-opacity:1;fill-rule:nonzero;stroke:none" d="m 0,25.452 h 12 v 0.854 H 0 Z"/><path id="path45" style="fill:#eeeeee;fill-opacity:1;fill-rule:nonzero;stroke:none" d="m 0,27.0278 v -0.028 -0.694 h 12 v 0.722 H 4 Z"/><path id="path46" style="fill:#bf0a30;fill-opacity:1;fill-rule:nonzero;stroke:none" d="m 4,27.028 h 8 v 0.854 H 4 Z"/><path id="path47" style="fill:#eeeeee;fill-opacity:1;fill-rule:nonzero;stroke:none" d="m 4,27.881 h 8 v 0.722 H 4 Z"/><path id="path48" style="fill:#bf0a30;fill-opacity:1;fill-rule:nonzero;stroke:none" d="m 4,28.604 h 8 v 0.854 H 4 Z"/><path id="path49" style="fill:#eeeeee;fill-opacity:1;fill-rule:nonzero;stroke:none" d="m 4,29.457 h 8 v 0.722 H 4 Z"/><path id="path50" style="fill:#bf0a30;fill-opacity:1;fill-rule:nonzero;stroke:none" d="m 4,30.179 h 8 V 31 H 4 Z"/><path id="path51" style="fill:#002868;fill-opacity:1;fill-rule:nonzero;stroke:none" d="m 2,28.4375 -0.693,-0.503 0.265,0.814 -0.693,0.503 H 1.735 L 2,30.0665 2.265,29.2515 h 0.856 l -0.693,-0.503 0.265,-0.814 z m 2,-0.556 v 0.722 0.854 0.722 0.821 H 0 v -3.973 h 4 z"/><path id="path52" style="fill:#ffffff;fill-opacity:1;fill-rule:nonzero;stroke:none" d="m 3.1206,29.2515 h -0.856 l -0.265,0.814 -0.264,-0.814 h -0.856 l 0.692,-0.503 -0.264,-0.814 0.692,0.503 0.693,-0.503 -0.264,0.814 z"/></g></g></g></g></svg>