<svg xmlns:dc="http://purl.org/dc/elements/1.1/" xmlns:cc="http://creativecommons.org/ns#" xmlns:rdf="http://www.w3.org/1999/02/22-rdf-syntax-ns#" xmlns:svg="http://www.w3.org/2000/svg" xmlns="http://www.w3.org/2000/svg" viewBox="0 0 45 45" style="enable-background:new 0 0 45 45;" xml:space="preserve" version="1.1" id="svg2"><metadata id="metadata8"><rdf:RDF><cc:Work rdf:about=""><dc:format>image/svg+xml</dc:format><dc:type rdf:resource="http://purl.org/dc/dcmitype/StillImage"/></cc:Work></rdf:RDF></metadata><defs id="defs6"><clipPath id="clipPath16" clipPathUnits="userSpaceOnUse"><path id="path18" d="M 4,31 C 1.791,31 0,29.209 0,27 L 0,27 0,9 C 0,6.791 1.791,5 4,5 l 0,0 28,0 c 2.209,0 4,1.791 4,4 l 0,0 0,18 c 0,2.209 -1.791,4 -4,4 l 0,0 -28,0 z"/></clipPath></defs><g transform="matrix(1.25,0,0,-1.25,0,45)" id="g10"><g id="g12"><g xmlns="http://www.w3.org/2000/svg" clip-path="url(#clipPath16)" id="g14"><g id="g20"><path id="path22" style="fill:#00994c;fill-opacity:1;fill-rule:nonzero;stroke:none" d="M 0,5 H 36 V 31 H 0 Z"/></g><g id="g24"><path id="path26" style="fill:#f3e718;fill-opacity:1;fill-rule:nonzero;stroke:none" d="m 36.0039,12.4297 h -25.948 l -7.415,-7.429 h 33.36 z"/></g><g id="g28"><path id="path30" style="fill:#002580;fill-opacity:1;fill-rule:nonzero;stroke:none" d="M 36.001,31 H 2.641 l 7.415,-7.429 h 25.948 z"/></g><g id="g32"><path id="path34" style="fill:#141414;fill-opacity:1;fill-rule:nonzero;stroke:none" d="m 10.0562,23.5713 h 25.948 l -0.004,-1.858 H 9.2872 l -9.287,9.287 h 2.64 z"/></g><g id="g36"><path id="path38" style="fill:#141414;fill-opacity:1;fill-rule:nonzero;stroke:none" d="m 10.0562,12.4297 h 25.948 l -0.004,1.857 H 9.2872 L 2e-4,5.0007 h 2.64 z"/></g><g id="g40"><path id="path42" style="fill:#eeeeee;fill-opacity:1;fill-rule:nonzero;stroke:none" d="m 9.5488,22.3457 h 26.453 l 10e-4,0.593 H 9.7948 l -8.052,8.061 h -0.846 z"/></g><g id="g44"><path id="path46" style="fill:#eeeeee;fill-opacity:1;fill-rule:nonzero;stroke:none" d="m 0.8965,5.001 h 0.847 l 8.051,8.062 h 26.208 l -10e-4,0.592 H 9.5485 Z"/></g><g id="g48"><path id="path50" style="fill:#ffffff;fill-opacity:1;fill-rule:nonzero;stroke:none" d="m 6.0913,14.8965 -0.636,0.838 0.208,0.409 -1.429,1.429 -0.409,-0.207 -0.837,0.635 0.837,0.635 0.409,-0.208 1.429,1.429 -0.208,0.408 0.636,0.839 0.634,-0.839 -0.207,-0.408 1.429,-1.429 0.408,0.208 0.839,-0.635 -0.839,-0.635 -0.408,0.207 -1.429,-1.43 0.207,-0.408 z"/></g><g id="g52"><path id="path54" style="fill:#038301;fill-opacity:1;fill-rule:nonzero;stroke:none" d="M 4.7969,18 6.0909,16.706 7.3849,18 6.0909,19.294 Z"/></g></g></g></g></svg>