<svg xmlns:dc="http://purl.org/dc/elements/1.1/" xmlns:cc="http://creativecommons.org/ns#" xmlns:rdf="http://www.w3.org/1999/02/22-rdf-syntax-ns#" xmlns:svg="http://www.w3.org/2000/svg" xmlns="http://www.w3.org/2000/svg" viewBox="0 0 45 45" style="enable-background:new 0 0 45 45;" xml:space="preserve" version="1.1" id="svg2"><metadata id="metadata8"><rdf:RDF><cc:Work rdf:about=""><dc:format>image/svg+xml</dc:format><dc:type rdf:resource="http://purl.org/dc/dcmitype/StillImage"/></cc:Work></rdf:RDF></metadata><defs id="defs6"><clipPath id="clipPath16" clipPathUnits="userSpaceOnUse"><path id="path18" d="M 0,36 36,36 36,0 0,0 0,36 Z"/></clipPath></defs><g transform="matrix(1.25,0,0,-1.25,0,45)" id="g10"><g id="g12"><g xmlns="http://www.w3.org/2000/svg" clip-path="url(#clipPath16)" id="g14"><g transform="translate(32,31)" id="g20"><path id="path22" style="fill:#ff0000;fill-opacity:1;fill-rule:nonzero;stroke:none" d="m 0,0 -28,0 c -2.209,0 -4,-1.791 -4,-4 l 0,-9 36,0 0,9 C 4,-1.791 2.209,0 0,0"/></g><g transform="translate(0,9)" id="g24"><path id="path26" style="fill:#eeeeee;fill-opacity:1;fill-rule:nonzero;stroke:none" d="m 0,0 c 0,-2.209 1.791,-4 4,-4 l 28,0 c 2.209,0 4,1.791 4,4 L 36,9 0,9 0,0 Z"/></g><g xmlns="http://www.w3.org/2000/svg" transform="translate(13.6587,23.9948)" id="g3019"><path xmlns:inkscape="http://www.inkscape.org/namespaces/inkscape" d="m 0,0 0,-7.993 c 0,-2.208 1.944,-3.997 4.341,-3.997 2.398,0 4.341,1.789 4.341,3.997 L 8.682,0 0,0 z" style="fill:#000000;fill-opacity:1;fill-rule:nonzero;stroke:none" id="path3021" inkscape:connector-curvature="0"/></g><g xmlns="http://www.w3.org/2000/svg" transform="translate(14.0586,23.5954)" id="g3023"><path xmlns:inkscape="http://www.inkscape.org/namespaces/inkscape" d="m 0,0 0,-7.594 c 0,-1.984 1.768,-3.597 3.941,-3.597 2.173,0 3.942,1.613 3.942,3.597 L 7.883,0 0,0 z" style="fill:#eeeeee;fill-opacity:1;fill-rule:nonzero;stroke:none" id="path3025" inkscape:connector-curvature="0"/></g><g xmlns="http://www.w3.org/2000/svg" transform="translate(15.1846,22.06)" id="g3027"><path xmlns:inkscape="http://www.inkscape.org/namespaces/inkscape" d="m 0,0 5.6,0 0,-6.417 -1.24,0 0,2.946 -0.941,0 0,-4.487 -1.239,0 0,4.487 -0.941,0 0,-2.946 L 0,-6.417 0,0 z" style="fill:#fe0000;fill-opacity:1;fill-rule:nonzero;stroke:none" id="path3029" inkscape:connector-curvature="0"/></g></g></g></g></svg>