<svg xmlns:dc="http://purl.org/dc/elements/1.1/" xmlns:cc="http://creativecommons.org/ns#" xmlns:rdf="http://www.w3.org/1999/02/22-rdf-syntax-ns#" xmlns:svg="http://www.w3.org/2000/svg" xmlns="http://www.w3.org/2000/svg" viewBox="0 0 45 45" style="enable-background:new 0 0 45 45;" xml:space="preserve" version="1.1" id="svg2"><metadata id="metadata8"><rdf:RDF><cc:Work rdf:about=""><dc:format>image/svg+xml</dc:format><dc:type rdf:resource="http://purl.org/dc/dcmitype/StillImage"/></cc:Work></rdf:RDF></metadata><defs id="defs6"><clipPath id="clipPath16" clipPathUnits="userSpaceOnUse"><path id="path18" d="M 4,31 C 1.791,31 0,29.209 0,27 L 0,27 0,9 C 0,6.791 1.791,5 4,5 l 0,0 28,0 c 2.209,0 4,1.791 4,4 l 0,0 0,18 c 0,2.209 -1.791,4 -4,4 l 0,0 -28,0 z"/></clipPath></defs><g transform="matrix(1.25,0,0,-1.25,0,45)" id="g10"><g id="g12"><g xmlns="http://www.w3.org/2000/svg" clip-path="url(#clipPath16)" id="g14"><path id="path30" style="fill:#60b2d5" d="M 0,4.9984 H 36 V 31.0016 H 0 Z"/><path id="path32" style="fill:#e5d21f" d="m 0,17.5736 h 36 v 0.8552 H 0 Z"/><path id="path34" style="fill:#eeeeee" d="m 36,7.42192 v -1.3104 c -0.2104,-0.02 -0.44,-0.0304 -0.6704,-0.0304 -4.1792,0 -5.0496,2.6 -8.6592,2.6 -3.62,0 -4.4808,-2.6 -8.6704,-2.6 -4.1896,0 -5.0496,2.6 -8.6696,2.6 -3.6104,0 -4.4808,-2.6 -8.6608,-2.6 -0.2296,0 -0.4592,0.0104 -0.6696,0.0304 v 1.3 c 0.22,-0.0304 0.44,-0.0392 0.6696,-0.0392 3.3504,0 4.7704,2.6088 8.6608,2.6088 3.9,0 5.32,-2.6 8.6696,-2.6 3.3504,0 4.7704,2.6 8.6704,2.6 3.8896,0 5.3096,-2.6 8.6592,-2.6 0.2304,0 0.4504,0.0104 0.6704,0.0408"/><path id="path36" style="fill:#eeeeee" d="m 36,22.84144 v -1.5096 l -3.2704,-1.92 -7.3696,4.3296 -7.36,-4.3296 -7.3696,4.3296 -7.3608,-4.3296 -3.2696,1.92 v 1.5096 l 3.2696,-1.92 7.3608,4.3304 7.3696,-4.3304 7.36,4.3304 7.3696,-4.3304 z"/><path id="path38" style="fill:#e5d21f" d="m 24.52032,22.0516 -0.1,-0.9 -6.2808,0.96 h -0.2792 l -6.28,-0.96 -0.1,0.9 3.8096,0.2696 -3.8096,0.2904 0.1,0.8896 3.7896,-0.5696 -3.66,1.12 0.3,0.8504 3.5704,-1.4104 -3.3304,1.92 0.48,0.76 3.1304,-2.1304 -2.78,2.5704 0.64,0.64 2.5896,-2.8 -2.1496,3.1496 0.76,0.4808 1.8896,-3.28 -1.3896,3.5192 0.86,0.3 1.1096,-3.6296 -0.5696,3.7496 0.9,0.1 0.28,-3.8 0.28,3.8 0.8992,-0.1 -0.5696,-3.7496 1.1104,3.6296 0.8592,-0.3 -1.3896,-3.5192 1.8896,3.28 0.76,-0.4808 -2.1496,-3.1496 2.5896,2.8 0.6408,-0.64 -2.7808,-2.5704 3.1312,2.1304 0.4792,-0.76 -3.3296,-1.92 3.5696,1.4104 0.3,-0.8504 -3.66,-1.12 3.7904,0.5696 0.1,-0.8896 -3.8104,-0.2904 z"/><path id="path40" style="fill:#19649b" d="m 24.22032,13.94144 c -0.1304,-0.4104 -0.2904,-0.8104 -0.4904,-1.18 l 1.1496,-0.62 c -0.2496,-0.44 -0.5296,-0.8696 -0.8592,-1.26 l -1,0.82 c -0.2704,-0.3296 -0.5704,-0.6296 -0.9,-0.9104 l 0.8192,-0.9992 c -0.3896,-0.3104 -0.8192,-0.6 -1.2696,-0.84 l -0.6096,1.14 c -0.3704,-0.2 -0.7704,-0.3608 -1.1808,-0.48 l 0.3808,-1.2504 c -0.4896,-0.1392 -0.9896,-0.2392 -1.5,-0.2896 l -0.1304,1.2896 c -0.2096,-0.02 -0.42,-0.0304 -0.6296,-0.0304 -0.2104,0 -0.4304,0.0104 -0.64,0.0304 l -0.1304,-1.2896 c -0.5,0.0504 -1,0.1504 -1.4904,0.3 l 0.3704,1.24 c -0.4096,0.1192 -0.8096,0.2896 -1.18,0.4896 l -0.6096,-1.14 c -0.44,0.24 -0.86,0.52 -1.26,0.84 l 0.82,1 c -0.3304,0.2704 -0.6408,0.58 -0.9104,0.9104 l -1,-0.8208 c -0.3096,0.3904 -0.6,0.8104 -0.84,1.2608 l 1.14,0.6096 c -0.2,0.3696 -0.36,0.7696 -0.4896,1.18 l -1.2408,-0.3696 c -0.1392,0.48 -0.2392,0.98 -0.2896,1.4896 l 1.28,0.1296 c -0.02,0.2104 -0.0296,0.4208 -0.0296,0.64 0,0.2104 0.0096,0.4208 0.0296,0.6304 l -1.2904,0.1304 c 0.0608,0.5096 0.1608,1.0096 0.3,1.4992 l 1.2408,-0.3792 c 0.12,0.42 0.2896,0.8096 0.4896,1.1896 l -1.1496,0.6104 c 0.2496,0.44 0.5296,0.8696 0.86,1.26 l 0.9896,-0.82 c 0.28,0.3296 0.58,0.6296 0.9104,0.9096 l -0.82,1 c 0.3896,0.3104 0.82,0.6 1.2696,0.84 l 0.6096,-1.14 c 0.3704,0.2 0.7704,0.36 1.1808,0.48 l -0.3808,1.2504 c 0.4904,0.14 0.9904,0.24 1.5,0.2896 l 0.1304,-1.2896 c 0.2104,0.02 0.42,0.0296 0.6304,0.0296 0.2096,0 0.42,-0.0096 0.6296,-0.0296 l 0.1304,1.2896 c 0.5104,-0.0496 1.0104,-0.1496 1.5,-0.3 l -0.3808,-1.24 c 0.4104,-0.12 0.8104,-0.28 1.1808,-0.48 l 0.6096,1.14 c 0.4504,-0.2496 0.8696,-0.5296 1.2696,-0.8496 l -0.8192,-1 c 0.3296,-0.2704 0.6296,-0.5704 0.9096,-0.9 l 1,0.82 c 0.3096,-0.4 0.6,-0.82 0.84,-1.2704 l -1.14,-0.6104 c 0.2,-0.3696 0.36,-0.7592 0.4904,-1.1696 l 1.24,0.3696 c 0.14,-0.4896 0.24,-0.9896 0.2896,-1.4992 l -1.28,-0.12 c 0.02,-0.2104 0.0304,-0.42 0.0304,-0.6408 0,-0.2192 -0.0104,-0.4296 -0.0304,-0.64 l 1.2904,-0.1296 c -0.06,-0.5096 -0.16,-1.0096 -0.3,-1.5 z"/><path id="path42" style="fill:#60b2d5" d="m 22.77736,15.82664 c 0,2.6384 -2.1392,4.7776 -4.7776,4.7776 -2.6384,0 -4.7776,-2.1392 -4.7776,-4.7776 0,-2.6384 2.1392,-4.7776 4.7776,-4.7776 2.6384,0 4.7776,2.1392 4.7776,4.7776"/><path id="path44" style="fill:#eeeeee" d="m 15.74688,13.98128 v -0.3984 h 0.2168 v -0.2216 h 0.2584 v -0.0864 h 0.2608 v -0.1688 h 0.3472 v -0.1744 h 0.3448 v -0.1736 h 0.3488 v -0.264 h 0.3464 v -0.2128 h 0.4328 v -0.1736 h 0.4312 v -0.1496 l 0.544,-0.388 0.3216,0.964 v 1.7912 l 0.1768,0.6448 v 0.608 h -4.1608 v -0.6784 l 0.0856,-0.0856 v -0.7472 z"/><path id="path46" style="fill:#19649b" d="m 19.77656,15.57816 h 0.8624 v -0.4432 l -0.3016,-1.0712 v -1.2288 l -0.4824,-1.1232 v -0.5288 h -0.0328 l -0.544,0.3872 0.3216,0.964 v 1.7912 l 0.1768,0.6448 z"/><path id="path48" style="fill:#19649b" d="m 18.5168,23.3176 h -0.16 v 1.612 h 0.16 z"/><path id="path50" style="fill:#19649b" d="m 18.95,24.5016 v -7.2 c 0,-0.4896 -0.3896,-0.9 -0.8696,-0.9296 v -0.7904 h -0.1608 v 0.7904 c -0.48,0.0296 -0.8696,0.44 -0.8696,0.9296 v 7.2 h 0.16 v -7.2 c 0,-0.4 0.32,-0.74 0.7096,-0.7704 v 8.8304 h 0.1608 v -8.8304 c 0.3896,0.0304 0.7096,0.3704 0.7096,0.7704 v 7.2 z"/><path id="path52" style="fill:#19649b" d="m 17.644,23.3176 h -0.16 v 1.612 h 0.16 z"/><path id="path54" style="fill:#eeeeee" d="m 17.37736,23.40904 c -0.104,-0.0608 -0.0896,-0.2784 0.0328,-0.4856 0.1216,-0.2072 0.3048,-0.3256 0.4088,-0.2648 0.104,0.0616 0.0896,0.2792 -0.032,0.4856 -0.1224,0.208 -0.3056,0.3264 -0.4096,0.2648 m 0,-0.7584 c -0.104,-0.0608 -0.0896,-0.2784 0.0328,-0.4856 0.1216,-0.2072 0.3048,-0.3256 0.4088,-0.2648 0.104,0.0616 0.0896,0.2792 -0.032,0.4864 -0.1224,0.2072 -0.3056,0.3256 -0.4096,0.264 m 0,-0.7584 c -0.104,-0.0608 -0.0896,-0.2784 0.0328,-0.4856 0.1216,-0.2072 0.3048,-0.3256 0.4088,-0.264 0.104,0.0608 0.0896,0.2784 -0.032,0.4856 -0.1224,0.2072 -0.3056,0.3256 -0.4096,0.264 m 0,-0.7584 c -0.104,-0.0608 -0.0896,-0.2784 0.0328,-0.4856 0.1216,-0.2072 0.3048,-0.3256 0.4088,-0.2648 0.104,0.0616 0.0896,0.2792 -0.032,0.4864 -0.1224,0.2072 -0.3056,0.3256 -0.4096,0.264 m 0,-0.7584 c -0.104,-0.0608 -0.0896,-0.2784 0.0328,-0.4856 0.1216,-0.2072 0.3048,-0.3256 0.4088,-0.264 0.104,0.0608 0.0896,0.2784 -0.032,0.4856 -0.1224,0.2072 -0.3056,0.3256 -0.4096,0.264 m 0,-0.7576 c -0.104,-0.0616 -0.0896,-0.2792 0.0328,-0.4864 0.1216,-0.2072 0.3048,-0.3256 0.4088,-0.264 0.104,0.0608 0.0896,0.2784 -0.032,0.4856 -0.1224,0.2072 -0.3056,0.3256 -0.4096,0.2648 m 0,-0.7584 c -0.104,-0.0616 -0.0896,-0.2792 0.0328,-0.4864 0.1216,-0.2072 0.3048,-0.3256 0.4088,-0.264 0.104,0.0608 0.0896,0.2784 -0.032,0.4856 -0.1224,0.2072 -0.3056,0.3256 -0.4096,0.2648 m 0,-0.7584 c -0.104,-0.0616 -0.0896,-0.2792 0.0328,-0.4864 0.1216,-0.2064 0.3048,-0.3256 0.4088,-0.264 0.104,0.0608 0.0896,0.2784 -0.032,0.4856 -0.1224,0.2072 -0.3056,0.3256 -0.4096,0.2648 m 0,-0.7584 c -0.104,-0.0616 -0.0896,-0.2792 0.0328,-0.4864 0.1216,-0.2072 0.3048,-0.3248 0.4088,-0.264 0.104,0.0608 0.0896,0.2792 -0.032,0.4856 -0.1224,0.2072 -0.3056,0.3264 -0.4096,0.2648 m 0.836,5.8016 c -0.1216,-0.2064 -0.136,-0.424 -0.032,-0.4856 0.104,-0.0608 0.2864,0.0576 0.4088,0.2648 0.1216,0.2072 0.1368,0.4248 0.0328,0.4856 -0.104,0.0616 -0.288,-0.0568 -0.4096,-0.2648 m 0,-0.7576 c -0.1216,-0.2072 -0.136,-0.4248 -0.032,-0.4864 0.104,-0.0608 0.2864,0.0576 0.4088,0.2648 0.1216,0.2072 0.1368,0.4248 0.0328,0.4856 -0.104,0.0616 -0.288,-0.0568 -0.4096,-0.264 m 0,-0.7584 c -0.1216,-0.2072 -0.136,-0.4248 -0.032,-0.4856 0.104,-0.0616 0.2864,0.0568 0.4088,0.264 0.1216,0.2072 0.1368,0.4248 0.0328,0.4856 -0.104,0.0616 -0.288,-0.0568 -0.4096,-0.264 m 0,-0.7584 c -0.1216,-0.2072 -0.136,-0.4248 -0.032,-0.4864 0.104,-0.0608 0.2864,0.0576 0.4088,0.2648 0.1216,0.2072 0.1368,0.4248 0.0328,0.4856 -0.104,0.0616 -0.288,-0.0568 -0.4096,-0.264 m 0,-0.7584 c -0.1216,-0.2072 -0.136,-0.4248 -0.032,-0.4856 0.104,-0.0616 0.2864,0.0568 0.4088,0.264 0.1216,0.2072 0.1368,0.4248 0.0328,0.4856 -0.104,0.0616 -0.288,-0.0568 -0.4096,-0.264 m 0,-0.7584 c -0.1216,-0.2072 -0.136,-0.4248 -0.032,-0.4856 0.104,-0.0616 0.2864,0.0568 0.4088,0.264 0.1216,0.2072 0.1368,0.4248 0.0328,0.4864 -0.104,0.0608 -0.288,-0.0576 -0.4096,-0.2648 m 0,-0.7584 c -0.1216,-0.2072 -0.136,-0.4248 -0.032,-0.4856 0.104,-0.0616 0.2864,0.0568 0.4088,0.264 0.1216,0.2072 0.1368,0.4248 0.0328,0.4864 -0.104,0.0608 -0.288,-0.0576 -0.4096,-0.2648 m 0,-0.7584 c -0.1216,-0.2072 -0.136,-0.4248 -0.032,-0.4856 0.104,-0.0616 0.2864,0.0576 0.4088,0.264 0.1216,0.2072 0.1368,0.4248 0.0328,0.4864 -0.104,0.0608 -0.288,-0.0576 -0.4096,-0.2648 m 0.4096,-0.4936 c 0.104,-0.0616 0.0888,-0.2792 -0.0328,-0.4864 -0.1224,-0.2072 -0.3048,-0.3248 -0.4088,-0.264 -0.104,0.0608 -0.0896,0.2792 0.032,0.4856 0.1216,0.2072 0.3056,0.3264 0.4096,0.2648"/></g></g></g></svg>