<svg xmlns:dc="http://purl.org/dc/elements/1.1/" xmlns:cc="http://creativecommons.org/ns#" xmlns:rdf="http://www.w3.org/1999/02/22-rdf-syntax-ns#" xmlns:svg="http://www.w3.org/2000/svg" xmlns="http://www.w3.org/2000/svg" viewBox="0 0 45 45" style="enable-background:new 0 0 45 45;" xml:space="preserve" version="1.1" id="svg2"><metadata id="metadata8"><rdf:RDF><cc:Work rdf:about=""><dc:format>image/svg+xml</dc:format><dc:type rdf:resource="http://purl.org/dc/dcmitype/StillImage"/></cc:Work></rdf:RDF></metadata><defs id="defs6"><clipPath id="clipPath16" clipPathUnits="userSpaceOnUse"><path id="path18" d="M 4,31 C 1.791,31 0,29.209 0,27 L 0,27 0,9 C 0,6.791 1.791,5 4,5 l 0,0 28,0 c 2.209,0 4,1.791 4,4 l 0,0 0,18 c 0,2.209 -1.791,4 -4,4 l 0,0 -28,0 z"/></clipPath></defs><g transform="matrix(1.25,0,0,-1.25,0,45)" id="g10"><g id="g12"><g xmlns="http://www.w3.org/2000/svg" clip-path="url(#clipPath16)" id="g14"><path id="path20" style="fill:#078930;fill-opacity:1;fill-rule:nonzero;stroke:none" d="m 0,31.0005 36,0 0,-26 -36,0 0,26 z"/><path id="path22" style="fill:#eeeeee;fill-opacity:1;fill-rule:nonzero;stroke:none" d="m 0,10.2005 36,0 0,5.2 -36,0 0,-5.2 z"/><path id="path24" style="fill:#eeeeee;fill-opacity:1;fill-rule:nonzero;stroke:none" d="m 0,20.6005 36,0 0,5.2 -36,0 0,-5.2 z"/><g transform="translate(0,31)" id="g3287"><path id="path26" style="fill:#da121a;fill-opacity:1;fill-rule:nonzero;stroke:none" d="M 0,0 0,-26 12.303,-13 0,0 z"/></g><g id="g36"><path id="path30" style="fill:#da121a;fill-opacity:1;fill-rule:nonzero;stroke:none" d="m 12.4673,14.3413 -0.556,-0.092 0.504,-0.252 -0.084,-0.557 0.396,0.401 0.504,-0.252 -0.26,0.5 0.396,0.402 -0.556,-0.092 -0.26,0.501 -0.084,-0.559 z"/><path id="path31" style="fill:#da121a;fill-opacity:1;fill-rule:nonzero;stroke:none" d="m 12.8672,15.9761 -0.564,-0.008 0.461,-0.325 -0.166,-0.539 0.451,0.339 0.462,-0.325 -0.183,0.534 0.451,0.338 -0.563,-0.008 -0.183,0.533 -0.166,-0.539 z"/><path id="path32" style="fill:#da121a;fill-opacity:1;fill-rule:nonzero;stroke:none" d="m 13.5059,17.5332 -0.559,0.076 0.408,-0.39 -0.245,-0.509 0.497,0.268 0.408,-0.39 -0.101,0.555 0.496,0.267 -0.558,0.076 -0.101,0.555 -0.245,-0.508 z"/><path id="path33" style="fill:#da121a;fill-opacity:1;fill-rule:nonzero;stroke:none" d="m 14.3696,18.9771 -0.541,0.158 0.345,-0.446 -0.318,-0.466 0.531,0.191 0.345,-0.447 -0.017,0.564 0.531,0.19 -0.541,0.158 -0.017,0.564 -0.318,-0.466 z"/><path id="path34" style="fill:#da121a;fill-opacity:1;fill-rule:nonzero;stroke:none" d="m 15.4395,20.2764 -0.512,0.237 0.275,-0.492 -0.384,-0.414 0.554,0.109 0.274,-0.493 0.067,0.56 0.554,0.109 -0.512,0.238 0.067,0.56 -0.383,-0.414 z"/><path id="path35" style="fill:#da121a;fill-opacity:1;fill-rule:nonzero;stroke:none" d="m 16.6904,21.4019 -0.471,0.311 0.199,-0.528 -0.441,-0.352 0.563,0.025 0.198,-0.528 0.15,0.544 0.564,0.025 -0.471,0.311 0.15,0.544 -0.441,-0.352 z"/><path id="path36" style="fill:#da121a;fill-opacity:1;fill-rule:nonzero;stroke:none" d="m 18.0952,22.3281 -0.419,0.377 0.117,-0.551 -0.488,-0.283 0.561,-0.059 0.117,-0.551 0.229,0.515 0.561,-0.059 -0.419,0.378 0.23,0.515 -0.489,-0.282 z"/><path id="path37" style="fill:#da121a;fill-opacity:1;fill-rule:nonzero;stroke:none" d="m 19.6221,23.0347 -0.357,0.436 0.033,-0.563 -0.525,-0.206 0.545,-0.143 0.034,-0.563 0.304,0.476 0.546,-0.142 -0.358,0.435 0.303,0.476 -0.525,-0.206 z"/><path id="path38" style="fill:#da121a;fill-opacity:1;fill-rule:nonzero;stroke:none" d="m 21.2383,23.5054 -0.29,0.484 -0.05,-0.561 -0.55,-0.126 0.519,-0.222 -0.051,-0.561 0.371,0.424 0.519,-0.221 -0.289,0.484 0.371,0.425 -0.55,-0.126 z"/><path id="path39" style="fill:#da121a;fill-opacity:1;fill-rule:nonzero;stroke:none" d="m 22.9053,23.7305 -0.214,0.522 -0.134,-0.548 -0.561,-0.042 0.479,-0.297 -0.133,-0.548 0.429,0.365 0.481,-0.296 -0.214,0.522 0.429,0.364 -0.562,-0.042 z"/><path id="path40" style="fill:#da121a;fill-opacity:1;fill-rule:nonzero;stroke:none" d="m 24.5879,23.7046 -0.134,0.548 -0.214,-0.522 -0.562,0.042 0.431,-0.364 -0.214,-0.522 0.479,0.296 0.431,-0.365 -0.134,0.548 0.479,0.297 -0.562,0.042 z"/><path id="path41" style="fill:#da121a;fill-opacity:1;fill-rule:nonzero;stroke:none" d="m 26.248,23.4282 -0.051,0.562 -0.289,-0.485 -0.55,0.126 0.371,-0.425 -0.289,-0.484 0.519,0.222 0.371,-0.425 -0.051,0.562 0.519,0.222 -0.55,0.125 z"/><path id="path42" style="fill:#da121a;fill-opacity:1;fill-rule:nonzero;stroke:none" d="m 27.8477,22.9072 0.034,0.563 -0.358,-0.436 -0.525,0.206 0.303,-0.475 -0.357,-0.436 0.546,0.142 0.302,-0.475 0.034,0.563 0.546,0.142 -0.525,0.206 z"/><path id="path43" style="fill:#da121a;fill-opacity:1;fill-rule:nonzero;stroke:none" d="m 29.3525,22.1538 0.117,0.552 -0.419,-0.378 -0.488,0.282 0.229,-0.515 -0.418,-0.378 0.56,0.06 0.23,-0.516 0.117,0.552 0.56,0.059 -0.488,0.282 z"/><path id="path44" style="fill:#da121a;fill-opacity:1;fill-rule:nonzero;stroke:none" d="m 30.7285,21.1846 0.198,0.528 -0.47,-0.311 -0.442,0.352 0.151,-0.544 -0.471,-0.311 0.563,-0.025 0.15,-0.543 0.198,0.527 0.563,-0.025 -0.44,0.352 z"/><path id="path45" style="fill:#da121a;fill-opacity:1;fill-rule:nonzero;stroke:none" d="m 31.9434,20.021 0.275,0.493 -0.511,-0.238 -0.384,0.413 0.067,-0.559 -0.511,-0.237 0.552,-0.109 0.068,-0.56 0.275,0.492 0.553,-0.109 -0.384,0.414 z"/><path id="path46" style="fill:#da121a;fill-opacity:1;fill-rule:nonzero;stroke:none" d="m 32.9727,18.689 0.345,0.446 -0.541,-0.158 -0.319,0.466 -0.016,-0.564 -0.541,-0.158 0.53,-0.19 -0.017,-0.564 0.345,0.447 0.531,-0.191 -0.317,0.466 z"/><path id="path47" style="fill:#da121a;fill-opacity:1;fill-rule:nonzero;stroke:none" d="m 33.791,17.2193 0.408,0.39 -0.559,-0.076 -0.245,0.508 -0.1,-0.555 -0.56,-0.076 0.497,-0.267 -0.1,-0.555 0.407,0.39 0.497,-0.267 -0.245,0.508 z"/><path id="path48" style="fill:#da121a;fill-opacity:1;fill-rule:nonzero;stroke:none" d="m 34.3818,15.6431 0.461,0.325 -0.564,0.008 -0.167,0.539 -0.181,-0.533 -0.565,0.008 0.452,-0.338 -0.182,-0.534 0.461,0.325 0.451,-0.339 -0.166,0.539 z"/><path id="path49" style="fill:#da121a;fill-opacity:1;fill-rule:nonzero;stroke:none" d="m 34.7305,13.9976 0.505,0.252 -0.557,0.092 -0.084,0.557 -0.26,-0.5 -0.556,0.093 0.395,-0.402 -0.259,-0.5 0.504,0.252 0.396,-0.402 -0.084,0.558 z"/><path id="path50" style="fill:#da121a;fill-opacity:1;fill-rule:nonzero;stroke:none" d="m 12.3154,12.6655 -0.536,-0.174 0.536,-0.174 0,-0.564 0.332,0.456 0.536,-0.174 -0.331,0.456 0.331,0.456 -0.536,-0.174 -0.332,0.456 0,-0.564 z"/><path id="path51" style="fill:#da121a;fill-opacity:1;fill-rule:nonzero;stroke:none" d="m 34.8301,12.3179 0.537,0.174 -0.537,0.174 0,0.564 -0.331,-0.456 -0.536,0.174 0.331,-0.456 -0.331,-0.456 0.536,0.174 0.331,-0.456 0,0.564 z"/></g></g></g></g></svg>