<svg xmlns:dc="http://purl.org/dc/elements/1.1/" xmlns:cc="http://creativecommons.org/ns#" xmlns:rdf="http://www.w3.org/1999/02/22-rdf-syntax-ns#" xmlns:svg="http://www.w3.org/2000/svg" xmlns="http://www.w3.org/2000/svg" viewBox="0 0 45 45" style="enable-background:new 0 0 45 45;" xml:space="preserve" version="1.1" id="svg2"><metadata id="metadata8"><rdf:RDF><cc:Work rdf:about=""><dc:format>image/svg+xml</dc:format><dc:type rdf:resource="http://purl.org/dc/dcmitype/StillImage"/></cc:Work></rdf:RDF></metadata><defs id="defs6"><clipPath id="clipPath16" clipPathUnits="userSpaceOnUse"><path id="path18" d="M 0,36 36,36 36,0 0,0 0,36 Z"/></clipPath></defs><g transform="matrix(1.25,0,0,-1.25,0,45)" id="g10"><g id="g12"><g clip-path="url(#clipPath16)" id="g14"><g id="g20"><path id="path22" style="fill:#078930;fill-opacity:1;fill-rule:nonzero;stroke:none" d="M 32,31 H 4 C 1.791,31 0,29.209 0,27 V 9 C 0,6.791 1.791,5 4,5 h 28 c 2.209,0 4,1.791 4,4 v 18 c 0,2.209 -1.791,4 -4,4"/></g><g id="g24"><path id="path30" style="fill:#eeeeee;fill-opacity:1;fill-rule:nonzero;stroke:none" d="m 19.9873,28.5879 0.408,-1.244 1.31,-0.004 -1.057,-0.773 0.401,-1.247 -1.062,0.767 -1.062,-0.767 0.401,1.247 -1.057,0.773 1.309,0.004 z"/><path id="path31" style="fill:#eeeeee;fill-opacity:1;fill-rule:nonzero;stroke:none" d="m 23.5361,27.144 0.408,-1.244 1.31,-0.004 -1.057,-0.773 0.401,-1.246 -1.062,0.766 -1.062,-0.766 0.401,1.246 -1.057,0.773 1.309,0.004 z"/><path id="path32" style="fill:#eeeeee;fill-opacity:1;fill-rule:nonzero;stroke:none" d="m 26.4766,24.7373 0.409,-1.244 1.309,-0.004 -1.057,-0.773 0.401,-1.247 -1.062,0.767 -1.062,-0.767 0.401,1.247 -1.057,0.773 1.31,0.004 z"/><path id="path33" style="fill:#eeeeee;fill-opacity:1;fill-rule:nonzero;stroke:none" d="m 28.9053,21.7314 0.409,-1.244 1.309,-0.004 -1.057,-0.773 0.401,-1.247 -1.062,0.767 -1.062,-0.767 0.401,1.247 -1.057,0.773 1.31,0.004 z"/><path id="path34" style="fill:#eeeeee;fill-opacity:1;fill-rule:nonzero;stroke:none" d="m 30.8223,18.3594 0.408,-1.243 1.31,-0.005 -1.057,-0.773 0.401,-1.247 -1.062,0.767 -1.062,-0.767 0.401,1.247 -1.057,0.773 1.309,0.005 z"/><path id="path35" style="fill:#eeeeee;fill-opacity:1;fill-rule:nonzero;stroke:none" d="m 32.457,14.8701 0.408,-1.243 1.31,-0.005 -1.057,-0.773 0.401,-1.247 -1.062,0.767 -1.062,-0.767 0.401,1.247 -1.057,0.773 1.309,0.005 z"/><path id="path36" style="fill:#eeeeee;fill-opacity:1;fill-rule:nonzero;stroke:none" d="m 33.6904,11.2578 0.409,-1.243 1.309,-0.005 -1.057,-0.773 0.401,-1.247 -1.062,0.767 -1.062,-0.767 0.401,1.247 -1.057,0.773 1.31,0.005 z"/><path id="path37" style="fill:#eeeeee;fill-opacity:1;fill-rule:nonzero;stroke:none" d="m 16.0132,28.5879 -0.409,-1.244 -1.309,-0.004 1.056,-0.773 -0.4,-1.247 1.062,0.767 1.062,-0.767 -0.401,1.247 1.056,0.773 -1.308,0.004 z"/><path id="path38" style="fill:#eeeeee;fill-opacity:1;fill-rule:nonzero;stroke:none" d="m 12.4644,27.144 -0.409,-1.244 -1.309,-0.004 1.056,-0.773 -0.4,-1.246 1.062,0.766 1.062,-0.766 -0.401,1.246 1.056,0.773 -1.308,0.004 z"/><path id="path39" style="fill:#eeeeee;fill-opacity:1;fill-rule:nonzero;stroke:none" d="m 9.5234,24.7373 -0.409,-1.244 -1.309,-0.004 1.056,-0.773 -0.4,-1.247 1.062,0.767 1.062,-0.767 -0.401,1.247 1.057,0.773 -1.309,0.004 z"/><path id="path40" style="fill:#eeeeee;fill-opacity:1;fill-rule:nonzero;stroke:none" d="m 7.0947,21.7314 -0.409,-1.244 -1.309,-0.004 1.057,-0.773 -0.401,-1.247 1.062,0.767 1.062,-0.767 -0.401,1.247 1.057,0.773 -1.309,0.004 z"/><path id="path41" style="fill:#eeeeee;fill-opacity:1;fill-rule:nonzero;stroke:none" d="m 5.1777,18.3594 -0.409,-1.243 -1.309,-0.005 1.057,-0.773 -0.401,-1.247 1.062,0.767 1.062,-0.767 -0.401,1.247 1.057,0.773 -1.309,0.005 z"/><path id="path42" style="fill:#eeeeee;fill-opacity:1;fill-rule:nonzero;stroke:none" d="m 3.543,14.8701 -0.409,-1.243 -1.309,-0.005 1.057,-0.773 -0.401,-1.247 1.062,0.767 1.062,-0.767 -0.4,1.247 1.056,0.773 -1.309,0.005 z"/><path id="path43" style="fill:#eeeeee;fill-opacity:1;fill-rule:nonzero;stroke:none" d="m 2.3096,11.2578 -0.409,-1.243 -1.309,-0.005 1.056,-0.773 -0.4,-1.247 1.062,0.767 1.062,-0.767 -0.401,1.247 1.057,0.773 -1.309,0.005 z"/></g></g></g></g></svg>