<svg xmlns:dc="http://purl.org/dc/elements/1.1/" xmlns:cc="http://creativecommons.org/ns#" xmlns:rdf="http://www.w3.org/1999/02/22-rdf-syntax-ns#" xmlns:svg="http://www.w3.org/2000/svg" xmlns="http://www.w3.org/2000/svg" viewBox="0 0 45 45" style="enable-background:new 0 0 45 45;" xml:space="preserve" version="1.1" id="svg2"><metadata id="metadata8"><rdf:RDF><cc:Work rdf:about=""><dc:format>image/svg+xml</dc:format><dc:type rdf:resource="http://purl.org/dc/dcmitype/StillImage"/></cc:Work></rdf:RDF></metadata><defs id="defs6"><clipPath id="clipPath16" clipPathUnits="userSpaceOnUse"><path id="path18" d="M 0,36 36,36 36,0 0,0 0,36 Z"/></clipPath></defs><g transform="matrix(1.25,0,0,-1.25,0,45)" id="g10"><g id="g12"><g xmlns="http://www.w3.org/2000/svg" clip-path="url(#clipPath16)" id="g14"><g id="g30"><path id="path20" style="fill:#eeeeee;fill-opacity:1;fill-rule:nonzero;stroke:none" d="M 32,31 4,31 C 1.791,31 0,29.209 0,27 L 0,9 C 0,6.791 1.791,5 4,5 l 28,0 c 2.209,0 4,1.791 4,4 l 0,18 c 0,2.209 -1.791,4 -4,4"/></g><g id="g34"><path id="path30" style="fill:#0076bc;fill-opacity:1;fill-rule:nonzero;stroke:none" d="m 18,9.3154 c 0,0 -0.106,0.208 -0.512,0.443 -0.405,0.236 -1.164,0.253 -2.129,0.742 -0.965,0.488 -3.266,1.894 -3.266,5.165 l 0,2.617 11.814,0 0,-2.617 c 0,-3.271 -2.302,-4.677 -3.265,-5.165 -0.965,-0.489 -1.724,-0.506 -2.13,-0.742 C 18.106,9.5234 18,9.3154 18,9.3154"/><path id="path31" style="fill:#da251c;fill-opacity:1;fill-rule:nonzero;stroke:none" d="m 19.7354,15.6885 c 0,0 -0.232,0.152 -0.5,0.191 -0.268,0.038 -0.462,-0.115 -0.462,-0.115 0,0 0.117,-0.225 0.033,-0.426 -0.094,-0.23 -0.465,-0.347 -0.671,-0.162 -0.211,0.189 -0.118,0.414 -0.118,0.414 0,0 -0.643,0.033 -1.117,-0.506 -0.475,-0.538 -0.283,-1.326 -0.283,-1.326 0,0 0.259,-0.039 0.479,0.518 0.22,0.557 0.462,0.6 0.462,0.6 0,0 -0.36,-0.792 0.126,-1.62 0.289,-0.492 0.808,-0.737 0.808,-0.737 0,0 0.223,0.235 0.517,0.235 0.294,0 0.592,-0.117 0.592,-0.117 0,0 -0.207,0.137 -0.207,0.203 0,0.068 0.141,0.158 0.141,0.158 0,0 -0.161,0.015 -0.216,0.078 -0.055,0.063 0.02,0.204 0.02,0.204 0,0 -0.181,-0.06 -0.244,0.094 -0.097,0.243 0.291,0.326 0.291,0.326 0,0 0.148,0.331 0.294,0.282 0.306,-0.102 0.172,-0.436 0.172,-0.436 0,0 0.095,0.051 0.161,0.008 0.067,-0.043 0.082,-0.168 0.082,-0.168 0,0 0.086,0.114 0.177,0.09 0.189,-0.051 0.169,-0.494 0.169,-0.494 0,0 0.141,0.086 0.286,-0.023 0.145,-0.111 0.286,-0.087 0.286,-0.087 0,0 -0.194,-0.25 -0.356,-0.279 -0.204,-0.035 -0.334,0.044 -0.334,0.044 0,0 -0.31,-0.56 -0.819,-1.063 -0.62,-0.612 -1.259,-0.643 -1.259,-0.643 0,0 0.008,-0.012 0.015,-0.036 0.008,-0.025 0.01,-0.058 0.01,-0.058 0,0 0.089,-0.031 0.139,-0.153 0.064,-0.156 -0.028,-0.275 -0.028,-0.275 0,0 -0.014,0.103 -0.056,0.175 -0.043,0.072 -0.13,0.098 -0.13,0.098 0,0 0.042,-0.101 0.026,-0.212 -0.015,-0.111 -0.104,-0.178 -0.104,-0.178 0,0 0.005,0.081 -0.013,0.147 -0.017,0.065 -0.056,0.092 -0.056,0.092 0,0 -0.001,-0.069 -0.048,-0.146 -0.047,-0.076 -0.189,-0.145 -0.189,-0.145 0,0 0.053,0.086 0.076,0.174 0.024,0.087 0.01,0.123 0.01,0.123 0,0 -0.032,-0.071 -0.127,-0.123 -0.096,-0.053 -0.2,-0.053 -0.2,-0.053 0,0 0.067,0.063 0.109,0.136 0.042,0.071 0.06,0.172 0.06,0.172 0,0 -0.083,0.02 -0.114,0.115 -0.032,0.095 -0.049,0.182 -0.049,0.182 0,0 -0.57,-0.07 -0.802,-0.06 -0.192,0.008 -0.249,0.09 -0.253,0.131 -0.004,0.041 0.047,0.188 0.047,0.188 0,0 -1.351,0.798 -1.351,2.063 0,1.119 0.476,1.8 0.969,2.19 0.925,0.731 2.161,0.475 2.161,0.475 0,0 0.347,0.299 0.764,0.194 0.418,-0.106 0.624,-0.459 0.624,-0.459"/><path id="path32" style="fill:#f7b800;fill-opacity:1;fill-rule:nonzero;stroke:none" d="m 19.5381,13.541 -0.824,1.668 c -0.051,-0.045 -0.113,-0.08 -0.181,-0.102 l 0.819,-1.659 c 0,0 0.058,-0.092 0.145,-0.048 0.075,0.038 0.041,0.141 0.041,0.141"/><path id="path33" style="fill:#f7b800;fill-opacity:1;fill-rule:nonzero;stroke:none" d="m 18.5459,15.5498 -0.684,1.384 0.815,0.243 -0.228,0.449 -0.678,-0.518 -0.302,0.953 -0.483,-0.231 0.597,-0.832 -0.828,-0.262 0.213,-0.439 0.708,0.544 0.684,-1.384 c 0,0 0.057,-0.092 0.145,-0.048 0.075,0.038 0.041,0.141 0.041,0.141"/><path id="path34" style="fill:#f6b801;fill-opacity:1;fill-rule:nonzero;stroke:none" d="m 23.907,26.718 -11.814,0 0,-8.436 11.814,0 0,8.436 z"/><path id="path35" style="fill:#4cb034;fill-opacity:1;fill-rule:nonzero;stroke:none" d="m 19.4063,18.2827 c 0,0 -0.373,0.833 -0.373,1.743 0,0.909 0.142,1.388 0.142,1.388 0,0 0.502,-0.792 1.395,-0.792 0.447,0 1.145,0.431 1.185,1.106 0.047,0.8 -0.369,1.223 -0.369,1.223 0,0 0.583,0.807 -0.086,1.718 -0.761,1.035 -1.742,0.314 -1.742,0.314 0,0 -0.482,1.019 -1.558,1.019 -1.077,0 -1.559,-1.019 -1.559,-1.019 0,0 -0.98,0.721 -1.741,-0.314 -0.67,-0.911 -0.086,-1.718 -0.086,-1.718 0,0 -0.416,-0.423 -0.369,-1.223 0.039,-0.675 0.737,-1.106 1.184,-1.106 0.894,0 1.396,0.792 1.396,0.792 0,0 0.142,-0.479 0.142,-1.388 0,-0.91 -0.373,-1.743 -0.373,-1.743 l 2.812,0 z"/></g></g></g></g></svg>