<svg xmlns:dc="http://purl.org/dc/elements/1.1/" xmlns:cc="http://creativecommons.org/ns#" xmlns:rdf="http://www.w3.org/1999/02/22-rdf-syntax-ns#" xmlns:svg="http://www.w3.org/2000/svg" xmlns="http://www.w3.org/2000/svg" viewBox="0 0 45 45" style="enable-background:new 0 0 45 45;" xml:space="preserve" version="1.1" id="svg2"><metadata id="metadata8"><rdf:RDF><cc:Work rdf:about=""><dc:format>image/svg+xml</dc:format><dc:type rdf:resource="http://purl.org/dc/dcmitype/StillImage"/></cc:Work></rdf:RDF></metadata><defs id="defs6"><clipPath id="clipPath16" clipPathUnits="userSpaceOnUse"><path id="path18" d="M 0,36 36,36 36,0 0,0 0,36 Z"/></clipPath></defs><g transform="matrix(1.25,0,0,-1.25,0,45)" id="g10"><g id="g12"><g clip-path="url(#clipPath16)" id="g14"><g id="g20"><path id="path22" style="fill:#585867;fill-opacity:1;fill-rule:nonzero;stroke:none" d="m 36,27 c 0,2.21 -1.79,4 -4,4 H 4 C 1.79,31 0,29.21 0,27 V 9 C 0,6.79 1.79,5 4,5 h 28 c 2.21,0 4,1.79 4,4 z"/></g><g id="g24"><path id="path26" style="fill:#0035ad;fill-opacity:1;fill-rule:nonzero;stroke:none" d="m 15.5195,21.5332 -1.23,2.109 c 0,0 -0.146,-0.249 -0.16,-0.581 -0.014,-0.333 0.06,-0.602 0.06,-0.602 -1.642,-1.185 -2.711,-3.114 -2.711,-5.292 0,-3.602 2.92,-6.522 6.521,-6.522 3.602,0 6.521,2.92 6.521,6.522 0,2.178 -1.068,4.107 -2.71,5.292 0,0 0.074,0.269 0.06,0.602 -0.014,0.332 -0.16,0.581 -0.16,0.581 l -1.23,-2.109 z"/></g><g id="g28"><path id="path30" style="fill:#ffffff;fill-opacity:1;fill-rule:nonzero;stroke:none" d="m 18,22.1875 c -2.773,0 -5.021,-2.248 -5.021,-5.021 0,-2.773 2.248,-5.021 5.021,-5.021 2.772,0 5.021,2.248 5.021,5.021 0,2.773 -2.249,5.021 -5.021,5.021"/></g><g id="g32"><path id="path34" style="fill:#ffcc00;fill-opacity:1;fill-rule:nonzero;stroke:none" d="m 15.8076,18.436 -0.041,-0.091 v -0.03 l -0.02,-0.039 v -0.071 l -0.031,-0.035 h -0.019 l -0.064,-0.054 -0.034,0.01 -0.152,-0.14 -0.121,0.025 -0.074,-0.058 0.028,-0.208 -0.061,-0.145 0.025,-0.089 -0.008,-0.042 0.069,-0.089 0.016,-0.218 -0.068,-0.134 -0.145,-0.025 -0.008,-0.068 -0.046,-0.074 -0.008,-0.053 -0.055,0.049 -0.072,-0.07 -0.005,-0.073 0.05,-0.04 -10e-4,-0.063 0.111,-0.105 0.022,-0.04 0.097,-0.06 0.008,-0.081 -0.059,-0.08 -0.079,-0.009 -0.083,-0.025 -0.102,0.016 -0.112,0.01 -0.094,0.062 -0.091,-0.029 -0.027,0.04 -0.051,0.012 -0.056,-0.047 -0.012,-0.464 -0.043,-0.003 -0.07,0.023 -0.29,-0.216 -0.196,-0.129 0.047,-0.023 0.052,-0.096 h 0.086 l 0.029,-0.033 -0.009,-0.042 0.109,-0.036 0.025,-0.028 0.108,-0.017 0.027,-0.041 0.092,0.02 0.034,0.117 0.025,0.005 0.096,-0.109 0.118,0.018 0.249,-0.057 0.115,-0.075 0.03,-0.114 0.067,-0.04 0.052,0.039 h 0.112 l 0.031,0.044 0.124,0.037 0.038,0.049 0.037,-0.036 0.094,-0.047 0.02,-0.143 0.089,-0.047 0.075,-0.162 0.044,-0.021 0.095,-0.088 0.139,-0.046 0.135,0.005 0.123,-0.076 0.075,-0.019 0.125,0.089 0.235,-0.046 0.16,0.113 0.113,0.014 -0.096,0.067 -0.046,0.105 0.025,0.122 0.062,0.04 h 0.053 l 0.05,0.067 -0.011,0.036 0.047,0.091 0.141,0.031 0.127,-0.017 0.021,0.034 -0.012,0.03 0.033,0.115 -0.022,0.093 -0.095,0.079 0.021,0.031 0.052,0.023 0.019,0.056 0.034,0.01 0.1,-0.055 0.045,0.016 0.071,0.078 0.072,0.031 0.061,0.05 0.046,-0.005 0.062,-0.103 0.062,-0.039 0.053,0.011 0.092,0.137 0.056,0.027 0.046,0.039 0.089,-0.019 0.104,0.079 0.096,-0.029 0.069,0.031 0.028,0.081 0.19,0.008 0.066,0.044 0.061,-0.034 0.084,-0.105 0.068,0.015 0.037,-0.047 v -0.109 l -0.044,-0.059 0.044,-0.041 0.041,-0.075 0.05,-0.023 0.018,-0.107 0.058,-0.011 0.028,-0.071 -0.003,-0.093 -0.045,-0.037 -0.109,-0.038 0.087,-0.015 0.007,-0.02 -0.01,-0.041 0.062,-0.047 0.063,0.016 0.025,-0.022 0.081,0.011 0.048,-0.034 0.082,0.029 0.024,0.102 0.066,0.042 0.141,-0.001 0.067,-0.047 0.008,-0.143 0.036,-0.081 -0.01,-0.051 0.027,-0.057 0.058,-0.029 -0.081,-0.099 0.016,-0.07 0.039,-0.045 0.029,-0.081 0.1,-0.035 0.082,-0.061 0.065,0.019 0.044,-0.009 0.061,-0.114 0.017,-0.159 0.032,-0.086 0.054,-0.045 0.053,0.072 0.114,0.093 0.097,0.015 0.109,-0.135 0.081,-0.037 0.041,0.013 0.04,0.062 0.039,-0.007 0.151,0.049 0.086,0.006 0.09,0.081 0.033,0.119 -0.048,0.135 -0.156,0.142 -0.057,0.106 0.03,0.091 0.05,0.05 0.058,0.05 0.003,0.081 -0.052,0.033 -0.008,0.055 0.064,0.099 0.022,0.073 -0.024,0.049 -0.032,0.105 -0.085,0.049 -0.115,-0.022 -0.034,0.058 0.047,0.096 0.016,0.107 0.088,0.071 0.019,0.077 -0.037,0.06 -0.027,0.048 -0.085,0.089 0.027,0.175 -0.045,0.139 0.015,0.068 0.084,0.082 0.032,0.125 -0.012,0.074 -0.041,0.078 0.008,0.071 0.023,0.091 -0.021,0.206 0.029,0.106 -0.011,0.179 0.04,0.114 0.077,0.055 0.032,0.093 -0.008,0.059 0.06,0.146 -0.002,0.078 0.062,0.105 -0.033,0.087 0.07,0.019 0.067,0.1 v 0.114 l -0.036,0.077 -0.035,0.029 -0.046,0.138 -0.102,0.042 -0.038,0.033 -0.052,0.005 -0.064,-0.035 -0.111,0.002 -0.102,0.075 -0.18,-0.155 -0.062,-0.084 -0.084,-0.016 -0.038,0.028 -0.011,0.086 -0.047,0.06 -0.038,0.014 -0.013,0.057 0.016,0.111 -0.025,0.035 -0.085,0.042 -0.032,0.052 0.011,0.146 -0.019,0.102 0.039,0.053 -0.008,0.05 -0.057,0.029 -0.015,0.044 0.03,0.107 -0.027,0.087 -0.082,0.113 -0.016,0.045 -0.053,0.001 -0.081,-0.054 -0.084,-0.132 -0.115,-0.037 -0.117,-0.103 -0.052,-0.027 -0.026,-0.067 0.014,-0.045 -0.079,-0.156 -0.052,0.04 -0.008,0.05 -0.023,0.043 -0.018,0.115 -0.058,0.028 -0.062,0.077 -0.135,0.059 -0.078,-0.045 -0.09,0.036 -0.08,0.13 -0.025,0.026 0.031,0.092 -0.008,0.024 -0.004,0.034 -0.058,0.059 -0.084,0.003 -0.049,-0.034 -0.067,-0.114 -0.014,-0.076 -0.029,-0.014 -0.039,-0.057 -0.055,-0.025 -0.058,0.045 -0.075,0.169 -0.064,0.02 -0.003,0.074 0.015,0.081 -0.039,0.024 -0.072,0.087 -0.075,0.064 v 0.058 l -0.048,0.052 -0.03,-0.016 -0.12,0.006 -0.056,-0.04 -0.102,-0.027 -0.137,-0.003 -0.03,0.05 -0.01,0.083 -0.075,0.041 -0.103,-0.054 -0.048,0.022 -0.128,0.008 -0.055,-0.015 -0.097,0.005 -0.139,-0.059 -0.081,0.024 -0.046,-0.129 -0.065,-0.054 -0.035,0.025 -0.118,-0.049 -0.111,0.013 -0.083,-0.041 -0.008,-0.097 0.07,-0.153 0.012,-0.108 -0.064,-0.092 0.026,-0.089 -0.006,-0.165 0.109,-0.208 -0.001,-0.081 -0.063,-0.049 -0.04,0.003 -0.037,-0.062 -0.051,0.022 -0.053,-0.03 -0.024,-0.052 -0.054,-0.017 -0.075,0.048 h -0.039 l -0.091,-0.066 -0.111,0.02 h -0.161 l -0.092,-0.047 -0.038,-0.077 0.021,-0.04 0.033,-0.135 z"/></g><g id="g36"><path id="path38" style="fill:#0035ad;fill-opacity:1;fill-rule:nonzero;stroke:none" d="m 17.1392,17.459 0.551,0.202 c 0,0 -0.084,0.18 -0.384,0.309 -0.286,0.124 -0.712,0.149 -1.033,-0.047 -0.262,-0.16 -0.417,-0.436 -0.417,-0.77 0,-0.583 0.451,-0.897 0.983,-0.897 0.478,0 0.858,0.311 0.928,0.63 0.041,0.188 0.033,0.4 0.033,0.4 h -0.95 v -0.351 h 0.319 c 0,0 -0.016,-0.07 -0.033,-0.097 -0.027,-0.044 -0.114,-0.15 -0.299,-0.15 -0.202,0 -0.388,0.168 -0.388,0.431 0,0.293 0.198,0.473 0.418,0.473 0.196,0 0.272,-0.133 0.272,-0.133"/></g><g id="g40"><path id="path42" style="fill:#ffffff;fill-opacity:1;fill-rule:nonzero;stroke:none" d="m 17.8096,17.6157 -0.344,-0.126 0.064,-0.121 h 0.36 c 0,0 10e-4,-0.234 -0.015,-0.371 -0.015,-0.135 -0.042,-0.185 -0.042,-0.185 l 0.263,-0.527 h 0.675 l -0.441,0.722 c 0,0 0.317,0.045 0.317,0.425 0,0.356 -0.215,0.605 -0.726,0.605 h -0.56 c 0,0 0.121,-0.031 0.277,-0.175 0.129,-0.12 0.172,-0.247 0.172,-0.247"/></g><g id="g44"><path id="path46" style="fill:#dc241f;fill-opacity:1;fill-rule:nonzero;stroke:none" d="m 18.3657,18.0405 h 0.366 l 0.157,-0.58 h 0.083 l 0.159,0.58 h 0.81 l 0.197,-1.754 h -0.564 l -0.092,1.004 h -0.081 l -0.216,-0.668 h -0.477 l -0.137,0.418 c 0,0 0.162,0.09 0.162,0.41 0,0.459 -0.367,0.59 -0.367,0.59"/></g><g id="g48"><path id="path50" style="fill:#ffcc00;fill-opacity:1;fill-rule:nonzero;stroke:none" d="m 17.4688,22.0547 v 0.048 l -1.97,-0.676 v 0.611 l 0.061,0.022 v 0.717 l 0.075,0.029 v 0.451 l -0.024,0.061 1.855,0.653 v 0.339 h 0.156 c 0,0 -0.022,0.323 0.26,0.396 v 0.185 c 0,0 -0.008,0.136 0.118,0.136 0.127,0 0.118,-0.136 0.118,-0.136 v -0.185 c 0.283,-0.073 0.26,-0.396 0.26,-0.396 h 0.156 v -0.339 l 1.855,-0.653 -0.024,-0.061 v -0.451 l 0.076,-0.029 v -0.717 l 0.061,-0.022 v -0.611 l -1.971,0.676 v -0.048 z"/></g></g></g></g></svg>