<svg xmlns:dc="http://purl.org/dc/elements/1.1/" xmlns:cc="http://creativecommons.org/ns#" xmlns:rdf="http://www.w3.org/1999/02/22-rdf-syntax-ns#" xmlns:svg="http://www.w3.org/2000/svg" xmlns="http://www.w3.org/2000/svg" viewBox="0 0 45 45" style="enable-background:new 0 0 45 45;" xml:space="preserve" version="1.1" id="svg2"><metadata id="metadata8"><rdf:RDF><cc:Work rdf:about=""><dc:format>image/svg+xml</dc:format><dc:type rdf:resource="http://purl.org/dc/dcmitype/StillImage"/></cc:Work></rdf:RDF></metadata><defs id="defs6"><clipPath id="clipPath16" clipPathUnits="userSpaceOnUse"><path id="path18" d="M 4,31 C 1.791,31 0,29.209 0,27 L 0,27 0,9 C 0,6.791 1.791,5 4,5 l 0,0 28,0 c 2.209,0 4,1.791 4,4 l 0,0 0,18 c 0,2.209 -1.791,4 -4,4 l 0,0 -28,0 z"/></clipPath><clipPath id="clipPath28" clipPathUnits="userSpaceOnUse"><path id="path30" d="M 0,36 36,36 36,0 0,0 0,36 Z"/></clipPath></defs><g transform="matrix(1.25,0,0,-1.25,0,45)" id="g10"><g id="g12"><g xmlns="http://www.w3.org/2000/svg" clip-path="url(#clipPath16)" id="g14"><g id="g30"><path id="path20" style="fill:#2b5df2;fill-opacity:1;fill-rule:nonzero;stroke:none" d="m 36,18 0,9 c 0,2.209 -1.791,4 -4,4 L 4,31 C 1.791,31 0,29.209 0,27 l 0,-9 36,0 z"/></g><g id="g32"><path id="path30" style="fill:#e20909;fill-opacity:1;fill-rule:nonzero;stroke:none" d="M 0,18 0,9 C 0,6.791 1.791,5 4,5 l 28,0 c 2.209,0 4,1.791 4,4 l 0,9 -36,0 z"/></g><g id="g34"><path id="path40" style="fill:#2b5df2;fill-opacity:1;fill-rule:nonzero;stroke:none" d="m 22.6357,13.0293 0,-3.515 c 0,-0.487 -0.247,-0.905 -0.479,-1.085 -0.462,-0.356 -0.759,-0.359 -1.674,-0.359 -1.053,0 -1.516,0.058 -1.94,-0.245 -0.423,-0.302 -0.543,-0.722 -0.543,-0.722 l 0,5.926 4.636,0 z"/><path id="path41" style="fill:#000000;fill-opacity:1;fill-rule:nonzero;stroke:none" d="m 18,13.0293 0,-5.926 c 0,0 -0.12,0.42 -0.543,0.722 -0.424,0.303 -0.886,0.245 -1.939,0.245 -0.916,0 -1.212,0.003 -1.674,0.359 -0.233,0.18 -0.479,0.598 -0.479,1.085 l 0,3.515 4.635,0 z"/><path id="path42" style="fill:#fcef3c;fill-opacity:1;fill-rule:nonzero;stroke:none" d="m 18,17.971 4.636,0 0,-4.941 -4.636,0 0,4.941 z"/><path id="path43" style="fill:#2b5df2;fill-opacity:1;fill-rule:nonzero;stroke:none" d="m 13.365,15.703 4.635,0 0,-2.674 -4.635,0 0,2.674 z"/><path id="path44" style="fill:#e20909;fill-opacity:1;fill-rule:nonzero;stroke:none" d="m 13.365,15.703 4.635,0 0,0.756 -4.635,0 0,-0.756 z"/><path id="path45" style="fill:#ffffff;fill-opacity:1;fill-rule:nonzero;stroke:none" d="m 13.365,17.215 4.635,0 0,-0.756 -4.635,0 0,0.756 z"/><path id="path46" style="fill:#e20909;fill-opacity:1;fill-rule:nonzero;stroke:none" d="m 18,17.971 -4.635,0 0,-0.756 4.635,0 0,0.756 z"/><path id="path47" style="fill:#ffffff;fill-opacity:1;fill-rule:nonzero;stroke:none" d="m 18.1431,22.6934 1.58,-1.214 -0.078,-2.668 c 0,0 -0.083,-0.099 -0.172,-0.464 -0.09,-0.365 -0.111,-0.522 -0.111,-0.522 0,0 -0.166,0.027 -0.407,0.114 -0.241,0.087 -0.357,0.161 -0.357,0.161 0,0 -0.096,-0.122 -0.298,-0.286 -0.202,-0.165 -0.3,-0.201 -0.3,-0.201 0,0 -0.098,0.036 -0.3,0.201 -0.202,0.164 -0.298,0.286 -0.298,0.286 0,0 -0.115,-0.074 -0.357,-0.161 -0.241,-0.087 -0.408,-0.114 -0.408,-0.114 0,0 -0.019,0.157 -0.11,0.522 -0.09,0.365 -0.172,0.464 -0.172,0.464 l -0.078,2.668 1.58,1.214 0.286,0 z"/><path id="path48" style="fill:#fcef3c;fill-opacity:1;fill-rule:nonzero;stroke:none" d="m 18.2456,27.7676 0.235,0.521 c 0,0 -0.152,0.007 -0.235,-0.077 -0.083,-0.084 -0.145,-0.212 -0.145,-0.212 0,0 0.037,0.344 -0.143,0.344 -0.179,0 -0.143,-0.344 -0.143,-0.344 0,0 -0.062,0.128 -0.145,0.212 -0.083,0.084 -0.235,0.077 -0.235,0.077 l 0.235,-0.521 0.576,0 z"/><path id="path49" style="fill:#000000;fill-opacity:1;fill-rule:nonzero;stroke:none" d="m 18,24.1904 c -0.7,0 -0.57,0.413 -0.57,0.413 0,0 0.247,-0.243 0.312,0.146 0.056,0.33 -0.008,0.558 -0.008,0.558 l -1.075,-1.461 -0.446,-0.079 c 0,0 1.36,1.658 1.36,1.958 0,0.3 -0.108,0.545 -0.108,0.545 0,0 -1.816,-2.014 -2.083,0 -0.266,2.014 1.309,2.249 1.309,2.249 0,0 -0.409,-1.337 0.162,-1.549 0.57,-0.212 0.965,0.076 0.965,0.076 0,0 0.074,0.114 -0.042,0.163 -0.115,0.048 -0.344,-0.018 -0.344,-0.018 0,0 0.014,0.079 0.1,0.141 0.063,0.046 0.206,0.063 0.206,0.132 0,0.165 -0.353,0.094 -0.353,0.094 0,0 -0.029,0.262 0.586,0.262 0.288,0 0.294,-0.053 0.294,-0.053 0,0 0.132,-0.17 0.088,-0.429 -0.035,-0.204 -0.171,-0.292 -0.171,-0.292 0,0 0.394,-0.288 0.965,-0.076 0.571,0.212 0.162,1.549 0.162,1.549 0,0 1.576,-0.235 1.308,-2.249 -0.266,-2.014 -2.082,0 -2.082,0 0,0 -0.108,-0.245 -0.108,-0.545 0,-0.3 1.359,-1.958 1.359,-1.958 l -0.445,0.079 -1.075,1.461 c 0,0 -0.064,-0.228 -0.008,-0.558 0.065,-0.389 0.312,-0.146 0.312,-0.146 0,0 0.13,-0.413 -0.57,-0.413"/><path id="path50" style="fill:#e20909;fill-opacity:1;fill-rule:nonzero;stroke:none" d="m 24.4541,16.9307 c 0,0 0.293,-1.373 -0.854,-2.271 -1.653,-1.295 -0.489,-2.512 -0.489,-2.512 0,0 -0.265,0.763 0.93,1.535 0.894,0.576 1.095,1.317 1.095,1.317 l 0.053,0.208 -0.097,1.374 -0.638,0.349 z"/><path id="path51" style="fill:#e20909;fill-opacity:1;fill-rule:nonzero;stroke:none" d="m 22.2354,20.2661 c 0,0 0.563,0 0.835,0.576 0.307,0.647 0.214,1.396 -0.482,1.876 -1.736,1.194 -0.724,1.853 -0.724,1.853 0,0 -0.1,-0.534 0.812,-0.824 1.036,-0.33 1.51,-0.938 1.58,-1.679 0.185,-1.974 -1.27,-2.371 -1.27,-2.371 l -0.751,0.569 z"/><path id="path52" style="fill:#e20909;fill-opacity:1;fill-rule:nonzero;stroke:none" d="m 18.7783,21.998 c -0.474,0.348 -0.635,0.595 -0.635,0.595 l 0.84,0.024 0.252,-0.123 c 0,0 0.237,-0.241 0.3,-0.527 0.062,-0.287 0.325,-0.527 0.325,-0.527 0,0 -0.321,0 -1.082,0.558"/><path id="path53" style="fill:#fcef3c;fill-opacity:1;fill-rule:nonzero;stroke:none" d="m 25.1357,15 c 0,0 0.247,2.253 -2.283,2.712 -2.529,0.458 -3.765,1.458 -3.765,1.458 l 0,0.848 c 0,0 0.183,0.17 0.377,0.647 0.194,0.476 0.152,0.841 0.152,0.841 0,0 1.796,-0.391 3.633,-2.037 2.86,-2.563 1.886,-4.469 1.886,-4.469"/><path id="path54" style="fill:#2b5df2;fill-opacity:1;fill-rule:nonzero;stroke:none" d="m 11.5459,16.9307 c 0,0 -0.293,-1.373 0.854,-2.271 1.653,-1.295 0.488,-2.512 0.488,-2.512 0,0 0.267,0.763 -0.929,1.535 -0.894,0.576 -1.094,1.317 -1.094,1.317 l -0.054,0.208 0.097,1.374 0.638,0.349 z"/><path id="path55" style="fill:#2b5df2;fill-opacity:1;fill-rule:nonzero;stroke:none" d="m 17.2217,21.998 c 0.474,0.348 0.635,0.595 0.635,0.595 l -0.695,0.037 -0.397,-0.136 c 0,0 -0.237,-0.241 -0.3,-0.527 -0.063,-0.287 -0.325,-0.527 -0.325,-0.527 0,0 0.321,0 1.082,0.558"/><path id="path56" style="fill:#ffffff;fill-opacity:1;fill-rule:nonzero;stroke:none" d="m 10.8647,15 c 0,0 -0.247,2.253 2.282,2.712 2.53,0.458 3.765,1.458 3.765,1.458 l 0,0.848 c 0,0 -0.182,0.17 -0.377,0.647 -0.193,0.476 -0.152,0.841 -0.152,0.841 0,0 -1.796,-0.391 -3.633,-2.037 C 9.8907,16.906 10.8647,15 10.8647,15"/><path id="path57" style="fill:#fcef3c;fill-opacity:1;fill-rule:nonzero;stroke:none" d="m 18,22.5942 c 1.053,0 1.235,-0.1 1.235,-0.1 l 0.018,0.41 c 0,0 0.043,0.243 0.204,0.447 0.16,0.203 0.455,0.337 0.455,0.337 0,0 -0.514,0.408 -0.836,-0.032 -0.321,-0.438 -0.556,-0.498 -0.556,-0.498 0,0 0.074,0.961 -0.52,0.961 -0.594,0 -0.52,-0.961 -0.52,-0.961 0,0 -0.235,0.06 -0.557,0.498 -0.321,0.44 -0.835,0.032 -0.835,0.032 0,0 0.294,-0.134 0.455,-0.337 0.161,-0.204 0.204,-0.447 0.204,-0.447 l 0.018,-0.41 c 0,0 0.182,0.1 1.235,0.1"/></g></g></g></g></svg>