<svg xmlns="http://www.w3.org/2000/svg" viewBox="0 0 45 45"><path fill="#008303" d="m 45,33.75 c 0,2.76125 -2.23875,5 -5,5 H 5 c -2.76125,0 -5,-2.23875 -5,-5 v -22.5 c 0,-2.76125 2.23875,-5 5,-5 h 35 c 2.76125,0 5,2.23875 5,5 z"/><path fill="#feff35" d="m 28.839875,11.830125 v 11.9 c 0,1.94 -2.15,4.31 -6.34,4.31 -4.19,0 -6.34,-2.37 -6.34,-4.31 v -11.9 h 1.65 v 1.14 h 1.1 v -1.14 h 1.66 v 1.14 h 1.1 v -1.14 h 1.66 v 1.14 h 1.1 v -1.14 h 1.66 v 1.14 h 1.1 v -1.14 h 1.65 m 0.2,-0.2 h -0.2 -1.65 -0.2 v 0.2 0.94 h -0.7 v -0.94 -0.2 h -0.2 -1.66 -0.2 v 0.2 0.94 h -0.7 v -0.94 -0.2 h -0.2 -1.66 -0.2 v 0.2 0.94 h -0.7 v -0.94 -0.2 h -0.2 -1.66 -0.2 v 0.2 0.94 h -0.7 v -0.94 -0.2 h -0.2 -1.65 -0.2 v 0.2 11.9 c 0,2.2175 2.44625,4.51 6.54,4.51 4.09375,0 6.54,-2.2925 6.54,-4.51 v -11.9 z"/><path fill="#ff0103" d="m 28.843625,23.733875 c 0,1.93375 -2.15625,4.30875 -6.34375,4.30875 v -6.91625 h 6.34375 z m -1.65375,-11.90375 v 1.14 h -1.1 v -1.14 h -1.66 v 1.14 h -1.1 v -1.14 h -1.66 v 1.14 h -1.1 v -1.14 h -1.66 v 1.14 h -1.1 v -1.14 h -1.65 v 9.29 l 6.34,0.01 v -6.13 h 6.34 v -3.17 z"/><path fill="#0000fe" d="m 22.499875,15.000125 h 6.34375 v 6.125 h -6.34375 z m -6.34375,8.73375 c 0,1.93375 2.15625,4.30875 6.34375,4.30875 v -6.91625 h -6.34375 z"/><path fill="#ff3640" d="m 24.609875,18.478875 v 3.5825 c 0,0.79625 -0.715,1.76875 -2.11,1.76875 -1.395,0 -2.11,-0.9725 -2.11,-1.76875 v -3.5825 z"/><path fill="#feff35" d="m 12.091797,28.630859 c -0.0575,0 -0.116328,0.0036 -0.173828,0.0098 -0.30125,0.03375 -0.576563,0.155625 -0.820313,0.359375 -0.235,0.19625 -0.429375,0.464375 -0.578125,0.796875 -0.23625,0.52625 -0.293672,1 -0.169922,1.40625 0.1275,0.415 0.435313,0.734219 0.914063,0.949219 0.32,0.1425 0.639219,0.219765 0.949219,0.228515 l 0.134765,0.0039 0.05469,-0.123047 0.234375,-0.519531 0.115234,-0.257813 -0.28125,-0.02344 c -0.31375,-0.02625 -0.568906,-0.08156 -0.753906,-0.164063 -0.2575,-0.115 -0.511563,-0.339375 -0.195313,-1.046875 0.1225,-0.2725 0.26875,-0.460391 0.4375,-0.556641 0.08,-0.045 0.160391,-0.06641 0.244141,-0.06641 0.075,0 0.154531,0.01914 0.238281,0.05664 0.085,0.03875 0.166641,0.09352 0.244141,0.166015 0.08875,0.08375 0.174609,0.173282 0.255859,0.269532 l 0.138672,0.164062 0.154297,-0.148437 0.425781,-0.416016 0.01172,-0.01172 -0.771484,2.871094 -0.05078,0.191406 0.19336,0.05273 0.791015,0.21289 0.107422,0.0293 0.08203,-0.07813 1.53125,-1.46875 c -0.0175,0.06 -0.03313,0.115313 -0.04688,0.164063 l -0.398437,1.488281 -0.05273,0.193359 0.193359,0.05273 0.585938,0.15625 0.193359,0.05078 0.05273,-0.193359 0.832031,-3.101563 0.05078,-0.193359 -0.19336,-0.05273 -0.787109,-0.210937 -0.109375,-0.0293 -0.08203,0.07813 -1.527344,1.458984 0.04102,-0.140625 0.402343,-1.501953 0.05274,-0.193359 -0.19336,-0.05078 -0.591797,-0.160157 -0.191406,-0.05078 -0.05078,0.193359 -0.0098,0.0332 -0.05078,-0.06055 c -0.245,-0.28875 -0.525937,-0.507735 -0.835937,-0.646485 -0.2525,-0.1125 -0.503594,-0.169922 -0.746094,-0.169922 z m 20.541015,0.0059 -0.128906,0.05469 -0.767578,0.322266 -0.130859,0.05469 0.0098,0.142579 0.201172,3.412109 0.01563,0.28125 0.259766,-0.109375 0.677734,-0.283203 0.134766,-0.05859 -0.01367,-0.146484 -0.06641,-0.648438 0.80664,-0.337891 0.416016,0.501954 0.09375,0.113281 0.136719,-0.05859 0.675781,-0.283203 0.261719,-0.109375 -0.189453,-0.208984 -2.298829,-2.535157 z m -20.541015,0.195312 c 0.215,0 0.435859,0.05109 0.662109,0.152344 0.285,0.1275 0.539375,0.323594 0.765625,0.589844 l -0.427734,0.416015 c -0.08625,-0.10125 -0.175781,-0.195703 -0.269531,-0.283203 -0.09375,-0.08875 -0.193282,-0.157578 -0.300782,-0.205078 -0.11,-0.04875 -0.216562,-0.07422 -0.320312,-0.07422 -0.1175,0 -0.231797,0.03125 -0.341797,0.09375 -0.2075,0.11875 -0.380234,0.333438 -0.521484,0.648438 -0.2925,0.65375 -0.194375,1.091797 0.296875,1.310547 0.205,0.09125 0.478359,0.15289 0.818359,0.18164 l -0.234375,0.521485 c -0.28625,-0.0075 -0.575547,-0.08039 -0.873047,-0.212891 -0.42625,-0.19125 -0.696641,-0.466172 -0.806641,-0.826172 -0.109999,-0.36 -0.05609,-0.781875 0.160157,-1.265625 0.13625,-0.30625 0.31164,-0.547812 0.52539,-0.726562 0.21375,-0.18 0.452344,-0.2825 0.714844,-0.3125 0.0525,-0.005 0.102344,-0.0078 0.152344,-0.0078 z m 20.490234,0.04297 2.296875,2.535156 -0.675781,0.283203 -0.511719,-0.615234 -1.082031,0.453125 0.08203,0.794922 -0.675781,0.283203 -0.201172,-3.412109 z m -0.1875,0.621094 c 0.0275,0.19125 0.07734,0.672109 0.152344,1.443359 l 0.773437,-0.324219 c -0.46625,-0.55625 -0.731015,-0.869609 -0.791015,-0.943359 -0.06,-0.07375 -0.104766,-0.130781 -0.134766,-0.175781 z m -18.46875,0.03125 0.591797,0.158203 -0.402344,1.498047 L 14,31.582031 l -0.144531,0.451172 0.01367,0.002 2.064453,-1.970703 0.787109,0.210938 -0.832031,3.101562 -0.585938,-0.15625 0.400391,-1.490234 c 0.05375,-0.2 0.144141,-0.491953 0.275391,-0.876953 l -0.01758,-0.0039 -2.076172,1.990235 -0.791016,-0.212891 z m 16.283203,0.09375 c -0.16625,0 -0.350625,0.02563 -0.546875,0.07813 l -0.990234,0.267578 -0.195313,0.05273 v 0.002 l -0.117187,0.01953 -2.394531,0.384765 -0.197266,0.0332 0.01758,0.101563 c -0.227799,-0.06791 -0.453857,-0.113281 -0.673828,-0.113281 -0.05,0 -0.09969,0.0022 -0.148437,0.0059 -0.34,0.02375 -0.637266,0.122266 -0.884766,0.291016 -0.24875,0.1725 -0.435938,0.408125 -0.554687,0.703125 -0.115,0.2875 -0.159063,0.617265 -0.132813,0.978515 0.04,0.575 0.212422,1.01836 0.513672,1.31836 0.275,0.27375 0.642344,0.412109 1.089844,0.412109 0.05375,0 0.108515,-0.0022 0.166015,-0.0059 0.34875,-0.02375 0.667813,-0.107344 0.945313,-0.246094 l 0.117187,-0.06055 -0.0098,-0.132812 -0.03906,-0.570313 -0.01953,-0.28125 -0.259766,0.113281 c -0.29125,0.12625 -0.540234,0.197188 -0.740234,0.210938 l -0.0625,0.002 c -0.14875,0 -0.544766,4.69e-4 -0.603516,-0.832031 -0.02,-0.29875 0.0225,-0.535469 0.125,-0.699219 0.09375,-0.1475 0.225469,-0.222578 0.417969,-0.236328 l 0.05859,-0.002 c 0.07625,0 0.155078,0.0107 0.236328,0.0332 0.1175,0.0325 0.234062,0.07289 0.351562,0.11914 l 0.199219,0.07813 0.06445,-0.203125 0.01172,-0.0332 0.167969,-0.0293 0.664062,-0.107421 0.390625,2.416015 0.03125,0.197266 0.197266,-0.03125 0.671875,-0.109375 0.197266,-0.03125 -0.0332,-0.197266 -0.388672,-2.414062 0.664063,-0.107422 0.197266,-0.03125 -0.02734,-0.171875 0.679687,2.521484 0.05273,0.191406 0.193359,-0.05273 0.658203,-0.175781 0.19336,-0.05273 -0.05273,-0.193359 -0.246094,-0.910156 0.08984,-0.02344 c 0.43,-0.115 0.742891,-0.312734 0.931641,-0.583984 0.19625,-0.2825 0.241015,-0.623125 0.134765,-1.015625 -0.10125,-0.37875 -0.302656,-0.640391 -0.597656,-0.775391 -0.1525,-0.0675 -0.324922,-0.101562 -0.513672,-0.101562 z m 0,0.199218 c 0.16125,0 0.304688,0.02773 0.429688,0.08398 0.23875,0.10875 0.402031,0.325234 0.488281,0.646484 0.09125,0.33375 0.05578,0.61711 -0.105469,0.84961 -0.16125,0.23375 -0.433359,0.400156 -0.818359,0.503906 l -0.283203,0.07617 0.296875,1.105469 -0.658203,0.175781 -0.835938,-3.101563 0.990235,-0.265625 c 0.18125,-0.04875 0.346093,-0.07422 0.496093,-0.07422 z m 2.460938,0.330079 c 0.08875,0.105 0.196016,0.233515 0.322266,0.384765 l -0.271485,0.113282 c -0.01875,-0.186251 -0.03578,-0.351797 -0.05078,-0.498047 z m -4.279297,0.08789 0.08984,0.558594 -0.861328,0.138672 0.421875,2.613281 -0.671875,0.109375 -0.421875,-2.613281 -0.861328,0.140625 -0.02148,-0.130859 0.05859,-0.181641 0.05664,-0.177735 -0.173829,-0.06836 c -0.0032,-0.0012 -0.0066,-0.0027 -0.0098,-0.0039 z m -10.494141,0.0098 -0.06445,0.126953 -1.52539,3.029297 -0.125,0.25 0.27539,0.03906 0.681641,0.0957 0.144531,0.01953 0.0625,-0.132813 0.841797,-1.763672 0.314453,1.923829 0.02344,0.144531 0.146484,0.02148 0.681641,0.0957 0.27539,0.03906 -0.05078,-0.275391 -0.636719,-3.332031 -0.02734,-0.142578 -0.142578,-0.01953 -0.736328,-0.101563 z m 12.16211,0.158203 c -0.06875,0 -0.146875,0.01141 -0.234375,0.03516 l -0.300781,0.08008 0.25,0.921875 0.216796,-0.05859 c 0.2025,-0.055 0.341172,-0.135938 0.419922,-0.242188 0.07875,-0.1075 0.09789,-0.238125 0.05664,-0.390625 -0.0425,-0.15375 -0.11375,-0.255391 -0.21875,-0.306641 -0.05375,-0.02625 -0.115703,-0.03906 -0.189453,-0.03906 z m -12.046875,0.06055 0.736328,0.101562 0.634765,3.333985 -0.679687,-0.09766 -0.326172,-1.994141 c -0.0087,-0.04375 -0.02422,-0.156641 -0.04297,-0.337891 -0.01875,-0.18 -0.03,-0.309375 -0.03125,-0.390625 -0.03,0.0875 -0.07406,0.210235 -0.132812,0.365235 -0.06,0.15625 -0.103359,0.262109 -0.13086,0.318359 l -0.86914,1.824219 -0.681641,-0.09766 z m 1.865234,0.0625 -0.0078,0.201172 -0.101563,3.210937 -0.0059,0.199219 0.199219,0.0078 0.818359,0.02539 0.113281,0.0039 0.06055,-0.0957 1.15625,-1.779297 c -0.0038,0.0625 -0.0065,0.117969 -0.0078,0.167969 l -0.04883,1.542969 -0.0059,0.201172 0.201172,0.0059 0.605469,0.01758 0.199218,0.0078 0.0078,-0.201172 0.101562,-3.208984 0.0059,-0.201172 -0.199219,-0.0059 -0.814453,-0.02539 -0.113281,-0.0039 -0.06055,0.09375 -1.15625,1.769532 0.0078,-0.146485 0.05078,-1.554687 0.0059,-0.201172 -0.199219,-0.0059 -0.613281,-0.01953 z m 10.183594,0.07617 c 0.0425,0 0.07531,0.005 0.101562,0.01758 0.05,0.02375 0.08703,0.08664 0.113282,0.181641 0.0325,0.121249 0.0028,0.1825 -0.02344,0.21875 -0.05,0.0675 -0.15875,0.124765 -0.3125,0.166015 l -0.02539,0.0078 -0.142578,-0.535157 0.105469,-0.02734 c 0.07,-0.01875 0.132344,-0.0293 0.183594,-0.0293 z m -4.949219,0.04297 c 0.23261,0 0.469135,0.04845 0.708984,0.130859 L 25.861332,31.03328 25.75,31.380859 c -0.12375,-0.04875 -0.248047,-0.0893 -0.373047,-0.123047 -0.09875,-0.0275 -0.194062,-0.04102 -0.289062,-0.04102 -0.02375,0 -0.04852,7.53e-4 -0.07227,0.002 -0.25625,0.0175 -0.447969,0.126875 -0.574219,0.328125 -0.1275,0.2025 -0.178047,0.476563 -0.154297,0.820313 0.04875,0.679999 0.315235,1.017578 0.802735,1.017578 0.025,0 0.05187,-6.53e-4 0.07813,-0.002 0.225,-0.01625 0.492187,-0.09156 0.804687,-0.226562 l 0.04102,0.570312 c -0.255,0.1275 -0.545391,0.20211 -0.869141,0.22461 -0.05125,0.0038 -0.10164,0.0059 -0.15039,0.0059 -0.395,0 -0.711016,-0.117265 -0.947266,-0.353515 -0.26625,-0.265 -0.419531,-0.662657 -0.457031,-1.191407 -0.02375,-0.3325 0.01539,-0.628671 0.11914,-0.888671 0.105,-0.25875 0.264922,-0.463985 0.482422,-0.615235 0.2175,-0.15 0.480156,-0.234609 0.785156,-0.255859 0.04375,-0.0038 0.08977,-0.0039 0.134766,-0.0039 z m -5.041016,0.08789 0.611329,0.01953 -0.04883,1.552735 -0.02148,0.414062 -0.03711,0.470703 h 0.01367 l 1.558593,-2.388671 0.816407,0.02539 -0.103516,3.208984 -0.605469,-0.01953 0.04883,-1.541015 c 0.0062,-0.20625 0.02836,-0.511719 0.06836,-0.917969 h -0.01758 l -1.56836,2.412109 -0.818359,-0.02539 z"/><path fill="#ff0103" d="m 11.939453,28.839844 c -0.2625,0.03 -0.499141,0.134453 -0.712891,0.314453 -0.21375,0.17875 -0.38914,0.420312 -0.52539,0.726562 -0.21625,0.4825 -0.270156,0.903672 -0.160156,1.263672 0.11,0.36 0.378437,0.634922 0.804687,0.826172 0.2975,0.1325 0.58875,0.205391 0.875,0.212891 l 0.232422,-0.521485 c -0.34,-0.02875 -0.611406,-0.09039 -0.816406,-0.18164 -0.49125,-0.21875 -0.591328,-0.656797 -0.298828,-1.310547 0.14125,-0.315 0.315937,-0.529688 0.523437,-0.648438 0.20625,-0.1175 0.426406,-0.124531 0.660156,-0.01953 0.1075,0.0475 0.207578,0.116328 0.298828,0.205078 0.09375,0.0875 0.185235,0.181953 0.271485,0.283203 l 0.427734,-0.416015 c -0.22625,-0.26625 -0.482578,-0.462344 -0.767578,-0.589844 -0.27875,-0.125 -0.55,-0.174531 -0.8125,-0.144531 z m 20.642578,0.03516 -0.767578,0.322266 0.201172,3.412109 0.675781,-0.283203 -0.08203,-0.794922 1.080078,-0.453125 0.511719,0.615234 0.675781,-0.283203 z m -0.1875,0.619141 c 0.03,0.045 0.07477,0.102031 0.134766,0.175781 0.06,0.07375 0.324765,0.387109 0.791015,0.943359 L 32.546875,30.9375 c -0.075,-0.77125 -0.124844,-1.252109 -0.152344,-1.443359 z m -18.46875,0.0332 -0.832031,3.099609 0.791016,0.212891 2.076172,-1.990235 0.01758,0.0039 c -0.13125,0.385 -0.221641,0.676953 -0.275391,0.876953 l -0.400391,1.490234 0.585938,0.15625 0.832031,-3.101562 -0.787109,-0.210938 -2.064453,1.970703 -0.01367,-0.002 L 14,31.582031 l 0.115234,-0.398437 0.402344,-1.498047 z m 16.300781,0.292968 c -0.153906,-0.0019 -0.325546,0.02359 -0.513671,0.07422 l -0.990235,0.265625 0.835938,3.101563 0.65625,-0.175781 -0.296875,-1.103516 0.283203,-0.07617 c 0.385,-0.10375 0.657109,-0.270156 0.818359,-0.503906 0.16125,-0.2325 0.198672,-0.517813 0.107422,-0.851563 -0.08625,-0.3225 -0.250234,-0.536484 -0.490234,-0.646484 -0.12,-0.05438 -0.25625,-0.08211 -0.410157,-0.08398 z m -1.835937,0.417969 -2.394531,0.384766 0.0918,0.560547 0.861328,-0.140625 0.421875,2.613281 0.671875,-0.109375 -0.423828,-2.611328 0.861328,-0.138672 z m 1.673828,0.167969 c 0.07078,6.31e-4 0.131719,0.01344 0.183594,0.03906 0.105,0.05125 0.17625,0.152891 0.21875,0.306641 0.04125,0.1525 0.02211,0.283125 -0.05664,0.390625 -0.07875,0.10625 -0.217422,0.187188 -0.419922,0.242188 l -0.216796,0.05859 -0.25,-0.921875 0.300781,-0.08008 c 0.09,-0.02435 0.169453,-0.03579 0.240234,-0.03516 z m -12.052734,0.05859 -1.523438,3.029297 0.679688,0.0957 0.871093,-1.824219 c 0.0275,-0.05625 0.06891,-0.162109 0.128907,-0.318359 0.05875,-0.155 0.104765,-0.277735 0.134765,-0.365235 0.0012,0.08 0.01195,0.212422 0.0332,0.388672 0.01875,0.18125 0.03232,0.294141 0.04102,0.337891 l 0.326172,1.99414 0.681641,0.0957 -0.636719,-3.332032 z m 6.964843,0.1875 c -0.304999,0.02125 -0.567656,0.105859 -0.785156,0.255859 -0.2175,0.15125 -0.377422,0.356485 -0.482422,0.615235 -0.10375,0.26 -0.14289,0.556171 -0.11914,0.888671 0.0375,0.52875 0.190781,0.925157 0.457031,1.191407 0.2675,0.26625 0.633359,0.381406 1.099609,0.347656 0.32375,-0.02125 0.614141,-0.09711 0.869141,-0.22461 l -0.04102,-0.570312 c -0.3125,0.135 -0.58164,0.210313 -0.80664,0.226562 -0.53625,0.03625 -0.827657,-0.300624 -0.878907,-1.015624 -0.02375,-0.34375 0.02484,-0.617813 0.152344,-0.820313 0.12625,-0.20125 0.317969,-0.310625 0.574219,-0.328125 0.11625,-0.0087 0.236328,0.0053 0.361328,0.03906 0.125,0.03375 0.249297,0.0743 0.373047,0.123047 L 25.931641,30.8125 c -0.325,-0.1275 -0.643828,-0.181406 -0.955079,-0.160156 z m -4.90625,0.08398 -0.103515,3.210938 0.818359,0.02539 1.56836,-2.412109 h 0.01758 c -0.04,0.40625 -0.06216,0.711719 -0.06836,0.917969 l -0.04883,1.541015 0.605469,0.01953 0.103516,-3.208984 -0.816407,-0.02539 -1.558593,2.388671 h -0.01367 l 0.03711,-0.470703 0.02148,-0.414062 0.04883,-1.552735 z"/><path fill="#feff35" d="m 4.657375,38.028875 -0.05125,-0.45875 -0.81125,-0.2 -0.87,0.565 -0.495,-0.4375 -0.1875,-0.6175 0.08,-0.70375 -0.12,-0.22375 -0.27,0.17625 -0.2825,-0.41125 -0.27,0.19375 -0.17,-0.0825 -0.3525,-0.765 0.41125,-1.5175 -0.1525,-0.5525 0.0475,-0.89375 h 0.4475 l 0.33,-0.82375 0.58875,-0.74125 h -0.2825 l -0.61125,0.53 -0.17625,-0.41125 1,-0.54125 -0.42375,-0.4 -0.02375,-0.53 -0.50625,0.765 -0.10625,-0.2475 0.4825,-0.67 -0.565,-1.05875 0.1175,-0.47 0.3525,-0.18875 0.69375,0.5525 0.6475,1.765 -0.05875,0.81125 0.2475,0.25875 -0.6,0.93 0.25875,0.165 0.37625,-0.10625 -0.09375,1.165 h 0.57625 l 0.2825,-0.74125 0.37625,0.69375 -0.29375,0.94125 -0.2475,-0.54125 -0.6825,-0.02375 v 0.49375 l 0.2,0.14125 -0.33,0.31125 -0.17625,0.54125 -0.27,0.53 0.39375,-0.08875 0.34125,-0.285 -0.07625,-0.3675 0.2,0.07625 0.0825,0.25875 0.765,-0.18875 -0.34125,-0.33 0.6475,-0.33 0.73,0.4825 -0.61125,0.235 0.61125,0.41125 0.2475,0.4825 0.57625,-0.13 -0.13,-0.70625 h 0.6 l -0.18875,0.67 0.62375,-0.18875 0.74125,0.3525 0.13,-0.41125 0.2,0.42375 -0.165,0.30625 0.38875,0.34125 0.58875,-0.33 0.02375,-0.29375 0.565,0.10625 0.165,0.4 0.97625,0.4825 -0.07,-0.58875 -0.6,-0.22375 0.38875,-0.57625 0.90625,-0.02375 -0.29375,0.47 0.035,0.5525 0.37625,-0.2825 0.41125,0.05875 0.25875,-0.3525 0.09375,0.33 1.05875,-0.01125 0.4,-0.07 0.64125,0.62375 0.10625,-0.1525 -0.20625,-0.69375 0.5125,-0.01125 -0.13625,0.8 0.5375,-0.255 0.71375,0.165 0.2975,0.8 -0.2025,0.48625 -0.55125,0.08625 -0.165,-0.25875 -0.69,0.36875 -1.1375,-0.14125 -0.8,-0.69 -0.235,0.48625 -0.94125,0.14875 -0.275,-0.23125 -0.455,0.2625 -0.6275,0.02375 -0.16125,-0.32 -0.63125,0.305 -0.965,0.01625 -0.72125,-0.41625 -0.4975,0.58875 -0.22375,-0.345 0.345,-0.21125 0.24375,-0.3375 -0.49375,-0.14125 -0.26625,-0.49375 -0.19625,0.94125 -0.03125,0.38375 -0.525,0.02375 -0.02125,-0.61375 0.28875,-0.02375 0.20625,-0.37 -0.02375,-0.29375 0.17875,-0.3975 0.40375,0.08625 0.2825,0.4825 0.265,0.09375 0.04125,0.17 0.53,-0.4475 -0.2525,-0.31125 -0.265,0.25875 -0.08875,-0.1175 0.01125,-0.31125 -0.29375,-0.3525 -0.44125,0.02375 -0.78875,0.98875 -0.22875,0.46 -0.535,0.1875 -0.17625,0.6 -0.44125,0.24375 m -2.0925,-2.04125 0.00625,0.3175 -0.0825,0.1175 v 0.5825 l 0.39375,-0.3825 0.21125,0.435 -0.39375,0.065 -0.065,0.30625 0.2525,0.13 0.72375,-0.4675 -0.17625,-0.15 -0.43,-0.735 -0.44,-0.21875 m 12.17625,0.91 0.19375,0.42 0.41125,-0.25875 0.27,-0.30875 0.19375,0.12 -0.37625,0.43 0.29375,0.12375 0.25875,-0.20625 -0.20625,-0.71125 -0.49375,-0.035 -0.88875,0.42625 h -0.6 l -0.03,-0.2325 0.19375,-0.03 0.1175,0.08875 0.17,-0.08875 -0.45875,-0.3525 -0.11125,0.2825 -0.45875,0.51125 0.3,0.265 0.81125,0.17 0.40625,-0.1825 -0.1475,-0.37625 0.15125,-0.055 m -10.0175,-0.605 -0.86625,0.83125 0.70625,0.0475 0.38,0.23125 0.1925,-0.34125 -0.30625,-0.2875 -0.10625,-0.48125 m 5.47,0.5075 0.1825,0.17 -0.29375,0.3 0.52375,0.09375 0.27,-0.1825 -0.35875,-0.44125 -0.70625,-0.35875 c 0,0 -0.4,0.75875 -0.3825,0.75875 0.0175,0 -0.3,0.04125 -0.3,0.04125 l -0.84125,-0.70625 -0.4525,0.54125 0.3475,0.05875 0.31125,-0.19375 0.03375,0.43 0.325,-0.11125 0.19375,0.165 h 0.44125 l 0.70625,-0.565 m 1.20625,0.4175 0.60625,-0.035 0.37,-0.30875 -0.6,-0.59125 -0.565,0.1 -0.20625,0.465 0.035,0.22375 0.7825,-0.5175 0.1,0.13 -0.5225,0.53375 m 0.95625,-1.05875 -0.18,0.08875 0.35875,0.4475 0.29375,-0.35875 0.1175,0.1 -0.17,0.37 0.30625,0.1 0.29375,-0.34125 -0.34125,-0.365 -0.67875,-0.04125 m -8.2975,-0.07125 -0.27,0.2475 -0.135,-0.52375 0.3475,-0.44125 0.335,0.21125 -0.10625,0.22375 0.47,0.35875 0.2175,-0.24375 -0.3525,-0.42 0.01125,-0.2825 0.27,0.1175 0.20625,0.33 -0.0525,0.84125 0.19375,0.2675 h 0.4 l 0.60625,-0.9025 -0.55875,-0.04125 -0.3825,0.49375 -0.0525,-0.4 0.1825,-0.39375 -0.335,-0.5 -0.58875,-0.0825 -0.58875,0.13 -0.3,-0.0475 -0.52625,0.37 -0.5025,0.235 0.40625,0.23 0.235,0.0175 0.04625,0.22375 0.48875,0.78875 0.28875,-0.28875 0.36125,-0.31125 -0.315,-0.2075 m 5.43,0.23 -0.8825,0.07625 0.6475,0.48875 0.235,-0.565 m -7.65875,-1.3825 0.21125,0.6175 h 0.33 l 0.08,-0.3525 -1.06125,-1.13 -0.27,0.6525 0.3,0.2825 -0.20625,0.19375 0.1525,0.3825 0.365,-0.19375 0.09875,-0.4525 m 0.67,-2.74125 0.15875,0.08875 0.32875,0.41125 0.05375,-0.52875 -0.4475,-0.22375 -0.2475,0.31125 -0.03,0.27 -0.18875,0.2825 0.2175,0.5175 0.29375,-0.10625 -0.22375,0.51125 -0.365,-0.04125 0.07,-0.31125 -0.165,-0.365 -0.4525,0.81125 0.565,0.55875 0.2025,-0.1 v 0.3175 l 0.34375,0.43 0.24125,-0.74125 -0.20625,-0.27625 0.38875,-0.2175 0.09375,-0.6525 -0.4,-0.27625 -0.285,-0.535 0.05375,-0.135 m -0.8175,0.135 -0.265,0.34125 0.08875,0.3475 -0.05875,0.4675 0.51125,-0.87375 -0.27625,-0.2825 m 0.8175,-3.6875 -0.365,0.3825 0.22375,0.19375 -0.01125,0.3175 0.38875,0.52375 -0.07,0.72375 -0.55875,0.67 0.10625,0.31125 -0.2525,0.25875 0.1175,0.30625 0.865,-1.67 v -0.99375 l -0.44375,-1.02375 m -0.8875,-0.965 v 0.4525 l 0.365,0.7825 0.45875,-0.50625 -0.32375,-0.565 -0.5,-0.16375 m 15.06375,9.0825 -0.9525,-1.05875 h 0.69375 l 0.41125,0.4825 -0.1525,0.57625 m -12.185,1.595 0.265,-0.15125 0.43125,-0.2475 0.07,-0.04 0.0225,-0.0775 0.1475,-0.50125 0.35375,-0.12375 0.01625,0.46625 0.0075,0.20125 0.20125,-0.0087 0.525,-0.02375 0.17625,-0.0075 0.01375,-0.17625 0.0075,-0.08875 0.025,0.04 0.22375,0.345 0.14625,0.22625 0.17375,-0.205 0.39,-0.46125 0.5775,0.3325 0.0475,0.0275 0.055,-0.0012 0.965,-0.01625 0.04375,-0.0012 0.04,-0.01875 0.45375,-0.21875 0.0725,0.145 0.0575,0.115 0.12875,-0.005 0.6275,-0.02375 0.05,-0.0012 0.0425,-0.025 0.33375,-0.1925 0.1675,0.14125 0.07,0.05875 0.09,-0.01375 0.94125,-0.14875 0.10375,-0.01625 0.045,-0.09375 0.12125,-0.25125 0.6025,0.52 0.04625,0.04 0.06,0.0075 1.1375,0.14125 0.0625,0.0075 0.05625,-0.03 0.52625,-0.28125 0.065,0.1025 0.07,0.11 0.13,-0.02 0.55125,-0.08625 0.11,-0.0175 0.0425,-0.10375 0.2025,-0.48625 0.03,-0.0725 -0.0275,-0.07375 -0.21,-0.56375 0.34875,0.3875 0.2475,0.275 0.095,-0.3575 0.1525,-0.57625 0.0275,-0.10125 -0.0675,-0.08 -0.41125,-0.4825 -0.06,-0.07 h -0.0925 -0.69375 -0.44875 l 0.3,0.33375 0.255,0.2825 -0.595,-0.1375 -0.0675,-0.01625 -0.0625,0.03 -0.19,0.09 0.07125,-0.42125 0.04125,-0.23875 -0.2425,0.005 -0.5125,0.01125 -0.26125,0.0063 0.075,0.25125 0.095,0.32 -0.305,-0.29625 -0.07375,-0.07125 -0.10125,0.0175 -0.4,0.07 -0.87375,0.0075 -0.0525,-0.1825 -0.1125,-0.3925 -0.24125,0.32875 -0.1875,0.25625 -0.2925,-0.04125 -0.0825,-0.01125 -0.06625,0.05 -0.08,0.06 -0.0075,-0.12 0.26,-0.41625 0.1975,-0.315 -0.3725,0.01 -0.90625,0.02375 -0.1025,0.0025 -0.0575,0.085 -0.38875,0.57625 -0.065,0.0975 -0.055,-0.1325 -0.04125,-0.1 -0.10625,-0.02 -0.565,-0.10625 -0.21875,-0.04125 -0.0175,0.22125 -0.015,0.1875 -0.37125,0.2075 -0.1625,-0.1425 0.08875,-0.16625 0.0475,-0.08875 -0.0425,-0.09125 -0.2,-0.42375 -0.21875,-0.4625 -0.15375,0.4875 -0.06,0.1925 -0.53375,-0.25375 -0.07,-0.03375 -0.07375,0.0225 -0.275,0.0825 0.09,-0.32 0.07125,-0.25375 h -0.26375 -0.6 -0.24 l 0.04375,0.23625 0.095,0.51625 -0.2375,0.05375 -0.17625,-0.345 -0.02375,-0.04625 -0.0425,-0.02875 -0.2925,-0.1975 0.2525,-0.0975 0.3625,-0.13875 -0.32375,-0.21375 -0.73,-0.4825 -0.0975,-0.06375 -0.10375,0.0525 -0.2525,0.12875 0.02875,-0.09125 0.29375,-0.94125 0.025,-0.08125 -0.04,-0.07375 -0.37625,-0.69375 -0.2075,-0.3825 -0.155,0.4075 -0.23375,0.6125 h -0.22125 l 0.07625,-0.94875 0.02375,-0.28625 -0.27625,0.0775 -0.29,0.08125 -0.01375,-0.0087 0.49125,-0.76 0.085,-0.1325 -0.10875,-0.11375 -0.18625,-0.195 0.0525,-0.72375 0.0025,-0.0425 -0.015,-0.04 -0.6475,-1.765 -0.01875,-0.0525 -0.04375,-0.035 -0.69375,-0.5525 -0.1025,-0.0825 -0.11625,0.06125 -0.35375,0.19125 -0.07875,0.04125 -0.02125,0.08625 -0.1175,0.47 -0.01875,0.075 0.03625,0.0675 0.50625,0.94875 -0.41,0.57 -0.06625,0.09125 0.045,0.10375 0.10625,0.2475 0.14625,0.34125 0.205,-0.30875 0.16875,-0.25375 0.0575,0.05375 0.2225,0.21 -0.7575,0.41 -0.16,0.0875 0.0725,0.1675 0.17625,0.41125 0.1075,0.25125 0.1825,-0.1575 -0.265,0.6625 h -0.31125 -0.19 l -0.01,0.19 -0.0475,0.89375 -0.00125,0.0325 0.00875,0.03125 0.13875,0.5 -0.3975,1.465 -0.01875,0.07 0.03,0.06625 0.3525,0.765 0.03,0.065 0.065,0.03125 0.17,0.0825 0.1075,0.05125 0.09625,-0.06875 0.105,-0.075 0.16625,0.24375 0.11,0.16125 0.16375,-0.10625 0.0725,-0.0475 -0.06875,0.60875 -0.005,0.04125 0.0125,0.04 0.1875,0.6175 0.01625,0.05375 0.0425,0.0375 0.495,0.4375 0.11375,0.1 0.1275,-0.0825 0.7975,-0.5175 0.5925,0.14625 0.035,0.32 z m 2.63875,-1.2075 -0.31125,0.19125 -0.0725,0.045 0.00875,-0.10125 0.08,-0.38125 0.0075,0.01375 0.04,0.07375 0.08125,0.02375 0.22,0.0625 z m -4.18875,0.14 -0.06375,0.04125 -0.01375,-0.0075 0.005,-0.0225 z m 11.545,-0.06125 -0.1725,0.0775 -0.69625,-0.14625 -0.10875,-0.09625 0.09875,-0.11 0.01875,0.14625 h 0.17625 0.6 0.03625 z m -3.9025,-0.08625 -0.02125,0.015 -0.07125,-0.0125 0.03,-0.03 0.0225,-0.0225 z m -5.7,-0.04 -0.01375,0.02375 -0.20375,-0.12375 -0.04125,-0.025 -0.04875,-0.0037 -0.25375,-0.0175 0.2825,-0.27125 0.02875,0.13375 0.01375,0.06 0.045,0.0425 z m 10.3325,-0.19375 -0.19375,0.1225 -0.0775,-0.16875 0.38375,-0.18375 0.08625,0.0063 z m -3.2875,0.08125 -0.02375,0.0012 0.14875,-0.1525 0.02625,0.025 z m -1.93125,-0.285 -0.21625,0.17375 c 0.03625,-0.07 0.07625,-0.14625 0.11625,-0.22375 z m -3.855,0.14375 -0.045,0.0037 0.11125,-0.22375 0.0525,-0.06625 0.005,0.0625 z m 2.17125,-0.08625 -0.0025,0.0012 z m 3.17125,-0.22125 -0.17375,0.115 0.04,-0.09125 z m 1.6225,0.0325 -0.005,0.0063 0.0038,-0.0087 z m -7.62,0.0038 h -0.16875 l 0.09875,-0.1275 0.31625,-0.40875 0.10875,0.0075 z m 3.68875,-0.02875 -0.00875,0.0225 -0.025,-0.01875 z m -6.31125,-0.18375 -0.1225,0.11875 -0.055,0.05375 v -0.04625 l 0.04625,-0.06625 0.0375,-0.05375 -0.00125,-0.05375 0.0925,0.04625 z m 9.6775,0.0087 -0.005,0.0063 -0.005,-0.0063 z m -8.71875,-1.1 -0.32875,0.4175 -0.06125,0.0775 0.025,0.09625 0.1,0.3875 -0.13625,-0.21875 -0.04,-0.18875 -0.03125,-0.1475 -0.15,-0.01125 -0.19125,-0.01375 -0.02875,-0.01625 0.15125,-0.07125 0.49,-0.34125 z m 6.6925,0.86875 0.0125,0.1 -0.5775,-0.285 -0.0125,-0.03 0.0925,0.035 z m -3.16625,-0.19375 -0.00875,0.235 v 0.01375 l -0.13875,-0.2375 -0.045,-0.07625 -0.08625,-0.01875 -0.21375,-0.04625 0.06125,-0.075 0.25125,-0.01375 z m -2.86,-0.2225 0.0725,0.08625 -0.0825,-0.0625 z m -0.11125,-0.55125 -0.00125,0.03875 -0.00625,0.15875 -0.22875,-0.145 z m -2.1675,0.18125 h -0.02625 l -0.0775,-0.22625 0.125,0.13375 z m -0.6575,-0.0975 -0.08625,0.04625 -0.02,-0.04875 0.10625,-0.10125 0.0275,-0.02625 z m 0.12875,-0.58 -0.0475,0.2175 -0.0075,0.035 -0.07125,-0.0675 -0.2,-0.1875 0.09875,-0.24 z m 1.52125,0.075 -0.105,0.08875 0.03875,-0.07625 0.0425,-0.1275 z m -0.5675,-0.425 -0.095,0.29 -0.06875,-0.085 v -0.2475 -0.17625 l 0.01875,0.025 z m 1.35875,0.1725 -0.23125,0.0575 -0.02625,-0.08 -0.02875,-0.09125 -0.09,-0.035 -0.2,-0.07625 -0.10125,-0.03875 0.285,-0.27 0.1775,-0.1675 -0.2,-0.14125 -0.115,-0.08125 v -0.18375 l 0.35125,0.0125 0.19625,0.42875 0.09,0.1975 -0.14,0.07125 -0.25,0.1275 0.20125,0.195 z m -1.6,-0.4975 -0.21,0.10375 -0.075,0.0375 -0.27875,-0.275 0.19875,0.0225 0.3625,0.04125 -0.0375,0.02125 z m -0.52125,-0.425 -0.015,0.06875 -0.045,0.20125 -0.0575,-0.0575 z m 0.98375,0.0925 -0.2575,0.145 0.00125,-0.0025 0.22375,-0.51125 0.0425,-0.1 0.0525,0.03625 z m -0.2525,-0.65 -0.03125,0.01125 -0.115,0.04125 -0.1025,-0.24375 0.07375,-0.11125 0.12875,0.2425 0.0225,0.0425 z m -0.89625,-0.375 -0.06375,0.11 -0.00875,-0.03625 0.06375,-0.0825 z m 1.0325,-2.93625 v 0.025 l -0.19125,-0.25875 0.0075,-0.195 z m -0.305,-0.70875 0.015,0.035 -0.02625,-0.0225 z m -0.24625,-0.61875 -0.15875,0.175 -0.21875,-0.46875 v -0.1325 l 0.165,0.05375 z m 38.15375,9.65 -0.43125,-0.2475 -0.17625,-0.6 -0.535,-0.1875 -0.22875,-0.46 -0.78875,-0.98875 -0.4425,-0.02125 -0.29375,0.3525 0.01125,0.31125 -0.08875,0.1175 -0.265,-0.25875 -0.2525,0.31125 0.53,0.4475 0.04125,-0.17 0.265,-0.09375 0.2825,-0.4825 0.40375,-0.08625 0.17875,0.3975 -0.02375,0.29375 0.20625,0.37 0.28875,0.02375 -0.02125,0.61375 -0.525,-0.02375 -0.03125,-0.38375 -0.19875,-0.94 -0.26625,0.49375 -0.49375,0.14125 0.24375,0.3375 0.345,0.21125 -0.22375,0.345 -0.4975,-0.58875 -0.72125,0.41625 -0.965,-0.01625 -0.63125,-0.305 -0.16125,0.32 -0.6275,-0.02375 -0.455,-0.2625 -0.275,0.23125 -0.94125,-0.14875 -0.235,-0.48625 -0.8,0.69 -1.1375,0.14125 -0.69,-0.36875 -0.165,0.26 -0.55125,-0.08625 -0.2025,-0.48625 0.2975,-0.8 0.71375,-0.165 0.5375,0.255 -0.13625,-0.8 0.5125,0.01125 -0.20625,0.69375 0.10625,0.1525 0.64125,-0.62375 0.4,0.07 1.05875,0.01125 0.09375,-0.33 0.25875,0.3525 0.41125,-0.05875 0.37625,0.2825 0.035,-0.5525 -0.29375,-0.47 0.90625,0.02375 0.38875,0.57625 -0.6,0.22375 -0.07,0.58875 0.97625,-0.4825 0.165,-0.4 0.565,-0.10625 0.02375,0.29375 0.58875,0.33 0.38875,-0.34125 -0.165,-0.30625 0.2,-0.42375 0.13,0.41125 0.74125,-0.3525 0.62375,0.18875 -0.18875,-0.67 h 0.6 l -0.13,0.70625 0.57625,0.13 0.2475,-0.4825 0.61125,-0.41125 -0.61125,-0.235 0.73,-0.4825 0.6475,0.33 -0.34125,0.33 0.765,0.18875 0.0825,-0.25875 0.2,-0.07625 -0.07625,0.3675 0.34125,0.285 0.39375,0.08875 -0.27,-0.53 -0.17625,-0.54125 -0.33,-0.31125 0.2,-0.14125 v -0.49375 l -0.6825,0.02375 -0.2475,0.54125 -0.29375,-0.94125 0.37625,-0.69375 0.2825,0.74125 h 0.57625 l -0.09375,-1.165 0.37625,0.10625 0.25875,-0.165 -0.6,-0.93 0.2475,-0.25875 -0.05875,-0.81125 0.6475,-1.765 0.69375,-0.5525 0.3525,0.18875 0.1175,0.47 -0.565,1.05875 0.4825,0.67 -0.10625,0.2475 -0.50625,-0.765 -0.02375,0.53 -0.42375,0.4 1,0.54125 -0.17625,0.41125 -0.61125,-0.53 h -0.2825 l 0.58875,0.74125 0.33,0.82375 h 0.4475 l 0.0475,0.89375 -0.15625,0.5525 0.41125,1.5175 -0.3525,0.765 -0.17,0.0825 -0.27,-0.19375 -0.2825,0.41125 -0.27,-0.17625 -0.12,0.22375 0.08,0.70375 -0.1875,0.6175 -0.495,0.4375 -0.87,-0.565 -0.81125,0.2 -0.05375,0.4575 m 2.09125,-2.04125 -0.44125,0.2175 -0.43,0.735 -0.17625,0.15 0.72375,0.4675 0.2525,-0.13 -0.065,-0.30625 -0.39375,-0.065 0.21125,-0.435 0.39375,0.3825 v -0.5825 l -0.0825,-0.1175 0.0075,-0.31625 m -12.17625,0.91 0.1475,0.05625 -0.1475,0.37625 0.40625,0.1825 0.81125,-0.17 0.3,-0.265 -0.45875,-0.51125 -0.11125,-0.2825 -0.45875,0.35125 0.17,0.08875 0.1175,-0.08875 0.19375,0.03 -0.03,0.2325 h -0.6 l -0.88875,-0.42625 -0.49375,0.035 -0.20625,0.71125 0.25875,0.20625 0.29375,-0.12375 -0.37625,-0.43 0.19375,-0.12 0.27,0.30875 0.41125,0.25875 0.1975,-0.42 m 10.0175,-0.605 -0.10625,0.48125 -0.30625,0.2875 0.1925,0.34125 0.38,-0.23125 0.70625,-0.0475 -0.86625,-0.83125 m -5.47,0.5075 0.70625,0.565 h 0.44125 l 0.19375,-0.165 0.325,0.11125 0.03375,-0.43 0.31125,0.19375 0.3475,-0.05875 -0.4525,-0.54125 -0.84125,0.70625 c 0,0 -0.3175,-0.04125 -0.3,-0.04125 0.0175,0 -0.3825,-0.75875 -0.3825,-0.75875 l -0.70625,0.35875 -0.35875,0.44125 0.27,0.1825 0.52375,-0.09375 -0.29375,-0.3 0.1825,-0.17 m -1.20625,0.4175 -0.52375,-0.535 0.1,-0.13 0.7825,0.5175 0.035,-0.22375 -0.20625,-0.465 -0.565,-0.1 -0.6,0.59125 0.37,0.30875 0.6075,0.03625 m -0.95625,-1.05875 -0.68,0.04125 -0.34125,0.365 0.29375,0.34125 0.30625,-0.1 -0.17,-0.37 0.1175,-0.1 0.29375,0.35875 0.35875,-0.4475 -0.17875,-0.08875 m 8.2975,-0.07125 -0.315,0.20625 0.36125,0.31125 0.28875,0.28875 0.48875,-0.78875 0.0475,-0.22375 0.235,-0.0175 0.40625,-0.23 -0.5025,-0.235 -0.52625,-0.37 -0.3,0.0475 -0.58875,-0.13 -0.58875,0.0825 -0.335,0.5 0.1825,0.39375 -0.0525,0.4 -0.3825,-0.49375 -0.55875,0.04125 0.60625,0.9025 h 0.4 l 0.19375,-0.2675 -0.0525,-0.84125 0.20625,-0.33 0.27,-0.1175 0.01125,0.2825 -0.3525,0.42 0.2175,0.24375 0.47,-0.35875 -0.10625,-0.22375 0.335,-0.21125 0.3475,0.44125 -0.135,0.52375 -0.27125,-0.24625 m -5.42875,0.23 0.235,0.565 0.6475,-0.48875 -0.8825,-0.07625 m 7.65875,-1.3825 0.1,0.4525 0.365,0.19375 0.1525,-0.3825 -0.20625,-0.19375 0.3,-0.2825 -0.27,-0.6525 -1.06125,1.13 0.08,0.3525 h 0.33 l 0.21,-0.6175 m -0.67125,-2.74125 0.05,0.135 -0.285,0.535 -0.4,0.27625 0.09375,0.6525 0.38875,0.2175 -0.20625,0.27625 0.24125,0.74125 0.34375,-0.43 v -0.3175 l 0.2025,0.1 0.565,-0.55875 -0.4525,-0.81125 -0.165,0.365 0.07,0.31125 -0.365,0.04125 -0.22375,-0.51125 0.29375,0.10625 0.2175,-0.5175 -0.18875,-0.2825 -0.03,-0.27 -0.2475,-0.31125 -0.4475,0.22375 0.05375,0.52875 0.32875,-0.41125 0.1625,-0.08875 m 0.8175,0.135 -0.27625,0.2825 0.51125,0.87375 -0.05875,-0.4675 0.08875,-0.3475 -0.265,-0.34125 m -0.8175,-3.6875 -0.44125,1.02375 v 0.99375 l 0.865,1.67 0.1175,-0.30625 -0.2525,-0.25875 0.10625,-0.31125 -0.55875,-0.67 -0.07,-0.72375 0.38875,-0.52375 -0.01125,-0.3175 0.22375,-0.19375 -0.3675,-0.3825 m 0.88875,-0.965 -0.5,0.165 -0.32375,0.565 0.45875,0.50625 0.365,-0.7825 v -0.45375 m -15.065,9.0825 -0.1525,-0.57625 0.41125,-0.4825 h 0.69375 l -0.9525,1.05875 m 12.185,1.595 0.03375,-0.3025 0.035,-0.32 0.5925,-0.14625 0.7975,0.5175 0.1275,0.0825 0.11375,-0.1 0.495,-0.4375 0.0425,-0.0375 0.01625,-0.05375 0.1875,-0.6175 0.0125,-0.04 -0.005,-0.04125 -0.06875,-0.60875 0.0725,0.0475 0.16375,0.10625 0.11,-0.16125 0.16625,-0.24375 0.105,0.075 0.09625,0.06875 0.1075,-0.05125 0.17,-0.0825 0.065,-0.03125 0.03,-0.065 0.3525,-0.765 0.03,-0.06625 -0.01875,-0.07 -0.3975,-1.465 0.13875,-0.5 0.0087,-0.03125 -0.0012,-0.0325 -0.0475,-0.89375 -0.01,-0.19 h -0.19 -0.31125 l -0.265,-0.6625 0.1825,0.1575 0.1075,-0.25125 0.17625,-0.41125 0.0725,-0.1675 -0.16,-0.0875 -0.7575,-0.41 0.2225,-0.21 0.0575,-0.05375 0.16875,0.25375 0.205,0.30875 0.14625,-0.34125 0.10625,-0.2475 0.045,-0.10375 -0.06625,-0.09125 -0.41,-0.57 0.50625,-0.94875 0.03625,-0.0675 -0.01875,-0.075 -0.1175,-0.47 -0.02125,-0.08625 -0.08,-0.03875 -0.3525,-0.18875 -0.11625,-0.06125 -0.1025,0.0825 -0.69375,0.5525 -0.04375,0.035 -0.01875,0.0525 -0.6475,1.765 -0.015,0.04 0.0025,0.0425 0.0525,0.72375 -0.18625,0.195 -0.10875,0.11375 0.085,0.1325 0.49125,0.76 -0.01375,0.0088 -0.29,-0.08125 -0.27625,-0.0775 0.02375,0.28625 0.07625,0.94875 h -0.22125 l -0.23375,-0.6125 -0.155,-0.4075 -0.2075,0.3825 -0.37625,0.69375 -0.04,0.07375 0.025,0.08125 0.29375,0.94125 0.02875,0.09125 -0.2525,-0.12875 -0.10375,-0.0525 -0.0975,0.06375 -0.73,0.4825 -0.32375,0.21375 0.3625,0.13875 0.2525,0.0975 -0.2925,0.1975 -0.0425,0.02875 -0.02375,0.04625 -0.17625,0.345 -0.2375,-0.05375 0.095,-0.51625 0.04375,-0.23625 h -0.24 -0.6 -0.26625 l 0.07125,0.25375 0.09,0.32 -0.275,-0.0825 -0.07375,-0.0225 -0.07,0.03375 -0.5325,0.2525 -0.06,-0.1925 -0.15375,-0.4875 -0.21875,0.4625 -0.2,0.42375 -0.0425,0.09125 0.0475,0.08875 0.08875,0.16625 -0.1625,0.1425 -0.37125,-0.2075 -0.015,-0.1875 -0.0175,-0.22125 -0.21875,0.04125 -0.565,0.10625 -0.10625,0.01875 -0.04125,0.1 -0.055,0.1325 -0.065,-0.0975 -0.38875,-0.57625 -0.0575,-0.085 -0.1025,-0.0025 -0.90625,-0.02375 -0.3725,-0.01 0.1975,0.315 0.26,0.41625 -0.0075,0.12 -0.08,-0.06 -0.06625,-0.05 -0.0825,0.01125 -0.2925,0.04125 -0.1875,-0.25625 -0.24125,-0.32875 -0.1125,0.3925 -0.0525,0.1825 -0.87375,-0.0075 -0.4,-0.07 -0.10125,-0.0175 -0.07375,0.07125 -0.305,0.29625 0.095,-0.32 0.075,-0.25125 -0.26125,-0.0063 -0.5125,-0.01125 -0.24375,-0.005 0.04125,0.23875 0.07125,0.42125 -0.19,-0.09 -0.0625,-0.03 -0.0675,0.01625 -0.595,0.1375 0.255,-0.2825 0.3,-0.33375 h -0.44875 -0.69375 -0.0925 l -0.06,0.07 -0.41125,0.4825 -0.0675,0.08 0.0275,0.10125 0.1525,0.57625 0.095,0.3575 0.2475,-0.275 0.34875,-0.3875 -0.21,0.56375 -0.0275,0.07375 0.03,0.0725 0.2025,0.48625 0.0425,0.10375 0.11,0.0175 0.55125,0.08625 0.13,0.02 0.07,-0.11 0.065,-0.1025 0.52625,0.28125 0.05625,0.03 0.0625,-0.0075 1.1375,-0.14125 0.06,-0.0075 0.04625,-0.04 0.6025,-0.52 0.12125,0.25125 0.045,0.09375 0.10375,0.01625 0.94125,0.14875 0.09,0.01375 0.07,-0.05875 0.1675,-0.14125 0.33375,0.1925 0.0425,0.025 0.05,0.0012 0.6275,0.02375 0.12875,0.005 0.0575,-0.115 0.0725,-0.145 0.45375,0.21875 0.04,0.01875 0.04375,0.0012 0.965,0.01625 0.055,0.0012 0.0475,-0.0275 0.5775,-0.3325 0.39,0.46125 0.17375,0.205 0.14625,-0.22625 0.22375,-0.345 0.025,-0.04 0.0075,0.08875 0.01375,0.17625 0.17625,0.0075 0.525,0.02375 0.20125,0.0087 0.0075,-0.20125 0.01625,-0.46625 0.35375,0.12375 0.1475,0.50125 0.0225,0.0775 0.07,0.04 0.43125,0.2475 z m -2.63875,-1.2075 -0.05375,-0.07375 0.22,-0.0625 0.08125,-0.02375 0.04,-0.07375 0.0075,-0.01375 0.08,0.38125 0.0087,0.10125 -0.0725,-0.045 z m 4.18875,0.14 0.07375,0.0125 0.005,0.0225 -0.01375,0.0075 z m -11.54375,-0.06125 0.05,-0.1275 h 0.03625 0.6 0.17625 l 0.01875,-0.14625 0.09875,0.11 -0.10875,0.09625 -0.69625,0.14625 z m 3.9025,-0.08625 0.04125,-0.05125 0.0225,0.0225 0.03,0.03 -0.07125,0.0125 z m 5.69875,-0.04 0.19125,-0.18 0.045,-0.0425 0.01375,-0.06 0.02875,-0.13375 0.2825,0.27125 -0.25375,0.0175 -0.04875,0.0037 -0.04125,0.025 -0.20375,0.12375 z m -10.3325,-0.19375 -0.1975,-0.225 0.08625,-0.0062 0.38375,0.18375 -0.0775,0.16875 z m 3.2875,0.08125 -0.15,-0.125 0.02625,-0.025 0.14875,0.1525 z m 1.93125,-0.285 0.1,-0.05125 c 0.04,0.0775 0.08,0.15375 0.11625,0.22375 z m 3.85625,0.14375 -0.125,-0.22375 0.005,-0.0625 0.0525,0.06625 0.11125,0.22375 z m -2.1725,-0.08625 v 0 l 0.0025,0.0012 z m -3.17125,-0.22125 0.13375,0.02375 0.04,0.09125 z m -1.6225,0.0325 0.0012,-0.0012 0.0038,0.0087 z m 7.62,0.0038 -0.355,-0.52875 0.10875,-0.0075 0.31625,0.40875 0.09875,0.1275 z m -3.68875,-0.02875 0.03375,0.0025 -0.025,0.01875 z m 6.31125,-0.18375 0.0012,-0.0025 0.0925,-0.04625 -0.0012,0.05375 0.0375,0.05375 0.04625,0.06625 v 0.04625 l -0.055,-0.05375 z m -9.67625,0.0087 0.01,-0.0012 -0.005,0.0062 z m 8.7175,-1.1 0.19875,-0.03125 0.49,0.34125 0.15125,0.07125 -0.02875,0.01625 -0.19125,0.01375 -0.15,0.01125 -0.03125,0.1475 -0.04,0.18875 -0.13625,0.21875 0.1,-0.3875 0.025,-0.09625 -0.06125,-0.0775 z m -6.6925,0.86875 0.48625,-0.18125 0.0925,-0.035 -0.0125,0.03 -0.5775,0.28625 z m 3.16625,-0.19375 0.18125,-0.2175 0.25125,0.01375 0.06125,0.075 -0.21375,0.04625 -0.08625,0.01875 -0.04625,0.07625 -0.13875,0.2375 v -0.01375 z m 2.86,-0.2225 0.01125,0.0225 -0.0825,0.0625 z m 0.1125,-0.55125 0.2375,0.0525 -0.22875,0.145 -0.0062,-0.15875 z m 2.1675,0.18125 -0.02125,-0.09375 0.125,-0.13375 -0.0775,0.22625 h -0.02625 z m 0.65625,-0.0975 -0.02875,-0.13 0.0275,0.02625 0.10625,0.10125 -0.02,0.04875 z m -0.12875,-0.58 0.2275,-0.2425 0.09875,0.24 -0.2,0.1875 -0.07125,0.0675 -0.0075,-0.035 z m -1.52125,0.075 0.02375,-0.11625 0.0425,0.1275 0.03875,0.07625 z m 0.5675,-0.425 0.14375,-0.19375 0.01875,-0.025 v 0.17625 0.2475 l -0.06875,0.085 z m -1.35875,0.1725 0.08125,-0.0775 0.20125,-0.195 -0.25,-0.1275 -0.14,-0.07125 0.09,-0.1975 0.19625,-0.42875 0.35125,-0.0125 v 0.18375 l -0.115,0.08125 -0.2,0.14125 0.1775,0.1675 0.285,0.27 -0.10125,0.03875 -0.2,0.07625 -0.09,0.035 -0.02875,0.09125 -0.02625,0.08 z m 1.6,-0.4975 0.0375,-0.05125 -0.0375,-0.02125 0.3625,-0.04125 0.19875,-0.0225 -0.27875,0.275 -0.075,-0.0375 z m 0.52125,-0.425 0.11875,0.2125 -0.0575,0.0575 -0.045,-0.20125 z m -0.98375,0.0925 -0.0625,-0.4325 0.0525,-0.03625 0.0425,0.09875 0.22375,0.51125 0.0012,0.0025 z m 0.2525,-0.65 0.02375,-0.01625 0.0225,-0.0425 0.12875,-0.2425 0.07375,0.11125 -0.1025,0.24375 -0.115,-0.04125 z m 0.89625,-0.375 0.0087,-0.0087 0.06375,0.0825 -0.0087,0.03625 z m -1.0325,-2.93625 0.185,-0.4275 0.0075,0.195 -0.19125,0.25875 v -0.02625 z m 0.305,-0.70875 0.01125,0.0125 -0.02625,0.0225 z m 0.24625,-0.61875 0.21375,-0.3725 0.165,-0.05375 v 0.1325 l -0.21875,0.46875 z m -38.1525,-21.40875 0.43125,0.2475 0.17625,0.6 0.535,0.1875 0.22875,0.46 0.78875,0.98875 0.44125,0.02375 0.29375,-0.3525 -0.01125,-0.31125 0.08875,-0.1175 0.265,0.25875 0.2525,-0.31125 -0.53,-0.4475 -0.04125,0.17 -0.265,0.09375 -0.2825,0.4825 -0.40375,0.08625 -0.17875,-0.3975 0.02375,-0.29375 -0.20625,-0.37 -0.28875,-0.02375 0.02125,-0.61375 0.525,0.02375 0.03125,0.38375 0.19625,0.94125 0.26625,-0.49375 0.49375,-0.14125 -0.24375,-0.3375 -0.345,-0.21125 0.22375,-0.345 0.4975,0.58875 0.72125,-0.41625 0.965,0.01625 0.63125,0.305 0.16125,-0.32 0.6275,0.02375 0.455,0.2625 0.275,-0.23125 0.94125,0.14875 0.235,0.48625 0.8,-0.69 1.1375,-0.14125 0.69,0.36875 0.165,-0.25875 0.55125,0.08625 0.2025,0.48625 -0.2975,0.8 -0.71375,0.165 -0.5375,-0.255 0.13625,0.8 -0.5125,-0.01125 0.20625,-0.69375 -0.105,-0.15875 -0.64125,0.62375 -0.4,-0.07 -1.05875,-0.01125 -0.09375,0.33 -0.25875,-0.3525 -0.41125,0.05875 -0.37625,-0.2825 -0.035,0.5525 0.29375,0.47 -0.90625,-0.02375 -0.38875,-0.57625 0.6,-0.22375 0.07,-0.58875 -0.97625,0.4825 -0.165,0.4 -0.565,0.10625 -0.02375,-0.29375 -0.58875,-0.33 -0.38875,0.34125 0.165,0.30625 -0.2,0.42375 -0.13,-0.41125 -0.74125,0.3525 -0.62375,-0.18875 0.18875,0.67 h -0.6 l 0.13,-0.70625 -0.57625,-0.13 -0.2475,0.4825 -0.61125,0.41125 0.61125,0.235 -0.73,0.4825 -0.6475,-0.33 0.34125,-0.33 -0.765,-0.18875 -0.0825,0.25875 -0.2,0.07625 0.07625,-0.3675 -0.34125,-0.285 -0.39375,-0.08875 0.27,0.53 0.17625,0.54125 0.33,0.31125 -0.2,0.14125 v 0.4975 l 0.6825,-0.02375 0.2475,-0.54125 0.29375,0.94125 -0.37625,0.69375 -0.2825,-0.74125 h -0.57625 l 0.09375,1.165 -0.37625,-0.10625 -0.25875,0.165 0.6,0.93 -0.2475,0.25875 0.05875,0.81125 -0.6475,1.765 -0.69375,0.5525 -0.3525,-0.18875 -0.1175,-0.47 0.565,-1.05875 -0.4825,-0.67 0.10625,-0.2475 0.50625,0.765 0.02375,-0.53 0.42375,-0.4 -1,-0.54125 0.17625,-0.41125 0.61125,0.53 h 0.2825 l -0.58625,-0.74125 -0.33,-0.82375 h -0.4475 l -0.0475,-0.89375 0.1525,-0.5525 -0.41125,-1.5175 0.3525,-0.765 0.17,-0.0825 0.27,0.19375 0.2825,-0.41125 0.27,0.17625 0.12,-0.22375 -0.08,-0.70375 0.1875,-0.6175 0.495,-0.4375 0.87,0.565 0.81125,-0.2 0.0575,-0.46 m -2.0925,2.04125 0.44125,-0.2175 0.43,-0.735 0.17625,-0.15 -0.72375,-0.4675 -0.2525,0.13 0.065,0.30625 0.39375,0.065 -0.21125,0.435 -0.39375,-0.3825 v 0.58125 l 0.0825,0.1175 -0.0075,0.3175 m 12.17625,-0.90875 -0.1475,-0.05625 0.1475,-0.37625 -0.40625,-0.1825 -0.81125,0.17 -0.3,0.265 0.45875,0.51125 0.11125,0.2825 0.45875,-0.3525 -0.17,-0.08875 -0.1175,0.08875 -0.19375,-0.03 0.03,-0.2325 h 0.6 l 0.88875,0.42625 0.49375,-0.035 0.20625,-0.71125 -0.25875,-0.20625 -0.29625,0.125 0.37625,0.43 -0.19375,0.12 -0.27,-0.30875 -0.4125,-0.25875 -0.19375,0.42 m -10.0175,0.605 0.10625,-0.48125 0.30625,-0.2875 -0.1925,-0.34125 -0.38,0.23125 -0.70625,0.0475 0.86625,0.83125 m 5.47,-0.5075 -0.70625,-0.565 h -0.44125 l -0.19375,0.165 -0.325,-0.11125 -0.03375,0.43 -0.31125,-0.19375 -0.3475,0.05875 0.4525,0.54125 0.84125,-0.70625 c 0,0 0.3175,0.04125 0.3,0.04125 -0.0175,0 0.3825,0.75875 0.3825,0.75875 l 0.70625,-0.35875 0.35875,-0.44125 -0.27,-0.1825 -0.52375,0.09375 0.29375,0.3 -0.1825,0.17 m 1.20625,-0.4175 0.52375,0.535 -0.1,0.13 -0.7825,-0.5175 -0.035,0.22375 0.20625,0.465 0.565,0.1 0.6,-0.59125 -0.37,-0.30875 -0.6075,-0.03625 m 0.95625,1.05875 0.68,-0.04125 0.34125,-0.365 -0.29375,-0.34125 -0.30625,0.1 0.17,0.37 -0.1175,0.1 -0.29375,-0.35875 -0.35875,0.4475 0.17875,0.08875 m -8.2975,0.07 0.315,-0.20625 -0.36125,-0.31125 -0.28875,-0.28875 -0.48875,0.78875 -0.0475,0.22375 -0.235,0.0175 -0.40625,0.23 0.5025,0.235 0.52625,0.37 0.3,-0.0475 0.58875,0.13 0.58875,-0.0825 0.335,-0.5 -0.1825,-0.39375 0.0525,-0.4 0.3825,0.49375 0.55875,-0.04125 -0.60625,-0.9025 h -0.4 l -0.19375,0.2675 0.0525,0.84125 -0.20625,0.33 -0.27,0.1175 -0.01125,-0.2825 0.3525,-0.42 -0.2175,-0.24375 -0.47,0.35875 0.10625,0.22375 -0.335,0.21125 -0.3475,-0.44125 0.135,-0.52375 0.27125,0.24625 m 5.43,-0.22875 -0.235,-0.565 -0.6475,0.48875 0.8825,0.07625 m -7.65875,1.3825 -0.1,-0.4525 -0.365,-0.19375 -0.1525,0.3825 0.20625,0.19375 -0.3,0.2825 0.27,0.6525 1.06125,-1.13 -0.08,-0.3525 h -0.33 l -0.21,0.6175 m 0.67,2.74125 -0.05,-0.135 0.285,-0.535 0.4,-0.27625 -0.09375,-0.6525 -0.38875,-0.2175 0.20625,-0.27625 -0.24125,-0.74125 -0.34375,0.43 v 0.315 l -0.2025,-0.1 -0.565,0.55875 0.4525,0.81125 0.165,-0.365 -0.07,-0.31125 0.365,-0.04125 0.22375,0.51125 -0.29375,-0.10625 -0.2175,0.5175 0.18875,0.2825 0.03,0.27 0.2475,0.31125 0.4475,-0.22375 -0.05375,-0.52875 -0.32875,0.41125 -0.1625,0.09125 m -0.8175,-0.13625 0.27625,-0.2825 -0.51125,-0.87375 0.05875,0.4675 -0.08875,0.3475 0.265,0.34125 m 0.8175,3.68875 0.44125,-1.02375 v -0.99375 l -0.865,-1.67 -0.1175,0.30625 0.2525,0.25875 -0.10625,0.31125 0.55875,0.67 0.07,0.72375 -0.38875,0.52375 0.01125,0.3175 -0.22375,0.19375 0.3675,0.3825 m -0.8875,0.965 0.5,-0.165 0.32375,-0.565 -0.45875,-0.50625 -0.365,0.7825 v 0.45375 m 15.06375,-9.0825 0.1525,0.57625 -0.41125,0.4825 h -0.69375 l 0.9525,-1.05875 m -12.185,-1.59625 -0.0325,0.30375 -0.035,0.32 -0.5925,0.14625 -0.7975,-0.5175 -0.1275,-0.0825 -0.11375,0.1 -0.495,0.4375 -0.0425,0.0375 -0.01625,0.05375 -0.1875,0.6175 -0.0125,0.04 0.005,0.04125 0.06875,0.60875 -0.0725,-0.0475 -0.16375,-0.10625 -0.11,0.16125 -0.16625,0.24375 -0.105,-0.075 -0.09625,-0.06875 -0.1075,0.05125 -0.17,0.0825 -0.065,0.03125 -0.03,0.065 -0.3525,0.765 -0.03,0.06625 0.01875,0.07 0.3975,1.465 -0.13875,0.5 -0.00875,0.03125 0.00125,0.0325 0.0475,0.89375 0.01,0.19 h 0.19 0.31125 l 0.265,0.6625 -0.1825,-0.1575 -0.1075,0.25125 -0.17625,0.41125 -0.07375,0.16625 0.16,0.0875 0.7575,0.41 -0.2225,0.21 -0.0575,0.05375 -0.16875,-0.25375 -0.205,-0.30875 -0.14625,0.34125 -0.10625,0.2475 -0.045,0.10375 0.06625,0.09125 0.41,0.57 -0.50625,0.94875 -0.03625,0.0675 0.01875,0.075 0.11875,0.46875 0.02125,0.08625 0.07875,0.04125 0.3525,0.18875 0.11625,0.06125 0.1025,-0.0825 0.69375,-0.5525 0.04375,-0.035 0.01875,-0.0525 0.6475,-1.765 0.015,-0.04 -0.0025,-0.0425 -0.0525,-0.72375 0.18625,-0.195 0.10875,-0.11375 -0.085,-0.1325 -0.49125,-0.76 0.01375,-0.0087 0.29,0.08125 0.27625,0.0775 -0.02375,-0.28625 -0.07625,-0.94875 h 0.22125 l 0.23375,0.6125 0.155,0.4075 0.2075,-0.3825 0.37625,-0.69375 0.04,-0.07375 -0.025,-0.08125 -0.29375,-0.94125 -0.02875,-0.09125 0.2525,0.12875 0.10375,0.0525 0.0975,-0.06375 0.73,-0.4825 0.32375,-0.21375 -0.3625,-0.13875 -0.2525,-0.0975 0.2925,-0.1975 0.0425,-0.02875 0.02375,-0.04625 0.17625,-0.345 0.2375,0.05375 -0.095,0.51625 -0.04375,0.23625 h 0.24 0.6 0.26375 l -0.07125,-0.25375 -0.09,-0.32 0.275,0.0825 0.07375,0.0225 0.07,-0.03375 0.53375,-0.25375 0.06,0.1925 0.15375,0.4875 0.21875,-0.4625 0.2,-0.42375 0.0425,-0.09125 -0.0475,-0.08875 -0.08875,-0.16625 0.1625,-0.1425 0.37125,0.2075 0.015,0.1875 0.0175,0.22125 0.21875,-0.04125 0.565,-0.10625 0.10625,-0.02 0.04125,-0.1 0.055,-0.1325 0.065,0.0975 0.38875,0.57625 0.0575,0.085 0.1025,0.0025 0.90625,0.02375 0.3725,0.01 -0.1975,-0.315 -0.26,-0.41625 0.0075,-0.12 0.08,0.06 0.06625,0.05 0.0825,-0.01125 0.2925,-0.04125 0.1875,0.25625 0.24125,0.32875 0.1125,-0.3925 0.0525,-0.1825 0.87375,0.0075 0.4,0.07 0.10125,0.0175 0.07375,-0.07125 0.305,-0.29625 -0.09375,0.32125 -0.075,0.25125 0.26125,0.00625 0.5125,0.01125 0.2425,0.005 -0.04,-0.23875 -0.07125,-0.42125 0.19,0.09 0.0625,0.03 0.0675,-0.015 0.595,-0.1375 -0.255,0.2825 -0.3,0.33375 h 0.44875 0.69375 0.0925 l 0.06,-0.07 0.41125,-0.4825 0.0675,-0.08 -0.02625,-0.1 -0.1525,-0.57625 -0.095,-0.3575 -0.2475,0.275 -0.34875,0.3875 0.21,-0.56375 0.0275,-0.07375 -0.03,-0.0725 -0.20125,-0.4875 -0.0425,-0.10375 -0.11,-0.0175 -0.55125,-0.08625 -0.13,-0.02 -0.07,0.11 -0.065,0.1025 -0.52625,-0.28125 -0.05625,-0.03 -0.0625,0.0075 -1.1375,0.14125 -0.06125,0.00875 -0.04625,0.04 -0.6025,0.52 -0.12125,-0.25125 -0.045,-0.09375 -0.10375,-0.01625 -0.94125,-0.14875 -0.09,-0.01375 -0.07,0.05875 -0.1675,0.14125 -0.33375,-0.1925 -0.0425,-0.025 -0.05,-0.00125 -0.6275,-0.02375 -0.12875,-0.005 -0.0575,0.115 -0.0725,0.14125 -0.45375,-0.21875 -0.04,-0.01875 -0.04375,-0.00125 -0.965,-0.01625 -0.055,-0.00125 -0.0475,0.0275 -0.5775,0.3325 -0.39,-0.46125 -0.17375,-0.205 -0.14625,0.22625 -0.22375,0.345 -0.025,0.04 -0.0075,-0.08875 -0.01375,-0.17625 -0.17625,-0.0075 -0.525,-0.02375 -0.20125,-0.00875 -0.0075,0.20125 -0.01625,0.46625 -0.35375,-0.12375 -0.1475,-0.50125 -0.0225,-0.0775 -0.07,-0.04 -0.43125,-0.2475 z m 2.63875,1.20875 0.05375,0.07375 -0.22,0.0625 -0.08125,0.02375 -0.04,0.07375 -0.0075,0.01375 -0.08,-0.38125 -0.00875,-0.10125 0.0725,0.045 z m -4.18875,-0.14 -0.07375,-0.0125 -0.005,-0.0225 0.01375,-0.0075 z m 11.545,0.06125 -0.05,0.1275 h -0.03625 -0.6 -0.17625 l -0.01875,0.14625 -0.09875,-0.11 0.10875,-0.09625 0.69625,-0.14625 z m -3.9025,0.08625 -0.04125,0.05125 -0.0225,-0.0225 -0.03,-0.03 0.07125,-0.0125 z m -5.7,0.04 -0.19125,0.18 -0.045,0.0425 -0.01375,0.06 -0.02875,0.13375 -0.2825,-0.27125 0.25375,-0.0175 0.04875,-0.00375 0.04125,-0.025 0.20375,-0.12375 z m 10.3325,0.19375 0.1975,0.225 -0.08625,0.00625 -0.38375,-0.18375 0.0775,-0.16875 z m -3.2875,-0.08125 0.15,0.125 -0.02625,0.025 -0.14875,-0.1525 z m -1.93125,0.285 -0.1,0.05125 c -0.04,-0.0775 -0.08,-0.15375 -0.11625,-0.22375 z m -3.855,-0.14375 0.125,0.22375 -0.005,0.0625 -0.0525,-0.06625 -0.11125,-0.22375 z m 2.17125,0.08625 v 0 l -0.0025,-0.00125 z m 3.17125,0.22125 -0.13375,-0.02375 -0.04,-0.09125 z m 1.6225,-0.0325 -0.0012,0.00125 -0.0038,-0.00875 z m -7.62,-0.00375 0.355,0.52875 -0.10875,0.0075 -0.31625,-0.40875 -0.09875,-0.1275 z m 3.68875,0.02875 -0.03375,-0.0025 0.025,-0.01875 z m -6.31125,0.18375 -0.00125,0.0025 -0.0925,0.04625 0.00125,-0.05375 -0.0375,-0.05375 -0.04625,-0.06625 v -0.04625 l 0.055,0.05375 z m 9.6775,-0.00875 -0.01,0.00125 0.005,-0.00625 z m -8.71875,1.09875 -0.19875,0.03125 -0.49,-0.34125 -0.15125,-0.07125 0.02875,-0.01625 0.19125,-0.01375 0.15,-0.01125 0.03125,-0.1475 0.04,-0.18875 0.13625,-0.21875 -0.1,0.3875 -0.025,0.09625 0.06125,0.0775 z m 6.6925,-0.8675 -0.48625,0.18125 -0.0925,0.035 0.0125,-0.03 0.5775,-0.285 z m -3.16625,0.1925 -0.18125,0.2175 -0.25125,-0.01375 -0.06125,-0.075 0.21375,-0.04625 0.08625,-0.01875 0.045,-0.07625 0.13875,-0.2375 v 0.01375 z m -2.86,0.22375 -0.01125,-0.0225 0.0825,-0.0625 z m -0.11125,0.55125 -0.2375,-0.0525 0.22875,-0.145 0.00625,0.15875 z m -2.1675,-0.18125 0.02125,0.09375 -0.125,0.13375 0.0775,-0.22625 h 0.02625 z m -0.6575,0.0975 0.02875,0.13 -0.0275,-0.02625 -0.10625,-0.10125 0.02,-0.04875 z m 0.12875,0.58 -0.2275,0.2425 -0.09875,-0.24 0.2,-0.1875 0.07125,-0.0675 0.0075,0.035 z m 1.52125,-0.075 -0.02375,0.11625 -0.0425,-0.1275 -0.04,-0.0775 z m -0.5675,0.425 -0.14375,0.19375 -0.01875,0.025 v -0.17625 -0.2475 l 0.06875,-0.085 z m 1.35875,-0.17375 -0.08125,0.0775 -0.20125,0.195 0.25,0.1275 0.14,0.07125 -0.09,0.1975 -0.19625,0.42875 -0.35125,0.0125 v -0.18375 l 0.115,-0.08125 0.2,-0.14125 -0.1775,-0.1675 -0.285,-0.27 0.10125,-0.03875 0.2,-0.07625 0.09,-0.035 0.02875,-0.09125 0.02625,-0.08 z m -1.6,0.49875 -0.0375,0.05125 0.0375,0.02125 -0.3625,0.04125 -0.19875,0.0225 0.27875,-0.275 0.075,0.0375 z m -0.52125,0.425 -0.11875,-0.2125 0.0575,-0.0575 0.045,0.20125 z m 0.98375,-0.0925 0.0625,0.4325 -0.0525,0.03625 -0.0425,-0.09875 -0.22375,-0.51125 -0.00125,-0.0025 z m -0.2525,0.65 -0.02375,0.01625 -0.0225,0.0425 -0.12875,0.2425 -0.07375,-0.11125 0.1025,-0.24375 0.115,0.04125 z m -0.89625,0.375 -0.00875,0.0087 -0.06375,-0.0825 0.00875,-0.03625 z m 1.0325,2.93625 -0.185,0.4275 -0.0075,-0.195 0.19125,-0.25875 v 0.02625 z m -0.305,0.7075 -0.01125,-0.0125 0.02625,-0.0225 z m -0.24625,0.62 -0.21375,0.3725 -0.165,0.05375 v -0.1325 l 0.21875,-0.46875 z m 38.15375,-9.65125 0.05125,0.45875 0.81125,0.2 0.87,-0.565 0.495,0.4375 0.1875,0.6175 -0.07875,0.705 0.12,0.22375 0.27,-0.17625 0.2825,0.41125 0.27,-0.19375 0.17,0.0825 0.3525,0.765 -0.41,1.51625 0.1525,0.5525 -0.0475,0.89375 h -0.4475 l -0.3275,0.825 -0.58875,0.74125 h 0.2825 l 0.61125,-0.53 0.17625,0.41125 -1,0.54125 0.42375,0.4 0.02375,0.53 0.50625,-0.765 0.10625,0.2475 -0.4825,0.67 0.565,1.05875 -0.1175,0.47 -0.3525,0.18875 -0.69375,-0.5525 -0.6475,-1.765 0.05875,-0.81125 -0.2475,-0.25875 0.6,-0.93 -0.25875,-0.165 -0.3775,0.10625 0.09375,-1.165 h -0.57625 l -0.2825,0.74125 -0.37625,-0.69375 0.29375,-0.94125 0.2475,0.54125 0.6825,0.02375 v -0.49375 l -0.2,-0.14125 0.33,-0.31125 0.17625,-0.54125 0.27,-0.53 -0.39375,0.08875 -0.34125,0.285 0.07625,0.3675 -0.2,-0.07625 -0.0825,-0.25875 -0.765,0.18875 0.3425,0.32875 -0.6475,0.33 -0.73,-0.4825 0.61125,-0.235 -0.61,-0.4125 -0.2475,-0.4825 -0.57625,0.12875 0.13,0.70625 h -0.6 l 0.18875,-0.67 -0.625,0.1875 -0.74125,-0.3525 -0.12875,0.41125 -0.2,-0.42375 0.16375,-0.305 -0.3875,-0.34125 -0.58875,0.32875 -0.02375,0.295 -0.56375,-0.10625 -0.165,-0.4 -0.97625,-0.4825 0.07,0.58875 0.6,0.22375 -0.3875,0.57625 -0.90625,0.0225 0.29375,-0.47 -0.035,-0.5525 -0.37625,0.28125 -0.4125,-0.05875 -0.25875,0.35375 -0.09375,-0.33 -1.05875,0.0125 -0.4,0.07 -0.64125,-0.62375 -0.10625,0.15375 0.20625,0.69375 -0.5125,0.01125 0.13625,-0.8 -0.5375,0.255 -0.71375,-0.16375 -0.2975,-0.8 0.2025,-0.48625 0.55125,-0.08625 0.165,0.25875 0.69,-0.36875 1.1375,0.14125 0.8,0.69 0.23375,-0.48625 0.94125,-0.14875 0.275,0.23125 0.455,-0.2625 0.6275,-0.02375 0.16125,0.32 0.63125,-0.305 0.965,-0.01625 0.72125,0.41625 0.4975,-0.58875 0.22375,0.345 -0.34625,0.2125 -0.24375,0.3375 0.49375,0.14125 0.26625,0.49375 0.19625,-0.94125 0.03125,-0.38375 0.525,-0.02375 0.02125,0.61375 -0.28625,0.02375 -0.20625,0.37 0.02375,0.29375 -0.17875,0.3975 -0.4025,-0.085 -0.2825,-0.4825 -0.265,-0.09375 -0.04125,-0.17125 -0.53,0.4475 0.2525,0.31125 0.265,-0.25875 0.08875,0.1175 -0.01125,0.3125 0.29375,0.3525 0.44125,-0.02375 0.78875,-0.98875 0.22875,-0.46 0.535,-0.1875 0.17625,-0.6 0.4325,-0.24625 m 2.09125,2.04125 -0.0063,-0.3175 0.0825,-0.1175 v -0.5825 l -0.39375,0.3825 -0.21125,-0.435 0.39375,-0.065 0.065,-0.30625 -0.2525,-0.13 -0.72375,0.4675 0.17625,0.15 0.43,0.735 0.44,0.21875 m -12.17625,-0.90875 -0.19375,-0.42 -0.4125,0.25875 -0.27,0.30875 -0.19375,-0.12125 0.37625,-0.43 -0.29375,-0.1225 -0.25875,0.20625 0.20625,0.71125 0.49375,0.035 0.88875,-0.42625 h 0.6 l 0.03,0.2325 -0.19625,0.03 -0.1175,-0.08875 -0.17,0.08875 0.45875,0.3525 0.11125,-0.2825 0.45875,-0.51125 -0.3,-0.265 -0.81125,-0.17125 -0.40625,0.1825 0.1475,0.37625 -0.1475,0.05625 m 10.0175,0.605 0.86625,-0.83125 -0.70625,-0.0475 -0.38,-0.23125 -0.1925,0.34125 0.30625,0.2875 0.10625,0.48125 m -5.47,-0.5075 -0.1825,-0.17125 0.29375,-0.3 -0.52375,-0.09375 -0.27,0.1825 0.35875,0.44125 0.70625,0.35875 c 0,0 0.4,-0.75875 0.3825,-0.75875 -0.0175,0 0.3,-0.04125 0.3,-0.04125 l 0.84125,0.70625 0.4525,-0.54125 -0.3475,-0.05875 -0.31125,0.19375 -0.03375,-0.43 -0.325,0.1125 -0.195,-0.165 h -0.44 l -0.70625,0.565 m -1.20625,-0.4175 -0.60625,0.035 -0.37,0.30875 0.6,0.59125 0.565,-0.1 0.20625,-0.465 -0.03625,-0.22375 -0.7825,0.51875 -0.1,-0.13 0.52375,-0.535 m -0.95625,1.05875 0.18,-0.08875 -0.35875,-0.44625 -0.29375,0.35875 -0.1175,-0.1 0.17,-0.37 -0.30625,-0.1 -0.29375,0.34 0.34125,0.365 0.67875,0.04125 m 8.2975,0.07 0.27,-0.2475 0.135,0.52375 -0.3475,0.44125 -0.335,-0.21125 0.10625,-0.22375 -0.47,-0.35875 -0.2175,0.24375 0.3525,0.42 -0.01125,0.2825 -0.27,-0.1175 -0.20625,-0.32875 0.0525,-0.84125 -0.19375,-0.2675 h -0.4 l -0.60625,0.9025 0.55875,0.04125 0.3825,-0.49375 0.0525,0.4 -0.1825,0.39375 0.335,0.5 0.58875,0.0825 0.58875,-0.13 0.3,0.0475 0.52625,-0.37 0.5025,-0.235 -0.405,-0.23 -0.235,-0.0175 -0.0475,-0.22375 -0.48875,-0.78875 -0.28875,0.28875 -0.36125,0.31125 0.315,0.20625 m -5.42875,-0.22875 0.8825,-0.07625 -0.6475,-0.48875 -0.235,0.565 m 7.65875,1.3825 -0.21125,-0.6175 h -0.33 l -0.08,0.3525 1.06125,1.13 0.27,-0.6525 -0.3,-0.2825 0.20625,-0.19375 -0.1525,-0.38375 -0.36375,0.19375 -0.1,0.45375 m -0.67125,2.74125 -0.15875,-0.08875 -0.32875,-0.41125 -0.05375,0.52875 0.4475,0.22375 0.2475,-0.31125 0.03,-0.27 0.18875,-0.2825 -0.2175,-0.5175 -0.29375,0.10625 0.22375,-0.51125 0.3625,0.03875 -0.07125,0.3125 0.165,0.365 0.4525,-0.81125 -0.565,-0.55875 -0.2025,0.1 v -0.3175 l -0.34375,-0.43 -0.24125,0.74 0.20625,0.27625 -0.38875,0.2175 -0.09375,0.6525 0.4,0.27625 0.285,0.535 -0.05,0.1375 m 0.8175,-0.13625 0.265,-0.34125 -0.08875,-0.3475 0.05875,-0.4675 -0.51125,0.87375 0.27625,0.2825 m -0.8175,3.68875 0.365,-0.3825 -0.22375,-0.19375 0.01125,-0.3175 -0.38875,-0.52375 0.07,-0.72375 0.55875,-0.67 -0.10625,-0.31125 0.2525,-0.25875 -0.1175,-0.30625 -0.865,1.67 v 0.99375 l 0.44375,1.02375 m 0.88875,0.965 v -0.4525 l -0.365,-0.7825 -0.45875,0.50625 0.32375,0.565 0.5,0.16375 m -15.065,-9.0825 0.9525,1.05875 h -0.69375 l -0.41125,-0.4825 0.1525,-0.57625 m 12.185,-1.59625 -0.265,0.15125 -0.43125,0.2475 -0.07,0.04 -0.0225,0.0775 -0.1475,0.50125 -0.35375,0.12375 -0.01625,-0.46625 -0.0075,-0.20125 -0.20125,0.00875 -0.525,0.02375 -0.17625,0.0075 -0.01375,0.17625 -0.0075,0.08875 -0.025,-0.04 -0.225,-0.345 -0.14625,-0.22625 -0.175,0.205 -0.39,0.46125 -0.57625,-0.3325 -0.04875,-0.0275 -0.055,0.00125 -0.965,0.015 -0.04375,0.00125 -0.04,0.01875 -0.45375,0.21875 -0.0725,-0.14375 -0.0575,-0.115 -0.12875,0.005 -0.6275,0.02375 -0.05,0.00125 -0.0425,0.025 -0.3325,0.1925 -0.1675,-0.14125 -0.07,-0.05875 -0.09,0.01375 -0.94125,0.15 -0.10375,0.01625 -0.045,0.09375 -0.1225,0.25125 -0.6025,-0.52 -0.04625,-0.03875 -0.06,-0.0075 -1.1375,-0.14125 -0.0625,-0.0075 -0.05625,0.03 -0.52625,0.28125 -0.065,-0.1025 -0.07,-0.11125 -0.13,0.02 -0.55125,0.0875 -0.11,0.0175 -0.04375,0.1025 -0.20125,0.48625 -0.03,0.0725 0.0275,0.07375 0.21,0.56375 -0.34875,-0.38625 -0.2475,-0.275 -0.095,0.3575 -0.1525,0.57625 -0.0275,0.10125 0.0675,0.08 0.41125,0.4825 0.06,0.07 h 0.0925 0.69375 0.44875 l -0.3,-0.33375 -0.25375,-0.28375 0.595,0.1375 0.0675,0.01625 0.0625,-0.03 0.19,-0.09 -0.07125,0.42 -0.04125,0.24 0.2425,-0.005 0.5125,-0.01125 0.26125,-0.00625 -0.075,-0.25125 -0.09375,-0.32 0.305,0.29625 0.07375,0.07125 0.10125,-0.0175 0.4,-0.07 0.87375,-0.0075 0.0525,0.1825 0.1125,0.3925 0.24125,-0.32875 0.1875,-0.25625 0.2925,0.04125 0.0825,0.01125 0.06625,-0.05 0.08,-0.06 0.0075,0.12 -0.26,0.41625 -0.1975,0.315 0.3725,-0.01 0.90625,-0.02375 0.1025,-0.0025 0.0575,-0.085 0.38875,-0.57625 0.065,-0.0975 0.055,0.1325 0.04125,0.1 0.10625,0.02 0.565,0.10625 0.21875,0.04125 0.0175,-0.2225 0.015,-0.1875 0.37125,-0.2075 0.1625,0.1425 -0.08875,0.16625 -0.04875,0.08875 0.0425,0.09125 0.2,0.42375 0.21875,0.4625 0.15375,-0.4875 0.06125,-0.19375 0.53375,0.25375 0.07,0.03375 0.07375,-0.0225 0.275,-0.0825 -0.09125,0.32 -0.07125,0.25375 h 0.26375 0.6 0.24 l -0.04375,-0.23625 -0.09375,-0.51625 0.2375,-0.05375 0.17625,0.345 0.02375,0.04625 0.0425,0.02875 0.2925,0.1975 -0.2525,0.0975 -0.3625,0.13875 0.32375,0.21375 0.73,0.4825 0.0975,0.06375 0.10375,-0.0525 0.2525,-0.12875 -0.02875,0.09125 -0.29375,0.94125 -0.025,0.08125 0.04,0.07375 0.37625,0.69375 0.2075,0.3825 0.155,-0.4075 0.23375,-0.6125 h 0.22125 l -0.07625,0.94875 -0.02375,0.28625 0.27625,-0.0775 0.29,-0.08125 0.01375,0.0087 -0.49125,0.76 -0.08375,0.1325 0.10875,0.11375 0.18625,0.195 -0.0525,0.72375 -0.0037,0.0425 0.015,0.04 0.6475,1.765 0.01875,0.0525 0.04375,0.035 0.69375,0.5525 0.1025,0.0825 0.11625,-0.06125 0.3525,-0.18875 0.07875,-0.04125 0.02125,-0.08625 0.1175,-0.47 0.01875,-0.075 -0.03625,-0.0675 -0.505,-0.95 0.41,-0.57 0.06625,-0.09125 -0.045,-0.10375 -0.10625,-0.2475 -0.14625,-0.34125 -0.205,0.30875 -0.16875,0.25375 -0.0575,-0.05375 -0.22125,-0.20875 0.7575,-0.41 0.16,-0.0875 -0.0725,-0.1675 -0.17625,-0.41125 -0.1075,-0.25125 -0.1825,0.1575 0.265,-0.6625 h 0.31125 0.19 l 0.01,-0.19 0.0475,-0.89375 0.0012,-0.0325 -0.0087,-0.03125 -0.13875,-0.5 0.3975,-1.465 0.01875,-0.07 -0.03,-0.06625 -0.35125,-0.765 -0.03,-0.065 -0.065,-0.03125 -0.17125,-0.0825 -0.1075,-0.05125 -0.09625,0.06875 -0.105,0.075 -0.16625,-0.24375 -0.11,-0.16125 -0.16375,0.10625 -0.0725,0.0475 0.06875,-0.60875 0.005,-0.04125 -0.0125,-0.04 -0.1875,-0.6175 -0.015,-0.05125 -0.0425,-0.0375 -0.495,-0.4375 -0.11375,-0.1 -0.1275,0.0825 -0.7975,0.5175 -0.5925,-0.14625 -0.03625,-0.32 z m -2.63875,1.20875 0.31125,-0.19125 0.0725,-0.045 -0.0087,0.10125 -0.07875,0.38125 -0.0075,-0.0125 -0.04,-0.075 -0.08125,-0.0225 -0.22,-0.0625 z m 4.18875,-0.14 0.06375,-0.04125 0.01375,0.0075 -0.005,0.0225 z m -11.54375,0.06125 0.1725,-0.0775 0.69625,0.14625 0.10875,0.09625 -0.0975,0.11 -0.01875,-0.1475 h -0.17625 -0.6 -0.035 z m 3.9025,0.08625 0.02125,-0.015 0.07125,0.0125 -0.02875,0.03 -0.0225,0.02375 z m 5.69875,0.04 0.01375,-0.02375 0.20375,0.12375 0.04125,0.025 0.04875,0.00375 0.25375,0.0175 -0.2825,0.27125 -0.02875,-0.13375 -0.01375,-0.06 -0.045,-0.0425 z m -10.3325,0.19375 0.19375,-0.1225 0.0775,0.16875 -0.38125,0.185 -0.08625,-0.00625 z m 3.2875,-0.08125 0.02375,-0.00125 -0.1475,0.15125 -0.02625,-0.025 z m 1.93125,0.285 0.21625,-0.17375 c -0.035,0.07125 -0.075,0.1475 -0.11625,0.225 z m 3.85625,-0.14375 0.045,-0.00375 -0.11125,0.22375 -0.0525,0.06625 -0.005,-0.0625 z m -2.1725,0.08625 0.0025,-0.00125 z m -3.17125,0.22125 0.17375,-0.115 -0.04,0.09125 z m -1.6225,-0.0325 0.005,-0.00625 -0.0038,0.0075 z m 7.62,-0.00375 h 0.16875 l -0.09875,0.1275 -0.31625,0.40875 -0.10875,-0.0075 z m -3.68875,0.02875 0.0087,-0.0225 0.025,0.01875 z m 6.31125,0.18375 0.1225,-0.11875 0.055,-0.05375 v 0.0475 l -0.04625,0.06625 -0.0375,0.05375 0.0012,0.05375 -0.0925,-0.04625 z m -9.67625,-0.00875 0.005,-0.00625 0.005,0.00625 z m 8.7175,1.09875 0.32875,-0.4175 0.06125,-0.0775 -0.025,-0.09625 -0.1,-0.3875 0.13625,0.21875 0.04,0.18875 0.03125,0.1475 0.15,0.01125 0.19125,0.01375 0.02875,0.01625 -0.15125,0.07125 -0.49,0.34125 z m -6.6925,-0.8675 -0.0125,-0.1 0.5775,0.285 0.0125,0.03 -0.09125,-0.035 z m 3.16625,0.1925 0.0087,-0.235 v -0.01375 l 0.13875,0.2375 0.045,0.07625 0.08625,0.0175 0.21375,0.04625 -0.06125,0.075 -0.25,0.01375 z m 2.86,0.22375 -0.0725,-0.08625 0.0825,0.0625 z m 0.1125,0.55125 0.0012,-0.03875 0.0063,-0.15875 0.22875,0.145 z m 2.1675,-0.18125 h 0.02625 l 0.0775,0.22625 -0.125,-0.13375 z m 0.65625,0.0975 0.08625,-0.04625 0.02,0.04875 -0.1075,0.10125 -0.0275,0.02625 z m -0.12875,0.58 0.0475,-0.2175 0.0075,-0.035 0.07125,0.0675 0.2,0.1875 -0.09875,0.24 z m -1.52125,-0.075 0.105,-0.08875 -0.03875,0.07625 -0.0425,0.1275 z m 0.5675,0.425 0.095,-0.29 0.06875,0.085 v 0.2475 0.17625 l -0.01875,-0.025 z m -1.35875,-0.17375 0.23125,-0.0575 0.02625,0.08 0.02875,0.09125 0.09,0.035 0.2,0.07625 0.10125,0.03875 -0.285,0.2725 -0.1775,0.1675 0.2,0.14125 0.115,0.08125 v 0.1825 l -0.35125,-0.0125 -0.19625,-0.42875 -0.09,-0.19625 0.14,-0.07125 0.25,-0.1275 -0.20125,-0.195 z m 1.6,0.49875 0.21,-0.10375 0.075,-0.0375 0.27875,0.275 -0.19875,-0.0225 -0.3625,-0.04125 0.0375,-0.02125 z m 0.52125,0.425 0.015,-0.06875 0.045,-0.20125 0.0575,0.0575 z m -0.98375,-0.0925 0.2575,-0.145 -0.0012,0.0025 -0.22375,0.51125 -0.0425,0.09875 -0.0525,-0.03625 z m 0.2525,0.65 0.03125,-0.01125 0.115,-0.04125 0.1025,0.24375 -0.07375,0.11125 -0.12875,-0.2425 -0.0225,-0.04375 z m 0.89625,0.375 0.06375,-0.11 0.0087,0.03625 -0.06375,0.0825 z m -1.0325,2.93625 v -0.025 l 0.19125,0.25875 -0.0075,0.195 z m 0.305,0.7075 -0.015,-0.035 0.02625,0.0225 z m 0.24625,0.62 0.15875,-0.175 0.21875,0.46875 v 0.1325 l -0.165,-0.05375 z"/><path fill="#ff0103" d="m 16.676125,36.758875 -0.9525,-1.05875 h 0.69375 l 0.41125,0.4825 z m -15.3,-0.8475 0.27,-0.19375 0.2825,0.41125 0.27,-0.17625 0.12,0.22375 -0.08,0.70375 0.1875,0.6175 0.495,0.4375 0.87,-0.565 0.81125,0.2 0.05125,0.45875 0.43125,-0.2475 0.17625,-0.6 0.535,-0.1875 0.22875,-0.46 0.78875,-0.98875 0.44125,-0.02375 0.29375,0.3525 -0.01125,0.31125 0.08875,0.1175 0.265,-0.25875 0.2525,0.31125 -0.53,0.4475 -0.04125,-0.17 -0.265,-0.09375 -0.2825,-0.4825 -0.40375,-0.08625 -0.17875,0.3975 0.02375,0.29375 -0.20625,0.37 -0.28875,0.02375 0.02125,0.61375 0.525,-0.02375 0.03125,-0.38375 0.19625,-0.94125 0.26625,0.49375 0.49375,0.14125 -0.24375,0.3375 -0.345,0.21125 0.22375,0.345 0.4975,-0.58875 0.72125,0.41625 0.965,-0.01625 0.63125,-0.305 0.16125,0.32 0.6275,-0.02375 0.455,-0.2625 0.275,0.23125 0.94125,-0.14875 0.235,-0.48625 0.8,0.69 1.1375,0.14125 0.69,-0.36875 0.165,0.25875 0.55125,-0.08625 0.2025,-0.48625 -0.2975,-0.8 -0.71375,-0.165 -0.5375,0.255 0.13625,-0.8 -0.5125,0.01125 0.20625,0.69375 -0.10625,0.1525 -0.63625,-0.61625 -0.4,0.07 -1.05875,0.01125 -0.09375,-0.33 -0.25875,0.3525 -0.41125,-0.05875 -0.37625,0.2825 -0.035,-0.5525 0.29375,-0.47 -0.90625,0.02375 -0.38875,0.57625 0.6,0.22375 0.07,0.58875 -0.97625,-0.4825 -0.165,-0.4 -0.565,-0.10625 -0.02375,0.29375 -0.58875,0.33 -0.38875,-0.34125 0.165,-0.30625 -0.2,-0.42375 -0.13,0.41125 -0.74125,-0.3525 -0.62375,0.18875 0.18875,-0.67 h -0.6 l 0.13,0.70625 -0.57625,0.13 -0.2475,-0.4825 -0.61125,-0.41125 0.61125,-0.235 -0.73,-0.4825 -0.6475,0.33 0.34125,0.33 -0.765,0.18875 -0.0825,-0.25875 -0.2,-0.07625 0.07625,0.3675 -0.34125,0.285 -0.39375,0.08875 0.27,-0.53 0.17625,-0.54125 0.33,-0.31125 -0.2,-0.14125 v -0.49375 l 0.6825,0.02375 0.2475,0.54125 0.29375,-0.94125 -0.37625,-0.69375 -0.2825,0.74125 h -0.57625 l 0.09375,-1.165 -0.37625,0.10625 -0.25875,-0.165 0.6,-0.93 -0.2475,-0.25875 0.05875,-0.81125 -0.6475,-1.765 -0.69375,-0.5525 -0.3525,0.18875 -0.1175,0.47 0.565,1.05875 -0.4825,0.67 0.10625,0.2475 0.50625,-0.765 0.02375,0.53 0.42375,0.4 -1,0.54125 0.17625,0.41125 0.61125,-0.53 h 0.2825 l -0.58875,0.74125 -0.33,0.82375 h -0.4475 l -0.0475,0.89375 0.1525,0.5525 -0.41125,1.5175 0.3525,0.765 z m 0.73625,-8.07 0.32375,0.565 -0.45875,0.50625 -0.365,-0.7825 v -0.4525 z m 0.0225,1.1825 0.365,-0.3825 0.44125,1.02375 v 0.99375 l -0.865,1.67 -0.1175,-0.30625 0.2525,-0.25875 -0.10625,-0.31125 0.55875,-0.67 0.07,-0.72375 -0.38875,-0.52375 0.01125,-0.3175 z m 0.52375,3.25875 -0.15875,-0.08875 -0.05,0.135 0.285,0.535 0.4,0.27625 -0.09375,0.6525 -0.38875,0.2175 0.20625,0.27625 -0.24125,0.74125 -0.34375,-0.43 v -0.3175 l -0.2025,0.1 -0.565,-0.55875 0.4525,-0.81125 0.165,0.365 -0.07,0.31125 0.365,0.04125 0.22375,-0.51125 -0.295,0.1075 -0.2175,-0.5175 0.18875,-0.2825 0.03,-0.27 0.2475,-0.31125 0.4475,0.22375 -0.05375,0.52875 z m -0.6175,3.27 -0.21125,-0.6175 -0.1,0.4525 -0.365,0.19375 -0.1525,-0.3825 0.20625,-0.19375 -0.3,-0.2825 0.27,-0.6525 1.06125,1.13 -0.08,0.3525 z m 0.4475,0.87125 0.0825,-0.1175 -0.00625,-0.3175 0.44125,0.2175 0.43,0.735 0.17625,0.15 -0.72375,0.4675 -0.2525,-0.13 0.065,-0.30625 0.39375,-0.065 -0.21125,-0.435 -0.39375,0.3825 v -0.58125 z m 3.105,0.35 h -0.4 l -0.19375,-0.2675 0.0525,-0.84125 -0.20625,-0.33 -0.27,-0.1175 -0.01125,0.2825 0.3525,0.42 -0.2175,0.24375 -0.47,-0.35875 0.10625,-0.22375 -0.335,-0.21125 -0.3475,0.44125 0.135,0.52375 0.27,-0.2475 0.315,0.20625 -0.36125,0.31125 -0.28875,0.28875 -0.48875,-0.7875 -0.0475,-0.22375 -0.235,-0.0175 -0.40625,-0.23 0.5025,-0.235 0.52625,-0.37 0.3,0.0475 0.58875,-0.13 0.58875,0.0825 0.335,0.5 -0.1825,0.39375 0.0525,0.4 0.3825,-0.49375 0.55875,0.04125 z m -1.73625,0.35 0.86625,-0.83125 0.10625,0.48125 0.30625,0.2875 -0.1925,0.34125 -0.38,-0.23125 z m 4.74875,-0.73 0.8825,-0.07625 -0.235,0.565 z m -0.77125,0.62375 0.4525,-0.54125 0.84125,0.70625 c 0,0 0.3175,-0.04125 0.3,-0.04125 -0.0175,0 0.3825,-0.75875 0.3825,-0.75875 l 0.70625,0.35875 0.35875,0.44125 -0.27,0.1825 -0.52375,-0.09375 0.29375,-0.3 -0.1825,-0.17 -0.70625,0.565 h -0.44125 l -0.19375,-0.165 -0.325,0.11125 -0.03375,-0.43 -0.31125,0.19375 z m 3.20625,0.0525 -0.035,-0.22375 0.20625,-0.465 0.565,-0.1 0.6,0.59125 -0.37,0.30875 -0.60625,0.035 0.52375,-0.535 -0.1,-0.13 z m 1.49375,-0.37625 -0.35875,-0.4475 0.18,-0.08875 0.68,0.04125 0.34125,0.365 -0.29375,0.34125 -0.30625,-0.1 0.17,-0.37 -0.1175,-0.1 z m 1.5475,0.03 -0.1175,-0.08875 -0.19375,0.03 0.03,0.2325 h 0.6 l 0.88875,-0.42625 0.49375,0.035 0.20625,0.71125 -0.25875,0.20625 -0.29375,-0.12375 0.37625,-0.43 -0.19375,-0.12 -0.27,0.30875 -0.41125,0.25875 -0.19375,-0.42 -0.1475,0.05625 0.1475,0.37625 -0.41,0.18125 -0.81125,-0.17 -0.3,-0.265 0.45875,-0.51125 0.11125,-0.2825 0.45875,0.3525 z m -12.635,-3.23875 0.05875,-0.4675 -0.08875,-0.3475 0.265,-0.34125 0.27625,0.2825 z m 26.72375,2.6975 0.41125,-0.4825 h 0.69375 l -0.9525,1.05875 z m 15.6225,-0.35375 0.3525,-0.765 -0.41125,-1.51625 0.1525,-0.5525 -0.0475,-0.89375 h -0.4475 l -0.33,-0.82375 -0.58875,-0.74125 h 0.2825 l 0.61125,0.53 0.17625,-0.41125 -1,-0.54125 0.42375,-0.4 0.02375,-0.53 0.50625,0.765 0.10625,-0.2475 -0.4825,-0.67 0.565,-1.05875 -0.1175,-0.47 -0.3525,-0.18875 -0.69375,0.5525 -0.6475,1.765 0.05875,0.81125 -0.2475,0.25875 0.6,0.93 -0.25875,0.165 -0.37625,-0.10625 0.09375,1.165 h -0.57625 l -0.2825,-0.74125 -0.37625,0.69375 0.29375,0.94125 0.2475,-0.54125 0.6825,-0.02375 v 0.49375 l -0.2,0.14125 0.33,0.31125 0.17625,0.54125 0.27,0.53 -0.39375,-0.08875 -0.34125,-0.285 0.07625,-0.3675 -0.2,0.07625 -0.0825,0.25875 -0.765,-0.18875 0.34125,-0.33 -0.6475,-0.33 -0.73,0.4825 0.61125,0.235 -0.61125,0.41125 -0.2475,0.4825 -0.57625,-0.13 0.13,-0.70625 h -0.6 l 0.18875,0.67 -0.62375,-0.18875 -0.74125,0.3525 -0.13,-0.41125 -0.2,0.42375 0.165,0.30625 -0.385,0.34375 -0.58875,-0.33 -0.02375,-0.29375 -0.565,0.10625 -0.165,0.4 -0.97625,0.4825 0.07,-0.58875 0.6,-0.22375 -0.38875,-0.57625 -0.90625,-0.02375 0.29375,0.47 -0.035,0.5525 -0.37375,-0.28125 -0.41125,0.05875 -0.25875,-0.3525 -0.09375,0.33 -1.05875,-0.01125 -0.4,-0.07 -0.64125,0.62375 -0.10625,-0.1525 0.20625,-0.69375 -0.5125,-0.01125 0.13625,0.8 -0.5375,-0.255 -0.71375,0.165 -0.2975,0.8 0.2025,0.48625 0.55125,0.08625 0.165,-0.25875 0.69,0.36875 1.1375,-0.14125 0.8,-0.69 0.235,0.48625 0.94125,0.14875 0.275,-0.23125 0.455,0.2625 0.6275,0.02375 0.16125,-0.32 0.63125,0.305 0.965,0.01625 0.72125,-0.41625 0.4975,0.58875 0.22375,-0.345 -0.345,-0.21125 -0.24375,-0.3375 0.49375,-0.14125 0.26625,-0.49375 0.19625,0.94125 0.03125,0.38375 0.525,0.02375 0.02125,-0.61375 -0.29,-0.02875 -0.20625,-0.37 0.02375,-0.29375 -0.17875,-0.3975 -0.40375,0.08625 -0.2825,0.4825 -0.265,0.09375 -0.04125,0.17 -0.53,-0.4475 0.2525,-0.31125 0.265,0.25875 0.08875,-0.1175 -0.01,-0.3125 0.29375,-0.3525 0.44125,0.02375 0.78875,0.98875 0.22875,0.46 0.535,0.1875 0.17625,0.6 0.43125,0.2475 0.05125,-0.45875 0.81125,-0.2 0.87,0.565 0.495,-0.4375 0.1875,-0.6175 -0.08,-0.70375 0.12,-0.22375 0.27,0.17625 0.2825,-0.41125 0.27,0.19375 z m -0.405,-8.1525 v 0.4525 l -0.365,0.7825 -0.45875,-0.50625 0.32375,-0.565 z m -0.7475,1.54125 0.01125,0.3175 -0.38875,0.52375 0.07,0.72375 0.55875,0.67 -0.10625,0.31125 0.2525,0.25875 -0.1175,0.30625 -0.865,-1.67 v -0.99375 l 0.44125,-1.02375 0.365,0.3825 z m -0.6275,3.47625 -0.05375,-0.52875 0.4475,-0.22375 0.2475,0.31125 0.03,0.27 0.18875,0.2825 -0.22125,0.51875 -0.29375,-0.10625 0.22375,0.51125 0.365,-0.04125 -0.07,-0.31125 0.165,-0.365 0.4525,0.81125 -0.565,0.55875 -0.2025,-0.1 v 0.3175 l -0.34375,0.43 -0.24125,-0.74125 0.20625,-0.27625 -0.38875,-0.2175 -0.09375,-0.6525 0.4,-0.27625 0.285,-0.535 -0.05,-0.135 -0.15875,0.08875 z m 0.61625,2.85875 -0.08,-0.3525 1.06125,-1.13 0.27,0.6525 -0.3,0.2825 0.20625,0.19375 -0.1525,0.3825 -0.365,-0.19375 -0.1,-0.4525 -0.21125,0.6175 z m -0.1175,1.45375 -0.39375,-0.3825 -0.21125,0.435 0.39375,0.065 0.065,0.30625 -0.2525,0.13 -0.72375,-0.4675 0.17625,-0.15 0.43,-0.735 0.44125,-0.2175 -0.0063,0.3175 0.0825,0.1175 v 0.58125 z m -3.7125,-1.13625 0.55875,-0.04125 0.3825,0.49375 0.0525,-0.4 -0.1825,-0.39375 0.335,-0.5 0.58875,-0.0825 0.58875,0.13 0.3,-0.0475 0.52625,0.37 0.5025,0.235 -0.40625,0.23 -0.235,0.0175 -0.0475,0.22375 -0.48875,0.78875 -0.28875,-0.28875 -0.36125,-0.31125 0.315,-0.20625 0.27,0.2475 0.135,-0.52375 -0.3475,-0.44125 -0.335,0.21125 0.10625,0.22375 -0.47,0.35875 -0.2175,-0.24375 0.3525,-0.42 -0.01125,-0.2825 -0.27,0.1175 -0.20625,0.33 0.0525,0.84125 -0.19375,0.2675 h -0.4 z m 1.6375,1.3 -0.38,0.23125 -0.1925,-0.34125 0.30625,-0.2875 0.10625,-0.48125 0.86625,0.83125 z m -4.69,-0.2875 -0.235,-0.565 0.8825,0.07625 z m 1.07,0.19375 -0.31125,-0.19375 -0.03375,0.42875 -0.325,-0.11125 -0.19375,0.165 h -0.44125 l -0.70625,-0.565 -0.1825,0.17 0.29375,0.3 -0.52375,0.09375 -0.27,-0.1825 0.35875,-0.44125 0.70625,-0.35875 c 0,0 0.4,0.75875 0.3825,0.75875 -0.0175,0 0.3,0.04125 0.3,0.04125 l 0.84125,-0.70625 0.4525,0.54125 z m -3.64125,-0.52375 -0.1,0.13 0.52375,0.535 -0.60625,-0.035 -0.37,-0.30875 0.6,-0.59125 0.565,0.1 0.20625,0.465 -0.035,0.22375 z m -1.005,-0.2175 -0.1175,0.1 0.17,0.37 -0.30625,0.1 -0.29375,-0.34125 0.34125,-0.365 0.68,-0.04125 0.18,0.08875 -0.35875,0.4475 z m -1.42375,0.3 0.45875,-0.3525 0.11125,0.2825 0.45875,0.51125 -0.3,0.265 -0.81125,0.17 -0.40625,-0.1825 0.1475,-0.37625 -0.1475,-0.05625 -0.19375,0.42 -0.41125,-0.25875 -0.27,-0.30875 -0.19375,0.12 0.37625,0.43 -0.295,0.125 -0.25875,-0.20625 0.20625,-0.71125 0.49375,-0.035 0.88875,0.42625 h 0.6 l 0.03,-0.2325 -0.19625,-0.03 -0.1175,0.08875 z m 12.29375,-4.02375 0.27625,-0.2825 0.265,0.34125 -0.08875,0.3475 0.05875,0.4675 z m -26.21125,-23.79375 -0.41125,0.4825 h -0.69375 l 0.9525,-1.05875 z m -15.62375,0.3525 -0.3525,0.765 0.41125,1.5175 -0.1525,0.5525 0.0475,0.89375 h 0.4475 l 0.33,0.82375 0.58875,0.74125 h -0.2825 l -0.61125,-0.53 -0.17625,0.41125 1,0.54125 -0.42375,0.4 -0.02375,0.53 -0.50625,-0.765 -0.10625,0.2475 0.4825,0.67 -0.565,1.05875 0.1175,0.47 0.3525,0.18875 0.69375,-0.5525 0.6475,-1.765 -0.05875,-0.81125 0.2475,-0.25875 -0.6,-0.93 0.25875,-0.165 0.37625,0.10625 -0.09375,-1.165 h 0.57625 l 0.2825,0.74125 0.37625,-0.69375 -0.29375,-0.94125 -0.2475,0.54125 -0.6825,0.02375 v -0.4925 l 0.2,-0.14125 -0.33,-0.31125 -0.17625,-0.54125 -0.27,-0.53 0.39375,0.08875 0.34125,0.285 -0.07625,0.3675 0.2,-0.07625 0.0825,-0.25875 0.765,0.18875 -0.34125,0.33 0.6475,0.33 0.73,-0.4825 -0.61125,-0.235 0.61125,-0.41125 0.2475,-0.4825 0.57625,0.13 -0.13,0.70625 h 0.6 l -0.18875,-0.67 0.62375,0.18875 0.74125,-0.3525 0.13,0.41125 0.2,-0.42375 -0.165,-0.30625 0.38875,-0.34125 0.58875,0.33 0.02375,0.29375 0.565,-0.10625 0.165,-0.4 0.97625,-0.4825 -0.07,0.58875 -0.6,0.22375 0.38875,0.57625 0.90625,0.02375 -0.29375,-0.47 0.035,-0.5525 0.37625,0.2825 0.41125,-0.05875 0.25875,0.3525 0.09375,-0.33 1.05875,0.01125 0.4,0.07 0.64125,-0.62375 0.10625,0.1525 -0.20625,0.69375 0.5125,0.01125 -0.13625,-0.8 0.5375,0.255 0.71375,-0.165 0.2975,-0.8 -0.2025,-0.48625 -0.55125,-0.08625 -0.1675,0.2575 -0.69,-0.36875 -1.1375,0.14125 -0.8,0.69 -0.235,-0.48625 -0.94125,-0.14875 -0.275,0.23125 -0.455,-0.2625 -0.6275,-0.02375 -0.16125,0.32 -0.63125,-0.305 -0.965,-0.01625 -0.72125,0.41625 -0.4975,-0.58875 -0.22375,0.345 0.345,0.21125 0.24375,0.3375 -0.49375,0.14125 -0.26625,0.49375 -0.19625,-0.94125 -0.03125,-0.38375 -0.525,-0.02375 -0.02125,0.61375 0.28875,0.02375 0.20625,0.37 -0.02375,0.29375 0.17875,0.3975 0.40375,-0.08625 0.2825,-0.4825 0.265,-0.09375 0.04125,-0.17 0.53,0.4475 -0.2525,0.31125 -0.265,-0.25875 -0.08875,0.1175 0.01125,0.31125 -0.29375,0.3525 -0.44125,-0.02375 -0.78875,-0.98875 -0.22875,-0.46 -0.535,-0.1875 -0.17625,-0.6 -0.43125,-0.2475 -0.05125,0.45875 -0.81125,0.2 -0.87,-0.565 -0.495,0.4375 -0.1875,0.6175 0.08,0.70375 -0.12,0.22375 -0.27,-0.17625 -0.2825,0.41125 -0.27,-0.19375 z m 0.40625,8.15375 v -0.4525 l 0.365,-0.7825 0.45875,0.50625 -0.32375,0.565 z m 0.74625,-1.54125 -0.01125,-0.3175 0.38875,-0.52375 -0.07,-0.72375 -0.55875,-0.67 0.10625,-0.31125 -0.2525,-0.25875 0.1175,-0.30625 0.865,1.67 v 0.99375 l -0.44125,1.02375 -0.365,-0.3825 z m 0.62875,-3.47625 0.05375,0.52875 -0.4475,0.22375 -0.2475,-0.31125 -0.03,-0.27 -0.18875,-0.2825 0.2175,-0.5175 0.29375,0.10625 -0.22375,-0.51125 -0.365,0.04125 0.07,0.31125 -0.165,0.365 -0.4525,-0.81125 0.565,-0.55875 0.2025,0.1 v -0.3175 l 0.34375,-0.43 0.24125,0.74125 -0.20625,0.27625 0.38875,0.2175 0.09375,0.6525 -0.4,0.27625 -0.285,0.535 0.05,0.135 0.15875,-0.08875 z m -0.61625,-2.85875 0.08,0.3525 -1.06125,1.13 -0.27,-0.6525 0.3,-0.2825 -0.20625,-0.19375 0.1525,-0.3825 0.365,0.19375 0.1,0.4525 0.21125,-0.6175 z m 0.1175,-1.45375 0.39375,0.3825 0.21125,-0.435 -0.39375,-0.065 -0.065,-0.30625 0.2525,-0.13 0.72375,0.4675 -0.17625,0.15 -0.43,0.735 -0.44125,0.2175 0.00625,-0.3175 -0.0825,-0.1175 v -0.58125 z m 3.71125,1.135 -0.55875,0.04125 -0.3825,-0.49375 -0.0525,0.4 0.1825,0.39375 -0.335,0.5 -0.58875,0.0825 -0.58875,-0.13 -0.3,0.0475 -0.52625,-0.37 -0.5025,-0.235 0.40625,-0.23 0.235,-0.0175 0.04625,-0.22375 0.48875,-0.78875 0.28875,0.28875 0.36125,0.31125 -0.315,0.20625 -0.27,-0.2475 -0.135,0.52375 0.3475,0.44125 0.335,-0.21125 -0.10625,-0.22375 0.47,-0.35875 0.2175,0.24375 -0.3525,0.42 0.01125,0.2825 0.27,-0.1175 0.20625,-0.33 -0.0525,-0.84125 0.19375,-0.2675 h 0.4 z m -1.6375,-1.3 0.38,-0.23125 0.1925,0.34125 -0.30625,0.2875 -0.10625,0.48125 -0.86625,-0.83125 z m 4.69,0.28875 0.235,0.565 -0.8825,-0.07625 z m -1.07,-0.19375 0.31125,0.19375 0.03375,-0.43 0.325,0.11125 0.19375,-0.165 h 0.44125 l 0.70625,0.565 0.1825,-0.17 -0.29375,-0.3 0.52375,-0.09375 0.27,0.1825 -0.35875,0.44125 -0.70625,0.35875 c 0,0 -0.4,-0.75875 -0.3825,-0.75875 0.0175,0 -0.3,-0.04125 -0.3,-0.04125 l -0.84125,0.70625 -0.4525,-0.54125 z m 3.64125,0.52375 0.1,-0.13 -0.52375,-0.535 0.60625,0.035 0.37,0.30875 -0.6,0.59125 -0.565,-0.1 -0.20625,-0.465 0.035,-0.22375 z m 1.00625,0.2175 0.1175,-0.1 -0.17,-0.37 0.30625,-0.1 0.29375,0.34125 -0.34125,0.365 -0.68,0.04125 -0.18,-0.08875 0.35875,-0.4475 z m 1.4225,-0.3 -0.45875,0.3525 -0.11125,-0.2825 -0.45875,-0.51125 0.3,-0.265 0.81125,-0.17 0.40625,0.1825 -0.1475,0.37625 0.1475,0.05625 0.19375,-0.42 0.41125,0.25875 0.27,0.30875 0.19375,-0.12 -0.375,-0.43125 0.29375,-0.12375 0.25875,0.20625 -0.20625,0.71125 -0.49375,0.035 -0.88875,-0.42625 h -0.6 l -0.03,0.2325 0.19375,0.03 0.1175,-0.08875 z m -12.29375,4.0225 -0.27625,0.2825 -0.265,-0.34125 0.08875,-0.3475 -0.05875,-0.4675 z m 26.365,-4.14625 0.9525,1.05875 h -0.69375 l -0.41125,-0.4825 z m 15.3,0.84625 -0.27,0.19375 -0.2825,-0.41125 -0.27,0.17625 -0.12125,-0.2225 0.08,-0.70375 -0.1875,-0.6175 -0.495,-0.4375 -0.87,0.565 -0.81125,-0.2 -0.05125,-0.45875 -0.43125,0.2475 -0.17875,0.59875 -0.535,0.1875 -0.22875,0.46 -0.78875,0.9875 -0.44125,0.02375 -0.29375,-0.3525 0.01125,-0.3125 -0.0875,-0.1175 -0.265,0.25875 -0.25375,-0.31125 0.53,-0.4475 0.04125,0.17 0.265,0.09375 0.2825,0.4825 0.40375,0.08625 0.17875,-0.3975 -0.02375,-0.29375 0.205,-0.37 0.28875,-0.02375 -0.02125,-0.61375 -0.525,0.02375 -0.03125,0.38375 -0.19625,0.94125 -0.2675,-0.49375 -0.49375,-0.14125 0.24375,-0.3375 0.345,-0.21125 -0.225,-0.345 -0.4975,0.5875 -0.72125,-0.415 -0.965,0.015 -0.63125,0.305 -0.16125,-0.32 -0.6275,0.0225 -0.455,0.2625 -0.275,-0.23125 -0.94,0.15 -0.235,0.48625 -0.8,-0.69 -1.1375,-0.14125 -0.69,0.36875 -0.165,-0.26 -0.55125,0.0875 -0.20125,0.48625 0.2975,0.8 0.71375,0.16375 0.5375,-0.255 -0.13625,0.8 0.5125,-0.01125 -0.20625,-0.69375 0.10625,-0.15375 0.64125,0.62375 0.4,-0.07 1.05875,-0.01125 0.09375,0.33 0.25875,-0.3525 0.41125,0.05875 0.37625,-0.2825 0.035,0.5525 -0.2925,0.46875 0.90625,-0.02375 0.38875,-0.57625 -0.6,-0.22375 -0.07125,-0.5875 0.97625,0.4825 0.165,0.4 0.56375,0.10625 0.02375,-0.295 0.58875,-0.32875 0.3875,0.34125 -0.16375,0.305 0.2,0.42375 0.13,-0.41125 0.74125,0.3525 0.62375,-0.18875 -0.18875,0.67 h 0.6 l -0.13,-0.705 0.57625,-0.13 0.2475,0.4825 0.61125,0.41125 -0.61125,0.235 0.73,0.4825 0.64625,-0.3275 -0.34125,-0.33 0.765,-0.18875 0.0825,0.25875 0.2,0.07625 -0.0775,-0.36625 0.34125,-0.285 0.39375,-0.08875 -0.27,0.53 -0.17625,0.54125 -0.33,0.31125 0.2,0.14125 v 0.49375 l -0.6825,-0.02375 -0.2475,-0.54125 -0.29375,0.94125 0.37625,0.69375 0.2825,-0.74125 h 0.57625 l -0.09375,1.165 0.37625,-0.10625 0.25875,0.165 -0.6,0.93 0.2475,0.25875 -0.05875,0.81125 0.6475,1.765 0.69375,0.5525 0.3525,-0.18875 0.1175,-0.47 -0.565,-1.05875 0.4825,-0.67 -0.10625,-0.2475 -0.50625,0.765 -0.02375,-0.53 -0.42375,-0.4 1,-0.54125 -0.17625,-0.41125 -0.61125,0.53 h -0.2825 l 0.58875,-0.74125 0.33,-0.82375 h 0.4475 l 0.0475,-0.89375 -0.15375,-0.55375 0.41125,-1.5175 -0.3525,-0.765 z m -0.735,8.07125 -0.32375,-0.565 0.45875,-0.50625 0.365,0.7825 v 0.45375 z m -0.02375,-1.1825 -0.365,0.3825 -0.44125,-1.02375 v -0.99375 l 0.865,-1.67 0.1175,0.30625 -0.2525,0.25875 0.10625,0.31125 -0.56,0.67 -0.07,0.72375 0.38875,0.52375 -0.01125,0.3175 z m -0.52375,-3.25875 0.15875,0.08875 0.05,-0.135 -0.285,-0.535 -0.4,-0.27625 0.09375,-0.6525 0.38875,-0.2175 -0.20625,-0.27875 0.24125,-0.74125 0.34375,0.43 v 0.3175 l 0.2025,-0.1 0.565,0.55875 -0.4525,0.81125 -0.165,-0.36375 0.07125,-0.3125 -0.365,-0.04125 -0.22375,0.51125 0.29375,-0.10625 0.2175,0.5175 -0.18875,0.2825 -0.03,0.27 -0.2475,0.31125 -0.4475,-0.22375 0.05375,-0.52875 z m 0.6175,-3.27 0.21125,0.6175 0.1,-0.4525 0.365,-0.19375 0.1525,0.3825 -0.20625,0.19375 0.3,0.2825 -0.27,0.6525 -1.06125,-1.13 0.08,-0.3525 z m -0.44625,-0.87125 -0.0825,0.1175 0.005,0.3175 -0.44125,-0.2175 -0.43,-0.735 -0.17625,-0.15 0.72375,-0.4675 0.2525,0.13 -0.065,0.30625 -0.39375,0.065 0.21125,0.435 0.39375,-0.3825 v 0.58125 z m -3.10625,-0.35 h 0.4 l 0.19375,0.2675 -0.0525,0.84125 0.20625,0.33 0.27,0.1175 0.01125,-0.2825 -0.3525,-0.42 0.2175,-0.24375 0.47,0.35875 -0.10625,0.22375 0.335,0.21125 0.3475,-0.44125 -0.135,-0.52375 -0.27,0.24625 -0.315,-0.20625 0.36125,-0.31125 0.28875,-0.28875 0.48875,0.78875 0.0475,0.22375 0.235,0.0175 0.40625,0.23 -0.5025,0.235 -0.52625,0.37 -0.3,-0.0475 -0.59,0.13 -0.5875,-0.0825 -0.335,-0.5 0.1825,-0.39375 -0.0525,-0.4 -0.3825,0.49375 -0.55875,-0.04125 z m 1.7375,-0.35 -0.86625,0.83125 -0.10625,-0.48125 -0.30625,-0.2875 0.1925,-0.34125 0.38,0.23125 z m -4.75,0.73 -0.88125,0.07625 0.235,-0.565 z m 0.77125,-0.62375 -0.4525,0.54125 -0.84125,-0.70625 c 0,0 -0.3175,0.04125 -0.3,0.04125 0.0175,0 -0.3825,0.75875 -0.3825,0.75875 l -0.70625,-0.35875 -0.35875,-0.44125 0.27,-0.1825 0.52375,0.09375 -0.29375,0.3 0.1825,0.17 0.70625,-0.565 h 0.44125 l 0.19375,0.16625 0.325,-0.11125 0.03375,0.43 0.31125,-0.195 z m -3.20625,-0.05375 0.035,0.22375 -0.205,0.465 -0.565,0.1 -0.6,-0.59125 0.37,-0.30875 0.60625,-0.035 -0.52375,0.535 0.1,0.13 z m -1.49375,0.3775 0.35875,0.4475 -0.18,0.0875 -0.67875,-0.04125 -0.34125,-0.365 0.29375,-0.34125 0.30625,0.1 -0.17125,0.37125 0.1175,0.1 z m -1.5475,-0.03 0.1175,0.08875 0.19375,-0.03 -0.02875,-0.2325 h -0.6 l -0.8875,0.42625 -0.495,-0.035 -0.205,-0.71125 0.25875,-0.20625 0.29375,0.12375 -0.37625,0.42875 0.19375,0.12 0.27,-0.30875 0.41125,-0.25875 0.19375,0.42 0.1475,-0.05625 -0.14625,-0.375 0.40625,-0.1825 0.81125,0.17 0.3,0.265 -0.45875,0.5125 -0.11125,0.2825 -0.45875,-0.3525 z m 12.635,3.23875 -0.05875,0.4675 0.08875,0.3475 -0.265,0.34125 -0.27625,-0.2825 z"/></svg>