<svg xmlns:dc="http://purl.org/dc/elements/1.1/" xmlns:cc="http://creativecommons.org/ns#" xmlns:rdf="http://www.w3.org/1999/02/22-rdf-syntax-ns#" xmlns:svg="http://www.w3.org/2000/svg" xmlns="http://www.w3.org/2000/svg" viewBox="0 0 45 45" style="enable-background:new 0 0 45 45;" xml:space="preserve" version="1.1" id="svg2"><metadata id="metadata8"><rdf:RDF><cc:Work rdf:about=""><dc:format>image/svg+xml</dc:format><dc:type rdf:resource="http://purl.org/dc/dcmitype/StillImage"/></cc:Work></rdf:RDF></metadata><defs id="defs6"><clipPath id="clipPath16" clipPathUnits="userSpaceOnUse"><path id="path18" d="M 0,36 36,36 36,0 0,0 0,36 Z"/></clipPath></defs><g transform="matrix(1.25,0,0,-1.25,0,45)" id="g10"><g id="g12"><g clip-path="url(#clipPath16)" id="g14"><g id="g20"><path id="path22" style="fill:#da251d;fill-opacity:1;fill-rule:nonzero;stroke:none" d="M 32,31.0001 H 4 c -2.209,0 -4,-1.791 -4,-4 v -4.668 h 36 v 4.668 c 0,2.209 -1.791,4 -4,4"/></g><g id="g24"><path id="path26" style="fill:#ffd400;fill-opacity:1;fill-rule:nonzero;stroke:none" d="M 0,13.669 V 9 C 0,6.791 1.791,5 4,5 h 28 c 2.209,0 4,1.791 4,4 v 4.669 z"/></g><g id="g28"><path id="path30" style="fill:#1eb53a;fill-opacity:1;fill-rule:nonzero;stroke:none" d="m 0,13.6691 h 36 v 8.663 H 0 Z"/></g><g id="g32"><path id="path40" style="fill:#eeeeee;fill-opacity:1;fill-rule:nonzero;stroke:none" d="m 3.3203,18.9117 v -1.652 h 0.36 c 0.195,0 0.347,0.065 0.459,0.192 0.113,0.127 0.168,0.291 0.168,0.49 v 0.29 c 0,0.198 -0.055,0.361 -0.168,0.489 -0.112,0.127 -0.264,0.191 -0.459,0.191 z m 0.36,0.223 c 0.274,0 0.494,-0.084 0.661,-0.253 0.166,-0.168 0.25,-0.386 0.25,-0.653 v -0.287 c 0,-0.267 -0.084,-0.485 -0.25,-0.653 -0.167,-0.167 -0.387,-0.251 -0.661,-0.251 h -0.879 v 0.182 l 0.236,0.04 v 1.652 l -0.236,0.041 v 0.182 h 0.236 z"/><path id="path41" style="fill:#eeeeee;fill-opacity:1;fill-rule:nonzero;stroke:none" d="m 4.668,18.9522 v 0.183 h 0.753 v -0.183 l -0.234,-0.041 v -1.651 l 0.234,-0.04 v -0.182 H 4.668 v 0.182 l 0.234,0.04 v 1.651 z"/><path id="path42" style="fill:#eeeeee;fill-opacity:1;fill-rule:nonzero;stroke:none" d="m 7.0303,18.1031 c 0,0.244 -0.059,0.443 -0.175,0.598 -0.117,0.153 -0.278,0.231 -0.485,0.231 -0.197,0 -0.352,-0.078 -0.463,-0.232 -0.11,-0.155 -0.166,-0.353 -0.166,-0.597 v -0.033 c 0,-0.245 0.056,-0.446 0.166,-0.599 0.111,-0.155 0.266,-0.232 0.463,-0.232 0.21,0 0.372,0.077 0.487,0.231 0.115,0.154 0.173,0.354 0.173,0.6 z m 0.284,-0.033 c 0,-0.305 -0.088,-0.559 -0.263,-0.759 -0.175,-0.203 -0.402,-0.303 -0.681,-0.303 -0.271,0 -0.49,0.1 -0.659,0.303 -0.169,0.2 -0.254,0.454 -0.254,0.759 v 0.031 c 0,0.305 0.085,0.558 0.254,0.76 0.169,0.203 0.388,0.304 0.659,0.304 0.279,0 0.506,-0.101 0.681,-0.304 0.175,-0.202 0.263,-0.455 0.263,-0.76 z"/><path id="path43" style="fill:#eeeeee;fill-opacity:1;fill-rule:nonzero;stroke:none" d="m 8.8682,18.5152 h -0.215 l -0.053,0.3 c -0.043,0.036 -0.1,0.067 -0.172,0.091 -0.073,0.024 -0.157,0.036 -0.251,0.036 -0.151,0 -0.267,-0.032 -0.347,-0.096 -0.081,-0.064 -0.121,-0.147 -0.121,-0.25 0,-0.091 0.041,-0.167 0.123,-0.228 0.082,-0.062 0.215,-0.115 0.398,-0.162 0.221,-0.054 0.389,-0.134 0.503,-0.241 0.115,-0.106 0.172,-0.238 0.172,-0.396 0,-0.169 -0.068,-0.304 -0.206,-0.407 -0.138,-0.103 -0.318,-0.154 -0.541,-0.154 -0.161,0 -0.305,0.026 -0.43,0.079 -0.126,0.053 -0.227,0.122 -0.306,0.208 v 0.389 h 0.214 l 0.054,-0.3 c 0.055,-0.045 0.119,-0.082 0.196,-0.112 0.076,-0.028 0.167,-0.043 0.272,-0.043 0.143,0 0.256,0.031 0.339,0.091 0.083,0.061 0.125,0.143 0.125,0.246 0,0.096 -0.036,0.177 -0.108,0.241 -0.072,0.065 -0.2,0.12 -0.382,0.164 -0.222,0.053 -0.395,0.13 -0.52,0.233 -0.125,0.103 -0.187,0.232 -0.187,0.387 0,0.165 0.069,0.301 0.209,0.41 0.139,0.11 0.32,0.164 0.543,0.164 0.147,0 0.28,-0.025 0.401,-0.076 0.12,-0.05 0.217,-0.111 0.29,-0.183 z"/><path id="path44" style="fill:#eeeeee;fill-opacity:1;fill-rule:nonzero;stroke:none" d="m 10.2627,19.1349 v -0.183 l -0.234,-0.04 v -1.198 c 0,-0.159 0.045,-0.279 0.134,-0.361 0.091,-0.082 0.21,-0.123 0.358,-0.123 0.155,0 0.281,0.041 0.376,0.123 0.095,0.081 0.142,0.201 0.142,0.361 v 1.198 l -0.234,0.04 v 0.183 h 0.519 0.234 v -0.183 l -0.234,-0.04 v -1.198 c 0,-0.227 -0.075,-0.402 -0.223,-0.523 -0.149,-0.122 -0.342,-0.183 -0.58,-0.183 -0.232,0 -0.419,0.061 -0.562,0.183 -0.143,0.121 -0.215,0.296 -0.215,0.523 v 1.198 l -0.234,0.04 v 0.183 h 0.234 z"/><path id="path45" style="fill:#eeeeee;fill-opacity:1;fill-rule:nonzero;stroke:none" d="m 13.6221,19.1349 v -0.183 l -0.234,-0.04 v -1.874 h -0.285 l -1.007,1.619 -0.009,-0.003 v -1.394 l 0.234,-0.04 v -0.182 h -0.753 v 0.182 l 0.235,0.04 v 1.652 l -0.235,0.04 v 0.183 h 0.235 0.284 l 1.008,-1.618 0.008,0.003 v 1.392 l -0.234,0.04 v 0.183 h 0.519 z"/><path id="path46" style="fill:#eeeeee;fill-opacity:1;fill-rule:nonzero;stroke:none" d="m 13.6367,18.9522 v 0.183 h 0.753 v -0.183 l -0.234,-0.041 v -1.651 l 0.234,-0.04 v -0.182 h -0.753 v 0.182 l 0.234,0.04 v 1.651 z"/><path id="path47" style="fill:#eeeeee;fill-opacity:1;fill-rule:nonzero;stroke:none" d="m 15.999,18.1031 c 0,0.244 -0.058,0.443 -0.175,0.598 -0.116,0.153 -0.278,0.231 -0.484,0.231 -0.198,0 -0.353,-0.078 -0.463,-0.232 -0.111,-0.155 -0.167,-0.353 -0.167,-0.597 v -0.033 c 0,-0.245 0.056,-0.446 0.167,-0.599 0.11,-0.155 0.265,-0.232 0.463,-0.232 0.209,0 0.371,0.077 0.486,0.231 0.115,0.154 0.173,0.354 0.173,0.6 z m 0.284,-0.033 c 0,-0.305 -0.088,-0.559 -0.263,-0.759 -0.175,-0.203 -0.402,-0.303 -0.68,-0.303 -0.271,0 -0.491,0.1 -0.66,0.303 -0.169,0.2 -0.253,0.454 -0.253,0.759 v 0.031 c 0,0.305 0.084,0.558 0.253,0.76 0.169,0.203 0.389,0.304 0.66,0.304 0.278,0 0.505,-0.101 0.68,-0.304 0.175,-0.202 0.263,-0.455 0.263,-0.76 z"/><path id="path48" style="fill:#eeeeee;fill-opacity:1;fill-rule:nonzero;stroke:none" d="m 18.374,19.1349 v -0.183 l -0.235,-0.04 v -1.874 h -0.285 l -1.007,1.619 -0.009,-0.003 v -1.394 l 0.234,-0.04 v -0.182 h -0.753 v 0.182 l 0.235,0.04 v 1.652 l -0.235,0.04 v 0.183 h 0.235 0.284 l 1.008,-1.618 0.008,0.003 v 1.392 l -0.234,0.04 v 0.183 h 0.519 z"/><path id="path49" style="fill:#eeeeee;fill-opacity:1;fill-rule:nonzero;stroke:none" d="m 19.4648,18.1012 h 0.445 c 0.142,0 0.248,0.037 0.319,0.114 0.07,0.076 0.106,0.173 0.106,0.288 0,0.118 -0.036,0.214 -0.106,0.292 -0.071,0.077 -0.177,0.117 -0.319,0.117 h -0.445 z m 0.445,1.034 c 0.224,0 0.398,-0.058 0.522,-0.173 0.125,-0.115 0.186,-0.267 0.186,-0.455 0,-0.19 -0.061,-0.343 -0.186,-0.457 -0.124,-0.114 -0.298,-0.172 -0.522,-0.172 h -0.445 v -0.618 l 0.234,-0.04 v -0.182 h -0.753 v 0.182 l 0.235,0.04 v 1.652 l -0.235,0.04 v 0.183 h 0.235 z"/><path id="path50" style="fill:#eeeeee;fill-opacity:1;fill-rule:nonzero;stroke:none" d="m 21.1611,18.1969 h 0.373 c 0.158,0 0.273,0.031 0.346,0.092 0.072,0.059 0.107,0.148 0.107,0.263 0,0.112 -0.034,0.199 -0.103,0.263 -0.07,0.065 -0.176,0.097 -0.322,0.097 h -0.401 z m 0.401,0.937 c 0.229,0 0.405,-0.051 0.527,-0.152 0.121,-0.101 0.182,-0.245 0.182,-0.431 0,-0.102 -0.028,-0.193 -0.085,-0.272 -0.056,-0.078 -0.137,-0.141 -0.243,-0.186 0.114,-0.037 0.197,-0.098 0.247,-0.182 0.05,-0.085 0.075,-0.189 0.075,-0.313 v -0.168 c 0,-0.065 0.008,-0.111 0.025,-0.143 0.017,-0.03 0.043,-0.048 0.081,-0.054 l 0.069,-0.009 v -0.186 h -0.153 c -0.11,0 -0.189,0.038 -0.235,0.116 -0.047,0.077 -0.071,0.169 -0.071,0.279 v 0.162 c 0,0.115 -0.032,0.206 -0.098,0.276 -0.067,0.068 -0.156,0.103 -0.267,0.103 h -0.455 v -0.714 l 0.234,-0.04 v -0.182 h -0.753 v 0.182 l 0.235,0.04 v 1.652 l -0.235,0.04 v 0.182 h 0.235 z"/><path id="path51" style="fill:#eeeeee;fill-opacity:1;fill-rule:nonzero;stroke:none" d="m 24.0459,18.1031 c 0,0.244 -0.059,0.443 -0.175,0.598 -0.116,0.153 -0.278,0.231 -0.484,0.231 -0.198,0 -0.353,-0.078 -0.464,-0.232 -0.11,-0.155 -0.166,-0.353 -0.166,-0.597 v -0.033 c 0,-0.245 0.056,-0.446 0.166,-0.599 0.111,-0.155 0.266,-0.232 0.464,-0.232 0.209,0 0.371,0.077 0.486,0.231 0.115,0.154 0.173,0.354 0.173,0.6 z m 0.284,-0.033 c 0,-0.305 -0.088,-0.559 -0.263,-0.759 -0.175,-0.203 -0.402,-0.303 -0.68,-0.303 -0.272,0 -0.491,0.1 -0.66,0.303 -0.169,0.2 -0.253,0.454 -0.253,0.759 v 0.031 c 0,0.305 0.084,0.558 0.253,0.76 0.169,0.203 0.388,0.304 0.66,0.304 0.278,0 0.505,-0.101 0.68,-0.304 0.175,-0.202 0.263,-0.455 0.263,-0.76 z"/><path id="path52" style="fill:#eeeeee;fill-opacity:1;fill-rule:nonzero;stroke:none" d="m 26.0361,17.2755 c -0.062,-0.064 -0.152,-0.125 -0.272,-0.182 -0.12,-0.057 -0.276,-0.086 -0.468,-0.086 -0.281,0 -0.509,0.099 -0.687,0.295 -0.177,0.198 -0.265,0.453 -0.265,0.766 v 0.035 c 0,0.316 0.088,0.572 0.262,0.768 0.176,0.196 0.409,0.294 0.7,0.294 0.156,0 0.293,-0.025 0.41,-0.073 0.118,-0.048 0.216,-0.112 0.298,-0.192 v -0.38 h -0.2 l -0.069,0.289 c -0.047,0.038 -0.104,0.07 -0.17,0.095 -0.067,0.025 -0.147,0.038 -0.24,0.038 -0.227,0 -0.402,-0.078 -0.524,-0.233 -0.123,-0.155 -0.183,-0.356 -0.183,-0.602 v -0.039 c 0,-0.251 0.058,-0.453 0.178,-0.606 0.118,-0.156 0.282,-0.233 0.49,-0.233 0.114,0 0.208,0.012 0.281,0.036 0.072,0.025 0.131,0.051 0.176,0.079 v 0.46 l -0.345,0.013 v 0.209 h 0.628 z"/><path id="path53" style="fill:#eeeeee;fill-opacity:1;fill-rule:nonzero;stroke:none" d="m 26.7061,18.1969 h 0.373 c 0.158,0 0.273,0.031 0.346,0.092 0.072,0.059 0.107,0.148 0.107,0.263 0,0.112 -0.034,0.199 -0.103,0.263 -0.07,0.065 -0.176,0.097 -0.322,0.097 h -0.401 z m 0.401,0.937 c 0.229,0 0.405,-0.051 0.527,-0.152 0.121,-0.101 0.182,-0.245 0.182,-0.431 0,-0.102 -0.028,-0.193 -0.085,-0.272 -0.056,-0.078 -0.137,-0.141 -0.243,-0.186 0.114,-0.037 0.197,-0.098 0.247,-0.182 0.05,-0.085 0.075,-0.189 0.075,-0.313 v -0.168 c 0,-0.065 0.008,-0.111 0.025,-0.143 0.017,-0.03 0.043,-0.048 0.081,-0.054 l 0.069,-0.009 v -0.186 h -0.153 c -0.11,0 -0.189,0.038 -0.235,0.116 -0.047,0.077 -0.071,0.169 -0.071,0.279 v 0.162 c 0,0.115 -0.032,0.206 -0.098,0.276 -0.067,0.068 -0.156,0.103 -0.267,0.103 h -0.455 v -0.714 l 0.234,-0.04 v -0.182 h -0.753 v 0.182 l 0.235,0.04 v 1.652 l -0.235,0.04 v 0.182 h 0.235 z"/><path id="path54" style="fill:#eeeeee;fill-opacity:1;fill-rule:nonzero;stroke:none" d="m 28.0068,17.0382 v 0.182 l 0.234,0.04 v 1.652 l -0.234,0.04 v 0.183 h 1.61 v -0.504 h -0.244 l -0.022,0.281 h -0.825 v -0.679 h 0.801 v -0.223 h -0.801 v -0.75 h 0.842 l 0.023,0.28 h 0.242 v -0.502 z"/><path id="path55" style="fill:#eeeeee;fill-opacity:1;fill-rule:nonzero;stroke:none" d="m 31.2285,18.5152 h -0.214 l -0.054,0.3 c -0.043,0.036 -0.1,0.067 -0.172,0.091 -0.073,0.024 -0.156,0.036 -0.251,0.036 -0.151,0 -0.267,-0.032 -0.347,-0.096 -0.081,-0.064 -0.121,-0.147 -0.121,-0.25 0,-0.091 0.041,-0.167 0.123,-0.228 0.082,-0.062 0.215,-0.115 0.398,-0.162 0.221,-0.054 0.389,-0.134 0.503,-0.241 0.115,-0.106 0.173,-0.238 0.173,-0.396 0,-0.169 -0.069,-0.304 -0.207,-0.407 -0.138,-0.103 -0.318,-0.154 -0.541,-0.154 -0.161,0 -0.305,0.026 -0.43,0.079 -0.125,0.053 -0.227,0.122 -0.306,0.208 v 0.389 h 0.214 l 0.054,-0.3 c 0.055,-0.045 0.12,-0.082 0.196,-0.112 0.076,-0.028 0.167,-0.043 0.272,-0.043 0.144,0 0.256,0.031 0.34,0.091 0.083,0.061 0.124,0.143 0.124,0.246 0,0.096 -0.036,0.177 -0.108,0.241 -0.072,0.065 -0.2,0.12 -0.381,0.164 -0.223,0.053 -0.396,0.13 -0.521,0.233 -0.125,0.103 -0.187,0.232 -0.187,0.387 0,0.165 0.07,0.301 0.209,0.41 0.139,0.11 0.32,0.164 0.543,0.164 0.147,0 0.281,-0.025 0.401,-0.076 0.121,-0.05 0.218,-0.111 0.29,-0.183 z"/><path id="path56" style="fill:#eeeeee;fill-opacity:1;fill-rule:nonzero;stroke:none" d="m 32.9141,18.1031 c 0,0.244 -0.059,0.443 -0.175,0.598 -0.116,0.153 -0.278,0.231 -0.484,0.231 -0.198,0 -0.353,-0.078 -0.464,-0.232 -0.11,-0.155 -0.166,-0.353 -0.166,-0.597 v -0.033 c 0,-0.245 0.056,-0.446 0.166,-0.599 0.111,-0.155 0.266,-0.232 0.464,-0.232 0.209,0 0.371,0.077 0.486,0.231 0.115,0.154 0.173,0.354 0.173,0.6 z m 0.284,-0.033 c 0,-0.305 -0.088,-0.559 -0.263,-0.759 -0.175,-0.203 -0.402,-0.303 -0.68,-0.303 -0.272,0 -0.491,0.1 -0.66,0.303 -0.169,0.2 -0.253,0.454 -0.253,0.759 v 0.031 c 0,0.305 0.084,0.558 0.253,0.76 0.169,0.203 0.388,0.304 0.66,0.304 0.278,0 0.505,-0.101 0.68,-0.304 0.175,-0.202 0.263,-0.455 0.263,-0.76 z"/></g><g id="g34"><path id="path60" style="fill:#ffd400;fill-opacity:1;fill-rule:nonzero;stroke:none" d="m 18.8896,29.2789 0.197,-0.585 0.618,0.002 -0.496,-0.369 0.194,-0.587 -0.504,0.358 -0.499,-0.366 0.184,0.59 -0.501,0.362 0.619,0.006 z"/><path id="path61" style="fill:#ffd400;fill-opacity:1;fill-rule:nonzero;stroke:none" d="m 20.7031,29.1656 0.202,-0.584 0.618,0.007 -0.494,-0.373 0.198,-0.585 -0.506,0.354 -0.496,-0.369 0.18,0.591 -0.505,0.357 0.618,0.012 z"/><path id="path62" style="fill:#ffd400;fill-opacity:1;fill-rule:nonzero;stroke:none" d="m 22.4854,28.8751 0.206,-0.583 0.618,0.013 -0.49,-0.377 0.202,-0.584 -0.51,0.35 -0.492,-0.373 0.175,0.593 -0.507,0.354 0.618,0.016 z"/><path id="path63" style="fill:#ffd400;fill-opacity:1;fill-rule:nonzero;stroke:none" d="m 24.1514,28.4986 0.211,-0.581 0.618,0.017 -0.487,-0.38 0.207,-0.583 -0.513,0.346 -0.49,-0.377 0.172,0.595 -0.51,0.349 0.617,0.021 z"/><path id="path64" style="fill:#ffd400;fill-opacity:1;fill-rule:nonzero;stroke:none" d="m 25.7793,28.0201 0.215,-0.58 0.618,0.022 -0.484,-0.384 0.211,-0.581 -0.515,0.342 -0.487,-0.38 0.167,0.595 -0.513,0.346 0.617,0.026 z"/><path id="path65" style="fill:#ffd400;fill-opacity:1;fill-rule:nonzero;stroke:none" d="m 27.4072,27.3434 0.219,-0.578 0.618,0.026 -0.482,-0.387 0.215,-0.58 -0.516,0.339 -0.485,-0.384 0.162,0.596 -0.515,0.342 0.618,0.03 z"/><path id="path66" style="fill:#ffd400;fill-opacity:1;fill-rule:nonzero;stroke:none" d="m 28.9971,26.4967 0.224,-0.576 0.618,0.031 -0.48,-0.392 0.221,-0.577 -0.521,0.334 -0.48,-0.388 0.157,0.598 -0.517,0.338 0.617,0.035 z"/><path id="path67" style="fill:#ffd400;fill-opacity:1;fill-rule:nonzero;stroke:none" d="m 30.5264,25.4903 0.229,-0.575 0.617,0.036 -0.477,-0.395 0.225,-0.576 -0.523,0.331 -0.477,-0.392 0.152,0.599 -0.52,0.334 0.617,0.04 z"/><path id="path68" style="fill:#ffd400;fill-opacity:1;fill-rule:nonzero;stroke:none" d="m 31.9053,24.2643 0.232,-0.573 0.618,0.04 -0.474,-0.398 0.229,-0.574 -0.525,0.326 -0.475,-0.395 0.148,0.6 -0.523,0.33 0.618,0.045 z"/><path id="path69" style="fill:#ffd400;fill-opacity:1;fill-rule:nonzero;stroke:none" d="m 32.9766,22.9972 0.237,-0.571 0.617,0.045 -0.47,-0.402 0.233,-0.572 -0.527,0.322 -0.473,-0.399 0.145,0.602 -0.526,0.326 0.617,0.049 z"/><path id="path70" style="fill:#ffd400;fill-opacity:1;fill-rule:nonzero;stroke:none" d="m 33.8457,21.5538 0.241,-0.569 0.616,0.049 -0.466,-0.405 0.238,-0.571 -0.53,0.319 -0.469,-0.403 0.139,0.603 -0.528,0.322 0.615,0.053 z"/><path id="path71" style="fill:#ffd400;fill-opacity:1;fill-rule:nonzero;stroke:none" d="m 34.418,19.7022 0.245,-0.567 0.616,0.054 -0.464,-0.409 0.243,-0.569 -0.533,0.315 -0.466,-0.407 0.134,0.604 -0.53,0.318 0.616,0.058 z"/><path id="path72" style="fill:#ffd400;fill-opacity:1;fill-rule:nonzero;stroke:none" d="m 34.5186,18.0719 0.254,-0.563 0.615,0.063 -0.457,-0.416 0.25,-0.565 -0.537,0.306 -0.46,-0.412 0.126,0.604 -0.535,0.311 0.614,0.067 z"/><path id="path73" style="fill:#ffd400;fill-opacity:1;fill-rule:nonzero;stroke:none" d="m 17.1006,29.2789 -0.197,-0.585 -0.619,0.002 0.497,-0.369 -0.194,-0.587 0.504,0.358 0.499,-0.366 -0.185,0.59 0.502,0.362 -0.619,0.006 z"/><path id="path74" style="fill:#ffd400;fill-opacity:1;fill-rule:nonzero;stroke:none" d="m 15.2871,29.1656 -0.202,-0.584 -0.618,0.007 0.493,-0.373 -0.198,-0.585 0.507,0.354 0.496,-0.369 -0.18,0.591 0.504,0.357 -0.618,0.012 z"/><path id="path75" style="fill:#ffd400;fill-opacity:1;fill-rule:nonzero;stroke:none" d="m 13.5049,28.8751 -0.207,-0.583 -0.618,0.013 0.491,-0.377 -0.203,-0.584 0.51,0.35 0.493,-0.373 -0.175,0.593 0.506,0.354 -0.617,0.016 z"/><path id="path76" style="fill:#ffd400;fill-opacity:1;fill-rule:nonzero;stroke:none" d="m 11.8384,28.4986 -0.211,-0.581 -0.618,0.017 0.488,-0.38 -0.207,-0.583 0.512,0.346 0.49,-0.377 -0.171,0.595 0.509,0.349 -0.617,0.021 z"/><path id="path77" style="fill:#ffd400;fill-opacity:1;fill-rule:nonzero;stroke:none" d="m 10.2109,28.0201 -0.215,-0.58 -0.618,0.022 0.484,-0.384 -0.211,-0.581 0.515,0.342 0.487,-0.38 -0.167,0.595 0.513,0.346 -0.618,0.026 z"/><path id="path78" style="fill:#ffd400;fill-opacity:1;fill-rule:nonzero;stroke:none" d="m 8.5835,27.3434 -0.22,-0.578 -0.617,0.026 0.481,-0.387 -0.215,-0.58 0.517,0.339 0.484,-0.384 -0.162,0.596 0.515,0.342 -0.617,0.03 z"/><path id="path79" style="fill:#ffd400;fill-opacity:1;fill-rule:nonzero;stroke:none" d="m 6.9927,26.4967 -0.224,-0.576 -0.617,0.031 0.479,-0.392 -0.221,-0.577 0.521,0.334 0.48,-0.388 -0.157,0.598 0.518,0.338 -0.617,0.035 z"/><path id="path80" style="fill:#ffd400;fill-opacity:1;fill-rule:nonzero;stroke:none" d="m 5.4639,25.4903 -0.229,-0.575 -0.617,0.036 0.476,-0.395 -0.224,-0.576 0.522,0.331 0.478,-0.392 -0.153,0.599 0.521,0.334 -0.617,0.04 z"/><path id="path81" style="fill:#ffd400;fill-opacity:1;fill-rule:nonzero;stroke:none" d="m 4.085,24.2643 -0.232,-0.573 -0.618,0.04 0.474,-0.398 -0.229,-0.574 0.524,0.326 0.476,-0.395 -0.148,0.6 0.522,0.33 -0.617,0.045 z"/><path id="path82" style="fill:#ffd400;fill-opacity:1;fill-rule:nonzero;stroke:none" d="m 3.0132,22.9972 -0.237,-0.571 -0.617,0.045 0.47,-0.402 -0.233,-0.572 0.527,0.322 0.473,-0.399 -0.144,0.602 0.525,0.326 -0.616,0.049 z"/><path id="path83" style="fill:#ffd400;fill-opacity:1;fill-rule:nonzero;stroke:none" d="m 2.1445,21.5538 -0.242,-0.569 -0.616,0.049 0.467,-0.405 -0.238,-0.571 0.53,0.319 0.47,-0.403 -0.14,0.603 0.528,0.322 -0.616,0.053 z"/><path id="path84" style="fill:#ffd400;fill-opacity:1;fill-rule:nonzero;stroke:none" d="m 1.5723,19.7022 -0.246,-0.567 -0.615,0.054 0.463,-0.409 -0.242,-0.569 0.533,0.315 0.466,-0.407 -0.135,0.604 0.53,0.318 -0.615,0.058 z"/><path id="path85" style="fill:#ffd400;fill-opacity:1;fill-rule:nonzero;stroke:none" d="m 1.4717,18.0719 -0.254,-0.563 -0.615,0.063 0.457,-0.416 -0.251,-0.565 0.538,0.306 0.459,-0.412 -0.125,0.604 0.535,0.311 -0.615,0.067 z"/></g></g></g></g></svg>