<svg xmlns:dc="http://purl.org/dc/elements/1.1/" xmlns:cc="http://creativecommons.org/ns#" xmlns:rdf="http://www.w3.org/1999/02/22-rdf-syntax-ns#" xmlns:svg="http://www.w3.org/2000/svg" xmlns="http://www.w3.org/2000/svg" viewBox="0 0 45 45" style="enable-background:new 0 0 45 45;" xml:space="preserve" version="1.1" id="svg2"><metadata id="metadata8"><rdf:RDF><cc:Work rdf:about=""><dc:format>image/svg+xml</dc:format><dc:type rdf:resource="http://purl.org/dc/dcmitype/StillImage"/></cc:Work></rdf:RDF></metadata><defs id="defs6"><clipPath id="clipPath16" clipPathUnits="userSpaceOnUse"><path id="path18" d="M 0,36 36,36 36,0 0,0 0,36 Z"/></clipPath></defs><g transform="matrix(1.25,0,0,-1.25,0,45)" id="g10"><g id="g12"><g xmlns="http://www.w3.org/2000/svg" clip-path="url(#clipPath16)" id="g14"><g id="g20"><path id="path22" style="fill:#d50024;fill-opacity:1;fill-rule:nonzero;stroke:none" d="M 32,31 4,31 C 1.791,31 0,29.209 0,27 L 0,9 C 0,6.791 1.791,5 4,5 L 9.12,5 25.88,5 32,5 c 2.209,0 4,1.791 4,4 l 0,18 c 0,2.209 -1.791,4 -4,4"/></g><g id="g24"><path id="path26" style="fill:#dbb73f;fill-opacity:1;fill-rule:nonzero;stroke:none" d="m 11.8799,9.1719 c 0,0 0.247,0.148 0.43,0.486 0.106,0.196 0.134,0.483 0.134,0.483 0,0 -0.043,0.05 -0.043,0.153 0,0.175 0.199,0.42 0.199,0.42 0,0 0.058,0.106 0.083,0.276 0.02,0.136 0,0.26 0,0.26 0,0 -0.091,0.162 -0.091,0.445 0,0.245 0.081,0.561 0.081,0.561 0,0 -0.204,0.182 -0.339,0.536 -0.136,0.356 -0.212,0.773 -0.212,0.773 0,0 -0.019,0.021 -0.075,0.05 -0.056,0.031 -0.134,0.043 -0.134,0.043 0,0 0.05,-0.187 0.05,-0.402 0,-0.292 -0.106,-0.37 -0.106,-0.37 0,0 -0.094,0.279 -0.242,0.438 -0.182,0.195 -0.332,0.17 -0.527,0.5 -0.146,0.247 -0.18,0.551 -0.18,0.551 0,0 -0.106,0.019 -0.259,0 -0.154,-0.018 -0.169,-0.044 -0.224,-0.044 -0.055,0 -0.136,0.043 -0.172,0.132 -0.047,0.115 0.011,0.207 0.011,0.207 0,0 -0.064,-0.009 -0.125,0.057 -0.061,0.065 -0.069,0.229 -0.111,0.307 -0.042,0.078 -0.153,0.091 -0.153,0.224 0,0.216 0.316,0.469 0.316,0.469 0,0 -0.014,0.234 -0.103,0.473 -0.074,0.198 -0.085,0.533 -0.085,0.533 0,0 -0.28,0.026 -0.568,0.278 -0.221,0.192 -0.24,0.559 -0.202,0.584 0.017,0.012 0.083,0.013 0.144,0.001 0.069,-0.013 0.183,-0.052 0.183,-0.052 0,0 0.052,-0.011 0.262,-0.003 0.209,0.007 0.27,0.005 0.27,0.005 l -0.001,0.099 c 0,0 -0.528,0.141 -0.528,0.843 0,0.602 0.378,0.89 0.663,1.039 0.262,0.139 0.435,0.097 0.435,0.097 0,0 -0.512,-0.308 -0.512,-0.701 0,-0.251 0.181,-0.358 0.181,-0.358 0,0 0.317,0.694 1.382,0.694 0.37,0 0.599,-0.084 0.599,-0.084 0,0 0.036,0.074 0.277,0.194 0.203,0.101 0.454,0.156 0.454,0.156 0,0 -0.045,0.072 -0.183,0.156 -0.137,0.085 -0.29,0.121 -0.29,0.121 0,0 0.131,0.063 0.49,-0.014 0.269,-0.057 0.437,-0.173 0.437,-0.173 0,0 0.457,0.017 0.878,0.206 0.42,0.188 0.65,0.479 1.426,0.479 1.318,0 1.926,-1.032 1.926,-1.032 0,0 1.385,-1.125 2.335,-1.313 0.655,-0.13 0.98,-0.039 2.062,-0.039 1.083,0 1.358,-0.455 1.358,-0.455 0,0 0.634,0.612 1.208,0.612 0.572,0 1.144,-0.494 1.144,-2.071 0,-1.082 -0.337,-2.078 0.15,-2.69 0.186,-0.235 0.574,-0.177 0.756,-0.549 0.333,-0.679 0.094,-1.325 0.094,-1.325 0,0 -0.138,0.135 -0.349,0.486 -0.239,0.395 -1.046,0.113 -1.046,1.494 0,1.341 0.181,1.691 0.169,2.631 -0.012,0.879 -0.334,1.606 -0.848,1.606 -0.36,0 -0.525,-0.317 -0.702,-0.527 -0.163,-0.194 -0.225,-0.301 -0.225,-0.301 0,0 0.137,-0.401 0.298,-0.841 0.186,-0.509 0.399,-1.085 0.399,-1.392 0,-0.878 -0.431,-1.546 -0.431,-1.846 0,-0.472 0.634,-1.071 0.869,-1.071 0.36,0 0.407,-0.073 0.407,-0.354 0,-0.231 -0.074,-0.603 -0.074,-1.26 0,-0.769 0.093,-1.018 -0.002,-1.1 -0.064,-0.057 -0.179,-0.01 -0.179,-0.01 l -0.097,-0.2 c 0,0 0.114,-0.167 0.114,-0.391 0,-0.552 -1.107,-0.552 -1.107,-0.552 0,0 -0.001,0.058 0.021,0.122 0.021,0.062 0.042,0.096 0.042,0.096 0,0 -0.066,-0.026 -0.212,-0.026 -0.147,0 -0.205,0.02 -0.205,0.02 0,0 0.104,0.114 0.292,0.387 0.187,0.274 0.234,0.443 0.307,0.484 0.052,0.029 0.107,0.029 0.107,0.029 0,0 0.199,0.28 0.252,0.506 0.029,0.125 0.067,1.043 -0.134,1.358 -0.316,0.496 -0.622,0.543 -0.622,0.543 0,0 -0.928,0.055 -1.103,0.174 -0.133,0.091 -0.218,0.223 -0.318,0.347 -0.12,0.15 -0.241,0.286 -0.241,0.286 0,0 -0.639,-0.645 -0.639,-1.339 0,-0.556 0.258,-0.422 0.253,-0.681 -0.003,-0.175 -0.45,-0.302 -0.77,-0.733 -0.347,-0.468 -0.28,-0.777 -0.394,-0.854 -0.096,-0.063 -0.276,0.122 -0.276,0.122 l -0.156,-0.281 c 0,0 0.088,-0.236 -0.082,-0.449 -0.259,-0.321 -1.186,-0.191 -1.186,-0.191 l 0.11,0.21 c 0,0 -0.198,-0.007 -0.283,0.001 -0.084,0.007 -0.12,0.036 -0.12,0.036 0,0 0.128,0.084 0.349,0.365 0.105,0.135 0.248,0.328 0.37,0.402 0.134,0.08 0.242,0.034 0.242,0.034 0,0 0.222,0.273 0.471,0.573 0.253,0.304 0.534,0.637 0.534,0.914 0,0.4 -0.334,0.678 -0.573,1.196 -0.173,0.374 -0.212,0.712 -0.212,0.712 0,0 -0.351,-0.238 -0.749,-0.352 -0.498,-0.14 -0.874,-0.364 -0.874,-0.364 l 0,0.318 c 0,0 -0.609,-0.169 -1.016,-0.185 -0.47,-0.018 -0.69,0.158 -0.69,0.158 l -0.016,-0.112 c 0,0 -0.032,0.034 -0.055,0.064 -0.022,0.031 -0.036,0.058 -0.036,0.058 0,0 -0.089,-0.058 -0.198,-0.109 -0.11,-0.052 -0.233,-0.097 -0.233,-0.097 0,0 0.043,-0.295 0.043,-0.554 0,-0.321 -0.078,-0.556 -0.078,-0.556 0,0 0.12,-0.189 0.12,-0.314 0,-0.126 -0.061,-0.104 -0.061,-0.398 0,-0.261 0.143,-0.555 0.143,-0.555 0,0 0.077,-0.511 0.049,-0.636 -0.031,-0.138 -0.19,-0.064 -0.19,-0.064 l -0.039,-0.208 c 0,0 0.175,-0.347 -0.108,-0.573 -0.324,-0.258 -0.912,-0.247 -0.912,-0.247 0,0 -10e-4,0.024 0.014,0.094 0.014,0.07 0.033,0.136 0.033,0.136 0,0 -0.091,-0.036 -0.225,-0.047 -0.134,-0.011 -0.181,0.017 -0.181,0.017 0,0 0.155,0.176 0.3,0.419 0.145,0.242 0.208,0.319 0.303,0.385 0.072,0.051 0.178,0.041 0.178,0.041 0,0 0.149,0.323 0.149,0.659 0,0.398 -0.197,0.782 -0.197,0.782 0,0 -0.186,0.008 -0.227,0.262 -0.036,0.228 -0.006,0.532 -0.006,0.532 0,0 -0.036,0.14 -0.136,0.37 -0.1,0.229 -0.175,0.364 -0.175,0.364 l -0.025,-0.013 c 0,0 -0.009,0.068 0.003,0.16 0.014,0.103 -0.063,0.186 -0.063,0.186 0,0 -0.207,-0.116 -0.275,-0.296 -0.031,-0.085 -0.046,-0.209 -0.076,-0.297 -0.034,-0.096 -0.081,-0.152 -0.081,-0.152 0,0 -0.019,0.05 -0.172,0.16 -0.11,0.08 -0.275,0.156 -0.275,0.156 0,0 -0.134,-0.172 -0.134,-0.401 0,-0.082 0.024,-0.128 0.023,-0.192 -0.002,-0.191 -0.203,-0.251 -0.386,-0.494 -0.123,-0.163 -0.331,-0.421 -0.359,-0.773 -0.026,-0.327 -0.061,-0.462 -0.257,-0.397 -0.112,0.038 -0.193,0.109 -0.193,0.109 l -0.097,-0.084 0.022,-0.292 c 0,0 0.167,-0.349 -0.174,-0.557 -0.341,-0.208 -0.847,-0.149 -0.847,-0.149 l 0.082,0.237 c 0,0 -0.035,-0.022 -0.171,-0.034 -0.135,-0.013 -0.209,0.02 -0.209,0.02 0,0 0.102,0.097 0.314,0.403 0.136,0.197 0.178,0.349 0.24,0.392 0.09,0.063 0.207,0.019 0.207,0.019"/></g><g id="g28"><path id="path30" style="fill:#cd9a30;fill-opacity:1;fill-rule:nonzero;stroke:none" d="m 14.5,23.5415 c 0,0 -0.097,0.005 -0.15,0.125 -0.053,0.121 0.058,0.193 0.058,0.193 l -1.149,2.153 -0.147,-0.058 -0.332,0.158 c 0,0 -0.107,0.084 -0.036,0.231 0.057,0.119 0.243,0.172 0.243,0.172 l -0.689,1.297 1.536,0.603 0.416,-0.442 0.366,-0.908 0.533,0.128 -0.385,1.48 1.561,0.277 0.197,-0.504 0.103,-1.01 0.706,0.061 -0.095,1.531 1.528,0 -0.095,-1.531 0.706,-0.061 0.104,1.01 0.196,0.504 1.561,-0.277 -0.385,-1.48 0.534,-0.128 0.365,0.908 0.416,0.442 1.535,-0.603 -0.688,-1.297 c 0,0 0.186,-0.053 0.243,-0.172 0.07,-0.147 -0.035,-0.231 -0.035,-0.231 l -0.333,-0.158 -0.148,0.058 -1.148,-2.153 c 0,0 0.111,-0.072 0.058,-0.193 -0.053,-0.12 -0.15,-0.125 -0.15,-0.125 l -7,0 z"/></g></g></g></g></svg>