<svg xmlns:dc="http://purl.org/dc/elements/1.1/" xmlns:cc="http://creativecommons.org/ns#" xmlns:rdf="http://www.w3.org/1999/02/22-rdf-syntax-ns#" xmlns:svg="http://www.w3.org/2000/svg" xmlns="http://www.w3.org/2000/svg" viewBox="0 0 45 45" style="enable-background:new 0 0 45 45;" xml:space="preserve" version="1.1" id="svg2"><metadata id="metadata8"><rdf:RDF><cc:Work rdf:about=""><dc:format>image/svg+xml</dc:format><dc:type rdf:resource="http://purl.org/dc/dcmitype/StillImage"/></cc:Work></rdf:RDF></metadata><defs id="defs6"><clipPath id="clipPath16" clipPathUnits="userSpaceOnUse"><path id="path18" d="M 0,36 36,36 36,0 0,0 0,36 Z"/></clipPath></defs><g transform="matrix(1.25,0,0,-1.25,0,45)" id="g10"><g id="g12"><g xmlns="http://www.w3.org/2000/svg" clip-path="url(#clipPath16)" id="g14"><g id="g30"><path id="path20" style="fill:#00450c;fill-opacity:1;fill-rule:nonzero;stroke:none" d="M 32,31 4,31 C 1.791,31 0,29.209 0,27 L 0,9 C 0,6.791 1.791,5 4,5 l 28,0 c 2.209,0 4,1.791 4,4 l 0,18 c 0,2.209 -1.791,4 -4,4"/></g><g id="g34"><path id="path30" style="fill:#ffffff;fill-opacity:1;fill-rule:nonzero;stroke:none" d="m 23.6689,10.6328 c 0.102,-0.136 0.799,-0.99 1.906,-0.503 0.961,0.423 1.146,1.395 1.177,1.647 -0.183,0.095 -0.846,0.383 -1.869,0.147 -1.319,-0.304 -1.237,-1.15 -1.214,-1.291 m 1.25,-0.851 c -0.891,0 -1.419,0.744 -1.426,0.753 l -0.015,0.035 c -0.003,0.011 -0.251,1.178 1.36,1.549 1.301,0.301 2.045,-0.183 2.075,-0.205 l 0.049,-0.031 -0.004,-0.058 c -0.003,-0.054 -0.089,-1.344 -1.303,-1.879 -0.266,-0.117 -0.512,-0.164 -0.736,-0.164"/><path id="path31" style="fill:#ffffff;fill-opacity:1;fill-rule:nonzero;stroke:none" d="m 26.5244,12.834 c 0.22,-0.042 1.081,-0.15 1.634,0.48 0.543,0.623 0.452,1.727 0.409,2.067 -0.289,-0.069 -1.132,-0.318 -1.691,-0.955 -0.575,-0.654 -0.411,-1.395 -0.352,-1.592 m 0.396,-0.237 c -0.279,0 -0.479,0.05 -0.498,0.054 l -0.05,0.013 -0.019,0.048 c -0.015,0.04 -0.372,0.998 0.372,1.847 0.728,0.828 1.861,1.032 1.907,1.041 l 0.099,0.016 0.018,-0.097 c 0.01,-0.062 0.267,-1.525 -0.441,-2.335 -0.423,-0.485 -0.987,-0.587 -1.388,-0.587"/><path id="path32" style="fill:#ffffff;fill-opacity:1;fill-rule:nonzero;stroke:none" d="m 27.0371,18.1167 c -0.177,-0.236 -0.676,-0.988 -0.62,-1.877 0.021,-0.341 0.126,-0.587 0.309,-0.731 0.223,-0.173 0.498,-0.145 0.55,-0.139 0.077,0.036 0.566,0.289 0.578,1.056 0.014,0.878 -0.599,1.499 -0.817,1.691 m 0.143,-2.953 c -0.145,0 -0.374,0.031 -0.577,0.188 -0.23,0.18 -0.36,0.474 -0.385,0.876 -0.074,1.156 0.696,2.059 0.729,2.097 l 0.061,0.07 0.074,-0.055 c 0.041,-0.031 0.99,-0.752 0.972,-1.918 -0.016,-0.952 -0.684,-1.229 -0.712,-1.241 l -0.019,-0.006 c -0.006,-10e-4 -0.061,-0.011 -0.143,-0.011"/><path id="path33" style="fill:#ffffff;fill-opacity:1;fill-rule:nonzero;stroke:none" d="m 9.2476,11.7764 c 0.033,-0.252 0.218,-1.226 1.176,-1.646 1.097,-0.484 1.807,0.373 1.907,0.502 0.023,0.143 0.104,0.989 -1.214,1.291 -1.021,0.235 -1.686,-0.051 -1.869,-0.147 m 1.833,-1.994 c -0.224,0 -0.47,0.047 -0.737,0.164 -1.214,0.534 -1.299,1.824 -1.302,1.879 l -0.003,0.057 0.048,0.032 c 0.032,0.021 0.782,0.503 2.075,0.205 1.61,-0.371 1.362,-1.538 1.36,-1.55 l -0.016,-0.034 c -0.006,-0.01 -0.535,-0.753 -1.425,-0.753"/><path id="path34" style="fill:#ffffff;fill-opacity:1;fill-rule:nonzero;stroke:none" d="m 7.4331,15.3809 c -0.044,-0.34 -0.135,-1.444 0.408,-2.066 0.554,-0.633 1.417,-0.52 1.634,-0.481 0.061,0.198 0.229,0.932 -0.352,1.592 -0.559,0.637 -1.402,0.886 -1.69,0.955 m 1.646,-2.784 c -0.401,0 -0.965,0.102 -1.388,0.587 -0.709,0.81 -0.451,2.273 -0.44,2.335 l 0.018,0.097 0.098,-0.016 c 0.047,-0.009 1.179,-0.213 1.907,-1.041 0.744,-0.849 0.387,-1.807 0.371,-1.847 l -0.019,-0.048 -0.049,-0.012 c -0.02,-0.005 -0.22,-0.055 -0.498,-0.055"/><path id="path35" style="fill:#ffffff;fill-opacity:1;fill-rule:nonzero;stroke:none" d="m 8.7227,15.3701 c 0.056,-0.007 0.332,-0.033 0.552,0.14 0.183,0.143 0.286,0.389 0.308,0.729 0.057,0.892 -0.443,1.642 -0.62,1.878 -0.217,-0.192 -0.831,-0.813 -0.817,-1.691 0.012,-0.764 0.504,-1.022 0.577,-1.056 m 0.098,-0.206 c -0.083,0 -0.138,0.01 -0.144,0.011 l -0.019,0.006 c -0.028,0.011 -0.697,0.289 -0.712,1.241 -0.018,1.166 0.932,1.887 0.972,1.917 l 0.075,0.056 0.061,-0.07 c 0.032,-0.038 0.802,-0.941 0.728,-2.099 -0.025,-0.4 -0.155,-0.695 -0.386,-0.875 -0.201,-0.157 -0.431,-0.187 -0.575,-0.187"/></g><g id="g38"><path id="path40" style="fill:#ffffff;fill-opacity:1;fill-rule:nonzero;stroke:none" d="m 10.5464,18.1646 c 1.729,0.111 2.808,0.749 4.305,0.749 1.728,0 1.778,-0.612 3.149,-0.612 1.371,0 1.421,0.612 3.148,0.612 1.497,0 2.576,-0.637 4.305,-0.749 l 0.064,0.553 c -1.765,0.099 -2.853,0.752 -4.369,0.752 -1.727,0 -1.777,-0.612 -3.148,-0.612 -1.371,0 -1.421,0.612 -3.149,0.612 -1.515,0 -2.603,-0.653 -4.37,-0.752 l 0.065,-0.553 z"/><path id="path41" style="fill:#ffffff;fill-opacity:1;fill-rule:nonzero;stroke:none" d="m 10.8013,17.0723 c 1.583,0.153 2.628,0.728 4.05,0.728 1.728,0 1.778,-0.612 3.149,-0.612 1.371,0 1.421,0.612 3.148,0.612 1.422,0 2.467,-0.575 4.05,-0.728 l 0.147,0.544 c -1.666,0.13 -2.731,0.74 -4.197,0.74 -1.727,0 -1.777,-0.612 -3.148,-0.612 -1.371,0 -1.421,0.612 -3.149,0.612 -1.466,0 -2.531,-0.611 -4.198,-0.741 l 0.148,-0.543 z"/><path id="path42" style="fill:#ffffff;fill-opacity:1;fill-rule:nonzero;stroke:none" d="m 11.2241,16.0117 c 1.355,0.201 2.336,0.676 3.627,0.676 1.728,0 1.778,-0.613 3.149,-0.613 1.371,0 1.421,0.613 3.148,0.613 1.291,0 2.272,-0.474 3.625,-0.676 l 0.235,0.525 c -1.478,0.178 -2.495,0.706 -3.86,0.706 -1.727,0 -1.777,-0.611 -3.148,-0.611 -1.371,0 -1.421,0.611 -3.149,0.611 -1.364,0 -2.382,-0.528 -3.86,-0.707 l 0.233,-0.524 z"/><path id="path43" style="fill:#ffffff;fill-opacity:1;fill-rule:nonzero;stroke:none" d="m 11.8208,15.0068 c 1.065,0.227 1.936,0.567 3.03,0.567 1.728,0 1.778,-0.611 3.149,-0.611 1.371,0 1.421,0.611 3.149,0.611 1.094,0 1.965,-0.339 3.03,-0.566 l 0.318,0.493 c -1.215,0.22 -2.147,0.63 -3.348,0.63 -1.728,0 -1.778,-0.612 -3.149,-0.612 -1.371,0 -1.421,0.612 -3.149,0.612 -1.201,0 -2.134,-0.41 -3.349,-0.63 l 0.319,-0.494 z"/><path id="path44" style="fill:#ffffff;fill-opacity:1;fill-rule:nonzero;stroke:none" d="m 10.457,19.2725 c 1.781,0.095 2.872,0.753 4.394,0.753 1.728,0 1.778,-0.611 3.149,-0.611 1.371,0 1.421,0.611 3.148,0.611 1.523,0 2.614,-0.658 4.395,-0.753 l -0.017,0.557 c -1.771,0.098 -2.86,0.753 -4.378,0.753 -1.727,0 -1.777,-0.612 -3.148,-0.612 -1.371,0 -1.421,0.612 -3.149,0.612 -1.518,0 -2.606,-0.655 -4.378,-0.753 l -0.016,-0.557 z"/><path id="path45" style="fill:#ffffff;fill-opacity:1;fill-rule:nonzero;stroke:none" d="m 18,26.4204 c -3.91,0 -7.09,-3.181 -7.09,-7.09 0,-3.91 3.18,-7.091 7.09,-7.091 3.909,0 7.09,3.181 7.09,7.091 0,3.909 -3.181,7.09 -7.09,7.09 m 0,-15.082 c -4.406,0 -7.991,3.585 -7.991,7.992 0,4.405 3.585,7.99 7.991,7.99 4.405,0 7.99,-3.585 7.99,-7.99 0,-4.407 -3.585,-7.992 -7.99,-7.992"/><path id="path46" style="fill:#ffffff;fill-opacity:1;fill-rule:nonzero;stroke:none" d="m 16.9546,24.9585 -0.369,-0.479 -0.569,0.203 0.34,-0.499 -0.368,-0.479 0.58,0.171 0.342,-0.5 0.017,0.605 0.579,0.17 -0.569,0.204 0.017,0.604 z"/><path id="path47" style="fill:#ffffff;fill-opacity:1;fill-rule:nonzero;stroke:none" d="m 15.9478,22.6582 c 0.37,-0.626 1.089,-1.003 1.855,-0.901 1.023,0.136 1.742,1.075 1.606,2.098 -0.11,0.826 -0.745,1.454 -1.524,1.593 0.446,-0.255 0.771,-0.707 0.845,-1.255 0.124,-0.933 -0.532,-1.791 -1.466,-1.915 -0.492,-0.066 -0.962,0.086 -1.316,0.38"/></g></g></g></g></svg>