<svg xmlns:dc="http://purl.org/dc/elements/1.1/" xmlns:cc="http://creativecommons.org/ns#" xmlns:rdf="http://www.w3.org/1999/02/22-rdf-syntax-ns#" xmlns:svg="http://www.w3.org/2000/svg" xmlns="http://www.w3.org/2000/svg" viewBox="0 0 45 45" style="enable-background:new 0 0 45 45;" xml:space="preserve" version="1.1" id="svg2"><metadata id="metadata8"><rdf:RDF><cc:Work rdf:about=""><dc:format>image/svg+xml</dc:format><dc:type rdf:resource="http://purl.org/dc/dcmitype/StillImage"/></cc:Work></rdf:RDF></metadata><defs id="defs6"><clipPath id="clipPath16" clipPathUnits="userSpaceOnUse"><path id="path18" d="M 0,36 36,36 36,0 0,0 0,36 Z"/></clipPath></defs><g transform="matrix(1.25,0,0,-1.25,0,45)" id="g10"><g id="g12"><g clip-path="url(#clipPath16)" id="g14"><g id="g20"><path id="path22" style="fill:#eeeeee;fill-opacity:1;fill-rule:nonzero;stroke:none" d="M 36,9 C 36,6.791 34.209,5 32,5 H 4 C 1.791,5 0,6.791 0,9 v 18 c 0,2.209 1.791,4 4,4 h 28 c 2.209,0 4,-1.791 4,-4 z"/></g><g id="g24"><path id="path26" style="fill:#8bb61e;fill-opacity:1;fill-rule:nonzero;stroke:none" d="m 18.1655,15.2236 -5.483,5.47 0.27,0.042 c 0.16,0.025 0.333,0.062 0.493,0.098 0.14,0.036 0.282,0.083 0.424,0.13 l 0.081,0.027 0.077,-0.054 4.138,-4.112 3.911,3.91 c 0.233,0.233 0.553,0.552 0.853,0.878 0.197,0.209 0.411,0.454 0.586,0.673 l 0.053,0.052 c 0.065,0.088 0.107,0.151 0.134,0.201 0.196,0.37 0.299,0.809 0.299,1.274 0,1.246 -1.071,2.635 -2.609,2.635 -0.907,0 -1.52,-0.366 -1.875,-0.672 l -0.089,-0.076 -0.091,0.074 c -0.102,0.085 -0.194,0.171 -0.284,0.256 l -0.137,0.126 c -0.077,0.077 -0.149,0.137 -0.221,0.198 l -0.121,0.101 0.115,0.107 c 0.506,0.465 1.387,1.019 2.703,1.019 2.198,0 3.731,-1.985 3.731,-3.768 0,-0.674 -0.15,-1.303 -0.434,-1.818 -0.025,-0.055 -0.061,-0.118 -0.123,-0.182 -0.104,-0.171 -0.314,-0.438 -0.576,-0.727 -0.414,-0.469 -0.905,-0.956 -1.066,-1.116 l -0.047,-0.047 z"/></g><g id="g28"><path id="path30" style="fill:#11408e;fill-opacity:1;fill-rule:nonzero;stroke:none" d="m 22.2412,21.73 -0.089,0.042 c -0.275,0.13 -0.519,0.255 -0.751,0.382 -0.524,0.289 -1.047,0.623 -1.553,0.993 -0.809,0.578 -1.409,1.125 -1.938,1.609 l -0.152,0.14 c -0.499,0.47 -0.854,0.798 -1.246,1.072 -0.948,0.672 -2.233,0.664 -3.061,-0.018 -1.178,-0.952 -1.214,-2.068 -1.037,-2.838 l 0.033,-0.141 -0.144,-0.025 c -0.253,-0.044 -0.545,-0.066 -0.893,-0.066 h -0.115 l -0.021,0.113 c -0.13,0.694 -0.247,2.456 1.461,3.839 1.218,0.981 3.078,1.01 4.426,0.069 0.489,-0.344 0.914,-0.747 1.364,-1.172 l 0.057,-0.051 c 0.533,-0.486 1.137,-1.035 1.933,-1.615 0.493,-0.362 0.975,-0.668 1.433,-0.909 0.321,-0.193 0.634,-0.342 0.926,-0.476 l 0.168,-0.076 -0.12,-0.14 c -0.21,-0.244 -0.416,-0.467 -0.613,-0.663 z"/></g><g id="g32"><path id="path34" style="fill:#11408e;fill-opacity:1;fill-rule:nonzero;stroke:none" d="m 18.0728,8.4072 -0.566,0.017 c -0.017,0 -1.792,0.035 -3.505,0.78 -1.63,0.714 -2.761,1.824 -3.068,2.146 l -0.349,0.384 0.316,0.382 c 0.016,0.02 1.292,1.554 1.292,3.529 0,2.723 -2.611,3.862 -3.135,4.062 l -0.378,0.121 -0.017,0.386 c 0,0.006 -0.01,0.234 -0.074,0.758 -0.05,0.535 -0.112,0.911 -0.113,0.915 l -0.116,0.833 0.8,-0.184 c 0.03,-0.008 2.108,-0.489 3.854,-0.039 1.091,0.267 2.201,0.844 3.302,1.714 l 0.087,0.073 c 0.203,0.171 0.378,0.318 0.506,0.445 l 0.097,0.097 0.098,-0.096 c 0.042,-0.042 0.084,-0.081 0.126,-0.12 0.046,-0.043 0.093,-0.086 0.139,-0.133 0.102,-0.102 0.216,-0.205 0.33,-0.308 l 0.142,-0.129 -0.11,-0.102 c -0.226,-0.21 -0.466,-0.419 -0.712,-0.622 -1.224,-0.955 -2.475,-1.599 -3.721,-1.918 -1.392,-0.357 -2.874,-0.216 -3.597,-0.107 0.007,-0.064 0.013,-0.131 0.019,-0.201 0.018,-0.157 0.03,-0.291 0.039,-0.406 l 0.005,-0.055 c 0.93,-0.419 3.561,-1.883 3.561,-4.984 0,-1.701 -0.748,-3.1 -1.241,-3.836 0.529,-0.485 1.347,-1.125 2.369,-1.571 1.037,-0.438 2.115,-0.595 2.623,-0.646 0.173,0.458 0.677,1.325 2.046,1.6 1.079,0.219 2.524,-0.167 3.562,-0.54 0.352,0.17 0.667,0.354 0.935,0.543 0.268,0.196 0.505,0.431 0.692,0.627 -0.425,0.798 -1.229,2.679 -0.695,4.728 0.372,1.364 1.636,3.296 2.095,3.97 -0.204,0.047 -0.432,0.106 -0.684,0.172 l -0.521,0.13 0.147,0.169 c 0.201,0.233 0.422,0.5 0.538,0.718 l 0.039,0.074 0.134,-0.005 c 0.083,-0.024 0.166,-0.048 0.237,-0.06 0.104,-0.033 0.188,-0.054 0.267,-0.073 l 0.071,-0.018 c 0.47,-0.094 0.766,-0.132 0.795,-0.135 l 0.987,-0.099 -0.582,-0.8 c 0.001,0.003 0.003,0.004 0.003,0.004 0,0 -0.015,-0.021 -0.037,-0.052 -0.601,-0.849 -2.037,-2.966 -2.389,-4.292 -0.564,-2.132 0.745,-4.151 0.758,-4.169 l 0.235,-0.353 -0.278,-0.35 c -0.455,-0.553 -0.875,-0.906 -1.147,-1.103 -0.652,-0.474 -1.32,-0.759 -1.376,-0.776 l -0.205,-0.079 -0.241,0.094 c -0.28,0.124 -2.059,0.772 -3.121,0.56 -1.204,-0.239 -1.25,-1.068 -1.251,-1.103 z"/></g></g></g></g></svg>