<svg xmlns:dc="http://purl.org/dc/elements/1.1/" xmlns:cc="http://creativecommons.org/ns#" xmlns:rdf="http://www.w3.org/1999/02/22-rdf-syntax-ns#" xmlns:svg="http://www.w3.org/2000/svg" xmlns="http://www.w3.org/2000/svg" viewBox="0 0 45 45" style="enable-background:new 0 0 45 45;" xml:space="preserve" version="1.1" id="svg2"><metadata id="metadata8"><rdf:RDF><cc:Work rdf:about=""><dc:format>image/svg+xml</dc:format><dc:type rdf:resource="http://purl.org/dc/dcmitype/StillImage"/></cc:Work></rdf:RDF></metadata><defs id="defs6"><clipPath id="clipPath16" clipPathUnits="userSpaceOnUse"><path id="path18" d="M 4,31 C 1.791,31 0,29.209 0,27 L 0,27 0,9 C 0,6.791 1.791,5 4,5 l 0,0 28,0 c 2.209,0 4,1.791 4,4 l 0,0 0,18 c 0,2.209 -1.791,4 -4,4 l 0,0 -28,0 z"/></clipPath></defs><g transform="matrix(1.25,0,0,-1.25,0,45)" id="g10"><g id="g12"><g clip-path="url(#clipPath16)" id="g14"><g id="g20"><path id="path22" style="fill:#1e9943;fill-opacity:1;fill-rule:nonzero;stroke:none" d="M 32,31 H 4 C 1.791,31 0,29.209 0,27 V 9 C 0,6.791 1.791,5 4,5 h 28 c 2.209,0 4,1.791 4,4 v 18 c 0,2.209 -1.791,4 -4,4"/></g><g id="g24"><path id="path26" style="fill:#e4e4e4;fill-opacity:1;fill-rule:nonzero;stroke:none" d="m 25.4688,5 -0.498,9.828 c 0,0 0.477,0.32 0.753,0.797 0.161,0.277 0.253,0.533 0.253,0.996 0,0.432 -0.085,0.848 -0.216,1.206 -0.164,0.451 -0.324,0.772 -0.324,0.772 h -2.713 c 0,0 -0.16,-0.321 -0.325,-0.772 -0.13,-0.358 -0.215,-0.774 -0.215,-1.206 0,-0.463 0.091,-0.719 0.253,-0.996 0.276,-0.477 0.753,-0.797 0.753,-0.797 L 22.6918,5 Z"/></g><g id="g28"><path id="path30" style="fill:#e4e4e4;fill-opacity:1;fill-rule:nonzero;stroke:none" d="m 24.4092,20.1841 c 0,0.182 -0.147,0.33 -0.329,0.33 -0.182,0 -0.329,-0.148 -0.329,-0.33 0,-0.182 0.147,-0.329 0.329,-0.329 0.182,0 0.329,0.147 0.329,0.329 m -1.605,-1.4 c 0,0 0.26,0.55 0.438,1.342 0.114,0.508 0.176,1.023 0.176,1.863 0,0.415 -0.217,0.716 -0.455,0.902 -0.41,0.321 -0.943,0.343 -0.943,0.343 l -0.579,5.528 h 5.278 l -0.58,-5.528 c 0,0 -0.532,-0.022 -0.943,-0.343 -0.237,-0.186 -0.454,-0.487 -0.454,-0.902 0,-0.84 0.061,-1.355 0.175,-1.863 0.179,-0.792 0.439,-1.342 0.439,-1.342 z"/></g><g id="g32"><path id="path34" style="fill:#e4e4e4;fill-opacity:1;fill-rule:nonzero;stroke:none" d="m 19.3887,5 -0.498,9.828 c 0,0 0.477,0.32 0.753,0.797 0.161,0.277 0.253,0.533 0.253,0.996 0,0.432 -0.085,0.848 -0.215,1.206 -0.165,0.451 -0.325,0.772 -0.325,0.772 h -2.713 c 0,0 -0.16,-0.321 -0.325,-0.772 -0.13,-0.358 -0.215,-0.774 -0.215,-1.206 0,-0.463 0.091,-0.719 0.252,-0.996 0.277,-0.477 0.754,-0.797 0.754,-0.797 L 16.6107,5 Z"/></g><g id="g36"><path id="path38" style="fill:#e4e4e4;fill-opacity:1;fill-rule:nonzero;stroke:none" d="m 18.3296,20.1841 c 0,0.182 -0.147,0.33 -0.33,0.33 -0.182,0 -0.329,-0.148 -0.329,-0.33 0,-0.182 0.147,-0.329 0.329,-0.329 0.183,0 0.33,0.147 0.33,0.329 m -1.606,-1.4 c 0,0 0.261,0.55 0.439,1.342 0.114,0.508 0.175,1.023 0.175,1.863 0,0.415 -0.217,0.716 -0.454,0.902 -0.411,0.321 -0.943,0.343 -0.943,0.343 l -0.58,5.528 h 5.278 l -0.579,-5.528 c 0,0 -0.532,-0.022 -0.943,-0.343 -0.238,-0.186 -0.454,-0.487 -0.454,-0.902 0,-0.84 0.061,-1.355 0.174,-1.863 0.179,-0.792 0.44,-1.342 0.44,-1.342 z"/></g><g id="g40"><path id="path42" style="fill:#e4e4e4;fill-opacity:1;fill-rule:nonzero;stroke:none" d="m 13.3091,5 -0.499,9.828 c 0,0 0.477,0.32 0.754,0.797 0.161,0.277 0.252,0.533 0.252,0.996 0,0.432 -0.084,0.848 -0.215,1.206 -0.165,0.451 -0.325,0.772 -0.325,0.772 h -2.712 c 0,0 -0.161,-0.321 -0.325,-0.772 -0.131,-0.358 -0.215,-0.774 -0.215,-1.206 0,-0.463 0.091,-0.719 0.252,-0.996 0.277,-0.477 0.753,-0.797 0.753,-0.797 L 10.5311,5 Z"/></g><g id="g44"><path id="path46" style="fill:#e4e4e4;fill-opacity:1;fill-rule:nonzero;stroke:none" d="m 12.2495,20.1841 c 0,0.182 -0.147,0.33 -0.33,0.33 -0.181,0 -0.329,-0.148 -0.329,-0.33 0,-0.182 0.148,-0.329 0.329,-0.329 0.183,0 0.33,0.147 0.33,0.329 m -1.606,-1.4 c 0,0 0.261,0.55 0.439,1.342 0.114,0.508 0.175,1.023 0.175,1.863 0,0.415 -0.216,0.716 -0.454,0.902 -0.411,0.321 -0.943,0.343 -0.943,0.343 l -0.58,5.528 h 5.279 l -0.58,-5.528 c 0,0 -0.532,-0.022 -0.943,-0.343 -0.237,-0.186 -0.454,-0.487 -0.454,-0.902 0,-0.84 0.061,-1.355 0.175,-1.863 0.178,-0.792 0.439,-1.342 0.439,-1.342 z"/></g></g></g></g></svg>