<svg xmlns="http://www.w3.org/2000/svg" viewBox="0 0 45 45"><path fill="#1df1fd" d="m 45,33.75 c 0,2.76125 -2.23875,5 -5,5 H 5 c -2.76125,0 -5,-2.23875 -5,-5 v -22.5 c 0,-2.76125 2.23875,-5 5,-5 h 35 c 2.76125,0 5,2.23875 5,5 z"/><path fill="#fdf401" d="m 29.559875,13.120125 -1.09,2.66 v 11.63 c 0,3.29 -2.67,5.97 -5.97,5.97 -3.3,0 -5.97,-2.68 -5.97,-5.97 v -11.63 l -1.09,-2.66 c 0,0 0.89,-0.63 3.49,-0.97 l 0.21,1.17 c 0.45,-0.06 0.96,-0.1 1.51,-0.13 l -0.11,-1.19 c 0.59,-0.04 1.24,-0.06 1.96,-0.06 0.72,0 1.37,0.02 1.96,0.06 l -0.11,1.19 c 0.55,0.03 1.06,0.07 1.51,0.13 l 0.21,-1.17 c 2.6,0.34 3.49,0.97 3.49,0.97 z"/><path transform="scale(1,-1)" fill="#f70201" d="m 15.699875,-25.107626 h 13.6 v 7.475 h -13.6 z"/><path transform="scale(1,-1)" fill="#0000c6" d="m 15.699875,-18.056376 h 13.6 v 2.0625 h -13.6 z"/><path fill="#0000c6" d="m 27.939875,24.890125 v 2.52 c 0,3 -2.44,5.43 -5.44,5.43 -3,0 -5.44,-2.43 -5.44,-5.43 v -2.52 z"/><path fill="#fdf401" d="m 25.709875,28.610125 c -0.19,0.37 -0.03,0.73 0.36,1.09 0.2,-0.45 0.12,-0.82 -0.36,-1.09 z m -0.38,0.6 c -0.26,0.32 -0.17,0.71 0.14,1.14 0.28,-0.4 0.28,-0.78 -0.14,-1.14 z m -0.51,0.55 c -0.32,0.26 -0.31,0.66 -0.09,1.14 0.36,-0.33 0.43,-0.71 0.09,-1.14 z m 1.44,-0.06 c 0.44,0.19 0.82,0.1 1.08,-0.37 -0.37,-0.19 -0.73,-0.03 -1.08,0.37 z m -0.62,0.74 c 0.4,0.27 0.78,0.25 1.13,-0.18 -0.33,-0.25 -0.72,-0.15 -1.13,0.18 z m -0.74,0.52 c 0.33,0.36 0.7,0.43 1.14,0.1 -0.26,-0.32 -0.66,-0.32 -1.14,-0.1 z m -0.83,0.36 c 0.23,0.43 0.57,0.6 1.07,0.39 -0.16,-0.38 -0.55,-0.48 -1.07,-0.39 z m -0.84,0.36 c 0.18,0.45 0.51,0.65 1.03,0.49 -0.13,-0.39 -0.5,-0.53 -1.03,-0.49 z m 0.28,-1.22 c -0.38,0.17 -0.48,0.56 -0.38,1.08 0.43,-0.23 0.59,-0.57 0.38,-1.08 z m 0.72,-0.31 c -0.37,0.18 -0.46,0.57 -0.35,1.09 0.42,-0.24 0.57,-0.59 0.35,-1.09 z m 2.8,-9.64 h -1.5 l 0.57,-1.48 h -1.02 l -0.8,2.1 h 1.65 l -0.55,2.02 h -0.49 l 0.65,0.78 1.15,-0.78 h -0.57 z m -3.06,0 h -1.5 l 0.57,-1.48 h -1.02 l -0.8,2.1 h 1.65 l -0.55,2.02 h -0.49 l 0.65,0.78 1.15,-0.78 h -0.57 z m -3.07,0 h -1.5 l 0.57,-1.48 h -1.02 l -0.8,2.1 h 1.65 l -0.55,2.02 h -0.49 l 0.65,0.78 1.15,-0.78 h -0.57 z m 2.64,4.91 -0.76,0.76 1.95,1.94 0.29,-1.22 z m -0.47,2.69 0.62,-0.63 -0.57,-0.56 -0.62,0.62 -0.62,-0.62 -0.57,0.56 0.63,0.63 -1.01,1 0.56,0.57 1.01,-1.01 1.01,1.01 0.56,-0.57 z m -1.61,-2.69 -1.48,1.48 0.29,1.22 1.95,-1.94 z m -2.13,1.67 c 0,-0.32 0.05,-0.64 0.14,-0.93 h -0.38 c -0.08,0.29 -0.12,0.61 -0.12,0.93 0,2.04 1.62,3.7 3.64,3.77 v -0.36 c -1.82,-0.07 -3.28,-1.57 -3.28,-3.41 z m 2.85,4.1 c -0.21,-0.04 -0.42,-0.08 -0.62,-0.15 -0.29,-0.08 -0.56,-0.2 -0.82,-0.34 -0.19,-0.1 -0.36,-0.22 -0.53,-0.35 -0.24,-0.18 -0.46,-0.39 -0.65,-0.62 -0.13,-0.16 -0.25,-0.34 -0.36,-0.52 -0.15,-0.25 -0.28,-0.53 -0.38,-0.81 -0.06,-0.2 -0.12,-0.41 -0.15,-0.62 -0.04,-0.22 -0.06,-0.45 -0.06,-0.69 0,-0.07 0,-0.14 0.01,-0.2 0.01,-0.25 0.04,-0.49 0.1,-0.73 h -0.69 c -0.04,0.22 -0.07,0.45 -0.08,0.69 l -0.49,-0.02 c -0.01,0.08 -0.01,0.17 -0.01,0.26 0,0.3 0.02,0.59 0.08,0.88 l 0.48,-0.08 c 0.04,0.25 0.1,0.49 0.18,0.72 l -0.47,0.15 c 0.12,0.36 0.28,0.71 0.49,1.04 l 0.41,-0.25 c 0.13,0.22 0.27,0.42 0.43,0.61 l -0.37,0.3 c 0.23,0.3 0.51,0.57 0.82,0.8 l 0.3,-0.38 c 0.19,0.15 0.4,0.29 0.61,0.41 l -0.24,0.42 c 0.33,0.19 0.69,0.34 1.06,0.44 l 0.14,-0.47 c 0.23,0.08 0.47,0.14 0.72,0.16 l -0.07,0.49 c 0.19,0.03 0.39,0.04 0.59,0.05 v -1.16 c -0.15,-0.01 -0.29,-0.02 -0.43,-0.03 z m 3.81,-3.29 h -0.15 v -1.74 h 0.15 z m 0.57,1.07 c -0.46,-0.26 -0.7,-0.58 -0.58,-0.98 0.52,0.16 0.68,0.51 0.58,0.98 z m -0.13,-1.86 h -0.15 v -0.95 h 0.15 z m 0.37,1.12 c -0.3,-0.31 -0.34,-0.63 -0.09,-0.94 v -1.13 h 0.15 v 1.09 c 0.27,0.33 0.25,0.65 -0.06,0.98 z m 0.5,-1.12 h -0.15 v -0.95 h 0.15 z m 0.36,1.09 c -0.09,0.54 -0.4,0.74 -0.89,0.71 0.19,-0.49 0.48,-0.77 0.89,-0.71 z m 0.07,-2.04 v 1.74 h -0.15 v -1.74 z"/></svg>