<svg xmlns:dc="http://purl.org/dc/elements/1.1/" xmlns:cc="http://creativecommons.org/ns#" xmlns:rdf="http://www.w3.org/1999/02/22-rdf-syntax-ns#" xmlns:svg="http://www.w3.org/2000/svg" xmlns="http://www.w3.org/2000/svg" viewBox="0 0 45 45" style="enable-background:new 0 0 45 45;" xml:space="preserve" version="1.1" id="svg2"><metadata id="metadata8"><rdf:RDF><cc:Work rdf:about=""><dc:format>image/svg+xml</dc:format><dc:type rdf:resource="http://purl.org/dc/dcmitype/StillImage"/></cc:Work></rdf:RDF></metadata><defs id="defs6"><clipPath id="clipPath16" clipPathUnits="userSpaceOnUse"><path id="path18" d="M 4,31 C 1.791,31 0,29.209 0,27 L 0,27 0,9 C 0,6.791 1.791,5 4,5 l 0,0 28,0 c 2.209,0 4,1.791 4,4 l 0,0 0,18 c 0,2.209 -1.791,4 -4,4 l 0,0 -28,0 z"/></clipPath></defs><g transform="matrix(1.25,0,0,-1.25,0,45)" id="g10"><g id="g12"><g xmlns="http://www.w3.org/2000/svg" clip-path="url(#clipPath16)" id="g14"><g id="g30"><path id="path20" style="fill:#75aadb;fill-opacity:1;fill-rule:nonzero;stroke:none" d="m 0,31.001 36,0 0,-26 -36,0 0,26 z"/><path id="path21" style="fill:#ffffff;fill-opacity:1;fill-rule:nonzero;stroke:none" d="m 12.9727,31.001 20.055,0 -10.028,-26 -10.027,26 z"/></g><g id="g34"><path id="path30" style="fill:#fcbf49;fill-opacity:1;fill-rule:nonzero;stroke:none" d="m 22.9785,27.5786 0.261,-0.673 0.676,-0.253 -0.673,-0.261 -0.253,-0.676 -0.26,0.674 -0.677,0.252 0.674,0.261 0.252,0.676 z"/><path id="path31" style="fill:#fcbf49;fill-opacity:1;fill-rule:nonzero;stroke:none" d="m 24.8125,26.9131 0.261,-0.673 0.676,-0.253 -0.673,-0.26 -0.252,-0.676 -0.261,0.673 -0.677,0.252 0.674,0.261 0.252,0.676 z"/><path id="path32" style="fill:#fcbf49;fill-opacity:1;fill-rule:nonzero;stroke:none" d="m 25.7979,25.231 0.26,-0.673 0.677,-0.253 -0.673,-0.26 -0.253,-0.677 -0.261,0.674 -0.676,0.252 0.673,0.261 0.253,0.676 z"/><path id="path33" style="fill:#fcbf49;fill-opacity:1;fill-rule:nonzero;stroke:none" d="m 25.4717,23.3091 0.261,-0.673 0.676,-0.253 -0.673,-0.261 -0.252,-0.676 -0.261,0.674 -0.677,0.252 0.674,0.26 0.252,0.677 z"/><path id="path34" style="fill:#fcbf49;fill-opacity:1;fill-rule:nonzero;stroke:none" d="m 23.9922,22.0386 0.26,-0.673 0.677,-0.253 -0.674,-0.26 -0.252,-0.676 -0.261,0.673 -0.676,0.252 0.673,0.261 0.253,0.676 z"/><path id="path35" style="fill:#fcbf49;fill-opacity:1;fill-rule:nonzero;stroke:none" d="m 22.04,22.0293 0.261,-0.673 0.676,-0.253 -0.673,-0.261 -0.253,-0.676 -0.26,0.674 -0.677,0.252 0.673,0.26 0.253,0.677 z"/><path id="path36" style="fill:#fcbf49;fill-opacity:1;fill-rule:nonzero;stroke:none" d="m 20.542,23.2774 0.261,-0.673 0.676,-0.253 -0.673,-0.261 -0.253,-0.676 -0.26,0.674 -0.677,0.252 0.674,0.26 0.252,0.677 z"/><path id="path37" style="fill:#fcbf49;fill-opacity:1;fill-rule:nonzero;stroke:none" d="m 20.1914,25.1948 0.26,-0.673 0.677,-0.253 -0.674,-0.261 -0.252,-0.676 -0.261,0.674 -0.676,0.252 0.673,0.261 0.253,0.676 z"/><path id="path38" style="fill:#fcbf49;fill-opacity:1;fill-rule:nonzero;stroke:none" d="m 21.1523,26.8906 0.26,-0.673 0.677,-0.253 -0.674,-0.26 -0.252,-0.677 -0.261,0.674 -0.676,0.252 0.673,0.261 0.253,0.676 z"/><path id="path39" style="fill:#077937;fill-opacity:1;fill-rule:nonzero;stroke:none" d="m 2.1996,24.7177 0.589,-0.651 3.311,0 -0.589,0.651 -3.311,0 z"/><path id="path40" style="fill:#077937;fill-opacity:1;fill-rule:nonzero;stroke:none" d="m 2.7882,23.6782 -0.589,-0.651 3.312,0 0.588,0.651 -3.311,0 z"/><path id="path41" style="fill:#077937;fill-opacity:1;fill-rule:nonzero;stroke:none" d="m 6.5331,24.7177 0.589,-0.651 3.311,0 -0.589,0.651 -3.311,0 z"/><path id="path42" style="fill:#077937;fill-opacity:1;fill-rule:nonzero;stroke:none" d="m 7.1217,23.6782 -0.589,-0.651 3.312,0 0.588,0.651 -3.311,0 z"/><path id="path43" style="fill:#077937;fill-opacity:1;fill-rule:nonzero;stroke:none" d="m 10.8666,24.7177 0.589,-0.651 3.311,0 -0.589,0.651 -3.311,0 z"/><path id="path44" style="fill:#077937;fill-opacity:1;fill-rule:nonzero;stroke:none" d="m 11.4552,23.6782 -0.589,-0.651 3.312,0 0.588,0.651 -3.311,0 z"/><path id="path45" style="fill:#077937;fill-opacity:1;fill-rule:nonzero;stroke:none" d="m 15.2001,24.7177 0.589,-0.651 3.311,0 -0.59,0.651 -3.31,0 z"/><path id="path46" style="fill:#077937;fill-opacity:1;fill-rule:nonzero;stroke:none" d="m 15.7887,23.6782 -0.589,-0.651 3.311,0 0.589,0.651 -3.311,0 z"/><path id="path47" style="fill:#077937;fill-opacity:1;fill-rule:nonzero;stroke:none" d="m 27.4887,24.7177 -0.589,-0.651 3.312,0 0.588,0.651 -3.311,0 z"/><path id="path48" style="fill:#077937;fill-opacity:1;fill-rule:nonzero;stroke:none" d="m 26.8992,23.6782 0.589,-0.651 3.312,0 -0.589,0.651 -3.312,0 z"/><path id="path49" style="fill:#077937;fill-opacity:1;fill-rule:nonzero;stroke:none" d="m 31.8222,24.7177 -0.589,-0.651 3.312,0 0.589,0.651 -3.312,0 z"/><path id="path50" style="fill:#077937;fill-opacity:1;fill-rule:nonzero;stroke:none" d="m 31.2336,23.6782 0.589,-0.651 3.312,0 -0.59,0.651 -3.311,0 z"/></g></g></g></g></svg>