<svg xmlns:dc="http://purl.org/dc/elements/1.1/" xmlns:cc="http://creativecommons.org/ns#" xmlns:rdf="http://www.w3.org/1999/02/22-rdf-syntax-ns#" xmlns:svg="http://www.w3.org/2000/svg" xmlns="http://www.w3.org/2000/svg" viewBox="0 0 45 45" style="enable-background:new 0 0 45 45;" xml:space="preserve" version="1.1" id="svg2"><metadata id="metadata8"><rdf:RDF><cc:Work rdf:about=""><dc:format>image/svg+xml</dc:format><dc:type rdf:resource="http://purl.org/dc/dcmitype/StillImage"/></cc:Work></rdf:RDF></metadata><defs id="defs6"><clipPath id="clipPath16" clipPathUnits="userSpaceOnUse"><path id="path18" d="M 0,36 36,36 36,0 0,0 0,36 Z"/></clipPath></defs><g transform="matrix(1.25,0,0,-1.25,0,45)" id="g10"><g id="g12"><g xmlns="http://www.w3.org/2000/svg" clip-path="url(#clipPath16)" id="g14"><g id="g30"><path id="path20" style="fill:#0037ae;fill-opacity:1;fill-rule:nonzero;stroke:none" d="M 32,31 4,31 C 1.791,31 0,29.209 0,27 L 0,9 C 0,6.791 1.791,5 4,5 l 28,0 c 2.209,0 4,1.791 4,4 l 0,18 c 0,2.209 -1.791,4 -4,4"/></g><g id="g34"><path id="path30" style="fill:#a64900;fill-opacity:1;fill-rule:nonzero;stroke:none" d="m 20.8604,16.582 c 0,0 0.228,-1.514 -0.964,-2.917 -0.72,-0.848 -1.844,-1.5 -1.844,-1.5 0,0 -1.663,0.953 -2.352,1.994 -0.816,1.232 -0.542,2.29 -0.542,2.29 0,0 1.749,-0.745 3.059,-0.745 1.31,0 2.643,0.878 2.643,0.878"/><path id="path31" style="fill:#ffffff;fill-opacity:1;fill-rule:nonzero;stroke:none" d="m 15.1587,16.4492 c 0,0 0.988,0.839 2.841,0.839 1.853,0 2.861,-0.706 2.861,-0.706 0,0 -1.333,-0.878 -2.643,-0.878 -1.31,0 -3.059,0.745 -3.059,0.745"/><path id="path32" style="fill:#006f1f;fill-opacity:1;fill-rule:nonzero;stroke:none" d="m 18.0098,11.4531 c -2.365,0 -3.287,-1.734 -3.287,-1.734 0,0 -0.422,0.062 -1.063,0 -0.64,-0.063 -1.265,-0.282 -1.265,-0.282 0,0 0.436,0.786 1.844,1.344 2.046,0.813 1.812,0.969 1.812,0.969 0,0 -0.859,0.094 -2,0.328 -1.141,0.234 -2.141,0.891 -2.141,0.891 l 0.204,0.296 -2.063,1.61 0.297,0.266 -1.281,1.249 0.453,0.106 -0.672,1.113 0.547,-0.172 -0.313,1.047 0.375,-0.047 -0.218,1.391 0.437,-0.125 -0.172,2.25 0.469,-0.266 0.094,1.657 0.359,-0.11 0.156,0.688 0.25,-0.25 0.938,1.672 0.203,-0.313 0.422,0.281 0.328,-0.39 1.75,1.344 -1.266,-1.532 0.766,0 -1.25,-0.906 0.422,-0.156 -1.094,-1.266 0.438,-0.078 -0.907,-1.25 0.516,-0.109 -0.625,-1.907 0.406,0.11 -0.234,-2.032 0.484,0.148 0.328,-1.226 0.25,0.094 0.391,-1.203 0.25,0.375 0.609,-1.297 0.313,0.342 0.609,-1.108 0.263,0.282 c 0,0 0.815,-1.797 2.868,-1.797 2.053,0 2.868,1.797 2.868,1.797 l 0.263,-0.282 0.609,1.108 0.313,-0.342 0.609,1.297 0.25,-0.375 0.391,1.203 0.25,-0.094 0.328,1.226 0.484,-0.148 -0.234,2.032 0.406,-0.11 -0.625,1.907 0.516,0.109 -0.907,1.25 0.438,0.078 -1.094,1.266 0.422,0.156 -1.25,0.906 0.766,0 -1.266,1.532 1.75,-1.344 0.328,0.39 0.422,-0.281 0.203,0.313 0.938,-1.672 0.25,0.25 0.156,-0.688 0.359,0.11 0.094,-1.657 0.469,0.266 -0.172,-2.25 0.437,0.125 -0.218,-1.391 0.375,0.047 -0.313,-1.047 0.547,0.172 -0.672,-1.113 0.453,-0.106 -1.281,-1.249 0.297,-0.266 -2.063,-1.61 0.204,-0.296 c 0,0 -1,-0.657 -2.141,-0.891 -1.141,-0.234 -2,-0.328 -2,-0.328 0,0 -0.234,-0.156 1.812,-0.969 1.408,-0.558 1.844,-1.344 1.844,-1.344 0,0 -0.625,0.219 -1.265,0.282 -0.641,0.062 -1.063,0 -1.063,0 0,0 -0.922,1.734 -3.287,1.734"/></g><g id="g38"><path id="path40" style="fill:#ffffff;fill-opacity:1;fill-rule:nonzero;stroke:none" d="m 18.416,26.583 -0.831,0 0,-0.832 0.831,0 0,0.832 z"/><path id="path41" style="fill:#ffffff;fill-opacity:1;fill-rule:nonzero;stroke:none" d="m 16.535,26.03 -0.832,0 0,-0.832 0.832,0 0,0.832 z"/><path id="path42" style="fill:#ffffff;fill-opacity:1;fill-rule:nonzero;stroke:none" d="m 15.251,24.548 -0.832,0 0,-0.831 0.832,0 0,0.831 z"/><path id="path43" style="fill:#ffffff;fill-opacity:1;fill-rule:nonzero;stroke:none" d="m 14.972,22.608 -0.832,0 0,-0.831 0.832,0 0,0.831 z"/><path id="path44" style="fill:#ffffff;fill-opacity:1;fill-rule:nonzero;stroke:none" d="m 15.786,20.825 -0.831,0 0,-0.831 0.831,0 0,0.831 z"/><path id="path45" style="fill:#ffffff;fill-opacity:1;fill-rule:nonzero;stroke:none" d="m 17.436,19.765 -0.832,0 0,-0.832 0.832,0 0,0.832 z"/><path id="path46" style="fill:#ffffff;fill-opacity:1;fill-rule:nonzero;stroke:none" d="m 19.396,19.765 -0.831,0 0,-0.832 0.831,0 0,0.832 z"/><path id="path47" style="fill:#ffffff;fill-opacity:1;fill-rule:nonzero;stroke:none" d="m 21.045,20.825 -0.831,0 0,-0.831 0.831,0 0,0.831 z"/><path id="path48" style="fill:#ffffff;fill-opacity:1;fill-rule:nonzero;stroke:none" d="m 21.859,22.608 -0.831,0 0,-0.831 0.831,0 0,0.831 z"/><path id="path49" style="fill:#ffffff;fill-opacity:1;fill-rule:nonzero;stroke:none" d="m 21.58,24.548 -0.831,0 0,-0.831 0.831,0 0,0.831 z"/><path id="path50" style="fill:#ffffff;fill-opacity:1;fill-rule:nonzero;stroke:none" d="m 20.297,26.03 -0.832,0 0,-0.832 0.832,0 0,0.832 z"/></g></g></g></g></svg>