<svg xmlns:dc="http://purl.org/dc/elements/1.1/" xmlns:cc="http://creativecommons.org/ns#" xmlns:rdf="http://www.w3.org/1999/02/22-rdf-syntax-ns#" xmlns:svg="http://www.w3.org/2000/svg" xmlns="http://www.w3.org/2000/svg" viewBox="0 0 45 45" style="enable-background:new 0 0 45 45;" xml:space="preserve" version="1.1" id="svg2"><metadata id="metadata8"><rdf:RDF><cc:Work rdf:about=""><dc:format>image/svg+xml</dc:format><dc:type rdf:resource="http://purl.org/dc/dcmitype/StillImage"/></cc:Work></rdf:RDF></metadata><defs id="defs6"><clipPath id="clipPath16" clipPathUnits="userSpaceOnUse"><path id="path18" d="M 0,36 36,36 36,0 0,0 0,36 Z"/></clipPath></defs><g transform="matrix(1.25,0,0,-1.25,0,45)" id="g10"><g id="g12"><g xmlns="http://www.w3.org/2000/svg" clip-path="url(#clipPath16)" id="g14"><g id="g30"><path id="path20" style="fill:#eeeeee;fill-opacity:1;fill-rule:nonzero;stroke:none" d="M 0,9 C 0,6.791 1.791,5 4,5 l 28,0 c 2.209,0 4,1.791 4,4 l 0,18 c 0,2.209 -1.791,4 -4,4 L 4,31 C 1.791,31 0,29.209 0,27 L 0,9 z"/></g><g id="g34"><path id="path30" style="fill:#ebc200;fill-opacity:1;fill-rule:nonzero;stroke:none" d="m 18,17.3262 -3.18,-3.181 c 0,0 0.467,-0.972 1.591,-1.519 0.423,-0.205 0.996,-0.373 1.589,-0.373 0.593,0 1.166,0.168 1.589,0.373 1.125,0.547 1.591,1.519 1.591,1.519 L 18,17.3262"/><path id="path31" style="fill:#0072bd;fill-opacity:1;fill-rule:nonzero;stroke:none" d="m 14.3882,20.9385 0,-4.722 c 0,0 -0.012,-0.651 0.094,-1.16 0.106,-0.509 0.338,-0.911 0.338,-0.911 l 3.18,3.181 -3.612,3.612 z"/><path id="path32" style="fill:#0072bd;fill-opacity:1;fill-rule:nonzero;stroke:none" d="m 21.6113,20.9385 0,-4.722 c 0,0 0.013,-0.651 -0.094,-1.16 -0.105,-0.509 -0.338,-0.911 -0.338,-0.911 l -3.179,3.181 3.611,3.612 z"/><path id="path33" style="fill:#ee151f;fill-opacity:1;fill-rule:nonzero;stroke:none" d="m 18,17.3262 -3.612,3.612 7.223,0 L 18,17.3262 z"/><path id="path34" style="fill:#ebc200;fill-opacity:1;fill-rule:nonzero;stroke:none" d="m 18,15.3232 c -0.459,0 -0.808,0.198 -1.025,0.416 -0.433,0.437 -0.44,1.055 -0.44,1.055 l 0,2.039 2.93,0 0,-2.039 c 0,0 -0.006,-0.618 -0.44,-1.055 -0.217,-0.218 -0.566,-0.416 -1.025,-0.416"/><path id="path35" style="fill:#ebc200;fill-opacity:1;fill-rule:nonzero;stroke:none" d="m 21.4941,20.9385 0.151,0.626 c 0,0 0.082,0.006 0.143,0.132 0.06,0.125 -0.072,0.243 -0.072,0.243 0,0 0.352,0.325 0.714,0.831 0.36,0.506 0.662,1.231 0.662,1.231 0,0 -0.742,-0.368 -1.078,-0.996 -0.337,-0.627 -0.413,-0.9 -0.413,-0.9 0,0 -0.013,0.112 0.07,0.361 0.082,0.249 0.174,0.379 0.174,0.379 l -0.135,0.072 c 0,0 -0.424,-0.723 -0.677,-0.653 -0.148,0.042 -0.139,0.322 -0.139,0.322 0,0 0.441,0.168 0.633,0.686 0.193,0.518 -0.054,1.42 -0.054,1.42 0,0 -0.518,-0.047 -1.177,-0.8 -0.658,-0.753 0.165,-1.287 0.165,-1.287 0,0 -0.12,-0.261 -0.436,-0.2 -0.486,0.095 -0.339,0.753 -0.339,0.753 l -0.208,0.024 c 0,0 -0.047,-0.612 -0.702,-0.708 -0.388,-0.057 -0.614,0.379 -0.614,0.379 0,0 0.628,-0.067 0.628,0.792 0,0.858 -0.79,1.537 -0.79,1.537 0,0 -0.79,-0.679 -0.79,-1.537 0,-0.859 0.627,-0.792 0.627,-0.792 0,0 -0.225,-0.436 -0.614,-0.379 -0.654,0.096 -0.702,0.708 -0.702,0.708 l -0.207,-0.024 c 0,0 0.147,-0.658 -0.34,-0.753 -0.315,-0.061 -0.435,0.2 -0.435,0.2 0,0 0.824,0.534 0.165,1.287 -0.659,0.753 -1.177,0.8 -1.177,0.8 0,0 -0.247,-0.902 -0.054,-1.42 0.191,-0.518 0.633,-0.686 0.633,-0.686 0,0 0.009,-0.28 -0.139,-0.322 -0.253,-0.07 -0.677,0.653 -0.677,0.653 l -0.135,-0.072 c 0,0 0.092,-0.13 0.174,-0.379 0.082,-0.249 0.069,-0.361 0.069,-0.361 0,0 -0.074,0.273 -0.412,0.9 -0.337,0.628 -1.078,0.996 -1.078,0.996 0,0 0.302,-0.725 0.663,-1.231 0.36,-0.506 0.713,-0.831 0.713,-0.831 0,0 -0.133,-0.118 -0.072,-0.243 0.06,-0.126 0.143,-0.132 0.143,-0.132 l 0.151,-0.626 6.988,0 z"/><path id="path36" style="fill:#cccccc;fill-opacity:1;fill-rule:nonzero;stroke:none" d="m 19.8076,23.3413 c 0,0.111 -0.094,0.201 -0.21,0.201 -0.116,0 -0.21,-0.09 -0.21,-0.201 0,-0.11 0.094,-0.2 0.21,-0.2 0.116,0 0.21,0.09 0.21,0.2"/><path id="path37" style="fill:#cccccc;fill-opacity:1;fill-rule:nonzero;stroke:none" d="m 16.1919,23.3413 c 0,0.111 0.094,0.201 0.21,0.201 0.117,0 0.211,-0.09 0.211,-0.201 0,-0.11 -0.094,-0.2 -0.211,-0.2 -0.116,0 -0.21,0.09 -0.21,0.2"/><path id="path38" style="fill:#cccccc;fill-opacity:1;fill-rule:nonzero;stroke:none" d="m 22.0723,23.0063 c 0.016,0.11 -0.064,0.212 -0.18,0.228 -0.115,0.016 -0.22,-0.06 -0.236,-0.169 -0.016,-0.11 0.065,-0.212 0.18,-0.228 0.115,-0.017 0.22,0.059 0.236,0.169"/><path id="path39" style="fill:#cccccc;fill-opacity:1;fill-rule:nonzero;stroke:none" d="m 13.9272,23.0063 c -0.015,0.11 0.065,0.212 0.181,0.228 0.114,0.016 0.22,-0.06 0.236,-0.169 0.015,-0.11 -0.065,-0.212 -0.181,-0.228 -0.114,-0.017 -0.22,0.059 -0.236,0.169"/><path id="path40" style="fill:#cccccc;fill-opacity:1;fill-rule:nonzero;stroke:none" d="m 22.3193,22.6216 c 0.069,-0.049 0.181,-0.007 0.244,0.083 0.065,0.091 0.059,0.202 -0.011,0.25"/><path id="path41" style="fill:#cccccc;fill-opacity:1;fill-rule:nonzero;stroke:none" d="m 13.6802,22.6216 c -0.069,-0.049 -0.18,-0.007 -0.244,0.083 -0.064,0.091 -0.058,0.202 0.011,0.25"/></g></g></g></g></svg>