<svg xmlns:dc="http://purl.org/dc/elements/1.1/" xmlns:cc="http://creativecommons.org/ns#" xmlns:rdf="http://www.w3.org/1999/02/22-rdf-syntax-ns#" xmlns:svg="http://www.w3.org/2000/svg" xmlns="http://www.w3.org/2000/svg" viewBox="0 0 45 45" style="enable-background:new 0 0 45 45;" xml:space="preserve" version="1.1" id="svg2"><metadata id="metadata8"><rdf:RDF><cc:Work rdf:about=""><dc:format>image/svg+xml</dc:format><dc:type rdf:resource="http://purl.org/dc/dcmitype/StillImage"/></cc:Work></rdf:RDF></metadata><defs id="defs6"><clipPath id="clipPath16" clipPathUnits="userSpaceOnUse"><path id="path18" d="M 0,36 36,36 36,0 0,0 0,36 Z"/></clipPath></defs><g transform="matrix(1.25,0,0,-1.25,0,45)" id="g10"><g id="g12"><g xmlns="http://www.w3.org/2000/svg" clip-path="url(#clipPath16)" id="g14"><g id="g30"><path id="path20" style="fill:#eeeeee;fill-opacity:1;fill-rule:nonzero;stroke:none" d="M 0,18 0,9 C 0,6.791 1.791,5 4,5 l 28,0 c 2.209,0 4,1.791 4,4 L 36,17.985 0,18 z"/><path id="path21" style="fill:#ff0000;fill-opacity:1;fill-rule:nonzero;stroke:none" d="m 36,17.9854 0,9.015 c 0,2.209 -1.791,4 -4,4 l -28,0 c -2.209,0 -4,-1.791 -4,-4 l 0,-9 36,-0.015 z"/></g><g id="g34"><path id="path30" style="fill:#000000;fill-opacity:1;fill-rule:nonzero;stroke:none" d="m 18,9.9004 -0.221,0.109 c -0.067,0.034 -6.758,3.421 -6.758,11.72 l 0,4.354 13.958,0 0,-4.354 c 0,-8.299 -6.691,-11.686 -6.758,-11.72 L 18,9.9004 z"/><path id="path31" style="fill:#dc281e;fill-opacity:1;fill-rule:nonzero;stroke:none" d="m 18,10.458 c 0,0 -6.479,3.188 -6.479,11.271 l 0,3.854 12.958,0 0,-3.854 C 24.479,13.646 18,10.458 18,10.458"/><path id="path32" style="fill:#ffffff;fill-opacity:1;fill-rule:nonzero;stroke:none" d="m 23.8828,19.2769 c 0,3.249 -2.634,5.882 -5.883,5.882 -3.249,0 -5.882,-2.633 -5.882,-5.882 0,-3.249 2.633,-5.882 5.882,-5.882 3.249,0 5.883,2.633 5.883,5.882"/><path id="path33" style="fill:#dc281e;fill-opacity:1;fill-rule:nonzero;stroke:none" d="m 23.6543,19.2769 c 0,3.123 -2.531,5.654 -5.654,5.654 -3.123,0 -5.655,-2.531 -5.655,-5.654 0,-3.124 2.532,-5.655 5.655,-5.655 3.123,0 5.654,2.531 5.654,5.655"/><path id="path34" style="fill:#ffffff;fill-opacity:1;fill-rule:nonzero;stroke:none" d="m 22.1582,19.2769 c 0,2.296 -1.861,4.158 -4.158,4.158 -2.297,0 -4.158,-1.862 -4.158,-4.158 0,-2.296 1.861,-4.158 4.158,-4.158 2.297,0 4.158,1.862 4.158,4.158"/><path id="path35" style="fill:#dc281e;fill-opacity:1;fill-rule:nonzero;stroke:none" d="m 21.9678,19.2769 c 0,2.191 -1.776,3.967 -3.968,3.967 -2.191,0 -3.967,-1.776 -3.967,-3.967 0,-2.191 1.776,-3.967 3.967,-3.967 2.192,0 3.968,1.776 3.968,3.967"/><path id="path36" style="fill:#ffd300;fill-opacity:1;fill-rule:nonzero;stroke:none" d="m 11.8418,24.2378 c 0,0.552 0.448,1 1,1 0.553,0 1.001,-0.448 1.001,-1 0,-0.553 -0.448,-1 -1.001,-1 -0.552,0 -1,0.447 -1,1"/><path id="path37" style="fill:#ffd300;fill-opacity:1;fill-rule:nonzero;stroke:none" d="m 24.1582,24.2378 c 0,0.552 -0.448,1 -1.001,1 -0.552,0 -1,-0.448 -1,-1 0,-0.553 0.448,-1 1,-1 0.553,0 1.001,0.447 1.001,1"/><path id="path38" style="fill:#ffffff;fill-opacity:1;fill-rule:nonzero;stroke:none" d="m 17.0449,22.9351 0,-0.706 0.235,0 0,-3.411 -0.855,0.149 0,2.205 0.109,0 0,0.579 -1.465,0 0,-0.579 0.16,0 0,-4.672 5.542,0 0,4.672 0.161,0 0,0.579 -1.466,0 0,-0.579 0.108,0 0,-2.205 -0.854,-0.149 0,3.411 0.235,0 0,0.706 -1.91,0 z"/></g><g id="g38"><path id="path40" style="fill:#ffffff;fill-opacity:1;fill-rule:nonzero;stroke:none" d="m 19.9873,24.0493 -0.191,0.059 0.015,0.169 c -0.017,0.019 -0.047,0.04 -0.086,0.063 -0.04,0.022 -0.084,0.041 -0.131,0.056 -0.07,0.022 -0.128,0.025 -0.174,0.01 -0.046,-0.015 -0.077,-0.044 -0.089,-0.086 -0.012,-0.039 -0.002,-0.078 0.03,-0.115 0.032,-0.037 0.093,-0.085 0.182,-0.143 0.129,-0.079 0.22,-0.159 0.275,-0.239 0.055,-0.081 0.067,-0.168 0.038,-0.263 -0.031,-0.099 -0.098,-0.163 -0.202,-0.194 -0.104,-0.03 -0.226,-0.024 -0.366,0.019 -0.101,0.032 -0.188,0.074 -0.259,0.128 -0.072,0.055 -0.128,0.116 -0.166,0.183 l 0.074,0.242 0.197,-0.061 -0.023,-0.173 c 0.02,-0.027 0.05,-0.053 0.09,-0.079 0.04,-0.026 0.087,-0.048 0.14,-0.064 0.071,-0.022 0.127,-0.025 0.172,-0.011 0.044,0.015 0.074,0.044 0.086,0.087 0.014,0.045 0.008,0.086 -0.018,0.123 -0.027,0.039 -0.079,0.082 -0.158,0.133 -0.139,0.086 -0.239,0.168 -0.299,0.247 -0.061,0.078 -0.076,0.164 -0.047,0.259 0.029,0.094 0.097,0.157 0.202,0.19 0.105,0.032 0.225,0.029 0.357,-0.011 0.098,-0.029 0.183,-0.071 0.254,-0.122 0.073,-0.052 0.129,-0.109 0.169,-0.171 l -0.072,-0.236 z"/><path id="path41" style="fill:#ffffff;fill-opacity:1;fill-rule:nonzero;stroke:none" d="m 20.8066,23.3394 c 0.064,0.107 0.092,0.209 0.083,0.306 -0.01,0.096 -0.062,0.173 -0.158,0.231 -0.096,0.057 -0.188,0.067 -0.275,0.028 -0.087,-0.038 -0.163,-0.111 -0.228,-0.219 l -0.01,-0.017 c -0.065,-0.11 -0.094,-0.212 -0.086,-0.307 0.008,-0.095 0.06,-0.172 0.155,-0.229 0.097,-0.058 0.189,-0.068 0.278,-0.03 0.089,0.037 0.165,0.111 0.23,0.22 l 0.011,0.017 z m 0.218,-0.153 c -0.091,-0.152 -0.214,-0.249 -0.369,-0.291 -0.156,-0.042 -0.31,-0.017 -0.464,0.075 -0.155,0.093 -0.249,0.217 -0.285,0.373 -0.036,0.156 -0.007,0.309 0.084,0.462 l 0.008,0.015 c 0.091,0.151 0.213,0.248 0.368,0.291 0.154,0.043 0.308,0.019 0.462,-0.073 0.155,-0.093 0.25,-0.218 0.287,-0.374 0.036,-0.158 0.008,-0.312 -0.082,-0.463 l -0.009,-0.015 z"/><path id="path42" style="fill:#ffffff;fill-opacity:1;fill-rule:nonzero;stroke:none" d="m 21.3516,22.8516 0.159,-0.159 c 0.053,-0.052 0.106,-0.079 0.158,-0.079 0.053,-0.001 0.1,0.018 0.14,0.059 0.041,0.041 0.062,0.089 0.062,0.142 0,0.054 -0.027,0.107 -0.08,0.16 l -0.159,0.158 -0.28,-0.281 z m 0.571,0.254 c 0.108,-0.107 0.167,-0.217 0.18,-0.329 0.012,-0.113 -0.022,-0.21 -0.104,-0.291 -0.082,-0.082 -0.178,-0.117 -0.291,-0.105 -0.111,0.013 -0.221,0.073 -0.329,0.18 l -0.159,0.159 -0.189,-0.19 0.083,-0.118 -0.103,-0.103 -0.389,0.389 0.102,0.103 0.118,-0.083 0.613,0.614 -0.083,0.118 0.103,0.104 0.101,-0.1 0.347,-0.348 z"/><path id="path43" style="fill:#ffffff;fill-opacity:1;fill-rule:nonzero;stroke:none" d="m 22.0781,21.9839 0.096,-0.158 c 0.039,-0.063 0.08,-0.104 0.124,-0.12 0.044,-0.017 0.089,-0.012 0.134,0.016 0.047,0.029 0.075,0.067 0.083,0.115 0.009,0.048 -0.005,0.103 -0.042,0.165 l -0.098,0.161 -0.297,-0.179 z m 0.555,0.114 c 0.078,-0.129 0.112,-0.246 0.102,-0.352 -0.009,-0.106 -0.06,-0.188 -0.155,-0.245 -0.053,-0.032 -0.107,-0.044 -0.164,-0.037 -0.057,0.008 -0.115,0.035 -0.175,0.08 0.023,-0.079 0.023,-0.145 -0.002,-0.2 -0.024,-0.054 -0.067,-0.101 -0.129,-0.138 l -0.053,-0.032 c -0.022,-0.014 -0.037,-0.029 -0.043,-0.047 -0.007,-0.018 -0.004,-0.039 0.007,-0.063 l 0.013,-0.03 -0.125,-0.075 -0.071,0.117 c -0.045,0.075 -0.059,0.138 -0.04,0.19 0.018,0.052 0.055,0.096 0.114,0.131 l 0.059,0.036 c 0.049,0.03 0.08,0.069 0.091,0.115 0.011,0.047 0,0.098 -0.03,0.152 l -0.113,0.187 -0.273,-0.165 0.052,-0.134 -0.124,-0.076 -0.285,0.471 0.124,0.075 0.095,-0.108 0.742,0.45 -0.052,0.133 0.125,0.076 0.073,-0.121 0.237,-0.39 z"/><path id="path44" style="fill:#ffffff;fill-opacity:1;fill-rule:nonzero;stroke:none" d="m 22.752,20.3467 c 0.12,0.036 0.209,0.092 0.268,0.169 0.058,0.077 0.071,0.169 0.04,0.277 -0.033,0.107 -0.094,0.176 -0.184,0.207 -0.09,0.031 -0.195,0.028 -0.316,-0.008 l -0.019,-0.006 c -0.122,-0.036 -0.213,-0.092 -0.271,-0.168 -0.059,-0.075 -0.072,-0.166 -0.04,-0.273 0.032,-0.108 0.093,-0.178 0.184,-0.21 0.09,-0.032 0.196,-0.03 0.318,0.006 l 0.02,0.006 z m 0.057,-0.261 c -0.17,-0.05 -0.327,-0.038 -0.469,0.035 -0.143,0.074 -0.239,0.198 -0.291,0.37 -0.051,0.172 -0.037,0.328 0.042,0.467 0.08,0.139 0.204,0.233 0.374,0.284 l 0.017,0.005 c 0.169,0.05 0.325,0.039 0.467,-0.033 0.144,-0.073 0.24,-0.195 0.291,-0.367 0.052,-0.173 0.038,-0.33 -0.042,-0.47 -0.079,-0.14 -0.203,-0.235 -0.372,-0.285 l -0.017,-0.006 z"/><path id="path45" style="fill:#ffffff;fill-opacity:1;fill-rule:nonzero;stroke:none" d="m 23.4814,18.7139 -0.146,-0.003 -0.028,0.142 -1.037,-0.018 -0.005,0.266 0.804,0.551 -0.001,0.005 -0.643,-0.011 -0.021,-0.143 -0.146,-0.002 -0.009,0.55 0.145,0.003 0.027,-0.141 0.868,0.015 0.022,0.141 0.146,0.003 0.003,-0.141 0.004,-0.267 -0.804,-0.551 0.001,-0.005 0.641,0.011 0.023,0.143 0.146,0.002 0.007,-0.408 0.003,-0.142 z"/><path id="path46" style="fill:#ffffff;fill-opacity:1;fill-rule:nonzero;stroke:none" d="m 23.3047,18.229 0.091,-0.141 -0.044,-0.222 -0.015,0.003 -0.157,0.292 0.036,0.179 0.258,0.21 0.014,-0.003 -0.045,-0.223 -0.138,-0.095 z"/><path id="path47" style="fill:#ffffff;fill-opacity:1;fill-rule:nonzero;stroke:none" d="m 22.3887,16.6895 0.094,0.215 0.16,-0.035 c 0.034,0.019 0.067,0.048 0.099,0.085 0.032,0.038 0.06,0.086 0.085,0.144 0.055,0.125 0.062,0.237 0.022,0.335 -0.041,0.098 -0.117,0.172 -0.231,0.221 l -0.038,0.017 c -0.113,0.049 -0.218,0.056 -0.319,0.019 -0.1,-0.037 -0.176,-0.116 -0.229,-0.239 -0.025,-0.057 -0.041,-0.112 -0.049,-0.164 -0.008,-0.052 -0.007,-0.096 0.004,-0.131 l 0.134,-0.095 -0.093,-0.215 -0.219,0.096 c -0.026,0.081 -0.036,0.173 -0.027,0.276 0.008,0.104 0.037,0.211 0.086,0.323 0.084,0.193 0.205,0.329 0.361,0.407 0.157,0.078 0.316,0.082 0.477,0.012 l 0.037,-0.016 c 0.162,-0.07 0.266,-0.19 0.317,-0.357 0.05,-0.168 0.032,-0.349 -0.053,-0.544 -0.049,-0.111 -0.108,-0.205 -0.179,-0.281 -0.07,-0.076 -0.143,-0.133 -0.22,-0.169 l -0.219,0.096 z"/><path id="path48" style="fill:#ffffff;fill-opacity:1;fill-rule:nonzero;stroke:none" d="m 22.5293,16.4746 0.119,-0.084 -0.377,-0.531 -0.119,0.085 0.077,0.151 -0.708,0.502 -0.117,-0.123 -0.118,0.084 0.376,0.53 0.118,-0.084 -0.077,-0.151 0.708,-0.502 0.118,0.123 z"/><path id="path49" style="fill:#ffffff;fill-opacity:1;fill-rule:nonzero;stroke:none" d="m 21.6924,15.4551 0.078,0.093 -0.692,0.351 -0.059,0.036 -0.005,-0.003 0.03,-0.061 0.279,-0.727 0.098,0.068 0.098,-0.109 -0.426,-0.384 -0.097,0.108 0.089,0.099 -0.36,1.089 0.241,0.216 1.047,-0.468 0.106,0.077 0.097,-0.109 -0.426,-0.384 -0.098,0.108 z"/><path id="path50" style="fill:#ffffff;fill-opacity:1;fill-rule:nonzero;stroke:none" d="m 20.8838,14.8076 0.071,-0.128 -0.567,-0.318 -0.071,0.127 0.134,0.104 -0.424,0.756 -0.16,-0.061 -0.071,0.127 0.567,0.319 0.072,-0.126 -0.135,-0.105 0.425,-0.757 0.159,0.062 z"/><path id="path51" style="fill:#ffffff;fill-opacity:1;fill-rule:nonzero;stroke:none" d="m 18.9512,13.8633 -0.094,0.308 0.231,0.071 0.052,-0.126 0.277,0.086 -0.251,0.813 -0.169,-0.025 -0.042,0.139 0.622,0.191 0.043,-0.139 -0.153,-0.073 0.251,-0.813 0.275,0.085 -0.027,0.132 0.229,0.071 0.095,-0.308 -1.339,-0.412 z"/><path id="path52" style="fill:#ffffff;fill-opacity:1;fill-rule:nonzero;stroke:none" d="m 18.397,14.54 -0.36,-0.015 0.194,-0.418 0.007,0 0.159,0.433 z m 0.555,0.383 -0.112,-0.018 -0.435,-1.069 -0.322,-0.013 -0.517,1.03 -0.113,0.008 -0.006,0.146 0.535,0.021 0.006,-0.145 -0.108,-0.019 0.076,-0.163 0.508,0.021 0.063,0.169 -0.11,0.009 -0.006,0.146 0.534,0.021 0.007,-0.144 z"/><path id="path53" style="fill:#ffffff;fill-opacity:1;fill-rule:nonzero;stroke:none" d="m 16.229,14.4941 0.229,-0.057 0,-0.171 c 0.024,-0.019 0.06,-0.04 0.108,-0.062 0.049,-0.022 0.102,-0.041 0.159,-0.055 0.084,-0.02 0.152,-0.023 0.205,-0.007 0.052,0.016 0.084,0.045 0.094,0.088 0.01,0.04 -0.006,0.078 -0.047,0.116 -0.042,0.037 -0.118,0.085 -0.228,0.142 -0.16,0.077 -0.275,0.156 -0.348,0.237 -0.072,0.081 -0.097,0.169 -0.073,0.265 0.025,0.101 0.096,0.167 0.214,0.199 0.118,0.034 0.261,0.029 0.43,-0.013 0.121,-0.03 0.226,-0.072 0.317,-0.125 0.089,-0.054 0.161,-0.115 0.213,-0.183 l -0.061,-0.245 -0.236,0.058 0.008,0.175 c -0.026,0.028 -0.064,0.054 -0.113,0.079 -0.05,0.026 -0.107,0.046 -0.172,0.063 -0.084,0.02 -0.151,0.023 -0.201,0.008 -0.05,-0.016 -0.081,-0.046 -0.091,-0.09 -0.011,-0.045 0,-0.086 0.035,-0.124 0.035,-0.037 0.101,-0.081 0.199,-0.131 0.171,-0.085 0.296,-0.167 0.376,-0.245 0.079,-0.078 0.107,-0.166 0.083,-0.262 -0.024,-0.095 -0.095,-0.16 -0.215,-0.194 -0.12,-0.035 -0.259,-0.033 -0.418,0.004 -0.117,0.029 -0.221,0.069 -0.31,0.121 -0.09,0.051 -0.162,0.107 -0.217,0.169 l 0.06,0.24 z"/><path id="path54" style="fill:#ffffff;fill-opacity:1;fill-rule:nonzero;stroke:none" d="m 16.167,15.2441 -0.146,0.062 -0.46,-0.736 0.12,-0.104 -0.077,-0.124 -0.996,0.621 0.176,0.281 0.192,-0.12 -0.065,-0.129 0.408,-0.255 0.176,0.282 -0.438,0.274 0.099,0.158 0.438,-0.273 0.176,0.281 -0.121,0.105 0.077,0.123 0.518,-0.323 -0.077,-0.123 z"/><path id="path55" style="fill:#ffffff;fill-opacity:1;fill-rule:nonzero;stroke:none" d="m 14.6201,15.167 -0.099,-0.107 -0.449,0.414 0.099,0.107 0.133,-0.089 0.587,0.638 -0.099,0.126 0.099,0.106 0.449,-0.413 -0.098,-0.107 -0.134,0.089 -0.587,-0.638 0.099,-0.126 z"/><path id="path56" style="fill:#ffffff;fill-opacity:1;fill-rule:nonzero;stroke:none" d="m 13.8301,16.043 0.678,0.489 -0.114,0.158 c -0.062,0.086 -0.134,0.136 -0.217,0.151 -0.083,0.014 -0.163,-0.006 -0.24,-0.062 l -0.163,-0.117 c -0.076,-0.055 -0.12,-0.124 -0.132,-0.207 -0.013,-0.083 0.012,-0.168 0.074,-0.254 l 0.114,-0.158 z m -0.274,0.062 c -0.106,0.146 -0.155,0.293 -0.146,0.444 0.008,0.149 0.072,0.267 0.192,0.354 l 0.162,0.118 c 0.12,0.086 0.253,0.11 0.397,0.07 0.145,-0.04 0.27,-0.133 0.375,-0.279 l 0.388,-0.539 -0.118,-0.084 -0.112,0.113 -0.704,-0.508 0.072,-0.142 -0.119,-0.086 -0.092,0.128 -0.295,0.411 z"/><path id="path57" style="fill:#ffffff;fill-opacity:1;fill-rule:nonzero;stroke:none" d="m 13.3872,17.9458 0.175,-0.467 0.323,0.12 -0.166,0.446 -0.14,-0.038 -0.079,0.21 0.31,0.116 0.408,-1.093 -0.136,-0.05 -0.079,0.137 -0.812,-0.303 0.031,-0.156 -0.137,-0.05 -0.054,0.146 -0.353,0.944 0.311,0.116 0.079,-0.212 -0.131,-0.063 0.165,-0.442 0.285,0.105 -0.175,0.469 0.175,0.065 z"/><path id="path58" style="fill:#ffffff;fill-opacity:1;fill-rule:nonzero;stroke:none" d="m 13.8286,18.2544 -0.145,-0.016 -0.042,0.153 -0.862,-0.098 -0.007,-0.159 -0.145,-0.017 -0.018,0.157 -0.033,0.293 -0.018,0.157 0.145,0.017 0.043,-0.154 0.846,0.096 -0.047,0.413 -0.153,-0.003 -0.025,0.225 0.336,0.038 0.125,-1.102 z"/><path id="path59" style="fill:#ffffff;fill-opacity:1;fill-rule:nonzero;stroke:none" d="m 12.6655,19.3198 -0.146,0.01 0.04,0.609 0.146,-0.01 0.014,-0.159 0.865,-0.056 0.036,0.156 0.145,-0.009 -0.04,-0.609 -0.145,0.009 -0.015,0.159 -0.865,0.056 -0.035,-0.156 z"/><path id="path60" style="fill:#ffffff;fill-opacity:1;fill-rule:nonzero;stroke:none" d="m 13.2017,21.0605 -0.054,-0.215 -0.171,0.003 c -0.019,-0.021 -0.039,-0.055 -0.061,-0.1 -0.022,-0.045 -0.039,-0.095 -0.053,-0.149 -0.019,-0.079 -0.021,-0.143 -0.005,-0.192 0.016,-0.05 0.046,-0.08 0.089,-0.091 0.039,-0.01 0.078,0.004 0.114,0.042 0.037,0.039 0.084,0.11 0.14,0.212 0.076,0.149 0.153,0.257 0.233,0.323 0.08,0.067 0.167,0.088 0.264,0.064 0.1,-0.025 0.167,-0.094 0.2,-0.205 0.033,-0.112 0.031,-0.247 -0.009,-0.405 -0.029,-0.114 -0.07,-0.212 -0.122,-0.296 -0.053,-0.084 -0.113,-0.15 -0.18,-0.198 l -0.245,0.062 0.056,0.222 0.175,-0.011 c 0.026,0.024 0.052,0.059 0.077,0.105 0.025,0.046 0.045,0.1 0.061,0.161 0.019,0.078 0.021,0.141 0.005,0.189 -0.015,0.047 -0.046,0.077 -0.09,0.088 -0.045,0.011 -0.086,0.001 -0.123,-0.031 -0.037,-0.032 -0.08,-0.094 -0.129,-0.185 -0.083,-0.16 -0.163,-0.276 -0.24,-0.349 -0.078,-0.073 -0.164,-0.098 -0.26,-0.074 -0.095,0.025 -0.16,0.093 -0.196,0.206 -0.036,0.114 -0.036,0.245 10e-4,0.394 0.027,0.11 0.066,0.207 0.116,0.29 0.051,0.084 0.106,0.15 0.167,0.201 l 0.24,-0.061 z"/><path id="path61" style="fill:#ffffff;fill-opacity:1;fill-rule:nonzero;stroke:none" d="m 13.7612,22.1528 -0.104,-0.196 -0.165,0.044 c -0.023,-0.016 -0.051,-0.044 -0.084,-0.083 -0.031,-0.038 -0.061,-0.082 -0.086,-0.131 -0.039,-0.071 -0.056,-0.134 -0.052,-0.186 0.004,-0.052 0.026,-0.089 0.065,-0.109 0.036,-0.02 0.076,-0.015 0.121,0.014 0.045,0.028 0.107,0.085 0.187,0.172 0.109,0.126 0.21,0.212 0.303,0.258 0.093,0.045 0.184,0.045 0.271,-0.002 0.091,-0.049 0.14,-0.131 0.146,-0.247 0.006,-0.117 -0.03,-0.246 -0.106,-0.391 -0.055,-0.103 -0.118,-0.189 -0.189,-0.258 -0.072,-0.069 -0.145,-0.118 -0.223,-0.148 l -0.222,0.118 0.107,0.202 0.167,-0.053 c 0.031,0.017 0.065,0.045 0.1,0.084 0.035,0.039 0.068,0.086 0.097,0.141 0.039,0.072 0.056,0.133 0.052,0.183 -0.005,0.049 -0.027,0.085 -0.067,0.107 -0.041,0.022 -0.083,0.021 -0.127,-0.001 -0.044,-0.022 -0.1,-0.072 -0.17,-0.149 -0.118,-0.135 -0.224,-0.228 -0.316,-0.281 -0.093,-0.052 -0.183,-0.055 -0.27,-0.009 -0.087,0.046 -0.134,0.129 -0.141,0.247 -0.007,0.119 0.024,0.246 0.095,0.382 0.053,0.1 0.114,0.185 0.183,0.254 0.068,0.069 0.138,0.12 0.21,0.154 l 0.218,-0.116 z"/><path id="path62" style="fill:#ffffff;fill-opacity:1;fill-rule:nonzero;stroke:none" d="m 13.646,22.3755 -0.114,0.091 0.38,0.478 0.114,-0.091 -0.079,-0.139 0.679,-0.54 0.118,0.108 0.114,-0.091 -0.38,-0.478 -0.114,0.091 0.079,0.139 -0.679,0.54 -0.118,-0.108 z"/><path id="path63" style="fill:#ffffff;fill-opacity:1;fill-rule:nonzero;stroke:none" d="m 15.3228,23.7671 -0.005,-0.003 0.218,-0.954 -0.159,-0.118 -0.848,0.48 -0.004,-0.005 0.339,-0.408 0.114,-0.152 0.141,0.074 0.087,-0.116 -0.489,-0.365 -0.087,0.116 0.111,0.114 -0.519,0.695 -0.141,-0.073 -0.087,0.117 0.126,0.094 0.309,0.23 0.834,-0.489 0.005,0.003 -0.229,0.941 0.437,0.325 0.087,-0.117 -0.112,-0.114 0.519,-0.695 0.142,0.074 0.086,-0.116 -0.489,-0.366 -0.087,0.117 0.111,0.114 -0.114,0.152 -0.296,0.445 z"/><path id="path64" style="fill:#ffffff;fill-opacity:1;fill-rule:nonzero;stroke:none" d="m 16.4399,23.8491 0.324,0.098 -0.283,0.36 -0.006,-0.002 -0.035,-0.456 z m -0.407,-0.5 0.097,0.043 0.124,1.136 0.29,0.088 0.731,-0.876 0.105,0.018 0.042,-0.138 -0.481,-0.146 -0.042,0.139 0.094,0.044 -0.111,0.14 -0.457,-0.139 -0.014,-0.178 0.102,0.015 0.043,-0.139 -0.481,-0.145 -0.042,0.138 z"/></g></g></g></g></svg>