<svg xmlns:dc="http://purl.org/dc/elements/1.1/" xmlns:cc="http://creativecommons.org/ns#" xmlns:rdf="http://www.w3.org/1999/02/22-rdf-syntax-ns#" xmlns:svg="http://www.w3.org/2000/svg" xmlns="http://www.w3.org/2000/svg" viewBox="0 0 45 45" style="enable-background:new 0 0 45 45;" xml:space="preserve" version="1.1" id="svg2"><metadata id="metadata8"><rdf:RDF><cc:Work rdf:about=""><dc:format>image/svg+xml</dc:format><dc:type rdf:resource="http://purl.org/dc/dcmitype/StillImage"/></cc:Work></rdf:RDF></metadata><defs id="defs6"><clipPath id="clipPath16" clipPathUnits="userSpaceOnUse"><path id="path18" d="M 4,31 C 1.791,31 0,29.209 0,27 L 0,27 0,9 C 0,6.791 1.791,5 4,5 l 0,0 28,0 c 2.209,0 4,1.791 4,4 l 0,0 0,18 c 0,2.209 -1.791,4 -4,4 l 0,0 -28,0 z"/></clipPath></defs><g transform="matrix(1.25,0,0,-1.25,0,45)" id="g10"><g id="g12"><g xmlns="http://www.w3.org/2000/svg" clip-path="url(#clipPath16)" id="g14"><g id="g20"><path id="path22" style="fill:#003f15;fill-opacity:1;fill-rule:nonzero;stroke:none" d="m 0,5 36,0 0,25.999 -36,0 L 0,5 z"/></g><g id="g24"><path id="path26" style="fill:#141414;fill-opacity:1;fill-rule:nonzero;stroke:none" d="m 0,5.0004 25.807,0 L 0,23.6374 0,5.0004 z"/></g><g id="g28"><path id="path30" style="fill:#eeeeee;fill-opacity:1;fill-rule:nonzero;stroke:none" d="M 0,23.6376 25.807,5.0006 36,5.0006 0,30.9996 0,23.6376 z"/></g><g id="g32"><path id="path34" style="fill:#ffffff;fill-opacity:1;fill-rule:nonzero;stroke:none" d="m 27.4971,27.7314 0.835,-0.943 1.155,0.502 -0.638,-1.086 0.834,-0.943 -1.23,0.272 -0.64,-1.085 -0.121,1.254 -1.229,0.273 1.154,0.503 -0.12,1.253 z"/></g><g id="g36"><path id="path38" style="fill:#ffffff;fill-opacity:1;fill-rule:nonzero;stroke:none" d="m 30.3887,21.771 c -0.791,-1.862 -2.637,-3.168 -4.788,-3.168 -2.871,0 -5.199,2.327 -5.199,5.199 0,2.32 1.518,4.285 3.617,4.955 -1.135,-0.867 -1.866,-2.235 -1.866,-3.773 0,-2.62 2.124,-4.745 4.745,-4.745 1.381,0 2.624,0.59 3.491,1.532"/></g></g></g></g></svg>