<svg xmlns:dc="http://purl.org/dc/elements/1.1/" xmlns:cc="http://creativecommons.org/ns#" xmlns:rdf="http://www.w3.org/1999/02/22-rdf-syntax-ns#" xmlns:svg="http://www.w3.org/2000/svg" xmlns="http://www.w3.org/2000/svg" viewBox="0 0 45 45" style="enable-background:new 0 0 45 45;" xml:space="preserve" version="1.1" id="svg2"><metadata id="metadata8"><rdf:RDF><cc:Work rdf:about=""><dc:format>image/svg+xml</dc:format><dc:type rdf:resource="http://purl.org/dc/dcmitype/StillImage"/></cc:Work></rdf:RDF></metadata><defs id="defs6"><clipPath id="clipPath16" clipPathUnits="userSpaceOnUse"><path id="path18" d="M 0,36 36,36 36,0 0,0 0,36 Z"/></clipPath></defs><g transform="matrix(1.25,0,0,-1.25,0,45)" id="g10"><g id="g12"><g xmlns="http://www.w3.org/2000/svg" clip-path="url(#clipPath16)" id="g14"><g id="g30"><path id="path20" style="fill:#feeb23;fill-opacity:1;fill-rule:nonzero;stroke:none" d="M 0,9 C 0,6.791 1.791,5 4,5 l 28,0 c 2.209,0 4,1.791 4,4 l 0,18 c 0,2.209 -1.791,4 -4,4 L 4,31 C 1.791,31 0,29.209 0,27 L 0,9 z"/></g><g id="g34"><path id="path30" style="fill:#000000;fill-opacity:1;fill-rule:nonzero;stroke:none" d="m 11.543,26.7964 0,-0.02 c -0.002,0.003 -0.002,0.011 0,0.02 m 12.869,1.882 c -0.039,0 -0.079,-0.001 -0.121,-0.003 -0.516,-0.014 -0.664,-0.054 -1.137,-0.297 -0.432,-0.224 -0.716,-0.484 -1.038,-0.956 -0.293,-0.428 -0.498,-0.988 -0.555,-1.513 -0.09,-0.827 -0.237,-1.569 -0.379,-1.926 -0.086,-0.218 -0.32,-0.539 -0.454,-0.625 -0.051,-0.034 -0.089,-0.073 -0.083,-0.091 0.013,-0.041 0.216,-0.075 0.344,-0.057 0.178,0.026 0.455,0.145 0.653,0.277 0.144,0.098 0.177,0.097 0.155,-0.01 -0.06,-0.283 -0.073,-0.41 -0.081,-0.757 -0.009,-0.451 0.026,-0.625 0.201,-0.975 0.098,-0.196 0.298,-0.465 0.324,-0.437 0.007,0.006 -0.006,0.079 -0.026,0.163 -0.086,0.336 -0.098,0.511 -0.056,0.808 0.075,0.532 0.205,0.912 0.496,1.438 0.067,0.121 0.154,0.286 0.193,0.364 0.04,0.078 0.119,0.222 0.174,0.319 0.162,0.277 0.174,0.234 0.156,-0.572 -0.008,-0.369 -0.028,-0.723 -0.041,-0.787 -0.014,-0.065 -0.02,-0.123 -0.013,-0.129 0.019,-0.019 0.127,0.122 0.243,0.315 0.198,0.328 0.396,0.811 0.431,1.05 0.011,0.071 0.03,0.159 0.044,0.194 0.02,0.054 0.025,0.544 0.011,0.909 -0.003,0.088 -0.002,0.091 0.087,0.084 0.097,-0.008 0.489,0.063 0.533,0.098 0.014,0.01 0.063,0.032 0.11,0.047 0.149,0.051 0.502,0.326 0.502,0.393 0,0.016 -0.03,0.029 -0.066,0.029 -0.167,0 -0.384,0.17 -0.429,0.337 -0.015,0.055 -0.02,0.165 -0.01,0.244 0.024,0.206 0.165,0.359 0.41,0.447 0.45,0.161 0.801,0 1.024,-0.47 0.092,-0.195 0.097,-0.22 0.095,-0.454 -0.004,-0.512 -0.123,-0.77 -0.7,-1.525 -0.086,-0.113 -0.191,-0.256 -0.234,-0.321 -0.042,-0.064 -0.085,-0.123 -0.093,-0.13 -0.009,-0.007 -0.091,-0.124 -0.183,-0.26 -0.09,-0.136 -0.253,-0.373 -0.361,-0.526 -0.557,-0.795 -0.728,-1.202 -0.913,-2.166 -0.059,-0.311 -0.061,-0.499 -0.011,-0.788 0.124,-0.705 0.488,-1.292 1.419,-2.292 0.423,-0.455 0.735,-0.879 0.905,-1.235 0.078,-0.162 0.088,-0.208 0.089,-0.399 10e-4,-0.239 -0.021,-0.287 -0.196,-0.43 -0.134,-0.107 -0.287,-0.117 -0.543,-0.035 -0.32,0.101 -0.528,0.232 -0.789,0.497 -0.129,0.13 -0.279,0.301 -0.333,0.38 -0.147,0.216 -0.542,0.815 -0.626,0.955 -0.104,0.17 -0.17,0.275 -0.317,0.5 -0.071,0.108 -0.132,0.206 -0.138,0.219 -0.013,0.029 -0.448,0.704 -0.527,0.816 -0.161,0.227 -0.208,0.29 -0.447,0.592 -0.257,0.328 -0.923,1.022 -1.189,1.241 -0.304,0.249 -0.667,0.468 -1.283,0.774 -0.352,0.173 -0.64,0.329 -0.639,0.346 0,0.018 0.065,0.031 0.179,0.035 0.189,0.004 0.39,0.082 0.516,0.197 0.058,0.052 0.062,0.053 0.157,0.008 0.201,-0.095 0.487,-0.079 0.59,0.036 0.042,0.047 0.039,0.05 -0.072,0.099 -0.179,0.079 -0.239,0.186 -0.239,0.419 l 0,0.194 0.13,0.03 c 0.162,0.038 0.367,0.164 0.463,0.284 0.086,0.11 0.173,0.292 0.173,0.366 0,0.041 -0.013,0.033 -0.077,-0.043 -0.083,-0.102 -0.273,-0.204 -0.378,-0.204 -0.127,0 -0.298,0.13 -0.298,0.225 0,0.018 0.054,0.039 0.123,0.049 0.196,0.029 0.341,0.128 0.381,0.262 0.016,0.051 0.009,0.054 -0.11,0.042 -0.281,-0.027 -0.318,0.06 -0.322,0.742 l -0.004,0.508 0.062,0.05 c 0.036,0.029 0.118,0.079 0.184,0.112 0.143,0.073 0.272,0.213 0.343,0.373 0.058,0.133 0.097,0.549 0.051,0.549 -0.015,0 -0.036,-0.026 -0.046,-0.058 -0.033,-0.108 -0.164,-0.292 -0.242,-0.338 -0.11,-0.066 -0.231,-0.058 -0.333,0.02 -0.047,0.037 -0.087,0.083 -0.087,0.102 0,0.02 0.04,0.069 0.088,0.11 0.281,0.231 0.456,0.789 0.381,1.221 -0.034,0.203 -0.122,0.495 -0.173,0.576 -0.002,0.004 -0.092,-0.045 -0.199,-0.11 -0.106,-0.066 -0.275,-0.15 -0.374,-0.189 -0.17,-0.067 -0.201,-0.071 -0.62,-0.071 -0.243,0 -0.682,0.008 -0.975,0.018 -0.293,0.01 -0.637,0.007 -0.763,-0.006 -0.268,-0.027 -0.336,-0.062 -0.618,-0.333 -0.101,-0.096 -0.237,-0.207 -0.305,-0.245 -0.149,-0.087 -0.388,-0.151 -0.559,-0.151 -0.071,0 -0.203,-0.014 -0.296,-0.031 -0.187,-0.034 -0.228,-0.076 -0.192,-0.193 0.013,-0.042 0.038,-0.142 0.055,-0.222 0.032,-0.145 0.032,-0.148 -0.047,-0.247 -0.111,-0.141 -0.129,-0.227 -0.146,-0.73 -0.007,-0.175 -0.002,-0.324 0.011,-0.332 0.012,-0.007 0.07,0.005 0.13,0.029 0.136,0.054 0.334,0.034 0.445,-0.045 0.045,-0.032 0.115,-0.11 0.156,-0.175 0.064,-0.1 0.075,-0.145 0.075,-0.295 0,-0.096 -0.017,-0.225 -0.037,-0.287 -0.02,-0.061 -0.045,-0.149 -0.055,-0.195 -0.008,-0.047 -0.068,-0.155 -0.131,-0.241 -0.201,-0.272 -0.544,-0.441 -0.901,-0.442 l -0.149,0 -0.095,0.149 c -0.117,0.185 -0.225,0.304 -0.361,0.393 -0.092,0.061 -0.13,0.069 -0.313,0.066 -0.368,-0.004 -0.629,-0.149 -0.754,-0.42 -0.062,-0.133 -0.068,-0.174 -0.06,-0.383 l 0.008,-0.234 -0.099,0.004 c -0.115,0.003 -0.238,0.108 -0.47,0.4 -0.397,0.496 -0.56,0.849 -0.656,1.429 -0.047,0.277 -0.046,0.261 -0.015,0.404 0.049,0.23 0.152,0.394 0.391,0.629 0.271,0.266 0.303,0.34 0.208,0.485 -0.033,0.051 -0.089,0.107 -0.125,0.124 -0.046,0.023 -0.076,0.038 -0.093,0.055 l -0.566,0.361 -0.172,0.014 c -0.161,0.013 -0.175,0.01 -0.242,-0.058 -0.061,-0.061 -0.072,-0.093 -0.072,-0.213 0,-0.077 -0.012,-0.163 -0.026,-0.19 -0.037,-0.068 -0.12,-0.065 -0.168,0.009 -0.043,0.065 -0.06,0.276 -0.027,0.33 0.012,0.019 0.025,0.092 0.029,0.159 0.01,0.17 -0.059,0.243 -0.252,0.268 l -0.806,-0.007 c -0.033,0.003 -0.06,-0.005 -0.113,-0.026 -0.103,-0.061 -0.163,-0.143 -0.185,-0.252 -0.013,-0.059 0.009,-0.125 0.09,-0.279 0.058,-0.109 0.106,-0.22 0.106,-0.244 0,-0.065 -0.078,-0.139 -0.146,-0.139 -0.062,0 -0.09,0.032 -0.219,0.242 -0.098,0.157 -0.182,0.193 -0.314,0.133 -0.255,-0.149 -0.394,-0.404 -0.504,-0.687 -0.054,-0.152 -0.05,-0.203 0.028,-0.359 0.095,-0.191 0.168,-0.224 0.461,-0.206 0.27,0.015 0.33,-0.018 0.33,-0.175 0,-0.071 -0.018,-0.103 -0.088,-0.156 -0.096,-0.074 -0.207,-0.089 -0.435,-0.056 -0.132,0.018 -0.151,0.016 -0.22,-0.044 -0.067,-0.057 -0.075,-0.081 -0.072,-0.197 l 0.004,-0.133 c 0.08,-0.219 -0.3,-0.166 0.239,-0.657 0.037,-0.024 0.113,-0.05 0.171,-0.06 0.114,-0.018 0.133,-0.006 0.393,0.228 0.225,0.201 0.427,0.082 0.414,-0.243 -0.013,-0.297 -0.198,-0.462 -0.584,-0.514 -0.13,-0.018 -0.248,-0.025 -0.263,-0.016 -0.015,0.009 -0.027,0.004 -0.027,-0.011 0,-0.04 0.218,-0.174 0.389,-0.238 0.117,-0.044 0.182,-0.052 0.342,-0.042 0.11,0.007 0.224,0.027 0.254,0.043 0.094,0.051 0.115,0.011 0.097,-0.18 -0.018,-0.203 -0.064,-0.328 -0.15,-0.406 -0.142,-0.13 -0.247,-0.142 -0.522,-0.063 -0.097,0.027 -0.176,0.043 -0.176,0.036 0,-0.006 0.017,-0.045 0.037,-0.084 0.063,-0.122 0.209,-0.229 0.397,-0.29 0.098,-0.032 0.188,-0.067 0.201,-0.08 0.013,-0.013 -0.013,-0.054 -0.065,-0.101 -0.112,-0.099 -0.237,-0.103 -0.453,-0.013 -0.195,0.081 -0.205,0.081 -0.185,-0.007 0.01,-0.039 0.023,-0.117 0.029,-0.173 0.014,-0.121 0.095,-0.287 0.188,-0.385 0.22,-0.233 0.72,-0.255 1.089,-0.047 0.077,0.043 0.151,0.079 0.166,0.079 0.045,0 0.028,-0.205 -0.025,-0.31 -0.028,-0.056 -0.1,-0.143 -0.161,-0.195 l -0.11,-0.094 0.129,0 c 0.166,10e-4 0.547,0.082 0.781,0.167 0.213,0.078 0.234,0.081 0.252,0.033 0.018,-0.049 -0.199,-0.891 -0.269,-1.041 -0.033,-0.069 -0.113,-0.184 -0.178,-0.254 -0.106,-0.115 -0.136,-0.131 -0.269,-0.152 -0.11,-0.018 -0.182,-0.015 -0.269,0.012 -0.148,0.044 -0.208,0.098 -0.275,0.245 -0.045,0.097 -0.051,0.146 -0.037,0.294 0.012,0.111 0.008,0.177 -0.008,0.177 -0.043,0 -0.21,-0.213 -0.273,-0.35 -0.144,-0.309 -0.15,-0.568 -0.02,-0.854 0.123,-0.271 0.402,-0.469 0.758,-0.538 0.133,-0.026 0.218,-0.027 0.4,-0.003 0.485,0.065 0.813,0.237 1.016,0.533 0.083,0.119 0.119,0.148 0.231,0.185 0.226,0.072 0.486,0.231 0.706,0.434 0.082,0.074 0.144,0.061 0.144,-0.031 0,-0.047 0.154,-0.391 0.214,-0.477 0.029,-0.043 0.009,-0.07 -0.179,-0.25 -0.117,-0.111 -0.31,-0.277 -0.43,-0.368 -0.262,-0.202 -0.811,-0.57 -0.849,-0.57 -0.015,0 -0.043,-0.014 -0.062,-0.032 -0.052,-0.048 -0.12,-0.087 -0.294,-0.171 -0.337,-0.163 -0.538,-0.218 -0.83,-0.222 -0.167,-0.003 -0.197,0.003 -0.283,0.069 -0.105,0.08 -0.115,0.129 -0.057,0.269 0.059,0.142 0.051,0.275 -0.021,0.343 -0.097,0.091 -0.212,0.113 -0.338,0.067 -0.244,-0.122 -0.529,-0.003 -0.84,-0.288 -0.199,-0.14 -0.222,-0.28 -0.083,-0.49 0.1,-0.151 0.11,-0.275 0.027,-0.357 -0.053,-0.053 -0.065,-0.055 -0.181,-0.024 -0.067,0.019 -0.128,0.042 -0.136,0.052 -0.044,0.062 -0.175,0.135 -0.239,0.135 -0.157,0 -0.256,-0.095 -0.32,-0.306 -0.075,-0.468 0.01,-0.589 0.059,-0.779 0.014,-0.092 0.122,-0.189 0.213,-0.189 0.102,0 0.157,0.029 0.345,0.186 0.213,0.177 0.35,0.174 0.396,-0.009 0.041,-0.161 -0.152,-0.333 -0.435,-0.383 -0.156,-0.029 -0.254,-0.068 -0.286,-0.117 -0.011,-0.015 -0.019,-0.072 -0.02,-0.126 0.041,-0.237 0.268,-0.379 0.406,-0.574 l 0.141,-0.131 c 0.163,-0.146 0.314,-0.181 0.447,-0.103 0.135,0.079 0.192,0.21 0.212,0.484 0.024,0.321 0.035,0.362 0.122,0.458 0.058,0.064 0.086,0.078 0.118,0.06 0.036,-0.021 0.044,-0.073 0.047,-0.294 0.002,-0.258 0.007,-0.278 0.087,-0.408 0.168,-0.209 0.646,-0.18 0.965,0.018 0.164,0.105 0.216,0.201 0.219,0.404 0.002,0.123 -0.012,0.186 -0.055,0.259 -0.086,0.147 -0.075,0.181 0.076,0.234 l 0.133,0.048 0.068,-0.068 c 0.066,-0.065 0.068,-0.08 0.061,-0.298 -0.007,-0.169 0.002,-0.257 0.036,-0.338 0.037,-0.095 0.142,-0.213 0.19,-0.213 0.008,0 0.012,0.071 0.007,0.157 -0.009,0.185 0.048,0.327 0.273,0.657 0.077,0.111 0.146,0.234 0.154,0.272 0.029,0.131 0.035,0.14 0.107,0.131 0.048,-0.006 0.088,-0.036 0.122,-0.095 0.049,-0.084 0.049,-0.092 0.005,-0.339 -0.042,-0.243 -0.038,-0.401 0.012,-0.497 0.015,-0.027 0.039,10e-4 0.088,0.105 0.087,0.186 0.148,0.283 0.274,0.443 0.111,0.139 0.184,0.335 0.184,0.493 0,0.138 0.045,0.249 0.116,0.281 0.126,0.057 0.155,-0.103 0.106,-0.583 -0.023,-0.22 -0.003,-0.452 0.038,-0.452 0.013,0 0.043,0.044 0.066,0.097 0.022,0.053 0.092,0.181 0.157,0.283 0.191,0.308 0.379,0.777 0.358,0.896 -0.006,0.034 0.016,0.139 0.049,0.231 0.045,0.131 0.072,0.171 0.116,0.178 0.099,0.014 0.146,-0.097 0.128,-0.301 -0.031,-0.334 -0.03,-0.429 0.003,-0.506 l 0.033,-0.079 0.081,0.153 c 0.044,0.084 0.115,0.215 0.155,0.292 0.067,0.125 0.076,0.168 0.076,0.369 0,0.173 0.009,0.239 0.041,0.269 0.055,0.056 0.081,0.052 0.127,-0.019 0.03,-0.046 0.033,-0.08 0.013,-0.149 -0.014,-0.05 -0.038,-0.165 -0.053,-0.258 -0.023,-0.139 -0.02,-0.187 0.016,-0.28 0.023,-0.061 0.05,-0.111 0.062,-0.111 0.011,0 0.029,0.048 0.038,0.108 0.01,0.059 0.076,0.231 0.149,0.383 0.105,0.216 0.135,0.307 0.139,0.42 0.008,0.22 0.011,0.234 0.052,0.234 0.073,0 0.099,-0.102 0.08,-0.314 -0.015,-0.174 -0.01,-0.22 0.038,-0.332 0.032,-0.072 0.078,-0.151 0.106,-0.176 0.048,-0.044 0.05,-0.041 0.051,0.07 0,0.118 0.038,0.235 0.177,0.563 0.085,0.202 0.124,0.379 0.147,0.67 0.013,0.168 0.051,0.247 0.117,0.247 0.008,0 0.036,-0.015 0.06,-0.033 0.034,-0.025 0.047,-0.087 0.058,-0.266 0.013,-0.234 0.032,-0.37 0.057,-0.413 0.008,-0.013 0.059,0.07 0.115,0.182 0.056,0.112 0.147,0.293 0.206,0.401 0.127,0.238 0.188,0.544 0.163,0.8 l -0.018,0.168 0.072,-0.018 c 0.04,-0.01 0.132,-0.046 0.205,-0.083 0.324,-0.157 0.503,-0.218 0.669,-0.228 0.118,-0.007 0.243,-0.039 0.403,-0.103 0.128,-0.052 0.344,-0.124 0.48,-0.16 0.311,-0.084 0.47,-0.162 0.679,-0.335 0.172,-0.142 0.439,-0.433 0.439,-0.479 0,-0.015 -0.123,-0.032 -0.292,-0.04 -0.161,-0.007 -0.356,-0.026 -0.434,-0.041 -0.41,-0.078 -0.874,-0.294 -1.198,-0.556 -0.323,-0.261 -0.472,-0.402 -0.768,-0.733 -0.335,-0.376 -0.433,-0.455 -0.628,-0.507 -0.06,-0.016 -0.394,-0.039 -0.742,-0.052 -0.38,-0.015 -0.688,-0.04 -0.775,-0.063 -0.196,-0.049 -0.396,-0.12 -0.435,-0.152 -0.018,-0.014 -0.08,-0.052 -0.138,-0.083 -0.154,-0.083 -0.419,-0.328 -0.613,-0.569 -0.093,-0.117 -0.295,-0.346 -0.448,-0.508 -0.433,-0.464 -0.674,-0.623 -0.976,-0.646 -0.213,-0.018 -0.413,0.041 -0.553,0.161 l -0.109,0.091 -0.06,-0.097 c -0.05,-0.081 -0.061,-0.134 -0.061,-0.308 0,-0.188 0.009,-0.222 0.079,-0.337 0.098,-0.159 0.317,-0.283 0.55,-0.309 0.434,-0.051 1.093,0.151 1.446,0.444 0.1,0.082 0.139,0.077 0.19,-0.023 0.087,-0.174 0.175,-0.26 0.34,-0.337 0.128,-0.061 0.168,-0.093 0.18,-0.146 0.062,-0.272 0.1,-0.342 0.275,-0.495 l 0.095,-0.083 -0.063,-0.228 c -0.034,-0.124 -0.095,-0.272 -0.135,-0.331 -0.104,-0.149 -0.376,-0.341 -0.549,-0.391 -0.081,-0.022 -0.182,-0.052 -0.227,-0.066 -0.133,-0.039 -0.564,-0.06 -0.623,-0.029 -0.046,0.026 -0.05,0.045 -0.036,0.192 0.019,0.187 -0.003,0.297 -0.08,0.395 -0.061,0.076 -0.204,0.123 -0.33,0.106 -0.277,-0.046 -0.492,-0.202 -0.626,-0.375 l -0.094,-0.113 c -0.096,-0.116 -0.114,-0.207 -0.059,-0.278 0.017,-0.023 0.102,-0.079 0.189,-0.126 0.175,-0.092 0.26,-0.202 0.234,-0.303 -0.02,-0.08 -0.071,-0.106 -0.249,-0.129 -0.127,-0.015 -0.159,-0.01 -0.293,0.062 -0.192,0.101 -0.292,0.119 -0.421,0.074 -0.078,-0.028 -0.117,-0.063 -0.162,-0.148 -0.034,-0.063 -0.06,-0.145 -0.06,-0.185 -0.022,-0.286 0.062,-0.697 0.13,-0.855 0.054,-0.108 0.117,-0.141 0.254,-0.135 0.113,0.004 0.179,0.039 0.322,0.178 0.094,0.091 0.135,0.114 0.194,0.107 0.103,-0.012 0.14,-0.117 0.083,-0.237 -0.034,-0.071 -0.076,-0.102 -0.207,-0.155 -0.187,-0.074 -0.251,-0.154 -0.253,-0.314 -0.002,-0.059 0.021,-0.144 0.054,-0.201 0.072,-0.149 0.323,-0.346 0.654,-0.405 0.226,-0.037 0.414,0.167 0.445,0.484 0.015,0.153 0.028,0.189 0.085,0.235 0.078,0.062 0.152,0.05 0.223,-0.034 0.037,-0.043 0.047,-0.093 0.044,-0.212 -0.009,-0.283 -0.004,-0.312 0.081,-0.399 0.144,-0.134 0.644,0.048 0.844,0.193 0.088,0.059 0.168,0.196 0.168,0.294 0,0.047 -0.035,0.172 -0.079,0.279 -0.094,0.237 -0.097,0.296 -0.015,0.391 0.053,0.06 0.073,0.068 0.111,0.045 0.091,-0.055 0.168,-0.238 0.187,-0.444 0.016,-0.162 0.031,-0.208 0.079,-0.247 0.086,-0.07 0.144,-0.064 0.118,0.01 -0.034,0.098 -0.025,0.285 0.022,0.448 0.024,0.086 0.045,0.233 0.045,0.328 0,0.164 0.034,0.321 0.079,0.372 0.012,0.012 0.038,-0.017 0.057,-0.065 0.029,-0.069 0.031,-0.143 0.012,-0.349 -0.026,-0.286 -0.003,-0.429 0.084,-0.537 0.06,-0.074 0.099,-0.046 0.058,0.044 -0.027,0.06 -0.017,0.097 0.091,0.314 0.118,0.239 0.122,0.256 0.134,0.532 0.006,0.156 0.019,0.285 0.029,0.285 0.01,0 0.039,-0.044 0.064,-0.097 0.034,-0.068 0.052,-0.179 0.06,-0.358 0.011,-0.234 0.02,-0.269 0.083,-0.35 0.115,-0.144 0.13,-0.131 0.114,0.086 -0.013,0.173 -0.007,0.212 0.051,0.334 0.136,0.291 0.226,0.539 0.255,0.706 0.048,0.276 0.089,0.208 0.094,-0.154 0.004,-0.342 0.046,-0.488 0.176,-0.619 0.089,-0.089 0.124,-0.088 0.101,0.004 -0.043,0.168 -0.02,0.327 0.081,0.539 0.153,0.321 0.227,0.53 0.252,0.716 0.054,0.374 0.05,0.362 0.118,0.379 0.211,0.053 0.382,-0.007 0.431,-0.152 0.019,-0.057 0.002,-0.108 -0.105,-0.301 -0.193,-0.35 -0.212,-0.422 -0.16,-0.61 0.032,-0.114 0.05,-0.12 0.102,-0.034 0.022,0.033 0.175,0.2 0.34,0.37 0.513,0.527 0.633,0.729 0.596,1 -0.028,0.206 -0.151,0.384 -0.524,0.764 -0.348,0.354 -0.45,0.486 -0.551,0.714 -0.287,0.638 0.116,1.048 1.088,1.108 0.171,0.011 0.399,0.004 0.565,-0.014 0.328,-0.034 0.717,-0.042 0.873,-0.015 l 0.11,0.018 0.052,-0.122 c 0.049,-0.114 0.218,-0.678 0.299,-1 0.019,-0.079 0.067,-0.265 0.105,-0.416 0.088,-0.346 0.106,-0.596 0.05,-0.704 -0.05,-0.095 -0.181,-0.18 -0.28,-0.18 -0.158,0 -0.372,0.188 -0.455,0.401 -0.028,0.071 -0.061,0.133 -0.073,0.137 -0.013,0.004 -0.049,-0.033 -0.082,-0.081 -0.099,-0.145 -0.074,-0.461 0.059,-0.717 0.058,-0.113 0.234,-0.301 0.363,-0.389 0.281,-0.191 0.702,-0.244 1.054,-0.131 0.167,0.054 0.218,0.086 0.353,0.22 0.087,0.087 0.174,0.186 0.197,0.222 l 0.04,0.063 0.192,-0.09 c 0.153,-0.07 0.234,-0.091 0.388,-0.098 0.197,-0.01 0.301,0.02 0.542,0.162 0.045,0.026 0.085,0.029 0.15,0.01 0.134,-0.037 0.354,0.02 0.554,0.14 0.094,0.059 0.192,0.123 0.217,0.145 0.062,0.055 0.099,0.015 0.174,-0.189 0.09,-0.242 0.078,-0.578 -0.033,-0.93 -0.125,-0.393 -0.332,-0.682 -0.624,-0.877 -0.145,-0.099 -0.173,-0.108 -0.287,-0.097 -0.157,0.015 -0.247,0.097 -0.327,0.299 -0.106,0.264 -0.133,0.315 -0.191,0.356 -0.085,0.06 -0.217,0.048 -0.358,-0.03 l -0.148,-0.081 c -0.22,-0.233 -0.591,-0.49 -0.64,-0.79 -0.013,-0.053 -0.001,-0.089 0.048,-0.147 0.055,-0.065 0.091,-0.081 0.228,-0.095 0.089,-0.011 0.182,-0.03 0.207,-0.043 0.133,-0.07 0.105,-0.235 -0.052,-0.3 -0.085,-0.036 -0.129,-0.037 -0.348,-0.009 -0.136,0.019 -0.277,0.027 -0.313,0.018 -0.108,-0.027 -0.203,-0.118 -0.204,-0.195 -0.008,-0.31 0.159,-0.681 0.301,-0.967 0.065,-0.129 0.135,-0.181 0.25,-0.181 0.062,0 0.134,0.071 0.365,0.367 0.172,0.219 0.288,0.306 0.371,0.272 0.069,-0.026 0.046,-0.156 -0.051,-0.284 -0.167,-0.219 -0.182,-0.322 -0.06,-0.442 0.205,-0.191 0.596,-0.358 0.865,-0.357 0.148,0.005 0.272,0.074 0.32,0.174 0.036,0.076 0.038,0.12 0.011,0.349 -0.033,0.285 -0.012,0.367 0.104,0.397 0.122,0.033 0.203,-0.091 0.203,-0.309 0,-0.227 0.051,-0.381 0.16,-0.482 0.101,-0.099 0.777,0.157 0.879,0.244 0.162,0.151 0.196,0.335 0.106,0.564 -0.029,0.073 -0.053,0.145 -0.053,0.158 0,0.015 0.051,0.049 0.114,0.075 0.072,0.032 0.134,0.082 0.172,0.145 0.056,0.09 0.059,0.111 0.037,0.334 -0.035,0.382 -0.028,0.526 0.028,0.589 0.121,0.133 0.257,-0.003 0.286,-0.286 0.02,-0.212 0.084,-0.379 0.174,-0.454 0.072,-0.061 0.17,-0.091 0.145,-0.046 -0.086,0.168 -0.103,0.238 -0.091,0.375 0.007,0.081 0.037,0.192 0.065,0.247 0.027,0.054 0.085,0.167 0.126,0.248 0.041,0.082 0.084,0.149 0.094,0.149 0.03,10e-4 0.065,-0.084 0.086,-0.206 0.009,-0.064 0.027,-0.135 0.038,-0.156 0.145,-0.312 0.234,-0.417 0.353,-0.417 0.075,0 0.076,-0.008 0.009,0.161 -0.072,0.183 -0.071,0.334 0.003,0.554 0.076,0.225 0.085,0.591 0.016,0.751 -0.094,0.222 -0.012,0.307 0.119,0.123 0.05,-0.072 0.083,-0.167 0.11,-0.327 0.022,-0.125 0.063,-0.277 0.09,-0.339 0.052,-0.116 0.154,-0.206 0.22,-0.192 0.034,0.009 0.034,0.023 0.001,0.114 -0.045,0.126 -0.05,0.417 -0.008,0.521 0.016,0.043 0.029,0.167 0.029,0.277 0.001,0.192 -0.006,0.215 -0.143,0.495 -0.168,0.34 -0.194,0.464 -0.132,0.625 0.074,0.194 0.185,0.245 0.348,0.162 0.135,-0.071 0.187,-0.217 0.209,-0.601 0.026,-0.393 0.08,-0.576 0.221,-0.725 0.051,-0.054 0.098,-0.09 0.105,-0.083 0.008,0.008 0.002,0.075 -0.013,0.147 -0.039,0.185 -0.036,0.45 0.009,0.553 0.019,0.047 0.075,0.214 0.123,0.371 0.067,0.223 0.087,0.332 0.087,0.495 0,0.19 -0.008,0.221 -0.086,0.351 -0.122,0.199 -0.259,0.291 -0.539,0.353 -0.246,0.055 -0.495,0.045 -0.667,-0.026 -0.082,-0.034 -0.158,-0.053 -0.17,-0.045 -0.011,0.009 -0.076,0.082 -0.143,0.162 -0.197,0.234 -0.358,0.329 -0.62,0.366 -0.216,0.031 -0.223,0.035 -0.35,0.165 -0.241,0.247 -0.588,0.391 -1.103,0.456 -0.123,0.017 -0.249,0.039 -0.281,0.052 -0.056,0.021 -0.057,0.027 -0.023,0.108 0.114,0.264 0.175,0.447 0.212,0.644 0.044,0.241 0.053,0.731 0.015,0.962 -0.013,0.079 -0.019,0.149 -0.012,0.156 0.016,0.016 0.209,-0.194 0.42,-0.455 0.5,-0.617 0.888,-1.004 1.179,-1.176 0.361,-0.214 0.676,-0.307 1.487,-0.447 0.519,-0.089 0.656,-0.137 0.75,-0.266 0.091,-0.122 0.118,-0.243 0.151,-0.646 0.036,-0.446 0.073,-0.551 0.219,-0.637 0.156,-0.092 0.176,-0.086 0.132,0.041 -0.069,0.194 -0.072,0.405 -0.014,0.778 0.098,0.613 0.069,0.906 -0.109,1.13 -0.099,0.126 -0.136,0.156 -0.342,0.276 -0.087,0.05 -0.158,0.104 -0.158,0.12 0,0.015 0.062,0.096 0.139,0.18 0.353,0.382 0.505,0.736 0.536,1.24 0.032,0.503 -0.211,1.103 -0.724,1.785 -0.233,0.311 -0.248,0.351 -0.212,0.599 0.034,0.235 0.076,0.32 0.23,0.461 0.275,0.254 0.591,0.203 0.797,-0.131 0.06,-0.096 0.079,-0.044 0.051,0.136 -0.057,0.361 -0.182,0.543 -0.457,0.672 -0.132,0.062 -0.184,0.071 -0.387,0.07 -0.198,-10e-4 -0.257,-0.013 -0.39,-0.073 -0.289,-0.133 -0.468,-0.375 -0.566,-0.766 -0.032,-0.131 -0.066,-0.238 -0.076,-0.239 -0.028,0 -0.146,0.249 -0.192,0.407 -0.09,0.307 -0.031,0.854 0.115,1.088 0.159,0.256 0.355,0.425 0.615,0.527 0.159,0.063 0.217,0.071 0.455,0.07 0.3,-0.002 0.417,-0.035 0.613,-0.166 0.063,-0.043 0.115,-0.067 0.115,-0.054 0,0.078 -0.178,0.3 -0.324,0.404 -0.566,0.403 -1.253,0.355 -1.925,-0.136 -0.196,-0.145 -0.298,-0.204 -0.298,-0.175 0,0.06 0.319,0.364 0.726,0.688 0.062,0.05 0.156,0.126 0.207,0.169 0.051,0.045 0.18,0.15 0.287,0.234 0.505,0.406 1.056,1.013 1.276,1.404 0.284,0.505 0.49,1.138 0.573,1.755 0.028,0.205 0.009,0.52 -0.031,0.52 -0.013,0 -0.022,-0.015 -0.022,-0.034 0,-0.092 -0.311,-0.803 -0.491,-1.123 -0.048,-0.086 -0.272,-0.409 -0.395,-0.572 -0.268,-0.353 -0.827,-0.912 -1.107,-1.106 -0.03,-0.021 -0.118,-0.086 -0.195,-0.144 -0.17,-0.128 -0.528,-0.309 -0.565,-0.286 -0.017,0.011 0.008,0.083 0.066,0.191 0.098,0.178 0.327,0.585 0.373,0.656 0.692,1.096 1.074,2.024 1.11,2.689 0.025,0.461 -0.076,0.933 -0.273,1.288 -0.136,0.243 -0.532,0.633 -0.812,0.799 -0.483,0.284 -0.813,0.374 -1.4,0.367"/><path id="path31" style="fill:#ff0000;fill-opacity:1;fill-rule:nonzero;stroke:none" d="m 11.7036,9.5654 c -0.1,-0.421 -0.13,-0.772 0.214,-1.049 0.005,0.283 0.063,0.522 0.231,0.821 -0.112,0.112 -0.286,0.219 -0.445,0.228"/><path id="path32" style="fill:#ff0000;fill-opacity:1;fill-rule:nonzero;stroke:none" d="m 21.5225,8.4287 c -0.001,-0.383 -0.032,-0.812 0.65,-1.19 -0.118,0.378 -0.183,0.683 -0.146,0.991 -0.158,0.13 -0.355,0.193 -0.504,0.199"/><path id="path33" style="fill:#ff0000;fill-opacity:1;fill-rule:nonzero;stroke:none" d="m 23.0859,7.585 c 0.103,0.199 0.148,0.455 0.112,0.697 0.206,0.157 0.45,0.187 0.61,0.15 -0.041,-0.37 -0.154,-0.648 -0.722,-0.847"/><path id="path34" style="fill:#ff0000;fill-opacity:1;fill-rule:nonzero;stroke:none" d="m 21.3271,11.1777 c -0.393,0.218 -0.672,0.372 -0.979,0.272 0.182,-0.223 0.371,-0.416 0.52,-0.79 0.249,0.148 0.427,0.319 0.459,0.518"/><path id="path35" style="fill:#ff0000;fill-opacity:1;fill-rule:nonzero;stroke:none" d="m 13.8618,9.4609 c -0.092,-0.439 -0.433,-0.749 -0.87,-0.846 0.162,0.261 0.274,0.463 0.285,0.706 0.16,0.086 0.366,0.157 0.585,0.14"/><path id="path36" style="fill:#ff0000;fill-opacity:1;fill-rule:nonzero;stroke:none" d="m 8.5508,27.1919 c 0.333,0.043 0.576,-0.114 0.833,-0.249 -0.088,-0.19 -0.216,-0.343 -0.373,-0.486 -0.099,0.299 -0.253,0.523 -0.46,0.735"/><path id="path37" style="fill:#ff0000;fill-opacity:1;fill-rule:nonzero;stroke:none" d="m 11.0762,11.123 c -0.348,-0.14 -0.632,-0.389 -0.815,-0.723 0.293,0.056 0.592,0.106 0.885,0.131 0.038,0.182 0.082,0.377 -0.07,0.592"/><path id="path38" style="fill:#ff0000;fill-opacity:1;fill-rule:nonzero;stroke:none" d="m 10.085,18.5791 c -0.195,0.347 -0.434,0.551 -0.827,0.526 0.145,-0.228 0.272,-0.396 0.304,-0.682 0.2,-0.193 0.475,0.021 0.523,0.156"/><path id="path39" style="fill:#ff0000;fill-opacity:1;fill-rule:nonzero;stroke:none" d="m 12.4741,12.6709 c -0.295,0.327 -0.649,0.472 -1.037,0.43 0.195,-0.24 0.415,-0.464 0.576,-0.738 0.292,0.116 0.347,0.209 0.461,0.308"/><path id="path40" style="fill:#ff0000;fill-opacity:1;fill-rule:nonzero;stroke:none" d="m 15.2622,24.376 c -0.491,0.479 -1.413,0.43 -1.776,0.889 -0.129,0.168 -0.187,0.33 -0.208,0.48 -0.119,0.846 1.3,1.178 1.258,0.193 -0.011,-0.155 -0.103,-0.278 -0.171,-0.413 0.38,-0.283 0.768,-0.556 0.897,-1.149"/><path id="path41" style="fill:#ff0000;fill-opacity:1;fill-rule:nonzero;stroke:none" d="m 12.3955,27.8257 c 0.146,-0.211 0.142,-0.544 0.061,-0.869 -0.084,-0.121 -0.54,0.232 -0.478,0.305 0.157,0.165 0.292,0.369 0.417,0.564"/><path id="path42" style="fill:#ff0000;fill-opacity:1;fill-rule:nonzero;stroke:none" d="m 10.0679,28.29 c 0.38,-0.043 0.643,-0.378 0.807,-0.731 -0.166,-0.113 -0.378,-0.139 -0.63,-0.032 0.011,0.318 -0.097,0.501 -0.177,0.763"/><path id="path43" style="fill:#ff0000;fill-opacity:1;fill-rule:nonzero;stroke:none" d="m 9.019,24.9722 c -0.25,0.01 -0.473,0.079 -0.68,0.253 -0.018,-0.58 0.43,-0.835 0.804,-0.789 0.009,0.155 -0.022,0.329 -0.124,0.536"/><path id="path44" style="fill:#ff0000;fill-opacity:1;fill-rule:nonzero;stroke:none" d="m 8.6543,17.3672 c -0.362,-0.098 -0.861,-0.252 -0.938,-0.599 0.334,0.075 0.644,0.072 0.94,0.013 0.077,0.169 0.057,0.36 -0.002,0.586"/><path id="path45" style="fill:#ff0000;fill-opacity:1;fill-rule:nonzero;stroke:none" d="m 8.7134,14.8926 c -0.142,0.434 -0.018,0.693 0.146,0.998 0.129,-0.063 0.276,-0.193 0.381,-0.363 -0.21,-0.191 -0.386,-0.392 -0.527,-0.635"/><path id="path46" style="fill:#ff0000;fill-opacity:1;fill-rule:nonzero;stroke:none" d="m 11.1895,15.501 c -0.084,-0.221 -0.236,-0.529 -0.919,-0.659 0.137,0.182 0.239,0.354 0.273,0.555 0.218,0.081 0.494,0.125 0.646,0.104"/><path id="path47" style="fill:#ff0000;fill-opacity:1;fill-rule:nonzero;stroke:none" d="m 20.293,9.5449 c -0.323,-0.298 -0.699,-0.612 -0.666,-1.057 0.26,0.286 0.582,0.382 0.907,0.435 -0.011,0.273 -0.104,0.452 -0.241,0.622"/></g></g></g></g></svg>