<svg xmlns:dc="http://purl.org/dc/elements/1.1/" xmlns:cc="http://creativecommons.org/ns#" xmlns:rdf="http://www.w3.org/1999/02/22-rdf-syntax-ns#" xmlns:svg="http://www.w3.org/2000/svg" xmlns="http://www.w3.org/2000/svg" viewBox="0 0 45 45" style="enable-background:new 0 0 45 45;" xml:space="preserve" version="1.1" id="svg2"><metadata id="metadata8"><rdf:RDF><cc:Work rdf:about=""><dc:format>image/svg+xml</dc:format><dc:type rdf:resource="http://purl.org/dc/dcmitype/StillImage"/></cc:Work></rdf:RDF></metadata><defs id="defs6"><clipPath id="clipPath16" clipPathUnits="userSpaceOnUse"><path id="path18" d="M 0,36 36,36 36,0 0,0 0,36 Z"/></clipPath></defs><g transform="matrix(1.25,0,0,-1.25,0,45)" id="g10"><g id="g12"><g xmlns="http://www.w3.org/2000/svg" clip-path="url(#clipPath16)" id="g14"><g id="g30"><path id="path20" style="fill:#00447b;fill-opacity:1;fill-rule:nonzero;stroke:none" d="m 32,5 c 2.209,0 4,1.791 4,4 l 0,18 c 0,2.209 -1.791,4 -4,4 L 4,31 C 1.791,31 0,29.209 0,27 L 0,9 C 0,6.791 1.791,5 4,5 l 28,0 z"/></g><g id="g34"><path id="path22" style="fill:#ffffff;fill-opacity:1;fill-rule:nonzero;stroke:none" d="m 18,8.2578 c -4.206,0 -7.093,1.23 -8.627,1.899 -1.058,0.46 -2.048,1.134 -2.073,1.216 -0.016,0.055 -0.021,0.118 0.003,0.236 0.024,0.118 0.179,0.577 0.176,0.647 -0.002,0.07 -0.138,0.206 -0.282,0.309 -0.144,0.103 -0.347,0.214 -0.347,0.214 0,0 0.147,0.203 0.247,0.375 0.119,0.204 0.197,0.455 0.227,0.884 0.03,0.442 0.164,0.468 0.164,0.468 0,0 0.017,-0.124 0.345,-0.358 0.211,-0.153 0.64,-0.351 0.991,-0.589 0.873,-0.594 0.935,-0.945 0.935,-0.945 L 9.61,12.1518 c 0,0 3.796,-2.027 8.39,-2.027 4.594,0 8.391,2.027 8.391,2.027 l -0.15,0.462 c 0,0 0.062,0.351 0.936,0.945 0.35,0.238 0.779,0.436 0.991,0.589 0.327,0.234 0.344,0.358 0.344,0.358 0,0 0.134,-0.026 0.165,-0.468 0.029,-0.429 0.106,-0.68 0.226,-0.884 0.1,-0.172 0.247,-0.375 0.247,-0.375 0,0 -0.203,-0.111 -0.347,-0.214 -0.144,-0.103 -0.28,-0.239 -0.282,-0.309 -0.003,-0.07 0.153,-0.529 0.176,-0.647 0.024,-0.118 0.02,-0.181 0.003,-0.236 -0.025,-0.082 -1.015,-0.756 -2.072,-1.216 C 25.093,9.4878 22.206,8.2578 18,8.2578"/></g><g id="g38"><path id="path30" style="fill:#fbbc54;fill-opacity:1;fill-rule:nonzero;stroke:none" d="m 22.8545,14.958 c 0.105,-0.583 -0.375,-1.812 -1.386,-2.343 -0.869,-0.456 -1.779,-1.24 -3.468,-1.24 -1.979,0 -2.443,0.594 -3.252,0.988 -1.521,0.741 -1.808,2.634 -1.394,2.929 0.414,0.294 2.546,0.574 4.5,0.574 4.563,0 4.875,-0.221 5,-0.908"/><path id="path31" style="fill:#5d2401;fill-opacity:1;fill-rule:nonzero;stroke:none" d="m 22.2646,15.2568 c 0.111,-0.225 -2.233,-2.101 -3.577,-2.101 -2.688,0 -4.828,1.579 -4.828,1.954 0,0.64 8.045,0.873 8.405,0.147"/><path id="path32" style="fill:#a5a5a9;fill-opacity:1;fill-rule:nonzero;stroke:none" d="m 21.541,16.2412 c 0,0 0.27,-2.504 -3.668,-2.163 -2.529,0.219 -3.255,2.426 -3.255,2.426 l 0.085,1.918 7.031,0 -0.193,-2.181 z"/><path id="path33" style="fill:#fefefe;fill-opacity:1;fill-rule:nonzero;stroke:none" d="m 14.6177,16.5039 c 0,0 -0.188,0.082 -0.172,0.521 0.015,0.44 -0.177,0.444 -0.052,0.832 0.126,0.388 0.091,0.522 0.091,0.522 l -0.208,-0.063 c 0,0 -0.032,-0.169 -0.283,-0.627 -0.251,-0.459 -0.427,-0.648 -0.427,-0.648 0,0 -0.294,0.027 -0.655,-0.008 -0.361,-0.035 -0.667,-0.093 -0.667,-0.093 0,0 -0.223,-0.224 -0.474,-0.416 -0.251,-0.193 -0.592,-0.314 -0.592,-0.314 0,0 -0.443,-0.848 -0.934,-1.11 -0.49,-0.263 -1.827,-0.106 -1.827,-0.106 0,0 1.52,1.959 3.004,5.74 1.485,3.782 1.122,5.463 2.337,5.407 0.882,-0.041 0.963,-1.372 1.383,-2.923 0.504,-1.856 1.018,-3.888 1.793,-3.753 1.118,0.194 0.938,2.551 0.938,2.551 0,0 -0.638,2.047 -0.576,3.515 0.063,1.469 0.361,2.441 1.642,2.141 1.184,-0.278 0.456,-2.101 0.738,-4.584 0.208,-1.834 0.339,-2.432 0.339,-2.432 0,0 0.45,2.532 0.778,3.797 0.328,1.266 0.409,1.891 1.175,1.891 1.096,0 0.52,-0.997 2.484,-5.235 1.159,-2.498 3.36,-5.522 3.36,-5.522 0,0 -0.281,-0.087 -1.047,-0.087 -0.766,0 -0.937,0 -1.201,0.312 -0.265,0.311 -0.606,0.964 -0.606,0.964 0,0 -0.235,0.071 -0.441,0.212 -0.206,0.142 -0.329,0.359 -0.329,0.359 0,0 -0.459,0.036 -0.901,0.177 -0.441,0.141 -0.587,0.059 -0.706,0.188 -0.117,0.129 -0.658,1.124 -0.658,1.124 0,0 0.012,-1.154 -0.071,-1.7 -0.082,-0.548 -0.312,-0.895 -0.312,-0.895 0,0 0.037,1.336 -0.939,1.336 -0.475,0 -0.609,-0.233 -1.325,-0.429 -0.473,-0.13 -1.404,-0.13 -1.878,-0.032 -0.823,0.172 -1.133,0.885 -1.581,0.885 -0.941,0 -1.2,-1.497 -1.2,-1.497"/><path id="path34" style="fill:#f79a2b;fill-opacity:1;fill-rule:nonzero;stroke:none" d="m 20.3525,17.4883 c 0,0 -0.17,0.474 -0.253,0.785 -0.082,0.312 -0.059,0.35 -0.126,0.397 -0.067,0.047 -0.106,0 -0.106,0 0,0 0.092,-0.034 0.179,-0.444 0.139,-0.647 0.064,-0.779 0.064,-0.779 0,0 -0.081,-0.003 -0.261,0.361 -0.179,0.365 -0.344,0.692 -0.344,0.692 0,0 -0.035,0.011 -0.085,0.011 -0.05,0 -0.091,-0.026 -0.091,-0.026 0,0 0.041,-0.068 0.094,-0.115 0.053,-0.047 0.367,-1.259 0.403,-1.444 0.035,-0.185 0.134,-0.267 0.134,-0.267 l 0.392,0.829 z"/><path id="path35" style="fill:#f79a2b;fill-opacity:1;fill-rule:nonzero;stroke:none" d="m 18.8037,17.0176 c 0,0 0.031,0.374 0.1,0.765 0.067,0.391 0.017,0.756 0.017,0.756 0,0 -0.138,0.041 -0.174,-0.277 -0.017,-0.158 -0.057,-0.447 -0.132,-0.685 -0.076,-0.242 -0.186,-0.429 -0.186,-0.429 l 0.375,-0.13 z"/><path id="path36" style="fill:#f79a2b;fill-opacity:1;fill-rule:nonzero;stroke:none" d="m 16.4077,16.4658 c 0,0 0.336,0.26 0.601,0.729 0.265,0.47 0.529,0.858 0.529,0.858 0,0 -0.073,0.121 -0.359,-0.291 -0.285,-0.412 -0.502,-0.512 -0.502,-0.512 0,0 0.203,0.353 0.426,0.618 0.224,0.265 0.345,0.335 0.345,0.335 0,0 0.008,0.133 -0.006,0.153 -0.015,0.021 -0.206,-0.091 -0.448,-0.45 -0.241,-0.359 -1.017,-0.724 -1.017,-0.724 l 0.431,-0.716 z"/><path id="path37" style="fill:#fefefe;fill-opacity:1;fill-rule:nonzero;stroke:none" d="m 22.8887,16.3145 -0.93,-0.338 0.315,-0.177 c 0,0 0.009,-0.093 -0.315,-0.185 -0.323,-0.091 -0.432,-0.194 -0.432,-0.194 0,0 0.665,-0.426 0.424,-1.132 -0.11,-0.319 -0.668,-0.777 -1.416,-0.536 -0.375,0.122 -0.099,0.565 -0.099,0.565 l -0.612,0.241 -0.347,-0.471 0.183,0.677 0.311,-0.035 -0.106,0.65 c 0,0 0.059,0.033 0.086,0.033 0.026,0 0.137,-0.012 0.137,-0.012 0,0 0.139,0.446 0.124,0.732 -0.014,0.286 -0.2,0.42 -0.2,0.42 0,0 -0.197,0.297 0.009,0.544 0.206,0.247 0.058,0.339 0.297,0.389 0.238,0.05 0.424,-0.588 0.406,-0.771 -0.018,-0.182 -0.121,-0.217 -0.082,-0.385 0.038,-0.167 0.158,-0.515 0.509,-0.521 0.349,-0.006 0.479,0.115 0.479,0.115 0,0 -0.068,0.018 -0.268,0.024 -0.2,0.006 -0.335,0.085 -0.335,0.085 0,0 0.032,0.124 0.311,0.112 0.28,-0.012 0.295,0.041 0.295,0.041 l 1.256,0.129 z"/><path id="path38" style="fill:#fefefe;fill-opacity:1;fill-rule:nonzero;stroke:none" d="m 13.7588,16.292 0.871,-0.129 c 0,0 -0.266,-0.09 -0.332,-0.122 -0.065,-0.031 -0.116,-0.094 -0.116,-0.094 0,0 0.063,-0.075 0.16,-0.106 0.139,-0.045 0.578,-0.111 0.578,-0.111 0,0 -0.101,-0.17 -0.281,-0.327 -0.235,-0.203 -0.398,-0.574 -0.203,-1.05 0.128,-0.312 0.668,-0.777 1.415,-0.536 0.375,0.121 0.446,0.61 0.446,0.61 l 0.249,0.969 -0.241,0.368 c 0,0 0.003,0.393 0.053,0.607 0.022,0.093 0.05,0.095 0.05,0.095 0,0 0.066,0.191 0.052,0.359 -0.022,0.245 0.092,0.517 0.092,0.517 l -0.575,-0.16 c 0,0 -0.058,-0.074 -0.08,-0.215 -0.023,-0.15 -0.012,-0.371 -0.025,-0.459 -0.033,-0.213 -0.32,-0.467 -0.32,-0.467 l -0.493,0.033 c 0,0 0.035,0.062 0.066,0.104 0.031,0.043 0.081,0.083 0.081,0.083 0,0 -0.45,0.056 -0.602,0.066 -0.667,0.045 -0.845,-0.035 -0.845,-0.035"/><path id="path39" style="fill:#fefefe;fill-opacity:1;fill-rule:nonzero;stroke:none" d="m 19.377,14.1377 -0.27,0.46 c 0,0 -0.062,-0.023 -0.091,-0.154 -0.03,-0.132 -0.119,-0.275 -0.119,-0.275 0,0 -0.002,-0.147 0.025,-0.27 0.027,-0.124 0.035,-0.222 -0.012,-0.41 -0.048,-0.189 -0.11,-0.287 -0.11,-0.287 0,0 -0.226,-0.046 -0.275,-0.046 -0.048,0 -0.29,0.152 -0.392,0.152 -0.102,0 -0.166,-0.125 -0.166,-0.125 0,0 -0.081,0.041 -0.149,0.057 -0.069,0.015 -0.442,0.236 -0.585,0.141 -0.188,-0.126 -0.317,-0.071 -0.317,-0.071 0,0 -0.082,0.177 -0.088,0.391 -0.006,0.213 0.041,0.254 0.041,0.254 0,0 0.056,0.207 0.05,0.404 -0.004,0.197 -0.074,0.511 -0.074,0.511 0,0 -0.031,0.015 -0.063,-0.066 -0.031,-0.08 -0.098,-0.172 -0.156,-0.212 -0.059,-0.039 -0.103,-0.098 -0.103,-0.098 l -0.154,-0.054 c 0,0 0.104,0.172 0.292,0.431 0.188,0.261 0.28,0.38 0.31,0.392 0.029,0.012 0.27,0.08 0.27,0.08 l -0.094,-0.796 c 0,0 0.083,0.524 0.124,0.659 0.041,0.135 0.061,0.131 0.351,0.292 0.29,0.161 0.374,0.341 0.366,0.6 -0.007,0.259 -0.013,0.428 0.1,0.657 0.114,0.23 0.3,0.333 0.341,0.393 0.042,0.058 0.053,0.047 0.053,0.047 l 0.234,-0.041 c 0,0 0.039,-0.085 0.088,-0.136 0.049,-0.051 0.045,-0.275 -0.012,-0.584 -0.057,-0.311 -0.253,-0.569 -0.253,-0.569 l -0.029,-0.253 c 0,0 0.097,-0.149 0.192,-0.267 0.094,-0.117 0.17,-0.111 0.168,-0.384 -0.002,-0.272 -0.101,-0.527 -0.109,-0.556 -0.008,-0.031 0.008,-0.099 0.008,-0.099 0,0 0.084,0.085 0.124,0.342 0.039,0.257 0.025,0.486 0.025,0.486 0,0 0.18,0.018 0.282,-0.332 0.102,-0.349 0.177,-0.664 0.177,-0.664"/><path id="path40" style="fill:#e9961a;fill-opacity:1;fill-rule:nonzero;stroke:none" d="m 18.3823,25.811 c 0,0 -0.7,-0.052 -0.535,-0.852 0.164,-0.8 0.408,-1.075 0.669,-1.665 0.69,-1.551 1.114,-4.014 1.114,-4.014 0,0 0.002,-0.04 -0.042,-0.101 -0.057,-0.08 -0.103,-0.097 -0.103,-0.097 0,0 0.116,-0.304 0.453,-0.044 0.379,0.293 0.086,1.579 -0.05,2.603 -0.243,1.836 -0.311,3.116 -0.311,3.116 0.15,0 0.243,0.261 0.3,0.408 0.055,0.146 0.158,0.038 0.152,0.429 -0.006,0.391 0.314,1.224 0.314,1.224 l -0.308,-0.459 0.115,0.691 -0.273,-0.547 0.077,0.9 -0.272,-0.553 -0.092,0.232 -0.061,-0.835 -0.174,0.65 -0.056,-0.6 -0.352,0.238 c 0,0 0.238,-0.664 0.259,-1.015 0,0 -0.049,-0.106 -0.346,-0.008 -0.298,0.098 -0.478,0.299 -0.478,0.299"/><path id="path41" style="fill:#241a01;fill-opacity:1;fill-rule:nonzero;stroke:none" d="m 18.875,25.811 c 0,0 0.092,-0.008 0.133,-0.061 0.041,-0.053 0.026,-0.153 0.026,-0.153 0,0 -0.094,-0.021 -0.149,0.051 -0.049,0.063 -0.01,0.163 -0.01,0.163"/><path id="path42" style="fill:#ff2a2a;fill-opacity:1;fill-rule:nonzero;stroke:none" d="m 18,17.9727 c 0,0 -0.241,-0.481 -0.067,-0.535 0.202,-0.064 0.067,0.535 0.067,0.535"/><path id="path43" style="fill:#ff2a2a;fill-opacity:1;fill-rule:nonzero;stroke:none" d="m 18.146,18.3511 c 0,0 -0.01,-0.538 0.171,-0.512 0.209,0.031 -0.171,0.512 -0.171,0.512"/><path id="path44" style="fill:#ff2a2a;fill-opacity:1;fill-rule:nonzero;stroke:none" d="m 17.9727,18.4707 c 0,0 -0.395,-0.365 -0.251,-0.478 0.167,-0.129 0.251,0.478 0.251,0.478"/></g></g></g></g></svg>