<svg xmlns:dc="http://purl.org/dc/elements/1.1/" xmlns:cc="http://creativecommons.org/ns#" xmlns:rdf="http://www.w3.org/1999/02/22-rdf-syntax-ns#" xmlns:svg="http://www.w3.org/2000/svg" xmlns="http://www.w3.org/2000/svg" viewBox="0 0 45 45" style="enable-background:new 0 0 45 45;" xml:space="preserve" version="1.1" id="svg2"><metadata id="metadata8"><rdf:RDF><cc:Work rdf:about=""><dc:format>image/svg+xml</dc:format><dc:type rdf:resource="http://purl.org/dc/dcmitype/StillImage"/></cc:Work></rdf:RDF></metadata><defs id="defs6"><clipPath id="clipPath16" clipPathUnits="userSpaceOnUse"><path id="path18" d="M 0,36 36,36 36,0 0,0 0,36 Z"/></clipPath></defs><g transform="matrix(1.25,0,0,-1.25,0,45)" id="g10"><g id="g12"><g xmlns="http://www.w3.org/2000/svg" clip-path="url(#clipPath16)" id="g14"><g id="g30"><path id="path20" style="fill:#0020a8" d="M 4,31 C 1.791,31 0,29.209 0,27 L 0,9 C 0,6.791 1.791,5 4,5 l 8,0 0,26 -8,0 z"/><path id="path21" style="fill:#fedf00" d="M 24,5 12,5 12,31 24,31 24,5 z"/><path id="path22" style="fill:#d01c3a" d="m 24,31 8,0 c 2.209,0 4,-1.791 4,-4 L 36,9 C 36,6.791 34.209,5 32,5 l -8,0 0,26 z"/></g><g id="g34"><path id="path30" style="fill:#ffffff" d="m 12.5938,18 c 0,2.986 2.42,5.406 5.406,5.406 2.987,0 5.407,-2.42 5.407,-5.406 0,-2.985 -2.42,-5.406 -5.407,-5.406 -2.986,0 -5.406,2.421 -5.406,5.406"/><path id="path31" style="fill:#af944f" d="m 21.25,18 c 0,-0.457 -0.094,-0.891 -0.264,-1.285 l -1.939,-0.001 c 0.056,0.254 0.17,0.598 0.406,0.956 0.283,0.432 0.546,0.682 0.734,0.821 C 20.841,18.253 21.25,18 21.25,18"/><path id="path32" style="fill:#008be0" d="m 19.2266,18.7676 c -0.35,-0.141 -0.876,-0.401 -1.427,-0.844 -0.565,-0.456 -0.802,-0.944 -0.896,-1.211 l -1.888,0 c 0.499,-1.154 1.647,-1.963 2.984,-1.963 1.339,0 2.489,0.81 2.987,1.965 l -2.24,-0.001 c 0.055,0.253 0.17,0.598 0.407,0.957 0.339,0.516 0.65,0.771 0.836,0.89 -0.232,0.077 -0.488,0.149 -0.763,0.207"/><path id="path33" style="fill:#4d473a" d="m 14.7505,18 c 0,1.376 0.855,2.552 2.063,3.026 l 2.374,0 c 1.208,-0.474 2.063,-1.65 2.063,-3.026 0,0 -1.455,0.9 -3.25,0.9 -1.795,0 -3.25,-0.9 -3.25,-0.9"/><path id="path34" style="fill:#ba690a" d="m 18.2261,13.5586 c 0,0 0.304,0.122 0.592,0.308 0.288,0.186 0.483,0.382 0.483,0.382 0,0 -0.018,-0.109 -0.041,-0.221 -0.024,-0.112 -0.071,-0.208 -0.071,-0.208 0,0 0.034,-0.039 0.17,-0.074 0.138,-0.036 0.232,-0.04 0.232,-0.04 0,0 -0.204,-0.161 -0.637,-0.221 -0.353,-0.05 -0.728,0.074 -0.728,0.074"/><path id="path35" style="fill:#ba690a" d="m 19.9863,14.0723 c 0,0 0.182,0.251 0.517,0.834 0.335,0.582 0.514,0.896 0.514,0.896 0,0 0.059,-0.258 0.088,-0.482 0.03,-0.224 0.048,-0.399 0.048,-0.399 0,0 0.173,-0.027 0.535,-0.015 0.361,0.012 0.55,0.067 0.55,0.067 0,0 -0.034,-0.251 -1.028,-0.697 -0.569,-0.255 -1.224,-0.204 -1.224,-0.204"/><path id="path36" style="fill:#ba690a" d="m 21.8447,15.7354 c 0,0 -0.438,0.086 -0.545,-0.278 -0.105,-0.366 0.228,-0.522 0.506,-0.181 0.132,0.161 0.039,0.459 0.039,0.459"/><path id="path37" style="fill:#ba690a" d="m 22.0098,16.1982 c 0,0 0.035,0.392 -0.02,0.858 -0.054,0.467 -0.188,0.883 -0.188,0.883 l 0.62,-0.4 c 0,0 0.149,0.075 0.306,0.223 0.157,0.149 0.259,0.294 0.259,0.294 0,0 0.167,-0.39 -0.154,-1.05 -0.243,-0.502 -0.823,-0.808 -0.823,-0.808"/><path id="path38" style="fill:#ba690a" d="m 22.2881,18.5156 c 0,0 -0.273,-0.239 -0.155,-0.516 0.117,-0.276 0.353,-0.292 0.423,0.018 0.083,0.368 -0.268,0.498 -0.268,0.498"/><path id="path39" style="fill:#ba690a" d="m 22.2852,18.9941 c 0,0 -0.241,0.288 -0.608,0.609 -0.369,0.32 -0.624,0.615 -0.624,0.615 0,0 0.132,-0.033 0.391,-0.039 0.259,-0.006 0.408,0.018 0.408,0.018 0,0 0.042,0.188 0.028,0.394 -0.016,0.206 -0.051,0.406 -0.051,0.406 0,0 0.449,-0.182 0.526,-0.947 0.066,-0.641 -0.07,-1.056 -0.07,-1.056"/><path id="path40" style="fill:#ba690a" d="m 21.1973,21.0293 c 0,0 -0.168,-0.335 0.183,-0.579 0.349,-0.244 0.399,0.079 0.296,0.308 -0.103,0.23 -0.479,0.271 -0.479,0.271"/><path id="path41" style="fill:#ba690a" d="m 19.4551,21.5234 c 0,0 0.321,-0.106 0.695,-0.227 0.373,-0.12 0.739,-0.211 0.739,-0.211 0,0 0.008,0.317 -0.239,0.691 -0.247,0.373 -0.674,0.606 -0.674,0.606 0,0 0.054,-0.127 0.106,-0.377 0.052,-0.249 0.045,-0.344 0.045,-0.344 0,0 -0.049,-0.025 -0.283,-0.073 -0.235,-0.048 -0.389,-0.065 -0.389,-0.065"/><path id="path42" style="fill:#ba690a" d="m 19.3691,22.1592 c 0,0 0.058,-0.459 0.305,-0.464 0.246,-0.005 0.343,0.064 0.196,0.357 -0.084,0.167 -0.501,0.107 -0.501,0.107"/><path id="path43" style="fill:#603726" d="m 21.2568,15.7959 c -0.012,0 -0.022,0.003 -0.033,0.009 -0.034,0.018 -0.047,0.06 -0.029,0.095 l 0.473,0.88 c 0.019,0.036 0.061,0.048 0.095,0.029 0.034,-0.019 0.047,-0.061 0.028,-0.095 l -0.472,-0.881 c -0.013,-0.023 -0.038,-0.037 -0.062,-0.037"/><path id="path44" style="fill:#603726" d="m 22.2148,15.3867 c -0.011,0 -0.022,0.003 -0.032,0.008 -0.034,0.018 -0.048,0.06 -0.03,0.095 l 0.428,0.822 c 0.018,0.034 0.062,0.047 0.095,0.03 0.034,-0.018 0.048,-0.06 0.03,-0.095 l -0.429,-0.822 c -0.012,-0.024 -0.037,-0.038 -0.062,-0.038"/><path id="path45" style="fill:#603726" d="m 21.8984,18.335 c -0.032,0 -0.062,0.022 -0.068,0.056 l -0.19,0.912 c -0.008,0.037 0.017,0.074 0.054,0.082 0.036,0.01 0.074,-0.015 0.083,-0.054 l 0.189,-0.912 c 0.008,-0.038 -0.016,-0.075 -0.053,-0.083 -0.005,-10e-4 -0.01,-10e-4 -0.015,-10e-4"/><path id="path46" style="fill:#603726" d="m 22.7822,18.5229 c -0.033,0 -0.062,0.023 -0.069,0.058 l -0.174,0.977 c -0.007,0.038 0.018,0.074 0.056,0.081 0.048,0.008 0.076,-0.019 0.083,-0.057 l 0.173,-0.977 c 0.007,-0.038 -0.018,-0.074 -0.056,-0.081 -0.005,-0.001 -0.009,-0.001 -0.013,-0.001"/><path id="path47" style="fill:#603726" d="m 21.0166,20.3794 c -0.018,0 -0.035,0.006 -0.049,0.02 l -0.659,0.648 c -0.027,0.027 -0.028,0.071 -10e-4,0.099 0.026,0.027 0.07,0.029 0.099,0.001 l 0.659,-0.648 c 0.027,-0.027 0.028,-0.072 0.001,-0.099 -0.014,-0.014 -0.031,-0.021 -0.05,-0.021"/><path id="path48" style="fill:#603726" d="m 21.668,20.9961 c -0.018,0 -0.034,0.006 -0.048,0.019 l -0.651,0.618 c -0.029,0.027 -0.03,0.071 -0.003,0.099 0.026,0.028 0.07,0.029 0.098,0.003 l 0.652,-0.618 c 0.028,-0.027 0.029,-0.071 0.003,-0.1 -0.014,-0.014 -0.032,-0.021 -0.051,-0.021"/><path id="path49" style="fill:#31a52e" d="m 17.7744,13.5586 c 0,0 -0.304,0.122 -0.592,0.308 -0.288,0.186 -0.482,0.382 -0.482,0.382 0,0 0.017,-0.109 0.041,-0.221 0.023,-0.112 0.07,-0.208 0.07,-0.208 0,0 -0.033,-0.039 -0.17,-0.074 -0.138,-0.036 -0.232,-0.04 -0.232,-0.04 0,0 0.204,-0.161 0.637,-0.221 0.353,-0.05 0.728,0.074 0.728,0.074"/><path id="path50" style="fill:#31a52e" d="m 16.1279,14.0703 c 0,0 -0.81,-0.172 -1.36,0.062 -0.733,0.312 -0.541,1.05 -0.541,1.05 l 0.564,0.474 c 0,0 0.539,0.067 0.9,-0.462 0.303,-0.444 0.437,-1.124 0.437,-1.124"/><path id="path51" style="fill:#31a52e" d="m 13.894,16.2061 c 0,0 -0.505,0.206 -0.7,0.724 -0.268,0.711 0.088,1.173 0.088,1.173 l 0.741,0.053 c 0,0 0.506,-0.261 0.418,-0.975 -0.079,-0.643 -0.547,-0.975 -0.547,-0.975"/><path id="path52" style="fill:#31a52e" d="m 13.8267,18.9854 c 0,0 -0.338,0.435 -0.25,0.991 0.088,0.556 0.711,0.829 0.711,0.829 l 0.545,-0.446 c 0,0 0.084,-0.475 -0.151,-0.839 -0.282,-0.438 -0.855,-0.535 -0.855,-0.535"/><path id="path53" style="fill:#31a52e" d="m 15.144,21.103 c 0,0 0.088,0.615 0.359,0.891 0.27,0.276 0.756,0.282 0.756,0.282 l 0.323,-0.479 c 0,0 -0.195,-0.441 -0.444,-0.579 -0.373,-0.209 -0.994,-0.115 -0.994,-0.115"/><path id="path54" style="fill:#994a52" d="m 16.9014,22.1416 c 0,0.098 -0.079,0.177 -0.177,0.177 -0.098,0 -0.177,-0.079 -0.177,-0.177 0,-0.098 0.079,-0.178 0.177,-0.178 0.098,0 0.177,0.08 0.177,0.178"/><path id="path55" style="fill:#994a52" d="m 14.665,21.0728 c 0,0.107 -0.087,0.194 -0.194,0.194 -0.107,0 -0.193,-0.087 -0.193,-0.194 0,-0.107 0.086,-0.194 0.193,-0.194 0.107,0 0.194,0.087 0.194,0.194"/><path id="path56" style="fill:#994a52" d="m 15.1924,20.5747 c 0,0.107 -0.087,0.194 -0.194,0.194 -0.107,0 -0.193,-0.087 -0.193,-0.194 0,-0.107 0.086,-0.194 0.193,-0.194 0.107,0 0.194,0.087 0.194,0.194"/><path id="path57" style="fill:#994a52" d="m 13.4746,18.6689 c 0,0.107 -0.086,0.193 -0.193,0.193 -0.107,0 -0.194,-0.086 -0.194,-0.193 0,-0.107 0.087,-0.194 0.194,-0.194 0.107,0 0.193,0.087 0.193,0.194"/><path id="path58" style="fill:#994a52" d="m 14.3159,18.4751 c 0,0.107 -0.087,0.194 -0.194,0.194 -0.107,0 -0.193,-0.087 -0.193,-0.194 0,-0.107 0.086,-0.193 0.193,-0.193 0.107,0 0.194,0.086 0.194,0.193"/><path id="path59" style="fill:#994a52" d="m 13.9922,15.6572 c 0,0.107 -0.086,0.194 -0.193,0.194 -0.107,0 -0.194,-0.087 -0.194,-0.194 0,-0.106 0.087,-0.193 0.194,-0.193 0.107,0 0.193,0.087 0.193,0.193"/><path id="path60" style="fill:#994a52" d="m 14.7983,16.0107 c 0,0.106 -0.087,0.193 -0.194,0.193 -0.107,0 -0.193,-0.087 -0.193,-0.193 0,-0.107 0.086,-0.194 0.193,-0.194 0.107,0 0.194,0.087 0.194,0.194"/></g></g></g></g></svg>