<svg xmlns:dc="http://purl.org/dc/elements/1.1/" xmlns:cc="http://creativecommons.org/ns#" xmlns:rdf="http://www.w3.org/1999/02/22-rdf-syntax-ns#" xmlns:svg="http://www.w3.org/2000/svg" xmlns="http://www.w3.org/2000/svg" viewBox="0 0 45 45" style="enable-background:new 0 0 45 45;" xml:space="preserve" version="1.1" id="svg2"><metadata id="metadata8"><rdf:RDF><cc:Work rdf:about=""><dc:format>image/svg+xml</dc:format><dc:type rdf:resource="http://purl.org/dc/dcmitype/StillImage"/></cc:Work></rdf:RDF></metadata><defs id="defs6"><clipPath id="clipPath16" clipPathUnits="userSpaceOnUse"><path id="path18" d="M 0,36 36,36 36,0 0,0 0,36 Z"/></clipPath></defs><g transform="matrix(1.25,0,0,-1.25,0,45)" id="g10"><g id="g12"><g clip-path="url(#clipPath16)" id="g14"><g id="g20"><path id="path22" style="fill:#da121a;fill-opacity:1;fill-rule:nonzero;stroke:none" d="M 0,13.669 V 9 C 0,6.791 1.791,5 4,5 h 28 c 2.209,0 4,1.791 4,4 v 4.669 z"/></g><g id="g24"><path id="path26" style="fill:#fcdd09;fill-opacity:1;fill-rule:nonzero;stroke:none" d="m 0,13.6691 h 36 v 8.663 H 0 Z"/></g><g id="g28"><path id="path30" style="fill:#89c5e3;fill-opacity:1;fill-rule:nonzero;stroke:none" d="M 32,31.0001 H 4 c -2.209,0 -4,-1.791 -4,-4 v -4.668 h 36 v 4.668 c 0,2.209 -1.791,4 -4,4"/></g><g id="g32"><path id="path40" style="fill:#141414;fill-opacity:1;fill-rule:nonzero;stroke:none" d="m 23.9795,18.0001 c 0,3.302 -2.678,5.979 -5.979,5.979 -3.303,0 -5.979,-2.677 -5.979,-5.979 0,-3.302 2.676,-5.979 5.979,-5.979 3.301,0 5.979,2.677 5.979,5.979"/><path id="path41" style="fill:#ea1c24;fill-opacity:1;fill-rule:nonzero;stroke:none" d="m 23.708,18.0001 c 0,3.153 -2.556,5.708 -5.708,5.708 -3.153,0 -5.709,-2.555 -5.709,-5.708 0,-3.152 2.556,-5.708 5.709,-5.708 3.152,0 5.708,2.556 5.708,5.708"/><path id="path42" style="fill:#e5e5e5;fill-opacity:1;fill-rule:nonzero;stroke:none" d="m 23.5205,18.0001 c 0,3.049 -2.472,5.521 -5.521,5.521 -3.048,0 -5.521,-2.472 -5.521,-5.521 0,-3.049 2.473,-5.521 5.521,-5.521 3.049,0 5.521,2.472 5.521,5.521"/><path id="path43" style="fill:#eac102;fill-opacity:1;fill-rule:nonzero;stroke:none" d="m 19.3223,15.4151 c 0,0 0.086,-0.074 0.19,-0.184 0.104,-0.109 0.146,-0.17 0.146,-0.17 0,0 -0.014,-0.101 -0.044,-0.191 -0.033,-0.095 -0.01,-0.175 0.031,-0.216 0.084,-0.082 0.219,-0.024 0.219,-0.024 0,0 0.053,-0.033 0.146,-0.019 0.094,0.014 0.112,0.106 0.112,0.106 0,0 -0.011,0.019 -0.049,0.054 -0.039,0.037 -0.081,0.067 -0.081,0.067 0,0 0.023,-0.015 0.09,-0.043 0.066,-0.028 0.093,-0.035 0.093,-0.035 0,0 0.213,0.05 0.02,0.203 -0.186,0.145 -0.354,0.197 -0.354,0.197 0,0 -0.059,0.053 -0.164,0.168 -0.103,0.115 -0.141,0.172 -0.141,0.172 -0.051,-0.04 -0.121,-0.076 -0.214,-0.085"/><path id="path44" style="fill:#eac102;fill-opacity:1;fill-rule:nonzero;stroke:none" d="m 16.5664,15.4903 c 0,0 -0.038,-0.057 -0.142,-0.172 -0.103,-0.115 -0.162,-0.169 -0.162,-0.169 0,0 -0.17,-0.051 -0.355,-0.197 -0.194,-0.152 0.021,-0.203 0.021,-0.203 0,0 0.026,0.008 0.093,0.036 0.066,0.028 0.089,0.042 0.089,0.042 0,0 -0.042,-0.029 -0.081,-0.066 -0.038,-0.036 -0.048,-0.054 -0.048,-0.054 0,0 0.017,-0.092 0.111,-0.107 0.094,-0.013 0.147,0.02 0.147,0.02 0,0 0.134,-0.059 0.219,0.024 0.041,0.041 0.064,0.12 0.031,0.216 -0.031,0.09 -0.044,0.191 -0.044,0.191 0,0 0.041,0.06 0.145,0.17 0.104,0.11 0.196,0.192 0.196,0.192 -0.095,0.006 -0.167,0.038 -0.22,0.077"/><path id="path45" style="fill:#eac102;fill-opacity:1;fill-rule:nonzero;stroke:none" d="m 17.5264,20.4147 c 0,0 0.312,-0.156 0.312,-0.365 0,-0.152 -0.206,-0.256 -0.206,-0.256 0,0 -0.04,0.105 -0.238,0.206 -0.186,0.096 -0.224,0.047 -0.224,0.047 0,0 -0.058,0.017 -0.047,0.152 0.008,0.095 0.069,0.189 0.208,0.186 0.154,-0.004 0.195,0.03 0.195,0.03"/><path id="path46" style="fill:#141414;fill-opacity:1;fill-rule:nonzero;stroke:none" d="m 18,13.9884 c 0,0 -0.075,0.076 -0.124,0.19 -0.048,0.114 -0.058,0.184 -0.058,0.184 0,0 -0.011,-0.025 -0.032,-0.058 -0.021,-0.031 -0.039,-0.047 -0.039,-0.047 0,0 -0.018,0.095 -0.012,0.19 0.006,0.094 0.018,0.233 0.018,0.233 0,0 -0.037,-0.098 -0.088,-0.182 -0.051,-0.084 -0.102,-0.138 -0.102,-0.138 0,0 -0.005,0.097 0.001,0.219 0.007,0.122 0.022,0.217 0.022,0.217 0,0 -0.044,-0.076 -0.127,-0.183 -0.084,-0.106 -0.124,-0.139 -0.124,-0.139 0,0 -0.046,0.463 0.175,0.867 0.257,0.468 0.231,0.709 0.231,0.709 0,0 -0.01,0.015 -0.021,0.039 -0.011,0.024 -0.017,0.041 -0.017,0.041 0,0 -0.088,-0.054 -0.198,-0.204 -0.132,-0.179 -0.118,-0.368 -0.118,-0.368 0,0 -0.056,0.027 -0.082,0.118 -0.027,0.091 -0.003,0.185 -0.003,0.185 0,0 -0.103,-0.399 -0.418,-0.443 -0.315,-0.045 -0.438,0.209 -0.438,0.209 0,0 0.408,-0.18 0.773,1.026 0.218,0.718 0.177,1.011 0.177,1.011 0,0 -0.174,-0.032 -0.26,0.051 -0.085,0.082 -0.073,0.196 -0.073,0.196 0,0 -0.564,-0.147 -1.799,-0.258 -1.236,-0.112 -2.383,0 -2.383,0 0,0 1.091,1.294 2.139,1.853 1.046,0.559 2.057,0.471 2.179,0.206 0.179,-0.391 -0.297,-0.565 -0.188,-0.777 0.075,-0.148 0.37,-0.159 0.37,-0.159 0,0 0.196,0.118 0.248,0.48 0.053,0.361 0.003,0.538 0.003,0.538 0,0 0.206,0.103 0.206,0.256 0,0.209 -0.312,0.364 -0.312,0.364 0,0 0.051,0.209 0.374,0.144 0.104,-0.02 0.121,0.013 0.279,-0.032 0.159,-0.044 0.162,-0.097 0.265,-0.097 0.103,0 0.221,0.065 0.221,0.065 0,0 0.006,-0.077 -0.057,-0.203 -0.061,-0.127 -0.182,-0.124 -0.182,-0.124 0,0 -0.047,-0.326 0.039,-0.747 0.085,-0.42 0.244,-0.644 0.244,-0.644 0,0 0.345,0.011 0.421,0.159 0.108,0.212 -0.368,0.386 -0.189,0.777 0.121,0.265 1.082,0.353 2.129,-0.206 1.047,-0.559 2.189,-1.853 2.189,-1.853 0,0 -1.148,-0.112 -2.382,0 -1.235,0.111 -1.83,0.258 -1.83,0.258 0,0 0.012,-0.114 -0.073,-0.196 -0.085,-0.083 -0.28,-0.051 -0.28,-0.051 0,0 -0.041,-0.293 0.176,-1.011 0.365,-1.206 0.775,-1.026 0.775,-1.026 0,0 -0.124,-0.254 -0.439,-0.209 -0.314,0.044 -0.418,0.443 -0.418,0.443 0,0 0.024,-0.094 -0.003,-0.185 -0.026,-0.091 -0.082,-0.118 -0.082,-0.118 0,0 0.015,0.189 -0.118,0.368 -0.11,0.15 -0.194,0.173 -0.194,0.173 0,0 -0.009,-0.029 -0.037,-0.067 -0.042,-0.06 -0.089,-0.069 -0.089,-0.069 0,0 -0.032,-0.154 0.225,-0.622 0.222,-0.404 0.175,-0.867 0.175,-0.867 0,0 -0.04,0.033 -0.124,0.139 -0.083,0.107 -0.127,0.183 -0.127,0.183 0,0 0.015,-0.095 0.022,-0.217 0.006,-0.122 0.001,-0.219 0.001,-0.219 0,0 -0.051,0.054 -0.102,0.138 -0.051,0.084 -0.088,0.182 -0.088,0.182 0,0 0.012,-0.139 0.018,-0.233 0.006,-0.095 -0.012,-0.19 -0.012,-0.19 0,0 -0.018,0.016 -0.039,0.047 -0.021,0.033 -0.032,0.058 -0.032,0.058 0,0 -0.01,-0.07 -0.058,-0.184 C 18.075,14.0644 18,13.9884 18,13.9884"/><path id="path47" style="fill:#ea1c24;fill-opacity:1;fill-rule:nonzero;stroke:none" d="m 20.8359,16.3302 c -0.165,-0.011 -0.357,-0.119 -0.445,-0.306 -0.105,-0.222 0.066,-0.492 0.322,-0.577 0.255,-0.085 0.525,0.037 0.602,0.271 0.064,0.191 -0.047,0.414 -0.208,0.527 0,0 0.012,0.016 0.04,0.025 0.028,0.009 0.062,0.008 0.062,0.008 0,0 -0.125,0.115 -0.201,0.147 -0.076,0.031 -0.274,0.034 -0.274,0.034 0,0 0.048,-0.031 0.071,-0.056 0.033,-0.036 0.031,-0.073 0.031,-0.073"/><path id="path48" style="fill:#969696;fill-opacity:1;fill-rule:nonzero;stroke:none" d="m 15.8901,15.0509 0.157,0.116 c 0,0 -0.325,0.151 -1.001,0.935 -0.592,0.687 -1.001,1.345 -1.001,1.345 0,0 0.255,-0.762 0.882,-1.494 0.608,-0.708 0.963,-0.902 0.963,-0.902"/><path id="path49" style="fill:#ea1c24;fill-opacity:1;fill-rule:nonzero;stroke:none" d="m 17.2158,21.1173 c 0,0 0.045,0.25 0.18,0.452 0.134,0.201 0.395,0.401 0.395,0.401 0,0 -0.369,0.052 -0.369,0.195 0,0.144 0.295,0.293 0.633,0.293 0.734,0 0.817,-0.772 0.817,-0.772 l 0.009,-0.569 c 0,0 -0.426,-0.195 -0.832,-0.195 -0.394,0 -0.833,0.195 -0.833,0.195"/></g></g></g></g></svg>