<svg xmlns="http://www.w3.org/2000/svg" viewBox="0 0 45 45"><path fill="#7602ab" d="m 45,33.75 c 0,2.76125 -2.23875,5 -5,5 H 5 c -2.76125,0 -5,-2.23875 -5,-5 v -22.5 c 0,-2.76125 2.23875,-5 5,-5 h 35 c 2.76125,0 5,2.23875 5,5 z"/><path fill="#eeee00" d="m 18.654875,13.731375 h -2.34625 v -2.3475 h 2.34625 z m -2.04625,-0.29875 h 1.7475 v -1.7475 h -1.7475 z m 2.72125,-1.1225 v -1.6 h -3.69 v 1.6 h -1.34 v -1.6 h -3.69 v 1.6 h -1.33 v -1.6 h -3.69 v 1.6 h -1.11 v 11.98 c 0,8.56 7.86,10.59 7.94,10.61 h 0.07 c 0.08,-0.02 7.95,-2.05 7.95,-10.61 v -11.98 z m -3.39,-1.3 h 3.09 v 3.09 h -3.09 z m 1.39,3.39 v 0.36 h -2.21 v -0.93 h 0.52 v 0.57 z m 2.19,0.66 v 9.26 c 0,6.84 -6.45,9.26 -7.06,9.47 -0.61,-0.21 -7.07,-2.63 -7.07,-9.47 v -9.26 z m -5.22,-2.45 h 1.34 v 0.92 h -1.34 z m 0,1.22 h 0.52 v 0.93 h -2.21 v -0.36 h 1.69 z m -3.39,-2.82 h 3.09 v 3.09 h -3.09 z m 1.4,3.39 v 0.36 h -2.21 v -0.93 h 0.51 v 0.57 z m -3.03,-1.79 h 1.33 v 0.92 h -1.33 z m 0,1.22 h 0.52 v 0.93 h -2.22 v -0.36 h 1.7 z m -3.39,-2.82 h 3.09 v 3.09 h -3.09 z m 14.25,13.28 c 0,8.03 -7.11,10.15 -7.68,10.3 -0.57,-0.15 -7.69,-2.26 -7.69,-10.3 v -11.68 h 0.82 v 1.79 h 1.69 v 0.36 h -2.19 v 9.56 c 0,7.36 7.25,9.75 7.32,9.77 l 0.05,0.02 0.04,-0.02 c 0.08,-0.02 7.32,-2.41 7.32,-9.77 v -9.56 h -2.19 v -0.36 h 1.7 v -1.79 h 0.81 z m -8.86,-12.91 v 2.35 h 2.35 v -2.35 z m 2.05,2.05 h -1.75 v -1.75 h 1.75 z m -4.72125,0.30125 h -2.3475 v -2.3475 h 2.3475 z m -2.0475,-0.29875 h 1.7475 v -1.7475 h -1.7475 z"/><path fill="#eeee00" d="m 10.776125,17.278875 -1.62375,0.945 -0.16375,-0.18125 0.25375,-0.33625 -0.4625,0.10375 -0.38,-0.42125 1.2825,-1.09375 1.05875,-0.14125 1.1525,1.7175 2.2475,-0.82375 1.17625,0.365 v -0.65875 l -0.94125,-0.27 -1.3525,0.81125 -1.22375,-0.10625 -0.38875,-0.635 0.4,-0.33 0.87,0.635 1.6175,-0.82375 1.44125,0.62375 -0.10125,1 0.18375,0.45875 -0.09375,0.93 c 0,0 0.81125,1.1175 0.77625,1.1175 -0.035,0 -1.69375,0.6 -1.69375,0.6 l 0.1175,-0.57625 0.4825,-0.33 -0.8825,-0.6825 -0.53,0.81125 0.30625,0.62375 -1.14125,0.1525 -0.365,-0.77625 0.7175,-0.07 -0.17625,-1.4475 -1.1175,0.81125 -0.4475,1.4825 -1.46375,-0.39 0.335,-0.58625 -0.85875,0.05875 -0.05875,0.4 -1.01125,0.13 -0.7175,-0.7175 0.61125,-0.37625 0.5525,0.235 0.28875,-1.27 0.77,-0.14125 0.5175,-0.4825 0.14125,0.5175 0.2,-0.4 z m 4.09,0.47375 0.125,0.36125 -0.25875,0.6275 0.54875,0.165 0.1175,-0.8475 z m -2.47,0.48625 -0.03875,0.36875 1.24625,-0.65875 0.03125,-0.19625 z m -2.77625,0.43125 0.33,0.47 0.09375,-0.47 -0.25875,-0.25125 z m 1.9375,-0.25 -0.22,0.30625 0.3525,0.41625 0.2975,-0.47 z m -1.16875,0.235 -0.07875,0.60375 h 0.21125 z m -0.5175,-2.04 -0.14125,0.22 0.37,0.08625 0.11625,-0.19625 z m -0.3775,0.6 0.20375,0.1925 h 0.4025 l 0.11625,-0.2275 h -0.38375 l -0.2825,-0.15625 z m 4.75375,0.38125 -0.07875,0.36875 0.2975,-0.0475 0.08625,-0.32125 z m -0.40875,1.2075 -0.0625,0.19625 0.2275,0.07 0.07875,-0.165 z m -2.87,-0.32125 -0.18,0.4 0.235,0.43125 -0.07875,-0.41625 z"/><path fill="#eeee00" d="m 17.882375,20.765125 -0.29375,1.38875 0.365,0.42375 -0.09375,1.21125 0.70625,0.41125 -0.2,0.8825 0.27,0.6825 -1.0475,0.33 -0.49375,0.67 -0.9175,-0.74125 0.53,-0.67 0.7525,-0.10625 0.165,-0.45875 -0.87,-0.14125 -0.57625,-0.57625 -0.4025,0.7525 v 0.4825 l -0.33,0.6 -1.27,0.13 -0.67,0.30625 -0.4825,-0.98875 0.85875,-0.53 0.82375,0.09375 0.3175,-0.57625 -0.17625,-0.74125 -1.89375,1.54125 -1.06,0.1525 v 0.67 l -2.6,0.4475 -0.0825,0.54125 c 0,0 -0.98875,-0.4475 -1.02375,-0.53 -0.035,-0.0825 -0.47,-0.81125 -0.47,-0.81125 l 0.5525,-0.4825 0.5175,0.4825 0.53,-0.21125 -0.965,-0.635 -1.165,-0.5175 -0.57625,0.4825 -0.2825,-0.97625 -0.62375,-0.635 0.65875,-0.87 0.97625,0.8825 0.87,0.22375 0.14125,-1.25875 -0.635,-1.0475 0.565,-0.50625 0.49375,0.22375 0.82375,-0.22375 0.8825,0.22375 0.5175,-0.09375 0.4,0.5175 -0.50625,0.4825 1.9025,1.135 1.5775,-0.165 -0.10875,-0.5625 -1.235,0.515 -1.28125,-0.71875 0.50375,-0.96875 0.62125,0.0625 0.07875,0.84375 1.5,-0.375 1.7725,-0.89625 1.105,0.39625 0.2325,-0.39625 z m -0.675,1.14125 -0.7,-0.77625 -1.18875,0.25875 -0.49375,0.9525 1.29375,-0.60625 z m -7.14875,3.5725 0.07875,0.22 1.05875,-0.26625 0.14125,-0.37625 -0.31375,-0.07875 z m 1.02375,-3.1375 v 0.6475 h 0.38875 l 0.58875,0.41125 -0.3175,1.34125 1.2125,-0.0475 0.3175,-0.65875 -0.05875,-0.57625 0.49375,0.34125 0.8475,-0.6 1.29375,-0.1525 0.16875,-0.43875 0.3725,0.675 0.61125,-0.64375 -0.15,1.30875 0.35625,0.1725 0.3575,-1.23875 -0.98875,-0.70625 -0.82375,0.0625 -1.91375,1.01125 -1.53,-0.0625 z m 4.27,1.34125 0.14125,0.565 0.34125,-0.2825 z m 2.70625,0.82375 -0.05875,-0.25875 -0.3175,-0.0825 -0.1175,0.26 z m -8.89375,-1.15375 v 0.17125 h 1.07 v -0.17 h -1.07 z m -0.135,-2.25875 0.57,0.39375 0.665,-0.39375 -0.565,-0.20625 z m -0.32375,0.65375 0.3525,0.1 0.1475,0.38875 0.18875,-0.29375 -0.465,-0.40625 z m 1.30625,0.55875 0.1475,-0.42 0.28875,-0.17375 -0.29375,-0.13 -0.29375,0.5 z m -2.7225,1.29375 -0.0475,0.1475 0.87,0.39 0.0625,-0.32125 z m 4.9275,-1.89375 0.39375,0.435 0.2525,-0.09375 -0.405,-0.365 -0.005,-0.51125 z m -5.11125,1.7 -0.25875,-0.13 -0.17,0.32375 0.04125,0.3475 z m 1.50125,-0.97875 -0.03875,1.89 0.6975,0.61125 0.20375,-0.635 0.33,0.72125 0.19625,-0.70625 0.345,0.48625 0.5025,-0.30625 -0.0625,-0.24375 -0.33375,0.24375 -0.2125,-0.45375 h -1.07 l -0.25875,0.39 -0.09375,-1.9975 z m 0.39875,3.49625 0.69375,0.08875 -0.1175,-0.24125 z m 0.67125,-3.5375 h -0.14375 v 0.14375 h 0.14375 z m 1.26875,-1.41125 h -0.14375 v 0.14375 h 0.14375 z m -2.58,0 h -0.14375 v 0.14375 h 0.14375 z"/><path fill="#eeee00" d="m 11.476125,27.528875 -1.62375,0.945 -0.16375,-0.18125 0.25375,-0.33625 -0.4625,0.10375 -0.38,-0.42125 1.2825,-1.09375 1.05875,-0.14125 1.1525,1.7175 2.2475,-0.82375 1.17625,0.365 v -0.65875 l -0.94125,-0.27 -1.3525,0.81125 -1.22375,-0.10625 -0.38875,-0.635 0.4,-0.33 0.87,0.635 1.6175,-0.82375 1.44125,0.62375 -0.10125,1 0.18375,0.45875 -0.09375,0.93 c 0,0 0.81125,1.1175 0.77625,1.1175 -0.035,0 -1.69375,0.6 -1.69375,0.6 l 0.1175,-0.57625 0.4825,-0.33 -0.8825,-0.6825 -0.53,0.81125 0.30625,0.62375 -1.14125,0.1525 -0.365,-0.77625 0.7175,-0.07 -0.17625,-1.4475 -1.1175,0.81125 -0.4475,1.4825 -1.46375,-0.39 0.335,-0.58625 -0.85875,0.05875 -0.05875,0.4 -1.01125,0.13 -0.7175,-0.7175 0.61125,-0.37625 0.5525,0.235 0.28875,-1.27 0.77,-0.14125 0.5175,-0.4825 0.14125,0.5175 0.2,-0.4 z m 4.09,0.47375 0.125,0.36125 -0.25875,0.6275 0.54875,0.165 0.1175,-0.8475 z m -2.47,0.48625 -0.03875,0.36875 1.24625,-0.65875 0.03125,-0.19625 z m -2.77625,0.43125 0.33,0.47 0.09375,-0.47 -0.25875,-0.25125 z m 1.9375,-0.25 -0.22,0.30625 0.3525,0.41625 0.2975,-0.47 z m -1.16875,0.235 -0.07875,0.60375 h 0.21125 z m -0.5175,-2.04 -0.14125,0.22 0.37,0.08625 0.11625,-0.19625 z m -0.3775,0.6 0.20375,0.1925 h 0.4025 l 0.11625,-0.2275 h -0.38375 l -0.2825,-0.15625 z m 4.75375,0.38125 -0.07875,0.36875 0.2975,-0.0475 0.08625,-0.32125 z m -0.40875,1.2075 -0.0625,0.19625 0.2275,0.07 0.07875,-0.165 z m -2.87,-0.32125 -0.18,0.4 0.235,0.43125 -0.07875,-0.41625 z"/></svg>