<svg xmlns:dc="http://purl.org/dc/elements/1.1/" xmlns:cc="http://creativecommons.org/ns#" xmlns:rdf="http://www.w3.org/1999/02/22-rdf-syntax-ns#" xmlns:svg="http://www.w3.org/2000/svg" xmlns="http://www.w3.org/2000/svg" viewBox="0 0 45 45" style="enable-background:new 0 0 45 45;" xml:space="preserve" version="1.1" id="svg2"><metadata id="metadata8"><rdf:RDF><cc:Work rdf:about=""><dc:format>image/svg+xml</dc:format><dc:type rdf:resource="http://purl.org/dc/dcmitype/StillImage"/></cc:Work></rdf:RDF></metadata><defs id="defs6"><clipPath id="clipPath16" clipPathUnits="userSpaceOnUse"><path id="path18" d="M 4,31 C 1.791,31 0,29.209 0,27 L 0,27 0,9 C 0,6.791 1.791,5 4,5 l 0,0 28,0 c 2.209,0 4,1.791 4,4 l 0,0 0,18 c 0,2.209 -1.791,4 -4,4 l 0,0 -28,0 z"/></clipPath></defs><g transform="matrix(1.25,0,0,-1.25,0,45)" id="g10"><g id="g12"><g xmlns="http://www.w3.org/2000/svg" clip-path="url(#clipPath16)" id="g14"><g id="g3057" transform="translate(32.003,31)"><path id="path20" style="fill:#bf0a30;fill-opacity:1;fill-rule:nonzero;stroke:none" d="m 0,0 -28,0 c -2.209,0 -4,-1.791 -4,-4 l 0,-9 36,0 0,9 C 4,-1.791 2.209,0 0,0"/></g><g id="g3061" transform="translate(0.003,9)"><path id="path21" style="fill:#002868;fill-opacity:1;fill-rule:nonzero;stroke:none" d="m 0,0 c 0,-2.209 1.791,-4 4,-4 l 28,0 c 2.209,0 4,1.791 4,4 L 36,9 0,9 0,0 z"/></g><g id="g3065" transform="translate(18.003,18)"><path id="path22" style="fill:#fed700;fill-opacity:1;fill-rule:nonzero;stroke:none" d="M 0,0 -17.998,4.436 -18.003,9.449 0,0 z"/></g><g id="g3069" transform="translate(18.003,18)"><path id="path23" style="fill:#fed700;fill-opacity:1;fill-rule:nonzero;stroke:none" d="M 0,0 -14.679,13.004 -8.973,12.999 0,0 z"/></g><g id="g3073" transform="translate(18.003,18)"><path id="path24" style="fill:#fed700;fill-opacity:1;fill-rule:nonzero;stroke:none" d="M 0,0 -4.93,12.999 -1.579,13 0,0 z"/></g><g id="g3077" transform="translate(18.003,18)"><path id="path25" style="fill:#fed700;fill-opacity:1;fill-rule:nonzero;stroke:none" d="M 0,0 1.578,13 4.93,13 0,0 z"/></g><g id="g3081" transform="translate(18.003,18)"><path id="path26" style="fill:#fed700;fill-opacity:1;fill-rule:nonzero;stroke:none" d="m 0,0 8.974,13 5.7,0 L 0,0 z"/></g><g id="g3085" transform="translate(18.003,18)"><path id="path27" style="fill:#fed700;fill-opacity:1;fill-rule:nonzero;stroke:none" d="M 0,0 18,9.447 18,4.437 0,0 z"/></g><g id="g3089" transform="translate(19.7559,19.9634)"><path id="path28" style="fill:#ce5c17;fill-opacity:1;fill-rule:nonzero;stroke:none" d="M 0,0 -1.753,5.394 -3.505,0 -9.177,0 -4.589,-3.333 -6.341,-8.728 -1.753,-5.394 2.836,-8.728 1.083,-3.333 5.672,0 0,0 z"/></g></g></g></g></svg>