<svg xmlns:dc="http://purl.org/dc/elements/1.1/" xmlns:cc="http://creativecommons.org/ns#" xmlns:rdf="http://www.w3.org/1999/02/22-rdf-syntax-ns#" xmlns:svg="http://www.w3.org/2000/svg" xmlns="http://www.w3.org/2000/svg" viewBox="0 0 45 45" style="enable-background:new 0 0 45 45;" xml:space="preserve" version="1.1" id="svg2"><metadata id="metadata8"><rdf:RDF><cc:Work rdf:about=""><dc:format>image/svg+xml</dc:format><dc:type rdf:resource="http://purl.org/dc/dcmitype/StillImage"/></cc:Work></rdf:RDF></metadata><defs id="defs6"><clipPath id="clipPath16" clipPathUnits="userSpaceOnUse"><path id="path18" d="M 0,36 36,36 36,0 0,0 0,36 Z"/></clipPath></defs><g transform="matrix(1.25,0,0,-1.25,0,45)" id="g10"><g id="g12"><g xmlns="http://www.w3.org/2000/svg" clip-path="url(#clipPath16)" id="g14"><g id="g30"><path id="path20" style="fill:#e41b23;fill-opacity:1;fill-rule:nonzero;stroke:none" d="M 12,31 4,31 C 1.791,31 0,29.209 0,27 L 0,9 C 0,6.791 1.791,5 4,5 l 8,0 0,26 z"/><path id="path21" style="fill:#eeeeee;fill-opacity:1;fill-rule:nonzero;stroke:none" d="M 24,5 12,5 12,31 24,31 24,5 z"/><path id="path22" style="fill:#6caee0;fill-opacity:1;fill-rule:nonzero;stroke:none" d="m 24,5 8,0 c 2.209,0 4,1.791 4,4 l 0,18 c 0,2.209 -1.791,4 -4,4 l -8,0 0,-26 z"/></g><g id="g34"><path id="path30" style="fill:#cfa55b;fill-opacity:1;fill-rule:nonzero;stroke:none" d="m 18.2451,14.8594 -0.21,-2.8 -0.334,2.818 c -0.249,-0.307 -0.208,-0.281 -0.191,-0.486 0.113,-0.396 0.096,-0.702 0.01,-0.807 -0.099,-0.124 -0.203,-0.177 -0.354,-0.273 l -0.015,-0.093 c 0.083,-0.231 0.047,-0.434 0.032,-0.546 -0.032,-0.22 -0.139,-0.346 -0.24,-0.491 0.07,0.135 0.089,0.267 0.076,0.414 -0.013,0.15 -0.11,0.427 -0.191,0.592 -0.019,0.041 0.028,0.105 0.071,0.173 l 0.247,0.395 -0.163,0.594 c -0.053,0.194 0.073,0.453 0.113,0.665 l 0.088,0.694 1.174,-0.129 -0.113,-0.72 z"/><path id="path31" style="fill:#cfa55b;fill-opacity:1;fill-rule:nonzero;stroke:none" d="m 17.7549,21.1421 0.21,2.799 0.334,-2.817 c 0.249,0.306 0.209,0.28 0.191,0.485 -0.113,0.397 -0.096,0.702 -0.01,0.808 0.099,0.124 0.203,0.177 0.354,0.273 l 0.015,0.092 c -0.083,0.232 -0.047,0.435 -0.032,0.547 0.033,0.22 0.139,0.346 0.24,0.49 -0.07,-0.135 -0.089,-0.266 -0.076,-0.413 0.013,-0.15 0.11,-0.427 0.19,-0.593 0.021,-0.041 -0.027,-0.104 -0.07,-0.172 l -0.247,-0.395 0.164,-0.595 c 0.051,-0.193 -0.074,-0.453 -0.115,-0.665 l -0.087,-0.693 -1.174,0.129 0.113,0.72 z"/><path id="path32" style="fill:#cfa55b;fill-opacity:1;fill-rule:nonzero;stroke:none" d="m 14.8584,17.7554 -2.799,0.211 2.817,0.333 c -0.306,0.249 -0.28,0.209 -0.485,0.191 -0.397,-0.113 -0.702,-0.096 -0.808,-0.01 -0.124,0.1 -0.177,0.203 -0.273,0.354 l -0.092,0.015 c -0.232,-0.083 -0.435,-0.047 -0.546,-0.031 -0.221,0.032 -0.347,0.139 -0.491,0.239 0.135,-0.07 0.267,-0.089 0.413,-0.076 0.15,0.013 0.427,0.11 0.593,0.191 0.041,0.019 0.104,-0.028 0.172,-0.071 l 0.395,-0.247 0.595,0.163 c 0.193,0.053 0.453,-0.073 0.665,-0.113 l 0.693,-0.088 -0.129,-1.174 -0.72,0.113 z"/><path id="path33" style="fill:#cfa55b;fill-opacity:1;fill-rule:nonzero;stroke:none" d="m 21.1416,18.2456 2.799,-0.21 -2.818,-0.333 c 0.307,-0.249 0.281,-0.209 0.486,-0.192 0.396,0.113 0.703,0.096 0.808,0.01 0.123,-0.1 0.176,-0.202 0.273,-0.354 l 0.093,-0.014 c 0.231,0.083 0.434,0.047 0.546,0.03 0.22,-0.031 0.346,-0.139 0.49,-0.239 -0.135,0.07 -0.267,0.089 -0.413,0.076 -0.15,-0.013 -0.427,-0.11 -0.593,-0.191 -0.041,-0.019 -0.104,0.028 -0.172,0.071 l -0.395,0.248 -0.595,-0.164 c -0.193,-0.053 -0.452,0.073 -0.664,0.113 l -0.694,0.088 0.129,1.174 0.72,-0.113 z"/><path id="path34" style="fill:#cfa55b;fill-opacity:1;fill-rule:nonzero;stroke:none" d="m 15.9517,15.6064 -2.128,-1.831 1.757,2.227 c -0.393,-0.04 -0.346,-0.049 -0.479,-0.207 -0.2,-0.361 -0.429,-0.565 -0.564,-0.58 -0.158,-0.016 -0.268,0.02 -0.443,0.059 l -0.076,-0.055 c -0.105,-0.222 -0.274,-0.341 -0.364,-0.408 -0.179,-0.134 -0.343,-0.147 -0.516,-0.178 0.144,0.046 0.251,0.125 0.346,0.239 0.096,0.115 0.223,0.38 0.284,0.553 0.015,0.043 0.093,0.054 0.172,0.073 l 0.454,0.104 0.305,0.536 c 0.099,0.173 0.372,0.269 0.55,0.39 l 0.553,0.428 0.739,-0.921 -0.59,-0.429 z"/><path id="path35" style="fill:#cfa55b;fill-opacity:1;fill-rule:nonzero;stroke:none" d="m 20.0479,20.395 2.129,1.831 -1.757,-2.228 c 0.393,0.041 0.346,0.05 0.479,0.208 0.2,0.36 0.428,0.564 0.563,0.579 0.158,0.017 0.269,-0.019 0.443,-0.058 l 0.077,0.055 c 0.104,0.222 0.274,0.341 0.364,0.408 0.179,0.133 0.343,0.147 0.515,0.178 -0.144,-0.047 -0.25,-0.126 -0.345,-0.239 -0.097,-0.115 -0.224,-0.38 -0.284,-0.553 -0.016,-0.043 -0.093,-0.055 -0.172,-0.073 l -0.454,-0.104 -0.305,-0.536 c -0.1,-0.174 -0.372,-0.269 -0.551,-0.39 l -0.552,-0.428 -0.739,0.921 0.589,0.429 z"/><path id="path36" style="fill:#cfa55b;fill-opacity:1;fill-rule:nonzero;stroke:none" d="m 15.6055,20.0488 -1.831,2.128 2.228,-1.756 c -0.041,0.392 -0.05,0.345 -0.208,0.478 -0.36,0.2 -0.564,0.429 -0.579,0.564 -0.016,0.158 0.019,0.268 0.058,0.443 l -0.055,0.076 c -0.222,0.105 -0.341,0.275 -0.407,0.364 -0.134,0.179 -0.148,0.343 -0.179,0.516 0.047,-0.144 0.126,-0.251 0.239,-0.346 0.115,-0.096 0.38,-0.223 0.553,-0.284 0.043,-0.015 0.055,-0.093 0.073,-0.171 l 0.104,-0.455 0.536,-0.305 c 0.174,-0.099 0.269,-0.372 0.39,-0.55 l 0.429,-0.552 -0.922,-0.739 -0.429,0.589 z"/><path id="path37" style="fill:#cfa55b;fill-opacity:1;fill-rule:nonzero;stroke:none" d="m 20.3945,15.9521 1.831,-2.128 -2.228,1.757 c 0.041,-0.394 0.05,-0.346 0.208,-0.479 0.36,-0.2 0.564,-0.428 0.579,-0.564 0.016,-0.158 -0.019,-0.269 -0.058,-0.443 l 0.055,-0.076 c 0.222,-0.105 0.341,-0.274 0.408,-0.364 0.134,-0.179 0.146,-0.344 0.178,-0.516 -0.046,0.144 -0.126,0.251 -0.239,0.346 -0.115,0.096 -0.38,0.224 -0.553,0.284 -0.043,0.015 -0.055,0.093 -0.073,0.171 l -0.104,0.455 -0.536,0.305 c -0.174,0.099 -0.269,0.371 -0.39,0.55 l -0.429,0.553 0.922,0.739 0.429,-0.59 z"/><path id="path38" style="fill:#cfa55b;fill-opacity:1;fill-rule:nonzero;stroke:none" d="m 17.0239,15.0049 -1.266,-2.506 0.771,2.731 c -0.348,-0.189 -0.3,-0.179 -0.363,-0.375 -0.047,-0.411 -0.18,-0.687 -0.299,-0.751 -0.14,-0.077 -0.255,-0.085 -0.432,-0.117 l -0.049,-0.08 c -0.011,-0.245 -0.123,-0.42 -0.18,-0.515 -0.114,-0.193 -0.261,-0.268 -0.409,-0.363 0.116,0.098 0.184,0.212 0.228,0.353 0.045,0.144 0.062,0.436 0.051,0.62 -0.002,0.046 0.065,0.086 0.131,0.133 l 0.38,0.27 0.076,0.612 c 0.026,0.198 0.241,0.39 0.36,0.571 l 0.346,0.606 1.036,-0.568 -0.381,-0.621 z"/><path id="path39" style="fill:#cfa55b;fill-opacity:1;fill-rule:nonzero;stroke:none" d="m 18.9756,20.9966 1.266,2.506 -0.771,-2.731 c 0.348,0.188 0.301,0.179 0.363,0.375 0.047,0.41 0.18,0.686 0.299,0.751 0.14,0.076 0.256,0.085 0.432,0.117 l 0.05,0.079 c 0.011,0.246 0.123,0.42 0.179,0.516 0.115,0.192 0.261,0.267 0.41,0.362 -0.117,-0.098 -0.185,-0.212 -0.229,-0.353 -0.045,-0.143 -0.062,-0.436 -0.051,-0.62 0.003,-0.045 -0.065,-0.085 -0.131,-0.132 l -0.38,-0.27 -0.076,-0.612 c -0.025,-0.198 -0.241,-0.391 -0.359,-0.571 l -0.347,-0.607 -1.035,0.568 0.38,0.622 z"/><path id="path40" style="fill:#cfa55b;fill-opacity:1;fill-rule:nonzero;stroke:none" d="m 15.0039,18.9766 -2.506,1.266 2.731,-0.771 c -0.188,0.348 -0.179,0.3 -0.375,0.363 -0.41,0.047 -0.686,0.18 -0.751,0.299 -0.076,0.14 -0.085,0.256 -0.117,0.432 l -0.079,0.049 c -0.246,0.012 -0.42,0.123 -0.516,0.18 -0.192,0.114 -0.267,0.261 -0.362,0.409 0.098,-0.116 0.212,-0.184 0.353,-0.228 0.143,-0.045 0.436,-0.062 0.62,-0.051 0.045,0.002 0.085,-0.065 0.132,-0.131 l 0.271,-0.38 0.612,-0.076 c 0.198,-0.026 0.39,-0.241 0.57,-0.36 l 0.607,-0.346 -0.568,-1.035 -0.622,0.38 z"/><path id="path41" style="fill:#cfa55b;fill-opacity:1;fill-rule:nonzero;stroke:none" d="m 20.9961,17.0244 2.506,-1.266 -2.731,0.771 c 0.188,-0.348 0.179,-0.3 0.375,-0.362 0.41,-0.048 0.686,-0.18 0.751,-0.3 0.077,-0.14 0.085,-0.255 0.117,-0.432 l 0.079,-0.049 c 0.246,-0.011 0.42,-0.123 0.516,-0.18 0.192,-0.114 0.268,-0.261 0.363,-0.409 -0.099,0.116 -0.213,0.184 -0.354,0.229 -0.143,0.045 -0.436,0.061 -0.62,0.051 -0.045,-0.003 -0.085,0.064 -0.132,0.131 l -0.27,0.379 -0.613,0.077 c -0.198,0.024 -0.39,0.24 -0.57,0.359 l -0.607,0.346 0.568,1.036 0.622,-0.381 z"/><path id="path42" style="fill:#cfa55b;fill-opacity:1;fill-rule:nonzero;stroke:none" d="m 15.1914,16.5723 -2.667,-0.877 2.476,1.386 c -0.379,0.113 -0.339,0.086 -0.522,-0.009 -0.323,-0.256 -0.612,-0.357 -0.743,-0.319 -0.152,0.045 -0.24,0.12 -0.387,0.223 l -0.091,-0.022 c -0.182,-0.165 -0.384,-0.209 -0.493,-0.237 -0.216,-0.055 -0.373,-0.004 -0.545,0.033 0.152,-0.013 0.281,0.02 0.411,0.088 0.134,0.069 0.353,0.265 0.475,0.403 0.03,0.033 0.107,0.014 0.186,0.001 l 0.46,-0.078 0.486,0.379 c 0.159,0.122 0.447,0.106 0.658,0.15 l 0.674,0.184 0.33,-1.135 -0.708,-0.17 z"/><path id="path43" style="fill:#cfa55b;fill-opacity:1;fill-rule:nonzero;stroke:none" d="m 20.8086,19.4292 2.667,0.876 -2.476,-1.385 c 0.378,-0.113 0.339,-0.086 0.522,0.008 0.323,0.257 0.612,0.358 0.743,0.32 0.152,-0.045 0.24,-0.121 0.387,-0.223 l 0.091,0.021 c 0.182,0.166 0.383,0.21 0.493,0.238 0.216,0.055 0.373,0.004 0.545,-0.033 -0.152,0.012 -0.281,-0.02 -0.411,-0.089 -0.133,-0.068 -0.352,-0.265 -0.475,-0.402 -0.03,-0.034 -0.107,-0.015 -0.186,-0.001 l -0.46,0.078 -0.486,-0.379 c -0.158,-0.123 -0.447,-0.106 -0.658,-0.15 l -0.674,-0.184 -0.331,1.134 0.709,0.171 z"/><path id="path44" style="fill:#cfa55b;fill-opacity:1;fill-rule:nonzero;stroke:none" d="m 16.5713,20.8091 -0.876,2.667 1.385,-2.476 c 0.113,0.379 0.086,0.339 -0.008,0.522 -0.257,0.323 -0.358,0.612 -0.32,0.743 0.046,0.152 0.121,0.24 0.223,0.387 l -0.021,0.091 c -0.166,0.182 -0.21,0.384 -0.238,0.493 -0.055,0.216 -0.004,0.373 0.033,0.545 -0.012,-0.152 0.02,-0.281 0.089,-0.411 0.068,-0.134 0.265,-0.353 0.402,-0.475 0.034,-0.03 0.015,-0.107 10e-4,-0.186 l -0.077,-0.46 0.378,-0.486 c 0.123,-0.159 0.107,-0.447 0.15,-0.658 l 0.184,-0.674 -1.134,-0.33 -0.171,0.708 z"/><path id="path45" style="fill:#cfa55b;fill-opacity:1;fill-rule:nonzero;stroke:none" d="m 19.4287,15.1924 0.877,-2.667 -1.387,2.476 c -0.112,-0.379 -0.085,-0.339 0.009,-0.523 0.257,-0.322 0.358,-0.611 0.319,-0.742 -0.045,-0.152 -0.12,-0.24 -0.222,-0.388 l 0.021,-0.091 c 0.166,-0.181 0.21,-0.383 0.237,-0.492 0.056,-0.216 0.005,-0.373 -0.033,-0.545 0.013,0.152 -0.019,0.281 -0.088,0.411 -0.069,0.133 -0.264,0.352 -0.402,0.474 -0.034,0.031 -0.015,0.108 -10e-4,0.187 l 0.077,0.46 -0.378,0.486 c -0.123,0.158 -0.107,0.446 -0.15,0.658 l -0.184,0.674 1.134,0.33 0.171,-0.708 z"/><path id="path46" style="fill:#eeeeee;fill-opacity:1;fill-rule:nonzero;stroke:none" d="m 18,20.7803 c 1.535,0 2.779,-1.245 2.779,-2.78 0,-1.534 -1.244,-2.78 -2.779,-2.78 -1.535,0 -2.78,1.246 -2.78,2.78 0,1.535 1.245,2.78 2.78,2.78"/></g></g></g></g></svg>