<svg xmlns:dc="http://purl.org/dc/elements/1.1/" xmlns:cc="http://creativecommons.org/ns#" xmlns:rdf="http://www.w3.org/1999/02/22-rdf-syntax-ns#" xmlns:svg="http://www.w3.org/2000/svg" xmlns="http://www.w3.org/2000/svg" viewBox="0 0 45 45" style="enable-background:new 0 0 45 45;" xml:space="preserve" version="1.1" id="svg2"><metadata id="metadata8"><rdf:RDF><cc:Work rdf:about=""><dc:format>image/svg+xml</dc:format><dc:type rdf:resource="http://purl.org/dc/dcmitype/StillImage"/></cc:Work></rdf:RDF></metadata><defs id="defs6"><clipPath id="clipPath16" clipPathUnits="userSpaceOnUse"><path id="path18" d="M 4,31 C 1.791,31 0,29.209 0,27 L 0,27 0,9 C 0,6.791 1.791,5 4,5 l 0,0 28,0 c 2.209,0 4,1.791 4,4 l 0,0 0,18 c 0,2.209 -1.791,4 -4,4 l 0,0 -28,0 z"/></clipPath></defs><g transform="matrix(1.25,0,0,-1.25,0,45)" id="g10"><g id="g12"><g xmlns="http://www.w3.org/2000/svg" clip-path="url(#clipPath16)" id="g14"><path id="path20" style="fill:#f0dc82;fill-opacity:1;fill-rule:nonzero;stroke:none" d="M 0,5 36,5 36,31 0,31 0,5 z"/><g id="g30"><path id="path30" style="fill:#4ab932;fill-opacity:1;fill-rule:nonzero;stroke:none" d="m 22.9395,22.1982 0.051,0.319 -0.222,0.465 -0.135,-0.076 -0.032,-0.124 -0.266,0.043 -0.2,0.2 -0.299,-0.272 -0.095,-0.306 0.078,-0.4 1.12,0.151 z"/><path id="path31" style="fill:#918876;fill-opacity:1;fill-rule:nonzero;stroke:none" d="m 23.2891,20.9409 -0.153,0.32 -0.28,0.227 0.083,0.71 -0.223,0.298 -0.114,0.286 -0.267,0.044 -0.188,-0.157 -0.208,-0.514 -0.149,-0.133 0.059,-0.302 -0.141,-0.377 -0.365,-0.255 -0.117,-0.243 2.063,0.096 z"/><path id="path32" style="fill:#ef1439;fill-opacity:1;fill-rule:nonzero;stroke:none" d="m 21.0996,17.123 0,0.542 -0.152,0.082 -0.076,1.271 0.15,0.019 -0.2,0.526 0.157,0.117 0.247,1.165 0.568,0.259 0.58,-0.565 0.632,0.584 0.671,-0.431 0.067,-0.733 -0.181,-0.851 -0.208,0.564 -0.164,-0.286 0.183,-0.764 0.15,-0.714 -0.216,-0.953 0.33,-0.325 0.027,-0.519 -2.565,1.012 z"/><path id="path33" style="fill:#00589c;fill-opacity:1;fill-rule:nonzero;stroke:none" d="m 20.5205,13.042 0.85,-0.318 1.412,0.07 0.564,0.248 -0.117,0.74 0.6,1.318 -0.164,1.011 -0.589,0.883 -1.376,0.294 -0.601,-0.165 0.095,-1.446 -0.259,-1.918 -0.415,-0.717 z"/><path id="path34" style="fill:#453e6f;fill-opacity:1;fill-rule:nonzero;stroke:none" d="m 24.5762,21.5352 0.276,0.109 0.383,-0.294 -0.032,-0.436 -0.133,-0.161 -0.05,-0.236 0.151,-0.238 -0.171,-0.191 -0.268,-0.023 -0.055,0.123 -0.101,1.112 0,0.235 z"/><path id="path35" style="fill:#e2e258;fill-opacity:1;fill-rule:nonzero;stroke:none" d="m 23.6768,20.6924 1.07,0.384 -0.07,-0.888 -0.241,-0.683 -0.677,-0.894 -0.235,-0.704 -0.118,0.56 0.157,0.641 0.18,0.851 -0.066,0.733 z"/><path id="path36" style="fill:#4ab932;fill-opacity:1;fill-rule:nonzero;stroke:none" d="m 24.7471,21.0767 -0.171,0.223 0,0.365 -0.282,-0.112 -0.247,0.177 -0.147,-0.23 -0.3,-0.023 0.059,-0.259 -0.165,-0.141 0.183,-0.384 1.07,0.384 z"/><path id="path37" style="fill:#ef1439;fill-opacity:1;fill-rule:nonzero;stroke:none" d="m 23.7773,20.728 -0.024,0.349 0.206,0.358 0.297,0.039 0.07,-0.168 0.207,-0.019 0.083,-0.258 -0.839,-0.301 z"/><path id="path38" style="fill:#ffe8b9;fill-opacity:1;fill-rule:nonzero;stroke:none" d="m 24.1445,19.1216 0.042,-0.425 -0.529,-1.381 0.105,-0.302 -0.125,-0.384 -0.33,0.325 0.216,0.953 0.235,0.704 0.386,0.51 z"/><path id="path39" style="fill:#ffe8b9;fill-opacity:1;fill-rule:nonzero;stroke:none" d="m 20.8213,19.563 -1.222,0.155 -0.782,-0.277 0.529,-0.123 1.526,-0.3 0.149,0.019 -0.2,0.526 z"/><path id="path40" style="fill:#ffe8b9;fill-opacity:1;fill-rule:nonzero;stroke:none" d="m 21.7939,21.104 0.247,0.22 0.055,0.368 -0.098,0.432 0.098,0.227 0.216,0.129 0.098,0.232 0.113,-0.228 0.189,-0.164 0.055,-0.291 -0.09,-0.333 0.09,-0.337 0.239,-0.235 -0.632,-0.585 -0.58,0.565 z"/></g><g id="g32"><path id="path50" style="fill:#ef1439;fill-opacity:1;fill-rule:nonzero;stroke:none" d="m 12.4297,22.9268 -0.256,0.379 0.144,0.165 -0.144,0.25 -0.239,0 -0.152,-0.203 -0.053,-0.497 -0.183,-0.332 0,-0.477 0.465,0.529 0.231,0.16 0.187,0.026 z"/><path id="path51" style="fill:#353db3;fill-opacity:1;fill-rule:nonzero;stroke:none" d="m 12.4297,22.9268 0.103,-0.235 -0.153,0 -0.318,-0.263 -0.415,-0.573 -0.1,0.356 0.465,0.529 0.231,0.16 0.187,0.026 z"/><path id="path52" style="fill:#4ab932;fill-opacity:1;fill-rule:nonzero;stroke:none" d="m 14.2607,22.1353 0.127,0.18 -0.063,0.317 -0.454,0.362 -0.014,-0.133 -0.368,-0.032 0.023,0.185 -0.224,-0.167 -0.058,0.191 -0.321,-0.538 0.132,-0.463 1.22,0.098 z"/><path id="path53" style="fill:#918876;fill-opacity:1;fill-rule:nonzero;stroke:none" d="m 14.7275,20.9746 -0.153,0.251 -0.31,0.149 -0.149,0.255 0.145,0.506 -0.176,0.16 -0.032,0.169 -0.168,0.126 -0.028,0.27 -0.368,-0.031 -0.055,-0.235 -0.161,-0.177 -0.031,-0.169 -0.201,-0.212 0.177,-0.587 -0.274,-0.052 -0.224,-0.235 2.008,-0.188 z"/><path id="path54" style="fill:#ffe8b9;fill-opacity:1;fill-rule:nonzero;stroke:none" d="m 14.249,21.2412 -0.255,0.106 -0.067,0.337 0.11,0.286 0.012,0.279 -0.196,0.18 -0.173,0.251 -0.117,-0.208 -0.247,-0.141 -0.032,-0.286 0.09,-0.275 -0.015,-0.463 -0.208,-0.066 0.565,-0.745 0.533,0.745 z"/><path id="path55" style="fill:#ffe8b9;fill-opacity:1;fill-rule:nonzero;stroke:none" d="m 12.249,19.8999 -0.271,0.687 0.04,0.454 0.231,0.153 0,0.6 -0.318,-0.247 -0.251,-0.568 -0.047,-0.891 0.365,-1.051 0.251,-0.039 0,0.902 z"/><path id="path56" style="fill:#ffe8b9;fill-opacity:1;fill-rule:nonzero;stroke:none" d="m 15.3159,19.2412 0.761,0.282 0.635,-0.141 0.518,0.065 -0.4,0.241 -0.465,0.106 -1.174,-0.106 -0.124,-0.125 -0.042,-0.349 0.291,0.027 z"/><path id="path57" style="fill:#ff9e0f;fill-opacity:1;fill-rule:nonzero;stroke:none" d="m 14.8179,15.5117 0.129,0.765 -0.065,0.266 0.112,1.075 -0.088,0.382 0.308,0.104 0.102,1.137 -0.29,-0.027 0.041,0.349 0.124,0.126 -0.205,0.133 -0.258,1.153 -0.479,0.266 -0.533,-0.745 -0.565,0.745 -0.431,-0.078 -0.471,-1.263 0,-0.902 -0.251,0.039 0.173,-0.705 0.235,0.045 -0.102,-0.539 0,-0.887 0.173,-0.69 -0.134,-0.564 0.122,-0.444 2.353,0.259 z"/><path id="path58" style="fill:#00589c;fill-opacity:1;fill-rule:nonzero;stroke:none" d="m 12.3979,13.0293 0.683,-0.274 1.529,0.07 0.447,0.266 -0.196,1.263 -0.043,1.157 -0.412,0.619 -0.4,1.222 -0.529,-1.158 -1.012,-0.941 -0.097,-1.412 0.191,-0.265 -0.161,-0.547 z"/></g><g id="g34"><path id="path70" style="fill:#00589c;fill-opacity:1;fill-rule:nonzero;stroke:none" d="m 18,10.2725 c -1.041,0 -1.806,0.769 -1.806,0.769 l 0.459,0.572 c 0,0 0.714,-0.592 1.347,-0.592 0.634,0 1.347,0.592 1.347,0.592 l 0.459,-0.572 c 0,0 -0.765,-0.769 -1.806,-0.769"/><path id="path71" style="fill:#00589c;fill-opacity:1;fill-rule:nonzero;stroke:none" d="m 23.5029,11.7764 0.238,0.624 c 0,0 -0.32,0.54 -2.77,0.253 -2.071,-0.243 -2.224,-0.827 -2.224,-0.827 l 0.406,-0.579 c 0,0 0.335,0.433 1.937,0.673 1.392,0.208 2.413,-0.144 2.413,-0.144"/><path id="path72" style="fill:#00589c;fill-opacity:1;fill-rule:nonzero;stroke:none" d="m 12.4971,11.7764 -0.238,0.624 c 0,0 0.32,0.54 2.77,0.253 2.071,-0.243 2.224,-0.827 2.224,-0.827 l -0.406,-0.579 c 0,0 -0.335,0.433 -1.937,0.673 -1.392,0.208 -2.413,-0.144 -2.413,-0.144"/><path id="path73" style="fill:#00589c;fill-opacity:1;fill-rule:nonzero;stroke:none" d="m 18,19.3647 c 0,0 -0.706,-0.188 -1.129,-0.2 -0.424,-0.012 -0.948,0.117 -0.948,0.117 l -0.608,-0.541 c 0,0 0.397,-0.564 0.397,-1.293 0,-0.877 -0.456,-0.983 -0.456,-2.395 0,-0.888 0.598,-1.62 1.372,-1.876 1.243,-0.412 1.372,-0.642 1.372,-0.642 0,0 0.129,0.23 1.372,0.642 0.774,0.256 1.372,0.988 1.372,1.876 0,1.412 -0.456,1.518 -0.456,2.395 0,0.729 0.398,1.293 0.398,1.293 l -0.61,0.541 c 0,0 -0.523,-0.129 -0.946,-0.117 -0.424,0.012 -1.13,0.2 -1.13,0.2"/><path id="path74" style="fill:#71777b;fill-opacity:1;fill-rule:nonzero;stroke:none" d="m 16.5942,13.5879 2.35,-0.032 0.076,0.209 -1.962,0.067 -0.003,0.168 -0.076,0.024 -0.385,-0.436 z"/><path id="path75" style="fill:#612829;fill-opacity:1;fill-rule:nonzero;stroke:none" d="m 19.1299,14.0234 c 0,0 -0.521,0.156 -1.222,0.156 -1.082,0 -1.861,0.239 -1.861,0.239 l 0.191,0.241 c 0,0 0.693,-0.297 1.662,-0.297 0.561,0 1.318,-0.153 1.318,-0.153 l -0.088,-0.186 z"/><path id="path76" style="fill:#612829;fill-opacity:1;fill-rule:nonzero;stroke:none" d="m 19.4941,15.2373 -0.061,-0.177 c 0,0 -0.132,0.087 -0.334,-0.251 -0.152,-0.257 -0.233,-0.539 -0.233,-0.539 l -0.043,0.007 c 0,0 0.067,0.225 0.251,0.589 0.111,0.221 0.42,0.371 0.42,0.371"/><path id="path77" style="fill:#612829;fill-opacity:1;fill-rule:nonzero;stroke:none" d="m 19.1475,14.2227 c 0,0 0.202,0.427 0.417,0.642 0.392,0.394 0.415,0.141 0.415,0.141 l 0.114,0.189 c 0,0 -0.352,-0.072 -0.57,-0.294 -0.218,-0.224 -0.415,-0.671 -0.415,-0.671 l 0.039,-0.007 z"/><path id="path78" style="fill:#71777b;fill-opacity:1;fill-rule:nonzero;stroke:none" d="m 16.5942,15.3848 2.35,-0.032 0.076,0.209 -1.962,0.067 -0.003,0.168 -0.076,0.024 -0.385,-0.436 z"/><path id="path79" style="fill:#612829;fill-opacity:1;fill-rule:nonzero;stroke:none" d="m 19.1299,15.8203 c 0,0 -0.521,0.156 -1.222,0.156 -1.082,0 -1.861,0.239 -1.861,0.239 l 0.191,0.241 c 0,0 0.693,-0.297 1.662,-0.297 0.561,0 1.318,-0.153 1.318,-0.153 l -0.088,-0.186 z"/><path id="path80" style="fill:#612829;fill-opacity:1;fill-rule:nonzero;stroke:none" d="m 19.4941,17.0342 -0.061,-0.177 c 0,0 -0.132,0.087 -0.334,-0.251 -0.152,-0.257 -0.233,-0.539 -0.233,-0.539 l -0.043,0.007 c 0,0 0.067,0.225 0.251,0.589 0.111,0.221 0.42,0.371 0.42,0.371"/><path id="path81" style="fill:#612829;fill-opacity:1;fill-rule:nonzero;stroke:none" d="m 19.1475,16.0195 c 0,0 0.202,0.427 0.417,0.642 0.392,0.394 0.415,0.141 0.415,0.141 l 0.114,0.189 c 0,0 -0.352,-0.072 -0.57,-0.294 -0.218,-0.224 -0.415,-0.671 -0.415,-0.671 l 0.039,-0.007 z"/><path id="path82" style="fill:#71777b;fill-opacity:1;fill-rule:nonzero;stroke:none" d="m 16.5942,17.1816 2.35,-0.032 0.076,0.209 -1.962,0.067 -0.003,0.168 -0.076,0.024 -0.385,-0.436 z"/><path id="path83" style="fill:#612829;fill-opacity:1;fill-rule:nonzero;stroke:none" d="m 19.1299,17.6172 c 0,0 -0.521,0.156 -1.222,0.156 -1.082,0 -1.861,0.238 -1.861,0.238 l 0.191,0.241 c 0,0 0.693,-0.296 1.662,-0.296 0.561,0 1.318,-0.153 1.318,-0.153 l -0.088,-0.186 z"/><path id="path84" style="fill:#612829;fill-opacity:1;fill-rule:nonzero;stroke:none" d="m 19.4941,18.8311 -0.061,-0.177 c 0,0 -0.132,0.087 -0.334,-0.251 -0.152,-0.257 -0.233,-0.538 -0.233,-0.538 l -0.043,0.007 c 0,0 0.067,0.224 0.251,0.588 0.111,0.221 0.42,0.371 0.42,0.371"/><path id="path85" style="fill:#612829;fill-opacity:1;fill-rule:nonzero;stroke:none" d="m 19.1475,17.8159 c 0,0 0.202,0.428 0.417,0.643 0.392,0.394 0.415,0.141 0.415,0.141 l 0.114,0.188 c 0,0 -0.352,-0.071 -0.57,-0.294 -0.218,-0.224 -0.415,-0.671 -0.415,-0.671 l 0.039,-0.007 z"/></g><g id="g36"><path id="path90" style="fill:#00589c;fill-opacity:1;fill-rule:nonzero;stroke:none" d="m 18.8809,22.6763 0.531,-0.153 0.682,0 0.165,0.612 0.311,-0.129 0.101,-0.33 0.376,0.259 -0.518,0.459 0.395,0.141 0.341,-0.306 0.253,0.506 -0.3,0.076 0.146,0.718 -0.294,0.271 -0.282,-0.106 0.236,-0.165 -0.041,-0.247 -0.335,0.118 -0.042,0.482 -0.265,-0.106 0.018,-0.535 -0.312,0.218 0.029,-0.289 0.301,-0.176 0.164,0.164 0.494,-0.123 0.035,-0.253 -0.434,-0.188 -0.401,0.153 0,-0.442 -0.394,-0.234 -0.211,0.247 0.423,0.311 -0.323,0.371 0.099,0.718 -0.218,0.252 0.148,0.177 0.235,-0.182 0.683,0.241 0.765,-0.359 0.27,0.359 0.399,-0.241 -0.387,-0.165 0.088,-0.706 0.124,0.506 0.506,0.17 0,-0.476 0.57,-0.171 0.053,-0.676 -0.841,-0.083 0.37,0.5 -0.088,0.218 -0.418,-0.435 -0.847,-1.041 0.082,-0.224 -0.794,-0.059 0.265,-0.223 -0.37,-0.159 0.247,-0.341 0.302,0.365 0.221,-0.336 -0.194,-0.176 -0.389,-0.042 -0.07,-0.558 -0.306,-0.342 -0.112,0.318 -0.323,-0.123 -0.088,-0.247 -0.406,0.305 0.383,0.195 -0.366,0.259 -0.017,0.229 0.317,-0.088 -0.094,0.282 0.294,0.288 0.113,-0.588 0.305,0.047 0.047,0.335 -0.712,0.512 -0.117,-0.388 -0.459,0.494 -0.594,0.006 0.475,0.329 z"/><path id="path91" style="fill:#00589c;fill-opacity:1;fill-rule:nonzero;stroke:none" d="m 17.1196,22.6763 -0.531,-0.153 -0.683,0 -0.164,0.612 -0.312,-0.129 -0.1,-0.33 -0.377,0.259 0.518,0.459 -0.394,0.141 -0.341,-0.306 -0.253,0.506 0.3,0.076 -0.147,0.718 0.294,0.271 0.282,-0.106 -0.235,-0.165 0.041,-0.247 0.335,0.118 0.041,0.482 0.265,-0.106 -0.018,-0.535 0.312,0.218 -0.029,-0.289 -0.3,-0.176 -0.165,0.164 -0.494,-0.123 -0.035,-0.253 0.435,-0.188 0.4,0.153 0,-0.442 0.394,-0.234 0.212,0.247 -0.423,0.311 0.323,0.371 -0.1,0.718 0.218,0.252 -0.147,0.177 -0.236,-0.182 -0.682,0.241 -0.765,-0.359 -0.271,0.359 -0.399,-0.241 0.388,-0.165 -0.088,-0.706 -0.124,0.506 -0.506,0.17 0,-0.476 -0.57,-0.171 -0.054,-0.676 0.842,-0.083 -0.371,0.5 0.089,0.218 0.417,-0.435 0.847,-1.041 -0.082,-0.224 0.794,-0.059 -0.265,-0.223 0.371,-0.159 -0.247,-0.341 -0.302,0.365 -0.222,-0.336 0.194,-0.176 0.389,-0.042 0.07,-0.558 0.306,-0.342 0.112,0.318 0.324,-0.123 0.087,-0.247 0.407,0.305 -0.383,0.195 0.365,0.259 0.018,0.229 -0.318,-0.088 0.094,0.282 -0.294,0.288 -0.112,-0.588 -0.306,0.047 -0.047,0.335 0.712,0.512 0.117,-0.388 0.459,0.494 0.595,0.006 -0.475,0.329 z"/><path id="path92" style="fill:#674413;fill-opacity:1;fill-rule:nonzero;stroke:none" d="m 18.0923,25.4282 0.521,-0.03 0.138,0.133 -0.02,-0.196 0.416,-0.345 0.156,0 -0.054,-0.137 0.216,-0.55 0.031,-0.611 0.101,-0.063 -0.191,-0.078 -0.138,-0.467 0.236,0.067 -0.075,-0.212 -0.231,-0.094 0.251,-0.083 -0.342,-0.176 -0.23,0.137 -0.785,2.705 z"/><path id="path93" style="fill:#a96a41;fill-opacity:1;fill-rule:nonzero;stroke:none" d="m 18.6855,22.3809 0.191,0.343 0.118,0.525 0,1.122 -0.155,0.494 -0.332,0.149 0.071,-0.267 -0.204,0.094 -0.212,0.463 -0.329,0.58 -0.04,-0.478 -0.18,0.478 0.039,-0.619 -0.407,-0.016 0.266,-0.118 -1.035,-0.925 0.172,-0.322 0.377,-0.086 0.517,0.291 0.526,-0.056 -0.58,-0.486 -0.33,-0.494 -0.039,-0.377 0.278,-0.295 1.288,0 z"/><path id="path94" style="fill:#ddb245;fill-opacity:1;fill-rule:nonzero;stroke:none" d="m 18.0527,19.2002 0.891,0.484 0.466,0.659 -0.824,0.345 0,0.318 c 0,0 0.391,0.282 0.391,0.7 0,0.894 -0.882,0.865 -0.882,0.865 0,0 -0.959,0.087 -0.959,-0.807 0,-0.541 0.441,-0.758 0.441,-0.758 l 0,-0.265 -0.93,-0.353 0.618,-0.741 0.788,-0.447 z"/></g></g></g></g></svg>