<svg xmlns:dc="http://purl.org/dc/elements/1.1/" xmlns:cc="http://creativecommons.org/ns#" xmlns:rdf="http://www.w3.org/1999/02/22-rdf-syntax-ns#" xmlns:svg="http://www.w3.org/2000/svg" xmlns="http://www.w3.org/2000/svg" viewBox="0 0 45 45" style="enable-background:new 0 0 45 45;" xml:space="preserve" version="1.1" id="svg2"><metadata id="metadata8"><rdf:RDF><cc:Work rdf:about=""><dc:format>image/svg+xml</dc:format><dc:type rdf:resource="http://purl.org/dc/dcmitype/StillImage"/></cc:Work></rdf:RDF></metadata><defs id="defs6"><clipPath id="clipPath16" clipPathUnits="userSpaceOnUse"><path id="path18" d="M 0,36 36,36 36,0 0,0 0,36 Z"/></clipPath></defs><g transform="matrix(1.25,0,0,-1.25,0,45)" id="g10"><g id="g12"><g xmlns="http://www.w3.org/2000/svg" clip-path="url(#clipPath16)" id="g14"><path id="path20" style="fill:#2b5df2;fill-opacity:1;fill-rule:nonzero;stroke:none" d="M 32,31 4,31 C 1.791,31 0,29.209 0,27 l 0,-9 36,0 0,9 c 0,2.209 -1.791,4 -4,4"/><path id="path22" style="fill:#eeeeee;fill-opacity:1;fill-rule:nonzero;stroke:none" d="M 0,9 C 0,6.791 1.791,5 4,5 l 28,0 c 2.209,0 4,1.791 4,4 l 0,9 -36,0 0,-9 z"/><g id="g30"><path id="path30" style="fill:#5ab532;fill-opacity:1;fill-rule:nonzero;stroke:none" d="m 12.7998,15.2998 c 0,-2.872 2.328,-5.2 5.2,-5.2 2.872,0 5.2,2.328 5.2,5.2 l -10.4,0 z"/><path id="path32" style="fill:#adda99;fill-opacity:1;fill-rule:nonzero;stroke:none" d="m 18,23.433 5.2,0 0,-8.133 -5.2,0 0,8.133 z"/><path id="path34" style="fill:#3f71f2;fill-opacity:1;fill-rule:nonzero;stroke:none" d="m 12.8,23.433 5.2,0 0,-8.133 -5.2,0 0,8.133 z"/><path id="path36" style="fill:#e20909;fill-opacity:1;fill-rule:nonzero;stroke:none" d="m 23.2002,25.9248 2.475,-1.675 0,-6.55 -2.475,-2.4 0,10.625 z"/><path id="path38" style="fill:#e20909;fill-opacity:1;fill-rule:nonzero;stroke:none" d="m 12.7998,25.9248 -2.475,-1.675 0,-6.55 2.475,-2.4 0,10.625 z"/><path id="path40" style="fill:#e20909;fill-opacity:1;fill-rule:nonzero;stroke:none" d="m 21.2168,25.2334 c 0,-0.249 -1.44,-0.45 -3.217,-0.45 -1.776,0 -3.217,0.201 -3.217,0.45 0,-0.994 1.441,-1.35 3.217,-1.35 1.777,0 3.217,0.356 3.217,1.35"/><path id="path42" style="fill:#fcef3c;fill-opacity:1;fill-rule:nonzero;stroke:none" d="m 14.7832,25.2334 c 0,-0.249 1.44,-0.45 3.217,-0.45 1.776,0 3.217,0.201 3.217,0.45 0,1.779 -1.441,2.417 -3.217,2.417 -1.777,0 -3.217,-0.638 -3.217,-2.417"/></g><g id="g34"><path id="path60" style="fill:#90872e;fill-opacity:1;fill-rule:nonzero;stroke:none" d="m 13.668,8.0166 0,-0.328 0.211,0 c 0.056,0 0.099,0.014 0.13,0.041 0.031,0.027 0.046,0.066 0.046,0.117 0,0.053 -0.013,0.095 -0.039,0.125 -0.026,0.03 -0.065,0.045 -0.119,0.045 l -0.229,0 z m 0,0.096 0.204,0 c 0.044,10e-4 0.079,0.013 0.107,0.039 0.026,0.024 0.04,0.058 0.04,0.102 0,0.049 -0.015,0.086 -0.046,0.111 -0.031,0.023 -0.075,0.036 -0.133,0.036 l -0.172,0 0,-0.288 z m 0.172,0.383 c 0.095,0 0.168,-0.02 0.222,-0.06 0.053,-0.041 0.079,-0.103 0.079,-0.184 0,-0.04 -0.013,-0.076 -0.038,-0.107 -0.025,-0.032 -0.059,-0.056 -0.101,-0.071 0.055,-0.011 0.097,-0.038 0.129,-0.079 0.031,-0.042 0.047,-0.091 0.047,-0.147 0,-0.083 -0.027,-0.145 -0.081,-0.189 -0.054,-0.044 -0.126,-0.066 -0.218,-0.066 l -0.435,0 0,0.078 0.101,0.018 0,0.712 -0.101,0.017 0,0.078 0.101,0 0.295,0 z"/><path id="path62" style="fill:#90872e;fill-opacity:1;fill-rule:nonzero;stroke:none" d="m 14.748,8.6904 0.124,-0.071 0,-0.004 -0.227,-0.057 -0.079,0.046 0.182,0.086 z m -0.469,-1.098 0,0.078 0.101,0.018 0,0.712 -0.101,0.018 0,0.078 0.694,0 0,-0.217 -0.105,0 -0.01,0.121 -0.356,0 0,-0.293 0.346,0 0,-0.096 -0.346,0 0,-0.323 0.363,0 0.01,0.121 0.104,0 0,-0.217 -0.7,0 z"/><path id="path64" style="fill:#90872e;fill-opacity:1;fill-rule:nonzero;stroke:none" d="m 15.0894,7.6709 0.101,0.018 0,0.711 -0.101,0.018 0,0.078 0.325,0 0,-0.078 -0.101,-0.018 0,-0.303 0.093,0 0.253,0.312 -0.068,0.009 0,0.078 0.287,0 0,-0.078 -0.085,-0.016 -0.276,-0.342 0.301,-0.373 0.085,-0.016 0,-0.078 -0.296,0 0,0.078 0.068,0.009 -0.257,0.32 -0.105,0 0,-0.311 0.101,-0.018 0,-0.078 -0.325,0 0,0.078 z"/><path id="path66" style="fill:#90872e;fill-opacity:1;fill-rule:nonzero;stroke:none" d="m 16.46,8.6895 0.124,-0.071 -0.001,-0.003 -0.226,-0.057 -0.079,0.046 0.182,0.085 z m -0.47,-1.097 0,0.078 0.102,0.018 0,0.712 -0.102,0.018 0,0.078 0.695,0 0,-0.217 -0.106,0 -0.01,0.121 -0.355,0 0,-0.293 0.346,0 0,-0.096 -0.346,0 0,-0.323 0.363,0 0.01,0.121 0.104,0 0,-0.217 -0.701,0 z"/><path id="path68" style="fill:#90872e;fill-opacity:1;fill-rule:nonzero;stroke:none" d="m 17.4551,8.2295 -0.093,0 -0.022,0.129 c -0.019,0.016 -0.044,0.029 -0.075,0.039 -0.031,0.011 -0.067,0.016 -0.108,0.016 -0.065,0 -0.115,-0.014 -0.149,-0.041 -0.035,-0.028 -0.053,-0.064 -0.053,-0.108 0,-0.04 0.018,-0.072 0.054,-0.098 0.035,-0.027 0.092,-0.05 0.171,-0.07 0.095,-0.023 0.168,-0.058 0.216,-0.104 0.05,-0.046 0.075,-0.103 0.075,-0.171 0,-0.072 -0.03,-0.131 -0.089,-0.175 -0.06,-0.045 -0.137,-0.066 -0.233,-0.066 -0.07,0 -0.131,0.01 -0.185,0.034 -0.054,0.022 -0.098,0.052 -0.132,0.089 l 0,0.168 0.092,0 0.023,-0.129 c 0.024,-0.02 0.052,-0.036 0.085,-0.048 0.032,-0.013 0.071,-0.019 0.117,-0.019 0.062,0 0.111,0.013 0.146,0.039 0.036,0.026 0.054,0.061 0.054,0.106 0,0.042 -0.016,0.076 -0.046,0.104 -0.032,0.028 -0.086,0.051 -0.165,0.071 -0.096,0.022 -0.17,0.055 -0.224,0.1 -0.054,0.044 -0.081,0.1 -0.081,0.167 0,0.071 0.03,0.129 0.09,0.176 0.06,0.048 0.138,0.071 0.234,0.071 0.064,0 0.121,-0.011 0.173,-0.033 0.052,-0.021 0.094,-0.048 0.125,-0.079 l 0,-0.168 z"/><path id="path70" style="fill:#90872e;fill-opacity:1;fill-rule:nonzero;stroke:none" d="m 17.931,7.927 -0.304,0 0,0.096 0.304,0 0,-0.096 z"/><path id="path72" style="fill:#90872e;fill-opacity:1;fill-rule:nonzero;stroke:none" d="m 18.9521,8.3164 -0.003,10e-4 -0.292,-0.725 -0.081,0 -0.293,0.724 -0.003,-10e-4 0.013,-0.365 0,-0.262 0.1,-0.018 0,-0.078 -0.324,0 0,0.078 0.102,0.018 0,0.712 -0.102,0.018 0,0.078 0.102,0 0.156,0 0.288,-0.735 0.003,0 0.288,0.735 0.258,0 0,-0.078 -0.102,-0.018 0,-0.712 0.102,-0.018 0,-0.078 -0.324,0 0,0.078 0.1,0.018 0,0.262 0.012,0.366 z"/><path id="path74" style="fill:#90872e;fill-opacity:1;fill-rule:nonzero;stroke:none" d="m 19.252,7.5928 0,0.078 0.102,0.018 0,0.712 -0.102,0.017 0,0.078 0.694,0 0,-0.216 -0.105,0 -0.01,0.121 -0.355,0 0,-0.293 0.345,0 0,-0.096 -0.345,0 0,-0.323 0.363,0 0.01,0.121 0.104,0 0,-0.217 -0.701,0 z"/><path id="path76" style="fill:#90872e;fill-opacity:1;fill-rule:nonzero;stroke:none" d="m 20.7813,7.6953 c -0.027,-0.028 -0.066,-0.054 -0.117,-0.079 -0.052,-0.025 -0.119,-0.036 -0.202,-0.036 -0.121,0 -0.22,0.042 -0.296,0.127 -0.076,0.085 -0.114,0.194 -0.114,0.33 l 0,0.014 c 0,0.137 0.038,0.248 0.113,0.331 0.075,0.084 0.176,0.127 0.301,0.127 0.067,0 0.126,-0.01 0.176,-0.032 0.051,-0.02 0.094,-0.048 0.128,-0.082 l 0,-0.164 -0.085,0 -0.03,0.125 c -0.02,0.017 -0.045,0.03 -0.073,0.041 -0.03,0.011 -0.064,0.016 -0.104,0.016 -0.097,0 -0.173,-0.033 -0.225,-0.101 -0.053,-0.066 -0.079,-0.153 -0.079,-0.259 l 0,-0.016 c 0,-0.109 0.025,-0.196 0.077,-0.262 0.051,-0.066 0.121,-0.1 0.211,-0.1 0.048,0 0.09,0.005 0.121,0.015 0.031,0.011 0.056,0.023 0.075,0.034 l 0,0.199 -0.148,0.005 0,0.091 0.271,0 0,-0.324 z"/><path id="path78" style="fill:#90872e;fill-opacity:1;fill-rule:nonzero;stroke:none" d="m 21.2236,8.418 -0.098,-0.013 0.19,-0.368 0.189,0.368 -0.097,0.013 0,0.078 0.31,0 0,-0.078 -0.076,-0.013 -0.269,-0.495 0,-0.221 0.102,-0.018 0,-0.078 -0.324,0 0,0.078 0.101,0.018 0,0.231 -0.263,0.485 -0.076,0.013 0,0.078 0.311,0 0,-0.078 z"/><path id="path80" style="fill:#90872e;fill-opacity:1;fill-rule:nonzero;stroke:none" d="m 21.8018,7.5928 0,0.078 0.102,0.018 0,0.712 -0.102,0.017 0,0.078 0.694,0 0,-0.216 -0.105,0 -0.01,0.121 -0.355,0 0,-0.293 0.345,0 0,-0.096 -0.345,0 0,-0.323 0.363,0 0.01,0.121 0.104,0 0,-0.217 -0.701,0 z"/></g></g></g></g></svg>