<svg xmlns="http://www.w3.org/2000/svg" viewBox="0 0 45 45"><path fill="#9b0099" d="m 45,33.75 c 0,2.76125 -2.23875,5 -5,5 H 5 c -2.76125,0 -5,-2.23875 -5,-5 v -22.5 c 0,-2.76125 2.23875,-5 5,-5 h 35 c 2.76125,0 5,2.23875 5,5 z"/><path fill="#ffd328" d="m 26.419875,11.660125 v 1.96 h -2.17 v -1.96 h -3.18 v 1.96 h -2.17 v -1.96 h -3.01 v 17.37 c 0,0.59 0.34,1.11 0.84,1.35 l 5.93,2.85 5.93,-2.85 c 0.5,-0.24 0.84,-0.76 0.84,-1.35 v -17.37 z m 2.29,17.37 c 0,0.3 -0.17,0.57 -0.42,0.7 l -5.63,2.84 -5.63,-2.84 c -0.25,-0.13 -0.42,-0.4 -0.42,-0.7 v -12.5 h 12.1 z m -0.37,-6.85 v 0.32 h -11.36 v -0.32 z m -5.2,0.85 v 0.93 h -0.96 v -0.93 l 0.48,-0.16 z m 1.3975,0.97375 h -0.4625 v -0.9125 h 0.4625 z m 1.73,0 h -0.4625 v -0.9125 h 0.4625 z m 1.83125,0 h -0.46375 v -0.9125 h 0.4625 v 0.9125 z m 0.24125,1.22625 v 3.8 c 0,0.16 -0.09,0.3 -0.22,0.37 l -0.04,0.02 -5.42,2.77 -5.42,-2.77 -0.04,-0.02 c -0.13,-0.07 -0.22,-0.21 -0.22,-0.37 v -3.8 c 0,0 0.12,-0.26 0.85,-0.26 0.73,0 0.85,0.26 0.85,0.26 v 1.25 h 1.42 v -1.25 c 0,0 0.14,-0.26 1,-0.26 0.85,0 1,0.26 1,0.26 v 1.25 h 1.12 v -1.25 c 0,0 0.15,-0.26 1,-0.26 0.86,0 1,0.26 1,0.26 v 1.25 h 1.42 v -1.25 c 0,0 0.12,-0.26 0.85,-0.26 0.73,0 0.85,0.26 0.85,0.26 z m -7.5575,-2.13875 h 0.4625 v 0.9125 h -0.4625 z m -1.73,0 h 0.4625 v 0.9125 h -0.4625 z m -1.83,0 h 0.4625 v 0.9125 h -0.4625 z m 11.1175,-6.16125 v 4.65 h -11.36 v -4.65 z m -3.86,1.72 c 0,0 -1.76,0.51 -0.73,1.12 -0.24,0.31 -0.55,0.51 -0.94,0.61 v -1.64 c 1.39,-0.09 -0.15,-1.47 -0.15,-1.47 0,0 -1.54,1.38 -0.15,1.47 v 1.64 c -0.39,-0.1 -0.7,-0.3 -0.94,-0.61 1.03,-0.61 -0.73,-1.12 -0.73,-1.12 0,0 -0.71,1.71 0.44,1.25 0.32,0.42 0.71,0.67 1.23,0.79 v 0.4 h 0.3 v -0.4 c 0.52,-0.12 0.91,-0.37 1.23,-0.79 1.15,0.46 0.44,-1.25 0.44,-1.25 z"/></svg>