<svg xmlns:dc="http://purl.org/dc/elements/1.1/" xmlns:cc="http://creativecommons.org/ns#" xmlns:rdf="http://www.w3.org/1999/02/22-rdf-syntax-ns#" xmlns:svg="http://www.w3.org/2000/svg" xmlns="http://www.w3.org/2000/svg" viewBox="0 0 45 45" style="enable-background:new 0 0 45 45;" xml:space="preserve" version="1.1" id="svg2"><metadata id="metadata8"><rdf:RDF><cc:Work rdf:about=""><dc:format>image/svg+xml</dc:format><dc:type rdf:resource="http://purl.org/dc/dcmitype/StillImage"/></cc:Work></rdf:RDF></metadata><defs id="defs6"><clipPath id="clipPath16" clipPathUnits="userSpaceOnUse"><path id="path18" d="M 0,36 36,36 36,0 0,0 0,36 Z"/></clipPath><clipPath id="clipPath76" clipPathUnits="userSpaceOnUse"><path id="path78" d="m 4.87793,26.1221 2.30859,0 0,-2.3086 -2.30859,0 0,2.3086 z"/></clipPath></defs><g transform="matrix(1.25,0,0,-1.25,0,45)" id="g10"><g id="g12"><g clip-path="url(#clipPath16)" id="g14"><g id="g31"><g transform="translate(0,9)" id="g3119"><path id="path20" style="fill:#da121a;fill-opacity:1;fill-rule:nonzero;stroke:none" d="m 0,0 c 0,-2.209 1.791,-4 4,-4 l 28,0 c 2.209,0 4,1.791 4,4 L 36,2.5 0,2.5 0,0 z"/></g><path id="path22" style="fill:#0f47af;fill-opacity:1;fill-rule:nonzero;stroke:none" d="m 0,11.5 36,0 0,3.25 -36,0 0,-3.25 z"/><path id="path24" style="fill:#fcdd09;fill-opacity:1;fill-rule:nonzero;stroke:none" d="m 0,14.75 36,0 0,6.5 -36,0 0,-6.5 z"/><path id="path26" style="fill:#0f47af;fill-opacity:1;fill-rule:nonzero;stroke:none" d="m 0,21.25 36,0 0,3.25 -36,0 0,-3.25 z"/><g transform="translate(32,31)" id="g3129"><path id="path28" style="fill:#da121a;fill-opacity:1;fill-rule:nonzero;stroke:none" d="m 0,0 -28,0 c -2.209,0 -4,-1.791 -4,-4 l 0,-2.5 36,0 0,2.5 C 4,-1.791 2.209,0 0,0"/></g></g><g transform="translate(15.7884,22.7467)" id="g33"><path id="path30" style="fill:#ffffff;fill-opacity:1;fill-rule:nonzero;stroke:none" d="M 0,0 0.476,-0.558 0.418,0.173 1.096,0.454 0.383,0.625 0.325,1.355 -0.058,0.73 -0.77,0.901 -0.294,0.344 -0.677,-0.281 0,0 z"/></g><g transform="translate(14.1404,21.5392)" id="g34"><path id="path31" style="fill:#ffffff;fill-opacity:1;fill-rule:nonzero;stroke:none" d="M 0,0 0.653,-0.333 0.32,0.32 0.839,0.839 0.115,0.724 -0.218,1.377 -0.333,0.653 -1.057,0.539 -0.403,0.206 -0.518,-0.518 0,0 z"/></g><g transform="translate(13.0803,19.7936)" id="g35"><path id="path32" style="fill:#ffffff;fill-opacity:1;fill-rule:nonzero;stroke:none" d="M 0,0 0.73,-0.058 0.173,0.418 0.454,1.095 -0.171,0.712 -0.729,1.188 -0.557,0.476 -1.182,0.093 -0.452,0.035 -0.28,-0.677 0,0 z"/></g><g transform="translate(12.7688,17.7746)" id="g36"><path id="path33" style="fill:#ffffff;fill-opacity:1;fill-rule:nonzero;stroke:none" d="M 0,0 0.697,0.227 0,0.453 0,1.186 -0.431,0.593 -1.128,0.819 -0.697,0.227 -1.128,-0.367 -0.431,-0.14 0,-0.733 0,0 z"/></g><g transform="translate(13.2537,15.7907)" id="g37"><path id="path34" style="fill:#ffffff;fill-opacity:1;fill-rule:nonzero;stroke:none" d="M 0,0 0.557,0.476 -0.173,0.418 -0.454,1.096 -0.625,0.383 -1.355,0.325 -0.73,-0.058 -0.902,-0.771 -0.345,-0.294 0.28,-0.678 0,0 z"/></g><g transform="translate(14.4607,14.1432)" id="g38"><path id="path35" style="fill:#ffffff;fill-opacity:1;fill-rule:nonzero;stroke:none" d="M 0,0 0.333,0.652 -0.32,0.319 -0.838,0.838 -0.724,0.114 -1.377,-0.219 -0.653,-0.333 -0.538,-1.058 -0.206,-0.404 0.519,-0.519 0,0 z"/></g><g transform="translate(16.2068,13.0827)" id="g39"><path id="path36" style="fill:#ffffff;fill-opacity:1;fill-rule:nonzero;stroke:none" d="m 0,0 0.058,0.73 -0.476,-0.557 -0.678,0.28 0.383,-0.624 -0.475,-0.558 0.712,0.171 0.383,-0.625 0.057,0.731 L 0.677,-0.28 0,0 z"/></g><g transform="translate(18.2254,12.7712)" id="g40"><path id="path37" style="fill:#ffffff;fill-opacity:1;fill-rule:nonzero;stroke:none" d="M 0,0 -0.227,0.697 -0.453,0 -1.186,0 -0.593,-0.431 -0.819,-1.128 -0.227,-0.697 0.366,-1.128 0.14,-0.431 0.733,0 0,0 z"/></g><g transform="translate(20.2097,13.2555)" id="g41"><path id="path38" style="fill:#ffffff;fill-opacity:1;fill-rule:nonzero;stroke:none" d="m 0,0 -0.476,0.558 0.058,-0.731 -0.678,-0.28 0.713,-0.172 0.058,-0.73 L 0.058,-0.73 0.771,-0.901 0.294,-0.344 0.677,0.28 0,0 z"/></g><g transform="translate(21.8572,14.4626)" id="g42"><path id="path39" style="fill:#ffffff;fill-opacity:1;fill-rule:nonzero;stroke:none" d="m 0,0 -0.652,0.333 0.332,-0.652 -0.518,-0.519 0.724,0.114 0.333,-0.653 0.114,0.725 0.724,0.114 L 0.404,-0.205 0.519,0.519 0,0 z"/></g><g transform="translate(22.9177,16.2087)" id="g43"><path id="path40" style="fill:#ffffff;fill-opacity:1;fill-rule:nonzero;stroke:none" d="m 0,0 -0.73,0.058 0.557,-0.476 -0.281,-0.678 0.625,0.383 0.558,-0.475 -0.171,0.712 0.625,0.383 L 0.451,-0.035 0.28,0.678 0,0 z"/></g><g transform="translate(23.2293,18.2277)" id="g44"><path id="path41" style="fill:#ffffff;fill-opacity:1;fill-rule:nonzero;stroke:none" d="M 0,0 -0.697,-0.227 0,-0.453 0,-1.186 0.431,-0.593 1.128,-0.82 0.697,-0.227 1.128,0.366 0.431,0.14 0,0.733 0,0 z"/></g><g transform="translate(22.7449,20.2121)" id="g45"><path id="path42" style="fill:#ffffff;fill-opacity:1;fill-rule:nonzero;stroke:none" d="m 0,0 -0.558,-0.476 0.731,0.058 0.28,-0.678 0.172,0.713 0.73,0.057 L 0.73,0.057 0.901,0.77 0.344,0.294 -0.281,0.677 0,0 z"/></g><g transform="translate(21.5369,21.8595)" id="g46"><path id="path43" style="fill:#ffffff;fill-opacity:1;fill-rule:nonzero;stroke:none" d="M 0,0 -0.332,-0.653 0.32,-0.32 0.839,-0.838 0.725,-0.115 1.377,0.218 0.653,0.333 0.539,1.057 0.206,0.404 -0.518,0.519 0,0 z"/></g><g transform="translate(19.7918,22.9201)" id="g47"><path id="path44" style="fill:#ffffff;fill-opacity:1;fill-rule:nonzero;stroke:none" d="M 0,0 -0.058,-0.731 0.418,-0.173 1.095,-0.454 0.712,0.171 1.188,0.728 0.476,0.557 0.093,1.182 0.035,0.451 -0.678,0.28 0,0 z"/></g><g transform="translate(17.7727,23.2311)" id="g48"><path id="path45" style="fill:#ffffff;fill-opacity:1;fill-rule:nonzero;stroke:none" d="M 0,0 0.227,-0.697 0.453,0 1.186,0 0.593,0.431 0.819,1.128 0.227,0.697 -0.367,1.128 -0.14,0.431 -0.733,0 0,0 z"/></g><g transform="translate(15.7884,22.7467)" id="g3133"><path d="M 0,0 0.476,-0.558 0.418,0.173 1.096,0.454 0.383,0.625 0.325,1.355 -0.058,0.73 -0.77,0.901 -0.294,0.344 -0.677,-0.281 0,0 z" id="path3135" style="fill:#ffffff;fill-opacity:1;fill-rule:nonzero;stroke:none"/></g><g transform="translate(14.1404,21.5392)" id="g3137"><path d="M 0,0 0.653,-0.333 0.32,0.32 0.839,0.839 0.115,0.724 -0.218,1.377 -0.333,0.653 -1.057,0.539 -0.403,0.206 -0.518,-0.518 0,0 z" id="path3139" style="fill:#ffffff;fill-opacity:1;fill-rule:nonzero;stroke:none"/></g><g transform="translate(13.0803,19.7936)" id="g3141"><path d="M 0,0 0.73,-0.058 0.173,0.418 0.454,1.095 -0.171,0.712 -0.729,1.188 -0.557,0.476 -1.182,0.093 -0.452,0.035 -0.28,-0.677 0,0 z" id="path3143" style="fill:#ffffff;fill-opacity:1;fill-rule:nonzero;stroke:none"/></g><g transform="translate(12.7688,17.7746)" id="g3145"><path d="M 0,0 0.697,0.227 0,0.453 0,1.186 -0.431,0.593 -1.128,0.819 -0.697,0.227 -1.128,-0.367 -0.431,-0.14 0,-0.733 0,0 z" id="path3147" style="fill:#ffffff;fill-opacity:1;fill-rule:nonzero;stroke:none"/></g><g transform="translate(13.2537,15.7907)" id="g3149"><path d="M 0,0 0.557,0.476 -0.173,0.418 -0.454,1.096 -0.625,0.383 -1.355,0.325 -0.73,-0.058 -0.902,-0.771 -0.345,-0.294 0.28,-0.678 0,0 z" id="path3151" style="fill:#ffffff;fill-opacity:1;fill-rule:nonzero;stroke:none"/></g><g transform="translate(14.4607,14.1432)" id="g3153"><path d="M 0,0 0.333,0.652 -0.32,0.319 -0.838,0.838 -0.724,0.114 -1.377,-0.219 -0.653,-0.333 -0.538,-1.058 -0.206,-0.404 0.519,-0.519 0,0 z" id="path3155" style="fill:#ffffff;fill-opacity:1;fill-rule:nonzero;stroke:none"/></g><g transform="translate(16.2068,13.0827)" id="g3157"><path d="m 0,0 0.058,0.73 -0.476,-0.557 -0.678,0.28 0.383,-0.624 -0.475,-0.558 0.712,0.171 0.383,-0.625 0.057,0.731 L 0.677,-0.28 0,0 z" id="path3159" style="fill:#ffffff;fill-opacity:1;fill-rule:nonzero;stroke:none"/></g><g transform="translate(18.2254,12.7712)" id="g3161"><path d="M 0,0 -0.227,0.697 -0.453,0 -1.186,0 -0.593,-0.431 -0.819,-1.128 -0.227,-0.697 0.366,-1.128 0.14,-0.431 0.733,0 0,0 z" id="path3163" style="fill:#ffffff;fill-opacity:1;fill-rule:nonzero;stroke:none"/></g><g transform="translate(20.2097,13.2555)" id="g3165"><path d="m 0,0 -0.476,0.558 0.058,-0.731 -0.678,-0.28 0.713,-0.172 0.058,-0.73 L 0.058,-0.73 0.771,-0.901 0.294,-0.344 0.677,0.28 0,0 z" id="path3167" style="fill:#ffffff;fill-opacity:1;fill-rule:nonzero;stroke:none"/></g><g transform="translate(21.8572,14.4626)" id="g3169"><path d="m 0,0 -0.652,0.333 0.332,-0.652 -0.518,-0.519 0.724,0.114 0.333,-0.653 0.114,0.725 0.724,0.114 L 0.404,-0.205 0.519,0.519 0,0 z" id="path3171" style="fill:#ffffff;fill-opacity:1;fill-rule:nonzero;stroke:none"/></g><g transform="translate(22.9177,16.2087)" id="g3173"><path d="m 0,0 -0.73,0.058 0.557,-0.476 -0.281,-0.678 0.625,0.383 0.558,-0.475 -0.171,0.712 0.625,0.383 L 0.451,-0.035 0.28,0.678 0,0 z" id="path3175" style="fill:#ffffff;fill-opacity:1;fill-rule:nonzero;stroke:none"/></g><g transform="translate(23.2293,18.2277)" id="g3177"><path d="M 0,0 -0.697,-0.227 0,-0.453 0,-1.186 0.431,-0.593 1.128,-0.82 0.697,-0.227 1.128,0.366 0.431,0.14 0,0.733 0,0 z" id="path3179" style="fill:#ffffff;fill-opacity:1;fill-rule:nonzero;stroke:none"/></g><g transform="translate(22.7449,20.2121)" id="g3181"><path d="m 0,0 -0.558,-0.476 0.731,0.058 0.28,-0.678 0.172,0.713 0.73,0.057 L 0.73,0.057 0.901,0.77 0.344,0.294 -0.281,0.677 0,0 z" id="path3183" style="fill:#ffffff;fill-opacity:1;fill-rule:nonzero;stroke:none"/></g><g transform="translate(21.5369,21.8595)" id="g3185"><path d="M 0,0 -0.332,-0.653 0.32,-0.32 0.839,-0.838 0.725,-0.115 1.377,0.218 0.653,0.333 0.539,1.057 0.206,0.404 -0.518,0.519 0,0 z" id="path3187" style="fill:#ffffff;fill-opacity:1;fill-rule:nonzero;stroke:none"/></g><g transform="translate(19.7918,22.9201)" id="g3189"><path d="M 0,0 -0.058,-0.731 0.418,-0.173 1.095,-0.454 0.712,0.171 1.188,0.728 0.476,0.557 0.093,1.182 0.035,0.451 -0.678,0.28 0,0 z" id="path3191" style="fill:#ffffff;fill-opacity:1;fill-rule:nonzero;stroke:none"/></g><g transform="translate(17.7727,23.2311)" id="g3193"><path d="M 0,0 0.227,-0.697 0.453,0 1.186,0 0.593,0.431 0.819,1.128 0.227,0.697 -0.367,1.128 -0.14,0.431 -0.733,0 0,0 z" id="path3195" style="fill:#ffffff;fill-opacity:1;fill-rule:nonzero;stroke:none"/></g></g></g></g></svg>