<svg xmlns:dc="http://purl.org/dc/elements/1.1/" xmlns:cc="http://creativecommons.org/ns#" xmlns:rdf="http://www.w3.org/1999/02/22-rdf-syntax-ns#" xmlns:svg="http://www.w3.org/2000/svg" xmlns="http://www.w3.org/2000/svg" viewBox="0 0 45 45" style="enable-background:new 0 0 45 45;" xml:space="preserve" version="1.1" id="svg2"><metadata id="metadata8"><rdf:RDF><cc:Work rdf:about=""><dc:format>image/svg+xml</dc:format><dc:type rdf:resource="http://purl.org/dc/dcmitype/StillImage"/></cc:Work></rdf:RDF></metadata><defs id="defs6"><clipPath id="clipPath16" clipPathUnits="userSpaceOnUse"><path id="path18" d="M 0,36 36,36 36,0 0,0 0,36 Z"/></clipPath><clipPath id="clipPath76" clipPathUnits="userSpaceOnUse"><path id="path78" d="m 4.87793,26.1221 2.30859,0 0,-2.3086 -2.30859,0 0,2.3086 z"/></clipPath></defs><g transform="matrix(1.25,0,0,-1.25,0,45)" id="g10"><g xmlns="http://www.w3.org/2000/svg" id="g12"><g xmlns="http://www.w3.org/2000/svg" clip-path="url(#clipPath16)" id="g14"><g transform="translate(0,9)" id="g30"><path id="path20" style="fill:#0f47af;fill-opacity:1;fill-rule:nonzero;stroke:none" d="m 0,0 c 0,-2.209 1.791,-4 4,-4 l 28,0 c 2.209,0 4,1.791 4,4 L 36,9 0,9 0,0 z"/></g><g transform="translate(32,31)" id="g37"><path id="path22" style="fill:#da121a;fill-opacity:1;fill-rule:nonzero;stroke:none" d="m 0,0 -28,0 c -2.209,0 -4,-1.791 -4,-4 l 0,-9 36,0 0,9 C 4,-1.791 2.209,0 0,0"/></g></g></g><g xmlns="http://www.w3.org/2000/svg" transform="translate(19.7527,19.9635)" id="g22"><g transform="translate(-6.3932,-4.3633)" id="g70"><path id="path40" style="fill:#da121a;fill-opacity:1;fill-rule:nonzero;stroke:none" d="m 0,0 c 0,-1.522 2.078,-2.757 4.641,-2.757 2.562,0 4.64,1.235 4.64,2.757 l 0,-1 c 0,-1.522 -2.078,-2.757 -4.64,-2.757 C 2.078,-3.757 0,-2.522 0,-1 l 0,1 z"/></g><g transform="translate(-1.7525995,-6.0547)" id="g73"><path id="path42" style="fill:#759680;fill-opacity:1;fill-rule:nonzero;stroke:none" d="M 0,0 C 0,0 -0.131,0.306 -0.509,0.499 -0.985,0.742 -1.912,0.695 -2.365,1.245 -2.9,1.896 -2.88,2.666 -2.88,2.666 l 0,1.782 5.76,0 0,-1.782 c 0,0 0.02,-0.77 -0.516,-1.421 C 1.912,0.695 0.985,0.742 0.509,0.499 0.131,0.306 0,0 0,0"/></g><path id="path44" style="fill:#034418;fill-opacity:1;fill-rule:nonzero;stroke:none" d="m -4.6326,2.2494003 5.7600005,0 0,-3.856 -5.7600005,0 0,3.856 z"/><g transform="translate(1.1273005,0.7549003)" id="g76"><path id="path46" style="fill:#704d25;fill-opacity:1;fill-rule:nonzero;stroke:none" d="m 0,0 1.761,3.438 0,-6.094 L 0.02,-4.163 0,0 z"/></g><g transform="translate(-4.6325,0.7549003)" id="g79"><path id="path48" style="fill:#704d25;fill-opacity:1;fill-rule:nonzero;stroke:none" d="m 0,0 -1.761,3.438 0,-6.094 1.742,-1.507 L 0,0 z"/></g><path id="path49" style="fill:#808080;fill-opacity:1;fill-rule:nonzero;stroke:none" d="m -0.5755995,4.6024003 -2.353,0 0,-2.353 2.353,0 0,2.353 z"/></g></g></svg>