<svg xmlns:dc="http://purl.org/dc/elements/1.1/" xmlns:cc="http://creativecommons.org/ns#" xmlns:rdf="http://www.w3.org/1999/02/22-rdf-syntax-ns#" xmlns:svg="http://www.w3.org/2000/svg" xmlns="http://www.w3.org/2000/svg" viewBox="0 0 45 45" style="enable-background:new 0 0 45 45;" xml:space="preserve" version="1.1" id="svg2"><metadata id="metadata8"><rdf:RDF><cc:Work rdf:about=""><dc:format>image/svg+xml</dc:format><dc:type rdf:resource="http://purl.org/dc/dcmitype/StillImage"/></cc:Work></rdf:RDF></metadata><defs id="defs6"><clipPath id="clipPath16" clipPathUnits="userSpaceOnUse"><path id="path18" d="M 4,31 C 1.791,31 0,29.209 0,27 L 0,27 0,9 C 0,6.791 1.791,5 4,5 l 0,0 28,0 c 2.209,0 4,1.791 4,4 l 0,0 0,18 c 0,2.209 -1.791,4 -4,4 l 0,0 -28,0 z"/></clipPath></defs><g transform="matrix(1.25,0,0,-1.25,0,45)" id="g10"><g id="g12"><g xmlns="http://www.w3.org/2000/svg" clip-path="url(#clipPath16)" id="g14"><g id="g30"><path id="path20" style="fill:#ff9a00;fill-opacity:1;fill-rule:nonzero;stroke:none" d="M 0,5 H 36 V 31 H 0 Z"/><path id="path21" style="fill:#ff3066;fill-opacity:1;fill-rule:nonzero;stroke:none" d="m 36,17.1592 c 0,0 -1.562,-0.733 -2.543,-1.282 -0.98,-0.55 -1.71,-1.224 -2.58,-1.224 -0.871,0 -1.601,0.585 -2.55,1.253 -0.948,0.668 -1.309,0.982 -1.678,0.982 -0.369,0 -1.279,-0.69 -2.345,-1.396 -1.067,-0.706 -1.938,-1.051 -2.494,-1.051 -0.557,0 -2.091,0.543 -5.294,3.059 -3.203,2.515 -3.937,2.768 -4.204,2.768 -0.267,0 -0.499,0.099 -1.396,-0.87 -1.687,-1.82 -1.673,-1.505 -2.69,-2.431 -1.002,-0.912 -1.742,-1.601 -2.149,-1.601 -0.612,0 -1.287,0.863 -1.608,0.863 -0.212,0 -0.675,-0.533 -1.342,-1.208 -0.666,-0.675 -0.875,-1.004 -1.063,-1.004 -0.188,0 -0.356,0.102 -0.537,0.102 -0.298,0 -1.019,-0.925 -1.019,-0.925 0,0 -0.087,-0.031 -0.243,-0.173 C 0.108,12.8812 0,12.7472 0,12.7472 v -7.747 h 36 z"/></g><g id="g34"><path id="path30" style="fill:#ffffff;fill-opacity:1;fill-rule:nonzero;stroke:none" d="m 29.168,20.6201 c -0.217,0 -0.651,0.233 -1.062,0.539 -0.441,0.329 -0.85,0.738 -0.85,0.881 0,0.174 0.531,0.646 0.531,0.646 v 3.545 c 0,0 -0.084,0.052 -0.322,0.282 -0.237,0.229 -0.259,0.354 -0.259,0.354 h 4.417 c 0,0 -0.021,-0.125 -0.259,-0.354 -0.237,-0.23 -0.322,-0.282 -0.322,-0.282 v -3.545 c 0,0 0.531,-0.472 0.531,-0.646 0,-0.143 -0.409,-0.552 -0.849,-0.881 -0.41,-0.306 -0.846,-0.539 -1.063,-0.539 z"/><path id="path31" style="fill:#000000;fill-opacity:1;fill-rule:nonzero;stroke:none" d="m 29.2998,21.2627 c 0,0 -0.011,0.028 -0.009,0.067 0.008,0.233 0.62,3.208 0.625,3.275 0.004,0.067 -0.03,0.12 -0.158,0.197 -0.128,0.076 -0.214,0.164 -0.174,0.267 0.041,0.103 0.28,0.147 0.76,0.133 0.239,-0.007 0.325,-0.021 0.395,-0.056 0.097,-0.049 0.122,-0.099 0.165,-0.197 0.096,-0.213 -0.083,-0.291 -0.208,-0.332 -0.109,-0.035 -0.327,-0.078 -0.327,-0.078 0,0 -0.056,-0.05 -0.122,-0.311 -0.163,-0.65 -0.379,-2.004 -0.44,-2.307 -0.032,-0.159 -0.07,-0.252 -0.195,-0.393 -0.15,-0.171 -0.312,-0.265 -0.312,-0.265"/><path id="path32" style="fill:#000000;fill-opacity:1;fill-rule:nonzero;stroke:none" d="m 28.1279,22.1001 c 0,0 -0.01,0.026 -0.008,0.059 0.016,0.261 0.675,3.514 0.675,3.514 0,0 -0.266,0.133 -0.357,0.397 -0.092,0.264 0.005,0.46 0.336,0.46 0.276,0 0.687,-0.215 0.687,-0.215 0,0 0.349,-0.078 0.347,-0.379 0,-0.103 -0.053,-0.185 -0.146,-0.228 -0.149,-0.07 -0.337,-0.094 -0.337,-0.094 0,0 -0.061,-0.03 -0.14,-0.364 -0.08,-0.335 -0.445,-2.344 -0.511,-2.578 -0.086,-0.3 -0.546,-0.572 -0.546,-0.572"/></g><g id="g38"><path id="path40" style="fill:#bf0a30;fill-opacity:1;fill-rule:nonzero;stroke:none" d="m 0,22.333 h 12 v 0.82 H 0 Z"/><path id="path41" style="fill:#eeeeee;fill-opacity:1;fill-rule:nonzero;stroke:none" d="m 0,23.154 h 12 v 0.723 H 0 Z"/><path id="path42" style="fill:#bf0a30;fill-opacity:1;fill-rule:nonzero;stroke:none" d="M 0,23.876 H 12 V 24.73 H 0 Z"/><path id="path43" style="fill:#eeeeee;fill-opacity:1;fill-rule:nonzero;stroke:none" d="m 0,24.729 h 12 v 0.723 H 0 Z"/><path id="path44" style="fill:#bf0a30;fill-opacity:1;fill-rule:nonzero;stroke:none" d="m 0,25.452 h 12 v 0.854 H 0 Z"/><path id="path45" style="fill:#eeeeee;fill-opacity:1;fill-rule:nonzero;stroke:none" d="m 0,27.0278 v -0.028 -0.694 h 12 v 0.722 H 4 Z"/><path id="path46" style="fill:#bf0a30;fill-opacity:1;fill-rule:nonzero;stroke:none" d="m 4,27.028 h 8 v 0.854 H 4 Z"/><path id="path47" style="fill:#eeeeee;fill-opacity:1;fill-rule:nonzero;stroke:none" d="m 4,27.881 h 8 v 0.722 H 4 Z"/><path id="path48" style="fill:#bf0a30;fill-opacity:1;fill-rule:nonzero;stroke:none" d="m 4,28.604 h 8 v 0.854 H 4 Z"/><path id="path49" style="fill:#eeeeee;fill-opacity:1;fill-rule:nonzero;stroke:none" d="m 4,29.457 h 8 v 0.722 H 4 Z"/><path id="path50" style="fill:#bf0a30;fill-opacity:1;fill-rule:nonzero;stroke:none" d="m 4,30.179 h 8 V 31 H 4 Z"/><path id="path51" style="fill:#002868;fill-opacity:1;fill-rule:nonzero;stroke:none" d="m 2,28.4375 -0.693,-0.503 0.265,0.814 -0.693,0.503 H 1.735 L 2,30.0665 2.265,29.2515 h 0.856 l -0.693,-0.503 0.265,-0.814 z m 2,-0.556 v 0.722 0.854 0.722 0.821 H 0 v -3.973 h 4 z"/><path id="path52" style="fill:#ffffff;fill-opacity:1;fill-rule:nonzero;stroke:none" d="m 3.1206,29.2515 h -0.856 l -0.265,0.814 -0.264,-0.814 h -0.856 l 0.692,-0.503 -0.264,-0.814 0.692,0.503 0.693,-0.503 -0.264,0.814 z"/></g></g></g></g></svg>