<svg xmlns="http://www.w3.org/2000/svg" viewBox="0 0 45 45" enable-background="new 0 0 45 45"><defs><clipPath id="a"><path d="M0 36h36V0H0v36z"/></clipPath></defs><g><g><g clip-path="url(#a)" transform="matrix(1.25 0 0 -1.25 0 45)"><g><path fill="#8899a6" d="M5 0C3.9 0 3 .9 3 2v31c0 1.1.9 2 2 2s2-.9 2-2V2c0-1.1-.9-2-2-2"/></g><g><path fill="#aab8c2" d="M5 35c-1.1 0-2-.9-2-2V2c0-.28.22-.5.5-.5s.5.22.5.5v29.6c0 .77.63 1.4 1.4 1.4H7c0 1.1-.9 2-2 2"/></g><g><path fill="#8899a6" d="M5 0C3.9 0 3 .9 3 2v31c0 1.1.9 2 2 2s2-.9 2-2V2c0-1.1-.9-2-2-2"/></g><g><path fill="#aab8c2" d="M5 35c-1.1 0-2-.9-2-2V2c0-.28.22-.5.5-.5s.5.22.5.5v29.6c0 .77.63 1.4 1.4 1.4H7c0 1.1-.9 2-2 2"/></g><g><path fill="#e1e8ed" d="M32.41 32.9c-1.74.8-3.6 1.2-5.68 1.2-2.52 0-5.02-.57-7.44-1.13-2.42-.55-4.7-1.07-7-1.07-1.8 0-3.38.33-4.87 1-.3.15-.66.12-.94-.06-.3-.18-.46-.5-.46-.84V13c0-.4.23-.75.58-.9 1.76-.8 3.62-1.2 5.7-1.2 2.52 0 5.02.57 7.44 1.13 2.42.55 4.7 1.07 7 1.07 1.8 0 3.38-.33 4.87-1 .3-.15.65-.13.94.06.3.18.46.5.46.84v19c0 .4-.23.75-.58.9"/></g></g></g></g></svg>