<svg xmlns:dc="http://purl.org/dc/elements/1.1/" xmlns:cc="http://creativecommons.org/ns#" xmlns:rdf="http://www.w3.org/1999/02/22-rdf-syntax-ns#" xmlns:svg="http://www.w3.org/2000/svg" xmlns="http://www.w3.org/2000/svg" viewBox="0 0 45 45" style="enable-background:new 0 0 45 45;" xml:space="preserve" version="1.1" id="svg2"><metadata id="metadata8"><rdf:RDF><cc:Work rdf:about=""><dc:format>image/svg+xml</dc:format><dc:type rdf:resource="http://purl.org/dc/dcmitype/StillImage"/></cc:Work></rdf:RDF></metadata><defs id="defs6"><clipPath id="clipPath16" clipPathUnits="userSpaceOnUse"><path id="path18" d="M 4,31 C 1.791,31 0,29.209 0,27 L 0,27 0,9 C 0,6.791 1.791,5 4,5 l 0,0 28,0 c 2.209,0 4,1.791 4,4 l 0,0 0,18 c 0,2.209 -1.791,4 -4,4 l 0,0 -28,0 z"/></clipPath></defs><g transform="matrix(1.25,0,0,-1.25,0,45)" id="g10"><g id="g12"><g xmlns="http://www.w3.org/2000/svg" clip-path="url(#clipPath16)" id="g14"><g id="g3399"><path id="path3161" style="fill:#309acd;fill-opacity:1;fill-rule:nonzero;stroke:none" d="m 0,5 35.906,0 0,9.996 L 0,14.996 0,5 z"/><path id="path3161" style="fill:#f5e70f;fill-opacity:1;fill-rule:nonzero;stroke:none" d="m 0,14.997 35.906,0 0,6.007 -35.906,0 0,-6.007 z"/><path id="path3161" style="fill:#cd2f00;fill-opacity:1;fill-rule:nonzero;stroke:none" d="m 0,16.797 35.906,0 0,2.407 -35.906,0 0,-2.407 z"/><path id="path3161" style="fill:#309acd;fill-opacity:1;fill-rule:nonzero;stroke:none" d="m 0,21.003 35.906,0 0,9.996 -35.906,0 0,-9.996 z"/></g><g id="g3393"><path id="path3177" style="fill:#ffffff;fill-opacity:1;fill-rule:nonzero;stroke:none" d="m 14.2334,27.5747 0.417,-1.346 1.409,0.019 -1.151,-0.812 0.453,-1.334 -1.128,0.844 -1.128,-0.844 0.453,1.334 -1.151,0.812 1.409,-0.019 0.417,1.346 z"/><path id="path3177" style="fill:#ffffff;fill-opacity:1;fill-rule:nonzero;stroke:none" d="m 20.1709,14.0645 0.417,-1.346 1.409,0.02 -1.151,-0.813 0.454,-1.334 -1.129,0.844 -1.129,-0.844 0.454,1.334 -1.151,0.813 1.409,-0.02 0.417,1.346 z"/><path id="path3177" style="fill:#ffffff;fill-opacity:1;fill-rule:nonzero;stroke:none" d="m 25.9199,9.1348 0.31,-0.997 1.044,0.015 -0.854,-0.603 0.337,-0.989 -0.837,0.626 -0.836,-0.626 0.336,0.989 -0.854,0.603 1.045,-0.015 0.309,0.997 z"/><path id="path3177" style="fill:#ffffff;fill-opacity:1;fill-rule:nonzero;stroke:none" d="m 29.707,14.9004 0.309,-0.997 1.045,0.015 -0.854,-0.603 0.336,-0.989 -0.836,0.626 -0.837,-0.626 0.337,0.989 -0.854,0.603 1.044,-0.015 0.31,0.997 z"/></g><g id="g3388"><path id="path3179" style="fill:#009f60;fill-opacity:1;fill-rule:nonzero;stroke:none" d="m 0,21.003 9.996,0 0,9.996 -9.996,0 0,-9.996 z"/><path id="path3191" style="fill:#000000;fill-opacity:1;fill-rule:nonzero;stroke:none" d="m 4.3042,23.3096 c 0,0 -0.9,0.41 -1.402,1.398 -0.502,0.989 -0.447,1.663 -0.447,1.663 l 0,0.24 3.698,0 0,-0.24 c 0,0 0.054,-0.674 -0.448,-1.663 -0.502,-0.988 -1.401,-1.398 -1.401,-1.398"/><path id="path3195" style="fill:#f5e70f;fill-opacity:1;fill-rule:nonzero;stroke:none" d="m 4.3042,23.3096 c 0,0 -0.254,0.116 -0.567,0.372 l 0,2.929 -1.282,0 0,0.94 1.287,0 0,1.165 1.124,0 0,-1.165 1.287,0 0,-0.94 -1.282,0 0,-2.929 c -0.313,-0.256 -0.567,-0.372 -0.567,-0.372"/></g></g></g></g></svg>