<svg xmlns:dc="http://purl.org/dc/elements/1.1/" xmlns:cc="http://creativecommons.org/ns#" xmlns:rdf="http://www.w3.org/1999/02/22-rdf-syntax-ns#" xmlns:svg="http://www.w3.org/2000/svg" xmlns="http://www.w3.org/2000/svg" viewBox="0 0 45 45" style="enable-background:new 0 0 45 45;" xml:space="preserve" version="1.1" id="svg2"><metadata id="metadata8"><rdf:RDF><cc:Work rdf:about=""><dc:format>image/svg+xml</dc:format><dc:type rdf:resource="http://purl.org/dc/dcmitype/StillImage"/></cc:Work></rdf:RDF></metadata><defs id="defs6"><clipPath id="clipPath16" clipPathUnits="userSpaceOnUse"><path id="path18" d="M 0,36 36,36 36,0 0,0 0,36 Z"/></clipPath></defs><g transform="matrix(1.25,0,0,-1.25,0,45)" id="g10"><g id="g12"><g xmlns="http://www.w3.org/2000/svg" clip-path="url(#clipPath16)" id="g14"><g id="g30"><path id="path20" style="fill:#4b87ca;fill-opacity:1;fill-rule:nonzero;stroke:none" d="M 0,9 C 0,6.791 1.791,5 4,5 l 28,0 c 2.209,0 4,1.791 4,4 l 0,18 c 0,2.209 -1.791,4 -4,4 L 4,31 C 1.791,31 0,29.209 0,27 L 0,9 z"/></g><g id="g34"><path id="path30" style="fill:#e4e5e6;fill-opacity:1;fill-rule:nonzero;stroke:none" d="m 18,11.2529 c -1.086,0 -1.829,0.473 -2.351,0.898 -1.319,1.075 -1.176,2.792 -1.176,2.792 l 0,4.722 7.054,0 0,-4.722 c 0,0 0.144,-1.717 -1.176,-2.792 -0.523,-0.425 -1.265,-0.898 -2.351,-0.898"/><path id="path31" style="fill:#ee151f;fill-opacity:1;fill-rule:nonzero;stroke:none" d="m 21.527,19.665 -1.193,0 0,-1.423 1.193,0 0,1.423 z"/><path id="path32" style="fill:#ee151f;fill-opacity:1;fill-rule:nonzero;stroke:none" d="m 14.473,19.665 1.193,0 0,-1.423 -1.193,0 0,1.423 z"/><path id="path33" style="fill:#ee151f;fill-opacity:1;fill-rule:nonzero;stroke:none" d="m 17.292,19.665 1.416,0 0,-1.423 -1.416,0 0,1.423 z"/><path id="path34" style="fill:#ee151f;fill-opacity:1;fill-rule:nonzero;stroke:none" d="m 21.527,16.004 -1.193,0 0,1.13 1.193,0 0,-1.13 z"/><path id="path35" style="fill:#ee151f;fill-opacity:1;fill-rule:nonzero;stroke:none" d="m 14.473,16.004 1.193,0 0,1.13 -1.193,0 0,-1.13 z"/><path id="path36" style="fill:#ee151f;fill-opacity:1;fill-rule:nonzero;stroke:none" d="m 18.7852,11.3408 c 0.63,0.146 1.112,0.452 1.487,0.747 l -0.933,1.02 c -0.204,-0.143 -0.451,-0.277 -0.749,-0.356 l 0.195,-1.411 z"/><path id="path37" style="fill:#ee151f;fill-opacity:1;fill-rule:nonzero;stroke:none" d="m 17.2153,11.3408 c -0.63,0.146 -1.113,0.452 -1.488,0.747 l 0.933,1.02 c 0.205,-0.143 0.452,-0.277 0.75,-0.356 l -0.195,-1.411 z"/><path id="path38" style="fill:#ee151f;fill-opacity:1;fill-rule:nonzero;stroke:none" d="m 21.2305,13.3232 c 0.299,0.693 0.307,1.348 0.3,1.554 l -1.198,0 c -0.016,-0.248 -0.078,-0.652 -0.301,-1.043 l 1.199,-0.511 z"/><path id="path39" style="fill:#ee151f;fill-opacity:1;fill-rule:nonzero;stroke:none" d="m 14.77,13.3232 c -0.3,0.693 -0.307,1.348 -0.301,1.554 l 1.199,0 c 0.015,-0.248 0.078,-0.652 0.301,-1.043 l -1.199,-0.511 z"/><path id="path40" style="fill:#0072bd;fill-opacity:1;fill-rule:nonzero;stroke:none" d="m 18,12.6758 c -0.719,0 -1.209,0.313 -1.556,0.595 -0.872,0.711 -0.778,1.846 -0.778,1.846 l 0,3.125 4.668,0 0,-3.125 c 0,0 0.095,-1.135 -0.778,-1.846 -0.346,-0.282 -0.837,-0.595 -1.556,-0.595"/><path id="path41" style="fill:#e4e5e6;fill-opacity:1;fill-rule:nonzero;stroke:none" d="m 22.166,19.68 1.213,0 0,-7.588 -1.213,0 0,7.588 z"/><path id="path42" style="fill:#e4e5e6;fill-opacity:1;fill-rule:nonzero;stroke:none" d="m 13.834,19.68 -1.212,0 0,-7.588 1.212,0 0,7.588 z"/><path id="path43" style="fill:#ebc200;fill-opacity:1;fill-rule:nonzero;stroke:none" d="m 14.6646,19.6802 c 0,0 -0.129,0.891 -0.553,1.644 -0.423,0.752 -0.988,1.34 -0.988,1.34 0,0 0.706,0.099 1.118,-0.635 0.541,-0.964 0.87,-0.964 0.87,-0.964 0,0 -0.449,0.658 -0.494,1.011 -0.082,0.647 0.094,1.294 0.094,1.294 0,0 0.541,-0.247 0.93,-0.706 0.388,-0.458 0.176,-1.458 0.176,-1.458 0,0 1.153,0.035 1.247,1.235 0.094,1.2 -0.282,1.364 -0.282,1.364 l 0,0.601 2.435,0 0,-0.601 c 0,0 -0.377,-0.164 -0.282,-1.364 0.094,-1.2 1.247,-1.235 1.247,-1.235 0,0 -0.212,1 0.176,1.458 0.389,0.459 0.93,0.706 0.93,0.706 0,0 0.176,-0.647 0.094,-1.294 -0.046,-0.353 -0.494,-1.011 -0.494,-1.011 0,0 0.329,0 0.87,0.964 0.412,0.734 1.118,0.635 1.118,0.635 0,0 -0.565,-0.588 -0.988,-1.34 -0.424,-0.753 -0.554,-1.644 -0.554,-1.644 l -6.67,0 z"/><path id="path44" style="fill:#e4e5e6;fill-opacity:1;fill-rule:nonzero;stroke:none" d="m 18,26.2534 c -0.382,0 -0.891,0.002 -1.276,-0.127 -0.497,-0.166 -0.465,-0.385 -0.465,-0.385 0,0 0.01,-0.02 0.021,-0.073 0.012,-0.053 0.016,-0.118 0.016,-0.118 0,0 -0.329,0.059 -1.039,-0.152 -0.71,-0.212 -0.816,-0.563 -0.816,-0.563 0,0 -0.009,-0.071 0.012,-0.168 0.021,-0.097 0.076,-0.238 0.076,-0.238 0,0 -0.207,0.04 -0.449,0.168 -0.236,0.123 -0.526,0.194 -0.701,0.194 -0.364,0 -0.638,-0.139 -0.638,-0.139 0,0 0.083,-0.235 0.027,-0.438 -0.056,-0.203 -0.059,-0.403 -0.059,-0.403 0,0 -0.053,-0.094 0.07,-0.156 0.082,-0.04 0.383,-0.064 0.383,-0.064 0,0 -0.338,-0.103 -0.562,-0.327 -0.224,-0.223 -0.324,-0.488 -0.324,-0.488 0,0 0.118,0.118 0.362,0.256 0.244,0.138 0.4,0.138 0.4,0.138 0,0 -0.135,-0.153 -0.276,-0.444 -0.141,-0.291 -0.188,-0.472 -0.188,-0.472 0,0 0.199,0.276 0.503,0.49 0.2,0.141 0.39,0.231 0.799,0.311 0.228,0.046 0.207,0.224 0.207,0.309 0,0.086 -0.062,0.339 -0.062,0.339 0,0 0.405,-0.242 0.855,-0.242 0.451,0 0.454,0.374 0.454,0.374 0,0 -0.009,0.203 -0.103,0.335 -0.095,0.132 -0.153,0.271 -0.153,0.271 0,0 0.276,0.144 0.653,0.22 0.376,0.077 0.938,0.084 0.938,0.084 0,0 0.031,0.074 0.031,0.253 0,0.178 -0.031,0.251 -0.031,0.251 0,0 0.286,0.192 1.335,0.192 1.049,0 1.335,-0.192 1.335,-0.192 0,0 -0.031,-0.073 -0.031,-0.251 0,-0.179 0.031,-0.253 0.031,-0.253 0,0 0.562,-0.007 0.938,-0.084 0.377,-0.076 0.654,-0.22 0.654,-0.22 0,0 -0.06,-0.139 -0.154,-0.271 -0.093,-0.132 -0.102,-0.335 -0.102,-0.335 0,0 0.003,-0.374 0.452,-0.374 0.45,0 0.856,0.242 0.856,0.242 0,0 -0.061,-0.253 -0.061,-0.339 0,-0.085 -0.022,-0.263 0.205,-0.309 0.409,-0.08 0.6,-0.17 0.801,-0.311 0.303,-0.214 0.503,-0.49 0.503,-0.49 0,0 -0.047,0.181 -0.189,0.472 -0.141,0.291 -0.276,0.444 -0.276,0.444 0,0 0.155,0 0.399,-0.138 0.244,-0.138 0.363,-0.256 0.363,-0.256 0,0 -0.101,0.265 -0.324,0.488 -0.223,0.224 -0.562,0.327 -0.562,0.327 0,0 0.302,0.024 0.383,0.064 0.123,0.062 0.07,0.156 0.07,0.156 0,0 -0.003,0.2 -0.059,0.403 -0.055,0.203 0.027,0.438 0.027,0.438 0,0 -0.274,0.139 -0.639,0.139 -0.174,0 -0.464,-0.071 -0.699,-0.194 -0.242,-0.128 -0.45,-0.168 -0.45,-0.168 0,0 0.055,0.141 0.076,0.238 0.021,0.097 0.012,0.168 0.012,0.168 0,0 -0.106,0.351 -0.816,0.563 -0.71,0.211 -1.039,0.152 -1.039,0.152 0,0 0.004,0.065 0.016,0.118 0.011,0.053 0.021,0.073 0.021,0.073 0,0 0.032,0.219 -0.465,0.385 -0.384,0.129 -0.894,0.127 -1.276,0.127"/></g></g></g></g></svg>