<svg xmlns="http://www.w3.org/2000/svg" viewBox="0 0 45 45" enable-background="new 0 0 45 45"><defs><clipPath id="a"><path d="M0 36h36V0H0v36z"/></clipPath></defs><g><g><g clip-path="url(#a)" transform="matrix(1.25 0 0 -1.25 0 45)"><g><path fill="#c1694f" d="M21.28 31.72c-9 0-10.5-1.5-13-4s-4-4-4-13c0-11.18-2-14-1-14s3 2 3 4-2 13 5 20 18 5 20 5 4 2 4 3-2.82-1-14-1"/></g><g><path fill="#d99e82" d="M29.5 6.22c0-.28-.22-.5-.5-.5H3.78c-.28 0-.5.22-.5.5s.22.5.5.5H29c.28 0 .5-.22.5-.5"/></g><g><path fill="#d99e82" d="M29.78 6.5c-.28 0-.5.23-.5.5v25.22c0 .28.22.5.5.5.27 0 .5-.22.5-.5V7c0-.27-.23-.5-.5-.5"/></g><g><path fill="#99aab5" d="M0 36l2.8-8.52 2.13 3.56 3.52 2.1L0 36z"/></g><g><path fill="#dd2e44" d="M26.1 8.6c.35-1.9 0-3.56-.83-3.7-.8-.17-1.77 1.24-2.13 3.14-.36 1.9 0 3.57.8 3.72.83.16 1.78-1.25 2.15-3.15"/></g><g><path fill="#f4900c" d="M26.57 7.54c.36-1.9 0-3.57-.8-3.73-.83-.14-1.78 1.27-2.15 3.17-.36 1.9 0 3.57.82 3.72.8.15 1.77-1.27 2.13-3.16"/></g><g><path fill="#a0041e" d="M27.96 6.15c.36-1.9 0-3.57-.8-3.72-.83-.16-1.78 1.25-2.15 3.15-.35 1.9 0 3.56.82 3.72.82.16 1.77-1.26 2.14-3.15"/></g><g><path fill="#dd2e44" d="M29.37 4.73c.37-1.9 0-3.56-.8-3.72-.82-.14-1.78 1.27-2.14 3.17-.37 1.9 0 3.56.8 3.72.82.14 1.78-1.27 2.14-3.17"/></g><g><path fill="#dd2e44" d="M27.4 9.9c1.9-.35 3.56 0 3.7.83.17.8-1.24 1.77-3.14 2.13-1.9.36-3.57 0-3.72-.8-.16-.83 1.25-1.78 3.15-2.15"/></g><g><path fill="#f4900c" d="M28.46 9.43c1.9-.36 3.57 0 3.73.8.14.83-1.27 1.78-3.17 2.15-1.9.36-3.57 0-3.72-.82-.15-.8 1.27-1.77 3.16-2.13"/></g><g><path fill="#a0041e" d="M29.85 8.04c1.9-.36 3.57 0 3.72.8.16.83-1.25 1.78-3.15 2.15-1.9.35-3.56 0-3.72-.83-.16-.8 1.26-1.77 3.15-2.13"/></g><g><path fill="#dd2e44" d="M31.27 6.63c1.9-.37 3.56 0 3.72.8.14.82-1.27 1.78-3.17 2.14-1.9.37-3.56 0-3.72-.8-.14-.82 1.27-1.78 3.17-2.14"/></g><g><path fill="#ccd6dd" d="M30.38 7c.4-.38.4-1 0-1.4-.38-.37-1-.37-1.38.02L4.14 30.48c-.4.38-.4 1 0 1.38.38.4 1 .4 1.38 0L30.38 7z"/></g></g></g></g></svg>