<svg xmlns:dc="http://purl.org/dc/elements/1.1/" xmlns:cc="http://creativecommons.org/ns#" xmlns:rdf="http://www.w3.org/1999/02/22-rdf-syntax-ns#" xmlns:svg="http://www.w3.org/2000/svg" xmlns="http://www.w3.org/2000/svg" viewBox="0 0 45 45" style="enable-background:new 0 0 45 45;" xml:space="preserve" version="1.1" id="svg2"><metadata id="metadata8"><rdf:RDF><cc:Work rdf:about=""><dc:format>image/svg+xml</dc:format><dc:type rdf:resource="http://purl.org/dc/dcmitype/StillImage"/></cc:Work></rdf:RDF></metadata><defs id="defs6"><clipPath id="clipPath16" clipPathUnits="userSpaceOnUse"><path id="path18" d="M 0,36 36,36 36,0 0,0 0,36 Z"/></clipPath></defs><g transform="matrix(1.25,0,0,-1.25,0,45)" id="g10"><g id="g12"><g clip-path="url(#clipPath16)" id="g14"><g id="g20"><path id="path22" style="fill:#078930;fill-opacity:1;fill-rule:nonzero;stroke:none" d="M 8.752,5 H 32 c 2.209,0 4,1.791 4,4 v 4.12 H 8.752 Z"/></g><g id="g24"><path id="path26" style="fill:#141414;fill-opacity:1;fill-rule:nonzero;stroke:none" d="M 36,16.374 H 8.752 v 3.252 H 36 Z"/></g><g id="g28"><path id="path30" style="fill:#fcdd09;fill-opacity:1;fill-rule:nonzero;stroke:none" d="M 36,19.626 H 8.752 v 3.253 H 36 Z"/></g><g id="g32"><path id="path34" style="fill:#fcdd09;fill-opacity:1;fill-rule:nonzero;stroke:none" d="M 36,13.12 H 8.752 v 3.254 H 36 Z"/></g><g id="g36"><path id="path38" style="fill:#078930;fill-opacity:1;fill-rule:nonzero;stroke:none" d="M 32,31 H 8.752 V 22.88 H 36 V 27 c 0,2.209 -1.791,4 -4,4"/></g><g id="g40"><path id="path42" style="fill:#dc121a;fill-opacity:1;fill-rule:nonzero;stroke:none" d="M 8.752,31 H 4 C 1.791,31 0,29.209 0,27 V 9 C 0,6.791 1.791,5 4,5 h 4.752 z"/></g><g id="g44"><path id="path50" style="fill:#ffffff;fill-opacity:1;fill-rule:nonzero;stroke:none" d="m 4.3794,10.1396 -0.352,-1.07 -1.127,-0.004 0.91,-0.665 -0.345,-1.074 0.914,0.66 0.914,-0.66 -0.345,1.074 0.91,0.665 -1.127,0.004 z"/><path id="path51" style="fill:#ffffff;fill-opacity:1;fill-rule:nonzero;stroke:none" d="m 4.3794,13.9395 -0.352,-1.07 -1.127,-0.004 0.91,-0.665 -0.345,-1.074 0.914,0.66 0.914,-0.66 -0.345,1.074 0.91,0.665 -1.127,0.004 z"/><path id="path52" style="fill:#ffffff;fill-opacity:1;fill-rule:nonzero;stroke:none" d="m 4.3794,17.7393 -0.352,-1.07 -1.127,-0.004 0.91,-0.666 -0.345,-1.073 0.914,0.66 0.914,-0.66 -0.345,1.073 0.91,0.666 -1.127,0.004 z"/><path id="path53" style="fill:#ffffff;fill-opacity:1;fill-rule:nonzero;stroke:none" d="m 4.3794,21.5391 -0.352,-1.071 -1.127,-0.003 0.91,-0.666 -0.345,-1.073 0.914,0.659 0.914,-0.659 -0.345,1.073 0.91,0.666 -1.127,0.003 z"/><path id="path54" style="fill:#ffffff;fill-opacity:1;fill-rule:nonzero;stroke:none" d="m 4.3794,25.3389 -0.352,-1.071 -1.127,-0.004 0.91,-0.665 -0.345,-1.073 0.914,0.659 0.914,-0.659 -0.345,1.073 0.91,0.665 -1.127,0.004 z"/><path id="path55" style="fill:#ffffff;fill-opacity:1;fill-rule:nonzero;stroke:none" d="m 4.3794,29.1382 -0.352,-1.07 -1.127,-0.004 0.91,-0.666 -0.345,-1.073 0.914,0.66 0.914,-0.66 -0.345,1.073 0.91,0.666 -1.127,0.004 z"/></g></g></g></g></svg>