<svg xmlns:dc="http://purl.org/dc/elements/1.1/" xmlns:cc="http://creativecommons.org/ns#" xmlns:rdf="http://www.w3.org/1999/02/22-rdf-syntax-ns#" xmlns:svg="http://www.w3.org/2000/svg" xmlns="http://www.w3.org/2000/svg" viewBox="0 0 45 45" style="enable-background:new 0 0 45 45;" xml:space="preserve" version="1.1" id="svg2"><metadata id="metadata8"><rdf:RDF><cc:Work rdf:about=""><dc:format>image/svg+xml</dc:format><dc:type rdf:resource="http://purl.org/dc/dcmitype/StillImage"/></cc:Work></rdf:RDF></metadata><defs id="defs6"><clipPath id="clipPath16" clipPathUnits="userSpaceOnUse"><path id="path18" d="M 4,31 C 1.791,31 0,29.209 0,27 L 0,27 0,9 C 0,6.791 1.791,5 4,5 l 0,0 28,0 c 2.209,0 4,1.791 4,4 l 0,0 0,18 c 0,2.209 -1.791,4 -4,4 l 0,0 -28,0 z"/></clipPath></defs><g transform="matrix(1.25,0,0,-1.25,0,45)" id="g10"><g id="g12"><g xmlns="http://www.w3.org/2000/svg" clip-path="url(#clipPath16)" id="g14"><g id="g4099"><path id="path20" style="fill:#fcbe04;fill-opacity:1;fill-rule:nonzero;stroke:none" d="M 0,5 H 36 V 31 H 0 Z"/></g><g id="g4086"><path id="path21" style="fill:#b73524;fill-opacity:1;fill-rule:nonzero;stroke:none" d="m 29.166,6.1826 0.104,2.206 -0.213,0.452 -0.282,0.459 -0.304,1.349 0.279,0.002 0.281,-0.616 0.065,-0.297 c 0,0 0.105,-0.324 0.164,-0.378 0.057,-0.055 0.082,-0.068 0.082,-0.068 0,0 0.145,-0.015 0.192,-0.003 0.047,0.013 0.057,0.024 0.057,0.024 0,0 -0.25,0.08 -0.25,0.353 0,0.274 0.195,0.439 0.398,0.439 0.203,0 0.419,-0.172 0.419,-0.422 0,-0.25 -0.202,-0.365 -0.202,-0.365 l 0.38,0.053 c 0,0 0.14,0.145 0.185,0.242 0.055,0.114 0.055,0.228 0.055,0.228 l 0.515,0.828 0.251,-0.153 -0.206,-0.396 c 0,0 -0.078,-0.168 -0.12,-0.302 -0.021,-0.066 -0.042,-0.175 -0.042,-0.175 l -0.002,-0.091 -0.169,-0.351 -0.293,-0.287 -0.154,-0.424 0.058,-2.234 z"/><path id="path22" style="fill:#1b611f;fill-opacity:1;fill-rule:nonzero;stroke:none" d="m 28.749,9.4941 -0.105,0.479 -0.173,0.675 0.279,0.002 0.281,-0.616 c 0,0 0.122,0.05 0.304,0.104 0.183,0.052 0.449,0.08 0.634,0.017 0.184,-0.063 0.178,-0.083 0.305,-0.149 0.128,-0.067 0.302,-0.165 0.302,-0.165 l 0.515,0.828 0.251,-0.154 -0.206,-0.396 c 0,0 -0.078,-0.168 -0.12,-0.302 -0.021,-0.065 -0.042,-0.175 -0.042,-0.175 l -0.002,-0.09 0.005,-0.16 0.554,0.139 0.329,-0.206 1.014,0.296 0.567,0.826 -0.149,1.131 c 0,0 -0.214,0.249 -0.481,0.77 -0.224,0.441 -0.321,0.734 -0.321,0.734 l -1.021,0.808 v 0.468 l -0.498,0.265 -2.197,0.138 c 0,0 -0.372,-0.179 -0.613,-0.387 -0.26,-0.223 -0.593,-0.572 -0.593,-0.572 l -0.468,-1.045 -0.236,-0.002 c -0.243,0 -0.603,-0.312 -0.603,-0.312 l -0.152,-1.307 c 0,0 0.327,-1.038 0.508,-1.43 0.154,-0.331 0.313,-0.557 0.313,-0.557 l 0.515,0.119 c 0,0 0.457,-0.213 0.612,-0.213 0.155,0 0.28,0.058 0.394,0.18 0.113,0.121 0.298,0.259 0.298,0.259"/></g><g id="g4096"><path id="path30" style="fill:#fcfdfa;fill-opacity:1;fill-rule:nonzero;stroke:none" d="m 15.9453,20.0576 -2.063,-1.842 4.118,-5.194 4.117,5.194 -2.063,1.842 z"/><path id="path31" style="fill:#000000;fill-opacity:1;fill-rule:nonzero;stroke:none" d="m 22.2656,19.2612 -0.078,0.078 0.609,0.609 0.078,-0.078 z"/><path id="path32" style="fill:#000000;fill-opacity:1;fill-rule:nonzero;stroke:none" d="m 21.0303,20.1929 -0.096,0.055 0.431,0.749 0.096,-0.055 z"/><path id="path33" style="fill:#000000;fill-opacity:1;fill-rule:nonzero;stroke:none" d="m 19.7324,20.5327 -0.105,0.028 0.223,0.835 0.106,-0.029 z"/><path id="path34" style="fill:#000000;fill-opacity:1;fill-rule:nonzero;stroke:none" d="m 18.055,20.6 h -0.11 v 0.867 h 0.11 z"/><path id="path35" style="fill:#000000;fill-opacity:1;fill-rule:nonzero;stroke:none" d="m 16.2671,20.5327 -0.224,0.834 0.107,0.029 0.223,-0.835 z"/><path id="path36" style="fill:#000000;fill-opacity:1;fill-rule:nonzero;stroke:none" d="m 14.9692,20.1929 -0.43,0.749 0.096,0.055 0.43,-0.749 z"/><path id="path37" style="fill:#000000;fill-opacity:1;fill-rule:nonzero;stroke:none" d="m 13.7349,19.2612 -0.61,0.609 0.078,0.078 0.61,-0.609 z"/></g><g id="g38"><path id="path40" style="fill:#bf0a30;fill-opacity:1;fill-rule:nonzero;stroke:none" d="m 0,22.333 h 12 v 0.82 H 0 Z"/><path id="path41" style="fill:#eeeeee;fill-opacity:1;fill-rule:nonzero;stroke:none" d="m 0,23.154 h 12 v 0.723 H 0 Z"/><path id="path42" style="fill:#bf0a30;fill-opacity:1;fill-rule:nonzero;stroke:none" d="M 0,23.876 H 12 V 24.73 H 0 Z"/><path id="path43" style="fill:#eeeeee;fill-opacity:1;fill-rule:nonzero;stroke:none" d="m 0,24.729 h 12 v 0.723 H 0 Z"/><path id="path44" style="fill:#bf0a30;fill-opacity:1;fill-rule:nonzero;stroke:none" d="m 0,25.452 h 12 v 0.854 H 0 Z"/><path id="path45" style="fill:#eeeeee;fill-opacity:1;fill-rule:nonzero;stroke:none" d="m 0,27.0278 v -0.028 -0.694 h 12 v 0.722 H 4 Z"/><path id="path46" style="fill:#bf0a30;fill-opacity:1;fill-rule:nonzero;stroke:none" d="m 4,27.028 h 8 v 0.854 H 4 Z"/><path id="path47" style="fill:#eeeeee;fill-opacity:1;fill-rule:nonzero;stroke:none" d="m 4,27.881 h 8 v 0.722 H 4 Z"/><path id="path48" style="fill:#bf0a30;fill-opacity:1;fill-rule:nonzero;stroke:none" d="m 4,28.604 h 8 v 0.854 H 4 Z"/><path id="path49" style="fill:#eeeeee;fill-opacity:1;fill-rule:nonzero;stroke:none" d="m 4,29.457 h 8 v 0.722 H 4 Z"/><path id="path50" style="fill:#bf0a30;fill-opacity:1;fill-rule:nonzero;stroke:none" d="m 4,30.179 h 8 V 31 H 4 Z"/><path id="path51" style="fill:#002868;fill-opacity:1;fill-rule:nonzero;stroke:none" d="m 2,28.4375 -0.693,-0.503 0.265,0.814 -0.693,0.503 H 1.735 L 2,30.0665 2.265,29.2515 h 0.856 l -0.693,-0.503 0.265,-0.814 z m 2,-0.556 v 0.722 0.854 0.722 0.821 H 0 v -3.973 h 4 z"/><path id="path52" style="fill:#ffffff;fill-opacity:1;fill-rule:nonzero;stroke:none" d="m 3.1206,29.2515 h -0.856 l -0.265,0.814 -0.264,-0.814 h -0.856 l 0.692,-0.503 -0.264,-0.814 0.692,0.503 0.693,-0.503 -0.264,0.814 z"/></g></g></g></g></svg>