<svg xmlns="http://www.w3.org/2000/svg" viewBox="0 0 36 36"><path d="m 11.5063,31 h -7.506 c -2.209,0 -4,-1.791 -4,-4 V 9 c 0,-2.209 1.791,-4 4,-4 h 7.506 z" style="fill:#1db062"/><path d="M 24.494,31 H 11.506 V 5 h 12.988 z" style="fill:#eeeeee"/><path d="m 24.4941,5 h 7.506 c 2.209,0 4,1.791 4,4 v 18 c 0,2.209 -1.791,4 -4,4 h -7.506 z" style="fill:#94c9e9"/><path d="m 19.5371,11.1123 c 0,0.013 0,0.038 -0.012,0.05 l 2.287,0.55 -0.012,0.063 -2.325,-0.363 c 0.012,0.012 0.012,0.025 -0.012,0.038 l 2.125,0.987 -0.026,0.063 -2.187,-0.813 c 0,0.013 -0.013,0.038 -0.025,0.05 l 1.887,1.375 -0.037,0.05 -1.987,-1.225 c -0.013,0.013 -0.013,0.025 -0.038,0.038 l 1.588,1.725 -0.05,0.05 -1.726,-1.588 c -0.012,0.012 -0.025,0.025 -0.037,0.025 l 1.225,2 -0.05,0.038 -1.375,-1.9 c -0.013,0.012 -0.025,0.025 -0.05,0.025 l 0.813,2.2 -0.063,0.025 -0.988,-2.125 c -0.012,0.012 -0.025,0.012 -0.037,0.012 l 0.362,2.313 -0.062,0.012 -0.55,-2.275 h -0.05 l -0.088,2.35 h -0.062 l -0.1,-2.35 h -0.05 l -0.55,2.275 -0.063,-0.012 0.363,-2.313 c -0.013,0 -0.025,0 -0.038,-0.012 l -0.987,2.125 -0.063,-0.025 0.813,-2.2 c -0.025,0 -0.037,-0.013 -0.05,-0.025 l -1.375,1.9 -0.05,-0.038 1.225,-2 c -0.013,0 -0.025,-0.013 -0.037,-0.025 l -1.726,1.588 -0.05,-0.05 1.588,-1.725 c -0.025,-0.013 -0.025,-0.025 -0.038,-0.038 l -1.987,1.225 -0.037,-0.05 1.887,-1.375 c -0.012,-0.012 -0.025,-0.037 -0.025,-0.05 l -2.188,0.813 -0.025,-0.063 2.125,-0.987 c -0.024,-0.013 -0.024,-0.026 -0.012,-0.038 l -2.325,0.363 -0.013,-0.063 2.288,-0.55 c -0.013,-0.012 -0.013,-0.037 -0.013,-0.05 l -2.337,-0.1 v -0.062 l 2.337,-0.088 c 0,-0.012 0,-0.037 0.013,-0.05 l -2.288,-0.55 0.013,-0.062 2.325,0.362 c -0.012,-0.012 -0.012,-0.025 0.012,-0.037 l -2.125,-0.988 0.025,-0.062 2.188,0.812 c 0,-0.025 0.013,-0.037 0.025,-0.05 l -1.887,-1.375 0.037,-0.05 1.987,1.213 0.038,-0.038 -1.588,-1.725 0.05,-0.037 1.726,1.587 c 0.012,-0.025 0.024,-0.037 0.037,-0.037 l -1.225,-2 0.05,-0.025 1.375,1.887 c 0.013,-0.012 0.025,-0.025 0.05,-0.025 l -0.813,-2.2 0.063,-0.025 0.987,2.138 c 0.013,-0.025 0.025,-0.025 0.038,-0.013 l -0.363,-2.325 0.063,-0.013 0.55,2.288 c 0.012,-0.012 0.037,-0.012 0.05,-0.012 l 0.1,-2.338 h 0.05 l 0.1,2.338 c 0.013,0 0.037,0 0.05,0.012 l 0.55,-2.288 0.062,0.013 -0.362,2.325 c 0.012,-0.012 0.025,-0.012 0.037,0.013 l 0.988,-2.138 0.063,0.025 -0.813,2.2 c 0.025,0 0.037,0.013 0.05,0.025 l 1.375,-1.887 0.05,0.025 -1.225,2 c 0.012,0 0.025,0.012 0.037,0.037 l 1.726,-1.587 0.05,0.037 -1.588,1.725 c 0.012,0.013 0.025,0.025 0.038,0.038 l 1.987,-1.213 0.037,0.05 -1.887,1.375 c 0.012,0.013 0.025,0.025 0.025,0.05 l 2.187,-0.812 0.026,0.062 -2.125,0.988 c 0.024,0.012 0.024,0.025 0.012,0.037 l 2.325,-0.362 0.012,0.062 -2.287,0.55 c 0.012,0.013 0.012,0.038 0.012,0.05 l 2.338,0.088 v 0.062 z" style="fill:#fcbf49"/><path d="m 15.4043,25.3975 c 0,-0.052 -0.042,-0.094 -0.093,-0.094 -0.052,0 -0.093,0.042 -0.093,0.094 0,0.051 0.041,0.093 0.093,0.093 0.051,0 0.093,-0.042 0.093,-0.093 m -0.353,0.279 c 0,-0.051 -0.042,-0.093 -0.093,-0.093 -0.052,0 -0.093,0.042 -0.093,0.093 0,0.051 0.041,0.093 0.093,0.093 0.051,0 0.093,-0.042 0.093,-0.093 m -0.071,-0.434 c 0,-0.051 -0.042,-0.093 -0.093,-0.093 -0.051,0 -0.093,0.042 -0.093,0.093 0,0.051 0.042,0.093 0.093,0.093 0.051,0 0.093,-0.042 0.093,-0.093 m 4.377,-1.946 c 0.073,0.093 0.142,0.226 0.206,0.39 0.268,-0.335 0.559,-0.65 0.893,-0.929 -0.211,-0.171 -0.406,-0.366 -0.584,-0.59 -0.168,0.428 -0.34,0.795 -0.515,1.129 m 3.106,-0.872 c 0,0.438 -0.388,0.526 -0.713,0.401 -0.325,-0.125 -0.537,-0.026 -1.013,0.45 -0.5,0.512 -0.925,0.912 -0.925,0.912 0,0 0.475,0.188 0.475,0.425 0,0.163 -0.4,0.237 -0.6,0.263 -0.338,0.049 -0.525,0.099 -0.575,0.287 -0.062,0.213 -0.024,0.613 -0.024,0.613 h -2.226 v -0.013 c 0.688,-0.2 1.175,-0.5 1.413,-0.925 l -0.013,-0.488 0.263,-0.125 -0.05,-0.074 c -0.438,-0.301 -1.413,-0.25 -2.775,0.037 -0.025,0.425 -0.138,0.662 -0.325,0.775 l -0.025,0.087 c 0.15,0.088 0.237,0.25 0.237,0.438 0,0.288 -0.237,0.525 -0.537,0.525 -0.3,0 -0.538,-0.237 -0.538,-0.525 0,-0.3 0.238,-0.537 0.538,-0.537 0.012,0 0.025,0 0.037,0.012 l 0.025,-0.075 c -0.087,-0.1 -0.062,-0.275 0.05,-0.538 0,0 -0.637,0.138 -1.05,0 -0.312,-0.087 -0.537,-0.474 -0.537,-0.75 0,-0.537 0.537,-0.55 0.812,-0.375 0.363,0.238 0.213,0.551 0.2,0.551 0,0 0.75,0.012 0.913,-0.138 0.225,-0.213 0.087,-0.737 0.387,-0.737 0.063,0 0.15,0.05 0.15,0.125 0,0.05 -0.037,0.137 -0.075,0.237 -0.1,0.175 -0.05,0.225 -0.05,0.225 1.288,-0.712 2.338,-0.9 3.15,-0.475 0,0 0.338,-1.4 0.95,-1.737 0.238,-0.125 0.513,-0.226 0.75,-0.163 0.225,0.062 0.288,0.275 0.288,0.375 0,0.288 -0.313,0.463 -0.576,0.2 -0.274,-0.275 -0.511,0.287 -0.511,0.287 l 0.662,0.625 c 0,0 0.588,-0.587 1.125,-0.712 0.338,-0.075 0.713,0.188 0.713,0.537" style="fill:#c24900"/><g id="g20"><path d="m 18.34,16.787 h -0.681 v 0.681 h 0.681 z" style="fill:#fcbf49"/><path d="m 19.715,16.956 h -0.681 v 0.681 h 0.681 z" style="fill:#fcbf49"/><path d="m 21.031,17.47 h -0.68 v 0.681 h 0.68 z" style="fill:#fcbf49"/><path d="m 22.179,18.296 h -0.681 v 0.681 h 0.681 z" style="fill:#fcbf49"/><path d="m 23.085,19.382 h -0.68 v 0.68 h 0.68 z" style="fill:#fcbf49"/><path d="m 23.693,20.657 h -0.681 v 0.681 h 0.681 z" style="fill:#fcbf49"/><path d="m 23.963,22.046 h -0.681 v 0.68 h 0.681 z" style="fill:#fcbf49"/><path d="m 23.88,23.457 h -0.681 v 0.681 h 0.681 z" style="fill:#fcbf49"/><path d="m 23.448,24.804 h -0.681 v 0.68 h 0.681 z" style="fill:#fcbf49"/><path d="m 22.694,25.999 h -0.681 v 0.681 h 0.681 z" style="fill:#fcbf49"/><path d="m 21.666,26.971 h -0.68 v 0.68 h 0.68 z" style="fill:#fcbf49"/><path d="m 20.43,27.656 h -0.68 v 0.68 h 0.68 z" style="fill:#fcbf49"/><path d="m 19.062,28.011 h -0.68 v 0.681 h 0.68 z" style="fill:#fcbf49"/><path d="m 17.647,28.014 h -0.68 v 0.681 h 0.68 z" style="fill:#fcbf49"/><path d="m 16.277,27.667 h -0.681 v 0.68 h 0.681 z" style="fill:#fcbf49"/><path d="m 15.038,26.987 h -0.681 v 0.681 h 0.681 z" style="fill:#fcbf49"/><path d="m 14.005,26.021 h -0.68 v 0.681 h 0.68 z" style="fill:#fcbf49"/><path d="m 13.245,24.83 h -0.681 v 0.68 h 0.681 z" style="fill:#fcbf49"/><path d="m 12.806,23.485 h -0.68 v 0.681 h 0.68 z" style="fill:#fcbf49"/><path d="m 12.716,22.074 h -0.68 v 0.681 h 0.68 z" style="fill:#fcbf49"/><path d="m 12.978,20.686 h -0.681 v 0.68 h 0.681 z" style="fill:#fcbf49"/><path d="m 13.58,19.406 h -0.681 v 0.68 h 0.681 z" style="fill:#fcbf49"/><path d="m 14.48,18.316 h -0.681 v 0.68 h 0.681 z" style="fill:#fcbf49"/><path d="m 15.623,17.484 h -0.68 v 0.68 h 0.68 z" style="fill:#fcbf49"/><path d="m 16.937,16.963 h -0.681 v 0.68 h 0.681 z" style="fill:#fcbf49"/></g></svg>