<svg xmlns:dc="http://purl.org/dc/elements/1.1/" xmlns:cc="http://creativecommons.org/ns#" xmlns:rdf="http://www.w3.org/1999/02/22-rdf-syntax-ns#" xmlns:svg="http://www.w3.org/2000/svg" xmlns="http://www.w3.org/2000/svg" viewBox="0 0 45 45" style="enable-background:new 0 0 45 45;" xml:space="preserve" version="1.1" id="svg2"><metadata id="metadata8"><rdf:RDF><cc:Work rdf:about=""><dc:format>image/svg+xml</dc:format><dc:type rdf:resource="http://purl.org/dc/dcmitype/StillImage"/></cc:Work></rdf:RDF></metadata><defs id="defs6"><clipPath id="clipPath16" clipPathUnits="userSpaceOnUse"><path id="path18" d="M 4,31 C 1.791,31 0,29.209 0,27 L 0,27 0,9 C 0,6.791 1.791,5 4,5 l 0,0 28,0 c 2.209,0 4,1.791 4,4 l 0,0 0,18 c 0,2.209 -1.791,4 -4,4 l 0,0 -28,0 z"/></clipPath><clipPath id="clipPath28" clipPathUnits="userSpaceOnUse"><path id="path30" d="M 0,36 36,36 36,0 0,0 0,36 Z"/></clipPath></defs><g transform="matrix(1.25,0,0,-1.25,0,45)" id="g10"><g id="g12"><g xmlns="http://www.w3.org/2000/svg" clip-path="url(#clipPath16)" id="g14"><g id="g30"><path id="path20" style="fill:#5ab532;fill-opacity:1;fill-rule:nonzero;stroke:none" d="M 0,18 0,9 C 0,6.791 1.791,5 4,5 l 28,0 c 2.209,0 4,1.791 4,4 l 0,9 -36,0 z"/></g><g id="g34"><path id="path30" style="fill:#eeeeee;fill-opacity:1;fill-rule:nonzero;stroke:none" d="m 36,18 0,9 c 0,2.209 -1.791,4 -4,4 L 4,31 C 1.791,31 0,29.209 0,27 l 0,-9 36,0 z"/></g><g id="g38"><path id="path40" style="fill:#2b5df2;fill-opacity:1;fill-rule:nonzero;stroke:none" d="m 5.1157,26.0688 0,-6.194 c 0,0 -0.246,-3.359 2.301,-6.687 0.236,-0.309 0.475,-0.599 0.715,-0.869 0,0 0.937,0.578 1.459,0.578 0.713,0 1.223,-0.416 1.223,-0.416 0,0 0.651,0.521 1.496,0.521 0.845,0 1.496,-0.521 1.496,-0.521 0,0 0.51,0.416 1.224,0.416 0.521,0 1.459,-0.578 1.459,-0.578 0.239,0.27 0.478,0.56 0.714,0.869 2.547,3.328 2.301,6.687 2.301,6.687 l 0,6.194 -14.388,0 z"/><path id="path41" style="fill:#ffffff;fill-opacity:1;fill-rule:nonzero;stroke:none" d="m 12.3096,14.7627 c -0.425,0 -0.899,-0.177 -0.899,-0.772 0,-0.259 -0.002,-0.965 -0.002,-1.176 -0.364,-0.15 -0.595,-0.334 -0.595,-0.334 0,0 -0.51,0.416 -1.223,0.416 -0.257,0 -0.616,-0.141 -0.913,-0.283 l -0.044,2.755 -0.436,0.473 0,0.698 0.763,0 0,1.492 1.706,0 0,-1.492 0.789,0 0,1.492 1.708,0 0,-1.492 0.79,0 0,1.492 1.706,0 0,-1.492 0.762,0 0,-0.698 -0.436,-0.473 -0.043,-2.755 c -0.297,0.142 -0.656,0.283 -0.913,0.283 -0.714,0 -1.224,-0.416 -1.224,-0.416 0,0 -0.231,0.184 -0.595,0.334 0,0.211 -10e-4,0.917 -10e-4,1.176 0,0.595 -0.474,0.772 -0.9,0.772"/><path id="path42" style="fill:#5ab532;fill-opacity:1;fill-rule:nonzero;stroke:none" d="m 12.1968,19.0288 c 0,0 0.107,0.273 -0.013,0.489 -0.077,0.14 -0.535,0.417 -0.835,0.206 -0.3,-0.212 -0.31,-0.485 -0.767,-0.63 -0.145,-0.046 -0.233,-0.025 -0.264,0.008 -0.031,0.032 0.065,0.274 0.025,0.425 -0.061,0.23 -0.304,0.066 -0.567,-0.122 -0.28,-0.2 -0.478,-0.166 -0.389,0.1 0.086,0.254 -0.099,0.308 -0.459,0.039 -0.352,-0.263 -0.388,-0.147 -0.388,0.162 0,0.194 -0.168,0.183 -0.343,0.169 -0.164,-0.013 -0.336,-0.005 -0.336,0.149 0,0.291 0.51,0.235 0.634,0.37 0.109,0.119 0.014,0.314 0.131,0.403 0.132,0.101 0.667,-0.272 0.789,-0.169 0.119,0.101 -0.085,0.317 0.059,0.414 0.069,0.046 0.257,-0.042 0.422,-0.2 0.166,-0.158 0.357,-0.266 0.522,-0.206 0.093,0.034 0.1,0.122 0.096,0.215 -0.006,0.136 0.012,0.161 0.012,0.161 0,0 0.229,0.148 0.529,-0.209 0.318,-0.378 0.296,-0.598 0.624,-0.817 0.366,-0.243 0.536,-0.311 0.536,-0.311 0,0 -0.014,0.161 0.019,0.356 0.033,0.196 -0.005,0.304 -0.025,0.338 -0.02,0.035 -0.225,0.355 -0.449,0.586 -0.223,0.231 -0.565,0.528 -0.565,0.528 0,0 0.017,0.006 0.029,0.042 0.013,0.036 0.019,0.087 0.019,0.087 0,0 0.264,-0.307 0.522,-0.571 0.258,-0.264 0.303,-0.334 0.404,-0.426 0.062,-0.056 0.079,-0.043 0.079,-0.043 0,0 0.006,0.589 -0.061,0.705 -0.066,0.115 -0.661,0.6 -0.82,0.825 -0.159,0.226 -0.273,0.475 -0.024,0.58 0.25,0.106 0.298,0.089 0.298,0.154 0,0.064 -0.125,0.258 -0.255,0.511 -0.129,0.253 -0.092,0.453 -0.092,0.453 0,0 0.075,0.045 0.243,-0.012 0.169,-0.056 0.273,-0.041 0.273,0.085 0,0.125 -0.234,0.458 -0.25,0.67 -0.014,0.185 0.055,0.263 0.055,0.263 0,0 0.059,0.012 0.157,-0.026 0.098,-0.037 0.171,-0.019 0.171,-0.019 0,0 0.087,0.012 0.078,0.276 -0.01,0.265 0.022,0.557 0.289,0.557 0.267,0 0.299,-0.292 0.289,-0.557 -0.009,-0.264 0.078,-0.276 0.078,-0.276 0,0 0.073,-0.018 0.171,0.019 0.099,0.038 0.157,0.026 0.157,0.026 0,0 0.069,-0.078 0.055,-0.263 -0.016,-0.212 -0.25,-0.545 -0.25,-0.67 0,-0.126 0.104,-0.141 0.273,-0.085 0.168,0.057 0.243,0.012 0.243,0.012 0,0 0.037,-0.2 -0.092,-0.453 -0.13,-0.253 -0.255,-0.447 -0.255,-0.511 0,-0.065 0.049,-0.048 0.298,-0.154 0.249,-0.105 0.135,-0.354 -0.024,-0.58 -0.159,-0.225 -0.754,-0.71 -0.821,-0.825 -0.066,-0.116 -0.06,-0.705 -0.06,-0.705 0,0 0.017,-0.013 0.079,0.043 0.1,0.092 0.146,0.162 0.404,0.426 0.258,0.264 0.522,0.571 0.522,0.571 0,0 0.006,-0.051 0.019,-0.087 0.012,-0.036 0.029,-0.042 0.029,-0.042 0,0 -0.342,-0.297 -0.565,-0.528 -0.224,-0.231 -0.429,-0.551 -0.449,-0.586 -0.02,-0.034 -0.058,-0.142 -0.025,-0.338 0.033,-0.195 0.019,-0.356 0.019,-0.356 0,0 0.17,0.068 0.536,0.311 0.328,0.219 0.306,0.439 0.624,0.817 0.3,0.357 0.529,0.209 0.529,0.209 0,0 0.019,-0.025 0.012,-0.161 -0.004,-0.093 0.003,-0.181 0.096,-0.215 0.165,-0.06 0.356,0.048 0.522,0.206 0.165,0.158 0.353,0.246 0.422,0.2 0.144,-0.097 -0.06,-0.313 0.059,-0.414 0.122,-0.103 0.657,0.27 0.789,0.169 0.117,-0.089 0.022,-0.284 0.131,-0.403 0.124,-0.135 0.634,-0.079 0.634,-0.37 0,-0.154 -0.172,-0.162 -0.335,-0.149 -0.176,0.014 -0.344,0.025 -0.344,-0.169 0,-0.309 -0.036,-0.425 -0.388,-0.162 -0.36,0.269 -0.545,0.215 -0.459,-0.039 0.089,-0.266 -0.109,-0.3 -0.389,-0.1 -0.263,0.188 -0.506,0.352 -0.567,0.122 -0.04,-0.151 0.056,-0.393 0.025,-0.425 -0.031,-0.033 -0.119,-0.054 -0.264,-0.008 -0.457,0.145 -0.467,0.418 -0.767,0.63 -0.3,0.211 -0.758,-0.066 -0.836,-0.206 -0.119,-0.216 -0.012,-0.489 -0.012,-0.489"/><path id="path43" style="fill:#e20909;fill-opacity:1;fill-rule:nonzero;stroke:none" d="m 13.7529,18.0313 1.053,1.116 1.053,-1.116 -2.106,0 z"/><path id="path44" style="fill:#e20909;fill-opacity:1;fill-rule:nonzero;stroke:none" d="m 11.2554,18.0313 1.054,1.116 1.055,-1.116 -2.109,0 z"/><path id="path45" style="fill:#e20909;fill-opacity:1;fill-rule:nonzero;stroke:none" d="m 10.8667,18.0313 -1.053,1.116 -1.053,-1.116 2.106,0 z"/><path id="path46" style="fill:#fcef3c;fill-opacity:1;fill-rule:nonzero;stroke:none" d="m 14.1353,22.7236 c 0,0 1.064,0.703 1.324,0.206 0.37,-0.709 -0.777,-1.241 -0.777,-1.241 l -0.585,0.4 0.038,0.635 z"/><path id="path47" style="fill:#fcef3c;fill-opacity:1;fill-rule:nonzero;stroke:none" d="m 10.4844,22.7236 c 0,0 -1.064,0.703 -1.324,0.206 -0.37,-0.709 0.777,-1.241 0.777,-1.241 l 0.585,0.4 -0.038,0.635 z"/><path id="path48" style="fill:#e20909;fill-opacity:1;fill-rule:nonzero;stroke:none" d="m 14.1353,22.7236 c 0,0 -0.016,-0.287 0.112,-0.532 0.128,-0.248 0.435,-0.503 0.435,-0.503 0,0 -0.086,-0.247 -0.385,-0.271 -0.221,-0.018 -0.416,0.101 -0.606,0.123 -0.181,0.021 -0.266,-0.058 -0.266,-0.058 l -0.066,0.034 0.017,0.096 c 0,0 0.192,0.199 0.209,0.364 0.018,0.164 0.018,0.426 0.147,0.559 0.182,0.188 0.403,0.188 0.403,0.188"/><path id="path49" style="fill:#e20909;fill-opacity:1;fill-rule:nonzero;stroke:none" d="m 10.4844,22.7236 c 0,0 0.016,-0.287 -0.112,-0.532 -0.128,-0.248 -0.435,-0.503 -0.435,-0.503 0,0 0.086,-0.247 0.385,-0.271 0.221,-0.018 0.416,0.101 0.606,0.123 0.181,0.021 0.266,-0.058 0.266,-0.058 l 0.066,0.034 -0.017,0.096 c 0,0 -0.192,0.199 -0.209,0.364 -0.018,0.164 -0.018,0.426 -0.147,0.559 -0.182,0.188 -0.403,0.188 -0.403,0.188"/><path id="path50" style="fill:#ffffff;fill-opacity:1;fill-rule:nonzero;stroke:none" d="m 17.4326,21.6592 -0.57,0.891 -0.995,-0.024 0.557,1.119 -0.592,0.966 1.089,-0.166 0.511,1.085 0.511,-1.085 1.09,0.166 -0.593,-0.966 0.557,-1.119 -0.995,0.024 -0.57,-0.891 z"/><path id="path51" style="fill:#ffffff;fill-opacity:1;fill-rule:nonzero;stroke:none" d="m 8.3735,25.0942 c 0,0 -0.791,0.029 -1.128,-0.363 -0.155,-0.179 -0.29,-0.406 -0.359,-0.723 -0.035,-0.163 0.148,-0.278 0.258,-0.433 0.084,-0.117 0.054,-0.253 0.054,-0.253 0,0 -0.039,-0.027 -0.134,-0.016 -0.094,0.011 -0.133,-0.016 -0.133,-0.016 0,0 -10e-4,-0.105 0.037,-0.162 0.038,-0.057 0.047,-0.133 0.047,-0.133 0,0 -0.021,-0.028 -0.109,-0.031 -0.088,-0.003 -0.108,-0.014 -0.108,-0.014 0,0 0.014,-0.044 0.126,-0.038 0.095,0.006 0.138,-0.028 0.14,-0.044 0.014,-0.104 -0.076,-0.243 -0.076,-0.272 0,-0.048 0.112,-0.037 0.127,-0.051 0.016,-0.014 -0.035,-0.249 0.165,-0.359 0.381,-0.209 1.18,0.032 1.18,0.032 0,0 -0.416,-0.554 -1.153,-0.554 -0.91,0 -1.737,0.855 -1.737,1.824 0,1.274 0.859,1.998 1.769,1.998 0.659,0 1.034,-0.392 1.034,-0.392"/></g></g></g></g></svg>