<svg xmlns:dc="http://purl.org/dc/elements/1.1/" xmlns:cc="http://creativecommons.org/ns#" xmlns:rdf="http://www.w3.org/1999/02/22-rdf-syntax-ns#" xmlns:svg="http://www.w3.org/2000/svg" xmlns="http://www.w3.org/2000/svg" viewBox="0 0 45 45" style="enable-background:new 0 0 45 45;" xml:space="preserve" version="1.1" id="svg2"><metadata id="metadata8"><rdf:RDF><cc:Work rdf:about=""><dc:format>image/svg+xml</dc:format><dc:type rdf:resource="http://purl.org/dc/dcmitype/StillImage"/></cc:Work></rdf:RDF></metadata><defs id="defs6"><clipPath id="clipPath16" clipPathUnits="userSpaceOnUse"><path id="path18" d="M 0,36 36,36 36,0 0,0 0,36 Z"/></clipPath></defs><g transform="matrix(1.25,0,0,-1.25,0,45)" id="g10"><g id="g12"><g clip-path="url(#clipPath16)" id="g14"><g id="g20"><path id="path22" style="fill:#eeeeee;fill-opacity:1;fill-rule:nonzero;stroke:none" d="m 22.4092,18 h 13.591 V 9 c 0,-2.209 -1.791,-4 -4,-4 h -9.591 z"/></g><g id="g24"><path id="path26" style="fill:#ffd203;fill-opacity:1;fill-rule:nonzero;stroke:none" d="M 36,27 V 18 H 22.41 V 5 H 4 C 1.79,5 0,6.79 0,9 v 18 c 0,2.21 1.79,4 4,4 h 28 c 2.21,0 4,-1.79 4,-4"/></g><g id="g28"><path id="path30" style="fill:#ed2939;fill-opacity:1;fill-rule:nonzero;stroke:none" d="m 19.753,5 h -2.657 v 26 h 2.657 z"/></g><g id="g32"><path id="path34" style="fill:#ed2939;fill-opacity:1;fill-rule:nonzero;stroke:none" d="m 14.439,5 h -2.657 v 26 h 2.657 z"/></g><g id="g36"><path id="path38" style="fill:#ed2939;fill-opacity:1;fill-rule:nonzero;stroke:none" d="M 9.126,5 H 6.469 v 26 h 2.657 z"/></g><g id="g40"><path id="path42" style="fill:#ed2939;fill-opacity:1;fill-rule:nonzero;stroke:none" d="M 3.813,30.9961 V 5.0041 c -1.038,0.048 -1.972,0.491 -2.657,1.181 v 23.629 c 0.685,0.691 1.619,1.134 2.657,1.182"/></g><g id="g46"><path id="path50" style="fill:#002395;fill-opacity:1;fill-rule:nonzero;stroke:none" d="m 32.7429,7.5303 v -1.48 h -7.46 v 1.39 c 0.1,0.05 0.24,0.09 0.43,0.09 0.66,0 0.66,-0.44 0.97,-0.44 0.3,0 0.4,0.429 0.88,0.429 0.48,0 0.51,-0.429 0.83,-0.429 0.31,0 0.35,0.41 0.83,0.41 0.48,0 0.53,-0.41 0.84,-0.41 0.32,0 0.35,0.429 0.83,0.429 0.47,0 0.57,-0.429 0.88,-0.429 0.31,0 0.31,0.44 0.97,0.44"/><path id="path52" style="fill:#ffffff;fill-opacity:1;fill-rule:nonzero;stroke:none" d="m 32.7429,6.9805 v -0.33 c -0.29,0 -0.38,-0.441 -0.85,-0.441 -0.43,0 -0.58,0.43 -0.94,0.43 -0.29,0 -0.35,-0.43 -0.85,-0.43 -0.47,0 -0.56,0.411 -0.88,0.411 -0.32,0 -0.4,-0.411 -0.87,-0.411 -0.5,0 -0.56,0.43 -0.85,0.43 -0.37,0 -0.51,-0.43 -0.94,-0.43 -0.47,0 -0.56,0.441 -0.85,0.441 -0.17,0 -0.28,-0.16 -0.43,-0.28 v 0.439 c 0.11,0.091 0.24,0.171 0.43,0.171 0.44,0 0.58,-0.44 0.85,-0.44 0.3,0 0.4,0.429 0.94,0.429 0.46,0 0.54,-0.429 0.85,-0.429 0.3,0 0.44,0.419 0.87,0.419 0.44,0 0.57,-0.419 0.88,-0.419 0.31,0 0.38,0.429 0.85,0.429 0.54,0 0.64,-0.429 0.94,-0.429 0.27,0 0.41,0.44 0.85,0.44"/><path id="path54" style="fill:#000000;fill-opacity:1;fill-rule:nonzero;stroke:none" d="m 25.5554,7.5205 c 0.049,0.006 0.101,0.01 0.157,0.01 0.66,0 0.66,-0.441 0.971,-0.441 0.3,0 0.399,0.43 0.88,0.43 0.479,0 0.51,-0.43 0.83,-0.43 0.309,0 0.35,0.41 0.83,0.41 0.479,0 0.529,-0.41 0.84,-0.41 0.319,0 0.349,0.43 0.83,0.43 0.47,0 0.569,-0.43 0.88,-0.43 0.287,0 0.307,0.379 0.836,0.434 0,0 -0.022,0.204 -0.15,0.398 -0.166,0.255 -0.278,0.202 -0.366,0.269 -0.048,0.036 -0.121,0.208 -0.194,0.325 -0.06,0.097 -0.127,0.16 -0.127,0.16 -0.139,0.053 -0.334,0.098 -0.587,0.084 -0.131,-0.007 -0.23,-0.059 -0.298,-0.115 0,0 -0.091,-0.275 -0.19,-0.368 -0.159,-0.148 -0.267,-0.551 -0.267,-0.551 0,0 -0.122,0.179 -0.211,0.341 -0.116,0.21 -0.133,0.177 -0.316,0.284 -0.123,0.073 -0.108,0.241 -0.182,0.387 -0.073,0.141 -0.221,0.264 -0.475,0.264 -0.206,0 -0.411,-0.085 -0.508,-0.139 -0.18,-0.101 -0.141,-0.197 -0.194,-0.351 -0.058,-0.168 -0.276,-0.31 -0.416,-0.488 -0.108,-0.139 -0.117,-0.282 -0.117,-0.282 0,0 -0.029,0.07 -0.124,0.169 -0.094,0.097 -0.144,0.056 -0.229,0.193 -0.084,0.138 -0.033,0.303 -0.165,0.521 -0.112,0.079 -0.28,0.17 -0.455,0.175 -0.325,0.011 -0.642,-0.258 -0.642,-0.258 0,0 -0.005,0.008 -0.012,0.026 -0.2,-0.147 -0.47,-0.375 -0.55,-0.552 -0.035,-0.077 -0.06,-0.183 -0.109,-0.257 -0.097,-0.146 -0.17,-0.238 -0.17,-0.238"/><path id="path56" style="fill:#ed2939;fill-opacity:1;fill-rule:nonzero;stroke:none" d="m 29.1306,15.2666 c -0.057,0.122 -0.217,0.221 -0.281,0.194 -0.079,-0.033 -0.142,-0.017 -0.219,0.071 -0.076,0.088 -0.177,0.088 -0.234,-0.008 -0.058,-0.096 -0.091,-0.133 -0.091,-0.133 0,0 -0.115,0.088 -0.079,0.261 0.043,0.208 0.242,0.249 0.263,0.26 0.023,0.01 0.172,0.093 0.172,0.107 0,0.008 -0.007,0.026 -0.009,0.064 -0.001,0.03 -0.001,0.08 0.003,0.089 0.008,0.022 0.022,0.026 0.022,0.026 0,0 -0.022,0.126 -0.036,0.254 -0.014,0.128 -0.024,0.304 -0.024,0.304 l 0.149,-0.488 0.061,0.526 0.125,-0.503 0.094,0.524 0.103,-0.515 0.119,0.515 0.067,-0.521 0.151,0.506 0.014,-0.52 0.194,0.467 0.006,-0.506 0.172,0.394 c 0,0 -0.049,-0.224 -0.079,-0.328 -0.031,-0.104 -0.09,-0.25 -0.09,-0.25 0,0 0.038,-0.085 0.158,-0.187 0.121,-0.104 0.253,-0.135 0.253,-0.135 0,0 -0.049,-0.034 -0.087,-0.075 -0.038,-0.04 -0.119,-0.022 -0.119,-0.022 0,0 0.013,-0.108 0.108,-0.245 0.111,-0.161 0.216,-0.164 0.216,-0.164 0,0 -0.014,-0.021 -0.111,-0.066 -0.097,-0.045 -0.163,-0.025 -0.163,-0.025 0,0 -0.015,-0.116 0.065,-0.255 0.112,-0.197 0.219,-0.2 0.219,-0.2 0,0 0.01,-0.028 -0.198,-0.107 -0.208,-0.08 -0.279,-0.007 -0.279,-0.007 l -0.005,-0.419 c 0,0 0,-0.023 0.067,-0.023 0.087,-10e-4 0.236,0.032 0.345,0.012 0.191,-0.035 0.241,-0.062 0.302,-0.109 0.061,-0.047 0.133,-0.066 0.206,-0.051 0.113,0.021 0.137,0.085 0.197,0.154 0.073,0.084 0.248,-0.011 0.427,0.117 0.113,0.082 0.211,0.154 0.145,0.436 -0.033,0.138 -0.064,0.21 -0.051,0.252 0.017,0.057 0.102,0.042 0.102,0.042 0,0 -0.147,0.17 -0.196,0.287 -0.101,0.239 -0.121,0.549 0.138,0.549 0.184,0 0.484,-0.13 0.551,-0.181 0.058,-0.043 0.182,-0.16 0.309,-0.369 0.281,-0.464 0.294,-0.45 0.366,-0.625 0.055,-0.133 0.098,-0.388 0.145,-0.492 0.087,-0.19 0.161,-0.185 0.161,-0.185 0,0 -0.022,-0.028 -0.11,-0.037 -0.082,-0.009 -0.13,0.014 -0.13,0.014 0,0 0.018,-0.191 0.028,-0.392 0.024,-0.53 0.107,-2.672 0.168,-3.364 0.04,-0.455 0.195,-0.714 0.195,-0.714 0,0 -0.268,-0.09 -0.488,0.325 -0.115,0.219 -0.172,0.606 -0.172,0.606 0,0 -0.015,-0.411 -0.043,-0.433 -0.027,-0.021 -0.199,-0.041 -0.353,0.202 -0.126,0.2 -0.179,0.492 -0.179,0.492 0,0 -0.077,-0.092 -0.164,-0.092 -0.112,0 -0.213,0.106 -0.289,0.244 -0.102,0.186 -0.153,0.35 -0.153,0.35 0,0 -0.142,-0.056 -0.347,0.262 -0.138,0.215 -0.117,0.386 -0.117,0.386 0,0 -0.113,-0.03 -0.248,0.097 -0.11,0.102 -0.147,0.264 -0.147,0.264 0,0 -0.199,-0.1 -0.319,0.254 -0.122,0.359 -0.064,0.759 -0.064,0.759 0,0 -0.143,-0.378 -0.199,-0.954 -0.008,-0.084 0.023,-0.308 0.149,-0.48 0.125,-0.169 0.311,-0.147 0.471,-0.359 0.122,-0.161 0.245,-0.779 0.461,-0.956 0.167,-0.137 0.369,-0.196 0.369,-0.196 0,0 -0.096,-0.087 -0.238,-0.082 -0.165,0.005 -0.269,0.059 -0.269,0.059 0,0 0.082,-0.13 0.198,-0.326 0.242,-0.405 0.227,-0.637 0.442,-0.854 0.161,-0.164 0.365,-0.109 0.526,-0.26 0.124,-0.117 0.072,-0.242 0.072,-0.242 0,0 -0.282,0.252 -0.839,0.223 -0.286,-0.015 -0.417,-0.249 -0.417,-0.249 0,0 -0.075,0.086 0.029,0.224 0.112,0.149 0.316,0.135 0.319,0.304 0.002,0.12 -0.31,0.502 -0.499,0.732 -0.248,0.303 -0.4,0.467 -0.4,0.467 0,0 -0.043,-0.103 -0.11,-0.165 -0.071,-0.067 -0.163,-0.062 -0.163,-0.062 0,0 0.131,0.327 -0.031,0.61 -0.096,0.167 -0.346,0.319 -0.346,0.319 0,0 -0.032,-0.083 -0.015,-0.247 0.03,-0.29 0.169,-0.631 0.275,-0.831 0.203,-0.384 0.407,-0.508 0.407,-0.508 0,0 -0.125,-0.016 -0.322,0.023 -0.17,0.034 -0.224,0.061 -0.224,0.061 0,0 0.035,-0.105 0.268,-0.25 0.28,-0.175 0.462,-0.194 0.462,-0.194 0,0 -0.266,-0.181 -0.577,0.024 -0.263,0.173 -0.37,0.331 -0.37,0.331 0,0 -0.056,-0.105 0.234,-0.429 0.276,-0.305 0.505,-0.365 0.505,-0.365 0,0 -0.017,-0.126 -0.319,-0.196 -0.112,0.076 -0.099,0.238 -0.17,0.379 -0.073,0.141 -0.221,0.264 -0.475,0.264 -0.206,0 -0.411,-0.085 -0.509,-0.139 -0.179,-0.101 -0.14,-0.198 -0.193,-0.351 -0.015,-0.041 -0.038,-0.081 -0.068,-0.12 -0.299,0.083 -0.297,0.196 -0.297,0.196 0,0 0.222,0.048 0.527,0.377 0.307,0.329 0.262,0.432 0.262,0.432 0,0 -0.149,-0.188 -0.414,-0.358 -0.344,-0.219 -0.555,-0.037 -0.555,-0.037 0,0 0.164,-0.004 0.502,0.203 0.337,0.206 0.304,0.258 0.304,0.258 0,0 -0.063,-0.006 -0.288,-0.086 -0.202,-0.072 -0.344,-0.02 -0.344,-0.02 0,0 0.233,0.072 0.437,0.455 0.107,0.2 0.251,0.586 0.251,0.877 0,0.176 -0.068,0.22 -0.068,0.22 0,0 -0.181,-0.139 -0.302,-0.289 -0.221,-0.273 -0.055,-0.604 -0.055,-0.604 0,0 -0.075,0.022 -0.125,0.076 -0.051,0.056 -0.099,0.146 -0.099,0.146 0,0 -0.183,-0.15 -0.431,-0.453 -0.188,-0.23 -0.459,-0.588 -0.459,-0.734 0,-0.135 0.133,-0.18 0.246,-0.329 0.103,-0.139 0.068,-0.212 0.068,-0.212 0,0 -0.286,0.28 -0.598,0.29 -0.325,0.011 -0.642,-0.259 -0.642,-0.259 0,0 -0.084,0.15 0.038,0.269 0.173,0.169 0.369,0.074 0.538,0.231 0.156,0.148 0.307,0.547 0.456,0.87 0.096,0.207 0.174,0.349 0.174,0.349 0,0 -0.136,-0.086 -0.301,-0.094 -0.166,-0.007 -0.203,0.075 -0.203,0.075 0,0 0.119,-0.022 0.281,0.142 0.439,0.447 0.438,0.802 0.587,1.011 0.155,0.216 0.366,0.232 0.495,0.354 0.092,0.087 0.12,0.262 0.114,0.346 -0.029,0.438 -0.2,0.658 -0.2,0.658 0,0 0.005,-0.167 -0.051,-0.324 -0.097,-0.269 -0.308,-0.271 -0.308,-0.271 0,0 -0.032,-0.105 -0.144,-0.205 -0.112,-0.1 -0.263,-0.139 -0.263,-0.139 0,0 -0.033,-0.179 -0.135,-0.372 -0.177,-0.334 -0.323,-0.206 -0.323,-0.206 0,0 -0.037,-0.171 -0.138,-0.357 -0.075,-0.138 -0.198,-0.307 -0.31,-0.307 -0.087,0 -0.14,0.122 -0.14,0.122 0,0 -0.028,-0.218 -0.158,-0.416 -0.085,-0.129 -0.235,-0.28 -0.378,-0.28 -0.095,0 -0.136,0.069 -0.136,0.069 0,0 -0.033,-0.264 -0.069,-0.325 -0.117,-0.203 -0.268,-0.289 -0.409,-0.289 -0.14,0 -0.104,0.106 -0.104,0.106 0,0 0.093,0.188 0.148,0.641 0.115,0.968 0.121,2.878 0.147,3.408 0.009,0.201 0.033,0.253 0.033,0.253 0,0 -0.035,-0.016 -0.117,-0.021 -0.083,-0.005 -0.132,0.018 -0.132,0.018 0,0 0.21,0.17 0.333,0.556 0.113,0.355 0.021,0.404 0.303,0.867 0.239,0.394 0.607,0.425 1.001,0.425 0.258,0 0.298,-0.122 0.305,-0.249 0.008,-0.15 -0.076,-0.292 -0.156,-0.348 -0.06,-0.042 -0.094,-0.03 -0.139,-0.099 -0.038,-0.057 -0.07,-0.154 -0.07,-0.274 0,-0.294 0.095,-0.432 0.207,-0.514 0.113,-0.083 0.291,-0.088 0.343,-0.164 0.052,-0.077 0.098,-0.102 0.193,-0.102 0.096,0 0.226,0.03 0.286,0.077 0.061,0.047 0.119,0.083 0.311,0.115 0.192,0.033 0.4,0 0.4,0 0,0 0.029,0.044 0.122,0.109 0.072,0.052 0.126,0.078 0.126,0.078 0,0 0.091,0.104 0.148,0.2 0.055,0.094 0.078,0.175 0.078,0.175 0,0 -0.143,-0.066 -0.291,-0.043 -0.149,0.024 -0.194,0.161 -0.194,0.161 0,0 0.188,0 0.321,0.106 0.059,0.049 0.116,0.133 0.126,0.225 0,0 -0.052,0.002 -0.116,0.013 -0.066,0.012 -0.093,0.03 -0.35,-0.069 -0.257,-0.098 -0.302,-0.145 -0.533,-0.096 -0.111,0.024 -0.189,0.15 -0.189,0.15 0,0 0.107,-0.044 0.336,-0.02 0.23,0.024 0.261,0.1 0.5,0.131 0.257,0.033 0.341,0 0.341,0"/></g><g id="g60"><path id="path61" style="fill:#0038a6;fill-opacity:1;fill-rule:nonzero;stroke:none" d="m 25.2204,27.5439 c 0,0 -0.062,-0.223 0.104,-0.399 0.154,-0.163 0.423,-0.255 0.423,-0.255 0,0 0.013,0.068 0.305,0.187 0.297,0.119 0.536,0.124 0.58,0.034 0.042,-0.09 -0.18,-0.202 -0.441,-0.25 -0.236,-0.044 -0.471,-0.048 -0.471,-0.048 0,0 -0.044,-0.071 -0.141,-0.139 -0.097,-0.066 -0.147,-0.136 -0.147,-0.136 0,0 0.043,-0.147 0.486,-0.076 0.49,0.081 0.35,0.197 0.833,0.271 0.318,0.049 0.765,0.07 1.115,0.017 0.887,-0.137 1.871,-0.82 2.166,-1.814 0.353,-1.186 -0.02,-1.984 -0.537,-2.571 -0.675,-0.769 -1.594,-1.046 -1.594,-1.046 l 0.823,-1.253 c 0,0 0.114,0.299 0.469,0.654 0.939,0.942 2.956,1.486 3.252,3.595 0.113,0.811 0.142,1.544 -0.488,2.861 -0.725,1.517 -2.052,1.927 -2.052,1.927 0,0 0.071,0.147 0.071,0.331 0,0.192 -0.116,0.272 -0.116,0.272 0,0 -0.102,-0.099 -0.399,-0.21 -0.298,-0.11 -0.432,-0.098 -0.432,-0.098 0,0 -0.006,0.046 0.064,0.277 0.027,0.093 -0.014,0.198 -0.014,0.198 0,0 -0.04,-0.114 -0.262,-0.264 -0.223,-0.149 -0.349,-0.206 -0.349,-0.206 0,0 -0.144,0.02 -0.456,0.004 -0.304,-0.016 -0.771,-0.066 -0.953,-0.13 -0.757,-0.263 -1.003,-0.562 -1.041,-0.817 -0.023,-0.153 0.014,-0.262 0.014,-0.262 0,0 0.042,-0.284 -0.192,-0.516 -0.234,-0.232 -0.62,-0.138 -0.62,-0.138"/><path id="path62" style="fill:#f34249;fill-opacity:1;fill-rule:nonzero;stroke:none" d="m 29.9968,19.4741 c 0,0 -0.931,-0.243 -1.203,0.309 -0.282,0.569 0.412,1.607 0.412,1.607 0,0 -1.12,-0.314 -1.949,0.152 -0.614,0.345 -0.957,0.803 -1.174,1.18 -0.181,0.311 -0.387,0.544 -0.743,0.544 -0.371,0 -0.391,-0.281 -0.391,-0.281 0,0 0.111,0.122 0.261,0.122 0.241,0 0.393,-0.363 0.393,-0.614 0,-0.085 -0.009,-0.115 -0.009,-0.115 0,0 -0.206,0.003 -0.417,-0.051 -0.177,-0.048 -0.3,-0.148 -0.414,-0.238 -0.095,-0.076 -0.13,-0.102 -0.13,-0.102 0,0 0.368,0.073 0.61,-0.078 0.38,-0.237 0.468,-0.657 1.145,-0.912 0.315,-0.119 0.577,-0.127 0.689,-0.131 0.15,-0.007 0.283,-0.036 0.399,-0.024 0.204,0.018 0.339,0.087 0.339,0.087 0,0 -0.136,-0.233 -0.648,-0.28 -0.467,-0.042 -0.681,0.145 -0.681,0.145 0,0 -0.071,-0.195 0.058,-0.279 0.154,-0.102 0.512,-0.175 0.848,-0.357 0.443,-0.24 0.806,-0.808 1.459,-1.005 0.673,-0.203 1.146,0.321 1.146,0.321"/><path id="path63" style="fill:#f34249;fill-opacity:1;fill-rule:nonzero;stroke:none" d="m 31.7849,22.832 c 0,0 -0.145,-0.222 -0.523,-0.556 -0.379,-0.334 -0.778,-0.59 -0.778,-0.59 0,0 -0.007,-0.301 0.439,-0.67 0.364,-0.303 0.735,-0.269 0.735,-0.269 0,0 -0.288,0.255 -0.259,0.764 0.03,0.523 0.386,1.321 0.386,1.321"/><path id="path64" style="fill:#f34249;fill-opacity:1;fill-rule:nonzero;stroke:none" d="m 30.1775,23.8745 c 0,0 -0.197,-0.602 -0.561,-0.858 -0.353,-0.25 -0.836,-0.205 -0.836,-0.205 0,0 0.355,-0.146 0.441,-0.292 0.086,-0.147 0.009,-0.416 0.009,-0.416 0,0 0.386,0.307 0.685,0.875 0.283,0.539 0.262,0.896 0.262,0.896"/><path id="path65" style="fill:#f34249;fill-opacity:1;fill-rule:nonzero;stroke:none" d="m 32.4724,24.3794 c 0,0 0.052,0.116 0.021,0.492 -0.042,0.502 -0.259,1.58 -0.259,1.58 0,0 0.272,-0.388 0.703,-0.85 0.233,-0.249 0.358,-0.304 0.358,-0.304 0,0 -0.388,-0.049 -0.463,-0.349 -0.073,-0.293 0.182,-0.741 0.182,-0.741 0,0 -0.231,0.234 -0.353,0.249 -0.111,0.013 -0.189,-0.077 -0.189,-0.077"/><path id="path66" style="fill:#f34249;fill-opacity:1;fill-rule:nonzero;stroke:none" d="m 30.0114,29.1069 0.024,-0.026 c 0,0 0.24,-0.024 0.897,-0.599 0.704,-0.615 0.769,-0.872 0.769,-0.872 0,0 -0.023,0.334 0.209,0.546 0.244,0.219 0.559,0.146 0.559,0.146 0,0 -0.193,0.254 -0.005,0.538 0.219,0.329 0.695,0.367 0.695,0.367 0,0 -0.133,0.123 -0.328,0.106 -0.42,-0.038 -1.043,-0.434 -1.399,-0.487 -0.243,-0.035 -0.514,0.012 -0.514,0.012 0,0 0.024,0.077 0.338,0.342 0.198,0.166 0.24,0.376 0.24,0.376 0,0 -0.241,-0.228 -0.65,-0.327 -0.411,-0.099 -0.835,-0.122 -0.835,-0.122"/><path id="path67" style="fill:#f34249;fill-opacity:1;fill-rule:nonzero;stroke:none" d="m 27.3913,27.3013 c 0,0 0.328,-0.428 0.418,-0.532 0.02,-0.024 0.042,-0.046 0.063,-0.067 0,0 -0.055,0.014 -0.187,0.035 -0.131,0.022 -0.28,0.041 -0.28,0.041 0,0 0.433,-0.267 0.547,-0.431 0.172,-0.25 -0.061,-0.466 -0.061,-0.466 0,0 0.195,-0.033 0.319,0.114 0.123,0.147 0.132,0.288 0.132,0.288 0,0 0.117,-0.082 0.22,-0.341 0.102,-0.259 0.022,-0.422 0.022,-0.422 0,0 0.225,0.104 0.28,0.384 0.06,0.308 -0.165,0.439 -0.18,0.763 -0.011,0.235 0.199,0.304 0.199,0.381 0,0.078 -0.342,-0.056 -0.915,0.036 -0.409,0.064 -0.577,0.217 -0.577,0.217"/><path id="path68" style="fill:#eeeeee;fill-opacity:1;fill-rule:nonzero;stroke:none" d="m 27.154,27.8623 c 0,-0.089 -0.077,-0.162 -0.172,-0.162 -0.096,0 -0.173,0.073 -0.173,0.162 0,0.09 0.077,0.162 0.173,0.162 0.095,0 0.172,-0.072 0.172,-0.162"/></g></g></g></g></svg>