<svg xmlns:dc="http://purl.org/dc/elements/1.1/" xmlns:cc="http://creativecommons.org/ns#" xmlns:rdf="http://www.w3.org/1999/02/22-rdf-syntax-ns#" xmlns:svg="http://www.w3.org/2000/svg" xmlns="http://www.w3.org/2000/svg" viewBox="0 0 45 45" style="enable-background:new 0 0 45 45;" xml:space="preserve" version="1.1" id="svg2"><metadata id="metadata8"><rdf:RDF><cc:Work rdf:about=""><dc:format>image/svg+xml</dc:format><dc:type rdf:resource="http://purl.org/dc/dcmitype/StillImage"/></cc:Work></rdf:RDF></metadata><defs id="defs6"><clipPath id="clipPath16" clipPathUnits="userSpaceOnUse"><path id="path18" d="M 0,36 36,36 36,0 0,0 0,36 Z"/></clipPath></defs><g transform="matrix(1.25,0,0,-1.25,0,45)" id="g10"><g id="g12"><g xmlns="http://www.w3.org/2000/svg" clip-path="url(#clipPath16)" id="g14"><g transform="translate(0,9)" id="g20"><path id="path22" style="fill:#102e82;fill-opacity:1;fill-rule:nonzero;stroke:none" d="m 0,0 c 0,-2.209 1.791,-4 4,-4 l 28,0 c 2.209,0 4,1.791 4,4 L 36,4 0,4 0,0 Z"/></g><path id="path24" style="fill:#eeeeee;fill-opacity:1;fill-rule:nonzero;stroke:none" d="m 0,13 36,0 0,9 -36,0 0,-9 z"/><g transform="translate(32,31)" id="g22"><path id="path28" style="fill:#102e82;fill-opacity:1;fill-rule:nonzero;stroke:none" d="m 0,0 -28,0 c -2.209,0 -4,-1.791 -4,-4 l 0,-5 36,0 0,5 C 4,-1.791 2.209,0 0,0"/></g><g xmlns="http://www.w3.org/2000/svg" transform="translate(22.9902,14.7637)" id="g24"><path id="path3015" style="fill:#bf2c34;fill-opacity:1;fill-rule:nonzero;stroke:none" d="m 0,0 c -1.282,-3.171 -4.391,-5.408 -8.021,-5.408 -4.777,0 -8.649,3.872 -8.649,8.649 0,4.777 3.872,8.649 8.649,8.649 3.629,0 6.736,-2.235 8.019,-5.404 L -8.021,3.241 0,0 z"/></g><g xmlns="http://www.w3.org/2000/svg" transform="translate(19.2959,18.0044)" id="g26"><path id="path3019" style="fill:#f6d047;fill-opacity:1;fill-rule:nonzero;stroke:none" d="m 0,0 c 0,2.39 -1.937,4.327 -4.327,4.327 -2.39,0 -4.327,-1.937 -4.327,-4.327 0,-2.389 1.937,-4.327 4.327,-4.327 C -1.937,-4.327 0,-2.389 0,0"/></g></g></g></g></svg>