<svg xmlns:dc="http://purl.org/dc/elements/1.1/" xmlns:cc="http://creativecommons.org/ns#" xmlns:rdf="http://www.w3.org/1999/02/22-rdf-syntax-ns#" xmlns:svg="http://www.w3.org/2000/svg" xmlns="http://www.w3.org/2000/svg" viewBox="0 0 45 45" style="enable-background:new 0 0 45 45;" xml:space="preserve" version="1.1" id="svg2"><metadata id="metadata8"><rdf:RDF><cc:Work rdf:about=""><dc:format>image/svg+xml</dc:format><dc:type rdf:resource="http://purl.org/dc/dcmitype/StillImage"/></cc:Work></rdf:RDF></metadata><defs id="defs6"><clipPath id="clipPath16" clipPathUnits="userSpaceOnUse"><path id="path18" d="M 4,31 C 1.791,31 0,29.209 0,27 L 0,27 0,9 C 0,6.791 1.791,5 4,5 l 0,0 28,0 c 2.209,0 4,1.791 4,4 l 0,0 0,18 c 0,2.209 -1.791,4 -4,4 l 0,0 -28,0 z"/></clipPath></defs><g transform="matrix(1.25,0,0,-1.25,0,45)" id="g10"><g id="g12"><g xmlns="http://www.w3.org/2000/svg" clip-path="url(#clipPath16)" id="g14"><g id="g30"><path id="path20" style="fill:#eeeeee;fill-opacity:1;fill-rule:nonzero;stroke:none" d="m 36,5 -36,0 0,25.999 36,0 L 36,5 z"/><path id="path21" style="fill:#009acd;fill-opacity:1;fill-rule:nonzero;stroke:none" d="m 36,8.7041 0,-3.702 -5.164,0 L 0,27.2971 l 0,3.702 5.164,0 L 36,8.7041 z"/></g><g id="g34"><path id="path30" style="fill:#005bc0;fill-opacity:1;fill-rule:nonzero;stroke:none" d="m 18,11.1621 c -3.882,0 -3.786,3.627 -3.786,3.627 l 0,5.727 7.572,0 0,-5.727 c 0,0 0.097,-3.627 -3.786,-3.627"/><path id="path31" style="fill:#d90821;fill-opacity:1;fill-rule:nonzero;stroke:none" d="m 18,20.5166 c -2.17,0 -2.5,0.43 -2.5,0.43 l -0.228,0.772 c 0,0 -0.376,0.871 -0.376,1.192 0,0.276 0.197,0.523 0.348,0.646 0.388,0.314 0.985,0.162 0.985,0.162 0,0 0.278,0.274 0.871,0.369 0.593,0.094 0.9,-0.087 0.9,-0.087 0,0 0.307,0.181 0.9,0.087 0.593,-0.095 0.871,-0.369 0.871,-0.369 0,0 0.597,0.152 0.985,-0.162 0.151,-0.123 0.348,-0.37 0.348,-0.646 0,-0.321 -0.376,-1.192 -0.376,-1.192 L 20.5,20.9466 c 0,0 -0.329,-0.43 -2.5,-0.43"/><path id="path32" style="fill:#bdad03;fill-opacity:1;fill-rule:nonzero;stroke:none" d="m 20.5,20.9463 0.187,0.635 c 0,0 -0.354,0.429 -2.688,0.429 -2.334,0 -2.686,-0.431 -2.686,-0.431 l 0.187,-0.633 c 0,0 1.059,0.429 2.5,0.429 1.441,0 2.5,-0.429 2.5,-0.429"/><path id="path33" style="fill:#bdad03;fill-opacity:1;fill-rule:nonzero;stroke:none" d="m 20.9775,22.3872 c 0,0 0.321,0.902 0.321,1.188 0,0.429 -0.302,0.725 -0.9,0.879 -0.556,0.145 -0.969,-0.053 -0.973,-0.055 l -0.065,-0.032 -0.061,0.041 c -0.002,0.002 -0.374,0.242 -1.3,0.242 -0.926,0 -1.297,-0.24 -1.301,-0.242 l -0.059,-0.04 -0.066,0.031 c -0.004,0.003 -0.42,0.2 -0.971,0.055 -0.598,-0.154 -0.901,-0.45 -0.901,-0.879 0,-0.286 0.322,-1.188 0.322,-1.188 -0.054,0.078 -0.572,0.773 -0.572,1.188 0,0.55 0.376,0.937 1.088,1.122 0.519,0.133 0.928,0.012 1.081,-0.046 0.149,0.077 0.574,0.249 1.379,0.249 0.806,0 1.231,-0.172 1.379,-0.249 0.153,0.058 0.565,0.179 1.082,0.046 0.712,-0.185 1.088,-0.572 1.088,-1.122 0,-0.415 -0.518,-1.11 -0.571,-1.188"/><path id="path34" style="fill:#bdad03;fill-opacity:1;fill-rule:nonzero;stroke:none" d="m 17.9312,26.1743 0,0.264 -0.161,0 0,0.14 0.166,0 0,0.157 0.128,0 0,-0.157 0.165,0 0,-0.14 -0.16,0 0,-0.264"/><path id="path35" style="fill:#005bc0;fill-opacity:1;fill-rule:nonzero;stroke:none" d="m 18.5049,25.6733 c 0,0.279 -0.226,0.505 -0.505,0.505 -0.279,0 -0.505,-0.226 -0.505,-0.505 0,-0.279 0.226,-0.505 0.505,-0.505 0.279,0 0.505,0.226 0.505,0.505"/></g></g></g></g></svg>