<svg xmlns:dc="http://purl.org/dc/elements/1.1/" xmlns:cc="http://creativecommons.org/ns#" xmlns:rdf="http://www.w3.org/1999/02/22-rdf-syntax-ns#" xmlns:svg="http://www.w3.org/2000/svg" xmlns="http://www.w3.org/2000/svg" viewBox="0 0 45 45" style="enable-background:new 0 0 45 45;" xml:space="preserve" version="1.1" id="svg2"><metadata id="metadata8"><rdf:RDF><cc:Work rdf:about=""><dc:format>image/svg+xml</dc:format><dc:type rdf:resource="http://purl.org/dc/dcmitype/StillImage"/></cc:Work></rdf:RDF></metadata><defs id="defs6"><clipPath id="clipPath16" clipPathUnits="userSpaceOnUse"><path id="path18" d="M 0,36 36,36 36,0 0,0 0,36 Z"/></clipPath></defs><g transform="matrix(1.25,0,0,-1.25,0,45)" id="g10"><g id="g12"><g clip-path="url(#clipPath16)" id="g14"><g id="g20"><path id="path22" style="fill:#078930;fill-opacity:1;fill-rule:nonzero;stroke:none" d="M 0,18 V 9 C 0,6.79 1.79,5 4,5 h 28 c 2.21,0 4,1.79 4,4 v 9 z"/></g><g id="g24"><path id="path26" style="fill:#eeeeee;fill-opacity:1;fill-rule:nonzero;stroke:none" d="m 0,18 v 9 c 0,2.21 1.79,4 4,4 h 28 c 2.21,0 4,-1.79 4,-4 v -9 z"/></g><g id="g28"><path id="path30" style="fill:#034418;fill-opacity:1;fill-rule:nonzero;stroke:none" d="m 16.6455,17.0527 c 0,0 -0.013,-0.759 -0.728,-1.738 -0.565,-0.774 -1.571,-1.512 -1.571,-1.512 l 0.539,-0.542 c 0,0 0.709,0.659 1.367,1.749 0.622,1.028 0.935,2.043 0.935,2.043 0,0 2.536,0.267 3.861,0.612 1.587,0.413 2.228,1.281 2.228,1.281 0,0 -1.297,0.169 -2.557,-0.063 -1.365,-0.251 -3.123,-1.153 -3.123,-1.153 0,0 1.176,1.519 1.491,2.821 0.317,1.302 -0.275,2.187 -0.275,2.187 0,0 -1.286,-0.559 -1.787,-1.967 -0.572,-1.608 -0.107,-3.041 -0.107,-3.041 0,0 -0.487,0.903 -1.571,1.394 -0.918,0.415 -2.617,0.493 -2.617,0.493 0,0 1.25,-1.574 1.928,-1.996 1.059,-0.659 1.987,-0.568 1.987,-0.568"/></g></g></g></g></svg>