<svg xmlns:dc="http://purl.org/dc/elements/1.1/" xmlns:cc="http://creativecommons.org/ns#" xmlns:rdf="http://www.w3.org/1999/02/22-rdf-syntax-ns#" xmlns:svg="http://www.w3.org/2000/svg" xmlns="http://www.w3.org/2000/svg" viewBox="0 0 45 45" style="enable-background:new 0 0 45 45;" xml:space="preserve" version="1.1" id="svg2"><metadata id="metadata8"><rdf:RDF><cc:Work rdf:about=""><dc:format>image/svg+xml</dc:format><dc:type rdf:resource="http://purl.org/dc/dcmitype/StillImage"/></cc:Work></rdf:RDF></metadata><defs id="defs6"><clipPath id="clipPath16" clipPathUnits="userSpaceOnUse"><path id="path18" d="M 0,36 36,36 36,0 0,0 0,36 Z"/></clipPath></defs><g transform="matrix(1.25,0,0,-1.25,0,45)" id="g10"><g id="g12"><g xmlns="http://www.w3.org/2000/svg" clip-path="url(#clipPath16)" id="g14"><g id="g30"><path id="path20" style="fill:#eeeeee;fill-opacity:1;fill-rule:nonzero;stroke:none" d="m 32,5 c 2.209,0 4,1.791 4,4 l 0,18 c 0,2.209 -1.791,4 -4,4 L 4,31 C 1.791,31 0,29.209 0,27 L 0,9 C 0,6.791 1.791,5 4,5 l 28,0 z"/></g><g id="g34"><path id="path30" style="fill:#db2015;fill-opacity:1;fill-rule:nonzero;stroke:none" d="m 22.8721,21.4878 c 0,0 0.069,-0.799 -0.79,-0.559 -0.858,0.242 -0.503,0.976 -0.503,0.976 0,0 -1.221,0.122 -1.608,-1.021 -0.389,-1.143 0.534,-1.391 0.534,-1.391 0,0 0.67,-0.497 1.612,-0.134 1.177,0.453 1.32,1.563 1.32,1.563 l -0.202,0.52 -0.363,0.046 z"/><path id="path31" style="fill:#d8d8d8;fill-opacity:1;fill-rule:nonzero;stroke:none" d="m 19.2344,18.9785 c 0,0 -1.401,1.875 0.297,3.506 0.671,0.644 2.304,0.61 2.984,0.234 1.071,-0.59 0.922,-1.797 0.922,-1.797 0,0 -1.312,1.766 -2.562,0.61 -1.233,-1.14 -0.062,-2.553 -0.062,-2.553 l -1.579,0 z"/><path id="path32" style="fill:#005ca2;fill-opacity:1;fill-rule:nonzero;stroke:none" d="m 13.1279,21.4878 c 0,0 -0.069,-0.799 0.79,-0.559 0.858,0.242 0.503,0.976 0.503,0.976 0,0 1.22,0.122 1.608,-1.021 0.389,-1.143 -0.534,-1.391 -0.534,-1.391 0,0 -0.67,-0.497 -1.613,-0.134 -1.176,0.453 -1.319,1.563 -1.319,1.563 l 0.202,0.52 0.363,0.046 z"/><path id="path33" style="fill:#f7b900;fill-opacity:1;fill-rule:nonzero;stroke:none" d="m 16.7656,18.9785 c 0,0 1.401,1.875 -0.297,3.506 -0.671,0.644 -2.304,0.61 -2.984,0.234 -1.071,-0.59 -0.922,-1.797 -0.922,-1.797 0,0 1.312,1.766 2.562,0.61 1.233,-1.14 0.061,-2.553 0.061,-2.553 l 1.58,0 z"/><path id="path34" style="fill:#f7b900;fill-opacity:1;fill-rule:nonzero;stroke:none" d="m 15.186,14.5088 0,1.285 c 0,0 -0.125,0.185 -0.239,0.209 -0.162,0.035 -0.22,-0.13 -0.22,-0.13 0,0 -0.248,0.224 -0.454,0.531 -0.205,0.305 -0.232,0.541 -0.232,0.541 0,0 0.353,-0.047 0.5,-0.148 0.147,-0.1 -0.015,-0.247 -0.015,-0.247 0,0 0.209,0.006 0.265,0.171 0.056,0.165 -0.165,0.453 -0.165,0.453 0,0 0.365,0.07 0.415,0.438 0.02,0.142 -0.115,0.246 -0.209,0.244 -0.105,-0.002 -0.138,-0.106 -0.138,-0.106 0,0 0.174,0.047 0.115,-0.135 -0.059,-0.182 -0.115,-0.223 -0.115,-0.223 0,0 -0.135,-0.057 -0.262,-0.022 -0.126,0.036 -0.159,0.11 -0.159,0.11 0,0 0.394,0.491 0.859,0.941 0.465,0.45 0.683,0.558 0.683,0.558 0,0 0.085,0.33 -0.295,0.33 -0.588,0 -0.626,-0.476 -0.626,-0.476 0,0 -0.191,-0.203 -0.479,-0.436 -0.289,-0.232 -0.456,-0.359 -0.456,-0.359 0,0 -0.28,0.183 -0.683,0.138 -0.403,-0.043 -0.423,0.071 -0.423,0.071 0,0 0,-0.02 0.188,0.003 0.188,0.024 0.238,0.089 0.238,0.089 0,0 -0.199,-0.021 -0.232,0.135 -0.032,0.156 0.065,0.232 0.065,0.232 0,0 -0.439,-0.085 -0.518,0.097 -0.079,0.183 0.282,0.227 0.282,0.227 0,0 0.127,0.047 0.103,0.279 -0.023,0.232 -0.294,0.232 -0.294,0.232 0,0 -0.091,0.106 -0.188,0.212 -0.097,0.106 -0.173,0.144 -0.173,0.144 0,0 -0.071,-0.047 -0.121,-0.064 -0.05,-0.018 -0.062,-0.1 -0.062,-0.1 0,0 -0.053,0.076 -0.153,0.117 -0.1,0.041 -0.218,0.015 -0.218,0.015 0,0 0.012,-0.118 0,-0.23 -0.011,-0.111 0,-0.196 0,-0.196 0,0 -0.22,0.049 -0.408,-0.097 -0.112,-0.088 -0.086,-0.245 -0.086,-0.245 0,0 0.15,0.236 0.189,0.05 0.017,-0.083 0.191,-0.058 0.191,-0.058 0,0 0.011,-0.133 -0.265,-0.18 -0.213,-0.036 -0.135,-0.227 -0.135,-0.227 0,0 0.229,0.177 0.373,-0.035 0.092,-0.134 -0.114,-0.142 -0.258,-0.256 -0.177,-0.138 -0.103,-0.241 -0.103,-0.241 0,0 0.094,0.071 0.27,0.047 0.207,-0.027 0.227,-0.123 0.227,-0.123 0,0 -0.165,0.02 -0.239,-0.074 -0.073,-0.094 -0.02,-0.318 -0.02,-0.318 0,0 0.341,0.356 0.468,0.089 0.126,-0.268 0.031,-0.477 0.111,-0.62 0.112,-0.201 0.239,-0.086 0.239,-0.086 0,0 -0.148,0.179 -0.018,0.258 0.153,0.094 0.497,-0.488 0.497,-0.488 0,0 -0.171,-0.12 -0.365,-0.773 -0.194,-0.653 -0.565,-0.771 -0.897,-0.771 -0.332,0 -0.709,0.315 -0.503,0.747 0.161,0.338 0.477,0.221 0.477,0.221 0,0 0.032,-0.012 0.014,0.108 -0.01,0.07 -0.097,0.083 -0.097,0.083 0,0 0.338,0.173 0.344,0.701 0.006,0.525 -0.52,0.682 -0.72,0.682 -0.2,0 -0.527,-0.074 -0.518,-0.421 0.009,-0.347 0.109,-0.368 -0.121,-0.465 -0.229,-0.097 -0.336,-0.108 -0.337,-0.327 -10e-4,-0.164 0.073,-0.189 0.111,-0.261 0.046,-0.086 0.05,-0.144 0.05,-0.144 0,0 0.032,0.033 0.032,0.09 0,0.057 -0.046,0.131 -0.046,0.131 0,0 0.024,-0.001 0.084,-0.032 0.059,-0.032 0.056,-0.055 0.056,-0.055 0,0 0.038,0.045 -0.028,0.138 -0.066,0.091 0.02,0.175 0.094,0.175 0.073,0 0.092,-0.071 0.212,-0.071 0.121,0 0.449,0.204 0.475,0.431 0.022,0.191 -0.109,0.387 0.136,0.425 0.281,0.042 0.371,-0.263 0.33,-0.48 -0.06,-0.313 -0.621,-0.487 -0.762,-0.858 -0.124,-0.324 0.024,-0.689 0.305,-0.879 0.329,-0.223 0.859,-0.107 0.859,-0.107 0,0 -0.165,-0.095 -0.297,-0.358 -0.247,-0.491 -0.541,-0.473 -0.588,-0.87 -0.109,-0.918 1.02,-1.459 1.02,-1.459 0,0 -0.082,-0.044 -0.288,-0.044 -0.206,0 -0.288,0.032 -0.288,0.032 0,0 0.182,-0.282 0.759,-0.18 0.576,0.103 1.213,0.338 1.963,0.338 0.749,0 1.066,-0.086 1.066,-0.086 0,0 -0.632,-0.051 -1.211,-0.334 -0.58,-0.282 -0.88,-0.335 -0.918,-0.089 -0.019,0.12 0.122,0.165 0.188,0.13 0.071,-0.036 0.054,-0.161 0.054,-0.161 0,0 0.188,0.021 0.125,0.185 -0.062,0.164 -0.405,0.241 -0.586,-0.034 -0.153,-0.232 0.124,-0.656 0.59,-0.581 0.309,0.049 0.376,0.143 0.499,0.192 0.101,0.041 0.158,-0.005 0.158,-0.005 0,0 -0.137,-0.03 -0.276,-0.28 -0.139,-0.25 -0.138,-0.376 -0.256,-0.316 -0.119,0.061 -0.008,0.147 -0.008,0.147 0,0 -0.125,0.085 -0.146,-0.095 -0.02,-0.18 0.293,-0.228 0.419,-0.125 0.127,0.103 0.152,0.204 0.152,0.204 0,0 0.087,-0.42 0.509,-0.276 0.139,0.048 0.18,0.201 0.184,0.268 0.009,0.139 -0.162,0.195 -0.162,0.195 0,0 0.027,-0.117 -0.073,-0.117 -0.1,0 -0.241,0.057 -0.068,0.348 0.423,0.707 1.593,0.575 1.593,0.575 0,0 -0.219,-0.083 -0.213,-0.29 0.004,-0.141 0.073,-0.227 0.175,-0.242 0.092,-0.013 0.145,0.069 0.145,0.069 0,0 -0.103,0.009 -0.103,0.11 0,0.154 0.224,0.251 0.224,0.251 0,0 1.041,0.028 1.041,-0.816 0,-0.39 -0.31,-0.657 -0.603,-0.673 -0.215,-0.013 -0.424,0.132 -0.483,0.343 -0.082,0.297 0.137,0.429 0.307,0.377 0.15,-0.045 0.123,-0.194 0.123,-0.194 0,0 -0.177,0.058 -0.158,-0.085 0.022,-0.159 0.387,-0.245 0.444,0.061 0.059,0.309 -0.254,0.554 -0.551,0.479 -0.355,-0.089 -0.434,-0.43 -0.434,-0.43 0,0 0.087,0.658 -0.593,0.709 -0.194,0.015 -0.337,-0.081 -0.412,-0.162 -0.145,-0.155 -0.083,-0.349 0.056,-0.361 0.118,-0.01 0.192,0.029 0.157,0.096 -0.021,0.039 -0.079,0.012 -0.079,0.012 0,0 -0.068,0.034 -0.021,0.102 0.046,0.067 0.199,0.067 0.29,-0.006 0.091,-0.073 0.126,-0.136 0.117,-0.192 -0.009,-0.057 -0.023,-0.16 -0.011,-0.227 0.013,-0.067 0.047,-0.148 0.047,-0.148 0,0 -0.322,0.164 -0.442,-0.157 -0.102,-0.271 0.233,-0.396 0.336,-0.299 0.042,0.038 0.026,0.084 -0.021,0.09 -0.035,0.004 -0.04,-0.086 -0.04,-0.086 0,0 -0.088,0.129 -0.002,0.223 0.086,0.094 0.235,0.023 0.297,-0.095 0.063,-0.117 0.358,-0.439 0.934,-0.439 0.369,0 0.612,0.185 0.612,0.185 0,0 0.032,-0.241 0.227,-0.241 0.194,0 0.279,0.113 0.279,0.113 0,0 -0.06,-0.13 0.103,-0.208 0.163,-0.079 0.15,-0.13 0.15,-0.13 0,0 -0.013,0.051 0.15,0.13 0.162,0.078 0.103,0.208 0.103,0.208 0,0 0.085,-0.113 0.279,-0.113 0.195,0 0.227,0.241 0.227,0.241 0,0 0.242,-0.185 0.611,-0.185 0.577,0 0.872,0.322 0.935,0.439 0.062,0.118 0.211,0.189 0.297,0.095 0.085,-0.094 -0.002,-0.223 -0.002,-0.223 0,0 -0.005,0.09 -0.04,0.086 -0.047,-0.006 -0.063,-0.052 -0.022,-0.09 0.105,-0.097 0.439,0.028 0.337,0.299 -0.119,0.321 -0.442,0.157 -0.442,0.157 0,0 0.034,0.081 0.046,0.148 0.013,0.067 -10e-4,0.17 -0.01,0.227 -0.01,0.056 0.026,0.119 0.117,0.192 0.091,0.073 0.244,0.073 0.291,0.006 0.047,-0.068 -0.023,-0.102 -0.023,-0.102 0,0 -0.056,0.027 -0.078,-0.012 -0.036,-0.067 0.039,-0.106 0.158,-0.096 0.138,0.012 0.2,0.206 0.055,0.361 -0.075,0.081 -0.219,0.177 -0.413,0.162 -0.679,-0.051 -0.592,-0.709 -0.592,-0.709 0,0 -0.08,0.341 -0.434,0.43 -0.297,0.075 -0.61,-0.17 -0.552,-0.479 0.059,-0.306 0.423,-0.22 0.444,-0.061 0.02,0.143 -0.157,0.085 -0.157,0.085 0,0 -0.027,0.149 0.123,0.194 0.17,0.052 0.389,-0.08 0.307,-0.377 -0.059,-0.211 -0.268,-0.356 -0.483,-0.343 -0.293,0.016 -0.602,0.283 -0.602,0.673 0,0.844 1.04,0.816 1.04,0.816 0,0 0.224,-0.097 0.224,-0.251 0,-0.101 -0.103,-0.11 -0.103,-0.11 0,0 0.053,-0.082 0.145,-0.069 0.101,0.015 0.17,0.101 0.175,0.242 0.006,0.207 -0.213,0.29 -0.213,0.29 0,0 1.169,0.132 1.592,-0.575 0.174,-0.291 0.033,-0.348 -0.066,-0.348 -0.101,0 -0.074,0.117 -0.074,0.117 0,0 -0.171,-0.056 -0.163,-0.195 0.004,-0.067 0.046,-0.22 0.185,-0.268 0.422,-0.144 0.509,0.276 0.509,0.276 0,0 0.025,-0.101 0.152,-0.204 0.126,-0.103 0.439,-0.055 0.418,0.125 -0.019,0.18 -0.144,0.095 -0.144,0.095 0,0 0.11,-0.086 -0.008,-0.147 -0.119,-0.06 -0.117,0.066 -0.257,0.316 -0.139,0.25 -0.276,0.28 -0.276,0.28 0,0 0.057,0.046 0.158,0.005 0.123,-0.049 0.189,-0.143 0.5,-0.192 0.465,-0.075 0.742,0.349 0.59,0.581 -0.182,0.275 -0.525,0.198 -0.587,0.034 -0.063,-0.164 0.125,-0.185 0.125,-0.185 0,0 -0.018,0.125 0.054,0.161 0.067,0.035 0.206,-0.01 0.188,-0.13 -0.038,-0.246 -0.338,-0.193 -0.917,0.089 -0.58,0.283 -1.212,0.334 -1.212,0.334 0,0 0.317,0.086 1.066,0.086 0.749,0 1.386,-0.235 1.963,-0.338 0.576,-0.102 0.759,0.18 0.759,0.18 0,0 -0.083,-0.032 -0.288,-0.032 -0.206,0 -0.288,0.044 -0.288,0.044 0,0 1.129,0.541 1.02,1.459 -0.047,0.397 -0.438,0.523 -0.438,0.523 0,0 0.271,0.159 0.297,0.373 0.03,0.257 -0.206,0.576 -0.488,0.568 -0.518,-0.015 -0.577,0.077 -0.577,0.077 0,0 -0.014,0.078 -0.061,0.212 -0.048,0.133 -0.148,0.376 -0.148,0.376 0,0 0.189,0.023 0.412,0.099 0.223,0.077 0.359,0.165 0.359,0.165 0,0 0.418,-0.259 0.655,-0.925 0.237,-0.666 0.121,-1.251 0.121,-1.251 0,0 0.271,0.451 0.271,1.262 0,0.813 -0.111,1.324 -0.111,1.324 0,0 0.05,-0.036 0.094,-0.044 0.043,-0.01 0.078,0 0.078,0 0,0 -0.052,0.494 -0.111,0.958 -0.059,0.465 -0.189,0.691 -0.189,0.691 0,0 -0.108,0.844 -0.497,0.844 -0.102,0 -0.305,-0.218 -0.191,-0.929 0.115,-0.712 -0.268,-1.168 -0.658,-1.259 -0.392,-0.092 -0.474,0.335 -0.474,0.335 0,0 0.39,0.216 0.559,0.624 0.276,0.668 -0.117,1.097 -0.117,1.097 0,0 0.125,-0.031 0.27,-0.027 0.259,0.009 0.35,0.142 0.35,0.142 0,0 -0.173,-0.018 -0.391,0.07 -0.218,0.088 -0.33,0.239 -0.656,0.259 -0.326,0.021 -0.288,-0.079 -0.288,-0.079 0,0 -0.126,0.061 -0.215,0 -0.123,-0.086 -0.062,-0.265 -0.062,-0.265 0,0 0.059,0.115 0.159,0.094 0.1,-0.02 0.083,-0.129 0.229,-0.326 0.148,-0.198 0.427,-0.265 0.427,-0.265 0,0 -0.018,0.006 -0.018,-0.08 0,-0.085 -0.047,-0.158 -0.047,-0.158 0,0 -0.072,0.146 -0.238,0.223 -0.226,0.106 -0.259,-0.038 -0.259,-0.038 0,0 0.403,0.003 0.324,-0.244 -0.058,-0.179 -0.118,-0.274 -0.668,-0.274 -0.55,0 -0.682,-0.188 -0.682,-0.188 0,0 -0.33,0.103 -0.595,0.303 -0.264,0.2 -0.361,0.415 -0.361,0.415 0,0 0.029,0.118 -0.029,0.285 -0.06,0.168 -0.12,0.117 -0.12,0.117 l 0,-0.799 c 0,0 0.003,-0.117 0.206,-0.221 0.189,-0.096 0.214,-0.243 0.224,-0.322 0.01,-0.078 0.183,-0.232 0.165,-0.38 -0.017,-0.147 -0.233,-0.345 -0.389,-0.185 -0.06,0.064 -0.021,0.228 -0.021,0.228 0,0 -0.109,-0.051 -0.128,-0.253 -0.017,-0.202 0.14,-0.304 0.418,-0.231 0.278,0.073 0.393,0.19 0.393,0.19 0,0 -0.006,-0.056 -0.001,-0.123 0.005,-0.068 0.02,-0.124 0.02,-0.124 0,0 -0.055,-0.006 -0.112,-0.092 -0.057,-0.087 -0.192,-0.13 -0.228,-0.027 -0.035,0.101 0.033,0.142 0.033,0.142 0,0 -0.123,0.036 -0.123,-0.119 0,-0.155 0.094,-0.194 0.218,-0.184 0.123,0.009 0.255,0.111 0.255,0.111 l -0.64,-1.025 c 0,0 -0.023,0.174 -0.099,0.276 -0.076,0.103 -0.191,0.142 -0.191,0.142 l 0,-1.351 c 0,0 0.269,0.129 0.321,0.215 0.051,0.087 -0.042,0.134 0.052,0.249 0.075,0.092 0.047,0.27 0.047,0.27 l 0.779,0.78 c 0,0 -0.014,-0.139 0.033,-0.181 0.093,-0.082 0.165,0.02 0.165,0.02 0,0 0.416,-0.233 0.537,-0.306 0.121,-0.074 0.165,-0.122 0.165,-0.122 0,0 0,-0.039 0.029,-0.084 0.03,-0.045 0.077,-0.094 0.077,-0.094 0,0 -0.059,-0.04 -0.118,-0.081 -0.059,-0.041 -0.124,-0.103 -0.124,-0.103 0,0 -0.2,-0.043 -0.382,-0.15 -0.128,-0.074 -0.194,-0.222 -0.194,-0.222 0,0 -0.184,-0.087 -0.33,-0.217 -0.144,-0.129 -0.189,-0.242 -0.189,-0.242 0,0 -0.089,-0.017 -0.158,-0.078 -0.068,-0.06 -0.212,-0.107 -0.307,-0.219 -0.097,-0.112 -0.078,-0.203 -0.051,-0.281 0.027,-0.078 0.066,-0.115 0.133,-0.078 0.045,0.025 0.045,0.078 0.045,0.078 0,0 -0.1,-0.052 -0.092,0.084 0.008,0.138 0.121,0.181 0.224,0.183 0.101,0.002 0.196,0.239 0.196,0.239 0,0 -0.029,-0.129 -0.022,-0.245 0.008,-0.115 0.057,-0.152 0.057,-0.152 0,0 -0.112,-0.018 -0.134,-0.087 -0.015,-0.05 0.051,-0.1 0.051,-0.1 0,0 -0.018,-0.058 -0.115,-0.1 -0.098,-0.041 -0.094,-0.129 -0.108,-0.198 -0.013,-0.069 -0.028,-0.141 -0.139,-0.206 -0.112,-0.064 -0.173,-0.066 -0.173,-0.066 0,0 0.027,0.021 -0.07,0.027 -0.098,0.006 -5.937,0.006 -6.036,0 -0.098,-0.006 -0.07,-0.027 -0.07,-0.027 0,0 -0.061,0.002 -0.173,0.066 -0.112,0.065 -0.125,0.137 -0.139,0.206 -0.014,0.069 -0.01,0.157 -0.108,0.198 -0.098,0.042 -0.116,0.1 -0.116,0.1 0,0 0.067,0.05 0.051,0.1 -0.021,0.069 -0.133,0.087 -0.133,0.087 0,0 0.049,0.037 0.057,0.152 0.008,0.116 -0.021,0.245 -0.021,0.245 0,0 0.093,-0.237 0.195,-0.239 0.102,-0.002 0.216,-0.045 0.224,-0.183 0.008,-0.136 -0.092,-0.084 -0.092,-0.084 0,0 0,-0.053 0.045,-0.078 0.067,-0.037 0.106,0 0.133,0.078 0.028,0.078 0.045,0.169 -0.051,0.281 -0.096,0.112 -0.239,0.159 -0.307,0.219 -0.069,0.061 -0.158,0.078 -0.158,0.078 0,0 -0.045,0.113 -0.19,0.242 -0.145,0.13 -0.329,0.217 -0.329,0.217 0,0 -0.066,0.148 -0.194,0.222 -0.183,0.107 -0.382,0.15 -0.382,0.15 0,0 -0.132,0.038 -0.174,0.126 -0.065,0.135 -0.165,0.153 -0.165,0.153 0,0 0.03,0.159 0.362,0.355 0.243,0.145 0.385,0.374 0.385,0.374 l 0.971,-0.659 c 0,0 0.015,-0.14 0.141,-0.279 0.127,-0.138 0.167,-0.187 0.08,-0.344 -0.218,-0.394 0.362,-0.412 0.362,-0.412"/><path id="path35" style="fill:#db2015;fill-opacity:1;fill-rule:nonzero;stroke:none" d="m 18,11.4414 c 0,0 -0.263,0.574 -0.994,0.827 -0.788,0.273 -1.82,0.114 -1.82,0.895 l 0,5.815 5.627,0 0,-5.815 c 0,-0.781 -1.031,-0.622 -1.819,-0.895 C 18.263,12.0154 18,11.4414 18,11.4414"/><path id="path36" style="fill:#f7b900;fill-opacity:1;fill-rule:nonzero;stroke:none" d="m 18,15.7109 c -0.822,0 -1.489,0.666 -1.489,1.488 0,0.823 0.667,1.489 1.489,1.489 0.822,0 1.488,-0.666 1.488,-1.489 0,-0.822 -0.666,-1.488 -1.488,-1.488"/><path id="path37" style="fill:#005ca2;fill-opacity:1;fill-rule:nonzero;stroke:none" d="m 18.0352,24.8413 0.1,-0.141 0.6,-0.177 0.459,-0.682 0.488,0.341 0.135,-0.459 -0.694,-0.459 -0.506,0.336 -0.317,-0.624 c 0,0 0.147,-0.259 0.171,-0.441 0.023,-0.182 0.005,-0.7 0.005,-0.7 l -1.2,0 c 0,0 -0.041,0.429 -0.035,0.676 0.006,0.247 0.077,0.448 0.077,0.448 l -0.112,0.5 -0.336,-0.306 -0.747,0.453 0.112,0.5 0.529,-0.394 0.459,0.747 0.359,0.135 0.041,0.176 0.412,0.071 z"/><path id="path38" style="fill:#005ca2;fill-opacity:1;fill-rule:nonzero;stroke:none" d="m 17.8354,25.8472 0.512,-0.235 0.199,0.052 -0.317,0.323 -0.394,-0.14 z"/></g></g></g></g></svg>