<svg xmlns:dc="http://purl.org/dc/elements/1.1/" xmlns:cc="http://creativecommons.org/ns#" xmlns:rdf="http://www.w3.org/1999/02/22-rdf-syntax-ns#" xmlns:svg="http://www.w3.org/2000/svg" xmlns="http://www.w3.org/2000/svg" viewBox="0 0 45 45" style="enable-background:new 0 0 45 45;" xml:space="preserve" version="1.1" id="svg2"><metadata id="metadata8"><rdf:RDF><cc:Work rdf:about=""><dc:format>image/svg+xml</dc:format><dc:type rdf:resource="http://purl.org/dc/dcmitype/StillImage"/></cc:Work></rdf:RDF></metadata><defs id="defs6"><clipPath id="clipPath16" clipPathUnits="userSpaceOnUse"><path id="path18" d="M 0,36 36,36 36,0 0,0 0,36 Z"/></clipPath></defs><g transform="matrix(1.25,0,0,-1.25,0,45)" id="g10"><g id="g12"><g xmlns="http://www.w3.org/2000/svg" clip-path="url(#clipPath16)" id="g14"><g id="g30"><path id="path20" style="fill:#eeeeee;fill-opacity:1;fill-rule:nonzero;stroke:none" d="M 32,31 4,31 C 1.791,31 0,29.209 0,27 L 0,9 C 0,6.791 1.791,5 4,5 l 28,0 c 2.209,0 4,1.791 4,4 l 0,18 c 0,2.209 -1.791,4 -4,4"/></g><g id="g32"><path id="path30" style="fill:#de4435;fill-opacity:1;fill-rule:nonzero;stroke:none" d="m 21.5273,19.0073 c 0,0 -0.103,0.101 -0.324,-0.045 -0.222,-0.145 -0.394,-0.103 -0.466,0.019 -0.071,0.122 0.033,0.172 0.094,0.033 0.061,-0.139 0.19,-0.088 0.345,-0.004 0.173,0.094 0.269,0.07 0.269,0.07 l 0.065,-0.016 0.017,-0.057 z"/><path id="path31" style="fill:#de4435;fill-opacity:1;fill-rule:nonzero;stroke:none" d="m 14.4727,19.0073 c 0,0 0.103,0.101 0.324,-0.045 0.222,-0.145 0.394,-0.103 0.466,0.019 0.072,0.122 -0.033,0.172 -0.094,0.033 -0.061,-0.139 -0.19,-0.088 -0.345,-0.004 -0.174,0.094 -0.268,0.07 -0.268,0.07 l -0.066,-0.016 -0.017,-0.057 z"/><path id="path32" style="fill:#e5cf8f;fill-opacity:1;fill-rule:nonzero;stroke:none" d="m 19.9277,18.8413 c 0,0 0.166,0.162 0.223,-0.103 0.055,-0.265 -0.104,-0.18 0.181,-0.518 0.285,-0.338 0.63,-0.147 0.886,0.053 0.107,0.085 0.357,0.208 0.314,0.4 -0.079,0.356 -0.279,0.153 -0.279,0.153 0,0 -0.047,0.108 0.101,0.163 0.1,0.038 0.19,-0.08 0.19,-0.08 0,0 0.003,0.13 -0.067,0.155 -0.07,0.025 -0.068,0.078 -0.068,0.078 0,0 -0.075,-0.083 -0.196,0.008 -0.059,0.044 -0.139,0.027 -0.172,-0.02 -0.036,-0.051 -0.023,-0.133 -0.023,-0.133 0,0 -0.137,0.039 -0.101,0.226 0.032,0.162 0.235,0.131 0.235,0.131 0,0 0.046,0.127 0.128,0.178 0.083,0.052 0.129,0.021 0.207,0.054 0.076,0.032 0.091,0.087 0.091,0.087 0,0 0.002,-0.168 0.182,-0.259 0.139,-0.071 0.227,0 0.227,0 0,0 0.001,-0.034 -0.013,-0.081 -0.015,-0.047 -0.057,-0.086 -0.057,-0.086 0,0 0.18,0.02 0.231,-0.244 0.05,-0.265 0.125,-0.504 0.04,-0.795 -0.092,-0.318 0.115,-0.229 0.115,-0.229 0,0 0.114,0.152 0.271,0.543 0.156,0.39 0.197,0.595 0.26,0.595 0.065,0 0.055,-0.253 0.055,-0.253 0,0 0.049,0.082 0.094,0.017 0.046,-0.066 -0.025,-0.29 -0.025,-0.29 0,0 0.036,0.06 0.071,0.087 0.034,0.026 0.055,0.012 0.055,0.012 0,0 0.237,0.422 0.296,0.419 0.06,-0.003 0.014,-0.27 0.014,-0.27 0,0 0.122,0.16 0.164,0.109 0.057,-0.068 -0.044,-0.278 -0.044,-0.278 0,0 0.102,0.088 0.137,0.055 0.078,-0.077 -0.09,-0.296 -0.09,-0.296 0,0 0.138,0.089 0.138,-0.006 0,-0.095 -0.216,-0.314 -0.216,-0.314 0,0 0.216,0.103 0.216,-0.006 0,-0.125 -0.22,-0.225 -0.22,-0.225 0,0 0.147,0.027 0.168,-0.027 0.039,-0.101 -0.24,-0.17 -0.24,-0.17 0,0 0.167,0.003 0.184,-0.046 0.026,-0.074 -0.268,-0.146 -0.268,-0.146 0,0 0.146,-0.007 0.14,-0.063 -0.008,-0.075 -0.371,-0.088 -0.371,-0.088 0,0 0.21,-0.089 0.168,-0.164 -0.051,-0.091 -0.442,-0.007 -0.442,-0.007 0,0 0.258,-0.126 0.212,-0.196 -0.047,-0.068 -0.253,0.026 -0.253,0.026 0,0 0.127,-0.101 0.078,-0.135 -0.048,-0.034 -0.18,0.023 -0.18,0.023 0,0 0.124,-0.106 0.039,-0.146 -0.06,-0.029 -0.173,0.052 -0.173,0.052 0,0 0.04,-0.085 -0.053,-0.08 -0.094,0.005 -0.158,0.057 -0.158,0.057 0,0 0,-0.044 -0.041,-0.045 -0.041,-0.002 -0.08,0.021 -0.08,0.021 0,0 0.004,-0.046 -0.043,-0.043 -0.047,0.004 -0.085,0.043 -0.085,0.043 l -0.028,-0.023 c 0,0 0.077,-0.114 0.293,-0.215 0.151,-0.072 0.303,-0.286 0.303,-0.286 0,0 0.675,0.303 0.758,-0.323 0.061,-0.473 -0.745,-0.603 -0.745,-0.603 0,0 0.006,-0.086 0.234,-0.086 0.178,0 0.242,0.052 0.287,0.052 0.092,0 0.131,-0.068 0.131,-0.068 0,0 0.069,0.014 0.126,-0.029 0.055,-0.043 0.086,-0.273 0.086,-0.273 0,0 -0.051,-0.174 -0.161,-0.291 -0.11,-0.115 -0.229,-0.17 -0.229,-0.17 l -0.095,-0.217 c 0,0 0.122,-0.041 0.212,-0.132 0.09,-0.09 0.082,-0.134 0.006,-0.18 -0.14,-0.085 -0.323,0.117 -0.323,0.117 l -0.095,-0.019 c 0,0 -0.117,-0.247 -0.284,-0.177 -0.104,0.044 -0.063,0.147 -0.063,0.147 0,0 -0.149,-0.07 -0.217,0.032 -0.056,0.083 0.047,0.169 0.047,0.169 0,0 -0.038,0.115 0.127,0.136 0.165,0.022 0.302,-0.019 0.302,-0.019 0,0 0.119,0.12 0.193,0.264 0.072,0.146 0.103,0.352 0.08,0.372 -0.011,0.008 -0.16,0.006 -0.367,-0.151 -0.208,-0.158 -0.4,-0.189 -0.4,-0.189 0,0 0.167,0.061 0.106,0.192 -0.025,0.055 -0.068,0.023 -0.087,-10e-4 -0.029,-0.034 -0.031,-0.079 -0.031,-0.079 0,0 -0.062,0.082 -0.058,0.249 0.002,0.104 -0.068,0.208 -0.068,0.208 0,0 -0.229,-0.014 -0.342,-0.218 -0.145,-0.262 0.058,-0.334 0.058,-0.334 0,0 0.044,0.064 0.161,0.042 0.118,-0.022 0.22,-0.004 0.22,-0.004 0,0 -0.014,-0.024 -0.037,-0.042 -0.024,-0.017 -0.055,-0.029 -0.055,-0.029 0,0 0.084,-0.047 0.203,-0.062 0.12,-0.016 0.226,0.124 0.226,0.124 0,0 0,-0.033 -0.031,-0.078 -0.032,-0.044 -0.073,-0.068 -0.073,-0.068 0,0 0.049,0.006 0.098,0.026 0.049,0.019 0.085,0.074 0.085,0.074 0,0 -0.051,-0.108 -0.157,-0.16 -0.142,-0.072 -0.284,-0.038 -0.284,-0.038 0,0 0.027,-0.012 0.048,-0.065 0.022,-0.053 0.016,-0.088 0.016,-0.088 0,0 0.004,0.057 -0.171,0.057 -0.253,0 -0.282,0.241 -0.282,0.241 0,0 -0.172,0.064 -0.172,0.228 0,0.412 0.474,0.453 0.474,0.453 0,0 -0.02,0.111 -0.02,0.241 0,0.098 0.045,0.152 0.091,0.225 0.03,0.049 0.066,0.116 0.066,0.116 0,0 -0.26,0 -0.388,0.021 -0.127,0.022 -0.251,0.019 -0.286,-0.023 -0.065,-0.078 -0.378,-0.127 -0.396,-0.151 -0.017,-0.024 -0.027,-0.186 0.104,-0.341 0.131,-0.155 0.052,-0.189 0.147,-0.238 0.094,-0.049 0.123,-0.233 0.123,-0.233 0,0 -0.125,-0.204 -0.323,-0.259 -0.198,-0.055 -0.333,-0.062 -0.333,-0.062 l -0.12,-0.104 c 0,0 0.216,-0.138 0.074,-0.255 -0.141,-0.118 -0.345,0.117 -0.345,0.117 l -0.101,-0.006 c 0,0 -0.204,-0.115 -0.325,-0.101 -0.119,0.014 -0.082,0.146 -0.082,0.146 0,0 -0.163,-0.06 -0.163,0.093 0,0.153 0.253,0.172 0.253,0.172 0,0 -0.004,0.077 0.105,0.077 0.107,0 0.266,-0.071 0.266,-0.071 0,0 0.17,0.059 0.333,0.159 0.163,0.1 0.136,0.125 0.177,0.151 0.041,0.026 0.113,0.057 0.113,0.1 0,0.043 -0.119,0.07 -0.185,0.137 -0.067,0.067 -0.114,0.151 -0.114,0.151 0,0 -0.016,-0.033 -0.078,-0.07 -0.063,-0.037 -0.142,-0.035 -0.142,-0.035 0,0 0.218,0.09 0.145,0.191 -0.049,0.069 -0.139,-0.082 -0.139,-0.082 0,0 -0.013,0.41 0.132,0.596 0.258,0.334 1.406,0.248 1.406,0.248 0,0 -0.099,0.109 -0.544,0.201 -0.375,0.078 -0.551,0.294 -0.551,0.294 0,0 -0.028,0.015 -0.066,0.008 -0.038,-0.006 -0.077,-0.014 -0.077,-0.014 0,0 -0.022,0.032 -0.034,0.071 -0.011,0.039 -0.011,0.112 -0.011,0.112 0,0 -0.106,0.006 -0.31,-0.002 -0.204,-0.008 -0.278,-0.035 -0.278,-0.035 0,0 -0.055,-0.1 -0.065,-0.246 -0.021,-0.311 -0.24,-0.109 -0.24,-0.109 l 0.003,0.831 c 0,0 0.111,0.027 0.17,-0.103 0.059,-0.132 0.118,-0.165 0.118,-0.165 l 0.384,0.111 c 0,0 0.017,0.029 0.021,0.054 0.005,0.023 0.007,0.05 0.007,0.05 0,0 -0.024,-0.043 -0.108,-0.075 -0.084,-0.031 -0.232,-0.031 -0.232,-0.031 0,0 0.034,0.054 0.059,0.085 0.025,0.031 0.085,0.059 0.085,0.059 0,0 -0.051,-0.008 -0.101,-0.006 -0.049,0.002 -0.097,0.031 -0.097,0.031 0,0 0.072,0.014 0.111,0.051 0.04,0.037 0.05,0.106 0.05,0.106 0,0 -0.081,0.022 -0.13,0.049 -0.049,0.027 -0.08,0.096 -0.08,0.096 0,0 0.139,-0.097 0.227,0.08 0.143,0.288 -0.345,0.567 -0.345,0.567 0,0 -0.006,-0.049 -0.041,-0.112 -0.036,-0.063 -0.098,-0.139 -0.098,-0.139 l 0,0.902 z"/><path id="path33" style="fill:#e5cf8f;fill-opacity:1;fill-rule:nonzero;stroke:none" d="m 16.0728,18.8413 c 0,0 -0.167,0.162 -0.223,-0.103 -0.056,-0.265 0.103,-0.18 -0.182,-0.518 -0.285,-0.338 -0.63,-0.147 -0.886,0.053 -0.107,0.085 -0.357,0.208 -0.314,0.4 0.079,0.356 0.279,0.153 0.279,0.153 0,0 0.047,0.108 -0.1,0.163 -0.101,0.038 -0.191,-0.08 -0.191,-0.08 0,0 -0.003,0.13 0.068,0.155 0.07,0.025 0.067,0.078 0.067,0.078 0,0 0.075,-0.083 0.197,0.008 0.059,0.044 0.138,0.027 0.172,-0.02 0.035,-0.051 0.023,-0.133 0.023,-0.133 0,0 0.136,0.039 0.1,0.226 -0.031,0.162 -0.234,0.131 -0.234,0.131 0,0 -0.046,0.127 -0.129,0.178 -0.082,0.052 -0.129,0.021 -0.206,0.054 -0.076,0.032 -0.092,0.087 -0.092,0.087 0,0 -10e-4,-0.168 -0.181,-0.259 -0.139,-0.071 -0.227,0 -0.227,0 0,0 -10e-4,-0.034 0.013,-0.081 0.014,-0.047 0.056,-0.086 0.056,-0.086 0,0 -0.18,0.02 -0.23,-0.244 -0.05,-0.265 -0.125,-0.504 -0.04,-0.795 0.092,-0.318 -0.115,-0.229 -0.115,-0.229 0,0 -0.115,0.152 -0.271,0.543 -0.156,0.39 -0.197,0.595 -0.261,0.595 -0.064,0 -0.055,-0.253 -0.055,-0.253 0,0 -0.048,0.082 -0.094,0.017 -0.045,-0.066 0.025,-0.29 0.025,-0.29 0,0 -0.035,0.06 -0.07,0.087 -0.034,0.026 -0.056,0.012 -0.056,0.012 0,0 -0.236,0.422 -0.296,0.419 -0.059,-0.003 -0.013,-0.27 -0.013,-0.27 0,0 -0.123,0.16 -0.164,0.109 -0.057,-0.068 0.043,-0.278 0.043,-0.278 0,0 -0.102,0.088 -0.136,0.055 -0.078,-0.077 0.089,-0.296 0.089,-0.296 0,0 -0.137,0.089 -0.137,-0.006 0,-0.095 0.215,-0.314 0.215,-0.314 0,0 -0.215,0.103 -0.215,-0.006 0,-0.125 0.22,-0.225 0.22,-0.225 0,0 -0.148,0.027 -0.169,-0.027 -0.039,-0.101 0.241,-0.17 0.241,-0.17 0,0 -0.167,0.003 -0.185,-0.046 -0.026,-0.074 0.269,-0.146 0.269,-0.146 0,0 -0.146,-0.007 -0.14,-0.063 0.008,-0.075 0.37,-0.088 0.37,-0.088 0,0 -0.209,-0.089 -0.167,-0.164 0.05,-0.091 0.442,-0.007 0.442,-0.007 0,0 -0.259,-0.126 -0.213,-0.196 0.047,-0.068 0.254,0.026 0.254,0.026 0,0 -0.127,-0.101 -0.078,-0.135 0.048,-0.034 0.179,0.023 0.179,0.023 0,0 -0.123,-0.106 -0.039,-0.146 0.061,-0.029 0.174,0.052 0.174,0.052 0,0 -0.041,-0.085 0.053,-0.08 0.094,0.005 0.158,0.057 0.158,0.057 0,0 0,-0.044 0.04,-0.045 0.041,-0.002 0.08,0.021 0.08,0.021 0,0 -0.003,-0.046 0.044,-0.043 0.047,0.004 0.084,0.043 0.084,0.043 l 0.028,-0.023 c 0,0 -0.077,-0.114 -0.292,-0.215 -0.152,-0.072 -0.303,-0.286 -0.303,-0.286 0,0 -0.675,0.303 -0.758,-0.323 -0.062,-0.473 0.745,-0.603 0.745,-0.603 0,0 -0.007,-0.086 -0.235,-0.086 -0.178,0 -0.241,0.052 -0.286,0.052 -0.092,0 -0.132,-0.068 -0.132,-0.068 0,0 -0.069,0.014 -0.125,-0.029 -0.056,-0.043 -0.086,-0.273 -0.086,-0.273 0,0 0.051,-0.174 0.16,-0.291 0.11,-0.115 0.23,-0.17 0.23,-0.17 l 0.094,-0.217 c 0,0 -0.121,-0.041 -0.212,-0.132 -0.09,-0.09 -0.082,-0.134 -0.006,-0.18 0.14,-0.085 0.324,0.117 0.324,0.117 l 0.094,-0.019 c 0,0 0.118,-0.247 0.285,-0.177 0.104,0.044 0.062,0.147 0.062,0.147 0,0 0.149,-0.07 0.218,0.032 0.056,0.083 -0.047,0.169 -0.047,0.169 0,0 0.037,0.115 -0.128,0.136 -0.164,0.022 -0.302,-0.019 -0.302,-0.019 0,0 -0.119,0.12 -0.192,0.264 -0.072,0.146 -0.104,0.352 -0.08,0.372 0.011,0.008 0.159,0.006 0.367,-0.151 0.207,-0.158 0.399,-0.189 0.399,-0.189 0,0 -0.166,0.061 -0.106,0.192 0.026,0.055 0.068,0.023 0.088,-10e-4 0.028,-0.034 0.03,-0.079 0.03,-0.079 0,0 0.063,0.082 0.059,0.249 -0.003,0.104 0.067,0.208 0.067,0.208 0,0 0.23,-0.014 0.343,-0.218 0.145,-0.262 -0.059,-0.334 -0.059,-0.334 0,0 -0.043,0.064 -0.161,0.042 -0.117,-0.022 -0.22,-0.004 -0.22,-0.004 0,0 0.014,-0.024 0.038,-0.042 0.024,-0.017 0.055,-0.029 0.055,-0.029 0,0 -0.085,-0.047 -0.204,-0.062 -0.12,-0.016 -0.225,0.124 -0.225,0.124 0,0 0,-0.033 0.031,-0.078 0.031,-0.044 0.072,-0.068 0.072,-0.068 0,0 -0.049,0.006 -0.098,0.026 -0.049,0.019 -0.084,0.074 -0.084,0.074 0,0 0.05,-0.108 0.157,-0.16 0.141,-0.072 0.284,-0.038 0.284,-0.038 0,0 -0.027,-0.012 -0.049,-0.065 -0.021,-0.053 -0.016,-0.088 -0.016,-0.088 0,0 -0.003,0.057 0.171,0.057 0.253,0 0.283,0.241 0.283,0.241 0,0 0.172,0.064 0.172,0.228 0,0.412 -0.475,0.453 -0.475,0.453 0,0 0.02,0.111 0.02,0.241 0,0.098 -0.045,0.152 -0.09,0.225 -0.031,0.049 -0.067,0.116 -0.067,0.116 0,0 0.261,0 0.388,0.021 0.128,0.022 0.252,0.019 0.286,-0.023 0.065,-0.078 0.379,-0.127 0.397,-0.151 0.017,-0.024 0.027,-0.186 -0.104,-0.341 -0.131,-0.155 -0.053,-0.189 -0.147,-0.238 -0.094,-0.049 -0.124,-0.233 -0.124,-0.233 0,0 0.126,-0.204 0.324,-0.259 0.198,-0.055 0.333,-0.062 0.333,-0.062 l 0.12,-0.104 c 0,0 -0.216,-0.138 -0.075,-0.255 0.141,-0.118 0.345,0.117 0.345,0.117 l 0.102,-0.006 c 0,0 0.204,-0.115 0.324,-0.101 0.119,0.014 0.082,0.146 0.082,0.146 0,0 0.163,-0.06 0.163,0.093 0,0.153 -0.253,0.172 -0.253,0.172 0,0 0.004,0.077 -0.104,0.077 -0.108,0 -0.267,-0.071 -0.267,-0.071 0,0 -0.17,0.059 -0.333,0.159 -0.163,0.1 -0.135,0.125 -0.177,0.151 -0.041,0.026 -0.113,0.057 -0.113,0.1 0,0.043 0.119,0.07 0.186,0.137 0.067,0.067 0.114,0.151 0.114,0.151 0,0 0.016,-0.033 0.078,-0.07 0.063,-0.037 0.142,-0.035 0.142,-0.035 0,0 -0.218,0.09 -0.146,0.191 0.049,0.069 0.139,-0.082 0.139,-0.082 0,0 0.013,0.41 -0.131,0.596 -0.259,0.334 -1.406,0.248 -1.406,0.248 0,0 0.098,0.109 0.544,0.201 0.375,0.078 0.55,0.294 0.55,0.294 0,0 0.029,0.015 0.067,0.008 0.038,-0.006 0.076,-0.014 0.076,-0.014 0,0 0.022,0.032 0.034,0.071 0.011,0.039 0.011,0.112 0.011,0.112 0,0 0.106,0.006 0.31,-0.002 0.205,-0.008 0.279,-0.035 0.279,-0.035 0,0 0.054,-0.1 0.065,-0.246 0.021,-0.311 0.239,-0.109 0.239,-0.109 l -0.002,0.831 c 0,0 -0.112,0.027 -0.171,-0.103 -0.058,-0.132 -0.118,-0.165 -0.118,-0.165 l -0.384,0.111 c 0,0 -0.017,0.029 -0.021,0.054 -0.004,0.023 -0.006,0.05 -0.006,0.05 0,0 0.023,-0.043 0.108,-0.075 0.084,-0.031 0.231,-0.031 0.231,-0.031 0,0 -0.034,0.054 -0.059,0.085 -0.025,0.031 -0.084,0.059 -0.084,0.059 0,0 0.051,-0.008 0.1,-0.006 0.049,0.002 0.098,0.031 0.098,0.031 0,0 -0.072,0.014 -0.112,0.051 -0.039,0.037 -0.049,0.106 -0.049,0.106 0,0 0.08,0.022 0.13,0.049 0.048,0.027 0.08,0.096 0.08,0.096 0,0 -0.14,-0.097 -0.227,0.08 -0.143,0.288 0.344,0.567 0.344,0.567 0,0 0.007,-0.049 0.042,-0.112 0.035,-0.063 0.098,-0.139 0.098,-0.139 l 0,0.902 z"/><path id="path34" style="fill:#d2212e;fill-opacity:1;fill-rule:nonzero;stroke:none" d="m 18,13.9414 c 0,0 -1.01,0.397 -1.433,1.033 -0.424,0.635 -0.494,1.255 -0.494,1.522 l 0,2.58 3.855,0 0,-2.58 c 0,-0.267 -0.072,-0.887 -0.494,-1.522 C 19.01,14.3384 18,13.9414 18,13.9414"/><path id="path35" style="fill:#e5cf8f;fill-opacity:1;fill-rule:nonzero;stroke:none" d="m 19.7373,19.0767 0,0.741 c 0,0 -0.253,1.614 -1.737,1.614 -1.485,0 -1.738,-1.614 -1.738,-1.614 l 0,-0.741 3.475,0 z"/><path id="path36" style="fill:#e5cf8f;fill-opacity:1;fill-rule:nonzero;stroke:none" d="m 18.0435,21.4404 c -0.058,-0.022 -0.123,0.007 -0.145,0.065 -0.013,0.035 -0.008,0.072 0.01,0.101 l -0.108,0.287 -0.151,-0.057 c -0.008,-0.025 -0.027,-0.047 -0.053,-0.057 -0.048,-0.018 -0.1,0.006 -0.117,0.053 -0.019,0.047 0.005,0.1 0.052,0.117 0.026,0.01 0.054,0.007 0.077,-0.006 l 0.151,0.058 -0.062,0.166 c -0.02,0.009 -0.036,0.026 -0.045,0.048 -0.017,0.047 0.006,0.1 0.053,0.118 0.047,0.018 0.1,-0.006 0.117,-0.053 0.009,-0.023 0.008,-0.046 0,-0.067 l 0.062,-0.165 0.152,0.057 c 0.008,0.024 0.028,0.045 0.053,0.055 0.047,0.018 0.1,-0.006 0.118,-0.053 0.018,-0.046 -0.006,-0.099 -0.053,-0.117 -0.027,-0.009 -0.055,-0.007 -0.078,0.007 l -0.151,-0.057 0.109,-0.287 c 0.032,-0.009 0.061,-0.033 0.074,-0.068 0.022,-0.058 -0.007,-0.123 -0.065,-0.145"/></g><g id="g34"><path id="path40" style="fill:#41704c;fill-opacity:1;fill-rule:nonzero;stroke:none" d="m 19.7686,7.5996 -1.769,-2.599 -1.769,2.599 3.538,0 z"/><path id="path41" style="fill:#d2212e;fill-opacity:1;fill-rule:nonzero;stroke:none" d="m 19.7686,5.001 1.769,2.599 1.769,-2.599 -3.538,0 z"/><path id="path42" style="fill:#41704c;fill-opacity:1;fill-rule:nonzero;stroke:none" d="m 26.8438,7.5996 -1.769,-2.599 -1.768,2.599 3.537,0 z"/><path id="path43" style="fill:#d2212e;fill-opacity:1;fill-rule:nonzero;stroke:none" d="m 26.8438,5.001 1.769,2.599 1.768,-2.599 -3.537,0 z"/><path id="path44" style="fill:#41704c;fill-opacity:1;fill-rule:nonzero;stroke:none" d="m 33.9189,7.5996 -1.769,-2.599 -1.769,2.599 3.538,0 z"/><path id="path45" style="fill:#d2212e;fill-opacity:1;fill-rule:nonzero;stroke:none" d="m 12.6938,5.001 1.769,2.599 1.768,-2.599 -3.537,0 z"/><path id="path46" style="fill:#41704c;fill-opacity:1;fill-rule:nonzero;stroke:none" d="m 12.6938,7.5996 -1.769,-2.599 -1.769,2.599 3.538,0 z"/><path id="path47" style="fill:#d2212e;fill-opacity:1;fill-rule:nonzero;stroke:none" d="m 5.6187,5.001 1.769,2.599 1.769,-2.599 -3.538,0 z"/><path id="path48" style="fill:#41704c;fill-opacity:1;fill-rule:nonzero;stroke:none" d="m 5.6187,7.5996 -1.769,-2.599 -1.769,2.599 3.538,0 z"/></g><g id="g36"><path id="path50" style="fill:#41704c;fill-opacity:1;fill-rule:nonzero;stroke:none" d="m 16.2314,28.4014 1.769,2.599 1.768,-2.599 -3.537,0 z"/><path id="path51" style="fill:#d2212e;fill-opacity:1;fill-rule:nonzero;stroke:none" d="m 16.2314,31 -1.769,-2.599 -1.769,2.599 3.538,0 z"/><path id="path52" style="fill:#41704c;fill-opacity:1;fill-rule:nonzero;stroke:none" d="m 9.1562,28.4014 1.769,2.599 1.769,-2.599 -3.538,0 z"/><path id="path53" style="fill:#d2212e;fill-opacity:1;fill-rule:nonzero;stroke:none" d="M 9.1562,31 7.3872,28.401 5.6182,31 l 3.538,0 z"/><path id="path54" style="fill:#41704c;fill-opacity:1;fill-rule:nonzero;stroke:none" d="m 2.0811,28.4014 1.769,2.599 1.769,-2.599 -3.538,0 z"/><path id="path55" style="fill:#d2212e;fill-opacity:1;fill-rule:nonzero;stroke:none" d="m 23.3066,31 -1.77,-2.599 -1.768,2.599 3.538,0 z"/><path id="path56" style="fill:#41704c;fill-opacity:1;fill-rule:nonzero;stroke:none" d="m 23.3066,28.4014 1.769,2.599 1.768,-2.599 -3.537,0 z"/><path id="path57" style="fill:#d2212e;fill-opacity:1;fill-rule:nonzero;stroke:none" d="m 30.3809,31 -1.769,-2.599 -1.768,2.599 3.537,0 z"/><path id="path58" style="fill:#41704c;fill-opacity:1;fill-rule:nonzero;stroke:none" d="m 30.3809,28.4014 1.77,2.599 1.768,-2.599 -3.538,0 z"/></g></g></g></g></svg>