<svg xmlns:dc="http://purl.org/dc/elements/1.1/" xmlns:cc="http://creativecommons.org/ns#" xmlns:rdf="http://www.w3.org/1999/02/22-rdf-syntax-ns#" xmlns:svg="http://www.w3.org/2000/svg" xmlns="http://www.w3.org/2000/svg" viewBox="0 0 45 45" style="enable-background:new 0 0 45 45;" xml:space="preserve" version="1.1" id="svg2"><metadata id="metadata8"><rdf:RDF><cc:Work rdf:about=""><dc:format>image/svg+xml</dc:format><dc:type rdf:resource="http://purl.org/dc/dcmitype/StillImage"/></cc:Work></rdf:RDF></metadata><defs id="defs6"><clipPath id="clipPath16" clipPathUnits="userSpaceOnUse"><path id="path18" d="M 0,36 36,36 36,0 0,0 0,36 Z"/></clipPath></defs><g transform="matrix(1.25,0,0,-1.25,0,45)" id="g10"><g id="g12"><g xmlns="http://www.w3.org/2000/svg" clip-path="url(#clipPath16)" id="g14"><g id="g30"><path id="path20" style="fill:#0077b9;fill-opacity:1;fill-rule:nonzero;stroke:none" d="M 32,31 H 24 V 5 h 8 c 2.209,0 4,1.791 4,4 v 18 c 0,2.209 -1.791,4 -4,4"/><path id="path21" style="fill:#eeeeee;fill-opacity:1;fill-rule:nonzero;stroke:none" d="M 24,5 H 12 v 26 h 12 z"/><path id="path22" style="fill:#da251d;fill-opacity:1;fill-rule:nonzero;stroke:none" d="M 12,31 H 4 C 1.791,31 0,29.209 0,27 V 9 C 0,6.791 1.791,5 4,5 h 8 z"/></g><g id="g32"><path id="path30" style="fill:#0067ab;fill-opacity:1;fill-rule:nonzero;stroke:none" d="m 21.0303,16.2803 c -0.221,-0.95 -0.91,-2.221 -3.03,-2.221 -2.09,0 -2.79,1.25 -3.02,2.191 0.12,-0.09 0.27,-0.151 0.43,-0.151 0.2,0.011 0.37,0.101 0.5,0.241 0.13,0.15 0.32,0.25 0.52,0.25 0.21,0 0.39,-0.1 0.52,-0.25 0.14,-0.14 0.32,-0.241 0.53,-0.241 0.2,0 0.52,0.351 0.52,0.351 0,0 0.32,-0.34 0.53,-0.34 0.2,0 0.39,0.09 0.52,0.25 0.14,0.149 0.32,0.239 0.53,0.239 0.2,0 0.389,-0.09 0.519,-0.239 0.131,-0.15 0.311,-0.23 0.5,-0.24 0.16,0 0.311,0.059 0.431,0.16"/><path id="path31" style="fill:#ffffff;fill-opacity:1;fill-rule:nonzero;stroke:none" d="m 21.1201,19.4302 v -2.34 c 0,-0.18 -0.021,-0.48 -0.09,-0.81 -0.12,-0.1 -0.27,-0.16 -0.431,-0.16 -0.189,0.01 -0.369,0.09 -0.5,0.24 -0.129,0.15 -0.319,0.239 -0.519,0.239 -0.21,0 -0.39,-0.089 -0.53,-0.239 -0.13,-0.16 -0.32,-0.25 -0.52,-0.25 -0.21,0 -0.53,0.34 -0.53,0.34 0,0 -0.32,-0.351 -0.52,-0.351 -0.21,0 -0.39,0.101 -0.53,0.241 -0.13,0.15 -0.31,0.25 -0.52,0.25 -0.2,0 -0.39,-0.1 -0.52,-0.25 -0.13,-0.14 -0.3,-0.23 -0.5,-0.241 -0.16,0 -0.31,0.061 -0.43,0.151 -0.08,0.349 -0.1,0.65 -0.1,0.84 v 2.32 c 0.2,0.01 0.37,0.1 0.5,0.24 0.13,0.15 0.32,0.25 0.52,0.25 0.21,0 0.39,-0.1 0.52,-0.25 0.14,-0.14 0.32,-0.24 0.53,-0.24 0.2,0 0.39,0.1 0.52,0.25 0.14,0.15 0.32,0.24 0.53,0.24 0.2,0 0.39,-0.09 0.519,-0.24 0.141,-0.15 0.321,-0.24 0.531,-0.24 0.2,0 0.39,0.09 0.52,0.25 0.14,0.15 0.32,0.24 0.529,0.24 0.201,0 0.391,-0.09 0.521,-0.24 0.13,-0.15 0.31,-0.23 0.5,-0.24"/><path id="path32" style="fill:#0067ab;fill-opacity:1;fill-rule:nonzero;stroke:none" d="m 21.1201,21.6201 v -2.19 c -0.19,0.01 -0.37,0.09 -0.5,0.24 -0.13,0.15 -0.32,0.24 -0.521,0.24 -0.209,0 -0.389,-0.09 -0.529,-0.24 -0.13,-0.16 -0.32,-0.25 -0.52,-0.25 -0.21,0 -0.39,0.09 -0.531,0.24 -0.129,0.15 -0.319,0.24 -0.519,0.24 -0.21,0 -0.39,-0.09 -0.53,-0.24 -0.13,-0.15 -0.32,-0.25 -0.52,-0.25 -0.21,0 -0.39,0.1 -0.53,0.24 -0.13,0.15 -0.31,0.25 -0.52,0.25 -0.2,0 -0.39,-0.1 -0.52,-0.25 -0.13,-0.14 -0.3,-0.23 -0.5,-0.24 v 2.21 z"/><path id="path33" style="fill:#aaaaaa;fill-opacity:1;fill-rule:nonzero;stroke:none" d="m 17.0068,21.7495 0.109,1.08 -0.723,0.809 1.061,0.23 0.546,0.938 0.547,-0.938 1.061,-0.23 -0.723,-0.809 0.108,-1.08 -0.993,0.437 z"/><path id="path34" style="fill:#ffffff;fill-opacity:1;fill-rule:nonzero;stroke:none" d="m 18,24.5576 0.466,-0.799 0.905,-0.197 -0.616,-0.691 0.093,-0.92 -0.848,0.372 -0.847,-0.372 0.093,0.92 -0.617,0.691 0.905,0.197 z"/><path id="path35" style="fill:#00923f;fill-opacity:1;fill-rule:nonzero;stroke:none" d="m 23.4004,18.73 c 0.42,-0.61 0.51,-1.19 0.51,-1.29 -0.05,0.07 -0.281,0.34 -0.941,0.48 -0.219,0.05 -0.359,0.14 -0.429,0.24 -0.01,-0.48 -0.021,-0.91 -0.04,-1.25 0.059,0.07 0.139,0.12 0.25,0.12 0.44,0 0.73,-0.42 0.809,-0.59 0.08,-0.18 0.03,-0.79 -0.059,-0.99 -0.08,-0.17 -0.321,-0.36 -0.38,-0.4 0.019,0.05 0.17,0.44 -0.111,0.84 -0.24,0.36 -0.439,0.42 -0.559,0.41 -0.04,-0.37 -0.141,-0.77 -0.311,-1.15 0.071,0.04 0.151,0.06 0.25,0.06 0.271,0 0.54,-0.11 0.7,-0.33 0.151,-0.18 0.29,-0.63 0.231,-0.77 -0.16,-0.35 0.109,-0.69 0.109,-0.69 0,0 -0.259,0.01 -0.489,0.05 -0.24,0.05 -0.41,0.18 -0.41,0.18 0,0 -0.04,-0.18 -0.221,-0.39 -0.17,-0.22 -0.47,-0.4 -0.47,-0.4 0,0 0.031,0.3 -0.019,0.59 -0.051,0.28 -0.28,0.37 -0.28,0.37 0,0 -0.05,-0.06 -0.321,-0.12 -0.309,-0.06 -0.509,-0.68 -0.509,-0.68 0,0 -0.14,0.19 -0.22,0.48 -0.061,-0.04 -0.13,-0.06 -0.2,-0.09 -0.64,-0.23 -1.26,-0.63 -1.771,-1 0.381,-0.25 0.58,-0.46 0.591,-0.48 l -0.25,-0.24 c -0.011,0.01 -0.221,0.23 -0.641,0.5 -0.5,-0.4 -0.819,-0.71 -0.829,-0.72 l -0.25,0.25 c 0.03,0.03 0.31,0.31 0.76,0.66 -0.351,0.19 -0.791,0.37 -1.32,0.51 -1.111,0.29 -1.75,0.52 -2.15,1.13 -0.091,0.02 -0.28,0.07 -0.4,0.06 -0.061,0 -0.14,-0.04 -0.14,-0.04 l -0.83,-1.48 0.59,2.12 c 0,0 0.08,0.07 0.209,0.1 0.101,0.01 0.19,-0.01 0.241,-0.02 -0.011,0.04 -0.031,0.08 -0.04,0.13 -0.02,0.05 -0.051,0.13 -0.091,0.22 -0.099,0.23 -0.15,0.5 -0.389,0.73 -0.27,0.27 -0.48,0.11 -0.48,0.11 l -0.82,-1.47 0.579,2.11 c 0,0 0.19,0.19 0.46,0.09 0.15,-0.05 0.31,-0.19 0.421,-0.3 -0.01,0.06 -0.021,0.12 -0.03,0.19 -0.02,0.05 -0.05,0.13 -0.09,0.23 -0.071,0.18 -0.16,0.47 -0.301,0.63 -0.289,0.34 -0.449,0.13 -0.449,0.13 l -0.72,-1.45 0.51,2.1 c 0,0 0.19,0.26 0.599,-0.03 0.12,-0.08 0.21,-0.2 0.281,-0.31 -0.01,0.16 -0.02,0.32 -0.031,0.47 -0.009,0.03 -0.04,0.09 -0.069,0.18 -0.09,0.24 -0.121,0.55 -0.371,0.85 -0.199,0.23 -0.359,0.07 -0.359,0.07 l -0.661,-1.46 0.46,2.1 c 0,0 0.111,0.15 0.261,0.13 0.13,-0.02 0.359,-0.23 0.42,-0.28 -0.03,0.09 -0.23,0.6 -0.23,0.8 0,0.28 0.129,0.6 0.129,0.6 0,0 0.191,-0.54 0.25,-0.76 0.051,-0.2 0.17,-0.68 0.201,-0.81 0.12,1.1 0.45,1.91 0.469,1.95 0,0 0.051,-0.14 0.141,-0.24 0.09,-0.1 0.13,-0.25 0.13,-0.38 0,-0.28 -0.12,-0.51 -0.231,-0.83 0.091,0.09 0.191,0.16 0.25,0.16 0.101,0 0.17,-0.09 0.17,-0.09 l 0.361,-2.12 -0.491,1.46 c 0,0 -0.12,0.13 -0.25,-0.06 -0.109,-0.13 -0.199,-0.42 -0.239,-0.55 0,-0.44 0.029,-0.89 0.07,-1.34 0.06,0.13 0.2,0.4 0.379,0.48 0.17,0.08 0.261,-0.07 0.261,-0.07 l 0.319,-1.81 -0.449,1.24 c 0,0 -0.051,0.13 -0.2,0.03 -0.121,-0.09 -0.21,-0.37 -0.23,-0.47 0.06,-0.51 0.15,-0.99 0.23,-1.38 l -0.011,0.41 c 0,0 0.091,0.25 0.29,0.38 0.141,0.1 0.231,-0.03 0.231,-0.03 l 0.28,-1.42 -0.37,0.99 c 0,0 -0.101,0.12 -0.23,-0.06 -0.09,-0.11 -0.15,-0.27 -0.18,-0.35 v -0.01 c 0.05,-0.22 0.09,-0.41 0.13,-0.56 0.08,-0.34 0.179,-0.61 0.31,-0.82 0.05,0.09 0.19,0.28 0.5,0.38 0.47,0.15 0.679,0.03 0.679,0.03 l 0.551,-1.12 -0.781,0.78 c 0,0 -0.16,0.08 -0.399,-0.02 -0.21,-0.09 -0.32,-0.26 -0.351,-0.31 0.351,-0.36 0.871,-0.54 1.791,-0.78 0.64,-0.16 1.149,-0.4 1.54,-0.62 0.54,0.41 1.24,0.85 1.96,1.12 0.089,0.03 0.179,0.07 0.259,0.11 -0.009,0.33 0.09,0.71 0.471,1.07 0.27,0.25 0.58,0.19 0.779,0.1 0.311,0.54 0.42,1.14 0.46,1.66 -0.05,-0.14 -0.139,-0.28 -0.25,-0.36 -0.389,-0.29 -0.8,-0.2 -0.8,-0.2 0,0 0.34,0.29 0.361,0.88 0.019,0.68 0.51,0.59 0.729,0.5 0,0.1 0,0.2 0.011,0.31 l -1.15,-0.43 c 0.07,0.05 0.349,0.28 0.4,0.67 0.05,0.44 0.069,0.57 0.5,0.43 0.119,-0.04 0.199,-0.1 0.26,-0.17 0.01,0.42 0.01,0.87 0.019,1.29 -0.069,-0.09 -0.149,-0.17 -0.25,-0.23 -0.29,-0.17 -0.33,-0.35 -0.33,-0.35 0,0 -0.309,0.15 -0.059,0.75 0.16,0.36 0.439,0.35 0.639,0.28 0.011,0.8 0.011,1.41 0.011,1.43 l 0.35,-0.01 c 0,-0.05 0,-0.52 -0.01,-1.16 0.069,0.19 0.26,0.36 0.5,0.36 0.359,0 0.29,-0.26 0.55,-0.26 0.269,0 0.439,0.04 0.439,0.04 0,0 -0.229,-0.68 -0.939,-0.68 -0.321,0 -0.481,0.11 -0.55,0.24 0,-0.35 -0.011,-0.73 -0.021,-1.11 0.021,0.04 0.031,0.06 0.031,0.06 0,0 0.689,-0.03 0.82,-0.22"/><path id="path36" style="fill:#f8c300;fill-opacity:1;fill-rule:nonzero;stroke:none" d="m 22.5322,20.2646 c 0,0 0.101,-0.159 0.209,-0.42 0.108,-0.262 0.117,-0.406 0.117,-0.406 0,0 0.409,0.047 0.595,-0.139 0.185,-0.185 0.262,-0.217 0.262,-0.217 0,0 -0.221,-0.086 -0.424,-0.121 -0.203,-0.035 -0.439,-0.182 -0.439,-0.182 0,0 -0.035,-0.203 -0.134,-0.43 -0.101,-0.226 -0.174,-0.35 -0.174,-0.35 0,0 -0.15,0.182 -0.221,0.453 -0.07,0.271 -0.047,0.43 -0.047,0.43 0,0 -0.135,0.085 -0.308,0.082 -0.174,-0.003 -0.271,-0.017 -0.401,0.029 -0.129,0.047 -0.152,0.092 -0.152,0.092 0,0 0.079,0.066 0.164,0.147 0.071,0.067 0.14,0.149 0.241,0.182 0.224,0.073 0.459,-0.047 0.459,-0.047 0,0 -0.029,0.253 0.07,0.512 0.101,0.259 0.183,0.385 0.183,0.385"/><path id="path37" style="fill:#f8c300;fill-opacity:1;fill-rule:nonzero;stroke:none" d="m 13.8413,21.6841 c 0,0 -0.11,-0.553 -0.188,-1.181 -0.079,-0.627 -0.04,-0.984 -0.04,-0.984 0,0 -0.113,0.502 -0.286,1.244 -0.173,0.741 -0.219,0.961 -0.219,0.961 l 0.307,-0.434 0.108,0.46 0.133,-0.383 z"/></g></g></g></g></svg>