<svg xmlns:dc="http://purl.org/dc/elements/1.1/" xmlns:cc="http://creativecommons.org/ns#" xmlns:rdf="http://www.w3.org/1999/02/22-rdf-syntax-ns#" xmlns:svg="http://www.w3.org/2000/svg" xmlns="http://www.w3.org/2000/svg" viewBox="0 0 45 45" style="enable-background:new 0 0 45 45;" xml:space="preserve" version="1.1" id="svg2"><metadata id="metadata8"><rdf:RDF><cc:Work rdf:about=""><dc:format>image/svg+xml</dc:format><dc:type rdf:resource="http://purl.org/dc/dcmitype/StillImage"/></cc:Work></rdf:RDF></metadata><defs id="defs6"><clipPath id="clipPath16" clipPathUnits="userSpaceOnUse"><path id="path18" d="M 4,31 C 1.791,31 0,29.209 0,27 L 0,27 0,9 C 0,6.791 1.791,5 4,5 l 0,0 28,0 c 2.209,0 4,1.791 4,4 l 0,0 0,18 c 0,2.209 -1.791,4 -4,4 l 0,0 -28,0 z"/></clipPath></defs><g transform="matrix(1.25,0,0,-1.25,0,45)" id="g10"><g id="g12"><g xmlns="http://www.w3.org/2000/svg" clip-path="url(#clipPath16)" id="g14"><g id="g30"><path id="path20" style="fill:#003477;fill-opacity:1;fill-rule:nonzero;stroke:none" d="m 0,5 36,0 0,25.998 -36,0 L 0,5 z"/><path id="path21" style="fill:#eeeeee;fill-opacity:1;fill-rule:nonzero;stroke:none" d="m 33.192,7.809 -30.385,0 0,20.383 30.385,0 0,-20.383 z"/></g><g id="g34"><path id="path30" style="fill:#00894e;fill-opacity:1;fill-rule:nonzero;stroke:none" d="m 23.4121,22.2754 c 0,0 -0.042,-0.888 0.224,-1.753 0.264,-0.865 0.917,-1.38 0.917,-1.38 0,0 0.546,0.601 0.418,1.504 -0.165,1.164 -1.559,1.629 -1.559,1.629"/><path id="path31" style="fill:#00894e;fill-opacity:1;fill-rule:nonzero;stroke:none" d="m 12.5884,22.2754 c 0,0 0.041,-0.888 -0.224,-1.753 -0.264,-0.865 -0.917,-1.38 -0.917,-1.38 0,0 -0.546,0.601 -0.418,1.504 0.165,1.164 1.559,1.629 1.559,1.629"/><path id="path32" style="fill:#00894e;fill-opacity:1;fill-rule:nonzero;stroke:none" d="m 22.8682,11.5928 c 0,0 -0.816,-0.22 -1.184,-0.148 -0.466,0.089 -0.449,0.368 -0.953,0.395 -0.356,0.02 -1.13,-0.105 -1.13,-0.105 0,0 0.424,0.914 1.926,0.69 0.677,-0.101 1.341,-0.832 1.341,-0.832"/><path id="path33" style="fill:#00894e;fill-opacity:1;fill-rule:nonzero;stroke:none" d="m 13.1313,11.5928 c 0,0 0.817,-0.22 1.185,-0.148 0.466,0.089 0.448,0.368 0.952,0.395 0.357,0.02 1.13,-0.105 1.13,-0.105 0,0 -0.424,0.914 -1.926,0.69 -0.676,-0.101 -1.341,-0.832 -1.341,-0.832"/><path id="path34" style="fill:#00894e;fill-opacity:1;fill-rule:nonzero;stroke:none" d="m 23.1113,18.4814 c 0,0 0.494,0.471 1.389,0.606 0.894,0.135 1.665,0.055 1.665,0.055 0,0 -0.572,-0.578 -0.63,-0.861 -0.059,-0.282 0.124,-0.741 0.124,-0.741 0,0 -0.465,0.253 -1.13,0.241 -0.665,-0.012 -0.977,-0.241 -0.977,-0.241 0,0 0.183,0.435 0.119,0.653 -0.066,0.217 -0.56,0.288 -0.56,0.288"/><path id="path35" style="fill:#00894e;fill-opacity:1;fill-rule:nonzero;stroke:none" d="m 12.8882,18.4814 c 0,0 -0.494,0.471 -1.388,0.606 -0.894,0.135 -1.665,0.055 -1.665,0.055 0,0 0.571,-0.578 0.63,-0.861 0.058,-0.282 -0.124,-0.741 -0.124,-0.741 0,0 0.464,0.253 1.13,0.241 0.664,-0.012 0.976,-0.241 0.976,-0.241 0,0 -0.183,0.435 -0.118,0.653 0.065,0.217 0.559,0.288 0.559,0.288"/><path id="path36" style="fill:#00894e;fill-opacity:1;fill-rule:nonzero;stroke:none" d="m 25.6172,17.3222 c 0,0 -0.306,-0.829 -0.24,-1.411 0.064,-0.583 0.294,-1.153 0.294,-1.153 0,0 -0.601,0.165 -0.936,0 -0.335,-0.165 -0.453,-0.577 -0.453,-0.577 0,0 -0.553,0.312 -0.564,0.912 -0.012,0.6 -0.389,1.417 -0.389,1.417 0,0 0.535,0.047 0.724,0.218 0.188,0.171 0.33,0.623 0.33,0.623 0,0 0.145,-0.21 0.535,-0.253 0.323,-0.035 0.699,0.224 0.699,0.224"/><path id="path37" style="fill:#00894e;fill-opacity:1;fill-rule:nonzero;stroke:none" d="m 10.3823,17.3222 c 0,0 0.306,-0.829 0.241,-1.411 -0.065,-0.583 -0.294,-1.153 -0.294,-1.153 0,0 0.6,0.165 0.935,0 0.336,-0.165 0.453,-0.577 0.453,-0.577 0,0 0.553,0.312 0.565,0.912 0.012,0.6 0.388,1.417 0.388,1.417 0,0 -0.535,0.047 -0.723,0.218 -0.189,0.171 -0.33,0.623 -0.33,0.623 0,0 -0.146,-0.21 -0.535,-0.253 -0.324,-0.035 -0.7,0.224 -0.7,0.224"/><path id="path38" style="fill:#00894e;fill-opacity:1;fill-rule:nonzero;stroke:none" d="m 23.2822,11.622 c 0,0 0.053,0.671 0.759,0.801 0.706,0.129 1.141,0.494 1.141,0.494 0,0 -0.523,0.176 -0.559,0.399 -0.035,0.224 0.371,0.665 0.371,0.665 0,0 -0.657,-0.235 -1.008,-0.041 -0.35,0.195 -0.469,0.965 -0.469,0.965 0,0 -0.55,-0.494 -0.649,-0.888 -0.098,-0.395 -0.915,-0.648 -0.915,-0.648 0,0 0.6,-0.317 0.835,-0.711 0.235,-0.394 0.494,-1.036 0.494,-1.036"/><path id="path39" style="fill:#00894e;fill-opacity:1;fill-rule:nonzero;stroke:none" d="m 12.7178,11.622 c 0,0 -0.053,0.671 -0.759,0.801 -0.706,0.129 -1.141,0.494 -1.141,0.494 0,0 0.524,0.176 0.559,0.399 0.035,0.224 -0.371,0.665 -0.371,0.665 0,0 0.657,-0.235 1.008,-0.041 0.351,0.195 0.469,0.965 0.469,0.965 0,0 0.55,-0.494 0.649,-0.888 0.098,-0.395 0.915,-0.648 0.915,-0.648 0,0 -0.6,-0.317 -0.835,-0.711 -0.235,-0.394 -0.494,-1.036 -0.494,-1.036"/><path id="path40" style="fill:#ff320f;fill-opacity:1;fill-rule:nonzero;stroke:none" d="m 23.9922,13.1865 c 0,-0.225 -0.243,-0.407 -0.544,-0.407 -0.301,0 -0.544,0.182 -0.544,0.407 0,0.225 0.243,0.406 0.544,0.406 0.301,0 0.544,-0.181 0.544,-0.406"/><path id="path41" style="fill:#ff320f;fill-opacity:1;fill-rule:nonzero;stroke:none" d="m 12.0078,13.1865 c 0,-0.225 0.244,-0.407 0.544,-0.407 0.301,0 0.544,0.182 0.544,0.407 0,0.225 -0.243,0.406 -0.544,0.406 -0.3,0 -0.544,-0.181 -0.544,-0.406"/><path id="path42" style="fill:#ff320f;fill-opacity:1;fill-rule:nonzero;stroke:none" d="m 25.0723,15.9892 c 0,-0.244 -0.243,-0.441 -0.543,-0.441 -0.3,0 -0.543,0.197 -0.543,0.441 0,0.243 0.243,0.441 0.543,0.441 0.3,0 0.543,-0.198 0.543,-0.441"/><path id="path43" style="fill:#ff320f;fill-opacity:1;fill-rule:nonzero;stroke:none" d="m 10.9272,15.9892 c 0,-0.244 0.243,-0.441 0.543,-0.441 0.3,0 0.543,0.197 0.543,0.441 0,0.243 -0.243,0.441 -0.543,0.441 -0.3,0 -0.543,-0.198 -0.543,-0.441"/><path id="path44" style="fill:#ff320f;fill-opacity:1;fill-rule:nonzero;stroke:none" d="m 25.1113,18.7676 c 0,-0.207 -0.227,-0.375 -0.507,-0.375 -0.279,0 -0.507,0.168 -0.507,0.375 0,0.207 0.228,0.375 0.507,0.375 0.28,0 0.507,-0.168 0.507,-0.375"/><path id="path45" style="fill:#ff320f;fill-opacity:1;fill-rule:nonzero;stroke:none" d="m 10.8882,18.7676 c 0,-0.207 0.227,-0.375 0.507,-0.375 0.28,0 0.507,0.168 0.507,0.375 0,0.207 -0.227,0.375 -0.507,0.375 -0.28,0 -0.507,-0.168 -0.507,-0.375"/><path id="path46" style="fill:#ffb406;fill-opacity:1;fill-rule:nonzero;stroke:none" d="m 18,12.2324 c 0,0 0.043,0.098 0.124,0.165 0.08,0.066 0.176,0.104 0.176,0.104 0,0 -0.141,0.08 -0.141,0.288 0,0.208 0.131,0.416 0.131,0.416 0,0 -0.123,0.132 -0.29,0.132 -0.167,0 -0.29,-0.132 -0.29,-0.132 0,0 0.131,-0.208 0.131,-0.416 0,-0.208 -0.141,-0.288 -0.141,-0.288 0,0 0.096,-0.038 0.176,-0.104 0.081,-0.067 0.124,-0.165 0.124,-0.165"/><path id="path47" style="fill:#ffb406;fill-opacity:1;fill-rule:nonzero;stroke:none" d="m 18,21.2754 c 0,0 0.021,0.085 0.116,0.217 0.094,0.133 0.155,0.162 0.155,0.162 0,0 -0.115,0.124 -0.115,0.333 0,0.209 0.071,0.362 0.071,0.362 0,0 -0.035,0.036 -0.108,0.159 -0.074,0.123 -0.119,0.227 -0.119,0.227 0,0 -0.045,-0.104 -0.119,-0.227 -0.073,-0.123 -0.108,-0.159 -0.108,-0.159 0,0 0.071,-0.153 0.071,-0.362 0,-0.209 -0.115,-0.333 -0.115,-0.333 0,0 0.061,-0.029 0.155,-0.162 0.095,-0.132 0.116,-0.217 0.116,-0.217"/><path id="path48" style="fill:#ffb406;fill-opacity:1;fill-rule:nonzero;stroke:none" d="m 18.8076,22.2265 c 0,0 0.149,-0.067 0.149,-0.249 0,-0.183 -0.145,-0.271 -0.268,-0.271 -0.124,0 -0.275,0.084 -0.275,0.359 0,0.275 0.119,0.83 1.213,0.83 1.094,0 1.161,-0.708 1.161,-0.943 0,-0.236 -0.061,-0.442 -0.291,-0.442 -0.229,0 -0.276,0.187 -0.276,0.278 0,0.2 0.203,0.264 0.203,0.264 l -0.101,0.139 c 0,0 -0.132,-0.23 -0.239,-0.23 -0.086,0 -0.11,0.172 -0.11,0.172 0,0 -0.21,0.311 -0.573,0.311 -0.336,0 -0.593,-0.218 -0.593,-0.218"/><path id="path49" style="fill:#ffb406;fill-opacity:1;fill-rule:nonzero;stroke:none" d="m 17.1924,22.2265 c 0,0 -0.149,-0.067 -0.149,-0.249 0,-0.183 0.145,-0.271 0.268,-0.271 0.124,0 0.275,0.084 0.275,0.359 0,0.275 -0.119,0.83 -1.213,0.83 -1.094,0 -1.161,-0.708 -1.161,-0.943 0,-0.236 0.061,-0.442 0.291,-0.442 0.229,0 0.276,0.187 0.276,0.278 0,0.2 -0.203,0.264 -0.203,0.264 l 0.102,0.139 c 0,0 0.131,-0.23 0.237,-0.23 0.086,0 0.111,0.172 0.111,0.172 0,0 0.209,0.311 0.574,0.311 0.336,0 0.592,-0.218 0.592,-0.218"/><path id="path50" style="fill:#ffb406;fill-opacity:1;fill-rule:nonzero;stroke:none" d="m 21.3721,21.7788 c 0,0 0.067,0.095 0.067,0.186 0,0.09 -0.061,0.317 -0.311,0.317 -0.25,0 -0.305,-0.219 -0.305,-0.366 0,-0.146 0.096,-0.447 0.616,-0.625 0.52,-0.178 0.845,0.028 0.965,0.177 0.145,0.178 0.053,0.518 -0.235,0.495 -0.382,-0.029 -0.304,-0.367 -0.304,-0.367 0,0 -0.159,-0.008 -0.284,0.044 -0.125,0.052 -0.209,0.139 -0.209,0.139"/><path id="path51" style="fill:#ffb406;fill-opacity:1;fill-rule:nonzero;stroke:none" d="m 14.6279,21.7788 c 0,0 -0.067,0.095 -0.067,0.186 0,0.09 0.061,0.317 0.311,0.317 0.25,0 0.305,-0.219 0.305,-0.366 0,-0.146 -0.096,-0.447 -0.616,-0.625 -0.52,-0.178 -0.846,0.028 -0.966,0.177 -0.143,0.178 -0.052,0.518 0.236,0.495 0.381,-0.029 0.303,-0.367 0.303,-0.367 0,0 0.16,-0.008 0.285,0.044 0.125,0.052 0.209,0.139 0.209,0.139"/><path id="path52" style="fill:#ffb406;fill-opacity:1;fill-rule:nonzero;stroke:none" d="m 22.459,20.81 c 0,0 0.083,-0.105 0.082,-0.322 -0.002,-0.217 -0.033,-0.294 -0.033,-0.294 0,0 -0.325,0.074 -0.354,-0.226 -0.031,-0.342 0.474,-0.397 0.708,-0.061 0.235,0.336 0.041,0.993 -0.145,1.172 -0.186,0.178 -0.529,0.315 -0.664,0.043 -0.066,-0.133 0.021,-0.292 0.136,-0.34 0.133,-0.056 0.27,0.028 0.27,0.028"/><path id="path53" style="fill:#ffb406;fill-opacity:1;fill-rule:nonzero;stroke:none" d="m 13.5405,20.81 c 0,0 -0.083,-0.105 -0.081,-0.322 10e-4,-0.217 0.033,-0.294 0.033,-0.294 0,0 0.325,0.074 0.353,-0.226 0.032,-0.342 -0.473,-0.397 -0.708,-0.061 -0.234,0.336 -0.041,0.993 0.145,1.172 0.186,0.178 0.53,0.315 0.664,0.043 0.067,-0.133 -0.021,-0.292 -0.135,-0.34 -0.133,-0.056 -0.271,0.028 -0.271,0.028"/><path id="path54" style="fill:#ffb406;fill-opacity:1;fill-rule:nonzero;stroke:none" d="m 22.4512,19.041 c 0,0 0.246,-0.072 0.355,0.127 0.11,0.198 0.024,0.477 -0.256,0.477 -0.28,0 -0.583,-0.283 -0.583,-0.87 0,-0.586 0.212,-1.129 0.665,-1.129 0.212,0 0.369,0.242 0.268,0.449 -0.128,0.263 -0.406,0.141 -0.406,0.141 0,0 -0.074,0.182 -0.088,0.439 -0.014,0.258 0.045,0.366 0.045,0.366"/><path id="path55" style="fill:#ffb406;fill-opacity:1;fill-rule:nonzero;stroke:none" d="m 13.5483,19.041 c 0,0 -0.245,-0.072 -0.354,0.127 -0.11,0.198 -0.024,0.477 0.256,0.477 0.279,0 0.583,-0.283 0.583,-0.87 0,-0.586 -0.212,-1.129 -0.665,-1.129 -0.212,0 -0.369,0.242 -0.268,0.449 0.127,0.263 0.406,0.141 0.406,0.141 0,0 0.074,0.182 0.088,0.439 0.014,0.258 -0.046,0.366 -0.046,0.366"/><path id="path56" style="fill:#ffb406;fill-opacity:1;fill-rule:nonzero;stroke:none" d="m 22.623,17.0224 c 0,0 -0.223,-0.073 -0.347,0.12 -0.123,0.194 -0.02,0.483 0.252,0.483 0.272,0 0.419,-0.359 0.48,-0.603 0.06,-0.244 0.198,-0.81 -0.076,-1.81 -0.275,-1 -0.762,-1.438 -1.329,-1.706 -0.17,-0.08 -0.667,-0.32 -0.667,-0.32 l 0.061,-0.12 c 0,0 -0.143,-0.057 -0.409,-0.104 -0.268,-0.046 -0.443,-0.076 -0.443,-0.076 0,0 0,-0.096 -0.036,-0.186 -0.036,-0.089 -0.051,-0.125 -0.075,-0.125 -0.023,0 -0.258,0.311 -0.511,0.437 -0.369,0.185 -0.614,-0.04 -0.614,-0.04 0,0 0.05,-0.059 0.05,-0.17 0,-0.109 -0.085,-0.307 -0.304,-0.307 -0.22,0 -0.313,0.194 -0.313,0.312 0,0.082 0.042,0.147 0.042,0.147 0,0 0.014,0.297 0.273,0.419 0.259,0.122 0.692,0.1 0.692,0.1 0,0 0.293,-0.112 0.478,0.006 0.151,0.096 0.179,0.235 0.179,0.235 0,0 0.006,0.034 0.109,-0.116 0.105,-0.148 0.218,-0.205 0.383,-0.205 0.165,0 0.605,0.225 0.893,0.429 0.286,0.204 0.736,0.535 0.736,1.127 0,0.591 -0.383,0.367 -0.383,0.367 0,0 -0.055,0.196 0.12,0.294 0.175,0.097 0.337,-0.004 0.337,-0.004 0,0 0.002,0.15 0.067,0.223 0.063,0.071 0.154,0.074 0.154,0.074 0,0 -0.024,-0.094 -0.016,-0.191 0.008,-0.096 0.069,-0.143 0.069,-0.143 0,0 0.269,0.456 0.269,0.93 0,0.358 -0.121,0.523 -0.121,0.523"/><path id="path57" style="fill:#ffb406;fill-opacity:1;fill-rule:nonzero;stroke:none" d="m 13.3765,17.0224 c 0,0 0.224,-0.073 0.347,0.12 0.123,0.194 0.02,0.483 -0.252,0.483 -0.271,0 -0.418,-0.359 -0.479,-0.603 -0.061,-0.244 -0.199,-0.81 0.076,-1.81 0.275,-1 0.761,-1.438 1.329,-1.706 0.17,-0.08 0.666,-0.32 0.666,-0.32 l -0.061,-0.12 c 0,0 0.143,-0.057 0.41,-0.104 0.267,-0.046 0.442,-0.076 0.442,-0.076 0,0 0,-0.096 0.036,-0.186 0.036,-0.089 0.052,-0.125 0.075,-0.125 0.024,0 0.258,0.311 0.511,0.437 0.369,0.185 0.614,-0.04 0.614,-0.04 0,0 -0.049,-0.059 -0.049,-0.17 0,-0.109 0.084,-0.307 0.304,-0.307 0.219,0 0.312,0.194 0.312,0.312 0,0.082 -0.042,0.147 -0.042,0.147 0,0 -0.013,0.297 -0.272,0.419 -0.259,0.122 -0.693,0.1 -0.693,0.1 0,0 -0.292,-0.112 -0.478,0.006 -0.151,0.096 -0.178,0.235 -0.178,0.235 0,0 -0.006,0.034 -0.11,-0.116 -0.104,-0.148 -0.218,-0.205 -0.383,-0.205 -0.164,0 -0.605,0.225 -0.892,0.429 -0.286,0.204 -0.736,0.535 -0.736,1.127 0,0.591 0.383,0.367 0.383,0.367 0,0 0.055,0.196 -0.121,0.294 -0.175,0.097 -0.337,-0.004 -0.337,-0.004 0,0 -0.002,0.15 -0.066,0.223 -0.064,0.071 -0.154,0.074 -0.154,0.074 0,0 0.023,-0.094 0.015,-0.191 -0.008,-0.096 -0.069,-0.143 -0.069,-0.143 0,0 -0.269,0.456 -0.269,0.93 0,0.358 0.121,0.523 0.121,0.523"/><path id="path58" style="fill:#ff320f;fill-opacity:1;fill-rule:nonzero;stroke:none" d="m 21.5264,14.9287 -0.174,-0.141 0.226,-0.26 c 0,0 -0.131,0.015 -0.302,-0.044 -0.17,-0.06 -0.505,-0.315 -0.693,-0.315 -0.19,0 -0.13,0.293 -0.13,0.293 0,0 -0.387,-0.139 -0.654,-0.202 -0.266,-0.062 -0.401,-0.064 -0.401,-0.064 0,0 -0.089,-0.128 -0.157,-0.277 -0.069,-0.149 -0.053,-0.282 -0.216,-0.284 -0.072,-0.001 -0.475,0.087 -0.745,0.193 -0.337,0.133 -0.545,0.29 -0.545,0.29 0,0 -0.1,-0.126 -0.122,-0.258 -0.025,-0.153 -0.065,-0.215 -0.111,-0.215 -0.079,0 -0.619,0.328 -0.993,0.539 -0.384,0.216 -0.601,0.322 -0.601,0.322 0,0 0.056,-0.171 0.011,-0.306 -0.046,-0.136 -0.016,-0.267 -0.077,-0.302 -0.082,-0.046 -0.479,-0.01 -0.761,0.069 -0.297,0.083 -0.497,0.043 -0.497,0.043 l 0.167,0.262 -0.155,0.259 c 0,0 0.189,-0.002 0.38,-0.042 0.191,-0.04 0.284,-0.046 0.284,-0.046 0,0 0,0.014 -0.081,0.092 -0.087,0.084 -0.109,0.154 -0.109,0.154 0,0 0.02,0.123 0.038,0.226 0.022,0.128 -0.005,0.201 -0.005,0.201 0,0 0.064,0.069 0.285,0.069 0.576,0 1.288,-0.48 1.288,-0.48 0,0 0.114,0.13 0.145,0.238 0.032,0.108 0.105,0.134 0.162,0.134 0.196,0 1.561,-0.726 1.561,-0.726 0,0 0.046,0.018 0.049,0.123 0.003,0.105 -0.023,0.165 0.018,0.224 0.095,0.139 0.812,0.08 1.277,0.157 0.372,0.062 0.685,0.292 0.917,0.292 0.077,0 0.124,-0.051 0.13,-0.099 0.014,-0.1 0.049,-0.203 0.049,-0.203 0,0 0.169,0.097 0.333,0.103 0.164,0.006 0.209,-0.019 0.209,-0.019"/><path id="path59" style="fill:#ff320f;fill-opacity:1;fill-rule:nonzero;stroke:none" d="m 18,11.3222 c -0.081,0 -0.159,0.06 -0.159,0.06 0,0 -0.154,-0.117 -0.313,-0.266 -0.167,-0.156 -0.287,-0.2 -0.478,-0.2 -0.339,0 -0.979,0.046 -1.403,0.046 -0.151,0 -0.257,-0.039 -0.257,-0.039 l 0.218,0.274 -0.171,0.134 c 0,0 0.802,0.078 1.053,0.032 0.335,-0.06 0.5,-0.012 0.5,-0.012 0,0 -0.417,0.154 -0.457,0.261 -0.029,0.08 -0.015,0.13 -0.023,0.253 -0.008,0.124 -0.03,0.208 -0.03,0.208 0,0 0.226,0.35 0.599,0.35 0.231,0 0.743,-0.53 0.743,-0.53 0,0 0.113,0.049 0.178,0.049 0.065,0 0.178,-0.049 0.178,-0.049 0,0 0.512,0.53 0.744,0.53 0.372,0 0.598,-0.35 0.598,-0.35 0,0 -0.022,-0.084 -0.03,-0.208 -0.008,-0.123 0.005,-0.173 -0.023,-0.253 -0.039,-0.107 -0.457,-0.261 -0.457,-0.261 0,0 0.165,-0.048 0.5,0.012 0.251,0.046 1.053,-0.032 1.053,-0.032 l -0.17,-0.134 0.216,-0.274 c 0,0 -0.105,0.039 -0.256,0.039 -0.423,0 -1.064,-0.046 -1.403,-0.046 -0.19,0 -0.311,0.044 -0.478,0.2 -0.159,0.149 -0.313,0.266 -0.313,0.266 0,0 -0.078,-0.06 -0.159,-0.06"/><path id="path60" style="fill:#ff320f;fill-opacity:1;fill-rule:nonzero;stroke:none" d="m 18,23.6011 c -2.116,0 -5.653,-1.114 -5.653,-1.114 0,0 -0.175,-0.041 -0.298,-0.023 -0.192,0.027 -0.286,0.698 -0.286,0.698 0,0 -0.412,-0.138 -1.208,-0.353 -0.796,-0.216 -1.184,-0.235 -1.184,-0.235 l 0.552,0.796 -0.819,0.717 c 0,0 0.208,-0.058 0.498,-0.019 0.214,0.028 0.451,0.128 0.8,0.255 0.82,0.298 1.847,0.537 2.031,0.537 0.185,0 0.207,-0.055 0.207,-0.055 l 0.166,-0.616 c 0,0 1.988,0.919 5.194,0.919 3.206,0 5.194,-0.919 5.194,-0.919 l 0.166,0.616 c 0,0 0.023,0.055 0.206,0.055 0.185,0 1.212,-0.239 2.032,-0.537 0.349,-0.127 0.586,-0.227 0.8,-0.255 0.29,-0.039 0.498,0.019 0.498,0.019 l -0.82,-0.717 0.554,-0.796 c 0,0 -0.389,0.019 -1.185,0.235 -0.796,0.215 -1.208,0.353 -1.208,0.353 0,0 -0.093,-0.671 -0.286,-0.698 -0.124,-0.018 -0.298,0.023 -0.298,0.023 0,0 -3.538,1.114 -5.653,1.114"/><path id="path61" style="fill:#00894e;fill-opacity:1;fill-rule:nonzero;stroke:none" d="m 18.4219,15.374 c 1.453,0 1.594,0.344 1.594,0.344 0,0 0.641,0.141 0.813,0.283 0.173,0.142 0.087,0.447 0.087,0.447 0,0 0.557,0.259 0.784,0.635 0.228,0.377 0.063,0.588 0.063,0.588 l -7.216,-0.47 c 0,0 -0.021,-0.765 1.72,-1.517 1.741,-0.753 2.155,-0.31 2.155,-0.31"/><path id="path62" style="fill:#af5937;fill-opacity:1;fill-rule:nonzero;stroke:none" d="m 21.7627,17.6714 -0.051,0.386 -2.259,0.371 c 0,0 -0.023,0.247 -0.2,0.524 -0.177,0.276 -0.029,0.741 -0.029,0.741 0,0 -0.354,0.094 -0.482,0.211 -0.13,0.118 -0.824,0.142 -1.294,0 -0.471,-0.141 -0.495,-0.276 -0.448,-0.629 0.047,-0.353 -0.011,-0.67 0.394,-1.059 0.406,-0.388 -0.494,-0.335 -0.494,-0.788 0,-0.094 1.089,-0.547 1.359,-0.547 0.271,0 3.504,0.79 3.504,0.79"/><path id="path63" style="fill:#e7cc00;fill-opacity:1;fill-rule:nonzero;stroke:none" d="m 15.0942,16.1347 c 0,0 -0.388,0.123 -0.606,0.559 -0.218,0.435 -0.282,0.782 -0.282,0.782 0,0 0.394,0.235 0.506,0.441 0.111,0.206 1.047,0 1.047,0 0,0 -0.259,0.9 0,1.347 0.258,0.447 0.17,0.741 0.17,0.741 l -0.594,-0.577 -0.177,0.118 c 0,0 0.465,0.418 0.53,0.789 0.065,0.37 0.364,0.517 0.364,0.517 0,0 0.06,-0.129 0.336,-0.129 0.276,0 0.371,0.182 0.371,0.182 0,0 0.429,-0.406 0.423,-0.871 -0.005,-0.362 -0.371,-0.235 -0.371,-0.235 0,0 0.154,-0.676 0.089,-0.882 -0.065,-0.206 -0.406,-0.188 -0.406,-0.188 0,0 -0.047,-0.141 -0.035,-0.689 0.011,-0.547 -0.13,-0.959 -0.13,-0.959 l -0.894,0.2 c 0,0 -0.247,-0.223 -0.294,-0.5 -0.047,-0.276 -0.047,-0.646 -0.047,-0.646"/></g></g></g></g></svg>