<svg xmlns:dc="http://purl.org/dc/elements/1.1/" xmlns:cc="http://creativecommons.org/ns#" xmlns:rdf="http://www.w3.org/1999/02/22-rdf-syntax-ns#" xmlns:svg="http://www.w3.org/2000/svg" xmlns="http://www.w3.org/2000/svg" viewBox="0 0 45 45" style="enable-background:new 0 0 45 45;" xml:space="preserve" version="1.1" id="svg2"><metadata id="metadata8"><rdf:RDF><cc:Work rdf:about=""><dc:format>image/svg+xml</dc:format><dc:type rdf:resource="http://purl.org/dc/dcmitype/StillImage"/></cc:Work></rdf:RDF></metadata><defs id="defs6"><clipPath id="clipPath16" clipPathUnits="userSpaceOnUse"><path id="path18" d="M 0,36 36,36 36,0 0,0 0,36 Z"/></clipPath></defs><g transform="matrix(1.25,0,0,-1.25,0,45)" id="g10"><g id="g12"><g xmlns="http://www.w3.org/2000/svg" clip-path="url(#clipPath16)" id="g14"><g id="g30"><path id="path20" style="fill:#eeeeee;fill-opacity:1;fill-rule:nonzero;stroke:none" d="M 0,9 C 0,6.791 1.791,5 4,5 l 28,0 c 2.209,0 4,1.791 4,4 l 0,18 c 0,2.209 -1.791,4 -4,4 L 4,31 C 1.791,31 0,29.209 0,27 L 0,9 z"/></g><g id="g34"><path id="path30" style="fill:#ffcc00;fill-opacity:1;fill-rule:nonzero;stroke:none" d="m 0,19.542 c 0.15,0.069 0.3,0.142 0.449,0.212 0.195,0.092 0.387,0.183 0.585,0.269 0.197,0.086 0.4,0.168 0.605,0.237 0.205,0.069 0.412,0.126 0.629,0.166 0.217,0.041 0.441,0.064 0.676,0.064 0.234,0 0.456,-0.023 0.673,-0.064 0.217,-0.04 0.429,-0.097 0.634,-0.166 0.205,-0.069 0.402,-0.151 0.6,-0.237 0.197,-0.086 0.392,-0.177 0.587,-0.269 0.195,-0.092 0.391,-0.189 0.588,-0.275 0.197,-0.087 0.397,-0.166 0.602,-0.235 0.205,-0.069 0.413,-0.127 0.629,-0.167 0.217,-0.04 0.445,-0.064 0.679,-0.064 0.233,0 0.456,0.024 0.673,0.064 0.217,0.04 0.429,0.098 0.634,0.167 0.205,0.069 0.402,0.148 0.6,0.235 0.115,0.05 0.228,0.106 0.343,0.16 0.009,-0.016 0.019,-0.032 0.029,-0.047 0.106,0.054 0.215,0.107 0.321,0.162 0.175,0.092 0.349,0.183 0.528,0.269 0.135,0.064 0.271,0.125 0.412,0.182 0.046,0.018 0.096,0.038 0.144,0.055 0.001,0 0.002,0 0.003,0 0.204,0.069 0.412,0.126 0.628,0.166 0.209,0.039 0.425,0.063 0.649,0.064 0.225,-10e-4 0.44,-0.025 0.649,-0.064 0.217,-0.04 0.43,-0.097 0.634,-0.166 0.205,-0.069 0.402,-0.151 0.6,-0.237 0.197,-0.086 0.393,-0.177 0.588,-0.269 0.194,-0.092 0.392,-0.185 0.589,-0.271 0.198,-0.087 0.395,-0.168 0.601,-0.237 0.204,-0.069 0.417,-0.126 0.633,-0.167 0.179,-0.033 0.362,-0.053 0.552,-0.059 0.04,-0.002 0.083,-0.005 0.124,-0.005 0.017,0 0.035,-0.002 0.052,-0.002 0.234,0 0.456,0.024 0.673,0.064 0.217,0.04 0.426,0.098 0.632,0.167 0.205,0.069 0.402,0.148 0.599,0.235 0.197,0.086 0.396,0.183 0.59,0.275 0.195,0.092 0.391,0.183 0.588,0.269 0.197,0.086 0.395,0.168 0.6,0.237 0.205,0.069 0.415,0.126 0.631,0.166 0.209,0.039 0.425,0.063 0.649,0.064 0.224,-10e-4 0.44,-0.025 0.649,-0.064 0.217,-0.04 0.429,-0.097 0.634,-0.166 0.205,-0.069 0.402,-0.151 0.6,-0.237 0.197,-0.086 0.395,-0.177 0.589,-0.269 l 0.229,-0.107 c 0.099,-0.056 0.198,-0.116 0.298,-0.168 0.07,-0.038 0.141,-0.062 0.213,-0.097 0.006,0.01 0.013,0.017 0.02,0.026 0.141,-0.058 0.283,-0.114 0.428,-0.162 0.205,-0.069 0.417,-0.126 0.635,-0.167 0.217,-0.04 0.438,-0.064 0.673,-0.064 0.234,0 0.459,0.024 0.675,0.064 0.217,0.041 0.427,0.098 0.632,0.167 0.204,0.069 0.404,0.15 0.602,0.237 0.198,0.086 0.39,0.179 0.586,0.271 0.194,0.092 0.391,0.183 0.59,0.269 0.197,0.086 0.394,0.168 0.599,0.237 0.205,0.069 0.415,0.126 0.632,0.166 0.217,0.041 0.438,0.064 0.673,0.064 0.234,0 0.461,-0.023 0.679,-0.064 0.216,-0.04 0.423,-0.097 0.628,-0.166 0.205,-0.069 0.408,-0.151 0.605,-0.237 0.197,-0.086 0.393,-0.177 0.588,-0.269 0.194,-0.092 0.389,-0.185 0.587,-0.271 0.025,-0.011 0.048,-0.021 0.072,-0.031 l 0,1.842 c -0.023,0.011 -0.049,0.021 -0.072,0.032 -0.198,0.086 -0.393,0.179 -0.587,0.271 -0.195,0.092 -0.391,0.183 -0.588,0.269 -0.197,0.086 -0.4,0.168 -0.605,0.237 -0.205,0.069 -0.412,0.126 -0.628,0.167 -0.218,0.04 -0.445,0.064 -0.679,0.064 -0.235,0 -0.456,-0.024 -0.673,-0.064 -0.217,-0.041 -0.427,-0.098 -0.632,-0.167 -0.205,-0.069 -0.402,-0.151 -0.599,-0.237 -0.199,-0.086 -0.396,-0.177 -0.59,-0.269 -0.196,-0.092 -0.388,-0.185 -0.586,-0.271 -0.198,-0.087 -0.398,-0.168 -0.602,-0.237 -0.205,-0.069 -0.415,-0.127 -0.632,-0.167 -0.216,-0.04 -0.441,-0.064 -0.675,-0.064 -0.219,0 -0.431,0.024 -0.639,0.064 -0.209,0.04 -0.415,0.098 -0.617,0.167 -0.404,0.138 -0.795,0.324 -1.193,0.508 -0.199,0.092 -0.402,0.183 -0.604,0.269 -0.203,0.086 -0.405,0.168 -0.614,0.237 -0.053,0.017 -0.107,0.033 -0.16,0.049 -0.145,0.047 -0.296,0.087 -0.453,0.118 -0.209,0.04 -0.426,0.064 -0.661,0.064 l -0.027,0 -0.027,0 c -0.234,0 -0.456,-0.024 -0.673,-0.064 -0.217,-0.041 -0.427,-0.098 -0.631,-0.167 -0.205,-0.069 -0.403,-0.151 -0.601,-0.237 -0.197,-0.086 -0.392,-0.177 -0.587,-0.269 -0.195,-0.092 -0.392,-0.185 -0.59,-0.271 -0.198,-0.087 -0.395,-0.168 -0.6,-0.237 -0.204,-0.069 -0.414,-0.127 -0.631,-0.167 -0.163,-0.03 -0.331,-0.051 -0.502,-0.06 -0.041,-0.002 -0.08,-0.003 -0.12,-0.004 -0.059,0 -0.119,0.001 -0.176,0.004 -0.173,0.009 -0.337,0.03 -0.5,0.06 -0.217,0.04 -0.427,0.098 -0.632,0.167 -0.204,0.069 -0.407,0.15 -0.604,0.237 -0.198,0.086 -0.39,0.179 -0.586,0.271 -0.195,0.092 -0.392,0.183 -0.59,0.269 -0.197,0.086 -0.395,0.168 -0.599,0.237 -0.205,0.069 -0.418,0.126 -0.634,0.167 -0.217,0.04 -0.44,0.064 -0.674,0.064 l -0.027,0 -0.024,0 c -0.234,0 -0.453,-0.024 -0.661,-0.064 -0.208,-0.04 -0.403,-0.099 -0.592,-0.167 -10e-4,0 -0.002,0 -0.003,0 C 11.572,22.085 11.522,22.066 11.476,22.047 11.322,21.991 11.17,21.932 11.02,21.866 10.823,21.78 10.627,21.689 10.433,21.597 10.238,21.505 10.04,21.412 9.843,21.326 9.645,21.239 9.448,21.158 9.243,21.089 9.038,21.02 8.826,20.962 8.609,20.922 8.392,20.882 8.169,20.858 7.936,20.858 7.717,20.858 7.502,20.882 7.294,20.922 7.085,20.962 6.881,21.02 6.68,21.089 6.276,21.227 5.883,21.413 5.485,21.597 5.286,21.689 5.085,21.78 4.883,21.866 4.68,21.952 4.475,22.034 4.266,22.103 4.056,22.172 3.842,22.229 3.622,22.27 3.402,22.31 3.178,22.334 2.944,22.334 2.709,22.334 2.485,22.31 2.268,22.27 2.051,22.229 1.844,22.172 1.639,22.103 1.434,22.034 1.231,21.952 1.034,21.866 0.836,21.78 0.644,21.689 0.449,21.597 0.3,21.527 0.15,21.456 0,21.388 l 0,-1.846 z"/><path id="path31" style="fill:#008f4c;fill-opacity:1;fill-rule:nonzero;stroke:none" d="m 0,16.8691 c 0.15,0.068 0.3,0.142 0.449,0.212 0.195,0.092 0.387,0.183 0.585,0.268 0.197,0.087 0.4,0.168 0.605,0.238 0.205,0.069 0.412,0.126 0.629,0.166 0.217,0.04 0.441,0.064 0.676,0.064 0.234,0 0.456,-0.024 0.673,-0.064 0.217,-0.04 0.429,-0.097 0.634,-0.166 0.205,-0.07 0.402,-0.151 0.6,-0.238 0.197,-0.085 0.392,-0.176 0.587,-0.268 0.195,-0.093 0.391,-0.19 0.588,-0.275 0.197,-0.087 0.397,-0.166 0.602,-0.236 0.205,-0.068 0.413,-0.126 0.629,-0.166 0.217,-0.041 0.445,-0.064 0.679,-0.064 0.233,0 0.456,0.023 0.673,0.064 0.217,0.04 0.429,0.098 0.634,0.166 0.205,0.07 0.402,0.149 0.6,0.236 0.115,0.049 0.228,0.106 0.343,0.16 0.009,-0.016 0.019,-0.033 0.029,-0.047 0.106,0.054 0.215,0.106 0.321,0.162 0.175,0.092 0.349,0.183 0.528,0.268 0.135,0.065 0.271,0.126 0.412,0.182 0.046,0.019 0.096,0.038 0.144,0.056 0.001,0 0.002,-0.001 0.003,0 0.204,0.069 0.412,0.126 0.628,0.166 0.209,0.039 0.425,0.062 0.649,0.064 0.225,-0.001 0.44,-0.025 0.649,-0.064 0.217,-0.04 0.43,-0.097 0.634,-0.166 0.205,-0.07 0.402,-0.151 0.6,-0.238 0.197,-0.085 0.393,-0.176 0.588,-0.268 0.194,-0.093 0.392,-0.186 0.589,-0.272 0.198,-0.086 0.395,-0.168 0.601,-0.237 0.204,-0.068 0.417,-0.126 0.633,-0.166 0.179,-0.033 0.362,-0.054 0.552,-0.059 0.04,-0.002 0.083,-0.005 0.124,-0.005 0.017,0 0.035,-0.002 0.052,-0.002 0.234,0 0.456,0.023 0.673,0.064 0.217,0.04 0.426,0.098 0.632,0.166 0.205,0.07 0.402,0.149 0.599,0.236 0.197,0.085 0.396,0.182 0.59,0.275 0.195,0.092 0.391,0.183 0.588,0.268 0.197,0.087 0.395,0.168 0.6,0.238 0.205,0.069 0.415,0.126 0.631,0.166 0.209,0.039 0.425,0.062 0.649,0.064 0.224,-0.002 0.44,-0.025 0.649,-0.064 0.217,-0.04 0.429,-0.097 0.634,-0.166 0.205,-0.07 0.402,-0.151 0.6,-0.238 0.197,-0.085 0.395,-0.176 0.589,-0.268 0.077,-0.036 0.153,-0.071 0.229,-0.108 0.099,-0.055 0.198,-0.115 0.298,-0.167 0.07,-0.038 0.141,-0.062 0.213,-0.097 0.006,0.01 0.013,0.016 0.02,0.026 0.141,-0.058 0.283,-0.114 0.428,-0.163 0.205,-0.068 0.417,-0.126 0.635,-0.166 0.217,-0.04 0.438,-0.064 0.673,-0.064 0.234,0 0.459,0.024 0.675,0.064 0.217,0.04 0.427,0.098 0.632,0.166 0.204,0.069 0.404,0.151 0.602,0.237 0.198,0.086 0.39,0.179 0.586,0.272 0.194,0.092 0.391,0.183 0.59,0.268 0.197,0.087 0.394,0.168 0.599,0.238 0.205,0.069 0.415,0.126 0.632,0.166 0.217,0.04 0.438,0.064 0.673,0.064 0.234,0 0.461,-0.024 0.679,-0.064 0.216,-0.04 0.423,-0.097 0.628,-0.166 0.205,-0.07 0.408,-0.151 0.605,-0.238 0.197,-0.085 0.393,-0.176 0.588,-0.268 0.194,-0.093 0.389,-0.186 0.587,-0.272 0.024,-0.01 0.048,-0.02 0.072,-0.031 l 0,1.843 c -0.023,0.01 -0.049,0.021 -0.072,0.031 -0.198,0.087 -0.393,0.179 -0.587,0.272 -0.195,0.091 -0.391,0.182 -0.588,0.269 -0.197,0.086 -0.4,0.168 -0.605,0.237 -0.205,0.068 -0.412,0.126 -0.628,0.166 -0.218,0.041 -0.445,0.064 -0.679,0.064 -0.235,0 -0.456,-0.023 -0.673,-0.064 -0.217,-0.04 -0.427,-0.098 -0.632,-0.166 -0.205,-0.069 -0.402,-0.151 -0.599,-0.237 -0.199,-0.087 -0.396,-0.178 -0.59,-0.269 -0.196,-0.093 -0.388,-0.185 -0.586,-0.272 -0.198,-0.086 -0.398,-0.168 -0.602,-0.237 -0.205,-0.068 -0.415,-0.126 -0.632,-0.166 -0.216,-0.04 -0.441,-0.064 -0.675,-0.064 -0.219,0 -0.431,0.024 -0.639,0.064 -0.209,0.04 -0.415,0.098 -0.617,0.166 -0.404,0.139 -0.795,0.325 -1.193,0.509 -0.199,0.091 -0.402,0.182 -0.604,0.269 -0.203,0.086 -0.405,0.168 -0.614,0.237 -0.053,0.017 -0.107,0.033 -0.16,0.049 -0.145,0.047 -0.296,0.087 -0.453,0.117 -0.209,0.041 -0.426,0.064 -0.661,0.064 l -0.027,0 -0.027,0 c -0.234,0 -0.456,-0.023 -0.673,-0.064 -0.217,-0.04 -0.427,-0.098 -0.631,-0.166 -0.205,-0.069 -0.403,-0.151 -0.601,-0.237 -0.197,-0.087 -0.392,-0.178 -0.587,-0.269 -0.195,-0.093 -0.392,-0.185 -0.59,-0.272 -0.198,-0.086 -0.395,-0.168 -0.6,-0.237 -0.204,-0.068 -0.414,-0.126 -0.631,-0.166 -0.163,-0.03 -0.331,-0.051 -0.502,-0.06 -0.041,-0.002 -0.08,-0.004 -0.12,-0.004 -0.059,0 -0.119,0.001 -0.176,0.004 -0.173,0.009 -0.337,0.03 -0.5,0.06 -0.217,0.04 -0.427,0.098 -0.632,0.166 -0.204,0.069 -0.407,0.151 -0.604,0.237 -0.198,0.087 -0.39,0.179 -0.586,0.272 -0.195,0.091 -0.392,0.182 -0.59,0.269 -0.197,0.086 -0.395,0.168 -0.599,0.237 -0.205,0.068 -0.418,0.126 -0.634,0.166 -0.217,0.041 -0.44,0.064 -0.674,0.064 l -0.027,0 -0.024,0 c -0.234,0 -0.453,-0.023 -0.661,-0.064 -0.208,-0.04 -0.403,-0.098 -0.592,-0.166 -10e-4,-0.001 -0.002,0 -0.003,0 -0.048,-0.018 -0.098,-0.038 -0.144,-0.056 -0.154,-0.056 -0.306,-0.116 -0.456,-0.181 -0.197,-0.087 -0.393,-0.178 -0.587,-0.269 -0.195,-0.093 -0.393,-0.185 -0.59,-0.272 -0.198,-0.086 -0.395,-0.168 -0.6,-0.237 -0.205,-0.068 -0.417,-0.126 -0.634,-0.166 -0.217,-0.04 -0.44,-0.064 -0.673,-0.064 -0.219,0 -0.434,0.024 -0.642,0.064 -0.209,0.04 -0.413,0.098 -0.614,0.166 -0.404,0.139 -0.797,0.325 -1.195,0.509 -0.199,0.091 -0.4,0.182 -0.602,0.269 -0.203,0.086 -0.408,0.168 -0.617,0.237 -0.21,0.068 -0.424,0.126 -0.644,0.166 -0.22,0.041 -0.444,0.064 -0.678,0.064 -0.235,0 -0.459,-0.023 -0.676,-0.064 -0.217,-0.04 -0.424,-0.098 -0.629,-0.166 -0.205,-0.069 -0.408,-0.151 -0.605,-0.237 -0.198,-0.087 -0.39,-0.178 -0.585,-0.269 C 0.3,18.8531 0.15,18.7831 0,18.7151 l 0,-1.846 z"/><path id="path32" style="fill:#0071bc;fill-opacity:1;fill-rule:nonzero;stroke:none" d="m 0,14.1953 c 0.15,0.069 0.3,0.143 0.449,0.212 0.195,0.093 0.387,0.184 0.585,0.269 0.197,0.086 0.4,0.168 0.605,0.238 0.205,0.068 0.412,0.126 0.629,0.166 0.217,0.04 0.441,0.064 0.676,0.064 0.234,0 0.456,-0.024 0.673,-0.064 0.217,-0.04 0.429,-0.098 0.634,-0.166 0.205,-0.07 0.402,-0.152 0.6,-0.238 0.197,-0.085 0.392,-0.176 0.587,-0.269 0.195,-0.092 0.391,-0.189 0.588,-0.275 0.197,-0.086 0.397,-0.166 0.602,-0.235 0.205,-0.069 0.413,-0.126 0.629,-0.167 0.217,-0.04 0.445,-0.063 0.679,-0.063 0.233,0 0.456,0.023 0.673,0.063 0.217,0.041 0.429,0.098 0.634,0.167 0.205,0.069 0.402,0.149 0.6,0.235 0.115,0.05 0.228,0.107 0.343,0.16 0.009,-0.015 0.019,-0.032 0.029,-0.047 0.106,0.054 0.215,0.107 0.321,0.162 0.175,0.093 0.349,0.184 0.528,0.269 0.135,0.065 0.271,0.126 0.412,0.182 0.046,0.019 0.096,0.038 0.144,0.056 0.001,0 0.002,-0.001 0.003,0 0.204,0.068 0.412,0.126 0.628,0.166 0.209,0.039 0.425,0.062 0.649,0.064 0.225,-0.002 0.44,-0.025 0.649,-0.064 0.217,-0.04 0.43,-0.098 0.634,-0.166 0.205,-0.07 0.402,-0.152 0.6,-0.238 0.197,-0.085 0.393,-0.176 0.588,-0.269 0.194,-0.092 0.392,-0.185 0.589,-0.271 0.198,-0.087 0.395,-0.168 0.601,-0.237 0.204,-0.069 0.417,-0.126 0.633,-0.166 0.179,-0.033 0.362,-0.054 0.552,-0.06 0.04,-10e-4 0.083,-0.004 0.124,-0.004 0.017,0 0.035,-0.002 0.052,-0.002 0.234,0 0.456,0.023 0.673,0.063 0.217,0.041 0.426,0.098 0.632,0.167 0.205,0.069 0.402,0.149 0.599,0.235 0.197,0.086 0.396,0.183 0.59,0.275 0.195,0.093 0.391,0.184 0.588,0.269 0.197,0.086 0.395,0.168 0.6,0.238 0.205,0.068 0.415,0.126 0.631,0.166 0.209,0.039 0.425,0.062 0.649,0.064 0.224,-0.002 0.44,-0.025 0.649,-0.064 0.217,-0.04 0.429,-0.098 0.634,-0.166 0.205,-0.07 0.402,-0.152 0.6,-0.238 0.197,-0.085 0.395,-0.176 0.589,-0.269 0.077,-0.035 0.153,-0.071 0.229,-0.107 0.099,-0.055 0.198,-0.116 0.298,-0.168 0.07,-0.038 0.141,-0.062 0.213,-0.096 0.006,0.009 0.013,0.016 0.02,0.025 0.141,-0.058 0.283,-0.113 0.428,-0.162 0.205,-0.069 0.417,-0.126 0.635,-0.166 0.217,-0.041 0.438,-0.064 0.673,-0.064 0.234,0 0.459,0.023 0.675,0.064 0.217,0.04 0.427,0.097 0.632,0.166 0.204,0.069 0.404,0.15 0.602,0.237 0.198,0.086 0.39,0.179 0.586,0.271 0.194,0.093 0.391,0.184 0.59,0.269 0.197,0.086 0.394,0.168 0.599,0.238 0.205,0.068 0.415,0.126 0.632,0.166 0.217,0.04 0.438,0.064 0.673,0.064 0.234,0 0.461,-0.024 0.679,-0.064 0.216,-0.04 0.423,-0.098 0.628,-0.166 0.205,-0.07 0.408,-0.152 0.605,-0.238 0.197,-0.085 0.393,-0.176 0.588,-0.269 0.194,-0.092 0.389,-0.185 0.587,-0.271 0.025,-0.01 0.048,-0.02 0.072,-0.031 l 0,1.843 c -0.024,0.011 -0.047,0.02 -0.072,0.031 -0.198,0.086 -0.393,0.179 -0.587,0.272 -0.195,0.091 -0.391,0.182 -0.588,0.268 -0.197,0.086 -0.4,0.168 -0.605,0.238 -0.205,0.068 -0.412,0.126 -0.628,0.166 -0.218,0.041 -0.445,0.064 -0.679,0.064 -0.235,0 -0.456,-0.023 -0.673,-0.064 -0.217,-0.04 -0.427,-0.098 -0.632,-0.166 -0.205,-0.07 -0.402,-0.152 -0.599,-0.238 -0.199,-0.086 -0.396,-0.177 -0.59,-0.268 -0.196,-0.093 -0.388,-0.186 -0.586,-0.272 -0.198,-0.086 -0.398,-0.168 -0.602,-0.237 -0.205,-0.068 -0.415,-0.126 -0.632,-0.166 -0.216,-0.04 -0.441,-0.065 -0.675,-0.065 -0.219,0 -0.431,0.025 -0.639,0.065 -0.209,0.04 -0.415,0.098 -0.617,0.166 -0.404,0.139 -0.795,0.324 -1.193,0.509 -0.199,0.091 -0.402,0.182 -0.604,0.268 -0.203,0.086 -0.405,0.168 -0.614,0.238 -0.053,0.016 -0.107,0.033 -0.16,0.048 -0.145,0.047 -0.296,0.087 -0.453,0.118 -0.209,0.041 -0.426,0.064 -0.661,0.064 l -0.027,0 -0.027,0 c -0.234,0 -0.456,-0.023 -0.673,-0.064 -0.217,-0.04 -0.427,-0.098 -0.631,-0.166 -0.205,-0.07 -0.403,-0.152 -0.601,-0.238 -0.197,-0.086 -0.392,-0.177 -0.587,-0.268 -0.195,-0.093 -0.392,-0.186 -0.59,-0.272 -0.198,-0.086 -0.395,-0.168 -0.6,-0.237 -0.204,-0.068 -0.414,-0.126 -0.631,-0.166 -0.163,-0.03 -0.331,-0.052 -0.502,-0.06 -0.041,-0.002 -0.08,-0.004 -0.12,-0.005 -0.059,0 -0.119,0.002 -0.176,0.005 -0.173,0.008 -0.337,0.03 -0.5,0.06 -0.217,0.04 -0.427,0.098 -0.632,0.166 -0.204,0.069 -0.407,0.151 -0.604,0.237 -0.198,0.086 -0.39,0.179 -0.586,0.272 -0.195,0.091 -0.392,0.182 -0.59,0.268 -0.197,0.086 -0.395,0.168 -0.599,0.238 -0.205,0.068 -0.418,0.126 -0.634,0.166 -0.217,0.041 -0.44,0.064 -0.674,0.064 l -0.027,0 -0.024,0 c -0.234,0 -0.453,-0.023 -0.661,-0.064 -0.208,-0.04 -0.403,-0.098 -0.592,-0.166 -10e-4,-0.001 -0.002,0 -0.003,0 -0.048,-0.018 -0.098,-0.038 -0.144,-0.056 -0.154,-0.057 -0.306,-0.116 -0.456,-0.182 -0.197,-0.086 -0.393,-0.177 -0.587,-0.268 -0.195,-0.093 -0.393,-0.186 -0.59,-0.272 -0.198,-0.086 -0.395,-0.168 -0.6,-0.237 -0.205,-0.068 -0.417,-0.126 -0.634,-0.166 -0.217,-0.04 -0.44,-0.065 -0.673,-0.065 -0.219,0 -0.434,0.025 -0.642,0.065 -0.209,0.04 -0.413,0.098 -0.614,0.166 -0.404,0.139 -0.797,0.324 -1.195,0.509 -0.199,0.091 -0.4,0.182 -0.602,0.268 -0.203,0.086 -0.408,0.168 -0.617,0.238 -0.21,0.068 -0.424,0.126 -0.644,0.166 -0.22,0.041 -0.444,0.064 -0.678,0.064 -0.235,0 -0.459,-0.023 -0.676,-0.064 -0.217,-0.04 -0.424,-0.098 -0.629,-0.166 -0.205,-0.07 -0.408,-0.152 -0.605,-0.238 -0.198,-0.086 -0.39,-0.177 -0.585,-0.268 C 0.3,16.1803 0.15,16.1103 0,16.0423 l 0,-1.847 z"/></g><g id="g38"><path id="path40" style="fill:#eeeeee;fill-opacity:1;fill-rule:nonzero;stroke:none" d="m 25.1504,18 c 0,-3.948 -3.2,-7.15 -7.149,-7.15 -3.949,-10e-4 -7.151,3.199 -7.151,7.148 l 0,0.002 c -0.001,3.949 3.2,7.15 7.149,7.151 3.949,0.001 7.15,-3.2 7.151,-7.149 l 0,-0.002 z"/><path id="path41" style="fill:#ffcc00;fill-opacity:1;fill-rule:nonzero;stroke:none" d="m 18,11.9023 0.554,-0.402 -0.212,0.65 0.554,0.402 -0.688,0 -0.208,0.651 -0.208,-0.651 -0.688,0 0.554,-0.402 -0.211,-0.65 0.553,0.402 z"/><path id="path42" style="fill:#ffcc00;fill-opacity:1;fill-rule:nonzero;stroke:none" d="m 20.8242,22.4424 -0.554,-0.402 0.212,0.651 -0.554,0.401 0.688,0 0.208,0.651 0.208,-0.651 0.688,0 -0.554,-0.401 0.212,-0.651 -0.554,0.402 z"/><path id="path43" style="fill:#ffcc00;fill-opacity:1;fill-rule:nonzero;stroke:none" d="m 18,23.1992 -0.553,-0.402 0.211,0.651 -0.554,0.401 0.688,0 0.208,0.651 0.208,-0.651 0.688,0 -0.554,-0.401 0.212,-0.651 -0.554,0.402 z"/><path id="path44" style="fill:#ffcc00;fill-opacity:1;fill-rule:nonzero;stroke:none" d="m 23.6484,17.5508 -0.554,-0.402 0.212,0.651 -0.554,0.401 0.688,0 0.208,0.651 0.208,-0.651 0.688,0 -0.554,-0.401 0.212,-0.651 -0.554,0.402 z"/><path id="path45" style="fill:#ffcc00;fill-opacity:1;fill-rule:nonzero;stroke:none" d="m 13.1084,20.375 -0.553,-0.402 0.211,0.651 -0.554,0.401 0.688,0 0.208,0.651 0.208,-0.651 0.687,0 -0.553,-0.401 0.211,-0.651 -0.553,0.402 z"/><path id="path46" style="fill:#ffcc00;fill-opacity:1;fill-rule:nonzero;stroke:none" d="m 13.1084,14.7266 -0.553,-0.402 0.211,0.65 -0.554,0.402 0.688,0 0.208,0.651 0.208,-0.651 0.687,0 -0.553,-0.402 0.211,-0.65 -0.553,0.402 z"/><path id="path47" style="fill:#ffcc00;fill-opacity:1;fill-rule:nonzero;stroke:none" d="m 15.1758,12.6592 -0.553,-0.402 0.211,0.65 -0.554,0.402 0.688,0 0.208,0.651 0.208,-0.651 0.688,0 -0.554,-0.402 0.211,-0.65 -0.553,0.402 z"/><path id="path48" style="fill:#ffcc00;fill-opacity:1;fill-rule:nonzero;stroke:none" d="m 18,23.1992 0.554,-0.402 -0.212,0.651 0.554,0.401 -0.688,0 -0.208,0.651 -0.208,-0.651 -0.688,0 0.554,-0.401 -0.211,-0.651 0.553,0.402 z"/><path id="path49" style="fill:#ffcc00;fill-opacity:1;fill-rule:nonzero;stroke:none" d="m 12.3516,17.5508 0.553,-0.402 -0.211,0.651 0.554,0.401 -0.688,0 -0.208,0.651 -0.208,-0.651 -0.688,0 0.554,-0.401 -0.211,-0.651 0.553,0.402 z"/><path id="path50" style="fill:#ffcc00;fill-opacity:1;fill-rule:nonzero;stroke:none" d="m 22.8916,20.375 0.554,-0.402 -0.212,0.651 0.554,0.401 -0.688,0 -0.208,0.651 -0.208,-0.651 -0.688,0 0.554,-0.401 -0.212,-0.651 0.554,0.402 z"/><path id="path51" style="fill:#ffcc00;fill-opacity:1;fill-rule:nonzero;stroke:none" d="m 15.1758,22.4424 0.553,-0.402 -0.211,0.651 0.554,0.401 -0.688,0 -0.208,0.651 -0.208,-0.651 -0.688,0 0.554,-0.401 -0.211,-0.651 0.553,0.402 z"/><path id="path52" style="fill:#ffcc00;fill-opacity:1;fill-rule:nonzero;stroke:none" d="m 22.8916,14.7266 0.554,-0.402 -0.212,0.65 0.554,0.402 -0.688,0 -0.208,0.651 -0.208,-0.651 -0.688,0 0.554,-0.402 -0.212,-0.65 0.554,0.402 z"/><path id="path53" style="fill:#ffcc00;fill-opacity:1;fill-rule:nonzero;stroke:none" d="m 20.8242,12.6592 0.554,-0.402 -0.212,0.65 0.554,0.402 -0.688,0 -0.208,0.651 -0.208,-0.651 -0.688,0 0.554,-0.402 -0.212,-0.65 0.554,0.402 z"/></g></g></g></g></svg>