<svg xmlns:dc="http://purl.org/dc/elements/1.1/" xmlns:cc="http://creativecommons.org/ns#" xmlns:rdf="http://www.w3.org/1999/02/22-rdf-syntax-ns#" xmlns:svg="http://www.w3.org/2000/svg" xmlns="http://www.w3.org/2000/svg" viewBox="0 0 45 45" style="enable-background:new 0 0 45 45;" xml:space="preserve" version="1.1" id="svg2"><metadata id="metadata8"><rdf:RDF><cc:Work rdf:about=""><dc:format>image/svg+xml</dc:format><dc:type rdf:resource="http://purl.org/dc/dcmitype/StillImage"/></cc:Work></rdf:RDF></metadata><defs id="defs6"><clipPath id="clipPath16" clipPathUnits="userSpaceOnUse"><path id="path18" d="M 0,36 36,36 36,0 0,0 0,36 Z"/></clipPath></defs><g transform="matrix(1.25,0,0,-1.25,0,45)" id="g10"><g id="g12"><g xmlns="http://www.w3.org/2000/svg" clip-path="url(#clipPath16)" id="g14"><g id="g30"><path id="path20" style="fill:#002664;fill-opacity:1;fill-rule:nonzero;stroke:none" d="m 32,5 c 2.209,0 4,1.791 4,4 l 0,18 c 0,2.209 -1.791,4 -4,4 L 4,31 C 1.791,31 0,29.209 0,27 L 0,9 C 0,6.791 1.791,5 4,5 l 28,0 z"/></g><g id="g34"><path id="path30" style="fill:#000000;fill-opacity:1;fill-rule:nonzero;stroke:none" d="m 14.3882,14.2412 0.065,-0.754 0.766,-0.011 -0.415,0.725 -0.416,0.04 z"/><path id="path31" style="fill:#000000;fill-opacity:1;fill-rule:nonzero;stroke:none" d="m 13.6646,14.2061 0,-0.707 -0.835,0.01 0.023,0.191 0.232,0.212 0.039,0.294 0.541,0 z"/><path id="path32" style="fill:#6f513e;fill-opacity:1;fill-rule:nonzero;stroke:none" d="m 14.3335,14.4668 -0.586,2.416 -0.089,-1.795 0.089,-0.627 -0.039,-0.255 -0.777,0 0,0.243 0.07,0.012 0.02,0.631 -0.161,0.828 0.02,0.572 -0.137,0.656 -0.028,0.96 0.047,0.243 0.687,-0.027 0.247,0.122 0.564,-0.06 0.149,-0.56 0.196,-0.483 0.169,1.714 0.114,0.043 0.204,-0.074 -0.051,-0.095 -0.353,-3.611 0.165,-1.114 -0.224,-0.019 -0.241,0.054 -0.308,-0.748 -0.177,0 0.43,0.974 z"/><path id="path33" style="fill:#ffd1d1;fill-opacity:1;fill-rule:nonzero;stroke:none" d="m 12.3149,19.3853 0.044,-0.173 0.215,-0.345 0.138,-0.309 0.051,-0.207 -0.045,-0.231 -0.141,-0.055 -0.077,0.058 0.08,0.097 -0.087,0.184 -0.142,0.281 -0.292,0.315 -0.235,0.547 0.138,0.097 0.285,-0.035 0.068,-0.224 z"/><path id="path34" style="fill:#ffffff;fill-opacity:1;fill-rule:nonzero;stroke:none" d="m 11.7148,17.7529 0.488,0.447 0.509,0.359 0.051,-0.208 0.686,-0.027 0.247,0.121 0.565,-0.059 0.11,0.173 -0.13,0.494 0.525,-0.083 0.009,0.087 0.113,0.043 0.204,-0.075 -0.172,0.64 -0.255,0.5 -0.136,0.206 -0.517,0.111 -0.094,-0.07 0.109,-0.265 -0.345,-0.541 c 0,0 -0.226,0.509 -0.226,0.518 0,0.008 -0.141,0.247 -0.141,0.247 l 0.035,0.1 -0.014,0.082 -0.63,-0.159 -0.274,-0.218 -0.509,-0.188 -0.132,-0.185 0.033,-0.256 0.138,0.097 0.285,-0.035 0.068,-0.224 0.209,-0.047 0.209,0.121 -0.036,-0.491 -0.47,-0.384 -0.409,-0.496 -0.103,-0.335 z"/><path id="path35" style="fill:#ffd1d1;fill-opacity:1;fill-rule:nonzero;stroke:none" d="m 13.9971,19.5854 0.044,-0.159 -0.32,-0.22 0.038,-0.136 -0.115,-0.032 -0.132,0.068 -0.103,0.011 -0.118,0.209 0.218,0.244 0.488,0.015 z"/><path id="path36" style="fill:#ffd1d1;fill-opacity:1;fill-rule:nonzero;stroke:none" d="m 13.6821,19.606 0.344,0.541 -0.109,0.265 -0.235,-0.041 -0.332,0.1 -0.035,-0.1 0.141,-0.247 0.226,-0.518 z"/><path id="path37" style="fill:#ffe84f;fill-opacity:1;fill-rule:nonzero;stroke:none" d="m 14.0405,20.897 0.216,0.109 0.118,0.286 -0.106,0.275 -0.228,0.263 -0.109,0.043 -0.13,-0.028 -0.074,0.098 -0.188,-0.039 -0.275,-0.153 -0.013,-0.184 -0.237,-0.097 -0.171,-0.189 -0.053,-0.326 0.194,-0.145 0.223,-0.039 0.833,0.126 z"/><path id="path38" style="fill:#ffd1d1;fill-opacity:1;fill-rule:nonzero;stroke:none" d="m 14.0449,20.9668 0,0.217 -0.229,0.179 -0.308,0 -0.122,-0.133 -0.082,-0.303 0.155,-0.384 0.245,-0.043 0.2,0.047 0.141,0.42 z"/><path id="path39" style="fill:#000000;fill-opacity:1;fill-rule:nonzero;stroke:none" d="m 14.0117,20.4824 -0.094,-0.071 -0.236,-0.041 -0.332,0.1 -0.032,0.226 -0.11,0.074 -0.033,0.239 0.135,0.263 0.198,0.09 -0.121,-0.133 -0.083,-0.302 0.114,-0.178 0.041,-0.206 0.245,-0.043 0.2,0.046 0.016,0.35 0.125,0.07 -0.033,-0.484 z"/><path id="path40" style="fill:#9ed9ff;fill-opacity:1;fill-rule:nonzero;stroke:none" d="m 17.8052,10.1475 c -0.888,0 -2.086,0.378 -2.762,0.67 -1.052,0.456 -1.369,0.9 -1.369,0.9 l 0.073,0.147 -1.089,0.036 c 0,0 0.012,-0.159 -0.128,-0.2 -0.11,-0.032 -0.225,0.07 -0.225,0.07 0,0 -0.383,1.335 -0.383,1.459 0,0.123 0.146,0.282 0.541,0.282 0.396,0 2.756,-0.035 2.756,-0.035 l -0.231,-0.618 c 0,0 1.408,-0.946 2.817,-0.946 1.409,0 2.817,0.946 2.817,0.946 l -0.232,0.618 c 0,0 2.361,0.035 2.756,0.035 0.396,0 0.542,-0.159 0.542,-0.282 0,-0.124 -0.383,-1.459 -0.383,-1.459 0,0 -0.115,-0.102 -0.225,-0.07 -0.141,0.041 -0.128,0.2 -0.128,0.2 l -1.089,-0.036 0.073,-0.147 c 0,0 -0.317,-0.444 -1.369,-0.9 -0.676,-0.292 -1.874,-0.67 -2.762,-0.67"/><path id="path41" style="fill:#9ed9ff;fill-opacity:1;fill-rule:nonzero;stroke:none" d="m 20.6299,19.5835 -0.624,-1.715 -4.301,0.132 -0.711,1.583 c 0,0 0.374,-0.111 0.712,0.128 0.435,0.308 0.335,0.924 2.106,0.924 1.77,0 1.745,-0.612 2.188,-0.906 0.392,-0.26 0.63,-0.146 0.63,-0.146"/><path id="path42" style="fill:#ffffff;fill-opacity:1;fill-rule:nonzero;stroke:none" d="m 20.0059,17.8687 c 0,0 -0.51,0.062 -0.424,0.361 0.087,0.298 -0.18,0.313 -0.313,0.494 -0.133,0.18 -0.251,0.172 -0.039,0.282 0.212,0.11 0.093,0.18 -0.15,0.243 -0.243,0.063 -0.086,0.251 -0.352,0.228 -0.267,-0.024 0.007,0.188 -0.243,0.172 -0.251,-0.015 -0.157,0.306 -0.644,0.259 -0.486,-0.047 -0.439,-0.102 -0.65,-0.274 -0.212,-0.173 -0.785,-0.33 -0.793,-0.4 -0.008,-0.071 0.44,-0.094 0.165,-0.197 -0.275,-0.102 0.102,-0.29 -0.102,-0.36 -0.204,-0.071 -0.141,-0.314 -0.314,-0.369 -0.172,-0.055 -0.031,-0.109 -0.149,-0.149 -0.117,-0.039 -0.502,-0.29 -0.502,-0.29 l 1.122,-0.604 3.388,0 0,0.604 z"/><path id="path43" style="fill:#36e218;fill-opacity:1;fill-rule:nonzero;stroke:none" d="m 20.084,17.5942 c 0,0 -0.384,0.078 -0.479,0.22 -0.093,0.141 -0.43,-0.4 -0.43,-0.4 l -2.22,0.039 c 0,0 -0.792,0.863 -0.62,0.337 0.173,-0.526 -0.337,0.384 -0.431,0.251 -0.094,-0.134 -0.345,0.149 -0.345,0.149 0,0 0.07,-0.698 -0.243,-0.949 -0.314,-0.251 -0.385,-1.741 -0.385,-1.741 l 0.267,-0.329 5.38,0 c 0,0 0.243,1.756 -0.07,1.961 -0.314,0.203 -0.424,0.462 -0.424,0.462"/><path id="path44" style="fill:#e2ffb3;fill-opacity:1;fill-rule:nonzero;stroke:none" d="m 20.5781,15.1709 c 0,0 -0.58,0.337 -1.427,0.195 -0.847,-0.14 -0.933,0.103 -1.663,-0.031 -0.729,-0.133 -0.714,0.171 -1.31,0.066 -0.596,-0.105 -1.247,0.099 -1.247,0.099 l 0.314,-1.843 5.138,0.023 0.195,1.491 z"/><path id="path45" style="fill:#9ed9ff;fill-opacity:1;fill-rule:nonzero;stroke:none" d="m 19.7471,13.7939 -3.894,-0.07 c 0,0 -0.195,-0.675 0.635,-1 0.494,-0.194 1.315,0.058 1.315,0.058 0,0 0.909,-0.252 1.32,-0.093 0.841,0.322 0.624,1.105 0.624,1.105"/><path id="path46" style="fill:#6f513e;fill-opacity:1;fill-rule:nonzero;stroke:none" d="m 18.1914,14.3799 c 0,-0.036 0.309,-0.013 0.479,0.015 0.17,0.026 0.262,-0.06 0.403,0.014 0.141,0.074 0.029,0.277 -0.135,0.483 -0.165,0.205 -0.609,0.317 -1.009,0.332 -0.4,0.014 -0.856,0.297 -0.956,0.297 -0.049,0 -0.07,-0.048 -0.182,-0.115 -0.117,-0.069 -0.327,-0.156 -0.338,-0.188 -0.012,-0.032 0.003,-0.148 0.076,-0.148 0.074,0 0.185,0.119 0.185,0.119 0,0 0.118,-0.124 0.227,-0.13 0.108,-0.006 0.135,0.094 0.17,0.071 0.036,-0.024 -0.053,-0.121 -0.044,-0.188 0.009,-0.069 0.124,-0.151 0.13,-0.221 0.006,-0.07 -0.039,-0.133 -0.233,-0.136 -0.194,-0.003 -0.294,-0.018 -0.294,-0.073 0,-0.056 0.459,-0.091 0.709,-0.044 0.25,0.047 0.362,0.171 0.362,0.171 0,0 0.223,0 0.456,-0.121 0.086,-0.045 0.2,-0.038 0.2,-0.038 0,0 -0.206,-0.047 -0.206,-0.1"/><path id="path47" style="fill:#ffe84f;fill-opacity:1;fill-rule:nonzero;stroke:none" d="m 17.9824,15.7217 c 0,0 -0.388,-0.218 -0.863,-0.218 -0.474,0 -0.733,0.282 -0.733,0.282 0,0 0.482,-0.176 0.533,-0.14 0.025,0.016 0.02,0.144 0.02,0.144 0,0 0.045,-0.088 0.098,-0.088 0.053,0 0.088,0.059 0.088,0.059 0,0 -0.018,-0.098 0.002,-0.115 0.11,-0.095 0.602,0.235 0.602,0.235 0,0 -0.065,-0.113 0.031,-0.128 0.044,-0.007 0.145,0.088 0.145,0.088 0,0 -0.028,-0.062 -0.015,-0.09 0.014,-0.031 0.092,-0.029 0.092,-0.029"/><path id="path48" style="fill:#3e6f3e;fill-opacity:1;fill-rule:nonzero;stroke:none" d="m 17.9512,16.0645 c 1.208,0 1.475,0.228 1.49,0.393 0.016,0.164 0.282,0.376 0.18,0.494 -0.102,0.117 -0.337,-0.251 -0.337,0.266 0,0.518 0.055,0.69 -0.212,0.675 -0.267,-0.016 -0.463,0.044 -0.133,0.108 0.329,0.064 0.063,0.292 -0.141,0.299 -0.204,0.008 -0.024,0.158 0,0.275 0.023,0.118 -0.463,-0.094 -0.243,0.196 0.219,0.29 0.102,0.33 -0.04,0.29 -0.141,-0.039 -0.258,-0.008 -0.125,0.196 0.133,0.204 -0.416,-0.023 -0.33,0.149 0.087,0.173 -0.203,0.416 -0.203,0.416 0,0 -0.275,-0.149 -0.212,-0.298 0.063,-0.149 0.086,-0.298 -0.133,-0.11 -0.22,0.189 -0.322,-0.133 -0.142,-0.219 0.181,-0.087 0.251,-0.385 0.079,-0.212 -0.173,0.172 -0.4,0.212 -0.4,0.062 0,-0.148 0.321,-0.274 0.298,-0.344 -0.023,-0.071 -0.243,0.101 -0.243,-0.032 0,-0.133 0.29,-0.211 0.149,-0.267 -0.141,-0.054 -0.236,0.346 -0.369,0.157 -0.133,-0.188 0.235,-0.259 0.181,-0.4 -0.055,-0.141 -0.389,0.01 -0.424,-0.047 -0.126,-0.204 0.353,-0.345 0.282,-0.423 -0.104,-0.116 -0.431,0.117 -0.447,-0.047 -0.015,-0.165 0.126,-0.299 0.055,-0.385 -0.07,-0.086 -0.235,0.11 -0.259,-0.093 -0.023,-0.204 0.291,-0.134 0.173,-0.432 -0.118,-0.298 -0.16,-0.031 -0.174,-0.157 -0.014,-0.125 -0.116,-0.51 1.68,-0.51"/><path id="path49" style="fill:#ffe84f;fill-opacity:1;fill-rule:nonzero;stroke:none" d="m 17.8232,21.1235 c -0.129,0 -0.176,-0.074 -0.176,-0.074 0,0 -0.083,0.024 -0.141,-0.026 -0.059,-0.05 -0.033,-0.135 -0.033,-0.135 0,0 -0.048,-0.02 -0.077,-0.057 -0.03,-0.038 -0.034,-0.127 -0.034,-0.127 0,0 -0.576,0.231 -1.153,-0.33 -0.576,-0.561 -0.874,-0.733 -0.874,-0.733 0,0 0.125,0.149 -0.024,0.247 -0.149,0.098 -0.365,0.048 -0.392,-0.224 -0.043,-0.435 0.361,-0.984 0.361,-0.984 0,0 -0.041,0.027 -0.104,0.037 -0.062,0.009 -0.098,-0.037 -0.098,-0.037 0,0 -0.05,0.03 -0.117,0.029 -0.068,-0.002 -0.093,-0.029 -0.093,-0.029 0,0 0.243,-0.257 0.43,-0.604 0.188,-0.347 0.063,-0.684 -0.158,-0.782 -0.22,-0.096 -0.272,0.018 -0.272,0.018 0,0 0.14,-0.041 0.172,0.092 0.033,0.133 -0.199,0.335 -0.334,0.124 -0.214,-0.336 0.2,-0.524 0.2,-0.524 0,0 -0.371,-0.342 -0.451,-1.037 -0.079,-0.694 0.362,-1.815 0.802,-2.405 1.039,-1.396 2.129,-0.973 2.129,-0.973 0,0 0.143,-0.262 0.437,-0.262 0.294,0 0.437,0.262 0.437,0.262 0,0 1.09,-0.423 2.13,0.973 0.439,0.59 0.88,1.711 0.801,2.405 -0.08,0.695 -0.451,1.037 -0.451,1.037 0,0 0.414,0.188 0.2,0.524 -0.135,0.211 -0.367,0.009 -0.334,-0.124 0.032,-0.133 0.172,-0.092 0.172,-0.092 0,0 -0.052,-0.114 -0.272,-0.018 -0.22,0.098 -0.345,0.435 -0.158,0.782 0.188,0.347 0.43,0.604 0.43,0.604 0,0 -0.025,0.027 -0.093,0.029 -0.066,0.001 -0.117,-0.029 -0.117,-0.029 0,0 -0.035,0.046 -0.098,0.037 -0.062,-0.01 -0.104,-0.037 -0.104,-0.037 0,0 0.404,0.549 0.361,0.984 -0.027,0.272 -0.243,0.322 -0.392,0.224 -0.149,-0.098 -0.024,-0.247 -0.024,-0.247 0,0 -0.298,0.172 -0.874,0.733 -0.577,0.561 -1.153,0.33 -1.153,0.33 0,0 -0.004,0.089 -0.033,0.127 -0.03,0.037 -0.078,0.057 -0.078,0.057 0,0 0.027,0.085 -0.032,0.135 -0.059,0.05 -0.141,0.026 -0.141,0.026 0,0 -0.047,0.074 -0.177,0.074 m 0.297,-1.141 c 0.291,0 0.239,0.341 0.239,0.341 0,0 0.082,0.127 0.356,0.127 0.273,0 0.476,-0.112 0.476,-0.112 0,0 -0.435,0.056 -0.435,-0.215 0,-0.271 0.329,-0.165 0.329,-0.165 0,0 -0.147,-0.153 0.185,-0.244 0.208,-0.057 0.392,-0.017 0.392,-0.017 0,0 0.204,-0.158 0.512,-0.198 0.253,-0.032 0.387,0.018 0.387,0.018 0,0 -0.07,-0.185 -0.399,-0.585 -0.337,-0.409 -0.354,-0.986 -0.256,-1.291 0.143,-0.448 0.497,-0.571 0.497,-0.571 0,0 -0.411,0.012 -0.512,-0.206 -0.2,-0.432 0.226,-0.544 0.226,-0.544 0,0 -0.094,-0.061 -0.082,-0.176 0.02,-0.197 0.147,-0.054 0.147,-0.054 0,0 -0.003,-0.061 0.036,-0.108 0.038,-0.047 0.099,-0.062 0.099,-0.062 0,0 -0.053,-0.062 -0.029,-0.206 0.023,-0.144 0.089,-0.253 0.089,-0.253 0,0 -0.156,-0.022 -0.212,-0.124 -0.1,-0.175 -0.003,-0.175 -0.003,-0.175 0,0 0.02,0.073 0.064,0.073 0.133,0 0.213,-0.278 0.213,-0.278 0,0 -0.058,0.074 -0.135,0.092 -0.076,0.019 -0.112,-0.012 -0.112,-0.012 0,0 0.113,-0.27 0.175,-0.599 0.062,-0.33 -0.111,-0.7 -0.111,-0.7 0,0 0.002,0.064 -0.009,0.118 -0.011,0.053 -0.031,0.087 -0.031,0.087 0,0 -0.021,-0.006 -0.044,-0.028 -0.024,-0.022 -0.032,-0.043 -0.032,-0.043 0,0 0.035,0.168 -0.148,0.168 -0.124,0 -0.192,-0.124 -0.192,-0.124 0,0 -0.004,0.012 -0.016,0.023 -0.012,0.01 -0.022,0.011 -0.022,0.011 0,0 -0.07,-0.021 -0.116,-0.212 -0.045,-0.192 0.014,-0.421 -0.199,-0.694 -0.3,-0.381 -0.826,-0.352 -0.826,-0.352 0,0 -0.111,0.039 -0.229,0.128 -0.119,0.089 -0.156,0.184 -0.156,0.184 0,0 0.215,0.019 0.215,0.243 0,0.223 -0.131,0.305 -0.272,0.305 -0.374,0 -0.356,-0.382 -0.356,-0.382 0,0 0.018,0.382 -0.356,0.382 -0.141,0 -0.272,-0.082 -0.272,-0.305 0,-0.224 0.215,-0.243 0.215,-0.243 0,0 -0.037,-0.095 -0.156,-0.184 -0.118,-0.089 -0.229,-0.128 -0.229,-0.128 0,0 -0.526,-0.029 -0.826,0.352 -0.213,0.273 -0.154,0.502 -0.199,0.694 -0.046,0.191 -0.116,0.212 -0.116,0.212 0,0 -0.01,-10e-4 -0.022,-0.011 -0.011,-0.011 -0.016,-0.023 -0.016,-0.023 0,0 -0.067,0.124 -0.191,0.124 -0.184,0 -0.149,-0.168 -0.149,-0.168 0,0 -0.008,0.021 -0.031,0.043 -0.024,0.022 -0.044,0.028 -0.044,0.028 0,0 -0.021,-0.034 -0.031,-0.087 -0.011,-0.054 -0.009,-0.118 -0.009,-0.118 0,0 -0.174,0.37 -0.112,0.7 0.062,0.329 0.175,0.599 0.175,0.599 0,0 -0.036,0.031 -0.112,0.012 -0.077,-0.018 -0.135,-0.092 -0.135,-0.092 0,0 0.08,0.278 0.213,0.278 0.044,0 0.064,-0.073 0.064,-0.073 0,0 0.097,0 -0.002,0.175 -0.057,0.102 -0.212,0.124 -0.212,0.124 0,0 0.065,0.109 0.088,0.253 0.024,0.144 -0.029,0.206 -0.029,0.206 0,0 0.062,0.015 0.1,0.062 0.038,0.047 0.035,0.108 0.035,0.108 0,0 0.127,-0.143 0.147,0.054 0.012,0.115 -0.082,0.176 -0.082,0.176 0,0 0.426,0.112 0.227,0.544 -0.102,0.218 -0.513,0.206 -0.513,0.206 0,0 0.354,0.123 0.497,0.571 0.098,0.305 0.082,0.882 -0.255,1.291 -0.329,0.4 -0.4,0.585 -0.4,0.585 0,0 0.135,-0.05 0.388,-0.018 0.308,0.04 0.512,0.198 0.512,0.198 0,0 0.183,-0.04 0.391,0.017 0.332,0.091 0.185,0.244 0.185,0.244 0,0 0.33,-0.106 0.33,0.165 0,0.271 -0.436,0.215 -0.436,0.215 0,0 0.203,0.112 0.477,0.112 0.273,0 0.356,-0.127 0.356,-0.127 0,0 -0.053,-0.341 0.238,-0.341 0.271,0 0.297,0.282 0.297,0.282 0,0 0.027,-0.282 0.297,-0.282"/><path id="path50" style="fill:#ff163c;fill-opacity:1;fill-rule:nonzero;stroke:none" d="m 19.2959,21.6685 -0.2,-0.4 c 0,0 0.102,-0.091 0.314,-0.062 0.318,0.043 0.251,0.282 0.251,0.282 0,0 0.024,0.286 0.203,0.541 0.181,0.255 0.197,0.361 0.177,0.443 -0.019,0.082 -0.263,0.279 -0.686,0.279 -0.423,0 -0.738,-0.146 -1.694,-0.373 -0.957,-0.228 -1.385,-0.176 -1.385,-0.176 0,0 0.06,0.05 0.087,0.129 0.027,0.078 0.035,0.161 0.035,0.161 0,0 -0.062,0.137 -0.294,0.137 -0.231,0 -0.333,-0.122 -0.333,-0.212 0,-0.09 0.156,-0.329 0.156,-0.6 0,-0.271 -0.043,-0.49 -0.043,-0.49 0,0 0.757,-0.374 1.822,-0.034 1.489,0.478 1.59,0.375 1.59,0.375"/><path id="path51" style="fill:#ffe84f;fill-opacity:1;fill-rule:nonzero;stroke:none" d="m 17.9321,24.3188 0.128,-0.394 0.415,0 -0.335,-0.244 0.127,-0.394 -0.335,0.243 -0.335,-0.243 0.128,0.394 -0.335,0.244 0.414,0 0.128,0.394 z"/><path id="path52" style="fill:#ffe84f;fill-opacity:1;fill-rule:nonzero;stroke:none" d="m 17.1665,24.9746 c -0.525,-0.369 -1.074,-0.525 -1.074,-0.525 0,0 0.4,-0.683 0.556,-1.224 0.157,-0.542 0.157,-0.886 0.157,-0.886 0,0 0.447,0.211 1.194,0.337 0.748,0.125 1.23,0.125 1.23,0.125 0,0 0.008,0.377 0.133,0.808 0.126,0.431 0.471,0.769 0.471,0.769 0,0 -0.645,0.198 -1.139,0.606 -0.508,0.419 -0.732,0.845 -0.732,0.845 0,0 -0.27,-0.486 -0.796,-0.855 m 0.819,-0.141 c 0,0 0.127,-0.24 0.414,-0.477 0.278,-0.23 0.642,-0.341 0.642,-0.341 0,0 -0.195,-0.191 -0.265,-0.435 -0.071,-0.243 -0.075,-0.455 -0.075,-0.455 0,0 -0.273,0 -0.694,-0.071 -0.422,-0.071 -0.674,-0.19 -0.674,-0.19 0,0 0,0.194 -0.088,0.5 -0.089,0.305 -0.315,0.69 -0.315,0.69 0,0 0.31,0.089 0.607,0.297 0.296,0.208 0.448,0.482 0.448,0.482"/><path id="path53" style="fill:#000000;fill-opacity:1;fill-rule:nonzero;stroke:none" d="m 22.0234,13.8945 -0.096,-0.214 -0.282,-0.071 -0.04,-0.115 1.159,0.014 -0.186,0.152 -0.078,-0.078 -0.142,0.241 -0.335,0.071 z"/><path id="path54" style="fill:#3c3c9e;fill-opacity:1;fill-rule:nonzero;stroke:none" d="m 23.0723,21.0449 -0.008,-0.194 0.079,-0.067 -0.133,0 0.011,0.224"/><path id="path55" style="fill:#3c3c9e;fill-opacity:1;fill-rule:nonzero;stroke:none" d="m 22.8633,21.2485 0.082,0.093 0.178,-0.093 0.087,0.142 -0.154,-0.051 -0.193,0.076 -0.189,-0.1 0.189,-0.067 z"/><path id="path56" style="fill:#3c3c9e;fill-opacity:1;fill-rule:nonzero;stroke:none" d="m 22.7471,20.2236 0.418,-0.118 0.241,-0.253 0.053,-0.641 0.164,-0.665 -0.254,-0.438 -0.73,-0.303 -0.145,0.047 -1.057,0.005 -0.041,-0.253 -0.296,-0.116 -0.353,0.147 -0.253,-0.147 -0.241,0.094 0.094,0.488 0.435,0.594 0.189,0.706 0.206,0.529 0.434,0.206 0.348,-0.623 0.5,0.212 0.288,0.529 z"/><path id="path57" style="fill:#ffffff;fill-opacity:1;fill-rule:nonzero;stroke:none" d="m 22.4941,17.853 0.418,-0.042 0.041,-3.776 -0.453,-0.453 -0.142,0.241 -0.335,0.072 0.076,0.517 -1.005,1.329 0.343,2.116 1.057,-0.004 z"/><path id="path58" style="fill:#ffffff;fill-opacity:1;fill-rule:nonzero;stroke:none" d="m 21.4961,18.2188 0.233,1.434 -0.235,0.077 0.117,0.376 0.283,0.194 0.065,-0.817 0.411,0.223 0.095,0.706 0.282,-0.188 0,-0.442 -0.171,-0.046 -0.064,-1.236 -0.283,-0.117 -0.082,-0.188 -0.651,0.024 z"/><path id="path59" style="fill:#ffd1d1;fill-opacity:1;fill-rule:nonzero;stroke:none" d="m 20.2529,17.5825 -0.354,-0.09 -0.097,-0.265 0.097,0.057 0.037,0.096 0.101,0 -0.027,-0.208 0.056,-0.033 0.277,0.235 0.114,0.036 0.037,0.078 -0.241,0.094 z"/><path id="path60" style="fill:#ffd1d1;fill-opacity:1;fill-rule:nonzero;stroke:none" d="m 22.5547,20.5786 -0.145,-0.11 0.055,-0.057 -0.095,-0.706 -0.411,-0.223 -0.064,0.817 -0.136,0.322 0,0.482 0.192,0.075 0.267,-0.055 0.185,-0.079 0.125,-0.305 0.027,-0.161 z"/><path id="path61" style="fill:#000000;fill-opacity:1;fill-rule:nonzero;stroke:none" d="m 21.5742,20.8765 0.185,-0.255 0,0.483 0.192,0.074 0.113,-0.141 0.154,0.086 0.184,-0.079 0.035,-0.403 0.09,0.098 0.027,-0.161 0.126,0.039 0.047,0.173 -0.126,0.341 -0.383,0.137 -0.452,-0.078 -0.192,-0.314 z"/><path id="path62" style="fill:#ffffff;fill-opacity:1;fill-rule:nonzero;stroke:none" d="m 22.7275,20.79 -0.126,0.341 -0.384,0.138 -0.451,-0.079 -0.192,-0.314 -0.137,0.087 -0.067,0.231 0.192,0.138 0.247,0.089 0.122,0.295 0.722,-0.094 -0.036,-0.287 0.345,-0.121 0.11,-0.169 -0.345,-0.255 z"/><path id="path63" style="fill:#c5c5c5;fill-opacity:1;fill-rule:nonzero;stroke:none" d="m 23.2236,17.6353 0,-3.6 c 0,0 0.165,-0.152 0.418,0.07 0.253,0.224 0.259,0.442 0.259,0.442 0,0 -0.236,0.064 -0.066,0.382 0.171,0.318 0.336,0.495 0.336,0.495 0,0 0.094,-0.247 0.112,-0.495 0.017,-0.247 0.005,-0.353 -0.047,-0.412 -0.053,-0.058 -0.183,-0.064 -0.183,-0.064 0,0 -0.123,-0.354 -0.382,-0.607 -0.259,-0.253 -0.372,-0.343 -0.372,-0.343 l -0.534,0.006 c 0,0 -0.282,0.197 -0.418,0.415 -0.135,0.217 -0.247,0.488 -0.247,0.488 0,0 -0.125,0.025 -0.199,0.105 -0.142,0.154 0.099,0.853 0.099,0.853 0,0 0.395,-0.658 0.389,-0.747 -0.006,-0.088 -0.165,-0.147 -0.165,-0.147 0,0 0.37,-0.511 0.547,-0.552 0.177,-0.041 0.182,0.111 0.182,0.111 l -0.046,3.6 0.317,0 z"/><path id="path64" style="fill:#6f513e;fill-opacity:1;fill-rule:nonzero;stroke:none" d="m 23.2236,17.6353 0.035,0.094 0.841,0 0,0.359 -1.461,0.041 0,-0.324 0.273,0.006 -0.005,-0.176 0.317,0 z"/></g></g></g></g></svg>