<svg xmlns:dc="http://purl.org/dc/elements/1.1/" xmlns:cc="http://creativecommons.org/ns#" xmlns:rdf="http://www.w3.org/1999/02/22-rdf-syntax-ns#" xmlns:svg="http://www.w3.org/2000/svg" xmlns="http://www.w3.org/2000/svg" viewBox="0 0 45 45" style="enable-background:new 0 0 45 45;" xml:space="preserve" version="1.1" id="svg2"><metadata id="metadata8"><rdf:RDF><cc:Work rdf:about=""><dc:format>image/svg+xml</dc:format><dc:type rdf:resource="http://purl.org/dc/dcmitype/StillImage"/></cc:Work></rdf:RDF></metadata><defs id="defs6"><clipPath id="clipPath16" clipPathUnits="userSpaceOnUse"><path id="path18" d="M 4,31 C 1.791,31 0,29.209 0,27 L 0,27 0,9 C 0,6.791 1.791,5 4,5 l 0,0 28,0 c 2.209,0 4,1.791 4,4 l 0,0 0,18 c 0,2.209 -1.791,4 -4,4 l 0,0 -28,0 z"/></clipPath></defs><g transform="matrix(1.25,0,0,-1.25,0,45)" id="g10"><g id="g12"><g clip-path="url(#clipPath16)" id="g14"><g id="g20"><path id="path20" style="fill:#233974;fill-opacity:1;fill-rule:nonzero;stroke:none" d="M 32,31 H 4 C 1.791,31 0,29.209 0,27 V 9 C 0,6.791 1.791,5 4,5 h 28 c 2.209,0 4,1.791 4,4 v 18 c 0,2.209 -1.791,4 -4,4"/></g><g id="g24"><path id="path30" style="fill:#b9a453;fill-opacity:1;fill-rule:nonzero;stroke:none" d="m 5.3188,23.4155 c 0.057,0.039 0.115,0.078 0.173,0.115 l -0.49,0.775 c -0.052,-0.034 -0.104,-0.068 -0.157,-0.103 l -0.736,1.149 c 0.431,0.289 0.886,0.545 1.361,0.766 l 0.598,-1.228 c 0.165,0.076 0.333,0.146 0.502,0.212 l -0.428,1.296 c 0.475,0.179 0.967,0.321 1.472,0.426 l 0.333,-1.325 c 0.19,0.037 0.383,0.068 0.578,0.094 l -0.122,1.36 c 0.398,0.048 0.805,0.074 1.216,0.074 0.15,0 0.299,-0.004 0.447,-0.01 l -0.037,-1.365 c 0.222,-0.01 0.442,-0.029 0.659,-0.056 l 0.223,1.347 c 0.558,-0.072 1.102,-0.192 1.626,-0.354 l -0.355,-1.319 c 0.212,-0.066 0.419,-0.141 0.623,-0.223 l 0.563,1.245 c 0.488,-0.2 0.956,-0.438 1.402,-0.709 l -0.699,-1.173 c -0.066,0.041 -0.132,0.08 -0.199,0.119 l -0.475,-0.785 c 0.074,-0.042 0.148,-0.086 0.22,-0.131 l -0.111,-0.17 c 2.115,-1.305 3.525,-3.644 3.525,-6.313 0,-4.092 -3.318,-7.411 -7.412,-7.411 -4.093,0 -7.411,3.319 -7.411,7.411 0,2.532 1.269,4.767 3.206,6.105 z"/><path id="path31" style="fill:#c9c6b3;fill-opacity:1;fill-rule:nonzero;stroke:none" d="m 16.8281,17.1299 c 0,3.981 -3.228,7.209 -7.209,7.209 -3.981,0 -7.208,-3.228 -7.208,-7.209 0,-3.981 3.227,-7.209 7.208,-7.209 3.981,0 7.209,3.228 7.209,7.209"/><path id="path32" style="fill:#b9a453;fill-opacity:1;fill-rule:nonzero;stroke:none" d="m 15.6924,17.1299 c 0,3.354 -2.719,6.073 -6.073,6.073 -3.354,0 -6.073,-2.719 -6.073,-6.073 0,-3.354 2.719,-6.073 6.073,-6.073 3.354,0 6.073,2.719 6.073,6.073"/><path id="path33" style="fill:#233974;fill-opacity:1;fill-rule:nonzero;stroke:none" d="m 15.4009,17.1299 c 0,3.193 -2.588,5.782 -5.782,5.782 -3.193,0 -5.781,-2.589 -5.781,-5.782 0,-3.193 2.588,-5.781 5.781,-5.781 3.194,0 5.782,2.588 5.782,5.781"/><path id="path34" style="fill:#c9c6b3;fill-opacity:1;fill-rule:nonzero;stroke:none" d="m 13.4546,19.0811 -0.112,0.419 -0.099,-0.048 z m -0.155,-0.098 -0.25,0.398 -0.087,-0.111 z m 0.869,-1.926 0.243,0.122 -0.476,0.76 z m 0.441,0.213 0.171,0.179 -0.636,0.549 z m -0.619,-0.249 -0.353,1.498 -0.745,0.546 c 0,0 -0.637,-0.054 -0.899,0.381 -0.127,0.209 -0.16,0.501 -0.16,0.501 l -0.298,0.071 0.321,0.321 0.059,-0.239 c 0,0 0.054,0.01 0.212,0.031 0.158,0.021 0.204,0.024 0.204,0.024 0,0 0.007,0.049 0.031,0.145 0.025,0.096 0.043,0.149 0.043,0.149 l -0.247,0.094 0.447,0.227 -0.063,-0.239 c 0,0 0.07,0.001 0.22,-0.047 0.15,-0.048 0.161,-0.074 0.161,-0.074 0,0 0.006,0.058 0.051,0.161 0.044,0.102 0.094,0.172 0.094,0.172 l -0.2,0.176 0.423,0.087 -0.106,-0.239 c 0,0 0.252,0.003 0.409,-0.318 0.223,-0.459 -0.087,-0.918 -0.087,-0.918 l 0.236,-0.96 1.2,-0.977 0.051,0.122 0.29,-0.498 -0.565,0.109 0.122,-0.588 -0.526,0.361 -0.11,-0.553 -0.306,0.443 z"/><path id="path35" style="fill:#c9c6b3;fill-opacity:1;fill-rule:nonzero;stroke:none" d="m 6.8999,19.3511 c 0,0.654 -0.53,1.184 -1.184,1.184 -0.654,0 -1.185,-0.53 -1.185,-1.184 0,-0.654 0.531,-1.185 1.185,-1.185 0.654,0 1.184,0.531 1.184,1.185"/><path id="path36" style="fill:#233974;fill-opacity:1;fill-rule:nonzero;stroke:none" d="m 6.041,19.3511 c 0,0.18 -0.146,0.325 -0.325,0.325 -0.18,0 -0.326,-0.145 -0.326,-0.325 0,-0.18 0.146,-0.326 0.326,-0.326 0.179,0 0.325,0.146 0.325,0.326"/><path id="path37" style="fill:#c9c6b3;fill-opacity:1;fill-rule:nonzero;stroke:none" d="m 14.4399,13.9375 c -1.035,-1.561 -2.808,-2.589 -4.821,-2.589 -2.024,0 -3.804,1.039 -4.837,2.614 l 4.829,3.058 z"/><path id="path38" style="fill:#db373a;fill-opacity:1;fill-rule:nonzero;stroke:none" d="m 8.8887,14.0313 c -0.832,0.071 -1.589,0.222 -1.589,0.222 0,0 0.679,2.865 0.902,3.023 0.2,0.142 0.428,-0.074 0.499,0.134 0.07,0.207 -0.017,0.427 -0.044,0.866 -0.019,0.316 -0.168,0.392 -0.168,0.392 0,0 -0.008,-0.086 -0.039,-0.317 -0.032,-0.232 -0.177,-0.487 -0.177,-0.487 0,0 -0.071,0.13 -0.22,0.326 -0.149,0.196 -0.27,0.278 -0.27,0.278 0,0 0.274,0.244 0.557,0.506 0.282,0.263 0.6,0.675 0.6,0.675 0,0 0.19,-0.634 0.619,-0.949 0.769,-0.565 1.753,-0.298 1.753,-0.298 0,0 -0.051,-0.028 -0.204,-0.204 -0.153,-0.177 -0.239,-0.337 -0.239,-0.337 0,0 -0.047,0.074 -0.114,0.204 -0.066,0.129 -0.11,0.262 -0.11,0.262 0,0 -0.062,-0.145 -0.133,-0.396 -0.07,-0.251 -0.123,-0.593 0.181,-0.573 0.282,0.021 0.343,-0.083 0.506,-0.584 0.311,-0.963 0.697,-2.459 0.697,-2.459 0,0 -0.604,-0.167 -1.341,-0.261 l 0.769,-0.66 c 0,0 -1.347,0.333 -1.393,0.368 -0.044,0.036 -0.019,0.237 -0.019,0.237 -0.081,-0.003 -0.162,-0.005 -0.243,-0.005 -0.072,0 -0.145,10e-4 -0.218,0.003 0,0 0.028,-0.199 -10e-4,-0.242 -0.03,-0.043 -1.373,-0.351 -1.373,-0.351 z"/><path id="path39" style="fill:#c9c6b3;fill-opacity:1;fill-rule:nonzero;stroke:none" d="m 7.7822,18.4688 c 0,0 0.274,0.243 0.557,0.506 0.282,0.263 0.6,0.674 0.6,0.674 0,0 0.191,-0.634 0.619,-0.949 0.769,-0.564 1.753,-0.298 1.753,-0.298 0,0 -0.192,1.404 -0.301,1.498 -0.11,0.094 -0.871,0.251 -0.871,0.251 0,0 -0.126,-0.235 -0.643,-0.235 -0.518,0 -0.745,0.235 -0.745,0.235 0,0 -0.62,-0.094 -0.722,-0.188 -0.102,-0.094 -0.247,-1.494 -0.247,-1.494"/><path id="path40" style="fill:#fee8b5;fill-opacity:1;fill-rule:nonzero;stroke:none" d="m 11.3115,18.4019 c 0,0 -0.051,-0.027 -0.204,-0.204 -0.152,-0.176 -0.239,-0.337 -0.239,-0.337 0,0 0.031,-0.12 0.19,-0.161 0.159,-0.041 2.512,0.489 2.512,0.489 0,0 0.177,-0.073 0.353,0.064 0.177,0.137 0.047,0.298 -0.074,0.427 -0.122,0.13 -0.197,0.055 -0.197,0.055 0,0 -0.027,0.134 -0.16,0.028 -0.134,-0.106 -0.251,-0.278 -0.33,-0.306 -0.04,-0.014 -0.513,0.01 -0.976,0 -0.441,-0.01 -0.875,-0.055 -0.875,-0.055"/><path id="path41" style="fill:#fee8b5;fill-opacity:1;fill-rule:nonzero;stroke:none" d="m 8.2725,17.8647 c 0,0 -0.07,0.129 -0.22,0.326 -0.149,0.195 -0.27,0.278 -0.27,0.278 0,0 -0.851,-0.079 -1.298,-0.149 -0.447,-0.071 -0.691,-0.145 -0.776,-0.125 -0.087,0.019 -0.11,0.251 -0.189,0.305 -0.078,0.055 -0.302,0.114 -0.388,0.047 -0.087,-0.066 0.027,-0.455 0.255,-0.547 0.186,-0.075 2.59,-0.232 2.74,-0.206 0.15,0.027 0.146,0.071 0.146,0.071"/><path id="path42" style="fill:#b9a453;fill-opacity:1;fill-rule:nonzero;stroke:none" d="m 4.6548,17.335 0.161,0.481 0.312,-0.433 0.539,0.056 -0.306,-0.558 0.086,-0.665 -0.498,0.309 -0.578,-0.225 0.155,0.525 -0.355,0.405 z"/><path id="path43" style="fill:#b9a453;fill-opacity:1;fill-rule:nonzero;stroke:none" d="m 6.9512,21.4766 0.237,0.5 0.233,-0.482 0.487,0.019 -0.359,-0.443 0.163,-0.547 -0.524,0.257 -0.518,-0.271 0.148,0.514 -0.393,0.367 z"/><path id="path44" style="fill:#b9a453;fill-opacity:1;fill-rule:nonzero;stroke:none" d="m 11.3315,21.394 0.257,0.465 0.19,-0.451 0.476,0.002 -0.366,-0.373 0.104,-0.58 -0.469,0.296 -0.551,-0.147 0.234,0.473 -0.279,0.297 z"/><path id="path45" style="fill:#b9a453;fill-opacity:1;fill-rule:nonzero;stroke:none" d="m 13.998,15.7979 0.343,0.445 0.059,-0.507 0.5,-0.134 -0.469,-0.284 0.01,-0.584 -0.453,0.346 -0.612,-0.129 0.285,0.411 -0.202,0.51 z"/><path id="path46" style="fill:#b9a453;fill-opacity:1;fill-rule:nonzero;stroke:none" d="m 10.6851,21.3721 c 0,0.691 -0.56,1.251 -1.251,1.251 -0.691,0 -1.252,-0.56 -1.252,-1.251 0,-0.691 0.561,-1.251 1.252,-1.251 0.691,0 1.251,0.56 1.251,1.251"/><path id="path47" style="fill:#fee8b5;fill-opacity:1;fill-rule:nonzero;stroke:none" d="m 9.8027,20.9321 c 0,0 0,-0.1 -0.026,-0.15 -0.027,-0.05 -0.056,-0.079 -0.056,-0.079 0,0 0.035,-0.438 0.091,-0.518 0.056,-0.079 0.327,-0.034 0.327,-0.034 0,0 -0.125,-0.236 -0.643,-0.236 -0.517,0 -0.745,0.236 -0.745,0.236 0,0 0.261,0.005 0.308,0.058 0.047,0.053 0.033,0.482 0.033,0.482 0,0 -0.018,0.041 -0.042,0.1 -0.023,0.059 -0.035,0.144 -0.035,0.144 0,0 -0.009,0.479 0.02,0.521 0.03,0.041 0.742,0.05 0.742,0.05 z"/><path id="path48" style="fill:#c9c6b3;fill-opacity:1;fill-rule:nonzero;stroke:none" d="m 9.0146,20.9351 c 0,0 -0.009,0.479 0.021,0.521 0.029,0.041 0.741,0.05 0.741,0.05 l 0.026,-0.574 c 0,0 0,-0.047 0.056,-0.047 0.056,0 0.097,0.073 0.044,0.394 -0.091,0.553 -0.176,0.589 -0.494,0.668 -0.143,0.036 -0.435,-0.129 -0.497,-0.391 -0.062,-0.262 -0.05,-0.709 0.03,-0.709 0.064,0 0.073,0.088 0.073,0.088"/></g></g></g></g></svg>