<svg xmlns:dc="http://purl.org/dc/elements/1.1/" xmlns:cc="http://creativecommons.org/ns#" xmlns:rdf="http://www.w3.org/1999/02/22-rdf-syntax-ns#" xmlns:svg="http://www.w3.org/2000/svg" xmlns="http://www.w3.org/2000/svg" viewBox="0 0 45 45" style="enable-background:new 0 0 45 45;" xml:space="preserve" version="1.1" id="svg2"><metadata id="metadata8"><rdf:RDF><cc:Work rdf:about=""><dc:format>image/svg+xml</dc:format><dc:type rdf:resource="http://purl.org/dc/dcmitype/StillImage"/></cc:Work></rdf:RDF></metadata><defs id="defs6"><clipPath id="clipPath16" clipPathUnits="userSpaceOnUse"><path id="path18" d="M 0,36 36,36 36,0 0,0 0,36 Z"/></clipPath></defs><g transform="matrix(1.25,0,0,-1.25,0,45)" id="g10"><g id="g12"><g xmlns="http://www.w3.org/2000/svg" clip-path="url(#clipPath16)" id="g14"><g id="g20"><path id="path22" style="fill:#663333;fill-opacity:1;fill-rule:nonzero;stroke:none" d="M 4,31 C 1.791,31 0,29.209 0,27 V 9 C 0,6.791 1.791,5 4,5 h 28 c 2.209,0 4,1.791 4,4 v 18 c 0,2.209 -1.791,4 -4,4 z"/></g><g id="g24"><path id="path26" style="fill:#cc0033;fill-opacity:1;fill-rule:nonzero;stroke:none" d="m 4,30.2832 c -1.81,0 -3.283,-1.473 -3.283,-3.283 v -18 C 0.717,7.1892 2.19,5.7172 4,5.7172 h 28 c 1.811,0 3.283,1.472 3.283,3.283 v 18 c 0,1.81 -1.472,3.283 -3.283,3.283 z"/></g><g id="g28"><path id="path30" style="fill:#eeeeee;fill-opacity:1;fill-rule:nonzero;stroke:none" d="m 4,28.8423 c -1.016,0 -1.842,-0.826 -1.842,-1.842 v -18 c 0,-1.016 0.826,-1.843 1.842,-1.843 h 28 c 1.016,0 1.843,0.827 1.843,1.843 v 18 c 0,1.016 -0.827,1.842 -1.843,1.842 z"/></g><g id="g32"><path id="path34" style="fill:#ffcc00;fill-opacity:1;fill-rule:nonzero;stroke:none" d="M 27.35,26 H 8.65 V 9.999 h 18.7 z"/></g><g id="g36"><path id="path38" style="fill:#cc0033;fill-opacity:1;fill-rule:nonzero;stroke:none" d="m 26.6572,11.6689 c 0,0 -0.02,-0.104 -0.122,-0.175 -0.088,-0.06 -0.205,-0.038 -0.205,-0.038 0,0 -0.019,0.251 -0.603,0.734 -0.583,0.483 -0.982,0.36 -0.982,0.36 0,0 -0.124,-0.4 0.359,-0.984 0.484,-0.583 0.735,-0.602 0.735,-0.602 0,0 0.022,-0.117 -0.039,-0.204 -0.072,-0.103 -0.175,-0.123 -0.175,-0.123 h -15.25 c 0,0 -0.104,0.02 -0.175,0.123 -0.061,0.087 -0.039,0.204 -0.039,0.204 0,0 0.251,0.019 0.734,0.602 0.484,0.584 0.36,0.984 0.36,0.984 0,0 -0.399,0.123 -0.983,-0.36 -0.583,-0.483 -0.602,-0.734 -0.602,-0.734 0,0 -0.117,-0.022 -0.205,0.038 -0.102,0.071 -0.122,0.175 -0.122,0.175 v 12.662 c 0,0 0.02,0.103 0.122,0.174 0.088,0.061 0.205,0.039 0.205,0.039 0,0 0.019,-0.251 0.602,-0.734 0.584,-0.483 0.983,-0.36 0.983,-0.36 0,0 0.124,0.4 -0.36,0.983 -0.483,0.584 -0.734,0.602 -0.734,0.602 0,0 -0.022,0.117 0.039,0.205 0.071,0.103 0.175,0.122 0.175,0.122 h 15.25 c 0,0 0.103,-0.019 0.175,-0.122 0.061,-0.088 0.039,-0.205 0.039,-0.205 0,0 -0.251,-0.018 -0.735,-0.602 -0.483,-0.583 -0.359,-0.983 -0.359,-0.983 0,0 0.399,-0.123 0.982,0.36 0.584,0.483 0.603,0.734 0.603,0.734 0,0 0.117,0.022 0.205,-0.039 0.102,-0.071 0.122,-0.174 0.122,-0.174 z"/></g><g id="g40"><path id="path42" style="fill:#ffcc00;fill-opacity:1;fill-rule:nonzero;stroke:none" d="m 13.3364,22.3813 c 0,0 -0.875,-0.668 -0.941,-2.24 -0.056,-1.339 0.709,-2.121 0.709,-2.121 0,0 0.022,0.05 0.088,0.104 0.065,0.053 0.163,0.053 0.163,0.053 0,0 -0.245,0.154 0,0.423 0.245,0.27 0.853,0.104 0.853,-0.436 0,-0.458 -0.398,-0.593 -0.398,-0.593 0,0 0.226,-0.109 0.511,-0.232 0.286,-0.123 0.508,-0.276 0.508,-0.276 0,0 -0.028,0.298 -0.022,0.552 0.007,0.254 0.076,0.349 0.076,0.349 0,0 -0.242,0.046 -0.179,0.341 0.063,0.295 0.157,0.305 0.298,0.459 0.141,0.153 0.038,0.32 0.038,0.32 0,0 -0.094,-0.218 -0.327,-0.342 -0.201,-0.108 -0.497,0.048 -0.497,0.048 0,0 0.058,0.174 0.187,0.24 0.128,0.066 0.185,0.242 0.185,0.242 0,0 -0.154,-0.107 -0.48,-0.085 -0.327,0.022 -0.349,0.267 -0.349,0.267 0,0 0.142,-0.022 0.317,-0.007 0.176,0.016 0.264,0.079 0.264,0.079 0,0 -0.599,-0.063 -0.687,0.141 -0.088,0.204 0.157,0.43 0.157,0.43 0,0 0.337,-0.32 0.75,-0.1 0.335,0.178 0.355,0.552 0.207,0.602 -0.348,0.116 -0.59,-0.251 -0.59,-0.251 0,0 -0.088,0.009 -0.157,0.179 -0.069,0.169 -0.057,0.311 -0.057,0.311 0,0 -0.593,-0.167 -0.539,0.36 0.091,0.891 0.903,0.621 0.903,0.621 0,0 0.327,0.345 0.973,0.527 0.646,0.182 1.17,0.176 1.17,0.176 0,0 -0.041,0.104 0.132,0.226 0.172,0.122 0.238,0.474 0.238,0.474 0,0 0.094,-0.279 0.339,-0.377 0.446,-0.179 0.157,-0.593 0.157,-0.593 0,0 0.041,0.013 0.129,0.013 0.087,0 0.125,-0.022 0.125,-0.022 0,0 0.003,0.147 0.085,0.22 0.081,0.071 0.122,0.307 0.122,0.307 0,0 0.032,-0.019 0.066,-0.063 0.035,-0.044 0.05,-0.129 0.05,-0.129 0,0 0.17,0.182 0.499,0.311 0.33,0.129 0.609,0.072 0.609,0.072 0,0 -0.01,-0.323 -0.107,-0.533 -0.097,-0.21 -0.345,-0.401 -0.345,-0.401 0,0 0.078,-0.004 0.138,-0.029 0.059,-0.025 0.113,-0.094 0.113,-0.094 0,0 -0.267,-0.047 -0.405,-0.185 -0.138,-0.138 -0.304,-0.172 -0.304,-0.172 0,0 0.031,-0.073 0.129,-0.161 0.097,-0.088 0.235,-0.178 0.235,-0.178 0,0 -0.223,-0.11 -0.327,-0.38 -0.103,-0.27 -0.438,-0.637 -0.438,-0.637 0,0 0.159,-0.069 0.29,-0.176 0.13,-0.106 0.265,-0.254 0.265,-0.254 0,0 0.025,0.248 0.288,0.452 0.264,0.204 0.854,0.242 0.831,-0.423 -0.014,-0.467 -0.774,-0.804 -0.774,-0.804 0,0 1.036,-0.141 1.884,0.35 1.03,0.598 2.696,-0.042 2.696,-0.042 0,0 0.349,0.151 0.349,0.433 0,0.326 -0.239,0.571 -0.872,0.571 -1.064,0 -1.262,-0.367 -2.06,-0.367 -0.656,0 -1.332,0.649 -1.332,1.032 0,0.382 0.251,0.411 0.661,0.985 0.353,0.493 0.807,0.42 0.807,0.42 0,0 0.292,0.559 1.929,-0.02 0.844,-0.299 1.252,-0.457 1.379,-0.231 0.18,0.32 -0.173,0.326 -0.173,0.326 0,0 -0.151,0.342 0.38,0.342 0.233,0 0.385,-0.237 0.385,-0.505 0,-0.351 -0.427,-0.412 -0.521,-0.487 -0.091,-0.073 -0.161,-0.419 -1.144,-0.08 -0.34,0.117 -0.828,0.216 -0.828,0.216 0,0 -0.315,-0.461 -0.71,-0.461 -0.264,0 -0.509,0.198 -0.833,0.198 -0.188,0 -0.712,-0.413 -0.749,-0.48 -0.174,-0.321 0.108,-0.513 0.108,-0.513 0,0 -0.013,0.272 0.085,0.338 0.134,0.09 0.311,-0.056 0.424,0.015 0.112,0.07 -0.085,0.136 -0.085,0.136 0,0 -0.09,0.249 0.212,0.249 0.301,0 0.403,-0.319 0.296,-0.564 -0.132,-0.301 -0.442,-0.4 -0.442,-0.4 0,0 0.423,-0.155 1.228,0.183 0.805,0.339 2.6,0.168 2.748,-0.819 0.1,-0.654 -0.451,-1.039 -0.451,-1.039 0,0 0.635,-0.419 0.635,-1.135 0,-0.715 -0.381,-0.701 -0.381,-1.115 0,-0.207 0.292,-0.386 0.437,-0.556 0.126,-0.145 0.099,-0.395 0.099,-0.395 0,0 -0.136,0.031 -0.242,-0.027 -0.106,-0.06 -0.162,-0.152 -0.162,-0.152 0,0 0.303,-0.115 0.08,-0.235 -0.224,-0.119 -0.199,-0.177 -0.111,-0.316 0.108,-0.168 0.229,-0.202 0.287,-0.239 0.136,-0.088 0.171,-0.202 0.171,-0.202 0,0 -0.357,0.028 -0.437,-0.182 -0.08,-0.209 -0.275,-0.517 -0.275,-0.517 0,0 -0.224,-0.024 -0.363,0.132 -0.138,0.155 -0.342,0.228 -0.456,0.03 -0.087,-0.151 -0.275,-0.214 -0.275,-0.214 0,0 -0.022,0.127 -0.075,0.219 -0.055,0.092 -0.162,0.12 -0.162,0.12 0,0 0.046,-0.165 -0.164,-0.24 -0.209,-0.075 -0.409,0.094 -0.409,0.094 0,0 0.134,0.08 0.146,0.228 0.012,0.148 0.462,0.504 0.722,0.474 0.262,-0.032 0.593,0.401 0.25,0.952 -0.503,0.809 -1.25,0.833 -1.25,0.833 0,0 0.45,-0.463 0.45,-0.76 0,-0.297 -0.532,-0.518 -0.532,-0.816 0,-0.128 0.182,-0.09 0.269,-0.134 0.117,-0.057 0.173,-0.188 0.173,-0.188 0,0 -0.348,0.035 -0.444,-0.094 -0.191,-0.261 -0.544,-0.524 -0.544,-0.524 0,0 -0.184,-0.033 -0.327,0.185 -0.1,0.154 -0.215,0.171 -0.336,0.116 -0.155,-0.07 -0.272,-0.292 -0.272,-0.292 0,0 -0.142,0.226 -0.282,0.147 -0.142,-0.078 -0.223,-0.251 -0.223,-0.251 0,0 -0.436,0.381 -0.092,0.835 0.502,0.662 0.784,0.091 0.989,0.091 0.204,0 0.477,0.537 0.458,0.779 -0.019,0.241 -0.245,0.197 -0.612,0.504 -0.367,0.308 -0.574,0.54 -0.574,0.54 0,0 -0.298,-0.279 -0.778,-0.42 -0.48,-0.141 -0.988,-0.085 -0.988,-0.085 0,0 -0.072,-0.128 -0.267,-0.323 -0.195,-0.195 -0.37,-0.304 -0.37,-0.304 0,0 0.037,-0.154 -0.119,-0.333 -0.157,-0.179 -0.33,-0.317 -0.33,-0.317 0,0 0.367,-0.122 0.367,-0.307 0,-0.185 -0.448,-0.322 -0.806,-0.256 -0.357,0.066 -0.654,0.023 -0.654,0.023 0,0 0.002,-0.078 -0.036,-0.179 -0.038,-0.1 -0.166,-0.238 -0.166,-0.238 0,0 -0.217,0.034 -0.248,0.214 -0.032,0.179 -0.107,0.223 -0.107,0.223 0,0 -0.013,-0.28 -0.141,-0.261 -0.129,0.019 -0.267,-0.094 -0.267,-0.094 0,0 -0.072,0.107 0.016,0.213 0.088,0.107 -0.022,0.361 0.132,0.492 0.154,0.132 0.624,0.255 0.734,0.114 0.11,-0.141 0.392,-0.085 0.392,-0.085 0,0 -0.05,0.151 -0.022,0.392 0.028,0.241 -0.085,0.332 -0.085,0.332 0,0 0.091,0.148 0.1,0.455 0.01,0.308 0.114,0.418 0.493,0.362 0.38,-0.057 0.735,0.062 0.735,0.062 0,0 -0.901,0.169 -1.252,-0.057 -0.352,-0.225 -0.401,-0.594 -0.888,-0.621 -0.345,-0.018 -0.562,0.259 -0.869,0.433 -0.322,0.183 -0.621,0.264 -0.621,0.264 0,0 -0.007,-0.179 -0.135,-0.311 -0.129,-0.132 -0.32,-0.2 -0.32,-0.2 0,0 0.063,-0.189 0,-0.289 -0.063,-0.101 -0.179,-0.075 -0.179,-0.075 0,0 0.1,-0.285 -0.182,-0.393 -0.297,-0.111 -0.443,0.148 -0.443,0.148 0,0 0.042,-0.291 -0.451,-0.267 -0.369,0.019 -0.446,0.295 -0.446,0.295 0,0 -0.009,-0.16 -0.332,-0.141 -0.182,0.011 -0.264,0.125 -0.264,0.125 0,0 -0.222,-0.021 -0.242,0.167 -0.018,0.188 0.211,0.229 0.339,0.42 0.129,0.192 0.468,0.107 0.468,0.107 0,0 -0.05,0.087 -0.06,0.17 -0.009,0.081 0.003,0.228 0.003,0.228 0,0 -0.138,0.072 -0.175,0.186 -0.038,0.112 0.044,0.295 0.044,0.295 0,0 -0.22,0.068 -0.254,0.288 -0.035,0.219 0.354,0.408 0.354,0.408 0,0 -0.072,0.021 -0.103,0.082 -0.03,0.061 0.022,0.183 0.022,0.183 0,0 -0.516,0.913 -0.198,2.549 0.383,1.97 1.788,2.24 1.788,2.24"/></g><g id="g44"><path id="path46" style="fill:#cc0033;fill-opacity:1;fill-rule:nonzero;stroke:none" d="m 32.7793,14.3994 c 0,1.206 -0.979,2.185 -2.185,2.185 -1.206,0 -2.183,-0.979 -2.183,-2.185 0,-1.206 0.977,-2.184 2.183,-2.184 1.206,0 2.185,0.978 2.185,2.184"/><path id="path48" style="fill:#cc0033;fill-opacity:1;fill-rule:nonzero;stroke:none" d="m 32.7793,21.5996 c 0,1.207 -0.979,2.184 -2.185,2.184 -1.206,0 -2.183,-0.977 -2.183,-2.184 0,-1.206 0.977,-2.184 2.183,-2.184 1.206,0 2.185,0.978 2.185,2.184"/><path id="path50" style="fill:#eeeeee;fill-opacity:1;fill-rule:nonzero;stroke:none" d="m 32.5605,14.3994 c 0,1.086 -0.88,1.966 -1.966,1.966 -1.085,0 -1.966,-0.88 -1.966,-1.966 0,-1.085 0.881,-1.965 1.966,-1.965 1.086,0 1.966,0.88 1.966,1.965"/><path id="path52" style="fill:#eeeeee;fill-opacity:1;fill-rule:nonzero;stroke:none" d="m 32.5605,21.5996 c 0,1.085 -0.88,1.966 -1.966,1.966 -1.085,0 -1.966,-0.881 -1.966,-1.966 0,-1.085 0.881,-1.965 1.966,-1.965 1.086,0 1.966,0.88 1.966,1.965"/><path id="path54" style="fill:#cc0033;fill-opacity:1;fill-rule:nonzero;stroke:none" d="m 31.873,14.3994 c 0,0.706 -0.572,1.278 -1.278,1.278 -0.705,0 -1.278,-0.572 -1.278,-1.278 0,-0.705 0.573,-1.277 1.278,-1.277 0.706,0 1.278,0.572 1.278,1.277"/><path id="path56" style="fill:#cc0033;fill-opacity:1;fill-rule:nonzero;stroke:none" d="m 31.873,21.5996 c 0,0.706 -0.572,1.278 -1.278,1.278 -0.705,0 -1.278,-0.572 -1.278,-1.278 0,-0.706 0.573,-1.277 1.278,-1.277 0.706,0 1.278,0.571 1.278,1.277"/><path id="path58" style="fill:#ffcc00;fill-opacity:1;fill-rule:nonzero;stroke:none" d="m 7.5859,14.3994 c 0,1.206 -0.978,2.185 -2.184,2.185 -1.206,0 -2.184,-0.979 -2.184,-2.185 0,-1.206 0.978,-2.184 2.184,-2.184 1.206,0 2.184,0.978 2.184,2.184"/><path id="path60" style="fill:#ffcc00;fill-opacity:1;fill-rule:nonzero;stroke:none" d="m 7.5859,21.5996 c 0,1.207 -0.978,2.184 -2.184,2.184 -1.206,0 -2.184,-0.977 -2.184,-2.184 0,-1.206 0.978,-2.184 2.184,-2.184 1.206,0 2.184,0.978 2.184,2.184"/><path id="path62" style="fill:#cc0033;fill-opacity:1;fill-rule:nonzero;stroke:none" d="m 6.7124,14.3994 c 0,0.724 -0.587,1.311 -1.311,1.311 -0.723,0 -1.31,-0.587 -1.31,-1.311 0,-0.724 0.587,-1.311 1.31,-1.311 0.724,0 1.311,0.587 1.311,1.311"/><path id="path64" style="fill:#cc0033;fill-opacity:1;fill-rule:nonzero;stroke:none" d="m 6.7124,21.5996 c 0,0.724 -0.587,1.311 -1.311,1.311 -0.723,0 -1.31,-0.587 -1.31,-1.311 0,-0.724 0.587,-1.31 1.31,-1.31 0.724,0 1.311,0.586 1.311,1.31"/><path id="path66" style="fill:#eeeeee;fill-opacity:1;fill-rule:nonzero;stroke:none" d="m 6.4502,14.3994 c 0,0.579 -0.469,1.049 -1.048,1.049 -0.579,0 -1.049,-0.47 -1.049,-1.049 0,-0.579 0.47,-1.048 1.049,-1.048 0.579,0 1.048,0.469 1.048,1.048"/><path id="path68" style="fill:#eeeeee;fill-opacity:1;fill-rule:nonzero;stroke:none" d="m 6.4502,21.5996 c 0,0.579 -0.469,1.048 -1.048,1.048 -0.579,0 -1.049,-0.469 -1.049,-1.048 0,-0.579 0.47,-1.048 1.049,-1.048 0.579,0 1.048,0.469 1.048,1.048"/></g></g></g></g></svg>