<svg xmlns:dc="http://purl.org/dc/elements/1.1/" xmlns:cc="http://creativecommons.org/ns#" xmlns:rdf="http://www.w3.org/1999/02/22-rdf-syntax-ns#" xmlns:svg="http://www.w3.org/2000/svg" xmlns="http://www.w3.org/2000/svg" viewBox="0 0 45 45" style="enable-background:new 0 0 45 45;" xml:space="preserve" version="1.1" id="svg2"><metadata id="metadata8"><rdf:RDF><cc:Work rdf:about=""><dc:format>image/svg+xml</dc:format><dc:type rdf:resource="http://purl.org/dc/dcmitype/StillImage"/></cc:Work></rdf:RDF></metadata><defs id="defs6"><clipPath id="clipPath16" clipPathUnits="userSpaceOnUse"><path id="path18" d="M 0,36 36,36 36,0 0,0 0,36 Z"/></clipPath></defs><g transform="matrix(1.25,0,0,-1.25,0,45)" id="g10"><g id="g12"><g xmlns="http://www.w3.org/2000/svg" clip-path="url(#clipPath16)" id="g14"><g id="g20"><path id="path22" style="fill:#da121a;fill-opacity:1;fill-rule:nonzero;stroke:none" d="M 0,18 V 9 C 0,6.791 1.791,5 4,5 h 28 c 2.209,0 4,1.791 4,4 v 9 z"/></g><g id="g24"><path id="path26" style="fill:#fcdd09;fill-opacity:1;fill-rule:nonzero;stroke:none" d="m 36,18 v 9 c 0,2.209 -1.791,4 -4,4 H 4 C 1.791,31 0,29.209 0,27 v -9 z"/></g><g id="g28"><path id="path30" style="fill:#0f47af;fill-opacity:1;fill-rule:nonzero;stroke:none" d="m 18,11.7607 c 0,0 -1.059,0.792 -3.025,0.792 -0.763,0 -1.14,0.243 -1.466,0.557 -0.707,0.678 -0.707,1.579 -0.707,1.579 v 9.552 c 0,0 0.969,-0.654 2.679,-0.654 1.381,0 2.519,0.639 2.519,0.639 0,0 1.139,-0.639 2.519,-0.639 1.71,0 2.679,0.654 2.679,0.654 v -9.552 c 0,0 0,-0.901 -0.707,-1.579 -0.327,-0.314 -0.703,-0.557 -1.466,-0.557 -1.966,0 -3.025,-0.792 -3.025,-0.792"/></g><g id="g32"><path id="path34" style="fill:#fcdd09;fill-opacity:1;fill-rule:nonzero;stroke:none" d="m 18,13.916 c 0,0 -0.667,0.5 -1.908,0.5 -0.481,0 -0.718,0.153 -0.924,0.351 -0.446,0.427 -0.446,0.995 -0.446,0.995 v 6.143 c 0,0 0.312,-0.192 1.39,-0.192 0.87,0 1.888,0.423 1.888,0.423 0,0 1.018,-0.423 1.888,-0.423 1.078,0 1.39,0.192 1.39,0.192 v -6.143 c 0,0 0,-0.568 -0.446,-0.995 -0.206,-0.198 -0.443,-0.351 -0.925,-0.351 -1.239,0 -1.907,-0.5 -1.907,-0.5"/></g><g id="g36"><path id="path38" style="fill:#000000;fill-opacity:1;fill-rule:nonzero;stroke:none" d="m 17.9346,20.8408 c 0,0.068 -0.053,0.124 -0.117,0.124 -0.065,0 -0.117,-0.056 -0.117,-0.124 0,-0.068 0.052,-0.124 0.117,-0.124 0.064,0 0.117,0.056 0.117,0.124 m 0.43,-0.792 c 0,0 -0.005,-0.152 0.062,-0.266 0.06,-0.101 0.209,-0.194 0.398,-0.089 0.103,0.057 0.124,0.145 0.124,0.145 0,0 0.013,0.419 0.273,0.661 0.202,0.189 0.448,0.187 1.065,0.479 0.664,0.313 0.752,0.507 0.752,0.507 0,0 0.011,-0.563 -0.36,-0.986 -0.389,-0.441 -0.805,-0.56 -0.805,-0.56 0,0 0.234,-0.048 0.636,-0.013 0.403,0.036 0.555,0.14 0.555,0.14 0,0 -0.098,-0.418 -0.49,-0.694 -0.392,-0.277 -0.859,-0.269 -0.859,-0.269 0,0 0.289,-0.108 0.589,-0.179 0.3,-0.071 0.462,-0.066 0.462,-0.066 0,0 -0.17,-0.244 -0.572,-0.404 -0.455,-0.18 -0.816,-0.065 -0.816,-0.065 0,0 0.161,-0.153 0.402,-0.272 0.282,-0.139 0.568,-0.081 0.568,-0.081 0,0 -0.193,-0.223 -0.66,-0.259 -0.408,-0.03 -0.726,0.185 -0.726,0.185 0,0 0.024,-0.159 0.224,-0.357 0.162,-0.161 0.317,-0.227 0.317,-0.227 0,0 -0.262,-0.157 -0.58,-0.085 -0.335,0.076 -0.456,0.315 -0.583,0.256 -0.084,-0.039 -0.053,-0.185 0.177,-0.284 0.129,-0.056 0.337,-0.167 0.504,-0.3 0.196,-0.155 0.291,-0.317 0.291,-0.317 l -0.208,-0.066 c 0,0 0.306,-0.336 0.433,-0.469 0.127,-0.132 0.166,-0.156 0.166,-0.156 0,0 0.179,0.078 0.341,-0.017 0.086,-0.05 0.138,-0.154 0.14,-0.224 0.002,-0.062 -0.041,-0.094 -0.041,-0.094 0,0 0.005,-0.092 -0.044,-0.151 -0.058,-0.071 -0.125,-0.044 -0.125,-0.044 0,0 -0.076,-0.09 -0.206,-0.079 -0.13,0.011 -0.195,0.128 -0.195,0.128 0,0 0.042,0.008 0.088,0.028 0.044,0.021 0.057,0.05 0.057,0.05 0,0 -0.156,0.044 -0.189,0.115 -0.015,0.034 0.015,0.078 0.015,0.078 l -10e-4,0.031 c 0,0 -0.109,0.115 -0.389,0.274 -0.121,0.069 -0.345,0.231 -0.345,0.231 l -0.058,-0.206 c 0,0 -0.08,0.105 -0.207,0.194 -0.126,0.09 -0.235,0.105 -0.235,0.105 0,0 0.119,-0.145 0.2,-0.408 0.1,-0.326 0.034,-0.63 0.034,-0.63 0,0 -0.06,0.109 -0.166,0.151 -0.096,0.039 -0.146,0.028 -0.146,0.028 0,0 0.182,-0.312 0.04,-0.766 -0.1,-0.321 -0.272,-0.583 -0.272,-0.583 0,0 -0.171,0.262 -0.272,0.583 -0.142,0.454 0.041,0.766 0.041,0.766 0,0 -0.05,0.011 -0.146,-0.028 -0.106,-0.042 -0.167,-0.151 -0.167,-0.151 0,0 -0.065,0.304 0.035,0.63 0.081,0.263 0.2,0.408 0.2,0.408 0,0 -0.11,-0.015 -0.236,-0.105 -0.126,-0.089 -0.206,-0.194 -0.206,-0.194 l -0.058,0.206 c 0,0 -0.224,-0.162 -0.345,-0.231 -0.28,-0.159 -0.39,-0.274 -0.39,-0.274 l -0.001,-0.031 c 0,0 0.031,-0.044 0.016,-0.078 -0.033,-0.071 -0.189,-0.115 -0.189,-0.115 0,0 0.012,-0.029 0.057,-0.05 0.046,-0.02 0.088,-0.028 0.088,-0.028 0,0 -0.066,-0.117 -0.195,-0.128 -0.13,-0.011 -0.207,0.079 -0.207,0.079 0,0 -0.067,-0.027 -0.125,0.044 -0.048,0.059 -0.043,0.151 -0.043,0.151 0,0 -0.043,0.032 -0.041,0.094 0.002,0.07 0.053,0.174 0.139,0.224 0.163,0.095 0.342,0.017 0.342,0.017 0,0 0.039,0.024 0.166,0.156 0.127,0.133 0.433,0.469 0.433,0.469 l -0.208,0.066 c 0,0 0.095,0.162 0.29,0.317 0.168,0.133 0.376,0.244 0.505,0.3 0.23,0.099 0.261,0.245 0.177,0.284 -0.127,0.059 -0.248,-0.18 -0.583,-0.256 -0.317,-0.072 -0.58,0.085 -0.58,0.085 0,0 0.155,0.066 0.317,0.227 0.2,0.198 0.224,0.357 0.224,0.357 0,0 -0.317,-0.215 -0.726,-0.185 -0.466,0.036 -0.661,0.259 -0.661,0.259 0,0 0.286,-0.058 0.569,0.081 0.241,0.119 0.402,0.272 0.402,0.272 0,0 -0.361,-0.115 -0.816,0.065 -0.402,0.16 -0.572,0.404 -0.572,0.404 0,0 0.161,-0.005 0.462,0.066 0.3,0.071 0.589,0.179 0.589,0.179 0,0 -0.467,-0.008 -0.859,0.269 -0.392,0.276 -0.491,0.694 -0.491,0.694 0,0 0.154,-0.104 0.556,-0.14 0.402,-0.035 0.635,0.013 0.635,0.013 0,0 -0.416,0.119 -0.804,0.56 -0.371,0.423 -0.361,0.986 -0.361,0.986 0,0 0.089,-0.194 0.753,-0.507 0.617,-0.292 0.893,-0.29 1.095,-0.479 0.259,-0.242 0.273,-0.661 0.273,-0.661 0,0 0.02,-0.088 0.124,-0.145 0.189,-0.105 0.329,-0.022 0.388,0.079 0.039,0.067 0.069,0.14 0.069,0.325 0,0.241 0.028,0.462 0.028,0.462 0,0 -0.073,0.052 -0.228,0.052 -0.116,0 -0.191,-0.026 -0.191,-0.026 0,0 -0.017,0.174 0.02,0.333 0.032,0.133 0.131,0.2 0.316,0.2 h 0.511 c 0.17,0 0.271,-0.159 0.271,-0.538 0,-0.271 -0.025,-0.304 -0.025,-0.532"/></g><g id="g40"><path id="path42" style="fill:#000000;fill-opacity:1;fill-rule:nonzero;stroke:none" d="m 17.7139,21.2432 -0.27,0.408 0.413,-0.156 0.143,0.389 0.144,-0.389 0.413,0.156 -0.271,-0.408 z"/></g></g></g></g></svg>