<svg xmlns:dc="http://purl.org/dc/elements/1.1/" xmlns:cc="http://creativecommons.org/ns#" xmlns:rdf="http://www.w3.org/1999/02/22-rdf-syntax-ns#" xmlns:svg="http://www.w3.org/2000/svg" xmlns="http://www.w3.org/2000/svg" viewBox="0 0 45 45" style="enable-background:new 0 0 45 45;" xml:space="preserve" version="1.1" id="svg2"><metadata id="metadata8"><rdf:RDF><cc:Work rdf:about=""><dc:format>image/svg+xml</dc:format><dc:type rdf:resource="http://purl.org/dc/dcmitype/StillImage"/></cc:Work></rdf:RDF></metadata><defs id="defs6"><clipPath id="clipPath16" clipPathUnits="userSpaceOnUse"><path id="path18" d="M 0,36 36,36 36,0 0,0 0,36 Z"/></clipPath></defs><g transform="matrix(1.25,0,0,-1.25,0,45)" id="g10"><g id="g12"><g xmlns="http://www.w3.org/2000/svg" clip-path="url(#clipPath16)" id="g14"><g id="g20"><path id="path22" style="fill:#0900bd;fill-opacity:1;fill-rule:nonzero;stroke:none" d="M 0,9 C 0,6.791 1.791,5 4,5 l 28,0 c 2.209,0 4,1.791 4,4 l 0,18 c 0,2.209 -1.791,4 -4,4 L 4,31 C 1.791,31 0,29.209 0,27 L 0,9 z"/></g><g id="g24"><path id="path26" style="fill:#fff202;fill-opacity:1;fill-rule:nonzero;stroke:none" d="m 18.5859,10.8447 c 0,-0.267 0.103,-0.553 0.404,-0.553 0.522,0 1.463,1.586 3.816,1.586 1.011,0 2.377,-0.425 3.788,-0.425 1.965,0 4.106,1.506 4.106,3.835 0,2.33 -1.811,3.836 -3.894,3.836 -1.937,0 -3.934,-1.372 -5.436,-3.083 -1.699,-1.936 -2.784,-4.376 -2.784,-5.196"/><path id="path28" style="fill:#fff202;fill-opacity:1;fill-rule:nonzero;stroke:none" d="m 17.4136,10.8447 c 0,-0.267 -0.102,-0.553 -0.404,-0.553 -0.521,0 -1.463,1.586 -3.815,1.586 -1.012,0 -2.377,-0.425 -3.789,-0.425 -1.964,0 -4.106,1.506 -4.106,3.835 0,2.33 1.812,3.836 3.895,3.836 1.936,0 3.933,-1.372 5.435,-3.083 1.7,-1.936 2.784,-4.376 2.784,-5.196"/><path id="path30" style="fill:#ffffff;fill-opacity:1;fill-rule:nonzero;stroke:none" d="m 17.9902,24.564 c 0,0 0.698,1.099 2.428,1.099 1.133,0 2.054,-0.391 2.773,-1.195 0.734,-0.819 1.086,-1.891 0.969,-2.943 -0.176,-1.593 -1.15,-2.566 -2.87,-4.077 -1.047,-0.92 -1.65,-1.717 -2.228,-2.646 -0.578,-0.93 -0.586,-1.488 -1.072,-1.488 -0.486,0 -0.494,0.558 -1.072,1.488 -0.578,0.929 -1.181,1.726 -2.228,2.646 -1.72,1.511 -2.694,2.484 -2.87,4.077 -0.117,1.052 0.235,2.124 0.969,2.943 0.719,0.804 1.64,1.195 2.773,1.195 1.73,0 2.428,-1.099 2.428,-1.099"/><path id="path32" style="fill:#b9b9bc;fill-opacity:1;fill-rule:nonzero;stroke:none" d="m 18,15.002 c 0,0 -0.759,1.851 -2.559,3.333 -1.8,1.483 -2.341,2.259 -2.459,3.318 -0.163,1.474 1.047,2.93 2.601,2.93 1.741,0 2.417,-1.671 2.417,-1.671 0,0 0.677,1.671 2.418,1.671 1.553,0 2.764,-1.456 2.6,-2.93 C 22.9,20.594 22.358,19.818 20.559,18.335 18.759,16.853 18,15.002 18,15.002"/></g></g></g></g></svg>