<svg xmlns:dc="http://purl.org/dc/elements/1.1/" xmlns:cc="http://creativecommons.org/ns#" xmlns:rdf="http://www.w3.org/1999/02/22-rdf-syntax-ns#" xmlns:svg="http://www.w3.org/2000/svg" xmlns="http://www.w3.org/2000/svg" viewBox="0 0 45 45" style="enable-background:new 0 0 45 45;" xml:space="preserve" version="1.1" id="svg2"><metadata id="metadata8"><rdf:RDF><cc:Work rdf:about=""><dc:format>image/svg+xml</dc:format><dc:type rdf:resource="http://purl.org/dc/dcmitype/StillImage"/></cc:Work></rdf:RDF></metadata><defs id="defs6"><clipPath id="clipPath16" clipPathUnits="userSpaceOnUse"><path id="path18" d="M 4,31 C 1.791,31 0,29.209 0,27 L 0,27 0,9 C 0,6.791 1.791,5 4,5 l 0,0 28,0 c 2.209,0 4,1.791 4,4 l 0,0 0,18 c 0,2.209 -1.791,4 -4,4 l 0,0 -28,0 z"/></clipPath></defs><g transform="matrix(1.25,0,0,-1.25,0,45)" id="g10"><g id="g12"><g xmlns="http://www.w3.org/2000/svg" clip-path="url(#clipPath16)" id="g14"><g id="g30"><path id="path20" style="fill:#141414;fill-opacity:1;fill-rule:nonzero;stroke:none" d="m 0,5 36,0 0,25.999 -36,0 L 0,5 z"/><path id="path21" style="fill:#ff0000;fill-opacity:1;fill-rule:nonzero;stroke:none" d="M 36,30.999 36,18 0,18 0,31 36,30.999 z"/></g><g id="g34"><path id="path30" style="fill:#ffc726;fill-opacity:1;fill-rule:nonzero;stroke:none" d="M 0,31 12.169,18 0,5 18,18 0,31 z"/><path id="path31" style="fill:#141414;fill-opacity:1;fill-rule:nonzero;stroke:none" d="M 0,31 0,5 12.169,18 0,31 z"/><path id="path32" style="fill:#ffffff;fill-opacity:1;fill-rule:nonzero;stroke:none" d="m 5.6758,16.7891 2.935,-0.487 -2.088,2.119 1.371,2.64 -2.661,-1.33 -2.088,2.12 0.443,-2.942 -2.661,-1.33 2.936,-0.488 0.442,-2.943 1.371,2.641 z"/></g><g id="g38"><path id="path40" style="fill:#cc6633;fill-opacity:1;fill-rule:nonzero;stroke:none" d="m 16.9844,13.2188 c 0,0 -0.5,-0.375 -0.297,-0.75 0.203,-0.375 0.75,0.266 0.75,0.266 0,0 0.469,0.468 1.578,0.875 1.11,0.406 3.094,1.203 3.094,1.203 0,0 3.203,-0.672 4.844,-0.625 1.64,0.047 2.75,1.297 2.75,1.297 0,0 -1.288,-0.576 -2.485,-0.641 -1.196,-0.065 -2.672,0.312 -3.547,0.438 -0.875,0.125 -1.468,0 -1.468,0 0,0 0.765,0.875 1.422,1.078 0.656,0.203 2.187,0.468 3.031,0.797 0.844,0.328 3.641,0.734 3.641,0.734 0,0 -1.391,0.234 -2.579,-0.141 -1.187,-0.375 -3.547,-0.718 -3.547,-0.718 0,0 0.654,0.965 0.891,1.14 0.237,0.175 2.328,0.594 3.625,1.313 1.297,0.718 1.819,1.118 2.578,1.421 0.759,0.304 1.453,0.469 1.453,0.469 0,0 -1.142,0.224 -2.828,-0.672 -1.685,-0.895 -2.093,-1.218 -3,-1.359 -0.906,-0.141 -1.718,-0.578 -1.718,-0.578 0,0 0.442,1.663 1.25,2.634 0.807,0.971 3.677,2.633 3.677,2.633 0,0 -0.677,-0.048 -1.834,-0.798 -1.156,-0.75 -2.125,-1.547 -2.64,-2.219 -0.516,-0.672 -0.502,-1.534 -1.125,-2.469 -1.125,-1.687 -2.844,-2.687 -2.844,-2.687 0,0 0.187,2.359 0.719,3.843 0.531,1.485 0.831,1.872 0.831,1.872 0,0 -0.925,-0.247 -1.613,-2.934 -0.687,-2.688 -0.765,-3.281 -0.765,-3.281 0,0 -0.547,-0.141 -1.922,-0.954 -1.375,-0.812 -1.922,-1.187 -1.922,-1.187"/><path id="path41" style="fill:#e50000;fill-opacity:1;fill-rule:nonzero;stroke:none" d="m 22.2393,17.2539 c -0.056,0.352 -0.475,0.577 -0.937,0.505 -0.461,-0.072 -0.792,-0.415 -0.737,-0.766 0.055,-0.351 0.474,-0.577 0.936,-0.505 0.463,0.073 0.793,0.415 0.738,0.766"/><path id="path42" style="fill:#e50000;fill-opacity:1;fill-rule:nonzero;stroke:none" d="m 25.2051,14.9014 c 0.067,-0.322 -0.226,-0.656 -0.653,-0.746 -0.429,-0.089 -0.83,0.1 -0.898,0.422 -0.067,0.322 0.225,0.656 0.654,0.745 0.427,0.09 0.83,-0.099 0.897,-0.421"/><path id="path43" style="fill:#e50000;fill-opacity:1;fill-rule:nonzero;stroke:none" d="m 26.0176,17.1152 c -0.056,-0.359 -0.261,-0.626 -0.457,-0.596 -0.197,0.031 -0.312,0.347 -0.256,0.706 0.055,0.36 0.26,0.627 0.457,0.597 0.196,-0.031 0.312,-0.347 0.256,-0.707"/><path id="path44" style="fill:#e50000;fill-opacity:1;fill-rule:nonzero;stroke:none" d="m 27.8809,17.7583 c 0.174,-0.232 0.174,-0.526 0.001,-0.656 -0.174,-0.13 -0.455,-0.046 -0.629,0.187 -0.174,0.232 -0.175,0.525 -0.001,0.655 0.174,0.13 0.455,0.046 0.629,-0.186"/><path id="path45" style="fill:#e50000;fill-opacity:1;fill-rule:nonzero;stroke:none" d="m 27.4492,14.4482 c -0.044,-0.312 -0.258,-0.541 -0.479,-0.51 -0.219,0.031 -0.361,0.31 -0.317,0.623 0.044,0.313 0.259,0.541 0.479,0.51 0.219,-0.031 0.362,-0.31 0.317,-0.623"/><path id="path46" style="fill:#e50000;fill-opacity:1;fill-rule:nonzero;stroke:none" d="m 22.875,19.6157 c 0.015,-0.24 -0.316,-0.455 -0.737,-0.479 -0.422,-0.025 -0.776,0.149 -0.789,0.389 -0.015,0.24 0.315,0.454 0.737,0.479 0.422,0.026 0.775,-0.149 0.789,-0.389"/><path id="path47" style="fill:#e50000;fill-opacity:1;fill-rule:nonzero;stroke:none" d="m 26.418,21.5713 c 0.157,-0.254 0.105,-0.571 -0.115,-0.708 -0.221,-0.137 -0.528,-0.042 -0.686,0.212 -0.157,0.254 -0.105,0.572 0.115,0.708 0.222,0.137 0.529,0.042 0.686,-0.212"/><path id="path48" style="fill:#e50000;fill-opacity:1;fill-rule:nonzero;stroke:none" d="m 28.3896,19.3633 c -0.046,-0.309 -0.285,-0.529 -0.536,-0.493 -0.251,0.037 -0.417,0.317 -0.372,0.625 0.045,0.309 0.285,0.53 0.535,0.493 0.251,-0.037 0.418,-0.316 0.373,-0.625"/><path id="path49" style="fill:#e50000;fill-opacity:1;fill-rule:nonzero;stroke:none" d="m 30.8223,20.6563 c 0.095,-0.29 0.007,-0.58 -0.197,-0.646 -0.203,-0.067 -0.446,0.114 -0.541,0.404 -0.095,0.29 -0.007,0.579 0.196,0.646 0.204,0.067 0.446,-0.113 0.542,-0.404"/><path id="path50" style="fill:#e50000;fill-opacity:1;fill-rule:nonzero;stroke:none" d="m 29.2295,23.9121 c 0.137,-0.182 0.036,-0.487 -0.224,-0.683 -0.259,-0.194 -0.581,-0.205 -0.717,-0.024 -0.136,0.183 -0.037,0.488 0.223,0.683 0.26,0.195 0.581,0.206 0.718,0.024"/><path id="path51" style="fill:#009900;fill-opacity:1;fill-rule:nonzero;stroke:none" d="m 29.4805,15.335 c 0,0 0.91,-0.078 1.185,0.644 0.274,0.721 0.831,1.058 0.831,1.058 0,0 -0.885,-0.1 -1.49,-0.587 -0.603,-0.486 -0.526,-1.115 -0.526,-1.115"/><path id="path52" style="fill:#009900;fill-opacity:1;fill-rule:nonzero;stroke:none" d="m 31.9277,14.041 c 0,0 -0.902,0.761 -1.482,0.965 -0.581,0.204 -1.381,0 -1.381,0 0,0 -0.032,-0.596 1.043,-0.745 1.075,-0.15 1.82,-0.22 1.82,-0.22"/><path id="path53" style="fill:#009900;fill-opacity:1;fill-rule:nonzero;stroke:none" d="m 29.9746,13.8848 c 0,0 -0.525,0.337 -1.263,0.51 -0.737,0.172 -1.506,0.086 -1.506,0.086 0,0 0.102,-0.565 0.824,-0.879 0.721,-0.314 1.945,0.283 1.945,0.283"/><path id="path54" style="fill:#009900;fill-opacity:1;fill-rule:nonzero;stroke:none" d="m 27.6299,14.6611 c 0,0 0.792,0.187 1.129,0.737 0.337,0.549 0.259,1.404 0.259,1.404 0,0 -0.141,-0.499 -0.8,-0.957 -0.623,-0.433 -0.588,-1.184 -0.588,-1.184"/><path id="path55" style="fill:#009900;fill-opacity:1;fill-rule:nonzero;stroke:none" d="m 25.5273,14.6611 c 0,0 0.51,-0.016 0.941,0.436 0.432,0.45 0.424,0.63 0.392,0.967 -0.031,0.338 0.103,0.738 0.103,0.738 0,0 -0.236,-0.573 -0.769,-0.894 -0.871,-0.525 -0.667,-1.247 -0.667,-1.247"/><path id="path56" style="fill:#009900;fill-opacity:1;fill-rule:nonzero;stroke:none" d="m 26.0059,12.2295 c 0,0 0.36,0.767 0.094,1.281 -0.267,0.515 -1.474,1.151 -1.474,1.151 0,0 0.039,-0.934 0.609,-1.28 0.705,-0.427 0.771,-1.152 0.771,-1.152"/><path id="path57" style="fill:#009900;fill-opacity:1;fill-rule:nonzero;stroke:none" d="m 23.8564,12.6055 c 0,0 0.361,0.871 -0.062,1.514 -0.424,0.643 -1.263,0.918 -1.263,0.918 0,0 -0.204,-0.981 0.682,-1.592 0.44,-0.304 0.643,-0.84 0.643,-0.84"/><path id="path58" style="fill:#009900;fill-opacity:1;fill-rule:nonzero;stroke:none" d="m 23.002,12.6055 c 0,0 -0.055,0.855 -0.69,1.381 -0.453,0.374 -1.459,0.447 -1.459,0.447 0,0 0.161,-0.891 1.047,-1.106 0.843,-0.204 1.102,-0.722 1.102,-0.722"/><path id="path59" style="fill:#009900;fill-opacity:1;fill-rule:nonzero;stroke:none" d="m 23.2559,15.1221 c 0,0 0.758,-0.155 1.425,0.448 0.484,0.44 0.619,0.8 0.619,0.8 0,0 -0.769,0.017 -1.364,-0.306 -0.597,-0.321 -0.68,-0.942 -0.68,-0.942"/><path id="path60" style="fill:#009900;fill-opacity:1;fill-rule:nonzero;stroke:none" d="m 21.2139,15.3506 c 0,0 0.142,0.659 -0.282,1.067 -0.816,0.785 -1.938,0.236 -1.938,0.236 0,0 0.469,-0.101 0.863,-0.558 0.439,-0.51 1.357,-0.745 1.357,-0.745"/><path id="path61" style="fill:#009900;fill-opacity:1;fill-rule:nonzero;stroke:none" d="m 21.1035,17.6255 c 0,0 -0.502,-0.047 -0.682,0.463 -0.18,0.51 0.024,0.729 0.157,0.98 0.133,0.251 0.18,0.62 0.18,0.62 0,0 0.086,-0.291 0.298,-0.636 0.303,-0.492 0.047,-1.427 0.047,-1.427"/><path id="path62" style="fill:#009900;fill-opacity:1;fill-rule:nonzero;stroke:none" d="m 21.6211,16.2842 c 0,0 1.27,-0.028 1.449,0.989 0.128,0.727 0.41,1.011 0.41,1.011 0,0 -0.455,0 -1.128,-0.778 -0.589,-0.682 -0.731,-1.222 -0.731,-1.222"/><path id="path63" style="fill:#009900;fill-opacity:1;fill-rule:nonzero;stroke:none" d="m 23.2559,19.7432 c 0,0 -0.176,-0.384 -0.639,-0.917 -0.379,-0.438 -0.509,-1.357 -0.509,-1.357 0,0 0.821,0.219 1.148,0.886 0.326,0.666 0,1.388 0,1.388"/><path id="path64" style="fill:#009900;fill-opacity:1;fill-rule:nonzero;stroke:none" d="m 21.8809,20.3315 c 0,0 0.399,0.549 0.384,1.325 -0.016,0.777 -0.192,1.161 -0.192,1.161 0,0 -0.649,-0.412 -0.773,-1.106 -0.204,-1.145 0.581,-1.38 0.581,-1.38"/><path id="path65" style="fill:#009900;fill-opacity:1;fill-rule:nonzero;stroke:none" d="m 22.5508,20.041 c 0,0 1.031,-0.188 1.455,0.384 0.424,0.573 0.235,1.012 0.235,1.012 0,0 -0.682,0.047 -1.192,-0.36 -0.51,-0.409 -0.498,-1.036 -0.498,-1.036"/><path id="path66" style="fill:#009900;fill-opacity:1;fill-rule:nonzero;stroke:none" d="m 23.2061,21.5747 c 0,0 0.965,0.035 1.286,0.435 0.321,0.4 0.306,0.863 0.306,0.863 0,0 -0.714,0.055 -1.121,-0.338 -0.409,-0.392 -0.471,-0.96 -0.471,-0.96"/><path id="path67" style="fill:#009900;fill-opacity:1;fill-rule:nonzero;stroke:none" d="m 23.959,17.8452 c 0,0 0.415,0.706 0.557,1.341 0.141,0.636 -0.063,0.826 -0.063,0.826 0,0 -0.581,-0.3 -0.69,-1.093 -0.11,-0.792 0.196,-1.074 0.196,-1.074"/><path id="path68" style="fill:#009900;fill-opacity:1;fill-rule:nonzero;stroke:none" d="m 25.5508,18.7471 c 0,0 0.91,0.196 1.278,0.706 0.369,0.51 0.401,0.761 0.401,0.761 0,0 -0.717,-0.018 -0.995,-0.291 -0.417,-0.407 -0.684,-1.176 -0.684,-1.176"/><path id="path69" style="fill:#009900;fill-opacity:1;fill-rule:nonzero;stroke:none" d="m 24.2773,17.7432 c 0,0 0.288,-0.398 0.905,-0.393 0.308,0.004 0.674,0.291 0.674,0.291 0,0 0.698,-0.172 1.287,0.408 0.497,0.491 0.619,0.879 0.619,0.879 0,0 -0.556,0.046 -1.208,-0.291 -0.65,-0.337 -0.603,-0.533 -0.603,-0.533 0,0 -0.22,0.235 -0.652,0.243 -0.431,0.008 -1.022,-0.604 -1.022,-0.604"/><path id="path70" style="fill:#009900;fill-opacity:1;fill-rule:nonzero;stroke:none" d="m 26.0605,20.8018 c 0,0 0.918,-0.604 1.702,-0.078 0.784,0.525 1.381,0.737 1.381,0.737 0,0 -0.863,0.157 -1.749,0.047 -0.887,-0.11 -1.334,-0.706 -1.334,-0.706"/><path id="path71" style="fill:#009900;fill-opacity:1;fill-rule:nonzero;stroke:none" d="m 26.1396,21.7588 c 0,0 0.619,0.376 0.658,1.067 0.039,0.69 0.362,1.223 0.362,1.223 0,0 -0.711,-0.451 -1.099,-1.059 -0.51,-0.799 0.079,-1.231 0.079,-1.231"/><path id="path72" style="fill:#009900;fill-opacity:1;fill-rule:nonzero;stroke:none" d="m 27.2295,22.3706 c 0,0 0.384,0.18 0.675,0.815 0.29,0.636 0.243,1.083 0.243,1.083 0,0 -0.565,-0.243 -0.824,-0.8 -0.259,-0.557 -0.094,-1.098 -0.094,-1.098"/><path id="path73" style="fill:#009900;fill-opacity:1;fill-rule:nonzero;stroke:none" d="m 27.2842,22.1904 c 0,0 0.887,-0.432 1.537,-0.071 0.651,0.361 1.577,0.204 1.577,0.204 0,0 -0.804,0.492 -1.686,0.455 -1.111,-0.047 -1.428,-0.588 -1.428,-0.588"/><path id="path74" style="fill:#009900;fill-opacity:1;fill-rule:nonzero;stroke:none" d="m 28.9004,23.7588 c 0,0 -0.137,0.753 0.635,1.278 1.082,0.738 1.647,0.565 1.647,0.565 0,0 -0.386,-0.184 -0.926,-0.847 -0.517,-0.635 -1.356,-0.996 -1.356,-0.996"/><path id="path75" style="fill:#009900;fill-opacity:1;fill-rule:nonzero;stroke:none" d="m 30.0996,24.0332 c 0,0 0.84,0.549 1.632,0.235 0.792,-0.313 1.097,-0.384 1.097,-0.384 0,0 -0.478,-0.243 -1.208,-0.251 -0.728,-0.008 -1.521,0.4 -1.521,0.4"/><path id="path76" style="fill:#009900;fill-opacity:1;fill-rule:nonzero;stroke:none" d="m 29.3311,23.4844 c 0,0 0.683,0.353 1.318,0.149 0.635,-0.204 1.396,-0.973 1.396,-0.973 0,0 -0.871,0.052 -1.647,0.251 -1.036,0.267 -1.067,0.573 -1.067,0.573"/><path id="path77" style="fill:#009900;fill-opacity:1;fill-rule:nonzero;stroke:none" d="m 30.7178,20.9194 c 0,0 0.535,0.11 0.802,0.588 0.266,0.479 0.219,0.91 0.219,0.91 0,0 -0.455,-0.01 -0.838,-0.564 -0.338,-0.487 -0.183,-0.934 -0.183,-0.934"/><path id="path78" style="fill:#009900;fill-opacity:1;fill-rule:nonzero;stroke:none" d="m 28.2334,19.7119 c 0,0 0.878,0.143 1.043,0.797 0.165,0.654 0.667,1.124 0.667,1.124 0,0 -1.221,-0.46 -1.601,-1.019 -0.297,-0.44 -0.109,-0.902 -0.109,-0.902"/><path id="path79" style="fill:#009900;fill-opacity:1;fill-rule:nonzero;stroke:none" d="m 28.0527,17.7432 c 0,0 -0.141,0.625 0.675,1.187 0.815,0.562 2.235,0.319 2.235,0.319 0,0 -0.736,-0.188 -1.019,-0.643 -0.441,-0.706 -1.891,-0.863 -1.891,-0.863"/><path id="path80" style="fill:#009900;fill-opacity:1;fill-rule:nonzero;stroke:none" d="m 29.543,17.8452 c 0,0 0.5,0.525 1.67,0.384 0.877,-0.106 1.365,-0.612 1.365,-0.612 0,0 -0.645,0.033 -1.223,-0.141 -1.067,-0.321 -1.812,0.369 -1.812,0.369"/><path id="path81" style="fill:#009900;fill-opacity:1;fill-rule:nonzero;stroke:none" d="m 31.8643,21.2412 c 0,0 0.22,0.479 1.365,0.659 1.145,0.18 1.734,-0.086 1.734,-0.086 0,0 -0.583,-0.119 -0.996,-0.385 -0.792,-0.51 -2.103,-0.188 -2.103,-0.188"/></g></g></g></g></svg>