<svg xmlns:dc="http://purl.org/dc/elements/1.1/" xmlns:cc="http://creativecommons.org/ns#" xmlns:rdf="http://www.w3.org/1999/02/22-rdf-syntax-ns#" xmlns:svg="http://www.w3.org/2000/svg" xmlns="http://www.w3.org/2000/svg" viewBox="0 0 45 45" style="enable-background:new 0 0 45 45;" xml:space="preserve" version="1.1" id="svg2"><metadata id="metadata8"><rdf:RDF><cc:Work rdf:about=""><dc:format>image/svg+xml</dc:format><dc:type rdf:resource="http://purl.org/dc/dcmitype/StillImage"/></cc:Work></rdf:RDF></metadata><defs id="defs6"><clipPath id="clipPath16" clipPathUnits="userSpaceOnUse"><path id="path18" d="M 0,36 36,36 36,0 0,0 0,36 Z"/></clipPath></defs><g transform="matrix(1.25,0,0,-1.25,0,45)" id="g10"><g id="g12"><g xmlns="http://www.w3.org/2000/svg" clip-path="url(#clipPath16)" id="g14"><g id="g30"><path id="path20" style="fill:#eeeeee;fill-opacity:1;fill-rule:nonzero;stroke:none" d="M 32,31 4,31 C 1.791,31 0,29.209 0,27 L 0,9 C 0,6.791 1.791,5 4,5 l 28,0 c 2.209,0 4,1.791 4,4 l 0,18 c 0,2.209 -1.791,4 -4,4"/></g><g id="g34"><path id="path30" style="fill:#005ca2;fill-opacity:1;fill-rule:nonzero;stroke:none" d="m 17.98,9.4258 c 0,0 -0.3,0.451 -1.563,0.757 -1.263,0.305 -2.235,0.917 -2.235,2.745 l 0,6.964 7.596,0 0,-6.964 c 0,-1.828 -0.972,-2.44 -2.235,-2.745 C 18.28,9.8768 17.98,9.4258 17.98,9.4258"/><path id="path31" style="fill:#005ca0;fill-opacity:1;fill-rule:nonzero;stroke:none" d="m 23.7939,15.6582 c 0,0 0.229,-0.876 -0.253,-1.388 -0.482,-0.511 -0.564,-1.212 -0.564,-1.212 0,0 -0.712,0.253 -0.677,1.371 0.035,1.118 1.235,2.359 1.235,2.359 l 0.259,-1.13 z"/><path id="path32" style="fill:#f9c400;fill-opacity:1;fill-rule:nonzero;stroke:none" d="m 23.582,17.1533 c 0,0 0.447,0.07 0.729,-0.518 0.283,-0.588 0.148,-1.129 0.148,-1.129 0,0 -0.671,-0.129 -0.782,0.382 -0.077,0.352 -0.389,0.53 -0.389,0.53 0,0 0.105,-0.589 -0.508,-1.001 -0.665,-0.447 -0.692,-0.8 -0.692,-0.8 0,0 -0.305,0.159 0.006,1.1 0.536,1.618 1.488,1.436 1.488,1.436"/><path id="path33" style="fill:#005ca0;fill-opacity:1;fill-rule:nonzero;stroke:none" d="m 24.3818,25.1567 c 0,0 -0.976,0.673 -1.999,0.673 -0.72,0 -1.224,-0.506 -1.224,-0.506 0,0 0.318,-0.2 0.224,-0.895 -0.095,-0.693 0.012,-1.188 0.012,-1.188 l -0.93,-1.376 c 0,0 0.253,-2.331 0.977,-3.865 0.723,-1.534 1.422,-1.864 1.422,-1.864 0,0 -0.058,0.288 0.013,0.635 0.07,0.346 0.347,0.641 0.347,0.641 0,0 0.047,-0.077 0.14,-0.147 0.095,-0.07 0.218,-0.111 0.218,-0.111 0,0 0.107,0.229 0.183,0.564 0.076,0.335 0.023,0.771 0.023,0.771 0,0 0.071,-0.159 0.471,-0.406 0.4,-0.247 0.636,-0.253 0.636,-0.253 0,0 0.317,0.406 0.511,1.176 0.194,0.771 0,2.083 0,2.083 0,0 -1.004,0.546 -1.205,1.851 -0.2,1.306 0.181,2.217 0.181,2.217"/><path id="path34" style="fill:#f9c400;fill-opacity:1;fill-rule:nonzero;stroke:none" d="m 18.5996,23.9927 c 0,0 0.322,0.009 0.457,0.299 0.161,0.346 0.426,0.414 0.426,0.414 0,0 0.08,-0.056 0.144,-0.124 0.065,-0.069 0.115,-0.152 0.115,-0.152 0,0 0.167,0.094 0.488,0.141 0.321,0.047 0.447,-0.006 0.447,-0.006 0,0 -0.003,-0.3 -0.216,-0.708 -0.213,-0.407 -0.208,-0.762 -0.208,-0.762 0,0 1.173,-0.112 1.794,0.041 0.622,0.152 1.284,0.584 1.284,0.584 0,0 0.254,0.345 0.216,0.739 -0.047,0.489 0.003,0.829 0.165,0.835 0.325,0.013 1.154,-0.273 1.453,-0.488 0.299,-0.214 0.536,-0.553 0.536,-0.553 0,0 -0.041,-0.541 -0.407,-1.282 -0.364,-0.741 -0.998,-0.859 -0.998,-0.859 l -3.247,0.031 c 0,0 -0.333,-0.09 -0.368,-0.321 -0.035,-0.231 0.423,-1.129 0.423,-1.129 l -2.808,0 0.304,3.3 z"/><path id="path35" style="fill:#fe0000;fill-opacity:1;fill-rule:nonzero;stroke:none" d="m 12.1655,15.6582 c 0,0 -0.229,-0.876 0.253,-1.388 0.483,-0.511 0.565,-1.212 0.565,-1.212 0,0 0.712,0.253 0.677,1.371 -0.036,1.118 -1.236,2.359 -1.236,2.359 l -0.259,-1.13 z"/><path id="path36" style="fill:#d8d8d8;fill-opacity:1;fill-rule:nonzero;stroke:none" d="m 12.3774,17.1533 c 0,0 -0.447,0.07 -0.729,-0.518 -0.283,-0.588 -0.147,-1.129 -0.147,-1.129 0,0 0.67,-0.129 0.782,0.382 0.077,0.352 0.388,0.53 0.388,0.53 0,0 -0.104,-0.589 0.509,-1.001 0.664,-0.447 0.691,-0.8 0.691,-0.8 0,0 0.306,0.159 -0.006,1.1 -0.535,1.618 -1.488,1.436 -1.488,1.436"/><path id="path37" style="fill:#fe0000;fill-opacity:1;fill-rule:nonzero;stroke:none" d="m 11.5781,25.1567 c 0,0 0.976,0.673 2,0.673 0.719,0 1.223,-0.506 1.223,-0.506 0,0 -0.318,-0.2 -0.223,-0.895 0.094,-0.693 -0.012,-1.188 -0.012,-1.188 l 0.929,-1.376 c 0,0 -0.253,-2.331 -0.976,-3.865 -0.724,-1.534 -1.424,-1.864 -1.424,-1.864 0,0 0.059,0.288 -0.012,0.635 -0.07,0.346 -0.347,0.641 -0.347,0.641 0,0 -0.047,-0.077 -0.141,-0.147 -0.094,-0.07 -0.218,-0.111 -0.218,-0.111 0,0 -0.105,0.229 -0.182,0.564 -0.076,0.335 -0.023,0.771 -0.023,0.771 0,0 -0.071,-0.159 -0.471,-0.406 -0.4,-0.247 -0.635,-0.253 -0.635,-0.253 0,0 -0.318,0.406 -0.512,1.176 -0.194,0.771 0,2.083 0,2.083 0,0 1.004,0.546 1.205,1.851 0.2,1.306 -0.181,2.217 -0.181,2.217"/><path id="path38" style="fill:#d8d8d8;fill-opacity:1;fill-rule:nonzero;stroke:none" d="m 17.3604,23.9927 c 0,0 -0.322,0.009 -0.457,0.299 -0.161,0.346 -0.426,0.414 -0.426,0.414 0,0 -0.08,-0.056 -0.144,-0.124 -0.064,-0.069 -0.115,-0.152 -0.115,-0.152 0,0 -0.167,0.094 -0.488,0.141 -0.321,0.047 -0.447,-0.006 -0.447,-0.006 0,0 0.003,-0.3 0.216,-0.708 0.213,-0.407 0.208,-0.762 0.208,-0.762 0,0 -1.173,-0.112 -1.794,0.041 -0.622,0.152 -1.285,0.584 -1.285,0.584 0,0 -0.253,0.345 -0.215,0.739 0.047,0.489 -0.003,0.829 -0.165,0.835 -0.325,0.013 -1.154,-0.273 -1.453,-0.488 -0.299,-0.214 -0.536,-0.553 -0.536,-0.553 0,0 0.042,-0.541 0.407,-1.282 0.364,-0.741 0.998,-0.859 0.998,-0.859 l 3.247,0.031 c 0,0 0.333,-0.09 0.368,-0.321 0.036,-0.231 -0.423,-1.129 -0.423,-1.129 l 2.808,0 -0.304,3.3 z"/><path id="path39" style="fill:#db2015;fill-opacity:1;fill-rule:nonzero;stroke:none" d="m 20.3887,21.5352 c 0.203,0 0.319,-0.204 0.319,-0.447 0,-0.48 -0.482,-1.196 -0.482,-1.196 l -1.149,0 0.108,0.635 0.803,0.945 0.351,0.063 0.05,0 z"/><path id="path40" style="fill:#db2015;fill-opacity:1;fill-rule:nonzero;stroke:none" d="m 15.5718,21.5352 c -0.204,0 -0.32,-0.204 -0.32,-0.447 0,-0.48 0.483,-1.196 0.483,-1.196 l 1.149,0 -0.108,0.635 -0.803,0.945 -0.352,0.063 -0.049,0 z"/><path id="path41" style="fill:#9c9c9c;fill-opacity:1;fill-rule:nonzero;stroke:none" d="m 17.98,19.2119 c 0,0 -0.103,0.188 -0.708,0.423 -0.606,0.236 -0.565,0.712 -0.565,0.712 l -0.382,0 c 0,0 -0.241,1.188 -0.753,1.188 0,0 0.166,0.009 0.402,-0.043 0.262,-0.057 0.6,-0.039 0.792,0.067 0.353,0.194 0.535,0.723 0.535,0.723 l -0.217,0.4 -0.283,0.154 -0.076,0.182 0.165,0.3 0.006,0.447 0.141,0 0.041,0.164 c 0,0 0.235,0.024 0.482,0.142 0.247,0.118 0.42,0.27 0.42,0.27 0,0 0.173,-0.152 0.42,-0.27 0.247,-0.118 0.483,-0.142 0.483,-0.142 l 0.041,-0.164 0.14,0 0.006,-0.447 0.165,-0.3 -0.076,-0.182 -0.282,-0.154 -0.218,-0.4 c 0,0 0.182,-0.529 0.535,-0.723 0.193,-0.106 0.531,-0.124 0.792,-0.067 0.236,0.052 0.403,0.043 0.403,0.043 -0.512,0 -0.753,-1.188 -0.753,-1.188 l -0.383,0 c 0,0 0.041,-0.476 -0.565,-0.712 -0.605,-0.235 -0.708,-0.423 -0.708,-0.423"/><path id="path42" style="fill:#f9c400;fill-opacity:1;fill-rule:nonzero;stroke:none" d="m 17.98,24.5527 c -0.545,0 -0.896,-0.143 -0.896,-0.143 l -0.95,1.49 c 0,0 0.708,-0.259 1.05,-0.106 0.341,0.154 0.796,0.842 0.796,0.842 0,0 0.455,-0.688 0.796,-0.842 0.341,-0.153 1.049,0.106 1.049,0.106 l -0.948,-1.49 c 0,0 -0.353,0.143 -0.897,0.143"/></g></g></g></g></svg>