<svg xmlns:dc="http://purl.org/dc/elements/1.1/" xmlns:cc="http://creativecommons.org/ns#" xmlns:rdf="http://www.w3.org/1999/02/22-rdf-syntax-ns#" xmlns:svg="http://www.w3.org/2000/svg" xmlns="http://www.w3.org/2000/svg" viewBox="0 0 45 45" style="enable-background:new 0 0 45 45;" xml:space="preserve" version="1.1" id="svg2"><metadata id="metadata8"><rdf:RDF><cc:Work rdf:about=""><dc:format>image/svg+xml</dc:format><dc:type rdf:resource="http://purl.org/dc/dcmitype/StillImage"/></cc:Work></rdf:RDF></metadata><defs id="defs6"><clipPath id="clipPath16" clipPathUnits="userSpaceOnUse"><path id="path18" d="M 0,36 36,36 36,0 0,0 0,36 Z"/></clipPath></defs><g transform="matrix(1.25,0,0,-1.25,0,45)" id="g10"><g id="g12"><g clip-path="url(#clipPath16)" id="g14"><g id="g20"><path xmlns:sodipodi="http://sodipodi.sourceforge.net/DTD/sodipodi-0.dtd" id="path22" style="fill:#141414;fill-opacity:1;fill-rule:nonzero;stroke:none" d="M 0,25.85 V 9 C 0,6.791 1.791,5 4,5 h 28 c 2.209,0 4,1.791 4,4 v 16.85" sodipodi:nodetypes="cssssc"/></g><g id="g24"><path id="path26" style="fill:#ffff00;fill-opacity:1;fill-rule:nonzero;stroke:none" d="m 36,16.6504 v -2.5 H 19.25 v -9.15 h -2.5 v 9.15 H 0 v 2.5 h 16.75 v 9.203 h 2.5 v -9.203 z"/></g><g id="g28"><path id="path30" style="fill:#ffff00;fill-opacity:1;fill-rule:nonzero;stroke:none" d="m 16.3398,5 h -3.35 l -4.82,4.88 -4.76,-4.83 c -0.88,0.12 -1.66,0.53 -2.25,1.13 l 7.01,7.13 z"/></g><g id="g32"><path id="path34" style="fill:#ff0000;fill-opacity:1;fill-rule:nonzero;stroke:none" d="m 35.7305,28.4302 h -35.46 c 0.569,1.51 2.029,2.57 3.73,2.57 h 28 c 1.7,0 3.16,-1.06 3.73,-2.57"/></g><g id="g36"><path id="path38" style="fill:#eeeeee;fill-opacity:1;fill-rule:nonzero;stroke:none" d="M 36,27 V 25.85 H 0 V 27 c 0,0.5 0.09,0.99 0.27,1.43 H 35.73 C 35.91,27.99 36,27.5 36,27"/></g></g></g></g></svg>