<svg xmlns:dc="http://purl.org/dc/elements/1.1/" xmlns:cc="http://creativecommons.org/ns#" xmlns:rdf="http://www.w3.org/1999/02/22-rdf-syntax-ns#" xmlns:svg="http://www.w3.org/2000/svg" xmlns="http://www.w3.org/2000/svg" viewBox="0 0 45 45" style="enable-background:new 0 0 45 45;" xml:space="preserve" version="1.1" id="svg2"><metadata id="metadata8"><rdf:RDF><cc:Work rdf:about=""><dc:format>image/svg+xml</dc:format><dc:type rdf:resource="http://purl.org/dc/dcmitype/StillImage"/></cc:Work></rdf:RDF></metadata><defs id="defs6"><clipPath id="clipPath16" clipPathUnits="userSpaceOnUse"><path id="path18" d="M 0,36 36,36 36,0 0,0 0,36 Z"/></clipPath></defs><g transform="matrix(1.25,0,0,-1.25,0,45)" id="g10"><g id="g12"><g xmlns="http://www.w3.org/2000/svg" clip-path="url(#clipPath16)" id="g14"><g id="g30"><path id="path20" style="fill:#bf0a30;fill-opacity:1;fill-rule:nonzero;stroke:none" d="M 11.549,5 H 32 c 2.209,0 4,1.791 4,4 v 9 H 15.665"/></g><g id="g32"><path id="path30" style="fill:#eeeeee;fill-opacity:1;fill-rule:nonzero;stroke:none" d="m 31.9997,31 h -20.451 l 4.117,-13 h 20.334 v 9 c 0,2.209 -1.791,4 -4,4"/></g><g id="g34"><path id="path40" style="fill:#002868;fill-opacity:1;fill-rule:nonzero;stroke:none" d="M 11.549,31 H 4 C 1.791,31 0,29.209 0,27 V 9 C 0,6.791 1.791,5 4,5 h 7.549 l 4.117,12.996 z"/></g><g id="g36"><path id="path50" style="fill:#f3e529;fill-opacity:1;fill-rule:nonzero;stroke:none" d="m 10.7097,18 c 0,-2.153 -2.182,-3.9 -4.875,-3.9 -2.692,0 -4.875,1.746 -4.875,3.9 v 0 c 0,2.154 2.182,3.9 4.875,3.9 2.692,0.001 4.875,-1.745 4.875,-3.899 z"/><path id="path51" style="fill:#002868;fill-opacity:1;fill-rule:nonzero;stroke:none" d="m 4.7785,20.0708 c 0.17,-0.146 0.303,-0.352 0.303,-0.448 0,-0.11 0.134,-0.194 0.303,-0.219 0.17,-0.024 0.424,-0.096 0.582,-0.169 0.206,-0.109 0.303,-0.109 0.412,0 0.085,0.085 0.303,0.145 0.497,0.145 0.327,0 0.351,-0.036 0.303,-0.351 -0.037,-0.267 0.024,-0.4 0.29,-0.618 0.183,-0.145 0.34,-0.351 0.34,-0.448 0,-0.133 -0.073,-0.097 -0.23,0.097 -0.206,0.254 -0.218,0.254 -0.206,0.048 0.012,-0.133 0.096,-0.388 0.194,-0.569 0.121,-0.266 0.133,-0.364 0,-0.521 -0.158,-0.194 -0.788,-0.267 -0.679,-0.072 0.036,0.06 -0.158,0.096 -0.448,0.072 -0.316,-0.012 -0.643,0.049 -0.873,0.181 -0.194,0.122 -0.57,0.255 -0.824,0.291 -0.255,0.049 -0.497,0.17 -0.534,0.267 -0.036,0.085 -0.133,0.169 -0.23,0.169 -0.097,0 -0.485,0.243 -0.86,0.534 -0.376,0.302 -0.74,0.508 -0.788,0.472 -0.134,-0.072 -0.157,-0.061 0.642,-0.642 0.352,-0.266 0.703,-0.485 0.788,-0.485 0.085,0 0.23,-0.097 0.315,-0.206 0.206,-0.278 1.14,-0.691 1.915,-0.848 0.17,-0.036 0.727,-0.278 1.248,-0.533 0.521,-0.254 0.994,-0.473 1.031,-0.473 0.048,0 0.096,0.425 0.109,0.934 0.024,0.751 -0.013,1.005 -0.206,1.32 -0.134,0.206 -0.328,0.412 -0.413,0.448 -0.108,0.049 -0.145,0.17 -0.108,0.315 0.108,0.424 -0.061,0.849 -0.376,0.934 -0.158,0.036 -0.485,-0.025 -0.727,-0.122 l -0.449,-0.194 -0.654,0.485 c -0.691,0.509 -1.176,0.666 -0.667,0.206"/><path id="path52" style="fill:#f3e529;fill-opacity:1;fill-rule:nonzero;stroke:none" d="m 5.8347,25.5942 0.25,-0.751 0.792,-0.006 -0.638,-0.47 0.24,-0.755 -0.644,0.461 -0.644,-0.461 0.24,0.755 -0.638,0.47 0.792,0.006 z"/><path id="path53" style="fill:#f3e529;fill-opacity:1;fill-rule:nonzero;stroke:none" d="m 5.8347,12.5947 0.25,-0.752 0.792,-0.006 -0.638,-0.47 0.24,-0.754 -0.644,0.461 -0.644,-0.461 0.24,0.754 -0.638,0.47 0.792,0.006 z"/><path id="path54" style="fill:#f3e529;fill-opacity:1;fill-rule:nonzero;stroke:none" d="m 13.3635,19.0942 0.25,-0.751 0.792,-0.006 -0.637,-0.47 0.239,-0.755 -0.644,0.461 -0.644,-0.461 0.24,0.755 -0.638,0.47 0.792,0.006 z"/><path id="path55" style="fill:#002868;fill-opacity:1;fill-rule:nonzero;stroke:none" d="m 2.4977,20.5039 0.243,0.155 0.382,-0.406 -0.168,0.543 0.242,0.155 0.424,-0.38 -0.208,0.518 0.241,0.154 0.346,-0.943 -0.25,-0.16 -0.478,0.428 0.189,-0.613 -0.25,-0.16 z"/><path id="path56" style="fill:#002868;fill-opacity:1;fill-rule:nonzero;stroke:none" d="m 5.153,20.9927 -0.148,0.338 -0.067,-0.363 z m 0.087,-0.204 -0.343,-0.039 -0.029,-0.167 -0.307,-0.035 0.254,1.017 0.328,0.038 0.479,-0.933 -0.315,-0.036 z"/><path id="path57" style="fill:#002868;fill-opacity:1;fill-rule:nonzero;stroke:none" d="m 6.3625,21.5996 0.298,-0.053 -0.064,-0.365 0.378,0.31 0.396,-0.07 -0.416,-0.302 0.262,-0.667 -0.368,0.065 -0.134,0.434 -0.183,-0.135 -0.041,-0.236 -0.299,0.053 z"/><path id="path58" style="fill:#002868;fill-opacity:1;fill-rule:nonzero;stroke:none" d="m 8.2292,21.0557 0.663,-0.47 -0.121,-0.171 -0.415,0.294 -0.09,-0.127 0.384,-0.273 -0.115,-0.163 -0.385,0.273 -0.112,-0.157 0.427,-0.304 -0.129,-0.181 -0.674,0.479 z"/><path id="path59" style="fill:#002868;fill-opacity:1;fill-rule:nonzero;stroke:none" d="m 2.4377,17.1309 0.198,-0.23 -0.743,-0.64 -0.199,0.23 z"/><path id="path60" style="fill:#002868;fill-opacity:1;fill-rule:nonzero;stroke:none" d="m 2.5114,15.9551 0.241,-0.16 c -0.023,-0.041 -0.034,-0.077 -0.034,-0.109 10e-4,-0.049 0.024,-0.092 0.071,-0.127 0.034,-0.027 0.067,-0.039 0.098,-0.037 0.031,0.002 0.054,0.014 0.071,0.036 0.015,0.02 0.02,0.044 0.014,0.075 -0.006,0.029 -0.036,0.075 -0.089,0.138 -0.089,0.104 -0.141,0.193 -0.156,0.267 -0.015,0.074 0,0.142 0.046,0.202 0.03,0.041 0.071,0.07 0.121,0.088 0.051,0.019 0.107,0.02 0.169,0.005 0.062,-0.015 0.135,-0.053 0.216,-0.114 0.1,-0.077 0.162,-0.153 0.187,-0.229 0.024,-0.077 0.01,-0.16 -0.041,-0.249 l -0.238,0.159 c 0.021,0.04 0.027,0.076 0.02,0.106 -0.008,0.031 -0.028,0.059 -0.062,0.085 -0.029,0.021 -0.054,0.031 -0.077,0.03 -0.024,-10e-4 -0.042,-0.011 -0.055,-0.027 -0.009,-0.013 -0.012,-0.029 -0.007,-0.047 0.003,-0.02 0.023,-0.049 0.059,-0.091 0.089,-0.103 0.147,-0.183 0.175,-0.24 0.028,-0.058 0.04,-0.113 0.034,-0.162 -0.005,-0.051 -0.024,-0.097 -0.056,-0.14 -0.038,-0.051 -0.087,-0.086 -0.146,-0.107 -0.061,-0.022 -0.124,-0.025 -0.19,-0.009 -0.066,0.015 -0.138,0.053 -0.213,0.109 -0.133,0.101 -0.206,0.196 -0.219,0.286 -0.012,0.09 0.008,0.178 0.061,0.262"/><path id="path61" style="fill:#002868;fill-opacity:1;fill-rule:nonzero;stroke:none" d="m 4.1144,15.6797 0.291,-0.087 -0.213,-0.709 0.453,-0.136 -0.07,-0.231 -0.743,0.224 z"/><path id="path62" style="fill:#002868;fill-opacity:1;fill-rule:nonzero;stroke:none" d="m 5.9455,14.752 -0.107,0.353 -0.109,-0.352 z m 0.062,-0.213 -0.345,0.002 -0.048,-0.162 -0.31,0.001 0.373,0.979 0.33,-10e-4 0.365,-0.982 -0.317,0.001 z"/><path id="path63" style="fill:#002868;fill-opacity:1;fill-rule:nonzero;stroke:none" d="m 6.9328,15.4795 0.271,0.083 0.513,-0.409 -0.16,0.518 0.272,0.084 0.29,-0.937 -0.273,-0.084 -0.51,0.406 0.159,-0.515 -0.272,-0.083 z"/><path id="path64" style="fill:#002868;fill-opacity:1;fill-rule:nonzero;stroke:none" d="m 8.8737,16.2764 0.336,-0.417 0.058,0.047 c 0.049,0.039 0.08,0.073 0.092,0.1 0.012,0.029 0.013,0.061 0.003,0.097 -0.01,0.037 -0.04,0.086 -0.089,0.148 -0.066,0.081 -0.123,0.126 -0.174,0.133 -0.05,0.009 -0.106,-0.011 -0.167,-0.06 z m -0.375,-0.017 0.35,0.283 c 0.069,0.055 0.133,0.091 0.191,0.107 0.057,0.016 0.114,0.017 0.17,0.004 0.056,-0.013 0.109,-0.037 0.159,-0.074 0.05,-0.036 0.096,-0.08 0.138,-0.133 0.066,-0.081 0.108,-0.152 0.125,-0.212 0.018,-0.061 0.023,-0.119 0.014,-0.176 -0.008,-0.056 -0.028,-0.105 -0.057,-0.146 -0.041,-0.056 -0.082,-0.101 -0.124,-0.134 l -0.351,-0.283 z"/></g></g></g></g></svg>