<svg xmlns:dc="http://purl.org/dc/elements/1.1/" xmlns:cc="http://creativecommons.org/ns#" xmlns:rdf="http://www.w3.org/1999/02/22-rdf-syntax-ns#" xmlns:svg="http://www.w3.org/2000/svg" xmlns="http://www.w3.org/2000/svg" viewBox="0 0 45 45" style="enable-background:new 0 0 45 45;" xml:space="preserve" version="1.1" id="svg2"><metadata id="metadata8"><rdf:RDF><cc:Work rdf:about=""><dc:format>image/svg+xml</dc:format><dc:type rdf:resource="http://purl.org/dc/dcmitype/StillImage"/></cc:Work></rdf:RDF></metadata><defs id="defs6"><clipPath id="clipPath16" clipPathUnits="userSpaceOnUse"><path id="path18" d="M 0,36 36,36 36,0 0,0 0,36 Z"/></clipPath></defs><g transform="matrix(1.25,0,0,-1.25,0,45)" id="g10"><g id="g12"><g xmlns="http://www.w3.org/2000/svg" clip-path="url(#clipPath16)" id="g14"><g id="g30"><path id="path20" style="fill:#141414;fill-opacity:1;fill-rule:nonzero;stroke:none" d="M 0,13.671 0,9 C 0,6.791 1.791,5 4,5 l 28,0 c 2.209,0 4,1.791 4,4 l 0,4.671 -36,0 z"/><path id="path21" style="fill:#eeeeee;fill-opacity:1;fill-rule:nonzero;stroke:none" d="m 36,13.6711 -36,0 0,8.659 36,0 0,-8.659 z"/><path id="path22" style="fill:#00ac37;fill-opacity:1;fill-rule:nonzero;stroke:none" d="m 36,22.3312 0,4.669 c 0,2.209 -1.791,4 -4,4 l -28,0 c -2.209,0 -4,-1.791 -4,-4 l 0,-4.67 36,10e-4 z"/></g><g id="g34"><path id="path30" style="fill:#ee151f;fill-opacity:1;fill-rule:nonzero;stroke:none" d="m 11.564,17.0641 2.842,0 0,3.462 -2.842,0 0,-3.462 z"/><path id="path31" style="fill:#ebc200;fill-opacity:1;fill-rule:nonzero;stroke:none" d="m 8.722,17.0641 2.842,0 0,3.462 -2.842,0 0,-3.462 z"/><path id="path32" style="fill:#0072bd;fill-opacity:1;fill-rule:nonzero;stroke:none" d="m 8.7222,16.5304 c 0,-1.569 1.272,-2.842 2.842,-2.842 1.57,0 2.842,1.273 2.842,2.842 l 0,0.534 -5.684,0 0,-0.534 z"/><path id="path33" style="fill:#e4e5e6;fill-opacity:1;fill-rule:nonzero;stroke:none" d="m 12.5718,18.3204 0,-1.417 c 0,-0.557 -0.451,-1.008 -1.008,-1.008 -0.556,0 -1.008,0.451 -1.008,1.008 l 0,1.417 2.016,0 z"/><path id="path34" style="fill:#ebc200;fill-opacity:1;fill-rule:nonzero;stroke:none" d="m 11.5786,21.3434 c -1.494,0 -2.181,-0.32 -2.181,-0.32 l -1.212,1.9 c 0,0 -0.133,0.369 0.606,0.169 0.74,-0.2 -0.004,-0.608 -0.004,-0.608 0,0 0.132,-0.259 0.391,-0.184 0.258,0.074 0.165,0.4 0.165,0.4 0,0 0.223,-0.291 0.482,-0.224 0.259,0.067 0.184,0.435 0.184,0.435 0,0 -0.859,-0.066 -0.443,0.542 0.205,0.299 0.408,0.38 0.408,0.38 0,0 0.173,0.009 0.467,-0.235 0.694,-0.577 -0.279,-0.647 -0.279,-0.647 0,0 -0.023,-0.393 0.33,-0.404 0.289,-0.01 0.36,0.4 0.36,0.4 0,0 0.079,-0.326 0.361,-0.318 0.282,0.008 0.314,0.392 0.314,0.392 0,0 -0.844,0.044 -0.392,0.667 0.204,0.282 0.443,0.329 0.443,0.329 0,0 0.238,-0.047 0.443,-0.329 0.451,-0.623 -0.392,-0.667 -0.392,-0.667 0,0 0.031,-0.384 0.314,-0.392 0.282,-0.008 0.36,0.318 0.36,0.318 0,0 0.071,-0.41 0.361,-0.4 0.353,0.011 0.33,0.404 0.33,0.404 0,0 -0.973,0.07 -0.279,0.647 0.294,0.244 0.467,0.235 0.467,0.235 0,0 0.203,-0.081 0.408,-0.38 0.415,-0.608 -0.444,-0.542 -0.444,-0.542 0,0 -0.074,-0.368 0.185,-0.435 0.259,-0.067 0.482,0.224 0.482,0.224 0,0 -0.094,-0.326 0.165,-0.4 0.259,-0.075 0.391,0.184 0.391,0.184 0,0 -0.744,0.408 -0.005,0.608 0.739,0.2 0.606,-0.169 0.606,-0.169 l -1.212,-1.9 c 0,0 -0.686,0.32 -2.18,0.32"/><path id="path35" style="fill:#ee151f;fill-opacity:1;fill-rule:nonzero;stroke:none" d="m 9.3979,21.0235 c 0,0 0.687,0.32 2.181,0.32 1.494,0 2.18,-0.32 2.18,-0.32 0,0 -0.875,-0.182 -2.18,-0.182 -1.306,0 -2.181,0.182 -2.181,0.182"/></g></g></g></g></svg>