<svg xmlns:dc="http://purl.org/dc/elements/1.1/" xmlns:cc="http://creativecommons.org/ns#" xmlns:rdf="http://www.w3.org/1999/02/22-rdf-syntax-ns#" xmlns:svg="http://www.w3.org/2000/svg" xmlns="http://www.w3.org/2000/svg" viewBox="0 0 45 45" style="enable-background:new 0 0 45 45;" xml:space="preserve" version="1.1" id="svg2"><metadata id="metadata8"><rdf:RDF><cc:Work rdf:about=""><dc:format>image/svg+xml</dc:format><dc:type rdf:resource="http://purl.org/dc/dcmitype/StillImage"/></cc:Work></rdf:RDF></metadata><defs id="defs6"><clipPath id="clipPath16" clipPathUnits="userSpaceOnUse"><path id="path18" d="M 0,36 36,36 36,0 0,0 0,36 Z"/></clipPath></defs><g transform="matrix(1.25,0,0,-1.25,0,45)" id="g10"><g id="g12"><g xmlns="http://www.w3.org/2000/svg" clip-path="url(#clipPath16)" id="g14"><g id="g30"><path id="path20" style="fill:#0061b7;fill-opacity:1;fill-rule:nonzero;stroke:none" d="M 32,31 4,31 C 1.791,31 0,29.209 0,27 l 0,-9 36,0 0,9 c 0,2.209 -1.791,4 -4,4"/><path id="path21" style="fill:#009360;fill-opacity:1;fill-rule:nonzero;stroke:none" d="M 0,9 C 0,6.791 1.791,5 4,5 l 28,0 c 2.209,0 4,1.791 4,4 l 0,9 -36,0 0,-9 z"/></g><g id="g34"><path id="path30" style="fill:#0061b7;fill-opacity:1;fill-rule:nonzero;stroke:none" d="m 26.9063,18 c 0,-0.451 -0.034,-0.894 -0.099,-1.327 l 1.871,-1.372 c -0.176,-0.702 -0.421,-1.377 -0.725,-2.019 l -2.201,0.33 c -0.194,-0.341 -0.409,-0.669 -0.646,-0.98 l 0.99,-2.1 C 25.6053,10 25.0693,9.523 24.4953,9.104 l -1.776,1.341 c -0.331,-0.207 -0.677,-0.391 -1.035,-0.554 L 21.5523,7.574 C 20.8673,7.34 20.1683,7.177 19.4643,7.083 l -0.922,2.026 c -0.179,-0.01 -0.36,-0.015 -0.542,-0.015 -0.182,0 -0.363,0.005 -0.543,0.015 l -0.921,-2.026 c -0.704,0.094 -1.403,0.257 -2.088,0.491 l -0.134,2.318 c -0.358,0.163 -0.704,0.347 -1.034,0.554 l -1.776,-1.342 c -0.573,0.419 -1.11,0.896 -1.6,1.428 l 0.989,2.1 c -0.236,0.311 -0.451,0.639 -0.645,0.979 l -2.201,-0.329 c -0.305,0.642 -0.549,1.317 -0.726,2.019 l 1.872,1.372 C 9.1283,17.106 9.0943,17.549 9.0943,18 l 17.812,0 z"/><path id="path31" style="fill:#fffb00;fill-opacity:1;fill-rule:nonzero;stroke:none" d="m 13.1294,18 -3.016,0 c 0,0 0.552,-0.907 1.351,-1.434 0.799,-0.526 1.975,-0.462 1.975,-0.462 0,0 -0.904,-0.797 -1.098,-1.735 -0.193,-0.937 0.059,-1.969 0.059,-1.969 0,0 1.032,-0.252 1.969,-0.058 0.937,0.193 1.735,1.097 1.735,1.097 0,0 -0.064,-1.175 0.462,-1.975 0.526,-0.799 1.434,-1.35 1.434,-1.35 0,0 0.907,0.551 1.433,1.35 0.527,0.8 0.462,1.975 0.462,1.975 0,0 0.798,-0.904 1.735,-1.097 0.938,-0.194 1.969,0.058 1.969,0.058 0,0 0.252,1.032 0.059,1.969 -0.194,0.938 -1.098,1.735 -1.098,1.735 0,0 1.176,-0.064 1.976,0.462 0.799,0.527 1.349,1.434 1.349,1.434 l -2.962,0 c 0,0 0.588,0.5 1.706,0.5 0.985,0 0.972,0.62 0.972,0.62 0,0 -0.847,-0.157 -1.611,0.227 -0.584,0.294 -1.612,0.106 -1.612,0.106 0,0 0.412,0.243 0.808,0.604 0.396,0.36 0.584,0.792 0.584,0.792 0,0 -0.757,-0.341 -1.177,-0.341 -0.419,0 -0.866,0.255 -0.866,0.255 0,0 0.949,0.565 1.388,1.133 0.439,0.569 0.416,1.608 0.416,1.608 0,0 -0.724,-1.204 -1.185,-1.204 -0.917,0 -1.45,-0.518 -1.45,-0.518 0,0 0.05,0.183 0.05,0.379 0,0.338 -0.165,0.391 -0.165,0.572 0,0.274 0.189,0.496 0.189,0.496 0,0 -0.468,0.108 -0.649,-0.445 -0.124,-0.382 -0.407,-0.486 -0.407,-0.486 0,0 -0.077,0.74 0.015,1.193 0.091,0.453 0.101,0.622 -0.006,1.006 -0.124,0.443 0.084,0.754 0.084,0.754 0,0 -0.346,0.103 -0.466,-0.254 -0.121,-0.358 -0.244,-0.918 -0.606,-1.325 -0.239,-0.267 -0.322,-0.774 -0.322,-0.774 0,0 -0.065,0.453 -0.372,0.7 -0.308,0.247 -0.251,0.684 -0.251,0.684 0,0 -0.249,0.067 -0.222,-0.425 0.015,-0.271 0.12,-0.6 0.087,-0.689 -0.115,-0.301 -0.389,-0.615 -0.389,-0.615 0,0 -0.406,0.555 -0.672,1.488 -0.352,1.23 -0.93,1.353 -0.93,1.353 0,0 -0.023,-0.09 0.043,-0.423 0.067,-0.334 0.032,-0.981 -0.019,-1.346 -0.051,-0.364 0.035,-1.525 0.035,-1.525 0,0 -0.141,0.475 -0.447,0.945 -0.153,0.236 -0.616,0.42 -0.616,0.42 0,0 0.106,-0.62 0.106,-1.02 0,-0.4 -0.161,-0.918 -0.161,-0.918 0,0 -0.525,1.027 -1.105,1.355 -0.665,0.377 -1.642,0.283 -1.642,0.283 0,0 1.23,-0.554 1.189,-1.171 -0.077,-1.153 0.323,-1.465 0.323,-1.465 0,0 -0.829,-0.1 -1.188,-0.064 -0.359,0.035 -0.953,0.27 -0.953,0.27 0,0 0.468,-0.478 0.829,-0.794 0.465,-0.406 1.006,-0.541 1.006,-0.541 0,0 -0.876,0.076 -1.482,0.012 -1.053,-0.112 -1.377,0.353 -1.377,0.353 0,0 -0.488,-0.23 0.141,-0.73 0.271,-0.215 0.837,-0.197 1.336,-0.376 0.663,-0.238 1.247,-0.659 1.247,-0.659"/><path id="path32" style="fill:#ff0000;fill-opacity:1;fill-rule:nonzero;stroke:none" d="m 14.1665,18 c 0,-2.117 1.716,-3.833 3.833,-3.833 2.118,0 3.834,1.716 3.834,3.833 l -7.667,0 z"/><path id="path33" style="fill:#ff0000;fill-opacity:1;fill-rule:nonzero;stroke:none" d="m 9.09,18.2 -9.09,0 0,-0.4 9.09,0 0,0.4 z"/><path id="path34" style="fill:#ff0000;fill-opacity:1;fill-rule:nonzero;stroke:none" d="m 26.91,17.8 9.09,0 0,0.4 -9.09,0 0,-0.4 z"/></g><g id="g38"><path id="path40" style="fill:#009360;fill-opacity:1;fill-rule:nonzero;stroke:none" d="m 28.2998,21.1938 c 0,0 -0.784,-1.256 -0.81,-1.856 -0.037,-0.91 1.158,-1.173 1.316,-0.073 0.093,0.643 -0.506,1.929 -0.506,1.929"/><path id="path41" style="fill:#009360;fill-opacity:1;fill-rule:nonzero;stroke:none" d="m 26.0977,21.5029 c 0,0 -0.247,-1.46 -0.041,-2.024 0.311,-0.856 1.516,-0.644 1.243,0.433 -0.158,0.63 -1.202,1.591 -1.202,1.591"/><path id="path42" style="fill:#009360;fill-opacity:1;fill-rule:nonzero;stroke:none" d="m 26.4268,24.9619 c 0,0 -0.246,-1.46 -0.041,-2.025 0.312,-0.855 1.516,-0.644 1.244,0.434 -0.159,0.63 -1.203,1.591 -1.203,1.591"/><path id="path43" style="fill:#009360;fill-opacity:1;fill-rule:nonzero;stroke:none" d="m 23.8389,24.0449 c 0,0 0.722,-1.293 1.235,-1.605 0.779,-0.472 1.585,0.447 0.699,1.117 -0.518,0.391 -1.934,0.488 -1.934,0.488"/><path id="path44" style="fill:#009360;fill-opacity:1;fill-rule:nonzero;stroke:none" d="m 23.8613,27.4258 c 0,0 0.05,-1.48 0.364,-1.992 0.477,-0.776 1.615,-0.327 1.132,0.674 -0.281,0.585 -1.496,1.318 -1.496,1.318"/><path id="path45" style="fill:#009360;fill-opacity:1;fill-rule:nonzero;stroke:none" d="m 21.5586,25.6606 c 0,0 1.064,-1.029 1.646,-1.179 0.881,-0.228 1.388,0.885 0.346,1.27 -0.609,0.226 -1.992,-0.091 -1.992,-0.091"/><path id="path46" style="fill:#009360;fill-opacity:1;fill-rule:nonzero;stroke:none" d="m 20.1816,28.7295 c 0,0 0.582,-1.361 1.061,-1.725 0.724,-0.55 1.623,0.279 0.811,1.038 -0.475,0.444 -1.872,0.687 -1.872,0.687"/><path id="path47" style="fill:#009360;fill-opacity:1;fill-rule:nonzero;stroke:none" d="m 18.4702,26.793 c 0,0 1.193,-0.877 1.79,-0.948 0.904,-0.107 1.256,1.064 0.172,1.306 -0.633,0.141 -1.962,-0.358 -1.962,-0.358"/><path id="path48" style="fill:#009360;fill-opacity:1;fill-rule:nonzero;stroke:none" d="m 7.7002,21.1938 c 0,0 0.784,-1.256 0.809,-1.856 0.038,-0.91 -1.156,-1.173 -1.315,-0.073 -0.093,0.643 0.506,1.929 0.506,1.929"/><path id="path49" style="fill:#009360;fill-opacity:1;fill-rule:nonzero;stroke:none" d="m 9.9023,21.5029 c 0,0 0.247,-1.46 0.042,-2.024 -0.312,-0.856 -1.517,-0.644 -1.245,0.433 0.16,0.63 1.203,1.591 1.203,1.591"/><path id="path50" style="fill:#009360;fill-opacity:1;fill-rule:nonzero;stroke:none" d="m 9.5728,24.9619 c 0,0 0.247,-1.46 0.042,-2.025 -0.312,-0.855 -1.516,-0.644 -1.244,0.434 0.159,0.63 1.202,1.591 1.202,1.591"/><path id="path51" style="fill:#009360;fill-opacity:1;fill-rule:nonzero;stroke:none" d="m 12.1606,24.0449 c 0,0 -0.721,-1.293 -1.235,-1.605 -0.778,-0.472 -1.585,0.447 -0.699,1.117 0.518,0.391 1.934,0.488 1.934,0.488"/><path id="path52" style="fill:#009360;fill-opacity:1;fill-rule:nonzero;stroke:none" d="m 12.1392,27.4258 c 0,0 -0.051,-1.48 -0.365,-1.992 -0.476,-0.776 -1.614,-0.327 -1.132,0.674 0.282,0.585 1.497,1.318 1.497,1.318"/><path id="path53" style="fill:#009360;fill-opacity:1;fill-rule:nonzero;stroke:none" d="m 14.4414,25.6606 c 0,0 -1.064,-1.029 -1.646,-1.179 -0.882,-0.228 -1.389,0.885 -0.346,1.27 0.609,0.226 1.992,-0.091 1.992,-0.091"/><path id="path54" style="fill:#009360;fill-opacity:1;fill-rule:nonzero;stroke:none" d="m 15.8188,28.7295 c 0,0 -0.583,-1.361 -1.061,-1.725 -0.725,-0.55 -1.623,0.279 -0.811,1.038 0.475,0.444 1.872,0.687 1.872,0.687"/><path id="path55" style="fill:#009360;fill-opacity:1;fill-rule:nonzero;stroke:none" d="m 17.5298,26.793 c 0,0 -1.193,-0.877 -1.79,-0.948 -0.904,-0.107 -1.257,1.064 -0.172,1.306 0.634,0.141 1.962,-0.358 1.962,-0.358"/></g></g></g></g></svg>