<svg xmlns="http://www.w3.org/2000/svg" viewBox="0 0 45 45" enable-background="new 0 0 45 45"><defs><clipPath id="a"><path d="M0 36h36V0H0v36z"/></clipPath><clipPath id="b"><path d="M17.66 33h-4.12c1.03-1-1.02-5.2-2.05-6.2-1.04-1.04-6.18-2.1-6.18-8.26 0-6.17 8.22-13.38 9.25-15.44 1.03-1.03 3.1-1.03 3.1-1.03s2.04 0 3.07 1.02C21.77 5.14 30 12.36 30 18.53s-5.14 7.22-6.17 8.25c-1.03 1-3.1 5.2-2.06 6.2h-4.1z"/></clipPath><clipPath id="c"><path d="M0 36h36V0H0v36z"/></clipPath></defs><g><g><g clip-path="url(#a)" transform="matrix(1.25 0 0 -1.25 0 45)"><g><path fill="#c1694f" d="M11.57 23.8c-1.08-.4-2.45.57-3.07 2.2-.62 1.62-.24 3.27.84 3.68 1.1.4 2.46-.57 3.08-2.2.62-1.62.24-3.27-.85-3.68m2.74 4.4c-1.2 3.2-3.9 5.12-6.03 4.3-2.12-.8-2.87-4.03-1.66-7.22 1.22-3.18 3.92-5.1 6.05-4.3 2.12.8 2.86 4.03 1.66 7.22"/></g><g><path fill="#c1694f" d="M26.5 26c-.6-1.63-2-2.6-3.07-2.2-1.08.4-1.46 2.06-.84 3.7.6 1.6 1.98 2.6 3.06 2.18 1.08-.4 1.46-2.06.84-3.68m.23 6.5c-2.12.82-4.82-1.1-6.03-4.3-1.2-3.18-.47-6.42 1.66-7.23 2.12-.8 4.82 1.13 6.03 4.3 1.2 3.2.46 6.44-1.67 7.24"/></g><g><path fill="#272b2b" d="M16.63 4.25c-2.06 0-5.14-.97-5.14-3.02C11.5.2 15.42.08 17.56.08c2.15 0 .1 4.17.1 4.17h-1.04z"/></g><g><path fill="#272b2b" d="M18.55 4.25c2.05 0 5.14-.97 5.14-3.02C23.7.2 19.74.08 17.6.08c-2.14 0-.08 4.17-.08 4.17h1.03z"/></g><g><path fill="#c1694f" d="M23.83 26.8c-1.03 1-3.1 5.2-2.06 6.2H13.55c1.02-1-1.03-5.2-2.06-6.2-1.04-1.04-6.18-2.1-6.18-8.26 0-6.17 8.23-13.38 9.25-15.44 1.03-1.03 3.1-1.03 3.1-1.03s2.05 0 3.07 1.02C21.77 5.14 30 12.36 30 18.53s-5.14 7.22-6.17 8.25"/></g></g></g><g><g clip-path="url(#b)" transform="matrix(1.25 0 0 -1.25 0 45)"><path fill="#272b2b" d="M32 14H4v10h28V14z"/></g></g><g><g clip-path="url(#c)" transform="matrix(1.25 0 0 -1.25 0 45)"><g><path fill="#c1694f" d="M18 33h-4.46c0-4-.85-5.14-1.88-6.17"/></g><g><path fill="#272b2b" d="M17.66 31.64c2.06 0 6.03.93 6.03 3 0 1.02-3.95 1.15-6.1 1.15-2.14 0-.08-4.16-.08-4.16h.14z"/></g><g><path fill="#272b2b" d="M17.66 31.64c-2.06 0-6.03.93-6.03 3 0 1.02 3.94 1.15 6.08 1.15 2.16 0 .1-4.16.1-4.16h-.14z"/></g><g><path fill="#c1694f" d="M13.03 16h-2.57c-.3 0-.5.22-.5.5s.2.5.5.5H13v4H9v-1h2.5c.27 0 .5-.22.5-.5s-.23-.5-.5-.5H9.05c-.54 0-1.06.15-1.06.77v1.32c0 .7.6.9.9.9h4.13c.7 0 .97-.48.97-.92v-4.1c0-.63-.46-.98-.97-.98"/></g><g><path fill="#c1694f" d="M27.03 16h-2.57c-.28 0-.5.22-.5.5s.22.5.5.5H27v4h-4v-1h2.5c.27 0 .5-.22.5-.5s-.23-.5-.5-.5h-2.44c-.54 0-1.06.15-1.06.77v1.32c0 .7.6.9.9.9h4.13c.7 0 .97-.48.97-.92v-4.1c0-.63-.46-.98-.97-.98"/></g><g><path fill="#c1694f" d="M20.03 16h-2.57c-.28 0-.5.22-.5.5s.22.5.5.5H20v4h-4v-1h2.5c.27 0 .5-.22.5-.5s-.23-.5-.5-.5h-2.44c-.54 0-1.06.15-1.06.77v1.32c0 .7.6.9.9.9h4.13c.7 0 .97-.48.97-.92v-4.1c0-.63-.46-.98-.97-.98"/></g></g></g></g></svg>