<svg xmlns:dc="http://purl.org/dc/elements/1.1/" xmlns:cc="http://creativecommons.org/ns#" xmlns:rdf="http://www.w3.org/1999/02/22-rdf-syntax-ns#" xmlns:svg="http://www.w3.org/2000/svg" xmlns="http://www.w3.org/2000/svg" viewBox="0 0 45 45" style="enable-background:new 0 0 45 45;" xml:space="preserve" version="1.1" id="svg2"><metadata id="metadata8"><rdf:RDF><cc:Work rdf:about=""><dc:format>image/svg+xml</dc:format><dc:type rdf:resource="http://purl.org/dc/dcmitype/StillImage"/></cc:Work></rdf:RDF></metadata><defs id="defs6"><clipPath id="clipPath16" clipPathUnits="userSpaceOnUse"><path id="path18" d="M 0,36 36,36 36,0 0,0 0,36 Z"/></clipPath></defs><g transform="matrix(1.25,0,0,-1.25,0,45)" id="g10"><g id="g12"><g clip-path="url(#clipPath16)" id="g14"><g id="g20"><path id="path22" style="fill:#eeeeee;fill-opacity:1;fill-rule:nonzero;stroke:none" d="M 32,31 H 4 C 1.791,31 0,29.209 0,27 V 9 C 0,6.791 1.791,5 4,5 h 28 c 2.209,0 4,1.791 4,4 v 18 c 0,2.209 -1.791,4 -4,4"/></g><g id="g24"><path id="path26" style="fill:#141414;fill-opacity:1;fill-rule:nonzero;stroke:none" d="m 18,10.6299 c -5.991,0 -6.923,4.225 -6.932,4.268 l -0.002,11.515 H 24.933 V 14.9169 C 24.922,14.8549 23.992,10.6299 18,10.6299"/></g><g id="g28"><path id="path30" style="fill:#eeeeee;fill-opacity:1;fill-rule:nonzero;stroke:none" d="m 11.2666,26.2124 v -11.295 c 0.006,-0.021 0.911,-4.088 6.733,-4.088 5.823,0 6.727,4.066 6.736,4.108 l -0.002,11.275 z"/></g><g id="g32"><path id="path34" style="fill:#141414;fill-opacity:1;fill-rule:nonzero;stroke:none" d="m 19.8564,15.9043 c 0,0 -0.01,-0.085 -0.059,-0.146 -0.082,-0.101 -0.184,-0.07 -0.184,-0.07 0,0 0.032,-0.106 -0.02,-0.184 -0.05,-0.079 -0.129,-0.067 -0.129,-0.067 0,0 0.216,-0.106 0.345,-0.365 0.13,-0.259 0.169,-0.596 0,-0.604 -0.109,-0.004 -0.058,0.22 -0.058,0.22 0,0 -0.059,0.329 -0.28,0.363 -0.118,0.019 -0.215,-0.039 -0.285,-0.053 -0.083,-0.018 -0.165,0 -0.165,0 0,0 -0.133,-0.138 -0.125,-0.385 0.008,-0.247 -0.342,-0.646 -0.342,-0.646 0,0 -0.031,0.274 0.189,0.49 0.118,0.116 0.125,0.387 0.019,0.533 -0.104,0.143 -0.004,0.352 -0.004,0.352 l -0.157,0.037 c 0,0 -0.058,-0.027 -0.105,0.013 -0.047,0.039 -0.061,0.088 -0.061,0.088 0,0 -0.043,-0.047 -0.126,-0.045 -0.082,0.002 -0.176,0.039 -0.176,0.039 0,0 -0.209,-0.145 -0.202,-0.422 0.01,-0.403 0.329,-0.539 0.28,-0.656 -0.049,-0.118 -0.254,-0.12 -0.254,-0.12 0,0 -0.059,0.241 -0.208,0.406 -0.149,0.164 -0.396,0.067 -0.396,0.067 0,0 -0.393,0.379 -0.432,0.578 -0.03,0.155 0.086,0.326 0.086,0.326 0,0 -0.113,-0.076 -0.186,-0.073 -0.09,0.004 -0.108,0.126 -0.108,0.126 l -0.256,0.135 c 0,0 -0.331,-0.42 -0.283,-0.657 0.032,-0.155 0.137,-0.172 0.247,-0.249 0.159,-0.112 0.127,-0.225 0.127,-0.225 0,0 -0.16,0.093 -0.274,0.164 -0.114,0.071 -0.2,0.214 -0.2,0.214 0,0 0.045,0.129 0.02,0.206 -0.036,0.106 -0.132,0.118 -0.132,0.118 0,0 -0.021,0.137 0.038,0.243 0.058,0.105 0.068,0.207 0.068,0.207 0,0 -0.051,-0.031 -0.135,0 -0.084,0.032 -0.11,0.071 -0.11,0.071 0,0 -0.078,-0.004 -0.163,0.018 -0.084,0.021 -0.106,0.047 -0.106,0.047 0,0 -0.243,-0.124 -0.235,-0.347 0.008,-0.224 0.104,-0.457 0.104,-0.457 0,0 -0.178,0.098 -0.329,0.072 -0.151,-0.025 -0.22,-0.174 -0.22,-0.174 0,0 -0.476,0.154 -0.801,-0.089 -0.726,-0.544 -1.506,-0.633 -1.506,-0.633 0,0 0.449,-0.535 1.203,-0.367 0.991,0.22 0.727,-0.192 0.727,-0.192 0,0 -0.053,0.032 -0.294,-0.05 -0.242,-0.082 -0.418,-0.235 -0.418,-0.235 0,0 0.476,0.015 0.5,-0.082 0.01,-0.042 -0.056,-0.309 -0.209,-0.345 -0.227,-0.051 -0.388,-0.27 -0.388,-0.27 0,0 0.603,0.086 0.923,0.286 0.221,0.139 0.423,0.157 0.474,0.135 0.051,-0.024 -0.051,-0.073 -0.118,-0.212 -0.109,-0.227 -0.173,-0.338 -0.173,-0.338 0,0 0.232,-0.07 0.638,0.015 0.406,0.085 0.529,0.302 0.529,0.302 0,0 0.006,-0.12 -0.053,-0.27 -0.058,-0.151 -0.191,-0.332 -0.191,-0.332 0,0 0.294,0.132 0.453,0.358 0.159,0.227 0.156,0.318 0.156,0.318 0,0 0.25,-0.245 0.103,-0.676 -0.147,-0.433 -0.6,-0.453 -0.6,-0.453 0,0 0.47,-0.139 0.812,0.02 0.341,0.159 0.547,0.594 0.547,0.594 0,0 0.032,-0.041 0.032,-0.123 0,-0.083 -0.017,-0.192 -0.017,-0.192 0,0 0.355,0.006 0.544,0.274 0.188,0.267 0.294,0.3 0.294,0.3 0,0 0.003,-0.17 -0.153,-0.565 -0.156,-0.393 -0.327,-0.579 -0.327,-0.579 0,0 0.418,0.132 0.712,0.429 0.294,0.298 0.279,0.606 0.279,0.606 0,0 0.104,-0.017 0.124,-0.144 0.021,-0.126 0.009,-0.202 0.009,-0.202 0,0 0.138,0.076 0.209,0.208 0.07,0.132 0.088,0.22 0.088,0.22 0,0 0.091,-0.134 0.123,-0.52 0.033,-0.385 -0.079,-0.635 -0.079,-0.635 0,0 0.101,0.117 0.197,0.232 0.097,0.115 0.162,0.17 0.162,0.17 0,0 0.129,-0.067 0.265,-0.194 0.135,-0.126 0.214,-0.306 0.214,-0.306 0,0 0.067,0.197 -0.032,0.671 -0.109,0.521 -0.373,0.85 -0.373,0.85 0,0 0.176,-0.041 0.32,-0.135 0.144,-0.095 0.188,-0.162 0.188,-0.162 0,0 -0.082,0.544 0.059,0.624 0.07,0.039 0.254,-0.117 0.332,-0.304 0.08,-0.188 0.054,-0.408 0.054,-0.408 l 0.076,0.097 0.129,-0.259 c 0,0 0.039,0.297 0.171,0.303 0.098,0.005 0.267,-0.071 0.267,-0.071 0,0 -0.006,-0.373 0.547,-0.37 0.554,0.003 0.851,0.229 0.851,0.229 0,0 -0.285,0.03 -0.421,0.141 -0.135,0.112 -0.23,0.256 -0.23,0.256 0,0 0.136,-0.003 0.25,0.056 0.116,0.06 0.165,0.162 0.165,0.162 0,0 -0.776,-0.273 -0.912,0.439 -0.048,0.251 0.082,0.424 0.183,0.456 0.184,0.056 0.432,-0.206 0.432,-0.206 0,0 0.018,0.061 -0.011,0.158 -0.03,0.097 -0.116,0.191 -0.116,0.191 0,0 0.209,-0.117 0.439,-0.067 0.229,0.05 0.25,0.146 0.25,0.146 0,0 0.303,-0.152 0.68,-0.114 0.376,0.038 0.637,0.186 0.637,0.186 0,0 -0.206,0.023 -0.32,0.07 -0.115,0.047 -0.197,0.162 -0.197,0.162 0,0 0.335,-0.018 0.65,0.126 0.315,0.144 0.408,0.359 0.408,0.359 0,0 -0.452,-0.13 -0.835,-0.042 -0.382,0.089 -0.27,0.363 -0.27,0.363 0,0 -0.75,-0.262 -1.032,0.014 -0.283,0.277 -0.086,0.522 -0.086,0.522 0,0 -0.385,-0.289 -0.679,-0.26 -0.202,0.02 -0.321,0.105 -0.321,0.105 0,0 -0.256,-0.046 -0.335,-0.161 -0.079,-0.115 -0.006,-0.25 0.014,-0.336 0.021,-0.085 0.009,-0.223 -0.038,-0.226 -0.047,-0.003 -0.088,0.109 -0.159,0.024 -0.07,-0.086 0.268,-0.177 0.149,-0.371 -0.057,-0.092 -0.182,-0.035 -0.248,0.006 -0.098,0.06 -0.142,0.162 -0.142,0.488 0,0.731 -0.502,0.637 -0.502,0.637"/></g><g id="g36"><path id="path38" style="fill:#141414;fill-opacity:1;fill-rule:nonzero;stroke:none" d="m 19.8701,17.0996 c 0,0 0.036,0.453 0.183,1.095 0.147,0.641 -0.1,0.894 -0.259,1.153 -0.158,0.258 -0.041,0.741 -0.041,0.741 0,0 0.346,-0.22 0.472,-0.679 0.125,-0.458 0.154,-0.612 0.154,-0.612 0,0 -0.029,0.593 0.027,0.871 0.055,0.279 0.156,0.439 0.156,0.439 0,0 0.165,-0.407 0.165,-0.862 0,-0.63 0.353,-0.993 0.353,-0.993 0,0 -0.063,0.377 -0.043,0.722 0.02,0.345 0.188,0.651 0.188,0.651 0,0 0.22,-0.298 0.193,-0.851 -0.027,-0.553 -0.138,-0.675 -0.138,-0.675 0,0 0.055,0 0.107,0.028 0.05,0.027 0.109,0.125 0.109,0.125 0,0 0.051,-0.506 0.125,-0.902 0.075,-0.396 0.228,-0.619 0.228,-0.619 0,0 -0.106,0.49 0.047,1.086 0.153,0.596 -0.055,1.404 -0.055,1.404 0,0 0.116,0.178 0.111,0.657 -0.005,0.478 0.134,0.706 0.134,0.706 0,0 0.179,-0.476 0.234,-1.152 0.057,-0.677 -0.102,-0.979 -0.102,-0.979 0,0 0.044,-0.006 0.093,0 0.05,0.005 0.101,0.061 0.101,0.061 0,0 -0.033,-1.022 0.214,-1.756 0.325,-0.969 0.765,-0.921 0.765,-0.921 0,0 -0.337,0.566 -0.474,2.629 -0.081,1.205 -0.115,2.273 -0.115,2.273 0,0 0.189,0.125 0.259,-0.478 0.024,-0.197 -0.003,-0.426 0,-0.556 0.007,-0.267 0.021,-0.326 0.021,-0.326 0.015,0.009 0.129,0.422 0.224,0.203 0.209,-0.483 0.157,-1.394 0.157,-1.394 0,0 0.172,0.389 0.217,0.032 0.146,-1.168 0.726,-1.185 0.726,-1.185 0,0 -0.412,0.453 -0.415,1.299 -10e-4,0.559 -0.213,1.023 -0.303,1.371 -0.115,0.447 -0.106,0.718 -0.106,0.718 0,0 0.241,-0.197 0.482,-0.75 0.242,-0.553 0.291,-0.785 0.291,-0.785 0,0 0.042,0.161 -0.235,0.812 -0.161,0.38 -0.435,0.846 -0.435,0.846 0,0 0.159,-0.217 0.335,-0.373 0.177,-0.156 0.318,-0.223 0.318,-0.223 0,0 -0.003,0.135 -0.091,0.346 -0.088,0.212 -0.165,0.309 -0.165,0.309 0,0 0.142,-0.038 0.253,0.021 0.112,0.058 0.147,0.223 0.147,0.223 0,0 -0.385,-0.178 -0.593,0.233 -0.269,0.526 -0.174,0.926 -0.174,0.926 0,0 0.232,-0.158 0.432,-0.105 0.2,0.053 0.285,0.236 0.285,0.236 0,0 -0.458,-0.3 -0.787,0.431 -0.258,0.574 -0.671,0.535 -0.671,0.535 0,0 0.236,0.055 0.452,0.245 0.156,0.139 0.212,0.285 0.212,0.285 0,0 -0.216,-0.061 -0.452,-0.061 -0.183,0 -0.347,0.086 -0.347,0.086 0,0 0.069,0.112 0.104,0.287 0.035,0.174 0.031,0.266 0.031,0.266 0,0 -0.163,-0.219 -0.412,-0.376 -0.249,-0.157 -0.531,-0.152 -0.531,-0.152 0,0 0.076,0.071 0.14,0.187 0.062,0.116 0.064,0.2 0.064,0.2 0,0 -0.116,-0.202 -0.284,-0.257 -0.169,-0.055 -0.922,-0.251 -0.922,-0.572 0,-0.241 0.465,-0.324 0.465,-0.324 0,0 0.232,-0.155 -0.292,-0.765 -0.514,-0.596 -1.114,-0.11 -1.114,-0.11 0,0 0.051,-0.06 0.062,-0.137 0.011,-0.077 -0.012,-0.159 -0.012,-0.159 0,0 -0.151,-0.1 -0.316,0 -0.142,0.085 -0.343,-0.089 -0.343,-0.089 0,0 -0.028,0.054 -0.079,0.243 -0.048,0.181 -0.181,0.313 -0.269,0.385 -0.087,0.072 -0.137,0.136 -0.137,0.136 0,0 0.156,-0.053 0.227,0.023 0.07,0.077 0.094,0.216 0.094,0.216 0,0 -0.286,-0.261 -0.424,0.241 -0.167,0.606 0.289,0.548 0.289,0.548 0,0 -0.104,0.077 -0.096,0.208 0.006,0.098 0.07,0.161 0.07,0.161 l 0.121,-0.036 c 0,0 0.004,0.167 0.266,0.317 0.261,0.15 0.35,0.18 0.35,0.18 0,0 -0.032,0.057 -0.141,0.161 -0.08,0.075 -0.221,0.118 -0.221,0.118 l -0.813,-0.165 c 0,0 -0.077,-0.156 -0.222,-0.156 -0.145,0 -0.343,0.242 -0.343,0.242 0,0 0.161,-0.271 0.107,-0.355 -0.154,-0.236 -0.585,-0.261 -0.585,-0.261 0,0 0.407,-0.061 0.372,-0.241 -0.045,-0.233 -0.493,-0.192 -0.493,-0.192 0,0 0.686,-0.191 0.277,-0.691 -0.47,-0.575 -0.576,-1.074 -0.576,-1.074 0,0 -0.206,-0.224 -0.4,-0.324 -0.194,-0.1 -0.379,0.043 -0.379,0.043 0,0 -0.211,-0.363 -0.457,-0.292 -0.196,0.056 -0.203,0.29 -0.203,0.29 0,0 0.29,0.563 -0.102,1.033 -0.242,0.29 -0.471,0.435 -0.471,0.435 0,0 -0.519,-0.219 -0.802,-0.182 -0.185,0.024 -0.327,0.216 -0.327,0.216 0,0 -0.373,-0.426 -0.579,-0.346 -0.151,0.059 -0.247,0.177 -0.247,0.177 0,0 -0.004,-0.084 0.045,-0.198 0.049,-0.114 0.145,-0.21 0.145,-0.21 0,0 -0.121,0.012 -0.252,0.14 -0.132,0.127 -0.144,0.176 -0.144,0.176 0,0 -0.025,-0.18 0.088,-0.328 0.114,-0.147 0.22,-0.182 0.22,-0.182 0,0 -0.089,-0.112 -0.31,-0.159 -0.221,-0.047 -0.488,-0.003 -0.488,-0.003 0,0 0.08,-0.099 0.318,-0.22 0.237,-0.122 0.47,-0.096 0.47,-0.096 0,0 -0.05,-0.292 -0.39,-0.304 -0.38,-0.014 -0.594,0.166 -0.594,0.166 0,0 0.084,-0.188 0.265,-0.331 0.18,-0.143 0.451,-0.171 0.451,-0.171 0,0 -0.033,-0.086 -0.379,-0.337 -0.162,-0.118 -0.32,-0.321 -0.33,-0.524 -0.015,-0.307 -0.095,-0.409 -0.095,-0.409 0,0 0.1,0.016 0.247,0.106 0.147,0.09 0.223,0.204 0.223,0.204 0,0 -0.049,-0.12 -0.043,-0.192 0.006,-0.073 0.049,-0.14 0.049,-0.14 0,0 -0.259,-0.357 -0.32,-0.782 -0.094,-0.647 -0.404,-0.824 -0.404,-0.824 0,0 0.533,0.124 0.624,0.462 0.091,0.338 0.488,0.553 0.488,0.553 0,0 -0.023,-0.367 -0.054,-0.465 -0.057,-0.172 -0.127,-0.064 -0.158,-0.147 -0.025,-0.067 -0.039,-0.206 -0.039,-0.206 0,0 0.147,0.287 0.184,0.075 0.217,-1.232 -0.56,-2.268 -0.56,-2.268 0,0 0.063,0.014 0.151,0.073 0.088,0.059 0.139,0.135 0.139,0.135 0,0 0.045,-0.043 0.041,-0.152 -0.004,-0.111 -0.054,-0.242 -0.054,-0.242 0,0 0.131,0.14 0.286,0.281 0.292,0.264 0.355,0.931 0.355,0.931 0,0 0.033,0 0.056,-0.063 0.024,-0.063 0.038,-0.156 0.038,-0.156 0,0 -0.021,0.482 0.126,0.79 0.147,0.308 0.211,0.311 0.211,0.311 0,0 0.055,-0.194 -0.031,-0.551 -0.087,-0.357 0.058,-0.388 -0.039,-0.91 -0.114,-0.607 -0.483,-1.09 -0.483,-1.09 0,0 0.061,0.061 0.114,0.078 0.053,0.018 0.098,0.016 0.098,0.016 0,0 -0.043,-0.129 -0.143,-0.308 -0.1,-0.178 -0.232,-0.364 -0.232,-0.364 0,0 0.193,0.096 0.402,0.277 0.21,0.179 0.328,0.411 0.328,0.411 0,0 -0.006,-0.09 0.019,-0.137 0.026,-0.047 0.081,-0.051 0.081,-0.051 0,0 -0.032,0.251 0.149,0.694 0.18,0.443 0.078,0.749 0.078,0.749 0,0 0.165,0.361 0.247,0.827 0.068,0.386 0.314,0.946 0.314,0.946 0,0 0.118,-0.293 0.132,-0.64 0.015,-0.347 0.062,-0.567 0.083,-0.785 0.02,-0.218 -0.009,-0.391 -0.009,-0.391 0,0 0.138,0.267 0.218,0.546 0.079,0.28 0.09,0.565 0.09,0.565 0,0 0.043,-0.041 0.072,-0.084 0.028,-0.044 0.04,-0.105 0.04,-0.105 0,0 0.047,0.177 -0.012,0.363 -0.094,0.295 0.001,0.367 0.001,0.367 0,0 0.243,0.07 0.323,-0.205 0.066,-0.231 0.337,-0.306 0.337,-0.306 0,0 0.057,-0.223 -0.022,-0.45 -0.079,-0.227 -0.285,-0.421 -0.285,-0.421 0,0 0.479,0.068 0.72,0.389 0.242,0.32 0.297,0.57 0.297,0.57 0,0 0.106,-0.103 0.042,-0.394 -0.065,-0.291 -0.256,-0.594 -0.256,-0.594 0,0 0.354,0.178 0.55,0.582 0.285,0.592 0.859,0.55 0.859,0.55 0,0 -0.336,-0.185 -0.521,-0.582 -0.186,-0.397 -0.603,-0.691 -0.603,-0.691 0,0 0.406,0.018 0.718,0.403 0.311,0.385 0.547,0.57 0.547,0.57 0,0 -0.309,-0.852 -0.753,-1.021 -0.612,-0.232 -1.259,0.127 -1.259,0.127 0,0 0.121,-0.467 0.397,-0.482 0.276,-0.015 0.373,0.12 0.732,0.206 0.359,0.085 0.696,0.107 0.768,-0.018 0.141,-0.247 -0.206,-0.947 -0.206,-0.947 0,0 0.135,0.12 0.415,0.361 0.279,0.242 0.238,0.613 0.156,0.889 -0.083,0.276 0.003,0.582 0.003,0.582 0,0 -0.021,-0.338 0.108,-0.721 0.129,-0.381 -0.108,-0.826 -0.108,-0.826 0,0 0.24,0.073 0.385,0.323 0.144,0.25 0.111,0.563 0.111,0.563 0,0 0.136,0.006 0.127,-0.235 -0.009,-0.242 -0.058,-0.404 -0.058,-0.404 0,0 0.511,0.494 0.482,0.868 -0.024,0.291 0.081,0.335 0.081,0.335 0,0 0.036,-0.097 0.143,-0.206 0.105,-0.108 0.231,-0.15 0.231,-0.15"/></g><g id="g40"><path id="path42" style="fill:#e21c2a;fill-opacity:1;fill-rule:nonzero;stroke:none" d="m 14.9414,22.6416 -0.062,-1.571 c 0,0 -0.205,-0.72 -0.815,-0.72 -0.248,0 -0.599,0.163 -0.599,0.476 0,0.344 0.586,0.414 0.586,0.414 0,0 0.318,-0.035 0.526,0.045 0.156,0.06 0.217,0.221 0.217,0.312 0,0.209 -0.192,0.356 -0.371,0.356 -0.178,0 -0.302,-0.12 -0.302,-0.295 0,-0.175 0.13,-0.266 0.234,-0.266 0.104,0 0.186,0.098 0.186,0.169 0,0.071 -0.061,0.103 -0.061,0.103 0,0 -0.004,-0.184 -0.109,-0.184 -0.07,0 -0.155,0.102 -0.156,0.209 0,0.087 0.081,0.185 0.135,0.193 0.194,0.031 0.367,-0.083 0.363,-0.319 -0.003,-0.235 -0.198,-0.297 -0.35,-0.297 -0.09,0 -0.162,0.027 -0.312,0.027 -0.15,0 -0.44,-0.013 -0.567,-0.096 -0.227,-0.15 -0.282,-0.486 -0.033,-0.707 0.355,-0.316 0.729,-0.288 0.984,-0.148 0.255,0.14 0.436,0.377 0.436,0.377 l 0.017,-0.009 c 0,0 -0.008,-0.056 -0.067,-0.166 -0.162,-0.303 -0.06,-0.666 -0.06,-0.666 0,0 0.047,-0.081 0.093,-0.236 0.046,-0.155 0.066,-0.293 0.066,-0.293 0,0 0.032,0.136 0.083,0.281 0.051,0.144 0.105,0.248 0.105,0.248 0,0 0.105,0.339 -0.007,0.592 -0.072,0.159 -0.087,0.232 -0.087,0.232 l 0.02,0.008 c 0,0 0.335,-0.512 0.83,-0.512 0.496,0 0.756,0.347 0.756,0.575 0,0.13 -0.069,0.283 -0.195,0.363 -0.113,0.073 -0.378,0.111 -0.564,0.111 -0.169,0 -0.203,-0.012 -0.294,-0.012 -0.209,0 -0.339,0.129 -0.339,0.318 0,0.163 0.122,0.308 0.303,0.308 0.141,0 0.2,-0.119 0.2,-0.201 0,-0.087 -0.061,-0.207 -0.164,-0.207 -0.103,0 -0.101,0.178 -0.101,0.178 0,0 -0.065,-0.021 -0.065,-0.094 0,-0.072 0.075,-0.175 0.187,-0.175 0.114,0 0.238,0.099 0.238,0.285 0,0.186 -0.158,0.28 -0.301,0.28 -0.143,0 -0.374,-0.109 -0.374,-0.352 0,-0.114 0.075,-0.249 0.216,-0.31 0.206,-0.089 0.507,-0.07 0.507,-0.07 0,0 0.567,-0.09 0.567,-0.428 0,-0.337 -0.375,-0.448 -0.572,-0.448 -0.155,0 -0.378,0.065 -0.574,0.253 -0.193,0.187 -0.303,0.498 -0.303,0.498 l 0.05,1.57 0.102,0.084 1.571,-0.062 c 0,0 0.719,-0.205 0.719,-0.816 0,-0.247 -0.163,-0.598 -0.476,-0.598 -0.344,0 -0.413,0.586 -0.413,0.586 0,0 0.034,0.318 -0.045,0.525 -0.061,0.157 -0.222,0.217 -0.312,0.217 -0.209,0 -0.356,-0.192 -0.356,-0.37 0,-0.178 0.119,-0.302 0.294,-0.302 0.175,0 0.267,0.13 0.267,0.234 0,0.104 -0.098,0.186 -0.169,0.186 -0.072,0 -0.104,-0.061 -0.104,-0.061 0,0 0.184,-0.004 0.184,-0.109 0,-0.071 -0.102,-0.155 -0.209,-0.156 -0.087,-0.001 -0.184,0.081 -0.193,0.134 -0.031,0.194 0.083,0.368 0.319,0.364 0.235,-0.004 0.298,-0.199 0.298,-0.35 0,-0.09 -0.027,-0.162 -0.027,-0.312 0,-0.15 0.012,-0.44 0.095,-0.568 0.15,-0.227 0.486,-0.281 0.708,-0.032 0.315,0.355 0.287,0.729 0.147,0.984 -0.14,0.255 -0.377,0.436 -0.377,0.436 l 0.009,0.017 c 0,0 0.057,-0.009 0.166,-0.067 0.304,-0.163 0.666,-0.061 0.666,-0.061 0,0 0.081,0.047 0.236,0.094 0.155,0.046 0.293,0.066 0.293,0.066 0,0 -0.136,0.031 -0.281,0.083 -0.144,0.05 -0.248,0.105 -0.248,0.105 0,0 -0.339,0.105 -0.591,-0.008 -0.16,-0.072 -0.233,-0.087 -0.233,-0.087 l -0.008,0.02 c 0,0 0.512,0.335 0.512,0.831 0,0.496 -0.347,0.755 -0.575,0.755 -0.13,0 -0.282,-0.069 -0.363,-0.194 -0.073,-0.114 -0.111,-0.378 -0.111,-0.564 0,-0.169 0.012,-0.204 0.012,-0.295 0,-0.209 -0.129,-0.339 -0.318,-0.339 -0.163,0 -0.308,0.123 -0.308,0.304 0,0.14 0.119,0.2 0.201,0.2 0.087,0 0.208,-0.061 0.208,-0.165 0,-0.103 -0.179,-0.101 -0.179,-0.101 0,0 0.021,-0.065 0.094,-0.065 0.072,0 0.175,0.075 0.175,0.188 0,0.113 -0.099,0.237 -0.285,0.237 -0.186,0 -0.279,-0.158 -0.279,-0.3 0,-0.143 0.108,-0.374 0.352,-0.374 0.113,0 0.249,0.074 0.31,0.215 0.088,0.207 0.069,0.507 0.069,0.507 0,0 0.09,0.568 0.428,0.568 0.338,0 0.448,-0.375 0.448,-0.572 0,-0.156 -0.065,-0.379 -0.253,-0.574 -0.187,-0.193 -0.497,-0.304 -0.497,-0.304 l -1.57,0.051 -0.084,0.101 0.062,1.571 c 0,0 0.204,0.719 0.815,0.719 0.248,0 0.598,-0.162 0.598,-0.475 0,-0.344 -0.586,-0.414 -0.586,-0.414 0,0 -0.318,0.035 -0.525,-0.045 -0.157,-0.06 -0.217,-0.222 -0.217,-0.311 0,-0.21 0.192,-0.357 0.371,-0.357 0.178,0 0.301,0.119 0.301,0.295 0,0.174 -0.129,0.266 -0.233,0.266 -0.104,0 -0.186,-0.097 -0.186,-0.169 0,-0.071 0.061,-0.104 0.061,-0.104 0,0 0.003,0.185 0.109,0.185 0.07,0 0.154,-0.103 0.155,-0.21 10e-4,-0.086 -0.08,-0.184 -0.134,-0.193 -0.194,-0.031 -0.367,0.084 -0.363,0.319 0.004,0.236 0.198,0.298 0.349,0.298 0.091,0 0.162,-0.027 0.312,-0.027 0.15,0 0.441,0.013 0.568,0.096 0.227,0.15 0.281,0.485 0.032,0.707 -0.355,0.315 -0.729,0.288 -0.984,0.147 -0.254,-0.14 -0.436,-0.376 -0.436,-0.376 l -0.016,0.009 c 0,0 0.008,0.056 0.066,0.165 0.163,0.304 0.061,0.667 0.061,0.667 0,0 -0.047,0.08 -0.093,0.235 -0.047,0.155 -0.067,0.293 -0.067,0.293 0,0 -0.031,-0.136 -0.082,-0.28 -0.051,-0.145 -0.105,-0.248 -0.105,-0.248 0,0 -0.106,-0.34 0.007,-0.592 0.072,-0.16 0.087,-0.232 0.087,-0.232 l -0.02,-0.008 c 0,0 -0.335,0.512 -0.831,0.512 -0.496,0 -0.755,-0.348 -0.755,-0.575 0,-0.13 0.069,-0.283 0.194,-0.363 0.114,-0.074 0.379,-0.112 0.564,-0.112 0.169,0 0.204,0.012 0.295,0.012 0.209,0 0.339,-0.128 0.339,-0.317 0,-0.164 -0.123,-0.309 -0.304,-0.309 -0.14,0 -0.199,0.12 -0.199,0.202 0,0.087 0.061,0.207 0.164,0.207 0.103,0 0.101,-0.179 0.101,-0.179 0,0 0.065,0.021 0.065,0.094 0,0.073 -0.075,0.175 -0.188,0.175 -0.113,0 -0.237,-0.099 -0.237,-0.285 0,-0.186 0.158,-0.278 0.301,-0.278 0.142,0 0.373,0.108 0.373,0.351 0,0.113 -0.074,0.249 -0.215,0.31 -0.207,0.089 -0.507,0.069 -0.507,0.069 0,0 -0.567,0.091 -0.567,0.428 0,0.338 0.375,0.448 0.572,0.448 0.155,0 0.378,-0.064 0.573,-0.252 0.194,-0.187 0.304,-0.498 0.304,-0.498 l -0.05,-1.57 -0.102,-0.083 -1.571,0.061 c 0,0 -0.719,0.205 -0.719,0.816 0,0.248 0.163,0.598 0.476,0.598 0.343,0 0.414,-0.586 0.414,-0.586 0,0 -0.036,-0.318 0.045,-0.526 0.06,-0.156 0.221,-0.216 0.311,-0.216 0.209,0 0.356,0.192 0.356,0.37 0,0.178 -0.119,0.302 -0.294,0.302 -0.175,0 -0.267,-0.13 -0.267,-0.234 0,-0.103 0.098,-0.186 0.169,-0.186 0.072,0 0.104,0.061 0.104,0.061 0,0 -0.185,0.004 -0.185,0.109 0,0.07 0.103,0.155 0.21,0.156 0.086,0 0.184,-0.081 0.193,-0.135 0.031,-0.193 -0.084,-0.367 -0.319,-0.363 -0.236,0.004 -0.298,0.198 -0.298,0.35 0,0.09 0.027,0.162 0.027,0.312 0,0.15 -0.012,0.44 -0.096,0.567 -0.15,0.227 -0.485,0.282 -0.706,0.033 -0.316,-0.355 -0.288,-0.729 -0.148,-0.984 0.14,-0.255 0.377,-0.436 0.377,-0.436 l -0.01,-0.017 c 0,0 -0.056,0.008 -0.165,0.067 -0.304,0.162 -0.667,0.06 -0.667,0.06 0,0 -0.08,-0.047 -0.235,-0.093 -0.155,-0.046 -0.293,-0.066 -0.293,-0.066 0,0 0.136,-0.031 0.28,-0.082 0.145,-0.052 0.248,-0.106 0.248,-0.106 0,0 0.34,-0.105 0.592,0.008 0.16,0.071 0.233,0.086 0.233,0.086 l 0.007,-0.02 c 0,0 -0.511,-0.335 -0.511,-0.83 0,-0.496 0.347,-0.756 0.574,-0.756 0.13,0 0.283,0.069 0.364,0.195 0.073,0.114 0.111,0.378 0.111,0.564 0,0.169 -0.012,0.203 -0.012,0.294 0,0.21 0.129,0.34 0.318,0.34 0.163,0 0.308,-0.123 0.308,-0.304 0,-0.141 -0.119,-0.2 -0.201,-0.2 -0.087,0 -0.208,0.061 -0.208,0.164 0,0.103 0.179,0.101 0.179,0.101 0,0 -0.021,0.065 -0.094,0.065 -0.073,0 -0.175,-0.074 -0.175,-0.187 0,-0.114 0.099,-0.238 0.285,-0.238 0.186,0 0.279,0.159 0.279,0.301 0,0.143 -0.109,0.374 -0.352,0.374 -0.113,0 -0.249,-0.075 -0.31,-0.216 -0.088,-0.206 -0.069,-0.506 -0.069,-0.506 0,0 -0.09,-0.568 -0.428,-0.568 -0.338,0 -0.448,0.375 -0.448,0.572 0,0.155 0.064,0.378 0.253,0.574 0.186,0.193 0.497,0.303 0.497,0.303 l 1.57,-0.05 z"/></g></g></g></g></svg>