<svg xmlns:dc="http://purl.org/dc/elements/1.1/" xmlns:cc="http://creativecommons.org/ns#" xmlns:rdf="http://www.w3.org/1999/02/22-rdf-syntax-ns#" xmlns:svg="http://www.w3.org/2000/svg" xmlns="http://www.w3.org/2000/svg" viewBox="0 0 45 45" style="enable-background:new 0 0 45 45;" xml:space="preserve" version="1.1" id="svg2"><metadata id="metadata8"><rdf:RDF><cc:Work rdf:about=""><dc:format>image/svg+xml</dc:format><dc:type rdf:resource="http://purl.org/dc/dcmitype/StillImage"/></cc:Work></rdf:RDF></metadata><defs id="defs6"><clipPath id="clipPath16" clipPathUnits="userSpaceOnUse"><path id="path18" d="M 4,31 C 1.791,31 0,29.209 0,27 L 0,27 0,9 C 0,6.791 1.791,5 4,5 l 0,0 28,0 c 2.209,0 4,1.791 4,4 l 0,0 0,18 c 0,2.209 -1.791,4 -4,4 l 0,0 -28,0 z"/></clipPath></defs><g transform="matrix(1.25,0,0,-1.25,0,45)" id="g10"><g id="g12"><g clip-path="url(#clipPath16)" id="g14"><g id="g20"><path id="path22" style="fill:#eeeeee;fill-opacity:1;fill-rule:nonzero;stroke:none" d="M 0,5 H 36 V 30.998 H 0 Z"/></g><g id="g24"><path id="path26" style="fill:#0327a1;fill-opacity:1;fill-rule:nonzero;stroke:none" d="M 0,5 H 36 V 7 H 0 Z"/></g><g id="g28"><path id="path30" style="fill:#0327a1;fill-opacity:1;fill-rule:nonzero;stroke:none" d="m 0,9 h 36 v 2 H 0 Z"/></g><g id="g32"><path id="path34" style="fill:#0327a1;fill-opacity:1;fill-rule:nonzero;stroke:none" d="m 0,13 h 36 v 2 H 0 Z"/></g><g id="g36"><path id="path38" style="fill:#0327a1;fill-opacity:1;fill-rule:nonzero;stroke:none" d="m 0,17 h 36 v 2 H 0 Z"/></g><g id="g40"><path id="path42" style="fill:#0327a1;fill-opacity:1;fill-rule:nonzero;stroke:none" d="m 10,21 h 26 v 2 H 10 Z"/></g><g id="g44"><path id="path46" style="fill:#0327a1;fill-opacity:1;fill-rule:nonzero;stroke:none" d="m 10,24.999 h 26 v 2 H 10 Z"/></g><g id="g48"><path id="path50" style="fill:#0327a1;fill-opacity:1;fill-rule:nonzero;stroke:none" d="m 10,28.999 h 26 v 2 H 10 Z"/></g><g id="g52"><path id="path54" style="fill:#d80202;fill-opacity:1;fill-rule:nonzero;stroke:none" d="m 0,21 h 10 v 9.999 H 0 Z"/></g><g id="g56"><path id="path58" style="fill:#141414;fill-opacity:1;fill-rule:nonzero;stroke:none" d="m 9.3901,25.999 c 0,2.425 -1.965,4.391 -4.39,4.391 -2.425,0 -4.391,-1.966 -4.391,-4.391 0,-2.425 1.966,-4.39 4.391,-4.39 2.425,0 4.39,1.965 4.39,4.39"/></g><g id="g60"><path id="path62" style="fill:#ff8503;fill-opacity:1;fill-rule:nonzero;stroke:none" d="m 9.188,25.999 c 0,2.313 -1.875,4.188 -4.188,4.188 -2.313,0 -4.188,-1.875 -4.188,-4.188 0,-2.313 1.875,-4.188 4.188,-4.188 2.313,0 4.188,1.875 4.188,4.188"/></g><g id="g64"><path id="path66" style="fill:#141414;fill-opacity:1;fill-rule:nonzero;stroke:none" d="m 8.2705,25.999 c 0,1.807 -1.464,3.271 -3.271,3.271 -1.806,0 -3.271,-1.464 -3.271,-3.271 0,-1.806 1.465,-3.271 3.271,-3.271 1.807,0 3.271,1.465 3.271,3.271"/></g><g id="g68"><path id="path70" style="fill:#eeeeee;fill-opacity:1;fill-rule:nonzero;stroke:none" d="m 8.1509,25.999 c 0,1.74 -1.411,3.151 -3.151,3.151 -1.74,0 -3.151,-1.411 -3.151,-3.151 0,-1.74 1.411,-3.151 3.151,-3.151 1.74,0 3.151,1.411 3.151,3.151"/></g><g id="g72"><path id="path74" style="fill:#0262d0;fill-opacity:1;fill-rule:nonzero;stroke:none" d="m 7.6587,24.3076 c -0.062,-0.096 -0.127,-0.189 -0.199,-0.277 h -4.92 c -0.071,0.088 -0.137,0.181 -0.199,0.277 z"/></g><g id="g76"><path id="path78" style="fill:#0262d0;fill-opacity:1;fill-rule:nonzero;stroke:none" d="m 7.9399,24.8633 c -0.037,-0.095 -0.078,-0.187 -0.123,-0.278 h -5.634 c -0.045,0.091 -0.086,0.183 -0.123,0.278 z"/></g><g id="g80"><path id="path82" style="fill:#0262d0;fill-opacity:1;fill-rule:nonzero;stroke:none" d="m 8.0972,25.4184 c -0.018,-0.094 -0.039,-0.187 -0.065,-0.278 h -6.065 c -0.026,0.091 -0.047,0.184 -0.064,0.278 z"/></g><g id="g84"><path id="path86" style="fill:#0262d0;fill-opacity:1;fill-rule:nonzero;stroke:none" d="m 8.1504,25.9736 c 0,-0.093 -0.005,-0.186 -0.014,-0.277 h -6.273 c -0.009,0.091 -0.014,0.184 -0.014,0.277 z"/></g><g id="g88"><path id="path90" style="fill:#0262d0;fill-opacity:1;fill-rule:nonzero;stroke:none" d="m 8.1406,26.251 h -6.282 c 0.008,0.094 0.019,0.187 0.035,0.278 h 6.213 c 0.015,-0.091 0.027,-0.184 0.034,-0.278"/></g><g id="g92"><path id="path94" style="fill:#0262d0;fill-opacity:1;fill-rule:nonzero;stroke:none" d="m 8.0464,26.8066 h -6.093 c 0.025,0.095 0.054,0.187 0.088,0.277 h 5.918 c 0.033,-0.09 0.062,-0.182 0.087,-0.277"/></g><g id="g96"><path id="path98" style="fill:#0262d0;fill-opacity:1;fill-rule:nonzero;stroke:none" d="m 7.8418,27.3623 h -5.684 c 0.046,0.095 0.097,0.188 0.151,0.277 h 5.382 c 0.054,-0.089 0.105,-0.182 0.151,-0.277"/></g></g></g></g></svg>