<svg xmlns:dc="http://purl.org/dc/elements/1.1/" xmlns:cc="http://creativecommons.org/ns#" xmlns:rdf="http://www.w3.org/1999/02/22-rdf-syntax-ns#" xmlns:svg="http://www.w3.org/2000/svg" xmlns="http://www.w3.org/2000/svg" viewBox="0 0 45 45" style="enable-background:new 0 0 45 45;" xml:space="preserve" version="1.1" id="svg2"><metadata id="metadata8"><rdf:RDF><cc:Work rdf:about=""><dc:format>image/svg+xml</dc:format><dc:type rdf:resource="http://purl.org/dc/dcmitype/StillImage"/></cc:Work></rdf:RDF></metadata><defs id="defs6"><clipPath id="clipPath16" clipPathUnits="userSpaceOnUse"><path id="path18" d="M 4,31 C 1.791,31 0,29.209 0,27 L 0,27 0,9 C 0,6.791 1.791,5 4,5 l 0,0 28,0 c 2.209,0 4,1.791 4,4 l 0,0 0,18 c 0,2.209 -1.791,4 -4,4 l 0,0 -28,0 z"/></clipPath></defs><g transform="matrix(1.25,0,0,-1.25,0,45)" id="g10"><g id="g12"><g clip-path="url(#clipPath16)" id="g14"><path id="path20" style="fill:#ffd02f;fill-opacity:1;fill-rule:nonzero;stroke:none" d="M 0,5 36,5 36,31 0,31 0,5 Z"/></g></g><g xmlns="http://www.w3.org/2000/svg" transform="translate(-5.3,-4.5)" id="g22"><path xmlns="http://www.w3.org/2000/svg" xmlns:inkscape="http://www.inkscape.org/namespaces/inkscape" id="path22" style="fill:#ff3517;fill-opacity:1;fill-rule:nonzero;stroke:none" inkscape:connector-curvature="0" d="m 22.962472,13.4043 v 7.888 l -3.083,-4.274 -0.444,0.388 3.502,4.856 -4.119,5.709 c 0,0 -0.206,-0.157 -0.34,-0.351 -0.116,-0.166 -0.146,-0.436 -0.102,-0.663 0.133,-0.695 1.012,-1.496 1.012,-1.496 0,0 -1.83,-0.467 -3.106,1.221 -1.312,1.735 -0.294,3.667 -0.294,3.667 0,0 0.627,-1.553 1.41,-1.91 0.435,-0.199 0.948,0.187 0.948,0.187 0,0 -0.444,0.605 -0.661,1.032 -0.218,0.428 -0.526,1.301 -0.526,1.301 0,0 0.434,-0.409 0.808,-0.853 0.374,-0.445 0.87,-1.14 0.87,-1.14 l 0.241,0.171 0.471,-0.614 -0.257,-0.195 3.669,-5.093 v 5.57 h -1.128 v -0.725 h -0.627 v 0.725 h -0.755 v 0.587 h 0.755 v 0.725 h 0.627 v -0.725 h 1.128 v 1.228 h -0.685 v 0.677 h 0.685 v 0.735 h 0.677 v -0.735 h 0.685 v -0.677 h -0.685 v -1.228 h 1.128 v 0.725 h 0.626 v -0.725 h 0.756 v -0.587 h -0.756 v -0.725 h -0.626 v 0.725 h -1.128 v -5.57 l 3.669,5.093 -0.258,0.195 0.472,0.614 0.241,-0.171 c 0,0 0.495,0.695 0.869,1.14 0.374,0.444 0.809,0.853 0.809,0.853 0,0 -0.309,-0.873 -0.526,-1.301 -0.218,-0.427 -0.661,-1.032 -0.661,-1.032 0,0 0.513,-0.386 0.948,-0.187 0.783,0.357 1.41,1.91 1.41,1.91 0,0 1.018,-1.932 -0.294,-3.667 -1.276,-1.688 -3.105,-1.221 -3.105,-1.221 0,0 0.877,0.801 1.011,1.496 0.043,0.227 0.014,0.497 -0.101,0.663 -0.135,0.194 -0.341,0.351 -0.341,0.351 l -4.119,-5.709 3.502,-4.856 -0.445,-0.388 -3.082,4.274 v -7.888 z"/></g></g></svg>