<svg xmlns="http://www.w3.org/2000/svg" viewBox="0 0 45 45"><path fill="#eeeeee" d="m 45,33.75 c 0,2.76125 -2.23875,5 -5,5 H 5 c -2.76125,0 -5,-2.23875 -5,-5 v -22.5 c 0,-2.76125 2.23875,-5 5,-5 h 35 c 2.76125,0 5,2.23875 5,5 z"/><path fill="#037b00" d="m 32.43,32.04 c 0,1.36 -1.11,2.46 -2.46,2.46 H 15.03 c -1.35,0 -2.46,-1.1 -2.46,-2.46 0,-1.22 0.28,-2.16 0.28,-2.16 h 19.3 c 0,0 0.28,0.94 0.28,2.16 z"/><path fill="#feff01" d="m 32.15,29.88 h -19.3 l 5.28,-16.869999 v -0.02 h 0.01 c 0.58,-1.86 2.31,-3.2000001 4.36,-3.2000001 2.05,0 3.78,1.3400001 4.36,3.2000001 h 0.01 v 0.02 z"/><path fill="#fb7900" d="m 32.15,29.88 c 0,0 -0.84,2.54 -3.84,2.54 H 16.69 c -3,0 -3.84,-2.54 -3.84,-2.54 z"/><path fill="#037b00" d="m 25.14,14.530001 4.3,15.35 h -2.05 l 0.39,1.4 H 17.22 l 0.39,-1.4 h -2.05 l 4.3,-15.35 1.02,3.66 1.62,-5.78 1.62,5.78 z"/><path fill="#fff9fe" d="m 27.5,24.041251 h -10 v 2.95875 h 0.91625 v 2.91625 h 8.1675 v -2.91625 H 27.5 Z"/><path fill="#141414" d="m 25.867496,26.19125 h 1.016251 V 24.2775 h -1.016251 z"/><path fill="#141414" d="m 19.132748,24.277252 h -1.01625 v 1.91375 h 1.01625 z"/><path fill="#ff0103" d="m 24.81,20.650001 4.46,3.39 H 15.73 l 4.46,-3.39 z"/><path fill="#fb7900" d="m 21.57875,31.28 v -0.94625 c 0,0 -2.45375,-1.79125 -1.55875,-4.89625 0.895,-3.104999 2.47875,-4.562499 2.47875,-4.562499 0,0 1.58375,1.45875 2.47875,4.562499 0.895,3.10375 -1.55875,4.89625 -1.55875,4.89625 V 31.28 Z"/></svg>