<svg xmlns:dc="http://purl.org/dc/elements/1.1/" xmlns:cc="http://creativecommons.org/ns#" xmlns:rdf="http://www.w3.org/1999/02/22-rdf-syntax-ns#" xmlns:svg="http://www.w3.org/2000/svg" xmlns="http://www.w3.org/2000/svg" viewBox="0 0 45 45" style="enable-background:new 0 0 45 45;" xml:space="preserve" version="1.1" id="svg2"><metadata id="metadata8"><rdf:RDF><cc:Work rdf:about=""><dc:format>image/svg+xml</dc:format><dc:type rdf:resource="http://purl.org/dc/dcmitype/StillImage"/></cc:Work></rdf:RDF></metadata><defs id="defs6"><clipPath id="clipPath16" clipPathUnits="userSpaceOnUse"><path id="path18" d="M 4,31 C 1.791,31 0,29.209 0,27 L 0,27 0,9 C 0,6.791 1.791,5 4,5 l 0,0 28,0 c 2.209,0 4,1.791 4,4 l 0,0 0,18 c 0,2.209 -1.791,4 -4,4 l 0,0 -28,0 z"/></clipPath></defs><g transform="matrix(1.25,0,0,-1.25,0,45)" id="g10"><g id="g12"><g xmlns="http://www.w3.org/2000/svg" clip-path="url(#clipPath16)" id="g14"><path id="path20" style="fill:#eeeeee;fill-opacity:1;fill-rule:nonzero;stroke:none" d="M 36,31 0,31 0,27 0,5 36,5 36,31 z"/><g id="g30"><path id="path30" style="fill:#fcef3c;fill-opacity:1;fill-rule:nonzero;stroke:none" d="m 9.0015,17.7275 0.269,-0.133 c 0,0 -0.027,0.074 0.216,0.102 0.243,0.027 0.369,-0.102 0.369,-0.102 l 0.204,0.168 0.203,-0.639 0,-1.086 -0.176,0.157 c 0,0 0.008,-0.13 -0.043,-0.22 -0.051,-0.09 -0.216,-0.13 -0.216,-0.13 0,0 0.133,-0.596 0.216,-0.666 0.082,-0.071 0.255,0.035 0.325,-0.083 0.071,-0.117 -0.309,-0.263 -0.309,-0.263 l -0.204,0.072 c 0,0 -0.087,0.251 -0.224,0.368 -0.137,0.118 -0.31,0.22 -0.31,0.22 0,0 -0.063,-0.094 -0.008,-0.236 0.055,-0.141 -0.019,-0.255 -0.019,-0.255 l 0.333,-0.243 c 0,0 -0.074,-0.149 -0.215,-0.157 -0.142,-0.008 -0.091,-0.164 -0.091,-0.164 0,0 0.228,-0.064 0.283,-0.189 0.055,-0.125 0.015,-0.188 0.015,-0.188 0,0 -0.259,-0.066 -0.435,0.063 -0.177,0.129 -0.451,0.208 -0.451,0.208 0,0 0.082,0.427 0,0.627 -0.083,0.201 -0.161,0.275 -0.161,0.275 l 0.498,0.043 -0.208,2.086 0.139,0.365 z"/><path id="path31" style="fill:#fcef3c;fill-opacity:1;fill-rule:nonzero;stroke:none" d="m 8.2866,16.7119 c 0,0 0.2,-0.306 0.179,-0.433 -0.02,-0.126 -0.076,-0.176 -0.055,-0.291 0.02,-0.115 0.114,-0.377 0.114,-0.377 0,0 -0.044,-0.02 -0.188,0.019 -0.144,0.038 -0.256,0.094 -0.256,0.094 0,0 -0.006,-0.151 -0.044,-0.25 -0.039,-0.101 -0.103,-0.171 -0.103,-0.171 0,0 0.023,-0.189 0.067,-0.189 0.045,0 0.239,0.086 0.298,-0.032 0.058,-0.117 -0.2,-0.276 -0.2,-0.276 l -0.256,0 0.017,-0.212 c 0,0 -0.088,-0.106 -0.15,-0.076 -0.062,0.029 -0.267,-0.212 -0.432,-0.23 -0.165,-0.017 -0.253,0.095 -0.212,0.171 0.041,0.076 0.242,0.152 0.242,0.152 0,0 0,0.086 0.029,0.119 0.029,0.032 0.103,0.076 0.103,0.076 0,0 0.041,0.058 0.029,0.168 -0.012,0.108 -0.056,0.206 -0.056,0.206 0,0 -0.038,-0.024 -0.088,0.017 -0.05,0.041 -0.065,0.215 -0.065,0.215 0,0 -0.118,-0.097 -0.25,-0.141 -0.132,-0.044 -0.25,-0.047 -0.25,-0.047 0,0 0.094,-0.321 0.118,-0.341 0.023,-0.022 0.2,0.029 0.276,-0.048 0.077,-0.076 -0.17,-0.253 -0.238,-0.247 -0.067,0.006 -0.276,0.062 -0.276,0.062 0,0 -0.25,0.521 -0.194,0.626 0.055,0.107 0.217,0.136 0.217,0.136 0,0 0.08,0.109 0.097,0.253 0.018,0.144 -0.07,0.256 -0.07,0.256 0,0 -0.195,-0.253 -0.486,-0.253 -0.291,0 -0.309,0.402 -0.309,0.402 0,0 -0.164,0.092 -0.117,0.31 0.047,0.217 0.223,0.226 0.223,0.226 l -0.123,0.297 0.185,-0.118 0.147,0.224 0.015,-0.209 0.1,0.086 c 0,0 0.006,-0.165 0.041,-0.307 0.035,-0.14 0.006,-0.259 -0.156,-0.37 -0.161,-0.112 -0.203,-0.221 -0.079,-0.353 0.123,-0.132 0.514,0.129 0.571,0.3 0.055,0.17 -0.006,0.194 0.147,0.335 0.152,0.142 0.459,0.123 0.459,0.123 0,0 0.046,-0.187 -0.006,-0.42 -0.054,-0.232 0.064,-0.779 0.064,-0.779 l 0.394,0.021 c 0,0 0.006,0.232 0.059,0.47 0.053,0.239 -0.038,0.512 -0.038,0.512 l 0.088,0.247 0.418,0.047 z"/><path id="path32" style="fill:#e20909;fill-opacity:1;fill-rule:nonzero;stroke:none" d="m 13.4355,25.7471 0.082,0.22 0.51,0.211 c 0,0 -0.016,0.408 -0.296,0.553 -0.114,0.059 -0.274,0.041 -0.355,0.087 -0.118,0.066 -0.133,0.184 -0.133,0.184 0,0 -0.02,-0.059 -0.114,-0.09 -0.094,-0.032 -0.176,0.003 -0.176,0.003 l -0.02,-0.093 c 0,0 -0.188,-0.032 -0.322,-0.138 -0.133,-0.105 -0.16,-0.27 -0.16,-0.27 l -0.404,0.161 -0.083,-0.177 0.483,-0.259 0.184,0.271 c 0,0 -0.039,-0.173 0.015,-0.357 0.056,-0.184 0.083,-0.345 0.083,-0.345 0,0 -0.169,-0.228 -0.204,-0.475 -0.035,-0.247 0.004,-1.102 0.004,-1.102 l 0.968,0 c 0,0 0.166,0.298 0.146,0.832 -0.02,0.533 -0.208,0.784 -0.208,0.784"/><path id="path33" style="fill:#e20909;fill-opacity:1;fill-rule:nonzero;stroke:none" d="m 12.8892,27.3706 c 0,0 0.087,0.076 0.28,0.032 0.167,-0.038 0.211,-0.167 0.211,-0.167 0,0 0.244,0.262 -0.158,0.385 -0.436,0.132 -0.333,-0.25 -0.333,-0.25"/><path id="path34" style="fill:#fec3ac;fill-opacity:1;fill-rule:nonzero;stroke:none" d="m 12.9531,26.9155 -0.064,0.455 c 0,0 0.087,0.076 0.28,0.032 0.167,-0.038 0.211,-0.167 0.211,-0.167 l -0.137,-0.234 c 0,0 -0.019,-0.058 -0.114,-0.09 -0.093,-0.031 -0.176,0.004 -0.176,0.004"/><path id="path35" style="fill:#fec3ac;fill-opacity:1;fill-rule:nonzero;stroke:none" d="m 12.0474,26.5747 -0.083,0.202 c 0,0 -0.069,0.013 -0.102,-0.052 -0.032,-0.064 -0.017,-0.26 -0.017,-0.26 l 0.119,-0.067 0.083,0.177 z"/><path id="path36" style="fill:#e20909;fill-opacity:1;fill-rule:nonzero;stroke:none" d="m 6.5059,18.9272 c 0,0 -0.031,-0.163 -0.046,-0.495 -0.015,-0.332 0,-0.597 0,-0.597 0,0 0.009,-0.171 0.124,-0.197 0.114,-0.026 -0.086,-0.217 0.038,-0.283 0.123,-0.064 0.209,-0.27 0.209,-0.27 0,0 0.113,-0.026 0.188,0.127 0.097,0.197 0.15,0.197 0.15,0.197 0,0 -0.003,0.367 0,0.638 0.003,0.271 0.132,0.406 0.132,0.406 0,0 0.424,-0.453 0.771,-0.453 0.347,0 0.688,0.47 0.688,0.47 0,0 0.009,0.127 -0.018,0.259 -0.026,0.133 -0.091,0.197 -0.147,0.177 -0.055,-0.021 -0.276,-0.438 -0.611,-0.368 -0.336,0.071 -0.643,0.577 -0.643,0.577 0,0 -0.066,0.103 -0.137,0.141 -0.071,0.038 -0.156,0.04 -0.156,0.04 0,0 -0.118,0.07 -0.271,0 -0.153,-0.071 -0.271,-0.369 -0.271,-0.369"/><path id="path37" style="fill:#2b5df2;fill-opacity:1;fill-rule:nonzero;stroke:none" d="m 9.4902,19.8057 0,-0.545 c 0,0 -0.039,-0.235 -0.353,0 -0.314,0.235 -0.443,0.267 -0.443,0.267 0,0 0.059,0.121 0.059,0.329 0,0.208 -0.059,0.443 -0.059,0.443 0,0 0.118,-0.062 0.317,-0.192 0.201,-0.129 0.314,-0.243 0.314,-0.243 l 0.165,-0.059 z"/><path id="path38" style="fill:#fec3ac;fill-opacity:1;fill-rule:nonzero;stroke:none" d="m 9.4902,19.8057 0.584,0.086 0.244,-0.371 -0.828,-0.26 0,0.545 z"/><path id="path39" style="fill:#2b5df2;fill-opacity:1;fill-rule:nonzero;stroke:none" d="m 7.2041,19.5708 -0.157,-0.275 c 0,0 -0.117,0.071 -0.271,0 -0.153,-0.07 -0.27,-0.369 -0.27,-0.369 0,0 -0.153,0.24 -0.102,0.361 0.051,0.122 0.141,0.189 0.204,0.405 0.063,0.215 0.376,0.647 0.376,0.647 0,0 0.08,-0.107 0.149,-0.35 0.07,-0.242 0.071,-0.419 0.071,-0.419"/><path id="path40" style="fill:#fec3ac;fill-opacity:1;fill-rule:nonzero;stroke:none" d="m 7.3413,19.1157 c 0,0 -0.094,-0.008 -0.157,-0.122 -0.063,-0.113 -0.055,-0.29 -0.055,-0.29 0,0 0.118,-0.031 0.235,0.043 0.118,0.075 0.219,0.13 0.365,0.13 0.118,0 0.193,0.102 0.193,0.102 0,0 -0.024,0.09 -0.032,0.22 -0.008,0.129 -0.122,0.211 -0.122,0.211 0,0 -0.008,-0.102 -0.074,-0.145 -0.067,-0.043 -0.153,0.059 -0.153,0.059 l -0.016,-0.231 -0.184,0.023 z"/><path id="path41" style="fill:#2b5df2;fill-opacity:1;fill-rule:nonzero;stroke:none" d="m 8.7598,18.4707 c 0,0 -0.341,-0.471 -0.688,-0.471 -0.347,0 -0.77,0.453 -0.77,0.453 0,0 -0.13,-0.135 -0.133,-0.406 -0.003,-0.27 0,-0.638 0,-0.638 0,0 0.106,-0.197 0.285,-0.068 0.18,0.13 0.318,-0.155 0.577,-0.044 0.259,0.112 0.326,-0.041 0.523,0.035 0.197,0.077 0.25,-0.008 0.362,0.048 0.112,0.056 0.147,0.123 0.147,0.123 0,0 -0.085,0.312 -0.156,0.568 -0.07,0.256 -0.147,0.4 -0.147,0.4"/><path id="path42" style="fill:#fec3ac;fill-opacity:1;fill-rule:nonzero;stroke:none" d="m 8.3315,21.4414 c 0,0 -0.239,0.105 -0.439,0.027 -0.2,-0.078 -0.253,-0.173 -0.253,-0.173 0,0 -0.004,-0.249 0.09,-0.382 0.094,-0.133 -0.063,-0.284 -0.063,-0.284 0,0 0.132,-0.118 0.347,-0.116 0.216,0.002 0.265,0.096 0.265,0.096 0,0 -0.03,0.112 0.024,0.205 0.052,0.091 0.002,0.094 0.029,0.191 0.018,0.063 -0.004,0.138 -0.008,0.255 -0.004,0.118 0.008,0.181 0.008,0.181"/><path id="path43" style="fill:#2b5df2;fill-opacity:1;fill-rule:nonzero;stroke:none" d="m 29.9746,18.4116 -1.253,0.227 c 0,0 -0.091,-0.071 -0.262,-0.498 -0.171,-0.426 -0.223,-0.768 -0.223,-0.768 0,0 0.026,-0.149 0.297,-0.114 0.27,0.035 0.25,-0.114 0.497,-0.044 0.247,0.071 0.415,-0.144 0.603,-0.019 0.188,0.125 0.233,-0.004 0.373,0.022 0.142,0.027 0.182,0.116 0.182,0.116 -0.011,0.026 -0.022,0.059 -0.029,0.088 -0.081,0.31 0.025,0.478 0,0.647 -0.025,0.169 -0.185,0.343 -0.185,0.343"/><path id="path44" style="fill:#2b5df2;fill-opacity:1;fill-rule:nonzero;stroke:none" d="m 30.5586,19.8975 c 0,0 0.331,-0.539 0.354,-0.733 0.024,-0.194 -0.112,-0.385 -0.112,-0.385 l -0.455,0.493 0.213,0.625 z"/><path id="path45" style="fill:#fcef3c;fill-opacity:1;fill-rule:nonzero;stroke:none" d="m 29.0234,17.7979 c 0,0 -0.263,0.263 0,0.639 0.263,0.377 0.165,0.628 0.282,1.181 0.118,0.553 0.279,0.706 0.279,0.706 l 0.293,-0.112 c 0,0 0.162,1.4 0.662,1.3 0.5,-0.1 -0.379,-1.265 -0.379,-1.265 l 0.425,0.168 c 0,0 0.022,-0.571 -0.125,-0.912 -0.148,-0.341 -0.377,-0.629 -0.377,-0.629 0,0 -0.585,0.085 -0.647,-0.171 -0.061,-0.256 0.094,-0.303 0.094,-0.303 0,0 -0.101,-0.112 -0.303,-0.25 -0.121,-0.082 -0.204,-0.352 -0.204,-0.352"/><path id="path46" style="fill:#fec3ac;fill-opacity:1;fill-rule:nonzero;stroke:none" d="m 29.5303,18.3999 0.444,0.012 c 0,0 0.151,0.109 0.18,0.235 0.029,0.127 -0.071,0.227 -0.071,0.227 0,0 -0.585,0.085 -0.647,-0.171 -0.061,-0.256 0.094,-0.303 0.094,-0.303"/><path id="path47" style="fill:#e20909;fill-opacity:1;fill-rule:nonzero;stroke:none" d="m 29.9746,18.4116 c 0,0 0.16,-0.174 0.185,-0.343 0.025,-0.169 -0.081,-0.337 0,-0.647 0.08,-0.31 0.335,-0.443 0.335,-0.443 0,0 0.158,0.133 0.199,0.263 0.04,0.128 0,0.294 0,0.294 0,0 0.174,-0.094 0.174,0.69 0,1.047 -0.522,1.047 -0.522,1.047 -0.129,-0.231 -0.263,-0.399 -0.263,-0.399 0,0 0.101,-0.1 0.072,-0.227 -0.03,-0.126 -0.18,-0.235 -0.18,-0.235"/><path id="path48" style="fill:#fec3ac;fill-opacity:1;fill-rule:nonzero;stroke:none" d="m 27.8271,19.6914 c 0,0 0.133,-0.109 0.127,-0.271 -0.006,-0.162 -0.127,-0.235 -0.127,-0.235 0,0 -0.344,-0.021 -0.588,0.138 -0.244,0.159 -0.424,0.277 -0.424,0.277 l -0.09,-0.014 -0.024,0.322 c 0,0 0.153,-0.117 0.314,-0.138 0.163,-0.02 0.312,-0.009 0.486,-0.023 0.174,-0.015 0.326,-0.056 0.326,-0.056"/><path id="path49" style="fill:#2b5df2;fill-opacity:1;fill-rule:nonzero;stroke:none" d="m 28.5986,20.1675 c 0,0 -0.051,-0.179 -0.03,-0.371 0.02,-0.191 0.08,-0.355 0.08,-0.355 0,0 -0.142,-0.024 -0.277,-0.136 -0.135,-0.111 -0.267,-0.235 -0.394,-0.247 -0.126,-0.012 -0.15,0.127 -0.15,0.127 l 0,0.506 c 0,0 0.167,0.126 0.365,0.273 0.197,0.147 0.406,0.203 0.406,0.203"/><path id="path50" style="fill:#fec3ac;fill-opacity:1;fill-rule:nonzero;stroke:none" d="m 29.0508,20.4795 c 0,0 0.089,-0.085 0.298,-0.071 0.208,0.015 0.273,0.121 0.273,0.121 l -0.083,0.106 c 0,0 0.072,0.103 0.101,0.238 0.029,0.135 0,0.359 0,0.359 0,0 -0.18,0.147 -0.365,0.159 -0.186,0.011 -0.306,-0.059 -0.306,-0.059 0,0 0.011,-0.214 0,-0.356 -0.021,-0.27 0.082,-0.497 0.082,-0.497"/><path id="path51" style="fill:#fcef3c;fill-opacity:1;fill-rule:nonzero;stroke:none" d="m 29.7422,15.168 0.659,-0.026 c 0,0 0.006,-0.162 -0.032,-0.186 -0.039,-0.023 -0.089,-0.023 -0.089,-0.023 l 0.024,-0.451 c 0,0 0.094,0.015 0.132,-0.041 0.038,-0.055 0.027,-0.109 0.027,-0.109 0,0 0.326,-0.088 0.308,-0.247 -0.017,-0.158 -0.285,-0.126 -0.425,-0.056 -0.142,0.071 -0.257,0.201 -0.257,0.201 0,0 -0.027,-0.103 -0.159,-0.021 -0.132,0.082 -0.032,0.25 -0.023,0.43 0.009,0.178 -0.165,0.529 -0.165,0.529"/><path id="path52" style="fill:#fcef3c;fill-opacity:1;fill-rule:nonzero;stroke:none" d="m 29.0625,15.2451 -0.645,-0.068 c 0,0 0.016,-0.166 0.053,-0.185 0.037,-0.018 0.092,-0.016 0.092,-0.016 l 0.038,-0.344 c 0,0 -0.093,-0.034 -0.124,-0.089 -0.031,-0.055 -0.037,-0.111 -0.037,-0.111 0,0 -0.292,-0.101 -0.249,-0.263 0.029,-0.112 0.28,-0.088 0.406,-0.012 0.125,0.075 0.211,0.182 0.211,0.182 0,0 0.035,-0.081 0.151,0.006 0.127,0.096 0.004,0.27 -0.017,0.435 -0.022,0.165 0.121,0.465 0.121,0.465"/><path id="path53" style="fill:#fcef3c;fill-opacity:1;fill-rule:nonzero;stroke:none" d="m 22.9922,24.3389 c 0,0 0.563,-0.979 0.563,-1.808 0,-0.828 -0.282,-1.218 -0.282,-1.218 l -2.414,-2.501 c 0,0 -0.25,0.723 -1.163,1.563 -1.375,1.266 0,2.078 0,2.078 0,0 -0.141,0.891 0.828,1.328 0.969,0.438 2.468,0.558 2.468,0.558"/><path id="path54" style="fill:#2b5df2;fill-opacity:1;fill-rule:nonzero;stroke:none" d="m 26.6182,21.0313 0.375,-5.047 c 0,0 -0.118,-0.653 -1.406,-1.078 -1.288,-0.425 -1.766,-0.797 -1.766,-0.797 0,0 -0.477,0.372 -1.765,0.797 -1.289,0.425 -1.407,1.078 -1.407,1.078 l 0.375,5.047 c 0,0 1.5,0.297 2.797,0.297 1.297,0 2.797,-0.297 2.797,-0.297"/><path id="path55" style="fill:#fcef3c;fill-opacity:1;fill-rule:nonzero;stroke:none" d="m 23.5244,24.3594 c 1.156,0 1.844,-0.281 1.844,-0.281 l 0.812,1.843 c 0,0 -0.598,-0.993 -0.969,-0.656 -0.37,0.338 -0.093,1.625 -0.093,1.625 0,0 -0.466,-1.467 -1.016,-1.359 -0.551,0.108 -0.578,1.672 -0.578,1.672 0,0 -0.028,-1.564 -0.578,-1.672 -0.551,-0.108 -1.016,1.359 -1.016,1.359 0,0 0.277,-1.287 -0.093,-1.625 -0.371,-0.337 -0.969,0.656 -0.969,0.656 l 0.812,-1.843 c 0,0 0.688,0.281 1.844,0.281"/><path id="path56" style="fill:#fcef3c;fill-opacity:1;fill-rule:nonzero;stroke:none" d="m 10.4883,18.7437 c 0,0 -0.049,1.145 -1.237,1.604 -1.188,0.458 -0.588,1.458 -0.588,1.458 0,0 -0.624,0.542 -0.436,1.33 0.189,0.788 1.047,-0.377 1.047,-0.377 0,0 0.047,0.494 0.518,0.812 0.47,0.318 0.988,-0.259 0.988,-0.259 0,0 0.165,0.2 0.259,0.424 0.094,0.223 0,0.67 0,0.67 0,0 0.494,-0.012 0.53,-0.423 0.035,-0.412 0.541,-0.753 0.541,-0.753 0,0 -0.13,-0.816 0.384,-0.942 0.384,-0.093 0.282,-0.407 0.282,-0.407 0,0 -0.298,-0.083 -0.38,-0.33 -0.082,-0.247 0.061,-0.415 0.061,-0.415 l -1.969,-2.392 z"/><path id="path57" style="fill:#2b5df2;fill-opacity:1;fill-rule:nonzero;stroke:none" d="m 16.2119,17.6484 c 0,2.006 -1.312,3.633 -2.93,3.633 -1.618,0 -2.929,-1.627 -2.929,-3.633 0,-2.006 1.311,-3.633 2.929,-3.633 1.618,0 2.93,1.627 2.93,3.633"/><path id="path58" style="fill:#fcef3c;fill-opacity:1;fill-rule:nonzero;stroke:none" d="m 13.0864,23.8438 c 0.506,0 0.807,-0.123 0.807,-0.123 l 0.356,0.807 c 0,0 -0.263,-0.435 -0.425,-0.288 -0.161,0.148 -0.041,0.712 -0.041,0.712 0,0 -0.203,-0.643 -0.444,-0.595 -0.241,0.047 -0.253,0.732 -0.253,0.732 0,0 -0.012,-0.685 -0.253,-0.732 -0.241,-0.048 -0.444,0.595 -0.444,0.595 0,0 0.12,-0.564 -0.041,-0.712 -0.162,-0.147 -0.425,0.288 -0.425,0.288 l 0.356,-0.807 c 0,0 0.301,0.123 0.807,0.123"/><path id="path59" style="fill:#e20909;fill-opacity:1;fill-rule:nonzero;stroke:none" d="m 17.8042,21.9272 c 0,0 0.396,-0.404 0.196,-0.858 -0.2,-0.455 -0.89,-0.636 -1.463,-0.459 -0.572,0.176 -0.514,-0.506 -0.514,-0.506 0,0 -0.504,0.588 0.263,1.043 0.51,0.302 0.718,0.117 1.138,0.251 0.419,0.133 0.38,0.529 0.38,0.529"/><path id="path60" style="fill:#e20909;fill-opacity:1;fill-rule:nonzero;stroke:none" d="m 16.6157,23.2588 c 0,0 0.259,-0.622 -0.365,-0.668 -0.839,-0.063 -0.933,-0.714 -0.933,-0.714 0,0 0.15,0.166 0.522,0.223 0.279,0.043 0.629,-0.223 1.026,0.177 0.622,0.624 -0.25,0.982 -0.25,0.982"/><path id="path61" style="fill:#e20909;fill-opacity:1;fill-rule:nonzero;stroke:none" d="m 16.7256,19.0806 c 0,0 0.298,-0.345 0.145,-0.726 -0.153,-0.38 -0.557,-0.355 -0.557,-0.355 0,0 0.62,-0.586 0.996,0.289 0.377,0.874 -0.584,0.792 -0.584,0.792"/><path id="path62" style="fill:#e20909;fill-opacity:1;fill-rule:nonzero;stroke:none" d="m 28.2393,22.0059 c 0,0 0.365,-0.667 -0.49,-0.581 -0.855,0.087 -1.131,-0.394 -1.131,-0.394 l 0.04,-0.546 c 0,0 0.115,0.271 0.73,0.18 0.682,-0.102 1.038,0.053 1.137,0.349 0.286,0.851 -0.286,0.992 -0.286,0.992"/><path id="path63" style="fill:#e20909;fill-opacity:1;fill-rule:nonzero;stroke:none" d="m 26.0742,21.3394 c 0,0 -0.494,0.894 0.573,1.224 0.843,0.259 0.549,0.776 0.549,0.776 0,0 0.69,-0.215 0.315,-0.936 -0.198,-0.378 -0.817,-0.264 -1.107,-0.413 -0.373,-0.192 -0.33,-0.651 -0.33,-0.651"/><path id="path64" style="fill:#e20909;fill-opacity:1;fill-rule:nonzero;stroke:none" d="m 27.3574,19.0566 c 0,0 0.302,-0.157 0.105,-0.69 -0.196,-0.533 -0.564,-0.459 -0.564,-0.459 0,0 0.701,-0.4 0.973,0.392 0.255,0.745 -0.514,0.757 -0.514,0.757"/><path id="path65" style="fill:#141414;fill-opacity:1;fill-rule:nonzero;stroke:none" d="m 31.79,13.375 -27.221,0 0,0.344 27.221,0 0,-0.344 z"/><path id="path66" style="fill:#fcef3c;fill-opacity:1;fill-rule:nonzero;stroke:none" d="m 19.333,11.3037 c 0,0 0.133,2.243 -1.154,2.243 -1.286,0 -1.143,-2.243 -1.143,-2.243 0,0 0.443,-0.51 1.143,-0.51 0.701,0 1.154,0.51 1.154,0.51"/><path id="path67" style="fill:#fcef3c;fill-opacity:1;fill-rule:nonzero;stroke:none" d="m 18.1792,9.9785 c 1.555,0 0,-2.016 0,-2.016 0,0 -1.555,2.016 0,2.016"/><path id="path68" style="fill:#fcef3c;fill-opacity:1;fill-rule:nonzero;stroke:none" d="m 23.8633,13.5469 c 0,0 -4.471,1.083 -4.471,-0.812 0,-1.894 4.471,0.812 4.471,0.812"/><path id="path69" style="fill:#fcef3c;fill-opacity:1;fill-rule:nonzero;stroke:none" d="m 12.4961,13.5469 c 0,0 4.47,1.083 4.47,-0.812 0,-1.894 -4.47,0.812 -4.47,0.812"/></g><g id="g34"><path id="path70" style="fill:#2b5df2;fill-opacity:1;fill-rule:nonzero;stroke:none" d="m 5.0752,5.0049 -1.158,1.969 -1.158,-1.969 2.316,0 z"/><path id="path71" style="fill:#fcef3c;fill-opacity:1;fill-rule:nonzero;stroke:none" d="m 7.3906,5.0049 -1.158,1.969 -1.157,-1.969 2.315,0 z"/><path id="path72" style="fill:#2b5df2;fill-opacity:1;fill-rule:nonzero;stroke:none" d="m 9.7061,5.0049 -1.158,1.969 -1.157,-1.969 2.315,0 z"/><path id="path73" style="fill:#fcef3c;fill-opacity:1;fill-rule:nonzero;stroke:none" d="m 12.022,5.0049 -1.158,1.969 -1.158,-1.969 2.316,0 z"/><path id="path74" style="fill:#2b5df2;fill-opacity:1;fill-rule:nonzero;stroke:none" d="m 14.3374,5.0049 -1.158,1.969 -1.157,-1.969 2.315,0 z"/><path id="path75" style="fill:#fcef3c;fill-opacity:1;fill-rule:nonzero;stroke:none" d="m 16.6533,5.0049 -1.158,1.969 -1.158,-1.969 2.316,0 z"/><path id="path76" style="fill:#2b5df2;fill-opacity:1;fill-rule:nonzero;stroke:none" d="m 18.9688,5.0049 -1.158,1.969 -1.157,-1.969 2.315,0 z"/><path id="path77" style="fill:#fcef3c;fill-opacity:1;fill-rule:nonzero;stroke:none" d="m 21.2842,5.0049 -1.157,1.969 -1.158,-1.969 2.315,0 z"/><path id="path78" style="fill:#2b5df2;fill-opacity:1;fill-rule:nonzero;stroke:none" d="m 23.5996,5.0049 -1.157,1.969 -1.158,-1.969 2.315,0 z"/><path id="path79" style="fill:#fcef3c;fill-opacity:1;fill-rule:nonzero;stroke:none" d="m 25.916,5.0049 -1.158,1.969 -1.158,-1.969 2.316,0 z"/><path id="path80" style="fill:#2b5df2;fill-opacity:1;fill-rule:nonzero;stroke:none" d="m 28.2314,5.0049 -1.158,1.969 -1.157,-1.969 2.315,0 z"/><path id="path81" style="fill:#fcef3c;fill-opacity:1;fill-rule:nonzero;stroke:none" d="m 30.5469,5.0049 -1.158,1.969 -1.157,-1.969 2.315,0 z"/><path id="path82" style="fill:#2b5df2;fill-opacity:1;fill-rule:nonzero;stroke:none" d="m 32.8623,5.0049 -1.157,1.969 -1.158,-1.969 2.315,0 z"/><path id="path83" style="fill:#fcef3c;fill-opacity:1;fill-rule:nonzero;stroke:none" d="m 35.1777,5.0049 -1.157,1.969 -1.158,-1.969 2.315,0 z"/><path id="path84" style="fill:#2b5df2;fill-opacity:1;fill-rule:nonzero;stroke:none" d="M 36,10.666 34.032,9.508 36,8.35 l 0,2.316 z"/><path id="path85" style="fill:#fcef3c;fill-opacity:1;fill-rule:nonzero;stroke:none" d="m 36,12.9814 -1.968,-1.158 1.968,-1.157 0,2.315 z"/><path id="path86" style="fill:#2b5df2;fill-opacity:1;fill-rule:nonzero;stroke:none" d="m 36,15.2969 -1.968,-1.158 1.968,-1.157 0,2.315 z"/><path id="path87" style="fill:#fcef3c;fill-opacity:1;fill-rule:nonzero;stroke:none" d="m 36,17.6123 -1.968,-1.157 1.968,-1.158 0,2.315 z"/><path id="path88" style="fill:#2b5df2;fill-opacity:1;fill-rule:nonzero;stroke:none" d="m 36,19.9282 -1.968,-1.158 1.968,-1.158 0,2.316 z"/><path id="path89" style="fill:#fcef3c;fill-opacity:1;fill-rule:nonzero;stroke:none" d="m 36,22.2437 -1.968,-1.158 1.968,-1.157 0,2.315 z"/><path id="path90" style="fill:#2b5df2;fill-opacity:1;fill-rule:nonzero;stroke:none" d="m 36,24.5596 -1.968,-1.158 1.968,-1.158 0,2.316 z"/><path id="path91" style="fill:#fcef3c;fill-opacity:1;fill-rule:nonzero;stroke:none" d="M 36,26.875 34.032,25.717 36,24.56 l 0,2.315 z"/><path id="path92" style="fill:#2b5df2;fill-opacity:1;fill-rule:nonzero;stroke:none" d="m 32.8623,30.9946 1.158,-1.968 1.157,1.968 -2.315,0 z"/><path id="path93" style="fill:#fcef3c;fill-opacity:1;fill-rule:nonzero;stroke:none" d="m 30.5469,30.9946 1.158,-1.968 1.157,1.968 -2.315,0 z"/><path id="path94" style="fill:#2b5df2;fill-opacity:1;fill-rule:nonzero;stroke:none" d="m 28.2314,30.9946 1.157,-1.968 1.158,1.968 -2.315,0 z"/><path id="path95" style="fill:#fcef3c;fill-opacity:1;fill-rule:nonzero;stroke:none" d="m 25.916,30.9946 1.157,-1.968 1.158,1.968 -2.315,0 z"/><path id="path96" style="fill:#2b5df2;fill-opacity:1;fill-rule:nonzero;stroke:none" d="m 23.5996,30.9946 1.158,-1.968 1.158,1.968 -2.316,0 z"/><path id="path97" style="fill:#fcef3c;fill-opacity:1;fill-rule:nonzero;stroke:none" d="m 21.2842,30.9946 1.158,-1.968 1.157,1.968 -2.315,0 z"/><path id="path98" style="fill:#2b5df2;fill-opacity:1;fill-rule:nonzero;stroke:none" d="m 18.9688,30.9946 1.158,-1.968 1.157,1.968 -2.315,0 z"/><path id="path99" style="fill:#fcef3c;fill-opacity:1;fill-rule:nonzero;stroke:none" d="m 16.6533,30.9946 1.158,-1.968 1.157,1.968 -2.315,0 z"/><path id="path00" style="fill:#2b5df2;fill-opacity:1;fill-rule:nonzero;stroke:none" d="m 14.3374,30.9946 1.158,-1.968 1.158,1.968 -2.316,0 z"/><path id="path01" style="fill:#fcef3c;fill-opacity:1;fill-rule:nonzero;stroke:none" d="m 12.022,30.9946 1.158,-1.968 1.157,1.968 -2.315,0 z"/><path id="path02" style="fill:#2b5df2;fill-opacity:1;fill-rule:nonzero;stroke:none" d="m 9.7061,30.9946 1.158,-1.968 1.158,1.968 -2.316,0 z"/><path id="path03" style="fill:#fcef3c;fill-opacity:1;fill-rule:nonzero;stroke:none" d="m 7.3906,30.9946 1.158,-1.968 1.157,1.968 -2.315,0 z"/><path id="path04" style="fill:#2b5df2;fill-opacity:1;fill-rule:nonzero;stroke:none" d="m 5.0752,30.9946 1.158,-1.968 1.157,1.968 -2.315,0 z"/><path id="path05" style="fill:#fcef3c;fill-opacity:1;fill-rule:nonzero;stroke:none" d="m 2.7593,30.9946 1.158,-1.968 1.158,1.968 -2.316,0 z"/></g></g></g></g></svg>