<svg xmlns:dc="http://purl.org/dc/elements/1.1/" xmlns:cc="http://creativecommons.org/ns#" xmlns:rdf="http://www.w3.org/1999/02/22-rdf-syntax-ns#" xmlns:svg="http://www.w3.org/2000/svg" xmlns="http://www.w3.org/2000/svg" viewBox="0 0 45 45" style="enable-background:new 0 0 45 45;" xml:space="preserve" version="1.1" id="svg2"><metadata id="metadata8"><rdf:RDF><cc:Work rdf:about=""><dc:format>image/svg+xml</dc:format><dc:type rdf:resource="http://purl.org/dc/dcmitype/StillImage"/></cc:Work></rdf:RDF></metadata><defs id="defs6"><clipPath id="clipPath16" clipPathUnits="userSpaceOnUse"><path id="path18" d="M 0,36 36,36 36,0 0,0 0,36 Z"/></clipPath></defs><g transform="matrix(1.25,0,0,-1.25,0,45)" id="g10"><g id="g12"><g xmlns="http://www.w3.org/2000/svg" clip-path="url(#clipPath16)" id="g14"><g id="g30"><path id="path20" style="fill:#ffd700;fill-opacity:1;fill-rule:nonzero;stroke:none" d="M 4,31 C 1.791,31 0,29.209 0,27 L 0,9 C 0,6.791 1.791,5 4,5 l 28,0 c 2.209,0 4,1.791 4,4 l 0,18 c 0,2.209 -1.791,4 -4,4 L 4,31 z"/></g><g id="g34"><path id="path30" style="fill:#bf0a30;fill-opacity:1;fill-rule:nonzero;stroke:none" d="m 18.1279,15.7373 c -1.248,0 -2.263,1.015 -2.263,2.262 0,1.248 1.015,2.263 2.263,2.263 1.248,0 2.263,-1.015 2.263,-2.263 0,-1.247 -1.015,-2.262 -2.263,-2.262"/><path id="path31" style="fill:#bf0a30;fill-opacity:1;fill-rule:nonzero;stroke:none" d="m 20.1729,17.0322 3.068,0 c 0.153,0 0.277,-0.124 0.277,-0.276 0,-0.153 -0.124,-0.277 -0.277,-0.277 l -3.438,0"/><path id="path32" style="fill:#bf0a30;fill-opacity:1;fill-rule:nonzero;stroke:none" d="m 16.4526,16.4795 -3.438,0 c -0.153,0 -0.277,0.124 -0.277,0.276 0,0.153 0.124,0.277 0.277,0.277 l 3.068,0"/><path id="path33" style="fill:#bf0a30;fill-opacity:1;fill-rule:nonzero;stroke:none" d="m 20.3857,17.8618 3.962,0 c 0.152,0 0.276,-0.124 0.276,-0.276 0,-0.153 -0.124,-0.276 -0.276,-0.276 l -4.066,0"/><path id="path34" style="fill:#bf0a30;fill-opacity:1;fill-rule:nonzero;stroke:none" d="m 15.9727,17.3096 -4.064,0 c -0.153,0 -0.277,0.123 -0.277,0.276 0,0.152 0.124,0.276 0.277,0.276 l 3.96,0"/><path id="path35" style="fill:#bf0a30;fill-opacity:1;fill-rule:nonzero;stroke:none" d="m 20.2822,18.6904 4.065,0 c 0.153,0 0.277,-0.124 0.277,-0.276 0,-0.153 -0.124,-0.277 -0.277,-0.277 l -3.961,0"/><path id="path36" style="fill:#bf0a30;fill-opacity:1;fill-rule:nonzero;stroke:none" d="m 15.8687,18.1377 -3.96,0 c -0.153,0 -0.277,0.124 -0.277,0.276 0,0.153 0.124,0.277 0.277,0.277 l 4.064,0"/><path id="path37" style="fill:#bf0a30;fill-opacity:1;fill-rule:nonzero;stroke:none" d="m 19.8027,19.52 3.438,0 c 0.153,0 0.277,-0.124 0.277,-0.276 0,-0.153 -0.124,-0.276 -0.277,-0.276 l -3.068,0"/><path id="path38" style="fill:#bf0a30;fill-opacity:1;fill-rule:nonzero;stroke:none" d="m 16.0825,18.9678 -3.068,0 c -0.153,0 -0.277,0.124 -0.277,0.276 0,0.153 0.124,0.276 0.277,0.276 l 3.438,0"/><path id="path39" style="fill:#bf0a30;fill-opacity:1;fill-rule:nonzero;stroke:none" d="m 18.8184,15.8447 0,-4.064 c 0,-0.153 -0.124,-0.277 -0.276,-0.277 -0.153,0 -0.276,0.124 -0.276,0.277 l 0,3.96"/><path id="path40" style="fill:#bf0a30;fill-opacity:1;fill-rule:nonzero;stroke:none" d="m 18.2661,20.2578 0,3.961 c 0,0.153 0.124,0.277 0.276,0.277 0.152,0 0.276,-0.124 0.276,-0.277 l 0,-4.064"/><path id="path41" style="fill:#bf0a30;fill-opacity:1;fill-rule:nonzero;stroke:none" d="m 17.9897,15.7412 0,-3.961 c 0,-0.152 -0.124,-0.276 -0.276,-0.276 -0.153,0 -0.277,0.124 -0.277,0.276 l 0,4.065"/><path id="path42" style="fill:#bf0a30;fill-opacity:1;fill-rule:nonzero;stroke:none" d="m 17.437,20.1548 0,4.064 c 0,0.153 0.124,0.277 0.276,0.277 0.153,0 0.277,-0.124 0.277,-0.277 l 0,-3.961"/><path id="path43" style="fill:#bf0a30;fill-opacity:1;fill-rule:nonzero;stroke:none" d="m 19.6484,16.3252 0,-3.439 c 0,-0.153 -0.124,-0.276 -0.276,-0.276 -0.153,0 -0.277,0.123 -0.277,0.276 l 0,3.068"/><path id="path44" style="fill:#bf0a30;fill-opacity:1;fill-rule:nonzero;stroke:none" d="m 19.0957,20.0449 0,3.068 c 0,0.153 0.124,0.277 0.276,0.277 0.153,0 0.277,-0.124 0.277,-0.277 l 0,-3.439"/><path id="path45" style="fill:#bf0a30;fill-opacity:1;fill-rule:nonzero;stroke:none" d="m 17.1602,15.9541 0,-3.068 c 0,-0.153 -0.124,-0.276 -0.276,-0.276 -0.153,0 -0.277,0.123 -0.277,0.276 l 0,3.439"/><path id="path46" style="fill:#bf0a30;fill-opacity:1;fill-rule:nonzero;stroke:none" d="m 16.6074,19.6738 0,3.439 c 0,0.153 0.124,0.277 0.276,0.277 0.153,0 0.277,-0.124 0.277,-0.277 l 0,-3.068"/><path id="path47" style="fill:#ffd700;fill-opacity:1;fill-rule:nonzero;stroke:none" d="m 18.1279,19.917 c -1.058,0 -1.917,-0.86 -1.917,-1.917 0,-1.058 0.859,-1.918 1.917,-1.918 1.058,0 1.917,0.86 1.917,1.918 0,1.057 -0.859,1.917 -1.917,1.917"/></g></g></g></g></svg>