<svg xmlns:dc="http://purl.org/dc/elements/1.1/" xmlns:cc="http://creativecommons.org/ns#" xmlns:rdf="http://www.w3.org/1999/02/22-rdf-syntax-ns#" xmlns:svg="http://www.w3.org/2000/svg" xmlns="http://www.w3.org/2000/svg" viewBox="0 0 45 45" style="enable-background:new 0 0 45 45;" xml:space="preserve" version="1.1" id="svg2"><metadata id="metadata8"><rdf:RDF><cc:Work rdf:about=""><dc:format>image/svg+xml</dc:format><dc:type rdf:resource="http://purl.org/dc/dcmitype/StillImage"/></cc:Work></rdf:RDF></metadata><defs id="defs6"><clipPath id="clipPath16" clipPathUnits="userSpaceOnUse"><path id="path18" d="M 4,31 C 1.791,31 0,29.209 0,27 L 0,27 0,9 C 0,6.791 1.791,5 4,5 l 0,0 28,0 c 2.209,0 4,1.791 4,4 l 0,0 0,18 c 0,2.209 -1.791,4 -4,4 l 0,0 -28,0 z"/></clipPath></defs><g transform="matrix(1.25,0,0,-1.25,0,45)" id="g10"><g id="g12"><g xmlns="http://www.w3.org/2000/svg" clip-path="url(#clipPath16)" id="g14"><g id="g20"><path id="path22" style="fill:#2492d1;fill-opacity:1;fill-rule:nonzero;stroke:none" d="M 0,5 H 36 V 31 H 0 Z"/></g><g id="g24"><path id="path26" style="fill:#eeeeee;fill-opacity:1;fill-rule:nonzero;stroke:none" d="m 26.625,18 c 0,4.764 -3.861,8.625 -8.625,8.625 -4.764,0 -8.625,-3.861 -8.625,-8.625 0,-4.764 3.861,-8.625 8.625,-8.625 4.764,0 8.625,3.861 8.625,8.625"/></g><g id="g28"><path id="path30" style="fill:#ff6600;fill-opacity:1;fill-rule:nonzero;stroke:none" d="m 11.48,14.8486 c 1.152,-2.712 3.84,-4.614 6.973,-4.614 4.182,0 7.572,3.39 7.572,7.572 0,4.183 -3.39,7.573 -7.572,7.573 -0.083,0 -0.166,-0.001 -0.249,-0.004 3.661,-0.276 6.546,-3.333 6.546,-7.065 0,-3.914 -3.173,-7.086 -7.086,-7.086 -2.656,0 -4.971,1.461 -6.184,3.624"/></g><g id="g32"><path id="path34" style="fill:#2492d1;fill-opacity:1;fill-rule:nonzero;stroke:none" d="m 12.6445,17.8472 c 0.195,-2.901 2.61,-5.194 5.561,-5.194 3.078,0 5.573,2.495 5.573,5.573 0,0.484 -0.061,0.953 -0.177,1.401 l -3.213,2.423 -1.99,-3.144 0.802,-1.042 -2.424,0.697 0.348,0.417 -1.377,1.738 z"/></g><g id="g36"><path id="path38" style="fill:#000066;fill-opacity:1;fill-rule:nonzero;stroke:none" d="m 12.6445,17.8472 c -0.008,0.125 -0.013,0.251 -0.013,0.379 0,3.078 2.495,5.573 5.574,5.573 2.593,0 4.775,-1.772 5.396,-4.172 l -3.311,2.967 -2.823,-3.015 -1.585,1.976 z"/></g></g></g></g></svg>