<svg xmlns:dc="http://purl.org/dc/elements/1.1/" xmlns:cc="http://creativecommons.org/ns#" xmlns:rdf="http://www.w3.org/1999/02/22-rdf-syntax-ns#" xmlns:svg="http://www.w3.org/2000/svg" xmlns="http://www.w3.org/2000/svg" viewBox="0 0 45 45" style="enable-background:new 0 0 45 45;" xml:space="preserve" version="1.1" id="svg2"><metadata id="metadata8"><rdf:RDF><cc:Work rdf:about=""><dc:format>image/svg+xml</dc:format><dc:type rdf:resource="http://purl.org/dc/dcmitype/StillImage"/></cc:Work></rdf:RDF></metadata><defs id="defs6"><clipPath id="clipPath16" clipPathUnits="userSpaceOnUse"><path id="path18" d="M 4,31 C 1.791,31 0,29.209 0,27 L 0,27 0,9 C 0,6.791 1.791,5 4,5 l 0,0 28,0 c 2.209,0 4,1.791 4,4 l 0,0 0,18 c 0,2.209 -1.791,4 -4,4 l 0,0 -28,0 z"/></clipPath></defs><g transform="matrix(1.25,0,0,-1.25,0,45)" id="g10"><g id="g12"><g clip-path="url(#clipPath16)" id="g14"><g id="g20"><path id="path22" style="fill:#eeeeee;fill-opacity:1;fill-rule:nonzero;stroke:none" d="M 0,5 H 36 V 31.001 H 0 Z"/></g><g id="g24"><path id="path26" style="fill:#141414;fill-opacity:1;fill-rule:nonzero;stroke:none" d="M 17.336,28.112 H 36 v 2.889 H 17.336 Z"/></g><g id="g28"><path id="path30" style="fill:#141414;fill-opacity:1;fill-rule:nonzero;stroke:none" d="M 17.336,22.334 H 36 v 2.89 H 17.336 Z"/></g><g id="g32"><path id="path34" style="fill:#141414;fill-opacity:1;fill-rule:nonzero;stroke:none" d="m 0,16.556 h 36 v 2.89 H 0 Z"/></g><g id="g36"><path id="path38" style="fill:#141414;fill-opacity:1;fill-rule:nonzero;stroke:none" d="m 0,10.778 h 36 v 2.888 H 0 Z"/></g><g id="g40"><path id="path42" style="fill:#141414;fill-opacity:1;fill-rule:nonzero;stroke:none" d="M 0,5 H 36 V 7.89 H 0 Z"/></g><g id="g44"><path id="path46" style="fill:#141414;fill-opacity:1;fill-rule:nonzero;stroke:none" d="m 1.1299,29.7012 0.65,-0.26 0.39,0.26 -0.39,0.26 z m 1.04,1.04 -0.26,-0.65 0.26,-0.39 0.26,0.39 z m 1.04,-1.04 -0.65,0.26 -0.39,-0.26 0.39,-0.26 z m -1.04,-2.995 -0.26,0.52 -0.906,-0.383 1.166,2.858 1.166,-2.858 -0.906,0.383 z"/><path id="path47" style="fill:#141414;fill-opacity:1;fill-rule:nonzero;stroke:none" d="m 5.4634,29.7012 0.65,-0.26 0.39,0.26 -0.39,0.26 z m 1.04,1.04 -0.26,-0.65 0.26,-0.39 0.26,0.39 z m 1.04,-1.04 -0.65,0.26 -0.39,-0.26 0.39,-0.26 z m -1.04,-2.995 -0.26,0.52 -0.906,-0.383 1.166,2.858 1.166,-2.858 -0.906,0.383 z"/><path id="path48" style="fill:#141414;fill-opacity:1;fill-rule:nonzero;stroke:none" d="m 9.7969,29.7012 0.65,-0.26 0.39,0.26 -0.39,0.26 z m 1.04,1.04 -0.26,-0.65 0.26,-0.39 0.26,0.39 z m 1.04,-1.04 -0.65,0.26 -0.39,-0.26 0.39,-0.26 z m -1.04,-2.995 -0.26,0.52 -0.906,-0.383 1.166,2.858 1.166,-2.858 -0.906,0.383 z"/><path id="path49" style="fill:#141414;fill-opacity:1;fill-rule:nonzero;stroke:none" d="m 14.1299,29.7012 0.65,-0.26 0.39,0.26 -0.39,0.26 z m 1.04,1.04 -0.26,-0.65 0.26,-0.39 0.26,0.39 z m 1.04,-1.04 -0.65,0.26 -0.39,-0.26 0.39,-0.26 z m -1.04,-2.995 -0.26,0.52 -0.906,-0.383 1.166,2.858 1.166,-2.858 -0.906,0.383 z"/><path id="path50" style="fill:#141414;fill-opacity:1;fill-rule:nonzero;stroke:none" d="m 3.2969,26.1646 0.65,-0.26 0.39,0.26 -0.39,0.26 z m 1.04,1.04 -0.26,-0.65 0.26,-0.39 0.26,0.39 z m 1.04,-1.04 -0.65,0.26 -0.39,-0.26 0.39,-0.26 z m -1.04,-2.995 -0.26,0.52 -0.906,-0.383 1.166,2.858 1.166,-2.858 -0.906,0.383 z"/><path id="path51" style="fill:#141414;fill-opacity:1;fill-rule:nonzero;stroke:none" d="m 7.6299,26.1646 0.65,-0.26 0.39,0.26 -0.39,0.26 z m 1.04,1.04 -0.26,-0.65 0.26,-0.39 0.26,0.39 z m 1.04,-1.04 -0.65,0.26 -0.39,-0.26 0.39,-0.26 z m -1.04,-2.995 -0.26,0.52 -0.906,-0.383 1.166,2.858 1.166,-2.858 -0.906,0.383 z"/><path id="path52" style="fill:#141414;fill-opacity:1;fill-rule:nonzero;stroke:none" d="m 11.9634,26.1646 0.65,-0.26 0.39,0.26 -0.39,0.26 z m 1.04,1.04 -0.26,-0.65 0.26,-0.39 0.26,0.39 z m 1.04,-1.04 -0.65,0.26 -0.39,-0.26 0.39,-0.26 z m -1.04,-2.995 -0.26,0.52 -0.906,-0.383 1.166,2.858 1.166,-2.858 -0.906,0.383 z"/><path id="path53" style="fill:#141414;fill-opacity:1;fill-rule:nonzero;stroke:none" d="m 1.1299,22.628 0.65,-0.26 0.39,0.26 -0.39,0.26 z m 1.04,1.04 -0.26,-0.65 0.26,-0.39 0.26,0.39 z m 1.04,-1.04 -0.65,0.26 -0.39,-0.26 0.39,-0.26 z m -1.04,-2.995 -0.26,0.52 -0.906,-0.383 1.166,2.858 1.166,-2.858 -0.906,0.383 z"/><path id="path54" style="fill:#141414;fill-opacity:1;fill-rule:nonzero;stroke:none" d="m 5.4634,22.628 0.65,-0.26 0.39,0.26 -0.39,0.26 z m 1.04,1.04 -0.26,-0.65 0.26,-0.39 0.26,0.39 z m 1.04,-1.04 -0.65,0.26 -0.39,-0.26 0.39,-0.26 z m -1.04,-2.995 -0.26,0.52 -0.906,-0.383 1.166,2.858 1.166,-2.858 -0.906,0.383 z"/><path id="path55" style="fill:#141414;fill-opacity:1;fill-rule:nonzero;stroke:none" d="m 9.7969,22.628 0.65,-0.26 0.39,0.26 -0.39,0.26 z m 1.04,1.04 -0.26,-0.65 0.26,-0.39 0.26,0.39 z m 1.04,-1.04 -0.65,0.26 -0.39,-0.26 0.39,-0.26 z m -1.04,-2.995 -0.26,0.52 -0.906,-0.383 1.166,2.858 1.166,-2.858 -0.906,0.383 z"/><path id="path56" style="fill:#141414;fill-opacity:1;fill-rule:nonzero;stroke:none" d="m 14.1299,22.628 0.65,-0.26 0.39,0.26 -0.39,0.26 z m 1.04,1.04 -0.26,-0.65 0.26,-0.39 0.26,0.39 z m 1.04,-1.04 -0.65,0.26 -0.39,-0.26 0.39,-0.26 z m -1.04,-2.995 -0.26,0.52 -0.906,-0.383 1.166,2.858 1.166,-2.858 -0.906,0.383 z"/></g></g></g></g></svg>