<svg xmlns:dc="http://purl.org/dc/elements/1.1/" xmlns:cc="http://creativecommons.org/ns#" xmlns:rdf="http://www.w3.org/1999/02/22-rdf-syntax-ns#" xmlns:svg="http://www.w3.org/2000/svg" xmlns="http://www.w3.org/2000/svg" viewBox="0 0 45 45" style="enable-background:new 0 0 45 45;" xml:space="preserve" version="1.1" id="svg2"><metadata id="metadata8"><rdf:RDF><cc:Work rdf:about=""><dc:format>image/svg+xml</dc:format><dc:type rdf:resource="http://purl.org/dc/dcmitype/StillImage"/></cc:Work></rdf:RDF></metadata><defs id="defs6"><clipPath id="clipPath16" clipPathUnits="userSpaceOnUse"><path id="path18" d="M 0,36 36,36 36,0 0,0 0,36 Z"/></clipPath></defs><g transform="matrix(1.25,0,0,-1.25,0,45)" id="g10"><g id="g12"><g xmlns="http://www.w3.org/2000/svg" clip-path="url(#clipPath16)" id="g14"><g id="g30"><path id="path20" style="fill:#eeeeee;fill-opacity:1;fill-rule:nonzero;stroke:none" d="m 32,5 c 2.209,0 4,1.791 4,4 l 0,18 c 0,2.209 -1.791,4 -4,4 L 4,31 C 1.791,31 0,29.209 0,27 L 0,9 C 0,6.791 1.791,5 4,5 l 28,0 z"/></g><g id="g34"><path id="path30" style="fill:#1f2c5c;fill-opacity:1;fill-rule:nonzero;stroke:none" d="m 16.5562,11.2217 c -0.809,0 -0.753,0.167 -0.753,0.167 l -0.002,0.294 c 0,0 -0.706,-0.034 -1.406,0.286 -0.464,0.213 -0.997,0.6 -1.503,1.211 -0.394,0.477 -0.654,0.989 -0.83,1.469 -0.272,0.744 -0.336,1.372 -0.336,1.372 0,0 -0.257,-0.08 -0.321,-0.08 -0.064,0 -0.087,0.036 -0.087,0.036 0,0 -0.19,0.152 -0.27,0.766 -0.052,0.393 -0.061,1.101 0.058,1.663 0.306,1.441 0.302,1.979 0.302,1.979 0,0 -0.057,-0.052 -0.219,-0.093 -0.086,-0.021 -0.152,-0.013 -0.152,-0.013 0,0 -0.228,0.057 -0.065,0.29 0.095,0.136 0.044,0.251 0.044,0.251 0,0 0.071,-0.048 0.107,-0.137 0.03,-0.072 0.05,-0.194 0.05,-0.194 0,0 0.146,0.206 -0.102,0.664 -0.338,0.627 -0.074,0.709 -0.074,0.709 l 0.83,-0.118 c 0,0 0.17,-0.18 0.268,-0.523 0.083,-0.291 0.11,-0.668 -0.019,-1.498 -0.177,-1.125 -0.343,-1.932 -0.343,-2.364 0,-0.438 0.126,-0.829 0.126,-0.829 l 0.253,0.064 c 0,0 0.253,-0.091 0.318,-0.37 0.064,-0.279 0.109,-0.95 0.406,-1.677 0.247,-0.605 0.949,-1.277 1.439,-1.646 0.837,-0.63 1.678,-0.515 1.678,-0.515 0,0 0.103,-0.012 0.118,-0.1 0.026,-0.142 -0.023,-0.305 -0.023,-0.305 0,0 0.263,-0.028 0.508,-0.028 0.245,0 0.509,0.028 0.509,0.028 0,0 -0.05,0.163 -0.024,0.305 0.015,0.088 0.118,0.1 0.118,0.1 0,0 0.841,-0.115 1.679,0.515 0.49,0.369 1.191,1.041 1.438,1.646 0.297,0.727 0.341,1.398 0.406,1.677 0.065,0.279 0.318,0.37 0.318,0.37 l 0.253,-0.064 c 0,0 0.127,0.391 0.127,0.829 0,0.432 -0.167,1.239 -0.343,2.364 -0.13,0.83 -0.103,1.207 -0.02,1.498 0.098,0.343 0.268,0.523 0.268,0.523 l 0.829,0.118 c 0,0 0.266,-0.082 -0.073,-0.709 -0.247,-0.458 -0.102,-0.664 -0.102,-0.664 0,0 0.021,0.122 0.05,0.194 0.036,0.089 0.107,0.137 0.107,0.137 0,0 -0.05,-0.115 0.044,-0.251 0.163,-0.233 -0.065,-0.29 -0.065,-0.29 0,0 -0.066,-0.008 -0.151,0.013 -0.163,0.041 -0.219,0.093 -0.219,0.093 0,0 -0.005,-0.538 0.301,-1.979 0.119,-0.562 0.11,-1.27 0.058,-1.663 -0.08,-0.614 -0.27,-0.766 -0.27,-0.766 0,0 -0.023,-0.036 -0.086,-0.036 -0.065,0 -0.322,0.08 -0.322,0.08 0,0 -0.064,-0.628 -0.336,-1.372 -0.176,-0.48 -0.436,-0.992 -0.829,-1.469 -0.506,-0.611 -1.04,-0.998 -1.504,-1.211 -0.7,-0.32 -1.406,-0.286 -1.406,-0.286 l -0.002,-0.294 c 0,0 0.056,-0.167 -0.753,-0.167"/><path id="path32" style="fill:#1f2c5c;fill-opacity:1;fill-rule:nonzero;stroke:none" d="m 16.5562,12.4189 c 0,0 -2.334,1.019 -3.444,4.55 -1.054,3.357 -0.594,6.359 -0.594,6.359 l 8.076,0 c 0,0 0.461,-3.002 -0.594,-6.359 -1.11,-3.531 -3.444,-4.55 -3.444,-4.55"/><path id="path34" style="fill:#ffffff;fill-opacity:1;fill-rule:nonzero;stroke:none" d="m 14.0435,22.8843 0.209,-0.645 0.678,0 -0.548,-0.398 0.209,-0.645 -0.548,0.398 -0.548,-0.398 0.209,0.645 -0.548,0.398 0.678,0 0.209,0.645 z"/><path id="path36" style="fill:#e6a300;fill-opacity:1;fill-rule:nonzero;stroke:none" d="m 14.9194,19.7725 c -0.029,-0.662 -0.019,-1.43 0.043,-2.147 0.156,-1.796 0.714,-3.472 0.714,-3.472 0,0 -0.731,1.523 -0.835,3.582 -0.043,0.851 -0.036,1.541 -0.006,2.088 0,0 -0.112,0.035 -0.092,0.273 0.019,0.237 0.127,0.205 0.127,0.205 0.078,0.855 0.206,1.226 0.206,1.226 0,0 -0.068,-0.526 -0.115,-1.277 0,0 0.113,-0.105 0.123,-0.174 0.01,-0.069 0.004,-0.1 0.004,-0.1 0,0 0.122,-0.184 0.27,-0.227 0.149,-0.043 0.271,-0.128 0.271,-0.128 0,0 -0.025,0.063 0.035,0.212 0.061,0.149 0.038,0.269 0.071,0.347 0.033,0.078 0.035,0.214 0.029,0.304 -0.006,0.09 0.132,0.323 0.181,0.363 0.049,0.039 0.109,0.019 0.172,0.039 0.063,0.019 0.132,0.045 0.132,0.045 0,0 0.07,0.28 0.076,0.437 0.006,0.157 -0.055,0.257 -0.028,0.406 0.028,0.149 0.106,0.239 0.106,0.239 0,0 -0.229,0.175 -0.297,0.355 -0.069,0.18 -0.04,0.243 -0.04,0.243 0,0 0.04,-0.009 0.077,-0.029 0.037,-0.019 0.111,-0.098 0.111,-0.098 0,0 -0.041,0.086 -0.048,0.153 -0.008,0.067 0.005,0.121 0.005,0.121 0,0 0.136,0.014 0.283,-0.206 0.147,-0.219 0.135,-0.372 0.135,-0.372 0,0 0.192,0.028 0.304,-0.117 0.111,-0.146 0.094,-0.556 0.1,-0.708 0.006,-0.153 0.125,-0.414 0.125,-0.414 0,0 0.247,-0.057 0.293,-0.098 0.045,-0.042 0.241,-0.559 0.259,-0.624 0.017,-0.065 0.085,-0.604 0.125,-0.653 0.039,-0.049 0.074,-0.109 0.088,-0.198 0.01,-0.062 -0.031,-0.137 -0.031,-0.137 0,0 0.057,-0.124 0.004,-0.378 -0.053,-0.255 -0.047,-0.408 -0.047,-0.408 l 0.258,0.79 c 0,0 -0.031,0.049 -0.031,0.088 0,0.039 0.116,0.439 0.116,0.439 l 0.031,-0.143 0.018,0.069 0.039,-0.01 -0.014,-0.071 0.096,0.079 c 0,0 -0.092,-0.385 -0.111,-0.416 -0.02,-0.031 -0.099,-0.047 -0.099,-0.047 l -0.274,-0.884 c 0,0 0.071,-0.187 0.069,-0.222 -0.002,-0.035 -0.046,-0.057 -0.046,-0.094 0,-0.037 -0.041,-0.012 -0.044,-0.035 -0.004,-0.024 -0.008,-0.073 -0.02,-0.083 -0.012,-0.009 -0.032,0.014 -0.034,-0.004 -0.002,-0.017 -0.004,-0.078 -0.025,-0.087 -0.022,-0.011 -0.059,-0.017 -0.059,-0.017 l 0.006,-0.69 -0.149,-0.029 c 0,0 -0.03,-0.316 -0.067,-0.443 -0.037,-0.128 -0.11,-0.349 -0.09,-0.398 0.02,-0.049 0.049,0.086 0.059,-0.067 0.01,-0.153 -0.1,-0.618 -0.135,-0.822 -0.036,-0.203 -0.048,-0.309 -0.044,-0.382 0.004,-0.072 0.104,-0.282 0.11,-0.325 0.006,-0.044 0.1,-0.075 0.12,-0.173 0.019,-0.098 0.004,-0.102 0.008,-0.128 0.004,-0.025 0.015,-0.142 -0.041,-0.16 -0.057,-0.017 -0.157,0.041 -0.199,0.049 -0.041,0.008 -0.097,0.041 -0.145,0.165 -0.046,0.123 -0.05,0.133 -0.139,0.172 -0.088,0.039 -0.045,0.116 -0.043,0.134 0.002,0.017 -0.039,0.086 -0.015,0.107 0.023,0.022 -0.03,0.077 -0.004,0.112 0.025,0.036 0.074,0.166 0.064,0.465 -0.01,0.298 -0.049,0.382 -0.033,0.584 0.016,0.202 0.016,0.238 0.041,0.232 0.025,-0.006 -0.01,0.146 -0.012,0.362 -0.002,0.216 -0.09,0.523 -0.076,0.549 0.014,0.026 0.104,0.05 0.104,0.085 0,0.035 -0.008,0.064 -0.008,0.064 0,0 -0.096,-0.033 -0.18,-0.033 -0.085,0 -0.242,0.027 -0.242,0.027 0,0 -0.003,-0.147 -0.027,-0.208 -0.024,-0.06 0.004,-0.223 -0.017,-0.358 -0.022,-0.136 0,-0.391 -0.056,-0.492 -0.054,-0.103 -0.029,-0.093 -0.009,-0.142 0.019,-0.049 0.05,-0.292 0.017,-0.459 -0.033,-0.166 -0.1,-0.284 -0.076,-0.303 0.023,-0.02 0.047,0.009 0.043,-0.043 -0.004,-0.053 -0.022,-0.106 -0.035,-0.144 -0.014,-0.037 -0.002,-0.01 0.013,-0.068 0.016,-0.059 0.01,-0.161 -10e-4,-0.181 -0.012,-0.02 0.074,-0.117 0.08,-0.145 0.005,-0.027 -0.026,-0.219 -0.032,-0.231 -0.006,-0.012 -0.041,-0.053 -0.131,-0.094 -0.09,-0.042 -0.12,-0.061 -0.18,-0.145 -0.061,-0.084 -0.157,-0.15 -0.2,-0.175 -0.043,-0.025 -0.12,-0.049 -0.14,-0.035 -0.019,0.013 -0.072,0.179 -0.035,0.247 0.037,0.068 0.167,0.163 0.177,0.204 0.009,0.041 -0.02,0.023 0.009,0.09 0.03,0.067 0.165,0.255 0.169,0.31 0.004,0.055 -0.049,0.4 -0.047,0.411 0.002,0.012 0.027,-0.013 0.035,0.004 0.008,0.018 -0.096,0.242 -0.092,0.512 0.004,0.271 0.01,0.344 0.028,0.35 0.017,0.006 -0.065,0.16 -0.054,0.239 0.012,0.078 0.01,0.16 -0.025,0.304 -0.035,0.142 -0.018,0.337 -0.041,0.424 -0.023,0.085 -0.081,0.064 -0.088,0.083 -0.008,0.02 0.027,0.207 0.021,0.304 -0.006,0.098 -0.016,0.094 0.046,0.298 0.06,0.204 0.087,0.43 0.109,0.582 0.022,0.151 0.026,0.211 0.053,0.269 0.027,0.059 0.063,0.075 0.051,0.087 -0.012,0.011 -0.049,0.098 -0.045,0.168 0.004,0.071 -0.059,0.139 -0.061,0.249 -0.002,0.11 0.008,0.49 -0.003,0.61 -0.013,0.12 -0.083,0.227 -0.095,0.214 -0.011,-0.014 0.045,-0.197 0.039,-0.253 -0.006,-0.057 0.037,-0.161 0.028,-0.253 -0.01,-0.092 -0.028,-0.122 -0.041,-0.1 -0.014,0.021 -0.171,-0.147 -0.206,-0.21 -0.036,-0.063 -0.067,-0.118 -0.138,-0.053 -0.07,0.065 -0.123,0.079 -0.184,0.108 -0.061,0.029 -0.129,0.072 -0.167,0.114 -0.037,0.041 -0.131,0.18 -0.199,0.266 -0.069,0.087 -0.114,0.142 -0.122,0.147 -0.008,0.006 -0.061,0.016 -0.061,0.016"/><path id="path38" style="fill:#e6a300;fill-opacity:1;fill-rule:nonzero;stroke:none" d="m 18.8291,23.7666 c 0,0 -0.246,0.405 -0.994,1.176 -0.594,0.612 -1.329,1.116 -1.329,1.116 0,0 -0.051,-0.124 -0.094,-0.105 -0.043,0.017 -0.032,0.105 -0.032,0.105 0,0 -0.023,-0.047 -0.123,-0.041 -0.1,0.006 -0.145,0.027 -0.145,0.027 l -0.071,-0.117 c 0,0 0.055,-0.075 0.051,-0.092 -0.004,-0.018 -0.135,-0.122 -0.151,-0.118 -0.016,0.004 -0.08,0.049 -0.08,0.049 0,0 -0.139,-0.198 -0.23,-0.274 -0.09,-0.077 -0.178,-0.143 -0.19,-0.171 -0.012,-0.028 -0.028,-0.112 0.049,-0.11 0.077,0.002 0.11,-0.174 0.176,-0.159 0.067,0.016 0.124,-0.087 0.183,-0.11 0.059,-0.023 0.06,-0.087 0.172,-0.105 0.106,-0.018 0.183,-0.002 0.183,-0.002 0,0 0.302,-0.159 0.321,-0.179 0.02,-0.019 0.149,-0.249 0.151,-0.276 0.002,-0.028 -0.015,-0.087 -0.015,-0.087 l 0.176,-0.084 c 0,0 0.063,0.09 0.27,0.08 0.207,-0.009 0.291,-0.097 0.291,-0.097 0,0 0.116,0.105 0.367,0.105 0.251,0 0.298,-0.114 0.3,-0.155 0.002,-0.041 -0.065,-0.148 -0.212,-0.148 -0.147,0 -0.288,0.07 -0.288,0.07 0,0 -0.014,-0.088 -0.181,-0.088 -0.166,0 -0.37,0.092 -0.37,0.092 0,0 -0.036,-0.078 -0.238,-0.078 -0.201,0 -0.307,0.082 -0.307,0.082 0,0 -0.065,-0.106 -0.226,-0.106 -0.161,0 -0.361,0.118 -0.361,0.118 0,0 -0.068,-0.098 -0.237,-0.098 -0.169,0 -0.339,0.119 -0.339,0.119 0,0 -0.079,-0.149 -0.345,-0.149 -0.267,0 -0.332,0.128 -0.332,0.179 0,0.05 0.057,0.143 0.242,0.143 0.184,0 0.291,-0.084 0.291,-0.084 0,0 -0.001,0.097 0.218,0.097 0.22,0 0.345,-0.109 0.345,-0.109 0,0 0.012,0.035 0.059,0.061 0.047,0.025 0.194,0.048 0.194,0.048 0,0 -0.28,0.089 -0.639,0.373 -0.359,0.285 -0.535,0.575 -0.535,0.622 0,0.047 0.171,0.206 0.231,0.317 0.061,0.112 0.289,0.212 0.384,0.285 0.097,0.072 0.16,0.141 0.16,0.141 0,0 -0.036,0.069 -0.03,0.084 0.006,0.016 0.106,0.145 0.125,0.145 0.02,0 0.116,-0.112 0.116,-0.112 0,0 0.12,0.028 0.127,0.039 0.008,0.013 -0.013,0.069 0.046,0.14 0.058,0.07 0.082,0.1 0.078,0.111 -0.004,0.013 -0.057,0.013 -0.076,0.03 -0.02,0.018 -0.085,0.08 -0.04,0.124 0.046,0.043 0.133,-0.053 0.133,-0.053 0,0 0.034,0.053 0.089,0.064 0.055,0.01 0.14,-0.028 0.249,-0.109 0.202,-0.151 0.147,-0.249 0.147,-0.249 0,0 0.069,0.17 0.114,0.135 0.066,-0.052 -0.053,-0.176 -0.053,-0.176 0,0 0.517,-0.332 1.339,-1.154 0.753,-0.753 0.886,-1.282 0.886,-1.282"/></g></g></g></g></svg>