<svg xmlns:dc="http://purl.org/dc/elements/1.1/" xmlns:cc="http://creativecommons.org/ns#" xmlns:rdf="http://www.w3.org/1999/02/22-rdf-syntax-ns#" xmlns:svg="http://www.w3.org/2000/svg" xmlns="http://www.w3.org/2000/svg" viewBox="0 0 45 45" style="enable-background:new 0 0 45 45;" xml:space="preserve" version="1.1" id="svg2"><metadata id="metadata8"><rdf:RDF><cc:Work rdf:about=""><dc:format>image/svg+xml</dc:format><dc:type rdf:resource="http://purl.org/dc/dcmitype/StillImage"/></cc:Work></rdf:RDF></metadata><defs id="defs6"><clipPath id="clipPath16" clipPathUnits="userSpaceOnUse"><path id="path18" d="M 4,31 C 1.791,31 0,29.209 0,27 L 0,27 0,9 C 0,6.791 1.791,5 4,5 l 0,0 28,0 c 2.209,0 4,1.791 4,4 l 0,0 0,18 c 0,2.209 -1.791,4 -4,4 l 0,0 -28,0 z"/></clipPath></defs><g transform="matrix(1.25,0,0,-1.25,0,45)" id="g10"><g id="g12"><g clip-path="url(#clipPath16)" id="g14"><path id="path20" style="fill:#ff0000;fill-opacity:1;fill-rule:nonzero;stroke:none" d="M 0,5 36,5 36,31 0,31 0,5 Z"/></g></g><g xmlns="http://www.w3.org/2000/svg" transform="translate(-5.3,-4.5)" id="g22"><path id="path22" style="fill:#ffff00;fill-opacity:1;fill-rule:nonzero;stroke:none" d="m 23.3,20.0859 -4.163,5 0.251,0.714 -1.141,1.318 -0.701,-0.121 -0.44,0.528 -0.757,-0.623 0.395,-0.475 -0.238,-0.823 c 0,0 -0.742,-0.653 -1.753,-0.623 -1.012,0.029 -1.833,0.727 -1.833,0.727 0,0 0.202,-1.597 1.472,-3.175 1.232,-1.529 2.741,-1.76 2.741,-1.76 0,0 -0.607,0.373 -0.474,1.643 0.111,1.061 0.894,1.89 0.894,1.89 l 0.846,0.133 4.261,-5.122 -5.527,-6.638 0.757,-0.632 5.41,6.502 5.41,-6.502 0.757,0.632 -5.527,6.638 4.261,5.122 0.846,-0.133 c 0,0 0.783,-0.829 0.895,-1.89 0.132,-1.27 -0.475,-1.643 -0.475,-1.643 0,0 1.51,0.231 2.741,1.76 1.271,1.578 1.473,3.175 1.473,3.175 0,0 -0.822,-0.698 -1.834,-0.727 -1.012,-0.03 -1.753,0.623 -1.753,0.623 l -0.238,0.823 0.395,0.475 -0.757,0.623 -0.44,-0.528 -0.701,0.121 -1.141,-1.318 0.251,-0.714 z"/><path id="path24" style="fill:#ffff00;fill-opacity:1;fill-rule:nonzero;stroke:none" d="m 23.3,25.894 c -3.059,0 -2.903,0.6 -2.903,0.6 L 19.99,29.012 17.823,31.3 c 0,0 0.474,0.106 1.121,-0.3 0.569,-0.357 0.927,-0.738 0.927,-0.738 0,0 -0.048,0.414 0.349,0.638 0.193,0.108 0.598,0.112 0.821,-0.188 0.253,-0.34 0.113,-0.703 -0.097,-0.891 -0.406,-0.365 -0.76,-0.058 -0.76,-0.058 l 1.074,-1.677 1.731,0.937 v 1.662 c 0,0 -0.371,-0.232 -0.674,-0.232 -0.424,0 -0.647,0.253 -0.647,0.573 0,0.321 0.197,0.527 0.597,0.527 0.294,0 0.724,-0.226 0.724,-0.226 v 0.302 c 0,0 -0.359,0.153 -0.359,0.568 0,0.415 0.435,0.582 0.67,0.582 0.235,0 0.671,-0.167 0.671,-0.582 0,-0.415 -0.36,-0.568 -0.36,-0.568 v -0.302 c 0,0 0.43,0.226 0.724,0.226 0.401,0 0.598,-0.206 0.598,-0.527 0,-0.32 -0.224,-0.573 -0.648,-0.573 -0.302,0 -0.674,0.232 -0.674,0.232 v -1.662 l 1.731,-0.937 1.073,1.677 c 0,0 -0.353,-0.307 -0.76,0.058 -0.209,0.188 -0.349,0.551 -0.096,0.891 0.223,0.3 0.629,0.296 0.82,0.188 0.398,-0.224 0.351,-0.638 0.351,-0.638 0,0 0.357,0.381 0.925,0.738 0.648,0.406 1.122,0.3 1.122,0.3 L 26.61,29.012 26.203,26.494 c 0,0 0.156,-0.6 -2.903,-0.6"/></g></g></svg>