<svg xmlns:dc="http://purl.org/dc/elements/1.1/" xmlns:cc="http://creativecommons.org/ns#" xmlns:rdf="http://www.w3.org/1999/02/22-rdf-syntax-ns#" xmlns:svg="http://www.w3.org/2000/svg" xmlns="http://www.w3.org/2000/svg" viewBox="0 0 45 45" style="enable-background:new 0 0 45 45;" xml:space="preserve" version="1.1" id="svg2"><metadata id="metadata8"><rdf:RDF><cc:Work rdf:about=""><dc:format>image/svg+xml</dc:format><dc:type rdf:resource="http://purl.org/dc/dcmitype/StillImage"/></cc:Work></rdf:RDF></metadata><defs id="defs6"><clipPath id="clipPath16" clipPathUnits="userSpaceOnUse"><path id="path18" d="M 0,36 36,36 36,0 0,0 0,36 Z"/></clipPath></defs><g transform="matrix(1.25,0,0,-1.25,0,45)" id="g10"><g id="g12"><g xmlns="http://www.w3.org/2000/svg" clip-path="url(#clipPath16)" id="g14"><g id="g30"><path id="path20" style="fill:#0020a8" d="M 4,31 C 1.791,31 0,29.209 0,27 L 0,9 C 0,6.791 1.791,5 4,5 l 8,0 0,26 -8,0 z"/><path id="path21" style="fill:#fedf00" d="M 24,5 12,5 12,31 24,31 24,5 z"/><path id="path22" style="fill:#d01c3a" d="m 24,31 8,0 c 2.209,0 4,-1.791 4,-4 L 36,9 C 36,6.791 34.209,5 32,5 l -8,0 0,26 z"/></g><g id="g34"><path id="path30" style="fill:#51951e" d="m 22.3115,21.3115 c 0,0 0.43,-0.194 0.475,-0.721 0.05,-0.596 -0.408,-1.008 -0.408,-1.008 0,0 -0.314,0.443 -0.341,0.914 -0.034,0.565 0.274,0.815 0.274,0.815"/><path id="path31" style="fill:#51951e" d="m 23.2549,20.4229 c 0,0 0.25,-0.4 -0.005,-0.864 -0.288,-0.524 -0.898,-0.613 -0.898,-0.613 0,0 -0.016,0.543 0.222,0.95 0.286,0.488 0.681,0.527 0.681,0.527"/><path id="path32" style="fill:#51951e" d="m 21.3623,20.7373 c 0,0 0.472,-0.003 0.728,-0.466 0.289,-0.524 0.037,-1.087 0.037,-1.087 0,0 -0.467,0.277 -0.684,0.696 -0.26,0.503 -0.081,0.857 -0.081,0.857"/><path id="path33" style="fill:#51951e" d="m 23.375,19.2461 c 0,0 0.206,-0.424 -0.095,-0.858 -0.341,-0.493 -0.957,-0.517 -0.957,-0.517 0,0 0.041,0.542 0.32,0.921 0.335,0.457 0.732,0.454 0.732,0.454"/><path id="path34" style="fill:#51951e" d="m 23.2178,17.957 c 0,0 0.143,-0.449 -0.22,-0.835 -0.409,-0.436 -1.021,-0.371 -1.021,-0.371 0,0 0.119,0.529 0.451,0.865 0.397,0.402 0.79,0.341 0.79,0.341"/><path id="path35" style="fill:#51951e" d="m 22.8975,16.874 c 0,0 0.295,-0.368 0.097,-0.858 -0.224,-0.555 -0.82,-0.715 -0.82,-0.715 0,0 -0.079,0.537 0.11,0.969 0.225,0.519 0.613,0.604 0.613,0.604"/><path id="path36" style="fill:#51951e" d="m 21.3164,16.9033 c 0,0 0.456,-0.118 0.59,-0.63 0.152,-0.579 -0.23,-1.062 -0.23,-1.062 0,0 -0.384,0.382 -0.492,0.841 -0.129,0.552 0.132,0.851 0.132,0.851"/><path id="path37" style="fill:#51951e" d="m 22.835,15.3408 c 0,0 0.172,-0.439 -0.163,-0.849 -0.38,-0.462 -0.995,-0.437 -0.995,-0.437 0,0 0.084,0.536 0.392,0.892 0.371,0.429 0.766,0.394 0.766,0.394"/><path id="path38" style="fill:#51951e" d="m 21.0137,16.0215 c 0,0 0.468,-0.061 0.665,-0.552 0.223,-0.554 -0.096,-1.083 -0.096,-1.083 0,0 -0.429,0.332 -0.592,0.775 -0.198,0.53 0.023,0.86 0.023,0.86"/><path id="path39" style="fill:#51951e" d="m 22.7725,13.9199 c 0,0 -0.095,-0.462 -0.599,-0.623 -0.57,-0.182 -1.073,0.174 -1.073,0.174 0,0 0.362,0.404 0.816,0.536 0.543,0.157 0.856,-0.087 0.856,-0.087"/><path id="path40" style="fill:#51951e" d="m 21.877,13.0693 c 0,0 -0.214,-0.421 -0.742,-0.442 -0.598,-0.026 -0.989,0.451 -0.989,0.451 0,0 0.457,0.294 0.927,0.301 0.567,0.007 0.804,-0.31 0.804,-0.31"/><path id="path41" style="fill:#51951e" d="m 20.4639,12.8965 c 0,0 -0.298,-0.365 -0.818,-0.274 -0.59,0.103 -0.87,0.652 -0.87,0.652 0,0 0.508,0.19 0.97,0.097 0.555,-0.114 0.718,-0.475 0.718,-0.475"/><path id="path42" style="fill:#51951e" d="m 20.0313,14.1689 c 0,0 0,-0.472 -0.462,-0.729 -0.521,-0.293 -1.086,-0.045 -1.086,-0.045 0,0 0.274,0.468 0.692,0.687 0.501,0.264 0.856,0.087 0.856,0.087"/><path id="path43" style="fill:#51951e" d="m 21.0596,13.8682 c 0,0 -0.062,-0.468 -0.553,-0.664 -0.555,-0.222 -1.083,0.097 -1.083,0.097 0,0 0.333,0.429 0.776,0.592 0.531,0.197 0.86,-0.025 0.86,-0.025"/><path id="path44" style="fill:#51951e" d="m 20.8535,15.1641 c 0,0 0.441,-0.168 0.519,-0.691 0.087,-0.592 -0.345,-1.032 -0.345,-1.032 0,0 -0.341,0.423 -0.397,0.891 -0.068,0.562 0.223,0.832 0.223,0.832"/><path id="path45" style="fill:#51951e" d="m 22.0928,16.1094 c 0,0 0.355,-0.31 0.249,-0.827 -0.121,-0.586 -0.679,-0.85 -0.679,-0.85 0,0 -0.174,0.515 -0.066,0.974 0.13,0.551 0.496,0.703 0.496,0.703"/><path id="path46" style="fill:#51951e" d="m 21.9697,17.8735 c 0,0 0.436,-0.18 0.498,-0.706 0.071,-0.593 -0.374,-1.02 -0.374,-1.02 0,0 -0.328,0.433 -0.371,0.901 -0.052,0.564 0.247,0.825 0.247,0.825"/><path id="path47" style="fill:#51951e" d="m 22.2031,19.7676 c 0,0 0.426,-0.203 0.461,-0.73 0.039,-0.598 -0.427,-1.001 -0.427,-1.001 0,0 -0.305,0.449 -0.324,0.92 -0.022,0.566 0.29,0.811 0.29,0.811"/><path id="path48" style="fill:#51951e" d="m 20.9951,18.4214 c 0,0 0.472,-0.007 0.723,-0.473 0.284,-0.527 0.027,-1.087 0.027,-1.087 0,0 -0.464,0.282 -0.677,0.703 -0.256,0.505 -0.073,0.857 -0.073,0.857"/><path id="path49" style="fill:#51951e" d="m 21.3291,19.4585 c 0,0 0.47,-0.04 0.689,-0.521 0.248,-0.544 -0.046,-1.086 -0.046,-1.086 0,0 -0.444,0.313 -0.627,0.747 -0.221,0.521 -0.016,0.86 -0.016,0.86"/><path id="path50" style="fill:#51951e" d="m 13.6885,21.3115 c 0,0 -0.43,-0.194 -0.475,-0.721 -0.051,-0.596 0.408,-1.008 0.408,-1.008 0,0 0.314,0.443 0.341,0.914 0.033,0.565 -0.274,0.815 -0.274,0.815"/><path id="path51" style="fill:#51951e" d="m 12.7451,20.4229 c 0,0 -0.25,-0.4 0.005,-0.864 0.288,-0.524 0.898,-0.613 0.898,-0.613 0,0 0.015,0.543 -0.222,0.95 -0.286,0.488 -0.681,0.527 -0.681,0.527"/><path id="path52" style="fill:#51951e" d="m 14.6372,20.7373 c 0,0 -0.471,-0.003 -0.727,-0.466 -0.289,-0.524 -0.038,-1.087 -0.038,-1.087 0,0 0.468,0.277 0.684,0.696 0.26,0.503 0.081,0.857 0.081,0.857"/><path id="path53" style="fill:#51951e" d="m 12.6255,19.2461 c 0,0 -0.207,-0.424 0.095,-0.858 0.341,-0.493 0.956,-0.517 0.956,-0.517 0,0 -0.041,0.542 -0.32,0.921 -0.335,0.457 -0.731,0.454 -0.731,0.454"/><path id="path54" style="fill:#51951e" d="m 12.7827,17.957 c 0,0 -0.143,-0.449 0.219,-0.835 0.409,-0.436 1.022,-0.371 1.022,-0.371 0,0 -0.119,0.529 -0.451,0.865 -0.398,0.402 -0.79,0.341 -0.79,0.341"/><path id="path55" style="fill:#51951e" d="m 13.1025,16.874 c 0,0 -0.295,-0.368 -0.097,-0.858 0.224,-0.555 0.819,-0.715 0.819,-0.715 0,0 0.08,0.537 -0.108,0.969 -0.227,0.519 -0.614,0.604 -0.614,0.604"/><path id="path56" style="fill:#51951e" d="m 14.6836,16.9033 c 0,0 -0.456,-0.118 -0.59,-0.63 -0.152,-0.579 0.23,-1.062 0.23,-1.062 0,0 0.384,0.382 0.492,0.841 0.128,0.552 -0.132,0.851 -0.132,0.851"/><path id="path57" style="fill:#51951e" d="m 13.165,15.3408 c 0,0 -0.172,-0.439 0.164,-0.849 0.378,-0.462 0.995,-0.437 0.995,-0.437 0,0 -0.085,0.536 -0.393,0.892 -0.371,0.429 -0.766,0.394 -0.766,0.394"/><path id="path58" style="fill:#51951e" d="m 14.9863,16.0215 c 0,0 -0.468,-0.061 -0.665,-0.552 -0.223,-0.554 0.095,-1.083 0.095,-1.083 0,0 0.43,0.332 0.594,0.775 0.197,0.53 -0.024,0.86 -0.024,0.86"/><path id="path59" style="fill:#51951e" d="m 13.228,13.9199 c 0,0 0.094,-0.462 0.598,-0.623 0.57,-0.182 1.073,0.174 1.073,0.174 0,0 -0.362,0.404 -0.815,0.536 -0.544,0.157 -0.856,-0.087 -0.856,-0.087"/><path id="path60" style="fill:#51951e" d="m 14.123,13.0693 c 0,0 0.213,-0.421 0.742,-0.442 0.598,-0.026 0.989,0.451 0.989,0.451 0,0 -0.456,0.294 -0.928,0.301 -0.566,0.007 -0.803,-0.31 -0.803,-0.31"/><path id="path61" style="fill:#51951e" d="m 15.5356,12.8965 c 0,0 0.298,-0.365 0.819,-0.274 0.59,0.103 0.87,0.652 0.87,0.652 0,0 -0.508,0.19 -0.97,0.097 -0.555,-0.114 -0.719,-0.475 -0.719,-0.475"/><path id="path62" style="fill:#51951e" d="m 15.9692,14.1689 c 0,0 0,-0.472 0.461,-0.729 0.522,-0.293 1.086,-0.045 1.086,-0.045 0,0 -0.274,0.468 -0.691,0.687 -0.501,0.264 -0.856,0.087 -0.856,0.087"/><path id="path63" style="fill:#51951e" d="m 14.9404,13.8682 c 0,0 0.062,-0.468 0.552,-0.664 0.556,-0.222 1.083,0.097 1.083,0.097 0,0 -0.332,0.429 -0.775,0.592 -0.531,0.197 -0.86,-0.025 -0.86,-0.025"/><path id="path64" style="fill:#51951e" d="m 15.146,15.1641 c 0,0 -0.44,-0.168 -0.518,-0.691 -0.088,-0.592 0.345,-1.032 0.345,-1.032 0,0 0.34,0.423 0.397,0.891 0.068,0.562 -0.224,0.832 -0.224,0.832"/><path id="path65" style="fill:#51951e" d="m 13.9072,16.1094 c 0,0 -0.356,-0.31 -0.249,-0.827 0.122,-0.586 0.679,-0.85 0.679,-0.85 0,0 0.174,0.515 0.066,0.974 -0.13,0.551 -0.496,0.703 -0.496,0.703"/><path id="path66" style="fill:#51951e" d="m 14.0303,17.8735 c 0,0 -0.436,-0.18 -0.498,-0.706 -0.071,-0.593 0.374,-1.02 0.374,-1.02 0,0 0.328,0.433 0.371,0.901 0.052,0.564 -0.247,0.825 -0.247,0.825"/><path id="path67" style="fill:#51951e" d="m 13.7969,19.7676 c 0,0 -0.426,-0.203 -0.461,-0.73 -0.039,-0.598 0.427,-1.001 0.427,-1.001 0,0 0.305,0.449 0.324,0.92 0.022,0.566 -0.29,0.811 -0.29,0.811"/><path id="path68" style="fill:#51951e" d="m 15.0049,18.4214 c 0,0 -0.471,-0.007 -0.723,-0.473 -0.284,-0.527 -0.027,-1.087 -0.027,-1.087 0,0 0.464,0.282 0.677,0.703 0.255,0.505 0.073,0.857 0.073,0.857"/><path id="path69" style="fill:#51951e" d="m 14.6704,19.4585 c 0,0 -0.47,-0.04 -0.689,-0.521 -0.248,-0.544 0.046,-1.086 0.046,-1.086 0,0 0.445,0.313 0.628,0.747 0.221,0.521 0.015,0.86 0.015,0.86"/><path id="path70" style="fill:#cf0620" d="m 18,13.5938 c 0,0 0.053,0.154 0.294,0.318 0.217,0.149 0.464,0.135 0.464,0.135 l 1.494,0 c 0,0 0.333,-0.012 0.534,0.159 0.222,0.19 0.214,0.409 0.214,0.409 l 0,6.517 -3,0 -3,0 0,-6.517 c 0,0 -0.008,-0.219 0.214,-0.409 0.201,-0.171 0.535,-0.159 0.535,-0.159 l 1.493,0 c 0,0 0.247,0.014 0.464,-0.135 0.241,-0.164 0.294,-0.318 0.294,-0.318"/><path id="path71" style="fill:#00904b" d="m 18,20.7314 -0.4,0 0,-6.335 c 0.104,-0.03 0.221,-0.079 0.331,-0.154 0.026,-0.018 0.048,-0.033 0.07,-0.051 L 18,20.7314 z"/><path id="path72" style="fill:#81b4ff" d="m 17.1997,14.4463 0.02,0 c 0.026,10e-4 0.183,0.008 0.38,-0.05 l 0,6.335 -0.4,0 0,-6.285 z"/><path id="path73" style="fill:#00904b" d="m 17.2,14.447 -0.4,0 0,6.284 0.4,0 0,-6.284 z"/><path id="path74" style="fill:#81b4ff" d="m 16.8,14.447 -0.4,0 0,6.284 0.4,0 0,-6.284 z"/><path id="path75" style="fill:#00904b" d="m 16.4,14.447 -0.4,0 0,6.284 0.4,0 0,-6.284 z"/><path id="path76" style="fill:#81b4ff" d="m 15.6001,20.7314 0.4,0 0,-6.284 -0.252,0 c -0.043,0 -0.097,0.005 -0.148,0.014 l 0,6.27 z"/><path id="path77" style="fill:#00904b" d="m 15.4004,20.7314 0.2,0 0,-6.27 c -0.053,0.011 -0.101,0.027 -0.128,0.049 -0.065,0.056 -0.072,0.108 -0.073,0.114 l 10e-4,6.107 z"/><path id="path78" style="fill:#fee56f" d="m 18.001,14.1914 c 0.021,0.017 0.044,0.034 0.068,0.051 0.319,0.219 0.671,0.205 0.711,0.204 l 0.086,0 0,1.235 -0.866,0 0.001,-1.49 z"/><path id="path79" style="fill:#cf0620" d="m 18.866,14.447 0.867,0 0,1.234 -0.867,0 0,-1.234 z"/><path id="path80" style="fill:#fee56f" d="m 19.7334,14.4473 0.519,0 c 0.087,0 0.223,0.021 0.275,0.063 0.065,0.056 0.072,0.108 0.072,0.114 l 0,1.057 -0.866,0 0,-1.234 z"/><path id="path81" style="fill:#cf0620" d="m 19.733,15.682 0.866,0 0,1.262 -0.866,0 0,-1.262 z"/><path id="path82" style="fill:#fee56f" d="m 18.866,15.682 0.867,0 0,1.262 -0.867,0 0,-1.262 z"/><path id="path83" style="fill:#cf0620" d="m 18,15.682 0.866,0 0,1.262 -0.866,0 0,-1.262 z"/><path id="path84" style="fill:#fee56f" d="m 19.733,16.943 0.866,0 0,1.263 -0.866,0 0,-1.263 z"/><path id="path85" style="fill:#cf0620" d="m 18.866,16.943 0.867,0 0,1.263 -0.867,0 0,-1.263 z"/><path id="path86" style="fill:#fee56f" d="m 18,16.943 0.866,0 0,1.263 -0.866,0 0,-1.263 z"/><path id="path87" style="fill:#cf0620" d="m 19.733,18.207 0.866,0 0,1.262 -0.866,0 0,-1.262 z"/><path id="path88" style="fill:#fee56f" d="m 18.866,18.207 0.867,0 0,1.262 -0.867,0 0,-1.262 z"/><path id="path89" style="fill:#cf0620" d="m 18,18.207 0.866,0 0,1.262 -0.866,0 0,-1.262 z"/><path id="path90" style="fill:#fee56f" d="m 19.733,19.469 0.866,0 0,1.263 -0.866,0 0,-1.263 z"/><path id="path91" style="fill:#cf0620" d="m 18.866,19.469 0.867,0 0,1.263 -0.867,0 0,-1.263 z"/><path id="path92" style="fill:#fee56f" d="m 18,19.469 0.866,0 0,1.263 -0.866,0 0,-1.263 z"/><path id="path93" style="fill:#ffffff" d="m 18,21.7666 c -3.222,0 -2.93,0.752 -2.93,0.752 0,0 -0.14,0.006 -0.292,-0.063 -0.185,-0.085 -0.43,-0.151 -0.649,-0.176 -0.388,-0.044 -0.568,0.067 -0.568,0.067 0,0 0.214,0.039 0.447,0.121 0.233,0.081 0.319,0.241 0.319,0.241 0,0 -0.024,0.035 -0.133,0.013 -0.121,-0.023 -0.245,-0.018 -0.341,-0.013 -0.224,0.012 -0.327,0.206 -0.327,0.206 0,0 0.31,-0.057 0.595,0.08 0.379,0.182 0.591,0.423 1.061,0.423 0.471,0 0.43,-0.476 0.43,-0.476 0,0 0.817,-0.21 2.388,-0.21 1.571,0 2.389,0.21 2.389,0.21 0,0 -0.042,0.476 0.428,0.476 0.471,0 0.683,-0.241 1.063,-0.423 0.284,-0.137 0.594,-0.08 0.594,-0.08 0,0 -0.104,-0.194 -0.327,-0.206 -0.096,-0.005 -0.22,-0.01 -0.34,0.013 -0.11,0.022 -0.133,-0.013 -0.133,-0.013 0,0 0.086,-0.16 0.318,-0.241 0.233,-0.082 0.447,-0.121 0.447,-0.121 0,0 -0.18,-0.111 -0.569,-0.067 -0.218,0.025 -0.463,0.091 -0.648,0.176 -0.152,0.069 -0.292,0.063 -0.292,0.063 0,0 0.292,-0.752 -2.93,-0.752"/><path id="path94" style="fill:#813000" d="m 17.9277,15.8701 c 0,0 -0.021,-0.212 -0.02,-0.443 0.001,-0.206 -0.01,-0.396 -0.09,-0.429 -0.069,-0.027 -0.159,-0.022 -0.227,-0.053 -0.068,-0.031 -0.225,0.019 -0.225,0.019 0,0 0.011,-0.073 0.134,-0.095 0.124,-0.022 0.122,0.027 0.206,-0.01 0.053,-0.023 0.155,0 0.155,0 0,0 -0.092,-0.114 -0.178,-0.128 -0.086,-0.014 -0.158,-0.036 -0.158,-0.036 0,0 0.011,-0.02 0.08,-0.023 0.069,-0.003 0.136,0.013 0.136,0.013 0,0 -0.016,-0.066 -0.003,-0.117 0.017,-0.068 0.101,-0.089 0.101,-0.089 0,0 -0.05,0.097 -0.006,0.191 0.044,0.094 0.128,0.166 0.128,0.166 0,0 -0.006,-0.07 -0.003,-0.188 0.003,-0.117 0.042,-0.19 0.042,-0.19 0,0 0.039,0.073 0.042,0.19 0.004,0.118 -0.003,0.188 -0.003,0.188 0,0 0.085,-0.072 0.128,-0.166 0.044,-0.094 -0.006,-0.191 -0.006,-0.191 0,0 0.084,0.021 0.102,0.089 0.012,0.051 -0.003,0.117 -0.003,0.117 0,0 0.067,-0.016 0.136,-0.013 0.068,0.003 0.079,0.023 0.079,0.023 0,0 -0.071,0.022 -0.157,0.036 -0.086,0.014 -0.179,0.128 -0.179,0.128 0,0 0.102,-0.023 0.155,0 0.084,0.037 0.083,-0.012 0.206,0.01 0.123,0.022 0.135,0.095 0.135,0.095 0,0 -0.158,-0.05 -0.226,-0.019 -0.067,0.031 -0.157,0.026 -0.226,0.053 -0.081,0.033 -0.092,0.223 -0.09,0.429 10e-4,0.231 -0.02,0.443 -0.02,0.443 l -0.073,0.036 -0.072,-0.036 z"/><path id="path95" style="fill:#004b00" d="m 18.0713,15.8711 c 0.129,-0.056 0.424,-0.152 0.817,-0.083 0.536,0.095 0.684,0.821 0.396,1.61 -0.331,0.908 -0.534,0.735 -0.673,1.772 -0.1,0.753 -0.611,1.33 -0.611,1.33 0,0 -0.512,-0.577 -0.612,-1.33 -0.138,-1.037 -0.341,-0.864 -0.672,-1.772 -0.289,-0.789 -0.14,-1.515 0.396,-1.61 0.392,-0.068 0.686,0.026 0.815,0.082 l 0.073,0.036 0.071,-0.035 z"/></g></g></g></g></svg>