<svg xmlns:dc="http://purl.org/dc/elements/1.1/" xmlns:cc="http://creativecommons.org/ns#" xmlns:rdf="http://www.w3.org/1999/02/22-rdf-syntax-ns#" xmlns:svg="http://www.w3.org/2000/svg" xmlns="http://www.w3.org/2000/svg" viewBox="0 0 45 45" style="enable-background:new 0 0 45 45;" xml:space="preserve" version="1.1" id="svg2"><metadata id="metadata8"><rdf:RDF><cc:Work rdf:about=""><dc:format>image/svg+xml</dc:format><dc:type rdf:resource="http://purl.org/dc/dcmitype/StillImage"/></cc:Work></rdf:RDF></metadata><defs id="defs6"><clipPath id="clipPath16" clipPathUnits="userSpaceOnUse"><path id="path18" d="M 4,31 C 1.791,31 0,29.209 0,27 L 0,27 0,9 C 0,6.791 1.791,5 4,5 l 0,0 28,0 c 2.209,0 4,1.791 4,4 l 0,0 0,18 c 0,2.209 -1.791,4 -4,4 l 0,0 -28,0 z"/></clipPath></defs><g transform="matrix(1.25,0,0,-1.25,0,45)" id="g10"><g id="g12"><g xmlns="http://www.w3.org/2000/svg" clip-path="url(#clipPath16)" id="g14"><g id="g30"><path id="path20" style="fill:#eeeeee;fill-opacity:1;fill-rule:nonzero;stroke:none" d="m 0,31.0014 36,0 0,-26.001 -36,0 0,26.001 z"/><path id="path22" style="fill:#fd9730;fill-opacity:1;fill-rule:nonzero;stroke:none" d="m 0,31.0014 0,-26.001 36,0 -4.276,4.984 -12.099,5.892 -8.985,-0.012 4.241,2.957 -7.853,8.537 L 0,31.0014 z"/><path id="path24" style="fill:#1983dd;fill-opacity:1;fill-rule:nonzero;stroke:none" d="m 16.0454,19.413 5.005,0.79 -0.838,-3.5 13.125,-4.042 2.663,-7.661 0,26.001 -28.809,0 8.854,-11.588 z"/></g><g id="g34"><path id="path30" style="fill:#ffffff;fill-opacity:1;fill-rule:nonzero;stroke:none" d="m 24.1816,28.0224 0.89,0.517 -0.209,1.021 0.758,-0.701 0.889,0.517 -0.42,-0.95 0.758,-0.701 -1.019,0.113 -0.419,-0.95 -0.209,1.021 -1.019,0.113 z"/><path id="path32" style="fill:#ffffff;fill-opacity:1;fill-rule:nonzero;stroke:none" d="m 22.6807,22.1147 0.89,0.517 -0.209,1.021 0.758,-0.702 0.89,0.518 -0.421,-0.951 0.758,-0.7 -1.018,0.113 -0.42,-0.95 -0.209,1.02 -1.019,0.114 z"/><path id="path34" style="fill:#ffffff;fill-opacity:1;fill-rule:nonzero;stroke:none" d="m 30.2881,14.8588 0.89,0.518 -0.209,1.02 0.757,-0.701 0.89,0.517 -0.421,-0.95 0.759,-0.701 -1.019,0.113 -0.42,-0.95 -0.208,1.021 -1.019,0.113 z"/><path id="path36" style="fill:#ffffff;fill-opacity:1;fill-rule:nonzero;stroke:none" d="m 30.0664,27.2192 0.89,0.517 -0.209,1.02 0.758,-0.701 0.889,0.518 -0.42,-0.951 0.758,-0.7 -1.019,0.113 -0.419,-0.95 -0.209,1.02 -1.019,0.114 z"/><path id="path38" style="fill:#ffffff;fill-opacity:1;fill-rule:nonzero;stroke:none" d="m 30.2539,23.1318 0.467,0.271 -0.11,0.537 0.399,-0.369 0.467,0.272 -0.221,-0.499 0.398,-0.368 -0.535,0.059 -0.22,-0.499 -0.111,0.536 -0.534,0.06 z"/></g></g></g></g></svg>