<svg xmlns:dc="http://purl.org/dc/elements/1.1/" xmlns:cc="http://creativecommons.org/ns#" xmlns:rdf="http://www.w3.org/1999/02/22-rdf-syntax-ns#" xmlns:svg="http://www.w3.org/2000/svg" xmlns="http://www.w3.org/2000/svg" viewBox="0 0 45 45" style="enable-background:new 0 0 45 45;" xml:space="preserve" version="1.1" id="svg2"><metadata id="metadata8"><rdf:RDF><cc:Work rdf:about=""><dc:format>image/svg+xml</dc:format><dc:type rdf:resource="http://purl.org/dc/dcmitype/StillImage"/></cc:Work></rdf:RDF></metadata><defs id="defs6"><clipPath id="clipPath16" clipPathUnits="userSpaceOnUse"><path id="path18" d="M 4,31 C 1.791,31 0,29.209 0,27 L 0,27 0,9 C 0,6.791 1.791,5 4,5 l 0,0 28,0 c 2.209,0 4,1.791 4,4 l 0,0 0,18 c 0,2.209 -1.791,4 -4,4 l 0,0 -28,0 z"/></clipPath><clipPath id="clipPath28" clipPathUnits="userSpaceOnUse"><path id="path30" d="M 0,36 36,36 36,0 0,0 0,36 Z"/></clipPath></defs><g transform="matrix(1.25,0,0,-1.25,0,45)" id="g10"><g id="g12"><g xmlns="http://www.w3.org/2000/svg" clip-path="url(#clipPath16)" id="g14"><g id="g30"><path id="path20" style="fill:#5ab532;fill-opacity:1;fill-rule:nonzero;stroke:none" d="m 36,27 c 0,2.209 -1.791,4 -4,4 L 4,31 C 1.791,31 0,29.209 0,27 L 0,9 C 0,6.791 1.791,5 4,5 l 28,0 c 2.209,0 4,1.791 4,4 l 0,18 z"/></g><g id="g34"><path id="path30" style="fill:#fcef3c;fill-opacity:1;fill-rule:nonzero;stroke:none" d="m 11.8813,8.1084 0,-0.394 0.253,0 c 0.067,0 0.119,0.017 0.156,0.05 0.037,0.033 0.055,0.08 0.055,0.14 0,0.063 -0.015,0.113 -0.046,0.15 -0.031,0.036 -0.079,0.054 -0.143,0.054 l -0.275,0 z m 0,0.114 0.245,0 c 0.052,0.002 0.095,0.018 0.128,0.047 0.032,0.03 0.048,0.071 0.048,0.124 0,0.059 -0.018,0.103 -0.055,0.131 -0.036,0.029 -0.09,0.044 -0.159,0.044 l -0.207,0 0,-0.346 z m 0.207,0.461 c 0.113,0 0.201,-0.024 0.265,-0.073 0.064,-0.049 0.096,-0.122 0.096,-0.22 0,-0.048 -0.016,-0.091 -0.046,-0.129 -0.03,-0.038 -0.071,-0.066 -0.121,-0.085 0.065,-0.013 0.117,-0.046 0.154,-0.095 0.038,-0.05 0.057,-0.109 0.057,-0.175 0,-0.1 -0.032,-0.175 -0.097,-0.228 -0.065,-0.051 -0.152,-0.078 -0.262,-0.078 l -0.521,0 0,0.094 0.122,0.02 0,0.854 -0.122,0.02 0,0.095 0.122,0 0.353,0 z"/><path id="path31" style="fill:#fcef3c;fill-opacity:1;fill-rule:nonzero;stroke:none" d="m 12.9038,8.0303 0.344,0 -0.168,0.465 -0.005,0 -0.171,-0.465 z m -0.347,-0.336 0.08,0.011 0.379,0.978 0.125,0 0.372,-0.978 0.08,-0.011 0,-0.094 -0.311,0 0,0.094 0.081,0.014 -0.071,0.2 -0.433,0 -0.074,-0.2 0.082,-0.014 0,-0.094 -0.31,0 0,0.094 z"/><path id="path32" style="fill:#fcef3c;fill-opacity:1;fill-rule:nonzero;stroke:none" d="m 13.9058,8.1992 0.193,0 c 0.082,0 0.141,0.016 0.179,0.047 0.037,0.031 0.055,0.077 0.055,0.137 0,0.057 -0.018,0.102 -0.053,0.135 -0.036,0.034 -0.091,0.05 -0.166,0.05 l -0.208,0 0,-0.369 z m 0.208,0.483 c 0.118,0 0.208,-0.026 0.271,-0.078 0.063,-0.052 0.095,-0.127 0.095,-0.222 0,-0.053 -0.015,-0.1 -0.044,-0.141 -0.03,-0.04 -0.072,-0.072 -0.126,-0.096 0.059,-0.019 0.101,-0.05 0.128,-0.093 0.026,-0.044 0.039,-0.098 0.039,-0.163 l 0,-0.086 c 0,-0.034 0.004,-0.058 0.012,-0.074 0.009,-0.016 0.022,-0.025 0.042,-0.028 l 0.036,-0.005 0,-0.096 -0.079,0 c -0.057,0 -0.098,0.02 -0.122,0.06 -0.024,0.04 -0.036,0.088 -0.036,0.144 l 0,0.084 c 0,0.059 -0.017,0.107 -0.051,0.142 -0.034,0.036 -0.08,0.054 -0.138,0.054 l -0.235,0 0,-0.369 0.122,-0.021 0,-0.094 -0.39,0 0,0.094 0.122,0.021 0,0.853 -0.122,0.021 0,0.093 0.122,0 0.354,0 z"/><path id="path33" style="fill:#fcef3c;fill-opacity:1;fill-rule:nonzero;stroke:none" d="m 14.959,8.0303 0.344,0 -0.168,0.465 -0.005,0 -0.171,-0.465 z m -0.347,-0.336 0.08,0.011 0.379,0.978 0.125,0 0.372,-0.978 0.08,-0.011 0,-0.094 -0.311,0 0,0.094 0.081,0.014 -0.071,0.2 -0.433,0 -0.074,-0.2 0.082,-0.014 0,-0.094 -0.31,0 0,0.094 z"/><path id="path34" style="fill:#fcef3c;fill-opacity:1;fill-rule:nonzero;stroke:none" d="m 16.7539,8.6836 0,-0.095 -0.121,-0.02 0,-0.968 -0.147,0 -0.52,0.836 -0.005,-0.002 0,-0.72 0.122,-0.02 0,-0.094 -0.39,0 0,0.094 0.122,0.02 0,0.854 -0.122,0.02 0,0.095 0.122,0 0.146,0 0.521,-0.835 0.004,10e-4 0,0.719 -0.121,0.02 0,0.095 0.268,0 0.121,0 z"/><path id="path35" style="fill:#fcef3c;fill-opacity:1;fill-rule:nonzero;stroke:none" d="m 17.147,8.5889 -0.117,-0.014 0.227,-0.442 0.227,0.442 -0.116,0.014 0,0.095 0.372,0 0,-0.095 -0.092,-0.014 -0.321,-0.593 0,-0.267 0.121,-0.021 0,-0.093 -0.388,0 0,0.093 0.121,0.021 0,0.277 -0.315,0.583 -0.091,0.014 0,0.095 0.372,0 0,-0.095 z"/><path id="path36" style="fill:#fcef3c;fill-opacity:1;fill-rule:nonzero;stroke:none" d="m 17.9395,8.0303 0.344,0 -0.168,0.465 -0.005,0 -0.171,-0.465 z m -0.347,-0.336 0.08,0.011 0.379,0.978 0.125,0 0.372,-0.978 0.08,-0.011 0,-0.094 -0.311,0 0,0.094 0.081,0.014 -0.071,0.2 -0.433,0 -0.074,-0.2 0.082,-0.014 0,-0.094 -0.31,0 0,0.094 z"/><path id="path37" style="fill:#fcef3c;fill-opacity:1;fill-rule:nonzero;stroke:none" d="m 19.101,8.001 -0.364,0 0,0.114 0.364,0 0,-0.114 z"/><path id="path38" style="fill:#fcef3c;fill-opacity:1;fill-rule:nonzero;stroke:none" d="m 20.2803,8.4678 -0.004,10e-4 -0.35,-0.868 -0.097,0 -0.351,0.867 -0.004,-0.001 0.015,-0.437 0,-0.315 0.121,-0.02 0,-0.094 -0.389,0 0,0.094 0.122,0.02 0,0.854 -0.122,0.02 0,0.095 0.122,0 0.187,0 0.346,-0.88 0.004,0 0.344,0.88 0.31,0 0,-0.095 -0.122,-0.02 0,-0.854 0.122,-0.02 0,-0.094 -0.39,0 0,0.094 0.121,0.02 0,0.315 0.015,0.438 z"/><path id="path39" style="fill:#fcef3c;fill-opacity:1;fill-rule:nonzero;stroke:none" d="m 20.5928,7.6006 0,0.094 0.121,0.02 0,0.854 -0.121,0.02 0,0.095 0.832,0 0,-0.261 -0.126,0 -0.012,0.146 -0.426,0 0,-0.351 0.414,0 0,-0.115 -0.414,0 0,-0.388 0.435,0 0.012,0.146 0.125,0 0,-0.26 -0.84,0 z"/><path id="path40" style="fill:#fcef3c;fill-opacity:1;fill-rule:nonzero;stroke:none" d="m 22.3809,7.7236 c -0.032,-0.033 -0.079,-0.064 -0.141,-0.095 -0.062,-0.029 -0.142,-0.044 -0.242,-0.044 -0.144,0 -0.263,0.051 -0.354,0.153 -0.091,0.101 -0.137,0.233 -0.137,0.395 l 0,0.019 c 0,0.163 0.045,0.295 0.136,0.395 0.091,0.102 0.211,0.153 0.361,0.153 0.08,0 0.15,-0.013 0.211,-0.039 0.061,-0.024 0.112,-0.057 0.154,-0.098 l 0,-0.196 -0.103,0 -0.035,0.149 c -0.025,0.02 -0.054,0.036 -0.088,0.049 -0.035,0.013 -0.076,0.019 -0.124,0.019 -0.117,0 -0.207,-0.04 -0.271,-0.12 -0.063,-0.08 -0.095,-0.183 -0.095,-0.311 l 0,-0.02 c 0,-0.129 0.031,-0.233 0.092,-0.313 0.062,-0.08 0.146,-0.12 0.253,-0.12 0.06,0 0.108,0.006 0.146,0.018 0.037,0.013 0.067,0.027 0.091,0.041 l 0,0.237 -0.178,0.008 0,0.108 0.324,0 0,-0.388 z"/><path id="path41" style="fill:#fcef3c;fill-opacity:1;fill-rule:nonzero;stroke:none" d="m 22.8643,8.5889 -0.117,-0.014 0.226,-0.442 0.228,0.442 -0.116,0.014 0,0.095 0.372,0 0,-0.095 -0.092,-0.014 -0.321,-0.593 0,-0.267 0.121,-0.021 0,-0.093 -0.388,0 0,0.093 0.121,0.021 0,0.277 -0.315,0.583 -0.091,0.014 0,0.095 0.372,0 0,-0.095 z"/><path id="path42" style="fill:#fcef3c;fill-opacity:1;fill-rule:nonzero;stroke:none" d="m 23.5117,7.6006 0,0.094 0.121,0.02 0,0.854 -0.121,0.02 0,0.095 0.832,0 0,-0.261 -0.126,0 -0.012,0.146 -0.426,0 0,-0.351 0.414,0 0,-0.115 -0.414,0 0,-0.388 0.435,0 0.012,0.146 0.125,0 0,-0.26 -0.84,0 z"/></g><g id="g38"><path id="path50" style="fill:#3c7921;fill-opacity:1;fill-rule:nonzero;stroke:none" d="m 17.8877,10.4023 c -0.112,0.08 -0.237,0.164 -0.364,0.235 -0.392,0.219 -1.043,0.608 -1.216,0.608 -0.172,0 -0.282,-0.031 -0.416,-0.126 -0.133,-0.094 -0.396,-0.341 -0.855,-0.314 -0.458,0.028 -0.976,0.574 -0.976,0.574 0,0 -0.192,-0.123 -0.545,-0.072 -0.353,0.051 -0.981,0.616 -0.981,0.616 0,0 0.64,-0.086 1.008,0.024 0.369,0.109 0.581,0.066 0.581,0.066 0,0 -0.239,0.212 -0.706,0.142 -0.467,-0.071 -0.729,-0.177 -1.184,0.078 -0.455,0.255 -0.533,0.938 -0.533,0.938 0,0 0.352,-0.323 0.858,-0.44 0.506,-0.118 0.737,-0.09 0.737,-0.09 0,0 -0.004,0.114 -0.478,0.415 -0.474,0.302 -0.643,0.326 -1.02,0.306 -0.376,-0.02 -0.514,0.048 -0.796,0.318 -0.282,0.271 -0.404,1.004 -0.404,1.004 0,0 0.381,-0.305 0.718,-0.357 0.337,-0.051 0.502,-0.156 0.502,-0.156 0,0 -0.082,0.121 -0.129,0.395 -0.048,0.274 -0.126,0.4 -0.518,0.549 -0.392,0.149 -0.875,0.134 -1.11,0.741 -0.235,0.608 -0.094,1.224 -0.094,1.224 0,0 0.071,-0.159 0.204,-0.357 0.133,-0.198 0.219,-0.274 0.219,-0.274 0,0 -0.003,0.098 0.02,0.22 0.023,0.121 0.106,0.227 0.106,0.227 0,0 -0.585,0.4 -0.804,0.745 -0.22,0.345 0,1.251 0,1.251 0,0 -0.322,0.345 -0.353,0.71 -0.031,0.364 0.094,0.984 0.094,0.984 0,0 0.134,-0.247 0.29,-0.416 0.157,-0.168 0.428,-0.321 0.428,-0.321 0,0 0.11,0.274 -0.267,0.588 -0.376,0.314 -0.666,0.682 -0.709,1.113 -0.044,0.432 0.078,0.879 0.078,0.879 0,0 0.278,-0.345 0.521,-0.674 0.243,-0.33 0.369,-0.887 0.369,-0.887 0,0 0.082,0.271 0.102,0.647 0.019,0.377 -0.204,0.526 -0.204,0.526 0,0 -0.604,0.42 -0.71,0.674 -0.106,0.255 -0.047,0.436 0.055,0.69 0.102,0.255 0.235,0.554 0.235,0.554 0,0 0.036,-0.396 0.232,-0.679 0.196,-0.282 0.306,-0.659 0.306,-0.659 0,0 0.133,1.075 0.051,1.294 -0.083,0.22 -0.393,0.488 -0.479,0.969 -0.106,0.596 0.349,1.537 0.349,1.537 0,0 0.07,-0.157 0.22,-0.62 0.151,-0.461 0.212,-0.705 0.212,-0.705 0,0 -0.149,0.709 0.074,1.211 0.224,0.502 0.847,0.883 0.847,0.883 0,0 0.094,-0.851 -0.07,-1.275 -0.165,-0.423 -0.526,-0.616 -0.675,-0.898 -0.149,-0.282 -0.145,-0.584 -0.145,-0.584 0,0 0.106,0.227 0.428,0.592 0.321,0.365 0.462,0.706 0.462,0.706 0,0 0.231,-0.525 -0.023,-1.208 -0.255,-0.682 -1.051,-0.819 -1.051,-0.819 0,0 -0.083,-0.271 -0.043,-0.644 0.039,-0.372 -0.012,-0.8 -0.012,-0.8 0,0 0.161,0.459 0.431,0.859 0.271,0.4 0.33,0.682 0.33,0.682 0,0 0.294,-0.619 0.231,-1.133 -0.063,-0.514 -0.533,-0.788 -0.729,-0.937 -0.385,-0.29 -0.31,-0.867 -0.31,-0.867 0,0 0.086,0.389 0.388,0.64 0.302,0.251 0.537,0.607 0.537,0.607 0,0 0.09,-0.584 -0.047,-1.011 -0.137,-0.428 -0.405,-0.613 -0.655,-0.801 -0.494,-0.372 -0.149,-1.148 -0.149,-1.148 0,0 0.138,0.36 0.432,0.678 0.294,0.318 0.368,0.765 0.368,0.765 0,0 0.271,-0.868 0.048,-1.502 -0.173,-0.49 -0.763,-0.577 -0.769,-1.001 -0.003,-0.301 0.278,-0.819 0.278,-0.819 0,0 0.008,0.361 0.192,0.749 0.185,0.388 0.239,0.691 0.239,0.691 0,0 0.322,-0.577 0.318,-0.903 -0.004,-0.325 -0.09,-0.549 -0.286,-0.913 -0.196,-0.365 -0.141,-0.608 -0.141,-0.608 0,0 0.074,-0.09 0.18,-0.224 0.106,-0.133 0.196,-0.502 0.196,-0.502 0,0 -0.016,0.275 0.036,0.597 0.05,0.321 0.031,0.689 0.031,0.689 0,0 0.207,-0.325 0.4,-0.733 0.192,-0.407 0.223,-0.894 0.223,-0.894 0,0 0.495,-0.412 0.597,-0.768 0.101,-0.358 0.066,-0.658 0.031,-0.891 -0.079,-0.521 0.447,-0.71 0.447,-0.71 0,0 -0.137,0.161 -0.18,0.49 -0.043,0.331 -0.11,0.53 -0.11,0.53 0,0 0.525,-0.271 0.776,-0.769 0.251,-0.498 0.094,-0.576 0.2,-0.733 0.106,-0.156 0.745,-0.506 0.745,-0.506 0,0 -0.286,0.22 -0.435,0.581 -0.149,0.36 -0.314,0.65 -0.314,0.65 0,0 0.573,-0.101 1.035,-0.509 0.463,-0.408 0.311,-0.686 0.456,-0.913 0.145,-0.228 0.803,-0.212 0.803,-0.212 0,0 -0.305,0.208 -0.411,0.47 -0.106,0.263 -0.416,0.427 -0.416,0.427 0,0 0.592,0.142 1.07,-0.36 0.374,-0.393 0.541,-0.934 0.541,-0.934 0,0 0.397,-0.18 0.82,-0.463 0.081,-0.053 0.154,-0.101 0.221,-0.145 0.025,0.016 0.051,0.035 0.078,0.052 0.427,0.283 0.63,0.245 0.803,0.521 0.174,0.276 0.474,0.815 0.867,1.09 0.392,0.275 0.722,0.26 1.133,0.455 0.412,0.196 0.764,0.514 0.764,0.514 0,0 -0.015,-0.106 -0.109,-0.24 -0.094,-0.133 -0.282,-0.43 -0.282,-0.43 0,0 0.352,0.337 0.702,0.63 0.349,0.294 0.403,0.251 0.588,0.444 0.184,0.192 0.447,0.49 0.447,0.49 0,0 0.149,0.463 0.42,0.886 0.271,0.424 0.553,0.706 0.553,0.706 0,0 0.09,0.447 0.187,0.706 0.057,0.149 0.214,0.506 0.214,0.506 0,0 0.01,-0.455 0.054,-0.714 0.043,-0.259 -0.114,-0.969 -0.114,-0.969 0,0 0.145,0.075 0.208,0.416 0.062,0.341 0.051,0.862 -0.059,1.522 -0.118,0.702 0.121,1.533 0.121,1.533 0,0 0.091,-0.184 0.236,-1 0.145,-0.816 0.106,-1.318 0.106,-1.318 0,0 0.045,0.044 0.086,0.123 0.082,0.156 0.148,0.76 -0.082,1.552 -0.232,0.792 -0.239,1.169 -0.263,1.518 -0.024,0.349 0.012,0.557 0.012,0.557 0,0 0.082,-0.287 0.329,-0.824 0.247,-0.537 0.325,-1.906 0.325,-1.906 0,0 0.127,0.246 0.126,0.651 -0.002,0.538 -0.142,1.301 -0.274,1.612 -0.232,0.545 -0.326,0.937 -0.381,1.474 -0.055,0.537 0.012,0.651 0.012,0.651 0,0 0.286,-0.866 0.463,-1.266 0.176,-0.4 0.27,-0.855 0.27,-0.855 0,0 0.07,0.215 0.078,0.396 0.008,0.18 0.027,0.635 -0.306,1.126 -0.333,0.489 -0.615,1.058 -0.634,1.674 -0.02,0.616 0.035,0.8 0.035,0.8 0,0 0.109,-0.341 0.259,-0.788 0.148,-0.448 0.391,-0.585 0.568,-1.039 0.177,-0.456 0.216,-0.757 0.216,-0.757 0,0 0.157,0.105 -0.078,0.941 -0.236,0.835 -0.42,1.102 -0.722,1.604 -0.302,0.502 -0.404,0.859 -0.424,1.376 -0.019,0.518 0.047,0.659 0.047,0.659 0,0 0.251,-0.941 0.49,-1.4 0.24,-0.459 0.601,-0.933 0.601,-0.933 0,0 0.148,0.384 -0.275,1.239 -0.423,0.855 -0.303,0.459 -0.743,1.381 -0.308,0.646 -0.096,1.494 -0.096,1.494 0,0 -0.004,-0.271 0.204,-0.895 0.208,-0.623 0.408,-0.721 0.408,-0.721 0,0 0.039,0.07 0.019,0.263 -0.019,0.191 -0.083,0.498 -0.083,0.498 0,0 0.158,-0.118 0.381,-0.816 0.224,-0.698 0.145,-0.788 0.251,-1.051 0.106,-0.263 0.157,-0.322 0.157,-0.322 0,0 0.098,0.51 0,1.133 -0.098,0.624 -0.353,1.322 -0.353,1.322 0,0 0.794,-0.642 0.843,-1.619 0.044,-0.855 -0.281,-1.347 -0.388,-1.62 -0.212,-0.545 -0.181,-0.733 -0.177,-1 0.004,-0.267 0.091,-0.847 0.091,-0.847 0,0 0.121,0.337 0.388,1.019 0.266,0.683 0.259,1.51 0.259,1.51 0,0 0.258,-0.607 0.266,-1.247 0.008,-0.639 -0.384,-1.223 -0.638,-1.717 -0.255,-0.494 -0.385,-1.31 -0.385,-1.31 0,0 0.286,0.729 0.545,1.184 0.259,0.455 0.451,0.957 0.451,0.957 0,0 0.082,-0.474 -0.141,-1.279 -0.223,-0.803 -0.569,-1.09 -0.733,-1.482 -0.165,-0.392 -0.157,-0.808 -0.157,-0.808 0,0 0.239,0.42 0.525,0.843 0.286,0.424 0.432,0.906 0.432,0.906 0,0 0.09,-0.423 -0.13,-1.047 -0.22,-0.623 -0.647,-0.852 -0.823,-1.169 -0.177,-0.317 -0.236,-0.768 -0.236,-0.768 0,0 0.42,0.62 0.671,0.996 0.251,0.377 0.306,0.411 0.306,0.411 0,0 -0.008,-0.536 -0.373,-1.25 -0.365,-0.714 -0.592,-0.741 -0.863,-1.098 -0.27,-0.357 -0.258,-0.487 -0.258,-0.487 0,0 0.404,0.165 0.764,0.605 0.361,0.438 0.494,0.709 0.494,0.709 0,0 -0.003,-0.203 -0.054,-0.489 -0.051,-0.288 -0.177,-0.558 -0.177,-0.558 0,0 0.035,-0.259 -0.212,-0.745 -0.247,-0.487 -0.557,-0.658 -0.557,-0.658 0,0 -0.089,-0.687 -0.564,-1.173 -0.475,-0.487 -1.467,-0.87 -1.467,-0.87 0,0 -0.173,-0.15 -0.636,-0.362 -0.462,-0.212 -1.019,-0.352 -1.019,-0.352 0,0 0.463,-0.142 1.33,0.187 0.866,0.33 1.125,0.574 1.125,0.574 0,0 -0.125,-0.323 -0.588,-0.726 -0.463,-0.404 -0.996,-0.373 -0.996,-0.373 0,0 -0.271,-0.298 -1.138,-0.498 -0.866,-0.199 -1.219,-0.016 -1.529,-0.004 -0.31,0.012 -0.498,-0.02 -0.498,-0.02 0,0 -0.565,-0.254 -1.02,-0.533 -0.066,-0.041 -0.13,-0.081 -0.189,-0.121 0.232,-0.153 0.358,-0.235 0.358,-0.235 0,0 0.014,-0.033 -0.026,-0.061 -0.039,-0.026 -0.096,-0.022 -0.096,-0.022 0,0 -0.13,0.116 -0.32,0.259 -0.289,-0.207 -0.454,-0.374 -0.454,-0.374 0,0 -0.051,0.002 -0.083,0.032 -0.031,0.029 -0.041,0.082 -0.041,0.082 0,0 0.172,0.11 0.494,0.323"/><path id="path51" style="fill:#fcef3c;fill-opacity:1;fill-rule:nonzero;stroke:none" d="m 15.9346,11.4375 c 0,-0.117 -0.09,-0.213 -0.202,-0.213 -0.111,0 -0.201,0.096 -0.201,0.213 0,0.117 0.09,0.213 0.201,0.213 0.112,0 0.202,-0.096 0.202,-0.213"/><path id="path52" style="fill:#fcef3c;fill-opacity:1;fill-rule:nonzero;stroke:none" d="m 15.7451,11.8154 c 0,-0.091 -0.09,-0.165 -0.201,-0.165 -0.111,0 -0.202,0.074 -0.202,0.165 0,0.092 0.091,0.166 0.202,0.166 0.111,0 0.201,-0.074 0.201,-0.166"/><path id="path53" style="fill:#fcef3c;fill-opacity:1;fill-rule:nonzero;stroke:none" d="m 13.1768,12.9521 c 0,-0.109 -0.085,-0.199 -0.191,-0.199 -0.105,0 -0.19,0.09 -0.19,0.199 0,0.11 0.085,0.199 0.19,0.199 0.106,0 0.191,-0.089 0.191,-0.199"/><path id="path54" style="fill:#fcef3c;fill-opacity:1;fill-rule:nonzero;stroke:none" d="m 12.7549,13 c 0,-0.101 -0.087,-0.182 -0.195,-0.182 -0.107,0 -0.194,0.081 -0.194,0.182 0,0.101 0.087,0.182 0.194,0.182 0.108,0 0.195,-0.081 0.195,-0.182"/><path id="path55" style="fill:#fcef3c;fill-opacity:1;fill-rule:nonzero;stroke:none" d="m 11.5518,14.7471 c 0,-0.12 -0.078,-0.218 -0.174,-0.218 -0.097,0 -0.175,0.098 -0.175,0.218 0,0.12 0.078,0.217 0.175,0.217 0.096,0 0.174,-0.097 0.174,-0.217"/><path id="path56" style="fill:#fcef3c;fill-opacity:1;fill-rule:nonzero;stroke:none" d="m 10.6489,19.605 c 0,-0.121 -0.107,-0.219 -0.24,-0.219 -0.133,0 -0.24,0.098 -0.24,0.219 0,0.121 0.107,0.219 0.24,0.219 0.133,0 0.24,-0.098 0.24,-0.219"/><path id="path57" style="fill:#fcef3c;fill-opacity:1;fill-rule:nonzero;stroke:none" d="m 10.2261,19.9243 c 0,-0.098 -0.068,-0.178 -0.151,-0.178 -0.084,0 -0.152,0.08 -0.152,0.178 0,0.098 0.068,0.178 0.152,0.178 0.083,0 0.151,-0.08 0.151,-0.178"/><path id="path58" style="fill:#fcef3c;fill-opacity:1;fill-rule:nonzero;stroke:none" d="m 10.7393,23.2959 c 0,-0.149 -0.093,-0.271 -0.208,-0.271 -0.115,0 -0.208,0.122 -0.208,0.271 0,0.149 0.093,0.271 0.208,0.271 0.115,0 0.208,-0.122 0.208,-0.271"/><path id="path59" style="fill:#fcef3c;fill-opacity:1;fill-rule:nonzero;stroke:none" d="m 10.292,23.4434 c 0,-0.152 -0.088,-0.275 -0.198,-0.275 -0.109,0 -0.198,0.123 -0.198,0.275 0,0.151 0.089,0.274 0.198,0.274 0.11,0 0.198,-0.123 0.198,-0.274"/><path id="path60" style="fill:#2b5df2;fill-opacity:1;fill-rule:nonzero;stroke:none" d="m 18,14.6416 c -1.994,0 -3.724,-0.665 -3.724,-0.665 0,0 -0.693,0.477 -1.317,2.012 -0.407,1.002 -0.418,2.025 -0.418,2.025 l 0.026,10.012 10.867,0 0.025,-10.012 c 0,0 -0.011,-1.023 -0.418,-2.025 -0.623,-1.535 -1.317,-2.012 -1.317,-2.012 0,0 -1.73,0.665 -3.724,0.665"/><path id="path61" style="fill:#ffffff;fill-opacity:1;fill-rule:nonzero;stroke:none" d="m 15.3872,14.3076 0.292,5.333 -0.203,0.47 c 0,0 -0.029,0.051 0.022,0.092 0.027,0.021 0.103,0.031 0.103,0.031 l 0.354,-0.002 0.227,4.962 -0.331,0.242 c 0,0 -0.031,0.033 -0.017,0.091 0.014,0.058 0.26,0.133 0.26,0.133 l -0.199,0.681 0.538,0.063 0.041,-0.304 0.684,0.12 0,0.312 0.459,0.031 0,-0.298 0.765,0 0,0.298 0.459,-0.031 0,-0.312 0.684,-0.12 0.041,0.304 0.538,-0.063 -0.198,-0.681 c 0,0 0.245,-0.075 0.26,-0.133 0.013,-0.058 -0.018,-0.091 -0.018,-0.091 l -0.331,-0.242 0.228,-4.962 0.353,0.002 c 0,0 0.077,-0.01 0.104,-0.031 0.051,-0.041 0.021,-0.092 0.021,-0.092 l -0.203,-0.47 0.296,-5.334 c -0.682,0.167 -1.615,0.335 -2.616,0.335 -0.997,0 -1.931,-0.167 -2.613,-0.334"/></g></g></g></g></svg>