<svg xmlns:dc="http://purl.org/dc/elements/1.1/" xmlns:cc="http://creativecommons.org/ns#" xmlns:rdf="http://www.w3.org/1999/02/22-rdf-syntax-ns#" xmlns:svg="http://www.w3.org/2000/svg" xmlns="http://www.w3.org/2000/svg" viewBox="0 0 45 45" style="enable-background:new 0 0 45 45;" xml:space="preserve" version="1.1" id="svg2"><metadata id="metadata8"><rdf:RDF><cc:Work rdf:about=""><dc:format>image/svg+xml</dc:format><dc:type rdf:resource="http://purl.org/dc/dcmitype/StillImage"/></cc:Work></rdf:RDF></metadata><defs id="defs6"><clipPath id="clipPath16" clipPathUnits="userSpaceOnUse"><path id="path18" d="M 4,31 C 1.791,31 0,29.209 0,27 L 0,27 0,9 C 0,6.791 1.791,5 4,5 l 0,0 28,0 c 2.209,0 4,1.791 4,4 l 0,0 0,18 c 0,2.209 -1.791,4 -4,4 l 0,0 -28,0 z"/></clipPath></defs><g transform="matrix(1.25,0,0,-1.25,0,45)" id="g10"><g id="g12"><g xmlns="http://www.w3.org/2000/svg" clip-path="url(#clipPath16)" id="g14"><g id="g30"><path id="path20" style="fill:#fcde02;fill-opacity:1;fill-rule:nonzero;stroke:none" d="m 0,28.111 36,0 L 36,31 0,31 0,28.111 z"/><path id="path21" style="fill:#db0913;fill-opacity:1;fill-rule:nonzero;stroke:none" d="m 0,25.222 36,0 0,2.889 -36,0 0,-2.889 z"/><path id="path22" style="fill:#fcde02;fill-opacity:1;fill-rule:nonzero;stroke:none" d="m 0,22.333 36,0 0,2.889 -36,0 0,-2.889 z"/><path id="path23" style="fill:#db0913;fill-opacity:1;fill-rule:nonzero;stroke:none" d="m 0,19.444 36,0 0,2.889 -36,0 0,-2.889 z"/><path id="path24" style="fill:#fcde02;fill-opacity:1;fill-rule:nonzero;stroke:none" d="m 0,16.556 36,0 0,2.889 -36,0 0,-2.889 z"/><path id="path25" style="fill:#db0913;fill-opacity:1;fill-rule:nonzero;stroke:none" d="m 0,13.667 36,0 0,2.889 -36,0 0,-2.889 z"/><path id="path26" style="fill:#fcde02;fill-opacity:1;fill-rule:nonzero;stroke:none" d="m 0,10.777 36,0 0,2.89 -36,0 0,-2.89 z"/><path id="path27" style="fill:#db0913;fill-opacity:1;fill-rule:nonzero;stroke:none" d="m 0,7.889 36,0 0,2.89 -36,0 0,-2.89 z"/><path id="path28" style="fill:#fcde02;fill-opacity:1;fill-rule:nonzero;stroke:none" d="m 0,5 36,0 0,2.889 -36,0 L 0,5 z"/></g><g id="g34"><path id="path30" style="fill:#3e074b;fill-opacity:1;fill-rule:nonzero;stroke:none" d="m 0,31 18,0 0,-12.081 -18,0 L 0,31 z"/><path id="path31" style="fill:#ffffff;fill-opacity:1;fill-rule:nonzero;stroke:none" d="m 16.9844,21.6064 0,3.668 0.219,0.205 0,0.261 -1.68,0 0,1.135 0.111,0.208 0,0.259 -1.625,0 0,-0.259 0.111,-0.208 0,-1.135 -1.51,0 0,1.135 0.112,0.208 0,0.259 -1.625,0 0,-0.259 0.111,-0.208 0,-1.135 -1.51,0 0,2.054 0.111,0.208 0,0.259 -1.619,0 0,-0.259 0.11,-0.208 0,-2.054 -1.509,0 0,1.135 0.11,0.208 0,0.259 -1.624,0 0,-0.259 0.111,-0.208 0,-1.135 -1.509,0 0,1.135 0.11,0.208 0,0.259 -1.624,0 0,-0.259 0.111,-0.208 0,-1.135 -1.68,0 0,-0.261 0.219,-0.205 0,-3.668 15.969,0 z"/></g></g></g></g></svg>