<svg xmlns:dc="http://purl.org/dc/elements/1.1/" xmlns:cc="http://creativecommons.org/ns#" xmlns:rdf="http://www.w3.org/1999/02/22-rdf-syntax-ns#" xmlns:svg="http://www.w3.org/2000/svg" xmlns="http://www.w3.org/2000/svg" viewBox="0 0 45 45" style="enable-background:new 0 0 45 45;" xml:space="preserve" version="1.1" id="svg2"><metadata id="metadata8"><rdf:RDF><cc:Work rdf:about=""><dc:format>image/svg+xml</dc:format><dc:type rdf:resource="http://purl.org/dc/dcmitype/StillImage"/></cc:Work></rdf:RDF></metadata><defs id="defs6"><clipPath id="clipPath16" clipPathUnits="userSpaceOnUse"><path id="path18" d="M 0,36 36,36 36,0 0,0 0,36 Z"/></clipPath></defs><g transform="matrix(1.25,0,0,-1.25,0,45)" id="g10"><g id="g12"><g xmlns="http://www.w3.org/2000/svg" clip-path="url(#clipPath16)" id="g14"><g id="g30"><path id="path20" style="fill:#ff0000;fill-opacity:1;fill-rule:nonzero;stroke:none" d="M 32,31 4,31 C 1.791,31 0,29.209 0,27 L 0,9 C 0,6.791 1.791,5 4,5 L 9.12,5 25.88,5 32,5 c 2.209,0 4,1.791 4,4 l 0,18 c 0,2.209 -1.791,4 -4,4"/></g><g id="g34"><path id="path30" style="fill:#ffcc00;fill-opacity:1;fill-rule:nonzero;stroke:none" d="m 27.9824,11.041 c 0,0 1.235,0.791 1.705,3.584 0.394,2.337 0.236,5.075 -0.52,8.041 -0.79,3.093 -0.98,5.105 -0.98,5.105 0,0 -2.062,-2.063 -1.583,-7.334 0.796,-8.762 -2.075,-8.768 -2.075,-8.768 l 1.116,-0.628 2.337,0 z"/><path id="path31" style="fill:#ffcc00;fill-opacity:1;fill-rule:nonzero;stroke:none" d="m 8.0176,11.041 c 0,0 -1.235,0.791 -1.705,3.584 -0.394,2.337 -0.236,5.075 0.521,8.041 0.789,3.093 0.979,5.105 0.979,5.105 0,0 2.062,-2.063 1.583,-7.334 -0.796,-8.762 2.075,-8.768 2.075,-8.768 l -1.117,-0.628 -2.336,0 z"/><path id="path32" style="fill:#4faed8;fill-opacity:1;fill-rule:nonzero;stroke:none" d="m 18,8.4824 c -1.083,0 -1.265,-0.168 -1.624,-0.168 -0.118,0 -0.235,0.174 -0.235,0.174 0,0 -0.491,0.58 -1.238,1.176 -0.562,0.447 -1.091,0.63 -2.044,0.63 -0.606,0 -1.35,-0.215 -1.35,-0.215 0,0 0.035,-0.218 -0.077,-0.6 -0.111,-0.383 -0.359,-0.623 -0.617,-0.721 0,0 -0.483,-0.379 -0.648,-0.484 -0.165,-0.106 -0.32,-0.121 -0.417,-0.042 -0.097,0.079 -0.006,0.288 0.068,0.491 0.073,0.203 0.041,0.341 0.097,0.424 0.113,0.167 0.329,0.111 0.329,0.111 0,0 -0.094,-0.2 -0.094,-0.429 0,-0.37 0.594,-0.294 0.594,0.331 0,0.528 -0.094,0.672 -0.094,0.672 0,0 -0.5,-0.136 -0.929,-0.196 -0.324,-0.044 -0.606,-0.078 -0.724,-0.013 -0.118,0.065 -0.103,0.115 -0.306,0.464 -0.203,0.351 -0.673,0.954 -0.673,0.954 0,0 0.552,-0.076 1.405,0.118 0.545,0.123 2.071,0.623 3.03,0.623 1.529,0 2.294,-0.286 2.823,-0.506 0.53,-0.22 0.52,-0.377 0.416,-1.031 -0.074,-0.471 0.128,-0.506 0.455,-0.487 0.328,0.02 0.901,0.285 1.853,0.285 0.952,0 1.525,-0.265 1.853,-0.285 0.328,-0.019 0.53,0.016 0.455,0.487 -0.104,0.654 -0.114,0.811 0.416,1.031 0.529,0.22 1.294,0.506 2.823,0.506 0.959,0 2.485,-0.5 3.029,-0.623 0.854,-0.194 1.406,-0.118 1.406,-0.118 0,0 -0.47,-0.603 -0.673,-0.954 -0.204,-0.349 -0.189,-0.399 -0.306,-0.464 -0.117,-0.065 -0.4,-0.031 -0.724,0.013 -0.429,0.06 -0.929,0.196 -0.929,0.196 0,0 -0.094,-0.144 -0.094,-0.672 0,-0.625 0.594,-0.701 0.594,-0.331 0,0.229 -0.094,0.429 -0.094,0.429 0,0 0.216,0.056 0.329,-0.111 0.057,-0.083 0.023,-0.221 0.098,-0.424 0.073,-0.203 0.164,-0.412 0.067,-0.491 -0.097,-0.079 -0.253,-0.064 -0.417,0.042 -0.165,0.105 -0.647,0.484 -0.647,0.484 -0.258,0.098 -0.506,0.338 -0.619,0.721 -0.111,0.382 -0.076,0.6 -0.076,0.6 0,0 -0.744,0.215 -1.349,0.215 -0.954,0 -1.483,-0.183 -2.045,-0.63 -0.747,-0.596 -1.239,-1.176 -1.239,-1.176 0,0 -0.116,-0.174 -0.235,-0.174 -0.358,0 -0.541,0.168 -1.623,0.168"/><path id="path33" style="fill:#00933d;fill-opacity:1;fill-rule:nonzero;stroke:none" d="m 18,16.4023 c -2.594,0 -3.41,-1.914 -3.41,-1.914 0,0 -0.925,0.117 -1.961,-0.353 -1.035,-0.47 -1.447,-1.258 -1.447,-1.258 1.083,-0.648 3.895,-0.083 5.33,-0.624 0.919,-0.347 1.488,-1.306 1.488,-1.306 0,0 0.569,0.959 1.488,1.306 1.436,0.541 4.247,-0.024 5.329,0.624 0,0 -0.411,0.788 -1.447,1.258 -1.035,0.47 -1.96,0.353 -1.96,0.353 0,0 -0.816,1.914 -3.41,1.914"/><path id="path34" style="fill:#ffcc00;fill-opacity:1;fill-rule:nonzero;stroke:none" d="m 10.4766,28.5352 0,-6.906 c 0,-4.553 0.077,-7.139 0.11,-7.539 0.076,-0.905 0.233,-0.996 0.596,-1.213 0,0 0.412,0.788 1.447,1.259 1.035,0.469 1.961,0.352 1.961,0.352 0,0 0.815,1.914 3.409,1.914 2.594,0 3.411,-1.914 3.411,-1.914 0,0 0.924,0.117 1.96,-0.352 1.036,-0.471 1.447,-1.259 1.447,-1.259 0.363,0.217 0.52,0.308 0.596,1.213 0.033,0.4 0.11,2.986 0.11,7.539 l 0,6.906 -15.047,0 z"/><path id="path35" style="fill:#4faed8;fill-opacity:1;fill-rule:nonzero;stroke:none" d="m 18,21.6406 c -2.037,0 -3.688,1.355 -3.688,3.027 0,1.672 1.651,3.027 3.688,3.027 2.036,0 3.688,-1.355 3.688,-3.027 0,-1.672 -1.652,-3.027 -3.688,-3.027"/></g></g></g></g></svg>