<svg xmlns:dc="http://purl.org/dc/elements/1.1/" xmlns:cc="http://creativecommons.org/ns#" xmlns:rdf="http://www.w3.org/1999/02/22-rdf-syntax-ns#" xmlns:svg="http://www.w3.org/2000/svg" xmlns="http://www.w3.org/2000/svg" viewBox="0 0 45 45" style="enable-background:new 0 0 45 45;" xml:space="preserve" version="1.1" id="svg2"><metadata id="metadata8"><rdf:RDF><cc:Work rdf:about=""><dc:format>image/svg+xml</dc:format><dc:type rdf:resource="http://purl.org/dc/dcmitype/StillImage"/></cc:Work></rdf:RDF></metadata><defs id="defs6"><clipPath id="clipPath16" clipPathUnits="userSpaceOnUse"><path id="path18" d="M 4,31 C 1.791,31 0,29.209 0,27 L 0,27 0,9 C 0,6.791 1.791,5 4,5 l 0,0 28,0 c 2.209,0 4,1.791 4,4 l 0,0 0,18 c 0,2.209 -1.791,4 -4,4 l 0,0 -28,0 z"/></clipPath></defs><g transform="matrix(1.25,0,0,-1.25,0,45)" id="g10"><g id="g12"><g clip-path="url(#clipPath16)" id="g14"><path id="path20" style="fill:#3859f5;fill-opacity:1;fill-rule:nonzero;stroke:none" d="M 0,5 36,5 36,31 0,31 0,5 Z"/></g></g><g xmlns="http://www.w3.org/2000/svg" transform="translate(-5.3,-4.5)" id="g22"><path id="path20" style="fill:#b7a227;fill-opacity:1;fill-rule:nonzero;stroke:none" d="m 23.3037,15.3379 c -1.661,0.001 -3.009,1.334 -3.008,2.977 0,0.131 0.009,0.26 0.026,0.387 -0.192,-0.038 -0.391,-0.057 -0.594,-0.057 -1.661,0.001 -3.007,1.334 -3.006,2.976 1.773,0.253 2.796,1.695 2.796,3.434 l 0,2.847 -2.309,0 0,0.423 2.309,0 0,1.753 0.423,0 0,-1.753 2.309,0 0,-0.423 -2.309,0 0,-2.847 c 0,-1.853 1.16,-3.367 3.152,-3.467 l 0,3.022 -2.31,0 0,0.423 2.31,0 0,1.752 0.423,0 0,-1.752 2.309,0 0,-0.423 -2.309,0 0,-3.022 c 1.991,0.1 3.152,1.614 3.152,3.467 l 0,2.847 -2.309,0 0,0.423 2.309,0 0,1.753 0.423,0 0,-1.753 2.31,0 0,-0.423 -2.31,0 0,-2.847 c 0,-1.739 1.023,-3.181 2.796,-3.434 10e-4,-1.642 -1.345,-2.975 -3.007,-2.976 -0.203,0 -0.401,0.019 -0.593,0.057 0.017,-0.127 0.026,-0.256 0.026,-0.387 0.001,-1.643 -1.347,-2.976 -3.009,-2.977"/></g></g></svg>