<svg xmlns:dc="http://purl.org/dc/elements/1.1/" xmlns:cc="http://creativecommons.org/ns#" xmlns:rdf="http://www.w3.org/1999/02/22-rdf-syntax-ns#" xmlns:svg="http://www.w3.org/2000/svg" xmlns="http://www.w3.org/2000/svg" viewBox="0 0 45 45" style="enable-background:new 0 0 45 45;" xml:space="preserve" version="1.1" id="svg2"><metadata id="metadata8"><rdf:RDF><cc:Work rdf:about=""><dc:format>image/svg+xml</dc:format><dc:type rdf:resource="http://purl.org/dc/dcmitype/StillImage"/></cc:Work></rdf:RDF></metadata><defs id="defs6"><clipPath id="clipPath16" clipPathUnits="userSpaceOnUse"><path id="path18" d="M 4,31 C 1.791,31 0,29.209 0,27 L 0,27 0,9 C 0,6.791 1.791,5 4,5 l 0,0 28,0 c 2.209,0 4,1.791 4,4 l 0,0 0,18 c 0,2.209 -1.791,4 -4,4 l 0,0 -28,0 z"/></clipPath></defs><g transform="matrix(1.25,0,0,-1.25,0,45)" id="g10"><g id="g12"><g xmlns="http://www.w3.org/2000/svg" clip-path="url(#clipPath16)" id="g14"><g id="g30"><path id="path20" style="fill:#00247d;fill-opacity:1;fill-rule:nonzero;stroke:none" d="M 36,9 C 36,6.791 34.209,5 32,5 L 4,5 C 1.791,5 0,6.791 0,9 l 0,18 c 0,2.209 1.791,4 4,4 l 28,0 c 2.209,0 4,-1.791 4,-4 L 36,9 z"/></g><g id="g34"><path id="path30" style="fill:#ffffff;fill-opacity:1;fill-rule:nonzero;stroke:none" d="m 23.3408,17.9966 c 0,2.298 1.862,4.161 4.161,4.161 2.298,0 4.16,-1.863 4.16,-4.161 0,-2.298 -1.862,-4.161 -4.16,-4.161 -2.299,0 -4.161,1.863 -4.161,4.161"/><path id="path31" style="fill:#3d7de1;fill-opacity:1;fill-rule:nonzero;stroke:none" d="m 27.502,17.9966 -1.511,3.556 1.511,-0.554 1.51,0.554 -1.51,-3.556 z"/><path id="path32" style="fill:#3d7de1;fill-opacity:1;fill-rule:nonzero;stroke:none" d="m 27.502,17.9966 3.556,1.51 -0.554,-1.51 0.554,-1.51 -3.556,1.51 z"/><path id="path33" style="fill:#3d7de1;fill-opacity:1;fill-rule:nonzero;stroke:none" d="m 27.9482,16.9443 1.063,-2.504 -1.509,0.554 -1.511,-0.554 1.064,2.506 0.893,-0.002 z"/><path id="path34" style="fill:#3d7de1;fill-opacity:1;fill-rule:nonzero;stroke:none" d="m 27.502,17.9966 -3.557,-1.51 0.554,1.51 -0.554,1.51 3.557,-1.51 z"/><path id="path35" style="fill:#ce1126;fill-opacity:1;fill-rule:nonzero;stroke:none" d="m 28.3613,17.5347 0.313,0.363 -0.044,0.357 0.083,0.157 c 0,0 -0.01,0.22 -0.193,0.288 -0.181,0.067 -0.343,-0.007 -0.343,-0.007 0,0 -0.113,0.065 -0.296,0.113 -0.184,0.048 -0.379,-0.007 -0.379,-0.007 0,0 -0.197,0.055 -0.38,0.007 -0.184,-0.048 -0.297,-0.113 -0.297,-0.113 0,0 -0.161,0.074 -0.343,0.007 -0.183,-0.068 -0.192,-0.288 -0.192,-0.288 l 0.084,-0.157 -0.046,-0.357 0.313,-0.363 1.72,0 z"/><path id="path36" style="fill:#f7d917;fill-opacity:1;fill-rule:nonzero;stroke:none" d="m 27.3145,19.2939 c 0,0.079 0.05,0.147 0.119,0.174 l 0.043,0.138 -0.17,-0.125 0,0.275 0.17,-0.12 -0.121,0.167 0.292,0 -0.121,-0.167 0.17,0.12 0,-0.275 -0.17,0.125 0.043,-0.138 c 0.069,-0.027 0.119,-0.095 0.119,-0.174 0,-0.068 -0.036,-0.127 -0.091,-0.16 l 0.1,0 10e-4,-0.054 c 0.301,0.017 0.582,0.064 0.76,0.064 0.215,0 0.507,-0.431 0.344,-0.669 -0.163,-0.239 -0.109,-0.267 -0.109,-0.267 l 0.067,-0.016 -0.114,-0.617 0,-0.301 c 0,0 -0.551,0.226 -1.145,0.226 -0.594,0 -1.145,-0.226 -1.145,-0.226 l 0,0.301 -0.114,0.617 0.067,0.016 c 0,0 0.054,0.028 -0.109,0.267 -0.163,0.238 0.129,0.669 0.344,0.669 0.178,0 0.459,-0.047 0.76,-0.064 l 10e-4,0.054 0.099,0 c -0.054,0.033 -0.09,0.093 -0.09,0.16 m -0.009,-0.304 c -0.146,0.008 -0.287,0.023 -0.416,0.037 -0.137,0.015 -0.256,0.027 -0.345,0.027 -0.064,0 -0.174,-0.082 -0.247,-0.219 -0.064,-0.122 -0.072,-0.237 -0.022,-0.31 0.137,-0.2 0.2,-0.283 0.2,-0.283 0,0 -0.055,-0.054 -0.099,-0.156 -0.045,-0.103 -0.041,-0.145 -0.041,-0.145 l 0.228,0.235 0.082,-0.467 c 0,0 0.07,0.003 0.147,0.089 0.064,0.073 0.083,0.186 -0.043,0.201 -0.065,0.008 -0.103,-0.115 -0.103,-0.115 0,0 -0.019,0.224 0.051,0.259 0.065,0.032 0.134,-0.091 0.134,-0.091 0,0 -0.044,0.078 -0.045,0.165 -0.001,0.187 0.049,0.254 0.049,0.254 0,0 0.062,-0.066 0.09,-0.232 0.016,-0.09 -0.014,-0.167 -0.014,-0.167 0,0 0.046,0.118 0.114,0.11 0.074,-0.009 0.094,-0.242 0.094,-0.242 0,0 -0.052,0.127 -0.138,0.083 -0.087,-0.045 -0.062,-0.16 0.039,-0.203 0.075,-0.032 0.16,-0.022 0.16,-0.022 l -0.002,0.514 0.323,-0.228 -0.246,0.307 0.049,0 10e-4,0.599 z m 0.392,-0.599 0.05,0 -0.246,-0.307 0.322,0.228 -10e-4,-0.514 c 0,0 0.085,-0.01 0.16,0.022 0.1,0.043 0.126,0.158 0.039,0.203 -0.086,0.044 -0.138,-0.083 -0.138,-0.083 0,0 0.02,0.233 0.094,0.242 0.067,0.008 0.114,-0.11 0.114,-0.11 0,0 -0.03,0.077 -0.014,0.167 0.028,0.166 0.091,0.232 0.091,0.232 0,0 0.049,-0.067 0.048,-0.254 -0.001,-0.087 -0.046,-0.165 -0.046,-0.165 0,0 0.07,0.123 0.135,0.091 0.071,-0.035 0.05,-0.259 0.05,-0.259 0,0 -0.037,0.123 -0.102,0.115 -0.126,-0.015 -0.107,-0.128 -0.043,-0.201 0.077,-0.086 0.147,-0.089 0.147,-0.089 l 0.082,0.467 0.228,-0.235 c 0,0 0.004,0.042 -0.041,0.145 -0.044,0.102 -0.099,0.156 -0.099,0.156 0,0 0.063,0.083 0.2,0.283 0.05,0.073 0.042,0.188 -0.022,0.31 -0.073,0.137 -0.183,0.219 -0.247,0.219 -0.089,0 -0.208,-0.012 -0.345,-0.027 -0.129,-0.014 -0.27,-0.029 -0.416,-0.037 l 0,-0.599 z"/><path id="path37" style="fill:#ffffff;fill-opacity:1;fill-rule:nonzero;stroke:none" d="m 27.3906,18.0952 c 0,0.061 0.05,0.11 0.111,0.11 0.061,0 0.111,-0.049 0.111,-0.11 0,-0.062 -0.05,-0.111 -0.111,-0.111 -0.061,0 -0.111,0.049 -0.111,0.111"/><path id="path38" style="fill:#ffffff;fill-opacity:1;fill-rule:nonzero;stroke:none" d="m 28.5635,17.8979 c 0,0.062 0.05,0.111 0.111,0.111 0.061,0 0.111,-0.049 0.111,-0.111 0,-0.061 -0.05,-0.11 -0.111,-0.11 -0.061,0 -0.111,0.049 -0.111,0.11"/><path id="path39" style="fill:#ffffff;fill-opacity:1;fill-rule:nonzero;stroke:none" d="m 26.2178,17.8979 c 0,0.062 0.049,0.111 0.11,0.111 0.062,0 0.111,-0.049 0.111,-0.111 0,-0.061 -0.049,-0.11 -0.111,-0.11 -0.061,0 -0.11,0.049 -0.11,0.11"/></g><g id="g38"><path id="path40" style="fill:#00247d;fill-opacity:1;fill-rule:nonzero;stroke:none" d="m 19.001,31 -19,0 0,-13 19,0 0,13 z"/><path id="path42" style="fill:#eeeeee;fill-opacity:1;fill-rule:nonzero;stroke:none" d="m 7.3911,24.4961 -7.391,-5.262 0,-1.234 3.332,0 6.669,4.669 6.668,-4.669 2.332,0 0,2.029 -6.386,4.471 6.386,4.471 0,2.029 -2.331,0 -6.67,-4.67 -6.667,4.67 -3.332,0 0,-1.332 7.39,-5.172 z"/><path id="path44" style="fill:#cf142b;fill-opacity:1;fill-rule:nonzero;stroke:none" d="m 10.8735,23.8887 8.127,-5.69 0,1.219 -8.127,5.692 8.127,5.692 0,0.198 -1.46,0 -8.412,-5.889 -8.41,5.889 -0.718,-0.712 9.128,-6.399 -8.394,-5.889 0.266,0 1.461,0 8.412,5.889 z"/><path id="path46" style="fill:#eeeeee;fill-opacity:1;fill-rule:nonzero;stroke:none" d="m 19.001,27 -7,0 0,4 -5,0 0,-4 -7,0 0,-5 7,0 0,-4 5,0 0,4 7,0 0,5 z"/><path id="path48" style="fill:#cf142b;fill-opacity:1;fill-rule:nonzero;stroke:none" d="m 11.001,23 0,-5 -3,0 0,5 -8,0 0,3 8,0 0,5 3,0 0,-5 8,0 0,-3 -8,0 z"/></g></g></g></g></svg>