<svg xmlns:dc="http://purl.org/dc/elements/1.1/" xmlns:cc="http://creativecommons.org/ns#" xmlns:rdf="http://www.w3.org/1999/02/22-rdf-syntax-ns#" xmlns:svg="http://www.w3.org/2000/svg" xmlns="http://www.w3.org/2000/svg" viewBox="0 0 45 45" style="enable-background:new 0 0 45 45;" xml:space="preserve" version="1.1" id="svg2"><metadata id="metadata8"><rdf:RDF><cc:Work rdf:about=""><dc:format>image/svg+xml</dc:format><dc:type rdf:resource="http://purl.org/dc/dcmitype/StillImage"/></cc:Work></rdf:RDF></metadata><defs id="defs6"><clipPath id="clipPath16" clipPathUnits="userSpaceOnUse"><path id="path18" d="M 0,36 36,36 36,0 0,0 0,36 Z"/></clipPath></defs><g transform="matrix(1.25,0,0,-1.25,0,45)" id="g10"><g id="g12"><g xmlns="http://www.w3.org/2000/svg" clip-path="url(#clipPath16)" id="g14"><g id="g20"><path id="path22" style="fill:#078930;fill-opacity:1;fill-rule:nonzero;stroke:none" d="M 1.3646,5.991 C 2.0686,5.374 2.9906,5 4.0006,5 h 28 c 2.209,0 4,1.791 4,4 v 18 c 0,1.199 -0.529,2.275 -1.365,3.009"/></g><g id="g24"><path id="path26" style="fill:#da121a;fill-opacity:1;fill-rule:nonzero;stroke:none" d="m 34.636,30.0086 c -0.704,0.617 -1.626,0.991 -2.636,0.991 H 4 c -2.209,0 -4,-1.791 -4,-4 v -18 c 0,-1.199 0.528,-2.275 1.365,-3.009"/></g><g id="g28"><path id="path30" style="fill:#fcdd09;fill-opacity:1;fill-rule:nonzero;stroke:none" d="m 18.0003,23.1834 1.062,-2.618 2.603,1.1 -1.1,-2.603 2.618,-1.062 -2.618,-1.063 1.1,-2.602 -2.603,1.1 -1.062,-2.618 -1.062,2.618 -2.603,-1.1 1.1,2.602 -2.618,1.063 2.618,1.062 -1.1,2.603 2.603,-1.1 z"/></g></g></g></g></svg>