<svg xmlns:dc="http://purl.org/dc/elements/1.1/" xmlns:cc="http://creativecommons.org/ns#" xmlns:rdf="http://www.w3.org/1999/02/22-rdf-syntax-ns#" xmlns:svg="http://www.w3.org/2000/svg" xmlns="http://www.w3.org/2000/svg" viewBox="0 0 45 45" style="enable-background:new 0 0 45 45;" xml:space="preserve" version="1.1" id="svg2"><metadata id="metadata8"><rdf:RDF><cc:Work rdf:about=""><dc:format>image/svg+xml</dc:format><dc:type rdf:resource="http://purl.org/dc/dcmitype/StillImage"/></cc:Work></rdf:RDF></metadata><defs id="defs6"><clipPath id="clipPath16" clipPathUnits="userSpaceOnUse"><path id="path18" d="M 0,36 36,36 36,0 0,0 0,36 Z"/></clipPath></defs><g transform="matrix(1.25,0,0,-1.25,0,45)" id="g10"><g id="g12"><g xmlns="http://www.w3.org/2000/svg" clip-path="url(#clipPath16)" id="g14"><g id="g30"><path id="path20" style="fill:#0a1f62;fill-opacity:1;fill-rule:nonzero;stroke:none" d="M 9,31 4,31 C 1.791,31 0,29.209 0,27 L 0,9 C 0,6.791 1.791,5 4,5 l 5,0 0,26 z"/><path id="path22" style="fill:#eeeeee;fill-opacity:1;fill-rule:nonzero;stroke:none" d="M 9,5 27,5 27,31 9,31 9,5 z"/><path id="path24" style="fill:#d90026;fill-opacity:1;fill-rule:nonzero;stroke:none" d="m 27,5 5,0 c 2.209,0 4,1.791 4,4 l 0,18 c 0,2.209 -1.791,4 -4,4 l -5,0 0,-26 z"/></g><g id="g34"><path id="path30" style="fill:#d90026;fill-opacity:1;fill-rule:nonzero;stroke:none" d="m 14.6455,12.0566 0,0.213 0.729,0 0,-0.213 -0.188,-0.036 0,-1.264 0.188,-0.036 0,-0.212 -0.729,0 0,0.212 0.189,0.036 0,1.264 -0.189,0.036 z"/><path id="path32" style="fill:#d90026;fill-opacity:1;fill-rule:nonzero;stroke:none" d="m 16.8159,11.4053 c 0,0.182 -0.038,0.33 -0.113,0.443 -0.076,0.114 -0.188,0.171 -0.337,0.171 -0.148,0 -0.258,-0.056 -0.332,-0.17 -0.072,-0.112 -0.109,-0.26 -0.109,-0.444 l 0,-0.029 c 0,-0.186 0.037,-0.335 0.111,-0.449 0.073,-0.113 0.184,-0.169 0.332,-0.169 0.149,0 0.261,0.056 0.336,0.169 0.075,0.114 0.112,0.263 0.112,0.449 l 0,0.029 z m 0.352,-0.029 c 0,-0.258 -0.074,-0.472 -0.221,-0.64 -0.148,-0.169 -0.341,-0.253 -0.579,-0.253 -0.239,0 -0.43,0.084 -0.577,0.253 -0.146,0.168 -0.219,0.382 -0.219,0.64 l 0,0.026 c 0,0.257 0.073,0.47 0.219,0.639 0.146,0.169 0.338,0.254 0.575,0.254 0.239,0 0.432,-0.085 0.58,-0.254 0.148,-0.169 0.222,-0.382 0.222,-0.639 l 0,-0.026 z"/><path id="path34" style="fill:#d90026;fill-opacity:1;fill-rule:nonzero;stroke:none" d="m 19.6396,12.0566 -0.146,-0.019 -0.356,-1.529 -0.327,0 -0.324,1.162 -0.007,0 -0.322,-1.162 -0.328,0 -0.359,1.529 -0.144,0.019 0,0.213 0.648,0 0,-0.213 -0.161,-0.027 0.202,-0.966 0.007,-10e-4 0.33,1.207 0.261,0 0.332,-1.207 0.007,10e-4 0.201,0.966 -0.161,0.027 0,0.213 0.647,0 0,-0.213 z"/><path id="path36" style="fill:#d90026;fill-opacity:1;fill-rule:nonzero;stroke:none" d="m 20.207,11.2441 0.403,0 -0.198,0.62 -0.007,0 -0.198,-0.62 z m -0.639,-0.523 0.126,0.017 0.535,1.531 0.362,0 0.532,-1.531 0.126,-0.017 0,-0.212 -0.6,0 0,0.212 0.122,0.021 -0.077,0.242 -0.571,0 -0.077,-0.242 0.122,-0.021 0,-0.212 -0.6,0 0,0.212 z"/></g><g id="g38"><path id="path40" style="fill:#0a1f62;fill-opacity:1;fill-rule:nonzero;stroke:none" d="m 11.5981,21.9902 c 0,0 0.133,0.451 0.765,0.608 0.631,0.157 0.725,-0.275 0.725,-0.275 0,0 0.11,-0.368 0.074,-0.702 -0.035,-0.333 -0.418,-0.834 -0.992,-0.976 -0.599,-0.149 -0.745,-0.275 -0.745,-0.275 0,0 -0.109,-0.29 0.133,-0.486 0.244,-0.196 0.573,-0.2 0.573,-0.2 0,0 1.427,0.592 2.447,0.679 1.02,0.086 1.381,-0.04 1.381,-0.04 l 0.196,-1.113 c 0,0 -0.095,-0.338 -1.036,-0.377 -0.941,-0.039 -1.247,0.275 -1.247,0.275 0,0 -0.36,-0.134 -0.941,-0.392 -0.58,-0.259 -0.988,-0.463 -0.988,-0.463 0,0 0.494,-0.173 0.69,-0.431 0.196,-0.259 0.181,-0.762 0.181,-0.762 0,0 0.454,0.409 1.38,0.981 0.925,0.573 1.914,0.659 1.914,0.659 0,0 0.141,-0.018 0.13,-0.395 -0.017,-0.62 -0.126,-0.635 -0.126,-0.635 0,0 0.006,-0.126 -0.051,-0.279 -0.055,-0.153 -0.147,-0.223 -0.147,-0.223 0,0 -0.12,-0.377 -0.12,-0.572 0,-0.193 0.074,-0.293 0.074,-0.293 0,0 0.726,0.267 1.526,2.208 0.334,0.812 0.673,1.613 0.984,2.244 0.565,1.145 1.02,1.36 1.02,1.36 0,0 0.341,-0.658 0.843,-0.733 1.138,-0.169 2.123,0.259 3.776,0.259 0.786,0 1.324,-0.282 1.324,-0.877 0,-0.34 -0.205,-0.494 -0.205,-0.494 0,0 -0.083,-0.174 -0.303,-0.237 -0.22,-0.063 -0.38,-0.188 -0.38,-0.188 0,0 0.188,-0.102 0.384,-0.263 0.196,-0.161 0.262,-0.247 0.262,-0.247 l -0.121,-0.988 c 0,0 -0.231,-0.263 -0.599,0.027 -0.369,0.29 -0.251,0.596 -0.251,0.596 0,0 -0.22,0.169 -0.977,0.306 -0.757,0.137 -1.349,-0.031 -1.349,-0.031 0,0 0.373,-0.44 0.282,-0.776 -0.09,-0.338 -0.604,-0.526 -0.604,-0.526 0,0 0.827,-0.361 2.086,-0.41 1.294,-0.05 2.323,0.179 2.323,0.179 0,0 0.082,-0.112 0.155,-0.497 0.073,-0.386 0.044,-0.701 0.044,-0.701 0,0 0.02,-0.102 -0.153,-0.159 -0.173,-0.055 -0.371,-0.099 -0.371,-0.099 0,0 -0.187,-0.286 -0.134,-0.445 0.052,-0.158 0.261,-0.209 0.261,-0.209 0,0 -0.2,-0.096 -0.473,0.048 -0.274,0.144 -0.154,0.458 -0.154,0.458 l 0.306,0.563 c 0,0 -0.858,-0.189 -2.053,-0.154 -1.194,0.036 -2.664,0.613 -2.664,0.613 0,0 -0.253,-0.37 -0.638,-0.121 -0.324,0.209 -0.163,0.606 -0.163,0.606 0,0 0.037,0.188 0.148,0.461 0.111,0.274 0.209,0.444 0.209,0.444 0,0 0.215,-0.082 0.703,-0.035 0.488,0.047 0.588,0.218 0.588,0.218 0,0 -0.076,0.07 -0.227,0.126 -0.125,0.047 -0.235,0.068 -0.235,0.068 l -0.569,0.932 c 0,0 0.729,0.408 1.78,0.471 1.051,0.063 1.592,-0.173 1.592,-0.173 0,0 0.052,0.082 0.317,0.218 0.264,0.136 0.289,0.278 0.289,0.278 0,0 -0.443,0.168 -1.763,-0.013 -1.114,-0.153 -2.043,0.011 -2.509,0.235 -0.566,0.27 -0.659,0.903 -0.659,0.903 0,0 -0.436,-0.413 -0.71,-1.629 -0.275,-1.215 -0.628,-2.666 -1.592,-3.944 -0.408,-0.54 -0.997,-0.943 -1.334,-0.769 -0.649,0.333 -0.566,0.841 -0.566,0.841 0,0 -0.126,0.045 -0.104,0.214 0.021,0.169 0.284,0.301 0.284,0.301 0,0 0.081,0.203 0.012,0.436 -0.069,0.233 -0.367,0.158 -0.367,0.158 0,0 -0.509,-0.278 -1.314,-0.866 -0.807,-0.588 -1.655,-0.86 -1.655,-0.86 0,0 -0.086,0.172 -0.27,0.438 -0.184,0.267 -0.435,0.51 -0.435,0.51 0,0 -0.063,0.116 -0.028,0.208 0.036,0.093 0.269,0.214 0.269,0.214 0,0 -0.108,0.128 -0.322,0.231 -0.214,0.104 -0.59,0.131 -0.59,0.131 0,0 -0.11,0.157 -0.106,0.726 0.004,0.569 0.039,0.714 0.039,0.714 0,0 0.13,0.094 0.232,0.161 0.101,0.066 0.306,0.188 0.306,0.188 0,0 -0.196,0.067 -0.354,0.247 -0.156,0.18 -0.152,0.42 -0.152,0.42 0,0 -0.095,0.255 -0.051,0.753 0.015,0.179 0.047,0.411 0.203,0.576 0.158,0.164 0.756,0.371 0.756,0.371 0,0 -0.024,0.054 -0.046,0.201 -0.021,0.148 -0.023,0.271 -0.023,0.271"/><path id="path42" style="fill:#ffb30f;fill-opacity:1;fill-rule:nonzero;stroke:none" d="m 19.4492,22.5073 c 0,0 0.194,-0.107 0.292,-0.295 0.139,-0.265 -0.053,-0.388 -0.053,-0.388 0,0 -0.029,0.087 -0.115,0.174 -0.086,0.088 -0.198,0.133 -0.198,0.133 0,0 -0.066,-0.126 -0.12,-0.125 -0.055,0.002 -0.054,0.039 -0.187,0.111 -0.133,0.072 -0.318,0.15 -0.318,0.15 l 0.699,0.24 z"/><path id="path44" style="fill:#ffffff;fill-opacity:1;fill-rule:nonzero;stroke:none" d="m 16.4878,24.0156 c 0,0 -0.051,-1.1 1.188,-1.54 1.375,-0.487 1.773,0.032 1.773,0.032 0,0 -0.066,0.188 -0.251,0.361 -0.184,0.172 -2.196,1.788 -2.196,1.788 l -0.514,-0.641 z"/><path id="path46" style="fill:#a54a00;fill-opacity:1;fill-rule:nonzero;stroke:none" d="m 16.3706,25.9741 c 0,0 -0.074,0.112 -0.121,0.382 -0.046,0.271 -0.311,0.35 -0.264,0.639 0.047,0.288 0.35,0.867 -1.715,0.867 -2.667,0 -5.059,-2.659 -5.059,-2.659 0,0 0.809,-0.119 3.392,0.235 2.584,0.354 3.271,-0.687 3.271,-0.687 0,0 -0.01,-0.196 0.053,-0.534 0.063,-0.337 0.267,-0.596 0.267,-0.596 0,0 -0.071,0.243 0.47,0.486 0.541,0.243 1.012,-0.094 1.012,-0.094 0,0 0.267,-0.612 1.106,-0.831 0.838,-0.22 1.106,-0.157 1.106,-0.157 0,0 -0.118,0.251 -0.33,0.557 -0.212,0.306 -0.298,0.431 -0.298,0.431 0,0 0.318,1.011 1.599,1.426 1.281,0.416 1.75,-0.209 3.359,-0.444 1.61,-0.234 2.313,0 2.313,0 0,0 -1.537,1.222 -2.785,1.952 -0.548,0.321 -1.033,0.335 -1.663,0.572 -0.962,0.363 -1.294,0.486 -1.717,0.486 -0.139,0 -0.465,-0.103 -0.8,-0.196 -0.378,-0.105 -0.666,-0.07 -0.847,-0.408 -0.096,-0.178 0.076,-0.569 0.039,-0.878 -0.039,-0.325 -0.266,-0.572 -0.266,-0.572 0,0 -0.44,0.297 -1.216,0.297 -0.777,0 -0.906,-0.274 -0.906,-0.274"/></g></g></g></g></svg>