<svg xmlns:dc="http://purl.org/dc/elements/1.1/" xmlns:cc="http://creativecommons.org/ns#" xmlns:rdf="http://www.w3.org/1999/02/22-rdf-syntax-ns#" xmlns:svg="http://www.w3.org/2000/svg" xmlns="http://www.w3.org/2000/svg" viewBox="0 0 45 45" style="enable-background:new 0 0 45 45;" xml:space="preserve" version="1.1" id="svg2"><metadata id="metadata8"><rdf:RDF><cc:Work rdf:about=""><dc:format>image/svg+xml</dc:format><dc:type rdf:resource="http://purl.org/dc/dcmitype/StillImage"/></cc:Work></rdf:RDF></metadata><defs id="defs6"><clipPath id="clipPath16" clipPathUnits="userSpaceOnUse"><path id="path18" d="M 4,31 C 1.791,31 0,29.209 0,27 L 0,27 0,9 C 0,6.791 1.791,5 4,5 l 0,0 28,0 c 2.209,0 4,1.791 4,4 l 0,0 0,18 c 0,2.209 -1.791,4 -4,4 l 0,0 -28,0 z"/></clipPath></defs><g transform="matrix(1.25,0,0,-1.25,0,45)" id="g10"><g id="g12"><g xmlns="http://www.w3.org/2000/svg" clip-path="url(#clipPath16)" id="g14"><g id="g30"><path id="path20" style="fill:#eeeeee;fill-opacity:1;fill-rule:nonzero;stroke:none" d="M 0,5 H 36 V 31 H 0 Z"/></g><g id="g32"><path id="path30" style="fill:#07adeb;fill-opacity:1;fill-rule:nonzero;stroke:none" d="m 36,8.8721 -11.729,12.693 -6.085,-4.63 -11.961,14.065 H 36 Z"/></g><g id="g34"><path id="path40" style="fill:#990000;fill-opacity:1;fill-rule:nonzero;stroke:none" d="m 11.6904,21.7983 c 0,1.233 -1.528,2.233 -3.414,2.233 -1.884,0 -3.413,-1 -3.413,-2.233 0,-1.233 1.529,-2.233 3.413,-2.233 1.886,0 3.414,1 3.414,2.233 m -3.414,-2.784 c -2.195,0 -3.975,1.186 -3.975,2.65 0,1.464 1.78,2.651 3.975,2.651 2.196,0 3.976,-1.187 3.976,-2.651 0,-1.464 -1.78,-2.65 -3.976,-2.65"/><path id="path41" style="fill:#990000;fill-opacity:1;fill-rule:nonzero;stroke:none" d="m 14.1274,15.1348 -0.506,-0.409 c 0,0 -1.241,2.917 -3.749,5.582 -2.362,2.511 -4.944,3.755 -4.944,3.755 l 0.213,0.141 c 0,0 2.538,-1.27 4.883,-3.472 2.704,-2.538 4.103,-5.597 4.103,-5.597"/><path id="path42" style="fill:#990000;fill-opacity:1;fill-rule:nonzero;stroke:none" d="m 15.2178,16.0176 -0.519,-0.427 c 0,0 -1.225,2.546 -4.17,5.223 -2.649,2.409 -5.289,3.456 -5.289,3.456 l 0.204,0.119 c 0,0 2.584,-1.098 5.217,-3.158 2.921,-2.285 4.557,-5.213 4.557,-5.213"/><path id="path43" style="fill:#990000;fill-opacity:1;fill-rule:nonzero;stroke:none" d="m 16.189,16.8057 -0.512,-0.42 c 0,0 -1.372,2.433 -4.805,5.111 -2.64,2.059 -5.367,2.934 -5.367,2.934 l 0.189,0.126 c 0,0 2.355,-0.755 5.206,-2.619 3.411,-2.229 5.289,-5.132 5.289,-5.132"/><path id="path44" style="fill:#990000;fill-opacity:1;fill-rule:nonzero;stroke:none" d="m 2.4268,15.1348 0.506,-0.409 c 0,0 1.241,2.917 3.749,5.582 2.362,2.511 4.944,3.755 4.944,3.755 l -0.214,0.141 c 0,0 -2.537,-1.27 -4.882,-3.472 -2.704,-2.538 -4.103,-5.597 -4.103,-5.597"/><path id="path45" style="fill:#990000;fill-opacity:1;fill-rule:nonzero;stroke:none" d="m 1.3364,16.0176 0.519,-0.427 c 0,0 1.225,2.546 4.17,5.223 2.649,2.409 5.288,3.456 5.288,3.456 l -0.203,0.119 c 0,0 -2.584,-1.098 -5.217,-3.158 -2.921,-2.285 -4.557,-5.213 -4.557,-5.213"/><path id="path46" style="fill:#990000;fill-opacity:1;fill-rule:nonzero;stroke:none" d="m 0.3652,16.8057 0.512,-0.42 c 0,0 1.372,2.433 4.805,5.111 2.64,2.059 5.367,2.934 5.367,2.934 l -0.189,0.126 c 0,0 -2.355,-0.755 -5.206,-2.619 -3.412,-2.229 -5.289,-5.132 -5.289,-5.132"/></g></g></g></g></svg>