<svg xmlns:dc="http://purl.org/dc/elements/1.1/" xmlns:cc="http://creativecommons.org/ns#" xmlns:rdf="http://www.w3.org/1999/02/22-rdf-syntax-ns#" xmlns:svg="http://www.w3.org/2000/svg" xmlns="http://www.w3.org/2000/svg" viewBox="0 0 45 45" style="enable-background:new 0 0 45 45;" xml:space="preserve" version="1.1" id="svg2"><metadata id="metadata8"><rdf:RDF><cc:Work rdf:about=""><dc:format>image/svg+xml</dc:format><dc:type rdf:resource="http://purl.org/dc/dcmitype/StillImage"/></cc:Work></rdf:RDF></metadata><defs id="defs6"><clipPath id="clipPath16" clipPathUnits="userSpaceOnUse"><path id="path18" d="M 4,31 C 1.791,31 0,29.209 0,27 L 0,27 0,9 C 0,6.791 1.791,5 4,5 l 0,0 28,0 c 2.209,0 4,1.791 4,4 l 0,0 0,18 c 0,2.209 -1.791,4 -4,4 l 0,0 -28,0 z"/></clipPath><clipPath id="clipPath28" clipPathUnits="userSpaceOnUse"><path id="path20" d="M 0,36 36,36 36,0 0,0 0,36 Z"/></clipPath></defs><g xmlns="http://www.w3.org/2000/svg" transform="matrix(1.25,0,0,-1.25,0,45)" id="g10"><path id="path30" style="fill:#75aadb" d="M 28.4004,18 V 9 c 0,-2.209 -1.791,-4 -4,-4 h -12.8 c -2.21,0 -4,1.791 -4,4 v 9 z"/><path id="path32" style="fill:#eeeeee" d="m 7.6001,18 v 9 c 0,2.209 1.791,4 4,4 h 12.8 c 2.209,0 4,-1.791 4,-4 v -9 z"/><g id="g20"><path id="path40" style="fill:#fcbf49" d="m 21.3125,23.5752 -1.987,-0.075 1.937,-0.463 -0.012,-0.1 -2.013,0.326 1.85,-0.851 -0.038,-0.1 -1.887,0.701 1.625,-1.176 -0.05,-0.087 -1.738,1.075 1.388,-1.5 -0.075,-0.075 -1.5,1.388 1.075,-1.738 -0.088,-0.05 -1.187,1.637 0.7,-1.9 -0.088,-0.037 -0.837,1.825 0.313,-1.988 -0.1,-0.025 -0.476,1.963 -0.075,-2.013 h -0.099 l -0.076,2.013 -0.475,-1.963 -0.1,0.025 0.338,2.013 -0.863,-1.85 -0.1,0.037 0.725,1.926 -1.199,-1.663 -0.088,0.05 1.075,1.738 -1.5,-1.388 -0.075,0.075 1.375,1.475 -1.713,-1.05 -0.049,0.075 1.625,1.188 -1.888,-0.701 -0.038,0.088 1.826,0.837 -1.988,-0.312 -0.025,0.1 1.963,0.475 -2.013,0.075 v 0.1 l 2.05,0.075 -2,0.475 0.013,0.1 2.037,-0.325 -1.875,0.85 0.038,0.1 1.9,-0.7 -1.638,1.175 0.05,0.087 1.738,-1.062 -1.388,1.487 0.075,0.076 1.487,-1.376 -1.062,1.725 0.088,0.05 1.187,-1.637 -0.7,1.9 0.087,0.037 0.85,-1.837 -0.325,2 0.1,0.025 0.475,-1.963 0.076,2.013 h 0.099 l 0.075,-2.05 0.476,2 0.1,-0.025 -0.313,-2 0.837,1.837 0.101,-0.037 -0.713,-1.913 1.187,1.65 0.088,-0.05 -1.075,-1.737 1.5,1.388 0.075,-0.076 -1.388,-1.487 1.725,1.062 0.063,-0.087 -1.637,-1.188 1.887,0.7 0.05,-0.087 -1.812,-0.838 1.962,0.313 0.025,-0.1 -1.987,-0.475 2.037,-0.075 z"/><path id="path42" style="fill:#fcbf49" d="m 21.9375,18 c 0,-1.162 -0.287,-2.35 -0.95,-3.338 -0.65,-0.974 -1.75,-1.75 -2.988,-1.75 -1.237,0 -2.337,0.776 -2.987,1.75 -0.662,0.988 -0.95,2.176 -0.95,3.338 0.025,1.163 0.35,2.337 1.025,3.288 0.125,0.174 0.263,0.35 0.425,0.512 l 0.037,-0.063 c -0.837,-0.9 -1.362,-2.237 -1.362,-3.737 0,-2.7 1.712,-4.9 3.812,-4.9 2.1,0 3.813,2.2 3.813,4.9 0,1.55 -0.562,2.925 -1.437,3.825 l 0.037,0.063 c 0.187,-0.188 0.35,-0.388 0.5,-0.6 0.675,-0.951 1,-2.125 1.025,-3.288"/><path id="path44" style="fill:#eeeeee" d="m 21.8086,18 c 0,-2.704 -1.705,-4.897 -3.809,-4.897 -2.103,0 -3.808,2.193 -3.808,4.897 z"/><path id="path46" style="fill:#75aadb" d="m 14.1914,18 c 0,2.705 1.705,4.897 3.809,4.897 2.103,0 3.808,-2.192 3.808,-4.897 z"/><path id="path48" style="fill:#da251d" d="m 16.8491,19.9336 c 0,0 -0.029,0.085 0,0.383 0.03,0.297 0.11,0.294 0.11,0.294 0,0 0.028,0.155 0.089,0.404 0.06,0.25 0.121,0.456 0.121,0.456 l -0.068,-0.014 c 0,0 0.006,-0.129 -0.201,-0.125 -0.185,0.004 -0.203,0.186 -0.129,0.254 0.044,0.041 0.121,0.059 0.121,0.059 0,0 0.282,0.322 0.438,0.43 0.127,0.087 0.408,0.16 0.408,0.16 0,0 0.076,0.004 0.17,-0.035 0.094,-0.04 0.152,-0.102 0.152,-0.102 0,0 0.114,-0.008 0.211,-0.1 0.098,-0.091 0.112,-0.222 0.112,-0.222 0,0 0.094,-0.061 0.152,-0.184 0.058,-0.122 0.063,-0.269 0.063,-0.269 0,0 0.074,-0.046 0.125,-0.28 0.05,-0.234 0.029,-0.429 0.029,-0.429 0,0 0.056,0.006 0.092,-0.317 0.035,-0.322 0.033,-0.349 0.033,-0.349 0,0 0.072,-0.223 -0.976,-0.223 -1.048,0 -1.052,0.209 -1.052,0.209"/><path id="path50" style="fill:#8f5444" d="m 18.0625,20.2373 v -5.687 h -0.325 v 5.687 c 0.062,0.013 0.125,0.013 0.187,0.013 0.051,0 0.088,0 0.138,-0.013"/><path id="path52" style="fill:#e6bc7f" d="m 20.0752,13.9004 c -0.601,-0.513 -1.312,-0.801 -2.075,-0.801 -0.788,0 -1.525,0.313 -2.138,0.851 0.151,0.062 0.35,0.112 0.575,0.112 h 0.013 c 0.037,0.188 0.312,0.338 0.662,0.375 0.088,0.213 0.425,0.362 0.825,0.362 0.4,0 0.738,-0.149 0.826,-0.362 0.349,-0.037 0.625,-0.187 0.662,-0.375 h 0.012 c 0.263,0 0.488,-0.062 0.638,-0.162"/><path id="path54" style="fill:#ef9ba0" d="m 21.2998,15.5498 c -0.2,-0.45 -0.462,-0.85 -0.763,-1.2 -0.136,0.113 -0.562,0.475 -0.949,0.725 -0.225,0.138 -0.513,0.4 -0.513,0.4 0,0 -0.075,0 -0.125,0.013 -0.05,0 -0.112,0.025 -0.112,0.025 0,0 -0.025,-0.025 -0.088,-0.025 -0.062,0 -0.087,0.038 -0.087,0.038 0,0 0.025,-0.076 -0.025,-0.114 -0.038,-0.049 -0.113,-0.024 -0.113,-0.024 0,0 -0.038,-0.05 -0.125,-0.088 -0.087,-0.05 -0.163,-0.037 -0.163,-0.037 0,0 -0.049,-0.075 -0.237,-0.063 -0.187,0 -0.212,0.05 -0.212,0.05 0,0 -0.038,-0.112 -0.163,-0.088 -0.125,0.026 -0.138,0.176 -0.138,0.176 0,0 0,-0.138 -0.125,-0.138 -0.099,0.013 -0.112,0.113 -0.112,0.138 -0.012,-0.013 -0.05,-0.062 -0.137,-0.038 -0.113,0.013 -0.113,0.112 -0.113,0.112 0,0 -0.112,-0.112 -0.187,0.013 -0.088,0.138 0.025,0.213 0.025,0.213 0,0 -0.175,0.062 -0.55,-0.188 -0.188,-0.137 -0.588,-0.299 -0.925,-0.487 -0.088,-0.051 -0.175,-0.1 -0.25,-0.163 -0.263,0.4 -0.488,0.862 -0.638,1.362 0.238,0.063 0.588,0.163 0.9,0.25 0.588,0.163 0.6,0.075 1.125,0.2 0.538,0.125 0.775,0.151 0.775,0.151 0,0 0.638,0.412 0.95,0.412 0.313,0 0.488,-0.399 1.437,-0.912 0.739,-0.401 1.388,-0.625 1.638,-0.713"/><path id="path56" style="fill:#00923f" d="m 13.8877,20.7876 c 0.212,0.038 0.675,0.475 0.675,0.475 0,0 -0.375,-0.088 -0.6,-0.213 0.05,0.25 0.062,0.563 0.062,0.563 0,0 -0.487,-0.813 -0.212,-0.863 0.025,0 0.05,0.013 0.075,0.038 m 0.012,-0.675 c 0,0 -0.9,-0.275 -0.725,-0.5 0.113,-0.15 0.725,0.5 0.725,0.5 m -0.387,0.65 c 0.188,-0.013 0.1,0.875 0.1,0.875 0,0 -0.388,-0.863 -0.1,-0.875 m -0.45,-1.537 c 0.125,-0.138 0.675,0.562 0.675,0.562 0,0 -0.875,-0.363 -0.675,-0.562 m 0.437,-0.388 c 0,0 -0.85,-0.413 -0.65,-0.6 0.15,-0.138 0.65,0.6 0.65,0.6 m -0.674,-1.175 c 0.149,-0.113 0.524,0.7 0.524,0.7 0,0 -0.774,-0.55 -0.524,-0.7 m 1.024,-2.163 c 0,0 -0.312,-0.9 -0.037,-0.887 0.187,0 0.037,0.887 0.037,0.887 m -0.5,2.425 c -0.112,-0.099 -0.587,-0.687 -0.35,-0.762 0.163,-0.063 0.326,0.6 0.35,0.762 m 0.275,6.276 c 0.013,-0.113 0.1,-0.5 0.225,-0.676 -0.075,-0.125 -0.087,-0.237 0,-0.275 0.175,-0.062 0.4,0.8 0.4,0.8 0,0 -0.162,-0.162 -0.275,-0.337 -0.1,0.187 -0.274,0.412 -0.35,0.488 m -0.85,-7.363 c 0.1,0.162 -0.699,0.55 -0.699,0.55 0,0 0.537,-0.788 0.699,-0.55 m 0.538,-1.5 c -0.213,0.087 -0.45,0.162 -0.45,0.162 0,0 0.65,-0.687 0.775,-0.424 0.025,0.049 -0.025,0.099 -0.113,0.149 0.025,0 0.051,0.013 0.075,0.051 0.013,0.024 0.013,0.05 -0.012,0.087 0.137,0.088 -0.088,0.85 -0.088,0.85 0,0 -0.112,-0.463 -0.062,-0.713 -0.213,0.151 -0.55,0.3 -0.55,0.3 0,0 0.225,-0.3 0.425,-0.462 m 0.162,1.6 c 0,0 -0.437,-0.838 -0.149,-0.862 0.187,-0.026 0.149,0.862 0.149,0.862 m -0.274,5.7 c 0.074,-0.15 0.412,-0.812 0.587,-0.625 0.112,0.125 -0.525,0.587 -0.587,0.625 m 0.937,-1.85 c 0,0 -0.888,-0.325 -0.7,-0.538 0.138,-0.149 0.7,0.538 0.7,0.538 m -2.113,-2.138 c 0,0 0.188,-0.925 0.426,-0.775 0.162,0.1 -0.426,0.775 -0.426,0.775 m 0.75,-0.5 c 0.176,0.088 -0.324,0.813 -0.324,0.813 0,0 0.074,-0.938 0.324,-0.813 m 0.475,2.85 c 0,0 -0.35,-0.887 -0.075,-0.887 0.188,0 0.075,0.887 0.075,0.887 m -1.275,-4.337 c 0.15,-0.125 0.726,-0.525 0.788,-0.3 0.05,0.163 -0.625,0.275 -0.788,0.3 m 0.788,2.5 c 0.175,0.075 -0.312,0.825 -0.312,0.825 0,0 0.049,-0.95 0.312,-0.825 m 1.225,3.15 c 0.137,0.112 0.1,0.862 0.1,0.862 0,0 -0.188,-0.362 -0.225,-0.625 -0.15,0.2 -0.375,0.426 -0.375,0.426 0,0 0.262,-0.913 0.487,-0.738 0.025,0.012 0.025,0.037 0.013,0.075 m 1.125,4.625 c 0,0 -0.638,-0.713 -0.363,-0.813 0.175,-0.062 0.363,0.813 0.363,0.813 m -1.825,-12.263 c 0.112,-0.099 0.7,-0.575 0.787,-0.337 0.05,0.162 -0.637,0.313 -0.787,0.337 m 0.875,7.863 c 0,0 -0.275,-0.9 0.012,-0.888 0.188,0.025 -0.012,0.888 -0.012,0.888 m 1.675,-10.087 c 0,0 0.887,-0.351 0.887,-0.076 0,0.188 -0.887,0.076 -0.887,0.076 m -2.012,10.687 c -0.176,0.188 -0.513,0.412 -0.513,0.412 0,0 0.212,-0.425 0.412,-0.599 -0.024,-0.063 -0.024,-0.125 0.038,-0.151 0.05,-0.025 0.112,0.026 0.162,0.125 0.15,0.213 0.288,0.638 0.288,0.638 0,0 -0.238,-0.225 -0.387,-0.425 m 0.599,-10.263 c 0,0 0.9,-0.287 0.888,-0.012 -0.013,0.187 -0.888,0.012 -0.888,0.012 m -0.387,11.675 c -0.05,0.213 -0.113,0.425 -0.113,0.425 0,0 -0.187,-0.925 0.088,-0.874 0.05,0.012 0.062,0.062 0.062,0.149 0.163,0.188 0.338,0.713 0.338,0.713 0,0 -0.238,-0.213 -0.375,-0.413 m 0.787,-10.425 c 0,0 -0.125,-0.937 0.15,-0.875 0.188,0.038 -0.15,0.875 -0.15,0.875 m 0.938,-0.75 c 0,0 0.387,-0.862 0.587,-0.65 0.138,0.138 -0.587,0.65 -0.587,0.65 m 1.137,-0.937 c 0.125,0.125 -0.512,0.6 -0.574,0.638 0.074,-0.151 0.412,-0.813 0.574,-0.638 m -2.475,8.85 c 0.238,0.05 0.5,0.15 0.5,0.15 0,0 -0.175,0.025 -0.362,0.025 0.075,0.2 0.125,0.525 0.137,0.625 -0.075,-0.075 -0.325,-0.425 -0.35,-0.637 h -0.012 c -0.175,-0.013 -0.313,-0.051 -0.288,-0.163 0.025,-0.075 0.188,-0.063 0.375,0 m 1.025,-7.775 c 0,0 0.25,-0.913 0.475,-0.737 0.151,0.112 -0.475,0.737 -0.475,0.737 m 3.363,-1.538 c -0.15,0.013 -0.3,0.025 -0.463,0.063 0.175,0.05 0.338,0.113 0.488,0.187 -0.288,-0.05 -0.563,-0.112 -0.838,-0.149 -0.275,0.037 -0.549,0.099 -0.837,0.149 0.15,-0.074 0.312,-0.137 0.487,-0.187 -0.162,-0.038 -0.312,-0.05 -0.462,-0.063 -0.112,-0.087 -0.175,-0.187 -0.175,-0.324 0.35,0.074 0.675,0.162 0.975,0.262 h 0.025 c 0.3,-0.1 0.625,-0.188 0.975,-0.262 0,0.137 -0.063,0.237 -0.175,0.324 m -4.175,13.613 c 0,0 -0.188,-0.163 -0.325,-0.338 0.025,0.25 0.012,0.576 0.012,0.576 0,0 -0.35,-0.713 -0.187,-0.838 -0.025,-0.075 -0.013,-0.125 0.05,-0.162 0.162,-0.088 0.45,0.762 0.45,0.762 m -0.363,-10.8 c 0,0 -0.062,-0.938 0.213,-0.85 0.175,0.05 -0.213,0.85 -0.213,0.85 m -0.1,-1.488 c 0,0 0.825,-0.462 0.863,-0.187 0.025,0.187 -0.863,0.187 -0.863,0.187 m -0.387,0.675 c 0,0 0.575,-0.75 0.725,-0.512 0.1,0.162 -0.725,0.512 -0.725,0.512 m 8.4,6.775 c 0.275,0.05 -0.213,0.863 -0.213,0.863 0,0 0.013,-0.313 0.062,-0.563 -0.224,0.125 -0.599,0.213 -0.599,0.213 0,0 0.463,-0.437 0.675,-0.475 0.025,-0.025 0.049,-0.038 0.075,-0.038 m 0.638,-1.137 c 0.174,0.225 -0.726,0.5 -0.726,0.5 0,0 0.613,-0.65 0.726,-0.5 m -0.438,2.025 c 0,0 -0.088,-0.888 0.1,-0.875 0.288,0.012 -0.1,0.875 -0.1,0.875 m -0.125,-1.85 c 0,0 0.55,-0.7 0.675,-0.562 0.2,0.199 -0.675,0.562 -0.675,0.562 m 0.888,-1.55 c 0.199,0.187 -0.651,0.6 -0.651,0.6 0,0 0.5,-0.738 0.651,-0.6 m -0.5,0.125 c 0,0 0.375,-0.813 0.524,-0.7 0.25,0.15 -0.524,0.7 -0.524,0.7 m -0.463,-3.75 c 0.275,-0.013 -0.037,0.887 -0.037,0.887 0,0 -0.151,-0.887 0.037,-0.887 m 0.812,2.55 c 0.238,0.075 -0.237,0.663 -0.349,0.762 0.024,-0.162 0.187,-0.825 0.349,-0.762 m -0.974,6.55 c -0.114,0.175 -0.276,0.337 -0.276,0.337 0,0 0.225,-0.862 0.401,-0.8 0.087,0.038 0.074,0.15 0,0.275 0.125,0.176 0.212,0.563 0.224,0.676 -0.075,-0.076 -0.25,-0.301 -0.349,-0.488 m 1.899,-6.325 c 0,0 -0.8,-0.388 -0.7,-0.55 0.163,-0.238 0.7,0.55 0.7,0.55 m -0.812,-1.588 c 0,0 -0.337,-0.149 -0.55,-0.3 0.05,0.25 -0.063,0.713 -0.063,0.713 0,0 -0.224,-0.762 -0.088,-0.85 -0.024,-0.037 -0.024,-0.063 -0.011,-0.087 0.024,-0.038 0.05,-0.051 0.074,-0.051 -0.087,-0.05 -0.137,-0.1 -0.112,-0.149 0.125,-0.263 0.775,0.424 0.775,0.424 0,0 -0.237,-0.075 -0.45,-0.162 0.2,0.162 0.425,0.462 0.425,0.462 m -0.438,0.276 c 0.288,0.024 -0.149,0.862 -0.149,0.862 0,0 -0.038,-0.888 0.149,-0.862 m -0.462,5.937 c 0.175,-0.187 0.512,0.475 0.587,0.625 -0.062,-0.038 -0.7,-0.5 -0.587,-0.625 m 0.35,-1.763 c 0.187,0.213 -0.7,0.538 -0.7,0.538 0,0 0.562,-0.687 0.7,-0.538 m 0.987,-2.375 c 0.237,-0.15 0.425,0.775 0.425,0.775 0,0 -0.587,-0.675 -0.425,-0.775 m 0,1.088 c 0,0 -0.5,-0.725 -0.325,-0.813 0.25,-0.125 0.325,0.813 0.325,0.813 m -0.724,1.15 c 0.274,0 -0.076,0.887 -0.076,0.887 0,0 -0.112,-0.887 0.076,-0.887 m 0.412,-3.75 c 0.062,-0.225 0.637,0.175 0.788,0.3 -0.163,-0.025 -0.838,-0.137 -0.788,-0.3 m 0.312,3.625 c 0,0 -0.487,-0.75 -0.312,-0.825 0.262,-0.125 0.312,0.825 0.312,0.825 m -1.524,2.25 c 0.224,-0.175 0.487,0.738 0.487,0.738 0,0 -0.226,-0.226 -0.375,-0.426 -0.038,0.263 -0.226,0.625 -0.226,0.625 0,0 -0.037,-0.75 0.101,-0.862 -0.013,-0.038 -0.013,-0.063 0.013,-0.075 m -0.776,3.887 c 0.276,0.1 -0.362,0.813 -0.362,0.813 0,0 0.187,-0.875 0.362,-0.813 m 0.675,-11.787 c 0.088,-0.238 0.675,0.238 0.788,0.337 -0.15,-0.024 -0.838,-0.175 -0.788,-0.337 m -0.1,7.312 c 0.288,-0.012 0.013,0.888 0.013,0.888 0,0 -0.2,-0.863 -0.013,-0.888 m -2.549,-9.275 c 0,-0.275 0.886,0.076 0.886,0.076 0,0 -0.886,0.112 -0.886,-0.076 m 2.511,11.188 c 0,0 0.138,-0.425 0.289,-0.638 0.049,-0.099 0.112,-0.15 0.162,-0.125 0.062,0.026 0.062,0.088 0.038,0.151 0.199,0.174 0.412,0.599 0.412,0.599 0,0 -0.338,-0.224 -0.513,-0.412 -0.149,0.2 -0.388,0.425 -0.388,0.425 m -1.099,-10.7 c -0.013,-0.275 0.887,0.012 0.887,0.012 0,0 -0.875,0.175 -0.887,-0.012 m 0.9,12.1 c 0,0 0.175,-0.525 0.337,-0.713 0,-0.087 0.013,-0.137 0.063,-0.149 0.275,-0.051 0.088,0.874 0.088,0.874 0,0 -0.063,-0.212 -0.113,-0.425 -0.138,0.2 -0.375,0.413 -0.375,0.413 m -0.562,-11.713 c 0.274,-0.062 0.149,0.875 0.149,0.875 0,0 -0.337,-0.837 -0.149,-0.875 m -1.375,-0.525 c 0.199,-0.212 0.587,0.65 0.587,0.65 0,0 -0.725,-0.512 -0.587,-0.65 m 0.024,0.351 c -0.062,-0.038 -0.7,-0.513 -0.575,-0.638 0.163,-0.175 0.5,0.487 0.575,0.638 m 2.276,8.212 c 0.024,0.112 -0.113,0.15 -0.289,0.163 h -0.011 c -0.026,0.212 -0.276,0.562 -0.351,0.637 0.013,-0.1 0.063,-0.425 0.138,-0.625 -0.188,0 -0.363,-0.025 -0.363,-0.025 0,0 0.263,-0.1 0.5,-0.15 0.188,-0.063 0.35,-0.075 0.376,0 m -1.876,-8.512 c 0.225,-0.176 0.475,0.737 0.475,0.737 0,0 -0.625,-0.625 -0.475,-0.737 m 1.738,12.05 c 0.062,0.037 0.075,0.087 0.05,0.162 0.163,0.125 -0.188,0.838 -0.188,0.838 0,0 -0.013,-0.326 0.013,-0.576 -0.138,0.175 -0.325,0.338 -0.325,0.338 0,0 0.288,-0.85 0.45,-0.762 m -0.3,-10.888 c 0.274,-0.088 0.212,0.85 0.212,0.85 0,0 -0.387,-0.8 -0.212,-0.85 m -0.55,-0.825 c 0.037,-0.275 0.862,0.187 0.862,0.187 0,0 -0.887,0 -0.862,-0.187 m 1.25,0.862 c 0,0 -0.575,-0.75 -0.725,-0.512 -0.1,0.162 0.725,0.512 0.725,0.512"/><path id="path58" style="fill:#ffffff" d="m 17.5972,12.5342 c 0.056,-0.096 0.217,-0.277 0.403,-0.459 0.186,0.182 0.347,0.365 0.403,0.46 -0.056,0 -0.117,-0.009 -0.165,-0.016 -0.15,-0.019 -0.326,-0.019 -0.476,0 -0.048,0.006 -0.126,0.022 -0.165,0.015 m 0.583,-1.038 c -0.046,0.104 -0.111,0.232 -0.131,0.258 -0.005,0.005 -0.029,0.013 -0.049,0.019 -0.022,-0.006 -0.045,-0.015 -0.053,-0.021 -0.017,-0.024 -0.081,-0.152 -0.127,-0.256 l -0.228,0.102 c 0.033,0.076 0.117,0.254 0.164,0.315 0.008,0.008 0.017,0.017 0.025,0.024 -0.554,0.544 -0.469,0.67 -0.426,0.734 0.098,0.141 0.281,0.119 0.439,0.096 0.131,-0.017 0.281,-0.017 0.411,0 0.161,0.023 0.34,0.045 0.439,-0.096 0.043,-0.064 0.128,-0.19 -0.426,-0.733 0.009,-0.008 0.017,-0.015 0.024,-0.024 0.049,-0.062 0.132,-0.24 0.166,-0.316 z"/></g></g></svg>