<svg xmlns="http://www.w3.org/2000/svg" viewBox="0 0 45 45"><path fill="#eeeeee" d="m 45,33.75 c 0,2.76125 -2.23875,5 -5,5 H 5 c -2.76125,0 -5,-2.23875 -5,-5 v -22.5 c 0,-2.76125 2.23875,-5 5,-5 h 35 c 2.76125,0 5,2.23875 5,5 z"/><path fill="#0200fb" d="m 29.669875,23.230125 c -0.3,-0.93 -0.59,-1.81 -0.59,-2.69 0,-1.86 0.63,-3.24 0.64,-3.26 l 0.04,-0.1 -2.15,-1.39 -0.06,0.04 c -0.03,0.01 -2.61,1.38 -5.05,1.38 -2.44,0 -5.02,-1.37 -5.04,-1.38 l -0.07,-0.04 -2.15,1.39 0.04,0.1 c 0.01,0.02 0.64,1.39 0.64,3.26 0,0.88 -0.29,1.76 -0.59,2.69 -0.36,1.09 -0.72,2.21 -0.72,3.52 0,1.72 1.04,3 2.02,3.62 0.53,0.34 1.06,0.48 1.4,0.39 0.42,0.57 0.8,0.95 1.14,1.15 l 0.04,0.02 0.04,-0.01 c 1.14,-0.09 2.2,0.43 3.15,1.58 l 0.1,0.11 0.1,-0.11 c 0.95,-1.15 2.01,-1.67 3.15,-1.58 l 0.04,0.01 0.04,-0.02 c 0.34,-0.2 0.72,-0.58 1.15,-1.15 0.34,0.09 0.86,-0.05 1.4,-0.39 0.97,-0.62 2.02,-1.9 2.02,-3.62 0,-1.31 -0.37,-2.43 -0.73,-3.52 z m -14.11,0.08 c 0.32,-0.95 0.61,-1.85 0.61,-2.77 0,-1.65 -0.47,-2.91 -0.62,-3.26 l 1.85,-1.2 c 0.43,0.22 2.82,1.38 5.1,1.38 2.28,0 4.67,-1.16 5.1,-1.38 l 1.85,1.2 c -0.15,0.35 -0.62,1.61 -0.62,3.26 0,0.92 0.3,1.82 0.61,2.77 0.06,0.18 0.12,0.37 0.18,0.55 h -4.49 c -0.05,-0.24 -0.08,-0.47 -0.08,-0.67 0,-0.63 0.21,-0.92 0.21,-0.92 l 0.08,-0.11 -0.89,-0.58 -0.07,0.04 c 0,0 -1.02,0.49 -1.88,0.49 -0.86,0 -1.87,-0.49 -1.88,-0.49 l -0.07,-0.04 -0.89,0.58 0.08,0.11 c 0,0 0.21,0.29 0.21,0.92 0,0.2 -0.03,0.43 -0.08,0.67 h -4.48 c 0.05,-0.18 0.11,-0.37 0.17,-0.55 z m 6.94,4.33 c -0.32,-0.35 -0.68,-0.53 -1.07,-0.53 -0.02,0 -0.05,0.01 -0.07,0.01 -0.11,-0.07 -0.22,-0.2 -0.35,-0.38 l -0.06,-0.08 -0.1,0.04 c -0.09,0.05 -0.34,0.03 -0.58,-0.13 -0.2,-0.12 -0.44,-0.38 -0.44,-0.85 0,-0.45 0.1,-0.93 0.2,-1.39 0.08,-0.41 0.17,-0.81 0.17,-1.14 0,-0.49 -0.11,-0.8 -0.19,-0.96 l 0.56,-0.36 c 0.25,0.11 1.13,0.49 1.93,0.49 0.8,0 1.68,-0.38 1.93,-0.49 l 0.56,0.36 c -0.07,0.16 -0.19,0.47 -0.19,0.96 0,0.33 0.09,0.73 0.18,1.14 0.09,0.46 0.2,0.94 0.2,1.39 0,0.47 -0.25,0.73 -0.45,0.85 -0.23,0.15 -0.49,0.18 -0.58,0.13 l -0.09,-0.04 -0.06,0.08 c -0.14,0.18 -0.25,0.31 -0.35,0.38 -0.41,-0.02 -0.81,0.15 -1.15,0.52 z m -2.97,4.02 c -0.09,0 -0.18,0.01 -0.26,0.01 -0.33,-0.19 -0.69,-0.56 -1.1,-1.13 l -0.06,-0.09 -0.09,0.05 c -0.21,0.09 -0.68,0.03 -1.26,-0.34 -0.92,-0.59 -1.9,-1.79 -1.9,-3.41 0,-0.96 0.2,-1.82 0.45,-2.64 h 4.5 c 0,0.06 -0.02,0.11 -0.03,0.17 -0.1,0.47 -0.2,0.97 -0.2,1.44 0,0.62 0.35,0.93 0.55,1.07 0.24,0.14 0.52,0.21 0.73,0.17 0.14,0.19 0.28,0.32 0.4,0.39 l 0.04,0.02 h 0.04 c 0.38,-0.04 0.72,0.13 1.04,0.52 v 5.2 c -0.87,-0.94 -1.82,-1.43 -2.85,-1.43 z m 8.71,-1.5 c -0.58,0.37 -1.05,0.43 -1.26,0.34 l -0.09,-0.05 -0.06,0.09 c -0.41,0.57 -0.77,0.94 -1.09,1.13 -1.13,-0.09 -2.17,0.39 -3.11,1.41 v -5.2 c 0.32,-0.38 0.67,-0.55 1.04,-0.51 h 0.04 l 0.03,-0.02 c 0.12,-0.07 0.26,-0.2 0.4,-0.39 0.2,0.04 0.49,-0.03 0.73,-0.17 0.21,-0.14 0.56,-0.45 0.56,-1.07 0,-0.47 -0.11,-0.97 -0.21,-1.44 -0.01,-0.06 -0.03,-0.11 -0.03,-0.17 h 4.51 c 0.25,0.82 0.45,1.68 0.45,2.64 0,1.62 -0.99,2.82 -1.91,3.41 z"/><path fill="#0200fb" d="m 28.139875,27.440125 c -0.68,1.55 -1.76,2.34 -2.74,2.74 0.17,-0.34 0.25,-0.7 0.12,-1 -0.34,-0.78 -0.65,-0.49 -0.65,-0.49 0,0 0.32,0.2 0.37,0.83 0.03,0.34 -0.23,0.66 -0.48,0.88 -0.94,0.26 -1.67,0.19 -1.67,0.19 0,0 0.57,-2.15 3.05,-3.4 0.98,-0.5 1.39,-0.9 1.39,-1.32 0,-0.12 -0.08,-0.28 -0.36,-0.28 -0.39,0 -0.37,0.64 -0.37,0.64 -0.31,-0.1 -0.42,-0.38 -0.38,-0.78 -0.34,-0.2 -0.46,-0.51 -0.38,-0.91 0,0 0.44,0.61 1.2,0.37 0.75,-0.23 1.84,0.39 0.9,2.53 z m -3.73375,2.0075 c 0,-0.11 -0.09,-0.2 -0.2,-0.2 -0.11,0 -0.2,0.09 -0.2,0.2 0,0.11 0.09,0.2 0.2,0.2 0.11,0 0.2,-0.09 0.2,-0.2 z"/><path fill="#0200fb" d="m 25.679875,22.530125 0.25,-0.59 -1.43,-0.92 -0.37,0.16 c -0.85,0.37 -1.38,0.43 -1.63,0.43 -0.25,0 -0.78,-0.06 -1.63,-0.43 l -0.37,-0.16 -1.46,0.94 0.3,0.61 c 0.02,0.04 0.06,0.13 0.08,0.27 h -2.04 l 0.23,-2.21 0.39,-0.4 v -2.14 l 1.19,-0.45 1.22,0.45 v 1.74 h 0.41 v 0.45 h 0.41 v -0.45 h 0.41 v -1.74 l 1.21,-0.45 1.21,0.45 v 1.74 h 0.4 v 0.45 h 0.41 v -0.45 h 0.81 v 0.45 h 0.41 v -0.45 h 0.38 v -0.79 l 0.44,-0.25 0.36,0.21 0.26,3.84 h -1.95 c 0.03,-0.16 0.07,-0.26 0.1,-0.31 z"/><path fill="#0200fb" d="m 18.506125,28.251375 c -0.18875,0 -0.34125,-0.1525 -0.34125,-0.34125 0,-0.18875 0.1525,-0.34125 0.34125,-0.34125 0.18875,0 0.34125,0.1525 0.34125,0.34125 0,0.1875 -0.1525,0.34125 -0.34125,0.34125 z m -0.3125,-1.1125 c 0,-0.18875 -0.1525,-0.34125 -0.34125,-0.34125 -0.18875,0 -0.34125,0.1525 -0.34125,0.34125 0,0.18875 0.1525,0.34125 0.34125,0.34125 0.18875,0 0.34125,-0.1525 0.34125,-0.34125 z m -0.2,-1.0175 c 0,-0.18875 -0.1525,-0.34125 -0.34125,-0.34125 -0.18875,0 -0.34125,0.1525 -0.34125,0.34125 0,0.18875 0.1525,0.34125 0.34125,0.34125 0.18875,0 0.34125,-0.1525 0.34125,-0.34125 z m -0.75875,0.6475 c 0,-0.18875 -0.1525,-0.34125 -0.34125,-0.34125 -0.18875,0 -0.34125,0.1525 -0.34125,0.34125 0,0.18875 0.1525,0.34125 0.34125,0.34125 0.18875,0 0.34125,-0.1525 0.34125,-0.34125 z m 0.2475,1.0175 c 0,-0.18875 -0.1525,-0.34125 -0.34125,-0.34125 -0.18875,0 -0.34125,0.1525 -0.34125,0.34125 0,0.18875 0.1525,0.34125 0.34125,0.34125 0.18875,0 0.34125,-0.1525 0.34125,-0.34125 z m 0.58875,0.765 c 0,-0.18875 -0.1525,-0.34125 -0.34125,-0.34125 -0.18875,0 -0.34125,0.1525 -0.34125,0.34125 0,0.18875 0.1525,0.34125 0.34125,0.34125 0.1875,0 0.34125,-0.15375 0.34125,-0.34125 z m 0.9525,-2.0475 c 0,-0.18875 -0.1525,-0.34125 -0.34125,-0.34125 -0.18875,0 -0.34125,0.1525 -0.34125,0.34125 0,0.18875 0.1525,0.34125 0.34125,0.34125 0.18875,0 0.34125,-0.1525 0.34125,-0.34125 z m 0.665,0.73 c 0,-0.18875 -0.1525,-0.34125 -0.34125,-0.34125 -0.18875,0 -0.34125,0.1525 -0.34125,0.34125 0,0.18875 0.1525,0.34125 0.34125,0.34125 0.18875,0 0.34125,-0.15375 0.34125,-0.34125 z m 0.54125,0.68125 c 0,-0.18875 -0.1525,-0.34125 -0.34125,-0.34125 -0.18875,0 -0.34125,0.1525 -0.34125,0.34125 0,0.18875 0.1525,0.34125 0.34125,0.34125 0.1875,0 0.34125,-0.1525 0.34125,-0.34125 z m -0.765,0.665 c 0,-0.18875 -0.1525,-0.34125 -0.34125,-0.34125 -0.18875,0 -0.34125,0.1525 -0.34125,0.34125 0,0.18875 0.1525,0.34125 0.34125,0.34125 0.18875,0 0.34125,-0.1525 0.34125,-0.34125 z m -0.72375,0.65875 c 0,-0.18875 -0.1525,-0.34125 -0.34125,-0.34125 -0.18875,0 -0.34125,0.1525 -0.34125,0.34125 0,0.18875 0.1525,0.34125 0.34125,0.34125 0.18875,0 0.34125,-0.1525 0.34125,-0.34125 z m 0.9475,0.45375 c 0,-0.18875 -0.1525,-0.34125 -0.34125,-0.34125 -0.18875,0 -0.34125,0.1525 -0.34125,0.34125 0,0.18875 0.1525,0.34125 0.34125,0.34125 0.18875,0 0.34125,-0.15375 0.34125,-0.34125 z m 0.77625,-0.78875 c 0,-0.18875 -0.1525,-0.34125 -0.34125,-0.34125 -0.18875,0 -0.34125,0.1525 -0.34125,0.34125 0,0.18875 0.1525,0.34125 0.34125,0.34125 0.18875,0 0.34125,-0.1525 0.34125,-0.34125 z m 0.25875,1.07125 c 0,-0.18875 -0.1525,-0.34125 -0.34125,-0.34125 -0.18875,0 -0.34125,0.1525 -0.34125,0.34125 0,0.18875 0.1525,0.34125 0.34125,0.34125 0.18875,0 0.34125,-0.15375 0.34125,-0.34125 z"/><path fill="#0200fb" d="m 21.561125,24.721375 0.2625,-0.25875 0.4275,0.235 0.07375,0.3225 -0.4425,0.15 0.035,0.7125 -0.18,0.1725 -0.355,-0.21375 -0.02375,0.20625 0.17125,0.16375 0.37625,-0.01125 0.26625,-0.38875 -0.01375,-0.3875 h 0.47625 l 0.19625,0.36 0.3925,-0.01875 0.12875,0.29 -0.07375,0.2425 -0.33375,0.055 -0.03875,0.25125 0.235,0.1175 0.40625,-0.345 -0.0062,-0.75875 -0.365,-0.04125 -0.05875,-0.365 0.29875,0.0038 0.15625,-0.1675 0.02125,-0.48875 -0.18125,-0.4825 0.3875,-0.07 -0.01125,-0.37125 -0.24,-0.165 -0.26625,0.13 -0.03,0.52875 0.20625,0.60625 -0.24625,0.30625 -0.3775,-0.3 0.1175,-0.47125 0.20625,-0.0825 -0.15875,-0.8 0.125,-0.5175 -0.4425,0.095 -0.5175,0.01125 v 0.2475 l 0.3375,0.1525 0.05625,0.2175 -0.3875,0.035 -0.08875,0.3475 -0.29,-0.0825 -0.14125,-0.415 -0.29875,0.145 0.07875,0.32125 0.365,0.05125 -0.03125,0.32875 -0.465,0.175 0.02125,0.2175 z"/><path fill="#0200fb" d="m 27.159875,12.660125 -0.64,1.3 -0.06,0.12 -0.77,1.58 c 0,0 -1.13,-0.69 -3.19,-0.69 -2.06,0 -3.19,0.69 -3.19,0.69 l -0.77,-1.58 -0.06,-0.12 -0.64,-1.3 c 0,0 0.41,-0.28 1.18,-0.56 l 0.49,1.44 c 0.2,-0.08 0.43,-0.14 0.68,-0.2 l -0.38,-1.48 c 0.37,-0.1 0.79,-0.18 1.27,-0.24 l 0.21,1.53 c 0.21,-0.03 0.44,-0.05 0.68,-0.06 l -0.09,-1.54 c 0.2,-0.01 0.4,-0.02 0.62,-0.02 0.22,0 0.42,0.01 0.62,0.02 l -0.09,1.54 c 0.24,0.01 0.47,0.03 0.68,0.06 l 0.21,-1.53 c 0.48,0.06 0.9,0.14 1.27,0.24 l -0.38,1.48 c 0.25,0.06 0.48,0.12 0.68,0.2 l 0.49,-1.44 c 0.77,0.28 1.18,0.56 1.18,0.56 z"/></svg>