<svg xmlns:dc="http://purl.org/dc/elements/1.1/" xmlns:cc="http://creativecommons.org/ns#" xmlns:rdf="http://www.w3.org/1999/02/22-rdf-syntax-ns#" xmlns:svg="http://www.w3.org/2000/svg" xmlns="http://www.w3.org/2000/svg" viewBox="0 0 45 45" style="enable-background:new 0 0 45 45;" xml:space="preserve" version="1.1" id="svg2"><metadata id="metadata8"><rdf:RDF><cc:Work rdf:about=""><dc:format>image/svg+xml</dc:format><dc:type rdf:resource="http://purl.org/dc/dcmitype/StillImage"/></cc:Work></rdf:RDF></metadata><defs id="defs6"><clipPath id="clipPath16" clipPathUnits="userSpaceOnUse"><path id="path18" d="M 0,36 36,36 36,0 0,0 0,36 Z"/></clipPath></defs><g transform="matrix(1.25,0,0,-1.25,0,45)" id="g10"><g id="g12"><g xmlns="http://www.w3.org/2000/svg" clip-path="url(#clipPath16)" id="g14"><g id="g20"><path id="path22" style="fill:#eeeeee;fill-opacity:1;fill-rule:nonzero;stroke:none" d="M 36,9 C 36,6.791 34.209,5 32,5 L 4,5 C 1.791,5 0,6.791 0,9 l 0,18 c 0,2.209 1.791,4 4,4 l 28,0 c 2.209,0 4,-1.791 4,-4 L 36,9 z"/></g><g id="g24"><path id="path26" style="fill:#db2015;fill-opacity:1;fill-rule:nonzero;stroke:none" d="m 18,9.4687 c 0,0 -0.398,0.98 -1.127,0.98 l -2.11,0 c -1.373,0 -1.987,1.028 -1.987,1.954 l 0,1.66 10.448,0 0,-1.66 c 0,-0.926 -0.615,-1.954 -1.987,-1.954 l -2.109,0 c -0.73,0 -1.128,-0.98 -1.128,-0.98"/><path id="path28" style="fill:#5797cd;fill-opacity:1;fill-rule:nonzero;stroke:none" d="m 12.776,21.719 10.447,0 0,-7.656 -10.447,0 0,7.656 z"/><path id="path30" style="fill:#f9c500;fill-opacity:1;fill-rule:nonzero;stroke:none" d="m 18,21.8765 c -2.347,0 -2.83,-0.158 -2.83,-0.158 0,0 -0.141,0.647 -0.404,1.297 -0.264,0.651 -0.563,1.094 -0.563,1.094 0,0 1.583,1.719 3.797,1.719 2.214,0 3.797,-1.719 3.797,-1.719 0,0 -0.3,-0.443 -0.563,-1.094 -0.262,-0.65 -0.405,-1.297 -0.405,-1.297 0,0 -0.482,0.158 -2.829,0.158"/></g></g></g></g></svg>