<svg xmlns="http://www.w3.org/2000/svg" viewBox="0 0 45 45"><path fill="#00a002" d="m 45,33.75 c 0,2.76125 -2.23875,5 -5,5 H 5 c -2.76125,0 -5,-2.23875 -5,-5 v -22.5 c 0,-2.76125 2.23875,-5 5,-5 h 35 c 2.76125,0 5,2.23875 5,5 z"/><path fill="#fed82f" d="m 17.809875,13.900125 0.96,2.8 -1.24,11.24 h 9.94 l -1.24,-11.24 0.96,-2.8 h 1.78 l -0.92,3.13 1.68,14.17 h -14.46 l 1.68,-14.17 -0.92,-3.13 z"/><path fill="#fefefe" d="m 17.529875,27.940125 0.51,-4.64 4.46,-0.55 4.46,0.55 0.51,4.64 z"/><path fill="#0065fd" d="m 26.589875,27.940125 h -8.18 c 0.51,-2.6 1.87,-4 4.09,-4.26 2.22,0.26 3.58,1.66 4.09,4.26 z"/><path fill="#fb0000" d="m 26.959875,23.300125 -4.46,-0.55 -4.46,0.55 0.17,-1.55 h 1.07 v 0.51 h 0.92 v -0.51 h 1.84 v 0.51 h 0.92 v -0.51 h 1.84 v 0.51 h 0.92 v -0.51 h 1.07 z m -4.46,-9.19 1.38,7.23 1.38,-7.23 z m 4.62,0 h -1.86 l 1.38,7.23 0.06,-0.34 -0.47,-4.3 z m -7.38,0 1.38,7.23 1.38,-7.23 z m -1.86,0 0.89,2.59 -0.47,4.3 0.06,0.34 1.38,-7.23 z"/></svg>