<svg xmlns:dc="http://purl.org/dc/elements/1.1/" xmlns:cc="http://creativecommons.org/ns#" xmlns:rdf="http://www.w3.org/1999/02/22-rdf-syntax-ns#" xmlns:svg="http://www.w3.org/2000/svg" xmlns="http://www.w3.org/2000/svg" viewBox="0 0 45 45" style="enable-background:new 0 0 45 45;" xml:space="preserve" version="1.1" id="svg2"><metadata id="metadata8"><rdf:RDF><cc:Work rdf:about=""><dc:format>image/svg+xml</dc:format><dc:type rdf:resource="http://purl.org/dc/dcmitype/StillImage"/></cc:Work></rdf:RDF></metadata><defs id="defs6"><clipPath id="clipPath16" clipPathUnits="userSpaceOnUse"><path id="path18" d="M 4,31 C 1.791,31 0,29.209 0,27 L 0,27 0,9 C 0,6.791 1.791,5 4,5 l 0,0 28,0 c 2.209,0 4,1.791 4,4 l 0,0 0,18 c 0,2.209 -1.791,4 -4,4 l 0,0 -28,0 z"/></clipPath></defs><g transform="matrix(1.25,0,0,-1.25,0,45)" id="g10"><g id="g12"><g xmlns="http://www.w3.org/2000/svg" clip-path="url(#clipPath16)" id="g14"><path id="path3003" style="fill:#bf0a30;fill-opacity:1;fill-rule:nonzero;stroke:none" d="M 36,5 0,5 0,31 36,31 36,5 z"/><path id="path3005" style="fill:#eeeeee;fill-opacity:1;fill-rule:nonzero;stroke:none" d="m 32.817,7.772 -29.635,0 0,20.455 29.635,0 0,-20.455 z"/><path id="path3007" style="fill:#002868;fill-opacity:1;fill-rule:nonzero;stroke:none" d="m 30.321,9.729 -24.643,0 0,16.543 24.643,0 0,-16.543 z"/><g id="g3009" transform="translate(18.0708,16.4238)"><path id="path3011" style="fill:#eeeeee;fill-opacity:1;fill-rule:nonzero;stroke:none" d="m 0,0 c 0,0 0.841,-0.018 1.517,-0.183 0.677,-0.165 1.224,-0.558 1.224,-0.558 0,0 1.336,1.434 1.529,1.434 0.194,0 0.589,-0.099 0.618,-0.623 0.029,-0.523 0.647,-1.288 0.647,-1.894 0,-0.382 -0.771,-2.271 -0.771,-2.271 l 0.401,0 c 0,0 0.076,0.189 0.117,0.218 0.042,0.029 0.118,0.101 0.159,0.43 0.041,0.329 0.547,1.14 0.547,1.14 0,0 -0.016,-0.469 -0.016,-0.681 C 5.972,-3.2 5.99,-3.32 5.96,-3.426 5.931,-3.531 5.902,-3.525 5.79,-3.72 5.678,-3.914 5.696,-4.063 5.696,-4.063 l 0.465,-0.032 c 0,0 -0.037,0.245 0.043,0.313 0.08,0.066 0.135,0.015 0.135,0.015 0,0 0.037,1.108 0.143,1.449 0.106,0.341 0.529,1.083 0.529,1.083 0,0 -0.197,0.766 -0.197,1.629 0,0.862 0.658,3.082 0.658,3.082 0,0 0.189,-0.682 0.189,-1.035 0,-0.353 -0.15,-1.051 -0.15,-1.38 0,-0.33 0.111,-0.714 0.111,-0.714 0,0 0.171,0.212 0.171,0.517 0,0.306 -0.07,0.275 -0.07,0.565 0,0.29 0.107,1.1 0.107,1.647 0,0.547 -0.383,1.506 -0.642,1.83 C 6.929,5.229 6.194,5.382 5.237,5.633 L 4.28,5.884 c 0,0 -0.619,0.086 -1.067,0.22 C 2.766,6.237 2.202,6.888 1.826,6.958 1.449,7.029 1.088,6.841 0.727,6.896 0.366,6.951 -0.277,7.347 -1.347,7.347 c -1.071,0 -2.618,-1.065 -2.712,-1.065 -0.094,0 -0.118,0.041 -0.241,0.041 -0.124,0 -0.636,-0.511 -1.071,-0.511 -0.435,0 -0.615,0.15 -1.165,0.15 -0.548,0 -1.435,-0.721 -1.435,-1.303 0,-0.583 0.388,-0.806 0.435,-1.089 0.048,-0.282 -0.058,-0.741 -0.006,-1.059 0.054,-0.317 0.483,-1.147 0.483,-1.317 0,-0.171 -0.1,-0.217 -0.1,-0.217 0,0 0.234,0.011 0.4,-0.124 0.427,-0.349 0.576,-1.154 0.576,-1.154 0,0 0.383,0.307 0.571,0.389 0.188,0.082 0.206,0 0.306,0.035 0.071,0.025 0.192,0.249 0.551,0.467 0.219,0.134 1.052,0.133 1.482,-0.236 0.44,-0.375 0.337,-1.525 0.337,-1.525 0,0 0.112,0.124 0.465,0.124 0.353,0 0.412,-0.565 0.53,-0.947 0.117,-0.383 0.376,-0.735 0.376,-1.142 0,-0.405 -0.3,-1.029 -0.3,-1.029 l 0.788,-0.029 c 0,0 0,0.529 0.041,0.576 0.042,0.047 0.195,0.029 0.324,0.194 0.129,0.165 -0.006,0.2 0.065,0.312 0.07,0.112 0.394,0.153 0.418,0.241 0.023,0.089 -0.006,0.583 0.046,0.688 0.054,0.106 0.189,0.165 0.218,0.341 C 0.064,-1.665 0,0 0,0"/></g><g id="g3013" transform="translate(20.0967,19.9683)"><path id="path3015" style="fill:#002868;fill-opacity:1;fill-rule:nonzero;stroke:none" d="m 0,0 c 0,-1.793 -1.454,-3.248 -3.247,-3.248 -1.794,0 -3.248,1.455 -3.248,3.248 0,1.793 1.454,3.248 3.248,3.248 C -1.454,3.248 0,1.793 0,0"/></g><g id="g3017" transform="translate(19.7949,19.9683)"><path id="path3019" style="fill:#eeeeee;fill-opacity:1;fill-rule:nonzero;stroke:none" d="m 0,0 c 0,-1.626 -1.319,-2.945 -2.945,-2.945 -1.627,0 -2.946,1.319 -2.946,2.945 0,1.626 1.319,2.945 2.946,2.945 C -1.319,2.945 0,1.626 0,0"/></g></g></g></g></svg>