<svg xmlns:dc="http://purl.org/dc/elements/1.1/" xmlns:cc="http://creativecommons.org/ns#" xmlns:rdf="http://www.w3.org/1999/02/22-rdf-syntax-ns#" xmlns:svg="http://www.w3.org/2000/svg" xmlns="http://www.w3.org/2000/svg" viewBox="0 0 45 45" style="enable-background:new 0 0 45 45;" xml:space="preserve" version="1.1" id="svg2"><metadata id="metadata8"><rdf:RDF><cc:Work rdf:about=""><dc:format>image/svg+xml</dc:format><dc:type rdf:resource="http://purl.org/dc/dcmitype/StillImage"/></cc:Work></rdf:RDF></metadata><defs id="defs6"><clipPath id="clipPath16" clipPathUnits="userSpaceOnUse"><path id="path18" d="M 4,31 C 1.791,31 0,29.209 0,27 L 0,27 0,9 C 0,6.791 1.791,5 4,5 l 0,0 28,0 c 2.209,0 4,1.791 4,4 l 0,0 0,18 c 0,2.209 -1.791,4 -4,4 l 0,0 -28,0 z"/></clipPath></defs><g transform="matrix(1.25,0,0,-1.25,0,45)" id="g10"><g id="g12"><g xmlns="http://www.w3.org/2000/svg" id="g14" clip-path="url(#clipPath16)"><g transform="translate(0,9)" id="g20"><path id="path22" style="fill:#bf0a30;fill-opacity:1;fill-rule:nonzero;stroke:none" d="m 0,0 c 0,-2.209 1.791,-4 4,-4 l 28,0 c 2.209,0 4,1.791 4,4 L 36,4 0,4 0,0 Z"/></g><path id="path24" style="fill:#eeeeee;fill-opacity:1;fill-rule:nonzero;stroke:none" d="m 0,13 36,0 0,9 -36,0 0,-9 z"/><g transform="translate(32,31)" id="g26"><path id="path28" style="fill:#002868;fill-opacity:1;fill-rule:nonzero;stroke:none" d="m 0,0 -28,0 c -2.209,0 -4,-1.791 -4,-4 l 0,-5 36,0 0,5 C 4,-1.791 2.209,0 0,0"/></g><path id="path32" style="fill:#eeeeee;fill-opacity:1;fill-rule:nonzero;stroke:none" d="m 18,30.998622 -18,0 0,-18 18,0 0,18 z"/><path id="path34" style="fill:#bf0a30;fill-opacity:1;fill-rule:nonzero;stroke:none" d="m 17.498,30.998622 -17.498,0 0,-17.497 17.498,0 0,17.497 z"/><g id="g3073" transform="translate(5.3101,22.252022)"><path id="path36" style="fill:#eeeeee;fill-opacity:1;fill-rule:nonzero;stroke:none" d="m 0,0 -5.287,5.287 -0.023,3.46 3.46,-0.024 5.287,-5.286 5.313,5.31 3.438,0 0,-3.437 -5.312,-5.313 5.314,-5.315 -0.002,-3.432 -3.438,0 -5.311,5.311 -5.312,-5.311 -3.437,0 0,3.437 L 0,0 z"/></g><g id="g3077" transform="translate(10.8101,22.250622)"><path id="path38" style="fill:#002868;fill-opacity:1;fill-rule:nonzero;stroke:none" d="m 0,0 6.689,-6.689 -0.002,-2.06 -2.06,-0.002 -6.689,6.689 -6.687,-6.687 -2.061,0 0,2.062 6.686,6.687 -6.684,6.685 -0.002,2.063 2.063,-0.002 6.685,-6.684 6.687,6.686 2.062,0 0,-2.061 L 0,0 z"/></g><path id="path40" style="fill:#ffffff;fill-opacity:1;fill-rule:nonzero;stroke:none" d="m 2.754,15.121622 -1.134,0 0,1.134 1.134,0 0,-1.134 z"/><path id="path41" style="fill:#ffffff;fill-opacity:1;fill-rule:nonzero;stroke:none" d="m 4.941,17.308622 -1.134,0 0,1.134 1.134,0 0,-1.134 z"/><path id="path42" style="fill:#ffffff;fill-opacity:1;fill-rule:nonzero;stroke:none" d="m 7.128,19.495622 -1.134,0 0,1.134 1.134,0 0,-1.134 z"/><path id="path43" style="fill:#ffffff;fill-opacity:1;fill-rule:nonzero;stroke:none" d="m 15.877,15.121622 -1.134,0 0,1.134 1.134,0 0,-1.134 z"/><path id="path44" style="fill:#ffffff;fill-opacity:1;fill-rule:nonzero;stroke:none" d="m 13.69,17.308622 -1.134,0 0,1.134 1.134,0 0,-1.134 z"/><path id="path45" style="fill:#ffffff;fill-opacity:1;fill-rule:nonzero;stroke:none" d="m 11.503,19.495622 -1.134,0 0,1.134 1.134,0 0,-1.134 z"/><path id="path46" style="fill:#ffffff;fill-opacity:1;fill-rule:nonzero;stroke:none" d="m 9.315,21.683622 -1.134,0 0,1.134 1.134,0 0,-1.134 z"/><path id="path47" style="fill:#ffffff;fill-opacity:1;fill-rule:nonzero;stroke:none" d="m 7.128,23.870622 -1.134,0 0,1.134 1.134,0 0,-1.134 z"/><path id="path48" style="fill:#ffffff;fill-opacity:1;fill-rule:nonzero;stroke:none" d="m 4.941,26.057622 -1.134,0 0,1.134 1.134,0 0,-1.134 z"/><path id="path49" style="fill:#ffffff;fill-opacity:1;fill-rule:nonzero;stroke:none" d="m 2.754,28.244622 -1.134,0 0,1.134 1.134,0 0,-1.134 z"/><path id="path50" style="fill:#ffffff;fill-opacity:1;fill-rule:nonzero;stroke:none" d="m 11.503,23.870622 -1.134,0 0,1.134 1.134,0 0,-1.134 z"/><path id="path51" style="fill:#ffffff;fill-opacity:1;fill-rule:nonzero;stroke:none" d="m 13.69,26.057622 -1.134,0 0,1.134 1.134,0 0,-1.134 z"/><path id="path52" style="fill:#ffffff;fill-opacity:1;fill-rule:nonzero;stroke:none" d="m 15.877,28.244622 -1.134,0 0,1.134 1.134,0 0,-1.134 z"/></g></g></g></svg>