<svg xmlns="http://www.w3.org/2000/svg" viewBox="0 0 45 45"><path fill="#039902" d="M 0,27.9775 V 33.75 c 0,2.76 2.24,5 5,5 h 35 c 2.76,0 5,-2.24 5,-5 v -5.7725 z"/><path fill="#eeeeee" d="m 0,27.976875 h 45 v -10.955 H 0 Z"/><path fill="#039902" d="M 0,17.0225 V 11.25 c 0,-2.76 2.24,-5 5,-5 h 35 c 2.76,0 5,2.24 5,5 v 5.7725 z"/><path fill="#fee600" d="m 22.499875,32.036375 -3.635,-2.01875 c -1.92375,-1.185 -3.02125,-3.015 -3.02125,-5.02375 v -10.93125 h 0.25 c 2.15125,0 2.5225,0.67875 2.7375,1.435 0.11,0.3875 0.16,0.565 0.73125,0.565 0.67375,0 0.8975,-0.37375 1.18125,-0.84625 0.3075,-0.51375 0.69,-1.15375 1.75625,-1.15375 1.0675,0 1.44875,0.63875 1.75625,1.1525 0.28375,0.47375 0.50625,0.8475 1.18125,0.8475 0.57125,0 0.62125,-0.17625 0.73125,-0.565 0.215,-0.75625 0.58625,-1.435 2.7375,-1.435 h 0.25 v 10.93125 c 0,2.01 -1.0975,3.8375 -3.0125,5.0175 z"/><path fill="#039902" d="m 16.343625,14.566375 v 10.42875 c 0,1.8325 1.01125,3.50625 2.775,4.59125 l 3.38125,1.8775 3.39125,-1.88375 c 1.7525,-1.08 2.765,-2.75375 2.765,-4.58625 v -10.42875 c -1.71625,0.04625 -1.86375,0.56625 -2.00625,1.07 -0.1175,0.4125 -0.26375,0.9275 -1.2125,0.9275 -0.9575,0 -1.305,-0.57875 -1.61,-1.09 -0.2925,-0.48875 -0.54375,-0.91 -1.3275,-0.91 -0.78375,0 -1.03625,0.42125 -1.3275,0.91 -0.30625,0.51125 -0.6525,1.09 -1.61,1.09 -0.94875,0 -1.095,-0.515 -1.2125,-0.9275 -0.1425,-0.50375 -0.29125,-1.02375 -2.00625,-1.06875 z"/><path fill="#ffffff" d="m 16.344,18.999374 h 12.313 v -1.896 H 16.344 Z"/><path fill="#fee600" d="m 18.177375,28.195125 c 0.34125,0.35875 0.74375,0.6825 1.2025,0.965 l 3.12,1.7325 3.14875,-1.74875 c 1.5825,-0.97625 2.5075,-2.495 2.5075,-4.15 v -5.05625 z"/><path fill="#ffffff" d="m 27.459875,27.370125 c -0.06,0.11 -0.14,0.22 -0.22,0.33 h -0.04 c -0.41,0 -0.58,-0.14 -0.72,-0.27 -0.12,-0.11 -0.22,-0.2 -0.53,-0.2 -0.3,0 -0.4,0.09 -0.52,0.2 -0.15,0.13 -0.31,0.27 -0.73,0.27 -0.41,0 -0.58,-0.14 -0.72,-0.27 -0.12,-0.11 -0.22,-0.2 -0.53,-0.2 -0.3,0 -0.4,0.09 -0.52,0.2 -0.15,0.13 -0.31,0.27 -0.73,0.27 -0.41,0 -0.58,-0.14 -0.72,-0.27 -0.12,-0.11 -0.22,-0.2 -0.53,-0.2 -0.3,0 -0.4,0.09 -0.52,0.2 -0.15,0.13 -0.31,0.27 -0.73,0.27 -0.35,0 -0.53,-0.1 -0.66,-0.21 l 0.24,-0.2 c 0.09,0.06 0.2,0.11 0.42,0.11 0.31,0 0.4,-0.09 0.53,-0.2 0.14,-0.12 0.3,-0.27 0.72,-0.27 0.42,0 0.59,0.15 0.73,0.27 0.12,0.11 0.22,0.2 0.52,0.2 0.31,0 0.4,-0.09 0.53,-0.2 0.14,-0.12 0.3,-0.27 0.72,-0.27 0.42,0 0.59,0.15 0.73,0.27 0.12,0.11 0.22,0.2 0.52,0.2 0.31,0 0.4,-0.09 0.53,-0.2 0.14,-0.12 0.3,-0.27 0.72,-0.27 0.42,0 0.59,0.15 0.73,0.27 0.12,0.11 0.22,0.2 0.52,0.2 0.11,0 0.19,-0.01 0.26,-0.03 z m 0.27,-1.07 c -0.13,0.11 -0.22,0.2 -0.53,0.2 -0.3,0 -0.4,-0.09 -0.52,-0.2 -0.14,-0.12 -0.31,-0.27 -0.73,-0.27 -0.42,0 -0.58,0.15 -0.72,0.27 -0.13,0.11 -0.22,0.2 -0.53,0.2 -0.3,0 -0.4,-0.09 -0.52,-0.2 -0.14,-0.12 -0.31,-0.27 -0.73,-0.27 -0.42,0 -0.58,0.15 -0.72,0.27 -0.13,0.11 -0.22,0.2 -0.53,0.2 -0.3,0 -0.4,-0.09 -0.52,-0.2 -0.14,-0.12 -0.31,-0.27 -0.73,-0.27 -0.05,0 -0.1,0 -0.15,0.01 0,0 0,0 -0.01,0 l -0.9,0.75 c 0.28,-0.04 0.41,-0.15 0.54,-0.26 0.12,-0.11 0.22,-0.2 0.52,-0.2 0.31,0 0.41,0.09 0.53,0.2 0.14,0.13 0.31,0.27 0.72,0.27 0.42,0 0.58,-0.14 0.73,-0.27 0.12,-0.11 0.22,-0.2 0.52,-0.2 0.31,0 0.41,0.09 0.53,0.2 0.14,0.13 0.31,0.27 0.72,0.27 0.42,0 0.58,-0.14 0.73,-0.27 0.12,-0.11 0.22,-0.2 0.52,-0.2 0.31,0 0.41,0.09 0.53,0.2 0.14,0.13 0.31,0.27 0.72,0.27 0.36,0 0.53,-0.1 0.66,-0.21 0.06,-0.15 0.11,-0.31 0.15,-0.48 -0.12,0.05 -0.2,0.13 -0.28,0.19 z m 0,-0.9 c -0.13,0.11 -0.22,0.2 -0.53,0.2 -0.3,0 -0.4,-0.09 -0.52,-0.2 -0.14,-0.12 -0.31,-0.27 -0.73,-0.27 -0.42,0 -0.58,0.15 -0.72,0.27 -0.13,0.11 -0.22,0.2 -0.53,0.2 -0.3,0 -0.4,-0.09 -0.52,-0.2 -0.14,-0.12 -0.31,-0.27 -0.73,-0.27 -0.42,0 -0.58,0.15 -0.72,0.27 -0.13,0.11 -0.22,0.2 -0.53,0.2 -0.3,0 -0.4,-0.09 -0.52,-0.2 -0.02,-0.02 -0.04,-0.03 -0.05,-0.05 l -0.24,0.2 c 0.03,0.03 0.06,0.05 0.09,0.08 0.14,0.13 0.31,0.27 0.72,0.27 0.42,0 0.58,-0.14 0.73,-0.27 0.12,-0.11 0.22,-0.2 0.52,-0.2 0.31,0 0.41,0.09 0.53,0.2 0.14,0.13 0.31,0.27 0.72,0.27 0.42,0 0.58,-0.14 0.73,-0.27 0.12,-0.11 0.22,-0.2 0.52,-0.2 0.31,0 0.41,0.09 0.53,0.2 0.14,0.13 0.31,0.27 0.72,0.27 0.42,0 0.58,-0.14 0.73,-0.27 0.06,-0.06 0.12,-0.11 0.2,-0.14 0.01,-0.11 0.02,-0.22 0.02,-0.33 -0.21,0.05 -0.32,0.15 -0.42,0.24 z"/><path id="path9581" d="m 18.166125,19.291375 h 4.58375 c 0,0 0.8125,0.125 0.8125,0.9375 0,0.8125 -0.91625,0.9375 -0.8125,1.5625 0.10375,0.625 -0.47875,0.58375 -0.95875,1.14625 -0.47875,0.5625 -0.58375,0.83375 -1.10375,0.9375 -0.52125,0.10375 -0.39625,0.39625 -0.83375,0.625 -0.4375,0.22875 -0.45875,0.375 -1.14625,0.33375 -0.6875,-0.04125 -0.5,0.35375 -0.8125,0.35375 -0.3125,0 -0.54125,-0.39625 -0.54125,-0.91625 0,-0.52 -0.35375,-4.98 0.8125,-4.98 z" fill="#fee600" /><path fill="#ffffff" d="m 20.499875,23.827625 0.20375,-0.515 -0.20375,-0.125 -0.46875,0.65625 -0.7025,0.09375 -0.15625,0.73375 0.10875,0.15625 -0.04625,0.31375 h -0.26375 l -0.095,-0.27625 0.10625,-0.465 0.09375,-0.80625 0.37625,-0.0175 v -0.21125 l -0.21125,-0.1825 -0.0175,-0.33 -0.265,-0.105 -0.22875,0.3875 0.05875,0.37625 -0.17125,0.6 0.04125,0.13625 -0.12375,0.3225 -0.16375,-0.4225 0.035,-0.9475 -0.07625,-0.3525 0.36375,-0.34875 0.52375,0.06 0.395,-0.2475 0.45875,0.04125 0.0875,-0.5875 -0.41125,-0.065 -1.00625,0.0175 -0.22375,0.33 -0.15875,-0.0475 v -0.5525 h 0.35875 l 0.05875,-0.2125 -0.16375,-0.13375 -0.26375,0.15375 v -0.27875 l 0.2675,-0.15625 0.40375,0.1875 0.21875,-0.23875 -0.345,-0.2675 -0.29375,0.16125 -0.20375,-0.19625 0.1725,-0.235 0.33,0.125 0.07375,-0.17625 -0.47,-0.3325 0.2,-0.11875 0.21875,0.11375 0.11375,0.24 0.24375,0.06625 0.11375,0.1925 0.1875,0.07375 0.08625,0.14125 0.49125,0.055 0.08125,-0.1725 -0.1875,-0.23125 0.145,-0.35625 h 0.5525 l 0.0125,0.5525 0.31375,-0.075 0.1875,-0.32875 0.41625,0.15625 0.6075,0.36875 -0.12875,0.275 -0.4125,-0.035 -0.12875,0.31375 0.2625,0.25 0.03125,0.38125 0.34125,0.01875 0.30125,-0.26625 0.745,0.70875 v 0.26625 l -0.3125,0.0625 -0.3125,-0.57875 -1.11,0.5775 -0.125,0.47 -0.53125,0.60875 v 0.485 h -0.125 z"/></svg>