<svg xmlns:dc="http://purl.org/dc/elements/1.1/" xmlns:cc="http://creativecommons.org/ns#" xmlns:rdf="http://www.w3.org/1999/02/22-rdf-syntax-ns#" xmlns:svg="http://www.w3.org/2000/svg" xmlns="http://www.w3.org/2000/svg" viewBox="0 0 45 45" style="enable-background:new 0 0 45 45;" xml:space="preserve" version="1.1" id="svg2"><metadata id="metadata8"><rdf:RDF><cc:Work rdf:about=""><dc:format>image/svg+xml</dc:format><dc:type rdf:resource="http://purl.org/dc/dcmitype/StillImage"/></cc:Work></rdf:RDF></metadata><defs id="defs6"><clipPath id="clipPath16" clipPathUnits="userSpaceOnUse"><path id="path18" d="M 0,36 36,36 36,0 0,0 0,36 Z"/></clipPath></defs><g transform="matrix(1.25,0,0,-1.25,0,45)" id="g10"><g id="g12"><g xmlns="http://www.w3.org/2000/svg" clip-path="url(#clipPath16)" id="g14"><g id="g30"><path id="path20" style="fill:#eeeeee;fill-opacity:1;fill-rule:nonzero;stroke:none" d="M 32,31 H 24 4 C 1.791,31 0,29.209 0,27 V 9 C 0,6.791 1.791,5 4,5 h 28 c 2.209,0 4,1.791 4,4 v 18 c 0,2.209 -1.791,4 -4,4"/></g><g id="g32"><path id="path30" style="fill:#d20000;fill-opacity:1;fill-rule:nonzero;stroke:none" d="m 0,13.667 h 36 v 8.667 H 0 Z"/></g><g id="g34"><path id="path40" style="fill:#001e78;fill-opacity:1;fill-rule:nonzero;stroke:none" d="M 15.6001,31 V 22.33 H 10e-5 V 27 c 0,2.21 1.79,4 4,4 z"/></g><g id="g36"><path id="path50" style="fill:#ffffff;fill-opacity:1;fill-rule:nonzero;stroke:none" d="M 2.042,29.001 H 1.417 v 0.625 h 0.625 z"/><path id="path51" style="fill:#ffffff;fill-opacity:1;fill-rule:nonzero;stroke:none" d="M 3.777,29.001 H 3.152 v 0.625 h 0.625 z"/><path id="path52" style="fill:#ffffff;fill-opacity:1;fill-rule:nonzero;stroke:none" d="M 5.512,29.001 H 4.887 v 0.625 h 0.625 z"/><path id="path53" style="fill:#ffffff;fill-opacity:1;fill-rule:nonzero;stroke:none" d="M 7.247,29.001 H 6.622 v 0.625 h 0.625 z"/><path id="path54" style="fill:#ffffff;fill-opacity:1;fill-rule:nonzero;stroke:none" d="M 8.982,29.001 H 8.357 v 0.625 h 0.625 z"/><path id="path55" style="fill:#ffffff;fill-opacity:1;fill-rule:nonzero;stroke:none" d="m 10.717,29.001 h -0.625 v 0.625 h 0.625 z"/><path id="path56" style="fill:#ffffff;fill-opacity:1;fill-rule:nonzero;stroke:none" d="m 12.452,29.001 h -0.625 v 0.625 h 0.625 z"/><path id="path57" style="fill:#ffffff;fill-opacity:1;fill-rule:nonzero;stroke:none" d="m 14.187,29.001 h -0.625 v 0.625 h 0.625 z"/><path id="path58" style="fill:#ffffff;fill-opacity:1;fill-rule:nonzero;stroke:none" d="m 14.187,27.235 h -0.625 v 0.625 h 0.625 z"/><path id="path59" style="fill:#ffffff;fill-opacity:1;fill-rule:nonzero;stroke:none" d="m 14.187,25.47 h -0.625 v 0.625 h 0.625 z"/><path id="path60" style="fill:#ffffff;fill-opacity:1;fill-rule:nonzero;stroke:none" d="m 14.187,23.704 h -0.625 v 0.625 h 0.625 z"/><path id="path61" style="fill:#ffffff;fill-opacity:1;fill-rule:nonzero;stroke:none" d="m 12.452,23.704 h -0.625 v 0.625 h 0.625 z"/><path id="path62" style="fill:#ffffff;fill-opacity:1;fill-rule:nonzero;stroke:none" d="m 10.717,27.235 h -0.625 v 0.625 h 0.625 z"/><path id="path63" style="fill:#ffffff;fill-opacity:1;fill-rule:nonzero;stroke:none" d="m 10.717,25.47 h -0.625 v 0.625 h 0.625 z"/><path id="path64" style="fill:#ffffff;fill-opacity:1;fill-rule:nonzero;stroke:none" d="m 10.717,23.704 h -0.625 v 0.625 h 0.625 z"/><path id="path65" style="fill:#ffffff;fill-opacity:1;fill-rule:nonzero;stroke:none" d="M 8.982,23.704 H 8.357 v 0.625 h 0.625 z"/><path id="path66" style="fill:#ffffff;fill-opacity:1;fill-rule:nonzero;stroke:none" d="M 7.247,23.704 H 6.622 v 0.625 h 0.625 z"/><path id="path67" style="fill:#ffffff;fill-opacity:1;fill-rule:nonzero;stroke:none" d="M 5.512,27.235 H 4.887 v 0.625 h 0.625 z"/><path id="path68" style="fill:#ffffff;fill-opacity:1;fill-rule:nonzero;stroke:none" d="M 5.512,25.47 H 4.887 v 0.625 h 0.625 z"/><path id="path69" style="fill:#ffffff;fill-opacity:1;fill-rule:nonzero;stroke:none" d="M 5.512,23.704 H 4.887 v 0.625 h 0.625 z"/><path id="path70" style="fill:#ffffff;fill-opacity:1;fill-rule:nonzero;stroke:none" d="M 3.777,23.704 H 3.152 v 0.625 h 0.625 z"/><path id="path71" style="fill:#ffffff;fill-opacity:1;fill-rule:nonzero;stroke:none" d="M 2.042,27.235 H 1.417 v 0.625 h 0.625 z"/><path id="path72" style="fill:#ffffff;fill-opacity:1;fill-rule:nonzero;stroke:none" d="M 2.042,25.47 H 1.417 v 0.625 h 0.625 z"/><path id="path73" style="fill:#ffffff;fill-opacity:1;fill-rule:nonzero;stroke:none" d="M 2.042,23.704 H 1.417 v 0.625 h 0.625 z"/><path id="path74" style="fill:#ffffff;fill-opacity:1;fill-rule:nonzero;stroke:none" d="M 8.64,25.827 H 6.961 v 1.679 H 8.64 Z"/></g></g></g></g></svg>