<svg xmlns:dc="http://purl.org/dc/elements/1.1/" xmlns:cc="http://creativecommons.org/ns#" xmlns:rdf="http://www.w3.org/1999/02/22-rdf-syntax-ns#" xmlns:svg="http://www.w3.org/2000/svg" xmlns="http://www.w3.org/2000/svg" viewBox="0 0 45 45" style="enable-background:new 0 0 45 45;" xml:space="preserve" version="1.1" id="svg2"><metadata id="metadata8"><rdf:RDF><cc:Work rdf:about=""><dc:format>image/svg+xml</dc:format><dc:type rdf:resource="http://purl.org/dc/dcmitype/StillImage"/></cc:Work></rdf:RDF></metadata><defs id="defs6"><clipPath id="clipPath16" clipPathUnits="userSpaceOnUse"><path id="path18" d="M 0,36 36,36 36,0 0,0 0,36 Z"/></clipPath></defs><g transform="matrix(1.25,0,0,-1.25,0,45)" id="g10"><g id="g12"><g xmlns="http://www.w3.org/2000/svg" clip-path="url(#clipPath16)" id="g14"><g transform="translate(32,31)" id="g20"><path id="path22" style="fill:#eeeeee;fill-opacity:1;fill-rule:nonzero;stroke:none" d="m 0,0 -28,0 c -2.209,0 -4,-1.791 -4,-4 l 0,-18 c 0,-2.209 1.791,-4 4,-4 l 28,0 c 2.209,0 4,1.791 4,4 L 4,-4 C 4,-1.791 2.209,0 0,0"/></g><g id="g3209" transform="translate(21.0054,25.6104)"><path d="m 0,0 c 2.894,-0.254 5.039,-2.733 4.902,-5.29 -0.127,-2.386 0.175,-3.127 0.819,-3.358 0.779,-0.28 2.545,2.289 3.05,1.804 0.601,-0.575 -1.206,-4.409 -1.753,-3.877 -0.409,0.4 0.041,1.762 0.525,3.43 0.415,1.433 0.4,3.188 -0.701,3.767 -0.908,0.478 -2.171,-0.584 -3.005,-2.13 -1.1,-2.038 -1.204,-4.417 -0.946,-4.725 0.484,-0.578 1.439,1.964 1.294,2.552 C 4.114,-7.538 3.446,-7.951 2.417,-8.782 1.638,-9.411 0.489,-9.895 -0.148,-9.45 c -1.133,0.791 0.069,2.379 -0.975,4.24 -0.669,1.193 -1.329,1.853 -1.237,3.158 C -2.266,-0.721 -1.179,0.104 0,0 z" style="fill:none;stroke:#6ea31b;stroke-opacity:1;stroke-width:0.8" id="path3211"/></g><g id="g3213" transform="translate(2.8291,12.5273)"><path d="m 0,0 0.498,0 c 0.171,0 0.308,0.056 0.41,0.166 0.103,0.11 0.154,0.258 0.154,0.444 0,0.419 -0.189,0.628 -0.569,0.628 L 0,1.238 0,0 z m 0.574,-0.352 -0.574,0 0,-1.319 -0.412,0 0,3.261 0.914,0 C 0.822,1.59 1.063,1.507 1.228,1.341 1.392,1.174 1.474,0.93 1.474,0.608 1.474,0.407 1.43,0.231 1.341,0.081 1.252,-0.068 1.126,-0.182 0.963,-0.258 l 0.632,-1.387 0,-0.026 -0.441,0 -0.58,1.319 z" style="fill:#5a6771;fill-opacity:1;fill-rule:nonzero;stroke:none" id="path3215"/></g><g id="g3217" transform="translate(5.3564,12.9844)"><path d="M 0,0 C -0.164,0 -0.286,-0.057 -0.365,-0.17 -0.444,-0.282 -0.489,-0.457 -0.5,-0.694 l 0.955,0 0,0.053 C 0.444,-0.411 0.402,-0.247 0.33,-0.148 0.258,-0.05 0.148,0 0,0 m 0.045,-2.173 c -0.302,0 -0.533,0.09 -0.695,0.27 -0.161,0.179 -0.243,0.444 -0.246,0.792 l 0,0.293 c 0,0.362 0.079,0.644 0.236,0.85 0.158,0.205 0.378,0.308 0.66,0.308 0.283,0 0.496,-0.09 0.636,-0.272 0.14,-0.179 0.212,-0.461 0.215,-0.843 l 0,-0.26 -1.353,0 0,-0.057 c 0,-0.259 0.049,-0.448 0.147,-0.566 0.098,-0.117 0.238,-0.176 0.422,-0.176 0.117,0 0.219,0.022 0.308,0.065 0.089,0.044 0.172,0.115 0.25,0.209 L 0.831,-1.811 C 0.659,-2.053 0.397,-2.173 0.045,-2.173" style="fill:#5a6771;fill-opacity:1;fill-rule:nonzero;stroke:none" id="path3219"/></g><g id="g3221" transform="translate(6.7393,11.9531)"><path d="m 0,0 c 0,-0.271 0.04,-0.471 0.12,-0.599 0.079,-0.128 0.211,-0.191 0.393,-0.191 0.197,0 0.344,0.101 0.443,0.302 l 0,1.21 C 0.854,0.92 0.707,1.02 0.518,1.02 0.335,1.02 0.204,0.956 0.123,0.828 0.042,0.701 0.001,0.506 0,0.241 L 0,0 z m 0.18,-1.659 c 0.085,-0.035 0.174,-0.054 0.268,-0.054 0.33,0 0.499,0.18 0.508,0.54 l 0,0.316 c -0.128,-0.19 -0.31,-0.285 -0.546,-0.285 -0.251,0 -0.447,0.095 -0.587,0.284 -0.14,0.188 -0.214,0.46 -0.219,0.813 l 0,0.27 c 0,0.378 0.068,0.664 0.206,0.856 0.137,0.194 0.337,0.29 0.602,0.29 0.246,0 0.434,-0.104 0.562,-0.315 l 0.02,0.27 0.359,0 0,-2.445 c 0,-0.301 -0.078,-0.531 -0.231,-0.692 -0.154,-0.16 -0.368,-0.24 -0.643,-0.24 -0.12,0 -0.253,0.03 -0.402,0.088 l 0.103,0.304 z" style="fill:#5a6771;fill-opacity:1;fill-rule:nonzero;stroke:none" id="path3223"/></g><path xmlns="http://www.w3.org/2000/svg" d="m 8.847,10.856 -0.396,0 0,2.423 0.396,0 0,-2.423 z m 0.031,3.067 c 0,-0.068 -0.018,-0.124 -0.055,-0.168 -0.038,-0.046 -0.094,-0.067 -0.171,-0.067 -0.074,0 -0.13,0.021 -0.168,0.067 -0.037,0.044 -0.055,0.1 -0.055,0.168 0,0.067 0.018,0.123 0.055,0.17 0.038,0.046 0.094,0.069 0.168,0.069 0.075,0 0.132,-0.023 0.169,-0.07 0.039,-0.047 0.057,-0.104 0.057,-0.169" style="fill:#5a6771;fill-opacity:1;fill-rule:nonzero;stroke:none" id="path3225"/><g id="g3227" transform="translate(9.522,11.9512)"><path d="m 0,0 c 0,-0.249 0.049,-0.445 0.146,-0.588 0.098,-0.142 0.23,-0.213 0.396,-0.213 0.349,0 0.529,0.252 0.54,0.757 l 0,0.273 c 0,0.248 -0.05,0.443 -0.148,0.587 C 0.835,0.961 0.703,1.033 0.538,1.033 0.375,1.033 0.244,0.961 0.146,0.816 0.049,0.672 0,0.478 0,0.23 L 0,0 z m -0.396,0.229 c 0,0.352 0.084,0.63 0.256,0.836 0.171,0.206 0.396,0.308 0.678,0.308 0.28,0 0.505,-0.1 0.677,-0.3 0.171,-0.2 0.258,-0.472 0.263,-0.817 L 1.478,0 C 1.478,-0.351 1.393,-0.629 1.223,-0.833 1.052,-1.037 0.825,-1.14 0.542,-1.14 c -0.281,0 -0.506,0.1 -0.676,0.298 -0.169,0.198 -0.257,0.467 -0.262,0.807 l 0,0.264 z" style="fill:#5a6771;fill-opacity:1;fill-rule:nonzero;stroke:none" id="path3229"/></g><g id="g3231" transform="translate(11.623,13.2793)"><path d="m 0,0 0.011,-0.262 c 0.154,0.204 0.35,0.307 0.59,0.307 0.428,0 0.645,-0.286 0.651,-0.857 l 0,-1.611 -0.394,0 0,1.592 c 0,0.19 -0.032,0.325 -0.095,0.405 -0.064,0.079 -0.159,0.119 -0.285,0.119 -0.1,0 -0.188,-0.033 -0.266,-0.098 C 0.134,-0.471 0.07,-0.557 0.022,-0.663 l 0,-1.76 -0.396,0 0,2.423 L 0,0 z" style="fill:#5a6771;fill-opacity:1;fill-rule:nonzero;stroke:none" id="path3233"/></g><g id="g3235" transform="translate(15.4771,11.6807)"><path d="m 0,0 c 0,0.162 -0.044,0.287 -0.132,0.374 -0.088,0.087 -0.247,0.171 -0.477,0.253 -0.23,0.082 -0.406,0.168 -0.528,0.259 -0.122,0.09 -0.213,0.193 -0.273,0.308 -0.06,0.117 -0.091,0.248 -0.091,0.398 0,0.259 0.086,0.471 0.259,0.638 0.172,0.167 0.398,0.251 0.678,0.251 0.19,0 0.361,-0.043 0.51,-0.127 C 0.095,2.268 0.21,2.149 0.291,1.997 0.372,1.845 0.412,1.678 0.412,1.496 L 0,1.496 C 0,1.697 -0.048,1.854 -0.146,1.964 -0.243,2.075 -0.382,2.13 -0.564,2.13 -0.73,2.13 -0.859,2.083 -0.95,1.99 -1.041,1.898 -1.086,1.768 -1.086,1.601 -1.086,1.462 -1.037,1.348 -0.939,1.255 -0.84,1.162 -0.687,1.079 -0.482,1.006 -0.161,0.899 0.069,0.769 0.207,0.614 0.345,0.458 0.415,0.255 0.415,0.005 c 0,-0.266 -0.086,-0.477 -0.258,-0.636 -0.172,-0.159 -0.406,-0.238 -0.701,-0.238 -0.19,0 -0.365,0.042 -0.526,0.124 -0.16,0.083 -0.286,0.199 -0.378,0.349 -0.092,0.151 -0.138,0.323 -0.138,0.517 l 0.412,0 c 0,-0.202 0.057,-0.358 0.169,-0.471 0.113,-0.112 0.267,-0.168 0.461,-0.168 0.18,0 0.316,0.046 0.407,0.14 C -0.046,-0.286 0,-0.16 0,0" style="fill:#5a6771;fill-opacity:1;fill-rule:nonzero;stroke:none" id="path3237"/></g><g id="g3239" transform="translate(16.6064,10.877)"><path d="m 0,0 -0.712,2.402 0.432,0 0.448,-1.764 0.441,1.764 0.421,0 -0.939,-3.275 -0.342,0 L 0,0 z" style="fill:#5a6771;fill-opacity:1;fill-rule:nonzero;stroke:none" id="path3241"/></g><g id="g3243" transform="translate(18.0449,11.9531)"><path d="m 0,0 c 0,-0.271 0.04,-0.471 0.121,-0.599 0.081,-0.128 0.212,-0.191 0.394,-0.191 0.197,0 0.344,0.1 0.442,0.298 l 0,1.221 C 0.855,0.923 0.708,1.02 0.518,1.02 0.335,1.02 0.204,0.956 0.123,0.828 0.042,0.701 0.001,0.506 0,0.241 L 0,0 z m -0.396,0.225 c 0,0.373 0.069,0.657 0.209,0.853 0.139,0.195 0.34,0.293 0.602,0.293 0.231,0 0.411,-0.094 0.542,-0.282 l 0,1.015 0.395,0.24 0,-3.441 -0.363,0 -0.02,0.26 C 0.839,-1.04 0.653,-1.142 0.412,-1.142 c -0.251,0 -0.448,0.097 -0.59,0.292 -0.143,0.196 -0.216,0.47 -0.218,0.826 l 0,0.249 z" style="fill:#5a6771;fill-opacity:1;fill-rule:nonzero;stroke:none" id="path3245"/></g><g id="g3247" transform="translate(20.0596,11.9531)"><path d="m 0,0 c 0,-0.271 0.04,-0.471 0.121,-0.599 0.08,-0.128 0.212,-0.191 0.394,-0.191 0.196,0 0.344,0.1 0.441,0.298 l 0,1.221 C 0.854,0.923 0.708,1.02 0.517,1.02 0.335,1.02 0.204,0.956 0.123,0.828 0.042,0.701 0.001,0.506 0,0.241 L 0,0 z m -0.397,0.225 c 0,0.373 0.07,0.657 0.21,0.853 0.139,0.195 0.34,0.293 0.601,0.293 0.231,0 0.412,-0.094 0.542,-0.282 l 0,1.015 0.396,0.24 0,-3.441 -0.362,0 -0.021,0.26 C 0.84,-1.04 0.654,-1.142 0.412,-1.142 c -0.251,0 -0.448,0.097 -0.59,0.292 -0.143,0.196 -0.216,0.47 -0.219,0.826 l 0,0.249 z" style="fill:#5a6771;fill-opacity:1;fill-rule:nonzero;stroke:none" id="path3249"/></g><g id="g3251" transform="translate(22.479,11.1719)"><path d="M 0,0 C 0.097,0 0.189,0.027 0.277,0.08 0.366,0.135 0.43,0.201 0.47,0.282 l 0,0.578 -0.224,0 C 0.058,0.857 -0.091,0.814 -0.199,0.733 -0.309,0.652 -0.363,0.538 -0.363,0.393 c 0,-0.138 0.028,-0.239 0.082,-0.3 C -0.225,0.031 -0.132,0 0,0 m 0.528,-0.315 c -0.024,0.051 -0.041,0.14 -0.051,0.263 -0.141,-0.205 -0.32,-0.308 -0.538,-0.308 -0.22,0 -0.391,0.061 -0.514,0.184 -0.123,0.123 -0.184,0.297 -0.184,0.522 0,0.246 0.083,0.441 0.25,0.586 0.168,0.144 0.396,0.218 0.688,0.222 l 0.291,0 0,0.257 c 0,0.146 -0.032,0.248 -0.096,0.31 -0.065,0.06 -0.163,0.091 -0.293,0.091 -0.12,0 -0.217,-0.036 -0.292,-0.107 -0.074,-0.07 -0.112,-0.16 -0.112,-0.269 l -0.397,0 c 0,0.125 0.037,0.242 0.111,0.355 0.073,0.113 0.172,0.201 0.295,0.266 0.124,0.063 0.262,0.095 0.415,0.095 0.247,0 0.436,-0.061 0.566,-0.184 C 0.795,1.845 0.861,1.665 0.864,1.429 l 0,-1.223 C 0.866,0.02 0.891,-0.143 0.941,-0.279 l 0,-0.036 -0.413,0 z" style="fill:#5a6771;fill-opacity:1;fill-rule:nonzero;stroke:none" id="path3253"/></g><g id="g3255" transform="translate(24.0684,13.2793)"><path d="m 0,0 0.012,-0.262 c 0.153,0.204 0.35,0.307 0.59,0.307 0.427,0 0.644,-0.286 0.651,-0.857 l 0,-1.611 -0.395,0 0,1.592 c 0,0.19 -0.031,0.325 -0.095,0.405 C 0.699,-0.347 0.604,-0.307 0.478,-0.307 0.379,-0.307 0.29,-0.34 0.212,-0.405 0.134,-0.471 0.07,-0.557 0.023,-0.663 l 0,-1.76 -0.397,0 0,2.423 L 0,0 z" style="fill:#5a6771;fill-opacity:1;fill-rule:nonzero;stroke:none" id="path3257"/></g><g id="g3259" transform="translate(26.0273,13.2793)"><path d="m 0,0 0.01,-0.224 c 0.147,0.18 0.342,0.269 0.584,0.269 0.27,0 0.459,-0.117 0.566,-0.352 0.152,0.235 0.365,0.352 0.636,0.352 0.447,0 0.675,-0.278 0.686,-0.835 l 0,-1.633 -0.394,0 0,1.595 c 0,0.176 -0.031,0.307 -0.094,0.392 -0.063,0.086 -0.169,0.129 -0.318,0.129 -0.119,0 -0.217,-0.046 -0.291,-0.138 C 1.31,-0.538 1.267,-0.656 1.255,-0.8 l 0,-1.623 -0.4,0 0,1.612 c -0.003,0.336 -0.14,0.504 -0.409,0.504 -0.2,0 -0.342,-0.099 -0.424,-0.299 l 0,-1.817 -0.394,0 0,2.423 L 0,0 z" style="fill:#5a6771;fill-opacity:1;fill-rule:nonzero;stroke:none" id="path3261"/></g><g id="g3263" transform="translate(29.5625,11.1719)"><path d="M 0,0 C 0.097,0 0.189,0.027 0.277,0.08 0.365,0.135 0.43,0.201 0.471,0.282 l 0,0.578 -0.225,0 C 0.058,0.857 -0.091,0.814 -0.199,0.733 -0.309,0.652 -0.363,0.538 -0.363,0.393 c 0,-0.138 0.028,-0.239 0.083,-0.3 C -0.225,0.031 -0.132,0 0,0 m 0.528,-0.315 c -0.023,0.051 -0.041,0.14 -0.051,0.263 -0.14,-0.205 -0.32,-0.308 -0.538,-0.308 -0.219,0 -0.39,0.061 -0.514,0.184 -0.122,0.123 -0.185,0.297 -0.185,0.522 0,0.246 0.084,0.441 0.251,0.586 0.167,0.144 0.397,0.218 0.688,0.222 l 0.292,0 0,0.257 c 0,0.146 -0.033,0.248 -0.098,0.31 C 0.31,1.781 0.212,1.812 0.08,1.812 -0.039,1.812 -0.136,1.776 -0.211,1.705 -0.285,1.635 -0.322,1.545 -0.322,1.436 l -0.398,0 c 0,0.125 0.037,0.242 0.111,0.355 0.073,0.113 0.172,0.201 0.295,0.266 0.125,0.063 0.262,0.095 0.415,0.095 0.248,0 0.436,-0.061 0.565,-0.184 C 0.795,1.845 0.861,1.665 0.864,1.429 l 0,-1.223 C 0.865,0.02 0.892,-0.143 0.94,-0.279 l 0,-0.036 -0.412,0 z" style="fill:#5a6771;fill-opacity:1;fill-rule:nonzero;stroke:none" id="path3265"/></g><g id="g3267" transform="translate(31.7803,12.9082)"><path d="m 0,0 c -0.056,0.01 -0.114,0.016 -0.179,0.016 -0.203,0 -0.345,-0.112 -0.425,-0.334 l 0,-1.734 -0.397,0 0,2.423 0.386,0 0.006,-0.246 c 0.106,0.194 0.256,0.291 0.45,0.291 0.063,0 0.115,-0.01 0.157,-0.031 L 0,0 z" style="fill:#5a6771;fill-opacity:1;fill-rule:nonzero;stroke:none" id="path3269"/></g><g id="g3271" transform="translate(32.5215,11.9648)"><path d="m 0,0 -0.21,-0.242 0,-0.866 -0.396,0 0,3.2 0.396,0.24 0,-2.059 0.755,1.041 0.475,0 -0.771,-1.011 0.872,-1.411 -0.462,0 L 0,0 z" style="fill:#5a6771;fill-opacity:1;fill-rule:nonzero;stroke:none" id="path3273"/></g></g></g></g></svg>