<svg xmlns:dc="http://purl.org/dc/elements/1.1/" xmlns:cc="http://creativecommons.org/ns#" xmlns:rdf="http://www.w3.org/1999/02/22-rdf-syntax-ns#" xmlns:svg="http://www.w3.org/2000/svg" xmlns="http://www.w3.org/2000/svg" viewBox="0 0 45 45" style="enable-background:new 0 0 45 45;" xml:space="preserve" version="1.1" id="svg2"><metadata id="metadata8"><rdf:RDF><cc:Work rdf:about=""><dc:format>image/svg+xml</dc:format><dc:type rdf:resource="http://purl.org/dc/dcmitype/StillImage"/></cc:Work></rdf:RDF></metadata><defs id="defs6"><clipPath id="clipPath16" clipPathUnits="userSpaceOnUse"><path id="path18" d="M 0,36 36,36 36,0 0,0 0,36 Z"/></clipPath></defs><g transform="matrix(1.25,0,0,-1.25,0,45)" id="g10"><g id="g12"><g xmlns="http://www.w3.org/2000/svg" clip-path="url(#clipPath16)" id="g14"><g id="g30"><path id="path20" style="fill:#eeeeee;fill-opacity:1;fill-rule:nonzero;stroke:none" d="m 32,5 c 2.209,0 4,1.791 4,4 l 0,18 c 0,2.209 -1.791,4 -4,4 L 4,31 C 1.791,31 0,29.209 0,27 L 0,9 C 0,6.791 1.791,5 4,5 l 28,0 z"/></g><g id="g34"><path id="path30" style="fill:#db2015;fill-opacity:1;fill-rule:nonzero;stroke:none" d="m 16.6313,24.688 c 0,0 -0.538,-0.611 -1.106,-0.208 -0.454,0.322 0.353,0.789 0.353,0.789 0,0 -0.13,0.125 -0.338,0 -0.207,-0.126 -0.352,-0.29 -0.352,-0.29 0,0 0.047,0.701 -0.542,1.188 -0.588,0.486 -0.811,-0.09 -0.847,-0.263 -0.035,-0.173 0.086,-0.529 0.424,-0.341 0.175,0.098 -0.11,0.364 -0.11,0.364 0,0 0.331,0.276 0.502,-0.047 0.286,-0.542 -0.365,-0.91 -0.365,-0.91 0,0 -0.157,0.275 -0.349,0.35 -0.192,0.074 -0.247,-0.024 -0.247,-0.024 0,0 0.333,-0.172 0.149,-0.494 -0.107,-0.186 -0.13,-0.341 -0.13,-0.341 0,0 -0.05,-0.032 -0.396,0.043 -0.345,0.075 -0.415,0.125 -0.415,0.125 0,0 0.38,-0.341 0.345,-1 -0.035,-0.658 -1.376,-2.094 -2.459,-3.353 -1.082,-1.258 -1.058,-2.353 -0.588,-3.694 0.17,-0.484 0.462,-1.302 0.447,-1.741 -0.027,-0.776 -0.482,-1.047 -0.482,-1.047 0,0 0.223,-0.09 0.537,0.145 0.314,0.236 0.408,1.624 0.604,1.757 0.147,0.1 0.29,-0.29 0.29,-0.29 0,0 0.173,0.133 0.032,0.415 -0.142,0.283 -0.04,0.346 -0.04,0.346 0,0 0.149,0 0.298,0.109 0.149,0.111 0.259,0.345 0.259,0.345 0,0 0.572,0.22 0.957,1.059 0.384,0.84 0.008,1.114 0.008,1.114 0,0 0.267,-0.69 -0.432,-1.38 -0.367,-0.364 -0.917,-0.314 -0.917,-0.314 0,0 0.094,0.071 0.125,0.18 0.032,0.111 -0.007,0.236 -0.007,0.236 0,0 -0.251,-0.409 -0.761,-0.251 -0.51,0.157 -0.942,0.76 -0.895,1.435 0.048,0.675 0.487,1.169 1.224,1.639 0.737,0.471 2.002,0.397 2.002,0.397 l 8.805,0 c 0,0 1.266,0.074 2.003,-0.397 0.738,-0.47 1.177,-0.964 1.224,-1.639 0.047,-0.675 -0.385,-1.278 -0.894,-1.435 -0.51,-0.158 -0.761,0.251 -0.761,0.251 0,0 -0.039,-0.125 -0.008,-0.236 0.031,-0.109 0.126,-0.18 0.126,-0.18 0,0 -0.551,-0.05 -0.918,0.314 -0.698,0.69 -0.432,1.38 -0.432,1.38 0,0 -0.376,-0.274 0.008,-1.114 0.385,-0.839 0.957,-1.059 0.957,-1.059 0,0 0.111,-0.234 0.259,-0.345 0.149,-0.109 0.298,-0.109 0.298,-0.109 0,0 0.102,-0.063 -0.039,-0.346 -0.141,-0.282 0.031,-0.415 0.031,-0.415 0,0 0.144,0.39 0.29,0.29 0.196,-0.133 0.291,-1.521 0.605,-1.757 0.313,-0.235 0.537,-0.145 0.537,-0.145 0,0 -0.456,0.271 -0.483,1.047 -0.014,0.439 0.278,1.257 0.447,1.741 0.471,1.341 0.495,2.436 -0.587,3.694 -1.083,1.259 -2.424,2.695 -2.459,3.353 -0.036,0.659 0.344,1 0.344,1 0,0 -0.07,-0.05 -0.416,-0.125 -0.344,-0.075 -0.395,-0.043 -0.395,-0.043 0,0 -0.024,0.155 -0.13,0.341 -0.184,0.322 0.149,0.494 0.149,0.494 0,0 -0.054,0.098 -0.247,0.024 -0.192,-0.075 -0.349,-0.35 -0.349,-0.35 0,0 -0.651,0.368 -0.365,0.91 0.17,0.323 0.502,0.047 0.502,0.047 0,0 -0.285,-0.266 -0.109,-0.364 0.337,-0.188 0.458,0.168 0.423,0.341 -0.035,0.173 -0.259,0.749 -0.847,0.263 -0.588,-0.487 -0.541,-1.188 -0.541,-1.188 0,0 -0.145,0.164 -0.353,0.29 -0.207,0.125 -0.337,0 -0.337,0 0,0 0.805,-0.467 0.352,-0.789 -0.568,-0.403 -1.105,0.208 -1.105,0.208 l -2.363,0 z"/><path id="path32" style="fill:#db2015;fill-opacity:1;fill-rule:nonzero;stroke:none" d="m 17.7202,9.2812 c -5.548,0 -5.592,6.583 -5.592,6.583 l 11.183,0 c 0,0 -0.043,-6.583 -5.591,-6.583"/><path id="path34" style="fill:#c0a062;fill-opacity:1;fill-rule:nonzero;stroke:none" d="m 18.8359,24.3867 0.872,1.662 c 0,0 -0.298,0.243 -0.714,0 -0.304,-0.178 -0.266,-0.659 -0.266,-0.659 0,0 -0.158,-0.125 -0.448,0.008 -0.29,0.134 -0.415,0.306 -0.415,0.306 0,0 0.266,0.106 0.259,0.454 -0.008,0.346 -0.404,0.668 -0.404,0.668 0,0 -0.396,-0.322 -0.404,-0.668 -0.007,-0.348 0.259,-0.454 0.259,-0.454 0,0 -0.125,-0.172 -0.415,-0.306 -0.29,-0.133 -0.448,-0.008 -0.448,-0.008 0,0 0.039,0.481 -0.266,0.659 -0.416,0.243 -0.714,0 -0.714,0 l 0.873,-1.662 2.231,0 z"/><path id="path36" style="fill:#aaaaaa;fill-opacity:1;fill-rule:nonzero;stroke:none" d="m 12.1284,15.8643 c 0,0 1.529,1.659 1.529,3.024 0,1.365 -0.702,2.315 -0.702,2.315 l 1.643,1.403 1.383,-0.724 0,0.153 c 0,0 0.206,-0.07 0.506,0.088 0.3,0.159 0.429,0.106 0.429,0.106 l 0,0.965 c 0,0 -0.495,0.234 -0.495,0.688 0,0.418 0.347,0.923 1.299,0.923 0.95,0 1.298,-0.505 1.298,-0.923 0,-0.454 -0.495,-0.688 -0.495,-0.688 l 0,-0.965 c 0,0 0.13,0.053 0.43,-0.106 0.3,-0.158 0.506,-0.088 0.506,-0.088 l 0,-0.153 1.381,0.724 1.644,-1.403 c 0,0 -0.702,-0.95 -0.702,-2.315 0,-1.365 1.529,-3.024 1.529,-3.024 l -11.183,0 z"/></g></g></g></g></svg>