<svg xmlns:dc="http://purl.org/dc/elements/1.1/" xmlns:cc="http://creativecommons.org/ns#" xmlns:rdf="http://www.w3.org/1999/02/22-rdf-syntax-ns#" xmlns:svg="http://www.w3.org/2000/svg" xmlns="http://www.w3.org/2000/svg" viewBox="0 0 45 45" style="enable-background:new 0 0 45 45;" xml:space="preserve" version="1.1" id="svg2"><metadata id="metadata8"><rdf:RDF><cc:Work rdf:about=""><dc:format>image/svg+xml</dc:format><dc:type rdf:resource="http://purl.org/dc/dcmitype/StillImage"/></cc:Work></rdf:RDF></metadata><defs id="defs6"><clipPath id="clipPath16" clipPathUnits="userSpaceOnUse"><path id="path18" d="M 0,36 36,36 36,0 0,0 0,36 Z"/></clipPath></defs><g transform="matrix(1.25,0,0,-1.25,0,45)" id="g10"><g id="g12"><g xmlns="http://www.w3.org/2000/svg" clip-path="url(#clipPath16)" id="g14"><g id="g30"><path id="path20" style="fill:#002d72;fill-opacity:1;fill-rule:nonzero;stroke:none" d="m 36,9 0,18 c 0,2.209 -1.791,4 -4,4 L 4,31 C 1.791,31 0,29.209 0,27 L 0,9 C 0,6.791 1.791,5 4,5 l 28,0 c 2.209,0 4,1.791 4,4"/></g><g id="g34"><path id="path30" style="fill:#ff3515;fill-opacity:1;fill-rule:nonzero;stroke:none" d="m 23.667,22.5117 -0.957,-1.456 0.27,-0.214 0,-1.46 0.061,-0.182 -0.061,-6.817 -0.668,-1.421 1.355,0 0,6.663 0.489,2.266 -0.093,0.922 -0.396,-0.531 0,2.23 z"/><path id="path31" style="fill:#ff3515;fill-opacity:1;fill-rule:nonzero;stroke:none" d="m 27.0625,19.6763 -0.687,0 0,-3.333 -0.204,-3.062 0.204,-2.319 1.078,0 -0.419,0.784 -0.146,4.013 0.463,0.433 -0.289,3.484 z"/><path id="path32" style="fill:#f2a900;fill-opacity:1;fill-rule:nonzero;stroke:none" d="m 26.3291,22.2705 -0.806,0.241 -0.893,0.1 -0.963,-0.1 0,-2.23 0.395,0.531 0.094,-0.922 -0.489,-2.266 0,-6.663 2.708,0 -0.203,2.32 0.203,3.062 0,4.203 0.231,1.058 -0.277,0.666 z"/><path id="path33" style="fill:#ffd9ee;fill-opacity:1;fill-rule:nonzero;stroke:none" d="m 25.5234,23.7939 -0.347,0.457 -0.547,-0.457 0,-1.182 0.894,-0.1 0,1.282 z"/><path id="path34" style="fill:#ffd9ee;fill-opacity:1;fill-rule:nonzero;stroke:none" d="m 22.9795,20.0059 -2.519,1.996 0,0.463 0.487,0 2.032,-1.624 0,-0.835 z"/><path id="path35" style="fill:#ffd9ee;fill-opacity:1;fill-rule:nonzero;stroke:none" d="m 27.0625,19.6763 0.555,2.835 -0.812,0 -0.43,-1.964 0,-0.871 0.687,0 z"/><path id="path36" style="fill:#d18644;fill-opacity:1;fill-rule:nonzero;stroke:none" d="m 23.9648,22.5425 c 0.002,0 0.388,1.146 0.388,1.146 l 0.241,0.353 0.095,0.447 0.27,0.117 0.382,-0.082 0.212,-0.335 0.206,-1.1 0.259,-0.283 0,-0.442 -0.494,0.148 0,1.282 -0.347,0.457 -0.547,-0.457 0,-1.182 -0.665,-0.069 z"/><path id="path37" style="fill:#ffffff;fill-opacity:1;fill-rule:nonzero;stroke:none" d="m 20.5039,22.4648 0.086,4.302 0.075,0 0.086,-4.302 -0.247,0 z"/><path id="path38" style="fill:#ff3515;fill-opacity:1;fill-rule:nonzero;stroke:none" d="m 13.0098,20.3862 0.286,-7.713 0.667,-1.421 -1.355,0 -0.179,3.306 0.177,2.165 -0.424,3 0.03,1.379 0.398,-1.664 0.4,0.948 z"/><path id="path39" style="fill:#ff3515;fill-opacity:1;fill-rule:nonzero;stroke:none" d="m 9.2402,19.3018 0.169,0.18 0.479,1.536 0.188,-1.377 -0.423,-1.141 -0.036,-1.788 0.306,-1.377 0.283,-4.083 -0.789,-0.129 -0.878,1.224 0.024,1.13 -0.204,0.149 0.11,1.349 -0.189,0.14 0.673,4.658 0.287,-0.471 z"/><path id="path40" style="fill:#0077c8;fill-opacity:1;fill-rule:nonzero;stroke:none" d="m 9.7002,22.4414 1.037,0.306 0.904,-0.136 0.824,-0.288 0.678,-1.043 -0.133,-0.894 -0.4,-0.948 -0.398,1.664 -0.03,-1.379 0.424,-3 -0.177,-2.165 0.179,-3.306 -2.402,0 -0.283,4.083 -0.306,1.377 0.036,1.788 0.423,1.141 -0.188,1.376 -0.479,-1.536 -0.169,-0.18 -0.401,0.658 0.488,0 0,0.87 -0.148,0.778 0.521,0.834 z"/><path id="path41" style="fill:#ffd9ee;fill-opacity:1;fill-rule:nonzero;stroke:none" d="m 10.7373,23.8335 0.488,0.514 0.416,-0.318 0,-1.418 -0.904,0.136 0,1.086 z"/><path id="path42" style="fill:#ffd9ee;fill-opacity:1;fill-rule:nonzero;stroke:none" d="m 13.0098,20.3862 0.392,-0.125 2.306,1.544 0,0.463 -0.486,0 -1.901,-1.265 -0.178,0.277 -0.133,-0.894 z"/><path id="path43" style="fill:#ffd9ee;fill-opacity:1;fill-rule:nonzero;stroke:none" d="m 8.8394,19.959 -0.407,0.773 -0.348,2.362 0.812,0 0.431,-2.264 0,-0.871 -0.488,0 z"/><path id="path44" style="fill:#d18644;fill-opacity:1;fill-rule:nonzero;stroke:none" d="m 12.4106,22.3423 -0.526,1.107 0.006,0.506 -0.269,0.361 -0.126,0.317 -0.293,0.153 -0.385,-0.165 -0.137,-0.392 -0.25,-0.152 -0.009,-0.624 -0.341,-0.318 -0.257,-0.658 0.914,0.27 0,1.071 0.488,0.529 0.415,-0.318 0,-1.417 0.77,-0.27 z"/><path id="path45" style="fill:#ffffff;fill-opacity:1;fill-rule:nonzero;stroke:none" d="m 18,7.2412 c -4.241,0 -6.624,1.559 -6.624,1.559 l 0.421,0.747 -3.171,0.017 c 0,0 0.02,-0.103 0.15,-0.335 0.124,-0.218 0.277,-0.31 0.277,-0.438 0,-0.19 -0.759,-0.189 -0.759,-0.189 l -0.106,0.333 c 0,0 -0.023,-0.047 -0.273,-0.047 -0.127,0 -0.22,0.043 -0.269,0.106 -0.043,0.052 -0.087,0.125 -0.087,0.125 l -0.71,1.404 c 0,0 0.486,0.345 1.024,0.345 0.356,0 4.396,0.099 5.541,0.099 1.145,0 1.47,-0.067 1.643,-0.165 0.172,-0.098 0.137,-0.294 0.137,-0.294 0,0 -0.153,-0.582 -0.255,-0.97 -0.102,-0.387 -0.208,-0.579 -0.208,-0.579 0,0 0.76,-0.177 1.433,-0.285 0.583,-0.094 0.881,-0.123 1.836,-0.123 0.955,0 1.254,0.029 1.836,0.123 0.674,0.108 1.433,0.285 1.433,0.285 0,0 -0.106,0.192 -0.207,0.579 -0.103,0.388 -0.256,0.97 -0.256,0.97 0,0 -0.035,0.196 0.137,0.294 0.172,0.098 0.498,0.165 1.643,0.165 1.145,0 5.185,-0.099 5.542,-0.099 0.537,0 1.023,-0.345 1.023,-0.345 l -0.71,-1.404 c 0,0 -0.045,-0.073 -0.087,-0.125 -0.049,-0.063 -0.141,-0.106 -0.269,-0.106 -0.25,0 -0.273,0.047 -0.273,0.047 l -0.106,-0.333 c 0,0 -0.759,-10e-4 -0.759,0.189 0,0.128 0.153,0.22 0.277,0.438 0.13,0.232 0.149,0.335 0.149,0.335 l -3.17,-0.017 0.42,-0.747 c 0,0 -2.382,-1.559 -6.623,-1.559"/><path id="path46" style="fill:#0077c8;fill-opacity:1;fill-rule:nonzero;stroke:none" d="m 19.582,23.541 c 0,0.874 -0.708,1.583 -1.582,1.583 -0.874,0 -1.583,-0.709 -1.583,-1.583 0,-0.874 0.709,-1.582 1.583,-1.582 0.874,0 1.582,0.708 1.582,1.582"/><path id="path47" style="fill:#b3875a;fill-opacity:1;fill-rule:nonzero;stroke:none" d="m 18.6357,25.7178 c 0,0 0.823,0.047 1.664,0.929 0.842,0.883 1.029,1.465 1.029,1.465 0,0 0.262,0.015 0.53,0.168 0.151,0.085 0.194,0.229 0.194,0.229 0,0 -1.529,-0.185 -2.1,-0.279 -0.57,-0.095 -0.758,-0.109 -0.826,-0.203 -0.037,-0.051 -0.042,-0.277 -0.151,-0.473 -0.092,-0.163 -0.255,-0.318 -0.446,-0.318 -0.18,0 -0.296,0.052 -0.389,0.199 -0.136,0.215 -0.223,0.551 -0.223,0.551 l 0.1,0 -0.1,0.185 0.082,0.053 c 0,0 -0.315,0.194 -0.482,0.194 -0.168,0 -0.271,-0.118 -0.271,-0.118 0,0 -0.1,0.027 -0.172,-0.02 -0.072,-0.047 -0.083,-0.091 -0.083,-0.091 0,0 0.055,0.024 0.16,0.024 0.105,0 0.164,-0.034 0.206,-0.061 0.101,-0.065 0.219,-0.828 0.032,-0.979 -0.146,-0.119 -0.707,-0.08 -0.837,0.076 -0.194,0.236 -0.057,0.42 -0.259,0.677 -0.245,0.312 -1.231,0.407 -2.045,0.574 -0.578,0.119 -1.006,0.247 -1.006,0.247 0,0 0.815,-1.032 1.932,-1.976 1.416,-1.196 2.111,-0.767 2.111,-0.767 0,0 0.106,-0.04 0.136,-0.1 0.027,-0.054 -0.057,-0.076 0.01,-0.194 0.079,-0.138 0.145,-0.284 0.157,-0.292 0.023,-0.016 0.378,0.088 0.388,0.112 0.01,0.023 -0.087,0.27 -0.079,0.376 0.008,0.106 0.157,0.053 0.157,0.053 0,0 0.041,-0.169 0.188,-0.333 0.147,-0.165 0.345,-0.13 0.383,-0.079 0.037,0.051 0.01,0.171 0.01,0.171"/><path id="path48" style="fill:#ffd90f;fill-opacity:1;fill-rule:nonzero;stroke:none" d="m 15.1528,21.5825 c 0,0 -0.152,-0.586 -0.672,-1.028 -0.546,-0.462 -1.036,-0.486 -1.036,-0.486 l -0.337,-0.608 c 0,0 0.796,-0.408 0.796,-1.302 0,-0.886 -0.678,-1.329 -0.678,-1.329 l 0,-4.275 c 0,0 -0.014,-0.231 0.088,-0.42 0.099,-0.181 0.292,-0.274 0.292,-0.274 l 4.394,-2.518 4.395,2.518 c 0,0 0.193,0.093 0.291,0.274 0.102,0.189 0.089,0.42 0.089,0.42 l 0,4.275 c 0,0 -0.679,0.443 -0.679,1.329 0,0.894 0.797,1.302 0.797,1.302 l -0.338,0.608 c 0,0 -0.49,0.024 -1.035,0.486 -0.521,0.442 -0.673,1.028 -0.673,1.028 l -5.694,0 z"/><path id="path49" style="fill:#002d72;fill-opacity:1;fill-rule:nonzero;stroke:none" d="m 13.959,14.1807 0,-1.681 4.041,-2.317 4.041,2.317 0,1.681 -8.082,0 z"/><path id="path50" style="fill:#197352;fill-opacity:1;fill-rule:nonzero;stroke:none" d="m 13.959,14.1807 0,1.985 0.597,0.25 0.489,-0.21 0.623,0.448 0.287,-0.044 0.98,0.279 0.295,0.012 0.353,0.387 0.593,0.315 1.01,-0.306 1.707,-1.279 0.735,0.321 0.413,-0.173 0,-1.985 -8.082,0 z"/><path id="path51" style="fill:#0077c8;fill-opacity:1;fill-rule:nonzero;stroke:none" d="m 13.959,16.166 0,0.369 c 0,0 0.676,0.595 0.676,1.606 0,0.812 -0.494,1.365 -0.494,1.365 0,0 0.442,0.155 0.841,0.504 0.491,0.427 0.651,0.839 0.651,0.839 l 2.367,0 2.366,0 c 0,0 0.161,-0.412 0.652,-0.839 0.4,-0.349 0.84,-0.504 0.84,-0.504 0,0 -0.494,-0.553 -0.494,-1.365 0,-1.011 0.677,-1.606 0.677,-1.606 l 0,-0.369 -0.413,0.173 -0.735,-0.321 -1.707,1.279 -1.01,0.306 -0.593,-0.315 -0.353,-0.388 -0.295,-0.011 -0.98,-0.28 -0.287,0.044 -0.623,-0.447 -0.489,0.21 -0.597,-0.25 z"/></g></g></g></g></svg>