<svg xmlns:dc="http://purl.org/dc/elements/1.1/" xmlns:cc="http://creativecommons.org/ns#" xmlns:rdf="http://www.w3.org/1999/02/22-rdf-syntax-ns#" xmlns:svg="http://www.w3.org/2000/svg" xmlns="http://www.w3.org/2000/svg" viewBox="0 0 45 45" style="enable-background:new 0 0 45 45;" xml:space="preserve" version="1.1" id="svg2"><metadata id="metadata8"><rdf:RDF><cc:Work rdf:about=""><dc:format>image/svg+xml</dc:format><dc:type rdf:resource="http://purl.org/dc/dcmitype/StillImage"/></cc:Work></rdf:RDF></metadata><defs id="defs6"><clipPath id="clipPath16" clipPathUnits="userSpaceOnUse"><path id="path18" d="M 4,31 C 1.791,31 0,29.209 0,27 L 0,27 0,9 C 0,6.791 1.791,5 4,5 l 0,0 28,0 c 2.209,0 4,1.791 4,4 l 0,0 0,18 c 0,2.209 -1.791,4 -4,4 l 0,0 -28,0 z"/></clipPath></defs><g transform="matrix(1.25,0,0,-1.25,0,45)" id="g10"><g id="g12"><g clip-path="url(#clipPath16)" id="g14"><g id="g20"><path id="path22" style="fill:#eeeeee;fill-opacity:1;fill-rule:nonzero;stroke:none" d="m 36.0002,5 h -36 v 26 h 36 z"/></g><g id="g24"><path id="path26" style="fill:#0000ff;fill-opacity:1;fill-rule:nonzero;stroke:none" d="M 36.0002,27.286 H 16.3192 V 31 h 19.681 z"/></g><g id="g28"><path id="path30" style="fill:#0000ff;fill-opacity:1;fill-rule:nonzero;stroke:none" d="m 36.0002,19.857 h -19.681 v 3.714 h 19.681 z"/></g><g id="g32"><path id="path34" style="fill:#0000ff;fill-opacity:1;fill-rule:nonzero;stroke:none" d="m 36.0002,12.429 h -36 v 3.714 h 36 z"/></g><g id="g36"><path id="path38" style="fill:#0000ff;fill-opacity:1;fill-rule:nonzero;stroke:none" d="m 36.0002,5 h -36 v 3.714 h 36 z"/></g><g id="g40"><path id="path42" style="fill:#ff0000;fill-opacity:1;fill-rule:nonzero;stroke:none" d="M 16.32,26.54 V 24.31 H 9.27 V 19.86 H 7.05 v 4.45 H 0 v 2.23 H 7.05 V 31 h 2.22 v -4.46 z"/></g><g id="g44"><path id="path46" style="fill:#ff0000;fill-opacity:1;fill-rule:nonzero;stroke:none" d="m 3.9138,21.8008 c 0,0 0.132,0 0.4,-0.031 0.268,-0.031 0.397,-0.061 0.397,-0.061 0,0 -0.025,0.151 -0.025,0.379 0,0.227 0.025,0.379 0.025,0.379 0,0 -0.129,-0.03 -0.397,-0.062 -0.268,-0.03 -0.4,-0.031 -0.4,-0.031 0,0 0,0.133 0.031,0.4 0.031,0.268 0.061,0.397 0.061,0.397 0,0 -0.151,-0.025 -0.379,-0.025 -0.227,0 -0.379,0.025 -0.379,0.025 0,0 0.03,-0.129 0.062,-0.397 0.03,-0.267 0.031,-0.4 0.031,-0.4 0,0 -0.133,0.001 -0.4,0.031 -0.268,0.032 -0.397,0.062 -0.397,0.062 0,0 0.025,-0.152 0.025,-0.379 0,-0.228 -0.025,-0.379 -0.025,-0.379 0,0 0.129,0.03 0.397,0.061 0.267,0.031 0.4,0.031 0.4,0.031 0,0 -0.001,-0.132 -0.031,-0.4 -0.032,-0.268 -0.062,-0.397 -0.062,-0.397 0,0 0.152,0.025 0.379,0.025 0.228,0 0.379,-0.025 0.379,-0.025 0,0 -0.03,0.129 -0.061,0.397 -0.031,0.268 -0.031,0.4 -0.031,0.4"/></g><g id="g48"><path id="path50" style="fill:#ff0000;fill-opacity:1;fill-rule:nonzero;stroke:none" d="m 12.6066,21.8008 c 0,0 -0.132,0 -0.4,-0.031 -0.268,-0.031 -0.397,-0.061 -0.397,-0.061 0,0 0.025,0.151 0.025,0.379 0,0.227 -0.025,0.379 -0.025,0.379 0,0 0.129,-0.03 0.397,-0.062 0.268,-0.03 0.4,-0.031 0.4,-0.031 0,0 0,0.133 -0.031,0.4 -0.031,0.268 -0.061,0.397 -0.061,0.397 0,0 0.151,-0.025 0.379,-0.025 0.227,0 0.379,0.025 0.379,0.025 0,0 -0.031,-0.129 -0.062,-0.397 -0.03,-0.267 -0.031,-0.4 -0.031,-0.4 0,0 0.133,0.001 0.4,0.031 0.268,0.031 0.397,0.062 0.397,0.062 0,0 -0.025,-0.152 -0.025,-0.379 0,-0.228 0.025,-0.379 0.025,-0.379 0,0 -0.129,0.03 -0.397,0.061 -0.267,0.031 -0.4,0.031 -0.4,0.031 0,0 10e-4,-0.132 0.031,-0.4 0.031,-0.268 0.062,-0.397 0.062,-0.397 0,0 -0.152,0.025 -0.379,0.025 -0.228,0 -0.379,-0.025 -0.379,-0.025 0,0 0.03,0.129 0.061,0.397 0.031,0.268 0.031,0.4 0.031,0.4"/></g><g id="g52"><path id="path54" style="fill:#ff0000;fill-opacity:1;fill-rule:nonzero;stroke:none" d="m 3.9138,29.0596 c 0,0 0.132,0 0.4,0.031 0.268,0.031 0.397,0.061 0.397,0.061 0,0 -0.025,-0.152 -0.025,-0.379 0,-0.227 0.025,-0.379 0.025,-0.379 0,0 -0.129,0.03 -0.397,0.061 -0.268,0.031 -0.4,0.031 -0.4,0.031 0,0 0,-0.132 0.031,-0.4 0.031,-0.267 0.061,-0.397 0.061,-0.397 0,0 -0.151,0.025 -0.379,0.025 -0.227,0 -0.379,-0.025 -0.379,-0.025 0,0 0.03,0.13 0.062,0.397 0.03,0.268 0.031,0.4 0.031,0.4 0,0 -0.133,0 -0.4,-0.031 -0.268,-0.031 -0.397,-0.061 -0.397,-0.061 0,0 0.025,0.152 0.025,0.379 0,0.227 -0.025,0.379 -0.025,0.379 0,0 0.129,-0.03 0.397,-0.061 0.267,-0.031 0.4,-0.031 0.4,-0.031 0,0 -0.001,0.132 -0.031,0.4 -0.032,0.267 -0.062,0.397 -0.062,0.397 0,0 0.152,-0.026 0.379,-0.026 0.228,0 0.379,0.026 0.379,0.026 0,0 -0.03,-0.13 -0.061,-0.397 -0.031,-0.268 -0.031,-0.4 -0.031,-0.4"/></g><g id="g56"><path id="path58" style="fill:#ff0000;fill-opacity:1;fill-rule:nonzero;stroke:none" d="m 12.6066,29.0596 c 0,0 -0.132,0 -0.4,0.031 -0.268,0.031 -0.397,0.061 -0.397,0.061 0,0 0.025,-0.152 0.025,-0.379 0,-0.227 -0.025,-0.379 -0.025,-0.379 0,0 0.129,0.03 0.397,0.061 0.268,0.031 0.4,0.031 0.4,0.031 0,0 0,-0.132 -0.031,-0.4 -0.031,-0.267 -0.061,-0.397 -0.061,-0.397 0,0 0.151,0.025 0.379,0.025 0.227,0 0.379,-0.025 0.379,-0.025 0,0 -0.031,0.13 -0.062,0.397 -0.03,0.268 -0.031,0.4 -0.031,0.4 0,0 0.133,0 0.4,-0.031 0.268,-0.031 0.397,-0.061 0.397,-0.061 0,0 -0.025,0.152 -0.025,0.379 0,0.227 0.025,0.379 0.025,0.379 0,0 -0.129,-0.03 -0.397,-0.061 -0.267,-0.031 -0.4,-0.031 -0.4,-0.031 0,0 10e-4,0.132 0.031,0.4 0.031,0.267 0.062,0.397 0.062,0.397 0,0 -0.152,-0.026 -0.379,-0.026 -0.228,0 -0.379,0.026 -0.379,0.026 0,0 0.03,-0.13 0.061,-0.397 0.031,-0.268 0.031,-0.4 0.031,-0.4"/></g></g></g></g></svg>