<svg xmlns:dc="http://purl.org/dc/elements/1.1/" xmlns:cc="http://creativecommons.org/ns#" xmlns:rdf="http://www.w3.org/1999/02/22-rdf-syntax-ns#" xmlns:svg="http://www.w3.org/2000/svg" xmlns="http://www.w3.org/2000/svg" viewBox="0 0 45 45" style="enable-background:new 0 0 45 45;" xml:space="preserve" version="1.1" id="svg2"><metadata id="metadata8"><rdf:RDF><cc:Work rdf:about=""><dc:format>image/svg+xml</dc:format><dc:type rdf:resource="http://purl.org/dc/dcmitype/StillImage"/></cc:Work></rdf:RDF></metadata><defs id="defs6"><clipPath id="clipPath16" clipPathUnits="userSpaceOnUse"><path id="path18" d="M 4,31 C 1.791,31 0,29.209 0,27 L 0,27 0,9 C 0,6.791 1.791,5 4,5 l 0,0 28,0 c 2.209,0 4,1.791 4,4 l 0,0 0,18 c 0,2.209 -1.791,4 -4,4 l 0,0 -28,0 z"/></clipPath></defs><g transform="matrix(1.25,0,0,-1.25,0,45)" id="g10"><g id="g12"><g xmlns="http://www.w3.org/2000/svg" clip-path="url(#clipPath16)" id="g14"><g id="g30"><path id="path20" style="fill:#fad20d;fill-opacity:1;fill-rule:nonzero;stroke:none" d="M 0,5 H 36 V 31 H 0 Z"/><path id="path21" style="fill:#66abef;fill-opacity:1;fill-rule:nonzero;stroke:none" d="m 0,13.667 h 36 v 8.667 H 0 Z"/></g><g id="g34"><path id="path23" style="fill:#009a00;fill-opacity:1;fill-rule:nonzero;stroke:none" d="m 31.541,13.667 c 0,0 -0.414,0.452 -0.847,0.897 -0.354,0.366 -0.723,0.736 -0.841,0.806 -0.359,0.218 -1.757,0.645 -3.265,1.054 -1.061,0.287 -1.812,0.411 -2.935,0.729 -0.811,0.229 -1.295,0.306 -1.295,0.306 0,0 -1.554,0.14 -2.858,0.259 -0.675,0.061 -1.193,0.141 -1.583,0.141 -1.023,0 -1.994,-0.114 -3.5,-0.271 -1.421,-0.147 -2.229,-0.23 -3.035,-0.23 -0.529,0 -1.445,0.223 -2.594,0.507 C 7.029,18.3 6.6,18.724 5.453,18.724 4.347,18.724 1.42,17.956 0.888,17.809 0.211,17.622 0,17.653 0,17.653 v -3.986 z"/><path id="path24" style="fill:#73510c;fill-opacity:1;fill-rule:nonzero;stroke:none" d="m 12.7813,14.4785 c 0,0 0.023,0.248 0.322,0.561 0.201,0.21 0.538,0.792 0.684,1.19 0.102,0.276 0.245,0.844 0.282,1.128 0.068,0.547 0.143,1.782 0.143,1.782 l 0.272,-0.058 0.128,-0.123 c 0,0 0.018,-1.452 0.055,-2.32 0.039,-0.882 0.144,-1.001 0.364,-1.419 0.22,-0.418 0.384,-0.638 0.384,-0.638 0,0 -0.032,-0.014 -0.082,-0.029 -0.051,-0.013 -0.085,-0.018 -0.085,-0.018 v -0.081 c 0,0 -0.175,0.09 -0.338,0.09 -0.162,0 -0.41,-0.301 -0.459,-0.301 -0.062,0 -0.291,0.277 -0.365,0.307 -0.056,0.024 -0.257,0.042 -0.327,-0.01 -0.081,-0.061 -0.12,-0.19 -0.203,-0.19 -0.083,0 -0.142,0.236 -0.301,0.236 -0.104,0 -0.254,-0.065 -0.358,-0.095 -0.079,-0.023 -0.116,-0.012 -0.116,-0.012"/><path id="path25" style="fill:#009a00;fill-opacity:1;fill-rule:nonzero;stroke:none" d="m 15.2021,17.7002 c 0,0 -0.287,0.893 -0.538,1.206 -0.156,0.196 -0.35,0.045 -0.35,0.045 0,0 -0.051,0.051 -0.193,0.402 -0.062,0.155 -0.178,0.261 -0.27,0.249 -0.093,-0.012 -0.118,-0.16 -0.102,-0.359 0.055,-0.676 -0.033,-0.763 -0.033,-0.763 0,0 -0.081,0.118 -0.24,0.649 -0.114,0.382 -0.098,0.567 -0.098,0.567 0,0 0.01,0.061 -0.047,0.076 -0.057,0.016 -0.083,-0.022 -0.157,-0.396 -0.078,-0.398 -0.078,-0.549 -0.078,-0.549 0,0 -0.071,0.283 -0.051,0.561 0.02,0.278 0.072,0.371 -0.004,0.398 -0.074,0.028 -0.126,-0.127 -0.271,-0.635 -0.166,-0.586 -0.129,-0.853 -0.129,-0.853 0,0 -0.308,0.239 -0.317,0.773 -0.01,0.5 0.076,0.566 0.076,0.566 0,0 0.043,0.049 0.011,0.09 -0.014,0.019 -0.062,0.041 -0.148,-0.014 -0.067,-0.042 -0.144,-0.056 -0.144,-0.056 0,0 0.03,0.129 0.051,0.298 0.032,0.245 0.122,0.308 0.122,0.308 0,0 0.067,-0.004 0.063,0.053 -0.004,0.056 -0.048,0.06 -0.139,0.052 -0.093,-0.007 -0.132,-0.019 -0.132,-0.019 0,0 0.047,0.133 0.145,0.276 0.098,0.143 0.093,0.197 0.433,0.242 0.342,0.044 0.285,0.066 0.626,0.362 0.341,0.296 0.42,0.412 0.563,0.412 0.143,0 0.551,-0.092 0.761,-0.092 0.239,0 0.527,0.386 0.735,0.386 0.176,0 0.508,-0.19 0.843,-0.723 0.144,-0.23 0.197,-0.38 0.237,-0.492 0.059,-0.166 0.085,-0.214 0.085,-0.214 0,0 -0.01,-0.01 -0.095,-0.004 -0.084,0.006 -0.113,-0.043 -0.113,-0.077 0,-0.033 0.02,-0.068 0.02,-0.092 0,-0.043 -0.079,-0.129 -0.079,-0.129 0,0 -0.396,0.425 -0.626,0.51 -0.236,0.087 -0.482,0.033 -0.482,-0.063 0,-0.044 0.054,-0.071 0.145,-0.151 0.071,-0.063 0.159,-0.161 0.291,-0.304 0.274,-0.298 0.288,-0.516 0.288,-0.769 0,-0.302 -0.057,-0.419 -0.057,-0.419 0,0 -0.194,0.55 -0.383,0.745 -0.188,0.194 -0.355,0.2 -0.409,0.155 -0.067,-0.055 -0.077,-0.591 0.011,-0.924 0.098,-0.37 0.312,-0.6 0.312,-0.812 0,-0.284 -0.133,-0.472 -0.133,-0.472"/><path id="path26" style="fill:#ffffff;fill-opacity:1;fill-rule:nonzero;stroke:none" d="m 21.0186,17.9268 h -1.362 l -0.561,-2.964 c 0,0 0.146,-0.175 1.21,-0.175 1.16,0 1.226,0.137 1.226,0.137 z"/><path id="path27" style="fill:#ffffff;fill-opacity:1;fill-rule:nonzero;stroke:none" d="m 19.873,18.542 0.375,0.586 0.5,-0.576 c 0,0 -0.128,-0.035 -0.392,-0.035 -0.351,0 -0.483,0.025 -0.483,0.025"/><path id="path28" style="fill:#ffffff;fill-opacity:1;fill-rule:nonzero;stroke:none" d="m 18.7705,17.5264 -1.744,-0.687 c 0,0 -0.141,-0.006 -0.18,0.062 -0.03,0.054 0.021,0.124 0.021,0.124 l 1.839,0.543 z"/><path id="path29" style="fill:#ffffff;fill-opacity:1;fill-rule:nonzero;stroke:none" d="m 18.3389,17.7734 -1.453,-0.456 c 0,0 -0.142,0.013 -0.169,0.073 -0.026,0.061 0.041,0.13 0.041,0.13 l 1.445,0.274 z"/><path id="path30" style="fill:#ffffff;fill-opacity:1;fill-rule:nonzero;stroke:none" d="m 17.5137,18.1172 h -0.714 c 0,0 -0.031,0.033 -0.031,0.07 0,0.038 0.042,0.041 0.042,0.041 z"/><path id="path31" style="fill:#ffffff;fill-opacity:1;fill-rule:nonzero;stroke:none" d="m 16.7827,18.6079 c 0,0 -0.031,0.056 -0.014,0.117 0.017,0.06 0.062,0.1 0.062,0.1 l 1.838,-0.581 0.021,0.183 -1.763,0.66 c 0,0 -0.018,0.062 0.008,0.129 0.018,0.05 0.076,0.075 0.076,0.075 l 1.679,-0.752 v 0.163 l -1.531,0.806 c 0,0 -0.007,0.081 0.032,0.143 0.039,0.063 0.119,0.077 0.119,0.077 l 1.641,-1.058 c 0,0 0.067,-0.095 0,-0.295 -0.053,-0.164 -0.154,-0.251 -0.154,-0.251 z"/><path id="path32" style="fill:#ffffff;fill-opacity:1;fill-rule:nonzero;stroke:none" d="m 22.0957,17.2158 1.479,-0.909 c 0,0 0.069,0.024 0.108,0.097 0.039,0.071 0.025,0.176 0.025,0.176 l -1.573,0.715 z"/><path id="path33" style="fill:#ffffff;fill-opacity:1;fill-rule:nonzero;stroke:none" d="m 22.6924,17.1904 1.784,-0.758 c 0,0 0.075,0.024 0.112,0.105 0.039,0.082 0.018,0.171 0.018,0.171 l -1.831,0.542 z"/><path id="path34" style="fill:#ffffff;fill-opacity:1;fill-rule:nonzero;stroke:none" d="m 22.459,17.6953 0.013,-0.073 2.955,0.146 c 0,0 0.034,0.014 0.034,0.099 0,0.084 -0.045,0.161 -0.045,0.161 z"/><path id="path35" style="fill:#ffffff;fill-opacity:1;fill-rule:nonzero;stroke:none" d="m 22.0313,17.9858 0.028,-0.083 3.008,0.42 c 0,0 0.056,0.066 0.052,0.13 -0.007,0.091 -0.078,0.149 -0.078,0.149 z"/><path id="path36" style="fill:#ffffff;fill-opacity:1;fill-rule:nonzero;stroke:none" d="m 21.875,18.3999 v -0.111 l 3.197,0.825 c 0,0 0.012,0.067 -0.012,0.152 -0.026,0.084 -0.07,0.126 -0.07,0.126 z"/><path id="path37" style="fill:#ffffff;fill-opacity:1;fill-rule:nonzero;stroke:none" d="m 21.7402,18.7686 0.038,-0.08 2.938,0.978 c 0,0 0.021,0.065 -0.019,0.144 -0.041,0.08 -0.121,0.13 -0.121,0.13 z"/><path id="path38" style="fill:#ffffff;fill-opacity:1;fill-rule:nonzero;stroke:none" d="m 23.6299,17.4033 v -0.081 l 1.481,-0.393 c 0,0 0.069,-0.005 0.081,0.094 0.013,0.099 -0.015,0.154 -0.015,0.154 z"/><path id="path39" style="fill:#ffffff;fill-opacity:1;fill-rule:nonzero;stroke:none" d="m 24.6357,17.4795 v -0.063 l 0.562,-0.112 c 0,0 0.029,0.034 0.029,0.099 0,0.063 -0.029,0.107 -0.029,0.107 z"/></g><g id="g38"><path id="path40" style="fill:#bf0a30;fill-opacity:1;fill-rule:nonzero;stroke:none" d="m 0,22.333 h 12 v 0.82 H 0 Z"/><path id="path41" style="fill:#eeeeee;fill-opacity:1;fill-rule:nonzero;stroke:none" d="m 0,23.154 h 12 v 0.723 H 0 Z"/><path id="path42" style="fill:#bf0a30;fill-opacity:1;fill-rule:nonzero;stroke:none" d="M 0,23.876 H 12 V 24.73 H 0 Z"/><path id="path43" style="fill:#eeeeee;fill-opacity:1;fill-rule:nonzero;stroke:none" d="m 0,24.729 h 12 v 0.723 H 0 Z"/><path id="path44" style="fill:#bf0a30;fill-opacity:1;fill-rule:nonzero;stroke:none" d="m 0,25.452 h 12 v 0.854 H 0 Z"/><path id="path45" style="fill:#eeeeee;fill-opacity:1;fill-rule:nonzero;stroke:none" d="m 0,27.0278 v -0.028 -0.694 h 12 v 0.722 H 4 Z"/><path id="path46" style="fill:#bf0a30;fill-opacity:1;fill-rule:nonzero;stroke:none" d="m 4,27.028 h 8 v 0.854 H 4 Z"/><path id="path47" style="fill:#eeeeee;fill-opacity:1;fill-rule:nonzero;stroke:none" d="m 4,27.881 h 8 v 0.722 H 4 Z"/><path id="path48" style="fill:#bf0a30;fill-opacity:1;fill-rule:nonzero;stroke:none" d="m 4,28.604 h 8 v 0.854 H 4 Z"/><path id="path49" style="fill:#eeeeee;fill-opacity:1;fill-rule:nonzero;stroke:none" d="m 4,29.457 h 8 v 0.722 H 4 Z"/><path id="path50" style="fill:#bf0a30;fill-opacity:1;fill-rule:nonzero;stroke:none" d="m 4,30.179 h 8 V 31 H 4 Z"/><path id="path51" style="fill:#002868;fill-opacity:1;fill-rule:nonzero;stroke:none" d="m 2,28.4375 -0.693,-0.503 0.265,0.814 -0.693,0.503 H 1.735 L 2,30.0665 2.265,29.2515 h 0.856 l -0.693,-0.503 0.265,-0.814 z m 2,-0.556 v 0.722 0.854 0.722 0.821 H 0 v -3.973 h 4 z"/><path id="path52" style="fill:#ffffff;fill-opacity:1;fill-rule:nonzero;stroke:none" d="m 3.1206,29.2515 h -0.856 l -0.265,0.814 -0.264,-0.814 h -0.856 l 0.692,-0.503 -0.264,-0.814 0.692,0.503 0.693,-0.503 -0.264,0.814 z"/></g></g></g></g></svg>