<svg xmlns:dc="http://purl.org/dc/elements/1.1/" xmlns:cc="http://creativecommons.org/ns#" xmlns:rdf="http://www.w3.org/1999/02/22-rdf-syntax-ns#" xmlns:svg="http://www.w3.org/2000/svg" xmlns="http://www.w3.org/2000/svg" viewBox="0 0 45 45" style="enable-background:new 0 0 45 45;" xml:space="preserve" version="1.1" id="svg2"><metadata id="metadata8"><rdf:RDF><cc:Work rdf:about=""><dc:format>image/svg+xml</dc:format><dc:type rdf:resource="http://purl.org/dc/dcmitype/StillImage"/></cc:Work></rdf:RDF></metadata><defs id="defs6"><clipPath id="clipPath16" clipPathUnits="userSpaceOnUse"><path id="path18" d="M 4,31 C 1.791,31 0,29.209 0,27 L 0,27 0,9 C 0,6.791 1.791,5 4,5 l 0,0 28,0 c 2.209,0 4,1.791 4,4 l 0,0 0,18 c 0,2.209 -1.791,4 -4,4 l 0,0 -28,0 z"/></clipPath></defs><g transform="matrix(1.25,0,0,-1.25,0,45)" id="g10"><g id="g12"><g xmlns="http://www.w3.org/2000/svg" clip-path="url(#clipPath16)" id="g14"><g id="g30"><path id="path20" style="fill:#c71d77;fill-opacity:1;fill-rule:nonzero;stroke:none" d="M 0,5 H 36 V 18 H 0 Z"/></g><g id="g32"><path id="path30" style="fill:#eeeeee;fill-opacity:1;fill-rule:nonzero;stroke:none" d="M 0,18 H 36 V 31 H 0 Z"/></g><g id="g34"><path id="path40" style="fill:#c71d77;fill-opacity:1;fill-rule:nonzero;stroke:none" d="m 14.6377,24.5005 c 0,2.996 -2.428,5.424 -5.424,5.424 -2.995,0 -5.424,-2.428 -5.424,-5.424 0,-2.995 2.429,-5.424 5.424,-5.424 2.996,0 5.424,2.429 5.424,5.424"/><path id="path41" style="fill:#eeeeee;fill-opacity:1;fill-rule:nonzero;stroke:none" d="m 14.1064,24.5005 c 0,2.702 -2.19,4.893 -4.893,4.893 -2.702,0 -4.892,-2.191 -4.892,-4.893 0,-2.702 2.19,-4.893 4.892,-4.893 2.703,0 4.893,2.191 4.893,4.893"/><path id="path42" style="fill:#c71d77;fill-opacity:1;fill-rule:nonzero;stroke:none" d="m 13.644,21.5391 c 0,0 -1.295,2.513 -3.398,4.536 -2.045,1.968 -4.034,2.837 -4.034,2.837 l 0.113,0.126 c 0,0 1.929,-0.719 4.327,-2.784 2.146,-1.848 3.374,-4.176 3.374,-4.176 z"/><path id="path43" style="fill:#c71d77;fill-opacity:1;fill-rule:nonzero;stroke:none" d="m 13.2559,20.9937 c 0,0 -1.089,2.784 -3.298,5.06 -2.145,2.21 -3.849,2.858 -3.849,2.858 l -0.125,-0.126 c 0,0 1.731,-0.682 3.737,-3.021 1.947,-2.27 3.094,-5.261 3.094,-5.261 z"/><path id="path44" style="fill:#c71d77;fill-opacity:1;fill-rule:nonzero;stroke:none" d="m 12.165,20.2373 c -0.244,0.835 -1.063,3.347 -2.634,5.415 -1.801,2.371 -3.589,3.112 -3.589,3.112 l -0.128,-0.117 c 0,0 1.913,-0.909 3.482,-3.302 1.343,-2.047 2.119,-4.601 2.345,-5.415 z"/><path id="path45" style="fill:#c71d77;fill-opacity:1;fill-rule:nonzero;stroke:none" d="m 4.7837,21.5391 c 0,0 1.295,2.513 3.398,4.536 2.045,1.968 4.034,2.837 4.034,2.837 l -0.113,0.126 c 0,0 -1.928,-0.719 -4.327,-2.784 -2.146,-1.848 -3.374,-4.176 -3.374,-4.176 z"/><path id="path46" style="fill:#c71d77;fill-opacity:1;fill-rule:nonzero;stroke:none" d="m 5.1719,20.9937 c 0,0 1.09,2.784 3.298,5.06 2.145,2.21 3.85,2.858 3.85,2.858 l 0.124,-0.126 c 0,0 -1.731,-0.682 -3.737,-3.021 -1.947,-2.27 -3.094,-5.261 -3.094,-5.261 z"/><path id="path47" style="fill:#c71d77;fill-opacity:1;fill-rule:nonzero;stroke:none" d="m 6.2471,20.1831 c 0.223,0.776 1.044,3.354 2.65,5.469 1.801,2.371 3.589,3.113 3.589,3.113 l 0.128,-0.118 c 0,0 -1.913,-0.909 -3.482,-3.301 -1.349,-2.057 -2.126,-4.623 -2.348,-5.425 z"/></g></g></g></g></svg>