<svg xmlns:dc="http://purl.org/dc/elements/1.1/" xmlns:cc="http://creativecommons.org/ns#" xmlns:rdf="http://www.w3.org/1999/02/22-rdf-syntax-ns#" xmlns:svg="http://www.w3.org/2000/svg" xmlns="http://www.w3.org/2000/svg" viewBox="0 0 45 45" style="enable-background:new 0 0 45 45;" xml:space="preserve" version="1.1" id="svg2"><metadata id="metadata8"><rdf:RDF><cc:Work rdf:about=""><dc:format>image/svg+xml</dc:format><dc:type rdf:resource="http://purl.org/dc/dcmitype/StillImage"/></cc:Work></rdf:RDF></metadata><defs id="defs6"><clipPath id="clipPath16" clipPathUnits="userSpaceOnUse"><path id="path18" d="M 4,31 C 1.791,31 0,29.209 0,27 L 0,27 0,9 C 0,6.791 1.791,5 4,5 l 0,0 28,0 c 2.209,0 4,1.791 4,4 l 0,0 0,18 c 0,2.209 -1.791,4 -4,4 l 0,0 -28,0 z"/></clipPath></defs><g transform="matrix(1.25,0,0,-1.25,0,45)" id="g10"><g id="g12"><g xmlns="http://www.w3.org/2000/svg" clip-path="url(#clipPath16)" id="g14"><path id="path20" style="fill:#eeeeee;fill-opacity:1;fill-rule:nonzero;stroke:none" d="m 36,5.0004 -36,0 0,26 36,0 0,-26 z"/><g id="g30" transform="translate(0,31.0004)"><path id="path21" style="fill:#001c5a;fill-opacity:1;fill-rule:nonzero;stroke:none" d="M 0,0 0,-25.999 22.139,-13 0,0 z"/></g><g id="g31" transform="translate(11.7285,18.0004)"><path id="path22" style="fill:#eeeeee;fill-opacity:1;fill-rule:nonzero;stroke:none" d="m 0,0 c 0,-2.415 -1.958,-4.373 -4.373,-4.373 -2.416,0 -4.374,1.958 -4.374,4.373 0,2.416 1.958,4.374 4.374,4.374 C -1.958,4.374 0,2.416 0,0"/></g><g id="g32" transform="translate(10.2734,18.0004)"><path id="path23" style="fill:#c1133d;fill-opacity:1;fill-rule:nonzero;stroke:none" d="m 0,0 c 0,-1.611 -1.307,-2.918 -2.918,-2.918 -1.612,0 -2.918,1.307 -2.918,2.918 0,1.611 1.306,2.918 2.918,2.918 C -1.307,2.918 0,1.611 0,0"/></g><g id="g33" transform="translate(7.9658,11.9174)"><path id="path24" style="fill:#ffffff;fill-opacity:1;fill-rule:nonzero;stroke:none" d="M 0,0 -0.525,0.418 -0.29,1.046 -0.85,0.676 -1.374,1.093 -1.195,0.447 -1.754,0.077 -1.084,0.048 -0.905,-0.599 -0.67,0.029 0,0 z"/></g><g id="g34" transform="translate(7.2959,24.0541)"><path id="path25" style="fill:#ffffff;fill-opacity:1;fill-rule:nonzero;stroke:none" d="m 0,0 -0.235,0.628 -0.179,-0.646 -0.67,-0.029 0.559,-0.37 -0.179,-0.647 0.524,0.418 L 0.38,-1.017 0.145,-0.388 0.67,0.029 0,0 z"/></g><g id="g35" transform="translate(1.6484,20.1928)"><path id="path26" style="fill:#ffffff;fill-opacity:1;fill-rule:nonzero;stroke:none" d="M 0,0 0.609,0.281 1.064,-0.211 0.986,0.455 1.595,0.735 0.937,0.866 0.858,1.532 0.53,0.947 -0.127,1.078 0.328,0.585 0,0 z"/></g><g id="g36" transform="translate(1.3042,17.1313)"><path id="path27" style="fill:#ffffff;fill-opacity:1;fill-rule:nonzero;stroke:none" d="M 0,0 0.395,0.542 1.032,0.335 0.639,0.877 1.033,1.419 0.396,1.213 0.001,1.756 0.001,1.085 -0.637,0.879 0,0.671 0,0 z"/></g><g id="g37" transform="translate(13.4116,17.8022)"><path id="path28" style="fill:#ffffff;fill-opacity:1;fill-rule:nonzero;stroke:none" d="M 0,0 0.637,0.208 0,0.415 -0.001,1.085 -0.395,0.542 -1.033,0.749 -0.638,0.207 -1.032,-0.336 -0.394,-0.128 0,-0.671 0,0 z"/></g><g id="g38" transform="translate(19.2393,17.8022)"><path id="path29" style="fill:#ffffff;fill-opacity:1;fill-rule:nonzero;stroke:none" d="m 0,0 0.638,0.208 -0.639,0.207 0,0.67 -0.394,-0.543 -0.638,0.207 0.395,-0.542 -0.394,-0.543 0.637,0.208 L 0.001,-0.671 0,0 z"/></g><g id="g39" transform="translate(16.2363,19.3344)"><path id="path30" style="fill:#ffffff;fill-opacity:1;fill-rule:nonzero;stroke:none" d="M 0,0 0.592,0.315 -0.073,0.408 -0.19,1.068 -0.483,0.465 -1.147,0.558 -0.665,0.093 -0.958,-0.51 -0.366,-0.195 0.117,-0.66 0,0 z"/></g><g id="g40" transform="translate(16.1641,16.2768)"><path id="path31" style="fill:#ffffff;fill-opacity:1;fill-rule:nonzero;stroke:none" d="M 0,0 0.664,0.094 0.072,0.408 0.187,1.068 -0.294,0.603 -0.887,0.916 -0.592,0.313 -1.074,-0.152 -0.41,-0.059 -0.116,-0.661 0,0 z"/></g><g id="g41" transform="translate(2.4961,14.2914)"><path id="path32" style="fill:#ffffff;fill-opacity:1;fill-rule:nonzero;stroke:none" d="M 0,0 0.08,0.665 0.738,0.795 0.13,1.077 0.21,1.742 -0.246,1.251 -0.854,1.533 -0.528,0.947 -0.984,0.456 -0.327,0.585 0,0 z"/></g><g id="g42" transform="translate(4.9219,12.392)"><path id="path33" style="fill:#ffffff;fill-opacity:1;fill-rule:nonzero;stroke:none" d="M 0,0 -0.255,0.621 0.257,1.055 -0.412,1.004 -0.667,1.624 -0.825,0.973 -1.494,0.923 -0.923,0.57 -1.082,-0.081 -0.571,0.353 0,0 z"/></g><g id="g43" transform="translate(10.2554,23.3144)"><path id="path34" style="fill:#ffffff;fill-opacity:1;fill-rule:nonzero;stroke:none" d="m 0,0 0.101,0.663 -0.471,-0.477 -0.6,0.301 0.308,-0.595 -0.471,-0.477 0.661,0.108 0.308,-0.596 0.102,0.663 0.661,0.109 L 0,0 z"/></g><g id="g44" transform="translate(10.8545,12.9877)"><path id="path35" style="fill:#ffffff;fill-opacity:1;fill-rule:nonzero;stroke:none" d="m 0,0 -0.662,0.108 -0.101,0.663 -0.308,-0.595 -0.661,0.108 0.471,-0.476 -0.308,-0.597 0.599,0.302 0.472,-0.477 -0.101,0.662 L 0,0 z"/></g><g id="g45" transform="translate(4.3511,23.2563)"><path id="path36" style="fill:#ffffff;fill-opacity:1;fill-rule:nonzero;stroke:none" d="m 0,0 -0.511,0.434 0.158,-0.652 -0.57,-0.352 0.669,-0.051 0.158,-0.651 0.255,0.621 L 0.828,-0.702 0.316,-0.268 0.571,0.353 0,0 z"/></g><g id="g46" transform="translate(1.5703,24.8739)"><path id="path37" style="fill:#ffffff;fill-opacity:1;fill-rule:nonzero;stroke:none" d="m 0,0 -0.577,0.341 0.266,-0.615 -0.502,-0.444 0.667,0.063 0.267,-0.615 0.146,0.654 0.667,0.064 L 0.357,-0.211 0.503,0.443 0,0 z"/></g><g id="g47" transform="translate(4.1802,26.4013)"><path id="path38" style="fill:#ffffff;fill-opacity:1;fill-rule:nonzero;stroke:none" d="m 0,0 -0.431,0.514 0.047,-0.669 -0.622,-0.252 0.651,-0.162 0.047,-0.669 0.355,0.569 L 0.698,-0.831 0.267,-0.317 0.622,0.251 0,0 z"/></g><g id="g48" transform="translate(2.0737,10.683)"><path id="path39" style="fill:#ffffff;fill-opacity:1;fill-rule:nonzero;stroke:none" d="M 0,0 -0.146,0.655 0.431,0.996 -0.237,1.06 -0.383,1.714 -0.649,1.099 -1.317,1.162 -0.814,0.718 -1.081,0.103 -0.503,0.444 0,0 z"/></g><g id="g49" transform="translate(4.8018,9.3481)"><path id="path40" style="fill:#ffffff;fill-opacity:1;fill-rule:nonzero;stroke:none" d="M 0,0 -0.355,0.569 0.076,1.082 -0.575,0.92 -0.93,1.489 -0.977,0.82 -1.627,0.658 -1.006,0.407 -1.053,-0.262 -0.622,0.251 0,0 z"/></g><g id="g50" transform="translate(7.2651,9.267)"><path id="path41" style="fill:#c1133d;fill-opacity:1;fill-rule:nonzero;stroke:none" d="m 0,0 -7.265,-4.267 36,4.883 L 25.799,3.488 0,0 z"/></g><g id="g51" transform="translate(22.1387,18.0004)"><path id="path42" style="fill:#c1133d;fill-opacity:1;fill-rule:nonzero;stroke:none" d="M 0,0 -2.793,-1.64 7.217,-1.615 5.565,0 7.217,1.616 -2.793,1.64 0,0 z"/></g><g id="g52" transform="translate(7.2651,26.7343)"><path id="path43" style="fill:#c1133d;fill-opacity:1;fill-rule:nonzero;stroke:none" d="m 0,0 -7.265,4.266 36,-4.882 L 25.799,-3.489 0,0 z"/></g></g></g></g></svg>