<svg xmlns:dc="http://purl.org/dc/elements/1.1/" xmlns:cc="http://creativecommons.org/ns#" xmlns:rdf="http://www.w3.org/1999/02/22-rdf-syntax-ns#" xmlns:svg="http://www.w3.org/2000/svg" xmlns="http://www.w3.org/2000/svg" viewBox="0 0 45 45" style="enable-background:new 0 0 45 45;" xml:space="preserve" version="1.1" id="svg2"><metadata id="metadata8"><rdf:RDF><cc:Work rdf:about=""><dc:format>image/svg+xml</dc:format><dc:type rdf:resource="http://purl.org/dc/dcmitype/StillImage"/></cc:Work></rdf:RDF></metadata><defs id="defs6"><clipPath id="clipPath16" clipPathUnits="userSpaceOnUse"><path id="path18" d="M 0,36 36,36 36,0 0,0 0,36 Z"/></clipPath></defs><g transform="matrix(1.25,0,0,-1.25,0,45)" id="g10"><g id="g12"><g clip-path="url(#clipPath16)" id="g14"><g id="g20"><path id="path22" style="fill:#eeeeee;fill-opacity:1;fill-rule:nonzero;stroke:none" d="m 36,27 c 0,2.21 -1.79,4 -4,4 H 4 C 1.79,31 0,29.21 0,27 V 9 C 0,6.79 1.79,5 4,5 h 28 c 2.21,0 4,1.79 4,4 z"/></g><g id="g24"><path id="path26" style="fill:#ce1029;fill-opacity:1;fill-rule:nonzero;stroke:none" d="m 18.1001,12.123 c -0.854,0 -1.228,-0.225 -1.228,-0.225 0,0 -0.013,-0.049 -0.001,-0.11 0.014,-0.077 0.051,-0.174 0.003,-0.224 -0.084,-0.087 -0.543,0.047 -0.543,0.047 0,0 -0.14,0.098 -0.402,0.159 -0.167,0.041 -0.323,0.055 -0.676,0.055 -0.543,0 -1.614,-0.176 -1.614,-0.176 0,0 -0.323,-0.017 -0.604,0.098 -0.28,0.115 -0.333,0.442 -0.333,0.442 0,0 0.284,-0.205 0.729,-0.205 0.555,0 0.916,0.177 1.57,0.177 0.559,0 0.937,-0.095 1.281,-0.157 0.215,-0.039 0.335,-0.057 0.335,-0.057 0,0 -0.03,0.086 -0.03,0.144 0,0.025 -0.003,0.195 0.266,0.244 0.287,0.053 1.01,0.031 1.247,0.031 0.237,0 0.96,0.022 1.247,-0.031 0.268,-0.049 0.265,-0.219 0.265,-0.244 0,-0.058 -0.029,-0.144 -0.029,-0.144 0,0 0.12,0.018 0.335,0.057 0.344,0.062 0.722,0.157 1.28,0.157 0.654,0 1.016,-0.177 1.57,-0.177 0.446,0 0.73,0.205 0.73,0.205 0,0 -0.053,-0.327 -0.333,-0.442 -0.28,-0.115 -0.605,-0.098 -0.605,-0.098 0,0 -1.07,0.176 -1.613,0.176 -0.353,0 -0.51,-0.014 -0.677,-0.055 -0.261,-0.061 -0.402,-0.159 -0.402,-0.159 0,0 -0.458,-0.134 -0.543,-0.047 -0.047,0.05 -0.011,0.147 0.004,0.224 0.012,0.061 -0.002,0.11 -0.002,0.11 0,0 -0.374,0.225 -1.227,0.225"/></g><g id="g28"><path id="path30" style="fill:#0000ad;fill-opacity:1;fill-rule:nonzero;stroke:none" d="m 18.0649,12.8799 c -0.254,0 -0.652,0.024 -1.064,-0.002 -0.526,-0.032 -0.435,-0.201 -0.48,-0.267 -0.041,-0.059 -0.194,-0.173 -0.449,-0.173 -0.269,0 -0.509,0.088 -1.25,0.088 -0.382,0 -0.908,-0.053 -1.347,-0.14 -0.461,-0.091 -0.564,-0.039 -0.623,0.083 -0.059,0.122 -0.013,0.389 -0.013,0.389 0,0 0.069,-0.259 0.274,-0.259 0.233,0 0.714,0.262 1.708,0.262 0.389,0 0.754,-0.053 1.014,-0.072 0.405,-0.028 0.601,-0.026 0.601,-0.026 0,0 -0.034,0.193 0.057,0.333 0.036,0.055 0.102,0.15 0.353,0.178 0.378,0.042 0.644,0 1.219,0 0.575,0 0.841,0.042 1.219,0 0.251,-0.028 0.318,-0.123 0.354,-0.178 0.091,-0.14 0.055,-0.333 0.055,-0.333 0,0 0.198,-0.002 0.602,0.026 0.26,0.019 0.626,0.072 1.014,0.072 0.994,0 1.475,-0.262 1.709,-0.262 0.204,0 0.273,0.259 0.273,0.259 0,0 0.047,-0.267 -0.013,-0.389 -0.059,-0.122 -0.163,-0.174 -0.624,-0.083 -0.438,0.087 -0.964,0.14 -1.346,0.14 -0.741,0 -0.982,-0.088 -1.25,-0.088 -0.255,0 -0.408,0.114 -0.449,0.173 -0.044,0.066 0.045,0.235 -0.479,0.267 -0.413,0.026 -0.81,0.002 -1.065,0.002"/></g><g id="g32"><path id="path40" style="fill:#ffa521;fill-opacity:1;fill-rule:nonzero;stroke:none" d="m 18.1792,16.1533 v -1.664 h 1.763 v 0.628 l -0.073,0.377 -0.231,0.391 -0.381,0.411 -0.251,0.037 -0.314,-0.046 z"/><path id="path42" style="fill:#20acf7;fill-opacity:1;fill-rule:nonzero;stroke:none" d="m 20.7705,14.2617 c 0.032,0.094 0.031,0.168 0.031,0.168 v 0.43 h -0.859 v -0.171 l 0.167,-0.043 0.444,-0.293 z"/><path id="path44" style="fill:#88aa00;fill-opacity:1;fill-rule:nonzero;stroke:none" d="m 19.9424,14.6885 v -0.199 h -1.763 v -0.554 h 2.269 c 0,0 0.138,0.026 0.247,0.179 0.036,0.05 0.059,0.1 0.075,0.147 l -0.217,0.091 -0.444,0.293 z"/><path id="path46" style="fill:#7bd6ff;fill-opacity:1;fill-rule:nonzero;stroke:none" d="m 19.9424,14.8594 v 0.258 l -0.073,0.377 -0.231,0.391 -0.382,0.411 -0.251,0.037 -0.313,-0.046 -0.513,-0.134 v 0.72 h 2.622 v -2.014 z"/></g><g id="g50"><path id="path52" style="fill:#de7300;fill-opacity:1;fill-rule:nonzero;stroke:none" d="M 15.1982,15.627 V 14.43 c 0,0 0,-0.022 0.004,-0.057 l 0.332,0.099 0.263,0.26 0.173,0.041 0.142,-0.117 0.121,0.002 0.203,-0.085 0.319,0.008 0.22,-0.107 0.204,0.04 0.018,0.069 0.065,0.014 0.17,-0.045 0.163,-0.023 0.08,-0.149 0.146,-0.053 v 0.683 l -0.857,0.061 -0.523,0.129 -0.335,0.218 z"/><path id="path54" style="fill:#ffa521;fill-opacity:1;fill-rule:nonzero;stroke:none" d="m 17.8208,15.0098 v 1.863 h -2.623 v -1.246 l 0.908,-0.209 0.336,-0.218 0.523,-0.128 z"/></g><g id="g60"><path id="path62" style="fill:#850404;fill-opacity:1;fill-rule:nonzero;stroke:none" d="m 18.1792,17.2324 h 2.623 v 0.52 l -0.485,-0.229 -0.373,-0.047 h -1.144 l -0.353,-0.082 z"/><path id="path64" style="fill:#ffa521;fill-opacity:1;fill-rule:nonzero;stroke:none" d="m 18.1792,17.2324 v 2.639 h 2.623 v -2.119 l -0.485,-0.229 -0.373,-0.047 h -1.144 l -0.353,-0.082 z"/></g><g id="g70"><path id="path72" style="fill:#20acf7;fill-opacity:1;fill-rule:nonzero;stroke:none" d="m 15.1982,17.7617 v -0.529 h 2.623 v 0.566 c 0,0 -0.224,0.016 -0.601,-0.134 -0.376,-0.15 -0.861,-0.047 -1.185,0.068 -0.345,0.122 -0.837,0.029 -0.837,0.029"/><path id="path74" style="fill:#7bd6ff;fill-opacity:1;fill-rule:nonzero;stroke:none" d="m 15.1982,17.7617 v 2.109 h 2.623 v -2.072 c 0,0 -0.224,0.016 -0.601,-0.134 -0.376,-0.15 -0.861,-0.047 -1.185,0.068 -0.345,0.122 -0.837,0.029 -0.837,0.029"/></g><g id="g80"><path id="path82" style="fill:#dedede;fill-opacity:1;fill-rule:nonzero;stroke:none" d="m 15.5854,21.7358 0.203,0.219 -0.079,0.239 0.481,0.418 0.293,-0.065 0.343,0.233 v 0.184 l 0.6,0.249 0.194,-0.192 h 0.83 l 0.193,0.192 0.601,-0.249 v -0.184 l 0.341,-0.233 0.294,0.065 0.482,-0.418 -0.08,-0.239 0.203,-0.219 z"/></g><g id="g84"><path id="path86" style="fill:#ce1029;fill-opacity:1;fill-rule:nonzero;stroke:none" d="m 19.6973,23.0142 c 0,0 -0.051,0.103 -0.354,0.119 -0.132,0.006 -0.347,0.011 -0.405,0.011 -0.057,0 -0.277,0.085 -0.277,0.293 0,0.132 0.171,0.265 0.345,0.339 0.177,0.076 0.361,0.092 0.526,0.092 0.184,0 0.455,-0.051 0.743,-0.142 0.119,-0.037 0.239,-0.086 0.342,-0.124 0.109,-0.041 0.156,-0.086 0.156,-0.17 0,-0.126 -0.057,-0.184 -0.057,-0.245 0,-0.112 0.185,-0.164 0.204,-0.184 0.019,-0.02 0.019,-0.03 0.031,-0.03 0.013,0 0.025,0.008 0.025,0.008 0,0 0.053,-0.069 -0.197,-0.069 -0.259,0 -0.355,0.058 -0.355,0.277 0,0.172 -0.239,0.331 -0.458,0.331 -0.229,0 -0.296,-0.192 -0.296,-0.228 0,-0.049 0.101,-0.114 0.223,-0.159 0.132,-0.049 0.205,-0.102 0.205,-0.102"/></g><g id="g88"><path id="path90" style="fill:#0000ad;fill-opacity:1;fill-rule:nonzero;stroke:none" d="m 15.8716,23.1108 c 0,0 -0.173,0.13 -0.45,0.13 -0.294,0 -0.628,0.179 -0.628,0.547 0,0.428 0.528,0.577 0.777,0.577 0.406,0 0.433,-0.212 0.626,-0.212 0.257,0 0.71,0.322 1.117,0.322 0.262,0 0.58,-0.225 1.306,-0.225 0.222,0 0.521,0.253 0.992,0.253 0.227,0 0.427,-0.114 0.577,-0.164 0.141,-0.048 0.044,-0.057 0.174,-0.057 0.166,0 0.329,0.034 0.475,0.034 0.194,0 0.378,-0.173 0.378,-0.53 0,-0.505 -0.333,-0.702 -0.339,-0.696 -0.006,0.007 0.08,0.168 0.08,0.416 0,0.174 -0.068,0.384 -0.297,0.384 -0.072,0 -0.031,-0.008 -0.154,-0.008 -0.313,0 -0.441,0.226 -0.848,0.226 -0.33,0 -0.438,-0.178 -0.493,-0.202 -0.186,-0.08 -0.444,-0.053 -0.635,-0.047 -0.192,0.006 -0.98,0.21 -1.173,0.216 -0.133,0.003 -0.547,-0.057 -0.596,-0.085 -0.049,-0.027 -0.492,-0.231 -0.492,-0.423 0,-0.101 0.065,-0.069 0.065,-0.249 0,-0.11 -0.004,-0.207 -0.004,-0.207 z"/></g><g id="g92"><path id="path94" style="fill:#0000ad;fill-opacity:1;fill-rule:nonzero;stroke:none" d="m 20.1465,22.3809 v 0.65 h -0.449 v -0.459 l 0.182,0.04 z"/></g><g id="g96"><path id="path98" style="fill:#0000ad;fill-opacity:1;fill-rule:nonzero;stroke:none" d="m 18.236,23.469 h -0.439 v -0.448 h 0.439 z"/></g><g id="g00"><path id="path02" style="fill:#0000ad;fill-opacity:1;fill-rule:nonzero;stroke:none" d="m 15.8716,22.335 v 0.776 h 0.458 v -0.53 l -0.139,0.031 z"/></g></g></g></g></svg>