<svg xmlns:dc="http://purl.org/dc/elements/1.1/" xmlns:cc="http://creativecommons.org/ns#" xmlns:rdf="http://www.w3.org/1999/02/22-rdf-syntax-ns#" xmlns:svg="http://www.w3.org/2000/svg" xmlns="http://www.w3.org/2000/svg" viewBox="0 0 45 45" style="enable-background:new 0 0 45 45;" xml:space="preserve" version="1.1" id="svg2"><metadata id="metadata8"><rdf:RDF><cc:Work rdf:about=""><dc:format>image/svg+xml</dc:format><dc:type rdf:resource="http://purl.org/dc/dcmitype/StillImage"/></cc:Work></rdf:RDF></metadata><defs id="defs6"><clipPath id="clipPath16" clipPathUnits="userSpaceOnUse"><path id="path18" d="M 0,36 36,36 36,0 0,0 0,36 Z"/></clipPath></defs><g transform="matrix(1.25,0,0,-1.25,0,45)" id="g10"><g id="g12"><g clip-path="url(#clipPath16)" id="g14"><g id="g30"><path id="path20" style="fill:#eeeeee;fill-opacity:1;fill-rule:nonzero;stroke:none" d="M 36,27 V 9 C 36,6.79 34.21,5 32,5 H 4 C 1.79,5 0,6.79 0,9 v 18 c 0,2.21 1.79,4 4,4 h 28 c 2.21,0 4,-1.79 4,-4"/></g><g id="g32"><path id="path30" style="fill:#fbf813;fill-opacity:1;fill-rule:nonzero;stroke:none" d="m 19.5264,23.8804 c 0,0.843 -0.684,1.527 -1.526,1.527 -0.844,0 -1.527,-0.684 -1.527,-1.527 0,-0.843 0.683,-1.526 1.527,-1.526 0.842,0 1.526,0.683 1.526,1.526 m -1.526,-2.157 c -1.219,0 -2.206,0.906 -2.206,2.024 0,1.117 0.987,2.023 2.206,2.023 1.218,0 2.206,-0.906 2.206,-2.023 0,-1.118 -0.988,-2.024 -2.206,-2.024"/><path id="path31" style="fill:#141414;fill-opacity:1;fill-rule:nonzero;stroke:none" d="m 17.9619,11.7422 -0.22,0.627 c -0.055,0.034 -0.221,0.119 -0.623,0.201 -0.636,0.13 -1.288,0.514 -1.687,0.83 -1.041,0.825 -0.994,1.684 -0.992,1.72 v 7.987 l 0.47,-0.325 c 0.007,-0.005 0.718,-0.492 1.296,-0.492 0.552,0 1.081,0.554 1.086,0.558 l 0.086,0.077 h 1.243 l 0.086,-0.076 c 0.005,-0.005 0.531,-0.559 1.087,-0.559 0.578,0 1.289,0.487 1.296,0.492 l 0.471,0.325 v -8.008 c 0.002,-0.015 0.047,-0.874 -0.993,-1.699 -0.398,-0.316 -1.05,-0.7 -1.687,-0.83 -0.519,-0.105 -0.644,-0.217 -0.645,-0.218 z"/><path id="path32" style="fill:#adba68;fill-opacity:1;fill-rule:nonzero;stroke:none" d="m 14.7393,18.4312 v -3.332 c 0,0 -0.05,-0.727 0.879,-1.463 0.4,-0.318 1.009,-0.66 1.56,-0.772 0.742,-0.15 0.822,-0.329 0.822,-0.329 0,0 0.08,0.179 0.821,0.329 0.552,0.112 1.161,0.454 1.561,0.772 0.928,0.736 0.878,1.463 0.878,1.463 v 3.664 l -1.929,0.478 -0.886,0.8 -0.393,-0.196 -0.36,0.329 -1.623,-1.341 z"/><path id="path33" style="fill:#5598cc;fill-opacity:1;fill-rule:nonzero;stroke:none" d="m 14.7393,18.4312 v 4.104 c 0,0 0.784,-0.544 1.467,-0.544 0.682,0 1.286,0.634 1.286,0.634 h 1.015 c 0,0 0.604,-0.634 1.287,-0.634 0.682,0 1.466,0.544 1.466,0.544 v -3.772 l -1.929,0.478 -0.886,0.8 -0.393,-0.196 -0.36,0.329 -1.623,-1.341 z"/><path id="path34" style="fill:#eeeeee;fill-opacity:1;fill-rule:nonzero;stroke:none" d="m 17.0884,21.0586 c -0.106,0 -0.218,0.188 -0.871,0.124 -0.652,-0.065 -1.065,-0.571 -1.065,-0.671 0,-0.1 0.894,-0.047 1.242,-0.153 0.347,-0.106 0.47,0.047 1.094,0.053 0.623,0.006 1.306,-0.088 1.7,-0.047 0.394,0.041 0.488,0.253 0.152,0.394 -0.335,0.141 -0.381,0.312 -0.84,0.388 -0.459,0.077 -0.477,0.274 -0.918,0.218 -0.324,-0.041 -0.388,-0.306 -0.494,-0.306"/><path id="path35" style="fill:#eeeeee;fill-opacity:1;fill-rule:nonzero;stroke:none" d="m 20.2998,20.5156 c 0,-0.082 -0.118,-0.149 -0.265,-0.149 -0.146,0 -0.264,0.067 -0.264,0.149 0,0.083 0.138,0.149 0.285,0.149 0.145,0 0.244,-0.066 0.244,-0.149"/><path id="path36" style="fill:#987741;fill-opacity:1;fill-rule:nonzero;stroke:none" d="m 18,16.418 c -2.276,0 -4.021,1.215 -4.17,1.49 -0.15,0.274 -0.063,0.723 -0.063,0.723 0,0 -0.265,0.077 -0.665,0.118 -0.4,0.041 -0.772,0.047 -0.772,0.047 0,0 0.172,0.098 0.57,0.241 0.398,0.143 0.618,0.191 0.618,0.191 0,0 -0.246,0.107 -0.559,0.166 -0.314,0.059 -0.53,0.077 -0.53,0.077 0,0 0.336,0.158 0.942,0.158 0.606,0 1.068,-0.188 1.068,-0.188 v -1.125 c 0,0 1.461,-1.184 3.561,-1.184 2.1,0 3.561,1.184 3.561,1.184 v 1.125 c 0,0 0.462,0.188 1.069,0.188 0.605,0 0.94,-0.158 0.94,-0.158 0,0 -0.216,-0.018 -0.529,-0.077 -0.313,-0.059 -0.559,-0.166 -0.559,-0.166 0,0 0.22,-0.048 0.618,-0.191 0.398,-0.143 0.571,-0.241 0.571,-0.241 0,0 -0.373,-0.006 -0.773,-0.047 -0.4,-0.041 -0.665,-0.118 -0.665,-0.118 0,0 0.086,-0.449 -0.062,-0.723 -0.15,-0.275 -1.895,-1.49 -4.171,-1.49"/><path id="path37" style="fill:#987741;fill-opacity:1;fill-rule:nonzero;stroke:none" d="m 17.3115,22.6255 c -0.13,0 -0.235,0.105 -0.235,0.235 0,0.13 0.105,0.236 0.235,0.236 h 1.377 c 0.13,0 0.235,-0.106 0.235,-0.236 0,-0.13 -0.105,-0.235 -0.235,-0.235 z"/><path id="path38" style="fill:#fbf813;fill-opacity:1;fill-rule:nonzero;stroke:none" d="m 17.3115,23.0962 c 0,0 -0.4,0.839 0.02,1.429 0.122,0.172 0.068,0.308 0.068,0.308 0,0 0.14,-0.011 0.14,-0.288 0,-0.216 0.1,-0.353 0.1,-0.353 0,0 -0.017,0.487 0.217,0.645 0.265,0.178 0.106,0.481 0.106,0.481 0,0 0.175,-0.093 0.214,-0.379 0.03,-0.216 -0.067,-0.422 0,-0.422 0.067,0 0.157,0.271 0.157,0.271 0,0 0.055,-0.053 0.049,-0.163 -0.006,-0.11 -0.049,-0.223 0.015,-0.223 0.071,0 0.083,0.133 0.114,0.29 0.031,0.157 0.106,0.255 0.106,0.255 0,0 -0.012,-0.181 0.116,-0.463 0.128,-0.282 0.337,-0.361 0.337,-0.726 0,-0.427 -0.337,-0.667 -0.337,-0.667 z"/><path id="path39" style="fill:#fa070d;fill-opacity:1;fill-rule:nonzero;stroke:none" d="m 17.1206,24.2676 c -0.094,-0.17 -0.092,-0.455 -0.059,-0.632 0.061,-0.328 0.25,-0.539 0.25,-0.539 l 1.422,-0.005 c 0,0 0.212,0.15 0.3,0.425 0,0 -0.008,0.082 -0.029,0.149 -0.02,0.067 -0.096,0.13 -0.096,0.13 0,0 0.046,-0.105 -0.008,-0.216 -0.055,-0.111 -0.132,-0.137 -0.132,-0.137 0,0 0.064,0.114 0.072,0.284 0.008,0.17 -0.132,0.423 -0.132,0.423 0,0 0.002,-0.089 -0.029,-0.186 -0.031,-0.096 -0.08,-0.143 -0.08,-0.143 0,0 -0.011,0.065 -0.035,0.1 -0.026,0.034 -0.065,0.05 -0.065,0.05 0,0 0.003,-0.192 -0.048,-0.199 -0.052,-0.006 -0.066,0.13 -0.139,0.283 -0.073,0.153 -0.197,0.234 -0.197,0.234 0,0 0.086,-0.257 0.016,-0.288 -0.067,-0.029 -0.169,0.171 -0.186,0.274 -0.017,0.103 -0.133,0.166 -0.133,0.166 0,0 0.044,-0.075 0.018,-0.195 -0.024,-0.121 0.082,-0.191 0.047,-0.252 -0.016,-0.03 -0.099,0.083 -0.129,0.188 -0.026,0.091 -0.134,0.064 -0.134,0.064 0,0 0.128,-0.152 0.101,-0.311 -0.027,-0.16 -0.127,-0.294 -0.127,-0.294 0,0 -0.079,0.038 -0.126,0.138 -0.047,0.099 -0.041,0.184 -0.041,0.184 0,0 0.098,-0.018 0.113,0.086 0.011,0.079 -0.042,0.085 -0.08,0.13 -0.033,0.039 -0.064,0.11 -0.064,0.11 0,0 -0.034,-0.109 -0.089,-0.125 -0.055,-0.015 -0.028,-0.104 -0.077,-0.106 -0.024,0 -0.029,0.077 -0.05,0.131 -0.019,0.052 -0.054,0.079 -0.054,0.079"/></g><g id="g34"><path id="path40" style="fill:#c6b853;fill-opacity:1;fill-rule:nonzero;stroke:none" d="m 23.8115,23.9312 c 0,0 0.348,-0.655 0.229,-0.86 -0.117,-0.206 -0.086,-0.412 -0.086,-0.412 0,0 -0.19,0.159 -0.402,0.459 -0.212,0.299 -0.506,0.388 -0.506,0.388 0,0 0.065,-0.16 0.089,-0.435 0.076,-0.877 1.229,-1.03 1.229,-1.03 0,0 -0.062,0.397 -0.059,0.8 0.006,0.841 -0.494,1.09 -0.494,1.09"/><path id="path41" style="fill:#c6b853;fill-opacity:1;fill-rule:nonzero;stroke:none" d="m 24.1357,21.3296 c 0,0 0.229,-0.2 0.435,-0.43 0.206,-0.229 0.294,-0.441 0.294,-0.441 0,0 0.071,0.236 0.17,0.412 0.101,0.176 -0.035,0.847 -0.035,0.847 0,0 0.383,-0.441 0.353,-1.065 -0.03,-0.623 -0.5,-0.994 -0.5,-0.994 0,0 -0.5,0.224 -0.6,0.653 -0.055,0.237 0,0.318 -0.029,0.636 -0.016,0.168 -0.088,0.382 -0.088,0.382"/><path id="path42" style="fill:#c6b853;fill-opacity:1;fill-rule:nonzero;stroke:none" d="m 25.5645,18.7764 c 0,0 -0.047,-0.2 -0.335,-0.482 -0.192,-0.188 -0.241,-0.83 -0.241,-0.83 0,0 -0.247,0.283 -0.288,0.656 -0.018,0.161 0.066,0.463 0.045,0.627 -0.03,0.216 -0.199,0.276 -0.199,0.276 0,0 0.056,-0.262 -0.07,-0.659 -0.27,-0.853 0.453,-1.853 0.453,-1.853 0,0 0.156,0.423 0.382,0.742 0.318,0.447 0.178,0.837 0.229,1.089 0.064,0.324 0.024,0.434 0.024,0.434"/><path id="path43" style="fill:#c6b853;fill-opacity:1;fill-rule:nonzero;stroke:none" d="m 25.1914,15.3271 c -0.105,-0.265 -0.104,-1.222 -0.668,-1.475 -0.564,-0.253 -0.77,-0.558 -0.77,-0.558 0,0 -0.173,0.52 -0.136,1.023 0.031,0.408 0.182,0.712 0.336,0.877 0.152,0.164 0.235,0.423 0.235,0.423 0,0 0.018,-0.223 0.106,-0.535 0.088,-0.312 -0.071,-0.817 -0.071,-0.817 0,0 0.416,0.196 0.639,0.719 0.224,0.524 0.367,0.739 0.367,0.739 0,0 0.044,-0.19 -0.038,-0.396"/><path id="path44" style="fill:#c6b853;fill-opacity:1;fill-rule:nonzero;stroke:none" d="m 22.6357,12.6943 c 0,0 0.076,-0.3 -0.147,-0.589 -0.224,-0.288 -0.294,-0.576 -0.448,-0.717 -0.152,-0.141 -0.329,-0.318 -0.329,-0.318 0,0 0.695,-0.012 1.076,0.259 0.383,0.27 0.418,0.342 0.565,0.394 0.147,0.053 0.295,0.159 0.295,0.159 0,0 -0.089,-0.271 -0.289,-0.512 -0.2,-0.24 -0.888,-0.676 -1.141,-0.711 -0.253,-0.036 -0.171,0.064 -0.57,0 -0.401,-0.066 -0.23,-0.148 -0.824,-0.271 -0.594,-0.124 -0.665,-0.306 -1.071,-0.459 -0.406,-0.153 -0.811,-0.258 -0.811,-0.258 0,0 0.311,-0.383 0.447,-0.436 0.135,-0.053 0.623,-0.206 0.765,-0.335 0.14,-0.13 0.164,-0.277 -0.142,-0.235 -0.306,0.041 -0.329,0.181 -0.471,0.288 -0.14,0.105 -0.235,0.017 -0.37,0.158 -0.073,0.076 -0.213,0.259 -0.406,0.371 -0.165,0.096 -0.394,0.129 -0.394,0.129 v 0.247 c 0,0 1.17,0.289 1.553,0.453 0.157,0.069 0.35,0.184 0.524,0.247 0.248,0.092 0.469,0.133 0.611,0.247 0.241,0.195 0.124,0.465 0.406,0.83 0.282,0.365 0.347,0.53 0.718,0.735 0.37,0.206 0.453,0.324 0.453,0.324"/><path id="path45" style="fill:#fcfbc9;fill-opacity:1;fill-rule:nonzero;stroke:none" d="m 23.2891,23.3799 c 0,0 -0.089,0.146 -0.116,0.358 -0.027,0.212 -0.009,0.418 -0.009,0.418 0,0 0.216,-0.097 0.459,-0.291 0.244,-0.194 0.394,-0.421 0.394,-0.421 0.045,-0.148 0.069,-0.294 0.024,-0.373 -0.117,-0.206 -0.087,-0.412 -0.087,-0.412 0,0 -0.189,0.159 -0.401,0.459 -0.083,0.118 -0.178,0.202 -0.264,0.262"/><path id="path46" style="fill:#fcfbc9;fill-opacity:1;fill-rule:nonzero;stroke:none" d="m 24.293,21.1841 c 0.081,-0.077 0.181,-0.177 0.277,-0.284 0.206,-0.23 0.294,-0.441 0.294,-0.441 0,0 0.072,0.235 0.171,0.412 0.036,0.063 0.042,0.189 0.034,0.326 0,0 -0.078,0.209 -0.287,0.424 -0.209,0.214 -0.473,0.405 -0.473,0.405 0,0 -0.053,-0.196 -0.059,-0.403 -0.006,-0.206 0.043,-0.439 0.043,-0.439"/><path id="path47" style="fill:#fcfbc9;fill-opacity:1;fill-rule:nonzero;stroke:none" d="m 25.4063,18.4922 c 0,0 -0.007,0.229 -0.098,0.503 -0.091,0.274 -0.299,0.584 -0.299,0.584 0,0 -0.089,-0.197 -0.168,-0.459 -0.081,-0.262 -0.093,-0.438 -0.093,-0.438 0,-0.169 -0.064,-0.42 -0.048,-0.562 0.041,-0.373 0.288,-0.655 0.288,-0.655 0,0 0.049,0.641 0.241,0.829 0.073,0.072 0.132,0.139 0.177,0.198"/><path id="path48" style="fill:#fcfbc9;fill-opacity:1;fill-rule:nonzero;stroke:none" d="m 25.0869,15.4678 c 0,0 0.04,0.2 0.043,0.436 0.003,0.235 -0.043,0.552 -0.043,0.552 0,0 -0.278,-0.203 -0.496,-0.45 -0.218,-0.247 -0.366,-0.63 -0.366,-0.63 0.015,-0.083 0.038,-0.182 0.069,-0.294 0.089,-0.311 -0.07,-0.817 -0.07,-0.817 0,0 0.416,0.196 0.638,0.72 0.089,0.208 0.165,0.367 0.225,0.483"/><path id="path49" style="fill:#fcfbc9;fill-opacity:1;fill-rule:nonzero;stroke:none" d="m 23.1748,11.6201 c 0,0 0.151,0.203 0.281,0.53 0.129,0.326 0.209,0.765 0.209,0.765 0,0 -0.27,-0.057 -0.532,-0.174 -0.263,-0.118 -0.501,-0.33 -0.501,-0.33 -0.019,-0.095 -0.06,-0.197 -0.144,-0.306 -0.223,-0.288 -0.293,-0.576 -0.447,-0.716 -0.152,-0.142 -0.329,-0.319 -0.329,-0.319 0,0 0.694,-0.012 1.076,0.259 0.205,0.145 0.311,0.233 0.387,0.291"/><path id="path50" style="fill:#c6b853;fill-opacity:1;fill-rule:nonzero;stroke:none" d="m 12.189,23.9312 c 0,0 -0.348,-0.655 -0.23,-0.86 0.118,-0.206 0.087,-0.412 0.087,-0.412 0,0 0.189,0.159 0.401,0.459 0.212,0.299 0.506,0.388 0.506,0.388 0,0 -0.064,-0.16 -0.088,-0.435 -0.077,-0.877 -1.23,-1.03 -1.23,-1.03 0,0 0.062,0.397 0.059,0.8 -0.005,0.841 0.495,1.09 0.495,1.09"/><path id="path51" style="fill:#c6b853;fill-opacity:1;fill-rule:nonzero;stroke:none" d="m 11.8647,21.3296 c 0,0 -0.229,-0.2 -0.436,-0.43 -0.205,-0.229 -0.293,-0.441 -0.293,-0.441 0,0 -0.071,0.236 -0.171,0.412 -0.1,0.176 0.035,0.847 0.035,0.847 0,0 -0.382,-0.441 -0.353,-1.065 0.03,-0.623 0.5,-0.994 0.5,-0.994 0,0 0.5,0.224 0.6,0.653 0.056,0.237 0,0.318 0.03,0.636 0.015,0.168 0.088,0.382 0.088,0.382"/><path id="path52" style="fill:#c6b853;fill-opacity:1;fill-rule:nonzero;stroke:none" d="m 10.4351,18.7764 c 0,0 0.047,-0.2 0.335,-0.482 0.192,-0.188 0.242,-0.83 0.242,-0.83 0,0 0.247,0.283 0.288,0.656 0.018,0.161 -0.067,0.463 -0.045,0.627 0.029,0.216 0.198,0.276 0.198,0.276 0,0 -0.056,-0.262 0.07,-0.659 0.271,-0.853 -0.452,-1.853 -0.452,-1.853 0,0 -0.157,0.423 -0.383,0.742 -0.317,0.447 -0.178,0.837 -0.228,1.089 -0.065,0.324 -0.025,0.434 -0.025,0.434"/><path id="path53" style="fill:#c6b853;fill-opacity:1;fill-rule:nonzero;stroke:none" d="m 10.8086,15.3271 c 0.106,-0.265 0.103,-1.222 0.668,-1.475 0.564,-0.253 0.77,-0.558 0.77,-0.558 0,0 0.173,0.52 0.136,1.023 -0.031,0.408 -0.182,0.712 -0.336,0.877 -0.153,0.164 -0.235,0.423 -0.235,0.423 0,0 -0.018,-0.223 -0.106,-0.535 -0.088,-0.312 0.071,-0.817 0.071,-0.817 0,0 -0.416,0.196 -0.639,0.719 -0.224,0.524 -0.367,0.739 -0.367,0.739 0,0 -0.044,-0.19 0.038,-0.396"/><path id="path54" style="fill:#c6b853;fill-opacity:1;fill-rule:nonzero;stroke:none" d="m 13.3647,12.6943 c 0,0 -0.077,-0.3 0.147,-0.589 0.224,-0.288 0.294,-0.576 0.447,-0.717 0.153,-0.141 0.329,-0.318 0.329,-0.318 0,0 -0.694,-0.012 -1.076,0.259 -0.382,0.27 -0.418,0.342 -0.565,0.394 -0.147,0.053 -0.294,0.159 -0.294,0.159 0,0 0.089,-0.271 0.288,-0.512 0.201,-0.24 0.889,-0.676 1.141,-0.711 0.253,-0.036 0.171,0.064 0.571,0 0.4,-0.066 0.23,-0.148 0.824,-0.271 0.594,-0.124 0.665,-0.306 1.07,-0.459 0.406,-0.153 0.812,-0.258 0.812,-0.258 0,0 -0.312,-0.383 -0.447,-0.436 -0.135,-0.053 -0.623,-0.206 -0.765,-0.335 -0.141,-0.13 -0.165,-0.277 0.142,-0.235 0.305,0.041 0.329,0.181 0.47,0.288 0.141,0.105 0.236,0.017 0.371,0.158 0.073,0.076 0.212,0.259 0.406,0.371 0.165,0.096 0.394,0.129 0.394,0.129 v 0.247 c 0,0 -1.171,0.289 -1.553,0.453 -0.157,0.069 -0.351,0.184 -0.524,0.247 -0.248,0.092 -0.47,0.133 -0.611,0.247 -0.242,0.195 -0.124,0.465 -0.407,0.83 -0.282,0.365 -0.346,0.53 -0.717,0.735 -0.37,0.206 -0.453,0.324 -0.453,0.324"/><path id="path55" style="fill:#fcfbc9;fill-opacity:1;fill-rule:nonzero;stroke:none" d="m 12.7114,23.3799 c 0,0 0.089,0.146 0.115,0.358 0.027,0.212 0.01,0.418 0.01,0.418 0,0 -0.216,-0.097 -0.46,-0.291 -0.244,-0.194 -0.394,-0.421 -0.394,-0.421 -0.045,-0.148 -0.069,-0.294 -0.023,-0.373 0.117,-0.206 0.086,-0.412 0.086,-0.412 0,0 0.19,0.159 0.402,0.459 0.083,0.118 0.178,0.202 0.264,0.262"/><path id="path56" style="fill:#fcfbc9;fill-opacity:1;fill-rule:nonzero;stroke:none" d="m 11.707,21.1841 c -0.081,-0.077 -0.181,-0.177 -0.278,-0.284 -0.205,-0.23 -0.294,-0.441 -0.294,-0.441 0,0 -0.07,0.235 -0.17,0.412 -0.036,0.063 -0.042,0.189 -0.034,0.326 0,0 0.078,0.209 0.287,0.424 0.208,0.214 0.473,0.405 0.473,0.405 0,0 0.053,-0.196 0.059,-0.403 0.006,-0.206 -0.043,-0.439 -0.043,-0.439"/><path id="path57" style="fill:#fcfbc9;fill-opacity:1;fill-rule:nonzero;stroke:none" d="m 10.5937,18.4922 c 0,0 0.007,0.229 0.098,0.503 0.091,0.274 0.299,0.584 0.299,0.584 0,0 0.089,-0.197 0.169,-0.459 0.079,-0.262 0.092,-0.438 0.092,-0.438 0.001,-0.169 0.064,-0.42 0.048,-0.562 -0.041,-0.373 -0.288,-0.655 -0.288,-0.655 0,0 -0.049,0.641 -0.241,0.829 -0.074,0.072 -0.132,0.139 -0.177,0.198"/><path id="path58" style="fill:#fcfbc9;fill-opacity:1;fill-rule:nonzero;stroke:none" d="m 10.9131,15.4678 c 0,0 -0.04,0.2 -0.042,0.436 -0.003,0.235 0.042,0.552 0.042,0.552 0,0 0.278,-0.203 0.496,-0.45 0.217,-0.247 0.366,-0.63 0.366,-0.63 -0.015,-0.083 -0.038,-0.182 -0.069,-0.294 -0.088,-0.311 0.07,-0.817 0.07,-0.817 0,0 -0.415,0.196 -0.639,0.72 -0.089,0.208 -0.165,0.367 -0.224,0.483"/><path id="path59" style="fill:#fcfbc9;fill-opacity:1;fill-rule:nonzero;stroke:none" d="m 12.8252,11.6201 c 0,0 -0.152,0.203 -0.281,0.53 -0.13,0.326 -0.209,0.765 -0.209,0.765 0,0 0.271,-0.057 0.532,-0.174 0.262,-0.118 0.501,-0.33 0.501,-0.33 0.019,-0.095 0.06,-0.197 0.144,-0.306 0.223,-0.288 0.293,-0.576 0.447,-0.716 0.153,-0.142 0.329,-0.319 0.329,-0.319 0,0 -0.694,-0.012 -1.076,0.259 -0.205,0.145 -0.311,0.233 -0.387,0.291"/><path id="path60" style="fill:#141414;fill-opacity:1;fill-rule:nonzero;stroke:none" d="m 17.5181,8.374 c -0.011,0 -0.022,10e-4 -0.034,0.003 -0.11,0.018 -0.197,0.121 -0.233,0.17 -0.094,0 -0.229,0.034 -0.255,0.163 -0.033,0.161 0.15,0.508 0.252,0.64 0.092,0.119 0.262,0.225 0.325,0.262 0.001,0.02 0.003,0.047 0.003,0.073 0,0.007 0,0.015 0,0.022 -0.232,0.008 -1.099,0.054 -1.411,0.273 -0.235,0.166 -0.22,0.291 -0.208,0.392 0.003,0.027 0.006,0.051 0.003,0.072 -0.012,0.087 0.007,0.258 0.107,0.372 0.066,0.076 0.157,0.115 0.264,0.115 0.203,0 0.27,-0.048 0.418,-0.155 0.079,-0.056 0.186,-0.133 0.357,-0.233 0.353,-0.206 0.51,-0.37 0.572,-0.448 0.038,0.027 0.098,0.058 0.171,0.058 0.07,0 0.119,-0.028 0.151,-0.055 0.032,0.027 0.081,0.055 0.151,0.055 0.073,0 0.133,-0.031 0.171,-0.058 0.062,0.078 0.219,0.242 0.572,0.448 0.17,0.1 0.279,0.177 0.357,0.233 0.147,0.107 0.215,0.155 0.418,0.155 0.107,0 0.198,-0.039 0.264,-0.115 0.1,-0.114 0.119,-0.285 0.107,-0.372 -0.003,-0.021 0,-0.045 0.003,-0.072 0.013,-0.101 0.027,-0.226 -0.209,-0.392 -0.311,-0.219 -1.178,-0.265 -1.41,-0.273 0,-0.007 0,-0.015 0,-0.022 0,-0.026 0.002,-0.053 0.003,-0.073 0.063,-0.037 0.233,-0.143 0.325,-0.262 0.105,-0.137 0.285,-0.477 0.252,-0.64 -0.026,-0.129 -0.161,-0.163 -0.255,-0.163 -0.036,-0.049 -0.123,-0.152 -0.233,-0.17 -0.061,-0.01 -0.115,0.005 -0.165,0.045 -0.079,0.062 -0.079,0.213 -0.08,0.403 0,0.071 0,0.146 -0.005,0.216 -0.013,0.164 -0.058,0.305 -0.077,0.36 -0.03,0.006 -0.077,0.017 -0.112,0.035 -0.027,0.014 -0.056,0.036 -0.077,0.054 -0.022,-0.018 -0.05,-0.04 -0.077,-0.054 -0.035,-0.018 -0.082,-0.029 -0.112,-0.035 -0.02,-0.055 -0.064,-0.196 -0.077,-0.36 -0.005,-0.07 -0.006,-0.145 -0.006,-0.216 0,-0.19 -0.001,-0.341 -0.079,-0.403 -0.04,-0.032 -0.085,-0.048 -0.131,-0.048"/><path id="path61" style="fill:#eeeeee;fill-opacity:1;fill-rule:nonzero;stroke:none" d="m 17.3022,8.6494 0.016,-0.024 c 0.024,-0.038 0.104,-0.137 0.183,-0.15 0.032,-0.004 0.058,0.003 0.085,0.025 0.042,0.033 0.042,0.195 0.042,0.325 0.001,0.074 0.001,0.15 0.006,0.223 0.018,0.228 0.091,0.409 0.094,0.416 l 0.011,0.026 0.028,0.005 c 0.02,0.003 0.078,0.013 0.11,0.03 0.031,0.016 0.074,0.055 0.087,0.068 l 0.036,0.036 0.035,-0.036 c 0.014,-0.013 0.056,-0.052 0.088,-0.068 0.031,-0.017 0.09,-0.027 0.11,-0.03 l 0.027,-0.005 0.012,-0.026 c 0.003,-0.007 0.076,-0.188 0.093,-0.416 0.006,-0.073 0.006,-0.149 0.006,-0.223 0,-0.13 10e-4,-0.292 0.042,-0.325 0.028,-0.022 0.055,-0.029 0.086,-0.025 0.08,0.013 0.159,0.112 0.182,0.15 l 0.016,0.024 0.03,-0.002 c -0.001,0.002 0.159,-0.009 0.179,0.082 0.022,0.112 -0.126,0.419 -0.234,0.56 -0.099,0.127 -0.316,0.248 -0.318,0.249 l -0.024,0.013 -0.002,0.027 c 0,0 -0.004,0.057 -0.004,0.106 0,0.036 -0.005,0.055 -0.005,0.056 l -0.019,0.062 0.065,0.002 c 0.011,0 1.083,0.027 1.411,0.258 0.188,0.131 0.178,0.212 0.167,0.298 -0.003,0.031 -0.007,0.063 -0.003,0.098 0.01,0.071 -0.01,0.209 -0.083,0.293 -0.046,0.052 -0.109,0.08 -0.188,0.08 -0.171,0 -0.218,-0.035 -0.36,-0.136 -0.08,-0.058 -0.19,-0.137 -0.364,-0.238 -0.46,-0.269 -0.569,-0.458 -0.57,-0.46 l -0.034,-0.061 -0.047,0.052 c 0,0 -0.062,0.065 -0.143,0.065 -0.075,0 -0.107,-0.055 -0.107,-0.056 l -0.044,-0.08 -0.044,0.08 c -10e-4,0.002 -0.033,0.056 -0.107,0.056 -0.082,0 -0.143,-0.065 -0.144,-0.065 l -0.048,-0.053 -0.033,0.063 c -10e-4,10e-4 -0.11,0.19 -0.569,0.459 -0.174,0.101 -0.284,0.18 -0.364,0.238 -0.141,0.101 -0.189,0.136 -0.36,0.136 -0.079,0 -0.142,-0.028 -0.189,-0.08 -0.073,-0.084 -0.092,-0.222 -0.083,-0.293 0.005,-0.035 10e-4,-0.067 -0.003,-0.098 -0.01,-0.086 -0.02,-0.167 0.167,-0.298 0.328,-0.231 1.4,-0.258 1.411,-0.258 l 0.068,-10e-4 -0.022,-0.064 c 0,0 -0.005,-0.019 -0.005,-0.055 0,-0.049 -0.004,-0.106 -0.004,-0.106 l -0.002,-0.027 -0.024,-0.013 c -0.002,-10e-4 -0.219,-0.122 -0.318,-0.249 -0.106,-0.137 -0.255,-0.449 -0.233,-0.56 0.018,-0.091 0.178,-0.081 0.178,-0.082 z"/></g></g></g></g></svg>