<svg xmlns:dc="http://purl.org/dc/elements/1.1/" xmlns:cc="http://creativecommons.org/ns#" xmlns:rdf="http://www.w3.org/1999/02/22-rdf-syntax-ns#" xmlns:svg="http://www.w3.org/2000/svg" xmlns="http://www.w3.org/2000/svg" viewBox="0 0 45 45" style="enable-background:new 0 0 45 45;" xml:space="preserve" version="1.1" id="svg2"><metadata id="metadata8"><rdf:RDF><cc:Work rdf:about=""><dc:format>image/svg+xml</dc:format><dc:type rdf:resource="http://purl.org/dc/dcmitype/StillImage"/></cc:Work></rdf:RDF></metadata><defs id="defs6"><clipPath id="clipPath16" clipPathUnits="userSpaceOnUse"><path id="path18" d="M 0,36 36,36 36,0 0,0 0,36 Z"/></clipPath></defs><g transform="matrix(1.25,0,0,-1.25,0,45)" id="g10"><g id="g12"><g xmlns="http://www.w3.org/2000/svg" clip-path="url(#clipPath16)" id="g14"><g id="g30"><path id="path20" style="fill:#e70000;fill-opacity:1;fill-rule:nonzero;stroke:none" d="M 32,31 4,31 C 1.791,31 0,29.209 0,27 l 0,-9 36,0 0,9 c 0,2.209 -1.791,4 -4,4"/><path id="path22" style="fill:#eeeeee;fill-opacity:1;fill-rule:nonzero;stroke:none" d="M 0,18 0,9 C 0,6.791 1.791,5 4,5 l 28,0 c 2.209,0 4,1.791 4,4 l 0,9 -36,0 z"/></g><g id="g34"><path id="path30" style="fill:#ffffff;fill-opacity:1;fill-rule:nonzero;stroke:none" d="m 11.5469,25.75 0,-7.828 c 0,-2.375 0.375,-4.391 2.188,-6 0.957,-0.851 2.463,-1.61 4.265,-1.61 1.802,0 3.308,0.759 4.266,1.61 1.812,1.609 2.187,3.625 2.187,6 l 0,7.828 -12.906,0 z"/><path id="path32" style="fill:#e70000;fill-opacity:1;fill-rule:nonzero;stroke:none" d="m 18.4292,23.9824 c -0.004,0.298 -0.238,0.451 -0.466,0.525 -0.42,0.138 -0.36,0.366 -0.36,0.366 0,0 0.221,0.388 0.823,0.221 0.429,-0.12 0.676,-0.012 0.676,-0.012 l -0.178,-0.144 c 0,0 0.343,-0.027 0.408,-0.547 0.065,-0.521 0.302,-0.758 0.302,-0.758 0,0 -0.093,-0.018 -0.158,0.021 -0.064,0.04 -0.091,0.093 -0.091,0.093 0,0 0.062,-0.296 -0.066,-0.663 -0.127,-0.367 0.022,-0.579 0.022,-0.579 0,0 -0.063,-0.038 -0.147,0.006 -0.112,0.059 -0.112,0.106 -0.112,0.106 0,0 -0.141,-0.121 -0.212,-0.423 -0.123,-0.53 -0.037,-0.733 0.128,-0.836 0.165,-0.102 0.173,-0.211 0.173,-0.211 0,0 0.819,-0.181 1.415,0.462 0.596,0.644 0.565,1.545 0.565,1.545 0,0 -0.847,0.189 -0.847,1.012 0,0.824 1.003,0.722 1.584,0.698 0.581,-0.023 1.522,0.204 1.522,0.204 0,0 0.031,-0.514 -0.432,-0.725 -0.463,-0.212 -0.976,-0.193 -0.976,-0.193 0,0 0.427,-0.176 0.941,-0.282 0.514,-0.106 1.082,-0.157 1.082,-0.157 0,0 -0.113,-0.439 -0.549,-0.541 -0.435,-0.102 -1.102,0.086 -1.102,0.086 0,0 0.173,-0.239 0.741,-0.737 0.569,-0.498 0.91,-0.694 0.91,-0.694 0,0 -0.313,-0.267 -0.741,-0.121 -0.428,0.145 -1.043,0.772 -1.043,0.772 0,0 0.149,-0.392 0.804,-1.537 0.655,-1.145 1.094,-1.718 1.094,-1.718 0,0 -0.404,-0.129 -0.808,0.282 -0.403,0.412 -1.483,1.773 -1.483,1.773 0,0 0.212,-0.333 0.456,-0.867 0.243,-0.533 0.274,-1.357 0.544,-2.298 0.271,-0.941 0.829,-2.133 0.829,-2.133 0,0 -0.656,-0.122 -1.154,0.957 -0.498,1.078 -1.259,3.325 -1.259,3.325 0,0 -0.017,-0.431 0.094,-1.89 0.113,-1.458 0.424,-2.647 0.424,-2.647 0,0 -0.747,0.006 -1.2,1.294 -0.452,1.288 -0.318,2.548 -0.318,2.548 0,0 -0.194,-0.701 -0.211,-1.324 -0.018,-0.624 -0.024,-0.877 -0.253,-0.912 -0.23,-0.035 -0.388,0.453 -0.406,0.982 -0.017,0.53 -0.182,1.118 -0.182,1.118 0,0 -0.196,-0.927 -0.095,-1.624 0.077,-0.529 0.319,-0.713 0.424,-0.959 0.126,-0.297 0.089,-0.411 0.089,-0.411 l -0.597,-0.575 c 0,0 -0.173,0.02 -0.188,0.471 -0.016,0.451 -0.129,0.498 -0.208,0.498 -0.079,0 -0.361,-0.804 0,-1.24 0.361,-0.434 0.75,-0.207 0.968,-0.34 0.22,-0.134 0.259,-0.541 0.259,-0.541 0,0 -0.211,0.156 -0.678,0.054 -0.466,-0.101 -0.769,0.349 -0.769,0.349 0,0 0.018,-1.199 1.501,-1.347 0.754,-0.075 1.428,-0.264 1.428,-1.223 0,-0.812 -0.911,-0.736 -0.911,-0.736 0,0 0.641,0.23 0.641,0.689 0,0.876 -0.835,0.906 -0.835,0.906 0,0 0.035,-0.212 0.392,-0.462 0.415,-0.292 0.052,-0.538 0.052,-0.538 0,0 -0.026,-0.045 -0.297,0.273 -0.271,0.318 -1.247,0.626 -1.547,0.9 -0.3,0.273 -0.579,0.842 -0.579,0.842 0,0 -0.047,-0.718 0.379,-1.165 0.236,-0.247 0.623,-0.215 0.909,-0.448 0.285,-0.232 -0.079,-0.247 -0.079,-0.247 0,0 0.014,-0.061 0.206,-0.206 0.19,-0.143 0.373,-0.202 0.373,-0.202 0,0 -0.704,-0.009 -1.206,0.482 -0.503,0.491 -0.674,0.874 -0.674,0.874 0,0 -0.075,-0.779 0.089,-1.283 0.152,-0.47 0.41,-0.442 0.329,-0.764 -0.062,-0.247 -0.344,-0.157 -0.344,-0.157 0,0 0.006,-0.111 -0.065,-0.241 -0.07,-0.129 -0.179,-0.238 -0.179,-0.238 0,0 -0.109,0.109 -0.179,0.238 -0.071,0.13 -0.065,0.241 -0.065,0.241 0,0 -0.283,-0.09 -0.345,0.157 -0.08,0.322 0.177,0.294 0.33,0.764 0.164,0.504 0.088,1.283 0.088,1.283 0,0 -0.171,-0.383 -0.673,-0.874 -0.503,-0.491 -1.206,-0.482 -1.206,-0.482 0,0 0.182,0.059 0.374,0.202 0.19,0.145 0.205,0.206 0.205,0.206 0,0 -0.365,0.015 -0.079,0.247 0.285,0.233 0.673,0.201 0.909,0.448 0.426,0.447 0.379,1.165 0.379,1.165 0,0 -0.279,-0.569 -0.58,-0.842 -0.299,-0.274 -1.276,-0.582 -1.546,-0.9 -0.271,-0.318 -0.297,-0.273 -0.297,-0.273 0,0 -0.363,0.246 0.052,0.538 0.356,0.25 0.392,0.462 0.392,0.462 0,0 -0.836,-0.03 -0.836,-0.906 0,-0.459 0.642,-0.689 0.642,-0.689 0,0 -0.912,-0.076 -0.912,0.736 0,0.959 0.675,1.148 1.429,1.223 1.483,0.148 1.5,1.347 1.5,1.347 0,0 -0.302,-0.45 -0.768,-0.349 -0.467,0.102 -0.679,-0.054 -0.679,-0.054 0,0 0.039,0.407 0.259,0.541 0.22,0.133 0.608,-0.094 0.969,0.34 0.36,0.436 0.078,1.24 0,1.24 -0.079,0 -0.193,-0.047 -0.208,-0.498 -0.016,-0.451 -0.188,-0.471 -0.188,-0.471 l -0.597,0.575 c 0,0 -0.038,0.114 0.089,0.411 0.104,0.246 0.346,0.43 0.423,0.959 0.101,0.697 -0.094,1.624 -0.094,1.624 0,0 -0.165,-0.588 -0.182,-1.118 -0.018,-0.529 -0.177,-1.017 -0.406,-0.982 -0.229,0.035 -0.235,0.288 -0.253,0.912 -0.018,0.623 -0.212,1.324 -0.212,1.324 0,0 0.135,-1.26 -0.318,-2.548 -0.452,-1.288 -1.199,-1.294 -1.199,-1.294 0,0 0.311,1.189 0.423,2.647 0.112,1.459 0.094,1.89 0.094,1.89 0,0 -0.761,-2.247 -1.259,-3.325 -0.498,-1.079 -1.152,-0.957 -1.152,-0.957 0,0 0.556,1.192 0.827,2.133 0.27,0.941 0.302,1.765 0.545,2.298 0.243,0.534 0.455,0.867 0.455,0.867 0,0 -1.078,-1.361 -1.483,-1.773 -0.404,-0.411 -0.807,-0.282 -0.807,-0.282 0,0 0.439,0.573 1.094,1.718 0.655,1.145 0.804,1.537 0.804,1.537 0,0 -0.616,-0.627 -1.043,-0.772 -0.428,-0.146 -0.742,0.121 -0.742,0.121 0,0 0.342,0.196 0.91,0.694 0.569,0.498 0.741,0.737 0.741,0.737 0,0 -0.666,-0.188 -1.102,-0.086 -0.435,0.102 -0.549,0.541 -0.549,0.541 0,0 0.569,0.051 1.082,0.157 0.515,0.106 0.942,0.282 0.942,0.282 0,0 -0.514,-0.019 -0.977,0.193 -0.463,0.211 -0.431,0.725 -0.431,0.725 0,0 0.941,-0.227 1.522,-0.204 0.58,0.024 1.584,0.126 1.584,-0.698 0,-0.823 -0.847,-1.012 -0.847,-1.012 0,0 -0.031,-0.901 0.564,-1.545 0.597,-0.643 1.316,-0.462 1.316,-0.462 0,0 0.041,0.137 0.151,0.176 0.11,0.039 0.318,0.047 0.318,0.047 0,0 0.047,0.42 0.227,0.741 0.181,0.322 0.502,0.557 0.502,0.557 0,0 -0.07,0.04 -0.282,0.028 -0.212,-0.012 -0.349,-0.067 -0.349,-0.067 0,0 0.027,0.167 0.435,0.286 0.671,0.196 0.447,0.508 0.447,0.508 0,0 0.196,0.222 0.24,0.435 0,0 -0.142,0.077 -0.777,0.038 -0.635,-0.039 -1.157,-0.333 -1.157,-0.333 0,0 0.455,0.352 1.063,0.446 0.608,0.095 0.882,-0.027 0.882,-0.027"/><path id="path34" style="fill:#fde549;fill-opacity:1;fill-rule:nonzero;stroke:none" d="m 19.2822,20.5527 -0.029,0.335 c 0,0 1.082,-0.023 1.671,0.765 0.587,0.789 0.338,1.72 0.338,1.72 0,0 -0.376,-0.089 -0.376,0.208 0,0.236 0.237,0.192 0.237,0.192 0,0 -0.162,0.343 0.179,0.343 0.341,0 0.174,-0.339 0.174,-0.339 0,0 0.285,0.074 0.285,-0.204 0,-0.279 -0.302,-0.214 -0.302,-0.214 0,0 0.188,-0.941 -0.401,-1.841 -0.588,-0.9 -1.776,-0.965 -1.776,-0.965"/><path id="path36" style="fill:#fde549;fill-opacity:1;fill-rule:nonzero;stroke:none" d="m 16.7178,20.5527 0.029,0.335 c 0,0 -1.082,-0.023 -1.67,0.765 -0.588,0.789 -0.339,1.72 -0.339,1.72 0,0 0.376,-0.089 0.376,0.208 0,0.236 -0.237,0.192 -0.237,0.192 0,0 0.162,0.343 -0.179,0.343 -0.341,0 -0.174,-0.339 -0.174,-0.339 0,0 -0.285,0.074 -0.285,-0.204 0,-0.279 0.302,-0.214 0.302,-0.214 0,0 -0.188,-0.941 0.401,-1.841 0.588,-0.9 1.776,-0.965 1.776,-0.965"/><path id="path38" style="fill:#fde549;fill-opacity:1;fill-rule:nonzero;stroke:none" d="m 19.6172,16.4238 c 0,0 -0.129,0.094 -0.226,0 -0.097,-0.095 -0.091,-0.307 -0.091,-0.307 0,0 0.388,-0.417 0.698,-0.876 0.309,-0.459 0.429,-0.7 0.429,-0.7 0,0 -0.164,-0.084 -0.325,-0.035 -0.346,0.106 -0.488,-0.038 -0.488,-0.038 0,0 0.307,0.023 0.083,-0.197 -0.071,-0.071 0.108,-0.218 0.344,-0.021 0.092,0.077 0.808,0.003 0.808,0.003 0,0 0.357,-0.191 0.489,-0.326 0.132,-0.135 0.304,-0.399 0.377,-0.164 0.047,0.154 0.223,-0.051 0.223,-0.051 0,0 0.015,0.147 -0.138,0.247 -0.153,0.1 -0.619,0.365 -0.619,0.365 0,0 0.493,0.216 0.801,0.173 0.232,-0.032 0.324,-0.11 0.418,-0.223 0.093,-0.113 0.274,-0.029 0.194,0.064 -0.182,0.212 0.214,0.183 0.214,0.183 0,0 0.033,0.168 -0.447,0.141 -0.478,-0.026 -0.282,0.25 -0.75,0.047 -0.262,-0.113 -0.453,-0.043 -0.453,-0.043 0,0 0.209,0.204 0.212,0.337 0.005,0.192 0.223,0.045 0.304,0.065 0.152,0.038 0.146,0.138 0.049,0.17 -0.197,0.066 0.201,0.183 0.201,0.183 0,0 -0.277,0.1 -0.383,-0.048 -0.106,-0.146 -0.306,-0.032 -0.391,-0.211 -0.086,-0.179 0.006,-0.232 -0.141,-0.359 -0.148,-0.126 -0.347,-0.065 -0.347,-0.065 0,0 -0.26,0.406 -0.554,0.879 -0.293,0.475 -0.491,0.807 -0.491,0.807"/><path id="path40" style="fill:#fde549;fill-opacity:1;fill-rule:nonzero;stroke:none" d="m 16.3823,16.4238 c 0,0 0.129,0.094 0.227,0 0.097,-0.095 0.091,-0.307 0.091,-0.307 0,0 -0.389,-0.417 -0.698,-0.876 -0.31,-0.459 -0.429,-0.7 -0.429,-0.7 0,0 0.163,-0.084 0.324,-0.035 0.347,0.106 0.488,-0.038 0.488,-0.038 0,0 -0.306,0.023 -0.083,-0.197 0.072,-0.071 -0.108,-0.218 -0.343,-0.021 -0.093,0.077 -0.809,0.003 -0.809,0.003 0,0 -0.357,-0.191 -0.489,-0.326 -0.132,-0.135 -0.303,-0.399 -0.376,-0.164 -0.047,0.154 -0.224,-0.051 -0.224,-0.051 0,0 -0.014,0.147 0.139,0.247 0.153,0.1 0.618,0.365 0.618,0.365 0,0 -0.492,0.216 -0.801,0.173 -0.232,-0.032 -0.324,-0.11 -0.417,-0.223 -0.093,-0.113 -0.274,-0.029 -0.195,0.064 0.183,0.212 -0.214,0.183 -0.214,0.183 0,0 -0.033,0.168 0.447,0.141 0.479,-0.026 0.282,0.25 0.75,0.047 0.262,-0.113 0.454,-0.043 0.454,-0.043 0,0 -0.21,0.204 -0.213,0.337 -0.004,0.192 -0.223,0.045 -0.303,0.065 -0.153,0.038 -0.147,0.138 -0.05,0.17 0.198,0.066 -0.2,0.183 -0.2,0.183 0,0 0.277,0.1 0.383,-0.048 0.106,-0.146 0.305,-0.032 0.391,-0.211 0.085,-0.179 -0.006,-0.232 0.141,-0.359 0.147,-0.126 0.347,-0.065 0.347,-0.065 0,0 0.259,0.406 0.553,0.879 0.293,0.475 0.491,0.807 0.491,0.807"/><path id="path42" style="fill:#fde549;fill-opacity:1;fill-rule:nonzero;stroke:none" d="m 18.1782,23.4233 c 0,0 -0.065,0.008 -0.28,0.073 -0.216,0.064 -0.402,0.131 -0.402,0.131 0,0 0.337,0.1 0.753,0.027 0.416,-0.072 0.498,0.371 0.245,0.606 -0.366,0.341 -0.741,0.047 -0.741,0.047 0,0 -0.173,0.16 -0.424,0.138 -0.349,-0.032 -0.372,-0.308 -0.372,-0.308 0,0 -0.085,0.177 -0.016,0.349 0.096,0.239 0.402,0.269 0.402,0.269 0,0 0.027,0.104 0.086,0.143 0.094,0.063 0.174,-0.025 0.174,-0.025 0,0 -0.036,-0.236 0.544,-0.334 0.58,-0.098 0.741,-0.447 0.682,-0.675 -0.121,-0.466 -0.651,-0.441 -0.651,-0.441"/></g></g></g></g></svg>