<svg xmlns:dc="http://purl.org/dc/elements/1.1/" xmlns:cc="http://creativecommons.org/ns#" xmlns:rdf="http://www.w3.org/1999/02/22-rdf-syntax-ns#" xmlns:svg="http://www.w3.org/2000/svg" xmlns="http://www.w3.org/2000/svg" viewBox="0 0 45 45" style="enable-background:new 0 0 45 45;" xml:space="preserve" version="1.1" id="svg2"><metadata id="metadata8"><rdf:RDF><cc:Work rdf:about=""><dc:format>image/svg+xml</dc:format><dc:type rdf:resource="http://purl.org/dc/dcmitype/StillImage"/></cc:Work></rdf:RDF></metadata><defs id="defs6"><clipPath id="clipPath16" clipPathUnits="userSpaceOnUse"><path id="path18" d="M 0,36 36,36 36,0 0,0 0,36 Z"/></clipPath></defs><g transform="matrix(1.25,0,0,-1.25,0,45)" id="g10"><g id="g12"><g xmlns="http://www.w3.org/2000/svg" clip-path="url(#clipPath16)" id="g14"><g id="g30"><path id="path20" style="fill:#141414;fill-opacity:1;fill-rule:nonzero;stroke:none" d="m 32,31.0001 -28,0 c -2.209,0 -4,-1.791 -4,-4 l 0,-4.67 36,0 0,4.67 c 0,2.209 -1.791,4 -4,4"/><path id="path22" style="fill:#dd0000;fill-opacity:1;fill-rule:nonzero;stroke:none" d="m 36,22.3301 -36,0 0,-8.66 36,0 0,8.66 z"/><path id="path24" style="fill:#ffce00;fill-opacity:1;fill-rule:nonzero;stroke:none" d="M 0,13.67 0,9 C 0,6.791 1.791,5 4,5 l 28,0 c 2.209,0 4,1.791 4,4 l 0,4.67 -36,0 z"/></g><g id="g34"><path id="path30" style="fill:#141414;fill-opacity:1;fill-rule:nonzero;stroke:none" d="m 18,18.8941 0,-8.7 c 3.094,0 6.37,2.697 6.37,6.318 l 0,2.382 -6.37,0 z"/><path id="path32" style="fill:#ffcf00;fill-opacity:1;fill-rule:nonzero;stroke:none" d="m 18,18.8941 0,-8.7 c -3.094,0 -6.371,2.697 -6.371,6.318 l 0,2.382 6.371,0 z"/><path id="path34" style="fill:#dd0000;fill-opacity:1;fill-rule:nonzero;stroke:none" d="m 18.002,10.1944 -6.371,7.764 -0.002,0.936 2.248,-0.002 4.121,-5.056 0.004,-3.642 z"/><path id="path36" style="fill:#eeeeee;fill-opacity:1;fill-rule:nonzero;stroke:none" d="m 18,25.7711 6.37,0 0,-6.876 -6.37,0 0,6.876 z"/><path id="path38" style="fill:#dd0000;fill-opacity:1;fill-rule:nonzero;stroke:none" d="m 21.7412,21.6783 0,-2.784 -1.111,0 -10e-4,2.784 -2.629,0 0,1.112 2.629,0 10e-4,2.98 1.111,0 0,-2.98 2.629,0 0,-1.112 -2.629,0 z"/><path id="path40" style="fill:#0f70c2;fill-opacity:1;fill-rule:nonzero;stroke:none" d="m 18,25.7711 -6.371,0 0,-6.876 6.371,0 0,6.876 z"/></g></g></g></g></svg>