<svg xmlns:dc="http://purl.org/dc/elements/1.1/" xmlns:cc="http://creativecommons.org/ns#" xmlns:rdf="http://www.w3.org/1999/02/22-rdf-syntax-ns#" xmlns:svg="http://www.w3.org/2000/svg" xmlns="http://www.w3.org/2000/svg" viewBox="0 0 45 45" style="enable-background:new 0 0 45 45;" xml:space="preserve" version="1.1" id="svg2"><metadata id="metadata8"><rdf:RDF><cc:Work rdf:about=""><dc:format>image/svg+xml</dc:format><dc:type rdf:resource="http://purl.org/dc/dcmitype/StillImage"/></cc:Work></rdf:RDF></metadata><defs id="defs6"><clipPath id="clipPath16" clipPathUnits="userSpaceOnUse"><path id="path18" d="M 4,31 C 1.791,31 0,29.209 0,27 L 0,27 0,9 C 0,6.791 1.791,5 4,5 l 0,0 28,0 c 2.209,0 4,1.791 4,4 l 0,0 0,18 c 0,2.209 -1.791,4 -4,4 l 0,0 -28,0 z"/></clipPath></defs><g transform="matrix(1.25,0,0,-1.25,0,45)" id="g10"><g id="g12"><g xmlns="http://www.w3.org/2000/svg" clip-path="url(#clipPath16)" id="g14"><path id="path20" style="fill:#73c5ee" d="M 0,4.9984 H 36 V 31.0016 H 0 Z"/><g id="g30"><path id="path30" style="fill:#f5f100" d="m 29.13984,12.92192 c 0,0 0.0496,-0.3304 -0.4296,-0.5496 -0.74,-0.3312 -0.7896,0.3 -1.3704,0.1688 -0.6696,-0.16 -0.9896,-1.1096 -1.98,-1.0688 -0.98,0.0496 -1.5696,0.7792 -1.5696,0.7792 l -5.68,2.0296 -6.0704,-2.44 c 0,0 -0.8896,1.0904 -1.8096,0.6704 -0.62,-0.28 -0.7504,-0.7896 -1.44,-0.9304 -0.6104,-0.1296 -0.86,0.0808 -1.1104,0.0504 -0.1496,-0.02 -0.2896,-0.3096 -0.2896,-0.3096 0,0 -0.18,0.2896 0.18,0.6696 0.56,0.6 0.8496,0.0304 1.3296,0.3704 0.4504,0.3192 0.5,1.0192 0.96,1.46 l -2.8896,0.4592 4.2896,0.7 c -0.2296,0.3504 -0.5896,0.7 -1.1096,0.6808 -0.68,-0.0208 -0.9904,-0.44 -1.6904,-0.3104 -0.6096,0.1208 -0.76,0.4 -1.0096,0.4704 -0.14,0.04 -0.38,-0.1808 -0.38,-0.1808 0,0 -0.0504,0.34 0.4296,0.5608 0.74,0.3296 0.7904,-0.3 1.3704,-0.1704 0.5296,0.1304 0.84,0.7496 1.44,0.98 l -2.5,1.54 4.2296,-1.0104 c -0.0696,0.4104 -0.2696,0.8704 -0.76,1.0608 -0.6296,0.2392 -1.0896,-0.0304 -1.6696,0.36 -0.5304,0.34 -0.5504,0.66 -0.76,0.82 -0.12,0.0896 -0.42,-0.02 -0.42,-0.02 0,0 0.08,0.34 0.6096,0.3496 0.8104,0.0296 0.62,-0.58 1.2,-0.68 0.54,-0.0904 1.06,0.3704 1.7104,0.36 l -1.72,2.3704 3.5296,-2.5504 c 0.08,0.4 0.0704,0.9104 -0.3096,1.2704 -0.4904,0.4696 -1.0104,0.3896 -1.4104,0.98 -0.3496,0.5096 -0.2496,0.82 -0.38,1.04 -0.08,0.1296 -0.3896,0.1496 -0.3896,0.1496 0,0 0.2,0.28 0.6896,0.0896 0.76,-0.2896 0.3504,-0.7792 0.8504,-1.0896 0.4696,-0.28 1.1296,-0.0696 1.7096,-0.3296 l -0.68,2.86 2.28,-3.7104 c 0.24,0.34 0.4304,0.8104 0.2104,1.2904 -0.28,0.62 -0.78,0.7496 -0.9304,1.44 -0.1296,0.6096 0.08,0.86 0.0504,1.1096 -0.02,0.1504 -0.3104,0.2904 -0.3104,0.2904 0,0 0.2904,0.18 0.68,-0.18 0.5904,-0.56 0.02,-0.8504 0.36,-1.3304 0.3304,-0.4504 1.0304,-0.5 1.46,-0.9696 l 0.4704,2.9 0.6896,-4.2904 c 0.3504,0.2304 0.7,0.5904 0.68,1.1096 -0.02,0.6808 -0.44,0.9904 -0.3096,1.6808 0.1192,0.6192 0.4,0.7696 0.4696,1.0192 0.04,0.1408 -0.1696,0.3808 -0.1696,0.3808 0,0 0.3296,0.0496 0.5504,-0.4304 0.3296,-0.74 -0.3,-0.7896 -0.1704,-1.3696 0.1296,-0.5304 0.7496,-0.84 0.9792,-1.44 l 1.5408,2.5 -1.0104,-4.2304 c 0.4104,0.0704 0.8696,0.2704 1.0608,0.76 0.2392,0.6296 -0.0208,1.08 0.3592,1.6704 0.3408,0.5296 0.66,0.5496 0.82,0.7592 0.0904,0.1208 -0.02,0.4208 -0.02,0.4208 0,0 0.3408,-0.08 0.3496,-0.6104 0.0304,-0.8104 -0.5792,-0.62 -0.6792,-1.2 -0.0904,-0.54 0.3704,-1.06 0.36,-1.7104 l 2.3696,1.7208 -2.5504,-3.5304 c 0.4,-0.08 0.9104,-0.0696 1.2704,0.3096 0.4704,0.4904 0.4,1.0104 0.98,1.4104 0.5096,0.3504 0.82,0.2504 1.0408,0.38 0.1392,0.08 0.1496,0.3904 0.1496,0.3904 0,0 0.28,-0.2 0.0896,-0.6904 -0.2896,-0.76 -0.78,-0.3496 -1.0896,-0.8496 -0.28,-0.4704 -0.0704,-1.1304 -0.32,-1.7104 l 2.8496,0.68 -3.7096,-2.2896 c 0.3392,-0.2304 0.8096,-0.4208 1.2896,-0.2 0.62,0.2792 0.7496,0.7792 1.4408,0.9296 0.6088,0.1304 0.8592,-0.08 1.1088,-0.0504 0.1608,0.0208 0.2912,0.3104 0.2912,0.3104 0,0 0.1792,-0.2896 -0.1808,-0.68 -0.56,-0.5904 -0.8496,-0.02 -1.3296,-0.36 -0.4504,-0.3304 -0.5,-1.0304 -0.9704,-1.46 l 2.9,-0.4704 -4.3,-0.6896 c 0.2304,-0.34 0.6,-0.7 1.12,-0.68 0.68,0.02 1,0.44 1.6904,0.3104 0.6096,-0.12 0.76,-0.4 1.0096,-0.4704 0.1504,-0.04 0.38,0.1704 0.38,0.1704"/><path id="path31" style="fill:#f5ca00" d="m 21.07344,19.11056 1.2952,5.4664 -2.1224,-5.124 z m -7.7928,-1.8576 -5.4664,1.2952 5.124,-2.1224 z m 10.3352,-1.6536 4.7808,2.9488 -5.124,-2.1224 z m -6.8232,4.196 -2.9504,4.7816 2.1232,-5.124 z m 5.9008,-2.188 3.2888,4.5552 -3.9224,-3.9216 z m -7.9096,1.2664 -4.5552,3.2888 3.9224,-3.9216 z m 8.9144,-5.4832 5.5472,0.8952 h -5.5472 z m -11.1856,1.7904 -5.5464,-0.8952 h 5.5464 z m 5.5928,4.6976 v 5.5464 l 0.8952,-5.5464 z"/><path id="path32" style="fill:#1d97df" d="m 24.79456,14.286 c 0,3.6944 -2.9944,6.6888 -6.6888,6.6888 -3.6944,0 -6.6896,-2.9944 -6.6896,-6.6888 0,-3.6944 2.9952,-6.6888 6.6896,-6.6888 3.6944,0 6.6888,2.9944 6.6888,6.6888"/><path id="path33" style="fill:#ffffff" d="m 20.23832,18.3172 0.0344,-0.2384 0.1936,-0.1432 -0.2152,-0.1064 -0.076,-0.2288 -0.1688,0.1728 -0.2408,0.0016 0.1128,0.2128 -0.0736,0.2296 0.2376,-0.0408 z"/><path id="path34" style="fill:#ffffff" d="m 20.3172,19.3524 0.0352,-0.2384 0.1936,-0.1432 -0.216,-0.1056 -0.076,-0.2288 -0.168,0.172 -0.2408,0.0016 0.112,0.2136 -0.0728,0.2288 0.2376,-0.04 z"/><path id="path35" style="fill:#ffffff" d="m 21.24688,18.22856 0.0176,-0.24 0.1832,-0.1568 -0.2224,-0.0904 -0.0928,-0.2224 -0.1552,0.184 -0.24,0.0184 0.1264,0.2048 -0.056,0.2344 0.2336,-0.0576 z"/><path id="path36" style="fill:#ffffff" d="m 21.72344,19.42272 0.0048,-0.2408 0.1744,-0.1664 -0.2288,-0.0784 -0.1032,-0.2168 -0.1456,0.192 -0.2384,0.032 0.1384,0.1976 -0.044,0.2368 0.2304,-0.0704 z"/><path id="path37" style="fill:#a95e37" d="m 24.77344,14.59304 -0.4352,0.3088 -0.28,0.056 h -0.1616 l -0.2352,0.0256 -0.2376,-0.0408 -0.4456,0.2848 -0.22,0.0744 -0.6464,0.376 -1.2392,0.9968 -0.6648,0.4368 -1.504,-1.5488 0.016,1.9624 -0.0392,0.6784 -0.1256,0.6 -0.1328,0.3216 -1.3104,1.912 -1.4552,-0.9664 -0.2936,-0.1928 -0.2984,-0.2472 -0.176,-0.6936 -0.1336,-0.7448 -0.0744,-0.9928 -1.004,-0.3216 -0.1456,-0.1256 -0.3328,-0.4232 -0.4784,-0.404 -0.8752,-0.4392 -0.388,-0.3528 v -3.8032 h 13.5744 z"/><path id="path38" style="fill:#883a28" d="m 17.78832,16.51328 v -0.1808 l 0.0608,-0.2544 -0.0608,0.0512 -0.1032,-0.0336 h -0.1352 l -0.2768,-0.1176 -0.0776,-0.2256 0.0296,-0.0896 0.1928,0.0272 0.2976,0.1256 0.412,0.0352 0.1608,0.1368 0.0544,0.2784 -0.0816,0.3928 -0.0496,0.7544 -0.132,0.312 -0.1416,-0.024 -0.0672,-0.2056 0.0056,-0.6504 z m -1.8608,0.0856 -0.2984,-0.4464 -0.0704,-0.5016 0.228,-0.4944 h 0.1096 l 0.0744,0.1728 0.0904,-0.0552 0.0704,0.0664 0.2232,-0.0664 0.208,0.0664 0.016,0.1144 0.196,0.1168 -0.012,0.256 -0.1608,0.2072 0.0944,0.4392 0.1288,2.0824 -0.0936,1.3568 -0.0744,-0.0352 -0.1808,-0.3648 -0.0744,-1.6472 -0.0904,-0.1488 -0.0824,-0.016 -0.0824,0.228 0.0512,0.5608 -0.0464,1.0232 -0.0592,-0.0192 -0.0784,-0.1648 -0.1064,-0.4664 -0.0624,0.0344 -0.1256,0.4632 -0.0904,-0.0312 0.0176,-1.2984 -0.0704,-0.288 -0.1232,0.2584 v 0.324 l -0.088,0.3112 h -0.0768 l -0.1472,-0.2936 -0.076,-0.0592 -0.1944,-0.7528 -0.1904,-0.332 z m 1.8432,-4.8232 -3.8264,2.1024 0.6936,0.732 0.08,-0.1384 v -0.1496 l 0.1552,-0.1088 0.2384,-0.02 0.892,0.332 0.4288,0.3296 0.1712,0.0112 0.064,-0.0408 -0.056,-0.1648 -0.0824,0.0176 -0.1464,-0.1496 -0.092,-0.0184 0.0416,-0.1936 -0.0824,-0.1152 -0.3208,-0.0112 -0.6352,-0.0824 0.0208,-0.056 -0.0416,-0.1264 0.624,-0.1176 1.244,0.0736 0.2592,0.1024 -0.0064,0.1 -0.2496,0.1264 -0.3592,-0.0168 -0.132,0.076 0.044,0.0912 0.2912,0.0792 0.7024,0.032 0.3744,0.1 0.1528,0.1832 -0.0176,0.132 -0.1272,0.068 -0.0728,0.0648 -0.4824,0.0816 v 0.0296 l 0.4056,0.0504 0.1528,-0.036 0.168,0.036 0.0408,0.112 0.2352,0.152 0.0616,0.1032 0.1224,0.0144 0.5776,-0.2648 0.2064,-0.0048 0.1384,0.7816 0.2584,0.0888 0.0184,0.1056 h 0.0672 l 0.0472,0.6464 0.352,0.0896 0.1368,-0.0904 0.152,-0.2696 -0.0704,-0.1816 0.0968,-0.744 0.0184,-0.5768 0.1672,-0.0416 0.1616,0.08 -0.0472,0.188 0.0528,0.2 0.124,0.0856 0.1704,-0.2096 0.0328,-0.2672 0.1728,-0.0848 0.2088,0.0728 0.1856,0.144 0.3408,0.0504 0.4856,-0.0592 0.2192,-0.0736 0.4456,-0.2848 0.2728,-0.0376 0.1016,-0.1688 0.2944,-0.1248 0.0936,-0.0984 -0.2584,-0.1296 -0.2312,-0.36 z m 0.8824,2.6808 0.0368,-0.2 -0.0744,-0.1728 -0.2312,-0.0584 -0.0456,-0.0592 0.1592,-0.1624 0.2512,-0.0592 0.1704,0.0496 0.1528,0.2192 0.1784,0.0472 0.1496,0.1672 -0.0624,0.156 -0.3536,0.2152 -0.2232,-0.0208 z m -4.7496,2.192 0.1792,-0.0056 0.3616,-0.1976 h 0.1496 l -0.0496,-0.3736 -0.1592,-0.276 -0.2528,-0.1624 0.0352,-0.2112 0.188,-0.0792 0.0856,0.2088 0.368,0.3912 0.1408,0.0616 0.0912,-0.0592 0.0592,-0.2 -0.0208,-0.3168 -0.1208,-0.2064 -0.1616,-0.1584 -0.3992,-0.1504 -0.1136,-0.408 -0.4904,-0.604 h -1.0848 v 0.4888 l 0.2464,0.1352 0.1912,0.1616 0.092,-0.0032 0.132,-0.1256 0.3,0.008 0.2088,-0.0408 0.2296,0.1296 0.0792,0.208 -0.2232,-0.0432 -0.192,0.0496 -0.2056,0.2208 -0.5704,0.008 -0.288,0.0712 -0.1648,-0.0824 0.0224,-0.1088 0.148,-0.0864 0.044,-0.0752 -0.068,-0.0384 -0.1936,0.0088 -0.0824,-0.1768 -0.3112,-0.1736 0.0432,-0.9352 h -0.6896 v 1.6312 l 1.2624,0.7928 0.4784,0.404 0.3336,0.4232 0.1448,0.1256 z"/><path id="path39" style="fill:#ffffff" d="m 19.2664,14.99928 -0.1192,0.1024 -0.1808,0.0704 h -0.252 l -0.1184,-0.06 -0.012,-0.1288 0.0808,-0.148 0.108,-0.0728 0.1112,0.0272 0.0848,-0.0648 0.1568,-0.0112 0.1248,0.0216 0.1728,-0.0752 0.1912,-0.0208 0.1976,0.1056 0.376,-0.1096 0.1624,0.1056 0.1472,-0.0288 0.3528,0.0816 0.0536,0.1336 -0.1496,0.1 -0.3504,-0.0488 -0.592,0.0816 z m 3.2832,-0.156 0.1328,-0.0264 0.0864,-0.0384 0.1432,0.0168 0.08,0.0456 -0.0424,0.0944 -0.1848,0.0976 -0.2768,0.0176 -0.2704,0.0368 -0.168,-0.064 -0.1184,-0.1336 -0.1728,-0.0544 -0.1328,0.0472 -0.1752,-0.0768 -0.1608,0.0024 -0.0776,-0.0672 -0.02,-0.1056 -0.2336,-0.0456 -0.2208,-0.084 -0.188,-0.12 -0.2688,-0.0584 -0.116,-0.092 0.012,-0.0832 0.1568,-0.1032 0.8408,-0.328 0.3632,0.4784 -0.4024,-0.0392 -0.1248,0.0336 -0.0224,0.0848 0.0648,0.0544 c 0,0 0.1888,0.0272 0.1968,0.0296 0.0072,0.0016 0.3048,0.1248 0.3048,0.1248 l 0.1768,0.1224 h 0.2296 l 0.1664,0.0664 0.1568,0.1728 0.1496,0.0368 z m -4.0672,2.2704 -0.0504,0.1912 -0.02,0.4176 -0.0824,0.032 -0.068,0.2824 -0.0232,0.3824 -0.1648,0.2528 -0.1064,0.0528 -0.1232,-0.0912 -0.1056,-0.376 -0.0944,-0.8064 v -0.7296 l 0.0736,-0.208 h 0.0704 l 0.0888,0.332 -0.0064,0.6496 0.068,0.2064 0.1408,0.0232 0.1328,-0.3112 0.1824,-0.3 z m -4.7824,-0.324 0.2232,-0.0912 0.312,0.0296 0.3976,-0.1032 0.2112,0.0152 0.344,-0.212 0.568,0.0032 0.3088,-0.0648 -0.0856,-0.1264 0.0736,-0.1736 0.3856,-0.0328 0.1792,0.0528 0.144,-0.0352 0.0856,-0.1912 -0.0648,-0.144 0.1144,-0.1616 h 0.1528 l 0.124,0.1352 0.1,0.2888 0.276,0.1168 h 0.1352 l 0.0536,0.0744 -0.0264,0.144 -0.0888,0.1 -0.032,0.1024 -0.0792,0.0328 -0.0504,0.2176 -0.1088,0.0824 -0.0704,-0.0736 -0.0208,-0.2152 0.0208,-0.1816 -0.0352,-0.0768 -0.08,-0.0232 -0.1552,0.1936 -0.1416,0.1032 -0.1112,-0.0056 -0.1592,-0.124 -0.1032,0.0704 -0.044,0.1536 -0.244,0.1672 -0.3592,0.0736 -0.7408,0.2208 -0.428,0.068 -0.2016,0.0144 -0.2944,-0.0352 -0.2728,-0.1032 -0.1792,-0.1176 -0.056,-0.0792 z m 4.7216,2.3352 v 0.1888 l -0.1392,0.4176 -0.5232,0.8648 -0.524,0.6112 -0.2472,0.2352 -0.1408,0.0416 -0.324,-0.3296 -0.2352,-0.4352 -0.4528,-0.3232 -0.1784,-0.3256 0.384,0.1368 0.1536,-0.3176 0.088,-0.5824 0.0704,-0.1352 0.088,0.112 0.1888,0.7232 0.1528,0.2536 0.1528,-0.036 0.188,-0.2288 0.1768,-0.5592 0.1176,-0.1232 0.1232,0.088 0.136,0.3296 0.1288,0.1176 0.1944,-0.1648 0.3056,-0.4944 z m 1.828,-2.2296 -0.0952,-0.3856 -0.0312,-0.1808 -0.0936,-0.0432 -0.1648,0.1536 -0.0544,-0.1376 -0.0472,-0.7848 -0.1128,-0.0464 0.0024,-0.1184 -0.1024,-0.0736 -0.14,0.0232 -0.0672,0.1104 -0.3288,0.0384 -0.2288,0.112 H 18.704 l 8e-4,0.0728 0.0776,0.1248 0.2552,0.1728 0.3448,0.3688 0.392,0.7608 0.1136,0.0824 0.0824,0.0744 h 0.0904 l 0.1472,-0.1072 z"/></g><path id="path40" style="fill:#291873" d="m 36,11.5016 c -1.0104,0.5104 -1.8104,1.3896 -3.4704,1.3896 -2.3496,0 -2.98,-1.76 -4.9096,-1.76 -1.92,0 -2.5496,1.76 -4.9,1.76 -2.3496,0.0104 -2.98,-1.76 -4.9096,-1.76 -1.9208,0 -2.56,1.7704 -4.9,1.7704 C 10.56,12.9016 9.92,11.1312 8,11.1312 c -1.92,0 -2.56,1.7704 -4.9104,1.7704 -1.44,0 -2.24,-0.6704 -3.0896,-1.1896 V 4.9984 h 36 z"/><path id="path41" style="fill:#eeeeee" d="m 36,9.04144 v -1.5 c -1.0104,0.52 -1.8104,1.4 -3.4704,1.4 -2.3496,0 -2.98,-1.7696 -4.9096,-1.7696 -1.92,0 -2.5496,1.7696 -4.9,1.7696 -2.3496,0 -2.98,-1.7696 -4.9096,-1.7696 -1.9208,0 -2.56,1.7696 -4.9,1.7696 C 10.56,8.94144 9.92,7.17184 8,7.17184 c -1.92,0 -2.56,1.7696 -4.9104,1.7696 -1.44,0 -2.24,-0.6696 -3.0896,-1.1896 v 1.5 c 0.8496,0.52 1.6496,1.1896 3.0896,1.1896 2.3504,0 2.9904,-1.7696 4.9104,-1.7696 1.92,0 2.56,1.7696 4.9104,1.7696 2.34,0 2.9792,-1.7696 4.9,-1.7696 1.9296,0 2.56,1.7696 4.9096,1.7696 2.3504,0 2.98,-1.7696 4.9,-1.7696 1.9296,0 2.56,1.7696 4.9096,1.7696 1.66,0 2.46,-0.88 3.4704,-1.4"/><path id="path42" style="fill:#eeeeee" d="m 36,13.0016 v -1.5 c -1.0104,0.5104 -1.8104,1.3896 -3.4704,1.3896 -2.3496,0 -2.98,-1.76 -4.9096,-1.76 -1.92,0 -2.5496,1.76 -4.9,1.76 -2.3496,0.0104 -2.98,-1.76 -4.9096,-1.76 -1.9208,0 -2.56,1.7704 -4.9,1.7704 C 10.56,12.9016 9.92,11.1312 8,11.1312 c -1.92,0 -2.56,1.7704 -4.9104,1.7704 -1.44,0 -2.24,-0.6704 -3.0896,-1.1896 v 1.5 c 0.8496,0.5192 1.6496,1.1896 3.0896,1.1896 2.3504,0 2.9904,-1.7704 4.9104,-1.7704 1.92,0 2.56,1.7704 4.9104,1.7704 2.34,0 2.9792,-1.7704 4.9,-1.7704 1.9296,0 2.56,1.7704 4.9096,1.7704 2.3504,-0.0104 2.98,-1.7704 4.9,-1.7704 1.9296,0 2.56,1.76 4.9096,1.76 1.66,0 2.46,-0.8792 3.4704,-1.3896"/></g></g></g></svg>