<svg xmlns:dc="http://purl.org/dc/elements/1.1/" xmlns:cc="http://creativecommons.org/ns#" xmlns:rdf="http://www.w3.org/1999/02/22-rdf-syntax-ns#" xmlns:svg="http://www.w3.org/2000/svg" xmlns="http://www.w3.org/2000/svg" viewBox="0 0 45 45" style="enable-background:new 0 0 45 45;" xml:space="preserve" version="1.1" id="svg2"><metadata id="metadata8"><rdf:RDF><cc:Work rdf:about=""><dc:format>image/svg+xml</dc:format><dc:type rdf:resource="http://purl.org/dc/dcmitype/StillImage"/></cc:Work></rdf:RDF></metadata><defs id="defs6"><clipPath id="clipPath16" clipPathUnits="userSpaceOnUse"><path id="path18" d="M 4,31 C 1.791,31 0,29.209 0,27 L 0,27 0,9 C 0,6.791 1.791,5 4,5 l 0,0 28,0 c 2.209,0 4,1.791 4,4 l 0,0 0,18 c 0,2.209 -1.791,4 -4,4 l 0,0 -28,0 z"/></clipPath></defs><g transform="matrix(1.25,0,0,-1.25,0,45)" id="g10"><g id="g12"><g xmlns="http://www.w3.org/2000/svg" clip-path="url(#clipPath16)" id="g14"><g id="g30"><path id="path20" style="fill:#3399cc;fill-opacity:1;fill-rule:nonzero;stroke:none" d="m 0,5 35.906,0 0,25.999 L 0,30.999 0,5 z"/></g><g id="g32"><path id="path30" style="fill:#ffffff;fill-opacity:1;fill-rule:nonzero;stroke:none" d="m 21.7568,26.793 0.309,-1.014 1.04,0.014 -0.84,-0.62 0.325,-1.026 -0.834,0.634 -0.833,-0.634 0.325,1.026 -0.841,0.62 1.041,-0.014 0.308,1.014 z"/><path id="path31" style="fill:#ffffff;fill-opacity:1;fill-rule:nonzero;stroke:none" d="m 27.3174,26.793 0.308,-1.014 1.041,0.014 -0.84,-0.62 0.325,-1.026 -0.834,0.634 -0.834,-0.634 0.325,1.026 -0.84,0.62 1.041,-0.014 0.308,1.014 z"/><path id="path32" style="fill:#ffffff;fill-opacity:1;fill-rule:nonzero;stroke:none" d="m 32.8779,26.793 0.308,-1.014 1.041,0.014 -0.841,-0.62 0.325,-1.026 -0.833,0.634 -0.834,-0.634 0.325,1.026 -0.84,0.62 1.04,-0.014 0.309,1.014 z"/><path id="path33" style="fill:#ffffff;fill-opacity:1;fill-rule:nonzero;stroke:none" d="m 21.7568,19.0742 0.309,-1.014 1.04,0.014 -0.84,-0.62 0.325,-1.026 -0.834,0.633 -0.833,-0.633 0.325,1.026 -0.841,0.62 1.041,-0.014 0.308,1.014 z"/><path id="path34" style="fill:#ffffff;fill-opacity:1;fill-rule:nonzero;stroke:none" d="m 27.3174,19.0742 0.308,-1.014 1.041,0.014 -0.84,-0.62 0.325,-1.026 -0.834,0.633 -0.834,-0.633 0.325,1.026 -0.84,0.62 1.041,-0.014 0.308,1.014 z"/><path id="path35" style="fill:#ffffff;fill-opacity:1;fill-rule:nonzero;stroke:none" d="m 32.8779,19.0742 0.308,-1.014 1.041,0.014 -0.841,-0.62 0.325,-1.026 -0.833,0.633 -0.834,-0.633 0.325,1.026 -0.84,0.62 1.04,-0.014 0.309,1.014 z"/><path id="path36" style="fill:#ffffff;fill-opacity:1;fill-rule:nonzero;stroke:none" d="m 21.7568,11.3555 0.309,-1.015 1.04,0.015 -0.84,-0.62 0.325,-1.026 -0.834,0.633 -0.833,-0.633 0.325,1.026 -0.841,0.62 1.041,-0.015 0.308,1.015 z"/><path id="path37" style="fill:#ffffff;fill-opacity:1;fill-rule:nonzero;stroke:none" d="m 27.3174,11.3555 0.308,-1.015 1.041,0.015 -0.84,-0.62 0.325,-1.026 -0.834,0.633 -0.834,-0.633 0.325,1.026 -0.84,0.62 1.041,-0.015 0.308,1.015 z"/><path id="path38" style="fill:#ffffff;fill-opacity:1;fill-rule:nonzero;stroke:none" d="m 32.8779,11.3555 0.308,-1.015 1.041,0.015 -0.841,-0.62 0.325,-1.026 -0.833,0.633 -0.834,-0.633 0.325,1.026 -0.84,0.62 1.04,-0.015 0.309,1.015 z"/></g><g id="g34"><path id="path40" style="fill:#fdca32;fill-opacity:1;fill-rule:nonzero;stroke:none" d="m 11.8843,13.8477 c 0,2.89 -2.342,5.231 -5.231,5.231 -2.89,0 -5.231,-2.341 -5.231,-5.231 0,-2.889 2.341,-5.231 5.231,-5.231 2.889,0 5.231,2.342 5.231,5.231"/><path id="path41" style="fill:#3399cc;fill-opacity:1;fill-rule:nonzero;stroke:none" d="m 10.4756,13.8477 c 0,2.111 -1.711,3.823 -3.823,3.823 -2.111,0 -3.822,-1.712 -3.822,-3.823 0,-2.111 1.711,-3.822 3.822,-3.822 2.112,0 3.823,1.711 3.823,3.822"/><path id="path42" style="fill:#fdca32;fill-opacity:1;fill-rule:nonzero;stroke:none" d="m 6.1367,14.0508 c 0,0.912 -0.739,1.651 -1.65,1.651 -0.912,0 -1.651,-0.739 -1.651,-1.651 0,-0.911 0.739,-1.65 1.651,-1.65 0.911,0 1.65,0.739 1.65,1.65"/><path id="path43" style="fill:#3399cc;fill-opacity:1;fill-rule:nonzero;stroke:none" d="m 5.0332,14.1318 c 0,0.373 -0.303,0.676 -0.676,0.676 -0.373,0 -0.676,-0.303 -0.676,-0.676 0,-0.373 0.303,-0.676 0.676,-0.676 0.373,0 0.676,0.303 0.676,0.676"/></g><g id="g36"><path id="path50" style="fill:#d21034;fill-opacity:1;fill-rule:nonzero;stroke:none" d="M 11.888,23.881 0,23.881 0,31 l 11.888,0 0,-7.119 z"/><path id="path51" style="fill:#009543;fill-opacity:1;fill-rule:nonzero;stroke:none" d="m 11.888,27.441 -11.888,0 0,-3.56 11.888,0 0,3.56 z"/><path id="path52" style="fill:#141414;fill-opacity:1;fill-rule:nonzero;stroke:none" d="m 0.1572,31 4.497,-2.738 7.234,0 0,-1.642 -7.234,0 -4.48,-2.739 -0.174,0 0,7.119 0.157,0 z"/><path id="path53" style="fill:#fdce12;fill-opacity:1;fill-rule:nonzero;stroke:none" d="m 11.8882,27.7144 0,-0.547 -7.234,0 -4.654,-2.845 0,6.237 4.654,-2.845 7.234,0 z"/><path id="path54" style="fill:#141414;fill-opacity:1;fill-rule:nonzero;stroke:none" d="M 0,29.9048 4.107,27.4408 0,24.9768 l 0,4.928 z"/><path id="path55" style="fill:#fdce12;fill-opacity:1;fill-rule:nonzero;stroke:none" d="m 1.1978,26.4536 c 0,0 0.89,0.137 0.89,1.016 0,0.54 -0.468,0.838 -0.833,0.838 -0.365,0 -0.753,-0.273 -0.753,-0.753 0,-0.479 0.445,-0.627 0.662,-0.627 0.217,0 0.548,0.171 0.502,0.547 -0.127,-0.523 -0.661,-0.508 -0.867,-0.194 -0.228,0.348 0.125,0.844 0.582,0.708 0.432,-0.13 0.455,-0.57 0.308,-0.845 -0.183,-0.342 -0.485,-0.325 -0.485,-0.325 l -0.006,-0.365 z"/><path id="path56" style="fill:#fdce12;fill-opacity:1;fill-rule:nonzero;stroke:none" d="m 0.9355,27.2407 c 0,0 -0.009,0.123 0.046,0.194 0.176,0.234 0.49,0.4 0.53,0.376 0.04,-0.022 -0.108,-0.068 -0.262,-0.25 -0.074,-0.088 -0.119,-0.172 -0.177,-0.229 -0.063,-0.061 -0.137,-0.091 -0.137,-0.091"/><path id="path57" style="fill:#fdce12;fill-opacity:1;fill-rule:nonzero;stroke:none" d="m 1.5176,27.2407 c 0,0 0.009,0.123 -0.046,0.194 -0.176,0.234 -0.49,0.4 -0.53,0.376 -0.04,-0.022 0.108,-0.068 0.263,-0.25 0.073,-0.088 0.118,-0.172 0.176,-0.229 0.063,-0.061 0.137,-0.091 0.137,-0.091"/></g></g></g></g></svg>