<svg xmlns="http://www.w3.org/2000/svg" viewBox="0 0 45 45" enable-background="new 0 0 45 45"><defs><clipPath id="a"><path d="M0 36h36V0H0v36z"/></clipPath></defs><g><g><g clip-path="url(#a)" transform="matrix(1.25 0 0 -1.25 0 45)"><g><path fill="#292f33" d="M32 31H4c-2.2 0-4-1.8-4-4V9c0-2.2 1.8-4 4-4h28c2.2 0 4 1.8 4 4v18c0 2.2-1.8 4-4 4"/></g><g><path fill="#292f33" d="M15.5 25c-.83 0-1.5-.67-1.5-1.5 0-1.5.67-1.5 1.5-1.5s1.5.67 1.5 1.5 0 1.5-1.5 1.5"/></g><g><path fill="#292f33" d="M20.5 25c-1.5 0-1.5-.67-1.5-1.5s.67-1.5 1.5-1.5 1.5 0 1.5 1.5c0 .83-.67 1.5-1.5 1.5"/></g><g><path fill="#292f33" d="M18 21c-.55 0-1-.22-1-.5s.45-.5 1-.5 1 .22 1 .5-.45.5-1 .5"/></g><g><path fill="#e6e7e8" d="M29.02 11.12c-.52.2-1.1-.08-1.28-.6L20.92 13l6.82 2.48c.2-.52.76-.8 1.28-.6.52.2.8.76.6 1.28-.2.52-.76.8-1.28.6.52.2.78.76.6 1.28-.2.52-.77.8-1.3.6-.5-.2-.77-.76-.58-1.28L18 14.06l-9.06 3.3c.2.52-.07 1.1-.6 1.28-.5.2-1.1-.08-1.27-.6-.2-.52.07-1.1.6-1.28-.53.2-1.1-.08-1.3-.6-.18-.52.1-1.1.6-1.28.53-.2 1.1.08 1.3.6l6.8-2.48-6.8-2.48c-.2.52-.77.8-1.3.6-.5-.2-.78-.76-.6-1.28.2-.52.77-.8 1.3-.6-.53-.2-.8-.76-.6-1.28.18-.52.76-.8 1.28-.6.52.2.78.76.6 1.28l9.05 3.3 9.05-3.3c-.18-.52.08-1.1.6-1.28.52-.2 1.1.08 1.28.6.2.52-.07 1.1-.6 1.28.53-.2 1.1.08 1.3.6.18.52-.1 1.1-.6 1.28"/></g><g><path fill="#e6e7e8" d="M20.5 22c-.83 0-1.5.67-1.5 1.5s0 1.5 1.5 1.5c.83 0 1.5-.67 1.5-1.5 0-1.5-.67-1.5-1.5-1.5M18 20c-.55 0-1 .22-1 .5s.45.5 1 .5 1-.22 1-.5-.45-.5-1-.5m-2.5 2c-.83 0-1.5 0-1.5 1.5 0 .83.67 1.5 1.5 1.5 1.5 0 1.5-.67 1.5-1.5s-.67-1.5-1.5-1.5m2.5 7c-4 0-6-3.24-6-6 0-1.4.83-2.4 2-3.05V18c0-.55.45-1 1-1s1 .45 1 1v1.22c.33-.08.67-.13 1-.17V18c0-.55.45-1 1-1s1 .45 1 1v1.05c.34.04.67.1 1 .17V18c0-.55.45-1 1-1s1 .45 1 1v1.95c1.17.65 2 1.66 2 3.05 0 2.76-2 6-6 6"/></g></g></g></g></svg>