<svg xmlns:dc="http://purl.org/dc/elements/1.1/" xmlns:cc="http://creativecommons.org/ns#" xmlns:rdf="http://www.w3.org/1999/02/22-rdf-syntax-ns#" xmlns:svg="http://www.w3.org/2000/svg" xmlns="http://www.w3.org/2000/svg" viewBox="0 0 45 45" style="enable-background:new 0 0 45 45;" xml:space="preserve" version="1.1" id="svg2"><metadata id="metadata8"><rdf:RDF><cc:Work rdf:about=""><dc:format>image/svg+xml</dc:format><dc:type rdf:resource="http://purl.org/dc/dcmitype/StillImage"/></cc:Work></rdf:RDF></metadata><defs id="defs6"><clipPath id="clipPath16" clipPathUnits="userSpaceOnUse"><path id="path18" d="M 0,36 36,36 36,0 0,0 0,36 Z"/></clipPath></defs><g transform="matrix(1.25,0,0,-1.25,0,45)" id="g10"><g id="g12"><g xmlns="http://www.w3.org/2000/svg" clip-path="url(#clipPath16)" id="g14"><g id="g30"><path id="path20" style="fill:#002fa9;fill-opacity:1;fill-rule:nonzero;stroke:none" d="m 0,9.004 c 0,-2.209 1.791,-4 4,-4 l 28,0 c 2.209,0 4,1.791 4,4 l 0,18 c 0,2.209 -1.791,4 -4,4 l -28,0 c -2.209,0 -4,-1.791 -4,-4 l 0,-18 z"/></g><g id="g34"><path id="path30" style="fill:#ffd800;fill-opacity:1;fill-rule:nonzero;stroke:none" d="m 24.499,18.0045 c 0,3.59 -2.909,6.5 -6.499,6.5 -3.589,0 -6.5,-2.91 -6.5,-6.5 0,-3.589 2.911,-6.5 6.5,-6.5 3.59,0 6.499,2.911 6.499,6.5"/><path id="path31" style="fill:#0030ab;fill-opacity:1;fill-rule:nonzero;stroke:none" d="m 24.3721,18.0045 c 0,3.52 -2.853,6.373 -6.372,6.373 -3.52,0 -6.372,-2.853 -6.372,-6.373 0,-3.519 2.852,-6.373 6.372,-6.373 3.519,0 6.372,2.854 6.372,6.373"/><path id="path32" style="fill:#ffd800;fill-opacity:1;fill-rule:nonzero;stroke:none" d="m 22.3369,18.0045 c 0,2.396 -1.941,4.337 -4.337,4.337 -2.395,0 -4.337,-1.941 -4.337,-4.337 0,-2.395 1.942,-4.336 4.337,-4.336 2.396,0 4.337,1.941 4.337,4.336"/><path id="path33" style="fill:#b18525;fill-opacity:1;fill-rule:nonzero;stroke:none" d="m 18.9375,17.9366 c 0.012,-0.035 0.025,-0.067 0.038,-0.101 0.045,-0.109 0.095,-0.233 0.095,-0.421 0,-0.365 -0.344,-0.547 -0.684,-0.567 -0.162,-0.01 -0.313,-0.163 -0.315,-0.164 l -0.071,-0.073 -0.072,0.073 c -0.002,0.001 -0.153,0.154 -0.315,0.164 -0.341,0.019 -0.684,0.202 -0.684,0.567 0,0.187 0.05,0.311 0.094,0.42 0.013,0.034 0.027,0.067 0.039,0.102 0.018,0.052 0.038,0.124 0.038,0.224 0,0.171 -0.155,0.295 -0.156,0.296 l -0.089,0.07 0.412,0.411 0.066,-0.034 c 0,0 0.091,-0.047 0.2,-0.047 0.039,0 0.064,0.008 0.105,0.021 0.069,0.021 0.162,0.05 0.362,0.05 0.199,0 0.292,-0.029 0.361,-0.05 0.041,-0.013 0.066,-0.021 0.105,-0.021 0.109,0 0.2,0.047 0.2,0.047 l 0.066,0.034 0.412,-0.411 -0.089,-0.07 c -10e-4,-0.001 -0.156,-0.125 -0.156,-0.296 0,-0.078 0.012,-0.145 0.038,-0.224"/><path id="path34" style="fill:#ce0000;fill-opacity:1;fill-rule:nonzero;stroke:none" d="m 17.1567,17.9044 c -0.05,-0.149 -0.127,-0.267 -0.127,-0.49 0,-0.301 0.296,-0.45 0.59,-0.467 0.204,-0.012 0.38,-0.194 0.38,-0.194 0,0 0.177,0.182 0.381,0.194 0.293,0.017 0.59,0.166 0.59,0.467 0,0.223 -0.077,0.341 -0.128,0.49 l -1.686,0 z"/><path id="path35" style="fill:#063d90;fill-opacity:1;fill-rule:nonzero;stroke:none" d="m 17.1567,17.9044 c 0.025,0.073 0.043,0.153 0.043,0.256 0,0.224 -0.194,0.375 -0.194,0.375 l 0.28,0.28 c 0,0 0.11,-0.058 0.247,-0.058 0.138,0 0.16,0.07 0.467,0.07 0.308,0 0.33,-0.07 0.467,-0.07 0.137,0 0.247,0.058 0.247,0.058 l 0.28,-0.28 c 0,0 -0.194,-0.151 -0.194,-0.375 0,-0.103 0.019,-0.183 0.043,-0.256 l -1.686,0 z"/><path id="path36" style="fill:#ffffff;fill-opacity:1;fill-rule:nonzero;stroke:none" d="m 18,18.4884 0.127,-0.424 0.441,0.011 -0.363,-0.252 0.147,-0.417 -0.352,0.268 -0.352,-0.268 0.147,0.417 -0.364,0.252 0.442,-0.011 0.127,0.424 z"/></g><g id="g38"><path id="path40" style="fill:#ffd800;fill-opacity:1;fill-rule:nonzero;stroke:none" d="m 14.9443,13.4513 0.062,0.216 c 0.014,0.049 0.03,0.092 0.045,0.133 l -10e-4,10e-4 c -0.034,-0.03 -0.07,-0.06 -0.107,-0.088 l -0.182,-0.135 0.183,-0.127 z m -0.241,0.077 -0.196,-0.147 -0.081,0.056 0.628,0.464 0.094,-0.066 -0.214,-0.75 -0.084,0.057 0.068,0.237 -0.215,0.149 z"/><path id="path41" style="fill:#ffd800;fill-opacity:1;fill-rule:nonzero;stroke:none" d="m 15.1416,12.9591 0.329,0.658 0.093,-0.047 0.044,-0.437 c 0.011,-0.102 0.014,-0.191 0.012,-0.274 l 0.002,0 c 0.036,0.092 0.074,0.173 0.125,0.276 l 0.138,0.275 0.08,-0.04 -0.329,-0.658 -0.086,0.043 -0.042,0.438 c -0.009,0.096 -0.015,0.194 -0.013,0.282 l -0.003,0 c -0.037,-0.085 -0.075,-0.165 -0.129,-0.275 l -0.141,-0.281 -0.08,0.04 z"/><path id="path42" style="fill:#ffd800;fill-opacity:1;fill-rule:nonzero;stroke:none" d="m 16.251,13.1817 -0.212,0.075 0.026,0.077 0.519,-0.183 -0.028,-0.076 -0.213,0.075 -0.22,-0.622 -0.092,0.031 0.22,0.623 z"/><path id="path43" style="fill:#ffd800;fill-opacity:1;fill-rule:nonzero;stroke:none" d="m 16.6094,12.7511 c -0.033,-0.154 0.021,-0.31 0.167,-0.341 0.147,-0.031 0.26,0.086 0.295,0.25 0.031,0.143 -0.012,0.309 -0.167,0.342 -0.153,0.032 -0.261,-0.093 -0.295,-0.251 m 0.562,-0.108 c -0.054,-0.247 -0.232,-0.347 -0.416,-0.307 -0.19,0.04 -0.292,0.216 -0.246,0.435 0.049,0.228 0.224,0.347 0.416,0.305 0.196,-0.042 0.291,-0.22 0.246,-0.433"/><path id="path44" style="fill:#ffd800;fill-opacity:1;fill-rule:nonzero;stroke:none" d="m 17.3579,12.9913 0.399,-0.033 -0.007,-0.08 -0.303,0.025 -0.021,-0.246 0.281,-0.023 -0.007,-0.08 -0.28,0.024 -0.028,-0.335 -0.096,0.008 0.062,0.74 z"/><path id="path45" style="fill:#ffd800;fill-opacity:1;fill-rule:nonzero;stroke:none" d="m 18.1831,12.5206 -0.076,0.213 c -0.017,0.048 -0.028,0.092 -0.04,0.134 l -0.002,0 c -0.01,-0.044 -0.022,-0.089 -0.036,-0.134 l -0.069,-0.216 0.223,0.003 z m -0.242,-0.078 -0.073,-0.234 -0.1,-0.001 0.242,0.744 0.115,0.002 0.263,-0.738 -0.102,-10e-4 -0.082,0.232 -0.263,-0.004 z"/><path id="path46" style="fill:#ffd800;fill-opacity:1;fill-rule:nonzero;stroke:none" d="m 19.1357,12.3546 c -0.04,-0.022 -0.119,-0.06 -0.218,-0.075 -0.11,-0.018 -0.206,-0.003 -0.288,0.054 -0.072,0.05 -0.126,0.142 -0.144,0.256 -0.032,0.218 0.092,0.401 0.338,0.438 0.083,0.014 0.153,0.005 0.187,-0.005 l -0.012,-0.08 c -0.041,0.011 -0.092,0.017 -0.166,0.006 -0.177,-0.028 -0.276,-0.157 -0.248,-0.339 0.029,-0.186 0.157,-0.277 0.327,-0.251 0.063,0.01 0.103,0.024 0.123,0.039 l -0.034,0.218 -0.148,-0.024 -0.012,0.076 0.241,0.038 0.054,-0.351 z"/><path id="path47" style="fill:#ffd800;fill-opacity:1;fill-rule:nonzero;stroke:none" d="m 19.665,12.7813 -0.132,0.184 c -0.03,0.041 -0.053,0.08 -0.076,0.118 l -0.002,-10e-4 c 0.002,-0.045 0.004,-0.092 0.003,-0.14 l -0.007,-0.226 0.214,0.065 z m -0.211,-0.143 -0.006,-0.245 -0.095,-0.029 0.026,0.783 0.11,0.033 0.458,-0.635 -0.097,-0.03 -0.144,0.201 -0.252,-0.078 z"/><path id="path48" style="fill:#ffd800;fill-opacity:1;fill-rule:nonzero;stroke:none" d="m 20.0859,12.7237 c 0.05,-0.007 0.116,-0.002 0.177,0.025 0.09,0.039 0.121,0.11 0.091,0.178 -0.028,0.064 -0.081,0.084 -0.188,0.079 -0.128,-0.01 -0.222,0.018 -0.264,0.114 -0.045,0.105 0.007,0.222 0.139,0.281 0.069,0.03 0.127,0.036 0.165,0.032 l 0.007,-0.082 c -0.027,0.002 -0.081,0.003 -0.143,-0.024 -0.092,-0.041 -0.103,-0.112 -0.084,-0.159 0.029,-0.063 0.083,-0.076 0.194,-0.071 0.134,0.006 0.217,-0.023 0.26,-0.123 0.046,-0.105 0.008,-0.229 -0.152,-0.3 -0.065,-0.029 -0.145,-0.041 -0.192,-0.033 l -0.01,0.083 z"/><path id="path49" style="fill:#ffd800;fill-opacity:1;fill-rule:nonzero;stroke:none" d="m 20.4941,13.5177 -0.197,-0.109 -0.04,0.071 0.48,0.267 0.039,-0.072 -0.198,-0.11 0.32,-0.576 -0.084,-0.047 -0.32,0.576 z"/><path id="path50" style="fill:#ffd800;fill-opacity:1;fill-rule:nonzero;stroke:none" d="m 21.2578,13.5958 -0.185,0.132 c -0.041,0.03 -0.076,0.059 -0.11,0.089 l -0.001,-0.002 c 0.017,-0.042 0.032,-0.086 0.047,-0.132 l 0.065,-0.218 0.184,0.131 z m -0.156,-0.203 0.073,-0.236 -0.081,-0.058 -0.226,0.754 0.095,0.067 0.639,-0.459 -0.084,-0.06 -0.2,0.145 -0.216,-0.153 z"/><path id="path51" style="fill:#ffd800;fill-opacity:1;fill-rule:nonzero;stroke:none" d="m 12.6143,19.6212 0.709,-0.206 -0.026,-0.091 -0.71,0.205 0.027,0.092 z"/><path id="path52" style="fill:#ffd800;fill-opacity:1;fill-rule:nonzero;stroke:none" d="m 13.3926,19.648 -0.679,0.288 0.041,0.095 0.436,0.073 c 0.1,0.016 0.189,0.025 0.272,0.028 l 0,0.002 c -0.094,0.031 -0.177,0.063 -0.283,0.108 l -0.285,0.121 0.036,0.082 0.678,-0.288 -0.037,-0.088 L 13.1356,20 c -0.096,-0.016 -0.192,-0.028 -0.281,-0.031 l 0,-0.004 c 0.088,-0.031 0.17,-0.064 0.283,-0.111 l 0.29,-0.123 -0.035,-0.083 z"/><path id="path53" style="fill:#ffd800;fill-opacity:1;fill-rule:nonzero;stroke:none" d="m 13.2646,20.8634 -0.119,-0.19 -0.068,0.042 0.289,0.465 0.069,-0.043 -0.12,-0.192 0.559,-0.348 -0.051,-0.082 -0.559,0.348 z"/><path id="path54" style="fill:#ffd800;fill-opacity:1;fill-rule:nonzero;stroke:none" d="m 14.0854,21.4405 -0.18,-0.224 0.207,-0.167 0.201,0.25 0.063,-0.05 -0.261,-0.324 -0.576,0.463 0.25,0.311 0.063,-0.051 -0.191,-0.236 0.182,-0.146 0.18,0.223 0.062,-0.049 z"/><path id="path55" style="fill:#ffd800;fill-opacity:1;fill-rule:nonzero;stroke:none" d="m 14.5156,21.378 -0.504,0.545 0.077,0.071 0.429,-0.114 c 0.1,-0.026 0.185,-0.055 0.262,-0.086 l 10e-4,0.001 c -0.074,0.067 -0.137,0.132 -0.215,0.217 l -0.211,0.228 0.066,0.062 0.504,-0.546 -0.071,-0.066 -0.429,0.117 c -0.094,0.026 -0.188,0.054 -0.27,0.088 l -0.002,-0.003 c 0.068,-0.065 0.13,-0.129 0.214,-0.22 l 0.215,-0.232 -0.066,-0.062 z"/><path id="path56" style="fill:#ffd800;fill-opacity:1;fill-rule:nonzero;stroke:none" d="m 15.1665,22.0289 c 0.022,0.009 0.052,0.027 0.083,0.048 0.17,0.111 0.201,0.266 0.093,0.432 -0.094,0.146 -0.237,0.186 -0.405,0.076 -0.041,-0.027 -0.07,-0.051 -0.088,-0.069 l 0.317,-0.487 z m -0.435,0.494 c 0.044,0.039 0.098,0.082 0.162,0.123 0.114,0.074 0.212,0.101 0.299,0.085 0.088,-0.015 0.166,-0.065 0.231,-0.165 0.066,-0.1 0.088,-0.203 0.068,-0.297 -0.021,-0.095 -0.096,-0.188 -0.216,-0.266 -0.056,-0.037 -0.106,-0.065 -0.149,-0.087 l -0.395,0.607 z"/><path id="path57" style="fill:#ffd800;fill-opacity:1;fill-rule:nonzero;stroke:none" d="m 16.0435,22.8185 -0.264,-0.12 0.112,-0.245 0.294,0.134 0.033,-0.073 -0.382,-0.174 -0.308,0.679 0.367,0.167 0.033,-0.074 -0.279,-0.127 0.097,-0.214 0.264,0.12 0.033,-0.073 z"/><path id="path58" style="fill:#ffd800;fill-opacity:1;fill-rule:nonzero;stroke:none" d="m 16.4102,22.588 -0.206,0.709 0.1,0.029 0.332,-0.293 c 0.077,-0.068 0.139,-0.131 0.194,-0.194 l 0.002,0.002 c -0.036,0.093 -0.063,0.178 -0.095,0.289 l -0.086,0.297 0.086,0.025 0.206,-0.71 -0.093,-0.027 -0.33,0.295 c -0.072,0.065 -0.143,0.132 -0.201,0.199 l -0.003,-0.002 c 0.032,-0.088 0.058,-0.173 0.093,-0.291 l 0.087,-0.303 -0.086,-0.025 z"/><path id="path59" style="fill:#ffd800;fill-opacity:1;fill-rule:nonzero;stroke:none" d="m 17.688,22.8717 c -0.033,-0.022 -0.101,-0.048 -0.191,-0.06 -0.209,-0.025 -0.383,0.087 -0.413,0.33 -0.029,0.231 0.108,0.408 0.338,0.437 0.092,0.011 0.153,-0.001 0.18,-0.011 l -0.013,-0.081 c -0.039,0.013 -0.092,0.02 -0.153,0.012 -0.174,-0.022 -0.276,-0.147 -0.251,-0.341 0.022,-0.182 0.141,-0.286 0.321,-0.263 0.058,0.008 0.117,0.027 0.153,0.051 l 0.029,-0.074 z"/><path id="path60" style="fill:#ffd800;fill-opacity:1;fill-rule:nonzero;stroke:none" d="m 17.9736,23.5894 0.01,-0.741 -0.095,-0.001 -0.011,0.741 0.096,0.001 z"/><path id="path61" style="fill:#ffd800;fill-opacity:1;fill-rule:nonzero;stroke:none" d="m 18.6484,23.1153 -0.049,0.221 c -0.012,0.05 -0.017,0.095 -0.023,0.139 l -0.002,0 c -0.017,-0.042 -0.033,-0.086 -0.053,-0.13 l -0.096,-0.206 0.223,-0.024 z m -0.251,-0.048 -0.103,-0.224 -0.099,0.011 0.334,0.712 0.115,-0.013 0.171,-0.768 -0.103,0.011 -0.052,0.242 -0.263,0.029 z"/><path id="path62" style="fill:#ffd800;fill-opacity:1;fill-rule:nonzero;stroke:none" d="m 19.6406,23.3414 -0.216,-0.709 -0.092,0.027 0.216,0.71 0.092,-0.028 z"/><path id="path63" style="fill:#ffd800;fill-opacity:1;fill-rule:nonzero;stroke:none" d="m 20.0293,23.2027 -0.267,-0.689 -0.088,0.034 0.266,0.689 0.089,-0.034 z"/><path id="path64" style="fill:#ffd800;fill-opacity:1;fill-rule:nonzero;stroke:none" d="m 20.5918,22.5567 0.084,-0.05 c 0.088,-0.053 0.173,-0.038 0.216,0.035 0.05,0.082 0.012,0.154 -0.075,0.207 -0.04,0.023 -0.071,0.037 -0.086,0.041 l -0.139,-0.233 z m 0.091,0.34 c 0.047,-0.017 0.109,-0.048 0.166,-0.081 0.088,-0.053 0.135,-0.103 0.153,-0.162 0.016,-0.048 0.007,-0.102 -0.022,-0.152 -0.05,-0.084 -0.136,-0.108 -0.217,-0.091 l -0.002,-0.002 c 0.039,-0.047 0.041,-0.11 0.017,-0.185 -0.033,-0.101 -0.054,-0.172 -0.055,-0.204 l -0.085,0.051 c 0,0.024 0.018,0.087 0.048,0.177 0.034,0.1 0.019,0.153 -0.054,0.2 l -0.077,0.047 -0.165,-0.276 -0.082,0.048 0.375,0.63 z"/><path id="path65" style="fill:#ffd800;fill-opacity:1;fill-rule:nonzero;stroke:none" d="m 21.4023,21.9249 -0.224,0.18 -0.167,-0.207 0.249,-0.201 -0.049,-0.063 -0.325,0.261 0.463,0.576 0.312,-0.25 -0.05,-0.063 -0.237,0.191 -0.147,-0.182 0.225,-0.18 -0.05,-0.062 z"/><path id="path66" style="fill:#ffd800;fill-opacity:1;fill-rule:nonzero;stroke:none" d="m 21.7656,21.1114 c -0.041,0.021 -0.117,0.066 -0.185,0.14 -0.076,0.083 -0.118,0.17 -0.117,0.27 0.002,0.089 0.048,0.186 0.133,0.264 0.164,0.149 0.386,0.148 0.555,-0.035 0.058,-0.063 0.09,-0.125 0.1,-0.159 l -0.073,-0.036 c -0.014,0.041 -0.037,0.087 -0.088,0.142 -0.123,0.133 -0.285,0.143 -0.422,0.017 -0.138,-0.128 -0.142,-0.287 -0.025,-0.414 0.043,-0.046 0.078,-0.072 0.101,-0.081 l 0.163,0.151 -0.103,0.111 0.057,0.052 0.166,-0.179 -0.262,-0.243 z"/><path id="path67" style="fill:#ffd800;fill-opacity:1;fill-rule:nonzero;stroke:none" d="m 22.5684,21.273 -0.596,-0.442 -0.057,0.077 0.596,0.442 0.057,-0.077 z"/><path id="path68" style="fill:#ffd800;fill-opacity:1;fill-rule:nonzero;stroke:none" d="m 23.1309,20.6861 -0.18,0.06 -0.038,0.069 0.161,-0.027 0.057,-0.102 z m -0.67,0.082 c -0.138,-0.077 -0.221,-0.221 -0.147,-0.353 0.074,-0.132 0.237,-0.139 0.384,-0.058 0.129,0.072 0.226,0.214 0.149,0.353 -0.077,0.139 -0.243,0.137 -0.386,0.058 m 0.29,-0.497 c -0.223,-0.124 -0.416,-0.054 -0.508,0.112 -0.095,0.171 -0.029,0.365 0.167,0.473 0.205,0.115 0.411,0.062 0.507,-0.111 0.099,-0.177 0.027,-0.367 -0.166,-0.474"/><path id="path69" style="fill:#ffd800;fill-opacity:1;fill-rule:nonzero;stroke:none" d="m 22.5137,19.8897 0.7,0.247 0.034,-0.099 -0.274,-0.349 c -0.064,-0.081 -0.123,-0.147 -0.183,-0.206 l 10e-4,-0.001 c 0.091,0.041 0.175,0.073 0.284,0.111 l 0.293,0.104 0.03,-0.085 -0.699,-0.247 -0.033,0.091 0.277,0.347 c 0.06,0.077 0.124,0.151 0.187,0.213 l -0.002,0.003 c -0.086,-0.036 -0.17,-0.068 -0.286,-0.109 l -0.299,-0.105 -0.03,0.085 z"/></g></g></g></g></svg>