<svg xmlns:dc="http://purl.org/dc/elements/1.1/" xmlns:cc="http://creativecommons.org/ns#" xmlns:rdf="http://www.w3.org/1999/02/22-rdf-syntax-ns#" xmlns:svg="http://www.w3.org/2000/svg" xmlns="http://www.w3.org/2000/svg" viewBox="0 0 45 45" style="enable-background:new 0 0 45 45;" xml:space="preserve" version="1.1" id="svg2"><metadata id="metadata8"><rdf:RDF><cc:Work rdf:about=""><dc:format>image/svg+xml</dc:format><dc:type rdf:resource="http://purl.org/dc/dcmitype/StillImage"/></cc:Work></rdf:RDF></metadata><defs id="defs6"><clipPath id="clipPath16" clipPathUnits="userSpaceOnUse"><path id="path18" d="M 4,31 C 1.791,31 0,29.209 0,27 L 0,27 0,9 C 0,6.791 1.791,5 4,5 l 0,0 28,0 c 2.209,0 4,1.791 4,4 l 0,0 0,18 c 0,2.209 -1.791,4 -4,4 l 0,0 -28,0 z"/></clipPath></defs><g transform="matrix(1.25,0,0,-1.25,0,45)" id="g10"><g id="g12"><g xmlns="http://www.w3.org/2000/svg" clip-path="url(#clipPath16)" id="g14"><g id="g30"><path id="path20" d="M 36,5 H 0 v 26 h 36 z" style="fill:#eeeeee;fill-opacity:1;fill-rule:nonzero;stroke:none"/></g><g id="g32"><path id="path30" d="M 36,29 H 0 v 2 h 36 z" style="fill:#212125;fill-opacity:1;fill-rule:nonzero;stroke:none"/><path id="path31" d="M 36,25 H 0 v 2 h 36 z" style="fill:#212125;fill-opacity:1;fill-rule:nonzero;stroke:none"/><path id="path32" d="M 36,21 H 0 v 2 h 36 z" style="fill:#212125;fill-opacity:1;fill-rule:nonzero;stroke:none"/><path id="path33" d="M 36,17 H 0 v 2 h 36 z" style="fill:#212125;fill-opacity:1;fill-rule:nonzero;stroke:none"/><path id="path34" d="M 36,13 H 0 v 2 h 36 z" style="fill:#212125;fill-opacity:1;fill-rule:nonzero;stroke:none"/><path id="path35" d="M 36,9 H 0 v 2 h 36 z" style="fill:#212125;fill-opacity:1;fill-rule:nonzero;stroke:none"/><path id="path36" d="M 36,5 H 0 v 2 h 36 z" style="fill:#212125;fill-opacity:1;fill-rule:nonzero;stroke:none"/></g><g id="g34"><path id="path40" style="fill:#c40008;fill-opacity:1;fill-rule:nonzero;stroke:none" d="M 15,21 H 0 v 10 h 15 z"/><path id="path41" style="fill:#ffec00;fill-opacity:1;fill-rule:nonzero;stroke:none" d="m 12.999,30.4932 -0.337,-1.039 H 11.57 l 0.883,-0.642 -0.337,-1.038 0.883,0.642 0.884,-0.642 -0.338,1.038 0.884,0.642 h -1.092 z"/><path id="path42" style="fill:#ffec00;fill-opacity:1;fill-rule:nonzero;stroke:none" d="m 12.999,24.4927 -0.337,-1.039 H 11.57 l 0.883,-0.642 -0.337,-1.039 0.883,0.642 0.884,-0.642 -0.338,1.039 0.884,0.642 h -1.092 z"/><path id="path43" style="fill:#ffec00;fill-opacity:1;fill-rule:nonzero;stroke:none" d="m 2.001,30.4932 0.337,-1.039 H 3.43 l -0.883,-0.642 0.337,-1.038 -0.883,0.642 -0.884,-0.642 0.338,1.038 -0.884,0.642 h 1.092 z"/><path id="path44" style="fill:#ffec00;fill-opacity:1;fill-rule:nonzero;stroke:none" d="m 2.001,24.4927 0.337,-1.039 H 3.43 l -0.883,-0.642 0.337,-1.039 -0.883,0.642 -0.884,-0.642 0.338,1.039 -0.884,0.642 h 1.092 z"/><path id="path45" style="fill:#ffffff;fill-opacity:1;fill-rule:nonzero;stroke:none" d="m 11.4922,26 c 0,2.205 -1.788,3.992 -3.992,3.992 -2.205,0 -3.992,-1.787 -3.992,-3.992 0,-2.205 1.787,-3.992 3.992,-3.992 2.204,0 3.992,1.787 3.992,3.992"/><path id="path46" style="fill:#294292;fill-opacity:1;fill-rule:nonzero;stroke:none" d="m 4.8862,27.3257 0.09,0.433 -0.015,0.185 -0.075,0.088 0.01,0.148 0.108,-0.021 0.009,0.084 -0.09,-0.017 -0.016,0.141 0.33,0.01 0.059,0.078 0.176,-0.251 0.14,0.01 0.16,0.163 0.046,-0.035 0.072,0.113 -0.076,0.057 -0.005,0.118 0.042,0.1 -0.102,0.015 0.017,0.079 0.065,0.027 0.092,-0.076 0.122,-0.047 v 0.049 l 0.074,0.051 h 0.122 l 0.025,0.047 0.12,0.049 0.01,0.086 0.114,0.01 0.011,-0.132 h 0.046 l 0.058,-0.158 -0.092,-0.096 0.051,-0.12 -0.006,-0.102 0.141,-0.078 0.112,0.072 0.355,0.049 -0.035,0.092 0.214,0.042 0.113,-0.075 0.259,0.008 0.182,0.341 0.065,0.02 0.041,-0.089 0.012,-0.121 0.078,-0.225 h 0.103 l 0.015,-0.075 -0.121,-0.149 -0.179,-0.167 -0.045,-0.174 0.175,0.061 0.068,-0.163 0.284,0.078 0.141,0.165 0.24,-0.018 0.39,-0.18 -0.074,-0.231 0.06,0.029 0.04,0.096 0.082,-0.023 0.078,0.045 0.385,-0.132 0.15,0.028 0.203,-0.061 0.431,-0.353 0.22,-0.01 0.082,-0.249 0.014,-0.264 -0.108,-0.226 -0.384,-0.398 -0.079,-0.187 -0.221,-0.113 -0.04,-0.506 -0.211,-0.606 -0.273,-0.402 -0.184,-0.149 -0.373,0.043 -0.133,-0.139 -0.132,0.01 -0.378,-0.269 -0.051,-0.447 -0.236,-0.245 -0.046,-0.169 -0.186,-0.16 -0.032,0.039 0.179,0.21 -0.06,0.029 -0.162,-0.253 -0.026,-0.178 -0.119,-0.077 -0.026,0.083 0.065,0.054 -0.1,0.124 -0.251,0.202 -0.057,-0.027 -0.106,0.143 -0.073,-0.042 -0.05,0.028 0.031,0.061 0.051,0.027 0.067,0.112 0.276,0.255 0.092,-0.006 0.046,0.186 -0.067,0.112 -0.073,-0.012 -0.002,0.077 0.067,0.215 -0.19,0.01 -0.077,0.253 -0.331,0.024 0.015,0.2 -0.06,0.182 0.102,0.284 -0.129,0.161 -0.02,0.145 h -0.269 l -0.068,0.208 0.041,0.002 -0.032,0.195 -0.152,0.07 -0.032,-0.046 -0.347,0.205 -0.129,-0.03 -0.161,0.226 -0.002,0.259 -0.232,-0.046 -0.225,-0.19 -0.363,-0.026 -0.011,0.242 -0.154,-0.102 -0.213,0.129 0.029,0.039 -0.168,0.275 0.043,0.017 0.004,0.11 0.07,0.055 0.051,0.253 0.342,0.159 z"/><path id="path47" style="fill:#294292;fill-opacity:1;fill-rule:nonzero;stroke:none" d="m 8.5171,28.0576 -0.111,-0.098 0.016,-0.053 -0.159,-0.033 -0.016,-0.036 -0.1,0.023 0.008,0.03 -0.049,0.008 -0.009,0.073 0.026,0.039 -0.017,0.047 0.066,0.057 0.165,0.007 0.039,-0.041 0.035,0.047 0.086,-0.013 z"/><path id="path48" style="fill:#294292;fill-opacity:1;fill-rule:nonzero;stroke:none" d="m 8.2187,28.2578 -0.061,-0.026 -0.042,-0.057 0.017,-0.033 0.034,0.047 0.01,-0.047 0.086,0.012 0.028,0.046 -0.088,0.01 z"/><path id="path49" style="fill:#294292;fill-opacity:1;fill-rule:nonzero;stroke:none" d="m 8.0732,28.1548 0.023,-0.021 0.01,-0.037 -0.033,-0.011 -0.012,0.042 z"/><path id="path50" style="fill:#294292;fill-opacity:1;fill-rule:nonzero;stroke:none" d="m 8.0469,28.1201 0.006,-0.048 -0.031,-0.078 -0.079,-0.075 h -0.024 v 0.029 l 0.08,0.13 z"/></g></g></g></g></svg>