<svg xmlns="http://www.w3.org/2000/svg" viewBox="0 0 45 45" enable-background="new 0 0 45 45"><defs><clipPath id="a"><path d="M0 36h36V0H0v36z"/></clipPath></defs><g><g><g clip-path="url(#a)" transform="matrix(1.25 0 0 -1.25 0 45)"><g><path fill="#ffd983" d="M8.42 24.58c-.58-.6-1.53-.6-2.12 0-.58.58-.58 1.53 0 2.12.6.58 1.54.58 2.12 0 .6-.6.6-1.54 0-2.12m23.6-8.76L17.34 30.25c-.65.66-1.52.75-2.38.75H4.87C3.03 31 2 29.97 2 28.12V18.05c0-.88.1-1.74.75-2.4L17.3 1c1.3-1.3 3.38-1.3 4.7 0l10.05 10.1c1.3 1.3 1.28 3.43-.03 4.74"/></g><g><path fill="#d99e82" d="M8.42 24.58c-.58-.6-1.53-.6-2.12 0-.58.58-.58 1.53 0 2.12.6.58 1.54.58 2.12 0 .6-.6.6-1.54 0-2.12m1.53 3.65c-1.43 1.43-3.75 1.43-5.18 0-1.43-1.43-1.43-3.75 0-5.18 1.43-1.43 3.75-1.43 5.18 0 1.43 1.43 1.43 3.75 0 5.18"/></g><g><path fill="#c1694f" d="M8.5 25.5c-.38-.4-1.02-.4-1.4 0-.4.4-.4 1.02 0 1.4l8.48 8.5c.4.4 1.02.4 1.4 0 .4-.4.4-1.03 0-1.42L8.52 25.5z"/></g></g></g></g></svg>