<svg xmlns="http://www.w3.org/2000/svg" viewBox="0 0 45 45"><path fill="#eeeeee" d="M 45,29.52375 V 33.75 c 0,2.76125 -2.23875,5 -5,5 H 5 c -2.76125,0 -5,-2.23875 -5,-5 v -4.245 z"/><path fill="#02d703" d="m 0,29.514376 h 45 v -4.685 H 0 Z"/><path fill="#ee0103" d="m 0,24.829374 h 45 v -4.685 H 0 Z"/><path fill="#02d703" d="m 0,20.144375 h 45 v -4.685 H 0 Z"/><path fill="#eeeeee" d="M 0,15.45875 V 11.25 c 0,-2.76125 2.23875,-5 5,-5 h 35 c 2.76125,0 5,2.23875 5,5 v 4.22625 z"/><path fill="#fed20d" d="m 30.499875,15.780125 c 0,0 -0.22,2.74 -0.31,4.96 -0.1,2.45 -0.12,4.49 -1.31,6.82 -2.1,4.08 -6.38,5.06 -6.38,5.06 v 0.01 c 0,0 -4.28,-0.99 -6.38,-5.07 -1.19,-2.33 -1.21,-4.37 -1.31,-6.82 -0.09,-2.22 -0.31,-4.96 -0.31,-4.96 z"/><path fill="#02d703" d="m 15.179875,16.410125 h 9.32 v 14.72 c -0.92,0.51 -1.7,0.77 -2,0.85 -0.73,-0.21 -4.09,-1.35 -5.82,-4.7 -1.07,-2.08 -1.14,-3.89 -1.23,-6.18 l -0.01,-0.39 c -0.07,-1.54 -0.19,-3.35 -0.26,-4.3 z"/><path fill="#eeeeee" d="m 29.819875,16.410125 c -0.07,0.95 -0.2,2.76 -0.26,4.3 l -0.01,0.39 c -0.09,2.29 -0.16,4.1 -1.23,6.18 -0.88,1.69 -2.17,2.82 -3.32,3.55 v -14.42 z"/><path fill="#fed20d" d="m 30.119875,11.880125 -0.66,1.92 c -0.07,-0.02 -0.14,-0.04 -0.22,-0.07 -0.08,-0.02 -0.16,-0.04 -0.25,-0.06 l -0.73,2.11 c 0,0 -1.68,-0.84 -5.76,-0.84 -4.08,0 -5.76,0.84 -5.76,0.84 l -0.73,-2.11 c -0.09,0.02 -0.17,0.04 -0.25,0.06 -0.08,0.03 -0.15,0.05 -0.22,0.07 l -0.66,-1.92 c 0,0 0.87,-0.32 2.26,-0.63 l 0.48,2.02 c 0.27,-0.05 0.55,-0.1 0.84,-0.15 l -0.39,-2.06 c 0.7,-0.13 1.48,-0.25 2.32,-0.33 l 0.19,2.11 c 0.28,-0.02 0.57,-0.04 0.86,-0.05 l -0.11,-2.14 c 0.38,-0.02 0.77,-0.03 1.17,-0.03 0.4,0 0.79,0.01 1.17,0.03 l -0.11,2.14 c 0.29,0.01 0.58,0.03 0.86,0.05 l 0.19,-2.11 c 0.84,0.08 1.62,0.2 2.32,0.33 l -0.39,2.06 c 0.29,0.05 0.57,0.1 0.84,0.15 l 0.48,-2.02 c 1.39,0.31 2.26,0.63 2.26,0.63 z"/></svg>