<svg xmlns:dc="http://purl.org/dc/elements/1.1/" xmlns:cc="http://creativecommons.org/ns#" xmlns:rdf="http://www.w3.org/1999/02/22-rdf-syntax-ns#" xmlns:svg="http://www.w3.org/2000/svg" xmlns="http://www.w3.org/2000/svg" viewBox="0 0 45 45" style="enable-background:new 0 0 45 45;" xml:space="preserve" version="1.1" id="svg2"><metadata id="metadata8"><rdf:RDF><cc:Work rdf:about=""><dc:format>image/svg+xml</dc:format><dc:type rdf:resource="http://purl.org/dc/dcmitype/StillImage"/></cc:Work></rdf:RDF></metadata><defs id="defs6"><clipPath id="clipPath16" clipPathUnits="userSpaceOnUse"><path id="path18" d="M 0,36 36,36 36,0 0,0 0,36 Z"/></clipPath></defs><g transform="matrix(1.25,0,0,-1.25,0,45)" id="g10"><g id="g12"><g xmlns="http://www.w3.org/2000/svg" clip-path="url(#clipPath16)" id="g14"><g id="g30"><path id="path20" style="fill:#f00000;fill-opacity:1;fill-rule:nonzero;stroke:none" d="m 31.9995,31 h -20 V 5 h 20 c 2.209,0 4,1.791 4,4 v 18 c 0,2.209 -1.791,4 -4,4"/></g><g id="g32"><path id="path30" style="fill:#141414;fill-opacity:1;fill-rule:nonzero;stroke:none" d="M 12,31 H 4 C 1.791,31 0,29.209 0,27 V 9 C 0,6.791 1.791,5 4,5 h 8"/></g><g id="g34"><path id="path40" style="fill:#ffffff;fill-opacity:1;fill-rule:nonzero;stroke:none" d="m 21.0796,16.8203 h -0.538 l -1.047,1.548 v -1.548 h -0.538 v 2.353 h 0.538 l 1.049,-1.552 v 1.552 h 0.536 z"/><path id="path42" style="fill:#ffffff;fill-opacity:1;fill-rule:nonzero;stroke:none" d="m 23.1216,17.8433 h -1.033 v -0.634 h 1.212 v -0.389 h -1.75 v 2.353 h 1.747 v -0.393 h -1.209 v -0.561 h 1.033 z"/><path id="path44" style="fill:#ffffff;fill-opacity:1;fill-rule:nonzero;stroke:none" d="m 25.6811,17.1172 c -0.097,-0.104 -0.233,-0.186 -0.41,-0.242 -0.177,-0.059 -0.373,-0.087 -0.589,-0.087 -0.226,0 -0.424,0.044 -0.594,0.134 -0.171,0.088 -0.302,0.216 -0.394,0.386 -0.093,0.169 -0.141,0.368 -0.143,0.596 v 0.16 c 0,0.235 0.044,0.438 0.132,0.61 0.088,0.172 0.214,0.303 0.38,0.395 0.166,0.09 0.359,0.136 0.582,0.136 0.309,0 0.552,-0.067 0.726,-0.2 0.174,-0.133 0.278,-0.326 0.31,-0.58 h -0.523 c -0.024,0.134 -0.078,0.233 -0.159,0.295 -0.082,0.063 -0.195,0.094 -0.339,0.094 -0.182,0 -0.322,-0.062 -0.416,-0.186 -0.096,-0.124 -0.145,-0.308 -0.146,-0.553 v -0.15 c 0,-0.246 0.052,-0.433 0.156,-0.559 0.104,-0.126 0.256,-0.188 0.457,-0.188 0.202,0 0.346,0.039 0.432,0.116 v 0.405 h -0.489 v 0.357 h 1.027 z"/><path id="path46" style="fill:#ffffff;fill-opacity:1;fill-rule:nonzero;stroke:none" d="m 27.7173,18.0498 c 0,0.247 -0.049,0.434 -0.147,0.562 -0.098,0.128 -0.238,0.193 -0.419,0.193 -0.181,0 -0.321,-0.064 -0.418,-0.19 -0.099,-0.127 -0.149,-0.313 -0.15,-0.557 v -0.114 c 0,-0.241 0.049,-0.427 0.148,-0.559 0.097,-0.133 0.239,-0.199 0.423,-0.199 0.18,0 0.319,0.064 0.416,0.191 0.097,0.128 0.146,0.314 0.147,0.558 z m 0.545,-0.106 c 0,-0.232 -0.045,-0.435 -0.136,-0.61 -0.091,-0.174 -0.222,-0.308 -0.39,-0.404 -0.169,-0.094 -0.364,-0.142 -0.582,-0.142 -0.216,0 -0.41,0.047 -0.58,0.141 -0.169,0.094 -0.3,0.227 -0.394,0.401 -0.093,0.174 -0.141,0.374 -0.142,0.6 v 0.117 c 0,0.232 0.046,0.435 0.139,0.611 0.093,0.177 0.224,0.312 0.393,0.406 0.169,0.094 0.363,0.141 0.581,0.141 0.216,0 0.41,-0.047 0.58,-0.141 0.169,-0.094 0.299,-0.229 0.392,-0.406 0.093,-0.176 0.139,-0.379 0.139,-0.609 z"/></g></g></g></g></svg>