<svg xmlns:dc="http://purl.org/dc/elements/1.1/" xmlns:cc="http://creativecommons.org/ns#" xmlns:rdf="http://www.w3.org/1999/02/22-rdf-syntax-ns#" xmlns:svg="http://www.w3.org/2000/svg" xmlns="http://www.w3.org/2000/svg" viewBox="0 0 45 45" style="enable-background:new 0 0 45 45;" xml:space="preserve" version="1.1" id="svg2"><metadata id="metadata8"><rdf:RDF><cc:Work rdf:about=""><dc:format>image/svg+xml</dc:format><dc:type rdf:resource="http://purl.org/dc/dcmitype/StillImage"/></cc:Work></rdf:RDF></metadata><defs id="defs6"><clipPath id="clipPath16" clipPathUnits="userSpaceOnUse"><path id="path18" d="M 4,31 C 1.791,31 0,29.209 0,27 L 0,27 0,9 C 0,6.791 1.791,5 4,5 l 0,0 28,0 c 2.209,0 4,1.791 4,4 l 0,0 0,18 c 0,2.209 -1.791,4 -4,4 l 0,0 -28,0 z"/></clipPath></defs><g transform="matrix(1.25,0,0,-1.25,0,45)" id="g10"><g id="g12"><g xmlns="http://www.w3.org/2000/svg" clip-path="url(#clipPath16)" id="g14"><g id="g30"><path id="path20" style="fill:#eeeeee;fill-opacity:1;fill-rule:nonzero;stroke:none" d="M 0,9 C 0,6.791 1.791,5 4,5 l 28,0 c 2.209,0 4,1.791 4,4 l 0,18 c 0,2.209 -1.791,4 -4,4 L 4,31 C 1.791,31 0,29.209 0,27 L 0,9 z"/></g><g id="g34"><path id="path30" style="fill:#0098d4;fill-opacity:1;fill-rule:nonzero;stroke:none" d="m 9.0005,14.5898 -3.601,9.586 -5.399,1.658 0,-8.481 9,-2.763 z"/><path id="path31" style="fill:#0098d4;fill-opacity:1;fill-rule:nonzero;stroke:none" d="m 5.3999,24.1763 9,-2.762 -3.601,9.586 -7.962,0 2.563,-6.824 z"/><path id="path32" style="fill:#0098d4;fill-opacity:1;fill-rule:nonzero;stroke:none" d="m 10.7993,31 9,-2.761 -1.038,2.761 -7.962,0 z"/><path id="path33" style="fill:#0098d4;fill-opacity:1;fill-rule:nonzero;stroke:none" d="M 0,8.8701 3.601,7.7651 0,17.3521 0,8.8701 z"/><path id="path34" style="fill:#0098d4;fill-opacity:1;fill-rule:nonzero;stroke:none" d="m 3.6011,7.7646 1.038,-2.763 7.962,0 -9,2.763 z"/><path id="path35" style="fill:#0098d4;fill-opacity:1;fill-rule:nonzero;stroke:none" d="m 9.0005,14.5898 3.601,-9.588 7.962,0 -2.563,6.825 -9,2.763 z"/><path id="path36" style="fill:#0098d4;fill-opacity:1;fill-rule:nonzero;stroke:none" d="m 18,11.8271 9,-2.763 -3.601,9.588 -9,2.762 3.601,-9.587 z"/><path id="path37" style="fill:#0098d4;fill-opacity:1;fill-rule:nonzero;stroke:none" d="m 19.7988,28.2388 3.601,-9.587 8.999,-2.762 -3.601,9.586 -8.999,2.763 z"/><path id="path38" style="fill:#0098d4;fill-opacity:1;fill-rule:nonzero;stroke:none" d="m 26.7236,31 2.074,-5.524 7.202,-2.21 0,4.235 -1.314,3.499 -7.962,0 z"/><path id="path39" style="fill:#0098d4;fill-opacity:1;fill-rule:nonzero;stroke:none" d="m 36,14.7842 0,-8.482 -3.602,9.587 3.602,-1.105 z"/><path id="path40" style="fill:#0098d4;fill-opacity:1;fill-rule:nonzero;stroke:none" d="m 36,6.3018 0,-1.3 -7.475,0 -1.525,4.063 9,-2.763 z"/></g></g></g></g></svg>