<svg xmlns:dc="http://purl.org/dc/elements/1.1/" xmlns:cc="http://creativecommons.org/ns#" xmlns:rdf="http://www.w3.org/1999/02/22-rdf-syntax-ns#" xmlns:svg="http://www.w3.org/2000/svg" xmlns="http://www.w3.org/2000/svg" viewBox="0 0 45 45" style="enable-background:new 0 0 45 45;" xml:space="preserve" version="1.1" id="svg2"><metadata id="metadata8"><rdf:RDF><cc:Work rdf:about=""><dc:format>image/svg+xml</dc:format><dc:type rdf:resource="http://purl.org/dc/dcmitype/StillImage"/></cc:Work></rdf:RDF></metadata><defs id="defs6"><clipPath id="clipPath16" clipPathUnits="userSpaceOnUse"><path id="path18" d="M 0,36 36,36 36,0 0,0 0,36 Z"/></clipPath></defs><g transform="matrix(1.25,0,0,-1.25,0,45)" id="g10"><g xmlns="http://www.w3.org/2000/svg" id="g12"><g id="g20"><path id="path22" style="fill:#ffff00;fill-opacity:1;fill-rule:nonzero;stroke:none" d="m 32,31.0001 -28,0 c -2.209,0 -4,-1.791 -4,-4 l 0,-18 c 0,-2.209 1.791,-4 4,-4 l 28,0 c 2.209,0 4,1.791 4,4 l 0,18 c 0,2.209 -1.791,4 -4,4"/></g><g id="g24"><path id="path26" style="fill:#ff0000;fill-opacity:1;fill-rule:nonzero;stroke:none" d="m 14.3101,21.69 -14.31,0 0,-7.379 14.31,0 0,-9.311 7.38,0 0,9.311 14.31,0 0,7.379 -14.31,0 0,9.31 -7.38,0 0,-9.31 z"/></g><g id="g28"><path id="path30" style="fill:#ffffff;fill-opacity:1;fill-rule:nonzero;stroke:none" d="m 18,11.2472 c 0,0 -1.25,0.582 -2.6,1.702 -1.712,1.42 -2.041,2.785 -2.041,5.176 l 0,5.844 9.282,0 0,-5.844 c 0,-2.391 -0.329,-3.756 -2.04,-5.176 C 19.25,11.8292 18,11.2472 18,11.2472"/></g><g id="g32"><path id="path34" style="fill:#b20000;fill-opacity:1;fill-rule:nonzero;stroke:none" d="m 16.3623,21.8951 c 0,0.279 0.226,0.505 0.504,0.505 l 0.015,0 c 0.278,0 0.504,-0.226 0.504,-0.505 l 0,0.442 c 0,0.261 0.212,0.472 0.473,0.472 l 0.079,0 c 0.261,0 0.472,-0.211 0.472,-0.472 l 0,-0.244 c 0,0.282 0.229,0.511 0.512,0.511 0.283,0 0.511,-0.229 0.511,-0.511 l 0,-2.523 c 0,0.208 0.17,0.378 0.378,0.378 l 0.064,0 c 0.209,0 0.378,-0.17 0.378,-0.378 l 0,-2.656 c 0,-0.209 -0.169,-0.378 -0.378,-0.378 l -0.032,0 0,-0.205 -0.44,0 c -0.143,-0.701 -0.762,-1.228 -1.505,-1.228 -0.848,0 -1.535,0.687 -1.535,1.535 l 0,2.486 c 0,0.044 0.003,0.088 0.006,0.132 -0.002,0.021 -0.006,0.043 -0.006,0.066 l 0,2.573 z"/></g><g id="g36"><path id="path38" style="fill:#ff0000;fill-opacity:1;fill-rule:nonzero;stroke:none" d="m 16.4863,14.8058 c -0.574,0.449 -0.943,1.149 -0.943,1.935 l 0,0.205 0,4.328 c 0,0 0,0.409 0.409,0.409 0.41,0 0.41,-0.409 0.41,-0.409 l 0,-1.901 c 0,0.03 0.205,0.058 0.205,0.081 l 0,2.639 c 0,0 0,0.409 0.409,0.409 0.409,0 0.409,-0.409 0.409,-0.409 l 0,-2.482 c 0,0.006 0.205,0.011 0.205,0.014 l 0,2.877 c 0,0 0,0.41 0.41,0.41 0.409,0 0.409,-0.41 0.409,-0.41 l 0,-2.877 c 0,-0.003 0.205,-0.01 0.205,-0.016 l 0,2.689 c 0,0 0,0.409 0.409,0.409 0.409,0 0.409,-0.409 0.409,-0.409 l 0,-3.453 0,-0.227 0,-0.854 c -1.228,0 -2.047,-1.023 -2.047,-2.047 0,-0.205 0.205,-0.205 0.205,-0.205 0,1.229 0.819,2.047 2.047,2.047 l 0,1.205 0,0.877 c 0,0 0,0.41 0.41,0.41 0.41,0 0.41,-0.41 0.41,-0.41 l 0,-2.9 c 0,-0.787 -0.369,-1.486 -0.945,-1.936 0,0 -0.08,-0.231 -0.08,-0.631 0,-0.399 0.08,-0.839 0.08,-0.839 -0.417,-0.163 -0.942,-0.26 -1.512,-0.26 -0.572,0 -1.097,0.097 -1.514,0.26 0,0 0.08,0.442 0.08,0.841 0,0.4 -0.08,0.63 -0.08,0.63"/></g></g></g></svg>