<svg xmlns="http://www.w3.org/2000/svg" viewBox="0 0 45 45" enable-background="new 0 0 45 45"><defs><clipPath id="a"><path d="M0 36h36V0H0v36z"/></clipPath></defs><g><g><g clip-path="url(#a)" transform="matrix(1.25 0 0 -1.25 0 45)"><g><path fill="#55acee" d="M30.38 7c.4-.38.4-1 0-1.4-.38-.37-1-.37-1.38.02l-13.5 13.5c-.38.38-.38 1 0 1.38.38.38 1 .38 1.38 0L30.38 7z"/></g><g><path fill="#292f33" d="M35.56 2.56c.6-.6.6-1.54 0-2.12-.58-.6-1.53-.6-2.12 0L27.78 6.1c-.58.58-.58 1.53 0 2.12.6.58 1.54.58 2.12 0l5.66-5.66z"/></g><g><path fill="#99aab5" d="M15.18 19.5l-.7-.72L2.44 30.8l.7.7 12.03-12z"/></g><g><path fill="#99aab5" d="M4.57 34.34l-.7-.7L16.58 20.9l.7.7L4.57 34.35z"/></g><g><path fill="#99aab5" d="M10.23 34.34l-8.5-8.5-.7.72 8.5 8.48.7-.7z"/></g><g><path fill="#99aab5" d="M13.06 32.92l-10.6-10.6-.72.7 10.6 10.6.72-.7z"/></g><g><path fill="#99aab5" d="M15.88 31.5L4.58 20.2l-.72.7 11.32 11.32.7-.7z"/></g><g><path fill="#99aab5" d="M17.3 28.68l-9.9-9.9-.7.7 9.9 9.9.7-.7z"/></g><g><path fill="#99aab5" d="M18.7 25.85l-8.47-8.48-.7.7 8.48 8.5.7-.72z"/></g><g><path fill="#99aab5" d="M12.35 18.07l-.7-.7-10.62 10.6.7.7 10.62-10.6z"/></g><g><path fill="#99aab5" d="M8.1 35.04l-.7-.7L18 23.74l.7.7-10.6 10.6z"/></g><g><path fill="#55acee" d="M15.3 20.7c-2.72-2.75-7.52-2.38-10.7.8-3.2 3.2-3.57 8-.83 10.73 2.73 2.74 7.53 2.37 10.72-.82 3.18-3.18 3.55-7.98.8-10.7M2.48 33.52c-3.47-3.47-3.12-9.45.78-13.35 3.9-3.9 9.9-4.26 13.36-.8 3.48 3.48 3.13 9.46-.78 13.37-3.9 3.9-9.88 4.25-13.35.78"/></g><g><path fill="#269" d="M17.3 21.6c.4-.38.4-1 0-1.4l-1.42-1.42c-.4-.4-1.02-.4-1.4 0-.4.4-.4 1.02 0 1.4l1.4 1.43c.4.4 1.03.4 1.42 0"/></g><g><path fill="#269" d="M18 19.5c.4-.4.4-1.04 0-1.43-.4-.4-1.02-.4-1.4 0l-.72.7c-.4.4-.4 1.03 0 1.42.4.4 1.03.4 1.42 0l.7-.7z"/></g><g><path fill="#269" d="M29.56 8.56c.6-.58-.12-.83-.7-1.4-.6-.6-.84-1.3-1.42-.72-.6.6-.6 1.54 0 2.12.58.6 1.53.6 2.12 0"/></g><g><path fill="#be1931" d="M21.8 32.82c-.77-.78-.77-2.05 0-2.83l.72-.72.7.7 1.42 1.42.7.7-.7.72c-.78.78-2.05.78-2.83 0"/></g><g><path fill="#99aab5" d="M26.05 31.4l-2.83-2.82-.7.7 2.83 2.83.7-.7z"/></g><g><path fill="#e1e8ed" d="M23.22 28.58l2.83 2.82c1.48-.48 9.13-5.07 8.87-5.33-.76-.76-1.92-.2-1.92-.2s.85-.8.12-1.53-1.53.1-1.53.1.96-.73.14-1.55c-.83-.84-1.56.14-1.56.14s.72-.98.1-1.6c-.64-.64-1.52.2-1.52.2s.42-1-.34-1.77c-.36-.36-4.6 7.33-5.2 8.7"/></g><g><path fill="#ccd6dd" d="M26.4 28.18c.6.68 5.45-3.73 4.6-4.58-.86-.85-5.28 3.76-4.6 4.58"/></g><g><path fill="#ccd6dd" d="M28.12 20.73c.68.44-3.07 5.8-3.54 5.43-.03-.03-.04-.08-.05-.13.88-1.63 2-3.6 2.83-4.87.33-.34.6-.53.76-.43"/></g><g><path fill="#ccd6dd" d="M28.4 29.96c-.4-.46 4.97-4.2 5.42-3.53.1.18-.17.54-.66.97-1.2.78-2.85 1.76-4.28 2.57-.24.06-.42.07-.5 0"/></g><g><path fill="#ccd6dd" d="M25.4 27.1c.43.43 4.64-4.6 4-5.1-.63-.5-4.5 4.6-4 5.1"/></g><g><path fill="#ccd6dd" d="M27.44 29.14c-.42-.42 4.6-4.64 5.1-4 .5.64-4.58 4.52-5.1 4"/></g></g></g></g></svg>