<svg xmlns:dc="http://purl.org/dc/elements/1.1/" xmlns:cc="http://creativecommons.org/ns#" xmlns:rdf="http://www.w3.org/1999/02/22-rdf-syntax-ns#" xmlns:svg="http://www.w3.org/2000/svg" xmlns="http://www.w3.org/2000/svg" viewBox="0 0 45 45" style="enable-background:new 0 0 45 45;" xml:space="preserve" version="1.1" id="svg2"><metadata id="metadata8"><rdf:RDF><cc:Work rdf:about=""><dc:format>image/svg+xml</dc:format><dc:type rdf:resource="http://purl.org/dc/dcmitype/StillImage"/></cc:Work></rdf:RDF></metadata><defs id="defs6"><clipPath id="clipPath16" clipPathUnits="userSpaceOnUse"><path id="path18" d="M 0,36 36,36 36,0 0,0 0,36 Z"/></clipPath></defs><g transform="matrix(1.25,0,0,-1.25,0,45)" id="g10"><g id="g12"><g xmlns="http://www.w3.org/2000/svg" clip-path="url(#clipPath16)" id="g14"><g id="g30"><path id="path20" style="fill:#003000;fill-opacity:1;fill-rule:nonzero;stroke:none" d="M 32,31 4,31 C 1.791,31 0,29.209 0,27 L 0,9 C 0,6.791 1.791,5 4,5 l 28,0 c 2.209,0 4,1.791 4,4 l 0,18 c 0,2.209 -1.791,4 -4,4"/></g><g id="g32"><path id="path31" style="fill:#ffffff;fill-opacity:1;fill-rule:nonzero;stroke:none" d="m 17.248,27.9775 -0.299,-0.337 -0.413,0.179 0.229,-0.388 -0.299,-0.337 0.44,0.097 0.229,-0.388 0.043,0.448 0.44,0.098 -0.413,0.18 0.043,0.448 z"/><path id="path31" style="fill:#ffffff;fill-opacity:1;fill-rule:nonzero;stroke:none" d="m 16.2139,25.8457 c 0.283,-0.666 0.943,-1.133 1.712,-1.133 1.027,0 1.86,0.832 1.86,1.86 0,0.83 -0.543,1.532 -1.293,1.772 0.406,-0.311 0.667,-0.799 0.667,-1.35 0,-0.937 -0.76,-1.697 -1.697,-1.697 -0.494,0 -0.939,0.211 -1.249,0.548"/></g><g id="g34"><path id="path40" style="fill:#ffffff;fill-opacity:1;fill-rule:nonzero;stroke:none" d="m 13.7749,16.5273 c 0,-0.969 0.401,-1.81 2.049,-2.068 0.644,-0.102 1.107,-0.157 1.411,-0.23 0.468,-0.112 0.584,-0.22 0.584,-0.22 l 0,4.741 -4.044,0 0,-2.223 z m 0,2.41 4.044,0 0,4.163 -4.044,0 0,-4.163 z m 8.45,-0.187 -4.044,0 0,-4.741 c 0,0 0.116,0.108 0.584,0.22 0.304,0.073 0.767,0.128 1.412,0.23 1.646,0.258 2.048,1.099 2.048,2.068 l 0,2.223 z m 0,4.35 -4.043,0 0,-4.163 4.043,0 0,4.163 z m -4.225,-9.69 c 0,0 -0.049,0.195 -0.143,0.307 -0.29,0.347 -0.871,0.353 -2.247,0.59 -1.408,0.243 -2.022,1.059 -2.022,2.095 0,0.847 -0.009,6.886 -0.009,6.886 l 8.843,0 c 0,0 -0.011,-6.039 -0.011,-6.886 0,-1.036 -0.613,-1.852 -2.02,-2.095 -1.377,-0.237 -1.958,-0.243 -2.248,-0.59 -0.094,-0.112 -0.143,-0.307 -0.143,-0.307"/><path id="path41" style="fill:#ffffff;fill-opacity:1;fill-rule:nonzero;stroke:none" d="m 16.8467,15.002 0.135,0 c 0,0 -0.01,0.165 -0.013,0.331 -0.003,0.165 -10e-4,0.302 -10e-4,0.302 l 0.507,-0.221 -0.27,0.333 0.239,0.006 -0.348,0.339 0.295,-0.079 -0.328,0.313 0.247,-0.06 c 0,0 -0.149,0.15 -0.268,0.31 -0.118,0.161 -0.14,0.223 -0.14,0.223 0,0 -0.022,-0.179 -0.037,-0.215 -0.016,-0.035 -0.293,-0.313 -0.293,-0.313 l 0.199,0.042 -0.308,-0.336 0.308,0.103 -0.355,-0.353 0.258,0.037 -0.25,-0.326 0.437,0.198 -0.014,-0.634 z"/><path id="path42" style="fill:#ffffff;fill-opacity:1;fill-rule:nonzero;stroke:none" d="m 14.7905,14.9922 c 0,0 -0.004,0.248 -0.009,0.456 -0.005,0.208 -0.01,0.313 -0.01,0.313 l 0.68,-0.267 -0.369,0.407 0.33,0.005 -0.464,0.419 0.383,-0.101 -0.432,0.388 0.353,-0.086 0.59,0.278 c 0,0 -0.005,-0.22 -0.008,-0.504 -0.003,-0.285 -0.003,-0.475 -0.003,-0.475 l 0.186,0.008 -0.013,0.97 0.735,-0.332 -0.397,0.508 0.361,0.007 -0.51,0.519 0.422,-0.122 -0.472,0.487 0.359,-0.103 -0.492,0.606 c 0,0 0.004,0.11 -0.018,0.157 -0.015,0.032 -0.056,0.035 -0.056,0.035 0,0 -0.042,-0.016 -0.055,-0.06 -0.017,-0.057 -0.002,-0.141 -0.002,-0.176 0,-0.034 -0.006,-0.046 -0.006,-0.046 l -0.461,-0.519 0.314,0.1 -0.481,-0.552 0.487,0.188 -0.542,-0.569 0.383,0.08 -0.347,-0.466 -0.453,0.465 0,0.138 -0.12,0 0,-0.214 -0.416,-0.401 0.267,0.063 -0.423,-0.418 0.425,0.129 -0.478,-0.438 0.346,0.058 -0.338,-0.407 0.588,0.245 -0.014,-0.776 0.18,0.003 z"/><path id="path43" style="fill:#ffffff;fill-opacity:1;fill-rule:nonzero;stroke:none" d="m 15.1626,19.0298 c 0,0 0.211,0.004 0.447,-0.006 0.236,-0.011 0.398,0.02 0.398,0.02 l 0.022,0.067 c 0,0 -0.02,0.481 -0.03,0.852 -0.009,0.37 0.01,0.722 0.01,0.722 l -0.1,0.034 c 0,0 0.036,0.073 0.036,0.12 0,0.078 -0.077,0.096 -0.077,0.096 l -0.001,0.167 0.064,0.04 -0.003,0.125 -0.1,0.03 0.012,0.155 -0.177,0.156 c 0,0 -0.02,0.141 0.049,0.345 0.069,0.205 0.111,0.274 0.111,0.274 l 0.066,0.042 c 0,0 -0.018,0.166 0.004,0.286 0.022,0.12 0.084,0.172 0.084,0.172 0,0 -0.218,0.092 -0.385,0.092 -0.078,0 -0.179,-0.028 -0.218,-0.069 -0.036,-0.037 -0.056,-0.155 -0.056,-0.155 0,0 0.047,0.063 0.113,0.115 0.089,0.07 0.184,0.062 0.184,0.062 0,0 -0.091,-0.069 -0.141,-0.15 -0.05,-0.081 -0.023,-0.161 -0.023,-0.161 0,0 0.033,0.096 0.095,0.155 0.08,0.075 0.146,0.064 0.146,0.064 0,0 -0.054,-0.193 -0.112,-0.242 -0.087,-0.075 -0.282,-0.081 -0.463,-0.183 -0.159,-0.089 -0.169,-0.239 -0.169,-0.239 0,0 0.103,-0.06 0.248,-0.21 0.146,-0.15 0.238,-0.242 0.238,-0.242 l -0.085,-0.128 -0.001,-0.125 c 0,0 -0.096,-0.02 -0.096,-0.105 0,-0.061 0.055,-0.12 0.055,-0.12 l 0.006,-0.148 c 0,0 -0.073,-0.025 -0.073,-0.099 0,-0.053 0.033,-0.129 0.033,-0.129 l -0.116,-0.03 c 0,0 0.05,-0.236 0.05,-0.319 0,-0.129 -0.02,-0.392 -0.031,-0.719 -0.011,-0.317 -0.014,-0.612 -0.014,-0.612"/><path id="path44" style="fill:#ffffff;fill-opacity:1;fill-rule:nonzero;stroke:none" d="m 19.3535,20.478 c -0.067,-0.097 -0.062,-0.203 -0.044,-0.244 0.019,-0.04 0.147,-0.054 0.147,-0.054 l 0.217,-0.304 0.055,0.091 c 0,0 -0.057,0.041 -0.145,0.184 -0.086,0.144 -0.096,0.247 -0.096,0.247 l 0.089,0.193 -0.089,0.025 c 0,0 -0.068,-0.041 -0.134,-0.138 m -1.069,-0.07 c 0,0 0.044,0.094 0.147,0.239 0.104,0.145 0.204,0.221 0.204,0.221 0,0 0.107,-0.102 0.181,-0.207 0.075,-0.104 0.158,-0.231 0.158,-0.231 l 0.128,0.006 0.071,-0.091 c 0,0 0.3,0.425 0.626,0.846 0.327,0.421 0.703,0.803 0.703,0.803 0,0 0.172,-0.121 0.35,-0.339 0.179,-0.218 0.251,-0.349 0.336,-0.439 0.186,-0.198 0.39,-0.147 0.637,-0.49 0.215,-0.299 0.341,-0.91 0.341,-0.95 0,-0.09 -0.141,-0.197 -0.141,-0.197 l -0.265,0.247 -0.058,-0.16 c 0,0 -0.257,0.164 -0.387,0.164 -0.063,0 -0.44,-0.141 -0.786,-0.203 -0.365,-0.065 -0.7,-0.05 -0.7,-0.05 l -0.036,0.152 0.177,0.145 -0.039,-0.178 0.156,0.171 0.162,-0.23 c 0,0 0.064,0 0.064,0.075 0,0.033 -0.022,0.129 -0.022,0.129 0,0 0.073,0.067 0.115,0.202 0.041,0.135 0.076,0.185 0.076,0.185 0,0 -0.02,0.045 -0.02,0.088 0,0.138 0.173,0.317 0.173,0.317 l -0.131,0.079 c 0,0 0.008,0.027 0.039,0.049 0.032,0.022 0.047,0.041 0.047,0.041 l 0.12,-0.133 -0.039,0.128 0.003,0.065 -0.154,0.147 -0.016,-0.192 -0.098,0.077 -0.128,-0.108 c 0,0 0.026,-0.035 0.059,-0.092 0.033,-0.058 0.051,-0.108 0.051,-0.108 0,0 -0.056,0.018 -0.128,0.07 -0.071,0.052 -0.076,0.091 -0.076,0.091 l 0.198,0.256 c 0,0 -0.084,0.066 -0.167,0.183 -0.083,0.117 -0.13,0.208 -0.13,0.208 0,0 -0.096,-0.061 -0.218,-0.229 -0.122,-0.166 -0.144,-0.218 -0.144,-0.218 l 0.102,-0.125 -0.07,-0.142 0.127,-0.135 -0.248,0.083 -0.066,-0.209 0.241,-0.146 -0.081,-0.086 c 0,0 0.131,-0.112 0.131,-0.161 0,-0.048 -0.069,-0.157 -0.069,-0.157 l -0.117,-0.013 0.003,-0.284 c 0,0 -0.095,-0.003 -0.255,0.048 -0.117,0.038 -0.208,0.099 -0.208,0.099 0,0 -0.151,-0.024 -0.388,-0.039 -0.238,-0.016 -0.414,-0.014 -0.414,-0.014 0,0 -0.069,0.043 -0.113,0.083 -0.044,0.039 -0.089,0.092 -0.089,0.092 0,0 0.061,0.023 0.109,-0.014 0.049,-0.038 0.081,-0.111 0.081,-0.111 0,0 0.033,0.033 0.033,0.087 0,0.055 -0.039,0.092 -0.073,0.147 -0.034,0.055 -0.041,0.07 -0.041,0.07 0,0 0.047,-0.007 0.114,-0.059 0.067,-0.052 0.102,-0.089 0.102,-0.089 l 0.003,-0.148 c 0,0 0.092,0.029 0.092,0.079 0,0.089 -0.148,0.136 -0.148,0.21 0,0.027 0.024,0.051 0.024,0.051 l 0.106,-0.053 c 0,0 0.048,0.122 0.121,0.209 0.074,0.088 0.18,0.102 0.18,0.102 0,0 0.014,0.053 -0.04,0.125 -0.055,0.072 -0.14,0.076 -0.14,0.076 0,0 -0.015,0.057 -0.045,0.132 -0.03,0.074 -0.05,0.096 -0.05,0.096 0,0 -0.015,-0.101 -0.117,-0.211 -0.102,-0.109 -0.236,-0.132 -0.236,-0.132"/><path id="path45" style="fill:#ffffff;fill-opacity:1;fill-rule:nonzero;stroke:none" d="m 19.6777,14.7842 -0.173,-0.153 0.122,0.265 -0.181,-0.12 -0.035,0.413 0.095,-0.082 0.099,0.305 -0.2,-0.149 c 0,0 0.03,0.081 0.075,0.149 0.046,0.069 0.1,0.125 0.1,0.125 l -0.088,0.132 0.074,0.006 -0.076,0.072 c 0,0 -0.05,-0.127 -0.081,-0.236 -0.043,-0.158 -0.169,-0.197 -0.169,-0.197 l 0.109,0.235 -0.125,-0.036 c 0,0 -0.14,0.151 -0.153,0.21 -0.014,0.06 0.01,0.142 -0.013,0.208 -0.024,0.066 -0.075,0.061 -0.099,0.139 -0.023,0.078 0.032,0.147 0.032,0.147 l 0.085,-0.113 0.096,0.085 -0.091,0.097 0.245,0.04 0.085,0.203 0.087,-0.117 0.182,0.051 c 0,0 -0.023,-0.041 -0.125,-0.096 -0.102,-0.055 -0.2,-0.039 -0.2,-0.039 l -0.165,-0.147 0.024,-0.144 0.091,0.174 0.088,-0.107 c 0,0 0.051,0.08 0.136,0.133 0.084,0.054 0.165,0.081 0.165,0.081 0,0 0.031,0.08 0.074,0.172 0.042,0.093 0.095,0.158 0.095,0.158 l 0.041,-0.131 c 0,0 -0.086,-0.087 -0.121,-0.203 -0.035,-0.116 -0.054,-0.294 -0.054,-0.294 l -0.038,0.16 -0.102,-0.123 c 0,0 0.008,-0.047 0,-0.161 -0.008,-0.112 -0.018,-0.179 -0.018,-0.179 l 0.096,0.116 c 0,0 -0.037,-0.105 -0.047,-0.205 -0.008,-0.1 0.002,-0.165 0.002,-0.165 0,0 0.1,0.052 0.123,0.224 0.024,0.172 0.071,0.233 0.071,0.233 0,0 -0.011,-0.129 -0.003,-0.22 0.008,-0.091 0.034,-0.143 0.034,-0.143 l 0.101,0.136 c 0,0 -0.026,-0.157 -0.107,-0.417 -0.081,-0.259 -0.031,-0.349 -0.097,-0.531 -0.066,-0.181 -0.148,-0.242 -0.148,-0.242 l 0.082,0.281 z"/><path id="path46" style="fill:#ffffff;fill-opacity:1;fill-rule:nonzero;stroke:none" d="m 19.9355,15.7246 -0.001,0.127 0.13,0.031 c 0,0 0.017,-0.05 0.063,-0.098 0.047,-0.048 0.054,-0.111 0.054,-0.111 0,0 -0.039,-0.072 -0.111,-0.125 -0.073,-0.053 -0.128,-0.111 -0.128,-0.111 0,0 0.021,0.084 0.081,0.193 0.042,0.077 0.008,0.163 0.008,0.163 l -0.034,0.011 -0.062,-0.08 z"/><path id="path47" style="fill:#ffffff;fill-opacity:1;fill-rule:nonzero;stroke:none" d="m 20.0732,15.9814 0.247,0.045 c 0,0 0.008,0.026 0.088,0.112 0.079,0.086 0.133,0.13 0.133,0.13 l -0.234,0.033 c 0,0 -0.023,0.124 -0.161,0.196 -0.187,0.096 -0.212,0.148 -0.212,0.148 0,0 0.094,0.008 0.253,-0.077 0.159,-0.084 0.258,-0.159 0.258,-0.159 l 0.141,0.038 0.253,-0.143 c 0,0 -0.237,-0.128 -0.353,-0.261 -0.114,-0.129 -0.244,-0.298 -0.244,-0.298 l 0.044,0.159 c 0,0 -0.04,-0.011 -0.099,0.008 -0.068,0.022 -0.114,0.069 -0.114,0.069"/><path id="path48" style="fill:#ffffff;fill-opacity:1;fill-rule:nonzero;stroke:none" d="m 20.0049,16.9668 -0.046,-0.295 -0.183,0.084 c 0,0 -0.063,-0.05 -0.063,-0.112 0,-0.063 0.037,-0.147 0.037,-0.147 l -0.158,0.248 0.064,0.019 c 0,0 -0.109,0.078 -0.284,0.083 -0.175,0.005 -0.267,0.078 -0.267,0.078 l -0.013,0.255 0.075,-0.102 0.269,-0.083 c 0,0 0.005,0.049 -0.048,0.136 -0.036,0.06 -0.107,0.067 -0.107,0.067 l 0.011,0.076 c 0,0 0.133,-0.024 0.187,0.026 0.052,0.05 0.099,0.099 0.099,0.238 0,0.139 -0.031,0.264 -0.031,0.264 l 0.164,-0.244 c 0.009,-0.001 -0.023,-0.072 -0.037,-0.159 -0.015,-0.089 -0.059,-0.16 -0.088,-0.199 -0.068,-0.093 -0.122,-0.206 -0.122,-0.206 l 0.112,-0.082 c 0,0 0.031,0.036 0.24,0.107 0.21,0.07 0.192,0.2 0.192,0.2 l -0.147,0.112 0.136,0.062 c 0,0 0.016,-0.018 0.092,-0.026 0.077,-0.007 0.114,0.005 0.114,0.005 0,0 0.042,-0.051 0.113,-0.078 0.07,-0.026 0.137,-0.036 0.137,-0.036 0,0 0.066,0.06 0.105,0.117 0.039,0.058 0.056,0.091 0.056,0.091 0,0 -0.077,0.037 -0.15,0.089 -0.073,0.052 -0.105,0.094 -0.105,0.094 l 0.047,0.036 c 0,0 0.002,0.035 0.05,0.078 0.049,0.042 0.077,0.087 0.077,0.087 0,0 -0.033,-0.069 -0.033,-0.103 0,-0.034 0.029,-0.047 0.029,-0.047 0,0 0.07,0.049 0.188,0.094 0.119,0.045 0.242,0.072 0.242,0.072 l -0.31,-0.23 -0.011,-0.297 c 0,0 -0.169,-0.067 -0.271,-0.153 -0.101,-0.086 -0.362,-0.219 -0.362,-0.219"/><path id="path49" style="fill:#ffffff;fill-opacity:1;fill-rule:nonzero;stroke:none" d="m 18.8623,16.8857 0.327,-0.073 -0.114,-0.089 0.097,-0.161 -0.12,0.034 0.005,0.114 -0.195,0.175 z"/><path id="path50" style="fill:#ffffff;fill-opacity:1;fill-rule:nonzero;stroke:none" d="m 21.3262,18.0688 c 0,0 -0.05,-0.023 -0.126,-0.084 -0.077,-0.062 -0.133,-0.116 -0.133,-0.116 0,0 -0.054,0.058 -0.114,0.116 -0.06,0.057 -0.128,0.106 -0.128,0.106 0,0 0.081,0.08 0.209,0.009 0.128,-0.07 0.292,-0.031 0.292,-0.031"/><path id="path51" style="fill:#ffffff;fill-opacity:1;fill-rule:nonzero;stroke:none" d="m 21.2842,18.1123 c 0,0 0.019,0.1 0.08,0.208 0.061,0.108 0.138,0.194 0.138,0.194 0,0 -0.176,-0.06 -0.226,-0.139 -0.05,-0.08 0.008,-0.263 0.008,-0.263"/><path id="path52" style="fill:#ffffff;fill-opacity:1;fill-rule:nonzero;stroke:none" d="m 19.9395,18.2607 c 0,0 0.03,-0.049 0.073,-0.097 0.042,-0.048 0.044,-0.103 0.025,-0.153 -0.042,-0.111 -0.239,-0.166 -0.239,-0.166 0,0 0.017,-0.062 0.03,-0.132 0.012,-0.071 0.02,-0.153 0.02,-0.153 0,0 -0.089,0.118 -0.116,0.215 -0.026,0.097 -0.082,0.168 -0.082,0.168 l -0.077,-0.133 c 0,0 -0.016,0.145 0.041,0.206 0.025,0.028 0.085,0.006 0.114,-0.038 0.037,-0.056 0.073,-0.101 0.073,-0.101 0,0 0.102,0.062 0.126,0.167 0.026,0.105 0.012,0.217 0.012,0.217"/><path id="path53" style="fill:#ffffff;fill-opacity:1;fill-rule:nonzero;stroke:none" d="m 20.0293,18.2236 -0.05,0.148 0.055,0.139 c 0,0 -0.037,-0.026 -0.087,-0.068 -0.051,-0.043 -0.063,-0.074 -0.063,-0.074 0,0 0.017,-0.031 0.064,-0.078 0.047,-0.047 0.081,-0.067 0.081,-0.067"/><path id="path54" style="fill:#ffffff;fill-opacity:1;fill-rule:nonzero;stroke:none" d="m 19.4121,16.5938 0.121,-0.098 0.114,0.08 -0.235,0.018 z"/><path id="path55" style="fill:#ffffff;fill-opacity:1;fill-rule:nonzero;stroke:none" d="m 19.8848,16.1152 c 0.039,0.043 0.144,-0.017 0.117,-0.074 -0.027,-0.059 -0.164,0.024 -0.117,0.074"/><path id="path56" style="fill:#ffffff;fill-opacity:1;fill-rule:nonzero;stroke:none" d="m 19.5234,16.6973 c 0,0 0.014,0.072 -0.081,0.092 -0.085,0.017 -0.101,-0.065 -0.018,-0.092 0.083,-0.028 0.099,0 0.099,0"/><path id="path57" style="fill:#ffffff;fill-opacity:1;fill-rule:nonzero;stroke:none" d="m 19.1895,16.6953 c 0.029,-0.036 0.147,0.034 0.098,0.084 -0.036,0.036 -0.134,-0.04 -0.098,-0.084"/></g><g id="g36"><path id="path60" style="fill:#ffffff;fill-opacity:1;fill-rule:nonzero;stroke:none" d="m 17.8901,10.5264 c -0.106,-0.055 -0.207,-0.114 -0.296,-0.176 -0.455,-0.313 -0.655,-0.489 -0.655,-0.489 l 0.128,-0.121 c 0,0 0.366,0.305 0.684,0.552 0.067,0.052 0.157,0.107 0.252,0.167 0.095,-0.059 0.18,-0.116 0.246,-0.167 0.317,-0.247 0.683,-0.552 0.683,-0.552 l 0.128,0.121 c 0,0 -0.2,0.176 -0.654,0.489 -0.089,0.062 -0.191,0.121 -0.297,0.176 0.339,0.199 0.728,0.392 0.728,0.392 0,0 -0.429,-0.139 -0.837,-0.337 -0.408,0.199 -0.838,0.337 -0.838,0.337 0,0 0.389,-0.193 0.728,-0.392"/><path id="path61" style="fill:#ffffff;fill-opacity:1;fill-rule:nonzero;stroke:none" d="m 19.8486,11.8389 c 0,0 0.311,-0.016 0.667,0.198 0.419,0.251 0.333,0.555 0.333,0.555 0,0 -0.082,0.002 -0.294,-0.053 -0.212,-0.054 -0.282,-0.111 -0.282,-0.111 0,0 0.033,0.253 -0.024,0.372 -0.056,0.12 -0.196,0.212 -0.196,0.212 0,0 -0.094,-0.111 -0.154,-0.243 -0.062,-0.131 -0.105,-0.298 -0.105,-0.298 0,0 -0.088,0.096 -0.257,0.15 -0.168,0.056 -0.329,0.054 -0.329,0.054 0,0 0.079,-0.326 0.261,-0.554 0.183,-0.226 0.38,-0.282 0.38,-0.282"/><path id="path62" style="fill:#ffffff;fill-opacity:1;fill-rule:nonzero;stroke:none" d="m 16.1509,11.8389 c 0,0 -0.31,-0.016 -0.667,0.198 -0.419,0.251 -0.333,0.555 -0.333,0.555 0,0 0.083,0.002 0.294,-0.053 0.212,-0.054 0.283,-0.111 0.283,-0.111 0,0 -0.034,0.253 0.023,0.372 0.057,0.12 0.196,0.212 0.196,0.212 0,0 0.094,-0.111 0.155,-0.243 0.061,-0.131 0.104,-0.298 0.104,-0.298 0,0 0.088,0.096 0.257,0.15 0.168,0.056 0.329,0.054 0.329,0.054 0,0 -0.078,-0.326 -0.261,-0.554 -0.182,-0.226 -0.38,-0.282 -0.38,-0.282"/><path id="path63" style="fill:#ffffff;fill-opacity:1;fill-rule:nonzero;stroke:none" d="m 20.2412,11.2002 c 0,0 -0.009,-0.119 0.065,-0.312 0.074,-0.195 0.161,-0.266 0.161,-0.266 0,0 -0.082,-0.015 -0.204,-0.159 -0.12,-0.146 -0.149,-0.25 -0.149,-0.25 0,0 0.114,-0.057 0.286,-0.057 0.215,0 0.328,0.088 0.328,0.088 0,0 -0.015,-0.102 0.02,-0.238 0.036,-0.136 0.132,-0.222 0.132,-0.222 0,0 0.067,0.065 0.122,0.144 0.054,0.078 0.105,0.16 0.105,0.16 0,0 0.059,-0.031 0.143,-0.057 0.084,-0.026 0.174,-0.055 0.174,-0.055 0,0 0.035,0.152 0,0.303 -0.037,0.152 -0.091,0.184 -0.091,0.184 0,0 0.096,0.019 0.216,0.096 0.118,0.077 0.196,0.167 0.196,0.167 0,0 -0.064,0.083 -0.23,0.125 -0.138,0.036 -0.286,-0.005 -0.286,-0.005 0,0 0.01,0.082 -0.024,0.248 -0.035,0.166 -0.113,0.25 -0.113,0.25 0,0 -0.1,-0.042 -0.176,-0.198 -0.077,-0.154 -0.086,-0.248 -0.086,-0.248 0,0 -0.098,0.141 -0.293,0.227 -0.195,0.086 -0.296,0.075 -0.296,0.075"/><path id="path64" style="fill:#ffffff;fill-opacity:1;fill-rule:nonzero;stroke:none" d="m 15.7588,11.2002 c 0,0 0.008,-0.119 -0.065,-0.312 -0.074,-0.195 -0.161,-0.266 -0.161,-0.266 0,0 0.083,-0.015 0.203,-0.159 0.121,-0.146 0.15,-0.25 0.15,-0.25 0,0 -0.114,-0.057 -0.286,-0.057 -0.216,0 -0.328,0.088 -0.328,0.088 0,0 0.016,-0.102 -0.02,-0.238 -0.036,-0.136 -0.132,-0.222 -0.132,-0.222 0,0 -0.067,0.065 -0.121,0.144 -0.055,0.078 -0.107,0.16 -0.107,0.16 0,0 -0.057,-0.031 -0.142,-0.057 -0.084,-0.026 -0.173,-0.055 -0.173,-0.055 0,0 -0.036,0.152 0,0.303 0.036,0.152 0.09,0.184 0.09,0.184 0,0 -0.096,0.019 -0.215,0.096 -0.119,0.077 -0.197,0.167 -0.197,0.167 0,0 0.064,0.083 0.23,0.125 0.139,0.036 0.286,-0.005 0.286,-0.005 0,0 -0.01,0.082 0.025,0.248 0.034,0.166 0.112,0.25 0.112,0.25 0,0 0.1,-0.042 0.177,-0.198 0.076,-0.154 0.086,-0.248 0.086,-0.248 0,0 0.096,0.141 0.292,0.227 0.195,0.086 0.296,0.075 0.296,0.075"/><path id="path65" style="fill:#ffffff;fill-opacity:1;fill-rule:nonzero;stroke:none" d="m 21.2402,12.6455 c 0,0 0.088,0.114 0.238,0.216 0.15,0.101 0.277,0.148 0.277,0.148 0,0 -0.06,0.069 -0.133,0.225 -0.051,0.107 -0.075,0.189 -0.075,0.189 0,0 0.182,0.04 0.331,-0.015 0.148,-0.057 0.275,-0.127 0.275,-0.127 0,0 -0.005,0.125 0.095,0.289 0.1,0.164 0.246,0.217 0.246,0.217 0,0 0.065,-0.102 0.055,-0.3 -0.012,-0.198 -0.055,-0.337 -0.055,-0.337 0,0 0.09,0.053 0.303,0.099 0.213,0.047 0.318,0.038 0.318,0.038 0,0 -0.034,-0.167 -0.154,-0.316 -0.12,-0.148 -0.266,-0.212 -0.266,-0.212 0,0 0.093,-0.065 0.157,-0.177 0.066,-0.112 0.091,-0.373 0.091,-0.373 0,0 -0.138,0.012 -0.263,0.075 -0.126,0.062 -0.217,0.151 -0.217,0.151 0,0 0.004,-0.079 -0.041,-0.212 -0.045,-0.134 -0.338,-0.282 -0.338,-0.282 0,0 -0.09,0.133 -0.1,0.298 -0.01,0.165 0.067,0.337 0.067,0.337 0,0 -0.114,-0.096 -0.4,-0.071 -0.287,0.026 -0.411,0.14 -0.411,0.14"/><path id="path66" style="fill:#ffffff;fill-opacity:1;fill-rule:nonzero;stroke:none" d="m 14.7593,12.6455 c 0,0 -0.087,0.114 -0.237,0.216 -0.15,0.101 -0.277,0.148 -0.277,0.148 0,0 0.059,0.069 0.133,0.225 0.05,0.107 0.075,0.189 0.075,0.189 0,0 -0.183,0.04 -0.331,-0.015 -0.149,-0.057 -0.276,-0.127 -0.276,-0.127 0,0 0.005,0.125 -0.095,0.289 -0.1,0.164 -0.245,0.217 -0.245,0.217 0,0 -0.066,-0.102 -0.055,-0.3 0.011,-0.198 0.055,-0.337 0.055,-0.337 0,0 -0.091,0.053 -0.303,0.099 -0.213,0.047 -0.319,0.038 -0.319,0.038 0,0 0.035,-0.167 0.155,-0.316 0.12,-0.148 0.265,-0.212 0.265,-0.212 0,0 -0.092,-0.065 -0.157,-0.177 -0.065,-0.112 -0.091,-0.373 -0.091,-0.373 0,0 0.138,0.012 0.264,0.075 0.125,0.062 0.217,0.151 0.217,0.151 0,0 -0.004,-0.079 0.041,-0.212 0.045,-0.134 0.337,-0.282 0.337,-0.282 0,0 0.091,0.133 0.1,0.298 0.01,0.165 -0.066,0.337 -0.066,0.337 0,0 0.114,-0.096 0.4,-0.071 0.286,0.026 0.41,0.14 0.41,0.14"/><path id="path67" style="fill:#ffffff;fill-opacity:1;fill-rule:nonzero;stroke:none" d="m 23.0313,11.2285 c 0,0 -0.115,-0.344 -0.045,-0.591 0.07,-0.247 0.362,-0.476 0.362,-0.476 0,0 0.072,0.169 0.103,0.343 0.031,0.175 -0.008,0.337 -0.008,0.337 0,0 0.14,-0.105 0.391,-0.162 0.252,-0.056 0.488,-0.02 0.488,-0.02 0,0 -0.133,0.234 -0.305,0.364 -0.215,0.161 -0.389,0.178 -0.389,0.178 0,0 0.1,0.025 0.218,0.15 0.12,0.125 0.182,0.318 0.182,0.318 0,0 -0.393,0.063 -0.677,-0.109 -0.175,-0.106 -0.32,-0.332 -0.32,-0.332"/><path id="path68" style="fill:#ffffff;fill-opacity:1;fill-rule:nonzero;stroke:none" d="m 12.9688,11.2285 c 0,0 0.116,-0.344 0.045,-0.591 -0.07,-0.247 -0.362,-0.476 -0.362,-0.476 0,0 -0.072,0.169 -0.103,0.343 -0.032,0.175 0.007,0.337 0.007,0.337 0,0 -0.139,-0.105 -0.39,-0.162 -0.252,-0.056 -0.488,-0.02 -0.488,-0.02 0,0 0.132,0.234 0.305,0.364 0.214,0.161 0.389,0.178 0.389,0.178 0,0 -0.1,0.025 -0.218,0.15 -0.12,0.125 -0.182,0.318 -0.182,0.318 0,0 0.394,0.063 0.677,-0.109 0.176,-0.106 0.32,-0.332 0.32,-0.332"/><path id="path69" style="fill:#ffffff;fill-opacity:1;fill-rule:nonzero;stroke:none" d="m 24.0352,12.9414 c 0,0 0,-0.165 0.098,-0.318 0.096,-0.153 0.258,-0.259 0.258,-0.259 0,0 -0.144,-0.029 -0.356,-0.15 -0.212,-0.121 -0.241,-0.308 -0.241,-0.308 0,0 0.138,-0.003 0.383,0.029 0.244,0.032 0.335,0.138 0.335,0.138 0,0 -0.047,-0.155 0.029,-0.341 0.076,-0.186 0.221,-0.314 0.221,-0.314 0,0 0.067,0.096 0.111,0.282 0.045,0.185 0.033,0.311 0.033,0.311 0,0 0.1,-0.162 0.32,-0.194 0.221,-0.032 0.362,-0.003 0.362,-0.003 0,0 -0.027,0.13 -0.109,0.291 -0.082,0.162 -0.138,0.209 -0.138,0.209 0,0 0.077,0.026 0.2,0.109 0.124,0.082 0.177,0.159 0.177,0.159 0,0 -0.136,0.1 -0.348,0.13 -0.211,0.029 -0.323,0.02 -0.323,0.02 0,0 0.058,0.1 0,0.259 -0.059,0.159 -0.12,0.247 -0.12,0.247 0,0 -0.107,-0.059 -0.224,-0.2 -0.118,-0.141 -0.13,-0.265 -0.13,-0.265 0,0 -0.076,0.109 -0.221,0.142 -0.143,0.032 -0.317,0.026 -0.317,0.026"/><path id="path70" style="fill:#ffffff;fill-opacity:1;fill-rule:nonzero;stroke:none" d="m 11.9648,12.9414 c 0,0 0,-0.165 -0.097,-0.318 -0.097,-0.153 -0.259,-0.259 -0.259,-0.259 0,0 0.144,-0.029 0.356,-0.15 0.211,-0.121 0.241,-0.308 0.241,-0.308 0,0 -0.138,-0.003 -0.382,0.029 -0.244,0.032 -0.336,0.138 -0.336,0.138 0,0 0.047,-0.155 -0.029,-0.341 -0.077,-0.186 -0.221,-0.314 -0.221,-0.314 0,0 -0.067,0.096 -0.111,0.282 -0.044,0.185 -0.033,0.311 -0.033,0.311 0,0 -0.1,-0.162 -0.32,-0.194 -0.221,-0.032 -0.362,-0.003 -0.362,-0.003 0,0 0.027,0.13 0.109,0.291 0.082,0.162 0.138,0.209 0.138,0.209 0,0 -0.076,0.026 -0.2,0.109 -0.123,0.082 -0.177,0.159 -0.177,0.159 0,0 0.136,0.1 0.348,0.13 0.211,0.029 0.323,0.02 0.323,0.02 0,0 -0.059,0.1 0,0.259 0.059,0.159 0.121,0.247 0.121,0.247 0,0 0.105,-0.059 0.223,-0.2 0.118,-0.141 0.129,-0.265 0.129,-0.265 0,0 0.077,0.109 0.221,0.142 0.144,0.032 0.318,0.026 0.318,0.026"/><path id="path71" style="fill:#ffffff;fill-opacity:1;fill-rule:nonzero;stroke:none" d="m 23.5449,13.582 c 0,0 -0.278,0.251 -0.3,0.432 -0.021,0.18 0.151,0.441 0.151,0.441 0,0 0.236,-0.144 0.261,-0.286 0.026,-0.144 -0.023,-0.344 -0.023,-0.344 0,0 0.074,0.171 0.199,0.239 0.126,0.07 0.371,-0.033 0.371,-0.033 0,0 0.002,-0.218 -0.233,-0.335 -0.177,-0.089 -0.426,-0.114 -0.426,-0.114"/><path id="path72" style="fill:#ffffff;fill-opacity:1;fill-rule:nonzero;stroke:none" d="m 12.4551,13.582 c 0,0 0.278,0.251 0.3,0.432 0.021,0.18 -0.15,0.441 -0.15,0.441 0,0 -0.236,-0.144 -0.262,-0.286 -0.025,-0.144 0.024,-0.344 0.024,-0.344 0,0 -0.075,0.171 -0.201,0.239 -0.125,0.07 -0.37,-0.033 -0.37,-0.033 0,0 -0.002,-0.218 0.233,-0.335 0.177,-0.089 0.426,-0.114 0.426,-0.114"/><path id="path73" style="fill:#ffffff;fill-opacity:1;fill-rule:nonzero;stroke:none" d="m 24.5918,14.6611 c 0,0 0.263,0.205 0.305,0.467 0.041,0.261 -0.062,0.529 -0.062,0.529 0,0 -0.105,-0.016 -0.201,-0.124 -0.097,-0.107 -0.126,-0.272 -0.126,-0.272 0,0 -0.012,0.155 -0.119,0.296 -0.109,0.141 -0.272,0.26 -0.272,0.26 0,0 -0.066,-0.214 -0.076,-0.384 -0.01,-0.17 0.037,-0.33 0.037,-0.33 0,0 -0.115,0.054 -0.323,0.031 -0.122,-0.015 -0.253,-0.072 -0.253,-0.072 0,0 0.228,-0.34 0.551,-0.424 0.228,-0.06 0.539,0.023 0.539,0.023"/><path id="path74" style="fill:#ffffff;fill-opacity:1;fill-rule:nonzero;stroke:none" d="m 11.4077,14.6611 c 0,0 -0.263,0.205 -0.304,0.467 -0.041,0.261 0.061,0.529 0.061,0.529 0,0 0.106,-0.016 0.202,-0.124 0.096,-0.107 0.125,-0.272 0.125,-0.272 0,0 0.012,0.155 0.12,0.296 0.108,0.141 0.271,0.26 0.271,0.26 0,0 0.067,-0.214 0.076,-0.384 0.01,-0.17 -0.037,-0.33 -0.037,-0.33 0,0 0.115,0.054 0.323,0.031 0.122,-0.015 0.253,-0.072 0.253,-0.072 0,0 -0.227,-0.34 -0.55,-0.424 -0.229,-0.06 -0.54,0.023 -0.54,0.023"/><path id="path75" style="fill:#ffffff;fill-opacity:1;fill-rule:nonzero;stroke:none" d="m 25.9102,15.5684 c 0,0 0.145,0.183 0.349,0.255 0.204,0.073 0.445,0.054 0.445,0.054 0,0 0.004,-0.169 -0.066,-0.251 -0.072,-0.083 -0.286,-0.144 -0.286,-0.144 0,0 0.245,0.006 0.457,-0.173 0.186,-0.156 0.246,-0.331 0.246,-0.331 0,0 -0.178,-0.064 -0.41,-0.045 -0.231,0.02 -0.382,0.166 -0.382,0.166 0,0 0.082,-0.121 0.099,-0.264 0.019,-0.143 -0.078,-0.251 -0.078,-0.251 0,0 -0.29,0.147 -0.397,0.369 -0.109,0.221 0.023,0.615 0.023,0.615"/><path id="path76" style="fill:#ffffff;fill-opacity:1;fill-rule:nonzero;stroke:none" d="m 10.0903,15.5684 c 0,0 -0.145,0.183 -0.349,0.255 -0.204,0.073 -0.445,0.054 -0.445,0.054 0,0 -0.004,-0.169 0.066,-0.251 0.071,-0.083 0.285,-0.144 0.285,-0.144 0,0 -0.245,0.006 -0.457,-0.173 -0.185,-0.156 -0.245,-0.331 -0.245,-0.331 0,0 0.178,-0.064 0.41,-0.045 0.231,0.02 0.382,0.166 0.382,0.166 0,0 -0.083,-0.121 -0.1,-0.264 -0.018,-0.143 0.078,-0.251 0.078,-0.251 0,0 0.291,0.147 0.398,0.369 0.108,0.221 -0.023,0.615 -0.023,0.615"/><path id="path77" style="fill:#ffffff;fill-opacity:1;fill-rule:nonzero;stroke:none" d="m 25.377,16.1943 c 0,0 0.146,0.121 0.201,0.317 0.056,0.197 -0.012,0.436 -0.012,0.436 0,0 -0.115,-0.012 -0.189,-0.103 -0.056,-0.066 -0.065,-0.199 -0.065,-0.199 0,0 -0.03,0.043 -0.127,0.086 -0.099,0.043 -0.173,0.039 -0.173,0.039 0,0 -0.1,-0.208 0.039,-0.4 0.139,-0.192 0.326,-0.176 0.326,-0.176"/><path id="path78" style="fill:#ffffff;fill-opacity:1;fill-rule:nonzero;stroke:none" d="m 10.6235,16.1943 c 0,0 -0.147,0.121 -0.202,0.317 -0.055,0.197 0.012,0.436 0.012,0.436 0,0 0.115,-0.012 0.19,-0.103 0.055,-0.066 0.065,-0.199 0.065,-0.199 0,0 0.029,0.043 0.127,0.086 0.098,0.043 0.173,0.039 0.173,0.039 0,0 0.1,-0.208 -0.039,-0.4 -0.14,-0.192 -0.326,-0.176 -0.326,-0.176"/><path id="path79" style="fill:#ffffff;fill-opacity:1;fill-rule:nonzero;stroke:none" d="m 25.5664,18.4019 c 0,0 0.067,-0.325 0,-0.586 -0.066,-0.261 -0.229,-0.347 -0.229,-0.347 0,0 0.155,0.014 0.318,-0.02 0.162,-0.033 0.265,-0.114 0.265,-0.114 0,0 -0.119,-0.189 -0.348,-0.225 -0.23,-0.036 -0.394,0.051 -0.394,0.051 0,0 -0.004,-0.159 -0.239,-0.27 -0.235,-0.113 -0.529,-0.111 -0.529,-0.111 0,0 0.027,0.075 0.092,0.177 0.064,0.102 0.137,0.189 0.137,0.189 0,0 -0.169,0.07 -0.301,0.173 -0.13,0.105 -0.305,0.33 -0.305,0.33 0,0 0.143,0.024 0.311,0.016 0.169,-0.008 0.344,-0.037 0.344,-0.037 0,0 -0.087,0.141 -0.132,0.392 -0.045,0.251 -0.017,0.567 -0.017,0.567 0,0 0.182,-0.106 0.311,-0.267 0.13,-0.161 0.253,-0.363 0.253,-0.363 0,0 0.028,0.12 0.185,0.259 0.157,0.139 0.278,0.186 0.278,0.186"/><path id="path80" style="fill:#ffffff;fill-opacity:1;fill-rule:nonzero;stroke:none" d="m 10.4331,18.4019 c 0,0 -0.066,-0.325 0,-0.586 0.067,-0.261 0.229,-0.347 0.229,-0.347 0,0 -0.154,0.014 -0.317,-0.02 -0.163,-0.033 -0.265,-0.114 -0.265,-0.114 0,0 0.118,-0.189 0.347,-0.225 0.23,-0.036 0.395,0.051 0.395,0.051 0,0 0.004,-0.159 0.238,-0.27 0.236,-0.113 0.53,-0.111 0.53,-0.111 0,0 -0.027,0.075 -0.092,0.177 -0.065,0.102 -0.137,0.189 -0.137,0.189 0,0 0.168,0.07 0.3,0.173 0.131,0.105 0.306,0.33 0.306,0.33 0,0 -0.143,0.024 -0.312,0.016 -0.169,-0.008 -0.344,-0.037 -0.344,-0.037 0,0 0.087,0.141 0.132,0.392 0.045,0.251 0.018,0.567 0.018,0.567 0,0 -0.183,-0.106 -0.312,-0.267 -0.13,-0.161 -0.253,-0.363 -0.253,-0.363 0,0 -0.027,0.12 -0.184,0.259 -0.157,0.139 -0.279,0.186 -0.279,0.186"/><path id="path81" style="fill:#ffffff;fill-opacity:1;fill-rule:nonzero;stroke:none" d="m 26.8984,18.125 c 0,0 0.021,-0.187 0.161,-0.302 0.139,-0.114 0.316,-0.148 0.316,-0.148 0,0 0.029,0.123 0.007,0.278 -0.021,0.155 -0.109,0.263 -0.109,0.263 0,0 0.109,-0.014 0.236,0.031 0.126,0.045 0.199,0.125 0.199,0.125 0,0 -0.034,0.056 -0.154,0.144 -0.088,0.064 -0.245,0.079 -0.245,0.079 0,0 0.055,0.072 0.081,0.239 0.027,0.167 0,0.308 0,0.308 0,0 -0.153,-0.03 -0.268,-0.104 -0.117,-0.076 -0.203,-0.194 -0.203,-0.194 0,0 -0.06,0.096 -0.136,0.181 -0.077,0.084 -0.324,0.195 -0.324,0.195 0,0 -0.02,-0.251 0.028,-0.414 0.049,-0.162 0.106,-0.203 0.106,-0.203 0,0 -0.13,0.018 -0.286,-0.017 -0.156,-0.034 -0.279,-0.138 -0.279,-0.138 0,0 0.099,-0.121 0.286,-0.197 0.138,-0.055 0.279,-0.022 0.279,-0.022 0,0 -0.054,-0.065 -0.075,-0.229 -0.02,-0.164 0.055,-0.339 0.055,-0.339 0,0 0.128,0.046 0.221,0.189 0.093,0.141 0.104,0.275 0.104,0.275"/><path id="path82" style="fill:#ffffff;fill-opacity:1;fill-rule:nonzero;stroke:none" d="m 9.1016,18.125 c 0,0 -0.022,-0.187 -0.161,-0.302 -0.139,-0.114 -0.316,-0.148 -0.316,-0.148 0,0 -0.029,0.123 -0.007,0.278 0.022,0.155 0.109,0.263 0.109,0.263 0,0 -0.109,-0.014 -0.236,0.031 -0.126,0.045 -0.199,0.125 -0.199,0.125 0,0 0.034,0.056 0.154,0.144 0.088,0.064 0.245,0.079 0.245,0.079 0,0 -0.055,0.072 -0.081,0.239 -0.027,0.167 0,0.308 0,0.308 0,0 0.153,-0.03 0.268,-0.104 0.116,-0.076 0.202,-0.194 0.202,-0.194 0,0 0.061,0.096 0.138,0.181 0.076,0.084 0.323,0.195 0.323,0.195 0,0 0.02,-0.251 -0.028,-0.414 -0.049,-0.162 -0.106,-0.203 -0.106,-0.203 0,0 0.13,0.018 0.286,-0.017 0.156,-0.034 0.279,-0.138 0.279,-0.138 0,0 -0.099,-0.121 -0.286,-0.197 -0.138,-0.055 -0.279,-0.022 -0.279,-0.022 0,0 0.054,-0.065 0.075,-0.229 0.02,-0.164 -0.055,-0.339 -0.055,-0.339 0,0 -0.128,0.046 -0.222,0.189 -0.092,0.141 -0.103,0.275 -0.103,0.275"/><path id="path83" style="fill:#ffffff;fill-opacity:1;fill-rule:nonzero;stroke:none" d="m 25.1094,19.8765 c 0,0 -0.097,-0.119 -0.222,-0.18 -0.125,-0.061 -0.245,-0.049 -0.245,-0.049 0,0 -0.035,0.107 0,0.229 0.034,0.122 0.1,0.222 0.1,0.222 0,0 -0.096,0.029 -0.195,0.09 -0.1,0.062 -0.155,0.146 -0.155,0.146 0,0 0.003,0.081 0.113,0.124 0.109,0.042 0.246,0.057 0.246,0.057 0,0 -0.062,0.089 -0.051,0.264 0.011,0.175 0.062,0.267 0.062,0.267 0,0 0.16,-0.036 0.279,-0.193 0.099,-0.134 0.112,-0.319 0.112,-0.319 0,0 0.013,0.134 0.169,0.25 0.156,0.115 0.308,0.1 0.308,0.1 0,0 0.034,-0.163 -0.011,-0.306 -0.031,-0.096 -0.107,-0.179 -0.107,-0.179 0,0 0.141,-0.023 0.266,-0.081 0.125,-0.058 0.2,-0.215 0.2,-0.215 0,0 -0.054,-0.066 -0.2,-0.097 -0.148,-0.031 -0.278,-0.035 -0.278,-0.035 0,0 0.044,-0.054 0.062,-0.179 0.019,-0.125 -0.031,-0.217 -0.031,-0.217 0,0 -0.115,0.018 -0.233,0.098 -0.117,0.079 -0.189,0.203 -0.189,0.203"/><path id="path84" style="fill:#ffffff;fill-opacity:1;fill-rule:nonzero;stroke:none" d="m 10.8906,19.8765 c 0,0 0.097,-0.119 0.222,-0.18 0.125,-0.061 0.245,-0.049 0.245,-0.049 0,0 0.034,0.107 0,0.229 -0.034,0.122 -0.1,0.222 -0.1,0.222 0,0 0.095,0.029 0.195,0.09 0.101,0.062 0.155,0.146 0.155,0.146 0,0 -0.003,0.081 -0.113,0.124 -0.109,0.042 -0.246,0.057 -0.246,0.057 0,0 0.062,0.089 0.051,0.264 -0.011,0.175 -0.062,0.267 -0.062,0.267 0,0 -0.16,-0.036 -0.278,-0.193 -0.1,-0.133 -0.113,-0.319 -0.113,-0.319 0,0 -0.012,0.134 -0.168,0.25 -0.157,0.115 -0.31,0.1 -0.31,0.1 0,0 -0.033,-0.163 0.013,-0.306 0.03,-0.096 0.106,-0.179 0.106,-0.179 0,0 -0.141,-0.023 -0.266,-0.081 -0.125,-0.058 -0.2,-0.215 -0.2,-0.215 0,0 0.054,-0.066 0.2,-0.097 0.147,-0.031 0.278,-0.035 0.278,-0.035 0,0 -0.044,-0.054 -0.062,-0.179 -0.019,-0.125 0.031,-0.217 0.031,-0.217 0,0 0.116,0.018 0.233,0.098 0.117,0.079 0.189,0.203 0.189,0.203"/><path id="path85" style="fill:#ffffff;fill-opacity:1;fill-rule:nonzero;stroke:none" d="m 26.4795,20.7451 c 0,0 -0.175,0.246 -0.177,0.575 -10e-4,0.33 0.198,0.566 0.198,0.566 0,0 0.156,-0.106 0.197,-0.277 0.04,-0.17 0.026,-0.294 0.026,-0.294 0,0 0.102,0.099 0.251,0.169 0.151,0.071 0.296,0.068 0.296,0.068 0,0 0.013,-0.223 -0.094,-0.371 -0.106,-0.148 -0.304,-0.262 -0.304,-0.262 0,0 0.179,-0.052 0.315,-0.161 0.136,-0.11 0.229,-0.33 0.229,-0.33 0,0 -0.243,-0.089 -0.518,0.028 -0.275,0.117 -0.419,0.289 -0.419,0.289"/><path id="path86" style="fill:#ffffff;fill-opacity:1;fill-rule:nonzero;stroke:none" d="m 9.5205,20.7451 c 0,0 0.175,0.246 0.176,0.575 0.002,0.33 -0.197,0.566 -0.197,0.566 0,0 -0.156,-0.106 -0.196,-0.277 -0.041,-0.17 -0.027,-0.294 -0.027,-0.294 0,0 -0.102,0.099 -0.252,0.169 -0.15,0.071 -0.295,0.068 -0.295,0.068 0,0 -0.012,-0.223 0.094,-0.371 0.106,-0.148 0.304,-0.262 0.304,-0.262 0,0 -0.179,-0.052 -0.315,-0.161 -0.136,-0.11 -0.229,-0.33 -0.229,-0.33 0,0 0.243,-0.089 0.518,0.028 0.275,0.117 0.419,0.289 0.419,0.289"/><path id="path87" style="fill:#ffffff;fill-opacity:1;fill-rule:nonzero;stroke:none" d="m 26.0352,22.9331 c 0,0 0.008,-0.115 -0.027,-0.231 -0.035,-0.116 -0.123,-0.194 -0.123,-0.194 0,0 -0.085,0.102 -0.128,0.202 -0.043,0.099 -0.061,0.223 -0.061,0.223 0,0 -0.128,-0.068 -0.239,-0.068 -0.112,0 -0.196,0.05 -0.196,0.05 0,0 0.015,0.073 0.072,0.162 0.057,0.087 0.102,0.119 0.102,0.119 0,0 -0.092,0.051 -0.157,0.113 -0.064,0.063 -0.115,0.226 -0.115,0.226 0,0 0.08,0.01 0.189,0 0.111,-0.01 0.204,-0.029 0.204,-0.029 0,0 -0.017,0.114 0.03,0.26 0.048,0.147 0.173,0.248 0.173,0.248 0,0 0.093,-0.112 0.13,-0.192 0.035,-0.081 0.062,-0.197 0.062,-0.197 0,0 0.09,0.03 0.2,0.041 0.11,0.012 0.255,-0.025 0.255,-0.025 0,0 -0.012,-0.076 -0.087,-0.176 -0.074,-0.1 -0.178,-0.195 -0.178,-0.195 0,0 0.057,-0.011 0.174,-0.129 0.092,-0.092 0.136,-0.2 0.136,-0.2 0,0 -0.045,-0.041 -0.198,-0.041 -0.087,0 -0.218,0.033 -0.218,0.033"/><path id="path88" style="fill:#ffffff;fill-opacity:1;fill-rule:nonzero;stroke:none" d="m 9.9648,22.9331 c 0,0 -0.008,-0.115 0.027,-0.231 0.035,-0.116 0.124,-0.194 0.124,-0.194 0,0 0.084,0.102 0.127,0.202 0.043,0.099 0.061,0.223 0.061,0.223 0,0 0.127,-0.068 0.239,-0.068 0.112,0 0.196,0.05 0.196,0.05 0,0 -0.015,0.073 -0.072,0.162 -0.057,0.087 -0.102,0.119 -0.102,0.119 0,0 0.092,0.051 0.157,0.113 0.064,0.063 0.116,0.226 0.116,0.226 0,0 -0.081,0.01 -0.191,0 -0.11,-0.01 -0.203,-0.029 -0.203,-0.029 0,0 0.017,0.114 -0.03,0.26 -0.047,0.147 -0.173,0.248 -0.173,0.248 0,0 -0.094,-0.112 -0.129,-0.192 -0.035,-0.081 -0.063,-0.197 -0.063,-0.197 0,0 -0.09,0.03 -0.2,0.041 -0.11,0.012 -0.255,-0.025 -0.255,-0.025 0,0 0.012,-0.076 0.086,-0.176 0.075,-0.1 0.179,-0.195 0.179,-0.195 0,0 -0.057,-0.011 -0.175,-0.129 -0.092,-0.092 -0.135,-0.2 -0.135,-0.2 0,0 0.045,-0.041 0.198,-0.041 0.087,0 0.218,0.033 0.218,0.033"/><path id="path89" style="fill:#ffffff;fill-opacity:1;fill-rule:nonzero;stroke:none" d="m 24.3506,23.2803 c 0,0 0.062,-0.072 0.101,-0.217 0.039,-0.146 0.029,-0.34 0.029,-0.34 0,0 -0.055,0.016 -0.15,0.073 -0.093,0.057 -0.134,0.113 -0.134,0.113 0,0 -0.075,-0.05 -0.189,-0.062 -0.113,-0.012 -0.235,0.017 -0.235,0.017 0,0 0.016,0.055 0.047,0.138 0.031,0.082 0.059,0.137 0.059,0.137 0,0 -0.073,0.035 -0.124,0.065 -0.05,0.029 -0.127,0.092 -0.127,0.092 0,0 0.071,0.09 0.139,0.127 0.068,0.038 0.206,0.075 0.206,0.075 0,0 -0.01,0.017 -0.037,0.106 -0.027,0.088 -0.031,0.129 -0.031,0.129 0,0 0.174,0.029 0.313,-0.073 0.151,-0.109 0.133,-0.38 0.133,-0.38"/><path id="path90" style="fill:#ffffff;fill-opacity:1;fill-rule:nonzero;stroke:none" d="m 11.6489,23.2803 c 0,0 -0.061,-0.072 -0.1,-0.217 -0.039,-0.146 -0.029,-0.34 -0.029,-0.34 0,0 0.055,0.016 0.149,0.073 0.094,0.057 0.135,0.113 0.135,0.113 0,0 0.074,-0.05 0.188,-0.062 0.114,-0.012 0.236,0.017 0.236,0.017 0,0 -0.016,0.055 -0.048,0.138 -0.031,0.082 -0.058,0.137 -0.058,0.137 0,0 0.072,0.035 0.123,0.065 0.051,0.029 0.128,0.092 0.128,0.092 0,0 -0.071,0.09 -0.14,0.127 -0.068,0.038 -0.206,0.075 -0.206,0.075 0,0 0.01,0.017 0.038,0.106 0.027,0.088 0.031,0.129 0.031,0.129 0,0 -0.174,0.029 -0.314,-0.073 -0.151,-0.109 -0.133,-0.38 -0.133,-0.38"/><path id="path91" style="fill:#ffffff;fill-opacity:1;fill-rule:nonzero;stroke:none" d="m 24.3623,24.4233 c 0,0 0.144,0.01 0.264,0.124 0.119,0.113 0.168,0.233 0.168,0.233 0,0 -0.077,0.006 -0.141,0 -0.065,-0.006 -0.134,-0.031 -0.134,-0.031 0,0 0.008,0.033 -0.006,0.117 -0.013,0.085 -0.032,0.143 -0.032,0.143 0,0 -0.065,-0.05 -0.119,-0.111 -0.053,-0.061 -0.08,-0.128 -0.08,-0.128 0,0 -0.039,0.037 -0.121,0.077 -0.083,0.039 -0.152,0.053 -0.152,0.053 0,0 -0.005,-0.145 0.088,-0.275 0.093,-0.127 0.265,-0.202 0.265,-0.202"/><path id="path92" style="fill:#ffffff;fill-opacity:1;fill-rule:nonzero;stroke:none" d="m 11.6372,24.4233 c 0,0 -0.143,0.01 -0.263,0.124 -0.119,0.113 -0.168,0.233 -0.168,0.233 0,0 0.076,0.006 0.141,0 0.064,-0.006 0.133,-0.031 0.133,-0.031 0,0 -0.008,0.033 0.006,0.117 0.014,0.085 0.032,0.143 0.032,0.143 0,0 0.066,-0.05 0.119,-0.111 0.053,-0.061 0.081,-0.128 0.081,-0.128 0,0 0.039,0.037 0.121,0.077 0.082,0.039 0.151,0.053 0.151,0.053 0,0 0.006,-0.145 -0.088,-0.275 -0.093,-0.127 -0.265,-0.202 -0.265,-0.202"/><path id="path93" style="fill:#ffffff;fill-opacity:1;fill-rule:nonzero;stroke:none" d="m 23.4922,24.6392 c 0,0 0.072,0.237 0.043,0.392 -0.029,0.155 -0.147,0.295 -0.147,0.295 0,0 -0.04,-0.058 -0.063,-0.136 -0.023,-0.078 -0.025,-0.167 -0.025,-0.167 0,0 -0.059,0.035 -0.162,0.075 -0.105,0.039 -0.205,0.055 -0.205,0.055 0,0 0.026,-0.112 0.059,-0.184 l 0.033,-0.073 0.065,-0.104 c 0,0 -0.086,-0.026 -0.184,-0.074 -0.099,-0.05 -0.159,-0.108 -0.159,-0.108 0,0 0.171,-0.106 0.379,-0.093 0.185,0.013 0.366,0.122 0.366,0.122"/><path id="path94" style="fill:#ffffff;fill-opacity:1;fill-rule:nonzero;stroke:none" d="m 12.5078,24.6392 c 0,0 -0.073,0.237 -0.043,0.392 0.029,0.155 0.147,0.295 0.147,0.295 0,0 0.039,-0.058 0.063,-0.136 0.023,-0.078 0.025,-0.167 0.025,-0.167 0,0 0.059,0.035 0.163,0.075 0.104,0.039 0.204,0.055 0.204,0.055 0,0 -0.026,-0.112 -0.059,-0.184 l -0.033,-0.073 -0.065,-0.104 c 0,0 0.086,-0.026 0.184,-0.074 0.099,-0.05 0.159,-0.108 0.159,-0.108 0,0 -0.17,-0.106 -0.378,-0.093 -0.186,0.013 -0.367,0.122 -0.367,0.122"/><path id="path95" style="fill:#ffffff;fill-opacity:1;fill-rule:nonzero;stroke:none" d="m 19.3125,11.0625 c 1.452,0.381 2.833,1.006 4.033,1.88 1.199,0.866 2.053,2.161 2.458,3.582 0.415,1.421 0.407,2.958 0.035,4.396 -0.356,1.448 -1.167,2.777 -2.346,3.719 1.243,-0.854 2.127,-2.208 2.511,-3.673 0.404,-1.459 0.456,-3.037 0.036,-4.509 -0.416,-1.467 -1.3,-2.817 -2.547,-3.717 -1.25,-0.864 -2.685,-1.475 -4.18,-1.678"/><path id="path96" style="fill:#ffffff;fill-opacity:1;fill-rule:nonzero;stroke:none" d="m 16.6875,11.0625 c -1.496,0.203 -2.93,0.814 -4.179,1.678 -1.247,0.9 -2.132,2.25 -2.547,3.717 -0.421,1.472 -0.368,3.05 0.034,4.509 0.385,1.465 1.269,2.819 2.512,3.673 -1.179,-0.942 -1.99,-2.271 -2.346,-3.719 -0.373,-1.438 -0.38,-2.975 0.035,-4.396 0.405,-1.421 1.259,-2.716 2.457,-3.582 1.201,-0.874 2.581,-1.499 4.034,-1.88"/></g></g></g></g></svg>