<svg xmlns:dc="http://purl.org/dc/elements/1.1/" xmlns:cc="http://creativecommons.org/ns#" xmlns:rdf="http://www.w3.org/1999/02/22-rdf-syntax-ns#" xmlns:svg="http://www.w3.org/2000/svg" xmlns="http://www.w3.org/2000/svg" viewBox="0 0 45 45" style="enable-background:new 0 0 45 45;" xml:space="preserve" version="1.1" id="svg2"><metadata id="metadata8"><rdf:RDF><cc:Work rdf:about=""><dc:format>image/svg+xml</dc:format><dc:type rdf:resource="http://purl.org/dc/dcmitype/StillImage"/></cc:Work></rdf:RDF></metadata><defs id="defs6"><clipPath id="clipPath16" clipPathUnits="userSpaceOnUse"><path id="path18" d="M 0,36 36,36 36,0 0,0 0,36 Z"/></clipPath></defs><g transform="matrix(1.25,0,0,-1.25,0,45)" id="g10"><g id="g12"><g xmlns="http://www.w3.org/2000/svg" clip-path="url(#clipPath16)" id="g14"><g id="g20"><path id="path22" style="fill:#e33526;fill-opacity:1;fill-rule:nonzero;stroke:none" d="m 32,30.9998 -28,0 c -2.209,0 -4,-1.791 -4,-4 l 0,-1.2 36,0 0,1.2 c 0,2.209 -1.791,4 -4,4"/></g><g id="g24"><path id="path26" style="fill:#eeeeee;fill-opacity:1;fill-rule:nonzero;stroke:none" d="m 36,25.7998 -36,0 0,-15.6 36,0 0,15.6 z"/></g><g id="g28"><path id="path30" style="fill:#e33526;fill-opacity:1;fill-rule:nonzero;stroke:none" d="M 0,10.2 0,9 C 0,6.791 1.791,5 4,5 l 28,0 c 2.209,0 4,1.791 4,4 l 0,1.2 -36,0 z"/></g><g id="g32"><path id="path34" style="fill:#e33526;fill-opacity:1;fill-rule:nonzero;stroke:none" d="m 16.0317,23.3406 c 0,0 -0.14,0.077 -0.912,0.073 -0.362,-0.002 -0.594,0.032 -0.734,0.2 -0.172,0.208 -0.187,0.518 -0.07,0.518 0.149,0 -0.094,-0.302 0.384,-0.443 0.411,-0.121 0.618,-0.131 0.945,-0.138 0.327,-0.007 0.345,-0.048 0.345,-0.048 l 0.042,-0.076 0,-0.086 z"/></g><g id="g36"><path id="path38" style="fill:#000000;fill-opacity:1;fill-rule:nonzero;stroke:none" d="m 14.541,24.9383 0.924,0.035 c 0,0 0.408,0.393 1.305,0.393 0.562,0 0.989,-0.172 0.989,-0.172 0,0 0.349,0.29 0.698,-0.09 0.275,-0.301 -0.079,-0.687 -0.079,-0.687 0,0 0.122,-0.329 0.122,-1.02 0,-0.689 -0.322,-1.16 -0.322,-1.16 l 0.212,-1.091 -0.51,-1.96 c 0,0 0.361,-1.434 0.432,-2.116 0.07,-0.682 0.535,-1.453 0.535,-1.453 l -0.041,-0.4 -0.201,0 c 0,0 0.044,-1.447 0.13,-1.961 0.086,-0.513 0.218,-0.998 0.218,-0.998 0,0 -0.359,-0.647 -1.041,-1.2 -0.683,-0.553 -1.177,-0.523 -1.283,0.112 -0.106,0.635 -0.029,0.73 0.283,0.742 0.312,0.011 0.576,0.223 0.576,0.223 0,0 -0.559,0.512 -0.953,1 -0.394,0.488 -0.523,0.976 -0.523,0.976 0,0 -1.014,-0.235 -1.471,-1.074 -0.457,-0.839 -0.622,-1.835 -0.622,-1.835 0,0 -2.243,0.47 -2.439,0.768 -0.196,0.298 0.04,1.028 0.29,1.098 0.251,0.071 1.193,-0.596 1.193,-0.596 0,0 -0.283,1.467 0.125,2.392 0.408,0.926 1.993,1.71 1.993,1.71 0,0 -0.222,0.208 -0.452,0.673 -0.158,0.321 -0.217,0.77 -0.217,0.77 0,0 -1.444,-0.596 -2.582,-0.235 -0.818,0.259 -1.518,1.259 -1.565,1.435 -0.047,0.177 0.553,0.912 0.911,0.888 0.359,-0.023 0.818,-1.176 0.818,-1.176 0,0 0.336,-0.006 1.077,0.376 0.741,0.383 1.064,0.536 1.064,0.536 0,0 -1.577,0.684 -2.582,1.676 -0.47,0.465 -0.592,1.041 -0.647,1.247 -0.059,0.22 -0.32,0.632 -0.32,0.704 0,0.141 0.549,0.584 0.967,0.349 0.418,-0.235 0.47,-1.282 0.47,-1.282 0,0 0.554,-0.265 1.394,-0.547 0.842,-0.282 1.19,-0.33 1.19,-0.33 0,0 0.275,0.271 0.822,0.548 0.548,0.276 0.418,0.523 0.418,0.523 0,0 -0.623,-0.035 -0.829,0.064 -0.136,0.067 -0.112,0.207 -0.112,0.207 l 1.129,0.1 c 0,0 0.126,0.713 -0.673,0.883 -1.047,0.224 -0.821,0.955 -0.821,0.955"/></g></g></g></g></svg>