<svg xmlns:dc="http://purl.org/dc/elements/1.1/" xmlns:cc="http://creativecommons.org/ns#" xmlns:rdf="http://www.w3.org/1999/02/22-rdf-syntax-ns#" xmlns:svg="http://www.w3.org/2000/svg" xmlns="http://www.w3.org/2000/svg" viewBox="0 0 45 45" style="enable-background:new 0 0 45 45;" xml:space="preserve" version="1.1" id="svg2"><metadata id="metadata8"><rdf:RDF><cc:Work rdf:about=""><dc:format>image/svg+xml</dc:format><dc:type rdf:resource="http://purl.org/dc/dcmitype/StillImage"/></cc:Work></rdf:RDF></metadata><defs id="defs6"><clipPath id="clipPath16" clipPathUnits="userSpaceOnUse"><path id="path18" d="M 0,36 36,36 36,0 0,0 0,36 Z"/></clipPath></defs><g transform="matrix(1.25,0,0,-1.25,0,45)" id="g10"><g id="g12"><g clip-path="url(#clipPath16)" id="g14"><g id="g20"><path id="path22" style="fill:#3200b7;fill-opacity:1;fill-rule:nonzero;stroke:none" d="M 32,31.0001 H 4 c -2.209,0 -4,-1.791 -4,-4 v -4.668 h 36 v 4.668 c 0,2.209 -1.791,4 -4,4"/></g><g id="g24"><path id="path26" style="fill:#3200b7;fill-opacity:1;fill-rule:nonzero;stroke:none" d="M 0,13.669 V 9 C 0,6.791 1.791,5 4,5 h 28 c 2.209,0 4,1.791 4,4 v 4.669 z"/></g><g id="g28"><path id="path30" style="fill:#eeeeee;fill-opacity:1;fill-rule:nonzero;stroke:none" d="m 0,13.6691 h 36 v 8.663 H 0 Z"/></g><g id="g32"><path id="path40" style="fill:#141414;fill-opacity:1;fill-rule:nonzero;stroke:none" d="m 18,15.046 c 0,0 -0.351,0.148 -0.732,0.261 -0.368,0.108 -0.886,0.244 -1.286,0.565 -0.594,0.479 -0.72,1.14 -0.72,1.578 0,0.5 0.168,0.968 0.168,1.533 0,0.564 -0.215,0.923 -0.215,0.985 0,0.063 0.077,0.073 0.077,0.073 0,0 0.5,0.037 1.187,0.224 0.883,0.239 1.245,0.427 1.521,0.427 0.276,0 0.639,-0.188 1.521,-0.427 0.687,-0.187 1.187,-0.224 1.187,-0.224 0,0 0.076,-0.01 0.076,-0.073 0,-0.062 -0.214,-0.421 -0.214,-0.985 0,-0.565 0.167,-1.033 0.167,-1.533 0,-0.438 -0.125,-1.099 -0.719,-1.578 C 19.617,15.551 19.1,15.415 18.732,15.307 18.351,15.194 18,15.046 18,15.046"/><path id="path41" style="fill:#663333;fill-opacity:1;fill-rule:nonzero;stroke:none" d="m 18.0601,15.7384 v -0.508 c 0.14,0.06 0.37,0.14 0.63,0.22 l 0.079,0.019 c 0.175,0.054 0.368,0.112 0.559,0.189 l -0.581,0.036 v 0.361 c 0,0 -0.006,0.083 -0.088,0.083 -0.083,0 -0.086,-0.059 -0.086,-0.059 v -0.37 z"/><path id="path42" style="fill:#eeeeee;fill-opacity:1;fill-rule:nonzero;stroke:none" d="m 18.4844,16.4972 0.053,-0.114 0.046,0.107 0.054,-0.128 0.072,0.235 0.08,-0.267 0.059,0.152 0.052,-0.11 0.043,0.1 0.06,-0.217 v -0.237 l 0.325,-0.03 v -0.33 l -0.581,0.036 v 0.362 c 0,0 -0.006,0.083 -0.088,0.083 -0.083,0 -0.086,-0.06 -0.086,-0.06 v -0.37 l -0.513,0.029 v 0.318 l 0.273,-0.017 v 0.253 l 0.082,-0.005 z"/><path id="path43" style="fill:#eeeeee;fill-opacity:1;fill-rule:nonzero;stroke:none" d="m 19.1113,16.7198 0.186,-0.021 0.164,0.031 -0.186,0.603 z"/><path id="path44" style="fill:#387223;fill-opacity:1;fill-rule:nonzero;stroke:none" d="m 20.5859,17.3155 c 0.003,0.049 0.004,0.094 0.004,0.135 0,0.195 -0.028,0.391 -0.063,0.587 l -0.445,0.186 -0.32,-0.147 -0.335,0.124 -0.321,-0.186 -0.409,0.227 -0.637,-0.348 v -1.838 l 0.273,-0.016 v 0.253 l 0.082,-0.005 0.069,0.21 0.053,-0.115 0.046,0.108 0.055,-0.128 0.071,0.234 0.08,-0.266 0.06,0.152 0.051,-0.11 0.043,0.099 0.034,-0.118 0.344,0.245 0.763,0.455 0.184,0.052 z"/><path id="path45" style="fill:#663333;fill-opacity:1;fill-rule:nonzero;stroke:none" d="m 18.9766,16.3536 0.026,-0.099 v -0.237 l 0.212,-0.019 0.356,0.351 0.552,0.307 0.439,0.451 c 0.013,0.073 0.02,0.143 0.024,0.208 l -0.318,-0.21 -0.184,-0.052 -0.762,-0.455 z"/><path id="path46" style="fill:#387223;fill-opacity:1;fill-rule:nonzero;stroke:none" d="m 19.2148,15.9981 0.113,-0.01 v -0.33 c 0.206,0.082 0.411,0.188 0.592,0.332 0.422,0.334 0.585,0.77 0.642,1.117 l -0.439,-0.451 -0.553,-0.306 z"/><path id="path47" style="fill:#8ee8fc;fill-opacity:1;fill-rule:nonzero;stroke:none" d="m 18.6973,18.2413 0.408,-0.227 0.321,0.186 0.335,-0.124 0.321,0.147 0.445,-0.186 c -0.006,0.034 -0.012,0.068 -0.018,0.103 -0.009,0.05 -0.009,0.09 -0.019,0.14 h -2.43 v -0.387 z"/><path id="path48" style="fill:#867341;fill-opacity:1;fill-rule:nonzero;stroke:none" d="m 15.5273,16.7618 0.2,0.103 0.667,-0.137 0.368,0.137 1.178,-0.2 v -1.434 c -0.141,0.059 -0.371,0.139 -0.63,0.219 l -0.08,0.02 c -0.36,0.11 -0.81,0.24 -1.15,0.521 -0.29,0.229 -0.458,0.506 -0.553,0.771"/><path id="path49" style="fill:#366d22;fill-opacity:1;fill-rule:nonzero;stroke:none" d="m 16.7627,16.8644 1.177,-0.199 v 0.95 l -0.62,0.302 -0.885,-0.368 -0.38,0.317 -0.642,-0.299 c -0.002,-0.039 -0.003,-0.078 -0.003,-0.117 0,-0.175 0.023,-0.425 0.118,-0.689 l 0.2,0.103 0.666,-0.137 z"/><path id="path50" style="fill:#8ee8fc;fill-opacity:1;fill-rule:nonzero;stroke:none" d="m 15.4131,17.5675 c 0.01,0.191 0.044,0.382 0.077,0.573 0.01,0.05 0.01,0.09 0.02,0.14 h 2.43 v -0.665 l -0.62,0.302 -0.885,-0.369 -0.38,0.318 z"/><path id="path51" style="fill:#ffffff;fill-opacity:1;fill-rule:nonzero;stroke:none" d="m 17.6001,17.1446 c 0,0 0.022,-0.137 0.053,-0.253 0.038,-0.146 0.114,-0.238 0.056,-0.435 -0.036,-0.121 -0.077,-0.155 -0.003,-0.242 0.082,-0.097 0.021,-0.25 -0.106,-0.25 -0.203,0 -0.256,0.408 -0.141,0.626 0.091,0.174 -0.033,0.277 0.026,0.412 0.044,0.101 0.115,0.142 0.115,0.142"/><path id="path52" style="fill:#ffffff;fill-opacity:1;fill-rule:nonzero;stroke:none" d="m 17.1411,17.3858 c 0,0 0.109,-0.133 0.115,-0.392 0.006,-0.258 0.088,-0.42 0.073,-0.608 -0.014,-0.188 -0.135,-0.263 -0.273,-0.263 -0.139,0 -0.171,0.113 -0.147,0.368 0.023,0.256 0.098,0.449 0.123,0.64 0.023,0.175 0.109,0.255 0.109,0.255"/><path id="path53" style="fill:#ffffff;fill-opacity:1;fill-rule:nonzero;stroke:none" d="m 16.4883,17.4532 c 0,0 -0.282,-0.083 -0.303,-0.377 -0.021,-0.294 0.117,-0.408 0.097,-0.591 -0.021,-0.182 -0.185,-0.403 0.206,-0.403 0.391,0 0.224,0.333 0.224,0.473 0,0.139 -0.139,0.192 -0.154,0.43 -0.014,0.239 -0.07,0.468 -0.07,0.468"/><path id="path54" style="fill:#dde09b;fill-opacity:1;fill-rule:nonzero;stroke:none" d="m 17.501,18.4 h 2.969 c -0.03,0.18 -0.05,0.38 -0.05,0.58 0,0.43 0.12,0.75 0.18,0.92 -0.17,0.02 -0.59,0.08 -1.12,0.22 -0.38,0.1 -0.66,0.2 -0.89,0.27 -0.28,0.09 -0.46,0.15 -0.59,0.15 -0.115,0 -0.27,-0.047 -0.499,-0.12 z"/><path id="path55" style="fill:#b2def0;fill-opacity:1;fill-rule:nonzero;stroke:none" d="m 17.5015,20.4195 c -0.029,-0.009 -0.06,-0.019 -0.091,-0.029 -0.23,-0.071 -0.511,-0.171 -0.89,-0.27 -0.53,-0.14 -0.94,-0.201 -1.121,-0.221 0.06,-0.169 0.181,-0.489 0.181,-0.919 0,-0.2 -0.02,-0.4 -0.05,-0.581 h 1.971 z"/><path id="path56" style="fill:#ffcd00;fill-opacity:1;fill-rule:nonzero;stroke:none" d="m 18.473,18.4491 h -0.945 v 0.29 h 0.945 z"/><path id="path57" style="fill:#ffeb99;fill-opacity:1;fill-rule:nonzero;stroke:none" d="m 18.473,20.1001 h -0.945 v -1.361 h 0.945 z"/><path id="path58" style="fill:#ffcd00;fill-opacity:1;fill-rule:nonzero;stroke:none" d="m 18.473,20.1001 h -0.945 v 0.29 h 0.945 z"/><path id="path59" style="fill:#66cdff;fill-opacity:1;fill-rule:nonzero;stroke:none" d="m 17.6812,18.7799 c 0,0 -0.061,0.009 -0.061,0.102 0,0.301 0.322,0.371 0.322,0.535 0,0.199 -0.322,0.232 -0.322,0.546 0,0.103 0.075,0.098 0.075,0.098 h 0.61 c 0,0 0.075,0.005 0.075,-0.098 0,-0.314 -0.323,-0.347 -0.323,-0.546 0,-0.164 0.323,-0.234 0.323,-0.535 0,-0.093 -0.061,-0.102 -0.061,-0.102 z"/><path id="path60" style="fill:#ffcd00;fill-opacity:1;fill-rule:nonzero;stroke:none" d="m 18,20.6925 c -0.276,0 -0.638,-0.188 -1.521,-0.428 -0.687,-0.186 -1.187,-0.223 -1.187,-0.223 0,0 0.32,0.215 0.506,0.372 0.186,0.157 0.239,0.334 0.239,0.334 0,0 -0.121,-0.051 -0.176,-0.061 -0.027,-0.005 -0.112,0.021 -0.137,0.121 -0.03,0.116 0.043,0.165 0.043,0.165 0,0 0.002,0.051 0.115,0.108 0.114,0.057 1.453,0.741 1.628,0.806 0.055,0.02 0.112,0.012 0.112,0.012 0,0 0.186,0.025 0.227,-0.155 0.03,-0.131 -0.11,-0.149 -0.11,-0.149 l -0.184,-0.059 c 0,0 0.106,-0.251 0.445,-0.251 0.339,0 0.445,0.251 0.445,0.251 l -0.184,0.059 c 0,0 -0.14,0.018 -0.11,0.149 0.041,0.18 0.227,0.155 0.227,0.155 0,0 0.057,0.008 0.112,-0.012 0.175,-0.065 1.514,-0.749 1.627,-0.806 0.114,-0.057 0.116,-0.108 0.116,-0.108 0,0 0.073,-0.049 0.043,-0.165 -0.025,-0.1 -0.11,-0.126 -0.136,-0.121 -0.056,0.01 -0.177,0.061 -0.177,0.061 0,0 0.053,-0.177 0.239,-0.334 0.187,-0.157 0.506,-0.372 0.506,-0.372 0,0 -0.5,0.037 -1.187,0.223 -0.882,0.24 -1.245,0.428 -1.521,0.428"/><path id="path61" style="fill:#ffcd00;fill-opacity:1;fill-rule:nonzero;stroke:none" d="m 20.4277,14.6964 c 0,0 -0.01,-0.112 -0.045,-0.228 -0.036,-0.116 -0.089,-0.217 -0.089,-0.217 0,0 -0.013,-0.152 0.2,-0.152 0.247,0 0.257,0.236 0.257,0.236 0,0 0.136,0.343 0.136,0.585 0,0.241 -0.261,0.572 -1.071,0.572 -1.17,0 -2.426,-0.592 -3.563,-0.592 -0.504,0 -0.672,0.104 -0.672,0.104 0,0 0.021,0.137 0.056,0.251 0.036,0.113 0.075,0.17 0.075,0.206 0,0.035 -0.043,0.134 -0.204,0.134 -0.229,0 -0.245,-0.237 -0.245,-0.237 0,0 -0.135,-0.302 -0.135,-0.576 0,-0.274 0.278,-0.584 1.086,-0.584 1.219,0 2.176,0.603 3.518,0.603 0.58,0 0.696,-0.105 0.696,-0.105"/></g></g></g></g></svg>