<svg xmlns:dc="http://purl.org/dc/elements/1.1/" xmlns:cc="http://creativecommons.org/ns#" xmlns:rdf="http://www.w3.org/1999/02/22-rdf-syntax-ns#" xmlns:svg="http://www.w3.org/2000/svg" xmlns="http://www.w3.org/2000/svg" viewBox="0 0 45 45" style="enable-background:new 0 0 45 45;" xml:space="preserve" version="1.1" id="svg2"><metadata id="metadata8"><rdf:RDF><cc:Work rdf:about=""><dc:format>image/svg+xml</dc:format><dc:type rdf:resource="http://purl.org/dc/dcmitype/StillImage"/></cc:Work></rdf:RDF></metadata><defs id="defs6"><clipPath id="clipPath16" clipPathUnits="userSpaceOnUse"><path id="path18" d="M 4,31 C 1.791,31 0,29.209 0,27 L 0,27 0,9 C 0,6.791 1.791,5 4,5 l 0,0 28,0 c 2.209,0 4,1.791 4,4 l 0,0 0,18 c 0,2.209 -1.791,4 -4,4 l 0,0 -28,0 z"/></clipPath></defs><g transform="matrix(1.25,0,0,-1.25,0,45)" id="g10"><g id="g12"><g xmlns="http://www.w3.org/2000/svg" clip-path="url(#clipPath16)" id="g14"><g id="g30"><path id="path20" style="fill:#d40000;fill-opacity:1;fill-rule:nonzero;stroke:none" d="M 0,5 H 36 V 31 H 0 Z"/></g><g id="g34"><path id="path30" style="fill:#ffffff;fill-opacity:1;fill-rule:nonzero;stroke:none" d="m 22.2803,18 c 0,3.771 -3.056,6.827 -6.826,6.827 -3.771,0 -6.827,-3.056 -6.827,-6.827 0,-3.771 3.056,-6.827 6.827,-6.827 3.77,0 6.826,3.056 6.826,6.827"/><path id="path31" style="fill:#008033;fill-opacity:1;fill-rule:nonzero;stroke:none" d="m 15.7285,11.165 -0.479,0.017 0.207,5.624 0.479,-0.018 z"/><path id="path32" style="fill:#008033;fill-opacity:1;fill-rule:nonzero;stroke:none" d="m 18.7998,17.3486 -0.47,0.099 c 0.042,0.202 0.102,0.799 -0.122,1.114 -0.164,0.233 -0.59,0.15 -0.595,0.149 l -0.102,0.47 c 0.029,0.006 0.737,0.156 1.089,-0.341 0.39,-0.551 0.208,-1.453 0.2,-1.491"/><path id="path33" style="fill:#008033;fill-opacity:1;fill-rule:nonzero;stroke:none" d="m 12.8584,17.3682 -0.477,0.06 c 0.004,0.027 0.089,0.69 0.459,1.203 0.409,0.567 1.179,0.717 1.211,0.723 l 0.089,-0.472 c -0.006,-0.001 -0.615,-0.122 -0.911,-0.532 -0.299,-0.414 -0.371,-0.976 -0.371,-0.982"/><path id="path34" style="fill:#008033;fill-opacity:1;fill-rule:nonzero;stroke:none" d="m 17.4351,20.4849 c 0,0 0.48,0.362 0.885,1.257 0.292,0.646 0.72,0.931 1.097,0.957 0.439,0.031 0.808,-0.187 0.808,-0.187 0,0 -0.357,0.693 -1.208,0.693 -1.125,0 -2.007,-1.603 -2.007,-1.603 0,0 -0.036,1.34 -0.436,2.304 -0.229,0.553 -0.712,0.715 -1.007,0.715 -0.287,0 -0.271,-0.12 -0.271,-0.12 0,0 0.434,-0.026 0.434,-0.458 0,-0.414 -0.502,-2.645 -0.502,-2.645 0,0 -0.214,1.761 -1.609,2.226 -1.341,0.447 -2.236,-0.81 -2.236,-0.81 0,0 0.055,-0.034 0.171,0.053 0.268,0.202 0.587,0.455 1.156,0.455 0.683,0 0.933,-0.754 1.328,-1.759 0.31,-0.791 0.964,-1.228 0.964,-1.228 z"/><path id="path35" style="fill:#ff6600;fill-opacity:1;fill-rule:nonzero;stroke:none" d="m 20.5176,14.0703 c 0,0 -0.56,2.33 -1.082,2.96 -0.522,0.631 -1.513,0.623 -1.977,-0.099 -0.753,-1.172 -0.687,-3.115 -0.687,-3.115 0,0 0.113,0.01 0.254,0.085 0.141,0.075 0.261,0.185 0.261,0.185 0,0 -0.014,-0.079 -0.02,-0.296 -0.008,-0.217 -0.002,-0.375 -0.002,-0.375 0,0 0.144,0.037 0.332,0.153 0.189,0.116 0.336,0.248 0.336,0.248 0,0 0.1,-0.141 0.232,-0.279 0.132,-0.138 0.264,-0.22 0.264,-0.22 0,0 0.166,0.123 0.345,0.292 0.179,0.17 0.264,0.317 0.264,0.317 0,0 0.14,-0.138 0.395,-0.314 0.254,-0.176 0.533,-0.323 0.533,-0.323 0,0 0.013,0.191 -0.022,0.446 -0.03,0.22 -0.107,0.502 -0.107,0.502 0,0 0.158,-0.121 0.324,-0.176 0.197,-0.066 0.357,0.009 0.357,0.009"/><path id="path36" style="fill:#ff6600;fill-opacity:1;fill-rule:nonzero;stroke:none" d="m 14.3403,14.249 c 0,0 -0.295,0.37 -0.502,1.456 -0.207,1.086 -0.47,1.885 -1.606,1.795 -0.948,-0.076 -1.45,-1.029 -1.713,-1.689 -0.245,-0.612 -0.816,-1.216 -0.816,-1.216 0,0 0.226,-0.013 0.383,0.018 0.157,0.032 0.421,0.17 0.421,0.17 0,0 -0.051,-0.095 -0.101,-0.276 -0.05,-0.183 -0.038,-0.377 -0.038,-0.377 0,0 0.188,-0.006 0.471,0.095 0.282,0.099 0.564,0.282 0.564,0.282 0,0 0.044,-0.189 0.183,-0.471 0.138,-0.282 0.269,-0.401 0.269,-0.401 0,0 0.233,0.137 0.427,0.313 0.195,0.176 0.32,0.345 0.32,0.345 0,0 0.132,-0.176 0.458,-0.37 0.326,-0.195 0.615,-0.251 0.615,-0.251 0,0 -0.088,0.132 -0.169,0.339 -0.082,0.207 -0.076,0.32 -0.076,0.32 0,0 0.119,-0.062 0.402,-0.101 0.282,-0.037 0.508,0.019 0.508,0.019"/><path id="path37" style="fill:#ff6600;fill-opacity:1;fill-rule:nonzero;stroke:none" d="m 18.5,20.2759 c 0,0 -0.285,0.185 -0.815,0.261 -0.531,0.075 -0.785,0 -0.785,0 0,0 0.029,0.354 -0.213,0.831 -0.242,0.477 -0.508,0.703 -0.508,0.703 0,0 -0.333,-0.173 -0.7,-0.71 -0.367,-0.536 -0.492,-1.085 -0.492,-1.085 0,0 -0.192,0.185 -0.706,0.38 -0.535,0.202 -0.967,0.142 -0.967,0.142 0,0 -0.024,-0.446 0.173,-0.892 0.198,-0.445 0.439,-0.803 0.439,-0.803 0,0 -0.142,-0.183 -0.387,-0.711 -0.245,-0.527 -0.226,-0.99 -0.226,-0.99 0,0 0.229,-0.057 0.731,0.008 0.502,0.067 0.871,0.233 0.871,0.233 0,0 -0.049,-0.459 0.2,-0.821 0.217,-0.314 0.589,-0.452 0.589,-0.452 0,0 0.364,0.214 0.621,0.631 0.258,0.418 0.346,0.753 0.346,0.753 0,0 0.126,-0.098 0.465,-0.223 0.339,-0.126 0.69,-0.163 0.69,-0.163 0,0 0.229,0.433 0.174,0.875 -0.055,0.443 -0.187,0.769 -0.187,0.769 0,0 0.179,0.191 0.405,0.593 0.226,0.401 0.282,0.671 0.282,0.671"/></g><g id="g38"><path id="path40" style="fill:#ffcc00;fill-opacity:1;fill-rule:nonzero;stroke:none" d="M 3.104,5 6.97,9.333 3.104,13.666 6.97,18 3.104,22.333 6.97,26.667 3.104,31 H 7.31 V 5 Z"/><path id="path41" style="fill:#ffcc00;fill-opacity:1;fill-rule:nonzero;stroke:none" d="m 2.7954,6.457 2.566,2.876 -2.565,2.875 z"/><path id="path42" style="fill:#ffcc00;fill-opacity:1;fill-rule:nonzero;stroke:none" d="M 2.7964,20.875 5.3614,18 2.7954,15.123 Z"/><path id="path43" style="fill:#ffcc00;fill-opacity:1;fill-rule:nonzero;stroke:none" d="M 2.7964,29.542 5.3614,26.667 2.7954,23.79 Z"/><path id="path44" style="fill:#ffffff;fill-opacity:1;fill-rule:nonzero;stroke:none" d="m 15.0288,10.4443 0.274,-1.259 1.287,-0.05 -1.113,-0.649 0.35,-1.239 -0.961,0.857 -1.07,-0.716 0.518,1.179 -1.012,0.797 1.282,-0.129 z"/><path id="path45" style="fill:#ffffff;fill-opacity:1;fill-rule:nonzero;stroke:none" d="m 20.5098,12.4648 0.328,-1.245 1.288,0.007 -1.083,-0.698 0.405,-1.222 -0.998,0.813 -1.038,-0.762 0.466,1.201 -1.046,0.751 1.286,-0.072 z"/><path id="path46" style="fill:#ffffff;fill-opacity:1;fill-rule:nonzero;stroke:none" d="m 22.8721,16.7471 1.018,-0.789 1.018,0.788 -0.435,-1.212 1.063,-0.725 -1.287,0.04 -0.361,-1.237 -0.36,1.238 -1.287,-0.04 1.066,0.725 z"/><path id="path47" style="fill:#ffffff;fill-opacity:1;fill-rule:nonzero;stroke:none" d="m 24.8213,19.7549 -1.055,0.74 -0.979,-0.835 0.378,1.231 -1.098,0.675 1.288,0.02 0.303,1.252 0.417,-1.218 1.284,0.099 -1.029,-0.774 z"/><path id="path48" style="fill:#ffffff;fill-opacity:1;fill-rule:nonzero;stroke:none" d="m 20.2178,23.8311 -0.452,1.206 -1.281,-0.136 1.007,0.803 -0.524,1.176 1.074,-0.711 0.957,0.863 -0.344,-1.242 1.116,-0.643 -1.286,-0.056 z"/><path id="path49" style="fill:#ffffff;fill-opacity:1;fill-rule:nonzero;stroke:none" d="m 13.6021,25.2876 0.298,1.252 -1.138,0.603 1.284,0.103 0.221,1.269 0.495,-1.188 1.275,0.181 -0.978,-0.838 0.567,-1.156 -1.099,0.67 z"/></g></g></g></g></svg>