<svg xmlns:dc="http://purl.org/dc/elements/1.1/" xmlns:cc="http://creativecommons.org/ns#" xmlns:rdf="http://www.w3.org/1999/02/22-rdf-syntax-ns#" xmlns:svg="http://www.w3.org/2000/svg" xmlns="http://www.w3.org/2000/svg" viewBox="0 0 45 45" style="enable-background:new 0 0 45 45;" xml:space="preserve" version="1.1" id="svg2"><metadata id="metadata8"><rdf:RDF><cc:Work rdf:about=""><dc:format>image/svg+xml</dc:format><dc:type rdf:resource="http://purl.org/dc/dcmitype/StillImage"/></cc:Work></rdf:RDF></metadata><defs id="defs6"><clipPath id="clipPath16" clipPathUnits="userSpaceOnUse"><path id="path18" d="M 0,36 36,36 36,0 0,0 0,36 Z"/></clipPath></defs><g transform="matrix(1.25,0,0,-1.25,0,45)" id="g10"><g id="g12"><g clip-path="url(#clipPath16)" id="g14"><g id="g20"><path id="path22" style="fill:#eeeeee;fill-opacity:1;fill-rule:nonzero;stroke:none" d="m 36.0003,9.0004 c 0,-2.209 -1.791,-4 -4,-4 h -28 c -2.209,0 -4,1.791 -4,4 v 18 c 0,2.209 1.791,4 4,4 h 28 c 2.209,0 4,-1.791 4,-4 z"/></g><g id="g24"><path id="path26" style="fill:#002395;fill-opacity:1;fill-rule:nonzero;stroke:none" d="m 33.1107,27.0004 v -18 c 0,-0.3 -0.13,-0.58 -0.33,-0.78 -0.2,-0.2 -0.481,-0.33 -0.78,-0.33 h -28 c -0.3,0 -0.58,0.13 -0.781,0.33 -0.199,0.2 -0.329,0.48 -0.329,0.78 v 18 c 0,0.3 0.13,0.58 0.329,0.78 0.201,0.2 0.481,0.33 0.781,0.33 h 28 c 0.299,0 0.58,-0.13 0.78,-0.33 0.2,-0.2 0.33,-0.48 0.33,-0.78"/></g><g id="g30"><path id="path32" style="fill:#ffd203;fill-opacity:1;fill-rule:nonzero;stroke:none" d="m 18.0003,9.3373 c 0,0 -0.266,0.23 -0.354,0.599 -0.09,0.371 -0.049,1.085 -0.049,1.085 0,0 -0.223,-0.191 -0.61,-0.242 -0.468,-0.06 -0.687,0.09 -0.687,0.09 0,0 0.417,0.186 0.703,0.51 0.267,0.302 0.325,0.551 0.325,0.551 h -0.764 v 0.564 h 0.314 c 0,0 -0.002,0.733 -0.307,1.148 -0.182,0.245 -0.518,0.506 -0.759,0.506 -0.259,0 -0.415,-0.292 -0.415,-0.48 0,-0.247 0.225,-0.76 0.225,-0.76 0,0 -1.645,0.483 -1.645,2.008 0,0.561 0.561,1.117 1.1,1.117 0.851,0 1.396,-0.635 1.729,-1.282 0.604,-1.173 0.623,-2.257 0.623,-2.257 h 0.203 c 0,0 0.06,1.127 -0.293,2.1 -0.288,0.795 -0.531,1.381 -0.531,2.263 0,0.867 0.316,1.484 0.631,1.924 0.301,0.42 0.561,0.683 0.561,0.683 0,0 0.26,-0.263 0.562,-0.683 0.315,-0.44 0.63,-1.057 0.63,-1.924 0,-0.882 -0.243,-1.468 -0.531,-2.263 -0.353,-0.973 -0.293,-2.1 -0.293,-2.1 h 0.203 c 0,0 0.019,1.084 0.623,2.257 0.333,0.647 0.878,1.282 1.73,1.282 0.538,0 1.099,-0.556 1.099,-1.117 0,-1.525 -1.644,-2.008 -1.644,-2.008 0,0 0.224,0.513 0.224,0.76 0,0.188 -0.156,0.48 -0.415,0.48 -0.241,0 -0.578,-0.261 -0.758,-0.506 -0.307,-0.415 -0.308,-1.148 -0.308,-1.148 h 0.315 v -0.564 h -0.764 c 0,0 0.057,-0.249 0.324,-0.551 0.286,-0.324 0.703,-0.51 0.703,-0.51 0,0 -0.219,-0.15 -0.687,-0.09 -0.386,0.051 -0.61,0.242 -0.61,0.242 0,0 0.041,-0.714 -0.049,-1.085 -0.088,-0.369 -0.354,-0.599 -0.354,-0.599"/></g><g id="g34"><path id="path36" style="fill:#ffd203;fill-opacity:1;fill-rule:nonzero;stroke:none" d="m 10.3875,12.9477 c 0,0 0.266,0.23 0.354,0.6 0.09,0.37 0.049,1.084 0.049,1.084 0,0 0.223,-0.191 0.609,-0.241 0.469,-0.06 0.688,0.089 0.688,0.089 0,0 -0.417,0.187 -0.703,0.51 -0.267,0.303 -0.325,0.551 -0.325,0.551 h 0.764 v 0.564 h -0.314 c 0,0 0.002,0.734 0.307,1.148 0.181,0.246 0.518,0.506 0.759,0.506 0.259,0 0.415,-0.291 0.415,-0.48 0,-0.247 -0.225,-0.76 -0.225,-0.76 0,0 1.645,0.483 1.645,2.009 0,0.56 -0.561,1.117 -1.1,1.117 -0.851,0 -1.396,-0.635 -1.729,-1.282 -0.604,-1.173 -0.623,-2.258 -0.623,-2.258 h -0.203 c 0,0 -0.06,1.128 0.293,2.101 0.288,0.794 0.531,1.38 0.531,2.263 0,0.866 -0.316,1.483 -0.631,1.924 -0.301,0.42 -0.561,0.682 -0.561,0.682 0,0 -0.261,-0.262 -0.561,-0.682 -0.315,-0.441 -0.631,-1.058 -0.631,-1.924 0,-0.883 0.243,-1.469 0.531,-2.263 0.353,-0.973 0.292,-2.101 0.292,-2.101 h -0.202 c 0,0 -0.019,1.085 -0.623,2.258 -0.333,0.647 -0.878,1.282 -1.729,1.282 -0.539,0 -1.1,-0.557 -1.1,-1.117 0,-1.526 1.645,-2.009 1.645,-2.009 0,0 -0.225,0.513 -0.225,0.76 0,0.189 0.156,0.48 0.415,0.48 0.241,0 0.577,-0.26 0.759,-0.506 0.305,-0.414 0.307,-1.148 0.307,-1.148 h -0.314 v -0.564 h 0.764 c 0,0 -0.058,-0.248 -0.325,-0.551 -0.286,-0.323 -0.703,-0.51 -0.703,-0.51 0,0 0.219,-0.149 0.687,-0.089 0.387,0.05 0.61,0.241 0.61,0.241 0,0 -0.041,-0.714 0.049,-1.084 0.088,-0.37 0.354,-0.6 0.354,-0.6"/></g><g id="g38"><path id="path40" style="fill:#ffd203;fill-opacity:1;fill-rule:nonzero;stroke:none" d="m 25.6136,12.9477 c 0,0 -0.267,0.23 -0.355,0.6 -0.089,0.37 -0.048,1.084 -0.048,1.084 0,0 -0.224,-0.191 -0.61,-0.241 -0.468,-0.06 -0.687,0.089 -0.687,0.089 0,0 0.417,0.187 0.703,0.51 0.267,0.303 0.324,0.551 0.324,0.551 h -0.764 v 0.564 h 0.315 c 0,0 -0.002,0.734 -0.308,1.148 -0.181,0.246 -0.517,0.506 -0.758,0.506 -0.259,0 -0.416,-0.291 -0.416,-0.48 0,-0.247 0.225,-0.76 0.225,-0.76 0,0 -1.644,0.483 -1.644,2.009 0,0.56 0.56,1.117 1.099,1.117 0.852,0 1.397,-0.635 1.73,-1.282 0.603,-1.173 0.623,-2.258 0.623,-2.258 h 0.202 c 0,0 0.06,1.128 -0.292,2.101 -0.288,0.794 -0.531,1.38 -0.531,2.263 0,0.866 0.315,1.483 0.63,1.924 0.301,0.42 0.562,0.682 0.562,0.682 0,0 0.26,-0.262 0.561,-0.682 0.315,-0.441 0.63,-1.058 0.63,-1.924 0,-0.883 -0.243,-1.469 -0.531,-2.263 -0.352,-0.973 -0.292,-2.101 -0.292,-2.101 h 0.202 c 0,0 0.02,1.085 0.623,2.258 0.333,0.647 0.878,1.282 1.73,1.282 0.539,0 1.1,-0.557 1.1,-1.117 0,-1.526 -1.645,-2.009 -1.645,-2.009 0,0 0.225,0.513 0.225,0.76 0,0.189 -0.157,0.48 -0.415,0.48 -0.242,0 -0.578,-0.26 -0.759,-0.506 -0.306,-0.414 -0.308,-1.148 -0.308,-1.148 h 0.315 v -0.564 h -0.764 c 0,0 0.057,-0.248 0.325,-0.551 0.285,-0.323 0.702,-0.51 0.702,-0.51 0,0 -0.219,-0.149 -0.687,-0.089 -0.386,0.05 -0.61,0.241 -0.61,0.241 0,0 0.041,-0.714 -0.048,-1.084 -0.088,-0.37 -0.354,-0.6 -0.354,-0.6"/></g><g id="g42"><path id="path44" style="fill:#eeeeee;fill-opacity:1;fill-rule:nonzero;stroke:none" d="m 7.0374,24.4989 1.01,-2.022 h -4.034 l 1.009,2.022 h -2.132 v 1.083 h 30.22 v -1.083 h -2.132 l 1.009,-2.022 h -4.034 l 1.01,2.022 h -9.955 l 1.008,-2.022 h -4.033 l 1.009,2.022 z"/></g><g id="g46"><path id="path50" style="fill:#ed2939;fill-opacity:1;fill-rule:nonzero;stroke:none" d="m 36.0003,11.5004 h -2.89 v 6.5 h 2.89 z"/><path id="path51" style="fill:#ed2939;fill-opacity:1;fill-rule:nonzero;stroke:none" d="m 36.0003,27.0004 v -2.5 h -2.89 v 2.5 c 0,0.3 -0.13,0.58 -0.33,0.78 l 2.05,2.05 c 0.72,-0.73 1.17,-1.73 1.17,-2.83"/><path id="path52" style="fill:#ed2939;fill-opacity:1;fill-rule:nonzero;stroke:none" d="M 2.8903,11.5004 H 3e-4 v 6.5 h 2.89 z"/><path id="path53" style="fill:#ed2939;fill-opacity:1;fill-rule:nonzero;stroke:none" d="m 3.22,27.7807 c -0.2,-0.2 -0.33,-0.48 -0.33,-0.78 v -2.5 H 0 v 2.5 c 0,1.1 0.45,2.1 1.17,2.83 z"/><path id="path54" style="fill:#ed2939;fill-opacity:1;fill-rule:nonzero;stroke:none" d="m 14.4003,28.1104 h -7.2 v 2.89 h 7.2 z"/><path id="path55" style="fill:#ed2939;fill-opacity:1;fill-rule:nonzero;stroke:none" d="m 28.8003,28.1104 h -7.2 v 2.89 h 7.2 z"/><path id="path56" style="fill:#ed2939;fill-opacity:1;fill-rule:nonzero;stroke:none" d="m 21.6003,5.0004 h -7.2 v 2.89 h 7.2 z"/><path id="path57" style="fill:#ed2939;fill-opacity:1;fill-rule:nonzero;stroke:none" d="m 34.8304,6.1703 c -0.73,-0.72 -1.73,-1.17 -2.83,-1.17 h -3.2 v 2.89 h 3.2 c 0.3,0 0.58,0.13 0.78,0.33 z"/><path id="path58" style="fill:#ed2939;fill-opacity:1;fill-rule:nonzero;stroke:none" d="M 7.2005,7.89 V 5 h -3.2 c -1.1,0 -2.1,0.451 -2.83,1.17 l 2.05,2.05 c 0.2,-0.2 0.48,-0.33 0.78,-0.33 z"/></g></g></g></g></svg>