<svg xmlns:dc="http://purl.org/dc/elements/1.1/" xmlns:cc="http://creativecommons.org/ns#" xmlns:rdf="http://www.w3.org/1999/02/22-rdf-syntax-ns#" xmlns:svg="http://www.w3.org/2000/svg" xmlns="http://www.w3.org/2000/svg" viewBox="0 0 45 45" style="enable-background:new 0 0 45 45;" xml:space="preserve" version="1.1" id="svg2"><metadata id="metadata8"><rdf:RDF><cc:Work rdf:about=""><dc:format>image/svg+xml</dc:format><dc:type rdf:resource="http://purl.org/dc/dcmitype/StillImage"/></cc:Work></rdf:RDF></metadata><defs id="defs6"><clipPath id="clipPath16" clipPathUnits="userSpaceOnUse"><path id="path18" d="M 4,31 C 1.791,31 0,29.209 0,27 L 0,27 0,9 C 0,6.791 1.791,5 4,5 l 0,0 28,0 c 2.209,0 4,1.791 4,4 l 0,0 0,18 c 0,2.209 -1.791,4 -4,4 l 0,0 -28,0 z"/></clipPath><clipPath id="clipPath28" clipPathUnits="userSpaceOnUse"><path id="path30" d="M 0,36 36,36 36,0 0,0 0,36 Z"/></clipPath></defs><g transform="matrix(1.25,0,0,-1.25,0,45)" id="g10"><g id="g12"><g xmlns="http://www.w3.org/2000/svg" clip-path="url(#clipPath16)" id="g14"><g id="g30"><path id="path20" style="fill:#eeeeee;fill-opacity:1;fill-rule:nonzero;stroke:none" d="m 36,18 0,9 c 0,2.209 -1.791,4 -4,4 L 4,31 C 1.791,31 0,29.209 0,27 l 0,-9 36,0 z"/></g><g id="g32"><path id="path30" style="fill:#2b5df2;fill-opacity:1;fill-rule:nonzero;stroke:none" d="M 0,18 0,9 C 0,6.791 1.791,5 4,5 l 28,0 c 2.209,0 4,1.791 4,4 l 0,9 -36,0 z"/></g><g id="g34"><path id="path40" style="fill:#ffffff;fill-opacity:1;fill-rule:nonzero;stroke:none" d="m 13.2114,9.4482 -0.129,0.039 c -0.034,-0.378 -0.046,-0.568 -0.06,-0.951 -0.005,-0.046 -0.007,-0.068 -0.011,-0.114 0.003,-10e-4 0.004,-10e-4 0.007,-0.002 0.03,0.034 0.045,0.05 0.075,0.085 0.27,0.271 0.401,0.411 0.654,0.694 -0.046,0.026 -0.069,0.039 -0.115,0.066 0.018,0.044 0.027,0.066 0.045,0.111 0.168,-0.07 0.253,-0.103 0.423,-0.164 -0.017,-0.045 -0.025,-0.068 -0.041,-0.113 -0.046,0.011 -0.069,0.017 -0.115,0.028 -0.356,-0.395 -0.544,-0.586 -0.937,-0.956 -0.069,0.029 -0.103,0.045 -0.172,0.075 0.002,0.54 0.014,0.807 0.058,1.339 -0.04,0.025 -0.059,0.039 -0.098,0.065 0.021,0.042 0.032,0.064 0.054,0.106 0.163,-0.083 0.246,-0.123 0.411,-0.2 -0.019,-0.043 -0.029,-0.064 -0.049,-0.108"/><path id="path41" style="fill:#ffffff;fill-opacity:1;fill-rule:nonzero;stroke:none" d="m 14.0161,8.3652 c 0.185,-0.063 0.277,-0.094 0.464,-0.149 -0.024,0.253 -0.033,0.378 -0.047,0.63 -0.002,0.001 -0.003,0.001 -0.006,0.002 -0.16,-0.196 -0.242,-0.293 -0.411,-0.483 m -0.618,-0.227 c 0.046,-0.011 0.069,-0.017 0.116,-0.028 0.384,0.383 0.566,0.581 0.911,0.988 0.063,-0.02 0.095,-0.031 0.158,-0.05 0.039,-0.532 0.069,-0.798 0.152,-1.332 0.043,-0.018 0.065,-0.027 0.108,-0.043 -0.012,-0.046 -0.017,-0.07 -0.029,-0.116 -0.177,0.046 -0.266,0.071 -0.442,0.122 0.013,0.046 0.02,0.069 0.034,0.115 0.047,-0.007 0.071,-0.01 0.12,-0.016 -0.013,0.108 -0.019,0.162 -0.03,0.271 -0.238,0.07 -0.356,0.108 -0.592,0.19 -0.073,-0.081 -0.11,-0.121 -0.185,-0.201 0.043,-0.024 0.064,-0.035 0.107,-0.058 -0.016,-0.045 -0.023,-0.067 -0.039,-0.111 -0.174,0.06 -0.26,0.093 -0.432,0.16 0.017,0.044 0.026,0.065 0.043,0.109"/><path id="path42" style="fill:#ffffff;fill-opacity:1;fill-rule:nonzero;stroke:none" d="m 16.1172,8.2725 c -0.059,0.01 -0.089,0.015 -0.148,0.025 -0.002,0.079 -0.002,0.12 -0.003,0.199 -0.025,0.029 -0.061,0.055 -0.106,0.08 -0.046,0.024 -0.1,0.043 -0.164,0.055 -0.101,0.021 -0.183,0.018 -0.246,-0.011 -0.064,-0.029 -0.103,-0.075 -0.119,-0.141 -0.013,-0.058 0.004,-0.112 0.052,-0.164 0.048,-0.052 0.132,-0.105 0.255,-0.161 0.147,-0.067 0.256,-0.139 0.326,-0.221 0.07,-0.083 0.099,-0.174 0.083,-0.275 -0.017,-0.11 -0.081,-0.19 -0.195,-0.239 -0.113,-0.048 -0.255,-0.057 -0.421,-0.023 -0.12,0.024 -0.223,0.064 -0.308,0.119 -0.085,0.055 -0.149,0.117 -0.193,0.187 0.025,0.098 0.037,0.148 0.062,0.247 0.061,-0.016 0.091,-0.023 0.153,-0.037 -0.003,-0.081 -0.004,-0.121 -0.006,-0.202 0.033,-0.038 0.075,-0.072 0.127,-0.103 0.052,-0.03 0.116,-0.054 0.194,-0.069 0.106,-0.022 0.193,-0.019 0.261,0.009 0.068,0.028 0.107,0.076 0.119,0.143 0.011,0.061 -0.006,0.118 -0.05,0.169 -0.044,0.052 -0.129,0.103 -0.251,0.157 -0.15,0.067 -0.261,0.144 -0.332,0.23 -0.071,0.086 -0.094,0.178 -0.069,0.277 0.026,0.104 0.094,0.179 0.204,0.226 0.108,0.047 0.235,0.055 0.382,0.026 0.098,-0.02 0.184,-0.053 0.258,-0.1 0.075,-0.047 0.133,-0.096 0.176,-0.151 -0.017,-0.101 -0.025,-0.15 -0.041,-0.252"/><path id="path43" style="fill:#ffffff;fill-opacity:1;fill-rule:nonzero;stroke:none" d="m 18.0396,8.2607 c -0.002,0 -0.003,0 -0.005,10e-4 -0.184,-0.441 -0.285,-0.66 -0.504,-1.092 -0.057,0.001 -0.086,0.003 -0.142,0.005 -0.186,0.448 -0.27,0.674 -0.419,1.127 -0.002,0 -0.003,0 -0.005,-10e-4 -0.011,-0.222 -0.017,-0.332 -0.027,-0.554 -0.014,-0.158 -0.02,-0.238 -0.034,-0.396 0.07,-0.017 0.105,-0.025 0.175,-0.04 -0.004,-0.047 -0.005,-0.071 -0.009,-0.117 -0.227,0.015 -0.341,0.026 -0.568,0.052 0.005,0.047 0.008,0.071 0.014,0.118 0.071,0.001 0.107,0.003 0.178,0.006 0.044,0.43 0.065,0.645 0.109,1.075 -0.063,0.017 -0.095,0.026 -0.158,0.044 0.006,0.046 0.009,0.071 0.014,0.118 0.064,-0.007 0.095,-0.011 0.158,-0.017 0.098,-0.01 0.146,-0.015 0.244,-0.022 0.144,-0.458 0.226,-0.687 0.406,-1.139 l 0.006,0 c 0.215,0.437 0.313,0.658 0.492,1.103 0.162,10e-4 0.242,0.002 0.404,0.008 0.002,-0.047 0.003,-0.071 0.004,-0.118 -0.063,-0.014 -0.095,-0.019 -0.159,-0.031 0.011,-0.433 0.016,-0.649 0.026,-1.08 0.071,-0.009 0.106,-0.013 0.176,-0.021 0.002,-0.048 0.003,-0.071 0.005,-0.118 -0.228,-0.009 -0.342,-0.011 -0.569,-0.009 0,0.047 0,0.071 10e-4,0.119 0.07,0.009 0.105,0.014 0.175,0.026 -0.001,0.159 -0.002,0.238 -0.003,0.397 0.007,0.222 0.01,0.333 0.015,0.556"/><path id="path44" style="fill:#ffffff;fill-opacity:1;fill-rule:nonzero;stroke:none" d="m 18.4619,7.1729 c -0.002,0.048 -0.003,0.071 -0.005,0.118 0.07,0.014 0.106,0.021 0.175,0.035 -0.024,0.431 -0.035,0.647 -0.059,1.078 -0.065,0.007 -0.097,0.011 -0.162,0.019 -0.002,0.048 -0.003,0.071 -0.005,0.119 0.434,0.018 0.651,0.037 1.081,0.097 0.019,-0.13 0.028,-0.195 0.045,-0.326 -0.066,-0.009 -0.1,-0.014 -0.168,-0.022 -0.014,0.072 -0.022,0.109 -0.037,0.18 -0.224,-0.027 -0.337,-0.038 -0.561,-0.054 0.012,-0.178 0.018,-0.265 0.031,-0.442 0.227,0.016 0.341,0.027 0.567,0.054 0.007,-0.057 0.01,-0.086 0.018,-0.144 -0.23,-0.028 -0.345,-0.039 -0.574,-0.056 0.013,-0.195 0.021,-0.294 0.035,-0.489 0.252,0.018 0.377,0.03 0.628,0.061 -0.002,0.074 -0.003,0.111 -0.006,0.184 0.071,0.009 0.106,0.014 0.178,0.024 0.017,-0.13 0.027,-0.196 0.045,-0.326 -0.489,-0.068 -0.735,-0.089 -1.226,-0.11"/><path id="path45" style="fill:#ffffff;fill-opacity:1;fill-rule:nonzero;stroke:none" d="m 20.9736,7.6914 c -0.036,-0.052 -0.092,-0.107 -0.173,-0.164 -0.08,-0.057 -0.191,-0.102 -0.335,-0.131 -0.21,-0.042 -0.393,-0.009 -0.544,0.097 -0.151,0.106 -0.238,0.262 -0.267,0.466 -0.002,0.008 -0.002,0.013 -0.004,0.022 -0.03,0.205 0.009,0.379 0.106,0.523 0.099,0.146 0.241,0.236 0.435,0.276 0.102,0.02 0.195,0.024 0.28,0.012 0.086,-0.013 0.161,-0.038 0.228,-0.076 0.023,-0.095 0.036,-0.144 0.059,-0.24 -0.054,-0.014 -0.081,-0.02 -0.136,-0.033 -0.036,0.069 -0.053,0.104 -0.089,0.174 -0.038,0.015 -0.081,0.027 -0.128,0.034 -0.048,0.006 -0.104,0.002 -0.166,-0.011 -0.153,-0.031 -0.259,-0.102 -0.326,-0.216 -0.066,-0.115 -0.088,-0.252 -0.062,-0.411 10e-4,-0.009 0.002,-0.013 0.004,-0.023 0.026,-0.162 0.09,-0.285 0.193,-0.371 0.104,-0.084 0.235,-0.112 0.388,-0.081 0.085,0.017 0.151,0.04 0.202,0.067 0.05,0.027 0.089,0.054 0.117,0.08 l -0.068,0.293 c -0.099,-0.019 -0.149,-0.029 -0.248,-0.047 -0.011,0.054 -0.017,0.081 -0.028,0.134 0.177,0.038 0.266,0.059 0.442,0.103 0.048,-0.191 0.072,-0.287 0.12,-0.477"/><path id="path46" style="fill:#ffffff;fill-opacity:1;fill-rule:nonzero;stroke:none" d="m 21.2871,8.916 c -0.058,-0.024 -0.086,-0.037 -0.144,-0.062 0.179,-0.18 0.271,-0.269 0.461,-0.443 0.052,0.252 0.076,0.378 0.116,0.63 -0.061,-0.015 -0.092,-0.021 -0.153,-0.034 -0.015,0.045 -0.023,0.067 -0.038,0.112 0.186,0.063 0.279,0.097 0.463,0.167 0.017,-0.044 0.025,-0.066 0.043,-0.11 -0.043,-0.025 -0.064,-0.036 -0.108,-0.061 -0.057,-0.342 -0.09,-0.512 -0.17,-0.855 0.043,-0.128 0.063,-0.193 0.106,-0.321 0.07,0.012 0.107,0.019 0.177,0.032 0.016,-0.044 0.023,-0.067 0.039,-0.112 -0.218,-0.075 -0.327,-0.11 -0.547,-0.175 -0.014,0.045 -0.02,0.067 -0.034,0.113 0.065,0.03 0.098,0.046 0.162,0.077 -0.042,0.134 -0.063,0.201 -0.104,0.335 -0.259,0.228 -0.384,0.346 -0.623,0.586 -0.049,-0.006 -0.074,-0.009 -0.123,-0.014 -0.011,0.046 -0.017,0.069 -0.029,0.115 0.189,0.049 0.283,0.077 0.471,0.134 0.014,-0.046 0.02,-0.068 0.035,-0.114"/><path id="path47" style="fill:#ffffff;fill-opacity:1;fill-rule:nonzero;stroke:none" d="m 22.5186,8.0215 c -0.017,0.044 -0.025,0.066 -0.043,0.11 0.064,0.036 0.095,0.054 0.157,0.091 -0.162,0.401 -0.243,0.601 -0.406,1 -0.064,-0.014 -0.097,-0.021 -0.162,-0.035 -0.017,0.044 -0.025,0.066 -0.043,0.11 0.411,0.161 0.614,0.251 1.012,0.453 0.059,-0.117 0.089,-0.175 0.149,-0.292 -0.062,-0.033 -0.093,-0.047 -0.155,-0.079 -0.038,0.064 -0.057,0.095 -0.095,0.159 -0.208,-0.102 -0.313,-0.15 -0.524,-0.24 0.069,-0.163 0.104,-0.245 0.173,-0.408 0.213,0.092 0.32,0.14 0.53,0.241 0.025,-0.051 0.038,-0.078 0.063,-0.131 -0.213,-0.102 -0.319,-0.151 -0.536,-0.244 0.077,-0.18 0.116,-0.27 0.193,-0.451 0.237,0.101 0.354,0.154 0.585,0.268 -0.025,0.069 -0.038,0.103 -0.064,0.173 0.066,0.032 0.099,0.048 0.164,0.082 0.06,-0.118 0.089,-0.176 0.148,-0.293 -0.45,-0.23 -0.679,-0.332 -1.146,-0.514"/></g><g id="g36"><path id="path50" style="fill:#fcef3c;fill-opacity:1;fill-rule:nonzero;stroke:none" d="m 18,27.7744 c -0.176,0 -0.239,-0.094 -0.239,-0.218 0,-0.153 0.119,-0.19 0.119,-0.19 0,0 -0.031,-0.006 -0.064,-0.045 -0.034,-0.039 -0.038,-0.125 -0.038,-0.125 0,0 -0.025,0.239 -0.274,0.239 -0.114,0 -0.208,-0.074 -0.224,-0.196 -0.019,-0.155 0.067,-0.218 0.067,-0.218 0,0 -0.231,0.146 -0.386,-0.027 -0.118,-0.132 -0.021,-0.325 0.086,-0.361 0.145,-0.049 0.261,0.012 0.261,0.012 0,0 -0.025,-0.014 -0.05,-0.055 -0.025,-0.041 -0.021,-0.078 -0.021,-0.078 0,0 -0.055,0.022 -0.14,0 -0.108,-0.028 -0.152,-0.128 -0.152,-0.128 0,0 0.052,0.161 -0.027,0.265 -0.098,0.129 -0.269,0.067 -0.355,-0.006 -0.097,-0.081 -0.091,-0.269 0.031,-0.339 0.214,-0.122 0.342,0.058 0.342,0.058 0,0 -0.027,-0.189 0.117,-0.272 0.185,-0.106 0.297,0.088 0.297,0.088 0,0 -0.006,-0.147 0.073,-0.203 0.08,-0.056 0.244,-0.009 0.265,0.115 0.023,0.144 -0.085,0.216 -0.085,0.216 0,0 0.036,-0.022 0.113,-0.016 0.067,0.005 0.095,0.036 0.095,0.036 0,0 0.004,-0.061 0.069,-0.114 0.064,-0.053 0.12,-0.041 0.12,-0.041 0,0 0.056,-0.012 0.12,0.041 0.065,0.053 0.069,0.114 0.069,0.114 0,0 0.028,-0.031 0.095,-0.036 0.077,-0.006 0.113,0.016 0.113,0.016 0,0 -0.108,-0.072 -0.085,-0.216 0.021,-0.124 0.185,-0.171 0.264,-0.115 0.08,0.056 0.074,0.203 0.074,0.203 0,0 0.113,-0.194 0.297,-0.088 0.144,0.083 0.117,0.272 0.117,0.272 0,0 0.128,-0.18 0.342,-0.058 0.122,0.07 0.128,0.258 0.031,0.339 -0.085,0.073 -0.257,0.135 -0.355,0.006 -0.078,-0.104 -0.027,-0.265 -0.027,-0.265 0,0 -0.044,0.1 -0.152,0.128 -0.085,0.022 -0.14,0 -0.14,0 0,0 0.005,0.037 -0.021,0.078 -0.025,0.041 -0.05,0.055 -0.05,0.055 0,0 0.116,-0.061 0.261,-0.012 0.107,0.036 0.204,0.229 0.086,0.361 -0.155,0.173 -0.386,0.027 -0.386,0.027 0,0 0.086,0.063 0.067,0.218 -0.016,0.122 -0.11,0.196 -0.224,0.196 -0.249,0 -0.274,-0.239 -0.274,-0.239 0,0 -0.004,0.086 -0.038,0.125 -0.033,0.039 -0.064,0.045 -0.064,0.045 0,0 0.119,0.037 0.119,0.19 0,0.124 -0.063,0.218 -0.239,0.218"/><path id="path51" style="fill:#2b5df2;fill-opacity:1;fill-rule:nonzero;stroke:none" d="m 21.4727,22.1118 c 0,0 0.756,0.33 1.248,0.323 0.518,-0.006 0.6,-0.311 0.6,-0.311 0,0 0.147,0.055 0.168,0.215 0.019,0.158 -0.103,0.299 -0.103,0.299 0,0 0.223,0.041 0.306,-0.247 0.066,-0.232 -0.118,-0.42 -0.118,-0.42 0,0 0.226,-0.124 0.526,0.085 0.349,0.243 0.324,0.577 0.324,0.577 0,0 0.259,-0.084 0.139,-0.613 -0.093,-0.404 0.14,-0.563 0.14,-0.563 0,0 -0.053,0.112 -0.029,0.265 0.025,0.153 0.098,0.164 0.098,0.164 0,0 -0.055,-0.341 0.085,-0.537 0.153,-0.216 0.311,-0.288 0.311,-0.288 0,0 0.023,0.134 0.207,0.374 0.187,0.241 0.086,0.525 0.086,0.525 0,0 0.175,-0.024 0.135,-0.419 -0.011,-0.1 -0.047,-0.163 -0.047,-0.163 0,0 0.015,-0.003 0.022,-0.017 0.006,-0.014 0,-0.028 0,-0.028 0,0 -0.309,-0.158 -0.295,-0.683 0.006,-0.251 0.229,-0.374 0.229,-0.374 0,0 -0.125,-0.262 -0.008,-0.63 0.06,-0.184 0.148,-0.334 0.148,-0.334 0,0 -0.02,0.075 0.066,0.145 0.129,0.106 0.218,0.085 0.365,0.341 0.099,0.174 0.098,0.33 0.098,0.33 0,0 0.247,-0.224 -0.189,-0.541 -0.391,-0.284 -0.372,-0.85 -0.117,-1.257 0.21,-0.338 0.518,-0.459 0.518,-0.459 0,0 -0.055,0.109 -0.042,0.347 0.015,0.265 0.139,0.388 0.139,0.388 0,0 -0.027,-0.164 -0.012,-0.409 0.015,-0.244 0.178,-0.561 0.178,-0.561 0,0 0.142,-0.209 0.419,-0.399 0.284,-0.195 0.55,-0.234 0.55,-0.234 0,0 -0.028,0.203 0.033,0.641 0.059,0.439 -0.006,0.686 -0.006,0.686 0,0 0.082,-0.069 0.155,-0.1 0.073,-0.033 0.107,-0.015 0.107,-0.015 0,0 -0.186,0.25 0.203,0.971 0.124,0.23 0.181,0.628 0.197,0.843 0.035,0.48 -0.124,0.698 -0.124,0.698 0,0 0.037,0 0.103,-0.06 0.066,-0.059 0.105,-0.128 0.105,-0.128 0,0 0.096,0.277 0.058,0.518 -0.054,0.343 -0.375,0.746 -0.375,0.746 0,0 0.09,-0.03 0.195,-0.024 0.104,0.004 0.122,0.041 0.122,0.041 0,0 -0.1,0.011 -0.459,0.491 -0.309,0.411 -0.723,0.672 -0.723,0.672 0,0 0.194,0.089 0.286,0.273 0.082,0.16 0.057,0.336 0.057,0.336 0,0 -0.117,-0.03 -0.261,-0.019 -0.144,0.013 -0.16,0.054 -0.16,0.054 0,0 0.213,0.015 0.321,0.289 0.125,0.317 -0.098,0.55 -0.098,0.55 0,0 -0.032,-0.211 -0.36,-0.187 -0.175,0.012 -0.298,0 -0.375,-0.057 -0.052,-0.039 -0.105,-0.033 -0.105,-0.033 0,0 -0.002,0.076 -0.061,0.138 -0.058,0.061 -0.13,0.065 -0.13,0.065 0,0 -0.039,-0.3 -0.376,-0.452 -0.364,-0.165 -0.648,-0.038 -0.648,-0.038 0,0 0.246,0.646 0.109,1.096 -0.137,0.451 -0.374,0.911 -1.024,1.118 -0.753,0.239 -1.624,-0.436 -1.251,-1.219 0.083,-0.175 0.247,-0.231 0.557,-0.297 0.15,-0.031 0.308,-0.122 0.308,-0.122 0,0 0.106,0.249 -0.121,0.383 -0.321,0.19 -0.258,0.305 -0.258,0.305 0,0 0.188,-0.108 0.274,-0.171 0.086,-0.062 0.131,-0.177 0.131,-0.177 0,0 0.212,0.127 -0.011,0.399 -0.279,0.343 -0.069,0.491 0.079,0.508 0.41,0.049 0.502,-0.156 0.502,-0.156 0,0 -0.171,-0.024 -0.295,-0.203 -0.124,-0.179 -0.054,-0.3 -0.054,-0.3 0,0 0.207,0.187 0.454,0.058 0.217,-0.115 0.224,-0.412 0.224,-0.412 0,0 -0.103,0.023 -0.198,0.014 -0.13,-0.012 -0.175,-0.01 -0.267,0.034 -0.105,0.052 -0.167,0.128 -0.167,0.128 0,0 -0.051,-0.156 0.149,-0.35 0,0 0.152,-0.016 0.379,-0.213 0.226,-0.197 0.145,-0.416 0.145,-0.416 0,0 -0.052,0.134 -0.143,0.216 -0.12,0.108 -0.225,0.113 -0.225,0.113 0.038,-0.148 0.035,-0.281 0.035,-0.281 0,0 -0.079,0.045 -0.245,0.057 -0.194,0.014 -0.257,-0.029 -0.257,-0.029 0,0 0.017,0.084 0.033,0.186 0.016,0.102 0.067,0.169 0.067,0.169 0,0 -0.325,0.154 -0.643,-0.206 -0.333,-0.378 -0.761,-0.253 -0.761,-0.253 0,0 0.176,0.219 0.181,0.457 0.007,0.278 -0.227,0.426 -0.227,0.426 0,0 0.006,-0.144 -0.046,-0.286 -0.052,-0.141 -0.111,-0.136 -0.111,-0.136 0,0 0.06,0.119 0.058,0.282 -0.001,0.121 -0.085,0.27 -0.161,0.387 -0.099,0.152 -0.118,0.266 -0.118,0.266 0,0 -0.096,-0.077 -0.252,-0.192 -0.075,-0.056 -0.133,-0.115 -0.167,-0.238 -0.035,-0.123 -0.086,-0.191 -0.086,-0.191 0,0 -0.049,0.033 -0.078,0.132 -0.03,0.098 -0.012,0.168 -0.012,0.168 0,0 -0.096,-0.048 -0.205,-0.224 -0.108,-0.177 -0.174,-0.391 -0.174,-0.391 0,0 -0.001,0.595 -0.198,1 -0.279,0.575 -0.788,0.899 -1.119,0.915 -0.153,0.006 -0.277,-0.004 -0.408,0.005 -0.133,0.01 -0.182,0.059 -0.182,0.059 0,0 0.026,-0.168 0.158,-0.32 0.14,-0.159 0.369,-0.203 0.613,-0.237 0.239,-0.033 0.424,-0.123 0.563,-0.341 0.122,-0.191 0.098,-0.408 0.098,-0.408 0,0 -0.184,0.391 -0.453,0.575 -0.268,0.183 -0.557,0.186 -0.557,0.186 0,0 -0.022,-0.069 0.022,-0.163 0.055,-0.116 0.159,-0.187 0.159,-0.187 0,0 0.086,-0.052 0.229,-0.12 0.143,-0.069 0.315,-0.128 0.435,-0.256 0.174,-0.185 0.107,-0.429 0.107,-0.429 0,0 -0.081,0.249 -0.316,0.325 -0.308,0.101 -0.412,0.224 -0.412,0.224 0,0 0.016,-0.161 0.189,-0.381 0.243,-0.309 0.334,-0.936 -0.089,-1.19 -0.252,-0.151 -0.615,-0.135 -0.795,0.1 -0.205,0.268 -0.168,0.799 -0.168,0.799 0,0 -0.021,-0.093 -0.266,-0.342 -0.185,-0.19 -0.093,-0.389 -0.093,-0.389 0,0 -0.139,0.109 -0.066,0.334 0.075,0.231 0.327,0.288 0.378,0.542 0.062,0.302 -0.174,0.54 -0.174,0.54 0,0 0.07,-0.203 -0.183,-0.309 -0.246,-0.104 -0.363,-0.169 -0.425,-0.328 -0.076,-0.193 0.003,-0.386 0.003,-0.386 0,0 -0.159,0.031 -0.223,0.261 -0.092,0.333 0.302,0.608 0.302,0.935 0,0.239 -0.46,0.77 -0.556,0.77 -0.095,0 -0.555,-0.531 -0.555,-0.77 0,-0.327 0.394,-0.602 0.301,-0.935 -0.063,-0.23 -0.222,-0.261 -0.222,-0.261 0,0 0.079,0.193 0.003,0.386 -0.063,0.159 -0.179,0.224 -0.426,0.328 -0.252,0.106 -0.183,0.309 -0.183,0.309 0,0 -0.235,-0.238 -0.174,-0.54 0.052,-0.254 0.303,-0.311 0.378,-0.542 0.073,-0.225 -0.066,-0.334 -0.066,-0.334 0,0 0.093,0.199 -0.093,0.389 -0.244,0.249 -0.266,0.342 -0.266,0.342 0,0 0.038,-0.531 -0.167,-0.799 -0.181,-0.235 -0.544,-0.251 -0.795,-0.1 -0.423,0.254 -0.333,0.881 -0.089,1.19 0.173,0.22 0.189,0.381 0.189,0.381 0,0 -0.104,-0.123 -0.413,-0.224 -0.234,-0.076 -0.315,-0.325 -0.315,-0.325 0,0 -0.068,0.244 0.106,0.429 0.12,0.128 0.292,0.187 0.436,0.256 0.142,0.068 0.228,0.12 0.228,0.12 0,0 0.105,0.071 0.159,0.187 0.044,0.094 0.023,0.163 0.023,0.163 0,0 -0.289,-0.003 -0.558,-0.186 -0.268,-0.184 -0.453,-0.575 -0.453,-0.575 0,0 -0.024,0.217 0.098,0.408 0.14,0.218 0.325,0.308 0.563,0.341 0.244,0.034 0.474,0.078 0.613,0.237 0.132,0.152 0.159,0.32 0.159,0.32 0,0 -0.05,-0.049 -0.182,-0.059 -0.132,-0.009 -0.256,0.001 -0.409,-0.005 -0.33,-0.016 -0.839,-0.34 -1.118,-0.915 -0.197,-0.405 -0.198,-1 -0.198,-1 0,0 -0.066,0.214 -0.175,0.391 -0.109,0.176 -0.205,0.224 -0.205,0.224 0,0 0.018,-0.07 -0.011,-0.168 -0.029,-0.099 -0.078,-0.132 -0.078,-0.132 0,0 -0.051,0.068 -0.086,0.191 -0.035,0.123 -0.092,0.182 -0.167,0.238 -0.156,0.115 -0.252,0.192 -0.252,0.192 0,0 -0.02,-0.114 -0.118,-0.266 -0.076,-0.117 -0.16,-0.266 -0.161,-0.387 -0.002,-0.163 0.057,-0.282 0.057,-0.282 0,0 -0.058,-0.005 -0.111,0.136 -0.052,0.142 -0.045,0.286 -0.045,0.286 0,0 -0.234,-0.148 -0.228,-0.426 0.005,-0.238 0.182,-0.457 0.182,-0.457 0,0 -0.429,-0.125 -0.762,0.253 -0.316,0.36 -0.642,0.206 -0.642,0.206 0,0 0.051,-0.067 0.067,-0.169 0.015,-0.102 0.033,-0.186 0.033,-0.186 0,0 -0.063,0.043 -0.257,0.029 -0.166,-0.012 -0.245,-0.057 -0.245,-0.057 0,0 -0.003,0.133 0.035,0.281 0,0 -0.105,-0.005 -0.225,-0.113 -0.092,-0.082 -0.144,-0.216 -0.144,-0.216 0,0 -0.081,0.219 0.145,0.416 0.227,0.197 0.38,0.213 0.38,0.213 0.2,0.194 0.148,0.35 0.148,0.35 0,0 -0.062,-0.076 -0.167,-0.128 -0.091,-0.044 -0.137,-0.046 -0.266,-0.034 -0.095,0.009 -0.198,-0.014 -0.198,-0.014 0,0 0.007,0.297 0.224,0.412 0.247,0.129 0.453,-0.058 0.453,-0.058 0,0 0.071,0.121 -0.053,0.3 -0.124,0.179 -0.295,0.203 -0.295,0.203 0,0 0.092,0.205 0.501,0.156 0.149,-0.017 0.359,-0.165 0.08,-0.508 -0.223,-0.272 -0.011,-0.399 -0.011,-0.399 0,0 0.045,0.115 0.131,0.177 0.086,0.063 0.274,0.171 0.274,0.171 0,0 0.063,-0.115 -0.259,-0.305 -0.226,-0.134 -0.121,-0.383 -0.121,-0.383 0,0 0.158,0.091 0.308,0.122 0.31,0.066 0.475,0.122 0.558,0.297 0.373,0.783 -0.498,1.458 -1.251,1.219 -0.65,-0.207 -0.887,-0.667 -1.024,-1.118 -0.138,-0.45 0.109,-1.096 0.109,-1.096 0,0 -0.285,-0.127 -0.648,0.038 -0.337,0.152 -0.375,0.452 -0.375,0.452 0,0 -0.074,-0.004 -0.132,-0.065 -0.058,-0.062 -0.061,-0.138 -0.061,-0.138 0,0 -0.052,-0.006 -0.104,0.033 -0.077,0.057 -0.2,0.069 -0.375,0.057 -0.328,-0.024 -0.36,0.187 -0.36,0.187 0,0 -0.223,-0.233 -0.098,-0.55 0.108,-0.274 0.32,-0.289 0.32,-0.289 0,0 -0.015,-0.041 -0.159,-0.054 -0.145,-0.011 -0.261,0.019 -0.261,0.019 0,0 -0.025,-0.176 0.056,-0.336 0.093,-0.184 0.286,-0.273 0.286,-0.273 0,0 -0.414,-0.261 -0.722,-0.672 -0.36,-0.48 -0.459,-0.491 -0.459,-0.491 0,0 0.017,-0.037 0.122,-0.041 0.104,-0.006 0.195,0.024 0.195,0.024 0,0 -0.321,-0.403 -0.375,-0.746 -0.037,-0.241 0.058,-0.518 0.058,-0.518 0,0 0.039,0.069 0.104,0.128 0.066,0.06 0.104,0.06 0.104,0.06 0,0 -0.159,-0.218 -0.124,-0.698 0.015,-0.215 0.073,-0.613 0.197,-0.843 0.389,-0.721 0.204,-0.971 0.204,-0.971 0,0 0.032,-0.018 0.106,0.015 0.072,0.031 0.155,0.1 0.155,0.1 0,0 -0.066,-0.247 -0.006,-0.686 0.06,-0.438 0.033,-0.641 0.033,-0.641 0,0 0.265,0.039 0.55,0.234 0.276,0.19 0.419,0.399 0.419,0.399 0,0 0.163,0.317 0.178,0.561 0.014,0.245 -0.012,0.409 -0.012,0.409 0,0 0.123,-0.123 0.138,-0.388 0.013,-0.238 -0.041,-0.347 -0.041,-0.347 0,0 0.307,0.121 0.518,0.459 0.255,0.407 0.274,0.973 -0.117,1.257 -0.436,0.317 -0.189,0.541 -0.189,0.541 0,0 -0.002,-0.156 0.098,-0.33 0.147,-0.256 0.235,-0.235 0.364,-0.341 0.086,-0.07 0.067,-0.145 0.067,-0.145 0,0 0.088,0.15 0.147,0.334 0.118,0.368 -0.008,0.63 -0.008,0.63 0,0 0.224,0.123 0.23,0.374 0.014,0.525 -0.295,0.683 -0.295,0.683 0,0 -0.007,0.014 0,0.028 0.007,0.014 0.022,0.017 0.022,0.017 0,0 -0.037,0.063 -0.047,0.163 -0.04,0.395 0.134,0.419 0.134,0.419 0,0 -0.1,-0.284 0.086,-0.525 0.185,-0.24 0.208,-0.374 0.208,-0.374 0,0 0.158,0.072 0.311,0.288 0.139,0.196 0.085,0.537 0.085,0.537 0,0 0.074,-0.011 0.098,-0.164 0.024,-0.153 -0.03,-0.265 -0.03,-0.265 0,0 0.234,0.159 0.141,0.563 -0.12,0.529 0.139,0.613 0.139,0.613 0,0 -0.025,-0.334 0.323,-0.577 0.301,-0.209 0.527,-0.085 0.527,-0.085 0,0 -0.184,0.188 -0.118,0.42 0.082,0.288 0.306,0.247 0.306,0.247 0,0 -0.123,-0.141 -0.103,-0.299 0.02,-0.16 0.168,-0.215 0.168,-0.215 0,0 0.082,0.305 0.6,0.311 0.492,0.007 1.248,-0.323 1.248,-0.323 l 1.222,0.419 1.387,0.911 c 0,0 0.238,0.084 0.459,0.338 0.136,0.158 0.297,0.423 0.297,0.647 0,0.428 -0.319,0.448 -0.319,0.936 0,0.282 0.426,0.629 0.426,0.629 0,0 0.427,-0.347 0.427,-0.629 0,-0.488 -0.32,-0.508 -0.32,-0.936 0,-0.224 0.161,-0.489 0.298,-0.647 0.221,-0.254 0.459,-0.338 0.459,-0.338 l 1.39,-0.913 1.219,-0.417 z"/><path id="path52" style="fill:#ffffff;fill-opacity:1;fill-rule:nonzero;stroke:none" d="m 17.9741,9.7666 -0.552,0.615 c -0.003,0 -0.521,0.485 -2.089,0.682 -1.495,0.188 -2.372,1.384 -2.409,1.434 l -0.306,0.425 0.294,0.435 c 0.01,0.015 1,1.501 1,3.174 0,2.088 -1.107,3.54 -1.119,3.555 l -0.277,0.357 0.656,1.451 0.448,0.03 c 0.008,0 1.094,0.088 1.91,0.738 0.803,0.644 1.534,0.902 2.174,0.766 0.109,-0.023 0.208,-0.057 0.296,-0.095 0.088,0.038 0.186,0.071 0.296,0.095 0.631,0.136 1.368,-0.121 2.175,-0.766 0.815,-0.65 1.9,-0.738 1.912,-0.739 l 0.442,-0.032 0.663,-1.448 -0.283,-0.36 c -0.01,-0.012 -1.117,-1.464 -1.117,-3.552 0,-1.673 0.99,-3.159 1,-3.174 l 0.294,-0.434 -0.306,-0.426 c -0.037,-0.051 -0.915,-1.247 -2.409,-1.434 -1.598,-0.201 -2.106,-0.7 -2.11,-0.705 l -0.583,-0.592 z"/><path id="path53" style="fill:#000000;fill-opacity:1;fill-rule:nonzero;stroke:none" d="m 17.9932,10.293 -0.282,0.328 c 0,0 -0.551,0.591 -2.331,0.815 -1.335,0.168 -2.119,1.236 -2.152,1.281 l -0.153,0.213 0.147,0.217 c 0.011,0.016 1.065,1.589 1.065,3.384 0,2.228 -1.186,3.77 -1.198,3.786 l -0.14,0.179 0.471,1.038 0.224,0.016 c 0.012,10e-4 1.207,0.092 2.12,0.82 0.713,0.57 1.339,0.799 1.862,0.692 0.151,-0.033 0.275,-0.09 0.374,-0.154 0.099,0.064 0.222,0.121 0.373,0.154 0.527,0.108 1.15,-0.123 1.864,-0.692 0.912,-0.728 2.107,-0.819 2.118,-0.82 l 0.223,-0.016 0.474,-1.037 -0.141,-0.18 c -0.012,-0.016 -1.198,-1.558 -1.198,-3.786 0,-1.795 1.054,-3.368 1.064,-3.384 l 0.148,-0.216 -0.154,-0.214 c -0.032,-0.045 -0.817,-1.113 -2.151,-1.281 -1.781,-0.224 -2.331,-0.815 -2.336,-0.821 l -0.291,-0.322 z"/><path id="path54" style="fill:#2b5df2;fill-opacity:1;fill-rule:nonzero;stroke:none" d="m 18,22.3853 c 0,0 -0.474,0.913 -2.002,-0.308 -1.022,-0.816 -2.329,-0.901 -2.329,-0.901 l -0.285,-0.628 c 0,0 1.278,-1.621 1.278,-4.017 0,-1.939 -1.129,-3.595 -1.129,-3.595 0,0 0.706,-0.979 1.894,-1.129 1.997,-0.251 2.573,-0.947 2.573,-0.947 0,0 0.576,0.696 2.573,0.947 1.188,0.15 1.895,1.129 1.895,1.129 0,0 -1.13,1.656 -1.13,3.595 0,2.396 1.278,4.017 1.278,4.017 l -0.286,0.628 c 0,0 -1.306,0.085 -2.327,0.901 -1.529,1.221 -2.003,0.308 -2.003,0.308"/></g></g></g></g></svg>