<svg xmlns:dc="http://purl.org/dc/elements/1.1/" xmlns:cc="http://creativecommons.org/ns#" xmlns:rdf="http://www.w3.org/1999/02/22-rdf-syntax-ns#" xmlns:svg="http://www.w3.org/2000/svg" xmlns="http://www.w3.org/2000/svg" viewBox="0 0 45 45" style="enable-background:new 0 0 45 45;" xml:space="preserve" version="1.1" id="svg2"><metadata id="metadata8"><rdf:RDF><cc:Work rdf:about=""><dc:format>image/svg+xml</dc:format><dc:type rdf:resource="http://purl.org/dc/dcmitype/StillImage"/></cc:Work></rdf:RDF></metadata><defs id="defs6"><clipPath id="clipPath16" clipPathUnits="userSpaceOnUse"><path id="path18" d="M 0,36 36,36 36,0 0,0 0,36 Z"/></clipPath></defs><g transform="matrix(1.25,0,0,-1.25,0,45)" id="g10"><g id="g12"><g clip-path="url(#clipPath16)" id="g14"><g id="g20"><path id="path22" style="fill:#ffd42a;fill-opacity:1;fill-rule:nonzero;stroke:none" d="M 32,31 H 4 C 1.791,31 0,29.209 0,27 V 9 C 0,6.791 1.791,5 4,5 h 28 c 2.209,0 4,1.791 4,4 v 18 c 0,2.209 -1.791,4 -4,4"/></g><g id="g24"><path id="path26" style="fill:#ff0000;fill-opacity:1;fill-rule:nonzero;stroke:none" d="M 0.8477,18.5 V 9 c 0,-1.738 1.414,-3.152 3.152,-3.152 h 28 c 1.739,0 3.153,1.414 3.153,3.152 v 9.5 z"/></g><g id="g28"><path id="path30" style="fill:#80b3ff;fill-opacity:1;fill-rule:nonzero;stroke:none" d="M 18,18.5 V 30.152 H 4 C 2.262,30.152 0.848,28.738 0.848,27 v -8.5 z"/></g><g id="g32"><path id="path34" style="fill:#eeeeee;fill-opacity:1;fill-rule:nonzero;stroke:none" d="M 35.1523,18.5 V 27 c 0,1.738 -1.414,3.152 -3.152,3.152 h -14 V 18.5 Z"/></g><g id="g36"><path id="path38" style="fill:#fcbf49;fill-opacity:1;fill-rule:nonzero;stroke:none" d="m 18,22.5703 -0.151,-2.429 -0.622,2.353 0.325,-2.412 -1.069,2.186 0.789,-2.302 -1.475,1.936 1.224,-2.103 -1.824,1.61 1.61,-1.824 -2.103,1.223 1.935,-1.475 -2.302,0.79 2.186,-1.07 -2.411,0.326 2.352,-0.622 -2.428,-0.151 2.428,-0.152 -2.352,-0.622 2.411,0.325 -2.186,-1.068 2.302,0.789 -1.935,-1.475 2.103,1.224 -1.61,-1.825 1.824,1.611 -1.224,-2.104 1.475,1.936 -0.789,-2.302 1.069,2.186 -0.325,-2.412 0.622,2.353 0.151,-2.429 0.151,2.429 0.622,-2.353 -0.325,2.412 1.07,-2.186 -0.79,2.302 1.474,-1.936 -1.223,2.104 1.825,-1.611 -1.611,1.825 2.103,-1.224 -1.935,1.475 2.302,-0.789 -2.186,1.068 2.412,-0.325 -2.353,0.622 2.429,0.152 -2.429,0.151 2.353,0.622 -2.412,-0.326 2.186,1.07 -2.302,-0.79 1.935,1.475 -2.103,-1.223 1.611,1.824 -1.825,-1.61 1.223,2.103 -1.474,-1.936 0.79,2.302 -1.07,-2.186 0.325,2.412 -0.622,-2.353 z"/></g><g id="g40"><path id="path50" style="fill:#594a27;fill-opacity:1;fill-rule:nonzero;stroke:none" d="m 22.4531,14.0723 c 0,0 -0.07,-0.604 1.2,-1.286 1.271,-0.683 2.031,-0.643 2.094,-0.533 0.062,0.109 -0.537,0.968 -1.349,1.364 -0.933,0.455 -1.945,0.455 -1.945,0.455"/><path id="path51" style="fill:#594a27;fill-opacity:1;fill-rule:nonzero;stroke:none" d="m 23.708,14.8643 c 0,0 0.753,-0.438 1.992,-0.313 1.239,0.126 1.741,0.408 1.749,0.525 0.008,0.118 -0.871,0.525 -1.78,0.494 -0.91,-0.031 -1.961,-0.706 -1.961,-0.706"/><path id="path52" style="fill:#594a27;fill-opacity:1;fill-rule:nonzero;stroke:none" d="m 23.8486,15.0508 c 0,0 -0.933,0.692 -1.176,1.477 -0.243,0.784 0,1.866 0,1.866 0,0 0.623,-0.496 1.035,-1.341 0.455,-0.934 0.141,-2.002 0.141,-2.002"/><path id="path53" style="fill:#594a27;fill-opacity:1;fill-rule:nonzero;stroke:none" d="m 25.1191,16.6611 c 0,0 0.965,-0.612 1.961,-0.165 0.996,0.447 1.443,1.019 1.404,1.129 -0.039,0.11 -0.831,0.182 -1.788,-0.124 -0.957,-0.306 -1.577,-0.84 -1.577,-0.84"/><path id="path54" style="fill:#594a27;fill-opacity:1;fill-rule:nonzero;stroke:none" d="m 25.3945,17.4375 c 0,0 -0.071,0.87 -0.612,1.514 -0.541,0.643 -1.082,1.058 -1.216,1.011 -0.133,-0.047 -0.016,-0.972 0.463,-1.717 0.478,-0.746 1.365,-0.808 1.365,-0.808"/><path id="path55" style="fill:#594a27;fill-opacity:1;fill-rule:nonzero;stroke:none" d="m 25.708,18.1196 c 0,0 1.623,0.518 2.109,1.043 0.487,0.526 0.8,1.577 0.722,1.639 -0.078,0.063 -0.619,-0.125 -1.498,-0.941 -0.878,-0.816 -1.333,-1.741 -1.333,-1.741"/><path id="path56" style="fill:#594a27;fill-opacity:1;fill-rule:nonzero;stroke:none" d="m 25.9902,19.3667 c 0,0 -0.204,1.216 -0.714,1.678 -0.51,0.463 -1.219,0.865 -1.332,0.779 -0.113,-0.086 0.148,-1.014 0.69,-1.469 0.541,-0.455 1.356,-0.988 1.356,-0.988"/><path id="path57" style="fill:#594a27;fill-opacity:1;fill-rule:nonzero;stroke:none" d="m 26.3584,20.7314 c 0,0 0.683,0.643 0.55,1.639 -0.134,0.996 -0.549,1.827 -0.753,1.828 -0.11,0 -0.447,-1.012 -0.393,-1.773 0.067,-0.917 0.596,-1.694 0.596,-1.694"/><path id="path58" style="fill:#594a27;fill-opacity:1;fill-rule:nonzero;stroke:none" d="m 13.5469,14.0723 c 0,0 0.071,-0.604 -1.2,-1.286 -1.27,-0.683 -2.031,-0.643 -2.094,-0.533 -0.062,0.109 0.537,0.968 1.349,1.364 0.933,0.455 1.945,0.455 1.945,0.455"/><path id="path59" style="fill:#594a27;fill-opacity:1;fill-rule:nonzero;stroke:none" d="m 12.292,14.8643 c 0,0 -0.753,-0.438 -1.992,-0.313 -1.239,0.126 -1.741,0.408 -1.749,0.525 -0.008,0.118 0.87,0.525 1.781,0.494 0.909,-0.031 1.96,-0.706 1.96,-0.706"/><path id="path60" style="fill:#594a27;fill-opacity:1;fill-rule:nonzero;stroke:none" d="m 12.1509,15.0508 c 0,0 0.934,0.692 1.177,1.477 0.243,0.784 0,1.866 0,1.866 0,0 -0.624,-0.496 -1.036,-1.341 -0.454,-0.934 -0.141,-2.002 -0.141,-2.002"/><path id="path61" style="fill:#594a27;fill-opacity:1;fill-rule:nonzero;stroke:none" d="m 10.8804,16.6611 c 0,0 -0.965,-0.612 -1.961,-0.165 -0.996,0.447 -1.443,1.019 -1.404,1.129 0.039,0.11 0.832,0.182 1.788,-0.124 0.957,-0.306 1.577,-0.84 1.577,-0.84"/><path id="path62" style="fill:#594a27;fill-opacity:1;fill-rule:nonzero;stroke:none" d="m 10.606,17.4375 c 0,0 0.07,0.87 0.612,1.514 0.541,0.643 1.082,1.058 1.215,1.011 0.134,-0.047 0.016,-0.972 -0.462,-1.717 -0.479,-0.746 -1.365,-0.808 -1.365,-0.808"/><path id="path63" style="fill:#594a27;fill-opacity:1;fill-rule:nonzero;stroke:none" d="m 10.292,18.1196 c 0,0 -1.624,0.518 -2.11,1.043 -0.486,0.526 -0.8,1.577 -0.721,1.639 0.078,0.063 0.62,-0.125 1.498,-0.941 0.878,-0.816 1.333,-1.741 1.333,-1.741"/><path id="path64" style="fill:#594a27;fill-opacity:1;fill-rule:nonzero;stroke:none" d="m 10.0098,19.3667 c 0,0 0.204,1.216 0.714,1.678 0.51,0.463 1.219,0.865 1.332,0.779 0.113,-0.086 -0.148,-1.014 -0.689,-1.469 -0.541,-0.455 -1.357,-0.988 -1.357,-0.988"/><path id="path65" style="fill:#594a27;fill-opacity:1;fill-rule:nonzero;stroke:none" d="m 9.6411,20.7314 c 0,0 -0.682,0.643 -0.549,1.639 0.133,0.996 0.549,1.827 0.753,1.828 0.11,0 0.447,-1.012 0.392,-1.773 -0.066,-0.917 -0.596,-1.694 -0.596,-1.694"/><path id="path66" style="fill:#594a27;fill-opacity:1;fill-rule:nonzero;stroke:none" d="m 21.2529,10.6211 c 0,0 0.859,-0.388 1.09,-0.267 0.283,0.15 -1.829,1.25 -3.89,1.891 -2.061,0.641 -3.545,0.988 -3.545,0.988 0,0 1.372,-0.577 3.378,-1.258 1.993,-0.677 2.967,-1.354 2.967,-1.354"/><path id="path67" style="fill:#594a27;fill-opacity:1;fill-rule:nonzero;stroke:none" d="m 14.7471,10.6211 c 0,0 -0.86,-0.388 -1.09,-0.267 -0.283,0.15 1.829,1.25 3.89,1.891 2.06,0.641 3.545,0.988 3.545,0.988 0,0 -1.371,-0.577 -3.378,-1.258 -1.993,-0.677 -2.967,-1.354 -2.967,-1.354"/></g></g></g></g></svg>