<svg xmlns:dc="http://purl.org/dc/elements/1.1/" xmlns:cc="http://creativecommons.org/ns#" xmlns:rdf="http://www.w3.org/1999/02/22-rdf-syntax-ns#" xmlns:svg="http://www.w3.org/2000/svg" xmlns="http://www.w3.org/2000/svg" viewBox="0 0 45 45" style="enable-background:new 0 0 45 45;" xml:space="preserve" version="1.1" id="svg2"><metadata id="metadata8"><rdf:RDF><cc:Work rdf:about=""><dc:format>image/svg+xml</dc:format><dc:type rdf:resource="http://purl.org/dc/dcmitype/StillImage"/></cc:Work></rdf:RDF></metadata><defs id="defs6"><clipPath id="clipPath16" clipPathUnits="userSpaceOnUse"><path id="path18" d="M 4,31 C 1.791,31 0,29.209 0,27 L 0,27 0,9 C 0,6.791 1.791,5 4,5 l 0,0 28,0 c 2.209,0 4,1.791 4,4 l 0,0 0,18 c 0,2.209 -1.791,4 -4,4 l 0,0 -28,0 z"/></clipPath></defs><g transform="matrix(1.25,0,0,-1.25,0,45)" id="g10"><g id="g12"><g xmlns="http://www.w3.org/2000/svg" clip-path="url(#clipPath16)" id="g14"><path id="path20" style="fill:#da251d;fill-opacity:1;fill-rule:nonzero;stroke:none" d="M 0,5 36,5 36,31 0,31 0,5 z"/><g transform="translate(18,18)" id="g31"><path id="path22" style="fill:#078930;fill-opacity:1;fill-rule:nonzero;stroke:none" d="M 0,0 -18,13 -18,-13 0,0 z"/><path id="path24" style="fill:#078930;fill-opacity:1;fill-rule:nonzero;stroke:none" d="M 0,0 18,-13 18,13 0,0 z"/></g><g transform="translate(22.0752,18)" id="g32"><path id="path26" style="fill:#eeeeee;fill-opacity:1;fill-rule:nonzero;stroke:none" d="m 0,0 13.925,-9.282 0,-3.718 -2.573,0 L -4.075,-2.717 -19.502,-13 l -2.573,0 0,3.717 L -8.15,0 l -13.925,9.283 0,3.717 2.573,0 L -4.075,2.716 11.352,13 l 2.573,0 0,-3.717 L 0,0 z"/></g><g transform="translate(14.8633,18)" id="g33"><path id="path28" style="fill:#141414;fill-opacity:1;fill-rule:nonzero;stroke:none" d="m 0,0 -14.863,9.908 0,3.092 1.635,0 L 3.137,2.091 19.502,13 l 1.635,0 0,-3.092 L 6.273,0 21.137,-9.908 21.137,-13 19.502,-13 3.137,-2.091 -13.228,-13 l -1.635,0 0,3.092 L 0,0 z"/></g><g transform="translate(16.5581,18)" id="g34"><path id="path29" style="fill:#eeeeee;fill-opacity:1;fill-rule:nonzero;stroke:none" d="m 0,0 -16.558,11.038 0,1.923 18,-12 18,11.999 0,-1.922 L 2.884,0 l 16.558,-11.037 0,-1.924 -18,11.999 -18,-11.999 0,1.923 L 0,0 z"/></g></g></g><g xmlns="http://www.w3.org/2000/svg" id="g22"><g id="g35"><path id="path30" style="fill:#fcd116;fill-opacity:1;fill-rule:nonzero;stroke:none" d="m 20.7914,19.1581 c 0,0 0.997,0.231 1.992,0.77 1.06,0.575 1.562,1.123 2.208,1.458 0.63,0.325 1.232,0.083 1.232,0.083 0,0 -0.62,10e-4 -1.098,-0.276 -0.477,-0.278 -0.583,-0.85 -1.358,-1.446 -0.776,-0.595 -1.563,-0.877 -1.563,-0.877"/><path id="path31" style="fill:#fcd116;fill-opacity:1;fill-rule:nonzero;stroke:none" d="m 19.1586,15.2094 c 0,0 0.23,-0.997 0.77,-1.992 0.574,-1.06 1.123,-1.562 1.458,-2.208 0.325,-0.63 0.083,-1.232 0.083,-1.232 0,0 0.001,0.62 -0.277,1.098 -0.277,0.477 -0.849,0.583 -1.445,1.358 -0.596,0.776 -0.877,1.563 -0.877,1.563"/><path id="path32" style="fill:#fcd116;fill-opacity:1;fill-rule:nonzero;stroke:none" d="m 16.8427,20.7919 c 0,0 -0.231,0.996 -0.77,1.991 -0.575,1.061 -1.123,1.562 -1.458,2.209 -0.325,0.63 -0.083,1.231 -0.083,1.231 0,0 -0.001,-0.62 0.276,-1.097 0.278,-0.477 0.85,-0.584 1.446,-1.359 0.595,-0.775 0.877,-1.563 0.877,-1.563"/><path id="path33" style="fill:#fcd116;fill-opacity:1;fill-rule:nonzero;stroke:none" d="m 15.2089,16.8422 c 0,0 -0.996,-0.23 -1.991,-0.77 -1.061,-0.574 -1.562,-1.123 -2.209,-1.458 -0.63,-0.325 -1.231,-0.083 -1.231,-0.083 0,0 0.62,-10e-4 1.097,0.277 0.477,0.277 0.584,0.849 1.359,1.445 0.775,0.596 1.563,0.877 1.563,0.877"/><path id="path34" style="fill:#fcd116;fill-opacity:1;fill-rule:nonzero;stroke:none" d="m 19.1557,20.7929 c 0,0 0.541,0.868 0.863,1.953 0.344,1.156 0.311,1.899 0.532,2.592 0.214,0.676 0.811,0.929 0.811,0.929 0,0 -0.439,-0.437 -0.58,-0.971 -0.142,-0.533 0.188,-1.013 0.061,-1.982 -0.127,-0.97 -0.485,-1.726 -0.485,-1.726"/><path id="path35" style="fill:#fcd116;fill-opacity:1;fill-rule:nonzero;stroke:none" d="m 20.7924,16.8451 c 0,0 0.868,-0.541 1.953,-0.863 1.156,-0.344 1.899,-0.311 2.593,-0.532 0.676,-0.214 0.929,-0.811 0.929,-0.811 0,0 -0.438,0.439 -0.971,0.58 -0.533,0.142 -1.014,-0.188 -1.983,-0.061 -0.969,0.127 -1.725,0.485 -1.725,0.485"/><path id="path36" style="fill:#fcd116;fill-opacity:1;fill-rule:nonzero;stroke:none" d="m 15.2079,19.1557 c 0,0 -0.868,0.541 -1.953,0.864 -1.156,0.343 -1.899,0.31 -2.592,0.531 -0.676,0.215 -0.929,0.812 -0.929,0.812 0,0 0.437,-0.44 0.971,-0.581 0.533,-0.141 1.013,0.188 1.982,0.061 0.97,-0.127 1.726,-0.485 1.726,-0.485"/><path id="path37" style="fill:#fcd116;fill-opacity:1;fill-rule:nonzero;stroke:none" d="m 16.8451,15.2084 c 0,0 -0.541,-0.868 -0.864,-1.953 -0.343,-1.156 -0.31,-1.899 -0.531,-2.593 -0.215,-0.676 -0.811,-0.929 -0.811,-0.929 0,0 0.439,0.438 0.58,0.971 0.141,0.533 -0.188,1.014 -0.061,1.983 0.127,0.969 0.485,1.725 0.485,1.725"/><path id="path38" style="fill:#ffffff;fill-opacity:1;fill-rule:nonzero;stroke:none" d="m 20.7914,19.1581 c 0,0 0.997,0.231 1.992,0.77 1.06,0.575 1.562,1.123 2.208,1.458 0.63,0.325 1.232,0.083 1.232,0.083 0,0 -0.646,0.314 -1.097,0.256 -0.652,-0.084 -1.008,-0.504 -1.815,-0.817 -0.732,-0.282 -1.563,-0.274 -1.563,-0.274"/><path id="path39" style="fill:#ffffff;fill-opacity:1;fill-rule:nonzero;stroke:none" d="m 19.1586,15.2094 c 0,0 0.23,-0.997 0.77,-1.992 0.574,-1.06 1.123,-1.562 1.458,-2.208 0.325,-0.63 0.083,-1.232 0.083,-1.232 0,0 0.314,0.646 0.256,1.097 -0.085,0.652 -0.504,1.008 -0.817,1.815 -0.283,0.732 -0.274,1.563 -0.274,1.563"/><path id="path40" style="fill:#ffffff;fill-opacity:1;fill-rule:nonzero;stroke:none" d="m 16.8427,20.7919 c 0,0 -0.231,0.996 -0.77,1.991 -0.575,1.061 -1.123,1.562 -1.458,2.209 -0.325,0.63 -0.083,1.231 -0.083,1.231 0,0 -0.314,-0.646 -0.256,-1.097 0.084,-0.651 0.504,-1.007 0.817,-1.814 0.282,-0.733 0.274,-1.564 0.274,-1.564"/><path id="path41" style="fill:#ffffff;fill-opacity:1;fill-rule:nonzero;stroke:none" d="m 15.2089,16.8422 c 0,0 -0.996,-0.23 -1.991,-0.77 -1.061,-0.574 -1.562,-1.123 -2.209,-1.458 -0.63,-0.325 -1.231,-0.083 -1.231,-0.083 0,0 0.646,-0.314 1.097,-0.256 0.651,0.085 1.007,0.504 1.815,0.817 0.732,0.283 1.563,0.274 1.563,0.274"/><path id="path42" style="fill:#ffffff;fill-opacity:1;fill-rule:nonzero;stroke:none" d="m 19.1557,20.7929 c 0,0 0.541,0.868 0.863,1.953 0.344,1.156 0.311,1.899 0.532,2.592 0.214,0.676 0.811,0.929 0.811,0.929 0,0 -0.679,-0.234 -0.957,-0.594 -0.401,-0.52 -0.355,-1.069 -0.705,-1.861 -0.318,-0.717 -0.912,-1.299 -0.912,-1.299"/><path id="path43" style="fill:#ffffff;fill-opacity:1;fill-rule:nonzero;stroke:none" d="m 20.7924,16.8451 c 0,0 0.868,-0.541 1.953,-0.863 1.156,-0.344 1.899,-0.311 2.593,-0.532 0.676,-0.214 0.929,-0.811 0.929,-0.811 0,0 -0.234,0.679 -0.594,0.957 -0.521,0.401 -1.069,0.355 -1.861,0.705 -0.718,0.318 -1.299,0.912 -1.299,0.912"/><path id="path44" style="fill:#ffffff;fill-opacity:1;fill-rule:nonzero;stroke:none" d="m 15.2079,19.1557 c 0,0 -0.868,0.541 -1.953,0.864 -1.156,0.343 -1.899,0.31 -2.592,0.531 -0.676,0.215 -0.929,0.812 -0.929,0.812 0,0 0.234,-0.68 0.594,-0.957 0.52,-0.402 1.069,-0.356 1.861,-0.707 0.717,-0.317 1.299,-0.911 1.299,-0.911"/><path id="path45" style="fill:#ffffff;fill-opacity:1;fill-rule:nonzero;stroke:none" d="m 16.8451,15.2084 c 0,0 -0.541,-0.868 -0.864,-1.953 -0.343,-1.156 -0.31,-1.899 -0.531,-2.593 -0.215,-0.676 -0.811,-0.929 -0.811,-0.929 0,0 0.679,0.234 0.956,0.594 0.402,0.521 0.356,1.069 0.707,1.861 0.317,0.718 0.911,1.299 0.911,1.299"/><path id="path46" style="fill:#fcd116;fill-opacity:1;fill-rule:nonzero;stroke:none" d="m 19.9457,16.0551 4.378,-4.378 -5.2,3.556"/><path id="path47" style="fill:#fcd116;fill-opacity:1;fill-rule:nonzero;stroke:none" d="m 16.0551,19.9457 -4.378,4.378 5.2,-3.556"/><path id="path48" style="fill:#fcd116;fill-opacity:1;fill-rule:nonzero;stroke:none" d="m 19.9457,19.9457 4.378,4.378 -3.556,-5.2"/><path id="path49" style="fill:#fcd116;fill-opacity:1;fill-rule:nonzero;stroke:none" d="m 16.0551,16.0551 -4.378,-4.378 3.556,5.2"/><path id="path50" style="fill:#fcd116;fill-opacity:1;fill-rule:nonzero;stroke:none" d="m 20.7514,18.0004 6.192,0 -6.192,-1.163"/><path id="path51" style="fill:#fcd116;fill-opacity:1;fill-rule:nonzero;stroke:none" d="m 15.2494,18.0004 -6.191,0 6.191,1.163"/><path id="path52" style="fill:#fcd116;fill-opacity:1;fill-rule:nonzero;stroke:none" d="m 18.0009,20.7519 0,6.191 1.163,-6.191"/><path id="path53" style="fill:#fcd116;fill-opacity:1;fill-rule:nonzero;stroke:none" d="m 18.0009,15.2494 0,-6.191 -1.163,6.191"/><path id="path54" style="fill:#ffffff;fill-opacity:1;fill-rule:nonzero;stroke:none" d="m 15.2494,16.8373 -6.191,1.163 6.191,0"/><path id="path55" style="fill:#ffffff;fill-opacity:1;fill-rule:nonzero;stroke:none" d="m 16.8774,15.2328 -5.2,-3.556 4.378,4.378"/><path id="path56" style="fill:#ffffff;fill-opacity:1;fill-rule:nonzero;stroke:none" d="m 19.1635,15.2494 -1.163,-6.191 0,6.191"/><path id="path57" style="fill:#ffffff;fill-opacity:1;fill-rule:nonzero;stroke:none" d="m 20.768,16.8774 3.556,-5.2 -4.378,4.378"/><path id="path58" style="fill:#ffffff;fill-opacity:1;fill-rule:nonzero;stroke:none" d="M 20.7514,19.163 26.9434,18 20.7514,18"/><path id="path59" style="fill:#ffffff;fill-opacity:1;fill-rule:nonzero;stroke:none" d="m 19.1234,20.768 5.2,3.556 -4.378,-4.378"/><path id="path60" style="fill:#ffffff;fill-opacity:1;fill-rule:nonzero;stroke:none" d="m 16.8378,20.7519 1.163,6.191 0,-6.191"/><path id="path61" style="fill:#ffffff;fill-opacity:1;fill-rule:nonzero;stroke:none" d="m 15.2328,19.1234 -3.556,5.2 4.378,-4.377"/></g><g transform="translate(21.0219,18.0004)" id="g36"><path id="path70" style="fill:#ffffff;fill-opacity:1;fill-rule:nonzero;stroke:none" d="M 0,0 C 0,1.668 -1.353,3.021 -3.021,3.021 -4.69,3.021 -6.042,1.668 -6.042,0 c 0,-1.669 1.352,-3.021 3.021,-3.021 C -1.353,-3.021 0,-1.669 0,0"/></g><g id="g37"><path id="path71" style="fill:#55d400;fill-opacity:1;fill-rule:nonzero;stroke:none" d="m 18.7143,15.4858 c 0.417,-0.773 0.736,-1.485 0.736,-1.485 l 1.301,0.655 0.538,-0.431 0.59,0.646 -0.478,0.496 0.044,0.115 -2.731,0.004 z m -3.321,-0.003 -0.402,-0.274 c 0,0 0,0.102 0.006,0.274 l 0.396,0 z"/><path id="path72" style="fill:#d40000;fill-opacity:1;fill-rule:nonzero;stroke:none" d="m 21.4457,15.4818 0.328,0.834 -3.535,-0.003 c 0.164,-0.264 0.326,-0.549 0.476,-0.827 l 2.731,-0.004 z m -6.449,10e-4 c 0.007,0.2 0.023,0.495 0.06,0.833 l 1.553,0 -1.216,-0.833 -0.397,0 z"/><path id="path73" style="fill:#93aca7;fill-opacity:1;fill-rule:nonzero;stroke:none" d="m 17.5629,17.2514 c 0.176,-0.208 0.385,-0.482 0.61,-0.834 0.022,-0.034 0.044,-0.069 0.066,-0.104 l 3.535,0.002 0.16,0.408 c 0,0 -0.643,0.22 -1.388,0.53 l -2.983,-0.002 z m -0.574,0.001 -0.035,-0.701 -0.344,-0.236 -1.553,0 c 0.032,0.291 0.081,0.615 0.153,0.937 l 1.779,0 z"/><path id="path74" style="fill:#0055d4;fill-opacity:1;fill-rule:nonzero;stroke:none" d="m 15.5419,18.1835 c -0.109,-0.201 -0.214,-0.452 -0.292,-0.764 -0.015,-0.056 -0.028,-0.111 -0.04,-0.167 l 1.779,0 0.028,0.548 c 0,0 0.216,-0.159 0.546,-0.549 l 2.983,0.002 c -0.376,0.156 -0.778,0.335 -1.134,0.52 -0.279,0.145 -0.513,0.284 -0.707,0.41 l -3.163,0 z"/><path id="path75" style="fill:#8d5fd3;fill-opacity:1;fill-rule:nonzero;stroke:none" d="m 18.7045,18.1835 c -0.547,0.357 -0.776,0.615 -0.776,0.615 l 1.238,0.177 0.025,0.046 -3.07,0.003 c 0.006,-0.023 0.007,-0.05 -0.002,-0.081 -0.024,-0.082 -0.314,-0.278 -0.578,-0.76 l 3.163,0 z"/><path id="path76" style="fill:#449900;fill-opacity:1;fill-rule:nonzero;stroke:none" d="m 19.1918,19.0214 0.518,0.927 -2.653,0 c -0.199,-0.189 -0.295,-0.339 -0.348,-0.36 -0.113,-0.045 -0.187,0.061 -0.187,0.061 0,0 0.028,0.14 -0.119,0.289 -0.002,0.003 -0.004,0.005 -0.007,0.007 l -1.123,0.006 0.382,-0.368 c 0,0 -0.075,-0.235 0.087,-0.368 0.163,-0.133 0.3,-0.092 0.3,-0.092 0,0 0.06,-0.035 0.079,-0.099 l 3.071,-0.003 z"/><path id="path77" style="fill:#ff2a7f;fill-opacity:1;fill-rule:nonzero;stroke:none" d="m 19.7094,19.9486 0.498,0.894 -1.181,0 c -0.283,-0.063 -0.586,-0.145 -0.88,-0.248 -0.538,-0.189 -0.875,-0.441 -1.09,-0.646 l 2.653,0 z m -3.681,0.043 c 0,0 0.221,0.094 0.368,-0.046 l -1.124,0.005 -0.599,0.578 c 0,0 -0.118,0.164 -0.057,0.315 l 0.431,-0.003 0.981,-0.849"/><path id="path78" style="fill:#d38d5f;fill-opacity:1;fill-rule:nonzero;stroke:none" d="m 20.2074,20.8427 0.117,0.209 c 0,0 -0.585,-0.048 -1.298,-0.209 l 1.181,0 z m -5.591,0 c 0.006,0.014 0.013,0.029 0.023,0.042 0.149,0.122 0.359,-10e-4 0.359,-10e-4 l 0.046,-0.041 -0.428,0 z"/></g></g></g></svg>