<svg xmlns:dc="http://purl.org/dc/elements/1.1/" xmlns:cc="http://creativecommons.org/ns#" xmlns:rdf="http://www.w3.org/1999/02/22-rdf-syntax-ns#" xmlns:svg="http://www.w3.org/2000/svg" xmlns="http://www.w3.org/2000/svg" viewBox="0 0 45 45" style="enable-background:new 0 0 45 45;" xml:space="preserve" version="1.1" id="svg2"><metadata id="metadata8"><rdf:RDF><cc:Work rdf:about=""><dc:format>image/svg+xml</dc:format><dc:type rdf:resource="http://purl.org/dc/dcmitype/StillImage"/></cc:Work></rdf:RDF></metadata><defs id="defs6"><clipPath id="clipPath16" clipPathUnits="userSpaceOnUse"><path id="path18" d="M 4,31 C 1.791,31 0,29.209 0,27 L 0,27 0,9 C 0,6.791 1.791,5 4,5 l 0,0 28,0 c 2.209,0 4,1.791 4,4 l 0,0 0,18 c 0,2.209 -1.791,4 -4,4 l 0,0 -28,0 z"/></clipPath></defs><g transform="matrix(1.25,0,0,-1.25,0,45)" id="g10"><g id="g12"><g xmlns="http://www.w3.org/2000/svg" clip-path="url(#clipPath16)" id="g14"><g id="g30"><path id="path20" style="fill:#eeeeee;fill-opacity:1;fill-rule:nonzero;stroke:none" d="m 1e-4,5 36,0 0,25.999 -36,0 L 1e-4,5 z"/><path id="path22" style="fill:#00a000;fill-opacity:1;fill-rule:nonzero;stroke:none" d="m 1e-4,30.9996 0,-13 22.05,0 -13.95,13 -8.1,0 z"/><path id="path24" style="fill:#00a000;fill-opacity:1;fill-rule:nonzero;stroke:none" d="m 8.1002,5 13.95,13 0,-13 -13.95,0 z"/><path id="path26" style="fill:#00a000;fill-opacity:1;fill-rule:nonzero;stroke:none" d="m 22.0501,18 13.95,-13 0,13 -13.95,0 z"/><path id="path28" style="fill:#00a000;fill-opacity:1;fill-rule:nonzero;stroke:none" d="m 22.0501,30.9996 0,-13 13.95,13 -13.95,0 z"/></g><g id="g34"><path id="path30" style="fill:#ffc726;fill-opacity:1;fill-rule:nonzero;stroke:none" d="M 12.169,18 0,5 18,18 0,31 12.169,18 z"/><path id="path32" style="fill:#141414;fill-opacity:1;fill-rule:nonzero;stroke:none" d="m 1e-4,5.0004 12.169,13 -12.169,12.999 0,-25.999 z"/><path id="path34" style="fill:#ffffff;fill-opacity:1;fill-rule:nonzero;stroke:none" d="m 5.6759,16.7891 2.935,-0.487 -2.088,2.119 1.371,2.64 -2.661,-1.33 -2.088,2.12 0.443,-2.942 -2.661,-1.33 2.936,-0.488 0.442,-2.943 1.371,2.641 z"/></g></g></g></g></svg>