<svg xmlns:dc="http://purl.org/dc/elements/1.1/" xmlns:cc="http://creativecommons.org/ns#" xmlns:rdf="http://www.w3.org/1999/02/22-rdf-syntax-ns#" xmlns:svg="http://www.w3.org/2000/svg" xmlns="http://www.w3.org/2000/svg" viewBox="0 0 45 45" style="enable-background:new 0 0 45 45;" xml:space="preserve" version="1.1" id="svg2"><metadata id="metadata8"><rdf:RDF><cc:Work rdf:about=""><dc:format>image/svg+xml</dc:format><dc:type rdf:resource="http://purl.org/dc/dcmitype/StillImage"/></cc:Work></rdf:RDF></metadata><defs id="defs6"><clipPath id="clipPath16" clipPathUnits="userSpaceOnUse"><path id="path18" d="M 0,36 36,36 36,0 0,0 0,36 Z"/></clipPath></defs><g transform="matrix(1.25,0,0,-1.25,0,45)" id="g10"><g id="g12"><g xmlns="http://www.w3.org/2000/svg" clip-path="url(#clipPath16)" id="g14"><g id="g30"><path id="path20" style="fill:#000066;fill-opacity:1;fill-rule:nonzero;stroke:none" d="m 32,5 c 2.209,0 4,1.791 4,4 l 0,18 c 0,2.209 -1.791,4 -4,4 L 4,31 C 1.791,31 0,29.209 0,27 L 0,9 C 0,6.791 1.791,5 4,5 l 28,0 z"/></g><g id="g34"><path id="path30" style="fill:#e6ad05;fill-opacity:1;fill-rule:nonzero;stroke:none" d="m 10.8457,20.7397 c -0.019,-0.058 -0.028,-0.087 -0.047,-0.146 -0.088,0.019 -0.132,0.028 -0.221,0.047 -0.038,-0.01 -0.07,-0.027 -0.098,-0.053 -0.028,-0.026 -0.048,-0.06 -0.06,-0.102 -0.026,-0.092 0.006,-0.179 0.097,-0.255 0.09,-0.077 0.219,-0.135 0.386,-0.177 0.023,-0.006 0.034,-0.009 0.057,-0.015 0.166,-0.042 0.307,-0.053 0.423,-0.036 0.114,0.016 0.182,0.061 0.204,0.137 0.009,0.036 0.009,0.07 0,0.105 -0.01,0.036 -0.028,0.066 -0.055,0.092 -0.083,0.034 -0.125,0.052 -0.208,0.088 0.016,0.054 0.025,0.082 0.043,0.136 0.126,-0.044 0.189,-0.066 0.316,-0.109 0.063,-0.061 0.108,-0.125 0.137,-0.192 0.027,-0.068 0.032,-0.135 0.013,-0.201 -0.032,-0.116 -0.132,-0.192 -0.303,-0.234 -0.172,-0.042 -0.378,-0.04 -0.618,0.013 -0.022,0.006 -0.033,0.008 -0.055,0.013 -0.239,0.053 -0.426,0.142 -0.557,0.272 -0.131,0.129 -0.176,0.273 -0.135,0.421 0.024,0.084 0.069,0.153 0.135,0.203 0.066,0.052 0.143,0.086 0.23,0.102 0.127,-0.044 0.19,-0.066 0.316,-0.109"/><path id="path31" style="fill:#e6ad05;fill-opacity:1;fill-rule:nonzero;stroke:none" d="m 11.374,21.3882 c -0.158,0.074 -0.296,0.115 -0.413,0.121 -0.116,0.005 -0.192,-0.033 -0.226,-0.115 -0.033,-0.082 -0.007,-0.164 0.079,-0.245 0.085,-0.079 0.211,-0.151 0.375,-0.215 0.011,-0.004 0.016,-0.005 0.026,-0.01 0.166,-0.064 0.307,-0.098 0.421,-0.102 0.115,-0.004 0.185,0.027 0.214,0.097 0.028,0.069 0.001,0.142 -0.083,0.223 -0.084,0.08 -0.206,0.159 -0.368,0.234 -0.01,0.005 -0.015,0.008 -0.025,0.012 m 0.104,0.161 c 0.223,-0.111 0.39,-0.237 0.505,-0.374 0.116,-0.136 0.153,-0.253 0.109,-0.36 -0.043,-0.107 -0.152,-0.164 -0.327,-0.177 -0.177,-0.013 -0.383,0.017 -0.616,0.101 -0.01,0.003 -0.014,0.005 -0.024,0.009 -0.231,0.083 -0.411,0.191 -0.533,0.332 -0.121,0.141 -0.155,0.283 -0.1,0.418 0.055,0.135 0.177,0.21 0.36,0.219 0.182,0.008 0.383,-0.047 0.604,-0.157 l 0.022,-0.011 z"/><path id="path32" style="fill:#e6ad05;fill-opacity:1;fill-rule:nonzero;stroke:none" d="m 11.6011,22.6265 c -0.001,-0.001 -0.002,-0.001 -0.003,-0.002 0.361,-0.367 0.547,-0.543 0.929,-0.884 -0.023,-0.037 -0.034,-0.056 -0.056,-0.095 -0.473,0.183 -0.712,0.266 -1.198,0.417 -10e-4,-0.001 -10e-4,-0.002 -10e-4,-0.003 0.264,-0.138 0.395,-0.208 0.658,-0.347 0.093,-0.052 0.139,-0.078 0.233,-0.13 0.029,0.025 0.043,0.038 0.073,0.063 0.071,-0.041 0.106,-0.061 0.177,-0.102 -0.066,-0.12 -0.098,-0.181 -0.159,-0.305 -0.072,0.037 -0.109,0.055 -0.181,0.092 0.004,0.04 0.006,0.059 0.009,0.098 -0.429,0.227 -0.645,0.341 -1.075,0.568 -0.031,-0.033 -0.047,-0.049 -0.078,-0.081 -0.074,0.037 -0.11,0.055 -0.183,0.093 0.02,0.04 0.03,0.059 0.049,0.099 0.05,0.098 0.075,0.146 0.127,0.242 0.485,-0.156 0.724,-0.241 1.195,-0.426 10e-4,0.002 10e-4,0.002 0.002,0.004 -0.381,0.338 -0.567,0.513 -0.929,0.876 0.08,0.127 0.121,0.189 0.206,0.31 0.067,-0.049 0.101,-0.072 0.167,-0.12 -0.013,-0.043 -0.019,-0.064 -0.031,-0.107 0.399,-0.28 0.598,-0.42 0.996,-0.7 0.031,0.021 0.048,0.031 0.079,0.052 0.066,-0.048 0.099,-0.071 0.165,-0.119 -0.075,-0.109 -0.112,-0.164 -0.183,-0.278 -0.069,0.045 -0.103,0.067 -0.172,0.112 0.008,0.037 0.012,0.056 0.019,0.093 -0.089,0.06 -0.133,0.089 -0.222,0.149 -0.245,0.172 -0.368,0.258 -0.613,0.431"/><path id="path33" style="fill:#e6ad05;fill-opacity:1;fill-rule:nonzero;stroke:none" d="m 12.3613,23.6094 c -10e-4,-0.001 -0.002,-0.001 -0.004,-0.002 0.303,-0.415 0.46,-0.618 0.785,-1.012 -0.027,-0.031 -0.041,-0.048 -0.068,-0.08 -0.436,0.259 -0.659,0.381 -1.113,0.613 -10e-4,-10e-4 -10e-4,-0.002 -0.002,-0.003 0.238,-0.18 0.358,-0.269 0.595,-0.45 0.084,-0.066 0.126,-0.099 0.209,-0.166 0.033,0.019 0.049,0.029 0.081,0.047 l 0.159,-0.129 c -0.081,-0.102 -0.121,-0.154 -0.198,-0.262 -0.066,0.048 -0.098,0.073 -0.164,0.121 0.009,0.037 0.013,0.055 0.023,0.092 -0.389,0.294 -0.584,0.44 -0.972,0.734 -0.036,-0.024 -0.054,-0.037 -0.089,-0.063 -0.066,0.049 -0.099,0.074 -0.165,0.122 0.024,0.035 0.037,0.052 0.062,0.086 0.062,0.084 0.093,0.125 0.157,0.207 0.453,-0.235 0.675,-0.359 1.11,-0.62 10e-4,0.001 0.002,0.002 0.003,0.003 -0.326,0.391 -0.483,0.593 -0.786,1.005 0.096,0.107 0.145,0.159 0.246,0.261 0.058,-0.058 0.087,-0.087 0.146,-0.145 -0.019,-0.039 -0.028,-0.058 -0.046,-0.097 0.351,-0.339 0.526,-0.509 0.877,-0.848 0.033,0.015 0.05,0.023 0.084,0.037 0.058,-0.058 0.088,-0.087 0.146,-0.144 -0.09,-0.091 -0.134,-0.138 -0.22,-0.234 -0.061,0.054 -0.091,0.082 -0.151,0.136 0.012,0.035 0.018,0.053 0.031,0.087 -0.079,0.073 -0.118,0.109 -0.196,0.182 -0.217,0.209 -0.325,0.313 -0.54,0.522"/><path id="path34" style="fill:#e6ad05;fill-opacity:1;fill-rule:nonzero;stroke:none" d="m 13.3228,23.9863 c -0.113,0.134 -0.22,0.231 -0.321,0.29 -0.1,0.058 -0.182,0.061 -0.241,0.009 -0.059,-0.052 -0.065,-0.132 -0.018,-0.239 0.046,-0.105 0.132,-0.222 0.253,-0.351 0.008,-0.008 0.012,-0.012 0.019,-0.02 0.124,-0.13 0.236,-0.223 0.335,-0.279 0.099,-0.057 0.173,-0.064 0.223,-0.02 0.05,0.045 0.052,0.118 0.007,0.224 -0.045,0.106 -0.124,0.227 -0.239,0.365 -0.007,0.008 -0.011,0.012 -0.018,0.021 m 0.151,0.087 c 0.156,-0.195 0.257,-0.377 0.309,-0.545 0.053,-0.167 0.043,-0.281 -0.034,-0.35 -0.076,-0.068 -0.193,-0.065 -0.352,0.006 -0.16,0.072 -0.33,0.193 -0.506,0.37 -0.007,0.008 -0.011,0.011 -0.018,0.018 -0.174,0.176 -0.293,0.348 -0.35,0.521 -0.057,0.171 -0.036,0.304 0.061,0.391 0.097,0.085 0.232,0.092 0.397,0.016 0.164,-0.077 0.322,-0.215 0.477,-0.408 0.006,-0.007 0.01,-0.011 0.016,-0.019"/><path id="path35" style="fill:#e6ad05;fill-opacity:1;fill-rule:nonzero;stroke:none" d="m 13.791,25.3389 c 0.043,-0.07 0.064,-0.105 0.107,-0.175 -0.026,-0.032 -0.039,-0.048 -0.065,-0.08 0.312,-0.494 0.467,-0.74 0.779,-1.233 -0.051,-0.031 -0.076,-0.047 -0.127,-0.08 -0.355,0.315 -0.54,0.465 -0.927,0.751 0,-10e-4 -10e-4,-0.002 -0.002,-0.003 0.214,-0.291 0.32,-0.437 0.534,-0.728 0.036,0.008 0.054,0.012 0.089,0.02 0.048,-0.067 0.071,-0.1 0.119,-0.167 -0.103,-0.072 -0.153,-0.109 -0.253,-0.186 -0.05,0.064 -0.075,0.096 -0.126,0.16 0.018,0.032 0.026,0.048 0.044,0.079 -0.297,0.387 -0.445,0.58 -0.743,0.967 -0.039,-0.013 -0.059,-0.019 -0.099,-0.033 -0.051,0.065 -0.077,0.097 -0.127,0.162 0.031,0.025 0.047,0.037 0.08,0.062 0.061,0.046 0.092,0.068 0.153,0.113 0.395,-0.279 0.585,-0.427 0.948,-0.736 10e-4,0.001 0.002,0.002 0.002,0.003 -0.199,0.3 -0.299,0.45 -0.498,0.751 -0.041,-0.01 -0.061,-0.015 -0.102,-0.025 -0.047,0.067 -0.07,0.102 -0.116,0.17 0.097,0.063 0.145,0.095 0.244,0.156 0.034,0.021 0.051,0.031 0.086,0.052"/><path id="path36" style="fill:#e6ad05;fill-opacity:1;fill-rule:nonzero;stroke:none" d="m 15.0112,25.7178 c -0.025,-0.018 -0.037,-0.026 -0.062,-0.044 0.166,-0.569 0.255,-0.852 0.445,-1.411 -0.05,-0.023 -0.076,-0.034 -0.126,-0.058 -0.245,0.38 -0.372,0.568 -0.633,0.938 -10e-4,-0.001 -0.002,-0.001 -0.003,-0.002 0.146,-0.427 0.224,-0.638 0.388,-1.058 -0.05,-0.026 -0.074,-0.039 -0.123,-0.066 -0.344,0.484 -0.522,0.723 -0.889,1.192 -0.029,-0.009 -0.044,-0.013 -0.073,-0.023 -0.043,0.07 -0.065,0.105 -0.107,0.176 0.119,0.07 0.179,0.104 0.301,0.169 0.04,-0.072 0.06,-0.107 0.099,-0.179 -0.024,-0.026 -0.036,-0.038 -0.06,-0.063 0.22,-0.304 0.328,-0.457 0.54,-0.766 0.002,0.001 0.002,0.001 0.004,0.001 -0.171,0.436 -0.251,0.656 -0.404,1.1 0.05,0.025 0.075,0.038 0.125,0.062 0.272,-0.385 0.404,-0.58 0.659,-0.974 l 0.002,0.002 c -0.126,0.351 -0.187,0.527 -0.304,0.882 -0.035,-0.004 -0.052,-0.006 -0.087,-0.01 -0.035,0.074 -0.053,0.111 -0.088,0.185 0.126,0.057 0.189,0.084 0.316,0.136 0.033,-0.076 0.048,-0.113 0.08,-0.189"/><path id="path37" style="fill:#e6ad05;fill-opacity:1;fill-rule:nonzero;stroke:none" d="m 15.8501,25.229 c -0.107,-0.034 -0.16,-0.052 -0.265,-0.089 0.068,-0.182 0.101,-0.272 0.169,-0.453 0.094,0.033 0.141,0.049 0.237,0.079 -0.023,0.078 -0.035,0.117 -0.058,0.194 0.046,0.015 0.07,0.022 0.116,0.036 0.055,-0.177 0.083,-0.265 0.138,-0.441 -0.225,-0.068 -0.337,-0.106 -0.556,-0.193 -0.031,0.075 -0.047,0.113 -0.078,0.188 0.026,0.025 0.038,0.037 0.064,0.062 -0.181,0.451 -0.271,0.677 -0.452,1.129 -0.042,-0.001 -0.062,-0.002 -0.104,-0.003 -0.031,0.075 -0.046,0.114 -0.078,0.189 0.037,0.015 0.055,0.022 0.093,0.036 0.238,0.092 0.359,0.133 0.605,0.206 0.055,-0.177 0.083,-0.266 0.138,-0.442 -0.052,-0.016 -0.078,-0.024 -0.13,-0.04 -0.028,0.075 -0.043,0.113 -0.071,0.189 -0.11,-0.035 -0.165,-0.054 -0.274,-0.093 0.059,-0.159 0.089,-0.239 0.149,-0.398 0.109,0.039 0.164,0.057 0.274,0.092 0.034,-0.099 0.05,-0.149 0.083,-0.248"/><path id="path38" style="fill:#e6ad05;fill-opacity:1;fill-rule:nonzero;stroke:none" d="m 16.3413,25.3281 c 0.073,0.018 0.11,0.026 0.184,0.042 -0.09,0.225 -0.136,0.336 -0.232,0.559 -10e-4,-10e-4 -0.002,-10e-4 -0.003,-10e-4 0.017,-0.241 0.028,-0.361 0.051,-0.6 m -0.144,-0.559 c 0.019,0.013 0.029,0.019 0.048,0.032 -0.075,0.589 -0.103,0.886 -0.138,1.483 0.074,0.018 0.111,0.027 0.186,0.043 0.243,-0.548 0.355,-0.826 0.56,-1.386 0.023,-0.002 0.034,-0.004 0.057,-0.007 0.015,-0.08 0.023,-0.119 0.038,-0.199 -0.1,-0.018 -0.149,-0.028 -0.249,-0.049 -0.018,0.079 -0.027,0.119 -0.045,0.198 0.019,0.012 0.029,0.019 0.048,0.031 -0.033,0.088 -0.05,0.132 -0.085,0.22 -0.1,-0.022 -0.151,-0.034 -0.251,-0.058 0.011,-0.094 0.016,-0.14 0.027,-0.233 0.023,-0.003 0.034,-0.004 0.057,-0.007 0.02,-0.079 0.031,-0.118 0.051,-0.197 -0.098,-0.024 -0.147,-0.038 -0.244,-0.065 -0.024,0.078 -0.036,0.116 -0.06,0.194"/><path id="path39" style="fill:#e6ad05;fill-opacity:1;fill-rule:nonzero;stroke:none" d="m 16.9966,24.7432 c -0.015,0.08 -0.021,0.12 -0.036,0.2 0.03,0.019 0.044,0.029 0.075,0.048 -0.081,0.478 -0.122,0.717 -0.202,1.195 -0.041,0.008 -0.061,0.012 -0.101,0.018 -0.015,0.081 -0.022,0.121 -0.036,0.202 0.039,0.006 0.058,0.009 0.097,0.016 0.075,0.011 0.112,0.017 0.186,0.027 0.039,0.005 0.059,0.008 0.099,0.013 l 0.027,-0.202 c -0.037,-0.019 -0.055,-0.028 -0.092,-0.047 0.069,-0.471 0.103,-0.707 0.171,-1.178 0.087,0.012 0.13,0.017 0.217,0.026 -0.007,0.085 -0.01,0.127 -0.016,0.212 0.048,0.005 0.072,0.008 0.121,0.012 0.018,-0.188 0.027,-0.282 0.045,-0.47 -0.223,-0.02 -0.334,-0.034 -0.555,-0.072"/><path id="path40" style="fill:#e6ad05;fill-opacity:1;fill-rule:nonzero;stroke:none" d="m 18.1479,26.5308 c 0,-0.18 0.001,-0.27 0.001,-0.45 -0.054,0 -0.081,0 -0.135,-0.001 -0.005,0.076 -0.007,0.113 -0.012,0.189 -0.066,-0.002 -0.099,-0.003 -0.166,-0.005 0.02,-0.476 0.031,-0.713 0.051,-1.189 0.033,-0.012 0.05,-0.019 0.083,-0.031 0.003,-0.082 0.004,-0.122 0.007,-0.203 -0.124,-0.004 -0.186,-0.007 -0.309,-0.016 -0.006,0.081 -0.009,0.122 -0.016,0.203 0.032,0.016 0.048,0.024 0.08,0.04 -0.031,0.474 -0.046,0.712 -0.077,1.187 -0.066,-0.004 -0.099,-0.007 -0.165,-0.012 0.004,-0.076 0.005,-0.113 0.009,-0.189 -0.054,-0.004 -0.08,-0.007 -0.134,-0.012 -0.019,0.179 -0.028,0.268 -0.047,0.447 0.331,0.033 0.497,0.041 0.83,0.042"/><path id="path41" style="fill:#e6ad05;fill-opacity:1;fill-rule:nonzero;stroke:none" d="m 18.207,26.3267 c 0,0.082 0,0.123 10e-4,0.204 0.155,0 0.232,-0.002 0.387,-0.01 -0.005,-0.081 -0.007,-0.122 -0.011,-0.203 -0.039,-0.012 -0.06,-0.018 -0.099,-0.031 -0.007,-0.194 -0.011,-0.292 -0.018,-0.486 0.138,-0.005 0.208,-0.01 0.346,-0.02 0.016,0.193 0.025,0.291 0.041,0.485 -0.038,0.017 -0.056,0.025 -0.094,0.041 0.006,0.082 0.009,0.123 0.014,0.204 0.04,-0.003 0.06,-0.004 0.1,-0.007 0.074,-0.006 0.111,-0.01 0.186,-0.017 0.039,-0.004 0.059,-0.006 0.099,-0.011 l -0.024,-0.202 c -0.041,-0.009 -0.061,-0.014 -0.101,-0.025 -0.052,-0.482 -0.077,-0.722 -0.129,-1.204 0.031,-0.017 0.047,-0.026 0.078,-0.044 -0.009,-0.08 -0.014,-0.121 -0.024,-0.201 -0.122,0.013 -0.184,0.019 -0.306,0.027 0.006,0.081 0.009,0.122 0.015,0.203 0.033,0.011 0.051,0.017 0.085,0.028 0.015,0.186 0.022,0.278 0.038,0.463 -0.133,0.01 -0.2,0.014 -0.334,0.019 -0.007,-0.186 -0.011,-0.278 -0.018,-0.463 0.033,-0.016 0.049,-0.023 0.08,-0.039 -0.003,-0.081 -0.005,-0.121 -0.009,-0.203 -0.123,0.006 -0.185,0.008 -0.308,0.008 0,0.082 0,0.122 0,0.203 0.033,0.014 0.049,0.021 0.082,0.034 0.008,0.485 0.012,0.727 0.019,1.212 -0.038,0.014 -0.057,0.021 -0.096,0.035"/><path id="path42" style="fill:#e6ad05;fill-opacity:1;fill-rule:nonzero;stroke:none" d="m 20.002,25.4893 c 0.042,0.169 0.06,0.312 0.048,0.426 -0.013,0.115 -0.056,0.181 -0.13,0.197 -0.075,0.015 -0.143,-0.027 -0.2,-0.127 -0.057,-0.099 -0.102,-0.236 -0.134,-0.409 -0.003,-0.011 -0.004,-0.016 -0.006,-0.027 -0.033,-0.175 -0.043,-0.319 -0.032,-0.432 0.012,-0.113 0.048,-0.175 0.111,-0.188 0.063,-0.013 0.123,0.029 0.183,0.127 0.057,0.098 0.109,0.233 0.153,0.406 0.002,0.011 0.004,0.016 0.007,0.027 m 0.155,-0.067 c -0.065,-0.24 -0.153,-0.428 -0.258,-0.569 -0.102,-0.141 -0.198,-0.202 -0.296,-0.181 -0.099,0.02 -0.162,0.114 -0.196,0.283 -0.033,0.17 -0.033,0.377 0.008,0.622 0.002,0.01 0.003,0.015 0.004,0.025 0.041,0.242 0.109,0.438 0.214,0.586 0.102,0.147 0.22,0.208 0.345,0.182 0.122,-0.026 0.204,-0.129 0.237,-0.304 0.033,-0.176 0.015,-0.383 -0.051,-0.62 -0.003,-0.01 -0.004,-0.015 -0.007,-0.024"/><path id="path43" style="fill:#e6ad05;fill-opacity:1;fill-rule:nonzero;stroke:none" d="m 20.0498,24.7988 c 0.035,0.005 0.053,0.007 0.089,0.012 0.138,0.465 0.207,0.698 0.346,1.163 -0.034,0.024 -0.05,0.036 -0.083,0.059 0.022,0.079 0.033,0.119 0.055,0.197 0.287,-0.077 0.429,-0.122 0.708,-0.224 -0.066,-0.174 -0.099,-0.261 -0.166,-0.434 -0.051,0.019 -0.076,0.028 -0.127,0.046 0.025,0.077 0.037,0.115 0.062,0.192 -0.113,0.039 -0.168,0.057 -0.281,0.092 -0.058,-0.177 -0.086,-0.266 -0.144,-0.443 0.114,-0.035 0.171,-0.054 0.284,-0.093 -0.036,-0.099 -0.054,-0.148 -0.09,-0.246 -0.109,0.038 -0.164,0.056 -0.274,0.09 -0.057,-0.177 -0.085,-0.266 -0.143,-0.443 0.029,-0.023 0.042,-0.034 0.069,-0.058 -0.026,-0.077 -0.038,-0.116 -0.065,-0.193 -0.117,0.038 -0.177,0.055 -0.296,0.087 0.023,0.079 0.034,0.118 0.056,0.196"/><path id="path44" style="fill:#e6ad05;fill-opacity:1;fill-rule:nonzero;stroke:none" d="m 20.9297,24.4971 c 0.035,0 0.054,0 0.089,0 0.201,0.443 0.302,0.665 0.502,1.108 -0.029,0.028 -0.045,0.042 -0.075,0.07 l 0.083,0.188 c 0.14,-0.06 0.211,-0.091 0.349,-0.157 -0.036,-0.074 -0.054,-0.11 -0.091,-0.184 -0.04,0.004 -0.06,0.005 -0.1,0.009 -0.078,-0.164 -0.117,-0.245 -0.196,-0.409 l 0.068,-0.032 c 0.143,0.142 0.218,0.212 0.368,0.348 -0.017,0.015 -0.025,0.022 -0.042,0.037 0.037,0.073 0.056,0.109 0.093,0.183 0.133,-0.066 0.199,-0.1 0.329,-0.172 -0.04,-0.072 -0.061,-0.107 -0.102,-0.178 -0.04,0.008 -0.06,0.012 -0.101,0.019 -0.188,-0.153 -0.278,-0.231 -0.455,-0.392 -0.039,-0.28 -0.063,-0.418 -0.118,-0.693 0.022,-0.025 0.033,-0.037 0.054,-0.063 -0.041,-0.071 -0.06,-0.106 -0.101,-0.177 -0.105,0.058 -0.158,0.085 -0.263,0.138 0.037,0.072 0.056,0.109 0.093,0.182 0.019,-0.004 0.029,-0.006 0.05,-0.01 0.038,0.201 0.054,0.302 0.085,0.505 -0.035,0.016 -0.051,0.024 -0.085,0.039 -0.081,-0.169 -0.122,-0.254 -0.204,-0.422 0.024,-0.026 0.035,-0.04 0.057,-0.065 -0.036,-0.074 -0.054,-0.11 -0.09,-0.184 -0.111,0.053 -0.167,0.078 -0.279,0.125 0.033,0.075 0.049,0.112 0.082,0.187"/><path id="path45" style="fill:#e6ad05;fill-opacity:1;fill-rule:nonzero;stroke:none" d="m 22.3564,24.3433 c -0.095,0.063 -0.143,0.094 -0.239,0.153 -0.103,-0.164 -0.155,-0.247 -0.258,-0.411 0.086,-0.053 0.129,-0.08 0.214,-0.137 0.048,0.066 0.071,0.099 0.119,0.165 0.041,-0.027 0.061,-0.041 0.102,-0.069 -0.108,-0.152 -0.162,-0.228 -0.268,-0.379 -0.196,0.136 -0.298,0.199 -0.504,0.315 0.041,0.071 0.062,0.106 0.103,0.176 0.035,-0.003 0.052,-0.005 0.088,-0.01 0.25,0.419 0.374,0.628 0.624,1.047 -0.026,0.031 -0.04,0.046 -0.066,0.078 0.041,0.071 0.062,0.106 0.103,0.177 0.035,-0.02 0.051,-0.029 0.086,-0.049 0.223,-0.129 0.332,-0.198 0.544,-0.346 -0.107,-0.152 -0.161,-0.228 -0.268,-0.38 -0.045,0.031 -0.068,0.047 -0.113,0.077 0.043,0.069 0.064,0.103 0.107,0.173 -0.098,0.065 -0.147,0.096 -0.247,0.157 -0.091,-0.145 -0.136,-0.217 -0.227,-0.362 0.101,-0.061 0.15,-0.093 0.248,-0.158 -0.059,-0.087 -0.088,-0.13 -0.148,-0.217"/><path id="path46" style="fill:#e6ad05;fill-opacity:1;fill-rule:nonzero;stroke:none" d="m 23.8477,24.3799 c -0.056,-0.061 -0.084,-0.09 -0.14,-0.151 -0.039,0.017 -0.058,0.026 -0.098,0.042 -0.39,-0.435 -0.584,-0.652 -0.975,-1.087 -0.045,0.041 -0.068,0.061 -0.115,0.101 0.205,0.427 0.298,0.647 0.467,1.095 l -0.005,0.002 c -0.222,-0.285 -0.333,-0.428 -0.555,-0.713 0.018,-0.032 0.026,-0.048 0.045,-0.08 -0.052,-0.063 -0.077,-0.096 -0.128,-0.159 -0.099,0.077 -0.149,0.116 -0.251,0.188 0.048,0.066 0.072,0.099 0.12,0.166 0.035,-0.008 0.053,-0.012 0.088,-0.021 l 0.728,0.979 -0.059,0.086 c 0.048,0.066 0.072,0.099 0.12,0.166 0.033,-0.023 0.049,-0.035 0.082,-0.059 0.061,-0.045 0.092,-0.068 0.153,-0.114 -0.161,-0.455 -0.249,-0.678 -0.446,-1.112 l 0.004,-0.001 c 0.235,0.274 0.352,0.411 0.587,0.686 l -0.054,0.09 c 0.053,0.063 0.079,0.094 0.132,0.158 0.091,-0.075 0.135,-0.114 0.223,-0.192 0.031,-0.028 0.046,-0.042 0.077,-0.07"/><path id="path47" style="fill:#e6ad05;fill-opacity:1;fill-rule:nonzero;stroke:none" d="m 24.4834,23.7222 c -0.136,-0.119 -0.204,-0.179 -0.341,-0.298 -0.037,0.043 -0.055,0.065 -0.094,0.107 0.055,0.053 0.082,0.08 0.136,0.133 -0.046,0.052 -0.069,0.078 -0.116,0.128 -0.349,-0.33 -0.522,-0.494 -0.87,-0.823 0.014,-0.035 0.019,-0.053 0.032,-0.087 -0.059,-0.056 -0.09,-0.083 -0.15,-0.139 -0.087,0.095 -0.131,0.142 -0.222,0.231 0.057,0.059 0.086,0.088 0.144,0.146 0.034,-0.014 0.05,-0.021 0.085,-0.036 0.339,0.338 0.51,0.506 0.85,0.844 -0.049,0.049 -0.073,0.073 -0.123,0.122 -0.055,-0.054 -0.082,-0.08 -0.137,-0.133 -0.04,0.039 -0.06,0.058 -0.1,0.096 0.123,0.133 0.184,0.199 0.308,0.332 0.25,-0.234 0.37,-0.358 0.598,-0.623"/><path id="path48" style="fill:#e6ad05;fill-opacity:1;fill-rule:nonzero;stroke:none" d="m 24.7744,23.3628 c -0.064,-0.05 -0.098,-0.076 -0.162,-0.126 -0.036,0.024 -0.054,0.036 -0.09,0.059 -0.276,-0.222 -0.415,-0.332 -0.692,-0.554 -0.087,-0.07 -0.145,-0.134 -0.17,-0.191 -0.025,-0.058 -0.024,-0.106 0.008,-0.148 0.03,-0.041 0.076,-0.058 0.138,-0.049 0.061,0.008 0.138,0.046 0.229,0.113 0.287,0.208 0.43,0.312 0.717,0.52 -0.012,0.042 -0.019,0.063 -0.032,0.105 0.066,0.048 0.099,0.073 0.164,0.122 0.098,-0.134 0.145,-0.203 0.236,-0.343 -0.068,-0.046 -0.102,-0.069 -0.17,-0.114 -0.034,0.027 -0.052,0.041 -0.086,0.067 -0.292,-0.201 -0.438,-0.301 -0.73,-0.503 -0.157,-0.108 -0.296,-0.164 -0.414,-0.174 -0.119,-0.01 -0.204,0.022 -0.26,0.098 -0.057,0.076 -0.063,0.167 -0.02,0.278 0.044,0.111 0.136,0.231 0.282,0.354 0.272,0.228 0.407,0.342 0.679,0.57 -0.016,0.041 -0.023,0.061 -0.039,0.101 0.062,0.053 0.094,0.08 0.155,0.134 0.028,-0.032 0.041,-0.048 0.068,-0.08 0.05,-0.062 0.076,-0.093 0.125,-0.156 0.026,-0.033 0.039,-0.049 0.064,-0.083"/><path id="path49" style="fill:#e6ad05;fill-opacity:1;fill-rule:nonzero;stroke:none" d="m 25.0615,21.8237 c -0.026,0.052 -0.039,0.077 -0.065,0.128 0.075,0.051 0.112,0.076 0.187,0.127 0.021,0.033 0.031,0.069 0.034,0.105 0.003,0.035 -0.005,0.071 -0.025,0.107 -0.043,0.076 -0.122,0.106 -0.237,0.09 -0.115,-0.017 -0.244,-0.073 -0.39,-0.165 -0.021,-0.013 -0.03,-0.019 -0.051,-0.032 -0.145,-0.091 -0.254,-0.183 -0.325,-0.274 -0.071,-0.092 -0.09,-0.166 -0.055,-0.23 0.017,-0.029 0.04,-0.052 0.07,-0.066 0.03,-0.016 0.064,-0.022 0.1,-0.02 0.083,0.037 0.124,0.056 0.207,0.093 0.025,-0.048 0.036,-0.071 0.061,-0.119 -0.119,-0.062 -0.178,-0.094 -0.297,-0.156 -0.086,-0.006 -0.16,0.003 -0.226,0.026 -0.065,0.024 -0.113,0.063 -0.144,0.119 -0.054,0.096 -0.032,0.212 0.063,0.358 0.096,0.146 0.244,0.288 0.45,0.425 0.02,0.012 0.029,0.019 0.048,0.031 0.205,0.136 0.396,0.215 0.574,0.228 0.177,0.014 0.303,-0.043 0.371,-0.164 0.04,-0.07 0.053,-0.146 0.042,-0.226 -0.013,-0.079 -0.044,-0.156 -0.095,-0.229 -0.119,-0.063 -0.179,-0.094 -0.297,-0.156"/><path id="path50" style="fill:#e6ad05;fill-opacity:1;fill-rule:nonzero;stroke:none" d="m 24.2832,21.3247 c 0.028,-0.027 0.043,-0.04 0.071,-0.067 0.436,0.214 0.654,0.321 1.09,0.536 -0.006,0.046 -0.01,0.069 -0.015,0.114 0.072,0.037 0.109,0.056 0.181,0.093 0.075,-0.155 0.111,-0.234 0.18,-0.395 -0.074,-0.033 -0.112,-0.05 -0.187,-0.083 -0.029,0.034 -0.044,0.051 -0.074,0.084 -0.164,-0.076 -0.246,-0.114 -0.41,-0.19 0.014,-0.031 0.02,-0.047 0.033,-0.078 0.203,0.007 0.305,0.009 0.509,0.007 -0.004,0.025 -0.006,0.038 -0.01,0.062 0.075,0.033 0.112,0.049 0.188,0.081 0.064,-0.158 0.094,-0.238 0.152,-0.402 -0.077,-0.028 -0.115,-0.042 -0.191,-0.07 -0.028,0.039 -0.041,0.058 -0.069,0.097 -0.243,0.018 -0.364,0.024 -0.604,0.026 -0.206,-0.203 -0.312,-0.301 -0.528,-0.489 0.001,-0.038 0.002,-0.057 0.003,-0.096 -0.076,-0.028 -0.114,-0.042 -0.19,-0.069 -0.046,0.131 -0.07,0.195 -0.121,0.322 0.074,0.032 0.112,0.047 0.186,0.079 0.014,-0.018 0.021,-0.027 0.034,-0.046 0.156,0.138 0.232,0.209 0.383,0.355 -0.016,0.04 -0.025,0.059 -0.042,0.098 -0.171,-0.078 -0.256,-0.117 -0.425,-0.196 0.002,-0.039 0.002,-0.059 0.003,-0.097 l -0.185,-0.083 c -0.055,0.128 -0.083,0.191 -0.144,0.315 0.074,0.036 0.11,0.055 0.182,0.092"/><path id="path51" style="fill:#e6ad05;fill-opacity:1;fill-rule:nonzero;stroke:none" d="m 25.9473,20.5566 c -0.018,0.032 -0.026,0.047 -0.044,0.078 -0.192,-0.131 -0.289,-0.194 -0.485,-0.317 0.001,-10e-4 0.001,-0.002 0.001,-0.004 0.23,10e-4 0.345,-0.001 0.577,-0.01 -0.001,0.036 -0.002,0.054 -0.004,0.09 0.079,0.022 0.118,0.034 0.197,0.056 0.045,-0.166 0.066,-0.25 0.104,-0.421 -0.079,-0.018 -0.119,-0.027 -0.2,-0.045 -0.017,0.036 -0.026,0.054 -0.043,0.089 -0.366,0.039 -0.547,0.051 -0.91,0.063 -0.137,-0.038 -0.206,-0.057 -0.343,-0.095 -0.003,-0.042 -0.005,-0.063 -0.008,-0.106 -0.079,-0.02 -0.118,-0.03 -0.197,-0.051 -0.038,0.146 -0.057,0.217 -0.101,0.358 0.078,0.024 0.116,0.037 0.194,0.062 0.025,-0.033 0.036,-0.05 0.061,-0.083 0.143,0.043 0.215,0.065 0.357,0.108 0.296,0.2 0.442,0.305 0.728,0.524 -0.003,0.038 -0.005,0.058 -0.008,0.095 0.077,0.027 0.115,0.041 0.192,0.069 0.054,-0.158 0.079,-0.238 0.127,-0.401 -0.078,-0.023 -0.117,-0.036 -0.195,-0.059"/><path id="path52" style="fill:#e6ad05;fill-opacity:1;fill-rule:nonzero;stroke:none" d="m 23.5947,18.3677 c 0,2.989 -2.423,5.413 -5.413,5.413 -2.989,0 -5.412,-2.424 -5.412,-5.413 0,-2.99 2.423,-5.413 5.412,-5.413 2.99,0 5.413,2.423 5.413,5.413"/><path id="path53" style="fill:#ffffff;fill-opacity:1;fill-rule:nonzero;stroke:none" d="m 23.4131,18.3677 c 0,2.889 -2.342,5.23 -5.231,5.23 -2.889,0 -5.23,-2.341 -5.23,-5.23 0,-2.889 2.341,-5.231 5.23,-5.231 2.889,0 5.231,2.342 5.231,5.231"/><path id="path54" style="fill:#2b3636;fill-opacity:1;fill-rule:nonzero;stroke:none" d="m 20.006,21.1 -1.518,0 0,-6.271 1.518,0 0,6.271 z"/><path id="path55" style="fill:#fbd9e1;fill-opacity:1;fill-rule:nonzero;stroke:none" d="m 18.488,22.3 1.518,0 0,-1.2 -1.518,0 0,1.2 z"/><path id="path56" style="fill:#d88f28;fill-opacity:1;fill-rule:nonzero;stroke:none" d="m 16.358,21.1 1.518,0 0,-6.271 -1.518,0 0,6.271 z"/><path id="path57" style="fill:#fbd9e1;fill-opacity:1;fill-rule:nonzero;stroke:none" d="m 17.876,22.3 -1.518,0 0,-1.2 1.518,0 0,1.2 z"/><path id="path58" style="fill:#396d4b;fill-opacity:1;fill-rule:nonzero;stroke:none" d="m 18.3394,10.8682 c 0,0 0.486,0.268 0.828,0.608 0.34,0.341 0.654,1.075 0.654,1.075 0,0 -0.643,-0.584 -0.937,-0.906 -0.295,-0.322 -0.545,-0.777 -0.545,-0.777"/><path id="path59" style="fill:#396d4b;fill-opacity:1;fill-rule:nonzero;stroke:none" d="m 19.0479,10.8486 c 0,0 0.447,0.328 0.741,0.711 0.293,0.383 0.508,1.151 0.508,1.151 0,0 -0.561,-0.663 -0.811,-1.02 -0.249,-0.358 -0.438,-0.842 -0.438,-0.842"/><path id="path60" style="fill:#396d4b;fill-opacity:1;fill-rule:nonzero;stroke:none" d="m 19.5977,11.0312 c 0,0 0.521,0.19 0.909,0.476 0.389,0.286 0.81,0.963 0.81,0.963 0,0 -0.724,-0.48 -1.064,-0.753 -0.339,-0.275 -0.655,-0.686 -0.655,-0.686"/><path id="path61" style="fill:#396d4b;fill-opacity:1;fill-rule:nonzero;stroke:none" d="m 20.7588,11.2959 c 0,0 0.37,0.413 0.579,0.848 0.208,0.435 0.26,1.231 0.26,1.231 0,0 -0.412,-0.765 -0.583,-1.166 -0.17,-0.401 -0.256,-0.913 -0.256,-0.913"/><path id="path62" style="fill:#396d4b;fill-opacity:1;fill-rule:nonzero;stroke:none" d="m 21.6055,11.6133 c 0,0 0.26,0.49 0.357,0.963 0.098,0.473 -0.043,1.258 -0.043,1.258 0,0 -0.215,-0.842 -0.285,-1.273 -0.069,-0.43 -0.029,-0.948 -0.029,-0.948"/><path id="path63" style="fill:#396d4b;fill-opacity:1;fill-rule:nonzero;stroke:none" d="m 21.9609,11.9121 c 0,0 0.291,0.472 0.42,0.937 0.128,0.465 0.039,1.258 0.039,1.258 0,0 -0.272,-0.826 -0.368,-1.251 -0.097,-0.424 -0.091,-0.944 -0.091,-0.944"/><path id="path64" style="fill:#396d4b;fill-opacity:1;fill-rule:nonzero;stroke:none" d="m 22.9512,12.2969 c 0,0 0.17,0.528 0.184,1.011 0.012,0.482 -0.263,1.23 -0.263,1.23 0,0 -0.067,-0.866 -0.059,-1.303 0.008,-0.435 0.138,-0.938 0.138,-0.938"/><path id="path65" style="fill:#396d4b;fill-opacity:1;fill-rule:nonzero;stroke:none" d="m 22.1113,12.0723 c 0,0 0.299,-0.467 0.663,-0.784 0.363,-0.318 1.116,-0.58 1.116,-0.58 0,0 -0.627,0.601 -0.967,0.873 -0.341,0.271 -0.812,0.491 -0.812,0.491"/><path id="path66" style="fill:#396d4b;fill-opacity:1;fill-rule:nonzero;stroke:none" d="m 21.3135,11.666 c 0,0 0.442,-0.334 0.894,-0.505 0.451,-0.172 1.249,-0.156 1.249,-0.156 0,0 -0.797,0.347 -1.211,0.482 -0.414,0.137 -0.932,0.179 -0.932,0.179"/><path id="path67" style="fill:#396d4b;fill-opacity:1;fill-rule:nonzero;stroke:none" d="m 20.4893,11.1904 c 0,0 0.482,-0.275 0.951,-0.388 0.469,-0.113 1.258,0.003 1.258,0.003 0,0 -0.834,0.243 -1.262,0.325 -0.427,0.083 -0.947,0.06 -0.947,0.06"/><path id="path68" style="fill:#396d4b;fill-opacity:1;fill-rule:nonzero;stroke:none" d="m 19.9727,11.0674 c 0,0 0.422,-0.36 0.861,-0.559 0.44,-0.199 1.237,-0.233 1.237,-0.233 0,0 -0.774,0.396 -1.179,0.557 -0.404,0.161 -0.919,0.235 -0.919,0.235"/><path id="path69" style="fill:#396d4b;fill-opacity:1;fill-rule:nonzero;stroke:none" d="m 19.2109,10.8486 c 0,0 0.228,-0.506 0.541,-0.872 0.313,-0.367 1.02,-0.737 1.02,-0.737 0,0 -0.533,0.686 -0.83,1.005 -0.297,0.318 -0.731,0.604 -0.731,0.604"/><path id="path70" style="fill:#396d4b;fill-opacity:1;fill-rule:nonzero;stroke:none" d="m 18.7285,10.6875 c 0,0 -0.062,-0.069 -0.461,-0.281 -0.4,-0.212 -0.694,-0.318 -0.694,-0.318 0,0 0.329,0.212 0.643,0.384 0.314,0.173 0.512,0.215 0.512,0.215"/><path id="path71" style="fill:#edb200;fill-opacity:1;fill-rule:nonzero;stroke:none" d="m 23.626,13.418 c 0,0 0.105,0.485 0.035,0.769 -0.071,0.282 -0.266,0.646 -0.266,0.646 0,0 -0.021,-0.498 0.019,-0.761 0.039,-0.262 0.212,-0.654 0.212,-0.654"/><path id="path72" style="fill:#edb200;fill-opacity:1;fill-rule:nonzero;stroke:none" d="m 24.9785,12.7178 c 0,0 -0.368,0.335 -0.647,0.416 -0.281,0.08 -0.694,0.093 -0.694,0.093 0,0 0.421,-0.267 0.668,-0.364 0.247,-0.098 0.673,-0.145 0.673,-0.145"/><path id="path73" style="fill:#edb200;fill-opacity:1;fill-rule:nonzero;stroke:none" d="m 25.3691,13.293 c 0,0 -0.391,0.31 -0.675,0.37 -0.285,0.061 -0.699,0.045 -0.699,0.045 0,0 0.439,-0.236 0.692,-0.316 0.253,-0.081 0.682,-0.099 0.682,-0.099"/><path id="path74" style="fill:#edb200;fill-opacity:1;fill-rule:nonzero;stroke:none" d="m 24.165,14.1074 c 0,0 -0.016,0.498 -0.152,0.755 -0.137,0.257 -0.416,0.562 -0.416,0.562 0,0 0.101,-0.488 0.204,-0.733 0.101,-0.245 0.364,-0.584 0.364,-0.584"/><path id="path75" style="fill:#edb200;fill-opacity:1;fill-rule:nonzero;stroke:none" d="m 25.9551,14.0762 c 0,0 -0.371,0.333 -0.651,0.411 -0.281,0.078 -0.695,0.088 -0.695,0.088 0,0 0.424,-0.264 0.671,-0.359 0.248,-0.096 0.675,-0.14 0.675,-0.14"/><path id="path76" style="fill:#edb200;fill-opacity:1;fill-rule:nonzero;stroke:none" d="m 26.3271,15.4102 c 0,0 -0.482,0.119 -0.767,0.057 -0.284,-0.063 -0.655,-0.248 -0.655,-0.248 0,0 0.498,-0.035 0.762,-0.002 0.264,0.031 0.66,0.193 0.66,0.193"/><path id="path77" style="fill:#edb200;fill-opacity:1;fill-rule:nonzero;stroke:none" d="m 24.666,14.9248 c 0,0 -0.047,0.495 -0.2,0.743 -0.154,0.247 -0.451,0.535 -0.451,0.535 0,0 0.132,-0.48 0.25,-0.718 0.117,-0.239 0.401,-0.56 0.401,-0.56"/><path id="path78" style="fill:#edb200;fill-opacity:1;fill-rule:nonzero;stroke:none" d="m 24.9121,15.3486 c 0,0 0.013,0.497 -0.11,0.761 -0.122,0.264 -0.384,0.586 -0.384,0.586 0,0 0.074,-0.493 0.163,-0.744 0.088,-0.25 0.331,-0.603 0.331,-0.603"/><path id="path79" style="fill:#edb200;fill-opacity:1;fill-rule:nonzero;stroke:none" d="m 26.5693,16.1836 c 0,0 -0.485,0.112 -0.769,0.046 -0.283,-0.067 -0.65,-0.258 -0.65,-0.258 0,0 0.497,-0.026 0.761,0.01 0.263,0.035 0.658,0.202 0.658,0.202"/><path id="path80" style="fill:#edb200;fill-opacity:1;fill-rule:nonzero;stroke:none" d="m 25.2559,16.4316 c 0,0 -0.122,0.482 -0.311,0.704 -0.189,0.222 -0.527,0.461 -0.527,0.461 0,0 0.204,-0.455 0.357,-0.673 0.152,-0.218 0.481,-0.492 0.481,-0.492"/><path id="path81" style="fill:#edb200;fill-opacity:1;fill-rule:nonzero;stroke:none" d="m 26.5938,17.248 c 0,0 -0.496,0.047 -0.768,-0.057 -0.272,-0.104 -0.61,-0.342 -0.61,-0.342 0,0 0.496,0.04 0.753,0.11 0.256,0.07 0.625,0.289 0.625,0.289"/><path id="path82" style="fill:#edb200;fill-opacity:1;fill-rule:nonzero;stroke:none" d="m 25.3652,17.4795 c 0,0 -0.26,0.424 -0.506,0.58 -0.247,0.155 -0.64,0.283 -0.64,0.283 0,0 0.33,-0.373 0.54,-0.536 0.21,-0.163 0.606,-0.327 0.606,-0.327"/><path id="path83" style="fill:#edb200;fill-opacity:1;fill-rule:nonzero;stroke:none" d="m 26.8232,17.9731 c 0,0 -0.492,0.07 -0.77,-0.021 -0.276,-0.09 -0.626,-0.312 -0.626,-0.312 0,0 0.499,0.016 0.758,0.074 0.259,0.059 0.638,0.259 0.638,0.259"/><path id="path84" style="fill:#edb200;fill-opacity:1;fill-rule:nonzero;stroke:none" d="m 25.4619,19.1133 c 0,0 -0.204,-0.454 -0.194,-0.745 0.01,-0.291 0.127,-0.688 0.127,-0.688 0,0 0.123,0.483 0.138,0.748 0.016,0.265 -0.071,0.685 -0.071,0.685"/><path id="path85" style="fill:#396d4b;fill-opacity:1;fill-rule:nonzero;stroke:none" d="m 18.0254,10.8682 c 0,0 -0.486,0.268 -0.827,0.608 -0.341,0.341 -0.655,1.075 -0.655,1.075 0,0 0.643,-0.584 0.937,-0.906 0.294,-0.322 0.545,-0.777 0.545,-0.777"/><path id="path86" style="fill:#396d4b;fill-opacity:1;fill-rule:nonzero;stroke:none" d="m 17.3164,10.8486 c 0,0 -0.447,0.328 -0.74,0.711 -0.294,0.383 -0.509,1.151 -0.509,1.151 0,0 0.561,-0.663 0.811,-1.02 0.249,-0.358 0.438,-0.842 0.438,-0.842"/><path id="path87" style="fill:#396d4b;fill-opacity:1;fill-rule:nonzero;stroke:none" d="m 16.7671,11.0312 c 0,0 -0.521,0.19 -0.91,0.476 -0.388,0.286 -0.809,0.963 -0.809,0.963 0,0 0.724,-0.48 1.063,-0.753 0.34,-0.275 0.656,-0.686 0.656,-0.686"/><path id="path88" style="fill:#396d4b;fill-opacity:1;fill-rule:nonzero;stroke:none" d="m 15.6055,11.2959 c 0,0 -0.37,0.413 -0.578,0.848 -0.209,0.435 -0.26,1.231 -0.26,1.231 0,0 0.412,-0.765 0.582,-1.166 0.171,-0.401 0.256,-0.913 0.256,-0.913"/><path id="path89" style="fill:#396d4b;fill-opacity:1;fill-rule:nonzero;stroke:none" d="m 14.7588,11.6133 c 0,0 -0.26,0.49 -0.357,0.963 -0.098,0.473 0.043,1.258 0.043,1.258 0,0 0.216,-0.842 0.285,-1.273 0.069,-0.43 0.029,-0.948 0.029,-0.948"/><path id="path90" style="fill:#396d4b;fill-opacity:1;fill-rule:nonzero;stroke:none" d="m 14.4038,11.9121 c 0,0 -0.292,0.472 -0.419,0.937 -0.129,0.465 -0.04,1.258 -0.04,1.258 0,0 0.271,-0.826 0.368,-1.251 0.097,-0.424 0.091,-0.944 0.091,-0.944"/><path id="path91" style="fill:#396d4b;fill-opacity:1;fill-rule:nonzero;stroke:none" d="m 13.4136,12.2969 c 0,0 -0.17,0.528 -0.184,1.011 -0.013,0.482 0.264,1.23 0.264,1.23 0,0 0.065,-0.866 0.058,-1.303 -0.008,-0.435 -0.138,-0.938 -0.138,-0.938"/><path id="path92" style="fill:#396d4b;fill-opacity:1;fill-rule:nonzero;stroke:none" d="m 14.2529,12.0723 c 0,0 -0.299,-0.467 -0.662,-0.784 -0.364,-0.318 -1.117,-0.58 -1.117,-0.58 0,0 0.627,0.601 0.967,0.873 0.341,0.271 0.812,0.491 0.812,0.491"/><path id="path93" style="fill:#396d4b;fill-opacity:1;fill-rule:nonzero;stroke:none" d="m 15.0518,11.666 c 0,0 -0.443,-0.334 -0.894,-0.505 -0.451,-0.172 -1.249,-0.156 -1.249,-0.156 0,0 0.797,0.347 1.211,0.482 0.414,0.137 0.932,0.179 0.932,0.179"/><path id="path94" style="fill:#396d4b;fill-opacity:1;fill-rule:nonzero;stroke:none" d="m 15.875,11.1904 c 0,0 -0.481,-0.275 -0.951,-0.388 -0.469,-0.113 -1.258,0.003 -1.258,0.003 0,0 0.834,0.243 1.262,0.325 0.428,0.083 0.947,0.06 0.947,0.06"/><path id="path95" style="fill:#396d4b;fill-opacity:1;fill-rule:nonzero;stroke:none" d="m 16.3916,11.0674 c 0,0 -0.421,-0.36 -0.861,-0.559 -0.44,-0.199 -1.237,-0.233 -1.237,-0.233 0,0 0.774,0.396 1.179,0.557 0.405,0.161 0.919,0.235 0.919,0.235"/><path id="path96" style="fill:#396d4b;fill-opacity:1;fill-rule:nonzero;stroke:none" d="m 17.1538,10.8486 c 0,0 -0.228,-0.506 -0.541,-0.872 -0.313,-0.367 -1.02,-0.737 -1.02,-0.737 0,0 0.532,0.686 0.83,1.005 0.297,0.318 0.731,0.604 0.731,0.604"/><path id="path97" style="fill:#396d4b;fill-opacity:1;fill-rule:nonzero;stroke:none" d="m 17.6367,10.6875 c 0,0 0.061,-0.069 0.461,-0.281 0.4,-0.212 0.693,-0.318 0.693,-0.318 0,0 -0.328,0.212 -0.642,0.384 -0.314,0.173 -0.512,0.215 -0.512,0.215"/><path id="path98" style="fill:#edb200;fill-opacity:1;fill-rule:nonzero;stroke:none" d="m 12.7393,13.418 c 0,0 -0.106,0.485 -0.035,0.769 0.07,0.282 0.266,0.646 0.266,0.646 0,0 0.02,-0.498 -0.019,-0.761 -0.04,-0.262 -0.212,-0.654 -0.212,-0.654"/><path id="path99" style="fill:#edb200;fill-opacity:1;fill-rule:nonzero;stroke:none" d="m 11.3862,12.7178 c 0,0 0.368,0.335 0.647,0.416 0.28,0.08 0.694,0.093 0.694,0.093 0,0 -0.421,-0.267 -0.668,-0.364 -0.247,-0.098 -0.673,-0.145 -0.673,-0.145"/><path id="path00" style="fill:#edb200;fill-opacity:1;fill-rule:nonzero;stroke:none" d="m 10.9961,13.293 c 0,0 0.39,0.31 0.675,0.37 0.284,0.061 0.698,0.045 0.698,0.045 0,0 -0.438,-0.236 -0.692,-0.316 -0.253,-0.081 -0.681,-0.099 -0.681,-0.099"/><path id="path01" style="fill:#edb200;fill-opacity:1;fill-rule:nonzero;stroke:none" d="m 12.1997,14.1074 c 0,0 0.016,0.498 0.152,0.755 0.138,0.257 0.416,0.562 0.416,0.562 0,0 -0.102,-0.488 -0.203,-0.733 -0.102,-0.245 -0.365,-0.584 -0.365,-0.584"/><path id="path02" style="fill:#edb200;fill-opacity:1;fill-rule:nonzero;stroke:none" d="m 10.4102,14.0762 c 0,0 0.37,0.333 0.65,0.411 0.281,0.078 0.695,0.088 0.695,0.088 0,0 -0.423,-0.264 -0.671,-0.359 -0.248,-0.096 -0.674,-0.14 -0.674,-0.14"/><path id="path03" style="fill:#edb200;fill-opacity:1;fill-rule:nonzero;stroke:none" d="m 10.0371,15.4102 c 0,0 0.483,0.119 0.768,0.057 0.284,-0.063 0.654,-0.248 0.654,-0.248 0,0 -0.498,-0.035 -0.761,-0.002 -0.264,0.031 -0.661,0.193 -0.661,0.193"/><path id="path04" style="fill:#edb200;fill-opacity:1;fill-rule:nonzero;stroke:none" d="m 11.6987,14.9248 c 0,0 0.047,0.495 0.2,0.743 0.154,0.247 0.451,0.535 0.451,0.535 0,0 -0.133,-0.48 -0.25,-0.718 -0.117,-0.239 -0.401,-0.56 -0.401,-0.56"/><path id="path05" style="fill:#edb200;fill-opacity:1;fill-rule:nonzero;stroke:none" d="m 11.4526,15.3486 c 0,0 -0.012,0.497 0.11,0.761 0.123,0.264 0.384,0.586 0.384,0.586 0,0 -0.075,-0.493 -0.162,-0.744 -0.089,-0.25 -0.332,-0.603 -0.332,-0.603"/><path id="path06" style="fill:#edb200;fill-opacity:1;fill-rule:nonzero;stroke:none" d="m 9.7954,16.1836 c 0,0 0.485,0.112 0.768,0.046 0.284,-0.067 0.651,-0.258 0.651,-0.258 0,0 -0.498,-0.026 -0.761,0.01 -0.263,0.035 -0.658,0.202 -0.658,0.202"/><path id="path07" style="fill:#edb200;fill-opacity:1;fill-rule:nonzero;stroke:none" d="m 11.1089,16.4316 c 0,0 0.122,0.482 0.311,0.704 0.189,0.222 0.527,0.461 0.527,0.461 0,0 -0.204,-0.455 -0.357,-0.673 -0.151,-0.218 -0.481,-0.492 -0.481,-0.492"/><path id="path08" style="fill:#edb200;fill-opacity:1;fill-rule:nonzero;stroke:none" d="m 9.7715,17.248 c 0,0 0.495,0.047 0.767,-0.057 0.272,-0.104 0.611,-0.342 0.611,-0.342 0,0 -0.497,0.04 -0.753,0.11 -0.256,0.07 -0.625,0.289 -0.625,0.289"/><path id="path09" style="fill:#edb200;fill-opacity:1;fill-rule:nonzero;stroke:none" d="m 11,17.4795 c 0,0 0.26,0.424 0.506,0.58 0.246,0.155 0.64,0.283 0.64,0.283 0,0 -0.33,-0.373 -0.54,-0.536 C 11.396,17.6435 11,17.4795 11,17.4795"/><path id="path10" style="fill:#edb200;fill-opacity:1;fill-rule:nonzero;stroke:none" d="m 9.5415,17.9731 c 0,0 0.493,0.07 0.769,-0.021 0.276,-0.09 0.626,-0.312 0.626,-0.312 0,0 -0.498,0.016 -0.757,0.074 -0.259,0.059 -0.638,0.259 -0.638,0.259"/><path id="path11" style="fill:#edb200;fill-opacity:1;fill-rule:nonzero;stroke:none" d="m 10.9028,19.1133 c 0,0 0.205,-0.454 0.194,-0.745 -0.011,-0.291 -0.127,-0.688 -0.127,-0.688 0,0 -0.122,0.483 -0.138,0.748 -0.016,0.265 0.071,0.685 0.071,0.685"/></g></g></g></g></svg>