<svg xmlns:dc="http://purl.org/dc/elements/1.1/" xmlns:cc="http://creativecommons.org/ns#" xmlns:rdf="http://www.w3.org/1999/02/22-rdf-syntax-ns#" xmlns:svg="http://www.w3.org/2000/svg" xmlns="http://www.w3.org/2000/svg" viewBox="0 0 45 45" style="enable-background:new 0 0 45 45;" xml:space="preserve" version="1.1" id="svg2"><metadata id="metadata8"><rdf:RDF><cc:Work rdf:about=""><dc:format>image/svg+xml</dc:format><dc:type rdf:resource="http://purl.org/dc/dcmitype/StillImage"/></cc:Work></rdf:RDF></metadata><defs id="defs6"><clipPath id="clipPath16" clipPathUnits="userSpaceOnUse"><path id="path18" d="M 0,36 36,36 36,0 0,0 0,36 Z"/></clipPath></defs><g transform="matrix(1.25,0,0,-1.25,0,45)" id="g10"><g id="g12"><g xmlns="http://www.w3.org/2000/svg" clip-path="url(#clipPath16)" id="g14"><g id="g30"><path id="path20" style="fill:#002569;fill-opacity:1;fill-rule:nonzero;stroke:none" d="m 32,5 c 2.209,0 4,1.791 4,4 l 0,18 c 0,2.209 -1.791,4 -4,4 L 4,31 C 1.791,31 0,29.209 0,27 L 0,9 C 0,6.791 1.791,5 4,5 l 28,0 z"/></g><g id="g34"><path id="path30" style="fill:#f1ad02;fill-opacity:1;fill-rule:nonzero;stroke:none" d="m 10.9014,7.8066 -0.269,-0.381 0,-0.927 -0.656,0 0,3.514 0.656,0 0,-1.55 0.228,0.448 0.587,1.102 0.811,0 -0.92,-1.555 0.92,-1.959 -0.777,0 -0.58,1.308 z"/><path id="path31" style="fill:#f1ad02;fill-opacity:1;fill-rule:nonzero;stroke:none" d="m 13.4736,7.8096 0.585,0 -0.293,1.219 -0.292,-1.219 z m 0.742,-0.654 -0.899,0 -0.157,-0.657 -0.701,0 0.998,3.514 0.617,0 1.006,-3.514 -0.705,0 -0.159,0.657 z"/><path id="path32" style="fill:#f1ad02;fill-opacity:1;fill-rule:nonzero;stroke:none" d="m 17.7954,6.499 -0.652,0 -0.965,2.187 0,-2.187 -0.656,0 0,3.514 0.656,0 0.963,-2.187 0,2.187 0.654,0 0,-3.514 z"/><path id="path33" style="fill:#f1ad02;fill-opacity:1;fill-rule:nonzero;stroke:none" d="m 19.8594,7.4326 c 0,0.124 -0.033,0.221 -0.102,0.29 -0.068,0.069 -0.187,0.141 -0.357,0.215 -0.171,0.073 -0.311,0.145 -0.419,0.215 -0.352,0.223 -0.529,0.53 -0.529,0.922 0,0.194 0.044,0.366 0.132,0.514 0.088,0.149 0.213,0.265 0.373,0.348 0.16,0.083 0.341,0.124 0.543,0.124 0.195,0 0.371,-0.045 0.525,-0.135 0.154,-0.09 0.275,-0.219 0.361,-0.385 0.086,-0.167 0.129,-0.357 0.129,-0.571 l -0.654,0 c 0,0.144 -0.033,0.255 -0.102,0.333 -0.068,0.079 -0.16,0.118 -0.275,0.118 -0.117,0 -0.209,-0.033 -0.277,-0.099 -0.069,-0.068 -0.102,-0.152 -0.102,-0.255 0,-0.09 0.037,-0.172 0.111,-0.245 0.075,-0.074 0.207,-0.149 0.395,-0.227 0.187,-0.078 0.342,-0.162 0.463,-0.252 0.295,-0.219 0.441,-0.52 0.441,-0.905 0,-0.307 -0.09,-0.549 -0.269,-0.724 -0.178,-0.176 -0.424,-0.262 -0.739,-0.262 -0.22,0 -0.419,0.05 -0.597,0.152 -0.18,0.102 -0.315,0.242 -0.405,0.42 -0.09,0.178 -0.135,0.383 -0.135,0.614 l 0.658,0 c 0,-0.187 0.038,-0.327 0.112,-0.416 0.076,-0.089 0.199,-0.134 0.367,-0.134 0.11,0 0.196,0.031 0.258,0.091 0.063,0.06 0.094,0.145 0.094,0.254"/><path id="path34" style="fill:#f1ad02;fill-opacity:1;fill-rule:nonzero;stroke:none" d="m 21.9014,7.8096 0.585,0 -0.294,1.219 -0.291,-1.219 z m 0.742,-0.654 -0.899,0 -0.157,-0.657 -0.702,0 0.998,3.514 0.618,0 1.005,-3.514 -0.705,0 -0.158,0.657 z"/><path id="path35" style="fill:#f1ad02;fill-opacity:1;fill-rule:nonzero;stroke:none" d="m 25.3535,7.4326 c 0,0.124 -0.034,0.221 -0.102,0.29 -0.068,0.069 -0.187,0.141 -0.358,0.215 -0.171,0.073 -0.311,0.145 -0.419,0.215 -0.352,0.223 -0.528,0.53 -0.528,0.922 0,0.194 0.044,0.366 0.132,0.514 0.088,0.149 0.212,0.265 0.373,0.348 0.16,0.083 0.34,0.124 0.542,0.124 0.195,0 0.371,-0.045 0.526,-0.135 0.154,-0.09 0.275,-0.219 0.361,-0.385 0.086,-0.167 0.129,-0.357 0.129,-0.571 l -0.654,0 c 0,0.144 -0.034,0.255 -0.102,0.333 -0.068,0.079 -0.16,0.118 -0.276,0.118 -0.117,0 -0.209,-0.033 -0.277,-0.099 -0.068,-0.068 -0.102,-0.152 -0.102,-0.255 0,-0.09 0.037,-0.172 0.112,-0.245 0.075,-0.074 0.206,-0.149 0.395,-0.227 0.187,-0.078 0.342,-0.162 0.463,-0.252 0.294,-0.219 0.441,-0.52 0.441,-0.905 0,-0.307 -0.09,-0.549 -0.269,-0.724 -0.179,-0.176 -0.425,-0.262 -0.739,-0.262 -0.22,0 -0.419,0.05 -0.598,0.152 -0.179,0.102 -0.314,0.242 -0.404,0.42 -0.09,0.178 -0.135,0.383 -0.135,0.614 l 0.657,0 c 0,-0.187 0.038,-0.327 0.113,-0.416 0.075,-0.089 0.198,-0.134 0.367,-0.134 0.109,0 0.195,0.031 0.257,0.091 0.064,0.06 0.095,0.145 0.095,0.254"/></g><g id="g38"><path id="path40" style="fill:#4fa8ff;fill-opacity:1;fill-rule:nonzero;stroke:none" d="m 19.8838,25.5703 0.412,-0.319 1.027,0 -0.412,0.319 -1.027,0 z"/><path id="path41" style="fill:#ffff00;fill-opacity:1;fill-rule:nonzero;stroke:none" d="m 18.8564,25.5703 0.412,-0.319 1.027,0 -0.412,0.319 -1.027,0 z"/><path id="path42" style="fill:#4fa8ff;fill-opacity:1;fill-rule:nonzero;stroke:none" d="m 17.8286,25.5703 0.412,-0.319 1.028,0 -0.412,0.319 -1.028,0 z"/><path id="path43" style="fill:#ffff00;fill-opacity:1;fill-rule:nonzero;stroke:none" d="m 16.8008,25.5703 0.413,-0.319 1.027,0 -0.412,0.319 -1.028,0 z"/><path id="path44" style="fill:#4fa8ff;fill-opacity:1;fill-rule:nonzero;stroke:none" d="m 15.7734,25.5703 0.413,-0.319 1.027,0 -0.413,0.319 -1.027,0 z"/><path id="path45" style="fill:#ffff00;fill-opacity:1;fill-rule:nonzero;stroke:none" d="m 14.7456,25.5703 0.413,-0.319 1.027,0 -0.412,0.319 -1.028,0 z"/><path id="path46" style="fill:#ffff00;fill-opacity:1;fill-rule:nonzero;stroke:none" d="m 18.4473,28.8706 0.541,0.659 0.012,-0.544 0.617,0.456 -0.185,-0.6 0.718,0.1 -0.509,-0.559 0.629,-0.136 -0.473,-0.355 0.435,-0.292 -0.441,-0.138 0.332,-0.359 -0.535,0 0.147,-0.418 -0.55,0.186 0.109,-0.468 -0.88,0.536 -0.367,-0.88 -0.094,0.376 -0.485,-0.476 -0.036,0.265 -0.318,-0.162 0,0.415 -0.414,-0.15 0.044,0.397 -0.715,0.023 0.539,0.454 -0.636,0.199 0.277,0.236 -0.277,0.097 0.253,0.202 -0.429,0.127 0.608,0.194 -0.456,0.271 0.58,0.12 -0.183,0.43 0.503,-0.129 -0.026,0.394 0.286,-0.236 0.049,0.391 0.333,-0.426 0.123,0.482 0.412,-0.626 0.435,0.626 0.027,-0.682 z"/><path id="path47" style="fill:#d15b25;fill-opacity:1;fill-rule:nonzero;stroke:none" d="m 19.0928,27.9443 c 0.028,-0.35 -0.418,-0.67 -0.995,-0.717 -0.577,-0.046 -1.068,0.2 -1.096,0.55 -0.029,0.35 0.417,0.67 0.995,0.717 0.577,0.046 1.068,-0.2 1.096,-0.55"/><path id="path48" style="fill:#ffffff;fill-opacity:1;fill-rule:nonzero;stroke:none" d="m 11.915,19.0698 c 0,3.387 2.746,6.132 6.132,6.132 3.387,0 6.133,-2.745 6.133,-6.132 0,-3.387 -2.746,-6.132 -6.133,-6.132 -3.386,0 -6.132,2.745 -6.132,6.132"/><path id="path49" style="fill:#f1ad02;fill-opacity:1;fill-rule:nonzero;stroke:none" d="m 12.5195,19.0698 c 0,3.053 2.475,5.527 5.528,5.527 3.052,0 5.527,-2.474 5.527,-5.527 0,-3.053 -2.475,-5.528 -5.527,-5.528 -3.053,0 -5.528,2.475 -5.528,5.528"/><path id="path50" style="fill:#d15b25;fill-opacity:1;fill-rule:nonzero;stroke:none" d="m 14.0059,15.6729 c 0.969,-1.15 2.419,-1.882 4.042,-1.882 1.621,0 3.072,0.732 4.04,1.882 l -8.082,0 z"/><path id="path51" style="fill:#29b910;fill-opacity:1;fill-rule:nonzero;stroke:none" d="m 12.769,18.9805 c 0.021,-1.259 0.482,-2.411 1.237,-3.308 l 8.082,0 c 0.376,0.447 0.679,0.955 0.89,1.509 0,0 -0.587,0.036 -1.114,0.272 -0.525,0.235 -1.302,0.251 -2.203,0.4 -0.902,0.148 -2.377,0.803 -2.377,0.803 l -1.161,0 c 0,0 -0.333,0.008 -0.635,0.106 -0.302,0.098 -0.647,0.083 -0.741,0.02 -0.094,-0.063 -0.376,0 -0.612,0.102 -0.235,0.102 -0.707,-0.015 -0.976,0.067 -0.286,0.086 -0.39,0.029 -0.39,0.029"/><path id="path52" style="fill:#003f99;fill-opacity:1;fill-rule:nonzero;stroke:none" d="m 17.2842,18.6567 c 0,0 1.475,-0.655 2.377,-0.804 0.901,-0.149 1.678,-0.164 2.203,-0.4 0.526,-0.235 1.114,-0.271 1.114,-0.271 0.173,0.452 0.286,0.933 0.328,1.433 l -6.022,0.042 z"/><path id="path53" style="fill:#6ed0ff;fill-opacity:1;fill-rule:nonzero;stroke:none" d="m 12.8071,19.7134 c 0.317,2.612 2.542,4.635 5.24,4.635 2.646,0 4.839,-1.947 5.22,-4.488 l -2.229,-0.24 -8.231,0.093 z"/><path id="path54" style="fill:#ffe400;fill-opacity:1;fill-rule:nonzero;stroke:none" d="m 21.041,19.8813 c 0,0.267 0.216,0.483 0.482,0.483 0.267,0 0.484,-0.216 0.484,-0.483 0,-0.267 -0.217,-0.482 -0.484,-0.482 -0.266,0 -0.482,0.215 -0.482,0.482"/><path id="path55" style="fill:#7c4790;fill-opacity:1;fill-rule:nonzero;stroke:none" d="m 12.769,18.9805 c 0,0.029 -10e-4,0.06 -10e-4,0.089 0,0.218 0.013,0.433 0.039,0.644 l 1.584,0.472 1.077,-0.318 0.617,-0.003 0.462,-0.097 1.206,0.574 0.823,0.294 0.744,-0.297 1.718,-0.718 0.794,0.197 0.127,-0.076 0.623,0.329 0.686,-0.21 c 0.038,-0.257 0.058,-0.522 0.058,-0.791 0,-0.153 -0.007,-0.304 -0.019,-0.454 l -6.023,0.041 -1.161,0 c 0,0 -0.333,0.008 -0.635,0.106 -0.302,0.098 -0.647,0.083 -0.741,0.02 -0.094,-0.063 -0.376,0 -0.612,0.102 -0.235,0.102 -0.707,-0.015 -0.976,0.067 -0.286,0.086 -0.39,0.029 -0.39,0.029"/></g></g></g></g></svg>