<svg xmlns:dc="http://purl.org/dc/elements/1.1/" xmlns:cc="http://creativecommons.org/ns#" xmlns:rdf="http://www.w3.org/1999/02/22-rdf-syntax-ns#" xmlns:svg="http://www.w3.org/2000/svg" xmlns="http://www.w3.org/2000/svg" viewBox="0 0 45 45" style="enable-background:new 0 0 45 45;" xml:space="preserve" version="1.1" id="svg2"><metadata id="metadata8"><rdf:RDF><cc:Work rdf:about=""><dc:format>image/svg+xml</dc:format><dc:type rdf:resource="http://purl.org/dc/dcmitype/StillImage"/></cc:Work></rdf:RDF></metadata><defs id="defs6"><clipPath id="clipPath16" clipPathUnits="userSpaceOnUse"><path id="path18" d="M 0,36 36,36 36,0 0,0 0,36 Z"/></clipPath></defs><g transform="matrix(1.25,0,0,-1.25,0,45)" id="g10"><g id="g12"><g clip-path="url(#clipPath16)" id="g14"><g id="g30"><path id="path20" style="fill:#003399;fill-opacity:1;fill-rule:nonzero;stroke:none" d="m 18,31 h 14 c 2.209,0 4,-1.791 4,-4 V 9 C 36,6.791 34.209,5 32,5 H 18 Z"/></g><g id="g31"><path id="path22" style="fill:#eeeeee;fill-opacity:1;fill-rule:nonzero;stroke:none" d="m 33.1699,23.21 c 0.521,-0.13 0.91,-0.66 0.91,-1.31 0,-0.64 -0.389,-1.17 -0.91,-1.3 0.521,-0.12 0.91,-0.66 0.91,-1.3 0,-0.64 -0.389,-1.18 -0.91,-1.3 0.521,-0.12 0.91,-0.66 0.91,-1.3 0,-0.64 -0.389,-1.18 -0.91,-1.3 0.521,-0.13 0.91,-0.66 0.91,-1.3 0,-0.65 -0.389,-1.18 -0.91,-1.31 0.521,-0.12 0.91,-0.66 0.91,-1.3 0,-0.64 -0.389,-1.17 -0.91,-1.3 0.521,-0.12 0.91,-0.66 0.91,-1.3 0,-1.09 -0.79,-1.97 -1.77,-1.97 -0.64,0 -1.17,0.39 -1.3,0.91 -0.12,-0.52 -0.66,-0.91 -1.3,-0.91 -0.64,0 -1.18,0.39 -1.3,0.91 -0.12,-0.52 -0.66,-0.91 -1.3,-0.91 -0.64,0 -1.18,0.39 -1.3,0.91 -0.13,-0.52 -0.66,-0.91 -1.3,-0.91 -0.65,0 -1.18,0.39 -1.3,0.91 -0.13,-0.52 -0.66,-0.91 -1.31,-0.91 -0.64,0 -1.169,0.39 -1.3,0.91 -0.119,-0.52 -0.659,-0.91 -1.3,-0.91 -0.64,0 -1.18,0.39 -1.3,0.91 v 20.34 c 0.12,0.52 0.66,0.91 1.3,0.91 0.641,0 1.181,-0.39 1.3,-0.91 0.131,0.52 0.66,0.91 1.3,0.91 0.65,0 1.18,-0.39 1.31,-0.91 0.12,0.52 0.65,0.91 1.3,0.91 0.64,0 1.17,-0.39 1.3,-0.91 0.12,0.52 0.66,0.91 1.3,0.91 0.64,0 1.18,-0.39 1.3,-0.91 0.12,0.52 0.66,0.91 1.3,0.91 0.64,0 1.18,-0.39 1.3,-0.91 0.13,0.52 0.66,0.91 1.3,0.91 0.98,0 1.77,-0.88 1.77,-1.97 0,-0.64 -0.389,-1.18 -0.91,-1.3 0.521,-0.13 0.91,-0.66 0.91,-1.3 0,-0.65 -0.389,-1.18 -0.91,-1.3"/></g><g id="g32"><path id="path30" style="fill:#141414;fill-opacity:1;fill-rule:nonzero;stroke:none" d="m 21.7305,28.9102 c -0.101,0 -0.211,0.04 -0.311,0.09 -0.28,-0.09 -0.509,-0.26 -0.66,-0.48 0.071,-0.06 0.16,-0.1 0.271,-0.1 0.25,0 0.41,0.31 0.41,0.31 h 0.029 c 0.071,0 0.09,-0.01 0.151,-0.01 0.269,0 0.389,0.26 0.41,0.33 -0.021,-0.03 -0.13,-0.14 -0.3,-0.14 m -0.341,-2.87 c 0.13,-0.08 0.24,-0.13 0.29,-0.15 -0.099,0.13 -0.519,0.61 -0.87,1.35 -0.29,0.6 -0.409,1.13 -0.449,1.38 -0.011,0.02 -0.03,0.04 -0.051,0.06 -0.05,-0.22 -0.189,-0.79 -0.5,-1.44 -0.399,-0.84 -0.89,-1.36 -0.89,-1.36 0,0 0.151,0.05 0.331,0.16 0.16,0.09 0.389,0.24 0.45,0.28 l -0.491,-0.96 c 0,0 0.201,0.16 0.39,0.35 0.191,0.18 0.441,0.46 0.441,0.46 0,0 0.019,-0.31 0.089,-0.63 0.061,-0.32 0.201,-0.7 0.201,-0.7 0,0 0.08,0.38 0.139,0.7 0.071,0.32 0.111,0.63 0.111,0.63 0,0 0.229,-0.28 0.42,-0.46 0.19,-0.19 0.4,-0.35 0.4,-0.35 l -0.46,0.96 c 0.06,-0.04 0.29,-0.19 0.449,-0.28 m -1.47,2.9 c -0.169,0.09 -0.36,0.13 -0.57,0.14 -0.159,-0.07 -0.319,-0.17 -0.489,-0.17 -0.07,0 -0.12,0.02 -0.17,0.04 -0.07,0.04 -0.12,0.09 -0.131,0.1 0,-0.03 0.03,-0.08 0.061,-0.13 0.059,-0.09 0.179,-0.2 0.349,-0.2 0.061,0 0.08,0.01 0.151,0.01 h 0.03 c 0,0 0.159,-0.31 0.42,-0.31 0.26,0 0.399,0.24 0.399,0.38 0,0.04 -0.019,0.09 -0.05,0.14"/><path id="path31" style="fill:#141414;fill-opacity:1;fill-rule:nonzero;stroke:none" d="m 28.5996,19.27 c -0.26,0 -0.51,0.24 -0.75,0.24 -0.189,0 -0.359,-0.22 -0.359,-0.35 0,-0.14 0.149,-0.38 0.41,-0.38 0.25,0 0.42,0.31 0.42,0.31 h 0.019 c 0.071,0 0.09,-0.01 0.16,-0.01 0.26,0 0.38,0.26 0.401,0.33 -0.021,-0.03 -0.12,-0.14 -0.301,-0.14 m -0.34,-2.87 c 0.141,-0.08 0.25,-0.13 0.29,-0.15 -0.099,0.13 -0.519,0.61 -0.87,1.35 -0.399,0.84 -0.479,1.54 -0.479,1.54 0,0 -0.121,-0.7 -0.521,-1.54 -0.399,-0.84 -0.89,-1.36 -0.89,-1.36 0,0 0.151,0.05 0.331,0.16 0.16,0.09 0.389,0.24 0.45,0.28 l -0.491,-0.96 c 0,0 0.21,0.16 0.39,0.35 0.191,0.18 0.441,0.46 0.441,0.46 0,0 0.019,-0.31 0.089,-0.63 0.06,-0.32 0.201,-0.7 0.201,-0.7 0,0 0.08,0.38 0.149,0.7 0.061,0.32 0.101,0.63 0.101,0.63 0,0 0.229,-0.28 0.42,-0.46 0.189,-0.19 0.399,-0.35 0.399,-0.35 l -0.46,0.96 c 0.061,-0.04 0.29,-0.19 0.45,-0.28 m -1.779,3.11 c -0.24,0 -0.481,-0.24 -0.75,-0.24 -0.171,0 -0.271,0.11 -0.29,0.14 0.019,-0.07 0.13,-0.33 0.399,-0.33 0.071,0 0.09,0.01 0.151,0.01 h 0.029 c 0,0 0.16,-0.31 0.421,-0.31 0.26,0 0.399,0.24 0.399,0.38 0,0.13 -0.16,0.35 -0.359,0.35 m 0.84,0.68 c 0,0 -0.011,0.02 0,0.06 0.019,0.06 0.05,0.11 0.05,0.18 0,0.18 -0.191,0.32 -0.26,0.35 0.019,-0.03 0.08,-0.12 0.08,-0.22 0,-0.28 -0.431,-0.49 -0.431,-0.73 0,-0.13 0.16,-0.35 0.391,-0.35 0.149,0 0.399,0.11 0.399,0.34 0,0.21 -0.229,0.37 -0.229,0.37"/><path id="path32" style="fill:#141414;fill-opacity:1;fill-rule:nonzero;stroke:none" d="m 33.6201,17.7598 c -0.021,-0.05 -0.04,-0.11 -0.07,-0.16 -0.4,-0.84 -0.89,-1.36 -0.89,-1.36 0,0 0.149,0.05 0.33,0.161 0.16,0.089 0.39,0.239 0.45,0.279 l -0.49,-0.96 c 0,0 0.21,0.16 0.399,0.351 0.181,0.179 0.431,0.46 0.431,0.46 0,0 0.02,-0.291 0.08,-0.601 0.14,0.221 0.22,0.48 0.22,0.77 0,0.44 -0.18,0.82 -0.46,1.06 m -0.271,1.75 c -0.239,0 -0.479,-0.24 -0.75,-0.24 -0.169,0 -0.269,0.11 -0.29,0.14 0.021,-0.07 0.131,-0.33 0.401,-0.33 0.07,0 0.09,0.01 0.15,0.01 h 0.03 c 0,0 0.16,-0.309 0.419,-0.309 0.261,0 0.401,0.239 0.401,0.379 0,0.13 -0.16,0.35 -0.361,0.35 m 0.46,0.64 c -0.089,-0.11 -0.179,-0.21 -0.179,-0.32 0,-0.13 0.16,-0.35 0.389,-0.35 0.011,0 0.031,0 0.04,0.01 -0.019,0.25 -0.109,0.48 -0.25,0.66"/><path id="path33" style="fill:#141414;fill-opacity:1;fill-rule:nonzero;stroke:none" d="m 21.7305,19.27 c -0.261,0 -0.511,0.24 -0.75,0.24 -0.19,0 -0.36,-0.22 -0.36,-0.35 0,-0.14 0.139,-0.38 0.41,-0.38 0.25,0 0.41,0.31 0.41,0.31 h 0.029 c 0.071,0 0.09,-0.01 0.151,-0.01 0.269,0 0.389,0.26 0.41,0.33 -0.021,-0.03 -0.13,-0.14 -0.3,-0.14 m -0.341,-2.87 c 0.13,-0.08 0.24,-0.13 0.29,-0.15 -0.099,0.13 -0.519,0.61 -0.87,1.35 -0.399,0.84 -0.479,1.54 -0.479,1.54 0,0 -0.121,-0.7 -0.521,-1.54 -0.399,-0.84 -0.89,-1.36 -0.89,-1.36 0,0 0.151,0.05 0.331,0.16 0.16,0.09 0.389,0.24 0.45,0.28 l -0.491,-0.96 c 0,0 0.201,0.16 0.39,0.35 0.191,0.18 0.441,0.46 0.441,0.46 0,0 0.019,-0.31 0.089,-0.63 0.061,-0.32 0.201,-0.7 0.201,-0.7 0,0 0.08,0.38 0.139,0.7 0.071,0.32 0.111,0.63 0.111,0.63 0,0 0.229,-0.28 0.42,-0.46 0.19,-0.19 0.4,-0.35 0.4,-0.35 l -0.46,0.96 c 0.06,-0.04 0.29,-0.19 0.449,-0.28 m -1.779,3.11 c -0.24,0 -0.481,-0.24 -0.75,-0.24 -0.17,0 -0.28,0.11 -0.301,0.14 0.021,-0.07 0.141,-0.33 0.41,-0.33 0.061,0 0.08,0.01 0.151,0.01 h 0.03 c 0,0 0.159,-0.31 0.42,-0.31 0.26,0 0.399,0.24 0.399,0.38 0,0.13 -0.17,0.35 -0.359,0.35 m 0.84,0.68 c 0,0 -0.01,0.02 0,0.06 0.019,0.06 0.05,0.11 0.05,0.18 0,0.18 -0.191,0.32 -0.26,0.35 0.019,-0.03 0.08,-0.12 0.08,-0.22 0,-0.28 -0.431,-0.49 -0.431,-0.73 0,-0.13 0.16,-0.35 0.38,-0.35 0.16,0 0.41,0.11 0.41,0.34 0,0.21 -0.229,0.37 -0.229,0.37"/><path id="path34" style="fill:#141414;fill-opacity:1;fill-rule:nonzero;stroke:none" d="m 25.1699,14.4502 c -0.27,0 -0.51,0.24 -0.75,0.24 -0.2,0 -0.36,-0.22 -0.36,-0.35 0,-0.14 0.14,-0.38 0.4,-0.38 0.26,0 0.42,0.309 0.42,0.309 h 0.03 c 0.06,0 0.08,-0.009 0.15,-0.009 0.27,0 0.381,0.259 0.4,0.33 -0.019,-0.031 -0.12,-0.14 -0.29,-0.14 m -0.05,-3.021 c -0.1,0.13 -0.52,0.611 -0.87,1.351 -0.4,0.84 -0.49,1.54 -0.49,1.54 0,0 -0.12,-0.7 -0.52,-1.54 -0.39,-0.84 -0.89,-1.36 -0.89,-1.36 0,0 0.15,0.05 0.33,0.16 0.17,0.09 0.39,0.24 0.45,0.28 l -0.48,-0.96 c 0,0 0.2,0.159 0.39,0.35 0.191,0.179 0.43,0.46 0.43,0.46 0,0 0.03,-0.31 0.09,-0.63 0.07,-0.32 0.2,-0.7 0.2,-0.7 0,0 0.09,0.38 0.15,0.7 0.06,0.32 0.1,0.63 0.1,0.63 0,0 0.24,-0.281 0.42,-0.46 0.19,-0.191 0.4,-0.35 0.4,-0.35 l -0.45,0.96 c 0.061,-0.04 0.29,-0.19 0.45,-0.28 0.13,-0.08 0.24,-0.13 0.29,-0.151 m -2.07,3.261 c -0.24,0 -0.49,-0.24 -0.75,-0.24 -0.18,0 -0.28,0.109 -0.3,0.14 0.02,-0.071 0.14,-0.33 0.4,-0.33 0.07,0 0.09,0.009 0.15,0.009 h 0.03 c 0,0 0.17,-0.309 0.42,-0.309 0.26,0 0.41,0.24 0.41,0.38 0,0.13 -0.17,0.35 -0.36,0.35 m 0.83,0.68 c 0,0 -0.01,0.019 0,0.059 0.03,0.061 0.05,0.111 0.05,0.181 0,0.19 -0.21,0.33 -0.26,0.36 0.021,-0.03 0.08,-0.121 0.08,-0.23 0,-0.28 -0.42,-0.49 -0.42,-0.73 0,-0.13 0.151,-0.35 0.38,-0.35 0.16,0 0.41,0.109 0.41,0.34 0,0.21 -0.24,0.37 -0.24,0.37"/><path id="path35" style="fill:#141414;fill-opacity:1;fill-rule:nonzero;stroke:none" d="m 32.04,14.4502 c -0.271,0 -0.51,0.24 -0.75,0.24 -0.2,0 -0.36,-0.22 -0.36,-0.35 0,-0.14 0.14,-0.38 0.4,-0.38 0.26,0 0.42,0.309 0.42,0.309 h 0.03 c 0.06,0 0.08,-0.009 0.15,-0.009 0.27,0 0.38,0.259 0.4,0.33 -0.02,-0.031 -0.12,-0.14 -0.29,-0.14 m -0.05,-3.021 c -0.1,0.13 -0.52,0.611 -0.87,1.351 -0.4,0.84 -0.49,1.54 -0.49,1.54 0,0 -0.111,-0.7 -0.51,-1.54 -0.4,-0.84 -0.9,-1.36 -0.9,-1.36 0,0 0.15,0.05 0.34,0.16 0.16,0.09 0.38,0.24 0.44,0.28 l -0.481,-0.96 c 0,0 0.201,0.159 0.391,0.35 0.19,0.179 0.43,0.46 0.43,0.46 0,0 0.03,-0.31 0.09,-0.63 0.07,-0.32 0.2,-0.7 0.2,-0.7 0,0 0.09,0.38 0.15,0.7 0.07,0.32 0.1,0.63 0.1,0.63 0,0 0.24,-0.281 0.42,-0.46 0.17,-0.17 0.36,-0.31 0.4,-0.34 l -0.45,0.95 c 0.06,-0.04 0.29,-0.19 0.45,-0.28 0.14,-0.08 0.24,-0.13 0.29,-0.151 m -2.07,3.261 c -0.24,0 -0.49,-0.24 -0.75,-0.24 -0.17,0 -0.28,0.109 -0.3,0.14 0.02,-0.071 0.14,-0.33 0.399,-0.33 0.071,0 0.091,0.009 0.151,0.009 h 0.03 c 0,0 0.17,-0.309 0.42,-0.309 0.26,0 0.41,0.24 0.41,0.38 0,0.13 -0.17,0.35 -0.36,0.35 m 0.83,0.68 c 0,0 -0.01,0.019 0.01,0.059 0.02,0.061 0.04,0.111 0.04,0.181 0,0.19 -0.21,0.33 -0.26,0.36 0.02,-0.03 0.08,-0.121 0.08,-0.23 0,-0.28 -0.42,-0.49 -0.42,-0.73 0,-0.13 0.16,-0.35 0.38,-0.35 0.16,0 0.41,0.109 0.41,0.34 0,0.21 -0.24,0.37 -0.24,0.37"/><path id="path36" style="fill:#141414;fill-opacity:1;fill-rule:nonzero;stroke:none" d="m 28.5996,9.6299 c -0.26,0 -0.51,0.24 -0.75,0.24 -0.189,0 -0.359,-0.219 -0.359,-0.35 0,-0.14 0.149,-0.38 0.41,-0.38 0.25,0 0.42,0.31 0.42,0.31 h 0.019 c 0.071,0 0.09,-0.009 0.16,-0.009 0.26,0 0.38,0.259 0.401,0.329 -0.021,-0.03 -0.12,-0.14 -0.301,-0.14 m -0.92,-1.67 c -0.399,0.84 -0.479,1.54 -0.479,1.54 0,0 -0.121,-0.7 -0.521,-1.54 -0.14,-0.3 -0.3,-0.559 -0.439,-0.769 0.089,-0.061 0.2,-0.121 0.309,-0.161 0.01,0.01 0.01,0.01 0.021,0.01 v -0.02 c 0.17,-0.06 0.349,-0.1 0.54,-0.1 0.38,0 0.719,0.14 0.96,0.35 -0.13,0.19 -0.261,0.43 -0.391,0.69 m -1.199,1.91 c -0.24,0 -0.481,-0.24 -0.75,-0.24 -0.171,0 -0.271,0.11 -0.29,0.14 0.019,-0.07 0.13,-0.329 0.399,-0.329 0.071,0 0.09,0.009 0.151,0.009 h 0.029 c 0,0 0.16,-0.31 0.421,-0.31 0.26,0 0.399,0.24 0.399,0.38 0,0.131 -0.16,0.35 -0.359,0.35 m 0.84,0.68 c 0,0 -0.011,0.02 0,0.06 0.019,0.06 0.05,0.11 0.05,0.18 0,0.18 -0.191,0.32 -0.26,0.35 0.019,-0.03 0.08,-0.12 0.08,-0.22 0,-0.28 -0.431,-0.49 -0.431,-0.729 0,-0.131 0.16,-0.351 0.391,-0.351 0.149,0 0.399,0.11 0.399,0.34 0,0.21 -0.229,0.37 -0.229,0.37"/><path id="path37" style="fill:#141414;fill-opacity:1;fill-rule:nonzero;stroke:none" d="m 34.0195,9.29 c -0.06,-0.271 -0.199,-0.771 -0.47,-1.33 -0.16,-0.34 -0.34,-0.63 -0.49,-0.85 0.601,0.31 1.021,0.99 1.021,1.78 0,0.14 -0.021,0.27 -0.061,0.4 m -0.67,0.58 c -0.239,0 -0.479,-0.24 -0.75,-0.24 -0.17,0 -0.269,0.11 -0.29,0.139 0.021,-0.069 0.131,-0.329 0.4,-0.329 0.071,0 0.09,0.01 0.151,0.01 h 0.029 c 0,0 0.16,-0.31 0.42,-0.31 0.261,0 0.4,0.24 0.4,0.379 0,0.131 -0.16,0.351 -0.36,0.351 m 0.631,1.27 c 0.01,-0.01 0.019,-0.04 0.039,-0.07 0.011,0.01 0.011,0.03 0.011,0.04 -0.021,0.02 -0.04,0.03 -0.05,0.03"/><path id="path38" style="fill:#141414;fill-opacity:1;fill-rule:nonzero;stroke:none" d="m 21.7305,9.6299 c -0.261,0 -0.511,0.24 -0.75,0.24 -0.19,0 -0.36,-0.219 -0.36,-0.35 0,-0.14 0.139,-0.38 0.41,-0.38 0.25,0 0.41,0.31 0.41,0.31 h 0.029 c 0.071,0 0.09,-0.009 0.151,-0.009 0.269,0 0.389,0.259 0.41,0.329 -0.021,-0.03 -0.13,-0.14 -0.3,-0.14 m -0.921,-1.67 c -0.399,0.84 -0.479,1.54 -0.479,1.54 0,0 -0.121,-0.7 -0.521,-1.54 -0.21,-0.44 -0.439,-0.79 -0.609,-1.03 0.03,-0.01 0.069,-0.01 0.099,-0.01 0.09,0 0.17,0.01 0.25,0.021 l 0.01,0.009 c 0.061,0.04 0.11,0.08 0.141,0.09 l -0.031,-0.07 c 0.47,0.11 0.831,0.44 0.93,0.86 0.091,-0.36 0.381,-0.66 0.761,-0.8 -0.17,0.23 -0.37,0.55 -0.551,0.93 m -1.199,1.91 c -0.24,0 -0.481,-0.24 -0.75,-0.24 -0.17,0 -0.28,0.11 -0.301,0.14 0.021,-0.07 0.141,-0.329 0.41,-0.329 0.061,0 0.08,0.009 0.151,0.009 h 0.03 c 0,0 0.159,-0.31 0.42,-0.31 0.26,0 0.399,0.24 0.399,0.38 0,0.131 -0.17,0.35 -0.359,0.35 m 0.84,0.68 c 0,0 -0.01,0.02 0,0.06 0.019,0.06 0.05,0.11 0.05,0.18 0,0.18 -0.191,0.32 -0.26,0.35 0.019,-0.03 0.08,-0.12 0.08,-0.22 0,-0.28 -0.431,-0.49 -0.431,-0.729 0,-0.131 0.16,-0.351 0.38,-0.351 0.16,0 0.41,0.11 0.41,0.34 0,0.21 -0.229,0.37 -0.229,0.37"/><path id="path39" style="fill:#141414;fill-opacity:1;fill-rule:nonzero;stroke:none" d="m 25.1699,24.0898 c -0.27,0 -0.51,0.24 -0.75,0.24 -0.2,0 -0.36,-0.22 -0.36,-0.35 0,-0.14 0.14,-0.38 0.4,-0.38 0.26,0 0.42,0.31 0.42,0.31 h 0.03 c 0.06,0 0.08,-0.01 0.15,-0.01 0.27,0 0.381,0.26 0.4,0.33 -0.019,-0.03 -0.12,-0.14 -0.29,-0.14 m -0.05,-3.02 c -0.1,0.13 -0.52,0.61 -0.87,1.35 -0.4,0.84 -0.49,1.54 -0.49,1.54 0,0 -0.12,-0.7 -0.52,-1.54 -0.39,-0.84 -0.89,-1.36 -0.89,-1.36 0,0 0.15,0.05 0.33,0.16 0.17,0.09 0.39,0.24 0.45,0.28 l -0.48,-0.96 c 0,0 0.2,0.16 0.39,0.35 0.191,0.18 0.43,0.46 0.43,0.46 0,0 0.03,-0.31 0.09,-0.63 0.07,-0.32 0.2,-0.7 0.2,-0.7 0,0 0.09,0.38 0.15,0.7 0.06,0.32 0.1,0.63 0.1,0.63 0,0 0.24,-0.28 0.42,-0.46 0.19,-0.19 0.4,-0.35 0.4,-0.35 l -0.45,0.96 c 0.061,-0.04 0.29,-0.19 0.45,-0.28 0.13,-0.08 0.24,-0.13 0.29,-0.15 m -2.07,3.26 c -0.24,0 -0.49,-0.24 -0.75,-0.24 -0.18,0 -0.28,0.11 -0.3,0.14 0.02,-0.07 0.14,-0.33 0.4,-0.33 0.07,0 0.09,0.01 0.15,0.01 h 0.03 c 0,0 0.17,-0.31 0.42,-0.31 0.26,0 0.41,0.24 0.41,0.38 0,0.13 -0.17,0.35 -0.36,0.35 m 0.83,0.68 c 0,0 -0.01,0.02 0,0.06 0.03,0.06 0.05,0.11 0.05,0.18 0,0.19 -0.21,0.33 -0.26,0.36 0.021,-0.03 0.08,-0.12 0.08,-0.23 0,-0.28 -0.42,-0.49 -0.42,-0.73 0,-0.13 0.151,-0.35 0.38,-0.35 0.16,0 0.41,0.11 0.41,0.34 0,0.21 -0.24,0.37 -0.24,0.37"/><path id="path40" style="fill:#141414;fill-opacity:1;fill-rule:nonzero;stroke:none" d="m 32.04,24.0898 c -0.271,0 -0.51,0.24 -0.75,0.24 -0.2,0 -0.36,-0.22 -0.36,-0.35 0,-0.14 0.14,-0.38 0.4,-0.38 0.26,0 0.42,0.31 0.42,0.31 h 0.03 c 0.06,0 0.08,-0.01 0.15,-0.01 0.27,0 0.38,0.26 0.4,0.33 -0.02,-0.03 -0.12,-0.14 -0.29,-0.14 m -0.05,-3.02 c -0.1,0.13 -0.52,0.61 -0.87,1.35 -0.4,0.84 -0.49,1.54 -0.49,1.54 0,0 -0.111,-0.7 -0.51,-1.54 -0.4,-0.84 -0.9,-1.36 -0.9,-1.36 0,0 0.15,0.05 0.34,0.16 0.16,0.09 0.38,0.24 0.44,0.28 l -0.481,-0.96 c 0,0 0.201,0.16 0.391,0.35 0.19,0.18 0.43,0.46 0.43,0.46 0,0 0.03,-0.31 0.09,-0.63 0.07,-0.32 0.2,-0.7 0.2,-0.7 0,0 0.09,0.38 0.15,0.7 0.07,0.32 0.1,0.63 0.1,0.63 0,0 0.24,-0.28 0.42,-0.46 0.17,-0.17 0.36,-0.31 0.4,-0.34 l -0.45,0.95 c 0.06,-0.04 0.29,-0.19 0.45,-0.28 0.14,-0.08 0.24,-0.13 0.29,-0.15 m -2.07,3.26 c -0.24,0 -0.49,-0.24 -0.75,-0.24 -0.17,0 -0.28,0.11 -0.3,0.14 0.02,-0.07 0.14,-0.33 0.399,-0.33 0.071,0 0.091,0.01 0.151,0.01 h 0.03 c 0,0 0.17,-0.31 0.42,-0.31 0.26,0 0.41,0.24 0.41,0.38 0,0.13 -0.17,0.35 -0.36,0.35 m 0.83,0.68 c 0,0 -0.01,0.02 0.01,0.06 0.02,0.06 0.04,0.11 0.04,0.18 0,0.19 -0.21,0.33 -0.26,0.36 0.02,-0.03 0.08,-0.12 0.08,-0.23 0,-0.28 -0.42,-0.49 -0.42,-0.73 0,-0.13 0.16,-0.35 0.38,-0.35 0.16,0 0.41,0.11 0.41,0.34 0,0.21 -0.24,0.37 -0.24,0.37"/><path id="path41" style="fill:#141414;fill-opacity:1;fill-rule:nonzero;stroke:none" d="m 27.5801,29 c -0.061,-0.06 -0.09,-0.14 -0.09,-0.2 0,-0.14 0.15,-0.38 0.41,-0.38 0.119,0 0.23,0.08 0.3,0.16 -0.141,0.19 -0.36,0.34 -0.62,0.42 m 0.68,-2.96 c 0.14,-0.08 0.25,-0.13 0.29,-0.15 -0.1,0.13 -0.52,0.61 -0.87,1.35 -0.4,0.84 -0.48,1.54 -0.48,1.54 0,0 -0.12,-0.7 -0.52,-1.54 -0.4,-0.84 -0.89,-1.36 -0.89,-1.36 0,0 0.15,0.05 0.33,0.16 0.16,0.09 0.39,0.24 0.45,0.28 l -0.49,-0.96 c 0,0 0.21,0.16 0.39,0.35 0.19,0.18 0.44,0.46 0.44,0.46 0,0 0.02,-0.31 0.09,-0.63 0.059,-0.32 0.2,-0.7 0.2,-0.7 0,0 0.08,0.38 0.15,0.7 0.06,0.32 0.1,0.63 0.1,0.63 0,0 0.23,-0.28 0.42,-0.46 0.189,-0.19 0.399,-0.35 0.399,-0.35 l -0.46,0.96 c 0.061,-0.04 0.291,-0.19 0.451,-0.28 m -1.53,2.99 c -0.26,-0.07 -0.49,-0.2 -0.66,-0.38 0.06,-0.09 0.19,-0.23 0.37,-0.23 0.26,0 0.4,0.24 0.4,0.38 0,0.07 -0.04,0.16 -0.11,0.23"/><path id="path42" style="fill:#141414;fill-opacity:1;fill-rule:nonzero;stroke:none" d="m 33.1797,25.8101 -0.229,-0.45 c 0,0 0.209,0.16 0.399,0.35 0.011,0.01 0.011,0.01 0.02,0.02 -0.06,0.04 -0.12,0.06 -0.19,0.08 m 0.69,2.22 c -0.08,-0.23 -0.179,-0.5 -0.32,-0.79 -0.399,-0.84 -0.89,-1.36 -0.89,-1.36 0,0 0.15,0.05 0.331,0.16 0.16,0.09 0.389,0.24 0.45,0.28 l -0.261,-0.51 c 0.521,0.13 0.9,0.66 0.9,1.3 0,0.33 -0.07,0.65 -0.21,0.92 m -1,0.95 c -0.089,-0.04 -0.179,-0.07 -0.27,-0.07 -0.17,0 -0.27,0.11 -0.29,0.14 0.02,-0.07 0.131,-0.33 0.4,-0.33 0.071,0 0.09,0.01 0.151,0.01 h 0.029 c 0,0 0.16,-0.31 0.42,-0.31 0.1,0 0.181,0.03 0.24,0.08 -0.189,0.22 -0.42,0.38 -0.68,0.48"/></g><g id="g33"><path id="path24" style="fill:#ed2939;fill-opacity:1;fill-rule:nonzero;stroke:none" d="M 18,5 H 4 C 1.791,5 0,6.791 0,9 v 18 c 0,2.209 1.791,4 4,4 h 14 z"/></g><g id="g34"><path id="path26" style="fill:#003399;fill-opacity:1;fill-rule:nonzero;stroke:none" d="M 18,28.1724 H 4 c -0.646,0 -1.172,-0.526 -1.172,-1.172 v -18 c 0,-0.647 0.526,-1.173 1.172,-1.173 h 14 z"/></g><g id="g35"><path id="path43" style="fill:#ffd700;fill-opacity:1;fill-rule:nonzero;stroke:none" d="m 3.6099,23.48 c 0,-0.69 -0.78,-0.9 -0.78,-0.9 0,0 0.06,0.2 0.06,0.38 0,0.05 -0.01,0.13 -0.06,0.17 v 0.93 c 0.06,0.01 0.12,0.02 0.18,0.02 0.29,0 0.6,-0.22 0.6,-0.6"/><path id="path44" style="fill:#ffd700;fill-opacity:1;fill-rule:nonzero;stroke:none" d="m 3.6099,12.9102 c 0,-0.7 -0.78,-0.9 -0.78,-0.9 0,0 0.06,0.19 0.06,0.379 0,0.051 -0.01,0.121 -0.06,0.17 v 0.931 c 0.06,0.01 0.12,0.02 0.18,0.02 0.29,0 0.6,-0.22 0.6,-0.6"/><path id="path45" style="fill:#ffd700;fill-opacity:1;fill-rule:nonzero;stroke:none" d="m 3.2402,27.8901 c 0.01,-0.01 0.01,-0.02 0.01,-0.02 0,0 -0.01,0 -0.02,0.01 0,0.01 0.01,0.01 0.01,0.01"/><path id="path46" style="fill:#ffd700;fill-opacity:1;fill-rule:nonzero;stroke:none" d="m 4.8799,27.1299 c 0.13,-0.15 0.33,-0.24 0.33,-0.24 0,0 -0.09,-0.06 -0.27,-0.05 -0.24,0.01 -0.35,0.12 -0.35,0.12 0,0 0.02,-0.26 -0.03,-0.54 -0.03,-0.14 -0.16,-0.27 -0.16,-0.27 0,0 -0.13,0.13 -0.16,0.27 -0.05,0.28 -0.03,0.54 -0.03,0.54 0,0 -0.11,-0.11 -0.35,-0.12 -0.18,-0.01 -0.27,0.05 -0.27,0.05 0,0 0.2,0.09 0.32,0.24 0.15,0.18 0.17,0.29 0.17,0.29 h -0.26 c 0,0 -0.11,-0.02 -0.11,0.11 0,0.14 0.11,0.12 0.11,0.12 h 0.05 c 0,0 0.02,0.25 -0.11,0.5 0.08,0.01 0.16,0.02 0.24,0.02 h 0.05 c 0.06,-0.28 0.08,-0.52 0.08,-0.52 h 0.1 c 0,0 0.01,0.22 -0.03,0.52 h 0.4 c -0.05,-0.3 -0.03,-0.52 -0.03,-0.52 h 0.1 c 0,0 0.02,0.24 0.08,0.52 h 0.3 c -0.14,-0.26 -0.12,-0.52 -0.12,-0.52 h 0.05 c 0,0 0.11,0.02 0.11,-0.12 0,-0.13 -0.11,-0.11 -0.11,-0.11 h -0.27 c 0,0 0.03,-0.11 0.17,-0.29"/><path id="path47" style="fill:#ffd700;fill-opacity:1;fill-rule:nonzero;stroke:none" d="m 6.0698,28.1699 c -0.22,-0.22 -0.52,-0.3 -0.52,-0.3 0,0 0.04,0.14 0.05,0.3 z"/><path id="path48" style="fill:#ffd700;fill-opacity:1;fill-rule:nonzero;stroke:none" d="m 6.3301,18.2002 c 0,-0.7 -0.78,-0.9 -0.78,-0.9 0,0 0.06,0.19 0.06,0.38 0,0.07 -0.02,0.21 -0.16,0.21 -0.15,0 -0.28,-0.09 -0.36,-0.21 -0.19,-0.28 -0.16,-0.6 -0.16,-0.6 h 0.05 c 0,0 0.11,0.019 0.11,-0.12 0,-0.13 -0.11,-0.111 -0.11,-0.111 h -0.27 c 0,0 0.03,-0.109 0.17,-0.29 0.13,-0.149 0.33,-0.239 0.33,-0.239 0,0 -0.09,-0.06 -0.27,-0.051 -0.24,0.011 -0.35,0.12 -0.35,0.12 0,0 0.02,-0.259 -0.03,-0.54 -0.03,-0.139 -0.16,-0.269 -0.16,-0.269 0,0 -0.13,0.13 -0.16,0.269 -0.05,0.281 -0.03,0.54 -0.03,0.54 0,0 -0.11,-0.109 -0.35,-0.12 -0.18,-0.009 -0.27,0.051 -0.27,0.051 0,0 0.2,0.09 0.32,0.239 0.15,0.181 0.17,0.29 0.17,0.29 h -0.26 c 0,0 -0.11,-0.019 -0.11,0.111 0,0.139 0.11,0.12 0.11,0.12 h 0.05 c 0,0 0.02,0.32 -0.17,0.6 -0.08,0.12 -0.21,0.21 -0.35,0.21 -0.14,0 -0.16,-0.14 -0.16,-0.21 0,-0.19 0.06,-0.38 0.06,-0.38 0,0 -0.22,0.06 -0.42,0.22 v 1.23 c 0.08,0.03 0.16,0.05 0.24,0.05 0.41,0 0.7,-0.3 0.87,-0.8 0.14,-0.39 0.19,-0.92 0.19,-0.92 h 0.1 c 0,0 0.03,0.55 -0.17,1.09 -0.13,0.38 -0.22,0.55 -0.24,0.96 -0.03,0.79 0.58,1.29 0.58,1.29 0,0 0.61,-0.5 0.57,-1.29 -0.01,-0.41 -0.1,-0.58 -0.24,-0.96 -0.2,-0.54 -0.16,-1.09 -0.16,-1.09 h 0.1 c 0,0 0.05,0.53 0.18,0.92 0.17,0.5 0.47,0.8 0.88,0.8 0.28,0 0.6,-0.23 0.6,-0.6"/><path id="path49" style="fill:#ffd700;fill-opacity:1;fill-rule:nonzero;stroke:none" d="m 3.1201,8.2305 c 0.25,-0.021 0.45,-0.15 0.61,-0.37 -0.24,0.059 -0.45,0.189 -0.61,0.37"/><path id="path50" style="fill:#ffd700;fill-opacity:1;fill-rule:nonzero;stroke:none" d="m 4.9697,8.5596 c -0.01,-0.319 -0.06,-0.489 -0.15,-0.729 h -0.82 -0.02 c -0.09,0.24 -0.14,0.41 -0.16,0.729 -0.03,0.79 0.58,1.29 0.58,1.29 0,0 0.61,-0.5 0.57,-1.29"/><path id="path51" style="fill:#ffd700;fill-opacity:1;fill-rule:nonzero;stroke:none" d="m 6.2998,7.8301 h -1.25 c 0.17,0.26 0.4,0.4 0.68,0.4 0.22,0 0.47,-0.15 0.57,-0.4"/><path id="path52" style="fill:#ffd700;fill-opacity:1;fill-rule:nonzero;stroke:none" d="m 7.1172,20.8643 c 0,0 -0.133,0.132 -0.158,0.273 -0.05,0.282 -0.035,0.539 -0.035,0.539 0,0 -0.11,-0.113 -0.348,-0.124 -0.182,-0.008 -0.271,0.052 -0.271,0.052 0,0 0.201,0.091 0.328,0.243 0.144,0.174 0.17,0.283 0.17,0.283 h -0.263 c 0,0 -0.113,-0.02 -0.113,0.118 0,0.137 0.113,0.117 0.113,0.117 h 0.045 c 0,0 0.026,0.318 -0.162,0.6 -0.08,0.121 -0.212,0.208 -0.357,0.208 -0.138,0 -0.161,-0.137 -0.161,-0.211 0,-0.186 0.064,-0.38 0.064,-0.38 0,0 -0.783,0.204 -0.783,0.898 0,0.378 0.315,0.603 0.602,0.603 0.406,0 0.704,-0.301 0.875,-0.793 0.135,-0.392 0.182,-0.925 0.182,-0.925 h 0.103 c 0,0 0.036,0.547 -0.164,1.091 -0.14,0.379 -0.224,0.551 -0.243,0.959 -0.036,0.794 0.576,1.288 0.576,1.288 0,0 0.612,-0.494 0.576,-1.288 -0.019,-0.408 -0.103,-0.58 -0.243,-0.959 -0.199,-0.544 -0.163,-1.091 -0.163,-1.091 h 0.102 c 0,0 0.047,0.533 0.183,0.925 0.17,0.492 0.468,0.793 0.875,0.793 0.286,0 0.601,-0.225 0.601,-0.603 0,-0.694 -0.783,-0.898 -0.783,-0.898 0,0 0.065,0.194 0.065,0.38 0,0.074 -0.024,0.211 -0.161,0.211 -0.146,0 -0.277,-0.087 -0.358,-0.208 -0.188,-0.282 -0.162,-0.6 -0.162,-0.6 h 0.046 c 0,0 0.113,0.02 0.113,-0.117 0,-0.138 -0.113,-0.118 -0.113,-0.118 h -0.264 c 0,0 0.027,-0.109 0.17,-0.283 0.127,-0.152 0.328,-0.243 0.328,-0.243 0,0 -0.089,-0.06 -0.271,-0.052 -0.238,0.011 -0.348,0.124 -0.348,0.124 0,0 0.015,-0.257 -0.035,-0.539 -0.025,-0.141 -0.158,-0.273 -0.158,-0.273"/><path id="path53" style="fill:#ffd700;fill-opacity:1;fill-rule:nonzero;stroke:none" d="m 7.1172,10.293 c 0,0 -0.133,0.132 -0.158,0.273 -0.05,0.282 -0.035,0.539 -0.035,0.539 0,0 -0.11,-0.113 -0.348,-0.124 -0.182,-0.008 -0.271,0.052 -0.271,0.052 0,0 0.201,0.091 0.328,0.243 0.144,0.174 0.17,0.284 0.17,0.284 h -0.263 c 0,0 -0.113,-0.021 -0.113,0.117 0,0.137 0.113,0.118 0.113,0.118 h 0.045 c 0,0 0.026,0.317 -0.162,0.599 -0.08,0.122 -0.212,0.208 -0.357,0.208 -0.138,0 -0.161,-0.137 -0.161,-0.211 0,-0.186 0.064,-0.38 0.064,-0.38 0,0 -0.783,0.204 -0.783,0.898 0,0.378 0.315,0.603 0.602,0.603 0.406,0 0.704,-0.301 0.875,-0.792 0.135,-0.393 0.182,-0.925 0.182,-0.925 h 0.103 c 0,0 0.036,0.547 -0.164,1.091 -0.14,0.378 -0.224,0.55 -0.243,0.958 -0.036,0.794 0.576,1.289 0.576,1.289 0,0 0.612,-0.495 0.576,-1.289 -0.019,-0.408 -0.103,-0.58 -0.243,-0.958 -0.199,-0.544 -0.163,-1.091 -0.163,-1.091 h 0.102 c 0,0 0.047,0.532 0.183,0.925 0.17,0.491 0.468,0.792 0.875,0.792 0.286,0 0.601,-0.225 0.601,-0.603 0,-0.694 -0.783,-0.898 -0.783,-0.898 0,0 0.065,0.194 0.065,0.38 0,0.074 -0.024,0.211 -0.161,0.211 -0.146,0 -0.277,-0.086 -0.358,-0.208 -0.188,-0.282 -0.162,-0.599 -0.162,-0.599 h 0.046 c 0,0 0.113,0.019 0.113,-0.118 0,-0.138 -0.113,-0.117 -0.113,-0.117 h -0.264 c 0,0 0.027,-0.11 0.17,-0.284 0.127,-0.152 0.328,-0.243 0.328,-0.243 0,0 -0.089,-0.06 -0.271,-0.052 -0.238,0.011 -0.348,0.124 -0.348,0.124 0,0 0.015,-0.257 -0.035,-0.539 -0.025,-0.141 -0.158,-0.273 -0.158,-0.273"/><path id="path54" style="fill:#ffd700;fill-opacity:1;fill-rule:nonzero;stroke:none" d="m 8.6299,28.1699 c 0.01,-0.16 0.06,-0.3 0.06,-0.3 0,0 -0.3,0.08 -0.52,0.3 z"/><path id="path55" style="fill:#ffd700;fill-opacity:1;fill-rule:nonzero;stroke:none" d="m 10.3198,27.1299 c 0.13,-0.15 0.33,-0.24 0.33,-0.24 0,0 -0.09,-0.06 -0.27,-0.05 -0.24,0.01 -0.35,0.12 -0.35,0.12 0,0 0.01,-0.26 -0.04,-0.54 -0.02,-0.14 -0.15,-0.27 -0.15,-0.27 0,0 -0.14,0.13 -0.16,0.27 -0.05,0.28 -0.04,0.54 -0.04,0.54 0,0 -0.11,-0.11 -0.34,-0.12 -0.19,-0.01 -0.28,0.05 -0.28,0.05 0,0 0.21,0.09 0.33,0.24 0.15,0.18 0.17,0.29 0.17,0.29 h -0.26 c 0,0 -0.11,-0.02 -0.11,0.11 0,0.14 0.11,0.12 0.11,0.12 h 0.04 c 0,0 0.02,0.26 -0.12,0.52 h 0.31 c 0.05,-0.28 0.07,-0.52 0.07,-0.52 h 0.11 c 0,0 0.01,0.22 -0.03,0.52 h 0.4 c -0.05,-0.3 -0.03,-0.52 -0.03,-0.52 h 0.1 c 0,0 0.02,0.24 0.07,0.52 h 0.31 c -0.14,-0.26 -0.12,-0.52 -0.12,-0.52 h 0.04 c 0,0 0.12,0.02 0.12,-0.12 0,-0.13 -0.12,-0.11 -0.12,-0.11 h -0.26 c 0,0 0.03,-0.11 0.17,-0.29"/><path id="path56" style="fill:#ffd700;fill-opacity:1;fill-rule:nonzero;stroke:none" d="m 11.5098,28.1699 c -0.229,-0.22 -0.53,-0.3 -0.53,-0.3 0,0 0.051,0.14 0.06,0.3 z"/><path id="path57" style="fill:#ffd700;fill-opacity:1;fill-rule:nonzero;stroke:none" d="m 9.8359,15.5791 c 0,0 -0.133,0.132 -0.158,0.273 -0.049,0.281 -0.035,0.539 -0.035,0.539 0,0 -0.11,-0.113 -0.348,-0.125 -0.181,-0.007 -0.271,0.052 -0.271,0.052 0,0 0.201,0.092 0.328,0.244 0.144,0.173 0.17,0.283 0.17,0.283 h -0.263 c 0,0 -0.113,-0.02 -0.113,0.118 0,0.137 0.113,0.117 0.113,0.117 h 0.045 c 0,0 0.026,0.318 -0.161,0.599 -0.081,0.122 -0.213,0.208 -0.358,0.208 -0.138,0 -0.161,-0.137 -0.161,-0.211 0,-0.186 0.064,-0.379 0.064,-0.379 0,0 -0.783,0.203 -0.783,0.898 0,0.377 0.315,0.602 0.602,0.602 0.406,0 0.704,-0.301 0.875,-0.792 0.136,-0.392 0.182,-0.925 0.182,-0.925 h 0.103 c 0,0 0.036,0.547 -0.164,1.091 -0.14,0.379 -0.224,0.55 -0.243,0.958 -0.036,0.794 0.576,1.289 0.576,1.289 0,0 0.612,-0.495 0.576,-1.289 -0.019,-0.408 -0.103,-0.579 -0.243,-0.958 -0.199,-0.544 -0.163,-1.091 -0.163,-1.091 h 0.102 c 0,0 0.047,0.533 0.183,0.925 0.17,0.491 0.468,0.792 0.875,0.792 0.286,0 0.601,-0.225 0.601,-0.602 0,-0.695 -0.783,-0.898 -0.783,-0.898 0,0 0.065,0.193 0.065,0.379 0,0.074 -0.024,0.211 -0.161,0.211 -0.146,0 -0.277,-0.086 -0.358,-0.208 -0.188,-0.281 -0.162,-0.599 -0.162,-0.599 h 0.046 c 0,0 0.113,0.02 0.113,-0.117 0,-0.138 -0.113,-0.118 -0.113,-0.118 h -0.264 c 0,0 0.027,-0.11 0.17,-0.283 0.127,-0.152 0.328,-0.244 0.328,-0.244 0,0 -0.089,-0.059 -0.271,-0.052 -0.238,0.012 -0.348,0.125 -0.348,0.125 0,0 0.015,-0.258 -0.035,-0.539 -0.025,-0.141 -0.158,-0.273 -0.158,-0.273"/><path id="path58" style="fill:#ffd700;fill-opacity:1;fill-rule:nonzero;stroke:none" d="m 8.5098,8.2305 c 0.28,0 0.51,-0.141 0.68,-0.4 h -1.25 c 0.091,0.25 0.341,0.4 0.57,0.4"/><path id="path59" style="fill:#ffd700;fill-opacity:1;fill-rule:nonzero;stroke:none" d="m 10.4102,8.5596 c -0.02,-0.319 -0.07,-0.489 -0.16,-0.729 h -0.83 c -0.09,0.24 -0.14,0.41 -0.16,0.729 -0.04,0.79 0.58,1.29 0.58,1.29 0,0 0.61,-0.5 0.57,-1.29"/><path id="path60" style="fill:#ffd700;fill-opacity:1;fill-rule:nonzero;stroke:none" d="m 11.7402,7.8301 h -1.25 c 0.17,0.26 0.4,0.4 0.68,0.4 0.22,0 0.47,-0.15 0.57,-0.4"/><path id="path61" style="fill:#ffd700;fill-opacity:1;fill-rule:nonzero;stroke:none" d="m 12.5552,20.8643 c 0,0 -0.133,0.132 -0.158,0.273 -0.05,0.282 -0.035,0.539 -0.035,0.539 0,0 -0.11,-0.113 -0.348,-0.124 -0.182,-0.008 -0.271,0.052 -0.271,0.052 0,0 0.201,0.091 0.328,0.243 0.143,0.174 0.17,0.283 0.17,0.283 h -0.264 c 0,0 -0.113,-0.02 -0.113,0.118 0,0.137 0.113,0.117 0.113,0.117 h 0.046 c 0,0 0.026,0.318 -0.162,0.6 -0.081,0.121 -0.212,0.208 -0.358,0.208 -0.137,0 -0.161,-0.137 -0.161,-0.211 0,-0.186 0.065,-0.38 0.065,-0.38 0,0 -0.783,0.204 -0.783,0.898 0,0.378 0.315,0.603 0.601,0.603 0.407,0 0.705,-0.301 0.875,-0.793 0.136,-0.392 0.183,-0.925 0.183,-0.925 h 0.102 c 0,0 0.036,0.547 -0.163,1.091 -0.14,0.379 -0.224,0.551 -0.243,0.959 -0.036,0.794 0.576,1.288 0.576,1.288 0,0 0.612,-0.494 0.576,-1.288 -0.019,-0.408 -0.103,-0.58 -0.243,-0.959 -0.2,-0.544 -0.164,-1.091 -0.164,-1.091 h 0.103 c 0,0 0.046,0.533 0.182,0.925 0.171,0.492 0.469,0.793 0.875,0.793 0.287,0 0.602,-0.225 0.602,-0.603 0,-0.694 -0.783,-0.898 -0.783,-0.898 0,0 0.064,0.194 0.064,0.38 0,0.074 -0.023,0.211 -0.161,0.211 -0.145,0 -0.277,-0.087 -0.358,-0.208 -0.187,-0.282 -0.161,-0.6 -0.161,-0.6 h 0.045 c 0,0 0.113,0.02 0.113,-0.117 0,-0.138 -0.113,-0.118 -0.113,-0.118 h -0.263 c 0,0 0.026,-0.109 0.17,-0.283 0.127,-0.152 0.328,-0.243 0.328,-0.243 0,0 -0.089,-0.06 -0.271,-0.052 -0.238,0.011 -0.348,0.124 -0.348,0.124 0,0 0.015,-0.257 -0.035,-0.539 -0.025,-0.141 -0.158,-0.273 -0.158,-0.273"/><path id="path62" style="fill:#ffd700;fill-opacity:1;fill-rule:nonzero;stroke:none" d="m 12.5552,10.293 c 0,0 -0.133,0.132 -0.158,0.273 -0.05,0.282 -0.035,0.539 -0.035,0.539 0,0 -0.11,-0.113 -0.348,-0.124 -0.182,-0.008 -0.271,0.052 -0.271,0.052 0,0 0.201,0.091 0.328,0.243 0.143,0.174 0.17,0.284 0.17,0.284 h -0.264 c 0,0 -0.113,-0.021 -0.113,0.117 0,0.137 0.113,0.118 0.113,0.118 h 0.046 c 0,0 0.026,0.317 -0.162,0.599 -0.081,0.122 -0.212,0.208 -0.358,0.208 -0.137,0 -0.161,-0.137 -0.161,-0.211 0,-0.186 0.065,-0.38 0.065,-0.38 0,0 -0.783,0.204 -0.783,0.898 0,0.378 0.315,0.603 0.601,0.603 0.407,0 0.705,-0.301 0.875,-0.792 0.136,-0.393 0.183,-0.925 0.183,-0.925 h 0.102 c 0,0 0.036,0.547 -0.163,1.091 -0.14,0.378 -0.224,0.55 -0.243,0.958 -0.036,0.794 0.576,1.289 0.576,1.289 0,0 0.612,-0.495 0.576,-1.289 -0.019,-0.408 -0.103,-0.58 -0.243,-0.958 -0.2,-0.544 -0.164,-1.091 -0.164,-1.091 h 0.103 c 0,0 0.046,0.532 0.182,0.925 0.171,0.491 0.469,0.792 0.875,0.792 0.287,0 0.602,-0.225 0.602,-0.603 0,-0.694 -0.783,-0.898 -0.783,-0.898 0,0 0.064,0.194 0.064,0.38 0,0.074 -0.023,0.211 -0.161,0.211 -0.145,0 -0.277,-0.086 -0.358,-0.208 -0.187,-0.282 -0.161,-0.599 -0.161,-0.599 h 0.045 c 0,0 0.113,0.019 0.113,-0.118 0,-0.138 -0.113,-0.117 -0.113,-0.117 h -0.263 c 0,0 0.026,-0.11 0.17,-0.284 0.127,-0.152 0.328,-0.243 0.328,-0.243 0,0 -0.089,-0.06 -0.271,-0.052 -0.238,0.011 -0.348,0.124 -0.348,0.124 0,0 0.015,-0.257 -0.035,-0.539 -0.025,-0.141 -0.158,-0.273 -0.158,-0.273"/><path id="path63" style="fill:#ffd700;fill-opacity:1;fill-rule:nonzero;stroke:none" d="m 14.0698,28.1699 c 0.01,-0.16 0.06,-0.3 0.06,-0.3 0,0 -0.3,0.08 -0.53,0.3 z"/><path id="path64" style="fill:#ffd700;fill-opacity:1;fill-rule:nonzero;stroke:none" d="m 15.7598,27.1299 c 0.12,-0.15 0.33,-0.24 0.33,-0.24 0,0 -0.09,-0.06 -0.28,-0.05 -0.23,0.01 -0.34,0.12 -0.34,0.12 0,0 0.01,-0.26 -0.04,-0.54 -0.02,-0.14 -0.16,-0.27 -0.16,-0.27 0,0 -0.13,0.13 -0.15,0.27 -0.05,0.28 -0.04,0.54 -0.04,0.54 0,0 -0.11,-0.11 -0.35,-0.12 -0.18,-0.01 -0.27,0.05 -0.27,0.05 0,0 0.2,0.09 0.33,0.24 0.14,0.18 0.17,0.29 0.17,0.29 h -0.26 c 0,0 -0.12,-0.02 -0.12,0.11 0,0.14 0.12,0.12 0.12,0.12 h 0.04 c 0,0 0.02,0.26 -0.12,0.52 h 0.31 c 0.05,-0.28 0.07,-0.52 0.07,-0.52 h 0.1 c 0,0 0.02,0.22 -0.03,0.52 h 0.4 c -0.04,-0.3 -0.03,-0.52 -0.03,-0.52 h 0.11 c 0,0 0.02,0.24 0.07,0.52 h 0.31 c -0.14,-0.26 -0.12,-0.52 -0.12,-0.52 h 0.04 c 0,0 0.11,0.02 0.11,-0.12 0,-0.13 -0.11,-0.11 -0.11,-0.11 h -0.26 c 0,0 0.02,-0.11 0.17,-0.29"/><path id="path65" style="fill:#ffd700;fill-opacity:1;fill-rule:nonzero;stroke:none" d="m 16.9399,28.1699 c -0.22,-0.22 -0.52,-0.3 -0.52,-0.3 0,0 0.05,0.14 0.06,0.3 z"/><path id="path66" style="fill:#ffd700;fill-opacity:1;fill-rule:nonzero;stroke:none" d="m 15.2739,15.5791 c 0,0 -0.133,0.132 -0.158,0.273 -0.05,0.281 -0.035,0.539 -0.035,0.539 0,0 -0.11,-0.113 -0.348,-0.125 -0.182,-0.007 -0.271,0.052 -0.271,0.052 0,0 0.201,0.092 0.328,0.244 0.143,0.173 0.17,0.283 0.17,0.283 h -0.264 c 0,0 -0.113,-0.02 -0.113,0.118 0,0.137 0.113,0.117 0.113,0.117 h 0.046 c 0,0 0.026,0.318 -0.162,0.599 -0.081,0.122 -0.212,0.208 -0.358,0.208 -0.137,0 -0.16,-0.137 -0.16,-0.211 0,-0.186 0.064,-0.379 0.064,-0.379 0,0 -0.783,0.203 -0.783,0.898 0,0.377 0.315,0.602 0.601,0.602 0.407,0 0.705,-0.301 0.875,-0.792 0.136,-0.392 0.183,-0.925 0.183,-0.925 h 0.103 c 0,0 0.035,0.547 -0.164,1.091 -0.14,0.379 -0.224,0.55 -0.243,0.958 -0.036,0.794 0.576,1.289 0.576,1.289 0,0 0.612,-0.495 0.576,-1.289 -0.019,-0.408 -0.103,-0.579 -0.243,-0.958 -0.2,-0.544 -0.164,-1.091 -0.164,-1.091 h 0.103 c 0,0 0.047,0.533 0.183,0.925 0.17,0.491 0.468,0.792 0.874,0.792 0.287,0 0.602,-0.225 0.602,-0.602 0,-0.695 -0.783,-0.898 -0.783,-0.898 0,0 0.064,0.193 0.064,0.379 0,0.074 -0.023,0.211 -0.161,0.211 -0.145,0 -0.277,-0.086 -0.357,-0.208 -0.188,-0.281 -0.162,-0.599 -0.162,-0.599 h 0.045 c 0,0 0.113,0.02 0.113,-0.117 0,-0.138 -0.113,-0.118 -0.113,-0.118 h -0.263 c 0,0 0.026,-0.11 0.17,-0.283 0.127,-0.152 0.328,-0.244 0.328,-0.244 0,0 -0.089,-0.059 -0.271,-0.052 -0.238,0.012 -0.348,0.125 -0.348,0.125 0,0 0.015,-0.258 -0.035,-0.539 -0.025,-0.141 -0.158,-0.273 -0.158,-0.273"/><path id="path67" style="fill:#ffd700;fill-opacity:1;fill-rule:nonzero;stroke:none" d="m 13.9399,8.2305 c 0.28,0 0.51,-0.141 0.68,-0.4 h -1.25 c 0.1,0.25 0.35,0.4 0.57,0.4"/><path id="path68" style="fill:#ffd700;fill-opacity:1;fill-rule:nonzero;stroke:none" d="m 15.8501,8.5596 c -0.02,-0.319 -0.07,-0.489 -0.16,-0.729 h -0.83 c -0.09,0.24 -0.14,0.41 -0.16,0.729 -0.04,0.79 0.57,1.29 0.57,1.29 0,0 0.62,-0.5 0.58,-1.29"/><path id="path69" style="fill:#ffd700;fill-opacity:1;fill-rule:nonzero;stroke:none" d="m 17.1699,7.8301 h -1.25 c 0.17,0.26 0.4,0.4 0.68,0.4 0.23,0 0.48,-0.15 0.57,-0.4"/></g><g id="g36"><path id="path28" style="fill:#ed2939;fill-opacity:1;fill-rule:nonzero;stroke:none" d="m 23.0195,15.5 c -0.92,-1.76 -2.949,-3.44 -3.81,-4.1 -0.049,0.04 -0.099,0.08 -0.15,0.13 0.981,0.89 2.08,2.07 2.75,3.33 0.75,1.44 0.74,3.12 -0.019,4.39 -0.01,0.01 -0.021,0.03 -0.031,0.04 0.05,0.01 0.101,0.01 0.151,0.01 0.429,0 0.839,-0.28 1.13,-0.76 0.389,-0.64 0.62,-1.83 -0.021,-3.04 m -5.02,-3.09 c -0.91,0.81 -2,1.93 -2.6,3.09 -0.63,1.21 -0.4,2.4 -0.009,3.04 0.079,0.13 0.159,0.24 0.259,0.34 0.4,-0.22 0.641,-0.45 0.65,-0.46 l 0.491,-0.48 0.479,0.48 c 0.011,0.01 0.271,0.26 0.73,0.49 0.46,-0.23 0.72,-0.48 0.731,-0.49 l 0.479,-0.48 0.491,0.48 c 0.009,0.01 0.25,0.24 0.649,0.46 0.101,-0.1 0.181,-0.21 0.261,-0.34 0.389,-0.64 0.62,-1.83 -0.011,-3.04 -0.6,-1.16 -1.689,-2.28 -2.6,-3.09 m -1.209,-1.01 c -0.86,0.66 -2.891,2.34 -3.811,4.1 -0.64,1.21 -0.41,2.4 -0.02,3.04 0.29,0.48 0.701,0.76 1.13,0.76 0.051,0 0.1,0 0.151,-0.01 -0.011,-0.01 -0.021,-0.03 -0.031,-0.04 -0.759,-1.27 -0.77,-2.95 -0.02,-4.39 0.67,-1.26 1.77,-2.44 2.75,-3.33 -0.049,-0.05 -0.1,-0.09 -0.149,-0.13 m 1.209,10.61 c 1.231,0 2.291,-0.25 2.92,-0.44 l -0.45,-1.11 c -0.309,0.14 -0.649,0.21 -0.989,0.21 -0.551,0 -1.05,-0.11 -1.481,-0.26 -0.43,0.15 -0.93,0.26 -1.48,0.26 -0.339,0 -0.68,-0.07 -0.989,-0.21 l -0.45,1.11 c 0.629,0.19 1.689,0.44 2.919,0.44 m 6.21,-2.76 c -0.519,0.86 -1.309,1.37 -2.179,1.41 l 0.96,2.33 -1.271,0.52 -0.34,-0.84 c -0.179,0.05 -0.389,0.11 -0.63,0.17 l 0.17,0.88 -1.349,0.26 -0.17,-0.88 c -0.261,0.03 -0.53,0.06 -0.811,0.07 v 1.1 h 0.88 v 1.04 h -0.88 v 0.78 h -1.179 v -0.78 h -0.88 v -1.04 h 0.88 v -1.1 c -0.281,-0.01 -0.551,-0.04 -0.81,-0.07 l -0.17,0.88 -1.35,-0.26 0.169,-0.88 c -0.24,-0.06 -0.45,-0.12 -0.629,-0.17 l -0.34,0.84 -1.271,-0.52 0.96,-2.33 c -0.869,-0.04 -1.659,-0.55 -2.179,-1.41 -0.771,-1.27 -0.781,-2.95 -0.031,-4.39 1.33,-2.54 4.5,-4.78 4.631,-4.87 l 0.4,-0.28 0.39,0.28 c 0.039,0.03 0.36,0.26 0.819,0.63 0.46,-0.37 0.781,-0.6 0.821,-0.63 l 0.389,-0.28 0.401,0.28 c 0.13,0.09 3.3,2.33 4.63,4.87 0.75,1.44 0.74,3.12 -0.031,4.39"/></g><g id="g37"><path id="path70" style="fill:#eeeeee;fill-opacity:1;fill-rule:nonzero;stroke:none" d="m 2.4019,29.9287 c 0,0 -0.003,-0.021 -0.005,-0.056 -0.003,-0.046 -0.016,-0.063 -0.016,-0.063 0,0 0.017,-0.015 0.039,-0.041 0.03,-0.038 0.057,-0.084 0.065,-0.09 0.021,-0.014 0.038,-0.006 0.038,-0.006 0,0 0.002,-0.018 -0.01,-0.029 -0.015,-0.013 -0.03,-0.005 -0.03,-0.005 0,0 0,-0.007 0.007,-0.019 0.008,-0.01 0.021,-0.024 0.026,-0.033 0.008,-0.019 -10e-4,-0.045 0.012,-0.059 0.013,-0.016 0.032,-0.006 0.032,-0.006 0,0 0.002,-0.018 -0.014,-0.032 -0.022,-0.02 -0.041,-0.004 -0.041,-0.004 0,0 0,-0.009 0.005,-0.017 0.005,-0.009 0.016,-0.018 0.023,-0.033 0.014,-0.031 -0.001,-0.049 0.008,-0.079 0.009,-0.03 0.033,-0.022 0.033,-0.022 0,0 10e-4,-0.012 -0.017,-0.026 -0.018,-0.012 -0.035,-0.004 -0.035,-0.004 0,0 -0.003,-0.009 0.014,-0.042 0.01,-0.017 0.012,-0.057 0.003,-0.081 -0.01,-0.028 -0.024,-0.044 -0.024,-0.068 0,-0.058 0.055,-0.072 0.055,-0.072 0,0 -0.01,-0.032 -0.039,-0.033 -0.038,-0.002 -0.047,0.033 -0.047,0.033 0,0 -0.005,-0.016 0.005,-0.039 0.013,-0.032 0.003,-0.076 -0.012,-0.106 -0.026,-0.052 -0.03,-0.076 -0.03,-0.076 0,0 0.011,-0.038 0.035,-0.077 0.024,-0.039 0.067,-0.093 0.095,-0.148 0.023,-0.047 0.037,-0.097 0.051,-0.14 0.01,-0.033 0.018,-0.056 0.018,-0.056 0,0 0.04,-0.07 0.106,-0.07 0.071,0 0.087,0.07 0.087,0.129 0,0.039 -0.033,0.137 -0.07,0.212 -0.034,0.067 -0.07,0.134 -0.07,0.253 0,0.133 0.072,0.225 0.151,0.313 0.087,0.098 0.151,0.13 0.189,0.226 0.023,0.057 0.026,0.112 0.02,0.151 -0.01,0.081 -0.066,0.118 -0.118,0.118 -0.057,0 -0.095,-0.038 -0.102,-0.074 -0.012,-0.053 0.008,-0.103 0.059,-0.103 0.059,0 0.066,0.053 0.066,0.053 0,0 0.021,-0.04 -0.008,-0.084 -0.037,-0.054 -0.104,-0.026 -0.104,-0.026 0,0 0.02,-0.085 -0.032,-0.159 -0.053,-0.078 -0.141,-0.071 -0.141,-0.071 0,0 0.06,0.038 0.076,0.114 0.022,0.117 -0.02,0.15 -0.019,0.242 0,0.09 0.03,0.117 0.03,0.123 0,0.004 -0.005,0.009 -0.011,0.011 -0.02,0.007 -0.038,0.041 -0.034,0.072 0.007,0.06 0.034,0.044 0.059,0.09 0.016,0.03 0.013,0.063 0.013,0.063 0,0 0.037,-0.023 0.037,-0.063 0,-0.055 -0.05,-0.049 -0.05,-0.092 0,-0.032 0.023,-0.032 0.036,-0.026 0.012,0.005 0.046,0.038 0.129,0.038 0.127,0 0.213,-0.104 0.213,-0.249 0,-0.05 -0.006,-0.147 -0.059,-0.23 -0.074,-0.117 -0.187,-0.18 -0.259,-0.307 -0.043,-0.08 -0.031,-0.135 -0.031,-0.135 0,0 0.035,0.135 0.207,0.235 0.179,0.103 0.154,0.239 0.154,0.239 0,0 0.052,-0.066 0.015,-0.193 -0.038,-0.13 -0.185,-0.129 -0.277,-0.283 -0.055,-0.094 -0.039,-0.168 -0.039,-0.168 0,0 0.036,0.106 0.162,0.169 0.107,0.054 0.108,0.135 0.108,0.135 0,0 0.046,-0.061 0.005,-0.147 -0.034,-0.073 -0.149,-0.103 -0.19,-0.187 -0.038,-0.081 -0.021,-0.131 -0.021,-0.131 0,0 0.041,0.083 0.108,0.083 0.05,0 0.088,-0.052 0.088,-0.111 0,-0.097 -0.079,-0.129 -0.079,-0.199 0,-0.033 0.021,-0.044 0.021,-0.044 0,0 -0.057,-0.011 -0.064,0.049 -0.003,0.022 0.01,0.063 0.029,0.101 0.029,0.056 0.014,0.089 -0.005,0.097 -0.02,0.008 -0.042,-0.012 -0.055,-0.045 -0.015,-0.035 -0.019,-0.086 -0.036,-0.126 -0.037,-0.087 -0.079,-0.114 -0.079,-0.114 0,0 0.022,-0.015 0.023,-0.045 10e-4,-0.02 -0.006,-0.035 -0.006,-0.035 0,0 -0.023,0.035 -0.053,0.04 -0.032,0.005 -0.048,-0.016 -0.079,-0.013 -0.03,0.002 -0.075,0.026 -0.081,0.028 -0.007,0.001 -0.014,0.002 -0.014,0.002 0,0 -0.006,-0.009 -0.013,-0.022 -0.005,-0.01 -0.011,-0.022 -0.011,-0.036 0,-0.024 0.017,-0.034 0.037,-0.052 0.029,-0.027 0.056,-0.053 0.086,-0.053 0.033,0 0.053,0.022 0.075,0.022 0.022,0 0.044,-0.006 0.044,-0.006 0,0 -0.054,-0.054 -0.054,-0.076 0,-0.032 0.051,-0.04 0.066,-0.046 0.01,-0.005 0.03,-0.027 0.031,-0.035 10e-4,-0.022 -0.012,-0.042 -0.011,-0.073 0,-0.022 0.017,-0.034 0.044,-0.034 0.033,0 0.053,0.009 0.053,0.009 0,0 -0.004,-0.027 -0.04,-0.056 -0.036,-0.03 -0.087,-0.035 -0.087,-0.035 0,0 0.006,-0.025 0.028,-0.038 0.017,-0.01 0.05,-0.006 0.05,-0.006 0,0 -0.018,-0.032 -0.047,-0.052 -0.037,-0.025 -0.075,-0.027 -0.075,-0.027 0,0 0.008,-0.021 0.028,-0.034 0.015,-0.011 0.043,-0.014 0.043,-0.014 0,0 -0.008,-0.033 -0.059,-0.052 -0.06,-0.021 -0.064,-0.032 -0.075,-0.078 -0.009,-0.042 -0.05,-0.064 -0.05,-0.064 0,0 0.015,-0.019 0.006,-0.053 -0.006,-0.024 -0.028,-0.032 -0.028,-0.032 0,0 -0.012,-0.009 -0.018,-0.039 -0.006,-0.03 0.009,-0.058 0.009,-0.058 0,0 -0.034,0 -0.051,0.041 -0.019,0.044 0.003,0.076 0.003,0.076 0,0 0,0.011 0.003,0.02 0.004,0.013 0.004,0.027 -0.004,0.027 -0.011,0 -0.006,-0.022 -0.035,-0.045 -0.026,-0.021 -0.037,-0.01 -0.037,-0.01 0,0 -0.011,-0.007 -0.018,-0.032 -0.009,-0.028 -0.006,-0.051 -0.006,-0.051 0,0 -0.032,0.013 -0.037,0.056 -0.01,0.068 0.03,0.092 0.03,0.092 0,0 0.004,0.011 0.02,0.02 0.013,0.007 0.029,0.016 0.025,0.022 -0.006,0.011 -0.031,-0.011 -0.053,-0.011 -0.017,0 -0.026,0.025 -0.026,0.025 0,0 -0.018,0.011 -0.037,-0.005 -0.016,-0.014 -0.029,-0.039 -0.029,-0.039 0,0 -0.017,0.053 0.017,0.094 0.026,0.032 0.062,0.015 0.062,0.015 0,0 0.011,0.009 0.024,0.01 0.011,0 0.022,-0.007 0.028,-0.007 0.006,0 0.034,0.026 0.032,0.031 -0.002,0.004 -0.019,-0.002 -0.034,0.005 -0.012,0.004 -0.009,0.021 -0.009,0.021 0,0 -0.016,0.013 -0.035,0.01 -0.02,-0.004 -0.034,-0.022 -0.034,-0.022 0,0 0.002,0.049 0.037,0.073 0.034,0.023 0.074,-0.006 0.074,-0.006 0,0 0.006,0.004 0.01,0.004 0.007,0 0.018,-0.022 0.026,-0.022 0.013,0 0.031,0.042 0.031,0.096 0,0.055 -0.021,0.097 -0.021,0.097 0,0 -0.02,0.012 -0.046,0.03 -0.044,0.034 -0.092,0.076 -0.114,0.089 -0.007,0.005 -0.032,0.017 -0.051,0.028 -0.019,0.011 -0.034,0.021 -0.034,0.021 0,0 0.022,-0.061 0.004,-0.11 -0.031,-0.082 -0.087,-0.087 -0.087,-0.087 0,0 0.013,0.031 0.008,0.085 -0.004,0.047 -0.015,0.096 -0.04,0.136 -0.031,0.051 -0.013,0.096 -0.013,0.096 0,0 -0.026,-0.011 -0.057,-0.02 -0.028,-0.009 -0.053,-0.013 -0.083,-0.037 -0.042,-0.035 -0.066,-0.094 -0.066,-0.158 0,-0.089 0.034,-0.112 0.034,-0.15 0,-0.029 -0.017,-0.039 -0.02,-0.039 -0.004,0 -0.008,0.002 -0.011,0.002 -0.003,0 -0.014,-0.006 -0.006,-0.037 0.008,-0.033 0.018,-0.044 0.018,-0.044 0,0 -0.026,-0.007 -0.066,0.009 -0.032,0.013 -0.053,0.047 -0.053,0.047 0,0 -0.01,-0.009 0.001,-0.053 0.006,-0.029 0.018,-0.051 0.018,-0.051 0,0 -0.023,0.004 -0.058,0.025 -0.043,0.026 -0.048,0.061 -0.048,0.061 0,0 -0.008,-0.016 -0.011,-0.043 -0.004,-0.027 -0.002,-0.063 -0.002,-0.063 0,0 -0.025,0.002 -0.065,0.063 -0.011,0.017 -0.026,0.031 -0.036,0.033 -0.011,0.002 -0.032,-0.001 -0.034,-0.005 -0.004,-0.006 0.002,-0.059 -0.006,-0.079 -0.008,-0.021 -0.021,-0.017 -0.021,-0.017 0,0 -0.011,-0.041 -0.039,-0.049 -0.035,-0.01 -0.069,0.022 -0.069,0.022 0,0 0.024,0 0.038,0.014 0.01,0.011 0.011,0.032 0.011,0.032 0,0 -0.014,0.014 -0.014,0.023 0,0.014 0.025,0.02 0.017,0.042 -0.006,0.016 -0.018,0.008 -0.054,-0.002 -0.036,-0.012 -0.068,-0.016 -0.08,-0.011 -0.012,0.004 -0.019,0.021 -0.019,0.021 0,0 -0.015,0.008 -0.036,-0.001 -0.02,-0.008 -0.031,-0.029 -0.031,-0.029 0,0 -0.014,0.04 0.01,0.075 0.019,0.029 0.051,0.022 0.051,0.022 0,0 -0.003,0.021 0.022,0.012 0.02,-0.007 0.037,-0.021 0.04,0.003 0.002,0.016 -0.023,0.009 -0.05,0.022 -0.025,0.013 -0.025,0.029 -0.025,0.029 0,0 -0.022,0.024 -0.046,0.024 -0.023,0 -0.038,-0.013 -0.038,-0.013 0,0 -0.004,0.051 0.043,0.069 0.038,0.014 0.069,-0.014 0.069,-0.014 0,0 0.01,0.01 0.038,-0.018 0.017,-0.018 0.027,-0.031 0.034,-0.013 0.007,0.019 -0.023,0.027 -0.035,0.048 -0.01,0.019 -0.003,0.033 -0.003,0.033 0,0 -0.006,0.022 -0.022,0.034 -0.016,0.011 -0.041,0.012 -0.041,0.012 0,0 0.026,0.038 0.065,0.029 0.048,-0.012 0.061,-0.062 0.061,-0.062 0,0 0.019,-0.012 0.038,-0.033 0.02,-0.022 0.027,-0.035 0.054,-0.035 0.037,0 0.05,0.023 0.08,0.034 0.015,0.005 0.09,0.013 0.09,0.043 0,0.006 -0.008,0.024 -0.041,0.094 -0.033,0.071 -0.021,0.108 -0.021,0.108 0,0 -0.036,-0.013 -0.071,0.009 -0.025,0.016 -0.039,0.041 -0.039,0.041 0,0 0.054,0.002 0.092,0.037 0.03,0.027 0.025,0.074 0.035,0.109 0.012,0.043 0.034,0.079 0.07,0.107 0.059,0.045 0.141,0.028 0.22,0.018 0.104,-0.014 0.145,-0.011 0.145,-0.011 0,0 -0.008,0.014 -0.027,0.033 -0.024,0.026 -0.057,0.045 -0.057,0.045 0,0 0.017,0 0.051,-0.017 0.056,-0.029 0.077,-0.05 0.077,-0.05 0,0 -0.026,0.058 -0.086,0.112 -0.106,0.095 -0.121,0.164 -0.149,0.184 -0.023,0.018 -0.043,0.013 -0.043,0.013 0,0 -0.011,-0.008 -0.023,-0.028 -0.014,-0.027 -0.008,-0.057 -0.008,-0.057 0,0 -0.002,0 -0.007,0.002 -0.004,0.001 -0.006,0.003 -0.006,0.003 0,0 -0.008,-0.014 -0.029,-0.029 -0.023,-0.015 -0.051,-0.022 -0.051,-0.057 0,-0.038 0.042,-0.072 0.042,-0.072 0,0 -0.023,-0.008 -0.065,0.006 -0.051,0.017 -0.074,0.047 -0.074,0.047 0,0 -0.011,-0.022 -0.016,-0.053 -0.006,-0.038 0.004,-0.06 0.004,-0.06 0,0 -0.017,-0.004 -0.054,0.022 -0.034,0.023 -0.058,0.054 -0.058,0.054 0,0 0.012,-0.025 -0.006,-0.07 -0.015,-0.04 -0.037,-0.063 -0.037,-0.063 0,0 -0.015,0.039 -0.026,0.058 -0.013,0.021 -0.035,0.039 -0.063,0.039 -0.032,0 -0.062,-0.015 -0.069,-0.021 -0.009,-0.01 -0.04,-0.086 -0.051,-0.101 -0.006,-0.007 -0.017,-0.011 -0.017,-0.011 0,0 -0.008,-0.021 -0.004,-0.047 0.004,-0.026 0.013,-0.043 0.013,-0.043 0,0 -0.041,0.004 -0.062,0.034 -0.025,0.036 -0.01,0.073 -0.01,0.073 0,0 -0.009,0.009 -0.009,0.019 0,0.01 0.022,0.035 0.031,0.047 0.007,0.011 -0.003,0.021 -0.01,0.021 -0.007,0 -0.02,-0.02 -0.045,-0.032 -0.018,-0.008 -0.033,0.001 -0.033,0.001 0,0 -0.014,-0.01 -0.023,-0.032 -0.008,-0.022 -0.012,-0.051 -0.012,-0.051 0,0 -0.037,0.031 -0.026,0.094 0.006,0.034 0.035,0.055 0.035,0.055 0,0 0.003,0.021 0.01,0.029 0.015,0.019 0.066,0.005 0.066,0.027 0,0.007 -0.007,0.014 -0.012,0.016 -0.008,0.002 -0.048,-0.008 -0.057,-0.002 -0.007,0.004 -0.013,0.02 -0.013,0.02 0,0 -0.02,0.004 -0.043,-0.009 -0.024,-0.012 -0.037,-0.033 -0.037,-0.033 0,0 0,0.054 0.032,0.086 0.028,0.028 0.065,0.026 0.065,0.026 0,0 0.012,0.015 0.027,0.014 0.02,0 0.039,-0.015 0.052,-0.015 0.014,0 0.049,0.015 0.049,0.03 0,0.021 -0.038,0.036 -0.038,0.055 0,0.009 0.007,0.017 0.007,0.017 0,0 -0.01,0.013 -0.029,0.017 -0.02,0.003 -0.036,-0.006 -0.036,-0.006 0,0 0.013,0.035 0.048,0.048 0.034,0.012 0.069,-0.028 0.069,-0.028 0,0 0.017,0.003 0.026,-0.003 0.022,-0.015 0.036,-0.054 0.049,-0.054 0.011,0 0.07,0.024 0.086,0.041 0.017,0.017 0.003,0.005 0.046,0.045 0.042,0.039 0.054,0.05 0.081,0.07 0.027,0.019 0.039,0.033 0.039,0.033 0,0 -0.002,0.003 -0.005,0.007 -0.002,0.004 -0.003,0.008 -0.003,0.008 0,0 0.004,-0.001 0.011,-0.002 0.008,-0.001 0.012,-0.001 0.012,-0.001 0,0 0.005,0.008 0.013,0.017 0.008,0.008 0.013,0.012 0.013,0.012 0,0 -0.035,0.005 -0.073,0.052 -0.037,0.047 -0.038,0.105 -0.038,0.105 0,0 -0.007,-0.022 -0.027,-0.062 -0.02,-0.039 -0.029,-0.07 -0.029,-0.07 0,0 -0.019,0.082 0.001,0.138 0.021,0.058 0.002,0.095 0.002,0.095 0,0 -0.001,-0.014 -0.022,-0.042 -0.018,-0.023 -0.035,-0.043 -0.035,-0.043 0,0 0,0.031 0.013,0.109 0.011,0.066 -0.01,0.099 -0.01,0.099 0,0 -0.001,-0.021 -0.011,-0.041 -0.01,-0.021 -0.024,-0.035 -0.024,-0.035 0,0 0.003,0.022 -0.006,0.062 -0.011,0.052 -0.005,0.064 -0.016,0.088 -0.006,0.015 -0.02,0.023 -0.029,0.023 -0.011,0 -0.041,-0.044 -0.067,-0.044 -0.007,0 -0.012,10e-4 -0.012,10e-4 0,0 -0.049,-0.026 -0.083,0.012 -0.031,0.036 -0.034,0.066 -0.034,0.066 0,0 0.017,-0.011 0.038,-0.016 0.021,-0.004 0.044,0.007 0.044,0.007 0,0 -0.001,0.017 0.01,0.03 0.01,0.014 0.039,0.015 0.039,0.042 0,0.023 -0.019,0.06 -0.033,0.079 -0.015,0.021 -0.029,0.039 -0.049,0.041 -0.021,10e-4 -0.04,0.005 -0.052,0.02 -0.014,0.014 -0.012,0.04 -0.012,0.04 0,0 -0.014,0.027 -0.033,0.027 -0.018,0 -0.045,-0.023 -0.045,-0.023 0,0 0.014,0.089 0.067,0.089 0.03,0 0.06,-0.026 0.06,-0.026 0,0 0.019,-0.001 0.037,-0.017 0.018,-0.017 0.021,-0.022 0.023,-0.022 0.002,0 0.012,0.006 0.012,0.011 0,0.017 -0.042,0.037 -0.042,0.063 0,0.012 0.013,0.029 0.013,0.029 0,0 -0.002,0.026 -0.021,0.034 -0.019,0.006 -0.053,0 -0.053,0 0,0 0.024,0.052 0.07,0.052 0.06,0 0.07,-0.054 0.07,-0.054 0,0 0.024,0.005 0.028,-0.041 0.003,-0.035 0.008,-0.045 0.019,-0.045 0.011,0 0.014,0.016 0.023,0.041 0.008,0.025 0.025,0.022 0.025,0.022 0,0 0.004,0.019 -0.005,0.036 -0.008,0.016 -0.029,0.023 -0.029,0.023 0,0 0.054,0.035 0.088,-0.022 0.029,-0.05 0.006,-0.097 0.006,-0.097 0,0 0.004,-0.023 -0.005,-0.046 -0.01,-0.025 -0.021,-0.032 -0.021,-0.051 0,-0.037 0.045,-0.086 0.07,-0.123 0.024,-0.036 0.052,-0.076 0.108,-0.125 0.056,-0.048 0.161,-0.119 0.161,-0.119 0,0 0.004,0.04 0.023,0.073 0.019,0.033 0.04,0.044 0.04,0.044 0,0 -0.008,-0.065 0.023,-0.113 0.05,-0.074 0.137,-0.054 0.186,-0.029 0.037,0.019 0.033,0.044 0.033,0.044 0,0 -0.013,0.005 -0.045,0.003 -0.031,-0.002 -0.044,-0.003 -0.044,-0.003 0,0 -0.005,-0.003 -0.009,-0.016 -0.004,-0.015 -0.006,-0.028 -0.006,-0.028 0,0 -0.005,0 -0.013,0.021 -0.012,0.034 -0.032,0.025 -0.039,0.036 -0.004,0.007 -10e-4,0.015 0,0.029 0.002,0.019 0.006,0.027 0.006,0.027 0,0 -0.004,0.009 -0.006,0.019 -10e-4,0.01 -10e-4,0.023 -10e-4,0.023 0,0 0.003,-0.006 0.012,-0.016 0.008,-0.01 0.017,-0.017 0.017,-0.017 0.022,-0.002 0.033,-0.013 0.07,10e-4 0.045,0.017 0.059,0.046 0.059,0.046 0,0 -0.017,0.013 -0.051,0.013 -0.033,0 -0.054,-0.018 -0.114,-0.018 -0.028,0 -0.066,0.01 -0.081,0.031 -0.021,0.03 -0.012,0.068 -0.012,0.068 0,0 0.019,-0.084 0.133,-0.034 0.083,0.037 0.152,0.005 0.152,0.005 0,0 0.006,0.034 -0.002,0.073 -0.009,0.039 -0.032,0.049 -0.048,0.05 -0.021,0 -0.045,-0.017 -0.077,-0.024 -0.031,-0.006 -0.058,-0.003 -0.058,-0.003 0,0 -0.007,-0.016 -0.012,-0.034 -0.006,-0.018 -0.007,-0.031 -0.007,-0.031 0,0 -0.015,0.008 -0.021,0.034 -0.004,0.019 -0.001,0.039 -0.001,0.039 0,0 -0.012,-10e-4 -0.023,0.021 -0.006,0.011 -0.011,0.034 -0.008,0.054 0.003,0.02 0.003,0.036 0.003,0.036 0,0 -0.002,-0.003 -0.006,-0.003 -0.004,0 -0.013,0.011 -0.013,0.017 0,0.006 0.022,0.027 0.044,0.03 0.026,0.003 0.056,-0.003 0.056,-0.003 0,0 -0.014,0.025 -0.014,0.032 0,0.004 0.002,0.012 0.015,0.02 0.026,0.016 0.073,0.043 0.12,0.043 0.059,0 0.141,-0.022 0.141,-0.022 0,0 0.005,0.041 0.047,0.055 0.043,0.015 0.054,0.023 0.054,0.023"/></g></g></g></g></svg>