<svg xmlns:dc="http://purl.org/dc/elements/1.1/" xmlns:cc="http://creativecommons.org/ns#" xmlns:rdf="http://www.w3.org/1999/02/22-rdf-syntax-ns#" xmlns:svg="http://www.w3.org/2000/svg" xmlns="http://www.w3.org/2000/svg" viewBox="0 0 45 45" style="enable-background:new 0 0 45 45;" xml:space="preserve" version="1.1" id="svg2"><metadata id="metadata8"><rdf:RDF><cc:Work rdf:about=""><dc:format>image/svg+xml</dc:format><dc:type rdf:resource="http://purl.org/dc/dcmitype/StillImage"/></cc:Work></rdf:RDF></metadata><defs id="defs6"><clipPath id="clipPath16" clipPathUnits="userSpaceOnUse"><path id="path18" d="M 4,31 C 1.791,31 0,29.209 0,27 L 0,27 0,9 C 0,6.791 1.791,5 4,5 l 0,0 28,0 c 2.209,0 4,1.791 4,4 l 0,0 0,18 c 0,2.209 -1.791,4 -4,4 l 0,0 -28,0 z"/></clipPath></defs><g transform="matrix(1.25,0,0,-1.25,0,45)" id="g10"><g id="g12"><g xmlns="http://www.w3.org/2000/svg" clip-path="url(#clipPath16)" id="g14"><g id="g30"><path id="path20" style="fill:#eeeeee;fill-opacity:1;fill-rule:nonzero;stroke:none" d="M 0,5 36,5 36,31 0,31 0,5 z"/><path id="path21" style="fill:#0099ff;fill-opacity:1;fill-rule:nonzero;stroke:none" d="m 0,22.333 36,0 L 36,31 0,31 0,22.333 z"/></g><g id="g34"><path id="path29" style="fill:#ef7300;fill-opacity:1;fill-rule:nonzero;stroke:none" d="m 29.2275,23.5269 c 0,0.786 -0.637,1.422 -1.422,1.422 -0.786,0 -1.422,-0.636 -1.422,-1.422 0,-0.785 0.636,-1.422 1.422,-1.422 0.785,0 1.422,0.637 1.422,1.422"/><path id="path30" style="fill:#ef7300;fill-opacity:1;fill-rule:nonzero;stroke:none" d="m 30.2627,23.8608 1.096,0.819 0.2,-0.137 v -0.298 z"/><path id="path31" style="fill:#ef7300;fill-opacity:1;fill-rule:nonzero;stroke:none" d="m 29.7041,24.4844 1.086,1.231 0.247,-0.066 0.051,-0.287 z"/><path id="path32" style="fill:#ef7300;fill-opacity:1;fill-rule:nonzero;stroke:none" d="m 29.1748,24.8257 1.105,1.568 0.294,-0.035 0.036,-0.345 z"/><path id="path33" style="fill:#ef7300;fill-opacity:1;fill-rule:nonzero;stroke:none" d="m 28.7705,25.2334 0.749,1.749 0.306,0.051 0.13,-0.321 z"/><path id="path34" style="fill:#ef7300;fill-opacity:1;fill-rule:nonzero;stroke:none" d="m 28.3789,25.7705 0.267,1.737 0.231,0.11 0.234,-0.223 z"/><path id="path35" style="fill:#ef7300;fill-opacity:1;fill-rule:nonzero;stroke:none" d="m 27.4805,25.5313 -0.157,1.996 0.2,0.137 0.251,-0.156 z"/><path id="path36" style="fill:#ef7300;fill-opacity:1;fill-rule:nonzero;stroke:none" d="m 26.6094,25.4492 -0.784,1.765 0.149,0.227 0.318,-0.051 z"/><path id="path37" style="fill:#ef7300;fill-opacity:1;fill-rule:nonzero;stroke:none" d="m 25.9316,25.041 -1.428,1.447 0.07,0.279 0.291,0.043 z"/><path id="path38" style="fill:#ef7300;fill-opacity:1;fill-rule:nonzero;stroke:none" d="m 25.5117,24.2256 -1.876,1.176 0.072,0.388 0.308,0.203 z"/><path id="path39" style="fill:#006633;fill-opacity:1;fill-rule:nonzero;stroke:none" d="m 36,16.4795 -1.605,1.409 -1.413,0.423 -1.247,1.93 -1.612,0.647 -2.141,2.212 -1.564,0.176 -0.776,-0.529 -1.107,-0.541 -1.259,-1.048 -2.964,-0.917 -1.659,-1.306 -2.07,-0.353 -5.201,-3.859 L 9.9,14.2415 7.006,15.4065 4.112,14.3585 0,14.7705 v -9.77 h 36 z"/></g><g id="g38"><path id="path40" style="fill:#bf0a30;fill-opacity:1;fill-rule:nonzero;stroke:none" d="m 0,22.333 h 12 v 0.82 H 0 Z"/><path id="path41" style="fill:#eeeeee;fill-opacity:1;fill-rule:nonzero;stroke:none" d="m 0,23.154 h 12 v 0.723 H 0 Z"/><path id="path42" style="fill:#bf0a30;fill-opacity:1;fill-rule:nonzero;stroke:none" d="M 0,23.876 H 12 V 24.73 H 0 Z"/><path id="path43" style="fill:#eeeeee;fill-opacity:1;fill-rule:nonzero;stroke:none" d="m 0,24.729 h 12 v 0.723 H 0 Z"/><path id="path44" style="fill:#bf0a30;fill-opacity:1;fill-rule:nonzero;stroke:none" d="m 0,25.452 h 12 v 0.854 H 0 Z"/><path id="path45" style="fill:#eeeeee;fill-opacity:1;fill-rule:nonzero;stroke:none" d="m 0,27.0278 v -0.028 -0.694 h 12 v 0.722 H 4 Z"/><path id="path46" style="fill:#bf0a30;fill-opacity:1;fill-rule:nonzero;stroke:none" d="m 4,27.028 h 8 v 0.854 H 4 Z"/><path id="path47" style="fill:#eeeeee;fill-opacity:1;fill-rule:nonzero;stroke:none" d="m 4,27.881 h 8 v 0.722 H 4 Z"/><path id="path48" style="fill:#bf0a30;fill-opacity:1;fill-rule:nonzero;stroke:none" d="m 4,28.604 h 8 v 0.854 H 4 Z"/><path id="path49" style="fill:#eeeeee;fill-opacity:1;fill-rule:nonzero;stroke:none" d="m 4,29.457 h 8 v 0.722 H 4 Z"/><path id="path50" style="fill:#bf0a30;fill-opacity:1;fill-rule:nonzero;stroke:none" d="m 4,30.179 h 8 V 31 H 4 Z"/><path id="path51" style="fill:#002868;fill-opacity:1;fill-rule:nonzero;stroke:none" d="m 2,28.4375 -0.693,-0.503 0.265,0.814 -0.693,0.503 H 1.735 L 2,30.0665 2.265,29.2515 h 0.856 l -0.693,-0.503 0.265,-0.814 z m 2,-0.556 v 0.722 0.854 0.722 0.821 H 0 v -3.973 h 4 z"/><path id="path52" style="fill:#ffffff;fill-opacity:1;fill-rule:nonzero;stroke:none" d="m 3.1206,29.2515 h -0.856 l -0.265,0.814 -0.264,-0.814 h -0.856 l 0.692,-0.503 -0.264,-0.814 0.692,0.503 0.693,-0.503 -0.264,0.814 z"/></g></g></g></g></svg>