<svg xmlns:dc="http://purl.org/dc/elements/1.1/" xmlns:cc="http://creativecommons.org/ns#" xmlns:rdf="http://www.w3.org/1999/02/22-rdf-syntax-ns#" xmlns:svg="http://www.w3.org/2000/svg" xmlns="http://www.w3.org/2000/svg" viewBox="0 0 45 45" style="enable-background:new 0 0 45 45;" xml:space="preserve" version="1.1" id="svg2"><metadata id="metadata8"><rdf:RDF><cc:Work rdf:about=""><dc:format>image/svg+xml</dc:format><dc:type rdf:resource="http://purl.org/dc/dcmitype/StillImage"/></cc:Work></rdf:RDF></metadata><defs id="defs6"><clipPath id="clipPath16" clipPathUnits="userSpaceOnUse"><path id="path18" d="M 4,31 C 1.791,31 0,29.209 0,27 L 0,27 0,9 C 0,6.791 1.791,5 4,5 l 0,0 28,0 c 2.209,0 4,1.791 4,4 l 0,0 0,18 c 0,2.209 -1.791,4 -4,4 l 0,0 -28,0 z"/></clipPath></defs><g transform="matrix(1.25,0,0,-1.25,0,45)" id="g10"><g id="g12"><g xmlns="http://www.w3.org/2000/svg" clip-path="url(#clipPath16)" id="g14"><g id="g20"><path id="path30" style="fill:#fccc00;fill-opacity:1;fill-rule:nonzero;stroke:none" d="M 0,5 H 36 V 31 H 0 Z"/><path id="path34" style="fill:#10693d;fill-opacity:1;fill-rule:nonzero;stroke:none" d="m 0,13.667 h 36 v 8.667 H 0 Z"/><path id="path38" style="fill:#eeeeee;fill-opacity:1;fill-rule:nonzero;stroke:none" d="M 0,22.333 H 36 V 31 H 0 Z"/></g><g id="g24"><path id="path30" style="fill:#fccc00;fill-opacity:1;fill-rule:nonzero;stroke:none" d="m 9.2949,26.6782 c 0,2.231 -1.809,4.04 -4.04,4.04 -2.231,0 -4.04,-1.809 -4.04,-4.04 0,-2.231 1.809,-4.04 4.04,-4.04 2.231,0 4.04,1.809 4.04,4.04"/><path id="path34" style="fill:#0038a6;fill-opacity:1;fill-rule:nonzero;stroke:none" d="m 8.0537,26.6782 c 0,1.546 -1.253,2.799 -2.799,2.799 -1.546,0 -2.799,-1.253 -2.799,-2.799 0,-1.545 1.253,-2.799 2.799,-2.799 1.546,0 2.799,1.254 2.799,2.799"/><path id="path38" style="fill:#fccc00;fill-opacity:1;fill-rule:nonzero;stroke:none" d="m 5.2549,27.0786 c 0,0 -0.304,0.28 -1.11,0.28 -1.164,0 -1.388,-0.68 -1.388,-0.68 0,0 0.694,0.465 1.443,0.133 0.676,-0.3 1.055,-0.735 1.055,-0.735 0,0 0.379,0.435 1.056,0.735 0.748,0.332 1.442,-0.133 1.442,-0.133 0,0 -0.224,0.68 -1.388,0.68 -0.806,0 -1.11,-0.28 -1.11,-0.28"/></g></g></g></g></svg>