<svg xmlns:dc="http://purl.org/dc/elements/1.1/" xmlns:cc="http://creativecommons.org/ns#" xmlns:rdf="http://www.w3.org/1999/02/22-rdf-syntax-ns#" xmlns:svg="http://www.w3.org/2000/svg" xmlns="http://www.w3.org/2000/svg" viewBox="0 0 45 45" style="enable-background:new 0 0 45 45;" xml:space="preserve" version="1.1" id="svg2"><metadata id="metadata8"><rdf:RDF><cc:Work rdf:about=""><dc:format>image/svg+xml</dc:format><dc:type rdf:resource="http://purl.org/dc/dcmitype/StillImage"/></cc:Work></rdf:RDF></metadata><defs id="defs6"><clipPath id="clipPath16" clipPathUnits="userSpaceOnUse"><path id="path18" d="M 0,36 36,36 36,0 0,0 0,36 Z"/></clipPath></defs><g transform="matrix(1.25,0,0,-1.25,0,45)" id="g10"><g id="g12"><g xmlns="http://www.w3.org/2000/svg" clip-path="url(#clipPath16)" id="g14"><g id="g30"><path id="path20" style="fill:#002687;fill-opacity:1;fill-rule:nonzero;stroke:none" d="M 0,9 C 0,6.791 1.791,5 4,5 l 28,0 c 2.209,0 4,1.791 4,4 l 0,18 c 0,2.209 -1.791,4 -4,4 L 4,31 C 1.791,31 0,29.209 0,27 L 0,9 z"/></g><g id="g32"><path id="path30" style="fill:#ff0f3a;fill-opacity:1;fill-rule:nonzero;stroke:none" d="m 18.7559,6.5937 c -4.283,0 -8.068,2.846 -8.068,3.408 0,0.823 1.291,0.769 1.291,0.769 0,0 3.1,-2.604 6.777,-2.604 3.678,0 5.577,2.604 5.577,2.604 0,0 1.292,0.054 1.292,-0.769 0,-0.562 -2.586,-3.408 -6.869,-3.408"/><path id="path31" style="fill:#d25b20;fill-opacity:1;fill-rule:nonzero;stroke:none" d="m 18.5,12.3467 0.518,-1.113 3.239,2.188 0.055,-0.361 0.96,1.128 -0.208,0.01 0.103,0.209 -0.245,-0.03 0.115,0.233 -1.384,-0.436 0.423,-0.095 -3.576,-1.733 z"/><path id="path32" style="fill:#1ada40;fill-opacity:1;fill-rule:nonzero;stroke:none" d="m 16.9824,10.2061 c 0,0 -0.188,0.611 -0.353,0.788 -0.165,0.177 -2.365,1.883 -2.365,1.883 0,0 -0.199,0.423 -0.117,1.023 0.082,0.6 -0.789,1.518 -0.789,1.518 0,0 -0.051,-0.126 -0.055,-0.389 -0.004,-0.262 0.091,-0.671 0.091,-0.671 0,0 -0.259,0.303 -0.4,0.428 -0.141,0.126 -0.385,0.196 -0.385,0.196 0,0 0.173,-0.114 0.29,-0.373 0.118,-0.258 0.118,-0.619 0.118,-0.619 0,0 -0.302,-0.012 -0.549,0.765 -0.247,0.776 -0.784,1.482 -0.784,1.482 0,0 -0.024,-0.122 -0.024,-0.196 0,-0.074 0.051,-0.302 0.051,-0.302 0,0 -0.051,0.086 -0.137,0.189 -0.086,0.101 -0.208,0.2 -0.208,0.2 0,0 0.012,-0.13 0.024,-0.272 0.011,-0.14 0.09,-0.321 0.09,-0.321 0,0 -0.086,0.027 -0.243,0.13 -0.157,0.102 -0.259,0.203 -0.259,0.203 0,0 0.082,-0.349 0.498,-0.862 0.416,-0.514 0.969,-0.996 0.969,-0.996 0,0 -0.224,-0.078 -1.016,0.509 -0.792,0.588 -1.632,0.679 -1.632,0.679 0,0 0.165,-0.192 0.334,-0.313 0.168,-0.122 0.482,-0.28 0.482,-0.28 0,0 -0.184,-0.035 -0.49,-0.019 -0.306,0.016 -0.577,0.063 -0.577,0.063 0,0 0.11,-0.153 0.334,-0.223 0.224,-0.072 0.525,-0.016 0.525,-0.016 0,0 -0.141,-0.149 -0.34,-0.196 -0.201,-0.047 -0.416,-0.008 -0.416,-0.008 0,0 0.598,-0.348 1.38,-0.371 0.782,-0.024 1.447,0.095 1.447,0.095 0,0 0.612,-0.277 0.988,-0.591 0.377,-0.314 0.569,-0.545 0.569,-0.545 0,0 1.694,-1.436 2.107,-1.865 0.413,-0.43 0.842,-0.723 0.842,-0.723"/><path id="path33" style="fill:#ffd227;fill-opacity:1;fill-rule:nonzero;stroke:none" d="m 16.2515,13.1729 c 0,0 -0.124,0.057 -0.21,0.037 -0.086,-0.019 -0.592,-0.392 -0.553,-0.549 0.039,-0.157 -0.89,-0.651 -0.949,-0.918 -0.059,-0.266 0.325,-0.161 0.325,-0.161 0,0 -0.655,-0.525 -1.113,0.118 -0.459,0.643 0.113,1.318 0.658,1.102 0.546,-0.216 1.481,0.666 1.481,0.666 l 0.245,0.118 0.294,-0.047 -0.178,-0.366 z"/><path id="path34" style="fill:#ffd227;fill-opacity:1;fill-rule:nonzero;stroke:none" d="m 19.1221,13.2295 0.236,-0.341 c 0,0 0.459,0.047 0.918,-0.241 0.459,-0.289 0,-0.671 0,-0.671 0,0 0.883,0 1.088,0.541 0.206,0.541 -0.092,0.987 -0.964,0.782 -1.053,-0.247 -1.021,0.013 -1.021,0.013 l -0.257,-0.083 z"/><path id="path35" style="fill:#ffffff;fill-opacity:1;fill-rule:nonzero;stroke:none" d="m 18.9941,13.2119 c 0,0 -1.034,-1.856 -2.212,-1.712 -1.435,0.177 -0.352,2.039 -0.352,2.039 l 1.086,0.938 1.478,-1.265 z"/><path id="path36" style="fill:#663b3b;fill-opacity:1;fill-rule:nonzero;stroke:none" d="m 15.3472,13.335 c 0,0 1.419,0.447 2,0.039 0.58,-0.407 2.015,-0.101 2.015,-0.101 0,0 0.463,1.082 0.276,1.56 -0.189,0.479 -0.914,0.5 -0.914,0.5 l -2.256,0.174 c 0,0 -0.274,-0.03 -0.486,-0.235 -0.212,-0.204 -0.322,-0.634 -0.376,-1.074 -0.055,-0.439 -0.259,-0.863 -0.259,-0.863"/><path id="path37" style="fill:#663b3b;fill-opacity:1;fill-rule:nonzero;stroke:none" d="m 19.7217,17.5903 c 0,0 0.543,-0.055 1.426,1.133 0.882,1.188 0.917,1.435 1.741,1.435 3.141,0 5.035,-3.117 5.035,-3.117 0,0 -2.573,0.974 -4.642,-0.119 -2.829,-1.495 -4.165,-1.004 -4.165,-1.004"/><path id="path38" style="fill:#663b3b;fill-opacity:1;fill-rule:nonzero;stroke:none" d="m 17.1919,17.834 c 0,0 -0.912,-0.232 -1.79,0.576 -1.089,1.002 -0.957,1.49 -2.109,1.401 C 10.1609,19.567 8.0159,16 8.0159,16 c 0,0 2.819,0.882 5.119,0.453 2.671,-0.498 3.365,-0.346 3.365,-0.346"/><path id="path39" style="fill:#ffffff;fill-opacity:1;fill-rule:nonzero;stroke:none" d="m 17.3784,21.7002 c 0,0 0.447,0.404 1.418,-0.857 0.533,-0.692 0.464,-1.007 0.606,-1.374 0.212,-0.551 0.549,-1.162 0.549,-1.162 0,0 -0.499,-1.461 -1.358,-1.548 -0.858,-0.088 -1.537,1.439 -1.537,1.439 0,0 0.989,0.447 0.989,1.113 0,0.667 -0.528,1.353 -0.528,1.353 l 0.139,0.267 -0.278,0.769 z"/><path id="path40" style="fill:#ffd227;fill-opacity:1;fill-rule:nonzero;stroke:none" d="m 16.6567,21.394 c 0,0 -0.317,0.224 0.079,0.428 0.256,0.132 0.643,-0.122 0.643,-0.122 0,0 0.569,-0.725 0.702,-1.133 0.133,-0.408 0.066,-0.432 0.066,-0.432 0,0 -0.439,0.42 -0.753,0.612 -0.313,0.192 -0.552,0.302 -0.552,0.302 0,0 0.085,0.036 0.305,0.016 0.251,-0.024 0.51,-0.134 0.51,-0.134 0,0 -0.279,0.408 -0.608,0.542 -0.29,0.117 -0.392,-0.079 -0.392,-0.079"/><path id="path41" style="fill:#ffd227;fill-opacity:1;fill-rule:nonzero;stroke:none" d="m 17.1553,13.8779 -0.051,0.053 c -0.025,0.026 -0.633,0.657 -0.82,1.465 -0.079,0.342 -0.006,0.821 0.216,1.421 0.307,0.833 0.574,1.205 0.585,1.22 l 0.065,0.09 0.083,-0.074 c 0.002,-0.002 0.225,-0.197 0.552,-0.246 0.438,-0.066 0.682,0.14 0.692,0.149 l 0.071,0.061 0.066,-0.067 c 0.003,-0.002 0.218,-0.218 0.548,-0.252 0.325,-0.042 0.639,0.151 0.641,0.154 l 0.183,0.113 -0.031,-0.213 c -0.011,-0.074 -0.279,-1.823 -1.339,-2.83 -0.694,-0.659 -1.367,-0.997 -1.396,-1.012 l -0.065,-0.032 z"/><path id="path42" style="fill:#ff0f3a;fill-opacity:1;fill-rule:nonzero;stroke:none" d="M 16.688,16.748 C 16.48,16.185 16.41,15.744 16.48,15.44 c 0.144,-0.624 0.571,-1.149 0.718,-1.315 0.185,0.102 0.732,0.421 1.28,0.941 0.373,0.355 0.644,0.816 0.838,1.256 0,0 -0.639,-0.116 -1.399,-0.069 -0.758,0.047 -1.229,0.495 -1.229,0.495"/><path id="path43" style="fill:#002687;fill-opacity:1;fill-rule:nonzero;stroke:none" d="m 16.688,16.748 c 0.215,0.583 0.412,0.935 0.504,1.086 0.109,-0.074 0.308,-0.187 0.563,-0.225 0.389,-0.058 0.66,0.067 0.781,0.144 0.102,-0.082 0.315,-0.224 0.605,-0.254 0.228,-0.025 0.437,0.034 0.581,0.091 -0.055,-0.259 -0.177,-0.749 -0.406,-1.268 0,0 -0.639,-0.116 -1.399,-0.069 -0.758,0.047 -1.229,0.495 -1.229,0.495"/></g><g id="g34"><path id="path50" style="fill:#ffffff;fill-opacity:1;fill-rule:nonzero;stroke:none" d="m 12.2622,8.7686 -0.21,0.146 0.065,0.76 -0.377,-0.546 -0.211,0.146 0.605,0.878 0.211,-0.146 -0.065,-0.76 0.376,0.546 0.211,-0.145 -0.605,-0.879 z"/><path id="path51" style="fill:#ffffff;fill-opacity:1;fill-rule:nonzero;stroke:none" d="m 13.4512,8.7412 c 0.05,0.094 0.073,0.173 0.068,0.237 -0.005,0.066 -0.037,0.114 -0.095,0.145 -0.113,0.061 -0.219,0.009 -0.317,-0.158 l -0.038,-0.069 c -0.05,-0.092 -0.073,-0.171 -0.069,-0.236 0.004,-0.066 0.036,-0.115 0.097,-0.148 0.057,-0.031 0.114,-0.03 0.171,10e-4 0.057,0.033 0.11,0.094 0.16,0.185 l 0.023,0.043 z m 0.209,-0.163 c -0.049,-0.092 -0.11,-0.164 -0.182,-0.216 -0.072,-0.053 -0.15,-0.08 -0.233,-0.085 -0.083,-0.004 -0.164,0.016 -0.244,0.059 -0.08,0.043 -0.141,0.099 -0.183,0.17 -0.042,0.069 -0.062,0.148 -0.06,0.235 0.003,0.087 0.026,0.175 0.073,0.265 l 0.028,0.052 c 0.05,0.092 0.111,0.164 0.182,0.216 0.072,0.053 0.149,0.081 0.233,0.085 0.083,0.004 0.165,-0.015 0.246,-0.058 0.079,-0.043 0.14,-0.1 0.182,-0.172 0.042,-0.072 0.061,-0.152 0.058,-0.24 -0.003,-0.088 -0.028,-0.177 -0.077,-0.268 l -0.023,-0.043 z"/><path id="path52" style="fill:#ffffff;fill-opacity:1;fill-rule:nonzero;stroke:none" d="m 14.2495,8.3828 0.149,-0.063 c 0.045,-0.02 0.084,-0.022 0.117,-0.008 0.033,0.013 0.058,0.042 0.076,0.085 0.018,0.042 0.021,0.08 0.008,0.114 -0.013,0.033 -0.041,0.059 -0.085,0.079 l -0.15,0.064 -0.115,-0.271 z m 0.05,-0.236 -0.128,0.054 -0.148,-0.346 -0.236,0.1 0.418,0.981 0.386,-0.164 c 0.116,-0.05 0.196,-0.115 0.24,-0.194 0.043,-0.08 0.045,-0.167 0.005,-0.26 -0.029,-0.069 -0.067,-0.12 -0.113,-0.153 -0.047,-0.033 -0.106,-0.051 -0.177,-0.053 l 0.036,-0.484 -0.004,-0.01 -0.253,0.108 -0.026,0.421 z"/><path id="path53" style="fill:#ffffff;fill-opacity:1;fill-rule:nonzero;stroke:none" d="m 15.9365,8.0723 -0.304,0.099 -0.269,-0.826 -0.245,0.081 0.269,0.825 -0.299,0.097 0.062,0.189 0.848,-0.277 -0.062,-0.188 z"/><path id="path54" style="fill:#ffffff;fill-opacity:1;fill-rule:nonzero;stroke:none" d="m 16.9014,6.957 -0.25,0.055 0.095,0.434 -0.37,0.081 -0.095,-0.435 -0.251,0.054 0.227,1.042 0.251,-0.054 -0.09,-0.413 0.37,-0.081 0.091,0.414 0.249,-0.055 -0.227,-1.042 z"/><path id="path55" style="fill:#ffffff;fill-opacity:1;fill-rule:nonzero;stroke:none" d="m 18.2148,7.6738 -0.025,-0.669 0.089,-0.004 c 0.074,-0.003 0.132,0.022 0.173,0.072 0.042,0.051 0.064,0.129 0.068,0.232 l 0.002,0.047 c 0.004,0.102 -0.013,0.18 -0.051,0.234 -0.037,0.054 -0.094,0.082 -0.17,0.085 l -0.086,0.003 z m -0.289,-0.857 0.039,1.065 0.344,-0.013 c 0.094,-0.003 0.177,-0.027 0.252,-0.073 0.073,-0.046 0.129,-0.108 0.169,-0.187 0.039,-0.08 0.057,-0.167 0.053,-0.264 l -0.002,-0.049 c -0.003,-0.098 -0.027,-0.184 -0.07,-0.261 -0.045,-0.075 -0.105,-0.133 -0.182,-0.174 -0.076,-0.041 -0.16,-0.06 -0.252,-0.057 l -0.351,0.013 z"/><path id="path56" style="fill:#ffffff;fill-opacity:1;fill-rule:nonzero;stroke:none" d="m 19.4365,7.2148 0.229,0.021 -0.148,0.358 -0.081,-0.379 z m 0.308,-0.172 -0.352,-0.031 -0.043,-0.204 -0.273,-0.025 0.294,1.097 0.241,0.022 0.487,-1.027 -0.275,-0.024 -0.079,0.192 z"/><path id="path57" style="fill:#ffffff;fill-opacity:1;fill-rule:nonzero;stroke:none" d="m 20.7275,7.4092 -0.077,-0.137 0.063,-0.274 -0.251,-0.058 -0.238,1.04 0.25,0.058 0.106,-0.459 0.056,0.152 0.15,0.378 0.309,0.071 -0.245,-0.541 0.484,-0.498 -0.296,-0.068 -0.311,0.336 z"/><path id="path58" style="fill:#ffffff;fill-opacity:1;fill-rule:nonzero;stroke:none" d="m 22.0557,7.9912 c -0.038,0.099 -0.083,0.168 -0.136,0.207 -0.052,0.038 -0.109,0.046 -0.171,0.022 -0.121,-0.045 -0.15,-0.16 -0.088,-0.343 l 0.028,-0.073 c 0.037,-0.098 0.081,-0.167 0.134,-0.208 0.052,-0.04 0.11,-0.047 0.174,-0.023 0.061,0.022 0.098,0.066 0.111,0.131 0.013,0.063 0.002,0.144 -0.034,0.241 l -0.018,0.046 z m 0.261,0.051 c 0.036,-0.097 0.051,-0.19 0.044,-0.279 -0.008,-0.088 -0.037,-0.166 -0.089,-0.231 -0.051,-0.065 -0.118,-0.114 -0.203,-0.146 -0.085,-0.033 -0.168,-0.042 -0.248,-0.028 -0.081,0.014 -0.154,0.05 -0.218,0.109 -0.065,0.058 -0.115,0.134 -0.153,0.228 l -0.021,0.056 c -0.037,0.097 -0.053,0.19 -0.045,0.279 0.008,0.088 0.037,0.165 0.089,0.232 0.051,0.065 0.119,0.115 0.205,0.147 0.084,0.032 0.167,0.041 0.248,0.025 0.082,-0.014 0.155,-0.052 0.22,-0.112 0.065,-0.06 0.116,-0.139 0.153,-0.234 l 0.018,-0.046 z"/><path id="path59" style="fill:#ffffff;fill-opacity:1;fill-rule:nonzero;stroke:none" d="m 23.1172,8.8877 -0.281,-0.153 0.416,-0.762 -0.226,-0.123 -0.416,0.762 -0.275,-0.151 -0.095,0.174 0.782,0.428 0.095,-0.175 z"/><path id="path60" style="fill:#ffffff;fill-opacity:1;fill-rule:nonzero;stroke:none" d="m 23.8115,8.7803 0.185,0.136 -0.313,0.229 0.128,-0.365 z m 0.352,0.013 -0.285,-0.209 0.07,-0.198 -0.222,-0.162 -0.317,1.09 0.194,0.144 0.95,-0.625 -0.222,-0.163 -0.168,0.123 z"/></g><g id="g36"><path id="path70" style="fill:#e2d227;fill-opacity:1;fill-rule:nonzero;stroke:none" d="m 18.15,25.391 -0.453,0 0,-0.453 0.453,0 0,0.453 z"/><path id="path71" style="fill:#e2d227;fill-opacity:1;fill-rule:nonzero;stroke:none" d="m 18.579,24.007 -0.453,0 0,-0.453 0.453,0 0,0.453 z"/><path id="path72" style="fill:#e2d227;fill-opacity:1;fill-rule:nonzero;stroke:none" d="m 19.419,25.165 -0.453,0 0,-0.453 0.453,0 0,0.453 z"/><path id="path73" style="fill:#e2d227;fill-opacity:1;fill-rule:nonzero;stroke:none" d="m 19.636,23.625 -0.453,0 0,-0.453 0.453,0 0,0.453 z"/><path id="path74" style="fill:#e2d227;fill-opacity:1;fill-rule:nonzero;stroke:none" d="m 20.447,24.652 -0.453,0 0,-0.453 0.453,0 0,0.453 z"/><path id="path75" style="fill:#e2d227;fill-opacity:1;fill-rule:nonzero;stroke:none" d="m 20.457,22.943 -0.453,0 0,-0.453 0.453,0 0,0.453 z"/><path id="path76" style="fill:#e2d227;fill-opacity:1;fill-rule:nonzero;stroke:none" d="m 21.343,23.798 -0.453,0 0,-0.453 0.453,0 0,0.453 z"/><path id="path77" style="fill:#e2d227;fill-opacity:1;fill-rule:nonzero;stroke:none" d="m 17.011,23.975 0.453,0 0,-0.453 -0.453,0 0,0.453 z"/><path id="path78" style="fill:#e2d227;fill-opacity:1;fill-rule:nonzero;stroke:none" d="m 16.456,25.249 0.453,0 0,-0.453 -0.453,0 0,0.453 z"/><path id="path79" style="fill:#e2d227;fill-opacity:1;fill-rule:nonzero;stroke:none" d="m 15.959,23.494 0.453,0 0,-0.453 -0.453,0 0,0.453 z"/><path id="path80" style="fill:#e2d227;fill-opacity:1;fill-rule:nonzero;stroke:none" d="m 15.245,24.61 0.453,0 0,-0.453 -0.453,0 0,0.453 z"/><path id="path81" style="fill:#e2d227;fill-opacity:1;fill-rule:nonzero;stroke:none" d="m 15.332,22.649 0.453,0 0,-0.453 -0.453,0 0,0.453 z"/><path id="path82" style="fill:#e2d227;fill-opacity:1;fill-rule:nonzero;stroke:none" d="m 14.301,23.675 0.453,0 0,-0.453 -0.453,0 0,0.453 z"/><path id="path83" style="fill:#e2d227;fill-opacity:1;fill-rule:nonzero;stroke:none" d="m 17.9502,29.0781 -1,-1.734 -1.578,1.265 -0.391,-2 -1.906,0.641 0.313,-2.031 -2.079,-0.016 1.907,-2.187 c 0,0 1.14,3.437 4.734,3.437 3.594,0 4.734,-3.437 4.734,-3.437 l 1.907,2.187 -2.079,0.016 0.313,2.031 -1.906,-0.641 -0.391,2 -1.578,-1.265 -1,1.734 z"/></g></g></g></g></svg>