<svg xmlns:dc="http://purl.org/dc/elements/1.1/" xmlns:cc="http://creativecommons.org/ns#" xmlns:rdf="http://www.w3.org/1999/02/22-rdf-syntax-ns#" xmlns:svg="http://www.w3.org/2000/svg" xmlns="http://www.w3.org/2000/svg" viewBox="0 0 45 45" style="enable-background:new 0 0 45 45;" xml:space="preserve" version="1.1" id="svg2"><metadata id="metadata8"><rdf:RDF><cc:Work rdf:about=""><dc:format>image/svg+xml</dc:format><dc:type rdf:resource="http://purl.org/dc/dcmitype/StillImage"/></cc:Work></rdf:RDF></metadata><defs xmlns="http://www.w3.org/2000/svg" id="defs6"><clipPath id="clipPath16" clipPathUnits="userSpaceOnUse"><path id="path18" d="M 4,31 C 1.791,31 0,29.209 0,27 L 0,27 0,9 C 0,6.791 1.791,5 4,5 l 0,0 28,0 c 2.209,0 4,1.791 4,4 l 0,0 0,18 c 0,2.209 -1.791,4 -4,4 l 0,0 -28,0 z"/></clipPath></defs><g xmlns="http://www.w3.org/2000/svg" transform="matrix(1.25,0,0,-1.25,0,45)" id="g10"><g id="g12"><g xmlns="http://www.w3.org/2000/svg" clip-path="url(#clipPath16)" id="g14"><g id="g30"><path id="path20" style="fill:#eeeeee;fill-opacity:1;fill-rule:nonzero;stroke:none" d="m 0,5.001 18,0 0,13 -18,0 0,-13 z"/><path id="path21" style="fill:#981e32;fill-opacity:1;fill-rule:nonzero;stroke:none" d="m 9,11.501 9,0 0,6.5 -9,0 0,-6.5 z m -9,-6.5 9,0 0,6.5 -9,0 0,-6.5 z"/><path id="path22" style="fill:#981e32;fill-opacity:1;fill-rule:nonzero;stroke:none" d="m 9,5.9111 c 0.424,0 0.768,0.372 0.768,0.832 l 0,0.416 0.744,0 c 0.424,0 0.768,0.372 0.768,0.831 0,0.46 -0.344,0.832 -0.768,0.832 l -0.744,0 0,1.847 4.776,0 0,-0.807 c 0,-0.459 0.344,-0.832 0.768,-0.832 0.424,0 0.768,0.373 0.768,0.832 l 0,0.807 0.672,0 c 0.424,0 0.768,0.372 0.768,0.832 l -8.52,0 0,-5.59 z"/><path id="path23" style="fill:#eeeeee;fill-opacity:1;fill-rule:nonzero;stroke:none" d="m 9,5.9111 c -0.424,0 -0.768,0.372 -0.768,0.832 l 0,0.416 -0.744,0 c -0.424,0 -0.768,0.372 -0.768,0.831 0,0.46 0.344,0.832 0.768,0.832 l 0.744,0 0,1.847 -4.776,0 0,-0.807 c 0,-0.459 -0.344,-0.832 -0.768,-0.832 -0.424,0 -0.768,0.373 -0.768,0.832 l 0,0.807 -0.672,0 c -0.424,0 -0.768,0.372 -0.768,0.832 l 8.52,0 0,-5.59 z"/><path id="path24" style="fill:#eeeeee;fill-opacity:1;fill-rule:nonzero;stroke:none" d="m 9,17.0908 c 0.424,0 0.768,-0.373 0.768,-0.832 l 0,-0.416 0.744,0 c 0.424,0 0.768,-0.373 0.768,-0.832 0,-0.46 -0.344,-0.832 -0.768,-0.832 l -0.744,0 0,-1.846 4.776,0 0,0.806 c 0,0.459 0.344,0.832 0.768,0.832 0.424,0 0.768,-0.373 0.768,-0.832 l 0,-0.806 0.672,0 c 0.424,0 0.768,-0.373 0.768,-0.832 l -8.52,0 0,5.59 z"/><path id="path25" style="fill:#981e32;fill-opacity:1;fill-rule:nonzero;stroke:none" d="m 9,17.0908 c -0.424,0 -0.768,-0.373 -0.768,-0.832 l 0,-0.416 -0.744,0 c -0.424,0 -0.768,-0.373 -0.768,-0.832 0,-0.46 0.344,-0.832 0.768,-0.832 l 0.744,0 0,-1.846 -4.776,0 0,0.806 c 0,0.459 -0.344,0.832 -0.768,0.832 -0.424,0 -0.768,-0.373 -0.768,-0.832 l 0,-0.806 -0.672,0 c -0.424,0 -0.768,-0.373 -0.768,-0.832 l 8.52,0 0,5.59 z"/></g><g id="g32"><path id="path30" style="fill:#141414;fill-opacity:1;fill-rule:nonzero;stroke:none" d="M 18,18 36,18 36,5 18,5 18,18 z"/><path id="path31" style="fill:#eaab00;fill-opacity:1;fill-rule:nonzero;stroke:none" d="m 18,5.001 0,10.833 3,-2.167 0,-8.666 3,0 0,13 3,0 0,-13 3,0 0,13 3,0 0,-13 3,0 0,2.166 -15,10.834 0,-4.334 12,-8.666 -15,0 z"/></g><g id="g34"><path id="path32" style="fill:#eeeeee;fill-opacity:1;fill-rule:nonzero;stroke:none" d="m 18,31 18,0 0,-13 -18,0 0,13 z"/><path id="path33" style="fill:#981e32;fill-opacity:1;fill-rule:nonzero;stroke:none" d="m 27,31 9,0 0,-6.5 -18,0 0,-6.5 9,0 0,13 z"/><path id="path34" style="fill:#981e32;fill-opacity:1;fill-rule:nonzero;stroke:none" d="m 27,18.9102 c 0.424,0 0.768,0.373 0.768,0.832 l 0,0.416 0.744,0 c 0.425,0 0.768,0.373 0.768,0.832 0,0.46 -0.343,0.832 -0.768,0.832 l -0.744,0 0,1.846 4.776,0 0,-0.806 c 0,-0.459 0.344,-0.832 0.768,-0.832 0.424,0 0.768,0.373 0.768,0.832 l 0,0.806 0.672,0 c 0.424,0 0.768,0.372 0.768,0.832 l -8.52,0 0,-5.59 z"/><path id="path35" style="fill:#eeeeee;fill-opacity:1;fill-rule:nonzero;stroke:none" d="m 27,18.9102 c -0.424,0 -0.768,0.373 -0.768,0.832 l 0,0.416 -0.744,0 c -0.425,0 -0.768,0.373 -0.768,0.832 0,0.46 0.343,0.832 0.768,0.832 l 0.744,0 0,1.846 -4.776,0 0,-0.806 c 0,-0.459 -0.344,-0.832 -0.768,-0.832 -0.424,0 -0.768,0.373 -0.768,0.832 l 0,0.806 -0.672,0 c -0.424,0 -0.768,0.372 -0.768,0.832 l 8.52,0 0,-5.59 z"/><path id="path36" style="fill:#eeeeee;fill-opacity:1;fill-rule:nonzero;stroke:none" d="m 27,30.0898 c 0.424,0 0.768,-0.372 0.768,-0.832 l 0,-0.416 0.744,0 c 0.425,0 0.768,-0.372 0.768,-0.832 0,-0.459 -0.343,-0.832 -0.768,-0.832 l -0.744,0 0,-1.846 4.776,0 0,0.806 c 0,0.46 0.344,0.832 0.768,0.832 0.424,0 0.768,-0.372 0.768,-0.832 l 0,-0.806 0.672,0 c 0.424,0 0.768,-0.372 0.768,-0.832 l -8.52,0 0,5.59 z"/><path id="path37" style="fill:#981e32;fill-opacity:1;fill-rule:nonzero;stroke:none" d="m 27,30.0898 c -0.424,0 -0.768,-0.372 -0.768,-0.832 l 0,-0.416 -0.744,0 c -0.425,0 -0.768,-0.372 -0.768,-0.832 0,-0.459 0.343,-0.832 0.768,-0.832 l 0.744,0 0,-1.846 -4.776,0 0,0.806 c 0,0.46 -0.344,0.832 -0.768,0.832 -0.424,0 -0.768,-0.372 -0.768,-0.832 l 0,-0.806 -0.672,0 c -0.424,0 -0.768,-0.372 -0.768,-0.832 l 8.52,0 0,5.59 z"/></g><g id="g36"><path id="path40" style="fill:#141414;fill-opacity:1;fill-rule:nonzero;stroke:none" d="M 0,31 18,31 18,18 0,18 0,31 z"/><path id="path41" style="fill:#eaab00;fill-opacity:1;fill-rule:nonzero;stroke:none" d="m 0,18.0005 0,10.833 3,-2.166 0,-8.667 3,0 0,13 3,0 0,-13 3,0 0,13 3,0 0,-13 3,0 0,2.167 -15,10.833 0,-4.333 12,-8.667 -15,0 z"/></g></g></g></g></svg>