<svg xmlns:dc="http://purl.org/dc/elements/1.1/" xmlns:cc="http://creativecommons.org/ns#" xmlns:rdf="http://www.w3.org/1999/02/22-rdf-syntax-ns#" xmlns:svg="http://www.w3.org/2000/svg" xmlns="http://www.w3.org/2000/svg" viewBox="0 0 45 45" style="enable-background:new 0 0 45 45;" xml:space="preserve" version="1.1" id="svg2"><metadata id="metadata8"><rdf:RDF><cc:Work rdf:about=""><dc:format>image/svg+xml</dc:format><dc:type rdf:resource="http://purl.org/dc/dcmitype/StillImage"/></cc:Work></rdf:RDF></metadata><defs id="defs6"><clipPath id="clipPath16" clipPathUnits="userSpaceOnUse"><path id="path18" d="M 0,36 36,36 36,0 0,0 0,36 Z"/></clipPath></defs><g transform="matrix(1.25,0,0,-1.25,0,45)" id="g10"><g id="g12"><g xmlns="http://www.w3.org/2000/svg" clip-path="url(#clipPath16)" id="g14"><g id="g30"><path id="path20" style="fill:#eeeeee;fill-opacity:1;fill-rule:nonzero;stroke:none" d="M 36,9 C 36,6.791 34.209,5 32,5 L 4,5 C 1.791,5 0,6.791 0,9 L 0,18.001 0,27 c 0,2.209 1.791,4 4,4 l 28,0 c 2.209,0 4,-1.791 4,-4 l 0,-9 0,-9 z"/></g><g id="g34"><path id="path30" style="fill:#005ca0;fill-opacity:1;fill-rule:nonzero;stroke:none" d="m 24.676,26.573 -13.351,0 0,-7.948 13.351,0 0,7.948 z"/><path id="path32" style="fill:#cccccc;fill-opacity:1;fill-rule:nonzero;stroke:none" d="m 18,25.2534 -1.687,-1.566 0,-5.062 -4.988,0 0,-2.521 c 0,-3.042 1.717,-3.937 4.092,-4.792 2.375,-0.854 2.583,-1.883 2.583,-1.883 0,0 0.208,1.029 2.583,1.883 2.375,0.855 4.093,1.75 4.093,4.792 l 0,2.521 -4.989,0 0,5.062 -1.687,1.566 z"/><path id="path34" style="fill:#000000;fill-opacity:1;fill-rule:nonzero;stroke:none" d="m 18.2666,25.52 c 0,0.147 -0.119,0.267 -0.267,0.267 -0.147,0 -0.266,-0.12 -0.266,-0.267 0,-0.147 0.119,-0.267 0.266,-0.267 0.148,0 0.267,0.12 0.267,0.267"/><path id="path36" style="fill:#f8c301;fill-opacity:1;fill-rule:nonzero;stroke:none" d="m 21.4609,24.9082 0.266,-0.438 0.512,-0.011 -0.247,-0.449 0.247,-0.45 -0.512,-0.01 -0.266,-0.439 -0.266,0.439 -0.512,0.01 0.247,0.45 -0.247,0.449 0.512,0.011 0.266,0.438 z"/><path id="path38" style="fill:#d7d7d7;fill-opacity:1;fill-rule:nonzero;stroke:none" d="m 14.728,23.2695 c -0.176,-0.182 -0.422,-0.295 -0.696,-0.295 -0.534,0 -0.967,0.433 -0.967,0.968 0,0.455 0.314,0.837 0.738,0.94 -0.061,-0.074 -0.112,-0.158 -0.151,-0.252 -0.21,-0.507 0.031,-1.088 0.538,-1.298 0.177,-0.073 0.362,-0.091 0.538,-0.063"/></g></g></g></g></svg>