<svg xmlns:dc="http://purl.org/dc/elements/1.1/" xmlns:cc="http://creativecommons.org/ns#" xmlns:rdf="http://www.w3.org/1999/02/22-rdf-syntax-ns#" xmlns:svg="http://www.w3.org/2000/svg" xmlns="http://www.w3.org/2000/svg" viewBox="0 0 45 45" style="enable-background:new 0 0 45 45;" xml:space="preserve" version="1.1" id="svg2"><metadata id="metadata8"><rdf:RDF><cc:Work rdf:about=""><dc:format>image/svg+xml</dc:format><dc:type rdf:resource="http://purl.org/dc/dcmitype/StillImage"/></cc:Work></rdf:RDF></metadata><defs id="defs6"><clipPath id="clipPath16" clipPathUnits="userSpaceOnUse"><path id="path18" d="M 0,36 36,36 36,0 0,0 0,36 Z"/></clipPath></defs><g transform="matrix(1.25,0,0,-1.25,0,45)" id="g10"><g id="g12"><g clip-path="url(#clipPath16)" id="g14"><g id="g20"><path id="path22" style="fill:#008000;fill-opacity:1;fill-rule:nonzero;stroke:none" d="M 36,13.68 V 9 C 36,6.79 34.21,5 32,5 H 4 C 1.79,5 0,6.79 0,9 v 4.682 z"/></g><g id="g24"><path id="path26" style="fill:#eeeeee;fill-opacity:1;fill-rule:nonzero;stroke:none" d="m 36,13.68 v 8.64 L 0,22.322 v -8.64 z"/></g><g id="g28"><path id="path30" style="fill:#000080;fill-opacity:1;fill-rule:nonzero;stroke:none" d="m 0,22.3221 v 4.678 c 0,2.21 1.79,4 4,4 h 28 c 2.21,0 4,-1.79 4,-4 v -4.68 z"/></g><g id="g30"><path id="path32" style="fill:#eeeeee;fill-opacity:1;fill-rule:nonzero;stroke:none" d="m 0.8086,11.3558 c 0,0 1.423,0.227 2.782,-0.875 1.615,-1.31 2.619,-3.49 2.619,-3.49 l -0.028,-1.264 3.175,0.846 v 1.907 l -2.568,-0.698 7.943,4.845 v -0.295 c 0,0 0.135,0.042 0.514,0.262 0.378,0.222 0.498,0.33 0.498,0.33 0,0 -0.298,0.062 -0.681,0.037 -0.382,-0.024 -0.673,-0.125 -0.673,-0.125 l -8.207,-5.076 0.039,-0.133 c 0,0 -0.757,1.842 -2.278,3.097 -1.513,1.247 -3.097,0.972 -3.097,0.972 z"/></g><g id="g34"><path id="path40" style="fill:#e6c800;fill-opacity:1;fill-rule:nonzero;stroke:none" d="m 3.1416,18.6414 h -0.337 l -0.091,0.5 c -0.077,0.077 -0.173,0.139 -0.286,0.187 -0.113,0.049 -0.249,0.073 -0.406,0.073 -0.367,0 -0.651,-0.133 -0.848,-0.399 -0.197,-0.267 -0.296,-0.605 -0.296,-1.015 v -0.055 c 0,-0.411 0.097,-0.749 0.29,-1.017 0.194,-0.269 0.462,-0.402 0.806,-0.402 0.16,0 0.306,0.025 0.437,0.075 0.131,0.05 0.232,0.111 0.303,0.184 l 0.091,0.501 h 0.337 v -0.63 c -0.102,-0.13 -0.255,-0.248 -0.459,-0.35 -0.204,-0.104 -0.44,-0.154 -0.709,-0.154 -0.46,0 -0.838,0.169 -1.133,0.509 -0.295,0.341 -0.442,0.768 -0.442,1.284 v 0.05 c 0,0.519 0.145,0.948 0.435,1.287 0.29,0.339 0.67,0.509 1.14,0.509 0.269,0 0.505,-0.052 0.709,-0.157 0.204,-0.104 0.357,-0.221 0.459,-0.351 z"/><path id="path41" style="fill:#e6c800;fill-opacity:1;fill-rule:nonzero;stroke:none" d="m 3.1104,19.4188 v 0.309 h 1.271 v -0.309 l -0.396,-0.068 v -1.222 h 1.716 v 1.222 l -0.397,0.068 v 0.309 h 0.397 0.478 0.396 v -0.309 l -0.396,-0.068 v -2.787 l 0.396,-0.068 v -0.306 h -1.271 v 0.306 l 0.397,0.068 v 1.188 h -1.716 v -1.188 l 0.396,-0.068 v -0.306 h -1.271 v 0.306 l 0.396,0.068 v 2.787 z"/><path id="path42" style="fill:#e6c800;fill-opacity:1;fill-rule:nonzero;stroke:none" d="m 7.5312,17.5941 h 1.122 l -0.549,1.519 h -0.014 z m -1.135,-1.099 0.263,0.037 1.236,3.195 h 0.411 l 1.215,-3.195 0.26,-0.037 v -0.305 h -1.016 v 0.305 l 0.268,0.047 -0.233,0.652 h -1.417 l -0.241,-0.652 0.268,-0.047 v -0.305 h -1.014 z"/><path id="path43" style="fill:#e6c800;fill-opacity:1;fill-rule:nonzero;stroke:none" d="m 9.582,16.1898 v 0.306 l 0.396,0.068 v 2.787 l -0.396,0.068 v 0.309 h 0.396 0.479 0.396 v -0.309 l -0.396,-0.068 v -2.787 h 1.229 l 0.037,0.406 h 0.408 v -0.78 z"/><path id="path44" style="fill:#e6c800;fill-opacity:1;fill-rule:nonzero;stroke:none" d="m 13.1396,17.5941 h 1.122 l -0.549,1.519 h -0.014 z m -1.135,-1.099 0.263,0.037 1.236,3.195 h 0.411 l 1.215,-3.195 0.26,-0.037 v -0.305 h -1.016 v 0.305 l 0.268,0.047 -0.233,0.652 h -1.417 l -0.241,-0.652 0.268,-0.047 v -0.305 h -1.014 z"/><path id="path45" style="fill:#e6c800;fill-opacity:1;fill-rule:nonzero;stroke:none" d="m 17.6113,19.7274 v -0.782 h -0.408 l -0.036,0.406 h -0.785 v -2.788 l 0.395,-0.068 v -0.306 h -1.27 v 0.306 l 0.396,0.068 v 2.788 h -0.787 l -0.034,-0.406 h -0.411 v 0.782 z"/><path id="path46" style="fill:#e6c800;fill-opacity:1;fill-rule:nonzero;stroke:none" d="m 17.376,16.1898 v 0.306 l 0.396,0.068 v 2.787 l -0.396,0.068 v 0.309 h 2.717 v -0.85 h -0.411 l -0.039,0.473 h -1.392 v -1.144 h 1.353 v -0.377 h -1.353 v -1.266 h 1.421 l 0.039,0.474 h 0.408 v -0.848 z"/><path id="path47" style="fill:#e6c800;fill-opacity:1;fill-rule:nonzero;stroke:none" d="m 23.5166,19.7274 v -0.309 l -0.396,-0.067 v -3.162 h -0.479 l -1.701,2.731 -0.015,-0.005 v -2.352 l 0.397,-0.068 v -0.306 h -1.271 v 0.306 l 0.396,0.068 v 2.788 l -0.396,0.067 v 0.309 h 0.396 0.478 l 1.701,-2.728 0.015,0.004 v 2.348 l -0.396,0.067 v 0.309 h 0.875 z"/><path id="path48" style="fill:#e6c800;fill-opacity:1;fill-rule:nonzero;stroke:none" d="m 24.2334,17.5941 h 1.122 l -0.549,1.519 h -0.014 z m -1.135,-1.099 0.263,0.037 1.236,3.195 h 0.41 l 1.215,-3.195 0.261,-0.037 v -0.305 h -1.016 v 0.305 l 0.267,0.047 -0.232,0.652 h -1.417 l -0.241,-0.652 0.267,-0.047 v -0.305 h -1.013 z"/><path id="path49" style="fill:#e6c800;fill-opacity:1;fill-rule:nonzero;stroke:none" d="m 29.75,19.7274 v -0.309 l -0.396,-0.067 v -3.162 h -0.479 l -1.701,2.731 -0.015,-0.005 v -2.352 l 0.397,-0.068 v -0.306 h -1.271 v 0.306 l 0.396,0.068 v 2.788 l -0.396,0.067 v 0.309 h 0.396 0.478 l 1.701,-2.728 0.015,0.004 v 2.348 l -0.396,0.067 v 0.309 h 0.875 z"/><path id="path50" style="fill:#e6c800;fill-opacity:1;fill-rule:nonzero;stroke:none" d="m 32.3936,16.5911 c -0.104,-0.109 -0.257,-0.212 -0.459,-0.308 -0.202,-0.096 -0.466,-0.144 -0.79,-0.144 -0.473,0 -0.858,0.166 -1.157,0.498 -0.299,0.332 -0.448,0.763 -0.448,1.292 v 0.058 c 0,0.534 0.147,0.965 0.443,1.296 0.296,0.33 0.688,0.496 1.18,0.496 0.262,0 0.492,-0.042 0.691,-0.124 0.198,-0.081 0.365,-0.189 0.501,-0.324 v -0.641 h -0.335 l -0.116,0.488 c -0.08,0.065 -0.176,0.119 -0.288,0.161 -0.113,0.042 -0.248,0.063 -0.405,0.063 -0.382,0 -0.676,-0.131 -0.883,-0.393 -0.206,-0.261 -0.31,-0.6 -0.31,-1.017 v -0.063 c 0,-0.423 0.1,-0.764 0.3,-1.026 0.2,-0.26 0.475,-0.39 0.827,-0.39 0.193,0 0.352,0.02 0.475,0.06 0.123,0.041 0.221,0.085 0.295,0.134 v 0.776 l -0.58,0.023 v 0.353 h 1.059 z"/><path id="path51" style="fill:#e6c800;fill-opacity:1;fill-rule:nonzero;stroke:none" d="m 35.1221,17.9876 c 0,0.412 -0.098,0.747 -0.295,1.007 -0.196,0.26 -0.469,0.39 -0.817,0.39 -0.334,0 -0.594,-0.13 -0.782,-0.391 -0.187,-0.261 -0.28,-0.596 -0.28,-1.006 v -0.056 c 0,-0.414 0.093,-0.752 0.28,-1.011 0.188,-0.261 0.448,-0.391 0.782,-0.391 0.353,0 0.627,0.13 0.821,0.389 0.194,0.259 0.291,0.597 0.291,1.013 z m 0.479,-0.056 c 0,-0.515 -0.148,-0.942 -0.443,-1.283 -0.296,-0.34 -0.679,-0.51 -1.148,-0.51 -0.457,0 -0.828,0.17 -1.114,0.51 -0.285,0.341 -0.426,0.768 -0.426,1.283 v 0.051 c 0,0.514 0.141,0.942 0.426,1.283 0.286,0.342 0.657,0.513 1.114,0.513 0.469,0 0.852,-0.171 1.148,-0.513 0.295,-0.341 0.443,-0.769 0.443,-1.283 z"/></g></g></g></g></svg>