<svg xmlns:dc="http://purl.org/dc/elements/1.1/" xmlns:cc="http://creativecommons.org/ns#" xmlns:rdf="http://www.w3.org/1999/02/22-rdf-syntax-ns#" xmlns:svg="http://www.w3.org/2000/svg" xmlns="http://www.w3.org/2000/svg" viewBox="0 0 45 45" style="enable-background:new 0 0 45 45;" xml:space="preserve" version="1.1" id="svg2"><metadata id="metadata8"><rdf:RDF><cc:Work rdf:about=""><dc:format>image/svg+xml</dc:format><dc:type rdf:resource="http://purl.org/dc/dcmitype/StillImage"/></cc:Work></rdf:RDF></metadata><defs id="defs6"><clipPath id="clipPath16" clipPathUnits="userSpaceOnUse"><path id="path18" d="M 0,36 36,36 36,0 0,0 0,36 Z"/></clipPath></defs><g transform="matrix(1.25,0,0,-1.25,0,45)" id="g10"><g id="g12"><g xmlns="http://www.w3.org/2000/svg" clip-path="url(#clipPath16)" id="g14"><g id="g20"><path id="path22" style="fill:#ffff00;fill-opacity:1;fill-rule:nonzero;stroke:none" d="M 0,9 C 0,6.791 1.791,5 4,5 l 28,0 c 2.209,0 4,1.791 4,4 l 0,18 c 0,2.209 -1.791,4 -4,4 L 4,31 C 1.791,31 0,29.209 0,27 L 0,9 z"/></g><g id="g24"><path id="path26" style="fill:#ff0000;fill-opacity:1;fill-rule:nonzero;stroke:none" d="m 17.1201,19.8701 c 0.043,-0.079 0.067,-0.178 0.069,-0.303 -0.08,-0.097 -0.153,-0.167 -0.249,-0.239 -0.049,-0.022 -0.078,0.038 -0.066,0.075 0.083,0.146 0.178,0.297 0.246,0.467 m -4.592,5.86 c 0.19,0.018 0.218,0.056 0.171,0.162 0.089,0.233 -0.107,0.062 -0.138,0.149 -0.01,0.081 -0.042,0.126 -0.091,0.126 -0.035,0 -0.076,-0.038 -0.083,-0.05 -0.03,-0.042 -0.122,-0.115 -0.181,-0.068 -0.018,0.015 -0.052,0.024 -0.082,0.014 -0.179,-0.068 -0.416,-0.497 -0.251,-0.662 0.172,0.259 0.353,0.298 0.655,0.329 m -0.153,0.494 c 0.038,0.077 0.206,0.054 0.192,-0.01 -10e-4,-0.021 0.039,-0.054 0.092,-0.035 0.049,0.017 0.056,0.038 0.074,0.116 0.004,0.127 0.031,0.187 0.096,0.222 -0.002,0.205 0.114,0.494 0.232,0.547 -0.019,-0.071 -0.148,-0.36 -0.053,-0.49 0.087,0.312 0.36,0.305 0.756,0.392 0.059,0.016 0.469,0.137 0.719,0.257 -0.062,-0.066 -0.333,-0.192 -0.354,-0.205 -0.15,-0.086 -0.139,-0.127 0.053,-0.219 0.968,-0.163 1.935,0.684 1.644,1.488 -0.094,0.155 -0.354,0.682 -0.353,0.788 0,0.047 -0.046,0.073 -0.1,0.092 -0.434,0.066 -0.745,-0.387 -0.829,-0.714 -0.027,-0.113 -0.029,-0.166 -0.075,-0.125 -0.181,0.289 -0.002,0.674 -0.037,0.799 -0.02,0.049 -0.059,0.039 -0.191,-0.034 -0.25,-0.138 -0.413,-0.353 -0.508,-0.742 -0.032,-0.134 -0.032,-0.327 -0.081,-0.332 -0.047,-0.016 -0.068,0.156 -0.068,0.406 0,0.267 -0.038,0.328 -0.116,0.355 -0.062,-0.015 -0.087,-0.02 -0.181,-0.139 -0.195,-0.247 -0.293,-0.496 -0.293,-0.686 0,-0.223 -0.052,-0.257 -0.182,-0.111 -0.04,0.042 -0.161,0.166 -0.196,0.169 -0.051,0 -0.156,-0.145 -0.258,-0.337 -0.053,-0.099 -0.142,-0.237 -0.199,-0.305 -0.222,-0.24 -0.281,-0.425 -0.277,-0.48 0,-0.39 0.111,-0.389 0.145,-0.641 0.036,-0.181 0.282,-0.152 0.348,-0.026 m 1.217,0.605 c -0.301,-0.011 -0.555,-0.155 -0.443,-0.377 0.362,0.168 0.386,-0.095 0.359,-0.263 0.074,-0.077 0.044,-0.185 0.026,-0.27 0.274,-0.055 0.315,0.072 0.34,0.261 0.453,-0.494 1.061,-0.541 1.328,-0.968 -0.032,0.825 -0.658,1.63 -1.61,1.617 m 0.328,-0.815 c -0.105,-0.229 -0.096,-0.451 -0.371,-0.422 -0.387,-0.052 -0.271,-0.73 -0.262,-0.823 0.018,-0.177 -0.037,-0.44 -0.14,-0.581 0.08,-0.021 0.162,0.005 0.218,0.044 -0.119,-0.507 -0.753,-0.826 -0.931,-0.875 0.107,-0.012 0.29,-0.018 0.419,0.035 -0.293,-0.459 -0.973,-0.582 -1.32,-0.654 0.553,-0.231 1.252,0.003 1.505,0.122 -0.248,-0.421 -0.793,-0.968 -0.825,-1.659 0.351,0.479 0.581,0.724 1.02,0.882 0.004,-0.109 -0.337,-0.613 -0.256,-0.812 0.332,0.81 0.858,0.877 1.236,1.564 0.012,0.021 0.033,0.069 0.036,0.062 -0.042,-0.224 -0.25,-1.295 -0.061,-1.582 0.016,0.336 0.086,0.622 0.259,0.825 -0.032,-0.381 -0.042,-0.987 0.187,-1.201 -0.106,0.493 -10e-4,0.937 0.109,1.146 0.044,0.085 0.26,0.666 0.317,0.859 0.028,0.096 0.067,0.279 0.086,0.405 0.075,0.51 0.225,1.325 0.008,1.688 -0.052,0.102 -0.206,0.317 -0.258,0.361 -0.25,0.23 -0.642,0.3 -0.883,0.54 -0.047,0.041 -0.088,0.076 -0.093,0.076 m 7.706,-0.461 c 0.008,0 0.016,-0.002 0.024,-0.005 0.018,-0.007 0.012,-0.012 -0.013,-0.013 -0.023,-0.001 -0.037,0.004 -0.029,0.011 0.004,0.004 0.01,0.006 0.018,0.007 m -9.365,-0.811 c -0.175,-0.136 -0.221,-0.194 -0.247,-0.314 -0.043,-0.2 0.085,-0.334 0.324,-0.339 0.187,0.009 0.26,-0.067 0.398,-0.052 0.142,0.02 0.455,0.326 0.485,0.473 0.022,0.112 0.003,0.252 -0.034,0.408 -0.017,0.067 -0.026,0.315 -0.015,0.397 -0.04,-0.005 -0.09,0.007 -0.132,0.038 -0.081,-0.146 -0.286,-0.298 -0.393,-0.361 m 0.122,0.133 c -0.182,0.022 -0.385,0.01 -0.527,-0.028 -0.278,-0.086 -0.775,-0.229 -0.663,-0.92 0.051,0.046 0.27,0.084 0.296,0.073 10e-4,0.547 0.607,0.589 0.894,0.875 m 6.205,-1.071 c -0.06,-0.116 -0.097,-0.212 -0.13,-0.211 -0.028,0.066 -0.013,0.112 -0.014,0.18 -0.974,-0.835 -1.553,-2.284 -1.469,-2.979 -0.033,-0.005 -0.083,0.005 -0.09,0.019 -0.159,-0.557 -0.123,-0.989 -0.016,-1.465 -0.052,-0.093 -0.15,-0.206 -0.177,-0.322 0.108,-0.15 0.218,-0.222 0.367,-0.317 0.115,0.211 0.166,0.285 0.227,0.42 0.184,1.445 1.177,2.799 2.536,3.509 0.728,0.377 1.115,0.446 2.188,0.573 0.187,0.018 0.482,0.036 0.732,0.01 0.365,-0.039 0.868,-0.149 1.227,-0.268 1.601,-0.599 1.886,-1.88 1.585,-2.976 1.214,0.986 0.169,3.134 -0.753,3.573 0.143,0.013 0.44,-0.188 0.542,-0.26 -1.62,2.685 -6.153,1.866 -6.755,0.514 m -8.667,-6.485 c 0.11,-0.75 1.241,-1.951 2.472,-2.476 0.184,-0.041 0.327,-0.25 0.563,-0.233 0.086,0.021 0.413,-0.043 0.57,-0.032 0.224,-0.002 0.291,-0.013 0.622,-0.1 0.384,-0.101 0.368,-0.099 0.711,-0.066 0.102,0.017 0.108,0.092 0.054,0.123 -0.045,0.034 -0.152,0.083 -0.404,0.195 -0.138,0.062 -0.296,0.131 -0.35,0.156 -0.066,0.029 -0.124,0.079 -0.175,0.151 -0.051,0.071 -0.101,0.115 -0.152,0.132 -0.749,0.271 -1.433,0.768 -1.945,1.232 -0.78,-0.177 -1.764,0.85 -1.966,0.918 m 1.862,-0.782 c -0.13,0.161 -0.278,0.237 -0.41,0.418 -0.113,0.132 -0.312,0.333 -0.317,0.474 0,0.045 -0.099,0.224 -0.163,0.295 -0.084,0.092 -0.287,0.376 -0.345,0.482 -0.03,0.056 -0.073,0.171 -0.094,0.257 -0.037,0.155 -0.035,0.21 0.014,0.376 0.073,0.251 0.164,0.363 0.276,0.487 0.146,0.163 0.21,0.209 0.593,0.247 0.15,0.015 0.299,0.046 0.351,0.062 0.16,0.066 0.38,0.131 0.477,0.256 -0.084,-0.019 -0.237,-0.009 -0.28,0.005 0.194,0.112 0.443,0.3 0.244,0.518 -0.05,0.052 -0.104,0.096 -0.112,0.117 -0.022,0.112 -0.042,0.219 -0.088,0.311 -0.046,-0.096 -0.08,-0.189 -0.118,-0.286 l -0.029,0.117 c -0.018,0.042 -0.037,0.161 -0.043,0.264 -0.015,0.265 0.033,0.461 0.192,0.783 0.133,0.265 0.187,0.358 0.423,0.606 -0.299,-0.089 -0.572,-0.107 -0.853,-0.046 -0.095,0.022 -0.216,0.058 -0.27,0.08 -0.116,0.049 -0.325,0.172 -0.417,0.267 0.502,0.043 1.038,0.058 1.309,0.352 -0.16,0.009 -0.337,0.044 -0.475,0.141 0.324,0.091 0.981,0.386 1.075,0.682 -0.107,-0.034 -0.164,-0.045 -0.251,-0.057 -0.062,-0.008 -0.16,-0.005 -0.324,-0.009 -0.549,-0.012 -0.548,0.145 -0.673,0.219 -0.018,0 -0.165,-0.067 -0.313,-0.144 -0.981,-0.506 -1.459,-0.849 -1.755,-1.259 -0.327,-0.505 -0.395,-0.941 -0.36,-1.291 -0.084,-0.183 -0.141,-0.428 -0.196,-0.68 -0.199,-0.713 -0.197,-1.128 0.009,-1.546 0.027,-0.055 0.065,-0.149 0.085,-0.209 0.02,-0.061 0.081,-0.189 0.136,-0.285 0.055,-0.095 0.144,-0.251 0.196,-0.344 0.112,-0.201 0.379,-0.568 0.477,-0.655 0.037,-0.033 0.143,-0.105 0.235,-0.158 0.092,-0.053 0.171,-0.105 0.175,-0.115 0.004,-0.011 0.116,-0.104 0.248,-0.209 0.274,-0.215 0.557,-0.369 0.874,-0.472 0.121,-0.043 0.287,-0.057 0.323,-0.177 0.036,0.075 0.109,0.129 0.174,0.126 m 6.809,3.723 c 0.49,0.339 0.983,0.63 1.685,0.793 0.212,0.155 0.359,0.269 0.568,0.498 -0.092,0.058 -0.2,0.02 -0.298,0.061 1.116,0.215 2.766,-0.277 3.283,-0.724 -0.525,0.979 -2.035,1.376 -2.848,1.324 0.09,0.055 0.193,0.077 0.375,0.088 0.231,0.246 0.424,0.508 0.552,0.793 -1.525,-0.033 -3.284,-0.969 -3.317,-2.833 m -4.947,1.865 c -0.414,-0.317 -0.92,-0.885 -1.069,-1.331 -0.213,0.323 -0.072,0.577 0.047,0.789 -0.396,-0.117 -0.594,-0.628 -0.491,-1.003 0.084,-0.109 0.195,-0.203 0.311,-0.282 0.357,0.195 0.746,0.229 1.044,0.073 0.107,0.018 0.258,0.043 0.34,0.034 -0.047,0.14 -0.247,0.157 -0.308,0.314 0.055,0.015 0.155,-0.052 0.237,-0.022 -0.214,0.366 -0.077,1.035 -0.111,1.428 m 3.594,-3.566 c 0.021,-0.044 0.315,-0.424 0.35,-0.455 0.788,1.02 1.596,1.714 2.875,1.902 0.049,0.008 0.13,0.062 0.198,0.107 0.563,0.35 1.1,0.405 1.635,0.378 0.098,-0.006 0.383,-0.009 0.529,-0.022 0.617,-0.058 1.291,-0.341 1.664,-0.47 -2.402,2.151 -6.434,0.695 -7.251,-1.44 m -4.622,1.695 c -0.014,-0.013 -0.023,-0.062 -0.05,-0.058 -0.093,0.023 -0.257,-0.006 -0.318,-0.088 -0.022,-0.106 0.076,-0.108 0.124,-0.163 -0.039,-0.267 -0.661,-0.362 -0.757,-0.376 -0.5,-0.073 -0.727,-0.211 -0.902,-0.386 -0.227,-0.226 -0.248,-0.764 -0.032,-1.029 0.126,-0.225 0.36,-0.433 0.513,-0.622 -0.016,-0.03 -0.082,-0.08 -0.061,-0.1 0.885,-1.117 1.498,-1.49 2.261,-1.611 0.173,-0.022 0.572,0.024 0.576,0.146 -0.106,-0.006 -0.448,0.172 -0.446,0.27 0.522,-0.282 1.05,-0.135 1.404,0.149 -0.258,0.006 -0.557,0.133 -0.573,0.206 0.635,-0.127 0.932,0.004 1.189,0.369 -0.099,-0.009 -0.361,-0.006 -0.372,0.027 0.344,0.384 0.46,0.931 0.402,1.364 -0.046,0.298 -0.271,0.75 -0.512,1.031 -0.18,0.22 -1.094,0.933 -1.259,0.841 0.005,-0.049 0.018,-0.123 -0.018,-0.13 -0.234,0.26 -0.869,0.366 -1.169,0.16 m 1.312,0.018 c 1.014,-0.354 2.304,-1.684 1.541,-3.016 0.203,0.005 0.346,0.292 0.445,0.465 0.177,-0.353 0.197,-1.084 0.08,-1.401 0.22,0.114 0.293,0.377 0.373,0.588 0.024,0 0.024,-0.596 -0.016,-0.922 -0.03,-0.24 -0.164,-0.965 -0.578,-1.27 0.295,-0.169 0.862,0.558 0.983,0.657 0.005,-0.207 -0.022,-0.363 -0.092,-0.54 0.277,-0.163 0.668,1.044 0.672,1.417 0.6,-1.493 0.116,-3.12 -0.307,-3.402 0.343,-0.05 0.754,0.668 0.91,0.866 0.043,-0.315 -0.065,-0.593 -0.141,-0.833 0.331,0.094 0.414,0.981 0.44,1.232 0.037,-0.805 0.025,-2.338 0.418,-3.037 -0.199,1.174 0.044,1.67 0.055,2.596 0.109,-0.256 0.508,-0.658 0.629,-0.688 -0.271,0.556 -0.574,1.103 -0.563,1.456 0.654,-1.037 1.212,-0.907 1.191,-0.749 -0.514,0.012 -0.935,0.965 -1.153,1.334 -0.223,0.573 -0.298,1.46 -1.239,2.815 -0.101,0.199 -0.665,0.797 -0.878,0.954 -0.079,0.058 -0.102,0.052 -0.19,0.156 -0.406,0.649 -1.943,1.491 -2.58,1.322 m 6.26,-0.466 c -0.699,-0.195 -1.695,-0.632 -2.512,-1.836 0.032,-0.06 0.216,-0.301 0.266,-0.398 0.764,1.126 2.705,1.787 4.154,1.121 -0.162,0.354 -1.064,0.738 -1.184,0.766 0.599,0.202 1.133,-0.047 1.533,-0.179 -0.624,0.558 -1.542,0.731 -2.257,0.526 m -1.181,-3.713 c -0.079,0.114 -0.184,0.359 -0.271,0.527 0.349,0.255 0.637,0.165 0.843,-0.16 0.029,-0.064 -0.405,-0.188 -0.572,-0.367 m -0.982,1.359 c 0.105,-0.183 0.201,-0.373 0.296,-0.572 0.121,-0.273 0.26,-0.272 0.41,-0.12 0.313,0.337 0.981,0.126 0.97,-0.542 -0.001,-0.044 -0.154,-0.158 -0.237,-0.189 0.448,-0.198 0.646,0.279 0.855,0.515 0.092,-0.323 -0.08,-0.405 -0.208,-0.621 0.409,0.136 0.499,0.443 0.601,0.685 0.34,-1.013 -0.074,-1.173 -0.454,-1.327 0.712,-0.193 1.296,0.347 1.453,0.546 -0.096,-0.372 -0.27,-0.701 -0.564,-0.869 0.465,-0.005 0.897,0.656 0.904,0.773 0.112,-0.564 0.239,-1.173 -0.151,-1.549 -0.052,-0.048 -0.095,-0.091 -0.095,-0.097 0.84,0.261 0.978,0.537 0.91,1.189 0.076,-0.09 0.106,-0.208 0.127,-0.476 0.469,0.426 0.222,1.062 0.075,1.538 0.208,-0.223 0.323,-0.619 0.344,-0.721 0.243,1.042 -0.366,2.451 -1.186,2.909 -1.257,0.702 -3.155,0.257 -4.05,-1.072 m -2.151,0 c -0.166,-0.188 -0.276,-0.241 -0.422,-0.337 -0.044,-0.036 -0.021,-0.056 0.059,-0.051 0.059,0.004 0.117,0.019 0.16,0.037 0.001,-0.109 -0.065,-0.228 -0.093,-0.311 0.149,-0.023 0.29,-0.02 0.357,0.004 0.026,0.149 0.069,0.558 -0.061,0.658 m -0.391,-0.742 c -0.058,-0.069 -0.213,-0.207 -0.306,-0.302 0.201,-0.146 0.478,-0.142 0.697,-0.138 0.054,0.085 0.103,0.362 0.093,0.427 -0.186,-0.005 -0.33,0.006 -0.484,0.013 m 0.821,-0.155 c -0.072,-0.096 -0.139,-0.194 -0.187,-0.292 0.033,-0.002 0.131,0.007 0.164,0.014 0.013,0.099 0.017,0.176 0.023,0.278 m 2.171,-0.086 c 0.095,-0.368 0.16,-0.767 0.331,-1.09 0.224,-0.415 0.961,-1.12 1.3,-0.988 -0.939,0.759 -1.199,1.765 -1.457,2.131 -0.052,-0.027 -0.111,-0.046 -0.174,-0.053 m -3.41,-0.161 c -0.003,0 -0.006,0 -0.008,-0.001 -0.202,-0.143 -0.542,-0.284 -0.702,-0.378 0.452,-0.227 0.982,-0.435 1.69,-0.334 0.142,0.129 0.203,0.367 0.205,0.514 -0.531,-0.005 -1.037,0.118 -1.185,0.199 m 2.619,-3.199 c -0.353,-0.223 -0.552,-0.41 -0.915,-0.367 0.144,0.088 0.379,0.441 0.424,0.595 -0.129,-0.005 -0.273,0.008 -0.344,0.038 0.053,0.019 0.231,0.04 0.254,0.052 0.085,0.058 0.427,0.398 0.3,0.76 -1.577,-0.21 -1.755,0.041 -2.324,0.198 -0.507,-0.207 -1.034,0.105 -1.404,0.071 -0.095,-0.016 -0.194,-0.084 -0.194,-0.134 0,-0.048 0.152,-0.335 0.305,-0.45 0.607,-0.45 0.746,-0.913 1.148,-1.189 0.507,-0.294 1.068,-0.573 1.223,-0.999 0.09,-0.137 0.375,-0.35 0.542,-0.468 0.091,-0.038 0.194,-0.036 0.294,-0.003 0.132,0.021 0.2,-0.023 0.329,-0.065 0.263,0.081 0.354,0.417 0.297,0.634 -0.066,0.172 -0.198,0.417 -0.115,0.501 0.153,0.151 0.162,0.669 0.18,0.826 m -0.566,1.137 c 0.102,0.028 0.193,0.089 0.245,0.136 0.09,0.081 0.081,0.281 0.084,0.481 -0.172,-0.006 -0.471,-0.071 -0.483,0.015 -0.148,-0.118 -0.393,-0.258 -0.53,-0.238 0.087,0.07 0.22,0.337 0.229,0.42 -0.282,-0.272 -0.642,-0.53 -0.994,-0.469 -0.086,0.017 -0.087,0.05 -0.004,0.106 0.085,0.057 0.101,0.099 0.039,0.099 -0.04,0 -0.017,0.018 0.095,0.147 0.239,0.272 0.342,0.455 0.34,0.55 -0.658,-0.079 -1.309,0.104 -1.984,0.387 -0.523,-0.234 -1.136,-0.089 -1.268,-0.068 0.173,-0.405 1.339,-0.618 1.992,-0.774 -0.107,-0.052 -0.672,-10e-4 -0.749,0.02 0.076,-0.229 0.761,-0.375 0.873,-0.515 0.31,-0.292 1.31,-0.377 2.115,-0.297 m 0.234,1.532 c -0.02,-0.171 -0.161,-0.754 -0.277,-0.831 0.012,-0.025 0.081,-0.03 0.121,0.006 0.033,0.029 0.116,0.065 0.159,0.05 0.23,0.093 0.083,0.751 -0.003,0.775 m -3.489,-2.16 -0.271,0.221 c -0.138,0.22 -0.26,0.494 -0.407,0.662 -0.041,0.024 -0.229,0.014 -0.287,0.022 -0.169,0.025 -0.462,0.14 -0.66,0.257 -0.102,0.062 -0.162,0.091 -0.201,0.09 -0.038,-0.001 -0.054,-0.034 -0.069,-0.099 -0.024,-0.111 0,-0.239 0.105,-0.56 0.029,-0.129 0.18,-0.334 0.018,-0.387 -0.093,-0.042 -0.073,-0.167 0.073,-0.368 0.09,-0.097 0.161,-0.133 0.245,-0.179 0.073,-0.037 0.083,-0.088 0.043,-0.204 -0.032,-0.091 0.025,-0.208 0.135,-0.281 0.044,-0.029 0.093,-0.081 0.106,-0.115 0.037,-0.088 0.129,-0.166 0.238,-0.203 0.146,-0.048 0.271,-0.012 0.578,0.167 0.105,0.062 0.304,0.112 0.529,0.132 0.226,0.021 0.378,0.058 0.393,0.096 -0.005,0.346 -0.344,0.589 -0.568,0.749 m 12.387,1.107 c -0.005,-10e-4 -0.008,-0.012 -0.007,-0.03 0.001,-0.025 0.007,-0.03 0.013,-0.012 0.006,0.015 0.005,0.034 -0.002,0.041 -0.001,10e-4 -0.003,0.002 -0.004,10e-4 m -14.329,-0.975 c -0.032,0.006 -0.124,-0.006 -0.215,-0.003 -0.191,0.007 -0.287,0.01 -0.341,0.005 -0.669,0.09 -1.752,0.366 -2.405,0.561 -0.114,0.038 -0.221,0.082 -0.317,0.136 -0.074,0.043 -0.181,0.097 -0.239,0.118 -0.047,0.017 -0.076,0.027 -0.106,0.028 -0.03,0.002 -0.067,0.007 -0.112,-0.019 -0.062,-0.036 -0.176,-0.067 -0.252,-0.024 -0.192,0.007 -0.393,-0.112 -0.514,-0.205 -0.229,-0.175 -0.408,-0.248 -0.953,-0.381 -0.269,-0.055 -0.639,-0.198 -0.731,-0.334 -0.046,-0.067 -0.043,-0.153 0.011,-0.22 0.036,-0.03 0.079,-0.087 0.069,-0.129 0.03,-0.088 0.127,-0.214 0.165,-0.214 0.018,0 0.027,0.034 0.027,0.1 0,0.13 0.05,0.227 0.108,0.213 0.039,-0.011 0.143,0.041 0.392,0.191 0.032,0.02 0.113,0.041 0.182,0.05 0.234,0.027 0.588,0.162 0.841,0.321 0.026,0.017 0.055,0.024 0.063,0.015 0.025,-0.024 -0.096,-0.185 -0.299,-0.4 -0.291,-0.289 -0.207,-0.334 -0.316,-0.36 -0.157,-0.108 -0.2,-0.24 -0.129,-0.407 0.033,-0.082 0.074,-0.118 0.207,-0.19 0.042,-0.022 0.082,-0.05 0.09,-0.062 0.015,-0.024 0.194,-0.052 0.194,-0.029 0,0.007 -0.025,0.06 -0.054,0.117 -0.06,0.112 -0.071,0.179 -0.028,0.18 0.015,0 0.043,0.022 0.063,0.049 0.037,0.051 0.15,0.32 0.15,0.357 0,0.019 0.08,0.12 0.249,0.314 0.026,0.03 0.09,0.116 0.142,0.192 0.101,0.15 0.167,0.185 0.128,0.087 -0.165,-0.299 0.546,-0.161 0.602,0.02 0.083,-0.123 0.068,-0.375 0.07,-0.484 0.005,-0.42 0.08,-0.584 0.3,-0.658 0.13,-0.043 0.168,-0.081 0.169,-0.168 0,-0.039 0.012,-0.059 0.034,-0.059 0.046,0 0.141,0.098 0.141,0.145 0,0.059 -0.103,0.27 -0.131,0.27 -0.013,0 -0.017,0.011 -0.009,0.023 0.01,0.018 0.02,0.016 0.033,-0.005 0.016,-0.024 0.02,-0.023 0.019,0.003 0,0.049 -0.076,0.208 -0.138,0.29 -0.081,0.107 -0.108,0.241 -0.091,0.441 0.009,0.096 0.029,0.194 0.046,0.218 0.021,0.031 0.028,0.04 0.03,0.023 0.009,-0.055 0.017,-0.113 0.029,-0.178 0.006,-0.005 0.146,-0.043 0.311,-0.085 0.186,-0.046 0.27,-0.053 0.327,-0.062 0.056,0.007 0.124,0.022 0.159,0.027 0.023,-0.028 0.035,-0.068 0.048,-0.097 0.041,-0.094 0.11,-0.511 0.11,-0.668 l 0,-0.068 0.052,0.055 c 0.062,0.067 0.153,0.502 0.142,0.673 -0.005,0.059 -0.005,0.109 -0.002,0.109 0.043,-0.068 0.088,-0.135 0.09,-0.222 0.436,-0.091 0.938,-0.287 1.384,-0.469 0.201,-0.102 0.725,-0.281 0.771,-0.263 0.042,0.017 0.014,0.102 -0.06,0.178 -0.066,0.068 -0.131,0.251 -0.121,0.341 0.004,0.036 -0.005,0.052 -0.029,0.052 -0.019,10e-4 -0.072,0.029 -0.117,0.064 -0.053,0.044 -0.207,0.368 -0.239,0.497 m 4.276,-2.306 c -0.004,0 -0.008,0 -0.012,-0.001 -0.079,-0.345 -0.464,-1.627 -0.739,-2.148 -0.247,-0.466 -0.411,-0.455 -0.53,-0.686 -0.024,-0.057 -0.147,-0.274 -0.153,-0.335 -0.024,-0.087 -0.057,-0.256 -0.317,-0.258 -0.413,0 -1.007,0.012 -1.112,-0.128 -0.075,-0.024 -0.16,-0.036 -0.19,-0.029 -0.088,0.023 -0.286,-0.047 -0.35,-0.123 -0.058,-0.069 -0.076,-0.184 -0.031,-0.199 0.018,-0.007 0.017,-0.03 -0.005,-0.089 -0.024,-0.103 -0.013,-0.243 0.072,-0.309 0.029,0.035 0.03,0.068 0.044,0.122 0.019,0.074 0.088,0.14 0.134,0.139 0.005,-0.002 -0.006,-0.027 -0.015,-0.051 -0.018,-0.078 0.046,-0.093 0.099,-0.077 0.054,0.018 0.118,0.064 0.295,0.174 0.077,0.049 0.17,0.105 0.284,0.057 0.277,-0.103 0.761,0.168 0.99,0.113 -0.094,-0.186 -0.331,-0.4 -0.362,-0.423 -0.284,-0.165 -0.705,-0.344 -0.403,-0.689 0.009,-0.163 0.129,-0.273 0.263,-0.295 -0.021,0.163 -0.025,0.265 0.061,0.332 -0.002,-0.016 -0.037,-0.054 0.052,-0.058 0.17,-0.014 0.154,0.173 0.156,0.341 0.366,0.231 0.48,0.559 0.747,0.867 0.019,0.018 0.065,-0.007 0.04,-0.035 -0.052,-0.08 -0.141,-0.22 -0.119,-0.326 0.033,0 0.131,0.002 0.154,-0.036 0.055,0.074 0.146,0.168 0.288,0.159 0.019,0 0.066,0.036 0.103,0.078 0.053,0.061 0.069,0.098 0.069,0.17 0,0.083 -0.028,0.146 -0.061,0.172 -0.006,0.01 0.002,0.028 0.021,0.035 0.166,-0.076 0.26,-0.244 0.355,-0.413 0.033,-0.212 0.156,-0.352 0.346,-0.394 0.05,-0.011 0.096,0.015 0.118,0.004 0.044,-0.079 0.103,-0.193 0.093,-0.315 0.149,0.03 0.215,0.2 0.165,0.329 -0.02,0.048 -0.025,0.09 -0.013,0.11 0.024,0.044 -0.012,0.203 -0.059,0.254 -0.039,0.044 -0.227,0.146 -0.268,0.146 -0.278,0.141 -0.365,0.47 -0.505,0.745 -0.011,0.019 -0.059,-0.008 -0.069,-0.029 -0.025,-0.064 -0.012,0.089 0.017,0.181 0.267,0.688 0.714,1.393 1.083,2.034 0.15,0.154 0.446,0.227 0.422,0.474 -0.271,0.059 -0.435,0.064 -0.576,-0.001 -0.123,-0.057 -0.212,-0.233 -0.299,-0.423 0.043,0.157 0.18,0.401 0.121,0.508 -0.11,0.144 -0.275,0.326 -0.404,0.326 m 0.137,-2.095 c -0.041,-0.102 -0.117,-0.245 -0.173,-0.336 0.277,-0.056 0.894,-0.023 0.941,0.143 -0.386,0.031 -0.603,0.084 -0.768,0.193 m -4.151,15.632 c 0.448,-0.022 0.599,0.261 0.246,0.53 -0.095,-0.05 -0.124,-0.098 -0.281,-0.118 -0.069,-0.009 -0.222,0.015 -0.316,-0.01 -0.071,-0.022 -0.139,-0.059 -0.217,-0.137 0.054,-0.072 0.168,-0.08 0.25,-0.115 0.121,-0.053 0.263,-0.013 0.439,0.056 -0.002,-0.142 -0.061,-0.091 -0.121,-0.206 m 0.698,0.924 c 0.331,0.074 -0.097,0.413 -0.08,0.08 -0.117,0.047 -0.048,0.195 -0.107,0.214 -0.184,0.037 -0.264,-0.06 -0.251,-0.279 -0.093,-0.055 -0.1,-0.097 -0.012,-0.133 -0.002,-0.094 0.033,-0.134 0.102,-0.125 0.014,-0.152 0.064,-0.267 0.175,-0.306 0.024,-0.012 -0.017,-0.185 0.006,-0.218 0.139,0.022 0.234,0.123 0.254,0.357 0.141,-0.076 0.346,-0.113 0.377,0.047 -0.172,0.007 -0.265,0.042 -0.3,0.106 -0.049,0.09 0.046,0.178 0.008,0.236 -0.069,-0.047 -0.168,-0.034 -0.172,0.021 m 6.633,-1.14 c 1.205,0.474 2.258,0.49 3.237,0.286 1.164,0.509 1.857,1.118 2.471,1.676 -0.898,-0.497 -1.748,-0.466 -2.533,-0.741 1.046,0.777 1.783,1.669 1.962,2.773 -0.369,-0.479 -0.714,-1.003 -1.151,-1.36 0.052,0.066 0.07,0.174 0.085,0.286 -0.783,-0.926 -2.378,-1.684 -4.071,-2.92 m -2.169,-5.683 c 0.322,0.435 0.669,0.811 1.049,1.115 0.073,0.77 0.476,1.446 0.786,1.874 -1.01,-0.784 -1.586,-1.756 -1.835,-2.989 m 4.193,3.203 c 0.231,0.236 0.344,0.524 0.498,0.809 0.162,0.019 0.449,0.027 0.661,0.003 -0.152,-0.295 -0.393,-0.59 -0.634,-0.885 -0.14,0.028 -0.392,0.084 -0.525,0.073 m -0.947,-1.151 c 0.15,0.121 0.298,0.243 0.421,0.435 0.139,0.023 0.479,0.009 0.759,-0.033 -0.016,-0.107 -0.119,-0.2 -0.19,-0.297 -0.327,-0.069 -0.659,-0.086 -0.99,-0.105 m 0.339,-1.066 c 0.961,0.424 2.541,0.394 3.522,-0.265 1.724,-1.161 2.112,-2.906 1.741,-5.981 -0.193,-1.6 -1.093,-2.05 -0.888,-5.861 -0.578,1.188 -0.812,2.384 -0.52,3.485 -0.59,-0.508 -1.062,-1.143 -1.245,-2.087 -0.941,1.399 1.718,3.081 1.723,5.642 -0.018,2.524 -1.128,5.369 -4.333,5.067 m 0.533,-0.144 c 4.04,-0.044 4.508,-6.412 1.771,-6.949 0.665,0.606 1.008,1.245 1.07,1.913 -1.678,-2.355 -3.637,-1.195 -3.747,-0.788 3.542,-0.85 3.553,3.032 1.715,4.458 -0.199,0.496 -0.575,0.705 -0.983,0.863 0.327,0.024 0.771,-0.06 1.507,-0.415 -0.344,0.605 -0.83,0.786 -1.333,0.918 m 2.632,-5.418 c -0.541,-0.737 -1.17,-1.38 -2.642,-1.143 -0.65,-0.719 -1.231,-0.891 -1.777,-0.788 0.338,-0.34 0.845,-0.271 1.429,-0.016 -0.385,-0.464 -0.82,-0.89 -1.591,-1.05 0.23,-0.418 1.4,-0.414 2.233,0.811 -0.653,-1.408 -0.442,-2.534 -0.162,-3.638 0.021,1.388 0.215,2.425 0.873,3.421 -0.088,-0.375 -0.129,-0.828 -0.156,-1.305 0.174,0.569 0.351,1.123 0.565,1.53 -0.045,-0.455 0.005,-0.986 0.061,-1.522 0.063,0.637 0.108,1.264 0.51,2.101 -0.223,-0.058 -0.393,-0.063 -0.533,0.024 0.844,0.576 1.036,1.08 1.19,1.575"/></g></g></g></g></svg>