<svg xmlns:dc="http://purl.org/dc/elements/1.1/" xmlns:cc="http://creativecommons.org/ns#" xmlns:rdf="http://www.w3.org/1999/02/22-rdf-syntax-ns#" xmlns:svg="http://www.w3.org/2000/svg" xmlns="http://www.w3.org/2000/svg" viewBox="0 0 45 45" style="enable-background:new 0 0 45 45;" xml:space="preserve" version="1.1" id="svg2"><metadata id="metadata8"><rdf:RDF><cc:Work rdf:about=""><dc:format>image/svg+xml</dc:format><dc:type rdf:resource="http://purl.org/dc/dcmitype/StillImage"/></cc:Work></rdf:RDF></metadata><defs id="defs6"><clipPath id="clipPath16" clipPathUnits="userSpaceOnUse"><path id="path18" d="M 4,31 C 1.791,31 0,29.209 0,27 L 0,27 0,9 C 0,6.791 1.791,5 4,5 l 0,0 28,0 c 2.209,0 4,1.791 4,4 l 0,0 0,18 c 0,2.209 -1.791,4 -4,4 l 0,0 -28,0 z"/></clipPath></defs><g transform="matrix(1.25,0,0,-1.25,0,45)" id="g10"><g id="g12"><g clip-path="url(#clipPath16)" id="g14"><path id="path20" style="fill:#012d6a;fill-opacity:1;fill-rule:nonzero;stroke:none" d="M 0,5 36,5 36,31 0,31 0,5 Z"/></g></g><g xmlns="http://www.w3.org/2000/svg" id="g22" transform="translate(-4.5,-4.5)"><g id="g3557" transform="translate(32.9873,22.5)"><path d="m 0,0 c 0,5.792 -4.695,10.487 -10.487,10.487 -5.792,0 -10.488,-4.695 -10.488,-10.487 0,-5.792 4.696,-10.487 10.488,-10.487 C -4.695,-10.487 0,-5.792 0,0 m -10.487,-10.112 c -5.585,0 -10.113,4.527 -10.113,10.112 0,5.585 4.528,10.112 10.113,10.112 5.585,0 10.112,-4.527 10.112,-10.112 0,-5.585 -4.527,-10.112 -10.112,-10.112" style="fill:#ffc323;fill-opacity:1;fill-rule:nonzero;stroke:none" id="path3559"/></g><g id="g3561" transform="translate(22.8438,29.4668)"><path d="M 0,0 C 0,0 -0.295,0.871 0.561,1.038 1.186,1.16 2.494,0.746 3.783,-0.044 4.801,-0.668 5.534,-1.509 6.09,-2.412 c 1.421,-2.31 0.909,-3.929 0.909,-3.929 0,0 -0.235,0.1 -0.43,0.389 -0.132,0.197 -0.204,0.49 -0.204,0.49 0,0 -0.207,0.046 -0.391,0.338 -0.186,0.292 -0.211,0.571 -0.211,0.571 0,0 -0.329,0.173 -0.483,0.373 -0.154,0.201 -0.203,0.559 -0.203,0.559 0,0 -0.299,0.094 -0.717,0.345 C 3.943,-3.025 3.824,-3 3.389,-2.708 2.952,-2.417 2.883,-2.492 2.504,-2.382 2.124,-2.272 1.986,-2.112 1.895,-2.134 1.804,-2.156 1.778,-2.507 1.428,-2.809 1.076,-3.11 1.102,-3.241 1.258,-3.329 1.415,-3.417 1.443,-3.503 1.443,-3.503 l -3.517,0 c 0,0 0.029,0.086 0.185,0.174 0.158,0.088 0.182,0.219 -0.169,0.52 -0.351,0.302 -0.377,0.653 -0.467,0.675 -0.091,0.022 -0.229,-0.138 -0.609,-0.248 -0.38,-0.11 -0.449,-0.035 -0.885,-0.326 -0.436,-0.292 -0.555,-0.317 -0.972,-0.568 -0.418,-0.251 -0.717,-0.345 -0.717,-0.345 0,0 -0.049,-0.358 -0.203,-0.559 -0.153,-0.2 -0.483,-0.373 -0.483,-0.373 0,0 -0.024,-0.279 -0.21,-0.571 -0.185,-0.292 -0.392,-0.338 -0.392,-0.338 0,0 -0.071,-0.293 -0.204,-0.49 -0.195,-0.289 -0.43,-0.389 -0.43,-0.389 0,0 -0.511,1.619 0.91,3.929 0.555,0.903 1.289,1.744 2.306,2.368 1.289,0.79 2.598,1.204 3.223,1.082 C -0.335,0.871 -0.63,0 -0.63,0 L 0,0 z" style="fill:#904b2e;fill-opacity:1;fill-rule:nonzero;stroke:none" id="path3563"/></g><g id="g3565" transform="translate(20.6108,27.4238)"><path d="m 0,0 c 0,0 -0.115,0.356 0.435,0.356 0.551,0 0.598,-0.075 0.979,-0.075 0.143,0 0.399,0.235 0.399,0.235 0,0 0.026,-0.153 0.119,-0.119 C 2.078,0.45 2.046,0.982 2.329,0.961 2.633,0.939 2.131,0.439 2.131,0.439 c 0,0 0.042,-0.011 0.103,0.004 0.071,0.018 0.14,0.053 0.14,0.053 0,0 -0.083,-0.217 -0.027,-0.288 C 2.414,0.125 2.805,0.414 2.792,0.201 2.778,-0.058 2.398,0 2.398,0 c 0,0 -0.008,-0.058 0.084,-0.107 0.092,-0.05 0.17,-0.083 0.17,-0.083 0,0 -0.022,-0.2 -0.254,-0.251 C 2.165,-0.493 2.007,-0.5 2.007,-0.5 c 0,0 0.094,-0.071 0.308,-0.095 0.215,-0.023 0.318,0 0.318,0 0,0 -0.036,-0.157 -0.36,-0.207 -0.325,-0.049 -0.428,-0.023 -0.428,-0.023 0,0 0.07,-0.064 0.247,-0.087 0.176,-0.024 0.273,-0.033 0.273,-0.033 0,0 -0.064,-0.108 -0.353,-0.148 -0.29,-0.04 -0.497,0 -0.497,0 0,0 0.075,-0.064 0.278,-0.139 0.202,-0.076 0.29,-0.082 0.29,-0.082 0,0 -0.321,-0.189 -0.867,0.032 -0.546,0.221 -0.625,0.419 -0.625,0.419 L 0,0 z" style="fill:#ffffff;fill-opacity:1;fill-rule:nonzero;stroke:none" id="path3567"/></g><g id="g3569" transform="translate(21.126,26.5)"><path d="m 0,0 c 0,0 0.054,0.057 0.137,0.094 0.082,0.037 0.193,0.054 0.193,0.103 0,0.099 -0.331,0.481 -0.445,0.542 -0.071,0.037 -0.167,0.012 -0.167,0.012 0,0 -0.367,0.477 -0.96,0.035 -0.111,-0.082 -0.162,-0.299 -0.07,-0.48 0.107,-0.214 0.303,-0.214 0.303,-0.214 0,0 -0.023,0.11 0.082,0.222 0.094,0.1 0.208,0.096 0.208,0.096 L 0,0 z" style="fill:#ffc323;fill-opacity:1;fill-rule:nonzero;stroke:none" id="path3571"/></g><g id="g3573" transform="translate(24.7139,18.3447)"><path d="m 0,0 1.198,-1.183 c 0,0 -0.061,-0.144 -0.644,-0.506 -0.584,-0.363 -0.993,-0.557 -0.993,-0.557 l -0.133,0.395 -0.868,-0.59 0,1.926 c 0,0 0.285,0.184 0.652,0.339 C -0.305,0.028 0,0 0,0" style="fill:#ffffff;fill-opacity:1;fill-rule:nonzero;stroke:none" id="path3575"/></g><g id="g3577" transform="translate(20.3433,18.3447)"><path d="m 0,0 -1.198,-1.183 c 0,0 0.061,-0.144 0.644,-0.506 0.584,-0.363 0.993,-0.557 0.993,-0.557 l 0.133,0.395 0.868,-0.59 0,1.926 c 0,0 -0.285,0.184 -0.652,0.339 C 0.304,0.028 0,0 0,0" style="fill:#ffffff;fill-opacity:1;fill-rule:nonzero;stroke:none" id="path3579"/></g><g id="g3581" transform="translate(29.2275,21.9219)"><path d="M 0,0 C 0.114,-0.386 0.178,-0.781 0.12,-1.309 -0.126,-3.533 -2.604,-4.11 -2.604,-4.11 l -1.001,1.006 c 0,0 0.959,0.534 1.009,1.592 L 0,0 z" style="fill:#ffffff;fill-opacity:1;fill-rule:nonzero;stroke:none" id="path3583"/></g><g id="g3585" transform="translate(15.8291,21.9219)"><path d="M 0,0 C -0.114,-0.386 -0.178,-0.781 -0.12,-1.309 0.126,-3.533 2.604,-4.11 2.604,-4.11 l 1.002,1.006 c 0,0 -0.96,0.534 -1.01,1.592 L 0,0 z" style="fill:#ffffff;fill-opacity:1;fill-rule:nonzero;stroke:none" id="path3587"/></g><g id="g3589" transform="translate(23.4365,17.7891)"><path d="m 0,0 0,-1.612 c 0,0 0.108,0.079 0.256,0.174 0.147,0.095 0.233,0.142 0.233,0.142 L 0.455,0.232 c 0,0 -0.087,-0.031 -0.229,-0.103 C 0.084,0.057 0,0 0,0" style="fill:#e51837;fill-opacity:1;fill-rule:nonzero;stroke:none" id="path3591"/></g><g id="g3593" transform="translate(21.6201,17.7891)"><path d="m 0,0 0,-1.612 c 0,0 -0.108,0.079 -0.255,0.174 -0.148,0.095 -0.234,0.142 -0.234,0.142 l 0.034,1.528 c 0,0 0.087,-0.031 0.229,-0.103 C -0.084,0.057 0,0 0,0" style="fill:#e51837;fill-opacity:1;fill-rule:nonzero;stroke:none" id="path3595"/></g><g id="g3597" transform="translate(24.1641,18.1436)"><path d="m 0,0 c 0,0 0.041,0.038 0.217,0.072 0.176,0.034 0.279,0 0.279,0 L 0.498,-1.296 0.03,-1.519 0,0 z" style="fill:#e51837;fill-opacity:1;fill-rule:nonzero;stroke:none" id="path3599"/></g><g id="g3601" transform="translate(20.8926,18.1436)"><path d="m 0,0 c 0,0 -0.041,0.038 -0.217,0.072 -0.176,0.034 -0.279,0 -0.279,0 L -0.498,-1.296 -0.03,-1.519 0,0 z" style="fill:#e51837;fill-opacity:1;fill-rule:nonzero;stroke:none" id="path3603"/></g><g id="g3605" transform="translate(24.373,16.5156)"><path d="m 0,0 0,-0.26 0.359,0.219 0,0.196 C 0.359,0.155 0.3,0.154 0.166,0.089 0.032,0.024 0,0 0,0" style="fill:#e51837;fill-opacity:1;fill-rule:nonzero;stroke:none" id="path3607"/></g><g id="g3609" transform="translate(20.6841,16.5156)"><path d="m 0,0 0,-0.26 -0.36,0.219 0,0.196 c 0,0 0.06,-0.001 0.194,-0.066 C -0.032,0.024 0,0 0,0" style="fill:#e51837;fill-opacity:1;fill-rule:nonzero;stroke:none" id="path3611"/></g><g id="g3613" transform="translate(24.9727,17.9395)"><path d="m 0,0 c 0,0 0.012,-0.217 0.023,-0.677 0.013,-0.472 0.02,-0.634 0.02,-0.634 L 0.565,-1.047 0.598,-0.524 0,0 z" style="fill:#e51837;fill-opacity:1;fill-rule:nonzero;stroke:none" id="path3615"/></g><g id="g3617" transform="translate(20.084,17.9395)"><path d="M 0,0 C 0,0 -0.011,-0.217 -0.023,-0.677 -0.036,-1.149 -0.042,-1.311 -0.042,-1.311 L -0.565,-1.047 -0.598,-0.524 0,0 z" style="fill:#e51837;fill-opacity:1;fill-rule:nonzero;stroke:none" id="path3619"/></g><g id="g3621" transform="translate(26.6318,20.4102)"><path d="m 0,0 c 0,0 0.043,-0.519 -0.287,-0.986 -0.329,-0.468 -0.675,-0.618 -0.675,-0.618 l 0.214,-0.21 c 0,0 0.634,0.351 0.97,0.881 0.432,0.684 0.274,1.222 0.274,1.222 L 0,0 z" style="fill:#e51837;fill-opacity:1;fill-rule:nonzero;stroke:none" id="path3623"/></g><g id="g3625" transform="translate(18.4253,20.4102)"><path d="m 0,0 c 0,0 -0.043,-0.519 0.287,-0.986 0.329,-0.468 0.674,-0.618 0.674,-0.618 l -0.213,-0.21 c 0,0 -0.634,0.351 -0.97,0.881 -0.432,0.684 -0.275,1.222 -0.275,1.222 L 0,0 z" style="fill:#e51837;fill-opacity:1;fill-rule:nonzero;stroke:none" id="path3627"/></g><g id="g3629" transform="translate(27.6309,20.9922)"><path d="M 0,0 C 0,0 0.258,-0.521 -0.072,-1.372 -0.401,-2.224 -1.1,-2.641 -1.1,-2.641 c 0,0 0.887,0.379 1.405,1.254 0.517,0.876 0.333,1.758 0.333,1.758 L 0,0 z" style="fill:#e51837;fill-opacity:1;fill-rule:nonzero;stroke:none" id="path3631"/></g><g id="g3633" transform="translate(17.4263,20.9922)"><path d="M 0,0 C 0,0 -0.258,-0.521 0.072,-1.372 0.401,-2.224 1.1,-2.641 1.1,-2.641 c 0,0 -0.887,0.379 -1.405,1.254 -0.518,0.876 -0.333,1.758 -0.333,1.758 L 0,0 z" style="fill:#e51837;fill-opacity:1;fill-rule:nonzero;stroke:none" id="path3635"/></g><g id="g3637" transform="translate(28.5703,21.5391)"><path d="M 0,0 C 0,0 0.334,-1.068 -0.108,-1.977 -0.721,-3.235 -1.99,-3.644 -1.99,-3.644 l 0.047,-0.059 c 0,0 1.539,0.358 2.297,1.598 C 1.09,-0.9 0.657,0.383 0.657,0.383 L 0,0 z" style="fill:#e51837;fill-opacity:1;fill-rule:nonzero;stroke:none" id="path3639"/></g><g id="g3641" transform="translate(16.4868,21.5391)"><path d="M 0,0 C 0,0 -0.334,-1.068 0.108,-1.977 0.721,-3.235 1.99,-3.644 1.99,-3.644 L 1.943,-3.703 c 0,0 -1.539,0.358 -2.297,1.598 C -1.09,-0.9 -0.658,0.383 -0.658,0.383 L 0,0 z" style="fill:#e51837;fill-opacity:1;fill-rule:nonzero;stroke:none" id="path3643"/></g><g id="g3645" transform="translate(29.2275,21.9219)"><path d="M 0,0 C -0.08,0.268 -0.185,0.53 -0.29,0.827 -0.554,1.572 -0.836,2.521 -0.92,3.18 -0.99,3.727 -0.958,3.929 -0.958,3.929 l -0.32,-0.03 c 0,0 -0.276,-0.618 -0.431,-0.8 -0.375,-0.44 -0.959,-0.615 -1.197,-1.302 -0.239,-0.687 -0.187,-1.394 0.199,-2.561 0.091,-0.272 0.121,-0.522 0.111,-0.748 L 0,0 z" style="fill:#012d6a;fill-opacity:1;fill-rule:nonzero;stroke:none" id="path3647"/></g><g id="g3649" transform="translate(15.8291,21.9219)"><path d="M 0,0 C 0.08,0.268 0.185,0.53 0.29,0.827 0.554,1.572 0.836,2.521 0.92,3.18 0.991,3.727 0.958,3.929 0.958,3.929 l 0.32,-0.03 c 0,0 0.276,-0.618 0.431,-0.8 C 2.084,2.659 2.668,2.484 2.906,1.797 3.145,1.11 3.093,0.403 2.707,-0.764 2.617,-1.036 2.586,-1.286 2.596,-1.512 L 0,0 z" style="fill:#012d6a;fill-opacity:1;fill-rule:nonzero;stroke:none" id="path3651"/></g><path d="m 28.073,24.811 -0.21,0 0,0.21 0.21,0 0,-0.21 z" style="fill:#ffffff;fill-opacity:1;fill-rule:nonzero;stroke:none" id="path3653"/><path d="m 28.207,24.235 -0.21,0 0,0.21 0.21,0 0,-0.21 z" style="fill:#ffffff;fill-opacity:1;fill-rule:nonzero;stroke:none" id="path3655"/><path d="m 28.376,23.668 -0.21,0 0,0.21 0.21,0 0,-0.21 z" style="fill:#ffffff;fill-opacity:1;fill-rule:nonzero;stroke:none" id="path3657"/><path d="m 28.557,23.099 -0.21,0 0,0.21 0.21,0 0,-0.21 z" style="fill:#ffffff;fill-opacity:1;fill-rule:nonzero;stroke:none" id="path3659"/><path d="m 28.687,22.528 -0.21,0 0,0.21 0.21,0 0,-0.21 z" style="fill:#ffffff;fill-opacity:1;fill-rule:nonzero;stroke:none" id="path3661"/><path d="m 28.83,21.954 -0.211,0 0,0.21 0.211,0 0,-0.21 z" style="fill:#ffffff;fill-opacity:1;fill-rule:nonzero;stroke:none" id="path3663"/><path d="m 27.65,24.214 -0.211,0 0,0.21 0.211,0 0,-0.21 z" style="fill:#ffffff;fill-opacity:1;fill-rule:nonzero;stroke:none" id="path3665"/><path d="m 27.846,23.659 -0.21,0 0,0.21 0.21,0 0,-0.21 z" style="fill:#ffffff;fill-opacity:1;fill-rule:nonzero;stroke:none" id="path3667"/><path d="m 28.009,23.098 -0.21,0 0,0.21 0.21,0 0,-0.21 z" style="fill:#ffffff;fill-opacity:1;fill-rule:nonzero;stroke:none" id="path3669"/><path d="m 28.174,22.52 -0.21,0 0,0.21 0.21,0 0,-0.21 z" style="fill:#ffffff;fill-opacity:1;fill-rule:nonzero;stroke:none" id="path3671"/><path d="m 28.311,21.947 -0.21,0 0,0.21 0.21,0 0,-0.21 z" style="fill:#ffffff;fill-opacity:1;fill-rule:nonzero;stroke:none" id="path3673"/><path d="m 27.314,23.615 -0.21,0 0,0.21 0.21,0 0,-0.21 z" style="fill:#ffffff;fill-opacity:1;fill-rule:nonzero;stroke:none" id="path3675"/><path d="m 27.488,23.044 -0.21,0 0,0.21 0.21,0 0,-0.21 z" style="fill:#ffffff;fill-opacity:1;fill-rule:nonzero;stroke:none" id="path3677"/><path d="m 27.659,22.523 -0.21,0 0,0.21 0.21,0 0,-0.21 z" style="fill:#ffffff;fill-opacity:1;fill-rule:nonzero;stroke:none" id="path3679"/><path d="m 27.804,21.947 -0.21,0 0,0.21 0.21,0 0,-0.21 z" style="fill:#ffffff;fill-opacity:1;fill-rule:nonzero;stroke:none" id="path3681"/><path d="m 26.776,23.632 -0.21,0 0,0.21 0.21,0 0,-0.21 z" style="fill:#ffffff;fill-opacity:1;fill-rule:nonzero;stroke:none" id="path3683"/><path d="m 26.95,23.042 -0.21,0 0,0.21 0.21,0 0,-0.21 z" style="fill:#ffffff;fill-opacity:1;fill-rule:nonzero;stroke:none" id="path3685"/><path d="m 27.152,22.526 -0.21,0 0,0.21 0.21,0 0,-0.21 z" style="fill:#ffffff;fill-opacity:1;fill-rule:nonzero;stroke:none" id="path3687"/><path d="m 27.28,21.947 -0.211,0 0,0.21 0.211,0 0,-0.21 z" style="fill:#ffffff;fill-opacity:1;fill-rule:nonzero;stroke:none" id="path3689"/><path d="m 27.437,21.354 -0.21,0 0,0.21 0.21,0 0,-0.21 z" style="fill:#ffffff;fill-opacity:1;fill-rule:nonzero;stroke:none" id="path3691"/><path d="m 26.639,22.53 -0.211,0 0,0.21 0.211,0 0,-0.21 z" style="fill:#ffffff;fill-opacity:1;fill-rule:nonzero;stroke:none" id="path3693"/><path d="m 26.766,21.949 -0.211,0 0,0.21 0.211,0 0,-0.21 z" style="fill:#ffffff;fill-opacity:1;fill-rule:nonzero;stroke:none" id="path3695"/><path d="m 26.908,21.356 -0.21,0 0,0.21 0.21,0 0,-0.21 z" style="fill:#ffffff;fill-opacity:1;fill-rule:nonzero;stroke:none" id="path3697"/><path d="m 16.983,24.811 0.21,0 0,0.21 -0.21,0 0,-0.21 z" style="fill:#ffffff;fill-opacity:1;fill-rule:nonzero;stroke:none" id="path3699"/><path d="m 16.85,24.235 0.21,0 0,0.21 -0.21,0 0,-0.21 z" style="fill:#ffffff;fill-opacity:1;fill-rule:nonzero;stroke:none" id="path3701"/><path d="m 16.681,23.668 0.21,0 0,0.21 -0.21,0 0,-0.21 z" style="fill:#ffffff;fill-opacity:1;fill-rule:nonzero;stroke:none" id="path3703"/><path d="m 16.5,23.099 0.21,0 0,0.21 -0.21,0 0,-0.21 z" style="fill:#ffffff;fill-opacity:1;fill-rule:nonzero;stroke:none" id="path3705"/><path d="m 16.37,22.528 0.21,0 0,0.21 -0.21,0 0,-0.21 z" style="fill:#ffffff;fill-opacity:1;fill-rule:nonzero;stroke:none" id="path3707"/><path d="m 16.227,21.954 0.21,0 0,0.21 -0.21,0 0,-0.21 z" style="fill:#ffffff;fill-opacity:1;fill-rule:nonzero;stroke:none" id="path3709"/><path d="m 17.407,24.214 0.21,0 0,0.21 -0.21,0 0,-0.21 z" style="fill:#ffffff;fill-opacity:1;fill-rule:nonzero;stroke:none" id="path3711"/><path d="m 17.211,23.659 0.21,0 0,0.21 -0.21,0 0,-0.21 z" style="fill:#ffffff;fill-opacity:1;fill-rule:nonzero;stroke:none" id="path3713"/><path d="m 17.048,23.098 0.21,0 0,0.21 -0.21,0 0,-0.21 z" style="fill:#ffffff;fill-opacity:1;fill-rule:nonzero;stroke:none" id="path3715"/><path d="m 16.883,22.52 0.21,0 0,0.21 -0.21,0 0,-0.21 z" style="fill:#ffffff;fill-opacity:1;fill-rule:nonzero;stroke:none" id="path3717"/><path d="m 16.747,21.947 0.21,0 0,0.21 -0.21,0 0,-0.21 z" style="fill:#ffffff;fill-opacity:1;fill-rule:nonzero;stroke:none" id="path3719"/><path d="m 17.743,23.615 0.21,0 0,0.21 -0.21,0 0,-0.21 z" style="fill:#ffffff;fill-opacity:1;fill-rule:nonzero;stroke:none" id="path3721"/><path d="m 17.568,23.044 0.21,0 0,0.21 -0.21,0 0,-0.21 z" style="fill:#ffffff;fill-opacity:1;fill-rule:nonzero;stroke:none" id="path3723"/><path d="m 17.397,22.523 0.21,0 0,0.21 -0.21,0 0,-0.21 z" style="fill:#ffffff;fill-opacity:1;fill-rule:nonzero;stroke:none" id="path3725"/><path d="m 17.253,21.947 0.21,0 0,0.21 -0.21,0 0,-0.21 z" style="fill:#ffffff;fill-opacity:1;fill-rule:nonzero;stroke:none" id="path3727"/><path d="m 18.281,23.632 0.21,0 0,0.21 -0.21,0 0,-0.21 z" style="fill:#ffffff;fill-opacity:1;fill-rule:nonzero;stroke:none" id="path3729"/><path d="m 18.106,23.042 0.21,0 0,0.21 -0.21,0 0,-0.21 z" style="fill:#ffffff;fill-opacity:1;fill-rule:nonzero;stroke:none" id="path3731"/><path d="m 17.904,22.526 0.21,0 0,0.21 -0.21,0 0,-0.21 z" style="fill:#ffffff;fill-opacity:1;fill-rule:nonzero;stroke:none" id="path3733"/><path d="m 17.777,21.947 0.21,0 0,0.21 -0.21,0 0,-0.21 z" style="fill:#ffffff;fill-opacity:1;fill-rule:nonzero;stroke:none" id="path3735"/><path d="m 17.62,21.354 0.21,0 0,0.21 -0.21,0 0,-0.21 z" style="fill:#ffffff;fill-opacity:1;fill-rule:nonzero;stroke:none" id="path3737"/><path d="m 18.418,22.53 0.21,0 0,0.21 -0.21,0 0,-0.21 z" style="fill:#ffffff;fill-opacity:1;fill-rule:nonzero;stroke:none" id="path3739"/><path d="m 18.292,21.949 0.21,0 0,0.21 -0.21,0 0,-0.21 z" style="fill:#ffffff;fill-opacity:1;fill-rule:nonzero;stroke:none" id="path3741"/><path d="m 18.149,21.356 0.21,0 0,0.21 -0.21,0 0,-0.21 z" style="fill:#ffffff;fill-opacity:1;fill-rule:nonzero;stroke:none" id="path3743"/><g id="g3745" transform="translate(20.0767,18.3945)"><path d="M 0,0 -2.379,-2.363 -2.635,-1.831 -0.54,0.227 0,0 z" style="fill:#904a2e;fill-opacity:1;fill-rule:nonzero;stroke:none" id="path3747"/></g><g id="g3749" transform="translate(24.9805,18.3945)"><path d="M 0,0 2.379,-2.363 2.635,-1.831 0.54,0.227 0,0 z" style="fill:#904a2e;fill-opacity:1;fill-rule:nonzero;stroke:none" id="path3751"/></g><g id="g3753" transform="translate(26.6582,24.6421)"><path d="M 0,0 1.124,1.164 1.932,1.239 1.104,2.082 1.017,1.563 -0.211,0.39 0,0 z" style="fill:#904a2e;fill-opacity:1;fill-rule:nonzero;stroke:none" id="path3755"/></g><g id="g3757" transform="translate(18.3989,24.6421)"><path d="M 0,0 -1.125,1.164 -1.932,1.239 -1.105,2.082 -1.017,1.563 0.211,0.39 0,0 z" style="fill:#904a2e;fill-opacity:1;fill-rule:nonzero;stroke:none" id="path3759"/></g><g id="g3761" transform="translate(28.5898,25.8809)"><path d="M 0,0 0.833,1.551 -0.827,0.843 0,0 z" style="fill:#ffc323;fill-opacity:1;fill-rule:nonzero;stroke:none" id="path3763"/></g><g id="g3765" transform="translate(16.4673,25.8809)"><path d="M 0,0 -0.833,1.551 0.827,0.843 0,0 z" style="fill:#ffc323;fill-opacity:1;fill-rule:nonzero;stroke:none" id="path3767"/></g><g id="g3769" transform="translate(20.3262,25.9634)"><path d="M 0,0 C 0,0 -0.3,-0.257 -0.645,-0.381 -1.062,-0.532 -1.516,-0.56 -1.516,-0.56 l -0.493,-0.913 c 0,0 0.682,-0.408 0.682,-1.59 0,-1.083 -0.428,-1.371 -0.428,-2.499 0,-1.376 1.019,-1.646 2.348,-2.043 0.892,-0.267 1.609,-1.12 1.609,-1.12 0,0 0.718,0.853 1.61,1.12 1.329,0.397 2.348,0.667 2.348,2.043 0,1.128 -0.429,1.416 -0.429,2.499 0,1.182 0.683,1.59 0.683,1.59 L 5.92,-0.56 c 0,0 -0.453,0.028 -0.87,0.179 C 4.705,-0.257 4.404,0 4.404,0 L 0,0 z" style="fill:#ffc323;fill-opacity:1;fill-rule:nonzero;stroke:none" id="path3771"/></g><g id="g3773" transform="translate(18.6963,24.5615)"><path d="m 0,0 c 0.245,-0.249 0.603,-0.765 0.603,-1.662 0,-0.58 -0.114,-0.95 -0.224,-1.309 -0.105,-0.342 -0.204,-0.665 -0.204,-1.189 0,-1.072 0.662,-1.317 2.039,-1.728 l 0.095,-0.028 c 0.662,-0.197 1.224,-0.676 1.523,-0.97 0.299,0.294 0.861,0.773 1.523,0.97 l 0.095,0.028 c 1.377,0.411 2.04,0.656 2.04,1.728 0,0.524 -0.099,0.847 -0.204,1.189 -0.11,0.359 -0.224,0.729 -0.224,1.309 0,0.897 0.357,1.413 0.602,1.662 L 7.361,0.559 C 7.178,0.582 6.871,0.632 6.576,0.739 6.303,0.837 6.057,1.006 5.93,1.102 l -4.196,0 C 1.607,1.006 1.362,0.837 1.087,0.739 0.793,0.632 0.486,0.582 0.303,0.559 L 0,0 z" style="fill:#ffffff;fill-opacity:1;fill-rule:nonzero;stroke:none" id="path3775"/></g><g id="g3777" transform="translate(21.27,14.5381)"><path d="m 0,0 c -0.083,0.015 -0.125,0.021 -0.208,0.038 0.067,0.341 0.101,0.511 0.167,0.852 -0.115,-0.014 -0.174,-0.02 -0.292,-0.028 0.014,0.059 0.021,0.088 0.035,0.147 0.185,0.019 0.276,0.032 0.455,0.064 C 0.166,1.072 0.171,1.071 0.18,1.069 0.108,0.642 0.072,0.428 0,0" style="fill:#ffffff;fill-opacity:1;fill-rule:nonzero;stroke:none" id="path3779"/></g><g id="g3781" transform="translate(22.2412,15.2285)"><path d="M 0,0 C 0.002,0.047 -0.011,0.086 -0.038,0.118 -0.064,0.149 -0.101,0.167 -0.148,0.17 -0.195,0.173 -0.234,0.161 -0.264,0.135 -0.294,0.108 -0.311,0.07 -0.315,0.021 c -0.005,-0.049 0.005,-0.09 0.032,-0.122 0.027,-0.032 0.065,-0.048 0.115,-0.052 0.049,-0.003 0.089,0.008 0.12,0.037 C -0.018,-0.089 -0.002,-0.05 0,0 m 0.005,-0.486 c 0.002,0.053 -0.014,0.096 -0.047,0.132 -0.035,0.034 -0.08,0.053 -0.138,0.057 -0.057,0.004 -0.105,-0.009 -0.142,-0.039 -0.038,-0.029 -0.059,-0.07 -0.064,-0.124 -0.005,-0.053 0.009,-0.097 0.041,-0.132 0.033,-0.034 0.081,-0.054 0.144,-0.058 0.062,-0.004 0.113,0.008 0.149,0.038 0.036,0.028 0.055,0.071 0.057,0.126 M 0.189,0.001 C 0.188,-0.052 0.174,-0.1 0.144,-0.14 0.113,-0.18 0.072,-0.212 0.02,-0.234 0.081,-0.262 0.127,-0.299 0.16,-0.345 0.193,-0.392 0.209,-0.442 0.209,-0.5 0.208,-0.595 0.17,-0.671 0.094,-0.724 0.018,-0.777 -0.085,-0.802 -0.21,-0.794 c -0.127,0.009 -0.226,0.046 -0.295,0.109 -0.069,0.064 -0.097,0.143 -0.085,0.238 0.007,0.056 0.03,0.106 0.069,0.148 0.039,0.042 0.09,0.072 0.152,0.091 -0.048,0.028 -0.084,0.065 -0.109,0.109 -0.023,0.044 -0.033,0.093 -0.026,0.146 0.01,0.091 0.05,0.16 0.116,0.208 0.065,0.047 0.148,0.065 0.249,0.059 C -0.037,0.308 0.043,0.277 0.102,0.222 0.161,0.167 0.19,0.093 0.189,0.001" style="fill:#ffffff;fill-opacity:1;fill-rule:nonzero;stroke:none" id="path3783"/></g><g id="g3785" transform="translate(22.9155,14.9404)"><path d="M 0,0 C 0.04,0.002 0.077,0.016 0.11,0.038 0.142,0.061 0.167,0.093 0.183,0.131 0.18,0.158 0.179,0.173 0.177,0.2 0.17,0.28 0.148,0.343 0.111,0.389 0.073,0.434 0.028,0.455 -0.025,0.452 -0.079,0.449 -0.12,0.427 -0.151,0.383 -0.182,0.339 -0.196,0.284 -0.195,0.219 -0.193,0.15 -0.175,0.098 -0.14,0.057 -0.104,0.017 -0.057,-0.003 0,0 m 0.195,-0.031 c -0.062,-0.07 -0.14,-0.108 -0.23,-0.112 -0.106,-0.004 -0.193,0.027 -0.256,0.092 -0.063,0.067 -0.093,0.154 -0.093,0.263 0,0.07 0.015,0.135 0.044,0.193 0.029,0.058 0.07,0.104 0.123,0.137 0.053,0.034 0.114,0.052 0.185,0.056 C 0.077,0.604 0.167,0.57 0.24,0.495 0.312,0.422 0.358,0.317 0.373,0.182 0.375,0.162 0.376,0.151 0.378,0.132 0.4,-0.062 0.368,-0.216 0.275,-0.326 0.183,-0.437 0.031,-0.502 -0.175,-0.509 -0.185,-0.51 -0.19,-0.51 -0.2,-0.51 c -0.001,0.06 -0.002,0.09 -0.004,0.15 0.013,0 0.018,0 0.03,0.001 0.123,0.005 0.216,0.036 0.277,0.089 0.063,0.054 0.092,0.134 0.092,0.239" style="fill:#ffffff;fill-opacity:1;fill-rule:nonzero;stroke:none" id="path3787"/></g><g id="g3789" transform="translate(23.7969,15.1182)"><path d="m 0,0 c -0.043,-0.008 -0.079,-0.026 -0.111,-0.054 -0.033,-0.028 -0.054,-0.061 -0.066,-0.1 0.004,-0.022 0.005,-0.033 0.009,-0.054 0.012,-0.08 0.041,-0.14 0.087,-0.18 0.046,-0.041 0.099,-0.056 0.16,-0.045 0.061,0.011 0.106,0.041 0.133,0.087 0.027,0.046 0.033,0.102 0.02,0.165 C 0.219,-0.116 0.19,-0.068 0.147,-0.034 0.105,-0.001 0.057,0.011 0,0 M 0.1,0.546 C 0.112,0.487 0.119,0.458 0.131,0.399 0.122,0.397 0.117,0.396 0.108,0.395 0.006,0.372 -0.07,0.329 -0.123,0.266 -0.177,0.201 -0.203,0.121 -0.2,0.021 c 0.053,0.07 0.126,0.113 0.22,0.13 0.1,0.02 0.185,0.003 0.259,-0.048 0.074,-0.053 0.124,-0.13 0.149,-0.234 0.025,-0.106 0.01,-0.201 -0.048,-0.284 -0.06,-0.083 -0.151,-0.138 -0.273,-0.16 -0.126,-0.024 -0.234,0.001 -0.323,0.068 -0.089,0.069 -0.139,0.168 -0.155,0.296 -0.003,0.024 -0.005,0.036 -0.008,0.061 -0.023,0.188 0.008,0.34 0.087,0.462 0.079,0.119 0.201,0.193 0.373,0.23 0.008,0.001 0.012,0.002 0.019,0.004" style="fill:#ffffff;fill-opacity:1;fill-rule:nonzero;stroke:none" id="path3791"/></g><g id="g3793" transform="translate(22.0327,18.2988)"><path d="m 0,0 -0.081,0 0,0.389 -0.118,-0.041 0,0.068 0.189,0.069 0.01,0 L 0,0 z" style="fill:#012d6a;fill-opacity:1;fill-rule:nonzero;stroke:none" id="path3795"/></g><g id="g3797" transform="translate(22.3906,18.6523)"><path d="m 0,0 c 0,0.021 -0.006,0.038 -0.018,0.052 -0.012,0.013 -0.028,0.02 -0.049,0.02 -0.021,0 -0.037,-0.007 -0.049,-0.019 C -0.128,0.04 -0.134,0.021 -0.134,0 c 0,-0.022 0.006,-0.04 0.018,-0.053 0.012,-0.013 0.029,-0.019 0.049,-0.019 0.021,0 0.037,0.006 0.049,0.019 C -0.006,-0.04 0,-0.022 0,0 m 0.011,-0.217 c 0,0.024 -0.008,0.043 -0.022,0.058 -0.014,0.014 -0.033,0.021 -0.056,0.021 -0.024,0 -0.043,-0.007 -0.057,-0.021 -0.014,-0.015 -0.021,-0.034 -0.021,-0.058 0,-0.023 0.007,-0.043 0.021,-0.057 0.014,-0.014 0.033,-0.021 0.057,-0.021 0.025,0 0.044,0.007 0.057,0.02 0.013,0.014 0.021,0.033 0.021,0.058 m 0.07,0.22 c 0,-0.024 -0.006,-0.045 -0.019,-0.064 -0.012,-0.018 -0.028,-0.033 -0.049,-0.043 0.025,-0.011 0.044,-0.028 0.058,-0.048 0.013,-0.021 0.02,-0.043 0.02,-0.069 0,-0.043 -0.014,-0.077 -0.043,-0.101 -0.029,-0.026 -0.067,-0.037 -0.115,-0.037 -0.048,0 -0.086,0.012 -0.116,0.037 -0.028,0.025 -0.043,0.058 -0.043,0.101 0,0.026 0.007,0.049 0.021,0.07 0.014,0.02 0.033,0.036 0.058,0.047 -0.021,0.01 -0.038,0.025 -0.049,0.043 -0.012,0.019 -0.019,0.04 -0.019,0.064 0,0.041 0.013,0.073 0.04,0.098 0.027,0.024 0.063,0.036 0.108,0.036 0.045,0 0.081,-0.012 0.108,-0.036 0.026,-0.025 0.04,-0.057 0.04,-0.098" style="fill:#012d6a;fill-opacity:1;fill-rule:nonzero;stroke:none" id="path3799"/></g><g id="g3801" transform="translate(22.585,18.4717)"><path d="m 0,0 0.127,0 0,0.202 L 0.121,0.19 0,0 z m 0.207,0 0.061,0 0,-0.064 -0.061,0 0,-0.109 -0.08,0 0,0.109 -0.209,0 -0.002,0.048 0.208,0.328 0.083,0 0,-0.312 z" style="fill:#012d6a;fill-opacity:1;fill-rule:nonzero;stroke:none" id="path3803"/></g><g id="g3805" transform="translate(23.1934,18.7373)"><path d="m 0,0 -0.192,-0.438 -0.086,0 0.193,0.418 -0.25,0 0,0.066 L 0,0.046 0,0 z" style="fill:#012d6a;fill-opacity:1;fill-rule:nonzero;stroke:none" id="path3807"/></g><g id="g3809" transform="translate(21.4482,19.8184)"><path d="m 0,0 0,-0.59 c 0,-0.094 -0.033,-0.167 -0.099,-0.222 -0.066,-0.055 -0.153,-0.083 -0.263,-0.083 -0.111,0 -0.199,0.028 -0.264,0.083 -0.065,0.053 -0.099,0.128 -0.099,0.223 l 0,0.589 0.168,0 0,-0.589 c 0,-0.059 0.017,-0.103 0.05,-0.135 0.032,-0.031 0.081,-0.046 0.145,-0.046 0.13,0 0.195,0.062 0.195,0.186 L -0.167,0 0,0 z" style="fill:#012d6a;fill-opacity:1;fill-rule:nonzero;stroke:none" id="path3811"/></g><g id="g3813" transform="translate(22.3975,19.6943)"><path d="m 0,0 -0.303,0 0,-0.758 -0.167,0 0,0.758 -0.3,0 0,0.124 0.77,0 L 0,0 z" style="fill:#012d6a;fill-opacity:1;fill-rule:nonzero;stroke:none" id="path3815"/></g><g id="g3817" transform="translate(22.7271,19.2656)"><path d="M 0,0 0.282,0 0.141,0.365 0,0 z m 0.329,-0.123 -0.376,0 -0.079,-0.206 -0.175,0 0.366,0.882 0.152,0 0.366,-0.882 -0.175,0 -0.079,0.206 z" style="fill:#012d6a;fill-opacity:1;fill-rule:nonzero;stroke:none" id="path3819"/></g><g id="g3821" transform="translate(24.2598,18.9365)"><path d="m 0,0 -0.168,0 0,0.392 -0.434,0 0,-0.392 -0.169,0 0,0.882 0.169,0 0,-0.367 0.434,0 0,0.367 L 0,0.882 0,0 z" style="fill:#012d6a;fill-opacity:1;fill-rule:nonzero;stroke:none" id="path3823"/></g><g id="g3825" transform="translate(20.4966,23.373)"><path d="M 0,0 C -0.05,-0.015 -0.076,-0.023 -0.125,-0.039 -0.217,0.242 -0.263,0.382 -0.354,0.664 -0.299,0.682 -0.271,0.69 -0.216,0.707 -0.129,0.424 -0.086,0.283 0,0" style="fill:#012d6a;fill-opacity:1;fill-rule:nonzero;stroke:none" id="path3827"/></g><g id="g3829" transform="translate(21.1821,23.5459)"><path d="M 0,0 C -0.052,-0.01 -0.077,-0.016 -0.128,-0.027 -0.305,0.149 -0.397,0.235 -0.592,0.4 -0.537,0.197 -0.51,0.096 -0.456,-0.106 -0.506,-0.12 -0.532,-0.127 -0.582,-0.142 l -0.205,0.71 c 0.056,0.016 0.084,0.024 0.14,0.039 0.198,-0.165 0.293,-0.25 0.474,-0.426 -0.045,0.206 -0.067,0.309 -0.113,0.514 0.057,0.013 0.084,0.018 0.14,0.03 C -0.087,0.435 -0.058,0.29 0,0" style="fill:#012d6a;fill-opacity:1;fill-rule:nonzero;stroke:none" id="path3831"/></g><g id="g3833" transform="translate(21.3052,24.2153)"><path d="m 0,0 0.088,-0.525 c 0.034,0.006 0.051,0.009 0.085,0.014 0.069,0.011 0.119,0.039 0.151,0.085 0.031,0.047 0.043,0.109 0.034,0.187 -0.002,0.016 -0.003,0.025 -0.005,0.041 -0.01,0.079 -0.037,0.138 -0.08,0.175 C 0.229,0.014 0.171,0.027 0.098,0.016 0.059,0.01 0.04,0.006 0,0 m -0.023,-0.65 c -0.055,0.291 -0.081,0.436 -0.136,0.727 0.097,0.018 0.145,0.026 0.242,0.041 C 0.155,0.129 0.222,0.124 0.282,0.102 0.341,0.08 0.389,0.044 0.425,-0.005 0.461,-0.055 0.482,-0.114 0.49,-0.183 0.492,-0.198 0.492,-0.205 0.494,-0.22 0.501,-0.29 0.493,-0.352 0.47,-0.408 0.447,-0.464 0.412,-0.51 0.363,-0.545 0.314,-0.581 0.257,-0.603 0.19,-0.614 0.104,-0.627 0.062,-0.634 -0.023,-0.65" style="fill:#012d6a;fill-opacity:1;fill-rule:nonzero;stroke:none" id="path3835"/></g><g id="g3837" transform="translate(22.4468,24.4248)"><path d="m 0,0 c 0.003,-0.198 0.005,-0.296 0.009,-0.494 0.002,-0.079 -0.023,-0.141 -0.073,-0.189 -0.05,-0.047 -0.117,-0.072 -0.201,-0.077 -0.086,-0.005 -0.155,0.012 -0.21,0.053 -0.054,0.04 -0.087,0.1 -0.094,0.18 -0.019,0.196 -0.029,0.295 -0.048,0.491 0.057,0.005 0.085,0.008 0.143,0.013 0.016,-0.197 0.023,-0.296 0.038,-0.493 0.004,-0.049 0.02,-0.085 0.048,-0.109 0.028,-0.024 0.067,-0.034 0.117,-0.031 0.101,0.006 0.15,0.058 0.146,0.162 -0.007,0.196 -0.011,0.294 -0.019,0.49 C -0.086,-0.002 -0.058,-0.001 0,0" style="fill:#012d6a;fill-opacity:1;fill-rule:nonzero;stroke:none" id="path3839"/></g><g id="g3841" transform="translate(22.9478,23.8696)"><path d="m 0,0 c 0.001,0.032 -0.009,0.058 -0.033,0.077 -0.023,0.018 -0.066,0.037 -0.128,0.057 -0.063,0.019 -0.113,0.04 -0.151,0.062 -0.071,0.043 -0.108,0.097 -0.109,0.166 0,0.059 0.026,0.109 0.08,0.147 0.054,0.039 0.125,0.057 0.212,0.054 C -0.072,0.562 -0.021,0.551 0.023,0.53 0.067,0.509 0.101,0.48 0.124,0.443 0.147,0.407 0.157,0.368 0.154,0.325 0.099,0.328 0.071,0.33 0.016,0.333 0.018,0.371 0.005,0.401 -0.02,0.424 -0.046,0.447 -0.084,0.459 -0.133,0.46 -0.18,0.462 -0.216,0.453 -0.242,0.436 -0.268,0.418 -0.28,0.394 -0.281,0.362 c 0,-0.028 0.013,-0.05 0.04,-0.069 C -0.214,0.275 -0.169,0.257 -0.108,0.238 -0.047,0.219 0.001,0.197 0.038,0.173 0.073,0.15 0.099,0.123 0.114,0.094 0.129,0.065 0.136,0.032 0.133,-0.007 0.129,-0.068 0.101,-0.116 0.051,-0.149 0.002,-0.182 -0.064,-0.198 -0.146,-0.195 c -0.054,0.001 -0.104,0.012 -0.148,0.032 -0.046,0.019 -0.082,0.047 -0.108,0.082 -0.026,0.035 -0.039,0.075 -0.04,0.121 0.054,0.001 0.081,0.001 0.134,0.001 0,-0.042 0.015,-0.075 0.043,-0.098 0.029,-0.023 0.069,-0.035 0.122,-0.037 0.046,-0.001 0.081,0.007 0.104,0.024 C -0.015,-0.053 -0.001,-0.03 0,0" style="fill:#012d6a;fill-opacity:1;fill-rule:nonzero;stroke:none" id="path3843"/></g><g id="g3845" transform="translate(23.7627,24.2368)"><path d="m 0,0 c -0.101,0.015 -0.15,0.021 -0.252,0.033 -0.029,-0.252 -0.044,-0.379 -0.073,-0.631 -0.052,0.006 -0.077,0.009 -0.13,0.014 0.025,0.253 0.038,0.379 0.062,0.632 -0.099,0.01 -0.15,0.014 -0.251,0.021 0.003,0.041 0.004,0.062 0.007,0.103 C -0.375,0.155 -0.244,0.141 0.016,0.102 0.01,0.061 0.006,0.041 0,0" style="fill:#012d6a;fill-opacity:1;fill-rule:nonzero;stroke:none" id="path3847"/></g><g id="g3849" transform="translate(23.9102,23.9619)"><path d="M 0,0 C 0.057,-0.01 0.084,-0.015 0.14,-0.026 0.185,-0.035 0.223,-0.031 0.253,-0.015 0.283,0 0.302,0.027 0.31,0.064 0.318,0.103 0.312,0.135 0.293,0.162 0.272,0.188 0.238,0.207 0.19,0.217 0.132,0.228 0.102,0.233 0.043,0.244 0.026,0.146 0.018,0.098 0,0 m 0.131,-0.13 c -0.059,0.012 -0.089,0.017 -0.149,0.027 -0.019,-0.111 -0.029,-0.168 -0.048,-0.279 -0.052,0.008 -0.078,0.013 -0.13,0.021 0.046,0.292 0.069,0.438 0.114,0.73 C 0.033,0.351 0.091,0.341 0.206,0.319 0.3,0.301 0.368,0.267 0.41,0.218 0.452,0.169 0.465,0.109 0.448,0.039 0.437,-0.009 0.415,-0.047 0.383,-0.074 0.351,-0.101 0.311,-0.117 0.262,-0.125 0.306,-0.261 0.325,-0.329 0.363,-0.465 0.362,-0.467 0.362,-0.468 0.361,-0.471 0.307,-0.458 0.279,-0.452 0.225,-0.439 0.189,-0.315 0.171,-0.253 0.131,-0.13" style="fill:#012d6a;fill-opacity:1;fill-rule:nonzero;stroke:none" id="path3851"/></g><g id="g3853" transform="translate(24.6289,23.8008)"><path d="M 0,0 C 0.108,0.116 0.164,0.172 0.278,0.284 0.34,0.266 0.37,0.256 0.432,0.236 0.267,0.093 0.187,0.02 0.034,-0.131 0.005,-0.236 -0.011,-0.288 -0.04,-0.393 c -0.051,0.015 -0.076,0.022 -0.128,0.036 0.028,0.105 0.042,0.157 0.07,0.262 -0.053,0.208 -0.083,0.312 -0.15,0.519 C -0.186,0.41 -0.154,0.402 -0.092,0.386 -0.052,0.232 -0.033,0.155 0,0" style="fill:#012d6a;fill-opacity:1;fill-rule:nonzero;stroke:none" id="path3855"/></g><g id="g3857" transform="translate(21.0366,19.8721)"><path d="M 0,0 -0.239,0.295 -0.088,0.242 -0.276,0.462 -0.138,0.431 -0.204,0.659 0.025,0.612 0.436,0.788 0.37,0.638 0.518,0.722 0.427,0.478 0.58,0.574 0.527,0.609 0.593,0.807 0.715,0.807 0.634,0.716 0.797,0.731 0.63,0.565 0.728,0.6 0.925,0.574 0.819,0.807 0.856,0.807 0.941,0.659 0.953,0.758 1.026,0.68 1.002,0.807 1.096,0.807 1.169,0.558 1.101,0.578 1.092,0.439 0.983,0.451 1.028,0.355 1.169,0.431 1.235,0.284 1.289,0.442 1.327,0.329 1.536,0.553 1.522,0.381 1.583,0.426 1.645,0.294 1.696,0.329 1.576,0.543 1.725,0.52 1.706,0.656 1.8,0.588 1.776,0.736 1.866,0.635 1.885,0.741 1.967,0.583 2.002,0.646 2.073,0.471 2.146,0.628 2.198,0.538 1.971,0.329 1.863,0.403 1.802,0.304 1.699,0.264 1.861,0.228 1.924,0.296 1.983,0.226 1.856,0.072 1.788,0.199 1.642,0.104 1.449,0.207 1.343,0.122 1.054,0.296 1.044,0.179 0.894,0.329 0.901,0.416 0.769,0.503 0.753,0.393 0.666,0.494 0.668,0.279 0.746,0.339 0.757,0.157 0.619,0.212 0.598,0.094 0.482,0.219 0.475,0.096 0.402,0.195 0.379,0.068 0.249,0.195 0.254,0.047 0.007,0.187 0.073,0 0,0 z" style="fill:#00853e;fill-opacity:1;fill-rule:nonzero;stroke:none" id="path3859"/></g><g id="g3861" transform="translate(23.0977,19.9932)"><path d="M 0,0 0.253,-0.137 0.29,0.062 0.202,0.033 0.034,0.208 0.137,0.013 0,0 z" style="fill:#00853e;fill-opacity:1;fill-rule:nonzero;stroke:none" id="path3863"/></g><g id="g3865" transform="translate(23.4541,20.1641)"><path d="m 0,0 0.202,-0.274 0.028,0.103 0.145,-0.137 0.115,0.183 0.048,-0.083 -0.012,0.185 -0.143,-0.13 -0.1,0.119 0.163,0.139 -0.239,0.231 -0.101,-0.067 -0.058,0.246 -0.086,0 -0.013,-0.187 -0.067,0.117 0.01,-0.2 L -0.187,0.273 -0.198,0.095 -0.126,0.171 -0.103,0.072 -0.02,0.198 -0.004,0.08 0.104,0.198 0.092,0.062 0.156,0.145 0.268,-0.122 0.141,-0.028 0.132,-0.104 0,0 z" style="fill:#00853e;fill-opacity:1;fill-rule:nonzero;stroke:none" id="path3867"/></g><g id="g3869" transform="translate(22.2241,20.6787)"><path d="m 0,0 0,-0.137 0.066,0.092 0.092,-0.219 0.05,0.132 0.068,-0.097 0.072,0 L 0.436,-0.01 0.348,-0.065 0.365,0 0.199,0 0.188,-0.041 0.166,0 0,0 z" style="fill:#00853e;fill-opacity:1;fill-rule:nonzero;stroke:none" id="path3871"/></g><g id="g3873" transform="translate(24.001,20.2012)"><path d="m 0,0 c 0,0 0.043,-0.035 0.094,-0.035 0.065,0 0.184,0.183 0.184,0.183 0,0 0.056,-0.048 0.139,-0.148 0.084,-0.1 0.15,-0.197 0.15,-0.197 0,0 0.028,0.072 0.045,0.173 0.017,0.1 0.014,0.183 0.014,0.183 0,0 0.042,-0.039 0.13,-0.108 0.088,-0.069 0.176,-0.086 0.176,-0.086 0,0 -0.018,0.045 -0.027,0.091 C 0.896,0.102 0.9,0.138 0.9,0.138 c 0,0 0.059,-0.015 0.176,-0.036 0.118,-0.023 0.218,0.023 0.218,0.023 0,0 -0.076,0.031 -0.151,0.076 -0.077,0.046 -0.124,0.09 -0.124,0.09 0,0 0.17,0.011 0.326,0.067 0.155,0.057 0.186,0.17 0.186,0.17 0,0 -0.219,-0.059 -0.419,-0.091 C 0.912,0.405 0.793,0.41 0.793,0.41 c 0,0 0.122,0.107 0.178,0.205 0.052,0.092 0.049,0.198 0.049,0.198 0,0 -0.133,-0.125 -0.228,-0.199 C 0.697,0.54 0.521,0.407 0.521,0.407 c 0,0 0.022,0.099 0.174,0.256 0.218,0.226 0.425,0.636 0.576,0.908 0.15,0.274 0.111,0.486 0.111,0.486 0,0 -0.036,-0.217 -0.238,-0.537 C 0.941,1.2 0.647,1.303 0.436,1.169 -0.014,0.887 0,0 0,0" style="fill:#00853e;fill-opacity:1;fill-rule:nonzero;stroke:none" id="path3875"/></g><g id="g3877" transform="translate(25.0273,22.4014)"><path d="m 0,0 c 0,0 -0.033,0.346 0,0.456 0.032,0.111 0.148,0.32 0.148,0.32 0,0 -0.044,-0.034 -0.09,-0.091 -0.045,-0.056 -0.06,-0.087 -0.06,-0.087 l -0.013,0.045 c 0,0 -0.056,-0.055 -0.142,-0.165 -0.086,-0.109 -0.257,-0.499 -0.257,-0.499 0,0 -0.144,0.198 -0.171,0.334 -0.028,0.137 -0.024,0.286 -0.024,0.286 0,0 -0.058,-0.042 -0.079,-0.137 -0.023,-0.093 0.015,-0.203 0.015,-0.203 0,0 -0.075,0.095 -0.149,0.15 -0.074,0.055 -0.165,0.065 -0.165,0.065 0,0 0.005,-0.12 0.027,-0.178 0.022,-0.058 0.102,-0.15 0.102,-0.15 0,0 -0.088,0.026 -0.168,0.017 -0.08,-0.01 -0.127,-0.058 -0.127,-0.058 0,0 0.173,0.003 0.387,-0.149 0.215,-0.152 0.263,-0.256 0.263,-0.256 0,0 -0.13,-0.037 -0.288,0.033 -0.158,0.071 -0.199,0.14 -0.199,0.14 0,0 -0.03,-0.144 0.077,-0.223 0.106,-0.079 0.155,-0.074 0.225,-0.168 0.068,-0.094 0.215,-0.102 0.215,-0.102 L 0,0 z" style="fill:#00853e;fill-opacity:1;fill-rule:nonzero;stroke:none" id="path3879"/></g><g id="g3881" transform="translate(20.7612,20.8008)"><path d="M 0,0 C 0,0 0.021,-0.239 -0.026,-0.362 -0.073,-0.484 -0.224,-0.6 -0.224,-0.6 c 0,0 -0.034,0.046 -0.05,0.128 -0.016,0.081 0,0.165 0,0.165 0,0 -0.086,-0.046 -0.207,-0.047 -0.121,-0.001 -0.202,0.045 -0.202,0.045 0,0 0.178,0.074 0.344,0.209 0.166,0.135 0.198,0.239 0.198,0.239 l -0.211,0.092 c 0,0 -0.013,-0.094 -0.091,-0.199 -0.078,-0.105 -0.217,-0.144 -0.217,-0.144 0,0 0.061,0.103 0.113,0.184 0.052,0.082 0.101,0.142 0.101,0.142 l -0.237,0.017 c 0,0 -0.009,-0.116 -0.119,-0.21 -0.11,-0.094 -0.242,-0.081 -0.242,-0.081 0,0 0.038,0.092 0.114,0.205 0.077,0.113 0.162,0.178 0.162,0.178 l -0.43,0 c 0,0 0.044,0.064 0.151,0.109 0.107,0.046 0.535,0.173 0.535,0.173 l 0.205,0.305 0.289,0 0.066,-0.135 -0.257,-0.137 0.031,-0.082 c 0,0 0.083,0.02 0.239,-0.016 C 0.216,0.504 0.202,0.258 0.202,0.258 L 0,0 z" style="fill:#00853e;fill-opacity:1;fill-rule:nonzero;stroke:none" id="path3883"/></g><g id="g3885" transform="translate(20.6978,22.0977)"><path d="m 0,0 c 0,0 0.144,-0.017 0.308,0.04 0.165,0.057 0.32,0.176 0.32,0.176 L 0.499,0.579 c 0,0 0.012,0.121 0.087,0.249 0.076,0.127 0.029,0.221 0.029,0.221 0,0 0.005,-0.128 -0.075,-0.242 C 0.459,0.692 0.353,0.219 0.353,0.219 c 0,0 -0.146,-0.052 -0.22,-0.097 C 0.039,0.063 0,0 0,0" style="fill:#00853e;fill-opacity:1;fill-rule:nonzero;stroke:none" id="path3887"/></g><g id="g3889" transform="translate(19.7876,23.6885)"><path d="M 0,0 0.199,-1.076 0.357,-0.981 0.228,-0.511 0.209,-0.626 0,0 z" style="fill:#00853e;fill-opacity:1;fill-rule:nonzero;stroke:none" id="path3891"/></g><g id="g3893" transform="translate(21.2075,21.7002)"><path d="m 0,0 -0.468,-0.673 0,-0.348 0.268,0 0,-0.405 0.136,-0.073 0.29,0 0,0.478 2.278,0 0,-0.478 0.289,0 0.137,0.073 0,0.405 0.269,0 0,0.348 L 2.73,0 0,0 z" style="fill:#68321e;fill-opacity:1;fill-rule:nonzero;stroke:none" id="path3895"/></g><g id="g3897" transform="translate(20.8442,22.1606)"><path d="m 0,0 0.02,0.067 c 0,0.001 0.018,0.065 -0.014,0.136 -0.036,0.077 -0.06,0.128 -0.024,0.201 0.011,0.02 0.032,0.034 0.053,0.044 -0.033,0.024 -0.064,0.065 -0.057,0.129 10e-4,0.021 0.007,0.045 0.012,0.067 0.007,0.027 0.013,0.055 0.013,0.078 0.001,0.065 -0.019,0.108 -0.019,0.108 l -0.03,0.067 0.06,-0.043 C 0.013,0.854 0.073,0.814 0.181,0.827 0.245,0.835 0.294,0.822 0.329,0.786 0.366,0.746 0.373,0.688 0.373,0.648 0.398,0.665 0.435,0.679 0.479,0.669 0.482,0.668 0.485,0.667 0.488,0.667 0.548,0.648 0.569,0.595 0.591,0.538 L 0.6,0.515 C 0.619,0.467 0.67,0.437 0.671,0.436 L 0.719,0.408 0.664,0.4 C 0.663,0.4 0.576,0.387 0.542,0.335 0.494,0.261 0.405,0.267 0.355,0.277 0.361,0.234 0.352,0.176 0.288,0.137 0.257,0.117 0.226,0.115 0.199,0.113 0.182,0.113 0.167,0.111 0.153,0.107 0.093,0.085 0.052,0.048 0.052,0.047 L 0,0 z" style="fill:#000000;fill-opacity:1;fill-rule:nonzero;stroke:none" id="path3899"/></g><g id="g3901" transform="translate(20.8784,22.9619)"><path d="m 0,0 c 0.005,-0.021 0.008,-0.048 0.008,-0.081 0,-0.025 -0.007,-0.056 -0.014,-0.085 -0.005,-0.022 -0.01,-0.043 -0.012,-0.062 -0.008,-0.087 0.073,-0.109 0.076,-0.11 L 0.143,-0.36 0.057,-0.376 c -0.023,-0.005 -0.064,-0.019 -0.074,-0.039 -0.027,-0.054 -0.013,-0.088 0.024,-0.167 0.02,-0.043 0.024,-0.084 0.023,-0.114 0.019,0.013 0.045,0.027 0.075,0.038 0.02,0.007 0.039,0.009 0.057,0.01 0.025,0.001 0.048,0.002 0.071,0.017 0.077,0.048 0.043,0.123 0.042,0.126 l -0.02,0.044 0.044,-0.017 c 0,0 0.009,-0.003 0.022,-0.006 0.038,-0.009 0.116,-0.018 0.154,0.04 0.026,0.039 0.073,0.06 0.107,0.071 -0.019,0.017 -0.04,0.041 -0.053,0.072 L 0.521,-0.277 C 0.5,-0.226 0.484,-0.185 0.442,-0.173 0.44,-0.172 0.438,-0.171 0.436,-0.171 0.375,-0.157 0.331,-0.211 0.331,-0.212 l -0.049,-0.061 0.014,0.077 c 0,0.001 0.018,0.102 -0.03,0.154 C 0.241,-0.017 0.203,-0.007 0.151,-0.013 0.083,-0.021 0.031,-0.011 0,0" style="fill:#ffffff;fill-opacity:1;fill-rule:nonzero;stroke:none" id="path3903"/></g><g id="g3905" transform="translate(21.1377,22.6611)"><path d="m 0,0 c 0,0 0.103,0.013 0.077,-0.081 -0.026,-0.096 -0.104,-0.03 -0.104,-0.03 0,0 -0.052,-0.114 -0.118,-0.035 -0.063,0.075 0.038,0.102 0.038,0.102 0,0 -0.062,0.076 0.022,0.106 C 0.005,0.093 0,0 0,0" style="fill:#fcb040;fill-opacity:1;fill-rule:nonzero;stroke:none" id="path3907"/></g><g id="g3909" transform="translate(24.5391,20.8271)"><path d="M 0,0 0.042,0.099 C 0.043,0.1 0.082,0.193 0.047,0.306 0.007,0.43 -0.02,0.513 0.049,0.615 0.068,0.645 0.104,0.662 0.137,0.673 0.091,0.715 0.052,0.783 0.073,0.88 0.081,0.91 0.094,0.945 0.105,0.979 0.12,1.018 0.135,1.06 0.139,1.094 0.153,1.191 0.132,1.261 0.132,1.261 L 0.099,1.368 0.181,1.292 C 0.18,1.292 0.264,1.22 0.429,1.22 0.528,1.221 0.601,1.191 0.646,1.129 0.694,1.062 0.694,0.974 0.687,0.912 0.729,0.933 0.786,0.947 0.851,0.924 0.855,0.923 0.859,0.921 0.864,0.919 0.952,0.88 0.974,0.795 0.996,0.705 L 1.006,0.669 C 1.025,0.593 1.098,0.537 1.1,0.536 L 1.166,0.484 1.081,0.482 C 1.08,0.482 0.945,0.479 0.885,0.407 0.797,0.304 0.663,0.329 0.59,0.354 0.592,0.288 0.566,0.202 0.462,0.154 0.411,0.13 0.364,0.133 0.322,0.135 0.297,0.137 0.273,0.138 0.252,0.133 0.156,0.111 0.088,0.062 0.087,0.062 L 0,0 z" style="fill:#000000;fill-opacity:1;fill-rule:nonzero;stroke:none" id="path3911"/></g><g id="g3913" transform="translate(24.7412,22.0356)"><path d="m 0,0 c 0.003,-0.033 0.003,-0.075 -0.003,-0.124 -0.005,-0.04 -0.021,-0.084 -0.037,-0.127 -0.012,-0.033 -0.023,-0.064 -0.03,-0.091 -0.029,-0.131 0.09,-0.179 0.094,-0.181 l 0.124,-0.049 -0.132,-0.01 c -0.037,-0.001 -0.101,-0.016 -0.12,-0.044 -0.05,-0.077 -0.036,-0.131 0.005,-0.258 0.022,-0.069 0.02,-0.131 0.014,-0.176 0.031,0.015 0.073,0.032 0.121,0.043 0.03,0.008 0.06,0.006 0.088,0.004 0.038,-0.003 0.073,-0.005 0.111,0.013 0.125,0.058 0.088,0.178 0.087,0.183 L 0.3,-0.748 0.364,-0.781 c 0,0 0.013,-0.006 0.032,-0.012 0.056,-0.021 0.172,-0.05 0.241,0.031 0.047,0.054 0.121,0.078 0.175,0.089 -0.025,0.028 -0.053,0.069 -0.067,0.118 l -0.009,0.037 c -0.02,0.082 -0.038,0.146 -0.098,0.174 L 0.629,-0.341 C 0.539,-0.308 0.462,-0.382 0.461,-0.383 l -0.086,-0.083 0.037,0.113 c 0,0.002 0.046,0.151 -0.017,0.238 C 0.361,-0.071 0.306,-0.048 0.227,-0.048 0.122,-0.048 0.044,-0.022 0,0" style="fill:#ffffff;fill-opacity:1;fill-rule:nonzero;stroke:none" id="path3915"/></g><g id="g3917" transform="translate(25.0771,21.5313)"><path d="m 0,0 c 0,0 0.158,0 0.102,-0.138 -0.057,-0.14 -0.163,-0.025 -0.163,-0.025 0,0 -0.1,-0.162 -0.185,-0.031 -0.081,0.125 0.075,0.147 0.075,0.147 0,0 -0.079,0.127 0.054,0.156 C 0.026,0.141 0,0 0,0" style="fill:#fcb040;fill-opacity:1;fill-rule:nonzero;stroke:none" id="path3919"/></g><g id="g3921" transform="translate(24.5156,21.5059)"><path d="m 0,0 0.006,0.106 c 0,0.002 0.005,0.104 -0.067,0.198 -0.08,0.102 -0.132,0.171 -0.103,0.291 0.008,0.034 0.035,0.063 0.062,0.084 -0.056,0.024 -0.117,0.075 -0.129,0.173 -0.004,0.031 -0.004,0.068 -0.004,0.103 0,0.043 0,0.087 -0.008,0.12 -0.021,0.097 -0.064,0.154 -0.064,0.155 l -0.068,0.089 0.104,-0.043 c -0.001,0 0.101,-0.039 0.257,0.017 C 0.079,1.327 0.157,1.324 0.221,1.282 0.289,1.235 0.319,1.153 0.334,1.092 0.365,1.125 0.415,1.159 0.483,1.159 l 0.015,0 C 0.594,1.152 0.643,1.08 0.695,1.003 L 0.717,0.972 C 0.761,0.908 0.849,0.88 0.85,0.879 L 0.931,0.854 0.852,0.823 C 0.85,0.822 0.725,0.772 0.692,0.685 0.646,0.558 0.511,0.536 0.434,0.534 0.458,0.473 0.463,0.383 0.382,0.303 0.342,0.262 0.297,0.249 0.257,0.237 0.232,0.23 0.21,0.223 0.191,0.211 0.109,0.158 0.061,0.089 0.061,0.088 L 0,0 z" style="fill:#000000;fill-opacity:1;fill-rule:nonzero;stroke:none" id="path3923"/></g><g id="g3925" transform="translate(24.292,22.7104)"><path d="m 0,0 c 0.015,-0.03 0.029,-0.069 0.04,-0.117 0.009,-0.039 0.009,-0.087 0.009,-0.133 0,-0.035 0,-0.067 0.003,-0.095 0.017,-0.134 0.145,-0.138 0.15,-0.138 L 0.336,-0.487 0.214,-0.541 C 0.181,-0.555 0.125,-0.591 0.117,-0.624 0.096,-0.712 0.128,-0.759 0.21,-0.865 0.254,-0.921 0.273,-0.981 0.283,-1.025 0.308,-1 0.341,-0.97 0.382,-0.943 c 0.026,0.017 0.055,0.026 0.082,0.033 0.036,0.01 0.07,0.021 0.099,0.05 0.098,0.098 0.022,0.199 0.019,0.203 L 0.538,-0.6 0.609,-0.609 c 0,0 0.015,-0.001 0.035,-0.001 0.06,0 0.179,0.012 0.215,0.111 0.027,0.068 0.088,0.116 0.135,0.144 C 0.96,-0.337 0.92,-0.308 0.891,-0.267 L 0.87,-0.235 c -0.048,0.07 -0.086,0.125 -0.152,0.129 -0.004,0.001 -0.007,0.001 -0.01,0.001 -0.096,0 -0.143,-0.097 -0.143,-0.098 L 0.513,-0.31 0.508,-0.19 C 0.508,-0.189 0.5,-0.033 0.41,0.027 0.364,0.058 0.304,0.059 0.229,0.032 0.132,-0.004 0.05,-0.006 0,0" style="fill:#ffffff;fill-opacity:1;fill-rule:nonzero;stroke:none" id="path3927"/></g><g id="g3929" transform="translate(24.7813,22.3511)"><path d="m 0,0 c 0,0 0.147,0.055 0.143,-0.094 -0.006,-0.152 -0.145,-0.08 -0.145,-0.08 0,0 -0.039,-0.187 -0.163,-0.093 -0.119,0.091 0.02,0.165 0.02,0.165 0,0 -0.118,0.092 -0.002,0.164 C -0.024,0.141 0,0 0,0" style="fill:#fcb040;fill-opacity:1;fill-rule:nonzero;stroke:none" id="path3931"/></g><g id="g3933" transform="translate(20.7822,20.9697)"><path d="M 0,0 -0.089,0.058 C -0.09,0.059 -0.176,0.113 -0.293,0.099 -0.422,0.079 -0.508,0.067 -0.597,0.153 -0.623,0.177 -0.634,0.215 -0.639,0.249 -0.688,0.212 -0.763,0.185 -0.854,0.223 -0.883,0.235 -0.915,0.253 -0.945,0.271 -0.982,0.292 -1.021,0.313 -1.053,0.323 -1.147,0.354 -1.219,0.345 -1.219,0.346 l -0.112,-0.015 0.089,0.067 c 0,0 0.085,0.07 0.114,0.233 0.016,0.098 0.058,0.164 0.126,0.197 0.074,0.037 0.162,0.023 0.221,0.004 -0.013,0.045 -0.018,0.105 0.016,0.164 0.003,0.004 0.005,0.008 0.008,0.013 0.053,0.079 0.14,0.086 0.233,0.093 l 0.038,0.003 c 0.078,0.006 0.146,0.068 0.147,0.069 L -0.277,1.231 -0.29,1.147 c 0,-0.001 -0.019,-0.134 0.041,-0.207 0.086,-0.103 0.039,-0.23 0.002,-0.298 0.065,-0.01 0.145,-0.05 0.175,-0.161 0.015,-0.054 0.004,-0.1 -0.005,-0.14 C -0.083,0.316 -0.088,0.293 -0.088,0.271 -0.083,0.173 -0.046,0.097 -0.045,0.096 L 0,0 z" style="fill:#000000;fill-opacity:1;fill-rule:nonzero;stroke:none" id="path3935"/></g><g id="g3937" transform="translate(19.6265,21.375)"><path d="M 0,0 C 0.033,-0.003 0.074,-0.01 0.122,-0.023 0.16,-0.036 0.201,-0.06 0.241,-0.082 0.271,-0.1 0.299,-0.116 0.325,-0.127 0.45,-0.178 0.517,-0.069 0.52,-0.065 L 0.589,0.049 0.575,-0.083 c -0.003,-0.037 0,-0.103 0.025,-0.126 0.066,-0.063 0.122,-0.058 0.254,-0.039 0.072,0.01 0.133,-0.003 0.176,-0.017 -0.009,0.034 -0.019,0.078 -0.022,0.127 -0.002,0.031 0.005,0.06 0.012,0.087 0.009,0.037 0.017,0.072 0.006,0.112 C 0.99,0.194 0.865,0.179 0.86,0.178 L 0.788,0.168 0.832,0.226 c 0,0 0.008,0.011 0.018,0.029 C 0.88,0.307 0.928,0.416 0.86,0.497 0.814,0.553 0.804,0.63 0.803,0.685 0.77,0.665 0.725,0.644 0.675,0.64 L 0.637,0.637 C 0.552,0.631 0.485,0.625 0.449,0.569 0.447,0.566 0.445,0.564 0.444,0.562 0.396,0.479 0.456,0.39 0.457,0.389 L 0.524,0.29 0.418,0.346 C 0.417,0.347 0.277,0.417 0.18,0.369 0.131,0.345 0.1,0.293 0.086,0.215 0.069,0.111 0.029,0.04 0,0" style="fill:#ffffff;fill-opacity:1;fill-rule:nonzero;stroke:none" id="path3939"/></g><g id="g3941" transform="translate(20.1816,21.6201)"><path d="M 0,0 C 0,0 0.026,0.156 0.152,0.077 0.282,-0.004 0.15,-0.088 0.15,-0.088 c 0,0 0.142,-0.127 -0.001,-0.187 -0.138,-0.059 -0.132,0.099 -0.132,0.099 0,0 -0.139,-0.056 -0.145,0.079 C -0.134,0.05 0,0 0,0" style="fill:#fcb040;fill-opacity:1;fill-rule:nonzero;stroke:none" id="path3943"/></g><g id="g3945" transform="translate(20.25,21.8096)"><path d="M 0,0 -0.046,0.096 C -0.047,0.098 -0.093,0.188 -0.2,0.235 -0.32,0.286 -0.4,0.32 -0.433,0.439 c -0.01,0.034 0,0.073 0.014,0.104 -0.062,-0.007 -0.139,0.009 -0.198,0.088 -0.018,0.026 -0.036,0.058 -0.053,0.089 -0.021,0.037 -0.043,0.075 -0.066,0.1 -0.065,0.075 -0.131,0.104 -0.131,0.105 l -0.103,0.044 0.111,0.013 c 0,0 0.109,0.016 0.217,0.14 0.065,0.076 0.134,0.111 0.21,0.105 0.083,-0.007 0.15,-0.065 0.192,-0.111 0.011,0.045 0.038,0.098 0.098,0.132 0.004,0.002 0.008,0.004 0.013,0.007 0.087,0.04 0.165,0.001 0.248,-0.04 L 0.152,1.198 C 0.223,1.163 0.313,1.181 0.314,1.182 L 0.397,1.199 0.343,1.133 C 0.342,1.132 0.257,1.028 0.271,0.935 0.292,0.802 0.185,0.717 0.119,0.677 0.169,0.636 0.218,0.56 0.186,0.45 0.171,0.396 0.138,0.362 0.109,0.332 0.091,0.314 0.075,0.297 0.064,0.277 0.019,0.191 0.01,0.106 0.01,0.106 L 0,0 z" style="fill:#000000;fill-opacity:1;fill-rule:nonzero;stroke:none" id="path3947"/></g><g id="g3949" transform="translate(19.4683,22.7529)"><path d="m 0,0 c 0.027,-0.019 0.059,-0.046 0.092,-0.083 0.026,-0.03 0.05,-0.072 0.072,-0.111 0.017,-0.031 0.033,-0.06 0.049,-0.083 0.08,-0.107 0.194,-0.049 0.199,-0.047 L 0.53,-0.262 0.45,-0.368 C 0.428,-0.397 0.397,-0.456 0.406,-0.488 0.43,-0.576 0.481,-0.601 0.604,-0.653 0.67,-0.681 0.716,-0.724 0.746,-0.758 c 0.009,0.033 0.024,0.076 0.047,0.12 0.014,0.028 0.035,0.049 0.055,0.069 0.027,0.027 0.051,0.052 0.063,0.092 0.037,0.133 -0.078,0.184 -0.082,0.186 l -0.067,0.028 0.067,0.028 c 0,0 0.013,0.005 0.03,0.015 0.053,0.029 0.151,0.098 0.135,0.202 -0.011,0.072 0.02,0.144 0.047,0.191 -0.038,0 -0.088,0.005 -0.133,0.028 L 0.874,0.218 C 0.798,0.256 0.738,0.285 0.678,0.257 L 0.669,0.252 C 0.586,0.206 0.591,0.099 0.592,0.098 L 0.599,-0.021 0.536,0.081 C 0.536,0.082 0.453,0.214 0.345,0.224 0.29,0.227 0.237,0.199 0.185,0.14 0.117,0.061 0.046,0.019 0,0" style="fill:#ffffff;fill-opacity:1;fill-rule:nonzero;stroke:none" id="path3951"/></g><g id="g3953" transform="translate(20.0703,22.6768)"><path d="m 0,0 c 0,0 0.103,0.12 0.17,-0.013 0.069,-0.135 -0.087,-0.139 -0.087,-0.139 0,0 0.057,-0.183 -0.097,-0.161 -0.149,0.021 -0.063,0.153 -0.063,0.153 0,0 -0.147,0.024 -0.083,0.143 C -0.089,0.112 0,0 0,0" style="fill:#fcb040;fill-opacity:1;fill-rule:nonzero;stroke:none" id="path3955"/></g><g id="g3957" transform="translate(21.0859,21.4219)"><path d="M 0,0 C 0,0 0.254,-0.395 1.496,-0.395 2.736,-0.395 2.99,0 2.99,0 2.99,0 2.814,1.949 1.496,1.949 0.176,1.949 0,0 0,0" style="fill:#fcb040;fill-opacity:1;fill-rule:nonzero;stroke:none" id="path3959"/></g><g id="g3961" transform="translate(23.8682,21.082)"><path d="M 0,0 0.021,-0.131 -0.251,-0.432 -0.385,-0.416 0,0 z" style="fill:#ffffff;fill-opacity:1;fill-rule:nonzero;stroke:none" id="path3963"/></g><g id="g3965" transform="translate(23.8887,20.6777)"><path d="m 0,0 c 0,0 0.009,0.075 -0.033,0.133 -0.043,0.057 -0.118,0.054 -0.118,0.054 0,0 -0.044,0.142 -0.117,0.062 -0.071,-0.08 0.07,-0.115 0.07,-0.115 0,0 -0.001,-0.05 0.061,-0.103 C -0.074,-0.022 0,0 0,0" style="fill:#efd816;fill-opacity:1;fill-rule:nonzero;stroke:none" id="path3967"/></g><g id="g3969" transform="translate(21.8657,21.4395)"><path d="m 0,0 -0.008,-0.132 0.3,-0.272 0.131,0.028 L 0,0 z" style="fill:#ffffff;fill-opacity:1;fill-rule:nonzero;stroke:none" id="path3971"/></g><g id="g3973" transform="translate(21.8853,21.0352)"><path d="m 0,0 c 0,0 -0.017,0.073 0.02,0.136 0.036,0.061 0.111,0.066 0.111,0.066 0,0 0.03,0.145 0.11,0.072 C 0.32,0.201 0.184,0.153 0.184,0.153 0.184,0.153 0.19,0.104 0.132,0.044 0.075,-0.015 0,0 0,0" style="fill:#efd816;fill-opacity:1;fill-rule:nonzero;stroke:none" id="path3975"/></g><g id="g3977" transform="translate(24.1309,23.3965)"><path d="M 0,0 -0.13,0.025 -0.437,-0.239 -0.426,-0.373 0,0 z" style="fill:#ffffff;fill-opacity:1;fill-rule:nonzero;stroke:none" id="path3979"/></g><g id="g3981" transform="translate(23.7266,23.4277)"><path d="m 0,0 c 0,0 0.076,0.007 0.133,-0.037 0.056,-0.043 0.052,-0.118 0.052,-0.118 0,0 0.139,-0.048 0.057,-0.118 -0.081,-0.07 -0.112,0.072 -0.112,0.072 0,0 -0.05,0 -0.102,0.064 C -0.023,-0.073 0,0 0,0" style="fill:#efd816;fill-opacity:1;fill-rule:nonzero;stroke:none" id="path3983"/></g><g id="g3985" transform="translate(20.9585,21.5889)"><path d="M 0,0 0.025,0.13 -0.239,0.437 -0.373,0.425 0,0 z" style="fill:#ffffff;fill-opacity:1;fill-rule:nonzero;stroke:none" id="path3987"/></g><g id="g3989" transform="translate(20.9897,21.9932)"><path d="m 0,0 c 0,0 0.007,-0.076 -0.037,-0.133 -0.044,-0.056 -0.119,-0.052 -0.119,-0.052 0,0 -0.047,-0.139 -0.117,-0.058 -0.07,0.082 0.072,0.113 0.072,0.113 0,0 -0.001,0.05 0.064,0.102 C -0.073,0.023 0,0 0,0" style="fill:#efd816;fill-opacity:1;fill-rule:nonzero;stroke:none" id="path3991"/></g><g id="g3993" transform="translate(21.4771,23.2856)"><path d="M 0,0 -0.026,-0.13 0.235,-0.44 0.369,-0.43 0,0 z" style="fill:#ffffff;fill-opacity:1;fill-rule:nonzero;stroke:none" id="path3995"/></g><g id="g3997" transform="translate(21.4414,22.8818)"><path d="m 0,0 c 0,0 -0.006,0.076 0.038,0.132 0.045,0.056 0.12,0.051 0.12,0.051 0,0 0.049,0.139 0.118,0.056 C 0.345,0.157 0.203,0.127 0.203,0.127 c 0,0 0,-0.05 -0.065,-0.101 C 0.073,-0.024 0,0 0,0" style="fill:#efd816;fill-opacity:1;fill-rule:nonzero;stroke:none" id="path3999"/></g><g id="g4001" transform="translate(22.8589,22.1162)"><path d="M 0,0 0.13,-0.021 0.432,0.25 0.417,0.384 0,0 z" style="fill:#ffffff;fill-opacity:1;fill-rule:nonzero;stroke:none" id="path4003"/></g><g id="g4005" transform="translate(23.2637,22.0952)"><path d="m 0,0 c 0,0 -0.075,-0.009 -0.134,0.033 -0.057,0.043 -0.054,0.118 -0.054,0.118 0,0 -0.141,0.044 -0.061,0.116 0.08,0.072 0.114,-0.069 0.114,-0.069 0,0 0.05,0.001 0.104,-0.061 C 0.021,0.074 0,0 0,0" style="fill:#efd816;fill-opacity:1;fill-rule:nonzero;stroke:none" id="path4007"/></g><g id="g4009" transform="translate(24.1924,21.8701)"><path d="M 0,0 -0.023,-0.131 0.242,-0.437 0.376,-0.424 0,0 z" style="fill:#ffffff;fill-opacity:1;fill-rule:nonzero;stroke:none" id="path4011"/></g><g id="g4013" transform="translate(24.1641,21.4658)"><path d="m 0,0 c 0,0 -0.008,0.075 0.035,0.133 0.044,0.056 0.119,0.053 0.119,0.053 0,0 0.047,0.139 0.117,0.058 C 0.342,0.162 0.2,0.131 0.2,0.131 0.2,0.131 0.201,0.081 0.137,0.028 0.073,-0.023 0,0 0,0" style="fill:#efd816;fill-opacity:1;fill-rule:nonzero;stroke:none" id="path4015"/></g><g id="g4017" transform="translate(23.2607,24.8936)"><path d="m 0,0 c 0,-0.222 -0.34,-0.401 -0.761,-0.401 -0.42,0 -0.76,0.179 -0.76,0.401 0,0.222 0.34,0.401 0.76,0.401 C -0.34,0.401 0,0.222 0,0" style="fill:#012d6a;fill-opacity:1;fill-rule:nonzero;stroke:none" id="path4019"/></g><g id="g4021" transform="translate(22.0093,24.5874)"><path d="M 0,0 0.263,0.061 -2.67,0.716 -2.64,0.843 -0.149,0.272 -2.63,1.273 -2.581,1.394 -0.335,0.474 -2.161,1.446 -2.098,1.56 0.519,0.148 3.136,1.56 3.199,1.446 1.374,0.474 3.619,1.394 3.668,1.273 1.192,0.273 3.678,0.843 3.708,0.716 0.775,0.061 1.001,0.009 C 0.917,-0.032 0.815,-0.062 0.703,-0.08 L 0.646,-0.049 0.519,0.002 0.39,-0.05 0.325,-0.085 C 0.203,-0.071 0.092,-0.041 0,0" style="fill:#904b2e;fill-opacity:1;fill-rule:nonzero;stroke:none" id="path4023"/></g><g id="g4025" transform="translate(19.3135,25.1929)"><path d="M 0,0 0.081,0.344 -0.504,0.304 0,0 z" style="fill:#9ea5a8;fill-opacity:1;fill-rule:nonzero;stroke:none" id="path4027"/></g><g id="g4029" transform="translate(19.335,25.7563)"><path d="M 0,0 0.136,0.326 -0.447,0.382 0,0 z" style="fill:#9ea5a8;fill-opacity:1;fill-rule:nonzero;stroke:none" id="path4031"/></g><g id="g4033" transform="translate(19.7944,25.9336)"><path d="M 0,0 0.169,0.31 -0.405,0.428 0,0 z" style="fill:#9ea5a8;fill-opacity:1;fill-rule:nonzero;stroke:none" id="path4035"/></g><g id="g4037" transform="translate(25.7432,25.1929)"><path d="M 0,0 -0.081,0.344 0.504,0.304 0,0 z" style="fill:#9ea5a8;fill-opacity:1;fill-rule:nonzero;stroke:none" id="path4039"/></g><g id="g4041" transform="translate(25.7217,25.7563)"><path d="M 0,0 -0.136,0.326 0.447,0.382 0,0 z" style="fill:#9ea5a8;fill-opacity:1;fill-rule:nonzero;stroke:none" id="path4043"/></g><g id="g4045" transform="translate(25.2627,25.9336)"><path d="M 0,0 -0.17,0.31 0.404,0.428 0,0 z" style="fill:#9ea5a8;fill-opacity:1;fill-rule:nonzero;stroke:none" id="path4047"/></g></g></g></svg>