<svg xmlns:dc="http://purl.org/dc/elements/1.1/" xmlns:cc="http://creativecommons.org/ns#" xmlns:rdf="http://www.w3.org/1999/02/22-rdf-syntax-ns#" xmlns:svg="http://www.w3.org/2000/svg" xmlns="http://www.w3.org/2000/svg" viewBox="0 0 45 45" style="enable-background:new 0 0 45 45;" xml:space="preserve" version="1.1" id="svg2"><metadata id="metadata8"><rdf:RDF><cc:Work rdf:about=""><dc:format>image/svg+xml</dc:format><dc:type rdf:resource="http://purl.org/dc/dcmitype/StillImage"/></cc:Work></rdf:RDF></metadata><defs id="defs6"><clipPath id="clipPath16" clipPathUnits="userSpaceOnUse"><path id="path18" d="M 0,36 36,36 36,0 0,0 0,36 Z"/></clipPath></defs><g transform="matrix(1.25,0,0,-1.25,0,45)" id="g10"><g id="g12"><g xmlns="http://www.w3.org/2000/svg" clip-path="url(#clipPath16)" id="g14"><g id="g20"><path id="path22" style="fill:#003399;fill-opacity:1;fill-rule:nonzero;stroke:none" d="M 36,9 C 36,6.791 34.209,5 32,5 H 16.5 V 31 H 32 c 2.209,0 4,-1.791 4,-4 z"/></g><g id="g24"><path id="path26" style="fill:#003399;fill-opacity:1;fill-rule:nonzero;stroke:none" d="M 4,31 C 1.791,31 0,29.209 0,27 V 9 C 0,6.791 1.791,5 4,5 h 12.5 v 26 z"/></g><g id="g28"><path id="path30" style="fill:#eeeeee;fill-opacity:1;fill-rule:nonzero;stroke:none" d="M 24.708,5 24.69,5.275 24.654,5.534 24.609,5.78 24.546,6.017 24.465,6.24 24.375,6.453 24.276,6.66 24.159,6.858 24.042,7.046 23.916,7.23 23.781,7.408 23.637,7.583 23.34,7.923 23.034,8.26 22.729,8.6 l -0.298,0.346 -0.135,0.181 -0.135,0.188 -0.135,0.191 -0.117,0.201 -0.108,0.21 -0.099,0.217 -0.09,0.23 -0.081,0.24 -0.053,0.251 -0.055,0.266 -0.027,0.282 -0.009,0.294 v 0.298 l 0.027,0.282 0.036,0.269 0.064,0.259 0.071,0.242 0.081,0.236 0.1,0.227 0.116,0.214 0.117,0.211 0.126,0.2 0.135,0.194 0.144,0.188 0.154,0.184 0.143,0.179 0.153,0.178 0.162,0.171 0.306,0.343 0.297,0.343 0.144,0.175 0.135,0.175 0.135,0.178 0.117,0.185 0.117,0.187 0.099,0.195 0.09,0.197 0.072,0.21 0.063,0.214 0.045,0.223 0.027,0.237 0.009,0.242 -0.009,0.247 -0.027,0.239 -0.045,0.23 -0.054,0.226 -0.072,0.221 -0.09,0.213 -0.099,0.208 -0.108,0.203 -0.117,0.201 -0.126,0.198 -0.135,0.193 -0.144,0.192 -0.288,0.375 -0.306,0.372 -0.306,0.376 -0.288,0.375 -0.144,0.191 -0.135,0.195 -0.126,0.197 -0.116,0.201 -0.109,0.204 -0.099,0.21 -0.089,0.214 -0.073,0.22 -0.063,0.226 -0.045,0.23 -0.026,0.24 -0.01,0.246 0.01,0.223 0.017,0.22 0.036,0.217 0.054,0.211 0.054,0.21 0.072,0.204 0.09,0.2 0.09,0.198 0.099,0.197 0.108,0.195 0.117,0.191 0.117,0.188 0.252,0.368 0.271,0.367 0.278,0.358 0.27,0.353 0.27,0.353 0.252,0.35 0.117,0.175 0.117,0.178 0.099,0.174 0.099,0.179 0.09,0.174 0.072,0.182 0.072,0.178 L 24.6,31 H 11.785 l -0.054,-0.181 -0.063,-0.178 -0.081,-0.182 -0.09,-0.174 -0.09,-0.179 -0.108,-0.174 -0.108,-0.178 -0.126,-0.175 -0.252,-0.35 -0.261,-0.353 -0.279,-0.353 -0.27,-0.358 L 9.733,27.798 9.481,27.43 9.355,27.242 9.238,27.051 9.13,26.856 9.031,26.659 8.941,26.461 8.86,26.261 8.788,26.057 8.725,25.847 8.68,25.636 8.644,25.419 8.617,25.199 v -0.223 l 0.009,-0.246 0.027,-0.24 0.045,-0.23 0.054,-0.226 0.072,-0.22 0.09,-0.214 0.099,-0.21 0.108,-0.204 0.117,-0.201 0.135,-0.197 0.135,-0.195 0.135,-0.191 0.297,-0.375 0.297,-0.376 0.306,-0.372 0.297,-0.375 0.135,-0.192 0.135,-0.193 0.126,-0.198 0.117,-0.201 0.108,-0.203 0.099,-0.208 0.09,-0.213 0.072,-0.221 0.063,-0.226 0.045,-0.23 0.027,-0.239 0.009,-0.247 L 11.857,18.091 11.83,17.854 11.785,17.631 11.722,17.417 11.641,17.207 11.56,17.01 11.452,16.815 11.344,16.628 11.218,16.443 11.092,16.265 10.957,16.09 10.813,15.915 10.507,15.572 10.201,15.229 10.048,15.058 9.895,14.88 9.742,14.701 9.598,14.517 9.454,14.329 9.319,14.135 9.184,13.935 9.067,13.724 8.959,13.51 8.86,13.283 8.77,13.047 8.698,12.805 8.644,12.546 8.599,12.277 8.581,11.995 8.572,11.697 8.581,11.403 8.617,11.121 8.662,10.855 8.725,10.604 8.797,10.364 8.887,10.134 8.986,9.917 9.103,9.707 9.22,9.506 9.346,9.315 9.481,9.127 9.625,8.946 9.922,8.6 10.219,8.26 10.525,7.923 10.822,7.583 10.966,7.408 11.101,7.23 11.227,7.046 11.353,6.858 11.461,6.66 11.569,6.453 11.659,6.24 11.731,6.017 11.794,5.78 11.848,5.534 11.875,5.275 11.893,5"/></g></g></g></g></svg>