<svg xmlns:dc="http://purl.org/dc/elements/1.1/" xmlns:cc="http://creativecommons.org/ns#" xmlns:rdf="http://www.w3.org/1999/02/22-rdf-syntax-ns#" xmlns:svg="http://www.w3.org/2000/svg" xmlns="http://www.w3.org/2000/svg" viewBox="0 0 45 45" style="enable-background:new 0 0 45 45;" xml:space="preserve" version="1.1" id="svg2"><metadata id="metadata8"><rdf:RDF><cc:Work rdf:about=""><dc:format>image/svg+xml</dc:format><dc:type rdf:resource="http://purl.org/dc/dcmitype/StillImage"/></cc:Work></rdf:RDF></metadata><defs id="defs6"><clipPath id="clipPath16" clipPathUnits="userSpaceOnUse"><path id="path18" d="M 0,36 36,36 36,0 0,0 0,36 Z"/></clipPath></defs><g transform="matrix(1.25,0,0,-1.25,0,45)" id="g10"><g id="g12"><g clip-path="url(#clipPath16)" id="g14"><g id="g30"><path id="path20" style="fill:#75b2de;fill-opacity:1;fill-rule:nonzero;stroke:none" d="M 0,18 V 9 C 0,6.791 1.791,5 4,5 h 28 c 2.209,0 4,1.791 4,4 v 9 z"/></g><g id="g32"><path id="path30" style="fill:#eeeeee;fill-opacity:1;fill-rule:nonzero;stroke:none" d="M 32,31 H 4 C 1.791,31 0,29.209 0,27 v -9 h 36 v 9 c 0,2.209 -1.791,4 -4,4"/></g><g id="g34"><path id="path40" style="fill:#000000;fill-opacity:1;fill-rule:nonzero;stroke:none" d="m 2.1924,11.3838 v -0.257 l -0.234,-0.045 c -0.019,-0.029 -0.036,-0.072 -0.05,-0.129 -0.014,-0.057 -0.021,-0.118 -0.021,-0.181 0,-0.094 0.02,-0.167 0.059,-0.219 0.04,-0.051 0.091,-0.076 0.153,-0.076 0.058,0 0.106,0.027 0.143,0.08 0.037,0.054 0.076,0.146 0.117,0.277 0.053,0.189 0.122,0.331 0.208,0.428 0.086,0.098 0.199,0.146 0.338,0.146 0.146,0 0.262,-0.057 0.346,-0.173 0.085,-0.116 0.127,-0.268 0.127,-0.457 0,-0.135 -0.022,-0.257 -0.065,-0.366 -0.043,-0.109 -0.102,-0.2 -0.178,-0.273 h -0.356 v 0.266 l 0.243,0.036 c 0.027,0.034 0.051,0.081 0.069,0.139 0.018,0.059 0.028,0.125 0.028,0.198 0,0.093 -0.019,0.166 -0.058,0.214 -0.038,0.049 -0.089,0.073 -0.153,0.073 -0.066,0 -0.118,-0.024 -0.158,-0.07 -0.04,-0.046 -0.078,-0.128 -0.113,-0.244 -0.058,-0.202 -0.128,-0.355 -0.209,-0.46 -0.08,-0.103 -0.19,-0.155 -0.33,-0.155 -0.138,0 -0.251,0.059 -0.339,0.176 -0.088,0.117 -0.133,0.264 -0.135,0.442 0,0.131 0.019,0.25 0.059,0.358 0.04,0.108 0.093,0.199 0.159,0.272 z"/><path id="path41" style="fill:#000000;fill-opacity:1;fill-rule:nonzero;stroke:none" d="m 2.6035,12.7168 v -0.578 h 0.487 v 0.551 l -0.203,0.015 v 0.26 h 0.466 v -1.35 h -0.205 l -0.035,0.182 h -1.225 l -0.035,-0.182 h -0.206 v 0.182 1.166 h 0.467 v -0.263 l -0.203,-0.014 v -0.547 h 0.428 v 0.578 z"/><path id="path42" style="fill:#000000;fill-opacity:1;fill-rule:nonzero;stroke:none" d="m 2.3994,13.7441 v 0.236 c 0,0.096 -0.02,0.167 -0.061,0.215 -0.041,0.047 -0.099,0.071 -0.175,0.071 -0.077,0 -0.138,-0.024 -0.184,-0.071 -0.046,-0.047 -0.068,-0.117 -0.068,-0.209 v -0.242 z m -0.752,0.242 c 0,0.194 0.044,0.346 0.133,0.456 0.089,0.111 0.211,0.165 0.367,0.165 0.086,0 0.161,-0.023 0.224,-0.069 0.063,-0.046 0.114,-0.113 0.153,-0.202 0.03,0.1 0.08,0.173 0.149,0.217 0.069,0.045 0.155,0.066 0.257,0.066 h 0.087 c 0.037,0 0.067,0.008 0.087,0.022 0.021,0.015 0.033,0.04 0.037,0.074 l 0.006,0.043 h 0.206 v -0.178 c 0,-0.111 -0.03,-0.19 -0.09,-0.235 -0.06,-0.045 -0.138,-0.068 -0.233,-0.068 h -0.098 c -0.082,0 -0.147,-0.022 -0.195,-0.066 -0.047,-0.045 -0.072,-0.107 -0.074,-0.188 v -0.279 h 0.45 l 0.035,0.183 h 0.205 v -0.707 h -0.205 l -0.035,0.181 h -1.225 l -0.035,-0.181 h -0.206 v 0.181 z"/><path id="path43" style="fill:#000000;fill-opacity:1;fill-rule:nonzero;stroke:none" d="m 2.3994,15.4658 v 0.237 c 0,0.095 -0.02,0.166 -0.061,0.214 -0.041,0.048 -0.099,0.071 -0.175,0.071 -0.077,0 -0.138,-0.023 -0.184,-0.07 -0.046,-0.047 -0.068,-0.117 -0.068,-0.209 v -0.243 z m -0.752,0.243 c 0,0.194 0.044,0.346 0.133,0.455 0.089,0.111 0.211,0.166 0.367,0.166 0.086,0 0.161,-0.023 0.224,-0.07 0.063,-0.045 0.114,-0.113 0.153,-0.202 0.03,0.1 0.08,0.173 0.149,0.218 0.069,0.044 0.155,0.066 0.257,0.066 h 0.087 c 0.037,0 0.067,0.007 0.087,0.021 0.021,0.016 0.033,0.04 0.037,0.075 l 0.006,0.042 h 0.206 v -0.177 c 0,-0.111 -0.03,-0.191 -0.09,-0.236 -0.06,-0.045 -0.138,-0.068 -0.233,-0.068 h -0.098 c -0.082,0 -0.147,-0.022 -0.195,-0.065 -0.047,-0.045 -0.072,-0.108 -0.074,-0.188 v -0.28 h 0.45 l 0.035,0.183 h 0.205 v -0.707 h -0.205 l -0.035,0.181 h -1.225 l -0.035,-0.181 h -0.206 v 0.181 z"/><path id="path44" style="fill:#000000;fill-opacity:1;fill-rule:nonzero;stroke:none" d="m 2.6411,17.2656 v 0.391 l -0.601,-0.192 v -0.008 z m 0.507,-0.619 -0.017,0.121 -1.484,0.519 v 0.351 l 1.484,0.516 0.017,0.121 h 0.205 v -0.581 h -0.205 l -0.021,0.118 -0.234,-0.074 v -0.554 l 0.234,-0.074 0.021,0.118 h 0.205 v -0.581 z"/><path id="path45" style="fill:#000000;fill-opacity:1;fill-rule:nonzero;stroke:none" d="m 1.8535,18.8228 0.023,-0.13 1.023,0.302 0.094,0.021 v 0.008 l -0.091,0.02 -1.026,0.303 -0.023,-0.129 h -0.206 v 0.624 h 0.206 l 0.019,-0.144 1.481,-0.502 v -0.352 l -1.481,-0.503 -0.019,-0.141 h -0.206 v 0.623 z"/><path id="path46" style="fill:#000000;fill-opacity:1;fill-rule:nonzero;stroke:none" d="m 2.6411,20.3613 v 0.391 l -0.601,-0.192 v -0.007 z m 0.507,-0.619 -0.017,0.122 -1.484,0.519 v 0.351 l 1.484,0.515 0.017,0.122 h 0.205 v -0.581 h -0.205 l -0.021,0.118 -0.234,-0.075 v -0.553 l 0.234,-0.075 0.021,0.118 h 0.205 v -0.581 z"/><path id="path47" style="fill:#000000;fill-opacity:1;fill-rule:nonzero;stroke:none" d="m 3.3535,21.5557 h -0.205 l -0.035,0.182 h -1.225 l -0.035,-0.182 h -0.206 v 0.182 0.342 0.183 h 0.206 l 0.035,-0.183 h 1.202 v 0.482 l -0.214,0.016 v 0.261 h 0.477 z"/><path id="path48" style="fill:#000000;fill-opacity:1;fill-rule:nonzero;stroke:none" d="m 3.3535,23.0337 h -0.205 l -0.035,0.182 h -1.225 l -0.035,-0.182 h -0.206 v 0.182 0.342 0.183 h 0.206 l 0.035,-0.183 h 1.202 v 0.482 l -0.214,0.016 v 0.261 h 0.477 z"/><path id="path49" style="fill:#000000;fill-opacity:1;fill-rule:nonzero;stroke:none" d="m 2.6035,25.6133 v -0.578 h 0.487 v 0.551 l -0.203,0.015 v 0.261 h 0.466 v -1.351 h -0.205 l -0.035,0.182 h -1.225 l -0.035,-0.182 h -0.206 v 0.182 1.166 h 0.467 v -0.262 l -0.203,-0.015 v -0.547 h 0.428 v 0.578 z"/></g><g id="g36"><path id="path50" style="fill:#0394c0;fill-opacity:1;fill-rule:nonzero;stroke:none" d="m 12.1992,26.6665 h 12.642 v -15.135 c 0,-0.596 -0.483,-1.078 -1.079,-1.078 h -4.164 c -0.635,0 -1.078,-1.079 -1.078,-1.079 0,0 -0.443,1.079 -1.078,1.079 h -4.165 c -0.595,0 -1.078,0.482 -1.078,1.078 z"/><path id="path51" style="fill:#ce1127;fill-opacity:1;fill-rule:nonzero;stroke:none" d="m 17.9927,25.6963 v -0.581 h -0.8 v 0.581 h -0.861 v -1.294 l 0.588,-1.145 v -4.604 c 0,0 -0.463,0.064 -0.517,-0.374 -0.055,-0.438 0.305,-0.505 0.305,-0.505 l -1.479,-6.462 h 6.563 l -1.48,6.462 c 0,0 0.361,0.067 0.306,0.505 -0.055,0.438 -0.518,0.374 -0.518,0.374 v 4.604 l 0.589,1.145 v 1.294 h -0.862 v -0.581 h -0.799 v 0.581 z"/></g></g></g></g></svg>