<svg xmlns:dc="http://purl.org/dc/elements/1.1/" xmlns:cc="http://creativecommons.org/ns#" xmlns:rdf="http://www.w3.org/1999/02/22-rdf-syntax-ns#" xmlns:svg="http://www.w3.org/2000/svg" xmlns="http://www.w3.org/2000/svg" viewBox="0 0 45 45" style="enable-background:new 0 0 45 45;" xml:space="preserve" version="1.1" id="svg2"><metadata id="metadata8"><rdf:RDF><cc:Work rdf:about=""><dc:format>image/svg+xml</dc:format><dc:type rdf:resource="http://purl.org/dc/dcmitype/StillImage"/></cc:Work></rdf:RDF></metadata><defs id="defs6"><clipPath id="clipPath16" clipPathUnits="userSpaceOnUse"><path id="path18" d="M 4,31 C 1.791,31 0,29.209 0,27 L 0,27 0,9 C 0,6.791 1.791,5 4,5 l 0,0 28,0 c 2.209,0 4,1.791 4,4 l 0,0 0,18 c 0,2.209 -1.791,4 -4,4 l 0,0 -28,0 z"/></clipPath></defs><g transform="matrix(1.25,0,0,-1.25,0,45)" id="g10"><g id="g12"><g xmlns="http://www.w3.org/2000/svg" clip-path="url(#clipPath16)" id="g14"><path id="path20" style="fill:#dc171d;fill-opacity:1;fill-rule:nonzero;stroke:none" d="M 0,5 36,5 36,31 0,31 0,5 z"/><g id="g30" transform="translate(-4.5,-4.5)"><path id="path30" style="fill:#012a87;fill-opacity:1;fill-rule:nonzero;stroke:none" d="m 23.4844,11.4687 15.047,0 0,10.047 -4.033,0 -11.014,-6.116 0,-3.931 z"/><path id="path32" style="fill:#012a87;fill-opacity:1;fill-rule:nonzero;stroke:none" d="m 6.4687,11.4687 15.047,0 0,3.931 -11.014,6.116 -4.033,0 0,-10.047 z"/><path id="path34" style="fill:#012a87;fill-opacity:1;fill-rule:nonzero;stroke:none" d="m 23.4844,29.6006 11.014,-6.116 4.033,0 0,10.047 -15.047,0 0,-3.931 z"/><path id="path36" style="fill:#012a87;fill-opacity:1;fill-rule:nonzero;stroke:none" d="m 6.4687,23.4844 4.033,0 11.014,6.116 0,3.931 -15.047,0 0,-10.047 z"/></g><g id="g32" transform="translate(-4.5,-4.5)"><path id="path40" style="fill:#ffffff;fill-opacity:1;fill-rule:nonzero;stroke:none" d="m 22.5,16.8203 -10.209,5.68 10.209,5.679 10.209,-5.679 -10.209,-5.68 z"/><path id="path42" style="fill:#008830;fill-opacity:1;fill-rule:nonzero;stroke:none" d="m 26.7881,19.2061 -8.576,0 -3.041,1.691 0.258,0.444 0.477,0.042 0.453,0.652 0.941,0.065 1.182,-1.176 0.883,-0.113 0.235,-0.105 2.6,-0.018 2.882,3.036 0.712,0.205 0.782,-0.423 0.7,0.423 0.588,-0.141 2.987,-2.326 -4.063,-2.256 z"/><path id="path44" style="fill:#f9d90f;fill-opacity:1;fill-rule:nonzero;stroke:none" d="m 22.8452,25.7769 -0.345,1.062 -0.345,-1.062 -1.117,0 0.904,-0.656 -0.346,-1.062 0.904,0.656 0.903,-0.656 -0.345,1.062 0.904,0.656 -1.117,0 z"/></g></g></g></g></svg>