<svg xmlns:dc="http://purl.org/dc/elements/1.1/" xmlns:cc="http://creativecommons.org/ns#" xmlns:rdf="http://www.w3.org/1999/02/22-rdf-syntax-ns#" xmlns:svg="http://www.w3.org/2000/svg" xmlns="http://www.w3.org/2000/svg" viewBox="0 0 45 45" style="enable-background:new 0 0 45 45;" xml:space="preserve" version="1.1" id="svg2"><metadata id="metadata8"><rdf:RDF><cc:Work rdf:about=""><dc:format>image/svg+xml</dc:format><dc:type rdf:resource="http://purl.org/dc/dcmitype/StillImage"/></cc:Work></rdf:RDF></metadata><defs id="defs6"><clipPath id="clipPath16" clipPathUnits="userSpaceOnUse"><path id="path18" d="M 0,36 36,36 36,0 0,0 0,36 Z"/></clipPath></defs><g transform="matrix(1.25,0,0,-1.25,0,45)" id="g10"><g id="g12"><g xmlns="http://www.w3.org/2000/svg" clip-path="url(#clipPath16)" id="g14"><g transform="translate(36,9)" id="g31"><path id="path20" style="fill:#00ccff;fill-opacity:1;fill-rule:nonzero;stroke:none" d="m 0,0 c 0,-2.209 -1.791,-4 -4,-4 l -8,0 0,26 8,0 c 2.209,0 4,-1.791 4,-4 L 0,0 z"/></g><g transform="translate(4,31)" id="g33"><path id="path22" style="fill:#008000;fill-opacity:1;fill-rule:nonzero;stroke:none" d="m 0,0 c -2.209,0 -4,-1.791 -4,-4 l 0,-18 c 0,-2.209 1.791,-4 4,-4 l 8,0 0,26 -8,0 z"/></g><path id="path24" style="fill:#333399;fill-opacity:1;fill-rule:nonzero;stroke:none" d="M 24,5 12,5 12,31 24,31 24,5 z"/><g id="g38"><path id="path30" style="fill:#a4c6e9;fill-opacity:1;fill-rule:nonzero;stroke:none" d="m 19.6836,19.3945 0.454,0.273 0,-3.981 c 0,0 -0.112,-0.665 -1.16,-0.665 -0.524,0 -0.978,0.319 -0.978,0.319 0,0 -0.453,-0.319 -0.977,-0.319 -1.047,0 -1.161,0.665 -1.161,0.665 l 0,3.981 0.454,-0.273 3.368,0 z"/><path id="path31" style="fill:#6dc3d6;fill-opacity:1;fill-rule:nonzero;stroke:none" d="m 18,15.4375 c 0,0 -0.5,-0.403 -1.26,-0.046 -0.465,0.219 -0.424,0.519 -0.424,0.519 l 0,3.484 c 0,0 0.572,0.393 1.684,0.393 1.112,0 1.684,-0.393 1.684,-0.393 l 0,-3.484 c 0,0 0.042,-0.3 -0.424,-0.519 -0.76,-0.357 -1.26,0.046 -1.26,0.046"/><path id="path32" style="fill:#eeeeee;fill-opacity:1;fill-rule:nonzero;stroke:none" d="m 19.6836,19.3945 -0.095,0.055 1.607,0.989 -0.021,0.178 0.094,-0.01 0.142,0.118 0.395,0.066 -0.23,-0.33 -0.156,-0.093 -0.014,-0.114 -0.142,0.09 -1.58,-0.949 z"/><path id="path33" style="fill:#eeeeee;fill-opacity:1;fill-rule:nonzero;stroke:none" d="m 16.3159,19.3945 0.096,0.055 -1.607,0.989 0.02,0.178 -0.094,-0.01 -0.141,0.118 -0.396,0.066 0.231,-0.33 0.156,-0.093 0.014,-0.114 0.141,0.09 1.58,-0.949 z"/><path id="path34" style="fill:#3fb54c;fill-opacity:1;fill-rule:nonzero;stroke:none" d="m 20.665,19.9839 0,-4.216 c 0,0 -0.057,-0.383 -0.301,-0.615 -0.576,-0.546 -1.701,-0.276 -1.701,-0.276 l -0.031,-0.385 c 0,0 1.368,-0.288 2.002,0.028 0.418,0.207 0.439,0.777 0.439,0.777 l 0,3.815 0.251,0.063 -0.251,1.056 -0.408,-0.247 z"/><path id="path35" style="fill:#3fb54c;fill-opacity:1;fill-rule:nonzero;stroke:none" d="m 15.3354,19.9839 0,-4.216 c 0,0 0.056,-0.383 0.301,-0.615 0.576,-0.546 1.7,-0.276 1.7,-0.276 l 0.031,-0.385 c 0,0 -1.368,-0.288 -2.001,0.028 -0.418,0.207 -0.439,0.777 -0.439,0.777 l 0,3.815 -0.251,0.063 0.251,1.056 0.408,-0.247 z"/><path id="path36" style="fill:#a4c6e9;fill-opacity:1;fill-rule:nonzero;stroke:none" d="m 18,13.8496 c -0.287,0 -0.998,0.047 -1.087,0.192 -0.089,0.147 0,0.382 0,0.382 0,0 -0.038,0.047 -0.645,-0.151 -0.607,-0.197 -0.913,-0.026 -0.913,-0.026 0,0 0.024,0.158 0.024,0.288 0,0.128 -0.057,0.338 -0.057,0.338 0,0 0.057,0.129 0.243,0.167 0.185,0.039 0.402,0 0.402,0 0,0 -0.038,-0.103 -0.014,-0.197 0.024,-0.095 0.066,-0.146 0.066,-0.146 0,0 0.223,-0.027 0.455,0.064 0.232,0.091 0.382,0.091 0.382,0.091 0,0 0.005,-0.05 0.037,-0.117 0.031,-0.068 0.084,-0.114 0.084,-0.114 0,0 0.522,-0.125 1.023,-0.125 0.501,0 1.022,0.125 1.022,0.125 0,0 0.054,0.046 0.085,0.114 0.032,0.067 0.037,0.117 0.037,0.117 0,0 0.15,0 0.382,-0.091 0.233,-0.091 0.455,-0.064 0.455,-0.064 0,0 0.042,0.051 0.066,0.146 0.023,0.094 -0.014,0.197 -0.014,0.197 0,0 0.216,0.039 0.403,0 0.185,-0.038 0.242,-0.167 0.242,-0.167 0,0 -0.057,-0.21 -0.057,-0.338 0,-0.13 0.024,-0.288 0.024,-0.288 0,0 -0.306,-0.171 -0.914,0.026 -0.606,0.198 -0.644,0.151 -0.644,0.151 0,0 0.09,-0.235 0,-0.382 -0.089,-0.145 -0.8,-0.192 -1.087,-0.192"/><path id="path37" style="fill:#d2912f;fill-opacity:1;fill-rule:nonzero;stroke:none" d="m 18,14.2734 -0.356,-1.053 c 0,0 -0.147,0.373 -0.141,0.662 0.006,0.288 0.097,0.762 0.097,0.762 0,0 -0.179,0.054 -0.207,0.091 -0.028,0.038 -0.081,0.273 -0.047,0.37 0.034,0.098 0.132,0.189 0.132,0.189 0,0 -0.081,0.056 -0.099,0.263 -0.019,0.207 -0.033,0.598 0.038,0.673 0.07,0.075 0.174,0.207 0.583,0.207 0.409,0 0.513,-0.132 0.584,-0.207 0.07,-0.075 0.056,-0.466 0.037,-0.673 -0.018,-0.207 -0.099,-0.263 -0.099,-0.263 0,0 0.097,-0.091 0.132,-0.189 0.034,-0.097 -0.018,-0.332 -0.047,-0.37 -0.028,-0.037 -0.207,-0.091 -0.207,-0.091 0,0 0.091,-0.474 0.097,-0.762 0.007,-0.289 -0.141,-0.662 -0.141,-0.662 L 18,14.2734 z"/><path id="path38" style="fill:#f25e25;fill-opacity:1;fill-rule:nonzero;stroke:none" d="m 18.6035,20.1982 c 0,0.333 -0.271,0.603 -0.604,0.603 -0.333,0 -0.603,-0.27 -0.603,-0.603 0,-0.333 0.27,-0.603 0.603,-0.603 0.333,0 0.604,0.27 0.604,0.603"/><path id="path39" style="fill:#ffc618;fill-opacity:1;fill-rule:nonzero;stroke:none" d="m 19.3838,22.7153 -0.899,-1.591 -0.235,0 0.752,1.817 0.382,-0.226 z"/><path id="path40" style="fill:#ffc618;fill-opacity:1;fill-rule:nonzero;stroke:none" d="m 18.2495,23.1904 -0.452,0 0.108,-2.066 0.217,0 0.127,2.066 z"/><path id="path41" style="fill:#ffc618;fill-opacity:1;fill-rule:nonzero;stroke:none" d="m 16.8423,22.9414 -0.4,-0.217 0.927,-1.6 0.245,0 -0.772,1.817 z"/><path id="path42" style="fill:#141414;fill-opacity:1;fill-rule:nonzero;stroke:none" d="m 18.3262,20.4268 c 0,0 0.027,0.029 0.093,0 0.066,-0.029 0.117,0.021 0.087,-0.06 -0.031,-0.08 -0.007,-0.099 0.065,-0.103 0.073,-0.005 -0.012,-0.153 0,-0.266 0.013,-0.113 0.182,-0.064 0.198,0 0.017,0.063 -0.03,0.113 -0.03,0.113 0,0 0.04,0.012 0.075,-0.054 0.035,-0.066 0.049,-0.221 -0.111,-0.323 -0.159,-0.101 -0.218,-0.076 -0.218,-0.076 0,0 -0.333,0.085 -0.281,0.439 0.034,0.221 0.122,0.33 0.122,0.33"/><path id="path43" style="fill:#d2912f;fill-opacity:1;fill-rule:nonzero;stroke:none" d="m 17.0635,18.626 c -0.132,0.221 -0.184,0.348 -0.348,0.48 -0.165,0.132 -0.216,0.248 -0.216,0.48 0,0.232 0.005,0.311 -0.039,0.364 -0.043,0.053 -0.251,0.191 -0.31,0.276 -0.06,0.085 -0.16,0.825 -0.213,0.872 -0.054,0.047 -0.204,0.038 -0.279,0.078 -0.076,0.041 -0.349,0.004 -0.355,0.11 -0.006,0.107 0.307,0.007 0.326,0.066 0.019,0.06 -0.348,0.126 -0.341,0.211 0.005,0.084 0.018,0.122 0.049,0.163 0.032,0.04 0.399,-0.157 0.453,-0.101 0.053,0.057 -0.352,0.235 -0.311,0.339 0.041,0.103 0.562,-0.423 0.721,-0.452 0.16,-0.028 0.189,0.154 0.321,0.107 0.131,-0.047 -0.233,-0.295 -0.214,-0.414 0.019,-0.12 0.043,-0.184 0.235,-0.355 0.333,-0.295 0.137,-0.598 0.251,-0.652 0.312,-0.151 0.455,-0.512 0.455,-0.512 0,0 0.116,-0.009 0.22,-0.05 0.103,-0.041 0.207,-0.147 0.207,-0.147 0,0 0.094,0.113 0.113,0.323 0.019,0.21 -0.076,0.238 -0.135,0.307 -0.06,0.069 0.009,0.101 0.031,0.176 0.022,0.075 0.075,0.094 0.075,0.094 0,0 -0.021,0.063 0.016,0.069 0.038,0.006 0.094,-0.079 0.154,-0.025 0.06,0.053 0.125,0.085 0.254,0.038 0.129,-0.048 0.157,-0.016 0.176,-0.107 0.018,-0.091 -0.104,-0.129 0,-0.151 0.103,-0.022 0.041,-0.156 0.002,-0.156 -0.04,0 -0.15,-0.029 -0.084,-0.145 0.066,-0.116 0.182,-0.216 0.207,-0.254 0.025,-0.037 0.01,-0.136 0.01,-0.136 0,0 0.065,0.012 0.09,0.029 0.023,0.016 0.048,0.169 0.1,0.268 0.052,0.099 0.233,0.182 0.306,0.268 0.073,0.087 0.306,0.485 0.297,0.532 -0.01,0.047 -0.097,0.341 -0.069,0.574 0.029,0.233 0.174,0.405 0.158,0.466 -0.016,0.061 -0.031,0.087 -0.04,0.094 -0.009,0.007 -0.12,-0.023 -0.203,0.04 -0.082,0.063 -0.135,0.242 -0.12,0.266 0.017,0.024 0.165,0.103 0.177,0.13 0.012,0.025 -0.002,0.07 0.04,0.105 0.042,0.036 0.132,0.002 0.182,0.036 0.048,0.032 0.06,0.084 0.117,0.091 0.056,0.007 0.134,-0.082 0.17,-0.075 0.035,0.007 0.092,0.073 0.127,0.021 0.035,-0.052 0.051,-0.205 0.072,-0.235 0.021,-0.031 0.055,-0.089 0.04,-0.115 -0.014,-0.026 -0.209,-0.184 -0.221,-0.287 -0.011,-0.104 0.101,-0.33 0.087,-0.612 -0.013,-0.283 -0.157,-0.462 -0.155,-0.652 0.002,-0.191 0.021,-0.659 -0.028,-0.805 -0.05,-0.146 -0.358,-0.574 -0.372,-0.718 -0.014,-0.143 0.274,-0.339 0.249,-0.778 l -2.165,0 c 0,0 -0.138,0.24 -0.27,0.461"/><path id="path44" style="fill:#a4c6e9;fill-opacity:1;fill-rule:nonzero;stroke:none" d="m 18.0923,20.5835 c -0.963,0 -1.045,0.172 -1.045,0.172 0,0 -0.044,0.117 -0.047,0.245 -0.004,0.129 0.047,0.232 0.047,0.232 0,0 -0.173,-0.044 -0.443,-0.226 -0.269,-0.181 -0.472,0 -0.472,0 0,0 0.049,0.321 0.011,0.443 -0.037,0.122 -0.016,0.295 -0.016,0.295 0,0 0.157,-0.166 0.424,-0.157 0.267,0.009 0.289,0.091 0.386,0.141 0.097,0.05 0.185,0.035 0.185,0.035 l 0.069,-0.286 c 0,0 0.38,-0.1 0.901,-0.1 0.52,0 0.901,0.1 0.901,0.1 l 0.068,0.286 c 0,0 0.088,0.015 0.186,-0.035 0.097,-0.05 0.119,-0.132 0.386,-0.141 0.266,-0.009 0.423,0.157 0.423,0.157 0,0 0.022,-0.173 -0.015,-0.295 -0.038,-0.122 0.01,-0.443 0.01,-0.443 0,0 -0.202,-0.181 -0.471,0 -0.271,0.182 -0.443,0.226 -0.443,0.226 0,0 0.05,-0.103 0.047,-0.232 -0.003,-0.128 -0.047,-0.245 -0.047,-0.245 0,0 -0.083,-0.172 -1.045,-0.172"/></g></g></g></g></svg>