<svg xmlns:dc="http://purl.org/dc/elements/1.1/" xmlns:cc="http://creativecommons.org/ns#" xmlns:rdf="http://www.w3.org/1999/02/22-rdf-syntax-ns#" xmlns:svg="http://www.w3.org/2000/svg" xmlns="http://www.w3.org/2000/svg" viewBox="0 0 45 45" style="enable-background:new 0 0 45 45;" xml:space="preserve" version="1.1" id="svg2"><metadata id="metadata8"><rdf:RDF><cc:Work rdf:about=""><dc:format>image/svg+xml</dc:format><dc:type rdf:resource="http://purl.org/dc/dcmitype/StillImage"/></cc:Work></rdf:RDF></metadata><defs id="defs6"><clipPath id="clipPath16" clipPathUnits="userSpaceOnUse"><path id="path18" d="M 0,36 36,36 36,0 0,0 0,36 Z"/></clipPath></defs><g transform="matrix(1.25,0,0,-1.25,0,45)" id="g10"><g id="g12"><g xmlns="http://www.w3.org/2000/svg" clip-path="url(#clipPath16)" id="g14"><g id="g30"><path id="path32" style="fill:#ff9600;fill-opacity:1;fill-rule:nonzero;stroke:none" d="m 12.6001,5 h 19.4 c 2.209,0 4,1.791 4,4 v 12.714 z"/></g><g id="g34"><path id="path36" style="fill:#eeeeee;fill-opacity:1;fill-rule:nonzero;stroke:none" d="M 32,31 H 23.4 L 0,14.286 V 9 C 0,6.791 1.791,5 4,5 h 8.6 L 36,21.714 V 27 c 0,2.209 -1.791,4 -4,4"/></g><g id="g38"><path id="path40" style="fill:#1946b4;fill-opacity:1;fill-rule:nonzero;stroke:none" d="m 23.4004,31 h -19.4 c -2.209,0 -4,-1.791 -4,-4 V 14.286 Z"/></g><g id="g42"><path id="path44" style="fill:#ff9600;fill-opacity:1;fill-rule:nonzero;stroke:none" d="m 25.4287,18 -4.502,-0.516 1.174,-0.679 -1.356,0.058 1,-0.918 -1.311,0.351 2.819,-3.549 -3.549,2.819 0.351,-1.311 -0.918,1 0.059,-1.356 -0.68,1.174 -0.516,-4.502 -0.516,4.502 -0.679,-1.174 0.058,1.356 -0.917,-1 0.35,1.311 -3.549,-2.819 2.819,3.549 -1.311,-0.351 1,0.918 -1.355,-0.058 1.174,0.679 -4.502,0.516 4.502,0.516 -1.174,0.679 1.355,-0.058 -1,0.918 1.311,-0.351 -2.819,3.549 3.549,-2.819 -0.35,1.311 0.917,-1 -0.058,1.356 0.679,-1.175 0.516,4.503 0.516,-4.503 0.68,1.175 -0.059,-1.356 0.918,1 -0.351,-1.311 3.549,2.819 -2.819,-3.549 1.311,0.351 -1,-0.918 1.356,0.058 -1.174,-0.679 z"/></g></g></g></g></svg>