<svg xmlns:dc="http://purl.org/dc/elements/1.1/" xmlns:cc="http://creativecommons.org/ns#" xmlns:rdf="http://www.w3.org/1999/02/22-rdf-syntax-ns#" xmlns:svg="http://www.w3.org/2000/svg" xmlns="http://www.w3.org/2000/svg" viewBox="0 0 45 45" style="enable-background:new 0 0 45 45;" xml:space="preserve" version="1.1" id="svg2"><metadata id="metadata8"><rdf:RDF><cc:Work rdf:about=""><dc:format>image/svg+xml</dc:format><dc:type rdf:resource="http://purl.org/dc/dcmitype/StillImage"/></cc:Work></rdf:RDF></metadata><defs id="defs6"><clipPath id="clipPath16" clipPathUnits="userSpaceOnUse"><path id="path18" d="M 4,31 C 1.791,31 0,29.209 0,27 L 0,27 0,9 C 0,6.791 1.791,5 4,5 l 0,0 28,0 c 2.209,0 4,1.791 4,4 l 0,0 0,18 c 0,2.209 -1.791,4 -4,4 l 0,0 -28,0 z"/></clipPath></defs><g transform="matrix(1.25,0,0,-1.25,0,45)" id="g10"><g id="g12"><g xmlns="http://www.w3.org/2000/svg" clip-path="url(#clipPath16)" id="g14"><g id="g30"><path id="path20" style="fill:#eeeeee;fill-opacity:1;fill-rule:nonzero;stroke:none" d="M 0,5 36,5 36,31 0,31 0,5 z"/><path id="path21" style="fill:#006633;fill-opacity:1;fill-rule:nonzero;stroke:none" d="M 2.167,31 0,31 0,5.001 l 2.167,0 0,25.999 z"/><path id="path22" style="fill:#fad115;fill-opacity:1;fill-rule:nonzero;stroke:none" d="m 4.333,31 -2.167,0 0,-25.999 2.167,0 0,25.999 z"/><path id="path23" style="fill:#006633;fill-opacity:1;fill-rule:nonzero;stroke:none" d="m 8.666,31 -2.167,0 0,-25.999 2.167,0 0,25.999 z"/><path id="path24" style="fill:#fad115;fill-opacity:1;fill-rule:nonzero;stroke:none" d="m 10.833,31 -2.167,0 0,-25.999 2.167,0 0,25.999 z"/><path id="path25" style="fill:#006633;fill-opacity:1;fill-rule:nonzero;stroke:none" d="M 33.833,31 36,31 36,5.001 l -2.167,0 0,25.999 z"/><path id="path26" style="fill:#fad115;fill-opacity:1;fill-rule:nonzero;stroke:none" d="m 31.667,31 2.166,0 0,-25.999 -2.166,0 0,25.999 z"/><path id="path27" style="fill:#006633;fill-opacity:1;fill-rule:nonzero;stroke:none" d="m 27.334,31 2.166,0 0,-25.999 -2.166,0 0,25.999 z"/><path id="path28" style="fill:#fad115;fill-opacity:1;fill-rule:nonzero;stroke:none" d="m 25.167,31 2.167,0 0,-25.999 -2.167,0 0,25.999 z"/></g><g id="g34"><path id="path30" style="fill:#996800;fill-opacity:1;fill-rule:nonzero;stroke:none" d="m 18.952,10.32 -1.417,0 0,14.85 1.417,0 0,-14.85 z"/><path id="path31" style="fill:#006633;fill-opacity:1;fill-rule:nonzero;stroke:none" d="m 13.6177,9.1201 h 9 c 0,0 -0.524,1.224 -4.071,1.224 -4.75,0 -4.929,-1.224 -4.929,-1.224"/><path id="path32" style="fill:#006633;fill-opacity:1;fill-rule:nonzero;stroke:none" d="m 18.6807,21.853 c 0,0 1.152,1.004 2.58,0.541 1.428,-0.463 1.804,-1.192 1.804,-1.192 0,0 -0.197,2.157 -1.851,2.463 -2.717,0.502 -2.533,-1.812 -2.533,-1.812"/><path id="path33" style="fill:#006633;fill-opacity:1;fill-rule:nonzero;stroke:none" d="m 14.7046,16.6689 c 0,0 0.112,1.524 1.452,2.2 1.34,0.676 2.12,0.423 2.12,0.423 0,0 -1.657,1.394 -3.048,0.447 -2.283,-1.556 -0.524,-3.07 -0.524,-3.07"/><path id="path34" style="fill:#006633;fill-opacity:1;fill-rule:nonzero;stroke:none" d="m 13.8389,19.3989 c 0,0 0.462,1.457 1.922,1.805 1.46,0.347 2.161,-0.08 2.161,-0.08 0,0 -1.289,1.74 -2.862,1.14 -2.581,-0.984 -1.221,-2.865 -1.221,-2.865"/><path id="path35" style="fill:#006633;fill-opacity:1;fill-rule:nonzero;stroke:none" d="m 18.5645,19.3281 c 0,0 1.364,0.47 2.634,-0.33 1.269,-0.8 1.552,-1.451 1.552,-1.451 0,0 0.235,2.128 -1.293,2.831 -2.51,1.156 -2.893,-1.05 -2.893,-1.05"/><path id="path36" style="fill:#006633;fill-opacity:1;fill-rule:nonzero;stroke:none" d="m 18.8174,24.2529 c 0,0 0.824,0.882 2.306,0.882 1.482,0 2.176,-0.929 2.176,-0.929 0,0 -0.128,1.882 -1.764,1.882 -1.447,0 -2.788,-0.941 -2.788,-0.941 z"/><path id="path37" style="fill:#006633;fill-opacity:1;fill-rule:nonzero;stroke:none" d="m 17.8286,23.4668 c 0,0 -0.771,0.675 -2.211,0.325 -1.44,-0.351 -2.836,-1.43 -2.836,-1.43 0,0 0.622,1.872 2.211,2.258 1.406,0.343 2.693,-0.267 2.693,-0.267 z"/><path id="path38" style="fill:#006633;fill-opacity:1;fill-rule:nonzero;stroke:none" d="m 17.8008,24.354 c 0,0 -0.348,0.88 -1.815,1.374 -1.405,0.472 -2.505,-0.494 -2.505,-0.494 0,0 0.347,2.235 2.475,1.531 1.41,-0.466 2.242,-1.606 2.242,-1.606 z"/></g><g id="g38"><path id="path40" style="fill:#bf0a30;fill-opacity:1;fill-rule:nonzero;stroke:none" d="m 0,22.333 h 12 v 0.82 H 0 Z"/><path id="path41" style="fill:#eeeeee;fill-opacity:1;fill-rule:nonzero;stroke:none" d="m 0,23.154 h 12 v 0.723 H 0 Z"/><path id="path42" style="fill:#bf0a30;fill-opacity:1;fill-rule:nonzero;stroke:none" d="M 0,23.876 H 12 V 24.73 H 0 Z"/><path id="path43" style="fill:#eeeeee;fill-opacity:1;fill-rule:nonzero;stroke:none" d="m 0,24.729 h 12 v 0.723 H 0 Z"/><path id="path44" style="fill:#bf0a30;fill-opacity:1;fill-rule:nonzero;stroke:none" d="m 0,25.452 h 12 v 0.854 H 0 Z"/><path id="path45" style="fill:#eeeeee;fill-opacity:1;fill-rule:nonzero;stroke:none" d="m 0,27.0278 v -0.028 -0.694 h 12 v 0.722 H 4 Z"/><path id="path46" style="fill:#bf0a30;fill-opacity:1;fill-rule:nonzero;stroke:none" d="m 4,27.028 h 8 v 0.854 H 4 Z"/><path id="path47" style="fill:#eeeeee;fill-opacity:1;fill-rule:nonzero;stroke:none" d="m 4,27.881 h 8 v 0.722 H 4 Z"/><path id="path48" style="fill:#bf0a30;fill-opacity:1;fill-rule:nonzero;stroke:none" d="m 4,28.604 h 8 v 0.854 H 4 Z"/><path id="path49" style="fill:#eeeeee;fill-opacity:1;fill-rule:nonzero;stroke:none" d="m 4,29.457 h 8 v 0.722 H 4 Z"/><path id="path50" style="fill:#bf0a30;fill-opacity:1;fill-rule:nonzero;stroke:none" d="m 4,30.179 h 8 V 31 H 4 Z"/><path id="path51" style="fill:#002868;fill-opacity:1;fill-rule:nonzero;stroke:none" d="m 2,28.4375 -0.693,-0.503 0.265,0.814 -0.693,0.503 H 1.735 L 2,30.0665 2.265,29.2515 h 0.856 l -0.693,-0.503 0.265,-0.814 z m 2,-0.556 v 0.722 0.854 0.722 0.821 H 0 v -3.973 h 4 z"/><path id="path52" style="fill:#ffffff;fill-opacity:1;fill-rule:nonzero;stroke:none" d="m 3.1206,29.2515 h -0.856 l -0.265,0.814 -0.264,-0.814 h -0.856 l 0.692,-0.503 -0.264,-0.814 0.692,0.503 0.693,-0.503 -0.264,0.814 z"/></g></g></g></g></svg>