<svg xmlns:dc="http://purl.org/dc/elements/1.1/" xmlns:cc="http://creativecommons.org/ns#" xmlns:rdf="http://www.w3.org/1999/02/22-rdf-syntax-ns#" xmlns:svg="http://www.w3.org/2000/svg" xmlns="http://www.w3.org/2000/svg" viewBox="0 0 45 45" style="enable-background:new 0 0 45 45;" xml:space="preserve" version="1.1" id="svg2"><metadata id="metadata8"><rdf:RDF><cc:Work rdf:about=""><dc:format>image/svg+xml</dc:format><dc:type rdf:resource="http://purl.org/dc/dcmitype/StillImage"/></cc:Work></rdf:RDF></metadata><defs id="defs6"><clipPath id="clipPath16" clipPathUnits="userSpaceOnUse"><path id="path18" d="M 4,31 C 1.791,31 0,29.209 0,27 L 0,27 0,9 C 0,6.791 1.791,5 4,5 l 0,0 28,0 c 2.209,0 4,1.791 4,4 l 0,0 0,18 c 0,2.209 -1.791,4 -4,4 l 0,0 -28,0 z"/></clipPath></defs><g transform="matrix(1.25,0,0,-1.25,0,45)" id="g10"><g id="g12"><g xmlns="http://www.w3.org/2000/svg" clip-path="url(#clipPath16)" id="g14"><g id="g20"><path id="path20" style="fill:#0068ac;fill-opacity:1;fill-rule:nonzero;stroke:none" d="M 0,5 H 36 V 31 H 0 Z"/></g><g id="g22"><path id="path30" style="fill:#eeeeee;fill-opacity:1;fill-rule:nonzero;stroke:none" d="M 28.125,18 C 28.125,23.592 23.592,28.125 18,28.125 12.408,28.125 7.875,23.592 7.875,18 7.875,12.408 12.408,7.875 18,7.875 c 5.592,0 10.125,4.533 10.125,10.125"/></g><g id="g24"><path id="path40" style="fill:#0068ac;fill-opacity:1;fill-rule:nonzero;stroke:none" d="m 13.873,10.672 h 8.255 v 0.781 h -8.255 z"/><path id="path41" style="fill:#0068ac;fill-opacity:1;fill-rule:nonzero;stroke:none" d="m 18,26.3071 -1.545,-1.545 v 0.54 h -0.899 v -0.832 h -0.754 v 0.832 h -0.929 v -3.122 l -2.367,-2.367 2.367,-2.367 v -5.805 h 8.255 v 5.805 l 2.366,2.367 -2.366,2.367 v 3.122 h -0.93 v -0.832 h -0.755 v 0.832 h -0.898 v -0.54 z"/><path id="path42" style="fill:#eeeeee;fill-opacity:1;fill-rule:nonzero;stroke:none" d="m 12.0713,19.813 5.929,-5.928 5.927,5.928 -5.927,5.929 z"/><path id="path43" style="fill:#0068ac;fill-opacity:1;fill-rule:nonzero;stroke:none" d="m 18.3379,15.6953 c -0.111,-0.01 -0.224,-0.014 -0.338,-0.014 -2.287,0 -4.141,1.854 -4.141,4.141 0,0.057 10e-4,0.114 0.003,0.17 0,0 0.472,-0.28 1.054,-0.28 0.582,0 1.019,0.15 1.019,0.15 0,0 -0.185,0.305 -0.185,0.62 0,0.606 0.468,0.934 1.006,0.934 0.546,0 0.856,-0.39 0.856,-0.684 0,-0.435 -0.391,-0.541 -0.391,-0.541 0,0 0.062,0.118 0.062,0.296 0,0.139 -0.094,0.342 -0.403,0.342 -0.33,0 -0.509,-0.212 -0.509,-0.53 0,-0.317 0.294,-0.75 0.823,-0.75 0.45,0 0.621,0.211 1.21,0.211 0.834,0 1.288,-0.507 1.288,-1.025 0,-0.518 -0.312,-0.843 -0.312,-0.843 0,0 0.073,0.522 -0.292,0.928 -0.343,0.382 -1.08,0.251 -1.08,-0.381 0,-0.665 0.785,-1.309 0.785,-1.309 0,0 -0.462,0.024 -0.707,0.024 -0.195,0 -0.319,-0.041 -0.391,-0.102 -0.134,-0.112 -0.104,-0.29 -0.104,-0.29 h 1.862 c 0,0 -0.427,-0.515 -1.247,-0.515 -0.78,0 -2.267,0.735 -2.267,1.681 0,0.459 0.251,0.721 0.568,0.721 0.25,0 0.408,-0.21 0.408,-0.399 0,-0.25 -0.197,-0.432 -0.197,-0.432 0,0 0.594,0.138 0.594,0.805 0,0.414 -0.349,0.815 -0.915,0.815 -0.485,0 -1.097,-0.444 -1.097,-1.344 0,-0.9 0.663,-1.51 1.225,-1.858 0.94,-0.583 1.813,-0.541 1.813,-0.541"/><path id="path44" style="fill:#0068ac;fill-opacity:1;fill-rule:nonzero;stroke:none" d="m 13.8936,20.3594 c 0,0 0.847,-0.11 1.227,0.42 0.448,0.624 0.179,1.317 0.768,2.101 0.297,0.396 0.511,0.538 0.668,0.674 0.15,0.13 0.254,0.193 0.254,0.193 0,0 0.003,0.016 0.008,0.028 0.005,0.011 0.011,0.021 0.011,0.021 -1.551,-0.457 -2.724,-1.796 -2.936,-3.437"/><path id="path45" style="fill:#0068ac;fill-opacity:1;fill-rule:nonzero;stroke:none" d="m 17.2607,23.8979 c 0,0 0.002,-0.006 0.008,-0.017 0.006,-0.011 0.006,-0.026 0.006,-0.026 0,0 0.147,0.022 0.319,-0.057 0.172,-0.078 0.234,-0.117 0.352,-0.237 0.117,-0.121 0.215,-0.195 0.25,-0.256 0.034,-0.061 0.037,-0.111 -0.015,-0.167 -0.051,-0.057 -0.14,-0.146 -0.228,-0.146 -0.087,0 -0.117,0.05 -0.186,0.117 -0.069,0.068 -0.152,0.085 -0.234,0.025 -0.081,-0.059 -0.092,-0.162 0.066,-0.233 0.158,-0.07 0.202,-0.076 0.202,-0.117 0,-0.04 -0.065,-0.15 -0.162,-0.15 -0.097,0 -0.142,0.156 -0.35,0.156 -0.208,0 -0.294,-0.245 -0.294,-0.42 0,-0.127 0.049,-0.479 0.564,-0.761 0.207,-0.114 0.515,-0.205 0.897,-0.303 1.427,-0.367 1.921,-0.941 2.109,-1.488 0.188,-0.547 0.077,-1.459 0.077,-1.459 0,0 0.429,0.816 0.765,0.816 0.349,0 0.241,-0.652 -0.218,-1.54 -0.604,-1.167 -1.473,-1.582 -1.473,-1.582 1.431,0.652 2.426,2.095 2.426,3.769 0,2.287 -1.855,4.142 -4.142,4.142 -0.252,0 -0.499,-0.023 -0.739,-0.066"/><path id="path46" style="fill:#0068ac;fill-opacity:1;fill-rule:nonzero;stroke:none" d="m 18.2666,20.5537 c 0,-0.082 -0.095,-0.148 -0.212,-0.148 -0.117,0 -0.211,0.066 -0.211,0.148 0,0.082 0.094,0.148 0.211,0.148 0.117,0 0.212,-0.066 0.212,-0.148"/><path id="path47" style="fill:#0068ac;fill-opacity:1;fill-rule:nonzero;stroke:none" d="m 18.9941,20.3057 c 0,-0.077 -0.085,-0.139 -0.19,-0.139 -0.105,0 -0.191,0.062 -0.191,0.139 0,0.077 0.086,0.14 0.191,0.14 0.105,0 0.19,-0.063 0.19,-0.14"/><path id="path48" style="fill:#0068ac;fill-opacity:1;fill-rule:nonzero;stroke:none" d="m 19.0762,20.7949 c 0,-0.115 -0.168,-0.208 -0.375,-0.208 -0.208,0 -0.375,0.093 -0.375,0.208 0,0.116 0.167,0.209 0.375,0.209 0.207,0 0.375,-0.093 0.375,-0.209"/></g></g></g></g></svg>