<svg xmlns:dc="http://purl.org/dc/elements/1.1/" xmlns:cc="http://creativecommons.org/ns#" xmlns:rdf="http://www.w3.org/1999/02/22-rdf-syntax-ns#" xmlns:svg="http://www.w3.org/2000/svg" xmlns="http://www.w3.org/2000/svg" viewBox="0 0 45 45" style="enable-background:new 0 0 45 45;" xml:space="preserve" version="1.1" id="svg2"><metadata id="metadata8"><rdf:RDF><cc:Work rdf:about=""><dc:format>image/svg+xml</dc:format><dc:type rdf:resource="http://purl.org/dc/dcmitype/StillImage"/></cc:Work></rdf:RDF></metadata><defs id="defs6"><clipPath id="clipPath16" clipPathUnits="userSpaceOnUse"><path id="path18" d="M 0,36 36,36 36,0 0,0 0,36 Z"/></clipPath></defs><g transform="matrix(1.25,0,0,-1.25,0,45)" id="g10"><g id="g12"><g xmlns="http://www.w3.org/2000/svg" clip-path="url(#clipPath16)" id="g14"><g id="g30"><path id="path20" style="fill:#009b3a;fill-opacity:1;fill-rule:nonzero;stroke:none" d="M 4,31 C 1.791,31 0,29.209 0,27 V 9 C 0,6.791 1.791,5 4,5 h 28 c 2.209,0 4,1.791 4,4 v 18 c 0,2.209 -1.791,4 -4,4 z"/></g><g id="g32"><path id="path30" style="fill:#fedf00;fill-opacity:1;fill-rule:nonzero;stroke:none" d="M 18,8.1572 33.414,18.0002 18,27.8442 2.586,18.0002 Z"/></g><g id="g34"><path id="path40" style="fill:#eeeeee;fill-opacity:1;fill-rule:nonzero;stroke:none" d="m 24.4902,18 c 0,3.584 -2.906,6.49 -6.49,6.49 -3.585,0 -6.49,-2.906 -6.49,-6.49 0,-3.584 2.905,-6.49 6.49,-6.49 3.584,0 6.49,2.906 6.49,6.49"/></g><g id="g36"><path id="path50" style="fill:#3f4446;fill-opacity:1;fill-rule:nonzero;stroke:none" d="m 21.3184,18.8486 c 0,0.705 0.748,1.117 0.755,1.121 l 0.042,0.022 -1.19,1.533 -0.008,0.012 -0.015,0.003 c -0.013,0.003 -1.287,0.266 -2.902,0.266 -1.615,0 -2.89,-0.263 -2.903,-0.266 l -0.014,-0.003 -1.199,-1.545 0.042,-0.022 c 0.008,-0.004 0.755,-0.415 0.755,-1.121 0,-0.367 -0.17,-0.774 -0.35,-1.206 -0.211,-0.505 -0.429,-1.026 -0.429,-1.579 0,-1.051 1.054,-1.62 2.073,-2.173 l 0.153,-0.081 c 0.101,-0.056 0.203,-0.109 0.305,-0.164 0.385,-0.202 0.748,-0.395 1.067,-0.639 0.356,-0.273 0.462,-0.507 0.463,-0.509 l 0.037,-0.083 0.036,0.083 c 0.001,0.002 0.107,0.236 0.464,0.509 0.319,0.244 0.683,0.438 1.069,0.641 0.101,0.053 0.202,0.106 0.304,0.162 l 0.152,0.083 c 1.019,0.551 2.072,1.12 2.072,2.171 0,0.553 -0.217,1.074 -0.428,1.579 -0.181,0.432 -0.351,0.839 -0.351,1.206"/><path id="path51" style="fill:#eeeeee;fill-opacity:1;fill-rule:nonzero;stroke:none" d="m 19.9873,13.9629 -0.153,-0.084 c -0.101,-0.054 -0.201,-0.108 -0.303,-0.16 -0.371,-0.196 -0.755,-0.4 -1.08,-0.65 -0.262,-0.2 -0.394,-0.38 -0.451,-0.472 -0.057,0.092 -0.19,0.272 -0.451,0.472 -0.325,0.25 -0.708,0.452 -1.079,0.648 -0.101,0.054 -0.203,0.108 -0.304,0.162 l -0.153,0.084 c -1.044,0.563 -2.031,1.098 -2.031,2.101 0,0.537 0.215,1.05 0.423,1.548 0.183,0.439 0.356,0.853 0.356,1.237 0,0.663 -0.592,1.068 -0.756,1.167 l 1.123,1.448 c 0.145,0.029 1.358,0.261 2.872,0.261 1.514,0 2.727,-0.232 2.872,-0.261 l 1.123,-1.448 c -0.164,-0.099 -0.757,-0.504 -0.757,-1.167 0,-0.384 0.173,-0.798 0.356,-1.237 0.208,-0.498 0.423,-1.011 0.423,-1.548 0,-1.003 -0.986,-1.536 -2.03,-2.101"/><path id="path52" style="fill:#3f4446;fill-opacity:1;fill-rule:nonzero;stroke:none" d="m 21.334,17.582 c -0.182,0.45 -0.353,0.875 -0.353,1.275 0,0.712 0.618,1.18 0.624,1.184 l 0.033,0.025 -0.901,1.14 -0.008,0.011 -0.014,0.003 c -0.011,0.002 -1.088,0.236 -2.715,0.236 -1.626,0 -2.704,-0.234 -2.715,-0.236 l -0.013,-0.003 -0.909,-1.151 0.033,-0.025 c 0.006,-0.004 0.623,-0.472 0.623,-1.184 0,-0.4 -0.172,-0.825 -0.353,-1.275 -0.204,-0.505 -0.414,-1.027 -0.414,-1.581 0,-0.832 1.29,-1.504 2.231,-1.997 0.085,-0.043 0.167,-0.086 0.246,-0.128 0.932,-0.492 1.239,-0.807 1.242,-0.81 L 18,13.037 l 0.029,0.029 c 0.003,0.003 0.31,0.318 1.242,0.81 0.08,0.042 0.162,0.085 0.247,0.13 0.941,0.491 2.23,1.165 2.23,1.995 0,0.554 -0.211,1.076 -0.414,1.581"/><path id="path53" style="fill:#00923e;fill-opacity:1;fill-rule:nonzero;stroke:none" d="m 19.4805,14.0771 c -0.085,-0.045 -0.168,-0.088 -0.246,-0.13 -0.798,-0.421 -1.139,-0.709 -1.234,-0.797 -0.096,0.088 -0.437,0.376 -1.235,0.797 -0.078,0.042 -0.16,0.085 -0.245,0.128 -0.923,0.482 -2.188,1.144 -2.188,1.926 0,0.537 0.207,1.054 0.408,1.551 0.184,0.457 0.358,0.889 0.358,1.305 0,0.664 -0.49,1.113 -0.623,1.222 l 0.481,0.609 1.178,-1.175 c -0.29,-0.484 -0.457,-1.1 -0.457,-1.794 0,-1.709 0.955,-2.903 2.323,-2.903 0.771,0 1.411,0.38 1.822,1.018 l 0.99,-0.987 c -0.412,-0.291 -0.908,-0.549 -1.332,-0.77"/><path id="path54" style="fill:#00923e;fill-opacity:1;fill-rule:nonzero;stroke:none" d="m 20.8779,14.8945 -1.012,1.01 c 0.291,0.483 0.456,1.104 0.456,1.815 0,1.681 -0.976,2.902 -2.322,2.902 -0.763,0 -1.407,-0.393 -1.822,-1.039 l -1.172,1.168 0.31,0.394 c 0.131,0.027 1.166,0.231 2.684,0.231 1.519,0 2.554,-0.204 2.684,-0.231 l 0.84,-1.065 c -0.132,-0.109 -0.623,-0.558 -0.623,-1.222 0,-0.416 0.174,-0.848 0.359,-1.306 0.201,-0.497 0.408,-1.013 0.408,-1.551 0,-0.404 -0.337,-0.775 -0.79,-1.106"/><path id="path55" style="fill:#42929d;fill-opacity:1;fill-rule:nonzero;stroke:none" d="m 15.7578,17.6792 h 4.484 c -0.005,-0.669 -0.163,-1.256 -0.434,-1.716 l -0.044,-0.071 c -0.397,-0.624 -1.017,-0.995 -1.764,-0.995 -1.309,0 -2.227,1.142 -2.242,2.782"/><path id="path56" style="fill:#7fcfd6;fill-opacity:1;fill-rule:nonzero;stroke:none" d="m 20.2422,17.7593 h -4.484 c 0.006,0.654 0.164,1.235 0.435,1.695 0.014,0.023 0.028,0.047 0.043,0.07 0.401,0.632 1.025,1.017 1.764,1.017 1.288,0 2.226,-1.167 2.242,-2.782"/></g></g></g></g></svg>