<svg xmlns:dc="http://purl.org/dc/elements/1.1/" xmlns:cc="http://creativecommons.org/ns#" xmlns:rdf="http://www.w3.org/1999/02/22-rdf-syntax-ns#" xmlns:svg="http://www.w3.org/2000/svg" xmlns="http://www.w3.org/2000/svg" viewBox="0 0 45 45" style="enable-background:new 0 0 45 45;" xml:space="preserve" version="1.1" id="svg2"><metadata id="metadata8"><rdf:RDF><cc:Work rdf:about=""><dc:format>image/svg+xml</dc:format><dc:type rdf:resource="http://purl.org/dc/dcmitype/StillImage"/></cc:Work></rdf:RDF></metadata><defs id="defs6"><clipPath id="clipPath16" clipPathUnits="userSpaceOnUse"><path id="path18" d="M 0,36 36,36 36,0 0,0 0,36 Z"/></clipPath></defs><g transform="matrix(1.25,0,0,-1.25,0,45)" id="g10"><g id="g12"><g xmlns="http://www.w3.org/2000/svg" clip-path="url(#clipPath16)" id="g14"><g id="g30"><path id="path20" style="fill:#db0913;fill-opacity:1;fill-rule:nonzero;stroke:none" d="M 0,18 0,9 C 0,6.791 1.791,5 4,5 l 28,0 c 2.209,0 4,1.791 4,4 l 0,9 -36,0 z"/><path id="path21" style="fill:#eeeeee;fill-opacity:1;fill-rule:nonzero;stroke:none" d="m 36,18 0,9 c 0,2.209 -1.791,4 -4,4 L 4,31 C 1.791,31 0,29.209 0,27 l 0,-9 36,0 z"/></g><g id="g34"><path id="path30" style="fill:#ee151f;fill-opacity:1;fill-rule:nonzero;stroke:none" d="m 14.5059,15.9014 0,-0.756 c 0,0 -0.096,-1.638 0.971,-2.751 0.509,-0.533 1.333,-1.083 2.523,-1.083 1.191,0 2.014,0.55 2.524,1.083 1.066,1.113 0.97,2.751 0.97,2.751 l 0,0.756 -6.988,0 z"/><path id="path31" style="fill:#0072bd;fill-opacity:1;fill-rule:nonzero;stroke:none" d="m 21.494,19.728 -6.988,0 0,-3.826 6.988,0 0,3.826 z"/><path id="path32" style="fill:#ee151f;fill-opacity:1;fill-rule:nonzero;stroke:none" d="m 20.6172,19.7275 c 0,0 -0.576,0.327 -2.617,0.327 -2.041,0 -2.618,-0.327 -2.618,-0.327 l 5.235,0 z"/><path id="path33" style="fill:#ebc200;fill-opacity:1;fill-rule:nonzero;stroke:none" d="m 20.6172,19.7275 0.188,0.808 0.111,0.204 c 0,0 0.274,0.176 0.442,0.431 0.169,0.255 0.103,0.537 0.243,0.761 0.089,0.139 0.251,0.141 0.251,0.141 0,0 -0.072,0.064 -0.092,0.068 -0.075,0.016 -0.157,-0.016 -0.157,-0.016 0,0 0.188,0.316 -0.586,0.746 -0.476,0.265 -1.4,0.357 -1.97,0.535 -0.784,0.246 -1.047,0.471 -1.047,0.471 0,0 -0.264,-0.225 -1.047,-0.471 -0.571,-0.178 -1.494,-0.27 -1.971,-0.535 -0.774,-0.43 -0.585,-0.746 -0.585,-0.746 0,0 -0.083,0.032 -0.156,0.016 -0.021,-0.004 -0.094,-0.068 -0.094,-0.068 0,0 0.163,-0.002 0.251,-0.141 0.141,-0.224 0.074,-0.506 0.243,-0.761 0.168,-0.255 0.443,-0.431 0.443,-0.431 l 0.11,-0.204 0.188,-0.808 c 0,0 0.577,0.327 2.618,0.327 2.041,0 2.617,-0.327 2.617,-0.327"/><path id="path34" style="fill:#0072bd;fill-opacity:1;fill-rule:nonzero;stroke:none" d="m 18.2969,23.9688 c 0,0.164 -0.133,0.297 -0.297,0.297 -0.164,0 -0.297,-0.133 -0.297,-0.297 0,-0.164 0.133,-0.297 0.297,-0.297 0.164,0 0.297,0.133 0.297,0.297"/><path id="path35" style="fill:#ebc200;fill-opacity:1;fill-rule:nonzero;stroke:none" d="m 17.9453,24.2603 0,0.03 0.013,0 0,0.225 -0.107,0 0,0.074 0.111,0 0,0.119 0.075,0 0,-0.119 0.111,0 0,-0.074 -0.106,0 0,-0.225 0.012,0 0,-0.03 -0.109,0 z"/></g></g></g></g></svg>