<svg xmlns:dc="http://purl.org/dc/elements/1.1/" xmlns:cc="http://creativecommons.org/ns#" xmlns:rdf="http://www.w3.org/1999/02/22-rdf-syntax-ns#" xmlns:svg="http://www.w3.org/2000/svg" xmlns="http://www.w3.org/2000/svg" viewBox="0 0 45 45" style="enable-background:new 0 0 45 45;" xml:space="preserve" version="1.1" id="svg2"><metadata id="metadata8"><rdf:RDF><cc:Work rdf:about=""><dc:format>image/svg+xml</dc:format><dc:type rdf:resource="http://purl.org/dc/dcmitype/StillImage"/></cc:Work></rdf:RDF></metadata><defs id="defs6"><clipPath id="clipPath16" clipPathUnits="userSpaceOnUse"><path id="path18" d="M 4,31 C 1.791,31 0,29.209 0,27 L 0,27 0,9 C 0,6.791 1.791,5 4,5 l 0,0 28,0 c 2.209,0 4,1.791 4,4 l 0,0 0,18 c 0,2.209 -1.791,4 -4,4 l 0,0 -28,0 z"/></clipPath></defs><g transform="matrix(1.25,0,0,-1.25,0,45)" id="g10"><g id="g12"><g clip-path="url(#clipPath16)" id="g14"><path id="path20" style="fill:#fe0c24;fill-opacity:1;fill-rule:nonzero;stroke:none" d="M 0,5 36,5 36,31 0,31 0,5 Z"/></g></g><g xmlns="http://www.w3.org/2000/svg" transform="translate(-5.3,-4.5)" id="g22"><path xmlns="http://www.w3.org/2000/svg" id="path22" style="fill:#faf700;fill-opacity:1;fill-rule:nonzero;stroke:none" d="m 15.8469,20.4043 c 0,0 0.049,0.186 0.374,0.224 0.436,0.051 0.324,0.231 0.554,0.231 0.116,0 0.254,-0.048 0.404,-0.119 0.201,-0.097 0.39,-0.12 0.421,0.054 0.019,0.102 -0.33,0.412 -0.322,0.589 0.007,0.161 0.5,0.353 0.5,0.642 0,0.067 -0.021,0.114 -0.057,0.165 -0.049,0.07 -0.127,0.065 -0.238,0.031 -0.122,-0.035 -0.137,-0.031 -0.137,-0.031 0,0 0.16,0.186 0.304,0.186 0.095,0 0.181,-0.07 0.283,-0.148 0.122,-0.094 0.237,-0.142 0.281,-0.312 0.033,-0.129 0.014,-0.302 -0.073,-0.461 -0.123,-0.223 -0.172,-0.371 -0.124,-0.406 0.093,-0.07 0.272,0.682 0.499,0.971 0.227,0.289 0.361,0.17 0.539,0.341 0.178,0.17 0.139,0.512 0.139,0.512 0,0 0.125,-0.123 0.125,-0.428 0,-0.334 0.16,-0.447 -0.055,-0.792 -0.222,-0.356 -0.726,-0.769 -0.726,-1.171 0,-0.207 0.163,-0.283 0.384,-0.412 0.218,-0.127 0.493,-0.269 0.766,-0.417 0.551,-0.301 0.749,-0.508 0.749,-0.508 0,0 0.012,0.084 0.012,0.192 0,0.496 -0.31,1.404 -0.31,1.974 0,0.438 0.084,0.975 0.634,0.975 0.39,0 0.661,-0.126 0.803,-0.296 0.146,-0.175 0.245,-0.37 0.245,-0.37 0,0 0.045,0.065 0.045,0.239 0,0.144 -0.042,0.357 -0.042,0.587 0,0.455 -0.137,1 -0.314,1.365 -0.184,0.375 -0.422,0.622 -0.422,0.622 0,0 -0.231,0.084 0.006,-0.275 0.081,-0.121 0.171,-0.347 -0.129,-0.411 -0.24,-0.051 -1.021,-0.056 -1.684,-0.087 -0.976,-0.044 -1.883,-0.088 -1.967,-0.138 -0.067,-0.041 -0.093,-0.193 -0.105,-0.431 -0.01,-0.24 -0.091,-0.515 -0.263,-0.851 -0.172,-0.336 -0.366,-0.373 -0.516,-0.373 -0.15,0 -0.189,0.026 -0.189,0.026 0,0 0.122,0.046 0.186,0.129 0.077,0.099 0.042,0.186 0.169,0.379 0.091,0.14 0.227,0.237 0.328,0.335 0.096,0.093 0.104,0.161 0.104,0.29 0,0.329 -0.272,0.968 -0.454,1.226 -0.096,0.135 -0.295,0.292 -0.357,0.429 -0.053,0.118 0.006,0.162 -0.02,0.324 -0.039,0.236 -0.258,0.287 -0.428,0.287 -0.171,0 -0.267,-0.025 -0.267,-0.025 0,0 0.29,0.178 0.445,0.178 0.088,0 0.235,-0.1 0.321,-0.189 0.088,-0.092 0.19,-0.26 0.268,-0.469 0.155,-0.414 0.219,-0.403 0.263,-0.54 0.073,-0.231 0.059,-0.333 0.112,-0.438 0.053,-0.105 0.102,-0.093 0.102,-0.093 0,0 -0.003,0.128 -0.013,0.299 -0.007,0.121 -0.02,0.267 -0.02,0.389 0,0.296 0.039,0.329 0.039,0.429 0,0.187 -0.12,0.275 -0.22,0.381 -0.1,0.106 -0.088,0.179 -0.088,0.179 0,0 0.149,0.127 0.149,0.274 0,0.147 -0.16,0.203 -0.16,0.203 0,0 0.023,0.041 0.125,0.041 0.136,0 0.322,-0.302 0.345,-0.75 0.009,-0.168 -0.007,-0.272 -0.009,-0.416 -0.002,-0.169 0.005,-0.264 0.005,-0.33 0,-0.178 -0.063,-0.306 -0.063,-0.484 0,-0.178 0.074,-0.159 0.074,-0.159 0,0 0.091,0.125 0.181,0.358 0.115,0.3 0.136,0.54 0.303,0.828 0.099,0.17 0.08,0.329 0.019,0.476 -0.061,0.147 -0.069,0.209 -0.069,0.209 0,0 0.114,0.091 0.114,0.246 0,0.19 -0.107,0.437 -0.107,0.437 0,0 0.445,-0.083 0.445,-0.583 0,-0.509 -0.349,-1.035 -0.507,-1.462 -0.087,-0.237 -0.084,-0.462 -0.084,-0.462 0,0 0.389,0.016 0.587,0.046 0.109,0.017 0.775,0.132 1.359,0.233 0.184,0.032 0.421,0.035 0.568,0.061 0.242,0.042 0.347,0.099 0.347,0.099 0,0 -0.325,0.2 -0.619,0.702 -0.22,0.377 -0.66,1.036 -1.039,1.53 -0.294,0.385 -0.45,0.493 -0.552,0.636 -0.204,0.289 -0.223,0.608 -0.382,0.608 -0.295,0 -0.829,-0.948 -1.403,-0.948 -0.238,0 -0.338,0.165 -0.338,0.165 0,0 0.045,0.027 0.173,0.015 0.128,-0.013 0.212,0.017 0.239,0.105 0.037,0.115 0.118,0.2 0.338,0.227 0.192,0.023 0.266,0.063 0.495,0.256 0.129,0.109 0.314,0.246 0.488,0.483 0.415,0.568 0.55,0.835 0.55,1.169 0,0.334 -0.352,0.453 -0.417,0.589 -0.057,0.117 0.012,0.169 -0.067,0.399 -0.059,0.168 -0.154,0.289 -0.154,0.289 0,0 0.07,0.039 0.149,0.039 0.189,0 0.291,-0.176 0.395,-0.394 0.055,-0.115 0.119,-0.241 0.15,-0.36 0.054,-0.205 0.053,-0.378 0.05,-0.464 -0.011,-0.312 0.016,-0.548 0.016,-0.548 0,0 0.167,0.157 0.32,0.45 0.121,0.23 0.133,0.512 0.011,0.706 -0.157,0.25 -0.223,0.414 -0.111,0.532 0.113,0.117 0.036,0.162 -0.036,0.25 -0.072,0.087 -0.054,0.145 -0.054,0.145 0,0 0.304,0 0.399,-0.447 0.064,-0.299 0.017,-0.839 -0.053,-1.044 -0.085,-0.249 -0.106,-0.322 -0.106,-0.322 0,0 0.572,0.567 0.706,0.914 0.074,0.189 0.068,0.264 -0.028,0.435 -0.126,0.225 -0.006,0.292 0.125,0.346 0.131,0.055 0.113,0.185 0,0.343 -0.112,0.157 -0.043,0.274 -0.043,0.274 0,0 0.43,-0.218 0.336,-0.856 -0.149,-1.009 -1.197,-1.873 -1.421,-2.085 -0.224,-0.212 -0.394,-0.303 -0.394,-0.486 0,-0.182 0.253,-0.541 0.647,-1.067 0.394,-0.526 1.094,-1.233 1.094,-1.233 0,0 0.28,0.786 0.677,1.461 0.381,0.649 0.974,0.935 1.597,1.034 0.818,0.129 1.422,0.994 1.422,1.431 0,0.325 -0.237,0.394 -0.465,0.457 -0.112,0.03 -0.202,0.057 -0.3,0.082 -0.298,0.077 -0.465,0.071 -0.579,0.028 -0.115,-0.042 -0.255,-0.22 -0.255,-0.22 0,0 -0.036,0.077 -0.036,0.173 0,0.249 0.378,0.841 1.287,0.958 0.324,0.042 0.763,0.069 0.955,0.069 0.127,0 0.369,-0.078 0.526,-0.078 0.159,0 0.221,0.087 0.221,0.087 0,0 0.535,-0.063 1.083,-0.061 0.726,0.003 1.032,0.003 1.032,-0.079 0,-0.074 -0.596,-0.365 -1.076,-0.365 -0.347,0 -0.333,0.065 -0.574,0.065 -0.135,0 -0.241,-0.015 -0.241,-0.118 0,-0.079 0.146,-0.236 0.234,-0.357 0.093,-0.129 0.133,-0.233 0.133,-0.491 0,-1.225 -0.831,-2.539 -0.831,-2.539 0,0 1.335,-0.007 2.781,0.446 0.312,0.097 0.969,0.393 1.285,0.584 0.589,0.353 0.87,0.561 1.08,0.934 0.368,0.655 0.12,1.246 0.12,1.246 0,0 0.268,0.004 0.502,-0.185 0.235,-0.189 0.297,-0.376 0.297,-0.376 0,0 -0.023,-0.07 -0.061,-0.127 -0.046,-0.071 -0.107,-0.137 -0.144,-0.211 -0.067,-0.134 0.005,-0.131 0.161,-0.086 0.157,0.046 0.224,0.085 0.224,0.085 0,0 0.263,-0.138 0.248,-0.597 -0.004,-0.148 -0.038,-0.255 -0.1,-0.336 -0.071,-0.093 -0.22,-0.155 -0.33,-0.196 -0.262,-0.097 -0.381,-0.19 -0.381,-0.221 0,-0.032 0.05,-0.058 0.206,-0.058 0.157,0 0.355,0.042 0.355,0.042 0,0 -0.058,-0.131 -0.276,-0.422 -0.219,-0.29 -0.454,-0.444 -0.702,-0.444 -0.249,0 -0.488,0.074 -0.598,0.074 -0.112,0 -0.2,-0.079 -0.2,-0.113 0,-0.065 0.205,-0.056 0.353,-0.094 0.149,-0.037 0.204,-0.126 0.204,-0.126 0,0 -0.128,-0.158 -0.459,-0.337 -0.331,-0.18 -0.647,-0.262 -0.647,-0.262 0,0 -0.082,0.09 -0.196,0.198 -0.183,0.174 -0.297,0.157 -0.352,-0.004 -0.053,-0.157 -0.058,-0.393 -0.058,-0.393 0,0 -0.201,-0.092 -0.492,-0.129 -0.345,-0.043 -0.613,-0.061 -0.613,-0.061 0,0 -0.137,0.227 -0.254,0.188 -0.142,-0.047 -0.117,-0.248 -0.117,-0.248 0,0 -0.265,-0.091 -0.52,-0.091 -0.254,0 -0.347,0.037 -0.347,0.037 0,0 -0.01,0.224 -0.141,0.224 -0.116,0 -0.14,-0.227 -0.14,-0.227 0,0 -0.098,-0.087 -0.387,-0.12 -0.29,-0.033 -0.622,-0.021 -0.622,-0.021 0,0 1.115,-0.333 2.673,-0.333 0.84,0 1.489,0.131 1.962,0.359 1.056,0.509 1.186,0.797 1.369,1.207 0.136,0.302 0.203,0.385 0.203,0.385 0,0 0.325,-0.243 0.325,-0.746 0,-0.156 -0.038,-0.267 -0.204,-0.315 -0.294,-0.087 -0.293,-0.16 -0.293,-0.16 0,0 0.102,0.003 0.183,-0.035 0.07,-0.032 0.118,-0.091 0.118,-0.229 0,-0.207 -0.07,-0.461 -0.348,-0.515 -0.279,-0.055 -0.515,-0.108 -0.515,-0.149 0,-0.051 0.411,-0.026 0.411,-0.151 0,-0.047 -0.067,-0.119 -0.211,-0.269 -0.143,-0.15 -0.372,-0.383 -0.549,-0.383 -0.178,0 -0.219,0.042 -0.38,0.042 -0.162,0 -0.146,-0.112 -0.146,-0.112 0,0 0.121,-0.07 0.121,-0.153 0,-0.164 -0.41,-0.202 -0.605,-0.275 -0.147,-0.056 -0.274,-0.11 -0.435,-0.11 -0.151,0 -0.195,0.126 -0.222,0.174 -0.042,0.072 -0.151,0.101 -0.22,0.039 -0.105,-0.095 -0.046,-0.237 -0.046,-0.237 0,0 -0.415,-0.025 -0.747,-0.035 -0.332,-0.01 -0.365,0 -0.365,0 0,0 -0.201,0.355 -0.305,0.355 -0.078,0 -0.074,-0.233 -0.074,-0.233 0,0 -0.056,-0.035 -0.157,-0.025 -0.189,0.018 -0.412,0.083 -0.593,0.1 -0.148,0.014 -0.243,0.362 -0.324,0.362 -0.057,0 -0.12,-0.17 -0.12,-0.17 0,0 -0.205,-0.053 -0.464,0.025 -0.259,0.078 -0.484,0.042 -0.484,0.042 0,0 -0.097,-1.528 0.952,-2.725 0.258,-0.294 0.658,-0.392 0.963,-0.396 0.535,-0.005 0.859,0.247 1.9,1.215 0.768,0.715 1.408,0.927 1.95,0.927 1.264,0 1.404,-0.623 1.404,-1.174 0,-0.682 -0.504,-1.45 -0.972,-1.91 -0.149,-0.146 -0.25,-0.331 -0.305,-0.701 -0.063,-0.411 -0.101,-0.695 -0.338,-0.92 -0.217,-0.206 -0.481,-0.362 -0.757,-0.855 -0.357,-0.636 -0.647,-1.081 -0.647,-1.081 0,0 -0.209,0.864 0.371,2 0.178,0.35 0.436,0.744 0.753,1.076 0.268,0.28 0.567,0.505 0.828,0.764 0.433,0.431 0.772,0.925 0.772,1.423 0,0.492 -0.151,1.002 -0.724,1.135 -0.667,0.156 -1.479,-0.285 -2.151,-0.88 -0.51,-0.451 -1.051,-1.267 -1.984,-1.267 -0.317,0 -0.557,0.079 -0.802,0.24 -0.239,0.157 -0.445,0.278 -0.481,0.25 -0.022,-0.019 0.25,-0.382 0.667,-0.795 0.563,-0.558 1.334,-1.253 1.592,-1.526 0.45,-0.474 0.692,-0.851 0.692,-0.851 0,0 -0.286,-0.709 -0.661,-1.533 -0.275,-0.602 -0.667,-1.291 -0.96,-1.785 -0.263,-0.444 -0.431,-0.725 -0.59,-0.725 -0.214,0 -0.249,0.235 -0.49,0.235 -0.118,0 -0.316,-0.059 -0.559,-0.325 -0.243,-0.267 -0.581,-0.331 -0.781,-0.331 -0.2,0 -0.431,0.052 -0.586,0.236 -0.153,0.185 -0.169,0.238 -0.261,0.238 -0.045,0 -0.096,-0.016 -0.209,-0.102 -0.114,-0.086 -0.199,-0.092 -0.199,-0.092 0,0 -0.035,0.151 0.055,0.247 0.127,0.136 0.332,0.164 0.52,0.214 0.216,0.057 0.239,0.119 0.378,0.119 0.147,0 0.255,-0.051 0.375,-0.051 0.12,0 0.127,0.032 0.127,0.032 0,0 -0.056,0.042 -0.164,0.078 -0.123,0.041 -0.267,0.061 -0.396,0.124 -0.172,0.083 -0.202,0.272 -0.159,0.443 0.043,0.17 0.086,0.321 -0.063,0.425 -0.149,0.104 -0.345,0.106 -0.345,0.106 0,0 0.076,0.084 0.174,0.084 0.132,0 0.6,-0.237 0.791,-0.307 0.19,-0.071 0.274,-0.22 0.402,-0.379 0.127,-0.158 0.215,-0.133 0.215,-0.133 0,0 -0.132,0.248 -0.269,0.445 -0.12,0.173 -0.246,0.29 -0.246,0.388 0,0.192 0.302,0.29 0.302,0.506 0,0.11 -0.083,0.212 -0.216,0.247 -0.114,0.03 -0.296,0.036 -0.296,0.036 0,0 0.057,0.057 0.217,0.057 0.146,0 0.299,-0.083 0.428,-0.175 0.134,-0.095 0.243,-0.149 0.296,-0.317 0.112,-0.358 -0.031,-0.916 0.284,-0.916 0.159,0 0.404,0.166 0.586,0.455 0.135,0.214 0.237,0.501 0.308,0.801 0.056,0.234 0.13,0.48 0.13,0.691 0,0.43 -0.121,0.603 -0.306,0.795 -0.131,0.135 -0.307,0.307 -0.471,0.453 -0.447,0.397 -1,0.829 -1.548,1.136 -0.689,0.384 -1.032,0.794 -1.032,0.794 0,0 -0.092,-0.378 -0.269,-0.798 -0.176,-0.42 -0.623,-1.236 -0.713,-1.432 -0.091,-0.195 -0.35,-0.278 -0.632,-0.086 -0.121,0.083 -0.636,0.369 -1.145,0.624 -0.676,0.337 -1.383,0.653 -1.549,0.717 -0.22,0.086 -0.358,0.075 -0.435,0.205 -0.04,0.067 0.01,0.118 0.027,0.212 0.013,0.068 0.003,0.196 -0.051,0.25 -0.297,0.299 -0.436,-0.166 -0.808,-0.066 -0.235,0.062 -0.094,0.329 -0.439,0.431 -0.219,0.065 -0.447,0.008 -0.447,0.008"/></g></g></svg>