<svg xmlns:dc="http://purl.org/dc/elements/1.1/" xmlns:cc="http://creativecommons.org/ns#" xmlns:rdf="http://www.w3.org/1999/02/22-rdf-syntax-ns#" xmlns:svg="http://www.w3.org/2000/svg" xmlns="http://www.w3.org/2000/svg" viewBox="0 0 45 45" style="enable-background:new 0 0 45 45;" xml:space="preserve" version="1.1" id="svg2"><metadata id="metadata8"><rdf:RDF><cc:Work rdf:about=""><dc:format>image/svg+xml</dc:format><dc:type rdf:resource="http://purl.org/dc/dcmitype/StillImage"/></cc:Work></rdf:RDF></metadata><defs id="defs6"><clipPath id="clipPath16" clipPathUnits="userSpaceOnUse"><path id="path18" d="M 4,31 C 1.791,31 0,29.209 0,27 L 0,27 0,9 C 0,6.791 1.791,5 4,5 l 0,0 28,0 c 2.209,0 4,1.791 4,4 l 0,0 0,18 c 0,2.209 -1.791,4 -4,4 l 0,0 -28,0 z"/></clipPath></defs><g transform="matrix(1.25,0,0,-1.25,0,45)" id="g10"><g id="g12"><g xmlns="http://www.w3.org/2000/svg" clip-path="url(#clipPath16)" id="g14"><path id="path20" style="fill:#76a1a0;fill-opacity:1;fill-rule:nonzero;stroke:none" d="M 0,5 36,5 36,31 0,31 0,5 z"/><g transform="translate(4.0889,17.9995)" id="g30"><path id="path21" style="fill:#f0dc82;fill-opacity:1;fill-rule:nonzero;stroke:none" d="M 0,0 13.911,-8.74 27.822,0 13.911,8.74 0,0 z"/></g><g id="g31"><path id="path22" style="fill:#ffffff;fill-opacity:1;fill-rule:nonzero;stroke:none" d="m 9.6626,7.6201 0,-0.666 0.154,0 c 0.063,0 0.113,0.022 0.152,0.066 0.039,0.044 0.058,0.101 0.058,0.17 l 0,0.195 c 0,0.068 -0.019,0.125 -0.058,0.169 -0.039,0.044 -0.089,0.066 -0.152,0.066 l -0.154,0 z m 0.154,0.206 c 0.139,0 0.253,-0.041 0.345,-0.124 0.09,-0.082 0.135,-0.188 0.135,-0.318 l 0,-0.194 c 0,-0.131 -0.045,-0.236 -0.135,-0.318 -0.092,-0.082 -0.206,-0.123 -0.345,-0.123 l -0.568,0 0,0.162 0.145,0.027 0,0.698 -0.145,0.027 0,0.163 0.145,0 0.423,0 z"/><path id="path23" style="fill:#ffffff;fill-opacity:1;fill-rule:nonzero;stroke:none" d="m 10.564,6.749 0,0.162 0.145,0.027 0,0.698 -0.145,0.027 0,0.163 0.145,0 0.788,0 0,-0.329 -0.207,0 -0.011,0.123 -0.301,0 0,-0.236 0.424,0 0,-0.172 -0.424,0 0,-0.258 0.302,0 0.011,0.123 0.206,0 0,-0.328 -0.933,0 z"/><path id="path24" style="fill:#ffffff;fill-opacity:1;fill-rule:nonzero;stroke:none" d="m 12.7241,7.1162 0.002,-0.006 c -0.004,-0.123 -0.045,-0.217 -0.122,-0.281 -0.077,-0.064 -0.183,-0.096 -0.315,-0.096 -0.141,0 -0.254,0.043 -0.34,0.129 -0.086,0.085 -0.129,0.2 -0.129,0.346 l 0,0.152 c 0,0.146 0.043,0.263 0.129,0.35 0.086,0.088 0.199,0.131 0.34,0.131 0.134,0 0.24,-0.033 0.317,-0.096 0.077,-0.065 0.118,-0.157 0.122,-0.279 l -0.002,-0.006 -0.261,0 c -0.008,0.059 -0.025,0.103 -0.053,0.132 -0.028,0.028 -0.069,0.043 -0.123,0.043 -0.065,0 -0.114,-0.025 -0.149,-0.074 -0.034,-0.049 -0.052,-0.116 -0.052,-0.2 l 0,-0.153 c 0,-0.083 0.018,-0.149 0.053,-0.197 0.034,-0.048 0.084,-0.073 0.148,-0.073 0.059,0 0.1,0.014 0.125,0.04 0.026,0.028 0.041,0.074 0.049,0.138 l 0.261,0 z"/><path id="path25" style="fill:#ffffff;fill-opacity:1;fill-rule:nonzero;stroke:none" d="m 12.981,6.749 0,0.162 0.145,0.027 0,0.698 -0.145,0.027 0,0.163 0.145,0 0.788,0 0,-0.329 -0.207,0 -0.011,0.123 -0.301,0 0,-0.236 0.424,0 0,-0.172 -0.424,0 0,-0.258 0.302,0 0.011,0.123 0.206,0 0,-0.328 -0.933,0 z"/><path id="path26" style="fill:#ffffff;fill-opacity:1;fill-rule:nonzero;stroke:none" d="m 14.9409,7.0645 0.006,0 0.243,0.762 0.352,0 0.143,0 0,-0.163 -0.143,-0.028 0,-0.697 0.143,-0.027 0,-0.162 -0.521,0 0,0.162 0.108,0.027 0,0.478 -0.005,0.001 -0.232,-0.668 -0.182,0 -0.226,0.653 -0.005,-10e-4 0,-0.463 0.108,-0.027 0,-0.162 -0.522,0 0,0.162 0.144,0.027 0,0.697 -0.144,0.028 0,0.163 0.144,0 0.348,0 0.241,-0.762 z"/><path id="path27" style="fill:#ffffff;fill-opacity:1;fill-rule:nonzero;stroke:none" d="m 16.3149,7.207 0,-0.253 0.224,0 c 0.049,0 0.086,0.01 0.107,0.029 0.023,0.02 0.033,0.049 0.033,0.089 0,0.045 -0.01,0.078 -0.033,0.101 -0.021,0.022 -0.058,0.034 -0.107,0.034 l -0.224,0 z m 0,0.172 0.16,0 c 0.05,0 0.089,0.01 0.114,0.029 0.027,0.02 0.039,0.047 0.039,0.084 0,0.043 -0.012,0.073 -0.037,0.092 -0.025,0.019 -0.064,0.028 -0.116,0.028 l -0.16,0 0,-0.233 z m 0.16,0.447 c 0.133,0 0.236,-0.025 0.311,-0.075 0.074,-0.051 0.111,-0.124 0.111,-0.223 0,-0.05 -0.016,-0.096 -0.048,-0.136 -0.032,-0.04 -0.077,-0.071 -0.137,-0.092 0.078,-0.015 0.136,-0.044 0.176,-0.089 0.04,-0.044 0.061,-0.097 0.061,-0.157 0,-0.1 -0.036,-0.176 -0.107,-0.228 -0.07,-0.052 -0.172,-0.077 -0.303,-0.077 l -0.637,0 0,0.162 0.143,0.027 0,0.698 -0.143,0.027 0,0.163 0.143,0 0.43,0 z"/><path id="path28" style="fill:#ffffff;fill-opacity:1;fill-rule:nonzero;stroke:none" d="m 17.188,6.749 0,0.162 0.145,0.027 0,0.698 -0.145,0.027 0,0.163 0.145,0 0.788,0 0,-0.329 -0.207,0 -0.011,0.123 -0.301,0 0,-0.236 0.424,0 0,-0.172 -0.424,0 0,-0.258 0.302,0 0.011,0.123 0.206,0 0,-0.328 -0.933,0 z"/><path id="path29" style="fill:#ffffff;fill-opacity:1;fill-rule:nonzero;stroke:none" d="m 18.7939,7.3428 0.157,0 c 0.052,0 0.093,0.012 0.121,0.037 0.029,0.025 0.042,0.058 0.042,0.101 0,0.04 -0.014,0.073 -0.043,0.099 -0.029,0.027 -0.069,0.04 -0.12,0.04 l -0.157,0 0,-0.277 z m 0.157,0.483 c 0.132,0 0.238,-0.029 0.317,-0.087 0.078,-0.059 0.118,-0.138 0.118,-0.239 0,-0.059 -0.017,-0.11 -0.049,-0.153 -0.031,-0.044 -0.078,-0.078 -0.14,-0.105 0.066,-0.019 0.114,-0.05 0.143,-0.094 0.029,-0.045 0.044,-0.099 0.044,-0.163 l 0,-0.058 0.084,-0.016 0,-0.162 -0.296,0 c -0.024,0.012 -0.04,0.033 -0.047,0.066 -0.007,0.032 -0.011,0.063 -0.011,0.094 l 0,0.075 c 0,0.049 -0.012,0.087 -0.039,0.113 -0.027,0.026 -0.065,0.039 -0.116,0.039 l -0.165,0 0,-0.197 0.143,-0.028 0,-0.162 -0.551,0 0,0.162 0.137,0.028 0,0.697 -0.137,0.027 0,0.163 0.137,0 0.428,0 z"/><path id="path30" style="fill:#ffffff;fill-opacity:1;fill-rule:nonzero;stroke:none" d="m 21.2207,7.4873 c -0.145,-0.169 -0.243,-0.327 -0.296,-0.473 -0.053,-0.146 -0.09,-0.322 -0.113,-0.529 l -0.013,-0.137 -0.27,0 0.013,0.137 c 0.021,0.198 0.066,0.38 0.135,0.545 0.069,0.166 0.164,0.318 0.284,0.457 l -0.474,0 -0.011,-0.134 -0.207,0 0,0.342 0.952,0 0,-0.208 z"/><path id="path31" style="fill:#ffffff;fill-opacity:1;fill-rule:nonzero;stroke:none" d="m 21.7402,6.7852 c 0,-0.062 -0.018,-0.13 -0.054,-0.2 -0.035,-0.071 -0.078,-0.128 -0.13,-0.173 l -0.132,0.072 c 0.024,0.043 0.042,0.088 0.055,0.134 0.013,0.046 0.02,0.098 0.02,0.154 l 0,0.201 0.242,0 -10e-4,-0.188 z"/><path id="path32" style="fill:#ffffff;fill-opacity:1;fill-rule:nonzero;stroke:none" d="m 22.6064,6.9111 0.227,0.027 0,0.912 -0.23,0 0,0.155 0.499,0.091 0,-1.158 0.228,-0.027 0,-0.162 -0.724,0 0,0.162 z"/><path id="path33" style="fill:#ffffff;fill-opacity:1;fill-rule:nonzero;stroke:none" d="m 24.502,7.4873 c -0.145,-0.169 -0.243,-0.327 -0.296,-0.473 -0.053,-0.146 -0.09,-0.322 -0.113,-0.529 l -0.013,-0.137 -0.27,0 0.013,0.137 c 0.021,0.198 0.066,0.38 0.135,0.545 0.069,0.166 0.164,0.318 0.284,0.457 l -0.474,0 -0.011,-0.134 -0.207,0 0,0.342 0.952,0 0,-0.208 z"/><path id="path34" style="fill:#ffffff;fill-opacity:1;fill-rule:nonzero;stroke:none" d="m 25.3311,7.7266 c 0,0.054 -0.015,0.098 -0.043,0.131 -0.028,0.033 -0.067,0.049 -0.116,0.049 -0.049,0 -0.088,-0.016 -0.115,-0.048 -0.028,-0.032 -0.041,-0.076 -0.041,-0.132 0,-0.057 0.013,-0.101 0.042,-0.134 0.027,-0.033 0.066,-0.05 0.116,-0.05 0.049,0 0.087,0.017 0.115,0.05 0.028,0.033 0.042,0.077 0.042,0.134 m 0.031,-0.591 c 0,0.061 -0.017,0.109 -0.052,0.145 -0.037,0.037 -0.082,0.054 -0.138,0.054 -0.056,0 -0.102,-0.017 -0.136,-0.054 -0.034,-0.036 -0.052,-0.084 -0.052,-0.145 0,-0.061 0.018,-0.11 0.052,-0.145 0.034,-0.036 0.08,-0.054 0.138,-0.054 0.055,0 0.101,0.019 0.136,0.054 0.035,0.036 0.052,0.084 0.052,0.145 m 0.239,0.603 c 0,-0.068 -0.018,-0.127 -0.053,-0.179 -0.036,-0.052 -0.085,-0.092 -0.148,-0.121 0.072,-0.03 0.128,-0.073 0.169,-0.129 0.042,-0.057 0.063,-0.12 0.063,-0.192 0,-0.125 -0.043,-0.221 -0.127,-0.287 -0.085,-0.068 -0.195,-0.101 -0.331,-0.101 -0.137,0 -0.248,0.033 -0.332,0.101 -0.085,0.066 -0.128,0.162 -0.128,0.287 0,0.072 0.02,0.136 0.061,0.192 0.041,0.056 0.098,0.099 0.169,0.129 -0.062,0.029 -0.111,0.069 -0.146,0.121 -0.035,0.052 -0.053,0.111 -0.053,0.179 0,0.12 0.039,0.212 0.117,0.278 0.078,0.065 0.182,0.098 0.31,0.098 0.128,0 0.231,-0.033 0.31,-0.098 0.079,-0.066 0.119,-0.158 0.119,-0.278"/><path id="path35" style="fill:#ffffff;fill-opacity:1;fill-rule:nonzero;stroke:none" d="m 26.8027,7.4873 c -0.145,-0.169 -0.243,-0.327 -0.296,-0.473 -0.053,-0.146 -0.09,-0.322 -0.113,-0.529 l -0.013,-0.137 -0.27,0 0.013,0.137 c 0.021,0.198 0.066,0.38 0.135,0.545 0.069,0.166 0.164,0.318 0.284,0.457 l -0.474,0 -0.011,-0.134 -0.207,0 0,0.342 0.952,0 0,-0.208 z"/></g><g transform="translate(23.1367,14.2324)" id="g32"><path id="path36" style="fill:#ffffff;fill-opacity:1;fill-rule:nonzero;stroke:none" d="M 0,0 C 0,0 -0.092,-0.305 0.038,-0.532 0.167,-0.76 0.214,-0.775 0.183,-0.979 0.151,-1.184 0.062,-1.262 0.062,-1.262 c 0,0 0.011,0.185 -0.236,0.318 -0.247,0.133 -0.286,0.173 -0.286,0.173 0,0 -0.066,-0.167 -0.267,-0.263 -0.27,-0.13 -0.373,-0.275 -0.373,-0.275 0,0 -0.19,0.229 0.036,0.557 0.262,0.38 0.063,0.548 0.063,0.548 L -0.774,-0.057 0,0 z"/></g><g transform="translate(12.8633,14.2324)" id="g33"><path id="path37" style="fill:#ffffff;fill-opacity:1;fill-rule:nonzero;stroke:none" d="m 0,0 c 0,0 0.092,-0.305 -0.038,-0.532 -0.129,-0.228 -0.176,-0.243 -0.145,-0.447 0.032,-0.205 0.121,-0.283 0.121,-0.283 0,0 -0.011,0.185 0.236,0.318 0.247,0.133 0.286,0.173 0.286,0.173 0,0 0.066,-0.167 0.267,-0.263 0.271,-0.13 0.373,-0.275 0.373,-0.275 0,0 0.191,0.229 -0.036,0.557 -0.263,0.38 -0.063,0.548 -0.063,0.548 L 0.774,-0.057 0,0 z"/></g><g id="g34"><path id="path40" style="fill:#edc620;fill-opacity:1;fill-rule:nonzero;stroke:none" d="m 18.0293,14.6855 c 0.286,0 0.497,0.285 0.759,0.526 0.178,0.163 0.365,0.088 0.412,0.18 0.047,0.091 -0.104,0.253 -0.104,0.253 0,0 0.127,0.006 0.412,0.091 0.286,0.085 0.433,0.009 0.433,0.009 l 0.041,-0.1 c 0,0 0.273,-0.002 0.362,0.046 0.252,0.136 0.088,0.386 0.088,0.386 0,0 0.118,-0.009 0.236,0.068 0.117,0.076 0.253,0.288 0.253,0.288 l -0.259,0.065 c 0,0 0.408,0.084 0.517,0.447 0.124,0.414 -0.127,0.346 -0.127,0.346 0,0 0.021,0.277 -0.02,0.489 -0.041,0.212 -0.197,0.071 -0.197,0.071 0,0 -0.006,0.155 -0.1,0.27 -0.094,0.115 -0.224,0.144 -0.224,0.144 0,0 0.13,0.23 -0.061,0.359 -0.192,0.129 -0.268,0 -0.268,0 l -0.038,0.374 c 0,0 0.176,-0.112 0.244,0.097 0.085,0.262 -0.13,0.382 -0.13,0.382 0,0 0.542,0.482 0.136,1.317 -0.508,1.044 -1.353,0.577 -1.353,0.577 0,0 -0.4,0.482 -1.041,0.482 -0.641,0 -1.041,-0.482 -1.041,-0.482 0,0 -0.846,0.467 -1.353,-0.577 -0.406,-0.835 0.135,-1.317 0.135,-1.317 0,0 -0.214,-0.12 -0.129,-0.382 0.067,-0.209 0.244,-0.097 0.244,-0.097 l -0.038,-0.374 c 0,0 -0.077,0.129 -0.268,0 -0.191,-0.129 -0.062,-0.359 -0.062,-0.359 0,0 -0.129,-0.029 -0.224,-0.144 -0.094,-0.115 -0.1,-0.27 -0.1,-0.27 0,0 -0.156,0.141 -0.197,-0.071 -0.041,-0.212 -0.02,-0.489 -0.02,-0.489 0,0 -0.251,0.068 -0.126,-0.346 0.108,-0.363 0.517,-0.447 0.517,-0.447 l -0.259,-0.065 c 0,0 0.136,-0.212 0.253,-0.288 0.118,-0.077 0.236,-0.068 0.236,-0.068 0,0 -0.165,-0.25 0.087,-0.386 0.09,-0.048 0.362,-0.046 0.362,-0.046 l 0.041,0.1 c 0,0 0.148,0.076 0.433,-0.009 0.285,-0.085 0.756,-0.142 0.756,-0.142 l 0.203,-0.297 c 0,0 0.129,0.135 0.279,0.12 0.151,-0.014 0.161,-0.162 0.161,-0.162 0,0 -0.349,0.21 -0.387,-0.11 -0.035,-0.292 0.312,-0.459 0.526,-0.459"/><path id="path41" style="fill:#3f863f;fill-opacity:1;fill-rule:nonzero;stroke:none" d="m 19.916,16.4473 c -0.467,-0.384 -1.175,-0.547 -1.175,-0.547 l -0.13,0.253 -0.152,-0.2 -0.141,0.282 -0.148,-0.265 -0.17,0.283 -0.17,-0.283 -0.148,0.265 -0.141,-0.282 -0.153,0.2 -0.129,-0.253 c 0,0 -0.709,0.163 -1.176,0.548 l 3.833,-0.001 z"/><path id="path42" style="fill:#ffffff;fill-opacity:1;fill-rule:nonzero;stroke:none" d="m 19.916,16.4473 c 0.058,0.047 0.112,0.099 0.16,0.152 0.442,0.494 0.253,1.059 0.253,1.059 0,0 -0.364,-0.211 -0.517,0.077 -0.218,0.411 0.176,0.524 0.176,0.524 l -3.976,0 c 0,0 0.394,-0.113 0.176,-0.524 -0.153,-0.288 -0.518,-0.077 -0.518,-0.077 0,0 -0.188,-0.565 0.253,-1.059 0.049,-0.053 0.102,-0.104 0.16,-0.151 l 3.833,-0.001 z"/><path id="path43" style="fill:#006fff;fill-opacity:1;fill-rule:nonzero;stroke:none" d="m 16.0117,18.2588 c 0,0 0.282,0.147 0.306,0.541 0.029,0.483 -0.141,0.612 -0.141,0.612 l 3.647,0 c 0,0 -0.17,-0.129 -0.141,-0.612 0.023,-0.394 0.306,-0.541 0.306,-0.541 l -3.977,0 z"/><path id="path44" style="fill:#eda229;fill-opacity:1;fill-rule:nonzero;stroke:none" d="m 16.1763,19.4116 c 0,0 0.229,0.159 0.135,0.359 -0.115,0.245 -0.358,0.164 -0.358,0.164 0,0 -0.135,0.353 0.147,0.76 0.282,0.405 0.529,0.405 0.529,0.405 0,0 -0.035,-0.165 0.112,-0.282 0.147,-0.117 0.371,0.071 0.371,0.071 0,0 0.482,-0.441 0.888,-0.441 0.405,0 0.888,0.441 0.888,0.441 0,0 0.223,-0.188 0.371,-0.071 0.147,0.117 0.111,0.282 0.111,0.282 0,0 0.247,0 0.53,-0.405 0.282,-0.407 0.147,-0.76 0.147,-0.76 0,0 -0.244,0.081 -0.359,-0.164 -0.095,-0.2 0.135,-0.359 0.135,-0.359 l -3.647,0 z"/><path id="path45" style="fill:#006fff;fill-opacity:1;fill-rule:nonzero;stroke:none" d="m 19.6475,22.3472 -3.489,0 0.174,-0.374 3.52,0 -0.205,0.374 z"/><path id="path46" style="fill:#3c2e2e;fill-opacity:1;fill-rule:nonzero;stroke:none" d="m 16.9824,22.894 2.123,0 -0.064,-0.235 -1.677,0 -0.382,0.235 z"/><path id="path47" style="fill:#ffffff;fill-opacity:1;fill-rule:nonzero;stroke:none" d="m 16.9824,22.894 0.106,0.165 1.151,-0.022 0.933,-0.057 -0.131,0.62 -0.283,-0.135 0.01,0.996 -0.394,0.019 -0.11,-0.756 -0.038,0.847 -0.373,0.013 -0.111,-0.781 -0.014,0.867 -0.391,0.011 -0.102,-0.651 -0.754,-0.889 0.501,-0.247 z"/><path id="path48" style="fill:#ffffff;fill-opacity:1;fill-rule:nonzero;stroke:none" d="m 17.5093,24.9346 0,-0.105 -0.286,0.124 0.286,-0.019 z"/><path id="path49" style="fill:#ffffff;fill-opacity:1;fill-rule:nonzero;stroke:none" d="m 18.0566,24.9346 0,-0.105 -0.286,0.124 0.286,-0.019 z"/><path id="path50" style="fill:#ffffff;fill-opacity:1;fill-rule:nonzero;stroke:none" d="m 18.5654,24.7109 0,-0.105 -0.286,0.124 0.286,-0.019 z"/></g><g id="g35"><path id="path51" style="fill:#863f3f;fill-opacity:1;fill-rule:nonzero;stroke:none" d="m 13.8853,14.9912 0.152,-0.668 -1.506,0.095 0,0.352 0.652,0.365 0.702,-0.144 z"/><path id="path52" style="fill:#863f3f;fill-opacity:1;fill-rule:nonzero;stroke:none" d="m 14.4136,14.9004 -0.062,-0.404 0.972,0 0,0.233 -0.345,0.171 -0.565,0 z"/><path id="path53" style="fill:#4f3636;fill-opacity:1;fill-rule:nonzero;stroke:none" d="m 13.9883,14.9707 -0.312,1.953 0.283,0.829 0.376,-2.852 0.7,0 -0.141,2.07 0.229,2.041 -0.376,0.518 -1.571,-0.147 -0.412,-2.318 0.33,-1.911 0.894,-0.183 z"/><path id="path54" style="fill:#a8393a;fill-opacity:1;fill-rule:nonzero;stroke:none" d="m 15.1235,19.0117 0.804,0.778 -0.965,2.063 -0.76,0.22 -0.258,-0.376 -0.394,0.439 -0.682,-0.385 -0.212,-1.035 -0.149,0.321 -0.196,-0.18 -0.204,0.4 -0.141,-0.22 0.439,-1.231 0.565,-0.039 0.206,-0.384 1.571,0.147 0.376,-0.518 z"/><path id="path55" style="fill:#ffe2d1;fill-opacity:1;fill-rule:nonzero;stroke:none" d="m 12.5078,21.0371 0.145,0.098 0.124,0.553 -0.371,0.082 -0.298,-0.513 0.204,-0.4 0.196,0.18 z"/><path id="path56" style="fill:#ffe2d1;fill-opacity:1;fill-rule:nonzero;stroke:none" d="m 13.5508,22.1353 -0.274,0.441 0.274,0.294 0.673,0.147 0.259,-0.441 -0.083,-0.561 -0.198,0.058 -0.257,-0.377 -0.394,0.439 z"/><path id="path57" style="fill:#3c2e2e;fill-opacity:1;fill-rule:nonzero;stroke:none" d="m 14.3677,22.7725 0.391,0.169 -0.094,0.241 -0.297,-0.035 -0.179,0.317 -1.065,-0.29 0.058,-0.275 -0.364,-0.188 0.102,-0.208 0.357,0.073 0.274,0.294 0.673,0.147 0.144,-0.245 z"/><path id="path58" style="fill:#3c2e2e;fill-opacity:1;fill-rule:nonzero;stroke:none" d="m 12.9077,22.0137 -1.106,-0.2 -0.074,0.455 0.223,0.235 0.314,-0.078 0.255,0.192 0.298,-0.168 0.09,-0.436 z"/><path id="path59" style="fill:#e2c89a;fill-opacity:1;fill-rule:nonzero;stroke:none" d="m 23.0225,16.4219 -0.095,-1.475 0.623,-0.396 -0.262,-0.317 -0.977,0 -0.051,2.058 0.082,0.185 0.299,-0.134 0.381,0.079 z"/><path id="path60" style="fill:#e2c89a;fill-opacity:1;fill-rule:nonzero;stroke:none" d="m 21.9902,16.543 -0.118,-2.177 -0.545,0 0.095,1.008 -0.173,1.071 0.443,-0.066 0.298,0.164 z"/><path id="path61" style="fill:#3f863f;fill-opacity:1;fill-rule:nonzero;stroke:none" d="m 23.0225,18.8916 0.324,-0.921 -0.298,-0.071 0.107,-0.784 -0.133,-0.694 -0.381,-0.079 -0.299,0.134 -0.179,1.004 -0.173,-0.938 -0.298,-0.164 -0.443,0.067 -0.158,1.419 -0.211,0.173 0.357,1.235 0.329,-0.016 0.235,0.2 0.514,-0.094 0.196,-0.573 0.511,0.102 z"/><path id="path62" style="fill:#e2c89a;fill-opacity:1;fill-rule:nonzero;stroke:none" d="m 22.9512,19.7236 0.152,-0.816 -0.591,-0.118 -0.197,0.573 -0.513,0.094 0.083,0.208 0.395,-0.063 0.671,0.122 z"/><path id="path63" style="fill:#3f863f;fill-opacity:1;fill-rule:nonzero;stroke:none" d="m 23.0078,19.418 0.473,-0.82 0.165,0.278 0.337,-0.023 -0.549,1.126 0.109,1.125 -0.109,0.388 -0.832,0.427 -0.427,-0.317 -0.231,0.345 -0.405,-0.149 -0.556,-0.02 0.035,-0.156 -0.949,-1.275 0.447,-0.8 0.62,-0.251 0.082,0.541 -0.337,0.435 0.242,0.275 0.208,-0.747 0.29,-0.022 0.326,0.228 -0.062,-0.341 0.395,-0.063 0.671,0.122 0.057,-0.306 z"/><path id="path64" style="fill:#ffe2d1;fill-opacity:1;fill-rule:nonzero;stroke:none" d="m 22.6016,21.9194 0.056,0.294 0.231,0.102 -0.067,0.439 -0.384,0.13 -0.593,-0.043 0,-0.22 -0.144,-0.204 0.117,-0.016 0,-0.321 0.145,-0.027 -0.019,-0.106 0.231,-0.345 0.427,0.317 z"/><path id="path65" style="fill:#ffe2d1;fill-opacity:1;fill-rule:nonzero;stroke:none" d="m 23.9824,18.853 0.206,-0.282 -0.103,-0.453 -0.332,0 -0.03,0.253 -0.202,0.297 0.124,0.208 0.337,-0.023 z"/><path id="path66" style="fill:#b8c5b8;fill-opacity:1;fill-rule:nonzero;stroke:none" d="m 21.9473,20.0059 -0.062,-0.341 -0.084,-0.208 -0.235,-0.2 -0.329,0.016 -0.099,0.048 0.08,0.517 0.113,-0.038 0.29,-0.022 0.326,0.228 z"/></g><g id="g36"><path id="path70" style="fill:#edc620;fill-opacity:1;fill-rule:nonzero;stroke:none" d="m 18,13.7041 c 0,0 -0.035,0.082 -0.104,0.11 -0.068,0.028 -0.082,0.059 -0.082,0.059 0,0 -0.192,-0.24 -0.361,-0.129 -0.169,0.11 -0.062,0.287 0.041,0.209 0.103,-0.078 0.164,0.042 0.132,0.161 -0.031,0.118 -0.029,0.196 -0.029,0.196 0,0 0.079,0.007 0.162,-0.072 0.082,-0.079 0.138,-0.094 0.138,-0.094 0,0 0,0.071 0.015,0.176 0.014,0.107 0.088,0.156 0.088,0.156 0,0 0.074,-0.049 0.088,-0.156 0.015,-0.105 0.015,-0.176 0.015,-0.176 0,0 0.056,0.015 0.138,0.094 0.083,0.079 0.162,0.072 0.162,0.072 0,0 0.002,-0.078 -0.029,-0.196 -0.032,-0.119 0.029,-0.239 0.133,-0.161 0.102,0.078 0.209,-0.099 0.04,-0.209 -0.169,-0.111 -0.361,0.129 -0.361,0.129 0,0 -0.014,-0.031 -0.082,-0.059 C 18.035,13.7861 18,13.7041 18,13.7041"/><path id="path71" style="fill:#edc620;fill-opacity:1;fill-rule:nonzero;stroke:none" d="m 20.1865,14.751 c 0,0 -0.171,0.234 -0.159,0.404 0.012,0.169 -0.108,0.314 -0.108,0.314 0,0 0.123,0.072 0.343,-0.122 0.153,-0.135 0.072,-0.306 0.198,-0.242 0.125,0.066 -0.011,0.208 -0.011,0.208 0,0 -0.032,0.101 0.101,0.195 0.134,0.094 0.306,0.09 0.306,0.09 0,0 0.014,-0.088 0.014,-0.125 0,-0.037 -0.018,-0.061 -0.059,-0.122 -0.041,-0.061 -0.08,-0.182 -0.031,-0.188 0.049,-0.006 0.045,0.049 0.066,0.096 0.022,0.047 0.105,0.047 0.105,0.047 0,0 0.027,-0.034 -0.008,-0.168 -0.035,-0.136 -0.008,-0.208 0.039,-0.208 0.047,0 0.033,0.052 0.066,0.097 0.034,0.045 0.119,0.064 0.119,0.064 0,0 -0.057,-0.166 0.026,-0.394 0.059,-0.165 0.805,-0.202 1.189,-0.224 1.344,-0.078 1.497,0.65 1.497,0.65 0,0 -0.426,0.034 -0.426,0.215 0,0.18 0.191,0.362 0.435,0.238 0.688,-0.349 -0.048,-0.879 -0.048,-0.879 0,0 0.845,-0.02 0.616,-0.603 -0.106,-0.268 -0.436,-0.212 -0.509,-0.1 -0.115,0.177 0.08,0.355 0.08,0.355 0,0 -0.054,0.024 -0.301,-0.017 -0.285,-0.046 -0.796,-0.157 -1.266,-0.157 -0.799,0 -1.118,0.212 -1.717,0.212 -0.416,0 -0.385,-0.338 -0.385,-0.338 0,0 -0.197,0.062 -0.207,0.225 -0.01,0.164 0.17,0.216 0.17,0.216 0,0 -0.204,0.065 -0.364,-0.072 -0.162,-0.138 -0.085,-0.311 -0.13,-0.322 -0.045,-0.012 -0.043,0.083 -0.078,0.083 -0.036,0 -0.069,-0.064 -0.069,-0.064 0,0 -0.116,0.093 -0.053,0.259 0.063,0.167 0.166,0.19 0.166,0.19 0,0 -0.376,0.028 -0.455,-0.264 -0.056,-0.212 0.152,-0.357 0.152,-0.357 0,0 -0.126,-0.081 -0.228,-0.027 -0.101,0.053 -0.133,0.239 -0.133,0.239 0,0 -0.047,-0.011 -0.071,-0.126 -0.023,-0.113 -0.094,-0.152 -0.094,-0.152 0,0 -0.027,0.096 -0.104,0.227 -0.113,0.194 0.097,0.302 0.097,0.302 0,0 -0.047,0.045 -0.283,0.08 -0.235,0.036 -0.263,0.148 -0.263,0.148 0,0 0.106,-0.006 0.22,0.076 0.114,0.082 0.259,-0.055 0.3,-0.055 0.041,0 0.082,0.059 -0.017,0.18 -0.156,0.188 -0.048,0.265 -0.048,0.265 0,0 0.108,-0.2 0.223,-0.166 0.117,0.033 -0.025,0.15 0.077,0.217 0.102,0.067 0.112,0.143 0.112,0.143 0,0 0.064,-0.037 0.096,-0.173 0.032,-0.135 0.071,-0.228 0.304,-0.29 0.108,-0.027 0.199,-0.013 0.294,-0.025 0.11,-0.015 0.214,-0.055 0.214,-0.055"/><path id="path72" style="fill:#edc620;fill-opacity:1;fill-rule:nonzero;stroke:none" d="m 15.814,14.751 c 0,0 0.17,0.234 0.159,0.404 -0.012,0.169 0.108,0.314 0.108,0.314 0,0 -0.124,0.072 -0.344,-0.122 -0.153,-0.135 -0.072,-0.306 -0.198,-0.242 -0.125,0.066 0.012,0.208 0.012,0.208 0,0 0.032,0.101 -0.102,0.195 -0.133,0.094 -0.306,0.09 -0.306,0.09 0,0 -0.014,-0.088 -0.014,-0.125 0,-0.037 0.018,-0.061 0.06,-0.122 0.041,-0.061 0.08,-0.182 0.031,-0.188 -0.05,-0.006 -0.046,0.049 -0.067,0.096 -0.022,0.047 -0.104,0.047 -0.104,0.047 0,0 -0.027,-0.034 0.008,-0.168 0.035,-0.136 0.008,-0.208 -0.039,-0.208 -0.047,0 -0.034,0.052 -0.067,0.097 -0.033,0.045 -0.118,0.064 -0.118,0.064 0,0 0.057,-0.166 -0.026,-0.394 -0.06,-0.165 -0.805,-0.202 -1.189,-0.224 -1.345,-0.078 -1.497,0.65 -1.497,0.65 0,0 0.426,0.034 0.426,0.215 0,0.18 -0.192,0.362 -0.435,0.238 -0.689,-0.349 0.047,-0.879 0.047,-0.879 0,0 -0.844,-0.02 -0.615,-0.603 0.106,-0.268 0.436,-0.212 0.509,-0.1 0.115,0.177 -0.08,0.355 -0.08,0.355 0,0 0.053,0.024 0.3,-0.017 0.285,-0.046 0.796,-0.157 1.266,-0.157 0.8,0 1.118,0.212 1.718,0.212 0.415,0 0.384,-0.338 0.384,-0.338 0,0 0.198,0.062 0.208,0.225 0.01,0.164 -0.171,0.216 -0.171,0.216 0,0 0.204,0.065 0.365,-0.072 0.161,-0.138 0.084,-0.311 0.129,-0.322 0.046,-0.012 0.044,0.083 0.079,0.083 0.035,0 0.069,-0.064 0.069,-0.064 0,0 0.115,0.093 0.053,0.259 -0.063,0.167 -0.167,0.19 -0.167,0.19 0,0 0.377,0.028 0.455,-0.264 0.057,-0.212 -0.151,-0.357 -0.151,-0.357 0,0 0.125,-0.081 0.227,-0.027 0.102,0.053 0.134,0.239 0.134,0.239 0,0 0.047,-0.011 0.07,-0.126 0.024,-0.113 0.094,-0.152 0.094,-0.152 0,0 0.028,0.096 0.104,0.227 0.114,0.194 -0.096,0.302 -0.096,0.302 0,0 0.047,0.045 0.283,0.08 0.235,0.036 0.262,0.148 0.262,0.148 0,0 -0.106,-0.006 -0.219,0.076 -0.114,0.082 -0.259,-0.055 -0.3,-0.055 -0.042,0 -0.083,0.059 0.017,0.18 0.155,0.188 0.047,0.265 0.047,0.265 0,0 -0.108,-0.2 -0.223,-0.166 -0.116,0.033 0.025,0.15 -0.076,0.217 -0.103,0.067 -0.112,0.143 -0.112,0.143 0,0 -0.065,-0.037 -0.096,-0.173 -0.032,-0.135 -0.071,-0.228 -0.304,-0.29 -0.108,-0.027 -0.2,-0.013 -0.295,-0.025 -0.109,-0.015 -0.213,-0.055 -0.213,-0.055"/><path id="path73" style="fill:#ffffff;fill-opacity:1;fill-rule:nonzero;stroke:none" d="m 22.916,14.5664 c 0,0 -2.539,-1.979 -4.75,-1.979 -2.64,0 -5.37,2.061 -5.37,2.061 0,0 0.118,0.052 0.356,0.084 0.162,0.021 0.284,0.15 0.377,0.133 0.203,-0.039 0.368,-0.153 0.368,-0.153 0,0 1.978,-1.377 3.866,-1.377 2.219,0 4.255,1.371 4.255,1.371 0,0 0.219,0.168 0.441,0.158 0.222,-0.01 0.457,-0.298 0.457,-0.298"/></g></g></g></g></svg>