<svg xmlns:dc="http://purl.org/dc/elements/1.1/" xmlns:cc="http://creativecommons.org/ns#" xmlns:rdf="http://www.w3.org/1999/02/22-rdf-syntax-ns#" xmlns:svg="http://www.w3.org/2000/svg" xmlns="http://www.w3.org/2000/svg" viewBox="0 0 45 45" style="enable-background:new 0 0 45 45;" xml:space="preserve" version="1.1" id="svg2"><metadata id="metadata8"><rdf:RDF><cc:Work rdf:about=""><dc:format>image/svg+xml</dc:format><dc:type rdf:resource="http://purl.org/dc/dcmitype/StillImage"/></cc:Work></rdf:RDF></metadata><defs id="defs6"><clipPath id="clipPath16" clipPathUnits="userSpaceOnUse"><path id="path18" d="M 4,31 C 1.791,31 0,29.209 0,27 L 0,27 0,9 C 0,6.791 1.791,5 4,5 l 0,0 28,0 c 2.209,0 4,1.791 4,4 l 0,0 0,18 c 0,2.209 -1.791,4 -4,4 l 0,0 -28,0 z"/></clipPath></defs><g transform="matrix(1.25,0,0,-1.25,0,45)" id="g10"><g id="g12"><g xmlns="http://www.w3.org/2000/svg" clip-path="url(#clipPath16)" id="g14"><g id="g30"><path id="path20" style="fill:#009a3b;fill-opacity:1;fill-rule:nonzero;stroke:none" d="M 0,5 36,5 36,13 0,13 0,5 z"/><path id="path21" style="fill:#eeeeee;fill-opacity:1;fill-rule:nonzero;stroke:none" d="m 0,13 36,0 0,9 -36,0 0,-9 z"/><path id="path22" style="fill:#0063be;fill-opacity:1;fill-rule:nonzero;stroke:none" d="m 36,31 -36,0 0,-9 36,0 0,9 z"/></g><g id="g34"><path id="path30" style="fill:#000000;fill-opacity:1;fill-rule:nonzero;stroke:none" d="m 0,31 13.5,0 0,-9 -13.5,0 0,9 z"/><path id="path31" style="fill:#ffffff;fill-opacity:1;fill-rule:nonzero;stroke:none" d="m 6.7505,22.4497 -0.397,1.221 1.039,-0.755 -1.284,0 1.038,0.755 -0.396,-1.221 z"/><path id="path32" style="fill:#ffffff;fill-opacity:1;fill-rule:nonzero;stroke:none" d="m 4.8682,22.9136 0.216,1.266 0.569,-1.151 -1.137,0.596 1.271,0.186 -0.919,-0.897 z"/><path id="path33" style="fill:#ffffff;fill-opacity:1;fill-rule:nonzero;stroke:none" d="m 3.417,24.1992 0.78,1.02 -0.031,-1.284 -0.73,1.057 1.211,-0.426 -1.23,-0.367 z"/><path id="path34" style="fill:#ffffff;fill-opacity:1;fill-rule:nonzero;stroke:none" d="m 2.7295,26.0117 1.165,0.541 -0.624,-1.122 -0.155,1.274 0.874,-0.94 -1.26,0.247 z"/><path id="path35" style="fill:#ffffff;fill-opacity:1;fill-rule:nonzero;stroke:none" d="m 2.9634,27.936 1.282,-0.062 -1.074,-0.704 0.456,1.201 0.337,-1.239 -1.001,0.804 z"/><path id="path36" style="fill:#ffffff;fill-opacity:1;fill-rule:nonzero;stroke:none" d="m 4.0645,29.5313 1.107,-0.651 -1.278,-0.124 0.961,0.852 -0.277,-1.254 -0.513,1.177 z"/><path id="path37" style="fill:#ffffff;fill-opacity:1;fill-rule:nonzero;stroke:none" d="m 5.7812,30.4321 0.677,-1.09 -1.189,0.484 1.247,0.307 -0.828,-0.981 0.093,1.28 z"/><path id="path38" style="fill:#ffffff;fill-opacity:1;fill-rule:nonzero;stroke:none" d="m 7.7197,30.4321 0.093,-1.28 -0.828,0.981 1.247,-0.307 -1.19,-0.484 0.678,1.09 z"/><path id="path39" style="fill:#ffffff;fill-opacity:1;fill-rule:nonzero;stroke:none" d="m 9.436,29.5313 -0.513,-1.177 -0.277,1.254 0.961,-0.852 -1.278,0.124 1.107,0.651 z"/><path id="path40" style="fill:#ffffff;fill-opacity:1;fill-rule:nonzero;stroke:none" d="m 10.5371,27.936 -1.001,-0.804 0.337,1.239 0.456,-1.201 -1.074,0.704 1.282,0.062 z"/><path id="path41" style="fill:#ffffff;fill-opacity:1;fill-rule:nonzero;stroke:none" d="m 10.771,26.0117 -1.26,-0.247 0.874,0.94 -0.155,-1.274 -0.624,1.122 1.165,-0.541 z"/><path id="path42" style="fill:#ffffff;fill-opacity:1;fill-rule:nonzero;stroke:none" d="m 10.0835,24.1992 -1.23,0.367 1.211,0.426 -0.73,-1.057 -0.031,1.284 0.78,-1.02 z"/><path id="path43" style="fill:#ffffff;fill-opacity:1;fill-rule:nonzero;stroke:none" d="m 8.6323,22.9136 -0.918,0.897 1.27,-0.186 -1.137,-0.596 0.569,1.151 0.216,-1.266 z"/></g></g></g></g></svg>