<svg xmlns:dc="http://purl.org/dc/elements/1.1/" xmlns:cc="http://creativecommons.org/ns#" xmlns:rdf="http://www.w3.org/1999/02/22-rdf-syntax-ns#" xmlns:svg="http://www.w3.org/2000/svg" xmlns="http://www.w3.org/2000/svg" viewBox="0 0 45 45" style="enable-background:new 0 0 45 45;" xml:space="preserve" version="1.1" id="svg2"><metadata id="metadata8"><rdf:RDF><cc:Work rdf:about=""><dc:format>image/svg+xml</dc:format><dc:type rdf:resource="http://purl.org/dc/dcmitype/StillImage"/></cc:Work></rdf:RDF></metadata><defs id="defs6"><clipPath id="clipPath16" clipPathUnits="userSpaceOnUse"><path id="path18" d="M 4,31 C 1.791,31 0,29.209 0,27 L 0,27 0,9 C 0,6.791 1.791,5 4,5 l 0,0 28,0 c 2.209,0 4,1.791 4,4 l 0,0 0,18 c 0,2.209 -1.791,4 -4,4 l 0,0 -28,0 z"/></clipPath></defs><g transform="matrix(1.25,0,0,-1.25,0,45)" id="g10"><g id="g12"><g xmlns="http://www.w3.org/2000/svg" clip-path="url(#clipPath16)" id="g14"><g id="g30"><path id="path20" style="fill:#00247d;fill-opacity:1;fill-rule:nonzero;stroke:none" d="M 36,9 C 36,6.791 34.209,5 32,5 L 4,5 C 1.791,5 0,6.791 0,9 l 0,18 c 0,2.209 1.791,4 4,4 l 28,0 c 2.209,0 4,-1.791 4,-4 L 36,9 z"/></g><g id="g34"><path id="path30" style="fill:#00247d;fill-opacity:1;fill-rule:nonzero;stroke:none" d="m 19.001,31 -19,0 0,-13 19,0 0,13 z"/><path id="path31" style="fill:#eeeeee;fill-opacity:1;fill-rule:nonzero;stroke:none" d="m 7.3911,24.4961 -7.391,-5.262 0,-1.234 3.332,0 6.669,4.669 6.668,-4.669 2.332,0 0,2.029 -6.386,4.471 6.386,4.471 0,2.029 -2.331,0 -6.67,-4.67 -6.667,4.67 -3.332,0 0,-1.332 7.39,-5.172 z"/><path id="path32" style="fill:#cf142b;fill-opacity:1;fill-rule:nonzero;stroke:none" d="m 10.8735,23.8887 8.127,-5.69 0,1.219 -8.127,5.692 8.127,5.692 0,0.198 -1.46,0 -8.412,-5.889 -8.41,5.889 -0.718,-0.712 9.128,-6.399 -8.394,-5.889 0.266,0 1.461,0 8.412,5.889 z"/><path id="path33" style="fill:#eeeeee;fill-opacity:1;fill-rule:nonzero;stroke:none" d="m 19.001,27 -7,0 0,4 -5,0 0,-4 -7,0 0,-5 7,0 0,-4 5,0 0,4 7,0 0,5 z"/><path id="path34" style="fill:#cf142b;fill-opacity:1;fill-rule:nonzero;stroke:none" d="m 11.001,23 0,-5 -3,0 0,5 -8,0 0,3 8,0 0,5 3,0 0,-5 8,0 0,-3 -8,0 z"/></g><g id="g38"><path id="path40" style="fill:#759590;fill-opacity:1;fill-rule:nonzero;stroke:none" d="m 30.8174,14.9111 c 0,0 -0.291,0.004 -0.35,0.042 -0.058,0.038 -0.064,0.123 -0.206,0.123 -0.141,0 -0.876,-0.429 -0.97,-0.5 -0.094,-0.07 -0.082,-0.023 -0.198,-0.149 -0.114,-0.127 -0.129,-0.192 -0.226,-0.18 -0.064,0.008 -0.117,-0.142 -0.117,-0.142 0,0 0.159,-0.129 0.52,-0.184 0.157,-0.025 0.294,0.011 0.45,-0.015 0.277,-0.048 0.094,-0.057 0.486,-0.057 0.157,0 0.276,-0.018 0.294,0 0.029,0.034 0.064,-0.023 0.176,-0.026 0.112,-0.003 0.245,0.015 0.391,0.035 0.147,0.022 0.256,-0.085 0.523,0.042 0.268,0.126 0.509,0.17 0.509,0.17 0,0 -0.078,0.064 -0.184,0.115 -0.107,0.052 -0.203,0.074 -0.203,0.074 l -0.895,0.652 z"/><path id="path41" style="fill:#cba279;fill-opacity:1;fill-rule:nonzero;stroke:none" d="m 31.5498,15.2324 c 0,0 -0.649,-0.118 -1.309,1.13 -0.547,1.038 0.173,1.391 0.173,1.391"/><path id="path42" style="fill:#e5dccd;fill-opacity:1;fill-rule:nonzero;stroke:none" d="m 30.4912,17.0986 c 0,0 -0.207,-0.136 -0.34,-0.009 -0.134,0.128 -0.202,0.136 -0.202,0.136 0,0 -0.035,0.016 -0.114,-0.23 -0.078,-0.245 -0.086,-0.295 -0.055,-0.455 0.072,-0.372 -0.15,-0.35 -0.15,-0.35 l -0.225,0.358 0,0.557 c 0,0 0.036,0.233 0.077,0.291 0.041,0.056 0.035,0.019 0.157,0.182 0.085,0.114 0.18,0.178 0.18,0.178 0,0 -0.041,0.112 -0.125,0.157 -0.085,0.045 -0.081,0.055 -0.073,0.102 0.009,0.047 -0.086,0.129 -0.273,0.129 -0.22,0 -0.243,-0.111 -0.243,-0.111 l -0.329,0 c 0,0 -0.019,0.047 0.185,0.247 0.204,0.2 0.407,0.266 0.719,0.147 0.229,-0.088 0.504,-0.394 0.504,-0.394 0,0 -0.002,0.045 0.01,0.109 0.012,0.065 0.026,0.14 0.026,0.14 0,0 -0.21,0.219 -0.24,0.316 -0.029,0.096 0.003,0.068 -0.039,0.199 -0.058,0.181 0,0.197 0,0.197 l -0.053,0.056 c 0,0 0.118,0.09 0.253,0.077 0.135,-0.014 0.392,-0.18 0.496,-0.383 0.035,-0.067 0.014,-0.182 0.024,-0.254 0.014,-0.11 0.082,-0.258 0.082,-0.258 l -0.252,-1.134 z"/><path id="path43" style="fill:#ae5f35;fill-opacity:1;fill-rule:nonzero;stroke:none" d="m 32.1299,14.7559 c 0,0 -0.964,0.604 -1.406,1.67 -0.718,1.725 0.019,1.807 0.019,1.807 0,0 0.181,0.231 0.753,-0.549 0.332,-0.451 0.615,-1.141 0.675,-1.913 0.047,-0.624 -0.041,-1.015 -0.041,-1.015"/><path id="path44" style="fill:#e5dccd;fill-opacity:1;fill-rule:nonzero;stroke:none" d="m 31.5254,15.2578 c 0,0 0.066,-0.199 0.059,-0.388 -0.008,-0.187 0.09,-0.205 0.088,-0.362 -0.001,-0.157 0.069,-0.202 0.034,-0.302 -0.035,-0.1 -0.226,-0.004 -0.306,0.092 -0.081,0.097 -0.157,0.239 -0.157,0.239 0,0 -0.238,-0.173 -0.253,-0.175 -0.016,-0.001 -0.14,0.152 -0.169,0.477 -0.029,0.326 0.059,0.67 0.059,0.67 l 0.12,-0.091 0.038,0.428"/><path id="path45" style="fill:#759590;fill-opacity:1;fill-rule:nonzero;stroke:none" d="m 24.4814,14.9111 c 0,0 0.291,0.004 0.35,0.042 0.058,0.038 0.064,0.123 0.206,0.123 0.14,0 0.876,-0.429 0.97,-0.5 0.094,-0.07 0.082,-0.023 0.197,-0.149 0.115,-0.127 0.13,-0.192 0.226,-0.18 0.065,0.008 0.118,-0.142 0.118,-0.142 0,0 -0.159,-0.129 -0.52,-0.184 -0.157,-0.025 -0.294,0.011 -0.45,-0.015 -0.277,-0.048 -0.094,-0.057 -0.486,-0.057 -0.157,0 -0.276,-0.018 -0.294,0 -0.029,0.034 -0.064,-0.023 -0.176,-0.026 -0.112,-0.003 -0.245,0.015 -0.391,0.035 -0.147,0.022 -0.256,-0.085 -0.524,0.042 -0.268,0.126 -0.509,0.17 -0.509,0.17 0,0 0.079,0.064 0.185,0.115 0.107,0.052 0.203,0.074 0.203,0.074 l 0.895,0.652 z"/><path id="path46" style="fill:#cba279;fill-opacity:1;fill-rule:nonzero;stroke:none" d="m 23.749,15.2324 c 0,0 0.649,-0.118 1.309,1.13 0.547,1.038 -0.174,1.391 -0.174,1.391"/><path id="path47" style="fill:#e5dccd;fill-opacity:1;fill-rule:nonzero;stroke:none" d="m 24.8076,17.0986 c 0,0 0.207,-0.136 0.34,-0.009 0.134,0.128 0.202,0.136 0.202,0.136 0,0 0.035,0.016 0.113,-0.23 0.079,-0.245 0.087,-0.295 0.056,-0.455 -0.073,-0.372 0.15,-0.35 0.15,-0.35 l 0.225,0.358 0,0.557 c 0,0 -0.036,0.233 -0.077,0.291 -0.041,0.056 -0.035,0.019 -0.157,0.182 -0.085,0.114 -0.18,0.178 -0.18,0.178 0,0 0.041,0.112 0.125,0.157 0.084,0.045 0.08,0.055 0.072,0.102 -0.008,0.047 0.086,0.129 0.273,0.129 0.221,0 0.243,-0.111 0.243,-0.111 l 0.33,0 c 0,0 0.019,0.047 -0.185,0.247 -0.204,0.2 -0.408,0.266 -0.719,0.147 -0.229,-0.088 -0.504,-0.394 -0.504,-0.394 0,0 0.002,0.045 -0.01,0.109 -0.012,0.065 -0.026,0.14 -0.026,0.14 0,0 0.21,0.219 0.24,0.316 0.029,0.096 -0.004,0.068 0.039,0.199 0.058,0.181 0,0.197 0,0.197 l 0.053,0.056 c 0,0 -0.118,0.09 -0.253,0.077 -0.135,-0.014 -0.392,-0.18 -0.496,-0.383 -0.035,-0.067 -0.014,-0.182 -0.024,-0.254 -0.014,-0.11 -0.082,-0.258 -0.082,-0.258 l 0.252,-1.134 z"/><path id="path48" style="fill:#ae5f35;fill-opacity:1;fill-rule:nonzero;stroke:none" d="m 23.1689,14.7559 c 0,0 0.963,0.604 1.406,1.67 0.718,1.725 -0.019,1.807 -0.019,1.807 0,0 -0.181,0.231 -0.753,-0.549 -0.332,-0.451 -0.616,-1.141 -0.675,-1.913 -0.047,-0.624 0.041,-1.015 0.041,-1.015"/><path id="path49" style="fill:#e5dccd;fill-opacity:1;fill-rule:nonzero;stroke:none" d="m 23.7734,15.2578 c 0,0 -0.067,-0.199 -0.059,-0.388 0.008,-0.187 -0.09,-0.205 -0.088,-0.362 0.001,-0.157 -0.069,-0.202 -0.034,-0.302 0.035,-0.1 0.226,-0.004 0.306,0.092 0.081,0.097 0.157,0.239 0.157,0.239 0,0 0.238,-0.173 0.253,-0.175 0.016,-0.001 0.139,0.152 0.169,0.477 0.029,0.326 -0.059,0.67 -0.059,0.67 l -0.12,-0.091 -0.038,0.428"/><path id="path50" style="fill:#248648;fill-opacity:1;fill-rule:nonzero;stroke:none" d="m 27.6494,16.2646 1.253,-1.367 c 0.063,0.076 0.125,0.158 0.182,0.246 0.068,0.103 0.126,0.225 0.173,0.358 l -1.608,1.728 -1.608,-1.728 c 0.047,-0.133 0.105,-0.255 0.173,-0.358 0.057,-0.088 0.119,-0.17 0.182,-0.246 l 1.253,1.367 z"/><path id="path51" style="fill:#1482b7;fill-opacity:1;fill-rule:nonzero;stroke:none" d="m 26.5908,14.6885 c 0.5,-0.483 1.059,-0.667 1.059,-0.667 0,0 0.56,0.184 1.06,0.669 l -2.119,-0.002 z"/><path id="path52" style="fill:#ffffff;fill-opacity:1;fill-rule:nonzero;stroke:none" d="m 26.5908,14.6885 c -0.066,0.064 -0.132,0.134 -0.194,0.209 l 0.423,0.461 1.662,-0.002 0.421,-0.459 c -0.063,-0.074 -0.127,-0.144 -0.193,-0.207 l -2.119,-0.002 z"/><path id="path53" style="fill:#1482b7;fill-opacity:1;fill-rule:nonzero;stroke:none" d="m 26.8193,15.3584 0.612,0.669 0.437,-0.001 0.613,-0.67 -1.662,0.002 z"/><path id="path54" style="fill:#ffffff;fill-opacity:1;fill-rule:nonzero;stroke:none" d="m 27.8682,16.0264 -0.219,0.238 -0.218,-0.237 0.437,-0.001 z"/><path id="path55" style="fill:#1482b7;fill-opacity:1;fill-rule:nonzero;stroke:none" d="m 28.7666,16.0303 0.491,-0.528 c 0.056,0.157 0.097,0.334 0.121,0.525 l -0.612,0.003 z"/><path id="path56" style="fill:#1482b7;fill-opacity:1;fill-rule:nonzero;stroke:none" d="m 26.5303,16.0273 -0.489,-0.525 c -0.056,0.157 -0.097,0.334 -0.121,0.525 l 0.61,0 z"/><path id="path57" style="fill:#ffffff;fill-opacity:1;fill-rule:nonzero;stroke:none" d="m 25.8936,16.6963 c 0,-0.091 0.001,-0.176 0.001,-0.251 0,-0.145 0.009,-0.285 0.025,-0.418 l 0.611,0 0.622,0.669 -1.259,0 z"/><path id="path58" style="fill:#ffffff;fill-opacity:1;fill-rule:nonzero;stroke:none" d="m 29.4053,16.6963 c 0,-0.091 -0.001,-0.176 -0.001,-0.251 0,-0.145 -0.009,-0.285 -0.025,-0.418 l -0.613,0.003 -0.621,0.666 1.26,0 z"/><path id="path59" style="fill:#1482b7;fill-opacity:1;fill-rule:nonzero;stroke:none" d="m 25.8848,17.3643 c 0.004,-0.219 0.007,-0.458 0.009,-0.668 l 1.259,0 0.497,0.533 0.496,-0.533 1.26,0 c 0.001,0.21 0.004,0.45 0.008,0.669 l -3.529,-0.001 z"/><path id="path60" style="fill:#ffffff;fill-opacity:1;fill-rule:nonzero;stroke:none" d="m 25.8848,17.3643 c -0.006,0.365 -0.012,0.669 -0.012,0.669 l 3.553,0 c 0,0 -0.007,-0.304 -0.012,-0.668 l -3.529,-0.001 z"/><path id="path61" style="fill:#3c7535;fill-opacity:1;fill-rule:nonzero;stroke:none" d="m 24.291,20.5654 c 0,0 -0.091,-0.164 -0.062,-0.298 0.04,-0.177 0.23,-0.283 0.23,-0.283 0,0 -0.492,0.147 -0.492,0.341 0,0.193 0.324,0.24 0.324,0.24"/><path id="path62" style="fill:#3c7535;fill-opacity:1;fill-rule:nonzero;stroke:none" d="m 26.1514,20.1812 c 0,0 0.085,0.177 0.021,0.359 -0.086,0.244 -0.363,0.257 -0.363,0.257 0.141,-0.057 0.12,-0.197 0.12,-0.197 0,0 0.116,-0.058 -0.12,-0.486 -0.234,-0.428 -0.4,-0.678 -0.208,-1.008 0.08,-0.137 0.239,-0.189 0.239,-0.189 0,0 0.008,0.166 0.089,0.285 0.092,0.134 0.233,0.159 0.233,0.159 0,0 -0.098,0.048 -0.24,0.006 -0.143,-0.042 -0.191,-0.117 -0.191,-0.117 0,0 -0.065,0.023 0.086,0.253 0.151,0.23 0.372,0.473 0.44,0.598 0.035,0.062 0.029,0.141 0.029,0.141 0,0 -0.016,-0.022 -0.065,-0.04 -0.048,-0.02 -0.07,-0.021 -0.07,-0.021"/><path id="path63" style="fill:#ffffff;fill-opacity:1;fill-rule:nonzero;stroke:none" d="m 24.459,19.9844 c 0,0 -0.086,0.049 -0.154,0.134 0,0 0.158,-0.012 0.584,0.181 0.354,0.163 0.609,0.352 0.609,0.352 0,0 -0.302,-0.151 -0.527,-0.086 -0.292,0.086 -0.547,-0.085 -0.547,-0.085 0,0 0.017,0.092 0.127,0.151 0.11,0.059 0.416,0.057 0.416,0.057 0,0 -0.134,0.024 -0.191,0.119 -0.045,0.076 0.024,0.185 0.024,0.185 0,0 0.128,-0.189 0.245,-0.22 0.118,-0.031 0.365,0.032 0.589,0.045 0.337,0.02 0.296,-0.217 0.296,-0.217 0,0 -0.294,-0.073 -0.319,-0.377 -0.015,-0.209 0.181,-0.353 0.181,-0.353 0,0 -0.035,-0.015 -0.143,0.055 -0.108,0.071 -0.155,0.186 -0.155,0.186 0,0 0.056,-0.164 -0.062,-0.347 -0.183,-0.28 -0.422,-0.28 -0.422,-0.28 0,0 0.107,0.118 0.212,0.369 0.103,0.251 0.254,0.402 0.19,0.478 -0.05,0.059 -0.166,-0.063 -0.418,-0.255 -0.296,-0.225 -0.535,-0.092 -0.535,-0.092"/><path id="path64" style="fill:#ffffff;fill-opacity:1;fill-rule:nonzero;stroke:none" d="m 25.8408,18.917 c 0,0 -0.159,0.052 -0.239,0.189 -0.047,0.081 -0.073,0.156 -0.081,0.231 0,0 -0.135,-0.376 0.258,-0.651 0.49,-0.343 0.904,0.144 0.904,0.144 0,0 -0.028,-0.073 -0.055,-0.179 -0.028,-0.106 -0.042,-0.188 -0.042,-0.188 0,0 0.039,-0.005 0.123,0.043 0.085,0.049 0.114,0.13 0.114,0.13 0,0 -0.034,-0.108 -0.026,-0.213 0.008,-0.104 0.063,-0.167 0.063,-0.167 0,0 0.023,0.094 0.076,0.186 0.053,0.092 0.135,0.131 0.135,0.131 l -0.387,0.512 c 0,0 -0.168,-0.138 -0.384,-0.189 -0.216,-0.052 -0.459,0.021 -0.459,0.021"/><path id="path65" style="fill:#248346;fill-opacity:1;fill-rule:nonzero;stroke:none" d="m 28.6055,20.1362 0.015,0.015 -0.971,2.254 -0.965,-2.252 0.081,-0.184 1.84,0.167 z"/><path id="path66" style="fill:#814d29;fill-opacity:1;fill-rule:nonzero;stroke:none" d="m 27.165,20.5352 c -0.058,0.013 -0.137,0.039 -0.235,0.09 -0.225,0.117 -0.377,0.243 -0.377,0.243 l -0.008,-0.01 c 0,0 0.191,-0.149 0.314,-0.274 0.123,-0.125 0.236,-0.151 0.271,-0.23 0.075,-0.168 0.271,-0.236 0.271,-0.236 l 1.001,-0.163 0.073,0.313 c 0,0 0.157,0.259 0.157,0.309 0,0.039 -0.044,0.029 -0.064,0.085 -0.018,0.057 -0.007,0.105 -0.007,0.105 0,0 -0.06,0.01 -0.143,0.019 l 0.087,0.422 -0.046,0.012 -0.092,-0.429 c -0.079,0.008 -0.169,0.014 -0.244,0.012 l -0.032,0.878 -0.042,0 0.019,-0.883 c -0.112,-0.014 -0.215,-0.059 -0.215,-0.059 0,0 -0.055,-0.156 -0.123,-0.199 l -0.048,1.244 -0.049,0 0.048,-1.26 c -0.106,-0.019 -0.317,-0.009 -0.317,-0.009 l 0,0.042 -0.085,0.004 0,-0.038 c 0,0 -0.018,-0.002 -0.055,0.002 l -0.055,1.114 -0.041,0 0.037,-1.104 z"/><path id="path67" style="fill:#1482b7;fill-opacity:1;fill-rule:nonzero;stroke:none" d="m 28.6172,19.7822 c 0,0 0.282,-0.065 0.305,0.149 0.039,0.385 -0.281,0.151 -0.281,0.151 0,0 -0.005,0.029 -0.108,0.134 -0.103,0.104 -0.171,0.117 -0.171,0.117 0,0 0.101,-0.2 -0.047,-0.237 -0.146,-0.035 -0.195,0.082 -0.297,0.166 -0.101,0.084 -0.226,0.083 -0.226,0.083 0,0 0.163,-0.176 -0.016,-0.215 -0.178,-0.039 -0.214,0.115 -0.323,0.154 -0.109,0.039 -0.186,0.035 -0.186,0.035 0,0 0.181,-0.166 0.048,-0.219 -0.133,-0.053 -0.247,-0.017 -0.348,0.073 -0.073,0.065 -0.196,0.041 -0.196,0.041 0,0 0.121,-0.091 0.046,-0.191 -0.075,-0.1 -0.177,-0.122 -0.177,-0.122 0,0 0.049,0.065 -0.052,0.19 -0.038,0.046 -0.108,0.035 -0.147,0.018 -0.064,-0.029 -0.091,-0.103 -0.087,-0.158 0,0 -0.021,-0.091 0.128,-0.178 0.151,-0.087 0.259,-0.04 0.259,-0.04 l 1.876,0.049 z"/><path id="path68" style="fill:#68a09f;fill-opacity:1;fill-rule:nonzero;stroke:none" d="m 26.875,19.4072 -0.409,-0.306 0.2,0.008 0.46,-0.607 c 0,0 -0.099,-0.197 -0.093,-0.251 0.006,-0.055 0.22,-0.385 0.22,-0.385 l 0.497,0.167 0.642,0 c 0,0 0.25,0.237 0.25,0.42 0,0.133 -0.338,0.251 -0.338,0.251 l 0,1.152 -1.281,0 -0.148,-0.449 z"/><path id="path69" style="fill:#3c7535;fill-opacity:1;fill-rule:nonzero;stroke:none" d="m 27.835,19.6763 c 0,0 -0.127,-0.074 -0.186,-0.243 -0.059,-0.169 -0.013,-0.368 -0.013,-0.368 0,0 0.043,0.119 0.138,0.249 0.096,0.129 0.185,0.166 0.185,0.166 0,0 -0.049,-0.298 0.09,-0.59 0.14,-0.292 0.435,-0.361 0.435,-0.361 0,0 -0.048,0.035 -0.105,0.09 -0.058,0.056 -0.075,0.085 -0.075,0.085 0,0 0.056,0.019 0.151,-0.026 0.094,-0.045 0.133,-0.078 0.133,-0.078 0,0 0.031,-0.044 0.095,-0.116 0.062,-0.073 0.113,-0.116 0.113,-0.116 l 0.016,0.214 -0.216,0.337 c 0,0 0.165,-0.238 0.449,-0.286 0.408,-0.068 0.447,0.337 0.447,0.337 0,0 -0.221,-0.186 -0.545,-0.072 -0.324,0.113 -0.513,0.553 -0.513,0.553 0,0 0.136,-0.007 0.208,0.114 0.07,0.12 -0.025,0.217 -0.025,0.217 0,0 -0.247,0.194 -0.89,0.194 -0.645,0 -1.157,-0.2 -1.038,-0.459 0.042,-0.095 0.184,-0.109 0.184,-0.109 0,0 0.105,0.161 0.433,0.227 0.305,0.062 0.529,0.041 0.529,0.041"/><path id="path70" style="fill:#ffffff;fill-opacity:1;fill-rule:nonzero;stroke:none" d="m 29.2441,18.6406 c 0.223,0.067 0.248,0.33 0.248,0.33 0.013,0.278 -0.338,0.339 -0.338,0.339 0,0 0.038,0.048 0.199,0.073 0.161,0.025 0.295,-0.195 0.295,-0.195 0,0 -0.023,0.206 -0.275,0.545 -0.251,0.339 -0.329,0.549 -0.329,0.549 l 0.096,-0.038 c 0,0 -0.078,0.15 0.006,0.303 0.085,0.154 0.255,0.125 0.255,0.125 0,0 -0.091,-0.148 0.136,-0.592 0.165,-0.323 0.408,-0.73 0.228,-1.069 -0.179,-0.339 -0.521,-0.37 -0.521,-0.37"/><path id="path71" style="fill:#3c7535;fill-opacity:1;fill-rule:nonzero;stroke:none" d="m 29.4014,20.6719 c 0,0 0.318,-0.011 0.351,-0.35 0.026,-0.28 -0.268,-0.405 -0.268,-0.405 0,0 0.136,-0.086 0.237,0.014 0.102,0.1 0.132,0.203 0.132,0.203 0,0 -0.036,-0.273 0.108,-0.457 0.113,-0.145 0.328,-0.161 0.328,-0.161 0,0 -0.143,0.133 -0.224,0.458 -0.065,0.263 -0.18,0.429 -0.18,0.429 0,0 0.087,-0.096 0.391,-0.309 0.304,-0.214 0.48,-0.206 0.48,-0.206 0,0 0.069,0.023 0.23,0.1 0.161,0.078 0.298,0.159 0.298,0.159 0,0 -0.216,-0.096 -0.658,0.088 -0.329,0.137 -0.481,0.273 -0.481,0.273 0,0 0.156,-0.008 0.409,0.01 0.253,0.017 0.391,-0.043 0.391,-0.043 0,0 -0.035,0.072 -0.163,0.149 -0.127,0.076 -0.366,0.072 -0.366,0.072 0,0 0.201,-0.018 0.197,0.136 -0.004,0.152 -0.162,0.154 -0.162,0.154 0,0 0.094,-0.148 -0.208,-0.249 -0.206,-0.068 -0.587,0.046 -0.78,0.022 -0.325,-0.04 -0.346,-0.288 -0.346,-0.288 0.006,0.025 0.015,0.05 0.029,0.076 0.085,0.153 0.255,0.125 0.255,0.125"/><path id="path72" style="fill:#ffffff;fill-opacity:1;fill-rule:nonzero;stroke:none" d="m 31.1406,20.6143 c 0,0 0.271,-0.1 0.271,-0.303 0,-0.124 -0.127,-0.164 -0.127,-0.164 0,0 -0.098,-0.044 -0.297,-0.016 0,0 0.111,0.033 0.153,0.147 0.059,0.161 0,0.336 0,0.336"/></g></g></g></g></svg>