<svg xmlns:dc="http://purl.org/dc/elements/1.1/" xmlns:cc="http://creativecommons.org/ns#" xmlns:rdf="http://www.w3.org/1999/02/22-rdf-syntax-ns#" xmlns:svg="http://www.w3.org/2000/svg" xmlns="http://www.w3.org/2000/svg" viewBox="0 0 45 45" style="enable-background:new 0 0 45 45;" xml:space="preserve" version="1.1" id="svg2"><metadata id="metadata8"><rdf:RDF><cc:Work rdf:about=""><dc:format>image/svg+xml</dc:format><dc:type rdf:resource="http://purl.org/dc/dcmitype/StillImage"/></cc:Work></rdf:RDF></metadata><defs id="defs6"><clipPath id="clipPath16" clipPathUnits="userSpaceOnUse"><path id="path18" d="M 4,31 C 1.791,31 0,29.209 0,27 L 0,27 0,9 C 0,6.791 1.791,5 4,5 l 0,0 28,0 c 2.209,0 4,1.791 4,4 l 0,0 0,18 c 0,2.209 -1.791,4 -4,4 l 0,0 -28,0 z"/></clipPath></defs><g transform="matrix(1.25,0,0,-1.25,0,45)" id="g10"><g id="g12"><g xmlns="http://www.w3.org/2000/svg" clip-path="url(#clipPath16)" id="g14"><path id="path19" style="fill:#eeeeee;fill-opacity:1;fill-rule:nonzero;stroke:none" d="m 9e-4,27.75 36,0 0,3.25 -36,0 0,-3.25 z"/><path id="path20" style="fill:#cf142b;fill-opacity:1;fill-rule:nonzero;stroke:none" d="m 9e-4,24.5 36,0 0,3.25 -36,0 0,-3.25 z"/><path id="path21" style="fill:#00247d;fill-opacity:1;fill-rule:nonzero;stroke:none" d="m 9e-4,21.25 36,0 0,3.25 -36,0 0,-3.25 z"/><path id="path22" style="fill:#eeeeee;fill-opacity:1;fill-rule:nonzero;stroke:none" d="m 9e-4,18 36,0 0,3.25 -36,0 0,-3.25 z"/><path id="path23" style="fill:#cf142b;fill-opacity:1;fill-rule:nonzero;stroke:none" d="m 9e-4,14.75 36,0 0,3.25 -36,0 0,-3.25 z"/><path id="path24" style="fill:#00247d;fill-opacity:1;fill-rule:nonzero;stroke:none" d="m 9e-4,11.5 36,0 0,3.25 -36,0 0,-3.25 z"/><path id="path25" style="fill:#eeeeee;fill-opacity:1;fill-rule:nonzero;stroke:none" d="m 9e-4,8.25 36,0 0,3.25 -36,0 0,-3.25 z"/><path id="path26" style="fill:#cf142b;fill-opacity:1;fill-rule:nonzero;stroke:none" d="m 9e-4,5 36,0 0,3.25 -36,0 0,-3.25 z"/><path id="path27" style="fill:#00247d;fill-opacity:1;fill-rule:nonzero;stroke:none" d="m 19.0009,31 -19,0 0,-13 19,0 0,13 z"/><g id="g65" transform="translate(7.391,24.4961)"><path id="path28" style="fill:#eeeeee;fill-opacity:1;fill-rule:nonzero;stroke:none" d="m 0,0 -7.391,-5.262 0,-1.234 3.332,0 6.669,4.669 6.668,-4.669 2.332,0 0,2.029 -6.386,4.471 6.386,4.471 0,2.029 -2.331,0 -6.67,-4.67 -6.667,4.67 -3.332,0 0,-1.332 L 0,0 z"/></g><g id="g69" transform="translate(10.8735,23.8887)"><path id="path29" style="fill:#cf142b;fill-opacity:1;fill-rule:nonzero;stroke:none" d="m 0,0 8.127,-5.69 0,1.219 L 0,1.221 l 8.127,5.692 0,0.198 -1.46,0 -8.412,-5.889 -8.41,5.889 -0.718,-0.712 9.128,-6.399 -8.394,-5.889 0.266,0 1.461,0 L 0,0 z"/></g><g id="g73" transform="translate(19.0009,27)"><path id="path30" style="fill:#eeeeee;fill-opacity:1;fill-rule:nonzero;stroke:none" d="m 0,0 -7,0 0,4 -5,0 0,-4 -7,0 0,-5 7,0 0,-4 5,0 0,4 7,0 0,5 z"/></g><g id="g77" transform="translate(11.0009,23)"><path id="path31" style="fill:#cf142b;fill-opacity:1;fill-rule:nonzero;stroke:none" d="m 0,0 0,-5 -3,0 0,5 -8,0 0,3 8,0 0,5 L 0,8 0,3 8,3 8,0 0,0 z"/></g></g></g></g></svg>