<svg xmlns:dc="http://purl.org/dc/elements/1.1/" xmlns:cc="http://creativecommons.org/ns#" xmlns:rdf="http://www.w3.org/1999/02/22-rdf-syntax-ns#" xmlns:svg="http://www.w3.org/2000/svg" xmlns="http://www.w3.org/2000/svg" viewBox="0 0 45 45" style="enable-background:new 0 0 45 45;" xml:space="preserve" version="1.1" id="svg2"><metadata id="metadata8"><rdf:RDF><cc:Work rdf:about=""><dc:format>image/svg+xml</dc:format><dc:type rdf:resource="http://purl.org/dc/dcmitype/StillImage"/></cc:Work></rdf:RDF></metadata><defs id="defs6"><clipPath id="clipPath16" clipPathUnits="userSpaceOnUse"><path id="path18" d="M 0,36 36,36 36,0 0,0 0,36 Z"/></clipPath></defs><g transform="matrix(1.25,0,0,-1.25,0,45)" id="g10"><g id="g12"><g xmlns="http://www.w3.org/2000/svg" clip-path="url(#clipPath16)" id="g14"><g id="g30"><path id="path20" style="fill:#00a3ce;fill-opacity:1;fill-rule:nonzero;stroke:none" d="M 32,30.9998 H 24 4 c -2.209,0 -4,-1.791 -4,-4 v -4.7 h 36 v 4.7 c 0,2.209 -1.791,4 -4,4"/></g><g id="g32"><path id="path30" style="fill:#eeeeee;fill-opacity:1;fill-rule:nonzero;stroke:none" d="m 0,13.6668 h 36 v 8.667 H 0 Z"/></g><g id="g34"><path id="path40" style="fill:#ef5a8d;fill-opacity:1;fill-rule:nonzero;stroke:none" d="M 0,13.7 V 9 C 0,6.791 1.791,5 4,5 h 28 c 2.209,0 4,1.791 4,4 v 4.7 z"/></g><g id="g36"><path id="path50" style="fill:#00a3ce;fill-opacity:1;fill-rule:nonzero;stroke:none" d="m 6.4863,17.681 -0.51,-0.242 0.569,-1.203 -0.41,-0.193 -0.569,1.203 -0.501,-0.236 -0.13,0.274 1.421,0.672 z"/><path id="path51" style="fill:#00a3ce;fill-opacity:1;fill-rule:nonzero;stroke:none" d="m 7.2925,17.511 0.268,0.102 c 0.081,0.03 0.134,0.071 0.161,0.124 0.027,0.052 0.028,0.111 0.003,0.177 -0.026,0.066 -0.066,0.11 -0.121,0.132 -0.055,0.022 -0.123,0.018 -0.203,-0.013 l -0.268,-0.101 z m 0.337,-0.197 -0.229,-0.087 0.205,-0.541 -0.424,-0.16 -0.58,1.528 0.692,0.263 c 0.208,0.079 0.387,0.101 0.535,0.065 0.148,-0.036 0.25,-0.127 0.305,-0.274 0.041,-0.106 0.049,-0.203 0.026,-0.292 -0.023,-0.089 -0.078,-0.175 -0.168,-0.259 l 0.602,-0.477 0.006,-0.016 -0.454,-0.173 z"/><path id="path52" style="fill:#00a3ce;fill-opacity:1;fill-rule:nonzero;stroke:none" d="m 9.1421,17.866 0.388,0.115 -0.356,0.486 z m 0.579,-0.146 -0.596,-0.177 -0.017,-0.323 -0.465,-0.138 0.196,1.763 0.408,0.122 1.132,-1.37 -0.466,-0.138 z"/><path id="path53" style="fill:#00a3ce;fill-opacity:1;fill-rule:nonzero;stroke:none" d="m 10.7476,18.3904 0.087,-0.382 0.29,0.066 c 0.08,0.018 0.137,0.048 0.173,0.089 0.035,0.042 0.047,0.092 0.033,0.149 -0.03,0.133 -0.121,0.182 -0.273,0.149 z m -0.057,0.252 0.23,0.053 c 0.097,0.022 0.162,0.053 0.196,0.092 0.034,0.04 0.045,0.089 0.031,0.147 -0.015,0.068 -0.048,0.111 -0.099,0.131 -0.051,0.019 -0.127,0.018 -0.226,-0.005 l -0.217,-0.049 z m -0.23,-1.03 -0.364,1.594 0.659,0.15 c 0.236,0.054 0.424,0.057 0.564,0.01 0.14,-0.047 0.226,-0.143 0.259,-0.286 0.019,-0.082 0.013,-0.157 -0.018,-0.226 -0.03,-0.068 -0.084,-0.126 -0.163,-0.173 0.101,0 0.184,-0.024 0.249,-0.072 0.064,-0.048 0.107,-0.115 0.126,-0.201 0.036,-0.157 0.006,-0.287 -0.09,-0.392 -0.096,-0.104 -0.255,-0.182 -0.478,-0.235 z"/><path id="path54" style="fill:#00a3ce;fill-opacity:1;fill-rule:nonzero;stroke:none" d="m 12.5576,18.6727 0.399,0.065 -0.293,0.527 z m 0.556,-0.217 -0.614,-0.101 -0.057,-0.319 -0.478,-0.079 0.415,1.726 0.42,0.069 0.952,-1.5 -0.481,-0.079 z"/><path id="path55" style="fill:#00a3ce;fill-opacity:1;fill-rule:nonzero;stroke:none" d="m 14.2622,18.6072 0.784,0.087 0.034,-0.301 -1.235,-0.138 -0.182,1.625 0.451,0.051 z"/><path id="path56" style="fill:#00a3ce;fill-opacity:1;fill-rule:nonzero;stroke:none" d="m 16.8105,18.5047 -0.45,-0.027 -0.041,0.682 -0.667,-0.041 0.041,-0.681 -0.452,-0.027 -0.098,1.632 0.452,0.027 0.039,-0.648 0.666,0.041 -0.039,0.647 0.45,0.027 z"/><path id="path57" style="fill:#00a3ce;fill-opacity:1;fill-rule:nonzero;stroke:none" d="m 17.6475,19.1243 0.404,0.003 -0.208,0.566 z m 0.516,-0.3 -0.622,-0.006 -0.105,-0.306 -0.485,-0.004 0.675,1.641 0.426,0.004 0.709,-1.629 -0.486,-0.004 z"/><path id="path58" style="fill:#00a3ce;fill-opacity:1;fill-rule:nonzero;stroke:none" d="m 20.7266,19.1048 -0.712,0.046 -0.025,-0.39 0.841,-0.054 -0.02,-0.303 -1.293,0.084 0.105,1.632 1.296,-0.084 -0.019,-0.304 -0.844,0.055 -0.021,-0.345 0.711,-0.045 z"/><path id="path59" style="fill:#00a3ce;fill-opacity:1;fill-rule:nonzero;stroke:none" d="m 23.1777,18.6687 c -0.021,-0.112 -0.069,-0.207 -0.146,-0.285 -0.075,-0.077 -0.174,-0.132 -0.296,-0.164 -0.122,-0.031 -0.257,-0.037 -0.406,-0.017 -0.245,0.033 -0.428,0.129 -0.549,0.287 -0.123,0.158 -0.166,0.363 -0.132,0.616 l 0.01,0.08 c 0.023,0.159 0.074,0.294 0.153,0.404 0.08,0.11 0.183,0.19 0.312,0.239 0.128,0.048 0.271,0.062 0.428,0.04 0.226,-0.031 0.4,-0.107 0.524,-0.229 0.123,-0.122 0.182,-0.276 0.176,-0.46 l -0.448,0.061 c 0.01,0.099 -0.009,0.174 -0.057,0.224 -0.048,0.051 -0.127,0.083 -0.237,0.099 -0.111,0.015 -0.198,-0.011 -0.261,-0.076 -0.061,-0.066 -0.104,-0.178 -0.129,-0.337 l -0.015,-0.115 c -0.024,-0.173 -0.016,-0.3 0.024,-0.381 0.04,-0.081 0.121,-0.13 0.243,-0.146 0.103,-0.014 0.185,-0.004 0.245,0.031 0.061,0.035 0.099,0.098 0.115,0.19 z"/><path id="path60" style="fill:#00a3ce;fill-opacity:1;fill-rule:nonzero;stroke:none" d="m 24.5752,18.7044 c 0.031,0.16 0.024,0.287 -0.021,0.381 -0.044,0.095 -0.124,0.154 -0.238,0.176 -0.222,0.045 -0.369,-0.078 -0.439,-0.366 l -0.026,-0.118 c -0.03,-0.157 -0.024,-0.283 0.019,-0.38 0.043,-0.096 0.124,-0.156 0.242,-0.179 0.112,-0.023 0.207,0.002 0.284,0.072 0.077,0.072 0.132,0.185 0.164,0.34 z m 0.438,-0.157 c -0.031,-0.156 -0.091,-0.288 -0.182,-0.395 -0.09,-0.107 -0.203,-0.181 -0.339,-0.222 -0.136,-0.04 -0.282,-0.045 -0.439,-0.015 -0.158,0.032 -0.29,0.091 -0.4,0.178 -0.109,0.087 -0.186,0.195 -0.231,0.325 -0.045,0.13 -0.054,0.271 -0.028,0.424 l 0.018,0.09 c 0.031,0.157 0.092,0.289 0.183,0.396 0.089,0.107 0.203,0.181 0.339,0.222 0.137,0.041 0.285,0.046 0.442,0.014 0.156,-0.03 0.29,-0.09 0.399,-0.179 0.11,-0.089 0.187,-0.2 0.231,-0.333 0.045,-0.133 0.051,-0.276 0.022,-0.431 z"/><path id="path61" style="fill:#00a3ce;fill-opacity:1;fill-rule:nonzero;stroke:none" d="m 26.5713,17.3279 -0.436,0.117 -0.38,1.155 -0.263,-0.983 -0.438,0.117 0.422,1.58 0.439,-0.117 0.379,-1.155 0.263,0.983 0.437,-0.117 z"/><path id="path62" style="fill:#00a3ce;fill-opacity:1;fill-rule:nonzero;stroke:none" d="m 28.1348,17.4881 -0.692,0.235 -0.208,-0.617 -0.43,0.145 0.523,1.549 1.193,-0.403 -0.098,-0.288 -0.763,0.257 -0.12,-0.356 0.693,-0.234 z"/><path id="path63" style="fill:#00a3ce;fill-opacity:1;fill-rule:nonzero;stroke:none" d="m 28.5967,16.6062 -0.421,0.165 0.598,1.522 0.421,-0.166 z"/><path id="path64" style="fill:#00a3ce;fill-opacity:1;fill-rule:nonzero;stroke:none" d="m 29.6465,16.8182 0.366,-0.171 0.057,0.601 z m 0.336,-0.492 -0.563,0.263 -0.227,-0.231 -0.44,0.204 1.318,1.19 0.386,-0.18 -0.063,-1.775 -0.44,0.206 z"/></g></g></g></g></svg>