<svg xmlns="http://www.w3.org/2000/svg" viewBox="0 0 45 45" enable-background="new 0 0 45 45"><defs><clipPath id="a"><path d="M0 36h36V0H0v36z"/></clipPath></defs><g><g><g clip-path="url(#a)" transform="matrix(1.25 0 0 -1.25 0 45)"><g><path fill="#3e721d" d="M19 4c0-1-1.72-3-3.33-3C14.07 1 14 2.34 14 4s1.3 3 2.92 3C18.52 7 19 5.66 19 4"/></g><g><path fill="#3e721d" d="M30 4c0-1-1.72-3-3.33-3C25.07 1 25 2.34 25 4s1.3 3 2.92 3C29.52 7 30 5.66 30 4"/></g><g><path fill="#5c913b" d="M36 11c0 6-3.17 9.17-6 12-1 1-1.4-.32-1-1 .5-.86 3-8-2-8h-2c-5 0-6.17 1.17-9 4-4.5 4.5-7 0-9 0-6 0-7 1.8-7-2 0-3 3-4 6-4s3-1 5-4c1.07-1.6 2.84-3.2 5.02-4.16.24-1.1 2.78-3.84 4.3-3.84C21.95 0 22 1.34 22 3h5c.03 0 .07 0 .1 0 .3 0 .6 0 .9 0 0-1 1.72-3 3.33-3C32.93 0 33 1.34 33 3c0 .3-.06.6-.14.86C34.6 4.8 36 6.8 36 11"/></g><g><path fill="#292f33" d="M10 17.88c0-.83.67-1.5 1.5-1.5s1.5.67 1.5 1.5-.67 0-1.5 0-1.5.83-1.5 0"/></g><g><path fill="#77b255" d="M26 12c0-.55.67-1 1.5-1s1.5.45 1.5 1-.67 1-1.5 1-1.5-.45-1.5-1"/></g><g><path fill="#77b255" d="M22 12c0-.55.67-1 1.5-1s1.5.45 1.5 1-.67 1-1.5 1-1.5-.45-1.5-1"/></g><g><path fill="#77b255" d="M18 12c0-.55.67-1 1.5-1s1.5.45 1.5 1-.67 1-1.5 1-1.5-.45-1.5-1"/></g><g><path fill="#77b255" d="M20 10c0-.55.67-1 1.5-1s1.5.45 1.5 1-.67 1-1.5 1-1.5-.45-1.5-1"/></g><g><path fill="#77b255" d="M24 10c0-.55.67-1 1.5-1s1.5.45 1.5 1-.67 1-1.5 1-1.5-.45-1.5-1"/></g><g><path fill="#fff" d="M6 14c-.4 0-1 1-1 1h2s-.6-1-1-1"/></g><g><path fill="#fff" d="M4 13.53c-.4 0-1 1.47-1 1.47h2s-.6-1.47-1-1.47"/></g><g><path fill="#fff" d="M2 13c-.4 0-1 2-1 2h2s-.6-2-1-2"/></g></g></g></g></svg>