<?xml version="1.0" encoding="UTF-8" standalone="no"?><svg xmlns:dc="http://purl.org/dc/elements/1.1/" xmlns:cc="http://creativecommons.org/ns#" xmlns:rdf="http://www.w3.org/1999/02/22-rdf-syntax-ns#" xmlns:svg="http://www.w3.org/2000/svg" xmlns="http://www.w3.org/2000/svg" viewBox="0 0 45 45" style="enable-background:new 0 0 45 45;" xml:space="preserve" version="1.1" id="svg2"><metadata id="metadata8"><rdf:RDF><cc:Work rdf:about=""><dc:format>image/svg+xml</dc:format><dc:type rdf:resource="http://purl.org/dc/dcmitype/StillImage"/></cc:Work></rdf:RDF></metadata><defs id="defs6"><clipPath id="clipPath16" clipPathUnits="userSpaceOnUse"><path id="path18" d="M 0,36 36,36 36,0 0,0 0,36 Z"/></clipPath></defs><g transform="matrix(1.25,0,0,-1.25,0,45)" id="g10"><g id="g12"><g clip-path="url(#clipPath16)" id="g14"><g transform="translate(28.7207,23.1509)" id="g20"><path id="path22" style="fill:#292f33;fill-opacity:1;fill-rule:nonzero;stroke:none" d="M 0,0 C 0,0 3.81,-1.643 5.532,-0.45 7.255,0.744 7.642,2.323 6.691,4.287 5.74,6.248 3.067,7.019 2.979,9.579 c 0,0 -0.297,-4.141 1.513,-5.504 C 7.054,2.142 4.046,-0.135 0.97,0.247 -2.108,0.628 0,0 0,0"/></g><g transform="translate(23.875,16.625)" id="g24"><path id="path26" style="fill:#8a4b38;fill-opacity:1;fill-rule:nonzero;stroke:none" d="m 0,0 c 0,0 -0.628,-2.542 0.187,-5.03 0.145,-0.34 0.048,-0.556 -0.208,-0.678 -0.256,-0.123 -4.294,-1.542 -4.729,-1.771 -0.396,-0.208 -1.143,-1.78 -1.208,-2.854 0.843,-0.218 1.625,-0.105 1.625,-0.105 0,0 0.025,1.916 0.208,2.042 0.183,0.127 5.687,1.047 6.062,1.771 0.376,0.724 1.612,3.888 0.813,5.292 -0.225,0.395 -0.637,1.149 -0.637,1.149 L 0,0 Z"/></g><g transform="translate(17.9165,6.292)" id="g28"><path id="path30" style="fill:#292f33;fill-opacity:1;fill-rule:nonzero;stroke:none" d="m 0,0 c 0,0 -0.616,-1.993 0.009,-2.139 0.605,-0.141 1.694,0.388 1.755,0.646 0.08,0.343 0.216,1.179 0.098,1.366 C 1.744,0.061 0,0 0,0"/></g><g transform="translate(11.8125,14.125)" id="g32"><path id="path34" style="fill:#8a4b38;fill-opacity:1;fill-rule:nonzero;stroke:none" d="m 0,0 -0.75,2.563 c 0,0 -2.766,-2.106 -3.938,-3.594 -0.345,-0.438 -1.847,-3.198 -1.722,-4.413 0.05,-0.488 0.473,-2.583 0.473,-2.583 l 1.652,0.465 c 0,0 -1.313,1.895 -1.021,2.562 C -3.879,-1.738 0,0 0,0"/></g><g transform="translate(7.6792,6.5762)" id="g36"><path id="path38" style="fill:#292f33;fill-opacity:1;fill-rule:nonzero;stroke:none" d="m 0,0 c -0.172,0.139 -1.803,-0.479 -1.803,-0.479 0,0 0.057,-2.084 0.695,-2.022 0.618,0.061 1.48,0.912 1.454,1.176 C 0.312,-0.975 0.172,-0.14 0,0"/></g><g transform="translate(27.1875,24.8125)" id="g40"><path id="path42" style="fill:#c1694f;fill-opacity:1;fill-rule:nonzero;stroke:none" d="m 0,0 c -3.438,-0.156 -7.207,-0.437 -9.5,-0.437 -3.655,0 -5.219,1.428 -6.562,2.625 -2.287,2.036 -2.959,4.221 -5.125,3.499 0,0 -0.633,0.411 -1.248,0.777 -0.088,0.053 -0.175,0.103 -0.261,0.153 -0.256,0.148 -0.491,0.275 -0.656,0.346 -0.164,0.072 -0.257,0.087 -0.228,0.011 0.019,-0.051 0.093,-0.143 0.237,-0.287 0.472,-0.472 0.675,-0.95 0.728,-1.394 -2.01,-1.202 -2.093,-2.276 -2.871,-3.552 -0.493,-0.807 -1.36,-2.054 -1.56,-2.515 -0.412,-0.948 1.024,-2.053 1.706,-1.407 0.893,0.846 0.961,1.122 2.031,1.744 0.984,0.016 1.976,0.416 2.309,1.02 0,0 0.938,-2.083 1.938,-3.583 1,-1.5 2.5,-3.125 2.5,-3.125 -0.131,-1.228 0.12,-2.176 0.548,-2.922 -0.385,-0.757 -0.923,-1.807 -1.417,-2.745 -0.656,-1.245 -1.473,-3.224 -1.209,-3.618 0.534,-0.797 2.719,-2.926 4.137,-3.311 1.03,-0.279 2.14,-0.436 2.14,-0.436 l -0.193,1.574 c 0,0 -1.342,-0.214 -1.875,0.083 -1.427,0.795 -2.667,2.248 -2.709,2.542 -0.069,0.486 3.842,2.868 5.141,3.645 2.266,-0.097 6.021,0.369 8.626,1.702 0.958,-1.861 2.977,-2.514 2.977,-2.514 0,0 0.667,-2.208 1.375,-4.125 -1.017,-0.532 -4.467,-3.254 -4.974,-3.854 -0.456,-0.541 -0.857,-2.49 -0.857,-2.49 0.821,-0.375 1.571,-0.187 1.571,-0.187 0,0 0.039,1.562 0.385,2.073 0.346,0.511 4.701,2.559 5.959,3.458 0.492,0.352 0.404,0.902 0.262,1.552 -0.322,1.47 -0.971,4.781 -0.971,4.781 C 7.5,-7.937 8.813,0.4 0,0"/></g><g transform="translate(22.3359,2.2178)" id="g44"><path id="path46" style="fill:#292f33;fill-opacity:1;fill-rule:nonzero;stroke:none" d="m 0,0 c 0,0 -0.616,-1.992 0.009,-2.138 0.604,-0.141 1.694,0.388 1.755,0.646 0.08,0.343 0.215,1.179 0.097,1.366 C 1.743,0.062 0,0 0,0"/></g><g transform="translate(14.6606,7.5137)" id="g48"><path id="path50" style="fill:#292f33;fill-opacity:1;fill-rule:nonzero;stroke:none" d="m 0,0 c -0.167,-0.146 0.164,-1.858 0.164,-1.858 0,0 2.064,-0.299 2.111,0.34 C 2.32,-0.898 1.628,0.096 1.365,0.115 1.013,0.143 0.167,0.146 0,0"/></g><g transform="translate(4.5986,27.9531)" id="g52"><path id="path54" style="fill:#292f33;fill-opacity:1;fill-rule:nonzero;stroke:none" d="m 0,0 c 0,-0.192 -0.156,-0.349 -0.349,-0.349 -0.192,0 -0.348,0.157 -0.348,0.349 0,0.192 0.156,0.349 0.348,0.349 C -0.156,0.349 0,0.192 0,0"/></g><g transform="translate(12.6553,26.9302)" id="g56"><path id="path58" style="fill:#292f33;fill-opacity:1;fill-rule:nonzero;stroke:none" d="M 0,0 C 1.773,-1.446 3.147,-0.322 3.147,-0.322 1.853,-0.051 1.091,0.545 0.439,1.24 1.274,1.371 1.727,1.906 1.727,1.906 0.666,1.919 -0.097,2.206 -0.758,2.605 -1.323,3.219 -1.991,3.807 -3.012,4.236 -3.308,4.361 -3.619,4.445 -3.935,4.512 -4.021,4.537 -4.113,4.575 -4.193,4.585 -5.1,4.698 -6.039,4.533 -6.93,3.982 c -0.322,-0.2 -0.214,-0.64 0.118,-0.623 1.74,0.084 2.865,-0.583 3.469,-1.633 2.169,-3.771 5.344,-3.875 5.344,-3.875 0,0 -1.291,0.688 -2.001,2.149"/></g></g></g></g></svg>
