<svg xmlns="http://www.w3.org/2000/svg" viewBox="0 0 45 45" enable-background="new 0 0 45 45"><defs><clipPath id="a"><path d="M0 36h36V0H0v36z"/></clipPath></defs><g><g><g clip-path="url(#a)" transform="matrix(1.25 0 0 -1.25 0 45)"><g><path fill="#ccd6dd" d="M34 21c0 2-2.13 4.7-4 4-8-3-19 2-19 2-2.2 0-6.86-9.26-5-10 .28-.1.54-.23.8-.34C4.65 15.9 4.28 14.2 6 14c9-1 6.9-14 8-14 1.34 0 2.69 2.6 3.42 5h9.8c.3-2.35.87-5 1.78-5 .87 0 2.6 3.54 3.8 9.14.73 2.63 1.2 6.53 1.2 11.86"/></g><g><path fill="#292f33" d="M10 14c-2 0-4.95-.1-6.97-.1C1 13.9-.62 17.4.7 18.7 2 20 6 21 5 25c-.54 2.17 4 3 6 2 4.82-2.4 5-10-2-10 0 0 3-3 1-3"/></g><g><path fill="#292f33" d="M30 25c-2.6-.97-5.5-1.1-8.23-.84-1.1-1.4-1.77-3.2-1.77-5.16 0-4.42 3.36-8 7.5-8 2.6 0 4.87 1.4 6.2 3.52.2 1.87.3 4.02.3 6.48 0 2-2.13 4.7-4 4"/></g><g><path fill="#292f33" d="M21 11.5C21 9.57 19.43 8 17.5 8S14 9.57 14 11.5s1.57 3.5 3.5 3.5 3.5-1.57 3.5-3.5"/></g><g><path fill="#292f33" d="M32 8c0-1.1-.9-2-2-2s-2 .9-2 2 .9 2 2 2 2-.9 2-2"/></g><g><path fill="#ccd6dd" d="M11 27c0-.55-.67-1-1.5-1S5 28.45 5 29c0 .55 2.23.3 3 0 2.5-1 3-1.45 3-2"/></g><g><path fill="#ccd6dd" d="M9 23c0-.55-.45-1-1-1s-1 .45-1 1 .45 1 1 1 1-.45 1-1"/></g><g><path fill="#292f33" d="M35 12c-.55 0-1 .45-1 1v5c0 1.44-.56 2-2 2-.55 0-1 .45-1 1s.45 1 1 1c2.54 0 4-1.46 4-4v-5c0-.55-.45-1-1-1"/></g></g></g></g></svg>