<svg xmlns="http://www.w3.org/2000/svg" viewBox="0 0 45 45" enable-background="new 0 0 45 45"><defs><clipPath id="a"><path d="M0 36h36V0H0v36z"/></clipPath></defs><g><g><g clip-path="url(#a)" transform="matrix(1.25 0 0 -1.25 0 45)"><g><path fill="#ea596e" d="M30 0H17c-.55 0-1 .45-1 1s.45 1 1 1h13c2.54 0 4 1.37 4 3.75C34 7.3 32.36 9 30 9h-7c-.55 0-1 .45-1 1s.45 1 1 1h7c3.6 0 6-2.7 6-5.25C36 2.25 33.65 0 30 0"/></g><g><path fill="#ccd6dd" d="M12 9.28c0 2.85 3 7.04 0 7.04-4 0-10.14-6.57-10.14-8.44C1.86 6 8.3 6 11.16 6 14 6 12 6.43 12 9.28"/></g><g><path fill="#ccd6dd" d="M33 12.1c0 7.97-6.55 9.75-11.38 8.78C12.24 19 10.5 14.44 10.5 10.68 10.5 5.8 19.63 6 24.55 6S33 7.17 33 12.1"/></g><g><path fill="#ccd6dd" d="M25 13.5L7.9 11.63 11.42 6H25v7.5z"/></g><g><path fill="#ccd6dd" d="M16.92 18.86c0 2.68-2 4.85-4.46 4.85S8 21.55 8 18.87c0-2.7 2-4.86 4.46-4.86s4.46 2.17 4.46 4.86"/></g><g><path fill="#f4abba" d="M14.37 18.32c0-1.8-1.14-3.24-2.55-3.24-1.4 0-2.55 1.45-2.55 3.24 0 1.8 1.14 3.24 2.55 3.24 1.4 0 2.55-1.45 2.55-3.24"/></g><g><path fill="#dd2e44" d="M10 11.5c0-.83-.67-1.5-1.5-1.5S7 10.67 7 11.5 7.67 13 8.5 13s1.5-.67 1.5-1.5"/></g></g></g></g></svg>