<svg xmlns="http://www.w3.org/2000/svg" viewBox="0 0 45 45" enable-background="new 0 0 45 45"><defs><clipPath id="a"><path d="M0 36h36V0H0v36z"/></clipPath></defs><g><g><g clip-path="url(#a)" transform="matrix(1.25 0 0 -1.25 0 45)"><g><path fill="#292f33" d="M25 1c-2.75 0-2 6-2 6 0 1.1 2.65 2 3.75 2S30 9.1 30 8c0 0-2.25-7-5-7"/></g><g><path fill="#66757f" d="M28 0c-2.75 0-2 6-2 6 0 1.1 2.65 2 3.75 2S33 8.1 33 7c0 0-2.25-7-5-7"/></g><g><path fill="#292f33" d="M14 1c-2.75 0-4 6-4 6 0 1.1 2.65 2 3.75 2S17 9.1 17 8c0 0-.25-7-3-7"/></g><g><path fill="#66757f" d="M17 0c-2.75 0-4 6-4 6 0 1.1 2.65 2 3.75 2S20 8.1 20 7c0 0-.25-7-3-7"/></g><g><path fill="#e1e8ed" d="M35.75 14.62c0-7.8-4.5-11.4-14.52-11.4S7.75 6.8 7.75 14.6c0 7.78 3.46 11.4 13.48 11.4 10.03 0 14.52-3.62 14.52-11.4"/></g><g><path fill="#99aab5" d="M17 18.33C17 9 12.34 7 8.04 7 3.74 7 1 13.64 1 18.33 1 23.03 3.74 24 8.04 24S17 23.03 17 18.33"/></g><g><path fill="#292f33" d="M6 15.5c0-.83-.67-1.5-1.5-1.5S3 14.67 3 15.5 3.67 17 4.5 17 6 16.33 6 15.5"/></g><g><path fill="#e1e8ed" d="M15.75 23.25c-1.75-3.25-2.13-2.6-7.13-4.6C5.55 17.4 0 17.74 0 22.5 0 24.43 3.7 25 7 25s10.4 1.33 8.75-1.75"/></g><g><path fill="#ffcc4d" d="M16 22.3c3.35-2.42 5.43-6.13 3.72-11.08-1.36-3.97-6.8-3.12-9.6-1.13-2.8 1.98-2.65 4.78-1.75 6.28.9 1.5 4.16 1.23 6.03-.1.93-.66.3-1.56-.72-1.07-2.3 1.13-3.04-1.43-1.25-2.87 1.27-1 3.28-1.05 3.66 1 .66 3.64-3.52 6.3-7.48 5.3C11 20 13.16 24.37 16 22.3"/></g></g></g></g></svg>