<svg xmlns="http://www.w3.org/2000/svg" viewBox="0 0 45 45" enable-background="new 0 0 45 45"><defs><clipPath id="a"><path d="M0 36h36V0H0v36z"/></clipPath></defs><g><g><g clip-path="url(#a)" transform="matrix(1.25 0 0 -1.25 0 45)"><g><path fill="#dd2e44" d="M11.84 28.37c-.72 0-2.3-2.25-3.57-1.03-.44.42 1.82 1.27 1.73 2-.07.62-2.84 1.53-1.88 2.1.97.6 2.42-.83 3.52-.85 2.38-.07 4.2.84 4.24.85.54.28 1.2.05 1.46-.5.27-.54.05-1.2-.5-1.48-.12-.07-2.2-1.1-5-1.1"/></g><g><path fill="#77b255" d="M27.82 0c-3.97 0-8.18 2.9-8.18 8.3 0 1.38-.9 1.67-1.64 1.67-.75 0-1.64-.3-1.64-1.66 0-5.4-4.2-8.3-8.18-8.3C4.22 0 0 2.77 0 8.3c0 13.3 14.18 15.13 14.18 13.3S6.55 22.7 6.55 9.4c0-2.2.9-2.75 1.63-2.75.75 0 1.64.28 1.64 1.66 0 5.4 4.2 8.3 8.18 8.3 3.97.02 8.18-2.9 8.18-8.3 0-1.37.9-1.65 1.64-1.65.75 0 1.63.28 1.63 1.66v16.62c0 3.86-3.4 4.43-5.45 4.43 0 0-3.27-1.1-6.55-1.1-3.27 0-4.36 2.6-4.36 4.43C13.1 34.5 17.44 36 24 36c6.55 0 12-4.45 12-11.08V8.32C36 2.9 31.78 0 27.82 0"/></g><g><path fill="#292f33" d="M20 33c0-.55-.45-1-1-1s-1 .45-1 1 .45 1 1 1 1-.45 1-1"/></g></g></g></g></svg>