<svg xmlns="http://www.w3.org/2000/svg" viewBox="0 0 45 45" enable-background="new 0 0 45 45"><defs><clipPath id="a"><path d="M0 36h36V0H0v36z"/></clipPath><clipPath id="b"><path d="M7 22c-3 0-7-4.38-7-6.38S2 12 2 12s2.17 1 5 1h3l1-10s-1-1-2-1-1-2-1-2h6l1 8h3c2 0 6 1 6 1 2-3 4-4 4-4V3l-2-1c-2-1-1-2-1-2h6s1 8 2 13 0 6-2 7-5 0-9 0c-2 0-3.9 3-9 3-1 0-3-1-6-1"/></clipPath></defs><g><g><g clip-path="url(#a)" transform="matrix(1.25 0 0 -1.25 0 45)"><g><path fill="#ffac33" d="M32.34 19.15c-.37.33-.82.6-1.34.85-2 1-5 0-9 0-2 0-3.9 3-9 3-.8 0-2.26-.64-4.34-.9-.04 1.06-.62 1.9-1.33 1.9C6.6 24 6 23.1 6 22c0-.05 0-.1 0-.15-2.8-.77-6-4.44-6-6.23 0-2 2-3.62 2-3.62s2.17 1 5 1h3l1-10s-1-1-2-1-1-2-1-2h6l1 8h3c2 0 6 1 6 1 2-3 4-4 4-4V3l-2-1c-2-1-1-2-1-2h6s1 8 2 13c.23 1.16.35 2.1.38 2.88.4-.55.62-1.18.62-1.88 0-2.93 0-5.7-1.83-8.45-.3-.46-.2-1.08.27-1.38.18-.12.37-.17.56-.17.32 0 .64.16.83.44C36 7.7 36 10.9 36 14c0 2.3-1.4 4.14-3.66 5.15"/></g><g><path fill="#292f33" d="M6 19c0-.55-.45-1-1-1s-1 .45-1 1 .45 1 1 1 1-.45 1-1"/></g><g><path fill="#292f33" d="M0 16s0-2 1-2c0 2 1 2 1 2s-1 1-2 0"/></g></g></g><g><g clip-path="url(#b)" transform="matrix(1.25 0 0 -1.25 0 45)"><g><path fill="#292f33" d="M16 23s2-6 0-12c3 4 3 12 3 12s-2 1-3 0"/></g><g><path fill="#292f33" d="M19 22s2-4 1-9c2 3 2 9 2 9s-2 1-3 0"/></g><g><path fill="#292f33" d="M22 23s2-4 1-9c2 3 2 9 2 9s-2 1-3 0"/></g><g><path fill="#292f33" d="M25 24s2-4 1-9c2 3 2 9 2 9s-2 1-3 0"/></g><g><path fill="#292f33" d="M28 21.56s2-4 1-9c2 3 2 9 2 9s-2 1-3 0"/></g><g><path fill="#292f33" d="M12 24s2-4 1-9c2 3 2 9 2 9s-2 1-3 0"/></g></g></g></g></svg>