<svg xmlns="http://www.w3.org/2000/svg" viewBox="0 0 45 45" enable-background="new 0 0 45 45"><defs><clipPath id="a"><path d="M0 36h36V0H0v36z"/></clipPath></defs><g><g><g clip-path="url(#a)" transform="matrix(1.25 0 0 -1.25 0 45)"><g><path fill="#3b88c3" d="M36 29c-2-3-2 1-5-2-3 2-3-3-6 0 .9-2.7 3.42-4.58 6.1-4.93-.28-1.8.2-3.94-2.1-6.07-2-1.86-3.02-.3-8 3-3 2-5 4-10 3-5.88-1.18-11-6-11-8S3 .03 21 .03c2 0 5.24.67 8 2.97 5.96 4.98 5.88 15.35 4.58 19.46C35.36 23.58 36 26.6 36 29"/></g><g><path fill="#55acee" d="M30.2 4.2c.16.15.3.33.44.5 1.88 2.35 2.9 5.35 3.36 8.3-2-5-3-10-14-10S5 16 0 14C0 12 3 .03 21 .03c2 0 5.24.67 8 2.97.32.27.6.55.9.85.1.1.2.22.3.34"/></g><g><path fill="#292f33" d="M8 14.5c0-.83-.67-1.5-1.5-1.5S5 13.67 5 14.5 5.67 16 6.5 16 8 15.33 8 14.5"/></g></g></g></g></svg>