<svg xmlns="http://www.w3.org/2000/svg" viewBox="0 0 45 45" enable-background="new 0 0 45 45"><defs><clipPath id="a"><path d="M0 36h36V0H0v36z"/></clipPath></defs><g><g><g clip-path="url(#a)" transform="matrix(1.25 0 0 -1.25 0 45)"><g><path fill="#ffcc4d" d="M32.86 19.52c-.26.17-.55.32-.86.48-2 1-5 0-9 0-2 0-4.9 3-10 3-.8 0-2.26-.63-4.34-.9-.04 1.06-.62 1.9-1.33 1.9C6.6 24 6 23.1 6 22c0-.05 0-.1 0-.15-2.8-.77-6-4.44-6-6.23 0-2 2-3.62 2-3.62s1 0 3 2c1.58 1.58 5 1 5 1l1-12s-1-1-2-1-1-2-1-2h6l1 9h3c2 0 7 1 7 1 2-3 4-4 4-4V3l-2-1c-2-1-1-2-1-2h6s1 8 2 13V8c0-.55.45-1 1-1s1 .45 1 1v7c0 2.67-1.36 3.93-3.14 4.52"/></g><g><path fill="#292f33" d="M5 19c0-.55-.45-1-1-1s-1 .45-1 1 .45 1 1 1 1-.45 1-1"/></g><g><path fill="#292f33" d="M0 16s0-2 1-2c0 2 1 2 1 2s-1 1-2 0"/></g><g><path fill="#ffac33" d="M12 19.5c0-.83-.67-1.5-1.5-1.5S9 18.67 9 19.5s.67 1.5 1.5 1.5 1.5-.67 1.5-1.5"/></g><g><path fill="#f4900c" d="M10.5 20.5c-.55 0-1-.45-1-1s.45-1 1-1 1 .45 1 1-.45 1-1 1m0-3c-1.1 0-2 .9-2 2s.9 2 2 2 2-.9 2-2-.9-2-2-2"/></g><g><path fill="#ffac33" d="M19 19.5c0-.83-.67-1.5-1.5-1.5s-1.5.67-1.5 1.5.67 1.5 1.5 1.5 1.5-.67 1.5-1.5"/></g><g><path fill="#f4900c" d="M17.5 20.5c-.55 0-1-.45-1-1s.45-1 1-1 1 .45 1 1-.45 1-1 1m0-3c-1.1 0-2 .9-2 2s.9 2 2 2 2-.9 2-2-.9-2-2-2"/></g><g><path fill="#ffac33" d="M16 14.5c0-.83-.67-1.5-1.5-1.5s-1.5.67-1.5 1.5.67 1.5 1.5 1.5 1.5-.67 1.5-1.5"/></g><g><path fill="#f4900c" d="M14.5 15.5c-.55 0-1-.45-1-1s.45-1 1-1 1 .45 1 1-.45 1-1 1m0-3c-1.1 0-2 .9-2 2s.9 2 2 2 2-.9 2-2-.9-2-2-2"/></g><g><path fill="#ffac33" d="M23 12.5c0-.83-.67-1.5-1.5-1.5s-1.5.67-1.5 1.5.67 1.5 1.5 1.5 1.5-.67 1.5-1.5"/></g><g><path fill="#f4900c" d="M21.5 13.5c-.55 0-1-.45-1-1s.45-1 1-1 1 .45 1 1-.45 1-1 1m0-3c-1.1 0-2 .9-2 2s.9 2 2 2 2-.9 2-2-.9-2-2-2"/></g><g><path fill="#ffac33" d="M26 17.5c0-.83-.67-1.5-1.5-1.5s-1.5.67-1.5 1.5.67 1.5 1.5 1.5 1.5-.67 1.5-1.5"/></g><g><path fill="#f4900c" d="M24.5 18.5c-.55 0-1-.45-1-1s.45-1 1-1 1 .45 1 1-.45 1-1 1m0-3c-1.1 0-2 .9-2 2s.9 2 2 2 2-.9 2-2-.9-2-2-2"/></g><g><path fill="#ffac33" d="M30 12.5c0-.83-.67-1.5-1.5-1.5s-1.5.67-1.5 1.5.67 1.5 1.5 1.5 1.5-.67 1.5-1.5"/></g><g><path fill="#f4900c" d="M28.5 13.5c-.55 0-1-.45-1-1s.45-1 1-1 1 .45 1 1-.45 1-1 1m0-3c-1.1 0-2 .9-2 2s.9 2 2 2 2-.9 2-2-.9-2-2-2"/></g><g><path fill="#ffac33" d="M33 17.5c0-.83-.67-1.5-1.5-1.5s-1.5.67-1.5 1.5.67 1.5 1.5 1.5 1.5-.67 1.5-1.5"/></g><g><path fill="#f4900c" d="M31.5 18.5c-.55 0-1-.45-1-1s.45-1 1-1 1 .45 1 1-.45 1-1 1m0-3c-1.1 0-2 .9-2 2s.9 2 2 2 2-.9 2-2-.9-2-2-2"/></g></g></g></g></svg>