<svg xmlns="http://www.w3.org/2000/svg" viewBox="0 0 45 45" enable-background="new 0 0 45 45"><defs><clipPath id="a"><path d="M0 36h36V0H0v36z"/></clipPath></defs><g><g><g clip-path="url(#a)" transform="matrix(1.25 0 0 -1.25 0 45)"><g><path fill="#292f33" d="M33.9 21.63C33.6 23.4 32 25 30 25H11c-.24 0-.52-.14-.83-.37-.5.23-1.04.37-1.6.37-1 0-4.74-.38-5.57-2L.7 18.7c-.68-1.97.3-4.8 2.33-4.8.57 0 1.53.02 2.66.03 1.64-.3 3.6-1.5 5.43-2.85C13.25 6.68 14.05 0 15 0c.96 0 2.53 4.4 2.9 7h9.14c.14-2.48.77-7 1.96-7 1.02 0 3.24 4.88 4.35 12.24.3 1.62.53 3.7.6 6.32.04-.17.05-.36.05-.56V6c0-.55.45-1 1-1s1 .45 1 1v12c0 1.8-.75 3.05-2.1 3.63"/></g><g><path fill="#fff" d="M7 20c0-.55-.45-1-1-1s-1 .45-1 1 .45 1 1 1 1-.45 1-1"/></g><g><path fill="#99aab5" d="M10 21c3 0 6.7 1.63 6.7 5.63 0 2-1.54 4.1-4.45 4.16-4.12.08-5.88-2.8-5.25-3.17.53-.32 2 1.87 4.5 1.37 1.86-.37 2.05-1.57 1.67-2.33C12.72 25.77 11 25 9 25s-1-4 1-4"/></g></g></g></g></svg>