<svg xmlns="http://www.w3.org/2000/svg" viewBox="0 0 45 45" enable-background="new 0 0 45 45"><defs><clipPath id="a"><path d="M0 36h36V0H0v36z"/></clipPath></defs><g><g><g clip-path="url(#a)" transform="matrix(1.25 0 0 -1.25 0 45)"><g><path fill="#99aab5" d="M9 25c0 4.14-2 11-1 11s7-4 5-11c-1.14-3.98-.9-4-2-4s-2-.14-2 4"/></g><g><path fill="#f4abba" d="M9.55 24.3c0 3.4-1.3 9.06-.65 9.06s4.54-3.3 3.24-9.06c-.74-3.3-.58-3.3-1.3-3.3-.7 0-1.3-.12-1.3 3.3"/></g><g><path fill="#99aab5" d="M4.8 23.63C3.72 27.63.02 33.73 1 34c.97.26 7.8-2.07 7.65-9.35-.07-4.14.17-4.1-.9-4.38-1.07-.28-1.9-.65-2.96 3.35"/></g><g><path fill="#f4abba" d="M5.5 23.1c-.88 3.28-3.58 8.4-2.95 8.58.62.17 5.23-2.02 5.46-7.93.14-3.36.3-3.33-.4-3.52-.7-.18-1.22-.44-2.1 2.86"/></g><g><path fill="#ccd6dd" d="M36 7.5C36 5.57 34.43 4 32.5 4S29 5.57 29 7.5s1.57 3.5 3.5 3.5S36 9.43 36 7.5"/></g><g><path fill="#99aab5" d="M30.73 4.26C32.23 5.66 33 7.78 33 11c0 7.18-6.82 11-14 11-2.06 0-3.83-.16-5.32-.54C12.58 22.6 10.82 23 8.4 23 4.14 23 0 18.93 0 14.67c0-4.13 3.88-4.64 8-4.67 3-5 1-10 3-10 1.6 0 1.9 2.22 1.98 4.37 1.07-.66 2.26-1.2 3.53-1.57-.87-.53-1.5-1.07-1.5-1.3C15 .12 17 0 20 0c5.52 0 13 0 11 4-.05.1-.15.2-.27.26"/></g><g><path fill="#292f33" d="M7 18c0-.55-.45-1-1-1s-1 .45-1 1 .45 1 1 1 1-.45 1-1"/></g><g><path fill="#f4abba" d="M2 15c0-1.1-.5-2-1-2s-1 .9-1 2 .45 1 1 1 1 .1 1-1"/></g></g></g></g></svg>