<svg xmlns="http://www.w3.org/2000/svg" viewBox="0 0 45 45" enable-background="new 0 0 45 45"><defs><clipPath id="a"><path d="M0 36h36V0H0v36z"/></clipPath></defs><g><g><g clip-path="url(#a)" transform="matrix(1.25 0 0 -1.25 0 45)"><g><path fill="#c1694f" d="M36 24c0 4.25-3.14 7-8 7-.55 0-1-.45-1-1s.45-1 1-1c1.8 0 6-.5 6-5 0-2.88-1.85-4.17-4.05-4.7-.17.08-.33.15-.5.2-3.5.88-4.45-.5-10.45-.5-4.17 0-5.44 4.4-6.83 7.1C11.8 28.16 10.8 32 10 32c-.6 0-1.4-2.03-1.93-4.06C7.4 29.47 6.55 31 6 31c-.7 0-1.42-2.53-1.77-4.7C2.36 25 1 23.16 1 21c0-3 7-5 7-5 2.12-1.1 2.74-2.77 3.3-4.28C13.38 5.34 13.13 0 14.5 0 15.88 0 17 3.36 17 7.5c0 .2 0 .42 0 .63 3.14.1 6.74 1.07 9.78.3C28.14 3.92 28.48 0 29.5 0c.96 0 1.8 3.78 2.2 7.48.04.14.06.3.06.5v.1c.04.32.07.64.1.95l.52 5.6c0 1.1-.26 2.2-.76 3.1C34.45 18.78 36 20.93 36 24"/></g><g><path fill="#292f33" d="M8 23c0-.55-.45-1-1-1s-1 .45-1 1 .45 1 1 1 1-.45 1-1"/></g><g><path fill="#292f33" d="M3 22.63C2 22 2 20 1.5 20S0 21.18 0 22.63s4.23.76 3 0"/></g><g><path fill="#662113" d="M3 19.5c-.18 0-.36.1-.45.28-.12.24-.02.54.23.67 2.14 1.07 6.17.08 6.34.03.27-.06.43-.33.36-.6-.06-.27-.33-.43-.6-.37-.04.02-3.85.96-5.66.05-.07-.03-.14-.05-.22-.05"/></g><g><path fill="#662113" d="M8 17.5c-.1 0-.2.03-.28.08-.03.02-2.9 1.92-4.72 1.92-.28 0-.5.22-.5.5s.22.5.5.5c2.13 0 5.15-2 5.28-2.08.23-.16.3-.47.14-.7-.1-.14-.26-.22-.42-.22"/></g></g></g></g></svg>