<svg xmlns="http://www.w3.org/2000/svg" viewBox="0 0 45 45" enable-background="new 0 0 45 45"><defs><clipPath id="a"><path d="M0 36h36V0H0v36z"/></clipPath></defs><g><g><g clip-path="url(#a)" transform="matrix(1.25 0 0 -1.25 0 45)"><g><path fill="#292f33" d="M7.5 11.48c-.26 0-.5.1-.7.3-.4.4-.4 1.02 0 1.4l16 16.03c.4.4 1.03.4 1.42 0 .4-.38.4-1.02 0-1.4l-16-16.02c-.2-.2-.46-.3-.72-.3"/></g><g><path fill="#292f33" d="M15.78 23.22c-.22 0-.44.07-.62.22-.43.34-.5.97-.16 1.4.1.15 2.57 3.36.97 7.57-.2.53.06 1.1.58 1.3.52.2 1.1-.06 1.3-.57 2-5.3-1.15-9.36-1.3-9.53-.18-.25-.47-.38-.77-.38"/></g><g><path fill="#292f33" d="M19.67 19.33c-.22 0-.44.08-.62.23-.43.34-.5.96-.16 1.4.13.17 3.42 4.2 9.3 2.72.55-.13.87-.68.74-1.2-.13-.55-.68-.87-1.2-.74-4.63 1.16-7.18-1.9-7.3-2.04-.2-.24-.48-.37-.77-.37"/></g><g><path fill="#292f33" d="M6.45 17.5c-1.1 0-2.3.18-3.58.66-.5.2-.77.77-.58 1.3.2.5.77.77 1.28.57 4.22-1.6 7.44.87 7.58.97.43.34 1.06.27 1.4-.16.34-.44.27-1.06-.16-1.4-.13-.1-2.5-1.95-5.95-1.95"/></g><g><path fill="#292f33" d="M8.02 25.55c-1.83 0-4.97.5-7.54 3.34-.37.4-.34 1.03.07 1.4.4.37 1.04.34 1.4-.07C5 26.88 9 27.6 9.16 27.63c.53.1 1.06-.24 1.17-.78.1-.54-.24-1.06-.78-1.17-.07-.02-.65-.13-1.52-.13"/></g><g><path fill="#292f33" d="M9.34 25.66c-.07 0-.13 0-.2.02-.54.1-.9.63-.78 1.17.03.18.76 4.17-2.6 7.2-.4.36-.43 1-.06 1.4.37.4 1 .44 1.4.07 4.23-3.8 3.26-8.85 3.22-9.06-.1-.47-.5-.8-.98-.8"/></g><g><path fill="#292f33" d="M13.3 7.03c-.46 0-.87.3-.98.76-1.47 5.88 2.55 9.17 2.73 9.3.43.35 1.06.28 1.4-.15.34-.43.27-1.06-.16-1.4-.15-.12-3.2-2.67-2.04-7.28.13-.53-.2-1.08-.73-1.2-.08-.03-.16-.04-.24-.04"/></g><g><path fill="#292f33" d="M29.84 16.83c-2.96 2.96-6.1 3.57-8.9 2.07-.17 1.87-1.18 4-2.53 5.36-1.48 1.5-3 1.66-4.4 1.05 1.06 2.47.6 5.44-.82 6.86-1.85 1.85-4.6.42-7.18-2.16s-4-5.34-2.17-7.18c1.43-1.42 4.4-1.88 6.86-.82-.62-1.4-.45-2.92 1.03-4.4 1.36-1.36 3.5-2.37 5.37-2.53-1.5-2.82-.9-5.95 2.07-8.9 3.75-3.76 12.2-5.54 14.2-3.54s.22 10.45-3.53 14.2"/></g></g></g></g></svg>