<svg xmlns="http://www.w3.org/2000/svg" viewBox="0 0 45 45" enable-background="new 0 0 45 45"><defs><clipPath id="a"><path d="M0 36h36V0H0v36z"/></clipPath></defs><g><g><g clip-path="url(#a)" transform="matrix(1.25 0 0 -1.25 0 45)"><g><path fill="#c1694f" d="M24.88 30.05c-1.7-2.85-.74-6.53 2.12-8.22 2.85-1.68 4.32-2.68 6 .17 1.7 2.85 2.48 12.24 1.62 12.75-.86.5-8.06-1.85-9.74-4.7"/></g><g><path fill="#662113" d="M24.62 26.6c-1.68-2.84-1.17-6.27 1.16-7.64 2.32-1.37 4.54-.17 6.22 2.7 1.7 2.84 2.1 9.8 1.4 10.22-.7.4-7.1-2.4-8.78-5.27"/></g><g><path fill="#c1694f" d="M11.12 30.05c1.68-2.85.74-6.53-2.12-8.22-2.85-1.68-4.32-2.68-6 .17C1.3 24.85.52 34.24 1.38 34.75c.86.5 8.05-1.85 9.74-4.7"/></g><g><path fill="#662113" d="M11.38 26.6c1.68-2.84 1.17-6.27-1.16-7.64C7.9 17.6 5.68 18.8 4 21.66c-1.7 2.84-2.1 9.8-1.4 10.22.7.4 7.1-2.4 8.78-5.27"/></g><g><path fill="#c1694f" d="M35 14.52C35 4.52 34 0 18 0S1 4.53 1 14.52C1 24.52 8 34 18 34s17-9.5 17-19.48"/></g><g><path fill="#e1e8ed" d="M7.65 7S4 10 3 18.5c-.22 2 1.7 1.98 2 0C6 12 11.37 8 14 6c2.26-1.7-6.35 1-6.35 1"/></g><g><path fill="#e1e8ed" d="M28.35 7S32 10 33 18.5c.22 2-1.7 1.98-2 0C30 12 24.63 8 22 6c-2.25-1.7 6.35 1 6.35 1"/></g><g><path d="M29 7c0-1.1-3.82-3-11-3S7 5.9 7 7s3.82-1 11-1 11 2.1 11 1"/></g><g><path fill="#662113" d="M28 12.88c0-4.5-3.1-9.38-10-9.38S8 8.4 8 12.88s3.1 5.62 10 5.62 10-1.14 10-5.63"/></g><g><path fill="#c1694f" d="M15 11.4c0-1.86-.34-2.4-1.5-2.4s-1.5.54-1.5 2.4c0 1.86.34 2.4 1.5 2.4s1.5-.54 1.5-2.4"/></g><g><path fill="#c1694f" d="M24 11.4c0-1.86-.34-2.4-1.5-2.4s-1.5.54-1.5 2.4c0 1.86.34 2.4 1.5 2.4s1.5-.54 1.5-2.4"/></g><g><path fill="#292f33" d="M13 21c0-1.1-.9-2-2-2s-2 .9-2 2 .9 2 2 2 2-.9 2-2"/></g><g><path fill="#292f33" d="M27 21c0-1.1-.9-2-2-2s-2 .9-2 2 .9 2 2 2 2-.9 2-2"/></g></g></g></g></svg>