<svg xmlns="http://www.w3.org/2000/svg" viewBox="0 0 45 45" enable-background="new 0 0 45 45"><defs><clipPath id="a"><path d="M0 36h36V0H0v36z"/></clipPath></defs><g><g><g clip-path="url(#a)" transform="matrix(1.25 0 0 -1.25 0 45)"><g><path fill="#ffac33" d="M7.44 28.5c-1 4 3.7 6 8 4 .9-.42.95-1.32 0-1-3 1-6-1-4-4 1.1-1.67-3.23-2.07-4 1"/></g><g><path fill="#ffcc4d" d="M6.14 30.22c-1 4 3.68 6 8 4 .9-.43.95-1.32 0-1-3 1-6-1-4-4 1.1-1.67-3.24-2.07-4 1"/></g><g><path fill="#e1e8ed" d="M5 21.22c0-4-2-4.83-2-4 0 2-1 0-1 1v3c0 1.65.67 3 1.5 3s1.5-1.35 1.5-3"/></g><g><path fill="#ccd6dd" d="M35.16 25.5c-.68 1.65-2.3 2.72-4.16 2.72-.55 0-1-.45-1-1 0-.56.45-1 1-1 1.03 0 1.94-.58 2.3-1.48.35-.82.18-1.75-.44-2.64-1 1.5-2.6 2.62-4.86 2.62-2.4 0-7.28-.72-10.83-1.3-.05.1-.1.2-.17.3-2 3-4 8.15-7 8.15-4 0-10-4.98-10-9.15 0-2.55 5.74-2.93 7.5-3 .68-1.42 1.4-2.93 2.22-4.32.06-.2.15-.43.28-.7C13 8.7 13.12.2 14.5.2s2.5 4.87 2.5 9c0 .17 0 .3 0 .46 3.12-.65 6.6-.32 9.67.6C28.12 5.24 28.44.22 29.5.22c1.34 0 2.43 8.83 2.5 13.13 1.32 1.44 2 3.16 2 4.9 0 .6-.1 1.22-.25 1.83 1.62 1.64 2.14 3.67 1.4 5.45"/></g><g><path fill="#292f33" d="M8 26.72c0-.56-.45-1-1-1s-1 .44-1 1c0 .55.45 1 1 1s1-.45 1-1"/></g></g></g></g></svg>