<svg xmlns="http://www.w3.org/2000/svg" viewBox="0 0 45 45" enable-background="new 0 0 45 45"><defs><clipPath id="a"><path d="M0 36h36V0H0v36z"/></clipPath></defs><g><g><g clip-path="url(#a)" transform="matrix(1.25 0 0 -1.25 0 45)"><g><path fill="#ffac33" d="M11.98 32.44c4.55.26 7.83-1.6 8.1-6.83.2-4.18-5.2-6.78-8.05-6.87-2.47-.07-1.36 1.86.6 2.34 1.58.4 4.13 2.4 3.6 4.44-.6 2.33-4.3 2.7-6.34-.28-.8-1.17-3.57-.88-4.1.43-.97 2.3 1.2 6.5 6.18 6.8"/></g><g><path fill="#e1e8ed" d="M35.75 14.62c0 7.78-4.5 11.4-14.52 11.4-1.08 0-2.08-.05-3.02-.13-1.35 2.4-4.83 2.8-8.2 2.8-4.3 0-10-6.13-10-10.82C0 13.28 3.6 13 7.8 13c.24-3.24 1.24-5.65 3.26-7.26C11.34 4.6 12.6 0 15 0c1.35 0 2.1 1.7 2.5 3.42 1.14-.14 2.37-.2 3.73-.2 1.73 0 3.3.1 4.7.32C26.03 1.9 26.46 0 28 0c2.32 0 4.27 4.96 4.83 6.52 1.97 1.87 2.92 4.55 2.92 8.1"/></g><g><path fill="#292f33" d="M6 20.2c0-.8-.67-1.5-1.5-1.5S3 19.4 3 20.2c0 .84.67 1.5 1.5 1.5S6 21.05 6 20.2"/></g><g><path fill="#ffcc4d" d="M17.56 31.66c4.3-1.45 5.74-4.15 4.04-9.1-1.37-3.96-7.35-4.36-10.04-3.37-2.3.84-.56 2.2 1.44 1.93 1.6-.23 4.73.7 5 2.77.3 2.37-3 4.1-6 2.1-1.18-.78-5.77-.43-5.5.96.64 3.22 6.34 6.3 11.06 4.7"/></g></g></g></g></svg>