<svg xmlns="http://www.w3.org/2000/svg" viewBox="0 0 45 45" enable-background="new 0 0 45 45"><defs><clipPath id="a"><path d="M0 36h36V0H0v36z"/></clipPath></defs><g><g><g clip-path="url(#a)" transform="matrix(1.25 0 0 -1.25 0 45)"><g><path fill="#553788" d="M10 24c3-5 0-10.7-3-9.7s-4-2-1-3 9.46.47 13 4c1 1 2 1 2 1L10 24z"/></g><g><path fill="#553788" d="M26 24c-3-5 0-10.7 3-9.7s4-2 1-3-9.46.47-13 4c-1 1-2 1-2 1L26 24z"/></g><g><path fill="#744eaa" d="M30.2 20c-3-5 0-10.7 3-9.7s4-2 1-3-9.48.47-13 4c-1 1-2 1-2 1l11 7.7z"/></g><g><path fill="#744eaa" d="M5.8 20c3-5 0-10.7-3-9.7s-4-2-1-3 9.48.47 13 4c1 1 2 1 2 1L5.8 20z"/></g><g><path fill="#9266cc" d="M33.2 4.63c-2.74-.9-6.44 5.62-4.82 10.57C30.02 18.45 31 22.06 31 25c0 7.18-5.82 11-13 11S5 32.18 5 25c0-2.94.98-6.55 2.62-9.8 1.62-4.95-2.08-11.48-4.8-10.57-3 1-4-3-1-4s8.3.62 12 4c2.18 2 4.18 2 4.18 2s2 0 4.2-2c3.68-3.38 9-5 12-4s2 5-1 4"/></g><g><path fill="#292f33" d="M16 15c0-1.1-.9-2-2-2s-2 .9-2 2 .9 2 2 2 2-.9 2-2"/></g><g><path fill="#292f33" d="M24 15c0-1.1-.9-2-2-2s-2 .9-2 2 .9 2 2 2 2-.9 2-2"/></g></g></g></g></svg>