<svg xmlns="http://www.w3.org/2000/svg" viewBox="0 0 45 45" enable-background="new 0 0 45 45"><defs><clipPath id="a"><path d="M0 36h36V0H0v36z"/></clipPath></defs><g><g><g clip-path="url(#a)" transform="matrix(1.25 0 0 -1.25 0 45)"><g><path fill="#99aab5" d="M34.45 20.43c-.86 7.3-5.73 10.44-13.93 10.44-.4 0-.76 0-1.13-.03-.03 0-.04.02-.05.03-4.7 3.53-15.26 2.35-17.6-1.17-3.26-4.88-1.18-22.3 0-24.65C2.92 2.7 6.45 1.53 7.6 2.7c1.2 1.18 0 1.18-1.16 3.53-.85 1.7-.47 5.86.25 8.47.02-.17.06-.32.1-.5.38-2.86 2-7.4 2-9.73C8.8.9 10.9.37 13.47.37c2.6 0 4.7.53 4.7 4.1 0 .24 0 .46-.02.7.76-.07 1.54-.12 2.36-.12.5 0 .98.02 1.45.04 0-.2 0-.42 0-.63 0-3.57 2.1-4.1 4.68-4.1 2.6 0 4.7.53 4.7 4.1 0 1.8 1.2 4.62 2.04 6.98.15.35.28.73.4 1.12.13-1.3.2-2.7.2-4.2 0-.56.45-1 1-1s1 .44 1 1c0 5.14-.77 9.24-1.55 12.06"/></g><g><path fill="#66757f" d="M19.35 30.87s3.65-5.5.65-10.5-7.84-5-11-5c-2 0-1-2 0-2 1.4 0 8.4-1.22 12 6 3 6-1.65 11.5-1.65 11.5"/></g><g><path fill="#292f33" d="M8 21.86c0-.83-.67-1.5-1.5-1.5s-1.5.67-1.5 1.5.67 1.5 1.5 1.5S8 22.7 8 21.86"/></g></g></g></g></svg>