<svg xmlns="http://www.w3.org/2000/svg" viewBox="0 0 45 45" enable-background="new 0 0 45 45"><defs><clipPath id="a"><path d="M0 36h36V0H0v36z"/></clipPath></defs><g><g><g clip-path="url(#a)" transform="matrix(1.25 0 0 -1.25 0 45)"><g><path fill="#f4abba" d="M33.74 15.63c-.8 5.54-5.2 9.78-12.56 9.78-.3 0-.63 0-.97-.02-1.47-.06-2.95-.25-4.4-.56-.74-.14-1.5-.32-2.24-.5-.78 1.04-2.34 2.15-2.74 2.15-.5 0-.03-1.87 0-3.05-.88-.35-1.7-.74-2.35-1.18-3.18-2.12-3.18-3.18-6.84-3.18-1.63 0-1.6-1.66-1.6-3.7 0-2.05-.03-2.62 1.6-3.7 2.2-1.47 4.73-3.63 7.95-5.4C11.6 3.1 9.9 0 11.65 0c1.22 0 2.8 1.96 3.65 3.94 1.78-.47 3.73-.76 5.88-.76 1.14 0 2.2.08 3.2.24C24.65 1.48 24.22 0 25.4 0c1.57 0 7 5 8.23 11.3.06.28.1.57.14.87 0 .1.03.18.04.27.03.2.04.4.05.6 1.05-.26 2.15-.68 2.15.2 0 .7-1.12 1.7-2.26 2.4"/></g><g><path fill="#292f33" d="M10.6 19.06c0-.6-.5-1.06-1.07-1.06-.6 0-1.06.47-1.06 1.06 0 .58.47 1.06 1.06 1.06.58 0 1.06-.48 1.06-1.06"/></g></g></g></g></svg>