<svg xmlns="http://www.w3.org/2000/svg" viewBox="0 0 45 45" enable-background="new 0 0 45 45"><defs><clipPath id="a"><path d="M0 36h36V0H0v36z"/></clipPath></defs><g><g><g clip-path="url(#a)" transform="matrix(1.25 0 0 -1.25 0 45)"><g><path fill="#e1e8ed" d="M20.14 3.8c0-1.2-.96-2.16-2.14-2.16-1.18 0-2.14.96-2.14 2.15 0 1.17.96 2.13 2.14 2.13 1.18 0 2.14-.96 2.14-2.14"/></g><g><path fill="#e1e8ed" d="M27.64 20.36c0 5.32-4.32 9.64-9.64 9.64-5.33 0-9.64-4.32-9.64-9.64C8.36 15 7.3 3.78 7.3 3.78c0-1.18.95-2.14 2.13-2.14s2.14.96 2.14 2.14c0-1.18.96-2.14 2.14-2.14 1.2 0 2.16.96 2.16 2.14h4.28c0-1.18.96-2.14 2.15-2.14 1.17 0 2.13.96 2.13 2.14 0-1.18.96-2.14 2.14-2.14 1.18 0 2.14.96 2.14 2.14 0 0-1.06 11.22-1.06 16.58"/></g><g><path fill="#dd2e44" d="M20 33c0-2.2-1.45-6-2-6s-2 3.8-2 6 1.45 3 2 3 2-.8 2-3"/></g><g><path fill="#dd2e44" d="M15.63 3c0 2.6 1.72 8 2.37 8 .65 0 2.36-5.4 2.36-8 0-2.6-1.7-3-2.36-3-.65 0-2.37.4-2.37 3"/></g><g><path fill="#f4900c" d="M25 13.5C25 12 20.2 9 18 9s-7 3-7 4.5 4.8 4.5 7 4.5 7-3 7-4.5"/></g><g><path fill="#ffac33" d="M25 13.5c0-1.5-14-1.5-14 0s4.8 4.5 7 4.5 7-3 7-4.5"/></g><g><path fill="#292f33" d="M13 17.5c0-.83-.67-1.5-1.5-1.5s-1.5.67-1.5 1.5.67 1.5 1.5 1.5 1.5-.67 1.5-1.5"/></g><g><path fill="#292f33" d="M26 17.5c0-.83-.67-1.5-1.5-1.5s-1.5.67-1.5 1.5.67 1.5 1.5 1.5 1.5-.67 1.5-1.5"/></g></g></g></g></svg>