<svg xmlns="http://www.w3.org/2000/svg" viewBox="0 0 45 45" enable-background="new 0 0 45 45"><defs><clipPath id="a"><path d="M0 36h36V0H0v36z"/></clipPath></defs><g><g><g clip-path="url(#a)" transform="matrix(1.25 0 0 -1.25 0 45)"><g><path fill="#99aab5" d="M17 26.5c0-4.7-3.8-8.5-8.5-8.5S0 21.8 0 26.5 3.8 35 8.5 35s8.5-3.8 8.5-8.5"/></g><g><path fill="#99aab5" d="M36 26.5c0-4.7-3.8-8.5-8.5-8.5S19 21.8 19 26.5s3.8 8.5 8.5 8.5 8.5-3.8 8.5-8.5"/></g><g><path fill="#f4abba" d="M13.8 25.97c0-3.23-2.6-5.85-5.83-5.85s-5.85 2.62-5.85 5.85c0 3.23 2.62 5.84 5.85 5.84 3.23 0 5.84-2.6 5.84-5.83"/></g><g><path fill="#f4abba" d="M33.88 25.97c0-3.23-2.62-5.85-5.85-5.85-3.23 0-5.84 2.62-5.84 5.85 0 3.23 2.6 5.84 5.83 5.84s5.84-2.6 5.84-5.83"/></g><g><path fill="#99aab5" d="M30 18c0-7.18-8-15-12-15S6 10.82 6 18s7 9 12 9 12-1.82 12-9"/></g><g><path fill="#f4abba" d="M20.9 6.35c0-1.6-2-3.35-2.9-3.35-.9 0-2.9 1.75-2.9 3.35S16.87 8.3 18 8.3c1.12 0 2.9-.34 2.9-1.95"/></g><g><path fill="#66757f" d="M35 3.84c-.18 0-.35.05-.5.14-4.64 2.78-11.3 1.88-11.36 1.87-.56-.08-1.05.3-1.13.85-.07.55.3 1.05.86 1.13.3.04 7.4 1 12.66-2.13.47-.3.62-.9.34-1.38-.2-.3-.52-.48-.86-.48"/></g><g><path fill="#66757f" d="M32 .84c-.3 0-.6.14-.8.4-2.73 3.64-8.3 4.6-8.36 4.6-.55.1-.92.62-.83 1.16.1.55.62.92 1.16.83.27-.05 6.44-1.12 9.64-5.4.33-.43.24-1.06-.2-1.4-.18-.13-.4-.2-.6-.2"/></g><g><path fill="#66757f" d="M1 3.84c-.34 0-.67.17-.86.48-.28.48-.13 1.1.34 1.38 5.25 3.14 12.36 2.17 12.66 2.13.55-.08.93-.58.85-1.13-.1-.55-.6-.93-1.14-.85-.07 0-6.72.9-11.35-1.87-.15-.1-.32-.14-.5-.14"/></g><g><path fill="#66757f" d="M4 .84c-.2 0-.42.06-.6.2-.44.33-.53.96-.2 1.4 3.2 4.27 9.38 5.34 9.63 5.4.55.08 1.06-.3 1.16-.84.08-.54-.3-1.06-.83-1.15-.06 0-5.65-1-8.37-4.6-.2-.27-.5-.4-.8-.4"/></g><g><path fill="#272b2b" d="M12 15s0 2 2 2 2-2 2-2v-2s0-2-2-2-2 2-2 2v2z"/></g><g><path fill="#272b2b" d="M20 15s0 2 2 2 2-2 2-2v-2s0-2-2-2-2 2-2 2v2z"/></g></g></g></g></svg>