<svg xmlns="http://www.w3.org/2000/svg" viewBox="0 0 45 45" enable-background="new 0 0 45 45"><defs><clipPath id="a"><path d="M0 36h36V0H0v36z"/></clipPath></defs><g><g><g clip-path="url(#a)" transform="matrix(1.25 0 0 -1.25 0 45)"><g><path fill="#ffac33" d="M8.92 23.12c-.1-1.65 1.76-3.13-.72-2.96C5.72 20.33.37 22.7.44 23.7c.06 1 3.7 2.75 6.18 2.58 2.48-.17 2.4-1.5 2.3-3.16"/></g><g><path fill="#ffac33" d="M29.04 7.07c-.2.03-.4 0-.57-.1-2.32-.23-3.22 1.9-3.22 1.9-.44.33-.98 2-1.6 1.2l.2-1.4c.18-1.4 2.57-3.22 2.57-3.22l-1.22-1.6c-.33-.43-.25-1.06.2-1.4.43-.33 1.05-.24 1.4.2l.66.88-.04-.25c-.08-.55.3-1.06.83-1.15.55-.08 1.06.3 1.15.83l.47 2.97c.1.54-.3 1.05-.83 1.14"/></g><g><path fill="#ffac33" d="M22.76 6.45c-.2.06-.4.04-.57-.02-2.35.08-2.95 2.3-2.95 2.3-.4.4-.7 2.12-1.42 1.42V8.73c0-1.4 2.12-3.54 2.12-3.54l-1.42-1.42c-.4-.4-.4-1.02 0-1.4.4-.4 1.02-.4 1.4 0l.8.77-.08-.24c-.16-.52.14-1.08.67-1.24.53-.16 1.1.14 1.25.67l.86 2.87c.16.53-.14 1.1-.67 1.25"/></g><g><path fill="#dd2e44" d="M35 29.27c-.37.17-.75.06-1.04-.24-.05-.06-4.23-6.3-14.53-4.95-.34.05 3.14-11.97 3.2-11.96.12.02 3.07.37 6.14 2.55 2.8 2 6.28 6 6.8 13.6.02.42-.18.83-.56 1"/></g><g><path fill="#dd2e44" d="M34.48 14.9c-.2.33-.6.55-.98.46-1.3-.3-3.2-.54-4.53-.45-6.36.44-9.36 4.14-9.4 4.17-.27.28.47-11.55.82-11.58 9.2-.62 13.85 6.02 14.05 6.3.22.33.23.76.03 1.1"/></g><g><path fill="#dd2e44" d="M24.6 16.98c-.38-5.5 1.3-9.86-4.2-9.48-5.52.37-10.15 4.92-9.78 10.43.37 5.5 14.34 4.56 13.97-.95"/></g><g><path fill="#dd2e44" d="M23.26 23.6c-.36-5.25-3.93-9.27-9.16-8.92-5.23.36-9.2 4.9-8.84 10.12.35 5.24 4.83 8.45 10.07 8.1 4-.28 8.24-4.7 7.93-9.3"/></g><g><path fill="#292f33" d="M12.67 26.88c-.08-1.1-1.03-1.94-2.13-1.86-1.1.07-1.94 1.02-1.87 2.13.08 1.1 1.03 1.93 2.13 1.86 1.1-.07 1.94-1.02 1.87-2.12"/></g><g><path fill="#a0041e" d="M18.18 19.35s7.63-5.64 12.4 4.46c.38.86 1.67-.78.1-4.15-1.6-3.37-8.2-6.44-12.06-1.53-.8 1.03-.44 1.23-.44 1.23"/></g><g><path fill="#dd2e44" d="M15.33 32.9s6.24-.26 7.8.47c1.55.73.13-2.93-3.27-3.8-3.4-.85-4.53 3.32-4.53 3.32"/></g><g><path fill="#dd2e44" d="M17.43 30.2s4.5-.12 6.05.6c1.55.74.14-2.93-3.26-3.78-3.4-.86-2.8 3.2-2.8 3.2"/></g></g></g></g></svg>