<svg xmlns="http://www.w3.org/2000/svg" viewBox="0 0 45 45" enable-background="new 0 0 45 45"><defs><clipPath id="a"><path d="M0 36h36V0H0v36z"/></clipPath><clipPath id="b"><path d="M2.26 16.97C1.82 16.2 0 16 0 15.25c0-.34.34-.77 1.27-1.4-3.1-2.06.45-2.23 1.23-3.1 2.62-2.9 9-6.2 14.3-6.2 6.84 0 13.43 5.56 13.43 12.42 0 6.85-5.17 14.48-13.44 14.48-8.3 0-12.07-10.22-14.54-14.48"/></clipPath><clipPath id="c"><path d="M0 36h36V0H0v36z"/></clipPath></defs><g><g><g clip-path="url(#a)" transform="matrix(1.25 0 0 -1.25 0 45)"><g><path fill="#ffac33" d="M8.23 26c6 8 14 10 18 10 1 0 1-1 0-1s-6-2-7-9-11 0-11 0"/></g><g><path fill="#ffac33" d="M7.23 8c4-3 13-8 18-8 3 0 2 1 1 1s-9 3-10 7-9 0-9 0"/></g><g><path fill="#ffcc4d" d="M29 17c0-4.42 3.8-10 6-10s-2 5.58-2 10 4.2 10 2 10-6-5.58-6-10"/></g><g><path fill="#ffcc4d" d="M30.23 16.97c0-6.86-6.6-12.4-13.44-12.4-5.3 0-11.68 3.27-14.3 6.2-.78.85-4.33 1.02-1.23 3.1-3.1 2.06.36 2 1 3.1 2.46 4.26 6.24 14.47 14.52 14.47 8.26 0 13.43-7.62 13.43-14.47"/></g></g></g><g><g clip-path="url(#b)" transform="matrix(1.25 0 0 -1.25 0 45)"><g><path fill="#f4900c" d="M19 17s-.02 0-.03 0c-.55.02-1 .48-.97 1.03.25 7.54 7.3 10.75 7.6 10.88.5.24 1.1 0 1.3-.5.24-.5 0-1.1-.5-1.3-.25-.13-6.2-2.86-6.4-9.13-.02-.54-.46-.97-1-.97"/></g><g><path fill="#f4900c" d="M24 19c-.06 0-.13 0-.2.02-.54.1-.9.64-.78 1.18C23.94 24.8 28 26 30 26c.55 0 1-.45 1-1s-.44-1-1-1c-.17 0-4.2-.08-5.02-4.2-.1-.47-.5-.8-.98-.8"/></g><g><path fill="#f4900c" d="M14 15c-.55 0-1 .45-1 1 0 12.6 10.6 15.93 10.7 15.96.54.16 1.1-.14 1.26-.67.16-.54-.14-1.1-.67-1.26-.42-.12-9.3-2.98-9.3-14.04 0-.55-.45-1-1-1"/></g></g></g><g><g clip-path="url(#c)" transform="matrix(1.25 0 0 -1.25 0 45)"><g><path fill="#292f33" d="M11 20.5c0-.83-.67-1.5-1.5-1.5S8 19.67 8 20.5 8.67 22 9.5 22s1.5-.67 1.5-1.5"/></g></g></g></g></svg>