<svg xmlns="http://www.w3.org/2000/svg" viewBox="0 0 45 45" enable-background="new 0 0 45 45"><defs><clipPath id="a"><path d="M0 36h36V0H0v36z"/></clipPath></defs><g><g><g clip-path="url(#a)" transform="matrix(1.25 0 0 -1.25 0 45)"><g><path fill="#f4900c" d="M8.5 20.07c0-1.66 2-2-.5-2s-6 1-6 2 1.53 3 4 3c2.5 0 2.5-1.34 2.5-3"/></g><g><path fill="#ffac33" d="M27.88 2.97c-.1.18-.25.3-.42.4-1.6 1.7-.46 3.7-.46 3.7 0 .55 1 2 0 2l-1-1c-1-1-1-4-1-4h-2c-.55 0-1-.45-1-1s.45-1 1-1h1.1l-.2-.12c-.5-.26-.68-.87-.42-1.36.26-.5.87-.67 1.36-.4l2.64 1.42c.48.26.66.87.4 1.35"/></g><g><path fill="#ffac33" d="M20.88 2.97c-.1.18-.25.3-.42.4-1.6 1.7-.46 3.7-.46 3.7 0 .55 1 2 0 2l-1-1c-1-1-1-4-1-4h-2c-.55 0-1-.45-1-1s.45-1 1-1h1.1l-.2-.12c-.5-.26-.68-.87-.42-1.36.26-.5.87-.67 1.36-.4l2.64 1.42c.48.26.66.87.4 1.35"/></g><g><path fill="#ffcc4d" d="M35.22 18.7c-1.35 0-7.9-4.62-11.56 5.37 0 0 0 .02 0 .04-.97 3.46-3.82 6.12-7.38 6.8 0 0-.03.03-.04.04 2.15 1.38 2.76.35 2.76 1.13 0 1.18-2.08 1.3-4 0-1.92 1.3-4 1.18-4 0 0-.76.58.2 2.62-1.04C8.8 30.58 5 26.53 5 21.57c0-4.48 3.1-8.22 7.27-9.23 1-4.17 4.75-7.27 9.23-7.27 3.95 0 6.93 1.68 9 4 .54.63.1-.6.83-.24 4.24 2.14 5.17 9.87 3.9 9.87"/></g><g><path fill="#662113" d="M14 22.57c0-.83-.67-1.5-1.5-1.5s-1.5.67-1.5 1.5.67 1.5 1.5 1.5 1.5-.67 1.5-1.5"/></g><g><path fill="#ffac33" d="M21.8 20.07s-2-10 10-10c1 0 0-2-4-2s-10 5-7 11c.64 1.27 1 1 1 1"/></g></g></g></g></svg>