<svg xmlns="http://www.w3.org/2000/svg" viewBox="0 0 45 45" enable-background="new 0 0 45 45"><defs><clipPath id="a"><path d="M0 36h36V0H0v36z"/></clipPath></defs><g><g><g clip-path="url(#a)" transform="matrix(1.25 0 0 -1.25 0 45)"><g><path fill="#ffcc4d" d="M13 30c0-3.3-2.7-6-6-6s-6 2.7-6 6 2.7 6 6 6 6-2.7 6-6"/></g><g><path fill="#ffcc4d" d="M24 6c0-3.3-2.7-6-6-6s-6 2.7-6 6 2.7 6 6 6 6-2.7 6-6"/></g><g><path fill="#dd2e44" d="M22 6c0-2.2-1.8-4-4-4s-4 1.8-4 4 1.8 4 4 4 4-1.8 4-4"/></g><g><path fill="#ffcc4d" d="M35 30c0-3.3-2.7-6-6-6s-6 2.7-6 6 2.7 6 6 6 6-2.7 6-6"/></g><g><path fill="#e6aaaa" d="M11 30c0-2.2-1.8-4-4-4s-4 1.8-4 4 1.8 4 4 4 4-1.8 4-4"/></g><g><path fill="#e6aaaa" d="M33 30c0-2.2-1.8-4-4-4s-4 1.8-4 4 1.8 4 4 4 4-1.8 4-4"/></g><g><path fill="#ffcc4d" d="M34 14c0-7-4.92-7-4.92-7H6.92S2 7 2 14c0 0 1.23 22 16 22s16-22 16-22"/></g><g><path fill="#272b2b" d="M11 19s0 2 2 2 2-2 2-2v-2s0-2-2-2-2 2-2 2v2z"/></g><g><path fill="#272b2b" d="M21 19s0 2 2 2 2-2 2-2v-2s0-2-2-2-2 2-2 2v2z"/></g><g><path fill="#fff" d="M23.68 13c-2.4 0-4.5-.95-5.68-2.38-1.18 1.43-3.28 2.38-5.68 2.38C2 13 2.04 12.58 2 9.82 1.9 4.22 8.63 2.92 12.32 3c2.4.05 4.5 1 5.68 2.4C19.18 4 21.28 3.05 23.68 3c3.7-.08 10.4 1.2 10.32 6.82-.04 2.76 0 3.18-10.32 3.18"/></g><g><path fill="#272b2b" d="M33.66 10.76c.2-.28.33-.6.34-.94.03-1.9-.75-3.3-1.92-4.33L27 5l6.66 5.76z"/></g><g><path fill="#272b2b" d="M15 11c-1-1 2-4 3-4s4 3 3 4-5 1-6 0"/></g><g><path fill="#272b2b" d="M10 33c2.67-2 8-4 8-4s5.33 2 8 4l-8-1-8 1z"/></g><g><path fill="#272b2b" d="M18 34s1.65.62 3.58 1.5c-1.1.32-2.28.5-3.58.5-1.3 0-2.48-.18-3.58-.5C16.35 34.63 18 34 18 34"/></g><g><path fill="#272b2b" d="M11 27c3-2 7-4 7-4s4 2 7 4l-7-1-7 1z"/></g><g><path fill="#272b2b" d="M31.64 24.72L27 21l6-.75c-.33 1.4-.77 2.93-1.36 4.47"/></g><g><path fill="#272b2b" d="M33.56 17.56L28 12h5.83c.1.6.17 1.25.17 2 0 0-.08 1.43-.44 3.56"/></g><g><path fill="#272b2b" d="M2.44 17.56C2.08 15.43 2 14 2 14c0-.75.06-1.4.17-2H8l-5.56 5.56z"/></g><g><path fill="#272b2b" d="M2.34 10.76c-.2-.28-.33-.6-.34-.94-.03-1.9.74-3.3 1.92-4.33L9 5l-6.66 5.76z"/></g><g><path fill="#272b2b" d="M9 21l-4.64 3.7c-.6-1.52-1.03-3.05-1.37-4.45L9 21z"/></g></g></g></g></svg>