<svg xmlns="http://www.w3.org/2000/svg" viewBox="0 0 45 45" enable-background="new 0 0 45 45"><defs><clipPath id="a"><path d="M0 36h36V0H0v36z"/></clipPath></defs><g><g><g clip-path="url(#a)" transform="matrix(1.25 0 0 -1.25 0 45)"><g><path fill="#d99e82" d="M33 19c.46-.18.9-3-1-3-6 0-11-11-20-11S1 17.5 1 20s4.82 10 12 10 15-9 20-11"/></g><g><path fill="#d99e82" d="M3 17c0-.55-.67-1-1.5-1S0 16.45 0 17s0 2 1.5 1c.7-.46 1.5-.45 1.5-1"/></g><g><path fill="#c1694f" d="M33 19c.46-.18.88-.7-1-1-6-1-10.04.9-19 0-10-1-12-1-12 2 0 2.5 4.82 10 12 10s15-9 20-11"/></g><g><path fill="#d99e82" d="M30 18.5c0-2.48 3.34-4.5 5-4.5 1.66 0 0 2.02 0 4.5s1.66 4.5 0 4.5-5-2.02-5-4.5"/></g><g><path fill="#292f33" d="M8 23c0-.55-.45-1-1-1s-1 .45-1 1 .45 1 1 1 1-.45 1-1"/></g><g><path fill="#d99e82" d="M19.16 11S22 7 24 7s0 5 0 5h-2.84c-3 0-2-1-2-1"/></g><g><path fill="#c1694f" d="M21.35 27.08S24.2 29.88 26 29c4.07-2.04-2-4-2-4l-1.6.1c-3 .2-1.05 1.98-1.05 1.98"/></g><g><path fill="#c1694f" d="M18 11c0-1.1-.9-2-2-2s-2 .9-2 2 .9 2 2 2 2-.9 2-2"/></g><g><path fill="#c1694f" d="M21 15c0-.55-.45-1-1-1s-1 .45-1 1 .45 1 1 1 1-.45 1-1"/></g><g><path fill="#c1694f" d="M26 15.5c0-.83-.67-1.5-1.5-1.5s-1.5.67-1.5 1.5.67 1.5 1.5 1.5 1.5-.67 1.5-1.5"/></g><g><path fill="#662113" d="M18 21.5c0-.83-.67-1.5-1.5-1.5s-1.5.67-1.5 1.5.67 1.5 1.5 1.5 1.5-.67 1.5-1.5"/></g><g><path fill="#662113" d="M25 20.5c0-.83-.67-1.5-1.5-1.5s-1.5.67-1.5 1.5.67 1.5 1.5 1.5 1.5-.67 1.5-1.5"/></g><g><path fill="#662113" d="M21 25c0-.55-.45-1-1-1s-1 .45-1 1 .45 1 1 1 1-.45 1-1"/></g><g><path fill="#c1694f" d="M3 19c0-.55 1-2-1.5-1-.77.3-1.5.45-1.5 1s.67 1 1.5 1S3 19.55 3 19"/></g></g></g></g></svg>