<svg xmlns="http://www.w3.org/2000/svg" viewBox="0 0 45 45" enable-background="new 0 0 45 45"><defs><clipPath id="a"><path d="M0 36h36V0H0v36z"/></clipPath></defs><g><g><path fill="#99aab5" d="M3.44 24.17L6.24 20 10 23.75l5-2.5L18.75 25l5-7.5 5 3.75L32.5 20l2.5 3.75L38.75 20l2.5 5-2.5 8.75L25 40l-13.75-2.5-7.5-7.5-.3-5.83z"/></g><g><g clip-path="url(#a)" transform="matrix(1.25 0 0 -1.25 0 45)"><g><path fill="#ffcc4d" d="M29.96 21.3c.02.28.04.56.04.85 0 5.95-4.32 10.87-10 11.82 1.2.26 2.04.5 1 1.03-1.1.56-2.23-.13-3-.85-.77.72-1.88 1.4-3 .85-1.03-.52-.2-.77 1-1.03-5.67-.95-10-5.87-10-11.82 0-.3.02-.57.04-.86C5.56 14.7-.26 5 18 5s12.44 9.7 11.96 16.3"/></g><g><path fill="#f4900c" d="M21 22c0-1.66-1.34-2-3-2s-3 .34-3 2 1.34 3 3 3 3-1.34 3-3"/></g><g><path fill="#662113" d="M13 24.5c0-.83-.67-1.5-1.5-1.5s-1.5.67-1.5 1.5.67 1.5 1.5 1.5 1.5-.67 1.5-1.5"/></g><g><path fill="#662113" d="M26 24.5c0-.83-.67-1.5-1.5-1.5s-1.5.67-1.5 1.5.67 1.5 1.5 1.5 1.5-.67 1.5-1.5"/></g><g><path fill="#e1e8ed" d="M31 11l-3 1-4-6-3 5-2-2-4 2-3-4-3 6-3-2-3.3 7.76C2.26 17.43 2 16 2 14.5 2 6.5 9.16 0 18 0s16 6.5 16 14.5c0 1.24-.2 2.44-.52 3.6L31 11z"/></g></g></g></g></svg>