<svg xmlns="http://www.w3.org/2000/svg" viewBox="0 0 45 45" enable-background="new 0 0 45 45"><defs><clipPath id="a"><path d="M0 36h36V0H0v36z"/></clipPath></defs><g><g><g clip-path="url(#a)" transform="matrix(1.25 0 0 -1.25 0 45)"><g><path fill="#99aab5" d="M4 28s-4-2-4-11c0 0 6 1 7 3 0 0 2 12.25-3 8"/></g><g><path fill="#99aab5" d="M32 27.96s4-2 4-11c0 0-6 1-7 3 0 0-2 12.25 3 8"/></g><g><path fill="#ffe8b6" d="M1 35c-1-1 1-8 5-9s4 5 3 5c-4 0-5.96 6-8 4"/></g><g><path fill="#ffe8b6" d="M35.3 35c1-1-1-8-5-9s-4 5-3 5c4 0 5.96 6 8 4"/></g><g><path fill="#ccd6dd" d="M21.98 5h-7.96C8.5 5 4 9.5 4 15.02v8.96C4 29.5 8.5 34 14.02 34h7.96C27.5 34 32 29.5 32 23.97v-8.95C32 9.5 27.5 5 21.98 5"/></g><g><path fill="#e6aaaa" d="M35 8c0-5.52-4.48-8-10-8H11C5.48 0 1 2.48 1 8s4.48 10 10 10h14c5.52 0 10-4.48 10-10"/></g><g><path fill="#c1694f" d="M11 10c0-1.66-.67-3-1.5-3S8 8.34 8 10s.67 3 1.5 3 1.5-1.34 1.5-3"/></g><g><path fill="#c1694f" d="M28 10c0-1.66-.67-3-1.5-3S25 8.34 25 10s.67 3 1.5 3 1.5-1.34 1.5-3"/></g><g><path fill="#272b2b" d="M11 24s0 2 2 2 2-2 2-2v-2s0-2-2-2-2 2-2 2v2z"/></g><g><path fill="#272b2b" d="M21 24s0 2 2 2 2-2 2-2v-2s0-2-2-2-2 2-2 2v2z"/></g></g></g></g></svg>