<svg xmlns="http://www.w3.org/2000/svg" viewBox="0 0 45 45" enable-background="new 0 0 45 45"><defs><clipPath id="a"><path d="M0 36h36V0H0v36z"/></clipPath></defs><g><g><g clip-path="url(#a)" transform="matrix(1.25 0 0 -1.25 0 45)"><g><path fill="#ccd6dd" d="M29.2 18.43c2.1 1.32 4.42 3.87 4.42 8.67 0 .56-.45 1-1 1-.56 0-1-.44-1-1 0-3.82-1.75-5.86-3.34-6.93-1.6 1.3-4.9 1.3-8.07 1.3-4.35 0-7.9-1.66-7.9-5.08 0-3.44 3.55-4.4 7.9-4.4 2.15 0 4.36.64 6.06 1.7 1.1-3.6 4.1-10.3 5.35-10.3 1.57 0-2.37 12.7-2.37 14.68 0 .13 0 .24-.02.35"/></g><g><path fill="#ccd6dd" d="M13.44 3.42c-1.56 0-2.95 10.22-2.95 12.2 0 1.98 1.25 3.6 2.8 3.6 1.57 0 2.83-1.62 2.83-3.6S15 3.42 13.43 3.42"/></g><g><path fill="#99aab5" d="M23.6 16.95c0-4.98-2.62-9.02-7.6-9.02-4.98 0-10 4.06-10.46 9.02C5 23 8.44 25 13.44 25c4.98 0 10.15-3.06 10.15-8.05"/></g><g><path fill="#99aab5" d="M16.82 2.3c0-1.88-1.5-2.27-3.38-2.27-1.87 0-3.38.4-3.38 2.26 0 1.86 1.5 3.37 3.38 3.37 1.87 0 3.38-1.5 3.38-3.38"/></g><g><path fill="#99aab5" d="M35 2.3C35 .4 33.48.02 31.62.02c-1.87 0-3.4.4-3.4 2.26 0 1.86 1.53 3.37 3.4 3.37 1.86 0 3.38-1.5 3.38-3.38"/></g><g><path fill="#99aab5" d="M36 27.1c0-1.87-1.52-3.38-3.38-3.38-1.87 0-3.4 1.5-3.4 3.38 0 1.87 1.53 3.4 3.4 3.4 1.86 0 3.38-1.53 3.38-3.4"/></g><g><path fill="#ccd6dd" d="M14.57 26.9c0-1.87-2.78-3.4-6.2-3.4-3.43 0-7.34 4.52-7.34 5.65 0 1.13 3.9 1.13 7.33 1.13s6.2-1.5 6.2-3.38"/></g><g><path fill="#66757f" d="M16.84 33.47c-.05 1.16-.58 2.45-4.53 2.45-2.8 0-6.76-3.27-6.76-4.5 0-1.26 2.28-2.27 5.08-2.27.32 0 .65.03.98.1-.28-1.2-.42-2.6-.42-4.05 0-4.67 1.4-6.2 4.52-6.2 3.1 0 4.5 1.53 4.5 6.2 0 4.06-1.05 7.45-3.36 8.27"/></g><g><path fill="#292f33" d="M2.26 29.87c0-.62-.5-1.13-1.13-1.13-.62 0-1.13.5-1.13 1.13C0 30.5.5 31 1.13 31c.62 0 1.13-.5 1.13-1.13"/></g></g></g></g></svg>