<svg xmlns="http://www.w3.org/2000/svg" viewBox="0 0 45 45" enable-background="new 0 0 45 45"><defs><clipPath id="a"><path d="M0 36h36V0H0v36z"/></clipPath></defs><g><g><g clip-path="url(#a)" transform="matrix(1.25 0 0 -1.25 0 45)"><g><path fill="#ffac33" d="M28.07 4.64c-2.23 0-8.47-.78-10.07-1.83-1.6 1.06-7.84 1.84-10.07 1.84-2.56 0-1.16-1.03-1.16-2.32C6.77 1.04 5.37 0 7.93 0 10.16 0 16.4.8 18 1.83 19.6.8 25.84 0 28.07 0c2.56 0 1.16 1.04 1.16 2.32 0 1.3 1.4 2.32-1.16 2.32"/></g><g><path fill="#292f33" d="M31.73 20.13c-1.25 2.5-3.15 5-4.94 6.73C24.33 32.3 20.75 36 18 36c-2.76 0-6.34-3.7-8.8-9.14-1.78-1.73-3.68-4.23-4.93-6.73C1.83 15.26 1.15 8.7 2.2 8.2c.86-.45 2.32 1.54 4.2 5.07C6.67 2.4 13.45 2.32 18 2.32s11.33.08 11.6 10.95c1.88-3.53 3.34-5.52 4.2-5.08 1.05.5.37 7.06-2.07 11.93"/></g><g><path fill="#f5f8fa" d="M21.67 29.06c-.85-.6-2.17-1.2-3.67-1.2s-2.83.6-3.68 1.2c-3.3-2.14-5.6-7.06-5.6-12.8 0-7.7 4.15-13.94 9.28-13.94 5.13 0 9.3 6.24 9.3 13.94 0 5.74-2.32 10.66-5.63 12.8"/></g><g><path fill="#ffac33" d="M28.45 30h-5.8c-3.85 0-4.65.78-4.65 1.74 0 .97-.36 1.74 3.48 1.74 5.8 0 8.13-3.48 6.97-3.48"/></g><g><path fill="#f5f8fa" d="M16.84 32.52c0-.65-.52-1.17-1.16-1.17-.64 0-1.16.52-1.16 1.17 0 .64.52 1.16 1.16 1.16.64 0 1.16-.52 1.16-1.16"/></g></g></g></g></svg>