<svg xmlns="http://www.w3.org/2000/svg" viewBox="0 0 45 45" enable-background="new 0 0 45 45"><defs><clipPath id="a"><path d="M0 0h36v36H0V0z"/></clipPath><clipPath id="b"><path d="M0 36h36V0H0v36z"/></clipPath></defs><g><g><g clip-path="url(#a)" transform="matrix(1.25 0 0 -1.25 0 45)"><g><path fill="#bf6952" d="M36 29c0 4.94-6.77 4.46-9.17 4.13C24.4 34.93 21.43 36 18 36c-3.44 0-6.4-1.08-8.82-2.87C6.8 33.46 0 33.95 0 29c0-2.9 1.56-4.73 2.43-5.53C1.5 20.74 1 17.82 1 15 1 5.06 11 2 18 2s17 3 17 13c0 2.83-.48 5.75-1.43 8.47.87.8 2.43 2.65 2.43 5.53"/></g><g><path fill="#d79e84" d="M18 17c-.04 0-.07 0-.1 0 .03.03.06.07.1.1.04-.03.07-.07.1-.1-.03 0-.06 0-.1 0m12 5c0 3.87-3.13 7-7 7-1.96 0-3.73-.8-5-2.1-1.27 1.3-3.04 2.1-5 2.1-3.87 0-7-3.13-7-7 0-3.78 3-6.85 6.74-7C11.05 13.56 10 11.4 10 9c0-4.42 3.58-8 8-8s8 3.58 8 8c0 2.4-1.06 4.55-2.73 6C27 15.16 30 18.23 30 22"/></g><g><path fill="#642116" d="M18 2.5c-3.27 0-5.36 4.1-5.45 4.28-.08.15-.07.33.03.48.1.15.25.24.42.24h10c.17 0 .33-.1.43-.24.1-.14.1-.33.02-.48-.1-.18-2.18-4.28-5.45-4.28"/></g><g><path fill="#642116" d="M17 10.5c-.28 0-.5.22-.5.5v2c0 .28.22.5.5.5s.5-.22.5-.5v-2c0-.28-.22-.5-.5-.5"/></g><g><path fill="#642116" d="M19 10.5c-.28 0-.5.22-.5.5v2c0 .28.22.5.5.5s.5-.22.5-.5v-2c0-.28-.22-.5-.5-.5"/></g><g><path fill="#292f33" d="M15 20c0-1.66-.9-3-2-3s-2 1.34-2 3 .9 3 2 3 2-1.34 2-3"/></g><g><path fill="#292f33" d="M25 20c0-1.66-.9-3-2-3s-2 1.34-2 3 .9 3 2 3 2-1.34 2-3"/></g></g></g><g><g clip-path="url(#b)" transform="matrix(1.25 0 0 -1.25 0 45)"><g><path fill="#d79e84" d="M19 17c0-.55-.45-1-1-1s-1 .45-1 1 .45 1 1 1 1-.45 1-1"/></g></g></g></g></svg>