<svg xmlns="http://www.w3.org/2000/svg" viewBox="0 0 45 45" enable-background="new 0 0 45 45"><defs><clipPath id="a"><path d="M0 36h36V0H0v36z"/></clipPath></defs><g><g><path fill="#ccd6dd" d="M7.5 28.75L1.25 25l2.5 7.5L2.5 35l7.5 6.25 8.75 2.5L22.5 30l-15-1.25z"/></g><g><path fill="#ccd6dd" d="M37.5 28.75L43.75 25l-2.5 7.5L42.5 35 35 41.25l-8.75 2.5L22.5 30l15-1.25z"/></g><g><g clip-path="url(#a)" transform="matrix(1.25 0 0 -1.25 0 45)"><g><path fill="#66757f" d="M11 29c0-3.87-3.03-7-6.77-7C.5 22 3.1 36 3.1 36s7.9-3.13 7.9-7"/></g><g><path fill="#66757f" d="M24 6c0-3.3-2.7-6-6-6s-6 2.7-6 6 2.7 6 6 6 6-2.7 6-6"/></g><g><path fill="#dd2e44" d="M22 6c0-2.2-1.8-4-4-4s-4 1.8-4 4 1.8 4 4 4 4-1.8 4-4"/></g><g><path fill="#66757f" d="M31.77 22C28.03 22 25 25.13 25 29s7.9 7 7.9 7 2.6-14-1.13-14"/></g><g><path fill="#e6aaaa" d="M9 28c0-2.2-1.8-4-4-4s0 8 0 8 4-1.8 4-4"/></g><g><path fill="#e6aaaa" d="M31 24c-2.2 0-4 1.8-4 4s4 4 4 4 2.2-8 0-8"/></g><g><path fill="#66757f" d="M34 14c0-7-6.92-7-6.92-7H8.92S2 7 2 14c0 0 1.23 19 16 19s16-19 16-19"/></g><g><path fill="#272b2b" d="M11 19s0 2 2 2 2-2 2-2v-2s0-2-2-2-2 2-2 2v2z"/></g><g><path fill="#272b2b" d="M21 19s0 2 2 2 2-2 2-2v-2s0-2-2-2-2 2-2 2v2z"/></g><g><path fill="#ccd6dd" d="M32.7 11.84L33.95 15l-2.62-2.67c-.4.1-.83.2-1.32.27V17l-2.52-4.12c-1.1.07-2.35.12-3.8.12-3.5 0-1-4.45-5.76-4.95-4.76.5-2.28 4.95-5.77 4.95-1.38 0-2.58-.04-3.64-.1L6 17v-4.37c-.5-.07-.95-.17-1.35-.26L2.05 15l1.2-3.1c-1.68-.77-1.5-1.86-.42-2.9 6-5.82 9-6 9.32-6 2.46 0 4.6 1 5.77 2.48C19.07 4 21.22 3 23.68 3 24 3 27 3.18 33 9c1.04 1 1.25 2.06-.3 2.84"/></g><g><path fill="#272b2b" d="M15 11c-1-1 0-4 3-4s4 3 3 4-5 1-6 0"/></g></g></g></g></svg>