<svg xmlns="http://www.w3.org/2000/svg" viewBox="0 0 45 45" enable-background="new 0 0 45 45"><defs><clipPath id="a"><path d="M0 36h36V0H0v36z"/></clipPath></defs><g><g><g clip-path="url(#a)" transform="matrix(1.25 0 0 -1.25 0 45)"><g><path fill="#662113" d="M16.7 19.9c0-4.5-2.55-2.05-5.7-2.05-3.15 0-5.7-2.45-5.7 2.04 0 2.9 2.55 6.1 5.7 6.1 3.15 0 5.7-3.2 5.7-6.1"/></g><g><path fill="#662113" d="M5.07 27.96c.4-1.33 0-2.62-.86-2.88-.86-.25-1.88.62-2.27 1.96-.4 1.33 0 2.62.86 2.88.86.25 1.88-.62 2.27-1.96"/></g><g><path fill="#662113" d="M20.07 27.02c-.4-1.33-1.44-2.2-2.3-1.93-.88.25-1.25 1.55-.84 2.88.4 1.33 1.44 2.2 2.3 1.93.88-.25 1.25-1.55.84-2.88"/></g><g><path fill="#662113" d="M9.96 31.88c.37-1.9-.2-3.6-1.3-3.82-1.08-.2-2.26 1.16-2.62 3.06-.37 1.9.2 3.6 1.3 3.82 1.08.2 2.26-1.16 2.62-3.06"/></g><g><path fill="#662113" d="M15.96 31.1c-.4-1.9-1.58-3.25-2.66-3.03-1.08.22-1.65 1.94-1.26 3.83.4 1.9 1.58 3.25 2.66 3.03 1.08-.22 1.65-1.94 1.26-3.83"/></g><g><path fill="#662113" d="M30.7 3.9c0-4.5-2.55-2.05-5.7-2.05-3.15 0-5.7-2.45-5.7 2.04 0 2.9 2.55 6.1 5.7 6.1 3.15 0 5.7-3.2 5.7-6.1"/></g><g><path fill="#662113" d="M19.07 11.96c.4-1.33 0-2.62-.86-2.88-.86-.25-1.88.62-2.27 1.96-.4 1.33 0 2.62.86 2.88.86.25 1.88-.62 2.27-1.96"/></g><g><path fill="#662113" d="M34.07 11.02c-.4-1.33-1.44-2.2-2.3-1.93-.88.25-1.25 1.55-.84 2.88.4 1.33 1.44 2.2 2.3 1.93.88-.25 1.25-1.55.84-2.88"/></g><g><path fill="#662113" d="M23.96 15.88c.37-1.9-.2-3.6-1.3-3.82-1.08-.2-2.26 1.16-2.62 3.06-.37 1.9.2 3.6 1.3 3.82 1.08.2 2.26-1.16 2.62-3.06"/></g><g><path fill="#662113" d="M29.96 15.1c-.4-1.9-1.58-3.25-2.66-3.03-1.08.22-1.65 1.94-1.26 3.83.4 1.9 1.58 3.25 2.66 3.03 1.08-.22 1.65-1.94 1.26-3.83"/></g></g></g></g></svg>