<svg xmlns="http://www.w3.org/2000/svg" viewBox="0 0 45 45" enable-background="new 0 0 45 45"><defs><clipPath id="a"><path d="M0 36h36V0H0v36z"/></clipPath><clipPath id="b"><path d="M10.47 33.18c-4.7-1.4-9.5-7.22-9.35-8.4.15-1.17.34-2.63 6.57-3.65 1.1-.18 4-1.84 4.4-5.78.65-6.4 4.15-11.1 8.24-15.2C21.94.16 22 0 23.8 0c1.77 0 3.67 2.4 4.6 4.67 2.83 6.98 2.02 15.7-5.52 19.83-3 1.64-5.2 1.86-5.33 3.04-.13 1.38-1.2 3.7-3.8 5.33.44 1.3-.5 2.78-1.12 2.84-.02 0-.03 0-.05 0-.65 0-1.98-1.07-2.1-2.52"/></clipPath><clipPath id="c"><path d="M0 36h36V0H0v36z"/></clipPath></defs><g><g><g clip-path="url(#a)" transform="matrix(1.25 0 0 -1.25 0 45)"><g><path fill="#ad743d" d="M13.23 16.32c-1.24 1.25-4.97 0-6.2 2.5-.8 1.56-3.73-1.25-2.5-3.74 1.25-2.5 4.98-2.5 7.46-1.24 2.48 1.24 1.23 2.48 1.23 2.48"/></g><g><path fill="#ad743d" d="M10.47 33.18c-4.7-1.4-9.5-7.22-9.35-8.4.15-1.17.34-2.63 6.57-3.65 1.1-.18 4-1.84 4.4-5.78.65-6.4 4.15-11.1 8.24-15.2C21.94.16 22 0 23.8 0c1.77 0 3.67 2.4 4.6 4.67 2.83 6.98 2.02 15.7-5.52 19.83-3 1.64-5.2 1.86-5.33 3.04-.13 1.38-1.2 3.7-3.8 5.33.44 1.3-.5 2.78-1.12 2.84-.64.06-2.03-1.03-2.16-2.52"/></g></g></g><g><g clip-path="url(#b)" transform="matrix(1.25 0 0 -1.25 0 45)"><g><path fill="#d99e82" d="M2.18 22.03c.63 5.9 3.75 8.42 6.2 8.24 1.5-.1 2.14-1.65 2.26-2.73 5.2-.77 3.94-6.73.68-6.82 1.38-1.38 10.14-6.95 8.77-13.83C18.7 0 13.2 0 10.44 2.74 7.7 5.5 2.18 22.03 2.18 22.03"/></g></g></g><g><g clip-path="url(#c)" transform="matrix(1.25 0 0 -1.25 0 45)"><g><path fill="#292f33" d="M9.07 26.54c0-.76-.62-1.38-1.38-1.38-.77 0-1.38.62-1.38 1.38 0 .76.6 1.38 1.37 1.38.75 0 1.37-.62 1.37-1.38"/></g><g><path fill="#662113" d="M6.26 15.85c.3-1.5-.38-4.3-1.87-4.6-1.5-.3-3.23 2-3.54 3.5-.3 1.5.66 2.95 2.15 3.25 1.5.3 2.96-.66 3.26-2.15"/></g><g><path fill="#662113" d="M21.25 22.44c4.07-3.35 6.16-7.3 5.4-12.37-.3-2.15.84-2.94 1.7-.9.6 1.42.93 9.88-6.06 14.3-1.86 1.18-1.97-.28-1.05-1.03"/></g><g><path fill="#ad743d" d="M13.9 14.63c-1.63 1.06-5.38-1.15-7.3 1.25-1.22 1.53-3.75-2.2-1.83-4.6 1.92-2.42 5.96-1.55 8.36.37 2.4 1.92.78 2.98.78 2.98"/></g><g><path fill="#ad743d" d="M24.63 0H13.7c-2.76 0-2.76 4.13 1.37 4.13h3.64c2.76 0 5.93-4.13 5.93-4.13"/></g><g><path fill="#ad743d" d="M16.54 7.38c.37 3.56 2.87 6.2 5.58 5.93 2.72-.27 4.6-3.38 4.25-6.94C26 2.8 23.5.16 20.77.43c-2.7.28-4.6 3.4-4.23 6.95"/></g><g><path fill="#ad743d" d="M23 1c1.66.33 4.97 1.5 6.83 9.03.64 2.6 1.37 6.27-.83 11.2-1.88 4.23-1.08 5.14.74 3.78 1.58-1.17 1.94-2.7 2.15-4.92.15.46.37 1.05.26 2.15 3.65-2.05 3.65-6.74 2.25-11.16.4.38.84 1.3 1.03 2.16C36.73 7.43 32.86.7 25.93.1 21.95-.36 23 1 23 1"/></g></g></g></g></svg>