<svg xmlns="http://www.w3.org/2000/svg" viewBox="0 0 45 45" enable-background="new 0 0 45 45"><defs><clipPath id="a"><path d="M0 36h36V0H0v36z"/></clipPath></defs><g><g><g clip-path="url(#a)" transform="matrix(1.25 0 0 -1.25 0 45)"><g><path fill="#744eaa" d="M32 24c2.12 2.12 5-14.3-3-21C26.24.7 23 .03 21 .03 18.63.03 10.97 0 8 0 .82 0 0 4.92 0 11s.82 11 8 11c6 0 10-2 13-4 4.98-3.3 6-3.86 8-2 3.2 2.97 1 6 3 8"/></g><g><path fill="#aa8dd8" d="M34 13c-.46-3.73-2.04-7.52-5-10C26.24.7 23 .03 21 .03 18.63.03 10.97 0 8 0 3.96 0 1.94 1.56.94 4 .16 5.9 4 3 15 3c14 0 17 5 19 10"/></g><g><path fill="#744eaa" d="M32 22c4.12 0 4 5 4 7s-2-1-5-2-7 2-6 0 3-5 7-5"/></g><g><path fill="#55acee" d="M10 29c0-2.2-.9-6-2-6s-2 3.8-2 6 .9 2 2 2 2 .2 2-2"/></g><g><path fill="#55acee" d="M8 31c0 3-6 2-6 0s3-1 4-3 2 3 2 3"/></g><g><path fill="#55acee" d="M8 31c0 3 6 2 6 0s-3-1-4-3-2 3-2 3"/></g><g><path fill="#292f33" d="M8 10.5C8 9.67 7.33 9 6.5 9S5 9.67 5 10.5 5.67 12 6.5 12 8 11.33 8 10.5"/></g></g></g></g></svg>