<svg xmlns="http://www.w3.org/2000/svg" viewBox="0 0 45 45" enable-background="new 0 0 45 45"><defs><clipPath id="a"><path d="M0 36h36V0H0v36z"/></clipPath></defs><g><g><g clip-path="url(#a)" transform="matrix(1.25 0 0 -1.25 0 45)"><g><path fill="#c1694f" d="M23.28 12.72s1.38-1.63 2.74-10.04c.14-.9.2-1.78.2-2.68H36v28.55c-4.4 3.47-10.4 4.2-17.68 1.76 0 0-5.4 3-6.14 3.75-.72.72-1.86 1.55-1.24-.35.36-1.1.76-2.37 2.36-4.86-3.44-2.04-4.5-4.68-8.56-13.34C1.64 8.88.08 6.73.94 4.2 2.07.87 6.24-1.4 9.78 1.18 11.7 2.58 12.03 5.1 16 7.4c3.66.07 7.28 1.6 7.28 5.32"/></g><g><path fill="#292f33" d="M36 30c-8.34 5.7-21.65 4.53-20.1-.2 9.6 1.87 15.87-1.53 20.1-7.16V30z"/></g><g><path fill="#292f33" d="M19.66 30.24c-2.87-.24-7.15-1.6-9.3-3.97 0 0-.12 5.15 3.57 5.6 6.17.8 5.8-.35 5.8-.35l-.07-1.28z"/></g><g><path fill="#c1694f" d="M16.36 34.94c.55-1.15 4-1.8 5.05-6.03 1.06-4.23-3.12-2.94-4.34-.84-1.37 2.33-1.83 4.16-1.87 5.68-.03.8.03 3.54 1.16 1.2"/></g><g><path fill="#662113" d="M16.6 33.16c1.1-.97 2.44-2.47 2.65-3.95.2-1.48-1.13-.98-1.74.38-.6 1.36-.74 2.78-1.12 3.23-.38.47.22.36.22.36"/></g><g><path fill="#292f33" d="M16.94 20.47c0-.68-.56-1.24-1.25-1.24-.7 0-1.25.56-1.25 1.24 0 .7.56 1.25 1.24 1.25.68 0 1.24-.56 1.24-1.25"/></g><g><path fill="#662113" d="M4.22 6.08c0-.88-.53-1.6-1.2-1.6-.64 0-1.17.72-1.17 1.6 0 .9.53 1.6 1.18 1.6.66 0 1.2-.7 1.2-1.6"/></g><g><path fill="#d99e82" d="M10.35 26.08c-.03 0-.07 0-.1.02C8.7 24.07 7.3 21 4.74 15.5c-1.35-2.9-2.42-4.95-3.1-6.54 1.62-.23 3.27 1.44 3.93 3.27.68 1.87 3.22 5.65 4.93 7.78 1.72 2.13 1.57 5.15-.15 6.08"/></g></g></g></g></svg>