<svg xmlns="http://www.w3.org/2000/svg" viewBox="0 0 45 45" enable-background="new 0 0 45 45"><defs><clipPath id="a"><path d="M0 36h36V0H0v36z"/></clipPath></defs><g><g><g clip-path="url(#a)" transform="matrix(1.25 0 0 -1.25 0 45)"><g><path fill="#c1694f" d="M13 30c0-3.3-2.7-6-6-6s-6 2.7-6 6 2.7 6 6 6 6-2.7 6-6"/></g><g><path fill="#c1694f" d="M35 30c0-3.3-2.7-6-6-6s-6 2.7-6 6 2.7 6 6 6 6-2.7 6-6"/></g><g><path fill="#e6aaaa" d="M11 30c0-2.2-1.8-4-4-4s-4 1.8-4 4 1.8 4 4 4 4-1.8 4-4"/></g><g><path fill="#e6aaaa" d="M33 30c0-2.2-1.8-4-4-4s-4 1.8-4 4 1.8 4 4 4 4-1.8 4-4"/></g><g><path fill="#c1694f" d="M35 14s-1.3 22-17 22S1 14 1 14C1 8.13 5.5 3.68 13.22 2.4 14.32.93 16.04 0 18 0c1.96 0 3.7.94 4.78 2.4C30.5 3.67 35 8.12 35 14"/></g><g><path fill="#dd2e44" d="M22 6c0-2.2-1.8-4-4-4s-4 1.8-4 4 1.8 4 4 4 4-1.8 4-4"/></g><g><path fill="#d99e82" d="M18 16S7 12.3 7 9s2.7-6 6-6c2.1 0 3.92 1.07 5 2.7C19.07 4.06 20.9 3 23 3c3.3 0 6 2.7 6 6s-11 7-11 7"/></g><g><path fill="#272b2b" d="M11 19s0 2 2 2 2-2 2-2v-2s0-2-2-2-2 2-2 2v2z"/></g><g><path fill="#272b2b" d="M21 19s0 2 2 2 2-2 2-2v-2s0-2-2-2-2 2-2 2v2z"/></g><g><path fill="#272b2b" d="M13.13 11C11.5 10 16.37 7 18 7c1.62 0 6.5 3 4.87 4-1.62 1-8.12 1-9.74 0"/></g></g></g></g></svg>