<svg xmlns="http://www.w3.org/2000/svg" viewBox="0 0 45 45" enable-background="new 0 0 45 45"><defs><clipPath id="a"><path d="M0 36h36V0H0v36z"/></clipPath></defs><g><g><g clip-path="url(#a)" transform="matrix(1.25 0 0 -1.25 0 45)"><g><path fill="#dd2e44" d="M15 6V3s0-3 3-3 3 3 3 3v3h-6z"/></g><g><path fill="#272b2b" d="M14 34c.04 3-14 2-14-8 0-4 0-14 3-14 4 0 10.95 18 11 22"/></g><g><path fill="#272b2b" d="M22 34c-.04 3 14 2 14-8 0-4 0-14-3-14-4 0-10.95 18-11 22"/></g><g><path fill="#ccd6dd" d="M31 14c0-7-4-7-4-7H9s-4 0-4 7c0 0 1 22 13 22s13-22 13-22"/></g><g><path fill="#8899a6" d="M23 13.97V14H13v-.03c-2.8-.25-5-2.6-5-5.47C8 5.46 10.46 3 13.5 3c1.86 0 3.5.93 4.5 2.34C19 3.94 20.64 3 22.5 3 25.54 3 28 5.46 28 8.5c0 2.87-2.2 5.22-5 5.47"/></g><g><path fill="#272b2b" d="M11 20s0 2 2 2 2-2 2-2v-2s0-2-2-2-2 2-2 2v2z"/></g><g><path fill="#272b2b" d="M21 20s0 2 2 2 2-2 2-2v-2s0-2-2-2-2 2-2 2v2z"/></g><g><path fill="#272b2b" d="M15 12c-1-1 2-4 3-4s4 3 3 4-5 1-6 0"/></g></g></g></g></svg>