<svg xmlns="http://www.w3.org/2000/svg" viewBox="0 0 45 45" enable-background="new 0 0 45 45"><defs><clipPath id="a"><path d="M0 36h36V0H0v36z"/></clipPath></defs><g><g><g clip-path="url(#a)" transform="matrix(1.25 0 0 -1.25 0 45)"><g><path fill="#272b2b" d="M13 30c0-3.3-2.7-6-6-6s-6 2.7-6 6 2.7 6 6 6 6-2.7 6-6"/></g><g><path fill="#272b2b" d="M35 30c0-3.3-2.7-6-6-6s-6 2.7-6 6 2.7 6 6 6 6-2.7 6-6"/></g><g><path fill="#66757f" d="M11 30c0-2.2-1.8-4-4-4s-4 1.8-4 4 1.8 4 4 4 4-1.8 4-4"/></g><g><path fill="#66757f" d="M33 30c0-2.2-1.8-4-4-4s-4 1.8-4 4 1.8 4 4 4 4-1.8 4-4"/></g><g><path fill="#eee" d="M35 14c0-7-6.38-12-17-12C7.37 2 1 7 1 14c0 0 1.3 22 17 22s17-22 17-22"/></g><g><path fill="#ccd6dd" d="M24 6c0-3.3-2.7-6-6-6s-6 2.7-6 6 2.7 6 6 6 6-2.7 6-6"/></g><g><path fill="#dd2e44" d="M22 6c0-2.2-1.8-4-4-4s-4 1.8-4 4 1.8 4 4 4 4-1.8 4-4"/></g><g><path fill="#272b2b" d="M20.7 23.35C25.17 26.12 32 19 26.96 13.33 23.45 9.4 20 11 20 11s-2.64 10.26.7 12.35"/></g><g><path fill="#272b2b" d="M15.27 23.34C10.8 26.1 3.97 19 9.02 13.32 12.52 9.4 15.98 11 15.98 11s2.63 10.25-.7 12.34"/></g><g><path fill="#66757f" d="M11 19s0 2 2 2 2-2 2-2v-2s0-2-2-2-2 2-2 2v2z"/></g><g><path fill="#fff" d="M18 16S7 12.3 7 9s2.7-6 6-6c2.1 0 3.92 1.07 5 2.7C19.07 4.06 20.9 3 23 3c3.3 0 6 2.7 6 6s-11 7-11 7"/></g><g><path fill="#66757f" d="M21 19s0 2 2 2 2-2 2-2v-2s0-2-2-2-2 2-2 2v2z"/></g><g><path fill="#272b2b" d="M13.13 11C11.5 10 16.37 7 18 7c1.62 0 6.5 3 4.87 4-1.62 1-8.12 1-9.74 0"/></g></g></g></g></svg>