<svg xmlns="http://www.w3.org/2000/svg" viewBox="0 0 45 45" enable-background="new 0 0 45 45"><defs><clipPath id="a"><path d="M0 36h36V0H0v36z"/></clipPath></defs><g><g><g clip-path="url(#a)" transform="matrix(1.25 0 0 -1.25 0 45)"><g><path fill="#c6e5b3" d="M36 14c0-7.46-8.06-12-18-12S0 6.54 0 14s8.06 15 18 15 18-7.54 18-15"/></g><g><path fill="#77b255" d="M31.75 23.32C33.12 24.42 34 26.12 34 28c0 3.3-2.7 6-6 6-2.86 0-5.25-2-5.85-4.68-1.3.48-2.68.75-4.15.75-1.47 0-2.86-.27-4.15-.75C13.25 32 10.85 34 8 34c-3.3 0-6-2.7-6-6 0-1.9.88-3.58 2.24-4.68C1.6 20.64 0 17.32 0 14c0-7.46 8.06-1 18-1s18-6.46 18 1c0 3.32-1.6 6.64-4.25 9.32"/></g><g><path fill="#fff" d="M11 28.5c0-1.93-1.57-3.5-3.5-3.5S4 26.57 4 28.5 5.57 32 7.5 32s3.5-1.57 3.5-3.5"/></g><g><path fill="#292f33" d="M9 28.5c0-.83-.67-1.5-1.5-1.5S6 27.67 6 28.5 6.67 30 7.5 30 9 29.33 9 28.5"/></g><g><path fill="#fff" d="M32 28.5c0-1.93-1.57-3.5-3.5-3.5S25 26.57 25 28.5s1.57 3.5 3.5 3.5 3.5-1.57 3.5-3.5"/></g><g><path fill="#292f33" d="M30 28.5c0-.83-.67-1.5-1.5-1.5s-1.5.67-1.5 1.5.67 1.5 1.5 1.5 1.5-.67 1.5-1.5"/></g><g><path fill="#5c913b" d="M15 16c0-.55-.45-1-1-1s-1 .45-1 1 .45 1 1 1 1-.45 1-1"/></g><g><path fill="#5c913b" d="M23 16c0-.55-.45-1-1-1s-1 .45-1 1 .45 1 1 1 1-.45 1-1"/></g></g></g></g></svg>