<svg xmlns="http://www.w3.org/2000/svg" viewBox="0 0 45 45" enable-background="new 0 0 45 45"><defs><clipPath id="a"><path d="M0 36h36V0H0v36z"/></clipPath></defs><g><g><g clip-path="url(#a)" transform="matrix(1.25 0 0 -1.25 0 45)"><g><path fill="#f7dece" d="M34 17.13s-2.86 15.27-2.94 15.82C30.8 34.73 29 36.03 26.82 36c0 0-11.78 0-17.78 0-6 0-6.04-2.3-6.04-7.85l.08-13.55c-.02-.54-.04-1.08-.04-1.57 0-2 3-7 3-10.5 0-2.5 1.02-2.5 3.52-2.5 1.94 0 2.5 3 2.5 5.5 0 1.04-.64 3.66-1.2 5.72l16.22.78c6.75.2 7.38 2.87 6.92 5.1"/></g><g><path fill="#e0aa94" d="M32.92 20.77c-.52.3-10.5-.52-14.4-.86-.03.03-.05.05-.08.06-.05.02-1.4.56-1.44 1.86-.04 1.07.5 1.73.8 2l13.5.88c.56.03.98.5.95 1.06-.04.55-.5.98-1.06.93l-11.7-.76c-.8.5-1.73 1.25-1.75 2.08 0 .8.8 1.57 1.27 1.94l10.94.44c.55.03.98.5.96 1.04-.03.55-.46.98-1.04.96l-10.53-.43c-.04 0-.08.04-.12.05-.37.05-.6.2-.7.52-.2.5-.04 1.13.2 1.42.1.1.13.1.14.1.54-.13 1.08.22 1.2.76.1.54-.24 1.07-.78 1.18-.77.17-1.53-.1-2.08-.73-.76-.88-1-2.3-.57-3.42.12-.33.3-.6.53-.86-.68-.67-1.44-1.7-1.43-3 0-.86.37-1.66 1.04-2.4-.32-.23-1.9-1.5-1.8-3.86.04-1 .44-1.78.92-2.34-1-.52-2-1.58-1.83-3.46.1-1.25.54-2.17 1.3-2.74.64-.47 1.32-.57 1.77-.57.18 0 .32.02.4.03l13.26 1.07c.55.04.96.52.92 1.07-.05.55-.5.95-1.08.92l-13.4-1.08s-.38-.06-.68.17c-.36.3-.48.87-.52 1.3-.12 1.33.92 1.65 1.2 1.7 1.73.23 14.15 1.08 15.08 1.1.36 0 .72.16.92.5.28.48.12 1.1-.36 1.37"/></g></g></g></g></svg>