<svg xmlns="http://www.w3.org/2000/svg" viewBox="0 0 45 45" enable-background="new 0 0 45 45"><defs><clipPath id="a"><path d="M0 36h36V0H0v36z"/></clipPath></defs><g><g><g clip-path="url(#a)" transform="matrix(1.25 0 0 -1.25 0 45)"><g><path fill="#d2a077" d="M31.14 26.85c-.94.66-2.36.53-3.2-.16l.97 1.4c.8 1.1.5 2.3-.6 3.1-1.12.76-2.65.5-3.43-.62L16.04 18l-.07.03 8.06 11.84c.8 1.13.64 2.55-.48 3.34-1.12.8-2.67.52-3.46-.6L9.66 17.88c-.78-1.13-.4-2.67.72-3.45.18-.14.4-.23.6-.3V5h10v3.1c.15.14.97.78 1.08.94l9.67 14.34c.8 1.12.52 2.68-.6 3.47"/></g><g><path fill="#f3d2a2" d="M33.3 18.66s1.14 1.65-.5 2.78c-1.66 1.14-2.8-.5-2.8-.5l-5.25-7.67c-.18.3-.37.6-.6.9l7.3 10.62s1.12 1.64-.53 2.77c-1.64 1.13-2.78-.52-2.78-.52l-6.85-10c-.27.2-.53.42-.8.63l7.95 11.6s1.13 1.64-.52 2.77c-1.65 1.13-2.78-.52-2.78-.52l-7.95-11.6c-.3.2-.58.35-.87.5l7.43 10.84s1.13 1.65-.52 2.78-2.78-.52-2.78-.52L12.6 22.08l-.62-.92-.57-.82c4.96-3.4 5.43-9.78 2.6-13.9-.56-.83-1.38-.27-1.38-.27 3.4 4.95 2.35 10.5-2.6 13.9l1.47 7.3s.53 1.93-1.4 2.48c-1.92.54-2.46-1.38-2.46-1.38l-1.7-5c-.66-2-1.37-3.96-2.3-5.83C.97 12.36 2.55 5.8 7.56 2.36 13.04-1.4 20.5 0 24.27 5.46c.18.3.35.58.5.86l.05-.03 8.48 12.36z"/></g><g><path fill="#77b255" d="M2.04 29h-2c0 3.84 3.12 6.96 6.96 6.96v-2c-2.73 0-4.96-2.23-4.96-4.96"/></g><g><path fill="#77b255" d="M4 24H2c0 5.5 4.5 10 10 10v-2c-4.4 0-8-3.6-8-8"/></g><g><path fill="#77b255" d="M29 0v2c3 0 5 2 5 5h2c0-4-3-7-7-7"/></g><g><path fill="#77b255" d="M24 1.96v2c4 0 8.04 4.04 8.04 8.04h2C34.04 6 30 1.96 24 1.96"/></g><g><path fill="#77b255" d="M34 12c0-.55-.45-1-1-1s-1 .45-1 1 .45 1 1 1 1-.45 1-1"/></g><g><path fill="#77b255" d="M25 3c0-.55-.45-1-1-1s-1 .45-1 1 .45 1 1 1 1-.45 1-1"/></g><g><path fill="#77b255" d="M30 1c0-.55-.45-1-1-1s-1 .45-1 1 .45 1 1 1 1-.45 1-1"/></g><g><path fill="#77b255" d="M36 7c0-.55-.45-1-1-1s-1 .45-1 1 .45 1 1 1 1-.45 1-1"/></g><g><path fill="#77b255" d="M4 24c0 .55-.45 1-1 1s-1-.45-1-1 .45-1 1-1 1 .45 1 1"/></g><g><path fill="#77b255" d="M11 33c0-.55.45-1 1-1s1 .45 1 1-.45 1-1 1-1-.45-1-1"/></g><g><path fill="#77b255" d="M6 35c0-.55.45-1 1-1s1 .45 1 1-.45 1-1 1-1-.45-1-1"/></g><g><path fill="#77b255" d="M2 29c0 .55-.45 1-1 1s-1-.45-1-1 .45-1 1-1 1 .45 1 1"/></g></g></g></g></svg>