<svg xmlns="http://www.w3.org/2000/svg" viewBox="0 0 45 45" enable-background="new 0 0 45 45"><defs><clipPath id="a"><path d="M0 36h36V0H0v36z"/></clipPath></defs><g><g><g clip-path="url(#a)" transform="matrix(1.25 0 0 -1.25 0 45)"><g><path fill="#f3d2a2" d="M20.14 5s-2.43.17-3.06 1.8c-.65 1.65.62 2.3.62 2.3s-1.92-.06-2.62 1.94c-.67 1.9.95 2.75.95 2.75s-1.87.3-2.4 2.28c-.47 1.68 1.15 2.92 1.15 2.92H2.58C1.62 19 0 19.54 0 21.54S1.66 24 2.58 24h20.5c1 0 1 1 0 1H20.4c-3.78 0-6.13 2.04-6.78 2.75-.65.7-.98 1.67-.74 2.82.42 1.96 1.92 1.53 3.2.98 3.08-1.34 7.46-2.26 9.54-2.54C31.48 28.23 36 23.2 36 17.14 36 10.5 30.7 5 24.08 5h-3.94z"/></g></g></g></g></svg>