<svg xmlns="http://www.w3.org/2000/svg" viewBox="0 0 45 45" enable-background="new 0 0 45 45"><defs><clipPath id="a"><path d="M0 36h36V0H0v36z"/></clipPath></defs><g><g><g clip-path="url(#a)" transform="matrix(1.25 0 0 -1.25 0 45)"><g><path fill="#7c533e" d="M27.08 24l-16.2.77c.54 2.06 1.2 4.7 1.2 5.73 0 2.5-.58 5.5-2.52 5.5-2.5 0-3.52 0-3.52-2.5 0-3.5-3-8.5-3-10.5 0-.5.02-1.03.04-1.57L3 7.88C3 2.33 4 .03 10 .03s16.82 0 16.82 0C29 0 30.8 1.3 31.06 3.08 31.14 3.63 34 18.9 34 18.9c.46 2.23-.17 4.9-6.92 5.1"/></g><g><path fill="#583529" d="M33.28 16.63c-.2.34-.55.5-.92.5-.93 0-13.35.87-15.04 1.1-.14 0-1.37.27-1.24 1.68.04.45.16 1.04.5 1.3.3.24.68.2.7.2l13.4-1.1c.56-.05 1.02.37 1.07.92.04.55-.37 1.04-.92 1.08l-13.25 1.07c-.3.04-1.3.12-2.18-.55-.76-.57-1.2-1.5-1.3-2.73-.18-1.88.82-2.94 1.82-3.47-.48-.56-.88-1.33-.92-2.34-.1-2.34 1.42-3.6 1.77-3.85-.66-.74-1-1.53-1.02-2.38 0-1.32.78-2.35 1.46-3-.22-.26-.42-.54-.55-.9-.42-1.12-.2-2.53.57-3.4.45-.52 1.02-.8 1.63-.8.15 0 .3.02.44.05.53.12.88.65.76 1.2-.1.53-.65.88-1.2.76 0 0-.03 0-.12.1-.25.28-.4.9-.22 1.4.12.3.34.48.7.53.2.04.36.13.5.25L29.88 4h.04c.53 0 .97.23 1 .77.02.55-.4.83-.96.85l-10.94.45c-.47.36-1.28 1.14-1.27 1.94 0 .83.94 1.58 1.75 2.1l11.7-.77s.03 0 .05 0c.52 0 .96.4 1 .94.03.55-.38 1.03-.94 1.06l-13.5.87c-.3.28-.84.94-.8 2 .05 1.3 1.4 1.84 1.44 1.87.02 0 .04.03.07.04 3.3-.27 11.04-.9 13.6-.9.45 0 .74.02.82.06.48.28.64.9.36 1.37"/></g></g></g></g></svg>