<svg xmlns="http://www.w3.org/2000/svg" viewBox="0 0 45 45" enable-background="new 0 0 45 45"><defs><clipPath id="a"><path d="M0 36h36V0H0v36z"/></clipPath><clipPath id="b"><path d="M18 36c-3.66 0-7.3-13.7-7.9-23-.04 0-.07 0-.1 0-3.87 0-7-4-7-6.5 0-2.33 5.26-3.36 9.2-5.13C13.48.27 15.35 0 18 0c2.25 0 3.94.27 5.17 1.08C27.17 3.03 33 4.05 33 6.5 33 9 29.87 13 26 13c-.02 0-.04 0-.06 0-.5 9.25-4.22 23-7.94 23z"/></clipPath></defs><g><g><g clip-path="url(#a)" transform="matrix(1.25 0 0 -1.25 0 45)"><g><path fill="#7c533e" d="M33 6.5c0 2.48-3.13 6.5-7 6.5-.02 0-.04 0-.06 0-.5 9.25-4.22 23-7.94 23-3.66 0-7.3-13.7-7.9-23-.04 0-.07 0-.1 0-3.87 0-7-4.02-7-6.5 0-2.33 5.26-3.36 9.2-5.13C13.48.27 15.35 0 18 0c2.25 0 3.94.27 5.17 1.08C27.17 3.03 33 4.05 33 6.5"/></g><g><path fill="#543226" d="M26 6c-.54-.1.14 1 .14 3.72C26.14 11 26 12 26 13c1 0 2.1 0 2.1-2.92C28.1 8.42 26.55 6.1 26 6"/></g><g><path fill="#543226" d="M9.9 6c.54-.1-.14 1-.14 3.72C9.76 11 9.9 12 9.9 13c-1 0-2.1 0-2.1-2.92C7.8 8.42 9.34 6.1 9.9 6"/></g></g></g><g><g clip-path="url(#b)" transform="matrix(1.25 0 0 -1.25 0 45)"><g><path d="M11.9 1.5C11.54.37 9.7-.1 7.8.45 5.85 1 4.56 2.4 4.9 3.54 5.26 4.7 7.1 5.2 9 4.63c1.93-.56 3.22-1.95 2.9-3.1"/></g><g><path d="M24.1 1.5C24.46.37 26.3-.1 28.2.45c1.94.56 3.23 1.95 2.9 3.1C30.74 4.7 28.9 5.2 27 4.63c-1.93-.56-3.22-1.95-2.9-3.1"/></g></g></g></g></svg>