<svg xmlns="http://www.w3.org/2000/svg" viewBox="0 0 45 45" enable-background="new 0 0 45 45"><defs><clipPath id="a"><path d="M0 36h36V0H0v36z"/></clipPath></defs><g><g><g clip-path="url(#a)" transform="matrix(1.25 0 0 -1.25 0 45)"><g><path fill="#f7dece" d="M15.86 5s2.4.2 3.06 1.8c.7 1.63-.62 2.3-.62 2.3s1.92-.06 2.62 1.94c.67 1.9-.95 2.75-.95 2.75s1.87.3 2.4 2.28c.47 1.68-1.15 2.92-1.15 2.92h12.2c.96 0 2.58.54 2.58 2.54S34.34 24 33.42 24h-20.5c-1 0-1 1 0 1h2.67c3.78 0 6.13 2.04 6.78 2.75.65.7.98 1.67.74 2.82-.42 1.96-1.92 1.53-3.2.98-3.08-1.34-7.46-2.26-9.54-2.54C4.52 28.23 0 23.2 0 17.14 0 10.5 5.3 5 11.92 5h3.94z"/></g></g></g></g></svg>