<svg xmlns="http://www.w3.org/2000/svg" viewBox="0 0 45 45" enable-background="new 0 0 45 45"><defs><clipPath id="a"><path d="M0 36h36V0H0v36z"/></clipPath></defs><g><g><g clip-path="url(#a)" transform="matrix(1.25 0 0 -1.25 0 45)"><g><path fill="#662113" d="M36 28.5C36 24 27.94 17 18 17S0 24 0 28.5C0 30 3 27 18 27s18 3 18 1.5"/></g><g><path fill="#ea596e" d="M18 25c-6 0-11 1-11 1V14C7 7.92 11.92 3 18 3s11 4.92 11 11v12s-5-1-11-1"/></g><g><path fill="#dd2e44" d="M19 7c0-.55-.45-1-1-1s-1 .45-1 1v16c0 .55.45 1 1 1s1-.45 1-1V7z"/></g></g></g></g></svg>