<svg xmlns="http://www.w3.org/2000/svg" viewBox="0 0 45 45" enable-background="new 0 0 45 45"><defs><clipPath id="a"><path d="M0 36h36V0H0v36z"/></clipPath><clipPath id="b"><path d="M2.17 18c0-3.8 7.08-9.87 15.82-9.87 8.73 0 15.82 6.9 15.82 9.87 0 2.98-7.1 9.88-15.83 9.88-8.75 0-15.83-6.9-15.83-9.88"/></clipPath><clipPath id="c"><path d="M0 36h36V0H0v36z"/></clipPath></defs><g><g><g clip-path="url(#a)" transform="matrix(1.25 0 0 -1.25 0 45)"><g><path fill="#99aab5" d="M35.06 18c0-3.3-7.64-11-17.07-11S.9 13.75.9 18c0 3.3 7.65 11 17.07 11s17.06-7.7 17.06-11"/></g></g></g><g><g clip-path="url(#b)" transform="matrix(1.25 0 0 -1.25 0 45)"><g><path fill="#f5f8fa" d="M33.82 18c0-2.9-7.1-9.67-15.83-9.67-8.75 0-15.83 5.94-15.83 9.67 0 2.9 7.08 9.67 15.82 9.67 8.73 0 15.82-6.76 15.82-9.67"/></g><g><path fill="#55acee" d="M26.46 18c0-4.67-3.8-8.46-8.46-8.46-4.67 0-8.46 3.8-8.46 8.46 0 4.67 3.8 8.46 8.46 8.46 4.67 0 8.46-3.8 8.46-8.46"/></g></g></g><g><g clip-path="url(#c)" transform="matrix(1.25 0 0 -1.25 0 45)"><g><path fill="#292f33" d="M22.7 18c0-2.6-2.1-4.7-4.7-4.7s-4.7 2.1-4.7 4.7 2.1 4.7 4.7 4.7 4.7-2.1 4.7-4.7"/></g><g><path fill="#f5f8fa" d="M23 21c0-1.1-.9-2-2-2s-2 .9-2 2 .9 2 2 2 2-.9 2-2"/></g></g></g></g></svg>