<?xml version="1.0" encoding="UTF-8" standalone="no"?><svg xmlns:dc="http://purl.org/dc/elements/1.1/" xmlns:cc="http://creativecommons.org/ns#" xmlns:rdf="http://www.w3.org/1999/02/22-rdf-syntax-ns#" xmlns:svg="http://www.w3.org/2000/svg" xmlns="http://www.w3.org/2000/svg" viewBox="0 0 45 45" style="enable-background:new 0 0 45 45;" xml:space="preserve" version="1.1" id="svg2"><metadata id="metadata8"><rdf:RDF><cc:Work rdf:about=""><dc:format>image/svg+xml</dc:format><dc:type rdf:resource="http://purl.org/dc/dcmitype/StillImage"/></cc:Work></rdf:RDF></metadata><defs id="defs6"><clipPath id="clipPath16" clipPathUnits="userSpaceOnUse"><path id="path18" d="M 0,36 36,36 36,0 0,0 0,36 Z"/></clipPath></defs><g transform="matrix(1.25,0,0,-1.25,0,45)" id="g10"><g id="g12"><g clip-path="url(#clipPath16)" id="g14"><g transform="translate(33,6.5)" id="g20"><path id="path22" style="fill:#ffdc5d;fill-opacity:1;fill-rule:nonzero;stroke:none" d="M 0,0 C 0,2.485 -3.134,6.5 -7,6.5 -7.019,6.5 -7.04,6.497 -7.059,6.497 -7.559,15.751 -11.278,29.5 -15,29.5 c -3.657,0 -7.311,-13.691 -7.912,-23.004 -0.028,0 -0.06,0.004 -0.088,0.004 -3.866,0 -7,-4.015 -7,-6.5 0,-2.326 5.257,-3.364 9.21,-5.128 1.262,-1.096 3.132,-1.372 5.79,-1.372 2.253,0 3.941,0.267 5.173,1.081 C -5.83,-3.474 0,-2.45 0,0"/></g><g transform="translate(26,6)" id="g24"><path id="path26" style="fill:#ef9645;fill-opacity:1;fill-rule:nonzero;stroke:none" d="M 0,0 C 0.544,0.099 2.104,2.421 2.104,4.077 2.104,6.139 1.555,6.744 0.88,6.923 0.591,6.969 0.299,7 0,7 0,6 0.137,5 0.137,3.722 0.137,1 -0.544,-0.098 0,0"/></g><g transform="translate(7.7891,10.0771)" id="g28"><path id="path30" style="fill:#ef9645;fill-opacity:1;fill-rule:nonzero;stroke:none" d="m 0,0 c 0,-1.656 1.561,-3.979 2.104,-4.077 0.544,-0.098 -0.136,1 -0.136,3.722 0,1.275 0.136,2.273 0.136,3.271 C 1.755,2.909 1.413,2.866 1.078,2.798 0.472,2.568 0,1.909 0,0"/></g><g transform="translate(9.0078,4.623)" id="g32"><path id="path34" style="fill:#662113;fill-opacity:1;fill-rule:nonzero;stroke:none" d="m 0,0 c -1.562,0.454 -3.049,0.216 -3.741,-0.503 1.804,-0.893 4.381,-1.648 6.618,-2.609 0,10e-4 0.001,10e-4 0.001,0.002 C 3.215,-1.955 1.927,-0.562 0,0"/></g><g transform="translate(26.9922,4.623)" id="g36"><path id="path38" style="fill:#662113;fill-opacity:1;fill-rule:nonzero;stroke:none" d="m 0,0 c -1.927,-0.562 -3.215,-1.955 -2.878,-3.11 0.001,-0.001 0.002,-0.003 0.002,-0.004 2.237,0.961 4.813,1.718 6.617,2.61 C 3.05,0.216 1.562,0.455 0,0"/></g></g></g></g></svg>
