<svg xmlns="http://www.w3.org/2000/svg" viewBox="0 0 45 45" enable-background="new 0 0 45 45"><defs><clipPath id="a"><path d="M0 36h36V0H0v36z"/></clipPath></defs><g><g><g clip-path="url(#a)" transform="matrix(1.25 0 0 -1.25 0 45)"><g><path fill="#90603e" d="M25 7.5c-1.2 0-2.24.85-2.46 2.05l-4 22c-.25 1.36.65 2.66 2 2.9 1.37.26 2.67-.64 2.92-2l4-22c.25-1.36-.65-2.66-2-2.9-.16-.04-.3-.05-.46-.05"/></g><g><path fill="#af7e57" d="M28.38 11.24c.23.74.13 1.6-.38 2.26-.06.08-.44.6-1.02 1.34 0 .05.02.1.02.16 0 .46-1.9 2.62-3.74 4.6-1.6 1.95-3.26 3.94-4.5 5.17l-1.27 1.27-1.62-.8c-5.72-2.86-8.65-3.86-8.67-3.87-1.3-.43-2-1.85-1.57-3.16.43-1.3 1.85-2 3.16-1.57.1.04 2.66.9 7.64 3.3 1.1-1.22 2.38-2.8 3.57-4.3l.72-1.16c.17-.28.14-.64-.06-.9l-3.52-4.4c-.1-.1-.22-.2-.36-.24l-2.53-.85c-.16-.05-.34-.05-.5 0L9.02 9.66c-.67 2.08-.53 4.1-.53 4.12.1 1.38-.9 2.6-2.28 2.7-1.38.14-2.6-.9-2.7-2.26-.03-.26-.52-6.43 3.3-10.6C9.02 1.22 12.12 0 16 0c.66 0 1.28-.02 1.87-.02.53 0 1.04-.02 1.54-.02 2.77 0 5 .23 6.75 1.94 1.65 1.63 2.35 4.2 2.35 8.6 0 .25-.05.5-.13.74"/></g><g><path fill="#90603e" d="M27 15c-.38 0-.75.22-.9.6l-4 9c-.24.5 0 1.1.5 1.3.5.24 1.1 0 1.3-.5l4-9c.24-.5 0-1.1-.5-1.3-.13-.07-.26-.1-.4-.1"/></g><g><path fill="#af7e57" d="M24.77 1.62l-1.54 4.76s-.06 0-.17-.07c.02.02 1.82 1 2.46 6.02.78 6.07-.77 9.6-.8 9.63l-.08.23-3.5 10.1c-.45 1.3.24 2.73 1.54 3.2 1.3.44 2.73-.25 3.18-1.56l3.47-10c.38-.9 2.04-5.3 1.15-12.24-1.04-8.16-4.94-9.8-5.7-10.06"/></g></g></g></g></svg>