<svg xmlns="http://www.w3.org/2000/svg" viewBox="0 0 45 45" enable-background="new 0 0 45 45"><defs><clipPath id="a"><path d="M0 36h36V0H0v36z"/></clipPath></defs><g><g><g clip-path="url(#a)" transform="matrix(1.25 0 0 -1.25 0 45)"><g><path fill="#90603e" d="M1.73 13.7s-1.4 1.3-.1 2.7c1.28 1.38 2.68.1 2.68.1l6.48-6c-.1.1.45.87.37.95l-8.98 8.32s-1.4 1.3-.1 2.68c1.3 1.4 2.68.1 2.68.1l8.45-7.82c-.02.02.6.73.6.74L4 24.54s-1.4 1.3-.1 2.7c1.3 1.38 2.68.1 2.68.1l9.8-9.08s.68.66.7.64l-9.15 8.48s-1.4 1.3-.1 2.7c1.28 1.38 2.68.1 2.68.1s6.82-6.32 9.7-8.97c2.85-2.65 3.5-1.95 3.5-1.95l-2.6 2.4-2.98 2.76s-1.4 1.3-.1 2.7c1.3 1.4 2.7.1 2.7.1l7.65-7.1C33 15.82 33.27 8.6 29 4 24.7-.64 17.5-.9 12.87 3.36c-.25.23-.68.66-.67.7L12.2 4 1.73 13.7z"/></g><g><path fill="#af7e57" d="M4.63 15.65s-1.4 1.3-.1 2.7c1.28 1.38 2.68.1 2.68.1l6.48-6c-.1.1.45.87.37.95l-8.98 8.32s-1.4 1.3-.1 2.68c1.3 1.4 2.68.1 2.68.1l8.45-7.82c-.02.02.6.73.6.74L6.9 26.5s-1.4 1.28-.1 2.68c1.3 1.4 2.68.1 2.68.1l9.8-9.07s.68.67.7.65l-9.15 8.48s-1.4 1.3-.1 2.7c1.28 1.38 2.68.1 2.68.1s6.82-6.32 9.7-8.98c2.85-2.65 3.5-1.95 3.5-1.95L24 23.6l-2.98 2.76s-1.4 1.3-.1 2.7c1.3 1.38 2.7.1 2.7.1l7.65-7.1c4.62-4.3 4.9-11.5.62-16.12-4.3-4.62-11.5-4.9-16.12-.62-.25.23-.68.66-.66.68l-.04-.03-10.45 9.68z"/></g><g><path fill="#ffac33" d="M24.54 29.54c-.2 0-.43.07-.6.2-.45.35-.53.98-.2 1.4l3 3.87c.33.44.95.53 1.4.2.43-.35.5-.98.17-1.4l-2.97-3.87c-.2-.25-.5-.4-.8-.4"/></g><g><path fill="#ffac33" d="M19 29c-.55 0-1 .45-1 1v5c0 .55.45 1 1 1s1-.45 1-1v-5c0-.55-.45-1-1-1"/></g><g><path fill="#ffac33" d="M28.42 26.33c-.4 0-.8.26-.94.66-.2.5.08 1.08.6 1.27l4.58 1.67c.52.2 1.1-.08 1.28-.6.2-.52-.08-1.1-.6-1.28l-4.58-1.67c-.1-.05-.23-.07-.34-.07"/></g></g></g></g></svg>