<svg xmlns="http://www.w3.org/2000/svg" viewBox="0 0 45 45" enable-background="new 0 0 45 45"><defs><clipPath id="a"><path d="M0 36h36V0H0v36z"/></clipPath></defs><g><g><g clip-path="url(#a)" transform="matrix(1.25 0 0 -1.25 0 45)"><g><path fill="#d5ab88" d="M4 20.14s-.1-2.36 1.8-3.07c1.66-.63 2.3.6 2.3.6s-.06-1.9 1.94-2.6c1.88-.7 2.75.94 2.75.94s.3-1.86 2.27-2.4c1.67-.48 2.92 1.15 2.92 1.15s-.03-11.25-.04-12.2c0-.97.54-2.6 2.54-2.6s2.46 1.66 2.46 2.58c0 .9.03 12.5.04 16.5 0 .42 0 3.75 0 4 0 1 1 1 1 0s0-1.68 0-2.67c0-3.8 2.03-6.15 2.74-6.8.7-.65 1.67-.98 2.82-.74 1.96.4 1.53 1.9.98 3.2-1.33 3.07-2.23 7.46-2.5 9.54-.8 5.86-5.8 10.4-11.87 10.4C9.55 36 4.04 30.7 4 24.07c0-.34 0-3.92 0-3.92"/></g></g></g></g></svg>