<?xml version="1.0" encoding="UTF-8" standalone="no"?><svg xmlns:dc="http://purl.org/dc/elements/1.1/" xmlns:cc="http://creativecommons.org/ns#" xmlns:rdf="http://www.w3.org/1999/02/22-rdf-syntax-ns#" xmlns:svg="http://www.w3.org/2000/svg" xmlns="http://www.w3.org/2000/svg" viewBox="0 0 45 45" style="enable-background:new 0 0 45 45;" xml:space="preserve" version="1.1" id="svg2"><metadata id="metadata8"><rdf:RDF><cc:Work rdf:about=""><dc:format>image/svg+xml</dc:format><dc:type rdf:resource="http://purl.org/dc/dcmitype/StillImage"/></cc:Work></rdf:RDF></metadata><defs id="defs6"><clipPath id="clipPath16" clipPathUnits="userSpaceOnUse"><path id="path18" d="M 0,36 36,36 36,0 0,0 0,36 Z"/></clipPath></defs><g transform="matrix(1.25,0,0,-1.25,0,45)" id="g10"><g id="g12"><g clip-path="url(#clipPath16)" id="g14"><g transform="translate(34.9561,17.916)" id="g20"><path id="path22" style="fill:#7c543e;fill-opacity:1;fill-rule:nonzero;stroke:none" d="m 0,0 c 0,-0.503 -0.12,-0.976 -0.32,-1.403 -1.342,-4.326 -7.619,-4.01 -16.55,-4.222 -1.493,-0.035 -0.64,-1.798 -0.115,-5.668 0.341,-2.517 -1.281,-6.382 -4.01,-6.382 -4.498,0 -0.171,3.548 -4.149,12.321 -2.125,4.688 -6.875,2.063 -6.875,6.771 l 0,10.719 c 0,1.833 0.181,3.595 2.758,3.885 2.5,0.282 1.938,2.063 5.543,2.063 l 18.044,0 c 1.838,0 3.333,-1.496 3.333,-3.334 0,-0.762 -0.266,-1.456 -0.698,-2.018 1.02,-0.57 1.72,-1.649 1.72,-2.899 0,-0.76 -0.266,-1.454 -0.697,-2.015 1.024,-0.57 1.726,-1.65 1.726,-2.901 0,-0.909 -0.368,-1.733 -0.961,-2.335 C -0.494,1.97 0,1.046 0,0"/></g><g transform="translate(23.0195,21.249)" id="g24"><path id="path26" style="fill:#583529;fill-opacity:1;fill-rule:nonzero;stroke:none" d="m 0,0 8.17,0 0.434,0 0,0 c 1.17,0 2.268,-0.626 2.866,-1.633 0.246,-0.415 0.109,-0.952 -0.307,-1.199 C 10.748,-3.079 10.211,-2.94 9.964,-2.525 9.681,-2.047 9.158,-1.75 8.603,-1.75 l -0.433,0 -8.17,0 -0.207,0 c -0.873,0 -1.583,-0.71 -1.583,-1.583 0,-0.873 0.71,-1.583 1.583,-1.583 l 5.888,0 c 0.483,0 0.875,-0.392 0.875,-0.875 0,-0.483 -0.392,-0.875 -0.875,-0.875 l -5.888,0 c -1.838,0 -3.333,1.495 -3.333,3.333 0,1.025 0.475,1.932 1.205,2.543 -0.615,0.606 -0.998,1.445 -0.998,2.374 0,1.028 0.478,1.937 1.212,2.549 -0.61,0.605 -0.99,1.442 -0.99,2.367 0,1.12 0.559,2.108 1.409,2.712 -0.525,0.59 -0.853,1.356 -0.853,2.205 0,1.838 1.495,3.333 3.333,3.333 l 5.485,0 c 1.17,0 2.268,-0.625 2.867,-1.632 C 9.377,12.703 9.24,12.166 8.825,11.919 8.409,11.674 7.872,11.809 7.626,12.224 7.341,12.702 6.818,13 6.263,13 l -5.485,0 c -0.873,0 -1.583,-0.71 -1.583,-1.583 0,-0.873 0.71,-1.583 1.583,-1.583 l 5.051,0 1.455,0 c 1.17,0 2.27,-0.626 2.867,-1.633 C 10.398,7.785 10.262,7.248 9.847,7.002 9.428,6.751 8.893,6.892 8.647,7.307 8.358,7.794 7.849,8.084 7.284,8.084 l -1.455,0 -5.051,0 -0.556,0 c -0.873,0 -1.583,-0.711 -1.583,-1.584 0,-0.873 0.71,-1.583 1.583,-1.583 l 6.629,0 1.462,0 c 1.169,0 2.268,-0.625 2.867,-1.632 C 11.427,2.87 11.29,2.333 10.875,2.086 10.458,1.84 9.922,1.976 9.676,2.391 9.387,2.877 8.877,3.167 8.313,3.167 l -1.462,0 -6.629,0 -0.222,0 c -0.873,0 -1.583,-0.71 -1.583,-1.583 C -1.583,0.711 -0.873,0 0,0"/></g></g></g></g></svg>
