<svg xmlns="http://www.w3.org/2000/svg" viewBox="0 0 45 45" enable-background="new 0 0 45 45"><defs><clipPath id="a"><path d="M0 36h36V0H0v36z"/></clipPath></defs><g><g><g clip-path="url(#a)" transform="matrix(1.25 0 0 -1.25 0 45)"><g><path fill="#af7e57" d="M30 15.86s.1 2.36-1.8 3.06c-1.66.63-2.3-.62-2.3-.62s.06 1.92-1.94 2.62c-1.9.67-2.75-.95-2.75-.95s-.3 1.87-2.28 2.4c-1.67.47-2.92-1.15-2.92-1.15v12.2c0 .96-.54 2.58-2.54 2.58S11 34.34 11 33.42v-20.5c0-1-1-1-1 0v2.67c0 3.78-2.04 6.13-2.75 6.78-.7.65-1.67.98-2.82.74-1.96-.42-1.53-1.92-.97-3.2C4.8 16.84 5.7 12.46 6 10.38 6.77 4.52 11.8 0 17.86 0 24.5 0 30 5.3 30 11.92v3.94z"/></g></g></g></g></svg>