<svg xmlns="http://www.w3.org/2000/svg" viewBox="0 0 45 45" enable-background="new 0 0 45 45"><defs><clipPath id="a"><path d="M0 36h36V0H0v36z"/></clipPath></defs><g><g><path fill="#3b88c3" d="M27.5 0L25 13.22l7.5 20.53 11.25-1.1L37.5 3.5 31.25 0H27.5z"/></g><g><path fill="#3b88c3" d="M13.75 0L7.5 3.5 1.25 32.65l11.25 1.1L20 13.23 17.5 0h-3.75z"/></g><path fill="#3b88c3" d="M13.75 45h17.5V6.25h-17.5V45z"/><g><path fill="#269" d="M22.48 10.95l-8.73 6.55h2.5l6.37-6.37-.14-.18z"/></g><g><g clip-path="url(#a)" transform="matrix(1.25 0 0 -1.25 0 45)"><g><path fill="#88c9f9" d="M25 16s-1.17-1-7-1-7 1-7 1v6h14v-6z"/></g><g><path fill="#fff" d="M25 18s-1.17-1-7-1-7 1-7 1v2h14v-2z"/></g><g><path fill="#fff" d="M25 36l-7-9-7 9h14z"/></g><g><path fill="#99aab5" d="M20.33 36L18 33l-2.33 3h4.66z"/></g><g><path fill="#269" d="M25 11v21l2-23-2 2z"/></g><g><path fill="#269" d="M11 11v21L9 9l2 2z"/></g></g></g></g></svg>