<svg xmlns="http://www.w3.org/2000/svg" viewBox="0 0 45 45" enable-background="new 0 0 45 45"><defs><clipPath id="a"><path d="M0 36h36V0H0v36z"/></clipPath></defs><g><g><g clip-path="url(#a)" transform="matrix(1.25 0 0 -1.25 0 45)"><g><path fill="#553788" d="M29 11s-4-1-11-1-11 1-11 1 6-5 11-5 11 5 11 5"/></g><g><path fill="#553788" d="M18 18.14c-5.5 0-10 4.52-10 10.07 0 2.86 1.2 5.6 3.33 7.5l1.34-1.48c-1.7-1.53-2.67-3.72-2.67-6 0-4.46 3.6-8.08 8-8.08s8 3.62 8 8.07c0 2.3-.97 4.5-2.67 6.02l1.34 1.48C26.8 33.8 28 31.06 28 28.2c0-5.54-4.5-10.06-10-10.06"/></g><g><path fill="#744eaa" d="M16.63 19.14S11.2 23 8.88 30.47c-.2-.18-4.42-5.66-2.22-10.2 2.2-4.52 9.95-1.13 9.95-1.13"/></g><g><path fill="#744eaa" d="M19.44 19.14s5.48 4.73 7.73 11.33c.16-.3 4.42-5.66 2.2-10.2-2.2-4.52-9.93-1.13-9.93-1.13"/></g><g><path fill="#744eaa" d="M29 11s-4-3-11-3-11 3-11 3 7.2-5.63 9-11h4c1.96 6.63 9 11 9 11"/></g></g></g></g></svg>