<svg xmlns="http://www.w3.org/2000/svg" viewBox="0 0 45 45" enable-background="new 0 0 45 45"><defs><clipPath id="a"><path d="M0 36h36V0H0v36z"/></clipPath></defs><g><g><g clip-path="url(#a)" transform="matrix(1.25 0 0 -1.25 0 45)"><g><path fill="#ffac33" d="M28 14c-.55 0-1 .45-1 1v6c0 6.07-4.04 11-9 11s-9-4.93-9-11v-6c0-.55-.45-1-1-1s-1 .45-1 1v6c0 7.17 4.93 13 11 13 6.06 0 11-5.83 11-13v-6c0-.55-.45-1-1-1"/></g><g><path fill="#9266cc" d="M33.4 23.03C33.12 25.2 31.1 27 28.9 27H7.1c-2.2 0-4.23-1.8-4.5-3.97L.48 4.97C.2 2.8 1.8 1 4 1h28c2.2 0 3.8 1.8 3.53 3.97L33.4 23.03z"/></g><g><path fill="#ffd983" d="M28 16c-.55 0-1 .45-1 1v6c0 6.07-4.04 11-9 11s-9-4.93-9-11v-6c0-.55-.45-1-1-1s-1 .45-1 1v6c0 7.17 4.93 13 11 13 6.06 0 11-5.83 11-13v-6c0-.55-.45-1-1-1"/></g></g></g></g></svg>