<svg xmlns="http://www.w3.org/2000/svg" viewBox="0 0 45 45" enable-background="new 0 0 45 45"><defs><clipPath id="a"><path d="M0 36h36V0H0v36z"/></clipPath></defs><g><g><g clip-path="url(#a)" transform="matrix(1.25 0 0 -1.25 0 45)"><g><path fill="#88c9f9" d="M36 4c0-2.2-1.8-4-4-4H4C1.8 0 0 1.8 0 4v28c0 2.2 1.8 4 4 4h28c2.2 0 4-1.8 4-4V4z"/></g><g><path fill="#dd2e44" d="M19.34.54c-.74-.72-1.94-.72-2.68 0l-6.63 6.53c-.74.73-.94 2.04-.44 2.9l7.5 18.45c.5.88 1.3.88 1.8 0l7.5-18.44c.5-.87.3-2.18-.43-2.9L19.34.53z"/></g><g><path fill="#a0041e" d="M18 21.33c.95 0 2 .95 2.9 2.2l-2 4.9c-.5.87-1.3.87-1.8 0l-2-4.9c.9-1.25 1.95-2.2 2.9-2.2"/></g><g><path fill="#dd2e44" d="M23 30.22c0-1.96-2.8-7.1-5-7.1s-5 5.14-5 7.1c0 1.8 2.8 2.78 5 2.78s5-1 5-2.78"/></g><g><path fill="#4ca0d3" d="M0 32v-2.25C2.07 26.98 6.78 22 8 22c2.2 0 11 10.8 11 13 0 1-1 1-2 1H4c-2.2 0-4-1.8-4-4"/></g><g><path fill="#4ca0d3" d="M17 35c0-2.2 8.8-13 11-13 1.22 0 5.93 4.98 8 7.75V32c0 2.2-1.8 4-4 4H19c-1 0-2 0-2-1"/></g><g><path fill="#269" d="M4 36c-.27 0-.53-.03-.78-.08C4.4 34.26 10.56 33 18 33c7.44 0 13.6 1.26 14.78 2.92-.25.05-.5.08-.78.08H4z"/></g></g></g></g></svg>