<svg xmlns="http://www.w3.org/2000/svg" viewBox="0 0 45 45" enable-background="new 0 0 45 45"><defs><clipPath id="a"><path d="M0 36h36V0H0v36z"/></clipPath></defs><g><g><g clip-path="url(#a)" transform="matrix(1.25 0 0 -1.25 0 45)"><g><path fill="#90603e" d="M15.28 15.74L13.4 19.4l-3.8 8.1c-.28.63-1.15.83-1.92.47l-.06-.03c-.68-.32-1.07-.97-.97-1.53 0 0-1.27 1.15-2.02.8l-.06-.02c-.75-.35-1.12-1.14-.83-1.76l.53-1.2c-.3.65-1.2.87-2 .5l-.05-.03c-.8-.38-1.2-1.2-.9-1.85L6.46 9.7l6.8-.2 2.02 6.24z"/></g><g><path fill="#90603e" d="M33.85 24.7l-.06.02c-.8.37-1.7.15-2-.5l.54 1.2c.3.62-.1 1.4-.83 1.76l-.05.02c-.75.35-1.6.13-1.9-.5l-.13-.3c.1.57-.28 1.22-.96 1.54l-.06.02c-.78.37-1.64.17-1.93-.45l-3.88-8.1-1.62-3.38 2.9-7.25 6.32 4.32 4.55 9.75c.3.65-.1 1.47-.9 1.84"/></g><g><path fill="#af7e57" d="M35.8 20.33s.66 1.04-.45 1.56c-1.1.5-1.48-.67-1.48-.67l-2.4-5.14c-.13.15-.7.5-.85.66l3.3 7.13s.66 1.04-.44 1.55c-1.1.52-1.5-.66-1.5-.66l-3.1-6.72c-.18.1-.64.33-.82.43l3.62 7.8s.65 1.03-.46 1.54c-1.1.52-1.48-.65-1.48-.65l-3.62-7.8c-.2.1-.8.34-1 .4l3.4 7.28s.65 1.05-.46 1.56c-1.1.52-1.48-.65-1.48-.65L23 20.3l-.28-.62-.13-.28c3.3-1.54 4.47-5.6 3.2-8.38-.27-.55-1.2-.3-1.2-.3 1.56 3.32.37 6.57-2.95 8.1l.14 4.55s.12 1.22-1.1 1.35c-1.2.14-1.34-1.08-1.34-1.08l-.5-3.18c-.2-1.26-.44-2.53-.82-3.75-1.06-3.43.56-7.22 3.92-8.8 3.67-1.7 8.03-.1 9.73 3.57.08.2.25.55.25.55l3.86 8.3z"/></g><g><path fill="#af7e57" d="M.2 20.33s-.66 1.04.44 1.56c1.1.5 1.5-.67 1.5-.67L4.5 16.1c.14.15.7.5.86.66l-3.3 7.13s-.67 1.04.44 1.55c1.1.52 1.5-.66 1.5-.66l3.1-6.72c.18.1.63.33.82.43l-3.62 7.8s-.65 1.03.46 1.54c1.1.52 1.48-.65 1.48-.65l3.62-7.8c.2.1.8.34.98.4L7.48 27.1s-.65 1.05.46 1.56c1.1.52 1.48-.65 1.48-.65L13 20.3l.28-.62.13-.28c-3.3-1.54-4.47-5.6-3.2-8.38.27-.55 1.2-.3 1.2-.3-1.56 3.32-.37 6.57 2.95 8.1l-.14 4.55s-.13 1.22 1.1 1.35c1.2.14 1.34-1.08 1.34-1.08l.5-3.18c.2-1.26.44-2.53.82-3.75 1.06-3.43-.56-7.22-3.92-8.8C10.37 6.2 6 7.8 4.3 11.48c-.08.2-.25.55-.25.55L.2 20.32z"/></g></g></g></g></svg>