<svg xmlns="http://www.w3.org/2000/svg" viewBox="0 0 45 45" enable-background="new 0 0 45 45"><defs><clipPath id="a"><path d="M0 36h36V0H0v36z"/></clipPath></defs><g><g><g clip-path="url(#a)" transform="matrix(1.25 0 0 -1.25 0 45)"><g><path fill="#c1694f" d="M10 25S0 23 0 18c0-2.04 1.07-2.96 2.5-2.96 2.97 0 7.5 3.9 7.5 9.96m-2.4-2.74C6.6 19 4 17.04 2.5 17.04c-.25 0-.5 0-.5.96 0 1.7 2.78 3.28 5.6 4.26"/></g><g><path fill="#a6d388" d="M33.75 21.03c-.27 2.18-2.3 3.97-4.5 3.97h-18.5c-2.2 0-4.23-1.8-4.5-3.97L4.5 6.97C4.22 4.8 5.8 3 8 3h24c2.2 0 3.78 1.8 3.5 3.97l-1.75 14.06z"/></g><g><path fill="#77b255" d="M8 23s2.5-8.5 4-7-4 7-4 7"/></g><g><path fill="#77b255" d="M31.26 23s-2.5-8.5-4-7 4 7 4 7"/></g></g></g></g></svg>