<svg xmlns="http://www.w3.org/2000/svg" viewBox="0 0 36 36"><path fill="#CCD6DD" d="M36 34.5c0 .828-.672 1.5-1.5 1.5h-33C.671 36 0 35.328 0 34.5S.671 33 1.5 33h33c.828 0 1.5.672 1.5 1.5z"/><path fill="#55ACEE" d="M1.452 23.387s-.522.063-1.05 2.158c-.526 2.089-.342 4.062-.344 6.656-.001.671 1.045 1.082 1.045 1.082l33.519.04s1.048-.442 1.048-1.078c.003-1.354-.67-5.237-5.07-5.237-1.048 0-5.271.049-8.537-2.341-1.208-.882-5.861-2.852-7.953-3.935-2.094-1.084-2.185 3.748-6.374 3.742-4.19-.005-4.189-1.083-6.284-1.087z"/><path fill="#269" d="M12.312 27.021l-.61-1.783c2.696-.923 3.617-2.688 3.655-2.762l1.691.831c-.05.102-1.261 2.524-4.736 3.714zm4.73 2.282l-.611-1.783c2.698-.924 3.642-2.736 3.651-2.754l1.695.824c-.05.102-1.261 2.522-4.735 3.713z"/><path fill="#3B88C3" d="M35 34H1c-.552 0-1-.447-1-1s.448-1 1-1h34c.553 0 1 .447 1 1s-.447 1-1 1z"/></svg>