<svg xmlns="http://www.w3.org/2000/svg" viewBox="0 0 45 45" enable-background="new 0 0 45 45"><defs><clipPath id="a"><path d="M0 36h36V0H0v36z"/></clipPath></defs><g><g><g clip-path="url(#a)" transform="matrix(1.25 0 0 -1.25 0 45)"><g><path fill="#939598" d="M18.16 34.14c0-1-.8-1.82-1.82-1.82-1 0-1.8.84-1.75 1.84.03.98.85 1.74 1.8 1.74.98 0 1.76-.8 1.76-1.76"/></g><g><path fill="#d1d3d4" d="M33.84 21.48C36.64 5.28 36.86 3.9 19.52 4l-3.35.03c-15.1.1-17.34.17-14.3 17.66 1.3 7.45 7.68 11.25 14.75 11.2h2.47c7.06-.05 13.45-3.94 14.74-11.42"/></g><g><path fill="#d1d3d4" d="M20.3 34.12c.03-1-.76-1.82-1.77-1.8-1 0-1.8.83-1.8 1.83.02.97.8 1.74 1.78 1.73.97 0 1.77-.78 1.8-1.76"/></g><g><path fill="#ea596e" d="M34.36 18.78C37.36 1.4 37.6-.08 19.6.03l-3.5.02C.4.15-1.92.2 1.34 19 2.72 26.92 9.3 30.95 16.58 30.9l2.55-.02c7.28-.05 13.86-4.16 15.23-12.12"/></g><g><path fill="#dd2e44" d="M16.14 30.02s-6.72-7.72-4.98-9.65c1.8-2.02 4.98 9.65 4.98 9.65"/></g><g><path fill="#dd2e44" d="M18.4 30s6.6-7.8 4.84-9.7c-1.83-2-4.84 9.7-4.84 9.7"/></g></g></g></g></svg>