<svg xmlns="http://www.w3.org/2000/svg" viewBox="0 0 36 36"><path fill="#C36446" d="M2.79 20.043s-.513.062-1.032 2.126C1.24 24.228.805 28.687.804 31.24c-.001.662 1.03 1.063 1.03 1.063l33.015.023s1.031-.437 1.032-1.064c.001-1.333.37-6.061-2.818-5.981-1.032.026-7.371.878-10.591-1.475-1.19-.867-5.156-5.321-7.216-6.386-2.063-1.065-2.149 3.693-6.276 3.691-4.127-.004-4.127-1.066-6.19-1.068z"/><path fill="#292F33" d="M34.847 35.516s-7.328.266-13.518.261c-6.192-.004-5.574-1.867-7.117-1.867-1.031-.001-1.031 1.592-1.031 1.594l-11.348-.008c-.77 0-1.032-.715-1.032-1.596 0-.882-.106-1.597 1.033-1.597l33.015.023c1.137-.002 1.152.793 1.151 1.674 0 0-.015 1.517-1.153 1.516zM13.489 23.617l-.603-1.758c2.655-.911 3.562-2.649 3.599-2.724l1.667.819c-.048.102-1.24 2.488-4.663 3.663zm3.094 3.193l-.604-1.758c2.654-.911 3.561-2.648 3.598-2.722l1.667.819c-.049.102-1.241 2.486-4.661 3.661z"/></svg>