<svg xmlns="http://www.w3.org/2000/svg" viewBox="0 0 45 45" enable-background="new 0 0 45 45"><defs><clipPath id="a"><path d="M0 36h36V0H0v36z"/></clipPath></defs><g><g><g clip-path="url(#a)" transform="matrix(1.25 0 0 -1.25 0 45)"><g><path fill="#553788" d="M12 33h12s-1-3-6-3-6 3-6 3"/></g><g><path fill="#aa8dd8" d="M30.56 19.18L35 25c-4 2-11 8-11 8s-2-4-6-4-6 4-6 4-7-6-11-8l4.44-5.82L10 21s.25-16-3-19c0 0 5-1 11-1s11 1 11 1c-3.25 3-3 19-3 19l4.56-1.82z"/></g><g><path fill="#9266cc" d="M6 19c-.3 0-.58.13-.78.38l-4 5c-.35.43-.28 1.06.16 1.4.43.35 1.06.28 1.4-.16l4-5c.35-.43.28-1.06-.16-1.4-.18-.15-.4-.22-.62-.22"/></g><g><path fill="#9266cc" d="M30 19c-.22 0-.44.07-.63.22-.43.34-.5.97-.15 1.4l4 5c.35.44.97.5 1.4.16.44-.34.5-.97.16-1.4l-4-5c-.2-.25-.5-.38-.78-.38"/></g><g><path fill="#9266cc" d="M24 33s-3-3-6-3-6 3-6 3l2-7 3 2.25V2c0-.55.45-1 1-1s1 .45 1 1v26.25L22 26l2 7z"/></g></g></g></g></svg>