<svg xmlns="http://www.w3.org/2000/svg" viewBox="0 0 45 45" enable-background="new 0 0 45 45"><defs><clipPath id="a"><path d="M0 36h36V0H0v36z"/></clipPath></defs><g><g><g clip-path="url(#a)" transform="matrix(1.25 0 0 -1.25 0 45)"><g><path fill="#c36446" d="M2.8 15.96s-.52-.07-1.04-2.13S.8 7.3.8 4.76C.8 4.1 1.83 3.7 1.83 3.7l33.02-.03s1.03.44 1.03 1.07c0 1.33.37 6.06-2.82 5.98-1.03-.03-7.37-.88-10.6 1.47-1.18.86-5.14 5.3-7.2 6.38-2.07 1.07-2.15-3.7-6.28-3.7-4.13 0-4.13 1.08-6.2 1.08"/></g><g><path fill="#292f33" d="M34.85.48S27.52.22 21.33.22c-6.2 0-5.58 1.87-7.12 1.87C13.2 2.1 13.2.5 13.2.5H1.83C1.06.5.8 1.22.8 2.1c0 .88-.1 1.6 1.03 1.6l33.02-.03C36 3.67 36 2.87 36 2c0 0 0-1.52-1.15-1.52"/></g><g><path fill="#292f33" d="M13.5 12.38l-.6 1.76c2.64.9 3.55 2.65 3.6 2.72l1.65-.82c-.05-.1-1.24-2.48-4.66-3.66"/></g><g><path fill="#292f33" d="M16.58 9.2l-.6 1.75c2.65.9 3.56 2.65 3.6 2.72l1.66-.82c-.04-.1-1.24-2.48-4.66-3.66"/></g></g></g></g></svg>