<svg xmlns="http://www.w3.org/2000/svg" viewBox="0 0 45 45" enable-background="new 0 0 45 45"><defs><clipPath id="a"><path d="M0 36h36V0H0v36z"/></clipPath></defs><g><g><g clip-path="url(#a)" transform="matrix(1.25 0 0 -1.25 0 45)"><g><path fill="#662113" d="M34.54 2.5s1.18-.2 1.18-1.24C35.72.2 34.68 0 33.64 0H15.92C13.82 0 10 4 8 4l-.6-4H1v2.94C1 5.02.12 5.22.12 6.14c0 2.1.67 4.4.67 4.4l6.74-.3L17 3l17.54-.5z"/></g><g><path fill="#c1694f" d="M1.67 8.72C4.7 8 8 7 15.64 3.34c0 0 2-1.34 4.36-1.34h14.54s1.18.26 1.18 2.42c0 1.1-7.9 3.38-10.27 4.47C23.1 9.96 19 15.2 19 15.2s-.17-13.63-7.25-6.04C4.65 16.74 7.37 15.6 5 15.6c-.48 0-3.73-1.3-4.54-5.04-.1-.54.34-1.63 1.2-1.84"/></g><g><path fill="#c1694f" d="M2 14s1 2 1 4-1 17-1 17 4.92 1 10 1 7-1 7-1-6-15 2-23c2.55-2.55-2-7-2-7s-1-2-4 0-13 9-13 9"/></g><path fill="#d99e82" d="M10 16H8v20h2V16z"/></g></g></g></svg>