<svg xmlns="http://www.w3.org/2000/svg" viewBox="0 0 45 45" enable-background="new 0 0 45 45"><defs><clipPath id="a"><path d="M0 36h36V0H0v36z"/></clipPath></defs><g><g><g clip-path="url(#a)" transform="matrix(1.25 0 0 -1.25 0 45)"><g><path fill="#3b88c3" d="M32 0v4c0 3.3-2.7 6-6 6H10c-3.3 0-6-2.7-6-6V0h28z"/></g><g><path fill="#ffdc5d" d="M14 10l4-5 4 5v4h-8v-4z"/></g><g><path fill="#f9ca55" d="M14 12c1.22-1.37 2.35-1.72 4-1.72 1.63 0 2.78.35 4 1.72v4h-8v-4z"/></g><g><path fill="#ffdc5d" d="M11.44 22.06c0-1.44-.73-2.62-1.63-2.62-.9 0-1.63 1.18-1.63 2.62 0 1.45.73 2.63 1.64 2.63.9 0 1.64-1.2 1.64-2.64"/></g><g><path fill="#ffdc5d" d="M27.83 22.06c0-1.44-.73-2.62-1.64-2.62-.9 0-1.64 1.18-1.64 2.62 0 1.45.73 2.63 1.63 2.63.9 0 1.63-1.2 1.63-2.64"/></g><g><path fill="#ffdc5d" d="M9.48 21.04c0 5.6 3.8 10.12 8.52 10.12 4.7 0 8.52-4.53 8.52-10.12 0-5.6-3.8-10.12-8.52-10.12-4.7 0-8.52 4.53-8.52 10.12"/></g><g><path fill="#c1694f" d="M18 14.2c-2.75 0-3.6.7-3.74.85-.26.25-.26.67 0 .92.25.25.64.26.9.03.05-.04.72-.5 2.84-.5 2.2 0 2.84.5 2.84.5.26.25.66.24.9-.02.27-.25.26-.68 0-.93-.14-.15-1-.85-3.74-.85"/></g><g><path fill="#ffac33" d="M18 34.52c5.65 0 9.18-4.17 9.18-7.64 0-3.47-.7-4.86-1.4-3.47-.72 1.4-1.43 2.78-1.43 2.78s-4.23 0-5.64 1.4c0 0 2.12-4.17-2.1 0 0 0 .7-2.78-3.54.7 0 0-2.12-1.4-2.83-4.87-.2-.96-1.4 0-1.4 3.48 0 3.47 2.82 7.64 9.17 7.64"/></g><g><path fill="#662113" d="M14 21c-.55 0-1 .45-1 1v1c0 .55.45 1 1 1s1-.45 1-1v-1c0-.55-.45-1-1-1"/></g><g><path fill="#662113" d="M22 21c-.55 0-1 .45-1 1v1c0 .55.45 1 1 1s1-.45 1-1v-1c0-.55-.45-1-1-1"/></g><g><path fill="#c1694f" d="M18.75 18.25h-1.5c-.4 0-.75.34-.75.75 0 .4.34.75.75.75h1.5c.4 0 .75-.34.75-.75 0-.4-.34-.75-.75-.75"/></g><g><path fill="#292f33" d="M10 3.5H8C8 7.6 9.88 12 14 12v-2c-3.16 0-4-4.25-4-6.5"/></g><g><path fill="#292f33" d="M27 7.5h-2c0 .4-.52 2.5-3 2.5v2c3.53 0 5-2.93 5-4.5"/></g><g><path fill="#ccd6dd" d="M12 3.5c0-1.66-1.34-3-3-3s-3 1.34-3 3 1.34 3 3 3 3-1.34 3-3"/></g><g><path fill="#f5f8fa" d="M11 3.5c0-1.1-.9-2-2-2s-2 .9-2 2 .9 2 2 2 2-.9 2-2"/></g><g><path fill="#292f33" d="M30 2h-2c0 .83-.1 5-2.25 5-2.14 0-2.25-4.17-2.25-5h-2c0 4.38 1.6 7 4.25 7C28.4 9 30 6.38 30 2"/></g><g><path fill="#ccd6dd" d="M23.5 2c0-.55-.45-1-1-1s-1 .45-1 1 .45 1 1 1 1-.45 1-1"/></g><g><path fill="#ccd6dd" d="M30 2c0-.55-.45-1-1-1s-1 .45-1 1 .45 1 1 1 1-.45 1-1"/></g></g></g></g></svg>