<?xml version="1.0" encoding="UTF-8" standalone="no"?><svg xmlns:dc="http://purl.org/dc/elements/1.1/" xmlns:cc="http://creativecommons.org/ns#" xmlns:rdf="http://www.w3.org/1999/02/22-rdf-syntax-ns#" xmlns:svg="http://www.w3.org/2000/svg" xmlns="http://www.w3.org/2000/svg" viewBox="0 0 45 45" style="enable-background:new 0 0 45 45;" xml:space="preserve" version="1.1" id="svg2"><metadata id="metadata8"><rdf:RDF><cc:Work rdf:about=""><dc:format>image/svg+xml</dc:format><dc:type rdf:resource="http://purl.org/dc/dcmitype/StillImage"/></cc:Work></rdf:RDF></metadata><defs id="defs6"><clipPath id="clipPath16" clipPathUnits="userSpaceOnUse"><path id="path18" d="M 0,36 36,36 36,0 0,0 0,36 Z"/></clipPath></defs><g transform="matrix(1.25,0,0,-1.25,0,45)" id="g10"><g id="g12"><g clip-path="url(#clipPath16)" id="g14"><g transform="translate(27.875,10)" id="g20"><path id="path22" style="fill:#292f33;fill-opacity:1;fill-rule:nonzero;stroke:none" d="m 0,0 -12,0 c -3.313,0 -7.125,-2.186 -7.125,-5.5 l 0,-4.5 26,0 0,4.5 C 6.875,-2.186 3.314,0 0,0"/></g><g transform="translate(21.75,10.083)" id="g24"><path id="path26" style="fill:#ffdb5e;fill-opacity:1;fill-rule:nonzero;stroke:none" d="M 0,0 -6.187,-0.601 0,-8.646 5.229,-0.601 0,0 Z"/></g><g transform="translate(21.749,0)" id="g28"><path id="path30" style="fill:#a88dc1;fill-opacity:1;fill-rule:nonzero;stroke:none" d="m 0,0 9.001,0 c 4,3.5 5.083,6.5 5.083,6.5 0,0 -3.333,3.5 -9.771,4.646 0,-1.224 0.989,-3.132 0.989,-3.132 L 0.001,1.437 0,0 Z"/></g><g transform="translate(33,8.5937)" id="g32"><path id="path34" style="fill:#7355a2;fill-opacity:1;fill-rule:nonzero;stroke:none" d="m 0,0 c 0,0 -1.953,1.328 -4.156,2.063 -3.059,1.019 -2.375,-1.82 -2.375,-1.82 0,0 -3.821,-6.034 -4.72,-7.399 0,0 6.534,5.429 11.251,7.156"/></g><g transform="translate(21.75,1.4375)" id="g36"><path id="path38" style="fill:#522e8d;fill-opacity:1;fill-rule:nonzero;stroke:none" d="M 0,0 C 0,0 7.333,7.479 12.125,8.354 8.042,11.771 2,11.396 2,11.396 2,10.172 3.488,9.527 3.488,8.014 3.488,5.528 0.898,1.812 -0.001,0.446 L 0,0 Z"/></g><g transform="translate(21.749,0)" id="g40"><path id="path42" style="fill:#a88dc1;fill-opacity:1;fill-rule:nonzero;stroke:none" d="m 0,0 -9.001,0 c -4,3.5 -5.083,6.5 -5.083,6.5 0,0 3.333,3.5 9.771,4.646 0,-1.224 -0.989,-3.132 -0.989,-3.132 L -0.001,1.437 0,0 Z"/></g><g transform="translate(10.498,8.5937)" id="g44"><path id="path46" style="fill:#7355a2;fill-opacity:1;fill-rule:nonzero;stroke:none" d="m 0,0 c 0,0 1.953,1.328 4.156,2.063 3.058,1.019 2.375,-1.82 2.375,-1.82 0,0 3.821,-6.034 4.72,-7.399 0,0 -6.535,5.429 -11.251,7.156"/></g><g transform="translate(21.748,1.4375)" id="g48"><path id="path50" style="fill:#522e8d;fill-opacity:1;fill-rule:nonzero;stroke:none" d="M 0,0 C 0,0 -7.333,7.479 -12.125,8.354 -8.042,11.771 -2,11.396 -2,11.396 -2,10.172 -3.488,9.527 -3.488,8.014 c 0,-2.486 2.59,-6.202 3.489,-7.568 L 0,0 Z"/></g><g transform="translate(18.25,9.4824)" id="g52"><path id="path54" style="fill:#ffdb5e;fill-opacity:1;fill-rule:nonzero;stroke:none" d="m 0,0 c 1.466,-1.065 2.792,-0.98 3.5,-0.98 0.708,0 2.194,-0.085 3.488,0.949 L 7,4.108 0,4.108 0,0 Z"/></g><g transform="translate(18.25,11.8447)" id="g56"><path id="path58" style="fill:#f8c954;fill-opacity:1;fill-rule:nonzero;stroke:none" d="M 0,0 C 0.976,-1.103 2.185,-1.4 3.499,-1.4 4.814,-1.4 6.024,-1.103 7,0 l 0,2.801 -7,0 L 0,0 Z"/></g><g transform="translate(30.877,14.251)" id="g60"><path id="path62" style="fill:#f4abba;fill-opacity:1;fill-rule:nonzero;stroke:none" d="m 0,0 c -0.174,-0.369 -0.533,-0.739 -0.735,-0.93 1.968,-0.427 3.358,-0.946 3.358,-0.946 0,0 -0.482,0.662 -0.694,1.875 C 1.854,0.421 1.537,0.825 1.471,1.374 1.391,2.025 1.307,2.767 1.262,3.582 1.21,4.533 1.142,5.391 1.179,6.541 c 0.288,8.89 -6.256,11.23 -10.361,11.23 -4.104,0 -11.235,-2.058 -10.947,-10.948 0.037,-1.149 0.019,-2.206 -0.033,-3.157 -0.044,-0.815 -0.112,-1.553 -0.192,-2.204 -0.067,-0.55 -0.142,-1.037 -0.215,-1.459 -0.212,-1.213 -0.417,-1.879 -0.417,-1.879 0,0 6.906,2.592 11.804,0.958 2.235,0.745 4.881,0.609 7.106,0.243 C -1.729,-0.579 -0.639,-0.269 0,0"/></g><g transform="translate(21.6953,31.9365)" id="g64"><path id="path66" style="fill:#ffdb5e;fill-opacity:1;fill-rule:nonzero;stroke:none" d="m 0,0 c -4.535,0 -8.211,-4.729 -8.211,-10.563 0,-1.358 0.206,-2.636 0.569,-3.805 0.048,-0.157 0.099,-0.313 0.153,-0.465 0.237,-0.663 0.529,-1.283 0.866,-1.858 0.206,-0.352 0.429,-0.686 0.669,-1 1.496,-1.958 3.607,-3.158 5.954,-3.158 4.533,0 8.209,4.453 8.209,10.286 C 8.209,-4.729 4.533,0 0,0"/></g><g transform="translate(19.7666,21.8672)" id="g68"><path id="path70" style="fill:#dd2e44;fill-opacity:1;fill-rule:nonzero;stroke:none" d="m 0,0 2.581,3.69 -4.362,1.775 -3.932,-9.764 c 0.048,-0.157 0.098,-0.312 0.153,-0.465 l 1.946,0.798 -1.08,-2.656 c 0.206,-0.352 0.428,-0.686 0.669,-1 L 2.797,0.614 0,0 Z"/></g><g transform="translate(21.6953,13.5479)" id="g72"><path id="path74" style="fill:#de2032;fill-opacity:1;fill-rule:nonzero;stroke:none" d="m 0,0 c -1.606,0 -2.447,0.794 -2.537,0.885 -0.268,0.266 -0.268,0.7 0,0.967 0.266,0.264 0.692,0.266 0.961,0.006 C -1.541,1.826 -1.025,1.367 0,1.367 1.038,1.367 1.555,1.84 1.576,1.859 1.85,2.115 2.279,2.107 2.539,1.84 2.799,1.571 2.799,1.148 2.535,0.885 2.445,0.794 1.605,0 0,0"/></g><g transform="translate(22.5859,16.5908)" id="g76"><path id="path78" style="fill:#c1694f;fill-opacity:1;fill-rule:nonzero;stroke:none" d="m 0,0 -1.69,0 c -0.234,0 -0.423,0.189 -0.423,0.423 l 0,0.153 C -2.113,0.81 -1.924,1 -1.69,1 L 0,1 C 0.233,1 0.424,0.81 0.424,0.576 l 0,-0.153 C 0.424,0.189 0.233,0 0,0"/></g><g transform="translate(25.123,19.2041)" id="g80"><path id="path82" style="fill:#662213;fill-opacity:1;fill-rule:nonzero;stroke:none" d="m 0,0 0,0 c -0.465,0 -0.846,0.381 -0.846,0.847 l 0,0.844 c 0,0.465 0.381,0.846 0.846,0.846 0.465,0 0.846,-0.381 0.846,-0.846 l 0,-0.844 C 0.846,0.381 0.465,0 0,0"/></g><g transform="translate(18.3584,19.2041)" id="g84"><path id="path86" style="fill:#662213;fill-opacity:1;fill-rule:nonzero;stroke:none" d="m 0,0 0,0 c -0.465,0 -0.846,0.381 -0.846,0.847 l 0,0.844 c 0,0.465 0.381,0.846 0.846,0.846 0.466,0 0.847,-0.381 0.847,-0.846 l 0,-0.844 C 0.847,0.381 0.466,0 0,0"/></g><g transform="translate(32.6807,18.9775)" id="g88"><path id="path90" style="fill:#f4abba;fill-opacity:1;fill-rule:nonzero;stroke:none" d="m 0,0 c 0.004,1.113 0.004,1.269 0.004,2.315 0,2.237 -0.435,4.12 -1.148,5.687 0.382,-0.076 0.845,-0.139 1.245,-0.095 -0.78,0.557 -1.913,1.586 -2.355,1.994 -2.36,3.27 -6.076,4.621 -8.69,4.621 -3.755,0 -9.783,-2.739 -10.788,-10.01 l -0.016,0.111 c 0,0 -0.839,-2.042 -1.46,-3.114 0.475,0.155 0.974,0.494 1.316,0.758 -0.002,-0.733 -0.019,-1.245 0.008,-3.154 l 0.72,0 c -0.021,1 -0.044,0.224 -0.044,0.465 0,3.422 2.053,-0.494 2.053,1.943 0,2.439 1.368,2.683 2.737,4.051 0.331,0.331 0.82,0.815 1.239,1.227 1.396,-0.632 3.269,-1.109 5.734,-1.228 0.238,-0.07 1.847,-0.574 3.119,-1.903 -0.042,0.857 -0.384,1.433 -0.605,1.722 1.948,-0.399 3.148,-1.725 3.407,-3.971 0.003,-0.025 0.007,-0.047 0.01,-0.072 -0.014,-0.373 -0.121,-1.783 -0.914,-3.099 0.686,0.223 1.101,0.618 1.315,0.881 1.205,-4.775 3.932,-5.732 3.932,-5.732 C 0.266,-4.19 0.07,-1.774 0,0"/></g><g transform="translate(15.1943,21.1553)" id="g92"><path id="path94" style="fill:#ffdb5e;fill-opacity:1;fill-rule:nonzero;stroke:none" d="m 0,0 c 0,-1.448 -0.734,-2.622 -1.639,-2.622 -0.905,0 -1.639,1.174 -1.639,2.622 0,1.448 0.734,2.623 1.639,2.623 C -0.734,2.623 0,1.448 0,0"/></g><g transform="translate(10.5127,15.708)" id="g96"><path id="path98" style="fill:#424143;fill-opacity:1;fill-rule:nonzero;stroke:none" d="m 0,0 c -1.695,0 -3.069,-1.374 -3.069,-3.069 0,-0.479 0.119,-0.925 0.314,-1.328 l -0.232,0.231 c -0.347,0.347 -0.89,0.326 -1.212,-0.045 l -5.488,-6.222 c -0.544,-0.628 -0.798,-1.643 0.011,-2.452 0.808,-0.808 1.806,-0.573 2.453,-0.012 l 0.892,0.814 0,-3.625 1.783,0 0,5.255 3.444,3.145 c 0.372,0.324 0.393,0.866 0.045,1.212 L -1.33,-5.824 C -0.926,-6.021 -0.479,-6.14 0,-6.14 c 1.696,0 3.07,1.375 3.07,3.071 C 3.07,-1.374 1.696,0 0,0"/></g><g transform="translate(12.1606,9.6729)" id="g100"><path id="path102" style="fill:#59595c;fill-opacity:1;fill-rule:nonzero;stroke:none" d="m 0,0 c -0.15,-0.149 -0.393,-0.149 -0.542,0 l -4.07,4.07 c -0.15,0.151 -0.15,0.393 0,0.542 l 0.542,0.544 c 0.15,0.15 0.393,0.15 0.543,0 L 0.542,1.085 c 0.15,-0.149 0.15,-0.393 0,-0.542 L 0,0 Z"/></g></g></g></g></svg>
