<svg xmlns="http://www.w3.org/2000/svg" viewBox="0 0 45 45" enable-background="new 0 0 45 45"><defs><clipPath id="a"><path d="M0 36h36V0H0v36z"/></clipPath></defs><g><g><g clip-path="url(#a)" transform="matrix(1.25 0 0 -1.25 0 45)"><g><path fill="#269" d="M31 0v4.5c0 3.3-3.56 5.5-6.88 5.5h-12C8.82 10 5 7.8 5 4.5V0h26z"/></g><g><path fill="#0b0200" d="M18.2 32.02c4.1 0 10.95-2.05 10.95-10.95 0-8.9 0-10.94-2.05-10.94-2.06 0-4.8 2.05-8.9 2.05-4.1 0-6.78-2.05-8.9-2.05-2.28 0-2.05 8.2-2.05 10.94 0 8.9 6.85 10.95 10.95 10.95"/></g><g><path fill="#f5f8fa" d="M23.25 10L20.07 0h-4.1l-2.72 10"/></g><g><path fill="#3b88c3" d="M14 10h-1.5l-1-5.5 3-1L14 0h3.5L14 10z"/></g><g><path fill="#3b88c3" d="M22.5 10H24l.5-5.5-3-1L22 0h-3.5l4 10z"/></g><g><path fill="#7c533e" d="M14.76 10c1-1.98 2.8-4.5 3.5-4.5.7 0 2.5 2.55 3.5 4.5v3.6h-7V10z"/></g><g><path fill="#664131" d="M14.76 11.95c.97-1.1 2.18-1.4 3.5-1.4 1.3 0 2.52.3 3.5 1.4v2.8h-7v-2.8z"/></g><g><path fill="#7c533e" d="M10 21.37c0 5.84 3.67 10.57 8.2 10.57 4.53 0 8.2-4.73 8.2-10.57 0-5.83-3.67-10.28-8.2-10.28-4.53 0-8.2 4.44-8.2 10.27"/></g><g><path fill="#df1f32" d="M18.2 13.55c-1.6 0-2.45.8-2.54.88-.26.27-.26.7 0 .97.27.26.7.27.96 0 .04-.03.56-.5 1.58-.5 1.04 0 1.56.5 1.58.5.27.26.7.25.96 0 .26-.28.26-.7 0-.97-.1-.1-.93-.88-2.54-.88"/></g><g><path fill="#0b0200" d="M7.98 18.1c-.02 1-.04.2-.04.46 0 3.42 2.05-.5 2.05 1.94s1.36 2.68 2.73 4.05c.68.68 2.05 2.03 2.05 2.03s3.42-2.07 6.16-2.07c2.73 0 5.47-1.37 5.47-4.1 0-2.74 2.06 1.58 2.06-1.84 0-.24-.02.53-.04-.47h.72c0 2 0 1.9 0 3.2 0 8.9-6.83 12.2-10.94 12.2-4.1 0-10.95-3.26-10.95-12.15 0-.8-.02-1.26 0-3.26H8z"/></g><g><path d="M14.86 19.2c-.46 0-.84.4-.84.85v.85c0 .46.38.84.84.84.47 0 .85-.38.85-.84v-.85c0-.46-.37-.85-.84-.85"/></g><g><path d="M21.63 19.2c-.47 0-.85.4-.85.85v.85c0 .46.38.84.85.84.46 0 .84-.38.84-.84v-.85c0-.46-.38-.85-.84-.85"/></g><g><path fill="#3d2e24" d="M19.1 16.6h-1.7c-.23 0-.42.18-.42.4v.17c0 .23.2.42.42.42h1.7c.22 0 .42-.2.42-.43V17c0-.22-.2-.4-.43-.4"/></g><g><path fill="#7c533e" d="M11.7 21.16c0-1.45-.73-2.63-1.64-2.63-.9 0-1.64 1.18-1.64 2.63 0 1.44.74 2.62 1.64 2.62.9 0 1.64-1.18 1.64-2.62"/></g><g><path fill="#7c533e" d="M28.1 21.16c0-1.45-.74-2.63-1.65-2.63-.9 0-1.64 1.18-1.64 2.63 0 1.44.74 2.62 1.65 2.62.9 0 1.64-1.18 1.64-2.62"/></g><g><path fill="#66757f" d="M27.26 22c-.02 0-.04 0-.06 0-.27.03-.47.28-.44.55 0 .04.37 3.86-1.97 6.45-1.47 1.62-3.7 2.44-6.6 2.44-5.9 0-7.97-3.37-8.65-6.2-.07-.27-.34-.43-.6-.36-.27.06-.44.33-.37.6.63 2.6 2.7 6.96 9.62 6.96 3.2 0 5.68-.94 7.34-2.78 2.63-2.93 2.23-7.04 2.2-7.2 0-.27-.23-.46-.48-.46"/></g><g><path fill="#66757f" d="M26.26 23.5s0 .5.5.5h1.5s1 0 1-1v-3.5s0-1-1-1h-1.5s-.5 0-.5.5v4.5z"/></g><g><path fill="#66757f" d="M9.76 24h-1c-.28 0-.5.22-.5.5v2c0 .28.22.5.5.5h1c.27 0 .5-.22.5-.5v-2c0-.28-.23-.5-.5-.5"/></g><g><path fill="#66757f" d="M19.76 11v1c6.44 0 6.98 6.75 7 7.03l1-.06c0-.08-.62-7.97-8-7.97"/></g><g><path fill="#292f33" d="M16.26 11c0-.55.44-1 1-1h2c.55 0 1 .45 1 1v1c0 .55-.45 1-1 1h-2c-.56 0-1-.45-1-1v-1z"/></g></g></g></g></svg>