<svg xmlns="http://www.w3.org/2000/svg" viewBox="0 0 45 45" enable-background="new 0 0 45 45"><defs><clipPath id="a"><path d="M0 0h36v36H0V0z"/></clipPath></defs><g><g><path fill="#ffdc5d" d="M18.75 27.5v-3.75H25v3.75h2.33V35H16.08v-7.5h2.67z"/></g><g><g clip-path="url(#a)" transform="matrix(1.25 0 0 -1.25 0 45)"><g><path fill="#ffac33" d="M18 35.86c-1.34 0-2.6-.3-3.74-.84-.2.02.8.03.6.03-3.94 0-7.14-3.2-7.14-7.13 0-3.13 2-5.78 4.8-6.74 1.63-1.86 2.82-3.04 5.48-3.04 4.9 0 8.86 3.97 8.86 8.86 0 4.9-3.97 8.86-8.86 8.86"/></g><g><path fill="#ffdc5d" d="M10 32V22h.02c.26-3.9 3.5-6.97 7.48-6.97 3.98 0 7.25 3.08 7.5 6.97v9l-15 1z"/></g><g><path fill="#662113" d="M14 23c-.55 0-1 .45-1 1v1c0 .55.45 1 1 1s1-.45 1-1v-1c0-.55-.45-1-1-1"/></g><g><path fill="#662113" d="M21 23c-.55 0-1 .45-1 1v1c0 .55.45 1 1 1s1-.45 1-1v-1c0-.55-.45-1-1-1"/></g><g><path fill="#bf6952" d="M20.72 18.28h-6.44s.8-1.6 3.22-1.6 3.22 1.6 3.22 1.6"/></g><g><path fill="#bf6952" d="M18 20.5h-1c-.28 0-.5.22-.5.5s.22.5.5.5h1c.28 0 .5-.22.5-.5s-.22-.5-.5-.5"/></g><g><path fill="#3b93d9" d="M25.03 14h-5l-2.47-3.78L15 14H9.03c-1.77 0-1.94-1.2-1.94-2.97V-1h20.93v12.03c0 1.97-1 2.97-3 2.97"/></g><path fill="#1b6399" d="M23.83 0H22.8v10h1.03V0z"/><path fill="#1b6399" d="M11.86 0h-1.03v10h1.03V0z"/><g><path fill="#ffac33" d="M26 26l-1 6-2 1H10v-7c6.07 0 9.55 2.58 11.36 4.6.56-1.77 1.9-4.6 4.64-4.6"/></g><g><path fill="#f4900c" d="M26.88 17c-.3 0-.6-.03-.88-.07-.3.04-.58.07-.88.07-3.38 0-6.12-2.74-6.12-6.13 0-3.38 2.74-6.12 6.13-6.12.3 0 .58.03.87.07.3-.04.58-.07.88-.07 3.38 0 6.12 2.74 6.12 6.13 0 3.38-2.74 6.12-6.13 6.12"/></g><g><path fill="#ffdc5d" d="M28 2v3h-4V2h-1V0h6v2h-1z"/></g><g><path fill="#88c9f9" d="M31 3h-3l-2-2-2 2h-2c-3 0-5-2-5-4h18c0 1.97-2 4-4 4"/></g><g><path fill="#ffdc5d" d="M32 13.3l-4.3.84-7.7-.85V9s0-.03 0-.04C20 5.66 22.7 3 26 3c3.3 0 6 2.67 6 5.96 0 0 0 .03 0 .04v4.3z"/></g><g><path fill="#f4900c" d="M33 10.88l-.88 2.62-3.26 1.42-8.98-1.42-.76-2.63c4.74 0 7.37 1.54 8.8 2.95 1.1-1.28 2.92-2.95 5.08-2.95"/></g><g><path fill="#bf6952" d="M28 6h-4s.4-1.33 2-1.33S28 6 28 6"/></g><g><path fill="#bf6952" d="M26 6.5c-.13 0-.26.05-.35.15-.1.1-.15.22-.15.35 0 .13.05.26.15.36.17.17.52.18.7 0 .1-.1.15-.23.15-.36 0-.13-.05-.26-.15-.35-.1-.1-.22-.15-.35-.15"/></g><g><path fill="#662113" d="M28 8c-.46 0-.83.37-.83.83v.84c0 .46.37.83.83.83.46 0 .83-.37.83-.83v-.84c0-.46-.37-.83-.83-.83"/></g><g><path fill="#662113" d="M24 8c-.46 0-.83.37-.83.83v.84c0 .46.37.83.83.83.46 0 .83-.37.83-.83v-.84c0-.46-.37-.83-.83-.83"/></g><g><path fill="#f4900c" d="M16 11s-.13-3.3 1-7c0 0-3.34-2-8-2 0 1.56 7 9 7 9"/></g><g><path fill="#f4900c" d="M2 10.88S2.13 7.67 1 4c0 0 3.34-2 8-2 0 1.56-7 8.88-7 8.88"/></g><g><path fill="#f4900c" d="M9.88 17c-.3 0-.6-.03-.88-.07-.3.04-.58.07-.88.07C4.75 17 2 14.26 2 10.87 2 7.5 4.74 4.75 8.13 4.75c.3 0 .58.03.87.07.3-.04.58-.07.88-.07 3.38 0 6.12 2.74 6.12 6.13C16 14.25 13.26 17 9.87 17"/></g><g><path fill="#ffdc5d" d="M11 2v3H7V2H6V0h6v2h-1z"/></g><g><path fill="#ea596e" d="M14 3h-3L9 1 7 3H5C2 3 0 1 0-1h18c0 1.97-2 4-4 4"/></g><g><path fill="#ffdc5d" d="M15 13.3l-4.3.84L3 13.3V9s0-.03 0-.04C3 5.66 5.7 3 9 3c3.3 0 6 2.67 6 5.96 0 0 0 .03 0 .04v4.3z"/></g><g><path fill="#f4900c" d="M16 10.88l-.88 2.62-3.26 1.42-8.98-1.42-.76-2.63c4.74 0 7.37 1.54 8.8 2.95 1.1-1.28 2.92-2.95 5.08-2.95"/></g><g><path fill="#bf6952" d="M11 6H7s.4-1.33 2-1.33S11 6 11 6"/></g><g><path fill="#bf6952" d="M9 6.5c-.13 0-.26.05-.35.15-.1.1-.15.22-.15.35 0 .13.05.26.15.36.17.17.52.18.7 0 .1-.1.15-.23.15-.36 0-.13-.05-.26-.15-.35-.1-.1-.22-.15-.35-.15"/></g><g><path fill="#662113" d="M11 8c-.46 0-.83.37-.83.83v.84c0 .46.37.83.83.83.46 0 .83-.37.83-.83v-.84c0-.46-.37-.83-.83-.83"/></g><g><path fill="#662113" d="M7 8c-.46 0-.83.37-.83.83v.84c0 .46.37.83.83.83.46 0 .83-.37.83-.83v-.84C7.83 8.37 7.46 8 7 8"/></g></g></g></g></svg>