<svg xmlns="http://www.w3.org/2000/svg" viewBox="0 0 45 45" enable-background="new 0 0 45 45"><defs><clipPath id="a"><path d="M0 36h36V0H0v36z"/></clipPath><clipPath id="b"><path d="M16 9c-3.3 0-7-2.18-7-5.5V0h26v3.5C35 6.82 31.32 9 28 9H16z"/></clipPath><clipPath id="c"><path d="M0 36h36V0H0v36z"/></clipPath></defs><g><g><g clip-path="url(#a)" transform="matrix(1.25 0 0 -1.25 0 45)"><g><path fill="#ccd6dd" d="M35 0v3.5C35 6.8 31.3 9 28 9H16c-3.3 0-7-2.2-7-5.5V0h26z"/></g><g><path fill="#292f33" d="M21.95 30.93c4.1 0 10.94-2.05 10.94-10.95 0-8.9 0-10.94-2.06-10.94-2.05 0-4.8 2.05-8.9 2.05-4.1 0-6.78-2.06-8.9-2.06-2.28 0-2.04 8.2-2.04 10.94 0 8.9 6.84 10.95 10.95 10.95"/></g><g><path fill="#f7dece" d="M18.33 8.98C19 7 21.3 5.5 22 5.5c.7 0 3 1.5 3.66 3.48v3.2h-7.33V9z"/></g><g><path fill="#eec2ad" d="M18.32 10.82c1.02-1.15 2.3-1.47 3.67-1.47s2.64.32 3.66 1.47v2.94h-7.34v-2.94z"/></g><g><path fill="#f7dece" d="M13.73 20.28c0 5.84 3.68 10.57 8.2 10.57 4.55 0 8.22-4.73 8.22-10.57 0-5.83-3.67-10.28-8.2-10.28-4.54 0-8.22 4.45-8.22 10.28"/></g><g><path fill="#df1f32" d="M21.95 12.46c-1.6 0-2.45.8-2.54.88-.26.27-.26.7 0 .97.27.27.7.28.97.02.03-.04.55-.5 1.58-.5s1.55.48 1.57.5c.28.25.7.24.96-.02.26-.27.26-.7 0-.96-.1-.1-.93-.88-2.53-.88"/></g><g><path fill="#292f33" d="M11.73 17c-.03 1-.05.22-.05.47 0 3.42 2.05-.5 2.05 1.94 0 2.45 1.37 2.7 2.74 4.06.7.68 2.05 2.03 2.05 2.03s3.42-2.08 6.16-2.08 5.48-1.38 5.48-4.1c0-2.75 2.05 1.57 2.05-1.85 0-.24 0 .53-.03-.47h.72c0 2 0 1.92 0 3.2 0 8.9-6.85 8.3-10.96 8.3-4.1 0-10.94.65-10.94-8.24 0-.8-.02-1.26 0-3.26h.73z"/></g><g><path fill="#662113" d="M18.6 18.1c-.46 0-.84.4-.84.86v.84c0 .47.38.85.85.85s.86-.38.86-.85v-.84c0-.47-.4-.85-.85-.85"/></g><g><path fill="#662113" d="M25.37 18.1c-.46 0-.84.4-.84.86v.84c0 .47.38.85.84.85.47 0 .85-.38.85-.85v-.84c0-.47-.38-.85-.85-.85"/></g><g><path fill="#c1694f" d="M22.84 15.5h-1.7c-.23 0-.42.2-.42.42v.16c0 .23.2.42.43.42h1.7c.22 0 .4-.2.4-.42v-.16c0-.23-.18-.42-.4-.42"/></g></g></g><g><g fill="#269" clip-path="url(#b)" transform="matrix(1.25 0 0 -1.25 0 45)"><path d="M31 0h-3v9h3V0z"/><path d="M16 0h-3v9h3V0z"/></g></g><g><g clip-path="url(#c)" transform="matrix(1.25 0 0 -1.25 0 45)"><path fill="#269" d="M29 0H15v5h14V0z"/><g><path fill="#f5f8fa" d="M30 2.25C30 1.55 29 1 27.75 1c-1.24 0-2.25.56-2.25 1.25 0 .7 1 1.25 2.25 1.25C29 3.5 30 2.94 30 2.25"/></g><g><path fill="#f7dece" d="M15.44 20.06c0-1.44-.73-2.62-1.63-2.62-.9 0-1.63 1.18-1.63 2.62 0 1.45.73 2.63 1.64 2.63.9 0 1.64-1.2 1.64-2.64"/></g><g><path fill="#f7dece" d="M31.83 20.06c0-1.44-.73-2.62-1.64-2.62-.9 0-1.64 1.18-1.64 2.62 0 1.45.73 2.63 1.63 2.63.9 0 1.63-1.2 1.63-2.64"/></g><g><path fill="#3b88c3" d="M31 26.5c0-1.32-4.1 0-9 0s-9-1.32-9 0c0 3.55 1 8.5 9 8.5 7 0 9-4.95 9-8.5"/></g><g><path fill="#269" d="M13.06 26.5s-.5-3 1.5-3c1 0 2.5 2 7.5 2s6.5-2 7.5-2c2 0 1.5 3 1.5 3s-1.5-.5-9-.5-9 .5-9 .5"/></g><g><path fill="#55acee" d="M13 27s-.5-3 1.5-3c1 0 2.5 2 7.5 2s6.5-2 7.5-2c2 0 1.5 3 1.5 3s-1.5-.5-9-.5-9 .5-9 .5"/></g><g><path fill="#269" d="M20.5 34.5s0 1.5 1.5 1.5 1.5-1.5 1.5-1.5h-3z"/></g><g><path fill="#66757f" d="M7 16.52v-4.4c0-.56-1-1-2.25-1.02-1.24 0-2.25.45-2.25 1v4.4C1 15.7 0 14.16 0 12.35 0 9.72 2.14 7.6 4.76 7.6c2.63 0 4.75 2.14 4.74 4.77 0 1.8-1.03 3.35-2.5 4.15"/></g><path fill="#66757f" d="M6.25 0h-3v8.6h3V0z"/></g></g></g></svg>