<svg xmlns="http://www.w3.org/2000/svg" viewBox="0 0 45 45" enable-background="new 0 0 45 45"><defs><clipPath id="a"><path d="M0 36h36V0H0v36z"/></clipPath></defs><g><g><g clip-path="url(#a)" transform="matrix(1.25 0 0 -1.25 0 45)"><g><path fill="#60352a" d="M10.5 33c-1.2 0-2.28-.38-3.18-1.02C5.47 31.88 4 30.38 4 28.5c0-1.54 0-3.48 2.04-4.2 1-1.4 2.62-2.3 4.46-2.3 3.04 0 5.5 2.46 5.5 5.5S13.54 33 10.5 33"/></g><g><path fill="#af7e57" d="M8 1H5l1 9.7h3L8 1z"/></g><g><path fill="#af7e57" d="M13.88 2.2l-1.84 1.34s3.17 3 2.53 4c-.63.98-3.78 1.68-3.78 1.68l1.9 2.3s3.97-1.9 4.78-3.32c.83-1.45-3.6-6-3.6-6"/></g><g><path fill="#292f33" d="M4 0v1s0 1 2 1 2-1 2-1V0H4z"/></g><g><path fill="#292f33" d="M14.55.52l.42.9s.42.9-1.4 1.75c-1.8.84-2.22-.06-2.22-.06l-.42-.9L14.55.52z"/></g><g><path fill="#af7e57" d="M5 9.7c-.26 0-.5.1-.7.3l-3 3c-.37.36-.4.94-.08 1.34l4 3.28c.34.44.97.5 1.4.16.44-.34.5-.97.16-1.4l-3.44-2.6 2.37-2.36c.4-.4.4-1.02 0-1.42-.2-.2-.44-.3-.7-.3"/></g><g><path fill="#af7e57" d="M15 9.7c-.26 0-.5.1-.7.3-.4.4-.4 1.03 0 1.42l2.36 2.37-3.44 2.57c-.35.44-.28 1.07.16 1.4.43.36 1.06.3 1.4-.15l4-3.28c.32-.4.3-.98-.07-1.34l-3-3c-.2-.2-.44-.3-.7-.3"/></g><g><path fill="#292f33" d="M16 17c0 1.1-.9 2-2 2H6c-1.1 0-2-.9-2-2v-1h2v-5.3l3-2h2l3 2V16h2v1z"/></g><g><path fill="#af7e57" d="M24 1h-3l1 9.7h3L24 1z"/></g><g><path fill="#af7e57" d="M29.87 2.2l-1.83 1.34s3.17 3 2.53 4c-.63.98-3.78 1.68-3.78 1.68l1.9 2.3s3.97-1.9 4.78-3.32c.82-1.45-3.6-6-3.6-6"/></g><g><path fill="#292f33" d="M30.55.52l.42.9s.42.9-1.4 1.75c-1.8.84-2.22-.06-2.22-.06l-.42-.9L30.55.52z"/></g><g><path fill="#292f33" d="M20 0v1s0 1 2 1 2-1 2-1V0h-4z"/></g><g><path fill="#af7e57" d="M21 9.7c-.26 0-.5.1-.7.3l-3 3c-.37.36-.4.94-.08 1.34l4 3.28c.34.44.97.5 1.4.16.44-.34.5-.97.16-1.4l-3.44-2.6 2.37-2.36c.4-.4.4-1.02 0-1.42-.2-.2-.44-.3-.7-.3"/></g><g><path fill="#af7e57" d="M31 9.7c-.26 0-.5.1-.7.3-.4.4-.4 1.03 0 1.42l2.36 2.37-3.44 2.57c-.35.44-.28 1.07.15 1.4.44.36 1.07.3 1.4-.15l4-3.28c.33-.4.3-.98-.06-1.34l-3-3c-.2-.2-.44-.3-.7-.3"/></g><g><path fill="#af7e57" d="M28 19v3h-4v-3h-1v-1s0-3 3-3 3 3 3 3v1h-1z"/></g><g><path fill="#292f33" d="M30 19h-8c-1.1 0-2-.9-2-2v-1h2v-5.3l3-2h2l3 2V16h2v1c0 1.1-.9 2-2 2"/></g><g><path fill="#292f33" d="M14.87 34.8c-1.76.16-2.84-1.2-3.14-2.5-.98.5-2.45.54-3.73-.17-.22 1.38-1.32 2.9-3.2 2.74-.93-2.43 1.04-4.24 3-4.24 1.9.87 3.26.3 4.07-.07 1.97 0 3.94 1.8 3 4.25"/></g><g><path fill="#af7e57" d="M8 21v-3c0-1.1.9-2 2-2s2 .9 2 2v3H8z"/></g><g><path fill="#292f33" d="M25 9l-.34-3.22-3.32.35.66 4.58L25 9z"/></g><g><path fill="#292f33" d="M9 9l-.34-3.22-3.32.35L6 10.7 9 9z"/></g><g><path fill="#292f33" d="M13.13 11.38l2.63-1.32-1.35-2.7L11 8.7l2.13 2.68z"/></g><g><path fill="#292f33" d="M29.13 11.38l2.64-1.32-1.36-2.7L27 8.7l2.13 2.68z"/></g><g><path fill="#9b6a49" d="M12 22l-4-.02V18s2-1 4 0v4z"/></g><g><path fill="#af7e57" d="M15 30H5v-6c0-2.76 2.24-5 5-5s5 2.24 5 5v6z"/></g><g><path fill="#60352a" d="M8 30H5v-4c2.33 0 2.85 2.4 2.96 3.5C8 28.4 8.78 26 15 26v4H8z"/></g><g><path fill="#60352a" d="M8 24.5c0-.28-.22-.5-.5-.5s-.5.22-.5.5.22.5.5.5.5-.22.5-.5"/></g><g><path fill="#60352a" d="M13 24.5c0-.28-.22-.5-.5-.5s-.5.22-.5.5.22.5.5.5.5-.22.5-.5"/></g><g><path fill="#915a34" d="M9 23h2s0-1-1-1-1 1-1 1"/></g><g><path fill="#915a34" d="M12 21H8s0-1 2-1 2 1 2 1"/></g><g><path fill="#af7e57" d="M24 21v-3c0-1.1.9-2 2-2s2 .9 2 2v3h-4z"/></g><g><path fill="#9b6a49" d="M28 22l-4-.02V18s2-1 4 0v4z"/></g><g><path fill="#60352a" d="M26.5 33c-1.2 0-2.28-.38-3.18-1.02-1.85-.1-3.32-1.6-3.32-3.48 0-1.54 0-3.48 2.04-4.2 1-1.4 2.62-2.3 4.46-2.3 3.04 0 5.5 2.46 5.5 5.5S29.54 33 26.5 33"/></g><g><path fill="#af7e57" d="M31 30H21v-6c0-2.76 2.24-5 5-5s5 2.24 5 5v6z"/></g><g><path fill="#292f33" d="M30.87 34.8c-1.76.16-2.84-1.2-3.14-2.5-.98.5-2.45.54-3.73-.17-.22 1.38-1.32 2.9-3.2 2.74-.93-2.43 1.04-4.24 3-4.24 1.9.87 3.26.3 4.07-.07 1.97 0 3.94 1.8 3 4.25"/></g><g><path fill="#60352a" d="M24 30h-3v-4c2.33 0 2.85 2.4 2.96 3.5.04-1.1.82-3.5 7.04-3.5v4h-7z"/></g><g><path fill="#60352a" d="M24 24.5c0-.28-.22-.5-.5-.5s-.5.22-.5.5.22.5.5.5.5-.22.5-.5"/></g><g><path fill="#60352a" d="M29 24.5c0-.28-.22-.5-.5-.5s-.5.22-.5.5.22.5.5.5.5-.22.5-.5"/></g><g><path fill="#915a34" d="M25 23h2s0-1-1-1-1 1-1 1"/></g><g><path fill="#915a34" d="M28 21h-4s0-1 2-1 2 1 2 1"/></g></g></g></g></svg>