<?xml version="1.0" encoding="UTF-8" standalone="no"?><svg xmlns:dc="http://purl.org/dc/elements/1.1/" xmlns:cc="http://creativecommons.org/ns#" xmlns:rdf="http://www.w3.org/1999/02/22-rdf-syntax-ns#" xmlns:svg="http://www.w3.org/2000/svg" xmlns="http://www.w3.org/2000/svg" viewBox="0 0 45 45" style="enable-background:new 0 0 45 45;" xml:space="preserve" version="1.1" id="svg2"><metadata id="metadata8"><rdf:RDF><cc:Work rdf:about=""><dc:format>image/svg+xml</dc:format><dc:type rdf:resource="http://purl.org/dc/dcmitype/StillImage"/></cc:Work></rdf:RDF></metadata><defs id="defs6"><clipPath id="clipPath16" clipPathUnits="userSpaceOnUse"><path id="path18" d="M 0,36 36,36 36,0 0,0 0,36 Z"/></clipPath></defs><g transform="matrix(1.25,0,0,-1.25,0,45)" id="g10"><g id="g12"><g clip-path="url(#clipPath16)" id="g14"><g transform="translate(21,22)" id="g20"><path id="path22" style="fill:#ffdc5d;fill-opacity:1;fill-rule:nonzero;stroke:none" d="m 0,0 c 0.253,-3.89 3.521,-6.969 7.5,-6.969 3.979,0 7.247,3.079 7.5,6.969 L 15,10 0,10 0,0 Z"/></g><g transform="translate(36,14.248)" id="g24"><path id="path26" style="fill:#ffac33;fill-opacity:1;fill-rule:nonzero;stroke:none" d="m 0,0 0,7.752 c -0.253,-3.89 -3.521,-6.969 -7.5,-6.969 -3.979,0 -7.247,3.079 -7.5,6.969 l 0,4.337 c 5.328,0.155 8.51,2.343 10.237,4.181 0.415,-1.475 1.564,-3.518 4.763,-3.518 l 0,7.1 c -0.931,0.689 -2.115,1.092 -3.462,1.092 -0.333,0 -0.657,-0.034 -0.974,-0.09 -1.171,0.57 -2.174,0.898 -3.564,0.898 -4.907,0 -9,-4.093 -9,-9 l 0,-7 c 0.064,-2.258 0.868,-4.351 2.183,-6 l 2.817,-2 9,0 2.817,2 C -0.118,-0.168 -0.062,-0.082 0,0"/></g><g transform="translate(35.8174,14)" id="g28"><path id="path30" style="fill:#9268ca;fill-opacity:1;fill-rule:nonzero;stroke:none" d="m 0,0 -14.635,0 -0.182,0 c -2,0 -3,-1 -3,-2.973 l 0,-11.027 18,0 0,14 L 0,0 Z"/></g><path id="path32" style="fill:#7450a8;fill-opacity:1;fill-rule:nonzero;stroke:none" d="m 22.014,0 -1.027,0 0,10 1.027,0 0,-10 z"/><g transform="translate(26,17)" id="g34"><path id="path36" style="fill:#ffdc5d;fill-opacity:1;fill-rule:nonzero;stroke:none" d="M 0,0 0,-3 C 0,-4.381 1.119,-5.5 2.5,-5.5 3.881,-5.5 5,-4.381 5,-3 L 5,0 0,0 Z"/></g><g transform="translate(25.2695,18.231)" id="g38"><path id="path40" style="fill:#da2f47;fill-opacity:1;fill-rule:nonzero;stroke:none" d="M 0,0 3.23,0 6.461,0 C 6.461,0 5.653,-1.616 3.23,-1.616 0.808,-1.616 0,0 0,0"/></g><g transform="translate(29,20.5)" id="g42"><path id="path44" style="fill:#bf6952;fill-opacity:1;fill-rule:nonzero;stroke:none" d="M 0,0 -1,0 C -1.276,0 -1.5,0.224 -1.5,0.5 -1.5,0.776 -1.276,1 -1,1 L 0,1 C 0.276,1 0.5,0.776 0.5,0.5 0.5,0.224 0.276,0 0,0"/></g><g transform="translate(25,23)" id="g46"><path id="path48" style="fill:#662113;fill-opacity:1;fill-rule:nonzero;stroke:none" d="m 0,0 c -0.553,0 -1,0.448 -1,1 l 0,1 C -1,2.552 -0.553,3 0,3 0.553,3 1,2.552 1,2 L 1,1 C 1,0.448 0.553,0 0,0"/></g><g transform="translate(32,23)" id="g50"><path id="path52" style="fill:#662113;fill-opacity:1;fill-rule:nonzero;stroke:none" d="m 0,0 c -0.553,0 -1,0.448 -1,1 l 0,1 C -1,2.552 -0.553,3 0,3 0.553,3 1,2.552 1,2 L 1,1 C 1,0.448 0.553,0 0,0"/></g><g transform="translate(0,22)" id="g54"><path id="path56" style="fill:#ffdc5d;fill-opacity:1;fill-rule:nonzero;stroke:none" d="m 0,0 c 0.253,-3.89 3.521,-6.969 7.5,-6.969 3.979,0 7.247,3.079 7.5,6.969 L 15,10 0,10 0,0 Z"/></g><g transform="translate(17,20)" id="g58"><path id="path60" style="fill:#ffac33;fill-opacity:1;fill-rule:nonzero;stroke:none" d="m 0,0 0,10 c 0,3.123 -2.339,5.192 -5.462,5.192 -0.333,0 -0.657,-0.034 -0.974,-0.089 C -7.607,15.672 -8.61,16 -10,16 c -2.805,0 -5.339,-1.34 -7,-3.402 l 0,-6.261 c 5.329,0.155 8.51,2.343 10.237,4.181 C -6.348,9.043 -5.199,7 -2,7 l 0,-5 c -0.253,-3.89 -3.521,-6.969 -7.5,-6.969 -3.979,0 -7.247,3.079 -7.5,6.969 l 0,-7.752 c 0.062,-0.082 0.119,-0.168 0.182,-0.248 l 2.818,-2 9,0 2.818,2 c 1.314,1.649 2.118,3.742 2.182,6"/></g><g transform="translate(15,14)" id="g62"><path id="path64" style="fill:#9266cc;fill-opacity:1;fill-rule:nonzero;stroke:none" d="M 0,0 -0.182,0 -14.818,0 -15,0 l 0,-14 1.083,0 12.889,0 L 3,-14 3,-2.973 C 3,-1 2,0 0,0"/></g><path id="path66" style="fill:#7450a8;fill-opacity:1;fill-rule:nonzero;stroke:none" d="m 15.014,0 -1.027,0 0,10 1.027,0 0,-10 z"/><g transform="translate(5,17)" id="g68"><path id="path70" style="fill:#ffdc5d;fill-opacity:1;fill-rule:nonzero;stroke:none" d="M 0,0 0,-3 C 0,-4.381 1.119,-5.5 2.5,-5.5 3.881,-5.5 5,-4.381 5,-3 L 5,0 0,0 Z"/></g><g transform="translate(4.2695,18.231)" id="g72"><path id="path74" style="fill:#da2f47;fill-opacity:1;fill-rule:nonzero;stroke:none" d="M 0,0 3.23,0 6.461,0 C 6.461,0 5.653,-1.616 3.23,-1.616 0.808,-1.616 0,0 0,0"/></g><g transform="translate(8,20.5)" id="g76"><path id="path78" style="fill:#bf6952;fill-opacity:1;fill-rule:nonzero;stroke:none" d="M 0,0 -1,0 C -1.276,0 -1.5,0.224 -1.5,0.5 -1.5,0.776 -1.276,1 -1,1 L 0,1 C 0.276,1 0.5,0.776 0.5,0.5 0.5,0.224 0.276,0 0,0"/></g><g transform="translate(4,23)" id="g80"><path id="path82" style="fill:#662113;fill-opacity:1;fill-rule:nonzero;stroke:none" d="m 0,0 c -0.553,0 -1,0.448 -1,1 l 0,1 C -1,2.552 -0.553,3 0,3 0.553,3 1,2.552 1,2 L 1,1 C 1,0.448 0.553,0 0,0"/></g><g transform="translate(11,23)" id="g84"><path id="path86" style="fill:#662113;fill-opacity:1;fill-rule:nonzero;stroke:none" d="m 0,0 c -0.553,0 -1,0.448 -1,1 l 0,1 C -1,2.552 -0.553,3 0,3 0.553,3 1,2.552 1,2 L 1,1 C 1,0.448 0.553,0 0,0"/></g><g transform="translate(20.0908,1)" id="g88"><path id="path90" style="fill:#ffdc5d;fill-opacity:1;fill-rule:nonzero;stroke:none" d="m 0,0 0,4 -4,0 0,-4 -1,0 0,-1 6,0 0,1 -1,0 z"/></g><g transform="translate(23.0908,3)" id="g92"><path id="path94" style="fill:#88c9f9;fill-opacity:1;fill-rule:nonzero;stroke:none" d="m 0,0 -3,0 -2,-3 8.818,0 C 3.301,-1.398 1.659,0 0,0"/></g><g transform="translate(9.2769,0)" id="g96"><path id="path98" style="fill:#88c9f9;fill-opacity:1;fill-rule:nonzero;stroke:none" d="m 0,0 3.759,0 5.055,0 -2,3 -2,0 C 4.447,3 4.095,2.969 3.759,2.912 1.818,2.586 0.458,1.377 0,0"/></g><g transform="translate(25.085,9.9531)" id="g100"><path id="path102" style="fill:#ffdc5d;fill-opacity:1;fill-rule:nonzero;stroke:none" d="m 0,0 c 0,0.016 -0.002,0.031 -0.002,0.047 l 0.008,0 0,6 -3.557,0 c -1.017,0.574 -2.192,0.906 -3.446,0.906 -1.253,0 -2.428,-0.332 -3.446,-0.906 l -3.551,0 0,-6 0.003,0 c 0,-0.016 -0.003,-0.031 -0.003,-0.047 0,-0.145 0.013,-0.286 0.022,-0.429 0.224,-3.638 3.257,-6.524 6.975,-6.524 3.384,0 6.206,2.387 6.856,5.557 C -0.049,-0.944 0,-0.478 0,0"/></g><g transform="translate(26.4248,13.1387)" id="g104"><path id="path106" style="fill:#f4900c;fill-opacity:1;fill-rule:nonzero;stroke:none" d="m 0,0 c 0,4.342 -3.52,7.861 -7.861,7.861 -1.245,0 -2.417,-0.297 -3.464,-0.812 -3.33,-0.07 -6.008,-2.786 -6.008,-6.133 0,-1.801 0.785,-3.408 2.021,-4.53 -0.009,0.142 -0.021,0.284 -0.021,0.428 0,0.016 0.002,0.032 0.002,0.047 l -0.002,0 0,3.035 c 4.855,0.181 7.656,1.811 9.203,3.333 1.066,-1.257 2.766,-2.842 4.796,-3.257 l 0,-3.111 -0.008,0 c 0,-0.015 0.002,-0.031 0.002,-0.047 0,-0.477 -0.049,-0.944 -0.14,-1.395 C -0.553,-3.29 0,-1.711 0,0"/></g><g transform="translate(21.0908,6)" id="g108"><path id="path110" style="fill:#bf6952;fill-opacity:1;fill-rule:nonzero;stroke:none" d="m 0,0 -3,0 -3,0 c 0,0 0.583,-2 3,-2 2.417,0 3,2 3,2"/></g><g transform="translate(18.0913,6.5)" id="g112"><path id="path114" style="fill:#bf6952;fill-opacity:1;fill-rule:nonzero;stroke:none" d="m 0,0 c -0.13,0 -0.26,0.05 -0.35,0.15 -0.1,0.09 -0.15,0.22 -0.15,0.35 0,0.13 0.05,0.26 0.15,0.36 C -0.18,1.03 0.17,1.04 0.36,0.851 0.45,0.76 0.5,0.63 0.5,0.5 0.5,0.37 0.45,0.24 0.35,0.15 0.26,0.05 0.13,0 0,0"/></g><g transform="translate(15.0913,8)" id="g116"><path id="path118" style="fill:#662113;fill-opacity:1;fill-rule:nonzero;stroke:none" d="m 0,0 c -0.552,0 -1,0.447 -1,1 l 0,1 C -1,2.553 -0.552,3 0,3 0.552,3 1,2.553 1,2 L 1,1 C 1,0.447 0.552,0 0,0"/></g><g transform="translate(21.0908,8)" id="g120"><path id="path122" style="fill:#662113;fill-opacity:1;fill-rule:nonzero;stroke:none" d="m 0,0 c -0.553,0 -1,0.447 -1,1 l 0,1 C -1,2.553 -0.553,3 0,3 0.553,3 1,2.553 1,2 L 1,1 C 1,0.447 0.553,0 0,0"/></g></g></g></g></svg>
