<svg xmlns="http://www.w3.org/2000/svg" viewBox="0 0 45 45" enable-background="new 0 0 45 45"><defs><clipPath id="a"><path d="M0 36h36V0H0v36z"/></clipPath></defs><g><g><g clip-path="url(#a)" transform="matrix(1.25 0 0 -1.25 0 45)"><g><path fill="#0b0200" d="M11 36c-1.26 0-2.44-.4-3.4-1.06-.2.03-.4.06-.6.06-2.2 0-4-1.8-4-4v-6c0-3.87 3.13-7 7-7s7 3.13 7 7v5c0 3.3-2.7 6-6 6"/></g><path fill="#7c533e" d="M9 1H6v8h3V1z"/><path fill="#7c533e" d="M14 1h-3v8h3V1z"/><path fill="#664131" d="M9 8H6v1h3V8z"/><path fill="#664131" d="M14 8h-3v1h3V8z"/><g><path fill="#292f33" d="M5 0v1s0 1 2 1 2-1 2-1V0H5z"/></g><g><path fill="#292f33" d="M11 0v1s0 1 2 1 2-1 2-1V0h-4z"/></g><g><path fill="#7c533e" d="M1 10c-.17 0-.33.04-.5.13-.47.26-.64.87-.37 1.35l5 9c.26.5.87.66 1.36.4.47-.27.64-.88.37-1.37l-5-9c-.18-.3-.52-.5-.87-.5"/></g><g><path fill="#7c533e" d="M19 10c-.35 0-.7.2-.87.52l-5 9c-.27.48-.1 1.1.38 1.35.5.27 1.1.1 1.37-.38l5-9c.27-.5.1-1.1-.38-1.37-.17-.1-.33-.13-.5-.13"/></g><g><path fill="#e75a70" d="M4 9h12l-2 6v4h2v1c0 1.1-.9 2-2 2H6c-1.1 0-2-.9-2-2v-1h2v-4L4 9z"/></g><path fill="#da2f47" d="M14 15H6v2h8v-2z"/><g><path fill="#7c533e" d="M8 25v-4c0-1.1.9-2 2-2s2 .9 2 2v4H8z"/></g><g><path fill="#664131" d="M12 25l-4-.02V21s2-1 4 0v4z"/></g><g><path fill="#7c533e" d="M15 33H5v-6c0-2.76 2.24-5 5-5s5 2.24 5 5v6z"/></g><g><path fill="#0b0200" d="M8 33s0-4 8-4v4H8z"/></g><g><path fill="#0b0200" d="M8 33s0-4-4-4v4h4z"/></g><g><path fill="#df1f32" d="M12 24H8s0-1 2-1 2 1 2 1"/></g><g><path d="M8 27.5c0-.28-.22-.5-.5-.5s-.5.22-.5.5.22.5.5.5.5-.22.5-.5"/></g><g><path d="M13 27.5c0-.28-.22-.5-.5-.5s-.5.22-.5.5.22.5.5.5.5-.22.5-.5"/></g><g><path fill="#3d2e24" d="M9 26h2s0-1-1-1-1 1-1 1"/></g><g><path fill="#0b0200" d="M26.5 36c-1.2 0-2.28-.38-3.18-1.02-1.85-.1-3.32-1.6-3.32-3.48 0-1.54 0-3.48 2.04-4.2 1-1.4 2.62-2.3 4.46-2.3 3.04 0 5.5 2.46 5.5 5.5S29.54 36 26.5 36"/></g><g><path fill="#aab8c2" d="M27 13h-5V1h3v8h2V1h3v12h-3z"/></g><g><path fill="#292f33" d="M21 0v1s0 1 2 1 2-1 2-1V0h-4z"/></g><g><path fill="#292f33" d="M27 0v1s0 1 2 1 2-1 2-1V0h-4z"/></g><g><path fill="#7c533e" d="M17 10c-.17 0-.33.04-.5.13-.47.26-.64.87-.37 1.35l5 9c.26.5.87.66 1.35.4.5-.27.66-.88.4-1.37l-5-9c-.2-.3-.53-.5-.88-.5"/></g><g><path fill="#7c533e" d="M35 10c-.35 0-.7.2-.87.52l-5 9c-.27.48-.1 1.1.38 1.35.5.27 1.1.1 1.37-.38l5-9c.27-.5.1-1.1-.4-1.37-.14-.1-.3-.13-.47-.13"/></g><g><path fill="#4289c1" d="M32 20c0 1.1-.9 2-2 2h-8c-1.1 0-2-.9-2-2v-1h2v-7h8v7h2v1z"/></g><g><path fill="#7c533e" d="M24 25v-4c0-1.1.9-2 2-2s2 .9 2 2v4h-4z"/></g><g><path fill="#664131" d="M28 25l-4-.02V21s2-1 4 0v4z"/></g><g><path fill="#7c533e" d="M31 33H21v-6c0-2.76 2.24-5 5-5s5 2.24 5 5v6z"/></g><g><path fill="#0b0200" d="M24 33h-3v-4c2.33 0 2.85 2.4 2.96 3.5.04-1.1.82-3.5 7.04-3.5v4h-7z"/></g><g><path fill="#3d2e24" d="M28 24h-4s0-1 2-1 2 1 2 1"/></g><g><path d="M24 27.5c0-.28-.22-.5-.5-.5s-.5.22-.5.5.22.5.5.5.5-.22.5-.5"/></g><g><path d="M29 27.5c0-.28-.22-.5-.5-.5s-.5.22-.5.5.22.5.5.5.5-.22.5-.5"/></g><g><path fill="#3d2e24" d="M25 26h2s0-1-1-1-1 1-1 1"/></g></g></g></g></svg>