<svg xmlns="http://www.w3.org/2000/svg" viewBox="0 0 45 45" enable-background="new 0 0 45 45"><defs><clipPath id="a"><path d="M0 36h36V0H0v36z"/></clipPath><clipPath id="b"><path d="M22 36c-5 0-7.13-1.34-9-4-2-2.83 0-5-3-7-1.86-1.24 6-2.3 12-2.3s13.86 1.06 12 2.3c-3 2-1 4.17-3 7-1.87 2.66-5 4-9 4z"/></clipPath><clipPath id="c"><path d="M0 36h36V0H0v36z"/></clipPath></defs><g><g><g clip-path="url(#a)" transform="matrix(1.25 0 0 -1.25 0 45)"><g><path fill="#3b88c3" d="M36 0v2c0 3.3-2.7 6-6 6H14c-3.3 0-6-2.7-6-6V0h28z"/></g><path fill="#292f33" d="M27 5H17v4h10V5z"/><g><path fill="#292f33" d="M18 9h8s-1.02-7-4-7-4 7-4 7"/></g><g><path fill="#d5ab88" d="M17.64 5.96C19.38 4.7 20.5 4 22 4c1.5 0 2.62.7 4.36 1.96v5.75h-8.72V5.97z"/></g><g><path fill="#cc9b7a" d="M17.63 10.03c1.22-1.38 2.73-1.75 4.37-1.75 1.63 0 3.14.37 4.36 1.75v3.5h-8.73v-3.5z"/></g><g><path fill="#d5ab88" d="M15.44 20.06c0-1.44-.73-2.62-1.63-2.62-.9 0-1.63 1.18-1.63 2.62 0 1.45.73 2.63 1.64 2.63.9 0 1.64-1.2 1.64-2.64"/></g><g><path fill="#d5ab88" d="M31.83 20.06c0-1.44-.73-2.62-1.64-2.62-.9 0-1.64 1.18-1.64 2.62 0 1.45.73 2.63 1.63 2.63.9 0 1.63-1.2 1.63-2.64"/></g><g><path fill="#d5ab88" d="M13.48 19.04c0 5.6 3.8 10.12 8.52 10.12 4.7 0 8.52-4.53 8.52-10.12 0-5.6-3.8-10.12-8.52-10.12-4.7 0-8.52 4.53-8.52 10.12"/></g><g><path fill="#c1694f" d="M22 12.2c-2.75 0-3.6.7-3.74.85-.26.25-.26.67 0 .92.25.25.64.26.9.03.05-.04.72-.5 2.84-.5 2.2 0 2.84.5 2.84.5.26.25.66.24.9-.02.27-.25.26-.68 0-.93-.14-.15-1-.85-3.74-.85"/></g><g><path fill="#963b22" d="M22 32.52c5.65 0 9.18-4.17 9.18-7.64 0-3.47-.7-4.86-1.4-3.47-.72 1.4-1.43 2.78-1.43 2.78s-4.23 0-5.64 1.4c0 0 2.12-4.17-2.1 0 0 0 .7-2.78-3.54.7 0 0-2.12-1.4-2.83-4.87-.2-.96-1.4 0-1.4 3.48 0 3.47 2.82 7.64 9.17 7.64"/></g><g><path fill="#662113" d="M18 19c-.55 0-1 .45-1 1v1c0 .55.45 1 1 1s1-.45 1-1v-1c0-.55-.45-1-1-1"/></g><g><path fill="#662113" d="M26 19c-.55 0-1 .45-1 1v1c0 .55.45 1 1 1s1-.45 1-1v-1c0-.55-.45-1-1-1"/></g><g><path fill="#c1694f" d="M22.75 16.25h-1.5c-.4 0-.75.34-.75.75 0 .4.34.75.75.75h1.5c.4 0 .75-.34.75-.75 0-.4-.34-.75-.75-.75"/></g><g><path fill="#292f33" d="M23 1.06L22 0l-1 1v3h2V1.06z"/></g><g><path fill="#55acee" d="M15 8c0-1 1-3 3-5 1.58-1.58 4-3 4-3 0 3.06-1 4-2 5s-3 2-3 4c0 1-2-1-2-1"/></g><g><path fill="#55acee" d="M29 8c0-1-1-3-3-5-1.58-1.58-4-3-4-3 0 3.06 1 4 2 5s3 2 3 4c0 1 2-1 2-1"/></g><g><path fill="#cc9b7a" d="M21 20c0-2.07-1.68-3.75-3.75-3.75-2.07 0-3.75 1.68-3.75 3.75 0 2.07 1.68 3.75 3.75 3.75 2.07 0 3.75-1.68 3.75-3.75"/></g><g><path fill="#cc9b7a" d="M30.5 20c0-2.07-1.68-3.75-3.75-3.75-2.07 0-3.75 1.68-3.75 3.75 0 2.07 1.68 3.75 3.75 3.75 2.07 0 3.75-1.68 3.75-3.75"/></g><path fill="#cc9b7a" d="M24.5 18.5h-5V21h5v-2.5z"/><g><path fill="#e1e8ed" d="M21 20.5c0-1.93-1.57-3.5-3.5-3.5S14 18.57 14 20.5s1.57 3.5 3.5 3.5 3.5-1.57 3.5-3.5"/></g><g><path fill="#e1e8ed" d="M30 20.5c0-1.93-1.57-3.5-3.5-3.5S23 18.57 23 20.5s1.57 3.5 3.5 3.5 3.5-1.57 3.5-3.5"/></g><path fill="#e1e8ed" d="M24.5 19.5h-5V22h5v-2.5z"/><g><path fill="#292f33" d="M20 20.5c0-1.38-1.12-2.5-2.5-2.5S15 19.12 15 20.5s1.12 2.5 2.5 2.5 2.5-1.12 2.5-2.5"/></g><g><path fill="#292f33" d="M29 20.5c0-1.38-1.12-2.5-2.5-2.5S24 19.12 24 20.5s1.12 2.5 2.5 2.5 2.5-1.12 2.5-2.5"/></g><g><path fill="#3b88c3" d="M34 25c-3 2-1 4.17-3 7-1.87 2.66-5 4-9 4-5 0-7.13-1.34-9-4-2-2.83 0-5-3-7-1.86-1.24 6-2.3 12-2.3s13.86 1.06 12 2.3"/></g></g></g><g><g clip-path="url(#b)" transform="matrix(1.25 0 0 -1.25 0 45)"><g><path fill="#269" d="M20 24.5h-.5c-3.6 0-10.7 1.03-12.72 2.05l.44.9c1.8-.9 8.2-1.86 11.78-1.94V36h1V24.5z"/></g><g><path fill="#269" d="M24.5 24.5H24V36h1V25.5c4 .08 10 1.06 11.78 1.95l.44-.9c-2.17-1.08-8.92-2.05-12.72-2.05"/></g></g></g><g><g clip-path="url(#c)" transform="matrix(1.25 0 0 -1.25 0 45)"><g><path fill="#66757f" d="M5 12l-1.5-1S5 8.5 5 5V0h2v5c0 4.5-2 7-2 7"/></g><g><path fill="#99aab5" d="M6.08 12.2c.2-.4.07-.86-.3-1.07L3.63 9.95c-.38-.2-.85-.07-1.06.3l-.45.83c-.2.38-.08.85.3 1.06l2.13 1.18c.38.2.86.07 1.07-.3l.45-.83z"/></g><g><path fill="#f4900c" d="M3.5 13.42C7.67 15.62.04 19.7.04 19.7S-.7 11.2 3.5 13.4"/></g><g><path fill="#ffdc5d" d="M2.96 14.63c2.2 1.17-1.8 3.3-1.8 3.3s-.4-4.46 1.8-3.3"/></g></g></g></g></svg>