<svg xmlns="http://www.w3.org/2000/svg" viewBox="0 0 45 45" enable-background="new 0 0 45 45"><defs><clipPath id="a"><path d="M0 0h36v36H0V0z"/></clipPath></defs><g><g><path fill="#ffdc5d" d="M11.42 27.5v-3.75h6.25v3.75H20V35H8.75v-7.5h2.67z"/></g><g><g clip-path="url(#a)" transform="matrix(1.25 0 0 -1.25 0 45)"><g><path fill="#ffac33" d="M12.14 35.86c-1.34 0-2.6-.3-3.74-.84-.2.02.8.03.6.03-3.94 0-7.14-3.2-7.14-7.13 0-3.13 2-5.78 4.8-6.74 1.63-1.86 2.82-3.04 5.48-3.04 4.9 0 8.86 3.97 8.86 8.86 0 4.9-3.97 8.86-8.86 8.86"/></g><g><path fill="#ffdc5d" d="M4 32V22h.02c.26-3.9 3.5-6.97 7.48-6.97 3.98 0 7.25 3.08 7.5 6.97v9L4 32z"/></g><g><path fill="#bf6952" d="M14.67 18.28H8.22s.8-1.6 3.22-1.6 3.23 1.6 3.23 1.6"/></g><g><path fill="#662113" d="M8 23c-.55 0-1 .45-1 1v1c0 .55.45 1 1 1s1-.45 1-1v-1c0-.55-.45-1-1-1"/></g><g><path fill="#662113" d="M15 23c-.55 0-1 .45-1 1v1c0 .55.45 1 1 1s1-.45 1-1v-1c0-.55-.45-1-1-1"/></g><g><path fill="#bf6952" d="M11.94 20.5h-1c-.27 0-.5.22-.5.5s.23.5.5.5h1c.28 0 .5-.22.5-.5s-.22-.5-.5-.5"/></g><g><path fill="#3b93d9" d="M18.94 14h-5l-2.47-3.78L8.94 14h-6C1.17 14 1 12.8 1 11.03V0h20.93v11.03c0 1.97-1 2.97-3 2.97"/></g><path fill="#1b6399" d="M17.97 0h-1.02v10h1.02V0z"/><path fill="#1b6399" d="M6 0H4.97v10H6V0z"/><g><path fill="#ffac33" d="M20.14 26l-1 6-2 1H4v-7c6.07 0 9.7 2.58 11.5 4.6.56-1.77 1.9-4.6 4.64-4.6"/></g><g><path fill="#f4900c" d="M26.47 21c-1.24 0-2.4-.3-3.46-.8-3.32-.08-6-2.8-6-6.15 0-2.2 1.15-4.1 2.9-5.2 1.4-2.15 3.8-3.57 6.57-3.57 4.34 0 7.86 3.52 7.86 7.86S30.8 21 26.47 21"/></g><g><path fill="#ffdc5d" d="M28 1v4h-4V1h-1V0h6v1h-1z"/></g><g><path fill="#f4900c" d="M34.33 13.14S34.88 8.7 36 5c0 0-4.34-3-9-3 0 1.56 7.33 11.14 7.33 11.14"/></g><g><path fill="#f4900c" d="M17.67 13.14S17.12 8.7 16 5c0 0 4.34-3 9-3 0 1.56-7.33 11.14-7.33 11.14"/></g><g><path fill="#ffdc5d" d="M33 16h-3.56c-1 .57-2.2.9-3.44.9-1.26 0-2.43-.33-3.45-.9H19v-6c0-.02 0-.03 0-.05C19 6.1 22.13 3 26 3c3.86 0 7 3.1 7 6.95 0 .02 0 .03 0 .05v6z"/></g><g><path fill="#bf6952" d="M29 6h-6s.58-2 3-2 3 2 3 2"/></g><g><path fill="#bf6952" d="M26 6.5c-.13 0-.26.05-.35.15-.1.1-.15.22-.15.35 0 .13.05.26.15.36.17.17.52.18.7 0 .1-.1.15-.23.15-.36 0-.13-.05-.26-.15-.35-.1-.1-.22-.15-.35-.15"/></g><g><path fill="#662113" d="M23 8c-.55 0-1 .45-1 1v1c0 .55.45 1 1 1s1-.45 1-1V9c0-.55-.45-1-1-1"/></g><g><path fill="#662113" d="M29 8c-.55 0-1 .45-1 1v1c0 .55.45 1 1 1s1-.45 1-1V9c0-.55-.45-1-1-1"/></g><g><path fill="#f4900c" d="M34 13l-1 4-3 2-11-1-.86-5c5.4 0 8.42 1.75 10.06 3.37C29.44 14.9 31.53 13 34 13"/></g><g><path fill="#ffdc5d" d="M28 4h-4V2s2-1 4 0v2z"/></g><g><path fill="#ea596e" d="M31 3h-3l-2-3-2 3h-2c-3 0-5-2-5-4v-1h18v1c0 1.97-2 4-4 4"/></g></g></g></g></svg>