<svg xmlns="http://www.w3.org/2000/svg" viewBox="0 0 45 45" enable-background="new 0 0 45 45"><defs><clipPath id="a"><path d="M0 36h36V0H0v36z"/></clipPath><clipPath id="b"><path d="M4 34c-1.1 0-2-.9-2-2V10c0-1.1.9-2 2-2h22c1.1 0 2 .9 2 2v22c0 1.1-.9 2-2 2H4z"/></clipPath><clipPath id="c"><path d="M0 36h36V0H0v36z"/></clipPath><clipPath id="d"><path d="M0 0h36v36H0V0z"/></clipPath></defs><g><g><g clip-path="url(#a)" transform="matrix(1.25 0 0 -1.25 0 45)"><g><path fill="#d99e82" d="M30 10c0-2.2-1.8-4-4-4H4c-2.2 0-4 1.8-4 4v22c0 2.2 1.8 4 4 4h22c2.2 0 4-1.8 4-4V10z"/></g></g></g><g><g clip-path="url(#b)" transform="matrix(1.25 0 0 -1.25 0 45)"><g><path fill="#5c913b" d="M28 10c0-1.1-.9-2-2-2H4c-1.1 0-2 .9-2 2v22c0 1.1.9 2 2 2h22c1.1 0 2-.9 2-2V10z"/></g></g></g><g><g clip-path="url(#c)" transform="matrix(1.25 0 0 -1.25 0 45)"><g><path fill="#fff" d="M10.58 27.22c.35 0 .62-.16.62-.53s-.27-.53-.57-.53H7.95c-.35 0-.62.16-.62.52 0 .16.1.3.2.4.65.8 1.37 1.5 1.98 2.4.15.2.3.45.3.74 0 .32-.26.6-.6.6-.9 0-.47-1.28-1.24-1.28-.38 0-.58.27-.58.58 0 1 .9 1.8 1.88 1.8.98 0 1.77-.63 1.77-1.65 0-1.12-1.24-2.22-1.92-3.08h1.48z"/></g><g><path fill="#fff" d="M4.1 22.83c0 .3.17.48.47.48.3 0 .48-.18.48-.47v-1.16H6.2c.3 0 .5-.2.5-.48 0-.3-.2-.5-.5-.5H5.06v-1.15c0-.3-.2-.48-.48-.48-.3 0-.48.2-.48.48v1.16H2.92c-.3 0-.48.2-.48.5 0 .28.18.47.48.47H4.1v1.16z"/></g><g><path fill="#fff" d="M10.58 20.22c.35 0 .62-.16.62-.53s-.27-.53-.58-.53H7.95c-.35 0-.62.16-.62.52 0 .16.1.3.18.4.68.8 1.4 1.5 2 2.4.15.2.28.45.28.74 0 .32-.24.6-.57.6-.9 0-.47-1.28-1.24-1.28-.38 0-.58.27-.58.58 0 1 .9 1.8 1.88 1.8.98 0 1.77-.63 1.77-1.65 0-1.12-1.24-2.22-1.92-3.08h1.48z"/></g><g><path fill="#fff" d="M11.42 17.03H3.08c-.27 0-.5.22-.5.5s.23.5.5.5h8.34c.27 0 .5-.22.5-.5s-.23-.5-.5-.5"/></g></g></g><g><g clip-path="url(#d)" transform="matrix(1.25 0 0 -1.25 0 45)"><g><path fill="#e1e8ed" d="M36 0v2c0 3.3-2.7 6-6 6H14c-3.3 0-6-2.7-6-6V0h28z"/></g><g><path fill="#7c533e" d="M17.64 7.9C19.38 6.63 20.5 6.35 22 6.35c1.5 0 2.62.28 4.36 1.55v3.8h-8.72V7.9z"/></g><g><path fill="#664131" d="M17.63 10.03c1.22-1.38 2.73-1.75 4.37-1.75 1.63 0 3.14.37 4.36 1.75v3.5h-8.73v-3.5z"/></g><g><path fill="#7c533e" d="M15.44 20.06c0-1.44-.73-2.62-1.63-2.62-.9 0-1.63 1.18-1.63 2.62 0 1.45.73 2.63 1.64 2.63.9 0 1.64-1.2 1.64-2.64"/></g><g><path fill="#7c533e" d="M31.83 20.06c0-1.44-.73-2.62-1.64-2.62-.9 0-1.64 1.18-1.64 2.62 0 1.45.73 2.63 1.63 2.63.9 0 1.63-1.2 1.63-2.64"/></g><g><path fill="#7c533e" d="M13.48 19.04c0 5.6 3.8 10.12 8.52 10.12 4.7 0 8.52-4.53 8.52-10.12 0-5.6-3.8-10.12-8.52-10.12-4.7 0-8.52 4.53-8.52 10.12"/></g><g><path fill="#0b0200" d="M26.53 14.65l-1.27.28c-.4.1-1.18.07-1.54.07h-3.69c-.36 0-1.13.02-1.53-.07l-1.27-.28c-.35-.1-.55-.4-.45-.74.08-.27.35-.43.63-.43.07 0 .13.03.2.05l1.26.37c-.15-.2-.18-.46-.07-.7.1-.22.34-.35.58-.35.1 0 .2.03.3.07l1.03.52c.03-.22.14-.4.35-.52.1-.04.2-.07.3-.07.24 0 .47.14.58.37l.07.13-.05-.13c.1-.23.22-.37.46-.37.1 0 .2.03.3.07.2.1.33.3.35.52l1.03-.52c.1-.04.2-.07.3-.07.24 0 .47.13.58.36.12.24.08.5-.06.7l1.26-.38c.06-.02.13-.05.18-.05.3 0 .55.16.63.44.1.36-.1.65-.44.75"/></g><g><path fill="#0b0200" d="M22 32.52c5.65 0 9.18-4.17 9.18-7.64 0-3.47-.7-4.86-1.4-3.47-.72 1.4-1.43 2.78-1.43 2.78s-4.23 0-5.64 1.4c0 0 2.12-4.17-2.1 0 0 0 .7-2.78-3.54.7 0 0-2.12-1.4-2.83-4.87-.2-.96-1.4 0-1.4 3.48 0 3.47 2.82 7.64 9.17 7.64"/></g><g><path d="M18 19c-.55 0-1 .45-1 1v1c0 .55.45 1 1 1s1-.45 1-1v-1c0-.55-.45-1-1-1"/></g><g><path d="M26 19c-.55 0-1 .45-1 1v1c0 .55.45 1 1 1s1-.45 1-1v-1c0-.55-.45-1-1-1"/></g><g><path fill="#3d2e24" d="M22.75 16.25h-1.5c-.4 0-.75.34-.75.75 0 .4.34.75.75.75h1.5c.4 0 .75-.34.75-.75 0-.4-.34-.75-.75-.75"/></g><g><path fill="#99aab5" d="M21.94 5.12s3.38-2.5 4.1-2.78c.15-.06-.37 3.66-.37 3.66H18.2s-.5-3.78-.22-3.63c.64.34 3.96 2.75 3.96 2.75"/></g><g><path fill="#be1931" d="M23.25 2.56s.38.62.53.9c.18.33.46 1.58.46 1.58l-2.2.96s-.15 0-.15 0l-.2-.05-.17-.06c-.22-.08.1-.02.1-.03l-1.98-.83s.3-1.25.47-1.58c.16-.28.53-.9.53-.9S19.9 2 19.6 0h4.68c-.28 1.6-1.03 2.56-1.03 2.56"/></g><g><path fill="#f5f8fa" d="M17.23 9.37C17.8 8.8 21.93 6 21.93 6s-2.12-1.25-4.08-3.55c-.2-.23-1.54 4.63-1.58 5.7 0 .32.7 1.5.96 1.22"/></g><g><path fill="#f5f8fa" d="M26.67 9.37C26.1 8.8 21.97 6 21.97 6s2.12-1.25 4.07-3.55c.2-.23 1.55 4.63 1.6 5.7 0 .32-.7 1.5-.97 1.22"/></g><g><path fill="#dd2e44" d="M21.96 5.3c.38.03 1.54-.76 1.42-1.24-.46-1.83-.85-1.4-1.4-1.4-.6 0-.96-.46-1.38 1.32-.1.4.8 1.3 1.36 1.33"/></g><g><path fill="#dd2e44" d="M24 0h-4.04s.54 2.16 2.02 2.16 2-2.16 2-2.16"/></g></g></g></g></svg>