<svg xmlns="http://www.w3.org/2000/svg" viewBox="0 0 45 45" enable-background="new 0 0 45 45"><defs><clipPath id="a"><path d="M0 36h36V0H0v36z"/></clipPath></defs><g><g><g clip-path="url(#a)" transform="matrix(1.25 0 0 -1.25 0 45)"><g><path fill="#f3d2a2" d="M6 16c0-2.2-1.12-4-2.5-4S1 13.8 1 16s1.12 4 2.5 4S6 18.2 6 16"/></g><g><path fill="#f3d2a2" d="M35 16c0-2.2-1.12-4-2.5-4S30 13.8 30 16s1.12 4 2.5 4 2.5-1.8 2.5-4"/></g><g><path fill="#f3d2a2" d="M4 15.44c0 8.52 6.27 15.44 14 15.44s14-6.92 14-15.44C32 6.9 25.73 1 18 1S4 6.9 4 15.44"/></g><g><path fill="#662113" d="M12 14c-.55 0-1 .45-1 1v2c0 .55.45 1 1 1s1-.45 1-1v-2c0-.55-.45-1-1-1"/></g><g><path fill="#662113" d="M24 14c-.55 0-1 .45-1 1v2c0 .55.45 1 1 1s1-.45 1-1v-2c0-.55-.45-1-1-1"/></g><g><path fill="#c1694f" d="M18 6c-4.2 0-6.36 1.06-6.45 1.1-.5.25-.7.85-.44 1.35.25.5.85.7 1.34.45.05-.03 1.93-.9 5.56-.9 3.67 0 5.54.9 5.56.9.5.24 1.1.03 1.34-.46.24-.5.04-1.1-.45-1.33C24.35 7.06 22.2 6 18 6"/></g><g><path fill="#c1694f" d="M19 11h-2c-.55 0-1 .45-1 1s.45 1 1 1h2c.55 0 1-.45 1-1s-.45-1-1-1"/></g><g><path fill="#ffe51e" d="M18 35.65c-9.23 0-15-6.47-15-11.85 0-5.4 1.15-7.54 2.3-5.4 1.16 2.17 2.31 4.32 2.31 4.32.02 0 3.8.13 6.1 2.28 0 0-1.06-4 6.6-.12 0 0-.16-3.88 5.2.12 0 0 4.04-1.2 5.2-6.6.3-1.48 2.3 0 2.3 5.4 0 5.38-4.62 11.85-15 11.85"/></g></g></g></g></svg>