<svg xmlns="http://www.w3.org/2000/svg" viewBox="0 0 45 45" enable-background="new 0 0 45 45"><defs><clipPath id="a"><path d="M0 36h36V0H0v36z"/></clipPath></defs><g><g><g clip-path="url(#a)" transform="matrix(1.25 0 0 -1.25 0 45)"><g><path fill="#ffdc5d" d="M8 17c0-2.2-1.12-4-2.5-4S3 14.8 3 17s1.12 4 2.5 4S8 19.2 8 17"/></g><g><path fill="#ffdc5d" d="M33 17c0-2.2-1.12-4-2.5-4S28 14.8 28 17s1.12 4 2.5 4 2.5-1.8 2.5-4"/></g><g><path fill="#ffdc5d" d="M5 15.44c0 8.52 5.82 15.44 13 15.44s13-6.92 13-15.44C31 6.9 25.18 0 18 0S5 6.9 5 15.44"/></g><g><path fill="#662113" d="M13 16c-.55 0-1 .45-1 1v2c0 .55.45 1 1 1s1-.45 1-1v-2c0-.55-.45-1-1-1"/></g><g><path fill="#662113" d="M23 16c-.55 0-1 .45-1 1v2c0 .55.45 1 1 1s1-.45 1-1v-2c0-.55-.45-1-1-1"/></g><g><path fill="#c1694f" d="M19 12h-2c-.55 0-1 .45-1 1s.45 1 1 1h2c.55 0 1-.45 1-1s-.45-1-1-1"/></g><g><path fill="#ffac33" d="M25.27 8.96l-3.3.94c0 .04.03.07.03.1 0 .55-.45 1-1 1h-6c-.55 0-1-.45-1-1 0-.03.02-.06.02-.1l-3.3-.94c-.53-.15-.83-.7-.68-1.23.12-.44.52-.73.96-.73.1 0 .18 0 .28.04l1.93.55c-.2-.3-.27-.7-.1-1.05.18-.35.53-.55.9-.55.15 0 .3.03.45.1l1.57.8c.04-.33.22-.64.53-.8.15-.07.3-.1.45-.1.37 0 .72.2.9.55l.1.2.1-.2c.18-.35.53-.55.9-.55.15 0 .3.03.45.1.3.16.5.47.53.8l1.57-.8c.15-.07.3-.1.45-.1.37 0 .72.2.9.55.17.35.1.75-.1 1.04l1.93-.56C24.83 7 24.9 7 25 7c.44 0 .84.3.96.73.15.53-.15 1.08-.7 1.23"/></g><g><path fill="#ffac33" d="M18 36c8.62 0 14-6.36 14-11.66s-1.08-7.4-2.15-5.3c-1.08 2.13-2.16 4.24-2.16 4.24s-6.47 0-8.62 2.12c0 0 3.23-6.35-3.23 0 0 0 1.07-4.23-5.4 1.06 0 0-3.22-2.12-4.3-7.4-.3-1.48-2.15 0-2.15 5.28C4 29.64 8.3 36 18 36"/></g></g></g></g></svg>