<?xml version="1.0" encoding="UTF-8" standalone="no"?><svg xmlns:dc="http://purl.org/dc/elements/1.1/" xmlns:cc="http://creativecommons.org/ns#" xmlns:rdf="http://www.w3.org/1999/02/22-rdf-syntax-ns#" xmlns:svg="http://www.w3.org/2000/svg" xmlns="http://www.w3.org/2000/svg" viewBox="0 0 45 45" style="enable-background:new 0 0 45 45;" xml:space="preserve" version="1.1" id="svg2"><metadata id="metadata8"><rdf:RDF><cc:Work rdf:about=""><dc:format>image/svg+xml</dc:format><dc:type rdf:resource="http://purl.org/dc/dcmitype/StillImage"/></cc:Work></rdf:RDF></metadata><defs id="defs6"><clipPath id="clipPath20" clipPathUnits="userSpaceOnUse"><path id="path22" d="M 0,36 36,36 36,0 0,0 0,36 Z"/></clipPath></defs><g transform="matrix(1.25,0,0,-1.25,0,45)" id="g10"><g transform="translate(26,14)" id="g12"><path id="path14" style="fill:#ffdc5d;fill-opacity:1;fill-rule:nonzero;stroke:none" d="m 0,0 0,4 5,0 0,-4 2,0 0,-6 -9,0 0,6 2,0 z"/></g><g id="g16"><g clip-path="url(#clipPath20)" id="g18"><g transform="translate(31,14)" id="g24"><path id="path26" style="fill:#3b93d9;fill-opacity:1;fill-rule:nonzero;stroke:none" d="M 0,0 -2.527,-3.778 -5,0 -10,0 c -2,0 -3,-1 -3,-2.973 l 0,-11.027 4.027,0 12.89,0 L 5,-14 5,0 0,0 Z"/></g><path id="path28" style="fill:#1b6399;fill-opacity:1;fill-rule:nonzero;stroke:none" d="m 22.014,0 -1.027,0 0,10 1.027,0 0,-10 z"/><g transform="translate(21,32)" id="g30"><path id="path32" style="fill:#ffdc5d;fill-opacity:1;fill-rule:nonzero;stroke:none" d="m 0,0 0.024,-10 c 0.012,-0.175 0.037,-0.347 0.059,-0.519 0.495,-3.64 3.618,-6.45 7.417,-6.45 3.978,0 7.223,3.079 7.476,6.969 L 15,-10 15,-9.979 15,0 0,0 Z"/></g><g transform="translate(19.042,27.1392)" id="g34"><path id="path36" style="fill:#ffac33;fill-opacity:1;fill-rule:nonzero;stroke:none" d="m 0,0 c 0,-2.151 0.767,-4.123 2.041,-5.658 -0.022,0.172 -0.047,0.344 -0.059,0.519 l -0.009,4.033 c 5.361,0.302 8.513,2.675 10.202,4.57 0.564,-1.773 1.896,-4.603 4.644,-4.603 l 0.139,0 0,8.113 c -1.094,0.681 -2.381,1.081 -3.764,1.081 -0.201,0 -0.398,-0.013 -0.595,-0.03 C 11.462,8.556 10.198,8.861 8.86,8.861 3.967,8.861 0,4.894 0,0"/></g><g transform="translate(25.2783,18.2773)" id="g38"><path id="path40" style="fill:#bf6952;fill-opacity:1;fill-rule:nonzero;stroke:none" d="M 0,0 3.222,0 6.443,0 C 6.443,0 5.639,-1.61 3.222,-1.61 0.805,-1.61 0,0 0,0"/></g><g transform="translate(28,20.5)" id="g42"><path id="path44" style="fill:#bf6952;fill-opacity:1;fill-rule:nonzero;stroke:none" d="M 0,0 1,0 C 1.276,0 1.5,0.224 1.5,0.5 1.5,0.776 1.276,1 1,1 L 0,1 C -0.276,1 -0.5,0.776 -0.5,0.5 -0.5,0.224 -0.276,0 0,0"/></g><g transform="translate(32,23)" id="g46"><path id="path48" style="fill:#662113;fill-opacity:1;fill-rule:nonzero;stroke:none" d="M 0,0 C 0.553,0 1,0.448 1,1 L 1,2 C 1,2.552 0.553,3 0,3 -0.553,3 -1,2.552 -1,2 L -1,1 C -1,0.448 -0.553,0 0,0"/></g><g transform="translate(25,23)" id="g50"><path id="path52" style="fill:#662113;fill-opacity:1;fill-rule:nonzero;stroke:none" d="M 0,0 C 0.552,0 1,0.448 1,1 L 1,2 C 1,2.552 0.552,3 0,3 -0.552,3 -1,2.552 -1,2 L -1,1 C -1,0.448 -0.552,0 0,0"/></g><g transform="translate(5,14)" id="g54"><path id="path56" style="fill:#ffdc5d;fill-opacity:1;fill-rule:nonzero;stroke:none" d="m 0,0 0,4 5,0 0,-4 2,0 0,-6 -9,0 0,6 2,0 z"/></g><g transform="translate(15,14)" id="g58"><path id="path60" style="fill:#3b94d9;fill-opacity:1;fill-rule:nonzero;stroke:none" d="M 0,0 -5,0 -7.472,-3.778 -10,0 l -5,0 0,-14 18,0 0,11.027 C 3,-1 2,0 0,0"/></g><path id="path62" style="fill:#1b6399;fill-opacity:1;fill-rule:nonzero;stroke:none" d="m 15.014,0 -1.027,0 0,10 1.027,0 0,-10 z"/><g transform="translate(15,22)" id="g64"><path id="path66" style="fill:#ffdc5d;fill-opacity:1;fill-rule:nonzero;stroke:none" d="m 0,0 0,9 -15,1 0,-9.953 0,-0.047 0.024,0 c 0.253,-3.89 3.498,-6.969 7.476,-6.969 3.791,0 6.933,2.799 7.438,6.429 0.025,0.179 0.05,0.357 0.062,0.54"/></g><g transform="translate(15,31)" id="g68"><path id="path70" style="fill:#ffac33;fill-opacity:1;fill-rule:nonzero;stroke:none" d="M 0,0 0,-0.166 -0.028,0.002 0,0 Z m -11.194,4.194 c -1.401,0 -2.703,-0.409 -3.806,-1.106 l 0,-8.083 c 5.947,0.056 9.375,2.593 11.162,4.598 0.506,-1.589 1.632,-4.021 3.838,-4.51 L 0,-9 C -0.012,-9.183 -0.037,-9.361 -0.062,-9.54 1.224,-8.002 2,-6.022 2,-3.861 2,1.033 -1.967,5 -6.861,5 -8.199,5 -9.462,4.695 -10.6,4.164 c -0.196,0.017 -0.394,0.03 -0.594,0.03"/></g><g transform="translate(10.7217,18.2773)" id="g72"><path id="path74" style="fill:#bf6952;fill-opacity:1;fill-rule:nonzero;stroke:none" d="m 0,0 -3.221,0 -3.222,0 c 0,0 0.805,-1.61 3.222,-1.61 C -0.805,-1.61 0,0 0,0"/></g><g transform="translate(8,20.5)" id="g76"><path id="path78" style="fill:#bf6952;fill-opacity:1;fill-rule:nonzero;stroke:none" d="M 0,0 -1,0 C -1.276,0 -1.5,0.224 -1.5,0.5 -1.5,0.776 -1.276,1 -1,1 L 0,1 C 0.276,1 0.5,0.776 0.5,0.5 0.5,0.224 0.276,0 0,0"/></g><g transform="translate(4,23)" id="g80"><path id="path82" style="fill:#662113;fill-opacity:1;fill-rule:nonzero;stroke:none" d="m 0,0 c -0.552,0 -1,0.448 -1,1 l 0,1 C -1,2.552 -0.552,3 0,3 0.552,3 1,2.552 1,2 L 1,1 C 1,0.448 0.552,0 0,0"/></g><g transform="translate(11,23)" id="g84"><path id="path86" style="fill:#662113;fill-opacity:1;fill-rule:nonzero;stroke:none" d="m 0,0 c -0.552,0 -1,0.448 -1,1 l 0,1 C -1,2.552 -0.552,3 0,3 0.552,3 1,2.552 1,2 L 1,1 C 1,0.448 0.552,0 0,0"/></g><g transform="translate(20.0908,1)" id="g88"><path id="path90" style="fill:#ffdc5d;fill-opacity:1;fill-rule:nonzero;stroke:none" d="m 0,0 0,4 -4,0 0,-4 -1,0 0,-1 6,0 0,1 -1,0 z"/></g><g transform="translate(23.0908,3)" id="g92"><path id="path94" style="fill:#88c9f9;fill-opacity:1;fill-rule:nonzero;stroke:none" d="m 0,0 -3,0 -2,-3 8.818,0 C 3.301,-1.398 1.659,0 0,0"/></g><g transform="translate(9.2769,0)" id="g96"><path id="path98" style="fill:#88c9f9;fill-opacity:1;fill-rule:nonzero;stroke:none" d="m 0,0 3.759,0 5.055,0 -2,3 -2,0 C 4.447,3 4.095,2.969 3.759,2.912 1.818,2.586 0.458,1.377 0,0"/></g><g transform="translate(25.085,9.9531)" id="g100"><path id="path102" style="fill:#ffdc5d;fill-opacity:1;fill-rule:nonzero;stroke:none" d="m 0,0 c 0,0.016 -0.002,0.031 -0.002,0.047 l 0.008,0 0,6 -3.557,0 c -1.017,0.574 -2.192,0.906 -3.446,0.906 -1.253,0 -2.428,-0.332 -3.446,-0.906 l -3.551,0 0,-6 0.003,0 c 0,-0.016 -0.003,-0.031 -0.003,-0.047 0,-0.145 0.013,-0.286 0.022,-0.429 0.224,-3.638 3.257,-6.524 6.975,-6.524 3.384,0 6.206,2.387 6.856,5.557 C -0.049,-0.944 0,-0.478 0,0"/></g><g transform="translate(26.4248,13.1387)" id="g104"><path id="path106" style="fill:#f4900c;fill-opacity:1;fill-rule:nonzero;stroke:none" d="m 0,0 c 0,4.342 -3.52,7.861 -7.861,7.861 -1.245,0 -2.417,-0.297 -3.464,-0.812 -3.33,-0.07 -6.008,-2.786 -6.008,-6.133 0,-1.801 0.785,-3.408 2.021,-4.53 -0.009,0.142 -0.021,0.284 -0.021,0.428 0,0.016 0.002,0.032 0.002,0.047 l -0.002,0 0,3.035 c 4.855,0.181 7.656,1.811 9.203,3.333 1.066,-1.257 2.766,-2.842 4.796,-3.257 l 0,-3.111 -0.008,0 c 0,-0.015 0.002,-0.031 0.002,-0.047 0,-0.477 -0.049,-0.944 -0.14,-1.395 C -0.553,-3.29 0,-1.711 0,0"/></g><g transform="translate(21.0908,6)" id="g108"><path id="path110" style="fill:#bf6952;fill-opacity:1;fill-rule:nonzero;stroke:none" d="m 0,0 -3,0 -3,0 c 0,0 0.583,-2 3,-2 2.417,0 3,2 3,2"/></g><g transform="translate(18.0913,6.5)" id="g112"><path id="path114" style="fill:#bf6952;fill-opacity:1;fill-rule:nonzero;stroke:none" d="m 0,0 c -0.13,0 -0.26,0.05 -0.35,0.15 -0.1,0.09 -0.15,0.22 -0.15,0.35 0,0.13 0.05,0.26 0.15,0.36 C -0.18,1.03 0.17,1.04 0.36,0.851 0.45,0.76 0.5,0.63 0.5,0.5 0.5,0.37 0.45,0.24 0.35,0.15 0.26,0.05 0.13,0 0,0"/></g><g transform="translate(15.0913,8)" id="g116"><path id="path118" style="fill:#662113;fill-opacity:1;fill-rule:nonzero;stroke:none" d="m 0,0 c -0.552,0 -1,0.447 -1,1 l 0,1 C -1,2.553 -0.552,3 0,3 0.552,3 1,2.553 1,2 L 1,1 C 1,0.447 0.552,0 0,0"/></g><g transform="translate(21.0908,8)" id="g120"><path id="path122" style="fill:#662113;fill-opacity:1;fill-rule:nonzero;stroke:none" d="m 0,0 c -0.553,0 -1,0.447 -1,1 l 0,1 C -1,2.553 -0.553,3 0,3 0.553,3 1,2.553 1,2 L 1,1 C 1,0.447 0.553,0 0,0"/></g></g></g></g></svg>
