<svg xmlns="http://www.w3.org/2000/svg" viewBox="0 0 45 45" enable-background="new 0 0 45 45"><defs><clipPath id="a"><path d="M0 36h36V0H0v36z"/></clipPath><clipPath id="b"><path d="M16 9c-3.3 0-7-2.18-7-5.5V0h26v3.5C35 6.82 31.32 9 28 9H16z"/></clipPath><clipPath id="c"><path d="M0 36h36V0H0v36z"/></clipPath></defs><g><g><g clip-path="url(#a)" transform="matrix(1.25 0 0 -1.25 0 45)"><g><path fill="#77b255" d="M35 0v3.5C35 6.8 31.3 9 28 9H16c-3.3 0-7-2.2-7-5.5V0h26z"/></g><g><path fill="#3e721d" d="M18 9h8l-4-7-4 7z"/></g><g><path fill="#963b22" d="M21.95 30.93c4.1 0 10.94-2.05 10.94-10.95 0-8.9 0-10.94-2.06-10.94-2.05 0-4.8 2.05-8.9 2.05-4.1 0-6.78-2.06-8.9-2.06-2.28 0-2.04 8.2-2.04 10.94 0 8.9 6.84 10.95 10.95 10.95"/></g><g><path fill="#d5ab88" d="M18.33 8.98C19.8 7.92 21.3 8 22 8c.7 0 2.2-.08 3.66.98v3.2h-7.33V9z"/></g><g><path fill="#cc9b7a" d="M18.32 10.82c1.02-1.15 2.3-1.47 3.67-1.47s2.64.32 3.66 1.47v2.94h-7.34v-2.94z"/></g><g><path fill="#d5ab88" d="M13.73 20.28c0 5.84 3.68 10.57 8.2 10.57 4.55 0 8.22-4.73 8.22-10.57 0-5.83-3.67-10.28-8.2-10.28-4.54 0-8.22 4.45-8.22 10.28"/></g><g><path fill="#df1f32" d="M21.95 12.46c-1.6 0-2.45.8-2.54.88-.26.27-.26.7 0 .97.27.27.7.28.97.02.03-.04.55-.5 1.58-.5s1.55.48 1.57.5c.28.25.7.24.96-.02.26-.27.26-.7 0-.96-.1-.1-.93-.88-2.53-.88"/></g><g><path fill="#963b22" d="M11.73 17c-.03 1-.05.22-.05.47 0 3.42 2.05-.5 2.05 1.94 0 2.45 1.37 2.7 2.74 4.06.7.68 2.05 2.03 2.05 2.03s3.42-2.08 6.16-2.08 5.48-1.38 5.48-4.1c0-2.75 2.05 1.57 2.05-1.85 0-.24 0 .53-.03-.47h.72c0 2 0 1.92 0 3.2 0 8.9-6.85 10.73-10.96 10.73-4.1 0-10.94-1.78-10.94-10.67 0-.8-.02-1.26 0-3.26h.73z"/></g><g><path fill="#662113" d="M18.6 18.1c-.46 0-.84.4-.84.86v.84c0 .47.38.85.85.85s.86-.38.86-.85v-.84c0-.47-.4-.85-.85-.85"/></g><g><path fill="#662113" d="M25.37 18.1c-.46 0-.84.4-.84.86v.84c0 .47.38.85.84.85.47 0 .85-.38.85-.85v-.84c0-.47-.38-.85-.85-.85"/></g><g><path fill="#c1694f" d="M22.84 15.5h-1.7c-.23 0-.42.2-.42.42v.16c0 .23.2.42.43.42h1.7c.22 0 .4-.2.4-.42v-.16c0-.23-.18-.42-.4-.42"/></g><g><path fill="#d5ab88" d="M15.44 20.06c0-1.44-.73-2.62-1.63-2.62-.9 0-1.63 1.18-1.63 2.62 0 1.45.73 2.63 1.64 2.63.9 0 1.64-1.2 1.64-2.64"/></g><g><path fill="#d5ab88" d="M31.83 20.06c0-1.44-.73-2.62-1.64-2.62-.9 0-1.64 1.18-1.64 2.62 0 1.45.73 2.63 1.63 2.63.9 0 1.63-1.2 1.63-2.64"/></g></g></g><g><g fill="#269" clip-path="url(#b)" transform="matrix(1.25 0 0 -1.25 0 45)"><path d="M31 0h-3v9h3V0z"/><path d="M16 0h-3v9h3V0z"/></g></g><g><g clip-path="url(#c)" transform="matrix(1.25 0 0 -1.25 0 45)"><path fill="#269" d="M31 1.5H13V0h18v1.5z"/><g><path fill="#c1694f" d="M7 4.25c0 .7-.56 1.25-1.25 1.25-.7 0-1.25-.56-1.25-1.25V0H7v4.25z"/></g><g><path fill="#66757f" d="M10 13.25C10 10.9 8.1 9 5.75 9S1.5 10.9 1.5 13.25c0 .1-1.5.08-1.5 0C0 10.07 2.57 7.5 5.75 7.5c3.17 0 5.75 2.57 5.75 5.75 0 .08-1.5.1-1.5 0"/></g><g><path fill="#66757f" d="M1.5 13.25c0-.4-.34-.75-.75-.75-.4 0-.75.34-.75.75v8.5c0 .4.34.75.75.75.4 0 .75-.34.75-.75v-8.5z"/></g><g><path fill="#66757f" d="M11.5 13.25c0-.4-.34-.75-.75-.75-.4 0-.75.34-.75.75v8.5c0 .4.34.75.75.75.4 0 .75-.34.75-.75v-8.5z"/></g><g><path fill="#66757f" d="M6.5 5c0-.4-.34-.75-.75-.75-.4 0-.75.34-.75.75v16.75c0 .4.34.75.75.75.4 0 .75-.34.75-.75V5z"/></g><g><path fill="#c1694f" d="M30 27.2c0-1.32-3.1-2.2-8-2.2s-8 .88-8 2.2c0 3.55 4 8.8 5.33 8.8 1.34 0 2.23-1.76 2.67-1.76.44 0 1.33 1.76 2.67 1.76C26 36 30 30.75 30 27.2"/></g><g><path fill="#c1694f" d="M36 28c0-1.66-3.5-6-14-6S8 26.34 8 28c0 1.66 6.82 1 14 1s14 .66 14-1"/></g><g><path fill="#292f33" d="M30 27.2c0-1.32-3.1-2.2-8-2.2s-8 .88-8 2.2c0 .57.1 1.18.28 1.8 2.4-2 13.05-2 15.44 0 .18-.63.28-1.24.28-1.8"/></g></g></g></g></svg>