<svg xmlns="http://www.w3.org/2000/svg" viewBox="0 0 45 45" enable-background="new 0 0 45 45"><defs><clipPath id="a"><path d="M0 36h36V0H0v36z"/></clipPath><clipPath id="b"><path d="M14 10c-3.3 0-6-2.7-6-6V0h28v4c0 3.3-2.7 6-6 6H14z"/></clipPath><clipPath id="c"><path d="M0 36h36V0H0v36z"/></clipPath></defs><g><g><g clip-path="url(#a)" transform="matrix(1.25 0 0 -1.25 0 45)"><g><path fill="#dd2e44" d="M36 0v4c0 3.3-2.7 6-6 6H14c-3.3 0-6-2.7-6-6V0h28z"/></g></g></g><g><g clip-path="url(#b)" transform="matrix(1.25 0 0 -1.25 0 45)"><g><path fill="#292f33" d="M15.68 11.5l4.82-12H7.38l-.2 11 8.5 1z"/></g><g><path d="M15 12l-2-6 3-1-2-3 4-5S7.18-2.5 7.18-2v14H15z"/></g><g><path fill="#ccd6dd" d="M7.68-1.7c1.05-.23 5.18-.54 9.24-.75l-3.54 4.42 1.84 2.76-2.85.95 1.94 5.82H7.7V-1.7zm11.4-1.85l-1.1.05c-11.3.52-11.3.95-11.3 1.5v14.5h9l-2.05-6.18 3.15-1.05-2.16-3.24 4.46-5.58z"/></g><g><path fill="#292f33" d="M28.5 11L23.68-1H36.8l.2 11-8.5 1z"/></g><g><path d="M29.5 11.5l1.5-6-3-1 2-3L26-3s11 .1 11 .6v14l-7.5-.1z"/></g><g><path fill="#ccd6dd" d="M28.78 4.23l1.85-2.77-3.5-3.95c4.1.07 8.28.22 9.37.42V11.1l-6.36-.1 1.46-5.83-2.82-.94zm-3.9-7.74l4.5 5.04-2.16 3.23 3.18 1.06L28.86 12l8.64.1V-2.4c0-.58 0-1-11.5-1.1h-1.12z"/></g></g></g><g><g clip-path="url(#c)" transform="matrix(1.25 0 0 -1.25 0 45)"><g><path fill="#af7e57" d="M18.18 10s.5-3.5 4-3.5 4 3.5 4 3.5v4h-8v-4z"/></g><g><path fill="#9b6a49" d="M18.18 12c1.22-1.37 2.36-1.72 4-1.72 1.64 0 2.78.35 4 1.72v4h-8v-4z"/></g><g><path fill="#af7e57" d="M15.63 22.06c0-1.44-.74-2.62-1.64-2.62-.92 0-1.65 1.18-1.65 2.62 0 1.45.73 2.63 1.64 2.63.9 0 1.63-1.2 1.63-2.64"/></g><g><path fill="#af7e57" d="M32 22.06c0-1.44-.72-2.62-1.62-2.62-.9 0-1.64 1.18-1.64 2.62 0 1.45.73 2.63 1.64 2.63.9 0 1.63-1.2 1.63-2.64"/></g><g><path fill="#af7e57" d="M13.66 21.04c0 5.6 3.82 10.12 8.52 10.12 4.7 0 8.52-4.53 8.52-10.12 0-5.6-3.8-10.12-8.52-10.12-4.7 0-8.52 4.53-8.52 10.12"/></g><g><path fill="#915a34" d="M22.18 14.2c-2.75 0-3.6.7-3.74.85-.26.25-.26.67 0 .92.25.25.65.26.9.03.05-.04.72-.5 2.84-.5 2.2 0 2.84.5 2.84.5.26.25.66.24.92-.02.25-.25.24-.68-.02-.93-.14-.15-.98-.85-3.74-.85"/></g><g><path fill="#60352a" d="M22.18 34.52c5.65 0 9.18-4.17 9.18-7.64 0-3.47-.7-4.86-1.4-3.47-.72 1.4-1.42 2.78-1.42 2.78s-4.24 0-5.65 1.4c0 0 2.1-4.17-2.13 0 0 0 .7-2.78-3.53.7 0 0-2.12-1.4-2.82-4.87-.2-.96-1.42 0-1.42 3.48 0 3.47 2.83 7.64 9.18 7.64"/></g><g><path fill="#60352a" d="M18.18 21c-.55 0-1 .45-1 1v1c0 .55.45 1 1 1s1-.45 1-1v-1c0-.55-.45-1-1-1"/></g><g><path fill="#60352a" d="M26.18 21c-.55 0-1 .45-1 1v1c0 .55.45 1 1 1s1-.45 1-1v-1c0-.55-.45-1-1-1"/></g><g><path fill="#915a34" d="M22.93 18.25h-1.5c-.4 0-.75.34-.75.75 0 .4.34.75.75.75h1.5c.4 0 .75-.34.75-.75 0-.4-.34-.75-.75-.75"/></g><g><path fill="#939598" d="M15 14.6c0-1.9-1.54-3.45-3.44-3.45S8.12 12.7 8.12 14.6s1.54 3.43 3.44 3.43S15 16.5 15 14.6"/></g><g><path fill="#58595b" d="M13.4 11.27c-.16-.17-.44-.17-.6 0l-4.57 4.56c-.16.17-.16.44 0 .6l.6.62c.18.17.45.17.62 0L14 12.48c.18-.16.18-.44 0-.6l-.6-.6z"/></g><g><path fill="#414042" d="M1.03 3.25c.7-.42 1.7-.3 2.43.32l6.86 6.27c.42.36.44.97.05 1.36L8.2 13.36c-.38.4-1 .37-1.35-.05L.7 6.35c-.6-.7-.74-1.68-.36-2.37"/></g><g><path fill="#55acee" d="M2 22.72v-4.06c0 .04-.32.06-.5.06-.83 0-1.5-.44-1.5-1 0-.55.67-1 1.5-1s1.5.45 1.5 1v3.06l2-1.1v-2.52c0 .04-.07.06-.25.06-.83 0-1.38-.44-1.38-1 0-.55.5-1.04 1.32-1.1C6 15 6 16 6 16v4.5l-4 2.22z"/></g><g><path fill="#55acee" d="M9 26v-3.84c-.16.04-.32.06-.5.06-.83 0-1.5-.44-1.5-1 0-.55.67-1 1.5-1s1.5.45 1.5 1V26H9z"/></g><path fill="#414042" d="M4.46 7.5h2V0h-2v7.5z"/></g></g></g></svg>