<svg xmlns="http://www.w3.org/2000/svg" viewBox="0 0 45 45" enable-background="new 0 0 45 45"><defs><clipPath id="a"><path d="M0 36h36V0H0v36z"/></clipPath></defs><g><g><g clip-path="url(#a)" transform="matrix(1.25 0 0 -1.25 0 45)"><g><path fill="#e1e8ed" d="M35 0v3.5C35 6.8 31.3 9 28 9H16c-3.3 0-7-2.2-7-5.5V0h26z"/></g><g><path fill="#269" d="M18 9h8l-4-9-4 9z"/></g><g><path fill="#0b0200" d="M21.95 30.93c4.1 0 10.94-2.05 10.94-10.95 0-8.9 0-10.94-2.06-10.94-2.05 0-4.8 2.05-8.9 2.05-4.1 0-6.78-2.06-8.9-2.06-2.28 0-2.04 8.2-2.04 10.94 0 8.9 6.84 10.95 10.95 10.95"/></g><g><path fill="#7c533e" d="M18.33 8.98C19.8 7.92 21.3 8 22 8c.7 0 2.2-.08 3.66.98v3.2h-7.33V9z"/></g><g><path fill="#664131" d="M18.32 10.82c1.02-1.15 2.3-1.47 3.67-1.47s2.64.32 3.66 1.47v2.94h-7.34v-2.94z"/></g><g><path fill="#7c533e" d="M13.73 20.28c0 5.84 3.68 10.57 8.2 10.57 4.55 0 8.22-4.73 8.22-10.57 0-5.83-3.67-10.28-8.2-10.28-4.54 0-8.22 4.45-8.22 10.28"/></g><g><path fill="#df1f32" d="M21.95 12.46c-1.6 0-2.45.8-2.54.88-.26.27-.26.7 0 .97.27.27.7.28.97.02.03-.04.55-.5 1.58-.5s1.55.48 1.57.5c.28.25.7.24.96-.02.26-.27.26-.7 0-.96-.1-.1-.93-.88-2.53-.88"/></g><g><path fill="#0b0200" d="M11.73 17c-.03 1-.05.22-.05.47 0 3.42 2.05-.5 2.05 1.94 0 2.45 1.37 2.7 2.74 4.06.7.68 2.05 2.03 2.05 2.03s3.42-2.08 6.16-2.08 5.48-1.38 5.48-4.1c0-2.75 2.05 1.57 2.05-1.85 0-.24 0 .53-.03-.47h.72c0 2 0 1.92 0 3.2 0 8.9-6.85 10.73-10.96 10.73-4.1 0-10.94-1.78-10.94-10.67 0-.8-.02-1.26 0-3.26h.73z"/></g><g><path d="M18.6 18.1c-.46 0-.84.4-.84.86v.84c0 .47.38.85.85.85s.86-.38.86-.85v-.84c0-.47-.4-.85-.85-.85"/></g><g><path d="M25.37 18.1c-.46 0-.84.4-.84.86v.84c0 .47.38.85.84.85.47 0 .85-.38.85-.85v-.84c0-.47-.38-.85-.85-.85"/></g><g><path fill="#3d2e24" d="M22.84 15.5h-1.7c-.23 0-.42.2-.42.42v.16c0 .23.2.42.43.42h1.7c.22 0 .4-.2.4-.42v-.16c0-.23-.18-.42-.4-.42"/></g><g><path fill="#ccd6dd" d="M32.5 24s-3-1-10.5-1-10.5 1-10.5 1v6h21v-6z"/></g><g><path fill="#99aab5" d="M14 25c0-.28-.22-.5-.5-.5s-.5.22-.5.5v3c0 .28.22.5.5.5s.5-.22.5-.5v-3z"/></g><g><path fill="#99aab5" d="M31 25c0-.28-.22-.5-.5-.5s-.5.22-.5.5v3c0 .28.22.5.5.5s.5-.22.5-.5v-3z"/></g><g><path fill="#99aab5" d="M18 24.5c0-.28-.22-.5-.5-.5s-.5.22-.5.5v3c0 .28.22.5.5.5s.5-.22.5-.5v-3z"/></g><g><path fill="#99aab5" d="M22.5 24.25c0-.28-.22-.5-.5-.5s-.5.22-.5.5v3c0 .28.22.5.5.5s.5-.22.5-.5v-3z"/></g><g><path fill="#99aab5" d="M27 24.5c0-.28-.22-.5-.5-.5s-.5.22-.5.5v3c0 .28.22.5.5.5s.5-.22.5-.5v-3z"/></g><g><path fill="#e1e8ed" d="M28.25 36c-1.16 0-2.24-.32-3.17-.87-.93.55-2 .87-3.16.87-1.13 0-2.18-.3-3.1-.82-.9.52-1.95.82-3.07.82-3.45 0-6.25-2.8-6.25-6.25s11.3-3.25 12.42-3.25c1.15 0 12.58-.2 12.58 3.25S31.7 36 28.25 36"/></g><g><path fill="#c1694f" d="M10 11.25C10 7.8 7.98 6 5.5 6 3 6 1 7.8 1 11.25s2 7.25 4.5 7.25c2.48 0 4.5-3.8 4.5-7.25"/></g><path fill="#c1694f" d="M6.5 0h-2v8h2V0z"/><g><path fill="#7c533e" d="M15.44 20.06c0-1.44-.73-2.62-1.63-2.62-.9 0-1.63 1.18-1.63 2.62 0 1.45.73 2.63 1.64 2.63.9 0 1.64-1.2 1.64-2.64"/></g><g><path fill="#7c533e" d="M31.83 20.06c0-1.44-.73-2.62-1.64-2.62-.9 0-1.64 1.18-1.64 2.62 0 1.45.73 2.63 1.63 2.63.9 0 1.63-1.2 1.63-2.64"/></g><g><path fill="#ccd6dd" d="M14.9 31.5c.03 0 .07 0 .1 0 .23 0 .44.16.5.4.02.14.32 1.44 1.3 2.2.77.6 1.76 1 2.02 1.1-.4.22-.83.4-1.27.53-.43-.2-.92-.5-1.36-.84-1.24-.97-1.62-2.5-1.7-2.8-.05-.26.12-.53.4-.6"/></g><g><path fill="#ccd6dd" d="M27.05 34.1c1-.77 1.3-2.07 1.32-2.2.05-.25.26-.4.5-.4.02 0 .06 0 .1 0 .26.06.44.33.38.6-.07.3-.44 1.82-1.68 2.78-.43.34-.9.6-1.3.8-.44-.13-.86-.3-1.25-.53.34-.13 1.23-.5 1.93-1.05"/></g></g></g></g></svg>