<svg xmlns="http://www.w3.org/2000/svg" viewBox="0 0 45 45" enable-background="new 0 0 45 45"><defs><clipPath id="a"><path d="M0 0h36v36H0V0z"/></clipPath></defs><g><g><g clip-path="url(#a)" transform="matrix(1.25 0 0 -1.25 0 45)"><g><path fill="#77b255" d="M30 8h-3.64v3.7h-8.72V8H14c-3.3 0-6-2.7-6-6V0h28v2c0 3.3-2.69 6-6 6"/></g><g><path fill="#9b6a49" d="M17.63 10.03c1.22-1.38 2.73-1.75 4.37-1.75 1.63 0 3.14.37 4.36 1.75v3.5h-8.73v-3.5z"/></g><g><path fill="#af7e57" d="M15.44 20.06c0-1.44-.73-2.62-1.63-2.62-.9 0-1.63 1.18-1.63 2.62 0 1.45.73 2.63 1.64 2.63.9 0 1.64-1.2 1.64-2.64"/></g><g><path fill="#af7e57" d="M31.83 20.06c0-1.44-.73-2.62-1.64-2.62-.9 0-1.64 1.18-1.64 2.62 0 1.45.73 2.63 1.63 2.63.9 0 1.63-1.2 1.63-2.64"/></g><g><path fill="#af7e57" d="M13.48 19.04c0 5.6 3.8 10.12 8.52 10.12 4.7 0 8.52-4.53 8.52-10.12 0-5.6-3.8-10.12-8.52-10.12-4.7 0-8.52 4.53-8.52 10.12"/></g><g><path fill="#60352a" d="M26.53 14.65l-1.27.28c-.4.1-1.18.07-1.54.07h-3.69c-.36 0-1.13.02-1.53-.07l-1.27-.28c-.35-.1-.55-.4-.45-.74.08-.27.35-.43.63-.43.07 0 .13.03.2.05l1.26.37c-.15-.2-.18-.46-.07-.7.1-.22.34-.35.58-.35.1 0 .2.03.3.07l1.03.52c.03-.22.14-.4.35-.52.1-.04.2-.07.3-.07.24 0 .47.14.58.37l.07.13-.05-.13c.1-.23.22-.37.46-.37.1 0 .2.03.3.07.2.1.33.3.35.52l1.03-.52c.1-.04.2-.07.3-.07.24 0 .47.13.58.36.12.24.08.5-.06.7l1.26-.38c.06-.02.13-.05.18-.05.3 0 .55.16.63.44.1.36-.1.65-.44.75"/></g><g><path fill="#60352a" d="M22 32.52c5.65 0 9.18-4.17 9.18-7.64 0-3.47-.7-4.86-1.4-3.47-.72 1.4-1.43 2.78-1.43 2.78s-4.23 0-5.64 1.4c0 0 2.12-4.17-2.1 0 0 0 .7-2.78-3.54.7 0 0-2.12-1.4-2.83-4.87-.2-.96-1.4 0-1.4 3.48 0 3.47 2.82 7.64 9.17 7.64"/></g><g><path fill="#60352a" d="M18 19c-.55 0-1 .45-1 1v1c0 .55.45 1 1 1s1-.45 1-1v-1c0-.55-.45-1-1-1"/></g><g><path fill="#60352a" d="M26 19c-.55 0-1 .45-1 1v1c0 .55.45 1 1 1s1-.45 1-1v-1c0-.55-.45-1-1-1"/></g><g><path fill="#915a34" d="M22.75 16.25h-1.5c-.4 0-.75.34-.75.75 0 .4.34.75.75.75h1.5c.4 0 .75-.34.75-.75 0-.4-.34-.75-.75-.75"/></g><g><path fill="#66757f" d="M24.75 35.12s-2.2-1-2.75-2.75c-.53-1.75.2-.6.92 0 .73.58 2.03 1.6 2.75 1.83.72.22-.22.92-.92.92"/></g><g><path fill="#66757f" d="M23.84 33.74c5.13 0 8.7-1.97 9.17-4.13.53-2.35-.92-2.52-.92-2.52s-.13-1.34-1-1.1c-1.42.38-4.4.43-9.92.88-5.5.46-7.95.05-7.95.05s-.9.1-.93.95c-.04.86-1.1-.16-1.27.85-.18 1 5.6 5.04 12.84 5.04"/></g><g><path fill="#d99e82" d="M27.47 0c-.28 3.87-4.1 7.95-9.64 9.88-6.7 2.32-13.38.6-14.92-3.82C2.25 4.12 2.66 2 3.9 0h23.57z"/></g><g><path fill="#5c913b" d="M19.78 4.62c-.3-.86.37-1.88 1.48-2.27 1.12-.38 2.27 0 2.57.87.3.86-.37 1.87-1.48 2.26-1.12.4-2.27 0-2.57-.86"/></g><g><path fill="#269" d="M5.4 3c-.3-.86.36-1.88 1.48-2.26 1.12-.4 2.27 0 2.57.86.3.86-.37 1.87-1.48 2.26-1.12.4-2.27 0-2.57-.86"/></g><g><path fill="#dd2e44" d="M7.25 7.98c-.3-.86.36-1.88 1.48-2.26 1.12-.4 2.26 0 2.56.86.3.86-.37 1.87-1.5 2.26-1.1.4-2.25 0-2.55-.86"/></g><g><path fill="#ffcc4d" d="M14.28 8c-.28-.88.42-1.87 1.55-2.22 1.13-.35 2.26.07 2.53.94.28.87-.42 1.86-1.55 2.22-1.12.35-2.25-.07-2.52-.94"/></g><g><path fill="#af7e57" d="M1 6c.08 1.2 1.4 3.18 3 3 1.67-.2.13-3.13 0-4-.13-.87.14-2.94-1-3C1.45 1.92.86 3.8 1 6"/></g></g></g></g></svg>