<svg xmlns="http://www.w3.org/2000/svg" viewBox="0 0 45 45" enable-background="new 0 0 45 45"><defs><clipPath id="a"><path d="M0 0h36v36H0V0z"/></clipPath><clipPath id="b"><path d="M0 36h36V0H0v36z"/></clipPath></defs><g><g><g clip-path="url(#a)" transform="matrix(1.25 0 0 -1.25 0 45)"><g><path fill="#ffdc5d" d="M43 16c0-6.63-5.37-12-12-12S19 9.37 19 16s5.37 12 12 12 12-5.37 12-12"/></g><g><path fill="#ffac33" d="M30 29.3c-8.44 0-11.7-5.72-9.33-8.3 1.4-1.55 7.4-1.75 8.33.5 6.52-1.17 11.6-5.62 12.37-11.07.03-.22.2-.4.43-.43.02 0 .04 0 .07 0 .2 0 .37.1.45.3.78 1.74 1.18 3.6 1.18 5.5 0 7.44-6.06 13.48-13.5 13.5"/></g><g><path fill="#ffac33" d="M19.4 22.9s1-2.7 4.68-4.1c3.7-1.4 9.12-.3 9.12-.3s-5.53 8.88-13.8 4.4"/></g><g><path fill="#642116" d="M26 13.5c-1.98 0-2.5 1.64-2.5 2.5 0 .28.22.5.5.5.27 0 .5-.22.5-.5 0-.25.1-1.5 1.5-1.5.28 0 .5-.22.5-.5s-.22-.5-.5-.5"/></g><g><path fill="#642116" d="M31 13.5c-1.98 0-2.5 1.64-2.5 2.5 0 .28.22.5.5.5.27 0 .5-.22.5-.5 0-.25.1-1.5 1.5-1.5.28 0 .5-.22.5-.5s-.22-.5-.5-.5"/></g><g><path fill="#642116" d="M26 6.5c-.6 0-1.5.4-1.5 1.5 0 .44.14.77.35 1-.2.23-.35.56-.35 1 0 1.1.9 1.5 1.5 1.5.28 0 .5-.22.5-.5 0-.27-.22-.5-.5-.5-.23 0-.5-.1-.5-.5s.27-.5.5-.5c.28 0 .5-.23.5-.5s-.22-.5-.5-.5c-.23 0-.5-.1-.5-.5s.27-.5.5-.5c.28 0 .5-.23.5-.5 0-.28-.23-.5-.5-.5"/></g><g><path fill="#ffdc5d" d="M-7 15.94c0-6.63 5.37-12 12-12s12 5.37 12 12c0 6.62-5.37 12-12 12s-12-5.38-12-12"/></g><g><path fill="#ffac33" d="M6 29.23c8.44 0 11.7-5.7 9.33-8.3-1.4-1.54-7.4-1.74-8.33.5-6.52-1.16-11.6-5.6-12.37-11.06-.03-.22-.2-.4-.43-.43-.02 0-.04 0-.06 0-.2 0-.38.1-.46.3-.78 1.74-1.18 3.6-1.18 5.5 0 7.44 6.06 13.48 13.5 13.5"/></g><g><path fill="#ffac33" d="M16.57 22.92s-.95-2.7-4.62-4.16c-3.68-1.45-9.12-.4-9.12-.4s5.42 8.95 13.74 4.56"/></g><g><path fill="#642116" d="M10 13.44c1.98 0 2.5 1.63 2.5 2.5 0 .27-.22.5-.5.5-.27 0-.5-.23-.5-.5 0-.25-.1-1.5-1.5-1.5-.28 0-.5-.23-.5-.5 0-.28.22-.5.5-.5"/></g><g><path fill="#642116" d="M5 13.44c1.98 0 2.5 1.63 2.5 2.5 0 .27-.22.5-.5.5-.27 0-.5-.23-.5-.5 0-.25-.1-1.5-1.5-1.5-.28 0-.5-.23-.5-.5 0-.28.22-.5.5-.5"/></g><g><path fill="#642116" d="M10 6.44c.6 0 1.5.4 1.5 1.5 0 .44-.14.76-.35 1 .2.23.35.56.35 1 0 1.1-.9 1.5-1.5 1.5-.28 0-.5-.23-.5-.5 0-.28.22-.5.5-.5.23 0 .5-.1.5-.5s-.27-.5-.5-.5c-.28 0-.5-.23-.5-.5s.22-.5.5-.5c.23 0 .5-.1.5-.5s-.28-.5-.5-.5c-.28 0-.5-.23-.5-.5 0-.28.23-.5.5-.5"/></g></g></g><g><g clip-path="url(#b)" transform="matrix(1.25 0 0 -1.25 0 45)"><g><path fill="#ea596e" d="M26.54 31.3c0 2.6-2.1 4.7-4.7 4.7-1.6 0-2.98-.78-3.84-1.97-.86 1.2-2.25 1.97-3.83 1.97-2.6 0-4.7-2.1-4.7-4.7 0-.38.04-.74.12-1.08.64-4.07 5.16-8.35 8.4-9.53 3.24 1.17 7.76 5.45 8.4 9.52.1.34.14.7.14 1.07"/></g></g></g></g></svg>