<svg xmlns="http://www.w3.org/2000/svg" viewBox="0 0 45 45" enable-background="new 0 0 45 45"><defs><clipPath id="a"><path d="M0 0h36v36H0V0z"/></clipPath></defs><g><g><g clip-path="url(#a)" transform="matrix(1.25 0 0 -1.25 0 45)"><g><path fill="#e1e8ed" d="M32 0v2c0 3.3-2.7 6-6 6H10C6.7 8 4 5.3 4 2V0h28z"/></g><g><path fill="#292f33" d="M30 28.5c0-4.14-5.37-7.5-12-7.5S6 24.36 6 28.5c0 4.14 5.37 7.5 12 7.5s12-3.36 12-7.5"/></g><g><path fill="#af7e57" d="M13.64 7.9C15.38 6.63 16.5 5.94 18 5.94c1.5 0 2.62.7 4.36 1.96v3.8h-8.72V7.9z"/></g><g><path fill="#9b6a49" d="M13.63 10.03c1.22-1.38 2.73-1.75 4.37-1.75 1.63 0 3.14.37 4.36 1.75v3.5h-8.73v-3.5z"/></g><g><path fill="#af7e57" d="M11.44 20.06c0-1.44-.73-2.62-1.63-2.62-.9 0-1.63 1.18-1.63 2.62 0 1.45.73 2.63 1.64 2.63.9 0 1.64-1.2 1.64-2.64"/></g><g><path fill="#af7e57" d="M27.83 20.06c0-1.44-.73-2.62-1.64-2.62-.9 0-1.64 1.18-1.64 2.62 0 1.45.73 2.63 1.63 2.63.9 0 1.63-1.2 1.63-2.64"/></g><g><path fill="#af7e57" d="M9.48 19.04c0 5.6 3.8 10.12 8.52 10.12 4.7 0 8.52-4.53 8.52-10.12 0-5.6-3.8-10.12-8.52-10.12-4.7 0-8.52 4.53-8.52 10.12"/></g><g><path fill="#915a34" d="M18 12.2c-2.75 0-3.6.7-3.74.85-.26.25-.26.67 0 .92.25.25.64.26.9.03.05-.04.72-.5 2.84-.5 2.2 0 2.84.5 2.84.5.26.25.66.24.9-.02.27-.25.26-.68 0-.93-.14-.15-1-.85-3.74-.85"/></g><g><path fill="#60352a" d="M18 32.52c5.65 0 9.18-4.17 9.18-7.64 0-3.47-.7-4.86-1.4-3.47-.72 1.4-1.43 2.78-1.43 2.78s-4.23 0-5.64 1.4c0 0 2.12-4.17-2.1 0 0 0 .7-2.78-3.54.7 0 0-2.12-1.4-2.83-4.87-.2-.96-1.4 0-1.4 3.48 0 3.47 2.82 7.64 9.17 7.64"/></g><g><path fill="#60352a" d="M14 19c-.55 0-1 .45-1 1v1c0 .55.45 1 1 1s1-.45 1-1v-1c0-.55-.45-1-1-1"/></g><g><path fill="#60352a" d="M22 19c-.55 0-1 .45-1 1v1c0 .55.45 1 1 1s1-.45 1-1v-1c0-.55-.45-1-1-1"/></g><g><path fill="#915a34" d="M18.75 16.25h-1.5c-.4 0-.75.34-.75.75 0 .4.34.75.75.75h1.5c.4 0 .75-.34.75-.75 0-.4-.34-.75-.75-.75"/></g><g><path fill="#292f33" d="M8.5 27c0 1.1 4.25 2 9.5 2s9.5-.9 9.5-2-4.25-2-9.5-2-9.5.9-9.5 2"/></g><g><path fill="#66757f" d="M27.5 28h-19v3.45S12.46 35 18 35s9.5-3.55 9.5-3.55V28z"/></g><g><path fill="#ffac33" d="M15 31c0 2.8 1.34 1 3 1s3 1.8 3-1c0-1.66-1.34-2-3-2s-3 .34-3 2"/></g><g><path fill="#fdcb58" d="M16 31c0 1.1.9 2 2 2s2-.9 2-2-.9-2-2-2-2 .9-2 2"/></g><g><path fill="#fdcb58" d="M27.5 27h-19c-.28 0-.5.23-.5.5 0 .28.23.5.5.5h19c.28 0 .5-.22.5-.5s-.22-.5-.5-.5"/></g><g><path fill="#292f33" d="M11.58 6.94L5.65 6c-.27-.04-.53.15-.57.42l-.16 1c-.04.26.15.52.42.56l5.93.94c.27.04.52-.14.57-.4l.15-1c.04-.27-.15-.53-.42-.58"/></g><g><path fill="#fdcb58" d="M7.13 6.24l-.98-.15-.32 1.96 1 .16.3-1.98z"/></g><g><path fill="#fdcb58" d="M9.1 6.55l-.98-.15-.3 1.97.98.16.3-1.98z"/></g><g><path fill="#fdcb58" d="M11.08 6.87l-.98-.16-.32 2 1 .14.3-1.97z"/></g><g><path fill="#292f33" d="M30.35 6l-5.93.94c-.27.05-.46.3-.4.58l.14.98c.05.28.3.46.58.42l5.92-.94c.27-.04.46-.3.42-.57l-.16-.98c-.04-.27-.3-.46-.57-.4"/></g><g><path fill="#fdcb58" d="M25.9 6.7l-.98.17.3 1.97 1-.15-.32-2z"/></g><g><path fill="#fdcb58" d="M27.88 6.4l-1 .15.32 1.98 1-.16-.32-1.97z"/></g><g><path fill="#fdcb58" d="M29.85 6.08l-.98.16.3 1.98 1-.16-.32-1.98z"/></g><g><path fill="#99aab5" d="M18 5.12s3.38-2.5 4.1-2.78c.15-.06-.37 3.66-.37 3.66h-7.46s-.52-3.78-.23-3.62c.64.34 3.96 2.74 3.96 2.74"/></g><g><path fill="#292f33" d="M19.3 2.56s.4.63.54.9c.2.34.46 1.58.46 1.58L18.1 6s-.15 0-.15 0l-.18-.05-.18-.06c-.22-.08.1-.02.1-.02l-2-.84s.3-1.24.48-1.57c.16-.28.53-.9.53-.9S15.97 2 15.7 0h4.66c-.28 1.6-1.03 2.56-1.03 2.56"/></g><g><path fill="#f5f8fa" d="M13.3 9.38c.56-.57 4.7-3.4 4.7-3.4s-2.13-1.23-4.08-3.52c-.2-.23-1.55 4.62-1.6 5.7 0 .3.7 1.5.97 1.2"/></g><g><path fill="#f5f8fa" d="M22.73 9.38c-.57-.57-4.7-3.4-4.7-3.4s2.12-1.23 4.08-3.52c.2-.23 1.55 4.62 1.6 5.7 0 .3-.7 1.5-.97 1.2"/></g><g><path fill="#323a3f" d="M18.02 5.3c.4.03 1.54-.76 1.42-1.24-.46-1.82-.85-1.4-1.4-1.4-.6 0-.96-.46-1.38 1.32-.1.4.8 1.3 1.36 1.33"/></g><g><path fill="#323a3f" d="M20.05 0h-4.03s.54 2.17 2.02 2.17 2-2.17 2-2.17"/></g></g></g></g></svg>