<svg xmlns="http://www.w3.org/2000/svg" viewBox="0 0 45 45" enable-background="new 0 0 45 45"><defs><clipPath id="a"><path d="M0 36h36V0H0v36z"/></clipPath></defs><g><g><g clip-path="url(#a)" transform="matrix(1.25 0 0 -1.25 0 45)"><g><path fill="#77b255" d="M36 0v2c0 3.3-2.7 6-6 6H14c-3.3 0-6-2.7-6-6V0h28z"/></g><g><path fill="#3e721d" d="M22 2c.77 0 5 3 5 6H17c0-3 4.23-6 5-6"/></g><g><path fill="#af7e57" d="M17.64 7.96c0-2.84 8.72-2.96 8.72 0v3.75h-8.72V7.97z"/></g><g><path fill="#9b6a49" d="M17.63 10.03c1.22-1.38 2.73-1.75 4.37-1.75 1.63 0 3.14.37 4.36 1.75v3.5h-8.73v-3.5z"/></g><g><path fill="#af7e57" d="M15.44 20.06c0-1.44-.73-2.62-1.63-2.62-.9 0-1.63 1.18-1.63 2.62 0 1.45.73 2.63 1.64 2.63.9 0 1.64-1.2 1.64-2.64"/></g><g><path fill="#af7e57" d="M31.83 20.06c0-1.44-.73-2.62-1.64-2.62-.9 0-1.64 1.18-1.64 2.62 0 1.45.73 2.63 1.63 2.63.9 0 1.63-1.2 1.63-2.64"/></g><g><path fill="#af7e57" d="M13.48 19.04c0 5.6 3.8 10.12 8.52 10.12 4.7 0 8.52-4.53 8.52-10.12 0-5.6-3.8-10.12-8.52-10.12-4.7 0-8.52 4.53-8.52 10.12"/></g><g><path fill="#915a34" d="M22 12.2c-2.75 0-3.6.7-3.74.85-.26.25-.26.67 0 .92.25.25.64.26.9.03.05-.04.72-.5 2.84-.5 2.2 0 2.84.5 2.84.5.26.25.66.24.9-.02.27-.25.26-.68 0-.93-.14-.15-1-.85-3.74-.85"/></g><g><path fill="#60352a" d="M22 32.52c5.65 0 9.18-4.17 9.18-7.64 0-3.47-.7-4.86-1.4-3.47-.72 1.4-1.43 2.78-1.43 2.78s-4.23 0-5.64 1.4c0 0 2.12-4.17-2.1 0 0 0 .7-2.78-3.54.7 0 0-2.12-1.4-2.83-4.87-.2-.96-1.4 0-1.4 3.48 0 3.47 2.82 7.64 9.17 7.64"/></g><g><path fill="#60352a" d="M18 19c-.55 0-1 .45-1 1v1c0 .55.45 1 1 1s1-.45 1-1v-1c0-.55-.45-1-1-1"/></g><g><path fill="#60352a" d="M26 19c-.55 0-1 .45-1 1v1c0 .55.45 1 1 1s1-.45 1-1v-1c0-.55-.45-1-1-1"/></g><g><path fill="#915a34" d="M22.75 16.25h-1.5c-.4 0-.75.34-.75.75 0 .4.34.75.75.75h1.5c.4 0 .75-.34.75-.75 0-.4-.34-.75-.75-.75"/></g><path fill="#3b88c3" d="M16 0h-3v8h3V0z"/><path fill="#3b88c3" d="M31 0h-3v8h3V0z"/><path fill="#3b88c3" d="M31 1H13.12V0H31v1z"/><g><path fill="#c1694f" d="M30 27.2c0-1.32-3.1-2.2-8-2.2s-8 .88-8 2.2c0 3.55 4 8.8 5.33 8.8 1.34 0 2.23-1.76 2.67-1.76.44 0 1.33 1.76 2.67 1.76C26 36 30 30.75 30 27.2"/></g><g><path fill="#c1694f" d="M35.94 28c0-1.66-3.5-6-14-6s-14 4.34-14 6c0 1.66 6.82 1 14 1s14 .66 14-1"/></g><g><path fill="#292f33" d="M30 27.2c0-1.32-3.1-2.2-8-2.2s-8 .88-8 2.2c0 .57.1 1.18.28 1.8 2.4-2 13.05-2 15.44 0 .18-.63.28-1.24.28-1.8"/></g><g><path fill="#c1694f" d="M7 4.25c0 .7-.56 1.25-1.25 1.25-.7 0-1.25-.56-1.25-1.25V0H7v4.25z"/></g><g><path fill="#66757f" d="M10 13.25C10 10.9 8.1 9 5.75 9S1.5 10.9 1.5 13.25c0 .1-1.5.08-1.5 0C0 10.07 2.57 7.5 5.75 7.5c3.17 0 5.75 2.57 5.75 5.75 0 .08-1.5.1-1.5 0"/></g><g><path fill="#66757f" d="M1.5 13.25c0-.4-.34-.75-.75-.75-.4 0-.75.34-.75.75v8.5c0 .4.34.75.75.75.4 0 .75-.34.75-.75v-8.5z"/></g><g><path fill="#66757f" d="M11.5 13.25c0-.4-.34-.75-.75-.75-.4 0-.75.34-.75.75v8.5c0 .4.34.75.75.75.4 0 .75-.34.75-.75v-8.5z"/></g><g><path fill="#66757f" d="M6.5 5c0-.4-.34-.75-.75-.75-.4 0-.75.34-.75.75v16.75c0 .4.34.75.75.75.4 0 .75-.34.75-.75V5z"/></g></g></g></g></svg>