<svg xmlns="http://www.w3.org/2000/svg" viewBox="0 0 45 45" enable-background="new 0 0 45 45"><defs><clipPath id="a"><path d="M0 36h36V0H0v36z"/></clipPath></defs><g><g><g clip-path="url(#a)" transform="matrix(1.25 0 0 -1.25 0 45)"><g><path fill="#ccd6dd" d="M36 0v2c0 3.3-2.7 6-6 6H14c-3.3 0-6-2.7-6-6V0h28z"/></g><g><path fill="#f3d2a2" d="M17.64 7.96c0-2.84 8.72-2.96 8.72 0v3.75h-8.72V7.97z"/></g><g><path fill="#e2c196" d="M17.63 10.03c1.22-1.38 2.73-1.75 4.37-1.75 1.63 0 3.14.37 4.36 1.75v3.5h-8.73v-3.5z"/></g><g><path fill="#f3d2a2" d="M15.44 20.06c0-1.44-.73-2.62-1.63-2.62-.9 0-1.63 1.18-1.63 2.62 0 1.45.73 2.63 1.64 2.63.9 0 1.64-1.2 1.64-2.64"/></g><g><path fill="#f3d2a2" d="M31.83 20.06c0-1.44-.73-2.62-1.64-2.62-.9 0-1.64 1.18-1.64 2.62 0 1.45.73 2.63 1.63 2.63.9 0 1.63-1.2 1.63-2.64"/></g><g><path fill="#f3d2a2" d="M13.48 19.04c0 5.6 3.8 10.12 8.52 10.12 4.7 0 8.52-4.53 8.52-10.12 0-5.6-3.8-10.12-8.52-10.12-4.7 0-8.52 4.53-8.52 10.12"/></g><g><path fill="#c1694f" d="M22 12.2c-2.75 0-3.6.7-3.74.85-.26.25-.26.67 0 .92.25.25.64.26.9.03.05-.04.72-.5 2.84-.5 2.2 0 2.84.5 2.84.5.26.25.66.24.9-.02.27-.25.26-.68 0-.93-.14-.15-1-.85-3.74-.85"/></g><g><path fill="#ffe51e" d="M22 32.52c5.65 0 9.18-4.17 9.18-7.64 0-3.47-.7-4.86-1.4-3.47-.72 1.4-1.43 2.78-1.43 2.78s-4.23 0-5.64 1.4c0 0 2.12-4.17-2.1 0 0 0 .7-2.78-3.54.7 0 0-2.12-1.4-2.83-4.87-.2-.96-1.4 0-1.4 3.48 0 3.47 2.82 7.64 9.17 7.64"/></g><g><path fill="#662113" d="M18 19c-.55 0-1 .45-1 1v1c0 .55.45 1 1 1s1-.45 1-1v-1c0-.55-.45-1-1-1"/></g><g><path fill="#662113" d="M26 19c-.55 0-1 .45-1 1v1c0 .55.45 1 1 1s1-.45 1-1v-1c0-.55-.45-1-1-1"/></g><g><path fill="#c1694f" d="M22.75 16.25h-1.5c-.4 0-.75.34-.75.75 0 .4.34.75.75.75h1.5c.4 0 .75-.34.75-.75 0-.4-.34-.75-.75-.75"/></g><path fill="#269" d="M16 0h-3v8h3V0z"/><path fill="#269" d="M31 0h-3v8h3V0z"/><g><path fill="#269" d="M30 5H14l-.88-5H31l-1 5z"/></g><g><path fill="#3b88c3" d="M31.06 26.5c0-1.32-4.1 0-9 0s-9-1.32-9 0c0 3.55 1 8.5 9 8.5 7 0 9-4.95 9-8.5"/></g><g><path fill="#269" d="M13.1 26.5s-.5-3 1.5-3c1 0 2.5 2 7.5 2s6.5-2 7.5-2c2 0 1.5 3 1.5 3s-1.5-.5-9-.5-9 .5-9 .5"/></g><g><path fill="#55acee" d="M13.06 27s-.5-3 1.5-3c1 0 2.5 2 7.5 2s6.5-2 7.5-2c2 0 1.5 3 1.5 3s-1.5-.5-9-.5-9 .5-9 .5"/></g><g><path fill="#269" d="M20.56 34.5s0 1.5 1.5 1.5 1.5-1.5 1.5-1.5h-3z"/></g><g><path fill="#f5f8fa" d="M30 2.25C30 1.55 29 1 27.75 1c-1.24 0-2.25.56-2.25 1.25 0 .7 1 1.25 2.25 1.25C29 3.5 30 2.94 30 2.25"/></g><g><path fill="#66757f" d="M7 16.52v-4.4c0-.56-1-1-2.25-1.02-1.24 0-2.25.45-2.25 1v4.4C1 15.7 0 14.16 0 12.35 0 9.72 2.14 7.6 4.76 7.6c2.63 0 4.75 2.14 4.74 4.77 0 1.8-1.03 3.35-2.5 4.15"/></g><path fill="#66757f" d="M6.25 0h-3v8.6h3V0z"/></g></g></g></svg>