<svg xmlns="http://www.w3.org/2000/svg" viewBox="0 0 45 45" enable-background="new 0 0 45 45"><defs><clipPath id="a"><path d="M0 0h36v36H0V0z"/></clipPath></defs><g><g><g clip-path="url(#a)" transform="matrix(1.25 0 0 -1.25 0 45)"><g><path fill="#e1e8ed" d="M36 0v2c0 3.3-2.7 6-6 6H14c-3.3 0-6-2.7-6-6V0h28z"/></g><g><path fill="#292f33" d="M30.2 7.93c0-1.5-3.66-2.73-8.2-2.73-4.54 0-8.2 1.22-8.2 2.73 0 1.5 3.66 2.73 8.2 2.73 4.54 0 8.2-1.23 8.2-2.73"/></g><g><path fill="#99aab5" d="M22 5.2c4.54 0 8.2 1.22 8.2 2.73 0 .02 0 .04 0 .06-.06 0-.13 0-.2 0H14c-.07 0-.14 0-.2 0 0-.03 0-.05 0-.07 0-1.5 3.66-2.73 8.2-2.73"/></g><g><path fill="#ea596e" d="M30.93 8h-1.16s.03-.07.03-.13c0-1.36-3.5-2.43-7.8-2.43s-7.8 1.06-7.8 2.42c0 .06.02.14.03.14h-.73l-.7-.1V6.88c.1-2.4 4.18-3.4 9.2-3.4 5 0 9.05 1.02 9.2 3.42v.98l-.27.12z"/></g><g><path fill="#be1931" d="M22 5.47c-4.3 0-7.8 1.1-7.8 2.46 0 1.36 3.5 2.46 7.8 2.46s7.8-1.1 7.8-2.47c0-1.36-3.5-2.46-7.8-2.46m0 5.9c-5.1 0-9.2-1.54-9.2-3.44S16.9 4.5 22 4.5s9.2 1.53 9.2 3.43c0 1.9-4.1 3.44-9.2 3.44"/></g><g><path fill="#f7dece" d="M17.64 8.06c1.74-1.26 2.85-1.5 4.36-1.5 1.5 0 2.62.24 4.36 1.5v3.8h-8.72v-3.8z"/></g><g><path fill="#eec2ad" d="M17.63 10.03c1.22-1.38 2.73-1.75 4.37-1.75 1.63 0 3.14.37 4.36 1.75v3.5h-8.73v-3.5z"/></g><g><path fill="#f7dece" d="M15.44 20.06c0-1.44-.73-2.62-1.63-2.62-.9 0-1.63 1.18-1.63 2.62 0 1.45.73 2.63 1.64 2.63.9 0 1.64-1.2 1.64-2.64"/></g><g><path fill="#f7dece" d="M31.83 20.06c0-1.44-.73-2.62-1.64-2.62-.9 0-1.64 1.18-1.64 2.62 0 1.45.73 2.63 1.63 2.63.9 0 1.63-1.2 1.63-2.64"/></g><g><path fill="#f7dece" d="M13.48 19.04c0 5.6 3.8 10.12 8.52 10.12 4.7 0 8.52-4.53 8.52-10.12 0-5.6-3.8-10.12-8.52-10.12-4.7 0-8.52 4.53-8.52 10.12"/></g><g><path fill="#c1694f" d="M22 12.2c-2.75 0-3.6.7-3.74.85-.26.25-.26.67 0 .92.25.25.64.26.9.03.05-.04.72-.5 2.84-.5 2.2 0 2.84.5 2.84.5.26.25.66.24.9-.02.27-.25.26-.68 0-.93-.14-.15-1-.85-3.74-.85"/></g><g><path fill="#292f33" d="M22 32.52c5.65 0 9.18-4.17 9.18-7.64 0-3.47-.7-4.86-1.4-3.47-.72 1.4-1.43 2.78-1.43 2.78s-4.23 0-5.64 1.4c0 0 2.12-4.17-2.1 0 0 0 .7-2.78-3.54.7 0 0-2.12-1.4-2.83-4.87-.2-.96-1.4 0-1.4 3.48 0 3.47 2.82 7.64 9.17 7.64"/></g><g><path fill="#662113" d="M18 19c-.55 0-1 .45-1 1v1c0 .55.45 1 1 1s1-.45 1-1v-1c0-.55-.45-1-1-1"/></g><g><path fill="#662113" d="M26 19c-.55 0-1 .45-1 1v1c0 .55.45 1 1 1s1-.45 1-1v-1c0-.55-.45-1-1-1"/></g><g><path fill="#c1694f" d="M22.75 16.25h-1.5c-.4 0-.75.34-.75.75 0 .4.34.75.75.75h1.5c.4 0 .75-.34.75-.75 0-.4-.34-.75-.75-.75"/></g><g><path fill="#55acee" d="M33 3V0h3v2c0 .34-.04.67-.1 1H33z"/></g><path fill="#ffcc4d" d="M36 0h-2v2h2V0z"/><g><path fill="#e1e8ed" d="M24 0c-1.2 5.15-6.04 9-11.85 9C6.35 9 1.5 5.15.3 0H24z"/></g><g><path fill="#292f33" d="M22.67 0c-1.17 4.46-5.43 7.78-10.52 7.78C7.05 7.78 2.8 4.46 1.62 0h21.05z"/></g><g><path fill="#ffac33" d="M21.64 0c-1.15 3.94-4.96 6.83-9.5 6.83-4.53 0-8.34-2.9-9.48-6.83h18.98z"/></g><g><path fill="#ffdc5d" d="M18.2.95l.1.06c.77.48.93 1.55.3 2.2-.47.48-1 .9-1.57 1.26-.56.35-1.16.63-1.78.83-.83.26-1.7-.24-1.87-1.1-.12-.66.23-1.35.86-1.58.86-.32 1.62-.82 2.23-1.47.44-.47 1.17-.53 1.73-.2"/></g><g><path fill="#9266cc" d="M6.34 21.74l-1.54.57-.6 2.2c-.08.3-.34.5-.64.5s-.57-.2-.64-.5l-.6-2.2-1.55-.56c-.26-.1-.43-.35-.43-.63 0-.27.17-.52.43-.6l1.54-.58.6-2.42c.1-.3.35-.5.66-.5.3 0 .57.2.65.5l.6 2.42 1.54.57c.27.08.44.33.44.6 0 .3-.17.54-.44.64"/></g><g><path fill="#5dadec" d="M11.28 31.37l-2.6.96-.98 2.6c-.16.45-.57.73-1.03.73-.46 0-.88-.28-1.04-.72l-.96-2.6-2.6-.97c-.45-.16-.73-.58-.73-1.04 0-.46.28-.87.72-1.03l2.6-.97.97-2.6c.16-.44.58-.73 1.04-.73.46 0 .87.3 1.03.72l.97 2.6 2.6.98c.44.16.73.57.73 1.03 0 .46-.3.88-.72 1.04"/></g></g></g></g></svg>