<svg xmlns="http://www.w3.org/2000/svg" viewBox="0 0 45 45" enable-background="new 0 0 45 45"><defs><clipPath id="a"><path d="M0 36h36V0H0v36z"/></clipPath></defs><g><g><path fill="#aab8c2" d="M13.75 28.75H7.5v15h3.75v-10h2.5v10h3.75v-15h-3.75z"/></g><g><g clip-path="url(#a)" transform="matrix(1.25 0 0 -1.25 0 45)"><g><path fill="#292f33" d="M5 0v1s0 1 2 1 2-1 2-1V0H5z"/></g><g><path fill="#292f33" d="M11 0v1s0 1 2 1 2-1 2-1V0h-4z"/></g><g><path fill="#af7e57" d="M1 10c-.17 0-.33.04-.5.13-.47.26-.64.87-.37 1.35l5 9c.26.5.87.66 1.36.4.47-.27.64-.88.37-1.37l-5-9c-.18-.3-.52-.5-.87-.5"/></g><g><path fill="#af7e57" d="M19 10c-.35 0-.7.2-.87.52l-5 9c-.27.48-.1 1.1.38 1.35.5.27 1.1.1 1.37-.38l5-9c.27-.5.1-1.1-.38-1.37-.17-.1-.33-.13-.5-.13"/></g><g><path fill="#4289c1" d="M16 20c0 1.1-.9 2-2 2H6c-1.1 0-2-.9-2-2v-1h2v-7h8v7h2v1z"/></g><g><path fill="#af7e57" d="M8 25v-4c0-1.1.9-2 2-2s2 .9 2 2v4H8z"/></g><g><path fill="#9b6a49" d="M12 25l-4-.02V21s2-1 4 0v4z"/></g><g><path fill="#af7e57" d="M15 29c-6.22 0-7 2.4-7.04 3.5C7.87 31.4 7.33 29 5 29v-2c0-2.76 2.24-5 5-5s5 2.24 5 5v2z"/></g><g><path fill="#60352a" d="M7.96 32.5C8 31.4 8.78 29 15 29v-1.66c.63.9 1 1.98 1 3.16 0 3.04-2.46 5.5-5.5 5.5-1.2 0-2.28-.38-3.18-1.02C5.47 34.88 4 33.38 4 31.5c0-1.2.02-2.66 1-3.58V29c2.33 0 2.85 2.4 2.96 3.5"/></g><g><path fill="#915a34" d="M12 24H8s0-1 2-1 2 1 2 1"/></g><g><path fill="#60352a" d="M8 27.5c0-.28-.22-.5-.5-.5s-.5.22-.5.5.22.5.5.5.5-.22.5-.5"/></g><g><path fill="#60352a" d="M13 27.5c0-.28-.22-.5-.5-.5s-.5.22-.5.5.22.5.5.5.5-.22.5-.5"/></g><g><path fill="#915a34" d="M9 26h2s0-1-1-1-1 1-1 1"/></g><g><path fill="#67757f" d="M27 13h-5V1h3v8h2V1h3v12h-3z"/></g><g><path fill="#292f33" d="M21 0v1s0 1 2 1 2-1 2-1V0h-4z"/></g><g><path fill="#292f33" d="M27 0v1s0 1 2 1 2-1 2-1V0h-4z"/></g><g><path fill="#af7e57" d="M17 10c-.17 0-.33.04-.5.13-.47.26-.64.87-.37 1.35l5 9c.26.5.87.66 1.35.4.5-.27.66-.88.4-1.37l-5-9c-.2-.3-.53-.5-.88-.5"/></g><g><path fill="#af7e57" d="M35 10c-.35 0-.7.2-.87.52l-5 9c-.27.48-.1 1.1.38 1.35.5.27 1.1.1 1.37-.38l5-9c.27-.5.1-1.1-.4-1.37-.14-.1-.3-.13-.47-.13"/></g><g><path fill="#77b255" d="M32 20c0 1.1-.9 2-2 2h-8c-1.1 0-2-.9-2-2v-1h2v-7h8v7h2v1z"/></g><g><path fill="#af7e57" d="M24 25v-4c0-1.1.9-2 2-2s2 .9 2 2v4h-4z"/></g><g><path fill="#9b6a49" d="M28 25l-4-.02V21s2-1 4 0v4z"/></g><g><path fill="#60352a" d="M32 31.5c0 1.87-1.47 3.4-3.32 3.48-.9.64-2 1.02-3.18 1.02-3.04 0-5.5-2.46-5.5-5.5 0-1.18.37-2.26 1-3.16V29c6.22 0 7 2.4 7.04 3.5.1-1.1.63-3.5 2.96-3.5v-1.08c.98.92 1 2.37 1 3.58"/></g><g><path fill="#af7e57" d="M28.04 32.5C28 31.4 27.22 29 21 29v-2c0-2.76 2.24-5 5-5s5 2.24 5 5v2c-2.33 0-2.85 2.4-2.96 3.5"/></g><g><path fill="#915a34" d="M28 24h-4s0-1 2-1 2 1 2 1"/></g><g><path fill="#60352a" d="M24 27.5c0-.28-.22-.5-.5-.5s-.5.22-.5.5.22.5.5.5.5-.22.5-.5"/></g><g><path fill="#60352a" d="M29 27.5c0-.28-.22-.5-.5-.5s-.5.22-.5.5.22.5.5.5.5-.22.5-.5"/></g><g><path fill="#915a34" d="M25 26h2s0-1-1-1-1 1-1 1"/></g></g></g></g></svg>