<svg xmlns="http://www.w3.org/2000/svg" viewBox="0 0 45 45" enable-background="new 0 0 45 45"><defs><clipPath id="a"><path d="M0 36h36V0H0v36z"/></clipPath><clipPath id="b"><path d="M4 34c-1.1 0-2-.9-2-2V10c0-1.1.9-2 2-2h22c1.1 0 2 .9 2 2v22c0 1.1-.9 2-2 2H4z"/></clipPath><clipPath id="c"><path d="M0 36h36V0H0v36z"/></clipPath><clipPath id="d"><path d="M0 0h36v36H0V0z"/></clipPath><clipPath id="e"><path d="M0 36h36V0H0v36z"/></clipPath><clipPath id="f"><path d="M0 0h36v36H0V0z"/></clipPath></defs><g><g><g clip-path="url(#a)" transform="matrix(1.25 0 0 -1.25 0 45)"><g><path fill="#d99e82" d="M30 10c0-2.2-1.8-4-4-4H4c-2.2 0-4 1.8-4 4v22c0 2.2 1.8 4 4 4h22c2.2 0 4-1.8 4-4V10z"/></g></g></g><g><g clip-path="url(#b)" transform="matrix(1.25 0 0 -1.25 0 45)"><g><path fill="#5c913b" d="M28 10c0-1.1-.9-2-2-2H4c-1.1 0-2 .9-2 2v22c0 1.1.9 2 2 2h22c1.1 0 2-.9 2-2V10z"/></g></g></g><g><g clip-path="url(#c)" transform="matrix(1.25 0 0 -1.25 0 45)"><g><path fill="#fff" d="M10.58 27.22c.35 0 .62-.16.62-.53s-.27-.53-.57-.53H7.95c-.35 0-.62.16-.62.52 0 .16.1.3.2.4.65.8 1.37 1.5 1.98 2.4.15.2.3.45.3.74 0 .32-.26.6-.6.6-.9 0-.47-1.28-1.24-1.28-.38 0-.58.27-.58.58 0 1 .9 1.8 1.88 1.8.98 0 1.77-.63 1.77-1.65 0-1.12-1.24-2.22-1.92-3.08h1.48z"/></g><g><path fill="#fff" d="M4.1 22.83c0 .3.17.48.47.48.3 0 .48-.18.48-.47v-1.16H6.2c.3 0 .5-.2.5-.48 0-.3-.2-.5-.5-.5H5.06v-1.15c0-.3-.2-.48-.48-.48-.3 0-.48.2-.48.48v1.16H2.92c-.3 0-.48.2-.48.5 0 .28.18.47.48.47H4.1v1.16z"/></g><g><path fill="#fff" d="M10.58 20.22c.35 0 .62-.16.62-.53s-.27-.53-.58-.53H7.95c-.35 0-.62.16-.62.52 0 .16.1.3.18.4.68.8 1.4 1.5 2 2.4.15.2.28.45.28.74 0 .32-.24.6-.57.6-.9 0-.47-1.28-1.24-1.28-.38 0-.58.27-.58.58 0 1 .9 1.8 1.88 1.8.98 0 1.77-.63 1.77-1.65 0-1.12-1.24-2.22-1.92-3.08h1.48z"/></g><g><path fill="#fff" d="M11.42 17.03H3.08c-.27 0-.5.22-.5.5s.23.5.5.5h8.34c.27 0 .5-.22.5-.5s-.23-.5-.5-.5"/></g></g></g><g><g clip-path="url(#d)" transform="matrix(1.25 0 0 -1.25 0 45)"><g><path fill="#9266cc" d="M35 0v3.5C35 6.8 31.3 9 28 9H16c-3.3 0-7-2.2-7-5.5V0h26z"/></g><g><path fill="#0b0200" d="M21.94 30.93c4.1 0 10.95-2.05 10.95-10.95 0-8.9 0-10.94-2.06-10.94-2.05 0-4.8 2.05-8.9 2.05-4.1 0-6.78-2.06-8.9-2.06-2.28 0-2.04 8.2-2.04 10.94 0 8.9 6.84 10.95 10.94 10.95"/></g><g><path fill="#292f33" d="M17 9h9.88s-1.26-3.5-4.94-3.5C18.26 5.5 17 9 17 9"/></g><g><path fill="#7c533e" d="M18.33 8.98C18.33 7.5 20.5 6.5 22 6.5s3.66 1 3.66 2.48v3.2h-7.33V9z"/></g><g><path fill="#664131" d="M18.32 10.82c1.02-1.15 2.3-1.47 3.67-1.47s2.64.32 3.66 1.47v2.94h-7.34v-2.94z"/></g><g><path fill="#7c533e" d="M13.73 20.28c0 5.84 3.68 10.57 8.2 10.57 4.55 0 8.22-4.73 8.22-10.57 0-5.83-3.67-10.28-8.2-10.28-4.54 0-8.22 4.45-8.22 10.28"/></g><g><path fill="#df1f32" d="M21.94 12.46c-1.6 0-2.44.8-2.53.88-.26.27-.26.7 0 .97.27.27.7.28.97.02.03-.04.55-.5 1.57-.5 1.04 0 1.56.48 1.58.5.28.25.7.24.96-.02.26-.27.26-.7 0-.96-.1-.1-.93-.88-2.54-.88"/></g><g><path fill="#0b0200" d="M11.73 17c-.03 1-.05.22-.05.47 0 3.42 2.05-.5 2.05 1.94 0 2.45 1.37 2.7 2.74 4.06.7.68 2.05 2.03 2.05 2.03s3.42-2.08 6.16-2.08 5.48-1.38 5.48-4.1c0-2.75 2.05 1.57 2.05-1.85 0-.24 0 .53-.03-.47h.72c0 2 0 1.92 0 3.2 0 8.9-6.85 12.2-10.96 12.2-4.1 0-10.94-3.25-10.94-12.14 0-.8-.02-1.26 0-3.26h.73z"/></g><g><path d="M18.6 18.1c-.46 0-.84.4-.84.86v.84c0 .47.38.85.85.85s.86-.38.86-.85v-.84c0-.47-.4-.85-.85-.85"/></g><g><path d="M25.37 18.1c-.46 0-.84.4-.84.86v.84c0 .47.38.85.84.85.47 0 .85-.38.85-.85v-.84c0-.47-.38-.85-.85-.85"/></g><g><path fill="#3d2e24" d="M22.84 15.5h-1.7c-.23 0-.42.2-.42.42v.16c0 .23.2.42.43.42h1.7c.22 0 .4-.2.4-.42v-.16c0-.23-.18-.42-.4-.42"/></g></g></g><g><g clip-path="url(#e)" transform="matrix(1.25 0 0 -1.25 0 45)"><g><path fill="#7c533e" d="M15.44 20.06c0-1.44-.73-2.62-1.63-2.62-.9 0-1.63 1.18-1.63 2.62 0 1.45.73 2.63 1.64 2.63.9 0 1.64-1.2 1.64-2.64"/></g><g><path fill="#7c533e" d="M31.83 20.06c0-1.44-.73-2.62-1.64-2.62-.9 0-1.64 1.18-1.64 2.62 0 1.45.73 2.63 1.63 2.63.9 0 1.63-1.2 1.63-2.64"/></g></g></g><g><g clip-path="url(#f)" transform="matrix(1.25 0 0 -1.25 0 45)"><g><path fill="#744eaa" d="M22 5.78s3.38-2.5 4.1-2.78c.15-.06-.37 3.66-.37 3.66h-7.46s-.52-3.78-.23-3.63c.64.34 3.96 2.75 3.96 2.75"/></g><g><path fill="#cbb7ea" d="M17.3 10.08C17.84 9.52 22 6.7 22 6.7s-2.13-1.24-4.1-3.54c-.18-.23-1.53 4.63-1.57 5.7 0 .32.7 1.5.96 1.22"/></g><g><path fill="#cbb7ea" d="M26.73 10.08c-.57-.56-4.7-3.38-4.7-3.38s2.12-1.24 4.08-3.54c.2-.23 1.55 4.63 1.6 5.7 0 .32-.7 1.5-.97 1.22"/></g><path fill="#744eaa" d="M23 0h-2v6h2V0z"/><g><path fill="#cbb7ea" d="M23 1.5c0-.55-.45-1-1-1s-1 .45-1 1 .45 1 1 1 1-.45 1-1"/></g><g><path fill="#cbb7ea" d="M23 4.5c0-.55-.45-1-1-1s-1 .45-1 1 .45 1 1 1 1-.45 1-1"/></g></g></g></g></svg>