<?xml version="1.0" encoding="UTF-8" standalone="no"?><svg xmlns:dc="http://purl.org/dc/elements/1.1/" xmlns:cc="http://creativecommons.org/ns#" xmlns:rdf="http://www.w3.org/1999/02/22-rdf-syntax-ns#" xmlns:svg="http://www.w3.org/2000/svg" xmlns="http://www.w3.org/2000/svg" viewBox="0 0 45 45" style="enable-background:new 0 0 45 45;" xml:space="preserve" version="1.1" id="svg2"><metadata id="metadata8"><rdf:RDF><cc:Work rdf:about=""><dc:format>image/svg+xml</dc:format><dc:type rdf:resource="http://purl.org/dc/dcmitype/StillImage"/></cc:Work></rdf:RDF></metadata><defs id="defs6"><clipPath id="clipPath16" clipPathUnits="userSpaceOnUse"><path id="path18" d="M 0,36 36,36 36,0 0,0 0,36 Z"/></clipPath></defs><g transform="matrix(1.25,0,0,-1.25,0,45)" id="g10"><g id="g12"><g clip-path="url(#clipPath16)" id="g14"><g transform="translate(3.9448,22)" id="g20"><path id="path22" style="fill:#ffdc5d;fill-opacity:1;fill-rule:nonzero;stroke:none" d="m 0,0 c 0.253,-3.89 3.521,-6.969 7.5,-6.969 3.979,0 7.247,3.079 7.5,6.969 L 15,10 0,10 0,0 Z"/></g><g transform="translate(18.9448,22)" id="g24"><path id="path26" style="fill:#ffac33;fill-opacity:1;fill-rule:nonzero;stroke:none" d="m 0,0 c -0.253,-3.89 -3.521,-6.969 -7.5,-6.969 -3.979,0 -7.247,3.079 -7.5,6.969 l 0,4.337 C -9.671,4.492 -6.49,6.68 -4.763,8.518 -4.348,7.043 -3.199,5 0,5 L 0,0 Z m -3.462,13.192 c -0.333,0 -0.657,-0.034 -0.974,-0.089 C -5.607,13.672 -6.61,14 -8,14 c -4.907,0 -9,-4.093 -9,-9 l 0,-7 c 0.148,-5.224 4.241,-9.568 9.5,-9.568 5.259,0 9.352,4.344 9.5,9.568 L 2,8 c 0,3.123 -2.339,5.192 -5.462,5.192"/></g><g transform="translate(18.9448,14)" id="g28"><path id="path30" style="fill:#9268ca;fill-opacity:1;fill-rule:nonzero;stroke:none" d="m 0,0 -16,0 c -1.779,0 -1.945,-1.193 -1.945,-2.973 L -17.945,-14 3,-14 3,-2.973 C 3,-1 2,0 0,0"/></g><path id="path32" style="fill:#7450a8;fill-opacity:1;fill-rule:nonzero;stroke:none" d="m 17.973,0 -1.028,0 0,10 1.028,0 0,-10 z"/><path id="path34" style="fill:#7450a8;fill-opacity:1;fill-rule:nonzero;stroke:none" d="m 5.973,0 -1.028,0 0,10 1.028,0 0,-10 z"/><g transform="translate(8.9448,17)" id="g36"><path id="path38" style="fill:#ffdc5d;fill-opacity:1;fill-rule:nonzero;stroke:none" d="M 0,0 0,-3 C 0,-4.381 1.119,-5.5 2.5,-5.5 3.881,-5.5 5,-4.381 5,-3 L 5,0 0,0 Z"/></g><g transform="translate(8.2144,18.231)" id="g40"><path id="path42" style="fill:#da2f47;fill-opacity:1;fill-rule:nonzero;stroke:none" d="M 0,0 3.23,0 6.461,0 C 6.461,0 5.653,-1.616 3.23,-1.616 0.808,-1.616 0,0 0,0"/></g><g transform="translate(11.9448,20.5)" id="g44"><path id="path46" style="fill:#bf6952;fill-opacity:1;fill-rule:nonzero;stroke:none" d="M 0,0 -1,0 C -1.276,0 -1.5,0.224 -1.5,0.5 -1.5,0.776 -1.276,1 -1,1 L 0,1 C 0.276,1 0.5,0.776 0.5,0.5 0.5,0.224 0.276,0 0,0"/></g><g transform="translate(7.9448,23)" id="g48"><path id="path50" style="fill:#662113;fill-opacity:1;fill-rule:nonzero;stroke:none" d="m 0,0 c -0.553,0 -1,0.448 -1,1 l 0,1 C -1,2.552 -0.553,3 0,3 0.553,3 1,2.552 1,2 L 1,1 C 1,0.448 0.553,0 0,0"/></g><g transform="translate(14.9448,23)" id="g52"><path id="path54" style="fill:#662113;fill-opacity:1;fill-rule:nonzero;stroke:none" d="m 0,0 c -0.553,0 -1,0.448 -1,1 l 0,1 C -1,2.552 -0.553,3 0,3 0.553,3 1,2.552 1,2 L 1,1 C 1,0.448 0.553,0 0,0"/></g><g transform="translate(28.001,1)" id="g56"><path id="path58" style="fill:#ffdc5d;fill-opacity:1;fill-rule:nonzero;stroke:none" d="m 0,0 0,4 -4,0 0,-4 -1,0 0,-1 6,0 0,1 -1,0 z"/></g><g transform="translate(31.001,3)" id="g60"><path id="path62" style="fill:#88c9f9;fill-opacity:1;fill-rule:nonzero;stroke:none" d="m 0,0 -3,0 -2,-3 8.817,0 C 3.301,-1.398 1.659,0 0,0"/></g><g transform="translate(17.187,0)" id="g64"><path id="path66" style="fill:#88c9f9;fill-opacity:1;fill-rule:nonzero;stroke:none" d="m 0,0 3.759,0 5.055,0 -2,3 -2,0 C 4.447,3 4.095,2.969 3.759,2.912 1.818,2.586 0.458,1.377 0,0"/></g><g transform="translate(32.9951,9.9531)" id="g68"><path id="path70" style="fill:#ffdc5d;fill-opacity:1;fill-rule:nonzero;stroke:none" d="m 0,0 c 0,0.016 -0.002,0.031 -0.002,0.047 l 0.008,0 0,6 -3.557,0 c -1.017,0.574 -2.192,0.906 -3.446,0.906 -1.254,0 -2.428,-0.332 -3.446,-0.906 l -3.551,0 0,-6 0.003,0 c 0,-0.016 -0.003,-0.031 -0.003,-0.047 0,-0.145 0.013,-0.286 0.021,-0.429 0.225,-3.638 3.257,-6.524 6.976,-6.524 3.384,0 6.206,2.387 6.855,5.557 C -0.049,-0.944 0,-0.478 0,0"/></g><g transform="translate(34.335,13.1387)" id="g72"><path id="path74" style="fill:#f4900c;fill-opacity:1;fill-rule:nonzero;stroke:none" d="m 0,0 c 0,4.342 -3.52,7.861 -7.861,7.861 -1.245,0 -2.417,-0.297 -3.464,-0.812 -3.33,-0.07 -6.009,-2.786 -6.009,-6.133 0,-1.801 0.786,-3.408 2.021,-4.53 -0.008,0.142 -0.021,0.284 -0.021,0.428 0,0.016 0.003,0.032 0.003,0.047 l -0.003,0 0,3.035 c 4.856,0.181 7.656,1.811 9.204,3.333 1.066,-1.257 2.766,-2.842 4.796,-3.257 l 0,-3.111 -0.008,0 c 0,-0.015 0.002,-0.031 0.002,-0.047 0,-0.477 -0.049,-0.944 -0.141,-1.395 C -0.553,-3.29 0,-1.711 0,0"/></g><g transform="translate(29.001,6)" id="g76"><path id="path78" style="fill:#bf6952;fill-opacity:1;fill-rule:nonzero;stroke:none" d="m 0,0 -3,0 -3,0 c 0,0 0.583,-2 3,-2 2.417,0 3,2 3,2"/></g><g transform="translate(26.001,6.5)" id="g80"><path id="path82" style="fill:#bf6952;fill-opacity:1;fill-rule:nonzero;stroke:none" d="m 0,0 c -0.13,0 -0.26,0.05 -0.35,0.15 -0.1,0.09 -0.15,0.22 -0.15,0.35 0,0.13 0.05,0.26 0.15,0.36 C -0.18,1.03 0.17,1.04 0.36,0.851 0.45,0.76 0.5,0.63 0.5,0.5 0.5,0.37 0.45,0.24 0.35,0.15 0.26,0.05 0.13,0 0,0"/></g><g transform="translate(23.001,8)" id="g84"><path id="path86" style="fill:#662113;fill-opacity:1;fill-rule:nonzero;stroke:none" d="m 0,0 c -0.552,0 -1,0.447 -1,1 l 0,1 C -1,2.553 -0.552,3 0,3 0.553,3 1,2.553 1,2 L 1,1 C 1,0.447 0.553,0 0,0"/></g><g transform="translate(29.001,8)" id="g88"><path id="path90" style="fill:#662113;fill-opacity:1;fill-rule:nonzero;stroke:none" d="m 0,0 c -0.553,0 -1,0.447 -1,1 l 0,1 C -1,2.553 -0.553,3 0,3 0.553,3 1,2.553 1,2 L 1,1 C 1,0.447 0.553,0 0,0"/></g></g></g></g></svg>
