<svg xmlns="http://www.w3.org/2000/svg" viewBox="0 0 45 45" enable-background="new 0 0 45 45"><defs><clipPath id="a"><path d="M0 0h36v36H0V0z"/></clipPath></defs><g><g><path fill="#ffdc5d" d="M6.25 27.5v-5h6.25v5H15V35H3.75v-7.5h2.5z"/></g><g><g clip-path="url(#a)" transform="matrix(1.25 0 0 -1.25 0 45)"><g><path fill="#ffac33" d="M8.14 36c-1.34 0-2.6-.3-3.74-.84-.2.02-.4.03-.6.03-3.94 0-7.13-3.2-7.13-7.15 0-3.12 2-5.77 4.8-6.73 1.63-1.86 4-3.04 6.67-3.04 4.9 0 8.86 3.97 8.86 8.86 0 4.9-3.97 8.86-8.86 8.86"/></g><g><path fill="#ffdc5d" d="M0 32V22h.02c.26-3.9 3.5-6.97 7.48-6.97 3.98 0 7.25 3.08 7.5 6.97v9L0 32z"/></g><g><path fill="#bf6952" d="M10.72 18.28H4.28s.8-1.6 3.22-1.6 3.22 1.6 3.22 1.6"/></g><g><path fill="#662113" d="M4 23c-.55 0-1 .45-1 1v1c0 .55.45 1 1 1s1-.45 1-1v-1c0-.55-.45-1-1-1"/></g><g><path fill="#662113" d="M11 23c-.55 0-1 .45-1 1v1c0 .55.45 1 1 1s1-.45 1-1v-1c0-.55-.45-1-1-1"/></g><g><path fill="#bf6952" d="M8 20.5H7c-.28 0-.5.22-.5.5s.22.5.5.5h1c.28 0 .5-.22.5-.5s-.22-.5-.5-.5"/></g><g><path fill="#ffac33" d="M27.9 36c1.34 0 2.6-.3 3.74-.84.2.02.4.03.6.03 3.94 0 7.14-3.2 7.14-7.15 0-3.12-2-5.77-4.8-6.73-1.63-1.86-4.02-3.04-6.68-3.04-4.9 0-8.86 3.97-8.86 8.86 0 4.9 3.97 8.86 8.86 8.86"/></g><g><path fill="#ffdc5d" d="M26 14v4h5v-4h2V8h-9v6h2z"/></g><g><path fill="#ffdc5d" d="M36 32V22h-.02c-.26-3.9-3.5-6.97-7.48-6.97-3.98 0-7.22 3.08-7.48 6.97L21 32h15z"/></g><g><path fill="#ffac33" d="M35.86 26H37l-.14 6-4 1-12-1-1-6c6.07 0 9.55 2.58 11.36 4.6.56-1.77 1.9-4.6 4.64-4.6"/></g><g><path fill="#bf6952" d="M25.28 18.28h6.44s-.8-1.6-3.22-1.6-3.22 1.6-3.22 1.6"/></g><g><path fill="#662113" d="M32 23c.55 0 1 .45 1 1v1c0 .55-.45 1-1 1s-1-.45-1-1v-1c0-.55.45-1 1-1"/></g><g><path fill="#662113" d="M25 23c.55 0 1 .45 1 1v1c0 .55-.45 1-1 1s-1-.45-1-1v-1c0-.55.45-1 1-1"/></g><g><path fill="#bf6952" d="M28 20.5h1c.28 0 .5.22.5.5s-.22.5-.5.5h-1c-.28 0-.5-.22-.5-.5s.22-.5.5-.5"/></g><g><path fill="#3b93d9" d="M15 14h-5l-2.47-3.78L5 14h-6c-1.78 0-1.95-1.2-1.95-2.97V0H18v11.03C18 13 17 14 15 14"/></g><g><path fill="#3b93d9" d="M21 14h5l2.47-3.78L31 14h6c1.78 0 1.95-1.2 1.95-2.97V0H18v11.03C18 13 19 14 21 14"/></g><path fill="#1b6399" d="M14.03 0H13v10h1.03V0z"/><path fill="#1b6399" d="M23 0h-1.03v10H23V0z"/><g><path fill="#ffac33" d="M15.8 26l-1 6-2 1h-13v-7c6.08 0 9.55 2.58 11.36 4.6.57-1.77 1.9-4.6 4.65-4.6"/></g><g><path fill="#f4900c" d="M18.47 21c-1.24 0-2.4-.3-3.46-.8-3.32-.08-6-2.8-6-6.15 0-2.2 1.15-4.1 2.9-5.2 1.4-2.15 3.8-3.57 6.57-3.57 4.34 0 7.86 3.52 7.86 7.86S22.8 21 18.47 21"/></g><g><path fill="#ffdc5d" d="M20 1v4h-4V1h-1V0h6v1h-1z"/></g><g><path fill="#ffdc5d" d="M25 16h-3.56c-1 .57-2.2.9-3.44.9-1.26 0-2.43-.33-3.45-.9H11v-6c0-.02 0-.03 0-.05C11 6.1 14.13 3 18 3c3.86 0 7 3.1 7 6.95 0 .02 0 .03 0 .05v6z"/></g><g><path fill="#f4900c" d="M26 13l-1 4-3.73.62c.55.8.73 1.38.73 1.38l-11-1-.86-5c5.4 0 8.42 1.75 10.06 3.37C21.44 14.9 23.53 13 26 13"/></g><g><path fill="#88c9f9" d="M23 3h-3l-2-3-2 3h-2c-3 0-5-2-5-4v-1h18v1c0 1.97-2 4-4 4"/></g><g><path fill="#bf6952" d="M21 6h-6s.58-2 3-2 3 2 3 2"/></g><g><path fill="#bf6952" d="M18 6.5c-.13 0-.26.05-.35.15-.1.1-.15.22-.15.35 0 .13.05.26.15.36.17.17.52.18.7 0 .1-.1.15-.23.15-.36 0-.13-.05-.26-.15-.35-.1-.1-.22-.15-.35-.15"/></g><g><path fill="#662113" d="M15 8c-.55 0-1 .45-1 1v1c0 .55.45 1 1 1s1-.45 1-1V9c0-.55-.45-1-1-1"/></g><g><path fill="#662113" d="M21 8c-.55 0-1 .45-1 1v1c0 .55.45 1 1 1s1-.45 1-1V9c0-.55-.45-1-1-1"/></g></g></g></g></svg>