<svg xmlns="http://www.w3.org/2000/svg" viewBox="0 0 45 45" enable-background="new 0 0 45 45"><defs><clipPath id="a"><path d="M0 36h36V0H0v36z"/></clipPath></defs><g><g><g clip-path="url(#a)" transform="matrix(1.25 0 0 -1.25 0 45)"><g><path fill="#292f33" d="M31 0v3.5C31 6.8 27.3 9 24 9H12C8.7 9 5 6.8 5 3.5V0h26z"/></g><g><path fill="#963b22" d="M17.94 30.93c4.1 0 10.95-2.05 10.95-10.95 0-8.9 0-10.94-2.06-10.94-2.05 0-4.8 2.05-8.9 2.05-4.1 0-6.78-2.06-8.9-2.06C6.77 9.04 7 17.24 7 19.98c0 8.9 6.84 10.95 10.94 10.95"/></g><g><path fill="#9266cc" d="M18 1.6C22.08 3.53 23.62 9 23.62 9H12.38S13.92 3.54 18 1.6"/></g><g><path fill="#744eaa" d="M13 9h9.88s-1.26-3.5-4.94-3.5C14.26 5.5 13 9 13 9"/></g><g><path fill="#d5ab88" d="M14.33 8.98C14.33 7.5 16.5 7 18 7s3.66.5 3.66 1.98v3.2h-7.33V9z"/></g><g><path fill="#cc9b7a" d="M14.32 10.82c1.02-1.15 2.3-1.47 3.67-1.47s2.64.32 3.66 1.47v2.94h-7.34v-2.94z"/></g><g><path fill="#d5ab88" d="M9.73 20.28c0 5.84 3.68 10.57 8.2 10.57 4.55 0 8.22-4.73 8.22-10.57 0-5.83-3.67-10.28-8.2-10.28-4.54 0-8.22 4.45-8.22 10.28"/></g><g><path fill="#df1f32" d="M17.94 12.46c-1.6 0-2.44.8-2.53.88-.26.27-.26.7 0 .97.27.27.7.28.97.02.03-.04.55-.5 1.57-.5 1.04 0 1.56.48 1.58.5.28.25.7.24.96-.02.26-.27.26-.7 0-.96-.1-.1-.93-.88-2.54-.88"/></g><g><path fill="#963b22" d="M7.73 17c-.03 1-.05.22-.05.47 0 3.42 2.05-.5 2.05 1.94 0 2.45 1.37 2.7 2.74 4.06.7.68 2.05 2.03 2.05 2.03s3.42-2.08 6.16-2.08 5.48-1.38 5.48-4.1c0-2.75 2.05 1.57 2.05-1.85 0-.24 0 .53-.03-.47h.72c0 2 0 1.92 0 3.2 0 8.9-6.85 12.2-10.96 12.2C13.84 32.4 7 29.16 7 20.27c0-.8-.02-1.26 0-3.26h.73z"/></g><g><path fill="#662113" d="M14.6 18.1c-.46 0-.84.4-.84.86v.84c0 .47.38.85.85.85s.86-.38.86-.85v-.84c0-.47-.4-.85-.85-.85"/></g><g><path fill="#662113" d="M21.37 18.1c-.46 0-.84.4-.84.86v.84c0 .47.38.85.84.85.47 0 .85-.38.85-.85v-.84c0-.47-.38-.85-.85-.85"/></g><g><path fill="#c1694f" d="M18.84 15.5h-1.7c-.23 0-.42.2-.42.42v.16c0 .23.2.42.43.42h1.7c.22 0 .4-.2.4-.42v-.16c0-.23-.18-.42-.4-.42"/></g><g><path fill="#d5ab88" d="M11.44 20.06c0-1.44-.73-2.62-1.63-2.62-.9 0-1.63 1.18-1.63 2.62 0 1.45.73 2.63 1.64 2.63.9 0 1.64-1.2 1.64-2.64"/></g><g><path fill="#d5ab88" d="M27.83 20.06c0-1.44-.73-2.62-1.64-2.62-.9 0-1.64 1.18-1.64 2.62 0 1.45.73 2.63 1.63 2.63.9 0 1.63-1.2 1.63-2.64"/></g><g><path fill="#292f33" d="M18 28L4 32l14 3 14-3-14-4z"/></g><g><path fill="#292f33" d="M6.06 31.93L18 28.53l11.94 3.4L18 34.5 6.06 31.92zM18 27.5c-.05 0-.1 0-.14.02l-14 4c-.22.06-.37.27-.36.5 0 .23.17.42.4.47l14 3c.06 0 .14 0 .2 0l14-3c.23-.06.4-.25.4-.48 0-.23-.14-.44-.36-.5l-14-4c-.05 0-.1-.02-.14-.02"/></g><g><path fill="#292f33" d="M27 28c0-2.2-4.03-3-9-3s-9 .8-9 3c0 5 4.03 5 9 5s9 0 9-5"/></g><g><path fill="#292f33" d="M18 32.5c-5.43 0-8.5-.2-8.5-4.5 0-1.57 3.18-2.5 8.5-2.5s8.5.93 8.5 2.5c0 4.3-3.07 4.5-8.5 4.5m0-8c-6.2 0-9.5 1.2-9.5 3.5 0 5.5 4.62 5.5 9.5 5.5 4.9 0 9.5 0 9.5-5.5 0-2.3-3.3-3.5-9.5-3.5"/></g><g><path fill="#66757f" d="M18 27.5c-.04 0-.1 0-.14.02l-14 4c-.26.07-.42.35-.34.62.07.26.35.4.62.34l14-4c.26-.07.42-.35.34-.62-.06-.22-.26-.36-.48-.36"/></g><g><path fill="#66757f" d="M18 27.5c-.22 0-.42.14-.48.36-.08.27.08.55.34.62l14 4c.27.07.54-.08.62-.34.08-.27-.08-.55-.34-.62l-14-4c-.05 0-.1-.02-.14-.02"/></g><g><path fill="#ffcc4d" d="M6 30.5c-.26 0-.48.2-.5.46-.02.27.18.5.46.54l12 1c.27.02.5-.18.54-.46.02-.27-.18-.52-.46-.54l-12-1s-.03 0-.04 0"/></g><g><path fill="#ffcc4d" d="M6 20.56c-.28 0-.5.23-.5.5V31c0 .28.22.5.5.5s.5-.22.5-.5v-9.94c0-.27-.22-.5-.5-.5"/></g><g><path fill="#ffcc4d" d="M7 22.5c0-2.48-.45-4.5-1-4.5s-1 2.02-1 4.5.45 2.5 1 2.5 1 0 1-2.5"/></g><g><path fill="#66757f" d="M8.1 2.66c.25 0 .4-2.66.4-2.66h-.95s.2 2.66.55 2.66"/></g><g><path fill="#66757f" d="M11.1 2.66c.25 0 .4-2.66.4-2.66h-.95s.2 2.66.55 2.66"/></g><g><path fill="#66757f" d="M27.95 2.66c-.25 0-.4-2.66-.4-2.66h.95s-.2 2.66-.55 2.66"/></g><g><path fill="#66757f" d="M24.95 2.66c-.25 0-.4-2.66-.4-2.66h.95s-.2 2.66-.55 2.66"/></g></g></g></g></svg>