<svg xmlns="http://www.w3.org/2000/svg" viewBox="0 0 45 45" enable-background="new 0 0 45 45"><defs><clipPath id="a"><path d="M0 36h36V0H0v36z"/></clipPath></defs><g><g><g clip-path="url(#a)" transform="matrix(1.25 0 0 -1.25 0 45)"><g><path fill="#292f33" d="M24 9.2v2.57c2 1.35 4.08 3.78 4.7 6.9.2-.1.2-.18.42-.18 1 0 1.7 1.28 1.7 2.87 0 1.56-.82 2.82-1.8 2.86.2.68.3 1.58.3 2.74 0 3.86-3.32 8.5-10.78 8.5-6.63 0-10.78-4.64-10.78-8.5 0-1.12.07-2.04.2-2.76-.92-.12-1.64-1.34-1.64-2.83 0-1.6.8-2.88 1.8-2.88.2 0 .02.06.2.16.63-3.1 2.68-5.54 4.68-6.9v-2.4C8 8.7 1 5.9 1 3.1V2.06C1 1 2.08 1 3.14 1H32.86C33.92 1 35 1 35 2.06v1.06c0 2.62-6 5.23-11 6.08"/></g></g></g></g></svg>