<?xml version="1.0" encoding="UTF-8" standalone="no"?><svg xmlns:dc="http://purl.org/dc/elements/1.1/" xmlns:cc="http://creativecommons.org/ns#" xmlns:rdf="http://www.w3.org/1999/02/22-rdf-syntax-ns#" xmlns:svg="http://www.w3.org/2000/svg" xmlns="http://www.w3.org/2000/svg" viewBox="0 0 45 45" style="enable-background:new 0 0 45 45;" xml:space="preserve" version="1.1" id="svg2"><metadata id="metadata8"><rdf:RDF><cc:Work rdf:about=""><dc:format>image/svg+xml</dc:format><dc:type rdf:resource="http://purl.org/dc/dcmitype/StillImage"/></cc:Work></rdf:RDF></metadata><defs id="defs6"><clipPath id="clipPath16" clipPathUnits="userSpaceOnUse"><path id="path18" d="M 0,36 36,36 36,0 0,0 0,36 Z"/></clipPath></defs><g transform="matrix(1.25,0,0,-1.25,0,45)" id="g10"><g id="g12"><g clip-path="url(#clipPath16)" id="g14"><g transform="translate(34,26)" id="g20"><path id="path22" style="fill:#2a6797;fill-opacity:1;fill-rule:nonzero;stroke:none" d="m 0,0 c 0,-5.523 -7.163,-10 -16,-10 -8.836,0 -16,4.477 -16,10 0,5.523 7.164,10 16,10 C -7.163,10 0,5.523 0,0"/></g><g transform="translate(30,21)" id="g24"><path id="path26" style="fill:#f3d2a2;fill-opacity:1;fill-rule:nonzero;stroke:none" d="m 0,0 0,3.999 -24,0 L -24,0 c -1.657,0 -3,-1.791 -3,-4 0,-2.209 1.343,-4 3,-4 0,-6.629 5.373,-12 12,-12 6.628,0 12,5.371 12,12 1.656,0 3,1.791 3,4 0,2.209 -1.344,4 -3,4"/></g><g transform="translate(24.4404,7.2363)" id="g28"><path id="path30" style="fill:#662113;fill-opacity:1;fill-rule:nonzero;stroke:none" d="m 0,0 c -0.087,0.162 -0.256,0.264 -0.44,0.264 l -12,0 c -0.185,0 -0.354,-0.102 -0.441,-0.264 -0.087,-0.163 -0.077,-0.36 0.025,-0.514 0.088,-0.132 2.196,-3.222 6.416,-3.222 4.218,0 6.328,3.09 6.416,3.222 C 0.078,-0.36 0.088,-0.163 0,0"/></g><g transform="translate(15,12)" id="g32"><path id="path34" style="fill:#c1694f;fill-opacity:1;fill-rule:nonzero;stroke:none" d="M 0,0 C 0,0 1,-2 3,-2 5,-2 6,0 6,0 6,0 6,-3 3,-3 0,-3 0,0 0,0"/></g><g transform="translate(27,15)" id="g36"><path id="path38" style="fill:#f5f8fa;fill-opacity:1;fill-rule:nonzero;stroke:none" d="M 0,0 C 0,-1.104 -1.567,-2 -3.5,-2 -5.433,-2 -7,-1.104 -7,0 -7,1.105 -5.433,2 -3.5,2 -1.567,2 0,1.105 0,0"/></g><g transform="translate(16,15)" id="g40"><path id="path42" style="fill:#f5f8fa;fill-opacity:1;fill-rule:nonzero;stroke:none" d="M 0,0 C 0,-1.104 -1.567,-2 -3.5,-2 -5.433,-2 -7,-1.104 -7,0 -7,1.105 -5.433,2 -3.5,2 -1.567,2 0,1.105 0,0"/></g><g transform="translate(25,15.5)" id="g44"><path id="path46" style="fill:#292f33;fill-opacity:1;fill-rule:nonzero;stroke:none" d="M 0,0 C 0,-0.828 -0.672,-1.5 -1.5,-1.5 -2.328,-1.5 -3,-0.828 -3,0 -3,0.828 -2.328,1.5 -1.5,1.5 -0.672,1.5 0,0.828 0,0"/></g><g transform="translate(14,15.5)" id="g48"><path id="path50" style="fill:#292f33;fill-opacity:1;fill-rule:nonzero;stroke:none" d="M 0,0 C 0,-0.828 -0.672,-1.5 -1.5,-1.5 -2.328,-1.5 -3,-0.828 -3,0 -3,0.828 -2.328,1.5 -1.5,1.5 -0.672,1.5 0,0.828 0,0"/></g><g transform="translate(30,24)" id="g52"><path id="path54" style="fill:#4289c1;fill-opacity:1;fill-rule:nonzero;stroke:none" d="m 0,0 -24,0 0,4 c 0,0 5,3 12,3 C -5,7 0,4 0,4 L 0,0 Z"/></g><g transform="translate(30,24)" id="g56"><path id="path58" style="fill:#ffe51e;fill-opacity:1;fill-rule:nonzero;stroke:none" d="M 0,0 C 0,0 -5,1 -12,1 -19,1 -24,0 -24,0 l 0,-7 c 0,0 1.336,3.341 1.824,5.654 C -20.275,-2.508 -16.888,-4 -12,-4 c 4.889,0 8.275,1.492 10.177,2.654 C -1.336,-3.659 0,-7 0,-7 l 0,7 z"/></g><g transform="translate(21,34)" id="g60"><path id="path62" style="fill:#fdcb58;fill-opacity:1;fill-rule:nonzero;stroke:none" d="m 0,0 c -0.001,0 -0.002,-0.001 -0.003,-0.001 l 0,0.001 -0.001,-0.001 C -0.315,-0.002 -0.581,-0.153 -0.764,-0.377 -1.14,-0.469 -1.653,-0.489 -2.308,-0.283 -2.488,-0.109 -2.73,0 -3,0 c -0.27,0 -0.512,-0.109 -0.692,-0.283 -0.655,-0.206 -1.169,-0.186 -1.544,-0.094 -0.183,0.224 -0.45,0.376 -0.761,0.376 L -5.998,0 l 0,-0.001 c 0,0 -10e-4,0.001 -0.002,0.001 -0.552,0 -1,-0.448 -1,-1 0,-0.552 0.448,-1 1,-1 0.001,0 0.001,10e-4 0.001,10e-4 L -5.998,-2 c 0,-4 1.998,-5 2.998,-5 1,0 2.997,1 2.997,5 l 0,10e-4 C -0.002,-1.999 -0.001,-2 0,-2 c 0.553,0 1,0.448 1,1 0,0.552 -0.447,1 -1,1"/></g><g transform="translate(21,6)" id="g64"><path id="path66" style="fill:#ffffff;fill-opacity:1;fill-rule:nonzero;stroke:none" d="M 0,0 -6,0 C -6.276,0 -6.5,0.224 -6.5,0.5 -6.5,0.776 -6.276,1 -6,1 L 0,1 C 0.276,1 0.5,0.776 0.5,0.5 0.5,0.224 0.276,0 0,0"/></g></g></g></g></svg>
