<svg xmlns="http://www.w3.org/2000/svg" viewBox="0 0 45 45" enable-background="new 0 0 45 45"><defs><clipPath id="a"><path d="M0 0h36v36H0V0z"/></clipPath></defs><g><g><g clip-path="url(#a)" transform="matrix(1.25 0 0 -1.25 0 45)"><g><path fill="#292f33" d="M30.2 8.93c0-1.5-3.66-2.73-8.2-2.73-4.54 0-8.2 1.22-8.2 2.73 0 1.5 3.66 2.73 8.2 2.73 4.54 0 8.2-1.23 8.2-2.73"/></g><g><path fill="#e1e8ed" d="M35 0v3.5C35 6.8 31.3 9 28 9H16c-3.3 0-7-2.2-7-5.5V0h26z"/></g><g><path fill="#ea596e" d="M30.93 9h-1.16s.03-.07.03-.13c0-1.36-3.5-2.43-7.8-2.43s-7.8 1.06-7.8 2.42c0 .06.02.14.03.14h-.73l-.7-.1V7.88c.1-2.4 4.18-3.4 9.2-3.4 5 0 9.05 1.02 9.2 3.42v.98l-.27.12z"/></g><g><path fill="#be1931" d="M22 6.47c-4.3 0-7.8 1.1-7.8 2.46 0 1.36 3.5 2.46 7.8 2.46s7.8-1.1 7.8-2.47c0-1.36-3.5-2.46-7.8-2.46m0 5.9c-5.1 0-9.2-1.54-9.2-3.44S16.9 5.5 22 5.5s9.2 1.53 9.2 3.43c0 1.9-4.1 3.44-9.2 3.44"/></g><g><path fill="#99aab5" d="M29.78 8.8c-.6.13-1.2.2-1.78.2H16c-.6 0-1.2-.07-1.78-.2.22-1.3 3.62-2.33 7.78-2.33s7.56 1.03 7.78 2.33"/></g><g><path fill="#ffe51e" d="M21.94 30.93c4.1 0 10.95-2.05 10.95-10.95 0-8.9 0-10.94-2.06-10.94-2.05 0-4.15 2.05-8.9 2.05-4.1 0-6.78-2.06-8.9-2.06-2.28 0-2.04 8.2-2.04 10.94 0 8.9 6.84 10.95 10.94 10.95"/></g><g><path fill="#f3d2a2" d="M18.33 8.98c1.46-1.06 2.96-1.2 3.67-1.2.7 0 2.2.14 3.66 1.2v3.2h-7.33V9z"/></g><g><path fill="#e2c196" d="M18.32 10.82c1.02-1.15 2.3-1.47 3.67-1.47s2.64.32 3.66 1.47v2.94h-7.34v-2.94z"/></g><g><path fill="#f3d2a2" d="M13.73 20.28c0 5.84 3.68 10.57 8.2 10.57 4.55 0 8.22-4.73 8.22-10.57 0-5.83-3.67-10.28-8.2-10.28-4.54 0-8.22 4.45-8.22 10.28"/></g><g><path fill="#df1f32" d="M21.94 12.46c-1.6 0-2.44.8-2.53.88-.26.27-.26.7 0 .97.27.27.7.28.97.02.03-.04.55-.5 1.57-.5 1.04 0 1.56.48 1.58.5.28.25.7.24.96-.02.26-.27.26-.7 0-.96-.1-.1-.93-.88-2.54-.88"/></g><g><path fill="#ffe51e" d="M11.73 17c-.03 1-.05.22-.05.47 0 3.42 2.05-.5 2.05 1.94 0 2.45 1.37 2.7 2.74 4.06.7.68 2.05 2.03 2.05 2.03s3.42-2.08 6.16-2.08 5.48-1.38 5.48-4.1c0-2.75 2.05 1.57 2.05-1.85 0-.24 0 .53-.03-.47h.72c0 2 0 1.92 0 3.2 0 8.9-6.85 12.2-10.96 12.2-4.1 0-10.94-3.25-10.94-12.14 0-.8-.02-1.26 0-3.26h.73z"/></g><g><path fill="#662113" d="M18.6 18.1c-.46 0-.84.4-.84.86v.84c0 .47.38.85.85.85s.86-.38.86-.85v-.84c0-.47-.4-.85-.85-.85"/></g><g><path fill="#662113" d="M25.37 18.1c-.46 0-.84.4-.84.86v.84c0 .47.38.85.84.85.47 0 .85-.38.85-.85v-.84c0-.47-.38-.85-.85-.85"/></g><g><path fill="#c1694f" d="M22.84 15.5h-1.7c-.23 0-.42.2-.42.42v.16c0 .23.2.42.43.42h1.7c.22 0 .4-.2.4-.42v-.16c0-.23-.18-.42-.4-.42"/></g><path fill="#55acee" d="M32 3h3V0h-3v3z"/><path fill="#ffcc4d" d="M35 0h-2v2h2V0z"/><g><path fill="#e1e8ed" d="M24 0c-1.2 5.15-6.04 9-11.85 9C6.35 9 1.5 5.15.3 0H24z"/></g><g><path fill="#292f33" d="M22.67 0c-1.17 4.46-5.43 7.78-10.52 7.78C7.05 7.78 2.8 4.46 1.62 0h21.05z"/></g><g><path fill="#ffac33" d="M21.64 0c-1.15 3.94-4.96 6.83-9.5 6.83-4.53 0-8.34-2.9-9.48-6.83h18.98z"/></g><g><path fill="#ffdc5d" d="M18.2.95l.1.06c.77.48.93 1.55.3 2.2-.47.48-1 .9-1.57 1.26-.56.35-1.16.63-1.78.83-.83.26-1.7-.24-1.87-1.1-.12-.66.23-1.35.86-1.58.86-.32 1.62-.82 2.23-1.47.44-.47 1.17-.53 1.73-.2"/></g><g><path fill="#9266cc" d="M6.34 21.74l-1.54.57-.6 2.2c-.08.3-.34.5-.64.5s-.57-.2-.64-.5l-.6-2.2-1.55-.56c-.26-.1-.43-.35-.43-.63 0-.27.17-.52.43-.6l1.54-.58.6-2.42c.1-.3.35-.5.66-.5.3 0 .57.2.65.5l.6 2.42 1.54.57c.27.08.44.33.44.6 0 .3-.17.54-.44.64"/></g><g><path fill="#5dadec" d="M11.28 31.37l-2.6.96-.98 2.6c-.16.45-.57.73-1.03.73-.46 0-.88-.28-1.04-.72l-.96-2.6-2.6-.97c-.45-.16-.73-.58-.73-1.04 0-.46.28-.87.72-1.03l2.6-.97.97-2.6c.16-.44.58-.73 1.04-.73.46 0 .87.3 1.03.72l.97 2.6 2.6.98c.44.16.73.57.73 1.03 0 .46-.3.88-.72 1.04"/></g></g></g></g></svg>