<svg xmlns="http://www.w3.org/2000/svg" viewBox="0 0 45 45" enable-background="new 0 0 45 45"><defs><clipPath id="a"><path d="M0 36h36V0H0v36z"/></clipPath></defs><g><g><g clip-path="url(#a)" transform="matrix(1.25 0 0 -1.25 0 45)"><g><path fill="#66757f" d="M29 15.27v1.96c1 1.03 2.9 2.9 3.4 5.28.13-.07.04-.12.2-.12.76 0 1.26.98 1.26 2.2 0 1.2-.66 2.16-1.4 2.2.14.5.2 1.2.2 2.08 0 2.95-2.54 6.5-8.24 6.5-5.07 0-8.24-3.55-8.24-6.5 0-.86.05-1.56.14-2.1-.7-.1-1.25-1.04-1.25-2.18 0-1.22.62-2.2 1.37-2.2.16 0-.06.05.08.13C17 20.13 19 18.27 20 17.24V15.4c-4-.5-7-2.64-7-4.78V9.8c0-.8.82-.8 1.63-.8h18.72c.82 0 1.64 0 1.64.8V10.63c0 2-3 4-6 4.65"/></g><g><path fill="#292f33" d="M17 7.27v1.96c1 1.03 2.9 2.9 3.4 5.28.13-.07.04-.12.2-.12.76 0 1.26.98 1.26 2.2 0 1.2-.66 2.16-1.4 2.2.14.5.2 1.2.2 2.08 0 2.95-2.54 6.5-8.24 6.5-5.07 0-8.24-3.55-8.24-6.5 0-.86.05-1.56.14-2.1-.7-.1-1.25-1.04-1.25-2.18 0-1.22.62-2.2 1.37-2.2.16 0-.07.05.08.13C5 12.13 7 10.27 8 9.24V7.4C4 6.9 1 4.75 1 2.6V1.8C1 1 1.82 1 2.63 1h18.72c.82 0 1.64 0 1.64.8V2.63c0 2-3 4-6 4.65"/></g></g></g></g></svg>