<svg xmlns="http://www.w3.org/2000/svg" viewBox="0 0 45 45" enable-background="new 0 0 45 45"><defs><clipPath id="a"><path d="M0 36h36V0H0v36z"/></clipPath></defs><g><g><g clip-path="url(#a)" transform="matrix(1.25 0 0 -1.25 0 45)"><g><path fill="#662113" d="M25.78 31.3c1.33 0 6.83-1.34 6.83-7.76S26.36 7.8 24 7.58c-2.58-.25-4.2 1.38-4.2 4 0 2.63 4.08 4.34 2.2 8.3-1.87 3.95-2.33 11.4 3.8 11.4"/></g><g><path fill="#662113" d="M32.86 29.06c-.43-.73-.33-1.6.24-1.93.57-.33 1.37 0 1.8.73.44.73.33 1.6-.24 1.93-.56.32-1.37 0-1.8-.74"/></g><g><path fill="#662113" d="M29.96 31.92c-.12-.84.34-1.6 1.02-1.7.68-.1 1.33.5 1.45 1.36.12.84-.34 1.6-1.02 1.7-.68.1-1.33-.5-1.44-1.36"/></g><g><path fill="#662113" d="M26.73 33.3c0-.93.6-1.67 1.34-1.67.73 0 1.33.74 1.33 1.66 0 .9-.6 1.66-1.33 1.66-.74 0-1.34-.75-1.34-1.67"/></g><g><path fill="#662113" d="M22.94 33.98c0-1.02.64-1.85 1.42-1.85.78 0 1.42.83 1.42 1.85s-.64 1.85-1.42 1.85c-.78 0-1.42-.83-1.42-1.85"/></g><g><path fill="#662113" d="M17.64 31.82c.37-1.46 1.6-2.4 2.74-2.1 1.13.3 1.75 1.7 1.37 3.17-.38 1.44-1.6 2.4-2.74 2.1-1.13-.3-1.74-1.72-1.36-3.18"/></g><g><path fill="#662113" d="M9.92 24.3c-1.34 0-6.84-1.34-6.84-7.76S9.34.8 11.7.58c2.6-.25 4.22 1.38 4.22 4 0 2.63-4.1 4.34-2.2 8.3 1.86 3.95 2.32 11.4-3.8 11.4"/></g><g><path fill="#662113" d="M2.84 22.06c.43-.73.32-1.6-.25-1.93-.57-.33-1.38 0-1.8.73-.44.73-.33 1.6.23 1.93.57.32 1.38 0 1.8-.74"/></g><g><path fill="#662113" d="M5.74 24.92c.12-.84-.34-1.6-1.03-1.7-.67-.1-1.32.5-1.44 1.36-.12.84.34 1.6 1.03 1.7.67.1 1.32-.5 1.44-1.36"/></g><g><path fill="#662113" d="M8.96 26.3c0-.93-.6-1.67-1.33-1.67-.74 0-1.34.74-1.34 1.66 0 .9.6 1.66 1.33 1.66.73 0 1.33-.75 1.33-1.67"/></g><g><path fill="#662113" d="M12.75 26.98c0-1.02-.63-1.85-1.42-1.85-.78 0-1.4.83-1.4 1.85s.62 1.85 1.4 1.85c.8 0 1.42-.83 1.42-1.85"/></g><g><path fill="#662113" d="M18.06 24.82c-.38-1.46-1.6-2.4-2.74-2.1-1.14.3-1.75 1.7-1.38 3.17.38 1.44 1.6 2.4 2.74 2.1 1.14-.3 1.75-1.72 1.38-3.18"/></g></g></g></g></svg>