<svg xmlns="http://www.w3.org/2000/svg" viewBox="0 0 45 45" enable-background="new 0 0 45 45"><defs><clipPath id="a"><path d="M0 0h33v36H0V0z"/></clipPath><clipPath id="b"><path d="M0 36h36V0H0v36z"/></clipPath></defs><g><g><g clip-path="url(#a)" transform="matrix(1.25 0 0 -1.25 0 45)"><g><path fill="#77b255" d="M32 0v2c0 3.3-2.7 6-6 6H10C6.7 8 4 5.3 4 2V0h28z"/></g><g><path fill="#292f33" d="M10 8C6.7 8 4 5.3 4 2V0h8v8h-2z"/></g><g><path fill="#292f33" d="M26 8h-2V0h8v2c0 3.3-2.7 6-6 6"/></g><g><path fill="#5c913b" d="M11.8 8h12.4S22.6 4 18 4s-6.2 4-6.2 4"/></g><g><path fill="#7c533e" d="M13.64 7.9c0-.9 2.36-2 4.36-2 2 0 4.36 1.1 4.36 2v3.8h-8.72V7.9z"/></g><g><path fill="#664131" d="M13.63 10.03c1.22-1.38 2.73-1.75 4.37-1.75 1.63 0 3.14.37 4.36 1.75v3.5h-8.73v-3.5z"/></g><g><path fill="#7c533e" d="M11.44 20.06c0-1.44-.73-2.62-1.63-2.62-.9 0-1.63 1.18-1.63 2.62 0 1.45.73 2.63 1.64 2.63.9 0 1.64-1.2 1.64-2.64"/></g><g><path fill="#7c533e" d="M27.83 20.06c0-1.44-.73-2.62-1.64-2.62-.9 0-1.64 1.18-1.64 2.62 0 1.45.73 2.63 1.63 2.63.9 0 1.63-1.2 1.63-2.64"/></g><g><path fill="#7c533e" d="M9.48 19.04c0 5.6 3.8 10.12 8.52 10.12 4.7 0 8.52-4.53 8.52-10.12 0-5.6-3.8-10.12-8.52-10.12-4.7 0-8.52 4.53-8.52 10.12"/></g><g><path fill="#3d2e24" d="M18 12.2c-2.75 0-3.6.7-3.74.85-.26.25-.26.67 0 .92.25.25.64.26.9.03.05-.04.72-.5 2.84-.5 2.2 0 2.84.5 2.84.5.26.25.66.24.9-.02.27-.25.26-.68 0-.93-.14-.15-1-.85-3.74-.85"/></g><g><path fill="#0b0200" d="M18 33c5.65 0 9.18-4.65 9.18-8.12 0-3.47-.97-4.97-1.4-3.47C25 24 24 24 24 24s-3.88-1.54-5.3-.15c0 0 2.12-4.17-2.1 0 0 0 .7-2.78-3.54.7 0 0-2.12.33-2.83-3.14-.2-.96-1.4 0-1.4 3.48C8.82 28.35 11.64 33 18 33"/></g><g><path d="M14 19c-.55 0-1 .45-1 1v1c0 .55.45 1 1 1s1-.45 1-1v-1c0-.55-.45-1-1-1"/></g><g><path d="M22 19c-.55 0-1 .45-1 1v1c0 .55.45 1 1 1s1-.45 1-1v-1c0-.55-.45-1-1-1"/></g><g><path fill="#3d2e24" d="M18.75 16.25h-1.5c-.4 0-.75.34-.75.75 0 .4.34.75.75.75h1.5c.4 0 .75-.34.75-.75 0-.4-.34-.75-.75-.75"/></g><g><path fill="#292f33" d="M12.38 8S13.92 2.54 18 .6V0h-7v8h1.38z"/></g><g><path fill="#292f33" d="M23.62 8S22.08 2.54 18 .6V0h7v8h-1.38z"/></g><g><path fill="#66757f" d="M8.08 2.66c.25 0 .4-2.66.4-2.66h-.95s.2 2.66.55 2.66"/></g><g><path fill="#66757f" d="M11.08 2.66c.25 0 .4-2.66.4-2.66h-.95s.2 2.66.55 2.66"/></g><g><path fill="#66757f" d="M27.93 2.66c-.25 0-.4-2.66-.4-2.66h.95s-.2 2.66-.55 2.66"/></g><g><path fill="#66757f" d="M24.93 2.66c-.25 0-.4-2.66-.4-2.66h.95s-.2 2.66-.55 2.66"/></g></g></g><g><path fill="#292f33" d="M22.5 10L5 5l17.5-3.75L40 5l-17.5 5z"/></g><g><g clip-path="url(#b)" transform="matrix(1.25 0 0 -1.25 0 45)"><g><path fill="#292f33" d="M6.06 31.93L18 28.53l11.94 3.4L18 34.5 6.06 31.92zM18 27.5c-.05 0-.1 0-.14.02l-14 4c-.22.06-.37.27-.36.5 0 .23.17.42.4.47l14 3c.06 0 .14 0 .2 0l14-3c.23-.06.4-.25.4-.48 0-.23-.14-.44-.36-.5l-14-4c-.05 0-.1-.02-.14-.02"/></g><g><path fill="#292f33" d="M27 28c0-2.2-4.03-3-9-3s-9 .8-9 3c0 5 4.03 5 9 5s9 0 9-5"/></g><g><path fill="#292f33" d="M18 32.5c-5.43 0-8.5-.2-8.5-4.5 0-1.57 3.18-2.5 8.5-2.5s8.5.93 8.5 2.5c0 4.3-3.07 4.5-8.5 4.5m0-8c-6.2 0-9.5 1.2-9.5 3.5 0 5.5 4.62 5.5 9.5 5.5 4.9 0 9.5 0 9.5-5.5 0-2.3-3.3-3.5-9.5-3.5"/></g><g><path fill="#66757f" d="M18 27.5c-.04 0-.1 0-.14.02l-14 4c-.26.07-.42.35-.34.62.07.26.35.4.62.34l14-4c.26-.07.42-.35.34-.62-.06-.22-.26-.36-.48-.36"/></g><g><path fill="#66757f" d="M18 27.5c-.22 0-.42.14-.48.36-.08.27.08.55.34.62l14 4c.27.07.54-.08.62-.34.08-.27-.08-.55-.34-.62l-14-4c-.05 0-.1-.02-.14-.02"/></g><g><path fill="#ffcc4d" d="M6 30.5c-.26 0-.48.2-.5.46-.02.27.18.5.46.54l12 1c.27.02.5-.18.54-.46.02-.27-.18-.52-.46-.54l-12-1s-.03 0-.04 0"/></g><g><path fill="#ffcc4d" d="M6 20.56c-.28 0-.5.23-.5.5V31c0 .28.22.5.5.5s.5-.22.5-.5v-9.94c0-.27-.22-.5-.5-.5"/></g><g><path fill="#ffcc4d" d="M7 22.5c0-2.48-.45-4.5-1-4.5s-1 2.02-1 4.5.45 2.5 1 2.5 1 0 1-2.5"/></g></g></g></g></svg>