<?xml version="1.0" encoding="UTF-8" standalone="no"?><svg xmlns:dc="http://purl.org/dc/elements/1.1/" xmlns:cc="http://creativecommons.org/ns#" xmlns:rdf="http://www.w3.org/1999/02/22-rdf-syntax-ns#" xmlns:svg="http://www.w3.org/2000/svg" xmlns="http://www.w3.org/2000/svg" viewBox="0 0 45 45" style="enable-background:new 0 0 45 45;" xml:space="preserve" version="1.1" id="svg2"><metadata id="metadata8"><rdf:RDF><cc:Work rdf:about=""><dc:format>image/svg+xml</dc:format><dc:type rdf:resource="http://purl.org/dc/dcmitype/StillImage"/></cc:Work></rdf:RDF></metadata><defs id="defs6"><clipPath id="clipPath16" clipPathUnits="userSpaceOnUse"><path id="path18" d="M 0,36 36,36 36,0 0,0 0,36 Z"/></clipPath></defs><g transform="matrix(1.25,0,0,-1.25,0,45)" id="g10"><g id="g12"><g clip-path="url(#clipPath16)" id="g14"><g transform="translate(21,22)" id="g20"><path id="path22" style="fill:#ffdc5d;fill-opacity:1;fill-rule:nonzero;stroke:none" d="m 0,0 c 0.253,-3.89 3.521,-6.969 7.5,-6.969 3.979,0 7.247,3.079 7.5,6.969 L 15,10 0,10 0,0 Z"/></g><g transform="translate(36,14.248)" id="g24"><path id="path26" style="fill:#ffac33;fill-opacity:1;fill-rule:nonzero;stroke:none" d="m 0,0 0,7.752 c -0.253,-3.89 -3.521,-6.969 -7.5,-6.969 -3.979,0 -7.247,3.079 -7.5,6.969 l 0,4.337 c 5.328,0.155 8.51,2.343 10.237,4.181 0.415,-1.475 1.564,-3.518 4.763,-3.518 l 0,7.1 c -0.931,0.689 -2.115,1.092 -3.462,1.092 -0.333,0 -0.657,-0.034 -0.974,-0.09 -1.171,0.57 -2.174,0.898 -3.564,0.898 -4.907,0 -9,-4.093 -9,-9 l 0,-7 c 0.064,-2.258 0.868,-4.351 2.183,-6 l 2.817,-2 9,0 2.817,2 C -0.118,-0.168 -0.062,-0.082 0,0"/></g><g transform="translate(35.8174,14)" id="g28"><path id="path30" style="fill:#9268ca;fill-opacity:1;fill-rule:nonzero;stroke:none" d="m 0,0 -14.635,0 -0.182,0 c -2,0 -3,-1 -3,-2.973 l 0,-11.027 18,0 0,14 L 0,0 Z"/></g><path id="path32" style="fill:#7450a8;fill-opacity:1;fill-rule:nonzero;stroke:none" d="m 22.014,0 -1.027,0 0,10 1.027,0 0,-10 z"/><g transform="translate(26,17)" id="g34"><path id="path36" style="fill:#ffdc5d;fill-opacity:1;fill-rule:nonzero;stroke:none" d="M 0,0 0,-3 C 0,-4.381 1.119,-5.5 2.5,-5.5 3.881,-5.5 5,-4.381 5,-3 L 5,0 0,0 Z"/></g><g transform="translate(25.2695,18.231)" id="g38"><path id="path40" style="fill:#da2f47;fill-opacity:1;fill-rule:nonzero;stroke:none" d="M 0,0 3.23,0 6.461,0 C 6.461,0 5.653,-1.616 3.23,-1.616 0.808,-1.616 0,0 0,0"/></g><g transform="translate(29,20.5)" id="g42"><path id="path44" style="fill:#bf6952;fill-opacity:1;fill-rule:nonzero;stroke:none" d="M 0,0 -1,0 C -1.276,0 -1.5,0.224 -1.5,0.5 -1.5,0.776 -1.276,1 -1,1 L 0,1 C 0.276,1 0.5,0.776 0.5,0.5 0.5,0.224 0.276,0 0,0"/></g><g transform="translate(25,23)" id="g46"><path id="path48" style="fill:#662113;fill-opacity:1;fill-rule:nonzero;stroke:none" d="m 0,0 c -0.553,0 -1,0.448 -1,1 l 0,1 C -1,2.552 -0.553,3 0,3 0.553,3 1,2.552 1,2 L 1,1 C 1,0.448 0.553,0 0,0"/></g><g transform="translate(32,23)" id="g50"><path id="path52" style="fill:#662113;fill-opacity:1;fill-rule:nonzero;stroke:none" d="m 0,0 c -0.553,0 -1,0.448 -1,1 l 0,1 C -1,2.552 -0.553,3 0,3 0.553,3 1,2.552 1,2 L 1,1 C 1,0.448 0.553,0 0,0"/></g><g transform="translate(5,14)" id="g54"><path id="path56" style="fill:#ffdc5d;fill-opacity:1;fill-rule:nonzero;stroke:none" d="m 0,0 0,4 5,0 0,-4 2,0 0,-6 -9,0 0,6 2,0 z"/></g><g transform="translate(15,14)" id="g58"><path id="path60" style="fill:#3b94d9;fill-opacity:1;fill-rule:nonzero;stroke:none" d="M 0,0 -5,0 -7.472,-3.778 -10,0 l -5,0 0,-14 18,0 0,11.027 C 3,-1 2,0 0,0"/></g><path id="path62" style="fill:#1b6399;fill-opacity:1;fill-rule:nonzero;stroke:none" d="m 15.014,0 -1.027,0 0,10 1.027,0 0,-10 z"/><g transform="translate(15,22)" id="g64"><path id="path66" style="fill:#ffdc5d;fill-opacity:1;fill-rule:nonzero;stroke:none" d="m 0,0 0,9 -15,1 0,-9.953 0,-0.047 0.024,0 c 0.253,-3.89 3.498,-6.969 7.476,-6.969 3.791,0 6.933,2.799 7.438,6.429 0.025,0.179 0.05,0.357 0.062,0.54"/></g><g transform="translate(15,31)" id="g68"><path id="path70" style="fill:#ffac33;fill-opacity:1;fill-rule:nonzero;stroke:none" d="M 0,0 0,-0.166 -0.028,0.002 0,0 Z m -11.194,4.194 c -1.401,0 -2.703,-0.409 -3.806,-1.106 l 0,-8.083 c 5.947,0.056 9.375,2.593 11.162,4.598 0.506,-1.589 1.632,-4.021 3.838,-4.51 L 0,-9 C -0.012,-9.183 -0.037,-9.361 -0.062,-9.54 1.224,-8.002 2,-6.022 2,-3.861 2,1.033 -1.967,5 -6.861,5 -8.199,5 -9.462,4.695 -10.6,4.164 c -0.196,0.017 -0.394,0.03 -0.594,0.03"/></g><g transform="translate(10.7217,18.2773)" id="g72"><path id="path74" style="fill:#bf6952;fill-opacity:1;fill-rule:nonzero;stroke:none" d="m 0,0 -3.221,0 -3.222,0 c 0,0 0.805,-1.61 3.222,-1.61 C -0.805,-1.61 0,0 0,0"/></g><g transform="translate(8,20.5)" id="g76"><path id="path78" style="fill:#bf6952;fill-opacity:1;fill-rule:nonzero;stroke:none" d="M 0,0 -1,0 C -1.276,0 -1.5,0.224 -1.5,0.5 -1.5,0.776 -1.276,1 -1,1 L 0,1 C 0.276,1 0.5,0.776 0.5,0.5 0.5,0.224 0.276,0 0,0"/></g><g transform="translate(4,23)" id="g80"><path id="path82" style="fill:#662113;fill-opacity:1;fill-rule:nonzero;stroke:none" d="m 0,0 c -0.552,0 -1,0.448 -1,1 l 0,1 C -1,2.552 -0.552,3 0,3 0.552,3 1,2.552 1,2 L 1,1 C 1,0.448 0.552,0 0,0"/></g><g transform="translate(11,23)" id="g84"><path id="path86" style="fill:#662113;fill-opacity:1;fill-rule:nonzero;stroke:none" d="m 0,0 c -0.552,0 -1,0.448 -1,1 l 0,1 C -1,2.552 -0.552,3 0,3 0.552,3 1,2.552 1,2 L 1,1 C 1,0.448 0.552,0 0,0"/></g><g transform="translate(19.4326,3.1475)" id="g88"><path id="path90" style="fill:#f4900c;fill-opacity:1;fill-rule:nonzero;stroke:none" d="m 0,0 c -0.265,-0.511 -0.433,-0.921 -0.433,-1.147 4.657,0 9,3 9,3 -1.125,3.687 -1.666,8.138 -1.666,8.138 0,4.342 -3.519,7.862 -7.861,7.862 -1.245,0 -2.417,-0.298 -3.464,-0.813 -3.33,-0.07 -6.009,-2.786 -6.009,-6.133 0,-0.828 0.166,-1.617 0.464,-2.337 -0.25,-1.61 -0.733,-4.321 -1.464,-6.717 0,0 4.344,-3 9,-3 0,0.226 -0.167,0.635 -0.431,1.146 -3.179,0.655 -5.569,3.453 -5.569,6.807 0,0.015 0.003,0.031 0.003,0.047 l -0.003,0 0,1.364 0,4.636 3.551,0 c 1.018,0.574 2.193,0.906 3.446,0.906 1.254,0 2.429,-0.332 3.447,-0.906 l 3.556,0 0,-4.636 0,-1.364 -0.007,0 C 5.56,6.837 5.562,6.821 5.562,6.806 5.562,3.455 3.175,0.658 0,0"/></g><g transform="translate(20,1)" id="g92"><path id="path94" style="fill:#ffdc5d;fill-opacity:1;fill-rule:nonzero;stroke:none" d="m 0,0 0,4 -4,0 0,-4 -1,0 0,-1 6,0 0,1 -1,0 z"/></g><g transform="translate(14,3)" id="g96"><path id="path98" style="fill:#ea596e;fill-opacity:1;fill-rule:nonzero;stroke:none" d="M 0,0 C -2.493,0 -4.276,-1.385 -4.814,-3 L 4,-3 2,0 0,0 Z"/></g><g transform="translate(23,3)" id="g100"><path id="path102" style="fill:#ea596e;fill-opacity:1;fill-rule:nonzero;stroke:none" d="m 0,0 -3,0 -2,-3 8.817,0 C 3.3,-1.398 1.659,0 0,0"/></g><g transform="translate(24.9941,9.9531)" id="g104"><path id="path106" style="fill:#ffdc5d;fill-opacity:1;fill-rule:nonzero;stroke:none" d="m 0,0 c 0,0.016 -0.002,0.031 -0.002,0.047 l 0.008,0 0,1.364 0,4.636 -3.557,0 c -1.017,0.574 -2.192,0.906 -3.446,0.906 -1.254,0 -2.428,-0.332 -3.446,-0.906 l -3.551,0 0,-4.636 0,-1.364 0.002,0 c 0,-0.016 -0.002,-0.031 -0.002,-0.047 0,-3.354 2.39,-6.151 5.569,-6.807 0.461,-0.095 0.938,-0.146 1.428,-0.146 0.492,0 0.972,0.052 1.435,0.147 C -2.387,-6.147 0,-3.351 0,0"/></g><g transform="translate(26,13)" id="g108"><path id="path110" style="fill:#f4900c;fill-opacity:1;fill-rule:nonzero;stroke:none" d="M 0,0 -1,4 -4,6 -15,5 -15.861,0 c 5.41,0 8.425,1.755 10.065,3.367 C -4.56,1.908 -2.472,0 0,0"/></g><g transform="translate(21,6)" id="g112"><path id="path114" style="fill:#bf6952;fill-opacity:1;fill-rule:nonzero;stroke:none" d="m 0,0 -3,0 -3,0 c 0,0 0.583,-2 3,-2 2.417,0 3,2 3,2"/></g><g transform="translate(18,6.5)" id="g116"><path id="path118" style="fill:#bf6952;fill-opacity:1;fill-rule:nonzero;stroke:none" d="m 0,0 c -0.13,0 -0.26,0.05 -0.35,0.15 -0.1,0.09 -0.15,0.22 -0.15,0.35 0,0.13 0.05,0.26 0.15,0.36 C -0.18,1.03 0.17,1.04 0.36,0.851 0.45,0.76 0.5,0.63 0.5,0.5 0.5,0.37 0.45,0.24 0.35,0.15 0.26,0.05 0.13,0 0,0"/></g><g transform="translate(15,8)" id="g120"><path id="path122" style="fill:#662113;fill-opacity:1;fill-rule:nonzero;stroke:none" d="m 0,0 c -0.552,0 -1,0.447 -1,1 l 0,1 C -1,2.553 -0.552,3 0,3 0.552,3 1,2.553 1,2 L 1,1 C 1,0.447 0.552,0 0,0"/></g><g transform="translate(21,8)" id="g124"><path id="path126" style="fill:#662113;fill-opacity:1;fill-rule:nonzero;stroke:none" d="m 0,0 c -0.553,0 -1,0.447 -1,1 l 0,1 C -1,2.553 -0.553,3 0,3 0.553,3 1,2.553 1,2 L 1,1 C 1,0.447 0.553,0 0,0"/></g></g></g></g></svg>
