<svg xmlns="http://www.w3.org/2000/svg" viewBox="0 0 45 45" enable-background="new 0 0 45 45"><defs><clipPath id="a"><path d="M2 0h34v36H2V0z"/></clipPath><clipPath id="b"><path d="M0 36h36V0H0v36z"/></clipPath></defs><g><g><g clip-path="url(#a)" transform="matrix(1.25 0 0 -1.25 0 45)"><g><path fill="#77b255" d="M35 0v5c0 3.3-2.7 6-6 6H13c-3.3 0-6-2.7-6-6V0h28z"/></g><g><path fill="#f7dece" d="M16.64 10.9c0-.9 2.36-2 4.36-2 2 0 4.36 1.1 4.36 2v3.8h-8.72v-3.8z"/></g><g><path fill="#eec2ad" d="M16.63 13.03c1.22-1.38 2.73-1.75 4.37-1.75 1.63 0 3.14.37 4.36 1.75v3.5h-8.73v-3.5z"/></g><g><path fill="#f7dece" d="M14.44 23.06c0-1.44-.73-2.62-1.63-2.62-.9 0-1.63 1.18-1.63 2.62 0 1.45.73 2.63 1.64 2.63.9 0 1.64-1.2 1.64-2.64"/></g><g><path fill="#f7dece" d="M30.83 23.06c0-1.44-.73-2.62-1.64-2.62-.9 0-1.64 1.18-1.64 2.62 0 1.45.73 2.63 1.63 2.63.9 0 1.63-1.2 1.63-2.64"/></g><g><path fill="#f7dece" d="M12.48 22.04c0 5.6 3.8 10.12 8.52 10.12 4.7 0 8.52-4.53 8.52-10.12 0-5.6-3.8-10.12-8.52-10.12-4.7 0-8.52 4.53-8.52 10.12"/></g><g><path fill="#c1694f" d="M21 15.2c-2.75 0-3.6.7-3.74.85-.26.25-.26.67 0 .92.25.25.64.26.9.03.05-.04.72-.5 2.84-.5 2.2 0 2.84.5 2.84.5.26.25.66.24.9-.02.27-.25.26-.68 0-.93-.14-.15-1-.85-3.74-.85"/></g><g><path fill="#292f33" d="M21 36c5.65 0 9.18-4.65 9.18-8.12 0-3.47-.7-4.86-1.4-3.47-.72 1.4-1.43 2.78-1.43 2.78s-4.23 0-5.64 1.4c0 0 2.12-4.17-2.1 0 0 0 .7-2.8-3.54.7 0 0-2.12-1.4-2.83-4.87-.2-.96-1.4 0-1.4 3.48 0 3.47 2.82 8.12 9.17 8.12"/></g><g><path fill="#662113" d="M17 22c-.55 0-1 .45-1 1v1c0 .55.45 1 1 1s1-.45 1-1v-1c0-.55-.45-1-1-1"/></g><g><path fill="#662113" d="M25 22c-.55 0-1 .45-1 1v1c0 .55.45 1 1 1s1-.45 1-1v-1c0-.55-.45-1-1-1"/></g><g><path fill="#c1694f" d="M21.75 19.25h-1.5c-.4 0-.75.34-.75.75 0 .4.34.75.75.75h1.5c.4 0 .75-.34.75-.75 0-.4-.34-.75-.75-.75"/></g></g></g><g><g clip-path="url(#b)" transform="matrix(1.25 0 0 -1.25 0 45)"><g><path fill="#e1e8ed" d="M33 1c0-.55-.45-1-1-1H22c-.55 0-1 .45-1 1s.45 1 1 1h10c.55 0 1-.45 1-1"/></g><g><path fill="#e1e8ed" d="M20.24 14H3.76c-1.52 0-3.48-.77-2.48-3.53L4.35 2S4.75 0 7 0h20l-4 11.24c-.44 1.32-1.24 2.76-2.76 2.76"/></g><g><path fill="#99aab5" d="M19.24 14H2.76c-1.52 0-3.48-.77-2.48-3.53L3.35 2S3.75 0 6 0h20l-4 11.24c-.44 1.32-1.24 2.76-2.76 2.76"/></g><g><path fill="#e1e8ed" d="M14.02 6.72c.52-1.58.1-3.13-.95-3.48-1.05-.35-2.32.64-2.85 2.2-.52 1.58-.1 3.14.95 3.5 1.05.34 2.33-.65 2.85-2.22"/></g><g><path fill="#e1e8ed" d="M19 11.25H3c-.4 0-.75.34-.75.75 0 .4.34.75.75.75h16c.4 0 .75-.34.75-.75 0-.4-.34-.75-.75-.75"/></g></g></g></g></svg>