<svg xmlns="http://www.w3.org/2000/svg" viewBox="0 0 45 45" enable-background="new 0 0 45 45"><defs><clipPath id="a"><path d="M0 36h36V0H0v36z"/></clipPath><clipPath id="b"><path d="M0 0h32.94v36H0V0z"/></clipPath><clipPath id="c"><path d="M0 36h36V0H0v36z"/></clipPath></defs><g><g><g clip-path="url(#a)" transform="matrix(1.25 0 0 -1.25 0 45)"><g><path fill="#2a6797" d="M30.94 0v3.5c0 3.3-3.68 5.5-7 5.5h-12c-3.3 0-7-2.2-7-5.5V0h26z"/></g><g><path fill="#2a6797" d="M30 28.5c0-4.14-5.37-7.5-12-7.5S6 24.36 6 28.5c0 4.14 5.37 7.5 12 7.5s12-3.36 12-7.5"/></g><g><path fill="#0b0200" d="M17.9 30.93c4.1 0 10.93-2.05 10.93-10.95 0-8.9 0-10.94-2.05-10.94s-4.8 2.05-8.9 2.05c-4.1 0-6.78-2.06-8.9-2.06-2.28 0-2.04 8.2-2.04 10.94 0 8.9 6.84 10.95 10.95 10.95"/></g><g><path fill="#7c533e" d="M14.27 6.52c1.47-1.06 2.96-.98 3.67-.98.7 0 2.2-.08 3.66.98v5.67h-7.33V6.5z"/></g><g><path fill="#664131" d="M14.26 10.82c1.03-1.15 2.3-1.47 3.67-1.47 1.38 0 2.65.32 3.67 1.47v2.94h-7.34v-2.94z"/></g><g><path fill="#7c533e" d="M9.68 20.28c0 5.84 3.67 10.57 8.2 10.57 4.54 0 8.22-4.73 8.22-10.57 0-5.83-3.68-10.28-8.2-10.28-4.55 0-8.22 4.45-8.22 10.28"/></g><g><path fill="#df1f32" d="M17.9 12.46c-1.62 0-2.46.8-2.55.88-.27.27-.27.7 0 .97s.7.28.96.02c.05-.04.56-.5 1.6-.5 1.02 0 1.54.48 1.56.5.28.25.7.24.97-.02.26-.27.26-.7 0-.96-.1-.1-.94-.88-2.54-.88"/></g><g><path fill="#0b0200" d="M7.67 17c-.02 1-.05.22-.05.47 0 3.42 2.06-.5 2.06 1.94 0 2.45 1.36 2.7 2.73 4.06.7.68 2.06 2.03 2.06 2.03s3.43-2.08 6.16-2.08c2.74 0 5.48-1.38 5.48-4.1 0-2.75 2.05 1.57 2.05-1.85 0-.24-.02.53-.04-.47h.73c0 2 0 1.92 0 3.2 0 8.9-6.84 11.67-10.94 11.67-4.12 0-10.96-2.72-10.96-11.6 0-.8-.02-1.27 0-3.27h.73z"/></g><g><path d="M14.55 18.1c-.47 0-.85.4-.85.86v.84c0 .47.38.85.85.85s.85-.38.85-.85v-.84c0-.47-.38-.85-.85-.85"/></g><g><path d="M21.3 18.1c-.45 0-.83.4-.83.86v.84c0 .47.38.85.84.85.48 0 .86-.38.86-.85v-.84c0-.47-.38-.85-.85-.85"/></g><g><path fill="#3d2e24" d="M18.78 15.5h-1.7c-.23 0-.42.2-.42.42v.16c0 .23.2.42.43.42h1.68c.23 0 .42-.2.42-.42v-.16c0-.23-.2-.42-.42-.42"/></g><g><path fill="#4289c1" d="M11.08 7.1L6.7 5.76c-.26-.1-.54.06-.63.32l-.3.95c-.1.26.06.54.32.63L10.46 9c.26.1.54-.05.63-.3l.3-.96c.1-.26-.06-.55-.32-.63"/></g><g><path fill="#fff" d="M10.83 7.96c0-.32-.26-.58-.58-.58-.32 0-.57.26-.57.58 0 .3.25.57.57.57.32 0 .58-.26.58-.57"/></g><g><path fill="#4289c1" d="M24.84 7.1l4.38-1.35c.26-.1.54.06.63.32l.3.95c.1.26-.06.54-.32.63L25.45 9c-.26.1-.54-.05-.63-.3l-.3-.96c-.1-.26.06-.55.32-.63"/></g><g><path fill="#fff" d="M25.1 7.96c0-.32.25-.58.57-.58.32 0 .57.26.57.58 0 .3-.25.57-.57.57-.32 0-.58-.26-.58-.57"/></g><g><path fill="#2a6797" d="M8.5 27c0 1.1 4.25 2 9.5 2s9.5-.9 9.5-2-4.25-2-9.5-2-9.5.9-9.5 2"/></g><g><path fill="#4289c1" d="M27 27H9v3s3.75 2.25 9 2.25S27 30 27 30v-3z"/></g><g><path fill="#fdcb58" d="M27.5 27h-19c-.28 0-.5.23-.5.5 0 .28.23.5.5.5h19c.28 0 .5-.22.5-.5s-.22-.5-.5-.5"/></g><g><path fill="#193d59" d="M18 5.7s3.38-2.5 4.1-2.77c.15-.06-.37 3.66-.37 3.66h-7.46s-.52-3.8-.23-3.64c1 .53.9.53 3.96 2.75"/></g><g><path fill="#193d59" d="M19.3 3.15c.66 1.08.7 1.2.54.9.2.33.46 1.57.46 1.57l-2.2.96s-.15 0-.15 0l-.18-.04-.18-.07c-.22-.07.1 0 .1 0l-2-.85s.3-1.24.48-1.57c.16-.28.53-.9.53-.9S15.9 2 15.6 0h4.76c-.28 1.6-1.05 3.15-1.05 3.15"/></g><g><path fill="#4289c1" d="M13.3 9.96c.56-.57 4.7-3.4 4.7-3.4s-2.13-1.23-4.08-3.52c-.2-.23-1.55 4.63-1.6 5.7 0 .3.7 1.5.97 1.22"/></g><g><path fill="#4289c1" d="M22.73 9.96c-.57-.57-4.7-3.4-4.7-3.4s2.12-1.23 4.08-3.52c.2-.23 1.55 4.63 1.6 5.7 0 .3-.7 1.5-.97 1.22"/></g><g><path fill="#1e4b6e" d="M18.02 5.9c.4.02 1.54-.78 1.42-1.26-.46-1.82-.85-1.4-1.4-1.4-.6 0-.96-.46-1.38 1.33-.1.38.8 1.3 1.36 1.32"/></g><g><path fill="#1e4b6e" d="M20 0s-.48 2.75-1.96 2.75c-1.47 0-2-2.75-2-2.75H20"/></g></g></g><g><g clip-path="url(#b)" transform="matrix(1.25 0 0 -1.25 0 45)"><g><path fill="#7c533e" d="M11.4 20.06c0-1.44-.75-2.62-1.65-2.62-.9 0-1.64 1.18-1.64 2.62 0 1.45.74 2.63 1.65 2.63.9 0 1.64-1.2 1.64-2.64"/></g><g><path fill="#7c533e" d="M27.77 20.06c0-1.44-.73-2.62-1.63-2.62-.9 0-1.64 1.18-1.64 2.62 0 1.45.73 2.63 1.64 2.63.9 0 1.63-1.2 1.63-2.64"/></g></g></g><g><g clip-path="url(#c)" transform="matrix(1.25 0 0 -1.25 0 45)"><g><path fill="#fdcb58" d="M20.25 34.5c-.23 0-.44-.12-.57-.28-.28-.07-.67-.1-1.16.07-.13.12-.32.2-.52.2s-.38-.08-.52-.2c-.5-.17-.87-.15-1.16-.08-.13.16-.33.28-.57.28-.4 0-.75-.34-.75-.75 0-.4.34-.75.75-.75 0-3 1.5-3.75 2.25-3.75s2.25.75 2.25 3.75c.42 0 .75.34.75.75 0 .4-.33.75-.75.75"/></g></g></g></g></svg>