<?xml version="1.0" encoding="UTF-8" standalone="no"?><svg xmlns:dc="http://purl.org/dc/elements/1.1/" xmlns:cc="http://creativecommons.org/ns#" xmlns:rdf="http://www.w3.org/1999/02/22-rdf-syntax-ns#" xmlns:svg="http://www.w3.org/2000/svg" xmlns="http://www.w3.org/2000/svg" viewBox="0 0 45 45" style="enable-background:new 0 0 45 45;" xml:space="preserve" version="1.1" id="svg2"><metadata id="metadata8"><rdf:RDF><cc:Work rdf:about=""><dc:format>image/svg+xml</dc:format><dc:type rdf:resource="http://purl.org/dc/dcmitype/StillImage"/></cc:Work></rdf:RDF></metadata><defs id="defs6"><clipPath id="clipPath20" clipPathUnits="userSpaceOnUse"><path id="path22" d="M 0,36 36,36 36,0 0,0 0,36 Z"/></clipPath></defs><g transform="matrix(1.25,0,0,-1.25,0,45)" id="g10"><g transform="translate(8.9995,14)" id="g12"><path id="path14" style="fill:#ffdc5d;fill-opacity:1;fill-rule:nonzero;stroke:none" d="m 0,0 0,4 5,0 0,-4 2,0 0,-6 -9,0 0,6 2,0 z"/></g><g id="g16"><g clip-path="url(#clipPath20)" id="g18"><g transform="translate(21.916,0)" id="g24"><path id="path26" style="fill:#3b93d9;fill-opacity:1;fill-rule:nonzero;stroke:none" d="m 0,0 0.028,11.027 c 0,1.973 -1,2.973 -3,2.973 l -5,0 -2.472,-3.778 -2.528,3.778 -6,0 c -1.779,0 -1.945,-1.193 -1.945,-2.973 L -20.917,0 0,0 Z"/></g><g transform="translate(16.9443,10)" id="g28"><path id="path30" style="fill:#1b6399;fill-opacity:1;fill-rule:nonzero;stroke:none" d="m 0,0 0,-10 0.972,0 0.056,0 0,10 L 0,0 Z"/></g><g transform="translate(4.9717,10)" id="g32"><path id="path34" style="fill:#1b6399;fill-opacity:1;fill-rule:nonzero;stroke:none" d="m 0,0 0,-10 0.056,0 0.972,0 0,10 L 0,0 Z"/></g><g transform="translate(18.9995,22)" id="g36"><path id="path38" style="fill:#ffdc5d;fill-opacity:1;fill-rule:nonzero;stroke:none" d="m 0,0 0,9 -15,1 0,-9.163 0,-0.837 0.024,0 c 0.253,-3.89 3.498,-6.969 7.476,-6.969 3.736,0 6.847,2.717 7.42,6.27 0.038,0.23 0.065,0.463 0.08,0.699"/></g><g transform="translate(18.9199,21.3008)" id="g40"><path id="path42" style="fill:#ffac33;fill-opacity:1;fill-rule:nonzero;stroke:none" d="m 0,0 c 1.296,1.541 2.079,3.528 2.079,5.699 0,4.894 -3.967,8.861 -8.861,8.861 -1.327,0 -2.582,-0.302 -3.712,-0.826 0.11,0.008 0.379,0.014 0.516,0.017 -3.917,-0.03 -7.082,-3.212 -7.082,-7.136 0,-1.992 0.823,-3.785 2.14,-5.078 l 0,3.162 c 6.069,0 9.688,2.576 11.494,4.603 C -2.945,7.795 -1.907,5.53 0.08,4.883 l 0,-4.184 C 0.064,0.463 0.037,0.23 0,0"/></g><g transform="translate(14.6665,18.2773)" id="g44"><path id="path46" style="fill:#bf6952;fill-opacity:1;fill-rule:nonzero;stroke:none" d="m 0,0 -3.222,0 -3.222,0 c 0,0 0.805,-1.61 3.222,-1.61 C -0.805,-1.61 0,0 0,0"/></g><g transform="translate(11.9443,20.5)" id="g48"><path id="path50" style="fill:#bf6952;fill-opacity:1;fill-rule:nonzero;stroke:none" d="M 0,0 -1,0 C -1.276,0 -1.5,0.224 -1.5,0.5 -1.5,0.776 -1.276,1 -1,1 L 0,1 C 0.276,1 0.5,0.776 0.5,0.5 0.5,0.224 0.276,0 0,0"/></g><g transform="translate(7.9995,23)" id="g52"><path id="path54" style="fill:#662113;fill-opacity:1;fill-rule:nonzero;stroke:none" d="m 0,0 c -0.552,0 -1,0.448 -1,1 l 0,1 C -1,2.552 -0.552,3 0,3 0.552,3 1,2.552 1,2 L 1,1 C 1,0.448 0.552,0 0,0"/></g><g transform="translate(14.9995,23)" id="g56"><path id="path58" style="fill:#662113;fill-opacity:1;fill-rule:nonzero;stroke:none" d="m 0,0 c -0.552,0 -1,0.448 -1,1 l 0,1 C -1,2.552 -0.552,3 0,3 0.552,3 1,2.552 1,2 L 1,1 C 1,0.448 0.552,0 0,0"/></g><g transform="translate(32.9941,9.9531)" id="g60"><path id="path62" style="fill:#ffdc5d;fill-opacity:1;fill-rule:nonzero;stroke:none" d="m 0,0 c 0,0.016 -0.002,0.031 -0.002,0.047 l 0.008,0 0,1.364 0,4.636 -3.557,0 c -1.017,0.574 -2.192,0.906 -3.446,0.906 -1.254,0 -2.429,-0.332 -3.446,-0.906 l -3.551,0 0,-4.636 0,-1.364 0.002,0 c 0,-0.016 -0.002,-0.031 -0.002,-0.047 0,-3.354 2.39,-6.151 5.568,-6.807 0.462,-0.095 0.94,-0.146 1.429,-0.146 0.492,0 0.972,0.052 1.435,0.147 C -2.387,-6.147 0,-3.351 0,0"/></g><g transform="translate(27.4326,3.1475)" id="g64"><path id="path66" style="fill:#f4900c;fill-opacity:1;fill-rule:nonzero;stroke:none" d="m 0,0 c -0.265,-0.511 -0.433,-0.921 -0.433,-1.147 4.657,0 9,3 9,3 -1.125,3.687 -1.666,8.138 -1.666,8.138 0,4.342 -3.519,7.862 -7.861,7.862 -1.245,0 -2.418,-0.298 -3.464,-0.813 -3.33,-0.07 -6.009,-2.786 -6.009,-6.133 0,-0.828 0.166,-1.617 0.464,-2.337 -0.25,-1.61 -0.733,-4.321 -1.464,-6.717 0,0 4.344,-3 9,-3 0,0.226 -0.167,0.635 -0.431,1.146 -3.179,0.655 -5.569,3.453 -5.569,6.807 0,0.015 0.002,0.031 0.002,0.047 l -0.002,0 0,1.364 0,1.671 c 4.857,0.18 7.657,1.81 9.204,3.332 1.066,-1.257 2.765,-2.842 4.796,-3.257 l 0,-1.746 0,-1.364 -0.007,0 C 5.56,6.837 5.562,6.821 5.562,6.806 5.562,3.455 3.175,0.658 0,0"/></g><g transform="translate(28,1)" id="g68"><path id="path70" style="fill:#ffdc5d;fill-opacity:1;fill-rule:nonzero;stroke:none" d="m 0,0 0,1 0,2 0,1 -4,0 0,-1 0,-2 0,-1 -1,0 0,-1 6,0 0,1 -1,0 z"/></g><g transform="translate(26,0)" id="g72"><path id="path74" style="fill:#ea596e;fill-opacity:1;fill-rule:nonzero;stroke:none" d="M 0,0 8.817,0 C 8.3,1.602 6.659,3 5,3 L 2,3 0,0 Z"/></g><g transform="translate(22,3)" id="g76"><path id="path78" style="fill:#ea596e;fill-opacity:1;fill-rule:nonzero;stroke:none" d="M 0,0 C -2.493,0 -4.276,-1.385 -4.814,-3 L 4,-3 2,0 0,0 Z"/></g><g transform="translate(29,6)" id="g80"><path id="path82" style="fill:#bf6952;fill-opacity:1;fill-rule:nonzero;stroke:none" d="m 0,0 -3,0 -3,0 c 0,0 0.583,-2 3,-2 2.417,0 3,2 3,2"/></g><g transform="translate(26,6.5)" id="g84"><path id="path86" style="fill:#bf6952;fill-opacity:1;fill-rule:nonzero;stroke:none" d="M 0,0 C -0.131,0 -0.261,0.05 -0.351,0.15 -0.45,0.24 -0.5,0.37 -0.5,0.5 c 0,0.13 0.05,0.26 0.149,0.36 C -0.181,1.03 0.17,1.04 0.36,0.851 0.449,0.76 0.5,0.63 0.5,0.5 0.5,0.37 0.449,0.24 0.35,0.15 0.26,0.05 0.13,0 0,0"/></g><g transform="translate(23,8)" id="g88"><path id="path90" style="fill:#662113;fill-opacity:1;fill-rule:nonzero;stroke:none" d="m 0,0 c -0.552,0 -1,0.447 -1,1 l 0,1 C -1,2.553 -0.552,3 0,3 0.552,3 1,2.553 1,2 L 1,1 C 1,0.447 0.552,0 0,0"/></g><g transform="translate(29,8)" id="g92"><path id="path94" style="fill:#662113;fill-opacity:1;fill-rule:nonzero;stroke:none" d="m 0,0 c -0.553,0 -1,0.447 -1,1 l 0,1 C -1,2.553 -0.553,3 0,3 0.553,3 1,2.553 1,2 L 1,1 C 1,0.447 0.553,0 0,0"/></g></g></g></g></svg>
