<?xml version="1.0" encoding="UTF-8" standalone="no"?><svg xmlns:dc="http://purl.org/dc/elements/1.1/" xmlns:cc="http://creativecommons.org/ns#" xmlns:rdf="http://www.w3.org/1999/02/22-rdf-syntax-ns#" xmlns:svg="http://www.w3.org/2000/svg" xmlns="http://www.w3.org/2000/svg" viewBox="0 0 45 45" style="enable-background:new 0 0 45 45;" xml:space="preserve" version="1.1" id="svg2"><metadata id="metadata8"><rdf:RDF><cc:Work rdf:about=""><dc:format>image/svg+xml</dc:format><dc:type rdf:resource="http://purl.org/dc/dcmitype/StillImage"/></cc:Work></rdf:RDF></metadata><defs id="defs6"><clipPath id="clipPath20" clipPathUnits="userSpaceOnUse"><path id="path22" d="M 0,36 36,36 36,0 0,0 0,36 Z"/></clipPath></defs><g transform="matrix(1.25,0,0,-1.25,0,45)" id="g10"><g transform="translate(9,14)" id="g12"><path id="path14" style="fill:#ffdc5d;fill-opacity:1;fill-rule:nonzero;stroke:none" d="m 0,0 0,4 5,0 0,-4 2,0 0,-6 -9,0 0,6 2,0 z"/></g><g id="g16"><g clip-path="url(#clipPath20)" id="g18"><g transform="translate(21.917,0)" id="g24"><path id="path26" style="fill:#3b93d9;fill-opacity:1;fill-rule:nonzero;stroke:none" d="m 0,0 0.028,11.027 c 0,1.973 -1,2.973 -3,2.973 l -5,0 -2.472,-3.778 -2.528,3.778 -6,0 c -1.779,0 -1.945,-1.193 -1.945,-2.973 L -20.917,0 0,0 Z"/></g><g transform="translate(16.9448,10)" id="g28"><path id="path30" style="fill:#1b6399;fill-opacity:1;fill-rule:nonzero;stroke:none" d="m 0,0 0,-10 0.972,0 0.056,0 0,10 L 0,0 Z"/></g><g transform="translate(4.9722,10)" id="g32"><path id="path34" style="fill:#1b6399;fill-opacity:1;fill-rule:nonzero;stroke:none" d="m 0,0 0,-10 0.056,0 0.972,0 0,10 L 0,0 Z"/></g><g transform="translate(19,22)" id="g36"><path id="path38" style="fill:#ffdc5d;fill-opacity:1;fill-rule:nonzero;stroke:none" d="m 0,0 0,9 -15,1 0,-9.163 0,-0.837 0.024,0 c 0.253,-3.89 3.498,-6.969 7.476,-6.969 3.736,0 6.847,2.717 7.42,6.27 0.037,0.23 0.065,0.463 0.08,0.699"/></g><g transform="translate(18.9199,21.3008)" id="g40"><path id="path42" style="fill:#ffac33;fill-opacity:1;fill-rule:nonzero;stroke:none" d="m 0,0 c 1.296,1.541 2.08,3.528 2.08,5.699 0,4.894 -3.967,8.861 -8.861,8.861 -1.328,0 -2.582,-0.302 -3.713,-0.826 0.11,0.008 0.379,0.014 0.517,0.017 -3.917,-0.03 -7.083,-3.212 -7.083,-7.136 0,-1.992 0.823,-3.785 2.14,-5.078 l 0,3.162 c 6.07,0 9.688,2.576 11.495,4.603 0.48,-1.507 1.518,-3.772 3.505,-4.419 l 0,-4.184 C 0.065,0.463 0.037,0.23 0,0"/></g><g transform="translate(14.6665,18.2773)" id="g44"><path id="path46" style="fill:#bf6952;fill-opacity:1;fill-rule:nonzero;stroke:none" d="m 0,0 -3.221,0 -3.222,0 c 0,0 0.805,-1.61 3.222,-1.61 C -0.805,-1.61 0,0 0,0"/></g><g transform="translate(11.9448,20.5)" id="g48"><path id="path50" style="fill:#bf6952;fill-opacity:1;fill-rule:nonzero;stroke:none" d="M 0,0 -1,0 C -1.276,0 -1.5,0.224 -1.5,0.5 -1.5,0.776 -1.276,1 -1,1 L 0,1 C 0.276,1 0.5,0.776 0.5,0.5 0.5,0.224 0.276,0 0,0"/></g><g transform="translate(8,23)" id="g52"><path id="path54" style="fill:#662113;fill-opacity:1;fill-rule:nonzero;stroke:none" d="m 0,0 c -0.552,0 -1,0.448 -1,1 l 0,1 C -1,2.552 -0.552,3 0,3 0.552,3 1,2.552 1,2 L 1,1 C 1,0.448 0.552,0 0,0"/></g><g transform="translate(15,23)" id="g56"><path id="path58" style="fill:#662113;fill-opacity:1;fill-rule:nonzero;stroke:none" d="m 0,0 c -0.552,0 -1,0.448 -1,1 l 0,1 C -1,2.552 -0.552,3 0,3 0.552,3 1,2.552 1,2 L 1,1 C 1,0.448 0.552,0 0,0"/></g><g transform="translate(28.001,1)" id="g60"><path id="path62" style="fill:#ffdc5d;fill-opacity:1;fill-rule:nonzero;stroke:none" d="m 0,0 0,4 -4,0 0,-4 -1,0 0,-1 6,0 0,1 -1,0 z"/></g><g transform="translate(31.001,3)" id="g64"><path id="path66" style="fill:#88c9f9;fill-opacity:1;fill-rule:nonzero;stroke:none" d="m 0,0 -3,0 -2,-3 8.817,0 C 3.301,-1.398 1.659,0 0,0"/></g><g transform="translate(17.187,0)" id="g68"><path id="path70" style="fill:#88c9f9;fill-opacity:1;fill-rule:nonzero;stroke:none" d="m 0,0 3.759,0 5.055,0 -2,3 -2,0 C 4.447,3 4.095,2.969 3.759,2.912 1.818,2.586 0.458,1.377 0,0"/></g><g transform="translate(32.9951,9.9531)" id="g72"><path id="path74" style="fill:#ffdc5d;fill-opacity:1;fill-rule:nonzero;stroke:none" d="m 0,0 c 0,0.016 -0.002,0.031 -0.002,0.047 l 0.008,0 0,6 -3.557,0 c -1.017,0.574 -2.192,0.906 -3.446,0.906 -1.254,0 -2.428,-0.332 -3.446,-0.906 l -3.551,0 0,-6 0.003,0 c 0,-0.016 -0.003,-0.031 -0.003,-0.047 0,-0.145 0.013,-0.286 0.021,-0.429 0.225,-3.638 3.257,-6.524 6.976,-6.524 3.384,0 6.206,2.387 6.855,5.557 C -0.049,-0.944 0,-0.478 0,0"/></g><g transform="translate(34.335,13.1387)" id="g76"><path id="path78" style="fill:#f4900c;fill-opacity:1;fill-rule:nonzero;stroke:none" d="m 0,0 c 0,4.342 -3.52,7.861 -7.861,7.861 -1.245,0 -2.417,-0.297 -3.464,-0.812 -3.33,-0.07 -6.009,-2.786 -6.009,-6.133 0,-1.801 0.786,-3.408 2.021,-4.53 -0.008,0.142 -0.021,0.284 -0.021,0.428 0,0.016 0.003,0.032 0.003,0.047 l -0.003,0 0,3.035 c 4.856,0.181 7.656,1.811 9.204,3.333 1.066,-1.257 2.766,-2.842 4.796,-3.257 l 0,-3.111 -0.008,0 c 0,-0.015 0.002,-0.031 0.002,-0.047 0,-0.477 -0.049,-0.944 -0.141,-1.395 C -0.553,-3.29 0,-1.711 0,0"/></g><g transform="translate(29.001,6)" id="g80"><path id="path82" style="fill:#bf6952;fill-opacity:1;fill-rule:nonzero;stroke:none" d="m 0,0 -3,0 -3,0 c 0,0 0.583,-2 3,-2 2.417,0 3,2 3,2"/></g><g transform="translate(26.001,6.5)" id="g84"><path id="path86" style="fill:#bf6952;fill-opacity:1;fill-rule:nonzero;stroke:none" d="m 0,0 c -0.13,0 -0.26,0.05 -0.35,0.15 -0.1,0.09 -0.15,0.22 -0.15,0.35 0,0.13 0.05,0.26 0.15,0.36 C -0.18,1.03 0.17,1.04 0.36,0.851 0.45,0.76 0.5,0.63 0.5,0.5 0.5,0.37 0.45,0.24 0.35,0.15 0.26,0.05 0.13,0 0,0"/></g><g transform="translate(23.001,8)" id="g88"><path id="path90" style="fill:#662113;fill-opacity:1;fill-rule:nonzero;stroke:none" d="m 0,0 c -0.552,0 -1,0.447 -1,1 l 0,1 C -1,2.553 -0.552,3 0,3 0.553,3 1,2.553 1,2 L 1,1 C 1,0.447 0.553,0 0,0"/></g><g transform="translate(29.001,8)" id="g92"><path id="path94" style="fill:#662113;fill-opacity:1;fill-rule:nonzero;stroke:none" d="m 0,0 c -0.553,0 -1,0.447 -1,1 l 0,1 C -1,2.553 -0.553,3 0,3 0.553,3 1,2.553 1,2 L 1,1 C 1,0.447 0.553,0 0,0"/></g></g></g></g></svg>
