<?xml version="1.0" encoding="UTF-8" standalone="no"?><svg xmlns:dc="http://purl.org/dc/elements/1.1/" xmlns:cc="http://creativecommons.org/ns#" xmlns:rdf="http://www.w3.org/1999/02/22-rdf-syntax-ns#" xmlns:svg="http://www.w3.org/2000/svg" xmlns="http://www.w3.org/2000/svg" viewBox="0 0 45 45" style="enable-background:new 0 0 45 45;" xml:space="preserve" version="1.1" id="svg2"><metadata id="metadata8"><rdf:RDF><cc:Work rdf:about=""><dc:format>image/svg+xml</dc:format><dc:type rdf:resource="http://purl.org/dc/dcmitype/StillImage"/></cc:Work></rdf:RDF></metadata><defs id="defs6"><clipPath id="clipPath16" clipPathUnits="userSpaceOnUse"><path id="path18" d="M 0,36 36,36 36,0 0,0 0,36 Z"/></clipPath></defs><g transform="matrix(1.25,0,0,-1.25,0,45)" id="g10"><g id="g12"><g clip-path="url(#clipPath16)" id="g14"><g transform="translate(30,10)" id="g20"><path id="path22" style="fill:#ccd6dc;fill-opacity:1;fill-rule:nonzero;stroke:none" d="m 0,0 c 0,-2.209 -1.791,-4 -4,-4 l -22,0 c -2.209,0 -4,1.791 -4,4 l 0,22 c 0,2.209 1.791,4 4,4 l 22,0 c 2.209,0 4,-1.791 4,-4 L 0,0 Z"/></g><g transform="translate(28,10)" id="g24"><path id="path26" style="fill:#f5f8fa;fill-opacity:1;fill-rule:nonzero;stroke:none" d="m 0,0 c 0,-1.104 -0.896,-2 -2,-2 l -22,0 c -1.104,0 -2,0.896 -2,2 l 0,22 c 0,1.104 0.896,2 2,2 l 22,0 c 1.104,0 2,-0.896 2,-2 L 0,0 Z"/></g><g transform="translate(6,10)" id="g28"><path id="path30" style="fill:#50a5e6;fill-opacity:1;fill-rule:nonzero;stroke:none" d="m 0,0 c -0.553,0 -1,0.447 -1,1 l 0,12 c 0,0.552 0.447,1 1,1 0.553,0 1,-0.448 1,-1 L 1,1 C 1,0.447 0.553,0 0,0"/></g><g transform="translate(10,10)" id="g32"><path id="path34" style="fill:#77b255;fill-opacity:1;fill-rule:nonzero;stroke:none" d="m 0,0 c -0.553,0 -1,0.447 -1,1 l 0,17 c 0,0.552 0.447,1 1,1 0.553,0 1,-0.448 1,-1 L 1,1 C 1,0.447 0.553,0 0,0"/></g><g transform="translate(14,10)" id="g36"><path id="path38" style="fill:#dd2f45;fill-opacity:1;fill-rule:nonzero;stroke:none" d="m 0,0 c -0.553,0 -1,0.447 -1,1 l 0,7 C -1,8.552 -0.553,9 0,9 0.553,9 1,8.552 1,8 L 1,1 C 1,0.447 0.553,0 0,0"/></g><g transform="translate(36,0)" id="g40"><path id="path42" style="fill:#226798;fill-opacity:1;fill-rule:nonzero;stroke:none" d="m 0,0 0,2 c 0,3.314 -2.686,6 -6,6 l -16,0 c -3.313,0 -6,-2.686 -6,-6 l 0,-2 28,0 z"/></g><g transform="translate(16.6665,0)" id="g44"><path id="path46" style="fill:#3a87c2;fill-opacity:1;fill-rule:nonzero;stroke:none" d="m 0,0 3.534,0 -3.201,8 -2,0 -1,-6 3,-1 L 0,0 Z"/></g><g transform="translate(27.333,0)" id="g48"><path id="path50" style="fill:#3a87c2;fill-opacity:1;fill-rule:nonzero;stroke:none" d="m 0,0 -3.533,0 3.2,8 2,0 1,-6 -3,-1 L 0,0 Z"/></g><g transform="translate(17.6396,7.8994)" id="g52"><path id="path54" style="fill:#7c543e;fill-opacity:1;fill-rule:nonzero;stroke:none" d="m 0,0 c 1.744,-1.268 2.857,-2.032 4.37,-2.032 1.512,0 2.606,0.765 4.35,2.032 l 0,3.811 L 0,3.811 0,0 Z"/></g><g transform="translate(17.6318,10.0273)" id="g56"><path id="path58" style="fill:#674232;fill-opacity:1;fill-rule:nonzero;stroke:none" d="m 0,0 c 1.216,-1.374 2.724,-1.746 4.364,-1.746 1.639,0 3.147,0.373 4.364,1.746 l 0,3.491 L 0,3.491 0,0 Z"/></g><g transform="translate(15.4443,20.0645)" id="g60"><path id="path62" style="fill:#7c543e;fill-opacity:1;fill-rule:nonzero;stroke:none" d="m 0,0 c 0,-1.448 -0.734,-2.622 -1.639,-2.622 -0.904,0 -1.638,1.174 -1.638,2.622 0,1.448 0.734,2.623 1.638,2.623 C -0.734,2.623 0,1.448 0,0"/></g><g transform="translate(31.833,20.0645)" id="g64"><path id="path66" style="fill:#7c543e;fill-opacity:1;fill-rule:nonzero;stroke:none" d="m 0,0 c 0,-1.448 -0.733,-2.622 -1.639,-2.622 -0.905,0 -1.638,1.174 -1.638,2.622 0,1.448 0.733,2.623 1.638,2.623 C -0.733,2.623 0,1.448 0,0"/></g><g transform="translate(13.4775,19.0405)" id="g68"><path id="path70" style="fill:#7c543e;fill-opacity:1;fill-rule:nonzero;stroke:none" d="m 0,0 c 0,5.589 3.816,10.121 8.522,10.121 4.707,0 8.523,-4.532 8.523,-10.121 0,-5.589 -3.816,-10.121 -8.523,-10.121 C 3.816,-10.121 0,-5.589 0,0"/></g><g transform="translate(22,12.1982)" id="g72"><path id="path74" style="fill:#3e2e24;fill-opacity:1;fill-rule:nonzero;stroke:none" d="m 0,0 c -2.754,0 -3.6,0.705 -3.741,0.848 -0.256,0.256 -0.256,0.671 0,0.926 0.248,0.248 0.645,0.255 0.902,0.024 C -2.787,1.761 -2.118,1.311 0,1.311 c 2.2,0 2.836,0.485 2.842,0.49 C 3.098,2.056 3.499,2.044 3.755,1.786 4.011,1.53 3.997,1.104 3.741,0.848 3.6,0.705 2.754,0 0,0"/></g><g transform="translate(22.75,16.25)" id="g76"><path id="path78" style="fill:#3e2e24;fill-opacity:1;fill-rule:nonzero;stroke:none" d="m 0,0 -1.5,0 c -0.413,0 -0.75,0.337 -0.75,0.75 0,0.413 0.337,0.75 0.75,0.75 L 0,1.5 C 0.413,1.5 0.75,1.163 0.75,0.75 0.75,0.337 0.413,0 0,0"/></g><g transform="translate(26,19)" id="g80"><path id="path82" style="fill:#000000;fill-opacity:1;fill-rule:nonzero;stroke:none" d="m 0,0 0,0 c -0.55,0 -1,0.45 -1,1 l 0,1 C -1,2.55 -0.55,3 0,3 0.55,3 1,2.55 1,2 L 1,1 C 1,0.45 0.55,0 0,0"/></g><g transform="translate(18,19)" id="g84"><path id="path86" style="fill:#000000;fill-opacity:1;fill-rule:nonzero;stroke:none" d="m 0,0 0,0 c -0.549,0 -1,0.45 -1,1 l 0,1 C -1,2.55 -0.549,3 0,3 0.55,3 1,2.55 1,2 L 1,1 C 1,0.45 0.55,0 0,0"/></g><g transform="translate(22,32.5205)" id="g88"><path id="path90" style="fill:#0b0200;fill-opacity:1;fill-rule:nonzero;stroke:none" d="m 0,0 c 5.648,0 9.178,-4.168 9.178,-7.641 0,-3.473 -0.706,-4.863 -1.412,-3.473 -0.706,1.389 -1.412,2.778 -1.412,2.778 0,0 -4.236,0 -5.648,1.39 0,0 2.118,-4.168 -2.118,0 0,0 0.706,-2.779 -3.529,0.694 0,0 -2.119,-1.389 -2.825,-4.862 -0.195,-0.964 -1.412,0 -1.412,3.473 C -9.178,-4.168 -6.354,0 0,0"/></g><g transform="translate(20.4609,0)" id="g92"><path id="path94" style="fill:#ccd6dc;fill-opacity:1;fill-rule:nonzero;stroke:none" d="m 0,0 3.133,0 0.406,0 2,4 L 1.549,5.867 -2.461,4 -0.461,0 0,0 Z"/></g><g transform="translate(22.0313,2.043)" id="g96"><path id="path98" style="fill:#9f1d22;fill-opacity:1;fill-rule:nonzero;stroke:none" d="m 0,0 c 0.743,0 1.246,-1.025 1.562,-2.043 l 0.549,0 C 1.717,-0.78 1.27,0.395 1.27,0.395 c 0,0 0.375,0.625 0.531,0.906 0.183,0.33 0.453,1.57 0.453,1.57 L 0.066,3.834 c 0,0.006 -0.16,-0.006 -0.16,-0.006 L -0.277,3.785 -0.449,3.723 C -0.666,3.652 -0.355,3.715 -0.355,3.709 L -2.328,2.871 c 0,0 0.287,-1.24 0.469,-1.57 0.156,-0.281 0.529,-0.906 0.529,-0.906 0,0 -0.431,-1.106 -0.799,-2.438 l 0.559,0 C -1.25,-1.025 -0.743,0 0,0"/></g><g transform="translate(22.0313,2.043)" id="g100"><path id="path102" style="fill:#dd2f45;fill-opacity:1;fill-rule:nonzero;stroke:none" d="m 0,0 c -0.743,0 -1.25,-1.025 -1.57,-2.043 l 3.132,0 C 1.246,-1.025 0.743,0 0,0"/></g><g transform="translate(22.0039,5.1875)" id="g104"><path id="path106" style="fill:#dd2f45;fill-opacity:1;fill-rule:nonzero;stroke:none" d="M 0,0 C 0.391,0.023 1.543,-0.771 1.422,-1.25 0.961,-3.076 0.574,-2.641 0.031,-2.641 c -0.611,0 -0.963,-0.472 -1.39,1.313 C -1.451,-0.941 -0.562,-0.031 0,0"/></g><g transform="translate(26.7188,9.25)" id="g108"><path id="path110" style="fill:#f4f7f9;fill-opacity:1;fill-rule:nonzero;stroke:none" d="m 0,0 c -0.566,-0.566 -4.709,-3.383 -4.709,-3.383 0,0 2.127,-1.242 4.084,-3.533 0.197,-0.23 1.543,4.625 1.584,5.709 C 0.971,-0.904 0.271,0.271 0,0"/></g><g transform="translate(17.3008,9.25)" id="g112"><path id="path114" style="fill:#f4f7f9;fill-opacity:1;fill-rule:nonzero;stroke:none" d="m 0,0 c 0.566,-0.566 4.709,-3.383 4.709,-3.383 0,0 -2.127,-1.242 -4.084,-3.533 -0.197,-0.23 -1.543,4.625 -1.584,5.709 C -0.971,-0.904 -0.271,0.271 0,0"/></g></g></g></g></svg>
