<svg xmlns="http://www.w3.org/2000/svg" viewBox="0 0 45 45" enable-background="new 0 0 45 45"><defs><clipPath id="a"><path d="M0 36h36V0H0v36z"/></clipPath></defs><g><g><g clip-path="url(#a)" transform="matrix(1.25 0 0 -1.25 0 45)"><g><path fill="#269" d="M32 0v4c0 3.3-2.7 6-6 6H10c-3.3 0-6-2.7-6-6V0h28z"/></g><g><path fill="#f7dece" d="M14 10l4-5 4 5v4h-8v-4z"/></g><g><path fill="#eec2ad" d="M14 12c1.22-1.37 2.35-1.72 4-1.72 1.63 0 2.78.35 4 1.72v4h-8v-4z"/></g><g><path fill="#f7dece" d="M11.44 22.06c0-1.44-.73-2.62-1.63-2.62-.9 0-1.63 1.18-1.63 2.62 0 1.45.73 2.63 1.64 2.63.9 0 1.64-1.2 1.64-2.64"/></g><g><path fill="#ffdc5d" d="M27.83 22.06c0-1.44-.73-2.62-1.64-2.62-.9 0-1.64 1.18-1.64 2.62 0 1.45.73 2.63 1.63 2.63.9 0 1.63-1.2 1.63-2.64"/></g><g><path fill="#f7dece" d="M9.48 21.04c0 5.6 3.8 10.12 8.52 10.12 4.7 0 8.52-4.53 8.52-10.12 0-5.6-3.8-10.12-8.52-10.12-4.7 0-8.52 4.53-8.52 10.12"/></g><g><path fill="#c1694f" d="M18 14.2c-2.75 0-3.6.7-3.74.85-.26.25-.26.67 0 .92.25.25.64.26.9.03.05-.04.72-.5 2.84-.5 2.2 0 2.84.5 2.84.5.26.25.66.24.9-.02.27-.25.26-.68 0-.93-.14-.15-1-.85-3.74-.85"/></g><g><path fill="#292f33" d="M18 34.52c5.65 0 9.18-4.17 9.18-7.64 0-3.47-.7-4.86-1.4-3.47-.72 1.4-1.43 2.78-1.43 2.78s-4.23 0-5.64 1.4c0 0 2.12-4.17-2.1 0 0 0 .7-2.78-3.54.7 0 0-2.12-1.4-2.83-4.87-.2-.96-1.4 0-1.4 3.48 0 3.47 2.82 7.64 9.17 7.64"/></g><g><path fill="#662113" d="M14 21c-.55 0-1 .45-1 1v1c0 .55.45 1 1 1s1-.45 1-1v-1c0-.55-.45-1-1-1"/></g><g><path fill="#662113" d="M22 21c-.55 0-1 .45-1 1v1c0 .55.45 1 1 1s1-.45 1-1v-1c0-.55-.45-1-1-1"/></g><g><path fill="#c1694f" d="M18.75 18.25h-1.5c-.4 0-.75.34-.75.75 0 .4.34.75.75.75h1.5c.4 0 .75-.34.75-.75 0-.4-.34-.75-.75-.75"/></g><g><path fill="#ccd6dd" d="M14 6l3-6h2l3 6-4 1.87L14 6z"/></g><g><path fill="#a0041e" d="M19.3 4.44s.38.62.53.9c.2.33.45 1.57.45 1.57l-2.18.98s-.16 0-.16 0l-.2-.05-.16-.06c-.22-.07.1 0 .1-.02L15.7 6.9s.3-1.23.47-1.56c.16-.28.53-.9.53-.9S15.75 2 15.47 0h5.2c-.3 1.6-1.37 4.44-1.37 4.44"/></g><g><path fill="#dd2e44" d="M18 7.2c.4 0 1.55-.78 1.43-1.26-.47-1.83-.85-1.4-1.4-1.4-.6 0-.96-.47-1.4 1.32-.08.4.8 1.3 1.37 1.33"/></g><g><path fill="#dd2e44" d="M20.04 0H16s.56 4.04 2.03 4.04c1.48 0 2-4.04 2-4.04"/></g><g><path fill="#3b88c3" d="M13 10h-2l-1-6 3-1-1-3h5l-4 10z"/></g><g><path fill="#3b88c3" d="M23 10h2l1-6-3-1 1-3h-5l4 10z"/></g><g><path fill="#f5f8fa" d="M13.38 11.22c.56-.57 4.7-3.38 4.7-3.38S15.96 6.6 14 4.3c-.2-.23-1.54 4.63-1.58 5.7-.02.3.68 1.5.96 1.22"/></g><g><path fill="#f5f8fa" d="M22.72 11.25c-.57-.57-4.7-3.38-4.7-3.38s2.12-1.25 4.07-3.54c.2-.23 1.54 4.63 1.58 5.7 0 .32-.7 1.5-.96 1.22"/></g><g><path fill="#66757f" d="M27 22.06c-.02 0-.03 0-.05 0-.27.03-.47.28-.45.55 0 .06.4 4.6-2.23 7.5-1.45 1.6-3.58 2.4-6.32 2.4-6.02 0-8-4.5-8.66-7.2-.07-.26-.34-.43-.6-.36-.28.06-.44.33-.38.6.72 2.97 2.93 7.96 9.63 7.96 3.04 0 5.42-.92 7.07-2.74 2.92-3.22 2.5-8.04 2.48-8.24-.03-.26-.25-.46-.5-.46"/></g><g><path fill="#66757f" d="M26 24s0 .5.5.5H28s1 0 1-1V20s0-1-1-1h-1.5s-.5 0-.5.5V24z"/></g><g><path fill="#66757f" d="M9.5 24.06h-1c-.28 0-.5.23-.5.5v2c0 .28.22.5.5.5h1c.28 0 .5-.22.5-.5v-2c0-.27-.22-.5-.5-.5"/></g><g><path fill="#66757f" d="M19.5 11.06v1c6.44 0 6.98 6.75 7 7.04l1-.07c0-.08-.62-7.97-8-7.97"/></g><g><path fill="#292f33" d="M16 11.06c0-.55.45-1 1-1h2c.55 0 1 .45 1 1v1c0 .56-.45 1-1 1h-2c-.55 0-1-.44-1-1v-1z"/></g></g></g></g></svg>