<svg xmlns="http://www.w3.org/2000/svg" viewBox="0 0 45 45" enable-background="new 0 0 45 45"><defs><clipPath id="a"><path d="M0 0h36v36H0V0z"/></clipPath><clipPath id="b"><path d="M0 36h36V0H0v36z"/></clipPath><clipPath id="c"><path d="M0 0h36v36H0V0z"/></clipPath><clipPath id="d"><path d="M0 36h36V0H0v36z"/></clipPath></defs><g><g><g clip-path="url(#a)" transform="matrix(1.25 0 0 -1.25 0 45)"><g><path fill="#ffac33" d="M3 36c-1.72 0-3.34-.4-4.8-1.1-.4.06-.8.1-1.2.1-3.87 0-7-3.13-7-7V16h.02C-9.8 9.53-4.5 4.34 2 4.34c6.5 0 11.8 5.2 11.98 11.66H14v9c0 6.08-4.92 11-11 11"/></g><g><path fill="#9268ca" d="M11 9H-7c-2.2 0-4-1.8-4-4V0h26v5c0 2.2-1.8 4-4 4"/></g><path fill="#7450a8" d="M11 0h-1v4h1V0z"/><g><path fill="#ffdc5d" d="M5 8v5h-6V8C-1 6.34.34 5 2 5s3 1.34 3 3"/></g><g><path fill="#ffdc5d" d="M-2 31h-5V19c0-4.97 4.03-9 9-9s9 4.03 9 9v5.02C-.1 24.4-2 31-2 31"/></g><g><path fill="#df1f32" d="M6 14h-8s1-2 4-2 4 2 4 2"/></g></g></g><g><g clip-path="url(#b)" transform="matrix(1.25 0 0 -1.25 0 45)"><g><path fill="#662113" d="M6 20c-.55 0-1 .45-1 1v1c0 .55.45 1 1 1s1-.45 1-1v-1c0-.55-.45-1-1-1"/></g><g><path fill="#c1694f" d="M3 16.5H1c-.28 0-.5.22-.5.5s.22.5.5.5h2c.28 0 .5-.22.5-.5s-.22-.5-.5-.5"/></g></g></g><g><g clip-path="url(#c)" transform="matrix(1.25 0 0 -1.25 0 45)"><g><path fill="#ffac33" d="M44 25c0-6.08-4.92-11-11-11s-11 4.92-11 11 4.92 11 11 11 11-4.92 11-11"/></g><g><path fill="#ffdc5d" d="M37 9v5h-6V9h-2V1h10v8h-2z"/></g><g><path fill="#ffdc5d" d="M42 31v-7c-8.45 0-11.94 3.47-13.27 5.52-.42-1.8-1.43-4.7-3.73-5.36V19c0-4.97 4.03-9 9-9s9 4.03 9 9v12h-1z"/></g><g><path fill="#4289c1" d="M25 9h6l3-5 3 5.1 6-.1c2.2 0 4-1.8 4-4V0H21v5c0 2.2 1.8 4 4 4"/></g><path fill="#2a6797" d="M25 0h1v4h-1V0z"/><g><path fill="#c1694f" d="M30 14h8s-1-2-4-2-4 2-4 2"/></g></g></g><g><g clip-path="url(#d)" transform="matrix(1.25 0 0 -1.25 0 45)"><g><path fill="#662113" d="M30 20c-.55 0-1 .45-1 1v1c0 .55.45 1 1 1s1-.45 1-1v-1c0-.55-.45-1-1-1"/></g><g><path fill="#c1694f" d="M35 16.5h-2c-.28 0-.5.22-.5.5s.22.5.5.5h2c.28 0 .5-.22.5-.5s-.22-.5-.5-.5"/></g><g><path fill="#e75a70" d="M26.54 31.3c0 2.6-2.1 4.7-4.7 4.7-1.6 0-2.98-.78-3.84-1.97-.86 1.2-2.25 1.97-3.83 1.97-2.6 0-4.7-2.1-4.7-4.7 0-.38.04-.74.12-1.08.64-4.07 5.16-8.35 8.4-9.53 3.24 1.17 7.76 5.45 8.4 9.52.1.34.14.7.14 1.07"/></g></g></g></g></svg>