<svg xmlns="http://www.w3.org/2000/svg" viewBox="0 0 45 45" enable-background="new 0 0 45 45"><defs><clipPath id="a"><path d="M0 36h36V0H0v36z"/></clipPath></defs><g><g><g clip-path="url(#a)" transform="matrix(1.25 0 0 -1.25 0 45)"><g><path fill="#ffac33" d="M11 19c0-3.92-2.5-7.24-6-8.48V9h6c.15 0 .3-.03.43-.04 1.53 1.95 2.48 4.38 2.55 7.04H14v9c0 6.08-4.92 11-11 11-1.04 0-2.04-.17-3-.44v-7.58c1.8-1.8 5.08-3.76 11-3.96V19z"/></g><g><path fill="#9268ca" d="M11.43 8.96c-.14 0-.28.04-.43.04H5V8c0-1.66-1.34-3-3-3-.77 0-1.47.3-2 .78V0h15v5c0 2.06-1.57 3.74-3.57 3.96"/></g><path fill="#7450a8" d="M10 0h1v4h-1V0z"/><g><path fill="#ffdc5d" d="M5 8v2.52C4.06 10.2 3.05 10 2 10c-.7 0-1.36.08-2 .23V5.78C.53 5.3 1.23 5 2 5c1.66 0 3 1.34 3 3"/></g><g><path fill="#ffdc5d" d="M5 21v1c0 .55.45 1 1 1s1-.45 1-1v-1c0-.55-.45-1-1-1s-1 .45-1 1m-2-4.5H1c-.28 0-.5.22-.5.5s.22.5.5.5h2c.28 0 .5-.22.5-.5s-.22-.5-.5-.5m2-5.98c3.5 1.24 6 4.56 6 8.48v5.02c-5.92.2-9.2 2.17-11 3.96V14h6s-1-2-4-2c-.8 0-1.46.15-2 .36v-2.13c.64-.15 1.3-.23 2-.23 1.05 0 2.06.2 3 .52"/></g><g><path fill="#bb1a34" d="M6 14H0v-1.64c.54-.2 1.2-.36 2-.36 3 0 4 2 4 2"/></g><g><path fill="#662113" d="M7 21v1c0 .55-.45 1-1 1s-1-.45-1-1v-1c0-.55.45-1 1-1s1 .45 1 1"/></g><g><path fill="#bf6952" d="M3 17.5H1c-.28 0-.5-.22-.5-.5s.22-.5.5-.5h2c.28 0 .5.22.5.5s-.22.5-.5.5"/></g><g><path fill="#ffac33" d="M25 19c0-3.92 2.5-7.24 6-8.48V9h-6c-.15 0-.3-.03-.43-.04-1.53 1.95-2.48 4.38-2.55 7.04H22v9c0 6.08 4.92 11 11 11 1.04 0 2.04-.17 3-.44v-7.58c-1.8-1.8-5.08-3.76-11-3.96V19z"/></g><g><path fill="#9268ca" d="M24.57 8.96c.14 0 .28.04.43.04h6V8c0-1.66 1.34-3 3-3 .77 0 1.47.3 2 .78V0H21v5c0 2.06 1.57 3.74 3.57 3.96"/></g><g><path fill="#7450a8" d="M26 4V0h-1v4h1z"/></g><g><path fill="#ffdc5d" d="M31 8v2.52c.94-.33 1.95-.52 3-.52.7 0 1.36.08 2 .23V5.78C35.47 5.3 34.77 5 34 5c-1.66 0-3 1.34-3 3"/></g><g><path fill="#ffdc5d" d="M30 20c-.55 0-1 .45-1 1v1c0 .55.45 1 1 1s1-.45 1-1v-1c0-.55-.45-1-1-1m2.5-3c0 .28.22.5.5.5h2c.28 0 .5-.22.5-.5s-.22-.5-.5-.5h-2c-.28 0-.5.22-.5.5m1.5-7c.7 0 1.36.08 2 .23v2.13c-.54-.2-1.2-.36-2-.36-3 0-4 2-4 2h6v13.98c-1.8-1.8-5.08-3.76-11-3.96V19c0-3.92 2.5-7.24 6-8.48.94-.33 1.95-.52 3-.52"/></g><g><path fill="#bb1a34" d="M30 14h6v-1.64c-.54-.2-1.2-.36-2-.36-3 0-4 2-4 2"/></g><g><path fill="#662113" d="M29 21v1c0 .55.45 1 1 1s1-.45 1-1v-1c0-.55-.45-1-1-1s-1 .45-1 1"/></g><g><path fill="#bf6952" d="M33 17.5h2c.28 0 .5-.22.5-.5s-.22-.5-.5-.5h-2c-.28 0-.5.22-.5.5s.22.5.5.5"/></g><g><path fill="#e75a70" d="M26.54 31.3c0 2.6-2.1 4.7-4.7 4.7-1.6 0-2.98-.78-3.84-1.97-.86 1.2-2.25 1.97-3.83 1.97-2.6 0-4.7-2.1-4.7-4.7 0-.38.04-.74.12-1.08.64-4.07 5.16-8.35 8.4-9.53 3.24 1.17 7.76 5.45 8.4 9.52.1.34.14.7.14 1.07"/></g></g></g></g></svg>