<svg xmlns="http://www.w3.org/2000/svg" viewBox="0 0 45 45" enable-background="new 0 0 45 45"><defs><clipPath id="a"><path d="M0 36h36V0H0v36z"/></clipPath><clipPath id="b"><path d="M15 25h14v-5H15v5z"/></clipPath></defs><g><g><g clip-path="url(#a)" transform="matrix(1.25 0 0 -1.25 0 45)"><g><path fill="#ccd6dd" d="M36 0v4c0 3.3-2.7 6-6 6H14c-3.3 0-6-2.7-6-6V0h28z"/></g><g><path fill="#f7dece" d="M18 9l4-4 4 4v5h-8V9z"/></g><g><path fill="#eec2ad" d="M18 12c1.22-1.37 2.35-1.72 4-1.72 1.63 0 2.78.35 4 1.72v4h-8v-4z"/></g><g><path fill="#f7dece" d="M15.44 22.06c0-1.44-.73-2.62-1.63-2.62-.9 0-1.63 1.18-1.63 2.62 0 1.45.73 2.63 1.64 2.63.9 0 1.64-1.2 1.64-2.64"/></g><g><path fill="#f7dece" d="M31.83 22.06c0-1.44-.73-2.62-1.64-2.62-.9 0-1.64 1.18-1.64 2.62 0 1.45.73 2.63 1.63 2.63.9 0 1.63-1.2 1.63-2.64"/></g><g><path fill="#f7dece" d="M13.48 21.04c0 5.6 3.8 10.12 8.52 10.12 4.7 0 8.52-4.53 8.52-10.12 0-5.6-3.8-10.12-8.52-10.12-4.7 0-8.52 4.53-8.52 10.12"/></g><g><path fill="#c1694f" d="M22 14.2c-2.75 0-3.6.7-3.74.85-.26.25-.26.67 0 .92.25.25.64.26.9.03.05-.04.72-.5 2.84-.5 2.2 0 2.84.5 2.84.5.26.25.66.24.9-.02.27-.25.26-.68 0-.93-.14-.15-1-.85-3.74-.85"/></g><g><path fill="#292f33" d="M22 34.52c5.65 0 9.18-4.17 9.18-7.64 0-3.47-.7-4.86-1.4-3.47-.72 1.4-1.43 2.78-1.43 2.78s-4.23 0-5.64 1.4c0 0 2.12-4.17-2.1 0 0 0 .7-2.78-3.54.7 0 0-2.12-1.4-2.83-4.87-.2-.96-1.4 0-1.4 3.48 0 3.47 2.82 7.64 9.17 7.64"/></g><g><path fill="#662113" d="M18 21c-.55 0-1 .45-1 1v1c0 .55.45 1 1 1s1-.45 1-1v-1c0-.55-.45-1-1-1"/></g><g><path fill="#662113" d="M26 21c-.55 0-1 .45-1 1v1c0 .55.45 1 1 1s1-.45 1-1v-1c0-.55-.45-1-1-1"/></g><g><path fill="#c1694f" d="M22.75 18.25h-1.5c-.4 0-.75.34-.75.75 0 .4.34.75.75.75h1.5c.4 0 .75-.34.75-.75 0-.4-.34-.75-.75-.75"/></g><g><path fill="#e1e8ed" d="M2 0S0 0 0 2c0 .18.12.9 1 2l4 5v5s-2 0-2 2 2 2 2 2h5s2 0 2-2-2-2-2-2V9l4-5c1.15-1.44 1-1.87 1-2 0-2-2-2-2-2H2z"/></g><g><path fill="#9266cc" d="M.53 1.78L1.5.48h12.03l1 1.77-3.1 4.03h-8.4L.53 1.94"/></g><g><path fill="#9266cc" d="M8 25c0-.55-.45-1-1-1s-1 .45-1 1 .45 1 1 1 1-.45 1-1"/></g><g><path fill="#9266cc" d="M10 20c0-.55-.45-1-1-1s-1 .45-1 1 .45 1 1 1 1-.45 1-1"/></g><g><path fill="#9266cc" d="M7 21.5c0-.83-.67-1.5-1.5-1.5S4 20.67 4 21.5 4.67 23 5.5 23 7 22.33 7 21.5"/></g><g><path fill="#a8bccc" d="M10 18H5s-2 0-2-2 2-2 2-2V9L1 4C.12 2.9 0 2.18 0 2c0-2 2-2 2-2h11s2 0 2 2c0 .13.15.56-1 2l-4 5v5s2 0 2 2-2 2-2 2m0-1c.45 0 1-.2 1-1s-.55-1-1-1H9V8.65l.22-.27 4-5c.73-.92.8-1.25.8-1.26L14 2.04V2c0-.8-.55-1-1-1H2c-.45 0-1 .2-1 .97 0 0 .06.5.78 1.4l4 5 .22.28v6.33L5 15c-.45 0-1 .2-1 1s.55 1 1 1h5"/></g><g><path fill="#66757f" d="M19.06 0L18 9.22s1.4-1.65 4-1.65 4.22 1.65 4.22 1.65L25 0H19.06z"/></g><g><path fill="#f5f8fa" d="M18.08 10.75C18.65 10.18 21 0 21 0h-3.16l-1.7 2.56 1.7 2.84-2 .63.24 3.96s1.73 1.02 2 .75"/></g><g><path fill="#f5f8fa" d="M25.92 10.75C25.35 10.18 23 0 23 0h3.16l1.7 2.56-1.7 2.84 2 .63-.24 3.96s-1.73 1.02-2 .75"/></g><g><g><g clip-path="url(#b)" opacity=".4"><g><path fill="#fff" d="M15 22v3h14v-5H15v2z"/></g></g></g></g><g><path fill="#f5f8fa" d="M29 22c0-1.32-.85-2-3-2-1.54 0-2.8 1-4 1-1.2 0-2.46-1-4-1-2.15 0-3 .68-3 2v3h14v-3zm0 4H15c-1 0-1-1-1-1v-4c0-1.46 2.33-2 4-2s2.6 1 4 1 2.33-1 4-1 4 .54 4 2v4c0 1-1 1-1 1"/></g></g></g></g></svg>