<svg xmlns="http://www.w3.org/2000/svg" viewBox="0 0 45 45" enable-background="new 0 0 45 45"><defs><clipPath id="a"><path d="M0 0h36v36H0V0z"/></clipPath></defs><g><g><g clip-path="url(#a)" transform="matrix(1.25 0 0 -1.25 0 45)"><g><path fill="#e1e8ed" d="M31 0v3.5C31 6.8 27.3 9 24 9H12C8.7 9 5 6.8 5 3.5V0h26z"/></g><g><path fill="#292f33" d="M30 28.5c0-4.14-5.37-7.5-12-7.5S6 24.36 6 28.5c0 4.14 5.37 7.5 12 7.5s12-3.36 12-7.5"/></g><g><path fill="#0b0200" d="M17.94 30.93c4.1 0 10.95-2.05 10.95-10.95 0-8.9 0-10.94-2.06-10.94-2.05 0-4.8 2.05-8.9 2.05-4.1 0-6.78-2.06-8.9-2.06C6.77 9.04 7 17.24 7 19.98c0 8.9 6.84 10.95 10.94 10.95"/></g><g><path fill="#7c533e" d="M14.33 8.98C15.8 7.92 17.3 7 18 7c.7 0 2.2.92 3.66 1.98v3.2h-7.33V9z"/></g><g><path fill="#664131" d="M14.32 10.82c1.02-1.15 2.3-1.47 3.67-1.47s2.64.32 3.66 1.47v2.94h-7.34v-2.94z"/></g><g><path fill="#7c533e" d="M9.73 20.28c0 5.84 3.68 10.57 8.2 10.57 4.55 0 8.22-4.73 8.22-10.57 0-5.83-3.67-10.28-8.2-10.28-4.54 0-8.22 4.45-8.22 10.28"/></g><g><path fill="#df1f32" d="M17.94 12.46c-1.6 0-2.44.8-2.53.88-.26.27-.26.7 0 .97.27.27.7.28.97.02.03-.04.55-.5 1.57-.5 1.04 0 1.56.48 1.58.5.28.25.7.24.96-.02.26-.27.26-.7 0-.96-.1-.1-.93-.88-2.54-.88"/></g><g><path fill="#0b0200" d="M7.73 17c-.03 1-.05.22-.05.47 0 3.42 2.05-.5 2.05 1.94 0 2.45 1.37 2.7 2.74 4.06.7.68 2.05 2.03 2.05 2.03s3.42-2.08 6.16-2.08 5.48-1.38 5.48-4.1c0-2.75 2.05 1.57 2.05-1.85 0-.24 0 .53-.03-.47h.72c0 2 0 1.92 0 3.2 0 8.9-6.85 12.2-10.96 12.2C13.84 32.4 7 29.16 7 20.27c0-.8-.02-1.26 0-3.26h.73z"/></g><g><path d="M14.6 18.1c-.46 0-.84.4-.84.86v.84c0 .47.38.85.85.85s.85-.38.85-.85v-.84c0-.47-.38-.85-.84-.85"/></g><g><path d="M21.37 18.1c-.46 0-.84.4-.84.86v.84c0 .47.38.85.84.85.47 0 .85-.38.85-.85v-.84c0-.47-.38-.85-.85-.85"/></g><g><path fill="#3d2e24" d="M18.84 15.5h-1.7c-.23 0-.42.2-.42.42v.16c0 .23.2.42.43.42h1.7c.22 0 .4-.2.4-.42v-.16c0-.23-.18-.42-.4-.42"/></g><g><path fill="#292f33" d="M8.5 27c0 1.1 4.25 2 9.5 2s9.5-.9 9.5-2-4.25-2-9.5-2-9.5.9-9.5 2"/></g><g><path fill="#66757f" d="M27.5 28h-19v3.45S12.46 35 18 35s9.5-3.55 9.5-3.55V28z"/></g><g><path fill="#ffac33" d="M15 31c0 2.8 1.34 1 3 1s3 1.8 3-1c0-1.66-1.34-2-3-2s-3 .34-3 2"/></g><g><path fill="#fdcb58" d="M16 31c0 1.1.9 2 2 2s2-.9 2-2-.9-2-2-2-2 .9-2 2"/></g><g><path fill="#fdcb58" d="M27.5 27h-19c-.28 0-.5.23-.5.5 0 .28.23.5.5.5h19c.28 0 .5-.22.5-.5s-.22-.5-.5-.5"/></g><g><path fill="#292f33" d="M11.58 6.94L5.65 6c-.27-.04-.53.15-.57.42l-.16 1c-.04.26.15.52.42.56l5.93.94c.27.04.52-.14.57-.4l.15-1c.04-.27-.15-.53-.42-.58"/></g><g><path fill="#fdcb58" d="M7.13 6.24l-.98-.15-.32 1.96 1 .16.3-1.98z"/></g><g><path fill="#fdcb58" d="M9.1 6.55l-.98-.15-.3 1.97.98.16.3-1.98z"/></g><g><path fill="#fdcb58" d="M11.08 6.87l-.98-.16-.32 2 1 .14.3-1.97z"/></g><g><path fill="#292f33" d="M30.35 6l-5.93.94c-.27.05-.46.3-.4.58l.14.98c.05.28.3.46.58.42l5.92-.94c.27-.04.46-.3.42-.57l-.16-.98c-.04-.27-.3-.46-.57-.4"/></g><g><path fill="#fdcb58" d="M25.9 6.7l-.98.17.3 1.97 1-.15-.32-2z"/></g><g><path fill="#fdcb58" d="M27.88 6.4l-1 .15.32 1.98 1-.16-.32-1.97z"/></g><g><path fill="#fdcb58" d="M29.85 6.08l-.98.16.3 1.98 1-.16-.32-1.98z"/></g><g><path fill="#99aab5" d="M18 5.12s3.38-2.5 4.1-2.78c.15-.06-.37 3.66-.37 3.66h-7.46s-.52-3.78-.23-3.62c.64.34 3.96 2.74 3.96 2.74"/></g><g><path fill="#292f33" d="M19.3 2.56s.4.63.54.9c.2.34.46 1.58.46 1.58L18.1 6s-.15 0-.15 0l-.18-.05-.18-.06c-.22-.08.1-.02.1-.02l-2-.84s.3-1.24.48-1.57c.16-.28.53-.9.53-.9S15.97 2 15.7 0h4.66c-.28 1.6-1.03 2.56-1.03 2.56"/></g><g><path fill="#f5f8fa" d="M13.3 9.38c.56-.57 4.7-3.4 4.7-3.4s-2.13-1.23-4.08-3.52c-.2-.23-1.55 4.62-1.6 5.7 0 .3.7 1.5.97 1.2"/></g><g><path fill="#f5f8fa" d="M22.73 9.38c-.57-.57-4.7-3.4-4.7-3.4s2.12-1.23 4.08-3.52c.2-.23 1.55 4.62 1.6 5.7 0 .3-.7 1.5-.97 1.2"/></g><g><path fill="#323a3f" d="M18.02 5.3c.4.03 1.54-.76 1.42-1.24-.46-1.82-.85-1.4-1.4-1.4-.6 0-.96-.46-1.38 1.32-.1.4.8 1.3 1.36 1.33"/></g><g><path fill="#323a3f" d="M20.05 0h-4.03s.54 2.17 2.02 2.17 2-2.17 2-2.17"/></g></g></g></g></svg>