<svg xmlns="http://www.w3.org/2000/svg" viewBox="0 0 45 45" enable-background="new 0 0 45 45"><defs><clipPath id="a"><path d="M0 0h36v36H0V0z"/></clipPath></defs><g><g><g clip-path="url(#a)" transform="matrix(1.25 0 0 -1.25 0 45)"><g><path fill="#ffac33" d="M15.54 35.2c-.33 0-.66-.04-.98-.1-1.17.57-2.17.9-3.56.9-4.9 0-9-4.1-9-9v-7c.15-5.22 4.24-9.57 9.5-9.57S20.85 14.78 21 20v10c0 3.12-2.34 5.2-5.46 5.2"/></g><g><path fill="#ffdc5d" d="M4 32V22c.25-3.9 3.52-6.97 7.5-6.97S18.75 18.1 19 22v10H4z"/></g><g><path fill="#ffac33" d="M15.63 32.33c.25.4.37.67.37.67L4 32l-.58-5.7c5.7 0 9.03 2.3 10.82 4.22C14.64 29.04 15.8 27 19 27v6l-3.37-.67z"/></g><g><path fill="#bf6952" d="M12 20.5h-1c-.28 0-.5.22-.5.5s.22.5.5.5h1c.28 0 .5-.22.5-.5s-.22-.5-.5-.5"/></g><g><path fill="#662113" d="M8 23c-.55 0-1 .45-1 1v1c0 .55.45 1 1 1s1-.45 1-1v-1c0-.55-.45-1-1-1"/></g><g><path fill="#662113" d="M15 23c-.55 0-1 .45-1 1v1c0 .55.45 1 1 1s1-.45 1-1v-1c0-.55-.45-1-1-1"/></g><g><path fill="#9268ca" d="M19 14H3c-1.78 0-1.95-1.2-1.95-2.97V0H22v11.03C22 13 21 14 19 14"/></g><path fill="#7450a8" d="M18.03 0H17v10h1.03V0z"/><path fill="#7450a8" d="M6.03 0H5v10h1.03V0z"/><g><path fill="#ffdc5d" d="M9 17v-3c0-1.38 1.12-2.5 2.5-2.5S14 12.62 14 14v3H9z"/></g><g><path fill="#da2f47" d="M8.27 18.23h6.46s-.8-1.6-3.23-1.6c-2.42 0-3.23 1.6-3.23 1.6"/></g><g><path fill="#f4900c" d="M26.47 21c-1.24 0-2.4-.3-3.46-.8-3.32-.08-6-2.8-6-6.15 0-2.2 1.15-4.1 2.9-5.2 1.4-2.15 3.8-3.57 6.57-3.57 4.34 0 7.86 3.52 7.86 7.86S30.8 21 26.47 21"/></g><g><path fill="#ffdc5d" d="M28 1v4h-4V1h-1V0h6v1h-1z"/></g><g><path fill="#f4900c" d="M34.33 13.14S34.88 8.7 36 5c0 0-4.34-3-9-3 0 1.56 7.33 11.14 7.33 11.14"/></g><g><path fill="#f4900c" d="M17.67 13.14S17.12 8.7 16 5c0 0 4.34-3 9-3 0 1.56-7.33 11.14-7.33 11.14"/></g><g><path fill="#ffdc5d" d="M33 16h-3.56c-1 .57-2.2.9-3.44.9-1.26 0-2.43-.33-3.45-.9H19v-6c0-.02 0-.03 0-.05C19 6.1 22.13 3 26 3c3.86 0 7 3.1 7 6.95 0 .02 0 .03 0 .05v6z"/></g><g><path fill="#bf6952" d="M29 6h-6s.58-2 3-2 3 2 3 2"/></g><g><path fill="#bf6952" d="M26 6.5c-.13 0-.26.05-.35.15-.1.1-.15.22-.15.35 0 .13.05.26.15.36.17.17.52.18.7 0 .1-.1.15-.23.15-.36 0-.13-.05-.26-.15-.35-.1-.1-.22-.15-.35-.15"/></g><g><path fill="#662113" d="M23 8c-.55 0-1 .45-1 1v1c0 .55.45 1 1 1s1-.45 1-1V9c0-.55-.45-1-1-1"/></g><g><path fill="#662113" d="M29 8c-.55 0-1 .45-1 1v1c0 .55.45 1 1 1s1-.45 1-1V9c0-.55-.45-1-1-1"/></g><g><path fill="#f4900c" d="M34 13l-1 4-3 2-11-1-.86-5c5.4 0 8.42 1.75 10.06 3.37C29.44 14.9 31.53 13 34 13"/></g><g><path fill="#ffdc5d" d="M28 4h-4V2s2-1 4 0v2z"/></g><g><path fill="#ea596e" d="M31 3h-3l-2-3-2 3h-2c-3 0-5-2-5-4v-1h18v1c0 1.97-2 4-4 4"/></g></g></g></g></svg>