<svg xmlns="http://www.w3.org/2000/svg" viewBox="0 0 45 45" enable-background="new 0 0 45 45"><defs><clipPath id="a"><path d="M0 0h36v36H0V0z"/></clipPath></defs><g><g><g clip-path="url(#a)" transform="matrix(1.25 0 0 -1.25 0 45)"><g><path fill="#ce9e5d" d="M32 0v2c0 3.3-2.7 6-6 6H10C6.7 8 4 5.3 4 2V0h28z"/></g><g><path fill="#a0041e" d="M32 22.34c0-3.6-6.27-6.5-14-6.5s-14 2.9-14 6.5 6.27 2.5 14 2.5 14 1.1 14-2.5"/></g><g><path fill="#292f33" d="M14 9h8s-1.02-7-4-7-4 7-4 7"/></g><g><path fill="#d5ab88" d="M13.64 7.9C15.38 6.63 16.5 5.94 18 5.94c1.5 0 2.62.7 4.36 1.96v3.8h-8.72V7.9z"/></g><g><path fill="#cc9b7a" d="M13.63 10.03c1.22-1.38 2.73-1.75 4.37-1.75 1.63 0 3.14.37 4.36 1.75v3.5h-8.73v-3.5z"/></g><g><path fill="#d5ab88" d="M11.44 20.06c0-1.44-.73-2.62-1.63-2.62-.9 0-1.63 1.18-1.63 2.62 0 1.45.73 2.63 1.64 2.63.9 0 1.64-1.2 1.64-2.64"/></g><g><path fill="#d5ab88" d="M27.83 20.06c0-1.44-.73-2.62-1.64-2.62-.9 0-1.64 1.18-1.64 2.62 0 1.45.73 2.63 1.63 2.63.9 0 1.63-1.2 1.63-2.64"/></g><g><path fill="#d5ab88" d="M9.48 19.04c0 5.6 3.8 10.12 8.52 10.12 4.7 0 8.52-4.53 8.52-10.12 0-5.6-3.8-10.12-8.52-10.12-4.7 0-8.52 4.53-8.52 10.12"/></g><g><path fill="#c1694f" d="M18 12.2c-2.75 0-3.6.7-3.74.85-.26.25-.26.67 0 .92.25.25.64.26.9.03.05-.04.72-.5 2.84-.5 2.2 0 2.84.5 2.84.5.26.25.66.24.9-.02.27-.25.26-.68 0-.93-.14-.15-1-.85-3.74-.85"/></g><g><path fill="#963b22" d="M18 32.52c5.65 0 9.18-4.17 9.18-7.64 0-3.47-.7-4.86-1.4-3.47-.72 1.4-1.43 2.78-1.43 2.78s-4.23 0-5.64 1.4c0 0 2.12-4.17-2.1 0 0 0 .7-2.78-3.54.7 0 0-2.12-1.4-2.83-4.87-.2-.96-1.4 0-1.4 3.48 0 3.47 2.82 7.64 9.17 7.64"/></g><g><path fill="#662113" d="M14 19c-.55 0-1 .45-1 1v1c0 .55.45 1 1 1s1-.45 1-1v-1c0-.55-.45-1-1-1"/></g><g><path fill="#662113" d="M22 19c-.55 0-1 .45-1 1v1c0 .55.45 1 1 1s1-.45 1-1v-1c0-.55-.45-1-1-1"/></g><g><path fill="#c1694f" d="M18.75 16.25h-1.5c-.4 0-.75.34-.75.75 0 .4.34.75.75.75h1.5c.4 0 .75-.34.75-.75 0-.4-.34-.75-.75-.75"/></g><g><path fill="#fff35f" d="M4.1 3c-.07-.33-.1-.66-.1-1V0h28v2c0 .34-.04.67-.1 1H4.1z"/></g><path fill="#ccd6dd" d="M32 1H4v1h28V1z"/><g><path fill="#292f33" d="M27 0v9c0 .55-.45 1-1 1h-1c-.55 0-1-.45-1-1V0h3z"/></g><g><path fill="#292f33" d="M12 0v9c0 .55-.45 1-1 1h-1c-.55 0-1-.45-1-1V0h3z"/></g><g><path fill="#df1f32" d="M28.85 25.14c-.86.18-1.1 4.03-3.08 6.86-1.88 2.67-5.47 4-7.77 4s-5.9-1.33-7.77-4c-2-2.83-2.23-6.68-3.1-6.86C3.84 24.48 4 22.76 4 22.36c.12.47.44 1.58 3.9 1.64 3.4.06 6.58-.8 10.1-.8 3.5 0 6.7.86 10.1.8 3.45-.06 3.77-1.17 3.9-1.64 0 .4.17 2.12-3.15 2.78"/></g><g><path fill="#ea596e" d="M18 36c2.1 0 5-3.6 5-5.05V27s-.1-1-.92-1H18v10z"/></g><g><path fill="#ea596e" d="M18 36c-2.1 0-5-3.6-5-5.05V27s.1-1 .92-1H18v10z"/></g><path fill="#292f33" d="M19 2h-2v2h2V2z"/><g><path fill="#ce9e5d" d="M18.02 2L18 0h-6v7s-.02 1.46 0 2-.4 1.62 0 2c.4.38 2.45-.36 3-1 .54-.64.63-1.74 1-3s2.02-5 2.02-5"/></g><g><path fill="#ce9e5d" d="M17.82 2l.02-2H24v7s0 1.46 0 2 .3 1.62-.12 2c-.4.38-2.47-.36-3.02-1-.54-.64-.63-1.74-1-3-.38-1.26-2.04-5-2.04-5"/></g></g></g></g></svg>