<svg xmlns="http://www.w3.org/2000/svg" viewBox="0 0 45 45" enable-background="new 0 0 45 45"><defs><clipPath id="a"><path d="M0 36h36V0H0v36z"/></clipPath></defs><g><g><g clip-path="url(#a)" transform="matrix(1.25 0 0 -1.25 0 45)"><g><path fill="#60352a" d="M29.96 12.9C34 9 34.04 2 33.02 2s-4.1 1.85-6.07 3.94C25 8 25.2 12.7 25.2 12.7l1.6 4.3s-.88-.17 3.16-4.1"/></g><g><path fill="#60352a" d="M26.96 12.9C31 9 31.04 2 30.02 2s-4.1 1.85-6.07 3.94C22 8 22.2 12.7 22.2 12.7l1.6 4.3s-.88-.17 3.16-4.1"/></g><g><path fill="#60352a" d="M3 2C2 2 2 9 6 13s3 4 3 4l2-4s0-5-2-7-5-4-6-4"/></g><g><path fill="#60352a" d="M6 2C5 2 5 9 9 13s3 4 3 4l2-4s0-5-2-7-5-4-6-4"/></g><g><path fill="#af7e57" d="M6.9 17.65c-.56 2.13-2.1 3.57-3.44 3.2-1.33-.34-1.95-2.36-1.37-4.5.56-2.13 2.1-3.57 3.44-3.2 1.33.34 1.95 2.36 1.37 4.5"/></g><g><path fill="#af7e57" d="M33.91 16.35c.6 2.14-.03 4.16-1.36 4.5-1.34.37-2.88-1.07-3.45-3.2-.6-2.14.03-4.16 1.36-4.5 1.34-.37 2.88 1.07 3.45 3.2"/></g><g><path fill="#af7e57" d="M31 17c0 9.4-5.82 16-13 16S5 26.4 5 17 10.82 2 18 2s13 5.6 13 15"/></g><g><path fill="#df1f32" d="M18 8.35c-2.42 0-4.27.7-4.35.7-.52.2-.78.78-.6 1.3.2.52.78.78 1.3.6.02-.02 1.6-.6 3.65-.6 2.04 0 3.63.58 3.65.6.52.18 1.1-.08 1.3-.6.18-.52-.08-1.1-.6-1.3-.08 0-1.93-.7-4.35-.7"/></g><g><path fill="#915a34" d="M19 13h-2c-.55 0-1 .45-1 1s.45 1 1 1h2c.55 0 1-.45 1-1s-.45-1-1-1"/></g><g><path fill="#60352a" d="M12 16c-.55 0-1 .45-1 1v2c0 .55.45 1 1 1s1-.45 1-1v-2c0-.55-.45-1-1-1"/></g><g><path fill="#60352a" d="M24 16c-.55 0-1 .45-1 1v2c0 .55.45 1 1 1s1-.45 1-1v-2c0-.55-.45-1-1-1"/></g><g><path fill="#60352a" d="M32 26c-2 7-7 9-10 9-2 0-4-2-4-2s-2 2-4 2c-3 0-8-2-10-9-1.65-5.77 1-11 1-11 0 3 2 9 7 9s6 4 6 4 .8-4 5.8-4 7.2-6 7.2-9c0 0 2.65 5.23 1 11"/></g></g></g></g></svg>