<svg xmlns="http://www.w3.org/2000/svg" viewBox="0 0 45 45" enable-background="new 0 0 45 45"><defs><clipPath id="a"><path d="M0 0h36v36H0V0z"/></clipPath></defs><g><g><g clip-path="url(#a)" transform="matrix(1.25 0 0 -1.25 0 45)"><g><path fill="#60352a" d="M21.94 30.93c4.1 0 10.95-2.05 10.95-10.95 0-8.9 0-10.94-2.06-10.94-2.05 0-4.8 2.05-8.9 2.05-4.1 0-6.78-2.06-8.9-2.06-2.28 0-2.04 8.2-2.04 10.94 0 8.9 6.84 10.95 10.94 10.95"/></g><g><path fill="#9266cc" d="M28 9h-2.34v3.19h-7.33v-3.2H16c-3.3 0-7-2.2-7-5.5V0h26v3.5C35 6.8 31.3 9 28 9"/></g><g><path fill="#9b6a49" d="M18.32 10.82c1.02-1.15 2.3-1.47 3.67-1.47s2.64.32 3.66 1.47v2.94h-7.34v-2.94z"/></g><g><path fill="#af7e57" d="M13.73 20.28c0 5.84 3.68 10.57 8.2 10.57 4.55 0 8.22-4.73 8.22-10.57 0-5.83-3.67-10.28-8.2-10.28-4.54 0-8.22 4.45-8.22 10.28"/></g><g><path fill="#df1f32" d="M21.94 12.46c-1.6 0-2.44.8-2.53.88-.26.27-.26.7 0 .97.27.27.7.28.97.02.03-.04.55-.5 1.57-.5 1.04 0 1.56.48 1.58.5.28.25.7.24.96-.02.26-.27.26-.7 0-.96-.1-.1-.93-.88-2.54-.88"/></g><g><path fill="#60352a" d="M11.73 17c-.03 1-.05.22-.05.47 0 3.42 2.05-.5 2.05 1.94 0 2.45 1.37 2.7 2.74 4.06.7.68 2.05 2.03 2.05 2.03s3.42-2.08 6.16-2.08 5.48-1.38 5.48-4.1c0-2.75 2.05 1.57 2.05-1.85 0-.24 0 .53-.03-.47h.72c0 2 0 1.92 0 3.2 0 8.9-6.85 12.2-10.96 12.2-4.1 0-10.94-3.25-10.94-12.14 0-.8-.02-1.26 0-3.26h.73z"/></g><g><path fill="#60352a" d="M18.6 18.1c-.46 0-.84.4-.84.86v.84c0 .47.38.85.85.85s.86-.38.86-.85v-.84c0-.47-.4-.85-.85-.85"/></g><g><path fill="#60352a" d="M25.37 18.1c-.46 0-.84.4-.84.86v.84c0 .47.38.85.84.85.47 0 .85-.38.85-.85v-.84c0-.47-.38-.85-.85-.85"/></g><g><path fill="#915a34" d="M22.84 15.5h-1.7c-.23 0-.42.2-.42.42v.16c0 .23.2.42.43.42h1.7c.22 0 .4-.2.4-.42v-.16c0-.23-.18-.42-.4-.42"/></g><g><path fill="#66757f" d="M24.75 35.12s-2.2-1-2.75-2.75c-.53-1.75.2-.6.92 0 .73.58 2.03 1.6 2.75 1.83.72.22-.22.92-.92.92"/></g><g><path fill="#66757f" d="M23.84 33.74c5.13 0 8.8-1.95 9.17-4.13.4-2.4-.83-2.74-.83-2.74s.57-1.28-.85-.9c-1.42.35-4.65.45-10.16.9-5.5.46-8.47 0-8.47 0s-.8.07-.85.92c-.04.86-.68-.1-.85.92-.18 1 5.6 5.04 12.84 5.04"/></g><g><path fill="#d99e82" d="M27.47 0c-.28 3.87-4.1 7.95-9.64 9.88-6.7 2.32-13.38.6-14.92-3.82C2.25 4.12 2.66 2 3.9 0h23.57z"/></g><g><path fill="#5c913b" d="M19.78 4.62c-.3-.86.37-1.88 1.48-2.27 1.12-.38 2.27 0 2.57.87.3.86-.37 1.87-1.48 2.26-1.12.4-2.27 0-2.57-.86"/></g><g><path fill="#269" d="M5.4 3c-.3-.86.36-1.88 1.48-2.26 1.12-.4 2.27 0 2.57.86.3.86-.37 1.87-1.48 2.26-1.12.4-2.27 0-2.57-.86"/></g><g><path fill="#dd2e44" d="M7.25 7.98c-.3-.86.36-1.88 1.48-2.26 1.12-.4 2.26 0 2.56.86.3.86-.37 1.87-1.5 2.26-1.1.4-2.25 0-2.55-.86"/></g><g><path fill="#ffcc4d" d="M14.28 8c-.28-.88.42-1.87 1.55-2.22 1.13-.35 2.26.07 2.53.94.28.87-.42 1.86-1.55 2.22-1.12.35-2.25-.07-2.52-.94"/></g><g><path fill="#af7e57" d="M1 6c.08 1.2 1.4 3.18 3 3 1.67-.2.13-3.13 0-4-.13-.87.14-2.94-1-3C1.45 1.92.86 3.8 1 6"/></g></g></g></g></svg>