<svg xmlns="http://www.w3.org/2000/svg" viewBox="0 0 45 45" enable-background="new 0 0 45 45"><defs><clipPath id="a"><path d="M0 0h36v36H0V0z"/></clipPath></defs><g><g><g clip-path="url(#a)" transform="matrix(1.25 0 0 -1.25 0 45)"><g><path fill="#292f33" d="M35 0v3.5C35 6.8 31.3 9 28 9H16c-3.3 0-7-2.2-7-5.5V0h26z"/></g><g><path fill="#f3d2a2" d="M18.33 8.98C19.8 7.92 21.3 7 22 7c.7 0 2.2.92 3.66 1.98v3.2h-7.33V9z"/></g><g><path fill="#e2c196" d="M18.32 10.82c1.02-1.15 2.3-1.47 3.67-1.47s2.64.32 3.66 1.47v2.94h-7.34v-2.94z"/></g><g><path fill="#6d6e71" d="M18.87 30.66c0 1.44 1.43 2.6 3.2 2.6 1.77 0 3.2-1.16 3.2-2.6 0-1.43-1.43-2.6-3.2-2.6-1.77 0-3.2 1.17-3.2 2.6"/></g><g><path fill="#f3d2a2" d="M31.8 19.64c0 1.4-.68 2.5-1.54 2.58-.9 4.84-4.2 8.44-8.2 8.44-3.96 0-7.3-3.6-8.18-8.44-.85-.07-1.54-1.2-1.54-2.58 0-1.4.7-2.53 1.56-2.58.9-4.52 4.22-7.15 8.17-7.15s7.26 2.64 8.17 7.16c.87.05 1.56 1.18 1.56 2.58"/></g><g><path fill="#df1f32" d="M22.07 12.73c-1.63 0-2.26.5-2.37.6-.27.22-.3.63-.06.9.23.26.63.3.9.08.03-.02.45-.27 1.53-.27 1.14 0 1.54.27 1.54.28.28.25.68.2.9-.06.25-.27.22-.7-.05-.92-.1-.1-.75-.6-2.38-.6"/></g><g><path fill="#c1694f" d="M22.72 15h-1.3c-.35 0-.65.14-.65.5s.3.5.65.5h1.3c.36 0 .65-.14.65-.5s-.3-.5-.65-.5"/></g><g><path fill="#808285" d="M31.8 25.48c-1.3 4.54-5.2 5.83-7.26 5.83-1.17 0-2.47-.64-2.47-.64s-1.3.65-2.6.65c-1.94 0-5.83-1.28-7.13-5.82-1.07-3.75 1.3-7.14 1.3-7.14 0 1.95 1.3 5.84 4.54 5.84s3.9 2.6 3.9 2.6.5-2.6 3.74-2.6c3.25 0 4.68-3.9 4.68-5.84 0 0 2.37 3.4 1.3 7.14"/></g><g><path fill="#aa8dd8" d="M31.8 17.7c0-.36-.3-.66-.65-.66-.36 0-.65.3-.65.65 0 .35.3.64.65.64.36 0 .65-.3.65-.65"/></g><g><path fill="#aa8dd8" d="M13.64 17.7c0 .35-.3.64-.65.64-.37 0-.66-.3-.66-.65 0-.36.3-.66.65-.66.35 0 .64.3.64.65"/></g><g><path fill="#808285" d="M19.5 21h-2c-.27 0-.5.23-.5.5 0 .28.23.5.5.5h2c.28 0 .5-.22.5-.5s-.22-.5-.5-.5"/></g><g><path fill="#808285" d="M26.5 21h-2c-.27 0-.5.23-.5.5 0 .28.23.5.5.5h2c.28 0 .5-.22.5-.5s-.22-.5-.5-.5"/></g><g><path fill="#662113" d="M18.5 17.75c-.4 0-.75.34-.75.75v1c0 .4.34.75.75.75.4 0 .75-.34.75-.75v-1c0-.4-.34-.75-.75-.75"/></g><g><path fill="#662113" d="M25.5 17.75c-.4 0-.75.34-.75.75v1c0 .4.34.75.75.75.4 0 .75-.34.75-.75v-1c0-.4-.34-.75-.75-.75"/></g><g><path fill="#f5f8fa" d="M18 10c.55-.38 4-3 4-3s-3.33-3.33-4-3c-.67.33-1.08 4.33-1 5 .08.67.46 1.38 1 1"/></g><g><path fill="#f5f8fa" d="M26 10c-.56-.38-4-3-4-3s3.32-3.33 4-3c.66.33 1.07 4.33 1 5-.1.67-.47 1.38-1 1"/></g><g><path fill="#66757f" d="M12.08 2.66c.25 0 .4-2.66.4-2.66h-.95s.2 2.66.55 2.66"/></g><g><path fill="#66757f" d="M15.08 2.66c.25 0 .4-2.66.4-2.66h-.95s.2 2.66.55 2.66"/></g><g><path fill="#66757f" d="M31.93 2.66c-.25 0-.4-2.66-.4-2.66h.95s-.2 2.66-.55 2.66"/></g><g><path fill="#66757f" d="M28.93 2.66c-.25 0-.4-2.66-.4-2.66h.95s-.2 2.66-.55 2.66"/></g><g><path fill="#662113" d="M7.38 0h1.7L5.43 9.7c-.15.42-.6.63-1.03.47-.42-.15-.63-.62-.47-1.03L7.38 0z"/></g><g><path fill="#c1694f" d="M7.85 12.34c.47-1.24.18-2.5-.65-2.82-.82-.3-1.87.44-2.34 1.68-.47 1.24-.18 2.5.65 2.82.84.3 1.9-.44 2.35-1.68"/></g><g><path fill="#662113" d="M5.86 9.3l-2-.75c-1.1-.42-2.33.14-2.74 1.24-.42 1.1.14 2.33 1.24 2.74l2 .75c1.1.4 2.33-.15 2.75-1.25.42-1.1-.14-2.33-1.24-2.75"/></g><g><path fill="#c1694f" d="M3.36 10.64c.47-1.24.18-2.5-.65-2.8C1.9 7.5.85 8.26.38 9.5c-.47 1.25-.18 2.5.65 2.82.83.3 1.88-.44 2.34-1.68"/></g><g><path fill="#f3d2a2" d="M11.32 0l-.47 1.6c-.36 1.23-1.67 1.94-2.9 1.58L6.68 2.8C5.47 2.47 4.77 1.2 5.07 0h6.24z"/></g></g></g></g></svg>