<svg xmlns="http://www.w3.org/2000/svg" viewBox="0 0 45 45" enable-background="new 0 0 45 45"><defs><clipPath id="a"><path d="M0 36h36V0H0v36z"/></clipPath><clipPath id="b"><path d="M22 36c-5 0-7.13-1.34-9-4-2-2.83 0-5-3-7-1.86-1.24 6-2.3 12-2.3s13.86 1.06 12 2.3c-3 2-1 4.17-3 7-1.87 2.66-5 4-9 4z"/></clipPath><clipPath id="c"><path d="M0 36h36V0H0v36z"/></clipPath></defs><g><g><g clip-path="url(#a)" transform="matrix(1.25 0 0 -1.25 0 45)"><g><path fill="#3b88c3" d="M35 0v3.5C35 6.8 31.3 9 28 9H16c-3.3 0-7-2.2-7-5.5V0h26z"/></g><g><path fill="#60352a" d="M21.95 30.93c4.1 0 10.94-2.05 10.94-10.95 0-8.9 0-10.94-2.06-10.94-2.05 0-4.8 2.05-8.9 2.05-4.1 0-6.78-2.06-8.9-2.06-2.28 0-2.04 8.2-2.04 10.94 0 8.9 6.84 10.95 10.95 10.95"/></g><g><path fill="#292f33" d="M18 9h8s-1.02-5-4-5-4 5-4 5"/></g><path fill="#292f33" d="M27 5H17v4h10V5z"/><g><path fill="#af7e57" d="M18.33 8.98C19.8 7.92 21.3 8 22 8c.7 0 2.2-.08 3.66.98v3.2h-7.33V9z"/></g><g><path fill="#9b6a49" d="M18.32 10.82c1.02-1.15 2.3-1.47 3.67-1.47s2.64.32 3.66 1.47v2.94h-7.34v-2.94z"/></g><g><path fill="#af7e57" d="M13.73 20.28c0 5.84 3.68 10.57 8.2 10.57 4.55 0 8.22-4.73 8.22-10.57 0-5.83-3.67-10.28-8.2-10.28-4.54 0-8.22 4.45-8.22 10.28"/></g><g><path fill="#df1f32" d="M21.95 12.46c-1.6 0-2.45.8-2.54.88-.26.27-.26.7 0 .97.27.27.7.28.97.02.03-.04.55-.5 1.58-.5s1.55.48 1.57.5c.28.25.7.24.96-.02.26-.27.26-.7 0-.96-.1-.1-.93-.88-2.53-.88"/></g><g><path fill="#60352a" d="M11.73 17c-.03 1-.05.22-.05.47 0 3.42 2.05-.5 2.05 1.94 0 2.45 1.37 2.7 2.74 4.06.7.68 2.05 2.03 2.05 2.03s3.42-2.08 6.16-2.08 5.48-1.38 5.48-4.1c0-2.75 2.05 1.57 2.05-1.85 0-.24 0 .53-.03-.47h.72c0 2 0 1.92 0 3.2 0 8.9-6.85 12.2-10.96 12.2-4.1 0-10.94-3.25-10.94-12.14 0-.8-.02-1.26 0-3.26h.73z"/></g><g><path fill="#662113" d="M18.6 18.1c-.46 0-.84.4-.84.86v.84c0 .47.38.85.85.85s.86-.38.86-.85v-.84c0-.47-.4-.85-.85-.85"/></g><g><path fill="#662113" d="M25.37 18.1c-.46 0-.84.4-.84.86v.84c0 .47.38.85.84.85.47 0 .85-.38.85-.85v-.84c0-.47-.38-.85-.85-.85"/></g><g><path fill="#915a34" d="M22.84 15.5h-1.7c-.23 0-.42.2-.42.42v.16c0 .23.2.42.43.42h1.7c.22 0 .4-.2.4-.42v-.16c0-.23-.18-.42-.4-.42"/></g><g><path fill="#af7e57" d="M15.44 20.06c0-1.44-.73-2.62-1.63-2.62-.9 0-1.63 1.18-1.63 2.62 0 1.45.73 2.63 1.64 2.63.9 0 1.64-1.2 1.64-2.64"/></g><g><path fill="#af7e57" d="M31.83 20.06c0-1.44-.73-2.62-1.64-2.62-.9 0-1.64 1.18-1.64 2.62 0 1.45.73 2.63 1.63 2.63.9 0 1.63-1.2 1.63-2.64"/></g><g><path fill="#292f33" d="M23 1.06L22 0l-1 1-1 4h3.5L23 1.06z"/></g><g><path fill="#55acee" d="M14.5 9c0-1.07 1.5-3.66 3.5-5.8C19.58 1.5 22 0 22 0c0 3.27-1 4.27-2 5.34C19 6.4 17 6.86 17 9c0 1.07-2.5 0-2.5 0"/></g><g><path fill="#55acee" d="M29.5 9c0-1.07-1.5-3.66-3.5-5.8C24.42 1.5 22 0 22 0c0 3.27 1 4.27 2 5.34C25 6.4 27 6.86 27 9c0 1.07 2.5 0 2.5 0"/></g><g><path fill="#9b6a49" d="M21 20c0-2.07-1.68-3.75-3.75-3.75-2.07 0-3.75 1.68-3.75 3.75 0 2.07 1.68 3.75 3.75 3.75 2.07 0 3.75-1.68 3.75-3.75"/></g><g><path fill="#9b6a49" d="M30.5 20c0-2.07-1.68-3.75-3.75-3.75-2.07 0-3.75 1.68-3.75 3.75 0 2.07 1.68 3.75 3.75 3.75 2.07 0 3.75-1.68 3.75-3.75"/></g><path fill="#9b6a49" d="M24.5 18.5h-5V21h5v-2.5z"/><g><path fill="#e1e8ed" d="M21 20.5c0-1.93-1.57-3.5-3.5-3.5S14 18.57 14 20.5s1.57 3.5 3.5 3.5 3.5-1.57 3.5-3.5"/></g><g><path fill="#e1e8ed" d="M30 20.5c0-1.93-1.57-3.5-3.5-3.5S23 18.57 23 20.5s1.57 3.5 3.5 3.5 3.5-1.57 3.5-3.5"/></g><path fill="#e1e8ed" d="M24.5 19.5h-5V22h5v-2.5z"/><g><path fill="#292f33" d="M20 20.5c0-1.38-1.12-2.5-2.5-2.5S15 19.12 15 20.5s1.12 2.5 2.5 2.5 2.5-1.12 2.5-2.5"/></g><g><path fill="#292f33" d="M29 20.5c0-1.38-1.12-2.5-2.5-2.5S24 19.12 24 20.5s1.12 2.5 2.5 2.5 2.5-1.12 2.5-2.5"/></g><g><path fill="#3b88c3" d="M34 25c-3 2-1 4.17-3 7-1.87 2.66-5 4-9 4-5 0-7.13-1.34-9-4-2-2.83 0-5-3-7-1.86-1.24 6-2.3 12-2.3s13.86 1.06 12 2.3"/></g></g></g><g><g clip-path="url(#b)" transform="matrix(1.25 0 0 -1.25 0 45)"><g><path fill="#269" d="M20 24.5h-.5c-3.6 0-10.7 1.03-12.72 2.05l.44.9c1.8-.9 8.2-1.86 11.78-1.94V36h1V24.5z"/></g><g><path fill="#269" d="M24.5 24.5H24V36h1V25.5c4 .08 10 1.06 11.78 1.95l.44-.9c-2.17-1.08-8.92-2.05-12.72-2.05"/></g></g></g><g><g clip-path="url(#c)" transform="matrix(1.25 0 0 -1.25 0 45)"><g><path fill="#66757f" d="M5 12l-1.5-1S5 8.5 5 5V0h2v5c0 4.5-2 7-2 7"/></g><g><path fill="#99aab5" d="M6.08 12.2c.2-.4.07-.86-.3-1.07L3.63 9.95c-.38-.2-.85-.07-1.06.3l-.45.83c-.2.38-.08.85.3 1.06l2.13 1.18c.38.2.86.07 1.07-.3l.45-.83z"/></g><g><path fill="#f4900c" d="M3.5 13.42C7.67 15.62.04 19.7.04 19.7S-.7 11.2 3.5 13.4"/></g><g><path fill="#ffdc5d" d="M2.96 14.63c2.2 1.17-1.8 3.3-1.8 3.3s-.4-4.46 1.8-3.3"/></g></g></g></g></svg>