<svg xmlns="http://www.w3.org/2000/svg" viewBox="0 0 45 45" enable-background="new 0 0 45 45"><defs><clipPath id="a"><path d="M0 36h36V0H0v36z"/></clipPath></defs><g><g><g clip-path="url(#a)" transform="matrix(1.25 0 0 -1.25 0 45)"><g><path fill="#d99e82" d="M4 16c-3 0-3.6-1.55-4-3 0-1 0-1 1-1 .72 0 9.83-1.42 9.83-1.42l12.74-5.1L29 5s3.84-1.06 5.84.94c1 1 3.2 3.2-3.6 4.6-2.24.46-3.46.1-6.08.76-2.6.65-2.08-.47-4.16.7-2.1 1.17-3.94 2.32-11.6 3.6C7 16 5 16 4 16"/></g><g><path fill="#c1694f" d="M35 3h-8c-5.63 0-15.4 6.03-17 6-.7 0-1-.1-1-4 0-2-1-2-1-2H1c-1.06.26-1 2-1 2 .05 1 0 8 0 8s4.1 1 9.94-.7C15.8 10.64 24 7 24 7h11.97c0-1 .2-3.98-.97-4"/></g><g><path fill="#be1931" d="M19.2 7.33c.26 1.34 2.3 10.43 2.63 11.67.34 1.24 7.96-.04 7.88-2-.28-1.63-1.86-10.73-1.86-11.08.04-1.5-8.88.08-8.63 1.4"/></g></g></g></g></svg>