<?xml version="1.0" encoding="UTF-8" standalone="no"?><svg xmlns:dc="http://purl.org/dc/elements/1.1/" xmlns:cc="http://creativecommons.org/ns#" xmlns:rdf="http://www.w3.org/1999/02/22-rdf-syntax-ns#" xmlns:svg="http://www.w3.org/2000/svg" xmlns="http://www.w3.org/2000/svg" viewBox="0 0 45 45" style="enable-background:new 0 0 45 45;" xml:space="preserve" version="1.1" id="svg2"><metadata id="metadata8"><rdf:RDF><cc:Work rdf:about=""><dc:format>image/svg+xml</dc:format><dc:type rdf:resource="http://purl.org/dc/dcmitype/StillImage"/></cc:Work></rdf:RDF></metadata><defs id="defs6"><clipPath id="clipPath16" clipPathUnits="userSpaceOnUse"><path id="path18" d="M 0,36 36,36 36,0 0,0 0,36 Z"/></clipPath></defs><g transform="matrix(1.25,0,0,-1.25,0,45)" id="g10"><g id="g12"><g clip-path="url(#clipPath16)" id="g14"><g transform="translate(30,10)" id="g20"><path id="path22" style="fill:#ccd6dc;fill-opacity:1;fill-rule:nonzero;stroke:none" d="m 0,0 c 0,-2.209 -1.791,-4 -4,-4 l -22,0 c -2.209,0 -4,1.791 -4,4 l 0,22 c 0,2.209 1.791,4 4,4 l 22,0 c 2.209,0 4,-1.791 4,-4 L 0,0 Z"/></g><g transform="translate(28,10)" id="g24"><path id="path26" style="fill:#f5f8fa;fill-opacity:1;fill-rule:nonzero;stroke:none" d="m 0,0 c 0,-1.104 -0.896,-2 -2,-2 l -22,0 c -1.104,0 -2,0.896 -2,2 l 0,22 c 0,1.104 0.896,2 2,2 l 22,0 c 1.104,0 2,-0.896 2,-2 L 0,0 Z"/></g><g transform="translate(6,10)" id="g28"><path id="path30" style="fill:#50a5e6;fill-opacity:1;fill-rule:nonzero;stroke:none" d="m 0,0 c -0.552,0 -1,0.447 -1,1 l 0,12 c 0,0.552 0.448,1 1,1 0.552,0 1,-0.448 1,-1 L 1,1 C 1,0.447 0.552,0 0,0"/></g><g transform="translate(10,10)" id="g32"><path id="path34" style="fill:#77b255;fill-opacity:1;fill-rule:nonzero;stroke:none" d="m 0,0 c -0.552,0 -1,0.447 -1,1 l 0,17 c 0,0.552 0.448,1 1,1 0.552,0 1,-0.448 1,-1 L 1,1 C 1,0.447 0.552,0 0,0"/></g><g transform="translate(36,0)" id="g36"><path id="path38" style="fill:#226798;fill-opacity:1;fill-rule:nonzero;stroke:none" d="M 0,0 0,4.5 C 0,7.814 -3.561,10 -6.875,10 l -12,0 C -22.188,10 -26,7.814 -26,4.5 L -26,0 0,0 Z"/></g><g transform="translate(28.25,10)" id="g40"><path id="path42" style="fill:#f4f7f9;fill-opacity:1;fill-rule:nonzero;stroke:none" d="M 0,0 -3.182,-10 -7.273,-10 -10,0"/></g><g transform="translate(19,10)" id="g44"><path id="path46" style="fill:#3a87c2;fill-opacity:1;fill-rule:nonzero;stroke:none" d="m 0,0 -1.5,0 -1,-5.5 3,-1 L 0,-10 3.5,-10 0,0 Z"/></g><g transform="translate(27.5,10)" id="g48"><path id="path50" style="fill:#3a87c2;fill-opacity:1;fill-rule:nonzero;stroke:none" d="M 0,0 1.5,0 2,-5.5 -1,-6.5 -0.5,-10 -4,-10 0,0 Z"/></g><g transform="translate(23.2002,32.0215)" id="g52"><path id="path54" style="fill:#0b0200;fill-opacity:1;fill-rule:nonzero;stroke:none" d="m 0,0 c 4.104,0 10.947,-2.053 10.947,-10.947 0,-8.896 0,-10.949 -2.052,-10.949 -2.053,0 -4.791,2.053 -8.895,2.053 -4.105,0 -6.785,-2.053 -8.896,-2.053 -2.287,0 -2.053,8.211 -2.053,10.949 C -10.949,-2.053 -4.105,0 0,0"/></g><g transform="translate(19.7549,10)" id="g56"><path id="path58" style="fill:#7c543e;fill-opacity:1;fill-rule:nonzero;stroke:none" d="m 0,0 c 1,-1.982 2.792,-4.5 3.5,-4.5 0.708,0 2.512,2.549 3.5,4.5 l 0,3.591 -7,0 L 0,0 Z"/></g><g transform="translate(19.7549,11.9463)" id="g60"><path id="path62" style="fill:#674232;fill-opacity:1;fill-rule:nonzero;stroke:none" d="M 0,0 C 0.976,-1.103 2.185,-1.4 3.499,-1.4 4.814,-1.4 6.024,-1.103 7,0 l 0,2.801 -7,0 L 0,0 Z"/></g><g transform="translate(14.9888,21.373)" id="g64"><path id="path66" style="fill:#7c543e;fill-opacity:1;fill-rule:nonzero;stroke:none" d="M 0,0 C 0,5.834 3.676,10.563 8.211,10.563 12.745,10.563 16.42,5.834 16.42,0 16.42,-5.833 12.745,-10.285 8.211,-10.285 3.676,-10.285 0,-5.833 0,0"/></g><g transform="translate(23.2002,13.5479)" id="g68"><path id="path70" style="fill:#de2032;fill-opacity:1;fill-rule:nonzero;stroke:none" d="m 0,0 c -1.606,0 -2.447,0.794 -2.537,0.885 -0.268,0.266 -0.268,0.7 0,0.967 0.266,0.264 0.692,0.266 0.961,0.006 C -1.541,1.826 -1.025,1.367 0,1.367 1.038,1.367 1.555,1.84 1.576,1.859 1.85,2.115 2.279,2.107 2.539,1.84 2.799,1.571 2.799,1.148 2.535,0.885 2.445,0.794 1.605,0 0,0"/></g><g transform="translate(24.0908,16.5908)" id="g72"><path id="path74" style="fill:#3d2e24;fill-opacity:1;fill-rule:nonzero;stroke:none" d="m 0,0 -1.69,0 c -0.234,0 -0.423,0.189 -0.423,0.423 l 0,0.153 C -2.113,0.81 -1.924,1 -1.69,1 L 0,1 C 0.233,1 0.424,0.81 0.424,0.576 l 0,-0.153 C 0.424,0.189 0.233,0 0,0"/></g><g transform="translate(26.6279,19.2041)" id="g76"><path id="path78" style="fill:#000000;fill-opacity:1;fill-rule:nonzero;stroke:none" d="m 0,0 0,0 c -0.465,0 -0.846,0.381 -0.846,0.847 l 0,0.844 c 0,0.465 0.381,0.846 0.846,0.846 0.465,0 0.846,-0.381 0.846,-0.846 l 0,-0.844 C 0.846,0.381 0.465,0 0,0"/></g><g transform="translate(19.8633,19.2041)" id="g80"><path id="path82" style="fill:#000000;fill-opacity:1;fill-rule:nonzero;stroke:none" d="m 0,0 0,0 c -0.465,0 -0.846,0.381 -0.846,0.847 l 0,0.844 c 0,0.465 0.381,0.846 0.846,0.846 0.466,0 0.847,-0.381 0.847,-0.846 l 0,-0.844 C 0.847,0.381 0.466,0 0,0"/></g><g transform="translate(12.98,18.0908)" id="g84"><path id="path86" style="fill:#0b0200;fill-opacity:1;fill-rule:nonzero;stroke:none" d="m 0,0 c -0.021,1 -0.044,0.224 -0.044,0.465 0,3.422 2.053,-0.494 2.053,1.943 0,2.439 1.368,2.683 2.737,4.051 0.684,0.685 2.052,2.026 2.052,2.026 0,0 3.421,-2.067 6.159,-2.067 2.736,0 5.473,-1.375 5.473,-4.112 0,-2.737 2.053,1.584 2.053,-1.837 C 20.483,0.225 20.46,1 20.443,0 l 0.719,0 c 0.005,2 0.005,1.924 0.005,3.202 0,8.895 -6.841,12.207 -10.948,12.207 C 6.115,15.409 -0.728,12.152 -0.728,3.257 -0.728,2.464 -0.748,2 -0.72,0 L 0,0 Z"/></g><g transform="translate(33.0879,21.1553)" id="g88"><path id="path90" style="fill:#7c543e;fill-opacity:1;fill-rule:nonzero;stroke:none" d="m 0,0 c 0,-1.448 -0.733,-2.622 -1.639,-2.622 -0.905,0 -1.638,1.174 -1.638,2.622 0,1.448 0.733,2.623 1.638,2.623 C -0.733,2.623 0,1.448 0,0"/></g><g transform="translate(16.6992,21.1553)" id="g92"><path id="path94" style="fill:#7c543e;fill-opacity:1;fill-rule:nonzero;stroke:none" d="m 0,0 c 0,-1.448 -0.734,-2.622 -1.639,-2.622 -0.905,0 -1.639,1.174 -1.639,2.622 0,1.448 0.734,2.623 1.639,2.623 C -0.734,2.623 0,1.448 0,0"/></g></g></g></g></svg>
