<?xml version="1.0" encoding="UTF-8" standalone="no"?><svg xmlns:dc="http://purl.org/dc/elements/1.1/" xmlns:cc="http://creativecommons.org/ns#" xmlns:rdf="http://www.w3.org/1999/02/22-rdf-syntax-ns#" xmlns:svg="http://www.w3.org/2000/svg" xmlns="http://www.w3.org/2000/svg" viewBox="0 0 45 45" style="enable-background:new 0 0 45 45;" xml:space="preserve" version="1.1" id="svg2"><metadata id="metadata8"><rdf:RDF><cc:Work rdf:about=""><dc:format>image/svg+xml</dc:format><dc:type rdf:resource="http://purl.org/dc/dcmitype/StillImage"/></cc:Work></rdf:RDF></metadata><defs id="defs6"><clipPath id="clipPath18" clipPathUnits="userSpaceOnUse"><path id="path20" d="M 0,36 36,36 36,0 0,0 0,36 Z"/></clipPath></defs><g transform="matrix(1.25,0,0,-1.25,0,45)" id="g10"><path id="path12" style="fill:#ae7e57;fill-opacity:1;fill-rule:nonzero;stroke:none" d="m 13.6,0 15.999,0 0,10 -15.999,0 0,-10 z"/><g id="g14"><g clip-path="url(#clipPath18)" id="g16"><g transform="translate(29.5996,10)" id="g22"><path id="path24" style="fill:#292f33;fill-opacity:1;fill-rule:nonzero;stroke:none" d="m 0,0 0,-10 6,0 0,4 C 6,-2.686 3.314,0 0,0"/></g><g transform="translate(13.6001,10)" id="g26"><path id="path28" style="fill:#292f33;fill-opacity:1;fill-rule:nonzero;stroke:none" d="m 0,0 c -3.313,0 -6,-2.686 -6,-6 l 0,-4 6,0 0,10 z"/></g><g transform="translate(21.7822,0)" id="g30"><path id="path32" style="fill:#8cc6eb;fill-opacity:1;fill-rule:nonzero;stroke:none" d="m 0,0 9.001,0 5.084,6.925 c 0,0 -3.334,3.729 -9.772,4.95 0,-1.305 0.989,-3.337 0.989,-3.337 L 0.001,1.531 0,0 Z"/></g><g transform="translate(21.7822,0)" id="g34"><path id="path36" style="fill:#8cc6eb;fill-opacity:1;fill-rule:nonzero;stroke:none" d="m 0,0 -9,0 -5.084,6.925 c 0,0 3.334,3.729 9.771,4.95 0,-1.305 -0.988,-3.337 -0.988,-3.337 L -0.001,1.531 0,0 Z"/></g><g transform="translate(33.5332,8.9062)" id="g38"><path id="path40" style="fill:#1d6398;fill-opacity:1;fill-rule:nonzero;stroke:none" d="m 0,0 c 0,0 -2.453,1.665 -4.656,2.447 -3.058,1.086 -2.375,-1.938 -2.375,-1.938 0,0 -3.821,-6.43 -4.72,-7.884 0,0 7.035,5.535 11.751,7.375"/></g><g transform="translate(10.0317,8.9062)" id="g42"><path id="path44" style="fill:#1d6398;fill-opacity:1;fill-rule:nonzero;stroke:none" d="m 0,0 c 0,0 2.453,1.665 4.656,2.447 3.058,1.086 2.375,-1.938 2.375,-1.938 0,0 3.82,-6.43 4.719,-7.884 0,0 -7.034,5.535 -11.75,7.375"/></g><g transform="translate(21.7832,1.4375)" id="g46"><path id="path48" style="fill:#4191ce;fill-opacity:1;fill-rule:nonzero;stroke:none" d="M 0,0 C 0,0 7.334,7.479 12.125,8.354 8.042,11.771 2,11.396 2,11.396 2,10.172 3.988,10.027 3.988,8.514 3.988,6.028 0.898,1.812 -0.001,0.446 L 0,0 Z"/></g><g transform="translate(21.7813,1.4375)" id="g50"><path id="path52" style="fill:#4191ce;fill-opacity:1;fill-rule:nonzero;stroke:none" d="M 0,0 C 0,0 -7.333,7.479 -12.125,8.354 -8.042,11.771 -2,11.396 -2,11.396 c 0,-1.224 -1.988,-1.369 -1.988,-2.882 0,-2.486 3.09,-6.702 3.989,-8.068 L 0,0 Z"/></g><g transform="translate(17.7817,10)" id="g54"><path id="path56" style="fill:#ae7e57;fill-opacity:1;fill-rule:nonzero;stroke:none" d="M 0,0 C 0,0 0.5,-3.5 4,-3.5 7.5,-3.5 8,0 8,0 L 8,4 0,4 0,0 Z"/></g><g transform="translate(17.7817,12)" id="g58"><path id="path60" style="fill:#9a6a4a;fill-opacity:1;fill-rule:nonzero;stroke:none" d="M 0,0 C 1.215,-1.374 2.355,-1.719 3.996,-1.719 5.634,-1.719 6.783,-1.373 8,0 l 0,1.625 -8,0 L 0,0 Z"/></g><g transform="translate(30.0566,23.4233)" id="g62"><path id="path64" style="fill:#ae7e57;fill-opacity:1;fill-rule:nonzero;stroke:none" d="m 0,0 c 0.133,0.625 0.214,1.508 0.214,2.634 0,3.213 -3.265,7.068 -8.489,7.068 -5.877,0 -8.489,-3.855 -8.489,-7.068 0,-0.54 0.039,-0.991 0.094,-1.402 -0.809,-0.16 -1.438,-1.253 -1.438,-2.591 0,-1.329 0.621,-2.416 1.422,-2.587 0.078,-0.59 0.199,-1.163 0.358,-1.715 0.044,-0.151 0.097,-0.297 0.146,-0.446 0.228,-0.683 0.51,-1.332 0.851,-1.933 0.197,-0.346 0.415,-0.672 0.645,-0.986 1.56,-2.127 3.849,-3.477 6.411,-3.477 4.707,0 8.522,4.531 8.522,10.12 C 0.247,-1.561 0.156,-0.765 0,0"/></g><g transform="translate(19.4521,22.0869)" id="g66"><path id="path68" style="fill:#dd2f45;fill-opacity:1;fill-rule:nonzero;stroke:none" d="M 0,0 2.581,3.69 -1.78,5.465 -5.723,-4.324 c 0.043,-0.152 0.096,-0.298 0.145,-0.447 l 1.964,0.806 -1.113,-2.738 c 0.197,-0.347 0.415,-0.673 0.645,-0.986 L 2.797,0.614 0,0 Z"/></g><g transform="translate(21.7813,14.1982)" id="g70"><path id="path72" style="fill:#915b34;fill-opacity:1;fill-rule:nonzero;stroke:none" d="m 0,0 c -2.754,0 -3.6,0.705 -3.741,0.848 -0.256,0.256 -0.256,0.671 0,0.926 0.248,0.248 0.645,0.255 0.902,0.024 C -2.787,1.761 -2.118,1.311 0,1.311 c 2.2,0 2.836,0.485 2.842,0.49 C 3.098,2.056 3.499,2.044 3.755,1.786 4.011,1.53 3.997,1.104 3.741,0.848 3.6,0.705 2.754,0 0,0"/></g><g transform="translate(22.5313,18.25)" id="g74"><path id="path76" style="fill:#915b34;fill-opacity:1;fill-rule:nonzero;stroke:none" d="m 0,0 -1.5,0 c -0.413,0 -0.75,0.337 -0.75,0.75 0,0.413 0.337,0.75 0.75,0.75 L 0,1.5 C 0.413,1.5 0.75,1.163 0.75,0.75 0.75,0.337 0.413,0 0,0"/></g><g transform="translate(25.7813,21)" id="g78"><path id="path80" style="fill:#662213;fill-opacity:1;fill-rule:nonzero;stroke:none" d="m 0,0 0,0 c -0.55,0 -1,0.45 -1,1 l 0,1 C -1,2.55 -0.55,3 0,3 0.55,3 1,2.55 1,2 L 1,1 C 1,0.45 0.55,0 0,0"/></g><g transform="translate(17.7817,21)" id="g82"><path id="path84" style="fill:#662213;fill-opacity:1;fill-rule:nonzero;stroke:none" d="m 0,0 0,0 c -0.55,0 -1,0.45 -1,1 l 0,1 C -1,2.55 -0.55,3 0,3 0.549,3 1,2.55 1,2 L 1,1 C 1,0.45 0.549,0 0,0"/></g><g transform="translate(31.4922,27.979)" id="g86"><path id="path88" style="fill:#88c9f9;fill-opacity:1;fill-rule:nonzero;stroke:none" d="m 0,0 c 0.359,-0.066 0.775,-0.114 1.139,-0.074 -0.602,0.43 -1.421,1.148 -1.967,1.641 -2.315,3.622 -6.343,4.975 -9.12,4.975 -2.246,0 -5.708,-1.133 -7.628,-3.317 -1.921,-2.183 -0.066,-5.204 1.819,-5.967 -0.175,0.924 -0.348,2.163 -0.194,3.17 1.022,-1.039 2.681,-2.078 5.319,-2.574 0.391,-0.123 1.878,-0.647 3.063,-1.885 -0.037,0.761 -0.313,1.301 -0.529,1.615 0.294,-0.012 0.575,-0.034 0.887,-0.034 2.285,0 3.816,-0.985 4.446,-2.887 -0.034,-0.512 -0.19,-1.771 -0.905,-2.959 0.762,0.248 1.185,0.706 1.373,0.96 0.494,-1.429 1.717,-2.622 1.717,-2.622 0.562,3.937 2.094,4.135 1.226,7.964 C 0.483,-1.274 0.261,-0.615 0,0"/></g><g transform="translate(10.3628,16)" id="g90"><path id="path92" style="fill:#424143;fill-opacity:1;fill-rule:nonzero;stroke:none" d="m 0,0 c -1.695,0 -3.069,-1.374 -3.069,-3.07 0,-0.478 0.119,-0.925 0.314,-1.328 l -0.232,0.232 c -0.347,0.347 -0.89,0.326 -1.212,-0.046 l -5.488,-6.222 c -0.544,-0.627 -0.798,-1.642 0.01,-2.451 0.809,-0.808 1.807,-0.574 2.454,-0.012 l 0.892,0.814 0,-3.917 1.783,0 0,5.547 3.444,3.145 c 0.372,0.324 0.393,0.866 0.045,1.212 L -1.33,-5.825 C -0.926,-6.021 -0.479,-6.14 0,-6.14 c 1.696,0 3.07,1.374 3.07,3.07 C 3.07,-1.374 1.696,0 0,0"/></g><g transform="translate(12.0107,9.9648)" id="g94"><path id="path96" style="fill:#59595c;fill-opacity:1;fill-rule:nonzero;stroke:none" d="m 0,0 c -0.15,-0.149 -0.393,-0.149 -0.543,0 l -4.069,4.07 c -0.15,0.151 -0.15,0.392 0,0.542 l 0.542,0.543 c 0.15,0.151 0.393,0.151 0.543,0 l 4.069,-4.07 c 0.15,-0.149 0.15,-0.393 0,-0.542 L 0,0 Z"/></g></g></g></g></svg>
