<svg xmlns="http://www.w3.org/2000/svg" viewBox="0 0 45 45" enable-background="new 0 0 45 45"><defs><clipPath id="a"><path d="M0 36h36V0H0v36z"/></clipPath></defs><g><g><g clip-path="url(#a)" transform="matrix(1.25 0 0 -1.25 0 45)"><g><path fill="#ffac33" d="M25 24.16c2.3.66 3.31 3.56 3.73 5.36.96-1.47 3.04-3.68 7.27-4.8v10.85c-.95.28-1.96.43-3 .43-6.08 0-11-4.93-11-11 0-3 1.2-5.73 3.17-7.72-.1.56-.17 1.13-.17 1.72v5.16z"/></g><g><path fill="#ffdc5d" d="M30 20c-.55 0-1 .45-1 1v1c0 .55.45 1 1 1s1-.45 1-1v-1c0-.55-.45-1-1-1m3-2.5h2c.28 0 .5-.22.5-.5s-.22-.5-.5-.5h-2c-.28 0-.5.22-.5.5s.22.5.5.5m1-3.5h2v10.72c-4.23 1.13-6.3 3.33-7.27 4.8-.4-1.8-1.43-4.7-3.73-5.36V19c0-.6.06-1.16.17-1.72.6-3.15 2.86-5.7 5.83-6.76V9l3-5 2 3.4v4.96c-.54-.2-1.2-.36-2-.36-3 0-4 2-4 2h4z"/></g><g><path fill="#3b94d9" d="M36 7.4L34 4l-3 5h-6c-2.2 0-4-1.8-4-4V0h15v7.4z"/></g><path fill="#1c6399" d="M25 0h1v4h-1V0z"/><g><path fill="#bf6952" d="M31 14h-1s1-2 4-2c.8 0 1.46.15 2 .36V14h-5z"/></g><g><path fill="#662113" d="M30 20c.55 0 1 .45 1 1v1c0 .55-.45 1-1 1s-1-.45-1-1v-1c0-.55.45-1 1-1"/></g><g><path fill="#bf6952" d="M33 16.5h2c.28 0 .5.22.5.5s-.22.5-.5.5h-2c-.28 0-.5-.22-.5-.5s.22-.5.5-.5"/></g><g><path fill="#ffac33" d="M11 24.16c-2.3.66-3.31 3.56-3.73 5.36-.96-1.47-3.04-3.68-7.27-4.8v10.85c.95.28 1.96.43 3 .43 6.08 0 11-4.93 11-11 0-3-1.2-5.73-3.17-7.72.1.56.17 1.13.17 1.72v5.16z"/></g><g><path fill="#ffdc5d" d="M5 21v1c0 .55.45 1 1 1s1-.45 1-1v-1c0-.55-.45-1-1-1s-1 .45-1 1m-1.5-4c0-.28-.22-.5-.5-.5H1c-.28 0-.5.22-.5.5s.22.5.5.5h2c.28 0 .5-.22.5-.5M5 14h1s-1-2-4-2c-.8 0-1.46.15-2 .36V7.4L2 4l3 5v1.52c2.97 1.05 5.22 3.6 5.83 6.76.1.56.17 1.13.17 1.72v5.16c-2.3.66-3.31 3.56-3.73 5.36-.96-1.47-3.04-3.68-7.27-4.8V14h5z"/></g><g><path fill="#3b94d9" d="M0 7.4L2 4l3 5h6c2.2 0 4-1.8 4-4V0H0v7.4z"/></g><g><path fill="#1c6399" d="M11 4V0h-1v4h1z"/></g><g><path fill="#bf6952" d="M5 14h1s-1-2-4-2c-.8 0-1.46.15-2 .36V14h5z"/></g><g><path fill="#662113" d="M6 20c-.55 0-1 .45-1 1v1c0 .55.45 1 1 1s1-.45 1-1v-1c0-.55-.45-1-1-1"/></g><g><path fill="#bf6952" d="M3 16.5H1c-.28 0-.5.22-.5.5s.22.5.5.5h2c.28 0 .5-.22.5-.5s-.22-.5-.5-.5"/></g><g><path fill="#e75a70" d="M26.54 31.3c0 2.6-2.1 4.7-4.7 4.7-1.6 0-2.98-.78-3.84-1.97-.86 1.2-2.25 1.97-3.83 1.97-2.6 0-4.7-2.1-4.7-4.7 0-.38.04-.74.12-1.08.64-4.07 5.16-8.35 8.4-9.53 3.24 1.17 7.76 5.45 8.4 9.52.1.34.14.7.14 1.07"/></g></g></g></g></svg>