<svg xmlns="http://www.w3.org/2000/svg" viewBox="0 0 45 45" enable-background="new 0 0 45 45"><defs><clipPath id="a"><path d="M0 36h36V0H0v36z"/></clipPath></defs><g><g><g clip-path="url(#a)" transform="matrix(1.25 0 0 -1.25 0 45)"><g><path fill="#aa8ed6" d="M36 18c0-9.94-8.06-18-18-18S0 8.06 0 18s8.06 18 18 18 18-8.06 18-18"/></g><g><path fill="#aa8ed6" d="M10 32c-2.58 0-5.63 2.47-6.6 3.4-.56.6-1.42.76-2.17.45C.5 35.55 0 34.8 0 34c0-3.46 1.67-10 8-10 .76 0 1.45.43 1.8 1.1l2 4c.3.63.27 1.36-.1 1.95-.36.6-1 .95-1.7.95"/></g><g><path fill="#aa8ed6" d="M34.77 35.85c-.75.3-1.6.14-2.18-.44-.9-.87-4-3.4-6.6-3.4-.7 0-1.34-.36-1.7-.95-.37-.6-.4-1.32-.1-1.94l2-4c.35-.67 1.04-1.1 1.8-1.1 6.33 0 8 6.54 8 10 0 .8-.5 1.54-1.23 1.85"/></g><g><path fill="#553986" d="M15 18c-.3 0-.6.07-.9.2l-6 3c-.98.5-1.38 1.7-.9 2.7.5.98 1.7 1.38 2.7.9l6-3c.98-.5 1.38-1.7.9-2.7-.36-.7-1.07-1.1-1.8-1.1"/></g><g><path fill="#553986" d="M21 6h-6c-1.1 0-2 .9-2 2s.9 2 2 2h6c1.1 0 2-.9 2-2s-.9-2-2-2"/></g><g><path fill="#553986" d="M21 18c-.73 0-1.44.4-1.8 1.1-.48 1-.08 2.2.9 2.7l6 3c1 .5 2.2.08 2.7-.9.48-1 .08-2.2-.9-2.7l-6-3c-.3-.13-.6-.2-.9-.2"/></g><g><path fill="#553986" d="M20 18s0 2 2 2 2-2 2-2v-2s0-2-2-2-2 2-2 2v2z"/></g><g><path fill="#553986" d="M12 18s0 2 2 2 2-2 2-2v-2s0-2-2-2-2 2-2 2v2z"/></g></g></g></g></svg>