<svg xmlns="http://www.w3.org/2000/svg" viewBox="0 0 45 45" enable-background="new 0 0 45 45"><defs><clipPath id="a"><path d="M0 36h36V0H0v36z"/></clipPath></defs><g><g><g clip-path="url(#a)" transform="matrix(1.25 0 0 -1.25 0 45)"><g><path fill="#af7e57" d="M36 17.5c0 1.64-.97 3-2.27 3.38C32.37 28.34 25.85 34 18 34c-7.85 0-14.37-5.66-15.73-13.12C.97 20.5 0 19.14 0 17.5c0-1.74 1.1-3.17 2.5-3.44C4.28 7.13 10.54 2 18 2c7.47 0 13.73 5.13 15.5 12.06 1.4.27 2.5 1.7 2.5 3.44"/></g><g><path fill="#662214" d="M18 11c-3 0-4 1-4-1s2-4 4-4 4 2 4 4-1 1-4 1"/></g><g><path fill="#662214" d="M25 17.5c0-1.38-1.12-2.5-2.5-2.5S20 16.12 20 17.5s1.12 2.5 2.5 2.5 2.5-1.12 2.5-2.5"/></g><g><path fill="#662214" d="M16 17.5c0-1.38-1.12-2.5-2.5-2.5S11 16.12 11 17.5s1.12 2.5 2.5 2.5 2.5-1.12 2.5-2.5"/></g><g><path fill="#fff" d="M18 10h2V9s0-1-1-1-1 1-1 1v1z"/></g><g><path fill="#845636" d="M17.98 25h-.03c-1.2 0-2.3.46-3.13 1.3-.75.76-1.14 1.8-1.08 2.85.03.55.5.96 1.06.94.55-.05.97-.52.94-1.07-.03-.5.15-1 .5-1.34.46-.48 1.07-.73 1.72-.74.66.04 1.27.25 1.74.7 1.3 1.3 1.3 3.38.03 4.68-1.7 1.72-4.48 1.74-6.2.04-.4-.38-1.03-.38-1.4 0-.4.4-.4 1.04 0 1.43 2.5 2.48 6.55 2.45 9.03-.05 2.05-2.1 2.03-5.43-.06-7.5-.83-.8-1.94-1.25-3.12-1.25"/></g></g></g></g></svg>