<svg xmlns="http://www.w3.org/2000/svg" viewBox="0 0 45 45" enable-background="new 0 0 45 45"><defs><clipPath id="a"><path d="M0 36h36V0H0v36z"/></clipPath></defs><g><g><g clip-path="url(#a)" transform="matrix(1.25 0 0 -1.25 0 45)"><g><path fill="#e6e7e8" d="M35 18c0 7-2 13-7 16s-10 .78-10 .78v-.03.03S13 37 8 34s-7-9-7-16S0 0 0 0h36s-1 11-1 18"/></g><g><path fill="#ffe51e" d="M18 33.2c4.87 0 13-2.45 13-13 0-10.57 0-13-2.44-13-2.43 0-5.68 2.43-10.56 2.43-4.88 0-8.06-2.44-10.56-2.44C4.72 7.2 5 16.93 5 20.2c0 10.55 8.12 13 13 13"/></g><g><path fill="#fff" d="M32 0v1c0 3.3-2.7 6-6 6H10C6.7 7 4 4.3 4 1V0h28z"/></g><g><path fill="#f3d2a2" d="M27.75 20.55c0 6.92-4.37 12.54-9.75 12.54-5.4 0-9.75-5.63-9.75-12.55 0-5.6 2.83-10.3 6.75-11.94V7h-3V2h12v5h-3v1.6c3.92 1.64 6.75 6.37 6.75 11.95"/></g><g><path fill="#ffe51e" d="M5.86 16c-.02 0-.05.6-.05.88 0 4.06 2.45-.43 2.45 2.47 0 2.9 1.62 3.26 3.25 4.9.8.8 2.44 2.43 2.44 2.43s4.06-2.43 7.3-2.43c3.26 0 6.5-1.62 6.5-4.87s2.45 1.56 2.45-2.5c0-.3-.04-.88-.06-.88H31c0 1 0 2.6 0 4.13 0 10.56-8.12 14.65-13 14.65-4.88 0-13-4.1-13-14.67 0-.93-.02-2.1 0-4.1h.86z"/></g><g><path fill="#662113" d="M14 18c-.55 0-1 .45-1 1v1c0 .55.45 1 1 1s1-.45 1-1v-1c0-.55-.45-1-1-1"/></g><g><path fill="#662113" d="M22 18c-.55 0-1 .45-1 1v1c0 .55.45 1 1 1s1-.45 1-1v-1c0-.55-.45-1-1-1"/></g><g><path fill="#fff" d="M27.65 30.04c-.48.56-.98 1.08-1.52 1.53C24.7 31.24 21.6 31 18 31c-3.6 0-6.68.23-8.13.57-.53-.45-1.04-.97-1.5-1.53C10.22 29.42 13.83 29 18 29c4.16 0 7.78.42 9.65 1.04"/></g><g><path fill="#c1694f" d="M19 15.5c0-.28-.22-.5-.5-.5h-1c-.28 0-.5.22-.5.5s.22.5.5.5h1c.28 0 .5-.22.5-.5"/></g><g><path fill="#df1f32" d="M18 12.22c1.13 0 1.8.47 2.34.8.54.35 1.47-.28.66-.98-.8-.7-2.05-.98-3-.98v1.16z"/></g><g><path fill="#df1f32" d="M18 12.22c-1.13 0-1.82.47-2.35.8-.53.35-1.47-.28-.66-.98.8-.7 2.04-.98 3-.98v1.16z"/></g></g></g></g></svg>