<svg xmlns="http://www.w3.org/2000/svg" viewBox="0 0 45 45" enable-background="new 0 0 45 45"><defs><clipPath id="a"><path d="M0 36h36V0H0v36z"/></clipPath></defs><g><g><g clip-path="url(#a)" transform="matrix(1.25 0 0 -1.25 0 45)"><g><path fill="#f7dece" d="M30.5 22c-.43 0-.82-.2-1.18-.5C27.7 27.55 23.24 31.9 18 31.9S8.3 27.54 6.68 21.5c-.36.3-.75.5-1.18.5C4.12 22 3 20.2 3 18s1.12-4 2.5-4c.23 0 .44.06.65.15C7 6.7 11.98 1 18 1s11 5.7 11.86 13.15c.2-.1.42-.15.64-.15 1.38 0 2.5 1.8 2.5 4s-1.12 4-2.5 4"/></g><g><path fill="#dd2e44" d="M6 23.9C6 28.93 10.96 35 18 35s12-6.06 12-11.1c0-.73-4.96-2.9-12-2.9S6 23.17 6 23.9"/></g><g><path fill="#c1694f" d="M18 5c-2.2 0-4.36 1.06-4.45 1.1-.5.25-.7.85-.44 1.35.25.5.85.7 1.35.45 0 0 1.82-.9 3.55-.9 1.73 0 3.54.9 3.55.9.5.24 1.1.04 1.34-.45.24-.5.04-1.1-.45-1.34C22.35 6.07 20.2 5 18 5"/></g><g><path fill="#c1694f" d="M19 10h-2c-.55 0-1 .45-1 1s.45 1 1 1h2c.55 0 1-.45 1-1s-.45-1-1-1"/></g><g><path fill="#77b255" d="M18 35s5-4 6-8c.97-3.88 0-7 0-7H12s-1 3 0 7 6 8 6 8"/></g><g><path fill="#414042" d="M6 25s3-3 12-3 12 3 12 3 1-2 0-3-4-3-12-3-11 2-12 3 0 3 0 3"/></g><g><path fill="#414042" d="M16 35c0 .55.9 1 2 1s2-.45 2-1-.9-1-2-1-2 .45-2 1"/></g><g><path fill="#ffd983" d="M15 25c0 1.1 1.34 2 3 2s3-.9 3-2-1.34-2-3-2-3 .9-3 2"/></g><g><path fill="#662113" d="M13 14c-.55 0-1 .45-1 1v2c0 .55.45 1 1 1s1-.45 1-1v-2c0-.55-.45-1-1-1"/></g><g><path fill="#662113" d="M23 14c-.55 0-1 .45-1 1v2c0 .55.45 1 1 1s1-.45 1-1v-2c0-.55-.45-1-1-1"/></g></g></g></g></svg>