<svg xmlns="http://www.w3.org/2000/svg" viewBox="0 0 45 45" enable-background="new 0 0 45 45"><defs><clipPath id="a"><path d="M0 0h33v36H0V0z"/></clipPath><clipPath id="b"><path d="M10 8C6.67 8 4 5.3 4 2V0h28v2c0 3.3-2.7 6-6 6H10z"/></clipPath><clipPath id="c"><path d="M0 0h33v36H0V0z"/></clipPath><clipPath id="d"><path d="M0 36h36V0H0v36z"/></clipPath></defs><g><g><g clip-path="url(#a)" transform="matrix(1.25 0 0 -1.25 0 45)"><g><path fill="#77b255" d="M32 0v2c0 3.3-2.7 6-6 6H10C6.67 8 4 5.3 4 2V0h28z"/></g></g></g><g><g clip-path="url(#b)" transform="matrix(1.25 0 0 -1.25 0 45)"><g><path fill="#5c913b" d="M11-1.75c-.2 0-.38.07-.53.22-.3.3-.3.76 0 1.06C16 5.13 22.93 9.13 27.7 9.46c.4 0 .76-.3.8-.7.02-.4-.3-.77-.7-.8-3.7-.25-10.15-3.28-16.27-9.5-.14-.14-.34-.2-.53-.2"/></g></g></g><g><g clip-path="url(#c)" transform="matrix(1.25 0 0 -1.25 0 45)"><g><path fill="#ffdc5d" d="M13.63 7.9c1.74-1.27 2.85-1.96 4.36-1.96 1.5 0 2.6.7 4.35 1.96v3.8h-8.72V7.9z"/></g><g><path fill="#ffac33" d="M13.62 10.03c1.22-1.38 2.73-1.75 4.37-1.75 1.63 0 3.13.37 4.35 1.75v3.5h-8.73v-3.5z"/></g><g><path fill="#ffdc5d" d="M11.43 20.06c0-1.44-.73-2.62-1.63-2.62-.9 0-1.64 1.18-1.64 2.62 0 1.45.73 2.63 1.64 2.63.9 0 1.63-1.2 1.63-2.64"/></g><g><path fill="#ffdc5d" d="M27.82 20.06c0-1.44-.73-2.62-1.64-2.62-.9 0-1.63 1.18-1.63 2.62 0 1.45.73 2.63 1.63 2.63.9 0 1.64-1.2 1.64-2.64"/></g><g><path fill="#ffdc5d" d="M9.47 19.04c0 5.6 3.73 11 8.44 11 4.7 0 8.6-5.4 8.6-11S22.7 8.92 18 8.92c-4.72 0-8.53 4.53-8.53 10.12"/></g><g><path fill="#662113" d="M14 19c-.56 0-1 .45-1 1v1c0 .55.44 1 1 1 .54 0 1-.45 1-1v-1c0-.55-.46-1-1-1"/></g><g><path fill="#662113" d="M22 19c-.56 0-1 .45-1 1v1c0 .55.44 1 1 1 .54 0 1-.45 1-1v-1c0-.55-.46-1-1-1"/></g><g><path fill="#c1694f" d="M18.74 16.25h-1.5c-.4 0-.75.34-.75.75 0 .4.33.75.74.75h1.5c.4 0 .75-.34.75-.75 0-.4-.35-.75-.76-.75"/></g></g></g><g><g clip-path="url(#d)" transform="matrix(1.25 0 0 -1.25 0 45)"><g><path fill="#e6e7e8" d="M18 26.07s7.15-1.86 8.24-5.2c.48 1 .76 3.25.76 4.5 0 3.85-3 6.63-7.88 6.63h-2.25C12.75 32 9 29.22 9 25.38c0-1.26.28-3.66.75-4.68 1.1 3.34 8.25 5.37 8.25 5.37"/></g><g><path fill="#d1d3d4" d="M26.98 24.82c-1.4 1.12-3.04 2.04-4.6 2.56-.37.12-.76-.07-.88-.43-.12-.37.07-.76.43-.88 1.67-.56 3.5-1.66 4.88-2.93.1.6.15 1.17.18 1.68"/></g><g><path fill="#d1d3d4" d="M9.12 23.7c2 1.43 8.66 5.73 16.34 5.8-.44.5-.94.94-1.5 1.32-6.72-.5-12.45-3.84-14.95-5.53 0-.46.05-1.02.12-1.6"/></g><g><path fill="#d1d3d4" d="M26.4 28.1c-.04 0-.06 0-.1 0-2.83 0-5.7-.7-8.52-2.1.14.04.22.07.22.07s.82-.22 1.94-.62c2.12.84 4.26 1.28 6.37 1.28.2 0 .4.1.52.22-.1.4-.25.78-.43 1.14"/></g><g><path fill="#d1d3d4" d="M9.2 26.96c2.46 1.6 7.18 3.9 12.42 4.8-.8.24-1.64.24-2.5.24h-1.76c-2.72-1.06-5.15-1.86-7.02-2.9-.54-.67-.94-1.3-1.15-2.14"/></g><g><path fill="#ffac33" d="M26.42 15.73c0 1.57-1.6.55-2.1 0-.72-.8-2.13-2.37-3.54-1.58-2 1.1-2.82.8-2.82.8s-.83.3-2.82-.8c-1.4-.8-2.82.8-3.53 1.58-.48.55-2.1 1.57-2.1 0 0-2.37 1.4-3.95 1.4-3.95 1.42-3.94 4.24-3.94 4.24-3.94.7-.8 4.94-.8 5.64 0 0 0 2.82 0 4.23 3.94 0 0 1.42 1.58 1.42 3.95"/></g><g><path fill="#ffdc5d" d="M18 13.5c5 0 3-1.38 0-1.38s-5 1.38 0 1.38"/></g></g></g></g></svg>