<svg xmlns="http://www.w3.org/2000/svg" viewBox="0 0 45 45" enable-background="new 0 0 45 45"><defs><clipPath id="a"><path d="M0 0h33v36H0V0z"/></clipPath><clipPath id="b"><path d="M18 36c-5 0-7.13-1.34-9-4-2-2.83 0-5-3-7-1.86-1.24 6-2.3 12-2.3s13.86 1.06 12 2.3c-3 2-1 4.17-3 7-1.87 2.66-5 4-9 4z"/></clipPath></defs><g><g><g clip-path="url(#a)" transform="matrix(1.25 0 0 -1.25 0 45)"><g><path fill="#f2760f" d="M32 0v2c0 3.3-2.7 6-6 6H10C6.7 8 4 5.3 4 2V0h28z"/></g><path fill="#292f33" d="M23 5H13v4h10V5z"/><g><path fill="#292f33" d="M14 9h8s-1.02-7-4-7-4 7-4 7"/></g><g><path fill="#d5ab88" d="M13.64 5.96C15.38 4.7 16.5 4 18 4c1.5 0 2.62.7 4.36 1.96v5.75h-8.72V5.97z"/></g><g><path fill="#cc9b7a" d="M13.63 10.03c1.22-1.38 2.73-1.75 4.37-1.75 1.63 0 3.14.37 4.36 1.75v3.5h-8.73v-3.5z"/></g><g><path fill="#d5ab88" d="M11.44 20.06c0-1.44-.73-2.62-1.63-2.62-.9 0-1.63 1.18-1.63 2.62 0 1.45.73 2.63 1.64 2.63.9 0 1.64-1.2 1.64-2.64"/></g><g><path fill="#d5ab88" d="M27.83 20.06c0-1.44-.73-2.62-1.63-2.62-.9 0-1.64 1.18-1.64 2.62 0 1.45.73 2.63 1.64 2.63.9 0 1.63-1.2 1.63-2.64"/></g><g><path fill="#d5ab88" d="M9.48 19.04c0 5.6 3.8 10.12 8.52 10.12 4.7 0 8.52-4.53 8.52-10.12 0-5.6-3.8-10.12-8.52-10.12-4.7 0-8.52 4.53-8.52 10.12"/></g><g><path fill="#c1694f" d="M18 12.2c-2.75 0-3.6.7-3.74.85-.26.25-.26.67 0 .92.25.25.64.26.9.03.05-.04.72-.5 2.84-.5 2.2 0 2.84.5 2.84.5.26.25.66.24.92-.02.25-.25.24-.68-.02-.93-.14-.15-1-.85-3.74-.85"/></g><g><path fill="#963b22" d="M18 32.52c5.65 0 9.18-4.17 9.18-7.64 0-3.47-.7-4.86-1.4-3.47-.72 1.4-1.43 2.78-1.43 2.78s-4.23 0-5.64 1.4c0 0 2.12-4.17-2.1 0 0 0 .7-2.78-3.54.7 0 0-2.12-1.4-2.83-4.87-.2-.96-1.4 0-1.4 3.48 0 3.47 2.82 7.64 9.17 7.64"/></g><g><path fill="#662113" d="M14 19c-.55 0-1 .45-1 1v1c0 .55.45 1 1 1s1-.45 1-1v-1c0-.55-.45-1-1-1"/></g><g><path fill="#662113" d="M22 19c-.55 0-1 .45-1 1v1c0 .55.45 1 1 1s1-.45 1-1v-1c0-.55-.45-1-1-1"/></g><g><path fill="#c1694f" d="M18.75 16.25h-1.5c-.4 0-.75.34-.75.75 0 .4.34.75.75.75h1.5c.4 0 .75-.34.75-.75 0-.4-.34-.75-.75-.75"/></g><g><path fill="#fff75f" d="M30 25c-3 2-1 4.17-3 7-1.87 2.66-5 4-9 4-5 0-7.13-1.34-9-4-2-2.83 0-5-3-7-1.86-1.24 6-2.3 12-2.3s13.86 1.06 12 2.3"/></g><g><path fill="#292f33" d="M19 1.06L18 0l-1 1v3h2V1.06z"/></g><path fill="#fff75f" d="M12 0H9v8h3V0z"/><path fill="#fff75f" d="M27 0h-3v8h3V0z"/><g><path fill="#55acee" d="M11 8c0-1 1-3 3-5 1.58-1.58 4-3 4-3 0 3.06-1 4-2 5s-3 2-3 4c0 1-2-1-2-1"/></g><g><path fill="#55acee" d="M25 8c0-1-1-3-3-5-1.58-1.58-4-3-4-3 0 3.06 1 4 2 5s3 2 3 4c0 1 2-1 2-1"/></g></g></g><g><g clip-path="url(#b)" transform="matrix(1.25 0 0 -1.25 0 45)"><g><path fill="#ffac33" d="M16 24.5h-.5c-3.6 0-10.7 1.03-12.72 2.05-.25.13-.35.43-.23.67.13.25.43.35.67.23 1.8-.9 8.2-1.86 11.78-1.94V36c0 .28.22.5.5.5s.5-.22.5-.5V24.5z"/></g><g><path fill="#ffac33" d="M20.5 24.5H20V36c0 .28.22.5.5.5s.5-.22.5-.5V25.5c4.54.08 14 1.06 15.78 1.95.24.12.54.02.67-.23.12-.24.02-.54-.23-.67C35.1 25.5 24.44 24.5 20.5 24.5"/></g></g></g></g></svg>