<svg xmlns="http://www.w3.org/2000/svg" viewBox="0 0 45 45" enable-background="new 0 0 45 45"><defs><clipPath id="a"><path d="M0 36h36V0H0v36z"/></clipPath><clipPath id="b"><path d="M0 0h33v36H0V0z"/></clipPath><clipPath id="c"><path d="M12 9C8.7 9 5 6.82 5 3.5V0h26v3.5C31 6.82 27.3 9 24 9H12z"/></clipPath><clipPath id="d"><path d="M0 0h33v36H0V0z"/></clipPath><clipPath id="e"><path d="M0 36h36V0H0v36z"/></clipPath><clipPath id="f"><path d="M18 36c-5 0-7.13-1.34-9-4-2-2.83 0-5-3-7-1.86-1.24 6-2.3 12-2.3s13.86 1.06 12 2.3c-3 2-1 4.17-3 7-1.87 2.66-5 4-9 4z"/></clipPath></defs><g><g><g clip-path="url(#a)" transform="matrix(1.25 0 0 -1.25 0 45)"><g><path fill="#f2760f" d="M31 0v3.5C31 6.8 27.3 9 24 9H12C8.7 9 5 6.8 5 3.5V0h26z"/></g><g><path fill="#ffe51e" d="M17.95 30.93c4.1 0 10.94-2.05 10.94-10.95 0-8.9 0-10.94-2.06-10.94-2.05 0-4.8 2.05-8.9 2.05-4.1 0-6.78-2.06-8.9-2.06C6.77 9.04 7 17.24 7 19.98c0 8.9 6.84 10.95 10.95 10.95"/></g><g><path fill="#292f33" d="M14 9h8s-1.02-5-4-5-4 5-4 5"/></g><path fill="#292f33" d="M23 5H13v4h10V5z"/><g><path fill="#f3d2a2" d="M14.33 8.98C15.8 7.92 17.3 8 18 8c.7 0 2.2-.08 3.66.98v3.2h-7.33V9z"/></g><g><path fill="#e2c196" d="M14.32 10.82c1.02-1.15 2.3-1.47 3.67-1.47s2.64.32 3.66 1.47v2.94h-7.34v-2.94z"/></g><g><path fill="#f3d2a2" d="M9.73 20.28c0 5.84 3.68 10.57 8.2 10.57 4.55 0 8.22-4.73 8.22-10.57 0-5.83-3.67-10.28-8.2-10.28-4.54 0-8.22 4.45-8.22 10.28"/></g><g><path fill="#df1f32" d="M17.95 12.46c-1.6 0-2.45.8-2.54.88-.26.27-.26.7 0 .97.27.27.7.28.97.02.03-.04.55-.5 1.58-.5s1.55.48 1.57.5c.28.25.7.24.96-.02.26-.27.26-.7 0-.96-.1-.1-.93-.88-2.53-.88"/></g><g><path fill="#ffe51e" d="M7.73 17c-.03 1-.05.22-.05.47 0 3.42 2.05-.5 2.05 1.94 0 2.45 1.37 2.7 2.74 4.06.7.68 2.05 2.03 2.05 2.03s3.42-2.08 6.16-2.08 5.48-1.38 5.48-4.1c0-2.75 2.05 1.57 2.05-1.85 0-.24 0 .53-.03-.47h.72c0 2 0 1.92 0 3.2 0 8.9-6.85 12.2-10.96 12.2C13.84 32.4 7 29.16 7 20.27c0-.8-.02-1.26 0-3.26h.73z"/></g><g><path fill="#662113" d="M14.6 18.1c-.46 0-.84.4-.84.86v.84c0 .47.38.85.85.85s.86-.38.86-.85v-.84c0-.47-.4-.85-.85-.85"/></g><g><path fill="#662113" d="M21.37 18.1c-.46 0-.84.4-.84.86v.84c0 .47.38.85.84.85.47 0 .85-.38.85-.85v-.84c0-.47-.38-.85-.85-.85"/></g><g><path fill="#c1694f" d="M18.84 15.5h-1.7c-.23 0-.42.2-.42.42v.16c0 .23.2.42.43.42h1.7c.22 0 .4-.2.4-.42v-.16c0-.23-.18-.42-.4-.42"/></g></g></g><g><g clip-path="url(#b)" transform="matrix(1.25 0 0 -1.25 0 45)"><g><path fill="#f3d2a2" d="M11.44 20.06c0-1.44-.73-2.62-1.63-2.62-.9 0-1.63 1.18-1.63 2.62 0 1.45.73 2.63 1.64 2.63.9 0 1.64-1.2 1.64-2.64"/></g><g><path fill="#f3d2a2" d="M27.83 20.06c0-1.44-.73-2.62-1.64-2.62-.9 0-1.64 1.18-1.64 2.62 0 1.45.73 2.63 1.63 2.63.9 0 1.63-1.2 1.63-2.64"/></g><g><path fill="#292f33" d="M19 1.06L18 0l-1 1-1 4h3.5L19 1.06z"/></g></g></g><g><g fill="#fff75f" clip-path="url(#c)" transform="matrix(1.25 0 0 -1.25 0 45)"><path d="M27 0h-3v9h3V0z"/><path d="M12 0H9v9h3V0z"/></g></g><g><g clip-path="url(#d)" transform="matrix(1.25 0 0 -1.25 0 45)"><g><path fill="#55acee" d="M10.5 9c0-1.07 1.5-3.66 3.5-5.8C15.58 1.5 18 0 18 0c0 3.27-1 4.27-2 5.34C15 6.4 13 6.86 13 9c0 1.07-2.5 0-2.5 0"/></g><g><path fill="#55acee" d="M25.5 9c0-1.07-1.5-3.66-3.5-5.8C20.42 1.5 18 0 18 0c0 3.27 1 4.27 2 5.34C21 6.4 23 6.86 23 9c0 1.07 2.5 0 2.5 0"/></g></g></g><g><g clip-path="url(#e)" transform="matrix(1.25 0 0 -1.25 0 45)"><g><path fill="#fff75f" d="M30 25c-3 2-1 4.17-3 7-1.87 2.66-5 4-9 4-5 0-7.13-1.34-9-4-2-2.83 0-5-3-7-1.86-1.24 6-2.3 12-2.3s13.86 1.06 12 2.3"/></g></g></g><g><g clip-path="url(#f)" transform="matrix(1.25 0 0 -1.25 0 45)"><g><path fill="#ffac33" d="M16 24.5h-.5c-3.6 0-10.7 1.03-12.72 2.05-.25.13-.35.43-.23.67.13.25.43.35.67.23 1.8-.9 8.2-1.86 11.78-1.94V36c0 .28.22.5.5.5s.5-.22.5-.5V24.5z"/></g><g><path fill="#ffac33" d="M20.5 24.5H20V36c0 .28.22.5.5.5s.5-.22.5-.5V25.5c4.54.08 14 1.06 15.78 1.95.24.12.54.02.67-.23.12-.24.02-.54-.23-.67C35.1 25.5 24.44 24.5 20.5 24.5"/></g></g></g></g></svg>