<svg xmlns="http://www.w3.org/2000/svg" viewBox="0 0 45 45" enable-background="new 0 0 45 45"><defs><clipPath id="a"><path d="M0 36h36V0H0v36z"/></clipPath></defs><g><g><g clip-path="url(#a)" transform="matrix(1.25 0 0 -1.25 0 45)"><g><path fill="#6d6e71" d="M13.06 32c0 2.2 2.2 4 4.94 4 2.73 0 4.94-1.8 4.94-4s-2.2-4-4.94-4c-2.73 0-4.94 1.8-4.94 4"/></g><g><path fill="#ffdc5d" d="M33 15c0 2.14-1.05 3.87-2.37 3.98C29.25 26.44 24.13 32 18 32c-6.13 0-11.25-5.55-12.63-13.02C4.05 18.88 3 17.14 3 15c0-2.15 1.07-3.9 2.4-3.98C6.8 4.05 11.9 0 18 0s11.2 4.05 12.6 11.02c1.33.08 2.4 1.83 2.4 3.98"/></g><g><path fill="#808285" d="M25 17h-3c-.55 0-1 .45-1 1s.45 1 1 1h3c.55 0 1-.45 1-1s-.45-1-1-1"/></g><g><path fill="#808285" d="M14 17h-3c-.55 0-1 .45-1 1s.45 1 1 1h3c.55 0 1-.45 1-1s-.45-1-1-1"/></g><g><path fill="#df1f32" d="M18 4.35c-2.52 0-3.5.75-3.66.9-.42.37-.45 1-.1 1.4.37.42.98.46 1.4.13.05-.04.7-.43 2.36-.43 1.75 0 2.37.43 2.38.43.4.37 1.02.3 1.4-.1.35-.4.3-1.06-.12-1.43-.17-.15-1.14-.9-3.66-.9"/></g><g><path fill="#c1694f" d="M19 8h-2c-.55 0-1 .45-1 1s.45 1 1 1h2c.55 0 1-.45 1-1s-.45-1-1-1"/></g><g><path fill="#662113" d="M23 12c-.55 0-1 .45-1 1v2c0 .55.45 1 1 1s1-.45 1-1v-2c0-.55-.45-1-1-1"/></g><g><path fill="#662113" d="M13 12c-.55 0-1 .45-1 1v2c0 .55.45 1 1 1s1-.45 1-1v-2c0-.55-.45-1-1-1"/></g><g><path fill="#808285" d="M33 24c-2 7-8 9-11.2 9-1.8 0-3.8-1-3.8-1s-2 1-4 1c-3 0-9-2-11-9-1.65-5.77 2-11 2-11 0 3 2 9 7 9s6 4 6 4 .8-4 5.8-4 7.2-6 7.2-9c0 0 3.65 5.23 2 11"/></g><g><path fill="#aa8dd8" d="M33 12c0-.55-.45-1-1-1s-1 .45-1 1 .45 1 1 1 1-.45 1-1"/></g><g><path fill="#aa8dd8" d="M5 12c0 .55-.45 1-1 1s-1-.45-1-1 .45-1 1-1 1 .45 1 1"/></g></g></g></g></svg>