<?xml version="1.0" encoding="UTF-8" standalone="no"?><svg xmlns:dc="http://purl.org/dc/elements/1.1/" xmlns:cc="http://creativecommons.org/ns#" xmlns:rdf="http://www.w3.org/1999/02/22-rdf-syntax-ns#" xmlns:svg="http://www.w3.org/2000/svg" xmlns="http://www.w3.org/2000/svg" viewBox="0 0 45 45" style="enable-background:new 0 0 45 45;" xml:space="preserve" version="1.1" id="svg2"><metadata id="metadata8"><rdf:RDF><cc:Work rdf:about=""><dc:format>image/svg+xml</dc:format><dc:type rdf:resource="http://purl.org/dc/dcmitype/StillImage"/></cc:Work></rdf:RDF></metadata><defs id="defs6"><clipPath id="clipPath16" clipPathUnits="userSpaceOnUse"><path id="path18" d="M 0,36 36,36 36,0 0,0 0,36 Z"/></clipPath></defs><g transform="matrix(1.25,0,0,-1.25,0,45)" id="g10"><g id="g12"><g clip-path="url(#clipPath16)" id="g14"><g transform="translate(36,33.9995)" id="g20"><path id="path22" style="fill:#a88dc1;fill-opacity:1;fill-rule:nonzero;stroke:none" d="m 0,0 c 0,0.809 -0.487,1.538 -1.234,1.848 -0.75,0.31 -1.608,0.139 -2.18,-0.434 -0.61,-0.61 -2.275,-1.998 -4.099,-2.805 C -10.468,0.735 -14.082,2 -18,2 c -3.919,0 -7.535,-1.267 -10.491,-3.394 -1.799,0.794 -3.44,2.158 -4.095,2.808 -0.571,0.572 -1.433,0.744 -2.179,0.434 C -35.513,1.538 -36,0.809 -36,0 c 0,-2.006 0.571,-5.044 2.278,-7.246 C -35.168,-9.838 -36,-12.821 -36,-16 c 0,-9.942 8.059,-18 18,-18 9.941,0 18,8.058 18,18 0,3.179 -0.832,6.162 -2.278,8.754 C -0.57,-5.044 0,-2.006 0,0"/></g><g transform="translate(15.8945,21.7886)" id="g24"><path id="path26" style="fill:#553986;fill-opacity:1;fill-rule:nonzero;stroke:none" d="M 0,0 -6,3 C -6.988,3.494 -8.189,3.093 -8.684,2.105 -9.177,1.117 -8.777,-0.084 -7.789,-0.578 l 4.212,-2.107 c -0.307,-0.532 -0.318,-1.104 -0.318,-1.104 l 0,-2.001 c 0,0 0,-2 2,-2 2,0 2,2 2,2 l 0,2.001 c 0,0 -0.002,0.108 -0.025,0.263 0.338,0.189 0.628,0.47 0.815,0.842 C 1.388,-1.695 0.988,-0.494 0,0"/></g><g transform="translate(28.7891,23.894)" id="g28"><path id="path30" style="fill:#553986;fill-opacity:1;fill-rule:nonzero;stroke:none" d="m 0,0 c -0.493,0.986 -1.694,1.391 -2.684,0.895 l -6,-3 c -0.988,-0.495 -1.388,-1.696 -0.894,-2.684 0.186,-0.373 0.476,-0.654 0.814,-0.843 -0.022,-0.154 -0.025,-0.263 -0.025,-0.263 l 0,-2 c 0,0 0,-2 2,-2 2,0 2,2 2,2 l 0,2 c 0,0 -0.011,0.572 -0.318,1.105 l 4.212,2.106 C 0.094,-2.189 0.494,-0.988 0,0"/></g><g transform="translate(24.2822,6.4053)" id="g32"><path id="path34" style="fill:#553986;fill-opacity:1;fill-rule:nonzero;stroke:none" d="m 0,0 c -0.039,0.165 -0.985,3.848 -6.282,3.848 -5.291,0 -6.245,-3.691 -6.282,-3.848 -0.063,-0.26 0.047,-0.525 0.273,-0.661 0.227,-0.135 0.515,-0.098 0.703,0.092 0.015,0.015 1.583,1.522 5.306,1.522 3.722,0 5.291,-1.507 5.304,-1.52 0.109,-0.113 0.259,-0.176 0.413,-0.176 0.099,0 0.199,0.026 0.289,0.079 C -0.051,-0.531 0.062,-0.258 0,0"/></g></g></g></g></svg>
