<svg xmlns="http://www.w3.org/2000/svg" viewBox="0 0 45 45" enable-background="new 0 0 45 45"><defs><clipPath id="a"><path d="M0 36h36V0H0v36z"/></clipPath></defs><g><g><g clip-path="url(#a)" transform="matrix(1.25 0 0 -1.25 0 45)"><g><path fill="#e1e8ed" d="M0 5.9s0-.02 0-.03c0-.1.02-.22.03-.33 0-.07 0-.15.02-.22s.03-.14.05-.2C.72 2.22 4.43 0 8.94 0c4.5 0 8.22 2.23 8.84 5.12.02.07.03.13.04.2.02.07.02.15.03.23 0 .1.03.2.03.32 0 0 0 .02 0 .04 0 .03 0 .04 0 .06-.06 1.65-1.37 2.98-2.98 2.98-1.62 0-2.92-1.33-2.97-2.98h-.02c0 .03.02.06.02.1 0 1.7-1.34 3.07-2.98 3.07-1.65 0-2.98-1.38-2.98-3.08 0-.03 0-.06 0-.1-.06 1.66-1.36 3-2.98 3-1.62 0-2.92-1.34-2.97-3 0 0 0-.02 0-.04"/></g><g><path fill="#e1e8ed" d="M18.1 5.9c-.02 0-.02-.02-.02-.03 0-.1.02-.22.03-.33.02-.07.02-.15.04-.22 0-.07.03-.14.04-.2C18.8 2.22 22.5 0 27.02 0c4.5 0 8.23 2.23 8.84 5.12.02.07.04.13.05.2.02.07.02.15.03.23 0 .1.03.2.03.32 0 0 0 .02 0 .04 0 .03 0 .04 0 .06-.06 1.65-1.36 2.98-2.98 2.98-1.6 0-2.92-1.33-2.97-2.98 0 .03 0 .06 0 .1 0 1.7-1.33 3.07-2.98 3.07-1.64 0-2.98-1.38-2.98-3.08 0-.03 0-.06 0-.1-.06 1.66-1.36 3-2.98 3-1.6 0-2.92-1.34-2.97-3h-.02s0-.02 0-.04"/></g><g><path fill="#f7dece" d="M30 15c0-6.63-5.37-12-12-12S6 8.37 6 15s5.37 12 12 12 12-5.37 12-12"/></g><g><path fill="#292f33" d="M18 30.8c-7.44 0-13.5-6.06-13.5-13.5 0-1.9.4-3.76 1.18-5.5.1-.2.3-.32.52-.3.22.04.4.2.43.43.4 2.75 2.58 4.7 4.5 6.43 1.8 1.6 3.5 3.12 3.46 5.04 6.5-1.17 14-6.02 14.77-11.47.03-.22.2-.4.43-.43.02 0 .04 0 .06 0 .2 0 .38.1.46.3.78 1.74 1.18 3.6 1.18 5.5 0 7.44-6.06 13.5-13.5 13.5"/></g><g><path fill="#662113" d="M14 9h8s-1-2-4-2-4 2-4 2"/></g><g><path fill="#662113" d="M16 14c0-.55-.45-1-1-1s-1 .45-1 1v2c0 .55.45 1 1 1s1-.45 1-1v-2z"/></g><g><path fill="#662113" d="M22 14c0-.55-.45-1-1-1s-1 .45-1 1v2c0 .55.45 1 1 1s1-.45 1-1v-2z"/></g><g><path fill="#8ccaf7" d="M18 27c-4.97 0-9 1.57-9 3.5s4.03 3.5 9 3.5 9-1.57 9-3.5-4.03-3.5-9-3.5m0 9c-6.63 0-12-2.7-12-6s5.37-6 12-6 12 2.7 12 6-5.37 6-12 6"/></g></g></g></g></svg>