<svg xmlns="http://www.w3.org/2000/svg" viewBox="0 0 45 45" enable-background="new 0 0 45 45"><defs><clipPath id="a"><path d="M0 36h36V0H0v36z"/></clipPath></defs><g><g><g clip-path="url(#a)" transform="matrix(1.25 0 0 -1.25 0 45)"><g><path fill="#292f33" d="M32 13s7 0 1 8c0 0 6 2-2 7 0 0 6 6.02-7 3 0 0 0 5-2 5s-4-4-4-4-2 4-4 4-2-5-2-5c-13 3.07-7-3-7-3-8-5-2-7-2-7-6-8 1-8 1-8s-4-2-4-5 3-2 6-2c-7-9 12-1 12-1s19-8 12 1c3 0 6-1 6 2s-4 5-4 5"/></g><g><path fill="#dd2e44" d="M6 15.44C6 28 11.37 30.88 18 30.88S30 28 30 15.44C30 6.9 25.97 0 18 0 10 0 6 6.9 6 15.44"/></g><g><path fill="#a0041e" d="M20 10h-1c-.55 0-1 .45-1 1s.45 1 1 1h1c.55 0 1-.45 1-1s-.45-1-1-1"/></g><g><path fill="#a0041e" d="M17 10h-1c-.55 0-1 .45-1 1s.45 1 1 1h1c.55 0 1-.45 1-1s-.45-1-1-1"/></g><g><path fill="#ffac33" d="M13.86 26.5c.03.06.05.1.07.17.18.5-.05 1.08-.55 1.27-.03 0-2.38 1.1-5.38 7.45 0 .05-.1.1-.14.15-.04.05-.1.1-.13.16-.1.1-.2.17-.33.22-.03 0-.07 0-.1.02-.1.03-.18.05-.28.06 0 0 0 0-.02 0-.05 0-.1-.02-.14-.03-.06 0-.13 0-.2-.03 0 0 0 0-.02 0-.06-.03-.1-.07-.16-.1-.06-.04-.12-.07-.16-.12-.04-.03-.07-.08-.1-.13-.05-.06-.1-.1-.12-.18-.02-.05-.03-.1-.05-.15-.02-.07-.04-.14-.04-.22 0-.02 0-.03 0-.05 0-.27.06-6.6 5.5-9.86.15-.1.32-.14.5-.14.17 0 .35.05.5.14.02 0 .03-.02.05-.03.15-.07.3-.1.45-.1.37 0 .72.2.9.55.15.32.13.68-.04.96"/></g><g><path fill="#ffac33" d="M30 35.05c0 .08-.03.15-.05.22-.02.05-.03.1-.05.15-.03.06-.07.1-.1.17-.05.04-.08.1-.12.12-.04.05-.1.08-.15.1-.06.04-.1.08-.17.1 0 0-.02.02-.02.02-.07.03-.14.02-.2.03-.05 0-.1.03-.14.03 0 0 0 0-.02 0-.1 0-.2-.03-.3-.06-.02 0-.05 0-.07-.02-.22-.1-.4-.28-.52-.53-2.72-6.36-5.4-7.45-5.4-7.45-.52-.18-.8-.74-.63-1.27.02-.06.05-.12.08-.18-.16-.28-.18-.63-.02-.95.18-.35.53-.55.9-.55.15 0 .3.03.45.1.02.02.03.03.05.04.15-.1.33-.14.5-.14.18 0 .35.05.5.14C29.95 28.4 30 34.74 30 35c0 .02 0 .03 0 .05"/></g><g><path fill="#292f33" d="M18 3c-3.17 0-7.2 1.37-7.2 2.9 0 .4.24.78.6.97.18.1.37.13.6.13h12.24l.36-.13.55-.28.04-.7C25.2 4.38 21.16 3 18 3"/></g><g><path fill="#ffac33" d="M13 5c-.55 0-1 .45-1 1s.45 1 1 1 1-.45 1-1-.45-1-1-1"/></g><g><path fill="#ffac33" d="M23 5c-.55 0-1 .45-1 1s.45 1 1 1 1-.45 1-1-.45-1-1-1"/></g><g><path fill="#ffac33" d="M20 4c-.55 0-1 .45-1 1v1c0 .55.45 1 1 1s1-.45 1-1V5c0-.55-.45-1-1-1"/></g><g><path fill="#ffac33" d="M16 4c-.55 0-1 .45-1 1v1c0 .55.45 1 1 1s1-.45 1-1V5c0-.55-.45-1-1-1"/></g><g><path fill="#292f33" d="M14 14c-1.1 0-2 .9-2 2v3c0 1.1.9 2 2 2s2-.9 2-2v-3c0-1.1-.9-2-2-2"/></g><g><path fill="#292f33" d="M22 14c-1.1 0-2 .9-2 2v3c0 1.1.9 2 2 2s2-.9 2-2v-3c0-1.1-.9-2-2-2"/></g></g></g></g></svg>