<svg xmlns="http://www.w3.org/2000/svg" viewBox="0 0 45 45" enable-background="new 0 0 45 45"><defs><clipPath id="a"><path d="M0 36h36V0H0v36z"/></clipPath></defs><g><g><g clip-path="url(#a)" transform="matrix(1.25 0 0 -1.25 0 45)"><g><path fill="#ccd6dd" d="M36 9c0-2.2-1.8-4-4-4H4C1.8 5 0 6.8 0 9v18c0 2.2 1.8 4 4 4h28c2.2 0 4-1.8 4-4V9z"/></g><g><path fill="#99aab5" d="M11.95 18.36L.65 7.06C.6 7 .6 6.98.57 6.95c.34-.57.8-1.04 1.38-1.38.03.02.06.03.1.06l11.3 11.3c.4.4.4 1.03 0 1.42-.4.4-1.02.4-1.4 0"/></g><g><path fill="#99aab5" d="M35.42 6.96c-.02.03-.03.06-.06.1l-11.3 11.3c-.4.4-1.03.4-1.42 0-.4-.4-.4-1.02 0-1.4l11.3-11.32c.04-.03.07-.04.1-.06.57.34 1.04.8 1.38 1.38"/></g><g><path fill="#99aab5" d="M32 31H4c-2.2 0-4-1.8-4-4v-1.03l14.53-14.5c1.9-1.9 5-1.9 6.88 0L36 26v1c0 2.2-1.8 4-4 4"/></g><g><path fill="#e1e8ed" d="M32 31H4c-1.6 0-2.95-.93-3.6-2.27l14.77-14.77c1.56-1.56 4.1-1.56 5.66 0L35.6 28.72c-.65 1.35-2 2.28-3.6 2.28"/></g><g><path fill="#e75a70" d="M27 19.22c0 2.75-2.23 5-5 5-1.66 0-3.13-.84-4.04-2.1-.9 1.26-2.38 2.1-4.05 2.1-2.74 0-4.98-2.25-4.98-5 0-.4.05-.77.14-1.13.7-4.3 5.47-8.85 8.9-10.1 3.43 1.25 8.2 5.8 8.9 10.1.1.35.14.73.14 1.12"/></g></g></g></g></svg>