<svg xmlns="http://www.w3.org/2000/svg" viewBox="0 0 45 45" enable-background="new 0 0 45 45"><defs><clipPath id="a"><path d="M0 0h36v36H0V0z"/></clipPath><clipPath id="b"><path d="M0 36h36V0H0v36z"/></clipPath></defs><g><g><g clip-path="url(#a)" transform="matrix(1.25 0 0 -1.25 0 45)"><g><path fill="#ffac33" d="M17 15l-18 4S-10.42.05-1-1c9.7-1.08 26.3-12.23 21 0-3.83 8.83-2.72 16-3 16"/></g><g><path fill="#ffdc5d" d="M43 15.96c0-6.63-5.37-12-12-12s-12 5.37-12 12 5.37 12 12 12 12-5.37 12-12"/></g><g><path fill="#ffac33" d="M30 29.25c-8.44 0-11.7-5.7-9.33-8.3 1.4-1.54 7.4-1.74 8.33.5 6.52-1.16 11.6-5.6 12.37-11.06.03-.23.2-.4.43-.44.02 0 .04 0 .07 0 .2 0 .37.1.45.3.78 1.74 1.18 3.6 1.18 5.5 0 7.44-6.06 13.48-13.5 13.5"/></g><g><path fill="#ffac33" d="M19.4 22.85s1-2.7 4.68-4.1c3.7-1.4 9.12-.3 9.12-.3s-5.53 8.9-13.8 4.4"/></g><g><path fill="#642116" d="M26 13.46c-1.98 0-2.5 1.63-2.5 2.5 0 .27.22.5.5.5.27 0 .5-.22.5-.5 0-.25.1-1.5 1.5-1.5.28 0 .5-.23.5-.5 0-.28-.22-.5-.5-.5"/></g><g><path fill="#642116" d="M31 13.46c-1.98 0-2.5 1.63-2.5 2.5 0 .27.22.5.5.5.27 0 .5-.22.5-.5 0-.25.1-1.5 1.5-1.5.28 0 .5-.23.5-.5 0-.28-.22-.5-.5-.5"/></g><g><path fill="#642116" d="M26 6.46c-.6 0-1.5.4-1.5 1.5 0 .44.14.76.35 1-.2.23-.35.56-.35 1 0 1.1.9 1.5 1.5 1.5.28 0 .5-.23.5-.5 0-.28-.22-.5-.5-.5-.23 0-.5-.1-.5-.5s.27-.5.5-.5c.28 0 .5-.23.5-.5s-.22-.5-.5-.5c-.23 0-.5-.1-.5-.5s.27-.5.5-.5c.28 0 .5-.23.5-.5 0-.28-.23-.5-.5-.5"/></g><g><path fill="#ffdc5d" d="M-7 15.96c0-6.63 5.37-12 12-12s12 5.37 12 12-5.37 12-12 12-12-5.37-12-12"/></g><g><path fill="#642116" d="M10 13.46c1.98 0 2.5 1.63 2.5 2.5 0 .27-.22.5-.5.5-.27 0-.5-.22-.5-.5 0-.25-.1-1.5-1.5-1.5-.28 0-.5-.23-.5-.5 0-.28.22-.5.5-.5"/></g><g><path fill="#642116" d="M5 13.46c1.98 0 2.5 1.63 2.5 2.5 0 .27-.22.5-.5.5-.27 0-.5-.22-.5-.5 0-.25-.1-1.5-1.5-1.5-.28 0-.5-.23-.5-.5 0-.28.22-.5.5-.5"/></g><g><path fill="#642116" d="M10 6.46c.6 0 1.5.4 1.5 1.5 0 .44-.14.76-.35 1 .2.23.35.56.35 1 0 1.1-.9 1.5-1.5 1.5-.28 0-.5-.23-.5-.5 0-.28.22-.5.5-.5.23 0 .5-.1.5-.5s-.27-.5-.5-.5c-.28 0-.5-.23-.5-.5s.22-.5.5-.5c.23 0 .5-.1.5-.5s-.28-.5-.5-.5c-.28 0-.5-.23-.5-.5 0-.28.23-.5.5-.5"/></g><g><path fill="#ffac33" d="M.3 28.4c-7.15-2.07-11.27-9.58-9.18-16.73.53-1.82 1.43-3.5 2.67-4.95.13-.17.36-.22.57-.13.2.08.32.3.3.52-.4 2.75 1.15 5.24 2.53 7.43 1.27 2.04 6.9 2.45 6.9 6.8 6.57.7 10.12-2.85 12.4-7.87.1-.2.3-.32.52-.3.03 0 .05.02.07.03.18.06.32.22.35.42.26 1.9.12 3.78-.4 5.6-2.1 7.15-9.6 11.27-16.75 9.2"/></g></g></g><g><g clip-path="url(#b)" transform="matrix(1.25 0 0 -1.25 0 45)"><g><path fill="#ea596e" d="M26.54 31.3c0 2.6-2.1 4.7-4.7 4.7-1.6 0-2.98-.78-3.84-1.97-.86 1.2-2.25 1.97-3.83 1.97-2.6 0-4.7-2.1-4.7-4.7 0-.38.04-.74.12-1.08.64-4.07 5.16-8.35 8.4-9.53 3.24 1.17 7.76 5.45 8.4 9.52.1.34.14.7.14 1.07"/></g></g></g></g></svg>