<svg xmlns="http://www.w3.org/2000/svg" viewBox="0 0 45 45" enable-background="new 0 0 45 45"><defs><clipPath id="a"><path d="M0 36h36V0H0v36z"/></clipPath></defs><g><g><g clip-path="url(#a)" transform="matrix(1.25 0 0 -1.25 0 45)"><g><path fill="#e75a70" d="M32.2 28.2c-2.22.37-7.57 3.97-11.4 2.77-3.85-1.2-3.55-2.16-5.47-2.76-1.93-.6-2.23.37-6.07-.83-3.84-1.2-6.18-7.2-7.8-8.77 0 0-1.6-1.62-1.03-3.48.6-1.87 2.53-1.32 2.53-1.32 6.72 2.1 9 4.92 9 4.92s3.5-1.02 6.37-.12c2.88.9 5.16 3.72 5.16 3.72s3.48-1.02 10.2 1.08c0 0 1.9.67 1.32 2.53-.58 1.86-2.82 2.28-2.82 2.28"/></g><g><path fill="#e75a70" d="M31.12 21.54c-5.76-1.8-4.56-5.64-11.3-7.74-6.7-2.1-7.92 1.74-13.68-.06-1.92-.6-2.58-1.87-2.28-2.83.9-2.87 8.4-10 18.97-6.7C33.4 7.5 35.5 17.63 34.6 20.5c-.3.96-1.56 1.62-3.48 1.02"/></g></g></g></g></svg>