<svg xmlns="http://www.w3.org/2000/svg" viewBox="0 0 45 45" enable-background="new 0 0 45 45"><defs><clipPath id="a"><path d="M0 36h36V0H0v36z"/></clipPath></defs><g><g><g clip-path="url(#a)" transform="matrix(1.25 0 0 -1.25 0 45)"><g><path fill="#ea596e" d="M16.52 35.77c2.25 0 4.83-1.38 6.7-3.25 1.88-1.88 3.78-3.93 3.78-6V9.32L11.03 9.3V26.4c-.1 1.5 1.07 9.35 5.5 9.35"/></g><g><path fill="#dd2e44" d="M19 24.62V8c0-1.1.9 0 2 0V6c1.1 0 2 .9 2 2v15.67c-1.26.1-2.65.26-4 .95"/></g><g><path fill="#f4abba" d="M22.07 32.55c2.67-2.4 4.28-5.24 2.96-6.7-1.3-1.47-5.06-1-7.72 1.4-2.65 2.4-3.74 5.5-2.43 6.97 1.32 1.47 4.54.72 7.2-1.67"/></g><g><path fill="#ffcc4d" d="M30 2c0-1.1-.9-2-2-2H10C8.9 0 8 .9 8 2v6c0 1.1.9 2 2 2h18c1.1 0 2-.9 2-2V2z"/></g><g><path fill="#ffac33" d="M31 2c0-1.1-.9-2-2-2H9C7.9 0 7 .9 7 2v1c0 1.1.9 2 2 2h20c1.1 0 2-.9 2-2V2z"/></g></g></g></g></svg>