<svg xmlns="http://www.w3.org/2000/svg" viewBox="0 0 45 45" enable-background="new 0 0 45 45"><defs><clipPath id="a"><path d="M0 36h36V0H0v36z"/></clipPath></defs><g><g><g clip-path="url(#a)" transform="matrix(1.25 0 0 -1.25 0 45)"><g><path fill="#bb1a34" d="M33.2 16.23l-8.86 8.85L11.1 11.46l8.7-8.68C21.5 1.06 23.87 0 26.5 0 31.75 0 36 4.25 36 9.5c0 2.63-1.07 5-2.8 6.73"/></g><g><path fill="#fdcb58" d="M15.92 33.5c-1.7 1.54-3.94 2.5-6.42 2.5C4.25 36 0 31.75 0 26.5c0-2.48.96-4.73 2.5-6.42v-.02l8.6-8.6 13.24 13.62-8.42 8.4z"/></g></g></g></g></svg>