<svg xmlns="http://www.w3.org/2000/svg" viewBox="0 0 45 45" enable-background="new 0 0 45 45"><defs><clipPath id="a"><path d="M0 36h36V0H0v36z"/></clipPath></defs><g><g><g clip-path="url(#a)" transform="matrix(1.25 0 0 -1.25 0 45)"><g><path fill="#f3d2a2" d="M15 14V8c0-1.66 1.34-3 3-3s3 1.34 3 3v6h-6z"/></g><g><path fill="#4289c1" d="M27 9H9C6.8 9 5 7.2 5 5V0h26v5c0 2.2-1.8 4-4 4"/></g><path fill="#2a6797" d="M27 0h-1v4h1V0z"/><path fill="#2a6797" d="M10 0H9v4h1V0z"/><g><path fill="#f3d2a2" d="M15 14V8c0-1.66 1.34-3 3-3s3 1.34 3 3v6h-6z"/></g><g><path fill="#f3d2a2" d="M9 30.06V19c0-4.97 4.03-9 9-9s9 4.03 9 9v10.75l-18 .3z"/></g><g><path fill="#f3d2a2" d="M10.85 22.28c0-1.58-.8-2.86-1.8-2.86-.98 0-1.78 1.28-1.78 2.86 0 1.58.8 2.87 1.8 2.87.98 0 1.78-1.3 1.78-2.87"/></g><g><path fill="#f3d2a2" d="M28.73 22.28c0-1.58-.8-2.86-1.8-2.86-.98 0-1.78 1.28-1.78 2.86 0 1.58.8 2.87 1.8 2.87.98 0 1.78-1.3 1.78-2.87"/></g><g><path fill="#ffe51e" d="M18 35.18c-7.02 0-10.14-4.7-10.14-8.6 0-3.9 1.34-4.98 1.56-3.9.78 3.9 3.12 5.1 3.12 5.1 4.68-3.9 3.9-.77 3.9-.77 4.68-4.68 2.34 0 2.34 0 1.56-1.55 6.24-1.55 6.24-1.55s.78-1.2 1.56-2.76c.78-1.57 1.56 0 1.56 3.9s-3.9 8.58-10.14 8.58"/></g><g><path fill="#c1694f" d="M20 14c0-.55-.9-1-2-1s-2 .45-2 1 .9 1 2 1 2-.45 2-1"/></g><g><path fill="#c1694f" d="M19 16.5h-2c-.28 0-.5.22-.5.5s.22.5.5.5h2c.28 0 .5-.22.5-.5s-.22-.5-.5-.5"/></g><g><path fill="#662113" d="M15 19.02h-2c-.55 0-1 .44-1 1 0 .55.45 1 1 1h2c.55 0 1-.45 1-1 0-.56-.45-1-1-1"/></g><g><path fill="#662113" d="M23 19.02h-2c-.55 0-1 .44-1 1 0 .55.45 1 1 1h2c.55 0 1-.45 1-1 0-.56-.45-1-1-1"/></g><g><path fill="#e2c196" d="M28.6 31.6l-1.94 1.96-.52-.62-3.5 1.27v-1.57l-2.63-.6c-.6-.15-.97-.75-.84-1.35.14-.6.75-.98 1.35-.84l3.6.82 1.78-1.8c.3-.3.8-.57 1.33-.74l.7-5.6s0-.86.86-.86c.88 0 .88.87.88.87v7L28.6 31.6z"/></g><g><path fill="#f3d2a2" d="M28.96 31.95L27 33.9l-.52 2.1h-3.5v-3.03l-2.63-.6c-.6-.15-.98-.75-.84-1.35.15-.6.75-.98 1.35-.84l3.58.82 1.8-1.8c.3-.3.8-.57 1.32-.74l.68-5.6s0-.86.87-.86c.88 0 .88.87.88.87v7l-1.02 2.08z"/></g><g><path fill="#e2c196" d="M7.4 31.6l1.94 1.96.52-.62 3.5 1.4v-1.7L16 32c.6-.14.97-.74.84-1.34-.14-.6-.75-.98-1.35-.84l-3.6.82-1.78-1.8c-.3-.3-.8-.57-1.33-.74l-.7-5.6s0-.86-.86-.86c-.88 0-.88.87-.88.87v7L7.4 31.6z"/></g><g><path fill="#f3d2a2" d="M7.04 31.95L9 33.9l.52 2.1h3.5v-3.03l2.63-.6c.6-.15.98-.75.84-1.35-.15-.6-.75-.98-1.35-.84l-3.58.82-1.8-1.8c-.3-.3-.8-.57-1.32-.74l-.68-5.6s0-.86-.87-.86c-.88 0-.88.87-.88.87v7l1.02 2.08z"/></g></g></g></g></svg>