<svg xmlns="http://www.w3.org/2000/svg" viewBox="0 0 45 45" enable-background="new 0 0 45 45"><defs><clipPath id="a"><path d="M0 36h36V0H0v36z"/></clipPath></defs><g><g><g clip-path="url(#a)" transform="matrix(1.25 0 0 -1.25 0 45)"><g><path fill="#0b0200" d="M16 35c.2.38.54.98 1.8.6 1.92-.58.2-1.6.2-1.6s2-1 2-4-1-1.84-1-5c0-2-2 0-2 0l-3-3c-4-4-6 1-5 3s0 2 0 4 2 2 2 4 2 3 3 3 2-1 2-1"/></g><g><path fill="#7c533e" d="M12 31c0-1.66 1.18-3 2.63-3 1.44 0 2.62 1.34 2.62 3s-1.17 3-2.63 3C13.2 34 12 32.66 12 31"/></g><g><path fill="#0b0200" d="M14.5 35c-.93 0-1.73-.3-2.16-.76-1.1.2-.48-1.5-1.34-3.24-1-2 1-4 1-3s0 4 2 4h.5c1.38 0 2.5.67 2.5 1.5S15.88 35 14.5 35"/></g><g><path fill="#7c533e" d="M22.7 25.7c-.37.38-1.8 1.22-7.02 1.3l-.43 3.88c-.06.55-.56.94-1.1.88-.55-.06-.95-.55-.9-1.1l.42-3.66h-4.6l-5.9 1c-.55.08-1.07-.3-1.16-.83-.08-.55.3-1.07.84-1.16l6-1c.05 0 .1 0 .16 0h2.75c0-.26.1-.6.25-1 1-2.5 3-8 3-8 2.2 0 3 5.02 3 7.5 0 .6-.05 1.06-.15 1.4 1.2-.08 2.03-.22 2.57-.34L18.2 21.6c-.33-.44-.24-1.07.2-1.4.18-.13.4-.2.6-.2.3 0 .6.14.8.4l3 4c.3.4.26.96-.1 1.3"/></g><g><path fill="#7c533e" d="M16 3c-.5 0-.92.36-1 .86l-1 7c-.07.55.3 1.05.86 1.13.55.06 1.05-.3 1.13-.86l1-7c.07-.54-.3-1.05-.86-1.13-.05 0-.1 0-.14 0"/></g><g><path fill="#7c533e" d="M16 15c-.47 0-.9.34-.98.8-.1.56.25 1.08.8 1.18l16 3c.55.1 1.06-.25 1.16-.8.1-.54-.25-1.06-.8-1.16l-16-3c-.06 0-.12-.02-.18-.02"/></g><g><path fill="#dd2e44" d="M12 23s1-1 1-3 0-3-2-6-4-3-5-5 0-2 2-1 1-4 4-4 2 3 4 3 3-3 5-3 2.58 2.42 1 4c-1 1 2 3 3 2 1.58-1.58 3.24.76 1 3-1 1-1.8 2.1 0 3 2 1 2.5 5 0 4-3.34-1.34-8-3.16-8 0v4s-2 0-2 3c0 0-1.25-4-3.25 0 0 0 1.25-3-.75-4"/></g><g><path fill="#dd2e44" d="M16 0c-.55 0-1 .45-1 1v3c0 .55.45 1 1 1s1-.45 1-1V1c0-.55-.45-1-1-1"/></g><g><path fill="#dd2e44" d="M32.43 17.37c-.22 0-.44.07-.63.22-.43.34-.5.97-.15 1.4l1.78 2.2c.35.44.98.5 1.4.16.44-.35.5-.98.16-1.4l-1.8-2.22c-.2-.24-.48-.37-.77-.37"/></g></g></g></g></svg>