<svg xmlns="http://www.w3.org/2000/svg" viewBox="0 0 45 45" enable-background="new 0 0 45 45"><defs><clipPath id="a"><path d="M0 0h36v36H0V0z"/></clipPath><clipPath id="b"><path d="M0 36h36V0H0v36z"/></clipPath></defs><g><g><g clip-path="url(#a)" transform="matrix(1.25 0 0 -1.25 0 45)"><g><path fill="#9aaab4" d="M28.03 17.1L13.18 31.95s-.7-2.12.7-3.53C15.3 27 26.6 15.7 26.6 15.7l1.43 1.4z"/></g><g><path fill="#67757f" d="M26.6 19.93c.4.4 1.67-.24 2.84-1.4 1.17-1.2 1.8-2.45 1.4-2.84-.38-.4-1.64.23-2.8 1.4-1.2 1.17-1.82 2.44-1.43 2.83m5.67-5.66c1.17 1.17.54 3.7-1.42 5.66-1.95 1.95-4.48 2.6-5.65 1.4-1.17-1.16-.54-3.7 1.4-5.64 1.96-1.97 4.5-2.6 5.67-1.43"/></g><g><path fill="#0b0200" d="M8.86 35.66c-1.53 0-2.97-.35-4.27-.95-.23.03.9.04.68.04-4.5 0-8.15-3.65-8.15-8.15 0-3.57 2.3-6.6 5.48-7.7 1.87-2.12 3.22-3.46 6.26-3.46 5.58 0 10.1 4.52 10.1 10.1 0 5.6-4.52 10.12-10.1 10.12"/></g><g><path fill="#7c533e" d="M-1 31V19c0-4.97 4.03-9 9-9s9 4.03 9 9v12H-1z"/></g><g><path fill="#3d2e24" d="M4 14h8s-1-2-4-2-4 2-4 2"/></g><g><path fill="#0b0200" d="M4 20c-.55 0-1 .45-1 1v1c0 .55.45 1 1 1s1-.45 1-1v-1c0-.55-.45-1-1-1"/></g><g><path fill="#0b0200" d="M12 20c-.55 0-1 .45-1 1v1c0 .55.45 1 1 1s1-.45 1-1v-1c0-.55-.45-1-1-1"/></g><g><path fill="#3d2e24" d="M9 16.5H7c-.28 0-.5.22-.5.5s.22.5.5.5h2c.28 0 .5-.22.5-.5s-.22-.5-.5-.5"/></g><g><path fill="#7c533e" d="M.85 22.28c0-1.58-.8-2.86-1.8-2.86-.98 0-1.78 1.28-1.78 2.86 0 1.58.8 2.87 1.8 2.87.98 0 1.78-1.3 1.78-2.87"/></g><g><path fill="#7c533e" d="M18.73 22.28c0-1.58-.8-2.86-1.8-2.86-.98 0-1.78 1.28-1.78 2.86 0 1.58.8 2.87 1.8 2.87.98 0 1.78-1.3 1.78-2.87"/></g><g><path fill="#4289c1" d="M17 9H-1c-2.2 0-4-1.8-4-4V0h26v5c0 2.2-1.8 4-4 4"/></g><path fill="#2a6797" d="M17 0h-1v4h1V0z"/><path fill="#2a6797" d="M0 0h-1v4h1V0z"/><g><path fill="#7c533e" d="M5 12V8c0-1.66 1.34-3 3-3s3 1.34 3 3v4H5z"/></g><g><path fill="#0b0200" d="M-1.25 25.22l.23 5.84 3.2 2.15 14.82-2 .06-6.05c-6.92 0-10.95 3-13 5.32-.65-2.02-2.17-5.25-5.3-5.25"/></g></g></g><g><g clip-path="url(#b)" transform="matrix(1.25 0 0 -1.25 0 45)"><g><path fill="#0b0200" d="M16.6 25.2s5.84-.54 9.9 2.52c0 0-6.44.7-12.03 5.28-3.45 2.83 2.12-7.8 2.12-7.8"/></g><g><path fill="#9aaab4" d="M22.14 14.26v21s2-1 2-3 0-18 0-18h-2z"/></g><g><path fill="#67757f" d="M22.14 14.26c0-1.66-.44-3-1-3-.55 0-1 1.34-1 3s.45 3 1 3c.56 0 1-1.34 1-3m2 0c0 2.76-1.34 5-3 5-1.65 0-3-2.24-3-5s1.35-5 3-5c1.66 0 3 2.24 3 5"/></g><g><path fill="#67757f" d="M22.37 19.93c-.4.4-.4 1.02 0 1.4.4.4 1.02.4 1.4 0 .4-.38.4-1 0-1.4-.38-.4-1-.4-1.4 0"/></g></g></g></g></svg>