<svg xmlns="http://www.w3.org/2000/svg" viewBox="0 0 45 45" enable-background="new 0 0 45 45"><defs><clipPath id="a"><path d="M0 36h36V0H0v36z"/></clipPath></defs><g><g><g clip-path="url(#a)" transform="matrix(1.25 0 0 -1.25 0 45)"><g><path fill="#60352a" d="M14 36c-1.72 0-3.34-.4-4.8-1.1-.4.06-.8.1-1.2.1-3.87 0-7-3.13-7-7V16h.02C1.2 9.53 6.5 4.34 13 4.34c6.5 0 11.8 5.2 11.98 11.66H25v9c0 6.08-4.92 11-11 11"/></g><g><path fill="#9268ca" d="M22 9H4C1.8 9 0 7.2 0 5V0h26v5c0 2.2-1.8 4-4 4"/></g><path fill="#7450a8" d="M22 0h-1v4h1V0z"/><path fill="#7450a8" d="M5 0H4v4h1V0z"/><g><path fill="#af7e57" d="M10 14V8c0-1.66 1.34-3 3-3s3 1.34 3 3v6h-6z"/></g><g><path fill="#af7e57" d="M9 31s0-5.3-5-5.94V19c0-4.97 4.03-9 9-9s9 4.03 9 9v5.02C10.9 24.4 9 31 9 31"/></g><g><path fill="#df1f32" d="M17 14H9s1-2 4-2 4 2 4 2"/></g><g><path fill="#9268ca" d="M29 0h-7l1 17h6V0z"/></g><g><path fill="#9b6a49" d="M31.54 20.56c-.14.7-.82 1.14-1.52 1L27.35 21H25c-1.1 0-2-.9-2-2v-2h5c1.08 0 1.95.86 2 1.93l.35.07H31c0 .07-.03.14-.04.22.44.27.7.8.58 1.34"/></g><g><path fill="#af7e57" d="M36 20c0 .55-.45 1-1 1l-6-1h-5c-.55 0-1-.45-1-1v-2h6l6 2s1 .45 1 1"/></g><g><path fill="#915a34" d="M14 16.5h-2c-.28 0-.5.22-.5.5s.22.5.5.5h2c.28 0 .5-.22.5-.5s-.22-.5-.5-.5"/></g><g><path fill="#662113" d="M9 20c-.55 0-1 .45-1 1v1c0 .55.45 1 1 1s1-.45 1-1v-1c0-.55-.45-1-1-1"/></g><g><path fill="#662113" d="M17 20c-.55 0-1 .45-1 1v1c0 .55.45 1 1 1s1-.45 1-1v-1c0-.55-.45-1-1-1"/></g></g></g></g></svg>