<svg xmlns="http://www.w3.org/2000/svg" viewBox="0 0 45 45" enable-background="new 0 0 45 45"><defs><clipPath id="a"><path d="M0 36h36V0H0v36z"/></clipPath></defs><g><g><g clip-path="url(#a)" transform="matrix(1.25 0 0 -1.25 0 45)"><g><path fill="#9aaab4" d="M18 4c-4.42 0-8 3.58-8 8s3.58 8 8 8 8-3.58 8-8-3.58-8-8-8m0 20c-6.63 0-12-5.37-12-12S11.37 0 18 0s12 5.37 12 12-5.37 12-12 12"/></g><g><path fill="#5dadec" d="M29 31l-4 5H11l-4-5 11-9 11 9z"/></g><g><path fill="#8ccaf7" d="M29 31l-4 5H11l-4-5h22z"/></g><g><path fill="#5dadec" d="M29 31l-4 5h-7v-5h11z"/></g><g><path fill="#8ccaf7" d="M18 31h11l-11-9v9z"/></g><g><path fill="#9aaab4" d="M25 23c0-1.66-1.34-3-3-3h-8c-1.66 0-3 1.34-3 3s1.34 3 3 3h8c1.66 0 3-1.34 3-3"/></g></g></g></g></svg>