<?xml version="1.0" encoding="UTF-8" standalone="no"?><svg xmlns:dc="http://purl.org/dc/elements/1.1/" xmlns:cc="http://creativecommons.org/ns#" xmlns:rdf="http://www.w3.org/1999/02/22-rdf-syntax-ns#" xmlns:svg="http://www.w3.org/2000/svg" xmlns="http://www.w3.org/2000/svg" viewBox="0 0 45 45" style="enable-background:new 0 0 45 45;" xml:space="preserve" version="1.1" id="svg2"><metadata id="metadata8"><rdf:RDF><cc:Work rdf:about=""><dc:format>image/svg+xml</dc:format><dc:type rdf:resource="http://purl.org/dc/dcmitype/StillImage"/></cc:Work></rdf:RDF></metadata><defs id="defs6"><clipPath id="clipPath16" clipPathUnits="userSpaceOnUse"><path id="path18" d="M 0,36 36,36 36,0 0,0 0,36 Z"/></clipPath></defs><g transform="matrix(1.25,0,0,-1.25,0,45)" id="g10"><g id="g12"><g clip-path="url(#clipPath16)" id="g14"><g transform="translate(30,15)" id="g20"><path id="path22" style="fill:#66757f;fill-opacity:1;fill-rule:nonzero;stroke:none" d="m 0,0 c 0,8.284 -5.373,15 -12,15 -6.627,0 -12,-6.716 -12,-15 0,-8.284 5.373,-15 12,-15 6.627,0 12,6.716 12,15"/></g><g transform="translate(28,15)" id="g24"><path id="path26" style="fill:#f7dece;fill-opacity:1;fill-rule:nonzero;stroke:none" d="m 0,0 c 0,7.029 -4.477,12.727 -10,12.727 -5.523,0 -10,-5.698 -10,-12.727 0,-7.029 4.477,-12.727 10,-12.727 5.523,0 10,5.698 10,12.727"/></g><g transform="translate(14,9)" id="g28"><path id="path30" style="fill:#662113;fill-opacity:1;fill-rule:nonzero;stroke:none" d="m 0,0 c -0.552,0 -1,0.447 -1,1 l 0,2 C -1,3.553 -0.552,4 0,4 0.552,4 1,3.553 1,3 L 1,1 C 1,0.447 0.552,0 0,0"/></g><g transform="translate(22,9)" id="g32"><path id="path34" style="fill:#662113;fill-opacity:1;fill-rule:nonzero;stroke:none" d="m 0,0 c -0.553,0 -1,0.447 -1,1 l 0,2 C -1,3.553 -0.553,4 0,4 0.553,4 1,3.553 1,3 L 1,1 C 1,0.447 0.553,0 0,0"/></g><g transform="translate(20,4)" id="g36"><path id="path38" style="fill:#c1694f;fill-opacity:1;fill-rule:nonzero;stroke:none" d="m 0,0 -4,0 c -0.552,0 -1,0.447 -1,1 0,0.553 0.448,1 1,1 L 0,2 C 0.553,2 1,1.553 1,1 1,0.447 0.553,0 0,0"/></g><g transform="translate(30,31)" id="g40"><path id="path42" style="fill:#292f33;fill-opacity:1;fill-rule:nonzero;stroke:none" d="m 0,0 c 0,3 -2.134,5 -5,5 l -14,0 c -3,0 -5,-2 -5,-5 l 0,-15 c 0,-2.209 1.791,-4 4,-4 l 16,0 c 2.209,0 4,1.791 4,4 L 0,0 Z"/></g><g transform="translate(19,9)" id="g44"><path id="path46" style="fill:#c1694f;fill-opacity:1;fill-rule:nonzero;stroke:none" d="m 0,0 c 0,-0.553 -0.448,-1 -1,-1 -0.552,0 -1,0.447 -1,1 0,0.553 0.448,1 1,1 0.552,0 1,-0.447 1,-1"/></g></g></g></g></svg>
