<svg xmlns="http://www.w3.org/2000/svg" viewBox="0 0 45 45" enable-background="new 0 0 45 45"><defs><clipPath id="a"><path d="M0 0h36v36H0V0z"/></clipPath></defs><g><g><g clip-path="url(#a)" transform="matrix(1.25 0 0 -1.25 0 45)"><g><path fill="#292f33" d="M27 18c0-4.97-4.03-5-9-5s-9 .03-9 5c0 8.94 4.03 9 9 9s9-.1 9-9"/></g><g><path fill="#dd2e44" d="M30 0v1c0 3.3-1.7 6-5 6H11C7.7 7 6 4.3 6 1V0h24z"/></g><g><path fill="#7c533e" d="M14.63 6.54c1.34-.97 2.2-1.2 3.36-1.2 1.15 0 2 .23 3.35 1.2v2.94h-6.72V6.54z"/></g><g><path fill="#664131" d="M14.62 8.18c.94-1.06 2.1-1.34 3.36-1.34 1.27 0 2.43.3 3.37 1.34v2.7h-6.73v-2.7z"/></g><g><path fill="#7c533e" d="M12.93 15.92c0-1.12-.56-2.02-1.26-2.02s-1.26.9-1.26 2.02.57 2.02 1.27 2.02c.7 0 1.26-.9 1.26-2.02"/></g><g><path fill="#7c533e" d="M25.57 15.92c0-1.12-.57-2.02-1.27-2.02-.7 0-1.26.9-1.26 2.02s.56 2.02 1.26 2.02 1.27-.9 1.27-2.02"/></g><g><path fill="#7c533e" d="M11.42 15.13c0 4.3 2.94 7.8 6.57 7.8 3.6 0 6.55-3.5 6.55-7.8S21.6 7.33 18 7.33c-3.64 0-6.58 3.5-6.58 7.8"/></g><g><path fill="#3d2e24" d="M18 9.86c-2.14 0-2.8.54-2.9.65-.2.2-.2.53 0 .73.2.2.5.2.7 0 .04-.02.55-.36 2.2-.36 1.68 0 2.17.37 2.18.38.2.2.5.18.7 0 .2-.2.2-.54 0-.74-.12-.1-.77-.64-2.9-.64"/></g><g><path d="M14.9 15.1c-.42 0-.77.35-.77.77v.77c0 .42.35.77.77.77.43 0 .77-.34.77-.76v-.77c0-.42-.34-.77-.77-.77"/></g><g><path d="M21.07 15.1c-.42 0-.77.35-.77.77v.77c0 .42.35.77.77.77.42 0 .77-.34.77-.76v-.77c0-.42-.35-.77-.77-.77"/></g><g><path fill="#3d2e24" d="M18.56 12.98H17.4c-.3 0-.57.26-.57.58 0 .32.26.58.58.58h1.16c.32 0 .58-.26.58-.58 0-.32-.26-.58-.58-.58"/></g><g><path fill="#292f33" d="M12.58 5.54L7.93 4.8c-.28-.04-.53.15-.58.42l-.15 1c-.05.26.14.5.4.56l4.67.74c.27.04.52-.15.57-.42l.15-1c.04-.26-.15-.52-.42-.56"/></g><g><path fill="#292f33" d="M23.45 5.54l4.65-.74c.27-.04.53.15.57.42l.16 1c.04.26-.14.5-.42.56l-4.64.74c-.27.04-.53-.15-.57-.42l-.17-1c-.04-.26.15-.52.42-.56"/></g><g><path fill="#99aab5" d="M11.88 18s-.18-9 6.1-9c6.3 0 6.14 9 6.14 9H25s-.3-10-7-10-7 10-7 10h.88z"/></g><g><path fill="#292f33" d="M26 18H10c-.55 0-1 .45-1 1v11c0 3.3 2.7 6 6 6h6c3.3 0 6-2.7 6-6V19c0-.55-.45-1-1-1"/></g><path fill="#f5f8fa" d="M18.5 0h-1v5h1V0z"/><g><path fill="#292f33" d="M14.62 8.18S14 8.3 14 7c0-1.3 1.9-3 4-3v2c-1.14 0-3.38.6-3.38 2.18"/></g><g><path fill="#292f33" d="M21.38 8.18S22 8.3 22 7c0-1.3-1.9-3-4-3v2c1.14 0 3.38.6 3.38 2.18"/></g></g></g></g></svg>