<svg xmlns="http://www.w3.org/2000/svg" viewBox="0 0 45 45" enable-background="new 0 0 45 45"><defs><clipPath id="a"><path d="M0 36h36V0H0v36z"/></clipPath></defs><g><g><g clip-path="url(#a)" transform="matrix(1.25 0 0 -1.25 0 45)"><g><path fill="#963b22" d="M30 16.34c0-6.62-5.37-12-12-12s-12 5.38-12 12c0 6.63 5.37 12 12 12s12-5.37 12-12"/></g><g><path fill="#963b22" d="M20 28c0-3.87-3.13-7-7-7s-7 3.13-7 7 3.13 7 7 7 7-3.13 7-7"/></g><g><path fill="#963b22" d="M8 25c0-6.08 4.93-11 11-11 6.08 0 11 4.92 11 11s-4.92 11-11 11c-6.07 0-11-4.92-11-11"/></g><g><path fill="#963b22" d="M30 16H6v12l24-3v-9z"/></g><g><path fill="#9268ca" d="M27 9H9C6.8 9 5 7.2 5 5V0h26v5c0 2.2-1.8 4-4 4"/></g><path fill="#7450a8" d="M27 0h-1v4h1V0z"/><path fill="#7450a8" d="M10 0H9v4h1V0z"/><g><path fill="#d5ab88" d="M15 14V8c0-1.66 1.34-3 3-3s3 1.34 3 3v6h-6z"/></g><g><path fill="#d5ab88" d="M14 31s0-5.3-5-5.94V19c0-4.97 4.03-9 9-9s9 4.03 9 9v5.02C15.9 24.4 14 31 14 31"/></g><g><path fill="#df1f32" d="M20 14c0-.55-.9-1-2-1s-2 .45-2 1 .9 1 2 1 2-.45 2-1"/></g><g><path fill="#c1694f" d="M19 16.5h-2c-.28 0-.5.22-.5.5s.22.5.5.5h2c.28 0 .5-.22.5-.5s-.22-.5-.5-.5"/></g><g><path fill="#662113" d="M15 19.02h-2c-.55 0-1 .44-1 1 0 .55.45 1 1 1h2c.55 0 1-.45 1-1 0-.56-.45-1-1-1"/></g><g><path fill="#662113" d="M23 19.02h-2c-.55 0-1 .44-1 1 0 .55.45 1 1 1h2c.55 0 1-.45 1-1 0-.56-.45-1-1-1"/></g><g><path fill="#b78b60" d="M5.56 30.97l5.2 3.82 1.63.18v-2.84l3-.7c.68-.15 1.1-.84.95-1.53-.15-.68-.84-1.1-1.53-.95l-4.1.94-2.04-2.05c-.34-.35-.9-.67-1.5-.86l-.8-6.4s0-1-1-1-1 1-1 1v8l1.18 2.37z"/></g><g><path fill="#d5ab88" d="M5.17 31.36L7.4 33.6 8 36h4v-3.47l3-.7c.7-.15 1.12-.84.96-1.53-.16-.7-.85-1.12-1.54-.96l-4.08.94-2.05-2.04c-.35-.35-.92-.67-1.53-.86L6 21s0-1-1-1-1 1-1 1v8l1.17 2.36z"/></g><g><path fill="#b78b60" d="M30.44 30.97l-5.85 3.6-1 .4v-2.83l-3-.7c-.68-.15-1.1-.84-.95-1.53.16-.68.85-1.1 1.53-.95l4.1.94 2.04-2.05c.34-.35.9-.67 1.52-.86l.77-6.4s0-1 1-1 1 1 1 1v8l-1.16 2.37z"/></g><g><path fill="#d5ab88" d="M30.83 31.36L28.6 33.6 28 36h-4v-3.47l-3-.7c-.7-.15-1.12-.84-.96-1.53.16-.7.85-1.12 1.54-.96l4.08.94 2.05-2.04c.35-.35.93-.67 1.53-.86L30 21s0-1 1-1 1 1 1 1v8l-1.17 2.36z"/></g></g></g></g></svg>