<svg xmlns="http://www.w3.org/2000/svg" viewBox="0 0 45 45" enable-background="new 0 0 45 45"><defs><clipPath id="a"><path d="M0 36h36V0H0v36z"/></clipPath></defs><g><g><g clip-path="url(#a)" transform="matrix(1.25 0 0 -1.25 0 45)"><g><path fill="#4289c1" d="M22 9H4C1.8 9 0 7.2 0 5V0h26v5c0 2.2-1.8 4-4 4"/></g><path fill="#2a6797" d="M22 0h-1v4h1V0z"/><path fill="#2a6797" d="M5 0H4v4h1V0z"/><g><path fill="#af7e57" d="M10 14V8c0-1.66 1.34-3 3-3s3 1.34 3 3v6h-6z"/></g><g><path fill="#4289c1" d="M29 0h-7l1 17h6V0z"/></g><g><path fill="#9b6a49" d="M31.54 20.56c-.14.7-.82 1.14-1.52 1L27.35 21H25c-1.1 0-2-.9-2-2v-2h5c1.08 0 1.95.86 2 1.93l.35.07H31c0 .07-.03.14-.04.22.44.27.7.8.58 1.34"/></g><g><path fill="#af7e57" d="M36 20c0 .55-.45 1-1 1l-6-1h-5c-.55 0-1-.45-1-1v-2h6l6 2s1 .45 1 1"/></g><g><path fill="#af7e57" d="M4 30.06V19c0-4.97 4.03-9 9-9s9 4.03 9 9v10.75l-18 .3z"/></g><g><path fill="#915a34" d="M9 14h8s-1-2-4-2-4 2-4 2"/></g><g><path fill="#60352a" d="M9 20c-.55 0-1 .45-1 1v1c0 .55.45 1 1 1s1-.45 1-1v-1c0-.55-.45-1-1-1"/></g><g><path fill="#60352a" d="M17 20c-.55 0-1 .45-1 1v1c0 .55.45 1 1 1s1-.45 1-1v-1c0-.55-.45-1-1-1"/></g><g><path fill="#915a34" d="M14 16.5h-2c-.28 0-.5.22-.5.5s.22.5.5.5h2c.28 0 .5-.22.5-.5s-.22-.5-.5-.5"/></g><g><path fill="#af7e57" d="M5.85 22.28c0-1.58-.8-2.86-1.8-2.86-.98 0-1.78 1.28-1.78 2.86 0 1.58.8 2.87 1.8 2.87.98 0 1.78-1.3 1.78-2.87"/></g><g><path fill="#af7e57" d="M23.73 22.28c0-1.58-.8-2.86-1.8-2.86-.98 0-1.78 1.28-1.78 2.86 0 1.58.8 2.87 1.8 2.87.98 0 1.78-1.3 1.78-2.87"/></g><g><path fill="#60352a" d="M13 35.18c-7.02 0-10.14-4.7-10.14-8.6 0-3.9 1.34-4.98 1.56-3.9.78 3.9 3.12 5.1 3.12 5.1 4.68-3.9 3.9-.77 3.9-.77 4.68-4.68 2.34 0 2.34 0 1.56-1.55 6.24-1.55 6.24-1.55s.78-1.2 1.56-2.76c.78-1.57 1.56 0 1.56 3.9s-3.9 8.58-10.14 8.58"/></g></g></g></g></svg>