<svg xmlns="http://www.w3.org/2000/svg" viewBox="0 0 45 45" enable-background="new 0 0 45 45"><defs><clipPath id="a"><path d="M0 36h36V0H0v36z"/></clipPath></defs><g><g><g clip-path="url(#a)" transform="matrix(1.25 0 0 -1.25 0 45)"><g><path fill="#e75a70" d="M35.88 24.17c0 5.45-4.4 9.86-9.86 9.86-3.3 0-6.23-1.63-8.02-4.12-1.8 2.5-4.7 4.13-8.02 4.13-5.45 0-9.87-4.4-9.87-9.86 0-.78.1-1.52.28-2.24C1.75 13.4 11.22 4.43 18 1.97c6.78 2.46 16.25 11.44 17.62 19.96.17.72.26 1.46.26 2.24"/></g><g><path fill="#fdcb58" d="M34.35 12.1l-3.83 1.42-1.4 3.83c-.16.4-.53.65-.95.65-.42 0-.8-.26-.94-.65l-1.4-3.83-3.84-1.4c-.4-.16-.66-.53-.66-.95 0-.42.26-.8.65-.94l3.82-1.4 1.4-3.84c.16-.4.53-.66.95-.66.42 0 .8.26.94.65l1.42 3.82 3.83 1.4c.4.16.65.53.65.95 0 .42-.26.8-.65.94"/></g><g><path fill="#fdcb58" d="M11.35 28.1L8.98 29l-.87 2.37c-.14.4-.5.65-.93.65-.42 0-.8-.26-.94-.65l-.87-2.37L3 28.1c-.4-.14-.66-.5-.66-.93 0-.42.26-.8.65-.94l2.36-.87.87-2.37c.15-.4.52-.66.94-.66.42 0 .8.26.94.65L9 25.35l2.37.87c.4.15.65.52.65.94 0 .42-.26.8-.65.94"/></g></g></g></g></svg>