<svg xmlns="http://www.w3.org/2000/svg" viewBox="0 0 45 45" enable-background="new 0 0 45 45"><defs><clipPath id="a"><path d="M0 36h36V0H0v36z"/></clipPath></defs><g><g><g clip-path="url(#a)" transform="matrix(1.25 0 0 -1.25 0 45)"><g><path fill="#3e721d" d="M35 5.03c-1.38 2.23-3.33 5-5.26 7.9-5.14 8.76-1.5 18.4-2.9 21.5-.55 1.26-3.87-.96-5.54-4.56-.36.1-.75.16-1.17.15.15 2.4.3 4.3-.2 5.4-.7 1.6-5.86-2.42-6.46-7.73-1.85-1.02-3.22-1.97-3.22-1.97S9.3 24.36 8.3 22.5c-5.32-.58-9.34-5.74-7.74-6.45 1.1-.5 3.02-.35 5.42-.2 0-.42.05-.8.16-1.15-3.6-1.68-5.85-5-4.6-5.57 3.3-1.46 13.9 2.7 23.06-3.9.3-.2.48-.32.6-.37 2.12-1.43 4.12-2.8 5.8-3.84 2.87-1.8 3.96 0 3.96 0s1.84 1.14.05 4"/></g><g><path fill="#77b255" d="M35.03 1.17c.37.55.34 1.28-.14 1.76 0 0-11.87 15.8-13.85 23.72-1.98 7.9-4.4 5.74-3.7-.47.34-2.85 1.83-6.14 3.82-9.4l-8.94 8.95c-.55.55-1.44.55-1.98 0-.55-.54-.55-1.43 0-1.97l8.94-8.94c-3.26 1.98-6.55 3.48-9.4 3.8-6.2.7-8.38-1.7-.47-3.7C17.23 12.97 33.05 1.1 33.05 1.1c.48-.5 1.2-.52 1.76-.15.04 0 .07 0 .1 0 0 .03.02.06.04.1.03 0 .06.02.1.05 0 0 0 .04 0 .07"/></g><g><path fill="#dd2e44" d="M13.77 29.13c1.8-1.8 1.72-4.82-.2-6.73-1.9-1.9-3.76-.84-5.56.96-1.8 1.8-2.87 3.67-.96 5.58 1.9 1.9 4.93 2 6.73.2"/></g><g><path fill="#ea596e" d="M12.62 27.98c1.8-1.8 2.87-3.67.96-5.58-1.9-1.9-4.92-2-6.73-.2-1.8 1.82-.96 5.6-.9 7.83.08 2.63 4.5.13 6.67-2.05"/></g><g><path fill="#dd2e44" d="M22.66 20.23c1.8-1.8 1.73-4.8-.18-6.73-1.9-1.9-3.77-.84-5.58.97-1.8 1.8-2.87 3.67-.96 5.58 1.9 1.9 4.92 2 6.72.18"/></g><g><path fill="#ea596e" d="M21.5 19.08c1.82-1.8 2.9-3.66.98-5.57-1.9-1.9-4.93-2-6.73-.18-1.8 1.8-.97 5.57-.9 7.82.07 2.62 4.48.12 6.66-2.06"/></g><g><path fill="#f4900c" d="M11.2 19.9c2.37-1.06 3.33-3.9 2.14-6.32-1.2-2.43-3.35-2.08-5.72-1.03-2.37 1.05-4.05 2.4-2.86 4.84 1.2 2.42 4.07 3.54 6.44 2.5"/></g><g><path fill="#ffcc4d" d="M10.5 18.42c2.35-1.05 4.03-2.4 2.84-4.84-1.18-2.43-4.07-3.55-6.44-2.5-2.37 1.05-2.85 4.84-3.57 6.94-.83 2.47 4.3 1.67 7.16.4"/></g><g><path fill="#f4900c" d="M24.93 29c1.14-2.46.08-5.37-2.37-6.5-2.44-1.15-3.88.6-5.02 3.04-1.14 2.45-1.56 4.68.9 5.82 2.44 1.14 5.35.08 6.5-2.37"/></g><g><path fill="#ffcc4d" d="M23.45 28.3c1.14-2.45 1.56-4.67-.9-5.8-2.43-1.15-5.34-.1-6.5 2.36-1.13 2.44.9 5.8 1.7 7.97.9 2.54 4.32-1.57 5.7-4.53"/></g></g></g></g></svg>