<svg xmlns="http://www.w3.org/2000/svg" viewBox="0 0 45 45" enable-background="new 0 0 45 45"><defs><clipPath id="a"><path d="M0 36h36V0H0v36z"/></clipPath></defs><g><g><g clip-path="url(#a)" transform="matrix(1.25 0 0 -1.25 0 45)"><g><path fill="#e75a70" d="M24.77 16.3c0 3.74-3.05 6.8-6.8 6.8-2.28 0-4.3-1.14-5.53-2.86-1.23 1.72-3.24 2.85-5.52 2.85-3.76 0-6.8-3.06-6.8-6.8 0-.55.06-1.06.18-1.56C1.24 8.87 7.77 2.68 12.44.98c4.68 1.7 11.2 7.9 12.14 13.76.12.5.2 1 .2 1.55"/></g><g><path fill="#e75a70" d="M35.88 30.3c0 2.6-2.1 4.72-4.7 4.72-1.6 0-2.98-.78-3.83-1.97-.86 1.2-2.25 1.97-3.83 1.97-2.6 0-4.7-2.1-4.7-4.7 0-.38.03-.74.1-1.08.67-4.07 5.2-8.36 8.43-9.53 3.23 1.18 7.75 5.47 8.4 9.54.1.34.13.7.13 1.07"/></g></g></g></g></svg>