<svg xmlns="http://www.w3.org/2000/svg" viewBox="0 0 45 45" enable-background="new 0 0 45 45"><defs><clipPath id="a"><path d="M0 36h36V0H0v36z"/></clipPath></defs><g><g><g clip-path="url(#a)" transform="matrix(1.25 0 0 -1.25 0 45)"><g><path fill="#f2abba" d="M35.88 24.17c0 5.45-4.4 9.86-9.86 9.86-3.3 0-6.23-1.63-8.02-4.12-1.8 2.5-4.7 4.13-8.02 4.13-5.45 0-9.87-4.4-9.87-9.86 0-.78.1-1.52.28-2.24C1.75 13.4 11.22 4.43 18 1.97c6.78 2.46 16.25 11.44 17.62 19.96.17.72.26 1.46.26 2.24"/></g><g><path fill="#e75a70" d="M31.42 22.63c0 4.1-3.3 7.4-7.4 7.4-2.5 0-4.68-1.22-6.02-3.1-1.34 1.88-3.54 3.1-6.02 3.1-4.1 0-7.4-3.3-7.4-7.4 0-.58.07-1.14.2-1.68C5.8 14.55 12.9 7.82 18 5.97c5.1 1.85 12.2 8.6 13.22 14.98.13.54.2 1.1.2 1.68"/></g><g><path fill="#bb1a34" d="M27.2 21.17c0 2.8-2.28 5.07-5.08 5.07-1.7 0-3.2-.84-4.12-2.12-.92 1.28-2.42 2.12-4.12 2.12-2.8 0-5.07-2.27-5.07-5.07 0-.4.06-.78.14-1.15.7-4.38 5.57-9 9.06-10.26 3.5 1.27 8.35 5.88 9.05 10.26.1.37.14.75.14 1.15"/></g></g></g></g></svg>