<svg xmlns="http://www.w3.org/2000/svg" viewBox="0 0 45 45" enable-background="new 0 0 45 45"><defs><clipPath id="a"><path d="M0 36h36V0H0v36z"/></clipPath></defs><g><g><g clip-path="url(#a)" transform="matrix(1.25 0 0 -1.25 0 45)"><g><path fill="#bcbec0" d="M20 34h-1v1c0 .55-.45 1-1 1s-1-.45-1-1v-1h-1c-.55 0-1-.45-1-1s.45-1 1-1h1v-6c0-.55.45-1 1-1s1 .45 1 1v6h1c.55 0 1 .45 1 1s-.45 1-1 1"/></g><g><path fill="#f4abba" d="M18 27l-5.14-4H13v-9h10v9h.14L18 27z"/></g><g><path fill="#662113" d="M20 21c0 1.1-.9 2-2 2s-2-.9-2-2v-7h4v7z"/></g><g><path fill="#f4abba" d="M18 18L4 10V1c0-.55.45-1 1-1h26c.55 0 1 .45 1 1v9l-14 8z"/></g><g><path fill="#dd2e44" d="M32 9c-.17 0-.34.04-.5.13L18 16.85 4.5 9.13c-.48-.28-1.1-.1-1.37.37-.27.48-.1 1.1.37 1.37l14 8c.3.17.7.17 1 0l14-8c.48-.28.64-.9.37-1.37-.2-.32-.52-.5-.87-.5"/></g><g><path fill="#dd2e44" d="M23 22c-.22 0-.44.07-.63.22L18 25.72l-4.38-3.5c-.43-.34-1.06-.28-1.4.16-.35.43-.28 1.06.15 1.4l5 4c.37.3.9.3 1.25 0l5-4c.44-.34.5-.97.16-1.4-.2-.25-.5-.38-.78-.38"/></g><g><path fill="#662113" d="M13 5c0 1.1-.9 2-2 2s-2-.9-2-2V0h4v5z"/></g><g><path fill="#662113" d="M20 7c0 1.1-.9 2-2 2s-2-.9-2-2V0h4v7z"/></g><g><path fill="#662113" d="M27 5c0 1.1-.9 2-2 2s-2-.9-2-2V0h4v5z"/></g><g><path fill="#ea596e" d="M1 30c0 2.76 3.96 4 5 0 1.12 4 5 2.76 5 0 0-3-5-6-5-6s-5 3-5 6"/></g><g><path fill="#ea596e" d="M25 30c0 2.76 3.96 4 5 0 1.12 4 5 2.76 5 0 0-3-5-6-5-6s-5 3-5 6"/></g></g></g></g></svg>