<svg xmlns="http://www.w3.org/2000/svg" viewBox="0 0 45 45" enable-background="new 0 0 45 45"><defs><clipPath id="a"><path d="M0 36h36V0H0v36z"/></clipPath></defs><g><g><g clip-path="url(#a)" transform="matrix(1.25 0 0 -1.25 0 45)"><g><path fill="#e75a70" d="M35.88 24.17c0 5.45-4.4 9.86-9.86 9.86-3.3 0-6.23-1.63-8.02-4.12-1.8 2.5-4.7 4.13-8.02 4.13-5.45 0-9.87-4.4-9.87-9.86 0-.78.1-1.52.28-2.24C1.75 13.4 11.22 4.43 18 1.97c6.78 2.46 16.25 11.44 17.62 19.96.17.72.26 1.46.26 2.24"/></g><g><path fill="#fdd888" d="M36 21c-1-5-4-8-4-8H4s-3 3-4 8h36z"/></g><g><path fill="#fdd888" d="M14 18V0L9 5 4 0v18h10z"/></g><g><path fill="#fdcb58" d="M16.8 26.8l-7.88-5.5-7.87 5.5c-.58.4-1.05.16-1.05-.54V11.6c0-.7.48-.96 1.07-.58l7.85 5.1 7.86-5.1c.6-.38 1.07-.12 1.07.58v14.66c0 .7-.47.95-1.05.55"/></g><g><path fill="#fdd888" d="M13 19c0-2.2-1.8-4-4-4s-4 1.8-4 4 1.8 4 4 4 4-1.8 4-4"/></g></g></g></g></svg>