<svg xmlns="http://www.w3.org/2000/svg" viewBox="0 0 45 45" enable-background="new 0 0 45 45"><defs><clipPath id="a"><path d="M0 36h36V0H0v36z"/></clipPath></defs><g><g><g clip-path="url(#a)" transform="matrix(1.25 0 0 -1.25 0 45)"><g><path fill="#e75a70" d="M13.6 9.48c-.3.5-.3 1.12.02 1.6l4.4 6.64-6 5.14c-.55.48-.68 1.28-.3 1.9l4.3 7.18c-1.67 1.3-3.76 2.1-6.04 2.1C4.53 34.03.1 29.6.1 24.16c0-.78.1-1.52.28-2.24C1.75 13.4 11.22 4.43 18 1.97c.03 0 .05.02.08.03l-4.5 7.48z"/></g><g><path fill="#e75a70" d="M26.02 34.03c-2.77 0-5.25-1.15-7.04-2.98l-4.04-6.74 6.04-5.16c.57-.5.7-1.34.27-1.97l-4.6-6.96L20.8 3.3c6.35 3.53 13.63 11.26 14.82 18.65.17.72.26 1.46.26 2.24 0 5.45-4.4 9.86-9.86 9.86"/></g></g></g></g></svg>