<svg xmlns="http://www.w3.org/2000/svg" viewBox="0 0 45 45" enable-background="new 0 0 45 45"><defs><clipPath id="a"><path d="M0 36h36V0H0v36z"/></clipPath></defs><g><g><path fill="#ccd6dd" d="M32.93 14.77l-2.7-2.7L37.3 5 40 7.7l-7.07 7.07z"/></g><g><g clip-path="url(#a)" transform="matrix(1.25 0 0 -1.25 0 45)"><g><path fill="#292f33" d="M28 14c0-7.73-6.27-14-14-14S0 6.27 0 14s6.27 14 14 14 14-6.27 14-14"/></g><g><path fill="#292f33" d="M24.66 19L19 24.66l5.66 5.65 5.65-5.64L24.67 19z"/></g><g><path fill="#f18f26" d="M36 32c0-2.2-1.8-4-4-4s-4 1.8-4 4 1.8 4 4 4 4-1.8 4-4"/></g><g><path fill="#fdcb58" d="M34 32c0-1.1-.9-2-2-2s-2 .9-2 2 .9 2 2 2 2-.9 2-2"/></g></g></g></g></svg>