<svg xmlns="http://www.w3.org/2000/svg" viewBox="0 0 45 45" enable-background="new 0 0 45 45"><defs><clipPath id="a"><path d="M0 36h36V0H0v36z"/></clipPath><clipPath id="b"><path d="M7.24 25.36L1 19.13C.4 18.5.4 17.5 1 16.87l6.24-6.24c.62-.62 1.64-.62 2.26 0l6.23 6.24c.63.62.63 1.64 0 2.26L9.5 25.36c-.3.32-.72.47-1.13.47-.4 0-.82-.15-1.13-.47"/></clipPath><clipPath id="c"><path d="M16.87 15.73L10.63 9.5c-.62-.62-.62-1.64 0-2.26L16.88 1C17.5.4 18.5.4 19.13 1l6.24 6.24c.62.62.62 1.64 0 2.26l-6.24 6.24c-.3.3-.72.46-1.13.46-.4 0-.82-.15-1.13-.46"/></clipPath><clipPath id="d"><path d="M26.5 25.36l-6.24-6.23c-.62-.62-.62-1.64 0-2.26l6.24-6.24c.62-.62 1.64-.62 2.26 0L35 16.88c.62.62.62 1.64 0 2.26l-6.24 6.23c-.3.32-.72.47-1.13.47-.4 0-.82-.15-1.13-.47"/></clipPath><clipPath id="e"><path d="M16.87 35l-6.24-6.24c-.62-.62-.62-1.64 0-2.26l6.24-6.24c.62-.62 1.64-.62 2.26 0l6.24 6.24c.62.62.62 1.64 0 2.26L19.13 35c-.3.3-.72.46-1.13.46-.4 0-.82-.15-1.13-.47"/></clipPath><clipPath id="f"><path d="M0 36h36V0H0v36z"/></clipPath></defs><g><g><g clip-path="url(#a)" transform="matrix(1.25 0 0 -1.25 0 45)"><g><path fill="#55acee" d="M16.87 20.27c.62-.63 1.64-.63 2.26 0l6.23 6.23c.63.62.63 1.64 0 2.26L19.13 35c-.62.62-1.64.62-2.26 0l-6.23-6.24c-.63-.62-.63-1.64 0-2.26l6.23-6.23z"/></g><g><path fill="#55acee" d="M35 19.13l-6.24 6.23c-.62.63-1.64.63-2.26 0l-6.23-6.23c-.63-.62-.63-1.64 0-2.26l6.23-6.23c.62-.63 1.64-.63 2.26 0L35 16.87c.62.62.62 1.64 0 2.26"/></g><g><path fill="#55acee" d="M19.13 15.73c-.62.63-1.64.63-2.26 0L10.64 9.5c-.63-.62-.63-1.64 0-2.26L16.87 1C17.5.4 18.5.4 19.13 1l6.23 6.24c.63.62.63 1.64 0 2.26l-6.23 6.23z"/></g><g><path fill="#55acee" d="M15.73 19.13L9.5 25.36c-.62.63-1.64.63-2.26 0L1 19.13C.4 18.5.4 17.5 1 16.87l6.24-6.23c.62-.63 1.64-.63 2.26 0l6.23 6.23c.63.62.63 1.64 0 2.26"/></g></g></g><g><g clip-path="url(#b)" transform="matrix(1.25 0 0 -1.25 0 45)"><g><path fill="#3b88c3" d="M25 18c0-3.87-3.13-7-7-7s-7 3.13-7 7 3.13 7 7 7 7-3.13 7-7"/></g></g></g><g><g clip-path="url(#c)" transform="matrix(1.25 0 0 -1.25 0 45)"><g><path fill="#3b88c3" d="M25 18c0-3.87-3.13-7-7-7s-7 3.13-7 7 3.13 7 7 7 7-3.13 7-7"/></g></g></g><g><g clip-path="url(#d)" transform="matrix(1.25 0 0 -1.25 0 45)"><g><path fill="#3b88c3" d="M25 18c0-3.87-3.13-7-7-7s-7 3.13-7 7 3.13 7 7 7 7-3.13 7-7"/></g></g></g><g><g clip-path="url(#e)" transform="matrix(1.25 0 0 -1.25 0 45)"><g><path fill="#3b88c3" d="M25 18c0-3.87-3.13-7-7-7s-7 3.13-7 7 3.13 7 7 7 7-3.13 7-7"/></g></g></g><g><g clip-path="url(#f)" transform="matrix(1.25 0 0 -1.25 0 45)"><g><path fill="#bbddf5" d="M23 18c0-2.76-2.24-5-5-5s-5 2.24-5 5 2.24 5 5 5 5-2.24 5-5"/></g></g></g></g></svg>