<svg xmlns="http://www.w3.org/2000/svg" viewBox="0 0 45 45" enable-background="new 0 0 45 45"><defs><clipPath id="a"><path d="M0 36h36V0H0v36z"/></clipPath></defs><g><g><g clip-path="url(#a)" transform="matrix(1.25 0 0 -1.25 0 45)"><g><path fill="#ffd983" d="M29 24.94c0-6.44-5-7.44-5-13.44 0-3.1-3.12-3.36-5.5-3.36-2.05 0-6.6.78-6.6 3.36 0 6-4.9 7-4.9 13.44 0 6.03 5.3 10.92 11.08 10.92 5.8 0 10.92-4.9 10.92-10.92"/></g><g><path fill="#ccd6dd" d="M22.17 3.5c0-.83-2.24-2.5-4.17-2.5-1.93 0-4.17 1.67-4.17 2.5 0 .83 2.24.5 4.17.5 1.93 0 4.17.33 4.17-.5"/></g><g><path fill="#ffcc4d" d="M22.7 25.7c-.38.4-1.02.4-1.4 0L18 22.4l-3.3 3.3c-.38.4-1.02.4-1.4 0-.4-.38-.4-1.02 0-1.4l3.7-3.7V10c0-.55.45-1 1-1s1 .45 1 1v10.6l3.7 3.7c.4.38.4 1.02 0 1.4"/></g><g><path fill="#99aab5" d="M24 5c0-1.1-.9-2-2-2h-8c-1.1 0-2 .9-2 2v6h12V5z"/></g><g><path fill="#ccd6dd" d="M12 4c-.48 0-.9.35-1 .84-.08.54.3 1.06.84 1.15l12 2c.54.08 1.06-.3 1.15-.84.08-.54-.3-1.05-.84-1.15l-12-2c-.05 0-.1 0-.16 0"/></g><g><path fill="#ccd6dd" d="M12 8c-.48 0-.9.35-1 .84-.08.54.3 1.06.84 1.15l12 2c.54.08 1.06-.3 1.15-.84.08-.54-.3-1.05-.84-1.15l-12-2c-.05 0-.1 0-.16 0"/></g></g></g></g></svg>