<svg xmlns="http://www.w3.org/2000/svg" viewBox="0 0 45 45" enable-background="new 0 0 45 45"><defs><clipPath id="a"><path d="M0 36h36V0H0v36z"/></clipPath></defs><g><g><g clip-path="url(#a)" transform="matrix(1.25 0 0 -1.25 0 45)"><g><path fill="#4289c1" d="M33 17c1.2 0 2-.8 2-2 0-1.07-.98-2-2-2H22c-1.5 0-2 .8-2 2 0 .56.63 1.5 1 2l8 12h-7c-1.13 0-2 .84-2 2 0 1.07.93 2 2 2h11c1.64 0 2-1 2-2 0-.62-.64-1.52-1-2l-8-12h7z"/></g><g><path fill="#4289c1" d="M17 12c.63 0 1-.35 1-1 0-.57-.46-1-1-1h-6c-.8 0-1 .37-1 1 0 .3.34.73.53 1L15 18h-4c-.6 0-1 .38-1 1 0 .57.43 1 1 1h6c.87 0 1-.47 1-1 0-.33-.34-.88-.53-1.13L13 12h4z"/></g><g><path fill="#4289c1" d="M8 5c.63 0 1-.35 1-1 0-.57-.46-1-1-1H2c-.8 0-1 .37-1 1 0 .3.34.73.53 1L6 11H2c-.6 0-1 .38-1 1 0 .57.43 1 1 1h6c.87 0 1-.47 1-1 0-.33-.34-.88-.53-1.13L4 5h4z"/></g></g></g></g></svg>