<svg xmlns="http://www.w3.org/2000/svg" viewBox="0 0 45 45" enable-background="new 0 0 45 45"><defs><clipPath id="a"><path d="M0 36h36V0H0v36z"/></clipPath></defs><g><g><g clip-path="url(#a)" transform="matrix(1.25 0 0 -1.25 0 45)"><g><path fill="#fff" d="M15.63 1.34c-.8.6-1.5 1.48-2.03 2.6l-.23.46-.46-.25c-.97-.53-1.9-.86-2.73-.97l-.2 3.76-3.64-.97c-.16.85-.13 1.9.1 3.02l.1.52-.54.06c-1.25.16-2.3.53-3.1 1.08l1.5 2.92-2.98 1.52c.32.95.95 1.9 1.84 2.74l.38.36-.38.36c-.8.77-1.4 1.56-1.77 2.3L5 22.24l-2.05 3.15c.74.4 1.7.7 2.8.84l.5.06-.08.52c-.22 1.2-.17 2.34.12 3.3l3.3-.54.52 3.3c1 0 2.08-.3 3.17-.9l.45-.24.23.47c.47 1 1.04 1.8 1.65 2.4L18 31.66l2.37 2.92c.6-.6 1.18-1.4 1.66-2.4l.22-.48.46.24c1.1.58 2.2.9 3.18.9l.52-3.3 3.3.53c.3-.96.35-2.1.13-3.3l-.1-.52.53-.07c1.1-.13 2.05-.42 2.8-.82L31 22.23l3.5-1.36c-.35-.76-.95-1.55-1.76-2.3l-.37-.37.37-.36c.9-.86 1.52-1.8 1.84-2.74l-3-1.52 1.53-2.98c-.8-.58-1.86-.97-3.08-1.14l-.52-.07.1-.52c.2-1.1.22-2.08.07-2.9l-3.63.96-.2-3.76c-.84.1-1.77.44-2.75.97l-.47.25-.23-.47c-.53-1.1-1.23-2-2.03-2.6L18 3.72l-2.37-2.36z"/></g><g><path fill="#ea596e" d="M7.1 25.32c-.54 1.5-.7 2.97-.44 4.2l2.37-.37L10 29l.17.98.38 2.37c1.26-.13 2.6-.75 3.86-1.7.13.33.25.65.4.96-1.56 1.14-3.23 1.77-4.74 1.77-.12 0-.24 0-.37 0l-.52-3.23-3.22.5c-.6-1.48-.57-3.4.08-5.4.34.05.7.07 1.05.08"/></g><g><path fill="#ea596e" d="M21.6 30.64c1.24.96 2.6 1.58 3.85 1.7l.38-2.36.16-1 .97.17 2.37.37c.27-1.23.1-2.7-.43-4.2.37 0 .72-.03 1.06-.07.65 1.98.68 3.9.08 5.4l-3.22-.52-.5 3.23c-.13 0-.26 0-.38 0-1.5 0-3.18-.62-4.73-1.75.15-.3.27-.62.4-.96"/></g><g><path fill="#ea596e" d="M7.37 9h.03c.07 0 .16.6.26.95-.1 0-.2-.05-.3-.05-1.5 0-2.82.3-3.82.9l1.1 2.12.44.9-.9.44-2.13 1.1c.5 1.14 1.52 2.24 2.82 3.13-.3.2-.56.43-.8.66-1.7-1.22-2.85-2.76-3.24-4.3l2.9-1.5-1.48-2.84C3.47 9.5 5.3 9 7.37 9"/></g><g><path fill="#ea596e" d="M35.17 14.85c-.4 1.55-1.54 3.1-3.23 4.3-.25-.22-.52-.44-.8-.66 1.3-.9 2.3-2 2.8-3.16l-2.13-1.1-.88-.44.45-.9 1.1-2.13c-1-.58-2.34-.9-3.83-.9-.1 0-.2 0-.3 0 .1-.33.2-.67.26-1 0 0 .02 0 .04 0 2.06 0 3.9.56 5.1 1.6l-1.47 2.9 2.9 1.48z"/></g><g><path fill="#ea596e" d="M22.52 5.66c-.45-1.5-1.18-2.8-2.12-3.65l-1.7 1.7-.7.7-.7-.7L15.6 2c-.94.85-1.67 2.15-2.12 3.67-.3-.2-.6-.4-.9-.57.65-1.98 1.75-3.56 3.1-4.4L18 3 20.3.7c1.37.84 2.47 2.42 3.1 4.4-.3.17-.58.36-.88.56"/></g><g><path fill="#ea596e" d="M20.3 35.3L18 32.48l-2.3 2.84c-2-1.52-3.43-4.98-3.65-9.1-1.62.43-3.2.63-4.64.63-2.1 0-3.92-.44-5.15-1.3l2-3.06-3.42-1.32c.84-2.36 3.7-4.8 7.54-6.28-2.24-3.46-3.12-7.1-2.4-9.5l3.53.93.2-3.66c2.5.07 5.7 2.03 8.3 5.23 2.6-3.2 5.8-5.16 8.3-5.23l.2 3.66 3.54-.95c.7 2.42-.17 6.05-2.4 9.52 3.84 1.5 6.7 3.92 7.53 6.28l-3.4 1.32 1.98 3.07c-1.24.85-3.05 1.3-5.17 1.3-1.43 0-3-.2-4.63-.64-.22 4.12-1.65 7.58-3.64 9.1m-.18-4.98c.42-1.15.75-2.6.84-4.3l.2-3.67 3.56.95c1.32.35 2.66.53 3.86.53.16 0 .32 0 .48 0L27.23 21l3.14-1.2c-.96-.77-2.24-1.52-3.82-2.13l-3.44-1.33 2-3.1c.93-1.42 1.52-2.78 1.85-3.96l-3.24.87-.17-3.36c-1.02.67-2.14 1.65-3.2 2.96L18 12.63l-2.33-2.87c-1.06-1.3-2.18-2.3-3.2-2.97l-.18 3.35-3.25-.87c.33 1.18.92 2.54 1.84 3.96l2 3.1-3.45 1.33c-1.58.6-2.86 1.36-3.82 2.12L8.77 21l-1.83 2.82c.16 0 .3 0 .47 0 1.22 0 2.55-.17 3.88-.52l3.56-.95.2 3.68c.1 1.7.42 3.14.84 4.3L18 27.7l2.12 2.62"/></g></g></g></g></svg>