<svg xmlns="http://www.w3.org/2000/svg" viewBox="0 0 45 45" enable-background="new 0 0 45 45"><defs><clipPath id="a"><path d="M0 36h36V0H0v36z"/></clipPath></defs><g><g><g clip-path="url(#a)" transform="matrix(1.25 0 0 -1.25 0 45)"><g><path fill="#bf6952" d="M33.54 12.8c.36 1.58.24 3.27-.46 4.95-.67 1.62-1.84 2.9-3.27 3.77.33 1.2.25 2.48-.3 3.75-.85 1.92-2.67 3.2-4.72 3.56.24.58.32 1.3.03 2.17-1 3-5 1-8 5-2.43-1.46-2.96-3.64-2.87-5.5-2.42-.4-3.8-.92-3.8-.92-1.36-.56-2.32-1.9-2.32-3.45 0-.88.33-1.67.84-2.3l-.7-.27c-2.32-.87-3.97-2.98-3.97-5.44 0-1.05.3-2.03.82-2.88C1.96 13.97 0 11.22 0 8c0-4.42 3.7-8 8.24-8 3.27 0 6.56.7 9.53 1.66C20.02.62 23.47 0 28.67 0 32.72 0 36 3.28 36 7.33c0 2.18-.95 4.13-2.46 5.47"/></g><g><path fill="#f5f8fa" d="M17 20.5c0-2.48-1.57-4.5-3.5-4.5S10 18.02 10 20.5s1.57 4.5 3.5 4.5 3.5-2.02 3.5-4.5"/></g><g><path fill="#f5f8fa" d="M27 20.5c0-2.48-1.57-4.5-3.5-4.5S20 18.02 20 20.5s1.57 4.5 3.5 4.5 3.5-2.02 3.5-4.5"/></g><g><path fill="#292f33" d="M16 20.5c0-1.38-.9-2.5-2-2.5s-2 1.12-2 2.5.9 2.5 2 2.5 2-1.12 2-2.5"/></g><g><path fill="#292f33" d="M25 20.5c0-1.38-.9-2.5-2-2.5s-2 1.12-2 2.5.9 2.5 2 2.5 2-1.12 2-2.5"/></g><g><path fill="#292f33" d="M9.45 11.1c-.25.5 0 .9.55.9h18c.55 0 .8-.4.55-.9C28.55 11.1 26 6 19 6c-7 0-9.55 5.1-9.55 5.1"/></g><g><path fill="#f2abba" d="M19 10c-2.77 0-5.16-.92-6.3-2.26C14.2 6.8 16.26 6 19 6s4.8.8 6.3 1.74C24.15 9.08 21.76 10 19 10"/></g></g></g></g></svg>