<svg xmlns="http://www.w3.org/2000/svg" viewBox="0 0 45 45" enable-background="new 0 0 45 45"><defs><clipPath id="a"><path d="M0 36h36V0H0v36z"/></clipPath></defs><g><g><g clip-path="url(#a)" transform="matrix(1.25 0 0 -1.25 0 45)"><g><path fill="#bb1a34" d="M1.73 15c-.62 0-.96.26-1.13.47-.17.2-.35.6-.22 1.17l2.72 12.7-1.7-.1h-.02c-.52 0-.9.17-1.13.46-.22.27-.3.62-.22.98.15.7.88 1.3 1.67 1.33l4 .24c.08 0 .15 0 .22 0 .15 0 .54 0 .78-.3.26-.3.17-.7.14-.84L3.72 16.55c-.2-.9-.92-1.5-1.87-1.55h-.12z"/></g><g><path fill="#bb1a34" d="M15.9 30.75h-.15c-1.94-.12-3.56-2.3-4.32-5.87-.48-2.23-.38-3.9.27-4.7.3-.38.72-.57 1.25-.57l.14.02c1.93.1 3.54 2.3 4.3 5.86.5 2.23.4 3.9-.26 4.7-.3.38-.72.57-1.25.57M12.46 17c-1.44 0-2.63.54-3.46 1.56-1.15 1.44-1.45 3.65-.87 6.4 1.04 4.8 4.2 8.18 7.9 8.4 1.6.08 2.9-.46 3.8-1.56 1.16-1.44 1.47-3.65.88-6.4-1.02-4.8-4.2-8.18-7.9-8.4-.1 0-.22 0-.33 0"/></g><g><path fill="#bb1a34" d="M30.9 32.4l-.15-.02c-1.94-.1-3.55-2.3-4.32-5.86-.48-2.23-.38-3.9.27-4.7.3-.38.72-.57 1.25-.57h.14c1.93.12 3.55 2.3 4.3 5.87.5 2.23.4 3.9-.26 4.7-.3.38-.72.57-1.25.57m-3.42-13.76c-1.44 0-2.64.54-3.47 1.56-1.15 1.44-1.45 3.65-.86 6.4 1.03 4.8 4.2 8.18 7.9 8.4 1.6.08 2.9-.46 3.8-1.56 1.15-1.44 1.46-3.65.87-6.4-1.02-4.8-4.2-8.18-7.9-8.4-.1 0-.22 0-.32 0"/></g><g><path fill="#bb1a34" d="M11 1c-.8 0-1.57.5-1.87 1.3-.4 1.03.13 2.18 1.17 2.57.34.13 8.4 3.1 20.53 4.12 1.1.1 2.07-.73 2.16-1.83.1-1.1-.73-2.07-1.83-2.16-11.6-.96-19.4-3.84-19.47-3.87-.23-.1-.47-.13-.7-.13"/></g><g><path fill="#bb1a34" d="M2 7C1.2 7 .44 7.5.13 8.28c-.4 1.03.12 2.2 1.15 2.6.54.2 13.52 5.1 32.6 6.12 1.13.07 2.06-.8 2.12-1.9.06-1.1-.8-2.04-1.9-2.1C15.7 12.03 2.85 7.18 2.73 7.13 2.48 7.03 2.24 7 2 7"/></g></g></g></g></svg>