<svg xmlns="http://www.w3.org/2000/svg" viewBox="0 0 45 45" enable-background="new 0 0 45 45"><defs><clipPath id="a"><path d="M0 36h36V0H0v36z"/></clipPath></defs><g><g><g clip-path="url(#a)" transform="matrix(1.25 0 0 -1.25 0 45)"><g><path fill="#bdddf4" d="M36 21c0 4.16-3.17 7.57-7.22 7.96C27.88 33 24.3 36 20 36c-4.97 0-9-3.56-9-8.53 0-1.16.25-2.9 1.12-3.8-3.26-.17-8.03-.27-12.12.3 0 .02 4.82-3.8 15.36-3.97-.15-.3-.26-1.43-.3-1.8-.26 0-.6 0-1.06 0-8 0-14 .8-14 .8s3-3.23 15.4-4.1C15 14.76 15 13 15 13c-8 0-15 1-15 1 3.36-2.8 6.72-4.03 9.03-4.57C9.03 9.28 9 9.15 9 9c0-3.3 2.7-5 6-5 .5 0 .96.06 1.4.17C18 1.67 20.8 0 24 0c4.97 0 9 4.03 9 9 0 1.8-.53 3.45-1.43 4.85C34.2 15.15 36 17.87 36 21"/></g></g></g></g></svg>