<svg xmlns="http://www.w3.org/2000/svg" viewBox="0 0 45 45" enable-background="new 0 0 45 45"><defs><clipPath id="a"><path d="M0 36h36V0H0v36z"/></clipPath></defs><g><g><g clip-path="url(#a)" transform="matrix(1.25 0 0 -1.25 0 45)"><g><path fill="#bdddf4" d="M18 35C8.06 35 0 28.73 0 21c0-4.37 2.57-8.27 6.6-10.84C6.08 7.86 4.86 4.43 2 1c5.76.96 9.44 3.76 11.72 6.42C15.1 7.15 16.52 7 18 7c9.94 0 18 6.27 18 14s-8.06 14-18 14"/></g><g><path fill="#2a6797" d="M20 21c0-1.1-.9-2-2-2s-2 .9-2 2 .9 2 2 2 2-.9 2-2"/></g><g><path fill="#2a6797" d="M28 21c0-1.1-.9-2-2-2s-2 .9-2 2 .9 2 2 2 2-.9 2-2"/></g><g><path fill="#2a6797" d="M12 21c0-1.1-.9-2-2-2s-2 .9-2 2 .9 2 2 2 2-.9 2-2"/></g></g></g></g></svg>