<svg xmlns="http://www.w3.org/2000/svg" viewBox="0 0 45 45" enable-background="new 0 0 45 45"><g><g><path fill="#bb1a34" d="M27.5 0l-5 10.04-6.25-6.28v8.78l-12.5-2.5 10 10.03L0 27.6h15L7.5 42.64l15-10.04L36.08 45h.14L32.5 27.6H45l-10-7.53 10-11.3-15 3.77L27.5 0z"/></g><g><path fill="#fcab40" d="M28.64 16.16l2.33-.6 6.53-1.63-4.23 4.77-1.64 1.87 1.98 1.5 3.67 2.74h-7.4l.6 2.8 1.93 9.06L25.1 30l-1.33-1.2-1.48.98-6.56 4.38 3-6.03 1.66-3.32h-8.45l4.7-2.56 2.7-1.47-2.17-2.16-3.8-3.8 4.02.8 2.73.54V10.86l1.8 1.82 2.26 2.25 1.4-2.85 1.6-3.2"/></g><g><path fill="#f5f8fa" d="M26.9 17.88l.95-.24 2.7-.68-1.75 1.97-.68.77.82.6 1.5 1.15H27.4l.24 1.14.8 3.74-3-2.75-.56-.5-.6.4-2.72 1.8 1.24-2.48.7-1.37H20l1.94-1.06 1.1-.62-.88-.9-1.57-1.57 1.65.34 1.13.23V15.7l.74.74.93.93.58-1.18.66-1.32"/></g></g></svg>