<svg xmlns="http://www.w3.org/2000/svg" viewBox="0 0 45 45" enable-background="new 0 0 45 45"><defs><clipPath id="a"><path d="M0 36h36V0H0v36z"/></clipPath></defs><g><g><g clip-path="url(#a)" transform="matrix(1.25 0 0 -1.25 0 45)"><g><path fill="#f7dece" d="M12.43 14s-.72 3.64.3 10.87c1.4-.45 2.8-.87 3.27-.87 1 0 4 1 4 2s-1 2-1 2l2 1c1 1 0 7-4 7-7 0-9.57-7-9.57-7s-6-11-6-20c.07 0-1-5 0-6s5-1 5-1C16.43-2 35 1 35 10c0 13-19.57 10-22.57 4"/></g><g><path fill="#e0aa94" d="M19.5 3.75c-3.18 0-5.8 1.28-5.95 1.36-.5.25-.7.85-.44 1.35.25.5.85.7 1.35.45.04-.02 4.24-2.06 7.95-.64 2.06.78 3.63 2.5 4.67 5.1.2.53.8.77 1.3.57.5-.2.76-.8.56-1.3-1.26-3.16-3.22-5.26-5.83-6.25-1.2-.46-2.45-.63-3.6-.63"/></g></g></g></g></svg>