<svg xmlns="http://www.w3.org/2000/svg" viewBox="0 0 45 45" enable-background="new 0 0 45 45"><defs><clipPath id="a"><path d="M0 36h36V0H0v36z"/></clipPath></defs><g><g><g clip-path="url(#a)" transform="matrix(1.25 0 0 -1.25 0 45)"><g><path fill="#fdd888" d="M31.9 12.06C31.3 18.68 28 22 28 22l-6 8h-8l-6-8s-1.42-1.43-2.57-4.28C3.43 17.06 2 15.22 2 13c0-1.45.63-2.74 1.6-3.66C3.24 8.64 3 7.84 3 7c0-1.96 1.14-3.64 2.78-4.46C7.06.62 8.78 0 10 0h16c1.38 0 3.37.78 4.68 3.3C32.6 4 34 5.84 34 8c0 1.68-.83 3.15-2.1 4.06"/></g><g><path fill="#fdd888" d="M18 30c.55 0 1.06.16 1.5.42.44-.26.95-.42 1.5-.42 1.66 0 4 2.34 4 4 0 0 0 2-2 2-.8 0-1-1-2-1s-1 1-3 1-2-1-3-1-1.2 1-2 1c-2 0-2-2-2-2 0-1.66 2.34-4 4-4 .55 0 1.06.16 1.5.42.44-.26.95-.42 1.5-.42"/></g><g><path fill="#bf6952" d="M24 30c0-.55-.45-1-1-1H13c-.55 0-1 .45-1 1s.45 1 1 1h10c.55 0 1-.45 1-1"/></g><g><path fill="#67757f" d="M23.9 11.46c0 4.47-8.58 4.18-8.58 6.88 0 1.3 1.3 1.95 2.8 1.95 2.55 0 3-1.58 4.15-1.58.82 0 1.2.5 1.2 1.05 0 1.28-2.02 2.25-3.96 2.6v1.23c0 .77-.64 1.4-1.44 1.4-.8 0-1.46-.63-1.46-1.4v-1.28c-2.12-.47-3.94-1.88-3.94-4.18 0-4.3 8.58-4.12 8.58-7.14 0-1.05-1.17-2.1-3.1-2.1-2.9 0-3.87 1.9-5.05 1.9-.6 0-1.1-.47-1.1-1.17 0-1.12 1.94-2.45 4.6-2.83V5.4c0-.78.65-1.4 1.46-1.4.8 0 1.45.62 1.45 1.4v1.4s0 .02 0 .04c2.4.43 4.4 1.93 4.4 4.62"/></g></g></g></g></svg>