<svg xmlns="http://www.w3.org/2000/svg" viewBox="0 0 45 45" enable-background="new 0 0 45 45"><defs><clipPath id="a"><path d="M0 36h36V0H0v36z"/></clipPath></defs><g><g><g clip-path="url(#a)" transform="matrix(1.25 0 0 -1.25 0 45)"><g><path fill="#ffac33" d="M4 31c-2.2 0-4-1.8-4-4V9c0-2.2 1.8-4 4-4h28c2.2 0 4 1.8 4 4v18s0 4-4 4H4z"/></g><path fill="#292f33" d="M36 21H0v5h36v-5z"/><path fill="#f4f7f9" d="M32 11H4v6h28v-6z"/><g><path fill="#8899a6" d="M19 12c-1.7 0-2.34 1.2-2.47 1.8-.55-.04-1.08-.3-1.8-.76C13.96 12.54 13.1 12 12 12c-1.2 0-1.92.68-2 2 0 .06.04.2.02.2-1.86 0-3.2-1.77-3.2-1.8-.2-.26-.5-.4-.82-.4-.2 0-.4.06-.6.2-.44.32-.53.95-.2 1.4.07.1 1.9 2.4 4.8 2.4 1.94 0 2.05-1.37 2.08-1.9 0-.02 0-.06 0-.1.5.04 1 .36 1.57.73.96.6 2.16 1.37 3.75.96.87-.23 1-1.04 1.06-1.35.02-.07.03-.2.05-.22.02 0 .16-.1.6-.13.8-.08 1.7.28 2.66.65 1 .4 2 .8 3.1.8 3.4 0 4.78-1.65 4.93-1.83.33-.44.25-1.07-.18-1.4-.18-.14-.38-.2-.6-.22-.3 0-.6.12-.8.38-.03.03-.94 1.06-3.34 1.06-.73 0-1.53-.32-2.4-.65-1-.4-2.42-.8-3.48-.8"/></g></g></g></g></svg>