<svg xmlns="http://www.w3.org/2000/svg" viewBox="0 0 45 45" enable-background="new 0 0 45 45"><defs><clipPath id="a"><path d="M0 36h36V0H0v36z"/></clipPath><clipPath id="b"><path d="M4 8.9c-1.1 0-1.67-1-2-2L0 2C0 .9.9 0 2 0h32c1.1 0 2 .9 2 2l-2 4.9c-.42.97-.9 2-2 2H4z"/></clipPath><clipPath id="c"><path d="M0 36h36V0H0v36z"/></clipPath></defs><g><g><g clip-path="url(#a)" transform="matrix(1.25 0 0 -1.25 0 45)"><g><path fill="#ccd6dd" d="M33 10.92c0-1.1-.9-2-2-2H5c-1.1 0-2 .9-2 2V28c0 1.1.9 2 2 2h26c1.1 0 2-.9 2-2V10.9z"/></g><g><path fill="#ccd6dd" d="M36 2c0-1.1-.9-2-2-2H2C.9 0 0 .9 0 2l2 4.9c.33 1 .9 2 2 2h28c1.1 0 1.58-1.03 2-2L36 2z"/></g></g></g><g><g clip-path="url(#b)" transform="matrix(1.25 0 0 -1.25 0 45)"><g><path fill="#9aaab4" d="M38 1.93H0l1-4.06h37v4.05z"/></g></g></g><g><g clip-path="url(#c)" transform="matrix(1.25 0 0 -1.25 0 45)"><g><path fill="#5dadec" d="M31 11.92c0-.55-.45-1-1-1H6c-.55 0-1 .45-1 1V27c0 .54.45 1 1 1h24c.55 0 1-.46 1-1V11.9z"/></g><g><path fill="#aebbc1" d="M32.9 4.96l-.75 2.17c-.24.46-.64.84-1.2.84H5.12c-.54 0-.9-.4-1.15-1.03l-.68-1.98c-.22-.6.44-1 1-1h7.57s.94.04 1.1.6c.2.65.42 1.63.47 1.8.08.26.4.53.87.53h8.57c.5 0 .75-.26.8-.58.06-.2.33-1.14.45-1.78.1-.57 1.2-.6 1.2-.6h6.6c.56 0 1.23.5 1 1.02"/></g><g><path fill="#9aaab4" d="M22.38 2.9h-7.8c-.36 0-.52.33-.47.66.06.33.37 1.8.4 1.97.02.17.27.37.52.37h7c.3 0 .5-.16.56-.5.06-.32.3-1.63.32-1.93.02-.3-.17-.58-.52-.58"/></g></g></g></g></svg>