<svg xmlns="http://www.w3.org/2000/svg" viewBox="0 0 45 45" enable-background="new 0 0 45 45"><defs><clipPath id="a"><path d="M0 36h36V0H0v36z"/></clipPath></defs><g><g><g clip-path="url(#a)" transform="matrix(1.25 0 0 -1.25 0 45)"><g><path fill="#cbb8e9" d="M2 30c-2 0-2-2-2-2V8s0-2 2-2h32c2 0 2 2 2 2v20s0 2-2 2H2z"/></g><path fill="#9aaab4" d="M23 5.94H13V30h10V5.94z"/><g><path fill="#67757f" d="M8.02 23c.44 0 .76-.24.76-.73 0-.5-.32-.72-.76-.72H6.1c.06-.3.13-.63.13-1.16 0-.83-.55-2.1-1.5-2.96h5.9c.45 0 .76-.23.76-.72 0-.5-.32-.72-.76-.72H3.6c-.48 0-.92.12-.92.74 0 .75 2 1.58 2 3.67 0 .32 0 .76-.12 1.15H2.8c-.45 0-.77.23-.77.72 0 .5.32.72.76.72h1.34c-.42.75-.86 1.57-.86 2.5 0 1.85 1.8 3.1 3.8 3.1 2.08 0 4-1.7 4-3.1 0-.47-.28-.75-.72-.75-1.18 0-.57 2.42-3.27 2.42-1.15 0-2.28-.6-2.28-1.77 0-.93.53-1.64.93-2.4h2.27z"/></g></g></g></g></svg>