<svg xmlns="http://www.w3.org/2000/svg" viewBox="0 0 45 45" enable-background="new 0 0 45 45"><defs><clipPath id="a"><path d="M0 36h36V0H0v36z"/></clipPath></defs><g><g><g clip-path="url(#a)" transform="matrix(1.25 0 0 -1.25 0 45)"><g><path fill="#292f33" d="M4 0S0 0 0 4v28s0 4 4 4h26c1 0 2-1 2-1l3-3s1-1 1-2V4s0-4-4-4H4z"/></g><g><path fill="#55acee" d="M5 17v1s0 2 2 2h21c2 0 2-2 2-2v-1H5z"/></g><g><path fill="#e1e8ed" d="M5 3.98V17h25V4s0-2-2-2H7C5 2 5 3.98 5 3.98"/></g><path fill="#e1e8ed" d="M22 23h5v10h-5V23zM10 33s0 1 1 1h18c1.05 0 1-1 1-1V23s0-1-1-1H11s-1 0-1 1v10z"/></g></g></g></svg>