<svg xmlns="http://www.w3.org/2000/svg" viewBox="0 0 45 45" enable-background="new 0 0 45 45"><defs><clipPath id="a"><path d="M0 36h36V0H0v36z"/></clipPath></defs><g><g><g clip-path="url(#a)" transform="matrix(1.25 0 0 -1.25 0 45)"><g><path fill="#fdd888" d="M2 30c-2 0-2-2-2-2V8s0-2 2-2h32c2 0 2 2 2 2v20s0 2-2 2H2z"/></g><path fill="#9aaab4" d="M23 5.94H13V30h10V5.94z"/><g><path fill="#67757f" d="M5.74 17.86H3.37c-.4 0-.7.2-.7.57 0 .38.3.57.7.57h1.66l-2.77 4.28c-.17.26-.26.45-.26.7 0 .32.33.57.6.57.3 0 .56-.13.8-.5l3.1-4.65 3.1 4.66c.25.36.53.5.8.5.28 0 .6-.26.6-.6 0-.23-.08-.42-.25-.68L7.98 19h1.66c.4 0 .7-.2.7-.57 0-.38-.3-.57-.7-.57H7.27v-1.23h2.37c.4 0 .7-.2.7-.58 0-.38-.3-.57-.7-.57H7.27v-2.66c0-.5-.3-.82-.76-.82-.44 0-.76.3-.76.82v2.66H3.37c-.4 0-.7.2-.7.57 0 .4.3.58.7.58h2.37v1.23z"/></g></g></g></g></svg>