<svg xmlns="http://www.w3.org/2000/svg" viewBox="0 0 45 45" enable-background="new 0 0 45 45"><defs><clipPath id="a"><path d="M0 36h36V0H0v36z"/></clipPath><clipPath id="b"><path d="M3.78 18c0-7.85 6.37-14.22 14.22-14.22 7.85 0 14.22 6.37 14.22 14.22 0 7.86-6.37 14.22-14.22 14.22-7.86 0-14.22-6.36-14.22-14.22m10 0c0 2.34 1.88 4.24 4.22 4.24s4.24-1.9 4.24-4.24c0-2.34-1.9-4.24-4.24-4.24-2.34 0-4.24 1.9-4.24 4.24"/></clipPath><clipPath id="c"><path d="M0 36h36V0H0v36z"/></clipPath></defs><g><g><g clip-path="url(#a)" transform="matrix(1.25 0 0 -1.25 0 45)"><g><path fill="#292f33" d="M36 4c0-2.2-1.8-4-4-4H4C1.8 0 0 1.8 0 4v28c0 2.2 1.8 4 4 4h28c2.2 0 4-1.8 4-4V4z"/></g><g><path fill="#ffd983" d="M18 20.67c-1.47 0-2.67-1.2-2.67-2.67s1.2-2.67 2.67-2.67 2.67 1.2 2.67 2.67-1.2 2.67-2.67 2.67M34 18c0-8.84-7.16-16-16-16S2 9.16 2 18s7.16 16 16 16 16-7.16 16-16"/></g></g></g><g><g clip-path="url(#b)" transform="matrix(1.25 0 0 -1.25 0 45)"><g><path fill="#ffac33" d="M18 18L2 19.78V34h14.22L18 18z"/></g><g><path fill="#ffac33" d="M18 18l16-1.78V2H19.78L18 18z"/></g><g><path fill="#ffe8b6" d="M18 18l1.9-16.9L34 2 18 18z"/></g><g><path fill="#ffe8b6" d="M18 18L2 34l14.22.9L18 18z"/></g></g></g><g><g clip-path="url(#c)" transform="matrix(1.25 0 0 -1.25 0 45)"><g><path fill="#f5f8fa" d="M36 15c0-1.1-.9-2-2-2H23c-1.1 0-2 .9-2 2v6c0 1.1.9 2 2 2h11c1.1 0 2-.9 2-2v-6z"/></g></g></g></g></svg>