<svg xmlns="http://www.w3.org/2000/svg" viewBox="0 0 45 45" enable-background="new 0 0 45 45"><defs><clipPath id="a"><path d="M0 36h36V0H0v36z"/></clipPath></defs><g><g><g clip-path="url(#a)" transform="matrix(1.25 0 0 -1.25 0 45)"><g><path fill="#9aaab4" d="M11 9c0-1.1-.9-2-2-2s-2 .9-2 2v11c0 1.1.9 2 2 2s2-.9 2-2V9z"/></g><g><path fill="#9aaab4" d="M31 9c0-1.1-.9-2-2-2s-2 .9-2 2v11c0 1.1.9 2 2 2s2-.9 2-2V9z"/></g><g><path fill="#67757f" d="M29 2c0-1.1-.9-2-2-2s-2 .9-2 2v6c0 1.1.9 2 2 2s2-.9 2-2V2z"/></g><g><path fill="#67757f" d="M13 2c0-1.1-.9-2-2-2S9 .9 9 2v6c0 1.1.9 2 2 2s2-.9 2-2V2z"/></g><g><path fill="#4289c1" d="M29 18c0-2.2-1.8-4-4-4H13c-2.2 0-4 1.8-4 4v14c0 2.2 1.8 4 4 4h12c2.2 0 4-1.8 4-4V18z"/></g><path fill="#e1e8ed" d="M23 28h-8v8h8v-8z"/><g><path fill="#ccd6dd" d="M11 21c0-1.1-.9-2-2-2H7c-1.1 0-2 .9-2 2s.9 2 2 2h2c1.1 0 2-.9 2-2"/></g><g><path fill="#ccd6dd" d="M33 21c0-1.1-.9-2-2-2h-2c-1.1 0-2 .9-2 2s.9 2 2 2h2c1.1 0 2-.9 2-2"/></g><g><path fill="#5dadec" d="M29 13c0-1.66-1.34-3-3-3H12c-1.66 0-3 1.34-3 3s1.34 3 3 3h14c1.66 0 3-1.34 3-3"/></g><path fill="#2a6797" d="M29 7H9v6h20V7z"/></g></g></g></svg>