<svg xmlns="http://www.w3.org/2000/svg" viewBox="0 0 45 45" enable-background="new 0 0 45 45"><defs><clipPath id="a"><path d="M0 36h36V0H0v36z"/></clipPath></defs><g><g><g clip-path="url(#a)" transform="matrix(1.25 0 0 -1.25 0 45)"><g><path fill="#292f33" d="M15.07 21.72c0 4.72-8.7 4.4-8.7 7.26 0 1.38 1.32 2.06 2.85 2.06 2.57 0 3.03-1.66 4.2-1.66.82 0 1.22.52 1.22 1.1 0 1.36-2.05 2.38-4.02 2.74v1.3c0 .82-.66 1.48-1.48 1.48-.8 0-1.47-.66-1.47-1.48v-1.35c-2.15-.5-4-1.98-4-4.4 0-4.54 8.7-4.35 8.7-7.54 0-1.1-1.2-2.2-3.15-2.2-2.94 0-3.92 2-5.12 2-.58 0-1.1-.5-1.1-1.24 0-1.18 1.96-2.6 4.67-3v-1.47c0-.82.66-1.48 1.47-1.48.82 0 1.48.66 1.48 1.48v1.47c0 .02 0 .03 0 .05 2.42.45 4.45 2.04 4.45 4.87"/></g><g><path fill="#292f33" d="M23.9 10.12h-4.1c-.7 0-1.23.33-1.23 1 0 .65.53.98 1.22.98h2.87l-4.8 7.4c-.3.45-.44.77-.44 1.2 0 .56.57.98 1.05.98.48 0 .95-.2 1.37-.84l5.36-8.05 5.38 8.04c.42.63.9.84 1.37.84.48 0 1.05-.42 1.05-1 0-.4-.15-.73-.45-1.18l-4.8-7.4h2.88c.7 0 1.23-.33 1.23-1 0-.65-.54-.98-1.23-.98h-4.1V8h4.1c.7 0 1.23-.33 1.23-1 0-.65-.54-.98-1.23-.98h-4.1v-4.6C26.53.53 26 0 25.2 0c-.76 0-1.3.54-1.3 1.4v4.62h-4.1c-.7 0-1.23.33-1.23 1 0 .65.53.98 1.22.98h4.1v2.12z"/></g><g><path fill="#67757f" d="M23.88 29.88L17 34l4.13-6.88L17 23h11v11l-4.13-4.13z"/></g><g><path fill="#67757f" d="M9.13 6.13L16 2l-4.13 6.88L16 13H5V2l4.13 4.13z"/></g></g></g></g></svg>