<svg xmlns="http://www.w3.org/2000/svg" viewBox="0 0 45 45" enable-background="new 0 0 45 45"><defs><clipPath id="a"><path d="M0 36h36V0H0v36z"/></clipPath></defs><g><g><g clip-path="url(#a)" transform="matrix(1.25 0 0 -1.25 0 45)"><g><path fill="#c6e4b5" d="M2 30c-2 0-2-2-2-2V8s0-2 2-2h32c2 0 2 2 2 2v20s0 2-2 2H2z"/></g><path fill="#9aaab4" d="M23 5.94H13V30h10V5.94z"/><g><path fill="#67757f" d="M11.53 9.45c0-.66-1.48-1.45-3.3-1.45-2.42 0-3.88 1.68-4.36 3.74h-1.3c-.3 0-.57.26-.57.57 0 .33.26.58.57.58H3.7c0 .14-.03.27-.03.4 0 .3.03.6.07.9H2.57c-.3 0-.57.25-.57.57 0 .3.26.57.57.57H4c.58 1.83 2.02 3.25 4.3 3.25 1.84 0 3-1 3-1.52 0-.33-.2-.6-.52-.6-.58 0-.87 1.02-2.48 1.02-1.5 0-2.43-.95-2.9-2.15h3.34c.3 0 .57-.26.57-.57 0-.32-.25-.57-.56-.57H5.1c-.03-.3-.06-.6-.06-.9 0-.13.02-.26.03-.4h3.67c.3 0 .57-.25.57-.57 0-.3-.25-.56-.56-.56h-3.5c.4-1.43 1.35-2.63 3-2.63 1.55 0 2.24.95 2.78.95.3 0 .5-.24.5-.6"/></g></g></g></g></svg>