<svg xmlns="http://www.w3.org/2000/svg" viewBox="0 0 45 45" enable-background="new 0 0 45 45"><defs><clipPath id="a"><path d="M0 36h36V0H0v36z"/></clipPath></defs><g><g><g clip-path="url(#a)" transform="matrix(1.25 0 0 -1.25 0 45)"><g><path fill="#292f33" d="M28.8 12.8c0 7.66-14.13 7.16-14.13 11.8 0 2.24 2.14 3.33 4.63 3.33 4.18 0 4.93-2.7 6.82-2.7 1.34 0 2 .86 2 1.8 0 2.2-3.35 3.87-6.55 4.45v2.12c0 1.33-1.07 2.4-2.4 2.4-1.32 0-2.4-1.07-2.4-2.4v-2.2c-3.48-.8-6.48-3.2-6.48-7.15 0-7.37 14.13-7.08 14.13-12.25 0-1.8-1.94-3.6-5.13-3.6-4.78 0-6.38 3.25-8.32 3.25-.94 0-1.8-.8-1.8-2 0-1.9 3.2-4.2 7.6-4.84V2.4c0-1.33 1.07-2.4 2.4-2.4 1.32 0 2.4 1.07 2.4 2.4v2.4c0 .02-.02.05-.02.07 3.95.74 7.25 3.32 7.25 7.92"/></g></g></g></g></svg>