<svg xmlns="http://www.w3.org/2000/svg" viewBox="0 0 45 45" enable-background="new 0 0 45 45"><defs><clipPath id="a"><path d="M0 36h36V0H0v36z"/></clipPath><clipPath id="b"><path d="M21.86 14.95c-.05-.03-.45-.34-.52-.4 0 0-.02-.03-.03-.03 0 0 0-.02-.02-.03v-.02c-1-1.06-1-2.7 0-3.7 1-1.02 2.65-1 3.7 0l.02-.02c-.02-.02-.04-.03-.06-.05-1.06-1.05-1.1-2.74-.06-3.76 1.03-1.03 2.72-1 3.77.05.02 0 .04.04.06.06h.02c-1-1.08-1.02-2.72 0-3.73 1-1 2.64-1 3.7 0 .02 0 .03.03.04.04 0 0 .02 0 .03.02.06.06.1.14.17.2.04.07.1.1.13.17.03.05.06.1.1.15 1.4 2.2.48 5.9-2.33 8.7-1.93 1.94-4.3 3-6.3 3-.9 0-1.72-.23-2.4-.67"/></clipPath><clipPath id="c"><path d="M0 36h36V0H0v36z"/></clipPath><clipPath id="d"><path d="M3.36 35.08c-.05-.03-.1-.06-.15-.1-.05-.03-.1-.08-.15-.12-.07-.06-.15-.12-.22-.18 0 0 0-.02-.02-.03 0 0 0-.02-.03-.03-1-1.07-1-2.7 0-3.72 1-1 2.65-1 3.7 0h.03c-.02-.02-.05-.04-.07-.06-1.06-1.06-1.08-2.75-.05-3.77 1.02-1.03 2.7-1 3.77.05.02.02.03.05.05.07v-.02c-1-1.07-1-2.7 0-3.7 1.02-1.02 2.66-1 3.72 0 .02 0 .03 0 .04.02 0 0 0 .02.02.02.07.07.13.15.18.22.05.06.1.1.13.16.03.05.06.1.1.15 1.4 2.2.48 5.9-2.33 8.7-1.94 1.94-4.3 3-6.3 3-.9 0-1.73-.23-2.4-.67"/></clipPath></defs><g><g><g clip-path="url(#a)" transform="matrix(1.25 0 0 -1.25 0 45)"><g><path fill="#a7d28b" d="M11.48 25.76c-3.8-5.25-10.4-7.73-10.4-7.73-1.25-1.05-.2-2.28-.2-2.28L11.32 3.4s.52-.63 2.28-.2c0 0 6.62 2.48 10.4 7.73 3.9 5.4 10.93 7.12 10.93 7.12 1.24 1.04.2 2.28.2 2.28L24.68 32.7s-.54.6-2.3.18c0 0-7.02-1.7-10.92-7.12"/></g><g><path fill="#9aaab4" d="M14.28 28.7c-1-.82-1.98-1.8-2.8-2.94-.82-1.13-1.77-2.12-2.76-3L21.25 7.92c.98.88 1.94 1.88 2.75 3 .83 1.15 1.8 2.13 2.8 2.96L14.28 28.7z"/></g><g><path fill="#e1e8ed" d="M32.46 3.4c0 .02.02.03.02.03.07.07.13.15.2.22.03.06.07.1.1.16.05.06.08.1.1.16 1.43 2.2.5 5.9-2.3 8.7-2.82 2.82-6.53 3.75-8.72 2.33-.05-.04-.1-.07-.15-.1-.05-.04-.1-.1-.15-.13-.07-.06-.15-.12-.22-.18 0-.02 0-.03-.02-.04 0 0 0-.02-.03-.03-1-1.07-1-2.7 0-3.72 1-1 2.65-.98 3.72.02-.02-.03-.05-.05-.07-.07-1.05-1.06-1.08-2.75-.05-3.77 1.02-1.03 2.7-1 3.77.06.02.02.03.04.05.06-1-1.07-1-2.72 0-3.72 1.02-1 2.66-1 3.72 0 .02 0 .03.02.04.03"/></g></g></g><g><g clip-path="url(#b)" transform="matrix(1.25 0 0 -1.25 0 45)"><g><path fill="#ccd6dd" d="M20.54 13.28c.34-.96 2.38-2.8 4.67-1.1 0-.36-.32-2.1-1.95-3.1-1.62-1-3.46.28-3.54 2-.07 1.7.84 2.2.84 2.2"/></g><g><path fill="#ccd6dd" d="M24.17 10.15c.58-2.33 3.54-3.5 5.04-2.12-.28-.75-1.5-2.46-2.5-2.84-1-.38-4.78-.46-4.9.54-.13 1 2.37 4.4 2.37 4.4"/></g><g><path fill="#ccd6dd" d="M27.96 6.32c.17-.7 2.25-3.42 5.17-2.04.46-.75 1.8-2.8-1.46-2.75-3.25.04-6.13-.04-5.54 1.37.58 1.42 1.83 3.42 1.83 3.42"/></g></g></g><g><g clip-path="url(#c)" transform="matrix(1.25 0 0 -1.25 0 45)"><g><path fill="#67757f" d="M14.48 13.45c-1.56 1.84-4.85-1.15-5.8-.04-.45.55-.16 1.25.44 1.75 1 .85 1.73.36 2.2.74.3.26.3.6.1.83-.45.52-1.6.25-2.47-.26l-.43.5c-.27.33-.75.37-1.07.1-.3-.27-.35-.75-.1-1.07l.46-.53c-.67-.9-.9-2.1-.1-3.03 1.5-1.77 4.84 1.17 5.9-.07.35-.44.25-1.26-.52-1.9-1.14-.98-2.2-.52-2.65-.92-.23-.2-.27-.55-.03-.84.4-.45 1.62-.35 2.8.4 0 0 0-.02 0-.02l.5-.57c.27-.3.74-.35 1.06-.08.32.27.36.74.1 1.06l-.5.58c.78 1 1.05 2.28.12 3.4"/></g><g><path fill="#e1e8ed" d="M13.96 23.5s0 .02.02.02c.07.07.12.15.18.22.05.06.1.1.13.16.03.05.06.1.1.15 1.4 2.2.48 5.9-2.33 8.7-2.8 2.82-6.52 3.75-8.7 2.33-.06-.03-.1-.06-.16-.1-.05-.03-.1-.08-.15-.12-.07-.06-.15-.12-.22-.18 0 0 0-.02-.02-.03 0 0-.02-.02-.03-.03-1-1.07-1-2.7 0-3.72 1-1 2.65-1 3.72 0-.02-.02-.05-.04-.07-.06-1.06-1.06-1.08-2.75-.06-3.77 1.03-1.03 2.72-1 3.78.06.02.02.03.04.05.06v-.02c-1-1.06-1-2.7 0-3.7 1.02-1.02 2.66-1 3.72 0 .02 0 .02 0 .04.02"/></g></g></g><g><g clip-path="url(#d)" transform="matrix(1.25 0 0 -1.25 0 45)"><g><path fill="#ccd6dd" d="M2.04 33.4c.33-.95 2.38-2.78 4.67-1.07 0-.38-.33-2.13-1.95-3.13-1.63-1-3.46.3-3.54 2-.08 1.7.84 2.2.84 2.2"/></g><g><path fill="#ccd6dd" d="M5.67 30.28c.58-2.33 3.54-3.5 5.04-2.12-.28-.75-1.5-2.46-2.5-2.84-1-.37-4.78-.45-4.9.55-.13 1 2.37 4.4 2.37 4.4"/></g><g><path fill="#ccd6dd" d="M9.46 26.45c.17-.7 2.25-3.42 5.17-2.04.45-.74 1.8-2.78-1.46-2.74-3.25.04-6.13-.04-5.54 1.37.58 1.42 1.83 3.42 1.83 3.42"/></g></g></g></g></svg>