<svg xmlns="http://www.w3.org/2000/svg" viewBox="0 0 45 45" enable-background="new 0 0 45 45"><defs><clipPath id="a"><path d="M0 36h36V0H0v36z"/></clipPath></defs><g><g><g clip-path="url(#a)" transform="matrix(1.25 0 0 -1.25 0 45)"><g><path fill="#ccd6dd" d="M35 4c0-2.2-1.8-4-4-4H5C2.8 0 1 1.8 1 4v28c0 2.2 1.8 4 4 4h26c2.2 0 4-1.8 4-4V4z"/></g><path fill="#e1e8ed" d="M26 10h5V5h-5v5zm-7 0h5V5h-5v5zm-7 0h5V5h-5v5zm-7 0h5V5H5v5zm5 16H5v5h5v-5zm7 0h-5v5h5v-5zm7 0h-5v5h5v-5zm2 5h5v-5h-5v5zm0-7h5v-5h-5v5zm0-7h5v-5h-5v5zm-7 0h5v-5h-5v5zm-7 0h5v-5h-5v5zm-2-5H5v5h5v-5zm0 7H5v5h5v-5zm9 5h5v-5h-5v5zm-2-5h-5v5h5v-5zm15 14H4c-.55 0-1-.45-1-1V4c0-.55.45-1 1-1h28c.55 0 1 .45 1 1v28c0 .55-.45 1-1 1"/><g><path fill="#3b94d9" d="M31 3c-.72 0-1.4.4-1.77 1.07l-9.74 18.6-6.1-6.08c-.43-.46-1.06-.67-1.7-.58-.62.1-1.16.47-1.46 1.03l-7 13c-.53.97-.16 2.2.8 2.7 1 .53 2.2.17 2.72-.8L12.5 21.3l6.1 6.1c.44.46 1.07.67 1.7.58.63-.1 1.18-.5 1.47-1.05l11-21c.5-.98.14-2.2-.84-2.7-.3-.16-.62-.23-.93-.23"/></g></g></g></g></svg>