<svg xmlns="http://www.w3.org/2000/svg" viewBox="0 0 45 45" enable-background="new 0 0 45 45"><defs><clipPath id="a"><path d="M0 36h36V0H0v36z"/></clipPath></defs><g><g><g clip-path="url(#a)" transform="matrix(1.25 0 0 -1.25 0 45)"><g><path fill="#99aab5" d="M35.35 10.75c.22 2.4-.5 4.55-2.05 6.1L17.03 33.1c-.4.4-1.02.4-1.4 0-.4-.38-.4-1 0-1.4l16.25-16.27c1.12-1.1 1.64-2.7 1.48-4.5-.16-1.75-.96-3.46-2.2-4.7-1.22-1.22-2.92-2.02-4.67-2.17-1.8-.17-3.4.36-4.52 1.47L3.6 23.93c-.98.97-1.06 2.2-.95 3.05.15 1.2.75 2.4 1.66 3.3 1.7 1.7 4.62 2.46 6.37.7l14.85-14.84c1.12-1.12.02-2.8-.7-3.54-.74-.73-2.43-1.82-3.54-.7L9.96 23.2c-.4.4-1.02.4-1.4 0-.4-.38-.4-1 0-1.4l11.3-11.32c1.86-1.85 4.6-1.05 6.36.7 1.76 1.77 2.57 4.52.7 6.38L12.1 32.4c-2.62 2.62-6.8 1.68-9.2-.7C1.7 30.48.87 28.85.67 27.23c-.23-1.84.3-3.5 1.52-4.73l18.4-18.38c1.35-1.37 3.2-2.1 5.27-2.1.27 0 .54.02.82.04 2.2.2 4.36 1.2 5.92 2.77 1.54 1.55 2.55 3.7 2.75 5.92"/></g></g></g></g></svg>