<svg xmlns="http://www.w3.org/2000/svg" viewBox="0 0 36 36"><path fill="#CCD6DD" d="M35 32c0 2.209-1.791 4-4 4H5c-2.209 0-4-1.791-4-4V4c0-2.209 1.791-4 4-4h26c2.209 0 4 1.791 4 4v28z"/><path fill="#E1E8ED" d="M32 3H4c-.553 0-1 .448-1 1v28c0 .553.447 1 1 1h28c.553 0 1-.447 1-1V4c0-.552-.447-1-1-1zM17 17h-5v-5h5v5zm2-5h5v5h-5v-5zm-9 5H5v-5h5v5zm0 2v5H5v-5h5zm2 0h5v5h-5v-5zm7 0h5v5h-5v-5zm7 0h5v5h-5v-5zm0-2v-5h5v5h-5zm0-7V5h5v5h-5zm-2 0h-5V5h5v5zm-7 0h-5V5h5v5zm-7 0H5V5h5v5zM5 26h5v5H5v-5zm7 0h5v5h-5v-5zm7 0h5v5h-5v-5zm7 0h5v5h-5v-5z"/><path fill="#DD2E44" d="M4.998 33c-.32 0-.645-.076-.946-.239-.973-.523-1.336-1.736-.813-2.709l7-13c.299-.557.845-.939 1.47-1.031.626-.092 1.258.118 1.705.565l6.076 6.076 9.738-18.59c.512-.978 1.721-1.357 2.699-.843.979.512 1.356 1.721.844 2.7l-11 21c-.295.564-.841.953-1.47 1.05-.627.091-1.266-.113-1.716-.563l-6.1-6.099-5.724 10.631C6.4 32.619 5.71 33 4.998 33z"/></svg>