<svg xmlns="http://www.w3.org/2000/svg" viewBox="0 0 45 45" enable-background="new 0 0 45 45"><defs><clipPath id="a"><path d="M0 36h36V0H0v36z"/></clipPath></defs><g><g><g clip-path="url(#a)" transform="matrix(1.25 0 0 -1.25 0 45)"><g><path fill="#292f33" d="M32 23H4c-2.2 0-4-1.8-4-4v-2c0-2.2 1.8-4 4-4V4c0-2.2 1.8-4 4-4h20c2.2 0 4 1.8 4 4v9c2.2 0 4 1.8 4 4v2c0 2.2-1.8 4-4 4"/></g><g><path fill="#ccd6dd" d="M30 21c0-1.1-.9-2-2-2H8c-1.1 0-2 .9-2 2v13c0 1.1.9 2 2 2h20c1.1 0 2-.9 2-2V21z"/></g><g><path fill="#55acee" d="M18 23c0-.55-.45-1-1-1H9c-.55 0-1 .45-1 1v10c0 .55.45 1 1 1h8c.55 0 1-.45 1-1V23z"/></g><g><path fill="#ccd6dd" d="M30 4c0-1.1-.9-2-2-2H8c-1.1 0-2 .9-2 2v11c0 1.1.9 2 2 2h20c1.1 0 2-.9 2-2V4z"/></g><g><path fill="#66757f" d="M28 32c0-.55-.45-1-1-1h-6c-.55 0-1 .45-1 1s.45 1 1 1h6c.55 0 1-.45 1-1"/></g><g><path fill="#66757f" d="M28 28c0-.55-.45-1-1-1h-6c-.55 0-1 .45-1 1s.45 1 1 1h6c.55 0 1-.45 1-1"/></g><g><path fill="#66757f" d="M28 24c0-.55-.45-1-1-1h-6c-.55 0-1 .45-1 1s.45 1 1 1h6c.55 0 1-.45 1-1"/></g><g><path fill="#99aab5" d="M14 16c0-.55-.45-1-1-1s-1 .45-1 1v4c0 .55.45 1 1 1s1-.45 1-1v-4z"/></g><g><path fill="#99aab5" d="M24 16c0-.55-.45-1-1-1s-1 .45-1 1v4c0 .55.45 1 1 1s1-.45 1-1v-4z"/></g></g></g></g></svg>