<svg xmlns="http://www.w3.org/2000/svg" viewBox="0 0 45 45" enable-background="new 0 0 45 45"><defs><clipPath id="a"><path d="M0 36h36V0H0v36z"/></clipPath><clipPath id="b"><path d="M2 18C2 9.16 9.16 2 18 2s16 7.16 16 16-7.16 16-16 16S2 26.84 2 18m11.23 0c0 2.63 2.14 4.76 4.77 4.76 2.63 0 4.77-2.13 4.77-4.76s-2.14-4.77-4.77-4.77c-2.63 0-4.76 2.14-4.76 4.77"/></clipPath></defs><g><g><g clip-path="url(#a)" transform="matrix(1.25 0 0 -1.25 0 45)"><g><path fill="#ffd983" d="M18 21c-1.66 0-3-1.34-3-3s1.34-3 3-3 3 1.34 3 3-1.34 3-3 3m18-3c0-9.94-8.06-18-18-18S0 8.06 0 18s8.06 18 18 18 18-8.06 18-18"/></g></g></g><g><g clip-path="url(#b)" transform="matrix(1.25 0 0 -1.25 0 45)"><g><path fill="#ffac33" d="M18 18L0 20v16h16l2-18z"/></g><g><path fill="#ffac33" d="M18 18l18-2V0H20l-2 18z"/></g><g><path fill="#ffe8b6" d="M18 18l2.12-19L36 0 18 18z"/></g><g><path fill="#ffe8b6" d="M18 18L0 36l16 1 2-19z"/></g></g></g></g></svg>