<svg xmlns="http://www.w3.org/2000/svg" viewBox="0 0 45 45" enable-background="new 0 0 45 45"><defs><clipPath id="a"><path d="M0 36h36V0H0v36z"/></clipPath></defs><g><g><g clip-path="url(#a)" transform="matrix(1.25 0 0 -1.25 0 45)"><g><path fill="#ccd6dd" d="M35 4c0-2.2-1.8-4-4-4H5C2.8 0 1 1.8 1 4v28c0 2.2 1.8 4 4 4h26c2.2 0 4-1.8 4-4V4z"/></g><path fill="#e1e8ed" d="M26 10h5V5h-5v5zm-7 0h5V5h-5v5zm-7 0h5V5h-5v5zm-7 0h5V5H5v5zm5 16H5v5h5v-5zm7 0h-5v5h5v-5zm7 0h-5v5h5v-5zm2 5h5v-5h-5v5zm0-7h5v-5h-5v5zm0-7h5v-5h-5v5zm-7 0h5v-5h-5v5zm-7 0h5v-5h-5v5zm-2-5H5v5h5v-5zm0 7H5v5h5v-5zm9 5h5v-5h-5v5zm-2-5h-5v5h5v-5zm15 14H4c-.55 0-1-.45-1-1V4c0-.55.45-1 1-1h28c.55 0 1 .45 1 1v28c0 .55-.45 1-1 1"/><g><path fill="#dd2e44" d="M5 3c-.32 0-.65.08-.95.24-.97.52-1.33 1.74-.8 2.7l7 13c.3.56.83.95 1.46 1.04.64.1 1.27-.12 1.7-.57l6.1-6.06 9.73 18.6c.5.97 1.72 1.34 2.7.83.98-.5 1.35-1.72.84-2.7l-11-21c-.3-.56-.84-.95-1.47-1.05-.63-.1-1.26.12-1.7.57l-6.1 6.1L6.75 4.04C6.4 3.38 5.7 3 5 3"/></g></g></g></g></svg>