<svg xmlns="http://www.w3.org/2000/svg" viewBox="0 0 45 45" enable-background="new 0 0 45 45"><defs><clipPath id="a"><path d="M0 36h36V0H0v36z"/></clipPath></defs><g><g><g clip-path="url(#a)" transform="matrix(1.25 0 0 -1.25 0 45)"><g><path fill="#ffcc4d" d="M30.02 1.74c-1.56-1.57-4.1-1.57-5.66 0L1.74 24.36c-1.57 1.57-1.57 4.1 0 5.66l4.24 4.24c1.56 1.57 4.1 1.57 5.66 0l22.62-22.62c1.57-1.57 1.57-4.1 0-5.66l-4.24-4.24z"/></g><g><path fill="#292f33" d="M9.5 29.3c-.38-.38-1-.38-1.4 0-.4.4-.4 1.04 0 1.43l3.54 3.53c.48-.48.92-.92 1.4-1.4L9.52 29.3z"/></g><g><path fill="#292f33" d="M15.17 27.9c-.4-.4-1.02-.4-1.4 0-.4.4-.4 1.02 0 1.4l1.4 1.43c.5-.5.93-.93 1.42-1.42l-1.43-1.4z"/></g><g><path fill="#292f33" d="M16.6 22.24c-.4-.4-1.04-.4-1.43 0-.4.4-.4 1.03 0 1.42l3.54 3.53c.5-.5.94-.94 1.42-1.42l-3.53-3.54z"/></g><g><path fill="#292f33" d="M22.24 20.83c-.4-.4-1.02-.4-1.4 0-.4.4-.4 1.02 0 1.4l1.4 1.43c.5-.5.93-.93 1.42-1.42l-1.42-1.4z"/></g><g><path fill="#292f33" d="M23.66 15.17c-.4-.4-1.03-.4-1.42 0-.4.4-.4 1.02 0 1.42l3.54 3.52c.48-.5.93-.93 1.4-1.4l-3.52-3.55z"/></g><g><path fill="#292f33" d="M30.73 8.1c-.4-.4-1.03-.4-1.42 0-.38.4-.38 1.02 0 1.4l3.55 3.55c.48-.5.93-.93 1.4-1.4L30.74 8.1z"/></g><g><path fill="#292f33" d="M29.3 13.76c-.38-.4-1-.4-1.4 0-.4.4-.4 1.02 0 1.4l1.4 1.42c.5-.48.94-.92 1.43-1.4l-1.42-1.42z"/></g></g></g></g></svg>