<svg xmlns="http://www.w3.org/2000/svg" viewBox="0 0 45 45" enable-background="new 0 0 45 45"><defs><clipPath id="a"><path d="M0 36h36V0H0v36z"/></clipPath></defs><g><g><g clip-path="url(#a)" transform="matrix(1.25 0 0 -1.25 0 45)"><g><path fill="#e0e7ec" d="M36 4c0-2.2-1.8-4-4-4H4C1.8 0 0 1.8 0 4v23c0 2.2 1.8 4 4 4h28c2.2 0 4-1.8 4-4V4z"/></g><g><path fill="#dd2f45" d="M34 36h-3.28c.18-.3.28-.63.28-1 0-1.1-.9-2-2-2s-2 .9-2 2c0 .37.1.7.28 1H8.72c.18-.3.28-.63.28-1 0-1.1-.9-2-2-2s-2 .9-2 2c0 .37.1.7.28 1H2c-1.1 0-2-.9-2-2V23h36v11c0 1.1-.9 2-2 2"/></g><g><path fill="#66757f" d="M23.7 17h-.5c-1.1 0-1.55.73-1.55 1.5 0 .8.57 1.5 1.54 1.5h2c.97 0 1.52-.7 1.52-1.6V5.53c0-1.13-.56-1.76-1.53-1.76-.98 0-1.5.63-1.5 1.76V17z"/></g><g><path fill="#f3aab9" d="M32 26c0-.55.45-1 1-1s1 .45 1 1-.45 1-1 1-1-.45-1-1"/></g><g><path fill="#f3aab9" d="M32 29c0-.55.45-1 1-1s1 .45 1 1-.45 1-1 1-1-.45-1-1"/></g><g><path fill="#f3aab9" d="M29 26c0-.55.45-1 1-1s1 .45 1 1-.45 1-1 1-1-.45-1-1"/></g><g><path fill="#f3aab9" d="M29 29c0-.55.45-1 1-1s1 .45 1 1-.45 1-1 1-1-.45-1-1"/></g><g><path fill="#f3aab9" d="M26 26c0-.55.45-1 1-1s1 .45 1 1-.45 1-1 1-1-.45-1-1"/></g><g><path fill="#f3aab9" d="M26 29c0-.55.45-1 1-1s1 .45 1 1-.45 1-1 1-1-.45-1-1"/></g><g><path fill="#fff" d="M2.47 31.06c0 .44.34.78.78.78h.17c.34 0 .57-.17.72-.4l1.9-3.08 1.9 3.1c.15.25.37.38.7.38h.16c.44 0 .78-.34.78-.78V25.4c0-.43-.34-.77-.78-.77-.43 0-.77.35-.77.78v3.56l-1.37-2.12c-.17-.24-.37-.4-.65-.4s-.48.16-.65.4L4 28.94v-3.55c0-.44-.34-.77-.77-.77s-.76.33-.76.76v5.66z"/></g><g><path fill="#fff" d="M14.8 27.67l-1 2.34-.98-2.33h1.97zm-4.4-1.98l2.47 5.6c.17.38.5.6.9.6h.1c.43 0 .74-.22.9-.6l2.5-5.6c.04-.12.07-.22.07-.32 0-.42-.32-.75-.74-.75-.37 0-.6.2-.75.54l-.48 1.1h-3.13l-.5-1.16c-.13-.3-.4-.47-.72-.47-.4 0-.72.32-.72.73 0 .1.04.22.1.33"/></g><g><path fill="#fff" d="M21.22 28.35c.76 0 1.2.4 1.2 1v.02c0 .67-.47 1.02-1.23 1.02h-1.57v-2.05h1.6zm-3.15 2.67c0 .44.34.78.78.78h2.47c.9 0 1.6-.25 2.07-.72.4-.4.6-.95.6-1.63v-.02c0-1.1-.56-1.8-1.42-2.16l1.1-1.32c.14-.2.24-.36.24-.6 0-.44-.36-.72-.74-.72-.36 0-.6.17-.77.4l-1.52 1.93h-1.25V25.4c0-.43-.34-.77-.78-.77s-.78.34-.78.78v5.62z"/></g><g><path fill="#66757f" d="M8.8 7.2l4.54 3.7c2 1.63 2.76 2.52 2.76 3.85 0 1.34-.9 2.07-2.14 2.07-1 0-1.7-.43-2.6-1.4-.23-.24-.64-.5-1.2-.5-.88 0-1.6.72-1.6 1.6 0 .4.17.8.42 1.1 1.28 1.5 2.8 2.35 5.2 2.35 3.32 0 5.5-1.94 5.5-4.93V15c0-2.67-1.36-4-4.2-6.2l-2.6-2h5.57c.85 0 1.53-.68 1.53-1.53 0-.84-.68-1.5-1.53-1.5H9.78c-1.1 0-1.9.6-1.9 1.66 0 .7.33 1.28.92 1.76"/></g></g></g></g></svg>