<svg xmlns="http://www.w3.org/2000/svg" viewBox="0 0 45 45" enable-background="new 0 0 45 45"><defs><clipPath id="a"><path d="M0 36h36V0H0v36z"/></clipPath></defs><g><g><g clip-path="url(#a)" transform="matrix(1.25 0 0 -1.25 0 45)"><g><path fill="#e1e8ed" d="M32.41 26.4h.02l-9 9c-.37.38-.87.6-1.42.6-1.1 0-2-.9-2-2 0-.55.22-1.05.6-1.4l-3.87-3.87 9-9 3.86 3.86c.35-.38.85-.6 1.4-.6 1.1 0 2 .9 2 2 0 .55-.22 1.05-.6 1.4"/></g><g><path fill="#ccd6dd" d="M22 36H7c-2.2 0-4-1.8-4-4V4c0-2.2 1.8-4 4-4h22c2.2 0 4 1.8 4 4v21h-9c-1 0-2 1-2 2v9z"/></g><g><path fill="#99aab5" d="M22 36h-2v-9c0-2.2 1.8-4 4-4h9v2h-9c-1 0-2 1-2 2v9z"/></g><g><path fill="#99aab5" d="M17 28c0-.55-.45-1-1-1H8c-.55 0-1 .45-1 1s.45 1 1 1h8c.55 0 1-.45 1-1"/></g><g><path fill="#99aab5" d="M17 24c0-.55-.45-1-1-1H8c-.55 0-1 .45-1 1s.45 1 1 1h8c.55 0 1-.45 1-1"/></g><g><path fill="#99aab5" d="M29 20c0-.55-.45-1-1-1H8c-.55 0-1 .45-1 1s.45 1 1 1h20c.55 0 1-.45 1-1"/></g><g><path fill="#99aab5" d="M29 16c0-.55-.45-1-1-1H8c-.55 0-1 .45-1 1s.45 1 1 1h20c.55 0 1-.45 1-1"/></g><g><path fill="#99aab5" d="M29 12c0-.55-.45-1-1-1H8c-.55 0-1 .45-1 1s.45 1 1 1h20c.55 0 1-.45 1-1"/></g><g><path fill="#99aab5" d="M29 8c0-.55-.45-1-1-1H8c-.55 0-1 .45-1 1s.45 1 1 1h20c.55 0 1-.45 1-1"/></g></g></g></g></svg>