<svg xmlns="http://www.w3.org/2000/svg" viewBox="0 0 45 45" enable-background="new 0 0 45 45"><defs><clipPath id="a"><path d="M0 36h36V0H0v36z"/></clipPath></defs><g><g><g clip-path="url(#a)" transform="matrix(1.25 0 0 -1.25 0 45)"><g><path fill="#269" d="M0 7c0-2.2 1.8-4 4-4h24c2.2 0 4 1.8 4 4v17c0 2.2-1.8 4-4 4h-9c-3.56 0-3 5-8.44 5H4c-2.2 0-4-1.8-4-4V7z"/></g><g><path fill="#55acee" d="M32.34 24h-6.57c-5.43 0-5.38-5-8.94-5h-9c-2.2 0-4.18-1.8-4.4-4l-.5-3.87L2.4 7c-.13-.6-.7-1-1.3-1C.43 6-.03 6.5 0 7.15c0-.05 0-.1 0-.15 0-2 1.48-3.65 3.4-3.94.18-.04.37-.06.6-.06h26c2.2 0 4.18 1.8 4.4 4l1.53 13c.22 2.2-1.4 4-3.6 4"/></g></g></g></g></svg>