<svg xmlns="http://www.w3.org/2000/svg" viewBox="0 0 36 36"><path fill="#CCD6DD" d="M35 32c0 2.209-1.791 4-4 4H5c-2.209 0-4-1.791-4-4V4c0-2.209 1.791-4 4-4h26c2.209 0 4 1.791 4 4v28z"/><path fill="#E1E8ED" d="M32 3H4c-.553 0-1 .448-1 1v28c0 .553.447 1 1 1h28c.553 0 1-.447 1-1V4c0-.552-.447-1-1-1zM17 17h-5v-5h5v5zm2-5h5v5h-5v-5zm-9 5H5v-5h5v5zm0 2v5H5v-5h5zm2 0h5v5h-5v-5zm7 0h5v5h-5v-5zm7 0h5v5h-5v-5zm0-2v-5h5v5h-5zm0-7V5h5v5h-5zm-2 0h-5V5h5v5zm-7 0h-5V5h5v5zm-7 0H5V5h5v5zM5 26h5v5H5v-5zm7 0h5v5h-5v-5zm7 0h5v5h-5v-5zm7 0h5v5h-5v-5z"/><path fill="#3B94D9" d="M31.002 33c-.721 0-1.416-.39-1.774-1.072l-9.738-18.59-6.076 6.076c-.446.447-1.076.66-1.705.564-.626-.092-1.171-.474-1.47-1.03l-7-13c-.524-.973-.16-2.186.813-2.709.975-.523 2.186-.16 2.709.812l5.726 10.633 6.1-6.099c.45-.45 1.089-.659 1.716-.563.629.096 1.175.485 1.47 1.049l11 21c.513.979.135 2.187-.844 2.699-.297.157-.614.23-.927.23z"/></svg>