<svg xmlns="http://www.w3.org/2000/svg" viewBox="0 0 36 36"><path fill="#CCD6DD" d="M35 32c0 2.209-1.791 4-4 4H5c-2.209 0-4-1.791-4-4V4c0-2.209 1.791-4 4-4h26c2.209 0 4 1.791 4 4v28z"/><path fill="#E1E8ED" d="M32 3H4c-.553 0-1 .448-1 1v28c0 .553.447 1 1 1h28c.553 0 1-.447 1-1V4c0-.552-.447-1-1-1zM17 17h-5v-5h5v5zm2-5h5v5h-5v-5zm-9 5H5v-5h5v5zm0 2v5H5v-5h5zm2 0h5v5h-5v-5zm7 0h5v5h-5v-5zm7 0h5v5h-5v-5zm0-2v-5h5v5h-5zm0-7V5h5v5h-5zm-2 0h-5V5h5v5zm-7 0h-5V5h5v5zm-7 0H5V5h5v5zM5 26h5v5H5v-5zm7 0h5v5h-5v-5zm7 0h5v5h-5v-5zm7 0h5v5h-5v-5z"/><path fill="#5C913B" d="M14 31c0 1.104-.896 2-2 2h-2c-1.104 0-2-.896-2-2V16c0-1.104.896-2 2-2h2c1.104 0 2 .896 2 2v15z"/><path fill="#9266CC" d="M28 31c0 1.104-.896 2-2 2h-2c-1.104 0-2-.896-2-2V9c0-1.104.896-2 2-2h2c1.104 0 2 .896 2 2v22z"/><path fill="#DD2E44" d="M21 31c0 1.104-.896 2-2 2h-2c-1.104 0-2-.896-2-2v-8c0-1.104.896-2 2-2h2c1.104 0 2 .896 2 2v8z"/></svg>