<svg xmlns="http://www.w3.org/2000/svg" viewBox="0 0 45 45" enable-background="new 0 0 45 45"><defs><clipPath id="a"><path d="M0 36h36V0H0v36z"/></clipPath></defs><g><g><g clip-path="url(#a)" transform="matrix(1.25 0 0 -1.25 0 45)"><g><path fill="#292f33" d="M35 4c0-2.2-1.8-4-4-4H5C2.8 0 1 1.8 1 4v24c0 2.2 1.8 4 4 4h26c2.2 0 4-1.8 4-4V4z"/></g><g><path fill="#e1e8ed" d="M33 4c0-1.1-.9-2-2-2H5c-1.1 0-2 .9-2 2v20c0 1.1.9 2 2 2h26c1.1 0 2-.9 2-2V4z"/></g><g><path fill="#dd2e44" d="M33 20H3v8c0 1.1.9 2 2 2h26c1.1 0 2-.9 2-2v-8z"/></g><g><path fill="#99aab5" d="M11 29c0-.55-.45-1-1-1s-1 .45-1 1v6c0 .55.45 1 1 1s1-.45 1-1v-6z"/></g><g><path fill="#99aab5" d="M27 29c0-.55-.45-1-1-1s-1 .45-1 1v6c0 .55.45 1 1 1s1-.45 1-1v-6z"/></g><g><path fill="#fff" d="M8.3 26.7c0 .4.3.7.7.7h.16c.3 0 .5-.14.64-.35l1.7-2.77 1.7 2.77c.15.24.35.36.64.36H14c.4 0 .7-.3.7-.7v-5.07c0-.4-.3-.7-.7-.7-.4 0-.7.3-.7.7v3.2l-1.24-1.92c-.14-.2-.32-.34-.58-.34-.26 0-.44.13-.6.35l-1.2 1.9v-3.2c0-.38-.3-.68-.7-.68-.38 0-.68.3-.68.7v5.1z"/></g><g><path fill="#fff" d="M19.38 23.66l-.88 2.1-.9-2.1h1.78zm-3.96-1.78l2.24 5.04c.15.35.43.56.82.56h.08c.38 0 .66-.2.8-.56l2.24-5.04c.05-.1.08-.2.08-.28 0-.38-.3-.68-.67-.68-.32 0-.54.2-.67.5l-.43 1h-2.8l-.46-1.06c-.12-.27-.36-.44-.65-.44-.37 0-.66.3-.66.66 0 .1.04.2.08.3"/></g><g><path fill="#fff" d="M25.16 24.27c.7 0 1.08.36 1.08.9v.02c0 .6-.42.9-1.1.9h-1.4v-1.83h1.42zm-2.83 2.4c0 .4.3.7.7.7h2.23c.8 0 1.44-.22 1.86-.64.36-.36.55-.86.55-1.47 0-1.02-.5-1.64-1.28-1.96l.97-1.2c.13-.16.23-.3.23-.53 0-.4-.33-.65-.67-.65-.32 0-.53.16-.7.37L24.86 23h-1.12v-1.4c0-.4-.3-.7-.7-.7-.4 0-.7.3-.7.7v5.05z"/></g><g><path fill="#66757f" d="M23.48 15.62h-.45c-.98 0-1.4.66-1.4 1.35 0 .72.52 1.35 1.4 1.35h1.8c.88 0 1.37-.63 1.37-1.44V5.3c0-1-.5-1.58-1.37-1.58-.88 0-1.35.57-1.35 1.6v10.3z"/></g><g><path fill="#66757f" d="M10.1 6.8l4.07 3.35c1.8 1.46 2.5 2.26 2.5 3.45 0 1.2-.82 1.87-1.94 1.87-.9 0-1.54-.4-2.34-1.26-.22-.2-.6-.44-1.08-.44-.8 0-1.44.64-1.44 1.44 0 .35.14.72.37.98 1.15 1.34 2.5 2.12 4.68 2.12 2.98 0 4.95-1.75 4.95-4.44v-.04c0-2.4-1.23-3.6-3.78-5.56l-2.34-1.8h5c.77 0 1.4-.62 1.4-1.38 0-.76-.63-1.36-1.4-1.36h-7.8c-.98 0-1.7.56-1.7 1.5 0 .62.3 1.15.83 1.58"/></g></g></g></g></svg>