<svg xmlns="http://www.w3.org/2000/svg" viewBox="0 0 45 45" enable-background="new 0 0 45 45"><defs><clipPath id="a"><path d="M0 36h36V0H0v36z"/></clipPath></defs><g><g><g clip-path="url(#a)" transform="matrix(1.25 0 0 -1.25 0 45)"><g><path fill="#292f33" d="M22 1.5C22 .67 20.2 0 18 0s-4 .67-4 1.5S15.8 3 18 3s4-.67 4-1.5"/></g><g><path fill="#99aab5" d="M14.34 25.27S16.9 1 18 1c1.1 0 3.66 24.27 3.66 24.27h-7.32z"/></g><g><path fill="#dd2e44" d="M26 28c0-4.42-3.58-8-8-8s-8 3.58-8 8 3.58 8 8 8 8-3.58 8-8"/></g></g></g></g></svg>