<svg xmlns="http://www.w3.org/2000/svg" viewBox="0 0 45 45" enable-background="new 0 0 45 45"><defs><clipPath id="a"><path d="M0 36h36V0H0v36z"/></clipPath></defs><g><g><g clip-path="url(#a)" transform="matrix(1.25 0 0 -1.25 0 45)"><g><path fill="#ccd6dd" d="M28 4c0-2.2-1.8-4-4-4H4C1.8 0 0 1.88 0 8v24c0 2.2 1.8 4 4 4h20c2.2 0 4-1.8 4-4V4z"/></g><g><path fill="#e1e8ed" d="M31 0H4c4 0 4 8 4 8 0 2.2 1.8 4 4 4h20c2.2 0 4-2 4-4 0 0 .25-8-5-8"/></g><g><path fill="#99aab5" d="M24 29c0-.55-.45-1-1-1H5c-.55 0-1 .45-1 1s.45 1 1 1h18c.55 0 1-.45 1-1"/></g><g><path fill="#99aab5" d="M24 25c0-.55-.45-1-1-1H5c-.55 0-1 .45-1 1s.45 1 1 1h18c.55 0 1-.45 1-1"/></g><g><path fill="#99aab5" d="M24 21c0-.55-.45-1-1-1H5c-.55 0-1 .45-1 1s.45 1 1 1h18c.55 0 1-.45 1-1"/></g><g><path fill="#99aab5" d="M24 17c0-.55-.45-1-1-1H5c-.55 0-1 .45-1 1s.45 1 1 1h18c.55 0 1-.45 1-1"/></g></g></g></g></svg>