<svg xmlns="http://www.w3.org/2000/svg" viewBox="0 0 45 45" enable-background="new 0 0 45 45"><defs><clipPath id="a"><path d="M0 36h36V0H0v36z"/></clipPath></defs><g><g><g clip-path="url(#a)" transform="matrix(1.25 0 0 -1.25 0 45)"><g><path fill="#e1e8ed" d="M30.41 26.4h.02l-9 9c-.37.38-.87.6-1.42.6-1.1 0-2-.9-2-2 0-.55.22-1.05.6-1.4l-3.87-3.87 9-9 3.86 3.86c.35-.38.85-.6 1.4-.6 1.1 0 2 .9 2 2 0 .55-.22 1.05-.6 1.4"/></g><g><path fill="#ccd6dd" d="M20 36H5c-2.2 0-4-1.8-4-4V4c0-2.2 1.8-4 4-4h22c2.2 0 4 1.8 4 4v21h-9c-1 0-2 1-2 2v9z"/></g><g><path fill="#99aab5" d="M20 36h-2v-9c0-2.2 1.8-4 4-4h9v2h-9c-1 0-2 1-2 2v9z"/></g><g><path fill="#99aab5" d="M15 28c0-.55-.45-1-1-1H6c-.55 0-1 .45-1 1s.45 1 1 1h8c.55 0 1-.45 1-1"/></g><g><path fill="#99aab5" d="M15 24c0-.55-.45-1-1-1H6c-.55 0-1 .45-1 1s.45 1 1 1h8c.55 0 1-.45 1-1"/></g><g><path fill="#99aab5" d="M27 20c0-.55-.45-1-1-1H6c-.55 0-1 .45-1 1s.45 1 1 1h20c.55 0 1-.45 1-1"/></g><g><path fill="#99aab5" d="M27 16c0-.55-.45-1-1-1H6c-.55 0-1 .45-1 1s.45 1 1 1h20c.55 0 1-.45 1-1"/></g><g><path fill="#99aab5" d="M27 12c0-.55-.45-1-1-1H6c-.55 0-1 .45-1 1s.45 1 1 1h20c.55 0 1-.45 1-1"/></g><g><path fill="#99aab5" d="M27 8c0-.55-.45-1-1-1H6c-.55 0-1 .45-1 1s.45 1 1 1h20c.55 0 1-.45 1-1"/></g><g><path fill="#66757f" d="M31 17s-5.9 0-5.93 0c-.3 0-.9-.17-1.26-.6l-2.32-2.94c-.64-.8-.64-2.1 0-2.93L23.8 7.6c.35-.43.97-.6 1.26-.6.02 0 3.55 0 5.94 0v10z"/></g><g><path fill="#744eaa" d="M33 17s-8.06 0-8.08 0c-.3 0-.9-.14-1.26-.48l-2.33-2.35c-.64-.64-.64-1.7 0-2.34l2.33-2.34c.35-.36.96-.5 1.26-.5C24.94 9 33 9 33 9c1.1 0 2 .9 2 2v4c0 1.1-.9 2-2 2"/></g></g></g></g></svg>