<svg xmlns="http://www.w3.org/2000/svg" viewBox="0 0 45 45" enable-background="new 0 0 45 45"><defs><clipPath id="a"><path d="M0 36h36V0H0v36z"/></clipPath></defs><g><g><g clip-path="url(#a)" transform="matrix(1.25 0 0 -1.25 0 45)"><g><path fill="#f4900c" d="M36 10c0-2.2-1.8-4-4-4H8c-2.2 0-4 1.8-4 4v19.7c0 2.2 5.8 6.3 8 6.3h18.63c3.1 0 5.37-2.3 5.37-5.38V10z"/></g><g><path fill="#ccd6dd" d="M34 6c0-2.2-1.8-4-4-4H10C7.8 2 6 3.8 6 6v24c0 4.12-.02 4 5 4h19c2.2 0 4-1.8 4-4V6z"/></g><g><path fill="#e1e8ed" d="M32 5c0-1.66-1.34-3-3-3H7C5.34 2 4 3.34 4 5v24c0 1.66 1.34 3 3 3h22c1.66 0 3-1.34 3-3V5z"/></g><g><path fill="#ffac33" d="M32 4c0-2.2-1.8-4-4-4H9C6.8 0 5 1.8 5 4v22c0 2.2 1.8 4 4 4h19c2.2 0 4-1.8 4-4V4z"/></g><g><path fill="#ffcc4d" d="M30 4c0-2.2-1.8-4-4-4H9C6.8 0 5 1.8 5 4v20c0 2.2 1.8 4 4 4h17.34c2.2 0 3.66-1.46 3.66-3.66V4z"/></g><g><path fill="#f4900c" d="M9 30c-1.7 0-1.73 1.92-1 2.75.83.94 2.13 1.25 4.44 1.25H14v2h-2.72C7.3 36 4 33.5 4 30.62V4c0-2.2 1.8-4 4-4h2v30H9z"/></g><g><path fill="#662113" d="M8.54 3.02c0-.7-.67-1.27-1.5-1.27-.8 0-1.48.57-1.48 1.27 0 .7.67 1.27 1.5 1.27.8 0 1.48-.58 1.48-1.28"/></g><g><path fill="#66757f" d="M6.9 3.73c-.5-.06-.8-.38-1.02-.73-.3-.5-1-1-1.88-1-1.1 0-2 .67-2 1.5S2.9 5 4 5v2C1.83 6.98.08 5.42.08 3.5.08 1.57 1.86 0 4.04 0 5.9 0 7.4 1.04 7.94 2.57c.28.76-.47 1.22-1.05 1.16"/></g><g><path fill="#662113" d="M8.54 11.02c0-.7-.67-1.27-1.5-1.27-.8 0-1.48.57-1.48 1.27 0 .7.67 1.27 1.5 1.27.8 0 1.48-.58 1.48-1.28"/></g><g><path fill="#66757f" d="M6.9 11.73c-.5-.06-.8-.38-1.02-.73-.3-.5-1-1-1.88-1-1.1 0-2 .67-2 1.5S2.9 13 4 13v2C1.83 14.98.08 13.42.08 11.5.08 9.57 1.86 8 4.04 8c1.86 0 3.35 1.04 3.9 2.57.28.76-.47 1.22-1.05 1.16"/></g><g><path fill="#662113" d="M8.54 19.02c0-.7-.67-1.27-1.5-1.27-.8 0-1.48.57-1.48 1.27 0 .7.67 1.27 1.5 1.27.8 0 1.48-.58 1.48-1.28"/></g><g><path fill="#66757f" d="M6.9 19.73c-.5-.06-.8-.38-1.02-.73-.3-.5-1-1-1.88-1-1.1 0-2 .67-2 1.5S2.9 21 4 21v2C1.83 22.98.08 21.42.08 19.5c0-1.93 1.78-3.5 3.96-3.5 1.86 0 3.35 1.04 3.9 2.57.28.76-.47 1.22-1.05 1.16"/></g><g><path fill="#662113" d="M8.54 27.02c0-.7-.67-1.27-1.5-1.27-.8 0-1.48.57-1.48 1.27 0 .7.67 1.27 1.5 1.27.8 0 1.48-.58 1.48-1.28"/></g><g><path fill="#66757f" d="M6.9 27.73c-.5-.06-.8-.38-1.02-.73-.3-.5-1-1-1.88-1-1.1 0-2 .67-2 1.5S2.9 29 4 29v2C1.83 30.98.08 29.42.08 27.5c0-1.93 1.78-3.5 3.96-3.5 1.86 0 3.35 1.04 3.9 2.57.28.76-.47 1.22-1.05 1.16"/></g></g></g></g></svg>