<svg xmlns="http://www.w3.org/2000/svg" viewBox="0 0 45 45" enable-background="new 0 0 45 45"><defs><clipPath id="a"><path d="M0 36h36V0H0v36z"/></clipPath></defs><g><g><g clip-path="url(#a)" transform="matrix(1.25 0 0 -1.25 0 45)"><g><path fill="#ffd983" d="M32 36H10c-2.2 0-4-1.8-4-4V8H4C1.8 8 0 6.2 0 4s1.8-4 4-4h24c2.2 0 4 1.8 4 4v24c2.2 0 4 1.8 4 4s-1.8 4-4 4"/></g><g><path fill="#e39f3d" d="M8 26h24v2H10l-2 1v-3z"/></g><g><path fill="#ffe8b6" d="M10 36c-2.2 0-4-1.8-4-4V7.45C5.4 7.8 4.73 8 4 8 1.8 8 0 6.2 0 4s1.8-4 4-4 4 1.8 4 4v24.55c.6-.34 1.27-.55 2-.55 2.2 0 4 1.8 4 4s-1.8 4-4 4"/></g><g><path fill="#c1694f" d="M12 32c0-1.1-.9-2-2-2s-2 .9-2 2 .9 2 2 2 2-.9 2-2"/></g><g><path fill="#c1694f" d="M6 4c0-1.1-.9-2-2-2s-2 .9-2 2 .9 2 2 2 2-.9 2-2"/></g><g><path fill="#c1694f" d="M30 21c0-.55-.45-1-1-1H11c-.55 0-1 .45-1 1s.45 1 1 1h18c.55 0 1-.45 1-1"/></g><g><path fill="#c1694f" d="M30 17c0-.55-.45-1-1-1H11c-.55 0-1 .45-1 1s.45 1 1 1h18c.55 0 1-.45 1-1"/></g><g><path fill="#c1694f" d="M30 13c0-.55-.45-1-1-1H11c-.55 0-1 .45-1 1s.45 1 1 1h18c.55 0 1-.45 1-1"/></g><g><path fill="#c1694f" d="M30 9c0-.55-.45-1-1-1H11c-.55 0-1 .45-1 1s.45 1 1 1h18c.55 0 1-.45 1-1"/></g></g></g></g></svg>