<svg xmlns="http://www.w3.org/2000/svg" viewBox="0 0 45 45" enable-background="new 0 0 45 45"><defs><clipPath id="a"><path d="M0 36h36V0H0v36z"/></clipPath></defs><g><g><g clip-path="url(#a)" transform="matrix(1.25 0 0 -1.25 0 45)"><g><path fill="#292f33" d="M34.06 9.6l-3.5 3.5c-1.93 1.92-5.06 1.92-7 0-.7-.73-1.15-1.6-1.34-2.54-5.76 1.08-11.37 6.66-11.72 11.65.95.2 1.86.64 2.6 1.37 1.92 1.93 1.92 5.06 0 7l-3.5 3.5c-1.94 1.92-5.07 1.92-7 0C-7.88 23.56 23.57-7.9 34.06 2.6c1.93 1.93 1.93 5.06 0 7"/></g></g></g></g></svg>