<svg xmlns="http://www.w3.org/2000/svg" viewBox="0 0 45 45" enable-background="new 0 0 45 45"><defs><clipPath id="a"><path d="M0 36h36V0H0v36z"/></clipPath></defs><g><g><g clip-path="url(#a)" transform="matrix(1.25 0 0 -1.25 0 45)"><g><path fill="#292f33" d="M36 9c0-2.2-1.8-4-4-4H4C1.8 5 0 6.8 0 9v18c0 2.2 1.8 4 4 4h28c2.2 0 4-1.8 4-4V9z"/></g><g><path fill="#c6e5b3" d="M34 15c0-1.1-.9-2-2-2H4c-1.1 0-2 .9-2 2v12c0 1.1.9 2 2 2h28c1.1 0 2-.9 2-2V15z"/></g><g><path fill="#66757f" d="M14 9c0-1.1-.9-2-2-2H4c-1.1 0-2 .9-2 2s.9 2 2 2h8c1.1 0 2-.9 2-2"/></g><g><path fill="#66757f" d="M28 9c0-1.1-.9-2-2-2h-8c-1.1 0-2 .9-2 2s.9 2 2 2h8c1.1 0 2-.9 2-2"/></g><g><path fill="#dd2e44" d="M30 9c0-1.1.9-2 2-2s2 .9 2 2-.9 2-2 2-2-.9-2-2"/></g><g><path fill="#77b255" d="M26.05 22.3l-.82-1.65h.82v1.66zm-1.43-2.44c-.3 0-.42.2-.42.35 0 .14.05.22.08.27l1.33 2.42c.15.23.3.33.62.33.35 0 .68-.22.68-.76v-1.82h.1c.24 0 .42-.16.42-.4 0-.23-.18-.4-.4-.4h-.12v-.5c0-.3-.12-.46-.42-.46s-.43.14-.43.46v.5h-1.43z"/></g><g><path fill="#77b255" d="M22.5 21.13c0 .45-.03 1.37-.63 1.37s-.65-.92-.65-1.37c0-.4.05-1.36.65-1.36s.64.95.64 1.36m-2.2 0c0 .97.38 2.18 1.57 2.18 1.2 0 1.56-1.2 1.56-2.17 0-.96-.37-2.17-1.56-2.17-1.2 0-1.57 1.2-1.57 2.17"/></g><g><path fill="#77b255" d="M18.16 22.38l-.8-1.66h.8v1.66zm-1.43-2.45c-.3 0-.42.2-.42.35 0 .13.06.2.1.27l1.33 2.4c.13.25.3.36.6.36.35 0 .7-.2.7-.76v-1.82h.1c.22 0 .4-.16.4-.4 0-.23-.18-.4-.4-.4h-.1v-.5c0-.3-.14-.46-.44-.46s-.44.15-.44.47v.5h-1.43z"/></g><g><path fill="#77b255" d="M14.62 21.06c0 .45-.04 1.37-.64 1.37s-.64-.92-.64-1.37c0-.42.04-1.36.64-1.36s.64.94.64 1.36m-2.2 0c0 .96.37 2.17 1.56 2.17 1.2 0 1.56-1.2 1.56-2.17 0-.96-.37-2.17-1.56-2.17-1.2 0-1.56 1.2-1.56 2.16"/></g><g><path fill="#77b255" d="M10.28 22.3h-.02l-.8-1.65h.82v1.66zm-1.44-2.44c-.3 0-.4.2-.4.35 0 .14.03.22.07.27l1.34 2.42c.13.23.3.33.6.33.35 0 .7-.22.7-.76v-1.82h.1c.23 0 .4-.16.4-.4 0-.23-.17-.4-.4-.4h-.1v-.5c0-.3-.13-.46-.44-.46-.3 0-.42.14-.42.46v.5H8.84z"/></g></g></g></g></svg>