<svg xmlns="http://www.w3.org/2000/svg" viewBox="0 0 45 45" enable-background="new 0 0 45 45"><defs><clipPath id="a"><path d="M0 36h36V0H0v36z"/></clipPath></defs><g><g><g clip-path="url(#a)" transform="matrix(1.25 0 0 -1.25 0 45)"><g><path fill="#269" d="M32 29H4c-2.2 0-4-1.8-4-4V10c0-2.2 1.8-4 4-4h11.42c.52-.6 1.47-1 2.58-1 1.1 0 2.06.4 2.58 1H32c2.2 0 4 1.8 4 4v15c0 2.2-1.8 4-4 4"/></g><g><path fill="#292f33" d="M20 9c0-1.1-.9-2-2-2s-2 .9-2 2v18c0 1.1.9 2 2 2s2-.9 2-2V9z"/></g><g><path fill="#99aab5" d="M18 10c0-1.1-.9-2-2-2H4c-1.1 0-2 .9-2 2v18c0 1.1.9 2 2 2h12c1.1 0 2-.9 2-2V10z"/></g><g><path fill="#e1e8ed" d="M18 10c-1 2-3.66 2-4 2-2 0-5-2-8-2-1 0-2 .9-2 2v16c0 1.1 1 2 2 2 3.25 0 6 2 8 2 3 0 4-1.9 4-3V10z"/></g><g><path fill="#99aab5" d="M34 10c0-1.1-.9-2-2-2H20c-1.1 0-2 .9-2 2v18c0 1.1.9 2 2 2h12c1.1 0 2-.9 2-2V10z"/></g><g><path fill="#ccd6dd" d="M18 10c1 2 3.66 2 4 2 2 0 5-2 8-2 1 0 2 .9 2 2v16c0 1.1-1 2-2 2-3.26 0-6 2-8 2-3 0-4-1.9-4-3V10z"/></g></g></g></g></svg>