<svg xmlns="http://www.w3.org/2000/svg" viewBox="0 0 45 45" enable-background="new 0 0 45 45"><defs><clipPath id="a"><path d="M0 36h36V0H0v36z"/></clipPath></defs><g><g><g clip-path="url(#a)" transform="matrix(1.25 0 0 -1.25 0 45)"><g><path fill="#ccd6dd" d="M31 4c0-2.2-1.8-4-4-4H5C2.8 0 1 1.8 1 4v28c0 2.2 1.8 4 4 4h22c2.2 0 4-1.8 4-4V4z"/></g><g><path fill="#99aab5" d="M27 12c0-.55-.45-1-1-1H6c-.55 0-1 .45-1 1s.45 1 1 1h20c.55 0 1-.45 1-1"/></g><g><path fill="#99aab5" d="M11 8c0-.55-.45-1-1-1H6c-.55 0-1 .45-1 1s.45 1 1 1h4c.55 0 1-.45 1-1"/></g><g><path fill="#99aab5" d="M27 28c0-.55-.45-1-1-1H6c-.55 0-1 .45-1 1s.45 1 1 1h20c.55 0 1-.45 1-1"/></g><g><path fill="#99aab5" d="M27 24c0-.55-.45-1-1-1H6c-.55 0-1 .45-1 1s.45 1 1 1h20c.55 0 1-.45 1-1"/></g><g><path fill="#99aab5" d="M27 20c0-.55-.45-1-1-1H6c-.55 0-1 .45-1 1s.45 1 1 1h20c.55 0 1-.45 1-1"/></g><g><path fill="#99aab5" d="M27 16c0-.55-.45-1-1-1H6c-.55 0-1 .45-1 1s.45 1 1 1h20c.55 0 1-.45 1-1"/></g><g><path fill="#66757f" d="M31 29.73c-.83.53-1.84.58-2.52.02l-.8-.64-1.48-1.2-.1-.1-2.37-1.92-11.88-9.7c-.44-.35-.8-1.2-1.17-2.06-.38-.85-.97-2.85-1.45-4.4-.14-.24-1.06-1.84-.55-2.45.52-.6 2.33 0 2.57.08 1.63.17 3.73.37 4.65.58.92.2 1.85.4 2.3.75 0 0 0 .02 0 .02l11.86 9.67.8.65.14.1v10.6z"/></g><g><path fill="#d99e82" d="M18.14 13.47s-1.27 1.88-2.1 2.56c-.68.84-2.56 2.1-2.56 2.1-.45.46-1.2.5-1.63.06-.44-.45-.8-1.38-1.17-2.3-.48-1.15-1.28-4.16-1.77-5.76-.08-.27.52.45.5.2 0-.17.04-.38.08-.57-.08-.1-.14-.16-.14-.16.06 0 .13-.03.2-.05.03-.1.06-.16.08-.2 0 0 .06.05.16.13.18-.05.4-.08.58-.07.24.02-.5-.58-.2-.5 1.58.5 4.6 1.3 5.74 1.77.92.38 1.85.74 2.3 1.18.43.43.4 1.18-.06 1.62"/></g><g><path fill="#ea596e" d="M25.3 31.65c-.86-.88-.86-2.3 0-3.17l3.18-3.17c.88-.86 2.3-.86 3.17 0l3.17 3.18c.87.88.87 2.3 0 3.17l-3.17 3.17c-.88.87-2.3.87-3.17 0l-3.17-3.17z"/></g><g><path fill="#ffcc4d" d="M11.85 18.2s.8-.8 3.17-3.18 3.16-3.17 3.16-3.17l11.88 11.88-6.33 6.33L11.85 18.2z"/></g><g><path fill="#292f33" d="M11.3 9.26s-2.06-1.14-2.62-.58c-.56.56.58 2.6.58 2.6s1.95-.02 2.04-2.02"/></g><g><path fill="#ccd6dd" d="M27.7 34.02L34 27.7l-3.96-3.97-6.33 6.33 3.96 3.96z"/></g><g><path fill="#99aab5" d="M26.1 32.44l6.34-6.33.8.8-6.34 6.33-.8-.8z"/></g><g><path fill="#99aab5" d="M24.52 30.86l6.34-6.34.8.8-6.35 6.33-.78-.8z"/></g></g></g></g></svg>