<svg xmlns="http://www.w3.org/2000/svg" viewBox="0 0 45 45" enable-background="new 0 0 45 45"><defs><clipPath id="a"><path d="M0 36h36V0H0v36z"/></clipPath></defs><g><g><g clip-path="url(#a)" transform="matrix(1.25 0 0 -1.25 0 45)"><g><path fill="#269" d="M35 10c0-2.2-1.8-4-4-4H5c-2.2 0-4 1.8-4 4v19.7C1 31.9 6.8 36 9 36h20.63c3.1 0 5.37-2.3 5.37-5.38V10z"/></g><g><path fill="#ccd6dd" d="M33 6c0-2.2-1.8-4-4-4H7C4.8 2 3 3.8 3 6v24c0 4.12-.02 4 5 4h21c2.2 0 4-1.8 4-4V6z"/></g><g><path fill="#e1e8ed" d="M31 5c0-1.66-1.34-3-3-3H4C2.34 2 1 3.34 1 5v24c0 1.66 1.34 3 3 3h24c1.66 0 3-1.34 3-3V5z"/></g><g><path fill="#3b88c3" d="M31 4c0-2.2-1.8-4-4-4H6C3.8 0 2 1.8 2 4v22c0 2.2 1.8 4 4 4h21c2.2 0 4-1.8 4-4V4z"/></g><g><path fill="#55acee" d="M29 4c0-2.2-1.8-4-4-4H6C3.8 0 2 1.8 2 4v20c0 2.2 1.8 4 4 4h19.34c2.2 0 3.66-1.46 3.66-3.66V4z"/></g><g><path fill="#269" d="M6 30c-1.7 0-1.73 1.92-1 2.75.83.94 2.13 1.25 4.44 1.25H11v2H8.28C4.3 36 1 33.5 1 30.62V4c0-2.2 1.8-4 4-4h2v30H6z"/></g></g></g></g></svg>