<svg xmlns="http://www.w3.org/2000/svg" viewBox="0 0 45 45" enable-background="new 0 0 45 45"><defs><clipPath id="a"><path d="M0 36h36V0H0v36z"/></clipPath></defs><g><g><g clip-path="url(#a)" transform="matrix(1.25 0 0 -1.25 0 45)"><g><path fill="#ccd6dd" d="M36 4c0-2.2-1.8-4-4-4H4C1.8 0 0 1.8 0 4v18c0 2.2 1.8 4 4 4h28c2.2 0 4-1.8 4-4V4z"/></g><g><path fill="#99aab5" d="M11.95 13.36L.65 2.06C.6 2 .6 1.98.57 1.95.92 1.4 1.38.92 1.96.58c.03.02.06.03.1.06l11.3 11.3c.4.4.4 1.03 0 1.42-.4.4-1.02.4-1.4 0"/></g><g><path fill="#99aab5" d="M35.42 1.96c-.02.03-.03.06-.06.1l-11.3 11.3c-.4.4-1.03.4-1.42 0-.4-.4-.4-1.02 0-1.4L33.94.63c.04-.03.07-.04.1-.06.57.34 1.04.8 1.38 1.38"/></g><g><path fill="#99aab5" d="M32 26H4c-2.2 0-4-1.8-4-4v-1.03l14.53-14.5c1.9-1.9 5-1.9 6.88 0L36 21v1c0 2.2-1.8 4-4 4"/></g><g><path fill="#e1e8ed" d="M32 26H4c-1.6 0-2.95-.93-3.6-2.27L15.17 8.96c1.56-1.56 4.1-1.56 5.66 0L35.6 23.72c-.65 1.35-2 2.28-3.6 2.28"/></g><g><path fill="#55acee" d="M26.72 29H22v5c0 1.1-.9 2-2 2h-4c-1.1 0-2-.9-2-2v-5H9.15c-1.23 0-1.52-.62-.65-1.5l7.86-7.85c.86-.87 2.28-.87 3.14 0l7.87 7.86c.86.88.57 1.5-.65 1.5"/></g></g></g></g></svg>