<svg xmlns="http://www.w3.org/2000/svg" viewBox="0 0 45 45" enable-background="new 0 0 45 45"><defs><clipPath id="a"><path d="M0 36h36V0H0v36z"/></clipPath></defs><g><g><g clip-path="url(#a)" transform="matrix(1.25 0 0 -1.25 0 45)"><g><path fill="#ffac33" d="M34.72 6.34c-1.24 0-1.24-1.2-1.24-1.2H18.5c-5.25 0-9.5 4.25-9.5 9.5 0 5.24 4.25 9.5 9.5 9.5s9.5-4.26 9.5-9.5c0-3.06-1.6-5.9-3.85-7.63h5.43C31.02 9.16 32 11.87 32 14.65c0 7.45-6.05 13.5-13.5 13.5-7.46 0-13.5-6.05-13.5-13.5 0-7.46 6.04-13.5 13.5-13.5h14.98S33.48 0 34.72 0c1.24 0 1.23 1.24 1.23 1.24v3.83s.02 1.26-1.23 1.27"/></g><g><path fill="#ffac33" d="M5 21.74c1 1.83 2.38 3.44 4 4.74V27c0 5 5 7 5 8s-1 1-1 1H1c-1 0-1-1-1-1 0-1 5-3.33 5-7.7v-5.56z"/></g><g><path fill="#be1931" d="M13.1 6.83C10.6 8.55 9 11.4 9 14.63c0 .32.02.62.05.92l-3.98.47c-.05-.46-.07-.92-.07-1.38 0-4.57 2.28-8.6 5.76-11.05l2.33 3.23z"/></g><g><path fill="#be1931" d="M6 10.08s-5.2.8-5-1c.2-1.82 5 1 5 1"/></g><g><path fill="#be1931" d="M6 9.76S1.87 7.08 3.06 6C4.26 4.96 6 9.77 6 9.77"/></g></g></g></g></svg>