<svg xmlns="http://www.w3.org/2000/svg" viewBox="0 0 45 45" enable-background="new 0 0 45 45"><defs><clipPath id="a"><path d="M0 36h36V0H0v36z"/></clipPath></defs><g><g><g clip-path="url(#a)" transform="matrix(1.25 0 0 -1.25 0 45)"><g><path fill="#c1694f" d="M22 3c0-2.2-8-2.2-8 0v10c0 2.2 1.8 4 4 4s4-1.8 4-4V3z"/></g><g><path fill="#99aab5" d="M26 33H10V13h24v12c0 4.42-3.58 8-8 8"/></g><g><path fill="#292f33" d="M10 33c-4.42 0-8-3.58-8-8V13h16v12c0 4.42-3.58 8-8 8"/></g><g><path fill="#99aab5" d="M9 33c-3.87 0-7-3.58-7-8V13h14v12c0 4.42-3.13 8-7 8"/></g><g><path fill="#dd2e44" d="M26 35h-4c-1.1 0-2-.9-2-2V21c0-1.1.9-2 2-2s2 .9 2 2v8h2c1.1 0 2 .9 2 2v2c0 1.1-.9 2-2 2"/></g></g></g></g></svg>