<svg xmlns="http://www.w3.org/2000/svg" viewBox="0 0 45 45" enable-background="new 0 0 45 45"><defs><clipPath id="a"><path d="M0 36h36V0H0v36z"/></clipPath></defs><g><g><g clip-path="url(#a)" transform="matrix(1.25 0 0 -1.25 0 45)"><g><path fill="#292f33" d="M8 19H0V4c0-2.2 1.8-4 4-4s4 1.8 4 4c0-2.2 1.8-4 4-4h20c2.2 0 4 1.8 4 4v15H8z"/></g><g><path fill="#66757f" d="M32 26H12c-2.2 0-4-1.8-4-4 0 2.2-1.8 4-4 4s-4-1.8-4-4V7c0-2.2 1.8-4 4-4s4 1.8 4 4c0-2.2 1.8-4 4-4h20c2.2 0 4 1.8 4 4v15c0 2.2-1.8 4-4 4"/></g><g><path fill="#c6e5b3" d="M21 20c0-1.1-.9-2-2-2h-7c-1.1 0-2 .9-2 2v2c0 1.1.9 2 2 2h7c1.1 0 2-.9 2-2v-2z"/></g><g><path fill="#ccd6dd" d="M13 14.5c0-.83-.67-1.5-1.5-1.5s-1.5.67-1.5 1.5.67 1.5 1.5 1.5 1.5-.67 1.5-1.5"/></g><g><path fill="#ccd6dd" d="M17 14.5c0-.83-.67-1.5-1.5-1.5s-1.5.67-1.5 1.5.67 1.5 1.5 1.5 1.5-.67 1.5-1.5"/></g><g><path fill="#ccd6dd" d="M21 14.5c0-.83-.67-1.5-1.5-1.5s-1.5.67-1.5 1.5.67 1.5 1.5 1.5 1.5-.67 1.5-1.5"/></g><g><path fill="#ccd6dd" d="M13 10.5c0-.83-.67-1.5-1.5-1.5s-1.5.67-1.5 1.5.67 1.5 1.5 1.5 1.5-.67 1.5-1.5"/></g><g><path fill="#ccd6dd" d="M17 10.5c0-.83-.67-1.5-1.5-1.5s-1.5.67-1.5 1.5.67 1.5 1.5 1.5 1.5-.67 1.5-1.5"/></g><g><path fill="#ccd6dd" d="M21 10.5c0-.83-.67-1.5-1.5-1.5s-1.5.67-1.5 1.5.67 1.5 1.5 1.5 1.5-.67 1.5-1.5"/></g><g><path fill="#ccd6dd" d="M13 6.5c0-.83-.67-1.5-1.5-1.5S10 5.67 10 6.5 10.67 8 11.5 8 13 7.33 13 6.5"/></g><g><path fill="#ccd6dd" d="M17 6.5c0-.83-.67-1.5-1.5-1.5S14 5.67 14 6.5 14.67 8 15.5 8 17 7.33 17 6.5"/></g><g><path fill="#ccd6dd" d="M21 6.5c0-.83-.67-1.5-1.5-1.5S18 5.67 18 6.5 18.67 8 19.5 8 21 7.33 21 6.5"/></g><g><path fill="#99aab5" d="M34 15c0-.55-.45-1-1-1h-9c-.55 0-1 .45-1 1s.45 1 1 1h9c.55 0 1-.45 1-1"/></g><g><path fill="#99aab5" d="M34 12c0-.55-.45-1-1-1h-9c-.55 0-1 .45-1 1s.45 1 1 1h9c.55 0 1-.45 1-1"/></g><g><path fill="#99aab5" d="M34 9c0-.55-.45-1-1-1h-9c-.55 0-1 .45-1 1s.45 1 1 1h9c.55 0 1-.45 1-1"/></g><g><path fill="#99aab5" d="M34 6c0-.55-.45-1-1-1h-9c-.55 0-1 .45-1 1s.45 1 1 1h9c.55 0 1-.45 1-1"/></g><g><path fill="#ccd6dd" d="M27 21c0-1.1-.9-2-2-2s-2 .9-2 2 .9 2 2 2 2-.9 2-2"/></g><g><path fill="#ccd6dd" d="M34 21c0-1.1-.9-2-2-2s-2 .9-2 2 .9 2 2 2 2-.9 2-2"/></g><g><path fill="#ccd6dd" d="M32 26H12v6c0 2.2 1.8 4 4 4h12c2.2 0 4-1.8 4-4v-6z"/></g><g><path fill="#99aab5" d="M30 32c0-.55-.45-1-1-1H15c-.55 0-1 .45-1 1s.45 1 1 1h14c.55 0 1-.45 1-1"/></g><g><path fill="#99aab5" d="M22 29c0-.55-.45-1-1-1h-6c-.55 0-1 .45-1 1s.45 1 1 1h6c.55 0 1-.45 1-1"/></g></g></g></g></svg>