<svg xmlns="http://www.w3.org/2000/svg" viewBox="0 0 45 45" enable-background="new 0 0 45 45"><defs><clipPath id="a"><path d="M0 36h36V0H0v36z"/></clipPath></defs><g><g><g clip-path="url(#a)" transform="matrix(1.25 0 0 -1.25 0 45)"><g><path fill="#99aab5" d="M10.75 14.48c1.66 0 7.43-4.35 7.42-9.7 0-5.36-14.85-5.36-14.85 0 0 5.35 5.76 9.7 7.43 9.7"/></g><g><path fill="#ccd6dd" d="M8.54 10.82c8.84-8.84 17.34-5.16 20.03-2.47 2.7 2.7-.16 9.92-6.37 16.13-6.2 6.2-13.43 9.07-16.13 6.37-2.7-2.7-6.37-11.2 2.47-20.03"/></g><g><path fill="#66757f" d="M12.44 14.72c6.22-6.2 13.44-9.06 16.13-6.37 2.7 2.7-.15 9.92-6.37 16.13-6.2 6.2-13.43 9.07-16.13 6.37-2.7-2.7.16-9.92 6.37-16.13"/></g><g><path fill="#ccd6dd" d="M22.2 24.48c.45-.45.45-1.16 0-1.6l-7.23-7.24c-.44-.44-1.16-.44-1.6 0-.45.44-.45 1.16 0 1.6l7.22 7.24c.44.44 1.16.44 1.6 0"/></g><g><path fill="#ccd6dd" d="M23.8 26.1c.9-.9.9-2.34 0-3.23-.88-.9-2.32-.9-3.2 0-.9.9-.9 2.33 0 3.22.88.87 2.32.87 3.2 0"/></g><g><path fill="#ffac33" d="M28.3 22.92c-.03 0-.05 0-.06 0-.55.03-.98.5-.95 1.05 0 .02.05 2.16-1.6 3.8-1.63 1.64-3.76 1.58-3.8 1.58-.54-.03-1 .4-1.04.95-.03.55.4 1.02.95 1.05.13 0 3.04.12 5.32-2.16 2.3-2.3 2.17-5.2 2.17-5.33-.04-.53-.48-.95-1-.95"/></g><g><path fill="#ffac33" d="M31.85 23.48c-.1 0-.23.02-.33.06-.53.18-.8.75-.62 1.27.04.12.9 2.9-2.2 5.97-3.12 3.13-6.12 2.42-6.25 2.4-.52-.15-1.07.17-1.2.7-.15.53.16 1.07.7 1.22.16.03 4.2 1.07 8.17-2.9 4.02-4.03 2.73-7.9 2.67-8.05-.15-.4-.54-.67-.95-.67"/></g><g><path fill="#66757f" d="M10.9 3.48c-2.9 0-5.53.66-7.55 1.74 0-.15-.03-.3-.03-.44 0-5.36 14.86-5.36 14.85 0 0 .1 0 .18 0 .26-2-.97-4.5-1.56-7.26-1.56"/></g></g></g></g></svg>