<svg xmlns="http://www.w3.org/2000/svg" viewBox="0 0 45 45" enable-background="new 0 0 45 45"><defs><clipPath id="a"><path d="M0 36h36V0H0v36z"/></clipPath></defs><g><g><g clip-path="url(#a)" transform="matrix(1.25 0 0 -1.25 0 45)"><g><path fill="#d99e82" d="M36 4c0-2.2-1.8-4-4-4H4C1.8 0 0 1.8 0 4v9c0 2.2.8 3 3 3h30c2.2 0 3-.8 3-3V4z"/></g><g><path fill="#662113" d="M25 16c0-3.87-3.13-7-7-7s-7 3.13-7 7h14z"/></g><g><path fill="#c1694f" d="M4 0h28c2.2 0 4 1.8 4 4H0c0-2.2 1.8-4 4-4"/></g><g><path fill="#dd2e44" d="M27.44 27.5l-7.87 7.85c-.86.87-2.28.87-3.14 0L8.56 27.5C7.7 26.6 8 26 9.22 26H14v-6c0-1.1.9-2 2-2h4c1.1 0 2 .9 2 2v6h4.78c1.23 0 1.52.62.66 1.5"/></g></g></g></g></svg>