<svg xmlns="http://www.w3.org/2000/svg" viewBox="0 0 45 45" enable-background="new 0 0 45 45"><defs><clipPath id="a"><path d="M0 36h36V0H0v36z"/></clipPath></defs><g><g><g clip-path="url(#a)" transform="matrix(1.25 0 0 -1.25 0 45)"><g><path fill="#c1694f" d="M22 3c0-2.2-8-2.2-8 0v10c0 2.2 1.8 4 4 4s4-1.8 4-4V3z"/></g><g><path fill="#292f33" d="M10 33c-4.42 0-8-3.58-8-8V13h16v12c0 4.42-3.58 8-8 8"/></g><g><path fill="#ccd6dd" d="M20 17.24C20 16 18.94 15 17.7 15H2.3C1.05 15 0 16 0 17.24v10.52C0 29 1.06 30 2.3 30h15.4c1.24 0 2.3-1 2.3-2.24V17.24z"/></g><g><path fill="#99aab5" d="M6.64 23.2L.1 16.63c.1-.37.3-.7.6-.98L7.4 22.4c.22.23.22.6 0 .8-.22.22-.57.22-.78 0"/></g><g><path fill="#99aab5" d="M13.36 23.2c-.2.22-.57.22-.78 0-.22-.2-.22-.57 0-.8l6.72-6.75c.28.27.5.6.6.98l-6.54 6.57z"/></g><g><path fill="#99aab5" d="M17.7 30H2.3C1.05 30 0 29 0 27.76v-1.42l8.07-8.1c1.06-1.07 2.77-1.07 3.83 0l8.1 8.1v1.42C20 29 18.93 30 17.7 30"/></g><g><path fill="#e1e8ed" d="M17.7 30H2.3C1.12 30 .1 29.1 0 27.94l8.4-8.4c.88-.86 2.28-.83 3.15.04l8.4 8.35C19.9 29.1 18.88 30 17.72 30"/></g><g><path fill="#99aab5" d="M26 33H10c4.42 0 8-3.58 8-8V13h16v12c0 4.42-3.58 8-8 8"/></g><g><path fill="#dd2e44" d="M26 35h-4c-1.1 0-2-.9-2-2V21c0-1.1.9-2 2-2s2 .9 2 2v8h2c1.1 0 2 .9 2 2v2c0 1.1-.9 2-2 2"/></g></g></g></g></svg>