<svg xmlns="http://www.w3.org/2000/svg" viewBox="0 0 45 45" enable-background="new 0 0 45 45"><defs><clipPath id="a"><path d="M0 36h36V0H0v36z"/></clipPath><clipPath id="b"><path d="M11 29V15s0-2 2-2h10s2 0 2 2v14H11z"/></clipPath><clipPath id="c"><path d="M0 36h36V0H0v36z"/></clipPath></defs><g><g><g clip-path="url(#a)" transform="matrix(1.25 0 0 -1.25 0 45)"><g><path fill="#dd2e44" d="M31 11c0-2.2-1.8-4-4-4H9c-2.2 0-4 1.8-4 4v21c0 2.2 1.8 4 4 4h18c2.2 0 4-1.8 4-4V11z"/></g><g><path fill="#a0041e" d="M7 26v4s0 2 2 2h18s2 0 2-2v-4H7z"/></g><g><path fill="#292f33" d="M27 24H9s-2 0-2 2v3h22v-3c0-2-2-2-2-2"/></g><g><path fill="#e1e8ed" d="M11 29V15s0-2 2-2h10s2 0 2 2v14H11z"/></g></g></g><g><g clip-path="url(#b)" transform="matrix(1.25 0 0 -1.25 0 45)"><g><path fill="#ccd6dd" d="M24 12l-9 11 6 6H10V12h14z"/></g><g><path fill="#66757f" d="M23 12s-7 9-8 10 0 2 0 2l6 6 1-1-6-6 8-10-1-1z"/></g></g></g><g><g clip-path="url(#c)" transform="matrix(1.25 0 0 -1.25 0 45)"><path fill="#66757f" d="M23 7h-9V0h9v7z"/></g></g></g></svg>