<svg xmlns="http://www.w3.org/2000/svg" viewBox="0 0 45 45" enable-background="new 0 0 45 45"><defs><clipPath id="a"><path d="M0 36h36V0H0v36z"/></clipPath></defs><g><g><g clip-path="url(#a)" transform="matrix(1.25 0 0 -1.25 0 45)"><g><path fill="#3b88c3" d="M14 7c-2.2 0-4 1.8-4 4s1.8 4 4 4 4-1.8 4-4-1.8-4-4-4m0 10c-3.3 0-6-2.7-6-6s2.7-6 6-6 6 2.7 6 6-2.7 6-6 6"/></g><g><path fill="#55acee" d="M1.78 21.98v-.02C.78 21.74 0 20.06 0 18s.78-3.74 1.78-3.96v-.02l28.7-7.97v23.9l-28.7-7.97z"/></g><g><path fill="#269" d="M36 18c0-6.63-2.24-12-5-12s-5 5.37-5 12 2.24 12 5 12 5-5.37 5-12"/></g></g></g></g></svg>