<svg xmlns="http://www.w3.org/2000/svg" viewBox="0 0 45 45" enable-background="new 0 0 45 45"><defs><clipPath id="a"><path d="M0 36h36V0H0v36z"/></clipPath></defs><g><g><g clip-path="url(#a)" transform="matrix(1.25 0 0 -1.25 0 45)"><g><path fill="#55acee" d="M7 24c0-.55-.45-1-1-1H1c-.55 0-1 .45-1 1s.45 1 1 1h5c.55 0 1-.45 1-1"/></g><g><path fill="#55acee" d="M5 19c0-.55-.45-1-1-1H1c-.55 0-1 .45-1 1s.45 1 1 1h3c.55 0 1-.45 1-1"/></g><g><path fill="#55acee" d="M3 14c0-.55-.45-1-1-1H1c-.55 0-1 .45-1 1s.45 1 1 1h1c.55 0 1-.45 1-1"/></g><g><path fill="#ccd6dd" d="M32.3 11c-.63-2.2-2.92-4-5.13-4h-20c-2.2 0-3.5 1.8-2.87 4l3.4 12c.62 2.2 2.92 4 5.13 4h20c2.2 0 3.5-1.8 2.87-4l-3.4-12z"/></g><g><path fill="#99aab5" d="M17.34 18.36L4.38 9.06c-.03-.04-.05-.07-.08-.1.18-.57.52-1.04 1-1.38.03.02.06.03.1.06l12.95 9.3c.5.4.68 1.03.4 1.42-.28.4-.9.4-1.4 0"/></g><g><path fill="#99aab5" d="M31.15 8.96c-.02.03-.02.06-.04.1l-7.66 9.3c-.28.4-.92.4-1.42 0-.5-.4-.68-1.02-.4-1.4l7.68-9.32c.02-.03.05-.04.07-.06.67.34 1.27.8 1.78 1.38"/></g><g><path fill="#99aab5" d="M35.7 23c.63 2.2-.66 4-2.87 4h-20c-2.2 0-4.5-1.8-5.13-4l-.02-.07 8.8-8.46c1.64-1.58 3.8-1.47 5.73-.37l13.24 7.97.26.93z"/></g><g><path fill="#e1e8ed" d="M32.83 27h-20c-1.58 0-3.2-.92-4.2-2.25l9.2-8.8c.75-.7 2.44-.72 3.66 0l14.28 8.78c-.26 1.34-1.36 2.27-2.95 2.27"/></g></g></g></g></svg>