<svg xmlns="http://www.w3.org/2000/svg" viewBox="0 0 45 45" enable-background="new 0 0 45 45"><defs><clipPath id="a"><path d="M0 36h36V0H0v36z"/></clipPath></defs><g><g><g clip-path="url(#a)" transform="matrix(1.25 0 0 -1.25 0 45)"><g><path fill="#292f33" d="M18 0s-4 0-4 4v28s0 4 4 4h14s4 0 4-4V4s0-4-4-4H18z"/></g><path fill="#55acee" d="M16 5h18v26H16V5z"/><g><path fill="#55acee" d="M13 20s1-1 1-2-1-2-1-2l-5-5c-1-1-3-1-3 1v3H2s-2 0-2 2v2c0 2 2 2 2 2h3v3c0 2 2 2 3 1l5-5z"/></g></g></g></g></svg>