<svg xmlns="http://www.w3.org/2000/svg" viewBox="0 0 45 45" enable-background="new 0 0 45 45"><defs><clipPath id="a"><path d="M0 36h36V0H0v36z"/></clipPath></defs><g><g><g clip-path="url(#a)" transform="matrix(1.25 0 0 -1.25 0 45)"><g><path fill="#292f33" d="M3.33 24c0 .52.1 1 .26 1.48l2.1-1.26c-.02-.07-.03-.14-.03-.22 0-.75.36-1.4.9-1.84-.62-.48-1.1-1.13-1.35-1.9-1.14.86-1.9 2.2-1.9 3.74M8 28.67c.52 0 1-.1 1.48-.26l-1.26-2.1c-.07.02-.15.03-.22.03-.48 0-.92-.14-1.3-.4L4.6 27.2c.87.9 2.06 1.47 3.4 1.47m3.2-1.28c.9-.87 1.47-2.06 1.47-3.4 0-.34-.05-.68-.12-1H10.1c.14.3.23.64.23 1 0 .48-.14.92-.4 1.3l1.27 2.1zm9.1-.4c-.02.56.07 1.1.22 1.62l3.2-1.6s0 0 0-.02c0-.66.3-1.24.76-1.66L23.82 23h-1.88c-1.02 1.03-1.66 2.44-1.66 4M26 32.7c.28 0 .56 0 .83-.05l-1.13-3.4c-.4-.05-.78-.2-1.08-.44l-3.2 1.6c1.04 1.4 2.7 2.3 4.58 2.3m1.83-7.02l3.55-.6c-.66-1.85-2.26-3.25-4.22-3.66-.37.48-.84.87-1.4 1.15l.64 2.2c.55.1 1.07.44 1.43.9m.9 6.35c1.76-.96 2.96-2.82 2.98-4.96l-3.52.6c-.1.37-.3.7-.58.97l1.13 3.4zM34.07 18l-4.83-3H28v4c0 .1-.02.17-.03.26 3.47.88 6.03 4 6.03 7.74 0 4.42-3.58 8-8 8s-8-3.58-8-8c0-1.46.4-2.82 1.1-4h-4.18c.05.33.08.66.08 1 0 3.87-3.13 7-7 7-3.86 0-7-3.13-7-7 0-2.8 1.64-5.2 4-6.32V7c0-2.2 1.8-4 4-4h15c2.2 0 4 1.8 4 4v3h1.24l4.83-3H35v11h-.93z"/></g><g><path fill="#8899a6" d="M22 17c0-1.1.9-2 2-2s2 .9 2 2-.9 2-2 2-2-.9-2-2"/></g><g><path fill="#8899a6" d="M7 17c0-1.1.9-2 2-2s2 .9 2 2-.9 2-2 2-2-.9-2-2"/></g><g><path fill="#8899a6" d="M24 9c0 1.1-.9 2-2 2H11c-1.1 0-2-.9-2-2V3c0-1.1.9-2 2-2h11c1.1 0 2 .9 2 2v6z"/></g></g></g></g></svg>