<svg xmlns="http://www.w3.org/2000/svg" viewBox="0 0 45 45" enable-background="new 0 0 45 45"><defs><clipPath id="a"><path d="M0 36h36V0H0v36z"/></clipPath></defs><g><g><g clip-path="url(#a)" transform="matrix(1.25 0 0 -1.25 0 45)"><g><path fill="#292f33" d="M2.7 23.6c-.4-.38-.4-1 0-1.4.4-.4 1.02-.4 1.4 0l9.2 9.2c.4.38.4 1 0 1.4-.4.4-1.02.4-1.4 0l-9.2-9.2z"/></g><g><path fill="#99aab5" d="M36 4c0-4-4-4-4-4H4S0 0 0 4v18s0 4 4 4h28c4 0 4-4 4-4V4z"/></g><g><path fill="#292f33" d="M15.56 32.94c-.4-.4-1.02-.4-1.4 0l-.72.7c-.4.4-.4 1.03 0 1.42.4.4 1.02.4 1.4 0l.72-.7c.4-.4.4-1.03 0-1.42"/></g><g><path fill="#292f33" d="M33 17.5c0-3.04-2.46-5.5-5.5-5.5S22 14.46 22 17.5s2.46 5.5 5.5 5.5 5.5-2.46 5.5-5.5"/></g><g><path fill="#292f33" d="M31 6.5C31 4.57 29.43 3 27.5 3S24 4.57 24 6.5s1.57 3.5 3.5 3.5S31 8.43 31 6.5"/></g><g><path fill="#66757f" d="M31 17.5c0-1.93-1.57-3.5-3.5-3.5S24 15.57 24 17.5s1.57 3.5 3.5 3.5 3.5-1.57 3.5-3.5"/></g><g><path fill="#66757f" d="M29 6.5c0-.83-.67-1.5-1.5-1.5S26 5.67 26 6.5 26.67 8 27.5 8 29 7.33 29 6.5"/></g><g><path fill="#292f33" d="M12 10.5c0-.83-.67-1.5-1.5-1.5S9 9.67 9 10.5s.67 1.5 1.5 1.5 1.5-.67 1.5-1.5"/></g><g><path fill="#292f33" d="M7 10.5C7 9.67 6.33 9 5.5 9S4 9.67 4 10.5 4.67 12 5.5 12 7 11.33 7 10.5"/></g><g><path fill="#292f33" d="M12 15.5c0-.83-.67-1.5-1.5-1.5S9 14.67 9 15.5s.67 1.5 1.5 1.5 1.5-.67 1.5-1.5"/></g><g><path fill="#292f33" d="M17 15.5c0-.83-.67-1.5-1.5-1.5s-1.5.67-1.5 1.5.67 1.5 1.5 1.5 1.5-.67 1.5-1.5"/></g><g><path fill="#292f33" d="M17 10.5c0-.83-.67-1.5-1.5-1.5s-1.5.67-1.5 1.5.67 1.5 1.5 1.5 1.5-.67 1.5-1.5"/></g><g><path fill="#292f33" d="M17 5.5c0-.83-.67-1.5-1.5-1.5S14 4.67 14 5.5 14.67 7 15.5 7 17 6.33 17 5.5"/></g><g><path fill="#292f33" d="M7 5.5C7 4.67 6.33 4 5.5 4S4 4.67 4 5.5 4.67 7 5.5 7 7 6.33 7 5.5"/></g><g><path fill="#292f33" d="M7 15.5c0-.83-.67-1.5-1.5-1.5S4 14.67 4 15.5 4.67 17 5.5 17 7 16.33 7 15.5"/></g><g><path fill="#292f33" d="M12 20.5c0-.83-.67-1.5-1.5-1.5S9 19.67 9 20.5s.67 1.5 1.5 1.5 1.5-.67 1.5-1.5"/></g><g><path fill="#292f33" d="M17 20.5c0-.83-.67-1.5-1.5-1.5s-1.5.67-1.5 1.5.67 1.5 1.5 1.5 1.5-.67 1.5-1.5"/></g><g><path fill="#292f33" d="M7 20.5c0-.83-.67-1.5-1.5-1.5S4 19.67 4 20.5 4.67 22 5.5 22 7 21.33 7 20.5"/></g><g><path fill="#292f33" d="M12 5.5c0-.83-.67-1.5-1.5-1.5S9 4.67 9 5.5 9.67 7 10.5 7 12 6.33 12 5.5"/></g></g></g></g></svg>