<svg xmlns="http://www.w3.org/2000/svg" viewBox="0 0 45 45" enable-background="new 0 0 45 45"><defs><clipPath id="a"><path d="M0 36h36V0H0v36z"/></clipPath></defs><g><g><g clip-path="url(#a)" transform="matrix(1.25 0 0 -1.25 0 45)"><g><path d="M35 18c0 9.4-7.6 17-17 17S1 27.4 1 18 8.6 1 18 1s17 7.6 17 17"/></g><g><path fill="#fff" d="M13 5s-3 0-3 3c0 2 0 20 0 20s0 3 3 3h10s3 0 3-3V8s0-3-3-3H13z"/></g><path d="M12 9h12v18H12V9z"/><g><path fill="#dd2e44" d="M29.68 7.1L7.08 29.67C9.96 32.35 13.8 34 18 34c8.84 0 16-7.16 16-16 0-4.22-1.65-8.05-4.32-10.9M18 2C9.16 2 2 9.16 2 18c0 3.7 1.28 7.12 3.4 9.83L27.83 5.4C25.13 3.27 21.7 2 18 2m0 34C8.06 36 0 27.94 0 18S8.06 0 18 0s18 8.06 18 18-8.06 18-18 18"/></g></g></g></g></svg>