<svg xmlns="http://www.w3.org/2000/svg" viewBox="0 0 45 45" enable-background="new 0 0 45 45"><defs><clipPath id="a"><path d="M0 36h36V0H0v36z"/></clipPath></defs><g><g><g clip-path="url(#a)" transform="matrix(1.25 0 0 -1.25 0 45)"><g><path fill="#99aab5" d="M33 0H4c4 0 3 9 3 9 0 2.2 1.8 15 4 15h21s4 0 4-4V3s0-3-3-3"/></g><g><path fill="#ccd6dd" d="M30 3c0-3 3-3 3-3H3S0 0 0 4v28c0 2.2 1.8 4 4 4h22c2.2 0 4-1.8 4-4V3z"/></g><g><path fill="#99aab5" d="M27 16c0-.55-.45-1-1-1h-8c-.55 0-1 .45-1 1s.45 1 1 1h8c.55 0 1-.45 1-1"/></g><g><path fill="#99aab5" d="M27 20c0-.55-.45-1-1-1h-8c-.55 0-1 .45-1 1s.45 1 1 1h8c.55 0 1-.45 1-1"/></g><g><path fill="#99aab5" d="M27 24c0-.55-.45-1-1-1h-8c-.55 0-1 .45-1 1s.45 1 1 1h8c.55 0 1-.45 1-1"/></g><g><path fill="#99aab5" d="M27 12c0-.55-.45-1-1-1H4c-.55 0-1 .45-1 1s.45 1 1 1h22c.55 0 1-.45 1-1"/></g><g><path fill="#99aab5" d="M27 8c0-.55-.45-1-1-1H4c-.55 0-1 .45-1 1s.45 1 1 1h22c.55 0 1-.45 1-1"/></g><g><path fill="#99aab5" d="M27 4c0-.55-.45-1-1-1H4c-.55 0-1 .45-1 1s.45 1 1 1h22c.55 0 1-.45 1-1"/></g><g><path fill="#99aab5" d="M25 27s2 0 2 2v2s0 2-2 2H5s-2 0-2-2v-2s0-2 2-2h20z"/></g><g><path fill="#55acee" d="M13 15s2 0 2 2v6s0 2-2 2H5s-2 0-2-2v-6s0-2 2-2h8z"/></g></g></g></g></svg>