<svg xmlns="http://www.w3.org/2000/svg" viewBox="0 0 45 45" enable-background="new 0 0 45 45"><defs><clipPath id="a"><path d="M0 36h36V0H0v36z"/></clipPath></defs><g><g><g clip-path="url(#a)" transform="matrix(1.25 0 0 -1.25 0 45)"><g><path fill="#292f33" d="M29 18H16c-3.67 0-5 3-5 5v2H7c-3 0-3-3-3-3s-2 1-3 1-1-1-1-1V12s0-1 1-1 3 1 3 1V5c0-4 4-4 4-4h18c4 0 4 4 4 4v13.1c-.35-.06-.7-.1-1-.1"/></g><g><path fill="#66757f" d="M35 30c-.56 0-2.05-.93-3.26-1.76C31.4 29.07 30.67 30 29 30H18s-5 0-5-5v-2s0-3 3-3h13s2.08 0 2.77 1.74C32.97 20.92 34.45 20 35 20c1 0 1 1 1 1v8s0 1-1 1"/></g><g><path fill="#66757f" d="M9 1v9s0 3 2.75 3H22s3 0 3-3V1h-2v9s0 1-1 1H12s-1 0-1-1V1H9z"/></g></g></g></g></svg>