<svg xmlns="http://www.w3.org/2000/svg" viewBox="0 0 45 45" enable-background="new 0 0 45 45"><defs><clipPath id="a"><path d="M0 36h36V0H0v36z"/></clipPath></defs><g><g><g clip-path="url(#a)" transform="matrix(1.25 0 0 -1.25 0 45)"><g><path fill="#66757f" d="M4 31s0 1 1 1h6s1 0 1-1v-2H4v2z"/></g><g><path fill="#292f33" d="M0 26s0 4 4 4h28s4 0 4-4V8s0-4-4-4H4S0 4 0 8v18z"/></g><g><path fill="#ccd6dd" d="M11 17c0-5.52 4.48-10 10-10s10 4.48 10 10-4.48 10-10 10-10-4.48-10-10"/></g><g><path fill="#292f33" d="M29 17c0-4.42-3.58-8-8-8s-8 3.58-8 8 3.58 8 8 8 8-3.58 8-8"/></g><g><path fill="#3b88c3" d="M26 17c0-2.76-2.24-5-5-5s-5 2.24-5 5 2.24 5 5 5 5-2.24 5-5"/></g><g><path fill="#fff" d="M34 26.5c0-.83-.67-1.5-1.5-1.5s-1.5.67-1.5 1.5.67 1.5 1.5 1.5 1.5-.67 1.5-1.5"/></g><g><path fill="#f5f8fa" d="M12 26.5c0-.83-.67-1.5-1.5-1.5h-5c-.83 0-1.5.67-1.5 1.5S4.67 28 5.5 28h5c.83 0 1.5-.67 1.5-1.5"/></g></g></g></g></svg>