<svg xmlns="http://www.w3.org/2000/svg" viewBox="0 0 45 45" enable-background="new 0 0 45 45"><defs><clipPath id="a"><path d="M0 36h36V0H0v36z"/></clipPath><clipPath id="b"><path d="M4 24c-1 0-2-2-2-5s1-5 2-5h6c1 0 1 1 1 1v8c0 1-1 1-1 1H4z"/></clipPath><clipPath id="c"><path d="M0 36h36V0H0v36z"/></clipPath><clipPath id="d"><path d="M26 24s-1 0-1-1v-8s0-1 1-1h6c1 0 2 2 2 5s-1 5-2 5h-6z"/></clipPath><clipPath id="e"><path d="M0 36h36V0H0v36z"/></clipPath></defs><g><g><g clip-path="url(#a)" transform="matrix(1.25 0 0 -1.25 0 45)"><g><path fill="#292f33" d="M36 11s0-4-4-4H4s-4 0-4 4v15c0 4 4 4 4 4h28s4 0 4-4V11z"/></g><g><path fill="#ccd6dd" d="M4 24h6s1 0 1-1v-8s0-1-1-1H4c-1 0-2 2-2 5s1 5 2 5"/></g></g></g><g><g clip-path="url(#b)" transform="matrix(1.25 0 0 -1.25 0 45)"><g><path d="M18 19c0-3.87-3.13-7-7-7s-7 3.13-7 7 3.13 7 7 7 7-3.13 7-7"/></g><g><path fill="#66757f" d="M14 19c0-1.66-1.34-3-3-3s-3 1.34-3 3 1.34 3 3 3 3-1.34 3-3"/></g></g></g><g><g clip-path="url(#c)" transform="matrix(1.25 0 0 -1.25 0 45)"><g><path fill="#ccd6dd" d="M32 24h-6s-1 0-1-1v-8s0-1 1-1h6c1 0 2 2 2 5s-1 5-2 5"/></g></g></g><g><g clip-path="url(#d)" transform="matrix(1.25 0 0 -1.25 0 45)"><g><path d="M32 19c0-3.87-3.13-7-7-7s-7 3.13-7 7 3.13 7 7 7 7-3.13 7-7"/></g><g><path fill="#66757f" d="M28 19c0-1.66-1.34-3-3-3s-3 1.34-3 3 1.34 3 3 3 3-1.34 3-3"/></g></g></g><g><g clip-path="url(#e)" transform="matrix(1.25 0 0 -1.25 0 45)"><g><path fill="#88c9f9" d="M13 22s0 1 1 1h8s1 0 1-1v-6s0-1-1-1h-8s-1 0-1 1v6z"/></g><g><path d="M34 10c0-.55-.45-1-1-1H3c-.55 0-1 .45-1 1s.45 1 1 1h30c.55 0 1-.45 1-1"/></g></g></g></g></svg>