<svg xmlns="http://www.w3.org/2000/svg" viewBox="0 0 45 45" enable-background="new 0 0 45 45"><defs><clipPath id="a"><path d="M0 36h36V0H0v36z"/></clipPath></defs><g><g><g clip-path="url(#a)" transform="matrix(1.25 0 0 -1.25 0 45)"><g><path fill="#292f33" d="M26.8 7.22c.48-1.1-.27-2.4.74-4.32C28.62.8 31.2.1 32.84.08c1.07 0 1.18.45.75.66-.7.35-.6.88-.6.88s.45-.43 1.3-.67c.62-.17 1.3-.2 1.5.38.2.5-1.63.14-2.48 1.96 1.1-.5 1.7-.24 2.15.14.26.2.45.62.1.5-.34-.13-2.7-.4-3.04 2.06 1.1-1.23 2.4-1.12 3.02-.7.4.26.5.8.1.6-1.4-.64-2.04.62-2.96 1.87-1.13 1.5-2.95 1-3.7 1.32-.28.1-2.2-1.88-2.2-1.88"/></g><g><path fill="#553788" d="M10.1 29.15c.88-.9.88-2.35 0-3.24-.9-.9-2.36-.9-3.25 0-.9.9-.9 2.35 0 3.25.9.9 2.34.9 3.24 0"/></g><g><path fill="#553788" d="M7.23 25.78c.9-.9.9-2.34 0-3.24-.9-.9-2.35-.9-3.24 0-.9.9-.9 2.35 0 3.24.88.9 2.33.9 3.23 0"/></g><g><path fill="#553788" d="M5.05 21.94c.9-.9.9-2.35 0-3.24-.9-.9-2.34-.9-3.24 0-.88.9-.88 2.34 0 3.24.9.9 2.36.9 3.25 0"/></g><g><path fill="#553788" d="M4.04 17.68c.9-.9.9-2.34 0-3.24-.9-.9-2.35-.9-3.24 0-.9.9-.9 2.35 0 3.24.9.9 2.34.9 3.24 0"/></g><g><path fill="#553788" d="M4.5 13.33c.9-.9.9-2.35 0-3.24-.9-.9-2.35-.9-3.25 0-.9.88-.9 2.34 0 3.23.9.9 2.35.9 3.24 0"/></g><g><path fill="#553788" d="M6.85 9.7c.9-.88.9-2.34 0-3.23-.9-.9-2.35-.9-3.24 0-.9.9-.9 2.35 0 3.24.9.9 2.35.9 3.25 0"/></g><g><path fill="#553788" d="M10.92 8.32c.9-.9.9-2.35 0-3.24-.9-.9-2.34-.9-3.24 0-.9.9-.9 2.34 0 3.24.9.9 2.35.9 3.24 0"/></g><g><path fill="#553788" d="M15.33 7.7c.9-.88.9-2.33 0-3.23-.9-.9-2.35-.9-3.24 0-.9.9-.9 2.35 0 3.24.88.9 2.33.9 3.23 0"/></g><g><path fill="#553788" d="M19.6 8.2c.9-.9.9-2.35 0-3.25-.9-.9-2.34-.9-3.24 0-.9.9-.9 2.35 0 3.24.9.9 2.35.9 3.24 0"/></g><g><path fill="#553788" d="M23.8 9.66c.9-.9.9-2.35 0-3.24-.9-.9-2.34-.9-3.23 0-.9.9-.9 2.35 0 3.24.9.9 2.34.9 3.24 0"/></g><g><path fill="#553788" d="M10.2 28.77c.9-.9 2.36-.9 3.25 0 .9.9.9 2.34 0 3.24-.9.9-2.34.9-3.24 0-.88-.9-.88-2.34 0-3.23"/></g><g><path fill="#553788" d="M14.06 30.95c.9-.9 2.35-.9 3.24 0 .9.9.9 2.34 0 3.24-.9.88-2.34.88-3.24 0-.9-.9-.9-2.36 0-3.25"/></g><g><path fill="#553788" d="M18.3 31.96c.9-.9 2.36-.9 3.25 0 .9.9.9 2.34 0 3.24-.9.9-2.34.9-3.24 0-.88-.9-.88-2.35 0-3.24"/></g><g><path fill="#553788" d="M22.67 31.5c.9-.9 2.34-.9 3.24 0 .9.9.9 2.35 0 3.24-.9.9-2.34.9-3.23 0-.9-.9-.9-2.34 0-3.24"/></g><g><path fill="#553788" d="M26.3 29.15c.88-.9 2.33-.9 3.22 0 .9.9.9 2.34 0 3.24-.9.88-2.34.88-3.23 0-.9-.9-.9-2.36 0-3.25"/></g><g><path fill="#553788" d="M27.68 25.07c.9-.9 2.34-.9 3.24 0 .9.9.9 2.35 0 3.24-.9.9-2.35.9-3.24 0-.9-.88-.9-2.33 0-3.23"/></g><g><path fill="#553788" d="M28.3 20.67c.88-.9 2.33-.9 3.23 0 .9.9.9 2.34 0 3.24-.9.9-2.35.9-3.24 0-.9-.9-.9-2.34 0-3.23"/></g><g><path fill="#553788" d="M27.8 16.4c.9-.9 2.35-.9 3.24 0 .9.9.9 2.34 0 3.23-.9.9-2.34.9-3.24 0-.9-.9-.9-2.34 0-3.24"/></g><g><path fill="#553788" d="M26.34 12.2c.9-.9 2.34-.9 3.23 0 .9.9.9 2.34 0 3.23-.9.9-2.34.9-3.23 0-.9-.9-.9-2.34 0-3.24"/></g><g><path fill="#f4900c" d="M28.15 11.42c-1 1-2.6 1-3.6 0s-1-2.6 0-3.6l2.4-1.2 2.4 2.4-1.2 2.4z"/></g></g></g></g></svg>