<svg xmlns="http://www.w3.org/2000/svg" viewBox="0 0 45 45" enable-background="new 0 0 45 45"><defs><clipPath id="a"><path d="M0 36h36V0H0v36z"/></clipPath></defs><g><g><g clip-path="url(#a)" transform="matrix(1.25 0 0 -1.25 0 45)"><g><path fill="#3b88c3" d="M0 32c0 4 4 4 4 4h28s4 0 4-4V4s0-4-4-4H4S0 0 0 4v28z"/></g><path fill="#fff" d="M32 28h-4V8h4v20z"/><path fill="#fff" d="M26 24h-4V8h4v16z"/><path fill="#fff" d="M20 20h-4V8h4v12z"/><path fill="#fff" d="M14 16h-4V8h4v8z"/><path fill="#fff" d="M8 12H4V8h4v4z"/></g></g></g></svg>