<svg xmlns="http://www.w3.org/2000/svg" viewBox="0 0 45 45" enable-background="new 0 0 45 45"><defs><clipPath id="a"><path d="M0 36h36V0H0v36z"/></clipPath></defs><g><g><g clip-path="url(#a)" transform="matrix(1.25 0 0 -1.25 0 45)"><g><path fill="#f4900c" d="M36 4c0-4-4-4-4-4H4C0 0 0 4 0 4v28c0 4 4 4 4 4h28s4 0 4-4V4z"/></g><g><path fill="#fff" d="M14.84 19.08c0 1.73-.9 3.3-2.68 3.3-1.8 0-2.7-1.57-2.7-3.3 0-1.74.88-3.28 2.7-3.28 1.8 0 2.68 1.54 2.68 3.28m-7.6 0c0 2.98 2 5.26 4.92 5.26 2.87 0 4.9-2.36 4.9-5.26 0-2.95-1.98-5.25-4.9-5.25-2.9 0-4.92 2.3-4.92 5.25"/></g><g><path fill="#fff" d="M18.53 23.05c0 .6.4 1.12 1.1 1.12h3.67c.62 0 .95-.5.95-1 0-.47-.3-.97-.95-.97h-2.63v-2.1h2.2c.7 0 1.04-.47 1.04-.96 0-.5-.33-1-1.02-1h-2.2v-3.1c0-.73-.47-1.13-1.08-1.13-.62 0-1.07.4-1.07 1.13v8.02z"/></g><g><path fill="#fff" d="M26.3 23.05c0 .6.4 1.12 1.1 1.12h3.67c.62 0 .95-.5.95-1 0-.47-.3-.97-.95-.97h-2.63v-2.1h2.2c.7 0 1.04-.47 1.04-.96 0-.5-.34-1-1.03-1h-2.2v-3.1c0-.73-.47-1.13-1.08-1.13-.62 0-1.07.4-1.07 1.13v8.02z"/></g><g><path fill="#fff" d="M19 12V8H5v20h14v-2h2v4c0 3-3 3-3 3H6c-3 0-3-3-3-3V6c0-3 3-3 3-3h12c3 0 3 3 3 3v6h-2z"/></g></g></g></g></svg>