<svg xmlns="http://www.w3.org/2000/svg" viewBox="0 0 45 45" enable-background="new 0 0 45 45"><defs><clipPath id="a"><path d="M0 36h36V0H0v36z"/></clipPath></defs><g><g><g clip-path="url(#a)" transform="matrix(1.25 0 0 -1.25 0 45)"><g><path fill="#3b88c3" d="M36 4c0-2.2-1.8-4-4-4H4C1.8 0 0 1.8 0 4v28c0 2.2 1.8 4 4 4h28c2.2 0 4-1.8 4-4V4z"/></g><g><path fill="#fff" d="M30.17 21.98l-3.3-2.75c.1-.4.13-.8.13-1.23 0-3.3-2.7-6-6-6h-1.06c.04-.33.06-.66.06-1 0-1.05-.2-2.06-.52-3H21c5.52 0 10 4.48 10 10 0 1.4-.3 2.76-.83 3.98"/></g><g><path fill="#fff" d="M30.2 26L23 32v-4h-8C9.48 28 5 23.52 5 18c0-.1 0-.2 0-.3 1.2 1.07 2.66 1.82 4.3 2.13.76 2.42 3.03 4.17 5.7 4.17h8v-4l7.2 6z"/></g><g><path fill="#fff" d="M17 11c0 3.3-2.7 6-6 6s-6-2.7-6-6 2.7-6 6-6 6 2.7 6 6"/></g><g><path fill="#3b88c3" d="M10.2 12.88h-.7c-.58 0-.82.42-.82.83 0 .43.3.84.8.84h1.72c.5 0 .8-.37.8-.85V7.93c0-.6-.38-.94-.9-.94-.5 0-.9.34-.9.94v4.94z"/></g></g></g></g></svg>