<svg xmlns="http://www.w3.org/2000/svg" viewBox="0 0 45 45" enable-background="new 0 0 45 45"><defs><clipPath id="a"><path d="M0 36h36V0H0v36z"/></clipPath></defs><g><g><g clip-path="url(#a)" transform="matrix(1.25 0 0 -1.25 0 45)"><g><path fill="#9aaab4" d="M10.4 13.34l3.73 3.7c-1.4 1.98-2.23 4.37-2.23 6.96 0 6.63 5.37 12 12 12s12-5.37 12-12-5.37-12-12-12c-2.6 0-4.98.83-6.95 2.23l-3.7-3.7-2.84 2.8z"/></g><g><path fill="#bdddf4" d="M15.9 24c0-4.42 3.58-8 8-8s8 3.58 8 8-3.58 8-8 8-8-3.58-8-8"/></g><g><path fill="#67757f" d="M1.17 6.83l8.5 8.48c.77.8 2.03.8 2.82 0l2.8-2.82c.8-.78.8-2.04 0-2.82l-2.8-2.83-5.67-5.66C5.27-.4 2.73-.4 1.17 1.17c-1.56 1.56-1.56 4.1 0 5.66"/></g></g></g></g></svg>