<svg xmlns="http://www.w3.org/2000/svg" viewBox="0 0 45 45" enable-background="new 0 0 45 45"><defs><clipPath id="a"><path d="M0 36h36V0H0v36z"/></clipPath></defs><g><g><g clip-path="url(#a)" transform="matrix(1.25 0 0 -1.25 0 45)"><g><path fill="#ffac33" d="M20 30c0-1.1-.9-2-2-2s-2 .9-2 2v4c0 1.1.9 2 2 2s2-.9 2-2v-4z"/></g><g><path fill="#ffac33" d="M20 2c0-1.1-.9-2-2-2s-2 .9-2 2v4c0 1.1.9 2 2 2s2-.9 2-2V2z"/></g><g><path fill="#ffac33" d="M6 20c1.1 0 2-.9 2-2s-.9-2-2-2H2c-1.1 0-2 .9-2 2s.9 2 2 2h4z"/></g><g><path fill="#ffac33" d="M34 20c1.1 0 2-.9 2-2s-.9-2-2-2h-4c-1.1 0-2 .9-2 2s.9 2 2 2h4z"/></g><g><path fill="#ffac33" d="M8.1 10.93c.78.78 2.05.78 2.83 0 .78-.78.78-2.05 0-2.83L8.1 5.27c-.78-.78-2.05-.78-2.83 0-.78.78-.78 2.05 0 2.83l2.83 2.83z"/></g><g><path fill="#ffac33" d="M27.9 30.73c.78.78 2.05.78 2.83 0 .78-.78.78-2.05 0-2.83l-2.83-2.83c-.78-.78-2.05-.78-2.83 0-.78.78-.78 2.05 0 2.83l2.83 2.83z"/></g><g><path fill="#ffac33" d="M25.07 8.1c-.78.78-.78 2.05 0 2.83.78.78 2.05.78 2.83 0l2.83-2.83c.78-.78.78-2.05 0-2.83-.78-.78-2.05-.78-2.83 0L25.07 8.1z"/></g><g><path fill="#ffac33" d="M18 13c-2.76 0-5 2.24-5 5s2.24 5 5 5 5-2.24 5-5-2.24-5-5-5m0 14c-4.97 0-9-4.03-9-9s4.03-9 9-9 9 4.03 9 9-4.03 9-9 9"/></g><g><path fill="#ffac33" d="M5.27 27.9c-.78.78-.78 2.05 0 2.83.78.78 2.05.78 2.83 0l2.83-2.83c.78-.78.78-2.05 0-2.83-.78-.78-2.05-.78-2.83 0L5.27 27.9z"/></g></g></g></g></svg>