<svg xmlns="http://www.w3.org/2000/svg" viewBox="0 0 36 36"><path fill="#9AAAB4" d="M10.414 22.656l3.711-3.711c-1.396-1.962-2.226-4.354-2.226-6.945 0-6.627 5.373-12 12-12 6.628 0 12 5.373 12 12s-5.372 12-12 12c-2.591 0-4.984-.83-6.945-2.227l-3.712 3.711-2.828-2.828z"/><circle fill="#BDDDF4" cx="23.899" cy="12" r="8"/><path fill="#67757F" d="M1.172 29.172l8.485-8.484c.781-.781 2.047-.781 2.828 0l2.828 2.828c.781.781.781 2.047 0 2.828l-2.828 2.828-5.656 5.656c-1.562 1.563-4.096 1.563-5.658 0-1.562-1.56-1.561-4.094.001-5.656z"/></svg>