<svg xmlns="http://www.w3.org/2000/svg" viewBox="0 0 36 36"><path fill="#9AAAB4" d="M25.485 22.656l-3.711-3.711C23.17 16.983 24 14.591 24 12c0-6.627-5.373-12-12-12S0 5.373 0 12s5.373 12 12 12c2.591 0 4.984-.83 6.945-2.227l3.712 3.711 2.828-2.828z"/><circle fill="#BDDDF4" cx="12" cy="12" r="8"/><path fill="#67757F" d="M34.728 29.172l-8.485-8.484c-.781-.781-2.047-.781-2.828 0l-2.828 2.828c-.781.781-.781 2.047 0 2.828l2.828 2.828 5.656 5.656c1.562 1.563 4.096 1.563 5.658 0 1.561-1.56 1.56-4.094-.001-5.656z"/></svg>