<svg xmlns="http://www.w3.org/2000/svg" viewBox="0 0 45 45" enable-background="new 0 0 45 45"><defs><clipPath id="a"><path d="M0 36h36V0H0v36z"/></clipPath></defs><g><g><g clip-path="url(#a)" transform="matrix(1.25 0 0 -1.25 0 45)"><g><path fill="#8899a6" d="M9 26s-2 0-2-2V12c0-2 2-2 2-2h6l8-8s1-1 2-1h1s1 0 1 1v32s0 1-1 1h-1c-1 0-2-1-2-1l-8-8H9z"/></g><g><path fill="#ccd6dd" d="M15 10l8-8s1-1 2-1h1s1 0 1 1v32s0 1-1 1h-1c-1 0-2-1-2-1l-8-8V10z"/></g><g><path fill="#dd2e44" d="M31 3L4 30c-.55.55-.55 1.45 0 2s1.45.55 2 0L33 5c.55-.55.55-1.45 0-2s-1.45-.55-2 0"/></g></g></g></g></svg>