<svg xmlns="http://www.w3.org/2000/svg" viewBox="0 0 45 45" enable-background="new 0 0 45 45"><defs><clipPath id="a"><path d="M0 36h36V0H0v36z"/></clipPath></defs><g><g><g clip-path="url(#a)" transform="matrix(1.25 0 0 -1.25 0 45)"><g><path fill="#aab8c2" d="M13 33C7.48 33 3 28.52 3 23V13h4v10c0 3.3 2.7 6 6 6s6-2.7 6-6V13h4v10c0 5.52-4.48 10-10 10"/></g><g><path fill="#ffac33" d="M26 4c0-2.2-1.8-4-4-4H4C1.8 0 0 1.8 0 4v12c0 2.2 1.8 4 4 4h18c2.2 0 4-1.8 4-4V4z"/></g><g><path fill="#66757f" d="M32 14l-16 4-11-7h12.18c.42 1.16 1.5 2 2.82 2 1.66 0 3-1.34 3-3s-1.34-3-3-3c-1.3 0-2.4.84-2.82 2H5l11-7 16 4-1 4 1 4z"/></g><g><path fill="#292f33" d="M36 18h-3c-.55 0-1.2-.4-1.45-.9l-3.1-6.2c-.25-.5-.25-1.3 0-1.8l3.1-6.2c.25-.5.9-.9 1.45-.9h3v16z"/></g></g></g></g></svg>