<svg xmlns="http://www.w3.org/2000/svg" viewBox="0 0 45 45" enable-background="new 0 0 45 45"><defs><clipPath id="a"><path d="M0 36h36V0H0v36z"/></clipPath></defs><g><g><g clip-path="url(#a)" transform="matrix(1.25 0 0 -1.25 0 45)"><g><path fill="#8899a6" d="M7 26s-2 0-2-2V12c0-2 2-2 2-2h6l8-8s1-1 2-1h1s1 0 1 1v32s0 1-1 1h-1c-1 0-2-1-2-1l-8-8H7z"/></g><g><path fill="#ccd6dd" d="M13 10l8-8s1-1 2-1h1s1 0 1 1v32s0 1-1 1h-1c-1 0-2-1-2-1l-8-8V10z"/></g><g><path fill="#8899a6" d="M28.7 10.04c-.28 0-.57.13-.76.37-.36.43-.3 1.06.13 1.4C29.93 13.35 31 15.6 31 18c0 2.44-1.1 4.7-3 6.24-.42.34-.5.97-.14 1.4.35.43.98.5 1.4.15C31.65 23.87 33 21.03 33 18c0-3-1.33-5.82-3.66-7.73-.18-.15-.4-.23-.63-.23"/></g></g></g></g></svg>