<svg xmlns="http://www.w3.org/2000/svg" viewBox="0 0 45 45" enable-background="new 0 0 45 45"><defs><clipPath id="a"><path d="M0 36h36V0H0v36z"/></clipPath></defs><g><g><g clip-path="url(#a)" transform="matrix(1.25 0 0 -1.25 0 45)"><g><path fill="#ccd6dd" d="M24 32c0-2.2-1.8-4-4-4h-4c-2.2 0-4 1.8-4 4s1.8 4 4 4h4c2.2 0 4-1.8 4-4"/></g><g><path fill="#e1e8ed" d="M30 4c0-2.2-1.8-4-4-4H10C7.8 0 6 1.8 6 4v24c0 2.2 1.8 4 4 4h16c2.2 0 4-1.8 4-4V4z"/></g><path fill="#77b255" d="M30 4H6v24h24V4z"/><g><path fill="#f5f8fa" d="M23 22h-3v3c0 .55-.45 1-1 1h-2c-.55 0-1-.45-1-1v-3h-3c-.55 0-1-.45-1-1v-2c0-.55.45-1 1-1h3v-3c0-.55.45-1 1-1h2c.55 0 1 .45 1 1v3h3c.55 0 1 .45 1 1v2c0 .55-.45 1-1 1"/></g><g><path fill="#f5f8fa" d="M13 6c-.55 0-1 .45-1 1v2c0 .55.45 1 1 1h10c.55 0 1-.45 1-1V7c0-.55-.45-1-1-1H13z"/></g></g></g></g></svg>