<svg xmlns="http://www.w3.org/2000/svg" viewBox="0 0 45 45" enable-background="new 0 0 45 45"><defs><clipPath id="a"><path d="M0 36h36V0H0v36z"/></clipPath></defs><g><g><g clip-path="url(#a)" transform="matrix(1.25 0 0 -1.25 0 45)"><g><path fill="#292f33" d="M35.3 29.35l-10.13 6.4c-.9.56-1.64.17-1.64-.88V33H2c-1.1 0-2-.9-2-2v-6c0-1.1.9-2 2-2h21.53v-1.9c0-1.05.72-1.4 1.6-.8l10.22 6.92c.88.6.86 1.56-.04 2.13"/></g><g><path fill="#292f33" d="M6.3 8.74c0-.54-.35-1.02-.92-1.02-.56 0-1 .4-1.82.4-.6 0-1.13-.3-1.13-.88 0-1.4 4.6-.5 4.6-4.05C7.02 1.2 5.4 0 3.5 0 2.44 0 .16.25.16 1.54c0 .53.36.97.92.97.65 0 1.42-.52 2.3-.52.92 0 1.4.5 1.4 1.18C4.8 4.78.2 3.8.2 7c0 1.92 1.58 3.1 3.4 3.1.78 0 2.7-.28 2.7-1.36"/></g><g><path fill="#292f33" d="M14.82 5.06c0 1.66-.86 3.15-2.58 3.15-1.72 0-2.58-1.48-2.58-3.14 0-1.68.84-3.16 2.58-3.16 1.75 0 2.58 1.48 2.58 3.16m-7.3 0c0 2.85 1.92 5.05 4.72 5.05 2.76 0 4.73-2.26 4.73-5.04 0-2.85-1.9-5.06-4.73-5.06-2.8 0-4.72 2.2-4.72 5.06"/></g><g><path fill="#292f33" d="M24.74 5.06c0 1.66-.86 3.15-2.58 3.15-1.7 0-2.58-1.48-2.58-3.14 0-1.68.84-3.16 2.58-3.16 1.75 0 2.58 1.48 2.58 3.16m-7.3 0c0 2.85 1.92 5.05 4.72 5.05 2.76 0 4.73-2.26 4.73-5.04C26.9 2.2 24.97 0 22.15 0c-2.8 0-4.72 2.2-4.72 5.06"/></g><g><path fill="#292f33" d="M27.66 8.96c0 .68.44 1.07 1.03 1.07.25 0 .68-.2.86-.46l4.35-5.8h.04v5.2c0 .67.44 1.06 1.03 1.06.6 0 1.03-.4 1.03-1.07v-7.8c0-.7-.44-1.08-1.03-1.08-.26 0-.67.2-.87.46l-4.35 5.74h-.03V1.15c0-.68-.44-1.07-1.03-1.07-.6 0-1.04.4-1.04 1.07v7.8z"/></g></g></g></g></svg>