<svg xmlns="http://www.w3.org/2000/svg" viewBox="0 0 45 45" enable-background="new 0 0 45 45"><defs><clipPath id="a"><path d="M0 36h36V0H0v36z"/></clipPath></defs><g><g><g clip-path="url(#a)" transform="matrix(1.25 0 0 -1.25 0 45)"><g><path fill="#292f33" d="M34 33H12.48v1.87c0 1.05-.75 1.44-1.65.87L.7 29.34c-.9-.56-.93-1.52-.05-2.12l10.22-6.93c.88-.6 1.6-.25 1.6.8V23H34c1.1 0 2 .9 2 2v6c0 1.1-.9 2-2 2"/></g><g><path fill="#292f33" d="M.1 13.1c0 1.02.5 1.78 1.6 1.78h5.1c1 0 1.47-.7 1.47-1.42 0-.7-.5-1.43-1.47-1.43H3.18v-3h3.38c1 0 1.5-.7 1.5-1.42 0-.7-.52-1.4-1.5-1.4H3.18V3.05h3.8c1 0 1.47-.7 1.47-1.43C8.45.93 7.95.2 7 .2H1.66C.77.2.1.84.1 1.77V13.1z"/></g><g><path fill="#292f33" d="M9.5 13.4c0 1.02.67 1.6 1.55 1.6.4 0 1.03-.3 1.3-.68l6.53-8.7h.04v7.77c0 1.02.66 1.6 1.54 1.6.9 0 1.55-.58 1.55-1.6V1.7C22 .65 21.36.1 20.47.1c-.4 0-1 .3-1.3.67l-6.52 8.6h-.04V1.7c0-1.04-.66-1.6-1.55-1.6-.88 0-1.54.56-1.54 1.6v11.7z"/></g><g><path fill="#292f33" d="M26.84 3.05h2.08c2.65 0 3.87 1.96 3.87 4.43 0 2.64-1.25 4.55-4.1 4.55h-1.86V3.05zm-3.1 10.24c0 .94.66 1.58 1.6 1.58h3.4c4.62 0 7.26-2.97 7.26-7.54C36 3 33.2.2 28.96.2h-3.6c-.67 0-1.6.38-1.6 1.56V13.3z"/></g></g></g></g></svg>