<svg xmlns="http://www.w3.org/2000/svg" viewBox="0 0 45 45" enable-background="new 0 0 45 45"><defs><clipPath id="a"><path d="M0 36h36V0H0v36z"/></clipPath></defs><g><g><g clip-path="url(#a)" transform="matrix(1.25 0 0 -1.25 0 45)"><g><path fill="#292f33" d="M34 33H12.48v1.87c0 1.05-.75 1.44-1.65.87L.7 29.34c-.9-.56-.93-1.52-.05-2.12l10.22-6.93c.88-.6 1.6-.25 1.6.8V23H34c1.1 0 2 .9 2 2v6c0 1.1-.9 2-2 2"/></g><g><path fill="#292f33" d="M2.3 2.17h1.8c.8 0 1.4.47 1.4 1.3 0 .72-.54 1.2-1.6 1.2H2.3v-2.5zm0 4.5h1.18c.74 0 1.23.45 1.23 1.2 0 .72-.55 1.08-1.22 1.08H2.3V6.68zM.02 9.83c0 .72.5 1.13 1.2 1.13h2.9C5.73 10.95 7 9.9 7 8.3c0-1.07-.44-1.8-1.4-2.24v-.03c1.28-.18 2.3-1.26 2.3-2.58 0-2.13-1.43-3.3-3.52-3.3H1.24C.54.16.02.6.02 1.33v8.5z"/></g><g><path fill="#292f33" d="M11.68 4.38h2.88l-1.4 4.4h-.04l-1.44-4.4zm-.17 5.5c.27.7.86 1.25 1.63 1.25.8 0 1.37-.53 1.63-1.25l2.97-8.25c.1-.24.12-.45.12-.56 0-.6-.5-1-1.05-1-.63 0-.95.34-1.1.8l-.46 1.42h-4.2L10.56.87c-.15-.47-.46-.8-1.1-.8-.6 0-1.1.45-1.1 1.05 0 .25.07.43.1.5l3.04 8.25z"/></g><g><path fill="#292f33" d="M23.06 11.13c1.1 0 3.26-.36 3.26-1.7 0-.54-.38-1-.94-1-.62 0-1.05.52-2.32.52-1.88 0-2.85-1.6-2.85-3.44 0-1.8 1-3.34 2.86-3.34 1.27 0 1.8.64 2.4.64.7 0 1-.68 1-1.03 0-1.45-2.28-1.8-3.4-1.8-3.08 0-5.2 2.45-5.2 5.6 0 3.14 2.1 5.56 5.2 5.56"/></g><g><path fill="#292f33" d="M27.53 9.92c0 .62.46 1.12 1.14 1.12.65 0 1.13-.42 1.13-1.12V6.65l3.73 3.97c.17.18.46.42.88.42.6 0 1.13-.44 1.13-1.1 0-.38-.24-.7-.74-1.2l-2.87-2.82 3.5-3.65c.36-.36.63-.7.63-1.15 0-.7-.56-1.05-1.18-1.05-.44 0-.73.26-1.15.72L29.8 5.02V1.16c0-.6-.45-1.1-1.13-1.1-.65 0-1.14.44-1.14 1.1v8.76z"/></g></g></g></g></svg>