<svg xmlns="http://www.w3.org/2000/svg" viewBox="0 0 45 45" enable-background="new 0 0 45 45"><defs><clipPath id="a"><path d="M0 36h36V0H0v36z"/></clipPath></defs><g><g><g clip-path="url(#a)" transform="matrix(1.25 0 0 -1.25 0 45)"><g><path fill="#aab8c2" d="M13 33C7.48 33 3 28.52 3 23V13h4v10c0 3.3 2.7 6 6 6s6-2.7 6-6V13h4v10c0 5.52-4.48 10-10 10"/></g><g><path fill="#ffac33" d="M26 4c0-2.2-1.8-4-4-4H4C1.8 0 0 1.8 0 4v12c0 2.2 1.8 4 4 4h18c2.2 0 4-1.8 4-4V4z"/></g><g><path fill="#c1694f" d="M26 34c1.1 0 2-.9 2-2s-.9-2-2-2-2 .9-2 2 .9 2 2 2m9-7c0 4.97-4.03 9-9 9s-9-4.03-9-9c0-3.92 2.5-7.24 6-8.48V2.5C23 1.12 24.12 0 25.5 0c1.2 0 2.22.86 2.45 2 .02 0 .03 0 .05 0 .55 0 1 .45 1 1v1c0 .55-.45 1-1 1v1c.55 0 1 .45 1 1v2c0 .55-.45 1-1 1v2.28c.6.34 1 .98 1 1.72v4.52c3.5 1.24 6 4.56 6 8.48"/></g></g></g></g></svg>