<svg xmlns="http://www.w3.org/2000/svg" viewBox="0 0 45 45" enable-background="new 0 0 45 45"><defs><clipPath id="a"><path d="M0 36h36V0H0v36z"/></clipPath></defs><g><g><g clip-path="url(#a)" transform="matrix(1.25 0 0 -1.25 0 45)"><g><path fill="#aab8c2" d="M18 36c-4.6 0-8.48-3.13-9.64-7.37l3.86-1.05c.7 2.54 3 4.42 5.78 4.42 3.3 0 6-2.7 6-6V16h4v10c0 5.52-4.48 10-10 10"/></g><g><path fill="#ffac33" d="M31 4c0-2.2-1.8-4-4-4H9C6.8 0 5 1.8 5 4v12c0 2.2 1.8 4 4 4h18c2.2 0 4-1.8 4-4V4z"/></g></g></g></g></svg>