<svg xmlns="http://www.w3.org/2000/svg" viewBox="0 0 45 45" enable-background="new 0 0 45 45"><defs><clipPath id="a"><path d="M0 36h36V0H0v36z"/></clipPath><clipPath id="b"><path d="M23 23L13 13c-1-1 0-2 0-2l3-3c1-1 2 0 2 0l10 10c1 1 0 2 0 2l-3 3c-.33.33-.67.45-.96.45-.6 0-1.04-.45-1.04-.45"/></clipPath><clipPath id="c"><path d="M0 36h36V0H0v36z"/></clipPath><clipPath id="d"><path d="M11 35L1 25c-1-1 0-2 0-2l3-3c1-1 2 0 2 0l10 10c1 1 0 2 0 2l-3 3c-.33.33-.67.45-.96.45-.6 0-1.04-.45-1.04-.45"/></clipPath></defs><g><g><g clip-path="url(#a)" transform="matrix(1.25 0 0 -1.25 0 45)"><g><path fill="#8899a6" d="M35.35 5.35L10 30.7 5.3 26 30.64.65c.06-.06.6-.6 1.4-.6.46 0 .92.2 1.3.6l2 2c.55.54 1 1.7 0 2.7"/></g><g><path fill="#66757f" d="M30 1c-.1 0-.2.02-.32.05-.52.18-.8.74-.63 1.27l2 6c.18.52.74.8 1.27.63.52-.18.8-.74.63-1.27l-2-6C30.8 1.28 30.42 1 30 1"/></g><g><path fill="#66757f" d="M27 4c-.1 0-.2.02-.32.05-.52.18-.8.74-.63 1.27l2 6c.18.52.74.8 1.27.63.52-.18.8-.74.63-1.27l-2-6C27.8 4.28 27.42 4 27 4"/></g><g><path fill="#66757f" d="M24 7c-.1 0-.2.02-.32.05-.52.18-.8.74-.63 1.27l2 6c.18.52.74.8 1.27.63.52-.18.8-.74.63-1.27l-2-6C24.8 7.28 24.42 7 24 7"/></g><g><path fill="#66757f" d="M21 10c-.1 0-.2.02-.32.05-.52.18-.8.74-.63 1.27l2 6c.18.52.74.8 1.27.63.52-.18.8-.74.63-1.27l-2-6c-.14-.42-.53-.68-.95-.68"/></g><g><path fill="#66757f" d="M16 15c-.1 0-.2.02-.32.05-.52.18-.8.74-.63 1.27l2 6c.18.52.74.8 1.27.63.52-.18.8-.74.63-1.27l-2-6c-.14-.42-.53-.68-.95-.68"/></g><g><path fill="#66757f" d="M13 18c-.1 0-.2.02-.32.05-.52.18-.8.74-.63 1.27l2 6c.18.52.74.8 1.27.63.52-.18.8-.74.63-1.27l-2-6c-.14-.42-.53-.68-.95-.68"/></g><g><path fill="#66757f" d="M10 21c-.1 0-.2.02-.32.05-.52.18-.8.74-.63 1.27l2 6c.18.52.74.8 1.27.63.52-.18.8-.74.63-1.27l-2-6c-.14-.42-.53-.68-.95-.68"/></g><g><path fill="#ccd6dd" d="M13 11s-1 1 0 2l10 10s1 1 2 0l3-3s1-1 0-2L18 8s-1-1-2 0l-3 3z"/></g></g></g><g><g clip-path="url(#b)" transform="matrix(1.25 0 0 -1.25 0 45)"><g><path fill="#8899a6" d="M14 16l7.5-7.5L18 5l-7.3 7.3L14 16z"/></g><g><path fill="#e1e8ed" d="M20 22l7-7 3.5 3.5-6.48 6.48L20 22z"/></g></g></g><g><g clip-path="url(#c)" transform="matrix(1.25 0 0 -1.25 0 45)"><g><path fill="#ccd6dd" d="M1 23s-1 1 0 2l10 10s1 1 2 0l3-3s1-1 0-2L6 20s-1-1-2 0l-3 3z"/></g></g></g><g><g clip-path="url(#d)" transform="matrix(1.25 0 0 -1.25 0 45)"><g><path fill="#8899a6" d="M2 28l7.5-7.5L6 17l-7.3 7.3L2 28z"/></g><g><path fill="#e1e8ed" d="M8 34l7-7 3.5 3.5-6.48 6.48L8 34z"/></g></g></g></g></svg>