<svg xmlns="http://www.w3.org/2000/svg" viewBox="0 0 45 45" enable-background="new 0 0 45 45"><defs><clipPath id="a"><path d="M0 36h36V0H0v36z"/></clipPath></defs><g><g><g clip-path="url(#a)" transform="matrix(1.25 0 0 -1.25 0 45)"><g><path fill="#f4900c" d="M29.88 2.12C31.04.96 32.9.9 34 2s1.04 2.96-.12 4.12L12.12 27.88C10.95 29.05 9.1 29.1 8 28s-1.05-2.95.12-4.12L29.88 2.12z"/></g><g><path fill="#66757f" d="M22 33s-6 3-11-2l-7-7s-1 1-2 0l-1-1s-1-1 0-2l4-4s1-1 2 0l1 1s1 1 0 2c-.02.02-.05.05-.08.08.77.74 1.92 1.5 3.08.92l4 4s-1 3 1 5 3 2 5 2 1 1 1 1"/></g></g></g></g></svg>