<svg xmlns="http://www.w3.org/2000/svg" viewBox="0 0 45 45" enable-background="new 0 0 45 45"><defs><clipPath id="a"><path d="M0 36h36V0H0v36z"/></clipPath></defs><g><g><g clip-path="url(#a)" transform="matrix(1.25 0 0 -1.25 0 45)"><g><path fill="#3b88c3" d="M36 4c0-2.2-1.8-4-4-4H4C1.8 0 0 1.8 0 4v28c0 2.2 1.8 4 4 4h28c2.2 0 4-1.8 4-4V4z"/></g><g><path fill="#fff" d="M8.2 24.28h3.62l-1.76 5.5h-.04l-1.8-5.5zm-.2 6.9c.33.87 1.07 1.57 2.04 1.57 1 0 1.7-.66 2.03-1.57l3.72-10.34c.1-.3.15-.57.15-.7 0-.74-.6-1.25-1.32-1.25-.8 0-1.2.4-1.38.97l-.57 1.8H7.4l-.57-1.78c-.2-.6-.6-1-1.37-1-.76 0-1.4.56-1.4 1.32 0 .3.1.53.13.62L8 31.18z"/></g><g><path fill="#fff" d="M11.05 16.75c1.4 0 4.1-.45 4.1-2.12 0-.7-.5-1.28-1.2-1.28-.77 0-1.3.67-2.9.67-2.35 0-3.57-2-3.57-4.3 0-2.28 1.24-4.2 3.57-4.2 1.6 0 2.25.8 3.02.8.86 0 1.26-.87 1.26-1.3 0-1.83-2.87-2.25-4.28-2.25-3.85 0-6.53 3.06-6.53 7s2.66 6.98 6.53 6.98"/></g><g><path fill="#fff" d="M23.25 21.5h2.24c1.02 0 1.78.6 1.78 1.66 0 .9-.7 1.5-2 1.5h-2.03V21.5zm0 5.67h1.48c.93 0 1.54.55 1.54 1.5 0 .9-.7 1.35-1.54 1.35h-1.48v-2.85zM20.4 31.1c0 .9.63 1.43 1.5 1.43h3.65c1.97 0 3.57-1.33 3.57-3.35 0-1.33-.55-2.22-1.77-2.8v-.03c1.62-.23 2.9-1.57 2.9-3.23 0-2.68-1.8-4.12-4.42-4.12h-3.9c-.88 0-1.53.55-1.53 1.44V31.1z"/></g><g><path fill="#fff" d="M22.75 5.62h1.92c2.45 0 3.57 1.8 3.57 4.1 0 2.42-1.14 4.18-3.76 4.18h-1.73V5.62zm-2.85 9.44c0 .88.6 1.47 1.46 1.47h3.16c4.25 0 6.68-2.74 6.68-6.96 0-4-2.58-6.57-6.5-6.57h-3.3c-.63 0-1.5.34-1.5 1.43v10.63z"/></g></g></g></g></svg>