<svg xmlns="http://www.w3.org/2000/svg" viewBox="0 0 36 36"><path fill="#9AAAB4" d="M25 4H14c-1.104 0-2 .896-2 2H6c0-1.104-.896-2-2-2H3c-1.104 0-2 .896-2 2H0v5c0 1.104.896 2 2 2h10v4c0 3.865 3.134 7 7 7 3.581 0 6.585-2.53 7-6h1c1.104 0 2-.896 2-2V8c-2.209 0-4-1.791-4-4zm-6 18c-6 0-5.127-6.449-5-7l10 2c-.183 2.391-2.562 5-5 5z"/><path fill="#BF6952" d="M26 18l3-5s5 0 6 9l1 6s0 4-4 4h-2c-4 0-4-4-4-4V18z"/><path fill="#9AAAB4" d="M27 14c-1.104 0-2-.896-2-2 0-2.814 1.864-7 7-7 1.104 0 2 .896 2 2s-.896 2-2 2c-2.855 0-3 2.499-3 3 0 1.104-.896 2-2 2zm-8 1c0 1 0 3-1 4s2 1 3-1 1-2 1-3-3 0-3 0z"/><path fill="#67757F" d="M25 10c0 2.209-1.791 4-4 4h-5.995c-2.209 0-2-1.791-2-4H13c0-2.209-.204-4 2.005-4H21c2.209 0 4 1.791 4 4z"/><path fill="#CCD6DD" d="M20 9h-5c-.552 0-1-.448-1-1s.448-1 1-1h5c.553 0 1 .448 1 1s-.447 1-1 1zm0 4h-5c-.552 0-1-.448-1-1s.448-1 1-1h5c.553 0 1 .448 1 1s-.447 1-1 1z"/></svg>