<svg xmlns="http://www.w3.org/2000/svg" viewBox="0 0 45 45" enable-background="new 0 0 45 45"><defs><clipPath id="a"><path d="M0 36h36V0H0v36z"/></clipPath></defs><g><g><g clip-path="url(#a)" transform="matrix(1.25 0 0 -1.25 0 45)"><g><path fill="#292f33" d="M14.98 25.93c.78-.78.78-2.05 0-2.83l-2.83-2.83c-.78-.78-2.05-.78-2.83 0l-8.5 8.5c-.77.77-.77 2.03 0 2.82l2.84 2.8c.78.8 2.05.8 2.83 0l8.48-8.47z"/></g><g><path fill="#ccd6dd" d="M21.5 3.9C28.6-.37 35 1 35 1s1 0 .65 1c0 0-2.15 5.5-17.65 21-1 1-2.24.88-3.02.1L8.58 17c-.78-.78-.78-2.05 0-2.83L21.52 3.9z"/></g></g></g></g></svg>