<svg xmlns="http://www.w3.org/2000/svg" viewBox="0 0 45 45" enable-background="new 0 0 45 45"><defs><clipPath id="a"><path d="M0 36h36V0H0v36z"/></clipPath></defs><g><g><g clip-path="url(#a)" transform="matrix(1.25 0 0 -1.25 0 45)"><g><path fill="#f18f26" d="M30 4h-2c0 3.3-2.63 6-5.88 6-3.24 0-5.87-2.7-5.87-6H10c0 1.1-.9 2-2 2s-2-.9-2-2c-1.1 0-2-.9-2-2s.9-2 2-2h24c1.1 0 2 .9 2 2s-.9 2-2 2"/></g><g><path fill="#f18f26" d="M20 26v-4c3.87 0 7-3.13 7-7s-3.13-7-7-7h-8.48c2-2.44 5.06-4 8.48-4 6.08 0 11 4.92 11 11s-4.92 11-11 11"/></g><g><path fill="#f18f26" d="M28.04 26.93c-.78-.78-2.05-.78-2.83 0-.77.78-.77 2.05 0 2.83l2.13 2.12c.8.78 2.05.78 2.83 0 .78-.78.78-2.05 0-2.83l-2.12-2.12z"/></g><g><path fill="#fdcb58" d="M33.7 28.34c-.78-.78-2.05-.78-2.83 0l-4.24 4.25c-.78.77-.78 2.03 0 2.8.78.8 2.05.8 2.83 0l4.24-4.23c.78-.78.78-2.05 0-2.83"/></g><g><path fill="#fdcb58" d="M16.73 12.8c-.4-.4-1.03-.4-1.42 0l-4.23 4.23c-.4.4-.4 1.03 0 1.4L23.1 30.48c.38.38 1.02.38 1.4 0l4.25-4.25c.4-.4.4-1.02 0-1.4L16.73 12.78z"/></g><g><path fill="#f18f26" d="M18.14 14.2l-5.66 5.66 1.42 1.4 5.66-5.64-1.42-1.42z"/></g><g><path fill="#67757f" d="M16.4 5.6c-.77-.8-2.03-.8-2.8 0l-9.9 9.9c-.8.77-.8 2.03 0 2.8.77.8 2.03.8 2.82 0l9.9-9.9c.78-.77.78-2.03 0-2.8"/></g><g><path fill="#67757f" d="M8.95 6.46c.4-.4.4-1.02 0-1.4-.4-.4-1.02-.4-1.4 0L3.28 9.28c-.4.38-.4 1.02 0 1.4.38.4 1.02.4 1.4 0l4.25-4.24z"/></g></g></g></g></svg>