<svg xmlns="http://www.w3.org/2000/svg" viewBox="0 0 45 45" enable-background="new 0 0 45 45"><defs><clipPath id="a"><path d="M0 36h36V0H0v36z"/></clipPath></defs><g><g><g clip-path="url(#a)" transform="matrix(1.25 0 0 -1.25 0 45)"><g><path fill="#8ccaf7" d="M33 19.94c0-8.32-6.74-15.07-15.06-15.07S2.87 11.62 2.87 19.94 9.62 35 17.95 35 33 28.26 33 19.94"/></g><g><path fill="#bf6952" d="M30 3c0-1.1-.9-2-2-2H8c-1.1 0-2 .9-2 2v4c0 1.1.9 2 2 2h20c1.1 0 2-.9 2-2V3z"/></g><g><path fill="#5dadec" d="M27 22c0-2.2-1.8-4-4-4s-4 1.8-4 4 1.8 4 4 4 4-1.8 4-4"/></g><g><path fill="#5dadec" d="M18 16c0-1.66-1.34-3-3-3s-3 1.34-3 3 1.34 3 3 3 3-1.34 3-3"/></g><g><path fill="#5dadec" d="M18 29c0-1.1-.9-2-2-2s-2 .9-2 2 .9 2 2 2 2-.9 2-2"/></g></g></g></g></svg>