<svg xmlns="http://www.w3.org/2000/svg" viewBox="0 0 45 45" enable-background="new 0 0 45 45"><defs><clipPath id="a"><path d="M0 36h36V0H0v36z"/></clipPath></defs><g><g><g clip-path="url(#a)" transform="matrix(1.25 0 0 -1.25 0 45)"><g><path fill="#9266cc" d="M36 4c0-2.2-1.8-4-4-4H4C1.8 0 0 1.8 0 4v28c0 2.2 1.8 4 4 4h28c2.2 0 4-1.8 4-4V4z"/></g><g><path fill="#f5f8fa" d="M6.52 25.13L18.02 5.1 30.36 25.1H6.52zM18 1.83c-1 0-1.93.6-2.52 1.63L3.8 23.83c-.6 1.05-.65 2.15-.15 3.02.47.8 1.36 1.28 2.44 1.28h24.8c1.1 0 2-.47 2.45-1.3.48-.87.4-1.96-.24-3L20.48 3.38c-.6-.97-1.5-1.53-2.47-1.53"/></g><g><path fill="#f5f8fa" d="M6.53 11.5h23.85L18 31.54 6.54 11.5zm24.38-3H6.1c-1.1 0-1.97.47-2.45 1.28-.5.87-.44 1.97.16 3.02L15.5 33.17c.6 1.03 1.5 1.62 2.52 1.62.98 0 1.88-.57 2.48-1.54L33.1 12.8c.64-1.04.73-2.13.25-3-.46-.83-1.35-1.3-2.44-1.3"/></g><g><path fill="#f5f8fa" d="M22 18c0-2.2-1.8-4-4-4s-4 1.8-4 4 1.8 4 4 4 4-1.8 4-4"/></g></g></g></g></svg>