<svg xmlns="http://www.w3.org/2000/svg" viewBox="0 0 45 45" enable-background="new 0 0 45 45"><defs><clipPath id="a"><path d="M0 36h36V0H0v36z"/></clipPath><clipPath id="b"><path d="M17.58 26.83c-2.95-.23-5.66 2.54-4.66 7.04-3.24-2.38-3.34-6.4-2.34-9 1.04-2.7-.04-4.95-2.58-5.2C5.16 19.4 3.58 22.7 5.04 28 2.52 25.04 1 21.2 1 17 1 7.6 8.6 0 18 0s17 7.6 17 17c0 2.06-.37 4.04-1.04 5.87-.46-5.4-3.33-8.16-6.34-6.87-2.8 1.2-.9 5.92-.77 8.16.23 3.8 0 8.17-6.93 11.8 2.87-5.5.33-8.92-2.34-9.13"/></clipPath></defs><g><g><g clip-path="url(#a)" transform="matrix(1.25 0 0 -1.25 0 45)"><g><path fill="#f4900c" d="M35 17c0 2.06-.37 4.04-1.04 5.87-.46-5.4-3.33-8.16-6.33-6.87-2.82 1.2-.92 5.92-.78 8.16.23 3.8 0 8.17-6.93 11.8 2.87-5.5.33-8.92-2.34-9.13-2.95-.23-5.66 2.54-4.66 7.04-3.24-2.38-3.34-6.4-2.34-9 1.04-2.7-.04-4.95-2.58-5.2C5.16 19.4 3.58 22.7 5.04 28 2.52 25.04 1 21.2 1 17 1 7.6 8.6 0 18 0s17 7.6 17 17"/></g></g></g><g><g clip-path="url(#b)" transform="matrix(1.25 0 0 -1.25 0 45)"><g><path fill="#ffcc4d" d="M30 6c0 2.2-.58 4.24-1.6 6 .14-3.08-2.57-4.3-4.02-3.7-2.1.84-1.55 2.28-2.1 5.28-.53 3-2.6 5.1-5.7 6 2.25-6.33-1.24-8.66-3.08-9.08-1.87-.43-3.75 0-3.96 4C7.34 12.34 6 9.33 6 6 6-.63 11.37-6 18-6S30-.63 30 6"/></g></g></g></g></svg>