<svg xmlns="http://www.w3.org/2000/svg" viewBox="0 0 45 45" enable-background="new 0 0 45 45"><defs><clipPath id="a"><path d="M0 36h36V0H0v36z"/></clipPath></defs><g><g><g clip-path="url(#a)" transform="matrix(1.25 0 0 -1.25 0 45)"><g><path fill="#8899a6" d="M28 16.02c-.63 0-1.24-.07-1.82-.2L15.8 26.17c.14.58.22 1.2.22 1.8 0 4.43-3.58 8.02-8 8.02-.9 0-2.1-.92-1.1-1.9l3-3s.98-2-1-4c-2-2-4-1-4-1l-3 3C.9 30.1 0 28.9 0 28c0-4.44 3.6-8.02 8-8.02.63 0 1.24.07 1.82.2L20.2 9.83c-.15-.58-.22-1.2-.22-1.8 0-4.43 3.58-8.02 8-8.02.9 0 2.1.92 1.1 1.9l-3 3s-.98 2 1 4c2 2 4 1 4 1l3-3c1-1 1.92.2 1.92 1.1 0 4.44-3.6 8.02-8 8.02"/></g></g></g></g></svg>