<svg xmlns="http://www.w3.org/2000/svg" viewBox="0 0 45 45" enable-background="new 0 0 45 45"><defs><clipPath id="a"><path d="M0 36h36V0H0v36z"/></clipPath></defs><g><g><g clip-path="url(#a)" transform="matrix(1.25 0 0 -1.25 0 45)"><g><path fill="#3b88c3" d="M36 4c0-2.2-1.8-4-4-4H4C1.8 0 0 1.8 0 4v28c0 2.2 1.8 4 4 4h28c2.2 0 4-1.8 4-4V4z"/></g><g><path fill="#fff" d="M7.98 14.28c1.42 0 2.1 1.44 2.1 2.75 0 1.32-.66 2.8-2.1 2.8-1.5 0-2.17-1.48-2.17-2.8 0-1.3.7-2.75 2.18-2.75m4.84-.6c0-.7 0-1.8-1.3-1.8-.8 0-1.13.44-1.32 1.17-.7-.84-1.56-1.28-2.6-1.28-2.57 0-4.52 2.2-4.52 5.26 0 3 2 5.3 4.52 5.3 1 0 2-.4 2.6-1.25.08.67.65 1.14 1.3 1.14 1.32 0 1.32-1.08 1.32-1.8v-6.75z"/></g><g><path fill="#fff" d="M19.26 14.28c1.43 0 2.13 1.48 2.13 2.75 0 1.3-.7 2.8-2.14 2.8-1.46 0-2.14-1.37-2.14-2.7s.64-2.85 2.14-2.85M14.38 25.1c0 .92.57 1.53 1.37 1.53.8 0 1.37-.6 1.37-1.52V21.4c.72.63 1.65.95 2.6.95 2.94 0 4.4-2.75 4.4-5.4 0-2.6-1.74-5.16-4.5-5.16-.93 0-2 .42-2.5 1.26-.17-.73-.6-1.14-1.37-1.14-.8 0-1.37.6-1.37 1.5v11.7z"/></g><g><path fill="#fff" d="M32.1 19.3c-.7 0-1.3.53-2.18.53-1.56 0-2.3-1.4-2.3-2.8 0-1.34.82-2.75 2.3-2.75.7 0 1.7.57 2.03.57.65 0 1.18-.55 1.18-1.2 0-1.4-2.35-1.88-3.34-1.88-2.96 0-4.9 2.4-4.9 5.26 0 2.78 2 5.3 4.9 5.3 1.07 0 3.33-.4 3.33-1.72 0-.56-.4-1.3-1.04-1.3"/></g></g></g></g></svg>