<svg xmlns="http://www.w3.org/2000/svg" viewBox="0 0 45 45" enable-background="new 0 0 45 45"><defs><clipPath id="a"><path d="M0 36h36V0H0v36z"/></clipPath></defs><g><g><g clip-path="url(#a)" transform="matrix(1.25 0 0 -1.25 0 45)"><g><path fill="#ffcc4d" d="M7 13.73z"/></g><g><path fill="#ffcc4d" d="M29.06 13.73z"/></g><g><path fill="#ffcc4d" d="M35.9 16.4c-1.77-1.1-3.83-2-6.83-2.67.02 0 .08 0 .05-.02-.27-.05-.4-.12-.7-.18-1.03-.2-2.58-.3-2.07 1.1l2.13 2.9L29 17l4.5 4.5L29 26l-4.5-4.5 2.55-2.55-2.22-3.03c-1.67-2-4.78-1.33-4.78 1.08H20v6l5.5 5.5L18 36l-7.5-7.5L16 23v-6.2c-.16-2.24-3.14-2.82-4.77-.88L9 18.98l2.5 2.52L7 26l-4.5-4.5L7 17l.55.55L9.7 14.6c.52-1.38-1.02-1.3-2.07-1.08-.27.06-.42.13-.7.2-.02 0 .04 0 .06 0-3 .7-5.07 1.6-6.84 2.67 0-.16-.1-.3-.1-.47C.06 12.45 6.3 5 14.7 3.35L18 .02l3.35 3.33C29.72 5 36 12.45 36 15.93c0 .16-.1.3-.1.46"/></g></g></g></g></svg>