<svg xmlns="http://www.w3.org/2000/svg" viewBox="0 0 45 45" enable-background="new 0 0 45 45"><defs><clipPath id="a"><path d="M0 36h36V0H0v36z"/></clipPath></defs><g><g><g clip-path="url(#a)" transform="matrix(1.25 0 0 -1.25 0 45)"><g><path fill="#66757f" d="M17 0c-.5 0-1.02.2-1.4.6l-11 11c-.4.36-.6.87-.6 1.4v21c0 .8.5 1.54 1.24 1.85.74.3 1.6.14 2.17-.44l9.6-9.57 9.6 9.58c.56.6 1.42.76 2.17.45C29.5 35.55 30 34.8 30 34V13c0-.53-.2-1.04-.6-1.4l-11-11C18.03.2 17.5 0 17 0"/></g><g><path fill="#47ded4" d="M17 23l11 11V13L17 2v21z"/></g><g><path fill="#ffff87" d="M6 34l11-11V2L6 13v21z"/></g></g></g></g></svg>