<svg xmlns="http://www.w3.org/2000/svg" viewBox="0 0 45 45" enable-background="new 0 0 45 45"><defs><clipPath id="a"><path d="M0 36h36V0H0v36z"/></clipPath></defs><g><g><g clip-path="url(#a)" transform="matrix(1.25 0 0 -1.25 0 45)"><g><path fill="#9266cc" d="M36 4c0-2.2-1.8-4-4-4H4C1.8 0 0 1.8 0 4v28c0 2.2 1.8 4 4 4h28c2.2 0 4-1.8 4-4V4z"/></g><g><path fill="#fff" d="M18 11c-7.73 0-14 6.27-14 14H2C2 16.16 9.16 9 18 9s16 7.16 16 16h-2c0-7.73-6.27-14-14-14"/></g><g><path fill="#fff" d="M18 16c-4.97 0-9 4.03-9 9H7c0-6.08 4.92-11 11-11s11 4.92 11 11h-2c0-4.97-4.03-9-9-9"/></g><g><path fill="#fff" d="M18 21c-2.2 0-4 1.8-4 4h-2c0-3.3 2.7-6 6-6s6 2.7 6 6h-2c0-2.2-1.8-4-4-4"/></g><path fill="#fff" d="M19 4h-2v21h2V4z"/><path fill="#fff" d="M19 32h-2v-5h2v5z"/><path fill="#fff" d="M14 32h-2v-5h2v5z"/><path fill="#fff" d="M9 32H7v-5h2v5z"/><path fill="#fff" d="M4 32H2v-5h2v5z"/><path fill="#fff" d="M24 32h-2v-5h2v5z"/><path fill="#fff" d="M29 32h-2v-5h2v5z"/><path fill="#fff" d="M34 32h-2v-5h2v5z"/><g><path fill="#fff" d="M27 3c0-.55-.45-1-1-1H10c-.55 0-1 .45-1 1s.45 1 1 1h16c.55 0 1-.45 1-1"/></g><g><path fill="#fff" d="M24 4c0-1.1-.9-2-2-2h-8c-1.1 0-2 .9-2 2s.9 2 2 2h8c1.1 0 2-.9 2-2"/></g></g></g></g></svg>