<svg xmlns="http://www.w3.org/2000/svg" viewBox="0 0 45 45" enable-background="new 0 0 45 45"><defs><clipPath id="a"><path d="M0 36h36V0H0v36z"/></clipPath></defs><g><g><g clip-path="url(#a)" transform="matrix(1.25 0 0 -1.25 0 45)"><g><path fill="#f4900c" d="M23 31.67c0-4.36-9.84-6.65-9.84-13.2 0-2.2 1.1-4.47 2.18-4.47h15.29c1.1 0 2.2 2.28 2.2 4.47 0 6.55-9.83 8.84-9.83 13.2"/></g><g><path fill="#ffd983" d="M35 2.18C35 .98 34.7 0 32.8 0H13.17C11.26 0 11 .98 11 2.18V13.1c0 1.2.26 1.9 2.16 1.9H32.8c1.9 0 2.2-.7 2.2-1.9V2.2z"/></g><g><path fill="#ffd983" d="M23 2c0-1.1-.9-2-2-2H3C1.9 0 1 .9 1 2v1c0 1.1.9 2 2 2h18c1.1 0 2-.9 2-2V2z"/></g><g><path fill="#662113" d="M26 7c0 3-1.9 5-3 5s-3-2-3-5V0h6v7z"/></g><g><path fill="#662113" d="M18 4.67c0 2-1.26 3.33-2 3.33s-2-1.33-2-3.33V0h4v4.67z"/></g><g><path fill="#662113" d="M32 4.67c0 2-1.26 3.33-2 3.33s-2-1.33-2-3.33V0h4v4.67z"/></g><g><path fill="#ffd983" d="M9 2c0-1.1-.9-2-2-2H5C3.9 0 3 .9 3 2v26c0 1.1.9 2 2 2h2c1.1 0 2-.9 2-2V2z"/></g><g><path fill="#f4900c" d="M6 35.67c0-1.83-2.84-2.9-2.84-5.67 0-.92.32-2 .63-2h4.4c.3 0 .62 1.08.62 2 0 2.76-2.82 3.84-2.82 5.67"/></g><g><path fill="#ffac33" d="M10 24c0-.55-.45-1-1-1H3c-.55 0-1 .45-1 1s.45 1 1 1h6c.55 0 1-.45 1-1"/></g><g><path fill="#ffac33" d="M10 28c0-.55-.45-1-1-1H3c-.55 0-1 .45-1 1s.45 1 1 1h6c.55 0 1-.45 1-1"/></g></g></g></g></svg>