<svg xmlns="http://www.w3.org/2000/svg" viewBox="0 0 45 45" enable-background="new 0 0 45 45"><defs><clipPath id="a"><path d="M0 36h36V0H0v36z"/></clipPath></defs><g><g><g clip-path="url(#a)" transform="matrix(1.25 0 0 -1.25 0 45)"><g><path fill="#99aab5" d="M0 18C0 8.06 8.06 0 18 0s18 8.06 18 18-8.06 18-18 18S0 27.94 0 18"/></g><g><path fill="#e1e8ed" d="M4 18c0-7.73 6.27-14 14-14s14 6.27 14 14-6.27 14-14 14S4 25.73 4 18"/></g><g><path fill="#66757f" d="M17 18c0-.55.45-1 1-1s1 .45 1 1v11c0 .55-.45 1-1 1s-1-.45-1-1V18z"/></g><g><path fill="#66757f" d="M13 9.34c.48-.28 1.1-.1 1.37.36l4.5 7.8c.27.48.1 1.1-.37 1.36-.48.28-1.1.12-1.37-.36l-4.5-7.8c-.27-.47-.1-1.1.37-1.36"/></g></g></g></g></svg>