<svg xmlns="http://www.w3.org/2000/svg" viewBox="0 0 45 45" enable-background="new 0 0 45 45"><defs><clipPath id="a"><path d="M0 36h36V0H0v36z"/></clipPath></defs><g><g><g clip-path="url(#a)" transform="matrix(1.25 0 0 -1.25 0 45)"><g><path fill="#99aab5" d="M0 18C0 8.06 8.06 0 18 0s18 8.06 18 18-8.06 18-18 18S0 27.94 0 18"/></g><g><path fill="#e1e8ed" d="M32 18c0-7.73-6.27-14-14-14S4 10.27 4 18s6.27 14 14 14 14-6.27 14-14"/></g><g><path fill="#67757f" d="M18 5c-.55 0-1 .45-1 1v12c0 .55.45 1 1 1s1-.45 1-1V6c0-.55-.45-1-1-1"/></g><g><path fill="#67757f" d="M18 17c-.3 0-.62.15-.8.42-.33.45-.23 1.07.22 1.4l7 5c.45.3 1.07.2 1.4-.24.32-.45.2-1.07-.24-1.4l-7-5c-.17-.12-.38-.18-.58-.18"/></g></g></g></g></svg>