<svg xmlns="http://www.w3.org/2000/svg" viewBox="0 0 45 45" enable-background="new 0 0 45 45"><defs><clipPath id="a"><path d="M0 36h36V0H0v36z"/></clipPath></defs><g><g><g clip-path="url(#a)" transform="matrix(1.25 0 0 -1.25 0 45)"><g><path fill="#67757f" d="M20 14.5c0-.83-.67-1.5-1.5-1.5s-1.5.67-1.5 1.5v3c0 .83.67 1.5 1.5 1.5s1.5-.67 1.5-1.5v-3z"/></g><g><path fill="#e1e8ed" d="M27.14 2.18C27.18.98 26.2 0 25 0H12.18C10.98 0 10 .98 10 2.18V15c0 1.2.12 2.18 2.18 2.18C14.25 17.18 15 13 25 15c1.1 0 2.18-.98 2.14-2.18V2.18z"/></g><g><path fill="#fcab40" d="M18.7 17.46c-2.6 0-6.98 1.94-6.98 5.9 0 4 4.35 5.4 7 11.4.76 1.7 1 1.1 1.87.08 2.05-2.47 5.05-7.5 5.05-11.58 0-4.64-4.64-5.8-6.96-5.8"/></g><g><path fill="#fdcb58" d="M18.7 18.55c-4.2 0-3.5 5.8 0 9.3 2.3-1.17 5.8-9.3 0-9.3"/></g><g><path fill="#ccd6dd" d="M11 7c0-.55-.45-1-1-1s-1 .45-1 1v7c0 .55.45 1 1 1s1-.45 1-1V7z"/></g><g><path fill="#ccd6dd" d="M15 4c0-.55-.45-1-1-1s-1 .45-1 1v7c0 .55.45 1 1 1s1-.45 1-1V4z"/></g><g><path fill="#ccd6dd" d="M15 15c0-.55-.45-1-1-1s-1 .45-1 1v1c0 .55.45 1 1 1s1-.45 1-1v-1z"/></g></g></g></g></svg>