<svg xmlns="http://www.w3.org/2000/svg" viewBox="0 0 45 45" enable-background="new 0 0 45 45"><defs><clipPath id="a"><path d="M0 36h36V0H0v36z"/></clipPath></defs><g><g><g clip-path="url(#a)" transform="matrix(1.25 0 0 -1.25 0 45)"><g><path fill="#292f33" d="M21.83.34c-.16.2-.25.43-.25.7 0 .6.5 1.1 1.1 1.12h3.18c.6 0 1.1-.48 1.12-1.1 0-.6-.5-1.1-1.1-1.12H22.7c-.35 0-.67.15-.87.4"/></g><g><path fill="#292f33" d="M7.32.34c-.15.2-.25.43-.25.7 0 .6.5 1.1 1.1 1.12h3.18c.6 0 1.12-.48 1.12-1.1 0-.6-.5-1.1-1.1-1.12H8.18c-.36 0-.67.15-.88.4"/></g><g><path fill="#f7dece" d="M28.15 27c-.42.34-.53.96-.24 1.43l2.26 1.63c.5.37 1.2.26 1.56-.24.36-.5.25-1.2-.25-1.56l-1.66-1c-.3-.52-1-.68-1.52-.36-.05.03-.1.06-.13.1"/></g><g><path fill="#292f33" d="M28.65 29.33l-4.05-2.58-5.07-.43s-6.83-.85-9.05-1.47c-3.82-1.06-1.93-4-1.93-4l2.6-4.16 1.3 1.72-1.73 3.7 4.87.9 4-.53 6.6 1.74L30.1 27l-1.45 2.33z"/></g><g><path fill="#f7dece" d="M20.34 30.65c0 1.84-1.3 3.34-2.93 3.34-1.6 0-2.92-1.5-2.92-3.35 0-1.44.8-2.65 1.9-3.13l.25-2.5c.06-.6.6-1.05 1.22-1 .62.07 1.06.62 1 1.23l-.24 2.35c1.03.53 1.74 1.7 1.74 3.05"/></g><g><path fill="#292f33" d="M18.98 32.92s-1.14-1.07-2.35-1.25c0 0-.72-1.17-.76-1.85 0 0-.45 1.08-.8.9-.37-.18-.5-.85-.2-1.3.32-.45.7-1.23.37-1-.7.44-.8.76-.98 1.06-.12.2-.42.95-.46 2.17-.03.72.23 2.1 1.7 2.85 1.28.65 3.3.32 4.24-.36.94-.67 1.18-2.38.6-3.05 0 0-.1.62-.5 1.13-.22.28-.86.7-.86.7"/></g><g><path fill="#dd2e44" d="M13.5 25.47s.26-3.96-.3-8.34c.98 0 7.38.02 7.38.02s1.16 2.03 1 4.2c-.16 2.2-1.04 4.83-1.04 4.83l-1.08.1-.22 1.02-1.05-.4-.16-1.75-.46 1.66-1.55.15-.18-1.07-2.35-.4z"/></g><g><path fill="#292f33" d="M12.87 25.35s.7-2.44.4-7.5c2.22.04 3.95.73 3.95.73s.15 1.92-.22 3.62c-.55 2.47-1.1 3.92-1.1 3.92l-3.03-.77z"/></g><g><path fill="#292f33" d="M19.4 26.6s.6-3.28.47-5.23c-.14-1.95-.23-2.7-.23-2.7s.35-.3 1.48-.3c.46 1.23.84 3.52.78 5.02-.06 1.58-1 3.12-1 3.12l-1.5.08z"/></g><g><path fill="#292f33" d="M13.2 17.13S12.54 11.5 11.8 10c-.8-2.58-4.54-8.36-4.54-8.36l2.53-.6s4.3 4.65 5.43 6.6c1.2 2.18 2.2 5.5 2.2 5.5s2.58-2.26 3.73-3.95c.73-2.02.45-8.16.45-8.16h3.03s1.55 6.38.3 9.6c-.6 1.54-4.32 6.5-4.32 6.5H13.2z"/></g><g><path fill="#f7dece" d="M14.73 15.9c-.27-.48-.85-.7-1.38-.5l-2.2 1.3 1.3 1.72 1.72-.94c.57-.23.86-.87.63-1.45-.02-.05-.04-.1-.07-.14"/></g></g></g></g></svg>