<svg xmlns="http://www.w3.org/2000/svg" viewBox="0 0 45 45" enable-background="new 0 0 45 45"><defs><clipPath id="a"><path d="M0 36h36V0H0v36z"/></clipPath></defs><g><g><g clip-path="url(#a)" transform="matrix(1.25 0 0 -1.25 0 45)"><g><path fill="#292f33" fill-rule="evenodd" d="M1.24 20.98c.24-.24 1.44-.96 1.68-1.67.24-.7.72-5.3 2.16-6.5 1.48-1.23 7.07-.77 8.14-.24 2.4 1.2 2.7 5.06 3.12 6.75.24.96 1.68.96 1.68.96s1.44 0 1.67-.95c.42-1.68.7-5.55 3.1-6.75 1.08-.53 6.68-1 8.16.24 1.44 1.2 1.92 5.8 2.16 6.5.23.73 1.43 1.44 1.67 1.68.23.24.23 1.2 0 1.44-.5.48-6.14.9-12.23.24-1.2-.14-1.68-.48-4.55-.48-2.88 0-3.34.34-4.56.48-6.08.66-11.74.24-12.22-.24-.24-.24-.24-1.2 0-1.44"/></g></g></g></g></svg>