<svg xmlns="http://www.w3.org/2000/svg" viewBox="0 0 45 45" enable-background="new 0 0 45 45"><defs><clipPath id="a"><path d="M0 36h36V0H0v36z"/></clipPath></defs><g><g><g clip-path="url(#a)" transform="matrix(1.25 0 0 -1.25 0 45)"><g><path fill="#662113" d="M2 7L1 1h8s1 2 3 2h6v4H2z"/></g><g><path fill="#662113" d="M34 7l1-6h-8s-1 2-3 2h-6v4h16z"/></g><g><path fill="#662113" d="M6 16c0-1 0-8-4-8l8-1-4 9z"/></g><g><path fill="#662113" d="M30 16c0-1 0-8 4-8l-8-1 4 9z"/></g><g><path fill="#662113" d="M30 16c0-6.63-5.37-12-12-12S6 9.37 6 16s5.37 12 12 12 12-5.37 12-12"/></g><g><path fill="#a0041e" d="M10 1c0-.55-.45-1-1-1H1C.45 0 0 .45 0 1s.45 1 1 1h8c.55 0 1-.45 1-1"/></g><g><path fill="#a0041e" d="M36 1c0-.55-.45-1-1-1h-8c-.55 0-1 .45-1 1s.45 1 1 1h8c.55 0 1-.45 1-1"/></g><g><path fill="#a0041e" d="M35 7c0-.55-.45-1-1-1H2c-.55 0-1 .45-1 1s.45 1 1 1h32c.55 0 1-.45 1-1"/></g><g><path fill="#ffac33" d="M27 16c0-4.97-4.03-9-9-9s-9 4.03-9 9 4.03 9 9 9 9-4.03 9-9"/></g><g><path fill="#f5f8fa" d="M26 16c0-4.42-3.58-8-8-8s-8 3.58-8 8 3.58 8 8 8 8-3.58 8-8"/></g><g><path fill="#c1694f" d="M18 16s-.12-1-1.5-1-3.5 1-3.5 1 2.12 1 3.5 1 1.5-1 1.5-1"/></g><g><path fill="#c1694f" d="M19 19.5c0-1.93-.45-3.5-1-3.5s-1 1.57-1 3.5 1 3.5 1 3.5 1-1.57 1-3.5"/></g><g><path fill="#662113" d="M18.6 16c0-.32-.28-.6-.6-.6-.32 0-.6.28-.6.6 0 .32.28.6.6.6.32 0 .6-.28.6-.6"/></g></g></g></g></svg>