<svg xmlns="http://www.w3.org/2000/svg" viewBox="0 0 45 45" enable-background="new 0 0 45 45"><defs><clipPath id="a"><path d="M0 36h36V0H0v36z"/></clipPath></defs><g><g><g clip-path="url(#a)" transform="matrix(1.25 0 0 -1.25 0 45)"><g><path fill="#66757f" d="M17.16 32c.12.12.24.27.35.4V29.08c-.82-.92-1.87-1.68-3.04-2.17-1.3-.55-2.67-.76-4.04-.66l-.98.98-1.23 1.22c3.36-.1 6.6 1.18 8.96 3.53m1.66 0c2.35-2.36 5.6-3.65 8.95-3.54l-1.23-1.23-.97-.98c-1.37-.1-2.75.12-4.05.66-1.17.5-2.2 1.24-3.03 2.16v3.3c.1-.12.2-.25.32-.37M32 18.8c.1-.12.24-.22.36-.33h-3.3c-.92.82-1.65 1.85-2.15 3.03-.53 1.3-.75 2.67-.65 4.04l.98.97 1.23 1.23c-.1-3.34 1.18-6.6 3.53-8.95m-3.53-10.6l-1.23 1.22-.97.98c-.1 1.37.1 2.74.66 4.04.5 1.17 1.25 2.22 2.16 3.06h3.29c-.13-.1-.28-.24-.4-.36-2.35-2.35-3.64-5.6-3.53-8.95M18.84 4c-.12-.12-.24-.27-.35-.4V6.92c.82.92 1.87 1.68 3.04 2.17 1.3.55 2.68.77 4.04.66l2.2-2.2c-3.34.1-6.6-1.18-8.94-3.53m-1.66 0c-2.35 2.36-5.6 3.65-8.95 3.54l1.23 1.23.97.98c1.37.1 2.75-.12 4.05-.66 1.17-.5 2.2-1.24 3.03-2.16v-3.3c-.1.12-.2.25-.32.37M4 17.2c-.1.12-.24.22-.36.34h3.3c.92-.84 1.65-1.87 2.15-3.04.53-1.3.75-2.68.65-4.04l-.98-.98-1.23-1.23c.1 3.34-1.18 6.6-3.53 8.95m9 5.12c-.06-.62-.2-1.23-.43-1.83-.26-.7-.66-1.4-1.08-1.98H8.26c.68.76 1.3 1.68 1.7 2.66.47 1.1.7 2.27.75 3.43l2.3-2.3zm4.5 5.43V24.5c-.58-.4-1.26-.8-1.96-1.07-.6-.22-1.22-.37-1.84-.44l-.62.6-1.67 1.68c1.17.04 2.33.3 3.44.75.98.4 1.9 1.02 2.67 1.7m5.4-4.14l-.6-.63c-.63.08-1.25.22-1.85.44-.7.28-1.37.64-1.96 1.08v3.22c.77-.7 1.66-1.27 2.65-1.68 1.1-.47 2.26-.7 3.43-.75L22.9 23.6zm1.57-5.1c-.43.58-.8 1.24-1.06 1.95-.2.6-.35 1.22-.43 1.84l.62.6 1.67 1.68c.04-1.17.28-2.33.75-3.43.4-1 1-1.88 1.68-2.66h-3.23zm-.86-5.42l-.6.62c.06.62.2 1.24.43 1.84.26.7.66 1.38 1.08 1.98H27.74c-.68-.78-1.3-1.7-1.7-2.68-.46-1.1-.7-2.27-.75-3.43L23.6 13.1zm-5.1-4.8v3.2c.58.44 1.26.83 1.97 1.1.6.22 1.2.36 1.83.43l2.3-2.28c-1.17-.04-2.33-.28-3.44-.75-.98-.4-1.9-1.02-2.67-1.7m-5.4 4.14l.62.63c.62-.08 1.23-.22 1.83-.44.7-.28 1.37-.64 1.96-1.07V8.3c-.77.7-1.66 1.27-2.65 1.68-1.1.47-2.26.7-3.43.76l1.68 1.67zm-.5 3.15c.2-.6.35-1.2.43-1.83l-.62-.62-1.67-1.68c-.04 1.17-.28 2.33-.75 3.43-.4 1-1 1.88-1.68 2.67h3.23c.43-.6.8-1.26 1.06-1.97m2.8 4.35c0-.08.02-.15 0-.23-.02-.33-.12-.64-.28-.93-.05-.1-.12-.17-.18-.25h-2.28c.3.5.6 1.06.82 1.63.17.43.28.88.38 1.33l1.55-1.56zm2.1 3.44v-2.28c-.07-.06-.15-.12-.24-.18-.1-.06-.22-.1-.33-.16-.2-.07-.4-.1-.6-.13-.07-.02-.15 0-.23 0l-1.56 1.55c.45.1.9.2 1.33.37.57.2 1.14.5 1.64.82m2.4-2.76c-.08 0-.16 0-.23 0-.33.04-.65.14-.94.3-.1.05-.16.1-.24.17v2.26c.5-.3 1.04-.58 1.6-.8.45-.16.9-.28 1.34-.37l-1.55-1.55zm1.16-2.1c-.06.08-.12.15-.16.23-.17.3-.27.62-.3.96-.02.08 0 .16 0 .24l1.53 1.54c.1-.44.2-.9.37-1.33.22-.56.5-1.1.8-1.6h-2.24zm-.45-2.4c0 .08 0 .16 0 .24.03.2.07.4.14.6.04.1.1.22.17.33.06.1.13.18.2.27h2.24c-.3-.5-.6-1.08-.82-1.65-.16-.43-.28-.88-.38-1.33l-1.53 1.54zm-2.1-3.42v2.25c.08.07.16.14.26.2.3.16.6.26.93.3.06 0 .14 0 .22 0l1.54-1.54c-.45-.1-.9-.2-1.33-.38-.57-.2-1.14-.5-1.64-.82m-2.38 2.77c.07 0 .14 0 .22 0 .2-.02.4-.06.6-.13.12-.05.25-.12.37-.2.08-.03.15-.1.2-.14V12.7c-.5.3-1.04.58-1.6.8-.45.16-.9.28-1.34.37l1.56 1.56zm-1.17 2.1c.06-.1.12-.17.17-.25.16-.3.26-.6.3-.93 0-.08 0-.17 0-.25l-1.55-1.54c-.1.45-.2.9-.37 1.33-.22.56-.5 1.1-.8 1.62h2.25zm4.67 2.1c.06-.6.26-1.16.6-1.65-.15-.23-.3-.47-.4-.73-.1-.3-.15-.6-.18-.9-.3 0-.6-.07-.87-.17s-.5-.24-.73-.4c-.24.18-.5.32-.78.43-.28.12-.58.17-.88.2-.05.58-.25 1.13-.58 1.6.16.24.3.48.4.75.1.28.15.58.18.87.3.03.6.08.88.2.27.1.5.23.74.38.48-.33 1.04-.53 1.62-.58M7.52 27.8l2.2-2.22c.12-1.36-.1-2.74-.65-4.04-.5-1.17-1.25-2.22-2.16-3.05H3.62c.13.1.28.22.4.34 2.35 2.35 3.64 5.6 3.53 8.95M6.67 5.97l.48.48C11.12 7 15.12 5.3 17.5 2.1v-.6c0-.28.23-.5.5-.5s.5.22.5.5v.62c2.38 3.2 6.36 4.9 10.34 4.35l.48-.48c.06-.06.13-.1.2-.12 0 0 .02 0 .03 0 .16-.04.33 0 .46.1.13.14.16.3.13.47 0 0 0 .02 0 .03-.03.07-.06.14-.12.2l-.47.48c-.54 3.98 1.14 7.96 4.35 10.36h.63c.28 0 .5.2.5.48 0 .27-.22.5-.5.5h-.6c-3.2 2.38-4.9 6.4-4.36 10.36l.48.47c.2.2.2.5 0 .7-.06.06-.15.1-.23.1-.17.05-.34.02-.47-.1l-.47-.5c-3.98-.52-7.98 1.18-10.37 4.37v.62c0 .26-.23.48-.5.48s-.5-.22-.5-.48v-.64c-2.38-3.2-6.36-4.9-10.34-4.35l-.48.48c-.06.07-.13.1-.2.12 0 0-.02 0-.03 0-.16.05-.33 0-.46-.1-.13-.14-.16-.3-.13-.47 0 0 0-.02 0-.03.03-.07.07-.14.12-.2l.47-.48C7 24.86 5.33 20.88 2.12 18.5H1.5c-.28 0-.5-.23-.5-.5s.22-.48.5-.48h.6c3.2-2.4 4.9-6.4 4.36-10.37l-.48-.48c-.12-.13-.16-.3-.12-.46.02-.07.05-.15.12-.22.2-.2.5-.2.7 0"/></g></g></g></g></svg>