<svg xmlns="http://www.w3.org/2000/svg" viewBox="0 0 45 45" enable-background="new 0 0 45 45"><defs><clipPath id="a"><path d="M0 36h36V0H0v36z"/></clipPath></defs><g><g><g clip-path="url(#a)" transform="matrix(1.25 0 0 -1.25 0 45)"><g><path fill="#d5ab88" d="M14 14c0-.55-.45-1-1-1s-1 .45-1 1v8c0 .55.45 1 1 1s1-.45 1-1v-8z"/></g><g><path fill="#d5ab88" d="M24 14c0-.55-.45-1-1-1s-1 .45-1 1v8c0 .55.45 1 1 1s1-.45 1-1v-8z"/></g><g><path fill="#66757f" d="M19 17h-5l1-11h3v7-7h3l1 11h-3z"/></g><g><path fill="#546170" d="M18 13c-.55 0-1-7-1-7 0-.55.45 0 1 0s1-.55 1 0c0 0-.45 7-1 7"/></g><g><path fill="#292f33" d="M22 25h-8c-1.1 0-2-.9-2-2v-8h2v-1h2l2 1 2-1h2v1h2v8c0 1.1-.9 2-2 2"/></g><g><path fill="#292f33" d="M16.64 6.52c1.1 0 1.35-.16 1.36-.52.05-1.38-1.8-3.48-3.14-2.98-.86.32-.42 1.9.14 2.98.23.44.96.52 1.64.52"/></g><g><path fill="#292f33" d="M19.36 6.52C18.26 6.52 18 6.36 18 6c-.05-1.38 1.8-3.48 3.14-2.98.86.32.42 1.9-.14 2.98-.23.44-.96.52-1.64.52"/></g><g><path fill="#e1e8ed" d="M18 18l-2 7h4l-2-7z"/></g><g><path fill="#55acee" d="M17 21l1-3 1 3-1 2.42L17 21z"/></g><g><path fill="#d5ab88" d="M16.8 26v-1.6L18 24l1.2.4V26h-2.4z"/></g><g><path fill="#d5ab88" d="M15.3 29.18c0-.6-.3-1.07-.67-1.07-.36 0-.66.5-.66 1.08 0 .6.3 1.07.66 1.07.37 0 .67-.48.67-1.07"/></g><g><path fill="#d5ab88" d="M22 29.18c0-.6-.3-1.07-.67-1.07-.37 0-.67.5-.67 1.08 0 .6.3 1.07.67 1.07.37 0 .67-.48.67-1.07"/></g><g><path fill="#d5ab88" d="M18 25.1c-1.92 0-3.48 1.84-3.48 4.13 0 2.28 1.56 4.13 3.48 4.13s3.48-1.85 3.48-4.13c0-2.3-1.56-4.14-3.48-4.14"/></g><g><path fill="#c1694f" d="M19.3 26.9c0 .03-.04.04-.07.04h-2.45c-.03 0-.06 0-.08-.04 0-.02 0-.05 0-.08.02-.03.37-.7 1.3-.7.94 0 1.3.67 1.3.7.02.03.02.06 0 .08"/></g><g><path fill="#c1694f" d="M18 28.06c-.26 0-.47.05-.64.13.06-.2.2-.5.65-.5.44 0 .6.3.65.5-.16-.1-.37-.14-.64-.14"/></g><g><path fill="#963b22" d="M14.83 29.6c.06.3.15.55.24.78h-.77c.12-.88.46-1.1.53-.78"/></g><g><path fill="#963b22" d="M21.17 29.73c.24-.47.48-.15.55.77h-.94c.1-.2.25-.5.4-.77"/></g><g><path fill="#66757f" d="M16 25l-1-3 1.25-.34-.7-1.13L18 18l-2 7z"/></g><g><path fill="#66757f" d="M20 25l1-3-1.25-.34.7-1.13L18 18l2 7z"/></g><g><path fill="#55acee" d="M17 24l1-1 1 1-1 .42-1-.42z"/></g><g><path fill="#f5f8fa" d="M16.56 25.44L18 24.42l-.94-1L16 25l.56.44z"/></g><g><path fill="#f5f8fa" d="M19.44 25.44L18 24.42l.94-1L20 25l-.56.44z"/></g><g><path fill="#99aab5" d="M24 1c0-.55-2.7-1-6-1s-6 .45-6 1 2.7 1 6 1 6-.45 6-1"/></g><g><path fill="#292f33" d="M23.23 31.17c0-.66-2.34-1.34-5.22-1.34-2.87 0-5.2.68-5.2 1.34s1.18.9 5.2.9c4.03 0 5.23-.24 5.23-.9"/></g><g><path fill="#292f33" d="M20.2 31.98c.67.17 1.2.45 1.2.45s-.13.58-.27.95c-.44 1.16-1.17 1.73-1.85 1.56-1.02-.26-1.5-.1-2.7.04-1.22.14-1.78-1.7-1.98-2.55 0 0 .32-.27.9-.4 1.23-.27 3.77-.27 4.7-.05"/></g><g><path fill="#66757f" d="M21.58 31.77c0 .07-.02.15-.04.22-.05.22-.13.43-.13.43S20.3 32 18 32s-3.4.43-3.4.43-.08-.2-.12-.44c-.02-.08-.03-.16-.05-.23-.04-.27.08-.46.97-.64.6-.13 1.58-.25 2.6-.22 1.03-.02 2.02.1 2.62.23.88.18 1 .37.96.64"/></g><g><path fill="#292f33" d="M21.5 30.1l-.97-.3c-.33.03-1.03.05-1.78-.03-.2-.02-.27-.08-.73-.08-.47 0-.55.05-.74.07-.74.08-1.44.06-1.78.02l-.96.3c-.1.04-.2-.02-.22-.1-.03-.1.02-.2.1-.23l.9-.3c.07-.05.2-.14.25-.24.04-.12.1-.86.35-1.06.24-.2 1.14-.12 1.32-.04.4.2.44.82.5 1.1.04.15.28.15.28.15s.23 0 .27-.15c.06-.28.1-.9.5-1.1.17-.08 1.07-.16 1.32.04.23.2.3.94.35 1.06.03.1.17.2.24.24l.9.3c.1.03.14.13.1.22-.02.08-.12.14-.2.1"/></g></g></g></g></svg>