<?xml version="1.0" encoding="UTF-8" standalone="no"?><svg xmlns:dc="http://purl.org/dc/elements/1.1/" xmlns:cc="http://creativecommons.org/ns#" xmlns:rdf="http://www.w3.org/1999/02/22-rdf-syntax-ns#" xmlns:svg="http://www.w3.org/2000/svg" xmlns="http://www.w3.org/2000/svg" viewBox="0 0 45 45" style="enable-background:new 0 0 45 45;" xml:space="preserve" version="1.1" id="svg2"><metadata id="metadata8"><rdf:RDF><cc:Work rdf:about=""><dc:format>image/svg+xml</dc:format><dc:type rdf:resource="http://purl.org/dc/dcmitype/StillImage"/></cc:Work></rdf:RDF></metadata><defs id="defs6"><clipPath id="clipPath16" clipPathUnits="userSpaceOnUse"><path id="path18" d="M 0,36 36,36 36,0 0,0 0,36 Z"/></clipPath></defs><g transform="matrix(1.25,0,0,-1.25,0,45)" id="g10"><g id="g12"><g clip-path="url(#clipPath16)" id="g14"><g transform="translate(14,14)" id="g20"><path id="path22" style="fill:#ffdc5d;fill-opacity:1;fill-rule:nonzero;stroke:none" d="m 0,0 c 0,-0.553 -0.448,-1 -1,-1 -0.552,0 -1,0.447 -1,1 l 0,8 c 0,0.552 0.448,1 1,1 0.552,0 1,-0.448 1,-1 L 0,0 Z"/></g><g transform="translate(24,14)" id="g24"><path id="path26" style="fill:#ffdc5d;fill-opacity:1;fill-rule:nonzero;stroke:none" d="m 0,0 c 0,-0.553 -0.447,-1 -1,-1 -0.553,0 -1,0.447 -1,1 l 0,8 c 0,0.552 0.447,1 1,1 0.553,0 1,-0.448 1,-1 L 0,0 Z"/></g><g transform="translate(18.3594,35.5)" id="g28"><path id="path30" style="fill:#ffac33;fill-opacity:1;fill-rule:nonzero;stroke:none" d="m 0,0 c -0.853,0 -1.641,-0.273 -2.286,-0.731 -1.327,-0.07 -2.386,-1.159 -2.386,-2.503 0,-1.109 0.005,-2.504 1.465,-3.025 0.717,-0.996 1.885,-1.647 3.207,-1.647 2.183,0 3.953,1.769 3.953,3.952 C 3.953,-1.77 2.183,0 0,0"/></g><g transform="translate(19,17)" id="g32"><path id="path34" style="fill:#66757f;fill-opacity:1;fill-rule:nonzero;stroke:none" d="m 0,0 -2,0 -3,0 1,-11 3,0 0,7 0,-7 3,0 1,11 -3,0 z"/></g><g transform="translate(18,13)" id="g36"><path id="path38" style="fill:#546170;fill-opacity:1;fill-rule:nonzero;stroke:none" d="m 0,0 0,0 c -0.552,0 -1,-7 -1,-7 0,-0.553 0.448,0 1,0 0.553,0 1,-0.553 1,0 0,0 -0.447,7 -1,7"/></g><g transform="translate(22,25)" id="g40"><path id="path42" style="fill:#292f33;fill-opacity:1;fill-rule:nonzero;stroke:none" d="m 0,0 -2,0 -4,0 -2,0 c -1.104,0 -2,-0.895 -2,-2 l 0,-8 2,0 0,-1 2,0 2,1 2,-1 2,0 0,1 2,0 0,8 C 2,-0.895 1.105,0 0,0"/></g><g transform="translate(18,18)" id="g44"><path id="path46" style="fill:#e1e8ed;fill-opacity:1;fill-rule:nonzero;stroke:none" d="M 0,0 0,0 -2,7 2,7 0,0 Z"/></g><g transform="translate(17,21)" id="g48"><path id="path50" style="fill:#55acee;fill-opacity:1;fill-rule:nonzero;stroke:none" d="M 0,0 1,-3 2,0 1,2.417 0,0 Z"/></g><g transform="translate(16.5625,27.5938)" id="g52"><path id="path54" style="fill:#ffdc5d;fill-opacity:1;fill-rule:nonzero;stroke:none" d="M 0,0 0,-2.74 1.437,-3.177 2.875,-2.74 2.875,0 0,0 Z"/></g><g transform="translate(21.5938,33.3438)" id="g56"><path id="path58" style="fill:#ffdc5d;fill-opacity:1;fill-rule:nonzero;stroke:none" d="m 0,0 -7.187,0 0,-4.312 0,-10e-4 c 0,-1.985 1.608,-3.593 3.593,-3.593 1.986,0 3.594,1.608 3.594,3.593 L 0,-4.312 0,0 Z"/></g><g transform="translate(16.4751,33.4312)" id="g60"><path id="path62" style="fill:#ffac33;fill-opacity:1;fill-rule:nonzero;stroke:none" d="m 0,0 -2.287,0 0,-3.05 c 1.779,0 2.173,1.84 2.26,2.659 C 0.003,-1.21 0.594,-3.05 5.336,-3.05 L 5.336,0 0,0 Z"/></g><g transform="translate(19.4375,26.875)" id="g64"><path id="path66" style="fill:#c1694f;fill-opacity:1;fill-rule:nonzero;stroke:none" d="m 0,0 -1.437,0 -1.438,0 c 0,0 0,-0.719 1.438,-0.719 C 0,-0.719 0,0 0,0"/></g><g transform="translate(16.5625,29.3906)" id="g68"><path id="path70" style="fill:#662113;fill-opacity:1;fill-rule:nonzero;stroke:none" d="m 0,0 c 0,-0.199 -0.161,-0.359 -0.359,-0.359 -0.199,0 -0.36,0.16 -0.36,0.359 0,0.199 0.161,0.359 0.36,0.359 C -0.161,0.359 0,0.199 0,0"/></g><g transform="translate(20.1563,29.3906)" id="g72"><path id="path74" style="fill:#662113;fill-opacity:1;fill-rule:nonzero;stroke:none" d="m 0,0 c 0,-0.199 -0.16,-0.359 -0.359,-0.359 -0.2,0 -0.36,0.16 -0.36,0.359 0,0.199 0.16,0.359 0.36,0.359 C -0.16,0.359 0,0.199 0,0"/></g><g transform="translate(17.2813,28.3125)" id="g76"><path id="path78" style="fill:#c1694f;fill-opacity:1;fill-rule:nonzero;stroke:none" d="m 0,0 0.719,0 0.718,0 c 0,0 0,-0.719 -0.718,-0.719 C 0,-0.719 0,0 0,0"/></g><g transform="translate(16.6396,6.5205)" id="g80"><path id="path82" style="fill:#292f33;fill-opacity:1;fill-rule:nonzero;stroke:none" d="M 0,0 C 1.105,0 1.346,-0.159 1.359,-0.521 1.411,-1.896 -0.427,-4 -1.781,-3.5 c -0.86,0.317 -0.422,1.901 0.14,2.979 C -1.41,-0.079 -0.679,0 0,0"/></g><g transform="translate(19.3604,6.5205)" id="g84"><path id="path86" style="fill:#292f33;fill-opacity:1;fill-rule:nonzero;stroke:none" d="M 0,0 C -1.105,0 -1.346,-0.159 -1.359,-0.521 -1.41,-1.896 0.428,-4 1.781,-3.5 2.642,-3.183 2.203,-1.599 1.641,-0.521 1.41,-0.079 0.68,0 0,0"/></g><g transform="translate(16,25)" id="g88"><path id="path90" style="fill:#66757f;fill-opacity:1;fill-rule:nonzero;stroke:none" d="M 0,0 -1,-3 0.25,-3.344 -0.437,-4.469 2,-7 0,0 Z"/></g><g transform="translate(20,25)" id="g92"><path id="path94" style="fill:#66757f;fill-opacity:1;fill-rule:nonzero;stroke:none" d="M 0,0 1,-3 -0.25,-3.344 0.437,-4.469 -2,-7 0,0 Z"/></g><g transform="translate(17,24)" id="g96"><path id="path98" style="fill:#55acee;fill-opacity:1;fill-rule:nonzero;stroke:none" d="M 0,0 1,-1 2,0 1,0.417 0,0 Z"/></g><g transform="translate(16.5625,25.4375)" id="g100"><path id="path102" style="fill:#f5f8fa;fill-opacity:1;fill-rule:nonzero;stroke:none" d="M 0,0 1.437,-1.021 0.5,-2.016 -0.562,-0.437 0,0 Z"/></g><g transform="translate(19.4375,25.4375)" id="g104"><path id="path106" style="fill:#f5f8fa;fill-opacity:1;fill-rule:nonzero;stroke:none" d="M 0,0 -1.437,-1.021 -0.5,-2.016 0.562,-0.437 0,0 Z"/></g><g transform="translate(24,1)" id="g108"><path id="path110" style="fill:#99aab5;fill-opacity:1;fill-rule:nonzero;stroke:none" d="m 0,0 c 0,-0.553 -2.686,-1 -6,-1 -3.314,0 -6,0.447 -6,1 0,0.553 2.686,1 6,1 3.314,0 6,-0.447 6,-1"/></g></g></g></g></svg>
