<svg xmlns="http://www.w3.org/2000/svg" viewBox="0 0 45 45" enable-background="new 0 0 45 45"><defs><clipPath id="a"><path d="M0 36h36V0H0v36z"/></clipPath></defs><g><g><g clip-path="url(#a)" transform="matrix(1.25 0 0 -1.25 0 45)"><g><path fill="#292f33" d="M18 25c-9.4 0-17-3.36-17-7.5C1 13.36 8.6 10 18 10s17 3.36 17 7.5c0 4.14-7.6 7.5-17 7.5"/></g><g><path fill="#7d8b93" d="M33.87 16.72c.08.25.13.5.13.78 0 1.42-1.16 2.68-3 3.7v-2.78c1.08-.5 2.05-1.08 2.87-1.7"/></g><g><path fill="#7d8b93" d="M5 21.2c-1.84-1.02-3-2.28-3-3.7 0-.27.05-.53.13-.78.82.62 1.8 1.2 2.87 1.7v2.78z"/></g><g><path fill="#ccd6dd" d="M18 24c-4.77 0-9.87-1.06-13-2.8v-2.78C8.4 20.02 12.97 21 18 21s9.6-.98 13-2.58v2.78c-3.13 1.74-8.23 2.8-13 2.8"/></g></g></g></g></svg>