<?xml version="1.0" encoding="UTF-8" standalone="no"?><svg xmlns:dc="http://purl.org/dc/elements/1.1/" xmlns:cc="http://creativecommons.org/ns#" xmlns:rdf="http://www.w3.org/1999/02/22-rdf-syntax-ns#" xmlns:svg="http://www.w3.org/2000/svg" xmlns="http://www.w3.org/2000/svg" viewBox="0 0 45 45" style="enable-background:new 0 0 45 45;" xml:space="preserve" version="1.1" id="svg2"><metadata id="metadata8"><rdf:RDF><cc:Work rdf:about=""><dc:format>image/svg+xml</dc:format><dc:type rdf:resource="http://purl.org/dc/dcmitype/StillImage"/></cc:Work></rdf:RDF></metadata><defs id="defs6"><clipPath id="clipPath16" clipPathUnits="userSpaceOnUse"><path id="path18" d="M 0,36 36,36 36,0 0,0 0,36 Z"/></clipPath></defs><g transform="matrix(1.25,0,0,-1.25,0,45)" id="g10"><g id="g12"><g clip-path="url(#clipPath16)" id="g14"><g transform="translate(17.9834,35.2827)" id="g20"><path id="path22" style="fill:#faaa35;fill-opacity:1;fill-rule:nonzero;stroke:none" d="m 0,0 c 1.747,0 4.658,-0.874 4.658,-4.657 0,-3.783 0,-4.656 -0.873,-4.656 -0.874,0 -2.038,0.873 -3.785,0.873 -1.747,0 -2.886,-0.873 -3.785,-0.873 -0.973,0 -0.873,3.492 -0.873,4.656 C -4.658,-0.873 -1.747,0 0,0"/></g><g transform="translate(14.4897,30.7534)" id="g24"><path id="path26" style="fill:#ffdb5e;fill-opacity:1;fill-rule:nonzero;stroke:none" d="M 0,0 C 0,2.481 1.564,4.493 3.494,4.493 5.423,4.493 6.987,2.481 6.987,0 6.987,-2.481 5.423,-4.493 3.494,-4.493 1.564,-4.493 0,-2.481 0,0"/></g><g transform="translate(13.6353,29.1709)" id="g28"><path id="path30" style="fill:#faaa35;fill-opacity:1;fill-rule:nonzero;stroke:none" d="m 0,0 c -0.009,0.094 -0.019,0.188 -0.019,0.291 0,1.455 0.873,-0.164 0.873,0.873 0,1.037 0.583,1.164 1.165,1.746 0.291,0.291 0.874,0.873 0.874,0.873 0,0 1.455,-0.873 2.619,-0.873 1.165,0 2.329,-0.582 2.329,-1.746 C 7.841,0 8.715,1.746 8.715,0.291 8.715,0.187 8.706,0.095 8.699,0 L 9.003,0 C 9.006,0.43 9.006,0.911 9.006,1.455 9.006,5.238 6.095,6.694 4.348,6.694 2.602,6.694 -0.31,5.239 -0.31,1.455 -0.31,1.118 -0.318,0.586 -0.307,0 L 0,0 Z"/></g><g transform="translate(24.0596,17.2686)" id="g32"><path id="path34" style="fill:#ffdb5e;fill-opacity:1;fill-rule:nonzero;stroke:none" d="m 0,0 c 0,-0.56 -0.452,-1.013 -1.012,-1.013 -0.559,0 -1.012,0.453 -1.012,1.013 l 0,2.589 c 0,0.558 1.012,1.012 1.012,1.012 C -0.452,3.601 0,3.147 0,2.589 L 0,0 Z"/></g><g transform="translate(11.9043,17.2686)" id="g36"><path id="path38" style="fill:#ffdb5e;fill-opacity:1;fill-rule:nonzero;stroke:none" d="m 0,0 c 0,-0.56 0.453,-1.013 1.012,-1.013 0.559,0 1.012,0.453 1.012,1.013 l 0,2.839 C 2.024,3.397 1.012,3.851 1.012,3.851 0.453,3.851 0,3.397 0,2.839 L 0,0 Z"/></g><g transform="translate(20.7402,6.2148)" id="g40"><path id="path42" style="fill:#dd2f45;fill-opacity:1;fill-rule:nonzero;stroke:none" d="m 0,0 c -0.184,0.513 -0.711,0.764 -1.55,0.764 -1.208,0 -1.428,-0.713 -1.428,-1.11 0,-1.512 1.077,-2.584 1.499,-2.584 0.439,0 1.928,1.678 1.479,2.93"/></g><g transform="translate(15.2231,6.2148)" id="g44"><path id="path46" style="fill:#dd2f45;fill-opacity:1;fill-rule:nonzero;stroke:none" d="m 0,0 c 0.184,0.513 0.711,0.764 1.55,0.764 1.209,0 1.429,-0.713 1.429,-1.11 C 2.979,-1.858 1.902,-2.93 1.48,-2.93 1.041,-2.93 -0.449,-1.252 0,0"/></g><g transform="translate(20.2246,6.4385)" id="g48"><path id="path50" style="fill:#ffdb5e;fill-opacity:1;fill-rule:nonzero;stroke:none" d="m 0,0 c 0,-0.56 -0.452,-1.012 -1.012,-1.012 -0.559,0 -1.012,0.452 -1.012,1.012 l 0,7.947 c 0,0.559 0.453,1.012 1.012,1.012 C -0.452,8.959 0,8.506 0,7.947 L 0,0 Z"/></g><g transform="translate(17.7021,6.4385)" id="g52"><path id="path54" style="fill:#ffdb5e;fill-opacity:1;fill-rule:nonzero;stroke:none" d="m 0,0 c 0,-0.56 -0.453,-1.012 -1.012,-1.012 -0.56,0 -1.012,0.452 -1.012,1.012 l 0,7.947 c 0,0.559 0.452,1.012 1.012,1.012 C -0.453,8.959 0,8.506 0,7.947 L 0,0 Z"/></g><g transform="translate(19.2822,28.0703)" id="g56"><path id="path58" style="fill:#de2032;fill-opacity:1;fill-rule:nonzero;stroke:none" d="m 0,0 c -0.016,0.025 -0.044,0.041 -0.073,0.041 l -2.454,0 C -2.557,0.041 -2.584,0.025 -2.6,0 c -0.016,-0.025 -0.017,-0.057 -0.004,-0.084 0.016,-0.029 0.373,-0.704 1.304,-0.704 0.931,0 1.288,0.675 1.303,0.704 C 0.017,-0.057 0.015,-0.025 0,0"/></g><g transform="translate(17.9819,29.2305)" id="g60"><path id="path62" style="fill:#c16a4f;fill-opacity:1;fill-rule:nonzero;stroke:none" d="m 0,0 c -0.269,0 -0.478,0.048 -0.646,0.122 0.056,-0.198 0.21,-0.474 0.646,-0.474 0.436,0 0.59,0.276 0.646,0.474 C 0.478,0.048 0.269,0 0,0"/></g><g transform="translate(23.9824,1.167)" id="g64"><path id="path66" style="fill:#98a9b4;fill-opacity:1;fill-rule:nonzero;stroke:none" d="m 0,0 c 0,-0.553 -2.687,-1 -6,-1 -3.314,0 -6,0.447 -6,1 0,0.553 2.686,1 6,1 3.313,0 6,-0.447 6,-1"/></g><g transform="translate(20.4785,11.0078)" id="g68"><path id="path70" style="fill:#8899a6;fill-opacity:1;fill-rule:nonzero;stroke:none" d="M 0,0 C 2.209,5.322 0.594,7.213 0.594,7.213 L -5.623,7.22 c 0,0 -1.53,-1.537 0.591,-7.22 L 0,0 Z"/></g><g transform="translate(17.9819,26)" id="g72"><path id="path74" style="fill:#292f33;fill-opacity:1;fill-rule:nonzero;stroke:none" d="m 0,0 c -6.625,0 -6.228,-6.853 -6.228,-6.853 l 2.285,0 c 0,2.186 0.839,3.145 0.839,3.145 l 0.432,-3.289 -0.436,-0.782 c 0,0 1.041,-0.568 3.108,-0.568 2.067,0 3.108,0.568 3.108,0.568 l -0.436,0.782 0.432,3.289 c 0,0 0.839,-0.959 0.839,-3.145 l 2.285,0 C 6.228,-6.853 6.625,0 0,0"/></g><g transform="translate(16.7808,26.875)" id="g76"><path id="path78" style="fill:#ffdb5e;fill-opacity:1;fill-rule:nonzero;stroke:none" d="m 0,0 0,-1.155 c 0,0 0.451,-0.407 1.201,-0.407 0.751,0 1.201,0.407 1.201,0.407 L 2.402,0 0,0 Z"/></g><g transform="translate(20.9922,31.4619)" id="g80"><path id="path82" style="fill:#dd2f45;fill-opacity:1;fill-rule:nonzero;stroke:none" d="m 0,0 c -0.256,0.25 -1.535,0.092 -2.122,-0.188 -0.235,-0.113 -0.351,-0.203 -0.509,-0.336 -0.215,-0.179 -0.379,-0.179 -0.379,-0.179 0,0 -0.165,0 -0.379,0.179 -0.159,0.133 -0.274,0.223 -0.509,0.336 -0.587,0.28 -1.867,0.438 -2.123,0.188 -0.416,-0.406 -0.101,-2.319 0.635,-2.469 0.535,-0.11 0.952,-0.071 1.19,0.01 0.168,0.056 0.507,0.209 0.744,0.808 0.214,0.541 0.442,0.536 0.442,0.536 0,0 0.228,0.005 0.442,-0.536 0.237,-0.599 0.576,-0.752 0.744,-0.808 0.237,-0.081 0.654,-0.12 1.19,-0.01 C 0.102,-2.319 0.417,-0.406 0,0"/></g><g transform="translate(16.5781,31.1646)" id="g84"><path id="path86" style="fill:#292f33;fill-opacity:1;fill-rule:nonzero;stroke:none" d="m 0,0 c 0,0 -0.942,0.168 -1.141,-0.049 -0.198,-0.219 -0.142,-1.254 0.219,-1.697 0.195,-0.24 0.976,-0.185 1.148,-0.103 0.309,0.148 0.617,0.599 0.617,1.18 C 0.843,-0.263 0.288,-0.04 0,0"/></g><g transform="translate(19.3857,31.1646)" id="g88"><path id="path90" style="fill:#292f33;fill-opacity:1;fill-rule:nonzero;stroke:none" d="m 0,0 c 0,0 0.942,0.168 1.141,-0.049 0.198,-0.219 0.141,-1.254 -0.218,-1.697 -0.196,-0.24 -0.978,-0.185 -1.149,-0.103 -0.309,0.148 -0.617,0.599 -0.617,1.18 0,0.406 0.556,0.629 0.843,0.669"/></g></g></g></g></svg>
