<svg xmlns="http://www.w3.org/2000/svg" viewBox="0 0 45 45" enable-background="new 0 0 45 45"><defs><clipPath id="a"><path d="M0 36h36V0H0v36z"/></clipPath></defs><g><g><g clip-path="url(#a)" transform="matrix(1.25 0 0 -1.25 0 45)"><g><path fill="#ffe51e" d="M8.94 21.96c.24.33.38.77.38 1.26 0 1.06-.68 1.92-1.5 1.92-.85 0-1.53-.86-1.53-1.92 0-.88.46-1.6 1.1-1.84-.24-.74-2.76-7.88-1.52-10.4 1.25-2.52 10.55-1.45 11.25-.3-.54 2.02-7.66 8.04-8.2 11.28"/></g><g><path fill="#ffe51e" d="M27.06 21.96c-.24.33-.38.77-.38 1.26 0 1.06.68 1.92 1.5 1.92.85 0 1.53-.86 1.53-1.92 0-.88-.46-1.6-1.1-1.84.24-.74 2.76-7.88 1.5-10.4-1.23-2.52-10.53-1.45-11.23-.3.54 2.02 7.66 8.04 8.2 11.28"/></g><g><path fill="#66757f" d="M33 0v1c0 3.3-2.7 6-6 6H9C5.7 7 3 4.3 3 1V0h30z"/></g><g><path fill="#66757f" d="M26.75 15.56c1.2-.2 2.62-.12 2.42-.9-.48-1.87-2.6-1.18-2.98-1.2-.4-.02.55 2.1.55 2.1"/></g><g><path fill="#292f33" d="M27.06 15.36c1.88-.25 2.54-.42 1.17-.96-.77-.3-2.24-4.8-3.33-4.12-1.1.68 2.16 5.08 2.16 5.08"/></g><g><path fill="#66757f" d="M9.26 15.56c-1.2-.2-2.62-.12-2.42-.9.48-1.87 2.6-1.18 2.98-1.2.37-.02-.56 2.1-.56 2.1"/></g><g><path fill="#292f33" d="M8.94 15.36c-1.87-.25-2.54-.42-1.16-.96.77-.3 2.24-4.8 3.33-4.12 1.1.68-2.16 5.08-2.16 5.08"/></g><g><path fill="#f3d2a2" d="M28 20.5C28 13.6 23.52 8 18 8S8 13.6 8 20.5 12.48 33 18 33s10-5.6 10-12.5"/></g><g><path fill="#c1694f" d="M19 15.5c0-.28-.22-.5-.5-.5h-1c-.28 0-.5.22-.5.5s.22.5.5.5h1c.28 0 .5-.22.5-.5"/></g><g><path fill="#292f33" fill-rule="evenodd" d="M7.66 21.2c.14-.14.88-.58 1.03-1.02.14-.45.44-2.96 1.33-3.7.9-.76 4.37-.47 5.03-.14 1.48.73 1.66 2.8 1.92 3.84.15.6 1.04.6 1.04.6s.9 0 1.03-.6c.26-1.05.45-3.1 1.93-3.84.66-.33 4.1-.62 5.03.14.9.74 1.2 3.25 1.34 3.7.15.44.9.88 1.04 1.03.15.16.15.75 0 .9-.3.3-3.8.56-7.55.15-.75-.1-1.04-.3-2.8-.3-1.8 0-2.08.2-2.83.3-3.75.4-7.25.14-7.54-.15-.15-.15-.15-.74 0-.9"/></g><g><path fill="#66757f" d="M7.86 27.6S9.22 36.5 13.8 36c3.5-.4 4.88-.83 7.82-.1 1.95.48 4.07-1.13 5.34-4.38.82-2.07 1.23-4.04 1.23-4.04s3.93.4 4.15-1.73C32.58 23.6 28 21 16.45 21 10 21 3.34 23.38 3.02 25.35c-.3 1.98 4.86 2.27 4.86 2.27"/></g><g><path fill="#292f33" d="M8.12 28.85s-.27-1.1-.4-1.87c-.14-.77.22-1.3 2.7-1.82 3.3-.7 10.68-.7 15.06.38 1.76.43 2.9.72 2.75 1.58-.16 1.07-.2 1.07-.54 2.2 0 0-1.48-.5-3.43-.95-2.66-.62-9.97-.9-13.5-.14-1.86.4-2.65.62-2.65.62"/></g><g><path fill="#292f33" d="M8 14.9c-.36-.15 2.9-1.38 7.47-1.46 4.77-.08 6.23-.4 5.14-1.46-1.13-1.12-.84-2.9-.76-3.42.1-.52 2.05-1.9 2.2-2.56.17-.64-1.22-5.96-1.22-5.96L12.1.3C9.52 9.13 9.2 8.8 8 13.9c-.25 1 0 1 0 1"/></g><g><path fill="#66757f" d="M7 14.86c-.36-.15 2.9-1.38 7.47-1.46 4.77-.1 6.23-.4 5.14-1.46L19.83 0 11.1.25C8.52 9.1 8.2 8.75 7 13.85c-.25 1 0 1 0 1"/></g><g><path fill="#292f33" d="M28.05 14.9c.36-.15-2.92-1.38-7.48-1.46-4.77-.08-6.23-.4-5.14-1.46 1.14-1.12 2.97-2.9 2.9-3.42-.1-.52-4.18-1.9-4.34-2.56C13.82 5.36 15.2.04 15.2.04l8.73.25c2.56 8.84 2.88 8.5 4.1 13.6.24 1 0 1 0 1"/></g><g><path fill="#66757f" d="M28.96 14.9c.35-.15-2.92-1.38-7.48-1.46-4.77-.08-6.24-.4-5.15-1.46 1.15-1.12 2.98-2.9 2.9-3.42-.08-.52-4.17-1.9-4.34-2.56C14.72 5.36 16.1.04 16.1.04h8.66c2.57 8.83 2.96 8.75 4.18 13.86.24 1 0 1 0 1"/></g></g></g></g></svg>