<svg xmlns="http://www.w3.org/2000/svg" viewBox="0 0 45 45" enable-background="new 0 0 45 45"><defs><clipPath id="a"><path d="M0 36h36V0H0v36z"/></clipPath></defs><g><g><g clip-path="url(#a)" transform="matrix(1.25 0 0 -1.25 0 45)"><g><path fill="#99aab5" d="M18.56 30.37c.2.33.45.6.72.88.05-.37.03-.76-.07-1.13l-1.06-3.9-.13.57c-.3 1.22-.1 2.5.56 3.57M34.76 6.3l-5.62 23.2c-.87 3.6-4.5 5.82-8.12 4.94-.34-.08-.67-.2-.98-.32-.6.66-1.4 1.15-2.28 1.4-2.56.7-5.2-.82-5.92-3.38L6.8 13.72c-.2-.75-.1-1.53.27-2.2.4-.68 1-1.17 1.76-1.37.26-.07.52-.1.78-.1.5 0 1 .12 1.44.37.68.4 1.16 1 1.37 1.76l3.04 11.05c.14.54-.17 1.1-.7 1.23-.54.15-1.1-.17-1.23-.7L10.5 12.7c-.07-.22-.22-.42-.43-.54-.2-.12-.45-.15-.7-.1-.22.08-.42.23-.54.44-.1.2-.14.46-.08.7l5.05 18.4c.4 1.5 1.97 2.4 3.47 1.98.38-.1.73-.3 1.03-.53-.55-.47-1.03-1-1.4-1.64-.95-1.53-1.23-3.34-.8-5.08l.98-4.08L12.9 7.1c-.33-1.22-1.12-2.24-2.22-2.86-1.1-.63-2.37-.8-3.6-.45C5.9 4.1 4.86 4.9 4.24 6c-.63 1.1-.8 2.38-.45 3.6l4.3 15.65c.13.53-.18 1.1-.7 1.23-.54.15-1.1-.17-1.24-.7l-4.3-15.65c-.47-1.74-.24-3.55.65-5.1.88-1.58 2.33-2.7 4.06-3.17.6-.16 1.2-.24 1.8-.24 1.14 0 2.28.3 3.3.88 1.57.9 2.7 2.33 3.17 4.07l3.2 11.65 1.85-7.68c.12-.46.52-.76.98-.76.07 0 .15 0 .23.03.53.14.86.68.73 1.2l-2.7 11.2 2 7.4c.26.9.23 1.87-.06 2.75.14.05.27.1.42.15 2.53.6 5.08-.95 5.7-3.48l5.62-23.2c.37-1.5-.57-3.04-2.08-3.4-.73-.18-1.5-.07-2.13.32-.63.4-1.08 1.02-1.26 1.75l-4.5 18.55c-.06.24-.02.48.1.7.14.2.34.34.57.4.5.12 1-.2 1.1-.67l2.7-11.14c.12-.46.53-.76.98-.76.08 0 .16 0 .24.02.53.13.86.67.73 1.2l-2.7 11.15c-.37 1.56-1.95 2.52-3.5 2.14-.76-.2-1.4-.66-1.8-1.32-.4-.67-.54-1.45-.35-2.2l4.5-18.56c.3-1.25 1.07-2.3 2.17-2.98.77-.47 1.63-.7 2.5-.7.38 0 .76.04 1.14.13 2.6.62 4.2 3.23 3.56 5.82"/></g><g><path fill="#66757f" d="M18.14 26.23l.97-4.02.34 1.2-.95 4.1-.36-1.27z"/></g><g><path fill="#66757f" d="M16.7 20.96l.97-4.03.35 1.3-.97 4-.35-1.27z"/></g><g><path fill="#66757f" d="M21.07 32.35s.3.13.54.18c0 0-.24 1-1 1.8l-.56-.2s.73-.78 1.03-1.78"/></g><g><path fill="#66757f" d="M18.88 30.82s.27.32.4.43c0 0-.1 1.1-1 1.8l-.43-.4c.85-.54 1.03-1.83 1.03-1.83"/></g></g></g></g></svg>