<svg xmlns="http://www.w3.org/2000/svg" viewBox="0 0 45 45" enable-background="new 0 0 45 45"><defs><clipPath id="a"><path d="M0 36h36V0H0v36z"/></clipPath></defs><g><g><g clip-path="url(#a)" transform="matrix(1.25 0 0 -1.25 0 45)"><g><path fill="#dd2e44" d="M35.7 28.52l-7.18 7.18c-.4.4-1.04.4-1.43 0L3.4 12c-.4-.4-.4-1.03 0-1.43.7-.72-3.15-7.95-3.4-8.5L2.07 0c.53.26 7.78 4.12 8.5 3.4.4-.4 1.04-.4 1.44 0l23.7 23.7c.4.38.4 1.03 0 1.42"/></g><g><path fill="#ea596e" d="M12.76 4.14l-8.62 8.62L26.4 35.03l8.63-8.62L12.76 4.15z"/></g><g><path fill="#292f33" d="M32.15 23.53l-8.62 8.62 1.44 1.44 8.62-8.63-1.45-1.44z"/></g><g><path fill="#292f33" d="M14.2 5.58L5.58 14.2 7 15.63 15.64 7 14.2 5.6z"/></g><g><path fill="#be1931" d="M26.9 26.65c-1.53 1.52-6-.48-9.98-4.46-3.98-4-5.98-8.46-4.46-9.98 1.52-1.52 5.98.48 9.97 4.46 3.98 3.98 5.98 8.45 4.46 9.97"/></g></g></g></g></svg>