<svg xmlns="http://www.w3.org/2000/svg" viewBox="0 0 45 45" enable-background="new 0 0 45 45"><defs><clipPath id="a"><path d="M0 36h36V0H0v36z"/></clipPath></defs><g><g><g clip-path="url(#a)" transform="matrix(1.25 0 0 -1.25 0 45)"><g><path fill="#c1694f" d="M3.97 2.55C2.2.8.47-.3.07.08-.3.48.8 2.2 2.56 3.98c1.76 1.75 3.5 2.85 3.9 2.46.38-.4-.73-2.13-2.48-3.9"/></g><g><path fill="#ffcc4d" d="M6.44 6.44L4.32 8.56s-1.08-1.4-2.28-3.63C1.14 3.26.8 2.2.8 2.2l.7-.7.7-.7s1.06.34 2.73 1.24c2.24 1.2 3.63 2.28 3.63 2.28L6.44 6.44z"/></g><g><path fill="#292f33" d="M34.02 34.02c-3.54 3.54-18.16-10.3-18.87-11-.7-.7-1.3-1.35-.93-1.73-.44-.45-1.12-1.13-2.12-2.13-2.12-2.12-8.5-9.9-7.78-10.6.7-.7 2.12-2.13 2.12-2.13s1.42-1.4 2.12-2.12c.7-.7 8.5 5.66 10.6 7.78 1 1 1.7 1.68 2.13 2.12.37-.38 1 .22 1.72.93.7.7 14.54 15.33 11 18.87"/></g><g><path fill="#ffcc4d" d="M23.02 15.15c.08.08.36.37.77.82l-7.83 7.82c-.45-.42-.74-.7-.82-.78-.7-.7-1.3-1.35-.93-1.73.7-.72 3.54-3.54 3.54-3.54s2.82-2.83 3.53-3.54c.37-.38 1 .22 1.72.93"/></g><g><path fill="#ffac33" d="M31.2 34c-.92.93-2.15 1.9-3.92 1-1.77-.87-7.3-4.43-9.88-7-1.32-1.3-1.24-2.1-.75-2.16.82-.1 1.37-.08 2.12.67.75.76.9 2.04.9 2.04s3.04 2.34 5.44 3.78c2.42 1.43 3.28 1.68 4.12.84.85-.84 2 .84 2 .84"/></g><g><path fill="#ffac33" d="M28.87 33.5l4.64-4.63c.37.7.64 1.38.83 2l-3.45 3.46c-.63-.2-1.3-.47-2-.82"/></g></g></g></g></svg>