<svg xmlns="http://www.w3.org/2000/svg" viewBox="0 0 45 45" enable-background="new 0 0 45 45"><defs><clipPath id="a"><path d="M0 36h36V0H0v36z"/></clipPath></defs><g><g><g clip-path="url(#a)" transform="matrix(1.25 0 0 -1.25 0 45)"><g><path fill="#99aab5" d="M4.17 3.27c.3-.17.62-.27.98-.27 1.1 0 2 .9 2 2s-.9 2-2 2-2-.9-2-2c0-.36.1-.7.28-1L.27.88 1.15 8l9 7 5-5-7-9L1.02.12l3.15 3.15z"/></g><g><path fill="#66757f" d="M22.5 30.7c-1.14-1.16-1.14-3.02 0-4.18l4.18-4.16c1.15-1.15 3-1.15 4.16 0L35 26.52c1.16 1.16 1.16 3.02 0 4.17l-4.16 4.16c-1.15 1.15-3 1.15-4.16 0L22.5 30.7z"/></g><g><path fill="#292f33" d="M9.5 17.7l17.2 17.2 8.35-8.34-17.2-17.2c-1.16-1.15-3.02-1.15-4.17 0L9.5 13.53c-1.14 1.15-1.14 3 0 4.16"/></g><g><path fill="#66757f" d="M19.6 27.78l8.33-8.34-2.13-2.12-8.33 8.33 2.12 2.13z"/></g></g></g></g></svg>