<svg xmlns="http://www.w3.org/2000/svg" viewBox="0 0 45 45" enable-background="new 0 0 45 45"><defs><clipPath id="a"><path d="M0 36h36V0H0v36z"/></clipPath></defs><g><g><g clip-path="url(#a)" transform="matrix(1.25 0 0 -1.25 0 45)"><g><path fill="#3b88c3" d="M14.57 8.33c2.8 1.7 6.63 3.8 9.9 7.07 7.03 7.03 12.73 16.97 11.3 18.38-1.4 1.42-11.34-4.28-18.37-11.3-3.27-3.27-5.38-7.1-7.07-9.9l4.24-4.25z"/></g><g><path fill="#c1694f" d="M.43 1.26S7.5-.16 12.45 4.8c2.12 2.1 2.12 4.94 2.12 4.94l-2.83 2.83s-3.53-.7-4.95-2.12c-1.42-1.42-2.53-4.23-2.9-5.6-.67-2.5-3.47-3.6-3.47-3.6"/></g><g><path fill="#ccd6dd" d="M17.88 10.67l-5.17 5.17c-.38.4-.94.33-1.26-.15L10.32 14c-.3-.48-.27-1.15.1-1.5l4.1-4.13c.37-.36 1.04-.4 1.5-.1l1.72 1.13c.47.3.53.88.14 1.27"/></g><g><path fill="#a0041e" d="M11.23 3.74c-1.2-.77-1.83-.13-1.6.6.2.76-.13 1.66-1.25 1.42-1.1-.23-1.85.36-1.5 1.77.35 1.4-1.1 1.86-1.76.44-.58-1.16-1-2.36-1.22-3.12-.67-2.5-3.47-3.6-3.47-3.6s6-1.18 10.8 2.5"/></g></g></g></g></svg>