<svg xmlns="http://www.w3.org/2000/svg" viewBox="0 0 45 45" enable-background="new 0 0 45 45"><defs><clipPath id="a"><path d="M0 36h36V0H0v36z"/></clipPath></defs><g><g><g clip-path="url(#a)" transform="matrix(1.25 0 0 -1.25 0 45)"><g><path fill="#e0aa94" d="M14.85 18.45c.27-1-.34-2.05-1.36-2.32l-.26-.07c-1.02-.27-2.08.33-2.35 1.35L7.16 31.07c-.47 1.65-.14 3.2 1.28 3.6l.45.1c1.03.28 1.63-.42 1.9-1.43l4.05-14.88z"/></g><g><path fill="#e0aa94" d="M21.8 17.55c-.2-1.08-1.25-1.8-2.34-1.6h-.08c-1.1.2-1.82 1.22-1.63 2.3l2.68 15c.2 1.1.72 1.82 1.8 1.63l.25-.07c2.77-.65 1.62-4.33 2-2.24l-2.7-15z"/></g><g><path fill="#f7dece" d="M11.14 16.96c.25-.97-.32-1.96-1.3-2.22l-.35-.1c-.97-.25-1.97.32-2.23 1.3l-3.2 11.94c-.26.97.3 1.96 1.28 2.22l.36.1c.98.26 1.97-.32 2.23-1.3l3.2-11.94z"/></g><g><path fill="#f7dece" d="M15.7 19.28c.26-1-.33-2.03-1.33-2.3l-.25-.06c-1-.27-2.03.33-2.3 1.33L7.9 32.98c-.27 1 .33 2.03 1.33 2.3l.25.06c1 .27 2.03-.33 2.3-1.33l3.94-14.72z"/></g><g><path fill="#f7dece" d="M20.68 18.08c-.18-1.02-1.15-1.7-2.17-1.52l-.23.04c-1.02.18-1.7 1.15-1.53 2.17L19.4 33.8c.17 1 1.14 1.7 2.16 1.5l.25-.03c1.03-.18 1.7-1.15 1.53-2.17l-2.65-15.02z"/></g><g><path fill="#f7dece" d="M25.6 17.1c-.18-.97-1.1-1.6-2.04-1.43l-.5.08c-.95.17-1.58 1.08-1.4 2.03l2.5 14.28c.17.95 1.08 1.6 2.03 1.42l.48-.1c.96-.15 1.6-1.06 1.42-2l-2.5-14.3z"/></g><g><path fill="#f7dece" d="M28.93 8.64c-.53-.9-1.68-1.2-2.58-.7l-.2.12c-.9.52-1.2 1.68-.7 2.58l5.62 9.72c.52.9 1.68 1.2 2.58.7l.2-.12c.9-.52 1.2-1.68.7-2.58l-5.62-9.72z"/></g><g><path fill="#f7dece" d="M6.18 20c.4-1.5-.18-5.2-.18-8S8.12 0 18 0c9.87 0 10.5 8.23 12 10.67 1.5 2.43-.83 6.37-2 4.37s-2.93-1.16-2.33 2.38c.6 3.54-3.12 5.46-3.64 2.54-.44-2.48-1.44-1.75-.85.9.58 2.68-3.52 3.43-4.18-.2-.5-2.66-1.45-.9-1.85.64-.4 1.53-4.5 1.67-3.95-.7.76-3.4 0-4.07-1.12.07-.7 2.62-3.9-.68-3.9-.68"/></g><g><path fill="#e0aa94" d="M26.46 14c.02 0 .04 0 .07 0-.4.06-.72.44-.88 1.1-1.9-.25-4.58-.7-6.65-2.73-2.56-2.5-3-5.2-2.97-7 0-1.47.8-2.16 1.04 0 .3 2.8 2.35 8.04 9.4 8.62"/></g></g></g></g></svg>