<svg xmlns="http://www.w3.org/2000/svg" viewBox="0 0 45 45" enable-background="new 0 0 45 45"><defs><clipPath id="a"><path d="M0 36h36V0H0v36z"/></clipPath></defs><g><g><g clip-path="url(#a)" transform="matrix(1.25 0 0 -1.25 0 45)"><g><path fill="#f7dece" d="M30 15.82s.1 2.36-1.78 3.07c-1.67.6-2.3-.64-2.3-.64s.05 1.92-1.95 2.63c-1.9.65-3-.8-3-.8s-.06 1.7-2.04 2.24c-1.67.46-2.92-1.16-2.92-1.16V22c0 .96-.53 2.58-2.53 2.58-2 0-2.46-1.66-2.46-2.58v-1.6c0-1.34-.94-.2-1.63-.84C7.8 18.14 7.1 13.13 8.2 9.06c1.3-4.93 4.05-9.1 9.68-9.1C26-.04 30 5.26 30 11.9v3.92z"/></g><g><path fill="#f7dece" d="M21 17.5c0-1.38-1.12-2.5-2.5-2.5S16 16.12 16 17.5v16c0 1.38 1.12 2.5 2.5 2.5s2.5-1.12 2.5-2.5v-16z"/></g><g><path fill="#f7dece" d="M12.25 20c-.38 0-2 0-2.3 0-1.64 0-2.15-.47-2.82-3.13-.44-1.72-1-2.54-1-4.4C6.14 9.58 10.74.15 17.5.1L12.25 20z"/></g><g><path fill="#d89882" d="M10 10.48c0-.25.2-.48.46-.48h.08c.26 0 .46.2.46.46V20h-.97L10 10.48z"/></g></g></g></g></svg>