<svg xmlns="http://www.w3.org/2000/svg" viewBox="0 0 45 45" enable-background="new 0 0 45 45"><defs><clipPath id="a"><path d="M0 36h36V0H0v36z"/></clipPath></defs><g><g><g clip-path="url(#a)" transform="matrix(1.25 0 0 -1.25 0 45)"><g><path fill="#ffdc5d" d="M11.14 16.96c.25-.97-.32-1.96-1.3-2.22l-.35-.1c-.97-.25-1.97.32-2.23 1.3l-3.2 11.94c-.26.97.3 1.96 1.28 2.22l.36.1c.98.26 1.97-.32 2.23-1.3l3.2-11.94z"/></g><g><path fill="#ffdc5d" d="M15.93 18.9c.16-1.02-.54-1.98-1.56-2.14l-.25-.04c-1.02-.16-1.98.54-2.14 1.57L9.64 33.35c-.16 1.02.54 1.98 1.56 2.14l.25.04c1.02.15 1.98-.55 2.14-1.57l2.33-15.07z"/></g><g><path fill="#ffdc5d" d="M20.6 19.02c-.06-1-.93-1.78-1.94-1.73h-.25c-1 .07-1.77.93-1.7 1.94l.85 14.9c.05 1 .92 1.8 1.93 1.73l.25-.02c1-.05 1.78-.92 1.72-1.93l-.85-14.9z"/></g><g><path fill="#ffdc5d" d="M25.2 17.06c-.23-.94-1.17-1.53-2.1-1.3l-.5.1c-.94.22-1.53 1.16-1.3 2.1l3.26 14.13c.22.93 1.16 1.52 2.1 1.3l.5-.1c.93-.23 1.52-1.17 1.3-2.12L25.2 17.06z"/></g><g><path fill="#ffdc5d" d="M28.93 8.64c-.53-.9-1.68-1.2-2.58-.7l-.2.12c-.9.52-1.2 1.68-.7 2.58l5.62 9.72c.52.9 1.68 1.2 2.58.7l.2-.12c.9-.52 1.2-1.68.7-2.58l-5.62-9.72z"/></g><g><path fill="#ffdc5d" d="M6.18 20c.48-2.35-.18-5.2-.18-8S8.12 0 18 0c9.87 0 10.5 8.23 12 10.67 1.5 2.43-.37 6.5-1.8 4.7-1.97-2.45-3.48-2.05-2.66 2.7.6 3.53-2.96 5.23-3.6 2.04-.5-2.45-1.3-1.94-1.2.8.15 3.27-3.67 3.63-3.86-.1-.15-2.7-1.05-1.55-1.32.27-.24 1.56-4.4 2.72-4.02.32.6-3.8-.18-4.84-1.46-.73-.8 2.6-4.38 1.67-3.9-.68"/></g><g><path fill="#ef9645" d="M25.96 13.95c-.3.12-.5.48-.6 1.1-1.9-.25-4.4-.76-6.36-2.68-2.56-2.5-3-5.2-2.97-7 .02-1.47.8-2.16 1.04 0 .3 2.73 2.25 8.13 8.9 8.58"/></g></g></g></g></svg>