<svg xmlns="http://www.w3.org/2000/svg" viewBox="0 0 45 45" enable-background="new 0 0 45 45"><defs><clipPath id="a"><path d="M0 36h36V0H0v36z"/></clipPath><clipPath id="b"><path d="M6 24c-2.2 0-4-1.8-4-4v-9c0-1 1-3 3-3h26c2 0 3 2 3 3v9c0 2.2-1.8 4-4 4H6z"/></clipPath><clipPath id="c"><path d="M0 36h36V0H0v36z"/></clipPath></defs><g><g><g clip-path="url(#a)" transform="matrix(1.25 0 0 -1.25 0 45)"><g><path fill="#67757f" d="M30 23c0-1.1-.83-2-1.85-2H7.85C6.83 21 6 21.9 6 23v8c0 1.1.83 2 1.85 2h20.3c1.02 0 1.85-.9 1.85-2v-8z"/></g><g><path fill="#67757f" d="M30 5c0-1.1-.9-2-2-2H8c-1.1 0-2 .9-2 2v6c0 1.1.9 2 2 2h20c1.1 0 2-.9 2-2V5z"/></g><g><path fill="#e1e8ed" d="M27 20c0-1.1-.9-2-2-2H11c-1.1 0-2 .9-2 2v14c0 1.1.9 2 2 2h14c1.1 0 2-.9 2-2V20z"/></g><g><path fill="#5dadec" d="M34 11c0-1-1-3-3-3H5c-2 0-3 2-3 3v9c0 2.2 1.8 4 4 4h24c2.2 0 4-1.8 4-4v-9z"/></g></g></g><g><g clip-path="url(#b)" transform="matrix(1.25 0 0 -1.25 0 45)"><g><path fill="#292f33" d="M30 11c0 1.1-.98 2-2.18 2H8.18C6.98 13 6 12.1 6 11V7c0-1.1.98-2 2.18-2h19.64c1.2 0 2.18.9 2.18 2v4z"/></g><g><path fill="#4289c1" d="M30 21c0-1.1-.9-2-2-2H8c-1.1 0-2 .9-2 2v5c0 1.1.9 2 2 2h20c1.1 0 2-.9 2-2v-5z"/></g></g></g><g><g clip-path="url(#c)" transform="matrix(1.25 0 0 -1.25 0 45)"><g><path fill="#e1e8ed" d="M27 2c0-1.1-.9-2-2-2H11C9.9 0 9 .9 9 2v7c0 1.1.9 2 2 2h14c1.1 0 2-.9 2-2V2z"/></g><g><path fill="#9aaab4" d="M25 7c0-.55-.45-1-1-1H12c-.55 0-1 .45-1 1s.45 1 1 1h12c.55 0 1-.45 1-1"/></g><g><path fill="#f5f8fa" d="M32 16.5c0-.83-.67-1.5-1.5-1.5s-1.5.67-1.5 1.5.67 1.5 1.5 1.5 1.5-.67 1.5-1.5"/></g><g><path fill="#9aaab4" d="M25 4c0-.55-.45-1-1-1H12c-.55 0-1 .45-1 1s.45 1 1 1h12c.55 0 1-.45 1-1"/></g><path fill="#9aaab4" d="M27 9H9v2h18V9z"/></g></g></g></svg>