<svg xmlns="http://www.w3.org/2000/svg" viewBox="0 0 45 45" enable-background="new 0 0 45 45"><defs><clipPath id="a"><path d="M0 36h36V0H0v36z"/></clipPath><clipPath id="b"><path d="M6 29V12C6 5.37 11.37 0 18 0s12 5.37 12 12v17c0 2.02-2 5-12 5S6 31.02 6 29"/></clipPath><clipPath id="c"><path d="M0 36h36V0H0v36z"/></clipPath></defs><g><g><g clip-path="url(#a)" transform="matrix(1.25 0 0 -1.25 0 45)"><g><path fill="#99aab5" d="M18 34C8 34 6 31.02 6 29V12C6 5.37 11.37 0 18 0s12 5.37 12 12v17c0 2.02-2 5-12 5"/></g></g></g><g><g clip-path="url(#b)" transform="matrix(1.25 0 0 -1.25 0 45)"><path fill="#292f33" d="M22 26h-8v8h8v-8z"/><g><path fill="#292f33" d="M18 27C8 27 6 24.02 6 22v-2c0 2.02 2 5 12 5s12-2.98 12-5v2c0 2.02-2 5-12 5"/></g></g></g><g><g clip-path="url(#c)" transform="matrix(1.25 0 0 -1.25 0 45)"><g><path fill="#292f33" d="M22 25.5c0-1.38-1.8-2.5-4-2.5s-4 1.12-4 2.5 1.8 2.5 4 2.5 4-1.12 4-2.5"/></g><g><path fill="#99aab5" d="M20 27c0-1.1-.9-2-2-2s-2 .9-2 2v7c0 1.1.9 2 2 2s2-.9 2-2v-7z"/></g></g></g></g></svg>