<svg xmlns="http://www.w3.org/2000/svg" viewBox="0 0 45 45" enable-background="new 0 0 45 45"><defs><clipPath id="a"><path d="M0 36h36V0H0v36z"/></clipPath></defs><g><g><g clip-path="url(#a)" transform="matrix(1.25 0 0 -1.25 0 45)"><g><path fill="#fdcb58" d="M31 21c0-1.1-.9-2-2-2H7c-1.1 0-2 .9-2 2v8c0 1.1.9 2 2 2h22c1.1 0 2-.9 2-2v-8z"/></g><g><path fill="#fdd888" d="M33 17c0-1.1-.9-2-2-2H5c-1.1 0-2 .9-2 2v8c0 1.1.9 2 2 2h26c1.1 0 2-.9 2-2v-8z"/></g><g><path fill="#fee7b8" d="M35 3c0-1.1-.9-2-2-2H3c-1.1 0-2 .9-2 2v18c0 1.1.9 2 2 2h30c1.1 0 2-.9 2-2V3z"/></g><g><path fill="#67757f" d="M11 22z"/></g><g><path fill="#67757f" d="M11 22z"/></g><g><path fill="#78b159" d="M23 33h-5c-1.1 0-2-.9-2-2v-1h2c1.1 0 2-.9 2-2h3c1.1 0 2 .9 2 2v1c0 1.1-.9 2-2 2"/></g><g><path fill="#f18f26" d="M17 29h-5c-1.1 0-2-.9-2-2v-1h2c1.1 0 2-.9 2-2h3c1.1 0 2 .9 2 2v1c0 1.1-.9 2-2 2"/></g><g><path fill="#9268ca" d="M13 22c0-1.1-.9-2-2-2H6c-1.1 0-2 .9-2 2v1c0 1.1.9 2 2 2h5c1.1 0 2-.9 2-2v-1z"/></g><g><path fill="#67757f" d="M11 0z"/></g></g></g></g></svg>