<svg xmlns="http://www.w3.org/2000/svg" viewBox="0 0 45 45" enable-background="new 0 0 45 45"><defs><clipPath id="a"><path d="M0 36h36V0H0v36z"/></clipPath></defs><g><g><g clip-path="url(#a)" transform="matrix(1.25 0 0 -1.25 0 45)"><g><path fill="#67757f" d="M35 16c0-2.2-1.8-2-4-2H5c-2.2 0-4-.2-4 2l2 12c.13 1.92 1.8 4 4 4h22c2.2 0 3.8-2.2 4-4l2-12z"/></g><g><path fill="#ccd6dd" d="M28 23c0-1.1-.9-2-2-2H10c-1.1 0-2 .9-2 2v8c0 1.1.9 2 2 2h16c1.1 0 2-.9 2-2v-8z"/></g><g><path fill="#e1e8ed" d="M30 19c0-1.1-.9-2-2-2H8c-1.1 0-2 .9-2 2v8c0 1.1.9 2 2 2h20c1.1 0 2-.9 2-2v-8z"/></g><g><path fill="#f5f8fa" d="M32 15c0-1.1-.9-2-2-2H6c-1.1 0-2 .9-2 2v8c0 1.1.9 2 2 2h24c1.1 0 2-.9 2-2v-8z"/></g><g><path fill="#9aaab4" d="M35 5c0-2.2-1.8-4-4-4H5C2.8 1 1 2.8 1 5v11c0 2.2 1.8 4 4 4h26c2.2 0 4-1.8 4-4V5z"/></g><g><path fill="#67757f" d="M14 24z"/></g><g><path fill="#67757f" d="M14 24z"/></g><g><path fill="#fcab40" d="M22 35h-5c-1.1 0-2-.9-2-2v-1h4c1.1 0 2-.9 2-2h1c1.1 0 2 .9 2 2v1c0 1.1-.9 2-2 2"/></g><g><path fill="#5dadec" d="M18 31h-5c-1.1 0-2-.9-2-2v-1h4c1.1 0 2-.9 2-2h1c1.1 0 2 .9 2 2v1c0 1.1-.9 2-2 2"/></g><g><path fill="#e75a70" d="M16 24c0-1.1-.9-2-2-2H9c-1.1 0-2 .9-2 2v1c0 1.1.9 2 2 2h5c1.1 0 2-.9 2-2v-1z"/></g><g><path fill="#67757f" d="M25 8c0-1.1-.9-2-2-2H13c-1.1 0-2 .9-2 2v5c0 1.1.9 2 2 2h10c1.1 0 2-.9 2-2V8z"/></g><g><path fill="#67757f" d="M14 12z"/></g><g><path fill="#e1e8ed" d="M23 9c0-.55-.45-1-1-1h-8c-.55 0-1 .45-1 1v3c0 .55.45 1 1 1h8c.55 0 1-.45 1-1V9z"/></g></g></g></g></svg>