<svg xmlns="http://www.w3.org/2000/svg" viewBox="0 0 45 45" enable-background="new 0 0 45 45"><defs><clipPath id="a"><path d="M0 36h36V0H0v36z"/></clipPath></defs><g><path fill="#66757f" d="M34.77 8h2.5V5h-2.5v3z"/><g><g clip-path="url(#a)" transform="matrix(1.25 0 0 -1.25 0 45)"><g><path fill="#55acee" d="M29 32H9c-2.2 0-4-1.8-4-4V4c0-2.2 1.8-4 4-4h20c2.2 0 4 1.8 4 4v24c0 2.2-1.8 4-4 4"/></g><g><path fill="#ccd6dd" d="M27 32H7c-2.2 0-4-1.8-4-4V4c0-2.2 1.8-4 4-4h20c2.2 0 4 1.8 4 4v24c0 2.2-1.8 4-4 4"/></g><g><path fill="#99aab5" d="M28 21c0-.55-.45-1-1-1H7c-.55 0-1 .45-1 1s.45 1 1 1h20c.55 0 1-.45 1-1"/></g><g><path fill="#99aab5" d="M28 16c0-.55-.45-1-1-1H7c-.55 0-1 .45-1 1s.45 1 1 1h20c.55 0 1-.45 1-1"/></g><g><path fill="#99aab5" d="M28 11c0-.55-.45-1-1-1H7c-.55 0-1 .45-1 1s.45 1 1 1h20c.55 0 1-.45 1-1"/></g><g><path fill="#99aab5" d="M20 6c0-.55-.45-1-1-1H7c-.55 0-1 .45-1 1s.45 1 1 1h12c.55 0 1-.45 1-1"/></g><g><path fill="#292f33" d="M7.84 27.27c-.7 0-1.28.67-1.28 1.5 0 .8.57 1.48 1.28 1.48.7 0 1.27-.67 1.27-1.5 0-.8-.56-1.48-1.26-1.48"/></g><g><path fill="#66757f" d="M8.54 28.92c-.05.48-.37.8-.73 1-.47.32-1 1.02-1 1.9 0 1.1.68 2.1 1.5 2.1.84-.02 1.5-.92 1.5-1.92h2c0 2-1.57 3.82-3.5 3.82-1.92 0-3.5-1.82-3.5-4 0-1.86 1.06-3.38 2.58-3.93.76-.3 1.23.44 1.16 1.02"/></g><g><path fill="#292f33" d="M13.84 27.27c-.7 0-1.28.67-1.28 1.5 0 .8.57 1.48 1.28 1.48.7 0 1.27-.67 1.27-1.5 0-.8-.56-1.48-1.26-1.48"/></g><g><path fill="#66757f" d="M14.54 28.92c-.05.48-.37.8-.73 1-.47.32-1 1.02-1 1.9 0 1.1.68 2.1 1.5 2.1.84-.02 1.5-.92 1.5-1.92h2c0 2-1.57 3.82-3.5 3.82-1.92 0-3.5-1.82-3.5-4 0-1.86 1.06-3.38 2.58-3.93.76-.3 1.23.44 1.16 1.02"/></g><g><path fill="#292f33" d="M19.84 27.27c-.7 0-1.28.67-1.28 1.5 0 .8.57 1.48 1.28 1.48.7 0 1.27-.67 1.27-1.5 0-.8-.56-1.48-1.26-1.48"/></g><g><path fill="#66757f" d="M20.54 28.92c-.05.48-.37.8-.73 1-.47.32-1 1.02-1 1.9 0 1.1.68 2.1 1.5 2.1.84-.02 1.5-.92 1.5-1.92h2c0 2-1.57 3.82-3.5 3.82-1.92 0-3.5-1.82-3.5-4 0-1.86 1.06-3.38 2.58-3.93.76-.3 1.23.44 1.16 1.02"/></g><g><path fill="#292f33" d="M25.84 27.27c-.7 0-1.28.67-1.28 1.5 0 .8.57 1.48 1.28 1.48.7 0 1.27-.67 1.27-1.5 0-.8-.56-1.48-1.26-1.48"/></g><g><path fill="#66757f" d="M26.54 28.92c-.05.48-.37.8-.73 1-.47.32-1 1.02-1 1.9 0 1.1.68 2.1 1.5 2.1.84-.02 1.5-.92 1.5-1.92h2c0 2-1.57 3.82-3.5 3.82-1.92 0-3.5-1.82-3.5-4 0-1.86 1.06-3.38 2.58-3.93.76-.3 1.23.44 1.16 1.02"/></g></g></g></g></svg>