<svg xmlns="http://www.w3.org/2000/svg" viewBox="0 0 45 45" enable-background="new 0 0 45 45"><defs><clipPath id="a"><path d="M0 36h36V0H0v36z"/></clipPath><clipPath id="b"><path d="M6 32c-2.2 0-4-1.8-4-4V4c0-2.2 1.8-4 4-4h24c2.2 0 4 1.8 4 4v24c0 2.2-1.8 4-4 4H6z"/></clipPath><clipPath id="c"><path d="M0 36h36V0H0v36z"/></clipPath></defs><g><path fill="#66757f" d="M36.02 8h2.5V5H36v3z"/><g><g clip-path="url(#a)" transform="matrix(1.25 0 0 -1.25 0 45)"><g><path fill="#ccd6dd" d="M30 32H6c-2.2 0-4-1.8-4-4V4c0-2.2 1.8-4 4-4h24c2.2 0 4 1.8 4 4v24c0 2.2-1.8 4-4 4"/></g></g></g><g><g clip-path="url(#b)" transform="matrix(1.25 0 0 -1.25 0 45)"><path fill="#dd2e44" d="M34 23H2v9h32v-9z"/></g></g><g><g clip-path="url(#c)" transform="matrix(1.25 0 0 -1.25 0 45)"><g><path fill="#292f33" d="M8.84 27.27c-.7 0-1.28.67-1.28 1.5 0 .8.57 1.48 1.28 1.48.7 0 1.27-.67 1.27-1.5 0-.8-.56-1.48-1.26-1.48"/></g><g><path fill="#66757f" d="M9.54 28.92c-.05.48-.37.8-.73 1-.47.32-1 1.02-1 1.9 0 1.1.7 2.1 1.5 2.1.84-.02 1.5-.92 1.5-1.92h2c0 2-1.57 3.82-3.5 3.82-1.92 0-3.5-1.82-3.5-4 0-1.86 1.06-3.38 2.58-3.93.76-.3 1.23.44 1.16 1.02"/></g><g><path fill="#292f33" d="M14.84 27.27c-.7 0-1.28.67-1.28 1.5 0 .8.57 1.48 1.28 1.48.7 0 1.27-.67 1.27-1.5 0-.8-.56-1.48-1.26-1.48"/></g><g><path fill="#66757f" d="M15.54 28.92c-.05.48-.37.8-.73 1-.47.32-1 1.02-1 1.9 0 1.1.68 2.1 1.5 2.1.84-.02 1.5-.92 1.5-1.92h2c0 2-1.57 3.82-3.5 3.82-1.92 0-3.5-1.82-3.5-4 0-1.86 1.06-3.38 2.58-3.93.76-.3 1.23.44 1.16 1.02"/></g><g><path fill="#292f33" d="M20.84 27.27c-.7 0-1.28.67-1.28 1.5 0 .8.57 1.48 1.28 1.48.7 0 1.27-.67 1.27-1.5 0-.8-.56-1.48-1.26-1.48"/></g><g><path fill="#66757f" d="M21.54 28.92c-.05.48-.37.8-.73 1-.47.32-1 1.02-1 1.9 0 1.1.68 2.1 1.5 2.1.84-.02 1.5-.92 1.5-1.92h2c0 2-1.57 3.82-3.5 3.82-1.92 0-3.5-1.82-3.5-4 0-1.86 1.06-3.38 2.58-3.93.76-.3 1.23.44 1.16 1.02"/></g><g><path fill="#292f33" d="M26.84 27.27c-.7 0-1.28.67-1.28 1.5 0 .8.57 1.48 1.28 1.48.7 0 1.27-.67 1.27-1.5 0-.8-.56-1.48-1.26-1.48"/></g><g><path fill="#66757f" d="M27.54 28.92c-.05.48-.37.8-.73 1-.47.32-1 1.02-1 1.9 0 1.1.68 2.1 1.5 2.1.84-.02 1.5-.92 1.5-1.92h2c0 2-1.57 3.82-3.5 3.82-1.92 0-3.5-1.82-3.5-4 0-1.86 1.06-3.38 2.58-3.93.76-.3 1.23.44 1.16 1.02"/></g><path fill="#fff" d="M15 17h-4v4h4v-4z"/><path fill="#fff" d="M20 17h-4v4h4v-4z"/><path fill="#fff" d="M25 17h-4v4h4v-4z"/><path fill="#fff" d="M30 17h-4v4h4v-4z"/><path fill="#fff" d="M10 12H6v4h4v-4z"/><path fill="#fff" d="M15 12h-4v4h4v-4z"/><path fill="#fff" d="M20 12h-4v4h4v-4z"/><path fill="#fff" d="M25 12h-4v4h4v-4z"/><path fill="#fff" d="M30 12h-4v4h4v-4z"/><path fill="#fff" d="M10 7H6v4h4V7z"/><path fill="#fff" d="M15 7h-4v4h4V7z"/><path fill="#fff" d="M20 7h-4v4h4V7z"/><path fill="#fff" d="M25 7h-4v4h4V7z"/><path fill="#fff" d="M30 7h-4v4h4V7z"/><path fill="#fff" d="M10 2H6v4h4V2z"/><path fill="#fff" d="M15 2h-4v4h4V2z"/><path fill="#fff" d="M20 2h-4v4h4V2z"/></g></g></g></svg>