<svg xmlns="http://www.w3.org/2000/svg" viewBox="0 0 45 45" enable-background="new 0 0 45 45"><defs><clipPath id="a"><path d="M0 36h36V0H0v36z"/></clipPath></defs><g><g><g clip-path="url(#a)" transform="matrix(1.25 0 0 -1.25 0 45)"><g><path fill="#292f33" d="M7.9 1.13c.74-.72 1.33-1.3 2.43-.2s-.66 2.86.44 3.97c1.1 1.1-.55-.56.55.55 1.1 1.1 2.87-.67 3.98.44 1.1 1.1.5 1.68-.2 2.4l-2.7 2.68c-.72.72-1.8.82-2.4.2L5.02 6.24c-.6-.6-.52-1.7.2-2.42l2.68-2.67z"/></g><g><path fill="#67757f" d="M1.03 2.23c.78-.78 2.05-.78 2.83 0L22.93 21.3c-.1 2.72 4.95 4.95 3.53 6.36-.78.78-4.24-5.66-6.97-4.14L1.02 5.06c-.78-.8-.78-2.05 0-2.83"/></g><g><path fill="#292f33" d="M23.28 25.9c-1.36-1.37-3.58-1.37-4.95 0-1.36 1.36-1.36 3.58 0 4.94 1.37 1.37 3.6 1.37 4.95 0 1.37-1.36 1.37-3.58 0-4.95m-6.36 6.36c-2.15-2.15-2.15-5.63 0-7.78 2.15-2.15 5.63-2.15 7.78 0 2.14 2.15 2.14 5.63 0 7.78-2.15 2.15-5.63 2.15-7.78 0"/></g><g><path fill="#292f33" d="M32.47 28c-1.36-1.35-3.58-1.35-4.94 0-1.37 1.38-1.37 3.6 0 4.96 1.36 1.37 3.58 1.37 4.94 0 1.37-1.36 1.37-3.58 0-4.95M26.1 34.4c-2.14-2.15-2.14-5.63 0-7.78 2.16-2.15 5.64-2.15 7.8 0 2.14 2.15 2.14 5.63 0 7.78-2.16 2.15-5.64 2.15-7.8 0"/></g><g><path fill="#292f33" d="M30.35 18.82c-1.36-1.36-3.58-1.36-4.95 0-1.36 1.37-1.36 3.6 0 4.95 1.37 1.37 3.6 1.37 4.95 0 1.37-1.36 1.37-3.58 0-4.95M24 25.2c-2.16-2.16-2.16-5.64 0-7.8 2.14-2.14 5.62-2.14 7.77 0 2.15 2.16 2.15 5.64 0 7.8-2.15 2.13-5.63 2.13-7.78 0"/></g><g><path fill="#67757f" d="M19.4 17.76c.77-.78.77-2.05 0-2.83-.8-.78-2.05-.78-2.84 0l-2.82 2.83c-.8.78-.8 2.05 0 2.83.78.77 2.04.77 2.82 0l2.83-2.84z"/></g><g><path fill="#292f33" d="M27 27c0-.55-.45-1-1-1s-1 .45-1 1 .45 1 1 1 1-.45 1-1"/></g></g></g></g></svg>