<svg xmlns="http://www.w3.org/2000/svg" viewBox="0 0 45 45" enable-background="new 0 0 45 45"><defs><clipPath id="a"><path d="M0 36h36V0H0v36z"/></clipPath><clipPath id="b"><path d="M22.6 33.3L1.38 12.1l10.6-10.62L33.2 22.7c1.96 1.95 1.17 5.9-1.77 8.84-1.84 1.84-4.1 2.84-6 2.84-1.1 0-2.1-.35-2.83-1.08"/></clipPath><clipPath id="c"><path d="M0 36h36V0H0v36z"/></clipPath></defs><g><g><g clip-path="url(#a)" transform="matrix(1.25 0 0 -1.25 0 45)"><g><path fill="#e1e8ed" d="M33.2 22.7L12 1.5 1.37 12.1 22.6 33.3c1.95 1.96 5.9 1.17 8.84-1.76 2.92-2.93 3.72-6.9 1.76-8.84"/></g></g></g><g><g clip-path="url(#b)" transform="matrix(1.25 0 0 -1.25 0 45)"><g><path fill="#99aab5" d="M1.38 12.1l24.75 24.74 5.56-5.56L6.93 6.54 1.38 12.1z"/></g></g></g><g><g clip-path="url(#c)" transform="matrix(1.25 0 0 -1.25 0 45)"><g><path fill="#66757f" d="M10.22 10.32c-2.93 2.93-6.88 3.73-8.84 1.77C-.57 10.13.22 6.17 3.15 3.24 6.08.32 10.05-.47 12 1.5c1.94 1.94 1.15 5.9-1.78 8.82"/></g><g><path fill="#ccd6dd" d="M31.68 31.28c2.72-2.9 3.42-6.7 1.52-8.58L12 1.5c1.94 1.94 1.15 5.9-1.78 8.82l-3.9 3.9 21.23 21.2 4.14-4.13-.02-.02z"/></g><g><path fill="#e1e8ed" d="M33.1 32.7c2.72-2.9 3.4-6.7 1.52-8.6L13.4 2.9c1.96 1.95 1.17 5.9-1.76 8.84L9.16 14.2l21.2 21.23 2.74-2.73z"/></g><g><path fill="#99aab5" d="M2.2 11C.8 9.6 1.38 6.63 3.5 4.24c1.9-2.16 4.94-4 7.18-2.12.76.63 1.16 1.6 1.14 2.73-.02 1.97-1.3 4.2-3.3 5.8-.33.25-.8.2-1.06-.13s-.2-.8.12-1.05c1.65-1.3 2.72-3.13 2.74-4.64 0-.48-.1-1.13-.6-1.57C8.2 2 5.8 3.9 4.6 5.23c-1.68 1.9-2.06 4-1.35 4.7.18.2.4.24.7.15.87-.26 2-1.66 2.53-4.2.1-.4.48-.67.9-.58.4.08.65.48.57.9C7.37 9 6 11.03 4.4 11.5c-.82.24-1.6.05-2.2-.52"/></g><g><path fill="#99aab5" d="M28.43 31.7c-.02 0-.04-.02-.05-.05-.26-.32-.2-.8.1-1.05.04-.03 3.1-2.54 3.27-5.82.02-.4.37-.73.78-.7.42 0 .73.36.72.78-.2 3.96-3.67 6.8-3.82 6.9-.3.25-.73.22-1-.05"/></g><g><path fill="#99aab5" d="M26.3 29.6c0-.03-.03-.05-.05-.07-.25-.32-.2-.8.12-1.05.03-.03 3.1-2.54 3.25-5.82.03-.4.38-.73.8-.7.4 0 .72.36.7.78-.2 3.95-3.66 6.8-3.8 6.9-.3.25-.74.22-1-.05"/></g><g><path fill="#99aab5" d="M17.82 21.1s-.03-.03-.05-.05c-.26-.32-.2-.8.1-1.06.04-.03 3.1-2.55 3.27-5.82.02-.42.37-.74.8-.72.4.03.72.38.7.8-.2 3.95-3.67 6.78-3.82 6.9-.3.24-.73.22-1-.05"/></g><g><path fill="#99aab5" d="M12.88 16.16c-.02-.02-.04-.04-.06-.06-.26-.32-.2-.8.1-1.06.04-.02 3.1-2.54 3.27-5.8 0-.43.36-.75.78-.72.4.02.73.37.7.78-.18 3.96-3.66 6.8-3.8 6.9-.3.25-.74.23-1-.04"/></g><g><path fill="#5dadec" d="M24.78 16.46c1.3 1.35 3.5 3.38 3.75 3.66.6.64-1.54 5.47-3.3 6.86-.4.3-.86.05-1.06-.16-1.5-1.53-2.7-2.7-3.68-3.7-.24-.23-.37-.65-.05-.96 1.07-.98 3-3.42 3.53-5.66.06-.26.53-.32.8-.04"/></g></g></g></g></svg>