<svg xmlns="http://www.w3.org/2000/svg" viewBox="0 0 45 45" enable-background="new 0 0 45 45"><defs><clipPath id="a"><path d="M0 36h36V0H0v36z"/></clipPath></defs><g><g><g clip-path="url(#a)" transform="matrix(1.25 0 0 -1.25 0 45)"><g><path fill="#67757f" d="M16 3c0-1.66-1.34-3-3-3s-3 1.34-3 3 1.34 3 3 3 3-1.34 3-3"/></g><g><path fill="#67757f" d="M35 3c0-1.66-1.34-3-3-3s-3 1.34-3 3 1.34 3 3 3 3-1.34 3-3"/></g><path fill="#67757f" d="M32 2H13v2h19V2z"/><g><path fill="#9aaab4" d="M20 20.5c0 1.38 1.12 1.5 2.5 1.5s2.5-.12 2.5-1.5v-18C25 1.12 23.88 0 22.5 0S20 1.12 20 2.5v18z"/></g><g><path fill="#67757f" d="M27 21c0-1.1-.9-2-2-2h-5c-1.1 0-2 .9-2 2s.9 1 2 1h5c1.1 0 2 .1 2-1"/></g><g><path fill="#da2f47" d="M28 9c0-1.1-.9-2-2-2h-7c-1.1 0-2 .9-2 2v5c0 1.1.9 2 2 2h7c1.1 0 2-.9 2-2V9z"/></g><g><path fill="#da2f47" d="M28 31c0-1.1-.9-2-2-2h-7c-1.1 0-2 .9-2 2v1c0 1.1.9 2 2 2h7c1.1 0 2-.9 2-2v-1z"/></g><g><path fill="#da2f47" d="M13 14c-1.1 0-2 .9-2 2v13c0 1.1.9 2 2 2h15v1c0 2.2-1.8 4-4 4H7c-2.2 0-4-1.8-4-4V13c0-2.2 1.8-4 4-4h14c2.2 0 4 1.8 4 4v1H13z"/></g><g><path fill="#e75a70" d="M9 16c0-1.1-.9-2-2-2s-2 .9-2 2v13c0 1.1.9 2 2 2s2-.9 2-2V16z"/></g></g></g></g></svg>