<svg xmlns="http://www.w3.org/2000/svg" viewBox="0 0 45 45" enable-background="new 0 0 45 45"><g><g><path fill="#e1e8ed" d="M33.83 33.15l-1.08-5.42 4.73 1.05-3.1-4.13 5.74-2.3-5.9-3.53 4.06-3.04H32.8l3.47-4.6-5.4 1.07 1.6-7.54-5.9 5.4-2.27-5.7-3.6 7.22-3.6-5.95-1.65 5.57L9.2 7.08l2.73 6.5-5.04-1.1 3.06 4.1-5.14 2.27 5.66 3.4-2.14 3.22h4.85L6.32 38.13l11.5-9.4 2.3 5.77 3.68-6.12 3.62 7.2 2.23-5.57 4.18 3.15z"/></g><g><path fill="#67757f" d="M27.18 7.4L24.45.62l-3.9 7.78-3.92-6.55-2.08 6.94L5.8 2.92l3.52 8.5-6.2-1.4 4.42 5.92-6.1 2.7 6.83 4.1-2.86 4.3h5.16l-9.4 17.33 16-13.1 2.7 6.73 3.83-6.38 3.88 7.78 2.77-6.9 5.82 4.35-1.42-7.08 6.52 1.45-4.4-5.87 6.76-2.7-6.6-3.97 5.94-4.46h-7.03l4.04-5.4-7.1 1.43L35.03.3l-7.84 7.1zm-2.88-3l2.27 5.7 5.9-5.4-1.6 7.55 5.4-1.08-3.46 4.6h5.48l-4.05 3.05 5.9 3.54-5.74 2.3 3.08 4.12-4.73-1.05 1.08 5.42L29.65 30l-2.23 5.6-3.6-7.22-3.68 6.12-2.3-5.78-11.5 9.4 6.85-12.65H8.32l2.15-3.22-5.66-3.4 5.14-2.28-3.07-4.1 5.02 1.12-2.7-6.52 6.22 4.16 1.67-5.57 3.6 5.95 3.6-7.2z"/></g></g></svg>