<svg xmlns="http://www.w3.org/2000/svg" viewBox="0 0 45 45" enable-background="new 0 0 45 45"><defs><clipPath id="a"><path d="M0 36h36V0H0v36z"/></clipPath><clipPath id="b"><path d="M11.2 16.2L3.44 8.42c-.78-.78-.65-2.17.28-3.1l.86-.86c.94-.94 2.33-1.06 3.1-.28l7.8 7.78c.77.78.64 2.17-.3 3.1l-.84.86c-.52.52-1.2.8-1.8.8-.5 0-.97-.18-1.3-.52"/></clipPath><clipPath id="c"><path d="M0 36h36V0H0v36z"/></clipPath></defs><g><g><g clip-path="url(#a)" transform="matrix(1.25 0 0 -1.25 0 45)"><g><path fill="#ccd6dd" d="M12.62 19.03c.7.7 7.07 12.73 22.63 16.97-1.4-1.4-20.5-20.5-21.2-21.2-.72.7-1.43 4.23-1.43 4.23"/></g><g><path fill="#9aaab4" d="M18.28 13.37c.7.7 12.73 7.07 16.97 22.63-1.4-1.4-20.5-20.5-21.2-21.2.7-.72 4.23-1.43 4.23-1.43"/></g><g><path fill="#292f33" d="M15.45 11.96c.78.78.66 2.17-.28 3.1l-.85.86c-.94.94-2.33 1.06-3.1.28L3.4 8.42c-.77-.78-.64-2.17.3-3.1l.84-.86c.94-.93 2.33-1.06 3.1-.28l7.8 7.78z"/></g></g></g><g><g clip-path="url(#b)" transform="matrix(1.25 0 0 -1.25 0 45)"><g><path fill="#67757f" d="M19 10.74c-.1-.54-.97-.82-1.95-.63L2.93 12.95c-.98.2-1.68.8-1.57 1.33.1.54 1 .82 1.96.63l14.12-2.83c.98-.2 1.68-.8 1.57-1.33"/></g><g><path fill="#67757f" d="M22.3 14c-.12-.53-1-.8-1.98-.6L6.2 16.2c-.97.2-1.67.8-1.56 1.34.1.55.98.83 1.96.63l14.12-2.82c.97-.2 1.67-.8 1.57-1.34"/></g><g><path fill="#67757f" d="M18.23 6.82c-.1-.54-1-.83-1.96-.63L2.14 9c-.97.2-1.67.8-1.56 1.35.1.54.98.82 1.96.62l14.12-2.82c.97-.2 1.67-.8 1.57-1.33"/></g><g><path fill="#67757f" d="M14.66 3.25c-.1-.54-.98-.82-1.96-.63L-1.42 5.46c-.97.2-1.68.8-1.57 1.33.12.54 1 .83 1.97.63L13.1 4.6c.97-.2 1.67-.8 1.56-1.35"/></g></g></g><g><g clip-path="url(#c)" transform="matrix(1.25 0 0 -1.25 0 45)"><g><path fill="#292f33" d="M6.97 2.06C5.4.5 2.87.5 1.3 2.06c-1.55 1.56-1.55 4.1 0 5.65C2.88 9.3 5.43 9.3 7 7.76c1.57-1.56 1.55-4.13 0-5.7"/></g><g><path fill="#292f33" d="M19.7 9.84c-.6-.6-1.54-.6-2.13 0l-8.84 8.83c-.58.6-.58 1.54 0 2.13.6.58 1.54.58 2.12 0l8.84-8.84c.58-.6.58-1.54 0-2.12"/></g></g></g></g></svg>