<svg xmlns="http://www.w3.org/2000/svg" viewBox="0 0 45 45" enable-background="new 0 0 45 45"><defs><clipPath id="a"><path d="M0 36h36V0H0v36z"/></clipPath><clipPath id="b"><path d="M4 36s-4 0-4-4V4c0-4 4-4 4-4h28c4 0 4 4 4 4v28s0 4-4 4H4z"/></clipPath></defs><g><g><g clip-path="url(#a)" transform="matrix(1.25 0 0 -1.25 0 45)"><g><path fill="#88c9f9" d="M36 4s0-4-4-4H4S0 0 0 4v28c0 4 4 4 4 4h28c4 0 4-4 4-4V4z"/></g></g></g><g><g clip-path="url(#b)" transform="matrix(1.25 0 0 -1.25 0 45)"><g><path fill="#3e721d" d="M24 34c1 0 2-3 3-3s3 0 3-1-3-1-3-2-1-1-2-1-3 0-3 1 2 0 2 1-1 5 0 5"/></g><g><path fill="#3e721d" d="M21 26c0 1 2 1 2 1s1-2 0-2-2 1-2 1"/></g><g><path fill="#3e721d" d="M23 24c-1 0-1-2-1-3s0-3-1-3-2-1-2-2-1-2-2-2-2-2-2-2-4-1-5-1-3 0-3-1-3-2-1-2 2 1 3 1h2s3 1 3 0 0-2 1-2 2 1 2 2 1 1 2 1 2 0 2 1 1 2 2 2 1 2 1 3 0 3 1 3 2 3 1 3-2 0-2 1-1 1-1 1"/></g><g><path fill="#3e721d" d="M8 6c0 1 0 2 1 2h3c1 0 1 0 0-1s-1 0-2 0 0-2-1-2-1 1-1 1"/></g><g><path fill="#3e721d" d="M4 3c0 1 1 1 1 2S4 5 4 6s1 1 2 1 1-1 1-2-1-1-1-2-1-1-1-1-1 0-1 1"/></g></g></g></g></svg>