<svg xmlns="http://www.w3.org/2000/svg" viewBox="0 0 45 45" enable-background="new 0 0 45 45"><defs><clipPath id="a"><path d="M0 36h36V0H0v36z"/></clipPath></defs><g><g><g clip-path="url(#a)" transform="matrix(1.25 0 0 -1.25 0 45)"><g><path fill="#ccd6dd" d="M34.5 11c0-2.2-1.8-2-4-2h-25c-2.2 0-4-.2-4 2l2 14c.3 1.75 1 2 2 2h25c1 0 1.8-.2 2-2l2-14z"/></g><g><path fill="#67757f" d="M13.5 20z"/></g><g><path fill="#67757f" d="M13.5 20z"/></g><g><path fill="#67757f" d="M13.5 8z"/></g><g><path fill="#292f33" d="M28.5 19.5c0-.83-.67-1.5-1.5-1.5H9c-.83 0-1.5.67-1.5 1.5S8.17 21 9 21h18c.83 0 1.5-.67 1.5-1.5"/></g><g><path fill="#5dadec" d="M26.5 19v14c0 1.1-.9 2-2 2h-13c-1.1 0-2-.9-2-2V19h17z"/></g><g><path fill="#9aaab4" d="M34.5 11c0 1.1-.9 2-2 2h-29c-1.1 0-2-.9-2-2V3c0-1.1.9-2 2-2h29c1.1 0 2 .9 2 2v8z"/></g><g><path fill="#5dadec" d="M18.5 14z"/></g><g><path fill="#5dadec" d="M18.5 14z"/></g><g><path fill="#67757f" d="M13.5 13V7c0-1.1.9-2 2-2h5c1.1 0 2 .9 2 2v6h-9z"/></g><g><path fill="#9aaab4" d="M22.5 13v1c0 1.1-.9 2-2 2h-5c-1.1 0-2-.9-2-2v-1h9z"/></g><g><path fill="#9aaab4" d="M19.5 8.5c0-.83-.67-1.5-1.5-1.5s-1.5.67-1.5 1.5v1c0 .83.67 1.5 1.5 1.5s1.5-.67 1.5-1.5v-1z"/></g><g><path fill="#fff" d="M18.8 27l2.78 2.78c.23.22.23.58 0 .8-.22.23-.58.23-.8 0L18 27.8l-2.77 2.78c-.23.23-.6.23-.8 0-.23-.22-.23-.58 0-.8L17.2 27l-2.78-2.78c-.23-.22-.23-.58 0-.8.1-.1.25-.17.4-.17.14 0 .3.06.4.17L18 26.2l2.78-2.78c.1-.1.26-.16.4-.16.15 0 .3.05.4.16.23.22.23.58 0 .8L18.8 27z"/></g></g></g></g></svg>