<svg xmlns="http://www.w3.org/2000/svg" viewBox="0 0 45 45" enable-background="new 0 0 45 45"><defs><clipPath id="a"><path d="M0 36h36V0H0v36z"/></clipPath><clipPath id="b"><path d="M4 36s-4 0-4-4V4c0-4 4-4 4-4h28c4 0 4 4 4 4v28s0 4-4 4H4z"/></clipPath><clipPath id="c"><path d="M16 22C4 12 0 10 0 10V4c0-4 4-4 4-4h28c4 0 4 4 4 4v6s-5 2-16 12h-4z"/></clipPath></defs><g><g><g clip-path="url(#a)" transform="matrix(1.25 0 0 -1.25 0 45)"><g><path fill="#88c9f9" d="M36 4s0-4-4-4H4S0 0 0 4v28c0 4 4 4 4 4h28c4 0 4-4 4-4V4z"/></g></g></g><g><g clip-path="url(#b)" transform="matrix(1.25 0 0 -1.25 0 45)"><g><path fill="#292f33" d="M0 10s4 2 16 12h4c11-10 16-12 16-12V0H0v10z"/></g></g></g><g><g clip-path="url(#c)" transform="matrix(1.25 0 0 -1.25 0 45)"><g><path fill="#fff" d="M15 23L3 13s2 1 4 1 2-3 3-3 2 2 4 2c1.38 0 1.37-1 3-1 1 0 2 1 3 1s2-1 3-1 2 2 4 2h5c1 0 0 1 0 1l-12 8h-5z"/></g></g></g></g></svg>