<?xml version="1.0" encoding="UTF-8" standalone="no"?><svg xmlns:dc="http://purl.org/dc/elements/1.1/" xmlns:cc="http://creativecommons.org/ns#" xmlns:rdf="http://www.w3.org/1999/02/22-rdf-syntax-ns#" xmlns:svg="http://www.w3.org/2000/svg" xmlns="http://www.w3.org/2000/svg" viewBox="0 0 45 45" style="enable-background:new 0 0 45 45;" xml:space="preserve" version="1.1" id="svg2"><metadata id="metadata8"><rdf:RDF><cc:Work rdf:about=""><dc:format>image/svg+xml</dc:format><dc:type rdf:resource="http://purl.org/dc/dcmitype/StillImage"/></cc:Work></rdf:RDF></metadata><defs id="defs6"><clipPath id="clipPath16" clipPathUnits="userSpaceOnUse"><path id="path18" d="M 0,36 36,36 36,0 0,0 0,36 Z"/></clipPath></defs><g transform="matrix(1.25,0,0,-1.25,0,45)" id="g10"><g id="g12"><g clip-path="url(#clipPath16)" id="g14"><g transform="translate(25.208,19)" id="g20"><path id="path22" style="fill:#4b545d;fill-opacity:1;fill-rule:nonzero;stroke:none" d="m 0,0 -14.208,0 c 0,0 -4.109,-3.332 -4.757,-3.896 -3.493,-3.041 -6.243,-2.768 -6.243,-4.128 l 0,-10.976 36,0 0,9 L 0,0 Z"/></g><g transform="translate(3.9111,0)" id="g24"><path id="path26" style="fill:#292f33;fill-opacity:1;fill-rule:nonzero;stroke:none" d="m 0,0 c -0.086,0.646 -0.271,2.974 1.151,5.031 0.415,0.6 -0.032,1.472 2.282,5 0.635,0.97 3.051,2.928 3.711,3.688 0.659,0.76 1.322,3.406 1.322,3.406 l -1.51,0.029 c 0,0 -0.861,-2.273 -1.562,-2.625 C 3.526,13.594 1.592,11.407 1.227,10.779 0.72,9.906 -2.615,5.343 -3.203,4.375 -3.356,4.123 -3.614,3.694 -3.911,3.2 L -3.911,0 0,0 Z"/></g><g transform="translate(31.374,14.1982)" id="g28"><path id="path30" style="fill:#292f33;fill-opacity:1;fill-rule:nonzero;stroke:none" d="m 0,0 -9.224,1.961 1.301,-3.725 2.098,-1.034 c 1.295,-0.837 2.894,-1.31 3.102,-3.666 0.056,-0.632 -0.389,-2.882 -0.755,-4.262 -0.306,-1.159 0.057,-2.078 -0.114,-3.472 l 3.444,0 c -0.724,1.452 -1.16,3.184 -1.148,3.397 0.016,0.309 0.313,3.224 0.48,4.859 0.765,-1.377 2.102,-3.889 2.15,-4.714 0.037,-0.64 -0.011,-2.307 -0.056,-3.542 l 3.348,0 0,11.562 C 4.626,-1.39 1.471,-1.348 0,0"/></g><g transform="translate(15.6646,6.8535)" id="g32"><path id="path34" style="fill:#292f33;fill-opacity:1;fill-rule:nonzero;stroke:none" d="m 0,0 c -0.525,-1.297 -0.241,-1.298 -0.306,-2.099 -0.133,-1.633 0.758,-2.652 0.758,-2.652 0,0 0.67,1.379 0.654,1.929 C 1.04,-0.328 2.071,0.554 1.939,1.227 1.939,1.227 0.525,1.297 0,0"/></g><g transform="translate(10.7197,5.8535)" id="g36"><path id="path38" style="fill:#292f33;fill-opacity:1;fill-rule:nonzero;stroke:none" d="m 0,0 c 0.301,0.51 1.124,0.543 1.581,1.344 0.456,0.801 0.445,2.183 0.923,3.632 0.478,1.449 2.608,2.359 2.608,2.359 0,0 -1.797,2.533 -3.243,0.812 C 0.627,6.671 0.838,3.963 0.689,3.22 0.54,2.478 -1.144,0.286 -1.144,0.286 c 0,0 -0.361,-2.382 -0.289,-3.046 C -1.361,-3.424 -0.581,-0.983 0,0"/></g><g transform="translate(23.2871,7.4912)" id="g40"><path id="path42" style="fill:#292f33;fill-opacity:1;fill-rule:nonzero;stroke:none" d="M 0,0 C -0.377,0.609 -1.062,1.391 -1.19,2.114 -1.338,2.95 -1.394,3.387 -1.673,3.493 -1.952,3.6 -2.456,3.375 -2.829,2.875 -3.176,2.41 -2.892,1.048 -2.892,1.048 c 0,0 0.843,-0.73 1.376,-1.067 0.454,-0.286 0.763,-3.012 0.852,-3.332 C -0.576,-3.669 0.377,-0.61 0,0"/></g><g transform="translate(16.0635,26.0938)" id="g44"><path id="path46" style="fill:#e1e8ed;fill-opacity:1;fill-rule:nonzero;stroke:none" d="m 0,0 c -0.762,0 -5.001,-5.587 -5.001,-5.587 l -0.157,-0.256 -5.312,-5.72 c 0,0 0.242,-0.737 0.698,-1.265 0.731,-0.847 2.059,0.709 2.962,1.003 1.454,0.471 0.977,-2.182 1.916,-2.289 1.272,-0.146 2.585,2.184 3.512,2.109 0.925,-0.074 1.953,-2.649 2.936,-2.649 1.468,0 1.309,1.947 3.32,1.947 0.954,0 1.141,-1.117 2.514,-0.952 1.073,0.129 2.621,2.404 3.133,2.596 1.15,0.434 2.6,-1.446 3.452,-1.356 0.85,0.09 0.655,0.186 0.655,0.186 L 3.512,0.063 l -0.645,0 C 2.353,0.063 2.131,0.088 1.542,0.088 1.146,0.088 0.214,0 0,0"/></g><g transform="translate(15.7207,22.7061)" id="g48"><path id="path50" style="fill:#aab8c2;fill-opacity:1;fill-rule:nonzero;stroke:none" d="m 0,0 c 0,0 -1.838,-3.482 -2.025,-4.049 -0.187,-0.567 -0.631,-2.448 -0.631,-2.448 0,0 0.886,0.59 1.186,1.039 0.3,0.45 0.762,1.906 1.098,2.475 0.335,0.568 0.953,1.166 1.185,1.596 0.233,0.43 0.141,2.551 0.141,2.551 L 0,0 Z"/></g><g transform="translate(11.6802,21.4629)" id="g52"><path id="path54" style="fill:#aab8c2;fill-opacity:1;fill-rule:nonzero;stroke:none" d="m 0,0 c -0.479,-0.511 -1.886,-2.41 -1.886,-2.41 l -4.218,-4.5 c 0,0 0.53,-1.525 1.171,-1.541 0.641,-0.017 0.89,1.481 0.907,2.189 0.016,0.709 1.928,1.885 2.166,2.565 0.238,0.679 1.049,0.908 1.558,1.517 0.51,0.609 0.589,1.445 1.292,2.117 C 2.771,1.638 1.797,2.078 1.797,2.078 1.797,2.078 0.479,0.511 0,0"/></g><g transform="translate(19.1953,17.5156)" id="g56"><path id="path58" style="fill:#aab8c2;fill-opacity:1;fill-rule:nonzero;stroke:none" d="m 0,0 c -0.104,1.114 -1.099,3.592 -1.099,3.592 0,0 -0.402,-2.154 -0.441,-2.876 -0.039,-0.721 0.191,-1.611 0.406,-2.403 0.216,-0.792 0.818,-1.839 0.818,-1.839 0,0 0.42,2.412 0.316,3.526"/></g><g transform="translate(20.415,26.1572)" id="g60"><path id="path62" style="fill:#ccd6dd;fill-opacity:1;fill-rule:nonzero;stroke:none" d="m 0,0 -1.396,0 c -0.189,0 0.167,-1.162 0.021,-2.043 -0.161,-0.963 1.821,-3.066 2.239,-5.307 0.099,-0.529 0.716,-3.322 1.353,-4.854 0.598,-1.441 0.819,-1.519 0.819,-1.519 0,0 1.971,0.225 2.842,2.124 0.513,1.118 4.274,-2.481 5.081,-0.36 0,0 -3.166,2.326 -6.169,6.467 C 2.034,-1.693 0.501,0 0,0"/></g><g transform="translate(22.2891,19.5264)" id="g64"><path id="path66" style="fill:#aab8c2;fill-opacity:1;fill-rule:nonzero;stroke:none" d="M 0,0 C 0.158,-0.749 0.66,-1.224 0.596,-2.83 0.534,-4.389 3.645,-5.654 3.351,-5.948 2.319,-6.98 1.162,-7.092 1.162,-7.092 c -0.336,0.18 -1.313,1.872 -1.536,2.833 -0.222,0.96 -0.623,3.797 -0.892,4.379 -0.269,0.583 -0.848,1.277 -1.169,1.954 -0.321,0.676 -0.417,1.246 -0.417,1.246 0,0 0.962,-0.375 1.618,-0.936 C -0.578,1.822 -0.158,0.75 0,0"/></g></g></g></g></svg>
