<svg xmlns="http://www.w3.org/2000/svg" viewBox="0 0 45 45" enable-background="new 0 0 45 45"><defs><clipPath id="a"><path d="M0 36h36V0H0v36z"/></clipPath><clipPath id="b"><path d="M17 29l-1-10h4l-1 10h-2z"/></clipPath><clipPath id="c"><path d="M0 36h36V0H0v36z"/></clipPath></defs><g><g><g clip-path="url(#a)" transform="matrix(1.25 0 0 -1.25 0 45)"><g><path fill="#88c9f9" d="M36 4s0-4-4-4H4S0 0 0 4v28c0 4 4 4 4 4h28c4 0 4-4 4-4V4z"/></g><g><path fill="#fff" d="M18 31h-1v-3h2v3h-1z"/></g><g><path fill="#dd2e44" d="M19 33s0 1-1 1-1-1-1-1v-2h2v2z"/></g><g><path fill="#dd2e44" d="M17 29l-1-10h4l-1 10h-2z"/></g></g></g><g><g clip-path="url(#b)" transform="matrix(1.25 0 0 -1.25 0 45)"><path fill="#fff" d="M15 23h6v3h-6v-3z"/></g></g><g><g clip-path="url(#c)" transform="matrix(1.25 0 0 -1.25 0 45)"><path fill="#fff" d="M14 16h8v4h-8v-4z"/><path fill="#dd2e44" d="M15 12h6v4h-6v-4z"/><g><path fill="#dd2e44" d="M15 16S15 5 5 0h3s7 3 9 16h-2z"/></g><g><path fill="#dd2e44" d="M21 16S21 5 31 0h-3s-7 3-9 16h2z"/></g><path fill="#dd2e44" d="M19 0h-2v13h2V0z"/><g><path fill="#dd2e44" d="M8 0s5 3 10 3 10-3 10-3v1.88S23 5 18 5 8 1.88 8 1.88V0z"/></g></g></g></g></svg>