<?xml version="1.0" encoding="UTF-8" standalone="no"?><svg xmlns:dc="http://purl.org/dc/elements/1.1/" xmlns:cc="http://creativecommons.org/ns#" xmlns:rdf="http://www.w3.org/1999/02/22-rdf-syntax-ns#" xmlns:svg="http://www.w3.org/2000/svg" xmlns="http://www.w3.org/2000/svg" viewBox="0 0 45 45" style="enable-background:new 0 0 45 45;" xml:space="preserve" version="1.1" id="svg2"><metadata id="metadata8"><rdf:RDF><cc:Work rdf:about=""><dc:format>image/svg+xml</dc:format><dc:type rdf:resource="http://purl.org/dc/dcmitype/StillImage"/></cc:Work></rdf:RDF></metadata><defs id="defs6"><clipPath id="clipPath18" clipPathUnits="userSpaceOnUse"><path id="path20" d="M 0,36 36,36 36,0 0,0 0,36 Z"/></clipPath></defs><g transform="matrix(1.25,0,0,-1.25,0,45)" id="g10"><path id="path12" style="fill:#be1931;fill-opacity:1;fill-rule:nonzero;stroke:none" d="m 16.103,0 3,0 0,10 -3,0 0,-10 z"/><g id="g14"><g clip-path="url(#clipPath18)" id="g16"><g transform="translate(17.6025,5.6777)" id="g22"><path id="path24" style="fill:#dd2e44;fill-opacity:1;fill-rule:nonzero;stroke:none" d="m 0,0 c -2.151,0 -4.202,-0.328 -6.093,-0.906 1.281,1.659 2.303,3.264 3.12,4.718 l 5.947,0 C 3.789,2.358 4.812,0.753 6.093,-0.906 4.202,-0.328 2.151,0 0,0 M 3.116,10.863 -3.117,10.861 C -3.146,10.757 -5.862,1.337 -15.141,-5.678 l 5.825,0 C -6.864,-4.021 -3.596,-3 0,-3 3.597,-3 6.864,-4.021 9.317,-5.678 l 5.827,0 C 5.898,1.32 3.146,10.759 3.116,10.863"/></g><g transform="translate(14.5396,19.9619)" id="g26"><path id="path28" style="fill:#dd2e44;fill-opacity:1;fill-rule:nonzero;stroke:none" d="m 0,0 c -0.225,-1.239 -0.487,-2.437 -0.786,-3.5 l 7.755,0 C 6.669,-2.437 6.409,-1.239 6.183,0 L 0,0 Z"/></g><g transform="translate(23.4199,16.4141)" id="g30"><path id="path32" style="fill:#cdd6dd;fill-opacity:1;fill-rule:nonzero;stroke:none" d="m 0,0 -0.875,0.643 c -0.046,0.033 -0.101,0.05 -0.158,0.05 l -9.547,0 c -0.057,0 -0.112,-0.017 -0.158,-0.05 L -11.613,0 c -0.07,-0.051 -0.108,-0.132 -0.102,-0.215 0,0 0.204,-3.441 0.265,-3.553 0.074,-0.133 0.508,-0.479 0.588,-0.479 l 10.111,0 c 0.08,0 0.515,0.346 0.588,0.479 0.061,0.112 0.266,3.553 0.266,3.553 C 0.107,-0.132 0.069,-0.051 0,0"/></g><g transform="translate(20.1992,23.2949)" id="g34"><path id="path36" style="fill:#cdd6dd;fill-opacity:1;fill-rule:nonzero;stroke:none" d="M 0,0 -5.136,0 C -5.284,-1.085 -5.458,-2.22 -5.66,-3.333 l 6.183,0 C 0.321,-2.22 0.148,-1.085 0,0"/></g><g transform="translate(19.7744,26.7949)" id="g38"><path id="path40" style="fill:#dd2e44;fill-opacity:1;fill-rule:nonzero;stroke:none" d="m 0,0 -4.287,0 c -0.108,-1.002 -0.248,-2.212 -0.424,-3.5 l 5.136,0 C 0.249,-2.212 0.108,-1.002 0,0"/></g><g transform="translate(19.6563,27.9111)" id="g42"><path id="path44" style="fill:#cdd6dd;fill-opacity:1;fill-rule:nonzero;stroke:none" d="m 0,0 c -0.024,-0.004 -4.02,-0.002 -4.05,0.003 -0.035,-0.334 -0.074,-0.704 -0.118,-1.119 l 4.286,0 C 0.073,-0.702 0.035,-0.333 0,0"/></g><g transform="translate(19.6563,27.9111)" id="g46"><path id="path48" style="fill:#aab8c2;fill-opacity:1;fill-rule:nonzero;stroke:none" d="m 0,0 c -0.059,0.571 -0.135,1.281 -0.135,1.281 l -3.781,0 c 0,0 -0.076,-0.708 -0.134,-1.278 C -4.02,-0.002 -0.024,-0.004 0,0"/></g><g transform="translate(15.1748,30.0986)" id="g50"><path id="path52" style="fill:#e1e8ed;fill-opacity:1;fill-rule:nonzero;stroke:none" d="m 0,0 0,-1.318 c 0,-0.276 0.233,-0.5 0.521,-0.5 l 3.887,0 c 0.288,0 0.522,0.224 0.522,0.5 L 4.93,0 0,0 Z"/></g><g transform="translate(19.583,31.9165)" id="g54"><path id="path56" style="fill:#dd2e44;fill-opacity:1;fill-rule:nonzero;stroke:none" d="m 0,0 -1.099,0 -0.205,3.758 c 0,0.096 -0.082,0.175 -0.182,0.175 l -0.848,0 c -0.101,0 -0.183,-0.079 -0.183,-0.175 L -2.722,0 -3.888,0 c -0.287,0 -0.52,-0.224 -0.52,-0.5 l 0,-1.318 4.929,0 0,1.318 C 0.521,-0.224 0.288,0 0,0"/></g></g></g></g></svg>
