<svg xmlns="http://www.w3.org/2000/svg" viewBox="0 0 45 45" enable-background="new 0 0 45 45"><defs><clipPath id="a"><path d="M0 36h36V0H0v36z"/></clipPath></defs><g><g><g clip-path="url(#a)" transform="matrix(1.25 0 0 -1.25 0 45)"><g><path fill="#ccd6dd" d="M12 28.4l-9 2.4c-1.66.45-3-.54-3-2.2v-20c0-1.65 1.34-3.35 3-3.8l9-2.4v26z"/></g><g><path fill="#ccd6dd" d="M24 5.6l9-2.4c1.66-.45 3 .54 3 2.2v20c0 1.65-1.34 3.35-3 3.8l-9 2.4v-26z"/></g><g><path fill="#e1e8ed" d="M24 5.6L12 2.4v26l12 3.2v-26z"/></g><g><path fill="#55acee" d="M12 26.4l-8 2.14c-1.1.3-2-.36-2-1.47v-18c0-1.1.9-2.24 2-2.53l8-2.15v22z"/></g><g><path fill="#55acee" d="M32 27.46l-8 2.15v-22l8-2.14c1.1-.3 2 .36 2 1.47v18c0 1.1-.9 2.24-2 2.53"/></g><g><path fill="#88c9f9" d="M24 7.6L12 4.4v22l12 3.2v-22z"/></g><g><path fill="#5c913b" d="M12 14.5c-.27 0-.6-.1-.84-.15-.44-.07-.33-.52-.47-.44-.14.08-.48.27-.82.66-.34.4.25.48.42.63.17.13-.32.16-.5.32-.16.16-.46-.1-.73.28-.27.37-.1.8-.13 1.17-.03.4.44.35.74.34.3 0 .54-.13.54-.6 0-.45.37-.7.27-.14-.12.56.1.66.22.9.13.22.37.54.67 1.03.2.35.38.27.6.15V22c-.06.04-.1.1-.17.1-.3.14.1-.74-.13-1.1-.24-.35-.6-.2-.97-.1s-.72.55-.45 1.02c.27.46.8.26 1.05.65.27.38-.95.67-1.4.94-.43.28-.95.42-1.4.16-.43-.27-1.36-.14-1.73-.2-.37-.04-.44.38-.5.7-.07.33-.66.33-1.26.34-.6 0-1.74-.28-1.55-1.76.06-.5.6-.12.7-.03.1.1.6-.2.67-.63.07-.44.03-.9-.1-1.23-.14-.35.34-1 .6-1.6.27-.62.58-.7.7-.74.14-.03.92-.58.88-1-.03-.4.7-.98 1-1.33.32-.35.5-.66.9-.85.4-.18.85-1.03 1.05-1.16.16-.1.42-.45.58-.58-.2-.25-.6-.75-.6-1.03 0-.4.43-1.1.6-1.3.16-.2.65-.44.75-.85.1-.4-.07-1.65-.38-1.9-.3-.27-.4-1.05-.4-1.05s.1-.3.46-.13c.32.15.78.57 1.1.8v6.37z"/></g><g><path fill="#77b255" d="M24 20.27v6.3c-.04 0-.07 0-.1 0-.22 0-.5-.14-.8-.32 0 0-.04 0-.06.02-.9.17-1.3-1.2-2.04-1.15-.73.05-1.7.34-2.33-.52-.63-.85-.78-1.53 0-1.3.78.24 1.3 1.43 1.7 1.1.4-.34.3-.72-.63-1.1-.93-.4-1.92-.82-2.45-.97-.55-.14-.67-.53-.3-.82.36-.28-.23-.46-.83-1-.6-.56.14-.52.65-.7.5-.2.9.3 1.12.92.22.6 1.16 1.52 1.55 1.54.38.03.38-.2.3-.6 0-.07 0-.1.02-.14-.17-.54-.3-1.03-.36-1.3-.03-.14-.04-.35-.03-.6-.1 0-.18-.02-.25 0-.44.13-1.43.22-1.7-.04-.27-.27-.4-.5-.73-.73-.3-.2-1.6-1.22-1.62-2.08-.03-.86-.05-1.83.46-1.72.5.1 1.73.83 2.12 1.3.4.45.92.5 1.1.14.16-.38.04-.66-.13-1.36-.18-.7.1-.96.38-1.47.27-.5.5-.77.5-1.2 0-.4.38-.7.96.14.18.27.36.6.53.96.4.47.77.93.76 1.1-.02.28-.02.43-.02.62.04.08.07.16.1.22.12.3.24.75.36 1.16 0 0 0 0 .02.02.24.34.18.35.58.76.26.27.25.5.2.68.12.17.15.28-.02.23 0 0 0 0-.02 0 0 0 0-.02 0-.02-.02.15-.2 0-.5-.14-.3-.02-.57.05-.67.35-.13.4-.6 1-.64 1.34 0 .03.02.07.02.1 0 .05.03.08.07.1.03.02.06.03.1.04.04-.1.08-.28.1-.47 0-.47.38-.2.38-.5s.53-.5.66-.54c.04-.02.1.02.16.1.03-.02.06-.04.1-.04.3-.04.92.97 1.1 1.15.1.1.12.27.05.4 0 0 .03 0 .05.02m-9.14-7.24c-.44.07-.36.02-.63.6-.27.57-.43.74-1.04.65-.6-.08-.6-.13-.76.17-.07.13-.24.08-.44-.03V8.05c.1.1.17.2.23.26.5.5 1 1.04 1.46 1.66.46.62.3.92.53 1.48.23.56.54.62.94 1.14.4.54.12.37-.3.45m-2.6 5.56c-.1-.03-.2-.02-.27-.02v3.34c.25-.06.5-.32.7-.73.24-.52.6-.08.74-.4.14-.3.88-.75.5-.73-.36 0-.73 0-.83-.45-.1-.45.18-.8-.1-.83-.26-.05-.36-.16-.73-.2"/></g><g><path fill="#5c913b" d="M31.4 12.23c-.13.34-.5.7-.67.9-.16.2-.4.32-.62.3-.2-.04-.33.08-.43.35-.1.27-.3.23-.45.25-.16 0-.8-.12-1.16-.24-.37-.12-.54-.26-.78-.46-.38-.32-.17-.1 0-.43.17-.3-.2-1.05-.22-1.53-.02-.48.68-.03.94-.04.27 0 .2.2.4.32s.35.13.58-.18c.23-.3.54-.6.54-.88s.83-.96 1.15-.86c.3.1.5.4.8.64.28.22.17.82.25 1.16.08.34-.18.35-.3.7M29 14.8c.27-.4.16-.03.5.02.35.06-.28.56-.5.8-.2.24-.4.3-.6-.05-.2-.4.34-.36.6-.76m3.1-1.42c-.14.2-.43.38-.75.46-.3.07-.3.48-.6.53-.32.06-.55.4-.7.5-.3.28-.1-.2 0-.7.12-.47.5-.23.88-.57.37-.34.4-.02.74-.23.34-.2.48-.52.8-.58.33-.07-.25.36-.38.58m-2 5.37c.17-.08.96-.17.54.33-.42.5-.1.3-.05.74.04.44-.27.52-.27.52 0-.33-.22-.63 0-1.02.2-.4-.43-.5-.24-.57M28 16.68c.4-.17.1.48.24.84.13.36.32.37.56.36.23 0 .42.2.58.4.15.2.44.45.42.73-.03.28-.1.5-.2.85-.12.36.3.37.5.7.17.35 0 0 .4.02.43 0 .25.05.33.2.08.17.13.34.05.7-.08.35-.37.1-.66.17-.3.08.1.43.13.78.03.36.4.17.66.13.27-.04.35-.5.43-.6.08-.1.9.36 1.1.64.22.27-.17.28-.07.4.1.1-.63.33-.92.46-.3.14-1.03.37-1.32.65-.3.3-1.4.44-1.7.35-.28-.1-.46.14-.6.4-.13.27-.68.3-.84.47-.16.17-.3-.13-.53-.16-.2-.03-.3-.04-.55.2-.26.26.08.38-.3.63-.34.23-.8.18-1.7.58v-6.3c.16-.02.3-.05.36-.06.14-.04.45-.57.45-.78 0-.22.17-.83.3-1.2.13-.37.42-.5.7-.82.25-.3.38-.14.38-.14s-.1.55-.1.97c0 .42.3.7.3.7s.5-.56.54-.68c.03-.13.42-.66.45-.88.03-.23.24-.56.63-.72m-.37-.9c-.05-.44.2-.2.6-.7.43-.5-.1-.4-.28-.32-.18.08-.37.13-.58.52-.2.4 0 .7 0 1.02 0 0 .32-.08.26-.52"/></g></g></g></g></svg>