<svg xmlns="http://www.w3.org/2000/svg" viewBox="0 0 45 45" enable-background="new 0 0 45 45"><defs><clipPath id="a"><path d="M0 36h36V0H0v36z"/></clipPath></defs><g><g><g clip-path="url(#a)" transform="matrix(1.25 0 0 -1.25 0 45)"><g><path fill="#aa8ed6" d="M36 18c0-9.94-8.06-18-18-18S0 8.06 0 18s8.06 18 18 18 18-8.06 18-18"/></g><g><path fill="#aa8ed6" d="M10 32c-2.58 0-5.63 2.47-6.6 3.4-.56.6-1.42.76-2.17.45C.5 35.55 0 34.8 0 34c0-3.46 1.67-10 8-10 .76 0 1.45.43 1.8 1.1l2 4c.3.63.27 1.36-.1 1.95-.36.6-1 .95-1.7.95"/></g><g><path fill="#aa8ed6" d="M34.77 35.85c-.75.3-1.6.14-2.18-.44-.9-.87-4-3.4-6.6-3.4-.7 0-1.34-.36-1.7-.95-.37-.6-.4-1.32-.1-1.94l2-4c.35-.67 1.04-1.1 1.8-1.1 6.33 0 8 6.54 8 10 0 .8-.5 1.54-1.23 1.85"/></g><g><path fill="#553986" d="M27.34 10.37c-.18.16-.45.17-.64.03-.04-.03-3.92-2.9-8.7-2.9-4.77 0-8.66 2.87-8.7 2.9-.2.14-.46.13-.64-.03-.17-.16-.2-.42-.1-.63C8.7 9.54 11.8 4.5 18 4.5c6.2 0 9.3 5.03 9.43 5.24.12.2.08.47-.1.63"/></g><g><path fill="#553986" d="M15.7 17.7C12.46 20.97 7.23 21 7 21c-.55 0-1-.45-1-1s.45-1 1-1c.03 0 1.92-.02 3.98-.74-.6-.64-.98-1.63-.98-2.76 0-1.93 1.12-3.5 2.5-3.5s2.5 1.57 2.5 3.5c0 .17-.02.34-.04.5.02 0 .03 0 .04 0 .26 0 .5.1.7.3.4.38.4 1.02 0 1.4"/></g><g><path fill="#553986" d="M29 21c-.22 0-5.45-.04-8.7-3.3-.4-.38-.4-1.02 0-1.4.2-.2.44-.3.7-.3 0 0 .02 0 .04 0-.02-.16-.04-.33-.04-.5 0-1.93 1.12-3.5 2.5-3.5s2.5 1.57 2.5 3.5c0 1.13-.4 2.12-.98 2.76 2.06.72 3.95.74 3.98.74.55 0 1 .45 1 1s-.45 1-1 1"/></g></g></g></g></svg>