<svg xmlns="http://www.w3.org/2000/svg" viewBox="0 0 45 45" enable-background="new 0 0 45 45"><defs><clipPath id="a"><path d="M0 36h36V0H0v36z"/></clipPath></defs><g><g><g clip-path="url(#a)" transform="matrix(1.25 0 0 -1.25 0 45)"><g><path fill="#ffcc4d" d="M36 18c0-9.94-8.06-18-18-18S0 8.06 0 18s8.06 18 18 18 18-8.06 18-18"/></g><g><path fill="#664500" d="M14 23.5c0-2.5-1.12-5.5-2.5-5.5S9 21 9 23.5c0 2.48 1.12 5.5 2.5 5.5s2.5-3.02 2.5-5.5"/></g><g><path fill="#664500" d="M27 23.5c0-2.5-1.12-5.5-2.5-5.5S22 21 22 23.5c0 2.48 1.12 5.5 2.5 5.5s2.5-3.02 2.5-5.5"/></g><g><path fill="#664500" d="M18 14c-3.62 0-6.03.42-9 1-.68.13-2 0-2-2 0-4 4.6-9 11-9s11 5 11 9c0 2-1.32 2.13-2 2-2.97-.58-5.38-1-9-1"/></g><g><path fill="#fff" d="M9 13s3-1 9-1 9 1 9 1-2-4-9-4-9 4-9 4"/></g></g></g></g></svg>