<svg xmlns="http://www.w3.org/2000/svg" viewBox="0 0 45 45" enable-background="new 0 0 45 45"><defs><clipPath id="a"><path d="M0 36h36V0H0v36z"/></clipPath></defs><g><g><g clip-path="url(#a)" transform="matrix(1.25 0 0 -1.25 0 45)"><g><path fill="#ffcc4d" d="M36 18c0-9.94-8.06-18-18-18S0 8.06 0 18s8.06 18 18 18 18-8.06 18-18"/></g><g><path fill="#664500" d="M18 14c-3.62 0-6.03.42-9 1-.68.13-2 0-2-2 0-4 4.6-9 11-9s11 5 11 9c0 2-1.32 2.13-2 2-2.97-.58-5.38-1-9-1"/></g><g><path fill="#fff" d="M9 13s3-1 9-1 9 1 9 1-2-4-9-4-9 4-9 4"/></g><g><path fill="#664500" d="M30.6 17.8c-.1.08-1.93 1.43-4.65 2.34.03.12.05.24.05.36 0 .37-.14.7-.36.96 1.8.52 3.33.54 3.36.54.55 0 1 .45 1 1s-.45 1-1 1c-.22 0-5.45-.04-8.7-3.3-.3-.28-.38-.7-.22-1.08.15-.38.52-.62.92-.62 4.6 0 8.36-2.77 8.4-2.8.18-.13.4-.2.6-.2.3 0 .6.14.8.4.33.44.24 1.07-.2 1.4"/></g><g><path fill="#664500" d="M15.7 20.7C12.46 23.97 7.23 24 7 24c-.55 0-1-.45-1-1s.45-1 1-1c.03 0 1.56-.02 3.36-.54-.22-.26-.36-.6-.36-.96 0-.12.02-.24.05-.36-2.72-.9-4.54-2.26-4.65-2.34-.44-.33-.53-.96-.2-1.4.2-.26.5-.4.8-.4.2 0 .42.06.6.2.04.03 3.8 2.8 8.4 2.8.4 0 .77.24.92.62.16.37.07.8-.2 1.1"/></g></g></g></g></svg>