<svg xmlns="http://www.w3.org/2000/svg" viewBox="0 0 45 45" enable-background="new 0 0 45 45"><defs><clipPath id="a"><path d="M0 36h36V0H0v36z"/></clipPath></defs><g><g><g clip-path="url(#a)" transform="matrix(1.25 0 0 -1.25 0 45)"><g><path fill="#ffcc4d" d="M36 18c0-9.94-8.06-18-18-18S0 8.06 0 18s8.06 18 18 18 18-8.06 18-18"/></g><g><path fill="#664500" d="M24.33 12.38c-.16.13-.37.16-.55.07l-4-2C17.9 9.5 13.05 9.5 13 9.5c-.28 0-.5-.22-.5-.5 0-.18.1-.35.25-.43.07-.05.16-.07.24-.07h7c2.66 0 4.1 2.2 4.47 3.34.07.2 0 .4-.14.54"/></g><g><path fill="#664500" d="M31 20c-.3 0-.6.14-.8.4-2.64 3.52-6.06 3.6-6.2 3.6-.56 0-1 .46-1 1 0 .56.45 1 1 1 .18 0 4.54-.05 7.8-4.4.33-.44.24-1.07-.2-1.4-.18-.13-.4-.2-.6-.2"/></g><g><path fill="#664500" d="M5 20c-.2 0-.42.07-.6.2-.44.33-.53.96-.2 1.4C7.46 25.95 11.82 26 12 26c.55 0 1-.45 1-1s-.44-1-1-1c-.15 0-3.56-.1-6.2-3.6-.2-.26-.5-.4-.8-.4"/></g><g><path fill="#664500" d="M15.9 18.6c.02.06.06.1.07.16.13.53-.2 1.08-.73 1.2-.18.06-4.46 1.1-7.8-1.13-.45-.3-.58-.93-.27-1.38.2-.3.5-.45.83-.45.2 0 .38.05.55.17 1.1.73 2.37 1 3.47 1.06 0-.08-.02-.15-.02-.23 0-1.1.9-2 2-2s2 .9 2 2c0 .2-.04.4-.1.6"/></g><g><path fill="#664500" d="M27.9 18.6c.02.06.06.1.07.16.13.53-.2 1.08-.73 1.2-.18.06-4.46 1.1-7.8-1.13-.45-.3-.58-.92-.27-1.38.2-.3.5-.45.83-.45.2 0 .38.06.55.17 1.1.73 2.37 1 3.47 1.06 0-.08-.02-.15-.02-.23 0-1.1.9-2 2-2s2 .9 2 2c0 .2-.04.4-.1.6"/></g></g></g></g></svg>