<svg xmlns="http://www.w3.org/2000/svg" viewBox="0 0 45 45" enable-background="new 0 0 45 45"><defs><clipPath id="a"><path d="M0 36h36V0H0v36z"/></clipPath></defs><g><g><g clip-path="url(#a)" transform="matrix(1.25 0 0 -1.25 0 45)"><g><path fill="#ffcc4d" d="M36 18c0-9.94-8.06-18-18-18S0 8.06 0 18s8.06 18 18 18 18-8.06 18-18"/></g><g><path fill="#664500" d="M7 19c-.15 0-.3.03-.45.1-.5.25-.7.85-.44 1.35.06.1 1.32 2.55 4.9 2.55s4.84-2.45 4.9-2.55c.24-.5.04-1.1-.45-1.35-.5-.24-1.1-.04-1.34.44-.03.08-.82 1.46-3.1 1.46-2.32 0-3.1-1.43-3.1-1.45C7.7 19.2 7.36 19 7 19"/></g><g><path fill="#664500" d="M29 19c.15 0 .3.03.45.1.5.25.7.85.44 1.35-.06.1-1.32 2.55-4.9 2.55s-4.84-2.45-4.9-2.55c-.24-.5-.04-1.1.45-1.35.5-.24 1.1-.04 1.34.44.03.08.82 1.46 3.1 1.46 2.32 0 3.1-1.43 3.1-1.45.18-.35.53-.55.9-.55"/></g><g><path fill="#e75a70" d="M33.17 8.7l-3.67 3.78c-.8-1.88-2.86-5.34-7.2-6.8L26 2c1.73-1.73 5-2 7 0s1.9 4.96.17 6.7"/></g><g><path fill="#664500" d="M29.5 12.48c.33.75.46 1.26.47 1.28.13.53-.2 1.07-.72 1.2-.54.14-1.08-.18-1.22-.7C27.96 13.95 26.08 7 18 7s-9.96 6.95-10.03 7.25c-.14.53-.68.85-1.22.72-.53-.14-.85-.68-.72-1.2C6.05 13.66 8.33 5 18 5c1.65 0 3.07.27 4.3.7 4.35 1.44 6.4 4.9 7.2 6.78"/></g></g></g></g></svg>