<svg xmlns="http://www.w3.org/2000/svg" viewBox="0 0 45 45" enable-background="new 0 0 45 45"><defs><clipPath id="a"><path d="M0 36h36V0H0v36z"/></clipPath></defs><g><g><g clip-path="url(#a)" transform="matrix(1.25 0 0 -1.25 0 45)"><g><path fill="#ffcc4d" d="M36 18c0-9.94-8.06-18-18-18S0 8.06 0 18s8.06 18 18 18 18-8.06 18-18"/></g><g><path fill="#664500" d="M28.46 18.2c-.06.14-1.5 3.3-4.46 3.3s-4.4-3.16-4.46-3.3c-.1-.2-.03-.45.15-.6.16-.13.4-.13.6 0 0 0 1.26.9 3.7.9 2.43 0 3.67-.88 3.7-.9.1-.07.2-.1.3-.1.1 0 .22.04.3.1.2.15.25.4.16.6"/></g><g><path fill="#664500" d="M16.46 18.2c-.06.14-1.5 3.3-4.46 3.3s-4.4-3.16-4.46-3.3c-.1-.2-.03-.45.15-.6.16-.13.4-.13.6 0 0 0 1.26.9 3.7.9 2.43 0 3.67-.88 3.7-.9.1-.07.2-.1.3-.1.1 0 .22.04.3.1.2.15.25.4.16.6"/></g><g><path fill="#664500" d="M18 14c-3.62 0-6.03.42-9 1-.68.13-2 0-2-2 0-4 4.6-9 11-9s11 5 11 9c0 2-1.32 2.13-2 2-2.97-.58-5.38-1-9-1"/></g><g><path fill="#fff" d="M9 13s3-1 9-1 9 1 9 1-2-4-9-4-9 4-9 4"/></g><g><path fill="#5dadec" d="M35 25c0-2.76-2.24-5-5-5s-5 2.24-5 5 4 10 5 10 5-7.24 5-10"/></g></g></g></g></svg>