<svg xmlns="http://www.w3.org/2000/svg" viewBox="0 0 45 45" enable-background="new 0 0 45 45"><defs><clipPath id="a"><path d="M0 36h36V0H0v36z"/></clipPath></defs><g><g><g clip-path="url(#a)" transform="matrix(1.25 0 0 -1.25 0 45)"><g><path fill="#ffcc4d" d="M36 18c0-9.94-8.06-18-18-18S0 8.06 0 18s8.06 18 18 18 18-8.06 18-18"/></g><g><path fill="#664500" d="M27.34 13.37c-.18.16-.45.17-.64.03-.04-.03-3.92-2.9-8.7-2.9-4.77 0-8.66 2.87-8.7 2.9-.2.14-.46.13-.64-.03-.17-.16-.2-.42-.1-.63.14-.2 3.23-5.24 9.44-5.24 6.2 0 9.3 5.03 9.43 5.24.12.2.08.47-.1.63"/></g><g><path fill="#5dadec" d="M18 28.3c-7.02 0-13.2.9-13.2 2.94S10.98 34.7 18 34.7s13.2-1.42 13.2-3.46c0-2.05-6.18-2.95-13.2-2.95m0 7.45C8.64 35.75.56 34.2.56 30.7S8.64 25.4 18 25.4c9.36 0 17.44 1.8 17.44 5.3S27.36 35.76 18 35.76"/></g><g><path fill="#664500" d="M26 17c-.42 0-.8.27-.95.68-.2.6-1.02 2.32-2.05 2.32-1.06 0-1.9-1.83-2.05-2.32-.18-.52-.74-.8-1.27-.63-.52.18-.8.74-.63 1.27.13.37 1.3 3.68 3.95 3.68 2.65 0 3.82-3.3 3.95-3.68.17-.53-.1-1.1-.63-1.27-.1-.03-.22-.05-.32-.05"/></g><g><path fill="#664500" d="M16 17c-.42 0-.8.27-.95.68-.2.6-1.02 2.32-2.05 2.32-1.06 0-1.9-1.83-2.05-2.32-.18-.52-.74-.8-1.27-.63-.52.18-.8.74-.63 1.27.13.37 1.3 3.68 3.95 3.68 2.65 0 3.82-3.3 3.95-3.68.17-.53-.1-1.1-.63-1.27-.1-.03-.2-.05-.32-.05"/></g><g><path fill="#ffcc4d" d="M28.47 32.63c-.66.44-1.34.9-2 1.25C23.95 35.23 21.07 36 18 36c-2.93 0-5.7-.7-8.14-1.94-1.1-.55-1.88-1-2.17-1.44h20.77z"/></g></g></g></g></svg>