<svg xmlns="http://www.w3.org/2000/svg" viewBox="0 0 45 45" enable-background="new 0 0 45 45"><defs><clipPath id="a"><path d="M0 36h36V0H0v36z"/></clipPath></defs><g><g><g clip-path="url(#a)" transform="matrix(1.25 0 0 -1.25 0 45)"><g><path fill="#ffcc4d" d="M36 18c0-9.94-8.06-18-18-18S0 8.06 0 18s8.06 18 18 18 18-8.06 18-18"/></g><g><path fill="#664500" d="M15.46 20.18c-.06.14-1.5 3.3-4.46 3.3s-4.4-3.16-4.46-3.3c-.1-.2-.03-.44.15-.6.16-.13.4-.13.6 0 0 0 1.26.9 3.7.9 2.43 0 3.67-.88 3.7-.9.1-.06.2-.1.3-.1.1 0 .22.04.3.1.2.15.25.4.16.6"/></g><g><path fill="#f5f8fa" d="M31 22.5c0-3.6-2.9-6.5-6.5-6.5S18 18.9 18 22.5s2.9 6.5 6.5 6.5 6.5-2.9 6.5-6.5"/></g><g><path fill="#292f33" d="M27 22.5c0-1.38-1.12-2.5-2.5-2.5S22 21.12 22 22.5s1.12 2.5 2.5 2.5 2.5-1.12 2.5-2.5"/></g><g><path fill="#664500" d="M7 14.74c0-3.97 4.6-9 11-9s11 5 11 9c0 0-10.33-2.76-22 0"/></g><g><path fill="#e75a70" d="M12 13V6.04c0-3 2-6 6-6s6 3 6 6v6.92c-6.3-1.3-12 .04-12 .04"/></g></g></g></g></svg>