<svg xmlns="http://www.w3.org/2000/svg" viewBox="0 0 45 45" enable-background="new 0 0 45 45"><defs><clipPath id="a"><path d="M0 36h36V0H0v36z"/></clipPath></defs><g><g><g clip-path="url(#a)" transform="matrix(1.25 0 0 -1.25 0 45)"><g><path fill="#ffcc4d" d="M36 18c0-9.94-8.06-18-18-18S0 8.06 0 18s8.06 18 18 18 18-8.06 18-18"/></g><g><path fill="#664500" d="M6 23c-.55 0-1 .45-1 1s.45 1 1 1c.15 0 3.56.1 6.2 3.6.33.44.96.53 1.4.2.44-.33.53-.96.2-1.4C10.54 23.05 6.18 23 6 23"/></g><g><path fill="#664500" d="M30 23c-.18 0-4.54.05-7.8 4.4-.33.44-.24 1.07.2 1.4.44.33 1.07.24 1.4-.2 2.64-3.52 6.06-3.6 6.2-3.6.56 0 1-.46 1-1 0-.56-.45-1-1-1"/></g><g><path fill="#664500" d="M30.6 15.8c-.1.1-1.93 1.43-4.65 2.34.03.12.05.24.05.36 0 .37-.14.7-.36.96 1.8.52 3.33.54 3.36.54.55 0 1 .45 1 1s-.45 1-1 1c-.22 0-5.45-.04-8.7-3.3-.3-.28-.38-.7-.22-1.08.15-.38.52-.62.92-.62 4.6 0 8.36-2.77 8.4-2.8.18-.13.4-.2.6-.2.3 0 .6.14.8.4.33.44.24 1.07-.2 1.4"/></g><g><path fill="#664500" d="M15.7 18.7C12.46 21.97 7.23 22 7 22c-.55 0-1-.45-1-1s.45-1 1-1c.03 0 1.56-.02 3.36-.54-.22-.26-.36-.6-.36-.96 0-.12.02-.24.05-.36-2.72-.9-4.54-2.25-4.65-2.34-.44-.33-.53-.96-.2-1.4.2-.26.5-.4.8-.4.2 0 .42.06.6.2.04.03 3.8 2.8 8.4 2.8.4 0 .77.24.92.62.16.37.07.8-.2 1.1"/></g><g><path fill="#664500" d="M18 6c-.3 0-.6.14-.78.38l-3.2 4L11.8 7.4c-.17-.23-.44-.38-.73-.4-.3-.02-.57.1-.78.3l-1 1c-.4.38-.4 1.02 0 1.4.38.4 1.02.4 1.4 0l.2-.18 2.3 3.08c.2.25.48.4.78.4.3 0 .6-.13.8-.38L18 8.6l3.22 4.02c.2.25.48.38.8.38.3 0 .6-.15.78-.4l2.3-3.08.2.2c.38.38 1.02.38 1.4 0 .4-.4.4-1.04 0-1.43l-1-1c-.2-.2-.47-.32-.77-.3-.3.02-.56.17-.73.4l-2.22 2.97-3.2-4C18.58 6.14 18.3 6 18 6"/></g></g></g></g></svg>