<svg xmlns="http://www.w3.org/2000/svg" viewBox="0 0 45 45" enable-background="new 0 0 45 45"><defs><clipPath id="a"><path d="M0 36h36V0H0v36z"/></clipPath></defs><g><g><g clip-path="url(#a)" transform="matrix(1.25 0 0 -1.25 0 45)"><g><path fill="#ffcc4d" d="M36 18c0-9.94-8.06-18-18-18S0 8.06 0 18s8.06 18 18 18 18-8.06 18-18"/></g><g><path fill="#664500" d="M23.5 7.12c-.03.05-1.16 4.38-5.5 4.38s-5.47-4.33-5.48-4.38c-.06-.2.04-.43.23-.54.18-.1.43-.1.6.06 0 0 1 .86 4.65.86 3.6 0 4.62-.83 4.66-.86.1-.1.22-.14.34-.14.08 0 .17.02.25.06.2.12.3.34.24.56"/></g><g><path fill="#664500" d="M29 24c-5.55 0-7.8 4.37-7.9 4.55-.24.5-.04 1.1.45 1.35.5.24 1.1.04 1.34-.45.07-.14 1.8-3.45 6.1-3.45.55 0 1-.45 1-1s-.45-1-1-1"/></g><g><path fill="#664500" d="M7 24c-.55 0-1 .45-1 1s.45 1 1 1c5.08 0 6 3.12 6.03 3.25.15.53.7.85 1.22.7.53-.13.85-.66.72-1.2C14.92 28.56 13.7 24 7 24"/></g><g><path fill="#664500" d="M14.5 19.5c0-1.93-1.12-3.5-2.5-3.5s-2.5 1.57-2.5 3.5S10.62 23 12 23s2.5-1.57 2.5-3.5"/></g><g><path fill="#664500" d="M26.5 19.5c0-1.93-1.12-3.5-2.5-3.5s-2.5 1.57-2.5 3.5S22.62 23 24 23s2.5-1.57 2.5-3.5"/></g></g></g></g></svg>