<svg xmlns="http://www.w3.org/2000/svg" viewBox="0 0 45 45" enable-background="new 0 0 45 45"><defs><clipPath id="a"><path d="M0 36h36V0H0v36z"/></clipPath></defs><g><g><g clip-path="url(#a)" transform="matrix(1.25 0 0 -1.25 0 45)"><g><path fill="#ffcc4d" d="M36 18c0-9.94-8.06-18-18-18S0 8.06 0 18s8.06 18 18 18 18-8.06 18-18"/></g><g><path fill="#664500" d="M14 19.5c0-1.93-1.12-3.5-2.5-3.5S9 17.57 9 19.5s1.12 3.5 2.5 3.5 2.5-1.57 2.5-3.5"/></g><g><path fill="#664500" d="M27 19.5c0-1.93-1.12-3.5-2.5-3.5S22 17.57 22 19.5s1.12 3.5 2.5 3.5 2.5-1.57 2.5-3.5"/></g><g><path fill="#664500" d="M12 8c2 5 13 5 13 3 0-1-8 1-13-3"/></g></g></g></g></svg>