<svg xmlns="http://www.w3.org/2000/svg" viewBox="0 0 45 45" enable-background="new 0 0 45 45"><defs><clipPath id="a"><path d="M0 36h36V0H0v36z"/></clipPath></defs><g><g><g clip-path="url(#a)" transform="matrix(1.25 0 0 -1.25 0 45)"><g><path fill="#ffcc4d" d="M36 18c0-9.94-8.06-18-18-18S0 8.06 0 18s8.06 18 18 18 18-8.06 18-18"/></g><g><path fill="#664500" d="M23.5 7.12c-.03.05-1.16 4.38-5.5 4.38s-5.47-4.33-5.48-4.38c-.06-.2.04-.43.23-.54.18-.1.43-.1.6.06 0 0 1 .86 4.65.86 3.6 0 4.62-.83 4.66-.86.1-.1.22-.14.34-.14.08 0 .17.02.25.06.2.12.3.34.24.56"/></g><g><path fill="#664500" d="M25.78 20.36c-.34.1-.7.14-1.04.14-2.35 0-4.06-2.06-4.13-2.15-.13-.17-.14-.42 0-.6.13-.2.37-.26.58-.18 0 0 .57.2 1.57.2.7 0 1.46-.1 2.24-.3 2.33-.64 3.3-1.82 3.32-1.85.1-.12.25-.2.4-.2.06 0 .13.02.2.05.2.1.33.3.3.53-.03.15-.6 3.58-3.44 4.36"/></g><g><path fill="#664500" d="M11.23 20.5c-.32 0-.64-.05-.95-.13-2.87-.7-3.5-4.12-3.54-4.26-.04-.22.08-.44.28-.53.07-.04.14-.05.2-.05.16 0 .3.06.4.18 0 0 1 1.18 3.38 1.76.7.17 1.4.26 2.07.26 1.1 0 1.73-.25 1.73-.25.07-.03.14-.04.2-.04.28 0 .52.22.52.5 0 .16-.08.3-.2.4-.37.44-1.96 2.16-4.1 2.16"/></g></g></g></g></svg>