<svg xmlns="http://www.w3.org/2000/svg" viewBox="0 0 45 45" enable-background="new 0 0 45 45"><defs><clipPath id="a"><path d="M0 36h36V0H0v36z"/></clipPath></defs><g><g><g clip-path="url(#a)" transform="matrix(1.25 0 0 -1.25 0 45)"><g><path fill="#ffcc4d" d="M36 18c0-9.94-8.06-18-18-18S0 8.06 0 18s8.06 18 18 18 18-8.06 18-18"/></g><g><path fill="#664500" d="M20.87 8c1.34.4 2.63 1.16 2.63 2.5 0 2.62-4.9 2.97-5.47 3-.28.03-.5-.2-.53-.47-.02-.27.2-.5.47-.53.03 0 3.53-.3 3.53-2s-3.5-2-3.53-2c-.02 0-.03 0-.04 0-.05-.02-.1-.03-.15-.05-.06-.04-.1-.07-.14-.1-.02-.02-.02-.04-.04-.06-.02-.04-.04-.07-.06-.1 0-.04 0-.07-.02-.1 0-.02-.02-.04-.02-.07 0 0 0-.02 0-.03 0 0 0-.02 0-.03 0-.03 0-.05.02-.07 0-.03 0-.06.02-.1.02-.02.03-.05.05-.07 0-.03.02-.05.04-.08.03-.02.05-.04.08-.06.03-.02.05-.04.08-.05.03-.02.06-.02.1-.03.02 0 .04-.02.07-.02.03 0 3.53-.3 3.53-2s-3.5-2-3.53-2c-.28-.02-.5-.26-.47-.53.02-.27.24-.47.5-.47 0 0 .02 0 .03 0 .56.03 5.47.38 5.47 3 0 1.34-1.3 2.1-2.63 2.5"/></g><g><path fill="#664500" d="M16 17c-.42 0-.8.27-.95.68-.2.6-1.02 2.32-2.05 2.32-1.06 0-1.9-1.83-2.05-2.32-.18-.52-.74-.8-1.27-.63-.52.18-.8.74-.63 1.27.13.37 1.3 3.68 3.95 3.68 2.65 0 3.82-3.3 3.95-3.68.17-.53-.1-1.1-.63-1.27-.1-.03-.2-.05-.32-.05"/></g><g><path fill="#664500" d="M26 17c-.42 0-.8.27-.95.68-.2.6-1.02 2.32-2.05 2.32-1.06 0-1.9-1.83-2.05-2.32-.18-.52-.74-.8-1.27-.63-.52.18-.8.74-.63 1.27.13.37 1.3 3.68 3.95 3.68 2.65 0 3.82-3.3 3.95-3.68.17-.53-.1-1.1-.63-1.27-.1-.03-.22-.05-.32-.05"/></g></g></g></g></svg>