<svg xmlns="http://www.w3.org/2000/svg" viewBox="0 0 45 45" enable-background="new 0 0 45 45"><defs><clipPath id="a"><path d="M0 36h36V0H0v36z"/></clipPath></defs><g><g><g clip-path="url(#a)" transform="matrix(1.25 0 0 -1.25 0 45)"><g><path fill="#ffcc4d" d="M36 18c0-9.94-8.06-18-18-18S0 8.06 0 18s8.06 18 18 18 18-8.06 18-18"/></g><g><path fill="#664500" d="M14 20.5c0-1.93-1.12-3.5-2.5-3.5S9 18.57 9 20.5s1.12 3.5 2.5 3.5 2.5-1.57 2.5-3.5"/></g><g><path fill="#664500" d="M28.46 18.2c-.06.14-1.5 3.3-4.46 3.3s-4.4-3.16-4.46-3.3c-.1-.2-.03-.45.15-.6.16-.13.4-.13.6 0 0 0 1.26.9 3.7.9 2.43 0 3.67-.88 3.7-.9.1-.07.2-.1.3-.1.1 0 .22.04.3.1.2.15.25.4.16.6"/></g><g><path fill="#664500" d="M6 25c-.2 0-.42.07-.6.2-.44.33-.53.96-.2 1.4C8.46 30.95 12.82 31 13 31c.55 0 1-.45 1-1s-.44-1-1-1c-.15 0-3.56-.1-6.2-3.6-.2-.26-.5-.4-.8-.4"/></g><g><path fill="#664500" d="M29 22c-.3 0-.6.14-.8.4-2.6 3.46-6.96 2.63-7 2.62-.55-.1-1.07.24-1.18.78-.1.54.24 1.07.78 1.18.23.05 5.66 1.07 9-3.38.33-.44.24-1.07-.2-1.4-.18-.13-.4-.2-.6-.2"/></g><g><path fill="#664500" d="M20.87 8c1.34.4 2.63 1.16 2.63 2.5 0 2.62-4.9 2.97-5.47 3-.28.03-.5-.2-.53-.47-.02-.27.2-.5.47-.53.03 0 3.53-.3 3.53-2s-3.5-2-3.53-2c-.02 0-.03 0-.04 0-.05-.02-.1-.03-.15-.05 0 0 0 0-.02 0-.04-.04-.1-.07-.12-.1-.02-.02-.03-.04-.04-.06-.02-.04-.04-.07-.06-.1 0-.04 0-.07-.02-.1 0-.02-.02-.04-.02-.07 0 0 0-.02 0-.03 0 0 0-.02 0-.03 0-.03 0-.05.02-.07 0-.03 0-.06.02-.1.02-.02.03-.05.05-.07 0-.03.02-.05.04-.07.03-.03.05-.05.08-.06.03-.02.05-.04.08-.05.03-.02.06-.02.1-.03.02 0 .04-.02.07-.02.03 0 3.53-.3 3.53-2s-3.5-2-3.53-2c-.28-.02-.5-.26-.47-.53.02-.27.24-.47.5-.47 0 0 .02 0 .03 0 .56.03 5.47.38 5.47 3 0 1.34-1.3 2.1-2.63 2.5"/></g><g><path fill="#e75a70" d="M35.4 8.78c.74 1.5.1 3.35-1.4 4.08-.92.45-1.96.4-2.8-.06-.15.94-.74 1.8-1.66 2.24-1.52.74-3.35.1-4.1-1.4-.1-.22-.17-.44-.22-.66-.78-2.56.64-6.34 2.2-7.95C29.6 4.8 33.48 6 35 8.2c.15.17.28.36.38.58"/></g></g></g></g></svg>