<svg xmlns="http://www.w3.org/2000/svg" viewBox="0 0 45 45" enable-background="new 0 0 45 45"><defs><clipPath id="a"><path d="M0 36h36V0H0v36z"/></clipPath></defs><g><g><g clip-path="url(#a)" transform="matrix(1.25 0 0 -1.25 0 45)"><g><path fill="#ffcc4d" d="M36 18c0-9.94-8.06-18-18-18S0 8.06 0 18s8.06 18 18 18 18-8.06 18-18"/></g><g><path fill="#664500" d="M27 16H9c-2.2 0-4-1.8-4-4s1.8-4 4-4h18c2.2 0 4 1.8 4 4s-1.8 4-4 4"/></g><path fill="#f5f8fa" d="M24 14h-5v-4h5v4z"/><g><path fill="#f5f8fa" d="M27 14h-1v-4h1c1.1 0 2 .9 2 2s-.9 2-2 2"/></g><g><path fill="#f5f8fa" d="M9 14c-1.1 0-2-.9-2-2s.9-2 2-2h1v4H9z"/></g><path fill="#f5f8fa" d="M12 10h5v4h-5v-4z"/><g><path fill="#664500" d="M14.5 22.5c0-1.93-1.12-3.5-2.5-3.5s-2.5 1.57-2.5 3.5S10.62 26 12 26s2.5-1.57 2.5-3.5"/></g><g><path fill="#664500" d="M26.5 22.5c0-1.93-1.12-3.5-2.5-3.5s-2.5 1.57-2.5 3.5S22.62 26 24 26s2.5-1.57 2.5-3.5"/></g></g></g></g></svg>