<svg xmlns="http://www.w3.org/2000/svg" viewBox="0 0 45 45" enable-background="new 0 0 45 45"><defs><clipPath id="a"><path d="M0 36h36V0H0v36z"/></clipPath></defs><g><g><g clip-path="url(#a)" transform="matrix(1.25 0 0 -1.25 0 45)"><g><path fill="#ffcc4d" d="M36 18c0-9.94-8.06-18-18-18S0 8.06 0 18s8.06 18 18 18 18-8.06 18-18"/></g><g><path fill="#664500" d="M14 19c0-1.93-1.12-3.5-2.5-3.5S9 17.07 9 19s1.12 3.5 2.5 3.5S14 20.93 14 19"/></g><g><path fill="#664500" d="M27 19c0-1.93-1.12-3.5-2.5-3.5S22 17.07 22 19s1.12 3.5 2.5 3.5S27 20.93 27 19"/></g><g><path fill="#664500" d="M6 22.5c-.2 0-.42.07-.6.2-.44.33-.53.96-.2 1.4 3.26 4.35 7.62 4.4 7.8 4.4.55 0 1-.45 1-1s-.44-1-1-1c-.15 0-3.56-.1-6.2-3.6-.2-.26-.5-.4-.8-.4"/></g><g><path fill="#664500" d="M30 22.5c-.3 0-.6.14-.8.4-2.64 3.52-6.06 3.6-6.2 3.6-.56 0-1 .46-1 1 0 .56.45 1 1 1 .18 0 4.54-.05 7.8-4.4.33-.44.24-1.07-.2-1.4-.18-.13-.4-.2-.6-.2"/></g><g><path fill="#664500" d="M23.5 7.62C23.46 7.67 22.33 12 18 12s-5.47-4.33-5.48-4.38c-.06-.2.04-.43.23-.54.18-.1.43-.1.6.06 0 0 1 .86 4.65.86 3.6 0 4.62-.83 4.66-.86.1-.1.22-.14.34-.14.08 0 .17.02.25.06.2.12.3.34.24.56"/></g><g><path fill="#5dadec" d="M16 5c0-2.76-2.24-5-5-5S6 2.24 6 5s4 10 5 10 5-7.24 5-10"/></g></g></g></g></svg>