<svg xmlns="http://www.w3.org/2000/svg" viewBox="0 0 45 45" enable-background="new 0 0 45 45"><defs><clipPath id="a"><path d="M0 36h36V0H0v36z"/></clipPath></defs><g><g><g clip-path="url(#a)" transform="matrix(1.25 0 0 -1.25 0 45)"><g><path fill="#ffcc4d" d="M36 18c0-9.94-8.06-18-18-18S0 8.06 0 18s8.06 18 18 18 18-8.06 18-18"/></g><g><path fill="#664500" d="M22 11c0-2.76-1.8-5-4-5s-4 2.24-4 5 1.8 5 4 5 4-2.24 4-5"/></g><g><path fill="#664500" d="M14.5 22.5c0-1.93-1.12-3.5-2.5-3.5s-2.5 1.57-2.5 3.5S10.62 26 12 26s2.5-1.57 2.5-3.5"/></g><g><path fill="#664500" d="M26.5 22.5c0-1.93-1.12-3.5-2.5-3.5s-2.5 1.57-2.5 3.5S22.62 26 24 26s2.5-1.57 2.5-3.5"/></g></g></g></g></svg>