<svg xmlns="http://www.w3.org/2000/svg" viewBox="0 0 45 45" enable-background="new 0 0 45 45"><defs><clipPath id="a"><path d="M0 36h36V0H0v36z"/></clipPath></defs><g><g><g clip-path="url(#a)" transform="matrix(1.25 0 0 -1.25 0 45)"><g><path fill="#ffcc4d" d="M36 18c0-9.94-8.06-18-18-18S0 8.06 0 18s8.06 18 18 18 18-8.06 18-18"/></g><g><path fill="#664500" d="M18 14.5c-9.33 0-10.48-8.35-10.5-8.44-.02-.17.05-.34.18-.45.1-.06.2-.1.32-.1.05 0 .1 0 .16.03.06 0 5.97 1.97 9.84 1.97 5.6 0 9.74-1.93 9.8-1.95.15-.08.35-.06.5.05.14.1.22.28.2.46 0 .1-1.17 8.44-10.5 8.44"/></g><g><path fill="#664500" d="M29 26c-5.55 0-7.8 4.37-7.9 4.55-.24.5-.04 1.1.45 1.35.5.24 1.1.04 1.34-.45.07-.14 1.8-3.45 6.1-3.45.55 0 1-.45 1-1s-.45-1-1-1"/></g><g><path fill="#664500" d="M7 26c-.55 0-1 .45-1 1s.45 1 1 1c5.08 0 6 3.12 6.03 3.25.15.53.7.85 1.22.7.53-.13.85-.66.72-1.2C14.92 30.56 13.7 26 7 26"/></g><g><path fill="#ccd6dd" d="M18 13c4 0 6-2 6-2H12s2 2 6 2"/></g><g><path fill="#664500" d="M6 17c-.3 0-.6.14-.8.4-.33.44-.24 1.07.2 1.4.14.1 2.95 2.18 6.86 2.93C9.78 22.97 7.03 23 7 23c-.55 0-1 .45-1 1s.45 1 1 1c.22 0 5.45-.04 8.7-3.3.3-.28.38-.7.22-1.08-.15-.38-.52-.62-.92-.62-4.6 0-8.36-2.77-8.4-2.8-.18-.14-.4-.2-.6-.2"/></g><g><path fill="#664500" d="M30 17c-.2 0-.42.07-.6.2-.04.03-3.8 2.8-8.4 2.8-.4 0-.77.24-.92.62-.16.37-.07.8.2 1.1C23.56 24.95 28.8 25 29 25c.55 0 1-.45 1-1s-.45-1-1-1c-.03 0-2.78-.03-5.26-1.27 3.9-.75 6.72-2.82 6.86-2.93.44-.33.53-.96.2-1.4-.2-.26-.5-.4-.8-.4"/></g></g></g></g></svg>