<svg xmlns="http://www.w3.org/2000/svg" viewBox="0 0 45 45" enable-background="new 0 0 45 45"><defs><clipPath id="a"><path d="M0 36h36V0H0v36z"/></clipPath></defs><g><g><g clip-path="url(#a)" transform="matrix(1.25 0 0 -1.25 0 45)"><g><path fill="#ffcc4d" d="M36 18c0-9.94-8.06-18-18-18S0 8.06 0 18s8.06 18 18 18 18-8.06 18-18"/></g><g><path fill="#664500" d="M20 23c-.05 0-.1 0-.16 0-.55.1-.92.62-.83 1.16.4 2.37 2.58 6.84 8 6.84.55 0 1-.45 1-1s-.45-1-1-1c-5.1 0-5.98-4.95-6-5.17-.1-.48-.52-.83-1-.83"/></g><g><path fill="#664500" d="M16 23c-.48 0-.9.34-1 .83-.02.2-.94 5.17-6 5.17-.55 0-1 .45-1 1s.45 1 1 1c5.42 0 7.6-4.47 8-6.83.08-.55-.3-1.07-.83-1.16-.06 0-.12 0-.17 0"/></g><g><path fill="#664500" d="M11.4 18.1c-2.33 0-3.86 1-3.95 1.07-.46.3-.6.92-.28 1.38.3.46.92.6 1.38.28.1-.06 2.6-1.63 6 .06.5.24 1.1.04 1.34-.45.24-.5.04-1.1-.45-1.34-1.5-.74-2.87-1-4.04-1"/></g><g><path fill="#664500" d="M24.6 18.1c-1.18 0-2.55.26-4.05 1-.5.25-.7.85-.44 1.35.25.5.85.7 1.35.44 3.4-1.7 5.9-.13 6-.06.46.3 1.08.17 1.38-.3.3-.45.18-1.07-.28-1.37-.1-.07-1.63-1.06-3.96-1.06"/></g><g><path fill="#664500" d="M26 9c-.3 0-.6.14-.8.4-.02.03-2.78 3.6-7.2 3.6s-7.17-3.57-7.2-3.6c-.33-.44-.96-.53-1.4-.2-.44.34-.53.96-.2 1.4.14.18 3.36 4.4 8.8 4.4 5.44 0 8.67-4.22 8.8-4.4.33-.44.24-1.07-.2-1.4-.18-.13-.4-.2-.6-.2"/></g><g><path fill="#f5f8fa" d="M15.4 15.92c-.46.2-1 .03-1.25-.4l-5-8c-.2-.3-.2-.7-.02-1C9.3 6.2 9.63 6 10 6h3c.46 0 .86.3.97.76l2 8c.12.47-.13.97-.58 1.16"/></g><g><path fill="#f5f8fa" d="M26.85 7.53l-5 8c-.26.42-.8.58-1.24.4-.44-.2-.7-.7-.57-1.17l2-8c.1-.45.5-.76.97-.76h3c.36 0 .7.2.87.52.18.3.17.7-.02 1"/></g><g><path fill="#e1e8ed" d="M31.98 5.82c0 .06.02.12.02.18 0 1.66-1.34 3-3 3-1.03 0-1.93-.52-2.47-1.3-.47.2-1 .3-1.53.3-2.2 0-4-1.8-4-4s1.8-4 4-4c1.37 0 2.57.7 3.3 1.73C28.76.7 29.8 0 31 0c1.66 0 3 1.34 3 3 0 1.3-.85 2.4-2.02 2.82"/></g><g><path fill="#e1e8ed" d="M11 8c-.54 0-1.06-.1-1.53-.3C8.93 8.47 8.03 9 7 9 5.34 9 4 7.66 4 6c0-.06 0-.12.02-.18C2.85 5.42 2 4.32 2 3c0-1.66 1.34-3 3-3 1.2 0 2.23.7 2.7 1.73C8.44.7 9.64 0 11 0c2.2 0 4 1.8 4 4s-1.8 4-4 4"/></g></g></g></g></svg>