<svg xmlns="http://www.w3.org/2000/svg" viewBox="0 0 45 45" enable-background="new 0 0 45 45"><defs><clipPath id="a"><path d="M0 36h36V0H0v36z"/></clipPath></defs><g><g><g clip-path="url(#a)" transform="matrix(1.25 0 0 -1.25 0 45)"><g><path fill="#ffcc4d" d="M36 18c0-9.94-8.06-18-18-18S0 8.06 0 18s8.06 18 18 18 18-8.06 18-18"/></g><g><path fill="#664500" d="M14 19.5c0-1.93-1.12-3.5-2.5-3.5S9 17.57 9 19.5s1.12 3.5 2.5 3.5 2.5-1.57 2.5-3.5"/></g><g><path fill="#664500" d="M27 19.5c0-1.93-1.12-3.5-2.5-3.5S22 17.57 22 19.5s1.12 3.5 2.5 3.5 2.5-1.57 2.5-3.5"/></g><g><path fill="#664500" d="M23.5 8.12c-.03.05-1.16 4.38-5.5 4.38s-5.47-4.33-5.48-4.38c-.06-.2.04-.43.23-.54.18-.1.43-.1.6.06 0 0 1 .86 4.65.86 3.6 0 4.62-.83 4.66-.86.1-.1.22-.14.34-.14.08 0 .17.02.25.06.2.12.3.34.24.56"/></g><g><path fill="#5dadec" d="M10 6c0-2.76-2.24-5-5-5S0 3.24 0 6s4 10 5 10 5-7.24 5-10"/></g><g><path fill="#bdddf4" d="M18 25c8.75 0 16.03-4.5 17.66-10.48.22 1.12.34 2.3.34 3.48 0 9.94-8.06 18-18 18S0 27.94 0 18c0-1.2.12-2.36.34-3.48C1.97 20.5 9.24 25 18 25"/></g><g><path fill="#664500" d="M30 24c-5.55 0-7.8 4.37-7.9 4.55-.24.5-.04 1.1.45 1.35.5.24 1.1.04 1.34-.45.07-.14 1.8-3.45 6.1-3.45.55 0 1-.45 1-1s-.45-1-1-1"/></g><g><path fill="#664500" d="M6 24c-.55 0-1 .45-1 1s.45 1 1 1c5.08 0 6 3.12 6.03 3.25.15.53.7.85 1.22.7.53-.13.85-.66.72-1.2C13.92 28.56 12.7 24 6 24"/></g></g></g></g></svg>