<svg xmlns="http://www.w3.org/2000/svg" viewBox="0 0 45 45" enable-background="new 0 0 45 45"><defs><clipPath id="a"><path d="M0 36h36V0H0v36z"/></clipPath></defs><g><g><g clip-path="url(#a)" transform="matrix(1.25 0 0 -1.25 0 45)"><g><path fill="#ffcc4d" d="M18 36C8.06 36 0 27.94 0 18 0 11.95 3 6.6 7.57 3.35 7.67 9.78 5.34 17 1.4 17c-.46 0-.84-.07-1.15-.18.3.75.96 1.18 2.2 1.18C6.7 18 9.1 9.5 8.52 2.7 11.3 1 14.53 0 18 0c3.48 0 6.72 1 9.47 2.7C26.9 9.53 29.3 18 33.57 18c1.22 0 1.88-.43 2.18-1.18-.3.1-.7.18-1.15.18-3.94 0-6.28-7.2-6.17-13.65C33 6.6 36 11.95 36 18c0 9.94-8.06 18-18 18"/></g><g><path fill="#bdddf4" d="M18 36C8.06 36 0 27.94 0 18c0-1.2.12-2.36.34-3.48.24.86.6 1.7 1.06 2.48-.46 0-.84-.07-1.15-.18.27.66.82 1.04 1.77 1.14C5.02 22.14 11.04 25 18 25c6.96 0 13-2.86 15.98-7.04.95-.1 1.5-.48 1.77-1.14-.3.1-.7.18-1.15.18.46-.8.82-1.62 1.06-2.48.22 1.12.34 2.3.34 3.48 0 9.94-8.06 18-18 18"/></g><g><path fill="#f5f8fa" d="M7.35 24.1c-.95-3.2.1-6.3 2.35-6.97 2.25-.67 4.83 1.36 5.78 4.54.95 3.17-.1 6.3-2.35 6.96-2.25.67-4.84-1.37-5.78-4.54"/></g><g><path fill="#f5f8fa" d="M28.65 24.1c.95-3.2-.1-6.3-2.35-6.97-2.25-.67-4.83 1.36-5.78 4.54-.95 3.17.1 6.3 2.35 6.96 2.25.67 4.84-1.37 5.78-4.54"/></g><g><path fill="#664500" d="M18 18c-2.76 0-5-2.24-5-5V7c0-2.76 2.24-5 5-5s5 2.24 5 5v6c0 2.76-2.24 5-5 5"/></g><g><path fill="#fcab40" d="M1.4 17c-.46 0-.84-.07-1.15-.18.07.18.17.33.28.47C-1.33 15 2.85 7.45.83 0h6.45c1.2 6.96-1.24 17-5.88 17"/></g><g><path fill="#fcab40" d="M35.75 16.82c-.3.1-.7.18-1.15.18-4.65 0-7.07-10-5.88-17h6.46c-1.9 7.05 1.66 14.1.57 16.82"/></g></g></g></g></svg>