<svg xmlns="http://www.w3.org/2000/svg" viewBox="0 0 36 36"><path fill="#FFCC4D" d="M36 18c0 9.941-8.059 18-18 18-9.94 0-18-8.059-18-18C0 8.06 8.06 0 18 0c9.941 0 18 8.06 18 18"/><circle fill="#664500" cx="18" cy="26" r="3"/><path fill="#664500" d="M17.312 16.612c-.176-.143-.427-.147-.61-.014-.012.009-1.26.902-3.702.902-2.441 0-3.69-.893-3.7-.9-.183-.137-.435-.133-.611.009-.178.142-.238.386-.146.594.06.135 1.5 3.297 4.457 3.297 2.958 0 4.397-3.162 4.457-3.297.092-.207.032-.449-.145-.591zm10 0c-.176-.143-.426-.148-.61-.014-.012.009-1.261.902-3.702.902-2.44 0-3.69-.893-3.7-.9-.183-.137-.434-.133-.611.009-.178.142-.238.386-.146.594.06.135 1.5 3.297 4.457 3.297 2.958 0 4.397-3.162 4.457-3.297.092-.207.032-.449-.145-.591z"/><path fill="#2A6797" d="M15.998 5.131h-2.003c-.432 0-.78-.276-.78-.756s.348-.755.78-.755h3.922c.156 0 .564.072.564.54 0 .228-.048.336-.18.516L15.578 8.49h2.279c.432 0 .779.276.779.756 0 .479-.348.755-.779.755h-4.018c-.384 0-.708-.192-.708-.588 0-.192.096-.372.156-.468l2.711-3.814zm7.504-2.818h-2.34c-.504 0-.91-.322-.91-.882 0-.561.406-.883.91-.883h4.58c.184 0 .66.084.66.63 0 .266-.057.392-.211.603l-3.18 4.454h2.662c.504 0 .91.322.91.883 0 .56-.406.882-.91.882H20.98c-.448 0-.826-.224-.826-.687 0-.224.111-.434.182-.546l3.166-4.454zm8 3.377h-3.008c-.648 0-1.17-.414-1.17-1.134s.521-1.135 1.17-1.135h5.889c.234 0 .846.108.846.81 0 .342-.072.504-.27.774l-4.088 5.725h3.422c.646 0 1.17.414 1.17 1.134s-.523 1.134-1.17 1.134H28.26c-.576 0-1.062-.288-1.062-.882 0-.288.144-.558.233-.702l4.071-5.724z"/></svg>