<svg xmlns="http://www.w3.org/2000/svg" viewBox="0 0 45 45" enable-background="new 0 0 45 45"><defs><clipPath id="a"><path d="M0 36h36V0H0v36z"/></clipPath></defs><g><g><g clip-path="url(#a)" transform="matrix(1.25 0 0 -1.25 0 45)"><g><path fill="#ffcc4d" d="M36 18c0-9.94-8.06-18-18-18S0 8.06 0 18s8.06 18 18 18 18-8.06 18-18"/></g><g><path fill="#664500" d="M7 21c-.32 0-.64.16-.83.45-.3.46-.18 1.08.28 1.38.13.1 3.3 2.17 7.55 2.17.55 0 1-.45 1-1s-.45-1-1-1c-3.65 0-6.42-1.8-6.44-1.83C7.38 21.05 7.2 21 7 21"/></g><g><path fill="#664500" d="M29 21c-.2 0-.38.05-.55.17-.03 0-2.82 1.83-6.45 1.83-.55 0-1 .45-1 1s.45 1 1 1c4.25 0 7.42-2.08 7.55-2.17.46-.3.6-.92.28-1.38-.2-.3-.5-.45-.83-.45"/></g><g><path fill="#f5f8fa" d="M27 13.9l9 4.1c0 .66-.04 1.3-.1 1.95L27 15.9V17c0 1.1-.9 2-2 2H11c-1.1 0-2-.9-2-2v-1.1L.1 19.96C.05 19.3 0 18.65 0 18l9-4.1V9.37l-7.45 1.36c.34-.77.74-1.5 1.18-2.22L9 7.36V6c0-1.1.9-2 2-2h14c1.1 0 2 .9 2 2v1.36l6.27 1.14c.44.7.84 1.45 1.18 2.22L27 9.36v4.55z"/></g></g></g></g></svg>