<svg xmlns="http://www.w3.org/2000/svg" viewBox="0 0 45 45" enable-background="new 0 0 45 45"><defs><clipPath id="a"><path d="M0 36h36V0H0v36z"/></clipPath></defs><g><g><g clip-path="url(#a)" transform="matrix(1.25 0 0 -1.25 0 45)"><g><path fill="#ffcc4d" d="M36 16C36 6 25 0 18 0S0 6.06 0 16c0 9.94 4 20 18 20s18-10 18-20"/></g><g><path fill="#ffcc4d" d="M35 35c1-1 0-11 0-11l-8 10s7 2 8 1"/></g><g><path fill="#ffcc4d" d="M1 35c-1-1 0-11 0-11l8 10s-7 2-8 1"/></g><g><path fill="#292f33" d="M25.36 5.36c-.48.77-3.4 5.14-7.36 5.14-4.23 0-7.3-5.03-7.43-5.24-.12-.2-.08-.46.08-.62.1-.1.23-.14.35-.14.1 0 .2.03.28.08C11.3 4.6 14.2 6.5 18 6.5s6.7-1.9 6.72-1.92c.1-.05.22-.1.28-.08.28 0 .52.22.52.5 0 .14-.06.27-.16.36"/></g><g><path fill="#292f33" d="M14 21.5c0-1.93-.9-3.5-2-3.5s-2 1.57-2 3.5.9 3.5 2 3.5 2-1.57 2-3.5"/></g><g><path fill="#292f33" d="M26 21.5c0-1.93-.9-3.5-2-3.5s-2 1.57-2 3.5.9 3.5 2 3.5 2-1.57 2-3.5"/></g><g><path fill="#67757f" d="M18 16.5c3 0 3-.5 3-1.5s-1.5-3-3-3-3 2-3 3 0 1.5 3 1.5"/></g><g><path fill="#9aaab4" d="M26 15.5c-.2 0-.4.13-.47.34-.1.26.05.55.3.64l9 3c.28.08.56-.06.64-.32.1-.26-.05-.55-.3-.63l-9-3c-.07-.02-.12-.03-.17-.03"/></g><g><path fill="#9aaab4" d="M25 13.5c-.23 0-.44.16-.5.4-.05.27.13.54.4.6l10 2c.26.04.54-.13.6-.4.05-.27-.13-.54-.4-.6l-10-2c-.04 0-.07 0-.1 0"/></g><g><path fill="#9aaab4" d="M10 15.5c-.05 0-.1 0-.16.03l-9 3c-.26.08-.4.37-.3.63.07.26.35.4.62.3l9-3c.26-.07.4-.36.3-.62-.06-.2-.25-.34-.46-.34"/></g><g><path fill="#9aaab4" d="M11 13.5c-.03 0-.06 0-.1 0l-10 2c-.27.06-.44.33-.4.6.06.27.32.45.6.4l10-2c.27-.06.44-.33.4-.6-.06-.24-.27-.4-.5-.4"/></g><g><path fill="#292f33" d="M31 22c-.3 0-.6.14-.8.4-2.64 3.52-6.06 3.6-6.2 3.6-.56 0-1 .46-1 1 0 .56.45 1 1 1 .18 0 4.54-.05 7.8-4.4.33-.44.24-1.07-.2-1.4-.18-.13-.4-.2-.6-.2"/></g><g><path fill="#292f33" d="M5 22c-.2 0-.42.07-.6.2-.44.33-.53.96-.2 1.4C7.46 27.95 11.82 28 12 28c.55 0 1-.45 1-1s-.44-1-1-1c-.15 0-3.56-.1-6.2-3.6-.2-.26-.5-.4-.8-.4"/></g><g><path fill="#5dadec" d="M15 5c0-2.76-2.24-5-5-5S5 2.24 5 5s4 13 5 13 5-10.24 5-13"/></g></g></g></g></svg>