<svg xmlns="http://www.w3.org/2000/svg" viewBox="0 0 45 45" enable-background="new 0 0 45 45"><defs><clipPath id="a"><path d="M0 36h36V0H0v36z"/></clipPath></defs><g><g><g clip-path="url(#a)" transform="matrix(1.25 0 0 -1.25 0 45)"><g><path fill="#ffcc4d" d="M36 18c0-9.94-8.06-18-18-18S0 8.06 0 18s8.06 18 18 18 18-8.06 18-18"/></g><g><path fill="#664500" d="M23 9c0-3.3-2.24-6-5-6s-5 2.7-5 6 2.24 6 5 6 5-2.7 5-6"/></g><g><path fill="#664500" d="M6 25c-.2 0-.42.07-.6.2-.44.33-.53.96-.2 1.4C8.46 30.95 12.82 31 13 31c.55 0 1-.45 1-1s-.44-1-1-1c-.15 0-3.56-.1-6.2-3.6-.2-.26-.5-.4-.8-.4"/></g><g><path fill="#664500" d="M30 25c-.3 0-.6.14-.8.4-2.64 3.52-6.06 3.6-6.2 3.6-.56 0-1 .46-1 1 0 .56.45 1 1 1 .18 0 4.54-.05 7.8-4.4.33-.44.24-1.07-.2-1.4-.18-.13-.4-.2-.6-.2"/></g><g><path fill="#f5f8fa" d="M18 13c-1.66 0-3-1.8-3-4h6c0 2.2-1.34 4-3 4"/></g><g><path fill="#664500" d="M14.5 21.5c0-1.93-1.12-3.5-2.5-3.5s-2.5 1.57-2.5 3.5S10.62 25 12 25s2.5-1.57 2.5-3.5"/></g><g><path fill="#664500" d="M26.5 21.5c0-1.93-1.12-3.5-2.5-3.5s-2.5 1.57-2.5 3.5S22.62 25 24 25s2.5-1.57 2.5-3.5"/></g></g></g></g></svg>