<svg xmlns="http://www.w3.org/2000/svg" viewBox="0 0 45 45" enable-background="new 0 0 45 45"><defs><clipPath id="a"><path d="M0 36h36V0H0v36z"/></clipPath></defs><g><g><g clip-path="url(#a)" transform="matrix(1.25 0 0 -1.25 0 45)"><g><path fill="#ffcc4d" d="M36 16C36 6 25 0 18 0S0 6.06 0 16c0 9.94 4 20 18 20s18-10 18-20"/></g><g><path fill="#ffcc4d" d="M35 35c1-1 0-11 0-11l-8 10s7 2 8 1"/></g><g><path fill="#ffcc4d" d="M1 35c-1-1 0-11 0-11l8 10s-7 2-8 1"/></g><g><path fill="#292f33" d="M31.4 12.3c-.12.16-.33.24-.54.18-.07-.02-7-1.98-12.86-1.98-5.86 0-12.8 1.96-12.86 1.98-.2.06-.43-.02-.55-.2-.13-.18-.13-.42 0-.6.3-.36 7.23-9.18 13.4-9.18 7.18 0 13.17 8.85 13.42 9.22.1.18.1.4-.02.57"/></g><g><path fill="#292f33" d="M14 21.5c0-1.93-.9-3.5-2-3.5s-2 1.57-2 3.5.9 3.5 2 3.5 2-1.57 2-3.5"/></g><g><path fill="#292f33" d="M26 21.5c0-1.93-.9-3.5-2-3.5s-2 1.57-2 3.5.9 3.5 2 3.5 2-1.57 2-3.5"/></g><g><path fill="#f5f8fa" d="M8 11s5-2 10-2 10 2 10 2 0-3-1-3-2 1-2 1-4-2-7-2-7 2-7 2-1-1-2-1-1 3-1 3"/></g><g><path fill="#67757f" d="M18 16.5c3 0 3-.5 3-1.5s-1.5-3-3-3-3 2-3 3 0 1.5 3 1.5"/></g><g><path fill="#9aaab4" d="M26 15.5c-.2 0-.4.13-.47.34-.1.26.05.55.3.64l9 3c.28.08.56-.06.64-.32.1-.26-.05-.55-.3-.63l-9-3c-.07-.02-.12-.03-.17-.03"/></g><g><path fill="#9aaab4" d="M25 13.5c-.23 0-.44.16-.5.4-.05.27.13.54.4.6l10 2c.26.04.54-.13.6-.4.05-.27-.13-.54-.4-.6l-10-2c-.04 0-.07 0-.1 0"/></g><g><path fill="#9aaab4" d="M10 15.5c-.05 0-.1 0-.16.03l-9 3c-.26.08-.4.37-.3.63.07.26.35.4.62.3l9-3c.26-.07.4-.36.3-.62-.06-.2-.25-.34-.46-.34"/></g><g><path fill="#9aaab4" d="M11 13.5c-.03 0-.06 0-.1 0l-10 2c-.27.06-.44.33-.4.6.06.27.32.45.6.4l10-2c.27-.06.44-.33.4-.6-.06-.24-.27-.4-.5-.4"/></g></g></g></g></svg>