<svg xmlns="http://www.w3.org/2000/svg" viewBox="0 0 36 36"><path fill="#BF6952" d="M36 7c0-4.939-6.772-4.457-9.169-4.132C24.398 1.079 21.444 0 18 0c-3.438 0-6.388 1.081-8.818 2.869C6.797 2.544 0 2.052 0 7c0 2.891 1.563 4.732 2.433 5.533C1.486 15.26 1 18.175 1 21c0 5.48 3.041 8.866 6.941 10.804L6.356 36H14l.738-2.215c1.125.146 2.227.215 3.262.215.737 0 1.509-.035 2.298-.106L21 36h8l-1.648-3.847C31.586 30.292 35 26.842 35 21c0-2.835-.483-5.75-1.426-8.473C34.445 11.722 36 9.883 36 7z"/><path fill="#D79E84" d="M30 14c0-3.866-3.134-7-7-7-1.96 0-3.729.808-5 2.106C16.729 7.808 14.96 7 13 7c-3.866 0-7 3.134-7 7 0 3.631 2.765 6.615 6.304 6.965C10.88 22.29 10 24.085 10 26c0 3.866 3.582 7 8 7 4.419 0 8-3.134 8-7 0-1.915-.88-3.709-2.304-5.035C27.235 20.615 30 17.631 30 14z"/><ellipse fill="#292F33" cx="13" cy="16" rx="2" ry="3"/><ellipse fill="#292F33" cx="23" cy="16" rx="2" ry="3"/><path fill="#D79E84" d="M13 33.5c-4.114 0-6.267-6.3-6.267-9.677 0-.623.076-1.129.225-1.505.283-.712.774-.818 1.042-.818 1.926 0 3.268 1.835 3.823 2.765.994-.677 3.392-2.112 5.844-2.112 1.455 0 2.695.502 3.686 1.494 1.442 1.442 2.019 2.893 1.711 4.311-.583 2.692-4.194 4.235-4.807 4.479-.352.274-1.677 1.063-5.257 1.063z"/><path fill="#BF6952" d="M8 22c2.236 0 3.656 3 3.656 3s3.007-2.348 6.011-2.348c1.171 0 2.341.357 3.333 1.348 5 5-3 8-3 8s-1 1-5 1c-5 0-7-11-5-11m0-1c-.317 0-1.1.11-1.506 1.134-.172.435-.26 1.003-.26 1.689C6.233 27.375 8.558 34 13 34c3.501 0 4.98-.748 5.501-1.122.871-.35 4.43-1.942 5.052-4.815.346-1.595-.275-3.199-1.846-4.77-1.089-1.089-2.448-1.641-4.04-1.641-2.275 0-4.491 1.16-5.697 1.919C11.248 22.514 9.885 21 8 21z"/><path fill="#D79E84" d="M22 33.5c-3.663 0-4.965-.825-5.281-1.082-.536-.278-4.313-2.342-4.809-5.397-.245-1.506.34-2.978 1.737-4.374.88-.88 1.991-1.326 3.302-1.326 2.728 0 5.613 1.942 6.81 2.849.407-.992 1.374-2.67 3.241-2.67.268 0 .759.106 1.042.818.148.376.225.882.225 1.505 0 3.377-2.153 9.677-6.267 9.677z"/><path fill="#BF6952" d="M16.949 21.82C20.286 21.82 24 25 24 25s.764-3 3-3c2 0 0 11-5 11-4 0-5-1-5-1s-8-4-3-9c.856-.855 1.883-1.18 2.949-1.18m0-1c-1.448 0-2.678.495-3.656 1.473-1.517 1.517-2.149 3.135-1.877 4.808.522 3.217 4.33 5.368 5.032 5.739.471.359 1.929 1.16 5.552 1.16 4.442 0 6.767-6.625 6.767-10.177 0-.687-.088-1.255-.261-1.689C28.1 21.11 27.317 21 27 21c-1.701 0-2.817 1.206-3.445 2.403-1.438-1.014-4.072-2.583-6.606-2.583z"/><path d="M18 29.5c-.095 0-.191-.027-.277-.084l-5.755-3.837c-.23-.153-.292-.464-.139-.693.153-.23.463-.292.693-.139l5.755 3.837c.229.153.292.464.139.693-.096.145-.255.223-.416.223zm2-3c-.096 0-.192-.027-.277-.084l-5.462-3.641c-.23-.153-.292-.464-.139-.693.152-.229.462-.293.693-.139l5.461 3.641c.229.153.292.464.139.693-.096.145-.254.223-.415.223z" fill="#BF6952"/></svg>