<?xml version="1.0" encoding="UTF-8" standalone="no"?><svg xmlns:dc="http://purl.org/dc/elements/1.1/" xmlns:cc="http://creativecommons.org/ns#" xmlns:rdf="http://www.w3.org/1999/02/22-rdf-syntax-ns#" xmlns:svg="http://www.w3.org/2000/svg" xmlns="http://www.w3.org/2000/svg" viewBox="0 0 45 45" style="enable-background:new 0 0 45 45;" xml:space="preserve" version="1.1" id="svg2"><metadata id="metadata8"><rdf:RDF><cc:Work rdf:about=""><dc:format>image/svg+xml</dc:format><dc:type rdf:resource="http://purl.org/dc/dcmitype/StillImage"/></cc:Work></rdf:RDF></metadata><defs id="defs6"><clipPath id="clipPath16" clipPathUnits="userSpaceOnUse"><path id="path18" d="M 0,36 36,36 36,0 0,0 0,36 Z"/></clipPath></defs><g transform="matrix(1.25,0,0,-1.25,0,45)" id="g10"><g id="g12"><g clip-path="url(#clipPath16)" id="g14"><g transform="translate(30,14)" id="g20"><path id="path22" style="fill:#50a5e6;fill-opacity:1;fill-rule:nonzero;stroke:none" d="m 0,0 c -3,0 -6.687,-7.094 -7,-10 -0.421,-3.915 2,-4 2,-4 l 11,0 0,10 C 6,-4 2.563,0 0,0"/></g><g transform="translate(26.1563,8.3301)" id="g24"><path id="path26" style="fill:#1c6399;fill-opacity:1;fill-rule:nonzero;stroke:none" d="m 0,0 c -1.615,-2.797 -2.289,-5.431 -1.506,-5.884 0.783,-0.452 2.728,1.449 4.342,4.246 C 4.451,1.159 5.125,3.793 4.342,4.245 3.559,4.697 1.614,2.797 0,0"/></g><g transform="translate(20.0859,36)" id="g28"><path id="path30" style="fill:#9b6a49;fill-opacity:1;fill-rule:nonzero;stroke:none" d="m 0,0 c 1.181,0 2.138,-0.958 2.138,-2.138 0,-0.789 0.668,-10.824 0.668,-10.824 L -2.138,-18 l 0,15.862 C -2.138,-0.958 -1.181,0 0,0"/></g><g transform="translate(18.875,31.6777)" id="g32"><path id="path34" style="fill:#af7e57;fill-opacity:1;fill-rule:nonzero;stroke:none" d="m 0,0 c 0,1.098 0.852,1.989 1.902,1.989 1.052,0 1.904,-0.891 1.904,-1.989 0,0 0.534,-5.942 1.192,-9.371 0.878,-1.866 1.369,-4.682 1.261,-6.248 0.053,-0.398 5.625,-5.006 5.625,-5.006 -0.281,-1.812 -2.259,-6.155 -4.759,-8.159 l -3.521,2.925 c -2.885,0.404 -4.458,3.331 -4.458,4.263 C -0.854,-18.612 0,0 0,0"/></g><g transform="translate(6,14)" id="g36"><path id="path38" style="fill:#50a5e6;fill-opacity:1;fill-rule:nonzero;stroke:none" d="m 0,0 c 3,0 6.687,-7.094 7,-10 0.421,-3.915 -2,-4 -2,-4 l -11,0 0,10 c 0,0 3.437,4 6,4"/></g><g transform="translate(9.8442,8.3301)" id="g40"><path id="path42" style="fill:#1c6399;fill-opacity:1;fill-rule:nonzero;stroke:none" d="M 0,0 C 1.615,-2.797 2.289,-5.431 1.505,-5.884 0.722,-6.336 -1.222,-4.435 -2.837,-1.638 -4.452,1.159 -5.125,3.793 -4.342,4.245 -3.559,4.697 -1.615,2.797 0,0"/></g><g transform="translate(16.061,35.9893)" id="g44"><path id="path46" style="fill:#9b6a49;fill-opacity:1;fill-rule:nonzero;stroke:none" d="m 0,0 c -1.266,0.126 -2.333,-0.864 -2.333,-2.104 0,-0.78 -0.183,-10.319 -0.183,-10.319 l 4.35,-5.566 0.062,15.765 C 1.896,-1.118 1.101,-0.11 0,0"/></g><g transform="translate(17.125,31.6777)" id="g48"><path id="path50" style="fill:#af7e57;fill-opacity:1;fill-rule:nonzero;stroke:none" d="m 0,0 c 0,1.098 -0.852,1.989 -1.903,1.989 -1.051,0 -1.903,-0.891 -1.903,-1.989 0,0 -0.534,-5.942 -1.192,-9.371 -0.878,-1.865 -1.369,-4.682 -1.261,-6.248 -0.053,-0.398 -5.625,-5.006 -5.625,-5.006 0.281,-1.812 2.259,-6.155 4.759,-8.158 l 3.521,2.924 c 2.885,0.404 4.458,3.331 4.458,4.263 C 0.854,-18.612 0,0 0,0"/></g><g transform="translate(18,10.1777)" id="g52"><path id="path54" style="fill:#9b6a49;fill-opacity:1;fill-rule:nonzero;stroke:none" d="m 0,0 c -0.414,0 -0.75,0.336 -0.75,0.75 l 0,22.281 c 0,0.414 0.336,0.75 0.75,0.75 0.414,0 0.75,-0.336 0.75,-0.75 L 0.75,0.75 C 0.75,0.336 0.414,0 0,0"/></g></g></g></g></svg>
