<svg xmlns="http://www.w3.org/2000/svg" viewBox="0 0 36 36"><path fill="#BF6952" d="M36 7c0-4.939-6.772-4.457-9.169-4.132C24.398 1.079 21.444 0 18 0c-3.438 0-6.388 1.081-8.818 2.869C6.797 2.544 0 2.052 0 7c0 2.891 1.563 4.732 2.433 5.533C1.486 15.26 1 18.175 1 21c0 9.941 10 13 17 13s17-3 17-13c0-2.835-.483-5.75-1.426-8.473C34.445 11.722 36 9.883 36 7z"/><path fill="#D79E84" d="M23 7c-1.96 0-3.729.808-5 2.106C16.729 7.808 14.96 7 13 7c-3.866 0-7 3.134-7 7s3.134 7 7 7c1.96 0 3.729-.808 5-2.105C19.271 20.192 21.04 21 23 21c3.866 0 7-3.134 7-7s-3.134-7-7-7z"/><circle fill="#D79E84" cx="18" cy="27" r="8"/><path fill="#BF6952" d="M11.356 22.18L7.644 36H0l5.356-17.82z"/><path fill="#BF6952" d="M14.46 10c-2.503 0-5.055 1.61-6.418 2.629-.658-1.065-1.865-2.449-3.686-2.449-.317 0-1.1.11-1.506 1.134-.172.434-.26 1.003-.26 1.689 0 3.551 2.324 10.176 6.767 10.176 3.623 0 5.081-.801 5.552-1.16.702-.371 4.51-2.522 5.032-5.738.272-1.673-.36-3.292-1.877-4.808-.978-.977-2.19-1.473-3.604-1.473z"/><path fill="#D79E84" d="M14.46 11c1.034 0 2.041.324 2.896 1.18 5 5-3 9-3 9s-1 1-5 1c-5 0-7-11-5-11 2.236 0 3.356 3 3.356 3S11.222 11 14.46 11"/><path d="M11 15.68c-.162 0-.32-.078-.417-.223-.153-.23-.091-.54.139-.693l6-4c.23-.153.541-.092.693.139.153.23.091.54-.139.693l-6 4c-.084.057-.18.084-.276.084zm2 3c-.162 0-.32-.078-.417-.223-.153-.23-.091-.54.139-.693l6-4c.227-.152.538-.092.693.139.153.23.091.54-.139.693l-6 3.999c-.084.057-.18.085-.276.085zm12 3.5L28 36h8l-5-17.82z" fill="#BF6952"/><path fill="#BF6952" d="M21.949 10c-1.449 0-2.679.495-3.656 1.473-1.518 1.517-2.148 3.135-1.877 4.808.521 3.217 4.33 5.367 5.031 5.738.473.359 1.93 1.16 5.553 1.16 4.442 0 6.767-6.625 6.767-10.176 0-.686-.088-1.255-.261-1.689C33.1 10.29 32.317 10.18 32 10.18c-1.701 0-2.817 1.206-3.445 2.403C27.117 11.569 24.483 10 21.949 10z"/><path fill="#D79E84" d="M21.949 11C25.286 11 29 14.18 29 14.18s.764-3 3-3c2 0 0 11-5 11-4 0-5-1-5-1s-8-4-3-9c.855-.855 1.883-1.18 2.949-1.18"/><path d="M24 18.5c-.096 0-.192-.027-.277-.084l-6-4c-.23-.153-.292-.463-.139-.693.152-.229.462-.292.693-.139l6 3.999c.229.153.292.463.139.693-.097.146-.255.224-.416.224zm2-3c-.096 0-.192-.027-.277-.084l-6-4c-.229-.153-.292-.463-.139-.693.154-.23.465-.291.693-.139l6 4c.229.153.292.463.139.693-.097.145-.255.223-.416.223z" fill="#BF6952"/><path fill="#642116" d="M23.426 28.737c-.092-.147-.253-.237-.426-.237H13c-.173 0-.334.09-.425.237-.091.147-.1.331-.022.486.087.175 2.176 4.277 5.447 4.277s5.36-4.102 5.447-4.276c.077-.156.07-.339-.021-.487zM19 25.5c-.276 0-.5-.224-.5-.5v-2c0-.276.224-.5.5-.5s.5.224.5.5v2c0 .276-.224.5-.5.5zm-2 0c-.276 0-.5-.224-.5-.5v-2c0-.276.224-.5.5-.5s.5.224.5.5v2c0 .276-.224.5-.5.5z"/></svg>