<svg xmlns="http://www.w3.org/2000/svg" viewBox="0 0 36 36"><path fill="#BF6952" d="M36 7c0-4.939-6.772-4.457-9.169-4.132C24.398 1.079 21.444 0 18 0c-3.438 0-6.388 1.081-8.818 2.869C6.797 2.544 0 2.052 0 7c0 2.891 1.563 4.732 2.433 5.533C1.486 15.26 1 18.175 1 21c0 9.941 10 13 17 13s17-3 17-13c0-2.835-.483-5.75-1.426-8.473C34.445 11.722 36 9.883 36 7z"/><path fill="#D79E84" d="M30 14c0-3.866-3.134-7-7-7-1.96 0-3.729.808-5 2.106C16.729 7.808 14.96 7 13 7c-3.866 0-7 3.134-7 7 0 3.777 2.993 6.846 6.735 6.986C11.062 22.453 10 24.6 10 27c0 4.419 3.582 8 8 8 4.419 0 8-3.581 8-8 0-2.4-1.062-4.547-2.734-6.014C27.008 20.846 30 17.777 30 14z"/><path fill="#642116" d="M23.426 28.737c-.092-.147-.253-.237-.426-.237H13c-.173 0-.334.09-.425.237-.091.147-.1.331-.022.486.087.175 2.176 4.277 5.447 4.277s5.36-4.102 5.447-4.276c.077-.156.07-.339-.021-.487zM19 25.5c-.276 0-.5-.224-.5-.5v-2c0-.276.224-.5.5-.5s.5.224.5.5v2c0 .276-.224.5-.5.5zm-2 0c-.276 0-.5-.224-.5-.5v-2c0-.276.224-.5.5-.5s.5.224.5.5v2c0 .276-.224.5-.5.5z"/><ellipse fill="#292F33" cx="13" cy="16" rx="2" ry="3"/><ellipse fill="#292F33" cx="23" cy="16" rx="2" ry="3"/><path fill="#BF6952" d="M30 16l-2 20h8l-1-20z"/><path fill="#BF6952" d="M32 1c-.905 0-1.718.368-2.348 1.064-2.278 2.518-1.743 9.038-1.652 9.989.004.295.04 1.732.405 3.19C29.182 18.348 30.788 19 32 19c3.123 0 3.978-1.912 4-2.959.021-.322.187-2.878.071-5.778-.172-4.308-.847-7.038-2.064-8.346C33.448 1.317 32.754 1 32 1z"/><path fill="#D79E84" d="M32 2c4 0 3 14 3 14s0 2-3 2-3-6-3-6-1-10 3-10"/><path fill="#BF6952" d="M32.999 7.5c-.233 0-.442-.166-.489-.404C32.304 6.049 31.681 4.5 31 4.5h-2c-.276 0-.5-.224-.5-.5s.224-.5.5-.5h2c1.774 0 2.423 3.056 2.491 3.404.053.27-.124.533-.396.586-.032.007-.064.01-.096.01zM6 16l2 20H0l1-20z"/><path fill="#BF6952" d="M4 1c-.754 0-1.448.317-2.007.918C.775 3.226.1 5.956-.071 10.264c-.115 2.9.05 5.456.071 5.778C.022 17.088.877 19 4 19c1.212 0 2.818-.652 3.595-3.757.365-1.458.401-2.895.405-3.19.091-.951.626-7.471-1.652-9.989C5.718 1.368 4.905 1 4 1z"/><path fill="#D79E84" d="M4 2c4 0 3 10 3 10s0 6-3 6-3-2-3-2S0 2 4 2"/><path fill="#BF6952" d="M3 7.5c-.032 0-.064-.003-.096-.009-.271-.053-.447-.316-.395-.587C2.577 6.556 3.226 3.5 5 3.5h2c.276 0 .5.224.5.5s-.224.5-.5.5H5c-.75 0-1.351 1.783-1.509 2.596-.047.238-.256.404-.491.404z"/></svg>