<?xml version="1.0" encoding="UTF-8" standalone="no"?><svg xmlns:dc="http://purl.org/dc/elements/1.1/" xmlns:cc="http://creativecommons.org/ns#" xmlns:rdf="http://www.w3.org/1999/02/22-rdf-syntax-ns#" xmlns:svg="http://www.w3.org/2000/svg" xmlns="http://www.w3.org/2000/svg" viewBox="0 0 45 45" style="enable-background:new 0 0 45 45;" xml:space="preserve" version="1.1" id="svg2"><metadata id="metadata8"><rdf:RDF><cc:Work rdf:about=""><dc:format>image/svg+xml</dc:format><dc:type rdf:resource="http://purl.org/dc/dcmitype/StillImage"/></cc:Work></rdf:RDF></metadata><defs id="defs6"><clipPath id="clipPath16" clipPathUnits="userSpaceOnUse"><path id="path18" d="M 0,36 36,36 36,0 0,0 0,36 Z"/></clipPath></defs><g transform="matrix(1.25,0,0,-1.25,0,45)" id="g10"><g id="g12"><g clip-path="url(#clipPath16)" id="g14"><g transform="translate(19,36)" id="g20"><path id="path22" style="fill:#ffac33;fill-opacity:1;fill-rule:nonzero;stroke:none" d="M 0,0 C -1.721,0 -3.343,-0.406 -4.793,-1.111 -5.186,-1.042 -5.588,-1 -6,-1 c -3.866,0 -7,-3.134 -7,-7 l 0,-12 0.018,0 c 0.183,-6.467 5.471,-11.656 11.982,-11.656 6.511,0 11.799,5.189 11.982,11.656 l 0.018,0 0,9 C 11,-4.925 6.075,0 0,0"/></g><g transform="translate(32,29.375)" id="g24"><path id="path26" style="fill:#9268ca;fill-opacity:1;fill-rule:nonzero;stroke:none" d="m 0,0 -5,0 c 0,0 3,-7.25 3,-11.125 0,-3.875 -3,-9.25 -3,-9.25 l -1,0 -16,0 -1,0 c 0,0 -3,5.375 -3,9.25 C -26,-7.25 -23,0 -23,0 l -5,0 c 0,0 -4,-7.125 -4,-11.125 0,-4 6,-18.25 6,-18.25 l 4,0 16,0 4,0 c 0,0 6,14.25 6,18.25 C 4,-7.125 0,0 0,0"/></g><g transform="translate(14,31)" id="g28"><path id="path30" style="fill:#ffdc5d;fill-opacity:1;fill-rule:nonzero;stroke:none" d="M 0,0 C 0,0 -0.003,-5.308 -5,-5.936 L -5,-12 c 0,-3.917 2.507,-7.24 6,-8.477 L 1,-23 c 0,-1.657 1.343,-3 3,-3 1.657,0 3,1.343 3,3 l 0,2.523 c 3.493,1.237 6,4.56 6,8.477 l 0,5.019 C 1.89,-6.605 0,0 0,0"/></g><g transform="translate(22,15)" id="g32"><path id="path34" style="fill:#df1f32;fill-opacity:1;fill-rule:nonzero;stroke:none" d="m 0,0 -4,0 -4,0 c 0,0 1,-2 4,-2 3,0 4,2 4,2"/></g><g transform="translate(19,16.5)" id="g36"><path id="path38" style="fill:#c1694f;fill-opacity:1;fill-rule:nonzero;stroke:none" d="M 0,0 -2,0 C -2.276,0 -2.5,0.224 -2.5,0.5 -2.5,0.776 -2.276,1 -2,1 L 0,1 C 0.276,1 0.5,0.776 0.5,0.5 0.5,0.224 0.276,0 0,0"/></g><g transform="translate(14,20)" id="g40"><path id="path42" style="fill:#662113;fill-opacity:1;fill-rule:nonzero;stroke:none" d="m 0,0 c -0.552,0 -1,0.448 -1,1 l 0,1 C -1,2.552 -0.552,3 0,3 0.552,3 1,2.552 1,2 L 1,1 C 1,0.448 0.552,0 0,0"/></g><g transform="translate(22,20)" id="g44"><path id="path46" style="fill:#662113;fill-opacity:1;fill-rule:nonzero;stroke:none" d="m 0,0 c -0.553,0 -1,0.448 -1,1 l 0,1 C -1,2.552 -0.553,3 0,3 0.553,3 1,2.552 1,2 L 1,1 C 1,0.448 0.553,0 0,0"/></g><g transform="translate(19.2393,33.604)" id="g48"><path id="path50" style="fill:#ffdc5d;fill-opacity:1;fill-rule:nonzero;stroke:none" d="m 0,0 c 0.042,0.521 0.594,0.728 1.146,0.708 0,0 5.456,-0.311 7.521,-1.27 2.616,-1.216 4.094,-3.667 4.094,-3.667 l -5,0 c 0,0 -1.083,1.521 -1.938,2.125 C 4.942,-1.48 1.602,-0.889 1.104,-0.792 0.607,-0.694 -0.041,-0.521 0,0"/></g><g transform="translate(16.7603,33.604)" id="g52"><path id="path54" style="fill:#ffdc5d;fill-opacity:1;fill-rule:nonzero;stroke:none" d="m 0,0 c -0.042,0.521 -0.593,0.728 -1.146,0.708 0,0 -5.456,-0.311 -7.521,-1.27 -2.615,-1.216 -4.093,-3.667 -4.093,-3.667 l 5,0 c 0,0 1.083,1.521 1.937,2.125 0.882,0.624 4.222,1.215 4.719,1.312 C -0.607,-0.694 0.042,-0.521 0,0"/></g></g></g></g></svg>
