<svg xmlns="http://www.w3.org/2000/svg" viewBox="0 0 45 45" enable-background="new 0 0 45 45"><defs><clipPath id="a"><path d="M0 36h36V0H0v36z"/></clipPath></defs><g><g><g clip-path="url(#a)" transform="matrix(1.25 0 0 -1.25 0 45)"><g><path fill="#292f33" d="M19 36c-1.72 0-3.34-.4-4.8-1.1-.4.06-.8.1-1.2.1-3.87 0-7-3.13-7-7V16h.02C6.2 9.53 11.5 4.34 18 4.34c6.5 0 11.8 5.2 11.98 11.66H30v9c0 6.08-4.92 11-11 11"/></g><g><path fill="#9268ca" d="M27 9H9C6.8 9 5 7.2 5 5V0h26v5c0 2.2-1.8 4-4 4"/></g><g><path fill="#f7dece" d="M15 14V8c0-1.66 1.34-3 3-3s3 1.34 3 3v6h-6z"/></g><g><path fill="#f7dece" d="M9 31V19c0-4.97 4.03-9 9-9s9 4.03 9 9v12H9z"/></g><g><path fill="#292f33" d="M28 31l-2 1H8v-7c6 0 6 6 6 6s2-7 14-7v7z"/></g><path fill="#7450a8" d="M10 0H9v4h1V0z"/><path fill="#7450a8" d="M27 0h-1v4h1V0z"/><g><path fill="#df1f32" d="M19 13c0-.55-.45-1-1-1s-1 .45-1 1 .45 1 1 1 1-.45 1-1"/></g><g><path fill="#662113" d="M14 20c-.55 0-1 .45-1 1v1c0 .55.45 1 1 1s1-.45 1-1v-1c0-.55-.45-1-1-1"/></g><g><path fill="#662113" d="M22 20c-.55 0-1 .45-1 1v1c0 .55.45 1 1 1s1-.45 1-1v-1c0-.55-.45-1-1-1"/></g><g><path fill="#c1694f" d="M19 16.5h-2c-.28 0-.5.22-.5.5s.22.5.5.5h2c.28 0 .5-.22.5-.5s-.22-.5-.5-.5"/></g></g></g></g></svg>