<svg xmlns="http://www.w3.org/2000/svg" viewBox="0 0 45 45" enable-background="new 0 0 45 45"><defs><clipPath id="a"><path d="M0 36h36V0H0v36z"/></clipPath></defs><g><g><g clip-path="url(#a)" transform="matrix(1.25 0 0 -1.25 0 45)"><g><path fill="#ffcc4d" d="M34.96 24.04L35 24s1 10 0 11c-.9.9-6.77-.66-7.82-.95C24.75 35.28 21.73 36 18 36c-3.73 0-6.74-.72-9.17-1.95C7.8 34.33 1.9 35.9 1 35c-1-1 0-11 0-11l.05.06C.3 21.5 0 18.76 0 16c0-5.5 3.38-9.82 7.58-12.57C7.66 9.83 5.32 17 1.4 17c-.46 0-.84-.07-1.15-.18.3.75.96 1.18 2.2 1.18 4.24 0 6.63-8.4 6.1-15.17C11.68 1 15.16 0 18 0c2.83 0 6.3.98 9.46 2.8C26.9 9.6 29.3 18 33.56 18c1.23 0 1.9-.43 2.2-1.18-.32.1-.7.18-1.16.18-3.93 0-6.27-7.15-6.18-13.6C32.62 6.16 36 10.47 36 16c0 2.75-.3 5.5-1.04 8.04"/></g><g><path fill="#292f33" d="M18 15c-2.2 0-4-1.8-4-4V5c0-2.2 1.8-4 4-4s4 1.8 4 4v6c0 2.2-1.8 4-4 4"/></g><g><path fill="#67757f" d="M18 21c3 0 3-.5 3-1.5s-1.5-3-3-3-3 2-3 3 0 1.5 3 1.5"/></g><g><path fill="#9aaab4" d="M29.92 15.5l-5.02-1c-.27-.06-.45-.33-.4-.6.06-.24.27-.4.5-.4.03 0 .07 0 .1 0l4.2.85c.2.4.4.8.62 1.14"/></g><g><path fill="#9aaab4" d="M33.56 18s0 0 .02 0l1.58.53c.26.08.4.37.3.63-.07.26-.35.4-.62.3l-9-3c-.26-.07-.4-.36-.3-.62.06-.2.25-.34.46-.34.05 0 .1 0 .16.03l5.43 1.8c.6.43 1.25.67 1.96.67"/></g><g><path fill="#9aaab4" d="M11.1 14.5l-5.03 1c.22-.36.43-.74.63-1.15l4.2-.84c.04 0 .07 0 .1 0 .23 0 .44.16.5.4.04.27-.13.54-.4.6"/></g><g><path fill="#9aaab4" d="M10.16 16.47l-9 3c-.27.1-.55-.05-.63-.3-.1-.27.05-.56.3-.64l1.6-.53c.72 0 1.37-.24 1.97-.66l5.44-1.8c.05-.03.1-.04.16-.04.2 0 .4.13.47.34.1.26-.05.55-.3.63"/></g><g><path fill="#f5f8fa" d="M7.35 25.33c-.95-3.17.1-6.3 2.35-6.96 2.25-.67 4.83 1.36 5.78 4.54.95 3.2-.1 6.3-2.35 6.97-2.25.67-4.84-1.36-5.78-4.54"/></g><g><path fill="#f5f8fa" d="M28.65 25.33c.95-3.17-.1-6.3-2.35-6.96-2.25-.67-4.83 1.36-5.78 4.54-.95 3.2.1 6.3 2.35 6.97 2.25.67 4.84-1.36 5.78-4.54"/></g><g><path fill="#fcab40" d="M35.75 16.82c-.3.1-.7.18-1.15.18-4.65 0-7.07-10-5.88-17h6.46c-1.9 7.05 1.66 14.1.57 16.82"/></g><g><path fill="#fcab40" d="M1.4 17c-.46 0-.84-.07-1.15-.18.07.18.17.33.28.47C-1.33 15 2.85 7.45.83 0h6.45c1.2 6.96-1.24 17-5.88 17"/></g></g></g></g></svg>