<svg xmlns="http://www.w3.org/2000/svg" viewBox="0 0 45 45" enable-background="new 0 0 45 45"><defs><clipPath id="a"><path d="M0 36h36V0H0v36z"/></clipPath><clipPath id="b"><path d="M4 15l9-7-4-8h18s4 9 0 9L4 21v-6z"/></clipPath><clipPath id="c"><path d="M0 36h36V0H0v36z"/></clipPath></defs><g><g><g clip-path="url(#a)" transform="matrix(1.25 0 0 -1.25 0 45)"><g><path fill="#ffdc5d" d="M9 30.06V19c0-4.97 4.03-9 9-9s9 4.03 9 9v10.75l-18 .3z"/></g><g><path fill="#c1694f" d="M14 14h8s-1-2-4-2-4 2-4 2"/></g><g><path fill="#662113" d="M14 20c-.55 0-1 .45-1 1v1c0 .55.45 1 1 1s1-.45 1-1v-1c0-.55-.45-1-1-1"/></g><g><path fill="#662113" d="M22 20c-.55 0-1 .45-1 1v1c0 .55.45 1 1 1s1-.45 1-1v-1c0-.55-.45-1-1-1"/></g><g><path fill="#c1694f" d="M19 16.5h-2c-.28 0-.5.22-.5.5s.22.5.5.5h2c.28 0 .5-.22.5-.5s-.22-.5-.5-.5"/></g><g><path fill="#ffdc5d" d="M10.85 22.28c0-1.58-.8-2.86-1.8-2.86-.98 0-1.78 1.28-1.78 2.86 0 1.58.8 2.87 1.8 2.87.98 0 1.78-1.3 1.78-2.87"/></g><g><path fill="#ffdc5d" d="M28.73 22.28c0-1.58-.8-2.86-1.8-2.86-.98 0-1.78 1.28-1.78 2.86 0 1.58.8 2.87 1.8 2.87.98 0 1.78-1.3 1.78-2.87"/></g><g><path fill="#ffac33" d="M18 35.18c-7.02 0-10.14-4.7-10.14-8.6 0-3.9 1.34-4.98 1.56-3.9.78 3.9 3.12 5.1 3.12 5.1 4.68-3.9 3.9-.77 3.9-.77 4.68-4.68 2.34 0 2.34 0 1.56-1.55 6.24-1.55 6.24-1.55s.78-1.2 1.56-2.76c.78-1.57 1.56 0 1.56 3.9s-3.9 8.58-10.14 8.58"/></g><g><path fill="#4289c1" d="M27 9H9C6.8 9 5 7.2 5 5V0h26v5c0 2.2-1.8 4-4 4"/></g><g><path fill="#2a6797" d="M27 0L12 9l-2-1 14-8h3z"/></g><g><path fill="#f9ca55" d="M2.66 21.98l-.08.37V23c-.07 0-.14-.03-.22-.05-.27.45-.8.7-1.34.6-.7-.15-1.14-.83-1-1.53l.56-2.67V17c0-1.1.9-2 2-2h2v5s-.86 1.9-1.92 1.98"/></g><g><path fill="#ffdc5d" d="M1.58 28c-.55 0-1-.45-1-1l1-6v-5c0-.55.45-1 1-1h2v2L4 21l-1.42 6s-.45 1-1 1"/></g><g><path fill="#4289c1" d="M27 9c4 0 0-9 0-9L4 15v6L27 9z"/></g></g></g><g><g clip-path="url(#b)" transform="matrix(1.25 0 0 -1.25 0 45)"><g><path fill="#2a6797" d="M22 12l-4 3-8-4 3-2 9 3zm6-2L12 0H9l17 11 2-1z"/></g></g></g><g><g clip-path="url(#c)" transform="matrix(1.25 0 0 -1.25 0 45)"><g><path fill="#f9ca55" d="M34.98 23.54c-.54.1-1.07-.14-1.34-.58-.08 0-.15.04-.22.04v-.65l-.08-.37C32.28 21.9 31.42 20 31.42 20v-5h2c1.1 0 2 .9 2 2v2.35l.55 2.67c.15.7-.3 1.38-1 1.52"/></g><g><path fill="#ffdc5d" d="M34.42 28c.55 0 1-.45 1-1l-1-6v-5c0-.55-.45-1-1-1h-2v2l.58 4 1.42 6s.45 1 1 1"/></g><g><path fill="#4289c1" d="M9 9V0l23 15v6L9 9z"/></g></g></g></g></svg>