<?xml version="1.0" encoding="UTF-8" standalone="no"?><svg xmlns:dc="http://purl.org/dc/elements/1.1/" xmlns:cc="http://creativecommons.org/ns#" xmlns:rdf="http://www.w3.org/1999/02/22-rdf-syntax-ns#" xmlns:svg="http://www.w3.org/2000/svg" xmlns="http://www.w3.org/2000/svg" viewBox="0 0 45 45" style="enable-background:new 0 0 45 45;" xml:space="preserve" version="1.1" id="svg2"><metadata id="metadata8"><rdf:RDF><cc:Work rdf:about=""><dc:format>image/svg+xml</dc:format><dc:type rdf:resource="http://purl.org/dc/dcmitype/StillImage"/></cc:Work></rdf:RDF></metadata><defs id="defs6"><clipPath id="clipPath16" clipPathUnits="userSpaceOnUse"><path id="path18" d="M 0,36 36,36 36,0 0,0 0,36 Z"/></clipPath><clipPath id="clipPath40" clipPathUnits="userSpaceOnUse"><path id="path42" d="M 6,22.5 C 6,19.462 8.463,17 11.5,17 l 0,0 c 3.037,0 5.5,2.462 5.5,5.5 l 0,0 c 0,3.038 -2.463,5.5 -5.5,5.5 l 0,0 C 8.463,28 6,25.538 6,22.5"/></clipPath><clipPath id="clipPath52" clipPathUnits="userSpaceOnUse"><path id="path54" d="M 19,22.5 C 19,19.462 21.463,17 24.5,17 l 0,0 5.5,5.5 c 0,3.038 -2.463,5.5 -5.5,5.5 l 0,0 C 21.463,28 19,25.538 19,22.5"/></clipPath></defs><g transform="matrix(1.25,0,0,-1.25,0,45)" id="g10"><g id="g12"><g clip-path="url(#clipPath16)" id="g14"><g transform="translate(36,18)" id="g20"><path id="path22" style="fill:#ffcb4c;fill-opacity:1;fill-rule:nonzero;stroke:none" d="m 0,0 c 0,-9.941 -8.059,-18 -18,-18 -9.94,0 -18,8.059 -18,18 0,9.94 8.06,18 18,18 C -8.059,18 0,9.94 0,0"/></g><g transform="translate(30,22.5)" id="g24"><path id="path26" style="fill:#f4f7f9;fill-opacity:1;fill-rule:nonzero;stroke:none" d="m 0,0 c 0,-3.037 -2.463,-5.5 -5.5,-5.5 -3.037,0 -5.5,2.463 -5.5,5.5 0,3.037 2.463,5.5 5.5,5.5 C -2.463,5.5 0,3.037 0,0"/></g><g transform="translate(17,22.5)" id="g28"><path id="path30" style="fill:#f4f7f9;fill-opacity:1;fill-rule:nonzero;stroke:none" d="m 0,0 c 0,-3.037 -2.463,-5.5 -5.5,-5.5 -3.037,0 -5.5,2.463 -5.5,5.5 0,3.037 2.463,5.5 5.5,5.5 C -2.463,5.5 0,3.037 0,0"/></g><g transform="translate(23.1094,12.5762)" id="g32"><path id="path34" style="fill:#65471b;fill-opacity:1;fill-rule:nonzero;stroke:none" d="m 0,0 c -2.763,0.667 -8.873,0.06 -11.162,-4.405 -0.081,-0.158 -0.04,-0.353 0.1,-0.464 0.068,-0.055 0.151,-0.082 0.234,-0.082 0.085,0 0.171,0.029 0.241,0.087 3.084,2.58 7.436,2.58 10.035,2.58 1.635,0 2.536,0 2.536,0.708 C 1.984,-0.868 1.279,-0.309 0,0"/></g></g></g><g id="g36"><g clip-path="url(#clipPath40)" id="g38"><g transform="translate(13,25.5)" id="g44"><path id="path46" style="fill:#65471b;fill-opacity:1;fill-rule:nonzero;stroke:none" d="M 0,0 C 0,-1.381 -1.119,-2.5 -2.5,-2.5 -3.881,-2.5 -5,-1.381 -5,0 -5,1.38 -3.881,2.5 -2.5,2.5 -1.119,2.5 0,1.38 0,0"/></g></g></g><g id="g48"><g clip-path="url(#clipPath52)" id="g50"><g transform="translate(26,25.5)" id="g56"><path id="path58" style="fill:#65471b;fill-opacity:1;fill-rule:nonzero;stroke:none" d="M 0,0 C 0,-1.381 -1.119,-2.5 -2.5,-2.5 -3.881,-2.5 -5,-1.381 -5,0 -5,1.38 -3.881,2.5 -2.5,2.5 -1.119,2.5 0,1.38 0,0"/></g></g></g></g></svg>
