<svg xmlns="http://www.w3.org/2000/svg" viewBox="0 0 45 45" enable-background="new 0 0 45 45"><defs><clipPath id="a"><path d="M0 36h36V0H0v36z"/></clipPath></defs><g><g><g clip-path="url(#a)" transform="matrix(1.25 0 0 -1.25 0 45)"><g><path fill="#4289c1" d="M27 14H9s-9 0-9-7c0-3.16 4-7 4-7h28s4 3.84 4 7c0 7-9 7-9 7"/></g><g><path fill="#9b6a49" d="M21 8c0-1.66-1.34-3-3-3s-3 1.34-3 3 1.34 3 3 3 3-1.34 3-3"/></g><g><path fill="#af7e57" d="M9 26.06V15c0-4.97 4.03-9 9-9s9 4.03 9 9v10.75l-18 .3z"/></g><g><path fill="#af7e57" d="M10.85 18.28c0-1.58-.8-2.86-1.8-2.86-.98 0-1.78 1.28-1.78 2.86 0 1.58.8 2.87 1.8 2.87.98 0 1.78-1.3 1.78-2.87"/></g><g><path fill="#af7e57" d="M28.73 18.28c0-1.58-.8-2.86-1.8-2.86-.98 0-1.78 1.28-1.78 2.86 0 1.58.8 2.87 1.8 2.87.98 0 1.78-1.3 1.78-2.87"/></g><g><path fill="#60352a" d="M18 31.18c-7.02 0-10.14-4.7-10.14-8.6 0-3.9 1.34-4.98 1.56-3.9.78 3.9 3.12 5.1 3.12 5.1 4.68-3.9 3.9-.77 3.9-.77 4.68-4.68 2.34 0 2.34 0 1.56-1.55 6.24-1.55 6.24-1.55s.78-1.2 1.56-2.76c.78-1.57 1.56 0 1.56 3.9s-3.9 8.58-10.14 8.58"/></g><g><path fill="#af7e57" d="M17 2l-5 1-2 1H7L6 0h11c1 0 1 1 1 1 0 .55-1 1-1 1"/></g><g><path fill="#af7e57" d="M26 4l-2-1-5-1s-1-.45-1-1c0 0 0-1 1-1h11l-1 4h-3z"/></g><g><path fill="#60352a" d="M22 14c-.55 0-1 .45-1 1v1c0 .55.45 1 1 1s1-.45 1-1v-1c0-.55-.45-1-1-1"/></g><g><path fill="#60352a" d="M14 14c-.55 0-1 .45-1 1v1c0 .55.45 1 1 1s1-.45 1-1v-1c0-.55-.45-1-1-1"/></g><g><path fill="#915a34" d="M19 9.5h-2c-.28 0-.5.22-.5.5s.22.5.5.5h2c.28 0 .5-.22.5-.5s-.22-.5-.5-.5"/></g><g><path fill="#5dadec" d="M5.5 28c-.2 0-.42.07-.6.2l-4 3c-.44.33-.53.96-.2 1.4.33.44.96.53 1.4.2l4-3c.44-.33.53-.96.2-1.4-.2-.26-.5-.4-.8-.4"/></g><g><path fill="#5dadec" d="M8.5 31c-.32 0-.64.16-.83.45l-2 3c-.3.45-.18 1.08.27 1.38.46.3 1.08.18 1.4-.27l2-3c.3-.47.17-1.1-.3-1.4-.16-.1-.35-.16-.54-.16"/></g><g><path fill="#5dadec" d="M30.5 28c-.3 0-.6.14-.8.4-.33.44-.24 1.07.2 1.4l4 3c.44.33 1.07.24 1.4-.2.33-.44.24-1.07-.2-1.4l-4-3c-.18-.14-.4-.2-.6-.2"/></g><g><path fill="#5dadec" d="M27.5 31c-.2 0-.38.05-.56.17-.46.3-.58.92-.27 1.38l2 3c.3.46.92.6 1.38.28.46-.3.6-.92.28-1.38l-2-3c-.2-.3-.5-.45-.83-.45"/></g></g></g></g></svg>