<svg xmlns="http://www.w3.org/2000/svg" viewBox="0 0 45 45" enable-background="new 0 0 45 45"><defs><clipPath id="a"><path d="M0 36h36V0H0v36z"/></clipPath></defs><g><g><g clip-path="url(#a)" transform="matrix(1.25 0 0 -1.25 0 45)"><g><path fill="#2a6797" d="M30 14c-3 0-7-8-7-10 0-3 2-4 2-4h11v10s-4 4-6 4"/></g><g><path fill="#2a6797" d="M6 14c3 0 7-8 7-10 0-3-2-4-2-4H0v10s4 4 6 4"/></g><g><path fill="#e2c196" d="M25 25c0 1.1-.9 2-2 2s-2-.9-2-2v7.28c.6.34 1 .98 1 1.72 0 1.1-.9 2-2 2s-2-.9-2-2c0 1.1-.9 2-2 2s-2-.9-2-2c0-.74.4-1.38 1-1.72V25c0 1.1-.9 2-2 2s-2-.9-2-2l-1-11.53V9h5V8h6v1h5v4.47L25 25z"/></g><g><path fill="#f3d2a2" d="M24 20l-1 12c0 1.1-.9 2-2 2s-2-.9-2-2V12c0-6 6-9 6-9s6 4 6 9l-7 8z"/></g><g><path fill="#f3d2a2" d="M15 34c-1.1 0-2-.9-2-2l-1-12-7-8c0-5 6-9 6-9s6 3 6 9v20c0 1.1-.9 2-2 2"/></g></g></g></g></svg>