<svg xmlns="http://www.w3.org/2000/svg" viewBox="0 0 45 45" enable-background="new 0 0 45 45"><defs><clipPath id="a"><path d="M0 36h36V0H0v36z"/></clipPath></defs><g><g><g clip-path="url(#a)" transform="matrix(1.25 0 0 -1.25 0 45)"><g><path fill="#bf6952" d="M36 29c0 4.94-6.77 4.46-9.17 4.13C24.4 34.93 21.43 36 18 36c-3.44 0-6.4-1.08-8.82-2.87C6.8 33.46 0 33.95 0 29c0-2.9 1.56-4.73 2.43-5.53C1.5 20.74 1 17.82 1 15 1 5.06 11 2 18 2s17 3 17 13c0 2.83-.48 5.75-1.43 8.47.87.8 2.43 2.65 2.43 5.53"/></g><g><path fill="#d79e84" d="M23 29c-1.96 0-3.73-.8-5-2.1-1.27 1.3-3.04 2.1-5 2.1-3.87 0-7-3.13-7-7s3.13-7 7-7c1.96 0 3.73.8 5 2.1 1.27-1.3 3.04-2.1 5-2.1 3.87 0 7 3.13 7 7s-3.13 7-7 7"/></g><g><path fill="#d79e84" d="M26 9c0-4.42-3.58-8-8-8s-8 3.58-8 8 3.58 8 8 8 8-3.58 8-8"/></g><g><path fill="#bf6952" d="M11.36 13.82L7.64 0H0l5.36 17.82 6-4z"/></g><g><path fill="#bf6952" d="M14.46 26c-2.5 0-5.05-1.6-6.42-2.63-.66 1.07-1.86 2.45-3.68 2.45-.32 0-1.1-.1-1.5-1.13-.18-.45-.27-1.02-.27-1.7 0-3.55 2.3-10.18 6.76-10.18 3.62 0 5.08.8 5.55 1.16.7.37 4.52 2.52 5.04 5.74.27 1.67-.36 3.3-1.88 4.8-.97.98-2.2 1.48-3.6 1.48"/></g><g><path fill="#d79e84" d="M14.46 25c1.03 0 2.04-.32 2.9-1.18 5-5-3-9-3-9s-1-1-5-1c-5 0-7 11-5 11 2.23 0 3.35-3 3.35-3S11.23 25 14.47 25"/></g><g><path fill="#bf6952" d="M11 20.32c-.16 0-.32.08-.42.22-.15.23-.1.54.14.7l6 4c.23.15.54.1.7-.14.15-.23.1-.54-.14-.7l-6-4c-.1-.05-.18-.08-.28-.08"/></g><g><path fill="#bf6952" d="M13 17.32c-.16 0-.32.08-.42.22-.15.23-.1.54.14.7l6 4c.23.15.54.1.7-.14.15-.23.1-.54-.14-.7l-6-4c-.1-.05-.18-.08-.28-.08"/></g><g><path fill="#bf6952" d="M25 13.82L28 0h8l-5 17.82-6-4z"/></g><g><path fill="#bf6952" d="M21.95 26c-1.45 0-2.68-.5-3.66-1.47-1.52-1.52-2.16-3.14-1.88-4.8.52-3.23 4.33-5.38 5.03-5.75.47-.36 1.93-1.16 5.55-1.16 4.44 0 6.77 6.63 6.77 10.18 0 .68-.1 1.25-.26 1.7-.4 1-1.18 1.12-1.5 1.12-1.7 0-2.82-1.2-3.45-2.4-1.43 1-4.07 2.58-6.6 2.58"/></g><g><path fill="#d79e84" d="M21.95 25C25.3 25 29 21.82 29 21.82s.76 3 3 3c2 0 0-11-5-11-4 0-5 1-5 1s-8 4-3 9c.86.86 1.88 1.18 2.95 1.18"/></g><g><path fill="#bf6952" d="M24 17.5c-.1 0-.2.03-.28.08l-6 4c-.23.16-.3.47-.14.7.16.23.47.3.7.13l6-3.98c.23-.16.3-.47.14-.7-.1-.14-.26-.22-.42-.22"/></g><g><path fill="#bf6952" d="M26 20.5c-.1 0-.2.03-.28.08l-6 4c-.23.16-.3.47-.14.7.16.23.47.3.7.14l6-4c.23-.16.3-.47.14-.7-.1-.14-.26-.22-.42-.22"/></g><g><path fill="#642116" d="M23.43 7.26c-.1.15-.26.24-.43.24H13c-.17 0-.33-.1-.43-.24-.1-.14-.1-.33-.02-.48.1-.18 2.18-4.28 5.45-4.28s5.36 4.1 5.45 4.28c.07.15.07.34-.02.48"/></g><g><path fill="#642116" d="M19 10.5c-.28 0-.5.22-.5.5v2c0 .28.22.5.5.5s.5-.22.5-.5v-2c0-.28-.22-.5-.5-.5"/></g><g><path fill="#642116" d="M17 10.5c-.28 0-.5.22-.5.5v2c0 .28.22.5.5.5s.5-.22.5-.5v-2c0-.28-.22-.5-.5-.5"/></g></g></g></g></svg>