<svg xmlns="http://www.w3.org/2000/svg" viewBox="0 0 45 45" enable-background="new 0 0 45 45"><defs><clipPath id="a"><path d="M0 36h36V0H0v36z"/></clipPath></defs><g><g><g clip-path="url(#a)" transform="matrix(1.25 0 0 -1.25 0 45)"><g><path fill="#ffcc4d" d="M0 18c0 9.94 8.06 18 18 18s18-8.06 18-18S27.94 0 18 0 0 8.06 0 18"/></g><g><path fill="#664500" d="M8.66 23.13c.18-.16.45-.17.64-.03.04.03 3.92 2.9 8.7 2.9 4.77 0 8.66-2.87 8.7-2.9.2-.14.46-.13.64.03.17.16.2.42.1.63C27.3 23.96 24.2 29 18 29c-6.2 0-9.3-5.03-9.43-5.24-.12-.2-.08-.47.1-.63"/></g><g><path fill="#664500" d="M14 14.5c0-1.93-1.12-3.5-2.5-3.5S9 12.57 9 14.5s1.12 3.5 2.5 3.5 2.5-1.57 2.5-3.5"/></g><g><path fill="#664500" d="M27 14.5c0-1.93-1.12-3.5-2.5-3.5S22 12.57 22 14.5s1.12 3.5 2.5 3.5 2.5-1.57 2.5-3.5"/></g></g></g></g></svg>