<svg xmlns="http://www.w3.org/2000/svg" viewBox="0 0 45 45" enable-background="new 0 0 45 45"><defs><clipPath id="a"><path d="M0 0h36v36H0V0z"/></clipPath></defs><g><g><g clip-path="url(#a)" transform="matrix(1.25 0 0 -1.25 0 45)"><g><path fill="#bf6952" d="M36 29c0 4.94-6.77 4.46-9.17 4.13C24.4 34.93 21.43 36 18 36c-3.44 0-6.4-1.08-8.82-2.87C6.8 33.46 0 33.95 0 29c0-2.9 1.56-4.73 2.43-5.53C1.5 20.74 1 17.82 1 15 1 5.06 11 2 18 2s17 3 17 13c0 2.83-.48 5.75-1.43 8.47.87.8 2.43 2.65 2.43 5.53"/></g><g><path fill="#d79e84" d="M30 22c0 3.87-3.13 7-7 7-1.96 0-3.73-.8-5-2.1-1.27 1.3-3.04 2.1-5 2.1-3.87 0-7-3.13-7-7 0-3.78 3-6.85 6.74-7C11.05 13.56 10 11.4 10 9c0-4.42 3.58-8 8-8s8 3.58 8 8c0 2.4-1.06 4.55-2.73 6C27 15.16 30 18.23 30 22"/></g><g><path fill="#642116" d="M23.43 7.26c-.1.15-.26.24-.43.24H13c-.17 0-.33-.1-.43-.24-.1-.14-.1-.33-.02-.48.1-.18 2.18-4.28 5.45-4.28s5.36 4.1 5.45 4.28c.07.15.07.34-.02.48"/></g><g><path fill="#642116" d="M19 10.5c-.28 0-.5.22-.5.5v2c0 .28.22.5.5.5s.5-.22.5-.5v-2c0-.28-.22-.5-.5-.5"/></g><g><path fill="#642116" d="M17 10.5c-.28 0-.5.22-.5.5v2c0 .28.22.5.5.5s.5-.22.5-.5v-2c0-.28-.22-.5-.5-.5"/></g><g><path fill="#292f33" d="M15 20c0-1.66-.9-3-2-3s-2 1.34-2 3 .9 3 2 3 2-1.34 2-3"/></g><g><path fill="#292f33" d="M25 20c0-1.66-.9-3-2-3s-2 1.34-2 3 .9 3 2 3 2-1.34 2-3"/></g><g><path fill="#bf6952" d="M30 20L28 0h8l-1 20h-5z"/></g><g><path fill="#bf6952" d="M32 35c-.9 0-1.72-.37-2.35-1.06-2.28-2.52-1.74-9.04-1.65-10 0-.3.04-1.73.4-3.18.78-3.1 2.4-3.76 3.6-3.76 3.12 0 3.98 1.9 4 2.96.02.32.2 2.88.07 5.78-.17 4.3-.85 7.04-2.06 8.34-.55.6-1.25.92-2 .92"/></g><g><path fill="#d79e84" d="M32 34c4 0 3-14 3-14s0-2-3-2-3 6-3 6-1 10 3 10"/></g><g><path fill="#bf6952" d="M33 28.5c-.23 0-.44.17-.5.4-.2 1.05-.82 2.6-1.5 2.6h-2c-.28 0-.5.22-.5.5s.22.5.5.5h2c1.77 0 2.42-3.06 2.5-3.4.04-.28-.13-.54-.4-.6-.04 0-.07 0-.1 0"/></g><g><path fill="#bf6952" d="M6 20L8 0H0l1 20h5z"/></g><g><path fill="#bf6952" d="M4 35c-.75 0-1.45-.32-2-.92-1.23-1.3-1.9-4.04-2.07-8.34-.12-2.9.05-5.46.07-5.78C.02 18.9.88 17 4 17c1.2 0 2.82.65 3.6 3.76.36 1.45.4 2.9.4 3.2.1.94.63 7.46-1.65 9.98C5.72 34.64 4.9 35 4 35"/></g><g><path fill="#d79e84" d="M4 34c4 0 3-10 3-10s0-6-3-6-3 2-3 2-1 14 3 14"/></g><g><path fill="#bf6952" d="M3 28.5c-.03 0-.06 0-.1 0-.27.06-.44.33-.4.6.08.34.73 3.4 2.5 3.4h2c.28 0 .5-.22.5-.5s-.22-.5-.5-.5H5c-.75 0-1.35-1.78-1.5-2.6-.06-.23-.27-.4-.5-.4"/></g></g></g></g></svg>