<svg xmlns="http://www.w3.org/2000/svg" viewBox="0 0 45 45" enable-background="new 0 0 45 45"><defs><clipPath id="a"><path d="M0 36h36V0H0v36z"/></clipPath></defs><g><g><g clip-path="url(#a)" transform="matrix(1.25 0 0 -1.25 0 45)"><g><path fill="#60352a" d="M19 36c-1.72 0-3.34-.4-4.8-1.1-.4.06-.8.1-1.2.1-3.87 0-7-3.13-7-7V16h.02C6.2 9.53 11.5 4.34 18 4.34c6.5 0 11.8 5.2 11.98 11.66H30v9c0 6.08-4.92 11-11 11"/></g><g><path fill="#af7e57" d="M9 31V19c0-4.97 4.03-9 9-9s9 4.03 9 9v12H9z"/></g><g><path fill="#60352a" d="M27 31v1H8v-7c6 0 6 6 6 6s2-7 14-7v7h-1z"/></g><g><path fill="#af7e57" d="M12.42 33.06c-.6.4-1.4.23-1.77-.36l-.65-.98V34c0 1.1-.9 2-2 2H4c-1.1 0-2-.9-2-2v-8s0-1 1-1h6l1 1v1.04l2.8 4.25c.38.58.2 1.38-.38 1.76"/></g><path fill="#845636" d="M5 31H4v5h1v-5z"/><path fill="#845636" d="M8 31H7v5h1v-5z"/><g><path fill="#9268ca" d="M27 9H9l1 17H2V9s0-9 8-9h21v5c0 2.2-1.8 4-4 4"/></g><g><path fill="#915a34" d="M19 16.5h-2c-.28 0-.5.22-.5.5s.22.5.5.5h2c.28 0 .5-.22.5-.5s-.22-.5-.5-.5"/></g><g><path fill="#60352a" d="M14 20c-.55 0-1 .45-1 1v1c0 .55.45 1 1 1s1-.45 1-1v-1c0-.55-.45-1-1-1"/></g><g><path fill="#60352a" d="M22 20c-.55 0-1 .45-1 1v1c0 .55.45 1 1 1s1-.45 1-1v-1c0-.55-.45-1-1-1"/></g><g><path fill="#af7e57" d="M15 14V8c0-1.66 1.34-3 3-3s3 1.34 3 3v6h-6z"/></g><g><path fill="#df1f32" d="M22 14h-8s1-2 4-2 4 2 4 2"/></g><path fill="#7450a8" d="M27 0h-1v4h1V0z"/></g></g></g></svg>