<svg xmlns="http://www.w3.org/2000/svg" viewBox="0 0 45 45" enable-background="new 0 0 45 45"><defs><clipPath id="a"><path d="M0 36h36V0H0v36z"/></clipPath></defs><g><g><g clip-path="url(#a)" transform="matrix(1.25 0 0 -1.25 0 45)"><g><path fill="#bf6952" d="M36 29c0 4.94-6.77 4.46-9.17 4.13C24.4 34.93 21.43 36 18 36c-3.44 0-6.4-1.08-8.82-2.87C6.8 33.46 0 33.95 0 29c0-2.9 1.56-4.73 2.43-5.53C1.5 20.74 1 17.82 1 15 1 9.52 4.04 6.13 7.94 4.2L6.36 0H14l.74 2.2C15.86 2.08 16.96 2 18 2c.74 0 1.5.04 2.3.1L21 0h8l-1.65 3.85C31.6 5.7 35 9.15 35 15c0 2.83-.48 5.75-1.43 8.47.87.8 2.43 2.65 2.43 5.53"/></g><g><path fill="#d79e84" d="M30 22c0 3.87-3.13 7-7 7-1.96 0-3.73-.8-5-2.1-1.27 1.3-3.04 2.1-5 2.1-3.87 0-7-3.13-7-7 0-3.63 2.77-6.62 6.3-6.96C10.88 13.7 10 11.9 10 10c0-3.87 3.58-7 8-7s8 3.13 8 7c0 1.92-.88 3.7-2.3 5.04 3.54.35 6.3 3.33 6.3 6.96"/></g><g><path fill="#292f33" d="M15 20c0-1.66-.9-3-2-3s-2 1.34-2 3 .9 3 2 3 2-1.34 2-3"/></g><g><path fill="#292f33" d="M25 20c0-1.66-.9-3-2-3s-2 1.34-2 3 .9 3 2 3 2-1.34 2-3"/></g><g><path fill="#d79e84" d="M13 2.5c-4.1 0-6.27 6.3-6.27 9.68 0 .62.08 1.13.23 1.5.28.7.77.82 1.04.82 1.93 0 3.27-1.83 3.82-2.77 1 .68 3.4 2.12 5.85 2.12 1.45 0 2.7-.5 3.68-1.5 1.45-1.44 2.02-2.9 1.7-4.3-.57-2.7-4.18-4.24-4.8-4.5C17.92 3.3 16.6 2.5 13 2.5"/></g><g><path fill="#bf6952" d="M8 15c-.32 0-1.1-.1-1.5-1.13-.18-.44-.27-1-.27-1.7C6.23 8.63 8.56 2 13 2c3.5 0 4.98.75 5.5 1.12.87.35 4.43 1.94 5.05 4.82.35 1.6-.27 3.2-1.84 4.77-1.08 1.1-2.44 1.65-4.03 1.65-2.28 0-4.5-1.16-5.7-1.92C11.25 13.5 9.87 15 8 15m0-1c2.24 0 3.66-3 3.66-3s3 2.35 6 2.35c1.18 0 2.35-.36 3.34-1.35 5-5-3-8-3-8s-1-1-5-1C8 3 6 14 8 14"/></g><g><path fill="#d79e84" d="M22 2.5c-3.66 0-4.96.82-5.28 1.08-.54.28-4.3 2.34-4.8 5.4-.25 1.5.33 2.98 1.73 4.37.88.88 2 1.33 3.3 1.33 2.73 0 5.6-1.94 6.8-2.85.42 1 1.38 2.67 3.25 2.67.27 0 .76-.1 1.04-.82.15-.37.23-.88.23-1.5C28.27 8.8 26.1 2.5 22 2.5"/></g><g><path fill="#bf6952" d="M16.95 15.18c-1.45 0-2.68-.5-3.66-1.47-1.52-1.5-2.16-3.13-1.88-4.8.52-3.22 4.33-5.37 5.03-5.74C16.92 2.8 18.38 2 22 2c4.44 0 6.77 6.62 6.77 10.18 0 .68-.1 1.25-.26 1.7-.4 1-1.18 1.12-1.5 1.12-1.7 0-2.82-1.2-3.45-2.4-1.43 1-4.07 2.58-6.6 2.58m0-1C20.3 14.18 24 11 24 11s.76 3 3 3c2 0 0-11-5-11-4 0-5 1-5 1s-8 4-3 9c.86.86 1.88 1.18 2.95 1.18"/></g><g><path fill="#bf6952" d="M18 6.5c-.1 0-.2.03-.28.08l-5.75 3.84c-.23.15-.3.46-.14.7.15.22.46.3.7.13l5.75-3.83c.23-.16.3-.47.14-.7-.1-.14-.26-.22-.42-.22"/></g><g><path fill="#bf6952" d="M20 9.5c-.1 0-.2.03-.28.08l-5.46 3.64c-.23.16-.3.47-.14.7.16.23.47.3.7.14l5.46-3.64c.23-.16.3-.47.14-.7-.1-.14-.26-.22-.42-.22"/></g></g></g></g></svg>