<svg xmlns="http://www.w3.org/2000/svg" viewBox="0 0 45 45" enable-background="new 0 0 45 45"><defs><clipPath id="a"><path d="M0 36h36V0H0v36z"/></clipPath></defs><g><g><g clip-path="url(#a)" transform="matrix(1.25 0 0 -1.25 0 45)"><g><path fill="#7c533e" d="M9 30.06V19c0-4.97 4.03-9 9-9s9 4.03 9 9v10.75l-18 .3z"/></g><g><path fill="#3d2e24" d="M14 14h8s-1-2-4-2-4 2-4 2"/></g><g><path d="M14 20c-.55 0-1 .45-1 1v1c0 .55.45 1 1 1s1-.45 1-1v-1c0-.55-.45-1-1-1"/></g><g><path d="M22 20c-.55 0-1 .45-1 1v1c0 .55.45 1 1 1s1-.45 1-1v-1c0-.55-.45-1-1-1"/></g><g><path fill="#3d2e24" d="M19 16.5h-2c-.28 0-.5.22-.5.5s.22.5.5.5h2c.28 0 .5-.22.5-.5s-.22-.5-.5-.5"/></g><g><path fill="#7c533e" d="M10.85 22.28c0-1.58-.8-2.86-1.8-2.86-.98 0-1.78 1.28-1.78 2.86 0 1.58.8 2.87 1.8 2.87.98 0 1.78-1.3 1.78-2.87"/></g><g><path fill="#7c533e" d="M28.73 22.28c0-1.58-.8-2.86-1.8-2.86-.98 0-1.78 1.28-1.78 2.86 0 1.58.8 2.87 1.8 2.87.98 0 1.78-1.3 1.78-2.87"/></g><g><path fill="#0b0200" d="M18 35.18c-7.02 0-10.14-4.7-10.14-8.6 0-3.9 1.34-4.98 1.56-3.9.78 3.9 3.12 5.1 3.12 5.1 4.68-3.9 3.9-.77 3.9-.77 4.68-4.68 2.34 0 2.34 0 1.56-1.55 6.24-1.55 6.24-1.55s.78-1.2 1.56-2.76c.78-1.57 1.56 0 1.56 3.9s-3.9 8.58-10.14 8.58"/></g><g><path fill="#4289c1" d="M27 9H9C6.8 9 5 7.2 5 5V0h26v5c0 2.2-1.8 4-4 4"/></g><path fill="#2a6797" d="M27 0h-1v4h1V0z"/><path fill="#2a6797" d="M10 0H9v4h1V0z"/><g><path fill="#7c533e" d="M15 12V8c0-1.66 1.34-3 3-3s3 1.34 3 3v4h-6z"/></g><g><path fill="#4289c1" d="M5 0l4 9-3 10 3 12H4s-4-8-4-12S5 0 5 0"/></g><g><path fill="#4289c1" d="M31 0l-4 9 3 10-3 12h5s4-8 4-12-5-19-5-19"/></g><g><path fill="#664131" d="M12.54 34.98c-.14.7-.82 1.14-1.52 1l-2.67-.56H6c-1.1 0-2-.9-2-2V31h5s1.9 1.26 2 2.34l.35.08H12c0 .07-.03.14-.04.22.44.27.7.8.58 1.34"/></g><g><path fill="#7c533e" d="M17 34.42c0 .55-.45 1-1 1l-6-1H5c-.55 0-1-.45-1-1V31h5l2 1 5 1.42s1 .45 1 1"/></g><g><path fill="#664131" d="M30 35.42h-2.35l-2.67.55c-.7.14-1.38-.3-1.52-1-.1-.54.14-1.06.58-1.33 0-.08-.04-.15-.04-.22h.65l.37-.08c.08-1.06 1.98-1.92 1.98-1.92h5v2c0 1.1-.9 2-2 2"/></g><g><path fill="#7c533e" d="M19 34.42c0 .55.45 1 1 1l6-1h5c.55 0 1-.45 1-1V31h-5l-2 1-5 1.42s-1 .45-1 1"/></g></g></g></g></svg>