<svg xmlns="http://www.w3.org/2000/svg" viewBox="0 0 45 45" enable-background="new 0 0 45 45"><defs><clipPath id="a"><path d="M0 36h36V0H0v36z"/></clipPath><clipPath id="b"><path d="M4 15l9-7-4-8h18s4 9 0 9L4 21v-6z"/></clipPath><clipPath id="c"><path d="M0 36h36V0H0v36z"/></clipPath></defs><g><g><g clip-path="url(#a)" transform="matrix(1.25 0 0 -1.25 0 45)"><g><path fill="#ffe51e" d="M19 36c-1.72 0-3.34-.4-4.8-1.1-.4.06-.8.1-1.2.1-3.87 0-7-3.13-7-7V16h.02C6.2 9.53 11.5 4.34 18 4.34c6.5 0 11.8 5.2 11.98 11.66H30v9c0 6.08-4.92 11-11 11"/></g><g><path fill="#9268ca" d="M27 9H9C6.8 9 5 7.2 5 5V0h26v5c0 2.2-1.8 4-4 4"/></g><g><path fill="#f3d2a2" d="M14 31s0-5.3-5-5.94V19c0-4.97 4.03-9 9-9s9 4.03 9 9v5.02C15.9 24.4 14 31 14 31"/></g><g><path fill="#df1f32" d="M19 14c0-.55-.45-1-1-1s-1 .45-1 1 .45 1 1 1 1-.45 1-1"/></g><g><path fill="#7450a8" d="M27 0L12 9l-2-1 14-8h3z"/></g><g><path fill="#e2c196" d="M2.66 21.98l-.08.37V23c-.07 0-.14-.03-.22-.05-.27.45-.8.7-1.34.6-.7-.15-1.14-.83-1-1.53l.56-2.67V17c0-1.1.9-2 2-2h2v5s-.86 1.9-1.92 1.98"/></g><g><path fill="#f3d2a2" d="M1.58 28c-.55 0-1-.45-1-1l1-6v-5c0-.55.45-1 1-1h2v2L4 21l-1.42 6s-.45 1-1 1"/></g><g><path fill="#9268ca" d="M27 9c4 0 0-9 0-9L4 15v6L27 9z"/></g></g></g><g><g clip-path="url(#b)" transform="matrix(1.25 0 0 -1.25 0 45)"><g><path fill="#7450a8" d="M22 12l-4 3-8-4 3-2 9 3zm6-2L12 0H9l17 11 2-1z"/></g></g></g><g><g clip-path="url(#c)" transform="matrix(1.25 0 0 -1.25 0 45)"><g><path fill="#e2c196" d="M34.98 23.54c-.54.1-1.07-.14-1.34-.58-.08 0-.15.04-.22.04v-.65l-.08-.37C32.28 21.9 31.42 20 31.42 20v-5h2c1.1 0 2 .9 2 2v2.35l.55 2.67c.15.7-.3 1.38-1 1.52"/></g><g><path fill="#f3d2a2" d="M34.42 28c.55 0 1-.45 1-1l-1-6v-5c0-.55-.45-1-1-1h-2v2l.58 4 1.42 6s.45 1 1 1"/></g><g><path fill="#9268ca" d="M9 9V0l23 15v6L9 9z"/></g><g><path fill="#c1694f" d="M19 16.5h-2c-.28 0-.5.22-.5.5s.22.5.5.5h2c.28 0 .5-.22.5-.5s-.22-.5-.5-.5"/></g><g><path fill="#662113" d="M14 20c-.55 0-1 .45-1 1v1c0 .55.45 1 1 1s1-.45 1-1v-1c0-.55-.45-1-1-1"/></g><g><path fill="#662113" d="M22 20c-.55 0-1 .45-1 1v1c0 .55.45 1 1 1s1-.45 1-1v-1c0-.55-.45-1-1-1"/></g></g></g></g></svg>