<svg xmlns="http://www.w3.org/2000/svg" viewBox="0 0 45 45" enable-background="new 0 0 45 45"><defs><clipPath id="a"><path d="M0 36h36V0H0v36z"/></clipPath></defs><g><g><path fill="#a7a9ac" d="M16.25 23.75L2.5 45h40L28.75 23.75h-12.5z"/></g><g><path fill="#58595b" d="M18.75 23.75L6.25 45h32.5l-12.5-21.25h-7.5z"/></g><g><path fill="#808285" d="M21.25 23.75L10 45h25L23.75 23.75h-2.5z"/></g><g><g clip-path="url(#a)" transform="matrix(1.25 0 0 -1.25 0 45)"><g><path fill="#a7a9ac" d="M28 1c0-.55-.45-1-1-1H9c-.55 0-1 .45-1 1s.45 1 1 1h18c.55 0 1-.45 1-1"/></g><g><path fill="#a7a9ac" d="M26 5c0-.55-.45-1-1-1H11c-.55 0-1 .45-1 1s.45 1 1 1h14c.55 0 1-.45 1-1"/></g><g><path fill="#a7a9ac" d="M24 9c0-.55-.45-1-1-1H13c-.55 0-1 .45-1 1s.45 1 1 1h10c.55 0 1-.45 1-1"/></g><g><path fill="#58595b" d="M9.88 12.18C11 10.95 12.5 10 14 10h8c1.5 0 3 .95 4.12 2.18l-2.55 3.94C22.2 16.02 20.42 16 18 16c-2.47 0-4.27-.02-5.64 0L9.88 12.2z"/></g><g><path fill="#414042" d="M19 34c0-.55-.45-1-1-1s-1 .45-1 1v1c0 .55.45 1 1 1s1-.45 1-1v-1z"/></g><g><path fill="#6d6e71" d="M22 32c0-1.1-.9-2-2-2h-4c-1.1 0-2 .9-2 2s.9 2 2 2h4c1.1 0 2-.9 2-2"/></g><g><path fill="#d1d3d4" d="M28 18c0-2.2-3.8-5-6-5h-8c-2.2 0-6 2.8-6 5v11c0 2.2 1.8 4 4 4h12c2.2 0 4-1.8 4-4V18z"/></g><g><path fill="#808285" d="M25 20c0-2.2-1.8-4-4-4h-6c-2.2 0-4 1.8-4 4v5c0 2.2 1.8 4 4 4h6c2.2 0 4-1.8 4-4v-5z"/></g><g><path fill="#55acee" d="M15 21h6c2.2 0 4 1.8 4 4v2H11v-2c0-2.2 1.8-4 4-4"/></g><g><path fill="#5c913b" d="M18 16c-7 0-8.75 1.8-10 3.24V18c0-2.2 3-6 6-6h8c3 0 6 3.8 6 6v1.9c-1.25-1.74-3-3.9-10-3.9"/></g><g><path fill="#ffd983" d="M15 18.5c0-.83-.67-1.5-1.5-1.5s-1.5.67-1.5 1.5.67 1.5 1.5 1.5 1.5-.67 1.5-1.5"/></g><g><path fill="#ffd983" d="M24 18.5c0-.83-.67-1.5-1.5-1.5s-1.5.67-1.5 1.5.67 1.5 1.5 1.5 1.5-.67 1.5-1.5"/></g><g><path fill="#292f33" d="M25 27v2c0 1.1-.9 2-2 2H13c-1.1 0-2-.9-2-2v-2h14z"/></g><g><path fill="#6d6e71" d="M21 29c0-.55-.45-1-1-1h-4c-.55 0-1 .45-1 1s.45 1 1 1h4c.55 0 1-.45 1-1"/></g></g></g></g></svg>