<svg xmlns="http://www.w3.org/2000/svg" viewBox="0 0 45 45" enable-background="new 0 0 45 45"><defs><clipPath id="a"><path d="M0 36h36V0H0v36z"/></clipPath></defs><g><path fill="#939598" d="M0 45h45v-2.5H0V45z"/><g><g clip-path="url(#a)" transform="matrix(1.25 0 0 -1.25 0 45)"><g><path fill="#58595b" d="M10 4c0 1.66-1.34 3-3 3S4 5.66 4 4s1.34-3 3-3 3 1.34 3 3"/></g><g><path fill="#292f33" d="M9 4c0 1.1-.9 2-2 2s-2-.9-2-2 .9-2 2-2 2 .9 2 2"/></g><g><path fill="#58595b" d="M32 4c0 1.66-1.34 3-3 3s-3-1.34-3-3 1.34-3 3-3 3 1.34 3 3"/></g><g><path fill="#292f33" d="M31 4c0 1.1-.9 2-2 2s-2-.9-2-2 .9-2 2-2 2 .9 2 2"/></g><g><path fill="#e6e7e8" d="M34 34H2c-.55 0-1 .45-1 1s.45 1 1 1h32c.55 0 1-.45 1-1s-.45-1-1-1"/></g><g><path fill="#66757f" d="M17.5 27.9l-3 3.02 3 2.4 3-2.4-3-3zm5.5 3.16c-.02.28-.15.54-.37.72l-3.7 2.95c.1.3.06.63-.15.9-.3.4-.86.46-1.28.22-.42.24-.97.17-1.28-.23-.2-.26-.25-.6-.16-.9l-3.68-2.94c-.23-.18-.36-.44-.38-.72 0-.3.1-.57.3-.77l3.83-3.84c-.2-.38-.15-.85.16-1.17.2-.2.44-.3.7-.3.18 0 .34.06.5.16.16-.1.32-.16.5-.16.26 0 .5.1.7.3.32.3.37.78.17 1.16l3.84 3.83c.2.2.3.47.3.76"/></g><g><path fill="#bcbec0" d="M30 26c0-1.1-.9-2-2-2H8c-1.1 0-2 .9-2 2s.9 2 2 2h20c1.1 0 2-.9 2-2"/></g><g><path fill="#e6e7e8" d="M36 14c0-2.2-1.8-4-4-4H4c-2.2 0-4 1.8-4 4v8c0 2.2 1.8 4 4 4h28c2.2 0 4-1.8 4-4v-8z"/></g><path fill="#e6e7e8" d="M36 8H0V4h36v4z"/><path fill="#be1931" d="M36 22H0V8h36v14z"/><g><path fill="#dd2e44" d="M36 22H0V12h6V6h7v6h10V6h7v6h6v10z"/></g><g><path fill="#55acee" d="M2 20H0V10h2c1.1 0 2 .9 2 2v6c0 1.1-.9 2-2 2"/></g><g><path fill="#55acee" d="M36 20h-2c-1.1 0-2-.9-2-2v-6c0-1.1.9-2 2-2h2v10z"/></g><g><path fill="#55acee" d="M21 14c0-.55-.45-1-1-1h-4c-.55 0-1 .45-1 1v4c0 .55.45 1 1 1h4c.55 0 1-.45 1-1v-4z"/></g><g><path fill="#55acee" d="M12 13c0-.55-.45-1-1-1H8c-.55 0-1 .45-1 1v5c0 .55.45 1 1 1h3c.55 0 1-.45 1-1v-5z"/></g><g><path fill="#55acee" d="M29 13c0-.55-.45-1-1-1h-3c-.55 0-1 .45-1 1v5c0 .55.45 1 1 1h3c.55 0 1-.45 1-1v-5z"/></g><path fill="#a0041e" d="M36 6H0v2h36V6z"/></g></g></g></svg>