<svg xmlns="http://www.w3.org/2000/svg" viewBox="0 0 45 45" enable-background="new 0 0 45 45"><defs><clipPath id="a"><path d="M0 36h36V0H0v36z"/></clipPath></defs><g><g><g clip-path="url(#a)" transform="matrix(1.25 0 0 -1.25 0 45)"><g><path fill="#292f33" d="M36 18c0-9.94-8.06-18-18-18S0 8.06 0 18s8.06 18 18 18 18-8.06 18-18"/></g><g><path fill="#808285" d="M8.9 2.5c.7-.42 1.42-.8 2.17-1.1L17.65 16h-1.42L8.9 2.5z"/></g><g><path fill="#808285" d="M19.77 16h-1.42l6.58-14.62c.75.32 1.47.7 2.17 1.1L19.77 16z"/></g><path fill="#58595b" d="M14 10h-2V8h2v2z"/><path fill="#58595b" d="M24 10h-2V8h2v2z"/><g><path fill="#a7a9ac" d="M26 11c0-1.1-.9-2-2-2H12c-1.1 0-2 .9-2 2v2c0 1.1.9 2 2 2h12c1.1 0 2-.9 2-2v-2z"/></g><g><path fill="#d1d3d4" d="M24.36 30H11.64C9.64 30 8 28.37 8 26.36V13c0-1.1.9-2 2-2h16c1.1 0 2 .9 2 2v13.36c0 2-1.63 3.64-3.64 3.64"/></g><g><path fill="#dd2e44" d="M8 17v-4c0-1.1.9-2 2-2h16c1.1 0 2 .9 2 2v8H8v-4z"/></g><g><path fill="#58595b" d="M26 19c0-1.1-.9-2-2-2H12c-1.1 0-2 .9-2 2v7c0 1.1.9 2 2 2h12c1.1 0 2-.9 2-2v-7z"/></g><g><path fill="#55acee" d="M24 20c0-.55-.45-1-1-1H13c-.55 0-1 .45-1 1v5c0 .55.45 1 1 1h10c.55 0 1-.45 1-1v-5z"/></g><path fill="#ffd983" d="M14 13h-4v2h4v-2z"/><path fill="#ffd983" d="M26 13h-4v2h4v-2z"/><g><path fill="#808285" d="M20 27c0-.55-.45-1-1-1h-2c-.55 0-1 .45-1 1s.45 1 1 1h2c.55 0 1-.45 1-1"/></g></g></g></g></svg>