<?xml version="1.0" encoding="UTF-8" standalone="no"?><svg xmlns:dc="http://purl.org/dc/elements/1.1/" xmlns:cc="http://creativecommons.org/ns#" xmlns:rdf="http://www.w3.org/1999/02/22-rdf-syntax-ns#" xmlns:svg="http://www.w3.org/2000/svg" xmlns="http://www.w3.org/2000/svg" viewBox="0 0 45 45" style="enable-background:new 0 0 45 45;" xml:space="preserve" version="1.1" id="svg2"><metadata id="metadata8"><rdf:RDF><cc:Work rdf:about=""><dc:format>image/svg+xml</dc:format><dc:type rdf:resource="http://purl.org/dc/dcmitype/StillImage"/></cc:Work></rdf:RDF></metadata><defs id="defs6"><clipPath id="clipPath18" clipPathUnits="userSpaceOnUse"><path id="path20" d="M 0,36 36,36 36,0 0,0 0,36 Z"/></clipPath></defs><g transform="matrix(1.25,0,0,-1.25,0,45)" id="g10"><path id="path12" style="fill:#939598;fill-opacity:1;fill-rule:nonzero;stroke:none" d="M 0,0 36,0 36,2 0,2 0,0 Z"/><g id="g14"><g clip-path="url(#clipPath18)" id="g16"><g transform="translate(10,4)" id="g22"><path id="path24" style="fill:#58595b;fill-opacity:1;fill-rule:nonzero;stroke:none" d="m 0,0 c 0,1.657 -1.344,3 -3,3 -1.657,0 -3,-1.343 -3,-3 0,-1.657 1.343,-3 3,-3 1.656,0 3,1.343 3,3"/></g><g transform="translate(9,4)" id="g26"><path id="path28" style="fill:#292f33;fill-opacity:1;fill-rule:nonzero;stroke:none" d="m 0,0 c 0,1.105 -0.896,2 -2,2 -1.105,0 -2,-0.895 -2,-2 0,-1.105 0.895,-2 2,-2 1.104,0 2,0.895 2,2"/></g><g transform="translate(32,4)" id="g30"><path id="path32" style="fill:#58595b;fill-opacity:1;fill-rule:nonzero;stroke:none" d="m 0,0 c 0,1.657 -1.344,3 -3,3 -1.657,0 -3,-1.343 -3,-3 0,-1.657 1.343,-3 3,-3 1.656,0 3,1.343 3,3"/></g><g transform="translate(31,4)" id="g34"><path id="path36" style="fill:#292f33;fill-opacity:1;fill-rule:nonzero;stroke:none" d="m 0,0 c 0,1.105 -0.896,2 -2,2 -1.105,0 -2,-0.895 -2,-2 0,-1.105 0.895,-2 2,-2 1.104,0 2,0.895 2,2"/></g><g transform="translate(34,34)" id="g38"><path id="path40" style="fill:#e6e7e8;fill-opacity:1;fill-rule:nonzero;stroke:none" d="m 0,0 -32,0 c -0.552,0 -1,0.448 -1,1 0,0.552 0.448,1 1,1 L 0,2 C 0.553,2 1,1.552 1,1 1,0.448 0.553,0 0,0"/></g><g transform="translate(17.9995,25.0005)" id="g42"><path id="path44" style="fill:#66757f;fill-opacity:1;fill-rule:nonzero;stroke:none" d="m 0,0 c -0.256,0 -0.512,0.098 -0.707,0.293 l -5,5 c -0.201,0.201 -0.307,0.478 -0.291,0.762 0.015,0.284 0.151,0.548 0.374,0.726 l 5,4 c 0.43,0.344 1.061,0.275 1.405,-0.157 0.345,-0.431 0.275,-1.06 -0.156,-1.405 l -4.128,-3.302 4.21,-4.21 c 0.39,-0.391 0.39,-1.023 0,-1.414 C 0.512,0.098 0.256,0 0,0"/></g><g transform="translate(16.9995,25.0005)" id="g46"><path id="path48" style="fill:#66757f;fill-opacity:1;fill-rule:nonzero;stroke:none" d="m 0,0 c -0.256,0 -0.512,0.098 -0.707,0.293 -0.391,0.391 -0.391,1.023 0,1.414 l 4.21,4.21 -4.127,3.302 c -0.432,0.345 -0.502,0.974 -0.157,1.405 0.345,0.433 0.976,0.501 1.406,0.157 l 5.001,-4 C 5.847,6.603 5.983,6.339 5.999,6.055 6.015,5.771 5.909,5.494 5.708,5.293 l -5.001,-5 C 0.512,0.098 0.256,0 0,0"/></g><g transform="translate(30,26)" id="g50"><path id="path52" style="fill:#bcbec0;fill-opacity:1;fill-rule:nonzero;stroke:none" d="m 0,0 c 0,-1.104 -0.895,-2 -2,-2 l -20,0 c -1.104,0 -2,0.896 -2,2 0,1.104 0.896,2 2,2 L -2,2 C -0.895,2 0,1.104 0,0"/></g><g transform="translate(36,14)" id="g54"><path id="path56" style="fill:#e6e7e8;fill-opacity:1;fill-rule:nonzero;stroke:none" d="m 0,0 c 0,-2.209 -1.791,-4 -4,-4 l -28,0 c -2.209,0 -4,1.791 -4,4 l 0,8 c 0,2.209 1.791,4 4,4 l 28,0 c 2.209,0 4,-1.791 4,-4 L 0,0 Z"/></g><path id="path58" style="fill:#e6e7e8;fill-opacity:1;fill-rule:nonzero;stroke:none" d="M 36,8 0,8 0,4 36,4 36,8 Z"/><path id="path60" style="fill:#5c913b;fill-opacity:1;fill-rule:nonzero;stroke:none" d="M 36,22 0,22 0,8 36,8 36,22 Z"/><path id="path62" style="fill:#5c913b;fill-opacity:1;fill-rule:nonzero;stroke:none" d="M 36,12 0,12 0,22 36,22 36,12 Z"/><path id="path64" style="fill:#3e721d;fill-opacity:1;fill-rule:nonzero;stroke:none" d="M 13,6 6,6 6,20 13,20 13,6 Z"/><path id="path66" style="fill:#3e721d;fill-opacity:1;fill-rule:nonzero;stroke:none" d="m 30,6 -7,0 0,14 7,0 0,-14 z"/><g transform="translate(2,20)" id="g68"><path id="path70" style="fill:#88c9f9;fill-opacity:1;fill-rule:nonzero;stroke:none" d="m 0,0 -2,0 0,-10 2,0 c 1.104,0 2,0.896 2,2 l 0,6 C 2,-0.895 1.104,0 0,0"/></g><g transform="translate(36,20)" id="g72"><path id="path74" style="fill:#88c9f9;fill-opacity:1;fill-rule:nonzero;stroke:none" d="m 0,0 -2,0 c -1.104,0 -2,-0.895 -2,-2 l 0,-6 c 0,-1.104 0.896,-2 2,-2 l 2,0 0,10 z"/></g><g transform="translate(21,14)" id="g76"><path id="path78" style="fill:#88c9f9;fill-opacity:1;fill-rule:nonzero;stroke:none" d="m 0,0 c 0,-0.553 -0.448,-1 -1,-1 l -3.999,0 C -5.552,-1 -6,-0.553 -6,0 l 0,4 c 0,0.553 0.448,1 1.001,1 L -1,5 C -0.448,5 0,4.553 0,4 L 0,0 Z"/></g><g transform="translate(12,13)" id="g80"><path id="path82" style="fill:#88c9f9;fill-opacity:1;fill-rule:nonzero;stroke:none" d="m 0,0 c 0,-0.553 -0.448,-1 -1,-1 l -3,0 c -0.552,0 -1,0.447 -1,1 l 0,5 c 0,0.552 0.448,1 1,1 l 3,0 C -0.448,6 0,5.552 0,5 L 0,0 Z"/></g><g transform="translate(29,13)" id="g84"><path id="path86" style="fill:#88c9f9;fill-opacity:1;fill-rule:nonzero;stroke:none" d="m 0,0 c 0,-0.553 -0.447,-1 -1,-1 l -3,0 c -0.553,0 -1,0.447 -1,1 l 0,5 c 0,0.552 0.447,1 1,1 l 3,0 C -0.447,6 0,5.552 0,5 L 0,0 Z"/></g><path id="path88" style="fill:#3e721d;fill-opacity:1;fill-rule:nonzero;stroke:none" d="M 36,6 0,6 0,8 36,8 36,6 Z"/></g></g></g></svg>
