<svg xmlns="http://www.w3.org/2000/svg" viewBox="0 0 45 45" enable-background="new 0 0 45 45"><defs><clipPath id="a"><path d="M0 36h36V0H0v36z"/></clipPath></defs><g><g><g clip-path="url(#a)" transform="matrix(1.25 0 0 -1.25 0 45)"><g><path fill="#a0041e" d="M1 19l8 7 16-1 1-16-7-8s0 6-6 12-12 6-12 6"/></g><g><path fill="#ffac33" d="M.97 1s-.03 7.98 3 11c3 3.02 11.03 2.8 11.03 2.8S15 7 12 4C9 1 .97 1 .97 1"/></g><g><path fill="#ffcc4d" d="M5 9c0 2.2 1.8 4 4 4s4-1.8 4-4-1.8-4-4-4-4 1.8-4 4"/></g><g><path fill="#55acee" d="M36 36s-10 0-22-10c-6-5-6-14-4-16s11-2 16 4c10 12 10 22 10 22"/></g><g><path d="M27 31c-1.62 0-3-.97-3.64-2.36.5.23 1.05.36 1.64.36 2.2 0 4-1.8 4-4 0-.6-.13-1.14-.36-1.64C30.04 24 31 25.38 31 27c0 2.2-1.8 4-4 4"/></g><g><path fill="#a0041e" d="M8 8s0 4 1 5 13 11 14 10-9-13-10-14-5-1-5-1"/></g></g></g></g></svg>