<svg xmlns="http://www.w3.org/2000/svg" viewBox="0 0 45 45" enable-background="new 0 0 45 45"><defs><clipPath id="a"><path d="M0 36h36V0H0v36z"/></clipPath></defs><g><path fill="#66757f" d="M22.83 38.75h-2.5V32.5h2.5v6.25z"/><path fill="#66757f" d="M10.32 32.5h2.5v6.25h-2.5V32.5z"/><g><g clip-path="url(#a)" transform="matrix(1.25 0 0 -1.25 0 45)"><g><path fill="#99aab5" d="M12.26 33c0-.55-2.7-1-6-1-3.32 0-6 .45-6 1s2.68 1 6 1c3.3 0 6-.45 6-1"/></g><g><path fill="#99aab5" d="M26.26 33c0-.55-2.7-1-6-1-3.32 0-6 .45-6 1s2.68 1 6 1c3.3 0 6-.45 6-1"/></g><path fill="#99aab5" d="M14.26 27h-2v6h2v-6z"/><g><path fill="#66757f" d="M15.26 33c0-.55-.9-1-2-1s-2 .45-2 1 .9 1 2 1 2-.45 2-1"/></g><g><path fill="#ffcc4d" d="M34.26 26c0 3 0 7-1 7s-3-4-4-6 5-1 5-1"/></g><g><path fill="#ffcc4d" d="M34.26 26c0 2.2-8 3-19 3h-2C6.63 29 .5 23.55.5 17.75S4.27 8 13.27 8s12 4.7 12 10.5c0 .88-.14 1.73-.37 2.55C29.25 22 34.25 24 34.25 26"/></g><g><path fill="#3b88c3" d="M4.26 23c-2.1-2.92-3.07-7.6 1.2-7.78 4.8-.22 6.8-.22 7.86 2.37 1.37 3.3.94 7.4-.27 8.18-2.32 1.5-6.7.14-8.8-2.78"/></g><g><path fill="#3b88c3" d="M21.1 23.46C23.26 20 23.17 17.3 19.26 16c-3-1-4 2-3.84 5.53.1 2.5.2 4.2 1.84 4.47 1.45.24 2.53-.43 3.84-2.54"/></g><g><path fill="#99aab5" d="M31.44 28.9c.9-1.3 1.27-2.58.82-2.9-.45-.32-1.55.46-2.45 1.73-.9 1.27-1.26 2.56-.8 2.88.44.33 1.54-.44 2.44-1.7"/></g><g><path fill="#99aab5" d="M34.72 24.26c.9-1.27 1.28-2.57.83-2.9-.45-.3-1.55.47-2.46 1.75-.92 1.3-1.3 2.58-.84 2.9.45.32 1.55-.46 2.46-1.74"/></g><g><path fill="#66757f" d="M33.08 26.58c.32-.45.2-1.07-.24-1.4-.45-.3-1.07-.2-1.4.24-.3.45-.2 1.08.24 1.4.45.32 1.08.2 1.4-.24"/></g><g><path fill="#99aab5" d="M25.26 4c0-1.1-.9-2-2-2h-20c-1.1 0-2 .9-2 2s.9 2 2 2h20c1.1 0 2-.9 2-2"/></g></g></g></g></svg>