<svg xmlns="http://www.w3.org/2000/svg" viewBox="0 0 45 45" enable-background="new 0 0 45 45"><defs><clipPath id="a"><path d="M0 36h36V0H0v36z"/></clipPath></defs><g><path fill="#939598" d="M0 45h45v-2.5H0V45z"/><g><g clip-path="url(#a)" transform="matrix(1.25 0 0 -1.25 0 45)"><g><path fill="#d1d3d4" d="M3 1h33v29H21c-4 0-5-2-5-2l-4-6S0 17 0 12c0-4 6-6 6-6L3 1z"/></g><g><path fill="#231f20" d="M14 1l2 3h20V1H14z"/></g><g><path fill="#3b88c3" d="M0 12c0-4 6-6 6-6v12.87C3 17 0 14.5 0 12"/></g><g><path fill="#3b88c3" d="M6 6z"/></g><g><path fill="#269" d="M6 6L3 1h33v5H6z"/></g><g><path fill="#3b88c3" d="M20 6l4 6h12V6H20z"/></g><g><path fill="#55acee" d="M26 28H16l-4-6h10.84c.48 0 1.1.45 1.4 1l2.2 4c.3.55.1 1-.44 1"/></g><g><path fill="#3b88c3" d="M25.9 26l.55 1c.3.55.1 1-.45 1H16l-1.33-2H25.9z"/></g></g></g></g></svg>