<svg xmlns="http://www.w3.org/2000/svg" viewBox="0 0 45 45" enable-background="new 0 0 45 45"><defs><clipPath id="a"><path d="M0 36h36V0H0v36z"/></clipPath></defs><g><g><path fill="#a7a9ac" d="M16.25 23.75L2.5 45h40L28.75 23.75h-12.5z"/></g><g><path fill="#58595b" d="M18.75 23.75L6.25 45h32.5l-12.5-21.25h-7.5z"/></g><g><path fill="#808285" d="M21.25 23.75L10 45h25L23.75 23.75h-2.5z"/></g><g><g clip-path="url(#a)" transform="matrix(1.25 0 0 -1.25 0 45)"><g><path fill="#a7a9ac" d="M28 1c0-.55-.45-1-1-1H9c-.55 0-1 .45-1 1s.45 1 1 1h18c.55 0 1-.45 1-1"/></g><g><path fill="#a7a9ac" d="M26 5c0-.55-.45-1-1-1H11c-.55 0-1 .45-1 1s.45 1 1 1h14c.55 0 1-.45 1-1"/></g><g><path fill="#58595b" d="M27.08 10.7L23 17H13l-4.08-6.3C10.82 8.18 13.72 6 18 6s7.2 2.18 9.08 4.7"/></g><g><path fill="#a7a9ac" d="M18 36c-9 0-12-3-12-9v-8C6 17 9 8 18 8s12 9 12 11v8c0 6-3 9-12 9"/></g><g><path fill="#e6e7e8" d="M8 25c0 9 4.48 10 10 10s10-1 10-10c0-6-4.48-11-10-11S8 19 8 25"/></g><g><path fill="#ffac33" d="M18 14c1.64 0 3.2.45 4.55 1.23C21.77 16.27 20.03 17 18 17s-3.77-.73-4.55-1.77C14.8 14.45 16.35 14 18 14"/></g><g><path fill="#55acee" d="M19 31v-4.96c3.5.23 6 1.62 6 2.46v1.67c0 .8-3.7.83-6 .83"/></g><g><path fill="#55acee" d="M17 31c-2.3 0-6-.04-6-.83V28.5c0-.84 2.5-2.23 6-2.46V31z"/></g><g><path fill="#269" d="M6 26s0-3 4-9c0 0-4 2-4 6v3z"/></g><g><path fill="#269" d="M30 26s0-3-4-9c0 0 4 2 4 6v3z"/></g></g></g></g></svg>