<svg xmlns="http://www.w3.org/2000/svg" viewBox="0 0 45 45" enable-background="new 0 0 45 45"><defs><clipPath id="a"><path d="M0 36h36V0H0v36z"/></clipPath></defs><g><g><g clip-path="url(#a)" transform="matrix(1.25 0 0 -1.25 0 45)"><g><path fill="#292f33" d="M11 2c0-1.1-.9-2-2-2H7C5.9 0 5 .9 5 2v7c0 1.1.9 2 2 2h2c1.1 0 2-.9 2-2V2z"/></g><g><path fill="#292f33" d="M31 2c0-1.1-.9-2-2-2h-2c-1.1 0-2 .9-2 2v7c0 1.1.9 2 2 2h2c1.1 0 2-.9 2-2V2z"/></g><g><path fill="#99aab5" d="M3 19c0-.55-.45-1-1-1H1c-.55 0-1 .45-1 1v7c0 .55.45 1 1 1h1c.55 0 1-.45 1-1v-7z"/></g><g><path fill="#99aab5" d="M36 19c0-.55-.45-1-1-1h-1c-.55 0-1 .45-1 1v7c0 .55.45 1 1 1h1c.55 0 1-.45 1-1v-7z"/></g><g><path fill="#99aab5" d="M35 25c0-.55-.45-1-1-1H2c-.55 0-1 .45-1 1s.45 1 1 1h32c.55 0 1-.45 1-1"/></g><g><path fill="#99aab5" d="M35 21c0-.55-.45-1-1-1H2c-.55 0-1 .45-1 1s.45 1 1 1h32c.55 0 1-.45 1-1"/></g><g><path fill="#ccd6dd" d="M24 34c0-1.1-.9-2-2-2h-8c-1.1 0-2 .9-2 2s.9 2 2 2h8c1.1 0 2-.9 2-2"/></g><g><path fill="#ccd6dd" d="M28 34H8c-2.2 0-4-1.8-4-4V4h28v26c0 2.2-1.8 4-4 4"/></g><path fill="#ffcc4d" d="M32 4H4v16h28V4z"/><g><path fill="#66757f" d="M33 4c0-.55-.45-1-1-1H4c-.55 0-1 .45-1 1v1c0 .55.45 1 1 1h28c.55 0 1-.45 1-1V4z"/></g><g><path fill="#66757f" d="M32 19c0-1.66-1.34-3-3-3H7c-1.66 0-3 1.34-3 3v7c0 1.66 1.34 3 3 3h22c1.66 0 3-1.34 3-3v-7z"/></g><g><path fill="#88c9f9" d="M30 20c0-1.1-.9-2-2-2H8c-1.1 0-2 .9-2 2v5c0 1.1.9 2 2 2h20c1.1 0 2-.9 2-2v-5z"/></g><path fill="#ffac33" d="M32 6H4v5h28V6z"/><path fill="#fff" d="M12 8H6v3h6V8z"/><path fill="#fff" d="M30 8h-6v3h6V8z"/><path fill="#dd2e44" d="M6 8H4v3h2V8z"/><path fill="#dd2e44" d="M32 8h-2v3h2V8z"/><path fill="#66757f" d="M22 8h-8v3h8V8z"/><g><path fill="#292f33" d="M22 32.5c0-.83-.67-1.5-1.5-1.5h-5c-.83 0-1.5.67-1.5 1.5s.67 1.5 1.5 1.5h5c.83 0 1.5-.67 1.5-1.5"/></g></g></g></g></svg>