<svg xmlns="http://www.w3.org/2000/svg" viewBox="0 0 45 45" enable-background="new 0 0 45 45"><defs><clipPath id="a"><path d="M0 36h36V0H0v36z"/></clipPath></defs><g><path fill="#6d6e71" d="M17.5 45H20V8.75h-2.5V45z"/><path fill="#6d6e71" d="M22.5 26.25h-3.75v-2.5h3.75v2.5z"/><path fill="#6d6e71" d="M22.5 18.75h-3.75v-2.5h3.75v2.5z"/><g><g clip-path="url(#a)" transform="matrix(1.25 0 0 -1.25 0 45)"><g><path fill="#bcbec0" d="M29 12c0-.55-.45-1-1-1h-9c-.55 0-1 .45-1 1v14c0 .55.45 1 1 1h9c.55 0 1-.45 1-1V12z"/></g><g><path fill="#be1931" d="M29 23v3c0 .55-.45 1-1 1h-9c-.55 0-1-.45-1-1v-3h11z"/></g><g><path fill="#6d6e71" d="M21 2H9L8 1V0h14v1l-1 1z"/></g><g><path fill="#6d6e71" d="M19 4h-8l-1-1V2h10v1l-1 1z"/></g><g><path fill="#be1931" d="M11 32c0 2.2 1.8 4 4 4s4-1.8 4-4-1.8-4-4-4-4 1.8-4 4"/></g><path fill="#808285" d="M23 20h-3v3h3v-3z"/><path fill="#f4900c" d="M23 16h-3v3h3v-3z"/><path fill="#f4900c" d="M23 12h-3v3h3v-3z"/><path fill="#808285" d="M27 20h-3v3h3v-3z"/><path fill="#808285" d="M27 16h-3v3h3v-3z"/><path fill="#f4900c" d="M27 12h-3v3h3v-3z"/><path fill="#dd2e44" d="M17 30h-4v4h4v-4z"/><path fill="#dd2e44" d="M27 24h-7v2h7v-2z"/></g></g></g></svg>