<svg xmlns="http://www.w3.org/2000/svg" viewBox="0 0 45 45" enable-background="new 0 0 45 45"><defs><clipPath id="a"><path d="M0 36h36V0H0v36z"/></clipPath></defs><g><path fill="#939598" d="M0 45h45v-2.5H0V45z"/><g><g clip-path="url(#a)" transform="matrix(1.25 0 0 -1.25 0 45)"><g><path fill="#58595b" d="M8 4c0 1.66-1.34 3-3 3S2 5.66 2 4s1.34-3 3-3 3 1.34 3 3"/></g><g><path fill="#292f33" d="M7 4c0 1.1-.9 2-2 2s-2-.9-2-2 .9-2 2-2 2 .9 2 2"/></g><g><path fill="#58595b" d="M16 4c0 1.66-1.34 3-3 3s-3-1.34-3-3 1.34-3 3-3 3 1.34 3 3"/></g><g><path fill="#292f33" d="M15 4c0 1.1-.9 2-2 2s-2-.9-2-2 .9-2 2-2 2 .9 2 2"/></g><g><path fill="#58595b" d="M35 4c0 1.66-1.34 3-3 3s-3-1.34-3-3 1.34-3 3-3 3 1.34 3 3"/></g><g><path fill="#292f33" d="M34 4c0 1.1-.9 2-2 2s-2-.9-2-2 .9-2 2-2 2 .9 2 2"/></g><g><path fill="#58595b" d="M27 4c0 1.66-1.34 3-3 3s-3-1.34-3-3 1.34-3 3-3 3 1.34 3 3"/></g><g><path fill="#292f33" d="M26 4c0 1.1-.9 2-2 2s-2-.9-2-2 .9-2 2-2 2 .9 2 2"/></g><path fill="#5c913b" d="M36 8H0V4h36v4z"/><path fill="#ffe8b6" d="M0 8h36v12H0V8z"/><path fill="#ffac33" d="M36 8H0v2h36V8z"/><g><path fill="#55acee" d="M5 14c0-.55-.45-1-1-1H2c-.55 0-1 .45-1 1v2c0 .55.45 1 1 1h2c.55 0 1-.45 1-1v-2z"/></g><g><path fill="#55acee" d="M11 14c0-.55-.45-1-1-1H8c-.55 0-1 .45-1 1v2c0 .55.45 1 1 1h2c.55 0 1-.45 1-1v-2z"/></g><g><path fill="#55acee" d="M17 14c0-.55-.45-1-1-1h-2c-.55 0-1 .45-1 1v2c0 .55.45 1 1 1h2c.55 0 1-.45 1-1v-2z"/></g><g><path fill="#55acee" d="M23 14c0-.55-.45-1-1-1h-2c-.55 0-1 .45-1 1v2c0 .55.45 1 1 1h2c.55 0 1-.45 1-1v-2z"/></g><g><path fill="#55acee" d="M29 14c0-.55-.45-1-1-1h-2c-.55 0-1 .45-1 1v2c0 .55.45 1 1 1h2c.55 0 1-.45 1-1v-2z"/></g><g><path fill="#55acee" d="M35 14c0-.55-.45-1-1-1h-2c-.55 0-1 .45-1 1v2c0 .55.45 1 1 1h2c.55 0 1-.45 1-1v-2z"/></g><g><path fill="#77b255" d="M32.55 22H3.45C1.97 22 .7 21.2 0 20h36c-.7 1.2-1.97 2-3.45 2"/></g></g></g></g></svg>