<svg xmlns="http://www.w3.org/2000/svg" viewBox="0 0 45 45" enable-background="new 0 0 45 45"><defs><clipPath id="a"><path d="M0 36h36V0H0v36z"/></clipPath></defs><g><g><g clip-path="url(#a)" transform="matrix(1.25 0 0 -1.25 0 45)"><g><path fill="#e1e8ed" d="M32 14s-2 8-5 8H16c-3 0-7-7-7-7s-8-1-8-5V8c0-.1.02-.17.03-.26C.43 7.4 0 6.74 0 6c0-1.1.9-2 2-2h30c2.2 0 4 1.8 4 4v2c0 2.2-1.8 4-4 4"/></g><g><path fill="#292f33" d="M1 10V8c0-.1.02-.17.03-.26C.43 7.4 0 6.74 0 6c0-1.1.9-2 2-2h30c2.2 0 4 1.8 4 4v2c0 .35-.06.68-.14 1H1.2c-.12-.3-.2-.64-.2-1"/></g><g><path fill="#66757f" d="M15.9 4c.07.33.1.66.1 1 0 3.3-2.7 6-6 6S4 8.3 4 5c0-.34.04-.67.1-1h11.8z"/></g><g><path fill="#66757f" d="M32.9 4c.07.33.1.66.1 1 0 3.3-2.7 6-6 6s-6-2.7-6-6c0-.34.04-.67.1-1h11.8z"/></g><g><path fill="#292f33" d="M14 5c0-2.2-1.8-4-4-4S6 2.8 6 5s1.8 4 4 4 4-1.8 4-4"/></g><g><path fill="#e1e8ed" d="M12 5c0-1.1-.9-2-2-2s-2 .9-2 2 .9 2 2 2 2-.9 2-2"/></g><g><path fill="#292f33" d="M31 5c0-2.2-1.8-4-4-4s-4 1.8-4 4 1.8 4 4 4 4-1.8 4-4"/></g><g><path fill="#e1e8ed" d="M29 5c0-1.1-.9-2-2-2s-2 .9-2 2 .9 2 2 2 2-.9 2-2"/></g><g><path fill="#dd2e44" d="M21 23c0-.55-.45-1-1-1h-3c-.55 0-1 .45-1 1s.45 1 1 1h3c.55 0 1-.45 1-1"/></g><g><path fill="#55acee" d="M22 23c0-.55-.45-1-1-1h-2c-.55 0-1 .45-1 1s.45 1 1 1h2c.55 0 1-.45 1-1"/></g><g><path fill="#55acee" d="M23 15h7s-2 5-3 5h-4v-5z"/></g><g><path fill="#55acee" d="M21 20h-5c-2 0-5-5-5-5h10v5z"/></g></g></g></g></svg>