<svg xmlns="http://www.w3.org/2000/svg" viewBox="0 0 45 45" enable-background="new 0 0 45 45"><defs><clipPath id="a"><path d="M0 36h36V0H0v36z"/></clipPath></defs><g><g><g clip-path="url(#a)" transform="matrix(1.25 0 0 -1.25 0 45)"><g><path fill="#dd2e44" d="M36 9c0-2.2-1.8-4-4-4H4C1.8 5 0 6.8 0 9v3c0 2.2 1.8 4 4 4h28c2.2 0 4-1.8 4-4V9z"/></g><g><path fill="#ffcc4d" d="M19 23l-.98 1H7.15C4 24 3 22 3 22l-3-5.96V11h19v12z"/></g><g><path fill="#55acee" d="M9 16H2l2 4s1 2 3 2h2v-6z"/></g><g><path fill="#292f33" d="M13 5c0-2.2-1.8-4-4-4S5 2.8 5 5s1.8 4 4 4 4-1.8 4-4"/></g><g><path fill="#ccd6dd" d="M11 5c0-1.1-.9-2-2-2s-2 .9-2 2 .9 2 2 2 2-.9 2-2"/></g><g><path fill="#292f33" d="M31 5c0-2.2-1.8-4-4-4s-4 1.8-4 4 1.8 4 4 4 4-1.8 4-4"/></g><g><path fill="#ccd6dd" d="M27 7c-1.1 0-2-.9-2-2s.9-2 2-2 2 .9 2 2-.9 2-2 2"/></g><g><path fill="#ccd6dd" d="M32 28H17c-2.2 0-4-1.8-4-4V11h23v13c0 2.2-1.8 4-4 4"/></g></g></g></g></svg>