<svg xmlns="http://www.w3.org/2000/svg" viewBox="0 0 45 45" enable-background="new 0 0 45 45"><defs><clipPath id="a"><path d="M0 36h36V0H0v36z"/></clipPath></defs><g><g><g clip-path="url(#a)" transform="matrix(1.25 0 0 -1.25 0 45)"><g><path fill="#58595b" d="M30 20c0-1.1-.9-2-2-2H18c-1.1 0-2 .9-2 2v2c0 1.1.9 2 2 2h10c1.1 0 2-.9 2-2v-2z"/></g><g><path fill="#f4900c" d="M4 22c-2.2 0-4-1.8-4-4V8c0-4.42 3.58-8 8-8h28v22H4z"/></g><g><path fill="#ffd983" d="M.6 5H36v2H.07c.1-.7.26-1.37.52-2"/></g><path fill="#808285" d="M36 28H0v6h36v-6z"/><path fill="#414042" d="M36 30H0v2h36v-2z"/><g><path fill="#a7a9ac" d="M28 36H18c-1.66 0-3-1.34-3-3s1.34-3 3-3h3v-4l-2-2h8l-2 2v4h3c1.66 0 3 1.34 3 3s-1.34 3-3 3"/></g><path fill="#3b88c3" d="M14 7h22v15H14V7z"/><g><path fill="#58595b" d="M12 11c0-1.1-.9-2-2-2H6c-1.1 0-2 .9-2 2v6c0 1.1.9 2 2 2h4c1.1 0 2-.9 2-2v-6z"/></g><g><path fill="#414042" d="M24 13c0-1.1-.9-2-2-2h-4c-1.1 0-2 .9-2 2v4c0 1.1.9 2 2 2h4c1.1 0 2-.9 2-2v-4z"/></g><g><path fill="#414042" d="M34 13c0-1.1-.9-2-2-2h-4c-1.1 0-2 .9-2 2v4c0 1.1.9 2 2 2h4c1.1 0 2-.9 2-2v-4z"/></g><g><path fill="#58595b" d="M0 19V9c1.1 0 2 .9 2 2v6c0 1.1-.9 2-2 2"/></g></g></g></g></svg>