<svg xmlns="http://www.w3.org/2000/svg" viewBox="0 0 45 45" enable-background="new 0 0 45 45"><defs><clipPath id="a"><path d="M0 36h36V0H0v36z"/></clipPath></defs><g><path fill="#ccd6dd" d="M17.5 25h-3.75V13.75h3.75V25z"/><g><g clip-path="url(#a)" transform="matrix(1.25 0 0 -1.25 0 45)"><g><path fill="#77b255" d="M24 9.84C24 7.17 22.35 5 20.33 5H4.7C2.7 5 1.23 6.56 1.46 8.5l.63 5.24c.23 1.92 2 3.8 3.92 4.2l14.63 3.2C22.5 21.6 24 19.78 24 17.1V9.85z"/></g><g><path fill="#292f33" d="M16.53 11.83C16.23 9.73 17.8 8 20 8h9c2.2 0 4 1.72 4 3.83v15.34c0 2.1-1.45 3.83-3.25 3.83h-7.3c-1.8 0-3.48-1.72-3.78-3.83l-2.14-15.34z"/></g><g><path fill="#bbddf5" d="M18.25 11c-.14-1.1.65-2 1.75-2h9c1.1 0 2 .9 2 2v14c0 1.1-.74 2-1.66 2h-7.47c-.92 0-1.77-.9-1.9-2l-1.72-14z"/></g><path fill="#77b255" d="M33 15H15V5h18v10z"/><g><path fill="#ffcc4d" d="M33 13H2l1 2h30v-2z"/></g><g><path fill="#292f33" d="M12 5c0-2.2-1.8-4-4-4S4 2.8 4 5s1.8 4 4 4 4-1.8 4-4"/></g><g><path fill="#ffcc4d" d="M10 5c0-1.1-.9-2-2-2s-2 .9-2 2 .9 2 2 2 2-.9 2-2"/></g><g><path fill="#77b255" d="M33 20v-4L23 7l-7 1 3 10 3 2h11z"/></g><g><path fill="#292f33" d="M18.22 9.9c0 4.9 3.98 8.88 8.9 8.88 4.9 0 8.88-3.98 8.88-8.9C36 5 32.02 1 27.1 1c-4.9 0-8.88 3.98-8.88 8.9"/></g><g><path fill="#ffcc4d" d="M32.67 9.9c0-3.08-2.5-5.57-5.56-5.57-3.06 0-5.54 2.5-5.54 5.56 0 3.06 2.48 5.54 5.55 5.54 3.08 0 5.57-2.48 5.57-5.55"/></g><g><path fill="#ffe8b6" d="M30.44 9.9c0-1.85-1.5-3.34-3.33-3.34S23.8 8.06 23.8 9.9s1.5 3.32 3.33 3.32c1.85 0 3.34-1.5 3.34-3.33"/></g><g><path fill="#77b255" d="M32.6 29c-.56 1.2-1.62 2-2.85 2h-7.3c-1.22 0-2.4-.8-3.1-2h13.24z"/></g><g><path fill="#f4900c" d="M29.33 9.9c0-1.24-1-2.23-2.22-2.23-1.22 0-2.2 1-2.2 2.22 0 1.22.98 2.2 2.2 2.2 1.24 0 2.23-.98 2.23-2.2"/></g><g><path fill="#f4900c" d="M9 5c0-.55-.45-1-1-1s-1 .45-1 1 .45 1 1 1 1-.45 1-1"/></g><path fill="#66757f" d="M14 21h-3v2h3v-2z"/><g><path fill="#5c913b" d="M16 7.25c-.1 0-.2 0-.28.04-.53.15-.84.7-.68 1.23l2 6.75C17.42 17.2 19.2 21 23 21h10c.55 0 1-.45 1-1s-.45-1-1-1H23c-3.14 0-4-4.15-4.02-4.2l-2.02-6.83c-.13-.44-.53-.72-.96-.72"/></g><g><path fill="#3e721d" d="M2 7c-.04 0-.08 0-.12 0-.55.08-.94.58-.87 1.12l1 8c.08.55.58.94 1.12.87.55-.08.94-.58.87-1.12l-1-8C2.92 7.38 2.5 7 2 7"/></g></g></g></g></svg>