<svg xmlns="http://www.w3.org/2000/svg" viewBox="0 0 45 45" enable-background="new 0 0 45 45"><defs><clipPath id="a"><path d="M0 36h36V0H0v36z"/></clipPath></defs><g><g><g clip-path="url(#a)" transform="matrix(1.25 0 0 -1.25 0 45)"><g><path fill="#ccd6dd" d="M35 26c0 1-1 4-4 4H9.4C6 30 0 18 0 15V9c0-2.2 1.8-4 4-4h28c2.2 0 4 1.8 4 4v10c0 1.03-1 7-1 7"/></g><path fill="#66757f" d="M36 10H0v3h36v-3z"/><g><path fill="#e1e8ed" d="M9 11c-3.27 0-5.92-2.6-6-5.86.33-.08.66-.14 1-.14h11c0 3.3-2.7 6-6 6"/></g><g><path fill="#e1e8ed" d="M33 5.14C32.9 8.4 30.26 11 27 11c-3.3 0-6-2.7-6-6h11c.35 0 .67.06 1 .14"/></g><g><path fill="#99aab5" d="M5.7 10h6.6c-.94.63-2.07 1-3.3 1s-2.37-.37-3.3-1"/></g><g><path fill="#99aab5" d="M23.7 10h6.62c-.95.63-2.1 1-3.32 1-1.22 0-2.36-.37-3.3-1"/></g><g><path fill="#292f33" d="M13 5c0-2.2-1.8-4-4-4S5 2.8 5 5s1.8 4 4 4 4-1.8 4-4"/></g><g><path fill="#99aab5" d="M11 5c0-1.1-.9-2-2-2s-2 .9-2 2 .9 2 2 2 2-.9 2-2"/></g><g><path fill="#292f33" d="M31 5c0-2.2-1.8-4-4-4s-4 1.8-4 4 1.8 4 4 4 4-1.8 4-4"/></g><g><path fill="#99aab5" d="M29 5c0-1.1-.9-2-2-2s-2 .9-2 2 .9 2 2 2 2-.9 2-2"/></g><g><path fill="#55acee" d="M5 23h6v-7H2l3 7z"/></g><path fill="#55acee" d="M21 16h-8v7h8v-7z"/><g><path fill="#55acee" d="M23 23v-7h13v3c0 .52-.26 2.35-.52 4H23z"/></g><g><path fill="#99aab5" d="M33 25H7c-.55 0-1 .45-1 1s.45 1 1 1h26c.55 0 1-.45 1-1s-.45-1-1-1"/></g></g></g></g></svg>