<svg xmlns="http://www.w3.org/2000/svg" viewBox="0 0 45 45" enable-background="new 0 0 45 45"><defs><clipPath id="a"><path d="M0 36h36V0H0v36z"/></clipPath></defs><g><g><g clip-path="url(#a)" transform="matrix(1.25 0 0 -1.25 0 45)"><g><path fill="#dd2e44" d="M13 4h20s3 0 3 4c0 2 0 6-1 7s-8 7-11 7h-6c-3 0-10-7-10-7l-4-1s-3-1-3-3V8s-1-.34-1-1.96C0 4 2 4 2 4h11z"/></g><g><path fill="#bbddf5" d="M20 20h-2c-2 0-8-6-8-6s5 .26 10 .52V20z"/></g><g><path fill="#bbddf5" d="M30 17c-1 1-5 3-7 3h-1v-5.38c4 .2 7.58.38 8 .38 1 0 1 1 0 2"/></g><g><path fill="#292f33" d="M14 5c0-2.2-1.8-4-4-4S6 2.8 6 5s1.8 4 4 4 4-1.8 4-4"/></g><g><path fill="#ccd6dd" d="M12 5c0-1.1-.9-2-2-2s-2 .9-2 2 .9 2 2 2 2-.9 2-2"/></g><g><path fill="#292f33" d="M31 5c0-2.2-1.8-4-4-4s-4 1.8-4 4 1.8 4 4 4 4-1.8 4-4"/></g><g><path fill="#ccd6dd" d="M29 5c0-1.1-.9-2-2-2s-2 .9-2 2 .9 2 2 2 2-.9 2-2"/></g></g></g></g></svg>