<svg xmlns="http://www.w3.org/2000/svg" viewBox="0 0 45 45" enable-background="new 0 0 45 45"><defs><clipPath id="a"><path d="M0 36h36V0H0v36z"/></clipPath></defs><g><path fill="#6d6e71" d="M0 35h45v-5H0v5z"/><path fill="#939598" d="M0 32.5h45v-5H0v5z"/><path fill="#939598" d="M7.5 45h5V35h-5v10z"/><path fill="#939598" d="M20 45h5V35h-5v10z"/><path fill="#939598" d="M32.5 45h5V35h-5v10z"/><path fill="#6d6e71" d="M12.5 37.5h-5v-3.75h5v3.75z"/><path fill="#6d6e71" d="M25 37.5h-5v-3.75h5v3.75z"/><path fill="#6d6e71" d="M37.5 37.5h-5v-3.75h5v3.75z"/><g><g clip-path="url(#a)" transform="matrix(1.25 0 0 -1.25 0 45)"><g><path fill="#bcbec0" d="M36 36h-6c-1.1 0-2-.9-2-2v-2c0-1.1.9-2 2-2h6v6z"/></g><g><path fill="#d1d3d4" d="M36 16v-5H18c-3 0-7 5-7 5h25z"/></g><g><path fill="#bcbec0" d="M11 16s.75-.94 1.84-2H36v2H11z"/></g><g><path fill="#e6e7e8" d="M36 16H10c-3 0-7 3-7 6 0 5 16 12 18 12h15V16z"/></g><g><path fill="#5c913b" d="M3.74 24c-.46-.7-.74-1.36-.74-2 0-1.65 1.22-3.3 2.82-4.46C21.22 22 36 22 36 22v2H3.74z"/></g><g><path fill="#55acee" d="M21 32h-5.55c-3.33-1.52-7.35-3.74-9.9-6H21c1.1 0 2 .9 2 2v2c0 1.1-.9 2-2 2"/></g><g><path fill="#55acee" d="M26 27c0-.55-.45-1-1-1s-1 .45-1 1v4c0 .55.45 1 1 1s1-.45 1-1v-4z"/></g><g><path fill="#55acee" d="M34 27c0-.55-.45-1-1-1h-4c-.55 0-1 .45-1 1v4c0 .55.45 1 1 1h4c.55 0 1-.45 1-1v-4z"/></g></g></g></g></svg>