<svg xmlns="http://www.w3.org/2000/svg" viewBox="0 0 45 45" enable-background="new 0 0 45 45"><defs><clipPath id="a"><path d="M0 36h36V0H0v36z"/></clipPath></defs><g><g><g clip-path="url(#a)" transform="matrix(1.25 0 0 -1.25 0 45)"><g><path fill="#99aab5" d="M31 11H11v1c0 2.2-1.8 4-4 4H4c-2.2 0-4-1.8-4-4V9c0-2.2 1.8-4 4-4h28c2.2 0 4 1.8 4 4v2h-5z"/></g><g><path fill="#ffcc4d" d="M10 24H7.15C4 24 3 22 3 22l-3-5.96V11h13v10c0 1.66-1.34 3-3 3"/></g><g><path fill="#55acee" d="M9 16H2l2 4s1 2 3 2h2v-6z"/></g><g><path fill="#292f33" d="M10 5c0-2.2-1.8-4-4-4S2 2.8 2 5s1.8 4 4 4 4-1.8 4-4"/></g><g><path fill="#ccd6dd" d="M8 5c0-1.1-.9-2-2-2s-2 .9-2 2 .9 2 2 2 2-.9 2-2"/></g><g><path fill="#292f33" d="M34 5c0-2.2-1.8-4-4-4s-4 1.8-4 4 1.8 4 4 4 4-1.8 4-4"/></g><g><path fill="#ccd6dd" d="M32 5c0-1.1-.9-2-2-2s-2 .9-2 2 .9 2 2 2 2-.9 2-2"/></g><g><path fill="#292f33" d="M24 5c0-2.2-1.8-4-4-4s-4 1.8-4 4 1.8 4 4 4 4-1.8 4-4"/></g><g><path fill="#ccd6dd" d="M22 5c0-1.1-.9-2-2-2s-2 .9-2 2 .9 2 2 2 2-.9 2-2"/></g><g><path fill="#77b255" d="M32 28H19c-2.2 0-4-1.8-4-4V11h21v13c0 2.2-1.8 4-4 4"/></g></g></g></g></svg>