<svg xmlns="http://www.w3.org/2000/svg" viewBox="0 0 45 45" enable-background="new 0 0 45 45"><defs><clipPath id="a"><path d="M0 36h36V0H0v36z"/></clipPath></defs><g><g><g clip-path="url(#a)" transform="matrix(1.25 0 0 -1.25 0 45)"><g><path fill="#66757f" d="M34 3c0-1.1-.9-2-2-2h-3c-1.1 0-2 .9-2 2v8c0 1.1.9 2 2 2h3c1.1 0 2-.9 2-2V3z"/></g><g><path fill="#66757f" d="M9 3c0-1.1-.9-2-2-2H4c-1.1 0-2 .9-2 2v8c0 1.1.9 2 2 2h3c1.1 0 2-.9 2-2V3z"/></g><g><path fill="#66757f" d="M5 20.5c0-.83-.67-1.5-1.5-1.5h-2c-.83 0-1.5.67-1.5 1.5S.67 22 1.5 22h2c.83 0 1.5-.67 1.5-1.5"/></g><g><path fill="#66757f" d="M31 20.5c0-.83.67-1.5 1.5-1.5h2c.83 0 1.5.67 1.5 1.5s-.67 1.5-1.5 1.5h-2c-.83 0-1.5-.67-1.5-1.5"/></g><g><path fill="#ccd6dd" d="M9 31c4 1 14 1 18 0 3.88-.97 5-11 5-11s2 0 2-4V8s0-3-3-4c-3.9-1.3-8-1-13-1S8.9 2.7 5 4C2 5 2 8 2 8v8s0 4 2 4c0 0 1.12 10.03 5 11"/></g><g><path fill="#292f33" d="M18 15c-5.72 0-11.14.1-16 .28V8s0-3 3-4c3.9-1.3 8-1 13-1s9.1-.3 13 1c3 1 3 4 3 4v7.28C29.14 15.1 23.72 15 18 15"/></g><g><path fill="#55acee" d="M18 21c3.9 0 8.62-.2 12-.56L29 26c-1 3-7 3-11 3S8 29 7 26l-1-5.56c3.38.36 8.1.56 12 .56"/></g><g><path fill="#ccd6dd" d="M12 12c0-1.1-.9-2-2-2H6c-1.1 0-2 .9-2 2s.9 2 2 2h4c1.1 0 2-.9 2-2"/></g><g><path fill="#ccd6dd" d="M24 12c0-1.1.9-2 2-2h4c1.1 0 2 .9 2 2s-.9 2-2 2h-4c-1.1 0-2-.9-2-2"/></g><g><path fill="#66757f" d="M29 7.5c0-.83-.67-1.5-1.5-1.5h-19C7.67 6 7 6.67 7 7.5S7.67 9 8.5 9h19c.83 0 1.5-.67 1.5-1.5"/></g><g><path fill="#99aab5" d="M12 15c-.15 0-.3.03-.45.1l-6 3c-.5.25-.7.85-.44 1.35.25.5.85.7 1.35.44l6-3c.5-.25.7-.85.45-1.35-.18-.35-.53-.55-.9-.55"/></g><g><path fill="#99aab5" d="M24 15c-.37 0-.72.2-.9.55-.24.5-.04 1.1.45 1.35l6 3c.5.24 1.1.04 1.34-.45.24-.5.04-1.1-.45-1.35l-6-3c-.15-.07-.3-.1-.45-.1"/></g><g><path fill="#dd2e44" d="M18 32.5c0-.83-.67-1.5-1.5-1.5h-7c-.83 0-1.5.67-1.5 1.5S8.67 34 9.5 34h7c.83 0 1.5-.67 1.5-1.5"/></g><g><path fill="#55acee" d="M28 32.5c0-.83-.67-1.5-1.5-1.5h-7c-.83 0-1.5.67-1.5 1.5s.67 1.5 1.5 1.5h7c.83 0 1.5-.67 1.5-1.5"/></g><path fill="#f5f8fa" d="M20 31h-4v3h4v-3z"/></g></g></g></svg>