<svg xmlns="http://www.w3.org/2000/svg" viewBox="0 0 45 45" enable-background="new 0 0 45 45"><defs><clipPath id="a"><path d="M0 36h36V0H0v36z"/></clipPath></defs><g><g><g clip-path="url(#a)" transform="matrix(1.25 0 0 -1.25 0 45)"><g><path fill="#292f33" d="M36 12c0-.55-.45-1-1-1h-1c-.55 0-1 .45-1 1v6c0 .55.45 1 1 1h1c.55 0 1-.45 1-1v-6z"/></g><g><path fill="#3b88c3" d="M5 5h26c1 0 3 1 3 4 0 2 0 8-1 9s0 7-4 7H15c-3 0-6-7-6-7l-4-1s-4-1-4-4v-3s-1-.34-1-1.96C0 6.42 1 6 1 6l4-1z"/></g><g><path fill="#292f33" d="M13 5c0-2.2-1.8-4-4-4S5 2.8 5 5s1.8 4 4 4 4-1.8 4-4"/></g><g><path fill="#ccd6dd" d="M11 5c0-1.1-.9-2-2-2s-2 .9-2 2 .9 2 2 2 2-.9 2-2"/></g><g><path fill="#292f33" d="M31 5c0-2.2-1.8-4-4-4s-4 1.8-4 4 1.8 4 4 4 4-1.8 4-4"/></g><g><path fill="#ccd6dd" d="M29 5c0-1.1-.9-2-2-2s-2 .9-2 2 .9 2 2 2 2-.9 2-2"/></g><g><path fill="#bbddf5" d="M24 19c0-.55.45-1 1-1h4c.55 0 1 .45 1 1v3c0 .55-.45 1-1 1h-4c-.55 0-1-.45-1-1v-3z"/></g><g><path fill="#bbddf5" d="M13 19c0-1 .45-1 1-1h7c.55 0 1 .45 1 1v3c0 .55-.45 1-1 1h-5c-1 0-3-3-3-4"/></g><g><path fill="#55acee" d="M32 12.5c0-.83-.67-1.5-1.5-1.5h-22c-.83 0-1.5.67-1.5 1.5S7.67 14 8.5 14h22c.83 0 1.5-.67 1.5-1.5"/></g></g></g></g></svg>