<svg xmlns="http://www.w3.org/2000/svg" viewBox="0 0 45 45" enable-background="new 0 0 45 45"><defs><clipPath id="a"><path d="M0 36h36V0H0v36z"/></clipPath></defs><g><g><g clip-path="url(#a)" transform="matrix(1.25 0 0 -1.25 0 45)"><g><path fill="#ccd6dd" d="M21.38 20.55c.1-.8-.83-1.5-2.06-1.5-1.22-.03-2.1.62-1.94 1.45l.35 2c.15.83.94 1.5 1.77 1.5.83 0 1.57-.66 1.66-1.48l.22-1.97z"/></g><g><path fill="#ffcc4d" d="M32.25 15h-.14l-.43 3c-.33 2.2-1.87 4-3.44 4H16.16c-1.57 0-3.57-1.8-4.48-4l-1.22-3H6.9c-2.06 0-4.1-1.8-4.53-4L1.8 8c-.02 0-.02 0-.02-.02C.78 7.88 0 7.03 0 6c0-1.1.9-2 2-2h30c2.2 0 4 1.8 4 4v3c0 2.2-1.68 4-3.75 4"/></g><g><path fill="#292f33" d="M14 5c0-2.2-1.8-4-4-4S6 2.8 6 5s1.8 4 4 4 4-1.8 4-4"/></g><g><path fill="#ccd6dd" d="M12 5c0-1.1-.9-2-2-2s-2 .9-2 2 .9 2 2 2 2-.9 2-2"/></g><g><path fill="#292f33" d="M31 5c0-2.2-1.8-4-4-4s-4 1.8-4 4 1.8 4 4 4 4-1.8 4-4"/></g><g><path fill="#ccd6dd" d="M29 5c0-1.1-.9-2-2-2s-2 .9-2 2 .9 2 2 2 2-.9 2-2"/></g><g><path fill="#f4900c" d="M2.37 11l-.2-1H36v1c0 .35-.05.68-.13 1H2.7c-.14-.32-.26-.65-.33-1"/></g><g><path fill="#55acee" d="M24 15h5.92c0 .42-.06.9-.16 1.5-.4 2.5-.55 3.5-3.43 3.5H24v-5z"/></g><g><path fill="#55acee" d="M22 20h-5c-1.6 0-3.24-1.57-3.85-3.5-.2-.6-.35-1.1-.47-1.5H22v5z"/></g></g></g></g></svg>