<svg xmlns="http://www.w3.org/2000/svg" viewBox="0 0 45 45" enable-background="new 0 0 45 45"><defs><clipPath id="a"><path d="M0 36h36V0H0v36z"/></clipPath></defs><g><g><g clip-path="url(#a)" transform="matrix(1.25 0 0 -1.25 0 45)"><g><path fill="#292f33" d="M34 3c0-1.1-.9-2-2-2h-3c-1.1 0-2 .9-2 2v8c0 1.1.9 2 2 2h3c1.1 0 2-.9 2-2V3z"/></g><g><path fill="#292f33" d="M9 3c0-1.1-.9-2-2-2H4c-1.1 0-2 .9-2 2v8c0 1.1.9 2 2 2h3c1.1 0 2-.9 2-2V3z"/></g><g><path fill="#ffcc4d" d="M9 31c4 1 14 1 18 0 3.88-.97 5-11 5-11s2 0 2-4V8s.12-4-4-4H6C1.88 4 2 8 2 8v8s0 4 2 4c0 0 1.12 10.03 5 11"/></g><g><path fill="#55acee" d="M18 21c3.9 0 8.62-.2 12-.56L29 26c-1 3-7 3-11 3S8 29 7 26l-1-5.56c3.38.36 8.1.56 12 .56"/></g><g><path fill="#ffcc4d" d="M5 20.5c0-.83-.67-1.5-1.5-1.5h-2c-.83 0-1.5.67-1.5 1.5S.67 22 1.5 22h2c.83 0 1.5-.67 1.5-1.5"/></g><g><path fill="#ffcc4d" d="M31 20.5c0-.83.67-1.5 1.5-1.5h2c.83 0 1.5.67 1.5 1.5s-.67 1.5-1.5 1.5h-2c-.83 0-1.5-.67-1.5-1.5"/></g><g><path fill="#ffcc4d" d="M11 13c0-1.66-1.34-3-3-3H7c-1.66 0-3 1.34-3 3s1.34 3 3 3h1c1.66 0 3-1.34 3-3"/></g><g><path fill="#ffcc4d" d="M32 13c0-1.66-1.34-3-3-3h-1c-1.66 0-3 1.34-3 3s1.34 3 3 3h1c1.66 0 3-1.34 3-3"/></g><g><path fill="#ffac33" d="M25 14H11c-2.46 0-4.5 3.34-4.87 4-.27.48-.1 1.1.37 1.37.48.27 1.1.1 1.37-.37.7-1.2 2.17-3 3.13-3h14c.98 0 2.46 1.65 3.15 2.77.3.47.9.62 1.37.33.47-.3.62-.9.33-1.37C29.62 17.33 27.5 14 25 14"/></g><path fill="#f4900c" d="M6 8H2v4h4V8z"/><path fill="#f4900c" d="M34 8h-4v4h4V8z"/><g><path fill="#fff" d="M10 10c0-1.1-.9-2-2-2H6c-1.1 0-2 .9-2 2s.9 2 2 2h2c1.1 0 2-.9 2-2"/></g><g><path fill="#fff" d="M32 10c0 1.1-.9 2-2 2h-2c-1.1 0-2-.9-2-2s.9-2 2-2h2c1.1 0 2 .9 2 2"/></g><g><path fill="#66757f" d="M25 10c0-1.1-.9-2-2-2H13c-1.1 0-2 .9-2 2s.9 2 2 2h10c1.1 0 2-.9 2-2"/></g><g><path fill="#ffe8b6" d="M22 34h-8c-1.66 0-3-1.34-3-3h14c0 1.66-1.34 3-3 3"/></g><path fill="#ccd6dd" d="M22 31h-8v2h8v-2z"/><path fill="#99aab5" d="M20 31h-4v1h4v-1z"/></g></g></g></svg>