<svg xmlns="http://www.w3.org/2000/svg" viewBox="0 0 45 45" enable-background="new 0 0 45 45"><defs><clipPath id="a"><path d="M0 36h36V0H0v36z"/></clipPath></defs><g><g><g clip-path="url(#a)" transform="matrix(1.25 0 0 -1.25 0 45)"><g><path fill="#d1d3d4" d="M0 1h36v25s-6 10-9 10-10-9-12-11-4.5-.5-6 1-3 3-4 3-5-7-5-7V1z"/></g><path fill="#939598" d="M36 0H0v2h36V0z"/><g><path fill="#58595b" d="M14 4c0 1.66-1.34 3-3 3S8 5.66 8 4s1.34-3 3-3 3 1.34 3 3"/></g><g><path fill="#292f33" d="M13 4c0 1.1-.9 2-2 2s-2-.9-2-2 .9-2 2-2 2 .9 2 2"/></g><g><path fill="#58595b" d="M22 4c0 1.66-1.34 3-3 3s-3-1.34-3-3 1.34-3 3-3 3 1.34 3 3"/></g><g><path fill="#292f33" d="M21 4c0 1.1-.9 2-2 2s-2-.9-2-2 .9-2 2-2 2 .9 2 2"/></g><g><path fill="#ffe8b6" d="M36 22H7c-2.2 0-4-1.8-4-4V8c0-2.2 1.8-4 4-4h29v18z"/></g><g><path fill="#77b255" d="M36 22H7c-1.48 0-2.75-.8-3.44-2H36v2z"/></g><g><path fill="#5c913b" d="M36 8H3c0-2.2 1.8-4 4-4h29v4z"/></g><path fill="#ffac33" d="M36 10H3V8h33v2z"/><path fill="#55acee" d="M9 12H3v5h6v-5z"/><g><path fill="#55acee" d="M15 14c0-.55-.45-1-1-1h-2c-.55 0-1 .45-1 1v2c0 .55.45 1 1 1h2c.55 0 1-.45 1-1v-2z"/></g><g><path fill="#55acee" d="M20 14c0-.55-.45-1-1-1h-2c-.55 0-1 .45-1 1v2c0 .55.45 1 1 1h2c.55 0 1-.45 1-1v-2z"/></g><g><path fill="#55acee" d="M27 14c0-.55-.45-1-1-1h-2c-.55 0-1 .45-1 1v2c0 .55.45 1 1 1h2c.55 0 1-.45 1-1v-2z"/></g><g><path fill="#55acee" d="M34 14c0-.55-.45-1-1-1h-2c-.55 0-1 .45-1 1v2c0 .55.45 1 1 1h2c.55 0 1-.45 1-1v-2z"/></g><g><path fill="#66757f" d="M22.5 18c-.28 0-.5-.22-.5-.5v-10c0-.28.23-.5.5-.5h5c.28 0 .5.23.5.5v10c0 .28-.22.5-.5.5h-5zm5-12h-5c-.83 0-1.5.67-1.5 1.5v10c0 .83.67 1.5 1.5 1.5h5c.83 0 1.5-.67 1.5-1.5v-10c0-.83-.67-1.5-1.5-1.5"/></g></g></g></g></svg>