<svg xmlns="http://www.w3.org/2000/svg" viewBox="0 0 45 45" enable-background="new 0 0 45 45"><defs><clipPath id="a"><path d="M0 36h36V0H0v36z"/></clipPath></defs><g><g><g clip-path="url(#a)" transform="matrix(1.25 0 0 -1.25 0 45)"><g><path fill="#ccd6dd" d="M35 24c0 1-1 4-4 4H9.4c-1.38 0-3.3-1.8-4.3-4L2 19c-1.45-.6-2-2.33-2-4V9c0-2.2 1.8-4 4-4h28c2.2 0 4 1.8 4 4v8c0 1.03-1 7-1 7"/></g><g><path fill="#e1e8ed" d="M9 11c-3.27 0-5.92-2.6-6-5.86.33-.08.66-.14 1-.14h11c0 3.3-2.7 6-6 6"/></g><g><path fill="#e1e8ed" d="M33 5.14C32.9 8.4 30.26 11 27 11c-3.3 0-6-2.7-6-6h11c.35 0 .67.06 1 .14"/></g><g><path fill="#292f33" d="M13 5c0-2.2-1.8-4-4-4S5 2.8 5 5s1.8 4 4 4 4-1.8 4-4"/></g><g><path fill="#99aab5" d="M11 5c0-1.1-.9-2-2-2s-2 .9-2 2 .9 2 2 2 2-.9 2-2"/></g><g><path fill="#292f33" d="M31 5c0-2.2-1.8-4-4-4s-4 1.8-4 4 1.8 4 4 4 4-1.8 4-4"/></g><g><path fill="#99aab5" d="M29 5c0-1.1-.9-2-2-2s-2 .9-2 2 .9 2 2 2 2-.9 2-2"/></g><path fill="#dd2e44" d="M36 12H0v3h36v-3z"/><g><path fill="#dd2e44" d="M31 23h-3v3h-2v-3h-3v-2h3v-3h2v3h3v2z"/></g><g><path fill="#55acee" d="M8 26h5v-7H4l4 7z"/></g><g><path fill="#dd2e44" d="M15 29.5c0-.83-.67-1.5-1.5-1.5h-2c-.83 0-1.5.67-1.5 1.5s.67 1.5 1.5 1.5h2c.83 0 1.5-.67 1.5-1.5"/></g><g><path fill="#55acee" d="M18 29.5c0-.83-.67-1.5-1.5-1.5h-2c-.83 0-1.5.67-1.5 1.5s.67 1.5 1.5 1.5h2c.83 0 1.5-.67 1.5-1.5"/></g></g></g></g></svg>