<svg xmlns="http://www.w3.org/2000/svg" viewBox="0 0 45 45" enable-background="new 0 0 45 45"><defs><clipPath id="a"><path d="M0 36h36V0H0v36z"/></clipPath></defs><g><g><g clip-path="url(#a)" transform="matrix(1.25 0 0 -1.25 0 45)"><g><path fill="#ccd6dd" d="M35 28H13c-.55 0-1-.45-1-1s.45-1 1-1h2v-2h2v2h2v-2h2v2h2v-2h2v2h2v-2h2v2h2v-2h2v2h2c.55 0 1 .45 1 1s-.45 1-1 1"/></g><g><path fill="#ccd6dd" d="M36 23c0-.55-.45-1-1-1H13c-.55 0-1 .45-1 1s.45 1 1 1h22c.55 0 1-.45 1-1"/></g><g><path fill="#dd2e44" d="M32 22H14s.04 2-2.98 2H5.15C0 24 0 16.04 0 16.04V9c0-2.2 1.8-4 4-4h28c2.2 0 4 1.8 4 4v9c0 2.2-1.8 4-4 4"/></g><path fill="#f5f8fa" d="M34 14H2v-3h32v3z"/><g><path fill="#292f33" d="M11 5c0-2.2-1.8-4-4-4S3 2.8 3 5s1.8 4 4 4 4-1.8 4-4"/></g><g><path fill="#8899a6" d="M9 5c0-1.1-.9-2-2-2s-2 .9-2 2 .9 2 2 2 2-.9 2-2"/></g><g><path fill="#292f33" d="M32 5c0-2.2-1.8-4-4-4s-4 1.8-4 4 1.8 4 4 4 4-1.8 4-4"/></g><g><path fill="#8899a6" d="M30 5c0-1.1-.9-2-2-2s-2 .9-2 2 .9 2 2 2 2-.9 2-2"/></g><g><path fill="#55acee" d="M7 16H2s0 6 3 6h2v-6z"/></g><g><path fill="#55acee" d="M12 16H9v6h1c1 0 2-1 2-2v-4z"/></g><g><path fill="#ffac33" d="M8 25c0-.55-.45-1-1-1H5c-.55 0-1 .45-1 1s.45 1 1 1h2c.55 0 1-.45 1-1"/></g><g><path fill="#3b88c3" d="M10 25c0-.55-.45-1-1-1H7c-.55 0-1 .45-1 1s.45 1 1 1h2c.55 0 1-.45 1-1"/></g></g></g></g></svg>