<svg xmlns="http://www.w3.org/2000/svg" viewBox="0 0 45 45" enable-background="new 0 0 45 45"><defs><clipPath id="a"><path d="M0 36h36V0H0v36z"/></clipPath></defs><g><g><path fill="#58595b" d="M23.75 15V6.25h-2.5V15H17.5v3.75h10V15h-3.75z"/></g><g><g clip-path="url(#a)" transform="matrix(1.25 0 0 -1.25 0 45)"><g><path fill="#6d6e71" d="M33.2 25.02L3.28 33.05c-.53.14-.85.7-.7 1.22.13.53.68.85 1.22.7l29.93-8c.53-.16.85-.7.7-1.24-.14-.53-.68-.85-1.22-.7"/></g><g><path fill="#a7a9ac" d="M23.35 31.64l-1.94.52.27.96-5.8 1.55-.25-.96-1.93.53c-1.08.28-2.18-.35-2.46-1.42-.3-1.06.35-2.15 1.4-2.44l9.67-2.6c1.08-.27 2.18.36 2.46 1.43.3 1.05-.35 2.15-1.4 2.44"/></g><g><path fill="#808285" d="M13.88 31.07c-.3-1.07-1.4-1.7-2.45-1.4-1.07.27-1.7 1.37-1.42 2.43.3 1.07 1.4 1.7 2.46 1.42 1.07-.3 1.7-1.38 1.42-2.45"/></g><g><path fill="#808285" d="M25.47 27.96c-.3-1.06-1.38-1.7-2.45-1.4-1.07.28-1.7 1.37-1.4 2.44.27 1.07 1.37 1.7 2.43 1.4 1.07-.27 1.7-1.37 1.42-2.44"/></g><g><path fill="#dd2e44" d="M6 4c0-2.2 1.8-4 4-4h16c2.2 0 4 1.8 4 4v5H6V4z"/></g><g><path fill="#dd2e44" d="M26 22H10c-1.48 0-2.75-.8-3.44-2h22.9c-.7 1.2-1.98 2-3.46 2"/></g><path fill="#88c9f9" d="M6 9h24v9H6V9z"/><g><path fill="#55acee" d="M6.55 20C6.2 19.4 6 18.73 6 18h24c0 .73-.2 1.4-.56 2H6.54z"/></g><path fill="#231f20" d="M14 9h-2v11h2V9z"/><path fill="#231f20" d="M23 9h-2v11h2V9z"/></g></g></g></svg>