<svg xmlns="http://www.w3.org/2000/svg" viewBox="0 0 45 45" enable-background="new 0 0 45 45"><defs><clipPath id="a"><path d="M0 36h36V0H0v36z"/></clipPath></defs><g><g><g clip-path="url(#a)" transform="matrix(1.25 0 0 -1.25 0 45)"><g><path fill="#bcbec0" d="M34 4h-3v28c0 2.2-1.8 4-4 4H9c-2.2 0-4-1.8-4-4V4H2C.9 4 0 3.1 0 2s.9-2 2-2h32c1.1 0 2 .9 2 2s-.9 2-2 2"/></g><g><path fill="#be1931" d="M29 3c0-1.66-1.34-3-3-3H10C8.34 0 7 1.34 7 3v28c0 1.66 1.34 3 3 3h16c1.66 0 3-1.34 3-3V3z"/></g><g><path fill="#f4900c" d="M14 16.5c0-1.38-1.12-2.5-2.5-2.5S9 15.12 9 16.5s1.12 2.5 2.5 2.5 2.5-1.12 2.5-2.5"/></g><g><path fill="#ffd983" d="M13 16.5c0-.83-.67-1.5-1.5-1.5s-1.5.67-1.5 1.5.67 1.5 1.5 1.5 1.5-.67 1.5-1.5"/></g><g><path fill="#ea596e" d="M26 20h-4c-.55 0-1 .45-1 1s.45 1 1 1h3v7c0 .55.45 1 1 1s1-.45 1-1v-8c0-.55-.45-1-1-1"/></g><g><path fill="#a0041e" d="M20 22c-.55 0-1 .45-1 1v8c0 .55.45 1 1 1h4c.55 0 1-.45 1-1s-.45-1-1-1h-3v-7c0-.55-.45-1-1-1"/></g><g><path fill="#ea596e" d="M16 20h-4c-.55 0-1 .45-1 1s.45 1 1 1h3v7c0 .55.45 1 1 1s1-.45 1-1v-8c0-.55-.45-1-1-1"/></g><g><path fill="#a0041e" d="M10 22c-.55 0-1 .45-1 1v8c0 .55.45 1 1 1h4c.55 0 1-.45 1-1s-.45-1-1-1h-3v-7c0-.55-.45-1-1-1"/></g><g><path fill="#ea596e" d="M26 2h-4c-.55 0-1 .45-1 1s.45 1 1 1h3v6c0 .55.45 1 1 1s1-.45 1-1V3c0-.55-.45-1-1-1"/></g><g><path fill="#a0041e" d="M20 4c-.55 0-1 .45-1 1v7c0 .55.45 1 1 1h4c.55 0 1-.45 1-1s-.45-1-1-1h-3V5c0-.55-.45-1-1-1"/></g><g><path fill="#ea596e" d="M16 2h-4c-.55 0-1 .45-1 1s.45 1 1 1h3v6c0 .55.45 1 1 1s1-.45 1-1V3c0-.55-.45-1-1-1"/></g><g><path fill="#a0041e" d="M10 4c-.55 0-1 .45-1 1v7c0 .55.45 1 1 1h4c.55 0 1-.45 1-1s-.45-1-1-1h-3V5c0-.55-.45-1-1-1"/></g></g></g></g></svg>