<svg xmlns="http://www.w3.org/2000/svg" viewBox="0 0 45 45" enable-background="new 0 0 45 45"><defs><clipPath id="a"><path d="M0 36h36V0H0v36z"/></clipPath><clipPath id="b"><path d="M8 33H4c-2.2 0-4-1.8-4-4v-8c0-2.2 1.8-4 4-4h28c2.2 0 4 1.8 4 4v8c0 2.2-1.8 4-4 4H8z"/></clipPath><clipPath id="c"><path d="M0 36h36V0H0v36z"/></clipPath></defs><g><g><g clip-path="url(#a)" transform="matrix(1.25 0 0 -1.25 0 45)"><g><path fill="#ffcc4d" d="M36 21c0-2.2-1.8-4-4-4H4c-2.2 0-4 1.8-4 4v8c0 2.2 1.8 4 4 4h28c2.2 0 4-1.8 4-4v-8z"/></g></g></g><g><g clip-path="url(#b)" transform="matrix(1.25 0 0 -1.25 0 45)"><g><path fill="#292f33" d="M2 34l-18-18h5L7 34H2z"/></g><g><path fill="#292f33" d="M13 34L-5 16h5l18 18h-5z"/></g><g><path fill="#292f33" d="M24 34L6 16h5l18 18h-5z"/></g><g><path fill="#292f33" d="M35 34L17 16h5l18 18h-5z"/></g><g><path fill="#292f33" d="M46 34L28 16h5l18 18h-5z"/></g></g></g><g><g fill="#99aab5" clip-path="url(#c)" transform="matrix(1.25 0 0 -1.25 0 45)"><path d="M9 3H4v14h5V3z"/><path d="M32 3h-5v14h5V3z"/></g></g></g></svg>