<svg xmlns="http://www.w3.org/2000/svg" viewBox="0 0 45 45" enable-background="new 0 0 45 45"><defs><clipPath id="a"><path d="M0 36h36V0H0v36z"/></clipPath></defs><g><g><g clip-path="url(#a)" transform="matrix(1.25 0 0 -1.25 0 45)"><g><path d="M35 18c0 9.4-7.6 17-17 17S1 27.4 1 18 8.6 1 18 1s17 7.6 17 17"/></g><g><path fill="#fff" d="M23.7 19c-.42 0-.75.26-.75.67 0 .22.1 2.15 2.93 4.04 1.48 1 1.8 2.63 1.45 3.74-.32 1.04-1.16 1.63-2.33 1.63-1.77 0-2.26-.96-2.4-1.53-.16-.7.05-1.18.28-1.37.32-.28.8-.22 1.07-.05.2.13.3.33.3.6 0 .43.34.76.75.76.42 0 .75-.34.75-.75 0-.8-.37-1.5-1-1.88-.73-.45-1.84-.4-2.57 0-.88.5-1.34 1.74-1.03 3.03.4 1.68 1.83 2.68 3.85 2.68 1.85 0 3.25-1 3.77-2.7.6-2-.25-4.22-2.06-5.43-2.16-1.45-2.24-2.72-2.25-2.78 0-.4-.35-.65-.75-.65"/></g><g><path fill="#fff" d="M22 17H6s-2 0-2-2v-1c0-2 2-2 2-2h16v5z"/></g><g><path fill="#fff" d="M27 17h-3v-5h3s2 0 2 2v1c0 2-2 2-2 2"/></g><g><path fill="#dd2e44" d="M2 18c0 3.97 1.45 7.6 3.84 10.4L28.4 5.83C25.6 3.44 21.96 2 18 2 9.16 2 2 9.16 2 18m32 0c0-3.97-1.45-7.6-3.85-10.4L7.62 30.16C10.4 32.55 14.04 34 18 34c8.84 0 16-7.16 16-16M18 36C8.06 36 0 27.94 0 18S8.06 0 18 0s18 8.06 18 18-8.06 18-18 18"/></g></g></g></g></svg>