<svg xmlns="http://www.w3.org/2000/svg" viewBox="0 0 45 45" enable-background="new 0 0 45 45"><defs><clipPath id="a"><path d="M0 36h36V0H0v36z"/></clipPath></defs><g><g><g clip-path="url(#a)" transform="matrix(1.25 0 0 -1.25 0 45)"><g><path fill="#3b88c3" d="M0 32c0 4 4 4 4 4h28s4 0 4-4V4s0-4-4-4H4S0 0 0 4v28z"/></g><g><path fill="#fff" d="M26 28.5c0-1.93-1.34-3.5-3-3.5s-3 1.57-3 3.5 1.34 3.5 3 3.5 3-1.57 3-3.5"/></g><g><path fill="#fff" d="M29 23s0 2-2 2h-7c-1 0-2-1-2-1l-2-2h-4s-1 0-1-1 1-1 1-1h5l2 2V5s0-1 1-1h1s1 0 1 1v8s0 1 1 1 1-1 1-1V5s0-1 1-1h1s1 0 1 1v9s2 0 2 2v7z"/></g><g><path fill="#fff" d="M6 14s-1 0-1 1 1 1 1 1 2 0 2-2V6h6v8c0 2 2 2 2 2s1 0 1-1-1-1-1-1V6s0-2-2-2H8S6 4 6 6v8z"/></g><g><path fill="#fff" d="M13 16c0-1.1-.9-2-2-2s-2 .9-2 2 .9 2 2 2 2-.9 2-2"/></g></g></g></g></svg>