<svg xmlns="http://www.w3.org/2000/svg" viewBox="0 0 45 45" enable-background="new 0 0 45 45"><defs><clipPath id="a"><path d="M0 36h36V0H0v36z"/></clipPath></defs><g><g><path fill="#5c913b" d="M41.25 33.75h-2.5l1.25-10h2.5l-1.25 10z"/></g><g><g clip-path="url(#a)" transform="matrix(1.25 0 0 -1.25 0 45)"><g><path fill="#dd2e44" d="M1 22c9.05-.05 11-1 17-2 2.96-.5 7-1 11-1 2 0 4-1 4-4 0-2 .53-3.2-5.43-3.8C23.6 10.76 13 13 9 15c-6 3-9 7-8 7"/></g><path fill="#55acee" d="M36 12H0V0h36v12z"/><g><path fill="#ffcc4d" d="M5 23c4 0 11 0 18-1s10-1 10-3v-3c0-1.4-6.87-.45-10 0-7 1-14 3-18 4-4.05 1-7 3 0 3"/></g><g><path fill="#a0041e" d="M30.6 11.68c2.1.54 2.4 1.3 2.4 2.36-1.25-.62-3.7-.32-5.88-.05-7.96 1-16.48 2.93-24.72 5.6 1.05-1.04 2.6-2.3 4.57-3.48 6.7-1.9 13.48-3.3 19.9-4.1 1.26-.17 2.54-.32 3.72-.34"/></g><g><path fill="#55acee" d="M12 12c3 2 7 5 6 3s-1-3 1-2 5 2 4 0 2-1 3 0 4 0 3-1-9-2-12-2-5 2-5 2"/></g><g><path fill="#5c913b" d="M34 20h-1c-1.1 0-2-.9-2-2h1c.55 0 1-.45 1-1v-1h1c1.1 0 2-.1 2 1s-.9 3-2 3"/></g><g><path fill="#c1694f" d="M30 20c.97-.24 0-2-1-3s-10 1-10 1l2 3s5 0 9-1"/></g><g><path fill="#a0041e" d="M29 17c.33.33.65.74.9 1.15-1.47.76-3.63 1.38-6.08 1.66-1.25.15-2.44.2-3.53.14L19 18s9-2 10-1"/></g><g><path fill="#55acee" d="M21 21v1l-4-1-2-2 4-1 2 3z"/></g><g><path fill="#292f33" d="M23 22c-.55 0-1-1.34-1-3 0-.6.06-1.18.17-1.66.5-.12 1.03-.22 1.6-.27.14.52.23 1.2.23 1.93 0 1.66-.45 3-1 3"/></g></g></g></g></svg>