<svg xmlns="http://www.w3.org/2000/svg" viewBox="0 0 45 45" enable-background="new 0 0 45 45"><defs><clipPath id="a"><path d="M0 36h36V0H0v36z"/></clipPath></defs><g><g><path fill="#58595b" d="M23.75 15V6.25h-2.5V15H15v6.25h15V15h-6.25z"/></g><g><g clip-path="url(#a)" transform="matrix(1.25 0 0 -1.25 0 45)"><g><path fill="#ffd983" d="M34 8v10c0 2.2-1.8 4-4 4H6c-2.2 0-4-1.8-4-4V8h32z"/></g><g><path fill="#269" d="M2 14V8c0-4.42 3.58-8 8-8h16c4.42 0 8 3.58 8 8v6H2z"/></g><path fill="#88c9f9" d="M8 9H2v9h6V9z"/><path fill="#88c9f9" d="M17 9h-7v9h7V9z"/><path fill="#88c9f9" d="M26 9h-7v9h7V9z"/><path fill="#88c9f9" d="M34 9h-6v9h6V9z"/><g><path fill="#6d6e71" d="M33.2 25.02L3.28 33.05c-.53.14-.85.7-.7 1.22.13.53.68.85 1.22.7l29.93-8c.53-.16.85-.7.7-1.24-.14-.53-.68-.85-1.22-.7"/></g><g><path fill="#a7a9ac" d="M23.35 31.64l-1.94.52.27.96-5.8 1.55-.25-.96-1.93.53c-1.08.28-2.18-.35-2.46-1.42-.3-1.06.35-2.15 1.4-2.44l9.67-2.6c1.08-.27 2.18.36 2.46 1.43.3 1.05-.35 2.15-1.4 2.44"/></g><g><path fill="#808285" d="M13.88 31.07c-.3-1.07-1.4-1.7-2.45-1.4-1.07.27-1.7 1.37-1.42 2.43.3 1.07 1.4 1.7 2.46 1.42 1.07-.3 1.7-1.38 1.42-2.45"/></g><g><path fill="#808285" d="M25.47 27.96c-.3-1.06-1.38-1.7-2.45-1.4-1.07.28-1.7 1.37-1.4 2.44.27 1.07 1.37 1.7 2.43 1.4 1.07-.27 1.7-1.37 1.42-2.44"/></g><path fill="#55acee" d="M8 16H2v2h6v-2z"/><path fill="#55acee" d="M17 16h-7v2h7v-2z"/><path fill="#55acee" d="M26 16h-7v2h7v-2z"/><path fill="#55acee" d="M34 16h-6v2h6v-2z"/></g></g></g></svg>