<svg xmlns="http://www.w3.org/2000/svg" viewBox="0 0 45 45" enable-background="new 0 0 45 45"><defs><clipPath id="a"><path d="M0 36h36V0H0v36z"/></clipPath></defs><g><g><g clip-path="url(#a)" transform="matrix(1.25 0 0 -1.25 0 45)"><g><path fill="#7c533e" d="M19 22.18l1.23 1.4c.95-.9 2.46-1.48 2.96-1.15.55.35 1.9-.9.8-1.62-1.1-.7-1.42.02-2.3.28-1.04.3-1.62.54-2.7 1.1"/></g><g><path fill="#7c533e" d="M16.63 25.2c.15 1.06 1.13 1.4.87 2.3-.63 2.2 2.54.58 2.54.58.6-.3-1.15-2.12-1.15-2.12s-.6.3-.76-.76c-.15-1.05-1.66-1.05-1.5 0"/></g><g><path d="M15.36 20.13l3.08-1.16-1.16-3.1S12.73 16.9 12.03 18c-.7 1.1.6 2.73.6 2.73l2.73-.6z"/></g><g><path fill="#c1694f" d="M2 19h32s0-2-1-7c-.86-4.3-21-1-24.6 0-3.08.86-6.4 7-6.4 7"/></g><g><path fill="#f4900c" d="M35 18c0-.55-.45-1-1-1H2c-.55 0-1 .45-1 1s.45 1 1 1h32c.55 0 1-.45 1-1"/></g><path fill="#55acee" d="M36 12H0V0h36v12z"/><g><path fill="#ffac33" d="M12 9c-.26 0-.5.1-.7.3-.4.38-.4 1.02 0 1.4l11 11c.38.4 1.02.4 1.4 0 .4-.38.4-1.02 0-1.4l-11-11c-.2-.2-.44-.3-.7-.3"/></g><g><path fill="#ffcc4d" d="M11 7c-.5 0-1.02.2-1.4.6-.8.77-.8 2.03 0 2.8l3 3c.77.8 2.03.8 2.8 0 .8-.77.8-2.03 0-2.8l-3-3c-.38-.4-.9-.6-1.4-.6"/></g><g><path fill="#7c533e" d="M18.6 30.13c1.22-.03 2.17-1.03 2.14-2.24-.03-1.2-1.03-2.16-2.24-2.13-1.2.03-2.15 1.03-2.12 2.23.03 1.2 1.03 2.16 2.23 2.13"/></g><g><path fill="#0b0200" d="M14.12 27.52c.56.03 1.1.1 2.05 1.3.63.8 1.2 1.32 2.65 1.3 1.53 0 2.8-1.3 1.83-1.96-.43-.28-.8-.15-1.47-.34-1.1-.3-1.25-1.45-2.23-1.7-1.9-.52-3.4 1.37-2.83 1.4"/></g><g><path fill="#9266cc" d="M20.23 23.6s-.56.68-.67.85c-.5.73-.84 1.13-1.57 1.3-1.3.27-2.92-.32-4.23-1.94-.83-1-.95-2.16-2.26-3.78 0 0 4.2-.45 4.76-.1.56.36.76 1.27.96 2.18.2.9.67 1.25 1.04.7.24-.35.73-.62.73-.62l1.23 1.4z"/></g></g></g></g></svg>