<svg xmlns="http://www.w3.org/2000/svg" viewBox="0 0 36 36"><path fill="#BCBEC0" d="M34 32h-3V4c0-2.209-1.791-4-4-4H9C6.791 0 5 1.791 5 4v28H2c-1.104 0-2 .896-2 2s.896 2 2 2h32c1.104 0 2-.896 2-2s-.896-2-2-2z"/><path fill="#BE1931" d="M29 33c0 1.657-1.343 3-3 3H10c-1.657 0-3-1.343-3-3V5c0-1.657 1.343-3 3-3h16c1.657 0 3 1.343 3 3v28z"/><circle fill="#F4900C" cx="11.5" cy="19.5" r="2.5"/><circle fill="#FFD983" cx="11.5" cy="19.5" r="1.5"/><path fill="#EA596E" d="M26 16h-4c-.553 0-1-.448-1-1s.447-1 1-1h3V7c0-.552.447-1 1-1s1 .448 1 1v8c0 .552-.447 1-1 1z"/><path fill="#A0041E" d="M20 14c-.553 0-1-.448-1-1V5c0-.552.447-1 1-1h4c.553 0 1 .448 1 1s-.447 1-1 1h-3v7c0 .552-.447 1-1 1z"/><path fill="#EA596E" d="M16 16h-4c-.552 0-1-.448-1-1s.448-1 1-1h3V7c0-.552.448-1 1-1s1 .448 1 1v8c0 .552-.448 1-1 1z"/><path fill="#A0041E" d="M10 14c-.552 0-1-.448-1-1V5c0-.552.448-1 1-1h4c.552 0 1 .448 1 1s-.448 1-1 1h-3v7c0 .552-.448 1-1 1z"/><path fill="#EA596E" d="M26 34h-4c-.553 0-1-.447-1-1s.447-1 1-1h3v-6c0-.553.447-1 1-1s1 .447 1 1v7c0 .553-.447 1-1 1z"/><path fill="#A0041E" d="M20 32c-.553 0-1-.447-1-1v-7c0-.553.447-1 1-1h4c.553 0 1 .447 1 1s-.447 1-1 1h-3v6c0 .553-.447 1-1 1z"/><path fill="#EA596E" d="M16 34h-4c-.552 0-1-.447-1-1s.448-1 1-1h3v-6c0-.553.448-1 1-1s1 .447 1 1v7c0 .553-.448 1-1 1z"/><path fill="#A0041E" d="M10 32c-.552 0-1-.447-1-1v-7c0-.553.448-1 1-1h4c.552 0 1 .447 1 1s-.448 1-1 1h-3v6c0 .553-.448 1-1 1z"/></svg>