<svg xmlns="http://www.w3.org/2000/svg" viewBox="0 0 45 45" enable-background="new 0 0 45 45"><defs><clipPath id="a"><path d="M0 36h36V0H0v36z"/></clipPath></defs><g><g><g clip-path="url(#a)" transform="matrix(1.25 0 0 -1.25 0 45)"><g><path d="M35 18c0-9.4-7.6-17-17-17S1 8.6 1 18s7.6 17 17 17 17-7.6 17-17"/></g><g><path fill="#fff" d="M23 28.5c0-1.93-1.34-3.5-3-3.5s-3 1.57-3 3.5 1.34 3.5 3 3.5 3-1.57 3-3.5"/></g><g><path fill="#fff" d="M26 23s0 2-2 2h-7c-1 0-2-1-2-1l-2-2H9s-1 0-1-1 1-1 1-1h5l2 1.17V5s0-1 1-1h1s1 0 1 1v8s0 1 1 1 1-1 1-1V5s0-1 1-1h1s1 0 1 1v9s2 0 2 2v7z"/></g><g><path fill="#fff" d="M9.24 16.53c0-.84-.72-1.53-1.62-1.53-.9 0-1.62.7-1.62 1.53 0 .85.73 1.54 1.62 1.54.9 0 1.62-.7 1.62-1.54"/></g><g><path fill="#fff" d="M13.24 13.53c0-.84-.72-1.53-1.62-1.53-.9 0-1.62.7-1.62 1.53 0 .85.73 1.54 1.62 1.54.9 0 1.62-.7 1.62-1.54"/></g><g><path fill="#fff" d="M11.24 9.53c0-.84-.72-1.53-1.62-1.53C8.72 8 8 8.7 8 9.53c0 .85.73 1.54 1.62 1.54.9 0 1.62-.7 1.62-1.54"/></g><g><path fill="#dd2e44" d="M2 18c0 3.97 1.45 7.6 3.85 10.4L28.38 5.83C25.6 3.44 21.96 2 18 2 9.16 2 2 9.16 2 18m32 0c0-3.97-1.45-7.6-3.85-10.4L7.62 30.16C10.4 32.55 14.04 34 18 34c8.84 0 16-7.16 16-16M18 36C8.06 36 0 27.94 0 18S8.06 0 18 0s18 8.06 18 18-8.06 18-18 18"/></g></g></g></g></svg>