<?xml version="1.0" encoding="UTF-8" standalone="no"?><svg xmlns:dc="http://purl.org/dc/elements/1.1/" xmlns:cc="http://creativecommons.org/ns#" xmlns:rdf="http://www.w3.org/1999/02/22-rdf-syntax-ns#" xmlns:svg="http://www.w3.org/2000/svg" xmlns="http://www.w3.org/2000/svg" viewBox="0 0 45 45" style="enable-background:new 0 0 45 45;" xml:space="preserve" version="1.1" id="svg2"><metadata id="metadata8"><rdf:RDF><cc:Work rdf:about=""><dc:format>image/svg+xml</dc:format><dc:type rdf:resource="http://purl.org/dc/dcmitype/StillImage"/></cc:Work></rdf:RDF></metadata><defs id="defs6"><clipPath id="clipPath16" clipPathUnits="userSpaceOnUse"><path id="path18" d="M 0,36 36,36 36,0 0,0 0,36 Z"/></clipPath></defs><g transform="matrix(1.25,0,0,-1.25,0,45)" id="g10"><g id="g12"><g clip-path="url(#clipPath16)" id="g14"><g transform="translate(15.3564,20.1255)" id="g20"><path id="path22" style="fill:#000000;fill-opacity:1;fill-rule:nonzero;stroke:none" d="M 0,0 3.083,-1.158 1.927,-4.242 c 0,0 -4.549,1.004 -5.258,2.114 -0.709,1.11 0.601,2.729 0.601,2.729 L 0,0 Z"/></g><g transform="translate(19.9668,28.8755)" id="g24"><path id="path26" style="fill:#7c533e;fill-opacity:1;fill-rule:nonzero;stroke:none" d="m 0,0 c 0.91,-0.201 0,-1.613 0.278,-2.525 0.191,-0.632 -1.111,-0.71 -1.111,-0.71 0,0 -0.911,0.201 -0.756,-1.265 0.155,-1.463 -1.866,-1.973 -2.02,-0.507 -0.154,1.464 1.045,2.254 0.385,3.394 C -4.802,1.118 0,0 0,0"/></g><g transform="translate(20.6338,23.1836)" id="g28"><path id="path30" style="fill:#77b255;fill-opacity:1;fill-rule:nonzero;stroke:none" d="m 0,0 c 0,0.199 -0.541,0.428 -0.707,0.687 -0.708,1.112 -1.03,1.667 -1.939,1.867 -1.287,0.283 -2.912,-0.308 -4.222,-1.927 -0.829,-1.024 -0.947,-2.175 -2.259,-3.794 0,0 4.199,-0.447 4.754,-0.093 0.556,0.354 0.758,1.265 0.959,2.175 0.2,0.91 0.686,1.264 1.04,0.709 C -2.03,-0.914 0,-1.575 1.075,-1.802 L 0,0 Z"/></g><g transform="translate(18.9883,22.1836)" id="g32"><path id="path34" style="fill:#7c533e;fill-opacity:1;fill-rule:nonzero;stroke:none" d="M 0,0 1.245,1.41 C 2.188,0.482 3.698,-0.082 4.204,0.244 4.76,0.597 6.12,-0.66 5.01,-1.37 3.899,-2.079 2.78,-1.088 1.872,-0.888 1.281,-0.757 0.542,-0.392 0,0"/></g><g transform="translate(19.9668,28.4502)" id="g36"><path id="path38" style="fill:#0b0200;fill-opacity:1;fill-rule:nonzero;stroke:none" d="m 0,0 c 0.808,-0.668 0.57,0.862 0,1.335 -0.806,0.667 -2.418,0.668 -3.224,0 -0.806,-0.667 -0.806,-2.003 0,-2.67 0.57,-0.472 0.806,-1.335 0.806,0 0,1.335 0.807,0 0.807,0.667 C -1.611,0 0,0 0,0"/></g><g transform="translate(2,19)" id="g40"><path id="path42" style="fill:#c1694f;fill-opacity:1;fill-rule:nonzero;stroke:none" d="M 0,0 32,0 C 32,0 32,-2 31,-7 30.14,-11.302 9.999,-8 6.399,-7 3.316,-6.144 0,0 0,0"/></g><g transform="translate(35,18)" id="g44"><path id="path46" style="fill:#f4900c;fill-opacity:1;fill-rule:nonzero;stroke:none" d="m 0,0 c 0,-0.553 -0.447,-1 -1,-1 l -32,0 c -0.552,0 -1,0.447 -1,1 0,0.553 0.448,1 1,1 L -1,1 C -0.447,1 0,0.553 0,0"/></g><path id="path48" style="fill:#55acee;fill-opacity:1;fill-rule:nonzero;stroke:none" d="M 36,12 0,12 0,0 36,0 36,12 Z"/><g transform="translate(11.9995,9)" id="g50"><path id="path52" style="fill:#ffac33;fill-opacity:1;fill-rule:nonzero;stroke:none" d="m 0,0 c -0.256,0 -0.512,0.098 -0.707,0.293 -0.391,0.391 -0.391,1.023 0,1.414 l 11.001,11 c 0.39,0.391 1.023,0.391 1.414,0 0.39,-0.391 0.39,-1.023 0,-1.414 L 0.707,0.293 C 0.512,0.098 0.256,0 0,0"/></g><g transform="translate(10.9995,7)" id="g54"><path id="path56" style="fill:#ffcc4d;fill-opacity:1;fill-rule:nonzero;stroke:none" d="m 0,0 c -0.512,0 -1.024,0.195 -1.414,0.586 -0.781,0.781 -0.781,2.047 0,2.828 l 3,3 c 0.78,0.781 2.048,0.781 2.828,0 0.781,-0.781 0.781,-2.047 0,-2.828 l -3,-3 C 1.024,0.195 0.512,0 0,0"/></g></g></g></g></svg>
