<svg xmlns="http://www.w3.org/2000/svg" viewBox="0 0 45 45" enable-background="new 0 0 45 45"><defs><clipPath id="a"><path d="M0 36h36V0H0v36z"/></clipPath></defs><g><g><g clip-path="url(#a)" transform="matrix(1.25 0 0 -1.25 0 45)"><g><path fill="#292f33" d="M27 4c0-2.2-1.8-4-4-4H13c-2.2 0-4 1.8-4 4v28c0 2.2 1.8 4 4 4h10c2.2 0 4-1.8 4-4V4z"/></g><g><path fill="#77b255" d="M18 11c2.2 0 4-1.8 4-4s-1.8-4-4-4-4 1.8-4 4 1.8 4 4 4"/></g><g><path fill="#ffcc4d" d="M18 22c2.2 0 4-1.8 4-4s-1.8-4-4-4-4 1.8-4 4 1.8 4 4 4"/></g><g><path fill="#dd2e44" d="M18 33c2.2 0 4-1.8 4-4s-1.8-4-4-4-4 1.8-4 4 1.8 4 4 4"/></g></g></g></g></svg>