<svg xmlns="http://www.w3.org/2000/svg" viewBox="0 0 45 45" enable-background="new 0 0 45 45"><defs><clipPath id="a"><path d="M0 36h36V0H0v36z"/></clipPath><clipPath id="b"><path d="M2 15s-2 0-2-2V8c0-2 2-2 2-2h29s2 0 2 2v5c0 2-2 2-2 2H2z"/></clipPath><clipPath id="c"><path d="M0 36h36V0H0v36z"/></clipPath></defs><g><g><g clip-path="url(#a)" transform="matrix(1.25 0 0 -1.25 0 45)"><g><path fill="#d99e82" d="M33 8c0-2-2-2-2-2H2S0 6 0 8v5c0 2 2 2 2 2h29s2 0 2-2V8z"/></g></g></g><g><g clip-path="url(#b)" transform="matrix(1.25 0 0 -1.25 0 45)"><path fill="#e1e8ed" d="M25 0H12v20h13V0z"/><path fill="#66757f" d="M35 2H25v16h10V2z"/></g></g><g><g clip-path="url(#c)" transform="matrix(1.25 0 0 -1.25 0 45)"><g><path fill="#ccd6dd" d="M27.8 16c-.5 0-.93.36-1 .85-.03.2-.65 4.93 4.48 8 2.5 1.5 3.06 4.25 2.53 6.17-.24.9-1.13 2.98-4 2.98-3.15 0-3.97-1.77-4.16-2.56-.28-1.2 0-2.14.63-2.6.64-.47 1.42-.33 1.93 0 .4.23.6.63.6 1.16 0 .55.44 1 1 1 .54 0 1-.45 1-1 0-1.22-.57-2.27-1.55-2.87-1.1-.7-2.82-.54-3.92.07-1.35.76-2.06 2.63-1.6 4.62.63 2.62 2.9 4.18 6.06 4.18 2.9 0 5.18-1.7 5.94-4.45.9-3.2-.53-6.66-3.43-8.4-4-2.4-3.52-5.97-3.52-6 .08-.55-.3-1.06-.84-1.14-.05 0-.1 0-.15 0"/></g></g></g></g></svg>