<svg xmlns="http://www.w3.org/2000/svg" viewBox="0 0 45 45" enable-background="new 0 0 45 45"><defs><clipPath id="a"><path d="M0 36h36V0H0v36z"/></clipPath></defs><g><path fill="#292f33" d="M20 6.25h5V0h-5v6.25z"/><path fill="#d1d3d4" d="M25 7.5h-5v-5h5v5z"/><path fill="#a7a9ac" d="M25 7.5h-2.5v-5H25v5z"/><g><g clip-path="url(#a)" transform="matrix(1.25 0 0 -1.25 0 45)"><g><path fill="#66757f" d="M18 17H5S6.35 9 9.88 3C13.38-3 18 3 18 3s4.6-6 8.13 0C29.64 9 31 17 31 17H18z"/></g><g><path fill="#99aab5" d="M18 17H5S6.35 9 9.88 3C13.38-3 18 3 18 3v14z"/></g><path fill="#55acee" d="M36 6H0V0h36v6z"/><g><path fill="#e6e7e8" d="M30 27h-2.45l-.24 4H8.7l-.25-4H6v-6h2.1l-.25-4h20.3l-.24 4H30v6z"/></g><path fill="#d1d3d4" d="M10 21h16v-4H10v4z"/><path fill="#6d6e71" d="M8 25h20v-2H8v2z"/><path fill="#bcbec0" d="M10 29h16v-2H10v2z"/><g><path fill="#be1931" d="M5.9 13h24.2c.2.75.35 1.43.5 2H5.4c.14-.57.3-1.25.5-2"/></g><g><path fill="#a0041e" d="M18 13h12.1c.2.75.35 1.43.5 2H18v-2z"/></g><path fill="#bcbec0" d="M24 17H12v2h12v-2z"/><path fill="#58595b" d="M18 34h-2v2h2v-2z"/></g></g></g></svg>