<svg xmlns="http://www.w3.org/2000/svg" viewBox="0 0 45 45" enable-background="new 0 0 45 45"><defs><clipPath id="a"><path d="M0 36h36V0H0v36z"/></clipPath></defs><g><g><g clip-path="url(#a)" transform="matrix(1.25 0 0 -1.25 0 45)"><g><path d="M35 18c0-9.4-7.6-17-17-17S1 8.6 1 18s7.6 17 17 17 17-7.6 17-17"/></g><g><path fill="#fff" d="M27 9c-2.42 0-4.44 1.72-4.9 4H27c.12 0 .23.03.34.07.04 0 .07.03.1.04.03.03.07.04.1.06.03.02.05.05.07.07.07.04.12.1.16.14.04.05.07.1.1.15.04.06.06.12.08.18.02.06.03.13.04.2 0 .03.02.06.02.1 0 .03 0 .05-.02.08 0 .07-.02.13-.04.2 0 .06-.04.12-.07.18 0 .03 0 .05-.03.08l-2.62 4.12c.56.2 1.15.34 1.78.34 2.76 0 5-2.24 5-5s-2.24-5-5-5M9 9c-2.76 0-5 2.24-5 5s2.24 5 5 5c.2 0 .4-.04.6-.06l-1.55-4.62c-.17-.53.1-1.1.63-1.27.1-.03.2-.05.32-.05.42 0 .8.27.95.68l1.54 4.63c1.48-.85 2.5-2.45 2.5-4.3 0-2.76-2.24-5-5-5m3.72 13h5.07l-2.12-5.9c-.56 1.8-1.86 3.3-3.54 4.15l.58 1.75zm7.36-7h-2.66l2.5 7h.8l1.72-2.7c-1.25-1.07-2.12-2.6-2.36-4.3m3.45 2.6l1.65-2.6H22.1c.2 1 .72 1.9 1.43 2.6M27 21c-1.03 0-2-.23-2.87-.62l-3.07 4.82.03.08 2.2-.27c.02 0 .05 0 .08 0 .3 0 .58.2.67.5l.7 2.1c.1.3 0 .62-.23.8-.24.18-.57.2-.82.03-1.92-1.28-5.95-1.3-6-1.3-.37 0-.68-.3-.7-.67-.02-.37.25-.7.62-.75l1.44-.16L18.5 24h-6.17L8.6 26.8c-.44.33 2.22-4.17 2.22-4.17l-.58-1.75c-.4.08-.82.12-1.24.12-3.87 0-7-3.13-7-7s3.13-7 7-7c3.53 0 6.44 2.62 6.92 6 .03 0 .05 0 .08 0h4.08c.5-3.4 3.4-6 6.92-6 3.87 0 7 3.13 7 7s-3.13 7-7 7"/></g><g><path fill="#fff" d="M9 27h5c.55 0 1 .45 1 1s-.45 1-1 1H9c-.55 0-1-.45-1-1s.45-1 1-1"/></g><g><path fill="#dd2e44" d="M2 18c0 3.97 1.45 7.6 3.85 10.4L28.38 5.83C25.6 3.44 21.96 2 18 2 9.16 2 2 9.16 2 18m32 0c0-3.97-1.45-7.6-3.85-10.4L7.62 30.16C10.4 32.55 14.04 34 18 34c8.84 0 16-7.16 16-16M18 36C8.06 36 0 27.94 0 18S8.06 0 18 0s18 8.06 18 18-8.06 18-18 18"/></g></g></g></g></svg>