<?xml version="1.0" encoding="UTF-8" standalone="no"?><svg xmlns:dc="http://purl.org/dc/elements/1.1/" xmlns:cc="http://creativecommons.org/ns#" xmlns:rdf="http://www.w3.org/1999/02/22-rdf-syntax-ns#" xmlns:svg="http://www.w3.org/2000/svg" xmlns="http://www.w3.org/2000/svg" viewBox="0 0 45 45" style="enable-background:new 0 0 45 45;" xml:space="preserve" version="1.1" id="svg2"><metadata id="metadata8"><rdf:RDF><cc:Work rdf:about=""><dc:format>image/svg+xml</dc:format><dc:type rdf:resource="http://purl.org/dc/dcmitype/StillImage"/></cc:Work></rdf:RDF></metadata><defs id="defs6"><clipPath id="clipPath16" clipPathUnits="userSpaceOnUse"><path id="path18" d="M 0,36 36,36 36,0 0,0 0,36 Z"/></clipPath></defs><g transform="matrix(1.25,0,0,-1.25,0,45)" id="g10"><g id="g12"><g clip-path="url(#clipPath16)" id="g14"><g transform="translate(15.3159,32.7393)" id="g20"><path id="path22" style="fill:#af7e57;fill-opacity:1;fill-rule:nonzero;stroke:none" d="m 0,0 c -1.207,-0.267 1.054,-1.529 0.684,-2.739 -0.252,-0.838 0.225,0 1,0 0,0 0.627,-1.283 0.423,-3.226 C 1.9,-7.905 4.579,-8.581 4.784,-6.638 4.988,-4.697 3.399,-3.65 4.273,-2.138 6.365,1.481 0,0 0,0"/></g><g transform="translate(24,15)" id="g24"><path id="path26" style="fill:#9b6a49;fill-opacity:1;fill-rule:nonzero;stroke:none" d="m 0,0 c -0.553,0 -1,0.447 -1,1 0,4.52 -4.661,9.247 -4.708,9.294 -0.389,0.391 -0.389,1.024 0.002,1.414 0.391,0.39 1.023,0.389 1.413,0 C -4.077,11.491 1,6.353 1,1 1,0.447 0.553,0 0,0"/></g><g transform="translate(16,1)" id="g28"><path id="path30" style="fill:#2a6797;fill-opacity:1;fill-rule:nonzero;stroke:none" d="m 0,0 c -1.104,0 -2,0.896 -2,2 l 0,7 c 0,0.348 0.091,0.69 0.264,0.992 l 4,7 c 0.548,0.959 1.77,1.294 2.728,0.744 0.959,-0.547 1.292,-1.769 0.744,-2.728 L 2,8.469 2,2 C 2,0.896 1.105,0 0,0"/></g><g transform="translate(25.001,4)" id="g32"><path id="path34" style="fill:#4289c1;fill-opacity:1;fill-rule:nonzero;stroke:none" d="m 0,0 c -0.587,0 -1.168,0.257 -1.562,0.751 l -4,5 C -5.763,6 -5.899,6.294 -5.962,6.607 l -1,5 c -0.217,1.083 0.485,2.138 1.568,2.354 1.088,0.219 2.138,-0.486 2.354,-1.568 L -2.135,7.869 1.561,3.249 C 2.251,2.387 2.111,1.128 1.248,0.438 0.88,0.144 0.438,0 0,0"/></g><g transform="translate(14.998,0.0918)" id="g36"><path id="path38" style="fill:#292f33;fill-opacity:1;fill-rule:nonzero;stroke:none" d="M 0,0 3.581,-0.092 C 3.241,2.918 1.936,1.951 -0.157,2.004 -2.251,2.057 -3.973,1.1 -3.998,0.099 -3.178,0.08 -2.407,0.06 -0.999,0.023 -0.694,0.017 -0.372,0.009 0,0"/></g><g transform="translate(26.123,2.8623)" id="g40"><path id="path42" style="fill:#292f33;fill-opacity:1;fill-rule:nonzero;stroke:none" d="m 0,0 2.503,2.564 c -2.437,1.797 -2.618,0.183 -4.078,-1.317 -1.464,-1.498 -1.934,-3.411 -1.219,-4.109 0.574,0.588 1.113,1.139 2.096,2.147 C -0.485,-0.498 -0.259,-0.266 0,0"/></g><g transform="translate(23,17)" id="g44"><path id="path46" style="fill:#a0041e;fill-opacity:1;fill-rule:nonzero;stroke:none" d="m 0,0 c 0,0 0,-1 -2,-1 l -4,0 c -2,6 -0.359,12 2,12 3,0 3,-4 4,-9"/></g><g transform="translate(18,24.0029)" id="g48"><path id="path50" style="fill:#af7e57;fill-opacity:1;fill-rule:nonzero;stroke:none" d="m 0,0 c -0.001,-0.045 -0.066,-4.552 -3.6,-7.203 l 0.01,-0.014 C -3.833,-7.399 -4,-7.676 -4,-8.003 c 0,-0.553 0.448,-1 1,-1 0.225,0 0.423,0.088 0.59,0.214 L -2.4,-8.803 C 1.95,-5.54 2,-0.227 2,-0.003 L 0,0 Z"/></g><g transform="translate(22,32)" id="g52"><path id="path54" style="fill:#af7e57;fill-opacity:1;fill-rule:nonzero;stroke:none" d="m 0,0 c 0,-2.209 -1.791,-4 -4,-4 -2.209,0 -4,1.791 -4,4 0,2.209 1.791,4 4,4 2.209,0 4,-1.791 4,-4"/></g><g transform="translate(13,32)" id="g56"><path id="path58" style="fill:#60352a;fill-opacity:1;fill-rule:nonzero;stroke:none" d="M 0,0 C 0,0 0,4 5,4 9,4 9,0 9,0 9,0 9,2 6,2 3.999,2 4,-1 0,0"/></g></g></g></g></svg>
