<svg xmlns="http://www.w3.org/2000/svg" viewBox="0 0 45 45" enable-background="new 0 0 45 45"><defs><clipPath id="a"><path d="M0 36h36V0H0v36z"/></clipPath></defs><g><g><g clip-path="url(#a)" transform="matrix(1.25 0 0 -1.25 0 45)"><g><path fill="#aab8c2" d="M26 18v-2H13.3c-.87 0-1.84-.9-2.17-2L7.6 2C7.25.9 7.9 0 9 0h18c1.1 0 2 .9 2 2v10c0 1.86 1.28 3.4 3 3.86V18h-6z"/></g><g><path fill="#e1e8ed" d="M22 14.13C22 10.6 17.52 7 12 7S2 10.6 2 14.13C2 16 2.83 16 12 16s10 0 10-1.88"/></g><g><path fill="#e1e8ed" d="M25 17c0-.55-.5-1-1.15-1H3.15C2.52 16 2 16.45 2 17s.52 1 1.15 1h20.7c.64 0 1.15-.45 1.15-1"/></g><g><path fill="#99aab5" d="M18 20H6c-1.1 0-2-.9-2-2h16c0 1.1-.9 2-2 2"/></g><g><path fill="#99aab5" d="M20 36V18c1.1 0 2 1 2 2.25v13.5C22 35 21.1 36 20 36"/></g><g><path fill="#e1e8ed" d="M34 32c0 1.1-.9 2-2 2h-8c-1.1 0-2-.9-2-2V18c0-1.1.9-2 2-2h8c1.1 0 2 .9 2 2v14z"/></g><g><path fill="#ccd6dd" d="M22 20c0-1.1-.9-2-2-2s-2 .9-2 2 .9 2 2 2 2-.9 2-2"/></g><path fill="#ccd6dd" d="M34 30H22v2h12v-2z"/><g><path fill="#aab8c2" d="M25 15c0-.55-.45-1-1-1H3c-.55 0-1 .45-1 1s.45 1 1 1h21c.55 0 1-.45 1-1"/></g></g></g></g></svg>