<svg xmlns="http://www.w3.org/2000/svg" viewBox="0 0 45 45" enable-background="new 0 0 45 45"><defs><clipPath id="a"><path d="M0 36h36V0H0v36z"/></clipPath></defs><g><g><g clip-path="url(#a)" transform="matrix(1.25 0 0 -1.25 0 45)"><g><path fill="#269" d="M36 4c0-2.2-1.8-4-4-4H4C1.8 0 0 1.8 0 4v28c0 2.2 1.8 4 4 4h28c2.2 0 4-1.8 4-4V4z"/></g><g><path fill="#fff" d="M1.7 22.6c-.07.28-.1.44-.1.75 0 .7.6 1.45 1.57 1.45 1.06 0 1.56-.62 1.76-1.6l1.87-9.34h.04L9.7 23.5c.25.8.9 1.3 1.72 1.3.8 0 1.47-.5 1.72-1.3L16 13.86h.04l1.87 9.35c.2.98.72 1.6 1.77 1.6.97 0 1.56-.75 1.56-1.45 0-.3-.02-.47-.08-.75l-2.8-12.02c-.22-.92-.94-1.7-2.18-1.7-1.08 0-1.9.7-2.17 1.6l-2.56 8.5h-.04l-2.55-8.5c-.27-.9-1.1-1.6-2.18-1.6-1.23 0-1.96.78-2.18 1.7L1.7 22.6z"/></g><g><path fill="#fff" d="M29.35 24.93c1.6 0 4.73-.53 4.73-2.46 0-.8-.55-1.48-1.36-1.48-.9 0-1.52.76-3.37.76-2.73 0-4.14-2.3-4.14-5 0-2.6 1.44-4.86 4.15-4.86 1.85 0 2.6.93 3.5.93 1 0 1.45-1 1.45-1.5 0-2.1-3.32-2.6-4.95-2.6-4.47 0-7.57 3.55-7.57 8.1 0 4.58 3.08 8.1 7.57 8.1"/></g></g></g></g></svg>