<svg xmlns="http://www.w3.org/2000/svg" viewBox="0 0 45 45" enable-background="new 0 0 45 45"><defs><clipPath id="a"><path d="M0 36h36V0H0v36z"/></clipPath></defs><g><g><g clip-path="url(#a)" transform="matrix(1.25 0 0 -1.25 0 45)"><path fill="#77b255" d="M0 0h36v25s-6 10-9 10-10-9-12-11-4.5-.5-6 1-3 3-4 3-5-7-5-7V0z"/><g><path fill="#7c533e" d="M12.38 29.67c-1-1 .62-.67 1.62-2.67s4-1 3 1c-.2.42-1.04 1.1-1.73 1.6 0 0 .58.7.27 1.42-.3.73-3.16-1.35-3.16-1.35"/></g><g><path fill="#7c533e" d="M11.98 33.7c-1.54-.04-2.76-1.32-2.72-2.86.04-1.54 1.32-2.75 2.86-2.7 1.54.03 2.76 1.3 2.72 2.85-.04 1.53-1.32 2.74-2.86 2.7"/></g><g><path fill="#0b0200" d="M19.95 32.15c-.85-.24-1.9-.57-3.46.58-1.13.82-2.17 1.1-4.38.6-2.33-.5-3.98-2.23-2.32-2.7.73-.2 1.25.07 2.34.18 1.6.18 2.26-1.18 3.82-1.18 3.04 0 5.27 2.88 4 2.53"/></g><g><path fill="#664131" d="M19 20s-3-2-3-3 4-4 5-5 3-1 2 1-4 7-4 7"/></g><g><path fill="#a0041e" d="M20.63 12.98s1.18-.8 1.97.38c.78 1.18 1.36-1.77 1.36-1.77s-2.56-2.55-4.52-2.93c-1.96-.38-1.17.8-.4 1.96.8 1.18 1.6 2.35 1.6 2.35"/></g><g><path fill="#292f33" d="M7 2C4.24 2 2 4.24 2 7s2.24 5 5 5 5-2.24 5-5-2.24-5-5-5m0 12c-3.87 0-7-3.13-7-7s3.13-7 7-7 7 3.13 7 7-3.13 7-7 7"/></g><g><path fill="#292f33" d="M29 2c-2.76 0-5 2.24-5 5s2.24 5 5 5 5-2.24 5-5-2.24-5-5-5m0 12c-3.87 0-7-3.13-7-7s3.13-7 7-7 7 3.13 7 7-3.13 7-7 7"/></g><g><path fill="#e1e8ed" d="M22 16c0 .55-.48 1-1.08 1H10.08C9.48 17 9 16.55 9 16s.5-1 1.08-1h10.84c.6 0 1.08.45 1.08 1"/></g><g><path fill="#e1e8ed" d="M30 7c0 .55-.45 1-1 1H18c-.55 0-1-.45-1-1s.45-1 1-1h11c.55 0 1 .45 1 1"/></g><g><path fill="#e1e8ed" d="M21.22 19L17.06 7.34c-.2-.52.08-1.1.6-1.28.1-.04.23-.06.34-.06.4 0 .8.26.94.66L23.34 19h-2.12z"/></g><g><path fill="#e1e8ed" d="M29 6c-.33 0-.65.16-.84.46l-7 11c-.3.47-.16 1.1.3 1.38.47.3 1.1.16 1.38-.3l7-11c.3-.47.16-1.1-.3-1.38-.17-.1-.36-.16-.54-.16"/></g><g><path fill="#e1e8ed" d="M19 10.27l-8.4 6.52c-.42.33-1.05.25-1.4-.2-.33-.42-.25-1.05.2-1.4l9-7c.17-.13.38-.2.6-.2v2.27z"/></g><g><path fill="#e1e8ed" d="M7 6c-.1 0-.2.02-.32.05-.52.18-.8.74-.63 1.27l2.77 8.3L5.4 18.2c-.44.33-.53.96-.2 1.4.33.44.96.53 1.4.2l4.58-3.43-3.23-9.7C7.8 6.28 7.42 6 7 6"/></g><g><path fill="#292f33" d="M26.38 17c-.03 0-.06 0-.1 0l-5.66.7c-.37.06-.64.4-.62.76.03.38.33.67.7.67.05 0 4.08 0 6 1.3.25.16.58.15.82-.03.24-.2.34-.5.24-.8l-.7-2.12c-.1-.3-.38-.48-.68-.48"/></g><g><path fill="#292f33" d="M11 18H6c-.55 0-1 .45-1 1s.45 1 1 1h5c.55 0 1-.45 1-1s-.45-1-1-1"/></g><g><path fill="#a0041e" d="M22 23l-4-3 3-3 1 6z"/></g><g><path fill="#7c533e" d="M20 19s-2-3-2-4 1-4 1-7 2-3 2-2 1.58 5.42 0 7c-1 1 2 4 2 4l-3 2z"/></g><g><path fill="#7c533e" d="M15.68 22.7l-2.75.8C12.5 21.52 9.9 19 9 19c-1 0-2 0-2-1s0-1 2-1 4 2 5 3c.65.65 1.3 1.76 1.68 2.7"/></g><g><path fill="#be1931" d="M22 23l-3-4 4-3s5 5 5 7-3 3-3 3l-3-3z"/></g><g><path fill="#dd2e44" d="M21 29c-3 1-5.6.42-7-1-1-1-1-2-1-4 0-.17-.03-.36-.07-.55l2.74-.78c.2.5.33.98.33 1.33 0 1 1 1 2 0s2-2 3-2 6 4 6 4c-3 1-4.1 2.37-6 3"/></g><g><path fill="#dd2e44" d="M19 7s1-1 2 0 1-2 1-2-3-2-5-2-1 1 0 2l2 2z"/></g><g><path fill="#dd2e44" d="M11 34c2 1 6 0 4-2-1-1-7-2-7-2 0 1 1 3 3 4"/></g></g></g></g></svg>