<svg xmlns="http://www.w3.org/2000/svg" viewBox="0 0 45 45" enable-background="new 0 0 45 45"><defs><clipPath id="a"><path d="M0 36h36V0H0v36z"/></clipPath></defs><g><g><g clip-path="url(#a)" transform="matrix(1.25 0 0 -1.25 0 45)"><g><path fill="#f3d2a2" d="M20.57 30.03c.93 2 .2 4.3-1.6 5.14-1.82.84-4.77.08-5.24-2.07-.47-2.14-.03-5.4 1.87-5.3.53.02 1.06.06 1.58.14.06-.25.05-.76-.05-1.24-.37-1.87 2.17-2.75 2.54-.9.2 1.1-.2 1.96-.37 2.75.5.35.96.8 1.27 1.48"/></g><g><path fill="#ffe51e" d="M21.04 34.3c-1.15 1.5-2.8 2.22-5.8 1.27-2.6-.83-1.78-3.08-1.3-2.6.8.77 1.76.46 1.76.46l.64-2.3s.35-.25.55.5c.2.77 1.23.8 1.53.15.47-1-.23-1.14-.33-1.72-.3-1.8 1.7-1.86 1.7-1.86s.4-.18 1.15 1.1c.75 1.3 1.23 3.48.1 5"/></g><g><path fill="#e2c196" d="M23.7 15c-.56 0-1 .45-1 1 0 4.53-4.66 9.25-4.7 9.3-.4.4-.4 1.02 0 1.4.38.4 1 .4 1.4 0 .22-.2 5.3-5.34 5.3-10.7 0-.55-.45-1-1-1"/></g><g><path fill="#2a6797" d="M15.7 1c-1.1 0-2 .9-2 2v7c0 .35.1.7.26 1l4 7c.55.96 1.77 1.3 2.73.74.95-.54 1.28-1.77.73-2.73L17.7 9.5V3c0-1.1-.9-2-2-2"/></g><g><path fill="#4289c1" d="M24.7 4c-.6 0-1.17.26-1.57.76l-4 5c-.2.25-.33.54-.4.85l-1 5c-.2 1.1.5 2.15 1.57 2.37 1.1.22 2.14-.5 2.36-1.57l.9-4.52 3.7-4.62c.7-.87.55-2.13-.3-2.82-.38-.3-.82-.43-1.26-.43"/></g><g><path fill="#77b255" d="M22.7 17s0-1-2-1h-4c-2 6-.36 12 2 12 3 0 3-4 4-9"/></g><g><path fill="#f3d2a2" d="M17.7 24c0-.04-.07-4.54-3.6-7.2-.24-.2-.4-.47-.4-.8 0-.55.44-1 1-1 .22 0 .42.1.6.22 4.35 3.25 4.4 8.56 4.4 8.8h-2z"/></g><g><path fill="#292f33" d="M27.88 4.95c.27.27.16.68-.13.94-.46.4-.67.57-.67.57-.26.16-.88.4-1.13.16-1.88-1.87-3.3-4.53-3.36-5.46-.04-.55.63-.86 1.02-.47 1.13 1.13 3.28 3.27 4.26 4.25"/></g><g><path fill="#292f33" d="M17.6.1c.4 0 .6.36.6.75-.03.63-.07.88-.07.88-.06.3-.32.92-.68.92-2.65.02-5.55-.83-6.25-1.45-.4-.36-.15-1.06.4-1.06 1.6 0 4.62-.03 6-.04"/></g></g></g></g></svg>