<svg xmlns="http://www.w3.org/2000/svg" viewBox="0 0 45 45" enable-background="new 0 0 45 45"><defs><clipPath id="a"><path d="M0 36h36V0H0v36z"/></clipPath></defs><g><g><g clip-path="url(#a)" transform="matrix(1.25 0 0 -1.25 0 45)"><g><path fill="#66757f" d="M31.54 18.47c.77.78.77 2.04 0 2.82L17.97 34.83c-.8.78-2.05.78-2.83 0l-3-3c-.78-.78-.78-2.04 0-2.82L25.7 15.46c.78-.78 2.05-.78 2.83 0l.18.18c1.95-1.95 3.24-3.83 3.24-6.64V2.3c0-1.1.9-2 2-2s2 .9 2 2V9c0 4.43-2.2 7.27-4.4 9.47"/></g><g><path fill="#99aab5" d="M32.1 15.03c-.78-.78-2.04-.78-2.83 0L11.72 32.6c-.78.77-.78 2.03 0 2.8.78.8 2.05.8 2.83 0L32.1 17.87c.78-.78.78-2.05 0-2.83"/></g><g><path fill="#55acee" d="M17.4 20.4c.4-.38.4-1 0-1.4L1.7 3.3C1.33 2.9.7 2.9.3 3.3c-.4.38-.4 1.02 0 1.4L16 20.4c.4.4 1.02.4 1.4 0"/></g><g><path fill="#55acee" d="M14.4 23.4c.4-.38.4-1 0-1.4L1.7 9.3C1.33 8.9.7 8.9.3 9.3c-.4.38-.4 1.02 0 1.4L13 23.4c.4.4 1.02.4 1.4 0"/></g><g><path fill="#55acee" d="M11.4 26.4c.4-.38.4-1 0-1.4L2 15.6c-.4-.4-1.02-.4-1.4 0-.4.38-.4 1 0 1.4l9.4 9.4c.4.4 1.02.4 1.4 0"/></g><g><path fill="#55acee" d="M20.4 17.4c.4-.38.4-1 0-1.4L7.7 3.3c-.38-.4-1.02-.4-1.4 0-.4.38-.4 1.02 0 1.4L19 17.4c.4.4 1.02.4 1.4 0"/></g><g><path fill="#55acee" d="M23.4 14.4c.4-.38.4-1 0-1.4L14 3.6c-.4-.4-1.02-.4-1.4 0-.4.38-.4 1 0 1.4l9.4 9.4c.4.4 1.02.4 1.4 0"/></g></g></g></g></svg>