<svg xmlns="http://www.w3.org/2000/svg" viewBox="0 0 45 45" enable-background="new 0 0 45 45"><defs><clipPath id="a"><path d="M0 36h36V0H0v36z"/></clipPath></defs><g><g><g clip-path="url(#a)" transform="matrix(1.25 0 0 -1.25 0 45)"><g><path fill="#f4900c" d="M36 4c0-2.2-1.8-4-4-4H4C1.8 0 0 1.8 0 4v28c0 2.2 1.8 4 4 4h28c2.2 0 4-1.8 4-4V4z"/></g><g><path fill="#fff" d="M14.43 11.3c-1.5.07-3.77-.46-5.54-2.68-.54.3-1.2.32-1.8 0-.88-.48-1.22-1.6-.73-2.5.43-.8 1.3-1.65 2.5-1.7.05 0 .1 0 .13 0 .7 0 1.7.28 2.54 1.55 1.2 1.82 2.75 1.65 2.95 1.62.5-.1 1 .03 1.4.3-.55.97-.34 2.45-1.47 3.4"/></g><g><path fill="#fff" d="M28.72 8.64c-.58.3-1.26.3-1.8 0-1.7 2.12-3.84 2.68-5.35 2.67-1.16-.97-.9-2.5-1.5-3.44.36-.23.8-.34 1.27-.27.17.02 1.72.2 2.95-1.63.83-1.27 1.82-1.56 2.53-1.56.04 0 .08 0 .12.02 1.2.05 2.08.9 2.5 1.7.5.9.17 2.03-.73 2.52"/></g><g><path fill="#fff" d="M28.06 17.06c-.5.5-1.3.58-1.87.2-.15.04-.53.2-1.14.8-2.03 2.03-4.1 2.86-5.47 3.2 1.34.45 2.45 1.46 3.08 2.76.74.1 1.32.7 1.32 1.48 0 .56-.3 1.04-.76 1.3C23.1 29.7 20.8 32 18 32c-2.8 0-5.1-2.3-5.24-5.2-.45-.26-.76-.74-.76-1.3 0-.77.58-1.4 1.32-1.48.63-1.3 1.74-2.3 3.1-2.76-1.38-.34-3.45-1.17-5.48-3.2-.6-.6-1-.76-1.13-.8-.57.38-1.35.3-1.86-.2-.6-.6-.6-1.53 0-2.12.05-.05.7-.7 1.83-.7.86 0 1.98.4 3.3 1.7.4.4.8.73 1.2 1.02-.13-.5-.2-1-.2-1.45 0-2.42 1.76-2.5 3.93-2.5s3.92.08 3.92 2.5c0 .47-.06.96-.18 1.46.4-.3.8-.6 1.2-1.02 1.3-1.3 2.43-1.7 3.3-1.7 1.1 0 1.77.65 1.82.7.6.6.6 1.53 0 2.12"/></g></g></g></g></svg>