<svg xmlns="http://www.w3.org/2000/svg" viewBox="0 0 45 45" enable-background="new 0 0 45 45"><defs><clipPath id="a"><path d="M0 36h36V0H0v36z"/></clipPath></defs><g><g><g clip-path="url(#a)" transform="matrix(1.25 0 0 -1.25 0 45)"><g><path fill="#269" d="M0 32c0 4 4 4 4 4h28s4 0 4-4V4s0-4-4-4H4S0 0 0 4v28z"/></g><g><path fill="#fff" d="M33 27H22v6s0 1-1 1-1-1-1-1v-6c-8 0-8-7-8-7v-2c0-1 1-1 1-1h3s1 0 1 1V20c0 2 2 2 2 2h14c1 0 1 1 1 1v3s0 1-1 1"/></g><g><path fill="#fff" d="M18.5 33h-3c-.83 0-1.5-.67-1.5-1.5s.67-1.5 1.5-1.5h3c.83 0 1.5.67 1.5 1.5s-.67 1.5-1.5 1.5"/></g><g><path fill="#fff" d="M23.5 30h3c.83 0 1.5.67 1.5 1.5s-.67 1.5-1.5 1.5h-3c-.83 0-1.5-.67-1.5-1.5s.67-1.5 1.5-1.5"/></g><g><path fill="#fff" d="M20 16c-1 0-1-1-1-1v-5h-9v5s0 1-1 1-1-1-1-1V4s0-2 2-2h9c2 0 2 2 2 2v11s0 1-1 1"/></g></g></g></g></svg>