<svg xmlns="http://www.w3.org/2000/svg" viewBox="0 0 45 45" enable-background="new 0 0 45 45"><defs><clipPath id="a"><path d="M0 36h36V0H0v36z"/></clipPath></defs><g><g><g clip-path="url(#a)" transform="matrix(1.25 0 0 -1.25 0 45)"><g><path fill="#ffcc4d" d="M20.77 1.4c-1.53-1.54-4-1.54-5.54 0L1.4 15.22c-1.54 1.53-1.54 4 0 5.54L15.22 34.6c1.53 1.54 4 1.54 5.54 0L34.6 20.78c1.54-1.53 1.54-4 0-5.54L20.78 1.4z"/></g><g><path d="M19.5 3.1c-.83-.83-2.17-.83-3 0L3.1 16.5c-.83.83-.83 2.17 0 3l13.4 13.4c.83.83 2.17.83 3 0l13.4-13.4c.83-.83.83-2.17 0-3L19.5 3.1z"/></g><g><path fill="#ffcc4d" d="M18.75 5.33c-.42-.4-1.08-.4-1.5 0L5.34 17.26c-.4.4-.4 1.07 0 1.5l11.93 11.9c.4.42 1.07.42 1.5 0l11.9-11.9c.42-.43.42-1.1 0-1.5L18.77 5.33z"/></g><g><path d="M26.7 18.7l-3.6 3.63c.54.35.9.97.9 1.67 0 1.1-.9 2-2 2s-2-.9-2-2c0-.7.36-1.32.9-1.67l-3.2-3.22-2.22.56c.32.36.52.82.52 1.34 0 1.1-.9 2-2 2s-2-.9-2-2c0-.67.33-1.26.84-1.62L9.4 16.8c-.44-.33-.53-.96-.2-1.4.2-.26.5-.4.8-.4.2 0 .42.07.6.2l1.74 1.3-1.4-4.18c-.17-.53.1-1.1.63-1.27.1-.03.2-.05.32-.05.4 0 .8.26.94.68l1.07 3.23 1.16-3.23c.18-.52.75-.8 1.27-.6.52.17.8.74.6 1.26l-1.88 5.38 2.7-.67c.35-.1.7 0 .96.26l1.86 1.85-1.54-6.93c-.12-.54.22-1.08.76-1.2.54-.1 1.08.22 1.2.76l1.02 4.6 1.02-4.6c.1-.46.52-.78.98-.78.07 0 .14 0 .22.02.54.12.88.66.76 1.2l-1.54 6.93 1.85-1.86c.38-.4 1.02-.4 1.4 0 .4.38.4 1.02 0 1.4"/></g></g></g></g></svg>