<svg xmlns="http://www.w3.org/2000/svg" viewBox="0 0 45 45" enable-background="new 0 0 45 45"><defs><clipPath id="a"><path d="M0 36h36V0H0v36z"/></clipPath></defs><g><g><g clip-path="url(#a)" transform="matrix(1.25 0 0 -1.25 0 45)"><g><path d="M35 18c0-9.4-7.6-17-17-17S1 8.6 1 18s7.6 17 17 17 17-7.6 17-17"/></g><g><path fill="#fff" d="M20 27.5c0-1.38-.9-2.5-2-2.5s-2 1.12-2 2.5.9 2.5 2 2.5 2-1.12 2-2.5"/></g><g><path fill="#fff" d="M25.92 7.76L21 16.13v5.37c.37-.32.76-.68 1.13-1.04l.92-2.78c.14-.42.53-.68.95-.68.1 0 .2.02.32.05.52.18.8.74.63 1.27l-1 3c-.05.14-.13.28-.24.4C22.2 23.2 20.18 25 19 25h-2c-1.2 0-2.64-1.7-3.68-3.22l-3.77-1.9c-.5-.23-.7-.83-.44-1.33.25-.5.85-.7 1.35-.44l4 2c.15.08.3.2.38.34.2.3.42.6.65.9l1.1-3.85-3.82-2.2c-.47-.27-.76-.76-.76-1.3V7c0-.83.67-1.5 1.5-1.5S15 6.17 15 7v6.13l3.2 1.83 5.13-8.72c.28-.48.78-.74 1.3-.74.26 0 .52.07.76.2.7.43.94 1.35.52 2.06"/></g><g><path fill="#dd2e44" d="M2 18c0 3.97 1.45 7.6 3.85 10.4L28.38 5.83C25.6 3.44 21.96 2 18 2 9.16 2 2 9.16 2 18m32 0c0-3.97-1.45-7.6-3.85-10.4L7.62 30.16C10.4 32.55 14.04 34 18 34c8.84 0 16-7.16 16-16M18 36C8.06 36 0 27.94 0 18S8.06 0 18 0s18 8.06 18 18-8.06 18-18 18"/></g></g></g></g></svg>