<svg xmlns="http://www.w3.org/2000/svg" viewBox="0 0 45 45" enable-background="new 0 0 45 45"><defs><clipPath id="a"><path d="M0 36h36V0H0v36z"/></clipPath></defs><g><g><g clip-path="url(#a)" transform="matrix(1.25 0 0 -1.25 0 45)"><g><path fill="#99aab5" d="M30 20c0-.55.9-1 2-1s2 .45 2 1-.9 1-2 1-2-.45-2-1"/></g><g><path fill="#ccd6dd" d="M33 15c-.55 0-1 .45-1 1v16c0 1.58-1.96 2-3 2s-3-.42-3-2c0-.55-.45-1-1-1s-1 .45-1 1c0 2.63 2.52 4 5 4s5-1.37 5-4V16c0-.55-.45-1-1-1"/></g><g><path fill="#99aab5" d="M28 30c0-1.1-1.34-1-3-1s-3-.1-3 1 1.34 2 3 2 3-.9 3-2"/></g><g><path fill="#ccd6dd" d="M29 29c0-.55-.45-1-1-1h-6c-.55 0-1 .45-1 1s.45 1 1 1h6c.55 0 1-.45 1-1"/></g><g><path fill="#99aab5" d="M14 2c0-1.1-.9-2-2-2s-2 .9-2 2 .9 2 2 2 2-.9 2-2"/></g><g><path fill="#99aab5" d="M30 2c0-1.1-.9-2-2-2s-2 .9-2 2 .9 2 2 2 2-.9 2-2"/></g><g><path fill="#ccd6dd" d="M30 2H12C7 2 2 8 1 16c-.25 1.98.8 1 3.02 1 0 0 12.98-2 25.98-2 2 0 5 1.2 5-1 0 0-1-12-5-12"/></g><g><path fill="#99aab5" d="M36 15c0-.55-.45-1-1-1L1 16c-.55 0-1 .45-1 1s.45 1 1 1l34-2c.55 0 1-.45 1-1"/></g></g></g></g></svg>