<svg xmlns="http://www.w3.org/2000/svg" viewBox="0 0 45 45" enable-background="new 0 0 45 45"><defs><clipPath id="a"><path d="M0 36h36V0H0v36z"/></clipPath></defs><g><path fill="#f4900c" d="M26.25 37.5h-7.5v-5h7.5v5z"/><g><g clip-path="url(#a)" transform="matrix(1.25 0 0 -1.25 0 45)"><g><path fill="#ffac33" d="M30 18c0-7 3-4 3-7 0 0 0-2-2-2H5c-2 0-2 2-2 2 0 3 3 0 3 7 0 5.52 6.48 8 12 8s12-2.48 12-8"/></g><g><path fill="#ffac33" d="M21 26c0 1.66-1.34 3-3 3s-3-1.34-3-3 1.34-3 3-3 3 1.34 3 3"/></g><g><path fill="#c1694f" d="M35 3c0-1.1-.9-2-2-2H3c-1.1 0-2 .9-2 2s.9 2 2 2h30c1.1 0 2-.9 2-2"/></g><g><path fill="#c1694f" d="M33 5c0-1.1-.9-2-2-2H5c-1.1 0-2 .9-2 2s.9 2 2 2h26c1.1 0 2-.9 2-2"/></g></g></g></g></svg>