<svg xmlns="http://www.w3.org/2000/svg" viewBox="0 0 45 45" enable-background="new 0 0 45 45"><defs><clipPath id="a"><path d="M0 36h36V0H0v36z"/></clipPath></defs><g><path fill="#c1694f" d="M1.25 35h42.5v6.25H1.25V35z"/><g><g clip-path="url(#a)" transform="matrix(1.25 0 0 -1.25 0 45)"><g><path fill="#c1694f" d="M36 1c0-.55-.45-1-1-1s-1 .45-1 1v14c0 .55.45 1 1 1s1-.45 1-1V1z"/></g><g><path fill="#c1694f" d="M0 1c0-.55.45-1 1-1s1 .45 1 1v22c0 .55-.45 1-1 1s-1-.45-1-1V1z"/></g><g><path fill="#269" d="M32 13H4c-1.1 0-2-.9-2-2V7h32v4c0 1.1-.9 2-2 2"/></g><g><path fill="#55acee" d="M32 13H4c-1.1 0-2-.9-2-2V7h32v4c0 1.1-.9 2-2 2"/></g><g><path fill="#5c913b" d="M2.13 16.06c-.27-1.07 1.48-2.42 3.9-3 2.4-.6 4.58-.2 4.84.88.26 1.07-1.48 2.42-3.9 3-2.4.6-4.58.2-4.84-.88"/></g></g></g></g></svg>