<svg xmlns="http://www.w3.org/2000/svg" viewBox="0 0 45 45" enable-background="new 0 0 45 45"><defs><clipPath id="a"><path d="M0 36h36V0H0v36z"/></clipPath></defs><g><g><g clip-path="url(#a)" transform="matrix(1.25 0 0 -1.25 0 45)"><g><path fill="#269" d="M36 4c0-2.2-1.8-4-4-4H4C1.8 0 0 1.8 0 4v28c0 2.2 1.8 4 4 4h28c2.2 0 4-1.8 4-4V4z"/></g><g><path fill="#f5f8fa" d="M32.83 27c0-3.3-2.7-6-6-6s-6 2.7-6 6h12z"/></g><g><path fill="#f5f8fa" d="M32.83 33h-12c-.55 0-1-.45-1-1 0-.18.05-.57.13-1-.04 0-.1 0-.13 0-1.1 0-2-.45-2-1s.9-1 2-1c.37 0 .68 0 .97 0 0 0 .02 0 .03 0h12c.55 0 1 2.45 1 3 0 .55-.45 1-1 1"/></g><g><path fill="#f5f8fa" d="M32.65 17.82L20.83 6c0-1.1.9-2 2-2h8c1.1 0 2 .9 2 2v11c0 .3-.07.57-.18.82"/></g><g><path fill="#f5f8fa" d="M29.83 19h-7c-.06 0-.1 0-.17-.02-1.32.07-2.8-.1-3.25-.57l-5.8-6c-.8-.77-.8-2.03 0-2.8.77-.8 2.03-.8 2.82 0l4.4 4.53V10l9 9z"/></g><g><path fill="#f5f8fa" d="M15 8H6v9c0 1.1-.9 2-2 2s-2-.9-2-2V8c0-1.1.9-2 2-2 0-1.1.9-2 2-2h9c1.1 0 2 .9 2 2s-.9 2-2 2"/></g></g></g></g></svg>