<svg xmlns="http://www.w3.org/2000/svg" viewBox="0 0 45 45" enable-background="new 0 0 45 45"><defs><clipPath id="a"><path d="M0 36h36V0H0v36z"/></clipPath></defs><g><g><g clip-path="url(#a)" transform="matrix(1.25 0 0 -1.25 0 45)"><g><path fill="#269" d="M36 4c0-2.2-1.8-4-4-4H4C1.8 0 0 1.8 0 4v28c0 2.2 1.8 4 4 4h28c2.2 0 4-1.8 4-4V4z"/></g><g><path fill="#f5f8fa" d="M31 25c0-3.3-2.7-6-6-6s-6 2.7-6 6h12z"/></g><g><path fill="#f5f8fa" d="M31 31H19c-.55 0-1-.45-1-1 0-.18.05-.57.13-1-.04 0-.08 0-.13 0-1.1 0-2-.45-2-1s.9-1 2-1c.37 0 .68 0 .97 0 0 0 .02 0 .03 0h12c.55 0 1 2.45 1 3 0 .55-.45 1-1 1"/></g><g><path fill="#f5f8fa" d="M15 10c-5 0-7.56 3.73-7.66 3.9-.62.9-.37 2.15.55 2.76.9.62 2.15.37 2.76-.55.05-.06 1.5-2.1 4.34-2.1 2.85 0 4.32 2.1 4.34 2.1.6.93 1.85 1.18 2.77.56.93-.6 1.18-1.85.56-2.77C22.56 13.72 20 10 15 10"/></g><g><path fill="#f5f8fa" d="M28 17h-7c-1.1 0-2-.9-2-2V8l9 9z"/></g><g><path fill="#f5f8fa" d="M30.82 15.82L19 4c0-1.1.9-2 2-2h8c1.1 0 2 .9 2 2v11c0 .3-.07.57-.18.82"/></g><g><path fill="#f5f8fa" d="M12 32.96l-6-1.43c-.15-.04-.3-.13-.43-.22L11 30.05c.55-.16 1-.73 1-1.28v-5.8c.55.16 1 .73 1 1.28v8c0 .56-.45.88-1 .72"/></g><g><path fill="#f5f8fa" d="M10 19.25c0-.56-.45-.88-1-.72l-5 1.43c-.55.16-1 .73-1 1.3v8c0 .54.45.86 1 .7l5-1.43c.55-.16 1-.73 1-1.28v-8z"/></g></g></g></g></svg>