<svg xmlns="http://www.w3.org/2000/svg" viewBox="0 0 45 45" enable-background="new 0 0 45 45"><defs><clipPath id="a"><path d="M0 36h36V0H0v36z"/></clipPath></defs><g><g><g clip-path="url(#a)" transform="matrix(1.25 0 0 -1.25 0 45)"><g><path fill="#f4900c" d="M11 36c-4.42 0-8-3.58-8-8v-8h2v8c0 3.3 2.7 6 6 6s6-2.7 6-6v-8h2v8c0 4.42-3.58 8-8 8"/></g><g><path fill="#dd2e44" d="M1 28l2-2 2 2 2-2 2 2 2-2 2 2 2-2 2 2 2-2 2 2V5H1v23z"/></g><g><path fill="#ffcc4d" d="M25 31c-4.42 0-8-3.58-8-8v-8h2v8c0 3.3 2.7 6 6 6s6-2.7 6-6v-8h2v8c0 4.42-3.58 8-8 8"/></g><g><path fill="#744eaa" d="M15 23l2-2 2 2 2-2 2 2 2-2 2 2 2-2 2 2 2-2 2 2V0H15v23z"/></g></g></g></g></svg>