<svg xmlns="http://www.w3.org/2000/svg" viewBox="0 0 45 45" enable-background="new 0 0 45 45"><defs><clipPath id="a"><path d="M0 36h36V0H0v36z"/></clipPath></defs><g><g><g clip-path="url(#a)" transform="matrix(1.25 0 0 -1.25 0 45)"><g><path fill="#ccd6dd" d="M31 6.5c0-.83-.67-1.5-1.5-1.5S28 5.67 28 6.5v24c0 .83.67 1.5 1.5 1.5s1.5-.67 1.5-1.5v-24z"/></g><g><path fill="#ccd6dd" d="M34.88 4c.04.16.06.33.06.5 0 1.93-2.46 3.5-5.5 3.5-3.03 0-5.5-1.57-5.5-3.5 0-.17.03-.34.07-.5H34.9z"/></g><g><path fill="#fcab40" d="M35.94 27c.34-1.13-.9-2-2-2h-9c-1.1 0-2.3 1-2 2l2 7c.25 1.08.9 2 2 2h5c1.1 0 1.75-1.13 2-2l2-7z"/></g><g><path fill="#5d9040" d="M29 6.9c0-1.22-1-2.2-2.27-2.2H6.3c-1.26 0-2.28.98-2.28 2.2v9.9C4.02 18 5.04 19 6.3 19h20.43C28 19 29 18 29 16.8V6.9z"/></g><g><path fill="#3f7123" d="M27.5 4.7c0-1.2-.98-2.2-2.2-2.2H6.6c-1.2 0-2.2 1-2.2 2.2v1.1C4.4 7 5.4 8 6.6 8h18.7c1.2 0 2.2-1 2.2-2.2V4.7z"/></g><g><path fill="#5d9040" d="M29 16.88c0-3.4-5.6-6.13-12.48-6.13-6.9 0-12.5 2.74-12.5 6.13 0 3.38 5.6 6.12 12.5 6.12S29 20.26 29 16.87"/></g><g><path fill="#78b159" d="M6.6 12.4c0-1.82-1.48-3.3-3.3-3.3-1.82 0-3.3 1.48-3.3 3.3 0 1.82 1.48 3.3 3.3 3.3 1.82 0 3.3-1.48 3.3-3.3"/></g><g><path fill="#78b159" d="M6.6 2.5C6.6 1.28 5.62.3 4.4.3c-1.2 0-2.2.98-2.2 2.2v9.9c0 1.2 1 2.2 2.2 2.2 1.22 0 2.2-1 2.2-2.2V2.5z"/></g><g><path fill="#78b159" d="M26.4 12.4c0-1.82 1.48-3.3 3.3-3.3 1.82 0 3.3 1.48 3.3 3.3 0 1.82-1.48 3.3-3.3 3.3-1.82 0-3.3-1.48-3.3-3.3"/></g><g><path fill="#78b159" d="M26.4 2.5c0-1.22.98-2.2 2.2-2.2 1.2 0 2.2.98 2.2 2.2v9.9c0 1.2-1 2.2-2.2 2.2-1.22 0-2.2-1-2.2-2.2V2.5z"/></g><g><path fill="#78b159" d="M16.5 8c0-1.22-.98-2.2-2.2-2.2H8.8c-1.22 0-2.2.98-2.2 2.2 0 1.22 1 2.2 2.2 2.2h5.5c1.22 0 2.2-1 2.2-2.2"/></g><g><path fill="#78b159" d="M26.4 8c0-1.22-.98-2.2-2.2-2.2h-5.5c-1.22 0-2.2.98-2.2 2.2 0 1.22.98 2.2 2.2 2.2h5.5c1.22 0 2.2-1 2.2-2.2"/></g><path fill="#78b159" d="M27 5H6v3h21V5z"/></g></g></g></svg>