<svg xmlns="http://www.w3.org/2000/svg" viewBox="0 0 45 45" enable-background="new 0 0 45 45"><defs><clipPath id="a"><path d="M0 36h36V0H0v36z"/></clipPath></defs><g><g><path fill="#ccd6dd" d="M38.75 27.5h-25l-2.5-15h30l-2.5 15z"/></g><g><g clip-path="url(#a)" transform="matrix(1.25 0 0 -1.25 0 45)"><g><path fill="#66757f" d="M13.67 25l.27-2H10.5l-.32 2h3.5zM20 25v-2h-4.04l-.27 2H20zm6.3 0l-.26-2H22v2h4.3zm5.52 0l-.33-2h-3.44l.27 2h3.5zm-4.85-10l.27 2h3.25l-.35-2h-3.18zM22 15v2h3.22l-.27-2H22zm-4.95 0l-.27 2H20v-2h-2.95zm-5.2 0l-.34 2h3.26l.27-2h-3.18zm2.64 4h-3.32l-.33 2h3.36l.3-2zm5.5 0h-3.5l-.27 2H20v-2zm5.5 0H22v2h3.77l-.28-2zm5.32 0h-3.3l.27 2h3.35l-.33-2zm2.16-10h-22C9.88 9 9 9.9 9 10.98c0 1.1.9 2.02 2 2.02h20c.5 0 .9.35 1 .84l2 12c.04.3-.05.58-.24.8-.2.23-.47.36-.76.36H9.82l-1.04 6.17c-.08.47-.5.8-.95.8 0 0-.02.03-.04.03H3c-.55 0-1-.45-1-1s.45-1 1-1h3.95l2.9-17.22c-1.64-.5-2.85-2-2.85-3.8C7 8.78 8.8 7 10.98 7h22c.56 0 1 .45 1 1s-.44 1-1 1"/></g><g><path fill="#e1e8ed" d="M17 5c0-1.66-1.34-3-3-3s-3 1.34-3 3 1.34 3 3 3 3-1.34 3-3"/></g><g><path fill="#292f33" d="M14 7c-1.1 0-2-.9-2-2s.9-2 2-2 2 .9 2 2-.9 2-2 2m0-6c-2.2 0-4 1.8-4 4s1.8 4 4 4 4-1.8 4-4-1.8-4-4-4"/></g><g><path fill="#e1e8ed" d="M31 5c0-1.66-1.34-3-3-3s-3 1.34-3 3 1.34 3 3 3 3-1.34 3-3"/></g><g><path fill="#292f33" d="M28 7c-1.1 0-2-.9-2-2s.9-2 2-2 2 .9 2 2-.9 2-2 2m0-6c-2.2 0-4 1.8-4 4s1.8 4 4 4 4-1.8 4-4-1.8-4-4-4"/></g></g></g></g></svg>