<svg xmlns="http://www.w3.org/2000/svg" viewBox="0 0 45 45" enable-background="new 0 0 45 45"><defs><clipPath id="a"><path d="M0 36h36V0H0v36z"/></clipPath></defs><g><g><g clip-path="url(#a)" transform="matrix(1.25 0 0 -1.25 0 45)"><g><path fill="#9266cc" d="M36 4c0-2.2-1.8-4-4-4H4C1.8 0 0 1.8 0 4v28c0 2.2 1.8 4 4 4h28c2.2 0 4-1.8 4-4V4z"/></g><g><path fill="#fff" d="M21.52 25.3c.52-1.85-.27-3.68-1.76-4.1-1.5-.43-3.13.72-3.65 2.57-.52 1.84.27 3.68 1.77 4.1 1.5.42 3.13-.73 3.65-2.57"/></g><g><path fill="#fff" d="M10.92 21.38C11.96 20.25 13 19 14 18s6.62 2.67 7.62 2.67S25 19 26 15c.53-2.1.8-4.46.54-5C25.7 8.47 23 6.34 22 6h5c1 0 2-1 2-2s-1-2-2-2H15.7c-2.5 0-2.17 2.67-.7 4 2.3 2.08 3.62 3.25 4.62 4.25 0 1-.87 5.04-1.87 5.04 0 0-2.75-1.3-3.75-1.3-2 0-3.92 4.04-5 6-.7 1.3 1.1 2.26 1.92 1.38"/></g><g><path fill="#fff" d="M18.5 33.52c.38-.65.15-1.47-.5-1.84L6.33 25.04c-.65-.37-1.47-.15-1.84.5-.37.65-.14 1.47.5 1.83l11.7 6.65c1.26.7 1.46.14 1.83-.5"/></g><g><path fill="#fff" d="M17.03 33.52c-.36-.65-.14-1.47.5-1.84l11.7-6.64c.64-.37 1.47-.15 1.83.5.37.65.14 1.47-.5 1.83l-11.7 6.65c-1.6.7-1.46.14-1.83-.5"/></g></g></g></g></svg>