<svg xmlns="http://www.w3.org/2000/svg" viewBox="0 0 45 45" enable-background="new 0 0 45 45"><defs><clipPath id="a"><path d="M0 36h36V0H0v36z"/></clipPath><clipPath id="b"><path d="M3.42 28.1c-.4-1.88 6.24-4.86 8.13-5.26l17.1-3.56c1.9-.4 6.58-.28 6.97 1.6.4 1.9-3.65 4.86-5.54 5.25l-19.1 3.98c-.42.1-1.03.15-1.7.15-2.33 0-5.53-.58-5.86-2.14"/></clipPath><clipPath id="c"><path d="M0 36h36V0H0v36z"/></clipPath></defs><g><path fill="#5d9040" d="M0 45h45V28.75H0V45z"/><path fill="#ccd6dd" d="M0 38.75h45v-7.5H0v7.5z"/><g><g clip-path="url(#a)" transform="matrix(1.25 0 0 -1.25 0 45)"><g><path fill="#f5f8fa" d="M10 8c0-.55-.45-1-1-1H3c-.55 0-1 .45-1 1s.45 1 1 1h6c.55 0 1-.45 1-1"/></g><g><path fill="#f5f8fa" d="M22 8c0-.55-.45-1-1-1h-6c-.55 0-1 .45-1 1s.45 1 1 1h6c.55 0 1-.45 1-1"/></g><g><path fill="#f5f8fa" d="M34 8c0-.55-.45-1-1-1h-6c-.55 0-1 .45-1 1s.45 1 1 1h6c.55 0 1-.45 1-1"/></g><g><path fill="#67757f" d="M18.84 18.77c-.17-.8-.96-1.33-1.78-1.16-.8.18-1.33.97-1.16 1.78.17.8.97 1.33 1.78 1.16.8-.17 1.33-.96 1.16-1.77"/></g><g><path fill="#67757f" d="M28.94 18.2c-.17-.8-.97-1.33-1.78-1.16-.8.16-1.33.96-1.16 1.77.17.82.96 1.34 1.77 1.17.8-.17 1.33-.96 1.17-1.77"/></g><g><path fill="#67757f" d="M28.16 19.38c-.06-.27-.32-.44-.6-.4-.26.07-.43.34-.38.6l.4 1.96c.07.27.33.45.6.4.27-.07.45-.33.4-.6l-.42-1.96z"/></g><g><path fill="#5dadec" d="M17.1 25.03c.5-1.42 7.7-2.38 6.1-.25-4.6 7.03-10 9.36-9.05 7.14 1.06-2.5 1.7-4.3 2.94-6.9"/></g><g><path fill="#ccd6dd" d="M35.63 20.9c-.4-1.9-5.1-2.02-6.98-1.62l-17.1 3.56c-1.9.4-8.52 3.38-8.13 5.27.42 2.03 5.68 2.4 7.57 2l19.08-3.97c1.9-.4 5.94-3.35 5.55-5.24"/></g></g></g><g><g clip-path="url(#b)" transform="matrix(1.25 0 0 -1.25 0 45)"><g><path fill="#67757f" d="M31.22 24.47c.58.16 1.46.05 1.96.47s1.94-.8 1.4-1.23c-.53-.42-1.86-.9-3.16-.83-1.3.07-.88 1.43-.2 1.6"/></g></g></g><g><g clip-path="url(#c)" transform="matrix(1.25 0 0 -1.25 0 45)"><g><path fill="#5dadec" d="M3.5 28.5c.17.82 1.23 5.87 1.4 6.7.5 2.45 2.97-2.15 4.1-4.95-2-.12-3.97-.32-5.5-1.75"/></g><g><path fill="#9aaab4" d="M28.98 23.3c-.12-.54-.65-.9-1.2-.78-.53.1-.87.64-.76 1.18.1.54.64.9 1.18.78.54-.1.9-.64.78-1.18"/></g><g><path fill="#9aaab4" d="M26.04 23.9c-.1-.53-.64-.88-1.18-.77-.54.12-.9.65-.78 1.2.1.53.64.87 1.18.76.55-.12.9-.65.78-1.2"/></g><g><path fill="#9aaab4" d="M23.1 24.52c-.1-.54-.64-.9-1.18-.77-.54.1-.9.64-.78 1.18.12.54.65.9 1.2.77.53-.1.87-.64.76-1.18"/></g><g><path fill="#9aaab4" d="M20.17 25.13c-.12-.54-.65-.9-1.2-.77-.53.1-.87.64-.76 1.18.12.54.65.9 1.2.78.53-.12.88-.65.77-1.2"/></g><g><path fill="#9aaab4" d="M17.23 25.74c-.1-.54-.64-.88-1.18-.77-.55.1-.9.64-.78 1.18.1.54.64.9 1.18.78.54-.12.9-.64.78-1.2"/></g><g><path fill="#9aaab4" d="M14.3 26.36c-.12-.54-.65-.9-1.2-.78-.53.1-.88.64-.77 1.18.12.55.65.9 1.2.78.53-.1.87-.64.76-1.18"/></g><g><path fill="#5dadec" d="M4.2 27.95c1.1.34 4.22-.37 1.77-1.9-3.55-2.33-5.75-1.8-4.87-.97 1 .95 2 1.92 3.1 2.87"/></g><g><path fill="#5dadec" d="M15.67 23.6c1.02 1.1 8-.9 5.7-2.2-7.03-4.6-12.9-4.6-11.15-2.93 1.97 1.87 3.28 3.25 5.45 5.14"/></g></g></g></g></svg>