<svg xmlns="http://www.w3.org/2000/svg" viewBox="0 0 45 45" enable-background="new 0 0 45 45"><defs><clipPath id="a"><path d="M0 36h36V0H0v36z"/></clipPath></defs><g><g><g clip-path="url(#a)" transform="matrix(1.25 0 0 -1.25 0 45)"><g><path fill="#66757f" d="M25.82 25.27c-.22-.13-.5-.06-.64.16l-3.13 5.2c-.13.22-.06.5.16.63l.07.04c.22.13.5.06.63-.16l3.14-5.2c.13-.22.06-.5-.16-.63l-.06-.03z"/></g><g><path fill="#66757f" d="M25.27 25.82c-.13-.22-.06-.5.16-.64l5.2-3.13c.22-.13.5-.06.63.16l.04.07c.13.22.06.5-.16.63l-5.2 3.14c-.22.13-.5.06-.63-.16l-.03-.06z"/></g><g><path fill="#be1931" d="M13.05 3.86L9.5 8.8l-.7.7-4.94 3.55c-.4.4-1.03.4-1.42 0L.32 10.93c-.4-.4-.4-1.03 0-1.42L9.52.33c.38-.4 1.02-.4 1.4 0l2.13 2.12c.4.4.4 1.03 0 1.42"/></g><g><path fill="#ccd6dd" d="M23.2 18.25c-7-7-19.66-15.55-20.08-15.13-.42.42 8.14 13.1 15.13 20.08 7 7 8.83 6.6 10.2 5.24 1.36-1.36 1.75-3.2-5.25-10.2"/></g><g><path fill="#be1931" d="M32.08 31.37c-.98-.98-1.93-1.6-2.13-1.42-.2.2.44 1.15 1.42 2.13.97.97 1.93 1.6 2.12 1.4.2-.2-.45-1.13-1.42-2.1"/></g><g><path fill="#ccd6dd" d="M23.94 19c-.78-.8-2.04-.8-2.82 0L19 21.1c-.8.78-.8 2.04 0 2.82l7.77 7.78c.78.78 3.22 1.96 4 1.18l2.13-2.13c.78-.78-.4-3.22-1.18-4L23.94 19z"/></g><g><path fill="#269" d="M28.53 32.8l4.27-4.27c.36.88.53 1.8.1 2.25l-2.12 2.12c-.44.43-1.37.26-2.25-.1"/></g><g><path fill="#be1931" d="M32.6 32.27c-.2-.2-1.15.43-2.13 1.4-.98 1-1.6 1.94-1.4 2.13.18.2 1.13-.44 2.1-1.4.98-1 1.62-1.94 1.42-2.13"/></g><g><path fill="#be1931" d="M35.82 29.03c-.2-.2-1.14.44-2.12 1.42-.97.98-1.6 1.92-1.4 2.12.18.2 1.13-.44 2.1-1.4 1-1 1.62-1.94 1.42-2.14"/></g><g><path fill="#66757f" d="M24.52 25.9l1.37-1.38c.57-.58 1.1-1.1 1.28-1.75l.06.06c.94.95.94 2.48 0 3.42l-1 1c-.93.93-2.46.93-3.4 0l-.07-.07c.66-.17 1.17-.7 1.75-1.3"/></g><g><path fill="#292f33" d="M21.83 29.6c-.34-.33-.9-.33-1.23 0l-.18.2c-.34.33-.34.88 0 1.22l1.6 1.6c.33.34.9.34 1.23 0l.18-.18c.34-.34.34-.9 0-1.24l-1.6-1.6z"/></g><g><path fill="#292f33" d="M31 20.38c-.33-.32-.85-.32-1.18 0l-.24.25c-.33.32-.33.85 0 1.17l1.66 1.66c.32.32.84.32 1.16 0l.25-.25c.32-.3.32-.83 0-1.15L31 20.38z"/></g><g><path fill="#ea596e" d="M3.87 8.8l-.72.7-1.42 1.44c-.4.38-1 .38-1.4 0l-.02-.02c-.37-.4-.37-1 0-1.4L1.75 8.1l.7-.72.7-.7.7.7.03.02.7.7-.7.7z"/></g><g><path fill="#ea596e" d="M10.93 1.74L9.5 3.18l-.7.68-.7.7-1.42-1.4.7-.72.7-.68L9.5.32c.4-.4 1.04-.4 1.43 0 .4.4.4 1.02 0 1.42"/></g><g><path fill="#be1931" d="M7.12 6.53c-2.05-2.05-3.84-3.58-4-3.4-.17.15 1.36 1.94 3.4 4 2.05 2.04 3.85 3.56 4 3.4.17-.16-1.35-1.96-3.4-4"/></g><g><path fill="#be1931" d="M35.13 12.83L12.8 35.16c-.78.78-2.04.78-2.83 0L7.44 32.2l8.22-10.63 5.9-5.9 10.62-8.2L35.13 10c.78.78.78 2.05 0 2.83"/></g><g><path fill="#ea596e" d="M16.52 25.5l-7.98 8-1.1-1.3 6.88-8.9 2.2 2.2z"/></g><g><path fill="#ea596e" d="M33.47 8.57L25 17.03l-2.26-2.27 9.44-7.3 1.3 1.1z"/></g></g></g></g></svg>