<svg xmlns="http://www.w3.org/2000/svg" viewBox="0 0 45 45" enable-background="new 0 0 45 45"><defs><clipPath id="a"><path d="M0 36h36V0H0v36z"/></clipPath></defs><g><g><g clip-path="url(#a)" transform="matrix(1.25 0 0 -1.25 0 45)"><g><path fill="#66757f" d="M35 17c0-.55-.45-1-1-1h-3c-.55 0-1 .45-1 1v2c0 .55.45 1 1 1h3c.55 0 1-.45 1-1v-2z"/></g><path fill="#66757f" d="M32 11h2v7h-2v-7z"/><g><path fill="#e1e8ed" d="M6 16.78S11 21 16 21h.03L16 16s0-1-4-1-6 1.78-6 1.78"/></g><g><path fill="#3b88c3" d="M7.25 16.9C10.8 19.6 14 19.96 15 19.96V16c0-3.16-7.75.9-7.75.9"/></g><g><path fill="#ccd6dd" d="M33 11.04s.5 4-1 5.73L1 17.9s2-3.42 6-5.72 26-1.14 26-1.14"/></g><g><path fill="#f4900c" d="M7 12.18c4-2.3 26-1.14 26-1.14s.3 2.33-.24 4.2L2.08 16.4c.97-1.2 2.6-2.9 4.92-4.22"/></g><path fill="#55acee" d="M36 12H0V0h36v12z"/></g></g></g></svg>