<svg xmlns="http://www.w3.org/2000/svg" viewBox="0 0 45 45" enable-background="new 0 0 45 45"><defs><clipPath id="a"><path d="M0 36h36V0H0v36z"/></clipPath></defs><g><path fill="#3b88c3" d="M36.25 42.5H8.75V31.25h27.5V42.5z"/><path fill="#3b88c3" d="M36.25 28.75H8.75V17.5h27.5v11.25z"/><path fill="#3b88c3" d="M36.25 16.25H8.75V3.75h27.5v12.5z"/><g><g clip-path="url(#a)" transform="matrix(1.25 0 0 -1.25 0 45)"><g><path fill="#269" d="M30 32.82c0-.45-.37-.82-.82-.82H6.82c-.45 0-.82.37-.82.82v.36c0 .45.37.82.82.82h22.36c.45 0 .82-.37.82-.82v-.36z"/></g><g><path fill="#269" d="M30 21.82c0-.45-.37-.82-.82-.82H6.82c-.45 0-.82.37-.82.82v.36c0 .45.37.82.82.82h22.36c.45 0 .82-.37.82-.82v-.36z"/></g><g><path fill="#269" d="M30 11.82c0-.45-.37-.82-.82-.82H6.82c-.45 0-.82.37-.82.82v.36c0 .45.37.82.82.82h22.36c.45 0 .82-.37.82-.82v-.36z"/></g><g><path fill="#269" d="M30 .82c0-.45-.37-.82-.82-.82H6.82C6.37 0 6 .37 6 .82v.36c0 .45.37.82.82.82h22.36c.45 0 .82-.37.82-.82V.82z"/></g><g><path fill="#99aab5" d="M26 34.87c0-.48-.4-.87-.87-.87h-2.26c-.48 0-.87.4-.87.87v.26c0 .48.4.87.87.87h2.26c.48 0 .87-.4.87-.87v-.26z"/></g></g></g></g></svg>