<svg xmlns="http://www.w3.org/2000/svg" viewBox="0 0 45 45" enable-background="new 0 0 45 45"><defs><clipPath id="a"><path d="M0 36h36V0H0v36z"/></clipPath></defs><g><g><g clip-path="url(#a)" transform="matrix(1.25 0 0 -1.25 0 45)"><g><path fill="#88c9f9" d="M36 4s0-4-4-4H4S0 0 0 4v28c0 4 4 4 4 4h28c4 0 4-4 4-4V4z"/></g><g><path fill="#77b255" d="M0 4c0-4 4-4 4-4h28c4 0 4 4 4 4v13H0V4z"/></g><g><path fill="#d99e82" d="M22.38 17h-8.75L2.26.38C3.16 0 4 0 4 0h28c.7 0 1.3.13 1.77.34L22.37 17z"/></g><g><path fill="#f5f8fa" d="M31.3 33.32c-.26 0-.53-.04-.77-.12-.3.85-1.1 1.45-2.04 1.45-1.03 0-1.87-.7-2.1-1.63-.26.18-.57.3-.9.3-.83 0-1.5-.67-1.5-1.5 0-.2.04-.4.1-.56-.13.04-.28.07-.44.07-.92 0-1.66-.75-1.66-1.67 0-.92.74-1.66 1.66-1.66h7.65c1.48 0 2.67 1.2 2.67 2.66 0 1.47-1.2 2.66-2.66 2.66"/></g><g><path fill="#58595b" d="M4 0h28L21.37 17h-6.75L4 0z"/></g><g><path fill="#808285" d="M6.63 0h22.75l-8.75 17h-5.25L6.62 0z"/></g><g><path fill="#ccd6dd" d="M24 0h-1l-4 17h.47L24 0z"/></g><g><path fill="#ccd6dd" d="M17 17L13 0h-1l4.47 16.94"/></g><path fill="#808285" d="M25 2H11v1h14V2z"/><path fill="#808285" d="M25 5H11v1h14V5z"/><path fill="#808285" d="M23.94 7.7h-12v1h12v-1z"/><path fill="#808285" d="M23 10H13v1h10v-1z"/><path fill="#808285" d="M22 12h-8v1h8v-1z"/><path fill="#808285" d="M21 14h-6v.7h6V14z"/><path fill="#808285" d="M21 15.44h-6v.7l6-.02v-.68z"/><g><path fill="#66757f" d="M8 14.5c0-.28-.22-.5-.5-.5s-.5.22-.5.5v11c0 .28.22.5.5.5s.5-.22.5-.5v-11z"/></g><g><path fill="#66757f" d="M29 14.4c0-.22-.18-.4-.4-.4h-.2c-.22 0-.4.18-.4.4v11.2c0 .22.18.4.4.4h.2c.22 0 .4-.18.4-.4V14.4z"/></g><g><path fill="#66757f" d="M29 25.5c0-.28-.22-.5-.5-.5h-21c-.28 0-.5.22-.5.5s.22.5.5.5h21c.28 0 .5-.22.5-.5"/></g><g><path fill="#66757f" d="M29 20.38c0-.2-.17-.38-.38-.38H7.38c-.2 0-.38.17-.38.38v.24c0 .2.17.38.38.38h21.24c.2 0 .38-.17.38-.38v-.24z"/></g><g><path fill="#5c913b" d="M27 21c0-.55-.45-1-1-1H10c-.55 0-1 .45-1 1v4c0 .55.45 1 1 1h16c.55 0 1-.45 1-1v-4z"/></g><path fill="#a6d488" d="M15 23h-2v2h2v-2z"/><path fill="#77b255" d="M16 21h-4v1h4v-1z"/><path fill="#a6d488" d="M23 23h-2v2h2v-2z"/><path fill="#77b255" d="M24 21h-4v1h4v-1z"/></g></g></g></svg>