<svg xmlns="http://www.w3.org/2000/svg" viewBox="0 0 45 45" enable-background="new 0 0 45 45"><defs><clipPath id="a"><path d="M0 36h36V0H0v36z"/></clipPath></defs><g><g><g clip-path="url(#a)" transform="matrix(1.25 0 0 -1.25 0 45)"><g><path fill="#8899a6" d="M34.25 29.68l-2.74-2.75s-1.82-.9-3.65.92c-1.83 1.83-.92 3.65-.92 3.65l2.75 2.75c.9.9-.2 1.75-1 1.75-4.06 0-7.35-3.28-7.35-7.33 0-.57.08-1.12.2-1.66l-6.2-6.2 5.48-5.47 6.2 6.2c.55-.13 1.1-.2 1.67-.2 4.05 0 7.33 3.3 7.33 7.34 0 .83-.84 1.92-1.75 1"/></g><g><path fill="#8899a6" d="M5.76 4.16c-.82 0-1.48.67-1.48 1.48 0 .82.66 1.5 1.48 1.5s1.48-.68 1.48-1.5c0-.8-.66-1.48-1.48-1.48m9.46 16.48L3.02 8.44c-1.48-1.5-1.48-3.9 0-5.4 1.5-1.5 3.93-1.5 5.43 0l12.2 12.18-5.43 5.42z"/></g><g><path fill="#f4900c" d="M30.83 2.72C32 1.55 33.85 1.5 34.95 2.6s1.05 2.95-.12 4.12L11.57 30c-1.17 1.15-3.03 1.2-4.13.1-1.1-1.1-1.04-2.95.13-4.1L30.83 2.7z"/></g><g><path fill="#66757f" d="M21.44 35.1s-6 3-11-2c-4.5-4.5-7-7-7-7s-1 1-2 0l-1-1s-1-1 0-2 4-4 4-4 1-1 2 0l1 1s1 1 0 2c-.02.03-.05.06-.07.1.77.73 1.92 1.5 3.07.9l4 4s-1 3 1 5 3 2 5 2 1 1 1 1"/></g></g></g></g></svg>