<svg xmlns="http://www.w3.org/2000/svg" viewBox="0 0 45 45" enable-background="new 0 0 45 45"><defs><clipPath id="a"><path d="M0 36h36V0H0v36z"/></clipPath><clipPath id="b"><path d="M27.77 30.96L8.72 26.83c-1.9-.4-6.54-2.9-6.1-4.9.4-1.9 7.67-1.92 9.56-1.5l17.08 3.7c1.88.4 6.12 2.4 5.7 4.3-.34 1.6-3.98 2.62-6.2 2.62-.38 0-.7-.03-1-.1"/></clipPath><clipPath id="c"><path d="M0 36h36V0H0v36z"/></clipPath></defs><g><path fill="#5d9040" d="M0 45h45V28.75H0V45z"/><path fill="#ccd6dd" d="M0 38.75h45v-7.5H0v7.5z"/><g><g clip-path="url(#a)" transform="matrix(1.25 0 0 -1.25 0 45)"><g><path fill="#f5f8fa" d="M10 8c0-.55-.45-1-1-1H3c-.55 0-1 .45-1 1s.45 1 1 1h6c.55 0 1-.45 1-1"/></g><g><path fill="#f5f8fa" d="M22 8c0-.55-.45-1-1-1h-6c-.55 0-1 .45-1 1s.45 1 1 1h6c.55 0 1-.45 1-1"/></g><g><path fill="#f5f8fa" d="M34 8c0-.55-.45-1-1-1h-6c-.55 0-1 .45-1 1s.45 1 1 1h6c.55 0 1-.45 1-1"/></g><g><path fill="#67757f" d="M20.5 19.66c.18-.8-.34-1.6-1.15-1.78-.8-.18-1.6.34-1.78 1.15-.18.8.34 1.6 1.15 1.78.8.2 1.6-.33 1.78-1.14"/></g><g><path fill="#67757f" d="M29.96 23.25c.17-.8-.34-1.6-1.15-1.8-.8-.16-1.6.35-1.78 1.16-.17.82.34 1.62 1.15 1.8.8.17 1.6-.34 1.8-1.15"/></g><g><path fill="#67757f" d="M28.77 24c.05-.26-.12-.52-.4-.58-.26-.06-.52.1-.58.38l-.43 1.96c-.06.27.1.53.38.6.27.05.53-.12.6-.4l.42-1.95z"/></g><g><path fill="#5dadec" d="M16.35 24.66c1.04-1.1 8 .97 5.68 2.26-7.06 4.56-12.93 4.5-11.17 2.85 2-1.85 3.3-3.23 5.5-5.1"/></g><g><path fill="#ccd6dd" d="M34.97 28.42c.4-1.88-3.83-3.9-5.7-4.3l-17.1-3.7c-1.88-.4-9.15-.38-9.55 1.5-.44 2.02 4.2 4.5 6.1 4.9l19.05 4.14c1.9.4 6.8-.65 7.2-2.54"/></g></g></g><g><g clip-path="url(#b)" transform="matrix(1.25 0 0 -1.25 0 45)"><g><path fill="#67757f" d="M29.5 29.9c.46.38 1.3.64 1.6 1.23.28.6 2.1.06 1.77-.55-.3-.62-1.33-1.6-2.54-2.06-1.2-.45-1.4.95-.84 1.4"/></g></g></g><g><g clip-path="url(#c)" transform="matrix(1.25 0 0 -1.25 0 45)"><g><path fill="#5dadec" d="M2.53 22.3c-.18.83-1.27 5.87-1.45 6.7-.53 2.45 3.6-.75 5.76-2.85-1.8-.92-3.5-1.9-4.3-3.84"/></g><g><path fill="#9aaab4" d="M27.92 27.92c.12-.54-.23-1.07-.77-1.2-.54-.1-1.07.24-1.2.78-.1.54.24 1.07.78 1.18.54.12 1.07-.22 1.2-.76"/></g><g><path fill="#9aaab4" d="M25 27.28c.1-.53-.24-1.07-.78-1.18-.54-.12-1.07.22-1.2.76-.1.54.24 1.07.78 1.2.54.1 1.07-.24 1.2-.78"/></g><g><path fill="#9aaab4" d="M22.06 26.65c.1-.54-.23-1.07-.77-1.2-.55-.1-1.08.24-1.2.78-.12.54.23 1.07.77 1.18.54.13 1.07-.2 1.2-.75"/></g><g><path fill="#9aaab4" d="M19.12 26c.12-.53-.22-1.06-.76-1.17-.54-.12-1.07.22-1.2.76-.1.53.23 1.06.77 1.18.54.12 1.08-.23 1.2-.77"/></g><g><path fill="#9aaab4" d="M16.2 25.38c.1-.54-.23-1.07-.77-1.2-.54-.1-1.08.24-1.2.78-.1.53.23 1.07.77 1.18.54.12 1.07-.22 1.2-.76"/></g><g><path fill="#9aaab4" d="M13.26 24.74c.12-.54-.23-1.07-.77-1.2-.55-.1-1.08.24-1.2.78-.1.54.23 1.07.77 1.2.54.1 1.07-.24 1.2-.78"/></g><g><path fill="#5dadec" d="M3.38 22.1c.87.75 4.02 1.37 2.4-1.02-2.3-3.57-4.52-4-4.06-2.87.53 1.28 1.05 2.57 1.66 3.9"/></g><g><path fill="#5dadec" d="M15.63 22.8c.5 1.4 7.7 2.43 6.1.3-4.54-7.07-9.9-9.44-8.98-7.22 1.04 2.5 1.67 4.3 2.88 6.92"/></g></g></g></g></svg>