<svg xmlns="http://www.w3.org/2000/svg" viewBox="0 0 45 45" enable-background="new 0 0 45 45"><defs><clipPath id="a"><path d="M0 36h36V0H0v36z"/></clipPath></defs><g><g><g clip-path="url(#a)" transform="matrix(1.25 0 0 -1.25 0 45)"><g><path fill="#88c9f9" d="M36 4s0-4-4-4H4S0 0 0 4v28c0 4 4 4 4 4h28c4 0 4-4 4-4V4z"/></g><g><path fill="#77b255" d="M0 4c0-4 4-4 4-4h28c4 0 4 4 4 4v13H0V4z"/></g><g><path fill="#c1694f" d="M22.38 17h-8.75L2.26.38C3.16 0 4 0 4 0h28c.7 0 1.3.13 1.77.34L22.37 17z"/></g><g><path fill="#5c913b" d="M3.56 20.88c2.14 0 3.56-2.26 4.62-2.26 1.07 0 1.2.5 2.63.5S12.68 17 14.24 17H0v2s1.34 1.88 3.56 1.88"/></g><g><path fill="#5c913b" d="M32.44 19.7c-2.14 0-3.56-1.08-4.62-1.08-1.07 0-1.27.13-2.7.13-1.42 0-1.8-1.75-3.35-1.75H36v2s-1.34.7-3.56.7"/></g><g><path fill="#f5f8fa" d="M29.3 31.32c-.26 0-.53-.04-.77-.12-.3.85-1.1 1.45-2.04 1.45-1.03 0-1.87-.7-2.1-1.63-.26.18-.57.3-.9.3-.83 0-1.5-.67-1.5-1.5 0-.2.04-.4.1-.56-.13.04-.28.07-.44.07-.92 0-1.66-.75-1.66-1.67 0-.92.74-1.66 1.66-1.66h7.65c1.48 0 2.67 1.2 2.67 2.66 0 1.47-1.2 2.66-2.66 2.66"/></g><g><path fill="#ccd6dd" d="M4 0h28L21.37 17h-6.75L4 0z"/></g><g><path fill="#58595b" d="M6.63 0h22.75l-8.75 17h-5.25L6.62 0z"/></g><g><path fill="#808285" d="M9.25 0h17.5l-6.88 17h-3.75L9.25 0z"/></g><g><path fill="#a7a9ac" d="M28 1c0-.55-.45-1-1-1H9c-.55 0-1 .45-1 1s.45 1 1 1h18c.55 0 1-.45 1-1"/></g><g><path fill="#a7a9ac" d="M26 5c0-.55-.45-1-1-1H11c-.55 0-1 .45-1 1s.45 1 1 1h14c.55 0 1-.45 1-1"/></g><g><path fill="#a7a9ac" d="M24 9c0-.55-.45-1-1-1H13c-.55 0-1 .45-1 1s.45 1 1 1h10c.55 0 1-.45 1-1"/></g><g><path fill="#a7a9ac" d="M22 12.3c0-.4-.22-.7-.5-.7h-7c-.28 0-.5.3-.5.7 0 .4.22.7.5.7h7c.28 0 .5-.3.5-.7"/></g><g><path fill="#a7a9ac" d="M21 14.67c0-.22-.18-.4-.4-.4h-5.2c-.22 0-.4.17-.4.4v.2c0 .22.18.4.4.4h5.2c.22 0 .4-.18.4-.4v-.2z"/></g><g><path fill="#a7a9ac" d="M20 16.77c0-.1-.18-.4-.4-.4h-3.2c-.22 0-.4.3-.4.4v.08c0 .08.18.15.4.15h3.2c.22 0 .4-.07.4-.15v-.08z"/></g></g></g></g></svg>