<svg xmlns="http://www.w3.org/2000/svg" viewBox="0 0 45 45" enable-background="new 0 0 45 45"><defs><clipPath id="a"><path d="M0 36h36V0H0v36z"/></clipPath><clipPath id="b"><path d="M4.76 31.56C1.96 16.16 6.4 6.26 18 2.12c11.6 4.15 16.04 14.05 13.24 29.44C24.96 33.96 18.07 34 18 34c-.07 0-6.94-.03-13.24-2.44"/></clipPath></defs><g><g><g clip-path="url(#a)" transform="matrix(1.25 0 0 -1.25 0 45)"><g><path fill="#ccd6dd" d="M33 33c-7 3-15 3-15 3s-8 0-15-3C0 18 3 5 18 0c15 5 18 18 15 33"/></g><g><path fill="#55acee" d="M18 2.12C6.4 6.27 1.96 16.17 4.76 31.56 11.06 33.96 17.93 34 18 34c.07 0 6.96-.04 13.24-2.44C34.04 16.16 29.6 6.26 18 2.12"/></g></g></g><g><g clip-path="url(#b)" transform="matrix(1.25 0 0 -1.25 0 45)"><path fill="#269" d="M33 2H18v32h15V2z"/></g></g></g></svg>