<svg xmlns="http://www.w3.org/2000/svg" viewBox="0 0 45 45" enable-background="new 0 0 45 45"><defs><clipPath id="a"><path d="M0 36h36V0H0v36z"/></clipPath></defs><g><g><g clip-path="url(#a)" transform="matrix(1.25 0 0 -1.25 0 45)"><g><path fill="#292f33" d="M9 4.5C9 2.02 6.98 0 4.5 0 2 0 0 2.02 0 4.5S2 9 4.5 9C6.98 9 9 6.98 9 4.5"/></g><g><path fill="#dd2e44" d="M1.5 4.5c0 1.66 1.34 3 3 3s3-1.34 3-3-1.34-3-3-3-3 1.34-3 3"/></g><g><path fill="#292f33" d="M36 4.5C36 2.02 33.98 0 31.5 0 29 0 27 2.02 27 4.5S29 9 31.5 9C33.98 9 36 6.98 36 4.5"/></g><g><path fill="#dd2e44" d="M28.5 4.5c0 1.66 1.34 3 3 3s3-1.34 3-3-1.34-3-3-3-3 1.34-3 3"/></g><g><path fill="#55acee" d="M31.5 3h-20c-.82 0-1.5.68-1.5 1.5S10.68 6 11.5 6h20c.82 0 1.5-.67 1.5-1.5 0-.82-.68-1.5-1.5-1.5"/></g><g><path fill="#55acee" d="M26 4.25c0 .1 0 .17 0 .25 0 3.04 2.46 5.5 5.5 5.5 1.2 0 2.33-.4 3.23-1.06l.9 1.2c-1.16.85-2.6 1.36-4.13 1.36-3.87 0-7-3.13-7-7 0-.1 0-.2.02-.3.5.02 1 .03 1.5.05"/></g><g><path fill="#55acee" d="M5.63 9.88C8.13 9.36 10 7.15 10 4.5h3.5c0 4.34-3.07 7.96-7.16 8.8-.24-1.12-.48-2.3-.7-3.42"/></g><g><path fill="#99aab5" d="M4.4 4c-.27.06-.45.33-.4.6l6 28.23c.07.27.34.45.6.4.27-.07.45-.34.4-.6L5 4.4c-.07-.28-.34-.45-.6-.4"/></g><g><path fill="#55acee" d="M6.12 9.74l-.97.2c-.54.12-.9.66-.77 1.2L5.62 17c.12.54.65.9 1.2.77l.97-.2c.52-.12.87-.65.76-1.2L7.3 10.52c-.1-.53-.64-.87-1.18-.76"/></g><g><path fill="#dd2e44" d="M9.3 31.68l-1.96.4c-.8.18-1.32.98-1.15 1.8.16.8.96 1.32 1.77 1.15l1.95-.42c.8-.16 1.33-.96 1.16-1.77-.17-.8-.97-1.33-1.78-1.15"/></g><g><path fill="#55acee" d="M10.84 34.32c-.8.18-1.6-.34-1.78-1.15L7.7 26.8c-.1-.53.24-1.06.78-1.17l.98-.2c.54-.13 1.07.22 1.18.76L12 32.54c.17.8-.35 1.6-1.16 1.77"/></g><g><path fill="#dd2e44" d="M14.1 30.65l-2.93.63c-.8.17-1.33.97-1.15 1.78.17.8.97 1.32 1.77 1.15l2.93-.6c.8-.18 1.33-.98 1.15-1.8-.17-.8-.97-1.32-1.77-1.15"/></g><g><path fill="#ea596e" d="M15.9 31.8c-.17-.8-.97-1.32-1.78-1.15-.8.17-1.32.97-1.15 1.78.17.8.97 1.33 1.78 1.16.8-.2 1.33-.98 1.15-1.8"/></g><g><path fill="#55acee" d="M35.93 9.54c0-.4-.33-.74-.74-.74-.42 0-.75.33-.75.74 0 .4.33.74.74.74.4 0 .73-.33.73-.74"/></g></g></g></g></svg>