<svg xmlns="http://www.w3.org/2000/svg" viewBox="0 0 45 45" enable-background="new 0 0 45 45"><defs><clipPath id="a"><path d="M0 36h36V0H0v36z"/></clipPath></defs><g><g><g clip-path="url(#a)" transform="matrix(1.25 0 0 -1.25 0 45)"><g><path fill="#dd2e44" d="M33.8 19s-1.32-3-15.8-3-16.03 3-16.03 3S-1 13.88 4.8 11c4.24-2.1 10.92.13 12.72.8 2-.67 9.28-2.8 13.56-.8 5.86 2.75 2.7 8 2.7 8"/></g><path fill="#55acee" d="M36 12H0V0h36v12z"/><g><path fill="#ffac33" d="M27 10.6c.2 0 .42.1.58.25.3.3.3.82 0 1.14l-8.87 8.85c-.3.3-.8.3-1.12 0-.32-.32-.32-.83 0-1.14l8.86-8.85c.15-.16.36-.24.57-.24"/></g><g><path fill="#ffcc4d" d="M29.32 7.5c.4 0 .82.15 1.13.47.63.63.63 1.65 0 2.27l-2.4 2.42c-.64.63-1.66.63-2.3 0-.62-.63-.62-1.65 0-2.28l2.43-2.4c.3-.33.72-.5 1.14-.5"/></g></g></g></g></svg>