<svg xmlns="http://www.w3.org/2000/svg" viewBox="0 0 45 45" enable-background="new 0 0 45 45"><defs><clipPath id="a"><path d="M0 36h36V0H0v36z"/></clipPath></defs><g><g><g clip-path="url(#a)" transform="matrix(1.25 0 0 -1.25 0 45)"><g><path fill="#f4900c" d="M32 12h-1c-.55 0-1 .45-1 1s.45 1 1 1h1c.55 0 1-.45 1-1s-.45-1-1-1"/></g><g><path fill="#292f33" d="M10 4.5C10 2.02 7.98 0 5.5 0 3 0 1 2.02 1 4.5S3 9 5.5 9C7.98 9 10 6.98 10 4.5"/></g><g><path fill="#292f33" d="M34 4.5C34 2.02 31.98 0 29.5 0 27 0 25 2.02 25 4.5S27 9 29.5 9C31.98 9 34 6.98 34 4.5"/></g><g><path fill="#99aab5" d="M8 4.5C8 3.12 6.88 2 5.5 2S3 3.12 3 4.5 4.12 7 5.5 7 8 5.88 8 4.5"/></g><g><path fill="#99aab5" d="M32 4.5C32 3.12 30.88 2 29.5 2S27 3.12 27 4.5 28.12 7 29.5 7 32 5.88 32 4.5"/></g><g><path fill="#dd2e44" d="M5.85 11.92l2.62 7L8 20s-.92 0-1 1c-.08 1 2.4 3.08 3 3 .6-.08 0-2 0-2s2.32-.56 2-2c-.32-1.44-2.38-8.7-2.38-8.7S11.37 10.45 12 9c.45-1.03 1.68-1.02 3-1 1.32.02 4.4 0 5 2 .6 2 1 3 1 3l-1 1 10 2s-.9-1.98 1-3c2.17-1.17 2.86-2.67 4-5 .75-1.53.45-1.9-1-2-1.94-.14-4.44-.38-5.8-.53-1.2-.14-2.27-1.65-4.15-1.65C22.17 3.82 14 3.77 12 4c-3.5.4-4.76 3-10 3-2.07 0-1.06 1.56.03 2.67 1.2 1.22 3.8 2.4 3.82 2.25"/></g><g><path fill="#be1931" d="M22 3h-3c-1.1 0-2 .9-2 2s.9 2 2 2h3c1.1 0 2-.9 2-2s-.9-2-2-2"/></g><g><path fill="#be1931" d="M19 3h-5c-.55 0-1 .45-1 1s.45 1 1 1h5c.55 0 1-.45 1-1s-.45-1-1-1"/></g><g><path fill="#292f33" d="M22 14c-1.62 0-2.43-.3-3 1-.57 1.3-.02 2 1 2s5.73.18 8 1c2.27.82 3.05.83 3 0-.05-.83-1-2-1-2s-1.25-2-8-2"/></g><g><path fill="#292f33" d="M14 20h-3.25c-.55 0-1 .45-1 1s.45 1 1 1H14c.55 0 1-.45 1-1s-.45-1-1-1"/></g><g><path fill="#f4900c" d="M7.5 20c-.28 0-.5.23-.5.5v1c0 .27.22.5.5.5s.5-.23.5-.5v-1c0-.28-.22-.5-.5-.5"/></g><g><path fill="#292f33" d="M13.06 23h-.12c-.52 0-.94.42-.94.94v2.12c0 .52.42.94.94.94h.12c.52 0 .94-.42.94-.94v-2.12c0-.52-.42-.94-.94-.94"/></g><g><path fill="#292f33" d="M9.98 20.93l-.02.03c-.2.18-.2.5 0 .68l2.85 2.85c.2.18.5.18.7 0l.02-.03c.2-.2.2-.5 0-.68l-2.85-2.87c-.2-.18-.5-.18-.7 0"/></g></g></g></g></svg>