<svg xmlns="http://www.w3.org/2000/svg" viewBox="0 0 45 45" enable-background="new 0 0 45 45"><defs><clipPath id="a"><path d="M0 36h36V0H0v36z"/></clipPath></defs><g><g><path fill="#99aab5" d="M13.3 27.44l-2.66-2.65L23.9 11.52l2.65 2.65L13.3 27.44z"/></g><g><g clip-path="url(#a)" transform="matrix(1.25 0 0 -1.25 0 45)"><g><path fill="#55acee" d="M8.5 6.27c-.77-.78-2.03-.78-2.8 0L.73 11.22c-.78.78-.78 2.05 0 2.83L5.7 19c.77.78 2.03.78 2.8 0l4.96-4.95c.8-.78.8-2.05 0-2.83L8.5 6.27z"/></g><g><path fill="#55acee" d="M24.78 22.54c-.78-.8-2.05-.8-2.83 0L17 27.5c-.78.77-.78 2.03 0 2.8l4.95 4.96c.78.8 2.05.78 2.83 0l4.95-4.95c.78-.77.78-2.03 0-2.8l-4.95-4.96z"/></g><g><path fill="#99aab5" d="M12.4 25.72s-.7 2.12-1.4 4.24c-.46 1.34-1.43 1.4-2.13.7s-2.12-2.1-2.83-2.82c-.7-.7-.64-1.68.7-2.12C8.88 25.02 11 24.3 11 24.3l1.4 1.42z"/></g><g><path fill="#ccd6dd" d="M17.7 14.05c-.77-.78-2.04-.78-2.82 0L7.8 21.12c-.77.78-.77 2.05 0 2.83l4.25 4.24c.78.77 2.05.77 2.83 0l7.07-7.08c.78-.78.78-2.05 0-2.83l-4.24-4.25z"/></g><g><path fill="#ccd6dd" d="M21.02 14.95c-1.96-1.96-4.8-2.27-6.37-.7-1.56 1.55.88 2.28 2.83 4.23 1.95 1.95 2.68 4.4 4.24 2.83 1.57-1.55 1.25-4.4-.7-6.35"/></g><g><path fill="#99aab5" d="M27.96 15.82c-2.12 2.12-5.12 1.95-7.07 0-1.96-1.96-2.13-4.95 0-7.07l7.06 7.07z"/></g><g><path fill="#99aab5" d="M25.13 13l2.12-3.55-3.53 2.13 1.4 1.4z"/></g><g><path fill="#99aab5" d="M27.8 8.9c-.38-.4-1-.4-1.4 0-.4.38-.4 1.02 0 1.4.4.4 1.02.4 1.4 0 .4-.38.4-1.02 0-1.4"/></g><g><path fill="#88c9f9" d="M4.27 17.6L5.7 19l7.76-7.78-1.4-1.4-7.8 7.77z"/></g><g><path fill="#88c9f9" d="M26.2 23.95l-1.42-1.4L17 30.3l1.4 1.43 7.8-7.78z"/></g><g><path fill="#88c9f9" d="M.74 14.05l1.4 1.4 7.8-7.76L8.5 6.26.75 14.05z"/></g><g><path fill="#88c9f9" d="M29.73 27.5l-1.42-1.43-7.76 7.78 1.4 1.4 7.8-7.76z"/></g><g><path fill="#99aab5" d="M8.3 28.4c-.38-.4-1.02-.4-1.4 0-.4.4-.4 1.02 0 1.4.38.4 1.02.4 1.4 0 .4-.38.4-1 0-1.4"/></g><g><path fill="#ffac33" d="M23.68 5.57c0 .02 0 .03 0 .05.03.55.5.98 1.05.95.02 0 2.16-.06 3.8 1.58 1.64 1.64 1.58 3.77 1.58 3.8-.02.55.4 1.02.96 1.05.55.03 1.02-.4 1.05-.95.02-.12.13-3.03-2.15-5.3-2.3-2.3-5.2-2.18-5.32-2.18-.53.03-.95.47-.95 1"/></g><g><path fill="#ffac33" d="M24.24 2c0 .12.02.23.06.34.18.52.75.8 1.27.6.1-.02 2.88-.88 5.96 2.2 3.13 3.14 2.42 6.14 2.38 6.26-.12.53.2 1.08.73 1.22.53.14 1.07-.17 1.22-.7.04-.17 1.07-4.2-2.9-8.18C28.93-.28 25.07 1 24.9 1.07c-.4.14-.66.53-.66.94"/></g></g></g></g></svg>