<svg xmlns="http://www.w3.org/2000/svg" viewBox="0 0 45 45" enable-background="new 0 0 45 45"><defs><clipPath id="a"><path d="M0 36h36V0H0v36z"/></clipPath></defs><g><g><g clip-path="url(#a)" transform="matrix(1.25 0 0 -1.25 0 45)"><g><path fill="#d5ab88" d="M27.72 29.82c-3.22-.85-10.94-3.12-12.78-3.9-4.25-1.84-7.5-5.32-7.45-9.2.05-4.23 1.76-6.96 7.88-8.06 6.2-1.12 10.24-1.44 12.62-1.8 3.45-.5 4.32 4.6.67 5.06 0 0 3.17.44 5.13.66 2.3.26 2.47 2.1 1.97 4.58-.5 2.52-2.3 6.9-3.2 9.14-1.14 2.86-2.3 4.2-4.85 3.52"/></g><g><path fill="#d5ab88" d="M14.86 25.84c-3.22-1.04-7.68-1.14-11.6-.77-2 .2-3.26.2-3.26-1.44v-10.6c0-2 .73-1.97 2.87-1.68 3.27.43 5.13 1.22 8.25-1.35 2.18-1.8 9.8 17.8 3.74 15.84"/></g><g><path fill="#b78b60" d="M30.98 8.9s.3 2.74-2.36 3c-1.57.17-3.68.43-4.48.52-1.37.16-1.66 1.34-1.3 2.37.34 1 2.48 6.28 3 7.63.38 1 1.36.66 1.72-.07.67-1.33 1.83-3.84 1.98-4.25.35-.9-.73-1.55-1.24-.63-.35.63-1.63 3.65-1.63 3.65s-2.4-5.8-2.66-6.52c-.2-.65.08-1.03.72-1.12.64-.1 3.48-.44 4.34-.58 1.44-.22 2.53-1.66 1.92-4"/></g><g><path fill="#b78b60" d="M28.43 18.4s-1.03-.45-1.83-.74c-.8-.28-.5-1.4.32-1.18.83.23 2.18.58 2.18.58l-.67 1.34z"/></g><g><path fill="#b78b60" d="M31.94 26.55c-.4.83-1.3.35-1.1-.32.24-.67 3.63-8.76 3.95-9.6.3-.82.82-.63.56.24-.25.86-2.94 8.66-3.42 9.68"/></g><g><path fill="#b78b60" d="M26.67 21.12c.4-1.4-.06-3.1-.44-3.84l2.43.9-2 2.94z"/></g></g></g></g></svg>