<?xml version="1.0" encoding="UTF-8" standalone="no"?><svg xmlns:dc="http://purl.org/dc/elements/1.1/" xmlns:cc="http://creativecommons.org/ns#" xmlns:rdf="http://www.w3.org/1999/02/22-rdf-syntax-ns#" xmlns:svg="http://www.w3.org/2000/svg" xmlns="http://www.w3.org/2000/svg" viewBox="0 0 45 45" style="enable-background:new 0 0 45 45;" xml:space="preserve" version="1.1" id="svg2"><metadata id="metadata8"><rdf:RDF><cc:Work rdf:about=""><dc:format>image/svg+xml</dc:format><dc:type rdf:resource="http://purl.org/dc/dcmitype/StillImage"/></cc:Work></rdf:RDF></metadata><defs id="defs6"><clipPath id="clipPath16" clipPathUnits="userSpaceOnUse"><path id="path18" d="M 0,36 36,36 36,0 0,0 0,36 Z"/></clipPath></defs><g transform="matrix(1.25,0,0,-1.25,0,45)" id="g10"><g id="g12"><g clip-path="url(#clipPath16)" id="g14"><g transform="translate(1,18.9824)" id="g20"><path id="path22" style="fill:#ffcb4c;fill-opacity:1;fill-rule:nonzero;stroke:none" d="m 0,0 c 0,-9.39 7.611,-17 17,-17 9.39,0 17,7.61 17,17 C 34,9.389 26.39,17 17,17 7.611,17 0,9.389 0,0"/></g><g transform="translate(14.5239,14.9639)" id="g24"><path id="path26" style="fill:#65471b;fill-opacity:1;fill-rule:nonzero;stroke:none" d="M 0,0 C -0.145,0.116 -0.258,0.274 -0.312,0.464 -0.446,0.924 -0.183,1.383 0.277,1.485 4.806,2.507 7.854,0.123 7.983,0.021 8.367,-0.285 8.443,-0.824 8.157,-1.185 7.871,-1.543 7.329,-1.586 6.946,-1.281 6.835,-1.198 4.422,0.642 0.764,-0.184 0.49,-0.245 0.21,-0.168 0,0"/></g><g transform="translate(15.2441,24.8262)" id="g28"><path id="path30" style="fill:#65471b;fill-opacity:1;fill-rule:nonzero;stroke:none" d="m 0,0 c 0,-1.468 -0.952,-2.656 -2.125,-2.656 -1.173,0 -2.125,1.188 -2.125,2.656 0,1.467 0.952,2.656 2.125,2.656 C -0.952,2.656 0,1.467 0,0"/></g><g transform="translate(26.5,23.7637)" id="g32"><path id="path34" style="fill:#65471b;fill-opacity:1;fill-rule:nonzero;stroke:none" d="m 0,0 c 0,-1.468 -0.95,-2.656 -2.125,-2.656 -1.173,0 -2.125,1.188 -2.125,2.656 0,1.467 0.952,2.656 2.125,2.656 C -0.95,2.656 0,1.467 0,0"/></g><g transform="translate(17.2764,0.8506)" id="g36"><path id="path38" style="fill:#f19020;fill-opacity:1;fill-rule:nonzero;stroke:none" d="m 0,0 c 0,0 1.265,0.411 1.429,1.352 0.173,0.971 -0.624,1.167 -0.624,1.167 0,0 1.041,0.208 1.172,1.376 0.123,1.1 -0.862,1.363 -0.862,1.363 0,0 0.97,0.4 1.016,1.539 0.038,0.959 -0.995,1.428 -0.995,1.428 0,0 5.038,1.22 5.555,1.34 0.516,0.121 1.321,0.616 1.07,1.695 -0.249,1.08 -1.204,1.118 -1.698,1.003 -0.494,-0.116 -6.744,-1.567 -8.9,-2.069 -0.23,-0.053 -1.308,-0.302 -1.439,-0.334 -0.54,-0.127 -0.785,0.111 -0.405,0.512 0.509,0.536 0.833,1.129 0.947,2.113 0.119,1.036 -0.232,2.314 -0.433,2.809 -0.374,0.921 -1.005,1.649 -1.734,1.899 -1.138,0.39 -1.946,-0.321 -1.542,-1.561 0.604,-1.855 0.209,-3.375 -0.833,-4.293 -2.449,-2.157 -3.589,-3.695 -2.83,-6.973 0.827,-3.575 4.377,-5.876 7.952,-5.048 C -2.965,-0.64 0,0 0,0"/></g><g transform="translate(9.2959,29.6494)" id="g40"><path id="path42" style="fill:#65471b;fill-opacity:1;fill-rule:nonzero;stroke:none" d="M 0,0 C -0.164,0.087 -0.303,0.223 -0.391,0.398 -0.607,0.827 -0.431,1.325 0.002,1.511 4.268,3.341 7.701,1.554 7.845,1.477 8.278,1.246 8.453,0.729 8.236,0.323 8.02,-0.082 7.496,-0.223 7.063,0.005 6.94,0.069 4.231,1.437 0.785,-0.042 0.528,-0.151 0.238,-0.127 0,0"/></g><g transform="translate(21.4307,25.8994)" id="g44"><path id="path46" style="fill:#65471b;fill-opacity:1;fill-rule:nonzero;stroke:none" d="M 0,0 C -0.156,0.098 -0.286,0.243 -0.362,0.424 -0.549,0.866 -0.339,1.352 0.105,1.508 4.486,3.044 7.79,1.028 7.929,0.941 8.344,0.681 8.483,0.154 8.24,-0.237 7.998,-0.626 7.464,-0.731 7.049,-0.475 6.929,-0.402 4.321,1.146 0.782,-0.095 0.518,-0.187 0.23,-0.143 0,0"/></g></g></g></g></svg>
