<svg xmlns="http://www.w3.org/2000/svg" viewBox="0 0 45 45" enable-background="new 0 0 45 45"><defs><clipPath id="a"><path d="M0 0h36v36H0V0z"/></clipPath></defs><g><g><g clip-path="url(#a)" transform="matrix(1.25 0 0 -1.25 0 45)"><g><path fill="#ffcc4d" d="M36 18c0-9.94-8.06-18-18-18S0 8.06 0 18s8.06 18 18 18 18-8.06 18-18"/></g><g><path fill="#664500" d="M14.03 21.5c0-1.93-1.1-3.5-2.5-3.5-1.38 0-2.5 1.57-2.5 3.5s1.12 3.5 2.5 3.5c1.4 0 2.5-1.57 2.5-3.5"/></g><g><path fill="#664500" d="M27.03 21.5c0-1.93-1.1-3.5-2.5-3.5-1.38 0-2.5 1.57-2.5 3.5s1.12 3.5 2.5 3.5c1.4 0 2.5-1.57 2.5-3.5"/></g><g><path fill="#664500" d="M25 9H10c-1 0-1 1-1 1v1s0 1 1 1 15 0 15 0V9z"/></g><path fill="#9aaab4" d="M14 8h-2v3h2V8z"/><path fill="#9aaab4" d="M16 13h-2v-3h2v3z"/><path fill="#9aaab4" d="M12 13h-2v-3h2v3z"/><path fill="#9aaab4" d="M18 8h-2v3h2V8z"/><path fill="#9aaab4" d="M20 13h-2v-3h2v3z"/><path fill="#9aaab4" d="M22 8h-2v3h2V8z"/><path fill="#9aaab4" d="M24 13h-2v-3h2v3z"/><g><path fill="#99aab5" d="M31.48 3.84l2.3 4.2-3.33 1.12-1.6-3.07 2.63-2.26zm-5.17 7.5s.28.96 1.24.7l7.7-2.12s.98-.27.7-1.23c-.25-.98-3.16-6.33-3.9-7-.87-.8-1.77.08-1.77.08S25.6 5.98 25 6.52c-.64.53-.4 1.27-.4 1.27l1.7 3.54z"/></g><g><path fill="#99aab5" d="M24.82 7.95l-1.76.84 1.67 3.47 1.76-.83-1.68-3.5z"/></g></g></g></g></svg>