<svg xmlns="http://www.w3.org/2000/svg" viewBox="0 0 45 45" enable-background="new 0 0 45 45"><defs><clipPath id="a"><path d="M0 36h36V0H0v36z"/></clipPath><clipPath id="b"><path d="M13.66 7.34c.7.44 2.1 1.06 4.46 1.08 3.6.02 4.97-1.44 4.97-1.44L36 16.52v3.98L34 23S17 9.9 13.66 7.34m-.57-.42c-.03-.02.18.14.56.42-.4-.24-.56-.42-.57-.42"/></clipPath></defs><g><g><g clip-path="url(#a)" transform="matrix(1.25 0 0 -1.25 0 45)"><g><path fill="#ffcc4d" d="M36 18c0-9.94-8.06-18-18-18S0 8.06 0 18s8.06 18 18 18 18-8.06 18-18"/></g><g><path fill="#664500" d="M15 19.5c0-1.93-1.12-3.5-2.5-3.5S10 17.57 10 19.5s1.12 3.5 2.5 3.5 2.5-1.57 2.5-3.5"/></g><g><path fill="#664500" d="M26 19.5c0-1.93-1.12-3.5-2.5-3.5S21 17.57 21 19.5s1.12 3.5 2.5 3.5 2.5-1.57 2.5-3.5"/></g><g><path fill="#664500" d="M23.5 6.62c-.03.05-1.16 2.88-5.5 2.88s-5.47-2.83-5.48-2.88c-.06-.2.04-.43.23-.54.18-.1.43-.1.6.06 0 0 1 .86 4.65.86 3.6 0 4.62-.83 4.66-.86.1-.1.22-.14.34-.14.08 0 .17.02.25.06.2.12.3.34.24.56"/></g><g><path fill="#664500" d="M29 24c-5.55 0-7.8 4.37-7.9 4.55-.24.5-.04 1.1.45 1.34.5.24 1.1.04 1.34-.45.07-.14 1.8-3.45 6.1-3.45.55 0 1-.45 1-1s-.45-1-1-1"/></g><g><path fill="#664500" d="M7 24c-.55 0-1 .45-1 1 0 .56.45 1 1 1 5.08 0 6 3.13 6.03 3.26.15.53.7.85 1.22.7.53-.13.85-.67.72-1.2C14.92 28.56 13.7 24 7 24"/></g></g></g><g><g clip-path="url(#b)" transform="matrix(1.25 0 0 -1.25 0 45)"><g><path fill="#ccd6dd" d="M12.13 5.9l19.8 14.86c1.1.83 2.67.6 3.5-.5.83-1.1.6-2.67-.5-3.5L19.26 5l-7.13.9z"/></g><g><path fill="#da2f47" d="M16.14 4.1c-.6-.44-1.44-.32-1.9.27-.43.6-.3 1.44.28 1.9l12.74 9.55c.6.44.94-.1 1.38-.7.45-.6.84-1.02.24-1.46L16.14 4.1z"/></g><g><path fill="#67757f" d="M18.6 10.77l1.23-1.6.74.6-1.2 1.6-.77-.6z"/></g><g><path fill="#67757f" d="M20.82 12.43l1.24-1.6.74.6-1.2 1.6-.78-.6z"/></g><g><path fill="#67757f" d="M23 14.05l1.24-1.6.74.6-1.2 1.6-.77-.6z"/></g><g><path fill="#67757f" d="M25.2 15.7l1.22-1.6.74.6-1.2 1.6-.77-.6z"/></g><g><path fill="#67757f" d="M27.42 17.35l1.24-1.6.74.6-1.2 1.6-.78-.6z"/></g><g><path fill="#67757f" d="M29.57 18.97l1.23-1.6.74.6-1.2 1.58-.77-.58z"/></g></g></g></g></svg>