<svg xmlns="http://www.w3.org/2000/svg" viewBox="0 0 45 45" enable-background="new 0 0 45 45"><defs><clipPath id="a"><path d="M0 36h36V0H0v36z"/></clipPath></defs><g><g><path fill="#d5ab88" d="M21.3 15.78l-2.6 7h5.15l-2.54-7z"/></g><g><g clip-path="url(#a)" transform="matrix(1.25 0 0 -1.25 0 45)"><g><path fill="#b78b60" d="M17.8 30.35c.2-.45.24-1 .06-1.5L13.9 18H11l-.35-1h4.25l3.96 10.86c.36.98-.12 2.06-1.06 2.5"/></g><g><path fill="#b78b60" d="M11.66 26.48l.82-2.2 2.25 6.24-.96 1.77-2.1-5.82z"/></g><g><path fill="#b78b60" d="M27 16c-1.1 0-2-.9-2-2v5.04c0 1.3-1.05 2.34-2.34 2.34h-.32c-1.3 0-2.34-1.05-2.34-2.34v-1.77c-.03 0-.06.02-.08.04-.37.3-.8.54-1.3.64l-8.6.07-1.8-2.5 2.82-.05c-.02-.14-.04-.28-.04-.42v-.06c0-.4.08-.8.24-1.16-.15-.5-.24-1.06-.24-1.62V9.83C11 6.6 13.6 4 16.83 4h.34c2.8 0 5.1 1.95 5.7 4.56.4-.34.92-.56 1.5-.56h.26c1.18 0 2.16.87 2.33 2 .02 0 .03 0 .04 0 1.1 0 2 .9 2 2v2c0 1.1-.9 2-2 2"/></g><g><path fill="#d5ab88" d="M29 13.92c0-1.06-.86-1.92-1.92-1.92h-.16c-1.06 0-1.92.86-1.92 1.92v4.16c0 1.06.86 1.92 1.92 1.92h.16c1.06 0 1.92-.86 1.92-1.92v-4.16z"/></g><g><path fill="#b78b60" d="M18 18h-6.58C9.52 18 8 16.47 8 14.58v-.16C8 12.52 9.53 11 11.42 11h6.16c1.9 0 3.42 1.53 3.42 3.42v.16c0 1.9-1.1 3.42-3 3.42"/></g><g><path fill="#d5ab88" d="M22 22c-1.1 0-2-.9-2-2v-2.78c.6-.55 1-1.33 1-2.22 0-.75-.3-1.43-.75-1.96.35-.62 1-1.04 1.75-1.04 1.1 0 2 .9 2 2v6c0 1.1-.9 2-2 2"/></g><g><path fill="#d5ab88" d="M27.06 11h-.12c-1.03 0-1.93.53-2.45 1.32-.14-.18-.28-.34-.44-.5-.05-.04-.1-.08-.16-.12-.12-.1-.24-.2-.38-.27-.06-.04-.13-.08-.2-.1-.14-.08-.28-.14-.43-.18-.08-.02-.14-.05-.2-.06-.23-.07-.46-.1-.7-.1-.24 0-.46.04-.68.1-.08 0-.15.03-.22.05-.14.05-.27.1-.4.17-.08.04-.16.07-.24.12-.16.1-.32.2-.46.34-.2.18-.38.4-.53.62-.2-.1-.47-.4-1.47-.4h-2.54c1.8-1.36 3.04-4 3.04-7 0-.28-.22-.5-.5-.5s-.5.22-.5.5c0 3.86-2.2 7-4.88 7h-.12c-.28 0-.5.22-.5.5s.22.5.5.5H18c1.1 0 2 .9 2 2s-.9 2-2 2h-8c-.03 0-.06 0-.1 0-.07 0-.14-.02-.2-.03-.07 0-.13-.02-.2-.04-.06-.02-.12-.03-.18-.06-.06-.02-.12-.04-.18-.07-.06-.03-.1-.06-.16-.1-.06-.02-.1-.06-.17-.1-.04-.04-.1-.08-.14-.12-.04-.04-.1-.1-.13-.13-.04-.05-.08-.1-.13-.16-.03-.05-.07-.1-.1-.16-.04-.06-.07-.1-.1-.17-.02-.06-.05-.13-.07-.2-.02-.02-.03-.05-.04-.08L7 12c-.1-.33-.48-1.87-.4-2.2C6.6 5 11.3 0 17 0c6.54 0 11.84 5.23 12 11.73-.53-.45-1.2-.73-1.94-.73"/></g><g><path fill="#d5ab88" d="M10.1 30.73l1.77-4.83 2.17 5.9-.27.5c-.44.9-1.5 1.34-2.46 1-1.03-.4-1.57-1.53-1.2-2.57z"/></g><g><path fill="#d5ab88" d="M17.02 31.42c-1.04.38-2.2-.16-2.56-1.2L10 18.03l4.26-.02 3.96 10.86c.37 1.04-.16 2.18-1.2 2.56"/></g></g></g></g></svg>