<svg xmlns="http://www.w3.org/2000/svg" viewBox="0 0 45 45" enable-background="new 0 0 45 45"><defs><clipPath id="a"><path d="M0 36h36V0H0v36z"/></clipPath></defs><g><g><g clip-path="url(#a)" transform="matrix(1.25 0 0 -1.25 0 45)"><g><path fill="#d2a077" d="M26 31.04c0 1.36-1.1 2.46-2.46 2.46h-.07c-1.37 0-2.47-1.1-2.47-2.46v2.16c0 1.27-1.03 2.3-2.3 2.3h-.4c-1.27 0-2.3-1.03-2.3-2.3V32c0 1.38-1.12 2.5-2.5 2.5S11 33.38 11 32v-9.35c0 1.02-.83 1.85-1.85 1.85h-.3C7.83 24.5 7 23.67 7 22.65v-9.8C7 11.83 7.83 11 8.85 11H9v-1h2.15c.7-3.42 3.72-6 7.35-6 4.14 0 7.5 3.36 7.5 7.5v6c0 .22 0 .43-.03.64 0 .1.03.2.03.33v12.57z"/></g><g><path fill="#f3d2a2" d="M30 28s0 2-2 2-2-2-2-2v-9.3c-.32.16-.65.3-1 .4V32s0 2-2 2-2-2-2-2V19.88c-.33.03-.66.05-1 .07V34s0 2-2 2-2-2-2-2V19.95c-.34-.02-.67-.05-1-.08V33s0 2-2 2-2-2-2-2V15h-1v8s0 2-2 2-2-2-2-2V12C6 5.37 11.37 0 18 0s12 5.37 12 12v16z"/></g></g></g></g></svg>