<svg xmlns="http://www.w3.org/2000/svg" viewBox="0 0 45 45" enable-background="new 0 0 45 45"><defs><clipPath id="a"><path d="M0 36h36V0H0v36z"/></clipPath></defs><g><g><g clip-path="url(#a)" transform="matrix(1.25 0 0 -1.25 0 45)"><g><path fill="#d5ab88" d="M1.8 20.14c1.47 2.63 3.76 4.85 6.1 5.92 3.66 1.67 5.17 7.58 6.2 9.05 1.46 2.05 4.38.18 3.9-2.85-.52-3.27-1.94-4.06-2.8-6.02-.44-1-.3-1.72 1.55-1.85 1.86-.13 7-.64 7.25-1.65.62-2.46-7.8-8.44-.98-13.53 0 0 8.67-1.65 10.4-1.9 3.04-.46 2.5-4.54-.66-4.2-2.97.3-10.24 1.82-12.48.43-1.8-1.12-8.5-2.6-14.44.73C-.1 7.6-1.24 14.76 1.8 20.14"/></g><g><path fill="#b78b60" d="M14.1 10.1c-4.16.87-3.7 5.9.27 5.57 3.22-.26 8.84-1.24 10.25-1.55 2.88-.65 2.24-5.66-1.16-5.25-2.2.26-6.13.56-9.36 1.23"/></g><g><path fill="#d5ab88" d="M14.52 11.02c-3.45.8-2.5 4.43.74 4.25 3.22-.2 8.14-.93 9.56-1.16 3.33-.52 1.83-4.8-.62-4.45-2.45.35-7.1.78-9.68 1.37"/></g><g><path fill="#b78b60" d="M13.2 14c-4.95.07-4.68 5.58-.98 6 3.2.4 10.28-.4 11.72-.47 2.68-.1 2.7-5-.35-5.17-2.48-.13-7.77-.4-10.4-.36"/></g><g><path fill="#d5ab88" d="M13.05 14.93c-3.08-.14-3.43 4.02-.2 4.32 3.2.3 10.08.23 11.52.2 2.5-.04 2.42-4.23-.66-4.35-2.46-.1-8.02-.05-10.65-.17"/></g><g><path fill="#b78b60" d="M12.78 18.26c-4.45-.5-4.57 5.15-1.36 5.5 4.53.48 6.6-.24 6.92-.17 2.76.63 5.17.55 5.66-.87.42-1.2-.38-3.2-1.97-3.4-2.45-.33-6.63-.76-9.25-1.07"/></g><g><path fill="#d5ab88" d="M12.96 19.14c-3.07-.25-3.85 3.6-.68 4.27 3.16.66 7.7 1.02 9.52 1.1 2.8.12 3.3-3.97.26-4.42-2.45-.37-5.98-.7-9.1-.94"/></g></g></g></g></svg>