<svg xmlns="http://www.w3.org/2000/svg" viewBox="0 0 45 45" enable-background="new 0 0 45 45"><defs><clipPath id="a"><path d="M0 36h36V0H0v36z"/></clipPath><clipPath id="b"><path d="M9.5 13C8.12 13 7 11.88 7 10.5S8.12 8 9.5 8h17c1.38 0 2.5 1.12 2.5 2.5S27.88 13 26.5 13h-17z"/></clipPath><clipPath id="c"><path d="M0 36h36V0H0v36z"/></clipPath></defs><g><g><g clip-path="url(#a)" transform="matrix(1.25 0 0 -1.25 0 45)"><g><path fill="#f4900c" d="M36 21.5c0-1.93-1.12-3.5-2.5-3.5S31 19.57 31 21.5s1.12 3.5 2.5 3.5 2.5-1.57 2.5-3.5"/></g><g><path fill="#f4900c" d="M5 21.5C5 19.57 3.88 18 2.5 18S0 19.57 0 21.5 1.12 25 2.5 25 5 23.43 5 21.5"/></g><g><path fill="#ffac33" d="M34 17c0-.55-.45-1-1-1h-3c-.55 0-1 .45-1 1v9c0 .55.45 1 1 1h3c.55 0 1-.45 1-1v-9z"/></g><g><path fill="#ffac33" d="M7 17c0-.55-.45-1-1-1H3c-.55 0-1 .45-1 1v9c0 .55.45 1 1 1h3c.55 0 1-.45 1-1v-9z"/></g><g><path fill="#ffcc4d" d="M28 31c0-2.76-4.48-4-10-4S8 28.24 8 31s4.48 5 10 5 10-2.24 10-5"/></g><g><path fill="#f4900c" d="M25 31.92c0-1.6-3.13-2.92-7-2.92s-7 1.3-7 2.92c0 1.6 3.13 2.9 7 2.9s7-1.3 7-2.9"/></g><g><path fill="#269" d="M30 30.5c0-1.38-1.12-1.5-2.5-1.5h-19c-1.38 0-2.5.12-2.5 1.5S7.12 33 8.5 33h19c1.38 0 2.5-1.12 2.5-2.5"/></g><g><path fill="#55acee" d="M32 6c0-1.1-.9-2-2-2H6c-1.1 0-2 .9-2 2v22c0 1.1.9 2 2 2h24c1.1 0 2-.9 2-2V6z"/></g><g><path fill="#3b88c3" d="M35 3c0-1.1.1-2-1-2H2C.9 1 1 1.9 1 3v1c0 1.1.9 2 2 2h30c1.1 0 2-.9 2-2V3z"/></g><g><path fill="#55acee" d="M18.7 2.64c-.38-.4-1.02-.4-1.4 0L11.63 8.3c-.4.38-.4 1.02 0 1.4l5.65 4.66c.38.4 1.02.4 1.4 0l5.66-4.65c.4-.38.4-1.02 0-1.4L18.7 2.63z"/></g><g><path fill="#fff" d="M16 21.5c0-2.48-2.02-4.5-4.5-4.5C9 17 7 19.02 7 21.5S9 26 11.5 26c2.48 0 4.5-2.02 4.5-4.5"/></g><g><path fill="#fff" d="M29 21.5c0-2.48-2.02-4.5-4.5-4.5-2.5 0-4.5 2.02-4.5 4.5s2 4.5 4.5 4.5c2.48 0 4.5-2.02 4.5-4.5"/></g><g><path fill="#66757f" d="M12 22z"/></g><g><path fill="#66757f" d="M12 22z"/></g><g><path fill="#dd2e44" d="M26 19c0-.55-.45-1-1-1h-1c-.55 0-1 .45-1 1v5c0 .55.45 1 1 1h1c.55 0 1-.45 1-1v-5z"/></g><g><path fill="#dd2e44" d="M13 19c0-.55-.45-1-1-1h-1c-.55 0-1 .45-1 1v5c0 .55.45 1 1 1h1c.55 0 1-.45 1-1v-5z"/></g><g><path fill="#f5f8fa" d="M29 10.5C29 9.12 27.88 8 26.5 8h-17C8.12 8 7 9.12 7 10.5S8.12 13 9.5 13h17c1.38 0 2.5-1.12 2.5-2.5"/></g><path fill="#ccd6dd" d="M19 8h-2v5h2V8z"/><path fill="#ccd6dd" d="M14 8h-2v5h2V8z"/><path fill="#ccd6dd" d="M24 8h-2v5h2V8z"/></g></g><g><g fill="#ccd6dd" clip-path="url(#b)" transform="matrix(1.25 0 0 -1.25 0 45)"><path d="M9 8H7v5h2V8z"/><path d="M29 8h-2v5h2V8z"/></g></g><g><g clip-path="url(#c)" transform="matrix(1.25 0 0 -1.25 37.5 41.25)"><g><path fill="#55acee" d="M0 0z"/></g><g><path fill="#55acee" d="M0 0z"/></g></g></g></g></svg>