<svg xmlns="http://www.w3.org/2000/svg" viewBox="0 0 45 45" enable-background="new 0 0 45 45"><defs><clipPath id="a"><path d="M0 36h36V0H0v36z"/></clipPath><clipPath id="b"><path d="M18 36C8.06 36 0 27.94 0 18S8.06 0 18 0s18 8.06 18 18-8.06 18-18 18z"/></clipPath></defs><g><g><g clip-path="url(#a)" transform="matrix(1.25 0 0 -1.25 0 45)"><g><path fill="#ffcc4d" d="M36 18c0-9.94-8.06-18-18-18S0 8.06 0 18s8.06 18 18 18 18-8.06 18-18"/></g><g><path fill="#664500" d="M28.96 18.2c-.06.14-1.5 3.3-4.46 3.3s-4.4-3.16-4.46-3.3c-.1-.2-.03-.45.15-.6.16-.13.4-.13.6 0 0 0 1.26.9 3.7.9 2.43 0 3.67-.88 3.7-.9.1-.07.2-.1.3-.1.1 0 .22.04.3.1.2.15.25.4.16.6"/></g><g><path fill="#664500" d="M15.96 18.2c-.06.14-1.5 3.3-4.46 3.3s-4.4-3.16-4.46-3.3c-.1-.2-.03-.45.15-.6.16-.13.4-.13.6 0 0 0 1.26.9 3.7.9 2.43 0 3.67-.88 3.7-.9.1-.07.2-.1.3-.1.1 0 .22.04.3.1.2.15.25.4.16.6"/></g><g><path fill="#664500" d="M13 8s1 4 5 4 5-4 5-4-1 1-5 1-5-1-5-1"/></g></g></g><g><g clip-path="url(#b)" transform="matrix(1.25 0 0 -1.25 0 45)"><g><path fill="#e6e7e8" d="M43.43 20.24L-2.4 28.58l.37 2.1L43.8 22.3l-.37-2.08z"/></g><g><path fill="#bcbec0" d="M43.8 22.33l-45.83 8.34.2 1.04L44 23.38l-.2-1.04z"/></g><g><path fill="#e6e7e8" d="M44 23.37L-1.84 31.7l.38 2.1 45.84-8.35-.38-2.08z"/></g><g><path fill="#d1d3d4" d="M44.38 25.45L-1.46 33.8l.2 1.03 45.83-8.34-.2-1.05z"/></g><g><path fill="#e6e7e8" d="M44.57 26.5l-45.84 8.33.38 2.1 45.85-8.35-.38-2.1z"/></g><g><path fill="#bcbec0" d="M-6.9 23.33l45.85 8.34-.2 1.04-45.83-8.33.2-1.04z"/></g><g><path fill="#e6e7e8" d="M-7.08 24.37l45.84 8.34-.38 2.1-45.84-8.35.38-2.08z"/></g><g><path fill="#d1d3d4" d="M-7.46 26.45l45.84 8.34-.2 1.03-45.83-8.34.2-1.05z"/></g><g><path fill="#e6e7e8" d="M-7.65 27.5l45.84 8.33-.4 2.1-45.83-8.35.38-2.1z"/></g></g></g></g></svg>