<svg xmlns="http://www.w3.org/2000/svg" viewBox="0 0 45 45" enable-background="new 0 0 45 45"><defs><clipPath id="a"><path d="M0 36h36V0H0v36z"/></clipPath></defs><g><g><g clip-path="url(#a)" transform="matrix(1.25 0 0 -1.25 0 45)"><g><path fill="#e0aa94" d="M23.82 22.82C23.92 22.57 20 22 20 22c0 .8-.5 1.5-1.18 1.82.1-.25-3.82-.82-3.82-.82v9c0 .8-.5 1.5-1.18 1.82C13.92 33.57 10 20 10 20c-.92 0-1.72-2-1.72-2s.2-9 .2-9L18 3.5l8 7.5v10h-1c0 .8-.5 1.5-1.18 1.82"/></g><g><path fill="#f7dece" d="M20 19.22c.6-.55 1-1.33 1-2.22 0-.75-.3-1.43-.74-1.96.34-.62.98-1.04 1.74-1.04 1.1 0 2 .9 2 2v6c0 .3-.07.57-.18.82-.3.7-1 1.18-1.82 1.18-1.1 0-2-.9-2-2V19.22z"/></g><g><path fill="#f7dece" d="M29 30c0 1.1-.9 2-2 2s-2-.9-2-2V16c0-.66-.22-1.26-.58-1.75-.03-.04-.06-.07-.1-.1-.1-.13-.2-.26-.32-.37-.03-.03-.06-.05-.1-.08-.12-.1-.24-.2-.38-.27-.06-.04-.13-.08-.2-.1-.14-.08-.28-.14-.43-.18-.08-.02-.14-.05-.2-.06-.23-.07-.46-.1-.7-.1-.24 0-.46.04-.68.1-.08 0-.15.03-.22.06-.14.04-.27.1-.4.16-.08.04-.16.07-.24.12-.16.1-.32.2-.46.34-.2.2-.38.4-.53.62-.2-.1-.47-.4-1.47-.4h-2.54c1.8-1.36 3.04-4 3.04-7 0-.28-.22-.5-.5-.5s-.5.22-.5.5c0 3.86-2.2 7-4.88 7h-.12c-.28 0-.5.22-.5.5s.22.5.5.5H18c1.1 0 2 .9 2 2s-.9 2-2 2h-8c-.97 0-1.48-.6-1.73-1-.12-.23-.18-.4-.18-.4L7 14c-.1-.33-.48-1.87-.4-2.2C6.6 7 11.3 2 17 2c6.54 0 11.84 5.23 12 11.73-.02 0 0 .17 0 .27v16z"/></g><g><path fill="#f7dece" d="M15 20h3c.35 0 .7-.07 1-.18V23c0 .3-.07.57-.18.82-.3.7-1 1.18-1.82 1.18-1.1 0-2-.9-2-2v-3z"/></g><g><path fill="#f7dece" d="M14 20v13c0 .3-.07.57-.18.82-.3.7-1 1.18-1.82 1.18-1.1 0-2-.9-2-2V20h4z"/></g></g></g></g></svg>