<svg xmlns="http://www.w3.org/2000/svg" viewBox="0 0 45 45" enable-background="new 0 0 45 45"><defs><clipPath id="a"><path d="M0 36h36V0H0v36z"/></clipPath></defs><g><g><g clip-path="url(#a)" transform="matrix(1.25 0 0 -1.25 0 45)"><g><path fill="#ffcc4d" d="M36 18c0-9.94-8.06-18-18-18S0 8.06 0 18s8.06 18 18 18 18-8.06 18-18"/></g><g><path fill="#292f33" fill-rule="evenodd" d="M1.24 24.98c.24-.24 1.44-.96 1.68-1.67.24-.7.72-4.78 2.16-5.97 1.48-1.24 7.07-.78 8.14-.24 2.4 1.18 2.7 4.52 3.12 6.2.24.96 1.68.96 1.68.96s1.44 0 1.67-.95c.42-1.68.7-5.02 3.1-6.2 1.08-.55 6.68-1 8.16.23 1.44 1.2 1.92 5.26 2.16 5.98.23.73 1.43 1.44 1.67 1.68.23.24.23 1.2 0 1.44-.5.48-6.14.9-12.23.24-1.2-.14-1.68-.48-4.55-.48-2.88 0-3.34.34-4.56.48-6.08.66-11.74.24-12.22-.24-.24-.24-.24-1.2 0-1.44"/></g><g><path fill="#664500" d="M27.34 12.37c-.18.16-.45.17-.64.03-.04-.03-3.92-2.9-8.7-2.9-4.77 0-8.66 2.87-8.7 2.9-.2.14-.46.13-.64-.03-.17-.16-.2-.42-.1-.63.14-.2 3.23-5.24 9.44-5.24 6.2 0 9.3 5.03 9.43 5.24.12.2.08.47-.1.63"/></g><g><path fill="#ffcc4d" d="M14.27 21c-.15-1.66-1.55-3-3.12-3H8.3C6 18 5.24 19.34 5 21l-.14 1c-.23 1.66.12 3 2.97 3h3.38c2.77 0 3.27-1.34 3.12-3l-.08-1z"/></g><g><path fill="#ffcc4d" d="M21.93 21c.15-1.66 1.55-3 3.12-3h2.85c2.3 0 3.05 1.34 3.28 3l.14 1c.23 1.66-.12 3-2.97 3h-3.38c-2.77 0-3.27-1.34-3.12-3l.08-1z"/></g><g><path fill="#664500" d="M10.5 24C9.12 24 8 22.43 8 20.5c0-.98.3-1.86.75-2.5h2.4c.45 0 .9.12 1.3.33.34.6.55 1.34.55 2.17 0 1.93-1.12 3.5-2.5 3.5"/></g><g><path fill="#664500" d="M27.25 18c.46.64.75 1.52.75 2.5 0 1.93-1.12 3.5-2.5 3.5S23 22.43 23 20.5c0-.75.17-1.44.46-2 .47-.32 1.02-.5 1.6-.5h2.2z"/></g><g><path fill="#ffcc4d" d="M36 18c0-9.94-8.06-18-18-18S0 8.06 0 18s8.06 18 18 18 18-8.06 18-18"/></g><g><path fill="#664500" d="M27.34 12.37c-.18.16-.45.17-.64.03-.04-.03-3.92-2.9-8.7-2.9-4.77 0-8.66 2.87-8.7 2.9-.2.14-.46.13-.64-.03-.17-.16-.2-.42-.1-.63.14-.2 3.23-5.24 9.44-5.24 6.2 0 9.3 5.03 9.43 5.24.12.2.08.47-.1.63"/></g><g><path fill="#664500" d="M27.34 12.37c-.18.16-.45.17-.64.03-.04-.03-3.92-2.9-8.7-2.9-4.77 0-8.66 2.87-8.7 2.9-.2.14-.46.13-.64-.03-.17-.16-.2-.42-.1-.63.14-.2 3.23-5.24 9.44-5.24 6.2 0 9.3 5.03 9.43 5.24.12.2.08.47-.1.63"/></g><g><path fill="#65471b" d="M18 9.4c-.15 0-.3.02-.44.03V4.9h.88v4.53c-.15 0-.3-.02-.44-.02"/></g><g><path fill="#fff" d="M22 10c.02 0-1.45-.38-2.45-.5-.36-.03-.73-.06-1.1-.07V4.9H20c1.1 0 2 .9 2 2V10z"/></g><g><path fill="#fff" d="M14 10c-.02 0 1.45-.38 2.45-.5.36-.03.73-.06 1.1-.07V4.9H16c-1.1 0-2 .9-2 2V10z"/></g><g><path fill="#65471b" d="M27.34 12.37c-.18.16-.45.17-.64.03-.03-.02-2.26-1.67-5.4-2.47-.45-.1-1.87-.43-3.3-.43-1.42 0-2.85.32-3.3.43-3.14.8-5.37 2.45-5.4 2.47-.2.14-.46.13-.64-.03-.17-.16-.2-.42-.1-.63.1-.16 1.9-3.06 5.44-4.48V9.1c-.02 0 1.45-.4 2.45-.5.36-.04.73-.07 1.1-.08.16 0 .3-.02.45-.02.15 0 .3 0 .44.02.38 0 .75.04 1.1.1 1 .1 2.48.48 2.46.47V7.25c3.54 1.42 5.33 4.32 5.43 4.48.12.2.08.47-.1.63"/></g><g><path fill="#65471b" d="M26.62 21.98c0-1.72-.93-3.1-2.1-3.1-1.15 0-2.1 1.38-2.1 3.1 0 1.7.95 3.1 2.1 3.1 1.17 0 2.1-1.4 2.1-3.1"/></g><g><path fill="#292f33" d="M30.9 22.98c-.13-.96-.44-3.52-1.27-4.14-.67-.5-2.37-.84-3.6-.84-1.1 0-2.15.28-2.97.74-1.32.76-1.52 2.86-1.6 3.97-.04.62-.17 1.86.84 2.48 1.13.7 3.46.74 4.15.74 1.5 0 3-.27 4.05-.63.67-.24.47-1.72.4-2.32m-16.3-.26c-.06-1.1-.26-3.22-1.58-3.98-.8-.46-1.87-.74-2.98-.74-1.22 0-2.92.35-3.6.84-.82.62-1.13 3.17-1.25 4.12-.1.6-.3 2.1.38 2.32 1.06.36 2.54.64 4.05.64.7 0 3.02-.04 4.15-.74 1-.62.88-1.85.83-2.46m20.2 3.65c-.16.17-1.26-.27-2.37.3-2.3 1.16-8.07 2.3-11.83-.38-.4-.3-2.1-.35-2.56-.32-.47-.03-2.15.02-2.56.3-3.76 2.68-9.54 1.55-11.83.38-1.1-.56-2.2-.12-2.38-.3-.24-.23-.24-1.18 0-1.42.25-.24 1.48-.52 1.73-1.24.24-.7.24-4.95 2.2-6.42 1.85-1.37 6.14-1.78 8.86-.24 2.37 1.35 2.3 4.2 2.72 5.88.16.6.6.9 1.26.9.67 0 1.1-.3 1.26-.9.44-1.7.35-4.53 2.72-5.88 2.72-1.54 7-1.13 8.85.24 1.97 1.47 1.97 5.7 2.22 6.42.23.72 1.46 1 1.7 1.24.26.24.26 1.2 0 1.43"/></g><g><path fill="#65471b" d="M9.46 21.98c0-1.72.94-3.1 2.1-3.1 1.15 0 2.1 1.38 2.1 3.1 0 1.7-.95 3.1-2.1 3.1-1.16 0-2.1-1.4-2.1-3.1"/></g></g></g></g></svg>