<svg xmlns="http://www.w3.org/2000/svg" viewBox="0 0 45 45" enable-background="new 0 0 45 45"><defs><clipPath id="a"><path d="M0 36h36V0H0v36z"/></clipPath><clipPath id="b"><path d="M15.24 28.22c.82-1.63 2.94-3.64 4.2-4.2.86-.4 0-1.07-1.6-2.15-1.2-.8-5.7-2.9-9.15-6.4-1.46-1.5.52-3.27 1.52-2.3 2.77 2.7 6 4.5 6 4.5l.2-.62c-2.06-1.15-5.4-3.94-7.1-5.5-1.33-1.2.4-3.3 1.52-2.36 3.34 2.77 6.77 5 6.77 5l.37-.52c-1.3-.8-4.45-3.17-6.2-4.75-1.33-1.18.34-3.22 1.6-2.14 1.86 1.6 6.24 4.64 6.24 4.64l.38-.38c-1.08-.68-2.77-1.94-5-3.96-1.3-1.2.47-2.55 1.36-1.85 1.1.86 3.83 3.34 7.26 4.8 5.23 2.24 7.16 4.33 7.63 5.13.86 1.46 2.18 2.06 3.1 2.5.9.46 1.13 1.7.7 2.56-.4.86-2.5 4.96-2.94 5.87-.47.92-1.24 1.5-2.12 1.06 0 0-1.05-1.05-2.1-1.05-2 0-2.44 1.06-5.27 1.06-2.1 0-4.2 2.1-5.25 3.16-.48.48-.94.68-1.33.68-.98 0-1.53-1.28-.78-2.78"/></clipPath><clipPath id="c"><path d="M0 36h36V0H0v36z"/></clipPath></defs><g><g><g clip-path="url(#a)" transform="matrix(1.25 0 0 -1.25 0 45)"><g><path fill="#583529" d="M30.04 24.96c.9.44 1.62-.28 2.07-1.2.46-.9 1.87-4.53 2.3-5.38.42-.86-.66-.6-1.57-1.06-.9-.45-1.8-.75-2.62-1.16-.82-.4-1.26-3.15-6.5-5.38-3.43-1.47-3.54-3.27-6.66-5.85-1.14-.96-3.1.32-1.76 1.53 2.2 2.02 3.9 3.28 4.98 3.96l-.37.38s-4.18-2.93-6-4.56c-1.33-1.2-3.42 1.17-2.1 2.36 1.76 1.58 5.15 3.65 6.46 4.44l-.37.53s-3.17-2.07-6.5-4.85c-1.26-1.05-3.46 1.24-2.14 2.45 1.7 1.56 5.38 4.08 7.43 5.24l-.2.62s-3.22-1.8-6-4.5c-1-.95-2.97.83-1.52 2.3 3.46 3.52 7.92 5.66 9.15 6.4 1.58.97 3.22 2.4 2.38 2.8-1.27.56-.47 1.28-2.1 2.1-2.1 1.04-2.68 3.15-1.05 3.15 1.05 0 1.7-1.93 4.2-2.1 2.83-.2 4.58-4.1 6.37-3.22.77.38 2.12 1 2.12 1"/></g><g><path fill="#664131" d="M29.98 27.16c.88.44 1.65-.14 2.1-1.05.45-.9 2.54-5 2.96-5.86.42-.85.2-2.1-.72-2.55-.9-.46-2.23-1.06-3.1-2.52-.46-.8-2.4-2.9-7.62-5.13-3.43-1.46-6.17-3.94-7.26-4.8-.9-.7-2.67.64-1.34 1.85 2.2 2.02 3.9 3.28 4.98 3.96l-.37.38S15.24 8.4 13.38 6.8c-1.26-1.1-2.93.95-1.6 2.13 1.75 1.58 4.9 3.96 6.2 4.75l-.36.53s-3.42-2.22-6.76-5c-1.1-.94-2.84 1.15-1.52 2.35 1.7 1.56 5.04 4.34 7.1 5.5l-.2.6s-3.22-1.8-6-4.48c-1-.97-2.98.8-1.53 2.3 3.46 3.5 7.95 5.6 9.15 6.4 1.6 1.08 2.45 1.76 1.6 2.14-1.27.58-3.4 2.6-4.2 4.22-1.06 2.1.43 3.77 2.1 2.1 1.05-1.05 3.16-3.16 5.26-3.16 2.84 0 3.27-1.05 5.27-1.05 1.06 0 2.1 1.06 2.1 1.06"/></g></g></g><g><g clip-path="url(#b)" transform="matrix(1.25 0 0 -1.25 0 45)"><g><path fill="#583529" d="M19.73 23.74c.7-.76 1.54-1.68 2.63-2.18 1.25-.58 2.35-.73 2.7-.73.33 0 .52-.6-.05-.62-.55-.02-1.78.25-2.86.77-1.03.5-2.23 1.57-2.88 2.4l.47.37z"/></g></g></g><g><g clip-path="url(#c)" transform="matrix(1.25 0 0 -1.25 0 45)"><g><path fill="#583529" d="M6.78 26.2c-.85.52-1.65-.02-2.18-.9-.52-.86-2.22-4.66-2.7-5.48-.5-.8.7-.84 1.57-1.36.87-.53 2.16-1.9 2.95-2.37.8-.5 1.12-3.86 5.66-6.83 4.3-2.8 6.98-4.02 8-4.52 2.1-1.05 3.46 1.68 1.82 2.4-2.83 1.28-5.16 2.26-6.18 3.03l.15.42s3.3-2.1 7.45-3.82c1.53-.64 2.83 2.25 1.2 2.98-2.42 1.1-5.74 2.54-6.98 3.43l.22.42s4.12-2.64 8-4.4c1.44-.63 3.07 2.28 1.45 3.03-2.25 1.06-5.92 2.77-7.86 4.1l.33.5s3.48-2.66 6.57-3.94c1.28-.5 3.2 2.07 1.32 2.93-3.8 1.73-8.6 4.96-9.7 5.86-.93.72-1.42 3.2-.5 3.36 1.2.23 4.2 2.1 5.25 3.16 1.06 1.05-.1 1.98-1.04 1.05-1.05-1.05-2-2.67-4.52-2.65-2.82.04-6.52-2.64-8.23-1.6-.73.44-2.02 1.18-2.02 1.18"/></g><g><path fill="#7c533e" d="M7.1 26.72c-.85.5-1.97.26-2.5-.6-.52-.88-2.82-4.7-3.3-5.5-.5-.83-.38-2.1.5-2.62.86-.52 2.44-1.47 3.23-1.95.8-.48 4-4.48 8.66-7.28 4.64-2.8 6.35-3.28 7.4-3.7 1.05-.4 2.44 1.7.8 2.42-2.84 1.26-4.84 2.43-5.87 3.2l.32.58s2.84-2.12 7-3.85c1.53-.64 2.78 1.76 1.16 2.5-2.42 1.08-5.4 2.88-6.64 3.78l.34.58s3.95-2.5 7.83-4.24c1.43-.65 2.63 1.8 1 2.54-2.25 1.06-5.44 2.96-7.38 4.28l.33.5s3.62-2.55 6.7-3.82c1.3-.53 2.8 1.86.9 2.72-3.77 1.72-8.05 4.74-9.18 5.64-.92.74-1.18 2.4 1.05 3.16 3.16 1.05 4.2 3.16 4.2 4.2 0 1.5-1.36 2.15-2.1 1.06-2.1-3.16-3.16-2.08-5.25-3.16-2.52-1.3-5.47-2.66-7.18-1.62-.74.44-2.03 1.18-2.03 1.18"/></g><g><path fill="#664131" d="M18.95 24.28l5.42 2.7c-.47.1-1.04.18-1.76.18-2.1 0-4.2 2.1-5.25 3.16-1.67 1.67-3.16 0-2.1-2.1.7-1.43 2.43-3.15 3.7-3.94"/></g><g><path fill="#664131" d="M14.67 5.67c.26-.42.8-.68 1.28-.6l-1.28.6z"/></g><g><path fill="#664131" d="M11.5 7.15c.3-.46.82-.77 1.36-.63l-1.36.63z"/></g></g></g></g></svg>