<svg xmlns="http://www.w3.org/2000/svg" viewBox="0 0 45 45" enable-background="new 0 0 45 45"><defs><clipPath id="a"><path d="M0 36h36V0H0v36z"/></clipPath></defs><g><g><g clip-path="url(#a)" transform="matrix(1.25 0 0 -1.25 0 45)"><g><path fill="#ffcc4d" d="M36 18c0-9.94-8.06-18-18-18S0 8.06 0 18s8.06 18 18 18 18-8.06 18-18"/></g><g><path fill="#664500" d="M22.5 11H18c-5.6 0-7 1-7 1s1.27-3.6 6.18-3.96c.1-.03.2-.04.32-.04H22c.82 0 2 1.17 2 2 0 .82-.68 1-1.5 1"/></g><g><path fill="#664500" d="M15.8 18.1c-.16-.13-.4-.14-.6 0 0 0-1.26.9-3.7.9-2.44 0-3.7-.9-3.7-.9-.18-.14-.43-.13-.6 0-.2.15-.25.4-.16.6.06.14 1.5 3.3 4.46 3.3s4.4-3.16 4.46-3.3c.1-.2.03-.45-.15-.6"/></g><g><path fill="#664500" d="M28.8 18.1c-.16-.13-.4-.14-.6 0 0 0-1.26.9-3.7.9-2.44 0-3.7-.9-3.7-.9-.18-.14-.43-.13-.6 0-.2.15-.25.4-.16.6.06.14 1.5 3.3 4.46 3.3s4.4-3.16 4.46-3.3c.1-.2.03-.45-.15-.6"/></g><g><path fill="#664500" d="M13.1 30c.57-.02 1-.5.97-1.04-.02-.55-.48-.98-1.03-.96-.16 0-3.57.05-6.34-3.36-.35-.42-.98-.5-1.4-.14-.43.35-.5.98-.15 1.4 3.43 4.22 7.78 4.1 7.96 4.1"/></g><g><path fill="#664500" d="M22.52 28.33c.18.03 4.47.76 8.46-2.94.4-.38.43-1.02.05-1.42-.37-.4-1-.43-1.4-.05-3.24 3-6.62 2.45-6.76 2.43-.54-.1-1.06.27-1.16.8-.08.55.28 1.07.82 1.17"/></g><g><path fill="#88c9f9" d="M23 10h-3c-.55 0-1-.45-1-1V5c0-.55.45-1 1-1s1 .45 1 1V1.5c0-.82.68-1.5 1.5-1.5S24 .68 24 1.5V9c0 .55-.45 1-1 1"/></g></g></g></g></svg>