<?xml version="1.0" encoding="UTF-8" standalone="no"?><svg xmlns:dc="http://purl.org/dc/elements/1.1/" xmlns:cc="http://creativecommons.org/ns#" xmlns:rdf="http://www.w3.org/1999/02/22-rdf-syntax-ns#" xmlns:svg="http://www.w3.org/2000/svg" xmlns="http://www.w3.org/2000/svg" viewBox="0 0 45 45" style="enable-background:new 0 0 45 45;" xml:space="preserve" version="1.1" id="svg2"><metadata id="metadata8"><rdf:RDF><cc:Work rdf:about=""><dc:format>image/svg+xml</dc:format><dc:type rdf:resource="http://purl.org/dc/dcmitype/StillImage"/></cc:Work></rdf:RDF></metadata><defs id="defs6"><clipPath id="clipPath16" clipPathUnits="userSpaceOnUse"><path id="path18" d="M 0,36 36,36 36,0 0,0 0,36 Z"/></clipPath></defs><g transform="matrix(1.25,0,0,-1.25,0,45)" id="g10"><g id="g12"><g clip-path="url(#clipPath16)" id="g14"><g transform="translate(35,17.3809)" id="g20"><path id="path22" style="fill:#ffcb4c;fill-opacity:1;fill-rule:nonzero;stroke:none" d="m 0,0 c 0,3.794 -3.075,6.869 -6.869,6.869 -0.98,0 -2.753,-0.577 -2.753,-0.577 L -22.748,4.908 c 0,0 -2.716,1.58 -4.383,1.58 -3.794,0 -6.869,-3.075 -6.869,-6.869 0,-0.237 0.012,-0.472 0.036,-0.702 0.37,-9.062 7.813,-16.298 16.964,-16.298 9.389,0 17,7.611 17,17 0,0.052 -0.01,0.102 -0.012,0.153 C -0.009,-0.152 0,-0.077 0,0"/></g><g transform="translate(22.332,7.3623)" id="g24"><path id="path26" style="fill:#65471b;fill-opacity:1;fill-rule:nonzero;stroke:none" d="m 0,0 c 0,-2.735 -1.941,-4.95 -4.332,-4.95 -2.393,0 -4.332,2.215 -4.332,4.95 0,2.733 1.939,4.95 4.332,4.95 C -1.941,4.95 0,2.733 0,0"/></g><g transform="translate(14,15.3945)" id="g28"><path id="path30" style="fill:#65471b;fill-opacity:1;fill-rule:nonzero;stroke:none" d="m 0,0 c 0,-1.473 -0.896,-2.667 -2,-2.667 -1.105,0 -2,1.194 -2,2.667 0,1.473 0.895,2.667 2,2.667 1.104,0 2,-1.194 2,-2.667"/></g><g transform="translate(26,15.3945)" id="g32"><path id="path34" style="fill:#65471b;fill-opacity:1;fill-rule:nonzero;stroke:none" d="m 0,0 c 0,-1.473 -0.896,-2.667 -2,-2.667 -1.104,0 -2,1.194 -2,2.667 0,1.473 0.896,2.667 2,2.667 1.104,0 2,-1.194 2,-2.667"/></g><g transform="translate(6.2656,22.3125)" id="g36"><path id="path38" style="fill:#f19020;fill-opacity:1;fill-rule:nonzero;stroke:none" d="M 0,0 C 0.25,0.187 1.113,0.512 1.716,-0.051 2.734,-1 2.981,1.394 6.193,-0.354 c 1.469,-0.8 8.989,-0.959 9.699,-0.607 2.692,1.336 4.767,2.197 5.572,1.743 0.624,-0.353 -0.974,-0.955 0.194,-1.092 1.193,-0.14 1.262,0.49 2.202,0.247 1.656,-0.429 -1.093,-2.325 -1.093,-2.325 C 18.41,-5.963 3.338,-3.292 0.678,-1.612 -0.42,-0.919 -0.386,-0.29 0,0"/></g><g transform="translate(29.6875,26.8853)" id="g40"><path id="path42" style="fill:#d93047;fill-opacity:1;fill-rule:nonzero;stroke:none" d="M 0,0 -11.688,1.302 -23.75,0 c 3.656,-3.667 4.844,-7.917 4.844,-7.917 l 4.437,-0.892 9.5,-0.014 c 0,0 1.531,5.781 4.969,8.823"/></g><g transform="translate(29.3057,26.5649)" id="g44"><path id="path46" style="fill:#c02334;fill-opacity:1;fill-rule:nonzero;stroke:none" d="m 0,0 c 1.281,1.262 -4.774,1.82 -9.587,1.82 -4.812,0 -8.359,-1.051 -8.359,-1.051 0,0 -5.093,-0.785 -4.395,-1.558 0.988,-1.094 2.2,-3.152 2.2,-3.152 0,0 4.757,-2.405 8.351,0.626 2.5,-1.5 6,-0.969 7.562,1.609 0,0 1.217,-0.453 2.452,-0.531 0,0 0.953,1.425 1.776,2.237"/></g><g transform="translate(29.6094,20.354)" id="g48"><path id="path50" style="fill:#ffcb4c;fill-opacity:1;fill-rule:nonzero;stroke:none" d="m 0,0 c -1.749,-1.262 -2.091,0.253 -3.685,0.253 -1.116,0 -1.231,-0.606 -2.789,-1.328 -0.957,-0.444 -2.326,0.763 -3.176,0.763 -1.15,0 -2.218,-1.552 -3.719,-0.73 -0.84,0.459 -1.487,1.258 -2.623,1.229 -1.955,-0.053 -1.914,-0.955 -3.653,-0.665 C -24.125,0.271 -24,1.896 -24,1.896 l -0.658,-4.233 9.381,0 3.793,-1.798 4.458,1.798 5.493,0 c 0,0 0.641,0.178 1.095,0.342 C 1.146,-1.422 1.335,0.963 0,0"/></g><g transform="translate(31.125,32.2749)" id="g52"><path id="path54" style="fill:#e8596e;fill-opacity:1;fill-rule:nonzero;stroke:none" d="m 0,0 c -0.239,0 -0.467,-0.045 -0.686,-0.109 -0.687,0.845 -1.723,1.397 -2.897,1.397 -0.088,0 -0.17,-0.02 -0.256,-0.026 -0.734,0.827 -1.794,1.359 -2.986,1.359 -1.505,0 -2.801,-0.839 -3.486,-2.066 -0.345,0.799 -1.139,1.358 -2.064,1.358 -0.718,0 -1.349,-0.343 -1.761,-0.866 -0.508,1.47 -1.888,2.532 -3.531,2.532 -1.322,0 -2.479,-0.688 -3.147,-1.723 -0.185,0.028 -0.369,0.057 -0.561,0.057 -1.432,0 -2.661,-0.812 -3.293,-1.992 -0.203,0.038 -0.41,0.063 -0.624,0.063 -1.864,0 -3.375,-1.511 -3.375,-3.375 0,-1.863 1.511,-3.374 3.375,-3.374 0.588,0 1.134,0.159 1.614,0.425 0.376,-0.283 0.838,-0.456 1.345,-0.456 0.145,0 0.285,0.017 0.422,0.043 0.854,-1.379 2.367,-2.303 4.109,-2.303 1.709,0 3.205,0.885 4.073,2.217 0.72,-0.882 1.802,-1.457 3.029,-1.457 1.814,0 3.327,1.238 3.776,2.911 0.033,-0.001 0.065,-0.01 0.099,-0.01 0.283,0 0.558,0.031 0.825,0.087 0.654,-0.556 1.491,-0.904 2.417,-0.904 1.174,0 2.21,0.551 2.897,1.396 0.219,-0.064 0.447,-0.109 0.686,-0.109 1.36,0 2.463,1.103 2.463,2.463 C 2.463,-1.103 1.36,0 0,0"/></g><g transform="translate(29.917,30.2329)" id="g56"><path id="path58" style="fill:#f3aab9;fill-opacity:1;fill-rule:nonzero;stroke:none" d="m 0,0 c 0,-1.171 -0.95,-2.122 -2.122,-2.122 -1.171,0 -2.121,0.951 -2.121,2.122 0,1.171 0.95,2.121 2.121,2.121 C -0.95,2.121 0,1.171 0,0"/></g><g transform="translate(19.876,30.0972)" id="g60"><path id="path62" style="fill:#f3aab9;fill-opacity:1;fill-rule:nonzero;stroke:none" d="m 0,0 c 0,1.193 -0.967,2.16 -2.161,2.16 -0.368,0 -0.709,-0.1 -1.013,-0.263 -0.251,0.601 -0.844,1.024 -1.536,1.024 -0.568,0 -1.068,-0.285 -1.368,-0.718 -0.67,0.623 -1.561,1.012 -2.548,1.012 -1.754,0 -3.216,-1.21 -3.625,-2.837 -0.365,0.368 -0.87,0.596 -1.429,0.596 -1.111,0 -2.011,-0.901 -2.011,-2.012 0,-1.111 0.9,-2.012 2.011,-2.012 0.703,0 1.32,0.361 1.68,0.907 0.516,-1.082 1.528,-1.873 2.748,-2.079 0.39,-0.67 1.107,-1.125 1.939,-1.125 1.073,0 1.968,0.754 2.192,1.76 0.324,-0.18 0.691,-0.291 1.088,-0.291 1.07,0 1.961,0.748 2.189,1.749 C -0.802,-1.974 0,-1.085 0,0"/></g></g></g></g></svg>
