<svg xmlns="http://www.w3.org/2000/svg" viewBox="0 0 45 45" enable-background="new 0 0 45 45"><defs><clipPath id="a"><path d="M0 36h36V0H0v36z"/></clipPath></defs><g><g><g clip-path="url(#a)" transform="matrix(1.25 0 0 -1.25 0 45)"><g><path fill="#ffcc4d" d="M30.73 30.73c7.03-7.03 7.03-18.43 0-25.46-7.03-7.03-18.43-7.03-25.46 0-7.03 7.03-7.03 18.43 0 25.46 7.03 7.03 18.43 7.03 25.46 0"/></g><g><path fill="#664500" d="M19.28 16.72c-3.5-3.5-6.22-5.4-9.65-7.7-.78-.54-1.92-1.94 0-3.87C13.5 1.3 22.76.9 28.94 7.08c6.17 6.17 5.78 15.43 1.92 19.28-1.93 1.93-3.33.8-3.86 0-2.3-3.42-4.23-6.15-7.72-9.64"/></g><g><path fill="#fff" d="M11.56 7.08s3.86 1.93 9.65 7.7c5.8 5.8 7.72 9.66 7.72 9.66s1.93-5.8-4.82-12.54c-6.75-6.75-12.54-4.82-12.54-4.82"/></g><g><path fill="#664500" d="M12.54 20.2c-.03-.25-.2-.44-.45-.48-.03 0-1.63-.27-3.46-2.1-1.83-1.82-2.1-3.42-2.1-3.44-.03-.24-.22-.42-.46-.45-.24-.03-.47.1-.55.34-.06.14-1.35 3.6.87 5.8 2.2 2.22 5.66.93 5.8.87.22-.1.36-.3.34-.55"/></g><g><path fill="#664500" d="M22.27 29.92c-.03-.24-.2-.43-.45-.47 0 0-1.62-.26-3.44-2.1-1.83-1.82-2.1-3.42-2.1-3.44-.04-.22-.23-.4-.47-.44-.23-.02-.45.1-.54.34-.06.14-1.35 3.6.87 5.8 2.2 2.22 5.66.93 5.8.87.23-.08.36-.3.34-.55"/></g></g></g></g></svg>