<?xml version="1.0" encoding="UTF-8" standalone="no"?><svg xmlns:dc="http://purl.org/dc/elements/1.1/" xmlns:cc="http://creativecommons.org/ns#" xmlns:rdf="http://www.w3.org/1999/02/22-rdf-syntax-ns#" xmlns:svg="http://www.w3.org/2000/svg" xmlns="http://www.w3.org/2000/svg" viewBox="0 0 45 45" style="enable-background:new 0 0 45 45;" xml:space="preserve" version="1.1" id="svg2"><metadata id="metadata8"><rdf:RDF><cc:Work rdf:about=""><dc:format>image/svg+xml</dc:format><dc:type rdf:resource="http://purl.org/dc/dcmitype/StillImage"/></cc:Work></rdf:RDF></metadata><defs id="defs6"><clipPath id="clipPath16" clipPathUnits="userSpaceOnUse"><path id="path18" d="M 0,36 36,36 36,0 0,0 0,36 Z"/></clipPath></defs><g transform="matrix(1.25,0,0,-1.25,0,45)" id="g10"><g id="g12"><g clip-path="url(#clipPath16)" id="g14"><g transform="translate(35,19)" id="g20"><path id="path22" style="fill:#ffcb4c;fill-opacity:1;fill-rule:nonzero;stroke:none" d="m 0,0 c 0,-9.389 -7.611,-17 -17,-17 -9.389,0 -17,7.611 -17,17 0,9.389 7.611,17 17,17 C -7.611,17 0,9.389 0,0"/></g><g transform="translate(21.875,12.875)" id="g24"><path id="path26" style="fill:#65471b;fill-opacity:1;fill-rule:nonzero;stroke:none" d="m 0,0 c 0,-1.066 -1.821,-1.931 -4.062,-1.931 -2.244,0 -4.063,0.865 -4.063,1.931 0,1.065 1.819,1.931 4.063,1.931 C -1.821,1.931 0,1.065 0,0"/></g><g transform="translate(25.3496,10.0186)" id="g28"><path id="path30" style="fill:#f19020;fill-opacity:1;fill-rule:nonzero;stroke:none" d="m 0,0 -0.033,0.021 c -0.839,0.514 -1.947,0.25 -2.462,-0.589 l -0.151,-0.245 c -0.542,0.562 -1.25,0.973 -2.068,1.14 l -1.399,0.286 1.272,6.224 c 0.197,0.965 -0.43,1.915 -1.395,2.113 L -6.273,8.958 C -7.238,9.155 -8.189,8.527 -8.386,7.562 l -1.674,-8.182 0,-0.001 -0.015,-0.074 -0.313,-1.531 c 0,-0.003 0,-0.006 -10e-4,-0.009 l -1.127,-5.534 c -0.221,-1.078 0.269,-2.25 1.894,-2.25 l 3.271,0 c 2.804,0 3.635,1.01 4.199,3.093 l 2.741,4.464 C 1.104,-1.623 0.839,-0.515 0,0"/></g><g transform="translate(22.4092,5.2568)" id="g32"><path id="path34" style="fill:#65471b;fill-opacity:1;fill-rule:nonzero;stroke:none" d="m 0,0 c -0.021,0 -0.042,0.002 -0.063,0.007 -0.185,0.034 -0.306,0.212 -0.27,0.396 0.059,0.312 -0.002,0.587 -0.188,0.839 -0.59,0.808 -2.289,1.176 -2.893,1.249 -0.187,0.022 -0.318,0.192 -0.296,0.377 0.022,0.186 0.184,0.32 0.377,0.296 0.101,-0.012 2.474,-0.31 3.36,-1.52 C 0.325,1.236 0.428,0.776 0.333,0.276 0.302,0.113 0.159,0 0,0"/></g><g transform="translate(19.1494,0.5264)" id="g36"><path id="path38" style="fill:#65471b;fill-opacity:1;fill-rule:nonzero;stroke:none" d="m 0,0 c -0.253,0 -0.53,0.031 -0.833,0.103 -0.61,0.144 -1.041,0.499 -1.181,0.975 -0.117,0.401 -0.009,0.825 0.289,1.136 0.389,0.401 1.003,0.533 1.695,0.357 C 0.151,2.525 0.261,2.341 0.215,2.159 0.169,1.979 -0.014,1.868 -0.198,1.914 -0.644,2.028 -1.022,1.965 -1.236,1.742 -1.364,1.611 -1.411,1.434 -1.363,1.27 c 0.07,-0.236 0.319,-0.42 0.685,-0.506 1.18,-0.278 1.834,0.186 2.175,0.625 0.508,0.652 0.567,1.538 0.387,1.884 -0.422,0.813 -2.049,0.993 -2.64,0.994 -0.187,0 -0.339,0.152 -0.339,0.339 10e-4,0.187 0.152,0.339 0.34,0.339 0.103,0 2.541,-0.014 3.241,-1.358 C 2.791,3.002 2.705,1.835 2.032,0.972 1.725,0.576 1.09,0 0,0"/></g><g transform="translate(14.2222,22.7778)" id="g40"><path id="path42" style="fill:#65471b;fill-opacity:1;fill-rule:nonzero;stroke:none" d="m 0,0 c 0,-1.391 -0.846,-2.519 -1.889,-2.519 -1.044,0 -1.889,1.128 -1.889,2.519 0,1.391 0.845,2.519 1.889,2.519 C -0.846,2.519 0,1.391 0,0"/></g><g transform="translate(29.8857,25.729)" id="g44"><path id="path46" style="fill:#65471b;fill-opacity:1;fill-rule:nonzero;stroke:none" d="m 0,0 c 0.222,0 0.445,0.069 0.637,0.213 0.469,0.351 0.564,1.018 0.212,1.487 -3.466,4.622 -8.092,4.675 -8.287,4.675 -0.587,0 -1.063,-0.476 -1.063,-1.063 0,-0.584 0.474,-1.059 1.058,-1.062 C -7.277,4.248 -3.651,4.159 -0.851,0.425 -0.643,0.147 -0.323,0 0,0"/></g><g transform="translate(21.7773,22.7778)" id="g48"><path id="path50" style="fill:#65471b;fill-opacity:1;fill-rule:nonzero;stroke:none" d="m 0,0 c 0,-1.391 0.846,-2.519 1.89,-2.519 1.043,0 1.888,1.128 1.888,2.519 0,1.391 -0.845,2.519 -1.888,2.519 C 0.846,2.519 0,1.391 0,0"/></g><g transform="translate(6.1143,25.729)" id="g52"><path id="path54" style="fill:#65471b;fill-opacity:1;fill-rule:nonzero;stroke:none" d="M 0,0 C -0.222,0 -0.445,0.069 -0.637,0.213 -1.106,0.564 -1.201,1.231 -0.849,1.7 2.617,6.322 7.243,6.375 7.438,6.375 8.025,6.375 8.501,5.899 8.501,5.312 8.501,4.728 8.028,4.253 7.443,4.25 7.277,4.248 3.651,4.159 0.851,0.425 0.642,0.147 0.323,0 0,0"/></g></g></g></g></svg>
