<svg xmlns="http://www.w3.org/2000/svg" viewBox="0 0 45 45" enable-background="new 0 0 45 45"><defs><clipPath id="a"><path d="M0 36h36V0H0v36z"/></clipPath></defs><g><g><g clip-path="url(#a)" transform="matrix(1.25 0 0 -1.25 0 45)"><g><path fill="#77b255" d="M36 18c0-9.94-8.07-18-18-18C8.04 0 0 8.06 0 18s8.05 18 18 18c9.93 0 18-8.06 18-18"/></g><g><path fill="none" stroke="#292f33" stroke-width="2.75" stroke-miterlimit="10" d="M14.6 11.03c.9.6 2.07.95 3.34.95 1.26 0 2.4-.35 3.3-.94"/></g><g><path fill="#292f33" d="M28.03 22.96c-.25.3-6.77 1.5-6.83 1.5-.12 0-.25-.08-.27-.2-.22-1.03-.05-2.07.46-2.94.5-.88 1.33-1.47 2.3-1.67.22-.05.46-.08.7-.08 1.74 0 3.3 1.34 3.68 3.18.02.07 0 .16-.05.2"/></g><g><path fill="#292f33" d="M14.76 24.47c-.06 0-6.6-1.2-6.83-1.5-.05-.06-.07-.15-.05-.22.4-1.84 1.94-3.18 3.68-3.18.24 0 .48.03.7.08 1.98.4 3.22 2.48 2.77 4.6-.02.13-.15.22-.27.22"/></g><g><path fill="#3e721d" d="M11.65 6.35c-.45 0-.86.28-1 .73-.2.55.1 1.15.66 1.34.1.03 2.47.87 2.47 3.23 0 2.35-2.36 3.2-2.46 3.23-.54.2-.84.8-.65 1.34.2.55.78.85 1.33.67.16-.07 3.9-1.36 3.9-5.25 0-3.9-3.74-5.2-3.9-5.24-.1-.03-.22-.05-.33-.05"/></g><g><path fill="#3e721d" d="M24.35 6.35c-.1 0-.22.02-.33.06-.16.06-3.9 1.35-3.9 5.25s3.74 5.18 3.9 5.24c.56.17 1.15-.13 1.34-.68.18-.56-.12-1.15-.67-1.34-.1-.04-2.47-.88-2.47-3.23 0-2.36 2.36-3.2 2.46-3.24.54-.18.84-.78.65-1.33-.15-.44-.56-.72-1-.72"/></g></g></g></g></svg>