<svg xmlns="http://www.w3.org/2000/svg" viewBox="0 0 45 45" enable-background="new 0 0 45 45"><defs><clipPath id="a"><path d="M0 36h36V0H0v36z"/></clipPath></defs><g><g><g clip-path="url(#a)" transform="matrix(1.25 0 0 -1.25 0 45)"><g><path fill="#963b22" d="M19 36c-1.72 0-3.34-.4-4.8-1.1-.4.06-.8.1-1.2.1-3.87 0-7-3.13-7-7V16h.02C6.2 9.53 11.5 4.34 18 4.34c6.5 0 11.8 5.2 11.98 11.66H30v9c0 6.08-4.92 11-11 11"/></g><g><path fill="#9268ca" d="M27 9H10V0h21v5c0 2.2-1.8 4-4 4"/></g><g><path fill="#d5ab88" d="M9 31V19c0-3.92 2.5-7.24 6-8.48V8c0-1.66 1.34-3 3-3s3 1.34 3 3v2.52c3.5 1.24 6 4.56 6 8.48v12H9z"/></g><g><path fill="#963b22" d="M27 31v1H8v-7c6 0 6 6 6 6s2-7 14-7v7h-1z"/></g><path fill="#963b22" d="M16.26 26.7h-4v4.7h4v-4.7z"/><g><path fill="#7450a8" d="M18.73 17.6l1.83-.68S14.03 3.18 13.16 1.9C12.25.62 11.27-.15 8.57.14L18.73 17.6z"/></g><path fill="#7450a8" d="M27 0h-1v4h1V0z"/><g><path fill="#7450a8" d="M14.98 7.6s-2.35-4.4-2.86-5.33c-.28-.5-1.3-2-2.32-2 0 0 2.2-.13 3.12 1.68 1.28 2.55 1.96 3.78 2.42 4.64 0 0-.12.32-.2.48-.12.23-.16.53-.16.53"/></g><g><path fill="#b78b60" d="M18.73 17.6l-4.08-6.94c.12-.04.23-.1.35-.14V8c0-.6.18-1.14.48-1.6 2.2 4.44 5.08 10.52 5.08 10.52l-1.83.7z"/></g><g><path fill="#df1f32" d="M20.02 12.6h-5.27c-.4 0-.7.3-.7.7 0 .4.3.7.7.7h5.27c.4 0 .7-.3.7-.7 0-.4-.3-.7-.7-.7"/></g><g><path fill="#a0041e" d="M15.78 12.6h2.7c.25.5.48.97.7 1.4H16.6l-.84-1.4z"/></g><g><path fill="#662113" d="M22 20c-.55 0-1 .45-1 1v1c0 .55.45 1 1 1s1-.45 1-1v-1c0-.55-.45-1-1-1"/></g><g><path fill="#b78b60" d="M13.5 28.15c.96.3 1.6-.5 1.78-1.2l.3-1.13.74 2.15c.37 1.05 1.5 1.6 2.55 1.23l3.78-1.33c1.04-.36 1.6-1.5 1.22-2.54l-2.65-7.55s-.33-.95-1.27-.62l-5.66 2-.63 1.26.35 1-1.23 4.92c-.18.7.04 1.6.7 1.8"/></g><g><path fill="#4f140b" d="M22 23c-.55 0-1-.45-1-1v-1c0-.55.45-1 1-1l.87 2.47c-.17.3-.5.53-.87.53"/></g><g><path fill="#d5ab88" d="M12.5 28.34c.7.17 1.4-.24 1.57-.93l.28-1.13.76 2.15c.37 1.05 1.52 1.6 2.56 1.23l3.77-1.32c1.04-.37 1.6-1.5 1.23-2.55L20 18.23s-.32-.95-1.27-.62l-5.66 2-.6 1.28.34.98-1.22 4.93c-.17.68.25 1.37.93 1.54"/></g><g><path fill="#b78b60" d="M18.74 23.95l.95-.33 1.64 4.7-.94.34-1.66-4.7z"/></g><g><path fill="#b78b60" d="M15.9 24.94l.96-.33 1.65 4.73-.93.33-1.66-4.72z"/></g><g><path fill="#9268ca" d="M14.28 6.15s-1.72-3.58-2.1-4.42C11.47.25 10 0 10 0 2 0 6.38 8.34 6.38 8.34L12.8 20.2l6.55-2.6-5.07-11.45z"/></g></g></g></g></svg>