<svg xmlns="http://www.w3.org/2000/svg" viewBox="0 0 45 45" enable-background="new 0 0 45 45"><defs><clipPath id="a"><path d="M0 36h36V0H0v36z"/></clipPath></defs><g><g><g clip-path="url(#a)" transform="matrix(1.25 0 0 -1.25 0 45)"><g><path fill="#ffcc4d" d="M32 18c0-8.84-7.16-16-16-16S0 9.16 0 18s7.16 16 16 16 16-7.16 16-16"/></g><g><path fill="#664500" d="M11.47 22.47c0-1.7-1-3.1-2.2-3.1-1.22 0-2.2 1.4-2.2 3.1 0 1.7.98 3.1 2.2 3.1 1.2 0 2.2-1.4 2.2-3.1"/></g><g><path fill="#664500" d="M23 22.47c0-1.7-1-3.1-2.2-3.1-1.22 0-2.2 1.4-2.2 3.1 0 1.7.98 3.1 2.2 3.1 1.2 0 2.2-1.4 2.2-3.1"/></g><g><path fill="#664500" d="M10.12 6.62c1.76 4.4 11.47 4.4 11.47 2.64 0-.88-7.07.9-11.48-2.64"/></g><g><path fill="#f4900c" d="M32.26 18.5H17c-1.5 0-2.73-1.34-2.73-3s1.22-3 2.73-3h15.26c1.5 0 2.74 1.34 2.74 3s-1.23 3-2.74 3"/></g></g></g></g></svg>