<svg xmlns="http://www.w3.org/2000/svg" viewBox="0 0 45 45" enable-background="new 0 0 45 45"><defs><clipPath id="a"><path d="M0 36h36V0H0v36z"/></clipPath></defs><g><g><g clip-path="url(#a)" transform="matrix(1.25 0 0 -1.25 0 45)"><g><path fill="#ffcc4d" d="M33 15c0-8.28-6.72-15-15-15C9.72 0 3 6.72 3 15c0 8.28 6.72 15 15 15 8.28 0 15-6.72 15-15"/></g><g><path fill="#664500" d="M25.7 10.4c-.16.13-.38.14-.53.02-.04-.03-3.23-2.4-7.17-2.4-3.92 0-7.13 2.37-7.16 2.4-.16.12-.38.1-.53-.03-.13-.14-.17-.36-.06-.52.1-.18 2.64-4.32 7.76-4.32 5.12 0 7.66 4.14 7.76 4.32.1.17.07.38-.07.5"/></g><g><path fill="#664500" d="M14.7 16.24c0-1.6-.92-2.9-2.05-2.9-1.14 0-2.06 1.3-2.06 2.9 0 1.6.9 2.88 2.05 2.88 1.13 0 2.06-1.3 2.06-2.88"/></g><g><path fill="#664500" d="M25.4 16.24c0-1.6-.9-2.9-2.05-2.9-1.13 0-2.06 1.3-2.06 2.9 0 1.6.92 2.88 2.05 2.88 1.14 0 2.06-1.3 2.06-2.88"/></g><g><path fill="#664500" d="M32 29.87c-1.2-1.44-3.18-1.95-5.08-2.12-.3 1.54-1.68 7.25-4.42 7.25-2.4 0-3.27-1.1-4.5-1.1S15.9 35 13.5 35c-2.74 0-4.1-5.7-4.42-7.25-1.9.17-3.9.68-5.08 2.12-2.15 2.6-5 .7-3.56-2.17C2.72 23.18 8.24 20 18 20c9.77 0 15.28 3.18 17.56 7.7 1.44 2.86-1.4 4.78-3.56 2.17"/></g><g><path fill="#825d0e" d="M21.5 33c-1.87 0-2.54-.96-3.5-.96s-1.63.96-3.5.96c-2.46 0-3.5-6.75-3.5-6.75S12.28 24 18 24s7 2.25 7 2.25S23.96 33 21.5 33"/></g><g><path fill="#664500" d="M11 30s2.07-2 7-2 7 2 7 2v-2s-2.22-2-7-2c-4.78 0-7 2-7 2v2z"/></g></g></g></g></svg>