<?xml version="1.0" encoding="UTF-8" standalone="no"?><svg xmlns:dc="http://purl.org/dc/elements/1.1/" xmlns:cc="http://creativecommons.org/ns#" xmlns:rdf="http://www.w3.org/1999/02/22-rdf-syntax-ns#" xmlns:svg="http://www.w3.org/2000/svg" xmlns="http://www.w3.org/2000/svg" viewBox="0 0 45 45" style="enable-background:new 0 0 45 45;" xml:space="preserve" version="1.1" id="svg2"><metadata id="metadata8"><rdf:RDF><cc:Work rdf:about=""><dc:format>image/svg+xml</dc:format><dc:type rdf:resource="http://purl.org/dc/dcmitype/StillImage"/></cc:Work></rdf:RDF></metadata><defs id="defs6"><clipPath id="clipPath16" clipPathUnits="userSpaceOnUse"><path id="path18" d="M 0,36 36,36 36,0 0,0 0,36 Z"/></clipPath></defs><g transform="matrix(1.25,0,0,-1.25,0,45)" id="g10"><g id="g12"><g clip-path="url(#clipPath16)" id="g14"><g transform="translate(30.7275,30.728)" id="g20"><path id="path22" style="fill:#ffcb4c;fill-opacity:1;fill-rule:nonzero;stroke:none" d="m 0,0 c 7.03,-7.029 7.03,-18.427 0,-25.457 -7.029,-7.028 -18.426,-7.028 -25.456,0 -7.029,7.03 -7.029,18.428 0,25.457 7.03,7.029 18.427,7.029 25.456,0"/></g><g transform="translate(19.2793,16.7197)" id="g24"><path id="path26" style="fill:#65471b;fill-opacity:1;fill-rule:nonzero;stroke:none" d="m 0,0 c -3.494,-3.493 -6.219,-5.403 -9.645,-7.713 -0.78,-0.529 -1.928,-1.93 10e-4,-3.859 3.857,-3.857 13.111,-4.246 19.288,1.929 6.176,6.177 5.788,15.43 1.928,19.288 C 9.644,11.575 8.243,10.427 7.715,9.646 5.406,6.221 3.495,3.495 0,0"/></g><g transform="translate(11.564,7.0771)" id="g28"><path id="path30" style="fill:#ffffff;fill-opacity:1;fill-rule:nonzero;stroke:none" d="m 0,0 c 0,0 3.858,1.93 9.645,7.716 5.786,5.785 7.715,9.643 7.715,9.643 0,0 1.928,-5.787 -4.822,-12.538 C 5.787,-1.93 0,0 0,0"/></g><g transform="translate(24.2988,29.3447)" id="g32"><path id="path34" style="fill:#65471b;fill-opacity:1;fill-rule:nonzero;stroke:none" d="m 0,0 c -0.142,-0.02 -2.374,-0.357 -4.943,-1.628 -0.062,0.101 -0.132,0.198 -0.219,0.285 -0.261,0.261 -0.595,0.399 -0.936,0.427 0.907,1.644 1.979,2.737 1.998,2.756 0.388,0.391 0.388,1.024 -0.004,1.413 -0.39,0.39 -1.021,0.391 -1.412,0 -0.156,-0.156 -3.828,-3.881 -3.828,-8.485 0,-0.405 0.243,-0.769 0.617,-0.924 0.373,-0.155 0.804,-0.069 1.09,0.217 3.245,3.245 7.874,3.953 7.921,3.96 0.222,0.033 0.416,0.135 0.563,0.283 0.215,0.215 0.33,0.526 0.284,0.85 C 1.052,-0.3 0.546,0.078 0,0"/></g><g transform="translate(11.7124,20.8701)" id="g36"><path id="path38" style="fill:#65471b;fill-opacity:1;fill-rule:nonzero;stroke:none" d="m 0,0 c -4.604,0 -8.329,-3.672 -8.485,-3.829 -0.39,-0.39 -0.39,-1.022 -0.001,-1.412 0.39,-0.391 1.023,-0.392 1.414,-0.003 0.018,0.019 1.113,1.091 2.755,1.998 0.029,-0.341 0.167,-0.675 0.428,-0.936 0.087,-0.087 0.183,-0.157 0.285,-0.218 -1.271,-2.571 -1.609,-4.803 -1.629,-4.944 -0.078,-0.547 0.302,-1.053 0.849,-1.131 0.324,-0.046 0.634,0.068 0.849,0.284 0.147,0.147 0.25,0.341 0.282,0.564 0.007,0.046 0.698,4.658 3.96,7.92 0.286,0.286 0.371,0.716 0.217,1.089 C 0.769,-0.244 0.404,0 0,0"/></g><g transform="translate(30.1016,23.9453)" id="g40"><path id="path42" style="fill:#64aadd;fill-opacity:1;fill-rule:nonzero;stroke:none" d="M 0,0 C 2.741,-0.334 5.233,1.618 5.566,4.36 5.901,7.101 3.949,9.594 1.208,9.927 -1.533,10.261 -9.202,7.165 -9.322,6.172 -9.443,5.18 -2.741,0.334 0,0"/></g><g transform="translate(12.1567,6.001)" id="g44"><path id="path46" style="fill:#64aadd;fill-opacity:1;fill-rule:nonzero;stroke:none" d="m 0,0 c 0.333,-2.742 -1.619,-5.234 -4.36,-5.567 -2.741,-0.335 -5.234,1.617 -5.568,4.358 -0.333,2.741 2.763,10.41 3.756,10.531 C -5.18,9.442 -0.334,2.741 0,0"/></g></g></g></g></svg>
