<svg xmlns="http://www.w3.org/2000/svg" viewBox="0 0 45 45" enable-background="new 0 0 45 45"><defs><clipPath id="a"><path d="M0 36h36V0H0v36z"/></clipPath></defs><g><g><g clip-path="url(#a)" transform="matrix(1.25 0 0 -1.25 0 45)"><g><path fill="#4289c1" d="M31 33c0-1.1-.9-2-2-2s-2 .9-2 2 .9 2 2 2 2-.9 2-2"/></g><g><path fill="#4289c1" d="M36 28c0-1.66-1.34-3-3-3s-3 1.34-3 3 1.34 3 3 3 3-1.34 3-3"/></g><g><path fill="#4289c1" d="M36 32c0-1.66-1.34-3-3-3s-3 1.34-3 3 1.34 3 3 3 3-1.34 3-3"/></g><g><path fill="#4289c1" d="M5 33c0-1.1.9-2 2-2s2 .9 2 2-.9 2-2 2-2-.9-2-2"/></g><g><path fill="#4289c1" d="M0 28c0-1.66 1.34-3 3-3s3 1.34 3 3-1.34 3-3 3-3-1.34-3-3"/></g><g><path fill="#4289c1" d="M0 32c0-1.66 1.34-3 3-3s3 1.34 3 3-1.34 3-3 3-3-1.34-3-3"/></g><g><path fill="#fee7b8" d="M36 18c0-9.94-8.06-18-18-18S0 8.06 0 18s8.06 18 18 18 18-8.06 18-18"/></g><g><path fill="#4289c1" d="M33 31.5c0-1.38-1.12-2.5-2.5-2.5S28 30.12 28 31.5s1.12 2.5 2.5 2.5 2.5-1.12 2.5-2.5"/></g><g><path fill="#4289c1" d="M34 29c0-1.1-.9-2-2-2s-2 .9-2 2 .9 2 2 2 2-.9 2-2"/></g><g><path fill="#4289c1" d="M3 31.5C3 30.12 4.12 29 5.5 29S8 30.12 8 31.5 6.88 34 5.5 34 3 32.88 3 31.5"/></g><g><path fill="#4289c1" d="M2 29c0-1.1.9-2 2-2s2 .9 2 2-.9 2-2 2-2-.9-2-2"/></g><g><path fill="#ff7892" d="M10.93 15c0-2.2-1.8-4-4-4s-4 1.8-4 4 1.8 4 4 4 4-1.8 4-4"/></g><g><path fill="#ff7892" d="M32.93 15c0-2.2-1.8-4-4-4s-4 1.8-4 4 1.8 4 4 4 4-1.8 4-4"/></g><g><path fill="#da2f47" d="M27.34 12.37c-.18.16-.45.17-.64.03-.04-.03-3.92-2.9-8.7-2.9-4.77 0-8.66 2.87-8.7 2.9-.2.14-.46.13-.64-.03-.17-.16-.2-.42-.1-.63C8.7 11.54 11.8 5 18 5c6.2 0 9.3 6.53 9.43 6.74.12.2.08.47-.1.63"/></g><g><path fill="#664500" d="M14 24.5c0-1.93-1.12-3.5-2.5-3.5S9 22.57 9 24.5s1.12 3.5 2.5 3.5 2.5-1.57 2.5-3.5"/></g><g><path fill="#664500" d="M28 24.5c0-1.93-1.12-3.5-2.5-3.5S23 22.57 23 24.5s1.12 3.5 2.5 3.5 2.5-1.57 2.5-3.5"/></g><g><path fill="#bb1a34" d="M22 16.5c0-1.93-1.57-3.5-3.5-3.5S15 14.57 15 16.5s1.57 3.5 3.5 3.5 3.5-1.57 3.5-3.5"/></g></g></g></g></svg>