<?xml version="1.0" encoding="UTF-8" standalone="no"?><svg xmlns:dc="http://purl.org/dc/elements/1.1/" xmlns:cc="http://creativecommons.org/ns#" xmlns:rdf="http://www.w3.org/1999/02/22-rdf-syntax-ns#" xmlns:svg="http://www.w3.org/2000/svg" xmlns="http://www.w3.org/2000/svg" viewBox="0 0 45 45" style="enable-background:new 0 0 45 45;" xml:space="preserve" version="1.1" id="svg2"><metadata id="metadata8"><rdf:RDF><cc:Work rdf:about=""><dc:format>image/svg+xml</dc:format><dc:type rdf:resource="http://purl.org/dc/dcmitype/StillImage"/></cc:Work></rdf:RDF></metadata><defs id="defs6"><clipPath id="clipPath16" clipPathUnits="userSpaceOnUse"><path id="path18" d="M 0,36 36,36 36,0 0,0 0,36 Z"/></clipPath></defs><g transform="matrix(1.25,0,0,-1.25,0,45)" id="g10"><g id="g12"><g clip-path="url(#clipPath16)" id="g14"><g transform="translate(35,19)" id="g20"><path id="path22" style="fill:#ffcb4c;fill-opacity:1;fill-rule:nonzero;stroke:none" d="m 0,0 c 0,-9.389 -7.611,-17 -17,-17 -9.388,0 -17,7.611 -17,17 0,9.388 7.612,17 17,17 C -7.611,17 0,9.388 0,0"/></g><g transform="translate(18,8.8643)" id="g24"><path id="path26" style="fill:#65471b;fill-opacity:1;fill-rule:nonzero;stroke:none" d="m 0,0 c 3.335,0 5.548,-0.389 8.284,-0.921 0.625,-0.12 1.841,0 1.841,1.842 0,3.682 -4.229,8.284 -10.125,8.284 -5.895,0 -10.125,-4.602 -10.125,-8.284 0,-1.842 1.216,-1.963 1.841,-1.842 C -5.548,-0.389 -3.335,0 0,0"/></g><g transform="translate(29.8994,18.811)" id="g28"><path id="path30" style="fill:#65471b;fill-opacity:1;fill-rule:nonzero;stroke:none" d="m 0,0 c -0.107,0.081 -1.823,1.347 -4.388,2.214 0.026,0.108 0.044,0.22 0.044,0.336 0,0.348 -0.131,0.664 -0.34,0.91 1.704,0.492 3.15,0.507 3.175,0.507 0.521,10e-4 0.943,0.425 0.942,0.946 -0.001,0.521 -0.422,0.942 -0.944,0.942 -0.208,0 -5.148,-0.035 -8.222,-3.109 -0.271,-0.27 -0.352,-0.677 -0.205,-1.03 0.145,-0.352 0.49,-0.583 0.872,-0.583 4.335,0 7.899,-2.618 7.934,-2.645 0.17,-0.126 0.368,-0.187 0.565,-0.187 0.288,0 0.572,0.131 0.757,0.378 C 0.502,-0.903 0.417,-0.312 0,0"/></g><g transform="translate(15.8345,21.5566)" id="g32"><path id="path34" style="fill:#65471b;fill-opacity:1;fill-rule:nonzero;stroke:none" d="m 0,0 c -3.075,3.075 -8.015,3.11 -8.223,3.11 -0.522,0 -0.944,-0.422 -0.944,-0.943 -10e-4,-0.521 0.421,-0.944 0.942,-0.946 0.025,0 1.472,-0.014 3.174,-0.506 -0.208,-0.247 -0.339,-0.562 -0.339,-0.91 0,-0.117 0.018,-0.228 0.044,-0.337 -2.565,-0.867 -4.281,-2.133 -4.388,-2.214 -0.418,-0.312 -0.502,-0.904 -0.189,-1.321 0.185,-0.248 0.469,-0.378 0.756,-0.378 0.197,0 0.396,0.061 0.566,0.189 0.035,0.026 3.576,2.644 7.933,2.644 0.382,0 0.727,0.23 0.873,0.583 C 0.351,-0.676 0.27,-0.27 0,0"/></g><g transform="translate(25.7119,3.7139)" id="g36"><path id="path38" style="fill:#77af57;fill-opacity:1;fill-rule:nonzero;stroke:none" d="m 0,0 0,7.101 c 0,2.592 -3.89,5.185 -7.778,5.185 -3.889,0 -7.778,-2.593 -7.778,-5.185 l 0,-7.101 c -4.403,-0.351 -7.359,-0.985 -7.359,-1.714 0,-1.104 6.777,-2 15.137,-2 8.36,0 15.136,0.896 15.136,2 C 7.358,-0.985 4.403,-0.351 0,0"/></g><g transform="translate(17.1104,12.7725)" id="g40"><path id="path42" style="fill:#5d8f3f;fill-opacity:1;fill-rule:nonzero;stroke:none" d="m 0,0 c 0,-0.683 -0.553,-1.235 -1.235,-1.235 -0.682,0 -1.236,0.552 -1.236,1.235 0,0.682 0.554,1.235 1.236,1.235 C -0.553,1.235 0,0.682 0,0"/></g><g transform="translate(21.9336,10.3604)" id="g44"><path id="path46" style="fill:#5d8f3f;fill-opacity:1;fill-rule:nonzero;stroke:none" d="m 0,0 c 0,-0.683 -0.553,-1.235 -1.235,-1.235 -0.682,0 -1.236,0.552 -1.236,1.235 0,0.683 0.554,1.235 1.236,1.235 C -0.553,1.235 0,0.683 0,0"/></g><g transform="translate(22.4668,5.4854)" id="g48"><path id="path50" style="fill:#5d8f3f;fill-opacity:1;fill-rule:nonzero;stroke:none" d="m 0,0 c 0,-0.683 -0.553,-1.235 -1.235,-1.235 -0.682,0 -1.236,0.552 -1.236,1.235 0,0.683 0.554,1.235 1.236,1.235 C -0.553,1.235 0,0.683 0,0"/></g><g transform="translate(16.8711,3.4521)" id="g52"><path id="path54" style="fill:#5d8f3f;fill-opacity:1;fill-rule:nonzero;stroke:none" d="m 0,0 c 0,-0.975 -0.79,-1.765 -1.765,-1.765 -0.974,0 -1.764,0.79 -1.764,1.765 0,0.975 0.79,1.765 1.764,1.765 C -0.79,1.765 0,0.975 0,0"/></g></g></g></g></svg>
