<svg xmlns="http://www.w3.org/2000/svg" viewBox="0 0 45 45" enable-background="new 0 0 45 45"><defs><clipPath id="a"><path d="M0 36h36V0H0v36z"/></clipPath></defs><g><g><g clip-path="url(#a)" transform="matrix(1.25 0 0 -1.25 0 45)"><g><path fill="#ffcc4d" d="M36 18c0-9.94-8.06-18-18-18S0 8.06 0 18s8.06 18 18 18 18-8.06 18-18"/></g><g><path fill="#664500" d="M30.6 18.8c-.1.08-1.93 1.43-4.65 2.34.03.12.05.24.05.36 0 .37-.14.7-.36.96 1.8.52 3.33.54 3.36.54.55 0 1 .45 1 1s-.45 1-1 1c-.22 0-5.45-.04-8.7-3.3-.3-.28-.38-.7-.22-1.08.15-.38.52-.62.92-.62 4.6 0 8.36-2.77 8.4-2.8.18-.13.4-.2.6-.2.3 0 .6.14.8.4.33.44.24 1.07-.2 1.4"/></g><g><path fill="#664500" d="M15.7 21.7C12.46 24.97 7.23 25 7 25c-.55 0-1-.45-1-1s.45-1 1-1c.03 0 1.56-.02 3.36-.54-.22-.26-.36-.6-.36-.96 0-.12.02-.24.05-.36-2.72-.9-4.54-2.26-4.65-2.34-.44-.33-.53-.96-.2-1.4.2-.26.5-.4.8-.4.2 0 .42.07.6.2.04.03 3.8 2.8 8.4 2.8.4 0 .77.24.92.62.16.37.07.8-.2 1.1"/></g><g><path fill="#664500" d="M16 7c2 5 13 5 13 3 0-1-8 1-13-3"/></g><g><path fill="#ccd6dd" d="M18.4 17.97c2.68-2.68-3.97-15.53-5.24-16.8C12.1.12 8.96.12 7.9 2.22c-1.04 2.1-4.2 0-5.24 1.05-2.1 2.1 1.05 3.15 0 5.25S-.5 11.67 1.6 13.77c2.1 2.1 7.36 1.05 10.5 3.15 3.16 2.1 5.25 2.1 6.3 1.05"/></g><g><path fill="#f5f8fa" d="M17.32 16.13c0 .06-.05.1-.08.17-.03.06-.05.13-.1.2-.15.2-.4.37-.7.4-.12.03-.26.02-.4 0-.08-.04-.16-.1-.24-.13-.04-.02-.08-.03-.12-.06-.1-.07-.2-.17-.28-.3-2.93-4.88-9.94-7.94-10-7.97-.54-.23-.8-.84-.56-1.38.17-.4.56-.63.97-.63.14 0 .3.02.42.08.22.1 4.06 1.77 7.43 4.72-2.07-3.83-5.23-6-5.28-6.03-.48-.33-.6-.98-.3-1.47.22-.3.55-.46.9-.46.2 0 .4.05.57.17.27.2 6.7 4.55 7.8 12.28.02.14.02.27-.02.4"/></g></g></g></g></svg>