<svg xmlns="http://www.w3.org/2000/svg" viewBox="0 0 45 45" enable-background="new 0 0 45 45"><defs><clipPath id="a"><path d="M0 36h36V0H0v36z"/></clipPath></defs><g><g><g clip-path="url(#a)" transform="matrix(1.25 0 0 -1.25 0 45)"><g><path fill="#f3d2a2" d="M32 16c0 2.2-1.12 4-2.5 4 0 0-.02 0-.03 0C27.95 26.3 23.4 30.88 18 30.88c-5.4 0-9.96-4.58-11.47-10.88 0 0-.02 0-.03 0C5.12 20 4 18.2 4 16c0-2.1 1.02-3.82 2.3-3.97C7.55 5.38 12.3 1 18 1c5.7 0 10.46 4.38 11.7 11.03 1.28.15 2.3 1.86 2.3 3.97"/></g><g><path fill="#662113" d="M13 15c-.55 0-1 .45-1 1v2c0 .55.45 1 1 1s1-.45 1-1v-2c0-.55-.45-1-1-1"/></g><g><path fill="#662113" d="M23 15c-.55 0-1 .45-1 1v2c0 .55.45 1 1 1s1-.45 1-1v-2c0-.55-.45-1-1-1"/></g><g><path fill="#c1694f" d="M18 5c-4.2 0-5.5 1.08-5.7 1.3-.4.38-.4 1.02 0 1.4.37.4.98.4 1.37.04C13.75 7.7 14.77 7 18 7c3.35 0 4.33.74 4.34.75.4.4 1 .37 1.4-.02.38-.4.36-1.05-.03-1.44C23.5 6.07 22.2 5 18 5"/></g><g><path fill="#c1694f" d="M19 10h-2c-.55 0-1 .45-1 1s.45 1 1 1h2c.55 0 1-.45 1-1s-.45-1-1-1"/></g><g><path fill="#ffe51e" d="M18 35c8 0 13-6 13-11s-1-7-2-5l-2 4s-6 0-8 2c0 0 3-6-3 0 0 0 1-4-5 1 0 0-3-2-4-7-.28-1.4-2 0-2 5s4 11 13 11"/></g><g><path fill="#99aab5" d="M28.55 27.6L25.87 33l-2.42-4.2-5.48 6.7-5.5-6.7L10 33l-3.05-5.4-1.45 2.15V26.5h25v3.25l-1.95-2.15z"/></g><g><path fill="none" stroke="#99aab5" stroke-miterlimit="10" d="M28.55 27.6L25.87 33l-2.42-4.2-5.48 6.7-5.5-6.7L10 33l-3.05-5.4-1.45 2.15V26.5h25v3.25l-1.95-2.15z" stroke-linecap="round" stroke-linejoin="round"/></g><g><path fill="#e1e8ed" d="M18 33l-2-2v-2l2-2 2 2v2l-2 2z"/></g><g><path fill="#e1e8ed" d="M11 30l-1-1.4L9 30l1 1.4 1-1.4z"/></g><g><path fill="#e1e8ed" d="M27 30l-1-1.4-1 1.4 1 1.4 1-1.4z"/></g></g></g></g></svg>