<svg xmlns="http://www.w3.org/2000/svg" viewBox="0 0 45 45" enable-background="new 0 0 45 45"><defs><clipPath id="a"><path d="M0 36h36V0H0v36z"/></clipPath></defs><g><g><g clip-path="url(#a)" transform="matrix(1.25 0 0 -1.25 0 45)"><g><path fill="#f3d2a2" d="M28.38 29.25s-2.42 0-2.7-2l-1.3-9.66c-.36-2.2 2.14-2.65 3.65-2.68 1.5-.03 2.76 1.1 2.8 2.56l.1 3.04.15 4.5.05 1.44c0 1.2-.52 2.5-2.75 2.8"/></g><g><path fill="#d2a077" d="M30.15 25.56H30c-.5.03-.9-.34-.9-.82l-.08-2.5 1.76-.33.13 3.1c-.1.32-.4.55-.75.56"/></g><g><path fill="#f3d2a2" d="M29.25 14.1h-3.6l-.5 1.65h4.6l-.5-1.66z"/></g><g><path fill="#f3d2a2" d="M20.42 28.5s.15.76 1.35.67l-.33-1.05-1.02.37z"/></g><g><path fill="#6d6e71" d="M29 33.63c0 .76-.6 1.37-1.36 1.37h-4.27c-.76 0-1.37-.6-1.37-1.37V18.36c0-.75 2.6-1.36 3.37-1.36h2.27c.75 0 1.36.6 1.36 1.36v15.27z"/></g><g><path fill="#231f20" d="M28 33.63c0 .76-.6 1.37-1.36 1.37h-4.27c-.76 0-1.37-.6-1.37-1.37V18.36c0-.75.6-1.36 1.36-1.36h4.27c.76 0 1.37.6 1.37 1.36v15.27z"/></g><path fill="#88c9f9" d="M22 20h5v13h-5V20z"/><g><path fill="#d2a077" d="M20.55 21.86l.13-.74.53.04.6.05c.5.04.9.38 1.03.82l-2.28-.16z"/></g><g><path fill="#d2a077" d="M20.55 24.26l.02-.73h.65c.52.02.96.34 1.17.78l-1.85-.04z"/></g><g><path fill="#d2a077" d="M20.54 26.9v-.7l.23-.04c.52-.04 1 .23 1.24.66l-1.46.08z"/></g><g><path fill="#d2a077" d="M30.4 24.14l-.14-.07c-.43-.2-.95 0-1.15.42l-.75 1.62c-.2.43-.02.95.4 1.15l.16.07c.44.2.95 0 1.16-.42l.76-1.63c.2-.44 0-.96-.42-1.16"/></g><g><path fill="#f3d2a2" d="M29.33 19.83h-.16c-.48.03-.85.43-.83.9l.16 3.94c.02.48.43.85.9.83h.16c.47-.03.85-.43.83-.9l-.18-3.94c-.02-.47-.42-.85-.9-.83"/></g><g><path fill="#f3d2a2" d="M29.9 24.09l-.16-.08c-.43-.2-.94-.02-1.15.4l-.77 1.64c-.2.44 0 .95.42 1.15l.14.08c.42.2.94 0 1.14-.42l.76-1.63c.2-.43.02-.94-.4-1.15"/></g><g><path fill="#f3d2a2" d="M30.82 22.22c-.8.33-1.64.12-1.98-.1-2.88-2.06-2.46-5.22-.44-5.66 1.63-.35 2.18.8 2.18.8l.18 3.26.06 1.7z"/></g><g><path fill="#f3d2a2" d="M20.72 24.1h-.06c-.18 0-.33.14-.34.32l-.04 1.47c0 .17.14.32.32.33h.06c.18 0 .33-.14.34-.32l.04-1.46c0-.18-.14-.34-.32-.34"/></g><g><path fill="#f3d2a2" d="M20.7 21.63l1.48.1s.38.03.65.3c.18.15.3.4.28.78-.06 1-1.06.94-1.06.94l-.4-.03-.6-.03-.5-.04.15-2z"/></g><g><path fill="#f3d2a2" d="M20.7 21.63h-.02c-.18 0-.33.12-.34.3l-.1 1.36c0 .17.12.32.3.33h.03c.18.02.33-.1.34-.3l.1-1.36c.02-.17-.1-.33-.3-.34"/></g><g><path fill="#f3d2a2" d="M20.85 21.2l.18-1.68.58.05s.3.03.52.23c.15.14.28.36.24.7-.1.85-.94.76-.94.76l-.57-.05z"/></g><g><path fill="#f3d2a2" d="M21.05 19.52h-.03c-.15-.03-.3.08-.3.23l-.17 1.15c-.02.14.08.28.23.3h.03c.16.03.3-.08.32-.22l.16-1.15c.02-.15-.08-.3-.23-.3"/></g><g><path fill="#f3d2a2" d="M21.34 26.65s.36-.02.67.17c.24.14.45.38.48.82.07 1.07-1 1.14-1 1.14l-.53.04h-.14l-.14-2.12.68-.05z"/></g><g><path fill="#f3d2a2" d="M20.7 26.7h-.07c-.18 0-.32.17-.3.35l.1 1.47c0 .18.17.32.35.3h.06c.18 0 .3-.17.3-.35l-.1-1.47c0-.18-.17-.32-.35-.3"/></g><g><path fill="#f3d2a2" d="M21.74 24.13s.35 0 .65.23c.2.16.38.42.37.86-.03 1.07-1.1 1.04-1.1 1.04l-.53-.02h-.5l.05-2.14 1.04.03z"/></g><g><path fill="#5c913b" d="M29.25 15h-3.8c-.4 0-.58-.2-1.2-1.2L19.9 7.1 6.5 10.12V0h16.36c1.34 0 2.54.3 3.04 1.54l4.63 11.63c.43 1.33-.33 1.83-1.28 1.83"/></g></g></g></g></svg>