<svg xmlns="http://www.w3.org/2000/svg" viewBox="0 0 36 36"><path fill="#DD2E44" d="M7.35 31.29c-.257.905-.272 1.425-.428 2.365-.115.69-.588 1.466-1.158 1.343-.452-.097-.795-.538-.68-1.52.061-.525.205-.877.393-1.416.108-.311.264-.74.353-1.153.097-.45.438-.928 1.018-.802.43.091.673.58.502 1.183z"/><path fill="#A0041E" d="M6.059 31.084c.024-.017.237-.141.55-.054.313.087.425.267.44.293.014.027-.289.776-.332.985-.044.223-.205.849-.212.876-.013.054-.069.086-.125.072l-.597-.144c-.056-.014-.09-.068-.077-.122l.205-.845c.057-.235.123-1.044.148-1.061z"/><path fill="#CCD6DD" d="M6.615 33.14c-.016 0-.031-.002-.047-.006l-.91-.22c-.107-.026-.174-.134-.147-.241.026-.107.134-.173.241-.147l.91.22c.107.026.174.134.147.241-.022.091-.103.153-.194.153zm.175-.72c-.016 0-.031-.002-.047-.006l-.91-.22c-.107-.026-.174-.134-.147-.241.025-.107.135-.174.241-.147l.91.22c.107.026.174.134.147.241-.022.092-.103.153-.194.153zm.174-.72c-.016 0-.031-.002-.047-.006l-.91-.22c-.107-.026-.174-.134-.147-.241s.134-.174.241-.147l.91.22c.107.026.174.134.147.241-.022.092-.103.153-.194.153z"/><path fill="#DD2E44" d="M14.867 30.401c-.18.923-.402 1.394-.688 2.302-.21.667-.139 1.573.425 1.722.447.118.953-.12 1.294-1.047.183-.496.214-.875.291-1.441.044-.326.1-.78.207-1.188.117-.445.029-1.025-.545-1.176-.425-.113-.864.213-.984.828z"/><path fill="#A0041E" d="M15.138 30.571c.024-.017.24-.136.551-.043.311.094.42.275.434.302.013.027-.304.77-.351.978-.049.222-.221.845-.229.871-.014.054-.071.084-.126.07l-.594-.156c-.056-.015-.089-.07-.075-.124l.221-.841c.062-.233.144-1.041.169-1.057z"/><path fill="#CCD6DD" d="M15.657 32.637c-.017 0-.034-.002-.051-.007l-.905-.239c-.107-.028-.171-.137-.143-.244.027-.106.137-.172.244-.142l.905.239c.107.028.171.137.143.244-.023.089-.104.149-.193.149zm.189-.716c-.017 0-.034-.002-.051-.007l-.905-.239c-.107-.028-.171-.137-.143-.244.027-.106.138-.172.244-.142l.905.239c.107.028.171.137.143.244-.023.089-.104.149-.193.149zm.188-.716c-.017 0-.034-.002-.051-.007l-.905-.239c-.107-.028-.171-.137-.143-.244.028-.106.139-.173.244-.142l.905.239c.107.028.171.137.143.244-.023.089-.104.149-.193.149z"/><g fill="#AF7E57"><path d="M16.042 24.146l-2.5-1.438-1.281 2.614c-.24.185-.28.276-1.615 1.052-1.203.699-3.46 3.091-4.21 4.025-.213.198-.259.341-.393.701l1.023.266s.182-.34.476-.533c1.438-.821 6.309-3.495 6.309-3.495.394-.283.64-.478.78-.72 0 0 1.192-1.979 1.411-2.472zm6.037-2.159L19.578 23.3c.171.271.513.854.797 1.59.083.213.191.618-.163.874-.2.146-.59.466-.889.704-.204.163-.438.349-.714.563-.997.778-3.032 2.787-3.198 2.951-.166.164-.283.377-.344.662.087.019.965.233.965.233s.123-.307.421-.487c.929-.561 6.214-3.599 6.214-3.599.69-.495 1.067-.722 1.005-1.432-.108-1.24-1.263-2.915-1.593-3.372zM13.576 9.322c-.267-.28-.705-.422-1.299-.422-1.689 0-3.358.215-3.783.3-.118.024-.173.024-.301-.052-.318-.188-.434-.696-.583-1.34-.048-.217-.101-.446-.165-.672-.279-1.001-.588-2.46-.55-2.736.054-.385-.312-3.22-.356-3.263-.071-.07-.274.067-.413.075-.111.007-.19.098-.308.176-.682.447-.78 1.376-.849 2-.042.386.62 1.095.684 1.502.02.133.047.804.089 1.888.044 1.135.099 2.549.141 2.788.101.572.208 1.186 1.01 1.382.604.147 2.378.241 3.673.309.65.035 1.213.064 1.512.093.647.062 1.198-.058 1.515-.331.192-.167.296-.389.309-.66.017-.443-.091-.793-.326-1.037zm20.031 3.101c-.285-.016-.335-.059-.612-.053-.406.009-.393.056-.577.053-.399-.006-.967-.034-1.387-.084-.31-.037-1.968-.116-2.419-.198-.614-.113-1.384-.261-2.798-.152-.794-.409-1.869-.87-2.823-1.279-.699-.3-1.359-.583-1.802-.8-.223-.109-.442-.165-.652-.165-.156 0-.308.031-.449.092-.325.141-.568.43-.686.813-.043.142-.162.638.108 1.073.216.347.624.573 1.214.671.618.102 1.367.333 2.234.6.857.265 1.82.561 2.804.772 0 0 1.555-.164 2.367-.213 1.124-.068 2.682-.362 3.092-.238.518.157 1.068.303 1.715-.03 1.106-.569 2.212-.236 2.095-.707-.028-.109-.881-.125-1.424-.155zm-15.78-7.43c-.062-.564-.59-1-1.148-.934-.564.062-.977.558-.914 1.122l.411 3.61-.355.047s-.363 1.057 1.449 1.057 1.621-.825 1.621-.825l-.595-.113-.469-3.964z"/><ellipse cx="17.167" cy="4.917" rx="2.625" ry="3"/></g><path fill="#60352A" d="M18.833 1.104c-.699-.487-2.461-.66-3.656-.029-.615.325-1.011.778-1.248 1.298-.181-.193-.487-.359-1.016-.403-1.196-.099-1.513 1.208-2.378 1.675-.653.352-1.4.364-1.921.013 0 0 .716.867 1.52 1.198 1.045.43 2.333.154 2.947-.175.258-.138.452-.314.604-.498.01.089.015.177.03.266.207 1.24 1.349 2.324 1.349 2.324s.414-1.064.227-1.085c-.347-.039-.555-1.105-.264-1.389.306-.299.6 0 .675.3s.277 1.151.277 1.151-.052-1.076.248-1.414c.3-.337 1.724-.262 2.324-1.724 0 0 .47.179.845.742.309.464.396 1.562.396 1.562s.283-.678.479-1.333c.225-.749-.542-1.855-1.438-2.479z"/><g fill="#A0041E"><path d="M15.104 18.375c-.318 1.396-2.009 4.729-2.009 4.729s1.639 1.477 2.987 1.437l1.954-2.841 1.735 2.446s1.713-1.274 2.931-1.485c0 0-1.666-3.182-2.023-3.856-.357-.674-1.057-1.547-1.057-1.547s-4.27.028-4.518 1.117z"/><path d="M16.028 24.667c-1.37 0-2.949-1.41-3.016-1.471-.042-.038-.054-.099-.028-.149.017-.033 1.688-3.335 1.998-4.7.263-1.152 4.193-1.211 4.64-1.214h.001c.038 0 .074.017.098.047.028.036.712.89 1.07 1.566.356.675 2.022 3.857 2.022 3.857.019.035.02.077.002.113-.018.035-.052.061-.091.067-1.176.204-2.861 1.45-2.879 1.463-.027.02-.062.026-.094.022-.033-.005-.062-.023-.082-.051l-1.632-2.3-1.853 2.693c-.032.051-.098.058-.156.057zm-2.777-1.595c.32.271 1.65 1.337 2.765 1.345l1.918-2.788c.023-.033.062-.054.102-.054h.001c.041 0 .079.02.102.053l1.662 2.343c.373-.267 1.665-1.15 2.715-1.398-.332-.633-1.635-3.122-1.945-3.709-.301-.567-.858-1.29-1.008-1.479-1.617.018-4.174.305-4.336 1.019-.293 1.284-1.702 4.122-1.976 4.668z"/></g><path fill="#DD2E44" d="M13.956 8.722c.549-.02 1.321.078 1.865.117 0 0 .078.855 1.399.894 1.321.039 1.671-.661 1.671-.661s1.01.078 1.749.544c.738.466 1.865.884 1.865.884s-1.049 1.197-.661 2.169l-1.049-.315s.352.593.235 1.021c-.117.427-.538.88-.581 1.269-.12 1.082.227 3.672.383 4.021 0 0-1.225-.346-3.191-.13-1.201.133-3.041.965-3.041.965.022-.842.413-2.902.559-4.01.142-1.079-.814-3.793-1.474-3.948-.661-.155-1.166-.194-1.166-.194s.155-.994 0-1.538-.233-.933-.233-.933 1.121-.135 1.67-.155z"/><circle fill="#269" cx="7.5" cy="2.917" r="2.055"/><path fill="#AF7E57" d="M6.718 1.82l-.079-.013c.133.02.261-.069.284-.203.023-.135-.068-.265-.204-.289l-.513-.091-.825.901-.25.922.817.15c.135.023.265-.068.288-.204.022-.129-.064-.248-.189-.279l.22.038c.135.023.265-.068.288-.204.023-.131-.065-.253-.193-.282l.271.046c.135.023.265-.068.288-.204s-.068-.265-.203-.288z"/></svg>