<svg xmlns="http://www.w3.org/2000/svg" viewBox="0 0 45 45" enable-background="new 0 0 45 45"><defs><clipPath id="a"><path d="M0 36h36V0H0v36z"/></clipPath><clipPath id="b"><path d="M28.66 33.03c0-1.52 1.24-2.75 2.75-2.75h.02c1.5 0 2.74 1.23 2.74 2.75s-1.23 2.75-2.74 2.75c-1.52 0-2.76-1.23-2.76-2.75"/></clipPath></defs><g><g><g clip-path="url(#a)" transform="matrix(1.25 0 0 -1.25 0 45)"><g><path fill="#7c533e" d="M34.08 34.58c-1.52 1.08-3.53-2.52-4-3.02l1.78-1.47-.6-5.6s-1.48.57-2.55.7c-.9.12-2.55-.18-2.55-.18s-2.07.7-2.42.7c-1.15-.1-2.23-.7-2.23-.7l-.45 1.7c.97.76 1.6 1.98 1.6 3.37 0 2.27-1.7 4.12-3.8 4.12-2.08 0-3.77-1.86-3.57-4.13.17-1.87 1.02-3.36 2.4-3.9l-.16-1.44c-.5.04-2.15.3-3.2 0-2.34-.7-5.4-2.72-6.1-2.82-.46-.07-2.6-.67-4.13-.9-.3-.04-.9.97-1.43 1.03-.15.02-.68-.7-.83-.67-.56.07-1.08.12-1.3.02-.93-.38-.4-3.38.72-3.2 0 0 2.03.47 2.8.56 1.66.2 4.33.28 5.3.54 1.42.38 4.35 1.45 4.35 1.45-.13-.47-.4-2.7-.27-3.52.27-1.87.96-5.4 1.26-7.1.44-2.55 6.52-.16 8.3-.16 0 0-.8 3.35.34 6.14.54 1.3 1.18 4.83 1.2 5.18 0 0 7.84-.2 8.84.55 1 .78.65 8.47.56 8.24.3.3 1.44 3.56.14 4.48"/></g><g><path fill="#4289c1" d="M17.8 33.14c1.87.2 3.3-.63 3.62-2.5.5-2.94-.8-4.16-1.98-4.6-1.06-.4-2.55.56-2.48.55 0 0 1-1.4 2.74-.86 1.38.42 1.86 1.8 2.2 1.96.48.2.88.46 1.05.73.3.53.4 1.28.25 1.96-.07.27-.33.53-.33.8-.07 2.1-1.67 3.57-4.03 3.38-1.66-.13-2.67-1.06-3.2-2.4.17.1.83.83 2.15.96"/></g><path fill="#55acee" d="M0 0v12h8.7c2.7 0 4 1.1 5.46 1.24 1.45.12 2.8-1.24 3.58-1.24.78 0 1.1.5 1.66.5.3 0 .92-.5 1.6-.5.66 0 2.37 1.24 3.06 1.24 1.4 0 3.58-1.24 5.02-1.24H36V0H0z"/><g><path fill="#ffd03f" d="M34.16 33.03c0-1.52-1.23-2.75-2.74-2.75-1.52 0-2.76 1.23-2.76 2.75s1.24 2.75 2.75 2.75c1.53 0 2.77-1.23 2.77-2.75"/></g></g></g><g><g clip-path="url(#b)" transform="matrix(1.25 0 0 -1.25 0 45)"><g><path fill="#ffad1f" d="M34.07 34.54s-.9.2-1.65-.25c0 0 0-.02 0-.02-.34-.2-.64-.54-.84-1.08-.36 0-.7.05-1 .1.82 2.35 2.83 1.78 2.9 1.76.1-.03.18.02.2.1.03.08-.02.17-.1.2-.03 0-2.38.67-3.28-1.97-.28.08-.5.2-.7.35 0 0 .02.02.02.03.6 1.78 2.3 1.96 2.38 1.97.1 0 .15.08.14.17 0 .08-.08.14-.17.13-.02 0-1.92-.2-2.6-2.07-.28.34-.28.68-.28.7 0 .08-.07.15-.15.15-.1 0-.16-.06-.16-.14 0-.04-.03-.55.43-1.03.48-.5 1.3-.76 2.4-.77.1-.34.16-.66.18-.94-2.88-.1-3.47 1.87-3.5 1.96 0 .08-.1.13-.18.1-.08-.02-.13-.1-.1-.18 0-.03.63-2.2 3.58-2.2.07 0 .14 0 .2 0 0-.28-.05-.54-.12-.77-2.7.08-3.24 1.66-3.26 1.73-.03.08-.1.13-.2.1-.07-.02-.12-.1-.1-.18.03-.08.6-1.87 3.46-1.93-.2-.5-.47-.75-.5-.77-.05-.06-.05-.16 0-.22.03-.02.07-.04.12-.04.03 0 .07.02.1.04.05.05 1.3 1.22.62 3.45 0 0-.02.06-.03.1.13.35.32.6.54.78 1.04-2.13-.36-4.1-.37-4.1-.05-.07-.04-.17.03-.22.03 0 .06-.02.1-.02.04 0 .08.02.1.06.03.02 1.55 2.15.4 4.45.2.1.43.16.63.18 1.16-1.82-.64-4.43-.66-4.46-.04-.07-.03-.16.04-.2.04-.03.07-.04.1-.04.05 0 .1.02.12.07.02.02.5.7.82 1.62.4 1.17.38 2.2-.06 3.02.18-.02.3-.05.32-.06.08 0 .17.03.2.12 0 .08-.04.16-.13.18"/></g></g></g></g></svg>