<?xml version="1.0" encoding="UTF-8" standalone="no"?><svg xmlns:dc="http://purl.org/dc/elements/1.1/" xmlns:cc="http://creativecommons.org/ns#" xmlns:rdf="http://www.w3.org/1999/02/22-rdf-syntax-ns#" xmlns:svg="http://www.w3.org/2000/svg" xmlns="http://www.w3.org/2000/svg" viewBox="0 0 45 45" style="enable-background:new 0 0 45 45;" xml:space="preserve" version="1.1" id="svg2"><metadata id="metadata8"><rdf:RDF><cc:Work rdf:about=""><dc:format>image/svg+xml</dc:format><dc:type rdf:resource="http://purl.org/dc/dcmitype/StillImage"/></cc:Work></rdf:RDF></metadata><defs id="defs6"><clipPath id="clipPath16" clipPathUnits="userSpaceOnUse"><path id="path18" d="M 0,36 36,36 36,0 0,0 0,36 Z"/></clipPath></defs><g transform="matrix(1.25,0,0,-1.25,0,45)" id="g10"><g id="g12"><g clip-path="url(#clipPath16)" id="g14"><g transform="translate(32,0)" id="g20"><path id="path22" style="fill:#292f33;fill-opacity:1;fill-rule:nonzero;stroke:none" d="m 0,0 0,4 c 0,3.314 -2.686,6 -6,6 l -16,0 c -3.313,0 -6,-2.686 -6,-6 l 0,-4 28,0 z"/></g><g transform="translate(20.8047,0)" id="g24"><path id="path26" style="fill:#dfe7ec;fill-opacity:1;fill-rule:nonzero;stroke:none" d="m 0,0 2.862,10.017 -11.333,0 L -5.609,0 0,0 Z"/></g><g transform="translate(18.6982,4.1543)" id="g28"><path id="path30" style="fill:#292f33;fill-opacity:1;fill-rule:nonzero;stroke:none" d="m 0,0 c 0,-0.387 -0.313,-0.699 -0.699,-0.699 -0.386,0 -0.699,0.312 -0.699,0.699 0,0.386 0.313,0.699 0.699,0.699 C -0.313,0.699 0,0.386 0,0"/></g><g transform="translate(18.6982,1.2969)" id="g32"><path id="path34" style="fill:#292f33;fill-opacity:1;fill-rule:nonzero;stroke:none" d="m 0,0 c 0,-0.387 -0.313,-0.699 -0.699,-0.699 -0.386,0 -0.699,0.312 -0.699,0.699 0,0.386 0.313,0.698 0.699,0.698 C -0.313,0.698 0,0.386 0,0"/></g><g transform="translate(23.29,0)" id="g36"><path id="path38" style="fill:#66757f;fill-opacity:1;fill-rule:nonzero;stroke:none" d="M 0,0 -0.332,0.543 3.21,1.517 0.377,10.017 -2.485,0 0,0 Z"/></g><g transform="translate(12.71,0)" id="g40"><path id="path42" style="fill:#66757f;fill-opacity:1;fill-rule:nonzero;stroke:none" d="m 0,0 0.332,0.543 -3.542,0.974 2.834,8.5 L 2.485,0 0,0 Z"/></g><g transform="translate(14,10.1133)" id="g44"><path id="path46" style="fill:#ae7e57;fill-opacity:1;fill-rule:nonzero;stroke:none" d="M 0,0 4,-1.75 8,0 8,4 0,4 0,0 Z"/></g><g transform="translate(14,12)" id="g48"><path id="path50" style="fill:#9a6a4a;fill-opacity:1;fill-rule:nonzero;stroke:none" d="M 0,0 C 1.216,-1.374 2.355,-1.719 3.996,-1.719 5.635,-1.719 6.783,-1.373 8,0 L 8,4 0,4 0,0 Z"/></g><g transform="translate(27.833,22.0645)" id="g52"><path id="path54" style="fill:#ae7e57;fill-opacity:1;fill-rule:nonzero;stroke:none" d="m 0,0 c 0,1.448 -0.733,2.623 -1.639,2.623 -0.082,0 -0.161,-0.02 -0.239,-0.039 -1.226,3.805 -4.32,6.513 -7.955,6.513 -3.635,0 -6.729,-2.708 -7.955,-6.513 -0.079,0.019 -0.157,0.039 -0.24,0.039 -0.905,0 -1.639,-1.175 -1.639,-2.623 0,-1.33 0.622,-2.417 1.423,-2.587 0.635,-4.846 4.153,-8.558 8.411,-8.558 4.258,0 7.776,3.712 8.41,8.558 C -0.62,-2.416 0,-1.329 0,0"/></g><g transform="translate(13.9272,11.2559)" id="g56"><path id="path58" style="fill:#f4f7f9;fill-opacity:1;fill-rule:nonzero;stroke:none" d="M 0,0 4.073,-2.893 1.417,-5.711 -1.594,-1.239 0,0 Z"/></g><g transform="translate(22.0732,11.2559)" id="g60"><path id="path62" style="fill:#f4f7f9;fill-opacity:1;fill-rule:nonzero;stroke:none" d="M 0,0 -4.073,-2.893 -1.417,-5.711 1.594,-1.239 0,0 Z"/></g><g transform="translate(21.0449,9.3467)" id="g64"><path id="path66" style="fill:#292f33;fill-opacity:1;fill-rule:nonzero;stroke:none" d="M 0,0 C -0.072,0.043 -0.159,0.043 -0.231,0.003 L -3.046,-1.544 -5.86,0.003 C -5.933,0.043 -6.02,0.042 -6.091,0 -6.162,-0.042 -6.206,-0.119 -6.206,-0.201 l 0,-3.218 c 0,-0.082 0.044,-0.159 0.115,-0.201 0.036,-0.022 0.077,-0.032 0.118,-0.032 0.039,0 0.077,0.009 0.113,0.029 l 2.814,1.548 2.815,-1.548 c 0.035,-0.02 0.073,-0.029 0.112,-0.029 0.041,0 0.082,0.01 0.119,0.032 0.07,0.042 0.114,0.119 0.114,0.201 l 0,3.218 C 0.114,-0.119 0.07,-0.042 0,0"/></g><g transform="translate(18,14.1982)" id="g68"><path id="path70" style="fill:#915a34;fill-opacity:1;fill-rule:nonzero;stroke:none" d="m 0,0 c -2.754,0 -3.6,0.705 -3.741,0.848 -0.256,0.256 -0.256,0.671 0,0.926 0.248,0.248 0.645,0.255 0.902,0.024 C -2.787,1.761 -2.118,1.311 0,1.311 c 2.2,0 2.836,0.485 2.842,0.49 C 3.098,2.056 3.499,2.044 3.755,1.786 4.011,1.53 3.997,1.104 3.741,0.848 3.6,0.705 2.754,0 0,0"/></g><g transform="translate(18.75,18.25)" id="g72"><path id="path74" style="fill:#915a34;fill-opacity:1;fill-rule:nonzero;stroke:none" d="m 0,0 -1.5,0 c -0.413,0 -0.75,0.337 -0.75,0.75 0,0.413 0.337,0.75 0.75,0.75 L 0,1.5 C 0.413,1.5 0.75,1.163 0.75,0.75 0.75,0.337 0.413,0 0,0"/></g><g transform="translate(22,21)" id="g76"><path id="path78" style="fill:#662213;fill-opacity:1;fill-rule:nonzero;stroke:none" d="m 0,0 0,0 c -0.55,0 -1,0.45 -1,1 l 0,1 C -1,2.55 -0.55,3 0,3 0.55,3 1,2.55 1,2 L 1,1 C 1,0.45 0.55,0 0,0"/></g><g transform="translate(14,21)" id="g80"><path id="path82" style="fill:#662213;fill-opacity:1;fill-rule:nonzero;stroke:none" d="m 0,0 0,0 c -0.55,0 -1,0.45 -1,1 l 0,1 C -1,2.55 -0.55,3 0,3 0.55,3 1,2.55 1,2 L 1,1 C 1,0.45 0.55,0 0,0"/></g><g transform="translate(18,34.5205)" id="g84"><path id="path86" style="fill:#60352a;fill-opacity:1;fill-rule:nonzero;stroke:none" d="m 0,0 c 5.648,0 9.178,-4.168 9.178,-7.641 0,-3.473 -0.706,-4.863 -1.412,-3.473 -0.706,1.389 -1.412,2.778 -1.412,2.778 0,0 -4.236,0 -5.648,1.39 0,0 2.118,-4.168 -2.118,0 0,0 0.706,-2.779 -3.53,0.694 0,0 -2.118,-1.389 -2.824,-4.862 -0.196,-0.964 -1.412,0 -1.412,3.473 C -9.178,-4.168 -6.354,0 0,0"/></g></g></g></g></svg>
