<?xml version="1.0" encoding="UTF-8" standalone="no"?><svg xmlns:dc="http://purl.org/dc/elements/1.1/" xmlns:cc="http://creativecommons.org/ns#" xmlns:rdf="http://www.w3.org/1999/02/22-rdf-syntax-ns#" xmlns:svg="http://www.w3.org/2000/svg" xmlns="http://www.w3.org/2000/svg" viewBox="0 0 45 45" style="enable-background:new 0 0 45 45;" xml:space="preserve" version="1.1" id="svg2"><metadata id="metadata8"><rdf:RDF><cc:Work rdf:about=""><dc:format>image/svg+xml</dc:format><dc:type rdf:resource="http://purl.org/dc/dcmitype/StillImage"/></cc:Work></rdf:RDF></metadata><defs id="defs6"><clipPath id="clipPath16" clipPathUnits="userSpaceOnUse"><path id="path18" d="M 0,36 36,36 36,0 0,0 0,36 Z"/></clipPath></defs><g transform="matrix(1.25,0,0,-1.25,0,45)" id="g10"><g id="g12"><g clip-path="url(#clipPath16)" id="g14"><g transform="translate(34.0811,34.5786)" id="g20"><path id="path22" style="fill:#f3d2a2;fill-opacity:1;fill-rule:nonzero;stroke:none" d="m 0,0 c -1.522,1.084 -3.531,-2.522 -3.987,-3.016 l 1.763,-1.469 -0.591,-5.579 c 0,0 -1.488,0.555 -2.558,0.689 -0.918,0.114 -2.56,-0.187 -2.56,-0.187 0,0 -2.072,0.714 -2.421,0.69 -1.15,-0.076 -2.226,-0.688 -2.226,-0.688 l -0.453,1.713 c 0.97,0.747 1.608,1.971 1.608,3.362 0,2.278 -1.699,4.125 -3.792,4.125 -2.094,0 -3.787,-1.856 -3.583,-4.125 0.167,-1.861 1.017,-3.351 2.405,-3.893 l -0.167,-1.441 c -0.486,0.043 -2.154,0.302 -3.21,-0.009 -2.334,-0.689 -5.404,-2.711 -6.08,-2.81 -0.473,-0.07 -2.608,-0.675 -4.14,-0.901 -0.277,-0.041 -0.891,0.966 -1.415,1.033 -0.15,0.02 -0.686,-0.691 -0.836,-0.672 -0.559,0.069 -1.078,0.115 -1.306,0.022 -0.926,-0.381 -0.4,-3.381 0.726,-3.214 0,0 2.036,0.483 2.793,0.574 1.669,0.2 4.343,0.273 5.318,0.536 1.415,0.382 4.34,1.45 4.34,1.45 -0.139,-0.467 -0.395,-2.713 -0.28,-3.516 0.268,-1.876 0.962,-5.411 1.262,-7.116 0.447,-2.541 6.526,-0.148 8.302,-0.148 0,0 -0.805,3.362 0.344,6.154 0.538,1.309 1.179,4.824 1.191,5.175 0,0 7.852,-0.208 8.847,0.557 1.012,0.778 0.65,8.461 0.565,8.233 C 0.172,-4.172 1.294,-0.922 0,0"/></g><g transform="translate(28.707,33.3003)" id="g24"><path id="path26" style="fill:#226699;fill-opacity:1;fill-rule:nonzero;stroke:none" d="M 0,0 C 0,1.484 1.204,2.688 2.688,2.688 4.17,2.688 5.374,1.484 5.374,0 5.374,-1.484 4.17,-2.687 2.688,-2.687 1.204,-2.687 0,-1.484 0,0"/></g><g transform="translate(17.7906,33.1443)" id="g28"><path id="path30" style="fill:#dd2e44;fill-opacity:1;fill-rule:nonzero;stroke:none" d="m 0,0 c 1.875,0.187 3.306,-0.636 3.625,-2.512 0.499,-2.935 -0.802,-4.155 -1.971,-4.592 -1.06,-0.396 -2.553,0.555 -2.488,0.548 0,0 0.992,-1.387 2.74,-0.85 1.387,0.426 1.86,1.792 2.218,1.959 0.464,0.217 0.87,0.458 1.032,0.728 0.313,0.532 0.406,1.281 0.25,1.969 C 5.344,-2.476 5.083,-2.212 5.075,-1.942 5.014,0.142 3.413,1.625 1.051,1.437 -0.611,1.306 -1.625,0.374 -2.16,-0.961 -1.981,-0.86 -1.322,-0.132 0,0"/></g><path id="path32" style="fill:#55acee;fill-opacity:1;fill-rule:nonzero;stroke:none" d="m 0,0 0,12 8.686,0 c 2.715,0 4.022,1.106 5.473,1.235 C 15.61,13.364 16.958,12 17.737,12 c 0.78,0 1.091,0.509 1.661,0.509 0.294,0 0.917,-0.509 1.592,-0.509 0.675,0 2.385,1.235 3.074,1.235 C 25.46,13.235 27.64,12 29.075,12 L 36,12 36,0 0,0 Z"/></g></g></g></svg>
