<svg xmlns="http://www.w3.org/2000/svg" viewBox="0 0 45 45" enable-background="new 0 0 45 45"><defs><clipPath id="a"><path d="M0 36h36V0H0v36z"/></clipPath></defs><g><g><g clip-path="url(#a)" transform="matrix(1.25 0 0 -1.25 0 45)"><g><path fill="#60352a" d="M19 36c-1.72 0-3.34-.4-4.8-1.1-.4.06-.8.1-1.2.1-3.87 0-7-3.13-7-7V16h.02C6.2 9.53 11.5 4.34 18 4.34c6.5 0 11.8 5.2 11.98 11.66H30v9c0 6.08-4.92 11-11 11"/></g><g><path fill="#9268ca" d="M27 15H9c-2.2 0-4-1.8-4-4V0h26v11c0 2.2-1.8 4-4 4"/></g><g><path fill="#af7e57" d="M14 31s0-5.3-5-5.94V19c0-4.97 4.03-9 9-9s9 4.03 9 9v5.02C15.9 24.4 14 31 14 31"/></g><path fill="#7450a8" d="M10 9h1V0h-1v9z"/><g><path fill="#90603e" d="M4.7 9.5l-.28.06h-.5c0 .06 0 .12.02.17-.34.22-.54.63-.45 1.05.1.54.63.9 1.17.78l2.1-.43h1.67c.86 0 1.56-.7 1.56-1.57V8H6.25s-1.48.67-1.55 1.5"/></g><g><path fill="#af7e57" d="M0 10.34c0 .44.35.8.78.8l4.7-.8H9.2c.43 0 .78-.35.78-.78V8H5L.78 9.56S0 9.9 0 10.34"/></g><g><path fill="#9268ca" d="M4 0h6v8H5L4 0z"/></g><path fill="#7450a8" d="M26 9h-1V0h1v9z"/><g><path fill="#90603e" d="M31.3 9.5l.28.06h.5c0 .06 0 .12-.02.17.34.22.54.63.45 1.05-.1.54-.63.9-1.17.78l-2.1-.43h-1.67c-.86 0-1.56-.7-1.56-1.57V8h3.75s1.48.67 1.55 1.5"/></g><g><path fill="#af7e57" d="M36 10.34c0 .44-.35.8-.78.8l-4.7-.8H26.8c-.43 0-.78-.35-.78-.78V8h5l4.22 1.56s.78.35.78.78"/></g><g><path fill="#9268ca" d="M32 0h-6v8h5l1-8z"/></g><g><path fill="#915a34" d="M19 16.5h-2c-.28 0-.5.22-.5.5s.22.5.5.5h2c.28 0 .5-.22.5-.5s-.22-.5-.5-.5"/></g><g><path fill="#df1f32" d="M20.5 13H20c-.28 0-.5.22-.5.5s.22.5.5.5h.5c.28 0 .5-.22.5-.5s-.22-.5-.5-.5"/></g><g><path fill="#60352a" d="M14 20c-.55 0-1 .45-1 1v1c0 .55.45 1 1 1s1-.45 1-1v-1c0-.55-.45-1-1-1"/></g><g><path fill="#60352a" d="M22 20c-.55 0-1 .45-1 1v1c0 .55.45 1 1 1s1-.45 1-1v-1c0-.55-.45-1-1-1"/></g></g></g></g></svg>