<svg xmlns="http://www.w3.org/2000/svg" viewBox="0 0 45 45" enable-background="new 0 0 45 45"><defs><clipPath id="a"><path d="M0 36h36V0H0v36z"/></clipPath></defs><g><g><g clip-path="url(#a)" transform="matrix(1.25 0 0 -1.25 0 45)"><g><path fill="#d1d3d4" d="M10 11c0 2.2-.9 4-2 4s-2 2-2-3c0-2.2 1-5 3-5 1.1 0 1 0 1 4"/></g><g><path fill="#d1d3d4" d="M26 11c0 2.2.9 4 2 4s2 2 2-3c0-2.2-1-5-3-5-1.1 0-1 0-1 4"/></g><g><path fill="#7c533e" d="M6 17.44c0 8.52 5.37 15.44 12 15.44s12-6.92 12-15.44C30 8 23 2 18 2S6 8 6 17.44"/></g><g><path fill="#d1d3d4" d="M5 22c0 2.2.9 4 2 4s2-1.8 2-4-.9-4-2-4-2-4-2 4"/></g><g><path fill="#7c533e" d="M8 15c0-2.2-1.12-4-2.5-4S3 12.8 3 15s1.12 4 2.5 4S8 17.2 8 15"/></g><g><path fill="#d1d3d4" d="M27 22c0 2.2.9 4 2 4s2-1.8 2-4c0-4-.9-4-2-4s-2 1.8-2 4"/></g><g><path fill="#7c533e" d="M33 15c0-2.2-1.12-4-2.5-4S28 12.8 28 15s1.12 4 2.5 4 2.5-1.8 2.5-4"/></g><g><path fill="#dd2e44" d="M30.96 26c.02.18.04.37.04.56 0 5.2-5.83 9.44-13 9.44-7.2 0-13.02-4.23-13.02-9.44 0-.2.02-.38.04-.56h25.94z"/></g><g><path fill="#dd2e44" d="M18 5.35c-2.42 0-4.27.7-4.35.7-.52.2-.78.78-.6 1.3.2.52.78.78 1.3.6.02-.02 1.6-.6 3.65-.6 2.04 0 3.63.58 3.65.6.52.18 1.1-.08 1.3-.6.18-.52-.08-1.1-.6-1.3-.08 0-1.93-.7-4.35-.7"/></g><g><path fill="#3d2e24" d="M19 10h-2c-.55 0-1 .45-1 1s.45 1 1 1h2c.55 0 1-.45 1-1s-.45-1-1-1"/></g><g><path d="M12 13c-.55 0-1 .45-1 1v2c0 .55.45 1 1 1s1-.45 1-1v-2c0-.55-.45-1-1-1"/></g><g><path d="M24 13c-.55 0-1 .45-1 1v2c0 .55.45 1 1 1s1-.45 1-1v-2c0-.55-.45-1-1-1"/></g><g><path fill="#f1f2f2" d="M22 25c0-2.2-1.8-4-4-4s-4 1.8-4 4 1.8 4 4 4 4-1.8 4-4"/></g><g><path fill="#f1f2f2" d="M15 24.5c0-1.93-1.57-3.5-3.5-3.5S8 22.57 8 24.5 9.57 28 11.5 28s3.5-1.57 3.5-3.5"/></g><g><path fill="#f1f2f2" d="M9 24c0-1.66-1.34-3-3-3s-3 1.34-3 3 1.34 3 3 3 3-1.34 3-3"/></g><g><path fill="#f1f2f2" d="M28 24.5c0-1.93-1.57-3.5-3.5-3.5S21 22.57 21 24.5s1.57 3.5 3.5 3.5 3.5-1.57 3.5-3.5"/></g><g><path fill="#f1f2f2" d="M33 24c0-1.66-1.34-3-3-3s-3 1.34-3 3 1.34 3 3 3 3-1.34 3-3"/></g><g><path fill="#d1d3d4" d="M27 12c0-1.1-1.57-2-3.5-2s-3.5.9-3.5 2 1.57 2 3.5 2 3.5-.9 3.5-2"/></g><g><path fill="#d1d3d4" d="M16 12c0-1.1-1.57-2-3.5-2S9 10.9 9 12s1.57 2 3.5 2 3.5-.9 3.5-2"/></g><g><path fill="#f1f2f2" d="M33 24c0 1.66-30 1.66-30 0s1.34-3 3-3h24c1.66 0 3 1.34 3 3"/></g></g></g></g></svg>