<svg xmlns="http://www.w3.org/2000/svg" viewBox="0 0 45 45" enable-background="new 0 0 45 45"><defs><clipPath id="a"><path d="M0 36h36V0H0v36z"/></clipPath></defs><g><g><g clip-path="url(#a)" transform="matrix(1.25 0 0 -1.25 0 45)"><g><path fill="#ccd6dd" d="M24.22 28.5c-1.78 0-2.44-1.34-2.56-1.7-.13-.33-1.35-2.4-1.44-2.86-.1-.47-.56-.25-.97-.2-.4.07-2.38.17-3.1.2 0 0-.48.74-1.15.68-.75-.06-1.28-.28-1.4-1.03-.13-.76 1.02-1.57 1.56-1.57.53 0 1 .28 1.18.28.2 0 3.1-.64 3.63-.7.53-.07 1.47-.04 1.72.37.24.4 2.08 2.9 2.33 3.4s.2 3.13.2 3.13"/></g><g><path fill="#ccd6dd" d="M22.7 19.9s-3.52-7.74-3.8-8.18c-.3-.43-.34-1.23-.2-1.9.1-.68 2-6.5 1.83-7.68-.07-.58 2.6-1.38 2.1-.04-.48 1.26-.36 3.7-.5 5.68-.1 1.4-.5 2.8-.5 2.8l3.56 5.58s1.9-4.9 2-5.78c.02-.33-.22-1.22-.2-2.35.03-1.92.3-4.4.25-5.12-.1-1.07 1.6-1.82 1.7-.06.14 1.9 1.36 5.64 1 8.13-.65 4.2-1.5 8.47-1.5 8.47l-5.76.47z"/></g><g><path fill="#99aab5" d="M31.1.98h-4.07c-.58 0-.17 1.28-.13 1.82.04.54.3.25.5.1.2-.18.72.03 1.17.28.46.25 1.08.46 1.27.16.72-1.1 1.35-.9 1.88-1.3.44-.35.65-1.06-.6-1.06"/></g><g><path fill="#99aab5" d="M18.7.98h3.84c.58 0 .16 1.28.12 1.82-.04.54-.3.25-.5.1-.2-.18-1.56-.4-1.7.26-.1.5-.95.26-1.15-.03-.6-.94-2.2-.57-2.6-1.1-.37-.46-.44-1.05 2-1.05"/></g><g><path fill="#99aab5" d="M25.25 28.53H28c.97 0 1.5-.72 1.63-1.25.12-.53.15-1.84-.32-2.62-.46-.78-1.34-2.47-1.34-3.35 0-.86.95-2.92 1.07-3.5.13-.55-.98-.45-1.78-1-.78-.52-1.6-1.42-1.66-1.7-.07-.3-1.04-.66-1.23-.07-.18.6-.83 1.35-1.68 2.06-.57.46-1.04.62-1 .93.02.3.64 1.9.7 2.43.24 2.53-1.26 2.6-.84 4.32.25 1.02 1.13 3.16 1.88 3.53.75.4 1 .23 1.8.23"/></g><g><path fill="#ccd6dd" d="M28.88 28.28c.9.06 1.18-.4 1.6-.6.4-.18 1.5-.6 1.74-.68.25-.1.7-.62.7.22 0 .44.2 1.53.3 2.03.13.7.25 1.38.25 1.38s-.72 1.03-.7 1.34c.04.3.4 1.12.8 1.3.4.2 1.55-.46 1.93-.7.38-.26.22-.88-.06-1.3-.28-.4-.56-1.1-.56-1.76 0-.84 0-3.26-.2-4.9-.08-.57-.85-.58-1.4-.5-.57.05-3.06.46-4.6.8-1.52.35-.7 3.32.2 3.38"/></g><g><path fill="#ccd6dd" d="M24.85 34.64c1.4.3 2.62-.45 3.1-1.26.83-1.38-.33-3.46.14-4.32.43-.8.12-.98-.5-1.4-.62-.42-1.27-.94-2.54-.9-1.46.02-1.67.85-1.5 1.55.1.35.1.7.03 1 0 0-.6.48-.62 2.03-.03 1.2-.33 2.84 1.87 3.3"/></g><g><path fill="#f5f8fa" d="M27.75 31.8c-.18-1.63-1.4-3.52-2.72-3.52-1.33 0-2.2 1.3-2.35 2.9-.15 1.6 1.47 3.6 2.85 3.5 1.33-.08 2.4-1.3 2.22-2.9"/></g><g><path fill="#292f33" d="M27.34 31.85c-.18-1.62-1.17-3.26-2.5-3.26-1.32 0-2.36 1.33-2.22 3.23.14 1.8 1.22 2.98 2.6 2.9 1.32-.1 2.3-1.3 2.12-2.88"/></g><g><path fill="#66757f" d="M14.1 24.26c-.23.04-.45.1-.67.14C6.13 25.92.17 26.93.1 26.65c-.05-.28 5.82-1.74 13.1-3.26.24-.06.46-.1.68-.15l.2 1z"/></g><g><path fill="#66757f" d="M15.2 23.5c-.18-.88-.78-1.5-1.33-1.38-.56.1-1.1.97-.93 1.85.2.88 1.03 1.45 1.6 1.33.55-.12.85-.92.67-1.8"/></g></g></g></g></svg>