<svg xmlns="http://www.w3.org/2000/svg" viewBox="0 0 45 45" enable-background="new 0 0 45 45"><defs><clipPath id="a"><path d="M0 36h36V0H0v36z"/></clipPath></defs><g><g><g clip-path="url(#a)" transform="matrix(1.25 0 0 -1.25 0 45)"><g><path fill="#d5ab88" d="M16 31c0-1.66 1.18-3 2.63-3s2.62 1.34 2.62 3-1.17 3-2.63 3C17.18 34 16 32.66 16 31"/></g><g><path fill="#963b22" d="M15.63 32.8s.2 1.03-1.26 1.15c-1.2.1-1.5-1.2-2.38-1.68-.66-.35-1.4-.36-1.93 0 0 0 .72-.88 1.52-1.2 1.04-.44 2.33-.16 2.94.17.96.5 1.1 1.55 1.1 1.55"/></g><g><path fill="#dd2e44" d="M17.97 2.65c-.55 0-1 .44-1 1v3c0 .55.45 1 1 1s1-.45 1-1v-3c0-.56-.45-1-1-1"/></g><g><path fill="#dd2e44" d="M8.54 1.57c-.2-.1-.43-.12-.67-.07-.53.13-.86.67-.73 1.2l.67 2.77c.14.53.68.87 1.22.73.53-.13.86-.67.73-1.2l-.67-2.76c-.07-.3-.28-.55-.54-.67"/></g><g><path fill="#d5ab88" d="M19.73 26.9l-.46 3.93c-.06.55-.57.97-1.1.9-.56-.06-.96-.54-.9-1.1l.4-3.63h-4.6l-5.84 2.9c-.55.08-1.06-.28-1.15-.83-.1-.54.27-1.06.82-1.15l5.4-2.8c.04 0 .64-.12.7-.12h2.75c0-.26.08-.6.25-1 1-2.5 3-8 3-8 2.2 0 2.62 4.72 2.62 7.2 0 .6.3.76.2 1.1 1.17.16 1.34-.35 1.88-.48 0 0-1.8 3.26-3.97 3.07"/></g><g><path fill="#d5ab88" d="M14.18 9.88c-.46.4-.56 1.1-.22 1.6l4.82 7.36c.37.57 1.14.73 1.72.36.57-.4.73-1.15.35-1.72l-4.8-7.35c-.4-.58-1.16-.74-1.73-.36-.05.03-.1.07-.14.1"/></g><g><path fill="#d5ab88" d="M8.63 4.92c-.3.46-.27 1.07.1 1.42l5.4 4.97c.42.4 1.1.34 1.5-.13.4-.47.4-1.16-.02-1.55l-5.37-4.97c-.42-.4-1.1-.32-1.5.14-.04.03-.07.08-.1.12"/></g><g><path fill="#d5ab88" d="M17.5 6.67c-.2.48-.04 1.02.37 1.26l5.8 3.34c.44.27 1.03.07 1.3-.44.27-.5.14-1.14-.32-1.4L18.87 6.1c-.46-.28-1.04-.08-1.32.43-.02.05-.04.1-.06.14"/></g><g><path fill="#d5ab88" d="M24.3 9.36c-.53-.18-1.13.05-1.4.56l-3.74 7.25c-.3.57-.07 1.27.5 1.56.56.3 1.25.07 1.55-.5l3.75-7.25c.3-.56.07-1.26-.5-1.55-.04-.03-.1-.05-.15-.07"/></g><g><path fill="#d5ab88" d="M24.3 22.97l-3.85 2c-.45.25-.63.82-.4 1.28.25.45.8.63 1.27.4l3.85-2c.46-.25.64-.82.4-1.28-.24-.46-.8-.63-1.27-.4"/></g><g><path fill="#d5ab88" d="M30.07 22.12l-5.3.78c-.5.08-.87.56-.8 1.07.08.5.56.86 1.07.8l5.3-.8c.5-.07.87-.55.8-1.06-.08-.5-.56-.86-1.07-.78"/></g><g><path fill="#963b22" d="M21.25 31s.28.68.48 1.33c.22.75-.54 1.86-1.44 2.48-.7.5-2.47.67-3.66.04-1.35-.7-1.7-2.02-1.47-3.37.2-1.24 1.35-2.33 1.35-2.33s.42 1.07.23 1.1c-.35.03-.56 1.1-.26 1.38.3.3.6 0 .66-.3.07-.3.28-1.15.28-1.15s-.06 1.07.24 1.4c.3.35 1.73.27 2.33 1.73 0 0 .48-.18.85-.74.3-.46.4-1.56.4-1.56"/></g><g><path fill="#a0041e" d="M16.5 18.04s-.8-2.02-1.07-2.87c-.27-.84-.83-1.8-.83-1.8s1.7-1.47 3-1.43l1.88 2.74 1.68-2.36s1.7 1.23 2.88 1.43c0 0-1.5 3.07-1.84 3.72-.34.65-1.2 1.5-1.2 1.5l-4.5-.93z"/></g><g><path fill="#dd2e44" d="M15.55 27.2s1.27-.08 1.8-.12c0 0 .07-.82 1.35-.86 1.27-.04 1.6.64 1.6.64s.98-.08 1.7-.53c.7-.45 1.8-.97 1.8-.97s-1.02-.86-.64-1.8l-1 .48s.3-.67.17-1.08c-.1-.4-.48-.75-.52-1.13-.1-1.04.34-3.9.5-4.23 0 0-1.3.34-3.2.13-1.16-.13-3.12-.96-3.12-.96.02.8.6 2.83.73 3.9.14 1.04-.78 3.94-1.4 4.1-.65.14-1.14.18-1.14.18s.15.67 0 1.2c-.15.52-.22.9-.22.9s1.16.07 1.6.14"/></g><g><path fill="#269" d="M7 28c0 1.1-.9 2-2 2s-2-.9-2-2 .9-2 2-2 2 .9 2 2"/></g></g></g></g></svg>