<svg xmlns="http://www.w3.org/2000/svg" viewBox="0 0 45 45" enable-background="new 0 0 45 45"><defs><clipPath id="a"><path d="M0 36h36V0H0v36z"/></clipPath></defs><g><g><g clip-path="url(#a)" transform="matrix(1.25 0 0 -1.25 0 45)"><g><path fill="#9268ca" d="M22.12 22.22h-4.44c-1.8 0-3.33-1.54-3.33-3.33V0H25v8.96l.46 1.75v8.2c0 1.78-1.54 3.32-3.34 3.32"/></g><g><path fill="#7450a8" d="M18 19.5c-2.48 0-4.5-2.02-4.5-4.5 0-2.5 2.02-4.5 4.5-4.5v9z"/></g><g><path fill="#9268ca" d="M18 18.5c-1.93 0-3.5-1.57-3.5-3.5s1.57-3.5 3.5-3.5v7z"/></g><g><path fill="#7450a8" d="M20 19.5c-2.48 0-4.5-2.02-4.5-4.5 0-2.5 2.02-4.5 4.5-4.5v9z"/></g><g><path fill="#9268ca" d="M20 18.5c-1.93 0-3.5-1.57-3.5-3.5s1.57-3.5 3.5-3.5v7z"/></g><g><path fill="#7450a8" d="M11.8 0h7.17v14.25c-.46.08-.92.13-1.4.13-4.6 0-8.34-3.74-8.34-8.35 0-2.37 1-4.5 2.58-6.03"/></g><g><path fill="#9268ca" d="M18.8 17.83v-4.5c-.4.07-.8.12-1.22.12-4.1 0-7.42-3.32-7.42-7.42 0-2.5 1.22-4.68 3.1-6.03h10.7v20.67l-5.17-2.84z"/></g><g><path fill="#7450a8" d="M24.44 20l4.85-5.1-4.3-4.53V7.33l-3.94-2.67-2.64 4.13 5.64 5.8-1.94 1.93L24.44 20z"/></g><g><path fill="#9268ca" d="M24.44 21.25l5.46-5.7s1.9-1.52 0-3.33c-1.14-1.08-8.28-5.9-8.28-5.9L19.4 8.57l6.06 5.88-3.34 3.34 2.32 3.47z"/></g><g><path fill="#f9ca55" d="M20.33 8.47c-1.12.53-2.2.46-3.22-.14-.48-.3-.68-.83.07-1 .76-.2 3.16 1.14 3.16 1.14"/></g><g><path fill="#ffdc5d" d="M21.84 6.55c.14-1.76-2.22-3.4-4.02-3.2-1.28.16-2.4 3.6-.87 4.05 1.35.4 1.73 1.63 3.34 1.17 1.27-.36 1.5-1.34 1.54-2.02"/></g><g><path fill="#ef9645" d="M20.66 5.87l-.2.44s-.78-1.14-1.86-1.58c-.8-.33-1.5-.37-1.85-.3.15-.3.15-.35.36-.54 1.12-.04 2.9.56 3.56 2"/></g><g><path fill="#ef9645" d="M18.44 5.9c1 .7 1.28 1.33 1.28 1.33l-.32.4s-1.15-1.76-3.18-1.67c.02-.25 0-.3.07-.55.26 0 1.34-.04 2.14.5"/></g><g><path fill="#ffac33" d="M15.57 31.2c.58-1.4-.07-2.98-1.44-3.55-1.38-.57-2.96.1-3.53 1.47-.58 1.4.07 2.97 1.44 3.54 1.38.57 2.96-.08 3.53-1.47"/></g><g><path fill="#ffdc5d" d="M20.98 24.2c1.2 1.44 1.92 3.27 1.3 4.75l-1 2.46c-5.53-2.07-7.8.78-7.8.78s1.08-2.6-1.23-3.92l1.23-2.97c1-2.43 2.38-4.17 4.8-3.17l.1-.33c.2-.8.04-1.48 1.24-1.52.84-.03 1.98 1.47 1.77 2.28l-.42 1.64z"/></g><g><path fill="#ffac33" d="M27.4 30.6c.83 2.2-1.15 3.86-2.84 4.04-1.02.1-1.94-.55-2.4-1.33-2.05 3.44-5.1 2.63-7.06 1.94-2.07-.72-5.15-2.86-3.94-5.17 1.2-2.3 5.24-1.3 5.24-1.3l1.46-2.36c-.4 2.03.94 2.5 1.57 2.04.65-.46.22-1.95.5-2.54.3-.6 1.34-1.4 1.34-1.4.64.8 2.64 3.58 1.7 6.94.4.15.97.05 1.44-.2 1.2-.6.26-3.7 1.92-4.67 1.6-.94 2.52.35 2.52.35-1.63-.06-2.22 1.56-1.43 3.67"/></g><g><path fill="#bf6952" d="M14.34 24.22l-.3-.13c-.14-.07-.3 0-.35.13-.07.14 0 .3.13.35l.3.13c.14.06.3 0 .36-.13.04-.14-.02-.3-.16-.35"/></g><g><path fill="#662113" d="M14.5 26.3c-.28-.12-.6 0-.7.27l-.2.5c-.12.26 0 .58.28.7.27.1.6-.03.7-.3l.2-.5c.1-.26 0-.57-.3-.68"/></g><g><path fill="#df1f32" d="M14.76 23.02c.24-.3.5-.54.8-.74 1.05.6 1.13 1.54 1.13 1.54s-.95-.4-1.9-.78c0 0-.02 0-.04-.02"/></g></g></g></g></svg>