<?xml version="1.0" encoding="UTF-8" standalone="no"?><svg xmlns:dc="http://purl.org/dc/elements/1.1/" xmlns:cc="http://creativecommons.org/ns#" xmlns:rdf="http://www.w3.org/1999/02/22-rdf-syntax-ns#" xmlns:svg="http://www.w3.org/2000/svg" xmlns="http://www.w3.org/2000/svg" viewBox="0 0 45 45" style="enable-background:new 0 0 45 45;" xml:space="preserve" version="1.1" id="svg2"><metadata id="metadata8"><rdf:RDF><cc:Work rdf:about=""><dc:format>image/svg+xml</dc:format><dc:type rdf:resource="http://purl.org/dc/dcmitype/StillImage"/></cc:Work></rdf:RDF></metadata><defs id="defs6"><clipPath id="clipPath16" clipPathUnits="userSpaceOnUse"><path id="path18" d="M 0,36 36,36 36,0 0,0 0,36 Z"/></clipPath></defs><g transform="matrix(1.25,0,0,-1.25,0,45)" id="g10"><g id="g12"><g clip-path="url(#clipPath16)" id="g14"><g transform="translate(32,0)" id="g20"><path id="path22" style="fill:#292f33;fill-opacity:1;fill-rule:nonzero;stroke:none" d="m 0,0 0,4 c 0,3.314 -2.686,6 -6,6 l -16,0 c -3.313,0 -6,-2.686 -6,-6 l 0,-4 28,0 z"/></g><g transform="translate(20.8047,0)" id="g24"><path id="path26" style="fill:#dfe7ec;fill-opacity:1;fill-rule:nonzero;stroke:none" d="m 0,0 2.862,10.017 -11.333,0 L -5.609,0 0,0 Z"/></g><g transform="translate(18.6982,4.1543)" id="g28"><path id="path30" style="fill:#292f33;fill-opacity:1;fill-rule:nonzero;stroke:none" d="m 0,0 c 0,-0.387 -0.313,-0.699 -0.699,-0.699 -0.386,0 -0.699,0.312 -0.699,0.699 0,0.386 0.313,0.699 0.699,0.699 C -0.313,0.699 0,0.386 0,0"/></g><g transform="translate(18.6982,1.2969)" id="g32"><path id="path34" style="fill:#292f33;fill-opacity:1;fill-rule:nonzero;stroke:none" d="m 0,0 c 0,-0.387 -0.313,-0.699 -0.699,-0.699 -0.386,0 -0.699,0.312 -0.699,0.699 0,0.386 0.313,0.698 0.699,0.698 C -0.313,0.698 0,0.386 0,0"/></g><g transform="translate(23.29,0)" id="g36"><path id="path38" style="fill:#66757f;fill-opacity:1;fill-rule:nonzero;stroke:none" d="M 0,0 -0.332,0.543 3.21,1.517 0.377,10.017 -2.485,0 0,0 Z"/></g><g transform="translate(12.71,0)" id="g40"><path id="path42" style="fill:#66757f;fill-opacity:1;fill-rule:nonzero;stroke:none" d="m 0,0 0.332,0.543 -3.542,0.974 2.834,8.5 L 2.485,0 0,0 Z"/></g><g transform="translate(14,10)" id="g44"><path id="path46" style="fill:#f6ddcd;fill-opacity:1;fill-rule:nonzero;stroke:none" d="M 0,0 4,-1.75 8,0 8,4 0,4 0,0 Z"/></g><g transform="translate(14,12)" id="g48"><path id="path50" style="fill:#ecc0ac;fill-opacity:1;fill-rule:nonzero;stroke:none" d="M 0,0 C 1.216,-1.374 2.355,-1.719 3.996,-1.719 5.635,-1.719 6.783,-1.373 8,0 L 8,4 0,4 0,0 Z"/></g><g transform="translate(11.4443,22.0645)" id="g52"><path id="path54" style="fill:#f6ddcd;fill-opacity:1;fill-rule:nonzero;stroke:none" d="m 0,0 c 0,-1.448 -0.734,-2.622 -1.639,-2.622 -0.905,0 -1.639,1.174 -1.639,2.622 0,1.448 0.734,2.623 1.639,2.623 C -0.734,2.623 0,1.448 0,0"/></g><g transform="translate(27.833,22.0645)" id="g56"><path id="path58" style="fill:#f6ddcd;fill-opacity:1;fill-rule:nonzero;stroke:none" d="m 0,0 c 0,-1.448 -0.733,-2.622 -1.639,-2.622 -0.905,0 -1.638,1.174 -1.638,2.622 0,1.448 0.733,2.623 1.638,2.623 C -0.733,2.623 0,1.448 0,0"/></g><g transform="translate(9.4775,21.0405)" id="g60"><path id="path62" style="fill:#f6ddcd;fill-opacity:1;fill-rule:nonzero;stroke:none" d="m 0,0 c 0,5.589 3.816,10.121 8.522,10.121 4.707,0 8.523,-4.532 8.523,-10.121 0,-5.589 -3.816,-10.121 -8.523,-10.121 C 3.816,-10.121 0,-5.589 0,0"/></g><g transform="translate(18,14.1982)" id="g64"><path id="path66" style="fill:#c1694f;fill-opacity:1;fill-rule:nonzero;stroke:none" d="m 0,0 c -2.754,0 -3.6,0.705 -3.741,0.848 -0.256,0.256 -0.256,0.671 0,0.926 0.248,0.248 0.645,0.255 0.902,0.024 C -2.787,1.761 -2.118,1.311 0,1.311 c 2.2,0 2.836,0.485 2.842,0.49 C 3.098,2.056 3.499,2.044 3.755,1.786 4.011,1.53 3.997,1.104 3.741,0.848 3.6,0.705 2.754,0 0,0"/></g><g transform="translate(18,34.5205)" id="g68"><path id="path70" style="fill:#292f33;fill-opacity:1;fill-rule:nonzero;stroke:none" d="m 0,0 c 5.648,0 9.178,-4.168 9.178,-7.641 0,-3.473 -0.706,-4.863 -1.412,-3.473 -0.706,1.389 -1.412,2.778 -1.412,2.778 0,0 -4.236,0 -5.648,1.39 0,0 2.118,-4.168 -2.118,0 0,0 0.706,-2.779 -3.53,0.694 0,0 -2.118,-1.389 -2.824,-4.862 -0.196,-0.964 -1.412,0 -1.412,3.473 C -9.178,-4.168 -6.354,0 0,0"/></g><g transform="translate(14,21)" id="g72"><path id="path74" style="fill:#662213;fill-opacity:1;fill-rule:nonzero;stroke:none" d="m 0,0 0,0 c -0.55,0 -1,0.45 -1,1 l 0,1 C -1,2.55 -0.55,3 0,3 0.55,3 1,2.55 1,2 L 1,1 C 1,0.45 0.55,0 0,0"/></g><g transform="translate(22,21)" id="g76"><path id="path78" style="fill:#662213;fill-opacity:1;fill-rule:nonzero;stroke:none" d="m 0,0 0,0 c -0.55,0 -1,0.45 -1,1 l 0,1 C -1,2.55 -0.55,3 0,3 0.55,3 1,2.55 1,2 L 1,1 C 1,0.45 0.55,0 0,0"/></g><g transform="translate(18.75,18.25)" id="g80"><path id="path82" style="fill:#c1694f;fill-opacity:1;fill-rule:nonzero;stroke:none" d="m 0,0 -1.5,0 c -0.413,0 -0.75,0.337 -0.75,0.75 0,0.413 0.337,0.75 0.75,0.75 L 0,1.5 C 0.413,1.5 0.75,1.163 0.75,0.75 0.75,0.337 0.413,0 0,0"/></g><g transform="translate(13.9272,11.2559)" id="g84"><path id="path86" style="fill:#f4f7f9;fill-opacity:1;fill-rule:nonzero;stroke:none" d="M 0,0 4.073,-2.893 1.417,-5.711 -1.594,-1.239 0,0 Z"/></g><g transform="translate(22.0732,11.2559)" id="g88"><path id="path90" style="fill:#f4f7f9;fill-opacity:1;fill-rule:nonzero;stroke:none" d="M 0,0 -4.073,-2.893 -1.417,-5.711 1.594,-1.239 0,0 Z"/></g><g transform="translate(17.999,7.5371)" id="g92"><path id="path94" style="fill:#292f33;fill-opacity:1;fill-rule:nonzero;stroke:none" d="m 0,0 2.927,-1.609 0,3.217 L 0,0 Z"/></g><g transform="translate(17.999,7.5371)" id="g96"><path id="path98" style="fill:none;stroke:#292f33;stroke-width:0.46599999;stroke-linecap:round;stroke-linejoin:round;stroke-miterlimit:10;stroke-dasharray:none;stroke-opacity:1" d="m 0,0 2.927,-1.609 0,3.217 L 0,0 Z"/></g><g transform="translate(17.999,7.5371)" id="g100"><path id="path102" style="fill:#292f33;fill-opacity:1;fill-rule:nonzero;stroke:none" d="m 0,0 -2.927,-1.609 0,3.217 L 0,0 Z"/></g><g transform="translate(17.999,7.5371)" id="g104"><path id="path106" style="fill:none;stroke:#292f33;stroke-width:0.46599999;stroke-linecap:round;stroke-linejoin:round;stroke-miterlimit:10;stroke-dasharray:none;stroke-opacity:1" d="m 0,0 -2.927,-1.609 0,3.217 L 0,0 Z"/></g></g></g></g></svg>
