<svg xmlns="http://www.w3.org/2000/svg" viewBox="0 0 45 45" enable-background="new 0 0 45 45"><defs><clipPath id="a"><path d="M0 36h36V0H0v36z"/></clipPath></defs><g><g><g clip-path="url(#a)" transform="matrix(1.25 0 0 -1.25 0 45)"><g><path fill="#f3d2a2" d="M23.54 6.96c-.95 1.36-.75 3.13.44 3.96 1.2.82 2.92.4 3.87-.97.94-1.36.74-3.13-.45-3.96-1.2-.84-2.92-.4-3.86.96"/></g><g><path fill="#dd2e44" d="M33.13 33c0 .56-.45 1-1 1h-3c-.56 0-1-.46-1-1 0-.56.45-1 1-1h3c.56 0 1 .46 1 1"/></g><g><path fill="#dd2e44" d="M4.98 27.63c.03.2 0 .44-.1.65-.28.48-.9.66-1.37.4L1.03 27.3c-.48-.26-.66-.87-.4-1.35.27-.5.88-.66 1.37-.4l2.47 1.37c.28.15.45.4.5.7"/></g><g><path fill="#f3d2a2" d="M24.25 12.46l1.87-3.5c.27-.48.1-1.12-.4-1.38-.48-.26-1.1-.1-1.35.4l-1.75 3.2-2.28-1.57-.44 2.14c-.14.22-.26.53-.36.96-.6 2.63-2.1 8.28-2.1 8.28 1.8 1.27 4.85-2.37 6.27-4.42.35-.5.68-.44.8-.8 1.04.56.78-1.3 1.15-.9 0 0 .5-1.32-1.4-2.4"/></g><g><path fill="#f3d2a2" d="M9.98 23.26c-.14-.6.16-1.2.74-1.45l8.15-3.27c.64-.26 1.36.05 1.62.68.24.65-.06 1.37-.7 1.63l-8.15 3.3c-.63.24-1.36-.07-1.6-.7-.04-.06-.05-.1-.07-.17"/></g><g><path fill="#f3d2a2" d="M3.75 27.53c-.22-.5-.07-1.1.37-1.38l6.18-3.93c.48-.3 1.14-.13 1.45.4.32.54.2 1.22-.3 1.53L5.3 28.08c-.5.3-1.14.12-1.46-.4-.03-.06-.05-.1-.07-.15"/></g><g><path fill="#f3d2a2" d="M29.1 33.47c-.47.18-1 .03-1.25-.4l-3.32-5.8c-.26-.44-.06-1.03.45-1.3.5-.27 1.13-.13 1.4.33l3.3 5.8c.27.45.07 1.04-.44 1.3-.04.04-.1.05-.14.07"/></g><g><path fill="#f3d2a2" d="M26.1 27.68c-.44.37-1.08.38-1.52 0l-6.16-5.35c-.5-.42-.54-1.15-.12-1.63.42-.47 1.15-.53 1.63-.1l6.16 5.34c.47.4.53 1.14.1 1.62-.03.05-.07.08-.1.12"/></g><g><path fill="#f3d2a2" d="M29.86 15.57l-4.34-.03c-.52 0-.93-.43-.93-.95s.42-.94.93-.94l4.35.03c.5 0 .93.42.93.94 0 .5-.42.93-.94.93"/></g><g><path fill="#f3d2a2" d="M35.38 13.7l-5.08 1.72c-.48.17-1.02-.1-1.18-.6-.17-.47.1-1 .58-1.17l5.08-1.73c.5-.16 1.02.1 1.2.6.15.48-.1 1-.6 1.18"/></g><g><path fill="#ffe51e" d="M29 9.13c-.53.43-1.15.82-1.15.82s.55-.95.56-1.5c.03-.68-.26-1.1-.26-1.1-1.32.86-2.45-.02-2.9.1-.43.1-1 1-1 1s.32-.8.43-1.1c.1-.28.04-.7-.38-.62-.4.06-.85 1.06-.6 1.3.15.1-.8.75-.8.75s-.3-1.54.22-2.68c.04-.08.1-.16.13-.24-.23.07-.5.1-.78.07-.7-.08-1.9-.6-2.52-1.54-.47-.74-.56-1.86-.56-1.86.2.58.83 1 1.57 1.08.98.1 2-.78 2.9 0 .42.32.57.64.6.9.5-.3 1.1-.44 1.78-.36 1.34.17 2.7 1.32 3 2.1.36 1.04.36 2.38-.25 2.87"/></g><g><path fill="#a0041e" d="M16.55 17.88s-1.82 1.2-2.52 1.74-1.7 1-1.7 1 .55 2.2 1.64 2.9l3.44-.68 3.72 2.14s1.64-.92 2.33-2.06c0 0-1.63-1.24-2.3-1.63.3-.5-.37-1.6-.37-1.6l-4.23-1.82z"/></g><g><path fill="#f3d2a2" d="M17.6 7.76l1.82 3.94c.22.47.77.67 1.24.46.47-.22.68-.78.46-1.25L19.3 6.98c-.22-.47-.78-.67-1.25-.45-.46.2-.67.77-.45 1.24"/></g><g><path fill="#f3d2a2" d="M17.02 1.96l.53 5.33c.05.5.5.88 1.02.83.5-.05.9-.5.84-1.02l-.52-5.33c-.05-.5-.5-.88-1.02-.84-.52.06-.9.52-.84 1.03"/></g><g><path fill="#dd2e44" d="M21.43 10.16s.57.45.98.78c0 0-.4.72.62 1.48 1.03.76 1.7.4 1.7.4s.22-.1 1.03.15c.38.1 1.14.3 1.14.3s-.05 1.62-.27 2.6l-1.95.08s-.2.95-.53 1.22c-.33.28-.83.35-1.07.63-.7.8-1.87 3.13-1.94 3.5 0 0-.95-.76-2.63-1.67-1.02-.56-3.1-1-3.1-1 .48-.66 2.1-2 2.82-2.78.7-.78 1.6-3.7 1.17-4.18-.45-.48-1.08-1.53-1.08-1.53s.62-.45 1.04-.8c.58-.5 1.07-.62 1.07-.62s.64 1.1 1 1.44"/></g></g></g></g></svg>