<svg xmlns="http://www.w3.org/2000/svg" viewBox="0 0 45 45" enable-background="new 0 0 45 45"><defs><clipPath id="a"><path d="M0 36h36V0H0v36z"/></clipPath></defs><g><g><g clip-path="url(#a)" transform="matrix(1.25 0 0 -1.25 0 45)"><g><path fill="#3e721d" d="M32.42 8.2s.6-1.2 1.78-.6c1.2.58.3-2.08.3-2.08s-2.9-.12-4.94-.02c-1.87.1-.7.9.5 1.5 1.18.6 2.36 1.2 2.36 1.2"/></g><g><path fill="#cc9b7a" d="M26.83 25.65l.4-2.47s-.2-.15-.4-.36c-.13 0-.24-.05-.32-.18-.65-1.04-1.5-2.08-2.07-2.23-.43-.1-1.28-.3-1.85-.65-.57-.35-.48-.7.25-1.06.74-.38 1.7-.22 2.2.34.45.48 1.5 1.2 2.3 1.74.78.35 1.86 1.06 1.98 1.62.14.57.56 3.13.56 3.13l-3.03.12z"/></g><g><path fill="#cc9b7a" d="M34.3 8.38c-.52 2.63-1.93 3.47-2.52 3.7.84 1.16 1.9 3.4 2.22 4.36.43 1.23-.5 3.73-1.75 2.1-1.07-1.38-2.66-4.7-3.12-5.7-.63.1-1.13.07-1.13-.28 0-.92 3.25-2.56 4.44-4.56.48-.8 2.23-1.37 1.87.38"/></g><g><path fill="#3e721d" d="M35.1 18.38L29 16l3.86-2.08 2.24 4.46z"/></g><g><path fill="#d5ab88" d="M28 16s-2-3-2-4 1-4 1-7 2-3 2-2 1.58 5.42 0 7c-1 1 2 4 2 4l-3 2z"/></g><g><path fill="#77b255" d="M30 20l-2.63-5 3-1.94s5.56 5.02 5.56 7.02c0 2.8-2.5 3.73-2.5 3.73L30 20z"/></g><g><path fill="#d5ab88" d="M28 28.78l-.74 1.6c.1.23.18.48.2.76.2 1.6-.83 3-2.28 3.17-1.44.17-3.3-1.04-3.12-2.63.17-1.57 1.24-3.83 2.53-3.33.13.05.26.1.4.16l.45-.75L28 28.78z"/></g><g><path fill="#d5ab88" d="M22.5 22.56c-1.3-.87-2.8-2.5-3.63-2.62-.98-.15-1.68.94-2.6-.37-.55-.82.36-1.7 2.23-1.7 1.08 0 4.1 1.63 5.25 2.44 1.25.9 1.53 1.88 1.98 3.07.14.38.52-.56 1.4-1 1.45-.72 2.43-1.43 3-2.3 2.68 1.43 4.43 3 4.43 3-1.56 1.74-2.46 3.66-4.06 4.87-2.52 1.9-3.6.75-5.38-.14-1.27-.62-1.87-2.36-2.62-5.24"/></g><g><path fill="#77b255" d="M30.06 19.8c2.7 1.45 4.5 3.26 4.5 3.26-1.56 1.75-2.46 3.67-4.06 4.88-.35.26-.68.47-.98.62.13-.23.1-.47-.33-.62-.96-.34-2.07.27-3.23.32-.2-.12-.42-.23-.64-.35.98-.1 2.08-1.3 2.3-2.53.2-1.22-.22-2.36-.74-2.86.07-.03.14-.08.22-.12 1.46-.73 2.38-1.7 2.94-2.57"/></g><g><path fill="#77b255" d="M26.93 4.23s.7-1.23 1.93-.52c1.22.7.44-2.2.44-2.2S25.9.37 23.96.9c-1.93.53-.7 1.23.52 1.94 1.22.7 2.45 1.4 2.45 1.4"/></g><g><path fill="#963b22" d="M22.53 33.73c1.83 1.34 3.14 1.24 4.3.46 1.12-.8 1.3-2.4 1.07-3.46-.22-1.06-.52-1.03-.52-1.03s-1.4-.42-1.6.9c-.08.42.37.68-.18 1.25-.36.37-1.07.12-1.03-.45.04-.57-.26-.48-.26-.48l-.96 1.44s-.74 0-1.1-.72c-.23-.44-1.3.9.3 2.1"/></g><g><path fill="#2a6797" d="M10.1 7.87s-.75-1.1-1.85-.36c-1.1.74-.55-2-.55-2s2.85-.5 4.9-.66c1.86-.14.8.82-.3 1.56-1.1.74-2.2 1.47-2.2 1.47"/></g><g><path fill="#4289c1" d="M3.85 4.7s-.92-1.07-2-.15C.8 5.48 1.02 2.5 1.02 2.5S4.15.7 6.15.85c2 .14.92 1.07-.15 2C4.9 3.77 3.84 4.7 3.84 4.7"/></g><g><path fill="#4289c1" d="M7.75 28.2c2.73.3 3.27-.6 3.7-1.42.97-1.92-.88-3.33-1.35-4.02-.47-.7-2.86-2.72-3.15-3.84-.3-1.12.14-1.12.9-1.67.77-.54 3.42-1.86 3.82-2.73.4-.87.26-1.46-.17-2.15-.43-.68-1.57-3.87-1.5-4.7 0 0-.98-.84-1.9-.08 0 0 .1 2.67.27 3.7.18 1 .57 1.8.57 1.8l-2.53.84s.5-1.4.48-2.05c-.04-.66-.88-1.92-1.24-2.36-.58-.73-1.77-3.33-1.8-4.84 0 0-.88-1.2-1.98-.15 0 0-.02 2.5.13 3.46.13 1 1.25 3.1 1.5 3.57.26.47-.37.88-.66 1.5-.3.6-2 2.95-2 4.26 0 1.3.64 3.3 1.15 4.02.5.72 1.52 3.52 1.76 4.3.47 1.53 2.07 2.32 4 2.54"/></g><g><path fill="#d5ab88" d="M6.22 14.44s-2.3-.62-3.35-1.43c.27-.62.65-1.38.4-1.85C3.02 10.68 2.13 9 2 8c-.16-.96-.14-3.45-.14-3.45 1.1-1.06 2 .15 2 .15 0 1.5 1.2 4.1 1.78 4.84.36.44 1.2 1.7 1.24 2.35.03.64-.4 1.9-.4 1.9l-.26.64z"/></g><g><path fill="#cc9b7a" d="M11.67 14.52c-.25.53-1.34 1.24-2.32 1.83-.87-.63-1.66-2.4-1.82-2.8L8.87 13s-.32-.7-.5-1.7c-.18-1.03-.26-3.7-.26-3.7.92-.77 1.9.07 1.9.07-.07.83 1.06 4.02 1.5 4.7.43.7.56 1.28.17 2.15"/></g><g><path fill="#d5ab88" d="M11.53 17.97c-.53.87-1.44 1.4-2.12 1.34-.68-.05-2.52 1.73-2.93 1.9-.4.14-.56.36-.4.83.1.34.45 1.56.65 2.47.35.35.6.8.7 1.3.1.7-.23 2.3-1.26 2.07-1.4-.3-2.5-1.35-2.75-3.15-.04-.33.03-.58.17-.78.1-1.27.3-3.18.34-3.57.04-.5 3.98-2.25 4.35-2.4.38-.16 1.1-1.1 1.66-1.13.57-.03 2.16.25 1.63 1.13"/></g><g><path fill="#cc9b7a" d="M9.8 28.16c.98-.13 1.7-.6 2-1.53.33-.94.74-3.7.86-3.97.1-.22.28-.47.62-.32.35.16 1.5.38 2.1.44.6.06.6.88 1.37 1.16.78.28 1.66-.25 1.7-1.03.02-.77-.2-1.12-1.2-1.3-1-.2-1.63-.47-1.94-.63-.3-.16-3.1-1-3.52-.9-.4.1-1.68 2.7-1.68 2.7l.77 1.04s-.5.6-.2 1.36c.5 1.37-.86 3-.86 3"/></g><g><path fill="#2a6797" d="M7.53 13.56c-.1-.03-1.12.38-1.12.38l-.84 2.15 2.4-1.4s-.12-.33-.24-.58c-.13-.25-.2-.56-.2-.56"/></g><g><path fill="#d5ab88" d="M10.15 33.56c-1.44-.16-2.47-1.58-2.3-3.17.04-.28.12-.53.23-.78l-.68-1.47c-.16-.03-.28-.06-.28-.06.47-.1.72-.54 1.3-1.5.55-.97 1.55-.63 1.45.18 0 .13-.07.3-.14.5l.26.5c.3-.13.6-.22.87-.25 1.45-.14 2.22 1.8 2.4 3.43.18 1.6-1.67 2.76-3.12 2.6"/></g><g><path fill="#963b22" d="M13.02 32.98c-1.52 1.27-3.14 1.24-4.28.46-1.14-.78-1.3-2.4-1.1-3.45.23-1.07.4-.9.4-.9s.34.12.43.56c.1.4-.2.76.34 1.34.37.37.58-.27.54-.84-.03-.57.32-.25.32-.25l.62 1.22s.62-.58 1.8-.18c.86.28 1.2.28 1.14-.5.66 1.12.34 2.1-.2 2.54"/></g></g></g></g></svg>