<svg xmlns="http://www.w3.org/2000/svg" viewBox="0 0 45 45" enable-background="new 0 0 45 45"><defs><clipPath id="a"><path d="M0 36h36V0H0v36z"/></clipPath></defs><g><g><path fill="#77b255" d="M32.52 33.75H7.5V45h30V32.7h-5l.02 1.05z"/></g><g><g clip-path="url(#a)" transform="matrix(1.25 0 0 -1.25 0 45)"><g><path fill="#ffdc5d" d="M14 9s.85-2.06 3.55-2.06C20.25 6.94 21 9 21 9l-.02 3.9L14 13V9z"/></g><g><path fill="#f9ca55" d="M14.02 10.97c1.06-1.2 2.05-1.5 3.48-1.5 1.42 0 2.42.3 3.48 1.5v3.52h-6.96v-3.53z"/></g><g><path fill="#ffdc5d" d="M11.84 19.8c0-1.26-.64-2.3-1.42-2.3-.8 0-1.43 1.04-1.43 2.3 0 1.28.63 2.32 1.42 2.32.78 0 1.42-1.04 1.42-2.3"/></g><g><path fill="#ffdc5d" d="M26.1 19.8c0-1.26-.64-2.3-1.42-2.3-.8 0-1.43 1.04-1.43 2.3 0 1.28.64 2.32 1.43 2.32.78 0 1.42-1.04 1.42-2.3"/></g><g><path fill="#ffdc5d" d="M10.13 18.9c0 4.92 3.32 8.9 7.42 8.9s7.4-3.98 7.4-8.9c0-4.9-3.3-8.88-7.4-8.88-4.1 0-7.42 3.98-7.42 8.9"/></g><g><path fill="#c1694f" d="M17.55 12.9c-2.4 0-3.14.62-3.26.75-.23.22-.23.6 0 .8.2.23.55.23.78.03.04-.03.62-.43 2.47-.43 1.9 0 2.46.43 2.47.43.22.23.57.22.8 0 .22-.23.2-.6-.02-.83-.12-.13-.86-.75-3.25-.75"/></g><g><path fill="#ffac33" d="M17.55 30.76c4.9 0 7.98-3.67 7.98-6.72s-.6-4.27-1.23-3.05c-.6 1.2-1.22 2.43-1.22 2.43s-3.7 0-4.92 1.23c0 0 1.84-3.67-1.84 0 0 0 .6-2.45-3.07.6 0 0-1.85-1.22-2.46-4.27-.18-.85-1.24 0-1.24 3.04 0 3.05 2.46 6.72 8 6.72"/></g><g><path fill="#662113" d="M14.07 18.88c-.48 0-.87.4-.87.88v.87c0 .5.4.88.87.88s.87-.38.87-.87v-.87c0-.5-.4-.88-.87-.88"/></g><g><path fill="#662113" d="M21.03 18.88c-.48 0-.87.4-.87.88v.87c0 .5.4.88.87.88s.87-.38.87-.87v-.87c0-.5-.4-.88-.87-.88"/></g><g><path fill="#c1694f" d="M18.2 16.46h-1.3c-.37 0-.66.3-.66.66 0 .36.3.66.65.66h1.3c.36 0 .65-.3.65-.66 0-.36-.3-.66-.65-.66"/></g><g><path fill="#d1d3d4" d="M5.9 21.8s-3.84-1.4-4.22-6.23c0 0-2.4 4.82-.52 10.15L5.9 21.8z"/></g><g><path fill="#d1d3d4" d="M20.05 30.02s-2.76 3-7.36 1.5c0 0 3.5 4.07 9.16 4.4l-1.8-5.9z"/></g><g><path fill="#d1d3d4" d="M29.27 19.66s1.97 3.57-.92 7.46c0 0 4.98-2.05 7.07-7.3l-6.15-.16z"/></g><g><path fill="#5c913b" d="M8.1 25c0-1.92-1.56-3.5-3.5-3.5-1.93 0-3.5 1.58-3.5 3.5 0 1.95 1.57 3.5 3.5 3.5 1.94 0 3.5-1.55 3.5-3.5"/></g><g><path fill="#be1931" d="M26.02 32.5c0-1.93-1.57-3.5-3.5-3.5-1.94 0-3.5 1.57-3.5 3.5s1.56 3.5 3.5 3.5c1.93 0 3.5-1.57 3.5-3.5"/></g><g><path fill="#3b88c3" d="M35.9 18.15c0-1.94-1.57-3.5-3.5-3.5-1.94 0-3.5 1.56-3.5 3.5 0 1.93 1.56 3.5 3.5 3.5 1.93 0 3.5-1.57 3.5-3.5"/></g><g><path fill="#f9ca55" d="M32.65 12.5c-.12.55-.64.9-1.17.8l-2.06-.44h-1.8c-.86 0-1.55-.7-1.55-1.56V9.75h3.85c.83 0 1.5.66 1.53 1.5l.28.05h.5c0 .06-.02.1-.04.17.34.2.53.62.45 1.04"/></g><g><path fill="#ffdc5d" d="M36.08 12.08c0 .43-.35.78-.77.78l-4.6-.78h-3.86c-.42 0-.77-.35-.77-.78L26 9.75h4.7l4.6 1.55s.78.35.78.78"/></g><g><path fill="#f9ca55" d="M3.43 8.76c.1.54.63.9 1.17.78l2.06-.43h1.8C9.3 9.1 10 8.4 10 7.56V6H6.16c-.83 0-1.5.67-1.54 1.5l-.27.05h-.5c0 .06.02.12.03.17-.34.22-.53.62-.45 1.04"/></g><g><path fill="#ffdc5d" d="M0 8.33c0 .43.34.78.77.78l4.62-.77h3.83c.43 0 .77-.35.77-.78V6H5.4L.76 7.55S0 7.9 0 8.33"/></g><path fill="#5c913b" d="M11 6h-1V0h1v6z"/><path fill="#5c913b" d="M26 9h-1V0h1v9z"/></g></g></g></svg>