<svg xmlns="http://www.w3.org/2000/svg" viewBox="0 0 45 45" enable-background="new 0 0 45 45"><defs><clipPath id="a"><path d="M0 36h36V0H0v36z"/></clipPath></defs><g><g><g clip-path="url(#a)" transform="matrix(1.25 0 0 -1.25 0 45)"><g><path fill="#553788" d="M32.42 8.2s.6-1.2 1.78-.6c1.2.58.3-2.08.3-2.08s-2.9-.12-4.94-.02c-1.87.1-.7.9.5 1.5 1.18.6 2.36 1.2 2.36 1.2"/></g><g><path fill="#9b6a49" d="M26.5 22.64c-.65-1.04-1.5-2.08-2.07-2.23-.43-.1-1.28-.3-1.85-.65-.57-.35-.48-.7.25-1.06.74-.38 1.7-.22 2.2.34.52.56 1.85 1.45 2.67 1.98.82.53-.7 2.4-1.2 1.62"/></g><g><path fill="#9b6a49" d="M26.26 22.14c.3.48.96 1.04.96 1.04l-.4 2.47 3.04-.12s-.42-2.56-.55-3.13c-.12-.58-1.3-1.34-2.08-1.67-.78-.33-1.28.87-.96 1.4"/></g><g><path fill="#9b6a49" d="M31.5 12.2s-3.5 1.3-3.5.36c0-.92 3.25-2.56 4.44-4.56.48-.8 2.23-1.37 1.87.37-.67 3.38-2.8 3.82-2.8 3.82"/></g><g><path fill="#9b6a49" d="M29 12.55s1.3-1.5 2.13-1.1c.83.4 2.44 3.76 2.87 5 .43 1.22-.5 3.72-1.75 2.1-1.26-1.64-3.26-6-3.26-6"/></g><g><path fill="#553788" d="M35.1 18.38L29 16l3.86-2.08 2.24 4.46z"/></g><g><path fill="#af7e57" d="M28 16s-2-3-2-4 1-4 1-7 2-3 2-2 1.58 5.42 0 7c-1 1 2 4 2 4l-3 2z"/></g><g><path fill="#9266cc" d="M30 20l-2.63-5 3-1.94s5.56 5.02 5.56 7.02c0 2.8-2.5 3.73-2.5 3.73L30 20z"/></g><g><path fill="#af7e57" d="M27 30.95l1-2.17-2.55-1.03-1.06 1.77 2.6 1.43z"/></g><g><path fill="#af7e57" d="M27.47 31.14c-.17-1.58-1.52-2.27-2.88-2.8-1.3-.5-2.37 1.76-2.54 3.33-.18 1.6 1.68 2.8 3.12 2.64 1.45-.15 2.47-1.57 2.3-3.16"/></g><g><path fill="#af7e57" d="M22.5 22.56c-1.3-.87-2.8-2.5-3.63-2.62-.98-.15-1.68.94-2.6-.37-.55-.82.36-1.7 2.23-1.7 1.08 0 4.1 1.63 5.25 2.44 1.25.9 1.53 1.88 1.98 3.07.05.14.1.07.2-.08l4.57 4.64c-2.52 1.9-3.6.75-5.38-.14-1.27-.62-1.87-2.36-2.62-5.24"/></g><g><path fill="#9266cc" d="M30 20c3.2 1.3 4.56 3.06 4.56 3.06-1.56 1.75-2.47 3.67-4.06 4.88-.35.26-.68.47-.98.62.13-.23.1-.47-.33-.62-.97-.34-2.07.27-3.23.32-.2-.12-.42-.23-.64-.35.98-.1 1.86-.96 1.9-2.2.05-1.34-1.37-2.33-1.37-2.33s.26-.53.85-1.04c.6-.5 2-.85 3.3-2.33"/></g><g><path fill="#9266cc" d="M26.93 4.23s.7-1.23 1.93-.52c1.22.7.44-2.2.44-2.2S25.9.37 23.96.9c-1.93.53-.7 1.23.52 1.94 1.22.7 2.45 1.4 2.45 1.4"/></g><g><path fill="#60352a" d="M22 31.6c.05-.04.1-.05.16-.03-.02 0-.04 0-.07 0-.04 0-.07.02-.1.03"/></g><g><path fill="#60352a" d="M26.82 34.2c-.5.33-1.03.53-1.6.55-.78.03-1.62-.3-2.7-1.02-.97-.67-.86-1.93-.52-2.13.03 0 .06-.04.1-.04.02 0 .04 0 .06 0 .48.03.82.46 1.37.52.26.03.55-.02.94-.24.06-.03.1-.1.15-.17.23-.35.3-1.03.3-1.03s.02.78.05 1.06c.03.25.3.54.63.15.3-.33.12-.98-.1-1.05-.15-.04.1-.44.5-.75.72-.57 1.38-.34 1.38-.34s.3-.02.52 1.04c.22 1.05.05 2.67-1.08 3.45"/></g><g><path fill="#a0041e" d="M10.1 7.87s-.75-1.1-1.85-.36c-1.1.74-.55-2-.55-2s2.85-.5 4.9-.66c1.86-.14.8.82-.3 1.56-1.1.74-2.2 1.47-2.2 1.47"/></g><g><path fill="#dd2e44" d="M3.85 4.7s-.92-1.07-2-.15C.8 5.48 1.02 2.5 1.02 2.5S4.15.7 6.15.85c2 .14.92 1.07-.15 2C4.9 3.77 3.84 4.7 3.84 4.7"/></g><g><path fill="#dd2e44" d="M7.75 28.2c2.73.3 3.7-1.42 3.7-1.42 1.1-3.65-1.35-4.02-1.35-4.02-.47-.7-2.86-2.72-3.15-3.84-.3-1.12.14-1.12.9-1.67.3-.2.9-.54 1.52-.92l-1.67-2.8-1.3.4-3.52-.92c-.3.62-2.05 3.02-2.05 4.33 0 1.3.65 3.3 1.16 4.02.5.72 1.52 3.52 1.76 4.3.47 1.53 2.07 2.32 4 2.54"/></g><g><path fill="#af7e57" d="M6.22 14.44s-2.3-.62-3.35-1.43c.27-.62.65-1.38.4-1.85C3.02 10.68 2.13 9 2 8c-.16-.96-.14-3.45-.14-3.45 1.1-1.06 2 .15 2 .15 0 1.5 1.2 4.1 1.78 4.84.36.44 1.2 1.7 1.24 2.35.03.64-.4 1.9-.4 1.9l-.26.64z"/></g><g><path fill="#9b6a49" d="M11.67 14.52c-.25.53-1.34 1.24-2.32 1.83-.87-.63-1.66-2.4-1.82-2.8L8.87 13s-.32-.7-.5-1.7c-.18-1.03-.26-3.7-.26-3.7 1.15-.93 1.9.15 1.9.15-.07.83 1.06 3.94 1.5 4.62.43.7.56 1.28.17 2.15"/></g><g><path fill="#af7e57" d="M3.4 24.72c-.15-1.16 1-1.47 2-1.06 1 .4 1.82 1.1 2 2.15.13.7-.2 2.3-1.24 2.07-1.4-.3-2.5-1.35-2.75-3.15"/></g><g><path fill="#9b6a49" d="M9.58 28.05c.97-.13 1.92-.5 2.23-1.43.33-.93.75-3.7.86-3.96.1-.22.28-.47.62-.32.35.16 1.5.38 2.1.44.6.06.6.88 1.37 1.16.78.28 1.66-.25 1.7-1.03.02-.78-.2-1.12-1.2-1.3-1-.2-1.62-.48-1.94-.63-.3-.16-3.1-1-3.52-.9-.4.1-1.68 2.7-1.68 2.7s.92.53 1.04 1.5c.4 3.23-1.56 3.78-1.56 3.78"/></g><g><path fill="#af7e57" d="M3.53 24.88c-.03-.85.35-4 .38-4.5.04-.5 3.98-2.25 4.35-2.4.38-.17 1.1-1.1 1.66-1.14.57-.03 2.16.25 1.63 1.13-.53.87-1.44 1.4-2.12 1.34-.68-.05-2.52 1.73-2.93 1.9-.4.14-.56.36-.4.83.15.47.74 2.63.8 3.3.07.7-3.28 1-3.34-.45"/></g><g><path fill="#a0041e" d="M7.53 13.56c-.1-.03-1.12.38-1.12.38l-.84 2.15 2.5-1.44s-.15-.27-.28-.52c-.12-.25-.25-.58-.25-.58"/></g><g><path fill="#af7e57" d="M9.03 28.28c.28-.03.8-1.06.85-1.5.1-.8-.9-1.15-1.47-.2-.56.98-.8 1.42-1.27 1.5 0 0 .5.14.96.17.46.03.93.03.93.03"/></g><g><path fill="#af7e57" d="M8.58 29.8L7.7 28.1l1.77-1.34 1 1.88-1.9 1.13z"/></g><g><path fill="#60352a" d="M27.64 31.5s-.66.87.63 1.65c1.06.64 1.95-.42 2.97-.46.77-.03 1.46.3 1.78.86 0 0-.26-1.13-.85-1.8-.77-.88-2.1-1.22-2.8-1.2-1.14.04-1.73.94-1.73.94"/></g><g><path fill="#af7e57" d="M10.93 32.92c-1.27.16-2.44-.9-2.62-2.35-.16-1.45.72-2.75 2-2.9 1.26-.15 2.43.9 2.6 2.35.2 1.45-.7 2.75-1.97 2.9"/></g><g><path fill="#60352a" d="M7.2 33.33c-1.04.2-1.46-.9-2.26-1.22-.6-.23-1.27-.16-1.7.2 0 0 .55-.83 1.22-1.2.87-.5 2.02-.4 2.6-.16.9.34 1.12 1.24 1.12 1.24s.28.9-.98 1.15"/></g><g><path fill="#60352a" d="M12.47 33.46c-.56.5-2.08.84-3.2.4-1.25-.47-1.7-1.58-1.63-2.8.03-.7.42-1.73.68-1.8.38-.13.73.52.57.56-.3.07-.38 1.03-.1 1.24.3.23.53-.06.56-.33.04-.27.12-1.04.12-1.04s.07.94.37 1.2c.3.27 1.54.05 2.22 1.27 0 0 .4-.2.66-.74.22-.44.18-1.4.18-1.4s.33.55.57 1.1c.28.64-.28 1.7-1 2.33"/></g></g></g></g></svg>