<svg xmlns="http://www.w3.org/2000/svg" viewBox="0 0 45 45" enable-background="new 0 0 45 45"><defs><clipPath id="a"><path d="M0 36h36V0H0v36z"/></clipPath></defs><g><g><g clip-path="url(#a)" transform="matrix(1.25 0 0 -1.25 0 45)"><g><path fill="#ccd6dd" d="M13.68 32.03L6.55 4l6.08-1.78c.93-.27 1.2 1.73-.7 2.28-.94.27-3.7 1.7-2.75 4.96.95 3.26 1.13 3.9 1.4 4.78.25.9 1.46 1.04 2.46 1.36 1 .33 3.55 1.47 4.83 5.87 1.28 4.4 1.43 12.04 1.43 12.04l-3.83 1.13s-1.77-2.5-1.8-2.6"/></g><g><path fill="#ccd6dd" d="M14.64 31.76L6.54 4S1.4 5.5.47 5.76C-.47 6.04.4 7.9 2.33 7.33c.92-.27 3.98-.58 4.93 2.68.95 3.28 1.14 3.9 1.4 4.8.26.9-.56 1.56-1.36 2.47-.7.8-2.2 3.15-.92 7.54 1.28 4.4 5.26 10.94 5.26 10.94l3.83-1.1s-.8-2.8-.83-2.88"/></g><g><path fill="#9aaab4" d="M11.78 4.02c-.8.24-2.57.88-3.25 2.87-.28.78-1.22.54-1.07-.1.66-2.65 3.28-3.54 4.24-3.82.96-.28 1.07.76.08 1.04"/></g><g><path fill="#ccd6dd" d="M23.2 29.9l5.1-28.5S23.06.3 22.1.08c-.93-.2-1.07 1.8.88 2.23.95.2 3.8 1.42 3.1 4.75-.72 3.32-.86 3.96-1.06 4.87-.2.9-1.4 1.14-2.37 1.53-.98.4-3.43 1.72-4.4 6.2-.95 4.47-.56 12.1-.56 12.1l3.9.85s1.57-2.62 1.6-2.7"/></g><g><path fill="#9aaab4" d="M19.25 32.1l-1.56-.34s-.3-5.64.23-10.06c.9 3.23 1.2 8.04 1.32 10.4"/></g><g><path fill="#ccd6dd" d="M22.22 29.68l6.1-28.27s5.24 1.14 6.18 1.34c.95.2.2 2.12-1.75 1.7-.94-.2-4-.3-4.73 3.03-.7 3.32-.85 3.96-1.05 4.87-.2.9.66 1.5 1.53 2.37.76.75 2.42 2.98 1.46 7.46-.97 4.48-4.47 11.28-4.47 11.28l-3.9-.84s.6-2.83.62-2.92"/></g><g><path fill="#9aaab4" d="M23.1 1.8c.8.2 2.6.7 3.44 2.64.33.77 1.25.46 1.05-.16-.85-2.6-3.54-3.3-4.5-3.52-1-.2-1.02.84 0 1.05"/></g><g><path fill="#9d0522" d="M25.41 14.2c1.95.28 4.25 2.24 4.07 4.86-.13 1.75-.58 1.74-1.7 1.1-1.2-.73-4.8-2.24-7.4.2-1.6 1.5-1.46 4.03-1.75 2.53-.25-1.32 0-3.26 1.28-5.7 1.12-2.16 3.17-3.34 5.52-3"/></g><g><path fill="#9d0522" d="M10.76 16.47c-1.94.28-4.25 2.25-4.06 4.86.08 1.03.98.43 2.04-.3 1.53-1.07 5.04-1.15 7.23 1.18 1.47 1.56 1.25 3.9 1.53 2.4.25-1.3.05-2.7-1.23-5.14-1.12-2.15-3.17-3.33-5.5-3"/></g><g><path fill="#9aaab4" d="M29 32c-.55 0-1 .45-1 1v2c0 .55.45 1 1 1s1-.45 1-1v-2c0-.55-.45-1-1-1"/></g><g><path fill="#9aaab4" d="M30.56 30l-.07.06c-.38.37-.38.98 0 1.35l3.6 3.6c.36.38.97.38 1.34 0l.07-.06c.38-.37.38-.98 0-1.35L31.9 30c-.36-.38-.97-.38-1.34 0"/></g></g></g></g></svg>