<svg xmlns="http://www.w3.org/2000/svg" viewBox="0 0 45 45" enable-background="new 0 0 45 45"><defs><clipPath id="a"><path d="M0 36h36V0H0v36z"/></clipPath></defs><g><g><g clip-path="url(#a)" transform="matrix(1.25 0 0 -1.25 0 45)"><g><path fill="#be1931" d="M19.6 35.67c9.6 0 12.24-1.7 12.24-11.3 0-5.5-1.17-8.5-1.17-13.5 0-2.95-4.55-3-8.65-3-4.22 0-9.15-.2-11.35 2-6 6-10.54 16.45-2 19 .46 6.52 1.3 6.8 10.93 6.8"/></g><g><path fill="#99aab5" d="M26.74 10C28.97 10 31 9.14 31 7.1V3.58C31 1.53 28.97 0 26.74 0H15v10h11.74z"/></g><g><path fill="#ccd6dd" d="M22.34 10C24.8 10 27 9.14 27 7.1V3.58C27 1.53 24.8 0 22.34 0H15c-2.45 0-4 1.53-4 3.58V7.1c0 2.04 1.55 2.9 4 2.9h7.34z"/></g><g><path fill="#a0041e" d="M4.3 25.05c.7.58 1.85 1.43 2.37-1.18 1-5 3.8-9.38 3-7-1 3-1 12-1 12-2.43-.72-3.8-2.1-4.38-3.82"/></g><g><path fill="#e1e8ed" d="M21.67 8C22.77 8 24 7.46 24 6.54V3.2c0-.9-1.22-1.2-2.33-1.2h-5C15.57 2 15 2.3 15 3.2v3.34c0 .92.57 1.46 1.67 1.46h5z"/></g></g></g></g></svg>