<svg xmlns="http://www.w3.org/2000/svg" viewBox="0 0 45 45" enable-background="new 0 0 45 45"><defs><clipPath id="a"><path d="M0 36h36V0H0v36z"/></clipPath></defs><g><g><path fill="#ccd6dd" d="M8.4 12.48l2.43 26.27h23.13l2.68-27.15-28.24.88z"/></g><g><g clip-path="url(#a)" transform="matrix(1.25 0 0 -1.25 0 45)"><g><path fill="#e27e00" d="M28.58 16.77L7.1 16.62S8.18 5.75 10.5 5.75H25.5c2.36 0 3.08 11.02 3.08 11.02"/></g><g><path fill="#ffb900" d="M17.98 18.56c-5.46 0-9.9-.83-9.9-1.85 0-.02.02-.05.02-.07.15-.65 2.04-1.2 4.8-1.5h10.36c2.66.32 4.46.87 4.6 1.5 0 .02.02.05.02.08 0 1.03-4.43 1.86-9.9 1.86"/></g><g><path fill="#f4bd61" d="M16.4 14.88l1.93-.96 5.48.92-.56.3c-1.52-.18-3.32-.3-5.26-.3-.54 0-1.07.02-1.58.04"/></g><g><path fill="#f1f2f2" d="M19 17.7l-6.2-.82 3.6-2c.5-.02 1.04-.03 1.58-.03 1.94 0 3.74.1 5.26.3L19 17.7z"/></g><g><path fill="#e9ab61" d="M18.3 8.24l4.44 1.36 1.07 5.24-5.47-.92-.03-5.68z"/></g><g><path fill="#e4973e" d="M16.4 14.88c-1.25.04-2.42.12-3.47.24l.46-5.27 4.9-1.6.03 5.67-1.93.96z"/></g><g><path fill="#d1d3d4" d="M12.8 16.88l.13-1.76c1.05-.12 2.2-.2 3.47-.24l-3.6 2z"/></g><g><path fill="#8899a6" d="M30.1 28.17c-.66.05-1.23-.42-1.3-1.06l-1.47-16.25C26.76 7.77 25.38 6 21 6h-6c-4.6 0-5.9 1.95-6.4 5.32l-1.45 15.8c-.06.63-.62 1.1-1.28 1.05-.64-.06-1.12-.63-1.06-1.28L6.83 4.83c.25-1.9 1.4-3 3.16-3h16c2.54 0 3.02 1.72 3.17 3.05l2 22c.06.64-.42 1.2-1.06 1.27"/></g><g><path fill="#ccd6dd" d="M31.2 27c0-1.85-4.03-3.35-13.2-3.35-9.17 0-13.2 1.5-13.2 3.35s4.03 3.35 13.2 3.35c9.17 0 13.2-1.5 13.2-3.35"/></g><g><path fill="#fff" d="M30.53 26.9c-.3.47-.9.62-1.37.33-2.34-1.4-8.82-1.6-11.13-1.54 0 0 0-.02-.02-.02-2.3-.05-8.8.14-11.13 1.55-.47.3-1.1.14-1.37-.33-.3-.47-.14-1.1.33-1.38 2.8-1.7 9.32-1.84 11.5-1.84.37 0 .6 0 .68 0 .1 0 .33 0 .7 0 2.17 0 8.7.15 11.5 1.84.47.3.62.9.33 1.38"/></g></g></g></g></svg>