<svg xmlns="http://www.w3.org/2000/svg" viewBox="0 0 45 45" enable-background="new 0 0 45 45"><defs><clipPath id="a"><path d="M0 36h36V0H0v36z"/></clipPath><clipPath id="b"><path d="M8 36c-2.96 0-6-5-5-7 1.6-3.23 12-13 12-13h6s10 10 12 13c1 2-2.33 7-5 7H8zm4-8c-2 2-1 2 6 2 8 0 7.5-.5 6-2l-6-6-6 6z"/></clipPath><clipPath id="c"><path d="M0 36h36V0H0v36z"/></clipPath></defs><g><g><g clip-path="url(#a)" transform="matrix(1.25 0 0 -1.25 0 45)"><g><path fill="#55acee" d="M24 28l-6-6-6 6c-2 2-1 2 6 2 8 0 7.5-.5 6-2m4 8H8c-2.96 0-6-5-5-7 1.6-3.23 12-13 12-13h6s10 10 12 13c1 2-2.33 7-5 7"/></g></g></g><g><g clip-path="url(#b)" transform="matrix(1.25 0 0 -1.25 0 45)"><g><path fill="#3b88c3" d="M13 27c-1 1-8 9-3 9h16c2.27 0 4-2-2-8-3-3-11-1-11-1"/></g></g></g><g><g clip-path="url(#c)" transform="matrix(1.25 0 0 -1.25 0 45)"><g><path fill="#ccd6dd" d="M22 15.5c0-.83-.67-1.5-1.5-1.5h-5c-.83 0-1.5.67-1.5 1.5s.67 1.5 1.5 1.5h5c.83 0 1.5-.67 1.5-1.5"/></g><g><path fill="#ccd6dd" d="M26 8c0-4.42-3.58-8-8-8s-8 3.58-8 8 3.58 8 8 8 8-3.58 8-8"/></g><g><path fill="#627077" d="M14.94 4.06c.8 1.07 2.88 3.9 3.7 5.15.2.3.38.68.38 1.07 0 .54-.45 1-1.24 1-.57 0-1.1-.4-1.36-.7-.1-.1-.28-.1-.4 0l-.85.88c-.1.1-.1.25 0 .37 0 0 1.13 1.37 2.8 1.37 2 0 3.18-1.3 3.18-2.84 0-.75-.2-1.17-.55-1.82-.45-.8-1.6-2.3-2.26-3.23H21c.14 0 .27-.12.27-.26V3.78c0-.14-.13-.27-.27-.27h-5.8c-.15 0-.26.14-.26.28v.28z"/></g></g></g></g></svg>