<svg xmlns="http://www.w3.org/2000/svg" viewBox="0 0 45 45" enable-background="new 0 0 45 45"><defs><clipPath id="a"><path d="M0 36h36V0H0v36z"/></clipPath></defs><g><g><g clip-path="url(#a)" transform="matrix(1.25 0 0 -1.25 0 45)"><g><path fill="#78b159" d="M22.78 31.3s-5.7 7.13-10.65 3.68c-3.7-2.55-3.67-7.23-3.3-9.48.36-2.3 1.5-7.52 2.2-11.9.68-4.4 1.16-8.34 1.88-12.92.2-1.16 4.08-.52 3.97.6-.17 1.96-1.82 8.98-2.25 12.06-.4 2.87-1.37 8.42-1.93 11.65-.63 3.54-.3 6.67 2.14 7.38 2.78.82 5.55-3.83 5.55-3.83l2.38 2.74z"/></g><g><path fill="#c6e4b5" d="M13.08 19.57s1.7-.64 2.87-1.8c1.54-1.53 2.47-4.54 1.27-7.95-.74-2.1 1.07-5.07 1.07-5.07S16.27 5.83 15 7.42c-1.28 1.62-2.12 3.83-2.3 5.65-.12 1.2-.17 3.57.36 6.5"/></g><g><path fill="#a6d388" d="M10.28 22.02c-.8-.36-3-3.2-3.25-4.77C6 10.7 9.9 6.43 9.9 6.43s.7 3.98 1.77 5.42c1.25 1.67.55 5.68 0 7.15-.4 1.06-1.4 3.02-1.4 3.02"/></g><g><path fill="#78b159" d="M24.74 27.74c-.8-1.06-2.58-1.08-4-.03-1.43 1.06-1.94 2.77-1.15 3.84.77 1.07 2.56 1.08 3.98.03 1.43-1.05 1.94-2.76 1.16-3.83"/></g><g><path fill="#78b159" d="M26.2 30.63c.85-1.28.1-3.26-1.64-4.4-1.75-1.16-3.86-1.06-4.7.22-.84 1.28-.1 3.25 1.65 4.4 1.76 1.16 3.86 1.06 4.7-.22"/></g><g><path fill="#78b159" d="M20.7 27.86c-.86-1.15-2.9-1.48-2.9-1.48s1.7-1.26 2.75-.55c1.03.7.16 2.03.16 2.03"/></g><g><path fill="#78b159" d="M23.26 31.14c-.05.82 1.3 2.3 1.97 1.9 0 0-.88-.98-.06-1.58.82-.6-1.9-.32-1.9-.32"/></g><g><path fill="#da2f47" d="M21.25 27.33c-1.8-.95-3.4-3.23-2.56-7.6.72-3.76 3.9-5.3 2.85-7.83-1-2.33.82-6.1 3.22-.4.76 1.8 2.8 9.3.77 13.88-1.23 2.75-3.45 2.4-4.3 1.95"/></g><g><path fill="#e75a70" d="M23.35 28.92c1.33 1.93 3.25 2.18 4.54.95 6.03-5.73 3.54-16.95-.53-19.37-2.4-1.43-.84 7.2-4.08 10.74-1.92 2.08-1.97 5.27.05 7.68"/></g></g></g></g></svg>