<svg xmlns="http://www.w3.org/2000/svg" viewBox="0 0 45 45" enable-background="new 0 0 45 45"><defs><clipPath id="a"><path d="M0 36h36V0H0v36z"/></clipPath></defs><g><g><g clip-path="url(#a)" transform="matrix(1.25 0 0 -1.25 0 45)"><g><path fill="#ccd6dd" d="M30 22.12l-1.55.77c-.32.15-1.26.1-1.45.1h-2v2h2.76L30 23.88v-1.76zm0-4l-1.55.77c-.32.15-1.26.1-1.45.1h-2v2h2.76L30 19.88v-1.76zm0-4l-1.55.78c-.32.15-1.26.1-1.45.1h-2v2h2.76L30 15.88v-1.76zm0-4l-1.55.78c-.32.15-1.26.1-1.45.1h-2v2h2.77L30 11.88v-1.76zM23 23h-2v2h2v-2zm0-4h-2v2h2v-2zm0-4h-2v2h2v-2zm0-4h-2v2h2v-2zm-4 12h-2v2h2v-2zm0-4h-2v2h2v-2zm0-4h-2v2h2v-2zm0-4h-2v2h2v-2zm-4 12h-2v2h2v-2zm0-4h-2v2h2v-2zm0-4h-2v2h2v-2zm0-4h-2v2h2v-2zm-4 12H9c-.2 0-1.13.05-1.45-.1L6 22.1v1.76L8.24 25H11v-2zm0-4H9c-.2 0-1.13.05-1.45-.1L6 18.1v1.76L8.24 21H11v-2zm0-4H9c-.2 0-1.13.05-1.45-.1L6 14.1v1.76L8.24 17H11v-2zm0-4H9c-.2 0-1.13.05-1.45-.1L6 10.1v1.76L8.24 13H11v-2zm22.55 7.1c.15-.07.3-.1.45-.1.37 0 .72.2.9.55.24.5.04 1.1-.45 1.34L32 21.1v1.76l1.55-.77c.15-.07.3-.1.45-.1.37 0 .72.2.9.55.24.5.04 1.1-.45 1.34L32 25.1V29c0 .55-.45 1-1 1s-1-.45-1-1v-2.88l-1.55.77c-.32.15-1.26.1-1.45.1h-2v3c0 .55-.45 1-1 1s-1-.45-1-1v-3h-2v3c0 .55-.45 1-1 1s-1-.45-1-1v-3h-2v3c0 .55-.45 1-1 1s-1-.45-1-1v-3h-2v2.97c0 .55-.45 1-1 1s-1-.45-1-1V27H9c-.2 0-1.13.05-1.45-.1L6 26.1V29c0 .55-.45 1-1 1s-1-.45-1-1v-3.88L1.55 23.9c-.5-.25-.7-.85-.45-1.35.18-.35.53-.55.9-.55.15 0 .3.03.45.1L4 22.9v-1.76L1.55 19.9c-.5-.25-.7-.85-.45-1.35.18-.35.53-.55.9-.55.15 0 .3.03.45.1L4 18.9v-1.76L1.55 15.9c-.5-.25-.7-.85-.45-1.35.18-.35.53-.55.9-.55.15 0 .3.03.45.1L4 14.9v-1.76L1.55 11.9c-.5-.25-.7-.85-.45-1.35.18-.35.53-.55.9-.55.15 0 .3.03.45.1L4 10.9V9.12L1.55 7.9c-.5-.25-.7-.85-.45-1.35.18-.35.53-.55.9-.55.15 0 .3.03.45.1L4 6.9V6c0-.55.45-1 1-1s1 .45 1 1v1.88L8.24 9H11V7.13c0-.55.45-1 1-1s1 .45 1 1V9h2V7c0-.55.45-1 1-1s1 .45 1 1v2h2V6.85c0-.55.45-1 1-1s1 .45 1 1V9h2V6.85c0-.55.45-1 1-1s1 .45 1 1V9h2.76L30 7.88V6c0-.55.45-1 1-1s1 .45 1 1v.88l1.55-.77c.15-.06.3-.1.45-.1.37 0 .72.2.9.55.24.5.04 1.1-.45 1.35L32 9.12v1.76l1.55-.77c.15-.06.3-.1.45-.1.37 0 .72.2.9.55.24.5.04 1.1-.45 1.35L32 13.12v1.76l1.55-.77c.15-.06.3-.1.45-.1.37 0 .72.2.9.55.24.5.04 1.1-.45 1.35L32 17.12v1.76l1.55-.77z"/></g><g><path fill="#8c989f" d="M2 2c-.2 0-.38.06-.55.17-.46.3-.6.93-.28 1.4C2.63 5.74 4.95 7 7.55 7c.04 0 .07 0 .1 0h20.7c2.6.06 5-1.22 6.48-3.44.3-.46.2-1.08-.27-1.4-.46-.3-1.1-.17-1.4.3-1.1 1.66-2.78 2.6-4.8 2.54H7.67c-2 0-3.7-.88-4.83-2.55-.2-.3-.5-.45-.83-.45"/></g><g><path fill="#8c989f" d="M28 6c-.55 0-1 .45-1 1v22.68c0 .55.45 1 1 1s1-.45 1-1V7c0-.55-.45-1-1-1"/></g><g><path fill="#8c989f" d="M8 6.13c-.55 0-1 .45-1 1v22.84c0 .55.45 1 1 1s1-.45 1-1V7.13c0-.55-.45-1-1-1"/></g><g><path fill="#be2032" d="M34 1.75c-.7 0-1.25.56-1.25 1.25v21c0 2.62-2.13 4.75-4.75 4.75H8c-2.62 0-4.75-2.13-4.75-4.75V3c0-.7-.56-1.25-1.25-1.25C1.3 1.75.75 2.3.75 3v21C.75 28 4 31.25 8 31.25h20c4 0 7.25-3.25 7.25-7.25V3c0-.7-.56-1.25-1.25-1.25"/></g></g></g></g></svg>