<svg xmlns="http://www.w3.org/2000/svg" viewBox="0 0 45 45" enable-background="new 0 0 45 45"><defs><clipPath id="a"><path d="M0 36h36V0H0v36z"/></clipPath></defs><g><g><g clip-path="url(#a)" transform="matrix(1.25 0 0 -1.25 0 45)"><g><path fill="#e1e8ed" d="M34 30c-2 3-9 4-16 4S3 33 2 31C.1 27.2 1 11 1 10s5-1 5-1v13l1 2V1s3-1 11-1 11 1 11 1v23l1-2V9s5 0 5 1 1.36 16.45-1 20"/></g><g><path fill="#99aab5" d="M7 9H6v13c0 1 1 2 1 2V9z"/></g><g><path fill="#99aab5" d="M30 9h-1v15s1-1 1-2V9z"/></g><g><path fill="#66757f" d="M11.78 34l6.28-11.34L24 34l-6.1 1.25L11.77 34z"/></g><g><path fill="#ccd6dd" d="M12 35.38s2.25.54 6 .54 6-.55 6-.55V33s-1.63 1-6 1c-4.38 0-6-1-6-1v2.38z"/></g><g><path fill="#99aab5" d="M7 1s17.75 31.66 17.75 32.64c0 1-.75 1.73-.75 1.73L7 4V1z"/></g><g><path fill="#99aab5" d="M17.82 21.28s-6.7 11.38-6.7 12.36c0 1 .88 1.73.88 1.73l6.76-12.57-.94-1.52z"/></g><g><path fill="#292f33" d="M7 14s5-2 11-2 11 2 11 2v-3s-4-2-11-2-11 2-11 2v3z"/></g><g><path fill="#292f33" d="M21 12s-2 1-3 1-3-1-3-1-1 0-1-1 1-2 1-2 2-1 3-1 3 1 3 1 1 1 1 2-1 1-1 1"/></g><g><path fill="#292f33" d="M12 3l3-1s1 5 3 7l-2 3s-3-4-4-9"/></g><g><path fill="#292f33" d="M24 3l-3-1s-1 5-3 7l2 3s3-4 4-9"/></g></g></g></g></svg>