<svg xmlns="http://www.w3.org/2000/svg" viewBox="0 0 45 45" enable-background="new 0 0 45 45"><defs><clipPath id="a"><path d="M0 36h36V0H0v36z"/></clipPath></defs><g><g><path fill="#ccd6dd" d="M10.97 5.57L13.5 40h17.9l2.74-34.45-23.17.02z"/></g><g><path fill="#fff" d="M31.25 39.1l-17.62.2-1.27-19.14h20.3l-1.4 18.94z"/></g><g><g clip-path="url(#a)" transform="matrix(1.25 0 0 -1.25 0 45)"><g><path fill="none" stroke="#8899a6" stroke-width="2.35" stroke-miterlimit="10" d="M27.84 31.64L25.87 3.98C25.73 2.48 25.07 2 23.9 2H12.1c-.98 0-1.8.6-1.98 1.98L8.16 31.64" stroke-linecap="round"/></g><g><path fill="none" stroke="#8899a6" stroke-width="2" stroke-miterlimit="10" d="M8.16 31.65S9.58 13.78 9.9 9.55c.3-3.58.75-5.55 5.47-5.55H18" stroke-linecap="round"/></g><g><path fill="none" stroke="#8899a6" stroke-width="2" stroke-miterlimit="10" d="M27.84 31.65s-1.42-17.87-1.75-22.1C25.8 5.97 25.34 4 20.62 4H18" stroke-linecap="round"/></g><g><path fill="#ccd6dd" d="M29 31.92c0-1.7-2.73-3.1-11-3.1s-11 1.4-11 3.1C7 33.62 9.73 35 18 35s11-1.38 11-3.08"/></g><g><path fill="#fff" d="M28.53 31.87c-.3.46-.92.6-1.38.28-2.1-1.4-7.28-1.57-9.1-1.53 0 0-.02 0-.03 0 0 0-.02 0-.03 0-1.82-.04-7 .13-9.1 1.53-.46.3-1.08.18-1.4-.28-.3-.46-.17-1.08.3-1.38 2.56-1.73 7.9-1.88 9.67-1.88.3 0 .48 0 .55 0 .07 0 .26 0 .55 0 1.77 0 7.12.15 9.7 1.87.45.3.57.9.26 1.37"/></g><g><path fill="#e1e8ed" d="M25.82 19.94c0-.8-3.5-1.46-7.83-1.46s-7.84.65-7.84 1.46c0 .8 3.5 1.46 7.83 1.46 4.3 0 7.82-.65 7.82-1.46"/></g><path fill="#8899a6" d="M25.2 2.63H11.05v1.83H25.2V2.63z"/></g></g></g></svg>