<svg xmlns="http://www.w3.org/2000/svg" viewBox="0 0 45 45" enable-background="new 0 0 45 45"><defs><clipPath id="a"><path d="M0 36h36V0H0v36z"/></clipPath><clipPath id="b"><path d="M25.22 19.34h2.47v-8.1H25.2v8.1z"/></clipPath></defs><g><g><g clip-path="url(#a)" transform="matrix(1.25 0 0 -1.25 0 45)"><g><path fill="#939598" d="M36 13c0-5.52-8.06-10-18-10S0 7.48 0 13s8.06 10 18 10 18-4.48 18-10"/></g><g><path fill="#f1f2f2" d="M36 15c0-5.52-8.06-10-18-10S0 9.48 0 15s8.06 10 18 10 18-4.48 18-10"/></g><g><path fill="#f4900c" d="M31 16c0-4-5.82-7.22-13-7.22S5 12 5 16c0 4 5.82 7.22 13 7.22S31 20 31 16"/></g><g><path fill="#ffac33" d="M31 18c0-4-5.82-7.22-13-7.22S5 14 5 18c0 4 5.82 7.22 13 7.22S31 22 31 18"/></g><g><path fill="#f4900c" d="M31 20c0-4-5.82-7.22-13-7.22S5 16 5 20c0 4 5.82 7.22 13 7.22S31 24 31 20"/></g><g><path fill="#ffac33" d="M31 22c0-4-5.82-7.22-13-7.22S5 18 5 22c0 4 5.82 7.22 13 7.22S31 26 31 22"/></g><g><path fill="#f4900c" d="M31 24c0-4-5.82-7.22-13-7.22S5 20 5 24c0 4 5.82 7.22 13 7.22S31 28 31 24"/></g><g><path fill="#ffd983" d="M16.63 25.23s0 0-.02 0h-.02s-.02 0-.02 0 0 .02.02.02h.03c.02 0 .03 0 .03-.02"/></g><g><path fill="#d3790d" d="M15.53 29.03c-3.7 1.13-5.24.56-5-2.34.06-.76-.97-2-2-2.73-2.4-1.67-1.37-4.47 2.75-2.4 2.06 1.02 5.07.95 8.72-.16 3.06-.93 4.96-2.07 5.2-3.44 1.22.4 1.9.77 2.5 1.27-.26.57-1.4 2.2-3.17 3-3.37 1.47-.1 3.6 2.4 4.1 2.3.48.04 2.2-3.43 2.14-3.47-.06-2.6-1.08-7.97.56"/></g><g><g><g clip-path="url(#b)" opacity=".5"><g><path fill="#d3790d" d="M25.22 18c0-2.84.06-4.57.06-5.56 0-1.94 2.38-1.6 2.38 1.62s.03 5.28.03 5.28L25.2 18z"/></g></g></g></g><g><path fill="#ffac33" d="M21.54 27.4c.4-.22.4-1.58 0-1.8l-2.83-1.62c-.38-.22-1.02-.22-1.4 0l-2.84 1.62c-.4.22-.4 1.58 0 1.8l2.83.6c.38.24 1.02.24 1.4 0l2.84-.6z"/></g><g><path fill="#ffd983" d="M21.54 27.4c.4-.22.4-.58 0-.8l-2.83-1.62c-.38-.22-1.02-.22-1.4 0l-2.84 1.62c-.4.22-.4.58 0 .8L17.3 29c.38.24 1.02.24 1.4 0l2.84-1.6z"/></g></g></g></g></svg>