<svg xmlns="http://www.w3.org/2000/svg" viewBox="0 0 36 36"><path fill="#77B255" d="M5 1.861c1 1 2 4 2 5s-1 3-2 1-1-3-2-4c-1.727-1.726 1-3 2-2z"/><path fill="#77B255" d="M8 3.861c2.911-.728 5 2 8 6s6.705 7.564 8.476 8.93C28.784 22.115 35 26.111 35 30.861c0 4-2.611 5.454-7.834 5.083-4.987-.354-10.639-4.65-15.166-10.083-5-6-7.735-10.205-9-14-1-3 1-7 5-8z"/><path fill="#5C913B" d="M24.475 33.111c-.136 0-.272-.037-.396-.114C13.881 26.625 7.311 16.241 5.152 12.829c-.195-.308-.358-.565-.489-.766-.227-.347-.129-.812.218-1.038.346-.226.812-.129 1.038.218.134.206.301.469.5.784 2.114 3.341 8.546 13.507 18.453 19.699.352.22.458.682.238 1.033-.14.227-.385.352-.635.352zm3.732-1.916c-.144 0-.288-.041-.416-.127C15.057 22.539 8.456 12.25 6.286 8.868l-.331-.513c-.226-.347-.129-.812.218-1.038s.812-.129 1.038.218l.337.523c2.128 3.316 8.603 13.409 21.077 21.764.345.23.437.696.206 1.04-.144.217-.382.333-.624.333zm-3.917-7.667c-.156 0-.313-.049-.448-.149-7.325-5.483-11.79-11.946-13.696-14.706l-.18-.26c-.236-.34-.151-.808.19-1.043.338-.237.807-.151 1.043.19l.18.261c1.865 2.699 6.232 9.021 13.36 14.357.332.248.399.719.151 1.05-.146.197-.371.3-.6.3z"/></svg>