<svg xmlns="http://www.w3.org/2000/svg" viewBox="0 0 45 45" enable-background="new 0 0 45 45"><defs><clipPath id="a"><path d="M0 36h36V0H0v36z"/></clipPath></defs><g><g><g clip-path="url(#a)" transform="matrix(1.25 0 0 -1.25 0 45)"><g><path fill="#ccd6dd" d="M18 1C3.04 1 1 15 1 19h34c0-2-1.96-18-17-18"/></g><g><path fill="#66757f" d="M35 18.94c0-5.2-7.6-9.44-17-9.44S1 13.73 1 18.94c0 5.22 7.6 8.45 17 8.45s17-3.24 17-8.46"/></g><g><path fill="#77b255" d="M2.7 17.13c-.8 1.16-2.32 3.5-.7 7 .7 1.83 2.18 3.02 2.38 2.45.45-1.33 1.37-2.5 2.75-2.37-.02-.47-.67 4.32 1.62 5.6 1.13.62 2.33-.38 3.7-2.6 2.2-3.53 7.82-1.88 9.4-.95 1.6.94 2.98 1.55 2.57 4.06-.1.56.74 1.04 1.6.6 1.42-.78 3.5-2.68 3.86-4.77 1.02-.28 1.78.16 2.37 1.35.3.6 1.3.73 1.72-.04.75-1.36 2-5.53.24-9.1-2-4.1-5.03-6.26-11.87-7.13-6.83-.87-15.62.18-19.62 5.93"/></g><g><path fill="#5c913b" d="M19.42 25.85c0-2.1-1.8-3.8-4.04-3.8s-4.05 1.7-4.05 3.8c0 2.1 1.8 3.82 4.05 3.82 2.23 0 4.04-1.7 4.04-3.82"/></g><g><path fill="#c6e5b3" d="M18.42 25.85c0-1.58-1.37-2.87-3.04-2.87-1.68 0-3.05 1.3-3.05 2.87 0 1.6 1.37 2.87 3.05 2.87 1.68 0 3.04-1.28 3.04-2.87"/></g><g><path fill="#292f33" d="M10.46 21.5c0-1.1-1.03-2-2.3-2-1.26 0-2.3.9-2.3 2s1.04 2 2.3 2c1.27 0 2.3-.9 2.3-2"/></g><g><path fill="#dd2e44" d="M17.52 20.82c1.27-2.4-2.1-.95-4.6-2.3C10.4 17.2 9.7 13.63 8.4 16c-1.25 2.38-.25 5.4 2.26 6.73 2.5 1.33 5.58.48 6.84-1.9"/></g><g><path fill="#292f33" d="M26.46 23.5c0-1.1-1.03-2-2.3-2-1.26 0-2.28.9-2.28 2s1.02 2 2.3 2c1.25 0 2.28-.9 2.28-2"/></g><g><path fill="#9266cc" d="M29.12 15.87c-1.57-1.48-1.18 1.4-2.74 3.06-1.55 1.64-4.46 1.4-2.9 2.9 1.56 1.48 4.1 1.34 5.65-.3 1.56-1.64 1.55-4.18 0-5.66"/></g><g><path fill="#e1e8ed" d="M28.12 14.87c-1.57-1.48-1.18 1.4-2.74 3.06-1.55 1.64-4.46 1.4-2.9 2.9 1.56 1.48 4.1 1.34 5.65-.3 1.56-1.64 1.55-4.18 0-5.66"/></g><g><path fill="#dd2e44" d="M24 16.07c.8-2.06-1.8-.55-3.95-1.37-2.17-.83-3.1-3.66-3.88-1.6-.8 2.06.34 4.4 2.5 5.22 2.17.82 4.56-.2 5.34-2.25"/></g><g><path fill="#ea596e" d="M8.96 16.92c-.17 1.54 2.83 8.4 8.17 2.4-1.25-.2-4.3-.2-5.67-2.1-1.38-1.93-2.63-.22-2.5-.3"/></g><g><path fill="#a6d388" d="M4.92 16.3c-.73.96 1.75 3.2 3.62 1.28.8.96 4.7 2.88 6.17-1.3.68.76 6.13.93 6.22-3.7.04-.62-6.3-.5-9.54.25-1.8.42-5.1 1.63-6.46 3.46"/></g><g><path fill="#a6d388" d="M26 13.54c-1.17-.3.8 5.13 4.46 4.2.12 1 .9 4.3 3.2 3.72.1-.96.05-5.83-7.66-7.92"/></g></g></g></g></svg>