<svg xmlns="http://www.w3.org/2000/svg" viewBox="0 0 45 45" enable-background="new 0 0 45 45"><defs><clipPath id="a"><path d="M0 36h36V0H0v36z"/></clipPath><clipPath id="b"><path d="M.25 23c0-4.38 2-12 11-16 18.13-8.06 23 0 24 3 1.7 5.1 0 16-12 14 0 3-2.3 4.63-5 7-2.2 1.93-4.56 2.73-6.82 2.73C5.5 33.73.25 28.2.25 23"/></clipPath><clipPath id="c"><path d="M0 36h36V0H0v36z"/></clipPath></defs><g><g><g clip-path="url(#a)" transform="matrix(1.25 0 0 -1.25 0 45)"><g><path fill="#d99e82" d="M.25 23c0 7.16 10 15 18 8 2.7-2.37 5-4 5-7 12 2 13.7-8.9 12-14-1-3-5.87-11.06-24-3-9 4-11 11.62-11 16"/></g></g></g><g><g clip-path="url(#b)" transform="matrix(1.25 0 0 -1.25 0 45)"><g><path fill="#c1694f" d="M24.3 24.15c-2.4-.26-4.48-.97-6.6-2.97 1.55 6.06 10.02 6.1 9.1 5.65-4-2-2.5-2.68-2.5-2.68"/></g></g></g><g><g clip-path="url(#c)" transform="matrix(1.25 0 0 -1.25 0 45)"><g><path fill="#c1694f" d="M11.25 20c0-.55-.45-1-1-1s-1 .45-1 1 .45 1 1 1 1-.45 1-1"/></g><g><path fill="#c1694f" d="M31.25 10c0-.55-.45-1-1-1s-1 .45-1 1 .45 1 1 1 1-.45 1-1"/></g><g><path fill="#c1694f" d="M16.25 10.5c0-.83-.67-1.5-1.5-1.5s-1.5.67-1.5 1.5.67 1.5 1.5 1.5 1.5-.67 1.5-1.5"/></g><g><path fill="#c1694f" d="M7.25 16.5c0-.83-.67-1.5-1.5-1.5s-1.5.67-1.5 1.5.67 1.5 1.5 1.5 1.5-.67 1.5-1.5"/></g></g></g></g></svg>