<svg xmlns="http://www.w3.org/2000/svg" viewBox="0 0 45 45" enable-background="new 0 0 45 45"><defs><clipPath id="a"><path d="M0 36h36V0H0v36z"/></clipPath></defs><g><g><g clip-path="url(#a)" transform="matrix(1.25 0 0 -1.25 28.927 4.254)"><g><path fill="#f7dece" d="M0 0c-1.65 1.5-3.43 2.4-5.14 2.4-5.63 0-12-9.6-12-19 0-.97.08-1.9.2-2.8 1.06-7.68 6.42-12.2 11.8-12.2 6 0 12 5.6 12 15C6.86-10.07 3.76-3.44 0 0"/></g><g><path fill="#e0aa94" d="M0 0c2.9-3.52 5.1-9.02 5.1-14.45 0-9-5.66-14.4-11.34-14.4-4.54 0-9.07 3.46-10.7 9.46 1.06-7.68 6.42-12.2 11.8-12.2 6 0 12 5.6 12 15C6.86-10.07 3.76-3.44 0 0"/></g></g></g></g></svg>