<svg xmlns="http://www.w3.org/2000/svg" viewBox="0 0 45 45" enable-background="new 0 0 45 45"><defs><clipPath id="a"><path d="M0 36h36V0H0v36z"/></clipPath></defs><g><g><g clip-path="url(#a)" transform="matrix(1.25 0 0 -1.25 0 45)"><g><path fill="#d99e82" d="M17.26 4.48C12.5-.27 6.06-1.1 2.56 2.38-.9 5.86.07 12.45 4.67 17.08c3.37 3.34 6.72 3.34 9.24 5.86 2.52 2.52 1.68 5.03 5.45 8.8 4.62 4.62 10.5 5.46 14.26 1.7 3.8-3.8 2.85-9.77-1.66-14.28-3.78-3.77-6.3-2.93-8.8-5.45-2.53-2.5-2.53-5.86-5.88-9.22"/></g><g><path fill="none" stroke="#c1694f" stroke-width="2" stroke-miterlimit="10" d="M8.2 15.6c.62.4 1.3.78 2.1 1.1 3.78 1.47 7.28 4.26 8.33 7.68" stroke-linecap="round"/></g><g><path fill="none" stroke="#c1694f" stroke-width="2" stroke-miterlimit="10" d="M3.17 6.67c.04 1.9.3 4.4 2.28 6.3" stroke-linecap="round"/></g><g><path fill="none" stroke="#c1694f" stroke-width="2" stroke-miterlimit="10" d="M7.3 7.38c.4 1.62 1.37 4.66 5.24 6.08" stroke-linecap="round"/></g><g><path fill="none" stroke="#c1694f" stroke-width="2" stroke-miterlimit="10" d="M24.96 18.42c4.25 1.5 7.33 4.45 8.5 9.7" stroke-linecap="round"/></g><g><path fill="none" stroke="#c1694f" stroke-width="2" stroke-miterlimit="10" d="M29.13 26.58c-.84-1.87-2.67-3.66-4.67-4.46" stroke-linecap="round"/></g><g><path fill="none" stroke="#c1694f" stroke-width="2" stroke-miterlimit="10" d="M15.75 14.92c1.13.46 2.33 1.54 2.75 2.25" stroke-linecap="round"/></g><g><path fill="none" stroke="#c1694f" stroke-width="2" stroke-miterlimit="10" d="M19.75 27.58c.33.96 1.04 1.88 1.7 2.3" stroke-linecap="round"/></g><g><path fill="none" stroke="#c1694f" stroke-width="2" stroke-miterlimit="10" d="M6.54 4.42c-.08-.38-.12-1.04-.08-1.34" stroke-linecap="round"/></g></g></g></g></svg>