<svg xmlns="http://www.w3.org/2000/svg" viewBox="0 0 45 45" enable-background="new 0 0 45 45"><defs><clipPath id="a"><path d="M0 36h36V0H0v36z"/></clipPath></defs><g><g><g clip-path="url(#a)" transform="matrix(1.25 0 0 -1.25 0 45)"><g><path fill="#3e721d" d="M35 30.1c2.4-6.05-1.44-20.55-10.5-26.5C15.44-2.36 4.1.02 1.4 10.04c-1.67 6.18 2.8 10.72 11.85 16.68 9.06 5.95 19.4 9.33 21.75 3.38"/></g><g><path fill="#3e721d" d="M20.6 9.97C14.1 5.42 5.33 4.82 2.15 9.4c-3.2 4.55.4 12.57 6.94 17.1 6.52 4.56 21.95 9.8 25.13 5.24 3.2-4.57-7.07-17.22-13.6-21.77"/></g><g><path fill="#a6d388" d="M19.82 9.42c-5.76-4-13.5-3.1-16.3.94C.73 14.4 4 21.53 9.77 25.54c5.75 4 20.25 9.26 23.07 5.23 2.8-4.03-4.83-16.17-13-21.35"/></g><g><path fill="#c6e5b3" d="M18.17 12.07c-4.5-3.14-9.94-3.12-12.14.03-2.2 3.16-.33 8.26 4.18 11.4 4.5 3.14 15.84 7.24 18.04 4.08 2.2-3.15-5.56-12.37-10.07-15.5"/></g><g><path fill="#662113" d="M11.16 23.5c3.48 2.34 7.38 1.5 9.8-.98 1.43-1.48-.88-5.38-4.36-7.72-3.48-2.33-7.77-1.76-8.24-.73-1.44 3.16-.68 7.1 2.8 9.44"/></g><g><path fill="#7c3225" d="M13.07 22.9c1.5 1 3.42.8 4.26-.44.83-1.25.3-3.08-1.22-4.1-1.5-1-3.4-.8-4.24.44-.84 1.25-.3 3.08 1.2 4.1"/></g></g></g></g></svg>