<svg xmlns="http://www.w3.org/2000/svg" viewBox="0 0 45 45" enable-background="new 0 0 45 45"><defs><clipPath id="a"><path d="M0 36h36V0H0v36z"/></clipPath><clipPath id="b"><path d="M11.8 23C4.2 15.4-1.26 2.87.5 1.1 2.27-.7 14.8 4.8 22.42 12.4c7.62 7.62 7.56 11.54 4.25 14.86-1.33 1.32-2.76 2.13-4.47 2.13-2.58 0-5.82-1.82-10.38-6.4"/></clipPath></defs><g><g><g clip-path="url(#a)" transform="matrix(1.25 0 0 -1.25 0 45)"><g><path fill="#77b255" d="M31.1 27.07c3.53 2.12 4.4 8.32 3.7 7.6.7.72-5.66 0-7.78-3.53 0 1.42-1.42 7.08-3.54 2.13s-1.4-5.66-1.4-7.08 2.82-1.42 2.82-1.42-.13-2.7 1.3-2.7c1.4 0 1.98-.6 6.93 1.53 4.95 2.14-.62 3.47-2.03 3.47"/></g><g><path fill="#f4900c" d="M22.42 12.4C14.82 4.8 2.27-.66.5 1.1-1.27 2.85 4.2 15.4 11.8 23c7.63 7.63 11.55 7.58 14.86 4.26 3.32-3.32 3.38-7.24-4.24-14.85"/></g></g></g><g><g clip-path="url(#b)" transform="matrix(1.25 0 0 -1.25 0 45)"><g><path fill="#d67503" d="M16.15 29.46c2.3-4.58 4.58-6.88 5.73-8.02 1.14-1.15-5.73 1.14-8.02 5.73-2.3 4.58 2.3 2.3 2.3 2.3"/></g><g><path fill="#d67503" d="M8.66 21.4c2.3-4.6 4.58-6.9 5.73-8.03 1.14-1.15-5.74 1.14-8.03 5.73-2.3 4.58 2.3 2.3 2.3 2.3"/></g><g><path fill="#d67503" d="M25.2 12.9c-4.57 2.3-6.86 4.6-8 5.74-1.16 1.15 1.14-5.73 5.72-8.02 4.58-2.3 2.3 2.3 2.3 2.3"/></g><g><path fill="#d67503" d="M16.2 4.9c-4.57 2.3-6.86 4.6-8 5.74C7.03 11.8 9.33 4.9 13.9 2.62c4.58-2.3 2.3 2.3 2.3 2.3"/></g></g></g></g></svg>