<svg xmlns="http://www.w3.org/2000/svg" viewBox="0 0 45 45" enable-background="new 0 0 45 45"><defs><clipPath id="a"><path d="M0 36h36V0H0v36z"/></clipPath><clipPath id="b"><path d="M6.34 29.16c-5.7-5.7-5.4-13.94-2.9-20.15.17-.4 1.1-.7 1.27-1.08C6.2 4.7 9.36 1.22 11.58.6c2.22-.64 2.2.52 1.6 2.3-.68 2.07-2.12 4.96-1.77 6.95.1.66.68.47.73 1.28.4 7.3 3.65 13.34 12.8 14.26.93.08 2.8.18 3.57.3.5.06 1.1.9 1.55.95 1.15.13 2.6-.08 3.8-.42 2.58-.74.17 5.7-5.75 6.8-.45.1-.83 1.06-1.28 1.2-2 .66-4.14 1.04-6.34 1.04-4.74 0-9.76-1.73-14.14-6.1"/></clipPath><clipPath id="c"><path d="M0 36h36V0H0v36z"/></clipPath></defs><g><g><g clip-path="url(#a)" transform="matrix(1.25 0 0 -1.25 0 45)"><g><path fill="#f4900c" d="M11.57.6C9.35 1.2 6.2 4.7 4.7 7.9c-.17.4-1.1.67-1.26 1.08-2.5 6.22-2.8 14.46 2.9 20.17 6.4 6.4 14.2 7.12 20.48 5.07.45-.15.83-1.1 1.28-1.2 5.92-1.1 8.32-7.55 5.76-6.8-1.2.33-2.66.54-3.8.4-.45-.03-1.06-.88-1.56-.95-.76-.12-2.64-.22-3.56-.3-9.16-.93-12.4-6.98-12.8-14.27-.06-.8-.63-.62-.74-1.28-.35-2 1.1-4.88 1.77-6.94.6-1.78.62-2.94-1.6-2.3"/></g></g></g><g><g clip-path="url(#b)" transform="matrix(1.25 0 0 -1.25 0 45)"><g><path fill="#db7803" d="M.9 18.3c3.04 1.97 7.67 4.03 16.5-.82 8.4-4.6.43 6.22-2.83 7-3.26.76-10.33 3.33-13 .9C-1.07 22.92.9 18.3.9 18.3"/></g><g><path fill="#db7803" d="M3.47 8.18c1.54 1.46 3.3 3.9 8.9 2.57 6.52-1.54 2.76-1.93.18-1.5-2.57.43-6.13-.34-8.44-1.97-2.3-1.63-.63.9-.63.9"/></g><g><path fill="#db7803" d="M27.03 34.72c1.03-2.23 2.9-6.18 1.4-9.57-1.5-3.38.64-1.15 1.45.22 1.02 1.76.16 6.63-2.12 9.1-2.22 2.38-.78.36-.73.25"/></g></g></g><g><g clip-path="url(#c)" transform="matrix(1.25 0 0 -1.25 0 45)"><g><path fill="#ffac33" d="M2.04 21.09c-.96 3.24.38 12.6 12.62 14.9 2.13 0 10.13-1.27 6.53-16.26-.57-2.32-1.8-2.74-3.58-1.6-4.12 2.65-11.6 7.1-15.58 2.95"/></g></g></g></g></svg>