<svg xmlns="http://www.w3.org/2000/svg" viewBox="0 0 45 45" enable-background="new 0 0 45 45"><defs><clipPath id="a"><path d="M0 36h36V0H0v36z"/></clipPath></defs><g><g><g clip-path="url(#a)" transform="matrix(1.25 0 0 -1.25 0 45)"><g><path fill="#292f33" d="M9.04 9.04c1.8-1.8 2.16-4.4.78-5.77-1.94-1.93-3.96-1.02-5.76.8-1.8 1.8-2.72 3.8-.8 5.75 1.4 1.38 3.97 1.03 5.78-.78M2.5 2.5C4.9.07 7.6-1.15 10.17 1.43c1.83 1.84 1.36 5.28-1.05 7.7-2.4 2.4-5.85 2.87-7.7 1.04C-1.13 7.58.1 4.9 2.5 2.48"/></g><g><path fill="#292f33" d="M26.96 26.96c-1.8 1.8-2.16 4.4-.78 5.77 1.94 1.93 3.96 1.02 5.76-.8 1.8-1.8 2.73-3.8.8-5.75-1.4-1.38-3.97-1.03-5.78.78m6.55 6.55c-2.4 2.42-5.1 3.64-7.67 1.06-1.84-1.84-1.37-5.28 1.04-7.7 2.4-2.4 5.85-2.87 7.7-1.04 2.57 2.6 1.35 5.28-1.06 7.7"/></g><g><path fill="#292f33" d="M35 18c0-9.4-7.6-17-17-17S1 8.6 1 18s7.6 17 17 17 17-7.6 17-17"/></g><g><path fill="#ffac33" d="M31.6 18c0-7.5-6.1-13.6-13.6-13.6S4.4 10.5 4.4 18 10.5 31.6 18 31.6 31.6 25.5 31.6 18"/></g><g><path fill="#ffe8b6" d="M19.45 25.34l-2.54 2.53c.37.45.36 1.1-.06 1.5-.44.45-1.15.45-1.6 0-.26-.25-.36-.63-.3-.98-.35.06-.72-.05-1-.32-.43-.44-.43-1.15 0-1.6.42-.4 1.08-.42 1.52-.05L18 23.9l1.45 1.44z"/></g><g><path fill="#c1694f" d="M27.67 15.66c.72.73 2.55 3.83.02 6.36-1.77 1.76-3.2 1.66-5.84 2.32-1.08.36-2.5 1.66-2.86 2.02-.36-.36-.23-1.68-.23-1.68s-1.58-.13-1.94-.5c.36-.35 2.04-1.94 2.34-2.68.8-2.5.7-3.8 2.46-5.55 2.9-2.9 5.32-1 6.04-.3"/></g><g><path fill="#77b255" d="M9.33 19.5c0-1.93 3.1-3.5 1.17-3.5C8.57 16 7 17.57 7 19.5S8.57 23 10.5 23s-1.17-1.57-1.17-3.5"/></g><g><path fill="#77b255" d="M18.02 10c1.6-.76 4.13 1.18 3.36-.42-.77-1.6-2.7-2.27-4.3-1.5-1.6.77-2.27 2.7-1.5 4.3.78 1.6.84-1.6 2.44-2.37"/></g><g><path fill="#f4900c" d="M17 19c0-1.1-.9-2-2-2s-2 .9-2 2 .9 2 2 2 2-.9 2-2"/></g><g><path fill="#f4900c" d="M25 12c0-.55-.45-1-1-1s-1 .45-1 1 .45 1 1 1 1-.45 1-1"/></g><g><path fill="#f4900c" d="M12 13c0-.55-.45-1-1-1s-1 .45-1 1 .45 1 1 1 1-.45 1-1"/></g></g></g></g></svg>