<svg xmlns="http://www.w3.org/2000/svg" viewBox="0 0 45 45" enable-background="new 0 0 45 45"><defs><clipPath id="a"><path d="M0 36h36V0H0v36z"/></clipPath><clipPath id="b"><path d="M24.05 31.33L5.13 12.4C1.33 8.63 1.3 4.14 2.86 2.57 4.42 1 8.9 1.06 12.7 4.83l18.92 18.93c3.8 3.78 3.84 8.27 2.27 9.84-.6.6-1.66.97-2.92.97-2.02 0-4.6-.92-6.93-3.24"/></clipPath></defs><g><g><g clip-path="url(#a)" transform="matrix(1.25 0 0 -1.25 0 45)"><g><path fill="#edb980" d="M12.7 4.83C8.9 1.06 4.42 1 2.86 2.56 1.3 4.13 1.34 8.62 5.13 12.4l18.92 18.93c3.8 3.78 8.27 3.84 9.84 2.27 1.56-1.57 1.5-6.06-2.28-9.84L12.7 4.83z"/></g></g></g><g><g clip-path="url(#b)" transform="matrix(1.25 0 0 -1.25 0 45)"><g><path fill="#e5a157" d="M27.92 25.95c-.84-.84-2.03.5-3.6 2.08-1.57 1.57-2.92 2.76-2.08 3.6.84.83 2.78.24 4.35-1.33 1.56-1.57 2.15-3.52 1.32-4.35"/></g><g><path fill="none" stroke="#ffd983" stroke-miterlimit="10" d="M23 32.38c1.7-.2 5.48-3.97 5.67-5.67" stroke-linecap="round" stroke-linejoin="round"/></g><g><path fill="#e5a157" d="M23.38 21.4c-.84-.83-2.03.52-3.6 2.1-1.57 1.56-2.92 2.75-2.08 3.58.83.84 2.78.25 4.35-1.32 1.57-1.57 2.16-3.52 1.33-4.35"/></g><g><path fill="none" stroke="#ffd983" stroke-miterlimit="10" d="M18.46 27.84c1.7-.2 5.48-3.97 5.67-5.68" stroke-linecap="round" stroke-linejoin="round"/></g><g><path fill="#e5a157" d="M18.83 16.87c-.83-.84-2.02.5-3.6 2.08-1.56 1.57-2.9 2.76-2.07 3.6.83.83 2.78.24 4.35-1.33 1.58-1.57 2.17-3.52 1.33-4.35"/></g><g><path fill="none" stroke="#ffd983" stroke-miterlimit="10" d="M13.9 23.3c1.72-.2 5.5-3.98 5.7-5.68" stroke-linecap="round" stroke-linejoin="round"/></g><g><path fill="#e5a157" d="M14.3 12.32c-.84-.83-2.04.52-3.6 2.1-1.57 1.55-2.92 2.75-2.1 3.58.85.84 2.8.24 4.37-1.32 1.57-1.57 2.16-3.52 1.32-4.36"/></g><g><path fill="none" stroke="#ffd983" stroke-miterlimit="10" d="M9.37 18.76c1.7-.2 5.5-3.98 5.68-5.68" stroke-linecap="round" stroke-linejoin="round"/></g><g><path fill="#e5a157" d="M9.75 7.78c-.84-.83-2.03.52-3.6 2.08-1.56 1.57-2.9 2.76-2.08 3.6.84.84 2.8.24 4.36-1.33 1.56-1.56 2.16-3.5 1.32-4.35"/></g><g><path fill="none" stroke="#ffd983" stroke-miterlimit="10" d="M4.83 14.22c1.7-.2 5.5-3.98 5.68-5.68" stroke-linecap="round" stroke-linejoin="round"/></g></g></g></g></svg>