<svg xmlns="http://www.w3.org/2000/svg" viewBox="0 0 45 45" enable-background="new 0 0 45 45"><defs><clipPath id="a"><path d="M0 36h36V0H0v36z"/></clipPath><clipPath id="b"><path d="M5.47 34.97s-2.14-3-2-5c.14-2-3-5-3-5 .12-1.06 1-3 3-4 .98-.5 2.44-.44 4-2 1.55-1.56 2.78-6.1 4.34-7.66 1.57-1.55 5.1-1.77 6.67-3.33 1.56-1.56 1.15-3.3 2-4 1.88-1.56 3-3 4-3 0 0 3 1 4 1 2.83 0 7 3 7 3s1 1-5 5c-1.18.78-1 4-3 6s-5 2-7 4-2 5-4 7-5.22 1.82-6 3c-3 4.5-4.3 5.06-4.78 5.06-.17 0-.23-.06-.23-.06"/></clipPath></defs><g><g><g clip-path="url(#a)" transform="matrix(1.25 0 0 -1.25 0 45)"><g><path fill="#dd2e44" d="M20.47 3.97c-.85.7-.44 2.44-2 4s-5.1 1.78-6.66 3.34c-1.55 1.57-2.77 6.1-4.33 7.67-1.56 1.56-3.02 1.5-4 2-2 1-2.88 2.94-3 4 0 0 3.14 3 3 5-.14 2 2 5 2 5s1 1 5-5c.78-1.18 4-1 6-3s2-5 4-7 5-2 7-4 1.82-5.22 3-6c6-4 5-5 5-5s-4.17-3-7-3c-1 0-4-1-4-1-1 0-2.12 1.44-4 3"/></g></g></g><g><g clip-path="url(#b)" transform="matrix(1.25 0 0 -1.25 0 45)"><g><path fill="#dd2e44" d="M19.6 3.53c-.92.6-.8 3.1-2.34 4.67-1.56 1.55-3.9 1.55-5.45 3.1-1.55 1.57-1.55 3.9-3.1 5.46-1.56 1.55-4.06 1.42-4.67 2.33C1.77 22.47.75 23 .35 23.02l5.12 11.94s1 1 5-5c.78-1.18 4-1 6-3s2-5 4-7 5-2 7-4 1.82-5.22 3-6c6-4 5-5 5-5L23.53-.15c-.03.4-.56 1.42-3.94 3.68"/></g><g><path fill="#f4abba" d="M34.47 3.97l-14-6-22 22 6 14s1 1 5-5c.78-1.18 4-1 6-3s2-5 4-7 5-2 7-4 1.82-5.22 3-6c6-4 5-5 5-5"/></g><g><path fill="#ffe8b6" d="M33.47 2.97l-14-6-22 22 6 14s1 1 5-5c.78-1.18 4-1 6-3s2-5 4-7 5-2 7-4 1.82-5.22 3-6c6-4 5-5 5-5"/></g><g><path fill="#ea596e" d="M32.47 1.97l-14-6-22 22 6 14s1 1 5-5c2-3 4-2 6-4s2-4 4-6 4-2 6-4 1-4 4-6c6-4 5-5 5-5"/></g><g><path fill="#ffe8b6" d="M30.47-.03l-14-6-22 22 6 14s1 2 5-4c.78-1.18 4-1 6-3s2-6 4-8 5-2 7-4 2.82-5.22 4-6c6-4 4-5 4-5"/></g><g><path fill="#ea596e" d="M29.47-1.03l-14-6-22 22 6 14s1 1 5-5c.78-1.18 4-1 6-3s2-5 4-7 5-2 7-4 1.82-5.22 3-6c6-4 5-5 5-5"/></g><g><path fill="#dd2e44" d="M28.47-2.03l-14-6-22 22 6 14s1 1 5-5c.78-1.18 4-1 6-3s2-5 4-7 5-2 7-4 1.82-5.22 3-6c6-4 5-5 5-5"/></g></g></g></g></svg>