<svg xmlns="http://www.w3.org/2000/svg" viewBox="0 0 45 45" enable-background="new 0 0 45 45"><defs><clipPath id="a"><path d="M0 36h36V0H0v36z"/></clipPath></defs><g><g><g clip-path="url(#a)" transform="matrix(1.25 0 0 -1.25 0 45)"><g><path fill="#77b255" d="M5 34.14c1-1 2-4 2-5s-1-3-2-1-1 3-2 4c-1.73 1.73 1 3 2 2"/></g><g><path fill="#77b255" d="M8 32.14c2.9.73 5-2 8-6s6.7-7.57 8.48-8.93C28.78 13.9 35 9.9 35 5.15c0-4-2.6-5.46-7.83-5.08C22.17.4 16.53 4.7 12 10.14c-5 6-7.74 10.2-9 14-1 3 1 7 5 8"/></g><g><path fill="none" stroke="#5c913b" stroke-width="1.5" stroke-miterlimit="10" d="M5.3 24.35c1.64-2.52 8.24-13.88 19.18-20.7" stroke-linecap="round" stroke-linejoin="round"/></g><g><path fill="none" stroke="#5c913b" stroke-width="1.5" stroke-miterlimit="10" d="M6.58 28.06c1.65-2.52 8.25-13.55 21.63-22.5" stroke-linecap="round" stroke-linejoin="round"/></g><g><path fill="none" stroke="#5c913b" stroke-width="1.5" stroke-miterlimit="10" d="M10.58 28c1.85-2.66 6.25-9.2 13.7-14.78" stroke-linecap="round" stroke-linejoin="round"/></g></g></g></g></svg>