<svg xmlns="http://www.w3.org/2000/svg" viewBox="0 0 45 45" enable-background="new 0 0 45 45"><defs><clipPath id="a"><path d="M0 36h36V0H0v36z"/></clipPath></defs><g><g><g clip-path="url(#a)" transform="matrix(1.25 0 0 -1.25 0 45)"><g><path fill="#662113" d="M32.33 25.04s2.3-.02 3.5-1.18c-.33 4.98-2.1 8.25-5.94 10.13-3.15 1.1-6.07-1.46-6.07-1.46s.86 2 2.2 2.75c-2.24.46-4.88.7-8.03.7-3.14 0-5.78-.23-8-.7 1.34-.75 2.2-2.76 2.2-2.76s-3 2.66-6.2 1.4C2.22 32.05.48 28.8.16 23.85c1.18 1.18 3.55 1.2 3.55 1.2S-.1 22.74.3 19.4c.4-2.96 1.4-5.98 2.88-8.74C3.04 13.86 5.92 16 5.92 16s-2.5-5.96-.58-8.74c1.93-2.54 4.3-4.64 6.97-5.9-.94 1.63-.12 3.03-.1 2.93.05-.13.47-3.12 2.15-3.75C15.52.2 16.75 0 18 0c1.3 0 2.55.2 3.76.58 1.62.7 2.02 3.6 2.07 3.7.03.1.84-1.28-.1-2.9 2.7 1.3 5.12 3.45 7.07 6.06 1.7 2.85-.68 8.56-.68 8.56s2.85-2.13 2.75-5.3c1.56 2.92 2.6 6.12 2.9 9.2-.02 3.07-3.44 5.14-3.44 5.14"/></g><g><path fill="#ffcc4d" d="M13.86 26.5c.6-2.4.16-4.42-2.23-5-2.4-.6-6.37-.1-6.96 2.3-.6 2.38.47 5.38 1.8 5.72 1.35.33 6.8-.62 7.4-3.02"/></g><g><path fill="#ffcc4d" d="M22.96 8.07c0-2.74-2.22-4.96-4.96-4.96-2.74 0-4.96 2.23-4.96 4.97 0 2.74 2.22 4.97 4.96 4.97 2.74 0 4.96-2.23 4.96-4.97"/></g><g><path fill="#dd2e44" d="M21.3 8.07c0-1.82-1.47-3.3-3.3-3.3-1.83 0-3.3 1.48-3.3 3.3 0 1.83 1.47 3.3 3.3 3.3 1.83 0 3.3-1.47 3.3-3.3"/></g><g><path fill="#e6aaaa" d="M11.05 27c.87-1.4.45-3.23-.94-4.1-1.4-.87-2.6-.8-3.47.6-.87 1.4-.2 4.13.32 4.45.5.32 3.23.45 4.1-.95"/></g><g><path fill="#ffcc4d" d="M22.14 26.5c-.6-2.4-.16-4.42 2.23-5 2.4-.6 6.37-.1 6.96 2.3.6 2.38-.47 5.38-1.8 5.72-1.35.33-6.8-.62-7.4-3.02"/></g><g><path fill="#e6aaaa" d="M24.95 27c-.87-1.4-.45-3.23.94-4.1 1.4-.87 2.6-.8 3.47.6.87 1.4.2 4.13-.32 4.45-.5.32-3.23.45-4.1-.95"/></g><g><path fill="#ffcc4d" d="M18 28.88c-12.83 0-10.88-4.96-9.5-11.55C9.88 10.75 10.38 9 10.38 9H25.6s.52 1.75 1.9 8.33c1.37 6.6 3.33 11.54-9.5 11.54"/></g><g><path fill="#272b2b" d="M12 20s0 1.5 1.5 1.5S15 20 15 20v-1.5s0-1.5-1.5-1.5-1.5 1.5-1.5 1.5V20z"/></g><g><path fill="#272b2b" d="M21 20s0 1.5 1.5 1.5S24 20 24 20v-1.5s0-1.5-1.5-1.5-1.5 1.5-1.5 1.5V20z"/></g><g><path fill="#ffe8b6" d="M20.17 14.48c-1.6 0-1.4-.85-2.17-2.1-.78 1.25-.57 2.1-2.17 2.1-6.86 0-6.84-.38-6.86-2.83-.06-5 2.8-6.13 5.25-6.06 1.6.04 3 .87 3.78 2.12.78-1.25 2.18-2.08 3.78-2.13 2.45-.08 5.3 1.06 5.25 6.05-.02 2.45 0 2.83-6.86 2.83"/></g><g><path fill="#272b2b" d="M14.58 14.6c-1.14-.24 2.28-4.44 3.42-4.44 1.14 0 4.56 4.2 3.42 4.43-1.14.22-5.7.22-6.84 0"/></g><g><path fill="#d99e82" d="M12 11.5c0-.28-.22-.5-.5-.5s-.5.22-.5.5.22.5.5.5.5-.22.5-.5"/></g><g><path fill="#d99e82" d="M11 9.5c0-.28-.22-.5-.5-.5s-.5.22-.5.5.22.5.5.5.5-.22.5-.5"/></g><g><path fill="#d99e82" d="M13 8.5c0-.28-.22-.5-.5-.5s-.5.22-.5.5.22.5.5.5.5-.22.5-.5"/></g><g><path fill="#d99e82" d="M24 11.5c0-.28.22-.5.5-.5s.5.22.5.5-.22.5-.5.5-.5-.22-.5-.5"/></g><g><path fill="#d99e82" d="M25 9.5c0-.28.22-.5.5-.5s.5.22.5.5-.22.5-.5.5-.5-.22-.5-.5"/></g><g><path fill="#d99e82" d="M23 8.5c0-.28.22-.5.5-.5s.5.22.5.5-.22.5-.5.5-.5-.22-.5-.5"/></g></g></g></g></svg>