<svg xmlns="http://www.w3.org/2000/svg" viewBox="0 0 45 45" enable-background="new 0 0 45 45"><defs><clipPath id="a"><path d="M0 36h36V0H0v36z"/></clipPath></defs><g><g><g clip-path="url(#a)" transform="matrix(1.25 0 0 -1.25 0 45)"><g><path fill="#66757f" d="M27.3 28.47c-1.16 3.06-2.65 6.8-8.3 6.92-1.76.02-1.52-.55-.35-1.03 2.25-.92-2.47-5.44 4.76-7.4 5.66-1.53 5.05-1.55 3.9 1.5"/></g><g><path fill="#99aab5" d="M36 32.1c-7.73 0-14.4-2.52-18.1-5.76-4.88-4.28-5.38-10.3-14.04-15.66-2.84-1.76-.42-7.52 1.16-9.62C6.92-1.48 33.62.82 36 9.84V32.1z"/></g><g><path fill="#66757f" d="M8.68 6.35c1-.5 1.78-1.05 1.3-2-.45-.93-1.16-.24-2.17.27-1 .5-2.28.02-1.8.95.46.94 1.66 1.28 2.68.78"/></g><g><path fill="#66757f" d="M34.2 29.67c.24 2.57-2.18 5-5.95 5.9-1.68.42-3.28.36-2.34-.47 1.8-1.58-.07-4 1.28-7.12.73-1.68 3.24-3.76 4.72-3.82 1.06-.05 2.05 2.85 2.3 5.5"/></g><g><path fill="#99aab5" d="M33.25 29.67c.23 2.57-2.28 5.45-6.17 6-1.72.26-2.3-.08-1.36-.9 1.8-1.6-.63-3.63.72-6.75.73-1.67 3.4-3.84 4.88-3.9 1.05-.05 1.68 2.9 1.93 5.55"/></g><g><path fill="#ccd6dd" d="M2.64 9.1C.1 13.1-1 21.07 1.14 26.7c.33.84 1.1 1.07 1.2-.13.17-2.28 2.4-6.83 7.95-10.97 1.23-.92-5.72-9.53-7.66-6.5"/></g><g><path fill="#ccd6dd" d="M13.25 20.6c-2.05.87-3.6 3.2-4.1 4.67-.57 1.76-2.15-3.92.86-8.9 1.2-1.98 4.66 3.66 3.25 4.24"/></g><g><path fill="#292f33" d="M18.8 15c0-1.1-.9-2-2-2-1.12 0-2 .9-2 2s.88 2 2 2c1.1 0 2-.9 2-2"/></g><g><path fill="#e6aaaa" d="M30.3 26.6c1.32-.12 1.95 1.73 1.2 4.68-.63 2.58-4.24 3.25-4.22 3.07.03-.18 1.06-1.55.02-2.94-1.02-1.34 1.34-4.68 3-4.8"/></g></g></g></g></svg>