<svg xmlns="http://www.w3.org/2000/svg" viewBox="0 0 45 45" enable-background="new 0 0 45 45"><defs><clipPath id="a"><path d="M0 36h36V0H0v36z"/></clipPath></defs><g><g><g clip-path="url(#a)" transform="matrix(1.25 0 0 -1.25 0 45)"><g><path fill="#66757f" d="M23 15c0-6.35-3-10-5-10s-5 3.65-5 10 2.24 7 5 7 5-.65 5-7"/></g><g><path fill="#66757f" d="M22 25c0-3.3-.7-4-4-4s-4 .7-4 4 .7 4 4 4 4-.7 4-4"/></g><g><path fill="#66757f" d="M14 25c-2 5 1 7 1 7s2-1 2-4-3-3-3-3"/></g><g><path fill="#546066" d="M14.67 26.1c-.78 2.45-.12 3.9.4 4.58.42-.45.93-1.3.93-2.68 0-1.27-.74-1.73-1.33-1.9"/></g><g><path fill="#66757f" d="M22 25c2 5-1 7-1 7s-2-1-2-4 3-3 3-3"/></g><g><path fill="#66757f" d="M16.02 22c-1.62-1.16-10-2-9 5 .14 1-1 1-2 0-3-3-6-7.83-4-20 3 5 6 4 7-1 3 4 6 2 8 0 3 3 0 16 0 16"/></g><g><path fill="#66757f" d="M19.95 22c1.62-1.16 10-2 9 5-.14 1 1 1 2 0 3-3 6-7.83 4-20-3 5-6 4-7-1-3 4-6 2-8 0-3 3 0 16 0 16"/></g><g><path fill="#292f33" d="M17 25c0-.55-.45-1-1-1s-1 .45-1 1 .45 1 1 1 1-.45 1-1"/></g><g><path fill="#292f33" d="M21 25c0-.55-.45-1-1-1s-1 .45-1 1 .45 1 1 1 1-.45 1-1"/></g><g><path fill="#546066" d="M21.33 26.1c.78 2.45.12 3.9-.4 4.58-.42-.45-.93-1.3-.93-2.68 0-1.27.74-1.73 1.33-1.9"/></g><g><path fill="#99aab5" d="M8 9.1c.9 2.68.57 5.98-1 9.9-1.5 3.72-1.32 6.33-1.13 7.42-.05-.04-.1-.08-.15-.13-2.7-2.7-5.24-6.83-4.06-16.74 1.28 1.38 2.4 1.73 3.23 1.73 1.25 0 2.32-.8 3.1-2.2"/></g><g><path fill="#99aab5" d="M6.83 22.75c-.02.03-.04.06-.06.1C7 20 8.4 19 9 16c.6-2.94.48-5.52.1-7.56.83.57 1.7.87 2.64.87 1.27 0 2.55-.53 3.9-1.62C14 17 9 19 6.84 22.75"/></g><g><path fill="#99aab5" d="M28 9.1c-.9 2.68-.57 5.98 1 9.9 1.5 3.72 1.3 6.33 1.13 7.42.05-.04.1-.08.15-.13 2.7-2.7 5.24-6.83 4.06-16.74-1.28 1.38-2.4 1.73-3.23 1.73-1.25 0-2.32-.8-3.1-2.2"/></g><g><path fill="#99aab5" d="M29.17 22.75c.02.03.04.06.06.1C29 20 27.6 19 27 16c-.6-2.94-.48-5.52-.1-7.56-.83.57-1.7.87-2.64.87-1.27 0-2.55-.53-3.9-1.62C22 17 27 19 29.16 22.75"/></g><g><path fill="#99aab5" d="M18.7 22.9c-.4-.38-1-.38-1.4 0l-.56.56c-.38.38-.25.7.3.7h1.93c.54 0 .67-.32.3-.7l-.58-.57z"/></g></g></g></g></svg>