<svg xmlns="http://www.w3.org/2000/svg" viewBox="0 0 45 45" enable-background="new 0 0 45 45"><defs><clipPath id="a"><path d="M0 36h36V0H0v36z"/></clipPath></defs><g><g><g clip-path="url(#a)" transform="matrix(1.25 0 0 -1.25 0 45)"><g><path fill="#662113" d="M15.97 20.92c-1.46 2.33-.67 7.7 0 8.95.67 1.25-.54 2.46-1.5.46s-1-3-3.16-2.46c-2.16.55-1.08 3.3-.37 5.63.73 2.4-.92 1.96-1.67.46-.75-1.5-1.25-5.7-2.9-6-1.64-.28-6.1-.6-2.85 5.66 1.32 2.52-.73 3.04-1.82.92C.36 32-.4 28.74.22 27.37c1.1-2.44 3.48-2.95 6.98-2.28 3.5.66 6.1.63 6.1-1.14 0-1.87.2-3.46 1.05-3.63.83-.16 1.62.6 1.62.6"/></g><g><path fill="#662113" d="M20.03 20.92c1.46 2.33.67 7.7 0 8.95-.67 1.25.54 2.46 1.5.46s1-3 3.16-2.46c2.16.55 1.08 3.3.37 5.63-.73 2.4.92 1.96 1.67.46.75-1.5 1.25-5.7 2.9-6 1.64-.28 6.1-.6 2.85 5.66-1.32 2.52.73 3.04 1.82.92 1.32-2.55 2.08-5.8 1.46-7.17-1.1-2.44-3.48-2.95-6.98-2.28-3.5.66-6.1.63-6.1-1.14 0-1.87-.2-3.46-1.05-3.63-.83-.16-1.62.6-1.62.6"/></g><g><path fill="#c1694f" d="M13.86 20.5c.6-2.4.16-4.42-2.23-5-2.4-.6-6.35-.57-7.96 1.3-2.3 2.64-2.53 6.38-1.2 6.72 1.35.33 10.8-.62 11.4-3.02"/></g><g><path fill="#c1694f" d="M22.14 20.5c-.6-2.4-.16-4.42 2.23-5 2.4-.6 6.35-.57 7.96 1.3 2.3 2.64 2.53 6.38 1.2 6.72-1.35.33-10.8-.62-11.4-3.02"/></g><g><path fill="#272b2b" d="M2.48 23.52c-.94-.24-1.1-2.16-.32-4.2l3.38 4.13c-1.46.15-2.65.17-3.06.07"/></g><g><path fill="#272b2b" d="M33.52 23.52c-.42.1-1.63.08-3.12-.07l3.45-4.1c.77 2.02.6 3.93-.33 4.17"/></g><g><path fill="#e6aaaa" d="M12.05 20c.87-1.4-.55-2.23-1.94-3.1-1.4-.87-4.6.2-5.47 1.6-.87 1.4-1.2 3.13-.68 3.45.5.32 7.23-.55 8.1-1.95"/></g><g><path fill="#e6aaaa" d="M23.95 20c-.87-1.4.55-2.23 1.94-3.1 1.4-.87 4.6.2 5.47 1.6.87 1.4 1.2 3.13.68 3.45-.5.32-7.23-.55-8.1-1.95"/></g><g><path fill="#c1694f" d="M18 21.88c-10.27 0-8.7-3.96-7.6-10.55C11.5 4.75 12.8.08 18 .08c5.2 0 6.5 4.67 7.6 11.25 1.1 6.6 2.67 10.54-7.6 10.54"/></g><g><path fill="#272b2b" d="M11.83 13.15s-.75 1.3.55 2.05c1.3.75 2.04-.55 2.04-.55l.75-1.3s.75-1.3-.54-2.05c-1.3-.75-2.05.55-2.05.55l-.75 1.3z"/></g><g><path fill="#272b2b" d="M21.58 14.65s.75 1.3 2.05.55c1.3-.75.54-2.05.54-2.05l-.75-1.3s-.75-1.3-2.04-.55c-1.3.75-.55 2.05-.55 2.05l.75 1.3z"/></g><g><path fill="#272b2b" d="M15.23 1.73c-.93.2 1.85 3.6 2.77 3.6.92 0 3.7-3.4 2.77-3.6-.92-.18-4.62-.18-5.54 0"/></g></g></g></g></svg>