<svg xmlns="http://www.w3.org/2000/svg" viewBox="0 0 45 45" enable-background="new 0 0 45 45"><defs><clipPath id="a"><path d="M0 36h36V0H0v36z"/></clipPath></defs><g><g><g clip-path="url(#a)" transform="matrix(1.25 0 0 -1.25 0 45)"><g><path fill="#292f33" d="M27.4 0c-.44 12.62-2.98 23.7-11.8 23.7C6.8 23.7 4.24 12.6 3.8 0h23.6z"/></g><g><path fill="#292f33" d="M9.07 0c-.7 5.9-2.25 10-4.04 10C3.23 10 1.7 5.9 1 0h8.07z"/></g><g><path fill="#292f33" d="M32 0c-.8 5.9-2.52 10-4.53 10-2.02 0-3.74-4.1-4.54-10H32z"/></g><g><path fill="#e1e8ed" d="M27.46 12.3C23.54 23.48 28 33 17 33S8.26 24.83 3.8 13.87c-1.1-2.74 1.45-5.9 1.45-5.9s2.6 4.75 4.75 5.84c.6-3.26 1.75-6.92 1.75-6.92s4.9 5.65 9.08 8.25c1.15-1.54 4.92-7.5 4.92-7.5s2.5 2.43 1.7 4.68"/></g><g><path fill="#ffcc4d" d="M23 31c4.36-3.06 5.54-2.16 7.8-3.56 2.14-1.3 2-4.94.14-8.06-.58 2.66.5 3.14-6.94 3.14-5 0-7.93-.28-7 1 .93 1.3 10.03-.45 6 7.48"/></g><g><path fill="#292f33" d="M20.94 28.48c0-.82-.66-1.48-1.48-1.48-.83 0-1.5.66-1.5 1.48s.67 1.5 1.5 1.5c.82 0 1.48-.68 1.48-1.5"/></g><path fill="#e1e8ed" d="M22 28.93h-5v2h5v-2z"/><g><path fill="#e1e8ed" d="M15 16s1-3 6-7c1 3 4 8 4 8l-10-1z"/></g></g></g></g></svg>