<svg xmlns="http://www.w3.org/2000/svg" viewBox="0 0 45 45" enable-background="new 0 0 45 45"><defs><clipPath id="a"><path d="M0 36h36V0H0v36z"/></clipPath></defs><g><g><g clip-path="url(#a)" transform="matrix(1.25 0 0 -1.25 0 45)"><g><path fill="#9266cc" d="M36 16.15c-2.48 9.93-11 17.94-19.97 13.02 0 0-4.52 1.5-5.17 1.95-.64.44-1.64.9-.92-.44.43-.78.88-1.67 2.4-3.32-4.34-4.32-3.06-9.62-4.6-13.1-1.3-2.97-2.57-4.74-1.3-7 1.3-2.32 4.72-3.45 7-1.05 1.25 1.32.48 1.95 3.14 4.22 2.73.54 4.4 1.8 4.4 4.37 0 0 .8.37 1.82-6.02.46-2.82-.15-5.63-.04-8.78H36v16.15z"/></g><g><path fill="#55acee" d="M36 25.04c-.75 1.04-1.28 3.02-4.1 4.9.54-1.32.85-3.7.6-5.32-.15 3.92-3.2 6.58-4.38 7.2-2.2 1.13-4.37.97-6.8.76.12-.16.4-.8.33-1.54-.48.87-1.6 1.42-2.34 1.27-3.5-.7-5.96-2.22-5.08-3.85 8.94 3.48 14.65-2.16 17.74-8.7.77-1.63 2.6-7.13 4.04-10.3v15.6z"/></g><g><path fill="#55acee" d="M16.9 29.27c-2.12-.57-5.26-2.5-6.54-4.57 0 0-2.6-.66-3.63 1.84 2.56-.83 4.83 2.34 6.74 3.5 4.03 2.48 3.3.2 3.3.2l.13-.97z"/></g><g><path fill="#f4900c" d="M13.85 27.88c-.72.7-12.9 8.63-13.63 7.9-.73-.73 10.22-9.52 10.93-10.06.75.8 1.7 1.54 2.7 2.16"/></g><g><path fill="#9266cc" d="M13.8 32.34c.56-.8 3.23-.8 4.6-3.82 1.34-3.03-1.96-2.63-3.15-1.23-1.34 1.55-1.94 2.85-2.17 3.98-.12.6-.45 2.65.7 1.06"/></g><g><path fill="#744eaa" d="M14.2 31.04c.97-.57 2.17-1.52 2.53-2.6.35-1.08-.7-.9-1.35.04-.64.94-.94 1.98-1.3 2.27-.33.3.13.3.13.3"/></g><g><path fill="#292f33" d="M16.2 21.6c.08-.5-.26-1-.78-1.1-.5-.1-1 .25-1.1.77-.1.5.25 1 .77 1.1.5.1 1-.25 1.1-.77"/></g><g><path fill="#744eaa" d="M8.63 9.12c.12-.65-.18-1.26-.67-1.35-.5-.1-.98.37-1.1 1.03-.12.66.18 1.27.67 1.35.5.1.98-.37 1.1-1.03"/></g></g></g></g></svg>