<svg xmlns="http://www.w3.org/2000/svg" viewBox="0 0 45 45" enable-background="new 0 0 45 45"><defs><clipPath id="a"><path d="M0 36h36V0H0v36z"/></clipPath></defs><g><g><g clip-path="url(#a)" transform="matrix(1.25 0 0 -1.25 0 45)"><g><path fill="#f4900c" d="M13.43 26.2c.66-2.64.18-4.88-2.46-5.54C8.33 20 4.77 15.7 2.2 22.1.7 25.8-.6 33.57.86 33.93c1.48.37 11.9-5.1 12.56-7.73"/></g><g><path fill="#a0041e" d="M11.44 25.64c.96-1.53-1.83-4.56-3.37-5.52s-2.9.55-4.42 4.42C3 26.24 2 30.8 2.55 31.16c.56.35 7.93-3.98 8.9-5.52"/></g><g><path fill="#f4900c" d="M22.56 26.2c-.66-2.64-.18-4.88 2.46-5.54 2.64-.65 6.2-4.95 8.78 1.44 1.5 3.7 2.8 11.47 1.3 11.83-1.47.37-11.9-5.1-12.54-7.73"/></g><g><path fill="#a0041e" d="M24.55 25.64c-.96-1.53 1.83-4.56 3.37-5.52s2.9.55 4.4 4.42c.67 1.7 1.68 6.27 1.12 6.62-.57.35-7.93-3.98-8.9-5.52"/></g><g><path fill="#f4900c" d="M18 26.74c-6.62 2.2-11.47-1.97-15.45-9.93h2.2s-2.2-2.2-3.3-5.5c2.2 1.1 3.3 1.1 3.3 1.1s-1.1-2.2-1.1-3.3c3.32 2.2 6.63 2.2 8.83-1.1C14.68 4.66 18 8 18 12.4v14.34z"/></g><g><path fill="#f4900c" d="M18 26.74c6.62 2.2 11.47-1.97 15.45-9.93h-2.2s2.2-2.2 3.3-5.5c-2.2 1.1-3.3 1.1-3.3 1.1s1.1-2.2 1.1-3.3c-3.31 2.2-6.62 2.2-8.83-1.1C21.32 4.66 18 8 18 12.4v14.34z"/></g><g><path fill="#f4900c" d="M18 27.7c-11.34 0-9.6-4.36-8.4-11.62C10.83 8.8 12.27 3.66 18 3.66s7.18 5.15 8.4 12.42c1.2 7.26 2.93 11.63-8.4 11.63"/></g><g><path fill="#f18f26" d="M34.7 9.96c-.07 5.7-9.3 3.74-10.08 2.97-1.1-1.08-1.1-7.7-6.62-7.7s-6.62 6.62-7.72 7.7c-.8.77-9.24 1.4-9.03-2.97 2.2 1.1 3.5.78 3.5.78s-1.42-.82-1.2-2.78c3.2 1.46 4.7 1.25 6.45.37C11.2 4.7 14.2 2 18 2s6.75 2.8 7.96 6.42c1.46 1.25 3.7.87 6.42-.42.3 1.83-1.14 2.74-1.14 2.74s1.26.32 3.47-.78"/></g><g><path fill="#ffd983" d="M34.55 11.3c-.9 2.7-9.14 4.06-9.93 3.3-1.1-1.1-1.1-7.72-6.62-7.72s-6.62 6.62-7.72 7.7c-.8.78-7.93-.57-8.83-3.28 2.2 1.1 3.3 1.1 3.3 1.1s-1.1-2.2-1.1-3.3c2.67 1.77 5.34 2.1 7.43.44C12.3 5.92 14.2 3.66 18 3.66c3.8 0 5.7 2.26 6.9 5.88 2.1 1.67 4.78 1.33 7.45-.45 0 1.1-1.1 3.3-1.1 3.3s1.1 0 3.3-1.1"/></g><g><path fill="#272b2b" d="M11 19s0 1.5 1.5 1.5S14 19 14 19v-1.5s0-1.5-1.5-1.5-1.5 1.5-1.5 1.5V19z"/></g><g><path fill="#272b2b" d="M22 19s0 1.5 1.5 1.5S25 19 25 19v-1.5s0-1.5-1.5-1.5-1.5 1.5-1.5 1.5V19z"/></g><g><path fill="#272b2b" d="M14.94 8.2C13.92 7.97 16.98 4.2 18 4.2s4.08 3.76 3.06 3.97c-1.02.2-5.1.2-6.12 0"/></g></g></g></g></svg>