<svg xmlns="http://www.w3.org/2000/svg" viewBox="0 0 45 45" enable-background="new 0 0 45 45"><defs><clipPath id="a"><path d="M0 36h36V0H0v36z"/></clipPath></defs><g><g><g clip-path="url(#a)" transform="matrix(1.25 0 0 -1.25 0 45)"><g><path fill="#ffac33" d="M22.88 2.9c-.1.18-.25.3-.42.4C20.86 5 22 7 22 7c0 .55 1 2 0 2l-1-1c-1-1-1-4-1-4h-2c-.55 0-1-.45-1-1s.45-1 1-1h1.1l-.2-.12c-.5-.26-.68-.87-.42-1.35.26-.5.87-.67 1.36-.4l2.64 1.42c.48.26.66.87.4 1.35"/></g><g><path fill="#ffac33" d="M15.88 2.9c-.1.18-.25.3-.42.4C13.86 5 15 7 15 7c0 .55 1 2 0 2l-1-1c-1-1-1-4-1-4h-2c-.55 0-1-.45-1-1s.45-1 1-1h1.1l-.2-.12c-.5-.26-.68-.87-.42-1.35.26-.5.87-.67 1.36-.4l2.64 1.42c.48.26.66.87.4 1.35"/></g><g><path fill="#be1931" d="M5.13 29c2-5-3-5-2-7s5 2 3 7-1 0-1 0"/></g><g><path fill="#ffac33" d="M7 30c0-1.1 1.93-2 0-2s-7 1-7 2 1.07 3 3 3 4-1.9 4-3"/></g><g><path fill="#c1694f" d="M6 15c0 6 3.2 13 1 13-4 0-4 1.8-4 4s1.8 4 4 4c7 0 6-9 4-13-1.67-3.35-2.02-8-5-8"/></g><g><path fill="#292f33" d="M36 19c0-7.96-5-11.3-10-11.25C23.97 5.95 21.07 5 18 5 11.37 5 6 9.84 6 15.8c0 5.96 5.37 10.8 12 10.8 3 2.7 7 6.5 10 7.4 6-3.6 8-7.8 8-15"/></g><g><path fill="#292f33" d="M7 33c0-.55-.45-1-1-1s-1 .45-1 1 .45 1 1 1 1-.45 1-1"/></g><g><path fill="#66757f" d="M17.98 26.6c-1.62 0-3.17-.3-4.58-.83 3.9.23 6.35.04 9.6-1.55-.92 1.5-3.4 2.38-5.02 2.38"/></g><g><path fill="#66757f" d="M35.93 21.16c-.1 1.28-.26 2.46-.52 3.55-6.24-1.26-3.4-3.53.53-3.53"/></g><g><path fill="#66757f" d="M33.94 28.4c-.67 1.14-1.54 2.2-2.62 3.17-7.16-3.57-3-4.73 2.62-3.18"/></g><g><path fill="#66757f" d="M35.15 13.9c-3.4 1.1-4.24-.8-2.2-3.4-2.5 2.34-4.04 1.06-3.36-2-1.47 2.2-2.97.2-3.6-.75 3.76-.04 7.52 1.84 9.15 6.17"/></g><g><path fill="#66757f" d="M31.32 31.58c-.94.85-2.03 1.65-3.32 2.42-7-3.7-2-4.4 3.32-2.42"/></g><g><path fill="#66757f" d="M35.15 13.92c.54 1.42.85 3.1.85 5.08 0 .76-.03 1.47-.07 2.16-4.6-.38-3.8-2.88 0-3.35-3.55-.05-4.18-2.24-.78-3.88"/></g><g><path fill="#66757f" d="M33.94 28.38c-6.42-2.38-3.7-4.3 1.47-3.67-.32 1.36-.8 2.57-1.46 3.68"/></g></g></g></g></svg>