<?xml version="1.0" encoding="UTF-8" standalone="no"?><svg xmlns:dc="http://purl.org/dc/elements/1.1/" xmlns:cc="http://creativecommons.org/ns#" xmlns:rdf="http://www.w3.org/1999/02/22-rdf-syntax-ns#" xmlns:svg="http://www.w3.org/2000/svg" xmlns="http://www.w3.org/2000/svg" viewBox="0 0 45 45" style="enable-background:new 0 0 45 45;" xml:space="preserve" version="1.1" id="svg2"><metadata id="metadata8"><rdf:RDF><cc:Work rdf:about=""><dc:format>image/svg+xml</dc:format><dc:type rdf:resource="http://purl.org/dc/dcmitype/StillImage"/></cc:Work></rdf:RDF></metadata><defs id="defs6"><clipPath id="clipPath16" clipPathUnits="userSpaceOnUse"><path id="path18" d="M 0,36 36,36 36,0 0,0 0,36 Z"/></clipPath></defs><g transform="matrix(1.25,0,0,-1.25,0,45)" id="g10"><g id="g12"><g clip-path="url(#clipPath16)" id="g14"><g transform="translate(23.6523,15.0986)" id="g20"><path id="path22" style="fill:#292f33;fill-opacity:1;fill-rule:nonzero;stroke:none" d="m 0,0 c 3.435,0.239 7.375,0.896 8.714,1.938 1.897,1.479 3.65,9.805 3.488,14.08 -0.045,1.174 -0.661,2.411 -2.23,2.41 -0.204,0 -0.425,-0.021 -0.663,-0.066 -3.025,-0.57 -8.705,-4.695 -13.541,-10.81 0.32,1.373 0.559,2.181 -0.006,2.559 l 2.656,4.827 c 0.137,0.25 0.046,0.564 -0.204,0.702 -0.251,0.137 -0.564,0.047 -0.702,-0.203 l -2.74,-4.98 c -0.016,-0.03 -0.019,-0.063 -0.029,-0.095 -0.122,0.007 -0.253,0.011 -0.395,0.011 -0.142,0 -0.273,-0.004 -0.395,-0.011 -0.01,0.032 -0.013,0.065 -0.03,0.095 l -2.739,4.98 c -0.138,0.25 -0.452,0.34 -0.703,0.203 -0.25,-0.138 -0.34,-0.452 -0.203,-0.702 l 2.656,-4.827 C -7.632,9.734 -7.393,8.926 -7.072,7.552 c -4.837,6.115 -10.516,10.24 -13.542,10.81 -0.237,0.045 -0.458,0.066 -0.662,0.067 -1.569,0 -2.186,-1.237 -2.23,-2.411 -0.162,-4.275 1.589,-12.601 3.487,-14.08 1.339,-1.042 5.28,-1.699 8.714,-1.938 -6.681,-1.021 -11.001,-4.801 -8.445,-9.627 1.466,-2.769 4.012,-4.034 6.156,-4.034 1.052,0 2.007,0.304 2.69,0.884 1.549,1.313 3.357,4.579 4.177,6.664 0.383,-2.092 1.075,-2.796 1.075,-2.796 0,0 0.692,0.704 1.074,2.796 0.82,-2.085 2.629,-5.351 4.178,-6.664 0.682,-0.58 1.637,-0.884 2.689,-0.884 2.145,0 4.69,1.265 6.156,4.034 C 11.001,-4.801 6.682,-1.021 0,0"/></g><g transform="translate(22.6201,4.7744)" id="g24"><path id="path26" style="fill:#78c5ed;fill-opacity:1;fill-rule:nonzero;stroke:none" d="M 0,0 0.662,4.273 C 0.683,4.404 0.651,4.539 0.575,4.647 l -3.976,5.1 -0.032,-10e-4 c 0,0 -0.111,-2.51 0.354,-4.022 0.612,-1.992 1.751,-4.263 3.001,-5.878 C -0.042,-0.126 -0.013,-0.082 0,0"/></g><g transform="translate(25.5273,8.4141)" id="g28"><path id="path30" style="fill:#78c5ed;fill-opacity:1;fill-rule:nonzero;stroke:none" d="m 0,0 -1.378,-0.281 c -0.134,-0.028 -0.234,-0.132 -0.254,-0.262 l -0.593,-4.124 c 0.163,-0.168 0.326,-0.334 0.489,-0.473 0.421,-0.357 1.276,-0.646 2.015,-0.678 l 0.113,5.506 C 0.397,-0.111 0.205,0.041 0,0"/></g><g transform="translate(26.835,7.4297)" id="g32"><path id="path34" style="fill:#78c5ed;fill-opacity:1;fill-rule:nonzero;stroke:none" d="m 0,0 c -0.42,-0.149 -0.086,-3.884 -0.006,-4.722 0.89,0.225 1.81,0.788 2.649,1.802 C 1.821,-1.89 0.217,0.078 0,0"/></g><g transform="translate(26.8477,8.6543)" id="g36"><path id="path38" style="fill:#78c5ed;fill-opacity:1;fill-rule:nonzero;stroke:none" d="m 0,0 c -0.003,-0.15 0.058,-0.295 0.165,-0.4 l 3.04,-2.951 c 0.153,0.236 0.304,0.482 0.447,0.753 0.374,0.706 0.569,1.385 0.591,2.034 C 2.947,0.052 0.483,1.207 0.297,1.177 0.043,1.136 0,0 0,0"/></g><g transform="translate(27.0859,10.4727)" id="g40"><path id="path42" style="fill:#78c5ed;fill-opacity:1;fill-rule:nonzero;stroke:none" d="m 0,0 3.894,-1.373 c -0.086,0.319 -0.219,0.63 -0.4,0.931 C 2.729,0.828 1.261,1.99 -0.69,2.817 L -0.367,0.443 C -0.339,0.238 -0.196,0.066 0,0"/></g><g transform="translate(26.1113,9.6699)" id="g44"><path id="path46" style="fill:#78c5ed;fill-opacity:1;fill-rule:nonzero;stroke:none" d="M 0,0 -0.617,3.965 C -2.16,4.498 -3.949,4.827 -5.904,4.863 L -1.65,-0.42 C -1.317,-0.815 0.1,-0.524 0,0"/></g><g transform="translate(12.7173,9.0479)" id="g48"><path id="path50" style="fill:#78c5ed;fill-opacity:1;fill-rule:nonzero;stroke:none" d="M 0,0 0.663,-4.273 C 0.675,-4.355 0.705,-4.399 0.741,-4.428 1.99,-2.813 3.129,-0.541 3.742,1.45 4.207,2.963 4.096,5.473 4.096,5.473 L 4.064,5.474 0.087,0.374 C 0.011,0.266 -0.02,0.131 0,0"/></g><g transform="translate(11.7842,8.0488)" id="g52"><path id="path54" style="fill:#78c5ed;fill-opacity:1;fill-rule:nonzero;stroke:none" d="M 0,0 -1.317,0.281 C -1.514,0.323 -1.698,0.17 -1.692,-0.03 l 0.105,-5.423 c 0.739,0.034 1.591,0.322 2.012,0.679 0.129,0.109 0.258,0.246 0.387,0.375 L 0.243,-0.261 C 0.225,-0.131 0.128,-0.027 0,0"/></g><g transform="translate(9.166,7.2129)" id="g56"><path id="path58" style="fill:#78c5ed;fill-opacity:1;fill-rule:nonzero;stroke:none" d="M 0,0 C -0.209,0.074 -1.767,-1.839 -2.546,-2.816 -1.733,-3.758 -0.85,-4.289 0.006,-4.505 0.084,-3.688 0.4,-0.144 0,0"/></g><g transform="translate(9.0937,8.5527)" id="g60"><path id="path62" style="fill:#78c5ed;fill-opacity:1;fill-rule:nonzero;stroke:none" d="m 0,0 c 0,0 -0.041,1.08 -0.282,1.119 -0.184,0.029 -2.705,-1.157 -3.89,-1.721 0.044,-0.606 0.231,-1.238 0.579,-1.894 0.147,-0.279 0.301,-0.533 0.459,-0.775 l 2.977,2.89 C -0.054,-0.281 0.003,-0.143 0,0"/></g><g transform="translate(9.0156,10.8086)" id="g64"><path id="path66" style="fill:#78c5ed;fill-opacity:1;fill-rule:nonzero;stroke:none" d="m 0,0 0.323,2.368 c -1.82,-0.818 -3.188,-1.933 -3.919,-3.146 -0.18,-0.3 -0.312,-0.61 -0.398,-0.928 l 3.645,1.286 C -0.162,-0.357 -0.026,-0.195 0,0"/></g><g transform="translate(10.0293,9.3027)" id="g68"><path id="path70" style="fill:#78c5ed;fill-opacity:1;fill-rule:nonzero;stroke:none" d="m 0,0 0.893,-0.248 c 0.111,-0.03 0.229,0.01 0.298,0.102 L 5.479,5.223 C 3.599,5.161 1.879,4.826 0.392,4.303 L -0.224,0.346 C -0.248,0.19 -0.151,0.042 0,0"/></g><g transform="translate(20.2734,16.1016)" id="g72"><path id="path74" style="fill:#78c5ed;fill-opacity:1;fill-rule:nonzero;stroke:none" d="m 0,0 c 0.205,0.001 0.423,0.003 0.666,0.003 2.249,0 4.426,0.477 6.456,0.833 1.856,0.325 3.158,1.126 3.719,1.562 0.4,0.312 1.132,1.249 1.69,2.562 L 3.195,4.025 C 2.443,3.92 0.865,1.64 0,0"/></g><g transform="translate(25.3359,22.8335)" id="g76"><path id="path78" style="fill:#78c5ed;fill-opacity:1;fill-rule:nonzero;stroke:none" d="m 0,0 c -0.834,-0.958 -1.117,-1.506 -1.117,-1.506 -0.154,-0.179 -0.014,-0.454 0.221,-0.431 1.347,0.131 6.965,0.665 8.615,0.821 0.052,0.155 0.107,0.308 0.153,0.47 0.278,0.978 0.541,2.024 0.765,3.084 L 2.112,1.787 C 1.583,1.687 0.833,0.958 0,0"/></g><g transform="translate(30.4102,28.0283)" id="g80"><path id="path82" style="fill:#78c5ed;fill-opacity:1;fill-rule:nonzero;stroke:none" d="m 0,0 -2.221,-2.174 c -0.154,-0.179 -0.017,-0.455 0.218,-0.431 1.034,0.101 5.177,0.571 5.721,0.632 0.168,0.887 0.303,1.773 0.386,2.632 L 0.759,0.326 C 0.499,0.298 0.171,0.197 0,0"/></g><g transform="translate(26.6035,25.3389)" id="g84"><path id="path86" style="fill:#78c5ed;fill-opacity:1;fill-rule:nonzero;stroke:none" d="m 0,0 c 0.188,0.22 0.252,0.521 0.171,0.798 l -0.579,1.783 c -0.005,0.014 -0.012,0.018 -0.017,0.03 -2.274,-1.997 -4.538,-4.429 -6.316,-6.761 -0.228,-1.513 -0.586,-3.846 -0.717,-5.064 0.034,-0.004 0.082,-0.005 0.121,-0.008 0.622,1.06 2.399,3.755 4.007,5.696 C -1.622,-1.464 0,0 0,0"/></g><g transform="translate(27.3115,26.6519)" id="g88"><path id="path90" style="fill:#78c5ed;fill-opacity:1;fill-rule:nonzero;stroke:none" d="m 0,0 c 0.073,-0.227 0.364,-0.287 0.524,-0.11 l 1.943,1.905 c 0.091,0.101 0.105,0.249 0.036,0.366 0,0 -0.38,0.699 -0.66,1.478 C 1.051,3.098 0.235,2.467 -0.585,1.773 -0.584,1.738 -0.592,1.703 -0.577,1.668 -0.427,1.309 -0.168,0.523 0,0"/></g><g transform="translate(32.9072,31.5425)" id="g92"><path id="path94" style="fill:#ffffff;fill-opacity:1;fill-rule:nonzero;stroke:none" d="M 0,0 C 0.083,-0.296 0.458,-0.45 0.837,-0.344 1.217,-0.237 1.456,0.09 1.373,0.386 1.289,0.683 0.914,0.836 0.535,0.73 0.156,0.623 -0.083,0.296 0,0"/></g><g transform="translate(33.0869,29.7959)" id="g96"><path id="path98" style="fill:#ffffff;fill-opacity:1;fill-rule:nonzero;stroke:none" d="m 0,0 c 0.036,-0.274 0.282,-0.451 0.701,-0.396 0.42,0.055 0.854,0.321 0.818,0.595 C 1.483,0.473 0.991,0.65 0.571,0.595 0.152,0.541 -0.036,0.274 0,0"/></g><g transform="translate(30.1582,29.8921)" id="g100"><path id="path102" style="fill:#ffffff;fill-opacity:1;fill-rule:nonzero;stroke:none" d="m 0,0 c 0.207,-0.511 0.693,-0.915 1.333,-0.657 0.64,0.259 1.19,1.081 0.983,1.593 C 2.11,1.447 1.226,1.453 0.586,1.194 -0.054,0.936 -0.206,0.511 0,0"/></g><g transform="translate(12.4326,19.8901)" id="g104"><path id="path106" style="fill:#78c5ed;fill-opacity:1;fill-rule:nonzero;stroke:none" d="m 0,0 -9.158,0.979 c 0.546,-1.213 1.23,-2.072 1.611,-2.369 0.56,-0.437 1.863,-1.237 3.719,-1.563 2.03,-0.355 4.203,-0.691 6.453,-0.691 0.347,0 0.647,-0.029 0.916,-0.06 L 0.675,-0.355 C 0.503,-0.155 0.262,-0.028 0,0"/></g><g transform="translate(11.1851,21.3516)" id="g108"><path id="path110" style="fill:#78c5ed;fill-opacity:1;fill-rule:nonzero;stroke:none" d="m 0,0 -2.557,2.943 c -0.172,0.198 -0.412,0.323 -0.672,0.35 L -9.157,3.917 C -8.934,2.858 -8.671,1.813 -8.393,0.836 -8.347,0.673 -8.292,0.519 -8.239,0.364 -6.673,0.208 -1.558,-0.301 -0.221,-0.431 0.014,-0.454 0.155,-0.178 0,0"/></g><g transform="translate(6.9761,26.0986)" id="g112"><path id="path114" style="fill:#78c5ed;fill-opacity:1;fill-rule:nonzero;stroke:none" d="M 0,0 -1.74,1.982 C -1.912,2.18 -2.24,2.281 -2.499,2.309 L -5.49,2.591 C -5.413,1.792 -5.292,0.972 -5.14,0.148 -4.007,0.009 -1.103,-0.344 -0.217,-0.431 0.018,-0.455 0.155,-0.178 0,0"/></g><g transform="translate(9.2261,26.1367)" id="g116"><path id="path118" style="fill:#78c5ed;fill-opacity:1;fill-rule:nonzero;stroke:none" d="M 0,0 C -0.082,-0.277 -0.018,-0.578 0.171,-0.798 L 7.473,-9.351 C 7.506,-9.39 7.533,-9.402 7.555,-9.396 7.393,-8.114 7.105,-6.236 6.911,-4.948 5.133,-2.616 2.87,-0.184 0.595,1.813 0.591,1.801 0.583,1.797 0.579,1.783 L 0,0 Z"/></g><g transform="translate(6.8921,30.0439)" id="g120"><path id="path122" style="fill:#78c5ed;fill-opacity:1;fill-rule:nonzero;stroke:none" d="m 0,0 -0.665,-1.124 c -0.069,-0.116 -0.054,-0.265 0.037,-0.365 l 1.661,-1.882 c 0.16,-0.177 0.451,-0.117 0.524,0.111 0.168,0.523 0.427,1.308 0.577,1.667 0.024,0.055 0.023,0.113 0.013,0.168 C 1.469,-0.861 0.796,-0.343 0.138,0.117 0.083,0.091 0.033,0.056 0,0"/></g><g transform="translate(5.8784,29.9092)" id="g124"><path id="path126" style="fill:#ffffff;fill-opacity:1;fill-rule:nonzero;stroke:none" d="m 0,0 c -0.2,-0.496 -0.887,-0.687 -1.534,-0.425 -0.647,0.261 -1.008,0.875 -0.808,1.371 0.2,0.496 0.886,0.686 1.533,0.425 C -0.162,1.11 0.2,0.496 0,0"/></g><g transform="translate(3.0928,31.5425)" id="g128"><path id="path130" style="fill:#ffffff;fill-opacity:1;fill-rule:nonzero;stroke:none" d="m 0,0 c -0.083,-0.296 -0.458,-0.45 -0.837,-0.344 -0.379,0.107 -0.619,0.434 -0.536,0.73 0.083,0.297 0.458,0.45 0.837,0.344 C -0.156,0.623 0.083,0.296 0,0"/></g><g transform="translate(2.9131,29.7959)" id="g132"><path id="path134" style="fill:#ffffff;fill-opacity:1;fill-rule:nonzero;stroke:none" d="m 0,0 c -0.036,-0.274 -0.405,-0.451 -0.824,-0.396 -0.42,0.055 -0.731,0.321 -0.695,0.595 0.036,0.274 0.405,0.451 0.825,0.396 C -0.275,0.541 0.036,0.274 0,0"/></g></g></g></g></svg>
