<svg xmlns="http://www.w3.org/2000/svg" viewBox="0 0 36 36"><path fill="#292F33" d="M23.652 20.901c3.434-.239 7.376-.895 8.714-1.938 1.898-1.479 3.65-9.804 3.488-14.079-.045-1.174-.661-2.411-2.23-2.41-.204 0-.425.021-.663.066-3.025.571-8.705 4.695-13.541 10.81.32-1.373.56-2.181-.006-2.559l2.656-4.827c.137-.25.046-.564-.204-.701-.25-.138-.563-.047-.701.203l-2.74 4.98c-.017.03-.02.063-.03.095-.122-.007-.253-.011-.395-.011-.142 0-.273.004-.395.01-.01-.032-.013-.064-.03-.095l-2.74-4.98c-.138-.25-.452-.341-.702-.203-.25.137-.341.451-.203.701l2.656 4.827c-.567.378-.327 1.186-.006 2.559C11.744 7.234 6.064 3.11 3.039 2.539c-.238-.045-.459-.066-.663-.066-1.569 0-2.186 1.236-2.23 2.41-.162 4.275 1.59 12.601 3.488 14.079 1.339 1.043 5.28 1.699 8.714 1.938-6.682 1.021-11.001 4.801-8.446 9.628 1.466 2.769 4.012 4.034 6.157 4.034 1.052 0 2.007-.304 2.69-.884 1.548-1.314 3.357-4.579 4.177-6.664C17.308 29.107 18 29.81 18 29.81s.692-.704 1.074-2.796c.82 2.085 2.629 5.35 4.177 6.664.683.58 1.638.884 2.69.884 2.144 0 4.691-1.265 6.157-4.034 2.555-4.826-1.764-8.606-8.446-9.627z"/><path d="M22.62 31.226l.663-4.273c.02-.131-.011-.265-.087-.374l-3.977-5.1-.032.001s-.111 2.51.354 4.022c.612 1.991 1.751 4.263 3.001 5.879.036-.029.065-.074.078-.155zm2.907-3.64l-1.378.281c-.133.027-.235.132-.253.261l-.593 4.124c.163.168.326.334.489.472.421.357 1.276.646 2.016.679l.112-5.506c.005-.2-.187-.353-.393-.311zm1.308.984c-.42.15-.086 3.884-.006 4.722.89-.225 1.81-.788 2.649-1.802-.822-1.03-2.426-2.997-2.643-2.92zm.013-1.224c-.003.15.057.295.165.4l3.04 2.951c.153-.236.303-.482.447-.753.374-.707.569-1.386.591-2.034-1.296-.616-3.76-1.771-3.947-1.741-.253.041-.296 1.177-.296 1.177zm.238-1.819l3.893 1.373c-.086-.319-.218-.629-.399-.93-.765-1.271-2.233-2.433-4.185-3.26l.324 2.374c.028.206.17.377.367.443zm-.975.803l-.616-3.965c-1.543-.533-3.333-.862-5.288-.898l4.254 5.283c.333.396 1.75.104 1.65-.42zm-13.394.622l.663 4.273c.013.082.042.126.078.155 1.249-1.616 2.389-3.887 3.001-5.879.465-1.513.354-4.022.354-4.022l-.032-.001-3.977 5.1c-.076.109-.107.243-.087.374zm-.933.999l-1.318-.281c-.196-.042-.38.111-.375.312l.105 5.422c.739-.034 1.591-.322 2.011-.679.129-.109.258-.246.387-.375l-.57-4.139c-.015-.128-.112-.233-.24-.26zm-2.618.837c-.209-.075-1.767 1.838-2.546 2.816.813.942 1.696 1.473 2.552 1.689.078-.818.394-4.363-.006-4.505zm-.072-1.341s-.04-1.08-.282-1.119c-.184-.03-2.706 1.157-3.891 1.721.044.607.232 1.238.579 1.895.148.279.302.532.459.774l2.978-2.89c.103-.1.16-.238.157-.381zm-.078-2.256l.323-2.368c-1.82.819-3.188 1.934-3.919 3.147-.18.3-.313.609-.399.927l3.646-1.286c.187-.062.322-.225.349-.42zm1.013 1.507l.893.247c.111.031.229-.01.299-.101l4.288-5.369c-1.88.062-3.601.397-5.088.921l-.615 3.956c-.024.155.072.304.223.346zm10.245-6.8c.205-.001.423-.003.666-.003 2.249 0 4.426-.478 6.456-.833 1.856-.325 3.159-1.126 3.719-1.562.401-.312 1.132-1.249 1.69-2.561l-9.335.935c-.754.104-2.331 2.384-3.196 4.024zm5.062-6.731c-.833.958-1.117 1.506-1.117 1.506-.155.178-.014.454.221.431 1.347-.131 6.966-.665 8.615-.822.053-.154.107-.307.153-.47.278-.978.541-2.024.765-3.083l-6.525.651c-.529.099-1.279.828-2.112 1.787zm5.074-5.195l-2.22 2.174c-.155.178-.018.455.217.432 1.034-.102 5.177-.571 5.721-.633.168-.887.302-1.772.386-2.632l-3.345.333c-.26.028-.588.129-.759.326zm-3.807 2.689c.188-.22.253-.52.171-.798l-.579-1.783c-.004-.014-.012-.018-.016-.031-2.274 1.997-4.538 4.43-6.316 6.762-.228 1.513-.586 3.846-.717 5.064.034.004.082.005.121.008.622-1.06 2.399-3.754 4.007-5.695 1.707-2.063 3.329-3.527 3.329-3.527zm.708-1.313c.073.227.364.287.524.11l1.942-1.905c.091-.101.106-.249.037-.366 0 0-.381-.699-.661-1.478-.791.542-1.607 1.172-2.427 1.866.001.036-.007.071.008.106.151.359.41 1.144.577 1.667z" fill="#78C5ED"/><ellipse transform="rotate(-15.705 33.588 4.264)" fill="#FFF" cx="33.594" cy="4.264" rx=".713" ry=".558"/><path fill="#FFF" d="M33.087 6.204c.036.274.282.451.702.396.419-.055.853-.321.817-.595-.036-.274-.528-.451-.947-.396-.42.055-.608.321-.572.595zm-2.928-.096c.206.511.693.915 1.333.657s1.19-1.081.983-1.592c-.206-.511-1.091-.517-1.731-.259-.64.258-.792.683-.585 1.194z"/><path fill="#78C5ED" d="M12.432 16.11l-9.158-.979c.546 1.214 1.23 2.072 1.612 2.369.56.436 1.863 1.238 3.719 1.562 2.03.355 4.204.692 6.452.692.348 0 .648.029.916.059l-2.865-3.348c-.172-.2-.413-.327-.676-.355zm-1.247-1.461l-2.557-2.943c-.172-.198-.412-.323-.672-.35l-5.928-.624c.224 1.059.486 2.104.764 3.081.046.163.101.317.154.472 1.566.156 6.682.665 8.018.795.235.023.376-.253.221-.431zM6.976 9.901l-1.74-1.982c-.171-.197-.5-.298-.759-.326l-2.991-.282c.078.798.198 1.619.35 2.443 1.133.139 4.038.492 4.923.58.235.022.372-.255.217-.433zm2.25-.038c-.082.278-.018.578.171.798l7.302 8.553c.033.039.06.051.082.045-.162-1.283-.45-3.16-.644-4.448-1.778-2.332-4.041-4.765-6.316-6.762-.004.013-.012.017-.016.031l-.579 1.783zM6.892 5.956l-.665 1.123c-.069.117-.054.266.037.366l1.661 1.881c.16.177.451.117.524-.11.168-.523.427-1.308.577-1.668.024-.054.023-.112.013-.167-.678-.564-1.351-1.082-2.009-1.542-.055.026-.105.061-.138.117z"/><ellipse transform="rotate(-68.013 4.707 5.618)" fill="#FFF" cx="4.707" cy="5.618" rx=".969" ry="1.263"/><ellipse transform="rotate(-74.295 2.406 4.264)" fill="#FFF" cx="2.406" cy="4.264" rx=".558" ry=".713"/><ellipse transform="rotate(-82.536 2.154 6.105)" fill="#FFF" cx="2.154" cy="6.104" rx=".5" ry=".766"/></svg>