<svg xmlns="http://www.w3.org/2000/svg" viewBox="0 0 45 45" enable-background="new 0 0 45 45"><defs><clipPath id="a"><path d="M0 36h36V0H0v36z"/></clipPath></defs><g><g><g clip-path="url(#a)" transform="matrix(1.25 0 0 -1.25 0 45)"><g><path fill="#292f33" d="M5 20c0 4-5 3-4-1s3-5 3-5l1 6z"/></g><g><path fill="#292f33" d="M31 20c0 4 5 3 4-1s-3-5-3-5l-1 6z"/></g><g><path fill="#292f33" d="M32.65 14.26C32.65 3.36 27.95.18 18 .18 8.04.18 3.35 3.38 3.35 14.26c0 10.9 4.7 21.42 14.65 21.42 9.96 0 14.65-10.52 14.65-21.42"/></g><g><path fill="#66757f" d="M27.57 13c1.5 4.46 2.1 7.3-.45 7.3H8.88c-2.54 0-1.94-2.84-.45-7.3C3.5 1.8 17.17 1.18 18 1.18c.83 0 14.3 1.06 9.57 11.82"/></g><g><path fill="#292f33" d="M15 18c0-1.1-.9-2-2-2s-2 .9-2 2 .9 1 2 1 2 .1 2-1"/></g><g><path fill="#292f33" d="M25 18c0-1.1-.9-2-2-2s-2 .9-2 2 .9 1 2 1 2 .1 2-1"/></g><g><path fill="#292f33" d="M17 12.34c0-.55-.64-1-1.43-1-.8 0-1.43.45-1.43 1 0 .56.64 1 1.43 1 .8 0 1.43-.44 1.43-1"/></g><g><path fill="#292f33" d="M21.86 12.34c0-.55-.64-1-1.43-1-.8 0-1.43.45-1.43 1 0 .56.64 1 1.43 1 .8 0 1.43-.44 1.43-1"/></g><g><path fill="#99aab5" d="M21.02 14.96c-1.97.26-3.02-.83-3.02-.83s-1.06 1.1-3.02.83c-3.16-.42-3.3-3.3-1.94-3.1.77.1.14.93 1.7 1.55 1.6.63 3.26-.65 3.26-.65s1.67 1.28 3.25.66c1.58-.6.94-1.44 1.7-1.55 1.36-.18 1.23 2.7-1.93 3.1"/></g><g><path fill="#292f33" d="M24.84 5.98c-1.2-.32-3.2-.6-6.84-.6-3.63 0-5.63.28-6.83.6-3.2.85-1.93 1.73 0 1.48 1.92-.26 3.63-.42 6.83-.42s4.9.16 6.83.42c1.93.25 3.2-.63 0-1.48"/></g><g><path fill="#66757f" d="M4.25 19.38c1.4 1.22-1.07 3.76-2.2 2.54-.33-.37.93.2 1.34-1.1.3-.93 0-2.2.85-1.44"/></g><g><path fill="#66757f" d="M31.75 19.38c-1.4 1.22 1.07 3.76 2.2 2.54.33-.37-.93.2-1.34-1.1-.3-.93 0-2.2-.85-1.44"/></g></g></g></g></svg>