<svg xmlns="http://www.w3.org/2000/svg" viewBox="0 0 45 45" enable-background="new 0 0 45 45"><defs><clipPath id="a"><path d="M0 36h36V0H0v36z"/></clipPath></defs><g><g><g clip-path="url(#a)" transform="matrix(1.25 0 0 -1.25 0 45)"><g><path fill="#3e721d" d="M15.66 29.16c.48 2.03.38 3.14-.55 3.67-.93.54.34 2.67 1.98.8 1.64-1.88 1.43-3.62.66-4.86-.76-1.23-2.33-.66-2.08.4"/></g><g><path fill="#3e721d" d="M15.18 26.2c-.92-1.87-1.7-2.66-2.76-2.48-1.07.18-1.44-2.27 1.02-1.87 2.46.4 3.4 1.88 3.6 3.33.2 1.44-1.4 2-1.86 1.02"/></g><g><path fill="#3e721d" d="M26.52 19.94c-2.08 1.38-5.4-1.43-5.7-2.28-.32-.85 1.72-3.46 1.14-4.94-.58-1.47 1.14-1.76 1.92-.5.78 1.3.3 3.63.16 4.18-.15.56 2.2 1.22 3.67.04 1.5-1.18-.3 2.92-1.18 3.5"/></g><g><path fill="#3e721d" d="M27.58 20.76c-1.54 1.95.98 5.48 1.8 5.87.82.4 2.57-.4 4 .3 1.42.7 1.74-.86.64-1.88-1.22-1.14-2.24-1.33-3.1-1.52-.58-.12-.05-2.04-.02-3.97.02-1.8-2.67.38-3.32 1.2"/></g><g><path fill="#3e721d" d="M15.32 32.83c0-.4-.32-.72-.72-.72-.4 0-.73.33-.73.73 0 .4.33.73.73.73.4 0 .72-.33.72-.73"/></g><g><path fill="#3e721d" d="M12.32 23.94c0-.4-.32-.73-.72-.73-.4 0-.73.34-.73.74 0 .4.33.72.73.72.4 0 .72-.32.72-.72"/></g><g><path fill="#3e721d" d="M12.02 22.26c0-.4-.32-.72-.72-.72-.4 0-.73.32-.73.72 0 .4.33.72.73.72.4 0 .72-.32.72-.72"/></g><g><path fill="#3e721d" d="M13.47 21.54c0-.4-.32-.73-.72-.73-.4 0-.73.34-.73.74 0 .4.33.72.73.72.4 0 .72-.32.72-.72"/></g><g><path fill="#3e721d" d="M22.04 12.7c.13-.4-.07-.8-.45-.93-.4-.13-.8.07-.93.45s.08.8.45.92c.38.13.8-.08.92-.45"/></g><g><path fill="#3e721d" d="M22.82 11.42c.12-.38-.08-.8-.46-.92-.37-.13-.78.07-.9.45-.14.38.06.8.44.92.38.13.8-.07.92-.45"/></g><g><path fill="#3e721d" d="M24.44 11.66c.13-.38-.07-.8-.45-.92-.38-.13-.8.07-.93.45-.12.37.08.78.45.9.38.14.8-.06.92-.44"/></g><g><path fill="#3e721d" d="M34.25 27.4c0-.4-.33-.7-.73-.7-.4 0-.72.3-.72.7 0 .4.32.74.72.74.4 0 .73-.33.73-.73"/></g><g><path fill="#3e721d" d="M35.75 26.7c0-.4-.32-.74-.72-.74-.4 0-.73.33-.73.73 0 .4.33.7.73.7.4 0 .72-.3.72-.7"/></g><g><path fill="#3e721d" d="M35.4 24.97c0-.4-.32-.72-.72-.72-.4 0-.72.32-.72.72 0 .4.32.72.72.72.4 0 .72-.33.72-.73"/></g><g><path fill="#3e721d" d="M15.5 34.38c0-.4-.3-.72-.7-.72-.4 0-.74.32-.74.72 0 .4.33.73.73.73.4 0 .7-.32.7-.72"/></g><g><path fill="#3e721d" d="M17.08 34.85c0-.4-.32-.72-.72-.72-.4 0-.72.32-.72.72 0 .4.32.72.72.72.4 0 .72-.32.72-.72"/></g><g><path fill="#3e721d" d="M.2 30.35c.27 1.05 4.66 4.72 8.65 4.03 2.02-.35 2.94-3.35 5.1-3.43 11.3-.4 22.27-11.13 18.85-21.4-1.5-4.5-5.62-8.78-15.46-5-1.96.77-3.97 2-7.83 1.24-2.84-.57-3.14-3.17-2.8-4.5C7 .23 6.56-.3 6 .52 4.8 2.4 4.7 4.88 6.66 6.5c3.9 3.2 9.25 1.27 13.14.05 6.47-2.05 9.9 3.65 6.34 10.3-3.5 6.55-9.82 8.34-14 8.83-1.18.14-3.65-2.05-5.38-1.74-3.62.64-6.74 5.64-6.55 6.4"/></g><g><path fill="#77b255" d="M.2 30.35c.27 1.05 4.66 4.72 8.65 4.03 2.02-.35 2.94-3.35 5.1-3.43 11.3-.4 22.27-11.13 18.85-21.4-1.5-4.5-5.62-8.78-15.46-5-1.96.77-3.97 2-7.83 1.24-2.84-.57-3.14-3.17-2.8-4.5.14-.52.1-.9-.03-1.08-.92 1.28-1.36 4.34.66 5.86 3.54 2.67 8.57.13 13.3-1.04 10.26-2.54 12.2 8 7.9 14.88C23.37 28.26 7 30.25.22 30.35"/></g><g><path fill="#292f33" d="M8 33c0-.55-.45-1-1-1s-1 .45-1 1 .45 1 1 1 1-.45 1-1"/></g><g><path fill="#292f33" d="M7 26c0-.55-.45-1-1-1s-1 .45-1 1 .45 1 1 1 1-.45 1-1"/></g></g></g></g></svg>