<svg xmlns="http://www.w3.org/2000/svg" viewBox="0 0 45 45" enable-background="new 0 0 45 45"><defs><clipPath id="a"><path d="M0 36h36V0H0v36z"/></clipPath></defs><g><g><g clip-path="url(#a)" transform="matrix(1.25 0 0 -1.25 0 45)"><g><path fill="#a0041e" d="M6.96 15.36c.07-.64-.54-1.22-1.37-1.3-.83-.1-1.55.35-1.62.98-.07.64.54 1.23 1.37 1.32.82.1 1.54-.36 1.6-1"/></g><g><path fill="#a0041e" d="M9.05 12.65c.12-.82-1.76-2.55-2.58-2.67-.82-.13-1.58.43-1.7 1.25-.13.82.57 1.14 1.4 1.27.8.12 2.75.96 2.88.15"/></g><g><path fill="#a0041e" d="M10.83 10.54c.17-.8-1.63-3.92-2.44-4.1-.82-.17-1.65-.14-1.82.67-.18.82.3 1.7 1.1 1.87.82.17 2.98 2.38 3.15 1.57"/></g><g><path fill="#a0041e" d="M14.68 9.68c.17-.8-1.33-4.35-2.15-4.52-.8-.16-1.44-.45-1.6.37-.17.8.26 1.97 1 2.58.65.53 2.6 2.4 2.75 1.58"/></g><g><path fill="#a0041e" d="M3.93 17.13c.6-.7 1.18-1.23.46-1.83-.73-.6-1.76-.17-2.36.55-.6.7-2.24 3.42-1.53 4.02.73.6 2.82-2.02 3.43-2.74"/></g><g><path fill="#a0041e" d="M4.25 12.25c.9-.3 1.86-.8 1.57-1.7-.3-.88-1.33-.98-2.22-.7-.9.3-3.77 1.7-3.48 2.6.3.88 3.24.1 4.13-.2"/></g><g><path fill="#a0041e" d="M5.47 7.72c.9.25 1.9.28 2.16-.62.25-.9-.28-1.54-1.2-1.8-.9-.24-4.33-.7-4.58.2-.25.9 2.72 1.97 3.62 2.22"/></g><g><path fill="#a0041e" d="M9.82 4.53c.08.94.64 1.67 1.57 1.6.93-.1 1.25-1.04 1.17-1.97-.1-.94.14-3.57-1.72-4.02-.9-.22-1.12 3.46-1.03 4.4"/></g><g><path fill="#a0041e" d="M29.04 15.36c-.07-.64.54-1.22 1.37-1.3.83-.1 1.55.35 1.62.98.07.64-.54 1.23-1.37 1.32-.82.1-1.54-.36-1.6-1"/></g><g><path fill="#a0041e" d="M26.95 12.65c-.12-.82 1.76-2.55 2.58-2.67.82-.13 1.58.43 1.7 1.25.13.82-.57 1.14-1.4 1.27-.8.12-2.75.96-2.88.15"/></g><g><path fill="#a0041e" d="M25.17 10.54c-.17-.8 1.63-3.92 2.44-4.1.82-.17 1.65-.14 1.82.67.18.82-.3 1.7-1.1 1.87-.82.17-2.98 2.38-3.15 1.57"/></g><g><path fill="#a0041e" d="M21.32 9.68c-.17-.8 1.34-4.35 2.15-4.52.8-.16 1.44-.45 1.6.37.17.8-.26 1.97-1 2.58-.65.53-2.6 2.4-2.75 1.58"/></g><g><path fill="#a0041e" d="M32.08 17.13c-.6-.7-1.18-1.23-.47-1.83.73-.6 1.76-.17 2.36.55.6.7 2.24 3.42 1.53 4.02-.73.6-2.82-2.02-3.42-2.74"/></g><g><path fill="#a0041e" d="M31.75 12.25c-.9-.3-1.86-.8-1.57-1.7.3-.88 1.33-.98 2.22-.7.9.3 3.77 1.7 3.48 2.6-.3.88-3.24.1-4.13-.2"/></g><g><path fill="#a0041e" d="M30.53 7.72c-.9.25-1.9.28-2.16-.62-.25-.9.28-1.54 1.2-1.8.9-.24 4.33-.7 4.58.2.25.9-2.72 1.97-3.62 2.22"/></g><g><path fill="#a0041e" d="M26.18 4.53c-.08.94-.64 1.67-1.57 1.6-.93-.1-1.25-1.04-1.17-1.97.1-.94-.14-3.57 1.72-4.02.9-.22 1.12 3.46 1.03 4.4"/></g><g><path fill="#a0041e" d="M3.15 22.12c-.38.86 0 1.86.86 2.24.86.4 1.87 0 2.25-.85.38-.85 2.65-5.6 1.8-6-.86-.37-4.52 3.77-4.9 4.62"/></g><g><path fill="#a0041e" d="M4 23.97c1.2-2.96 8.33 3.34 8.8 6.28.46 2.94-.3 4.2-.7 4.5-.38.3.15-1.44-1.18-3.3C9.86 29.94 3.15 26 4 23.96"/></g><g><path fill="#a0041e" d="M32.85 22.12c.4.86 0 1.86-.86 2.24-.86.4-1.87 0-2.25-.85-.38-.85-2.65-5.6-1.8-6 .86-.37 4.52 3.77 4.9 4.62"/></g><g><path fill="#a0041e" d="M32 23.97c-1.22-2.96-8.33 3.34-8.8 6.28-.46 2.94.3 4.2.7 4.5.38.3-.15-1.44 1.18-3.3 1.06-1.5 7.77-5.44 6.93-7.48"/></g><g><path fill="#be1931" d="M6 14c0 2 2 10 12 10s12-8 12-10c-5-3-5.37-7-12-7s-6 4-12 7"/></g><g><path fill="#be1931" d="M4.32 23.78c-3.15-.55-.35 8.14 1.9 10.1 2.23 1.95 4.64 1.9 5.1 1.75.46-.17-1.17-2.6-1.75-4.18-.3-.8-3.07-7.3-5.25-7.67"/></g><g><path fill="#be1931" d="M31.68 23.78c3.15-.55.35 8.14-1.9 10.1-2.23 1.95-4.64 1.9-5.1 1.75-.46-.17 1.17-2.6 1.75-4.18.3-.8 3.07-7.3 5.25-7.67"/></g><g><path fill="#a0041e" d="M17.03 23.86c.34-1.34-.04-1.58-.85-1.8-.8-.2-1.72-.26-2.06 1.08-.33 1.34.05 2.58.85 2.8.8.2 1.73-.74 2.06-2.08"/></g><g><path fill="#a0041e" d="M21.88 23.14c-.34-1.34-1.26-1.27-2.06-1.06-.8.2-1.2.44-.85 1.78.33 1.34 1.26 2.27 2.06 2.07.8-.2 1.18-1.45.85-2.8"/></g><g><path fill="#292f33" d="M16 26.5c0-.83-.67-1.5-1.5-1.5s-1.5.67-1.5 1.5.67 1.5 1.5 1.5 1.5-.67 1.5-1.5"/></g><g><path fill="#292f33" d="M23 26.5c0-.83-.67-1.5-1.5-1.5s-1.5.67-1.5 1.5.67 1.5 1.5 1.5 1.5-.67 1.5-1.5"/></g><g><path fill="#dd2e44" d="M9.05 14.47c-.14-.23-3.05-.73-2.3.73s2.44-.5 2.3-.73"/></g><g><path fill="#dd2e44" d="M9.9 15.88c-.23-.23-3.2-.4-1.93 1.4 1.26 1.8 2.23-1.08 1.92-1.4"/></g><g><path fill="#dd2e44" d="M11.66 17.34c-.38-.23-3.47.5-1.4 1.93 1.86 1.3 1.9-1.62 1.4-1.93"/></g><g><path fill="#dd2e44" d="M14.1 18.57c-1-.3-3.38 1.3-.88 2.14 2.5.85 1.9-1.83.88-2.13"/></g><g><path fill="#dd2e44" d="M26.86 14.47c.14-.23 3.05-.73 2.3.73s-2.44-.5-2.3-.73"/></g><g><path fill="#dd2e44" d="M26.02 15.88c.22-.23 3.2-.4 1.92 1.4-1.27 1.8-2.23-1.08-1.92-1.4"/></g><g><path fill="#dd2e44" d="M24.25 17.34c.38-.23 3.47.5 1.4 1.93-1.86 1.3-1.9-1.62-1.4-1.93"/></g><g><path fill="#dd2e44" d="M21.8 18.57c1.02-.3 3.4 1.3.9 2.14-2.5.85-1.9-1.83-.9-2.13"/></g><g><path fill="#a0041e" d="M26.85 19.75c0-.4-2.2 2.25-8.85 2.25-6.66 0-8.85-2.66-8.85-2.25 0 .4 2.76 3.75 8.85 3.75 6.1 0 8.85-3.34 8.85-3.75"/></g><g><path fill="#dd2e44" d="M10.8 11.57c0 .4 1.78-2.25 7.2-2.25 5.43 0 7.2 2.66 7.2 2.25 0-.42-2.24-3.75-7.2-3.75s-7.2 3.33-7.2 3.75"/></g></g></g></g></svg>