<svg xmlns="http://www.w3.org/2000/svg" viewBox="0 0 45 45" enable-background="new 0 0 45 45"><defs><clipPath id="a"><path d="M0 36h36V0H0v36z"/></clipPath></defs><g><g><g clip-path="url(#a)" transform="matrix(1.25 0 0 -1.25 0 45)"><g><path fill="#ea596e" d="M31 25c0 6-13 11-13 11V11s13 8 13 14"/></g><g><path fill="#ea596e" d="M5 25c0 6 13 11 13 11V11S5 19 5 25"/></g><g><path fill="#f4abba" d="M27 25c0-3.83-9-12-9-12s-9 8.17-9 12c0 5 9 11 9 11s9-6 9-11"/></g><g><path fill="#be1931" d="M13 20.13c2.55-4.25-1.8-9.1-4.36-8.24-2.55.84-3.4-1.7-.85-2.56 2.54-.85 8.04.4 11.05 3.4.85.85 1.7.85 1.7.85L13 20.12z"/></g><g><path fill="#be1931" d="M23 20.13c-2.55-4.25 1.8-9.1 4.36-8.24 2.55.84 3.4-1.7.85-2.56-2.54-.85-8.04.4-11.05 3.4-.85.85-1.7.85-1.7.85L23 20.12z"/></g><g><path fill="#ea596e" d="M9 19c2.55-4.25-1.37-11.37-3.92-10.52-2.55.86-3.4-1.7-.85-2.55 2.55-.85 8.05.4 11.06 3.4.84.86 1.7.86 1.7.86L9 19z"/></g><g><path fill="#ea596e" d="M27 19c-2.56-4.25 1.36-11.37 3.9-10.52 2.56.86 3.4-1.7.86-2.55-2.55-.85-8.05.4-11.06 3.4-.85.86-1.7.86-1.7.86l8 8.8z"/></g><g><path fill="#f4abba" d="M30.92 3.65C28.6 2.88 24 9 25 15c2 5-4 7.48-4 9.98 0 6.1-2.03 9.74-3.03 9.74S15 31.1 15 24.98c0-2.5-6-4.98-4-9.98C12 9 7.4 2.88 5.08 3.65c-2.55.85-3.4-2.55-.85-3.4 2.55-.85 7.07.53 10.2 3.4C16.3 5.35 18 5.35 18 5.35s1.7 0 3.56-1.7C24.7.78 29.22-.6 31.76.25c2.56.85 1.7 4.25-.84 3.4"/></g><g><path fill="#292f33" d="M17 12.5c0-1.38-1.12-2.5-2.5-2.5S12 11.12 12 12.5s1.12 2.5 2.5 2.5 2.5-1.12 2.5-2.5"/></g><g><path fill="#292f33" d="M24 12.5c0-1.38-1.12-2.5-2.5-2.5S19 11.12 19 12.5s1.12 2.5 2.5 2.5 2.5-1.12 2.5-2.5"/></g></g></g></g></svg>