<svg xmlns="http://www.w3.org/2000/svg" viewBox="0 0 45 45" enable-background="new 0 0 45 45"><defs><clipPath id="a"><path d="M0 36h36V0H0v36z"/></clipPath><clipPath id="b"><path d="M2 27c-.56-.8-.48-4.67 3-6 1.3-.5 4.24-.17 7.02.15 1.84.22 3.62.43 4.8.4 3-.06 5.74-.94 8.62-2.54 2.8-1.54 4.52-5.92 4.45-7.54-.04-.8.16-1.4.6-1.77.8-.66 2.08-.35 3.02-.13.3.08.64.16.8.15l.3 1 .1.28c1.98 5.77.36 9.12-1.34 11.76-2.54 3.92-6.77 6.62-11.26 7.48-2.3.44-4.9.68-7.43.68C9.2 30.92 3.9 29.78 2 27"/></clipPath><clipPath id="c"><path d="M30.8 12.6c-.4-.15-.68-.43-.83-.8-.08-.2-.1-.44-.1-.7 0-.5-.12-1.1-.37-1.74-.52-1.32-1.54-2.8-2.62-3.78-.42-.38-.72-.8-.9-1.26-.32-.83-.16-1.68.4-2.13.44-.37 1.05-.38 1.58-.03.54.35.9.4 1.03.34.14-.05.27-.33.33-.75.22-1.37 1-1.6 1.35-1.66.7-.1 1.4.4 1.78 1.24l.05.12c.57 1.45 2.18 8.66 2.33 9.7.04.3-.1.57-.35.7-.33.17-1.76.86-2.94.86-.27 0-.52-.04-.75-.12"/></clipPath><clipPath id="d"><path d="M0 36h36V0H0v36z"/></clipPath></defs><g><g><g clip-path="url(#a)" transform="matrix(1.25 0 0 -1.25 0 45)"><g><path fill="#662113" d="M15.22 21.08c0-.55-.43-1-1-1-.54 0-1 .43-1 .98l-.03 4c-.02.56.43 1 .98 1 .55.02 1-.43 1-.98l.04-4z"/></g><g><path fill="#662113" d="M19.64 20.63c-.13-.53-.67-.86-1.2-.74-.54.12-.88.66-.75 1.2l.92 3.9c.13.53.67.86 1.2.73.54-.13.87-.67.74-1.2l-.92-3.9z"/></g><g><path fill="#662113" d="M23.64 19.12c-.25-.5-.85-.7-1.35-.44-.5.25-.7.85-.45 1.34l1.8 3.57c.25.48.86.68 1.35.43.5-.25.7-.85.44-1.34l-1.8-3.58z"/></g><g><path fill="#662113" d="M4.46 28.57c-4.53-.32-4.78 5.5 3.8 4.74 8.58-.76 17.96-3.4 20.22-1.78 1.8 1.28 1.4 3.6.96 4.08-.45.47-1.13.04-.8-.68.36-.73-.05-2.68-2.25-2.88-2.2-.2-10.4 1.35-15.58 2.08-5.3.74-9.53.38-10.46-2.58-.92-2.95 1.95-3.87 3.46-4.02 1.52-.14.64 1.05.64 1.05"/></g><g><path fill="#c16a4f" d="M33.38 22.75c1.7-2.63 3.32-5.98 1.34-11.75l-.1-.28-.3-1c-.16 0-.48-.07-.8-.15-.94-.23-2.23-.53-3.02.12-.44.35-.64.95-.6 1.76.06 1.62-1.66 6-4.46 7.55-2.88 1.6-5.6 2.5-8.63 2.56-2.93.06-9.64-1.4-11.8-.56-3.48 1.33-3.56 5.2-3 6 2.8 4.06 12.8 4.63 20.12 3.24 4.5-.86 8.72-3.56 11.26-7.5"/></g><g><path fill="#662113" d="M26.88 5.58c1.08.98 2.1 2.46 2.62 3.78.25.65.37 1.23.36 1.74 0 .26.03.5.1.7.16.37.6 1.15.83.8 1.67-2.5 3.27-.53 3.68-.74.25-.13.4-.4.35-.7-.15-1.04-1.76-8.25-2.33-9.7l-.04-.12C32.08.5 31.38 0 30.68.1c-.34.04-1.13.28-1.35 1.65-.06.4-.2.7-.34.76-.15.08-.5.02-1.04-.33-.53-.35-1.15-.34-1.6.02-.55.44-.7 1.3-.38 2.12.18.46.48.88.9 1.26"/></g></g></g><g><g clip-path="url(#b)" transform="matrix(1.25 0 0 -1.25 0 45)"><g><path fill="#662113" d="M24.32 18.7C22.4 21.43 6.72 13.6 2 23c3.72-1.7 10.63.86 16.54.33C30.4 22.27 30.74 13.2 30.8 12.4c-.53-5.8-6.48 6.3-6.48 6.3"/></g><g><path fill="#662113" d="M23.22 27.43c1.05 1.03 3.2 2.24 4.8 2.28 1.62.04-.37 2.3-2.08 1.48-1.13-.5-3.14-2.54-3.75-3.68-.62-1.15.13-.94 1.02-.07"/></g><g><path fill="#662113" d="M35.68 22.26c-2.3 1.22-5.32 3.23-7.5 2.14-2.2-1.08-.98.47.02 1.2 1.62 1.2 4.05.76 5.2-.3 1.13-1.04 2.28-3.04 2.28-3.04"/></g><g><path fill="#662113" d="M37.92 14.78c-1.73 1.93-3.9 4.86-6.32 4.6-2.43-.28-.76.76.44 1.1 1.93.58 4.06-.67 4.77-2.05.72-1.37 1.12-3.65 1.12-3.65"/></g></g></g><g><g clip-path="url(#c)" transform="matrix(1.25 0 0 -1.25 0 45)"><g><path fill="#292f33" d="M29.9.28c-1.68 2.3 2.18 7.97-3.4 1.48C24.55-1.06 29.9.28 29.9.28"/></g></g></g><g><g clip-path="url(#d)" transform="matrix(1.25 0 0 -1.25 0 45)"><g><path fill="#c16a4f" d="M6.08 29.3c-4.54 0-4.37 5.82 4.13 4.45 8.5-1.38 17.7-4.66 20.05-3.2 1.88 1.14 1.67 3.5 1.25 4-.42.5-1.12.12-.83-.63.3-.75-.25-2.67-2.46-2.7-2.2-.05-10.27 2.07-15.38 3.16-5.22 1.1-9.48 1.05-10.6-1.84-1.14-2.87 1.66-4 3.16-4.25 1.5-.26.7 1 .7 1"/></g><g><path fill="#292f33" d="M8 27c0-.55-.45-1-1-1s-1 .45-1 1 .45 1 1 1 1-.45 1-1"/></g><g><path fill="#c16a4f" d="M16.6 19.47c-.06-.54-.57-.93-1.1-.86-.56.08-.95.58-.88 1.12l.5 3.97c.07.54.57.93 1.12.86.55-.07.94-.57.87-1.12l-.5-3.97z"/></g><g><path fill="#c16a4f" d="M20.52 18.78c-.16-.53-.72-.82-1.25-.66-.53.16-.83.72-.66 1.24l1.18 3.83c.16.52.72.8 1.24.65.53-.16.83-.72.67-1.25l-1.18-3.82z"/></g><g><path fill="#c16a4f" d="M24.04 17.3c-.3-.47-.9-.62-1.38-.33-.47.3-.62.9-.33 1.38l2.1 3.4c.3.47.9.62 1.37.33.47-.3.62-.9.33-1.38l-2.1-3.4z"/></g></g></g></g></svg>