<svg xmlns="http://www.w3.org/2000/svg" viewBox="0 0 45 45" enable-background="new 0 0 45 45"><defs><clipPath id="a"><path d="M0 36h36V0H0v36z"/></clipPath></defs><g><g><path fill="#ffac33" d="M14.74 7.58v4.15L21.4 10l-3.66-2.5-3 .08z"/></g><g><g clip-path="url(#a)" transform="matrix(1.25 0 0 -1.25 0 45)"><g><path fill="#ffac33" d="M33.25 12.52c0 1.14.76 2.07 1.75 2.24V26.4c-4 .98-34-7.18-34-7.18V15.7c1.56-.3 2.75-1.67 2.75-3.33 0-1.65-1.2-3-2.75-3.3V1.34l34 6.48v2.45c-1 .17-1.75 1.1-1.75 2.24"/></g><g><path fill="#ffd983" d="M15.6 33.76l-3.86-3.85c.74-.16 1.26-.58 1.26-1.07 0-.64-.9-1.16-2-1.16-.47 0-.9.1-1.25.26L1 19.17c13.17 2.9 22.04 5.3 34.1 7.23-4.86 6.48-16.27 7.36-19.5 7.36"/></g><g><path fill="#ffac33" d="M20 30.83c0-.64-.9-1.16-2-1.16s-2 .52-2 1.16c0 .65.9 1.17 2 1.17s2-.52 2-1.17"/></g><g><path fill="#ffac33" d="M15.07 24.44c0-.98-1.36-1.77-3.03-1.77-1.68 0-3.04.8-3.04 1.77s1.36 1.77 3.04 1.77c1.67 0 3.03-.8 3.03-1.76"/></g><g><path fill="#ffac33" d="M29 27.65c0-1.1-1.52-1.98-3.4-1.98-1.87 0-3.4.88-3.4 1.98s1.53 1.98 3.4 1.98c1.88 0 3.4-.9 3.4-1.98"/></g><g><path fill="#f4900c" d="M33.63 20.38c0-1.33-.98-2.4-2.2-2.4-1.2 0-2.18 1.07-2.18 2.4 0 1.33.98 2.4 2.2 2.4 1.2 0 2.18-1.07 2.18-2.4"/></g><g><path fill="#f4900c" d="M11.38 15.52c0-1.26-.93-2.27-2.07-2.27-1.13 0-2.05 1-2.05 2.27 0 1.25.92 2.27 2.06 2.27 1.15 0 2.07-1.03 2.07-2.28"/></g><g><path fill="#f4900c" d="M28.53 10.54c-.5-.6-1.35-.72-1.9-.26-.55.45-.58 1.3-.08 1.92.5.6 1.36.72 1.9.26.55-.46.6-1.32.08-1.92"/></g><g><path fill="#f4900c" d="M18.85 17.92c-.68-.82-1.83-.97-2.57-.36-.73.62-.78 1.78-.1 2.6.68.8 1.83.96 2.56.34.74-.6.8-1.77.1-2.58"/></g><g><path fill="#f4900c" d="M19.72 7.9c-1.2-1.6-3.35-2.02-4.8-.93-1.46 1.1-1.67 3.27-.47 4.87s3.35 2.03 4.8.94c1.46-1.1 1.67-3.27.47-4.88"/></g></g></g></g></svg>