<?xml version="1.0" encoding="UTF-8" standalone="no"?><svg xmlns:dc="http://purl.org/dc/elements/1.1/" xmlns:cc="http://creativecommons.org/ns#" xmlns:rdf="http://www.w3.org/1999/02/22-rdf-syntax-ns#" xmlns:svg="http://www.w3.org/2000/svg" xmlns="http://www.w3.org/2000/svg" viewBox="0 0 45 45" style="enable-background:new 0 0 45 45;" xml:space="preserve" version="1.1" id="svg2"><metadata id="metadata8"><rdf:RDF><cc:Work rdf:about=""><dc:format>image/svg+xml</dc:format><dc:type rdf:resource="http://purl.org/dc/dcmitype/StillImage"/></cc:Work></rdf:RDF></metadata><defs id="defs6"><clipPath id="clipPath16" clipPathUnits="userSpaceOnUse"><path id="path18" d="M 0,36 36,36 36,0 0,0 0,36 Z"/></clipPath></defs><g transform="matrix(1.25,0,0,-1.25,0,45)" id="g10"><g id="g12"><g clip-path="url(#clipPath16)" id="g14"><g transform="translate(36,18)" id="g20"><path id="path22" style="fill:#ffcb4c;fill-opacity:1;fill-rule:nonzero;stroke:none" d="m 0,0 c 0,-9.941 -8.059,-18 -18,-18 -9.94,0 -18,8.059 -18,18 0,9.94 8.06,18 18,18 C -8.059,18 0,9.94 0,0"/></g><g transform="translate(14.8237,21.2896)" id="g24"><path id="path26" style="fill:#65471b;fill-opacity:1;fill-rule:nonzero;stroke:none" d="m 0,0 c 0,-2.047 -1.185,-3.706 -2.647,-3.706 -1.462,0 -2.647,1.659 -2.647,3.706 0,2.046 1.185,3.706 2.647,3.706 C -1.185,3.706 0,2.046 0,0"/></g><g transform="translate(31.7646,21.7061)" id="g28"><path id="path30" style="fill:#f4f7f9;fill-opacity:1;fill-rule:nonzero;stroke:none" d="m 0,0 c 0,-3.801 -3.081,-6.883 -6.882,-6.883 -3.802,0 -6.883,3.082 -6.883,6.883 0,3.801 3.081,6.882 6.883,6.882 C -3.081,6.882 0,3.801 0,0"/></g><g transform="translate(14.8247,26.0542)" id="g32"><path id="path34" style="fill:#65471b;fill-opacity:1;fill-rule:nonzero;stroke:none" d="m 0,0 c -0.322,0 -0.64,0.146 -0.848,0.424 -0.99,1.321 -2.028,2.028 -3.083,2.103 -1.39,0.095 -2.523,-0.947 -2.734,-1.158 -0.413,-0.413 -1.083,-0.413 -1.497,0 -0.413,0.414 -0.413,1.084 0,1.498 0.457,0.456 2.129,1.935 4.381,1.772 C -2.086,4.519 -0.53,3.528 0.846,1.694 1.197,1.227 1.102,0.562 0.634,0.212 0.443,0.069 0.221,0 0,0"/></g><g transform="translate(32.8232,0)" id="g36"><path id="path38" style="fill:#292f33;fill-opacity:1;fill-rule:nonzero;stroke:none" d="m 0,0 c -0.585,0 -1.059,0.474 -1.059,1.059 l 0,20.117 c 0,0.585 0.474,1.059 1.059,1.059 0.586,0 1.06,-0.474 1.06,-1.059 l 0,-20.117 C 1.06,0.474 0.586,0 0,0"/></g><g transform="translate(24.8828,15.8828)" id="g40"><path id="path42" style="fill:#67757f;fill-opacity:1;fill-rule:nonzero;stroke:none" d="m 0,0 c -3.211,0 -5.824,2.612 -5.824,5.823 0,3.211 2.613,5.823 5.824,5.823 3.21,0 5.823,-2.612 5.823,-5.823 C 5.823,2.612 3.21,0 0,0 M 7.94,7.411 C 7.887,7.411 7.836,7.399 7.783,7.396 7.052,11.023 3.84,13.764 0,13.764 c -4.38,0 -7.941,-3.562 -7.941,-7.941 0,-4.379 3.561,-7.941 7.941,-7.941 3.468,0 6.416,2.238 7.495,5.343 0.144,-0.031 0.293,-0.049 0.445,-0.049 1.17,0 2.119,0.948 2.119,2.117 0,1.17 -0.949,2.118 -2.119,2.118"/></g><g transform="translate(21.1758,7.4121)" id="g44"><path id="path46" style="fill:#65471b;fill-opacity:1;fill-rule:nonzero;stroke:none" d="m 0,0 c -0.159,0 -0.321,0.036 -0.473,0.111 -1.819,0.91 -3.588,0.91 -5.406,0 -0.523,-0.26 -1.159,-0.049 -1.42,0.474 -0.262,0.523 -0.05,1.159 0.473,1.421 2.421,1.21 4.878,1.21 7.301,0 C 0.997,1.744 1.209,1.108 0.948,0.585 0.762,0.214 0.389,0 0,0"/></g><g transform="translate(28.0488,26.5894)" id="g48"><path id="path50" style="fill:#bdddf4;fill-opacity:1;fill-rule:nonzero;stroke:none" d="m 0,0 c -0.912,0.592 -1.998,0.94 -3.166,0.94 -3.217,0 -5.824,-2.607 -5.824,-5.823 0,-1.169 0.347,-2.255 0.94,-3.167 L 0,0 Z"/></g><g transform="translate(22.3975,16.4453)" id="g52"><path id="path54" style="fill:#bdddf4;fill-opacity:1;fill-rule:nonzero;stroke:none" d="m 0,0 c 0.754,-0.357 1.595,-0.562 2.485,-0.562 3.216,0 5.824,2.606 5.824,5.823 0,0.89 -0.206,1.73 -0.564,2.485 L 0,0 Z"/></g></g></g></g></svg>
