<svg xmlns="http://www.w3.org/2000/svg" viewBox="0 0 45 45" enable-background="new 0 0 45 45"><defs><clipPath id="a"><path d="M0 36h36V0H0v36z"/></clipPath></defs><g><g><g clip-path="url(#a)" transform="matrix(1.25 0 0 -1.25 0 45)"><g><path fill="#be1931" d="M14 5c0-1.66-1.34-3-3-3S8 3.34 8 5s1.34 3 3 3 3-1.34 3-3"/></g><g><path fill="#be1931" d="M14 13c0-1.66-1.34-3-3-3s-3 1.34-3 3v19c0 1.66 1.34 3 3 3s3-1.34 3-3V13z"/></g><g><path fill="#be1931" d="M28 5c0-1.66-1.34-3-3-3s-3 1.34-3 3 1.34 3 3 3 3-1.34 3-3"/></g><g><path fill="#be1931" d="M28 13c0-1.66-1.34-3-3-3s-3 1.34-3 3v19c0 1.66 1.34 3 3 3s3-1.34 3-3V13z"/></g></g></g></g></svg>