<svg xmlns="http://www.w3.org/2000/svg" viewBox="0 0 45 45" enable-background="new 0 0 45 45"><defs><clipPath id="a"><path d="M0 36h36V0H0v36z"/></clipPath></defs><g><g><g clip-path="url(#a)" transform="matrix(1.25 0 0 -1.25 0 45)"><g><path fill="#3b88c3" d="M0 32c0 2.2 1.8 4 4 4h28c2.2 0 4-1.8 4-4V4c0-2.2-1.8-4-4-4H4C1.8 0 0 1.8 0 4v28z"/></g><g><path fill="#fff" d="M15.77 21.2c0 1.5.93 2.48 2.23 2.48 1.3 0 2.23-1 2.23-2.48V9.3c0-1.5-.93-2.5-2.23-2.5-1.3 0-2.23 1-2.23 2.5v11.9zm4.74 6.73c0-1.4-1.1-2.57-2.5-2.57-1.33 0-2.5 1.2-2.5 2.57 0 1.27 1.17 2.45 2.5 2.45s2.5-1.15 2.5-2.45"/></g></g></g></g></svg>