<svg xmlns="http://www.w3.org/2000/svg" viewBox="0 0 45 45" enable-background="new 0 0 45 45"><defs><clipPath id="a"><path d="M0 36h36V0H0v36z"/></clipPath></defs><g><g><g clip-path="url(#a)" transform="matrix(1.25 0 0 -1.25 0 45)"><g><path fill="#3b88c3" d="M36 4c0-2.2-1.8-4-4-4H4C1.8 0 0 1.8 0 4v28c0 2.2 1.8 4 4 4h28c2.2 0 4-1.8 4-4V4z"/></g><g><path fill="#fff" d="M18 31h-8v-4h8c3.87 0 7-3.14 7-7 0-3.87-3.13-7-7-7h-4v4l-7.2-6L14 5v4h4c6.07 0 11 4.93 11 11 0 6.08-4.93 11-11 11"/></g></g></g></g></svg>