<svg xmlns="http://www.w3.org/2000/svg" viewBox="0 0 45 45" enable-background="new 0 0 45 45"><defs><clipPath id="a"><path d="M0 36h36V0H0v36z"/></clipPath></defs><g><g><g clip-path="url(#a)" transform="matrix(1.25 0 0 -1.25 0 45)"><g><path fill="#3b88c3" d="M0 4c0-2.2 1.8-4 4-4h28c2.2 0 4 1.8 4 4v28c0 2.2-1.8 4-4 4H4c-2.2 0-4-1.8-4-4V4z"/></g><g><path fill="#fff" d="M29.2 11L22 17v-4h-4c-3.86 0-7 3.13-7 7s3.14 7 7 7h8v4h-8c-6.07 0-11-4.92-11-11 0-6.07 4.93-11 11-11h4V5l7.2 6z"/></g></g></g></g></svg>