<svg xmlns="http://www.w3.org/2000/svg" viewBox="0 0 45 45" enable-background="new 0 0 45 45"><defs><clipPath id="a"><path d="M0 36h36V0H0v36z"/></clipPath></defs><g><g><g clip-path="url(#a)" transform="matrix(1.25 0 0 -1.25 0 45)"><g><path fill="#292f33" d="M25 4c0-2.2-1.8-4-4-4h-6c-2.2 0-4 1.8-4 4v28c0 2.2 1.8 4 4 4h6c2.2 0 4-1.8 4-4V4z"/></g><g><path fill="#99aab5" d="M32 18c0 1.1-.9 2-2 2h-1c-1.1 0-2-.9-2-2s.9-2 2-2h1c1.1 0 2 .9 2 2"/></g><g><path fill="#ccd6dd" d="M6 18c0 6.63 5.37 12 12 12s12-5.37 12-12S24.63 6 18 6 6 11.37 6 18"/></g><g><path fill="#f5f8fa" d="M10 18c0 4.42 3.58 8 8 8s8-3.58 8-8-3.58-8-8-8-8 3.58-8 8"/></g><g><path fill="#66757f" d="M23 14c-.17 0-.35.05-.5.14l-5 3c-.3.18-.5.5-.5.86v7c0 .55.45 1 1 1s1-.45 1-1v-6.43l4.52-2.7c.47-.3.62-.9.34-1.4-.2-.3-.52-.47-.86-.47"/></g></g></g></g></svg>