<svg xmlns="http://www.w3.org/2000/svg" viewBox="0 0 45 45" enable-background="new 0 0 45 45"><defs><clipPath id="a"><path d="M0 36h36V0H0v36z"/></clipPath></defs><g><g><g clip-path="url(#a)" transform="matrix(1.25 0 0 -1.25 0 45)"><g><path fill="#ffe8b6" d="M21 18c0 2 3.25 3.37 5 6 2 3 2 10 2 10H8s0-7 2-10c1.75-2.63 5-4 5-6s-3.25-3.37-5-6C8 9 8 2 8 2h20s0 7-2 10c-1.75 2.63-5 4-5 6"/></g><g><path fill="#ffac33" d="M21 12c-1 0-2.06 1-2.06 2 .06 1.7.06 2.85.06 4 0 3.22 3.03 4.56 4.9 7H12.1c1.86-2.44 4.9-3.78 4.9-7 0-1.15 0-2.3.06-4 0-1-1.06-2-2.06-2-2 0-3.6-1.78-4-3-1-3-1-7-1-7h16s0 4-1 7c-.4 1.22-2 3-4 3"/></g><g><path fill="#3b88c3" d="M30 2c0-1.1-.9-2-2-2H8C6.9 0 6 .9 6 2s.9 2 2 2h20c1.1 0 2-.9 2-2"/></g><g><path fill="#3b88c3" d="M30 34c0-1.1-.9-2-2-2H8c-1.1 0-2 .9-2 2s.9 2 2 2h20c1.1 0 2-.9 2-2"/></g></g></g></g></svg>