<svg xmlns="http://www.w3.org/2000/svg" viewBox="0 0 45 45" enable-background="new 0 0 45 45"><defs><clipPath id="a"><path d="M0 36h36V0H0v36z"/></clipPath></defs><g><g><g clip-path="url(#a)" transform="matrix(1.25 0 0 -1.25 0 45)"><g><path fill="#ffcc4d" d="M20 29.96c0-1.1-.9-2.02-2-2.02s-2 .9-2 2.02V34c0 1.1.9 2 2 2s2-.9 2-2v-4.04z"/></g><g><path fill="#ffac33" d="M9.18 0c-.22 0-.45.05-.67.16C7.8.53 7.5 1.44 7.86 2.2l8.94 18.1c.24.52.76.85 1.32.85.57 0 1.08-.32 1.33-.84L28.4 2.2c.36-.76.06-1.67-.67-2.04C27-.2 26.1.1 25.73.83l-7.6 15.43L10.5.83C10.26.32 9.74 0 9.2 0"/></g><g><path fill="#58595b" d="M18.12 15.6c-.26 0-.5.1-.7.3L3.52 30c-.4.4-.4 1.03 0 1.43.38.4 1 .4 1.4 0l13.2-13.4 13.2 13.4c.4.4 1.02.4 1.4 0 .4-.4.4-1.03 0-1.43l-13.9-14.1c-.18-.2-.43-.3-.7-.3"/></g><g><path fill="#dd2e44" d="M34 16.62C34 7.72 26.9.5 18.13.5 9.34.5 2.22 7.72 2.22 16.62c0 8.9 7.12 16.1 15.9 16.1 8.78 0 15.9-7.2 15.9-16.1"/></g><g><path fill="#e6e7e8" d="M30.04 16.62c0-6.68-5.33-12.1-11.92-12.1-6.58 0-11.92 5.42-11.92 12.1 0 6.67 5.34 12.08 11.92 12.08 6.6 0 11.92-5.4 11.92-12.08"/></g><g><path fill="#ffcc4d" d="M30.04 34.74c-1.65 0-3.13-.67-4.2-1.77l8.42-8.54c1.07 1.1 1.74 2.6 1.74 4.27 0 3.34-2.67 6.04-5.96 6.04"/></g><g><path fill="#ffcc4d" d="M5.96 34.74c1.65 0 3.13-.67 4.2-1.77l-8.42-8.54C.67 25.53 0 27.03 0 28.7c0 3.34 2.67 6.04 5.96 6.04"/></g><g><path fill="#414042" d="M23 16h-5c-.55 0-1 .45-1 1v9c0 .55.45 1 1 1s1-.45 1-1v-8h4c.55 0 1-.45 1-1s-.45-1-1-1"/></g></g></g></g></svg>