<svg xmlns="http://www.w3.org/2000/svg" viewBox="0 0 45 45" enable-background="new 0 0 45 45"><defs><clipPath id="a"><path d="M0 36h36V0H0v36z"/></clipPath></defs><g><path fill="#292f33" d="M20 10h5V6.25h-5V10z"/><g><g clip-path="url(#a)" transform="matrix(1.25 0 0 -1.25 0 45)"><g><path fill="#8899a6" d="M22 35h-8c-1.1 0-2-.9-2-2s.9-2 2-2h8c1.1 0 2 .9 2 2s-.9 2-2 2"/></g><g><path fill="#8899a6" d="M28.18 24.5l-1.5 1.3c-.83.74-.9 2-.2 2.83.74.83 2 .9 2.84.2l1.5-1.33c.83-.72.9-2 .2-2.82-.74-.83-2-.9-2.84-.2"/></g><g><path fill="#f5f8fa" d="M18 26c-6.07 0-11-4.93-11-11S11.93 4 18 4s11 4.93 11 11-4.93 11-11 11"/></g><g><path fill="#66757f" d="M18 4C11.93 4 7 8.93 7 15s4.93 11 11 11 11-4.93 11-11S24.07 4 18 4m0 25c-7.73 0-14-6.27-14-14S10.27 1 18 1s14 6.27 14 14-6.27 14-14 14"/></g><g><path fill="#292f33" d="M27 14H17c-.55 0-1 .45-1 1s.45 1 1 1h10c.55 0 1-.45 1-1s-.45-1-1-1"/></g><g><path fill="#292f33" d="M19 24c0-.55-.45-1-1-1s-1 .45-1 1 .45 1 1 1 1-.45 1-1"/></g><g><path fill="#292f33" d="M19 6c0-.55-.45-1-1-1s-1 .45-1 1 .45 1 1 1 1-.45 1-1"/></g><g><path fill="#292f33" d="M12.7 21.7c.4-.38.4-1.02 0-1.4-.38-.4-1.02-.4-1.4 0-.4.38-.4 1.02 0 1.4.38.4 1.02.4 1.4 0"/></g><g><path fill="#292f33" d="M24.7 9.7c.4-.38.4-1.02 0-1.4-.38-.4-1.02-.4-1.4 0-.4.38-.4 1.02 0 1.4.38.4 1.02.4 1.4 0"/></g><g><path fill="#292f33" d="M9 16c.55 0 1-.45 1-1s-.45-1-1-1-1 .45-1 1 .45 1 1 1"/></g><g><path fill="#292f33" d="M23.3 21.7c.38.4 1.02.4 1.4 0 .4-.38.4-1.02 0-1.4-.38-.4-1.02-.4-1.4 0-.4.38-.4 1.02 0 1.4"/></g><g><path fill="#dd2e44" d="M12 8c-.26 0-.5.1-.7.3-.4.38-.4 1.02 0 1.4l7 7c.38.4 1.02.4 1.4 0 .4-.38.4-1.02 0-1.4l-7-7c-.2-.2-.44-.3-.7-.3"/></g></g></g></g></svg>