<svg xmlns="http://www.w3.org/2000/svg" viewBox="0 0 45 45" enable-background="new 0 0 45 45"><defs><clipPath id="a"><path d="M0 36h36V0H0v36z"/></clipPath></defs><g><g><g clip-path="url(#a)" transform="matrix(1.25 0 0 -1.25 0 45)"><g><path fill="#aab8c2" d="M18 36C8.6 36 1 28.4 1 19h.03V2c0-1.1.9-2 2-2H33c1.1 0 2 .9 2 2v17c0 9.4-7.6 17-17 17"/></g><g><path fill="#fff" d="M18 5C10.28 5 4 11.28 4 19s6.28 14 14 14 14-6.28 14-14S25.72 5 18 5"/></g><g><path fill="#66757f" d="M18 34C9.73 34 3 27.27 3 19S9.73 4 18 4s15 6.73 15 15-6.73 15-15 15m0-2c7.18 0 13-5.82 13-13S25.18 6 18 6 5 11.82 5 19s5.82 13 13 13"/></g><g><path fill="#292f33" d="M19 30c0 .55-.45 1-1 1s-1-.45-1-1v-1c0-.55.45-1 1-1s1 .45 1 1v1z"/></g><g><path fill="#292f33" d="M19 9c0 .55-.45 1-1 1s-1-.45-1-1V8c0-.55.45-1 1-1s1 .45 1 1v1z"/></g><g><path fill="#292f33" d="M8 20H7c-.55 0-1-.45-1-1s.45-1 1-1h1c.55 0 1 .45 1 1s-.45 1-1 1"/></g><g><path fill="#292f33" d="M29 20h-1c-.55 0-1-.45-1-1s.45-1 1-1h1c.55 0 1 .45 1 1s-.45 1-1 1"/></g><g><path fill="#292f33" d="M26.7 11.7c-.12.14-.57.58-.7.7-.4.4-1.02.4-1.4 0-.4-.38-.4-1 0-1.4.12-.13.56-.58.7-.7.38-.4 1.02-.4 1.4 0 .4.38.4 1.02 0 1.4"/></g><g><path fill="#292f33" d="M10 12.4l-.7-.7c-.4-.38-.4-1.02 0-1.4.38-.4 1.02-.4 1.4 0 .14.12.58.57.7.7.4.4.4 1.02 0 1.4-.38.4-1 .4-1.4 0"/></g><g><path fill="#292f33" d="M9.3 26.3c.12-.14.57-.58.7-.7.4-.4 1.02-.4 1.4 0 .4.38.4 1 0 1.4-.12.13-.56.58-.7.7-.38.4-1.02.4-1.4 0-.4-.38-.4-1.02 0-1.4"/></g><g><path fill="#292f33" d="M26 25.6c.13.12.57.56.7.7.4.38.4 1.02 0 1.4-.38.4-1.02.4-1.4 0-.14-.12-.58-.57-.7-.7-.4-.4-.4-1.02 0-1.4.38-.4 1-.4 1.4 0"/></g><g><path fill="#dd2e44" d="M8.92 22.16c-.1.24-.1.5 0 .77.22.5.8.74 1.32.52l8.15-3.5c.5-.23.74-.82.52-1.32-.22-.5-.8-.75-1.32-.53l-8.15 3.5c-.25.12-.44.32-.53.56"/></g></g></g></g></svg>