<svg xmlns="http://www.w3.org/2000/svg" viewBox="0 0 45 45" enable-background="new 0 0 45 45"><defs><clipPath id="a"><path d="M0 36h36V0H0v36z"/></clipPath></defs><g><g><g clip-path="url(#a)" transform="matrix(1.25 0 0 -1.25 0 45)"><g><path fill="#3b88c3" d="M36 18c0-9.94-8.06-18-18-18S0 8.06 0 18s8.06 18 18 18 18-8.06 18-18"/></g><g><path fill="#fff" d="M8.17 26.88c.2 1.1 1.4 2.38 3.04 2.38 1.56 0 2.77-1.1 3.1-2.23l3.67-12.28h.06l3.66 12.28c.33 1.12 1.54 2.23 3.1 2.23 1.64 0 2.84-1.27 3.03-2.4l2.88-17.3c.05-.17.05-.36.05-.5 0-1.38-1-2.25-2.24-2.25-1.57 0-2.2.73-2.4 2.18L24.27 21.6h-.07l-3.72-13c-.2-.73-.8-1.8-2.48-1.8-1.67 0-2.26 1.07-2.48 1.8l-3.72 13h-.06L9.9 8.98C9.7 7.53 9.08 6.8 7.5 6.8c-1.25 0-2.24.88-2.24 2.25 0 .15 0 .34.03.52l2.87 17.3z"/></g></g></g></g></svg>