<svg xmlns="http://www.w3.org/2000/svg" viewBox="0 0 36 36"><path fill="#66757F" d="M27 28.5c0-.828-.672-1.5-1.5-1.5s-1.5.672-1.5 1.5v.5s0 3-3 3-3-3-3-3V3.5c0-.829-.671-1.5-1.5-1.5S15 2.671 15 3.5V29s0 6 6 6 6-6 6-6v-.5z"/><path fill="#744EAA" d="M16.5 4C7.388 4 0 9.82 0 17c0 0 0 2 1 2s3-2 3-2h25s2 2 3 2 1-2 1-2c0-7.18-7.388-13-16.5-13z"/><path fill="#9266CC" d="M16.5 4C9.597 4 4 9.82 4 17c0 0 0 2 2 2s5-2 5-2h11s3 2 5 2 2-2 2-2c0-7.18-5.597-13-12.5-13z"/><path fill="#744EAA" d="M16.5 4C12.91 4 11 9.82 11 17c0 0 3 2 5 2h1c2 0 5-2 5-2 0-7.18-1.91-13-5.5-13z"/></svg>