<?xml version="1.0" encoding="UTF-8" standalone="no"?><svg xmlns:dc="http://purl.org/dc/elements/1.1/" xmlns:cc="http://creativecommons.org/ns#" xmlns:rdf="http://www.w3.org/1999/02/22-rdf-syntax-ns#" xmlns:svg="http://www.w3.org/2000/svg" xmlns="http://www.w3.org/2000/svg" viewBox="0 0 45 45" style="enable-background:new 0 0 45 45;" xml:space="preserve" version="1.1" id="svg2"><metadata id="metadata8"><rdf:RDF><cc:Work rdf:about=""><dc:format>image/svg+xml</dc:format><dc:type rdf:resource="http://purl.org/dc/dcmitype/StillImage"/></cc:Work></rdf:RDF></metadata><defs id="defs6"><clipPath id="clipPath16" clipPathUnits="userSpaceOnUse"><path id="path18" d="M 0,36 36,36 36,0 0,0 0,36 Z"/></clipPath></defs><g transform="matrix(1.25,0,0,-1.25,0,45)" id="g10"><g id="g12"><g clip-path="url(#clipPath16)" id="g14"><g transform="translate(33.6621,35.9507)" id="g20"><path id="path22" style="fill:#5dadec;fill-opacity:1;fill-rule:nonzero;stroke:none" d="m 0,0 c -1.148,0.077 -5.869,0.75 -17.522,-6.665 -11.652,-7.415 -17.786,-19.895 -12.536,-26.615 1.104,-1.413 5.518,-4.283 10.682,-0.53 3.247,2.359 4.242,7.519 7.15,14.434 1.987,4.722 6.445,13.594 12.668,17.61 C 2.384,-0.794 0.662,-0.044 0,0"/></g><g transform="translate(16.625,22.3491)" id="g24"><path id="path26" style="fill:#8ccaf7;fill-opacity:1;fill-rule:nonzero;stroke:none" d="m 0,0 c -0.265,1.059 0.971,4.281 1.324,5.164 -6.436,-2.929 -12.509,-11.616 -12.47,-13.18 0.006,-0.227 0.139,-0.306 0.42,-0.192 5.399,2.166 8.883,-1.071 9.808,-3.751 0.094,-0.275 0.214,-0.415 0.338,-0.441 0.172,-0.035 0.352,0.15 0.495,0.558 C 1.94,-6.024 6.487,4.596 11.21,8.651 8.563,7.371 1.104,1.854 0,0"/></g><g transform="translate(14.2417,23.0112)" id="g28"><path id="path30" style="fill:#bdddf4;fill-opacity:1;fill-rule:nonzero;stroke:none" d="m 0,0 c -1.737,-0.827 -7.275,-6.192 -8.762,-8.678 0.006,-0.227 0.139,-0.306 0.42,-0.193 5.399,2.166 8.883,-1.07 9.807,-3.751 0.095,-0.274 0.215,-0.414 0.339,-0.44 C 1.862,-10.734 1.712,-5.446 4.017,-1.5 -0.043,-5.208 -1.059,-5.12 0,0"/></g><g transform="translate(8.7251,12.3369)" id="g32"><path id="path34" style="fill:#f5f8fa;fill-opacity:1;fill-rule:nonzero;stroke:none" d="m 0,0 c -2.925,0 -5.297,-2.371 -5.297,-5.297 0,-2.925 2.372,-5.296 5.297,-5.296 2.925,0 5.296,2.371 5.296,5.296 C 5.296,-2.371 2.925,0 0,0"/></g></g></g></g></svg>
