<svg xmlns="http://www.w3.org/2000/svg" viewBox="0 0 45 45" enable-background="new 0 0 45 45"><defs><clipPath id="a"><path d="M0 36h36V0H0v36z"/></clipPath></defs><g><g><g clip-path="url(#a)" transform="matrix(1.25 0 0 -1.25 0 45)"><g><path fill="#be1931" d="M36 24.5c0 3.04-3 7.5-18 7.5S0 27.54 0 24.5c0-.04.02-.08.02-.12 0-.2-.02-.4-.02-.63C0 21.13 2.24 20 5 20s5 1.13 5 3.75c0 .22-.02.4-.05.6 2.42.35 5.15.65 8.05.65 2.9 0 5.63-.3 8.05-.65-.03-.2-.05-.38-.05-.6 0-2.62 2.24-3.75 5-3.75s5 1.13 5 3.75c0 .23 0 .43-.02.62 0 .05.02.08.02.13"/></g><g><path fill="#dd2e44" d="M34.93 13c-.48 1.03-2.3 4.2-3.96 7C29.4 22.66 27 25 25 25v2c0 1.1-.9 2-2 2s-2-.9-2-2v-2h-6v2c0 1.1-.9 2-2 2s-2-.9-2-2v-2c-2 0-4.4-2.35-5.97-5-1.66-2.81-3.48-5.97-3.96-7C.5 11.76 0 11 0 9s1.8-5 4-5h28c2.2 0 4 3 4 5s-.45 2.68-1.07 4"/></g><g><path fill="#fff" d="M20.05 21.18c0-.45-.92-.82-2.05-.82s-2.05.37-2.05.82c0 .45.92.82 2.05.82s2.05-.37 2.05-.82"/></g><g><path fill="#fff" d="M15.14 21.18c0-.45-.92-.82-2.05-.82-1.14 0-2.05.37-2.05.82 0 .45.9.82 2.04.82 1.12 0 2.04-.37 2.04-.82"/></g><g><path fill="#fff" d="M24.95 21.18c0-.45-.9-.82-2.04-.82-1.12 0-2.04.37-2.04.82 0 .45.92.82 2.05.82 1.14 0 2.05-.37 2.05-.82"/></g><g><path fill="#fff" d="M20.45 18.32c0-.68-1.1-1.23-2.45-1.23-1.36 0-2.45.54-2.45 1.22 0 .68 1.1 1.23 2.45 1.23 1.36 0 2.45-.55 2.45-1.23"/></g><g><path fill="#fff" d="M26.18 18.32c0-.68-1.1-1.23-2.45-1.23-1.36 0-2.46.54-2.46 1.22 0 .68 1.1 1.23 2.46 1.23 1.35 0 2.45-.55 2.45-1.23"/></g><g><path fill="#fff" d="M14.73 18.32c0-.68-1.1-1.23-2.46-1.23-1.35 0-2.45.54-2.45 1.22 0 .68 1.1 1.23 2.45 1.23 1.36 0 2.46-.55 2.46-1.23"/></g><g><path fill="#fff" d="M21.27 14.64c0-.9-1.46-1.64-3.27-1.64-1.8 0-3.27.73-3.27 1.64 0 .9 1.46 1.63 3.27 1.63 1.8 0 3.27-.73 3.27-1.63"/></g><g><path fill="#fff" d="M28.64 14.64c0-.9-1.47-1.64-3.28-1.64-1.8 0-3.27.73-3.27 1.64 0 .9 1.46 1.63 3.26 1.63 1.8 0 3.28-.73 3.28-1.63"/></g><g><path fill="#fff" d="M13.9 14.64c0-.9-1.46-1.64-3.26-1.64-1.8 0-3.28.73-3.28 1.64 0 .9 1.47 1.63 3.28 1.63 1.8 0 3.27-.73 3.27-1.63"/></g></g></g></g></svg>