<svg xmlns="http://www.w3.org/2000/svg" viewBox="0 0 45 45" enable-background="new 0 0 45 45"><defs><clipPath id="a"><path d="M0 36h36V0H0v36z"/></clipPath></defs><g><g><g clip-path="url(#a)" transform="matrix(1.25 0 0 -1.25 0 45)"><g><path fill="#269" d="M36 4c0-2.2-1.8-4-4-4H4C1.8 0 0 1.8 0 4v28c0 2.2 1.8 4 4 4h28c2.2 0 4-1.8 4-4V4z"/></g><g><path d="M13.5 5c-.64 0-1.28.24-1.77.73l-6.5 6.5c-.97.98-.97 2.56 0 3.54.98.97 2.56.97 3.54 0l4.73-4.74 13.73 13.74c.98.97 2.56.97 3.54 0 .97-.98.97-2.56 0-3.54l-15.5-15.5c-.5-.5-1.13-.73-1.77-.73"/></g><g><path fill="#bbddf5" d="M13.5 7c-.64 0-1.28.24-1.77.73l-6.5 6.5c-.97.98-.97 2.56 0 3.54.98.97 2.56.97 3.54 0l4.73-4.73 13.73 13.73c.98.97 2.56.97 3.54 0 .97-.98.97-2.56 0-3.54l-15.5-15.5c-.5-.5-1.13-.73-1.77-.73"/></g></g></g></g></svg>