<svg xmlns="http://www.w3.org/2000/svg" viewBox="0 0 45 45" enable-background="new 0 0 45 45"><defs><clipPath id="a"><path d="M0 36h36V0H0v36z"/></clipPath></defs><g><g><g clip-path="url(#a)" transform="matrix(1.25 0 0 -1.25 0 45)"><g><path fill="#77b255" d="M32.34 16.8c.2 1.47 2.67 2.2 2.67 4.53 0 2.34-5.75 6.42-14-1.33 3.8 5.3 6.54 14.5 2.2 14.5-1.47 0-2.58-1.33-4.32-1.33C16.5 33.17 16.2 36 14 36c-2.58 0-5-6.25 1-15-1.5 1.62-11.08 6.62-13 1.27-.63-1.75 1.73-2.78 1.54-4.52-.18-1.65-2.6-2.04-2.6-4.37 0-3.3 8.05-4.84 16.05 1.6-.26-4.5.54-10.5 3.84-14.15 1.35-1.48 2.4-.55 2.83-.18.4.36 1.6 1.4.18 2.82-3.83 3.8-5.22 8.17-5.62 11.38 2.05-2.22 12.36-8.74 15.52-2.77.88 1.67-1.64 2.98-1.4 4.7"/></g></g></g></g></svg>