<svg xmlns="http://www.w3.org/2000/svg" viewBox="0 0 45 45" enable-background="new 0 0 45 45"><defs><clipPath id="a"><path d="M0 36h36V0H0v36z"/></clipPath></defs><g><g><g clip-path="url(#a)" transform="matrix(1.25 0 0 -1.25 0 45)"><g><path fill="#d89882" d="M27.66 17.6h-.32c-.5 0-.96-.15-1.34-.4v1.94c0 1.37-1.1 2.47-2.46 2.47h-.07c-1.37 0-2.47-1.1-2.47-2.46v-.03c0 1.4-1.12 2.5-2.5 2.5S16 20.5 16 19.1v-4.3c-.3-.08-.58-.2-.86-.32l-.54 5.2-2.95-.18.9-10-.5.53c-.02-.16-.05-.3-.05-.47V8.44c0-3 2.44-5.44 5.44-5.44h.12c2.87 0 5.22 2.23 5.42 5.05.16-.03.32-.05.5-.05h.06c1.04 0 1.93.65 2.3 1.57.4-.35.92-.57 1.5-.57h.32c1.3 0 2.34 2.6 2.34 2.73v3.54c0 1.3-1.05 2.34-2.34 2.34"/></g><g><path fill="#d89882" d="M25 14.3c0-1.83-1.47-3.3-3.3-3.3h-9.4C10.46 11 9 12.47 9 14.3v.4c0 1.83 1.47 3.3 3.3 3.3h9.4c1.83 0 3.3-1.47 3.3-3.3v-.4z"/></g><path fill="#d89882" d="M19 16h-6v2h6v-2z"/><g><path fill="#f7dece" d="M14.58 30.35s-.2 2-2.18 1.8c-2-.18-1.8-2.18-1.8-2.18L11.77 18h4.01l-1.2 12.35z"/></g><g><path fill="#f7dece" d="M30 13.92c0-1.06-.86-1.92-1.92-1.92h-.16c-1.06 0-1.92.86-1.92 1.92v4.16c0 1.06.86 1.92 1.92 1.92h.16c1.06 0 1.92-.86 1.92-1.92v-4.16z"/></g><g><path fill="#f7dece" d="M23 22c-1.1 0-2-.9-2-2v-2.78c.6-.55 1-1.33 1-2.22 0-.75-.3-1.43-.75-1.96.35-.62 1-1.04 1.75-1.04 1.1 0 2 .9 2 2v6c0 1.1-.9 2-2 2"/></g><g><path fill="#f7dece" d="M28.06 11h-.12c-1.03 0-1.93.53-2.45 1.32-.14-.18-.28-.34-.44-.5-.05-.04-.1-.08-.16-.12-.12-.1-.24-.2-.38-.27-.06-.04-.13-.08-.2-.1-.14-.08-.28-.14-.43-.18-.08-.02-.14-.05-.2-.06-.23-.07-.46-.1-.7-.1-.24 0-.46.04-.68.1-.08 0-.15.03-.22.05-.14.05-.27.1-.4.17-.08.04-.16.07-.24.12-.16.1-.32.2-.46.34-.2.18-.38.4-.53.62-.2-.1-.47-.4-1.47-.4h-2.54c1.8-1.36 3.04-4 3.04-7 0-.28-.22-.5-.5-.5s-.5.22-.5.5c0 3.86-2.2 7-4.88 7h-.12c-.28 0-.5.22-.5.5s.22.5.5.5H19c1.1 0 2 .9 2 2s-.9 2-2 2h-8c-.5 0-1.53-.27-1.9-1.42L8 12c-.1-.34-.48-1.87-.4-2.2C7.6 5 12.3 0 18 0c6.54 0 11.84 5.23 12 11.73-.47-.54-1.2-.73-1.94-.73"/></g><g><path fill="#f7dece" d="M20 18v2c0 1.1-.9 2-2 2s-2-.9-2-2v-2h4z"/></g></g></g></g></svg>