<svg xmlns="http://www.w3.org/2000/svg" viewBox="0 0 45 45" enable-background="new 0 0 45 45"><defs><clipPath id="a"><path d="M0 36h36V0H0v36z"/></clipPath></defs><g><g><g clip-path="url(#a)" transform="matrix(1.25 0 0 -1.25 0 45)"><g><path fill="#ccd6dd" d="M27.87 19.25c0 6.24-4.42 10-9.93 10-5.52 0-9.84-3.76-9.84-10 0-3.48-.1-6.5 3.9-7.9v-2.7c0-1.05.97-1.9 2-1.9 1.04 0 2 .85 2 1.9v1.96-1.96c0-1.04.97-1.88 2-1.88 1.04 0 2 .84 2 1.88v1.97-1.96c0-1.04.97-1.88 2-1.88s2 .84 2 1.88v2.72c4 1.4 3.87 4.4 3.87 7.9"/></g><g><path fill="#292f33" d="M16.75 20.5c0-1.73 0-3.12-3.12-3.12s-3.12 1.4-3.12 3.12c0 1.72 1.4 3.12 3.13 3.12 1.72 0 3.12-1.4 3.12-3.12"/></g><g><path fill="#292f33" d="M25.5 20.5c0-1.73 0-3.12-3.13-3.12-3.12 0-3.12 1.4-3.12 3.12 0 1.72 1.4 3.12 3.12 3.12 1.72 0 3.12-1.4 3.12-3.12"/></g><g><path fill="#292f33" d="M19.2 14.84c-.17.38-.64.66-1.2.66-.56 0-1.03-.28-1.2-.66-.38-.1-.67-.47-.67-.9 0-.5.4-.93.93-.93.4 0 .75.27.88.63.02 0 .04 0 .06 0 .02 0 .04 0 .05 0 .13-.36.48-.62.88-.62.52 0 .94.43.94.94 0 .43-.3.8-.68.9"/></g><g><path fill="#aab8c2" d="M11 9c0 .37.07.7.2 1.04-1 .45-1.84 1.08-2.5 1.97-1.1-.96-2.17-1.87-3.13-2.7-.6.44-1.3.7-2.07.7C1.57 10 0 8.43 0 6.5c0-1.78 1.33-3.23 3.05-3.45C3.27 1.33 4.72 0 6.5 0 8.43 0 10 1.57 10 3.5c0 .78-.26 1.5-.7 2.07.6.7 1.26 1.46 1.94 2.25-.15.36-.24.76-.24 1.18"/></g><g><path fill="#aab8c2" d="M27.87 24.48c.9.77 1.73 1.5 2.52 2.16.56-.4 1.25-.64 2-.64 1.93 0 3.5 1.57 3.5 3.5 0 1.74-1.28 3.18-2.94 3.44-.23 1.73-1.68 3.06-3.46 3.06-1.93 0-3.5-1.57-3.5-3.5 0-.77.26-1.48.7-2.06-.6-.7-1.25-1.45-1.92-2.23 1.3-.86 2.36-2.1 3.1-3.72"/></g><g><path fill="#aab8c2" d="M3.5 26c.78 0 1.5.26 2.06.7.8-.7 1.67-1.43 2.57-2.22.73 1.63 1.8 2.86 3.1 3.73-.68.8-1.32 1.54-1.92 2.23.44.58.7 1.3.7 2.07 0 1.93-1.57 3.5-3.5 3.5-1.78 0-3.23-1.33-3.45-3.05C1.33 32.73 0 31.28 0 29.5 0 27.57 1.57 26 3.5 26"/></g><g><path fill="#aab8c2" d="M32.4 10c-.75 0-1.44-.24-2-.65-.97.8-2 1.7-3.1 2.66-.66-.88-1.5-1.5-2.5-1.96.12-.33.2-.67.2-1.04 0-.42-.1-.82-.24-1.2.68-.78 1.33-1.53 1.93-2.24C26.25 5 26 4.28 26 3.5 26 1.57 27.57 0 29.5 0c1.78 0 3.24 1.33 3.46 3.06 1.66.26 2.94 1.7 2.94 3.44 0 1.93-1.57 3.5-3.5 3.5"/></g></g></g></g></svg>