<svg xmlns="http://www.w3.org/2000/svg" viewBox="0 0 45 45" enable-background="new 0 0 45 45"><defs><clipPath id="a"><path d="M0 36h36V0H0v36z"/></clipPath></defs><g><g><g clip-path="url(#a)" transform="matrix(1.25 0 0 -1.25 0 45)"><g><path fill="#f4900c" d="M18 35C8.6 35 1 27.4 1 18S8.6 1 18 1s17 7.6 17 17-7.6 17-17 17"/></g><g><path fill="#fff" d="M15.27 14.4l-3.85-6.42c.28-.2.56-.36.86-.52C13.98 6.53 15.93 6 18 6c2.08 0 4.03.53 5.74 1.46.3.17.58.34.85.52l-3.86 6.43c-.76-.57-1.7-.93-2.74-.93-1.03 0-1.97.35-2.73.93"/></g><g><path fill="#fff" d="M16.12 22.1l-3.86 6.44c-.3-.16-.57-.34-.85-.52-3.1-2.06-5.2-5.54-5.37-9.52 0-.17-.03-.33-.03-.5 0-.17.02-.33.03-.5h7.5c-.03.17-.06.33-.06.5 0 1.83 1.1 3.4 2.65 4.1"/></g><g><path fill="#fff" d="M22.53 18c0-.17-.03-.33-.05-.5h7.5c0 .17.02.33.02.5 0 .17-.02.33-.03.5-.16 3.97-2.26 7.45-5.38 9.52-.3.18-.57.35-.86.5l-3.85-6.4c1.54-.73 2.63-2.3 2.63-4.12"/></g><g><path fill="#fff" d="M20 18c0-1.1-.9-2-2-2s-2 .9-2 2 .9 2 2 2 2-.9 2-2"/></g></g></g></g></svg>