<svg xmlns="http://www.w3.org/2000/svg" viewBox="0 0 45 45" enable-background="new 0 0 45 45"><defs><clipPath id="a"><path d="M0 36h36V0H0v36z"/></clipPath></defs><g><g><g clip-path="url(#a)" transform="matrix(1.25 0 0 -1.25 0 45)"><g><path fill="#f4900c" d="M35 18c0-9.4-7.6-17-17-17S1 8.6 1 18s7.6 17 17 17 17-7.6 17-17"/></g><g><path fill="#fff" d="M12.87 17.9c-.4.16-.8.25-1.25.25-.1 0-.18 0-.27-.02-.08 0-.17-.03-.26-.04.03-2.62 1.53-4.88 3.7-6 .06.06.1.14.16.22.1.2.2.43.28.67.03.06.06.13.08.2.05.2.08.38.1.56-1.46.85-2.46 2.37-2.55 4.14"/></g><g><path fill="#fff" d="M14.24 23.96c.2-.57.53-1.06.96-1.47.8.5 1.74.8 2.76.8 1 0 1.92-.3 2.7-.78.12.12.25.22.35.35.3.35.5.72.65 1.1-1.07.7-2.33 1.1-3.7 1.1-1.36 0-2.63-.42-3.7-1.1"/></g><g><path fill="#fff" d="M20.45 13.73c.07-.58.25-1.13.58-1.64 0-.02.02-.03.03-.04 2.2 1.12 3.74 3.4 3.77 6.04-.16.02-.32.04-.5.04-.43 0-.86-.08-1.27-.23-.1-1.8-1.12-3.33-2.6-4.16"/></g><g><path fill="#fff" d="M24.41 8.97c-2.87 0-5.2 2.33-5.2 5.2 0 .88.2 1.7.58 2.4-.2.13-.4.24-.6.36-.3-.34-.7-.55-1.17-.55s-.88.22-1.16.56c-.22-.13-.43-.25-.64-.37.37-.72.58-1.53.58-2.4 0-2.87-2.34-5.2-5.22-5.2-1.57 0-2.98.7-3.94 1.8-.06-.04-.18-.1-.2-.12 1.1-1.36 2.45-2.27 4.13-2.67.46-.1.9-.16 1.34-.2.13 0 .27 0 .4 0 .04 0 .08 0 .12 0 .34 0 .68.03 1.02.08.06 0 .12.02.18.03 1.16.2 2.26.7 3.3 1.48 0 0 .04.02.07.03.04 0 .07 0 .08-.02.1-.1.23-.16.35-.24.13-.1.27-.2.4-.27.15-.1.3-.18.45-.26.26-.13.52-.24.78-.35.12-.04.24-.08.37-.12.3-.1.6-.2.9-.24.07-.02.14-.03.2-.04.32-.05.64-.07.97-.08.06 0 .12 0 .2 0 .26 0 .54 0 .83.04 2.06.24 3.73 1.2 5.03 2.82l-.2.14c-.95-1.1-2.36-1.8-3.94-1.8"/></g><g><path fill="#fff" d="M11.56 19.4c1.83 0 3.43-.94 4.37-2.35 0-.02 0-.03.02-.04.2.1.37.22.56.32.06.03.08.06.08.1-.05.15-.08.3-.08.47 0 .73.53 1.35 1.24 1.47v.72c-2.77.12-4.96 2.4-4.96 5.2 0 2.54 1.8 4.65 4.22 5.12v.24c-1.1-.07-3.5-1.2-4.55-2.44-1.5-1.7-2.08-3.7-1.78-5.96 0-.1 0-.16-.12-.2-3.57-1.44-5.44-5.3-4.36-9 .06-.22.15-.45.23-.7l.2.1c-.18.54-.28 1.12-.28 1.72 0 2.9 2.33 5.22 5.2 5.22"/></g><g><path fill="#fff" d="M30 16.34c-.5 2.73-2.02 4.63-4.57 5.7-.1.06-.13.1-.1.2.1.8.1 1.6-.05 2.4-.23 1.33-.85 2.54-1.7 3.53 0 0 0 0-.02 0-.2.23-.4.44-.6.63-.05.03-.08.06-.1.1-.2.17-.43.33-.65.5-.04.03-.1.06-.15.1-.22.14-.44.27-.67.4-.07.03-1.28.6-2.4.76v-.24c2.4-.47 4.23-2.58 4.23-5.12 0-2.8-2.2-5.08-4.95-5.22v-.7c.72-.12 1.27-.74 1.27-1.5 0-.17-.04-.35-.1-.5 0-.02 0-.03.03-.04.2-.1.38-.22.58-.34.92 1.45 2.54 2.4 4.38 2.4 2.9 0 5.23-2.33 5.23-5.22 0-.6-.1-1.16-.28-1.7.06-.03.2-.1.2-.1.02.04.04.1.06.13.48 1.25.64 2.53.4 3.84"/></g></g></g></g></svg>