<svg xmlns="http://www.w3.org/2000/svg" viewBox="0 0 45 45" enable-background="new 0 0 45 45"><defs><clipPath id="a"><path d="M0 36h36V0H0v36z"/></clipPath></defs><g><g><g clip-path="url(#a)" transform="matrix(1.25 0 0 -1.25 0 45)"><g><path fill="#9266cc" d="M36 4c0-2.2-1.8-4-4-4H4C1.8 0 0 1.8 0 4v28c0 2.2 1.8 4 4 4h28c2.2 0 4-1.8 4-4V4z"/></g><g><path fill="#fff" d="M32.66 17.3l-3.96 1.6.3 4.25-2.74-3.27-3.96 1.6 2.26-3.62-2.74-3.28 4.14 1.04L28.23 12l.3 4.26 4.13 1.04z"/></g><g><path fill="none" stroke="#fff" stroke-miterlimit="10" d="M32.66 17.3l-3.96 1.6.3 4.25-2.74-3.27-3.96 1.6 2.26-3.62-2.74-3.28 4.14 1.04L28.23 12l.3 4.26 4.13 1.04z" stroke-linecap="round" stroke-linejoin="round"/></g><g><path fill="#fff" d="M27.1 7.8C25.77 7.25 24.4 7 23 7c-6.07 0-11 4.92-11 10.98 0 6.07 4.93 11 11 11 1.4 0 2.78-.3 4.1-.84.1-.05.38-.14.38-.14.64-.28 1.86 1.03.47 2-2.6 1.97-5.7 3-8.95 3-8.27 0-15-6.73-15-15S10.73 3 19 3c3.3 0 6.43 1.06 9.07 3.07.4.3.5.85.26 1.3-.24.42-.78.6-1.24.42"/></g></g></g></g></svg>