<svg xmlns="http://www.w3.org/2000/svg" viewBox="0 0 45 45" enable-background="new 0 0 45 45"><defs><clipPath id="a"><path d="M0 36h36V0H0v36z"/></clipPath></defs><g><g><g clip-path="url(#a)" transform="matrix(1.25 0 0 -1.25 0 45)"><g><path fill="#9266cc" d="M36 4c0-2.2-1.8-4-4-4H4C1.8 0 0 1.8 0 4v28c0 2.2 1.8 4 4 4h28c2.2 0 4-1.8 4-4V4z"/></g><g><path fill="#fff" d="M16.45 28.98v-9.9L8.7 12C7.55 13.7 6.9 15.77 6.9 18c0 5.6 4.16 10.23 9.55 10.98m3-13.96l5.85-5.36C23.7 8.26 21.68 7.3 19.45 7v8.02zm-3-8c-2.2.3-4.2 1.27-5.8 2.68l5.8 5.32v-8zM29.1 18c0-2.25-.67-4.34-1.82-6.1l-7.83 7.2V29c5.44-.72 9.65-5.37 9.65-11M18 32c-7.72 0-14-6.28-14-14S10.28 4 18 4s14 6.28 14 14-6.28 14-14 14"/></g></g></g></g></svg>