<svg xmlns="http://www.w3.org/2000/svg" viewBox="0 0 45 45" enable-background="new 0 0 45 45"><defs><clipPath id="a"><path d="M0 36h36V0H0v36z"/></clipPath></defs><g><g><g clip-path="url(#a)" transform="matrix(1.25 0 0 -1.25 0 45)"><g><path fill="#9266cc" d="M36 4c0-2.2-1.8-4-4-4H4C1.8 0 0 1.8 0 4v28c0 2.2 1.8 4 4 4h28c2.2 0 4-1.8 4-4V4z"/></g><g><path fill="#fff" d="M26.45 10.97l-4.32 4.32c.35.5.6 1.08.74 1.7h6.08c-.2-2.28-1.1-4.37-2.5-6.03M19 7.05v6.15c.6.13 1.18.37 1.7.7l4.33-4.35c-1.66-1.4-3.75-2.3-6.03-2.5m-2 0c-2.28.2-4.37 1.1-6.03 2.5l4.34 4.35c.52-.33 1.1-.57 1.7-.7V7.05zm-7.45 3.92c-1.4 1.66-2.3 3.75-2.5 6.03h6.08c.14-.62.4-1.2.74-1.7l-4.32-4.33zm0 14.06l4.25-4.24c-.35-.55-.6-1.15-.7-1.8H7.04c.2 2.28 1.1 4.37 2.5 6.03M17 28.95V23c-.66-.14-1.27-.4-1.8-.77l-4.23 4.22c1.66 1.4 3.75 2.3 6.03 2.5m4-10.85c0-1.65-1.35-3-3-3s-3 1.35-3 3 1.35 3 3 3 3-1.35 3-3m-2 10.85c2.28-.2 4.37-1.1 6.03-2.5l-4.22-4.22c-.53.37-1.14.63-1.8.77v5.95zm7.45-3.92c1.4-1.66 2.3-3.75 2.5-6.03H22.9c-.1.65-.35 1.25-.7 1.8l4.25 4.23zM32 19h-1.05c-.22 2.83-1.34 5.4-3.1 7.45l1.17 1.16c.4.4.4 1.03 0 1.42-.4.4-1.02.4-1.4 0l-1.17-1.16c-2.04 1.75-4.62 2.87-7.45 3.1V32c0 .55-.45 1-1 1s-1-.45-1-1v-1.05c-2.83-.22-5.4-1.34-7.45-3.1L8.5 28.94c-.4.4-1.04.4-1.43 0-.4-.4-.4-1.03 0-1.42l1.07-1.05C6.4 24.4 5.27 21.83 5.04 19H4c-.55 0-1-.45-1-1s.45-1 1-1h1.05c.22-2.83 1.34-5.4 3.1-7.45L6.97 8.4c-.4-.4-.4-1.03 0-1.42.2-.2.45-.3.7-.3.26 0 .52.1.7.3l1.17 1.16C11.6 6.4 14.17 5.27 17 5.04V4c0-.55.45-1 1-1s1 .45 1 1v1.05c2.83.22 5.4 1.34 7.45 3.1l1.06-1.08c.2-.2.46-.3.72-.3.26 0 .5.1.7.3.4.4.4 1.03 0 1.42l-1.06 1.05c1.75 2.04 2.87 4.62 3.1 7.45H32c.55 0 1 .45 1 1s-.45 1-1 1"/></g></g></g></g></svg>