<svg xmlns="http://www.w3.org/2000/svg" viewBox="0 0 45 45" enable-background="new 0 0 45 45"><defs><clipPath id="a"><path d="M0 36h36V0H0v36z"/></clipPath></defs><g><g><g clip-path="url(#a)" transform="matrix(1.25 0 0 -1.25 0 45)"><g><path fill="#ffcc4d" d="M36 18c0-9.94-8.06-18-18-18S0 8.06 0 18s8.06 18 18 18 18-8.06 18-18"/></g><g><path fill="#ff7892" d="M34 14c0-2.76-2.24-5-5-5s-5 2.24-5 5 2.24 5 5 5 5-2.24 5-5"/></g><g><path fill="#ff7892" d="M12 14c0-2.76-2.24-5-5-5s-5 2.24-5 5 2.24 5 5 5 5-2.24 5-5"/></g><g><path fill="none" stroke="#664500" stroke-width="2" d="M21 25s5 1 8-2" stroke-linecap="round" stroke-linejoin="round"/></g><g><path fill="none" stroke="#664500" stroke-width="2" d="M15 25s-5 1-8-2" stroke-linecap="round" stroke-linejoin="round"/></g><g><path fill="none" stroke="#664500" stroke-width="2" d="M20 19s4 1 6-1" stroke-linecap="round" stroke-linejoin="round"/></g><g><path fill="none" stroke="#664500" stroke-width="2" d="M16 19s-4 1-6-1" stroke-linecap="round" stroke-linejoin="round"/></g><g><path fill="#664500" d="M13 11s1-4 5-4 5 4 5 4-1-1-5-1-5 1-5 1"/></g><g><path fill="none" stroke="#664500" d="M13 11s1-4 5-4 5 4 5 4-1-1-5-1-5 1-5 1z" stroke-linecap="round" stroke-linejoin="round"/></g></g></g></g></svg>