<svg xmlns="http://www.w3.org/2000/svg" viewBox="0 0 45 45" enable-background="new 0 0 45 45"><defs><clipPath id="a"><path d="M0 36h36V0H0v36z"/></clipPath></defs><g><g><g clip-path="url(#a)" transform="matrix(1.25 0 0 -1.25 0 45)"><g><path fill="#9266cc" d="M36 4c0-2.2-1.8-4-4-4H4C1.8 0 0 1.8 0 4v28c0 2.2 1.8 4 4 4h28c2.2 0 4-1.8 4-4V4z"/></g><g><path fill="#fff" d="M18 20.5c-3.03 0-5.5-2.47-5.5-5.5s2.47-5.5 5.5-5.5 5.5 2.47 5.5 5.5-2.47 5.5-5.5 5.5m0-14c-4.7 0-8.5 3.8-8.5 8.5s3.8 8.5 8.5 8.5 8.5-3.8 8.5-8.5-3.8-8.5-8.5-8.5"/></g><g><path fill="#fff" d="M18 20.5c-5.1 0-7.58 2.8-8.13 3.5-.48.46-1.82 1.5-2.87 1.5-1.3 0-1.94-.56-1.97-.6-.6-.53-1.54-.5-2.1.08-.56.6-.57 1.5 0 2.08.16.15 1.52 1.44 4.07 1.44 2.55 0 4.8-2.2 5.06-2.44.07-.07.13-.15.2-.23.05-.08 1.68-2.33 5.74-2.33 4.08 0 5.74 2.3 5.75 2.33.06.08.12.16.2.23.24.25 2.5 2.44 5.05 2.44s3.9-1.3 4.06-1.44c.6-.58.6-1.53 0-2.12-.6-.6-1.54-.6-2.12 0 0 0-.65.56-1.94.56-1.05 0-2.38-1.04-2.87-1.5-.55-.7-3.02-3.5-8.13-3.5"/></g></g></g></g></svg>