<svg xmlns="http://www.w3.org/2000/svg" viewBox="0 0 45 45" enable-background="new 0 0 45 45"><defs><clipPath id="a"><path d="M0 36h36V0H0v36z"/></clipPath></defs><g><g><g clip-path="url(#a)" transform="matrix(1.25 0 0 -1.25 0 45)"><g><path fill="#9266cc" d="M36 4c0-2.2-1.8-4-4-4H4C1.8 0 0 1.8 0 4v28c0 2.2 1.8 4 4 4h28c2.2 0 4-1.8 4-4V4z"/></g><g><path fill="#fff" d="M12 18.5c-1.93 0-3.5-1.57-3.5-3.5s1.57-3.5 3.5-3.5 3.5 1.57 3.5 3.5-1.57 3.5-3.5 3.5m0-10c-3.58 0-6.5 2.92-6.5 6.5s2.92 6.5 6.5 6.5 6.5-2.92 6.5-6.5-2.92-6.5-6.5-6.5"/></g><g><path fill="#fff" d="M25.55 6.23c-.65 0-1.33.12-2.03.35-1.65.55-2.78 1.78-3.18 3.46-.64 2.7.74 6.16 3.6 9.02 1.9 1.9 2.75 4.63 2 6.45-.7 1.66-2.52 2-3.94 2-2.17 0-4.5-1.4-4.5-3.5 0-1.82.4-2.8.8-3.86.62-1.58 1.26-3.22.12-6.6-.26-.8-1.1-1.23-1.9-.96-.78.26-1.2 1.1-.94 1.9.8 2.36.46 3.2-.08 4.57-.44 1.14-1 2.56-1 4.95 0 4 3.9 6.5 7.5 6.5 4.45 0 6.1-2.4 6.7-3.84 1.22-2.95.14-6.94-2.64-9.72-2.38-2.38-3.12-4.84-2.8-6.2.16-.68.55-1.1 1.2-1.32.92-.3 1.7-.24 2.3.18.45.33.74.87.74 1.4 0 .83.67 1.5 1.5 1.5s1.5-.67 1.5-1.5c0-1.5-.74-2.94-2-3.83-.85-.62-1.86-.94-2.95-.94"/></g></g></g></g></svg>