<svg xmlns="http://www.w3.org/2000/svg" viewBox="0 0 45 45" enable-background="new 0 0 45 45"><defs><clipPath id="a"><path d="M0 36h36V0H0v36z"/></clipPath></defs><g><g><g clip-path="url(#a)" transform="matrix(1.25 0 0 -1.25 0 45)"><g><path fill="#9266cc" d="M36 4c0-2.2-1.8-4-4-4H4C1.8 0 0 1.8 0 4v28c0 2.2 1.8 4 4 4h28c2.2 0 4-1.8 4-4V4z"/></g><g><path fill="#fff" d="M25.88 13.5c-.38-1.23-1.38-2.34-2.6-3.3-.45 1.48-.65 2.96-.27 4.18.74 2.35 2 3.6 2.9 4.24.38-1.03.7-2.78-.02-5.13m2.86-.9c1.7 5.48-.95 8.83-1.06 8.97l-.63.77-.96-.28c-.12-.03-1.57-.5-3.1-1.98V25c0 3.98-1.78 4.94-3.27 5.3-1.46.34-2.97-.3-4.02-1.28-.6.75-1.3 1.1-1.97 1.27-1.46.34-2.96-.3-4-1.27C8.7 30.38 7.38 30.5 7 30.5c-.83 0-1.5-.67-1.5-1.5s.67-1.5 1.5-1.5c.13 0 .83-.5 1-2.5V13c0-.83.67-1.5 1.5-1.5s1.5.67 1.5 1.5v13.1c0 .82.67 1.5 1.5 1.5s1.5-.68 1.5-1.5V13c0-.83.67-1.5 1.5-1.5s1.5.67 1.5 1.5v13.1c0 .82.67 1.5 1.5 1.5s1.5-.68 1.5-1.5V14.66c-.43-2 0-4.16.7-6.13C19.32 7.8 18 7.24 17.2 7c-.8-.28-1.22-1.12-.96-1.9.26-.8 1.1-1.22 1.9-.96.15.05 1.8.6 3.8 1.66C22.95 3.82 24 2.42 24.1 2.3c.3-.4.76-.6 1.2-.6.33 0 .64.1.92.3.66.5.78 1.45.28 2.1-.5.68-1.3 1.87-2.02 3.27 1.87 1.34 3.6 3.1 4.26 5.23"/></g></g></g></g></svg>