<svg xmlns="http://www.w3.org/2000/svg" viewBox="0 0 45 45" enable-background="new 0 0 45 45"><defs><clipPath id="a"><path d="M0 36h36V0H0v36z"/></clipPath></defs><g><g><g clip-path="url(#a)" transform="matrix(1.25 0 0 -1.25 0 45)"><g><path fill="#9266cc" d="M36 4c0-2.2-1.8-4-4-4H4C1.8 0 0 1.8 0 4v28c0 2.2 1.8 4 4 4h28c2.2 0 4-1.8 4-4V4z"/></g><g><path fill="#fff" d="M28.5 30H17c-.83 0-1.5-.67-1.5-1.5S16.17 27 17 27h7.88L13 15.12l-3.94 3.94c-.6.6-1.54.6-2.12 0-.6-.58-.6-1.53 0-2.12L10.88 13 5.94 8.06c-.6-.6-.6-1.54 0-2.12.3-.3.68-.44 1.06-.44s.77.15 1.06.44L13 10.88l3.94-3.94c.3-.3.68-.44 1.06-.44s.77.15 1.06.44c.6.6.6 1.54 0 2.12L15.12 13 27 24.88V17c0-.83.67-1.5 1.5-1.5s1.5.67 1.5 1.5v11.5c0 .83-.67 1.5-1.5 1.5"/></g></g></g></g></svg>