<svg xmlns="http://www.w3.org/2000/svg" viewBox="0 0 45 45" enable-background="new 0 0 45 45"><defs><clipPath id="a"><path d="M0 36h36V0H0v36z"/></clipPath></defs><g><g><g clip-path="url(#a)" transform="matrix(1.25 0 0 -1.25 0 45)"><g><path fill="#9266cc" d="M36 4c0-2.2-1.8-4-4-4H4C1.8 0 0 1.8 0 4v28c0 2.2 1.8 4 4 4h28c2.2 0 4-1.8 4-4V4z"/></g><g><path fill="#fff" d="M25.97 10.1c-1.16-.1-2.57.2-3.2 1.37.48 1.26 1.63 2 3.23 2 1 0 2.5-.4 2.5-1.5 0-1.06-1.27-1.74-2.53-1.86m.03 6.37c-1.62 0-3.03-.48-4.12-1.32-.44 2.18-1.12 5.42-1.9 9.13-1.1 5.03-3.72 6.1-5.2 6.3-1.72.2-3.44-.55-4.78-2-1.04 1.75-2.57 1.9-3 1.9-.83 0-1.5-.68-1.5-1.5 0-.84.67-1.5 1.5-1.5.16 0 1-.66 1-3.5v-11c0-.84.67-1.5 1.5-1.5s1.5.66 1.5 1.5V23.8c0 1.33.55 3.8 2.95 3.8 1.47 0 2.6-1.63 3.08-3.95 1.45-6.75 2.5-11.92 2.5-11.98.66-3.64-2.1-4.23-3.53-4.2-.83.02-1.5-.67-1.5-1.5s.67-1.5 1.5-1.5c2.57 0 5.17 1.2 6.12 3.5 1.25-.73 2.76-1 4.14-.85 3.1.3 5.24 2.3 5.24 4.85 0 2.6-2.3 4.5-5.5 4.5"/></g></g></g></g></svg>