<svg xmlns="http://www.w3.org/2000/svg" viewBox="0 0 45 45" enable-background="new 0 0 45 45"><defs><clipPath id="a"><path d="M0 36h36V0H0v36z"/></clipPath></defs><g><g><g clip-path="url(#a)" transform="matrix(1.25 0 0 -1.25 0 45)"><g><path fill="#292f33" d="M32.8 15.66C32.8 24.54 18 35.8 18 35.8S3.2 24.54 3.2 15.66c0-6.94 8.18-10.17 12.77-5.17C15.63 6.3 11.25 3 7 3h.5C6.67 3 6 2.33 6 1.5S6.67 0 7.5 0h21c.83 0 1.5.67 1.5 1.5S29.33 3 28.5 3h.5c-4.25 0-8.63 3.3-8.97 7.5 4.6-5 12.77-1.78 12.77 5.16"/></g></g></g></g></svg>