<svg xmlns="http://www.w3.org/2000/svg" viewBox="0 0 45 45" enable-background="new 0 0 45 45"><defs><clipPath id="a"><path d="M0 36h36V0H0v36z"/></clipPath></defs><g><g><g clip-path="url(#a)" transform="matrix(1.25 0 0 -1.25 0 45)"><g><path fill="#292f33" d="M25.5 8c4.14 0 7.5 3.36 7.5 7.5 0 4.14-3.36 7.5-7.5 7.5-1.36 0-2.63-.37-3.73-1h-.2c2.04 1.22 3.4 3.44 3.4 6 0 3.86-3.1 6.98-6.97 6.98-3.86 0-6.98-3.12-6.98-6.98 0-2.56 1.37-4.78 3.42-6h-.2c-1.1.63-2.38 1-3.74 1C6.36 23 3 19.64 3 15.5 3 11.36 6.36 8 10.5 8c2.15 0 4.1.9 5.46 2.37C15.56 6.25 11.2 3 7 3h.5C6.67 3 6 2.33 6 1.5S6.67 0 7.5 0h21c.83 0 1.5.67 1.5 1.5S29.33 3 28.5 3h.5c-4.2 0-8.55 3.25-8.96 7.37C21.4 8.9 23.34 8 25.5 8"/></g></g></g></g></svg>