<svg xmlns="http://www.w3.org/2000/svg" viewBox="0 0 45 45" enable-background="new 0 0 45 45"><defs><clipPath id="a"><path d="M0 36h36V0H0v36z"/></clipPath></defs><g><g><g clip-path="url(#a)" transform="matrix(1.25 0 0 -1.25 0 45)"><g><path fill="#d67909" d="M6.8 2.72c-1.15-1.17-3-1.22-4.1-.12-1.1 1.1-1.05 2.95.1 4.12L26.1 30c1.17 1.15 3.02 1.2 4.12.1 1.1-1.1 1.05-2.95-.12-4.1L6.8 2.7z"/></g><g><path fill="#d67909" d="M32.59 28.34c.77.78.77 2.05-.02 2.83l-1.4 1.42c-.8.77-2.06.77-2.84 0-.78-.8-.78-2.06 0-2.84l1.42-1.42c.78-.78 2.04-.78 2.82 0"/></g><g><path fill="#d67909" d="M32.59 28.34c.77.78.77 2.05-.02 2.83l-1.4 1.42c-.8.77-2.06.77-2.84 0-.78-.8-.78-2.06 0-2.84l1.42-1.42c.78-.78 2.04-.78 2.82 0"/></g><g><path fill="#66757f" d="M35.8 22.58c-.26 1.76-.4 4.35-3.2 7.18l-.72.7-4.95 4.95c-.78.8-2.05.8-2.83 0l-3.54-3.52c-.78-.78-.78-2.05 0-2.83l6.37-6.36 2.12-2.14 1.4-1.4c1.04-1.04 3.33-3.32 4.73-1.92.78.77.96 2.86.6 5.34"/></g><g><path fill="#f4900c" d="M29.2 2.72c1.15-1.17 3-1.22 4.1-.12 1.1 1.1 1.05 2.95-.1 4.12L9.9 30c-1.17 1.15-3.02 1.2-4.12.1-1.1-1.1-1.05-2.95.12-4.1L29.2 2.7z"/></g><g><path fill="#f4900c" d="M3.42 28.34c-.8.78-.8 2.05 0 2.83l1.4 1.42c.8.77 2.06.77 2.84 0 .78-.8.78-2.06 0-2.84l-1.42-1.42c-.78-.78-2.04-.78-2.82 0"/></g><g><path fill="#66757f" d="M4.12 20.56c.78-.78 2.05-.78 2.83 0l8.5 8.5c.77.77.77 2.04 0 2.82L11.9 35.4c-.78.8-2.05.8-2.83 0L.6 26.94c-.8-.78-.8-2.05 0-2.83l3.52-3.54z"/></g></g></g></g></svg>