<svg xmlns="http://www.w3.org/2000/svg" viewBox="0 0 45 45" enable-background="new 0 0 45 45"><defs><clipPath id="a"><path d="M0 36h36V0H0v36z"/></clipPath></defs><g><g><g clip-path="url(#a)" transform="matrix(1.25 0 0 -1.25 0 45)"><g><path fill="#9266cc" d="M36 4c0-2.2-1.8-4-4-4H4C1.8 0 0 1.8 0 4v28c0 2.2 1.8 4 4 4h28c2.2 0 4-1.8 4-4V4z"/></g><g><path fill="#fff" d="M20.5 31.5c0-1.38-1.12-2.5-2.5-2.5s-2.5 1.12-2.5 2.5S16.62 34 18 34s2.5-1.12 2.5-2.5"/></g><g><path fill="#fff" d="M17.47 17.73c3.1.22 9.6.67 9.6 3.6 0 3-6.35 3.2-9.06 3.3l-.3.02c-10.3.43-8.53 2.9-7.56 2.9.27-.24 1.2-.95 2.7-.95.53 0 1.08.1 1.63.25.1.03.17.1.17.2s-.05.2-.15.23l-1.47.57 2.27.45c.08.02.15.07.18.14s.02.15-.03.2c-.05.08-1.27 1.82-3.35 1.82-2.85 0-5.14-1.5-5.14-4.04 0-3.1 7.32-3.96 10.6-3.96 6.27 0 6.6-.84 6.6-1 0-.9-2.24-1.42-6.63-1.6-4.7-.17-7.73-1.5-7.73-3.36 0-1.76 2.27-2.8 7.6-3.5 2.42-.33 5.3-.86 5.3-1.6 0 0-.24-.98-5.22-1.6-4.65-.6-5.24-1.68-5.24-2.57 0-1.2 1.7-2.02 5.34-2.58 2.78-.43 3.55-1.42 3.93-1.9.17-.2.3-.35.5-.35.03 0 .08 0 .1 0 .2.06.32.28.3.6 0 .24-.23 2.35-4.52 3C15.2 6.4 15 7.05 15 7.24c0 .1.12.58 2.45.9.33.03 7.96.63 7.96 3.33 0 2.2-4.45 3.02-8.38 3.73-2 .36-4.46.8-4.46 1.27 0 .42.85.98 4.9 1.26"/></g><g><path fill="#9266cc" d="M13.07 29.1c0-.24-.34-.44-.76-.44-.4 0-.75.2-.75.44s.34.44.76.44c.43 0 .77-.2.77-.44"/></g><path fill="#9266cc" d="M16 11.4h1V7.5h-1v3.87z"/><path fill="#9266cc" d="M19 11.4h1V7.5h-1v3.87z"/><path fill="#9266cc" d="M16 20.93h1v-3.88h-1v3.88z"/><path fill="#9266cc" d="M19 20.93h1v-3.88h-1v3.88z"/><g><path fill="#fff" d="M17 16.2l2-.4v8.55c-.38.02-1.26.05-2 .1v-8.26z"/></g><g><path fill="#fff" d="M19 14.2l-2 .38V7.12c.54-.06 1.44-.27 2-.4v7.5z"/></g><g><path fill="#fff" d="M17 5.66V3c0-.55.45-1 1-1s1 .45 1 1v2.26c-.87.2-1.42.28-2 .4"/></g><g><path fill="#fff" d="M19 25.56v5.1c0 .56-.45 1-1 1s-1-.44-1-1v-5l2-.1z"/></g></g></g></g></svg>