<svg xmlns="http://www.w3.org/2000/svg" viewBox="0 0 45 45" enable-background="new 0 0 45 45"><defs><clipPath id="a"><path d="M0 36h36V0H0v36z"/></clipPath></defs><g><g><g clip-path="url(#a)" transform="matrix(1.25 0 0 -1.25 0 45)"><g><path fill="#e1e8ed" d="M29 19.5C29 12.04 22.96 6 15.5 6S2 12.04 2 19.5 8.04 33 15.5 33 29 26.96 29 19.5"/></g><g><path fill="#8ccaf7" d="M4 19c.23-6.16 5.28-11.1 11.5-11.1S26.77 12.84 27 19H4z"/></g><g><path fill="#67757f" d="M30 12c0-1.1-.9-2-2-2H3c-1.1 0-2 .9-2 2s.9 2 2 2h25c1.1 0 2-.9 2-2"/></g><g><path fill="#67757f" d="M16 2c0-.55-.45-1-1-1s-1 .45-1 1v8c0 .55.45 1 1 1s1-.45 1-1V2z"/></g><g><path fill="#67757f" d="M2.94 1.66c-.18-.52-.76-.8-1.28-.6-.52.18-.8.76-.6 1.28l3 8.4c.18.5.75.78 1.27.6.52-.2.8-.76.6-1.28l-3-8.4z"/></g><g><path fill="#67757f" d="M28.06 1.66c.18-.52.76-.8 1.28-.6.52.18.8.76.6 1.28L26.9 10.8c-.18.53-.76.8-1.28.62-.5-.2-.8-.76-.6-1.28l3.04-8.48z"/></g><g><path fill="#e1e8ed" d="M19 32.5s13-4.56 14.38-5c3.62-1.17 2.12-5.08-.38-4.46C28.05 24.28 19 27 18 27s1 5.5 1 5.5"/></g><g><path fill="#9aaab4" d="M29 13c0-.55-.45-1-1-1H3c-.55 0-1 .45-1 1s.45 1 1 1h25c.55 0 1-.45 1-1"/></g></g></g></g></svg>