<svg xmlns="http://www.w3.org/2000/svg" viewBox="0 0 36 36"><circle fill="#E1E8ED" cx="15.5" cy="16.5" r="13.5"/><path fill="#8CCAF7" d="M4 17c.226 6.164 5.281 11.096 11.5 11.096S26.774 23.164 27 17H4z"/><path fill="#67757F" d="M30 24c0 1.104-.896 2-2 2H3c-1.104 0-2-.896-2-2s.896-2 2-2h25c1.104 0 2 .896 2 2z"/><path fill="#67757F" d="M16 34c0 .553-.448 1-1 1s-1-.447-1-1v-8c0-.553.448-1 1-1s1 .447 1 1v8zm-13.058.336c-.186.521-.758.791-1.278.605-.52-.186-.791-.758-.605-1.278l2.997-8.391c.186-.52.758-.791 1.278-.605.52.186.792.758.605 1.278l-2.997 8.391zm25.117 0c.186.521.758.791 1.277.605.52-.186.791-.758.606-1.278l-3.039-8.474c-.185-.521-.758-.791-1.277-.606-.52.186-.791.758-.605 1.278l3.038 8.475z"/><path fill="#E1E8ED" d="M19 3.5s12.995 4.556 14.375 5C37 9.667 35.5 13.583 33 12.958 28.054 11.722 19 9 18 9s1-5.5 1-5.5z"/><path fill="#9AAAB4" d="M29 23c0 .553-.447 1-1 1H3c-.552 0-1-.447-1-1 0-.553.448-1 1-1h25c.553 0 1 .447 1 1z"/></svg>