<svg xmlns="http://www.w3.org/2000/svg" viewBox="0 0 45 45" enable-background="new 0 0 45 45"><defs><clipPath id="a"><path d="M0 36h36V0H0v36z"/></clipPath></defs><g><g><g clip-path="url(#a)" transform="matrix(1.25 0 0 -1.25 0 45)"><g><path fill="#66757f" d="M18 10c-4.42 0-8 3.58-8 8s3.58 8 8 8 8-3.58 8-8-3.58-8-8-8m16 11h-3.36c-.33 1.37-.87 2.65-1.58 3.8l2.37 2.4c.8.77.8 2.04 0 2.82l-1.4 1.42c-.8.78-2.06.78-2.84 0l-2.4-2.38c-1.15.7-2.43 1.25-3.8 1.58V34c0 1.1-.9 2-2 2h-2c-1.1 0-2-.9-2-2v-3.36c-1.37-.33-2.65-.87-3.8-1.58l-2.4 2.37c-.77.8-2.04.8-2.82 0l-1.42-1.4c-.78-.8-.78-2.06 0-2.84l2.38-2.4c-.72-1.15-1.25-2.43-1.58-3.8H2c-1.1 0-2-.9-2-2v-2c0-1.1.9-2 2-2h3.36c.33-1.37.86-2.65 1.58-3.8L4.56 8.8c-.78-.77-.78-2.04 0-2.82L6 4.56c.78-.78 2.05-.78 2.83 0l2.4 2.38c1.15-.72 2.43-1.25 3.8-1.58V2c0-1.1.9-2 2-2h2c1.1 0 2 .9 2 2v3.36c1.37.33 2.65.86 3.8 1.58l2.4-2.38c.77-.78 2.04-.78 2.82 0l1.42 1.42c.78.78.78 2.05 0 2.83l-2.38 2.4c.72 1.15 1.25 2.43 1.58 3.8H34c1.1 0 2 .9 2 2v2c0 1.1-.9 2-2 2"/></g></g></g></g></svg>