<svg xmlns="http://www.w3.org/2000/svg" viewBox="0 0 45 45" enable-background="new 0 0 45 45"><defs><clipPath id="a"><path d="M0 36h36V0H0v36z"/></clipPath></defs><g><g><g clip-path="url(#a)" transform="matrix(1.25 0 0 -1.25 0 45)"><g><path fill="#ffcc4d" d="M2.65 1C.8 1 0 2.34.85 3.97l15.6 30.06c.85 1.63 2.24 1.63 3.1 0l15.6-30.06C36 2.34 35.2 1 33.35 1H2.65z"/></g><g><path fill="#231f20" d="M15.77 25.34c0 1.3.96 2.1 2.23 2.1 1.24 0 2.23-.83 2.23-2.1V13.4c0-1.27-1-2.1-2.23-2.1-1.27 0-2.23.8-2.23 2.1v11.94zm-.2-18.3c0 1.34 1.1 2.42 2.43 2.42s2.42-1.08 2.42-2.4c0-1.35-1.1-2.43-2.42-2.43-1.33 0-2.42 1.08-2.42 2.42"/></g></g></g></g></svg>