<svg xmlns="http://www.w3.org/2000/svg" viewBox="0 0 45 45" enable-background="new 0 0 45 45"><g><g><path fill="#c1694f" d="M22.43 11.9L1.25 37.07 9.2 45l27.78-17.2 5.3-11.92-6.62-6.62-13.23 2.65z"/></g><g><path fill="#662113" d="M1.25 37.06L9.2 45V35l-7.95-7.5v9.56z"/></g><g><path fill="#a04e3c" d="M42.5 6.25v9.63L37 27.78l-.02-9.03L35 10l7.5-3.75z"/></g><g><path fill="#d99e82" d="M35.66 0L22.43 2.65 1.25 27.5l7.94 8.24 27.78-17.2 5.52-12.3L35.66 0z"/></g><g><path fill="none" stroke="#ffac33" stroke-width="2.5" stroke-miterlimit="10" d="M15 36.25l3.75-2.5" stroke-linecap="round" stroke-linejoin="round"/></g><g><path fill="none" stroke="#ffac33" stroke-width="2.5" stroke-miterlimit="10" d="M28.75 27.5L32.5 25" stroke-linecap="round" stroke-linejoin="round"/></g><g><path fill="none" stroke="#c1694f" stroke-width="2.5" stroke-miterlimit="10" d="M26.25 6.25l-18.75 20L11.25 30l22.5-16.25 2.5-6.25-2.5-2.5-7.5 1.25z" stroke-linecap="round" stroke-linejoin="round"/></g></g></svg>