<svg xmlns="http://www.w3.org/2000/svg" viewBox="0 0 36 36"><path fill="#C1694F" d="M33.823 12.706l-4.235 9.529L7.353 36 1 29.647 17.941 9.529l10.588-2.117z"/><path fill="#662113" d="M1 22v7.647L7.353 36v-8z"/><path fill="#A04E3C" d="M34 5v7.706l-4.412 9.529V15L28 8z"/><path fill="#D99E82" d="M34 5l-4.412 9.824L7.353 28.588 1 22 17.941 2.118 28.529 0z"/><path fill="none" stroke="#FFAC33" stroke-width="2" stroke-linecap="round" stroke-linejoin="round" stroke-miterlimit="10" d="M12 29l3-2m8-5l3-2"/><path fill="#C1694F" d="M9 25c-.258 0-.514-.1-.708-.293l-3-3c-.382-.382-.392-.997-.022-1.391l15-16c.15-.16.349-.266.565-.302l6-1c.315-.054.642.05.871.279l2 2c.284.283.371.707.223 1.079l-2 5c-.07.176-.189.328-.343.439l-18 13C9.41 24.938 9.205 25 9 25zm-1.608-4.022l1.713 1.713L26.18 10.359l1.646-4.119-1.169-1.17-5.159.86L7.392 20.978z"/></svg>