<svg xmlns="http://www.w3.org/2000/svg" viewBox="0 0 45 45" enable-background="new 0 0 45 45"><defs><clipPath id="a"><path d="M0 36h36V0H0v36z"/></clipPath></defs><g><g><g clip-path="url(#a)" transform="matrix(1.25 0 0 -1.25 0 45)"><g><path fill="#d99e82" d="M23 2c0-.55-2.7-1.47-6-1.47S11 1.45 11 2c0 .55 2.7 1 6 1s6-.45 6-1"/></g><g><path fill="#c1694f" d="M24 28.92s-1 1.04 0 2.04S25 34 25 34H9.03s0-2.04 1-3.04 0-2.02 0-2.02-5-1.97-5-9.97 5.98-17 5.98-17L17 2h6s6 8.96 6 16.96-5 9.96-5 9.96"/></g><g><path fill="#d99e82" d="M25 34c0-.55-3.58-1-8-1s-8 .45-8 1 3.58 1.75 8 1.75 8-1.2 8-1.75"/></g><g><path fill="#d99e82" d="M17 2.78c-3.33 0-6.14.56-7.25 1.3C10.47 2.78 11 2 11 1.98c.07-.56 2.73-1.45 6-1.45 3.3 0 6 .92 6 1.47 0 0 .52.78 1.24 2.06-1.12-.73-3.93-1.28-7.24-1.28"/></g><g><path fill="#662113" d="M24.16 31.28c-.8-.46-3.7-1-7.16-1s-6.36.54-7.16 1c-.14-.1-.23-.17-.23-.26 0-.58 3.32-1.26 7.4-1.26s7.4.68 7.4 1.26c0 .1-.1.17-.24.26"/></g><g><path fill="#662113" d="M10.4 29.53c2.58-.7 5.4-.8 6.6-.8 1.2 0 4.04.1 6.64.8-.14.4-.16.92.36 1.43-.03 0-.07 0-.1-.02-2.5-.68-7.02-.97-7.02-.97s-4.35.3-6.83.97c.5-.52.48-1.03.34-1.4"/></g><g><path fill="#d99e82" d="M17 17.4c4.8 0 9.22.76 11.96 2.54-.07 1.32-.28 2.45-.58 3.43-.44-.1-.86-.35-1.35-.5-3-1-8.03-1.26-10.03-1.26s-7.05.3-10.05 1.3c-.48.17-.84.38-1.3.47-.33-1.05-.54-2.3-.6-3.75C7.86 18 12.6 17.4 17 17.4"/></g></g></g></g></svg>