<svg xmlns="http://www.w3.org/2000/svg" viewBox="0 0 45 45" enable-background="new 0 0 45 45"><defs><clipPath id="a"><path d="M0 36h36V0H0v36z"/></clipPath><clipPath id="b"><path d="M18 36C8.06 36 0 27.94 0 18S8.06 0 18 0s18 8.06 18 18-8.06 18-18 18z"/></clipPath><clipPath id="c"><path d="M0 36h36V0H0v36z"/></clipPath></defs><g><g><g clip-path="url(#a)" transform="matrix(1.25 0 0 -1.25 0 45)"><g><path fill="#e1e8ed" d="M18 0C8.06 0 0 8.06 0 18s8.06 18 18 18 18-8.06 18-18S27.94 0 18 0"/></g></g></g><g><g clip-path="url(#b)" transform="matrix(1.25 0 0 -1.25 0 45)"><g><path fill="#b3bec4" d="M34 6c4.32 0 7 4.6 7 12s-2.68 12-7 12-7-4.6-7-12 2.68-12 7-12m0 26c4.35 0 9-3.68 9-14S38.35 4 34 4s-9 3.68-9 14 4.65 14 9 14"/></g><g><path fill="#b3bec4" d="M2 6c4.32 0 7 4.6 7 12S6.32 30 2 30s-7-4.6-7-12S-2.32 6 2 6m0 26c4.35 0 9-3.68 9-14S6.35 4 2 4s-9 3.68-9 14 4.65 14 9 14"/></g></g></g><g><g clip-path="url(#c)" transform="matrix(1.25 0 0 -1.25 0 45)"><g><path fill="#dd2e44" d="M5.1 25.84c-.25 0-.47.02-.66.05-.54.1-.9.62-.8 1.16.1.54.63.9 1.17.8.44-.08 2.7 0 3.16 2.27.1.54.63.9 1.17.8.54-.12.9-.65.8-1.2-.6-2.9-3.15-3.9-4.84-3.9"/></g><g><path fill="#dd2e44" d="M6.8 21.88c-.54 0-.96.32-1 .85 0 .56.4.92.96.94 0 0 2.57.04 3.87 2.3.28.47.9.63 1.37.35.48-.28.64-.9.37-1.38-1.86-3.2-5.56-3.06-5.58-3.06"/></g><g><path fill="#dd2e44" d="M9 16.72c-.73 0-1.4.13-1.93.38-.5.23-.7.83-.47 1.33.23.5.83.7 1.33.47.83-.4 2.92-.24 3.73 1.02.3.46.92.6 1.38.3.47-.3.6-.92.3-1.4-.96-1.5-2.77-2.1-4.34-2.1"/></g><g><path fill="#dd2e44" d="M10.16 11.2c-1.55 0-3 .7-3.92 1.47-.43.35-.5.98-.13 1.4.36.43 1 .5 1.42.14.2-.16 1.95-1.56 3.78-.78.5.22 1.1-.02 1.3-.53.22-.52 0-1.1-.52-1.32-.64-.27-1.3-.4-1.92-.4"/></g><g><path fill="#dd2e44" d="M9.75 6h-.03C7.22 6 5.04 7.57 4.2 9.1c-.28.5-.1 1.05.38 1.32s1.1.07 1.36-.4c.48-.88 2-2.14 3.84-2.2.55 0 1-.38.97-.94-.02-.54-.46-.88-1-.88"/></g><g><path fill="#dd2e44" d="M27.2 5.8c-.08 0-.14.02-.2.03-.55.1-.9.64-.8 1.18.67 3.33 3.9 4.16 5.48 3.86.55-.1.9-.63.8-1.17-.1-.55-.6-.9-1.16-.8-.43.07-2.7 0-3.15-2.28-.1-.48-.5-.8-.98-.8"/></g><g><path fill="#dd2e44" d="M24.62 10.3c-.17 0-.34.06-.5.15-.47.27-.64.9-.36 1.36 1.85 3.22 3.98 3.32 5.4 3.38h.1c.54.04 1.02-.4 1.05-.94.04-.56-.4-1.03-.94-1.05l-.1-.02c-1.22-.05-2.46-.1-3.77-2.37-.2-.3-.53-.5-.88-.5"/></g><g><path fill="#dd2e44" d="M23.62 16.38c-.18 0-.37.05-.54.15-.46.3-.6.92-.3 1.38 1.42 2.22 4.66 2.52 6.27 1.75.5-.23.72-.83.48-1.33-.24-.5-.84-.7-1.33-.47-.83.4-2.93.23-3.73-1.02-.2-.3-.52-.45-.85-.45"/></g><g><path fill="#dd2e44" d="M29.25 22.3c-.23 0-.45.1-.64.24-.2.17-1.94 1.56-3.77.8-.5-.23-1.1 0-1.3.52-.23.5 0 1.1.52 1.3 2.22.95 4.53 0 5.84-1.08.4-.35.47-.98.12-1.4-.2-.24-.48-.37-.77-.37"/></g><g><path fill="#dd2e44" d="M31.06 26.25c-.35 0-.7.2-.87.5-.5.9-2 2.14-3.85 2.2-.56 0-1 .5-.98 1.05.02.54.46 1 1 1h.03c2.5 0 4.68-1.7 5.54-3.23.27-.5.1-1.1-.4-1.38-.15-.1-.3-.15-.48-.15"/></g></g></g></g></svg>