<svg xmlns="http://www.w3.org/2000/svg" viewBox="0 0 45 45" enable-background="new 0 0 45 45"><defs><clipPath id="a"><path d="M0 36h36V0H0v36z"/></clipPath></defs><g><g><g clip-path="url(#a)" transform="matrix(1.25 0 0 -1.25 0 45)"><g><path fill="#e1e8ed" d="M8 10c0 5.52 4.48 10 10 10s10-4.48 10-10S23.52 0 18 0 8 4.48 8 10"/></g><g><path fill="#e1e8ed" d="M12 25c0 3.3 2.7 6 6 6s6-2.7 6-6-2.7-6-6-6-6 2.7-6 6"/></g><g><path fill="#414042" d="M23 30c0-1.1-.9-2-2-2h-6c-1.1 0-2 .9-2 2v4c0 1.1.9 2 2 2h6c1.1 0 2-.9 2-2v-4z"/></g><g><path fill="#231f20" d="M25 29c0-.55-.45-1-1-1H12c-.55 0-1 .45-1 1s.45 1 1 1h12c.55 0 1-.45 1-1"/></g><g><path fill="#dd2e44" d="M22.5 21h-9c-.83 0-1.5-.67-1.5-1.5 0-.65.42-1.2 1-1.4V11c0-.55.45-1 1-1h1c.55 0 1 .45 1 1v7h6.5c.83 0 1.5.67 1.5 1.5s-.67 1.5-1.5 1.5"/></g><g><path fill="#414042" d="M19 12c0-.55-.45-1-1-1s-1 .45-1 1 .45 1 1 1 1-.45 1-1"/></g><g><path fill="#414042" d="M19 7c0-.55-.45-1-1-1s-1 .45-1 1 .45 1 1 1 1-.45 1-1"/></g><g><path fill="#f4900c" d="M19 24c0-.55-.45-1-1-1s-1 .45-1 1 .45 1 1 1 1-.45 1-1"/></g><g><path fill="#414042" d="M16 26c0-.55-.45-1-1-1s-1 .45-1 1 .45 1 1 1 1-.45 1-1"/></g><g><path fill="#414042" d="M22 26c0-.55-.45-1-1-1s-1 .45-1 1 .45 1 1 1 1-.45 1-1"/></g><g><path fill="#ffac33" d="M10.4 15.92L6.93 17.4l-.55 2.86c-.1.55-.63.9-1.18.8-.54-.1-.9-.63-.8-1.17l.3-1.55-1.33.57c-.5.22-1.1-.02-1.32-.53-.22-.5.02-1.1.53-1.32l.75-.32L2.3 15.7c-.4-.38-.4-1.02 0-1.4.2-.2.44-.3.7-.3.26 0 .5.1.7.3l1.63 1.6L9.6 14.1c.13-.05.27-.08.4-.08.4 0 .76.23.92.6.22.5-.02 1.1-.53 1.32"/></g><g><path fill="#ffac33" d="M33.32 18.95l-1.47.5.86.84c.4.38.4 1.02 0 1.4-.38.4-1.02.4-1.4 0l-.76-.75-.57 2.3c-.13.53-.68.86-1.2.72-.55-.13-.87-.68-.74-1.2l.86-3.46-3.6-3.6c-.4-.38-.4-1.02 0-1.4.2-.2.44-.3.7-.3.26 0 .5.1.7.3l3.57 3.56 2.4-.8c.12-.04.23-.06.33-.06.42 0 .8.26.95.68.17.53-.1 1.1-.63 1.27"/></g></g></g></g></svg>