<svg xmlns="http://www.w3.org/2000/svg" viewBox="0 0 45 45" enable-background="new 0 0 45 45"><defs><clipPath id="a"><path d="M0 36h36V0H0v36z"/></clipPath></defs><g><g><g clip-path="url(#a)" transform="matrix(1.25 0 0 -1.25 0 45)"><g><path fill="#ffac33" d="M14 34s0 2 2 2 2-2 2-2v-2s0-2-2-2-2 2-2 2v2z"/></g><g><path fill="#ffac33" d="M30 22s2 0 2-2-2-2-2-2h-2s-2 0-2 2 2 2 2 2h2z"/></g><g><path fill="#ffac33" d="M4 22s2 0 2-2-2-2-2-2H2s-2 0-2 2 2 2 2 2h2z"/></g><g><path fill="#ffac33" d="M7.87 29.96s1.42-1.42 0-2.83c-1.4-1.42-2.83 0-2.83 0l-1.4 1.4s-1.43 1.43 0 2.84c1.4 1.42 2.82 0 2.82 0l1.4-1.4z"/></g><g><path fill="#ffac33" d="M26.96 27.13s-1.42-1.42-2.83 0c-1.4 1.4 0 2.83 0 2.83l1.4 1.4s1.43 1.42 2.84 0c1.42-1.4 0-2.82 0-2.82l-1.4-1.4z"/></g><g><path fill="#ffac33" d="M25 20c0 4.97-4.03 9-9 9s-9-4.03-9-9 4.03-9 9-9 9 4.03 9 9"/></g><g><path fill="#e1e8ed" d="M28 16c-.82 0-1.62-.13-2.37-.36-.9 2.54-3.3 4.36-6.13 4.36-3.04 0-5.6-2.1-6.3-4.92-.75.57-1.68.92-2.7.92C8.02 16 6 13.98 6 11.5c0-.6.12-1.18.34-1.7-.43.1-.87.2-1.34.2-2.76 0-5-2.24-5-5s2.24-5 5-5h23c4.42 0 8 3.58 8 8s-3.58 8-8 8"/></g></g></g></g></svg>