<svg xmlns="http://www.w3.org/2000/svg" viewBox="0 0 45 45" enable-background="new 0 0 45 45"><defs><clipPath id="a"><path d="M0 36h36V0H0v36z"/></clipPath></defs><g><g><g clip-path="url(#a)" transform="matrix(1.25 0 0 -1.25 0 45)"><g><path fill="#f4900c" d="M29.2 2.72c1.15-1.17 3-1.22 4.1-.12 1.1 1.1 1.05 2.95-.1 4.12L9.9 30c-1.17 1.15-3.02 1.2-4.12.1-1.1-1.1-1.05-2.95.12-4.1L29.2 2.7z"/></g><g><path fill="#f4900c" d="M3.42 28.34c-.8.78-.8 2.05 0 2.83l1.4 1.42c.8.77 2.06.77 2.84 0 .78-.8.78-2.06 0-2.84l-1.42-1.42c-.78-.78-2.04-.78-2.82 0"/></g><g><path fill="#66757f" d="M23 35c-1.86.74-11 3-18-4S.26 14.86 1 13c2-5 1.67 1.06 2 3 1 5.97 3.82 9.18 5.82 11.18 2 2 5.23 4.8 11.18 5.82 1.92.33 8 0 3 2"/></g></g></g></g></svg>