<?xml version="1.0" encoding="UTF-8" standalone="no"?><svg xmlns:dc="http://purl.org/dc/elements/1.1/" xmlns:cc="http://creativecommons.org/ns#" xmlns:rdf="http://www.w3.org/1999/02/22-rdf-syntax-ns#" xmlns:svg="http://www.w3.org/2000/svg" xmlns="http://www.w3.org/2000/svg" viewBox="0 0 45 45" style="enable-background:new 0 0 45 45;" xml:space="preserve" version="1.1" id="svg2"><metadata id="metadata8"><rdf:RDF><cc:Work rdf:about=""><dc:format>image/svg+xml</dc:format><dc:type rdf:resource="http://purl.org/dc/dcmitype/StillImage"/></cc:Work></rdf:RDF></metadata><defs id="defs6"><clipPath id="clipPath16" clipPathUnits="userSpaceOnUse"><path id="path18" d="M 0,36 36,36 36,0 0,0 0,36 Z"/></clipPath></defs><g transform="matrix(1.25,0,0,-1.25,0,45)" id="g10"><g id="g12"><g clip-path="url(#clipPath16)" id="g14"><g transform="translate(33,2)" id="g20"><path id="path22" style="fill:#c6d5db;fill-opacity:1;fill-rule:nonzero;stroke:none" d="m 0,0 0,-2 -3.021,0 0,2 c 0,1.657 -1.353,3 -3.021,3 l 0,3 C -2.705,6 0,3.313 0,0"/></g><g transform="translate(27.5459,6)" id="g24"><path id="path26" style="fill:#e1e8ed;fill-opacity:1;fill-rule:nonzero;stroke:none" d="m 0,0 c -0.173,0 -0.338,-0.026 -0.504,-0.051 l 0,-0.949 0,-0.009 C 1.124,-1.054 2.434,-2.371 2.434,-4 l 0,-2 1.09,0 0,2.5 C 3.524,-1.567 1.945,0 0,0"/></g><g transform="translate(21,2)" id="g28"><path id="path30" style="fill:#e1e8ed;fill-opacity:1;fill-rule:nonzero;stroke:none" d="m 0,0 0,-2 3.021,0 0,2 c 0,1.657 1.353,3 3.021,3 l 0,3 C 2.705,6 0,3.313 0,0"/></g><g transform="translate(26.5381,6)" id="g32"><path id="path34" style="fill:#c6d5db;fill-opacity:1;fill-rule:nonzero;stroke:none" d="m 0,0 c 0.173,0 0.338,-0.026 0.504,-0.051 l 0,-0.949 0,-0.009 C -1.124,-1.054 -2.434,-2.371 -2.434,-4 l 0,-2 -1.09,0 0,2.5 C -3.524,-1.567 -1.945,0 0,0"/></g><g transform="translate(33,34)" id="g36"><path id="path38" style="fill:#c6d5db;fill-opacity:1;fill-rule:nonzero;stroke:none" d="m 0,0 0,2 -3.021,0 0,-2 c 0,-1.657 -1.354,-3 -3.021,-3 l 0,-3 C -2.706,-6 0,-3.313 0,0"/></g><g transform="translate(27.5449,30)" id="g40"><path id="path42" style="fill:#e1e8ed;fill-opacity:1;fill-rule:nonzero;stroke:none" d="m 0,0 c -0.172,0 -0.337,0.026 -0.503,0.051 l 0,0.949 0,0.008 C 1.125,1.054 2.434,2.371 2.434,4 l 0,2 1.09,0 0,-2.5 C 3.524,1.567 1.946,0 0,0"/></g><g transform="translate(21,34)" id="g44"><path id="path46" style="fill:#e1e8ed;fill-opacity:1;fill-rule:nonzero;stroke:none" d="m 0,0 0,2 3.021,0 0,-2 c 0,-1.657 1.353,-3 3.021,-3 l 0,-3 C 2.705,-6 0,-3.313 0,0"/></g><g transform="translate(26.5381,30)" id="g48"><path id="path50" style="fill:#c6d5db;fill-opacity:1;fill-rule:nonzero;stroke:none" d="m 0,0 c 0.172,0 0.338,0.026 0.504,0.051 l 0,0.949 0,0.008 C -1.125,1.054 -2.434,2.371 -2.434,4 l 0,2 -1.09,0 0,-2.5 C -3.524,1.567 -1.946,0 0,0"/></g><g transform="translate(26.958,26)" id="g52"><path id="path54" style="fill:#c6d5db;fill-opacity:1;fill-rule:nonzero;stroke:none" d="m 0,0 0,-3 c 1.668,0 3.021,-1.343 3.021,-3 l 0,-2 0,-2 c 0,-1.657 -1.353,-3 -3.021,-3 l 0,-3 c 3.337,0 6.042,2.687 6.042,6 l 0,2 0,2 C 6.042,-2.687 3.337,0 0,0"/></g><g transform="translate(27.5459,24)" id="g56"><path id="path58" style="fill:#e1e8ed;fill-opacity:1;fill-rule:nonzero;stroke:none" d="m 0,0 c -0.173,0 -0.338,-0.026 -0.504,-0.051 l 0,-0.949 0,-0.008 C 1.124,-1.054 2.434,-2.371 2.434,-4 l 0,-2 0,-2 c 0,-1.629 -1.31,-2.946 -2.938,-2.991 l 0,-0.009 0,-0.949 C -0.338,-11.974 -0.173,-12 0,-12 c 1.945,0 3.524,1.567 3.524,3.5 l 0,2.5 0,2.5 C 3.524,-1.567 1.945,0 0,0"/></g><g transform="translate(24.0215,20)" id="g60"><path id="path62" style="fill:#e1e8ed;fill-opacity:1;fill-rule:nonzero;stroke:none" d="m 0,0 c 0,1.657 1.353,3 3.021,3 l 0,3 C -0.316,6 -3.021,3.313 -3.021,0 l 0,-2 0,-2 c 0,-3.313 2.705,-6 6.042,-6 l 0,3 C 1.353,-7 0,-5.657 0,-4 l 0,2 0,2 z"/></g><g transform="translate(26.5381,24)" id="g64"><path id="path66" style="fill:#c6d5db;fill-opacity:1;fill-rule:nonzero;stroke:none" d="m 0,0 c -1.945,0 -3.524,-1.567 -3.524,-3.5 l 0,-2.5 0,-2.5 c 0,-1.933 1.579,-3.5 3.524,-3.5 0.173,0 0.338,0.026 0.504,0.051 l 0,0.949 0,0.009 c -1.628,0.045 -2.938,1.362 -2.938,2.991 l 0,2 0,2 c 0,1.629 1.31,2.946 2.938,2.992 l 0,0.008 0,0.949 C 0.338,-0.026 0.173,0 0,0"/></g><g transform="translate(8.958,17)" id="g68"><path id="path70" style="fill:#c6d5db;fill-opacity:1;fill-rule:nonzero;stroke:none" d="m 0,0 0,-3 c 1.668,0 3.021,-1.343 3.021,-3 l 0,-2 0,-2 c 0,-1.657 -1.353,-3 -3.021,-3 l 0,-3 c 3.337,0 6.042,2.687 6.042,6 l 0,2 0,2 C 6.042,-2.687 3.337,0 0,0"/></g><g transform="translate(9.5454,15)" id="g72"><path id="path74" style="fill:#e1e8ed;fill-opacity:1;fill-rule:nonzero;stroke:none" d="m 0,0 c -0.172,0 -0.337,-0.026 -0.503,-0.051 l 0,-0.949 0,-0.009 C 1.125,-1.054 2.434,-2.371 2.434,-4 l 0,-2 0,-2 c 0,-1.629 -1.309,-2.946 -2.937,-2.991 l 0,-0.009 0,-0.949 C -0.337,-11.974 -0.172,-12 0,-12 c 1.946,0 3.524,1.567 3.524,3.5 l 0,2.5 0,2.5 C 3.524,-1.567 1.946,0 0,0"/></g><g transform="translate(6.021,11)" id="g76"><path id="path78" style="fill:#e1e8ed;fill-opacity:1;fill-rule:nonzero;stroke:none" d="m 0,0 c 0,1.657 1.353,3 3.021,3 l 0,3 C -0.316,6 -3.021,3.313 -3.021,0 l 0,-2 0,-2 c 0,-3.313 2.705,-6 6.042,-6 l 0,3 C 1.353,-7 0,-5.657 0,-4 l 0,2 0,2 z"/></g><g transform="translate(8.5386,15)" id="g80"><path id="path82" style="fill:#c6d5db;fill-opacity:1;fill-rule:nonzero;stroke:none" d="m 0,0 c -1.946,0 -3.524,-1.567 -3.524,-3.5 l 0,-2.5 0,-2.5 c 0,-1.933 1.578,-3.5 3.524,-3.5 0.172,0 0.337,0.026 0.503,0.051 l 0,0.949 0,0.009 c -1.628,0.045 -2.937,1.362 -2.937,2.991 l 0,2 0,2 c 0,1.629 1.309,2.946 2.937,2.991 l 0,0.009 0,0.949 C 0.337,-0.026 0.172,0 0,0"/></g><g transform="translate(8.958,35)" id="g84"><path id="path86" style="fill:#c6d5db;fill-opacity:1;fill-rule:nonzero;stroke:none" d="m 0,0 0,-3 c 1.668,0 3.021,-1.343 3.021,-3 l 0,-2 0,-2 c 0,-1.657 -1.353,-3 -3.021,-3 l 0,-3 c 3.337,0 6.042,2.687 6.042,6 l 0,2 0,2 C 6.042,-2.687 3.337,0 0,0"/></g><g transform="translate(9.5454,33)" id="g88"><path id="path90" style="fill:#e1e8ed;fill-opacity:1;fill-rule:nonzero;stroke:none" d="m 0,0 c -0.172,0 -0.337,-0.026 -0.503,-0.051 l 0,-0.949 0,-0.008 C 1.125,-1.054 2.434,-2.371 2.434,-4 l 0,-2 0,-2 c 0,-1.629 -1.309,-2.946 -2.937,-2.992 l 0,-0.008 0,-0.949 C -0.337,-11.974 -0.172,-12 0,-12 c 1.946,0 3.524,1.567 3.524,3.5 l 0,2.5 0,2.5 C 3.524,-1.567 1.946,0 0,0"/></g><g transform="translate(6.021,29)" id="g92"><path id="path94" style="fill:#e1e8ed;fill-opacity:1;fill-rule:nonzero;stroke:none" d="m 0,0 c 0,1.657 1.353,3 3.021,3 l 0,3 C -0.316,6 -3.021,3.313 -3.021,0 l 0,-2 0,-2 c 0,-3.313 2.705,-6 6.042,-6 l 0,3 C 1.353,-7 0,-5.657 0,-4 l 0,2 0,2 z"/></g><g transform="translate(8.5386,33)" id="g96"><path id="path98" style="fill:#c6d5db;fill-opacity:1;fill-rule:nonzero;stroke:none" d="m 0,0 c -1.946,0 -3.524,-1.567 -3.524,-3.5 l 0,-2.5 0,-2.5 c 0,-1.933 1.578,-3.5 3.524,-3.5 0.172,0 0.337,0.026 0.503,0.051 l 0,0.949 0,0.008 c -1.628,0.046 -2.937,1.363 -2.937,2.992 l 0,2 0,2 c 0,1.629 1.309,2.946 2.937,2.992 l 0,0.008 0,0.949 C 0.337,-0.026 0.172,0 0,0"/></g><g transform="translate(29,3)" id="g100"><path id="path102" style="fill:#c6d5db;fill-opacity:1;fill-rule:nonzero;stroke:none" d="m 0,0 c 0,-1.104 -0.896,-2 -2,-2 -1.104,0 -2,0.896 -2,2 l 0,12 c 0,1.104 0.896,2 2,2 1.104,0 2,-0.896 2,-2 L 0,0 Z"/></g><g transform="translate(25,15)" id="g104"><path id="path106" style="fill:#edf1f4;fill-opacity:1;fill-rule:nonzero;stroke:none" d="m 0,0 0,-12 c 0,-1.104 0.896,-2 2,-2 L 2,2 C 0.896,2 0,1.104 0,0"/></g><g transform="translate(29,21)" id="g108"><path id="path110" style="fill:#c6d5db;fill-opacity:1;fill-rule:nonzero;stroke:none" d="m 0,0 c 0,-1.104 -0.896,-2 -2,-2 -1.104,0 -2,0.896 -2,2 l 0,12 c 0,1.104 0.896,2 2,2 1.104,0 2,-0.896 2,-2 L 0,0 Z"/></g><g transform="translate(25,33)" id="g112"><path id="path114" style="fill:#edf1f4;fill-opacity:1;fill-rule:nonzero;stroke:none" d="m 0,0 0,-12 c 0,-1.104 0.896,-2 2,-2 L 2,2 C 0.896,2 0,1.104 0,0"/></g><g transform="translate(11,0)" id="g116"><path id="path118" style="fill:#c6d5db;fill-opacity:1;fill-rule:nonzero;stroke:none" d="m 0,0 -4,0 0,6 c 0,1.104 0.896,2 2,2 1.104,0 2,-0.896 2,-2 L 0,0 Z"/></g><g transform="translate(9,8)" id="g120"><path id="path122" style="fill:#edf1f4;fill-opacity:1;fill-rule:nonzero;stroke:none" d="m 0,0 c -1.104,0 -2,-0.896 -2,-2 l 0,-6 2,0 0,8 z"/></g><g transform="translate(11,12)" id="g124"><path id="path126" style="fill:#c6d5db;fill-opacity:1;fill-rule:nonzero;stroke:none" d="m 0,0 c 0,-1.104 -0.896,-2 -2,-2 -1.104,0 -2,0.896 -2,2 l 0,12 c 0,1.104 0.896,2 2,2 1.104,0 2,-0.896 2,-2 L 0,0 Z"/></g><g transform="translate(7,24)" id="g128"><path id="path130" style="fill:#edf1f4;fill-opacity:1;fill-rule:nonzero;stroke:none" d="m 0,0 0,-12 c 0,-1.104 0.896,-2 2,-2 L 2,2 C 0.896,2 0,1.104 0,0"/></g><g transform="translate(11,36)" id="g132"><path id="path134" style="fill:#c6d5db;fill-opacity:1;fill-rule:nonzero;stroke:none" d="m 0,0 -4,0 0,-6 c 0,-1.104 0.896,-2 2,-2 1.104,0 2,0.896 2,2 l 0,6 z"/></g><g transform="translate(9,28)" id="g136"><path id="path138" style="fill:#edf1f4;fill-opacity:1;fill-rule:nonzero;stroke:none" d="M 0,0 C -1.104,0 -2,0.896 -2,2 L -2,8 0,8 0,0 Z"/></g></g></g></g></svg>
