<svg xmlns="http://www.w3.org/2000/svg" viewBox="0 0 45 45" enable-background="new 0 0 45 45"><defs><clipPath id="a"><path d="M0 36h36V0H0v36z"/></clipPath></defs><g><g><g clip-path="url(#a)" transform="matrix(1.25 0 0 -1.25 0 45)"><g><path fill="#dd2e44" d="M9 27c0 1.1-.9 2-2 2s-2-.9-2-2V3c0-1.1.9-2 2-2s2 .9 2 2v24z"/></g><g><path fill="#dd2e44" d="M31 27c0 1.1-.9 2-2 2s-2-.9-2-2V3c0-1.1.9-2 2-2s2 .9 2 2v24z"/></g><g><path fill="#dd2e44" d="M36 20c0-1.1-.9-2-2-2H2c-1.1 0-2 .9-2 2s.9 2 2 2h32c1.1 0 2-.9 2-2"/></g><g><path fill="#dd2e44" d="M35 29c0-1.1-.78-1.72-2-2 0 0-3-1-15-1S3 27 3 27c-1.27.27-2 .9-2 2s.9 2 2 2h30c1.1 0 2-.9 2-2"/></g><g><path fill="#292f33" d="M35.9 32c0-1.1-.65-1.8-1.9-2 0 0-4-1-16-1S2 30 2 30c-1.17.2-1.9.9-1.9 2s-.2 3 .9 3c0 0 4-2 17-2s17 2 17 2c1.1 0 .9-1.9.9-3"/></g><g><path fill="#dd2e44" d="M20 21c0-1.1-.9-2-2-2s-2 .9-2 2v6c0 1.1.9 2 2 2s2-.9 2-2v-6z"/></g><g><path fill="#292f33" d="M11 2c0-1.1-.9-2-2-2H5C3.9 0 3 .9 3 2s.9 2 2 2h4c1.1 0 2-.9 2-2"/></g><g><path fill="#292f33" d="M33 2c0-1.1-.9-2-2-2h-4c-1.1 0-2 .9-2 2s.9 2 2 2h4c1.1 0 2-.9 2-2"/></g></g></g></g></svg>