<svg xmlns="http://www.w3.org/2000/svg" viewBox="0 0 45 45" enable-background="new 0 0 45 45"><defs><clipPath id="a"><path d="M0 36h36V0H0v36z"/></clipPath><clipPath id="b"><path d="M4 36s-4 0-4-4V4c0-4 4-4 4-4h28c4 0 4 4 4 4v28s0 4-4 4H4z"/></clipPath><clipPath id="c"><path d="M0 15V4c0-4 4-4 4-4h28c4 0 4 4 4 4v3s-7 4-13 10c-4.5 4.5-8 10-10 10S4 18 0 15"/></clipPath></defs><g><g><g clip-path="url(#a)" transform="matrix(1.25 0 0 -1.25 0 45)"><g><path fill="#88c9f9" d="M36 4s0-4-4-4H4S0 0 0 4v28c0 4 4 4 4 4h28c4 0 4-4 4-4V4z"/></g></g></g><g><g clip-path="url(#b)" transform="matrix(1.25 0 0 -1.25 0 45)"><g><path fill="#4b545c" d="M16 12c7 4 11 10 13 10s4-4 7-6c1.67-1.1 0-20 0-20H0S-6.45.4 0 2c4 1 9.22 6.13 16 10"/></g><g><path fill="#292f33" d="M0 15c4 3 11 12 13 12s5.5-5.5 10-10c6-6 13-10 13-10V-4H0s-1.6 17.8 0 19"/></g></g></g><g><g clip-path="url(#c)" transform="matrix(1.25 0 0 -1.25 0 45)"><g><path fill="#5c913b" d="M-1.25 6S1.3 4.5 3 4c1.7-.5 4.5 2 5 2 1 0 4-2 5-2 2 0 4 1 5 1s5-2 6-2c.5 0 2.65 2 4 2 1 0 3.5-1 4-1 1 0 5 .75 5 .83C37 4.93 36-2 36-2H-1l-.25 8z"/></g></g></g></g></svg>