<?xml version="1.0" encoding="UTF-8" standalone="no"?><svg xmlns:dc="http://purl.org/dc/elements/1.1/" xmlns:cc="http://creativecommons.org/ns#" xmlns:rdf="http://www.w3.org/1999/02/22-rdf-syntax-ns#" xmlns:svg="http://www.w3.org/2000/svg" xmlns="http://www.w3.org/2000/svg" viewBox="0 0 45 45" style="enable-background:new 0 0 45 45;" xml:space="preserve" version="1.1" id="svg2"><metadata id="metadata8"><rdf:RDF><cc:Work rdf:about=""><dc:format>image/svg+xml</dc:format><dc:type rdf:resource="http://purl.org/dc/dcmitype/StillImage"/></cc:Work></rdf:RDF></metadata><defs id="defs6"><clipPath id="clipPath16" clipPathUnits="userSpaceOnUse"><path id="path18" d="M 0,36 36,36 36,0 0,0 0,36 Z"/></clipPath></defs><g transform="matrix(1.25,0,0,-1.25,0,45)" id="g10"><g id="g12"><g clip-path="url(#clipPath16)" id="g14"><g transform="translate(19.083,0.5)" id="g20"><path id="path22" style="fill:#292f33;fill-opacity:1;fill-rule:nonzero;stroke:none" d="m 0,0 -6.833,23.208 c 0,0 -1.42,-0.761 -2.604,-1.637 -0.313,-0.231 -1.977,-2.79 -2.313,-3.04 -1.762,-1.315 -3.552,-2.841 -3.792,-3.167 C -16,14.74 -19.083,-0.5 -19.083,-0.5 L 0,0 Z"/></g><g transform="translate(26.5,20.75)" id="g24"><path id="path26" style="fill:#4b545d;fill-opacity:1;fill-rule:nonzero;stroke:none" d="M 0,0 -7.312,9.212 -8.5,13 -13.873,6.516 -14.844,5.344 C -15.25,4.562 -16.5,0 -16.5,0 l -1.25,-4.75 -5.499,-10.055 -2.334,-4.737 L 5.5,-19.75 0,0 Z"/></g><g transform="translate(12,2)" id="g28"><path id="path30" style="fill:#292f33;fill-opacity:1;fill-rule:nonzero;stroke:none" d="M 0,0 2,0 4,15.75 5.234,17.547 8.813,22.781 8.906,24.25 5.619,19.796 3,16.248 0.612,8.886 0,7 -1.791,3.866 -4,0 0,0 Z"/></g><g transform="translate(24.0586,19.6162)" id="g32"><path id="path34" style="fill:#292f33;fill-opacity:1;fill-rule:nonzero;stroke:none" d="m 0,0 -1.965,-5.897 -1.094,-3.719 2.792,-7.625 3.552,0.062 c 0,0 -4.344,6.938 -4.344,7.563 0,0.12 0.625,2.687 0.625,2.687 L 0.66,-2.397 0.941,-0.866 0,0 Z"/></g><g transform="translate(36,0)" id="g36"><path id="path38" style="fill:#292f33;fill-opacity:1;fill-rule:nonzero;stroke:none" d="m 0,0 c 0,0 -0.385,3.845 -0.854,7.083 0,0 -0.146,3.886 -1.271,5.167 -1.05,1.195 -2.624,1.875 -2.833,1.962 l -1.229,3.522 -1.86,5.266 -2.422,2.125 -1.844,1.625 -0.504,0.622 -5.183,6.378 2.289,-7.299 0.523,-1.67 3.247,-5.165 0.66,-2.397 1.437,-2.281 L -9.07,12.236 -8,8.5 -10,2 0,0 Z"/></g><g transform="translate(33.708,3.5625)" id="g40"><path id="path42" style="fill:#5c903f;fill-opacity:1;fill-rule:nonzero;stroke:none" d="m 0,0 c -1.346,0 -4.958,-0.562 -5.458,-0.562 -2,0 -4.25,1.749 -5.25,1.749 -1,0 -3.594,-1.749 -5.594,-1.749 -1.687,0 -2.406,0.812 -4.719,0.812 -0.748,0 -4.095,-0.871 -4.812,-0.781 -1.823,0.227 -2.761,0.968 -3.219,0.968 -2.656,0 -4.656,-4 -4.656,-4 l 36,0 C 2.292,-3.563 1.417,0 0,0"/></g></g></g></g></svg>
