<svg xmlns="http://www.w3.org/2000/svg" viewBox="0 0 45 45" enable-background="new 0 0 45 45"><defs><clipPath id="a"><path d="M0 36h36V0H0v36z"/></clipPath></defs><g><g><g clip-path="url(#a)" transform="matrix(1.25 0 0 -1.25 0 45)"><g><path fill="#ffac33" d="M34 5H2C.9 5 0 4.1 0 3V0h36v3c0 1.1-.9 2-2 2"/></g><g><path fill="#66757f" d="M17 3.5c-.18-.8-.98-1.32-1.8-1.15-.8.18-1.3.98-1.14 1.8L20 34.5c.18.8.98 1.32 1.8 1.15.8-.18 1.3-.98 1.14-1.8L17 3.5z"/></g><g><path fill="#dd2e44" d="M21.36 33.7C12.46 35.62 4 31.5 2.48 24.5c0 0-.42-1.97.55-2.18.98-.2 3.36 1.32 3.36 1.32l24.42-5.3s1.53-2.38 2.5-2.6c1-.2 1.4 1.75 1.4 1.75 1.53 7-4.45 14.26-13.36 16.2"/></g><g><path fill="#e1e8ed" d="M21.36 33.7C14.62 35.15 7.9 30.65 6.4 23.63c0 0-.43-1.95 1.52-2.38 1.96-.42 5.3.9 5.3.9L24 19.8s2.5-2.6 4.46-3c1.96-.44 2.38 1.52 2.38 1.52 1.52 7-2.7 13.9-9.46 15.35"/></g><g><path fill="#dd2e44" d="M21.36 33.7c-3.5.75-6.6-4.53-8.13-11.55 0 0 2.5-2.6 4.46-3l.97-.22c1.96-.43 5.3.9 5.3.9 1.53 7 .9 13.1-2.6 13.86"/></g></g></g></g></svg>