<svg xmlns="http://www.w3.org/2000/svg" viewBox="0 0 45 45" enable-background="new 0 0 45 45"><defs><clipPath id="a"><path d="M4 36c-2.2 0-4-1.8-4-4V4c0-2.2 1.8-4 4-4h28c2.2 0 4 1.8 4 4v28c0 2.2-1.8 4-4 4H4z"/></clipPath><clipPath id="b"><path d="M0 36h36V0H0v36z"/></clipPath><clipPath id="c"><path d="M7 12c0-2.2 4.93-4 11-4 6.08 0 11 1.8 11 4s-4.92 4-11 4c-6.07 0-11-1.8-11-4"/></clipPath><clipPath id="d"><path d="M0 36h36V0H0v36z"/></clipPath></defs><g><g><g clip-path="url(#a)" transform="matrix(1.25 0 0 -1.25 0 45)"><path fill="#269" d="M36-2H-2v38h38V-2z"/><path fill="#5c913b" d="M38 14H-1V-3h39v17z"/></g></g><g><g clip-path="url(#b)" transform="matrix(1.25 0 0 -1.25 0 45)"><g><path fill="#99aab5" d="M31 7c0-2.76-5.82-5-13-5S5 4.24 5 7s5.82 5 13 5 13-2.24 13-5"/></g><path fill="#99aab5" d="M31 12H5V7h26v5z"/><g><path fill="#fff" d="M31 12c0-2.76-5.82-5-13-5S5 9.24 5 12s5.82 5 13 5 13-2.24 13-5"/></g><g><path fill="#ccd6dd" d="M29 12c0-2.2-4.92-4-11-4S7 9.8 7 12s4.92 4 11 4 11-1.8 11-4"/></g></g></g><g><g clip-path="url(#c)" transform="matrix(1.25 0 0 -1.25 0 45)"><g><path fill="#3b88c3" d="M29 10c0-2.2-4.92-4-11-4S7 7.8 7 10s4.92 4 11 4 11-1.8 11-4"/></g></g></g><g><g clip-path="url(#d)" transform="matrix(1.25 0 0 -1.25 0 45)"><g><path fill="#99aab5" d="M21 10c0-.55-1.34-1-3-1s-3 .45-3 1 1.34 1 3 1 3-.45 3-1"/></g><path fill="#99aab5" d="M21 12h-6v-2h6v2z"/><g><path fill="#ccd6dd" d="M21 12c0-.55-1.34-1-3-1s-3 .45-3 1 1.34 1 3 1 3-.45 3-1"/></g><g><path fill="#55acee" d="M22.5 30.5c-1.62 0-2.8-.5-3.64-1.23C18.43 31.37 16.9 34 13 34c-4.75 0-6-3.92-6-6v-2c0-.55.45-1 1-1s1 .45 1 1v2c0 .16.05 4 4 4 3.85 0 4-3.6 4-4v-2.18c-.65.42-1.47.68-2.5.68-3.3 0-4.5-2.7-4.5-4.5v-1c0-.55.45-1 1-1s1 .45 1 1v1c0 .4.15 2.5 2.5 2.5S17 22.4 17 22v-9c0-.55.45-1 1-1s1 .45 1 1v7c0 .33.1 2 2 2 1.83 0 2-1.54 2-2v-1c0-.55.45-1 1-1s1 .45 1 1v1c0 1.6-1.06 4-4 4-.8 0-1.46-.2-2-.5V25c0 .36.1 3.5 3.5 3.5 3.37 0 3.5-3.15 3.5-3.5v-2c0-.55.45-1 1-1s1 .45 1 1v2c0 1.9-1.15 5.5-5.5 5.5"/></g></g></g></g></svg>