<?xml version="1.0" encoding="UTF-8" standalone="no"?><svg xmlns:dc="http://purl.org/dc/elements/1.1/" xmlns:cc="http://creativecommons.org/ns#" xmlns:rdf="http://www.w3.org/1999/02/22-rdf-syntax-ns#" xmlns:svg="http://www.w3.org/2000/svg" xmlns="http://www.w3.org/2000/svg" viewBox="0 0 45 45" style="enable-background:new 0 0 45 45;" xml:space="preserve" version="1.1" id="svg2"><metadata id="metadata8"><rdf:RDF><cc:Work rdf:about=""><dc:format>image/svg+xml</dc:format><dc:type rdf:resource="http://purl.org/dc/dcmitype/StillImage"/></cc:Work></rdf:RDF></metadata><defs id="defs6"><clipPath id="clipPath16" clipPathUnits="userSpaceOnUse"><path id="path18" d="M 0,36 36,36 36,0 0,0 0,36 Z"/></clipPath></defs><g transform="matrix(1.25,0,0,-1.25,0,45)" id="g10"><g id="g12"><g clip-path="url(#clipPath16)" id="g14"><g transform="translate(1,13.0771)" id="g20"><path id="path22" style="fill:#99aab5;fill-opacity:1;fill-rule:nonzero;stroke:none" d="m 0,0 0,-6.539 c 0,-3.611 7.611,-6.538 17,-6.538 9.389,0 17,2.927 17,6.538 L 34,0 0,0 Z"/></g><g transform="translate(35,13.0771)" id="g24"><path id="path26" style="fill:#e1e8ed;fill-opacity:1;fill-rule:nonzero;stroke:none" d="m 0,0 c 0,-3.611 -7.611,-6.539 -17,-6.539 -9.389,0 -17,2.928 -17,6.539 0,3.611 7.611,6.538 17,6.538 C -7.611,6.538 0,3.611 0,0"/></g><g transform="translate(18,15.6924)" id="g28"><path id="path30" style="fill:#aab8c2;fill-opacity:1;fill-rule:nonzero;stroke:none" d="m 0,0 c 6.7,0 12.313,-1.668 13.913,-3.923 0.297,0.418 0.472,0.856 0.472,1.308 0,2.888 -6.441,5.23 -14.385,5.23 -7.944,0 -14.385,-2.342 -14.385,-5.23 0,-0.452 0.175,-0.89 0.472,-1.308 C -12.314,-1.668 -6.7,0 0,0"/></g><g transform="translate(18,7.8457)" id="g32"><path id="path34" style="fill:#3b88c3;fill-opacity:1;fill-rule:nonzero;stroke:none" d="M 0,0 C 6.7,0 12.313,1.669 13.913,3.924 12.313,6.179 6.7,7.847 0,7.847 -6.7,7.847 -12.314,6.179 -13.913,3.924 -12.314,1.669 -6.7,0 0,0"/></g><g transform="translate(18,13.8721)" id="g36"><path id="path38" style="fill:#50a5e6;fill-opacity:1;fill-rule:nonzero;stroke:none" d="m 0,0 c -4.497,0 -9.625,-1.285 -9.625,-2.103 0,-0.818 5.129,-2.102 9.625,-2.102 4.496,0 9.625,1.284 9.625,2.102 C 9.625,-1.285 4.496,0 0,0"/></g><g transform="translate(15,13.3848)" id="g40"><path id="path42" style="fill:#e1e8ed;fill-opacity:1;fill-rule:nonzero;stroke:none" d="m 0,0 0,-1.385 c 0,-0.552 1.343,-1 3,-1 1.657,0 3,0.448 3,1 L 6,0 0,0 Z"/></g><g transform="translate(21,13.3848)" id="g44"><path id="path46" style="fill:#aab8c2;fill-opacity:1;fill-rule:nonzero;stroke:none" d="m 0,0 c 0,-0.553 -1.343,-1 -3,-1 -1.657,0 -3,0.447 -3,1 0,0.553 1.343,1 3,1 1.657,0 3,-0.447 3,-1"/></g><g transform="translate(9,20.2144)" id="g48"><path id="path50" style="fill:#1c6399;fill-opacity:1;fill-rule:nonzero;stroke:none" d="m 0,0 c -0.552,0 -1,0.448 -1,1 l 0,1.286 c 0,3.032 2.467,5.5 5.5,5.5 3.033,0 5.5,-2.468 5.5,-5.5 0,-0.553 -0.447,-1 -1,-1 -0.552,0 -1,0.447 -1,1 0,1.929 -1.57,3.5 -3.5,3.5 C 2.57,5.786 1,4.215 1,2.286 L 1,1 C 1,0.448 0.552,0 0,0"/></g><g transform="translate(26,18)" id="g52"><path id="path54" style="fill:#88c9f9;fill-opacity:1;fill-rule:nonzero;stroke:none" d="m 0,0 c -0.553,0 -1,0.448 -1,1 l 0,1.143 c 0,1.654 -1.346,3 -3,3 -1.654,0 -3,-1.346 -3,-3 0,-0.552 -0.447,-1 -1,-1 -0.552,0 -1,0.448 -1,1 0,2.757 2.243,5 5,5 2.757,0 5,-2.243 5,-5 L 1,1 C 1,0.448 0.553,0 0,0"/></g><g transform="translate(32,24.875)" id="g56"><path id="path58" style="fill:#1c6399;fill-opacity:1;fill-rule:nonzero;stroke:none" d="m 0,0 c -0.553,0 -1,0.448 -1,1 0,3.309 -2.691,6 -6,6 -3.309,0 -6,-2.691 -6,-6 0,-0.552 -0.447,-1 -1,-1 -0.552,0 -1,0.448 -1,1 0,4.411 3.589,8 8,8 C -2.589,9 1,5.411 1,1 1,0.448 0.553,0 0,0"/></g><g transform="translate(17,13.3408)" id="g60"><path id="path62" style="fill:#3b94d9;fill-opacity:1;fill-rule:nonzero;stroke:none" d="m 0,0 2,0 0,14.659 c 0,4.411 -3.589,8 -8,8 -4.411,0 -8,-3.589 -8,-8 0,-0.552 0.448,-1 1,-1 0.552,0 1,0.448 1,1 0,3.309 2.691,6 6,6 3.309,0 6,-2.691 6,-6 L 0,0 Z"/></g><g transform="translate(33,22)" id="g64"><path id="path66" style="fill:#1c6399;fill-opacity:1;fill-rule:nonzero;stroke:none" d="m 0,0 c 0,-0.552 -0.447,-1 -1,-1 -0.553,0 -1,0.448 -1,1 0,0.552 0.447,1 1,1 0.553,0 1,-0.448 1,-1"/></g><g transform="translate(27,15)" id="g68"><path id="path70" style="fill:#bbddf5;fill-opacity:1;fill-rule:nonzero;stroke:none" d="m 0,0 c 0,-0.553 -0.447,-1 -1,-1 -0.553,0 -1,0.447 -1,1 0,0.553 0.447,1 1,1 0.553,0 1,-0.447 1,-1"/></g><g transform="translate(34,34)" id="g72"><path id="path74" style="fill:#bbddf5;fill-opacity:1;fill-rule:nonzero;stroke:none" d="m 0,0 c 0,-0.552 -0.447,-1 -1,-1 -0.553,0 -1,0.448 -1,1 0,0.552 0.447,1 1,1 0.553,0 1,-0.448 1,-1"/></g><g transform="translate(15,16)" id="g76"><path id="path78" style="fill:#f2f9ff;fill-opacity:1;fill-rule:nonzero;stroke:none" d="m 0,0 c 0,-0.553 -0.448,-1 -1,-1 -0.552,0 -1,0.447 -1,1 0,0.553 0.448,1 1,1 0.552,0 1,-0.447 1,-1"/></g><g transform="translate(27,27)" id="g80"><path id="path82" style="fill:#50a5e6;fill-opacity:1;fill-rule:nonzero;stroke:none" d="m 0,0 c 0,-0.552 -0.447,-1 -1,-1 -0.553,0 -1,0.448 -1,1 0,0.552 0.447,1 1,1 0.553,0 1,-0.448 1,-1"/></g><g transform="translate(21,35)" id="g84"><path id="path86" style="fill:#1c6399;fill-opacity:1;fill-rule:nonzero;stroke:none" d="m 0,0 c 0,-0.552 -0.447,-1 -1,-1 -0.553,0 -1,0.448 -1,1 0,0.552 0.447,1 1,1 0.553,0 1,-0.448 1,-1"/></g><g transform="translate(10,18)" id="g88"><path id="path90" style="fill:#1c6399;fill-opacity:1;fill-rule:nonzero;stroke:none" d="m 0,0 c 0,-0.553 -0.448,-1 -1,-1 -0.552,0 -1,0.447 -1,1 0,0.552 0.448,1 1,1 0.552,0 1,-0.448 1,-1"/></g><g transform="translate(5,23)" id="g92"><path id="path94" style="fill:#3b94d9;fill-opacity:1;fill-rule:nonzero;stroke:none" d="m 0,0 c 0,-0.552 -0.448,-1 -1,-1 -0.552,0 -1,0.448 -1,1 0,0.552 0.448,1 1,1 0.552,0 1,-0.448 1,-1"/></g><g transform="translate(12,31)" id="g96"><path id="path98" style="fill:#88c9f9;fill-opacity:1;fill-rule:nonzero;stroke:none" d="m 0,0 c 0,-0.552 -0.448,-1 -1,-1 -0.552,0 -1,0.448 -1,1 0,0.552 0.448,1 1,1 0.552,0 1,-0.448 1,-1"/></g></g></g></g></svg>
