<svg xmlns="http://www.w3.org/2000/svg" viewBox="0 0 45 45" enable-background="new 0 0 45 45"><defs><clipPath id="a"><path d="M0 36h36V0H0v36z"/></clipPath><clipPath id="b"><path d="M.2 4C.2 2 2 0 4 0h28c2 0 3.73 2 3.73 4 0 4.36-4.63 11-17.73 11C4.5 15 .2 8.54.2 4"/></clipPath><clipPath id="c"><path d="M0 36h36V0H0v36z"/></clipPath></defs><g><g><g clip-path="url(#a)" transform="matrix(1.25 0 0 -1.25 0 45)"><g><path fill="#77b255" d="M4 0h28c2 0 3.73 2 3.73 4 0 4.36-4.63 11-17.73 11C4.5 15 .2 8.54.2 4 .2 2 2 0 4 0"/></g></g></g><g><g clip-path="url(#b)" transform="matrix(1.25 0 0 -1.25 0 45)"><g><path fill="#5c913b" d="M11.3 6.5c1.12 3.75 9.74 7.67 14.32 7.63 5-.05 2.63-.8 1.63-.8s-11.8-2.62-14-7.5c-1 0-1.96.67-1.96.67"/></g></g></g><g><g clip-path="url(#c)" transform="matrix(1.25 0 0 -1.25 0 45)"><g><path fill="#292f33" d="M19 5.5C19 4.12 16.1 3 12.5 3S6 4.12 6 5.5 8.9 8 12.5 8 19 6.88 19 5.5"/></g><g><path fill="#ffac33" d="M10 32V6c0-.55.45-.84 1-.84s1 .3 1 .84v26h-2z"/></g><g><path fill="#dd2e44" d="M10 33c0 2.2 1.7 3.4 3.77 2.65l9.46-3.38c2.07-.74 2.07-1.95 0-2.7l-9.46-3.37c-2.08-.74-3.77.46-3.77 2.66V33z"/></g></g></g></g></svg>