<?xml version="1.0" encoding="UTF-8" standalone="no"?><svg xmlns:dc="http://purl.org/dc/elements/1.1/" xmlns:cc="http://creativecommons.org/ns#" xmlns:rdf="http://www.w3.org/1999/02/22-rdf-syntax-ns#" xmlns:svg="http://www.w3.org/2000/svg" xmlns="http://www.w3.org/2000/svg" viewBox="0 0 45 45" style="enable-background:new 0 0 45 45;" xml:space="preserve" version="1.1" id="svg2"><metadata id="metadata8"><rdf:RDF><cc:Work rdf:about=""><dc:format>image/svg+xml</dc:format><dc:type rdf:resource="http://purl.org/dc/dcmitype/StillImage"/></cc:Work></rdf:RDF></metadata><defs id="defs6"><clipPath id="clipPath16" clipPathUnits="userSpaceOnUse"><path id="path18" d="M 0,36 36,36 36,0 0,0 0,36 Z"/></clipPath></defs><g transform="matrix(1.25,0,0,-1.25,0,45)" id="g10"><g id="g12"><g clip-path="url(#clipPath16)" id="g14"><g transform="translate(4,0)" id="g20"><path id="path22" style="fill:#77b255;fill-opacity:1;fill-rule:nonzero;stroke:none" d="m 0,0 28,0 c 2,0 3.73,2 3.73,4 C 31.73,8.355 27.097,15 14,15 0.508,15 -3.807,8.541 -3.807,4 -3.807,2 -2,0 0,0"/></g><g transform="translate(11.2915,6.5)" id="g24"><path id="path26" style="fill:#5c913b;fill-opacity:1;fill-rule:nonzero;stroke:none" d="m 0,0 c 0,0 0.958,-0.667 1.958,-0.667 2.209,4.875 13,7.5 14,7.5 0.15,0 0.331,0.019 0.512,0.047 C 15.754,7.16 14.968,7.401 14.141,7.617 9.514,7.554 1.11,3.7 0,0"/></g><g transform="translate(19,5.5)" id="g28"><path id="path30" style="fill:#292f33;fill-opacity:1;fill-rule:nonzero;stroke:none" d="m 0,0 c 0,-1.381 -2.91,-2.5 -6.5,-2.5 -3.59,0 -6.5,1.119 -6.5,2.5 0,1.381 2.91,2.5 6.5,2.5 C -2.91,2.5 0,1.381 0,0"/></g><g transform="translate(10,32)" id="g32"><path id="path34" style="fill:#ffac33;fill-opacity:1;fill-rule:nonzero;stroke:none" d="m 0,0 0,-26 c 0,-0.553 0.448,-0.844 1,-0.844 0.552,0 1,0.291 1,0.844 L 2,0 0,0 Z"/></g><g transform="translate(10,33)" id="g36"><path id="path38" style="fill:#dd2e44;fill-opacity:1;fill-rule:nonzero;stroke:none" d="m 0,0 c 0,2.2 1.695,3.395 3.767,2.655 l 9.466,-3.381 c 2.072,-0.74 2.072,-1.951 0,-2.691 L 3.767,-6.798 C 1.695,-7.538 0,-6.343 0,-4.143 L 0,0 Z"/></g></g></g></g></svg>
