<svg xmlns="http://www.w3.org/2000/svg" viewBox="0 0 45 45" enable-background="new 0 0 45 45"><defs><clipPath id="a"><path d="M0 36h36V0H0v36z"/></clipPath></defs><g><g><g clip-path="url(#a)" transform="matrix(1.25 0 0 -1.25 0 45)"><g><path fill="#a7a9ac" d="M20 10c0-.55-.45-1-1-1s-1 .45-1 1v25c0 .55.45 1 1 1s1-.45 1-1V10z"/></g><g><path fill="#d1d3d4" d="M3 12h31V4H12c-6 0-9 8-9 8"/></g><path fill="#55acee" d="M36 6H0V0h36v6z"/><g><path fill="#ffac33" d="M5 14s2 5 5 9 8 8 8 8-1-11-1-16v-1s-3 1-6 1-6-1-6-1"/></g><g><path fill="#f4900c" d="M20 34s6-6 9-11c2.77-4.62 4-9 4-9s-3 1-6 1-6-1-6-1v1c0 9-1 19-1 19"/></g><g><path fill="#e6e7e8" d="M2 12c-.55 0-1-.45-1-1s.45-1 1-1h33v2H2z"/></g></g></g></g></svg>