<svg xmlns="http://www.w3.org/2000/svg" viewBox="0 0 45 45" enable-background="new 0 0 45 45"><defs><clipPath id="a"><path d="M0 36h36V0H0v36z"/></clipPath></defs><g><g><g clip-path="url(#a)" transform="matrix(1.25 0 0 -1.25 0 45)"><g><path fill="#e1e8ed" d="M36 22.94V4s0-4-4-4H4C0 0 0 4 0 4v4.94s17 10 36 14"/></g><g><path fill="#8899a6" d="M14.75 11.54c.17-.18.14-.47-.06-.66-.2-.2-.5-.2-.68-.03l-6.64 7.06c-.17.18-.14.48.06.67.2.2.5.2.66.02l6.65-7.06z"/></g><g><path fill="#aa8ed6" d="M26.8 18.2c.45-.52.1-1.3-.76-1.76L6.57 6.22c-1.8-.88-4.9.04-5.27.8-.42.82 1.2 1.1 2.06 1.55l20.32 10.67c.86.45 1.9.4 2.35-.1l.78-.95z"/></g><g><path fill="#aa8ed6" d="M31.83 13.66c.43-.52.08-1.3-.78-1.76L11.58 1.68c-1.8-.87-4.9.04-5.27.8-.4.82 1.2 1.1 2.07 1.56L28.7 14.7c.86.46 1.9.4 2.34-.1l.8-.94z"/></g><g><path fill="#67757f" d="M13.5 10.23c.27.04.54.14.78.3l2.16 1.2c1.08.56.68 1.9.6 2.36l-.6 2.78 2.55 3.3c.62.8.47 3.3-.33 3.92-.8.63-1.97.48-2.6-.32l-3.04-3.92c-.3-.4-.44-.9-.37-1.4l.63-4.23-1.12-.66c-.84-.58-1.05-1.73-.46-2.57.4-.6 1.1-.87 1.78-.77"/></g><g><path fill="#67757f" d="M19.6 6.22c.26.08 2.74 1.56 2.74 1.56.87.7.33 2.45.17 2.87l-1.43 3.92 1.85 3.75c.45.9.08 2.02-.83 2.47-.93.44-2.04.06-2.5-.85l-2.2-4.45c-.2-.46-.24-.98-.06-1.46l1.47-4-1-.78c-.73-.7-.75-1.88-.04-2.6.5-.53 1.2-.65 1.83-.44"/></g><g><path fill="#bbddf5" d="M9.64 16.6c3.67 1.3 5.4 6.47 5.57 7.06.34 1.05-.24 2.17-1.3 2.5-1.05.34-2.17-.25-2.5-1.3-.5-1.6-1.8-4.03-3.1-4.48-1.03-.37-1.58-1.5-1.2-2.56.35-1.04 1.5-1.58 2.54-1.22"/></g><g><path fill="#8899a6" d="M34.84 14.67c.23-.15.3-.46.13-.7-.15-.22-.47-.28-.7-.12l-9.05 6.24c-.23.14-.3.45-.13.68.14.23.46.3.68.13l9.06-6.23z"/></g><g><path fill="#bbddf5" d="M27 18.48c.8.28 1.35 1.04 1.34 1.92-.06 3.35-1.62 5.92-4.4 7.25-1.96.94-3.86.94-4.07.93-1.1-.02-1.98-.93-1.96-2.03.03-1.1.93-1.98 2.03-1.97 1.02 0 4.34-.3 4.4-4.25.03-1.1.94-1.98 2.04-1.96.22 0 .44.04.63.1"/></g><g><path fill="#67757f" d="M15.13 19.07c.64-1.83 2.64-2.78 4.47-2.14 1.82.64 2.78 2.64 2.13 4.46l-1.33 3.77c-.64 1.82-2.64 2.78-4.46 2.14-1.82-.64-2.78-2.64-2.14-4.46l1.33-3.77z"/></g><g><path fill="#bbddf5" d="M11.42 23.6c.36-1.05 1.5-1.6 2.55-1.23l6.6 2.33c1.04.36 1.6 1.5 1.22 2.55-.37 1.04-1.52 1.6-2.56 1.22l-6.6-2.33c-1.04-.36-1.6-1.5-1.22-2.55"/></g><g><path fill="#bbddf5" d="M17 18c-2.6.37-3.17 1.5-3.24 1.7l-1.15 3.25c-.82 2.36 1.73 3.26 3.42 3.85 1.7.6 3.6.08 5.07-.86 2.82-1.8 2.34-6.3 2.34-6.3 0-.35-.07-.86-.17-1-.06-.08-2.2-1.2-6.27-.64"/></g><g><path fill="#1c6399" d="M30 32.06l-1.12 2.66c-.08.18-.28.3-.5.28-.12 0-3.2-.17-7.16-3.1-3.75-2.8-4.63-2.83-6.58-2.92l-3-.13c-.13 0-.25-.06-.34-.15-.5-.5-.6-1.17-.3-1.8.42-.8 1.63-1.6 3.8-1.5 1.44.05 3.5 1.18 5.85 2.5 2.9 1.6 6.2 3.43 8.9 3.55.16 0 .3.08.4.2.08.13.1.28.05.4"/></g><g><path fill="#ffdc5d" d="M16.4 31.7c.74-2.07-.35-4.36-2.44-5.1-2.08-.73-4.37.37-5.1 2.45-.73 2.1.7 3.43 2.78 4.16 2.08.74 4.03.6 4.77-1.5"/></g><g><path fill="#9aaab4" d="M10.36 29.58c1.9.67 3.44 2.27 3.77 1.33.34-.93 1-2.82 2.9-2.15 1.87.66.5 7.6-5.17 5.6-5.66-2-4.33-5.77-1.5-4.77"/></g><g><path fill="#bdddf4" d="M11.47 29.44c.28-.78-.13-1.64-.92-1.9-.78-.3-1.63.12-1.9.9-.28.8.13 1.64.9 1.92.8.27 1.65-.14 1.92-.92"/></g><g><path fill="#67757f" d="M9.72 29.9c-.52-.2-.8-.77-.6-1.3.18-.5.75-.78 1.27-.6.5.18.78.76.6 1.28-.18.52-.76.8-1.28.6m1-2.82c-1.04-.37-2.18.18-2.55 1.22-.37 1.04.18 2.18 1.22 2.55 1.03.37 2.18-.18 2.54-1.22.37-1.03-.18-2.18-1.22-2.54"/></g><g><path fill="#bdddf4" d="M14.3 30.44c.28-.78-.13-1.64-.92-1.9-.78-.3-1.63.12-1.9.9-.28.78.13 1.64.9 1.9.8.3 1.65-.12 1.92-.9"/></g><g><path fill="#67757f" d="M12.55 30.88c-.52-.18-.8-.75-.6-1.27.18-.5.75-.8 1.27-.6.52.18.8.75.6 1.27-.17.52-.75.8-1.27.6m1-2.82c-1.04-.36-2.18.2-2.55 1.23-.37 1.04.18 2.18 1.22 2.55 1.04.36 2.2-.18 2.55-1.22.37-1.04-.18-2.18-1.22-2.55"/></g></g></g></g></svg>