<svg xmlns="http://www.w3.org/2000/svg" viewBox="0 0 45 45" enable-background="new 0 0 45 45"><defs><clipPath id="a"><path d="M0 36h36V0H0v36z"/></clipPath></defs><g><g><g clip-path="url(#a)" transform="matrix(1.25 0 0 -1.25 0 45)"><g><path fill="#99aab5" d="M26 3c2-2-11-2-9 0 3 0 3 3 3 3h3s0-3 3-3"/></g><g><path fill="#99aab5" d="M12 3c2-2-11-2-9 0 3 0 3 3 3 3h3s0-3 3-3"/></g><g><path fill="#99aab5" d="M30 0H2C.9 0-.1 3 1 3h28c3 0 3 3 4 4 5-3 2-7-3-7"/></g><g><path fill="#e6e7e8" d="M1 8c0 9 2 14 2 21 0 2.28 13 2 13 0s-1.5-10 5-13c6.27-2.9 15-2 15-8H1z"/></g><g><path fill="#e6e7e8" d="M36 8C12 8 17 9 11 9H1V8c0-1.1.9-2 2-2h8c2.33 0 .4 2.04 3 1 5-2 20-1 20-1 1.1 0 2 .9 2 2"/></g><g><path fill="#dd2e44" d="M16.3 15.25c-.24 0-.5.1-.68.28-.4.38-.4 1.02-.03 1.4l1.68 1.76c.38.4 1.02.4 1.4.02.4-.38.42-1.02.04-1.4l-1.7-1.76c-.18-.2-.45-.3-.7-.3"/></g><g><path fill="#dd2e44" d="M20 13c-.15 0-.3.03-.45.1-.5.25-.7.85-.45 1.35l1 2c.25.5.85.7 1.35.45.5-.25.7-.85.44-1.35l-1-2c-.18-.35-.53-.55-.9-.55"/></g><g><path fill="#dd2e44" d="M24 12c-.05 0-.1 0-.14 0-.55.1-.93.6-.85 1.14l.22 1.46c.08.55.6.92 1.13.85.55-.08.93-.6.85-1.13l-.2-1.46c-.08-.5-.5-.86-1-.86"/></g></g></g></g></svg>