<svg xmlns="http://www.w3.org/2000/svg" viewBox="0 0 45 45" enable-background="new 0 0 45 45"><defs><clipPath id="a"><path d="M0 36h36V0H0v36z"/></clipPath><clipPath id="b"><path d="M3 11.68c0-2.2 1.8-4 4-4s4 1.8 4 4-1.8 4-4 4-4-1.8-4-4"/></clipPath><clipPath id="c"><path d="M0 36h36V0H0v36z"/></clipPath></defs><g><g><g clip-path="url(#a)" transform="matrix(1.25 0 0 -1.25 0 45)"><g><path fill="#f3d2a2" d="M30.85 8.37c-.08 0-.16 0-.24.02l-7.47 1.66c-.4.1-.7.4-.8.8l-1.22 5.07c-.06.3 0 .58.14.82.15.25.4.42.67.5.1 0 .18.02.26.02.5 0 .94-.34 1.06-.83l1.06-4.42 6.82-1.5c.28-.08.52-.25.67-.5.16-.24.2-.53.14-.8-.08-.42-.4-.73-.8-.82-.08-.02-.16-.03-.25-.03"/></g><g><path fill="#f3d2a2" d="M11.32 31.53c-1.16-.57.52-2.17.44-3.5-.05-.9 1.72-.58 1.72-.58S14.64 28 14.9 26c.27-2.02 3.15-2.06 2.88-.04-.26 2.02-2.13 2.7-1.6 4.44 1.23 4.17-4.86 1.13-4.86 1.13"/></g><g><path fill="#f3d2a2" d="M27.52 20.7c-.38-.1-.78.02-1.05.33-2.68 3.2-8.8 3.76-8.86 3.77-.56.05-.98.55-.93 1.13.05.57.54 1 1.12.94.28-.02 7.03-.65 10.27-4.5.37-.44.3-1.1-.13-1.47-.13-.1-.27-.18-.42-.2"/></g><g><path fill="#f3d2a2" d="M17.47.7c-.6-.03-1.1.43-1.14 1.03l-.44 8.58c-.02.25.05.5.2.7l5.24 7.26c.18.26.46.42.78.45.26.03.52-.04.73-.2.23-.16.4-.42.44-.7.03-.3-.04-.57-.2-.8l-5.03-6.97.43-8.2c.02-.48-.28-.92-.74-1.08C17.7.73 17.6.7 17.52.7h-.05z"/></g><g><path fill="#a0041e" d="M15.28 11.58l5.25 7.27c.67.93 1.97 1.14 2.9.47.94-.68 1.15-1.98.48-2.9l-4.8-6.7S15 11.2 15.27 11.6"/></g><g><path fill="#be1931" d="M21.35 10.63l-1.2 5.07c-.28 1.12.4 2.24 1.53 2.5 1.12.28 2.24-.4 2.5-1.53l.92-3.8s-3.56-3-3.75-2.24"/></g><g><path fill="#f3d2a2" d="M17.26 32.16c.54-2.24-.84-4.5-3.08-5.03-2.24-.53-4.5.84-5.03 3.08-.54 2.25.84 4.5 3.08 5.04s4.5-.84 5.03-3.08"/></g><g><path fill="#ffe51e" d="M21.38 31.54c-1.1-.1-2.14-.1-4.2 1.97-1.4 1.4-2.62 2.23-5.35 1.86-2.9-.4-5-3.17-3-4.17.88-.45 1.53-.1 2.88-.3 2.14-.32 2.72-2.46 4.63-2.72 3.75-.5 6.13 3.44 5.05 3.36"/></g><g><path fill="#ffac33" d="M11 11.68c0-2.2-1.8-4-4-4s-4 1.8-4 4 1.8 4 4 4 4-1.8 4-4"/></g></g></g><g><g clip-path="url(#b)" transform="matrix(1.25 0 0 -1.25 0 45)"><g><path fill="#c1694f" d="M6.7 17.28c-.18 0-.32-.04-.4-.12-.22-.2-.16-.8.13-1.5.38-.87 1.08-1.85 1.98-2.75.9-.9 1.9-1.6 2.77-1.97.7-.3 1.27-.35 1.5-.14.2.2.14.8-.16 1.48-.36.88-1.06 1.86-1.96 2.76-.9.9-1.88 1.6-2.76 1.98-.42.17-.8.26-1.07.26m5.53-7.6c-.42 0-.9.1-1.45.34-1 .42-2.1 1.2-3.07 2.2-.98.98-1.76 2.07-2.18 3.06-.5 1.13-.47 2.05.07 2.58.52.54 1.44.56 2.57.07 1-.42 2.08-1.2 3.07-2.2 1-.98 1.77-2.07 2.2-3.06.48-1.13.46-2.05-.08-2.58-.27-.3-.66-.43-1.13-.43"/></g><g><path fill="#c1694f" d="M1.76 12.33c-.2 0-.33-.04-.42-.12-.2-.2-.15-.8.15-1.48.36-.88 1.06-1.86 1.96-2.76C5.4 6.03 7.26 5.4 7.7 5.84c.44.44-.17 2.3-2.1 4.25-.9.9-1.9 1.6-2.77 1.97-.4.17-.8.26-1.07.26m5.54-7.6c-1.3 0-3.13 1.12-4.54 2.53-1 1-1.77 2.08-2.2 3.07C.1 11.46.1 12.38.65 12.9c.53.55 1.45.57 2.58.08 1-.42 2.08-1.2 3.07-2.2 1.88-1.87 3.26-4.5 2.1-5.64-.28-.3-.66-.42-1.1-.42"/></g><g><path fill="#c1694f" d="M3.1 8.32l7.08 7.07.7-.72L3.83 7.6l-.7.72z"/></g></g></g><g><g clip-path="url(#c)" transform="matrix(1.25 0 0 -1.25 0 45)"><g><path fill="#dd2e44" d="M18.33 0c.4 0 .6.38.58.77-.02.63-.07.88-.07.88-.06.3-.32.9-.68.9-2.65 0-5.54-.87-6.23-1.5-.4-.35-.15-1.05.4-1.05 1.6 0 4.63 0 6 0"/></g><g><path fill="#dd2e44" d="M25.2 17.22c-.2-.37-1.46.52-2.98-.28-2.16-1.15-3.34-.47-3.34-.47-3.5 5.6-6.24 8.15-2.8 11.02 1.1.9 2.45.52 3.65-.77 2.92-3.08 5.7-9.15 5.48-9.5"/></g><g><path fill="#dd2e44" d="M18.35 1.3h-1.97c-.2 0-.6.16-.6.35l.2 1.08c0 .2.08.5.36.5.28 0 .65-.23 1-.23.36 0 .7.52.96.52.22 0 .3-.08.34-.35l.2-1.52c0-.2-.3-.35-.5-.35"/></g><g><path fill="#dd2e44" d="M32.85 10.18c.05.38-.28.63-.67.67-.62.07-.88.06-.88.06-.3 0-.95-.18-1-.54-.4-2.6.05-5.6.56-6.38.3-.46 1.03-.3 1.1.24.24 1.58.68 4.58.9 5.96"/></g><g><path fill="#dd2e44" d="M31.58 10.38l-.3-1.95c-.02-.18-.24-.57-.43-.54l-1.04.34c-.18.03-.47.17-.43.44.04.28.32.6.38.96.05.35-.42.75-.38 1.02.03.2.13.3.4.28l1.53-.03c.2-.02.3-.33.28-.52"/></g><g><path fill="#f3d2a2" d="M15.15 24.68c-.04-.05-3.38-4.53-8.15-5.03v-.02c-.5-.05-.9-.42-.93-.92-.06-.56.36-1.07.94-1.13.08 0 .14.02.2.03v-.02c5.7.6 9.47 5.65 9.63 5.87l-1.68 1.23z"/></g></g></g></g></svg>