<?xml version="1.0" encoding="UTF-8" standalone="no"?><svg xmlns:dc="http://purl.org/dc/elements/1.1/" xmlns:cc="http://creativecommons.org/ns#" xmlns:rdf="http://www.w3.org/1999/02/22-rdf-syntax-ns#" xmlns:svg="http://www.w3.org/2000/svg" xmlns="http://www.w3.org/2000/svg" viewBox="0 0 45 45" style="enable-background:new 0 0 45 45;" xml:space="preserve" version="1.1" id="svg2"><metadata id="metadata8"><rdf:RDF><cc:Work rdf:about=""><dc:format>image/svg+xml</dc:format><dc:type rdf:resource="http://purl.org/dc/dcmitype/StillImage"/></cc:Work></rdf:RDF></metadata><defs id="defs6"><clipPath id="clipPath16" clipPathUnits="userSpaceOnUse"><path id="path18" d="M 0,36 36,36 36,0 0,0 0,36 Z"/></clipPath><clipPath id="clipPath80" clipPathUnits="userSpaceOnUse"><path id="path82" d="M 3,11.679 C 3,9.471 4.791,7.68 7,7.68 l 0,0 c 2.209,0 4,1.791 4,3.999 l 0,0 c 0,2.21 -1.791,4.001 -4,4.001 l 0,0 c -2.209,0 -4,-1.791 -4,-4.001"/></clipPath></defs><g transform="matrix(1.25,0,0,-1.25,0,45)" id="g10"><g id="g12"><g clip-path="url(#clipPath16)" id="g14"><g transform="translate(30.8525,8.3662)" id="g20"><path id="path22" style="fill:#ffdc5d;fill-opacity:1;fill-rule:nonzero;stroke:none" d="M 0,0 C -0.081,0 -0.163,0.01 -0.243,0.028 L -7.719,1.696 C -8.122,1.79 -8.432,2.099 -8.528,2.501 l -1.216,5.066 c -0.069,0.283 -0.023,0.573 0.129,0.82 0.151,0.247 0.39,0.421 0.672,0.487 0.085,0.021 0.171,0.031 0.255,0.031 0.502,0 0.935,-0.342 1.052,-0.832 L -6.576,3.658 0.245,2.142 C 0.528,2.076 0.768,1.904 0.921,1.658 1.074,1.412 1.123,1.122 1.058,0.84 0.964,0.437 0.654,0.127 0.251,0.03 0.168,0.01 0.084,0 0,0"/></g><g transform="translate(11.3184,31.5259)" id="g24"><path id="path26" style="fill:#ffdc5d;fill-opacity:1;fill-rule:nonzero;stroke:none" d="m 0,0 c -1.158,-0.564 0.52,-2.167 0.439,-3.483 -0.051,-0.91 1.722,-0.595 1.722,-0.595 0,0 1.159,0.564 1.425,-1.455 0.262,-2.017 3.141,-2.05 2.877,-0.03 C 6.197,-3.547 4.332,-2.873 4.85,-1.128 6.09,3.048 0,0 0,0"/></g><g transform="translate(27.5156,20.686)" id="g28"><path id="path30" style="fill:#ffdc5d;fill-opacity:1;fill-rule:nonzero;stroke:none" d="m 0,0 c -0.373,-0.089 -0.779,0.03 -1.043,0.342 -2.682,3.19 -8.798,3.763 -8.859,3.769 -0.573,0.051 -0.997,0.556 -0.947,1.129 0.05,0.572 0.548,0.998 1.127,0.947 C -9.436,6.163 -2.688,5.538 0.554,1.684 0.924,1.243 0.867,0.587 0.426,0.215 0.298,0.108 0.151,0.037 0,0"/></g><g transform="translate(17.4697,0.6992)" id="g32"><path id="path34" style="fill:#ffdc5d;fill-opacity:1;fill-rule:nonzero;stroke:none" d="m 0,0 c -0.598,-0.028 -1.107,0.435 -1.135,1.031 l -0.448,8.575 c -0.011,0.244 0.061,0.487 0.203,0.684 l 5.246,7.271 c 0.184,0.255 0.469,0.417 0.782,0.446 0.259,0.023 0.519,-0.048 0.731,-0.2 C 5.614,17.636 5.77,17.385 5.816,17.1 5.862,16.814 5.794,16.527 5.625,16.294 L 0.601,9.328 1.031,1.133 C 1.054,0.652 0.751,0.208 0.294,0.054 0.217,0.028 0.136,0.011 0.052,0.003 L 0,0 Z"/></g><g transform="translate(15.2798,11.5752)" id="g36"><path id="path38" style="fill:#2a6797;fill-opacity:1;fill-rule:nonzero;stroke:none" d="M 0,0 5.246,7.271 C 5.917,8.203 7.221,8.416 8.155,7.741 9.088,7.068 9.299,5.765 8.626,4.832 l -4.82,-6.681 c 0,0 -4.082,1.467 -3.806,1.849"/></g><g transform="translate(21.3516,10.6338)" id="g40"><path id="path42" style="fill:#4289c1;fill-opacity:1;fill-rule:nonzero;stroke:none" d="M 0,0 -1.216,5.066 C -1.485,6.186 -0.795,7.311 0.325,7.58 1.444,7.848 2.569,7.159 2.838,6.039 L 3.753,2.225 C 3.753,2.225 0.184,-0.769 0,0"/></g><g transform="translate(19.4053,0.0137)" id="g44"><path id="path46" style="fill:#2a6797;fill-opacity:1;fill-rule:nonzero;stroke:none" d="M 0,0 C -0.439,3.125 -1.773,2.082 -3.954,2.078 -6.136,2.075 -7.903,1.03 -7.902,-0.014 -7.046,-0.011 0,0 0,0"/></g><g transform="translate(32.5713,8.0527)" id="g48"><path id="path50" style="fill:#2a6797;fill-opacity:1;fill-rule:nonzero;stroke:none" d="M 0,0 -0.167,3.729 C -3.27,3.155 -2.171,1.868 -2.072,-0.311 -1.976,-2.492 -0.855,-4.213 0.186,-4.166 0.147,-3.311 0.112,-2.508 0.047,-1.042 0.033,-0.724 0.018,-0.388 0,0"/></g><g transform="translate(24.7168,18.9429)" id="g52"><path id="path54" style="fill:#a0041e;fill-opacity:1;fill-rule:nonzero;stroke:none" d="M 0,0 C 0,0 0.486,-2.027 -1.54,-2.513 -3.567,-2.999 -5.837,-2.472 -5.837,-2.472 -9.323,3.122 -12.08,5.677 -8.645,8.552 -5.981,10.782 -2.229,4.824 0,0"/></g><g transform="translate(11.4556,30.9546)" id="g56"><path id="path58" style="fill:#b39155;fill-opacity:1;fill-rule:nonzero;stroke:none" d="M 0,0 C -1.292,-0.498 -1.379,0.954 -0.764,1.772 0.103,2.927 2.602,3.469 3.9,2.833 5.198,2.196 5.628,0.401 4.761,-0.755 4.147,-1.572 4.108,-2.809 3.678,-1.015 3.248,0.779 2.595,-1.275 2.379,-0.379 2.164,0.519 0,0 0,0"/></g><g transform="translate(17.2588,32.1582)" id="g60"><path id="path62" style="fill:#ffdc5d;fill-opacity:1;fill-rule:nonzero;stroke:none" d="M 0,0 C 0.537,-2.238 -0.842,-4.489 -3.081,-5.026 -5.32,-5.563 -7.57,-4.184 -8.107,-1.945 -8.645,0.294 -7.265,2.544 -5.026,3.081 -2.788,3.619 -0.537,2.239 0,0"/></g><g transform="translate(15.1475,24.6797)" id="g64"><path id="path66" style="fill:#ffdc5d;fill-opacity:1;fill-rule:nonzero;stroke:none" d="m 0,0 c -0.033,-0.046 -3.381,-4.532 -8.152,-5.032 l 0.002,-0.02 c -0.484,-0.051 -0.885,-0.417 -0.932,-0.919 -0.053,-0.573 0.367,-1.082 0.941,-1.134 0.071,-0.006 0.135,0.013 0.203,0.022 l 0.003,-0.021 c 5.678,0.594 9.456,5.655 9.614,5.87 L 0,0 Z"/></g><g transform="translate(21.375,31.5376)" id="g68"><path id="path70" style="fill:#ffac33;fill-opacity:1;fill-rule:nonzero;stroke:none" d="m 0,0 c -1.083,-0.083 -2.14,-0.092 -4.208,1.976 -1.375,1.375 -2.603,2.213 -5.334,1.842 -2.898,-0.393 -5.018,-3.169 -3,-4.17 0.881,-0.436 1.53,-0.094 2.881,-0.295 2.121,-0.315 2.706,-2.455 4.619,-2.711 C -1.298,-3.858 1.083,0.083 0,0"/></g><g transform="translate(11,11.6797)" id="g72"><path id="path74" style="fill:#ffac33;fill-opacity:1;fill-rule:nonzero;stroke:none" d="m 0,0 c 0,-2.209 -1.791,-4 -4,-4 -2.209,0 -4,1.791 -4,4 0,2.209 1.791,4 4,4 2.209,0 4,-1.791 4,-4"/></g></g></g><g id="g76"><g clip-path="url(#clipPath80)" id="g78"><g transform="translate(13.0103,10.4395)" id="g84"><path id="path86" style="fill:none;stroke:#c1694f;stroke-width:1;stroke-linecap:butt;stroke-linejoin:miter;stroke-miterlimit:10;stroke-dasharray:none;stroke-opacity:1" d="M 0,0 C -0.781,-0.781 -2.997,0.169 -4.95,2.121 -6.902,4.073 -7.852,6.29 -7.071,7.071 -6.29,7.852 -4.074,6.902 -2.121,4.949 -0.169,2.997 0.781,0.781 0,0 Z"/></g><g transform="translate(8.0605,5.4893)" id="g88"><path id="path90" style="fill:none;stroke:#c1694f;stroke-width:1;stroke-linecap:butt;stroke-linejoin:miter;stroke-miterlimit:10;stroke-dasharray:none;stroke-opacity:1" d="M 0,0 C -0.781,-0.78 -2.997,0.169 -4.95,2.122 -6.902,4.074 -7.852,6.29 -7.071,7.071 -6.29,7.853 -4.074,6.902 -2.121,4.95 -0.169,2.998 0.781,0.781 0,0 Z"/></g><g transform="translate(3.1104,8.3184)" id="g92"><path id="path94" style="fill:#c1694f;fill-opacity:1;fill-rule:nonzero;stroke:none" d="M 0,0 7.07,7.071 7.777,6.364 0.707,-0.707 0,0 Z"/></g></g></g></g></svg>
