<?xml version="1.0" encoding="UTF-8" standalone="no"?><svg xmlns:dc="http://purl.org/dc/elements/1.1/" xmlns:cc="http://creativecommons.org/ns#" xmlns:rdf="http://www.w3.org/1999/02/22-rdf-syntax-ns#" xmlns:svg="http://www.w3.org/2000/svg" xmlns="http://www.w3.org/2000/svg" viewBox="0 0 45 45" style="enable-background:new 0 0 45 45;" xml:space="preserve" version="1.1" id="svg2"><metadata id="metadata8"><rdf:RDF><cc:Work rdf:about=""><dc:format>image/svg+xml</dc:format><dc:type rdf:resource="http://purl.org/dc/dcmitype/StillImage"/></cc:Work></rdf:RDF></metadata><defs id="defs6"><clipPath id="clipPath16" clipPathUnits="userSpaceOnUse"><path id="path18" d="M 0,36 36,36 36,0 0,0 0,36 Z"/></clipPath></defs><g transform="matrix(1.25,0,0,-1.25,0,45)" id="g10"><g id="g12"><g clip-path="url(#clipPath16)" id="g14"><g transform="translate(30.8525,8.3662)" id="g20"><path id="path22" style="fill:#d5ab88;fill-opacity:1;fill-rule:nonzero;stroke:none" d="M 0,0 C -0.081,0 -0.163,0.01 -0.243,0.028 L -7.719,1.696 C -8.122,1.79 -8.432,2.099 -8.528,2.501 l -1.216,5.066 c -0.069,0.283 -0.023,0.573 0.129,0.82 0.151,0.247 0.39,0.421 0.672,0.487 0.085,0.022 0.171,0.031 0.255,0.031 0.502,0 0.935,-0.342 1.052,-0.832 L -6.576,3.658 0.245,2.142 C 0.528,2.076 0.768,1.904 0.921,1.658 1.074,1.412 1.123,1.122 1.058,0.84 0.964,0.437 0.654,0.127 0.251,0.03 0.168,0.01 0.084,0 0,0"/></g><g transform="translate(11.3184,31.5259)" id="g24"><path id="path26" style="fill:#d5ab88;fill-opacity:1;fill-rule:nonzero;stroke:none" d="m 0,0 c -1.158,-0.564 0.52,-2.167 0.439,-3.483 -0.051,-0.91 1.722,-0.595 1.722,-0.595 0,0 1.159,0.564 1.425,-1.455 0.262,-2.017 3.141,-2.05 2.877,-0.03 -0.266,2.016 -2.131,2.69 -1.612,4.435 C 6.09,3.048 0,0 0,0"/></g><g transform="translate(27.5156,20.686)" id="g28"><path id="path30" style="fill:#d5ab88;fill-opacity:1;fill-rule:nonzero;stroke:none" d="m 0,0 c -0.373,-0.089 -0.779,0.03 -1.043,0.342 -2.682,3.19 -8.798,3.763 -8.859,3.769 -0.573,0.051 -0.997,0.556 -0.947,1.129 0.05,0.572 0.548,0.998 1.127,0.947 C -9.436,6.163 -2.688,5.538 0.554,1.684 0.924,1.243 0.867,0.586 0.426,0.215 0.298,0.108 0.151,0.037 0,0"/></g><g transform="translate(17.4697,0.6992)" id="g32"><path id="path34" style="fill:#d5ab88;fill-opacity:1;fill-rule:nonzero;stroke:none" d="m 0,0 c -0.598,-0.028 -1.107,0.435 -1.135,1.031 l -0.448,8.575 c -0.011,0.244 0.061,0.487 0.203,0.684 l 5.246,7.272 c 0.184,0.254 0.469,0.417 0.782,0.445 0.259,0.023 0.519,-0.048 0.731,-0.2 C 5.614,17.636 5.77,17.385 5.816,17.1 5.862,16.814 5.794,16.527 5.625,16.294 L 0.601,9.328 1.031,1.133 C 1.054,0.652 0.751,0.208 0.294,0.054 0.217,0.028 0.136,0.011 0.052,0.003 L 0,0 Z"/></g><g transform="translate(15.2798,11.5752)" id="g36"><path id="path38" style="fill:#a0041e;fill-opacity:1;fill-rule:nonzero;stroke:none" d="M 0,0 5.246,7.271 C 5.917,8.203 7.221,8.416 8.155,7.741 9.088,7.068 9.299,5.765 8.625,4.832 L 3.806,-1.849 c 0,0 -4.082,1.467 -3.806,1.849"/></g><g transform="translate(21.3516,10.6338)" id="g40"><path id="path42" style="fill:#be1931;fill-opacity:1;fill-rule:nonzero;stroke:none" d="M 0,0 -1.216,5.066 C -1.485,6.186 -0.795,7.312 0.325,7.58 1.444,7.848 2.569,7.159 2.838,6.039 L 3.753,2.225 C 3.753,2.225 0.185,-0.769 0,0"/></g><g transform="translate(17.2588,32.1582)" id="g44"><path id="path46" style="fill:#d5ab88;fill-opacity:1;fill-rule:nonzero;stroke:none" d="M 0,0 C 0.537,-2.238 -0.842,-4.489 -3.081,-5.026 -5.32,-5.563 -7.57,-4.184 -8.107,-1.945 -8.645,0.294 -7.265,2.544 -5.026,3.082 -2.788,3.619 -0.537,2.239 0,0"/></g><g transform="translate(21.375,31.5376)" id="g48"><path id="path50" style="fill:#963b22;fill-opacity:1;fill-rule:nonzero;stroke:none" d="m 0,0 c -1.083,-0.083 -2.14,-0.092 -4.208,1.976 -1.375,1.375 -2.603,2.213 -5.334,1.842 -2.898,-0.393 -5.018,-3.169 -3,-4.17 0.881,-0.436 1.53,-0.094 2.881,-0.295 2.121,-0.315 2.706,-2.456 4.619,-2.711 C -1.298,-3.858 1.083,0.083 0,0"/></g><g transform="translate(11,11.6797)" id="g52"><path id="path54" style="fill:#ffac33;fill-opacity:1;fill-rule:nonzero;stroke:none" d="m 0,0 c 0,-2.209 -1.791,-4 -4,-4 -2.209,0 -4,1.791 -4,4 0,2.209 1.791,4 4,4 2.209,0 4,-1.791 4,-4"/></g><g transform="translate(8.0752,11.873)" id="g56"><path id="path58" style="fill:#c1694f;fill-opacity:1;fill-rule:nonzero;stroke:none" d="m 0,0 c 0.849,-0.785 1.747,-1.413 2.586,-1.793 0.135,0.308 0.223,0.637 0.277,0.979 C 2.166,-0.478 1.422,0.048 0.707,0.707 L 2.154,2.155 C 1.957,2.427 1.723,2.666 1.464,2.88 L 0,1.414 C -0.718,2.193 -1.287,3.009 -1.616,3.757 -1.955,3.711 -2.285,3.636 -2.592,3.51 -2.578,3.475 -2.573,3.444 -2.558,3.409 -2.185,2.538 -1.528,1.595 -0.707,0.707 L -2.149,-0.734 C -3.033,0.083 -3.972,0.736 -4.84,1.11 -4.951,0.788 -5.02,0.449 -5.045,0.096 c 0.706,-0.335 1.462,-0.868 2.189,-1.537 l -1.285,-1.286 c 0.214,-0.258 0.453,-0.493 0.724,-0.69 l 1.268,1.269 c 0.657,-0.715 1.136,-1.402 1.448,-2.002 0.349,0.032 0.685,0.103 1.002,0.22 -0.395,0.834 -1.014,1.711 -1.737,2.495 L 0,0 Z"/></g><g transform="translate(18.3335,0.0127)" id="g60"><path id="path62" style="fill:#dd2e44;fill-opacity:1;fill-rule:nonzero;stroke:none" d="M 0,0 C 0.383,0 0.59,0.365 0.572,0.757 0.542,1.383 0.5,1.638 0.5,1.638 0.438,1.937 0.176,2.55 -0.187,2.55 -2.83,2.55 -5.726,1.671 -6.418,1.05 -6.827,0.683 -6.564,-0.012 -6.021,-0.011 -4.418,-0.008 -1.388,-0.003 0,0"/></g><g transform="translate(25.208,17.2188)" id="g64"><path id="path66" style="fill:#dd2e44;fill-opacity:1;fill-rule:nonzero;stroke:none" d="m 0,0 c -0.208,-0.364 -1.473,0.525 -2.989,-0.281 -2.157,-1.146 -3.339,-0.467 -3.339,-0.467 -3.486,5.595 -6.243,8.149 -2.809,11.024 1.097,0.918 2.454,0.522 3.663,-0.76 C -2.563,6.427 0.209,0.365 0,0"/></g><g transform="translate(18.353,1.3008)" id="g68"><path id="path70" style="fill:#dd2e44;fill-opacity:1;fill-rule:nonzero;stroke:none" d="m 0,0 -1.977,0 c -0.185,0 -0.595,0.157 -0.595,0.35 l 0.188,1.084 c 0,0.192 0.096,0.5 0.376,0.5 0.28,0 0.64,-0.235 0.999,-0.235 0.359,0 0.688,0.522 0.96,0.522 0.212,0 0.305,-0.084 0.337,-0.35 L 0.48,0.35 C 0.48,0.157 0.185,0 0,0"/></g><g transform="translate(32.8467,10.1758)" id="g72"><path id="path74" style="fill:#dd2e44;fill-opacity:1;fill-rule:nonzero;stroke:none" d="M 0,0 C 0.056,0.379 -0.275,0.639 -0.665,0.677 -1.289,0.739 -1.547,0.735 -1.547,0.735 -1.852,0.719 -2.496,0.55 -2.55,0.189 c -0.388,-2.613 0.055,-5.606 0.569,-6.382 0.302,-0.458 1.027,-0.301 1.106,0.236 C -0.643,-4.371 -0.202,-1.373 0,0"/></g><g transform="translate(31.5752,10.3848)" id="g76"><path id="path78" style="fill:#dd2e44;fill-opacity:1;fill-rule:nonzero;stroke:none" d="m 0,0 -0.291,-1.955 c -0.027,-0.183 -0.243,-0.566 -0.434,-0.537 l -1.044,0.345 c -0.19,0.028 -0.48,0.168 -0.439,0.445 0.041,0.277 0.326,0.599 0.379,0.954 0.053,0.355 -0.415,0.758 -0.375,1.026 0.031,0.209 0.128,0.289 0.395,0.282 L -0.275,0.526 C -0.085,0.498 0.027,0.183 0,0"/></g><g transform="translate(15.1475,24.6797)" id="g80"><path id="path82" style="fill:#d5ab88;fill-opacity:1;fill-rule:nonzero;stroke:none" d="m 0,0 c -0.033,-0.046 -3.381,-4.532 -8.152,-5.032 l 0.002,-0.02 c -0.484,-0.051 -0.885,-0.417 -0.932,-0.919 -0.053,-0.573 0.367,-1.082 0.941,-1.134 0.071,-0.006 0.135,0.013 0.204,0.022 l 0.002,-0.021 c 5.678,0.594 9.456,5.655 9.614,5.87 L 0,0 Z"/></g></g></g></g></svg>
