<svg xmlns="http://www.w3.org/2000/svg" viewBox="0 0 36 36"><path fill="#00557F" d="M0 4v19h36V4c0-2.209-1.791-4-4-4H4C1.791 0 0 1.791 0 4z"/><path fill="#3E721D" d="M0 32c0 2.209 1.791 4 4 4h28c2.209 0 4-1.791 4-4V22H0v10z"/><path fill="#FFF" d="M6.5 7C5.119 7 4 5.881 4 4.5c0-1.13.755-2.074 1.784-2.383C5.533 2.048 5.273 2 5 2 3.343 2 2 3.343 2 5s1.343 3 3 3c.959 0 1.803-.458 2.353-1.159C7.085 6.938 6.801 7 6.5 7z"/><circle fill="#FFF" cx="10.5" cy="2.5" r=".5"/><circle fill="#FFF" cx="26.5" cy="11.5" r=".5"/><circle fill="#FFF" cx="7.5" cy="11.5" r=".5"/><circle fill="#FFF" cx="22" cy="5" r="1"/><circle fill="#FFF" cx="4" cy="17" r="1"/><circle fill="#FFF" cx="12" cy="7" r="1"/><circle fill="#FFF" cx="32" cy="17" r="1"/><circle fill="#FFF" cx="21" cy="13" r="1"/><circle fill="#FFF" cx="26.5" cy="5.5" r=".5"/><circle fill="#FFF" cx="16.5" cy="10.5" r=".5"/><circle fill="#FFF" cx="12.5" cy="13.5" r=".5"/><circle fill="#FFF" cx="31" cy="3" r="1"/><circle fill="#FFF" cx="31.5" cy="7.5" r=".5"/><path fill="#FFAC33" d="M17 32c-.423 0-.8-.266-.942-.664l-5-14c-.109-.306-.063-.646.125-.913.187-.265.492-.423.817-.423h12c.4 0 .762.238.919.606l6 14c.133.309.101.663-.084.944-.186.281-.499.45-.835.45H17z"/><path fill="#FFCC4D" d="M6 32c-.336 0-.65-.169-.835-.449-.185-.281-.217-.636-.084-.944l6-14c.157-.369.519-.607.919-.607s.762.238.919.606l6 14c.133.309.101.663-.084.944-.185.281-.499.45-.835.45H6z"/><path fill="#292F33" d="M12 17l-2 15h4z"/></svg>