<svg xmlns="http://www.w3.org/2000/svg" viewBox="0 0 45 45" enable-background="new 0 0 45 45"><defs><clipPath id="a"><path d="M0 36h36V0H0v36z"/></clipPath></defs><g><g><g clip-path="url(#a)" transform="matrix(1.25 0 0 -1.25 0 45)"><g><path fill="#dd2e44" d="M4.88 27.83c-.96 2.13-.26 4.52 1.57 5.34 1.83.83 4.1-.24 5.04-2.37.95-2.13.25-4.53-1.58-5.35-1.83-.82-4.1.24-5.04 2.38m11.93-2.5c-.9 2.04-2 4.06-3.02 6.26-.03.05-.05.12-.08.2-.06.13-.14.27-.2.4-.03.04-.04.08-.06.12-1.64 2.98-5.1 4.35-7.98 3.06-3.05-1.37-4.3-5.2-2.8-8.54 1.52-3.35 5.2-4.96 8.25-3.6.12.05.22.1.32.17 1.93-.43 2-1.87 2-1.87s4.6 1.52 3.6 3.8"/></g><g><path fill="#99aab5" d="M26.98 1.13c1.16.66 2.18 2.48 1.53 3.64L16.76 25.44c-1.1-.5-2.93-2.3-3.54-3.9L27 1.13z"/></g><g><path fill="#dd2e44" d="M31.12 27.83c-.96-2.14-3.2-3.2-5.04-2.38-1.83.82-2.53 3.22-1.57 5.35.96 2.13 3.22 3.2 5.05 2.37 1.83-.82 2.53-3.2 1.57-5.34m-.58 7.55c-2.88 1.3-6.34-.08-7.98-3.07 0 0 0 0 0 .02-.02-.04-.03-.08-.05-.12-.06-.13-.14-.27-.2-.4-.03-.08-.05-.15-.08-.2-1.02-2.2-2.1-4.23-3.03-6.27-1.03-2.28 3.6-3.8 3.6-3.8s.05 1.44 1.98 1.88c.1-.05.2-.1.3-.15 3.06-1.37 6.74.24 8.25 3.6 1.5 3.34.26 7.16-2.8 8.53"/></g><g><path fill="#ccd6dd" d="M9.02 1.13C7.86 1.8 6.84 3.6 7.5 4.77l11.75 20.67c1.1-.5 2.93-2.3 3.54-3.9L9 1.13z"/></g><g><path fill="#99aab5" d="M19.56 18.6c0-.86-.7-1.56-1.56-1.56-.86 0-1.56.7-1.56 1.56 0 .87.7 1.57 1.56 1.57.86 0 1.56-.7 1.56-1.57"/></g></g></g></g></svg>