<svg xmlns="http://www.w3.org/2000/svg" viewBox="0 0 45 45" enable-background="new 0 0 45 45"><defs><clipPath id="a"><path d="M0 36h36V0H0v36z"/></clipPath></defs><g><g><g clip-path="url(#a)" transform="matrix(1.25 0 0 -1.25 0 45)"><g><path fill="#66757f" d="M30 12.17c-.4-.4-1.02-.4-1.4 0l-1.43 1.42c-.4.38-.4 1 0 1.4L30 17.83c.4.4 1.02.4 1.4 0l1.43-1.42c.4-.38.4-1 0-1.4L30 12.17z"/></g><g><path fill="#66757f" d="M15 27.17c-.4-.4-1.02-.4-1.4 0l-1.43 1.42c-.4.38-.4 1 0 1.4L15 32.83c.4.4 1.02.4 1.4 0l1.43-1.42c.4-.38.4-1 0-1.4L15 27.17z"/></g><g><path fill="#55acee" d="M2 14c2 0 11-1 11-1s1-9 1-11-2-2-3-1-4 6-4 6-5 3-6 4-1 3 1 3"/></g><g><path fill="#55acee" d="M4 29.96C7 30 29 29 29 29s.92-22 .96-25C30 1 27.2 0 26.1 4S21 21 21 21 7.04 25.42 4 26.1c-4 .9-3 3.82 0 3.86"/></g><g><path fill="#ccd6dd" d="M27 33c2 2 7 3 8 2s0-6-2-8S14 9 14 9 7.5 4.5 6 6s3 8 3 8 16 17 18 19"/></g><g><path fill="#66757f" d="M14 14s.5-.5-4-5-5-4-5-4-.5.5 4 5 5 4 5 4"/></g><g><path fill="#66757f" d="M29 32c1.66 0 3-1.34 3-3h.8c.12.3.2.65.2 1 0 1.66-1.34 3-3 3-.35 0-.7-.08-1-.2V32z"/></g></g></g></g></svg>