<svg xmlns="http://www.w3.org/2000/svg" viewBox="0 0 45 45" enable-background="new 0 0 45 45"><defs><clipPath id="a"><path d="M0 36h36V0H0v36z"/></clipPath></defs><g><g><g clip-path="url(#a)" transform="matrix(1.25 0 0 -1.25 0 45)"><g><path fill="#c68f6a" d="M31.5 26c-.98 0-1.86-.4-2.5-1.06v5.08c0 1.94-1.57 3.5-3.5 3.5s-3.5-1.56-3.5-3.5v1.5c0 2.2-1.57 4-3.5 4s-3.5-1.8-3.5-4v-.5c0 1.94-1.57 3.5-3.5 3.5S8 32.96 8 31.02V25.5c0-.62.17-1.2.46-1.7-.9-.82-1.46-2-1.46-3.3 0-2.48 2.02-4.5 4.5-4.5h.58c-.05-.33-.08-.66-.08-1 0-3.87 3.13-7 7-7h2c2.9 0 5.37 1.75 6.44 4.25.32-.16.68-.25 1.06-.25 1.38 0 2.5 1.12 2.5 2.5v1.55c.16-.02.33-.05.5-.05 1.93 0 3.5 1.57 3.5 3.5v3c0 1.93-1.57 3.5-3.5 3.5"/></g><g><path fill="#c68f6a" d="M25 23.5c0-2.48-2.02-4.5-4.5-4.5h-13C5.02 19 3 21.02 3 23.5S5.02 28 7.5 28h13c2.48 0 4.5-2.02 4.5-4.5"/></g><g><path fill="#f3d2a2" d="M35 19.22c-.9-.9-1.82-1.22-2.88-1.22h-.24c-1.48 0-2.74.83-3.4 2.04-.67-1.2-1.95-2.04-3.44-2.04h-.08c-1.2 0-2.24.53-2.96 1.37-.2.22-.34.46-.48.7-.04.08-.07.16-.1.23-.1.2-.18.4-.24.6-.05.18-.1.35-.14.53-.14-.16-.3-.32-.46-.46-.07-.06-.14-.1-.22-.16-.1-.08-.23-.17-.35-.24-.58-.35-1.26-.56-2-.56h-3.17c2.7-1.37 4-4.2 4-8.66 0-.28-.22-.5-.5-.5-.27 0-.5.22-.5.5 0 6.05-2.33 8.63-7.8 8.63-.06 0-.12 0-.17.03H9.5c-.28 0-.5.22-.5.5s.22.5.5.5H18c1.66 0 3 1.34 3 3s-1.34 3-3 3H7c-1.3 0-3.25-.1-4.02-2.26l-1.66-5.48c-.16-.5-.73-2.85-.63-3.34C.7 8.58 9.4.95 19.7.95 29.67.95 35 9.05 35 19v.22z"/></g><g><path fill="#f3d2a2" d="M35 21.86c0-1.58-1.28-2.86-2.86-2.86h-.28C30.28 19 29 20.28 29 21.86v6.28c0 1.58 1.28 2.86 2.86 2.86h.28c1.58 0 2.86-1.28 2.86-2.86v-6.28z"/></g><g><path fill="#f3d2a2" d="M28 22c0-1.66-1.34-3-3-3s-3 1.34-3 3v9c0 1.66 1.34 3 3 3s3-1.34 3-3v-9z"/></g><g><path fill="#f3d2a2" d="M18 28c1.2 0 2.27-.54 3-1.38V33c0 1.66-1.34 3-3 3s-3-1.34-3-3v-5h3z"/></g><g><path fill="#f3d2a2" d="M14 28v4c0 1.66-1.34 3-3 3s-3-1.34-3-3v-4h6z"/></g></g></g></g></svg>