<svg xmlns="http://www.w3.org/2000/svg" viewBox="0 0 45 45" enable-background="new 0 0 45 45"><defs><clipPath id="a"><path d="M0 36h36V0H0v36z"/></clipPath></defs><g><g><g clip-path="url(#a)" transform="matrix(1.25 0 0 -1.25 0 45)"><g><path fill="#d2a077" d="M6.2 14.36c-.07-.92.32-1.2.95-1.64.62-.43 4.38 2.87 5.6 3.37 1.25.5 12.8 2.94 12.3 5.18-.5 2.23-4 2.56-6.68 2.1-2.7-.45-7.84-2.82-9.35-4.1-1.5-1.27-2.82-4.92-2.82-4.92"/></g><g><path fill="#d2a077" d="M14.83 12.86s-3.56-1.15-3.56-4.15c0-3 .86-4.7 1.28-5.5.4-.83 1.68-1.62 3.45-.86 2.05.9-.5 6 6 3.66 2.97-1.07 6.06-2.53 9.06-1.53C33.9 5.42 35 9 35 11c0 4.1-3 3-4 2s-9-3-10-3-6.17 2.86-6.17 2.86"/></g><g><path fill="#e2c196" d="M19.3 7.8s-.1 1.33-1.36 1.48c-1.03.13-2.66-.22-3.5-1.9-.85-1.7-2.35-1.4-2.28-2.82.06-1.4.5-2.5 1.4-2.78.9-.28 2.2.22 2.35 1.72.16 1.5.35 2.88 1.32 3.47.97.6 2.1.84 2.1.84"/></g><g><path fill="#d2a077" d="M18 10s-1 1-3 1-6.66-2.13-5.25-6.38c1-3 3.84-1.6 4.25 1.38.4 2.97 4 4 4 4"/></g><g><path fill="#e2c196" d="M17 10s-1 1-3 1-4.88-1.53-5-6c-.1-3.66 4.03-2 4 1-.03 3 4 4 4 4"/></g><g><path fill="#d2a077" d="M5 9c0-3.3.46-5.3 2.43-4.95 3.27.57 2.03 4.62 4.9 5.76 2.06.83 5.1.64 8-1.1C22.27 7.56 21 12 19 13s-8 0-9 0-5-4-5-4"/></g><g><path fill="#e2c196" d="M4.84 8.83C3.24 6.16 4.22 3.4 7 4c2.7.57 1.34 4.07 4 6 1.5 1.08 4.7 1.45 6.7.45S20 12 18 13c-2 1-8.54.03-9.54-.04-1.9-.12-3.62-4.13-3.62-4.13"/></g><g><path fill="#3b88c3" d="M9.42 6.9c-.68-.8-1.86-.87-2.64-.2l-.2.18c-.77.68-.86 1.86-.18 2.63l22.53 25.83c.67.78 1.86.86 2.63.18l.2-.16c.78-.68.86-1.86.18-2.64L9.42 6.9z"/></g><g><path fill="#3b88c3" d="M10.5 8.1C8.12 5.4 2.17.1 1.4.77c-.75.66 3.7 7.28 6.06 9.98 2.36 2.7 1.66.55 2.5-.18.82-.73 2.87.26.5-2.45"/></g><g><path fill="#d2a077" d="M6.67 10.97c0-1 2.42-1.9 3.42-.9 1 1 3.33 2.22 6.4.93 7.22-3 4.5 1 1.5 2s-8 0-9 0-2.33-2.03-2.33-2.03"/></g><g><path fill="#f3d2a2" d="M6.2 13.96c-.36 1.1 2.18 7.28 3.34 8.23 1.45 1.2 7.07 3.05 9.07 3.05S35 18 35 13s-2-5.62-4.88-6.4c-2.3-.63-7.1-.25-9.2 1.7-1.86 1.73-3.14 2.92-4.92 3.7-3.3 1.45-5.5-.42-6.5-1.42-2-2-5.77.16-2.63 3.58C9.12 16.6 11.1 17.36 13 18c6 2 10 2 8 4-.7.7-1.1-.35-2.08-.52-1.98-.36-3.55-.6-6.16-1.48-.9-.3-5.17-3.02-6.57-6.04"/></g><g><path fill="#d2a077" d="M13.2 19.72c1.06.4 5.7 1.24 8.1 2.07 1.96.67 3.67-.64-.03-2.04-3.57-1.34-7.28-1.23-9.98-2.3-1.04-.4-1.92.87 1.9 2.26"/></g><g><path fill="#3b88c3" d="M22.5 27.98s-5.94-6.8-8.46-9.66c2.26.92 4.27.75 6.2 1.88 1.93 1.13 2.8 2.34 5.73 5.7 1.08 1.24-3.48 2.08-3.48 2.08"/></g></g></g></g></svg>