<svg xmlns="http://www.w3.org/2000/svg" viewBox="0 0 45 45" enable-background="new 0 0 45 45"><defs><clipPath id="a"><path d="M0 36h36V0H0v36z"/></clipPath></defs><g><g><g clip-path="url(#a)" transform="matrix(1.25 0 0 -1.25 0 45)"><g><path fill="#99aab5" d="M32 3.27c-.3-.17-.64-.27-1-.27-1.1 0-2 .9-2 2s.9 2 2 2 2-.9 2-2c0-.36-.1-.7-.27-1L35.88.88 35 8l-9 7-5-5 7-9 7.13-.88L32 3.27z"/></g><g><path fill="#66757f" d="M13.64 30.7c1.15-1.16 1.15-3.02 0-4.18l-4.16-4.16c-1.16-1.15-3.02-1.15-4.17 0l-4.16 4.16C0 27.68 0 29.54 1.14 30.7l4.17 4.16C6.47 36 8.33 36 9.5 34.86l4.16-4.17z"/></g><g><path fill="#292f33" d="M26.64 17.7L9.44 34.9 1.1 26.55l17.2-17.2c1.16-1.15 3.02-1.15 4.18 0l4.16 4.17c1.15 1.15 1.15 3 0 4.16"/></g><g><path fill="#66757f" d="M16.56 27.78l-8.33-8.34 2.12-2.12 8.33 8.33-2.12 2.13z"/></g></g></g></g></svg>