<svg xmlns="http://www.w3.org/2000/svg" viewBox="0 0 45 45" enable-background="new 0 0 45 45"><defs><clipPath id="a"><path d="M0 36h36V0H0v36z"/></clipPath></defs><g><g><g clip-path="url(#a)" transform="matrix(1.25 0 0 -1.25 0 45)"><g><path fill="#292f33" d="M22.24 18l9.88 9.88c1.17 1.17 1.17 3.07 0 4.24-1.17 1.17-3.07 1.17-4.24 0L18 22.24l-9.9 9.88c-1.16 1.17-3.06 1.17-4.23 0-1.17-1.17-1.17-3.07 0-4.24L13.75 18l-9.9-9.9C2.68 6.9 2.68 5 3.85 3.84c.58-.6 1.35-.88 2.12-.88s1.53.3 2.12.88l9.9 9.9 9.88-9.88C28.48 3.3 29.23 3 30 3s1.54.3 2.12.87c1.17 1.17 1.17 3.07 0 4.24L22.24 18z"/></g></g></g></g></svg>