<svg xmlns="http://www.w3.org/2000/svg" viewBox="0 0 45 45" enable-background="new 0 0 45 45"><defs><clipPath id="a"><path d="M0 36h36V0H0v36z"/></clipPath></defs><g><g><g clip-path="url(#a)" transform="matrix(1.25 0 0 -1.25 0 45)"><g><path fill="#9266cc" d="M36 4c0-2.2-1.8-4-4-4H4C1.8 0 0 1.8 0 4v28c0 2.2 1.8 4 4 4h28c2.2 0 4-1.8 4-4V4z"/></g><g><path fill="#fff" d="M26 26h-6v6c0 .55-.45 1-1 1h-2c-.55 0-1-.45-1-1v-6h-6c-.55 0-1-.45-1-1v-2c0-.55.45-1 1-1h6V4c0-.55.45-1 1-1h2c.55 0 1 .45 1 1v18h6c.55 0 1 .45 1 1v2c0 .55-.45 1-1 1"/></g></g></g></g></svg>