<svg xmlns="http://www.w3.org/2000/svg" viewBox="0 0 45 45" enable-background="new 0 0 45 45"><defs><clipPath id="a"><path d="M0 36h36V0H0v36z"/></clipPath></defs><g><g><g clip-path="url(#a)" transform="matrix(1.25 0 0 -1.25 0 45)"><g><path fill="#aa8ed6" d="M34.35 19.1l-8.9 3.3-3.33 10.9c-.12.4-.5.7-.95.7-.44 0-.83-.3-.96-.7l-3.3-10.9L8 19.1c-.4-.14-.66-.5-.66-.93 0-.42.26-.8.65-.94l8.9-3.3 3.3-11.2c.14-.44.53-.73.97-.73.44 0 .83.3.96.72l3.32 11.22 8.9 3.3c.4.14.65.5.65.93 0 .42-.26.8-.65.94"/></g><g><path fill="#fcab40" d="M14.35 8.1l-2.32.86-.9 3.3c-.1.44-.5.74-.96.74-.45 0-.85-.3-.97-.74l-.9-3.3L6 8.1c-.4-.14-.66-.5-.66-.93 0-.42.26-.8.65-.94l2.3-.85.9-3.62c.1-.45.5-.76.97-.76.46 0 .86.3.97.76l.9 3.62 2.3.85c.4.15.66.52.66.94 0 .42-.26.8-.65.94"/></g><g><path fill="#5dadec" d="M10 29.77l-2.36.87-.87 2.37c-.15.4-.52.66-.94.66-.42 0-.8-.26-.94-.65L4 30.66l-2.37-.88c-.4-.15-.65-.52-.65-.94 0-.42.26-.8.65-.94L4.02 27l.87-2.37c.14-.4.5-.65.93-.65.42 0 .8.26.94.65l.87 2.37 2.37.87c.4.14.66.5.66.93 0 .42-.26.8-.65.94"/></g></g></g></g></svg>