<svg xmlns="http://www.w3.org/2000/svg" viewBox="0 0 45 45" enable-background="new 0 0 45 45"><defs><clipPath id="a"><path d="M0 36h36V0H0v36z"/></clipPath></defs><g><g><g clip-path="url(#a)" transform="matrix(1.25 0 0 -1.25 0 45)"><g><path fill="#77b255" d="M36 4c0-2.2-1.8-4-4-4H4C1.8 0 0 1.8 0 4v28c0 2.2 1.8 4 4 4h28c2.2 0 4-1.8 4-4V4z"/></g><g><path fill="#fff" d="M32 20h-9.17l6.9 6.9c.78.78.78 2.05 0 2.83-.78.78-2.05.78-2.83 0l-6.9-6.9V32c0 1.1-.9 2-2 2s-2-.9-2-2v-9.17l-6.9 6.9c-.78.78-2.05.78-2.83 0-.78-.78-.78-2.05 0-2.83l6.9-6.9H4c-1.1 0-2-.9-2-2s.9-2 2-2h9.17l-6.9-6.9c-.78-.78-.78-2.05 0-2.83.78-.78 2.05-.78 2.83 0l6.9 6.9V4c0-1.1.9-2 2-2s2 .9 2 2v9.17l6.9-6.9c.78-.78 2.05-.78 2.83 0 .78.78.78 2.05 0 2.83l-6.9 6.9H32c1.1 0 2 .9 2 2s-.9 2-2 2"/></g></g></g></g></svg>