<svg xmlns="http://www.w3.org/2000/svg" viewBox="0 0 45 45" enable-background="new 0 0 45 45"><defs><clipPath id="a"><path d="M0 36h36V0H0v36z"/></clipPath></defs><g><g><g clip-path="url(#a)" transform="matrix(1.25 0 0 -1.25 0 45)"><g><path fill="#292f33" d="M13.57 24.76c1.34-.97 2.63-.43 2.9 1.2l1.07 7.07c.25 1.64.66 1.64.92 0l1.08-7.06c.25-1.64 1.55-2.18 2.9-1.2l6.13 4.47c1.34.97 1.64.67.67-.67l-4.48-6.14c-.97-1.34-.43-2.64 1.2-2.9l7.08-1.07c1.63-.26 1.63-.67 0-.92l-7.08-1.08c-1.63-.26-2.17-1.55-1.2-2.9l4.48-6.13c.97-1.34.67-1.64-.67-.67l-6.14 4.48c-1.34.97-2.64.43-2.9-1.2l-1.07-7.08c-.26-1.63-.67-1.63-.92 0l-1.08 7.08c-.26 1.63-1.55 2.17-2.9 1.2L7.44 6.76c-1.34-.97-1.58-.7-.55.58l5.08 6.32c1.04 1.3.55 2.52-1.1 2.75l-8.04 1.12c-1.64.23-1.64.62 0 .88l7.22 1.13c1.63.26 2.17 1.56 1.2 2.9l-4.48 6.14c-.97 1.34-.67 1.64.67.67l6.14-4.48z"/></g></g></g></g></svg>