<svg xmlns="http://www.w3.org/2000/svg" viewBox="0 0 45 45" enable-background="new 0 0 45 45"><defs><clipPath id="a"><path d="M0 36h36V0H0v36z"/></clipPath></defs><g><g><g clip-path="url(#a)" transform="matrix(1.25 0 0 -1.25 0 45)"><g><path fill="#dd2e44" d="M21.53 18l12.24 12.23c.97.98.97 2.56 0 3.54-.98.97-2.56.97-3.54 0L18 21.53 5.76 33.77c-.97.97-2.56.97-3.53 0-.98-.98-.98-2.56 0-3.54L14.46 18 2.2 5.74c-.98-.98-.98-2.56 0-3.54.5-.5 1.13-.73 1.77-.73.64 0 1.28.24 1.77.73L18 14.46 30.23 2.23c.5-.5 1.13-.73 1.77-.73.64 0 1.28.24 1.77.73.97.97.97 2.56 0 3.53L21.53 18z"/></g></g></g></g></svg>