<svg xmlns="http://www.w3.org/2000/svg" viewBox="0 0 45 45" enable-background="new 0 0 45 45"><defs><clipPath id="a"><path d="M0 36h36V0H0v36z"/></clipPath></defs><g><g><g clip-path="url(#a)" transform="matrix(1.25 0 0 -1.25 0 45)"><g><path fill="#77b255" d="M36 4c0-2.2-1.8-4-4-4H4C1.8 0 0 1.8 0 4v28c0 2.2 1.8 4 4 4h28c2.2 0 4-1.8 4-4V4z"/></g><g><path fill="#fff" d="M21.53 18l8.24 8.23c.97.98.97 2.56 0 3.54-.98.97-2.56.97-3.54 0L18 21.53l-8.24 8.24c-.98.97-2.56.97-3.54 0-.98-.98-.98-2.56 0-3.54L14.46 18 6.2 9.73c-.98-.98-.98-2.56 0-3.54.5-.5 1.13-.73 1.77-.73.64 0 1.28.24 1.77.73L18 14.46l8.23-8.24c.5-.5 1.13-.73 1.77-.73.64 0 1.28.23 1.77.72.97.98.97 2.56 0 3.54L21.53 18z"/></g></g></g></g></svg>