<svg xmlns="http://www.w3.org/2000/svg" viewBox="0 0 45 45" enable-background="new 0 0 45 45"><defs><clipPath id="a"><path d="M0 36h36V0H0v36z"/></clipPath></defs><g><g><g clip-path="url(#a)" transform="matrix(1.25 0 0 -1.25 0 45)"><g><path fill="#be1931" d="M17 9c-1.66 0-3 1.34-3 3v4c0 1.66 1.34 3 3 3 .6 0 6 1 6 5 0 2-2 4-5 4-2.44 0-4-2-4-3 0-1.66-1.34-3-3-3s-3 1.34-3 3c0 4.88 4.58 9 10 9 8 0 11-5.98 11-11 0-4.14-2.28-7.3-6.4-8.92-.9-.35-1.8-.6-2.6-.75V12c0-1.66-1.34-3-3-3"/></g><g><path fill="#be1931" d="M20 4c0-1.66-1.34-3-3-3s-3 1.34-3 3 1.34 3 3 3 3-1.34 3-3"/></g></g></g></g></svg>