<svg xmlns="http://www.w3.org/2000/svg" viewBox="0 0 45 45" enable-background="new 0 0 45 45"><defs><clipPath id="a"><path d="M0 36h36V0H0v36z"/></clipPath></defs><g><g><g clip-path="url(#a)" transform="matrix(1.25 0 0 -1.25 0 45)"><g><path fill="#269" d="M36 8c0-2.2-1.8-4-4-4H4C1.8 4 0 5.8 0 8v20c0 2.2 1.8 4 4 4h28c2.2 0 4-1.8 4-4V8z"/></g><g><path fill="#fff" d="M28.82 15.43c0-3.28-2.6-4.5-4.25-4.5-1.8 0-3.74 1.43-3.74 4.55 0 2.15 1.73 4.2 3.84 5.68 2.33-1.36 4.15-3.37 4.15-5.73m-13.64.05c0-3.12-1.94-4.55-3.75-4.55-1.64 0-4.24 1.22-4.24 4.5 0 2.36 1.8 4.37 4.14 5.73 2.1-1.5 3.84-3.53 3.84-5.68m19.3 9.34c-.13.07-1.33.68-3.85.68-1.63 0-3.92-.74-6.06-2-2.06.97-4.3 1.5-6.24 1.5h-.65c-1.93 0-4.18-.53-6.24-1.5-2.14 1.26-4.44 2-6.06 2-2.52 0-3.73-.6-3.86-.68-.48-.26-.65-.86-.4-1.34.25-.48.85-.67 1.34-.43 0 0 .92.45 2.92.45 1.06 0 2.54-.44 4-1.18-2.4-1.66-4.2-4.02-4.2-6.9 0-4.47 3.66-6.5 6.25-6.5 2.86 0 5.75 2.26 5.75 6.56 0 2.6-1.64 4.9-3.8 6.65 1.47.56 2.98.87 4.3.87h.65c1.32 0 2.83-.3 4.3-.87-2.17-1.74-3.8-4.06-3.8-6.65 0-4.3 2.9-6.55 5.74-6.55 2.6 0 6.25 2.02 6.25 6.5 0 2.87-1.8 5.23-4.2 6.9 1.47.73 2.94 1.17 4 1.17 2 0 2.92-.44 2.93-.45.48-.24 1.08-.05 1.34.43.24.48.06 1.08-.42 1.34"/></g></g></g></g></svg>