<svg xmlns="http://www.w3.org/2000/svg" viewBox="0 0 45 45" enable-background="new 0 0 45 45"><defs><clipPath id="a"><path d="M0 36h36V0H0v36z"/></clipPath></defs><g><g><g clip-path="url(#a)" transform="matrix(1.25 0 0 -1.25 0 45)"><g><path fill="#3b88c3" d="M36 4c0-2.2-1.8-4-4-4H4C1.8 0 0 1.8 0 4v28c0 2.2 1.8 4 4 4h28c2.2 0 4-1.8 4-4V4z"/></g><g><path fill="#fff" d="M20.6 30.2l6-7.2H23v-7.2c0-5.52-4.68-10-10.2-10-1.42 0-2.87.3-4.1.83l2.7 3.3c.4-.1 1-.13 1.42-.13 3.3 0 6.18 2.7 6.18 6V23h-4.4l6 7.2z"/></g></g></g></g></svg>