<svg xmlns="http://www.w3.org/2000/svg" viewBox="0 0 45 45" enable-background="new 0 0 45 45"><defs><clipPath id="a"><path d="M0 36h36V0H0v36z"/></clipPath></defs><g><g><g clip-path="url(#a)" transform="matrix(1.25 0 0 -1.25 0 45)"><g><path fill="#ffac33" d="M27.3 1.37c-.42 0-.82.13-1.17.37L18 7.58 9.87 1.74c-.7-.5-1.63-.5-2.32 0-.7.5-.98 1.4-.72 2.2l3.04 9.8-8.07 5.68c-.68.5-.97 1.4-.7 2.2.26.8 1 1.36 1.86 1.37h10l3.17 9.55c.26.8 1.02 1.35 1.87 1.35.85 0 1.6-.54 1.88-1.35L23 23h10.04c.85-.02 1.6-.57 1.86-1.38.27-.8-.02-1.7-.7-2.2l-8.07-5.68 3.04-9.8c.26-.8-.04-1.7-.72-2.2-.35-.24-.76-.37-1.16-.37"/></g></g></g></g></svg>