<svg xmlns="http://www.w3.org/2000/svg" viewBox="0 0 45 45" enable-background="new 0 0 45 45"><defs><clipPath id="a"><path d="M0 36h36V0H0v36z"/></clipPath></defs><g><g><g clip-path="url(#a)" transform="matrix(1.25 0 0 -1.25 0 45)"><g><path fill="#292f33" d="M27 13c-2.6 0-4 2.55-5.37 5-1.1 1.97-2.22 4-3.63 4-1.4 0-2.54-2.03-3.63-4C13 15.56 11.6 13 9 13c-2.65 0-3.85 2.7-4.9 5.1C3.03 20.44 2.25 22 1 22c-.55 0-1 .45-1 1s.45 1 1 1c2.65 0 3.85-2.7 4.9-5.1C6.97 16.56 7.75 15 9 15c1.4 0 2.54 2.03 3.63 4C14 21.44 15.4 24 18 24c2.6 0 4-2.55 5.37-5 1.1-1.97 2.22-4 3.63-4 1.26 0 2.04 1.55 3.1 3.9 1.05 2.4 2.25 5.1 4.9 5.1.55 0 1-.45 1-1s-.45-1-1-1c-1.26 0-2.04-1.55-3.1-3.9-1.05-2.4-2.25-5.1-4.9-5.1"/></g></g></g></g></svg>