<svg xmlns="http://www.w3.org/2000/svg" viewBox="0 0 45 45" enable-background="new 0 0 45 45"><defs><clipPath id="a"><path d="M0 36h36V0H0v36z"/></clipPath></defs><g><g><g clip-path="url(#a)" transform="matrix(1.25 0 0 -1.25 0 45)"><g><path fill="#ffcc4d" d="M35.36 6.82C26.78 31.5 23.56 31.5 22 31.5c-3.12 0-4.54-3.18-5.78-5.98-.1-.23-.22-.5-.34-.76-.5-.94-1.27-.94-1.76 0-.12.27-.24.53-.34.76-1.24 2.8-2.66 5.98-5.78 5.98-2.3 0-5.47-2.08-7.45-12-.27-1.36.6-2.68 1.96-2.95 1.36-.27 2.68.6 2.95 1.96.55 1.84 1.75 5.67 1.75 5.67.43 1 1.18 1.03 1.67.08.13-.27.24-.54.35-.76.18-.43.37-.85.56-1.26.2-.43.4-.84.62-1.24 1.05-1.92 2.4-3.5 4.6-3.5 2.66 0 4.08 2.3 5.2 4.72.02 0 .02.02.02.03.2.4.38.83.56 1.24.1.2.2.43.3.67.46.88 1.2.8 1.67-.18 0 0 3.9-8.76 5.6-12.53.8-2.1 1.57-4.23 2.3-6.3C31 4.16 31.96 3.5 33 3.5c.27 0 .55.04.82.14 1.3.45 2 1.88 1.54 3.18"/></g></g></g></g></svg>