<svg xmlns="http://www.w3.org/2000/svg" viewBox="0 0 45 45" enable-background="new 0 0 45 45"><defs><clipPath id="a"><path d="M0 36h36V0H0v36z"/></clipPath></defs><g><g><g clip-path="url(#a)" transform="matrix(1.25 0 0 -1.25 0 45)"><g><path fill="#3b88c3" d="M36 4c0-2.2-1.8-4-4-4H4C1.8 0 0 1.8 0 4v28c0 2.2 1.8 4 4 4h28c2.2 0 4-1.8 4-4V4z"/></g><g><path fill="#fff" d="M16.46 24.82h-1.83c-1.5 0-2.1 1.1-2.1 2.14 0 1.1.77 2.14 2.1 2.14h4.4c1.34 0 2.08-.96 2.08-2.2V9.26c0-1.55-.98-2.42-2.3-2.42-1.35 0-2.34.87-2.34 2.42v15.56z"/></g></g></g></g></svg>