<svg xmlns="http://www.w3.org/2000/svg" viewBox="0 0 45 45" enable-background="new 0 0 45 45"><defs><clipPath id="a"><path d="M0 36h36V0H0v36z"/></clipPath></defs><g><g><g clip-path="url(#a)" transform="matrix(1.25 0 0 -1.25 0 45)"><g><path fill="#3b88c3" d="M36 4c0-2.2-1.8-4-4-4H4C1.8 0 0 1.8 0 4v28c0 2.2 1.8 4 4 4h28c2.2 0 4-1.8 4-4V4z"/></g><g><path fill="#fff" d="M24.1 23.77c0-1.95-.83-3.65-2.53-4.74 2.23-1.02 3.78-3.1 3.78-5.55 0-3.72-3.4-6.85-7.8-6.85-4.6 0-7.45 3.38-7.45 5.83 0 1.2 1.27 2.07 2.38 2.07 2.1 0 1.62-3.62 5.12-3.62 1.6 0 2.9 1.25 2.9 2.9 0 4.33-5.26 1.14-5.26 4.8 0 3.25 4.4 1.05 4.4 4.5 0 1.17-.83 2.07-2.23 2.07-2.93 0-2.53-3.04-4.64-3.04-1.27 0-2 1.15-2 2.3 0 2.4 3.3 5.02 6.75 5.02 4.47 0 6.6-3.26 6.6-5.68"/></g></g></g></g></svg>