<svg xmlns="http://www.w3.org/2000/svg" viewBox="0 0 45 45" enable-background="new 0 0 45 45"><defs><clipPath id="a"><path d="M0 36h36V0H0v36z"/></clipPath></defs><g><g><g clip-path="url(#a)" transform="matrix(1.25 0 0 -1.25 0 45)"><g><path fill="#3b88c3" d="M36 4c0-2.2-1.8-4-4-4H4C1.8 0 0 1.8 0 4v28c0 2.2 1.8 4 4 4h28c2.2 0 4-1.8 4-4V4z"/></g><g><path fill="#fff" d="M16.4 21.5c.73.17 1.54.32 2.32.32 3.75 0 6.4-2.98 6.4-6.6 0-5.18-2.84-8.6-8.2-8.6-2.2 0-6.82 1.43-6.82 4.16 0 1.15.96 2.1 2.1 2.1 1.24 0 2.73-1.97 4.8-1.97 2.18 0 3.3 2.12 3.3 4.07 0 1.86-1.06 3.13-2.98 3.13-1.8 0-2.08-1.02-3.66-1.02-1.2 0-1.83.93-1.83 1.45 0 .4.06.72.1 1.06l.77 6.53c.34 2.42.93 2.95 2.42 2.95h7.47c1.42 0 2.25-.84 2.25-1.96 0-2.14-1.6-2.32-2.17-2.32h-5.83l-.46-3.3z"/></g></g></g></g></svg>