<svg xmlns="http://www.w3.org/2000/svg" viewBox="0 0 45 45" enable-background="new 0 0 45 45"><defs><clipPath id="a"><path d="M0 36h36V0H0v36z"/></clipPath></defs><g><g><g clip-path="url(#a)" transform="matrix(1.25 0 0 -1.25 0 45)"><g><path fill="#3b88c3" d="M36 4c0-2.2-1.8-4-4-4H4C1.8 0 0 1.8 0 4v28c0 2.2 1.8 4 4 4h28c2.2 0 4-1.8 4-4V4z"/></g><g><path fill="#fff" d="M15.06 14.32c0-1.74 1.08-3.23 2.94-3.23 1.77 0 2.95 1.42 2.95 3.22 0 1.64-1 3.22-2.95 3.22-1.77 0-2.94-1.4-2.94-3.22m-4.84 0c0 4.68 4.74 11.25 7.87 14.17.24.24.62.48 1 .73.33.22.67.22.92.22.87 0 2.2-1.15 2.2-2.27 0-.43-.28-.8-.65-1.27-1.24-1.5-3.26-3.5-4.28-4.95l.05-.06c.56.24 1.27.36 1.96.36 3.73 0 6.48-3.28 6.48-6.94 0-4.03-3.2-7.7-7.78-7.7-4.77 0-7.78 3.57-7.78 7.7"/></g></g></g></g></svg>