<svg xmlns="http://www.w3.org/2000/svg" viewBox="0 0 45 45" enable-background="new 0 0 45 45"><defs><clipPath id="a"><path d="M0 36h36V0H0v36z"/></clipPath></defs><g><g><g clip-path="url(#a)" transform="matrix(1.25 0 0 -1.25 0 45)"><g><path fill="#3b88c3" d="M36 4c0-2.2-1.8-4-4-4H4C1.8 0 0 1.8 0 4v28c0 2.2 1.8 4 4 4h28c2.2 0 4-1.8 4-4V4z"/></g><g><path fill="#fff" d="M20.95 21.76c0 1.73-1.1 3.22-2.95 3.22-1.77 0-2.94-1.42-2.94-3.22 0-1.65 1-3.23 2.94-3.23 1.77 0 2.95 1.4 2.95 3.23m4.83 0c0-4.68-4.74-11.26-7.87-14.17-.24-.26-.6-.5-.98-.76-.34-.2-.7-.2-.93-.2-.88 0-2.22 1.14-2.22 2.25 0 .42.28.8.66 1.26 1.24 1.52 3.25 3.5 4.28 4.96l-.07.07c-.56-.26-1.27-.4-1.95-.4-3.72 0-6.48 3.3-6.48 6.96 0 4.03 3.2 7.7 7.78 7.7 4.78 0 7.78-3.58 7.78-7.7"/></g></g></g></g></svg>