<svg xmlns="http://www.w3.org/2000/svg" viewBox="0 0 45 45" enable-background="new 0 0 45 45"><defs><clipPath id="a"><path d="M0 36h36V0H0v36z"/></clipPath></defs><g><g><g clip-path="url(#a)" transform="matrix(1.25 0 0 -1.25 0 45)"><g><path fill="#99aab5" d="M18.04 22.05L0 10V2C0 .9.9 0 2 0h32c1.1 0 2 .9 2 2v8L18.04 22.04z"/></g><path fill="#66757f" d="M36 3H0V2h36v1z"/><path fill="#66757f" d="M36 6H0V5h36v1z"/><path fill="#66757f" d="M36 9H0V8h36v1z"/><g><path fill="#66757f" d="M1.5 11h33L33 12H3l-1.5-1z"/></g><g><path fill="#e1e8ed" d="M18 36c-7.18 0-13-1.34-13-3V0h26v33c0 1.66-5.82 3-13 3"/></g><g><path fill="#ccd6dd" d="M18 23c7.18 0 13-1.34 13-3v2c0 1.66-5.82 3-13 3S5 23.66 5 22v-2c0 1.66 5.82 3 13 3"/></g><g><path fill="#ccd6dd" d="M18 11c7.18 0 13-1.34 13-3v2c0 1.66-5.82 3-13 3S5 11.66 5 10V8c0 1.66 5.82 3 13 3"/></g><g><path fill="#ccd6dd" d="M18 5c7.18 0 13-1.34 13-3v2c0 1.66-5.82 3-13 3S5 5.66 5 4V2c0 1.66 5.82 3 13 3"/></g><g><path fill="#ccd6dd" d="M18 29c7.18 0 13-1.34 13-3v2c0 1.66-5.82 3-13 3S5 29.66 5 28v-2c0 1.66 5.82 3 13 3"/></g><g><path fill="#ccd6dd" d="M14 35.85V0h2v35.96c-.7-.02-1.35-.06-2-.1"/></g><g><path fill="#ccd6dd" d="M8 34.92V0h2v35.36c-.73-.13-1.4-.28-2-.44"/></g><g><path fill="#ccd6dd" d="M20 35.96V0h2v35.85c-.65.05-1.3.1-2 .1"/></g><g><path fill="#ccd6dd" d="M26 35.36V0h2v34.92c-.6.16-1.27.3-2 .44"/></g><g><path fill="#292f33" d="M18 17c7.18 0 13-1.34 13-3v2c0 1.66-5.82 3-13 3S5 17.66 5 16v-2c0 1.66 5.82 3 13 3"/></g><g><path fill="#be1931" d="M11.13 30.42h-.7c-.58 0-.82.42-.82.83 0 .4.3.82.82.82h1.7c.52 0 .8-.37.8-.85V24.4c0-.6-.38-.94-.9-.94-.5 0-.9.34-.9.94v6.02z"/></g><g><path fill="#be1931" d="M18.5 28.27c0 .9-.1 2.78-1.3 2.78-1.23 0-1.32-1.87-1.32-2.78 0-.85.1-2.78 1.3-2.78 1.23 0 1.32 1.92 1.32 2.77m-4.5 0c0 1.95.77 4.4 3.2 4.4 2.4 0 3.17-2.45 3.17-4.4 0-1.96-.76-4.4-3.18-4.4-2.43 0-3.2 2.44-3.2 4.4"/></g><g><path fill="#be1931" d="M25.22 29.24c0 .67-.42 1.25-1.14 1.25-.7 0-1.14-.56-1.14-1.26 0-.63.38-1.25 1.14-1.25.68 0 1.14.53 1.14 1.24m1.87 0c0-1.8-1.85-4.35-3.06-5.48-.1-.1-.24-.2-.38-.3-.13-.07-.27-.07-.36-.07-.34 0-.86.43-.86.86 0 .17.1.32.26.5.48.58 1.26 1.35 1.65 1.92l-.02.02c-.22-.1-.5-.14-.76-.14-1.44 0-2.5 1.27-2.5 2.68 0 1.56 1.23 2.98 3 2.98 1.85 0 3.02-1.38 3.02-2.98"/></g></g></g></g></svg>