<svg xmlns="http://www.w3.org/2000/svg" viewBox="0 0 36 36"><path fill="#662113" d="M28 36H8c-1.65 0-3-1.35-3-3V5c0-1.65 1.35-3 3-3h20c1.65 0 3 1.35 3 3v28c0 1.65-1.35 3-3 3z"/><path fill="#C1694F" d="M28 34H8c-1.65 0-3-1.35-3-3V5c0-1.65 1.35-3 3-3h20c1.65 0 3 1.35 3 3v26c0 1.65-1.35 3-3 3z"/><path fill="#CCD6DD" d="M26 17H10c-1.654 0-3-1.346-3-3v-4c0-1.654 1.346-3 3-3h16c1.654 0 3 1.346 3 3v4c0 1.654-1.346 3-3 3zM10 9c-.551 0-1 .449-1 1v4c0 .551.449 1 1 1h16c.552 0 1-.449 1-1v-4c0-.551-.448-1-1-1H10z"/><path fill="#99AAB5" d="M26 17H10c-.55 0-1-.45-1-1s.45-1 1-1h16c.55 0 1 .45 1 1s-.45 1-1 1z"/><path fill="#FFF" d="M11 18c-.55 0-1-.45-1-1v-2c0-.55.45-1 1-1s1 .45 1 1v2c0 .55-.45 1-1 1zm4 0c-.55 0-1-.45-1-1v-2c0-.55.45-1 1-1s1 .45 1 1v2c0 .55-.45 1-1 1zm6 0c-.55 0-1-.45-1-1v-2c0-.55.45-1 1-1s1 .45 1 1v2c0 .55-.45 1-1 1zm4 0c-.55 0-1-.45-1-1v-2c0-.55.45-1 1-1s1 .45 1 1v2c0 .55-.45 1-1 1z"/><path fill="#E1E8ED" d="M26 9H10c-.552 0-1-.448-1-1s.448-1 1-1h16c.553 0 1 .448 1 1s-.447 1-1 1z"/><path fill="#FFF" d="M24 9H12c-.552 0-1-.448-1-1s.448-1 1-1h12c.553 0 1 .448 1 1s-.447 1-1 1z"/><path fill="#CCD6DD" d="M18 31.153c-.552 0-1-.447-1-1V3c-.012-.45-.195-1-1-1s-.988.55-1 1.012V5c0 .552-.448 1-1 1s-1-.448-1-1V3c0-1.206.799-3 3-3s3 1.794 3 3v27.153c0 .553-.448 1-1 1z"/><path fill="#99AAB5" d="M16 7h1v2h-1zm3 0h1v2h-1z"/><path fill="#F4900C" d="M18 35.651l-6-10.5v-3h12v3z"/><path fill="#FFCC4D" d="M18 32.651l-6-10.5s3-.886 6-.886 6 .886 6 .886l-6 10.5z"/><circle fill="#C1694F" cx="12.902" cy="27.098" r=".902"/><circle fill="#C1694F" cx="20.684" cy="30.684" r=".684"/><ellipse fill="#F4900C" cx="19.579" cy="25.211" rx="1.579" ry=".789"/><ellipse fill="#F4900C" cx="15.579" cy="28.211" rx="1.579" ry=".789"/><ellipse fill="#F4900C" cx="14.927" cy="23.487" rx=".927" ry=".513"/></svg>