<svg xmlns="http://www.w3.org/2000/svg" fill="none" viewBox="0 0 36 36">
  <path fill="#DA0001" d="M0 27a4 4 0 0 0 4 4h28a4 4 0 0 0 4-4v-4H0v4Z"/>
  <path fill="#EEE" d="M0 13h36v10H0V13Z"/>
  <path fill="#239F40" d="M36 13V9a4 4 0 0 0-4-4H4a4 4 0 0 0-4 4v4h36Z"/>
  <path fill="#FFBB26" d="M12.05 17.98s-.14-1.56.17-2.52a3.4 3.4 0 0 1 1.09-1.65c.83-.7 2.13-.87 3.04-.46a4.6 4.6 0 0 0-2.44.8c-.44.36-.79.88-.96 1.43-.29.94-.14 2.44-.14 2.44l-.76-.04Z"/>
  <path fill="#000" d="m12.85 18.07-.84-.05V18c0-.02-.14-1.59.17-2.55a3.4 3.4 0 0 1 1.1-1.66 3.13 3.13 0 0 1 3.09-.47l.17.08h-.19a4.6 4.6 0 0 0-2.41.79c-.43.36-.78.88-.95 1.42-.28.91-.14 2.4-.14 2.42v.05Zm-.75-.13.66.04a7.44 7.44 0 0 1 .15-2.41c.17-.56.53-1.09.97-1.46a3.3 3.3 0 0 1 1.16-.57c.36-.11.75-.19 1.12-.22a3.05 3.05 0 0 0-2.82.52 3.4 3.4 0 0 0-1.08 1.63 7.75 7.75 0 0 0-.16 2.47Z"/>
  <path fill="#000" d="M12.62 15.42a7.1 7.1 0 0 0-.24 2.48h.1a7.18 7.18 0 0 1 .24-2.45c.26-.79.76-1.49 1.75-1.9-1.18.26-1.71 1.46-1.85 1.87Z"/>
  <path fill="#FFBB26" d="M12.05 17.4h.72V19h-.72v-1.6Z"/>
  <path fill="#000" d="M12.81 19.05h-.8v-1.7h.8v1.7Zm-.72-.1h.63v-1.51h-.63v1.52Z"/>
  <path fill="#FFBB26" d="M14.92 20.43c-.43-.4-.46-.1-1.33-1.26 0 0-.37.11-.57.12-.1 0-.2 0-.3-.04-.18-.06-.49-.26-.49-.26l-.08-.68s-.15-.03-.2-.1a.19.19 0 0 1 0-.2c.06-.08.15-.1.26-.13.2-.06.44-.06.65-.01.19.04.34.13.52.18.56.17 1.75.28 1.75.28l-.21 2.1Z"/>
  <path fill="#000" d="m14.95 20.52-.06-.06a1.54 1.54 0 0 0-.33-.23c-.2-.12-.41-.24-.99-1-.09.02-.38.1-.55.1a.93.93 0 0 1-.32-.04 2.75 2.75 0 0 1-.5-.27h-.01l-.08-.67c-.05-.02-.15-.05-.2-.1a.23.23 0 0 1 0-.26c.07-.1.16-.12.26-.15h.03c.2-.06.43-.06.67-.01.11.02.21.06.3.1l.22.08c.55.17 1.73.27 1.75.28h.04l-.23 2.23Zm-1.34-1.4.02.02c.58.78.78.9.97 1 .09.06.17.1.28.2l.2-1.97c-.22-.02-1.2-.12-1.71-.27l-.23-.09c-.1-.04-.18-.08-.29-.1a1.37 1.37 0 0 0-.63.01h-.02c-.1.03-.17.05-.21.12a.14.14 0 0 0 0 .15c.02.04.11.06.17.07l.03.01v.03l.08.66c.07.04.31.2.46.25.09.03.19.04.29.04.18-.01.55-.12.56-.12l.03-.01Z"/>
  <path fill="#FFBB26" d="M12 18.86h.43c.1-.02.19-.07.3-.03.06.03.12.15.12.15s-.1.12-.17.15c-.2.07-.47.08-.65-.02-.05-.03-.07-.1-.07-.15 0-.03.05-.1.05-.1Z"/>
  <path fill="#000" d="M12.35 19.23a.68.68 0 0 1-.34-.08c-.07-.04-.1-.12-.1-.19 0-.04.05-.1.06-.12l.01-.02h.03l.42-.01.09-.02a.35.35 0 0 1 .22 0c.08.03.14.15.15.18l.01.02-.02.02c0 .02-.1.13-.18.16a.99.99 0 0 1-.35.06Zm-.32-.32a.18.18 0 0 0-.02.05c0 .04.01.09.04.1.17.11.44.09.62.03l.13-.11c-.03-.05-.06-.1-.09-.1-.06-.03-.11-.02-.17 0l-.1.02h-.4Z"/>
  <path fill="#FFBB26" d="M12 18.6h.42c.1-.01.24-.09.35-.05.07.03.12.16.12.16s-.1.12-.16.14c-.2.07-.53.1-.71 0-.05-.03-.07-.09-.07-.14 0-.04.05-.1.05-.1Z"/>
  <path fill="#000" d="M12.33 18.96a.66.66 0 0 1-.33-.07.21.21 0 0 1-.1-.18c0-.05.05-.11.06-.13l.01-.02h.45l.1-.03c.09-.02.18-.05.27-.02.07.03.13.16.15.18v.03l-.01.02c-.01.01-.1.13-.19.15a1.1 1.1 0 0 1-.41.07Zm-.3-.3a.18.18 0 0 0-.03.05c0 .03 0 .08.04.1.16.1.46.07.67 0 .04-.01.1-.07.13-.1-.02-.05-.06-.1-.09-.11-.05-.03-.13 0-.2.01l-.12.03-.4.01Z"/>
  <path fill="#FFBB26" d="m12 18.32.42-.01c.1-.01.24-.08.35-.04.07.02.12.15.12.15s-.1.12-.16.15c-.2.07-.53.1-.71 0-.05-.03-.07-.1-.07-.15 0-.04.05-.1.05-.1Z"/>
  <path fill="#000" d="M12.33 18.68a.66.66 0 0 1-.33-.08.21.21 0 0 1-.1-.18c0-.05.05-.1.06-.13l.01-.02h.45a.7.7 0 0 0 .1-.03c.09-.02.18-.05.27-.01.07.03.13.15.15.17v.03l-.01.02c-.01.01-.1.13-.19.16-.12.04-.27.07-.41.07Zm-.3-.32a.18.18 0 0 0-.03.06c0 .04 0 .09.04.1.16.1.46.08.67 0a.3.3 0 0 0 .13-.1c-.02-.05-.06-.1-.09-.11-.05-.02-.13 0-.2.02l-.12.02-.4.01Z"/>
  <path fill="#FFBB26" d="M12.95 17.6h.48l.23-.15-.23-.16h-.48l-.53-.13-.53.13h-.5l-.24.16.23.15h.51l.53.15.53-.15Z"/>
  <path fill="#000" d="m12.42 17.8-.53-.15h-.52l-.3-.2.3-.2h.52l.53-.14.53.13h.5l.3.2-.3.2h-.5l-.53.16Zm-1.02-.24h.5l.52.15.52-.15h.48l.17-.11-.17-.12h-.48l-.52-.13-.52.13h-.5l-.17.12.17.1Z"/>
  <path fill="#FFBB26" d="M18.99 13.04h-.18l.05 3.24-.48-2.15-.37.07.62 2.2-1.33-3.05-.36.16 1.46 3.07-1.35-1.97-.31.2 1.3 1.7-2.32-2.18c-.1.08-.19.17-.27.27l2.47 2.18-1.96-1.19-.2.3 2.34 1.26.09-.14.04.04.19-.18.1-.06.2-.07.18-.04h.18l.18.04.2.08.1.05.2.18.04-.04.06.1-.04.02.1.23.05.21 2.67-.48a3.32 3.32 0 0 0-.07-.33l-2.61.59 3.48-1.26a4.19 4.19 0 0 0-.13-.34L20.19 17l2.02-1.1a2.6 2.6 0 0 0-.2-.3l-1.95 1.19 2.47-2.18c-.08-.1-.17-.18-.27-.27l-2.31 2.18 1.3-1.7-.32-.2-1.22 1.78-.03-.02 1.36-2.86-.36-.15-1.25 2.88-.02-.01.56-2.02a3.84 3.84 0 0 0-.37-.08l-.45 1.97.06-3.05H19Z"/>
  <path fill="#000" d="m19.94 17.62-.06-.21-.62.14.6-.22-.07-.14-.27.1.26-.13-.02-.05-.07-.06-.03.02.03-.02-.15-.14-.07-.05-.2-.07-.2-.05h-.16l-.13.04.07.24-.1-.24-.04.01-.13.05.1.23-.14-.21h-.02l-.07.05-.15.14.03.03-.04-.03-.06.06-.03-.03-.09.13-2.4-1.31.02-.04.2-.3.02-.03 1.57.95-2.13-1.88.03-.03.27-.28.03-.02 1.94 1.83-.98-1.3.03-.02.31-.2.04-.03 1.06 1.54-1.24-2.6.04-.02.37-.16.04-.01 1.08 2.5-.45-1.63H18c.12-.04.25-.07.38-.09h.04l.39 1.76-.05-2.83h.05a4.9 4.9 0 0 1 .4 0h.05l-.05 2.65.35-1.58h.05l.37.08.05.02-.45 1.58 1.07-2.46.04.01c.14.05.26.1.37.16l.04.02-1.24 2.6 1.06-1.54.04.03.3.2.04.03-.98 1.3 1.94-1.84.04.03c.09.08.18.17.26.27l.04.03-2.13 1.88 1.56-.95.03.03.2.3.02.04-1.43.78 2.48-.98.02.04.14.33.01.05-2.85 1.02 1.96-.44v.04c.04.11.06.23.08.35v.04l-2.75.5Zm.03-.23.03.13 2.59-.46a3.5 3.5 0 0 0-.05-.25l-2.57.58Zm-.1-.23.07.14 3.45-1.24a4.14 4.14 0 0 0-.1-.25l-3.36 1.33-.05.02Zm-.08-.08-.03.03.04-.02-.01-.01Zm.04-.1.07.11 2.25-1.22-.14-.22-2.18 1.32Zm-4-1.12 2.25 1.23.08-.12-2.19-1.32-.14.21Zm2.35 1.08.05.04.12-.11-2.63-2.48a4.5 4.5 0 0 0-.2.2l2.66 2.35Zm1.45-.07.13.11.05-.04 2.66-2.35a4.6 4.6 0 0 0-.2-.2l-2.64 2.48Zm-.2-.14.16.1.03.03 1.56-2.03a3.7 3.7 0 0 0-.23-.16l-1.22 1.78-.1-.06 1.35-2.86a4.8 4.8 0 0 0-.28-.12l-1.25 2.89-.1-.05.56-2.01a1.27 1.27 0 0 0-.28-.06l-.53 2.35.06-3.44h-.31l.06 3.56h.17l.14.03.2.07v-.02Zm-2.63-1.9 1.56 2.03.03-.03.1-.05-1.46-2.1-.23.14Zm1.76 1.9v.02l.14-.05-1.42-3.29-.28.12 1.53 3.22.03-.02Zm.2-.06v.02l.13-.04h.01l-.55-2.47c-.1.01-.19.03-.28.06l.68 2.44h.02Z"/>
  <path fill="#FFBB26" d="M18.99 15.86c-1.05 0-1.9.77-1.9 1.73s.85 1.74 1.9 1.74c1.04 0 1.9-.78 1.9-1.74s-.86-1.73-1.9-1.73Z"/>
  <path fill="#000" d="M18.99 19.37c-1.07 0-1.95-.8-1.95-1.78s.87-1.77 1.95-1.77c1.07 0 1.94.8 1.94 1.77 0 .98-.87 1.78-1.94 1.78Zm0-3.46c-1.03 0-1.86.76-1.86 1.68 0 .93.83 1.7 1.86 1.7 1.02 0 1.85-.77 1.85-1.7 0-.93-.83-1.68-1.85-1.68Z"/>
  <path fill="#FFBB26" d="M12.33 22.96H23.9v-.66H12.33v.66Z"/>
  <path fill="#000" d="M23.95 23H12.28v-.74h11.67V23Zm-11.58-.09h11.49v-.56H12.37v.56Z"/>
  <path fill="#000" d="M12.7 22.25c0 .12.04.32.1.38-.2-.03-.2-.26-.23-.37h.12Zm.34 0c.01.12.05.32.1.38-.19-.03-.2-.26-.22-.37h.12Zm.35 0c.01.12.05.32.1.38-.19-.03-.2-.26-.22-.37h.12Zm.35 0c.01.12.05.32.1.38-.19-.03-.2-.26-.22-.37h.12Zm.35 0c.01.12.05.32.1.38-.19-.03-.2-.26-.22-.37h.12Zm.35 0c.01.12.05.32.1.38-.18-.03-.2-.26-.22-.37h.12Zm.35 0c.01.12.06.32.1.38-.18-.03-.2-.26-.22-.37h.12Zm.35 0c.01.12.06.32.1.38-.18-.03-.2-.26-.22-.37h.12Zm.35 0c.01.12.06.32.1.38-.18-.03-.2-.26-.22-.37h.13Zm.36 0c0 .12.05.32.1.38-.2-.03-.2-.26-.23-.37h.13Zm.35 0c0 .12.05.32.1.38-.2-.03-.2-.26-.23-.37h.13Zm.35 0c0 .12.05.32.1.38-.2-.03-.2-.26-.23-.37h.13Zm.35 0c0 .12.05.32.1.38-.2-.03-.2-.26-.23-.37h.13Zm.35 0c0 .12.05.32.1.38-.2-.03-.2-.26-.23-.37h.13Zm.35 0c0 .12.05.32.1.38-.2-.03-.2-.26-.23-.37h.13Zm.35 0c0 .12.05.32.1.38-.2-.03-.2-.26-.22-.37h.12Zm.35 0c0 .12.05.32.1.38-.2-.03-.2-.26-.22-.37h.12Zm.35 0c0 .12.05.32.1.38-.2-.03-.2-.26-.22-.37h.12Zm.35 0c0 .12.05.32.1.38-.2-.03-.2-.26-.22-.37H19Zm.35 0c0 .12.05.32.1.38-.2-.03-.2-.26-.22-.37h.12Zm.35 0c0 .12.05.32.1.38-.2-.03-.2-.26-.22-.37h.12Zm.35 0c0 .12.05.32.1.38-.19-.03-.2-.26-.22-.37h.12Zm.35 0c0 .12.05.32.1.38-.19-.03-.2-.26-.22-.37h.12Zm.35 0c0 .12.05.32.1.38-.19-.03-.2-.26-.22-.37h.12Zm.35 0c0 .12.05.32.1.38-.19-.03-.2-.26-.22-.37h.12Zm.35 0c0 .12.05.32.1.38-.19-.03-.2-.26-.22-.37h.12Zm.35 0c0 .12.05.32.1.38-.19-.03-.2-.26-.22-.37h.12Zm.35 0c0 .12.05.32.1.38-.19-.03-.2-.26-.22-.37h.12Zm.35 0c0 .12.05.32.1.38-.19-.03-.2-.26-.22-.37h.12Zm.35 0c0 .12.05.32.1.38-.19-.03-.2-.26-.22-.37h.12Zm.35 0c.01.12.05.32.1.38-.19-.03-.2-.26-.22-.37h.12Zm.35 0c.01.12.05.32.1.38-.19-.03-.2-.26-.22-.37h.12Z"/>
  <path fill="#FFBB26" d="M19.47 20.63c-.23.37.08.71-.09 1 0 0-.36-.07-.55-.07a1.02 1.02 0 0 0-.43.04c-.2.1-.37.22-.46.36-.17.25.03.49.33.36.27.25.58.1.96-.04.08-.03.2 0 .3.02.1.02.2.04.3 0 .23-.09.38-.35.53-.76l.22.1a.64.64 0 0 0-.18-.44l.27.09c0-.18-.09-.3-.17-.4l.25.1s-.02-.1-.02-.23c0-.1.01-.22 0-.28-.03-.1-.07-.14-.1-.21l-.04-.18c-.77-.34-.6-1.14-.47-1.48l-1.47 1.02c-.3.19.12.88.82 1Z"/>
  <path fill="#000" d="M18.6 22.5a.5.5 0 0 1-.34-.13c-.15.06-.29.03-.37-.06-.08-.1-.08-.24 0-.38.1-.14.27-.27.49-.37.1-.04.24-.06.45-.05.16 0 .44.05.53.07.05-.11.03-.24 0-.38-.02-.16-.06-.35.04-.54a1.27 1.27 0 0 1-.58-.29.9.9 0 0 1-.3-.46c-.03-.14.01-.26.11-.32l1.6-1.1-.06.14c-.04.09-.15.39-.11.71.04.33.22.56.55.7l.02.01v.03l.05.17c0 .03.02.05.03.08l.06.14v.17a1.2 1.2 0 0 0 .03.33l.01.08-.18-.07c.04.08.08.18.08.31v.06l-.19-.06c.06.09.1.2.1.34v.07l-.24-.1c-.15.44-.31.66-.53.74a.6.6 0 0 1-.37 0c-.08-.02-.17-.04-.23-.02a9.6 9.6 0 0 0-.13.05c-.19.06-.36.13-.52.13Zm-.32-.23.02.02c.22.2.47.1.8-.01a29 29 0 0 1 .12-.05c.08-.02.19 0 .28.02h.03c.1.02.2.04.29 0 .2-.07.34-.29.5-.72l.01-.05.2.08a.63.63 0 0 0-.16-.33l-.1-.12.35.12a.57.57 0 0 0-.16-.31l.05-.07.18.06a1.4 1.4 0 0 1 0-.27v-.15l-.06-.12-.04-.09a1.67 1.67 0 0 1-.04-.16.95.95 0 0 1-.58-.77 1.5 1.5 0 0 1 .07-.62l-1.36.93c-.09.06-.08.16-.07.23.06.28.4.62.86.7h.07l-.03.06c-.12.19-.09.37-.05.54.02.15.05.31-.04.46l-.01.03h-.03s-.37-.07-.55-.08c-.2 0-.33 0-.41.04-.2.1-.37.22-.45.34-.06.1-.07.2-.01.27.06.07.17.08.3.03l.02-.01Z"/>
  <path fill="#000" d="M19.5 19.96c-.1-.04-.26-.12-.3-.27l.12-.24c-.05.27.12.46.18.5Zm-.17.14c-.1-.04-.26-.12-.3-.27l.12-.24c-.05.27.13.46.18.5Zm-.14.17c-.1-.04-.26-.13-.3-.28l.12-.23c-.05.26.12.46.18.5ZM19 21.83s-.22-.01-.35.01a.6.6 0 0 0-.24.1c-.09.05-.19.12-.21.23-.02.05 0 .1.01.14l.02.07.1-.04-.02-.05a.21.21 0 0 1-.01-.1c.02-.06.1-.13.17-.18.18-.15.36-.1.53-.18Zm.77-.04c.08-.1.22-.22.26-.37.05-.15.07-.3.01-.42-.1.04-.3.76-.27.8Zm.57-1.16c-.03.15-.27.14-.38.1a.21.21 0 0 1-.13-.28c.04.16.3.24.5.18Zm.04-.37c-.03.15-.27.15-.38.1a.21.21 0 0 1-.13-.28c.04.17.3.24.5.18Z"/>
  <path fill="#FFBB26" d="M24.02 14.46c.05.2-.04.35-.16.4-.18.09-.34.03-.49-.1-.2-.16-.32-.38-.5-.52a.99.99 0 0 0-.7-.22.88.88 0 0 0-.57.25c-.3.3-.37.82-.06 1.25.28.4 1.15.7 1.47.94.3.22.43.36.48.52a.8.8 0 0 1 0 .57c-.11.24-.36.34-.74.35-.5 0-.96-.41-1.44-.48-.9-.14-1.15.21-1.98.22-1.65.02-2.33-.48-2.33-.48l-1.79 2.07c-.54.2-.57.96 0 1.37-.16.09-.32.29-.4.45-.09.2-.16.33-.27.48 0 0-.37-.06-.55-.07-.13 0-.33 0-.44.05-.2.09-.37.21-.46.35-.17.26.03.5.33.37.27.24.58.09.97-.05a.6.6 0 0 1 .29.03c.1.02.21.03.3 0 .23-.1.33-.33.49-.5l.22-.23.14.18c.1-.15.1-.3.08-.46l.19.2c.1-.15.09-.3.06-.43l.18.2s.02-.09.1-.2c.04-.08.13-.19.14-.25.03-.1.04-.23.04-.23.1.1.18.14.3.12.03-.18.04-.24.09-.31a5.73 5.73 0 0 0 1.77-.34c.4-.16.78-.37 1.12-.65.08-.08.16-.12.24-.2.08-.08.41-.04.58.02a.6.6 0 0 1 .18.16c.14.34.46 1.16 1.33 1.34-.22.37.09.71-.08 1 0 0-.36-.07-.55-.07-.13-.01-.32 0-.43.04-.2.1-.38.22-.47.36-.16.25.04.5.33.37.27.24.58.08.97-.05.08-.03.2 0 .29.02.1.02.21.04.31 0 .23-.09.38-.34.53-.76l.22.1a.64.64 0 0 0-.18-.44l.27.1a.6.6 0 0 0-.18-.41l.26.1-.03-.23c0-.1.02-.22 0-.28-.03-.1-.07-.14-.1-.21a1.67 1.67 0 0 1-.03-.18.9.9 0 0 1-.57-.88c0-.42-.08-.66-.37-.91.1-.02.2 0 .3 0 .55 0 1-.26 1.14-.64.1-.25.1-.54-.02-.76a1.78 1.78 0 0 0-.64-.68c-.36-.27-1.19-.57-1.4-.88-.25-.34-.18-.68.02-.88.2-.2.5-.29.85-.02.2.16.33.4.5.53.2.17.54.3.83.13.31-.18.35-.44.32-.67.05-.18.23-.34.54-.36-.1-.18-.55-.37-.74.02-.23-.31-.67-.16-.76.14.24-.05.49.02.66.24Z"/>
  <path fill="#000" d="M21.36 22.5a.5.5 0 0 1-.34-.12c-.14.05-.28.02-.36-.07-.09-.1-.08-.25 0-.38.1-.13.26-.27.49-.37.09-.04.24-.06.45-.05.16 0 .43.05.52.07.06-.11.04-.24.01-.38a.85.85 0 0 1 .03-.54c-.85-.2-1.16-1-1.3-1.35a.54.54 0 0 0-.16-.14c-.18-.07-.48-.08-.53-.03l-.15.13-.1.07c-.32.27-.7.5-1.13.66-.5.2-1.08.3-1.76.34a.76.76 0 0 0-.06.27v.04h-.04a.35.35 0 0 1-.27-.07l-.03.16c-.02.04-.05.1-.1.15l-.06.1-.1.2-.02.07-.13-.15c0 .1-.02.2-.09.31l-.03.05-.13-.14c0 .1-.02.23-.1.35l-.03.06-.16-.2c-.04.06-.13.15-.18.2l-.14.17c-.1.13-.2.27-.36.33-.1.05-.23.03-.33 0h-.03c-.09-.02-.18-.04-.24-.02l-.12.05c-.33.12-.62.22-.87 0-.15.06-.29.03-.37-.06-.08-.1-.08-.24 0-.37.1-.14.27-.27.49-.38.1-.04.25-.06.46-.05.16.01.44.06.53.07.1-.14.17-.26.25-.45.07-.16.22-.34.36-.44a.94.94 0 0 1-.38-.84c.04-.26.2-.46.43-.56L17 17.1l.04.03s.17.13.53.25c.34.1.92.23 1.76.22.36 0 .6-.07.85-.13.32-.09.63-.17 1.15-.1.22.04.43.14.64.24.26.13.53.25.8.25.37-.01.59-.11.68-.32.09-.2.05-.4 0-.54-.04-.15-.18-.3-.46-.5-.1-.09-.3-.18-.5-.28-.37-.19-.79-.4-.98-.67a1.07 1.07 0 0 1-.2-.7.95.95 0 0 1 .27-.6.93.93 0 0 1 .6-.27c.2-.01.48.02.73.23a1 1 0 0 1 .24.26c.08.09.16.19.26.27.15.13.3.16.44.09.09-.04.17-.16.14-.34a.61.61 0 0 0-.6-.22l-.08.02.02-.07a.5.5 0 0 1 .38-.34c.16-.03.3.02.41.13a.4.4 0 0 1 .34-.2h.01c.2 0 .38.13.44.25l.03.06h-.07c-.25.01-.44.13-.5.32a.66.66 0 0 1-.33.7.66.66 0 0 1-.5.07.96.96 0 0 1-.4-.2l-.22-.24c-.08-.1-.16-.2-.27-.29-.4-.32-.7-.07-.8.01-.23.25-.18.6-.01.82.12.19.48.37.81.54.23.12.44.23.59.34.32.23.49.37.65.7.11.22.12.51.02.79-.14.4-.6.66-1.17.66h-.2c.24.25.3.5.3.87 0 .4.18.67.54.84l.02.01v.02l.05.18c0 .03.02.05.03.08l.06.13a.6.6 0 0 1 0 .18v.1c0 .14.03.23.03.23l.02.08-.2-.07c.06.08.1.18.1.3v.07l-.2-.07c.06.1.11.2.1.35v.06l-.23-.1c-.16.44-.32.66-.54.75a.6.6 0 0 1-.36 0c-.09-.02-.18-.04-.24-.02l-.13.04c-.19.07-.36.14-.52.14Zm-.32-.23.02.02c.22.2.47.1.8 0l.12-.06c.09-.02.2 0 .29.02h.03c.1.02.2.04.28 0 .2-.07.35-.3.5-.72l.02-.05.2.08a.64.64 0 0 0-.17-.33l-.1-.13.36.12a.57.57 0 0 0-.16-.3l.05-.08.18.07a1.24 1.24 0 0 1 0-.27l-.01-.15-.05-.12a.64.64 0 0 1-.08-.25.95.95 0 0 1-.58-.92c0-.39-.06-.62-.35-.87l-.07-.07.1-.01h.3c.53 0 .97-.24 1.1-.6a.94.94 0 0 0-.02-.73c-.15-.3-.3-.43-.63-.67-.13-.1-.34-.21-.56-.33-.35-.18-.71-.36-.85-.56-.26-.37-.17-.73.03-.94.2-.2.54-.3.9-.02.12.1.21.2.3.3.07.09.13.17.2.23.21.17.53.28.8.13a.58.58 0 0 0 .29-.63v-.02c.06-.2.24-.34.5-.38a.47.47 0 0 0-.32-.13c-.1 0-.22.04-.3.2l-.03.07-.05-.06a.36.36 0 0 0-.36-.15.4.4 0 0 0-.28.2.7.7 0 0 1 .62.27v.02c.05.2-.02.38-.18.45-.18.09-.36.05-.54-.1-.1-.09-.18-.19-.26-.29l-.23-.24a.94.94 0 0 0-.68-.2c-.2 0-.4.09-.54.23a.86.86 0 0 0-.24.54c-.02.23.05.45.18.65.18.25.6.46.96.64.2.1.39.2.5.29.3.22.44.37.5.54.05.15.1.37 0 .6-.11.25-.37.37-.78.38-.28 0-.56-.13-.82-.25-.22-.1-.42-.2-.63-.23-.5-.08-.8 0-1.11.09-.25.06-.5.13-.86.13a5.8 5.8 0 0 1-1.8-.23c-.29-.1-.45-.19-.52-.23l-1.77 2.05h-.01a.58.58 0 0 0-.39.49c-.04.3.12.6.4.8l.05.04-.06.03c-.14.09-.3.27-.38.43-.09.21-.16.34-.28.5l-.02.02h-.02s-.36-.07-.55-.08a1 1 0 0 0-.41.05c-.2.09-.36.21-.44.33-.07.1-.07.2-.02.27.06.07.17.08.3.03h.02l.02.01c.22.2.48.1.8 0l.12-.05c.08-.03.2 0 .29.01h.03c.09.03.2.05.28.01.14-.06.22-.18.32-.3l.14-.18.22-.24.04-.03.14.17a.6.6 0 0 0 .04-.37l-.02-.15.24.26a.54.54 0 0 0 .03-.34l-.03-.16.23.26.07-.14.07-.1.08-.13c.03-.1.04-.22.04-.22v-.1l.07.07c.08.07.15.1.24.1a.6.6 0 0 1 .08-.3l.01-.01H17a5.65 5.65 0 0 0 1.76-.34c.42-.16.8-.37 1.1-.64l.1-.08c.05-.03.1-.07.14-.12.1-.1.47-.05.63.02.1.03.2.15.2.16h.01v.02c.14.34.45 1.14 1.3 1.3l.06.02-.03.05c-.11.2-.08.37-.05.54.02.16.05.32-.04.47l-.01.03h-.03s-.36-.08-.55-.09a1 1 0 0 0-.4.05.98.98 0 0 0-.45.34c-.07.1-.07.2-.02.27.06.07.17.08.3.03l.02-.01Z"/>
  <path fill="#000" d="M21.77 18.03c.2-.03.42.1.63.17.13.05.24.03.29.06l-.2.03.24.43a2.47 2.47 0 0 0-.96-.69Zm-.48 1.19c.05.36.17.64.38.85.2.2.5.34.89.43-.13-.2-.58-.35-.78-.52-.27-.24-.32-.64-.5-.76Zm1.15 2.35c.06-.12.17-.25.18-.4a.68.68 0 0 0-.06-.43c-.1.06-.16.8-.12.83Zm-1.33-2.54c.08-.13-.11-.27-.22-.3-.1-.03-.26.02-.3.15.15-.1.4-.01.52.15Zm-2.47-.12c.07.27.9.61 1.06.53l.23-.13c-.3.15-1.07-.14-1.3-.4Zm-.4.06c-.02.22.9.74 1.13.7l.24-.12c-.32.16-1.37-.44-1.38-.58Zm-.22.26c.04.27.79.7.96.63l.26-.1c-.4.09-1.07-.27-1.22-.53Zm-.24.25c-.02.2.47.54.7.58l.26-.09c-.33.05-.86-.28-.96-.5Zm-.37.06c-.02.17.39.62.57.64l.27-.06c-.26.07-.8-.45-.84-.58Zm-.21.27c-.01.1.11.35.3.44l.27-.03c-.35-.03-.54-.35-.57-.41Zm-.33.15c0 .1.03.26.17.35l.28-.01a.66.66 0 0 1-.45-.34Zm-1.35.36c.02.15.27.15.37.11.1-.04.19-.16.13-.28-.04.16-.3.24-.5.17Zm0 .35c.03.15.27.15.38.1.1-.03.18-.16.13-.28-.04.17-.3.24-.5.18Zm-.65 1.05c.11-.07.28-.14.38-.26.1-.12.18-.26.18-.4-.11.01-.58.63-.56.66Zm6.9.1-.36.01a.6.6 0 0 0-.24.1c-.09.05-.19.13-.21.24-.02.04 0 .1 0 .13l.03.07.1-.04-.02-.05a.21.21 0 0 1-.01-.1c.02-.06.09-.12.17-.18.18-.14.36-.1.53-.18Zm-7.6-.1s-.22 0-.35.02a.6.6 0 0 0-.24.1c-.09.05-.19.12-.21.23-.02.05 0 .1.01.14l.02.07.1-.04-.02-.06a.21.21 0 0 1-.01-.09c.02-.07.1-.13.17-.18.18-.15.36-.1.53-.18Z"/>
  <path fill="#FFBB26" d="m17.24 18.34-.13.07c-.93.32-1.65.31-2.58 0l-.14.34c-.1.38-.04.72.1 1 .09-.04.18-.12.27-.2.04.13.02.32.17.47a.97.97 0 0 0 .35-.3c.03.19.1.33.26.43a.6.6 0 0 0 .26-.42c.06.08.17.24.34.33.16-.16.15-.25.2-.4a.7.7 0 0 0 .35.33c.16-.16.14-.35.18-.48.07.1.17.18.27.2a.7.7 0 0 0 .13-.4c.14.1.27.13.36.14a1.2 1.2 0 0 0 0-.5c.14.04.16.08.33.08a.96.96 0 0 0-.4-1.05l-.32.36Z"/>
  <path fill="#000" d="m15.54 20.2-.02-.02a.59.59 0 0 1-.26-.35 1 1 0 0 1-.3.23l-.03.02-.03-.02a.63.63 0 0 1-.16-.38v-.05a.9.9 0 0 1-.23.16l-.04.02-.02-.04a1.4 1.4 0 0 1-.1-1.03l.15-.39.04.01c.48.17.89.24 1.28.24.4 0 .8-.07 1.27-.23l.12-.07.34-.38.03.02c.38.29.54.7.42 1.1v.04h-.04a.52.52 0 0 1-.25-.05l-.02-.01c.02.16.02.29-.01.44l-.01.04h-.04a.75.75 0 0 1-.32-.11.73.73 0 0 1-.14.35l-.01.02h-.03a.43.43 0 0 1-.24-.15v.03a.63.63 0 0 1-.17.38l-.02.02-.03-.02a.77.77 0 0 1-.31-.25c-.03.1-.06.2-.18.32l-.03.02-.03-.02a.93.93 0 0 1-.3-.26.59.59 0 0 1-.26.35l-.02.02Zm-.23-.59.01.1c.03.18.1.3.22.38.12-.08.19-.2.21-.37l.02-.1.07.09a1 1 0 0 0 .3.3c.09-.11.11-.18.14-.28l.02-.09.04-.1.04.1c.07.13.15.2.3.3.08-.1.1-.2.12-.3 0-.06.02-.1.03-.14l.03-.09.05.08a.4.4 0 0 0 .2.17c.07-.1.11-.23.11-.35v-.09l.07.05a.7.7 0 0 0 .3.13c.03-.17.02-.3 0-.44l-.02-.07.07.02.1.04.18.04c.1-.35-.04-.7-.36-.95l-.29.33-.15.08c-.9.32-1.63.32-2.57.01l-.11.3c-.1.33-.07.65.07.93.07-.04.13-.1.2-.16l.07-.06.02.06.03.14c.02.1.03.2.11.3a.93.93 0 0 0 .3-.27l.07-.09Z"/>
  <path fill="#000" d="m17.9 19.02-.22-.01-.07.13c0-.18-.11-.34-.13-.44.05.1.2.22.42.32Zm-.42.4-.18-.08-.1.13c.03-.18 0-.47 0-.57.03.1.12.38.28.51Zm-.49.2-.1-.07-.1.12c.03-.18-.01-.54-.02-.64.04.11.16.46.22.58Zm-.53.15-.1-.07-.1.13c.03-.18.04-.5.03-.6.03.1.1.42.17.54Zm-.54.06-.11-.07-.09.13c.02-.18.03-.5.02-.6.04.1.11.42.18.54Zm-.77.02.1-.07.1.13-.03-.5c-.03.1-.1.32-.17.44Zm-.52-.2.11-.06.1.12c-.03-.18-.04-.4-.03-.5-.04.1-.1.32-.18.44Z"/>
  <path fill="#FFBB26" d="M14.27 17.27s-.34.55-.41.83c-.05.18-.04.47-.04.47a.5.5 0 0 0 .33-.13c.01.15 0 .31.1.47a.6.6 0 0 0 .37-.29c0 .2.04.31.16.5.15-.05.26-.2.38-.3 0 .13.04.3.18.5.18-.1.28-.33.33-.46.04.12.14.36.33.46.14-.2.17-.37.18-.5.1.1.22.25.37.3.12-.19.16-.3.17-.5.1.2.24.25.36.29.1-.16.09-.32.1-.47.1.1.26.18.37.2.03-.03.11-.3.07-.47.13.1.24.18.44.17a1 1 0 0 0-.03-.44c.2.07.44.1.6.02-.38-.65-.98-.75-1.64-.86-.74.62-1.64.73-2.72.2Z"/>
  <path fill="#000" d="m16.01 19.37-.04-.01a.77.77 0 0 1-.3-.38.8.8 0 0 1-.31.38l-.04.01-.02-.03a1 1 0 0 1-.18-.43l-.02.02c-.09.1-.19.2-.3.23h-.04l-.01-.02a.92.92 0 0 1-.17-.39.65.65 0 0 1-.3.2l-.04.01-.02-.03c-.1-.14-.1-.27-.1-.4a.59.59 0 0 1-.3.08h-.05v-.04c0-.01 0-.3.04-.48.07-.29.4-.82.42-.85l.02-.03.04.02a2.8 2.8 0 0 0 1.46.32 2.2 2.2 0 0 0 1.21-.53l.02-.01H17c.66.11 1.27.22 1.67.88l.02.04-.04.02a.82.82 0 0 1-.56.02c.02.12.04.25 0 .38v.03h-.03a.6.6 0 0 1-.38-.11c0 .16-.06.36-.1.4h-.03a.69.69 0 0 1-.33-.14.7.7 0 0 1-.1.4l-.03.03-.03-.01a.66.66 0 0 1-.31-.2.92.92 0 0 1-.17.4l-.01.02-.04-.01c-.11-.03-.21-.14-.3-.23a.7.7 0 0 1-.02-.02 1 1 0 0 1-.18.43l-.02.03Zm-.35-.65.05.12c.07.2.17.34.27.41.1-.15.15-.29.15-.44v-.1l.08.07.09.1c.07.07.15.15.23.18a.8.8 0 0 0 .14-.44v-.15l.08.13c.1.16.21.22.3.25.07-.1.07-.21.08-.33v-.09l.01-.09.07.07c.1.09.23.16.32.17a.82.82 0 0 0 .05-.4l-.04-.12.1.08c.14.1.23.15.38.16.02-.13 0-.26-.03-.39l-.02-.08.07.03c.2.07.39.08.52.03-.37-.58-.94-.68-1.56-.78-.38.3-.8.49-1.24.53-.46.04-.95-.07-1.47-.31a3.9 3.9 0 0 0-.39.78c-.03.13-.04.32-.04.4.09 0 .18-.03.26-.1l.07-.07v.1l.01.08c0 .12.01.23.07.33.1-.03.21-.09.3-.25l.08-.13.01.15c0 .18.04.28.14.44a.67.67 0 0 0 .23-.19l.1-.09.07-.07v.1c0 .15.05.29.15.45.07-.05.2-.17.27-.42l.04-.12Z"/>
  <path fill="#000" d="m18.21 17.96-.13-.01-.02.15a3.97 3.97 0 0 0-.24-.5c.06.1.34.33.54.36h-.15Zm-.4.32-.18-.1.02.23a4.31 4.31 0 0 0-.2-.5c.07.08.24.29.36.37Zm-.46.3-.15-.12-.02.23a4.17 4.17 0 0 0-.12-.53c.07.1.2.33.3.43Zm-.5.17-.11-.05-.07.13c0-.18-.02-.43-.04-.53.05.1.14.34.23.45Zm-1.08.23-.1-.07-.1.11.1-.54c.02.11.05.38.1.5Zm.54-.07-.11-.05-.08.13c0-.18-.01-.44-.04-.53.05.1.15.34.23.45Zm-1.3.03.12-.05.07.13c0-.18.02-.44.04-.54-.05.1-.14.35-.23.46Zm-.54-.18.12-.05.07.13c0-.18.05-.5.07-.6-.05.1-.17.41-.26.52Zm-.45-.25.12-.04.05.14.11-.5c-.06.1-.19.3-.28.4Z"/>
  <path fill="#FFBB26" d="M17.2 16.72c.12.04.16 0 .3.02-.07-.3-.1-.4-.34-.59.18.05.21 0 .33.02-.26-.43-.22-.87-.6-1.1.12-.29.04-.35-.07-.61-.02-.07-.01-.22-.01-.22s-.33.07-.45.2l-.16.19c.03-.17.01-.24-.13-.34-.06.07-.12.23-.2.3-.01-.15-.05-.28-.18-.38a.5.5 0 0 0-.19.37c-.07-.06-.14-.22-.2-.3-.13.11-.15.18-.12.35l-.16-.19c-.12-.13-.45-.2-.45-.2l-.01.22c-.04.16-.23.36-.07.61-.47.3-.37.7-.62 1.13.11 0 .13.05.32 0-.25.2-.27.24-.34.52.09-.03.17 0 .34-.05-.06.13-.19.22-.26.28a.84.84 0 0 0-.3.48c.12 0 .24-.04.36-.07a.73.73 0 0 0-.02.44c.18-.06.26-.13.38-.2a.93.93 0 0 0 .02.4c.12-.02.23-.1.35-.21 0 .17.05.29.1.4.12-.07.22-.13.31-.2.04.12.04.22.17.4.2-.09.23-.2.3-.3.03.1.08.2.22.35.18-.12.17-.24.22-.36.04.08.13.24.27.3.1-.1.12-.25.15-.34.1.1.2.2.36.25a.66.66 0 0 0 .07-.38c.14.14.27.18.4.22a.9.9 0 0 0 0-.4c.14.1.28.15.42.12 0-.14-.04-.25-.08-.37.14.02.27.04.38 0 0 0-.07-.16-.17-.25-.12-.1-.29-.18-.41-.3l-.23-.2Z"/>
  <path fill="#000" d="m15.8 18.5-.02-.03a.96.96 0 0 1-.2-.28.53.53 0 0 1-.26.23l-.04.02-.02-.03a.88.88 0 0 1-.15-.34l-.25.15-.05.03-.02-.04a.82.82 0 0 1-.11-.32c-.1.08-.2.14-.3.16l-.04.01-.01-.04a.84.84 0 0 1-.04-.33c-.08.05-.16.1-.3.15l-.05.02-.01-.05a.76.76 0 0 1 0-.39c-.1.03-.2.05-.3.05h-.05l.01-.05a.9.9 0 0 1 .31-.5l.03-.03.17-.15h-.12l-.12.02-.08.03.02-.08c.06-.24.1-.32.24-.44l-.08-.01a.28.28 0 0 0-.1-.01h-.08l.04-.07c.1-.15.14-.3.19-.45.07-.24.14-.48.42-.67-.1-.2-.03-.36.03-.49a.72.72 0 0 0 .05-.12l.01-.2v-.06l.05.01c.02 0 .35.07.48.21l.07.08c0-.09.05-.16.16-.24l.03-.03.03.04.08.13.05.08c.02-.1.09-.2.19-.29l.02-.02.03.02c.12.08.17.19.2.3l.04-.09.09-.13.02-.04.04.03c.1.08.15.15.15.24l.07-.08c.13-.14.46-.2.48-.21l.06-.01v.25l.05.12c.08.17.12.26.03.5.23.14.3.37.38.61.05.16.1.31.2.47l.05.08h-.27c.15.14.18.26.24.48l.02.09-.07-.01a.6.6 0 0 0-.17 0l.13.13.2.14.21.15c.1.09.19.26.19.27l.02.05-.05.01a.9.9 0 0 1-.33 0c.04.1.07.2.06.32v.04h-.03a.5.5 0 0 1-.37-.06c.01.11 0 .21-.02.3l-.01.05-.05-.01a.88.88 0 0 1-.34-.16c0 .1-.02.2-.08.3l-.02.04-.03-.01a.86.86 0 0 1-.32-.21.62.62 0 0 1-.14.28l-.02.03-.03-.02a.59.59 0 0 1-.24-.23.49.49 0 0 1-.21.29l-.03.02Zm-.18-.52.02.1c.03.08.06.17.18.3.1-.07.12-.14.15-.23l.03-.09.04-.09.04.09c.04.07.11.2.22.27.06-.07.08-.16.1-.23l.02-.08.02-.07.06.06c.1.1.19.18.3.23a.63.63 0 0 0 .05-.33v-.12l.08.1c.1.1.22.15.33.18.01-.1.01-.2-.01-.33l-.02-.1.09.06c.12.09.24.13.35.12 0-.11-.04-.2-.08-.3l-.03-.1.07.02c.1.01.21.03.32.02a.72.72 0 0 0-.14-.2l-.2-.13-.21-.15a8.76 8.76 0 0 1-.23-.22l.04-.08c.06.02.1.01.14.01h.1c-.07-.24-.1-.33-.32-.5l.04-.08c.1.03.16.02.2.02h.04c-.08-.15-.12-.3-.17-.43-.08-.24-.15-.45-.37-.58l-.04-.02.02-.04c.09-.22.06-.3-.01-.46a3.75 3.75 0 0 1-.06-.13.5.5 0 0 1-.02-.17c-.1.03-.3.09-.37.17l-.15.19-.11.13.03-.17c.02-.13.01-.19-.08-.27l-.04.09c-.04.07-.08.14-.13.18l-.06.06-.01-.09c-.02-.12-.05-.23-.15-.31a.39.39 0 0 0-.14.3v.1l-.08-.06a1.04 1.04 0 0 1-.13-.19 2.63 2.63 0 0 0-.04-.08c-.1.08-.1.14-.08.27l.03.17-.1-.13-.16-.19a1 1 0 0 0-.38-.17l-.01.17a.81.81 0 0 1-.05.14c-.06.13-.13.28-.02.44l.03.04-.04.02c-.29.18-.35.4-.43.65-.04.13-.08.26-.15.4l.04.01c.05 0 .1.02.2 0l.04.07c-.22.17-.25.21-.31.42h.07c.05 0 .11 0 .2-.03l.1-.02-.05.08c-.05.12-.17.21-.24.27l-.03.03a.79.79 0 0 0-.26.4l.22-.05.05-.02.08-.02-.02.08a.67.67 0 0 0-.02.36 1.47 1.47 0 0 0 .31-.17l.08-.05v.1a.99.99 0 0 0 0 .34c.1-.04.2-.1.29-.2l.08-.08v.11c0 .14.03.25.08.34.09-.06.18-.1.25-.17l.05-.05.02.07.02.06a.8.8 0 0 0 .13.3.46.46 0 0 0 .21-.22l.03-.05.06-.09Z"/>
  <path fill="#000" d="M14.7 14.48v.15c-.03.1-.08.18-.09.28 0 .06.07.2.07.2s.05-.17.13-.2.24.05.24.05-.01-.15-.04-.2c-.05-.13-.31-.28-.31-.28Zm1.96 0s-.26.15-.31.28c-.02.05-.03.2-.03.2s.16-.08.23-.05c.08.03.13.2.13.2s.08-.14.07-.2c0-.1-.05-.19-.08-.28v-.15Zm-2.04.84a.27.27 0 0 0-.13.3c.03.08.1.15.2.18v.01a.33.33 0 0 0-.1.15c-.08.25-.03.5.12.66-.08.1-.23.35-.3.5.13-.12.27-.32.38-.44.04.04.1.06.15.08-.05.11-.17.4-.21.56.12-.14.23-.4.31-.52l.13.02a.3.3 0 0 0 .03.27c-.06.1-.18.4-.22.56.11-.13.22-.35.3-.48.04.03.1.06.17.08a3.9 3.9 0 0 0-.06.57c.08-.16.12-.4.16-.55l.1.01h.05c.03.15.05.39.1.54.02-.15.01-.42 0-.56.05 0 .1-.02.14-.05.07.14.14.39.24.53a3.79 3.79 0 0 0-.15-.59l.04-.03a.3.3 0 0 0 .06-.24c.14.12.37.32.52.41a4.12 4.12 0 0 0-.45-.48.8.8 0 0 0 .31-.14c.13.11.4.43.57.53-.1-.14-.4-.5-.5-.6.15-.15.2-.4.12-.64a.33.33 0 0 0-.1-.15c.1-.04.17-.1.2-.19.03-.1-.02-.23-.13-.3.03.1.05.17.03.28-.02.07-.09.13-.21.15l-.13.01.1.07.07.05a.3.3 0 0 1 .08.1c.06.23 0 .43-.14.56a.7.7 0 0 1-.6.2c-.17-.03-.17-.06-.17-.2a.3.3 0 0 0 .1-.03l.07-.05a.19.19 0 0 1 .03-.03c.04-.02.1-.02.1-.02l.07.02v-.06c0-.05.02-.08-.02-.16a.31.31 0 0 0-.12-.12l-.03-.02v-.02a.75.75 0 0 1-.02-.43c.02-.08.11-.15.22-.16.13-.02.27.02.34.03a.4.4 0 0 0-.37-.13c-.13.03-.26.11-.3.23a.84.84 0 0 0 .02.48c0 .03.02.05.04.06l.04.04c.03.02.06.03.08.08.02.04.01.04.01.07-.03 0-.05-.02-.1 0-.04.01-.06.04-.08.06l-.02.03a.26.26 0 0 1-.07.02h-.09a.26.26 0 0 1-.08-.02l-.02-.03a.1.1 0 0 0-.07-.06c-.05-.02-.07 0-.1 0-.01-.03-.02-.03 0-.07.02-.05.05-.06.08-.08l.05-.04a.12.12 0 0 0 .04-.06.85.85 0 0 0 .01-.48c-.04-.12-.16-.2-.3-.23a.4.4 0 0 0-.37.13c.07-.01.22-.05.34-.03.11.01.2.08.23.16.04.13.03.27-.02.43v.02l-.04.02a.31.31 0 0 0-.11.12c-.04.08-.03.11-.03.16v.06l.06-.02s.07 0 .12.02l.03.03c.01.01.02.03.06.05.03.02.07.02.1.03.02.14-.01.17-.17.2a.7.7 0 0 1-.6-.2.55.55 0 0 1-.13-.56.3.3 0 0 1 .08-.1l.06-.05.1-.07-.12-.01c-.13-.02-.2-.08-.21-.15-.03-.1 0-.18.03-.28Zm.53.24a.37.37 0 0 0-.15.04c.02.11.15.26.36.14-.03-.08-.1-.18-.21-.18Zm1 0c-.13 0-.19.1-.22.18.21.12.34-.03.36-.14a.39.39 0 0 0-.15-.04Zm-.5 1.2.05.02.16.05h.15c.04.08.03.13-.03.2s-.17.12-.34.12c-.16 0-.28-.05-.34-.13-.05-.06-.06-.11-.03-.19h.15c.06 0 .12-.02.16-.05a.55.55 0 0 0 .06-.03Zm-1.32.2c-.17.12-.33.36-.51.42l.16-.02.02.16c.09-.35.26-.33.33-.56Zm.33.07c-.16.15-.32.56-.5.64l.17-.04.04.15c.03-.35.25-.51.29-.75Zm2.54.06c.05.2.36.26.44.56l.02-.15h.2c-.35-.15-.35-.18-.66-.41Zm-.36.02c0 .2.42.5.44.8l.05-.15.15.07c-.2-.16-.5-.6-.64-.72Zm-1.96.25c-.13.17-.18.42-.33.53l.14-.07.08.14c-.04-.35.12-.36.1-.6Zm1.75.01c0 .2.26.37.21.72l.08-.14.15.07c-.15-.11-.3-.52-.44-.65Zm-.33.06c-.05.24.17.43.08.77l.1-.14.13.1c-.13-.13-.21-.54-.3-.73Zm-1.1.14c-.1.18-.08.42-.21.55l.13-.09.1.13c-.1-.34.03-.35-.02-.6Zm.74.03c-.07.23.12.3 0 .64l.11-.12.12.1c-.12-.14-.15-.43-.23-.62Zm-.32.14c-.08.19-.02.34-.15.47l.13-.1.1.13c-.12-.33 0-.27-.08-.5Z"/>
</svg>
